{
  "id": "a-canoa-virou",
  "title": "A Canoa Virou",
  "artist": "Tradicional",
  "difficulty": "Fácil",
  "bpm": 100,
  "duration": 39,
  "category": "Infantis",
  "isPremium": false,
  "coverUrl": "/images/covers/placeholder.png",
  "notes": [
    {
      "midi": 48,
      "time": 0,
      "duration": 0.3,
      "velocity": 0.63,
      "hand": "left"
    },
    {
      "midi": 64,
      "time": 0,
      "duration": 0.3,
      "velocity": 0.63,
      "hand": "right"
    },
    {
      "midi": 79,
      "time": 0,
      "duration": 0.3,
      "velocity": 0.63,
      "hand": "right"
    },
    {
      "midi": 48,
      "time": 0.3,
      "duration": 0.3,
      "velocity": 0.63,
      "hand": "left"
    },
    {
      "midi": 64,
      "time": 0.3,
      "duration": 0.3,
      "velocity": 0.63,
      "hand": "right"
    },
    {
      "midi": 79,
      "time": 0.3,
      "duration": 0.3,
      "velocity": 0.63,
      "hand": "right"
    },
    {
      "midi": 50,
      "time": 0.6,
      "duration": 0.6,
      "velocity": 0.63,
      "hand": "left"
    },
    {
      "midi": 65,
      "time": 0.6,
      "duration": 0.6,
      "velocity": 0.63,
      "hand": "right"
    },
    {
      "midi": 79,
      "time": 0.6,
      "duration": 0.6,
      "velocity": 0.63,
      "hand": "right"
    },
    {
      "midi": 52,
      "time": 1.2,
      "duration": 0.3,
      "velocity": 0.63,
      "hand": "left"
    },
    {
      "midi": 64,
      "time": 1.2,
      "duration": 0.3,
      "velocity": 0.63,
      "hand": "right"
    },
    {
      "midi": 79,
      "time": 1.2,
      "duration": 0.3,
      "velocity": 0.63,
      "hand": "right"
    },
    {
      "midi": 53,
      "time": 1.5,
      "duration": 0.3,
      "velocity": 0.63,
      "hand": "left"
    },
    {
      "midi": 62,
      "time": 1.5,
      "duration": 0.3,
      "velocity": 0.63,
      "hand": "right"
    },
    {
      "midi": 77,
      "time": 1.5,
      "duration": 0.3,
      "velocity": 0.63,
      "hand": "right"
    },
    {
      "midi": 55,
      "time": 1.8,
      "duration": 0.6,
      "velocity": 0.63,
      "hand": "left"
    },
    {
      "midi": 60,
      "time": 1.8,
      "duration": 0.6,
      "velocity": 0.63,
      "hand": "right"
    },
    {
      "midi": 76,
      "time": 1.8,
      "duration": 0.6,
      "velocity": 0.63,
      "hand": "right"
    },
    {
      "midi": 48,
      "time": 2.4,
      "duration": 0.3,
      "velocity": 0.63,
      "hand": "left"
    },
    {
      "midi": 64,
      "time": 2.4,
      "duration": 0.3,
      "velocity": 0.63,
      "hand": "right"
    },
    {
      "midi": 79,
      "time": 2.4,
      "duration": 0.3,
      "velocity": 0.63,
      "hand": "right"
    },
    {
      "midi": 48,
      "time": 2.7,
      "duration": 0.3,
      "velocity": 0.63,
      "hand": "left"
    },
    {
      "midi": 64,
      "time": 2.7,
      "duration": 0.3,
      "velocity": 0.63,
      "hand": "right"
    },
    {
      "midi": 79,
      "time": 2.7,
      "duration": 0.3,
      "velocity": 0.63,
      "hand": "right"
    },
    {
      "midi": 55,
      "time": 3,
      "duration": 0.3,
      "velocity": 0.63,
      "hand": "left"
    },
    {
      "midi": 64,
      "time": 3,
      "duration": 0.3,
      "velocity": 0.63,
      "hand": "right"
    },
    {
      "midi": 84,
      "time": 3,
      "duration": 0.3,
      "velocity": 0.63,
      "hand": "right"
    },
    {
      "midi": 55,
      "time": 3.3,
      "duration": 0.3,
      "velocity": 0.63,
      "hand": "left"
    },
    {
      "midi": 64,
      "time": 3.3,
      "duration": 0.3,
      "velocity": 0.63,
      "hand": "right"
    },
    {
      "midi": 84,
      "time": 3.3,
      "duration": 0.3,
      "velocity": 0.63,
      "hand": "right"
    },
    {
      "midi": 55,
      "time": 3.6,
      "duration": 0.3,
      "velocity": 0.63,
      "hand": "left"
    },
    {
      "midi": 64,
      "time": 3.6,
      "duration": 0.3,
      "velocity": 0.63,
      "hand": "right"
    },
    {
      "midi": 84,
      "time": 3.6,
      "duration": 0.3,
      "velocity": 0.63,
      "hand": "right"
    },
    {
      "midi": 55,
      "time": 3.9,
      "duration": 0.3,
      "velocity": 0.63,
      "hand": "left"
    },
    {
      "midi": 64,
      "time": 3.9,
      "duration": 0.3,
      "velocity": 0.63,
      "hand": "right"
    },
    {
      "midi": 83,
      "time": 3.9,
      "duration": 0.3,
      "velocity": 0.63,
      "hand": "right"
    },
    {
      "midi": 53,
      "time": 4.2,
      "duration": 0.6,
      "velocity": 0.63,
      "hand": "left"
    },
    {
      "midi": 65,
      "time": 4.2,
      "duration": 0.6,
      "velocity": 0.63,
      "hand": "right"
    },
    {
      "midi": 81,
      "time": 4.2,
      "duration": 0.6,
      "velocity": 0.63,
      "hand": "right"
    },
    {
      "midi": 48,
      "time": 4.8,
      "duration": 0.3,
      "velocity": 0.63,
      "hand": "left"
    },
    {
      "midi": 65,
      "time": 4.8,
      "duration": 0.3,
      "velocity": 0.63,
      "hand": "right"
    },
    {
      "midi": 81,
      "time": 4.8,
      "duration": 0.3,
      "velocity": 0.63,
      "hand": "right"
    },
    {
      "midi": 48,
      "time": 5.1,
      "duration": 0.3,
      "velocity": 0.63,
      "hand": "left"
    },
    {
      "midi": 65,
      "time": 5.1,
      "duration": 0.3,
      "velocity": 0.63,
      "hand": "right"
    },
    {
      "midi": 81,
      "time": 5.1,
      "duration": 0.3,
      "velocity": 0.63,
      "hand": "right"
    },
    {
      "midi": 57,
      "time": 5.4,
      "duration": 0.3,
      "velocity": 0.63,
      "hand": "left"
    },
    {
      "midi": 77,
      "time": 5.4,
      "duration": 0.3,
      "velocity": 0.63,
      "hand": "right"
    },
    {
      "midi": 86,
      "time": 5.4,
      "duration": 0.3,
      "velocity": 0.63,
      "hand": "right"
    },
    {
      "midi": 57,
      "time": 5.7,
      "duration": 0.3,
      "velocity": 0.63,
      "hand": "left"
    },
    {
      "midi": 77,
      "time": 5.7,
      "duration": 0.3,
      "velocity": 0.63,
      "hand": "right"
    },
    {
      "midi": 86,
      "time": 5.7,
      "duration": 0.3,
      "velocity": 0.63,
      "hand": "right"
    },
    {
      "midi": 57,
      "time": 6,
      "duration": 0.3,
      "velocity": 0.63,
      "hand": "left"
    },
    {
      "midi": 77,
      "time": 6,
      "duration": 0.3,
      "velocity": 0.63,
      "hand": "right"
    },
    {
      "midi": 86,
      "time": 6,
      "duration": 0.3,
      "velocity": 0.63,
      "hand": "right"
    },
    {
      "midi": 55,
      "time": 6.3,
      "duration": 0.3,
      "velocity": 0.63,
      "hand": "left"
    },
    {
      "midi": 76,
      "time": 6.3,
      "duration": 0.3,
      "velocity": 0.63,
      "hand": "right"
    },
    {
      "midi": 84,
      "time": 6.3,
      "duration": 0.3,
      "velocity": 0.63,
      "hand": "right"
    },
    {
      "midi": 53,
      "time": 6.6,
      "duration": 0.3,
      "velocity": 0.63,
      "hand": "left"
    },
    {
      "midi": 74,
      "time": 6.6,
      "duration": 0.3,
      "velocity": 0.63,
      "hand": "right"
    },
    {
      "midi": 83,
      "time": 6.6,
      "duration": 0.3,
      "velocity": 0.63,
      "hand": "right"
    },
    {
      "midi": 53,
      "time": 6.9,
      "duration": 0.3,
      "velocity": 0.63,
      "hand": "left"
    },
    {
      "midi": 74,
      "time": 6.9,
      "duration": 0.3,
      "velocity": 0.63,
      "hand": "right"
    },
    {
      "midi": 83,
      "time": 6.9,
      "duration": 0.3,
      "velocity": 0.63,
      "hand": "right"
    },
    {
      "midi": 53,
      "time": 7.2,
      "duration": 0.3,
      "velocity": 0.63,
      "hand": "left"
    },
    {
      "midi": 74,
      "time": 7.2,
      "duration": 0.3,
      "velocity": 0.63,
      "hand": "right"
    },
    {
      "midi": 83,
      "time": 7.2,
      "duration": 0.3,
      "velocity": 0.63,
      "hand": "right"
    },
    {
      "midi": 52,
      "time": 7.5,
      "duration": 0.3,
      "velocity": 0.63,
      "hand": "left"
    },
    {
      "midi": 72,
      "time": 7.5,
      "duration": 0.3,
      "velocity": 0.63,
      "hand": "right"
    },
    {
      "midi": 81,
      "time": 7.5,
      "duration": 0.3,
      "velocity": 0.63,
      "hand": "right"
    },
    {
      "midi": 50,
      "time": 7.8,
      "duration": 0.6,
      "velocity": 0.63,
      "hand": "left"
    },
    {
      "midi": 71,
      "time": 7.8,
      "duration": 0.6,
      "velocity": 0.63,
      "hand": "right"
    },
    {
      "midi": 79,
      "time": 7.8,
      "duration": 0.6,
      "velocity": 0.63,
      "hand": "right"
    },
    {
      "midi": 52,
      "time": 8.4,
      "duration": 0.3,
      "velocity": 0.63,
      "hand": "left"
    },
    {
      "midi": 72,
      "time": 8.4,
      "duration": 0.3,
      "velocity": 0.63,
      "hand": "right"
    },
    {
      "midi": 81,
      "time": 8.4,
      "duration": 0.3,
      "velocity": 0.63,
      "hand": "right"
    },
    {
      "midi": 53,
      "time": 8.7,
      "duration": 0.3,
      "velocity": 0.63,
      "hand": "left"
    },
    {
      "midi": 74,
      "time": 8.7,
      "duration": 0.3,
      "velocity": 0.63,
      "hand": "right"
    },
    {
      "midi": 83,
      "time": 8.7,
      "duration": 0.3,
      "velocity": 0.63,
      "hand": "right"
    },
    {
      "midi": 55,
      "time": 9,
      "duration": 0.45,
      "velocity": 0.63,
      "hand": "left"
    },
    {
      "midi": 76,
      "time": 9,
      "duration": 0.45,
      "velocity": 0.63,
      "hand": "right"
    },
    {
      "midi": 84,
      "time": 9,
      "duration": 0.45,
      "velocity": 0.63,
      "hand": "right"
    },
    {
      "midi": 48,
      "time": 9.45,
      "duration": 0.15,
      "velocity": 0.63,
      "hand": "left"
    },
    {
      "midi": 64,
      "time": 9.45,
      "duration": 0.15,
      "velocity": 0.63,
      "hand": "right"
    },
    {
      "midi": 79,
      "time": 9.45,
      "duration": 0.15,
      "velocity": 0.63,
      "hand": "right"
    },
    {
      "midi": 48,
      "time": 9.6,
      "duration": 0.3,
      "velocity": 0.63,
      "hand": "left"
    },
    {
      "midi": 64,
      "time": 9.6,
      "duration": 0.3,
      "velocity": 0.63,
      "hand": "right"
    },
    {
      "midi": 79,
      "time": 9.6,
      "duration": 0.3,
      "velocity": 0.63,
      "hand": "right"
    },
    {
      "midi": 48,
      "time": 9.9,
      "duration": 0.3,
      "velocity": 0.63,
      "hand": "left"
    },
    {
      "midi": 64,
      "time": 9.9,
      "duration": 0.3,
      "velocity": 0.63,
      "hand": "right"
    },
    {
      "midi": 79,
      "time": 9.9,
      "duration": 0.3,
      "velocity": 0.63,
      "hand": "right"
    },
    {
      "midi": 48,
      "time": 10.2,
      "duration": 0.45,
      "velocity": 0.63,
      "hand": "left"
    },
    {
      "midi": 64,
      "time": 10.2,
      "duration": 0.45,
      "velocity": 0.63,
      "hand": "right"
    },
    {
      "midi": 84,
      "time": 10.2,
      "duration": 0.45,
      "velocity": 0.63,
      "hand": "right"
    },
    {
      "midi": 55,
      "time": 10.65,
      "duration": 0.15,
      "velocity": 0.63,
      "hand": "left"
    },
    {
      "midi": 67,
      "time": 10.65,
      "duration": 0.15,
      "velocity": 0.63,
      "hand": "right"
    },
    {
      "midi": 79,
      "time": 10.65,
      "duration": 0.15,
      "velocity": 0.63,
      "hand": "right"
    },
    {
      "midi": 53,
      "time": 10.8,
      "duration": 0.3,
      "velocity": 0.63,
      "hand": "left"
    },
    {
      "midi": 65,
      "time": 10.8,
      "duration": 0.3,
      "velocity": 0.63,
      "hand": "right"
    },
    {
      "midi": 77,
      "time": 10.8,
      "duration": 0.3,
      "velocity": 0.63,
      "hand": "right"
    },
    {
      "midi": 52,
      "time": 11.1,
      "duration": 0.3,
      "velocity": 0.63,
      "hand": "left"
    },
    {
      "midi": 64,
      "time": 11.1,
      "duration": 0.3,
      "velocity": 0.63,
      "hand": "right"
    },
    {
      "midi": 76,
      "time": 11.1,
      "duration": 0.3,
      "velocity": 0.63,
      "hand": "right"
    },
    {
      "midi": 50,
      "time": 11.4,
      "duration": 0.3,
      "velocity": 0.63,
      "hand": "left"
    },
    {
      "midi": 62,
      "time": 11.4,
      "duration": 0.3,
      "velocity": 0.63,
      "hand": "right"
    },
    {
      "midi": 74,
      "time": 11.4,
      "duration": 0.3,
      "velocity": 0.63,
      "hand": "right"
    },
    {
      "midi": 50,
      "time": 11.85,
      "duration": 0.15,
      "velocity": 0.63,
      "hand": "left"
    },
    {
      "midi": 65,
      "time": 11.85,
      "duration": 0.15,
      "velocity": 0.63,
      "hand": "right"
    },
    {
      "midi": 79,
      "time": 11.85,
      "duration": 0.15,
      "velocity": 0.63,
      "hand": "right"
    },
    {
      "midi": 50,
      "time": 12,
      "duration": 0.3,
      "velocity": 0.63,
      "hand": "left"
    },
    {
      "midi": 65,
      "time": 12,
      "duration": 0.3,
      "velocity": 0.63,
      "hand": "right"
    },
    {
      "midi": 79,
      "time": 12,
      "duration": 0.3,
      "velocity": 0.63,
      "hand": "right"
    },
    {
      "midi": 50,
      "time": 12.3,
      "duration": 0.3,
      "velocity": 0.63,
      "hand": "left"
    },
    {
      "midi": 65,
      "time": 12.3,
      "duration": 0.3,
      "velocity": 0.63,
      "hand": "right"
    },
    {
      "midi": 79,
      "time": 12.3,
      "duration": 0.3,
      "velocity": 0.63,
      "hand": "right"
    },
    {
      "midi": 50,
      "time": 12.6,
      "duration": 0.15,
      "velocity": 0.63,
      "hand": "left"
    },
    {
      "midi": 67,
      "time": 12.6,
      "duration": 0.15,
      "velocity": 0.63,
      "hand": "right"
    },
    {
      "midi": 83,
      "time": 12.6,
      "duration": 0.15,
      "velocity": 0.63,
      "hand": "right"
    },
    {
      "midi": 50,
      "time": 12.75,
      "duration": 0.3,
      "velocity": 0.63,
      "hand": "left"
    },
    {
      "midi": 67,
      "time": 12.75,
      "duration": 0.3,
      "velocity": 0.63,
      "hand": "right"
    },
    {
      "midi": 83,
      "time": 12.75,
      "duration": 0.3,
      "velocity": 0.63,
      "hand": "right"
    },
    {
      "midi": 55,
      "time": 13.05,
      "duration": 0.15,
      "velocity": 0.63,
      "hand": "left"
    },
    {
      "midi": 71,
      "time": 13.05,
      "duration": 0.15,
      "velocity": 0.63,
      "hand": "right"
    },
    {
      "midi": 79,
      "time": 13.05,
      "duration": 0.15,
      "velocity": 0.63,
      "hand": "right"
    },
    {
      "midi": 53,
      "time": 13.2,
      "duration": 0.3,
      "velocity": 0.63,
      "hand": "left"
    },
    {
      "midi": 69,
      "time": 13.2,
      "duration": 0.3,
      "velocity": 0.63,
      "hand": "right"
    },
    {
      "midi": 77,
      "time": 13.2,
      "duration": 0.3,
      "velocity": 0.63,
      "hand": "right"
    },
    {
      "midi": 50,
      "time": 13.5,
      "duration": 0.3,
      "velocity": 0.63,
      "hand": "left"
    },
    {
      "midi": 65,
      "time": 13.5,
      "duration": 0.3,
      "velocity": 0.63,
      "hand": "right"
    },
    {
      "midi": 74,
      "time": 13.5,
      "duration": 0.3,
      "velocity": 0.63,
      "hand": "right"
    },
    {
      "midi": 48,
      "time": 13.8,
      "duration": 0.3,
      "velocity": 0.63,
      "hand": "left"
    },
    {
      "midi": 64,
      "time": 13.8,
      "duration": 0.3,
      "velocity": 0.63,
      "hand": "right"
    },
    {
      "midi": 72,
      "time": 13.8,
      "duration": 0.3,
      "velocity": 0.63,
      "hand": "right"
    },
    {
      "midi": 48,
      "time": 14.25,
      "duration": 0.15,
      "velocity": 0.63,
      "hand": "left"
    },
    {
      "midi": 64,
      "time": 14.25,
      "duration": 0.15,
      "velocity": 0.63,
      "hand": "right"
    },
    {
      "midi": 79,
      "time": 14.25,
      "duration": 0.15,
      "velocity": 0.63,
      "hand": "right"
    },
    {
      "midi": 48,
      "time": 14.4,
      "duration": 0.3,
      "velocity": 0.63,
      "hand": "left"
    },
    {
      "midi": 64,
      "time": 14.4,
      "duration": 0.3,
      "velocity": 0.63,
      "hand": "right"
    },
    {
      "midi": 79,
      "time": 14.4,
      "duration": 0.3,
      "velocity": 0.63,
      "hand": "right"
    },
    {
      "midi": 48,
      "time": 14.7,
      "duration": 0.3,
      "velocity": 0.63,
      "hand": "left"
    },
    {
      "midi": 64,
      "time": 14.7,
      "duration": 0.3,
      "velocity": 0.63,
      "hand": "right"
    },
    {
      "midi": 79,
      "time": 14.7,
      "duration": 0.3,
      "velocity": 0.63,
      "hand": "right"
    },
    {
      "midi": 48,
      "time": 15,
      "duration": 0.45,
      "velocity": 0.63,
      "hand": "left"
    },
    {
      "midi": 64,
      "time": 15,
      "duration": 0.45,
      "velocity": 0.63,
      "hand": "right"
    },
    {
      "midi": 84,
      "time": 15,
      "duration": 0.45,
      "velocity": 0.63,
      "hand": "right"
    },
    {
      "midi": 55,
      "time": 15.45,
      "duration": 0.15,
      "velocity": 0.63,
      "hand": "left"
    },
    {
      "midi": 67,
      "time": 15.45,
      "duration": 0.15,
      "velocity": 0.63,
      "hand": "right"
    },
    {
      "midi": 79,
      "time": 15.45,
      "duration": 0.15,
      "velocity": 0.63,
      "hand": "right"
    },
    {
      "midi": 53,
      "time": 15.6,
      "duration": 0.3,
      "velocity": 0.63,
      "hand": "left"
    },
    {
      "midi": 65,
      "time": 15.6,
      "duration": 0.3,
      "velocity": 0.63,
      "hand": "right"
    },
    {
      "midi": 77,
      "time": 15.6,
      "duration": 0.3,
      "velocity": 0.63,
      "hand": "right"
    },
    {
      "midi": 52,
      "time": 15.9,
      "duration": 0.3,
      "velocity": 0.63,
      "hand": "left"
    },
    {
      "midi": 64,
      "time": 15.9,
      "duration": 0.3,
      "velocity": 0.63,
      "hand": "right"
    },
    {
      "midi": 76,
      "time": 15.9,
      "duration": 0.3,
      "velocity": 0.63,
      "hand": "right"
    },
    {
      "midi": 50,
      "time": 16.2,
      "duration": 0.3,
      "velocity": 0.63,
      "hand": "left"
    },
    {
      "midi": 62,
      "time": 16.2,
      "duration": 0.3,
      "velocity": 0.63,
      "hand": "right"
    },
    {
      "midi": 74,
      "time": 16.2,
      "duration": 0.3,
      "velocity": 0.63,
      "hand": "right"
    },
    {
      "midi": 50,
      "time": 16.65,
      "duration": 0.15,
      "velocity": 0.63,
      "hand": "left"
    },
    {
      "midi": 65,
      "time": 16.65,
      "duration": 0.15,
      "velocity": 0.63,
      "hand": "right"
    },
    {
      "midi": 79,
      "time": 16.65,
      "duration": 0.15,
      "velocity": 0.63,
      "hand": "right"
    },
    {
      "midi": 50,
      "time": 16.8,
      "duration": 0.3,
      "velocity": 0.63,
      "hand": "left"
    },
    {
      "midi": 65,
      "time": 16.8,
      "duration": 0.3,
      "velocity": 0.63,
      "hand": "right"
    },
    {
      "midi": 79,
      "time": 16.8,
      "duration": 0.3,
      "velocity": 0.63,
      "hand": "right"
    },
    {
      "midi": 50,
      "time": 17.1,
      "duration": 0.3,
      "velocity": 0.63,
      "hand": "left"
    },
    {
      "midi": 65,
      "time": 17.1,
      "duration": 0.3,
      "velocity": 0.63,
      "hand": "right"
    },
    {
      "midi": 79,
      "time": 17.1,
      "duration": 0.3,
      "velocity": 0.63,
      "hand": "right"
    },
    {
      "midi": 50,
      "time": 17.4,
      "duration": 0.15,
      "velocity": 0.63,
      "hand": "left"
    },
    {
      "midi": 67,
      "time": 17.4,
      "duration": 0.15,
      "velocity": 0.63,
      "hand": "right"
    },
    {
      "midi": 83,
      "time": 17.4,
      "duration": 0.15,
      "velocity": 0.63,
      "hand": "right"
    },
    {
      "midi": 50,
      "time": 17.55,
      "duration": 0.3,
      "velocity": 0.63,
      "hand": "left"
    },
    {
      "midi": 67,
      "time": 17.55,
      "duration": 0.3,
      "velocity": 0.63,
      "hand": "right"
    },
    {
      "midi": 83,
      "time": 17.55,
      "duration": 0.3,
      "velocity": 0.63,
      "hand": "right"
    },
    {
      "midi": 55,
      "time": 17.85,
      "duration": 0.15,
      "velocity": 0.63,
      "hand": "left"
    },
    {
      "midi": 71,
      "time": 17.85,
      "duration": 0.15,
      "velocity": 0.63,
      "hand": "right"
    },
    {
      "midi": 79,
      "time": 17.85,
      "duration": 0.15,
      "velocity": 0.63,
      "hand": "right"
    },
    {
      "midi": 53,
      "time": 18,
      "duration": 0.3,
      "velocity": 0.63,
      "hand": "left"
    },
    {
      "midi": 69,
      "time": 18,
      "duration": 0.3,
      "velocity": 0.63,
      "hand": "right"
    },
    {
      "midi": 77,
      "time": 18,
      "duration": 0.3,
      "velocity": 0.63,
      "hand": "right"
    },
    {
      "midi": 50,
      "time": 18.3,
      "duration": 0.3,
      "velocity": 0.63,
      "hand": "left"
    },
    {
      "midi": 65,
      "time": 18.3,
      "duration": 0.3,
      "velocity": 0.63,
      "hand": "right"
    },
    {
      "midi": 74,
      "time": 18.3,
      "duration": 0.3,
      "velocity": 0.63,
      "hand": "right"
    },
    {
      "midi": 48,
      "time": 18.6,
      "duration": 0.6,
      "velocity": 0.63,
      "hand": "left"
    },
    {
      "midi": 64,
      "time": 18.6,
      "duration": 0.6,
      "velocity": 0.63,
      "hand": "right"
    },
    {
      "midi": 72,
      "time": 18.6,
      "duration": 0.6,
      "velocity": 0.63,
      "hand": "right"
    },
    {
      "midi": 48,
      "time": 19.8,
      "duration": 0.3,
      "velocity": 0.63,
      "hand": "left"
    },
    {
      "midi": 64,
      "time": 19.8,
      "duration": 0.3,
      "velocity": 0.63,
      "hand": "right"
    },
    {
      "midi": 79,
      "time": 19.8,
      "duration": 0.3,
      "velocity": 0.63,
      "hand": "right"
    },
    {
      "midi": 48,
      "time": 20.1,
      "duration": 0.3,
      "velocity": 0.63,
      "hand": "left"
    },
    {
      "midi": 64,
      "time": 20.1,
      "duration": 0.3,
      "velocity": 0.63,
      "hand": "right"
    },
    {
      "midi": 79,
      "time": 20.1,
      "duration": 0.3,
      "velocity": 0.63,
      "hand": "right"
    },
    {
      "midi": 50,
      "time": 20.4,
      "duration": 0.6,
      "velocity": 0.63,
      "hand": "left"
    },
    {
      "midi": 65,
      "time": 20.4,
      "duration": 0.6,
      "velocity": 0.63,
      "hand": "right"
    },
    {
      "midi": 79,
      "time": 20.4,
      "duration": 0.6,
      "velocity": 0.63,
      "hand": "right"
    },
    {
      "midi": 52,
      "time": 21,
      "duration": 0.3,
      "velocity": 0.63,
      "hand": "left"
    },
    {
      "midi": 64,
      "time": 21,
      "duration": 0.3,
      "velocity": 0.63,
      "hand": "right"
    },
    {
      "midi": 79,
      "time": 21,
      "duration": 0.3,
      "velocity": 0.63,
      "hand": "right"
    },
    {
      "midi": 53,
      "time": 21.3,
      "duration": 0.3,
      "velocity": 0.63,
      "hand": "left"
    },
    {
      "midi": 62,
      "time": 21.3,
      "duration": 0.3,
      "velocity": 0.63,
      "hand": "right"
    },
    {
      "midi": 77,
      "time": 21.3,
      "duration": 0.3,
      "velocity": 0.63,
      "hand": "right"
    },
    {
      "midi": 55,
      "time": 21.6,
      "duration": 0.6,
      "velocity": 0.63,
      "hand": "left"
    },
    {
      "midi": 60,
      "time": 21.6,
      "duration": 0.6,
      "velocity": 0.63,
      "hand": "right"
    },
    {
      "midi": 76,
      "time": 21.6,
      "duration": 0.6,
      "velocity": 0.63,
      "hand": "right"
    },
    {
      "midi": 48,
      "time": 22.2,
      "duration": 0.3,
      "velocity": 0.63,
      "hand": "left"
    },
    {
      "midi": 64,
      "time": 22.2,
      "duration": 0.3,
      "velocity": 0.63,
      "hand": "right"
    },
    {
      "midi": 79,
      "time": 22.2,
      "duration": 0.3,
      "velocity": 0.63,
      "hand": "right"
    },
    {
      "midi": 48,
      "time": 22.5,
      "duration": 0.3,
      "velocity": 0.63,
      "hand": "left"
    },
    {
      "midi": 64,
      "time": 22.5,
      "duration": 0.3,
      "velocity": 0.63,
      "hand": "right"
    },
    {
      "midi": 79,
      "time": 22.5,
      "duration": 0.3,
      "velocity": 0.63,
      "hand": "right"
    },
    {
      "midi": 55,
      "time": 22.8,
      "duration": 0.3,
      "velocity": 0.63,
      "hand": "left"
    },
    {
      "midi": 64,
      "time": 22.8,
      "duration": 0.3,
      "velocity": 0.63,
      "hand": "right"
    },
    {
      "midi": 84,
      "time": 22.8,
      "duration": 0.3,
      "velocity": 0.63,
      "hand": "right"
    },
    {
      "midi": 55,
      "time": 23.1,
      "duration": 0.3,
      "velocity": 0.63,
      "hand": "left"
    },
    {
      "midi": 64,
      "time": 23.1,
      "duration": 0.3,
      "velocity": 0.63,
      "hand": "right"
    },
    {
      "midi": 84,
      "time": 23.1,
      "duration": 0.3,
      "velocity": 0.63,
      "hand": "right"
    },
    {
      "midi": 55,
      "time": 23.4,
      "duration": 0.3,
      "velocity": 0.63,
      "hand": "left"
    },
    {
      "midi": 64,
      "time": 23.4,
      "duration": 0.3,
      "velocity": 0.63,
      "hand": "right"
    },
    {
      "midi": 84,
      "time": 23.4,
      "duration": 0.3,
      "velocity": 0.63,
      "hand": "right"
    },
    {
      "midi": 55,
      "time": 23.7,
      "duration": 0.3,
      "velocity": 0.63,
      "hand": "left"
    },
    {
      "midi": 64,
      "time": 23.7,
      "duration": 0.3,
      "velocity": 0.63,
      "hand": "right"
    },
    {
      "midi": 83,
      "time": 23.7,
      "duration": 0.3,
      "velocity": 0.63,
      "hand": "right"
    },
    {
      "midi": 53,
      "time": 24,
      "duration": 0.6,
      "velocity": 0.63,
      "hand": "left"
    },
    {
      "midi": 65,
      "time": 24,
      "duration": 0.6,
      "velocity": 0.63,
      "hand": "right"
    },
    {
      "midi": 81,
      "time": 24,
      "duration": 0.6,
      "velocity": 0.63,
      "hand": "right"
    },
    {
      "midi": 48,
      "time": 24.6,
      "duration": 0.3,
      "velocity": 0.63,
      "hand": "left"
    },
    {
      "midi": 65,
      "time": 24.6,
      "duration": 0.3,
      "velocity": 0.63,
      "hand": "right"
    },
    {
      "midi": 81,
      "time": 24.6,
      "duration": 0.3,
      "velocity": 0.63,
      "hand": "right"
    },
    {
      "midi": 48,
      "time": 24.9,
      "duration": 0.3,
      "velocity": 0.63,
      "hand": "left"
    },
    {
      "midi": 65,
      "time": 24.9,
      "duration": 0.3,
      "velocity": 0.63,
      "hand": "right"
    },
    {
      "midi": 81,
      "time": 24.9,
      "duration": 0.3,
      "velocity": 0.63,
      "hand": "right"
    },
    {
      "midi": 57,
      "time": 25.2,
      "duration": 0.3,
      "velocity": 0.63,
      "hand": "left"
    },
    {
      "midi": 77,
      "time": 25.2,
      "duration": 0.3,
      "velocity": 0.63,
      "hand": "right"
    },
    {
      "midi": 86,
      "time": 25.2,
      "duration": 0.3,
      "velocity": 0.63,
      "hand": "right"
    },
    {
      "midi": 57,
      "time": 25.5,
      "duration": 0.3,
      "velocity": 0.63,
      "hand": "left"
    },
    {
      "midi": 77,
      "time": 25.5,
      "duration": 0.3,
      "velocity": 0.63,
      "hand": "right"
    },
    {
      "midi": 86,
      "time": 25.5,
      "duration": 0.3,
      "velocity": 0.63,
      "hand": "right"
    },
    {
      "midi": 57,
      "time": 25.8,
      "duration": 0.3,
      "velocity": 0.63,
      "hand": "left"
    },
    {
      "midi": 77,
      "time": 25.8,
      "duration": 0.3,
      "velocity": 0.63,
      "hand": "right"
    },
    {
      "midi": 86,
      "time": 25.8,
      "duration": 0.3,
      "velocity": 0.63,
      "hand": "right"
    },
    {
      "midi": 55,
      "time": 26.1,
      "duration": 0.3,
      "velocity": 0.63,
      "hand": "left"
    },
    {
      "midi": 76,
      "time": 26.1,
      "duration": 0.3,
      "velocity": 0.63,
      "hand": "right"
    },
    {
      "midi": 84,
      "time": 26.1,
      "duration": 0.3,
      "velocity": 0.63,
      "hand": "right"
    },
    {
      "midi": 53,
      "time": 26.4,
      "duration": 0.3,
      "velocity": 0.63,
      "hand": "left"
    },
    {
      "midi": 74,
      "time": 26.4,
      "duration": 0.3,
      "velocity": 0.63,
      "hand": "right"
    },
    {
      "midi": 83,
      "time": 26.4,
      "duration": 0.3,
      "velocity": 0.63,
      "hand": "right"
    },
    {
      "midi": 53,
      "time": 26.7,
      "duration": 0.3,
      "velocity": 0.63,
      "hand": "left"
    },
    {
      "midi": 74,
      "time": 26.7,
      "duration": 0.3,
      "velocity": 0.63,
      "hand": "right"
    },
    {
      "midi": 83,
      "time": 26.7,
      "duration": 0.3,
      "velocity": 0.63,
      "hand": "right"
    },
    {
      "midi": 53,
      "time": 27,
      "duration": 0.3,
      "velocity": 0.63,
      "hand": "left"
    },
    {
      "midi": 74,
      "time": 27,
      "duration": 0.3,
      "velocity": 0.63,
      "hand": "right"
    },
    {
      "midi": 83,
      "time": 27,
      "duration": 0.3,
      "velocity": 0.63,
      "hand": "right"
    },
    {
      "midi": 52,
      "time": 27.3,
      "duration": 0.3,
      "velocity": 0.63,
      "hand": "left"
    },
    {
      "midi": 72,
      "time": 27.3,
      "duration": 0.3,
      "velocity": 0.63,
      "hand": "right"
    },
    {
      "midi": 81,
      "time": 27.3,
      "duration": 0.3,
      "velocity": 0.63,
      "hand": "right"
    },
    {
      "midi": 50,
      "time": 27.6,
      "duration": 0.6,
      "velocity": 0.63,
      "hand": "left"
    },
    {
      "midi": 71,
      "time": 27.6,
      "duration": 0.6,
      "velocity": 0.63,
      "hand": "right"
    },
    {
      "midi": 79,
      "time": 27.6,
      "duration": 0.6,
      "velocity": 0.63,
      "hand": "right"
    },
    {
      "midi": 52,
      "time": 28.2,
      "duration": 0.3,
      "velocity": 0.63,
      "hand": "left"
    },
    {
      "midi": 72,
      "time": 28.2,
      "duration": 0.3,
      "velocity": 0.63,
      "hand": "right"
    },
    {
      "midi": 81,
      "time": 28.2,
      "duration": 0.3,
      "velocity": 0.63,
      "hand": "right"
    },
    {
      "midi": 53,
      "time": 28.5,
      "duration": 0.3,
      "velocity": 0.63,
      "hand": "left"
    },
    {
      "midi": 74,
      "time": 28.5,
      "duration": 0.3,
      "velocity": 0.63,
      "hand": "right"
    },
    {
      "midi": 83,
      "time": 28.5,
      "duration": 0.3,
      "velocity": 0.63,
      "hand": "right"
    },
    {
      "midi": 55,
      "time": 28.8,
      "duration": 0.45,
      "velocity": 0.63,
      "hand": "left"
    },
    {
      "midi": 76,
      "time": 28.8,
      "duration": 0.45,
      "velocity": 0.63,
      "hand": "right"
    },
    {
      "midi": 84,
      "time": 28.8,
      "duration": 0.45,
      "velocity": 0.63,
      "hand": "right"
    },
    {
      "midi": 48,
      "time": 29.25,
      "duration": 0.15,
      "velocity": 0.63,
      "hand": "left"
    },
    {
      "midi": 64,
      "time": 29.25,
      "duration": 0.15,
      "velocity": 0.63,
      "hand": "right"
    },
    {
      "midi": 79,
      "time": 29.25,
      "duration": 0.15,
      "velocity": 0.63,
      "hand": "right"
    },
    {
      "midi": 48,
      "time": 29.4,
      "duration": 0.3,
      "velocity": 0.63,
      "hand": "left"
    },
    {
      "midi": 64,
      "time": 29.4,
      "duration": 0.3,
      "velocity": 0.63,
      "hand": "right"
    },
    {
      "midi": 79,
      "time": 29.4,
      "duration": 0.3,
      "velocity": 0.63,
      "hand": "right"
    },
    {
      "midi": 48,
      "time": 29.7,
      "duration": 0.3,
      "velocity": 0.63,
      "hand": "left"
    },
    {
      "midi": 64,
      "time": 29.7,
      "duration": 0.3,
      "velocity": 0.63,
      "hand": "right"
    },
    {
      "midi": 79,
      "time": 29.7,
      "duration": 0.3,
      "velocity": 0.63,
      "hand": "right"
    },
    {
      "midi": 48,
      "time": 30,
      "duration": 0.45,
      "velocity": 0.63,
      "hand": "left"
    },
    {
      "midi": 64,
      "time": 30,
      "duration": 0.45,
      "velocity": 0.63,
      "hand": "right"
    },
    {
      "midi": 84,
      "time": 30,
      "duration": 0.45,
      "velocity": 0.63,
      "hand": "right"
    },
    {
      "midi": 55,
      "time": 30.45,
      "duration": 0.15,
      "velocity": 0.63,
      "hand": "left"
    },
    {
      "midi": 67,
      "time": 30.45,
      "duration": 0.15,
      "velocity": 0.63,
      "hand": "right"
    },
    {
      "midi": 79,
      "time": 30.45,
      "duration": 0.15,
      "velocity": 0.63,
      "hand": "right"
    },
    {
      "midi": 53,
      "time": 30.6,
      "duration": 0.3,
      "velocity": 0.63,
      "hand": "left"
    },
    {
      "midi": 65,
      "time": 30.6,
      "duration": 0.3,
      "velocity": 0.63,
      "hand": "right"
    },
    {
      "midi": 77,
      "time": 30.6,
      "duration": 0.3,
      "velocity": 0.63,
      "hand": "right"
    },
    {
      "midi": 52,
      "time": 30.9,
      "duration": 0.3,
      "velocity": 0.63,
      "hand": "left"
    },
    {
      "midi": 64,
      "time": 30.9,
      "duration": 0.3,
      "velocity": 0.63,
      "hand": "right"
    },
    {
      "midi": 76,
      "time": 30.9,
      "duration": 0.3,
      "velocity": 0.63,
      "hand": "right"
    },
    {
      "midi": 50,
      "time": 31.2,
      "duration": 0.3,
      "velocity": 0.63,
      "hand": "left"
    },
    {
      "midi": 62,
      "time": 31.2,
      "duration": 0.3,
      "velocity": 0.63,
      "hand": "right"
    },
    {
      "midi": 74,
      "time": 31.2,
      "duration": 0.3,
      "velocity": 0.63,
      "hand": "right"
    },
    {
      "midi": 50,
      "time": 31.65,
      "duration": 0.15,
      "velocity": 0.63,
      "hand": "left"
    },
    {
      "midi": 65,
      "time": 31.65,
      "duration": 0.15,
      "velocity": 0.63,
      "hand": "right"
    },
    {
      "midi": 79,
      "time": 31.65,
      "duration": 0.15,
      "velocity": 0.63,
      "hand": "right"
    },
    {
      "midi": 50,
      "time": 31.8,
      "duration": 0.3,
      "velocity": 0.63,
      "hand": "left"
    },
    {
      "midi": 65,
      "time": 31.8,
      "duration": 0.3,
      "velocity": 0.63,
      "hand": "right"
    },
    {
      "midi": 79,
      "time": 31.8,
      "duration": 0.3,
      "velocity": 0.63,
      "hand": "right"
    },
    {
      "midi": 50,
      "time": 32.1,
      "duration": 0.3,
      "velocity": 0.63,
      "hand": "left"
    },
    {
      "midi": 65,
      "time": 32.1,
      "duration": 0.3,
      "velocity": 0.63,
      "hand": "right"
    },
    {
      "midi": 79,
      "time": 32.1,
      "duration": 0.3,
      "velocity": 0.63,
      "hand": "right"
    },
    {
      "midi": 50,
      "time": 32.4,
      "duration": 0.15,
      "velocity": 0.63,
      "hand": "left"
    },
    {
      "midi": 67,
      "time": 32.4,
      "duration": 0.15,
      "velocity": 0.63,
      "hand": "right"
    },
    {
      "midi": 83,
      "time": 32.4,
      "duration": 0.15,
      "velocity": 0.63,
      "hand": "right"
    },
    {
      "midi": 50,
      "time": 32.55,
      "duration": 0.3,
      "velocity": 0.63,
      "hand": "left"
    },
    {
      "midi": 67,
      "time": 32.55,
      "duration": 0.3,
      "velocity": 0.63,
      "hand": "right"
    },
    {
      "midi": 83,
      "time": 32.55,
      "duration": 0.3,
      "velocity": 0.63,
      "hand": "right"
    },
    {
      "midi": 55,
      "time": 32.85,
      "duration": 0.15,
      "velocity": 0.63,
      "hand": "left"
    },
    {
      "midi": 71,
      "time": 32.85,
      "duration": 0.15,
      "velocity": 0.63,
      "hand": "right"
    },
    {
      "midi": 79,
      "time": 32.85,
      "duration": 0.15,
      "velocity": 0.63,
      "hand": "right"
    },
    {
      "midi": 53,
      "time": 33,
      "duration": 0.3,
      "velocity": 0.63,
      "hand": "left"
    },
    {
      "midi": 69,
      "time": 33,
      "duration": 0.3,
      "velocity": 0.63,
      "hand": "right"
    },
    {
      "midi": 77,
      "time": 33,
      "duration": 0.3,
      "velocity": 0.63,
      "hand": "right"
    },
    {
      "midi": 50,
      "time": 33.3,
      "duration": 0.3,
      "velocity": 0.63,
      "hand": "left"
    },
    {
      "midi": 65,
      "time": 33.3,
      "duration": 0.3,
      "velocity": 0.63,
      "hand": "right"
    },
    {
      "midi": 74,
      "time": 33.3,
      "duration": 0.3,
      "velocity": 0.63,
      "hand": "right"
    },
    {
      "midi": 48,
      "time": 33.6,
      "duration": 0.3,
      "velocity": 0.63,
      "hand": "left"
    },
    {
      "midi": 64,
      "time": 33.6,
      "duration": 0.3,
      "velocity": 0.63,
      "hand": "right"
    },
    {
      "midi": 72,
      "time": 33.6,
      "duration": 0.3,
      "velocity": 0.63,
      "hand": "right"
    },
    {
      "midi": 48,
      "time": 34.05,
      "duration": 0.15,
      "velocity": 0.63,
      "hand": "left"
    },
    {
      "midi": 64,
      "time": 34.05,
      "duration": 0.15,
      "velocity": 0.63,
      "hand": "right"
    },
    {
      "midi": 79,
      "time": 34.05,
      "duration": 0.15,
      "velocity": 0.63,
      "hand": "right"
    },
    {
      "midi": 48,
      "time": 34.2,
      "duration": 0.3,
      "velocity": 0.63,
      "hand": "left"
    },
    {
      "midi": 64,
      "time": 34.2,
      "duration": 0.3,
      "velocity": 0.63,
      "hand": "right"
    },
    {
      "midi": 79,
      "time": 34.2,
      "duration": 0.3,
      "velocity": 0.63,
      "hand": "right"
    },
    {
      "midi": 48,
      "time": 34.5,
      "duration": 0.3,
      "velocity": 0.63,
      "hand": "left"
    },
    {
      "midi": 64,
      "time": 34.5,
      "duration": 0.3,
      "velocity": 0.63,
      "hand": "right"
    },
    {
      "midi": 79,
      "time": 34.5,
      "duration": 0.3,
      "velocity": 0.63,
      "hand": "right"
    },
    {
      "midi": 48,
      "time": 34.8,
      "duration": 0.45,
      "velocity": 0.63,
      "hand": "left"
    },
    {
      "midi": 64,
      "time": 34.8,
      "duration": 0.45,
      "velocity": 0.63,
      "hand": "right"
    },
    {
      "midi": 84,
      "time": 34.8,
      "duration": 0.45,
      "velocity": 0.63,
      "hand": "right"
    },
    {
      "midi": 55,
      "time": 35.25,
      "duration": 0.15,
      "velocity": 0.63,
      "hand": "left"
    },
    {
      "midi": 67,
      "time": 35.25,
      "duration": 0.15,
      "velocity": 0.63,
      "hand": "right"
    },
    {
      "midi": 79,
      "time": 35.25,
      "duration": 0.15,
      "velocity": 0.63,
      "hand": "right"
    },
    {
      "midi": 53,
      "time": 35.4,
      "duration": 0.3,
      "velocity": 0.63,
      "hand": "left"
    },
    {
      "midi": 65,
      "time": 35.4,
      "duration": 0.3,
      "velocity": 0.63,
      "hand": "right"
    },
    {
      "midi": 77,
      "time": 35.4,
      "duration": 0.3,
      "velocity": 0.63,
      "hand": "right"
    },
    {
      "midi": 52,
      "time": 35.7,
      "duration": 0.3,
      "velocity": 0.63,
      "hand": "left"
    },
    {
      "midi": 64,
      "time": 35.7,
      "duration": 0.3,
      "velocity": 0.63,
      "hand": "right"
    },
    {
      "midi": 76,
      "time": 35.7,
      "duration": 0.3,
      "velocity": 0.63,
      "hand": "right"
    },
    {
      "midi": 50,
      "time": 36,
      "duration": 0.3,
      "velocity": 0.63,
      "hand": "left"
    },
    {
      "midi": 62,
      "time": 36,
      "duration": 0.3,
      "velocity": 0.63,
      "hand": "right"
    },
    {
      "midi": 74,
      "time": 36,
      "duration": 0.3,
      "velocity": 0.63,
      "hand": "right"
    },
    {
      "midi": 50,
      "time": 36.45,
      "duration": 0.15,
      "velocity": 0.63,
      "hand": "left"
    },
    {
      "midi": 65,
      "time": 36.45,
      "duration": 0.15,
      "velocity": 0.63,
      "hand": "right"
    },
    {
      "midi": 79,
      "time": 36.45,
      "duration": 0.15,
      "velocity": 0.63,
      "hand": "right"
    },
    {
      "midi": 50,
      "time": 36.6,
      "duration": 0.3,
      "velocity": 0.63,
      "hand": "left"
    },
    {
      "midi": 65,
      "time": 36.6,
      "duration": 0.3,
      "velocity": 0.63,
      "hand": "right"
    },
    {
      "midi": 79,
      "time": 36.6,
      "duration": 0.3,
      "velocity": 0.63,
      "hand": "right"
    },
    {
      "midi": 50,
      "time": 36.9,
      "duration": 0.3,
      "velocity": 0.63,
      "hand": "left"
    },
    {
      "midi": 65,
      "time": 36.9,
      "duration": 0.3,
      "velocity": 0.63,
      "hand": "right"
    },
    {
      "midi": 79,
      "time": 36.9,
      "duration": 0.3,
      "velocity": 0.63,
      "hand": "right"
    },
    {
      "midi": 50,
      "time": 37.2,
      "duration": 0.15,
      "velocity": 0.63,
      "hand": "left"
    },
    {
      "midi": 67,
      "time": 37.2,
      "duration": 0.15,
      "velocity": 0.63,
      "hand": "right"
    },
    {
      "midi": 83,
      "time": 37.2,
      "duration": 0.15,
      "velocity": 0.63,
      "hand": "right"
    },
    {
      "midi": 50,
      "time": 37.35,
      "duration": 0.3,
      "velocity": 0.63,
      "hand": "left"
    },
    {
      "midi": 67,
      "time": 37.35,
      "duration": 0.3,
      "velocity": 0.63,
      "hand": "right"
    },
    {
      "midi": 83,
      "time": 37.35,
      "duration": 0.3,
      "velocity": 0.63,
      "hand": "right"
    },
    {
      "midi": 55,
      "time": 37.65,
      "duration": 0.15,
      "velocity": 0.63,
      "hand": "left"
    },
    {
      "midi": 71,
      "time": 37.65,
      "duration": 0.15,
      "velocity": 0.63,
      "hand": "right"
    },
    {
      "midi": 79,
      "time": 37.65,
      "duration": 0.15,
      "velocity": 0.63,
      "hand": "right"
    },
    {
      "midi": 53,
      "time": 37.8,
      "duration": 0.3,
      "velocity": 0.63,
      "hand": "left"
    },
    {
      "midi": 69,
      "time": 37.8,
      "duration": 0.3,
      "velocity": 0.63,
      "hand": "right"
    },
    {
      "midi": 77,
      "time": 37.8,
      "duration": 0.3,
      "velocity": 0.63,
      "hand": "right"
    },
    {
      "midi": 50,
      "time": 38.1,
      "duration": 0.3,
      "velocity": 0.63,
      "hand": "left"
    },
    {
      "midi": 65,
      "time": 38.1,
      "duration": 0.3,
      "velocity": 0.63,
      "hand": "right"
    },
    {
      "midi": 74,
      "time": 38.1,
      "duration": 0.3,
      "velocity": 0.63,
      "hand": "right"
    },
    {
      "midi": 48,
      "time": 38.4,
      "duration": 0.6,
      "velocity": 0.63,
      "hand": "left"
    },
    {
      "midi": 64,
      "time": 38.4,
      "duration": 0.6,
      "velocity": 0.63,
      "hand": "right"
    },
    {
      "midi": 72,
      "time": 38.4,
      "duration": 0.6,
      "velocity": 0.63,
      "hand": "right"
    }
  ],
  "arrangements": {
    "easy": [
      {
        "midi": 79,
        "time": 0,
        "duration": 0.3,
        "velocity": 0.63,
        "hand": "right"
      },
      {
        "midi": 79,
        "time": 0.3,
        "duration": 0.3,
        "velocity": 0.63,
        "hand": "right"
      },
      {
        "midi": 79,
        "time": 0.6,
        "duration": 0.6,
        "velocity": 0.63,
        "hand": "right"
      },
      {
        "midi": 79,
        "time": 1.2,
        "duration": 0.3,
        "velocity": 0.63,
        "hand": "right"
      },
      {
        "midi": 77,
        "time": 1.5,
        "duration": 0.3,
        "velocity": 0.63,
        "hand": "right"
      },
      {
        "midi": 76,
        "time": 1.8,
        "duration": 0.6,
        "velocity": 0.63,
        "hand": "right"
      },
      {
        "midi": 79,
        "time": 2.4,
        "duration": 0.3,
        "velocity": 0.63,
        "hand": "right"
      },
      {
        "midi": 79,
        "time": 2.7,
        "duration": 0.3,
        "velocity": 0.63,
        "hand": "right"
      },
      {
        "midi": 84,
        "time": 3,
        "duration": 0.3,
        "velocity": 0.63,
        "hand": "right"
      },
      {
        "midi": 84,
        "time": 3.3,
        "duration": 0.3,
        "velocity": 0.63,
        "hand": "right"
      },
      {
        "midi": 84,
        "time": 3.6,
        "duration": 0.3,
        "velocity": 0.63,
        "hand": "right"
      },
      {
        "midi": 83,
        "time": 3.9,
        "duration": 0.3,
        "velocity": 0.63,
        "hand": "right"
      },
      {
        "midi": 81,
        "time": 4.2,
        "duration": 0.6,
        "velocity": 0.63,
        "hand": "right"
      },
      {
        "midi": 81,
        "time": 4.8,
        "duration": 0.3,
        "velocity": 0.63,
        "hand": "right"
      },
      {
        "midi": 81,
        "time": 5.1,
        "duration": 0.3,
        "velocity": 0.63,
        "hand": "right"
      },
      {
        "midi": 86,
        "time": 5.4,
        "duration": 0.3,
        "velocity": 0.63,
        "hand": "right"
      },
      {
        "midi": 86,
        "time": 5.7,
        "duration": 0.3,
        "velocity": 0.63,
        "hand": "right"
      },
      {
        "midi": 86,
        "time": 6,
        "duration": 0.3,
        "velocity": 0.63,
        "hand": "right"
      },
      {
        "midi": 84,
        "time": 6.3,
        "duration": 0.3,
        "velocity": 0.63,
        "hand": "right"
      },
      {
        "midi": 83,
        "time": 6.6,
        "duration": 0.3,
        "velocity": 0.63,
        "hand": "right"
      },
      {
        "midi": 83,
        "time": 6.9,
        "duration": 0.3,
        "velocity": 0.63,
        "hand": "right"
      },
      {
        "midi": 83,
        "time": 7.2,
        "duration": 0.3,
        "velocity": 0.63,
        "hand": "right"
      },
      {
        "midi": 81,
        "time": 7.5,
        "duration": 0.3,
        "velocity": 0.63,
        "hand": "right"
      },
      {
        "midi": 79,
        "time": 7.8,
        "duration": 0.6,
        "velocity": 0.63,
        "hand": "right"
      },
      {
        "midi": 81,
        "time": 8.4,
        "duration": 0.3,
        "velocity": 0.63,
        "hand": "right"
      },
      {
        "midi": 83,
        "time": 8.7,
        "duration": 0.3,
        "velocity": 0.63,
        "hand": "right"
      },
      {
        "midi": 84,
        "time": 9,
        "duration": 0.45,
        "velocity": 0.63,
        "hand": "right"
      },
      {
        "midi": 79,
        "time": 9.45,
        "duration": 0.2,
        "velocity": 0.63,
        "hand": "right"
      },
      {
        "midi": 79,
        "time": 9.6,
        "duration": 0.3,
        "velocity": 0.63,
        "hand": "right"
      },
      {
        "midi": 79,
        "time": 9.9,
        "duration": 0.3,
        "velocity": 0.63,
        "hand": "right"
      },
      {
        "midi": 84,
        "time": 10.2,
        "duration": 0.45,
        "velocity": 0.63,
        "hand": "right"
      },
      {
        "midi": 79,
        "time": 10.65,
        "duration": 0.2,
        "velocity": 0.63,
        "hand": "right"
      },
      {
        "midi": 77,
        "time": 10.8,
        "duration": 0.3,
        "velocity": 0.63,
        "hand": "right"
      },
      {
        "midi": 76,
        "time": 11.1,
        "duration": 0.3,
        "velocity": 0.63,
        "hand": "right"
      },
      {
        "midi": 74,
        "time": 11.4,
        "duration": 0.3,
        "velocity": 0.63,
        "hand": "right"
      },
      {
        "midi": 79,
        "time": 11.85,
        "duration": 0.2,
        "velocity": 0.63,
        "hand": "right"
      },
      {
        "midi": 79,
        "time": 12,
        "duration": 0.3,
        "velocity": 0.63,
        "hand": "right"
      },
      {
        "midi": 79,
        "time": 12.3,
        "duration": 0.3,
        "velocity": 0.63,
        "hand": "right"
      },
      {
        "midi": 83,
        "time": 12.6,
        "duration": 0.2,
        "velocity": 0.63,
        "hand": "right"
      },
      {
        "midi": 83,
        "time": 12.75,
        "duration": 0.3,
        "velocity": 0.63,
        "hand": "right"
      },
      {
        "midi": 79,
        "time": 13.05,
        "duration": 0.2,
        "velocity": 0.63,
        "hand": "right"
      },
      {
        "midi": 77,
        "time": 13.2,
        "duration": 0.3,
        "velocity": 0.63,
        "hand": "right"
      },
      {
        "midi": 74,
        "time": 13.5,
        "duration": 0.3,
        "velocity": 0.63,
        "hand": "right"
      },
      {
        "midi": 72,
        "time": 13.8,
        "duration": 0.3,
        "velocity": 0.63,
        "hand": "right"
      },
      {
        "midi": 79,
        "time": 14.25,
        "duration": 0.2,
        "velocity": 0.63,
        "hand": "right"
      },
      {
        "midi": 79,
        "time": 14.4,
        "duration": 0.3,
        "velocity": 0.63,
        "hand": "right"
      },
      {
        "midi": 79,
        "time": 14.7,
        "duration": 0.3,
        "velocity": 0.63,
        "hand": "right"
      },
      {
        "midi": 84,
        "time": 15,
        "duration": 0.45,
        "velocity": 0.63,
        "hand": "right"
      },
      {
        "midi": 79,
        "time": 15.45,
        "duration": 0.2,
        "velocity": 0.63,
        "hand": "right"
      },
      {
        "midi": 77,
        "time": 15.6,
        "duration": 0.3,
        "velocity": 0.63,
        "hand": "right"
      },
      {
        "midi": 76,
        "time": 15.9,
        "duration": 0.3,
        "velocity": 0.63,
        "hand": "right"
      },
      {
        "midi": 74,
        "time": 16.2,
        "duration": 0.3,
        "velocity": 0.63,
        "hand": "right"
      },
      {
        "midi": 79,
        "time": 16.65,
        "duration": 0.2,
        "velocity": 0.63,
        "hand": "right"
      },
      {
        "midi": 79,
        "time": 16.8,
        "duration": 0.3,
        "velocity": 0.63,
        "hand": "right"
      },
      {
        "midi": 79,
        "time": 17.1,
        "duration": 0.3,
        "velocity": 0.63,
        "hand": "right"
      },
      {
        "midi": 83,
        "time": 17.4,
        "duration": 0.2,
        "velocity": 0.63,
        "hand": "right"
      },
      {
        "midi": 83,
        "time": 17.55,
        "duration": 0.3,
        "velocity": 0.63,
        "hand": "right"
      },
      {
        "midi": 79,
        "time": 17.85,
        "duration": 0.2,
        "velocity": 0.63,
        "hand": "right"
      },
      {
        "midi": 77,
        "time": 18,
        "duration": 0.3,
        "velocity": 0.63,
        "hand": "right"
      },
      {
        "midi": 74,
        "time": 18.3,
        "duration": 0.3,
        "velocity": 0.63,
        "hand": "right"
      },
      {
        "midi": 72,
        "time": 18.6,
        "duration": 0.6,
        "velocity": 0.63,
        "hand": "right"
      },
      {
        "midi": 79,
        "time": 19.8,
        "duration": 0.3,
        "velocity": 0.63,
        "hand": "right"
      },
      {
        "midi": 79,
        "time": 20.1,
        "duration": 0.3,
        "velocity": 0.63,
        "hand": "right"
      },
      {
        "midi": 79,
        "time": 20.4,
        "duration": 0.6,
        "velocity": 0.63,
        "hand": "right"
      },
      {
        "midi": 79,
        "time": 21,
        "duration": 0.3,
        "velocity": 0.63,
        "hand": "right"
      },
      {
        "midi": 77,
        "time": 21.3,
        "duration": 0.3,
        "velocity": 0.63,
        "hand": "right"
      },
      {
        "midi": 76,
        "time": 21.6,
        "duration": 0.6,
        "velocity": 0.63,
        "hand": "right"
      },
      {
        "midi": 79,
        "time": 22.2,
        "duration": 0.3,
        "velocity": 0.63,
        "hand": "right"
      },
      {
        "midi": 79,
        "time": 22.5,
        "duration": 0.3,
        "velocity": 0.63,
        "hand": "right"
      },
      {
        "midi": 84,
        "time": 22.8,
        "duration": 0.3,
        "velocity": 0.63,
        "hand": "right"
      },
      {
        "midi": 84,
        "time": 23.1,
        "duration": 0.3,
        "velocity": 0.63,
        "hand": "right"
      },
      {
        "midi": 84,
        "time": 23.4,
        "duration": 0.3,
        "velocity": 0.63,
        "hand": "right"
      },
      {
        "midi": 83,
        "time": 23.7,
        "duration": 0.3,
        "velocity": 0.63,
        "hand": "right"
      },
      {
        "midi": 81,
        "time": 24,
        "duration": 0.6,
        "velocity": 0.63,
        "hand": "right"
      },
      {
        "midi": 81,
        "time": 24.6,
        "duration": 0.3,
        "velocity": 0.63,
        "hand": "right"
      },
      {
        "midi": 81,
        "time": 24.9,
        "duration": 0.3,
        "velocity": 0.63,
        "hand": "right"
      },
      {
        "midi": 86,
        "time": 25.2,
        "duration": 0.3,
        "velocity": 0.63,
        "hand": "right"
      },
      {
        "midi": 86,
        "time": 25.5,
        "duration": 0.3,
        "velocity": 0.63,
        "hand": "right"
      },
      {
        "midi": 86,
        "time": 25.8,
        "duration": 0.3,
        "velocity": 0.63,
        "hand": "right"
      },
      {
        "midi": 84,
        "time": 26.1,
        "duration": 0.3,
        "velocity": 0.63,
        "hand": "right"
      },
      {
        "midi": 83,
        "time": 26.4,
        "duration": 0.3,
        "velocity": 0.63,
        "hand": "right"
      },
      {
        "midi": 83,
        "time": 26.7,
        "duration": 0.3,
        "velocity": 0.63,
        "hand": "right"
      },
      {
        "midi": 83,
        "time": 27,
        "duration": 0.3,
        "velocity": 0.63,
        "hand": "right"
      },
      {
        "midi": 81,
        "time": 27.3,
        "duration": 0.3,
        "velocity": 0.63,
        "hand": "right"
      },
      {
        "midi": 79,
        "time": 27.6,
        "duration": 0.6,
        "velocity": 0.63,
        "hand": "right"
      },
      {
        "midi": 81,
        "time": 28.2,
        "duration": 0.3,
        "velocity": 0.63,
        "hand": "right"
      },
      {
        "midi": 83,
        "time": 28.5,
        "duration": 0.3,
        "velocity": 0.63,
        "hand": "right"
      },
      {
        "midi": 84,
        "time": 28.8,
        "duration": 0.45,
        "velocity": 0.63,
        "hand": "right"
      },
      {
        "midi": 79,
        "time": 29.25,
        "duration": 0.2,
        "velocity": 0.63,
        "hand": "right"
      },
      {
        "midi": 79,
        "time": 29.7,
        "duration": 0.3,
        "velocity": 0.63,
        "hand": "right"
      },
      {
        "midi": 84,
        "time": 30,
        "duration": 0.45,
        "velocity": 0.63,
        "hand": "right"
      },
      {
        "midi": 79,
        "time": 30.45,
        "duration": 0.2,
        "velocity": 0.63,
        "hand": "right"
      },
      {
        "midi": 77,
        "time": 30.6,
        "duration": 0.3,
        "velocity": 0.63,
        "hand": "right"
      },
      {
        "midi": 76,
        "time": 30.9,
        "duration": 0.3,
        "velocity": 0.63,
        "hand": "right"
      },
      {
        "midi": 74,
        "time": 31.2,
        "duration": 0.3,
        "velocity": 0.63,
        "hand": "right"
      },
      {
        "midi": 79,
        "time": 31.65,
        "duration": 0.2,
        "velocity": 0.63,
        "hand": "right"
      },
      {
        "midi": 79,
        "time": 31.8,
        "duration": 0.3,
        "velocity": 0.63,
        "hand": "right"
      },
      {
        "midi": 79,
        "time": 32.1,
        "duration": 0.3,
        "velocity": 0.63,
        "hand": "right"
      },
      {
        "midi": 83,
        "time": 32.4,
        "duration": 0.2,
        "velocity": 0.63,
        "hand": "right"
      },
      {
        "midi": 79,
        "time": 32.85,
        "duration": 0.2,
        "velocity": 0.63,
        "hand": "right"
      },
      {
        "midi": 77,
        "time": 33,
        "duration": 0.3,
        "velocity": 0.63,
        "hand": "right"
      },
      {
        "midi": 74,
        "time": 33.3,
        "duration": 0.3,
        "velocity": 0.63,
        "hand": "right"
      },
      {
        "midi": 72,
        "time": 33.6,
        "duration": 0.3,
        "velocity": 0.63,
        "hand": "right"
      },
      {
        "midi": 79,
        "time": 34.05,
        "duration": 0.2,
        "velocity": 0.63,
        "hand": "right"
      },
      {
        "midi": 79,
        "time": 34.2,
        "duration": 0.3,
        "velocity": 0.63,
        "hand": "right"
      },
      {
        "midi": 79,
        "time": 34.5,
        "duration": 0.3,
        "velocity": 0.63,
        "hand": "right"
      },
      {
        "midi": 84,
        "time": 34.8,
        "duration": 0.45,
        "velocity": 0.63,
        "hand": "right"
      },
      {
        "midi": 79,
        "time": 35.25,
        "duration": 0.2,
        "velocity": 0.63,
        "hand": "right"
      },
      {
        "midi": 77,
        "time": 35.4,
        "duration": 0.3,
        "velocity": 0.63,
        "hand": "right"
      },
      {
        "midi": 76,
        "time": 35.7,
        "duration": 0.3,
        "velocity": 0.63,
        "hand": "right"
      },
      {
        "midi": 74,
        "time": 36,
        "duration": 0.3,
        "velocity": 0.63,
        "hand": "right"
      },
      {
        "midi": 79,
        "time": 36.45,
        "duration": 0.2,
        "velocity": 0.63,
        "hand": "right"
      },
      {
        "midi": 79,
        "time": 36.9,
        "duration": 0.3,
        "velocity": 0.63,
        "hand": "right"
      },
      {
        "midi": 83,
        "time": 37.2,
        "duration": 0.2,
        "velocity": 0.63,
        "hand": "right"
      },
      {
        "midi": 79,
        "time": 37.65,
        "duration": 0.2,
        "velocity": 0.63,
        "hand": "right"
      },
      {
        "midi": 77,
        "time": 37.8,
        "duration": 0.3,
        "velocity": 0.63,
        "hand": "right"
      },
      {
        "midi": 74,
        "time": 38.1,
        "duration": 0.3,
        "velocity": 0.63,
        "hand": "right"
      },
      {
        "midi": 72,
        "time": 38.4,
        "duration": 0.6,
        "velocity": 0.63,
        "hand": "right"
      }
    ],
    "medium": [
      {
        "midi": 48,
        "time": 0,
        "duration": 0.3,
        "velocity": 0.63,
        "hand": "left"
      },
      {
        "midi": 64,
        "time": 0,
        "duration": 0.3,
        "velocity": 0.63,
        "hand": "right"
      },
      {
        "midi": 79,
        "time": 0,
        "duration": 0.3,
        "velocity": 0.63,
        "hand": "right"
      },
      {
        "midi": 48,
        "time": 0.3,
        "duration": 0.3,
        "velocity": 0.63,
        "hand": "left"
      },
      {
        "midi": 64,
        "time": 0.3,
        "duration": 0.3,
        "velocity": 0.63,
        "hand": "right"
      },
      {
        "midi": 79,
        "time": 0.3,
        "duration": 0.3,
        "velocity": 0.63,
        "hand": "right"
      },
      {
        "midi": 50,
        "time": 0.6,
        "duration": 0.6,
        "velocity": 0.63,
        "hand": "left"
      },
      {
        "midi": 65,
        "time": 0.6,
        "duration": 0.6,
        "velocity": 0.63,
        "hand": "right"
      },
      {
        "midi": 79,
        "time": 0.6,
        "duration": 0.6,
        "velocity": 0.63,
        "hand": "right"
      },
      {
        "midi": 52,
        "time": 1.2,
        "duration": 0.3,
        "velocity": 0.63,
        "hand": "left"
      },
      {
        "midi": 64,
        "time": 1.2,
        "duration": 0.3,
        "velocity": 0.63,
        "hand": "right"
      },
      {
        "midi": 79,
        "time": 1.2,
        "duration": 0.3,
        "velocity": 0.63,
        "hand": "right"
      },
      {
        "midi": 53,
        "time": 1.5,
        "duration": 0.3,
        "velocity": 0.63,
        "hand": "left"
      },
      {
        "midi": 62,
        "time": 1.5,
        "duration": 0.3,
        "velocity": 0.63,
        "hand": "right"
      },
      {
        "midi": 77,
        "time": 1.5,
        "duration": 0.3,
        "velocity": 0.63,
        "hand": "right"
      },
      {
        "midi": 55,
        "time": 1.8,
        "duration": 0.6,
        "velocity": 0.63,
        "hand": "left"
      },
      {
        "midi": 60,
        "time": 1.8,
        "duration": 0.6,
        "velocity": 0.63,
        "hand": "right"
      },
      {
        "midi": 76,
        "time": 1.8,
        "duration": 0.6,
        "velocity": 0.63,
        "hand": "right"
      },
      {
        "midi": 48,
        "time": 2.4,
        "duration": 0.3,
        "velocity": 0.63,
        "hand": "left"
      },
      {
        "midi": 64,
        "time": 2.4,
        "duration": 0.3,
        "velocity": 0.63,
        "hand": "right"
      },
      {
        "midi": 79,
        "time": 2.4,
        "duration": 0.3,
        "velocity": 0.63,
        "hand": "right"
      },
      {
        "midi": 48,
        "time": 2.7,
        "duration": 0.3,
        "velocity": 0.63,
        "hand": "left"
      },
      {
        "midi": 64,
        "time": 2.7,
        "duration": 0.3,
        "velocity": 0.63,
        "hand": "right"
      },
      {
        "midi": 79,
        "time": 2.7,
        "duration": 0.3,
        "velocity": 0.63,
        "hand": "right"
      },
      {
        "midi": 55,
        "time": 3,
        "duration": 0.3,
        "velocity": 0.63,
        "hand": "left"
      },
      {
        "midi": 64,
        "time": 3,
        "duration": 0.3,
        "velocity": 0.63,
        "hand": "right"
      },
      {
        "midi": 84,
        "time": 3,
        "duration": 0.3,
        "velocity": 0.63,
        "hand": "right"
      },
      {
        "midi": 55,
        "time": 3.3,
        "duration": 0.3,
        "velocity": 0.63,
        "hand": "left"
      },
      {
        "midi": 64,
        "time": 3.3,
        "duration": 0.3,
        "velocity": 0.63,
        "hand": "right"
      },
      {
        "midi": 84,
        "time": 3.3,
        "duration": 0.3,
        "velocity": 0.63,
        "hand": "right"
      },
      {
        "midi": 55,
        "time": 3.6,
        "duration": 0.3,
        "velocity": 0.63,
        "hand": "left"
      },
      {
        "midi": 64,
        "time": 3.6,
        "duration": 0.3,
        "velocity": 0.63,
        "hand": "right"
      },
      {
        "midi": 84,
        "time": 3.6,
        "duration": 0.3,
        "velocity": 0.63,
        "hand": "right"
      },
      {
        "midi": 55,
        "time": 3.9,
        "duration": 0.3,
        "velocity": 0.63,
        "hand": "left"
      },
      {
        "midi": 64,
        "time": 3.9,
        "duration": 0.3,
        "velocity": 0.63,
        "hand": "right"
      },
      {
        "midi": 83,
        "time": 3.9,
        "duration": 0.3,
        "velocity": 0.63,
        "hand": "right"
      },
      {
        "midi": 53,
        "time": 4.2,
        "duration": 0.6,
        "velocity": 0.63,
        "hand": "left"
      },
      {
        "midi": 65,
        "time": 4.2,
        "duration": 0.6,
        "velocity": 0.63,
        "hand": "right"
      },
      {
        "midi": 81,
        "time": 4.2,
        "duration": 0.6,
        "velocity": 0.63,
        "hand": "right"
      },
      {
        "midi": 48,
        "time": 4.8,
        "duration": 0.3,
        "velocity": 0.63,
        "hand": "left"
      },
      {
        "midi": 65,
        "time": 4.8,
        "duration": 0.3,
        "velocity": 0.63,
        "hand": "right"
      },
      {
        "midi": 81,
        "time": 4.8,
        "duration": 0.3,
        "velocity": 0.63,
        "hand": "right"
      },
      {
        "midi": 48,
        "time": 5.1,
        "duration": 0.3,
        "velocity": 0.63,
        "hand": "left"
      },
      {
        "midi": 65,
        "time": 5.1,
        "duration": 0.3,
        "velocity": 0.63,
        "hand": "right"
      },
      {
        "midi": 81,
        "time": 5.1,
        "duration": 0.3,
        "velocity": 0.63,
        "hand": "right"
      },
      {
        "midi": 57,
        "time": 5.4,
        "duration": 0.3,
        "velocity": 0.63,
        "hand": "left"
      },
      {
        "midi": 77,
        "time": 5.4,
        "duration": 0.3,
        "velocity": 0.63,
        "hand": "right"
      },
      {
        "midi": 86,
        "time": 5.4,
        "duration": 0.3,
        "velocity": 0.63,
        "hand": "right"
      },
      {
        "midi": 57,
        "time": 5.7,
        "duration": 0.3,
        "velocity": 0.63,
        "hand": "left"
      },
      {
        "midi": 77,
        "time": 5.7,
        "duration": 0.3,
        "velocity": 0.63,
        "hand": "right"
      },
      {
        "midi": 86,
        "time": 5.7,
        "duration": 0.3,
        "velocity": 0.63,
        "hand": "right"
      },
      {
        "midi": 57,
        "time": 6,
        "duration": 0.3,
        "velocity": 0.63,
        "hand": "left"
      },
      {
        "midi": 77,
        "time": 6,
        "duration": 0.3,
        "velocity": 0.63,
        "hand": "right"
      },
      {
        "midi": 86,
        "time": 6,
        "duration": 0.3,
        "velocity": 0.63,
        "hand": "right"
      },
      {
        "midi": 55,
        "time": 6.3,
        "duration": 0.3,
        "velocity": 0.63,
        "hand": "left"
      },
      {
        "midi": 76,
        "time": 6.3,
        "duration": 0.3,
        "velocity": 0.63,
        "hand": "right"
      },
      {
        "midi": 84,
        "time": 6.3,
        "duration": 0.3,
        "velocity": 0.63,
        "hand": "right"
      },
      {
        "midi": 53,
        "time": 6.6,
        "duration": 0.3,
        "velocity": 0.63,
        "hand": "left"
      },
      {
        "midi": 74,
        "time": 6.6,
        "duration": 0.3,
        "velocity": 0.63,
        "hand": "right"
      },
      {
        "midi": 83,
        "time": 6.6,
        "duration": 0.3,
        "velocity": 0.63,
        "hand": "right"
      },
      {
        "midi": 53,
        "time": 6.9,
        "duration": 0.3,
        "velocity": 0.63,
        "hand": "left"
      },
      {
        "midi": 74,
        "time": 6.9,
        "duration": 0.3,
        "velocity": 0.63,
        "hand": "right"
      },
      {
        "midi": 83,
        "time": 6.9,
        "duration": 0.3,
        "velocity": 0.63,
        "hand": "right"
      },
      {
        "midi": 53,
        "time": 7.2,
        "duration": 0.3,
        "velocity": 0.63,
        "hand": "left"
      },
      {
        "midi": 74,
        "time": 7.2,
        "duration": 0.3,
        "velocity": 0.63,
        "hand": "right"
      },
      {
        "midi": 83,
        "time": 7.2,
        "duration": 0.3,
        "velocity": 0.63,
        "hand": "right"
      },
      {
        "midi": 52,
        "time": 7.5,
        "duration": 0.3,
        "velocity": 0.63,
        "hand": "left"
      },
      {
        "midi": 72,
        "time": 7.5,
        "duration": 0.3,
        "velocity": 0.63,
        "hand": "right"
      },
      {
        "midi": 81,
        "time": 7.5,
        "duration": 0.3,
        "velocity": 0.63,
        "hand": "right"
      },
      {
        "midi": 50,
        "time": 7.8,
        "duration": 0.6,
        "velocity": 0.63,
        "hand": "left"
      },
      {
        "midi": 71,
        "time": 7.8,
        "duration": 0.6,
        "velocity": 0.63,
        "hand": "right"
      },
      {
        "midi": 79,
        "time": 7.8,
        "duration": 0.6,
        "velocity": 0.63,
        "hand": "right"
      },
      {
        "midi": 52,
        "time": 8.4,
        "duration": 0.3,
        "velocity": 0.63,
        "hand": "left"
      },
      {
        "midi": 72,
        "time": 8.4,
        "duration": 0.3,
        "velocity": 0.63,
        "hand": "right"
      },
      {
        "midi": 81,
        "time": 8.4,
        "duration": 0.3,
        "velocity": 0.63,
        "hand": "right"
      },
      {
        "midi": 53,
        "time": 8.7,
        "duration": 0.3,
        "velocity": 0.63,
        "hand": "left"
      },
      {
        "midi": 74,
        "time": 8.7,
        "duration": 0.3,
        "velocity": 0.63,
        "hand": "right"
      },
      {
        "midi": 83,
        "time": 8.7,
        "duration": 0.3,
        "velocity": 0.63,
        "hand": "right"
      },
      {
        "midi": 55,
        "time": 9,
        "duration": 0.45,
        "velocity": 0.63,
        "hand": "left"
      },
      {
        "midi": 76,
        "time": 9,
        "duration": 0.45,
        "velocity": 0.63,
        "hand": "right"
      },
      {
        "midi": 84,
        "time": 9,
        "duration": 0.45,
        "velocity": 0.63,
        "hand": "right"
      },
      {
        "midi": 48,
        "time": 9.45,
        "duration": 0.15,
        "velocity": 0.63,
        "hand": "left"
      },
      {
        "midi": 64,
        "time": 9.45,
        "duration": 0.15,
        "velocity": 0.63,
        "hand": "right"
      },
      {
        "midi": 79,
        "time": 9.45,
        "duration": 0.15,
        "velocity": 0.63,
        "hand": "right"
      },
      {
        "midi": 48,
        "time": 9.6,
        "duration": 0.3,
        "velocity": 0.63,
        "hand": "left"
      },
      {
        "midi": 64,
        "time": 9.6,
        "duration": 0.3,
        "velocity": 0.63,
        "hand": "right"
      },
      {
        "midi": 79,
        "time": 9.6,
        "duration": 0.3,
        "velocity": 0.63,
        "hand": "right"
      },
      {
        "midi": 48,
        "time": 9.9,
        "duration": 0.3,
        "velocity": 0.63,
        "hand": "left"
      },
      {
        "midi": 64,
        "time": 9.9,
        "duration": 0.3,
        "velocity": 0.63,
        "hand": "right"
      },
      {
        "midi": 79,
        "time": 9.9,
        "duration": 0.3,
        "velocity": 0.63,
        "hand": "right"
      },
      {
        "midi": 48,
        "time": 10.2,
        "duration": 0.45,
        "velocity": 0.63,
        "hand": "left"
      },
      {
        "midi": 64,
        "time": 10.2,
        "duration": 0.45,
        "velocity": 0.63,
        "hand": "right"
      },
      {
        "midi": 84,
        "time": 10.2,
        "duration": 0.45,
        "velocity": 0.63,
        "hand": "right"
      },
      {
        "midi": 55,
        "time": 10.65,
        "duration": 0.15,
        "velocity": 0.63,
        "hand": "left"
      },
      {
        "midi": 67,
        "time": 10.65,
        "duration": 0.15,
        "velocity": 0.63,
        "hand": "right"
      },
      {
        "midi": 79,
        "time": 10.65,
        "duration": 0.15,
        "velocity": 0.63,
        "hand": "right"
      },
      {
        "midi": 53,
        "time": 10.8,
        "duration": 0.3,
        "velocity": 0.63,
        "hand": "left"
      },
      {
        "midi": 65,
        "time": 10.8,
        "duration": 0.3,
        "velocity": 0.63,
        "hand": "right"
      },
      {
        "midi": 77,
        "time": 10.8,
        "duration": 0.3,
        "velocity": 0.63,
        "hand": "right"
      },
      {
        "midi": 52,
        "time": 11.1,
        "duration": 0.3,
        "velocity": 0.63,
        "hand": "left"
      },
      {
        "midi": 64,
        "time": 11.1,
        "duration": 0.3,
        "velocity": 0.63,
        "hand": "right"
      },
      {
        "midi": 76,
        "time": 11.1,
        "duration": 0.3,
        "velocity": 0.63,
        "hand": "right"
      },
      {
        "midi": 50,
        "time": 11.4,
        "duration": 0.3,
        "velocity": 0.63,
        "hand": "left"
      },
      {
        "midi": 62,
        "time": 11.4,
        "duration": 0.3,
        "velocity": 0.63,
        "hand": "right"
      },
      {
        "midi": 74,
        "time": 11.4,
        "duration": 0.3,
        "velocity": 0.63,
        "hand": "right"
      },
      {
        "midi": 50,
        "time": 11.85,
        "duration": 0.15,
        "velocity": 0.63,
        "hand": "left"
      },
      {
        "midi": 65,
        "time": 11.85,
        "duration": 0.15,
        "velocity": 0.63,
        "hand": "right"
      },
      {
        "midi": 79,
        "time": 11.85,
        "duration": 0.15,
        "velocity": 0.63,
        "hand": "right"
      },
      {
        "midi": 50,
        "time": 12,
        "duration": 0.3,
        "velocity": 0.63,
        "hand": "left"
      },
      {
        "midi": 65,
        "time": 12,
        "duration": 0.3,
        "velocity": 0.63,
        "hand": "right"
      },
      {
        "midi": 79,
        "time": 12,
        "duration": 0.3,
        "velocity": 0.63,
        "hand": "right"
      },
      {
        "midi": 50,
        "time": 12.3,
        "duration": 0.3,
        "velocity": 0.63,
        "hand": "left"
      },
      {
        "midi": 65,
        "time": 12.3,
        "duration": 0.3,
        "velocity": 0.63,
        "hand": "right"
      },
      {
        "midi": 79,
        "time": 12.3,
        "duration": 0.3,
        "velocity": 0.63,
        "hand": "right"
      },
      {
        "midi": 50,
        "time": 12.6,
        "duration": 0.15,
        "velocity": 0.63,
        "hand": "left"
      },
      {
        "midi": 67,
        "time": 12.6,
        "duration": 0.15,
        "velocity": 0.63,
        "hand": "right"
      },
      {
        "midi": 83,
        "time": 12.6,
        "duration": 0.15,
        "velocity": 0.63,
        "hand": "right"
      },
      {
        "midi": 50,
        "time": 12.75,
        "duration": 0.3,
        "velocity": 0.63,
        "hand": "left"
      },
      {
        "midi": 67,
        "time": 12.75,
        "duration": 0.3,
        "velocity": 0.63,
        "hand": "right"
      },
      {
        "midi": 83,
        "time": 12.75,
        "duration": 0.3,
        "velocity": 0.63,
        "hand": "right"
      },
      {
        "midi": 55,
        "time": 13.05,
        "duration": 0.15,
        "velocity": 0.63,
        "hand": "left"
      },
      {
        "midi": 71,
        "time": 13.05,
        "duration": 0.15,
        "velocity": 0.63,
        "hand": "right"
      },
      {
        "midi": 79,
        "time": 13.05,
        "duration": 0.15,
        "velocity": 0.63,
        "hand": "right"
      },
      {
        "midi": 53,
        "time": 13.2,
        "duration": 0.3,
        "velocity": 0.63,
        "hand": "left"
      },
      {
        "midi": 69,
        "time": 13.2,
        "duration": 0.3,
        "velocity": 0.63,
        "hand": "right"
      },
      {
        "midi": 77,
        "time": 13.2,
        "duration": 0.3,
        "velocity": 0.63,
        "hand": "right"
      },
      {
        "midi": 50,
        "time": 13.5,
        "duration": 0.3,
        "velocity": 0.63,
        "hand": "left"
      },
      {
        "midi": 65,
        "time": 13.5,
        "duration": 0.3,
        "velocity": 0.63,
        "hand": "right"
      },
      {
        "midi": 74,
        "time": 13.5,
        "duration": 0.3,
        "velocity": 0.63,
        "hand": "right"
      },
      {
        "midi": 48,
        "time": 13.8,
        "duration": 0.3,
        "velocity": 0.63,
        "hand": "left"
      },
      {
        "midi": 64,
        "time": 13.8,
        "duration": 0.3,
        "velocity": 0.63,
        "hand": "right"
      },
      {
        "midi": 72,
        "time": 13.8,
        "duration": 0.3,
        "velocity": 0.63,
        "hand": "right"
      },
      {
        "midi": 48,
        "time": 14.25,
        "duration": 0.15,
        "velocity": 0.63,
        "hand": "left"
      },
      {
        "midi": 64,
        "time": 14.25,
        "duration": 0.15,
        "velocity": 0.63,
        "hand": "right"
      },
      {
        "midi": 79,
        "time": 14.25,
        "duration": 0.15,
        "velocity": 0.63,
        "hand": "right"
      },
      {
        "midi": 48,
        "time": 14.4,
        "duration": 0.3,
        "velocity": 0.63,
        "hand": "left"
      },
      {
        "midi": 64,
        "time": 14.4,
        "duration": 0.3,
        "velocity": 0.63,
        "hand": "right"
      },
      {
        "midi": 79,
        "time": 14.4,
        "duration": 0.3,
        "velocity": 0.63,
        "hand": "right"
      },
      {
        "midi": 48,
        "time": 14.7,
        "duration": 0.3,
        "velocity": 0.63,
        "hand": "left"
      },
      {
        "midi": 64,
        "time": 14.7,
        "duration": 0.3,
        "velocity": 0.63,
        "hand": "right"
      },
      {
        "midi": 79,
        "time": 14.7,
        "duration": 0.3,
        "velocity": 0.63,
        "hand": "right"
      },
      {
        "midi": 48,
        "time": 15,
        "duration": 0.45,
        "velocity": 0.63,
        "hand": "left"
      },
      {
        "midi": 64,
        "time": 15,
        "duration": 0.45,
        "velocity": 0.63,
        "hand": "right"
      },
      {
        "midi": 84,
        "time": 15,
        "duration": 0.45,
        "velocity": 0.63,
        "hand": "right"
      },
      {
        "midi": 55,
        "time": 15.45,
        "duration": 0.15,
        "velocity": 0.63,
        "hand": "left"
      },
      {
        "midi": 67,
        "time": 15.45,
        "duration": 0.15,
        "velocity": 0.63,
        "hand": "right"
      },
      {
        "midi": 79,
        "time": 15.45,
        "duration": 0.15,
        "velocity": 0.63,
        "hand": "right"
      },
      {
        "midi": 53,
        "time": 15.6,
        "duration": 0.3,
        "velocity": 0.63,
        "hand": "left"
      },
      {
        "midi": 65,
        "time": 15.6,
        "duration": 0.3,
        "velocity": 0.63,
        "hand": "right"
      },
      {
        "midi": 77,
        "time": 15.6,
        "duration": 0.3,
        "velocity": 0.63,
        "hand": "right"
      },
      {
        "midi": 52,
        "time": 15.9,
        "duration": 0.3,
        "velocity": 0.63,
        "hand": "left"
      },
      {
        "midi": 64,
        "time": 15.9,
        "duration": 0.3,
        "velocity": 0.63,
        "hand": "right"
      },
      {
        "midi": 76,
        "time": 15.9,
        "duration": 0.3,
        "velocity": 0.63,
        "hand": "right"
      },
      {
        "midi": 50,
        "time": 16.2,
        "duration": 0.3,
        "velocity": 0.63,
        "hand": "left"
      },
      {
        "midi": 62,
        "time": 16.2,
        "duration": 0.3,
        "velocity": 0.63,
        "hand": "right"
      },
      {
        "midi": 74,
        "time": 16.2,
        "duration": 0.3,
        "velocity": 0.63,
        "hand": "right"
      },
      {
        "midi": 50,
        "time": 16.65,
        "duration": 0.15,
        "velocity": 0.63,
        "hand": "left"
      },
      {
        "midi": 65,
        "time": 16.65,
        "duration": 0.15,
        "velocity": 0.63,
        "hand": "right"
      },
      {
        "midi": 79,
        "time": 16.65,
        "duration": 0.15,
        "velocity": 0.63,
        "hand": "right"
      },
      {
        "midi": 50,
        "time": 16.8,
        "duration": 0.3,
        "velocity": 0.63,
        "hand": "left"
      },
      {
        "midi": 65,
        "time": 16.8,
        "duration": 0.3,
        "velocity": 0.63,
        "hand": "right"
      },
      {
        "midi": 79,
        "time": 16.8,
        "duration": 0.3,
        "velocity": 0.63,
        "hand": "right"
      },
      {
        "midi": 50,
        "time": 17.1,
        "duration": 0.3,
        "velocity": 0.63,
        "hand": "left"
      },
      {
        "midi": 65,
        "time": 17.1,
        "duration": 0.3,
        "velocity": 0.63,
        "hand": "right"
      },
      {
        "midi": 79,
        "time": 17.1,
        "duration": 0.3,
        "velocity": 0.63,
        "hand": "right"
      },
      {
        "midi": 50,
        "time": 17.4,
        "duration": 0.15,
        "velocity": 0.63,
        "hand": "left"
      },
      {
        "midi": 67,
        "time": 17.4,
        "duration": 0.15,
        "velocity": 0.63,
        "hand": "right"
      },
      {
        "midi": 83,
        "time": 17.4,
        "duration": 0.15,
        "velocity": 0.63,
        "hand": "right"
      },
      {
        "midi": 50,
        "time": 17.55,
        "duration": 0.3,
        "velocity": 0.63,
        "hand": "left"
      },
      {
        "midi": 67,
        "time": 17.55,
        "duration": 0.3,
        "velocity": 0.63,
        "hand": "right"
      },
      {
        "midi": 83,
        "time": 17.55,
        "duration": 0.3,
        "velocity": 0.63,
        "hand": "right"
      },
      {
        "midi": 55,
        "time": 17.85,
        "duration": 0.15,
        "velocity": 0.63,
        "hand": "left"
      },
      {
        "midi": 71,
        "time": 17.85,
        "duration": 0.15,
        "velocity": 0.63,
        "hand": "right"
      },
      {
        "midi": 79,
        "time": 17.85,
        "duration": 0.15,
        "velocity": 0.63,
        "hand": "right"
      },
      {
        "midi": 53,
        "time": 18,
        "duration": 0.3,
        "velocity": 0.63,
        "hand": "left"
      },
      {
        "midi": 69,
        "time": 18,
        "duration": 0.3,
        "velocity": 0.63,
        "hand": "right"
      },
      {
        "midi": 77,
        "time": 18,
        "duration": 0.3,
        "velocity": 0.63,
        "hand": "right"
      },
      {
        "midi": 50,
        "time": 18.3,
        "duration": 0.3,
        "velocity": 0.63,
        "hand": "left"
      },
      {
        "midi": 65,
        "time": 18.3,
        "duration": 0.3,
        "velocity": 0.63,
        "hand": "right"
      },
      {
        "midi": 74,
        "time": 18.3,
        "duration": 0.3,
        "velocity": 0.63,
        "hand": "right"
      },
      {
        "midi": 48,
        "time": 18.6,
        "duration": 0.6,
        "velocity": 0.63,
        "hand": "left"
      },
      {
        "midi": 64,
        "time": 18.6,
        "duration": 0.6,
        "velocity": 0.63,
        "hand": "right"
      },
      {
        "midi": 72,
        "time": 18.6,
        "duration": 0.6,
        "velocity": 0.63,
        "hand": "right"
      },
      {
        "midi": 48,
        "time": 19.8,
        "duration": 0.3,
        "velocity": 0.63,
        "hand": "left"
      },
      {
        "midi": 64,
        "time": 19.8,
        "duration": 0.3,
        "velocity": 0.63,
        "hand": "right"
      },
      {
        "midi": 79,
        "time": 19.8,
        "duration": 0.3,
        "velocity": 0.63,
        "hand": "right"
      },
      {
        "midi": 48,
        "time": 20.1,
        "duration": 0.3,
        "velocity": 0.63,
        "hand": "left"
      },
      {
        "midi": 64,
        "time": 20.1,
        "duration": 0.3,
        "velocity": 0.63,
        "hand": "right"
      },
      {
        "midi": 79,
        "time": 20.1,
        "duration": 0.3,
        "velocity": 0.63,
        "hand": "right"
      },
      {
        "midi": 50,
        "time": 20.4,
        "duration": 0.6,
        "velocity": 0.63,
        "hand": "left"
      },
      {
        "midi": 65,
        "time": 20.4,
        "duration": 0.6,
        "velocity": 0.63,
        "hand": "right"
      },
      {
        "midi": 79,
        "time": 20.4,
        "duration": 0.6,
        "velocity": 0.63,
        "hand": "right"
      },
      {
        "midi": 52,
        "time": 21,
        "duration": 0.3,
        "velocity": 0.63,
        "hand": "left"
      },
      {
        "midi": 64,
        "time": 21,
        "duration": 0.3,
        "velocity": 0.63,
        "hand": "right"
      },
      {
        "midi": 79,
        "time": 21,
        "duration": 0.3,
        "velocity": 0.63,
        "hand": "right"
      },
      {
        "midi": 53,
        "time": 21.3,
        "duration": 0.3,
        "velocity": 0.63,
        "hand": "left"
      },
      {
        "midi": 62,
        "time": 21.3,
        "duration": 0.3,
        "velocity": 0.63,
        "hand": "right"
      },
      {
        "midi": 77,
        "time": 21.3,
        "duration": 0.3,
        "velocity": 0.63,
        "hand": "right"
      },
      {
        "midi": 55,
        "time": 21.6,
        "duration": 0.6,
        "velocity": 0.63,
        "hand": "left"
      },
      {
        "midi": 60,
        "time": 21.6,
        "duration": 0.6,
        "velocity": 0.63,
        "hand": "right"
      },
      {
        "midi": 76,
        "time": 21.6,
        "duration": 0.6,
        "velocity": 0.63,
        "hand": "right"
      },
      {
        "midi": 48,
        "time": 22.2,
        "duration": 0.3,
        "velocity": 0.63,
        "hand": "left"
      },
      {
        "midi": 64,
        "time": 22.2,
        "duration": 0.3,
        "velocity": 0.63,
        "hand": "right"
      },
      {
        "midi": 79,
        "time": 22.2,
        "duration": 0.3,
        "velocity": 0.63,
        "hand": "right"
      },
      {
        "midi": 48,
        "time": 22.5,
        "duration": 0.3,
        "velocity": 0.63,
        "hand": "left"
      },
      {
        "midi": 64,
        "time": 22.5,
        "duration": 0.3,
        "velocity": 0.63,
        "hand": "right"
      },
      {
        "midi": 79,
        "time": 22.5,
        "duration": 0.3,
        "velocity": 0.63,
        "hand": "right"
      },
      {
        "midi": 55,
        "time": 22.8,
        "duration": 0.3,
        "velocity": 0.63,
        "hand": "left"
      },
      {
        "midi": 64,
        "time": 22.8,
        "duration": 0.3,
        "velocity": 0.63,
        "hand": "right"
      },
      {
        "midi": 84,
        "time": 22.8,
        "duration": 0.3,
        "velocity": 0.63,
        "hand": "right"
      },
      {
        "midi": 55,
        "time": 23.1,
        "duration": 0.3,
        "velocity": 0.63,
        "hand": "left"
      },
      {
        "midi": 64,
        "time": 23.1,
        "duration": 0.3,
        "velocity": 0.63,
        "hand": "right"
      },
      {
        "midi": 84,
        "time": 23.1,
        "duration": 0.3,
        "velocity": 0.63,
        "hand": "right"
      },
      {
        "midi": 55,
        "time": 23.4,
        "duration": 0.3,
        "velocity": 0.63,
        "hand": "left"
      },
      {
        "midi": 64,
        "time": 23.4,
        "duration": 0.3,
        "velocity": 0.63,
        "hand": "right"
      },
      {
        "midi": 84,
        "time": 23.4,
        "duration": 0.3,
        "velocity": 0.63,
        "hand": "right"
      },
      {
        "midi": 55,
        "time": 23.7,
        "duration": 0.3,
        "velocity": 0.63,
        "hand": "left"
      },
      {
        "midi": 64,
        "time": 23.7,
        "duration": 0.3,
        "velocity": 0.63,
        "hand": "right"
      },
      {
        "midi": 83,
        "time": 23.7,
        "duration": 0.3,
        "velocity": 0.63,
        "hand": "right"
      },
      {
        "midi": 53,
        "time": 24,
        "duration": 0.6,
        "velocity": 0.63,
        "hand": "left"
      },
      {
        "midi": 65,
        "time": 24,
        "duration": 0.6,
        "velocity": 0.63,
        "hand": "right"
      },
      {
        "midi": 81,
        "time": 24,
        "duration": 0.6,
        "velocity": 0.63,
        "hand": "right"
      },
      {
        "midi": 48,
        "time": 24.6,
        "duration": 0.3,
        "velocity": 0.63,
        "hand": "left"
      },
      {
        "midi": 65,
        "time": 24.6,
        "duration": 0.3,
        "velocity": 0.63,
        "hand": "right"
      },
      {
        "midi": 81,
        "time": 24.6,
        "duration": 0.3,
        "velocity": 0.63,
        "hand": "right"
      },
      {
        "midi": 48,
        "time": 24.9,
        "duration": 0.3,
        "velocity": 0.63,
        "hand": "left"
      },
      {
        "midi": 65,
        "time": 24.9,
        "duration": 0.3,
        "velocity": 0.63,
        "hand": "right"
      },
      {
        "midi": 81,
        "time": 24.9,
        "duration": 0.3,
        "velocity": 0.63,
        "hand": "right"
      },
      {
        "midi": 57,
        "time": 25.2,
        "duration": 0.3,
        "velocity": 0.63,
        "hand": "left"
      },
      {
        "midi": 77,
        "time": 25.2,
        "duration": 0.3,
        "velocity": 0.63,
        "hand": "right"
      },
      {
        "midi": 86,
        "time": 25.2,
        "duration": 0.3,
        "velocity": 0.63,
        "hand": "right"
      },
      {
        "midi": 57,
        "time": 25.5,
        "duration": 0.3,
        "velocity": 0.63,
        "hand": "left"
      },
      {
        "midi": 77,
        "time": 25.5,
        "duration": 0.3,
        "velocity": 0.63,
        "hand": "right"
      },
      {
        "midi": 86,
        "time": 25.5,
        "duration": 0.3,
        "velocity": 0.63,
        "hand": "right"
      },
      {
        "midi": 57,
        "time": 25.8,
        "duration": 0.3,
        "velocity": 0.63,
        "hand": "left"
      },
      {
        "midi": 77,
        "time": 25.8,
        "duration": 0.3,
        "velocity": 0.63,
        "hand": "right"
      },
      {
        "midi": 86,
        "time": 25.8,
        "duration": 0.3,
        "velocity": 0.63,
        "hand": "right"
      },
      {
        "midi": 55,
        "time": 26.1,
        "duration": 0.3,
        "velocity": 0.63,
        "hand": "left"
      },
      {
        "midi": 76,
        "time": 26.1,
        "duration": 0.3,
        "velocity": 0.63,
        "hand": "right"
      },
      {
        "midi": 84,
        "time": 26.1,
        "duration": 0.3,
        "velocity": 0.63,
        "hand": "right"
      },
      {
        "midi": 53,
        "time": 26.4,
        "duration": 0.3,
        "velocity": 0.63,
        "hand": "left"
      },
      {
        "midi": 74,
        "time": 26.4,
        "duration": 0.3,
        "velocity": 0.63,
        "hand": "right"
      },
      {
        "midi": 83,
        "time": 26.4,
        "duration": 0.3,
        "velocity": 0.63,
        "hand": "right"
      },
      {
        "midi": 53,
        "time": 26.7,
        "duration": 0.3,
        "velocity": 0.63,
        "hand": "left"
      },
      {
        "midi": 74,
        "time": 26.7,
        "duration": 0.3,
        "velocity": 0.63,
        "hand": "right"
      },
      {
        "midi": 83,
        "time": 26.7,
        "duration": 0.3,
        "velocity": 0.63,
        "hand": "right"
      },
      {
        "midi": 53,
        "time": 27,
        "duration": 0.3,
        "velocity": 0.63,
        "hand": "left"
      },
      {
        "midi": 74,
        "time": 27,
        "duration": 0.3,
        "velocity": 0.63,
        "hand": "right"
      },
      {
        "midi": 83,
        "time": 27,
        "duration": 0.3,
        "velocity": 0.63,
        "hand": "right"
      },
      {
        "midi": 52,
        "time": 27.3,
        "duration": 0.3,
        "velocity": 0.63,
        "hand": "left"
      },
      {
        "midi": 72,
        "time": 27.3,
        "duration": 0.3,
        "velocity": 0.63,
        "hand": "right"
      },
      {
        "midi": 81,
        "time": 27.3,
        "duration": 0.3,
        "velocity": 0.63,
        "hand": "right"
      },
      {
        "midi": 50,
        "time": 27.6,
        "duration": 0.6,
        "velocity": 0.63,
        "hand": "left"
      },
      {
        "midi": 71,
        "time": 27.6,
        "duration": 0.6,
        "velocity": 0.63,
        "hand": "right"
      },
      {
        "midi": 79,
        "time": 27.6,
        "duration": 0.6,
        "velocity": 0.63,
        "hand": "right"
      },
      {
        "midi": 52,
        "time": 28.2,
        "duration": 0.3,
        "velocity": 0.63,
        "hand": "left"
      },
      {
        "midi": 72,
        "time": 28.2,
        "duration": 0.3,
        "velocity": 0.63,
        "hand": "right"
      },
      {
        "midi": 81,
        "time": 28.2,
        "duration": 0.3,
        "velocity": 0.63,
        "hand": "right"
      },
      {
        "midi": 53,
        "time": 28.5,
        "duration": 0.3,
        "velocity": 0.63,
        "hand": "left"
      },
      {
        "midi": 74,
        "time": 28.5,
        "duration": 0.3,
        "velocity": 0.63,
        "hand": "right"
      },
      {
        "midi": 83,
        "time": 28.5,
        "duration": 0.3,
        "velocity": 0.63,
        "hand": "right"
      },
      {
        "midi": 55,
        "time": 28.8,
        "duration": 0.45,
        "velocity": 0.63,
        "hand": "left"
      },
      {
        "midi": 76,
        "time": 28.8,
        "duration": 0.45,
        "velocity": 0.63,
        "hand": "right"
      },
      {
        "midi": 84,
        "time": 28.8,
        "duration": 0.45,
        "velocity": 0.63,
        "hand": "right"
      },
      {
        "midi": 48,
        "time": 29.25,
        "duration": 0.15,
        "velocity": 0.63,
        "hand": "left"
      },
      {
        "midi": 64,
        "time": 29.25,
        "duration": 0.15,
        "velocity": 0.63,
        "hand": "right"
      },
      {
        "midi": 79,
        "time": 29.25,
        "duration": 0.15,
        "velocity": 0.63,
        "hand": "right"
      },
      {
        "midi": 48,
        "time": 29.4,
        "duration": 0.3,
        "velocity": 0.63,
        "hand": "left"
      },
      {
        "midi": 64,
        "time": 29.4,
        "duration": 0.3,
        "velocity": 0.63,
        "hand": "right"
      },
      {
        "midi": 79,
        "time": 29.4,
        "duration": 0.3,
        "velocity": 0.63,
        "hand": "right"
      },
      {
        "midi": 48,
        "time": 29.7,
        "duration": 0.3,
        "velocity": 0.63,
        "hand": "left"
      },
      {
        "midi": 64,
        "time": 29.7,
        "duration": 0.3,
        "velocity": 0.63,
        "hand": "right"
      },
      {
        "midi": 79,
        "time": 29.7,
        "duration": 0.3,
        "velocity": 0.63,
        "hand": "right"
      },
      {
        "midi": 48,
        "time": 30,
        "duration": 0.45,
        "velocity": 0.63,
        "hand": "left"
      },
      {
        "midi": 64,
        "time": 30,
        "duration": 0.45,
        "velocity": 0.63,
        "hand": "right"
      },
      {
        "midi": 84,
        "time": 30,
        "duration": 0.45,
        "velocity": 0.63,
        "hand": "right"
      },
      {
        "midi": 55,
        "time": 30.45,
        "duration": 0.15,
        "velocity": 0.63,
        "hand": "left"
      },
      {
        "midi": 67,
        "time": 30.45,
        "duration": 0.15,
        "velocity": 0.63,
        "hand": "right"
      },
      {
        "midi": 79,
        "time": 30.45,
        "duration": 0.15,
        "velocity": 0.63,
        "hand": "right"
      },
      {
        "midi": 53,
        "time": 30.6,
        "duration": 0.3,
        "velocity": 0.63,
        "hand": "left"
      },
      {
        "midi": 65,
        "time": 30.6,
        "duration": 0.3,
        "velocity": 0.63,
        "hand": "right"
      },
      {
        "midi": 77,
        "time": 30.6,
        "duration": 0.3,
        "velocity": 0.63,
        "hand": "right"
      },
      {
        "midi": 52,
        "time": 30.9,
        "duration": 0.3,
        "velocity": 0.63,
        "hand": "left"
      },
      {
        "midi": 64,
        "time": 30.9,
        "duration": 0.3,
        "velocity": 0.63,
        "hand": "right"
      },
      {
        "midi": 76,
        "time": 30.9,
        "duration": 0.3,
        "velocity": 0.63,
        "hand": "right"
      },
      {
        "midi": 50,
        "time": 31.2,
        "duration": 0.3,
        "velocity": 0.63,
        "hand": "left"
      },
      {
        "midi": 62,
        "time": 31.2,
        "duration": 0.3,
        "velocity": 0.63,
        "hand": "right"
      },
      {
        "midi": 74,
        "time": 31.2,
        "duration": 0.3,
        "velocity": 0.63,
        "hand": "right"
      },
      {
        "midi": 50,
        "time": 31.65,
        "duration": 0.15,
        "velocity": 0.63,
        "hand": "left"
      },
      {
        "midi": 65,
        "time": 31.65,
        "duration": 0.15,
        "velocity": 0.63,
        "hand": "right"
      },
      {
        "midi": 79,
        "time": 31.65,
        "duration": 0.15,
        "velocity": 0.63,
        "hand": "right"
      },
      {
        "midi": 50,
        "time": 31.8,
        "duration": 0.3,
        "velocity": 0.63,
        "hand": "left"
      },
      {
        "midi": 65,
        "time": 31.8,
        "duration": 0.3,
        "velocity": 0.63,
        "hand": "right"
      },
      {
        "midi": 79,
        "time": 31.8,
        "duration": 0.3,
        "velocity": 0.63,
        "hand": "right"
      },
      {
        "midi": 50,
        "time": 32.1,
        "duration": 0.3,
        "velocity": 0.63,
        "hand": "left"
      },
      {
        "midi": 65,
        "time": 32.1,
        "duration": 0.3,
        "velocity": 0.63,
        "hand": "right"
      },
      {
        "midi": 79,
        "time": 32.1,
        "duration": 0.3,
        "velocity": 0.63,
        "hand": "right"
      },
      {
        "midi": 50,
        "time": 32.4,
        "duration": 0.15,
        "velocity": 0.63,
        "hand": "left"
      },
      {
        "midi": 67,
        "time": 32.4,
        "duration": 0.15,
        "velocity": 0.63,
        "hand": "right"
      },
      {
        "midi": 83,
        "time": 32.4,
        "duration": 0.15,
        "velocity": 0.63,
        "hand": "right"
      },
      {
        "midi": 50,
        "time": 32.55,
        "duration": 0.3,
        "velocity": 0.63,
        "hand": "left"
      },
      {
        "midi": 67,
        "time": 32.55,
        "duration": 0.3,
        "velocity": 0.63,
        "hand": "right"
      },
      {
        "midi": 83,
        "time": 32.55,
        "duration": 0.3,
        "velocity": 0.63,
        "hand": "right"
      },
      {
        "midi": 55,
        "time": 32.85,
        "duration": 0.15,
        "velocity": 0.63,
        "hand": "left"
      },
      {
        "midi": 71,
        "time": 32.85,
        "duration": 0.15,
        "velocity": 0.63,
        "hand": "right"
      },
      {
        "midi": 79,
        "time": 32.85,
        "duration": 0.15,
        "velocity": 0.63,
        "hand": "right"
      },
      {
        "midi": 53,
        "time": 33,
        "duration": 0.3,
        "velocity": 0.63,
        "hand": "left"
      },
      {
        "midi": 69,
        "time": 33,
        "duration": 0.3,
        "velocity": 0.63,
        "hand": "right"
      },
      {
        "midi": 77,
        "time": 33,
        "duration": 0.3,
        "velocity": 0.63,
        "hand": "right"
      },
      {
        "midi": 50,
        "time": 33.3,
        "duration": 0.3,
        "velocity": 0.63,
        "hand": "left"
      },
      {
        "midi": 65,
        "time": 33.3,
        "duration": 0.3,
        "velocity": 0.63,
        "hand": "right"
      },
      {
        "midi": 74,
        "time": 33.3,
        "duration": 0.3,
        "velocity": 0.63,
        "hand": "right"
      },
      {
        "midi": 48,
        "time": 33.6,
        "duration": 0.3,
        "velocity": 0.63,
        "hand": "left"
      },
      {
        "midi": 64,
        "time": 33.6,
        "duration": 0.3,
        "velocity": 0.63,
        "hand": "right"
      },
      {
        "midi": 72,
        "time": 33.6,
        "duration": 0.3,
        "velocity": 0.63,
        "hand": "right"
      },
      {
        "midi": 48,
        "time": 34.05,
        "duration": 0.15,
        "velocity": 0.63,
        "hand": "left"
      },
      {
        "midi": 64,
        "time": 34.05,
        "duration": 0.15,
        "velocity": 0.63,
        "hand": "right"
      },
      {
        "midi": 79,
        "time": 34.05,
        "duration": 0.15,
        "velocity": 0.63,
        "hand": "right"
      },
      {
        "midi": 48,
        "time": 34.2,
        "duration": 0.3,
        "velocity": 0.63,
        "hand": "left"
      },
      {
        "midi": 64,
        "time": 34.2,
        "duration": 0.3,
        "velocity": 0.63,
        "hand": "right"
      },
      {
        "midi": 79,
        "time": 34.2,
        "duration": 0.3,
        "velocity": 0.63,
        "hand": "right"
      },
      {
        "midi": 48,
        "time": 34.5,
        "duration": 0.3,
        "velocity": 0.63,
        "hand": "left"
      },
      {
        "midi": 64,
        "time": 34.5,
        "duration": 0.3,
        "velocity": 0.63,
        "hand": "right"
      },
      {
        "midi": 79,
        "time": 34.5,
        "duration": 0.3,
        "velocity": 0.63,
        "hand": "right"
      },
      {
        "midi": 48,
        "time": 34.8,
        "duration": 0.45,
        "velocity": 0.63,
        "hand": "left"
      },
      {
        "midi": 64,
        "time": 34.8,
        "duration": 0.45,
        "velocity": 0.63,
        "hand": "right"
      },
      {
        "midi": 84,
        "time": 34.8,
        "duration": 0.45,
        "velocity": 0.63,
        "hand": "right"
      },
      {
        "midi": 55,
        "time": 35.25,
        "duration": 0.15,
        "velocity": 0.63,
        "hand": "left"
      },
      {
        "midi": 67,
        "time": 35.25,
        "duration": 0.15,
        "velocity": 0.63,
        "hand": "right"
      },
      {
        "midi": 79,
        "time": 35.25,
        "duration": 0.15,
        "velocity": 0.63,
        "hand": "right"
      },
      {
        "midi": 53,
        "time": 35.4,
        "duration": 0.3,
        "velocity": 0.63,
        "hand": "left"
      },
      {
        "midi": 65,
        "time": 35.4,
        "duration": 0.3,
        "velocity": 0.63,
        "hand": "right"
      },
      {
        "midi": 77,
        "time": 35.4,
        "duration": 0.3,
        "velocity": 0.63,
        "hand": "right"
      },
      {
        "midi": 52,
        "time": 35.7,
        "duration": 0.3,
        "velocity": 0.63,
        "hand": "left"
      },
      {
        "midi": 64,
        "time": 35.7,
        "duration": 0.3,
        "velocity": 0.63,
        "hand": "right"
      },
      {
        "midi": 76,
        "time": 35.7,
        "duration": 0.3,
        "velocity": 0.63,
        "hand": "right"
      },
      {
        "midi": 50,
        "time": 36,
        "duration": 0.3,
        "velocity": 0.63,
        "hand": "left"
      },
      {
        "midi": 62,
        "time": 36,
        "duration": 0.3,
        "velocity": 0.63,
        "hand": "right"
      },
      {
        "midi": 74,
        "time": 36,
        "duration": 0.3,
        "velocity": 0.63,
        "hand": "right"
      },
      {
        "midi": 50,
        "time": 36.45,
        "duration": 0.15,
        "velocity": 0.63,
        "hand": "left"
      },
      {
        "midi": 65,
        "time": 36.45,
        "duration": 0.15,
        "velocity": 0.63,
        "hand": "right"
      },
      {
        "midi": 79,
        "time": 36.45,
        "duration": 0.15,
        "velocity": 0.63,
        "hand": "right"
      },
      {
        "midi": 50,
        "time": 36.6,
        "duration": 0.3,
        "velocity": 0.63,
        "hand": "left"
      },
      {
        "midi": 65,
        "time": 36.6,
        "duration": 0.3,
        "velocity": 0.63,
        "hand": "right"
      },
      {
        "midi": 79,
        "time": 36.6,
        "duration": 0.3,
        "velocity": 0.63,
        "hand": "right"
      },
      {
        "midi": 50,
        "time": 36.9,
        "duration": 0.3,
        "velocity": 0.63,
        "hand": "left"
      },
      {
        "midi": 65,
        "time": 36.9,
        "duration": 0.3,
        "velocity": 0.63,
        "hand": "right"
      },
      {
        "midi": 79,
        "time": 36.9,
        "duration": 0.3,
        "velocity": 0.63,
        "hand": "right"
      },
      {
        "midi": 50,
        "time": 37.2,
        "duration": 0.15,
        "velocity": 0.63,
        "hand": "left"
      },
      {
        "midi": 67,
        "time": 37.2,
        "duration": 0.15,
        "velocity": 0.63,
        "hand": "right"
      },
      {
        "midi": 83,
        "time": 37.2,
        "duration": 0.15,
        "velocity": 0.63,
        "hand": "right"
      },
      {
        "midi": 50,
        "time": 37.35,
        "duration": 0.3,
        "velocity": 0.63,
        "hand": "left"
      },
      {
        "midi": 67,
        "time": 37.35,
        "duration": 0.3,
        "velocity": 0.63,
        "hand": "right"
      },
      {
        "midi": 83,
        "time": 37.35,
        "duration": 0.3,
        "velocity": 0.63,
        "hand": "right"
      },
      {
        "midi": 55,
        "time": 37.65,
        "duration": 0.15,
        "velocity": 0.63,
        "hand": "left"
      },
      {
        "midi": 71,
        "time": 37.65,
        "duration": 0.15,
        "velocity": 0.63,
        "hand": "right"
      },
      {
        "midi": 79,
        "time": 37.65,
        "duration": 0.15,
        "velocity": 0.63,
        "hand": "right"
      },
      {
        "midi": 53,
        "time": 37.8,
        "duration": 0.3,
        "velocity": 0.63,
        "hand": "left"
      },
      {
        "midi": 69,
        "time": 37.8,
        "duration": 0.3,
        "velocity": 0.63,
        "hand": "right"
      },
      {
        "midi": 77,
        "time": 37.8,
        "duration": 0.3,
        "velocity": 0.63,
        "hand": "right"
      },
      {
        "midi": 50,
        "time": 38.1,
        "duration": 0.3,
        "velocity": 0.63,
        "hand": "left"
      },
      {
        "midi": 65,
        "time": 38.1,
        "duration": 0.3,
        "velocity": 0.63,
        "hand": "right"
      },
      {
        "midi": 74,
        "time": 38.1,
        "duration": 0.3,
        "velocity": 0.63,
        "hand": "right"
      },
      {
        "midi": 48,
        "time": 38.4,
        "duration": 0.6,
        "velocity": 0.63,
        "hand": "left"
      },
      {
        "midi": 64,
        "time": 38.4,
        "duration": 0.6,
        "velocity": 0.63,
        "hand": "right"
      },
      {
        "midi": 72,
        "time": 38.4,
        "duration": 0.6,
        "velocity": 0.63,
        "hand": "right"
      }
    ],
    "hard": [
      {
        "midi": 48,
        "time": 0,
        "duration": 0.3,
        "velocity": 0.63,
        "hand": "left"
      },
      {
        "midi": 64,
        "time": 0,
        "duration": 0.3,
        "velocity": 0.63,
        "hand": "right"
      },
      {
        "midi": 79,
        "time": 0,
        "duration": 0.3,
        "velocity": 0.63,
        "hand": "right"
      },
      {
        "midi": 48,
        "time": 0.3,
        "duration": 0.3,
        "velocity": 0.63,
        "hand": "left"
      },
      {
        "midi": 64,
        "time": 0.3,
        "duration": 0.3,
        "velocity": 0.63,
        "hand": "right"
      },
      {
        "midi": 79,
        "time": 0.3,
        "duration": 0.3,
        "velocity": 0.63,
        "hand": "right"
      },
      {
        "midi": 50,
        "time": 0.6,
        "duration": 0.6,
        "velocity": 0.63,
        "hand": "left"
      },
      {
        "midi": 65,
        "time": 0.6,
        "duration": 0.6,
        "velocity": 0.63,
        "hand": "right"
      },
      {
        "midi": 79,
        "time": 0.6,
        "duration": 0.6,
        "velocity": 0.63,
        "hand": "right"
      },
      {
        "midi": 52,
        "time": 1.2,
        "duration": 0.3,
        "velocity": 0.63,
        "hand": "left"
      },
      {
        "midi": 64,
        "time": 1.2,
        "duration": 0.3,
        "velocity": 0.63,
        "hand": "right"
      },
      {
        "midi": 79,
        "time": 1.2,
        "duration": 0.3,
        "velocity": 0.63,
        "hand": "right"
      },
      {
        "midi": 53,
        "time": 1.5,
        "duration": 0.3,
        "velocity": 0.63,
        "hand": "left"
      },
      {
        "midi": 62,
        "time": 1.5,
        "duration": 0.3,
        "velocity": 0.63,
        "hand": "right"
      },
      {
        "midi": 77,
        "time": 1.5,
        "duration": 0.3,
        "velocity": 0.63,
        "hand": "right"
      },
      {
        "midi": 55,
        "time": 1.8,
        "duration": 0.6,
        "velocity": 0.63,
        "hand": "left"
      },
      {
        "midi": 60,
        "time": 1.8,
        "duration": 0.6,
        "velocity": 0.63,
        "hand": "right"
      },
      {
        "midi": 76,
        "time": 1.8,
        "duration": 0.6,
        "velocity": 0.63,
        "hand": "right"
      },
      {
        "midi": 48,
        "time": 2.4,
        "duration": 0.3,
        "velocity": 0.63,
        "hand": "left"
      },
      {
        "midi": 64,
        "time": 2.4,
        "duration": 0.3,
        "velocity": 0.63,
        "hand": "right"
      },
      {
        "midi": 79,
        "time": 2.4,
        "duration": 0.3,
        "velocity": 0.63,
        "hand": "right"
      },
      {
        "midi": 48,
        "time": 2.7,
        "duration": 0.3,
        "velocity": 0.63,
        "hand": "left"
      },
      {
        "midi": 64,
        "time": 2.7,
        "duration": 0.3,
        "velocity": 0.63,
        "hand": "right"
      },
      {
        "midi": 79,
        "time": 2.7,
        "duration": 0.3,
        "velocity": 0.63,
        "hand": "right"
      },
      {
        "midi": 55,
        "time": 3,
        "duration": 0.3,
        "velocity": 0.63,
        "hand": "left"
      },
      {
        "midi": 64,
        "time": 3,
        "duration": 0.3,
        "velocity": 0.63,
        "hand": "right"
      },
      {
        "midi": 84,
        "time": 3,
        "duration": 0.3,
        "velocity": 0.63,
        "hand": "right"
      },
      {
        "midi": 55,
        "time": 3.3,
        "duration": 0.3,
        "velocity": 0.63,
        "hand": "left"
      },
      {
        "midi": 64,
        "time": 3.3,
        "duration": 0.3,
        "velocity": 0.63,
        "hand": "right"
      },
      {
        "midi": 84,
        "time": 3.3,
        "duration": 0.3,
        "velocity": 0.63,
        "hand": "right"
      },
      {
        "midi": 55,
        "time": 3.6,
        "duration": 0.3,
        "velocity": 0.63,
        "hand": "left"
      },
      {
        "midi": 64,
        "time": 3.6,
        "duration": 0.3,
        "velocity": 0.63,
        "hand": "right"
      },
      {
        "midi": 84,
        "time": 3.6,
        "duration": 0.3,
        "velocity": 0.63,
        "hand": "right"
      },
      {
        "midi": 55,
        "time": 3.9,
        "duration": 0.3,
        "velocity": 0.63,
        "hand": "left"
      },
      {
        "midi": 64,
        "time": 3.9,
        "duration": 0.3,
        "velocity": 0.63,
        "hand": "right"
      },
      {
        "midi": 83,
        "time": 3.9,
        "duration": 0.3,
        "velocity": 0.63,
        "hand": "right"
      },
      {
        "midi": 53,
        "time": 4.2,
        "duration": 0.6,
        "velocity": 0.63,
        "hand": "left"
      },
      {
        "midi": 65,
        "time": 4.2,
        "duration": 0.6,
        "velocity": 0.63,
        "hand": "right"
      },
      {
        "midi": 81,
        "time": 4.2,
        "duration": 0.6,
        "velocity": 0.63,
        "hand": "right"
      },
      {
        "midi": 48,
        "time": 4.8,
        "duration": 0.3,
        "velocity": 0.63,
        "hand": "left"
      },
      {
        "midi": 65,
        "time": 4.8,
        "duration": 0.3,
        "velocity": 0.63,
        "hand": "right"
      },
      {
        "midi": 81,
        "time": 4.8,
        "duration": 0.3,
        "velocity": 0.63,
        "hand": "right"
      },
      {
        "midi": 48,
        "time": 5.1,
        "duration": 0.3,
        "velocity": 0.63,
        "hand": "left"
      },
      {
        "midi": 65,
        "time": 5.1,
        "duration": 0.3,
        "velocity": 0.63,
        "hand": "right"
      },
      {
        "midi": 81,
        "time": 5.1,
        "duration": 0.3,
        "velocity": 0.63,
        "hand": "right"
      },
      {
        "midi": 57,
        "time": 5.4,
        "duration": 0.3,
        "velocity": 0.63,
        "hand": "left"
      },
      {
        "midi": 77,
        "time": 5.4,
        "duration": 0.3,
        "velocity": 0.63,
        "hand": "right"
      },
      {
        "midi": 86,
        "time": 5.4,
        "duration": 0.3,
        "velocity": 0.63,
        "hand": "right"
      },
      {
        "midi": 57,
        "time": 5.7,
        "duration": 0.3,
        "velocity": 0.63,
        "hand": "left"
      },
      {
        "midi": 77,
        "time": 5.7,
        "duration": 0.3,
        "velocity": 0.63,
        "hand": "right"
      },
      {
        "midi": 86,
        "time": 5.7,
        "duration": 0.3,
        "velocity": 0.63,
        "hand": "right"
      },
      {
        "midi": 57,
        "time": 6,
        "duration": 0.3,
        "velocity": 0.63,
        "hand": "left"
      },
      {
        "midi": 77,
        "time": 6,
        "duration": 0.3,
        "velocity": 0.63,
        "hand": "right"
      },
      {
        "midi": 86,
        "time": 6,
        "duration": 0.3,
        "velocity": 0.63,
        "hand": "right"
      },
      {
        "midi": 55,
        "time": 6.3,
        "duration": 0.3,
        "velocity": 0.63,
        "hand": "left"
      },
      {
        "midi": 76,
        "time": 6.3,
        "duration": 0.3,
        "velocity": 0.63,
        "hand": "right"
      },
      {
        "midi": 84,
        "time": 6.3,
        "duration": 0.3,
        "velocity": 0.63,
        "hand": "right"
      },
      {
        "midi": 53,
        "time": 6.6,
        "duration": 0.3,
        "velocity": 0.63,
        "hand": "left"
      },
      {
        "midi": 74,
        "time": 6.6,
        "duration": 0.3,
        "velocity": 0.63,
        "hand": "right"
      },
      {
        "midi": 83,
        "time": 6.6,
        "duration": 0.3,
        "velocity": 0.63,
        "hand": "right"
      },
      {
        "midi": 53,
        "time": 6.9,
        "duration": 0.3,
        "velocity": 0.63,
        "hand": "left"
      },
      {
        "midi": 74,
        "time": 6.9,
        "duration": 0.3,
        "velocity": 0.63,
        "hand": "right"
      },
      {
        "midi": 83,
        "time": 6.9,
        "duration": 0.3,
        "velocity": 0.63,
        "hand": "right"
      },
      {
        "midi": 53,
        "time": 7.2,
        "duration": 0.3,
        "velocity": 0.63,
        "hand": "left"
      },
      {
        "midi": 74,
        "time": 7.2,
        "duration": 0.3,
        "velocity": 0.63,
        "hand": "right"
      },
      {
        "midi": 83,
        "time": 7.2,
        "duration": 0.3,
        "velocity": 0.63,
        "hand": "right"
      },
      {
        "midi": 52,
        "time": 7.5,
        "duration": 0.3,
        "velocity": 0.63,
        "hand": "left"
      },
      {
        "midi": 72,
        "time": 7.5,
        "duration": 0.3,
        "velocity": 0.63,
        "hand": "right"
      },
      {
        "midi": 81,
        "time": 7.5,
        "duration": 0.3,
        "velocity": 0.63,
        "hand": "right"
      },
      {
        "midi": 50,
        "time": 7.8,
        "duration": 0.6,
        "velocity": 0.63,
        "hand": "left"
      },
      {
        "midi": 71,
        "time": 7.8,
        "duration": 0.6,
        "velocity": 0.63,
        "hand": "right"
      },
      {
        "midi": 79,
        "time": 7.8,
        "duration": 0.6,
        "velocity": 0.63,
        "hand": "right"
      },
      {
        "midi": 52,
        "time": 8.4,
        "duration": 0.3,
        "velocity": 0.63,
        "hand": "left"
      },
      {
        "midi": 72,
        "time": 8.4,
        "duration": 0.3,
        "velocity": 0.63,
        "hand": "right"
      },
      {
        "midi": 81,
        "time": 8.4,
        "duration": 0.3,
        "velocity": 0.63,
        "hand": "right"
      },
      {
        "midi": 53,
        "time": 8.7,
        "duration": 0.3,
        "velocity": 0.63,
        "hand": "left"
      },
      {
        "midi": 74,
        "time": 8.7,
        "duration": 0.3,
        "velocity": 0.63,
        "hand": "right"
      },
      {
        "midi": 83,
        "time": 8.7,
        "duration": 0.3,
        "velocity": 0.63,
        "hand": "right"
      },
      {
        "midi": 55,
        "time": 9,
        "duration": 0.45,
        "velocity": 0.63,
        "hand": "left"
      },
      {
        "midi": 76,
        "time": 9,
        "duration": 0.45,
        "velocity": 0.63,
        "hand": "right"
      },
      {
        "midi": 84,
        "time": 9,
        "duration": 0.45,
        "velocity": 0.63,
        "hand": "right"
      },
      {
        "midi": 48,
        "time": 9.45,
        "duration": 0.15,
        "velocity": 0.63,
        "hand": "left"
      },
      {
        "midi": 64,
        "time": 9.45,
        "duration": 0.15,
        "velocity": 0.63,
        "hand": "right"
      },
      {
        "midi": 79,
        "time": 9.45,
        "duration": 0.15,
        "velocity": 0.63,
        "hand": "right"
      },
      {
        "midi": 48,
        "time": 9.6,
        "duration": 0.3,
        "velocity": 0.63,
        "hand": "left"
      },
      {
        "midi": 64,
        "time": 9.6,
        "duration": 0.3,
        "velocity": 0.63,
        "hand": "right"
      },
      {
        "midi": 79,
        "time": 9.6,
        "duration": 0.3,
        "velocity": 0.63,
        "hand": "right"
      },
      {
        "midi": 48,
        "time": 9.9,
        "duration": 0.3,
        "velocity": 0.63,
        "hand": "left"
      },
      {
        "midi": 64,
        "time": 9.9,
        "duration": 0.3,
        "velocity": 0.63,
        "hand": "right"
      },
      {
        "midi": 79,
        "time": 9.9,
        "duration": 0.3,
        "velocity": 0.63,
        "hand": "right"
      },
      {
        "midi": 48,
        "time": 10.2,
        "duration": 0.45,
        "velocity": 0.63,
        "hand": "left"
      },
      {
        "midi": 64,
        "time": 10.2,
        "duration": 0.45,
        "velocity": 0.63,
        "hand": "right"
      },
      {
        "midi": 84,
        "time": 10.2,
        "duration": 0.45,
        "velocity": 0.63,
        "hand": "right"
      },
      {
        "midi": 55,
        "time": 10.65,
        "duration": 0.15,
        "velocity": 0.63,
        "hand": "left"
      },
      {
        "midi": 67,
        "time": 10.65,
        "duration": 0.15,
        "velocity": 0.63,
        "hand": "right"
      },
      {
        "midi": 79,
        "time": 10.65,
        "duration": 0.15,
        "velocity": 0.63,
        "hand": "right"
      },
      {
        "midi": 53,
        "time": 10.8,
        "duration": 0.3,
        "velocity": 0.63,
        "hand": "left"
      },
      {
        "midi": 65,
        "time": 10.8,
        "duration": 0.3,
        "velocity": 0.63,
        "hand": "right"
      },
      {
        "midi": 77,
        "time": 10.8,
        "duration": 0.3,
        "velocity": 0.63,
        "hand": "right"
      },
      {
        "midi": 52,
        "time": 11.1,
        "duration": 0.3,
        "velocity": 0.63,
        "hand": "left"
      },
      {
        "midi": 64,
        "time": 11.1,
        "duration": 0.3,
        "velocity": 0.63,
        "hand": "right"
      },
      {
        "midi": 76,
        "time": 11.1,
        "duration": 0.3,
        "velocity": 0.63,
        "hand": "right"
      },
      {
        "midi": 50,
        "time": 11.4,
        "duration": 0.3,
        "velocity": 0.63,
        "hand": "left"
      },
      {
        "midi": 62,
        "time": 11.4,
        "duration": 0.3,
        "velocity": 0.63,
        "hand": "right"
      },
      {
        "midi": 74,
        "time": 11.4,
        "duration": 0.3,
        "velocity": 0.63,
        "hand": "right"
      },
      {
        "midi": 50,
        "time": 11.85,
        "duration": 0.15,
        "velocity": 0.63,
        "hand": "left"
      },
      {
        "midi": 65,
        "time": 11.85,
        "duration": 0.15,
        "velocity": 0.63,
        "hand": "right"
      },
      {
        "midi": 79,
        "time": 11.85,
        "duration": 0.15,
        "velocity": 0.63,
        "hand": "right"
      },
      {
        "midi": 50,
        "time": 12,
        "duration": 0.3,
        "velocity": 0.63,
        "hand": "left"
      },
      {
        "midi": 65,
        "time": 12,
        "duration": 0.3,
        "velocity": 0.63,
        "hand": "right"
      },
      {
        "midi": 79,
        "time": 12,
        "duration": 0.3,
        "velocity": 0.63,
        "hand": "right"
      },
      {
        "midi": 50,
        "time": 12.3,
        "duration": 0.3,
        "velocity": 0.63,
        "hand": "left"
      },
      {
        "midi": 65,
        "time": 12.3,
        "duration": 0.3,
        "velocity": 0.63,
        "hand": "right"
      },
      {
        "midi": 79,
        "time": 12.3,
        "duration": 0.3,
        "velocity": 0.63,
        "hand": "right"
      },
      {
        "midi": 50,
        "time": 12.6,
        "duration": 0.15,
        "velocity": 0.63,
        "hand": "left"
      },
      {
        "midi": 67,
        "time": 12.6,
        "duration": 0.15,
        "velocity": 0.63,
        "hand": "right"
      },
      {
        "midi": 83,
        "time": 12.6,
        "duration": 0.15,
        "velocity": 0.63,
        "hand": "right"
      },
      {
        "midi": 50,
        "time": 12.75,
        "duration": 0.3,
        "velocity": 0.63,
        "hand": "left"
      },
      {
        "midi": 67,
        "time": 12.75,
        "duration": 0.3,
        "velocity": 0.63,
        "hand": "right"
      },
      {
        "midi": 83,
        "time": 12.75,
        "duration": 0.3,
        "velocity": 0.63,
        "hand": "right"
      },
      {
        "midi": 55,
        "time": 13.05,
        "duration": 0.15,
        "velocity": 0.63,
        "hand": "left"
      },
      {
        "midi": 71,
        "time": 13.05,
        "duration": 0.15,
        "velocity": 0.63,
        "hand": "right"
      },
      {
        "midi": 79,
        "time": 13.05,
        "duration": 0.15,
        "velocity": 0.63,
        "hand": "right"
      },
      {
        "midi": 53,
        "time": 13.2,
        "duration": 0.3,
        "velocity": 0.63,
        "hand": "left"
      },
      {
        "midi": 69,
        "time": 13.2,
        "duration": 0.3,
        "velocity": 0.63,
        "hand": "right"
      },
      {
        "midi": 77,
        "time": 13.2,
        "duration": 0.3,
        "velocity": 0.63,
        "hand": "right"
      },
      {
        "midi": 50,
        "time": 13.5,
        "duration": 0.3,
        "velocity": 0.63,
        "hand": "left"
      },
      {
        "midi": 65,
        "time": 13.5,
        "duration": 0.3,
        "velocity": 0.63,
        "hand": "right"
      },
      {
        "midi": 74,
        "time": 13.5,
        "duration": 0.3,
        "velocity": 0.63,
        "hand": "right"
      },
      {
        "midi": 48,
        "time": 13.8,
        "duration": 0.3,
        "velocity": 0.63,
        "hand": "left"
      },
      {
        "midi": 64,
        "time": 13.8,
        "duration": 0.3,
        "velocity": 0.63,
        "hand": "right"
      },
      {
        "midi": 72,
        "time": 13.8,
        "duration": 0.3,
        "velocity": 0.63,
        "hand": "right"
      },
      {
        "midi": 48,
        "time": 14.25,
        "duration": 0.15,
        "velocity": 0.63,
        "hand": "left"
      },
      {
        "midi": 64,
        "time": 14.25,
        "duration": 0.15,
        "velocity": 0.63,
        "hand": "right"
      },
      {
        "midi": 79,
        "time": 14.25,
        "duration": 0.15,
        "velocity": 0.63,
        "hand": "right"
      },
      {
        "midi": 48,
        "time": 14.4,
        "duration": 0.3,
        "velocity": 0.63,
        "hand": "left"
      },
      {
        "midi": 64,
        "time": 14.4,
        "duration": 0.3,
        "velocity": 0.63,
        "hand": "right"
      },
      {
        "midi": 79,
        "time": 14.4,
        "duration": 0.3,
        "velocity": 0.63,
        "hand": "right"
      },
      {
        "midi": 48,
        "time": 14.7,
        "duration": 0.3,
        "velocity": 0.63,
        "hand": "left"
      },
      {
        "midi": 64,
        "time": 14.7,
        "duration": 0.3,
        "velocity": 0.63,
        "hand": "right"
      },
      {
        "midi": 79,
        "time": 14.7,
        "duration": 0.3,
        "velocity": 0.63,
        "hand": "right"
      },
      {
        "midi": 48,
        "time": 15,
        "duration": 0.45,
        "velocity": 0.63,
        "hand": "left"
      },
      {
        "midi": 64,
        "time": 15,
        "duration": 0.45,
        "velocity": 0.63,
        "hand": "right"
      },
      {
        "midi": 84,
        "time": 15,
        "duration": 0.45,
        "velocity": 0.63,
        "hand": "right"
      },
      {
        "midi": 55,
        "time": 15.45,
        "duration": 0.15,
        "velocity": 0.63,
        "hand": "left"
      },
      {
        "midi": 67,
        "time": 15.45,
        "duration": 0.15,
        "velocity": 0.63,
        "hand": "right"
      },
      {
        "midi": 79,
        "time": 15.45,
        "duration": 0.15,
        "velocity": 0.63,
        "hand": "right"
      },
      {
        "midi": 53,
        "time": 15.6,
        "duration": 0.3,
        "velocity": 0.63,
        "hand": "left"
      },
      {
        "midi": 65,
        "time": 15.6,
        "duration": 0.3,
        "velocity": 0.63,
        "hand": "right"
      },
      {
        "midi": 77,
        "time": 15.6,
        "duration": 0.3,
        "velocity": 0.63,
        "hand": "right"
      },
      {
        "midi": 52,
        "time": 15.9,
        "duration": 0.3,
        "velocity": 0.63,
        "hand": "left"
      },
      {
        "midi": 64,
        "time": 15.9,
        "duration": 0.3,
        "velocity": 0.63,
        "hand": "right"
      },
      {
        "midi": 76,
        "time": 15.9,
        "duration": 0.3,
        "velocity": 0.63,
        "hand": "right"
      },
      {
        "midi": 50,
        "time": 16.2,
        "duration": 0.3,
        "velocity": 0.63,
        "hand": "left"
      },
      {
        "midi": 62,
        "time": 16.2,
        "duration": 0.3,
        "velocity": 0.63,
        "hand": "right"
      },
      {
        "midi": 74,
        "time": 16.2,
        "duration": 0.3,
        "velocity": 0.63,
        "hand": "right"
      },
      {
        "midi": 50,
        "time": 16.65,
        "duration": 0.15,
        "velocity": 0.63,
        "hand": "left"
      },
      {
        "midi": 65,
        "time": 16.65,
        "duration": 0.15,
        "velocity": 0.63,
        "hand": "right"
      },
      {
        "midi": 79,
        "time": 16.65,
        "duration": 0.15,
        "velocity": 0.63,
        "hand": "right"
      },
      {
        "midi": 50,
        "time": 16.8,
        "duration": 0.3,
        "velocity": 0.63,
        "hand": "left"
      },
      {
        "midi": 65,
        "time": 16.8,
        "duration": 0.3,
        "velocity": 0.63,
        "hand": "right"
      },
      {
        "midi": 79,
        "time": 16.8,
        "duration": 0.3,
        "velocity": 0.63,
        "hand": "right"
      },
      {
        "midi": 50,
        "time": 17.1,
        "duration": 0.3,
        "velocity": 0.63,
        "hand": "left"
      },
      {
        "midi": 65,
        "time": 17.1,
        "duration": 0.3,
        "velocity": 0.63,
        "hand": "right"
      },
      {
        "midi": 79,
        "time": 17.1,
        "duration": 0.3,
        "velocity": 0.63,
        "hand": "right"
      },
      {
        "midi": 50,
        "time": 17.4,
        "duration": 0.15,
        "velocity": 0.63,
        "hand": "left"
      },
      {
        "midi": 67,
        "time": 17.4,
        "duration": 0.15,
        "velocity": 0.63,
        "hand": "right"
      },
      {
        "midi": 83,
        "time": 17.4,
        "duration": 0.15,
        "velocity": 0.63,
        "hand": "right"
      },
      {
        "midi": 50,
        "time": 17.55,
        "duration": 0.3,
        "velocity": 0.63,
        "hand": "left"
      },
      {
        "midi": 67,
        "time": 17.55,
        "duration": 0.3,
        "velocity": 0.63,
        "hand": "right"
      },
      {
        "midi": 83,
        "time": 17.55,
        "duration": 0.3,
        "velocity": 0.63,
        "hand": "right"
      },
      {
        "midi": 55,
        "time": 17.85,
        "duration": 0.15,
        "velocity": 0.63,
        "hand": "left"
      },
      {
        "midi": 71,
        "time": 17.85,
        "duration": 0.15,
        "velocity": 0.63,
        "hand": "right"
      },
      {
        "midi": 79,
        "time": 17.85,
        "duration": 0.15,
        "velocity": 0.63,
        "hand": "right"
      },
      {
        "midi": 53,
        "time": 18,
        "duration": 0.3,
        "velocity": 0.63,
        "hand": "left"
      },
      {
        "midi": 69,
        "time": 18,
        "duration": 0.3,
        "velocity": 0.63,
        "hand": "right"
      },
      {
        "midi": 77,
        "time": 18,
        "duration": 0.3,
        "velocity": 0.63,
        "hand": "right"
      },
      {
        "midi": 50,
        "time": 18.3,
        "duration": 0.3,
        "velocity": 0.63,
        "hand": "left"
      },
      {
        "midi": 65,
        "time": 18.3,
        "duration": 0.3,
        "velocity": 0.63,
        "hand": "right"
      },
      {
        "midi": 74,
        "time": 18.3,
        "duration": 0.3,
        "velocity": 0.63,
        "hand": "right"
      },
      {
        "midi": 48,
        "time": 18.6,
        "duration": 0.6,
        "velocity": 0.63,
        "hand": "left"
      },
      {
        "midi": 64,
        "time": 18.6,
        "duration": 0.6,
        "velocity": 0.63,
        "hand": "right"
      },
      {
        "midi": 72,
        "time": 18.6,
        "duration": 0.6,
        "velocity": 0.63,
        "hand": "right"
      },
      {
        "midi": 48,
        "time": 19.8,
        "duration": 0.3,
        "velocity": 0.63,
        "hand": "left"
      },
      {
        "midi": 64,
        "time": 19.8,
        "duration": 0.3,
        "velocity": 0.63,
        "hand": "right"
      },
      {
        "midi": 79,
        "time": 19.8,
        "duration": 0.3,
        "velocity": 0.63,
        "hand": "right"
      },
      {
        "midi": 48,
        "time": 20.1,
        "duration": 0.3,
        "velocity": 0.63,
        "hand": "left"
      },
      {
        "midi": 64,
        "time": 20.1,
        "duration": 0.3,
        "velocity": 0.63,
        "hand": "right"
      },
      {
        "midi": 79,
        "time": 20.1,
        "duration": 0.3,
        "velocity": 0.63,
        "hand": "right"
      },
      {
        "midi": 50,
        "time": 20.4,
        "duration": 0.6,
        "velocity": 0.63,
        "hand": "left"
      },
      {
        "midi": 65,
        "time": 20.4,
        "duration": 0.6,
        "velocity": 0.63,
        "hand": "right"
      },
      {
        "midi": 79,
        "time": 20.4,
        "duration": 0.6,
        "velocity": 0.63,
        "hand": "right"
      },
      {
        "midi": 52,
        "time": 21,
        "duration": 0.3,
        "velocity": 0.63,
        "hand": "left"
      },
      {
        "midi": 64,
        "time": 21,
        "duration": 0.3,
        "velocity": 0.63,
        "hand": "right"
      },
      {
        "midi": 79,
        "time": 21,
        "duration": 0.3,
        "velocity": 0.63,
        "hand": "right"
      },
      {
        "midi": 53,
        "time": 21.3,
        "duration": 0.3,
        "velocity": 0.63,
        "hand": "left"
      },
      {
        "midi": 62,
        "time": 21.3,
        "duration": 0.3,
        "velocity": 0.63,
        "hand": "right"
      },
      {
        "midi": 77,
        "time": 21.3,
        "duration": 0.3,
        "velocity": 0.63,
        "hand": "right"
      },
      {
        "midi": 55,
        "time": 21.6,
        "duration": 0.6,
        "velocity": 0.63,
        "hand": "left"
      },
      {
        "midi": 60,
        "time": 21.6,
        "duration": 0.6,
        "velocity": 0.63,
        "hand": "right"
      },
      {
        "midi": 76,
        "time": 21.6,
        "duration": 0.6,
        "velocity": 0.63,
        "hand": "right"
      },
      {
        "midi": 48,
        "time": 22.2,
        "duration": 0.3,
        "velocity": 0.63,
        "hand": "left"
      },
      {
        "midi": 64,
        "time": 22.2,
        "duration": 0.3,
        "velocity": 0.63,
        "hand": "right"
      },
      {
        "midi": 79,
        "time": 22.2,
        "duration": 0.3,
        "velocity": 0.63,
        "hand": "right"
      },
      {
        "midi": 48,
        "time": 22.5,
        "duration": 0.3,
        "velocity": 0.63,
        "hand": "left"
      },
      {
        "midi": 64,
        "time": 22.5,
        "duration": 0.3,
        "velocity": 0.63,
        "hand": "right"
      },
      {
        "midi": 79,
        "time": 22.5,
        "duration": 0.3,
        "velocity": 0.63,
        "hand": "right"
      },
      {
        "midi": 55,
        "time": 22.8,
        "duration": 0.3,
        "velocity": 0.63,
        "hand": "left"
      },
      {
        "midi": 64,
        "time": 22.8,
        "duration": 0.3,
        "velocity": 0.63,
        "hand": "right"
      },
      {
        "midi": 84,
        "time": 22.8,
        "duration": 0.3,
        "velocity": 0.63,
        "hand": "right"
      },
      {
        "midi": 55,
        "time": 23.1,
        "duration": 0.3,
        "velocity": 0.63,
        "hand": "left"
      },
      {
        "midi": 64,
        "time": 23.1,
        "duration": 0.3,
        "velocity": 0.63,
        "hand": "right"
      },
      {
        "midi": 84,
        "time": 23.1,
        "duration": 0.3,
        "velocity": 0.63,
        "hand": "right"
      },
      {
        "midi": 55,
        "time": 23.4,
        "duration": 0.3,
        "velocity": 0.63,
        "hand": "left"
      },
      {
        "midi": 64,
        "time": 23.4,
        "duration": 0.3,
        "velocity": 0.63,
        "hand": "right"
      },
      {
        "midi": 84,
        "time": 23.4,
        "duration": 0.3,
        "velocity": 0.63,
        "hand": "right"
      },
      {
        "midi": 55,
        "time": 23.7,
        "duration": 0.3,
        "velocity": 0.63,
        "hand": "left"
      },
      {
        "midi": 64,
        "time": 23.7,
        "duration": 0.3,
        "velocity": 0.63,
        "hand": "right"
      },
      {
        "midi": 83,
        "time": 23.7,
        "duration": 0.3,
        "velocity": 0.63,
        "hand": "right"
      },
      {
        "midi": 53,
        "time": 24,
        "duration": 0.6,
        "velocity": 0.63,
        "hand": "left"
      },
      {
        "midi": 65,
        "time": 24,
        "duration": 0.6,
        "velocity": 0.63,
        "hand": "right"
      },
      {
        "midi": 81,
        "time": 24,
        "duration": 0.6,
        "velocity": 0.63,
        "hand": "right"
      },
      {
        "midi": 48,
        "time": 24.6,
        "duration": 0.3,
        "velocity": 0.63,
        "hand": "left"
      },
      {
        "midi": 65,
        "time": 24.6,
        "duration": 0.3,
        "velocity": 0.63,
        "hand": "right"
      },
      {
        "midi": 81,
        "time": 24.6,
        "duration": 0.3,
        "velocity": 0.63,
        "hand": "right"
      },
      {
        "midi": 48,
        "time": 24.9,
        "duration": 0.3,
        "velocity": 0.63,
        "hand": "left"
      },
      {
        "midi": 65,
        "time": 24.9,
        "duration": 0.3,
        "velocity": 0.63,
        "hand": "right"
      },
      {
        "midi": 81,
        "time": 24.9,
        "duration": 0.3,
        "velocity": 0.63,
        "hand": "right"
      },
      {
        "midi": 57,
        "time": 25.2,
        "duration": 0.3,
        "velocity": 0.63,
        "hand": "left"
      },
      {
        "midi": 77,
        "time": 25.2,
        "duration": 0.3,
        "velocity": 0.63,
        "hand": "right"
      },
      {
        "midi": 86,
        "time": 25.2,
        "duration": 0.3,
        "velocity": 0.63,
        "hand": "right"
      },
      {
        "midi": 57,
        "time": 25.5,
        "duration": 0.3,
        "velocity": 0.63,
        "hand": "left"
      },
      {
        "midi": 77,
        "time": 25.5,
        "duration": 0.3,
        "velocity": 0.63,
        "hand": "right"
      },
      {
        "midi": 86,
        "time": 25.5,
        "duration": 0.3,
        "velocity": 0.63,
        "hand": "right"
      },
      {
        "midi": 57,
        "time": 25.8,
        "duration": 0.3,
        "velocity": 0.63,
        "hand": "left"
      },
      {
        "midi": 77,
        "time": 25.8,
        "duration": 0.3,
        "velocity": 0.63,
        "hand": "right"
      },
      {
        "midi": 86,
        "time": 25.8,
        "duration": 0.3,
        "velocity": 0.63,
        "hand": "right"
      },
      {
        "midi": 55,
        "time": 26.1,
        "duration": 0.3,
        "velocity": 0.63,
        "hand": "left"
      },
      {
        "midi": 76,
        "time": 26.1,
        "duration": 0.3,
        "velocity": 0.63,
        "hand": "right"
      },
      {
        "midi": 84,
        "time": 26.1,
        "duration": 0.3,
        "velocity": 0.63,
        "hand": "right"
      },
      {
        "midi": 53,
        "time": 26.4,
        "duration": 0.3,
        "velocity": 0.63,
        "hand": "left"
      },
      {
        "midi": 74,
        "time": 26.4,
        "duration": 0.3,
        "velocity": 0.63,
        "hand": "right"
      },
      {
        "midi": 83,
        "time": 26.4,
        "duration": 0.3,
        "velocity": 0.63,
        "hand": "right"
      },
      {
        "midi": 53,
        "time": 26.7,
        "duration": 0.3,
        "velocity": 0.63,
        "hand": "left"
      },
      {
        "midi": 74,
        "time": 26.7,
        "duration": 0.3,
        "velocity": 0.63,
        "hand": "right"
      },
      {
        "midi": 83,
        "time": 26.7,
        "duration": 0.3,
        "velocity": 0.63,
        "hand": "right"
      },
      {
        "midi": 53,
        "time": 27,
        "duration": 0.3,
        "velocity": 0.63,
        "hand": "left"
      },
      {
        "midi": 74,
        "time": 27,
        "duration": 0.3,
        "velocity": 0.63,
        "hand": "right"
      },
      {
        "midi": 83,
        "time": 27,
        "duration": 0.3,
        "velocity": 0.63,
        "hand": "right"
      },
      {
        "midi": 52,
        "time": 27.3,
        "duration": 0.3,
        "velocity": 0.63,
        "hand": "left"
      },
      {
        "midi": 72,
        "time": 27.3,
        "duration": 0.3,
        "velocity": 0.63,
        "hand": "right"
      },
      {
        "midi": 81,
        "time": 27.3,
        "duration": 0.3,
        "velocity": 0.63,
        "hand": "right"
      },
      {
        "midi": 50,
        "time": 27.6,
        "duration": 0.6,
        "velocity": 0.63,
        "hand": "left"
      },
      {
        "midi": 71,
        "time": 27.6,
        "duration": 0.6,
        "velocity": 0.63,
        "hand": "right"
      },
      {
        "midi": 79,
        "time": 27.6,
        "duration": 0.6,
        "velocity": 0.63,
        "hand": "right"
      },
      {
        "midi": 52,
        "time": 28.2,
        "duration": 0.3,
        "velocity": 0.63,
        "hand": "left"
      },
      {
        "midi": 72,
        "time": 28.2,
        "duration": 0.3,
        "velocity": 0.63,
        "hand": "right"
      },
      {
        "midi": 81,
        "time": 28.2,
        "duration": 0.3,
        "velocity": 0.63,
        "hand": "right"
      },
      {
        "midi": 53,
        "time": 28.5,
        "duration": 0.3,
        "velocity": 0.63,
        "hand": "left"
      },
      {
        "midi": 74,
        "time": 28.5,
        "duration": 0.3,
        "velocity": 0.63,
        "hand": "right"
      },
      {
        "midi": 83,
        "time": 28.5,
        "duration": 0.3,
        "velocity": 0.63,
        "hand": "right"
      },
      {
        "midi": 55,
        "time": 28.8,
        "duration": 0.45,
        "velocity": 0.63,
        "hand": "left"
      },
      {
        "midi": 76,
        "time": 28.8,
        "duration": 0.45,
        "velocity": 0.63,
        "hand": "right"
      },
      {
        "midi": 84,
        "time": 28.8,
        "duration": 0.45,
        "velocity": 0.63,
        "hand": "right"
      },
      {
        "midi": 48,
        "time": 29.25,
        "duration": 0.15,
        "velocity": 0.63,
        "hand": "left"
      },
      {
        "midi": 64,
        "time": 29.25,
        "duration": 0.15,
        "velocity": 0.63,
        "hand": "right"
      },
      {
        "midi": 79,
        "time": 29.25,
        "duration": 0.15,
        "velocity": 0.63,
        "hand": "right"
      },
      {
        "midi": 48,
        "time": 29.4,
        "duration": 0.3,
        "velocity": 0.63,
        "hand": "left"
      },
      {
        "midi": 64,
        "time": 29.4,
        "duration": 0.3,
        "velocity": 0.63,
        "hand": "right"
      },
      {
        "midi": 79,
        "time": 29.4,
        "duration": 0.3,
        "velocity": 0.63,
        "hand": "right"
      },
      {
        "midi": 48,
        "time": 29.7,
        "duration": 0.3,
        "velocity": 0.63,
        "hand": "left"
      },
      {
        "midi": 64,
        "time": 29.7,
        "duration": 0.3,
        "velocity": 0.63,
        "hand": "right"
      },
      {
        "midi": 79,
        "time": 29.7,
        "duration": 0.3,
        "velocity": 0.63,
        "hand": "right"
      },
      {
        "midi": 48,
        "time": 30,
        "duration": 0.45,
        "velocity": 0.63,
        "hand": "left"
      },
      {
        "midi": 64,
        "time": 30,
        "duration": 0.45,
        "velocity": 0.63,
        "hand": "right"
      },
      {
        "midi": 84,
        "time": 30,
        "duration": 0.45,
        "velocity": 0.63,
        "hand": "right"
      },
      {
        "midi": 55,
        "time": 30.45,
        "duration": 0.15,
        "velocity": 0.63,
        "hand": "left"
      },
      {
        "midi": 67,
        "time": 30.45,
        "duration": 0.15,
        "velocity": 0.63,
        "hand": "right"
      },
      {
        "midi": 79,
        "time": 30.45,
        "duration": 0.15,
        "velocity": 0.63,
        "hand": "right"
      },
      {
        "midi": 53,
        "time": 30.6,
        "duration": 0.3,
        "velocity": 0.63,
        "hand": "left"
      },
      {
        "midi": 65,
        "time": 30.6,
        "duration": 0.3,
        "velocity": 0.63,
        "hand": "right"
      },
      {
        "midi": 77,
        "time": 30.6,
        "duration": 0.3,
        "velocity": 0.63,
        "hand": "right"
      },
      {
        "midi": 52,
        "time": 30.9,
        "duration": 0.3,
        "velocity": 0.63,
        "hand": "left"
      },
      {
        "midi": 64,
        "time": 30.9,
        "duration": 0.3,
        "velocity": 0.63,
        "hand": "right"
      },
      {
        "midi": 76,
        "time": 30.9,
        "duration": 0.3,
        "velocity": 0.63,
        "hand": "right"
      },
      {
        "midi": 50,
        "time": 31.2,
        "duration": 0.3,
        "velocity": 0.63,
        "hand": "left"
      },
      {
        "midi": 62,
        "time": 31.2,
        "duration": 0.3,
        "velocity": 0.63,
        "hand": "right"
      },
      {
        "midi": 74,
        "time": 31.2,
        "duration": 0.3,
        "velocity": 0.63,
        "hand": "right"
      },
      {
        "midi": 50,
        "time": 31.65,
        "duration": 0.15,
        "velocity": 0.63,
        "hand": "left"
      },
      {
        "midi": 65,
        "time": 31.65,
        "duration": 0.15,
        "velocity": 0.63,
        "hand": "right"
      },
      {
        "midi": 79,
        "time": 31.65,
        "duration": 0.15,
        "velocity": 0.63,
        "hand": "right"
      },
      {
        "midi": 50,
        "time": 31.8,
        "duration": 0.3,
        "velocity": 0.63,
        "hand": "left"
      },
      {
        "midi": 65,
        "time": 31.8,
        "duration": 0.3,
        "velocity": 0.63,
        "hand": "right"
      },
      {
        "midi": 79,
        "time": 31.8,
        "duration": 0.3,
        "velocity": 0.63,
        "hand": "right"
      },
      {
        "midi": 50,
        "time": 32.1,
        "duration": 0.3,
        "velocity": 0.63,
        "hand": "left"
      },
      {
        "midi": 65,
        "time": 32.1,
        "duration": 0.3,
        "velocity": 0.63,
        "hand": "right"
      },
      {
        "midi": 79,
        "time": 32.1,
        "duration": 0.3,
        "velocity": 0.63,
        "hand": "right"
      },
      {
        "midi": 50,
        "time": 32.4,
        "duration": 0.15,
        "velocity": 0.63,
        "hand": "left"
      },
      {
        "midi": 67,
        "time": 32.4,
        "duration": 0.15,
        "velocity": 0.63,
        "hand": "right"
      },
      {
        "midi": 83,
        "time": 32.4,
        "duration": 0.15,
        "velocity": 0.63,
        "hand": "right"
      },
      {
        "midi": 50,
        "time": 32.55,
        "duration": 0.3,
        "velocity": 0.63,
        "hand": "left"
      },
      {
        "midi": 67,
        "time": 32.55,
        "duration": 0.3,
        "velocity": 0.63,
        "hand": "right"
      },
      {
        "midi": 83,
        "time": 32.55,
        "duration": 0.3,
        "velocity": 0.63,
        "hand": "right"
      },
      {
        "midi": 55,
        "time": 32.85,
        "duration": 0.15,
        "velocity": 0.63,
        "hand": "left"
      },
      {
        "midi": 71,
        "time": 32.85,
        "duration": 0.15,
        "velocity": 0.63,
        "hand": "right"
      },
      {
        "midi": 79,
        "time": 32.85,
        "duration": 0.15,
        "velocity": 0.63,
        "hand": "right"
      },
      {
        "midi": 53,
        "time": 33,
        "duration": 0.3,
        "velocity": 0.63,
        "hand": "left"
      },
      {
        "midi": 69,
        "time": 33,
        "duration": 0.3,
        "velocity": 0.63,
        "hand": "right"
      },
      {
        "midi": 77,
        "time": 33,
        "duration": 0.3,
        "velocity": 0.63,
        "hand": "right"
      },
      {
        "midi": 50,
        "time": 33.3,
        "duration": 0.3,
        "velocity": 0.63,
        "hand": "left"
      },
      {
        "midi": 65,
        "time": 33.3,
        "duration": 0.3,
        "velocity": 0.63,
        "hand": "right"
      },
      {
        "midi": 74,
        "time": 33.3,
        "duration": 0.3,
        "velocity": 0.63,
        "hand": "right"
      },
      {
        "midi": 48,
        "time": 33.6,
        "duration": 0.3,
        "velocity": 0.63,
        "hand": "left"
      },
      {
        "midi": 64,
        "time": 33.6,
        "duration": 0.3,
        "velocity": 0.63,
        "hand": "right"
      },
      {
        "midi": 72,
        "time": 33.6,
        "duration": 0.3,
        "velocity": 0.63,
        "hand": "right"
      },
      {
        "midi": 48,
        "time": 34.05,
        "duration": 0.15,
        "velocity": 0.63,
        "hand": "left"
      },
      {
        "midi": 64,
        "time": 34.05,
        "duration": 0.15,
        "velocity": 0.63,
        "hand": "right"
      },
      {
        "midi": 79,
        "time": 34.05,
        "duration": 0.15,
        "velocity": 0.63,
        "hand": "right"
      },
      {
        "midi": 48,
        "time": 34.2,
        "duration": 0.3,
        "velocity": 0.63,
        "hand": "left"
      },
      {
        "midi": 64,
        "time": 34.2,
        "duration": 0.3,
        "velocity": 0.63,
        "hand": "right"
      },
      {
        "midi": 79,
        "time": 34.2,
        "duration": 0.3,
        "velocity": 0.63,
        "hand": "right"
      },
      {
        "midi": 48,
        "time": 34.5,
        "duration": 0.3,
        "velocity": 0.63,
        "hand": "left"
      },
      {
        "midi": 64,
        "time": 34.5,
        "duration": 0.3,
        "velocity": 0.63,
        "hand": "right"
      },
      {
        "midi": 79,
        "time": 34.5,
        "duration": 0.3,
        "velocity": 0.63,
        "hand": "right"
      },
      {
        "midi": 48,
        "time": 34.8,
        "duration": 0.45,
        "velocity": 0.63,
        "hand": "left"
      },
      {
        "midi": 64,
        "time": 34.8,
        "duration": 0.45,
        "velocity": 0.63,
        "hand": "right"
      },
      {
        "midi": 84,
        "time": 34.8,
        "duration": 0.45,
        "velocity": 0.63,
        "hand": "right"
      },
      {
        "midi": 55,
        "time": 35.25,
        "duration": 0.15,
        "velocity": 0.63,
        "hand": "left"
      },
      {
        "midi": 67,
        "time": 35.25,
        "duration": 0.15,
        "velocity": 0.63,
        "hand": "right"
      },
      {
        "midi": 79,
        "time": 35.25,
        "duration": 0.15,
        "velocity": 0.63,
        "hand": "right"
      },
      {
        "midi": 53,
        "time": 35.4,
        "duration": 0.3,
        "velocity": 0.63,
        "hand": "left"
      },
      {
        "midi": 65,
        "time": 35.4,
        "duration": 0.3,
        "velocity": 0.63,
        "hand": "right"
      },
      {
        "midi": 77,
        "time": 35.4,
        "duration": 0.3,
        "velocity": 0.63,
        "hand": "right"
      },
      {
        "midi": 52,
        "time": 35.7,
        "duration": 0.3,
        "velocity": 0.63,
        "hand": "left"
      },
      {
        "midi": 64,
        "time": 35.7,
        "duration": 0.3,
        "velocity": 0.63,
        "hand": "right"
      },
      {
        "midi": 76,
        "time": 35.7,
        "duration": 0.3,
        "velocity": 0.63,
        "hand": "right"
      },
      {
        "midi": 50,
        "time": 36,
        "duration": 0.3,
        "velocity": 0.63,
        "hand": "left"
      },
      {
        "midi": 62,
        "time": 36,
        "duration": 0.3,
        "velocity": 0.63,
        "hand": "right"
      },
      {
        "midi": 74,
        "time": 36,
        "duration": 0.3,
        "velocity": 0.63,
        "hand": "right"
      },
      {
        "midi": 50,
        "time": 36.45,
        "duration": 0.15,
        "velocity": 0.63,
        "hand": "left"
      },
      {
        "midi": 65,
        "time": 36.45,
        "duration": 0.15,
        "velocity": 0.63,
        "hand": "right"
      },
      {
        "midi": 79,
        "time": 36.45,
        "duration": 0.15,
        "velocity": 0.63,
        "hand": "right"
      },
      {
        "midi": 50,
        "time": 36.6,
        "duration": 0.3,
        "velocity": 0.63,
        "hand": "left"
      },
      {
        "midi": 65,
        "time": 36.6,
        "duration": 0.3,
        "velocity": 0.63,
        "hand": "right"
      },
      {
        "midi": 79,
        "time": 36.6,
        "duration": 0.3,
        "velocity": 0.63,
        "hand": "right"
      },
      {
        "midi": 50,
        "time": 36.9,
        "duration": 0.3,
        "velocity": 0.63,
        "hand": "left"
      },
      {
        "midi": 65,
        "time": 36.9,
        "duration": 0.3,
        "velocity": 0.63,
        "hand": "right"
      },
      {
        "midi": 79,
        "time": 36.9,
        "duration": 0.3,
        "velocity": 0.63,
        "hand": "right"
      },
      {
        "midi": 50,
        "time": 37.2,
        "duration": 0.15,
        "velocity": 0.63,
        "hand": "left"
      },
      {
        "midi": 67,
        "time": 37.2,
        "duration": 0.15,
        "velocity": 0.63,
        "hand": "right"
      },
      {
        "midi": 83,
        "time": 37.2,
        "duration": 0.15,
        "velocity": 0.63,
        "hand": "right"
      },
      {
        "midi": 50,
        "time": 37.35,
        "duration": 0.3,
        "velocity": 0.63,
        "hand": "left"
      },
      {
        "midi": 67,
        "time": 37.35,
        "duration": 0.3,
        "velocity": 0.63,
        "hand": "right"
      },
      {
        "midi": 83,
        "time": 37.35,
        "duration": 0.3,
        "velocity": 0.63,
        "hand": "right"
      },
      {
        "midi": 55,
        "time": 37.65,
        "duration": 0.15,
        "velocity": 0.63,
        "hand": "left"
      },
      {
        "midi": 71,
        "time": 37.65,
        "duration": 0.15,
        "velocity": 0.63,
        "hand": "right"
      },
      {
        "midi": 79,
        "time": 37.65,
        "duration": 0.15,
        "velocity": 0.63,
        "hand": "right"
      },
      {
        "midi": 53,
        "time": 37.8,
        "duration": 0.3,
        "velocity": 0.63,
        "hand": "left"
      },
      {
        "midi": 69,
        "time": 37.8,
        "duration": 0.3,
        "velocity": 0.63,
        "hand": "right"
      },
      {
        "midi": 77,
        "time": 37.8,
        "duration": 0.3,
        "velocity": 0.63,
        "hand": "right"
      },
      {
        "midi": 50,
        "time": 38.1,
        "duration": 0.3,
        "velocity": 0.63,
        "hand": "left"
      },
      {
        "midi": 65,
        "time": 38.1,
        "duration": 0.3,
        "velocity": 0.63,
        "hand": "right"
      },
      {
        "midi": 74,
        "time": 38.1,
        "duration": 0.3,
        "velocity": 0.63,
        "hand": "right"
      },
      {
        "midi": 48,
        "time": 38.4,
        "duration": 0.6,
        "velocity": 0.63,
        "hand": "left"
      },
      {
        "midi": 64,
        "time": 38.4,
        "duration": 0.6,
        "velocity": 0.63,
        "hand": "right"
      },
      {
        "midi": 72,
        "time": 38.4,
        "duration": 0.6,
        "velocity": 0.63,
        "hand": "right"
      }
    ]
  },
  "notes1Hand": [
    {
      "midi": 79,
      "time": 0,
      "duration": 0.3,
      "velocity": 0.63,
      "hand": "right"
    },
    {
      "midi": 79,
      "time": 0.3,
      "duration": 0.3,
      "velocity": 0.63,
      "hand": "right"
    },
    {
      "midi": 79,
      "time": 0.6,
      "duration": 0.6,
      "velocity": 0.63,
      "hand": "right"
    },
    {
      "midi": 79,
      "time": 1.2,
      "duration": 0.3,
      "velocity": 0.63,
      "hand": "right"
    },
    {
      "midi": 77,
      "time": 1.5,
      "duration": 0.3,
      "velocity": 0.63,
      "hand": "right"
    },
    {
      "midi": 76,
      "time": 1.8,
      "duration": 0.6,
      "velocity": 0.63,
      "hand": "right"
    },
    {
      "midi": 79,
      "time": 2.4,
      "duration": 0.3,
      "velocity": 0.63,
      "hand": "right"
    },
    {
      "midi": 79,
      "time": 2.7,
      "duration": 0.3,
      "velocity": 0.63,
      "hand": "right"
    },
    {
      "midi": 84,
      "time": 3,
      "duration": 0.3,
      "velocity": 0.63,
      "hand": "right"
    },
    {
      "midi": 84,
      "time": 3.3,
      "duration": 0.3,
      "velocity": 0.63,
      "hand": "right"
    },
    {
      "midi": 84,
      "time": 3.6,
      "duration": 0.3,
      "velocity": 0.63,
      "hand": "right"
    },
    {
      "midi": 83,
      "time": 3.9,
      "duration": 0.3,
      "velocity": 0.63,
      "hand": "right"
    },
    {
      "midi": 81,
      "time": 4.2,
      "duration": 0.6,
      "velocity": 0.63,
      "hand": "right"
    },
    {
      "midi": 81,
      "time": 4.8,
      "duration": 0.3,
      "velocity": 0.63,
      "hand": "right"
    },
    {
      "midi": 81,
      "time": 5.1,
      "duration": 0.3,
      "velocity": 0.63,
      "hand": "right"
    },
    {
      "midi": 86,
      "time": 5.4,
      "duration": 0.3,
      "velocity": 0.63,
      "hand": "right"
    },
    {
      "midi": 86,
      "time": 5.7,
      "duration": 0.3,
      "velocity": 0.63,
      "hand": "right"
    },
    {
      "midi": 86,
      "time": 6,
      "duration": 0.3,
      "velocity": 0.63,
      "hand": "right"
    },
    {
      "midi": 84,
      "time": 6.3,
      "duration": 0.3,
      "velocity": 0.63,
      "hand": "right"
    },
    {
      "midi": 83,
      "time": 6.6,
      "duration": 0.3,
      "velocity": 0.63,
      "hand": "right"
    },
    {
      "midi": 83,
      "time": 6.9,
      "duration": 0.3,
      "velocity": 0.63,
      "hand": "right"
    },
    {
      "midi": 83,
      "time": 7.2,
      "duration": 0.3,
      "velocity": 0.63,
      "hand": "right"
    },
    {
      "midi": 81,
      "time": 7.5,
      "duration": 0.3,
      "velocity": 0.63,
      "hand": "right"
    },
    {
      "midi": 79,
      "time": 7.8,
      "duration": 0.6,
      "velocity": 0.63,
      "hand": "right"
    },
    {
      "midi": 81,
      "time": 8.4,
      "duration": 0.3,
      "velocity": 0.63,
      "hand": "right"
    },
    {
      "midi": 83,
      "time": 8.7,
      "duration": 0.3,
      "velocity": 0.63,
      "hand": "right"
    },
    {
      "midi": 84,
      "time": 9,
      "duration": 0.45,
      "velocity": 0.63,
      "hand": "right"
    },
    {
      "midi": 79,
      "time": 9.45,
      "duration": 0.2,
      "velocity": 0.63,
      "hand": "right"
    },
    {
      "midi": 79,
      "time": 9.6,
      "duration": 0.3,
      "velocity": 0.63,
      "hand": "right"
    },
    {
      "midi": 79,
      "time": 9.9,
      "duration": 0.3,
      "velocity": 0.63,
      "hand": "right"
    },
    {
      "midi": 84,
      "time": 10.2,
      "duration": 0.45,
      "velocity": 0.63,
      "hand": "right"
    },
    {
      "midi": 79,
      "time": 10.65,
      "duration": 0.2,
      "velocity": 0.63,
      "hand": "right"
    },
    {
      "midi": 77,
      "time": 10.8,
      "duration": 0.3,
      "velocity": 0.63,
      "hand": "right"
    },
    {
      "midi": 76,
      "time": 11.1,
      "duration": 0.3,
      "velocity": 0.63,
      "hand": "right"
    },
    {
      "midi": 74,
      "time": 11.4,
      "duration": 0.3,
      "velocity": 0.63,
      "hand": "right"
    },
    {
      "midi": 79,
      "time": 11.85,
      "duration": 0.2,
      "velocity": 0.63,
      "hand": "right"
    },
    {
      "midi": 79,
      "time": 12,
      "duration": 0.3,
      "velocity": 0.63,
      "hand": "right"
    },
    {
      "midi": 79,
      "time": 12.3,
      "duration": 0.3,
      "velocity": 0.63,
      "hand": "right"
    },
    {
      "midi": 83,
      "time": 12.6,
      "duration": 0.2,
      "velocity": 0.63,
      "hand": "right"
    },
    {
      "midi": 83,
      "time": 12.75,
      "duration": 0.3,
      "velocity": 0.63,
      "hand": "right"
    },
    {
      "midi": 79,
      "time": 13.05,
      "duration": 0.2,
      "velocity": 0.63,
      "hand": "right"
    },
    {
      "midi": 77,
      "time": 13.2,
      "duration": 0.3,
      "velocity": 0.63,
      "hand": "right"
    },
    {
      "midi": 74,
      "time": 13.5,
      "duration": 0.3,
      "velocity": 0.63,
      "hand": "right"
    },
    {
      "midi": 72,
      "time": 13.8,
      "duration": 0.3,
      "velocity": 0.63,
      "hand": "right"
    },
    {
      "midi": 79,
      "time": 14.25,
      "duration": 0.2,
      "velocity": 0.63,
      "hand": "right"
    },
    {
      "midi": 79,
      "time": 14.4,
      "duration": 0.3,
      "velocity": 0.63,
      "hand": "right"
    },
    {
      "midi": 79,
      "time": 14.7,
      "duration": 0.3,
      "velocity": 0.63,
      "hand": "right"
    },
    {
      "midi": 84,
      "time": 15,
      "duration": 0.45,
      "velocity": 0.63,
      "hand": "right"
    },
    {
      "midi": 79,
      "time": 15.45,
      "duration": 0.2,
      "velocity": 0.63,
      "hand": "right"
    },
    {
      "midi": 77,
      "time": 15.6,
      "duration": 0.3,
      "velocity": 0.63,
      "hand": "right"
    },
    {
      "midi": 76,
      "time": 15.9,
      "duration": 0.3,
      "velocity": 0.63,
      "hand": "right"
    },
    {
      "midi": 74,
      "time": 16.2,
      "duration": 0.3,
      "velocity": 0.63,
      "hand": "right"
    },
    {
      "midi": 79,
      "time": 16.65,
      "duration": 0.2,
      "velocity": 0.63,
      "hand": "right"
    },
    {
      "midi": 79,
      "time": 16.8,
      "duration": 0.3,
      "velocity": 0.63,
      "hand": "right"
    },
    {
      "midi": 79,
      "time": 17.1,
      "duration": 0.3,
      "velocity": 0.63,
      "hand": "right"
    },
    {
      "midi": 83,
      "time": 17.4,
      "duration": 0.2,
      "velocity": 0.63,
      "hand": "right"
    },
    {
      "midi": 83,
      "time": 17.55,
      "duration": 0.3,
      "velocity": 0.63,
      "hand": "right"
    },
    {
      "midi": 79,
      "time": 17.85,
      "duration": 0.2,
      "velocity": 0.63,
      "hand": "right"
    },
    {
      "midi": 77,
      "time": 18,
      "duration": 0.3,
      "velocity": 0.63,
      "hand": "right"
    },
    {
      "midi": 74,
      "time": 18.3,
      "duration": 0.3,
      "velocity": 0.63,
      "hand": "right"
    },
    {
      "midi": 72,
      "time": 18.6,
      "duration": 0.6,
      "velocity": 0.63,
      "hand": "right"
    },
    {
      "midi": 79,
      "time": 19.8,
      "duration": 0.3,
      "velocity": 0.63,
      "hand": "right"
    },
    {
      "midi": 79,
      "time": 20.1,
      "duration": 0.3,
      "velocity": 0.63,
      "hand": "right"
    },
    {
      "midi": 79,
      "time": 20.4,
      "duration": 0.6,
      "velocity": 0.63,
      "hand": "right"
    },
    {
      "midi": 79,
      "time": 21,
      "duration": 0.3,
      "velocity": 0.63,
      "hand": "right"
    },
    {
      "midi": 77,
      "time": 21.3,
      "duration": 0.3,
      "velocity": 0.63,
      "hand": "right"
    },
    {
      "midi": 76,
      "time": 21.6,
      "duration": 0.6,
      "velocity": 0.63,
      "hand": "right"
    },
    {
      "midi": 79,
      "time": 22.2,
      "duration": 0.3,
      "velocity": 0.63,
      "hand": "right"
    },
    {
      "midi": 79,
      "time": 22.5,
      "duration": 0.3,
      "velocity": 0.63,
      "hand": "right"
    },
    {
      "midi": 84,
      "time": 22.8,
      "duration": 0.3,
      "velocity": 0.63,
      "hand": "right"
    },
    {
      "midi": 84,
      "time": 23.1,
      "duration": 0.3,
      "velocity": 0.63,
      "hand": "right"
    },
    {
      "midi": 84,
      "time": 23.4,
      "duration": 0.3,
      "velocity": 0.63,
      "hand": "right"
    },
    {
      "midi": 83,
      "time": 23.7,
      "duration": 0.3,
      "velocity": 0.63,
      "hand": "right"
    },
    {
      "midi": 81,
      "time": 24,
      "duration": 0.6,
      "velocity": 0.63,
      "hand": "right"
    },
    {
      "midi": 81,
      "time": 24.6,
      "duration": 0.3,
      "velocity": 0.63,
      "hand": "right"
    },
    {
      "midi": 81,
      "time": 24.9,
      "duration": 0.3,
      "velocity": 0.63,
      "hand": "right"
    },
    {
      "midi": 86,
      "time": 25.2,
      "duration": 0.3,
      "velocity": 0.63,
      "hand": "right"
    },
    {
      "midi": 86,
      "time": 25.5,
      "duration": 0.3,
      "velocity": 0.63,
      "hand": "right"
    },
    {
      "midi": 86,
      "time": 25.8,
      "duration": 0.3,
      "velocity": 0.63,
      "hand": "right"
    },
    {
      "midi": 84,
      "time": 26.1,
      "duration": 0.3,
      "velocity": 0.63,
      "hand": "right"
    },
    {
      "midi": 83,
      "time": 26.4,
      "duration": 0.3,
      "velocity": 0.63,
      "hand": "right"
    },
    {
      "midi": 83,
      "time": 26.7,
      "duration": 0.3,
      "velocity": 0.63,
      "hand": "right"
    },
    {
      "midi": 83,
      "time": 27,
      "duration": 0.3,
      "velocity": 0.63,
      "hand": "right"
    },
    {
      "midi": 81,
      "time": 27.3,
      "duration": 0.3,
      "velocity": 0.63,
      "hand": "right"
    },
    {
      "midi": 79,
      "time": 27.6,
      "duration": 0.6,
      "velocity": 0.63,
      "hand": "right"
    },
    {
      "midi": 81,
      "time": 28.2,
      "duration": 0.3,
      "velocity": 0.63,
      "hand": "right"
    },
    {
      "midi": 83,
      "time": 28.5,
      "duration": 0.3,
      "velocity": 0.63,
      "hand": "right"
    },
    {
      "midi": 84,
      "time": 28.8,
      "duration": 0.45,
      "velocity": 0.63,
      "hand": "right"
    },
    {
      "midi": 79,
      "time": 29.25,
      "duration": 0.2,
      "velocity": 0.63,
      "hand": "right"
    },
    {
      "midi": 79,
      "time": 29.7,
      "duration": 0.3,
      "velocity": 0.63,
      "hand": "right"
    },
    {
      "midi": 84,
      "time": 30,
      "duration": 0.45,
      "velocity": 0.63,
      "hand": "right"
    },
    {
      "midi": 79,
      "time": 30.45,
      "duration": 0.2,
      "velocity": 0.63,
      "hand": "right"
    },
    {
      "midi": 77,
      "time": 30.6,
      "duration": 0.3,
      "velocity": 0.63,
      "hand": "right"
    },
    {
      "midi": 76,
      "time": 30.9,
      "duration": 0.3,
      "velocity": 0.63,
      "hand": "right"
    },
    {
      "midi": 74,
      "time": 31.2,
      "duration": 0.3,
      "velocity": 0.63,
      "hand": "right"
    },
    {
      "midi": 79,
      "time": 31.65,
      "duration": 0.2,
      "velocity": 0.63,
      "hand": "right"
    },
    {
      "midi": 79,
      "time": 31.8,
      "duration": 0.3,
      "velocity": 0.63,
      "hand": "right"
    },
    {
      "midi": 79,
      "time": 32.1,
      "duration": 0.3,
      "velocity": 0.63,
      "hand": "right"
    },
    {
      "midi": 83,
      "time": 32.4,
      "duration": 0.2,
      "velocity": 0.63,
      "hand": "right"
    },
    {
      "midi": 79,
      "time": 32.85,
      "duration": 0.2,
      "velocity": 0.63,
      "hand": "right"
    },
    {
      "midi": 77,
      "time": 33,
      "duration": 0.3,
      "velocity": 0.63,
      "hand": "right"
    },
    {
      "midi": 74,
      "time": 33.3,
      "duration": 0.3,
      "velocity": 0.63,
      "hand": "right"
    },
    {
      "midi": 72,
      "time": 33.6,
      "duration": 0.3,
      "velocity": 0.63,
      "hand": "right"
    },
    {
      "midi": 79,
      "time": 34.05,
      "duration": 0.2,
      "velocity": 0.63,
      "hand": "right"
    },
    {
      "midi": 79,
      "time": 34.2,
      "duration": 0.3,
      "velocity": 0.63,
      "hand": "right"
    },
    {
      "midi": 79,
      "time": 34.5,
      "duration": 0.3,
      "velocity": 0.63,
      "hand": "right"
    },
    {
      "midi": 84,
      "time": 34.8,
      "duration": 0.45,
      "velocity": 0.63,
      "hand": "right"
    },
    {
      "midi": 79,
      "time": 35.25,
      "duration": 0.2,
      "velocity": 0.63,
      "hand": "right"
    },
    {
      "midi": 77,
      "time": 35.4,
      "duration": 0.3,
      "velocity": 0.63,
      "hand": "right"
    },
    {
      "midi": 76,
      "time": 35.7,
      "duration": 0.3,
      "velocity": 0.63,
      "hand": "right"
    },
    {
      "midi": 74,
      "time": 36,
      "duration": 0.3,
      "velocity": 0.63,
      "hand": "right"
    },
    {
      "midi": 79,
      "time": 36.45,
      "duration": 0.2,
      "velocity": 0.63,
      "hand": "right"
    },
    {
      "midi": 79,
      "time": 36.9,
      "duration": 0.3,
      "velocity": 0.63,
      "hand": "right"
    },
    {
      "midi": 83,
      "time": 37.2,
      "duration": 0.2,
      "velocity": 0.63,
      "hand": "right"
    },
    {
      "midi": 79,
      "time": 37.65,
      "duration": 0.2,
      "velocity": 0.63,
      "hand": "right"
    },
    {
      "midi": 77,
      "time": 37.8,
      "duration": 0.3,
      "velocity": 0.63,
      "hand": "right"
    },
    {
      "midi": 74,
      "time": 38.1,
      "duration": 0.3,
      "velocity": 0.63,
      "hand": "right"
    },
    {
      "midi": 72,
      "time": 38.4,
      "duration": 0.6,
      "velocity": 0.63,
      "hand": "right"
    }
  ],
  "notes2Hands": [
    {
      "midi": 48,
      "time": 0,
      "duration": 0.3,
      "velocity": 0.63,
      "hand": "left"
    },
    {
      "midi": 64,
      "time": 0,
      "duration": 0.3,
      "velocity": 0.63,
      "hand": "right"
    },
    {
      "midi": 79,
      "time": 0,
      "duration": 0.3,
      "velocity": 0.63,
      "hand": "right"
    },
    {
      "midi": 48,
      "time": 0.3,
      "duration": 0.3,
      "velocity": 0.63,
      "hand": "left"
    },
    {
      "midi": 64,
      "time": 0.3,
      "duration": 0.3,
      "velocity": 0.63,
      "hand": "right"
    },
    {
      "midi": 79,
      "time": 0.3,
      "duration": 0.3,
      "velocity": 0.63,
      "hand": "right"
    },
    {
      "midi": 50,
      "time": 0.6,
      "duration": 0.6,
      "velocity": 0.63,
      "hand": "left"
    },
    {
      "midi": 65,
      "time": 0.6,
      "duration": 0.6,
      "velocity": 0.63,
      "hand": "right"
    },
    {
      "midi": 79,
      "time": 0.6,
      "duration": 0.6,
      "velocity": 0.63,
      "hand": "right"
    },
    {
      "midi": 52,
      "time": 1.2,
      "duration": 0.3,
      "velocity": 0.63,
      "hand": "left"
    },
    {
      "midi": 64,
      "time": 1.2,
      "duration": 0.3,
      "velocity": 0.63,
      "hand": "right"
    },
    {
      "midi": 79,
      "time": 1.2,
      "duration": 0.3,
      "velocity": 0.63,
      "hand": "right"
    },
    {
      "midi": 53,
      "time": 1.5,
      "duration": 0.3,
      "velocity": 0.63,
      "hand": "left"
    },
    {
      "midi": 62,
      "time": 1.5,
      "duration": 0.3,
      "velocity": 0.63,
      "hand": "right"
    },
    {
      "midi": 77,
      "time": 1.5,
      "duration": 0.3,
      "velocity": 0.63,
      "hand": "right"
    },
    {
      "midi": 55,
      "time": 1.8,
      "duration": 0.6,
      "velocity": 0.63,
      "hand": "left"
    },
    {
      "midi": 60,
      "time": 1.8,
      "duration": 0.6,
      "velocity": 0.63,
      "hand": "right"
    },
    {
      "midi": 76,
      "time": 1.8,
      "duration": 0.6,
      "velocity": 0.63,
      "hand": "right"
    },
    {
      "midi": 48,
      "time": 2.4,
      "duration": 0.3,
      "velocity": 0.63,
      "hand": "left"
    },
    {
      "midi": 64,
      "time": 2.4,
      "duration": 0.3,
      "velocity": 0.63,
      "hand": "right"
    },
    {
      "midi": 79,
      "time": 2.4,
      "duration": 0.3,
      "velocity": 0.63,
      "hand": "right"
    },
    {
      "midi": 48,
      "time": 2.7,
      "duration": 0.3,
      "velocity": 0.63,
      "hand": "left"
    },
    {
      "midi": 64,
      "time": 2.7,
      "duration": 0.3,
      "velocity": 0.63,
      "hand": "right"
    },
    {
      "midi": 79,
      "time": 2.7,
      "duration": 0.3,
      "velocity": 0.63,
      "hand": "right"
    },
    {
      "midi": 55,
      "time": 3,
      "duration": 0.3,
      "velocity": 0.63,
      "hand": "left"
    },
    {
      "midi": 64,
      "time": 3,
      "duration": 0.3,
      "velocity": 0.63,
      "hand": "right"
    },
    {
      "midi": 84,
      "time": 3,
      "duration": 0.3,
      "velocity": 0.63,
      "hand": "right"
    },
    {
      "midi": 55,
      "time": 3.3,
      "duration": 0.3,
      "velocity": 0.63,
      "hand": "left"
    },
    {
      "midi": 64,
      "time": 3.3,
      "duration": 0.3,
      "velocity": 0.63,
      "hand": "right"
    },
    {
      "midi": 84,
      "time": 3.3,
      "duration": 0.3,
      "velocity": 0.63,
      "hand": "right"
    },
    {
      "midi": 55,
      "time": 3.6,
      "duration": 0.3,
      "velocity": 0.63,
      "hand": "left"
    },
    {
      "midi": 64,
      "time": 3.6,
      "duration": 0.3,
      "velocity": 0.63,
      "hand": "right"
    },
    {
      "midi": 84,
      "time": 3.6,
      "duration": 0.3,
      "velocity": 0.63,
      "hand": "right"
    },
    {
      "midi": 55,
      "time": 3.9,
      "duration": 0.3,
      "velocity": 0.63,
      "hand": "left"
    },
    {
      "midi": 64,
      "time": 3.9,
      "duration": 0.3,
      "velocity": 0.63,
      "hand": "right"
    },
    {
      "midi": 83,
      "time": 3.9,
      "duration": 0.3,
      "velocity": 0.63,
      "hand": "right"
    },
    {
      "midi": 53,
      "time": 4.2,
      "duration": 0.6,
      "velocity": 0.63,
      "hand": "left"
    },
    {
      "midi": 65,
      "time": 4.2,
      "duration": 0.6,
      "velocity": 0.63,
      "hand": "right"
    },
    {
      "midi": 81,
      "time": 4.2,
      "duration": 0.6,
      "velocity": 0.63,
      "hand": "right"
    },
    {
      "midi": 48,
      "time": 4.8,
      "duration": 0.3,
      "velocity": 0.63,
      "hand": "left"
    },
    {
      "midi": 65,
      "time": 4.8,
      "duration": 0.3,
      "velocity": 0.63,
      "hand": "right"
    },
    {
      "midi": 81,
      "time": 4.8,
      "duration": 0.3,
      "velocity": 0.63,
      "hand": "right"
    },
    {
      "midi": 48,
      "time": 5.1,
      "duration": 0.3,
      "velocity": 0.63,
      "hand": "left"
    },
    {
      "midi": 65,
      "time": 5.1,
      "duration": 0.3,
      "velocity": 0.63,
      "hand": "right"
    },
    {
      "midi": 81,
      "time": 5.1,
      "duration": 0.3,
      "velocity": 0.63,
      "hand": "right"
    },
    {
      "midi": 57,
      "time": 5.4,
      "duration": 0.3,
      "velocity": 0.63,
      "hand": "left"
    },
    {
      "midi": 77,
      "time": 5.4,
      "duration": 0.3,
      "velocity": 0.63,
      "hand": "right"
    },
    {
      "midi": 86,
      "time": 5.4,
      "duration": 0.3,
      "velocity": 0.63,
      "hand": "right"
    },
    {
      "midi": 57,
      "time": 5.7,
      "duration": 0.3,
      "velocity": 0.63,
      "hand": "left"
    },
    {
      "midi": 77,
      "time": 5.7,
      "duration": 0.3,
      "velocity": 0.63,
      "hand": "right"
    },
    {
      "midi": 86,
      "time": 5.7,
      "duration": 0.3,
      "velocity": 0.63,
      "hand": "right"
    },
    {
      "midi": 57,
      "time": 6,
      "duration": 0.3,
      "velocity": 0.63,
      "hand": "left"
    },
    {
      "midi": 77,
      "time": 6,
      "duration": 0.3,
      "velocity": 0.63,
      "hand": "right"
    },
    {
      "midi": 86,
      "time": 6,
      "duration": 0.3,
      "velocity": 0.63,
      "hand": "right"
    },
    {
      "midi": 55,
      "time": 6.3,
      "duration": 0.3,
      "velocity": 0.63,
      "hand": "left"
    },
    {
      "midi": 76,
      "time": 6.3,
      "duration": 0.3,
      "velocity": 0.63,
      "hand": "right"
    },
    {
      "midi": 84,
      "time": 6.3,
      "duration": 0.3,
      "velocity": 0.63,
      "hand": "right"
    },
    {
      "midi": 53,
      "time": 6.6,
      "duration": 0.3,
      "velocity": 0.63,
      "hand": "left"
    },
    {
      "midi": 74,
      "time": 6.6,
      "duration": 0.3,
      "velocity": 0.63,
      "hand": "right"
    },
    {
      "midi": 83,
      "time": 6.6,
      "duration": 0.3,
      "velocity": 0.63,
      "hand": "right"
    },
    {
      "midi": 53,
      "time": 6.9,
      "duration": 0.3,
      "velocity": 0.63,
      "hand": "left"
    },
    {
      "midi": 74,
      "time": 6.9,
      "duration": 0.3,
      "velocity": 0.63,
      "hand": "right"
    },
    {
      "midi": 83,
      "time": 6.9,
      "duration": 0.3,
      "velocity": 0.63,
      "hand": "right"
    },
    {
      "midi": 53,
      "time": 7.2,
      "duration": 0.3,
      "velocity": 0.63,
      "hand": "left"
    },
    {
      "midi": 74,
      "time": 7.2,
      "duration": 0.3,
      "velocity": 0.63,
      "hand": "right"
    },
    {
      "midi": 83,
      "time": 7.2,
      "duration": 0.3,
      "velocity": 0.63,
      "hand": "right"
    },
    {
      "midi": 52,
      "time": 7.5,
      "duration": 0.3,
      "velocity": 0.63,
      "hand": "left"
    },
    {
      "midi": 72,
      "time": 7.5,
      "duration": 0.3,
      "velocity": 0.63,
      "hand": "right"
    },
    {
      "midi": 81,
      "time": 7.5,
      "duration": 0.3,
      "velocity": 0.63,
      "hand": "right"
    },
    {
      "midi": 50,
      "time": 7.8,
      "duration": 0.6,
      "velocity": 0.63,
      "hand": "left"
    },
    {
      "midi": 71,
      "time": 7.8,
      "duration": 0.6,
      "velocity": 0.63,
      "hand": "right"
    },
    {
      "midi": 79,
      "time": 7.8,
      "duration": 0.6,
      "velocity": 0.63,
      "hand": "right"
    },
    {
      "midi": 52,
      "time": 8.4,
      "duration": 0.3,
      "velocity": 0.63,
      "hand": "left"
    },
    {
      "midi": 72,
      "time": 8.4,
      "duration": 0.3,
      "velocity": 0.63,
      "hand": "right"
    },
    {
      "midi": 81,
      "time": 8.4,
      "duration": 0.3,
      "velocity": 0.63,
      "hand": "right"
    },
    {
      "midi": 53,
      "time": 8.7,
      "duration": 0.3,
      "velocity": 0.63,
      "hand": "left"
    },
    {
      "midi": 74,
      "time": 8.7,
      "duration": 0.3,
      "velocity": 0.63,
      "hand": "right"
    },
    {
      "midi": 83,
      "time": 8.7,
      "duration": 0.3,
      "velocity": 0.63,
      "hand": "right"
    },
    {
      "midi": 55,
      "time": 9,
      "duration": 0.45,
      "velocity": 0.63,
      "hand": "left"
    },
    {
      "midi": 76,
      "time": 9,
      "duration": 0.45,
      "velocity": 0.63,
      "hand": "right"
    },
    {
      "midi": 84,
      "time": 9,
      "duration": 0.45,
      "velocity": 0.63,
      "hand": "right"
    },
    {
      "midi": 48,
      "time": 9.45,
      "duration": 0.15,
      "velocity": 0.63,
      "hand": "left"
    },
    {
      "midi": 64,
      "time": 9.45,
      "duration": 0.15,
      "velocity": 0.63,
      "hand": "right"
    },
    {
      "midi": 79,
      "time": 9.45,
      "duration": 0.15,
      "velocity": 0.63,
      "hand": "right"
    },
    {
      "midi": 48,
      "time": 9.6,
      "duration": 0.3,
      "velocity": 0.63,
      "hand": "left"
    },
    {
      "midi": 64,
      "time": 9.6,
      "duration": 0.3,
      "velocity": 0.63,
      "hand": "right"
    },
    {
      "midi": 79,
      "time": 9.6,
      "duration": 0.3,
      "velocity": 0.63,
      "hand": "right"
    },
    {
      "midi": 48,
      "time": 9.9,
      "duration": 0.3,
      "velocity": 0.63,
      "hand": "left"
    },
    {
      "midi": 64,
      "time": 9.9,
      "duration": 0.3,
      "velocity": 0.63,
      "hand": "right"
    },
    {
      "midi": 79,
      "time": 9.9,
      "duration": 0.3,
      "velocity": 0.63,
      "hand": "right"
    },
    {
      "midi": 48,
      "time": 10.2,
      "duration": 0.45,
      "velocity": 0.63,
      "hand": "left"
    },
    {
      "midi": 64,
      "time": 10.2,
      "duration": 0.45,
      "velocity": 0.63,
      "hand": "right"
    },
    {
      "midi": 84,
      "time": 10.2,
      "duration": 0.45,
      "velocity": 0.63,
      "hand": "right"
    },
    {
      "midi": 55,
      "time": 10.65,
      "duration": 0.15,
      "velocity": 0.63,
      "hand": "left"
    },
    {
      "midi": 67,
      "time": 10.65,
      "duration": 0.15,
      "velocity": 0.63,
      "hand": "right"
    },
    {
      "midi": 79,
      "time": 10.65,
      "duration": 0.15,
      "velocity": 0.63,
      "hand": "right"
    },
    {
      "midi": 53,
      "time": 10.8,
      "duration": 0.3,
      "velocity": 0.63,
      "hand": "left"
    },
    {
      "midi": 65,
      "time": 10.8,
      "duration": 0.3,
      "velocity": 0.63,
      "hand": "right"
    },
    {
      "midi": 77,
      "time": 10.8,
      "duration": 0.3,
      "velocity": 0.63,
      "hand": "right"
    },
    {
      "midi": 52,
      "time": 11.1,
      "duration": 0.3,
      "velocity": 0.63,
      "hand": "left"
    },
    {
      "midi": 64,
      "time": 11.1,
      "duration": 0.3,
      "velocity": 0.63,
      "hand": "right"
    },
    {
      "midi": 76,
      "time": 11.1,
      "duration": 0.3,
      "velocity": 0.63,
      "hand": "right"
    },
    {
      "midi": 50,
      "time": 11.4,
      "duration": 0.3,
      "velocity": 0.63,
      "hand": "left"
    },
    {
      "midi": 62,
      "time": 11.4,
      "duration": 0.3,
      "velocity": 0.63,
      "hand": "right"
    },
    {
      "midi": 74,
      "time": 11.4,
      "duration": 0.3,
      "velocity": 0.63,
      "hand": "right"
    },
    {
      "midi": 50,
      "time": 11.85,
      "duration": 0.15,
      "velocity": 0.63,
      "hand": "left"
    },
    {
      "midi": 65,
      "time": 11.85,
      "duration": 0.15,
      "velocity": 0.63,
      "hand": "right"
    },
    {
      "midi": 79,
      "time": 11.85,
      "duration": 0.15,
      "velocity": 0.63,
      "hand": "right"
    },
    {
      "midi": 50,
      "time": 12,
      "duration": 0.3,
      "velocity": 0.63,
      "hand": "left"
    },
    {
      "midi": 65,
      "time": 12,
      "duration": 0.3,
      "velocity": 0.63,
      "hand": "right"
    },
    {
      "midi": 79,
      "time": 12,
      "duration": 0.3,
      "velocity": 0.63,
      "hand": "right"
    },
    {
      "midi": 50,
      "time": 12.3,
      "duration": 0.3,
      "velocity": 0.63,
      "hand": "left"
    },
    {
      "midi": 65,
      "time": 12.3,
      "duration": 0.3,
      "velocity": 0.63,
      "hand": "right"
    },
    {
      "midi": 79,
      "time": 12.3,
      "duration": 0.3,
      "velocity": 0.63,
      "hand": "right"
    },
    {
      "midi": 50,
      "time": 12.6,
      "duration": 0.15,
      "velocity": 0.63,
      "hand": "left"
    },
    {
      "midi": 67,
      "time": 12.6,
      "duration": 0.15,
      "velocity": 0.63,
      "hand": "right"
    },
    {
      "midi": 83,
      "time": 12.6,
      "duration": 0.15,
      "velocity": 0.63,
      "hand": "right"
    },
    {
      "midi": 50,
      "time": 12.75,
      "duration": 0.3,
      "velocity": 0.63,
      "hand": "left"
    },
    {
      "midi": 67,
      "time": 12.75,
      "duration": 0.3,
      "velocity": 0.63,
      "hand": "right"
    },
    {
      "midi": 83,
      "time": 12.75,
      "duration": 0.3,
      "velocity": 0.63,
      "hand": "right"
    },
    {
      "midi": 55,
      "time": 13.05,
      "duration": 0.15,
      "velocity": 0.63,
      "hand": "left"
    },
    {
      "midi": 71,
      "time": 13.05,
      "duration": 0.15,
      "velocity": 0.63,
      "hand": "right"
    },
    {
      "midi": 79,
      "time": 13.05,
      "duration": 0.15,
      "velocity": 0.63,
      "hand": "right"
    },
    {
      "midi": 53,
      "time": 13.2,
      "duration": 0.3,
      "velocity": 0.63,
      "hand": "left"
    },
    {
      "midi": 69,
      "time": 13.2,
      "duration": 0.3,
      "velocity": 0.63,
      "hand": "right"
    },
    {
      "midi": 77,
      "time": 13.2,
      "duration": 0.3,
      "velocity": 0.63,
      "hand": "right"
    },
    {
      "midi": 50,
      "time": 13.5,
      "duration": 0.3,
      "velocity": 0.63,
      "hand": "left"
    },
    {
      "midi": 65,
      "time": 13.5,
      "duration": 0.3,
      "velocity": 0.63,
      "hand": "right"
    },
    {
      "midi": 74,
      "time": 13.5,
      "duration": 0.3,
      "velocity": 0.63,
      "hand": "right"
    },
    {
      "midi": 48,
      "time": 13.8,
      "duration": 0.3,
      "velocity": 0.63,
      "hand": "left"
    },
    {
      "midi": 64,
      "time": 13.8,
      "duration": 0.3,
      "velocity": 0.63,
      "hand": "right"
    },
    {
      "midi": 72,
      "time": 13.8,
      "duration": 0.3,
      "velocity": 0.63,
      "hand": "right"
    },
    {
      "midi": 48,
      "time": 14.25,
      "duration": 0.15,
      "velocity": 0.63,
      "hand": "left"
    },
    {
      "midi": 64,
      "time": 14.25,
      "duration": 0.15,
      "velocity": 0.63,
      "hand": "right"
    },
    {
      "midi": 79,
      "time": 14.25,
      "duration": 0.15,
      "velocity": 0.63,
      "hand": "right"
    },
    {
      "midi": 48,
      "time": 14.4,
      "duration": 0.3,
      "velocity": 0.63,
      "hand": "left"
    },
    {
      "midi": 64,
      "time": 14.4,
      "duration": 0.3,
      "velocity": 0.63,
      "hand": "right"
    },
    {
      "midi": 79,
      "time": 14.4,
      "duration": 0.3,
      "velocity": 0.63,
      "hand": "right"
    },
    {
      "midi": 48,
      "time": 14.7,
      "duration": 0.3,
      "velocity": 0.63,
      "hand": "left"
    },
    {
      "midi": 64,
      "time": 14.7,
      "duration": 0.3,
      "velocity": 0.63,
      "hand": "right"
    },
    {
      "midi": 79,
      "time": 14.7,
      "duration": 0.3,
      "velocity": 0.63,
      "hand": "right"
    },
    {
      "midi": 48,
      "time": 15,
      "duration": 0.45,
      "velocity": 0.63,
      "hand": "left"
    },
    {
      "midi": 64,
      "time": 15,
      "duration": 0.45,
      "velocity": 0.63,
      "hand": "right"
    },
    {
      "midi": 84,
      "time": 15,
      "duration": 0.45,
      "velocity": 0.63,
      "hand": "right"
    },
    {
      "midi": 55,
      "time": 15.45,
      "duration": 0.15,
      "velocity": 0.63,
      "hand": "left"
    },
    {
      "midi": 67,
      "time": 15.45,
      "duration": 0.15,
      "velocity": 0.63,
      "hand": "right"
    },
    {
      "midi": 79,
      "time": 15.45,
      "duration": 0.15,
      "velocity": 0.63,
      "hand": "right"
    },
    {
      "midi": 53,
      "time": 15.6,
      "duration": 0.3,
      "velocity": 0.63,
      "hand": "left"
    },
    {
      "midi": 65,
      "time": 15.6,
      "duration": 0.3,
      "velocity": 0.63,
      "hand": "right"
    },
    {
      "midi": 77,
      "time": 15.6,
      "duration": 0.3,
      "velocity": 0.63,
      "hand": "right"
    },
    {
      "midi": 52,
      "time": 15.9,
      "duration": 0.3,
      "velocity": 0.63,
      "hand": "left"
    },
    {
      "midi": 64,
      "time": 15.9,
      "duration": 0.3,
      "velocity": 0.63,
      "hand": "right"
    },
    {
      "midi": 76,
      "time": 15.9,
      "duration": 0.3,
      "velocity": 0.63,
      "hand": "right"
    },
    {
      "midi": 50,
      "time": 16.2,
      "duration": 0.3,
      "velocity": 0.63,
      "hand": "left"
    },
    {
      "midi": 62,
      "time": 16.2,
      "duration": 0.3,
      "velocity": 0.63,
      "hand": "right"
    },
    {
      "midi": 74,
      "time": 16.2,
      "duration": 0.3,
      "velocity": 0.63,
      "hand": "right"
    },
    {
      "midi": 50,
      "time": 16.65,
      "duration": 0.15,
      "velocity": 0.63,
      "hand": "left"
    },
    {
      "midi": 65,
      "time": 16.65,
      "duration": 0.15,
      "velocity": 0.63,
      "hand": "right"
    },
    {
      "midi": 79,
      "time": 16.65,
      "duration": 0.15,
      "velocity": 0.63,
      "hand": "right"
    },
    {
      "midi": 50,
      "time": 16.8,
      "duration": 0.3,
      "velocity": 0.63,
      "hand": "left"
    },
    {
      "midi": 65,
      "time": 16.8,
      "duration": 0.3,
      "velocity": 0.63,
      "hand": "right"
    },
    {
      "midi": 79,
      "time": 16.8,
      "duration": 0.3,
      "velocity": 0.63,
      "hand": "right"
    },
    {
      "midi": 50,
      "time": 17.1,
      "duration": 0.3,
      "velocity": 0.63,
      "hand": "left"
    },
    {
      "midi": 65,
      "time": 17.1,
      "duration": 0.3,
      "velocity": 0.63,
      "hand": "right"
    },
    {
      "midi": 79,
      "time": 17.1,
      "duration": 0.3,
      "velocity": 0.63,
      "hand": "right"
    },
    {
      "midi": 50,
      "time": 17.4,
      "duration": 0.15,
      "velocity": 0.63,
      "hand": "left"
    },
    {
      "midi": 67,
      "time": 17.4,
      "duration": 0.15,
      "velocity": 0.63,
      "hand": "right"
    },
    {
      "midi": 83,
      "time": 17.4,
      "duration": 0.15,
      "velocity": 0.63,
      "hand": "right"
    },
    {
      "midi": 50,
      "time": 17.55,
      "duration": 0.3,
      "velocity": 0.63,
      "hand": "left"
    },
    {
      "midi": 67,
      "time": 17.55,
      "duration": 0.3,
      "velocity": 0.63,
      "hand": "right"
    },
    {
      "midi": 83,
      "time": 17.55,
      "duration": 0.3,
      "velocity": 0.63,
      "hand": "right"
    },
    {
      "midi": 55,
      "time": 17.85,
      "duration": 0.15,
      "velocity": 0.63,
      "hand": "left"
    },
    {
      "midi": 71,
      "time": 17.85,
      "duration": 0.15,
      "velocity": 0.63,
      "hand": "right"
    },
    {
      "midi": 79,
      "time": 17.85,
      "duration": 0.15,
      "velocity": 0.63,
      "hand": "right"
    },
    {
      "midi": 53,
      "time": 18,
      "duration": 0.3,
      "velocity": 0.63,
      "hand": "left"
    },
    {
      "midi": 69,
      "time": 18,
      "duration": 0.3,
      "velocity": 0.63,
      "hand": "right"
    },
    {
      "midi": 77,
      "time": 18,
      "duration": 0.3,
      "velocity": 0.63,
      "hand": "right"
    },
    {
      "midi": 50,
      "time": 18.3,
      "duration": 0.3,
      "velocity": 0.63,
      "hand": "left"
    },
    {
      "midi": 65,
      "time": 18.3,
      "duration": 0.3,
      "velocity": 0.63,
      "hand": "right"
    },
    {
      "midi": 74,
      "time": 18.3,
      "duration": 0.3,
      "velocity": 0.63,
      "hand": "right"
    },
    {
      "midi": 48,
      "time": 18.6,
      "duration": 0.6,
      "velocity": 0.63,
      "hand": "left"
    },
    {
      "midi": 64,
      "time": 18.6,
      "duration": 0.6,
      "velocity": 0.63,
      "hand": "right"
    },
    {
      "midi": 72,
      "time": 18.6,
      "duration": 0.6,
      "velocity": 0.63,
      "hand": "right"
    },
    {
      "midi": 48,
      "time": 19.8,
      "duration": 0.3,
      "velocity": 0.63,
      "hand": "left"
    },
    {
      "midi": 64,
      "time": 19.8,
      "duration": 0.3,
      "velocity": 0.63,
      "hand": "right"
    },
    {
      "midi": 79,
      "time": 19.8,
      "duration": 0.3,
      "velocity": 0.63,
      "hand": "right"
    },
    {
      "midi": 48,
      "time": 20.1,
      "duration": 0.3,
      "velocity": 0.63,
      "hand": "left"
    },
    {
      "midi": 64,
      "time": 20.1,
      "duration": 0.3,
      "velocity": 0.63,
      "hand": "right"
    },
    {
      "midi": 79,
      "time": 20.1,
      "duration": 0.3,
      "velocity": 0.63,
      "hand": "right"
    },
    {
      "midi": 50,
      "time": 20.4,
      "duration": 0.6,
      "velocity": 0.63,
      "hand": "left"
    },
    {
      "midi": 65,
      "time": 20.4,
      "duration": 0.6,
      "velocity": 0.63,
      "hand": "right"
    },
    {
      "midi": 79,
      "time": 20.4,
      "duration": 0.6,
      "velocity": 0.63,
      "hand": "right"
    },
    {
      "midi": 52,
      "time": 21,
      "duration": 0.3,
      "velocity": 0.63,
      "hand": "left"
    },
    {
      "midi": 64,
      "time": 21,
      "duration": 0.3,
      "velocity": 0.63,
      "hand": "right"
    },
    {
      "midi": 79,
      "time": 21,
      "duration": 0.3,
      "velocity": 0.63,
      "hand": "right"
    },
    {
      "midi": 53,
      "time": 21.3,
      "duration": 0.3,
      "velocity": 0.63,
      "hand": "left"
    },
    {
      "midi": 62,
      "time": 21.3,
      "duration": 0.3,
      "velocity": 0.63,
      "hand": "right"
    },
    {
      "midi": 77,
      "time": 21.3,
      "duration": 0.3,
      "velocity": 0.63,
      "hand": "right"
    },
    {
      "midi": 55,
      "time": 21.6,
      "duration": 0.6,
      "velocity": 0.63,
      "hand": "left"
    },
    {
      "midi": 60,
      "time": 21.6,
      "duration": 0.6,
      "velocity": 0.63,
      "hand": "right"
    },
    {
      "midi": 76,
      "time": 21.6,
      "duration": 0.6,
      "velocity": 0.63,
      "hand": "right"
    },
    {
      "midi": 48,
      "time": 22.2,
      "duration": 0.3,
      "velocity": 0.63,
      "hand": "left"
    },
    {
      "midi": 64,
      "time": 22.2,
      "duration": 0.3,
      "velocity": 0.63,
      "hand": "right"
    },
    {
      "midi": 79,
      "time": 22.2,
      "duration": 0.3,
      "velocity": 0.63,
      "hand": "right"
    },
    {
      "midi": 48,
      "time": 22.5,
      "duration": 0.3,
      "velocity": 0.63,
      "hand": "left"
    },
    {
      "midi": 64,
      "time": 22.5,
      "duration": 0.3,
      "velocity": 0.63,
      "hand": "right"
    },
    {
      "midi": 79,
      "time": 22.5,
      "duration": 0.3,
      "velocity": 0.63,
      "hand": "right"
    },
    {
      "midi": 55,
      "time": 22.8,
      "duration": 0.3,
      "velocity": 0.63,
      "hand": "left"
    },
    {
      "midi": 64,
      "time": 22.8,
      "duration": 0.3,
      "velocity": 0.63,
      "hand": "right"
    },
    {
      "midi": 84,
      "time": 22.8,
      "duration": 0.3,
      "velocity": 0.63,
      "hand": "right"
    },
    {
      "midi": 55,
      "time": 23.1,
      "duration": 0.3,
      "velocity": 0.63,
      "hand": "left"
    },
    {
      "midi": 64,
      "time": 23.1,
      "duration": 0.3,
      "velocity": 0.63,
      "hand": "right"
    },
    {
      "midi": 84,
      "time": 23.1,
      "duration": 0.3,
      "velocity": 0.63,
      "hand": "right"
    },
    {
      "midi": 55,
      "time": 23.4,
      "duration": 0.3,
      "velocity": 0.63,
      "hand": "left"
    },
    {
      "midi": 64,
      "time": 23.4,
      "duration": 0.3,
      "velocity": 0.63,
      "hand": "right"
    },
    {
      "midi": 84,
      "time": 23.4,
      "duration": 0.3,
      "velocity": 0.63,
      "hand": "right"
    },
    {
      "midi": 55,
      "time": 23.7,
      "duration": 0.3,
      "velocity": 0.63,
      "hand": "left"
    },
    {
      "midi": 64,
      "time": 23.7,
      "duration": 0.3,
      "velocity": 0.63,
      "hand": "right"
    },
    {
      "midi": 83,
      "time": 23.7,
      "duration": 0.3,
      "velocity": 0.63,
      "hand": "right"
    },
    {
      "midi": 53,
      "time": 24,
      "duration": 0.6,
      "velocity": 0.63,
      "hand": "left"
    },
    {
      "midi": 65,
      "time": 24,
      "duration": 0.6,
      "velocity": 0.63,
      "hand": "right"
    },
    {
      "midi": 81,
      "time": 24,
      "duration": 0.6,
      "velocity": 0.63,
      "hand": "right"
    },
    {
      "midi": 48,
      "time": 24.6,
      "duration": 0.3,
      "velocity": 0.63,
      "hand": "left"
    },
    {
      "midi": 65,
      "time": 24.6,
      "duration": 0.3,
      "velocity": 0.63,
      "hand": "right"
    },
    {
      "midi": 81,
      "time": 24.6,
      "duration": 0.3,
      "velocity": 0.63,
      "hand": "right"
    },
    {
      "midi": 48,
      "time": 24.9,
      "duration": 0.3,
      "velocity": 0.63,
      "hand": "left"
    },
    {
      "midi": 65,
      "time": 24.9,
      "duration": 0.3,
      "velocity": 0.63,
      "hand": "right"
    },
    {
      "midi": 81,
      "time": 24.9,
      "duration": 0.3,
      "velocity": 0.63,
      "hand": "right"
    },
    {
      "midi": 57,
      "time": 25.2,
      "duration": 0.3,
      "velocity": 0.63,
      "hand": "left"
    },
    {
      "midi": 77,
      "time": 25.2,
      "duration": 0.3,
      "velocity": 0.63,
      "hand": "right"
    },
    {
      "midi": 86,
      "time": 25.2,
      "duration": 0.3,
      "velocity": 0.63,
      "hand": "right"
    },
    {
      "midi": 57,
      "time": 25.5,
      "duration": 0.3,
      "velocity": 0.63,
      "hand": "left"
    },
    {
      "midi": 77,
      "time": 25.5,
      "duration": 0.3,
      "velocity": 0.63,
      "hand": "right"
    },
    {
      "midi": 86,
      "time": 25.5,
      "duration": 0.3,
      "velocity": 0.63,
      "hand": "right"
    },
    {
      "midi": 57,
      "time": 25.8,
      "duration": 0.3,
      "velocity": 0.63,
      "hand": "left"
    },
    {
      "midi": 77,
      "time": 25.8,
      "duration": 0.3,
      "velocity": 0.63,
      "hand": "right"
    },
    {
      "midi": 86,
      "time": 25.8,
      "duration": 0.3,
      "velocity": 0.63,
      "hand": "right"
    },
    {
      "midi": 55,
      "time": 26.1,
      "duration": 0.3,
      "velocity": 0.63,
      "hand": "left"
    },
    {
      "midi": 76,
      "time": 26.1,
      "duration": 0.3,
      "velocity": 0.63,
      "hand": "right"
    },
    {
      "midi": 84,
      "time": 26.1,
      "duration": 0.3,
      "velocity": 0.63,
      "hand": "right"
    },
    {
      "midi": 53,
      "time": 26.4,
      "duration": 0.3,
      "velocity": 0.63,
      "hand": "left"
    },
    {
      "midi": 74,
      "time": 26.4,
      "duration": 0.3,
      "velocity": 0.63,
      "hand": "right"
    },
    {
      "midi": 83,
      "time": 26.4,
      "duration": 0.3,
      "velocity": 0.63,
      "hand": "right"
    },
    {
      "midi": 53,
      "time": 26.7,
      "duration": 0.3,
      "velocity": 0.63,
      "hand": "left"
    },
    {
      "midi": 74,
      "time": 26.7,
      "duration": 0.3,
      "velocity": 0.63,
      "hand": "right"
    },
    {
      "midi": 83,
      "time": 26.7,
      "duration": 0.3,
      "velocity": 0.63,
      "hand": "right"
    },
    {
      "midi": 53,
      "time": 27,
      "duration": 0.3,
      "velocity": 0.63,
      "hand": "left"
    },
    {
      "midi": 74,
      "time": 27,
      "duration": 0.3,
      "velocity": 0.63,
      "hand": "right"
    },
    {
      "midi": 83,
      "time": 27,
      "duration": 0.3,
      "velocity": 0.63,
      "hand": "right"
    },
    {
      "midi": 52,
      "time": 27.3,
      "duration": 0.3,
      "velocity": 0.63,
      "hand": "left"
    },
    {
      "midi": 72,
      "time": 27.3,
      "duration": 0.3,
      "velocity": 0.63,
      "hand": "right"
    },
    {
      "midi": 81,
      "time": 27.3,
      "duration": 0.3,
      "velocity": 0.63,
      "hand": "right"
    },
    {
      "midi": 50,
      "time": 27.6,
      "duration": 0.6,
      "velocity": 0.63,
      "hand": "left"
    },
    {
      "midi": 71,
      "time": 27.6,
      "duration": 0.6,
      "velocity": 0.63,
      "hand": "right"
    },
    {
      "midi": 79,
      "time": 27.6,
      "duration": 0.6,
      "velocity": 0.63,
      "hand": "right"
    },
    {
      "midi": 52,
      "time": 28.2,
      "duration": 0.3,
      "velocity": 0.63,
      "hand": "left"
    },
    {
      "midi": 72,
      "time": 28.2,
      "duration": 0.3,
      "velocity": 0.63,
      "hand": "right"
    },
    {
      "midi": 81,
      "time": 28.2,
      "duration": 0.3,
      "velocity": 0.63,
      "hand": "right"
    },
    {
      "midi": 53,
      "time": 28.5,
      "duration": 0.3,
      "velocity": 0.63,
      "hand": "left"
    },
    {
      "midi": 74,
      "time": 28.5,
      "duration": 0.3,
      "velocity": 0.63,
      "hand": "right"
    },
    {
      "midi": 83,
      "time": 28.5,
      "duration": 0.3,
      "velocity": 0.63,
      "hand": "right"
    },
    {
      "midi": 55,
      "time": 28.8,
      "duration": 0.45,
      "velocity": 0.63,
      "hand": "left"
    },
    {
      "midi": 76,
      "time": 28.8,
      "duration": 0.45,
      "velocity": 0.63,
      "hand": "right"
    },
    {
      "midi": 84,
      "time": 28.8,
      "duration": 0.45,
      "velocity": 0.63,
      "hand": "right"
    },
    {
      "midi": 48,
      "time": 29.25,
      "duration": 0.15,
      "velocity": 0.63,
      "hand": "left"
    },
    {
      "midi": 64,
      "time": 29.25,
      "duration": 0.15,
      "velocity": 0.63,
      "hand": "right"
    },
    {
      "midi": 79,
      "time": 29.25,
      "duration": 0.15,
      "velocity": 0.63,
      "hand": "right"
    },
    {
      "midi": 48,
      "time": 29.4,
      "duration": 0.3,
      "velocity": 0.63,
      "hand": "left"
    },
    {
      "midi": 64,
      "time": 29.4,
      "duration": 0.3,
      "velocity": 0.63,
      "hand": "right"
    },
    {
      "midi": 79,
      "time": 29.4,
      "duration": 0.3,
      "velocity": 0.63,
      "hand": "right"
    },
    {
      "midi": 48,
      "time": 29.7,
      "duration": 0.3,
      "velocity": 0.63,
      "hand": "left"
    },
    {
      "midi": 64,
      "time": 29.7,
      "duration": 0.3,
      "velocity": 0.63,
      "hand": "right"
    },
    {
      "midi": 79,
      "time": 29.7,
      "duration": 0.3,
      "velocity": 0.63,
      "hand": "right"
    },
    {
      "midi": 48,
      "time": 30,
      "duration": 0.45,
      "velocity": 0.63,
      "hand": "left"
    },
    {
      "midi": 64,
      "time": 30,
      "duration": 0.45,
      "velocity": 0.63,
      "hand": "right"
    },
    {
      "midi": 84,
      "time": 30,
      "duration": 0.45,
      "velocity": 0.63,
      "hand": "right"
    },
    {
      "midi": 55,
      "time": 30.45,
      "duration": 0.15,
      "velocity": 0.63,
      "hand": "left"
    },
    {
      "midi": 67,
      "time": 30.45,
      "duration": 0.15,
      "velocity": 0.63,
      "hand": "right"
    },
    {
      "midi": 79,
      "time": 30.45,
      "duration": 0.15,
      "velocity": 0.63,
      "hand": "right"
    },
    {
      "midi": 53,
      "time": 30.6,
      "duration": 0.3,
      "velocity": 0.63,
      "hand": "left"
    },
    {
      "midi": 65,
      "time": 30.6,
      "duration": 0.3,
      "velocity": 0.63,
      "hand": "right"
    },
    {
      "midi": 77,
      "time": 30.6,
      "duration": 0.3,
      "velocity": 0.63,
      "hand": "right"
    },
    {
      "midi": 52,
      "time": 30.9,
      "duration": 0.3,
      "velocity": 0.63,
      "hand": "left"
    },
    {
      "midi": 64,
      "time": 30.9,
      "duration": 0.3,
      "velocity": 0.63,
      "hand": "right"
    },
    {
      "midi": 76,
      "time": 30.9,
      "duration": 0.3,
      "velocity": 0.63,
      "hand": "right"
    },
    {
      "midi": 50,
      "time": 31.2,
      "duration": 0.3,
      "velocity": 0.63,
      "hand": "left"
    },
    {
      "midi": 62,
      "time": 31.2,
      "duration": 0.3,
      "velocity": 0.63,
      "hand": "right"
    },
    {
      "midi": 74,
      "time": 31.2,
      "duration": 0.3,
      "velocity": 0.63,
      "hand": "right"
    },
    {
      "midi": 50,
      "time": 31.65,
      "duration": 0.15,
      "velocity": 0.63,
      "hand": "left"
    },
    {
      "midi": 65,
      "time": 31.65,
      "duration": 0.15,
      "velocity": 0.63,
      "hand": "right"
    },
    {
      "midi": 79,
      "time": 31.65,
      "duration": 0.15,
      "velocity": 0.63,
      "hand": "right"
    },
    {
      "midi": 50,
      "time": 31.8,
      "duration": 0.3,
      "velocity": 0.63,
      "hand": "left"
    },
    {
      "midi": 65,
      "time": 31.8,
      "duration": 0.3,
      "velocity": 0.63,
      "hand": "right"
    },
    {
      "midi": 79,
      "time": 31.8,
      "duration": 0.3,
      "velocity": 0.63,
      "hand": "right"
    },
    {
      "midi": 50,
      "time": 32.1,
      "duration": 0.3,
      "velocity": 0.63,
      "hand": "left"
    },
    {
      "midi": 65,
      "time": 32.1,
      "duration": 0.3,
      "velocity": 0.63,
      "hand": "right"
    },
    {
      "midi": 79,
      "time": 32.1,
      "duration": 0.3,
      "velocity": 0.63,
      "hand": "right"
    },
    {
      "midi": 50,
      "time": 32.4,
      "duration": 0.15,
      "velocity": 0.63,
      "hand": "left"
    },
    {
      "midi": 67,
      "time": 32.4,
      "duration": 0.15,
      "velocity": 0.63,
      "hand": "right"
    },
    {
      "midi": 83,
      "time": 32.4,
      "duration": 0.15,
      "velocity": 0.63,
      "hand": "right"
    },
    {
      "midi": 50,
      "time": 32.55,
      "duration": 0.3,
      "velocity": 0.63,
      "hand": "left"
    },
    {
      "midi": 67,
      "time": 32.55,
      "duration": 0.3,
      "velocity": 0.63,
      "hand": "right"
    },
    {
      "midi": 83,
      "time": 32.55,
      "duration": 0.3,
      "velocity": 0.63,
      "hand": "right"
    },
    {
      "midi": 55,
      "time": 32.85,
      "duration": 0.15,
      "velocity": 0.63,
      "hand": "left"
    },
    {
      "midi": 71,
      "time": 32.85,
      "duration": 0.15,
      "velocity": 0.63,
      "hand": "right"
    },
    {
      "midi": 79,
      "time": 32.85,
      "duration": 0.15,
      "velocity": 0.63,
      "hand": "right"
    },
    {
      "midi": 53,
      "time": 33,
      "duration": 0.3,
      "velocity": 0.63,
      "hand": "left"
    },
    {
      "midi": 69,
      "time": 33,
      "duration": 0.3,
      "velocity": 0.63,
      "hand": "right"
    },
    {
      "midi": 77,
      "time": 33,
      "duration": 0.3,
      "velocity": 0.63,
      "hand": "right"
    },
    {
      "midi": 50,
      "time": 33.3,
      "duration": 0.3,
      "velocity": 0.63,
      "hand": "left"
    },
    {
      "midi": 65,
      "time": 33.3,
      "duration": 0.3,
      "velocity": 0.63,
      "hand": "right"
    },
    {
      "midi": 74,
      "time": 33.3,
      "duration": 0.3,
      "velocity": 0.63,
      "hand": "right"
    },
    {
      "midi": 48,
      "time": 33.6,
      "duration": 0.3,
      "velocity": 0.63,
      "hand": "left"
    },
    {
      "midi": 64,
      "time": 33.6,
      "duration": 0.3,
      "velocity": 0.63,
      "hand": "right"
    },
    {
      "midi": 72,
      "time": 33.6,
      "duration": 0.3,
      "velocity": 0.63,
      "hand": "right"
    },
    {
      "midi": 48,
      "time": 34.05,
      "duration": 0.15,
      "velocity": 0.63,
      "hand": "left"
    },
    {
      "midi": 64,
      "time": 34.05,
      "duration": 0.15,
      "velocity": 0.63,
      "hand": "right"
    },
    {
      "midi": 79,
      "time": 34.05,
      "duration": 0.15,
      "velocity": 0.63,
      "hand": "right"
    },
    {
      "midi": 48,
      "time": 34.2,
      "duration": 0.3,
      "velocity": 0.63,
      "hand": "left"
    },
    {
      "midi": 64,
      "time": 34.2,
      "duration": 0.3,
      "velocity": 0.63,
      "hand": "right"
    },
    {
      "midi": 79,
      "time": 34.2,
      "duration": 0.3,
      "velocity": 0.63,
      "hand": "right"
    },
    {
      "midi": 48,
      "time": 34.5,
      "duration": 0.3,
      "velocity": 0.63,
      "hand": "left"
    },
    {
      "midi": 64,
      "time": 34.5,
      "duration": 0.3,
      "velocity": 0.63,
      "hand": "right"
    },
    {
      "midi": 79,
      "time": 34.5,
      "duration": 0.3,
      "velocity": 0.63,
      "hand": "right"
    },
    {
      "midi": 48,
      "time": 34.8,
      "duration": 0.45,
      "velocity": 0.63,
      "hand": "left"
    },
    {
      "midi": 64,
      "time": 34.8,
      "duration": 0.45,
      "velocity": 0.63,
      "hand": "right"
    },
    {
      "midi": 84,
      "time": 34.8,
      "duration": 0.45,
      "velocity": 0.63,
      "hand": "right"
    },
    {
      "midi": 55,
      "time": 35.25,
      "duration": 0.15,
      "velocity": 0.63,
      "hand": "left"
    },
    {
      "midi": 67,
      "time": 35.25,
      "duration": 0.15,
      "velocity": 0.63,
      "hand": "right"
    },
    {
      "midi": 79,
      "time": 35.25,
      "duration": 0.15,
      "velocity": 0.63,
      "hand": "right"
    },
    {
      "midi": 53,
      "time": 35.4,
      "duration": 0.3,
      "velocity": 0.63,
      "hand": "left"
    },
    {
      "midi": 65,
      "time": 35.4,
      "duration": 0.3,
      "velocity": 0.63,
      "hand": "right"
    },
    {
      "midi": 77,
      "time": 35.4,
      "duration": 0.3,
      "velocity": 0.63,
      "hand": "right"
    },
    {
      "midi": 52,
      "time": 35.7,
      "duration": 0.3,
      "velocity": 0.63,
      "hand": "left"
    },
    {
      "midi": 64,
      "time": 35.7,
      "duration": 0.3,
      "velocity": 0.63,
      "hand": "right"
    },
    {
      "midi": 76,
      "time": 35.7,
      "duration": 0.3,
      "velocity": 0.63,
      "hand": "right"
    },
    {
      "midi": 50,
      "time": 36,
      "duration": 0.3,
      "velocity": 0.63,
      "hand": "left"
    },
    {
      "midi": 62,
      "time": 36,
      "duration": 0.3,
      "velocity": 0.63,
      "hand": "right"
    },
    {
      "midi": 74,
      "time": 36,
      "duration": 0.3,
      "velocity": 0.63,
      "hand": "right"
    },
    {
      "midi": 50,
      "time": 36.45,
      "duration": 0.15,
      "velocity": 0.63,
      "hand": "left"
    },
    {
      "midi": 65,
      "time": 36.45,
      "duration": 0.15,
      "velocity": 0.63,
      "hand": "right"
    },
    {
      "midi": 79,
      "time": 36.45,
      "duration": 0.15,
      "velocity": 0.63,
      "hand": "right"
    },
    {
      "midi": 50,
      "time": 36.6,
      "duration": 0.3,
      "velocity": 0.63,
      "hand": "left"
    },
    {
      "midi": 65,
      "time": 36.6,
      "duration": 0.3,
      "velocity": 0.63,
      "hand": "right"
    },
    {
      "midi": 79,
      "time": 36.6,
      "duration": 0.3,
      "velocity": 0.63,
      "hand": "right"
    },
    {
      "midi": 50,
      "time": 36.9,
      "duration": 0.3,
      "velocity": 0.63,
      "hand": "left"
    },
    {
      "midi": 65,
      "time": 36.9,
      "duration": 0.3,
      "velocity": 0.63,
      "hand": "right"
    },
    {
      "midi": 79,
      "time": 36.9,
      "duration": 0.3,
      "velocity": 0.63,
      "hand": "right"
    },
    {
      "midi": 50,
      "time": 37.2,
      "duration": 0.15,
      "velocity": 0.63,
      "hand": "left"
    },
    {
      "midi": 67,
      "time": 37.2,
      "duration": 0.15,
      "velocity": 0.63,
      "hand": "right"
    },
    {
      "midi": 83,
      "time": 37.2,
      "duration": 0.15,
      "velocity": 0.63,
      "hand": "right"
    },
    {
      "midi": 50,
      "time": 37.35,
      "duration": 0.3,
      "velocity": 0.63,
      "hand": "left"
    },
    {
      "midi": 67,
      "time": 37.35,
      "duration": 0.3,
      "velocity": 0.63,
      "hand": "right"
    },
    {
      "midi": 83,
      "time": 37.35,
      "duration": 0.3,
      "velocity": 0.63,
      "hand": "right"
    },
    {
      "midi": 55,
      "time": 37.65,
      "duration": 0.15,
      "velocity": 0.63,
      "hand": "left"
    },
    {
      "midi": 71,
      "time": 37.65,
      "duration": 0.15,
      "velocity": 0.63,
      "hand": "right"
    },
    {
      "midi": 79,
      "time": 37.65,
      "duration": 0.15,
      "velocity": 0.63,
      "hand": "right"
    },
    {
      "midi": 53,
      "time": 37.8,
      "duration": 0.3,
      "velocity": 0.63,
      "hand": "left"
    },
    {
      "midi": 69,
      "time": 37.8,
      "duration": 0.3,
      "velocity": 0.63,
      "hand": "right"
    },
    {
      "midi": 77,
      "time": 37.8,
      "duration": 0.3,
      "velocity": 0.63,
      "hand": "right"
    },
    {
      "midi": 50,
      "time": 38.1,
      "duration": 0.3,
      "velocity": 0.63,
      "hand": "left"
    },
    {
      "midi": 65,
      "time": 38.1,
      "duration": 0.3,
      "velocity": 0.63,
      "hand": "right"
    },
    {
      "midi": 74,
      "time": 38.1,
      "duration": 0.3,
      "velocity": 0.63,
      "hand": "right"
    },
    {
      "midi": 48,
      "time": 38.4,
      "duration": 0.6,
      "velocity": 0.63,
      "hand": "left"
    },
    {
      "midi": 64,
      "time": 38.4,
      "duration": 0.6,
      "velocity": 0.63,
      "hand": "right"
    },
    {
      "midi": 72,
      "time": 38.4,
      "duration": 0.6,
      "velocity": 0.63,
      "hand": "right"
    }
  ]
}
