{
  "id": "a-dona-aranha",
  "title": "A Dona Aranha",
  "artist": "Tradicional",
  "difficulty": "Fácil",
  "bpm": 150,
  "duration": 38,
  "category": "Infantis",
  "isPremium": false,
  "coverUrl": "/images/covers/placeholder.png",
  "notes": [
    {
      "midi": 55,
      "time": 0,
      "duration": 1.5,
      "velocity": 0.63,
      "hand": "left"
    },
    {
      "midi": 67,
      "time": 0,
      "duration": 0.8,
      "velocity": 0.63,
      "hand": "right"
    },
    {
      "midi": 67,
      "time": 0.8,
      "duration": 0.4,
      "velocity": 0.63,
      "hand": "right"
    },
    {
      "midi": 69,
      "time": 1.2,
      "duration": 0.4,
      "velocity": 0.63,
      "hand": "right"
    },
    {
      "midi": 55,
      "time": 1.6,
      "duration": 1.5,
      "velocity": 0.63,
      "hand": "left"
    },
    {
      "midi": 71,
      "time": 1.6,
      "duration": 0.8,
      "velocity": 0.63,
      "hand": "right"
    },
    {
      "midi": 71,
      "time": 2.4,
      "duration": 0.4,
      "velocity": 0.63,
      "hand": "right"
    },
    {
      "midi": 71,
      "time": 2.8,
      "duration": 0.4,
      "velocity": 0.63,
      "hand": "right"
    },
    {
      "midi": 50,
      "time": 3.2,
      "duration": 1.5,
      "velocity": 0.63,
      "hand": "left"
    },
    {
      "midi": 69,
      "time": 3.2,
      "duration": 0.4,
      "velocity": 0.63,
      "hand": "right"
    },
    {
      "midi": 67,
      "time": 3.6,
      "duration": 0.4,
      "velocity": 0.63,
      "hand": "right"
    },
    {
      "midi": 69,
      "time": 4,
      "duration": 0.4,
      "velocity": 0.63,
      "hand": "right"
    },
    {
      "midi": 71,
      "time": 4.4,
      "duration": 0.4,
      "velocity": 0.63,
      "hand": "right"
    },
    {
      "midi": 55,
      "time": 4.8,
      "duration": 1.5,
      "velocity": 0.63,
      "hand": "left"
    },
    {
      "midi": 67,
      "time": 4.8,
      "duration": 0.8,
      "velocity": 0.63,
      "hand": "right"
    },
    {
      "midi": 62,
      "time": 5.6,
      "duration": 0.8,
      "velocity": 0.63,
      "hand": "right"
    },
    {
      "midi": 55,
      "time": 6.4,
      "duration": 1.5,
      "velocity": 0.63,
      "hand": "left"
    },
    {
      "midi": 67,
      "time": 6.4,
      "duration": 0.4,
      "velocity": 0.63,
      "hand": "right"
    },
    {
      "midi": 67,
      "time": 6.8,
      "duration": 0.4,
      "velocity": 0.63,
      "hand": "right"
    },
    {
      "midi": 67,
      "time": 7.2,
      "duration": 0.4,
      "velocity": 0.63,
      "hand": "right"
    },
    {
      "midi": 69,
      "time": 7.6,
      "duration": 0.4,
      "velocity": 0.63,
      "hand": "right"
    },
    {
      "midi": 55,
      "time": 8,
      "duration": 1.5,
      "velocity": 0.63,
      "hand": "left"
    },
    {
      "midi": 71,
      "time": 8,
      "duration": 0.8,
      "velocity": 0.63,
      "hand": "right"
    },
    {
      "midi": 71,
      "time": 8.8,
      "duration": 0.8,
      "velocity": 0.63,
      "hand": "right"
    },
    {
      "midi": 50,
      "time": 9.6,
      "duration": 1.5,
      "velocity": 0.63,
      "hand": "left"
    },
    {
      "midi": 69,
      "time": 9.6,
      "duration": 0.4,
      "velocity": 0.63,
      "hand": "right"
    },
    {
      "midi": 67,
      "time": 10,
      "duration": 0.4,
      "velocity": 0.63,
      "hand": "right"
    },
    {
      "midi": 69,
      "time": 10.4,
      "duration": 0.4,
      "velocity": 0.63,
      "hand": "right"
    },
    {
      "midi": 71,
      "time": 10.8,
      "duration": 0.4,
      "velocity": 0.63,
      "hand": "right"
    },
    {
      "midi": 55,
      "time": 11.2,
      "duration": 1.5,
      "velocity": 0.63,
      "hand": "left"
    },
    {
      "midi": 67,
      "time": 11.2,
      "duration": 1.5,
      "velocity": 0.63,
      "hand": "right"
    },
    {
      "midi": 48,
      "time": 12.8,
      "duration": 1.5,
      "velocity": 0.63,
      "hand": "left"
    },
    {
      "midi": 76,
      "time": 12.8,
      "duration": 0.4,
      "velocity": 0.63,
      "hand": "right"
    },
    {
      "midi": 76,
      "time": 13.2,
      "duration": 0.4,
      "velocity": 0.63,
      "hand": "right"
    },
    {
      "midi": 76,
      "time": 13.6,
      "duration": 0.4,
      "velocity": 0.63,
      "hand": "right"
    },
    {
      "midi": 76,
      "time": 14,
      "duration": 0.4,
      "velocity": 0.63,
      "hand": "right"
    },
    {
      "midi": 55,
      "time": 14.4,
      "duration": 1.5,
      "velocity": 0.63,
      "hand": "left"
    },
    {
      "midi": 74,
      "time": 14.4,
      "duration": 0.8,
      "velocity": 0.63,
      "hand": "right"
    },
    {
      "midi": 71,
      "time": 15.2,
      "duration": 0.4,
      "velocity": 0.63,
      "hand": "right"
    },
    {
      "midi": 67,
      "time": 15.6,
      "duration": 0.4,
      "velocity": 0.63,
      "hand": "right"
    },
    {
      "midi": 48,
      "time": 16,
      "duration": 1.5,
      "velocity": 0.63,
      "hand": "left"
    },
    {
      "midi": 76,
      "time": 16,
      "duration": 0.4,
      "velocity": 0.63,
      "hand": "right"
    },
    {
      "midi": 76,
      "time": 16.4,
      "duration": 0.4,
      "velocity": 0.63,
      "hand": "right"
    },
    {
      "midi": 76,
      "time": 16.8,
      "duration": 0.4,
      "velocity": 0.63,
      "hand": "right"
    },
    {
      "midi": 76,
      "time": 17.2,
      "duration": 0.4,
      "velocity": 0.63,
      "hand": "right"
    },
    {
      "midi": 55,
      "time": 17.6,
      "duration": 1.5,
      "velocity": 0.63,
      "hand": "left"
    },
    {
      "midi": 74,
      "time": 17.6,
      "duration": 0.8,
      "velocity": 0.63,
      "hand": "right"
    },
    {
      "midi": 71,
      "time": 18.4,
      "duration": 0.8,
      "velocity": 0.63,
      "hand": "right"
    },
    {
      "midi": 55,
      "time": 19.2,
      "duration": 1.5,
      "velocity": 0.63,
      "hand": "left"
    },
    {
      "midi": 67,
      "time": 19.2,
      "duration": 0.4,
      "velocity": 0.63,
      "hand": "right"
    },
    {
      "midi": 67,
      "time": 19.6,
      "duration": 0.4,
      "velocity": 0.63,
      "hand": "right"
    },
    {
      "midi": 67,
      "time": 20,
      "duration": 0.4,
      "velocity": 0.63,
      "hand": "right"
    },
    {
      "midi": 69,
      "time": 20.4,
      "duration": 0.4,
      "velocity": 0.63,
      "hand": "right"
    },
    {
      "midi": 55,
      "time": 20.8,
      "duration": 1.5,
      "velocity": 0.63,
      "hand": "left"
    },
    {
      "midi": 71,
      "time": 20.8,
      "duration": 0.4,
      "velocity": 0.63,
      "hand": "right"
    },
    {
      "midi": 71,
      "time": 21.2,
      "duration": 0.4,
      "velocity": 0.63,
      "hand": "right"
    },
    {
      "midi": 71,
      "time": 21.6,
      "duration": 0.4,
      "velocity": 0.63,
      "hand": "right"
    },
    {
      "midi": 71,
      "time": 22,
      "duration": 0.4,
      "velocity": 0.63,
      "hand": "right"
    },
    {
      "midi": 50,
      "time": 22.4,
      "duration": 1.5,
      "velocity": 0.63,
      "hand": "left"
    },
    {
      "midi": 69,
      "time": 22.4,
      "duration": 0.4,
      "velocity": 0.63,
      "hand": "right"
    },
    {
      "midi": 67,
      "time": 22.8,
      "duration": 0.4,
      "velocity": 0.63,
      "hand": "right"
    },
    {
      "midi": 69,
      "time": 23.2,
      "duration": 0.4,
      "velocity": 0.63,
      "hand": "right"
    },
    {
      "midi": 71,
      "time": 23.6,
      "duration": 0.4,
      "velocity": 0.63,
      "hand": "right"
    },
    {
      "midi": 55,
      "time": 24,
      "duration": 1.5,
      "velocity": 0.63,
      "hand": "left"
    },
    {
      "midi": 67,
      "time": 24,
      "duration": 1.5,
      "velocity": 0.63,
      "hand": "right"
    },
    {
      "midi": 55,
      "time": 25.6,
      "duration": 1.5,
      "velocity": 0.63,
      "hand": "left"
    },
    {
      "midi": 67,
      "time": 25.6,
      "duration": 0.4,
      "velocity": 0.63,
      "hand": "right"
    },
    {
      "midi": 67,
      "time": 26,
      "duration": 0.4,
      "velocity": 0.63,
      "hand": "right"
    },
    {
      "midi": 67,
      "time": 26.4,
      "duration": 0.4,
      "velocity": 0.63,
      "hand": "right"
    },
    {
      "midi": 69,
      "time": 26.8,
      "duration": 0.4,
      "velocity": 0.63,
      "hand": "right"
    },
    {
      "midi": 55,
      "time": 27.2,
      "duration": 1.5,
      "velocity": 0.63,
      "hand": "left"
    },
    {
      "midi": 71,
      "time": 27.2,
      "duration": 0.8,
      "velocity": 0.63,
      "hand": "right"
    },
    {
      "midi": 71,
      "time": 28,
      "duration": 0.8,
      "velocity": 0.63,
      "hand": "right"
    },
    {
      "midi": 50,
      "time": 28.8,
      "duration": 1.5,
      "velocity": 0.63,
      "hand": "left"
    },
    {
      "midi": 69,
      "time": 28.8,
      "duration": 0.4,
      "velocity": 0.63,
      "hand": "right"
    },
    {
      "midi": 67,
      "time": 29.2,
      "duration": 0.4,
      "velocity": 0.63,
      "hand": "right"
    },
    {
      "midi": 69,
      "time": 29.6,
      "duration": 0.4,
      "velocity": 0.63,
      "hand": "right"
    },
    {
      "midi": 71,
      "time": 30,
      "duration": 0.4,
      "velocity": 0.63,
      "hand": "right"
    },
    {
      "midi": 55,
      "time": 30.4,
      "duration": 1.5,
      "velocity": 0.63,
      "hand": "left"
    },
    {
      "midi": 67,
      "time": 30.4,
      "duration": 0.8,
      "velocity": 0.63,
      "hand": "right"
    },
    {
      "midi": 62,
      "time": 31.2,
      "duration": 0.8,
      "velocity": 0.63,
      "hand": "right"
    },
    {
      "midi": 55,
      "time": 32,
      "duration": 1.5,
      "velocity": 0.63,
      "hand": "left"
    },
    {
      "midi": 67,
      "time": 32,
      "duration": 0.4,
      "velocity": 0.63,
      "hand": "right"
    },
    {
      "midi": 67,
      "time": 32.4,
      "duration": 0.4,
      "velocity": 0.63,
      "hand": "right"
    },
    {
      "midi": 67,
      "time": 32.8,
      "duration": 0.4,
      "velocity": 0.63,
      "hand": "right"
    },
    {
      "midi": 69,
      "time": 33.2,
      "duration": 0.4,
      "velocity": 0.63,
      "hand": "right"
    },
    {
      "midi": 55,
      "time": 33.6,
      "duration": 1.5,
      "velocity": 0.63,
      "hand": "left"
    },
    {
      "midi": 71,
      "time": 33.6,
      "duration": 0.8,
      "velocity": 0.63,
      "hand": "right"
    },
    {
      "midi": 71,
      "time": 34.4,
      "duration": 0.8,
      "velocity": 0.63,
      "hand": "right"
    },
    {
      "midi": 50,
      "time": 35.2,
      "duration": 1.5,
      "velocity": 0.63,
      "hand": "left"
    },
    {
      "midi": 69,
      "time": 35.2,
      "duration": 0.4,
      "velocity": 0.63,
      "hand": "right"
    },
    {
      "midi": 67,
      "time": 35.6,
      "duration": 0.4,
      "velocity": 0.63,
      "hand": "right"
    },
    {
      "midi": 69,
      "time": 36,
      "duration": 0.4,
      "velocity": 0.63,
      "hand": "right"
    },
    {
      "midi": 71,
      "time": 36.4,
      "duration": 0.4,
      "velocity": 0.63,
      "hand": "right"
    },
    {
      "midi": 55,
      "time": 36.8,
      "duration": 1.5,
      "velocity": 0.63,
      "hand": "left"
    },
    {
      "midi": 67,
      "time": 36.8,
      "duration": 0.8,
      "velocity": 0.63,
      "hand": "right"
    },
    {
      "midi": 67,
      "time": 37.6,
      "duration": 0.8,
      "velocity": 0.63,
      "hand": "right"
    }
  ],
  "arrangements": {
    "easy": [
      {
        "midi": 67,
        "time": 0,
        "duration": 0.8,
        "velocity": 0.63,
        "hand": "right"
      },
      {
        "midi": 67,
        "time": 0.8,
        "duration": 0.4,
        "velocity": 0.63,
        "hand": "right"
      },
      {
        "midi": 69,
        "time": 1.2,
        "duration": 0.4,
        "velocity": 0.63,
        "hand": "right"
      },
      {
        "midi": 71,
        "time": 1.6,
        "duration": 0.8,
        "velocity": 0.63,
        "hand": "right"
      },
      {
        "midi": 71,
        "time": 2.4,
        "duration": 0.4,
        "velocity": 0.63,
        "hand": "right"
      },
      {
        "midi": 71,
        "time": 2.8,
        "duration": 0.4,
        "velocity": 0.63,
        "hand": "right"
      },
      {
        "midi": 69,
        "time": 3.2,
        "duration": 0.4,
        "velocity": 0.63,
        "hand": "right"
      },
      {
        "midi": 67,
        "time": 3.6,
        "duration": 0.4,
        "velocity": 0.63,
        "hand": "right"
      },
      {
        "midi": 69,
        "time": 4,
        "duration": 0.4,
        "velocity": 0.63,
        "hand": "right"
      },
      {
        "midi": 71,
        "time": 4.4,
        "duration": 0.4,
        "velocity": 0.63,
        "hand": "right"
      },
      {
        "midi": 67,
        "time": 4.8,
        "duration": 0.8,
        "velocity": 0.63,
        "hand": "right"
      },
      {
        "midi": 62,
        "time": 5.6,
        "duration": 0.8,
        "velocity": 0.63,
        "hand": "right"
      },
      {
        "midi": 67,
        "time": 6.4,
        "duration": 0.4,
        "velocity": 0.63,
        "hand": "right"
      },
      {
        "midi": 67,
        "time": 6.8,
        "duration": 0.4,
        "velocity": 0.63,
        "hand": "right"
      },
      {
        "midi": 67,
        "time": 7.2,
        "duration": 0.4,
        "velocity": 0.63,
        "hand": "right"
      },
      {
        "midi": 69,
        "time": 7.6,
        "duration": 0.4,
        "velocity": 0.63,
        "hand": "right"
      },
      {
        "midi": 71,
        "time": 8,
        "duration": 0.8,
        "velocity": 0.63,
        "hand": "right"
      },
      {
        "midi": 71,
        "time": 8.8,
        "duration": 0.8,
        "velocity": 0.63,
        "hand": "right"
      },
      {
        "midi": 69,
        "time": 9.6,
        "duration": 0.4,
        "velocity": 0.63,
        "hand": "right"
      },
      {
        "midi": 67,
        "time": 10,
        "duration": 0.4,
        "velocity": 0.63,
        "hand": "right"
      },
      {
        "midi": 69,
        "time": 10.4,
        "duration": 0.4,
        "velocity": 0.63,
        "hand": "right"
      },
      {
        "midi": 71,
        "time": 10.8,
        "duration": 0.4,
        "velocity": 0.63,
        "hand": "right"
      },
      {
        "midi": 67,
        "time": 11.2,
        "duration": 1.5,
        "velocity": 0.63,
        "hand": "right"
      },
      {
        "midi": 76,
        "time": 12.8,
        "duration": 0.4,
        "velocity": 0.63,
        "hand": "right"
      },
      {
        "midi": 76,
        "time": 13.2,
        "duration": 0.4,
        "velocity": 0.63,
        "hand": "right"
      },
      {
        "midi": 76,
        "time": 13.6,
        "duration": 0.4,
        "velocity": 0.63,
        "hand": "right"
      },
      {
        "midi": 76,
        "time": 14,
        "duration": 0.4,
        "velocity": 0.63,
        "hand": "right"
      },
      {
        "midi": 74,
        "time": 14.4,
        "duration": 0.8,
        "velocity": 0.63,
        "hand": "right"
      },
      {
        "midi": 71,
        "time": 15.2,
        "duration": 0.4,
        "velocity": 0.63,
        "hand": "right"
      },
      {
        "midi": 67,
        "time": 15.6,
        "duration": 0.4,
        "velocity": 0.63,
        "hand": "right"
      },
      {
        "midi": 76,
        "time": 16,
        "duration": 0.4,
        "velocity": 0.63,
        "hand": "right"
      },
      {
        "midi": 76,
        "time": 16.4,
        "duration": 0.4,
        "velocity": 0.63,
        "hand": "right"
      },
      {
        "midi": 76,
        "time": 16.8,
        "duration": 0.4,
        "velocity": 0.63,
        "hand": "right"
      },
      {
        "midi": 76,
        "time": 17.2,
        "duration": 0.4,
        "velocity": 0.63,
        "hand": "right"
      },
      {
        "midi": 74,
        "time": 17.6,
        "duration": 0.8,
        "velocity": 0.63,
        "hand": "right"
      },
      {
        "midi": 71,
        "time": 18.4,
        "duration": 0.8,
        "velocity": 0.63,
        "hand": "right"
      },
      {
        "midi": 67,
        "time": 19.2,
        "duration": 0.4,
        "velocity": 0.63,
        "hand": "right"
      },
      {
        "midi": 67,
        "time": 19.6,
        "duration": 0.4,
        "velocity": 0.63,
        "hand": "right"
      },
      {
        "midi": 67,
        "time": 20,
        "duration": 0.4,
        "velocity": 0.63,
        "hand": "right"
      },
      {
        "midi": 69,
        "time": 20.4,
        "duration": 0.4,
        "velocity": 0.63,
        "hand": "right"
      },
      {
        "midi": 71,
        "time": 20.8,
        "duration": 0.4,
        "velocity": 0.63,
        "hand": "right"
      },
      {
        "midi": 71,
        "time": 21.2,
        "duration": 0.4,
        "velocity": 0.63,
        "hand": "right"
      },
      {
        "midi": 71,
        "time": 21.6,
        "duration": 0.4,
        "velocity": 0.63,
        "hand": "right"
      },
      {
        "midi": 71,
        "time": 22,
        "duration": 0.4,
        "velocity": 0.63,
        "hand": "right"
      },
      {
        "midi": 69,
        "time": 22.4,
        "duration": 0.4,
        "velocity": 0.63,
        "hand": "right"
      },
      {
        "midi": 67,
        "time": 22.8,
        "duration": 0.4,
        "velocity": 0.63,
        "hand": "right"
      },
      {
        "midi": 69,
        "time": 23.2,
        "duration": 0.4,
        "velocity": 0.63,
        "hand": "right"
      },
      {
        "midi": 71,
        "time": 23.6,
        "duration": 0.4,
        "velocity": 0.63,
        "hand": "right"
      },
      {
        "midi": 67,
        "time": 24,
        "duration": 1.5,
        "velocity": 0.63,
        "hand": "right"
      },
      {
        "midi": 67,
        "time": 25.6,
        "duration": 0.4,
        "velocity": 0.63,
        "hand": "right"
      },
      {
        "midi": 67,
        "time": 26,
        "duration": 0.4,
        "velocity": 0.63,
        "hand": "right"
      },
      {
        "midi": 67,
        "time": 26.4,
        "duration": 0.4,
        "velocity": 0.63,
        "hand": "right"
      },
      {
        "midi": 69,
        "time": 26.8,
        "duration": 0.4,
        "velocity": 0.63,
        "hand": "right"
      },
      {
        "midi": 71,
        "time": 27.2,
        "duration": 0.8,
        "velocity": 0.63,
        "hand": "right"
      },
      {
        "midi": 71,
        "time": 28,
        "duration": 0.8,
        "velocity": 0.63,
        "hand": "right"
      },
      {
        "midi": 69,
        "time": 28.8,
        "duration": 0.4,
        "velocity": 0.63,
        "hand": "right"
      },
      {
        "midi": 67,
        "time": 29.2,
        "duration": 0.4,
        "velocity": 0.63,
        "hand": "right"
      },
      {
        "midi": 69,
        "time": 29.6,
        "duration": 0.4,
        "velocity": 0.63,
        "hand": "right"
      },
      {
        "midi": 71,
        "time": 30,
        "duration": 0.4,
        "velocity": 0.63,
        "hand": "right"
      },
      {
        "midi": 67,
        "time": 30.4,
        "duration": 0.8,
        "velocity": 0.63,
        "hand": "right"
      },
      {
        "midi": 62,
        "time": 31.2,
        "duration": 0.8,
        "velocity": 0.63,
        "hand": "right"
      },
      {
        "midi": 67,
        "time": 32,
        "duration": 0.4,
        "velocity": 0.63,
        "hand": "right"
      },
      {
        "midi": 67,
        "time": 32.4,
        "duration": 0.4,
        "velocity": 0.63,
        "hand": "right"
      },
      {
        "midi": 67,
        "time": 32.8,
        "duration": 0.4,
        "velocity": 0.63,
        "hand": "right"
      },
      {
        "midi": 69,
        "time": 33.2,
        "duration": 0.4,
        "velocity": 0.63,
        "hand": "right"
      },
      {
        "midi": 71,
        "time": 33.6,
        "duration": 0.8,
        "velocity": 0.63,
        "hand": "right"
      },
      {
        "midi": 71,
        "time": 34.4,
        "duration": 0.8,
        "velocity": 0.63,
        "hand": "right"
      },
      {
        "midi": 69,
        "time": 35.2,
        "duration": 0.4,
        "velocity": 0.63,
        "hand": "right"
      },
      {
        "midi": 67,
        "time": 35.6,
        "duration": 0.4,
        "velocity": 0.63,
        "hand": "right"
      },
      {
        "midi": 69,
        "time": 36,
        "duration": 0.4,
        "velocity": 0.63,
        "hand": "right"
      },
      {
        "midi": 71,
        "time": 36.4,
        "duration": 0.4,
        "velocity": 0.63,
        "hand": "right"
      },
      {
        "midi": 67,
        "time": 36.8,
        "duration": 0.8,
        "velocity": 0.63,
        "hand": "right"
      },
      {
        "midi": 67,
        "time": 37.6,
        "duration": 0.8,
        "velocity": 0.63,
        "hand": "right"
      }
    ],
    "medium": [
      {
        "midi": 55,
        "time": 0,
        "duration": 1.5,
        "velocity": 0.63,
        "hand": "left"
      },
      {
        "midi": 67,
        "time": 0,
        "duration": 0.8,
        "velocity": 0.63,
        "hand": "right"
      },
      {
        "midi": 67,
        "time": 0.8,
        "duration": 0.4,
        "velocity": 0.63,
        "hand": "right"
      },
      {
        "midi": 69,
        "time": 1.2,
        "duration": 0.4,
        "velocity": 0.63,
        "hand": "right"
      },
      {
        "midi": 55,
        "time": 1.6,
        "duration": 1.5,
        "velocity": 0.63,
        "hand": "left"
      },
      {
        "midi": 71,
        "time": 1.6,
        "duration": 0.8,
        "velocity": 0.63,
        "hand": "right"
      },
      {
        "midi": 71,
        "time": 2.4,
        "duration": 0.4,
        "velocity": 0.63,
        "hand": "right"
      },
      {
        "midi": 71,
        "time": 2.8,
        "duration": 0.4,
        "velocity": 0.63,
        "hand": "right"
      },
      {
        "midi": 50,
        "time": 3.2,
        "duration": 1.5,
        "velocity": 0.63,
        "hand": "left"
      },
      {
        "midi": 69,
        "time": 3.2,
        "duration": 0.4,
        "velocity": 0.63,
        "hand": "right"
      },
      {
        "midi": 67,
        "time": 3.6,
        "duration": 0.4,
        "velocity": 0.63,
        "hand": "right"
      },
      {
        "midi": 69,
        "time": 4,
        "duration": 0.4,
        "velocity": 0.63,
        "hand": "right"
      },
      {
        "midi": 71,
        "time": 4.4,
        "duration": 0.4,
        "velocity": 0.63,
        "hand": "right"
      },
      {
        "midi": 55,
        "time": 4.8,
        "duration": 1.5,
        "velocity": 0.63,
        "hand": "left"
      },
      {
        "midi": 67,
        "time": 4.8,
        "duration": 0.8,
        "velocity": 0.63,
        "hand": "right"
      },
      {
        "midi": 62,
        "time": 5.6,
        "duration": 0.8,
        "velocity": 0.63,
        "hand": "right"
      },
      {
        "midi": 55,
        "time": 6.4,
        "duration": 1.5,
        "velocity": 0.63,
        "hand": "left"
      },
      {
        "midi": 67,
        "time": 6.4,
        "duration": 0.4,
        "velocity": 0.63,
        "hand": "right"
      },
      {
        "midi": 67,
        "time": 6.8,
        "duration": 0.4,
        "velocity": 0.63,
        "hand": "right"
      },
      {
        "midi": 67,
        "time": 7.2,
        "duration": 0.4,
        "velocity": 0.63,
        "hand": "right"
      },
      {
        "midi": 69,
        "time": 7.6,
        "duration": 0.4,
        "velocity": 0.63,
        "hand": "right"
      },
      {
        "midi": 55,
        "time": 8,
        "duration": 1.5,
        "velocity": 0.63,
        "hand": "left"
      },
      {
        "midi": 71,
        "time": 8,
        "duration": 0.8,
        "velocity": 0.63,
        "hand": "right"
      },
      {
        "midi": 71,
        "time": 8.8,
        "duration": 0.8,
        "velocity": 0.63,
        "hand": "right"
      },
      {
        "midi": 50,
        "time": 9.6,
        "duration": 1.5,
        "velocity": 0.63,
        "hand": "left"
      },
      {
        "midi": 69,
        "time": 9.6,
        "duration": 0.4,
        "velocity": 0.63,
        "hand": "right"
      },
      {
        "midi": 67,
        "time": 10,
        "duration": 0.4,
        "velocity": 0.63,
        "hand": "right"
      },
      {
        "midi": 69,
        "time": 10.4,
        "duration": 0.4,
        "velocity": 0.63,
        "hand": "right"
      },
      {
        "midi": 71,
        "time": 10.8,
        "duration": 0.4,
        "velocity": 0.63,
        "hand": "right"
      },
      {
        "midi": 55,
        "time": 11.2,
        "duration": 1.5,
        "velocity": 0.63,
        "hand": "left"
      },
      {
        "midi": 67,
        "time": 11.2,
        "duration": 1.5,
        "velocity": 0.63,
        "hand": "right"
      },
      {
        "midi": 48,
        "time": 12.8,
        "duration": 1.5,
        "velocity": 0.63,
        "hand": "left"
      },
      {
        "midi": 76,
        "time": 12.8,
        "duration": 0.4,
        "velocity": 0.63,
        "hand": "right"
      },
      {
        "midi": 76,
        "time": 13.2,
        "duration": 0.4,
        "velocity": 0.63,
        "hand": "right"
      },
      {
        "midi": 76,
        "time": 13.6,
        "duration": 0.4,
        "velocity": 0.63,
        "hand": "right"
      },
      {
        "midi": 76,
        "time": 14,
        "duration": 0.4,
        "velocity": 0.63,
        "hand": "right"
      },
      {
        "midi": 55,
        "time": 14.4,
        "duration": 1.5,
        "velocity": 0.63,
        "hand": "left"
      },
      {
        "midi": 74,
        "time": 14.4,
        "duration": 0.8,
        "velocity": 0.63,
        "hand": "right"
      },
      {
        "midi": 71,
        "time": 15.2,
        "duration": 0.4,
        "velocity": 0.63,
        "hand": "right"
      },
      {
        "midi": 67,
        "time": 15.6,
        "duration": 0.4,
        "velocity": 0.63,
        "hand": "right"
      },
      {
        "midi": 48,
        "time": 16,
        "duration": 1.5,
        "velocity": 0.63,
        "hand": "left"
      },
      {
        "midi": 76,
        "time": 16,
        "duration": 0.4,
        "velocity": 0.63,
        "hand": "right"
      },
      {
        "midi": 76,
        "time": 16.4,
        "duration": 0.4,
        "velocity": 0.63,
        "hand": "right"
      },
      {
        "midi": 76,
        "time": 16.8,
        "duration": 0.4,
        "velocity": 0.63,
        "hand": "right"
      },
      {
        "midi": 76,
        "time": 17.2,
        "duration": 0.4,
        "velocity": 0.63,
        "hand": "right"
      },
      {
        "midi": 55,
        "time": 17.6,
        "duration": 1.5,
        "velocity": 0.63,
        "hand": "left"
      },
      {
        "midi": 74,
        "time": 17.6,
        "duration": 0.8,
        "velocity": 0.63,
        "hand": "right"
      },
      {
        "midi": 71,
        "time": 18.4,
        "duration": 0.8,
        "velocity": 0.63,
        "hand": "right"
      },
      {
        "midi": 55,
        "time": 19.2,
        "duration": 1.5,
        "velocity": 0.63,
        "hand": "left"
      },
      {
        "midi": 67,
        "time": 19.2,
        "duration": 0.4,
        "velocity": 0.63,
        "hand": "right"
      },
      {
        "midi": 67,
        "time": 19.6,
        "duration": 0.4,
        "velocity": 0.63,
        "hand": "right"
      },
      {
        "midi": 67,
        "time": 20,
        "duration": 0.4,
        "velocity": 0.63,
        "hand": "right"
      },
      {
        "midi": 69,
        "time": 20.4,
        "duration": 0.4,
        "velocity": 0.63,
        "hand": "right"
      },
      {
        "midi": 55,
        "time": 20.8,
        "duration": 1.5,
        "velocity": 0.63,
        "hand": "left"
      },
      {
        "midi": 71,
        "time": 20.8,
        "duration": 0.4,
        "velocity": 0.63,
        "hand": "right"
      },
      {
        "midi": 71,
        "time": 21.2,
        "duration": 0.4,
        "velocity": 0.63,
        "hand": "right"
      },
      {
        "midi": 71,
        "time": 21.6,
        "duration": 0.4,
        "velocity": 0.63,
        "hand": "right"
      },
      {
        "midi": 71,
        "time": 22,
        "duration": 0.4,
        "velocity": 0.63,
        "hand": "right"
      },
      {
        "midi": 50,
        "time": 22.4,
        "duration": 1.5,
        "velocity": 0.63,
        "hand": "left"
      },
      {
        "midi": 69,
        "time": 22.4,
        "duration": 0.4,
        "velocity": 0.63,
        "hand": "right"
      },
      {
        "midi": 67,
        "time": 22.8,
        "duration": 0.4,
        "velocity": 0.63,
        "hand": "right"
      },
      {
        "midi": 69,
        "time": 23.2,
        "duration": 0.4,
        "velocity": 0.63,
        "hand": "right"
      },
      {
        "midi": 71,
        "time": 23.6,
        "duration": 0.4,
        "velocity": 0.63,
        "hand": "right"
      },
      {
        "midi": 55,
        "time": 24,
        "duration": 1.5,
        "velocity": 0.63,
        "hand": "left"
      },
      {
        "midi": 67,
        "time": 24,
        "duration": 1.5,
        "velocity": 0.63,
        "hand": "right"
      },
      {
        "midi": 55,
        "time": 25.6,
        "duration": 1.5,
        "velocity": 0.63,
        "hand": "left"
      },
      {
        "midi": 67,
        "time": 25.6,
        "duration": 0.4,
        "velocity": 0.63,
        "hand": "right"
      },
      {
        "midi": 67,
        "time": 26,
        "duration": 0.4,
        "velocity": 0.63,
        "hand": "right"
      },
      {
        "midi": 67,
        "time": 26.4,
        "duration": 0.4,
        "velocity": 0.63,
        "hand": "right"
      },
      {
        "midi": 69,
        "time": 26.8,
        "duration": 0.4,
        "velocity": 0.63,
        "hand": "right"
      },
      {
        "midi": 55,
        "time": 27.2,
        "duration": 1.5,
        "velocity": 0.63,
        "hand": "left"
      },
      {
        "midi": 71,
        "time": 27.2,
        "duration": 0.8,
        "velocity": 0.63,
        "hand": "right"
      },
      {
        "midi": 71,
        "time": 28,
        "duration": 0.8,
        "velocity": 0.63,
        "hand": "right"
      },
      {
        "midi": 50,
        "time": 28.8,
        "duration": 1.5,
        "velocity": 0.63,
        "hand": "left"
      },
      {
        "midi": 69,
        "time": 28.8,
        "duration": 0.4,
        "velocity": 0.63,
        "hand": "right"
      },
      {
        "midi": 67,
        "time": 29.2,
        "duration": 0.4,
        "velocity": 0.63,
        "hand": "right"
      },
      {
        "midi": 69,
        "time": 29.6,
        "duration": 0.4,
        "velocity": 0.63,
        "hand": "right"
      },
      {
        "midi": 71,
        "time": 30,
        "duration": 0.4,
        "velocity": 0.63,
        "hand": "right"
      },
      {
        "midi": 55,
        "time": 30.4,
        "duration": 1.5,
        "velocity": 0.63,
        "hand": "left"
      },
      {
        "midi": 67,
        "time": 30.4,
        "duration": 0.8,
        "velocity": 0.63,
        "hand": "right"
      },
      {
        "midi": 62,
        "time": 31.2,
        "duration": 0.8,
        "velocity": 0.63,
        "hand": "right"
      },
      {
        "midi": 55,
        "time": 32,
        "duration": 1.5,
        "velocity": 0.63,
        "hand": "left"
      },
      {
        "midi": 67,
        "time": 32,
        "duration": 0.4,
        "velocity": 0.63,
        "hand": "right"
      },
      {
        "midi": 67,
        "time": 32.4,
        "duration": 0.4,
        "velocity": 0.63,
        "hand": "right"
      },
      {
        "midi": 67,
        "time": 32.8,
        "duration": 0.4,
        "velocity": 0.63,
        "hand": "right"
      },
      {
        "midi": 69,
        "time": 33.2,
        "duration": 0.4,
        "velocity": 0.63,
        "hand": "right"
      },
      {
        "midi": 55,
        "time": 33.6,
        "duration": 1.5,
        "velocity": 0.63,
        "hand": "left"
      },
      {
        "midi": 71,
        "time": 33.6,
        "duration": 0.8,
        "velocity": 0.63,
        "hand": "right"
      },
      {
        "midi": 71,
        "time": 34.4,
        "duration": 0.8,
        "velocity": 0.63,
        "hand": "right"
      },
      {
        "midi": 50,
        "time": 35.2,
        "duration": 1.5,
        "velocity": 0.63,
        "hand": "left"
      },
      {
        "midi": 69,
        "time": 35.2,
        "duration": 0.4,
        "velocity": 0.63,
        "hand": "right"
      },
      {
        "midi": 67,
        "time": 35.6,
        "duration": 0.4,
        "velocity": 0.63,
        "hand": "right"
      },
      {
        "midi": 69,
        "time": 36,
        "duration": 0.4,
        "velocity": 0.63,
        "hand": "right"
      },
      {
        "midi": 71,
        "time": 36.4,
        "duration": 0.4,
        "velocity": 0.63,
        "hand": "right"
      },
      {
        "midi": 55,
        "time": 36.8,
        "duration": 1.5,
        "velocity": 0.63,
        "hand": "left"
      },
      {
        "midi": 67,
        "time": 36.8,
        "duration": 0.8,
        "velocity": 0.63,
        "hand": "right"
      },
      {
        "midi": 67,
        "time": 37.6,
        "duration": 0.8,
        "velocity": 0.63,
        "hand": "right"
      }
    ],
    "hard": [
      {
        "midi": 55,
        "time": 0,
        "duration": 1.5,
        "velocity": 0.63,
        "hand": "left"
      },
      {
        "midi": 67,
        "time": 0,
        "duration": 0.8,
        "velocity": 0.63,
        "hand": "right"
      },
      {
        "midi": 67,
        "time": 0.8,
        "duration": 0.4,
        "velocity": 0.63,
        "hand": "right"
      },
      {
        "midi": 69,
        "time": 1.2,
        "duration": 0.4,
        "velocity": 0.63,
        "hand": "right"
      },
      {
        "midi": 55,
        "time": 1.6,
        "duration": 1.5,
        "velocity": 0.63,
        "hand": "left"
      },
      {
        "midi": 71,
        "time": 1.6,
        "duration": 0.8,
        "velocity": 0.63,
        "hand": "right"
      },
      {
        "midi": 71,
        "time": 2.4,
        "duration": 0.4,
        "velocity": 0.63,
        "hand": "right"
      },
      {
        "midi": 71,
        "time": 2.8,
        "duration": 0.4,
        "velocity": 0.63,
        "hand": "right"
      },
      {
        "midi": 50,
        "time": 3.2,
        "duration": 1.5,
        "velocity": 0.63,
        "hand": "left"
      },
      {
        "midi": 69,
        "time": 3.2,
        "duration": 0.4,
        "velocity": 0.63,
        "hand": "right"
      },
      {
        "midi": 67,
        "time": 3.6,
        "duration": 0.4,
        "velocity": 0.63,
        "hand": "right"
      },
      {
        "midi": 69,
        "time": 4,
        "duration": 0.4,
        "velocity": 0.63,
        "hand": "right"
      },
      {
        "midi": 71,
        "time": 4.4,
        "duration": 0.4,
        "velocity": 0.63,
        "hand": "right"
      },
      {
        "midi": 55,
        "time": 4.8,
        "duration": 1.5,
        "velocity": 0.63,
        "hand": "left"
      },
      {
        "midi": 67,
        "time": 4.8,
        "duration": 0.8,
        "velocity": 0.63,
        "hand": "right"
      },
      {
        "midi": 62,
        "time": 5.6,
        "duration": 0.8,
        "velocity": 0.63,
        "hand": "right"
      },
      {
        "midi": 55,
        "time": 6.4,
        "duration": 1.5,
        "velocity": 0.63,
        "hand": "left"
      },
      {
        "midi": 67,
        "time": 6.4,
        "duration": 0.4,
        "velocity": 0.63,
        "hand": "right"
      },
      {
        "midi": 67,
        "time": 6.8,
        "duration": 0.4,
        "velocity": 0.63,
        "hand": "right"
      },
      {
        "midi": 67,
        "time": 7.2,
        "duration": 0.4,
        "velocity": 0.63,
        "hand": "right"
      },
      {
        "midi": 69,
        "time": 7.6,
        "duration": 0.4,
        "velocity": 0.63,
        "hand": "right"
      },
      {
        "midi": 55,
        "time": 8,
        "duration": 1.5,
        "velocity": 0.63,
        "hand": "left"
      },
      {
        "midi": 71,
        "time": 8,
        "duration": 0.8,
        "velocity": 0.63,
        "hand": "right"
      },
      {
        "midi": 71,
        "time": 8.8,
        "duration": 0.8,
        "velocity": 0.63,
        "hand": "right"
      },
      {
        "midi": 50,
        "time": 9.6,
        "duration": 1.5,
        "velocity": 0.63,
        "hand": "left"
      },
      {
        "midi": 69,
        "time": 9.6,
        "duration": 0.4,
        "velocity": 0.63,
        "hand": "right"
      },
      {
        "midi": 67,
        "time": 10,
        "duration": 0.4,
        "velocity": 0.63,
        "hand": "right"
      },
      {
        "midi": 69,
        "time": 10.4,
        "duration": 0.4,
        "velocity": 0.63,
        "hand": "right"
      },
      {
        "midi": 71,
        "time": 10.8,
        "duration": 0.4,
        "velocity": 0.63,
        "hand": "right"
      },
      {
        "midi": 55,
        "time": 11.2,
        "duration": 1.5,
        "velocity": 0.63,
        "hand": "left"
      },
      {
        "midi": 67,
        "time": 11.2,
        "duration": 1.5,
        "velocity": 0.63,
        "hand": "right"
      },
      {
        "midi": 48,
        "time": 12.8,
        "duration": 1.5,
        "velocity": 0.63,
        "hand": "left"
      },
      {
        "midi": 76,
        "time": 12.8,
        "duration": 0.4,
        "velocity": 0.63,
        "hand": "right"
      },
      {
        "midi": 76,
        "time": 13.2,
        "duration": 0.4,
        "velocity": 0.63,
        "hand": "right"
      },
      {
        "midi": 76,
        "time": 13.6,
        "duration": 0.4,
        "velocity": 0.63,
        "hand": "right"
      },
      {
        "midi": 76,
        "time": 14,
        "duration": 0.4,
        "velocity": 0.63,
        "hand": "right"
      },
      {
        "midi": 55,
        "time": 14.4,
        "duration": 1.5,
        "velocity": 0.63,
        "hand": "left"
      },
      {
        "midi": 74,
        "time": 14.4,
        "duration": 0.8,
        "velocity": 0.63,
        "hand": "right"
      },
      {
        "midi": 71,
        "time": 15.2,
        "duration": 0.4,
        "velocity": 0.63,
        "hand": "right"
      },
      {
        "midi": 67,
        "time": 15.6,
        "duration": 0.4,
        "velocity": 0.63,
        "hand": "right"
      },
      {
        "midi": 48,
        "time": 16,
        "duration": 1.5,
        "velocity": 0.63,
        "hand": "left"
      },
      {
        "midi": 76,
        "time": 16,
        "duration": 0.4,
        "velocity": 0.63,
        "hand": "right"
      },
      {
        "midi": 76,
        "time": 16.4,
        "duration": 0.4,
        "velocity": 0.63,
        "hand": "right"
      },
      {
        "midi": 76,
        "time": 16.8,
        "duration": 0.4,
        "velocity": 0.63,
        "hand": "right"
      },
      {
        "midi": 76,
        "time": 17.2,
        "duration": 0.4,
        "velocity": 0.63,
        "hand": "right"
      },
      {
        "midi": 55,
        "time": 17.6,
        "duration": 1.5,
        "velocity": 0.63,
        "hand": "left"
      },
      {
        "midi": 74,
        "time": 17.6,
        "duration": 0.8,
        "velocity": 0.63,
        "hand": "right"
      },
      {
        "midi": 71,
        "time": 18.4,
        "duration": 0.8,
        "velocity": 0.63,
        "hand": "right"
      },
      {
        "midi": 55,
        "time": 19.2,
        "duration": 1.5,
        "velocity": 0.63,
        "hand": "left"
      },
      {
        "midi": 67,
        "time": 19.2,
        "duration": 0.4,
        "velocity": 0.63,
        "hand": "right"
      },
      {
        "midi": 67,
        "time": 19.6,
        "duration": 0.4,
        "velocity": 0.63,
        "hand": "right"
      },
      {
        "midi": 67,
        "time": 20,
        "duration": 0.4,
        "velocity": 0.63,
        "hand": "right"
      },
      {
        "midi": 69,
        "time": 20.4,
        "duration": 0.4,
        "velocity": 0.63,
        "hand": "right"
      },
      {
        "midi": 55,
        "time": 20.8,
        "duration": 1.5,
        "velocity": 0.63,
        "hand": "left"
      },
      {
        "midi": 71,
        "time": 20.8,
        "duration": 0.4,
        "velocity": 0.63,
        "hand": "right"
      },
      {
        "midi": 71,
        "time": 21.2,
        "duration": 0.4,
        "velocity": 0.63,
        "hand": "right"
      },
      {
        "midi": 71,
        "time": 21.6,
        "duration": 0.4,
        "velocity": 0.63,
        "hand": "right"
      },
      {
        "midi": 71,
        "time": 22,
        "duration": 0.4,
        "velocity": 0.63,
        "hand": "right"
      },
      {
        "midi": 50,
        "time": 22.4,
        "duration": 1.5,
        "velocity": 0.63,
        "hand": "left"
      },
      {
        "midi": 69,
        "time": 22.4,
        "duration": 0.4,
        "velocity": 0.63,
        "hand": "right"
      },
      {
        "midi": 67,
        "time": 22.8,
        "duration": 0.4,
        "velocity": 0.63,
        "hand": "right"
      },
      {
        "midi": 69,
        "time": 23.2,
        "duration": 0.4,
        "velocity": 0.63,
        "hand": "right"
      },
      {
        "midi": 71,
        "time": 23.6,
        "duration": 0.4,
        "velocity": 0.63,
        "hand": "right"
      },
      {
        "midi": 55,
        "time": 24,
        "duration": 1.5,
        "velocity": 0.63,
        "hand": "left"
      },
      {
        "midi": 67,
        "time": 24,
        "duration": 1.5,
        "velocity": 0.63,
        "hand": "right"
      },
      {
        "midi": 55,
        "time": 25.6,
        "duration": 1.5,
        "velocity": 0.63,
        "hand": "left"
      },
      {
        "midi": 67,
        "time": 25.6,
        "duration": 0.4,
        "velocity": 0.63,
        "hand": "right"
      },
      {
        "midi": 67,
        "time": 26,
        "duration": 0.4,
        "velocity": 0.63,
        "hand": "right"
      },
      {
        "midi": 67,
        "time": 26.4,
        "duration": 0.4,
        "velocity": 0.63,
        "hand": "right"
      },
      {
        "midi": 69,
        "time": 26.8,
        "duration": 0.4,
        "velocity": 0.63,
        "hand": "right"
      },
      {
        "midi": 55,
        "time": 27.2,
        "duration": 1.5,
        "velocity": 0.63,
        "hand": "left"
      },
      {
        "midi": 71,
        "time": 27.2,
        "duration": 0.8,
        "velocity": 0.63,
        "hand": "right"
      },
      {
        "midi": 71,
        "time": 28,
        "duration": 0.8,
        "velocity": 0.63,
        "hand": "right"
      },
      {
        "midi": 50,
        "time": 28.8,
        "duration": 1.5,
        "velocity": 0.63,
        "hand": "left"
      },
      {
        "midi": 69,
        "time": 28.8,
        "duration": 0.4,
        "velocity": 0.63,
        "hand": "right"
      },
      {
        "midi": 67,
        "time": 29.2,
        "duration": 0.4,
        "velocity": 0.63,
        "hand": "right"
      },
      {
        "midi": 69,
        "time": 29.6,
        "duration": 0.4,
        "velocity": 0.63,
        "hand": "right"
      },
      {
        "midi": 71,
        "time": 30,
        "duration": 0.4,
        "velocity": 0.63,
        "hand": "right"
      },
      {
        "midi": 55,
        "time": 30.4,
        "duration": 1.5,
        "velocity": 0.63,
        "hand": "left"
      },
      {
        "midi": 67,
        "time": 30.4,
        "duration": 0.8,
        "velocity": 0.63,
        "hand": "right"
      },
      {
        "midi": 62,
        "time": 31.2,
        "duration": 0.8,
        "velocity": 0.63,
        "hand": "right"
      },
      {
        "midi": 55,
        "time": 32,
        "duration": 1.5,
        "velocity": 0.63,
        "hand": "left"
      },
      {
        "midi": 67,
        "time": 32,
        "duration": 0.4,
        "velocity": 0.63,
        "hand": "right"
      },
      {
        "midi": 67,
        "time": 32.4,
        "duration": 0.4,
        "velocity": 0.63,
        "hand": "right"
      },
      {
        "midi": 67,
        "time": 32.8,
        "duration": 0.4,
        "velocity": 0.63,
        "hand": "right"
      },
      {
        "midi": 69,
        "time": 33.2,
        "duration": 0.4,
        "velocity": 0.63,
        "hand": "right"
      },
      {
        "midi": 55,
        "time": 33.6,
        "duration": 1.5,
        "velocity": 0.63,
        "hand": "left"
      },
      {
        "midi": 71,
        "time": 33.6,
        "duration": 0.8,
        "velocity": 0.63,
        "hand": "right"
      },
      {
        "midi": 71,
        "time": 34.4,
        "duration": 0.8,
        "velocity": 0.63,
        "hand": "right"
      },
      {
        "midi": 50,
        "time": 35.2,
        "duration": 1.5,
        "velocity": 0.63,
        "hand": "left"
      },
      {
        "midi": 69,
        "time": 35.2,
        "duration": 0.4,
        "velocity": 0.63,
        "hand": "right"
      },
      {
        "midi": 67,
        "time": 35.6,
        "duration": 0.4,
        "velocity": 0.63,
        "hand": "right"
      },
      {
        "midi": 69,
        "time": 36,
        "duration": 0.4,
        "velocity": 0.63,
        "hand": "right"
      },
      {
        "midi": 71,
        "time": 36.4,
        "duration": 0.4,
        "velocity": 0.63,
        "hand": "right"
      },
      {
        "midi": 55,
        "time": 36.8,
        "duration": 1.5,
        "velocity": 0.63,
        "hand": "left"
      },
      {
        "midi": 67,
        "time": 36.8,
        "duration": 0.8,
        "velocity": 0.63,
        "hand": "right"
      },
      {
        "midi": 67,
        "time": 37.6,
        "duration": 0.8,
        "velocity": 0.63,
        "hand": "right"
      }
    ]
  },
  "notes1Hand": [
    {
      "midi": 67,
      "time": 0,
      "duration": 0.8,
      "velocity": 0.63,
      "hand": "right"
    },
    {
      "midi": 67,
      "time": 0.8,
      "duration": 0.4,
      "velocity": 0.63,
      "hand": "right"
    },
    {
      "midi": 69,
      "time": 1.2,
      "duration": 0.4,
      "velocity": 0.63,
      "hand": "right"
    },
    {
      "midi": 71,
      "time": 1.6,
      "duration": 0.8,
      "velocity": 0.63,
      "hand": "right"
    },
    {
      "midi": 71,
      "time": 2.4,
      "duration": 0.4,
      "velocity": 0.63,
      "hand": "right"
    },
    {
      "midi": 71,
      "time": 2.8,
      "duration": 0.4,
      "velocity": 0.63,
      "hand": "right"
    },
    {
      "midi": 69,
      "time": 3.2,
      "duration": 0.4,
      "velocity": 0.63,
      "hand": "right"
    },
    {
      "midi": 67,
      "time": 3.6,
      "duration": 0.4,
      "velocity": 0.63,
      "hand": "right"
    },
    {
      "midi": 69,
      "time": 4,
      "duration": 0.4,
      "velocity": 0.63,
      "hand": "right"
    },
    {
      "midi": 71,
      "time": 4.4,
      "duration": 0.4,
      "velocity": 0.63,
      "hand": "right"
    },
    {
      "midi": 67,
      "time": 4.8,
      "duration": 0.8,
      "velocity": 0.63,
      "hand": "right"
    },
    {
      "midi": 62,
      "time": 5.6,
      "duration": 0.8,
      "velocity": 0.63,
      "hand": "right"
    },
    {
      "midi": 67,
      "time": 6.4,
      "duration": 0.4,
      "velocity": 0.63,
      "hand": "right"
    },
    {
      "midi": 67,
      "time": 6.8,
      "duration": 0.4,
      "velocity": 0.63,
      "hand": "right"
    },
    {
      "midi": 67,
      "time": 7.2,
      "duration": 0.4,
      "velocity": 0.63,
      "hand": "right"
    },
    {
      "midi": 69,
      "time": 7.6,
      "duration": 0.4,
      "velocity": 0.63,
      "hand": "right"
    },
    {
      "midi": 71,
      "time": 8,
      "duration": 0.8,
      "velocity": 0.63,
      "hand": "right"
    },
    {
      "midi": 71,
      "time": 8.8,
      "duration": 0.8,
      "velocity": 0.63,
      "hand": "right"
    },
    {
      "midi": 69,
      "time": 9.6,
      "duration": 0.4,
      "velocity": 0.63,
      "hand": "right"
    },
    {
      "midi": 67,
      "time": 10,
      "duration": 0.4,
      "velocity": 0.63,
      "hand": "right"
    },
    {
      "midi": 69,
      "time": 10.4,
      "duration": 0.4,
      "velocity": 0.63,
      "hand": "right"
    },
    {
      "midi": 71,
      "time": 10.8,
      "duration": 0.4,
      "velocity": 0.63,
      "hand": "right"
    },
    {
      "midi": 67,
      "time": 11.2,
      "duration": 1.5,
      "velocity": 0.63,
      "hand": "right"
    },
    {
      "midi": 76,
      "time": 12.8,
      "duration": 0.4,
      "velocity": 0.63,
      "hand": "right"
    },
    {
      "midi": 76,
      "time": 13.2,
      "duration": 0.4,
      "velocity": 0.63,
      "hand": "right"
    },
    {
      "midi": 76,
      "time": 13.6,
      "duration": 0.4,
      "velocity": 0.63,
      "hand": "right"
    },
    {
      "midi": 76,
      "time": 14,
      "duration": 0.4,
      "velocity": 0.63,
      "hand": "right"
    },
    {
      "midi": 74,
      "time": 14.4,
      "duration": 0.8,
      "velocity": 0.63,
      "hand": "right"
    },
    {
      "midi": 71,
      "time": 15.2,
      "duration": 0.4,
      "velocity": 0.63,
      "hand": "right"
    },
    {
      "midi": 67,
      "time": 15.6,
      "duration": 0.4,
      "velocity": 0.63,
      "hand": "right"
    },
    {
      "midi": 76,
      "time": 16,
      "duration": 0.4,
      "velocity": 0.63,
      "hand": "right"
    },
    {
      "midi": 76,
      "time": 16.4,
      "duration": 0.4,
      "velocity": 0.63,
      "hand": "right"
    },
    {
      "midi": 76,
      "time": 16.8,
      "duration": 0.4,
      "velocity": 0.63,
      "hand": "right"
    },
    {
      "midi": 76,
      "time": 17.2,
      "duration": 0.4,
      "velocity": 0.63,
      "hand": "right"
    },
    {
      "midi": 74,
      "time": 17.6,
      "duration": 0.8,
      "velocity": 0.63,
      "hand": "right"
    },
    {
      "midi": 71,
      "time": 18.4,
      "duration": 0.8,
      "velocity": 0.63,
      "hand": "right"
    },
    {
      "midi": 67,
      "time": 19.2,
      "duration": 0.4,
      "velocity": 0.63,
      "hand": "right"
    },
    {
      "midi": 67,
      "time": 19.6,
      "duration": 0.4,
      "velocity": 0.63,
      "hand": "right"
    },
    {
      "midi": 67,
      "time": 20,
      "duration": 0.4,
      "velocity": 0.63,
      "hand": "right"
    },
    {
      "midi": 69,
      "time": 20.4,
      "duration": 0.4,
      "velocity": 0.63,
      "hand": "right"
    },
    {
      "midi": 71,
      "time": 20.8,
      "duration": 0.4,
      "velocity": 0.63,
      "hand": "right"
    },
    {
      "midi": 71,
      "time": 21.2,
      "duration": 0.4,
      "velocity": 0.63,
      "hand": "right"
    },
    {
      "midi": 71,
      "time": 21.6,
      "duration": 0.4,
      "velocity": 0.63,
      "hand": "right"
    },
    {
      "midi": 71,
      "time": 22,
      "duration": 0.4,
      "velocity": 0.63,
      "hand": "right"
    },
    {
      "midi": 69,
      "time": 22.4,
      "duration": 0.4,
      "velocity": 0.63,
      "hand": "right"
    },
    {
      "midi": 67,
      "time": 22.8,
      "duration": 0.4,
      "velocity": 0.63,
      "hand": "right"
    },
    {
      "midi": 69,
      "time": 23.2,
      "duration": 0.4,
      "velocity": 0.63,
      "hand": "right"
    },
    {
      "midi": 71,
      "time": 23.6,
      "duration": 0.4,
      "velocity": 0.63,
      "hand": "right"
    },
    {
      "midi": 67,
      "time": 24,
      "duration": 1.5,
      "velocity": 0.63,
      "hand": "right"
    },
    {
      "midi": 67,
      "time": 25.6,
      "duration": 0.4,
      "velocity": 0.63,
      "hand": "right"
    },
    {
      "midi": 67,
      "time": 26,
      "duration": 0.4,
      "velocity": 0.63,
      "hand": "right"
    },
    {
      "midi": 67,
      "time": 26.4,
      "duration": 0.4,
      "velocity": 0.63,
      "hand": "right"
    },
    {
      "midi": 69,
      "time": 26.8,
      "duration": 0.4,
      "velocity": 0.63,
      "hand": "right"
    },
    {
      "midi": 71,
      "time": 27.2,
      "duration": 0.8,
      "velocity": 0.63,
      "hand": "right"
    },
    {
      "midi": 71,
      "time": 28,
      "duration": 0.8,
      "velocity": 0.63,
      "hand": "right"
    },
    {
      "midi": 69,
      "time": 28.8,
      "duration": 0.4,
      "velocity": 0.63,
      "hand": "right"
    },
    {
      "midi": 67,
      "time": 29.2,
      "duration": 0.4,
      "velocity": 0.63,
      "hand": "right"
    },
    {
      "midi": 69,
      "time": 29.6,
      "duration": 0.4,
      "velocity": 0.63,
      "hand": "right"
    },
    {
      "midi": 71,
      "time": 30,
      "duration": 0.4,
      "velocity": 0.63,
      "hand": "right"
    },
    {
      "midi": 67,
      "time": 30.4,
      "duration": 0.8,
      "velocity": 0.63,
      "hand": "right"
    },
    {
      "midi": 62,
      "time": 31.2,
      "duration": 0.8,
      "velocity": 0.63,
      "hand": "right"
    },
    {
      "midi": 67,
      "time": 32,
      "duration": 0.4,
      "velocity": 0.63,
      "hand": "right"
    },
    {
      "midi": 67,
      "time": 32.4,
      "duration": 0.4,
      "velocity": 0.63,
      "hand": "right"
    },
    {
      "midi": 67,
      "time": 32.8,
      "duration": 0.4,
      "velocity": 0.63,
      "hand": "right"
    },
    {
      "midi": 69,
      "time": 33.2,
      "duration": 0.4,
      "velocity": 0.63,
      "hand": "right"
    },
    {
      "midi": 71,
      "time": 33.6,
      "duration": 0.8,
      "velocity": 0.63,
      "hand": "right"
    },
    {
      "midi": 71,
      "time": 34.4,
      "duration": 0.8,
      "velocity": 0.63,
      "hand": "right"
    },
    {
      "midi": 69,
      "time": 35.2,
      "duration": 0.4,
      "velocity": 0.63,
      "hand": "right"
    },
    {
      "midi": 67,
      "time": 35.6,
      "duration": 0.4,
      "velocity": 0.63,
      "hand": "right"
    },
    {
      "midi": 69,
      "time": 36,
      "duration": 0.4,
      "velocity": 0.63,
      "hand": "right"
    },
    {
      "midi": 71,
      "time": 36.4,
      "duration": 0.4,
      "velocity": 0.63,
      "hand": "right"
    },
    {
      "midi": 67,
      "time": 36.8,
      "duration": 0.8,
      "velocity": 0.63,
      "hand": "right"
    },
    {
      "midi": 67,
      "time": 37.6,
      "duration": 0.8,
      "velocity": 0.63,
      "hand": "right"
    }
  ],
  "notes2Hands": [
    {
      "midi": 55,
      "time": 0,
      "duration": 1.5,
      "velocity": 0.63,
      "hand": "left"
    },
    {
      "midi": 67,
      "time": 0,
      "duration": 0.8,
      "velocity": 0.63,
      "hand": "right"
    },
    {
      "midi": 67,
      "time": 0.8,
      "duration": 0.4,
      "velocity": 0.63,
      "hand": "right"
    },
    {
      "midi": 69,
      "time": 1.2,
      "duration": 0.4,
      "velocity": 0.63,
      "hand": "right"
    },
    {
      "midi": 55,
      "time": 1.6,
      "duration": 1.5,
      "velocity": 0.63,
      "hand": "left"
    },
    {
      "midi": 71,
      "time": 1.6,
      "duration": 0.8,
      "velocity": 0.63,
      "hand": "right"
    },
    {
      "midi": 71,
      "time": 2.4,
      "duration": 0.4,
      "velocity": 0.63,
      "hand": "right"
    },
    {
      "midi": 71,
      "time": 2.8,
      "duration": 0.4,
      "velocity": 0.63,
      "hand": "right"
    },
    {
      "midi": 50,
      "time": 3.2,
      "duration": 1.5,
      "velocity": 0.63,
      "hand": "left"
    },
    {
      "midi": 69,
      "time": 3.2,
      "duration": 0.4,
      "velocity": 0.63,
      "hand": "right"
    },
    {
      "midi": 67,
      "time": 3.6,
      "duration": 0.4,
      "velocity": 0.63,
      "hand": "right"
    },
    {
      "midi": 69,
      "time": 4,
      "duration": 0.4,
      "velocity": 0.63,
      "hand": "right"
    },
    {
      "midi": 71,
      "time": 4.4,
      "duration": 0.4,
      "velocity": 0.63,
      "hand": "right"
    },
    {
      "midi": 55,
      "time": 4.8,
      "duration": 1.5,
      "velocity": 0.63,
      "hand": "left"
    },
    {
      "midi": 67,
      "time": 4.8,
      "duration": 0.8,
      "velocity": 0.63,
      "hand": "right"
    },
    {
      "midi": 62,
      "time": 5.6,
      "duration": 0.8,
      "velocity": 0.63,
      "hand": "right"
    },
    {
      "midi": 55,
      "time": 6.4,
      "duration": 1.5,
      "velocity": 0.63,
      "hand": "left"
    },
    {
      "midi": 67,
      "time": 6.4,
      "duration": 0.4,
      "velocity": 0.63,
      "hand": "right"
    },
    {
      "midi": 67,
      "time": 6.8,
      "duration": 0.4,
      "velocity": 0.63,
      "hand": "right"
    },
    {
      "midi": 67,
      "time": 7.2,
      "duration": 0.4,
      "velocity": 0.63,
      "hand": "right"
    },
    {
      "midi": 69,
      "time": 7.6,
      "duration": 0.4,
      "velocity": 0.63,
      "hand": "right"
    },
    {
      "midi": 55,
      "time": 8,
      "duration": 1.5,
      "velocity": 0.63,
      "hand": "left"
    },
    {
      "midi": 71,
      "time": 8,
      "duration": 0.8,
      "velocity": 0.63,
      "hand": "right"
    },
    {
      "midi": 71,
      "time": 8.8,
      "duration": 0.8,
      "velocity": 0.63,
      "hand": "right"
    },
    {
      "midi": 50,
      "time": 9.6,
      "duration": 1.5,
      "velocity": 0.63,
      "hand": "left"
    },
    {
      "midi": 69,
      "time": 9.6,
      "duration": 0.4,
      "velocity": 0.63,
      "hand": "right"
    },
    {
      "midi": 67,
      "time": 10,
      "duration": 0.4,
      "velocity": 0.63,
      "hand": "right"
    },
    {
      "midi": 69,
      "time": 10.4,
      "duration": 0.4,
      "velocity": 0.63,
      "hand": "right"
    },
    {
      "midi": 71,
      "time": 10.8,
      "duration": 0.4,
      "velocity": 0.63,
      "hand": "right"
    },
    {
      "midi": 55,
      "time": 11.2,
      "duration": 1.5,
      "velocity": 0.63,
      "hand": "left"
    },
    {
      "midi": 67,
      "time": 11.2,
      "duration": 1.5,
      "velocity": 0.63,
      "hand": "right"
    },
    {
      "midi": 48,
      "time": 12.8,
      "duration": 1.5,
      "velocity": 0.63,
      "hand": "left"
    },
    {
      "midi": 76,
      "time": 12.8,
      "duration": 0.4,
      "velocity": 0.63,
      "hand": "right"
    },
    {
      "midi": 76,
      "time": 13.2,
      "duration": 0.4,
      "velocity": 0.63,
      "hand": "right"
    },
    {
      "midi": 76,
      "time": 13.6,
      "duration": 0.4,
      "velocity": 0.63,
      "hand": "right"
    },
    {
      "midi": 76,
      "time": 14,
      "duration": 0.4,
      "velocity": 0.63,
      "hand": "right"
    },
    {
      "midi": 55,
      "time": 14.4,
      "duration": 1.5,
      "velocity": 0.63,
      "hand": "left"
    },
    {
      "midi": 74,
      "time": 14.4,
      "duration": 0.8,
      "velocity": 0.63,
      "hand": "right"
    },
    {
      "midi": 71,
      "time": 15.2,
      "duration": 0.4,
      "velocity": 0.63,
      "hand": "right"
    },
    {
      "midi": 67,
      "time": 15.6,
      "duration": 0.4,
      "velocity": 0.63,
      "hand": "right"
    },
    {
      "midi": 48,
      "time": 16,
      "duration": 1.5,
      "velocity": 0.63,
      "hand": "left"
    },
    {
      "midi": 76,
      "time": 16,
      "duration": 0.4,
      "velocity": 0.63,
      "hand": "right"
    },
    {
      "midi": 76,
      "time": 16.4,
      "duration": 0.4,
      "velocity": 0.63,
      "hand": "right"
    },
    {
      "midi": 76,
      "time": 16.8,
      "duration": 0.4,
      "velocity": 0.63,
      "hand": "right"
    },
    {
      "midi": 76,
      "time": 17.2,
      "duration": 0.4,
      "velocity": 0.63,
      "hand": "right"
    },
    {
      "midi": 55,
      "time": 17.6,
      "duration": 1.5,
      "velocity": 0.63,
      "hand": "left"
    },
    {
      "midi": 74,
      "time": 17.6,
      "duration": 0.8,
      "velocity": 0.63,
      "hand": "right"
    },
    {
      "midi": 71,
      "time": 18.4,
      "duration": 0.8,
      "velocity": 0.63,
      "hand": "right"
    },
    {
      "midi": 55,
      "time": 19.2,
      "duration": 1.5,
      "velocity": 0.63,
      "hand": "left"
    },
    {
      "midi": 67,
      "time": 19.2,
      "duration": 0.4,
      "velocity": 0.63,
      "hand": "right"
    },
    {
      "midi": 67,
      "time": 19.6,
      "duration": 0.4,
      "velocity": 0.63,
      "hand": "right"
    },
    {
      "midi": 67,
      "time": 20,
      "duration": 0.4,
      "velocity": 0.63,
      "hand": "right"
    },
    {
      "midi": 69,
      "time": 20.4,
      "duration": 0.4,
      "velocity": 0.63,
      "hand": "right"
    },
    {
      "midi": 55,
      "time": 20.8,
      "duration": 1.5,
      "velocity": 0.63,
      "hand": "left"
    },
    {
      "midi": 71,
      "time": 20.8,
      "duration": 0.4,
      "velocity": 0.63,
      "hand": "right"
    },
    {
      "midi": 71,
      "time": 21.2,
      "duration": 0.4,
      "velocity": 0.63,
      "hand": "right"
    },
    {
      "midi": 71,
      "time": 21.6,
      "duration": 0.4,
      "velocity": 0.63,
      "hand": "right"
    },
    {
      "midi": 71,
      "time": 22,
      "duration": 0.4,
      "velocity": 0.63,
      "hand": "right"
    },
    {
      "midi": 50,
      "time": 22.4,
      "duration": 1.5,
      "velocity": 0.63,
      "hand": "left"
    },
    {
      "midi": 69,
      "time": 22.4,
      "duration": 0.4,
      "velocity": 0.63,
      "hand": "right"
    },
    {
      "midi": 67,
      "time": 22.8,
      "duration": 0.4,
      "velocity": 0.63,
      "hand": "right"
    },
    {
      "midi": 69,
      "time": 23.2,
      "duration": 0.4,
      "velocity": 0.63,
      "hand": "right"
    },
    {
      "midi": 71,
      "time": 23.6,
      "duration": 0.4,
      "velocity": 0.63,
      "hand": "right"
    },
    {
      "midi": 55,
      "time": 24,
      "duration": 1.5,
      "velocity": 0.63,
      "hand": "left"
    },
    {
      "midi": 67,
      "time": 24,
      "duration": 1.5,
      "velocity": 0.63,
      "hand": "right"
    },
    {
      "midi": 55,
      "time": 25.6,
      "duration": 1.5,
      "velocity": 0.63,
      "hand": "left"
    },
    {
      "midi": 67,
      "time": 25.6,
      "duration": 0.4,
      "velocity": 0.63,
      "hand": "right"
    },
    {
      "midi": 67,
      "time": 26,
      "duration": 0.4,
      "velocity": 0.63,
      "hand": "right"
    },
    {
      "midi": 67,
      "time": 26.4,
      "duration": 0.4,
      "velocity": 0.63,
      "hand": "right"
    },
    {
      "midi": 69,
      "time": 26.8,
      "duration": 0.4,
      "velocity": 0.63,
      "hand": "right"
    },
    {
      "midi": 55,
      "time": 27.2,
      "duration": 1.5,
      "velocity": 0.63,
      "hand": "left"
    },
    {
      "midi": 71,
      "time": 27.2,
      "duration": 0.8,
      "velocity": 0.63,
      "hand": "right"
    },
    {
      "midi": 71,
      "time": 28,
      "duration": 0.8,
      "velocity": 0.63,
      "hand": "right"
    },
    {
      "midi": 50,
      "time": 28.8,
      "duration": 1.5,
      "velocity": 0.63,
      "hand": "left"
    },
    {
      "midi": 69,
      "time": 28.8,
      "duration": 0.4,
      "velocity": 0.63,
      "hand": "right"
    },
    {
      "midi": 67,
      "time": 29.2,
      "duration": 0.4,
      "velocity": 0.63,
      "hand": "right"
    },
    {
      "midi": 69,
      "time": 29.6,
      "duration": 0.4,
      "velocity": 0.63,
      "hand": "right"
    },
    {
      "midi": 71,
      "time": 30,
      "duration": 0.4,
      "velocity": 0.63,
      "hand": "right"
    },
    {
      "midi": 55,
      "time": 30.4,
      "duration": 1.5,
      "velocity": 0.63,
      "hand": "left"
    },
    {
      "midi": 67,
      "time": 30.4,
      "duration": 0.8,
      "velocity": 0.63,
      "hand": "right"
    },
    {
      "midi": 62,
      "time": 31.2,
      "duration": 0.8,
      "velocity": 0.63,
      "hand": "right"
    },
    {
      "midi": 55,
      "time": 32,
      "duration": 1.5,
      "velocity": 0.63,
      "hand": "left"
    },
    {
      "midi": 67,
      "time": 32,
      "duration": 0.4,
      "velocity": 0.63,
      "hand": "right"
    },
    {
      "midi": 67,
      "time": 32.4,
      "duration": 0.4,
      "velocity": 0.63,
      "hand": "right"
    },
    {
      "midi": 67,
      "time": 32.8,
      "duration": 0.4,
      "velocity": 0.63,
      "hand": "right"
    },
    {
      "midi": 69,
      "time": 33.2,
      "duration": 0.4,
      "velocity": 0.63,
      "hand": "right"
    },
    {
      "midi": 55,
      "time": 33.6,
      "duration": 1.5,
      "velocity": 0.63,
      "hand": "left"
    },
    {
      "midi": 71,
      "time": 33.6,
      "duration": 0.8,
      "velocity": 0.63,
      "hand": "right"
    },
    {
      "midi": 71,
      "time": 34.4,
      "duration": 0.8,
      "velocity": 0.63,
      "hand": "right"
    },
    {
      "midi": 50,
      "time": 35.2,
      "duration": 1.5,
      "velocity": 0.63,
      "hand": "left"
    },
    {
      "midi": 69,
      "time": 35.2,
      "duration": 0.4,
      "velocity": 0.63,
      "hand": "right"
    },
    {
      "midi": 67,
      "time": 35.6,
      "duration": 0.4,
      "velocity": 0.63,
      "hand": "right"
    },
    {
      "midi": 69,
      "time": 36,
      "duration": 0.4,
      "velocity": 0.63,
      "hand": "right"
    },
    {
      "midi": 71,
      "time": 36.4,
      "duration": 0.4,
      "velocity": 0.63,
      "hand": "right"
    },
    {
      "midi": 55,
      "time": 36.8,
      "duration": 1.5,
      "velocity": 0.63,
      "hand": "left"
    },
    {
      "midi": 67,
      "time": 36.8,
      "duration": 0.8,
      "velocity": 0.63,
      "hand": "right"
    },
    {
      "midi": 67,
      "time": 37.6,
      "duration": 0.8,
      "velocity": 0.63,
      "hand": "right"
    }
  ]
}
