{
  "id": "alvo-mais-que-a-neve",
  "title": "Alvo Mais que a Neve",
  "artist": "James Nicholson",
  "difficulty": "Fácil",
  "bpm": 85,
  "duration": 207,
  "category": "Religiosos",
  "isPremium": false,
  "coverUrl": "/images/covers/placeholder.png",
  "notes": [
    {
      "midi": 37,
      "time": 0,
      "duration": 0.706,
      "velocity": 0.61,
      "hand": "left"
    },
    {
      "midi": 37,
      "time": 1.412,
      "duration": 0.706,
      "velocity": 0.61,
      "hand": "left"
    },
    {
      "midi": 37,
      "time": 2.824,
      "duration": 0.706,
      "velocity": 0.46,
      "hand": "left"
    },
    {
      "midi": 38,
      "time": 2.824,
      "duration": 0.529,
      "velocity": 0.86,
      "hand": "left"
    },
    {
      "midi": 45,
      "time": 2.824,
      "duration": 0.529,
      "velocity": 0.86,
      "hand": "left"
    },
    {
      "midi": 50,
      "time": 2.824,
      "duration": 0.529,
      "velocity": 0.79,
      "hand": "left"
    },
    {
      "midi": 57,
      "time": 2.824,
      "duration": 0.529,
      "velocity": 0.79,
      "hand": "left"
    },
    {
      "midi": 62,
      "time": 2.824,
      "duration": 0.529,
      "velocity": 0.83,
      "hand": "right"
    },
    {
      "midi": 66,
      "time": 2.824,
      "duration": 0.529,
      "velocity": 0.83,
      "hand": "right"
    },
    {
      "midi": 37,
      "time": 3.529,
      "duration": 0.706,
      "velocity": 0.61,
      "hand": "left"
    },
    {
      "midi": 38,
      "time": 3.529,
      "duration": 0.353,
      "velocity": 0.86,
      "hand": "left"
    },
    {
      "midi": 45,
      "time": 3.529,
      "duration": 0.353,
      "velocity": 0.86,
      "hand": "left"
    },
    {
      "midi": 50,
      "time": 3.529,
      "duration": 0.353,
      "velocity": 0.79,
      "hand": "left"
    },
    {
      "midi": 57,
      "time": 3.529,
      "duration": 0.353,
      "velocity": 0.79,
      "hand": "left"
    },
    {
      "midi": 62,
      "time": 3.529,
      "duration": 0.353,
      "velocity": 0.83,
      "hand": "right"
    },
    {
      "midi": 66,
      "time": 3.529,
      "duration": 0.353,
      "velocity": 0.83,
      "hand": "right"
    },
    {
      "midi": 38,
      "time": 4.059,
      "duration": 0.176,
      "velocity": 0.86,
      "hand": "left"
    },
    {
      "midi": 44,
      "time": 4.059,
      "duration": 0.176,
      "velocity": 0.86,
      "hand": "left"
    },
    {
      "midi": 50,
      "time": 4.059,
      "duration": 0.176,
      "velocity": 0.79,
      "hand": "left"
    },
    {
      "midi": 56,
      "time": 4.059,
      "duration": 0.176,
      "velocity": 0.79,
      "hand": "left"
    },
    {
      "midi": 62,
      "time": 4.059,
      "duration": 0.176,
      "velocity": 0.83,
      "hand": "right"
    },
    {
      "midi": 65,
      "time": 4.059,
      "duration": 0.176,
      "velocity": 0.83,
      "hand": "right"
    },
    {
      "midi": 37,
      "time": 4.235,
      "duration": 0.706,
      "velocity": 0.46,
      "hand": "left"
    },
    {
      "midi": 38,
      "time": 4.235,
      "duration": 0.529,
      "velocity": 0.86,
      "hand": "left"
    },
    {
      "midi": 45,
      "time": 4.235,
      "duration": 0.529,
      "velocity": 0.86,
      "hand": "left"
    },
    {
      "midi": 50,
      "time": 4.235,
      "duration": 0.529,
      "velocity": 0.79,
      "hand": "left"
    },
    {
      "midi": 57,
      "time": 4.235,
      "duration": 0.529,
      "velocity": 0.79,
      "hand": "left"
    },
    {
      "midi": 62,
      "time": 4.235,
      "duration": 0.529,
      "velocity": 0.83,
      "hand": "right"
    },
    {
      "midi": 66,
      "time": 4.235,
      "duration": 0.529,
      "velocity": 0.83,
      "hand": "right"
    },
    {
      "midi": 37,
      "time": 4.941,
      "duration": 0.706,
      "velocity": 0.61,
      "hand": "left"
    },
    {
      "midi": 38,
      "time": 4.941,
      "duration": 0.353,
      "velocity": 0.86,
      "hand": "left"
    },
    {
      "midi": 45,
      "time": 4.941,
      "duration": 0.353,
      "velocity": 0.86,
      "hand": "left"
    },
    {
      "midi": 50,
      "time": 4.941,
      "duration": 0.353,
      "velocity": 0.79,
      "hand": "left"
    },
    {
      "midi": 57,
      "time": 4.941,
      "duration": 0.353,
      "velocity": 0.79,
      "hand": "left"
    },
    {
      "midi": 62,
      "time": 4.941,
      "duration": 0.353,
      "velocity": 0.83,
      "hand": "right"
    },
    {
      "midi": 66,
      "time": 4.941,
      "duration": 0.353,
      "velocity": 0.83,
      "hand": "right"
    },
    {
      "midi": 38,
      "time": 5.471,
      "duration": 0.176,
      "velocity": 0.86,
      "hand": "left"
    },
    {
      "midi": 45,
      "time": 5.471,
      "duration": 0.176,
      "velocity": 0.86,
      "hand": "left"
    },
    {
      "midi": 50,
      "time": 5.471,
      "duration": 0.176,
      "velocity": 0.79,
      "hand": "left"
    },
    {
      "midi": 57,
      "time": 5.471,
      "duration": 0.176,
      "velocity": 0.79,
      "hand": "left"
    },
    {
      "midi": 64,
      "time": 5.471,
      "duration": 0.176,
      "velocity": 0.83,
      "hand": "right"
    },
    {
      "midi": 67,
      "time": 5.471,
      "duration": 0.176,
      "velocity": 0.83,
      "hand": "right"
    },
    {
      "midi": 35,
      "time": 5.647,
      "duration": 0.176,
      "velocity": 0.73,
      "hand": "left"
    },
    {
      "midi": 38,
      "time": 5.647,
      "duration": 0.882,
      "velocity": 0.86,
      "hand": "left"
    },
    {
      "midi": 42,
      "time": 5.647,
      "duration": 0.176,
      "velocity": 0.65,
      "hand": "left"
    },
    {
      "midi": 49,
      "time": 5.647,
      "duration": 0.176,
      "velocity": 0.65,
      "hand": "left"
    },
    {
      "midi": 50,
      "time": 5.647,
      "duration": 0.882,
      "velocity": 0.79,
      "hand": "left"
    },
    {
      "midi": 62,
      "time": 5.647,
      "duration": 0.882,
      "velocity": 0.79,
      "hand": "right"
    },
    {
      "midi": 66,
      "time": 5.647,
      "duration": 0.882,
      "velocity": 0.83,
      "hand": "right"
    },
    {
      "midi": 69,
      "time": 5.647,
      "duration": 0.882,
      "velocity": 0.83,
      "hand": "right"
    },
    {
      "midi": 42,
      "time": 6,
      "duration": 0.176,
      "velocity": 0.51,
      "hand": "left"
    },
    {
      "midi": 37,
      "time": 6.353,
      "duration": 0.176,
      "velocity": 0.73,
      "hand": "left"
    },
    {
      "midi": 42,
      "time": 6.353,
      "duration": 0.176,
      "velocity": 0.58,
      "hand": "left"
    },
    {
      "midi": 35,
      "time": 6.706,
      "duration": 0.176,
      "velocity": 0.58,
      "hand": "left"
    },
    {
      "midi": 42,
      "time": 6.706,
      "duration": 0.176,
      "velocity": 0.51,
      "hand": "left"
    },
    {
      "midi": 35,
      "time": 7.059,
      "duration": 0.176,
      "velocity": 0.73,
      "hand": "left"
    },
    {
      "midi": 38,
      "time": 7.059,
      "duration": 0.529,
      "velocity": 0.86,
      "hand": "left"
    },
    {
      "midi": 42,
      "time": 7.059,
      "duration": 0.176,
      "velocity": 0.65,
      "hand": "left"
    },
    {
      "midi": 50,
      "time": 7.059,
      "duration": 0.529,
      "velocity": 0.79,
      "hand": "left"
    },
    {
      "midi": 62,
      "time": 7.059,
      "duration": 0.529,
      "velocity": 0.79,
      "hand": "right"
    },
    {
      "midi": 66,
      "time": 7.059,
      "duration": 0.529,
      "velocity": 0.83,
      "hand": "right"
    },
    {
      "midi": 69,
      "time": 7.059,
      "duration": 0.529,
      "velocity": 0.83,
      "hand": "right"
    },
    {
      "midi": 42,
      "time": 7.412,
      "duration": 0.176,
      "velocity": 0.51,
      "hand": "left"
    },
    {
      "midi": 37,
      "time": 7.765,
      "duration": 0.176,
      "velocity": 0.73,
      "hand": "left"
    },
    {
      "midi": 38,
      "time": 7.765,
      "duration": 0.353,
      "velocity": 0.86,
      "hand": "left"
    },
    {
      "midi": 42,
      "time": 7.765,
      "duration": 0.176,
      "velocity": 0.58,
      "hand": "left"
    },
    {
      "midi": 50,
      "time": 7.765,
      "duration": 0.353,
      "velocity": 0.79,
      "hand": "left"
    },
    {
      "midi": 62,
      "time": 7.765,
      "duration": 0.353,
      "velocity": 0.79,
      "hand": "right"
    },
    {
      "midi": 66,
      "time": 7.765,
      "duration": 0.353,
      "velocity": 0.83,
      "hand": "right"
    },
    {
      "midi": 69,
      "time": 7.765,
      "duration": 0.353,
      "velocity": 0.83,
      "hand": "right"
    },
    {
      "midi": 35,
      "time": 8.118,
      "duration": 0.176,
      "velocity": 0.58,
      "hand": "left"
    },
    {
      "midi": 42,
      "time": 8.118,
      "duration": 0.176,
      "velocity": 0.51,
      "hand": "left"
    },
    {
      "midi": 38,
      "time": 8.294,
      "duration": 0.176,
      "velocity": 0.86,
      "hand": "left"
    },
    {
      "midi": 45,
      "time": 8.294,
      "duration": 0.176,
      "velocity": 0.86,
      "hand": "left"
    },
    {
      "midi": 50,
      "time": 8.294,
      "duration": 0.176,
      "velocity": 0.79,
      "hand": "left"
    },
    {
      "midi": 57,
      "time": 8.294,
      "duration": 0.176,
      "velocity": 0.79,
      "hand": "left"
    },
    {
      "midi": 62,
      "time": 8.294,
      "duration": 0.176,
      "velocity": 0.83,
      "hand": "right"
    },
    {
      "midi": 66,
      "time": 8.294,
      "duration": 0.176,
      "velocity": 0.83,
      "hand": "right"
    },
    {
      "midi": 33,
      "time": 8.471,
      "duration": 0.529,
      "velocity": 0.86,
      "hand": "left"
    },
    {
      "midi": 35,
      "time": 8.471,
      "duration": 0.176,
      "velocity": 0.73,
      "hand": "left"
    },
    {
      "midi": 42,
      "time": 8.471,
      "duration": 0.176,
      "velocity": 0.65,
      "hand": "left"
    },
    {
      "midi": 45,
      "time": 8.471,
      "duration": 0.529,
      "velocity": 0.79,
      "hand": "left"
    },
    {
      "midi": 57,
      "time": 8.471,
      "duration": 0.529,
      "velocity": 0.79,
      "hand": "left"
    },
    {
      "midi": 61,
      "time": 8.471,
      "duration": 0.529,
      "velocity": 0.83,
      "hand": "right"
    },
    {
      "midi": 64,
      "time": 8.471,
      "duration": 0.529,
      "velocity": 0.83,
      "hand": "right"
    },
    {
      "midi": 42,
      "time": 8.824,
      "duration": 0.176,
      "velocity": 0.51,
      "hand": "left"
    },
    {
      "midi": 33,
      "time": 9.176,
      "duration": 0.529,
      "velocity": 0.86,
      "hand": "left"
    },
    {
      "midi": 37,
      "time": 9.176,
      "duration": 0.176,
      "velocity": 0.73,
      "hand": "left"
    },
    {
      "midi": 42,
      "time": 9.176,
      "duration": 0.176,
      "velocity": 0.58,
      "hand": "left"
    },
    {
      "midi": 45,
      "time": 9.176,
      "duration": 0.529,
      "velocity": 0.79,
      "hand": "left"
    },
    {
      "midi": 57,
      "time": 9.176,
      "duration": 0.529,
      "velocity": 0.79,
      "hand": "left"
    },
    {
      "midi": 61,
      "time": 9.176,
      "duration": 0.529,
      "velocity": 0.83,
      "hand": "right"
    },
    {
      "midi": 64,
      "time": 9.176,
      "duration": 0.529,
      "velocity": 0.83,
      "hand": "right"
    },
    {
      "midi": 35,
      "time": 9.529,
      "duration": 0.176,
      "velocity": 0.58,
      "hand": "left"
    },
    {
      "midi": 42,
      "time": 9.529,
      "duration": 0.176,
      "velocity": 0.51,
      "hand": "left"
    },
    {
      "midi": 42,
      "time": 9.706,
      "duration": 0.176,
      "velocity": 0.43,
      "hand": "left"
    },
    {
      "midi": 35,
      "time": 9.882,
      "duration": 0.176,
      "velocity": 0.73,
      "hand": "left"
    },
    {
      "midi": 38,
      "time": 9.882,
      "duration": 0.529,
      "velocity": 0.86,
      "hand": "left"
    },
    {
      "midi": 42,
      "time": 9.882,
      "duration": 0.176,
      "velocity": 0.65,
      "hand": "left"
    },
    {
      "midi": 45,
      "time": 9.882,
      "duration": 0.529,
      "velocity": 0.86,
      "hand": "left"
    },
    {
      "midi": 50,
      "time": 9.882,
      "duration": 0.529,
      "velocity": 0.79,
      "hand": "left"
    },
    {
      "midi": 57,
      "time": 9.882,
      "duration": 0.529,
      "velocity": 0.79,
      "hand": "left"
    },
    {
      "midi": 62,
      "time": 9.882,
      "duration": 0.529,
      "velocity": 0.83,
      "hand": "right"
    },
    {
      "midi": 66,
      "time": 9.882,
      "duration": 0.529,
      "velocity": 0.83,
      "hand": "right"
    },
    {
      "midi": 42,
      "time": 10.235,
      "duration": 0.176,
      "velocity": 0.51,
      "hand": "left"
    },
    {
      "midi": 37,
      "time": 10.588,
      "duration": 0.176,
      "velocity": 0.73,
      "hand": "left"
    },
    {
      "midi": 38,
      "time": 10.588,
      "duration": 0.353,
      "velocity": 0.86,
      "hand": "left"
    },
    {
      "midi": 42,
      "time": 10.588,
      "duration": 0.176,
      "velocity": 0.58,
      "hand": "left"
    },
    {
      "midi": 45,
      "time": 10.588,
      "duration": 0.353,
      "velocity": 0.86,
      "hand": "left"
    },
    {
      "midi": 50,
      "time": 10.588,
      "duration": 0.353,
      "velocity": 0.79,
      "hand": "left"
    },
    {
      "midi": 57,
      "time": 10.588,
      "duration": 0.353,
      "velocity": 0.79,
      "hand": "left"
    },
    {
      "midi": 64,
      "time": 10.588,
      "duration": 0.353,
      "velocity": 0.83,
      "hand": "right"
    },
    {
      "midi": 67,
      "time": 10.588,
      "duration": 0.353,
      "velocity": 0.83,
      "hand": "right"
    },
    {
      "midi": 35,
      "time": 10.941,
      "duration": 0.176,
      "velocity": 0.58,
      "hand": "left"
    },
    {
      "midi": 42,
      "time": 10.941,
      "duration": 0.176,
      "velocity": 0.51,
      "hand": "left"
    },
    {
      "midi": 38,
      "time": 11.118,
      "duration": 0.176,
      "velocity": 0.86,
      "hand": "left"
    },
    {
      "midi": 45,
      "time": 11.118,
      "duration": 0.176,
      "velocity": 0.86,
      "hand": "left"
    },
    {
      "midi": 46,
      "time": 11.118,
      "duration": 0.176,
      "velocity": 0.58,
      "hand": "left"
    },
    {
      "midi": 50,
      "time": 11.118,
      "duration": 0.176,
      "velocity": 0.79,
      "hand": "left"
    },
    {
      "midi": 57,
      "time": 11.118,
      "duration": 0.176,
      "velocity": 0.79,
      "hand": "left"
    },
    {
      "midi": 62,
      "time": 11.118,
      "duration": 0.176,
      "velocity": 0.83,
      "hand": "right"
    },
    {
      "midi": 66,
      "time": 11.118,
      "duration": 0.176,
      "velocity": 0.83,
      "hand": "right"
    },
    {
      "midi": 33,
      "time": 11.294,
      "duration": 1.412,
      "velocity": 0.86,
      "hand": "left"
    },
    {
      "midi": 35,
      "time": 11.294,
      "duration": 0.176,
      "velocity": 0.73,
      "hand": "left"
    },
    {
      "midi": 42,
      "time": 11.294,
      "duration": 0.176,
      "velocity": 0.65,
      "hand": "left"
    },
    {
      "midi": 45,
      "time": 11.294,
      "duration": 1.412,
      "velocity": 0.79,
      "hand": "left"
    },
    {
      "midi": 57,
      "time": 11.294,
      "duration": 1.412,
      "velocity": 0.79,
      "hand": "left"
    },
    {
      "midi": 61,
      "time": 11.294,
      "duration": 1.412,
      "velocity": 0.83,
      "hand": "right"
    },
    {
      "midi": 64,
      "time": 11.294,
      "duration": 1.412,
      "velocity": 0.83,
      "hand": "right"
    },
    {
      "midi": 42,
      "time": 11.647,
      "duration": 0.176,
      "velocity": 0.51,
      "hand": "left"
    },
    {
      "midi": 37,
      "time": 12,
      "duration": 0.176,
      "velocity": 0.73,
      "hand": "left"
    },
    {
      "midi": 42,
      "time": 12,
      "duration": 0.176,
      "velocity": 0.58,
      "hand": "left"
    },
    {
      "midi": 35,
      "time": 12.353,
      "duration": 0.176,
      "velocity": 0.58,
      "hand": "left"
    },
    {
      "midi": 42,
      "time": 12.353,
      "duration": 0.176,
      "velocity": 0.51,
      "hand": "left"
    },
    {
      "midi": 35,
      "time": 12.706,
      "duration": 0.176,
      "velocity": 0.73,
      "hand": "left"
    },
    {
      "midi": 42,
      "time": 12.706,
      "duration": 0.176,
      "velocity": 0.65,
      "hand": "left"
    },
    {
      "midi": 42,
      "time": 13.059,
      "duration": 0.176,
      "velocity": 0.51,
      "hand": "left"
    },
    {
      "midi": 37,
      "time": 13.412,
      "duration": 0.176,
      "velocity": 0.73,
      "hand": "left"
    },
    {
      "midi": 42,
      "time": 13.412,
      "duration": 0.176,
      "velocity": 0.58,
      "hand": "left"
    },
    {
      "midi": 35,
      "time": 13.765,
      "duration": 0.176,
      "velocity": 0.58,
      "hand": "left"
    },
    {
      "midi": 42,
      "time": 13.765,
      "duration": 0.176,
      "velocity": 0.51,
      "hand": "left"
    },
    {
      "midi": 35,
      "time": 14.118,
      "duration": 0.176,
      "velocity": 0.73,
      "hand": "left"
    },
    {
      "midi": 38,
      "time": 14.118,
      "duration": 0.529,
      "velocity": 0.86,
      "hand": "left"
    },
    {
      "midi": 42,
      "time": 14.118,
      "duration": 0.176,
      "velocity": 0.65,
      "hand": "left"
    },
    {
      "midi": 45,
      "time": 14.118,
      "duration": 0.529,
      "velocity": 0.86,
      "hand": "left"
    },
    {
      "midi": 50,
      "time": 14.118,
      "duration": 0.529,
      "velocity": 0.79,
      "hand": "left"
    },
    {
      "midi": 57,
      "time": 14.118,
      "duration": 0.529,
      "velocity": 0.79,
      "hand": "left"
    },
    {
      "midi": 62,
      "time": 14.118,
      "duration": 0.529,
      "velocity": 0.83,
      "hand": "right"
    },
    {
      "midi": 66,
      "time": 14.118,
      "duration": 0.529,
      "velocity": 0.83,
      "hand": "right"
    },
    {
      "midi": 42,
      "time": 14.471,
      "duration": 0.176,
      "velocity": 0.51,
      "hand": "left"
    },
    {
      "midi": 37,
      "time": 14.824,
      "duration": 0.176,
      "velocity": 0.73,
      "hand": "left"
    },
    {
      "midi": 38,
      "time": 14.824,
      "duration": 0.353,
      "velocity": 0.86,
      "hand": "left"
    },
    {
      "midi": 42,
      "time": 14.824,
      "duration": 0.176,
      "velocity": 0.58,
      "hand": "left"
    },
    {
      "midi": 45,
      "time": 14.824,
      "duration": 0.353,
      "velocity": 0.86,
      "hand": "left"
    },
    {
      "midi": 50,
      "time": 14.824,
      "duration": 0.353,
      "velocity": 0.79,
      "hand": "left"
    },
    {
      "midi": 57,
      "time": 14.824,
      "duration": 0.353,
      "velocity": 0.79,
      "hand": "left"
    },
    {
      "midi": 62,
      "time": 14.824,
      "duration": 0.353,
      "velocity": 0.83,
      "hand": "right"
    },
    {
      "midi": 66,
      "time": 14.824,
      "duration": 0.353,
      "velocity": 0.83,
      "hand": "right"
    },
    {
      "midi": 35,
      "time": 15.176,
      "duration": 0.176,
      "velocity": 0.58,
      "hand": "left"
    },
    {
      "midi": 42,
      "time": 15.176,
      "duration": 0.176,
      "velocity": 0.51,
      "hand": "left"
    },
    {
      "midi": 38,
      "time": 15.353,
      "duration": 0.176,
      "velocity": 0.86,
      "hand": "left"
    },
    {
      "midi": 44,
      "time": 15.353,
      "duration": 0.176,
      "velocity": 0.86,
      "hand": "left"
    },
    {
      "midi": 50,
      "time": 15.353,
      "duration": 0.176,
      "velocity": 0.79,
      "hand": "left"
    },
    {
      "midi": 56,
      "time": 15.353,
      "duration": 0.176,
      "velocity": 0.79,
      "hand": "left"
    },
    {
      "midi": 62,
      "time": 15.353,
      "duration": 0.176,
      "velocity": 0.83,
      "hand": "right"
    },
    {
      "midi": 65,
      "time": 15.353,
      "duration": 0.176,
      "velocity": 0.83,
      "hand": "right"
    },
    {
      "midi": 35,
      "time": 15.529,
      "duration": 0.176,
      "velocity": 0.73,
      "hand": "left"
    },
    {
      "midi": 38,
      "time": 15.529,
      "duration": 0.529,
      "velocity": 0.86,
      "hand": "left"
    },
    {
      "midi": 42,
      "time": 15.529,
      "duration": 0.176,
      "velocity": 0.65,
      "hand": "left"
    },
    {
      "midi": 45,
      "time": 15.529,
      "duration": 0.529,
      "velocity": 0.86,
      "hand": "left"
    },
    {
      "midi": 50,
      "time": 15.529,
      "duration": 0.529,
      "velocity": 0.79,
      "hand": "left"
    },
    {
      "midi": 57,
      "time": 15.529,
      "duration": 0.529,
      "velocity": 0.79,
      "hand": "left"
    },
    {
      "midi": 62,
      "time": 15.529,
      "duration": 0.529,
      "velocity": 0.83,
      "hand": "right"
    },
    {
      "midi": 66,
      "time": 15.529,
      "duration": 0.529,
      "velocity": 0.83,
      "hand": "right"
    },
    {
      "midi": 42,
      "time": 15.882,
      "duration": 0.176,
      "velocity": 0.51,
      "hand": "left"
    },
    {
      "midi": 37,
      "time": 16.235,
      "duration": 0.176,
      "velocity": 0.73,
      "hand": "left"
    },
    {
      "midi": 38,
      "time": 16.235,
      "duration": 0.353,
      "velocity": 0.86,
      "hand": "left"
    },
    {
      "midi": 42,
      "time": 16.235,
      "duration": 0.176,
      "velocity": 0.58,
      "hand": "left"
    },
    {
      "midi": 45,
      "time": 16.235,
      "duration": 0.353,
      "velocity": 0.86,
      "hand": "left"
    },
    {
      "midi": 50,
      "time": 16.235,
      "duration": 0.353,
      "velocity": 0.79,
      "hand": "left"
    },
    {
      "midi": 57,
      "time": 16.235,
      "duration": 0.353,
      "velocity": 0.79,
      "hand": "left"
    },
    {
      "midi": 62,
      "time": 16.235,
      "duration": 0.353,
      "velocity": 0.83,
      "hand": "right"
    },
    {
      "midi": 66,
      "time": 16.235,
      "duration": 0.353,
      "velocity": 0.83,
      "hand": "right"
    },
    {
      "midi": 35,
      "time": 16.588,
      "duration": 0.176,
      "velocity": 0.58,
      "hand": "left"
    },
    {
      "midi": 42,
      "time": 16.588,
      "duration": 0.176,
      "velocity": 0.51,
      "hand": "left"
    },
    {
      "midi": 38,
      "time": 16.765,
      "duration": 0.176,
      "velocity": 0.86,
      "hand": "left"
    },
    {
      "midi": 45,
      "time": 16.765,
      "duration": 0.176,
      "velocity": 0.86,
      "hand": "left"
    },
    {
      "midi": 50,
      "time": 16.765,
      "duration": 0.176,
      "velocity": 0.79,
      "hand": "left"
    },
    {
      "midi": 57,
      "time": 16.765,
      "duration": 0.176,
      "velocity": 0.79,
      "hand": "left"
    },
    {
      "midi": 64,
      "time": 16.765,
      "duration": 0.176,
      "velocity": 0.83,
      "hand": "right"
    },
    {
      "midi": 67,
      "time": 16.765,
      "duration": 0.176,
      "velocity": 0.83,
      "hand": "right"
    },
    {
      "midi": 35,
      "time": 16.941,
      "duration": 0.176,
      "velocity": 0.73,
      "hand": "left"
    },
    {
      "midi": 38,
      "time": 16.941,
      "duration": 0.882,
      "velocity": 0.86,
      "hand": "left"
    },
    {
      "midi": 42,
      "time": 16.941,
      "duration": 0.176,
      "velocity": 0.65,
      "hand": "left"
    },
    {
      "midi": 50,
      "time": 16.941,
      "duration": 0.882,
      "velocity": 0.79,
      "hand": "left"
    },
    {
      "midi": 62,
      "time": 16.941,
      "duration": 0.882,
      "velocity": 0.79,
      "hand": "right"
    },
    {
      "midi": 66,
      "time": 16.941,
      "duration": 0.882,
      "velocity": 0.83,
      "hand": "right"
    },
    {
      "midi": 69,
      "time": 16.941,
      "duration": 0.882,
      "velocity": 0.83,
      "hand": "right"
    },
    {
      "midi": 42,
      "time": 17.294,
      "duration": 0.176,
      "velocity": 0.51,
      "hand": "left"
    },
    {
      "midi": 37,
      "time": 17.647,
      "duration": 0.176,
      "velocity": 0.73,
      "hand": "left"
    },
    {
      "midi": 42,
      "time": 17.647,
      "duration": 0.176,
      "velocity": 0.58,
      "hand": "left"
    },
    {
      "midi": 35,
      "time": 18,
      "duration": 0.176,
      "velocity": 0.58,
      "hand": "left"
    },
    {
      "midi": 42,
      "time": 18,
      "duration": 0.176,
      "velocity": 0.51,
      "hand": "left"
    },
    {
      "midi": 35,
      "time": 18.353,
      "duration": 0.176,
      "velocity": 0.73,
      "hand": "left"
    },
    {
      "midi": 38,
      "time": 18.353,
      "duration": 0.529,
      "velocity": 0.86,
      "hand": "left"
    },
    {
      "midi": 42,
      "time": 18.353,
      "duration": 0.176,
      "velocity": 0.65,
      "hand": "left"
    },
    {
      "midi": 50,
      "time": 18.353,
      "duration": 0.529,
      "velocity": 0.79,
      "hand": "left"
    },
    {
      "midi": 62,
      "time": 18.353,
      "duration": 0.529,
      "velocity": 0.79,
      "hand": "right"
    },
    {
      "midi": 66,
      "time": 18.353,
      "duration": 0.529,
      "velocity": 0.83,
      "hand": "right"
    },
    {
      "midi": 69,
      "time": 18.353,
      "duration": 0.529,
      "velocity": 0.83,
      "hand": "right"
    },
    {
      "midi": 42,
      "time": 18.706,
      "duration": 0.176,
      "velocity": 0.51,
      "hand": "left"
    },
    {
      "midi": 37,
      "time": 19.059,
      "duration": 0.176,
      "velocity": 0.73,
      "hand": "left"
    },
    {
      "midi": 38,
      "time": 19.059,
      "duration": 0.353,
      "velocity": 0.86,
      "hand": "left"
    },
    {
      "midi": 42,
      "time": 19.059,
      "duration": 0.176,
      "velocity": 0.58,
      "hand": "left"
    },
    {
      "midi": 50,
      "time": 19.059,
      "duration": 0.353,
      "velocity": 0.79,
      "hand": "left"
    },
    {
      "midi": 62,
      "time": 19.059,
      "duration": 0.353,
      "velocity": 0.79,
      "hand": "right"
    },
    {
      "midi": 66,
      "time": 19.059,
      "duration": 0.353,
      "velocity": 0.83,
      "hand": "right"
    },
    {
      "midi": 69,
      "time": 19.059,
      "duration": 0.353,
      "velocity": 0.83,
      "hand": "right"
    },
    {
      "midi": 35,
      "time": 19.412,
      "duration": 0.176,
      "velocity": 0.58,
      "hand": "left"
    },
    {
      "midi": 42,
      "time": 19.412,
      "duration": 0.176,
      "velocity": 0.51,
      "hand": "left"
    },
    {
      "midi": 38,
      "time": 19.588,
      "duration": 0.176,
      "velocity": 0.86,
      "hand": "left"
    },
    {
      "midi": 45,
      "time": 19.588,
      "duration": 0.176,
      "velocity": 0.86,
      "hand": "left"
    },
    {
      "midi": 50,
      "time": 19.588,
      "duration": 0.176,
      "velocity": 0.79,
      "hand": "left"
    },
    {
      "midi": 57,
      "time": 19.588,
      "duration": 0.176,
      "velocity": 0.79,
      "hand": "left"
    },
    {
      "midi": 62,
      "time": 19.588,
      "duration": 0.176,
      "velocity": 0.83,
      "hand": "right"
    },
    {
      "midi": 66,
      "time": 19.588,
      "duration": 0.176,
      "velocity": 0.83,
      "hand": "right"
    },
    {
      "midi": 35,
      "time": 19.765,
      "duration": 0.176,
      "velocity": 0.73,
      "hand": "left"
    },
    {
      "midi": 42,
      "time": 19.765,
      "duration": 0.176,
      "velocity": 0.65,
      "hand": "left"
    },
    {
      "midi": 43,
      "time": 19.765,
      "duration": 0.529,
      "velocity": 0.86,
      "hand": "left"
    },
    {
      "midi": 47,
      "time": 19.765,
      "duration": 0.529,
      "velocity": 0.86,
      "hand": "left"
    },
    {
      "midi": 55,
      "time": 19.765,
      "duration": 0.529,
      "velocity": 0.79,
      "hand": "left"
    },
    {
      "midi": 59,
      "time": 19.765,
      "duration": 0.529,
      "velocity": 0.79,
      "hand": "left"
    },
    {
      "midi": 62,
      "time": 19.765,
      "duration": 0.529,
      "velocity": 0.83,
      "hand": "right"
    },
    {
      "midi": 64,
      "time": 19.765,
      "duration": 0.529,
      "velocity": 0.83,
      "hand": "right"
    },
    {
      "midi": 42,
      "time": 20.118,
      "duration": 0.176,
      "velocity": 0.51,
      "hand": "left"
    },
    {
      "midi": 37,
      "time": 20.471,
      "duration": 0.176,
      "velocity": 0.73,
      "hand": "left"
    },
    {
      "midi": 42,
      "time": 20.471,
      "duration": 0.176,
      "velocity": 0.58,
      "hand": "left"
    },
    {
      "midi": 43,
      "time": 20.471,
      "duration": 0.176,
      "velocity": 0.86,
      "hand": "left"
    },
    {
      "midi": 47,
      "time": 20.471,
      "duration": 0.176,
      "velocity": 0.86,
      "hand": "left"
    },
    {
      "midi": 55,
      "time": 20.471,
      "duration": 0.176,
      "velocity": 0.79,
      "hand": "left"
    },
    {
      "midi": 59,
      "time": 20.471,
      "duration": 0.176,
      "velocity": 0.79,
      "hand": "left"
    },
    {
      "midi": 62,
      "time": 20.471,
      "duration": 0.176,
      "velocity": 0.83,
      "hand": "right"
    },
    {
      "midi": 64,
      "time": 20.471,
      "duration": 0.176,
      "velocity": 0.83,
      "hand": "right"
    },
    {
      "midi": 35,
      "time": 20.824,
      "duration": 0.176,
      "velocity": 0.58,
      "hand": "left"
    },
    {
      "midi": 42,
      "time": 20.824,
      "duration": 0.176,
      "velocity": 0.51,
      "hand": "left"
    },
    {
      "midi": 43,
      "time": 20.824,
      "duration": 0.176,
      "velocity": 0.86,
      "hand": "left"
    },
    {
      "midi": 47,
      "time": 20.824,
      "duration": 0.176,
      "velocity": 0.86,
      "hand": "left"
    },
    {
      "midi": 55,
      "time": 20.824,
      "duration": 0.176,
      "velocity": 0.79,
      "hand": "left"
    },
    {
      "midi": 59,
      "time": 20.824,
      "duration": 0.176,
      "velocity": 0.79,
      "hand": "left"
    },
    {
      "midi": 62,
      "time": 20.824,
      "duration": 0.176,
      "velocity": 0.83,
      "hand": "right"
    },
    {
      "midi": 64,
      "time": 20.824,
      "duration": 0.176,
      "velocity": 0.83,
      "hand": "right"
    },
    {
      "midi": 35,
      "time": 21.176,
      "duration": 0.176,
      "velocity": 0.73,
      "hand": "left"
    },
    {
      "midi": 42,
      "time": 21.176,
      "duration": 0.176,
      "velocity": 0.65,
      "hand": "left"
    },
    {
      "midi": 45,
      "time": 21.176,
      "duration": 0.529,
      "velocity": 0.86,
      "hand": "left"
    },
    {
      "midi": 57,
      "time": 21.176,
      "duration": 0.529,
      "velocity": 0.79,
      "hand": "left"
    },
    {
      "midi": 61,
      "time": 21.176,
      "duration": 0.529,
      "velocity": 0.83,
      "hand": "right"
    },
    {
      "midi": 64,
      "time": 21.176,
      "duration": 0.529,
      "velocity": 0.83,
      "hand": "right"
    },
    {
      "midi": 35,
      "time": 21.529,
      "duration": 0.176,
      "velocity": 0.58,
      "hand": "left"
    },
    {
      "midi": 42,
      "time": 21.529,
      "duration": 0.176,
      "velocity": 0.51,
      "hand": "left"
    },
    {
      "midi": 33,
      "time": 21.882,
      "duration": 0.353,
      "velocity": 0.86,
      "hand": "left"
    },
    {
      "midi": 37,
      "time": 21.882,
      "duration": 0.176,
      "velocity": 0.73,
      "hand": "left"
    },
    {
      "midi": 42,
      "time": 21.882,
      "duration": 0.176,
      "velocity": 0.58,
      "hand": "left"
    },
    {
      "midi": 45,
      "time": 21.882,
      "duration": 0.353,
      "velocity": 0.79,
      "hand": "left"
    },
    {
      "midi": 57,
      "time": 21.882,
      "duration": 0.353,
      "velocity": 0.79,
      "hand": "left"
    },
    {
      "midi": 61,
      "time": 21.882,
      "duration": 0.353,
      "velocity": 0.83,
      "hand": "right"
    },
    {
      "midi": 66,
      "time": 21.882,
      "duration": 0.353,
      "velocity": 0.83,
      "hand": "right"
    },
    {
      "midi": 35,
      "time": 22.235,
      "duration": 0.176,
      "velocity": 0.58,
      "hand": "left"
    },
    {
      "midi": 42,
      "time": 22.235,
      "duration": 0.176,
      "velocity": 0.51,
      "hand": "left"
    },
    {
      "midi": 33,
      "time": 22.412,
      "duration": 0.176,
      "velocity": 0.86,
      "hand": "left"
    },
    {
      "midi": 42,
      "time": 22.412,
      "duration": 0.176,
      "velocity": 0.43,
      "hand": "left"
    },
    {
      "midi": 43,
      "time": 22.412,
      "duration": 0.176,
      "velocity": 0.86,
      "hand": "left"
    },
    {
      "midi": 45,
      "time": 22.412,
      "duration": 0.176,
      "velocity": 0.79,
      "hand": "left"
    },
    {
      "midi": 55,
      "time": 22.412,
      "duration": 0.176,
      "velocity": 0.79,
      "hand": "left"
    },
    {
      "midi": 61,
      "time": 22.412,
      "duration": 0.176,
      "velocity": 0.83,
      "hand": "right"
    },
    {
      "midi": 64,
      "time": 22.412,
      "duration": 0.176,
      "velocity": 0.83,
      "hand": "right"
    },
    {
      "midi": 35,
      "time": 22.588,
      "duration": 0.176,
      "velocity": 0.73,
      "hand": "left"
    },
    {
      "midi": 38,
      "time": 22.588,
      "duration": 1.412,
      "velocity": 0.86,
      "hand": "left"
    },
    {
      "midi": 42,
      "time": 22.588,
      "duration": 1.412,
      "velocity": 0.86,
      "hand": "left"
    },
    {
      "midi": 49,
      "time": 22.588,
      "duration": 0.176,
      "velocity": 0.65,
      "hand": "left"
    },
    {
      "midi": 50,
      "time": 22.588,
      "duration": 1.412,
      "velocity": 0.79,
      "hand": "left"
    },
    {
      "midi": 54,
      "time": 22.588,
      "duration": 1.412,
      "velocity": 0.79,
      "hand": "left"
    },
    {
      "midi": 62,
      "time": 22.588,
      "duration": 1.412,
      "velocity": 0.83,
      "hand": "right"
    },
    {
      "midi": 38,
      "time": 23.118,
      "duration": 0.176,
      "velocity": 0.51,
      "hand": "left"
    },
    {
      "midi": 38,
      "time": 23.294,
      "duration": 0.176,
      "velocity": 0.83,
      "hand": "left"
    },
    {
      "midi": 35,
      "time": 23.471,
      "duration": 0.176,
      "velocity": 0.65,
      "hand": "left"
    },
    {
      "midi": 48,
      "time": 23.647,
      "duration": 0.176,
      "velocity": 0.73,
      "hand": "left"
    },
    {
      "midi": 45,
      "time": 24.176,
      "duration": 0.176,
      "velocity": 0.83,
      "hand": "left"
    },
    {
      "midi": 41,
      "time": 24.706,
      "duration": 0.176,
      "velocity": 0.93,
      "hand": "left"
    },
    {
      "midi": 35,
      "time": 25.059,
      "duration": 0.176,
      "velocity": 0.58,
      "hand": "left"
    },
    {
      "midi": 35,
      "time": 25.235,
      "duration": 0.176,
      "velocity": 0.73,
      "hand": "left"
    },
    {
      "midi": 42,
      "time": 25.235,
      "duration": 0.176,
      "velocity": 0.65,
      "hand": "left"
    },
    {
      "midi": 43,
      "time": 25.235,
      "duration": 0.529,
      "velocity": 0.86,
      "hand": "left"
    },
    {
      "midi": 49,
      "time": 25.235,
      "duration": 0.176,
      "velocity": 0.65,
      "hand": "left"
    },
    {
      "midi": 50,
      "time": 25.235,
      "duration": 0.529,
      "velocity": 0.86,
      "hand": "left"
    },
    {
      "midi": 55,
      "time": 25.235,
      "duration": 0.529,
      "velocity": 0.79,
      "hand": "left"
    },
    {
      "midi": 62,
      "time": 25.235,
      "duration": 0.529,
      "velocity": 0.83,
      "hand": "right"
    },
    {
      "midi": 71,
      "time": 25.235,
      "duration": 0.529,
      "velocity": 0.83,
      "hand": "right"
    },
    {
      "midi": 42,
      "time": 25.588,
      "duration": 0.176,
      "velocity": 0.51,
      "hand": "left"
    },
    {
      "midi": 37,
      "time": 25.941,
      "duration": 0.176,
      "velocity": 0.73,
      "hand": "left"
    },
    {
      "midi": 42,
      "time": 25.941,
      "duration": 0.176,
      "velocity": 0.58,
      "hand": "left"
    },
    {
      "midi": 43,
      "time": 25.941,
      "duration": 0.353,
      "velocity": 0.86,
      "hand": "left"
    },
    {
      "midi": 50,
      "time": 25.941,
      "duration": 0.353,
      "velocity": 0.86,
      "hand": "left"
    },
    {
      "midi": 55,
      "time": 25.941,
      "duration": 0.353,
      "velocity": 0.79,
      "hand": "left"
    },
    {
      "midi": 62,
      "time": 25.941,
      "duration": 0.353,
      "velocity": 0.79,
      "hand": "right"
    },
    {
      "midi": 67,
      "time": 25.941,
      "duration": 0.353,
      "velocity": 0.83,
      "hand": "right"
    },
    {
      "midi": 71,
      "time": 25.941,
      "duration": 0.353,
      "velocity": 0.83,
      "hand": "right"
    },
    {
      "midi": 35,
      "time": 26.294,
      "duration": 0.176,
      "velocity": 0.58,
      "hand": "left"
    },
    {
      "midi": 42,
      "time": 26.294,
      "duration": 0.176,
      "velocity": 0.51,
      "hand": "left"
    },
    {
      "midi": 43,
      "time": 26.471,
      "duration": 0.176,
      "velocity": 0.86,
      "hand": "left"
    },
    {
      "midi": 50,
      "time": 26.471,
      "duration": 0.176,
      "velocity": 0.86,
      "hand": "left"
    },
    {
      "midi": 55,
      "time": 26.471,
      "duration": 0.176,
      "velocity": 0.79,
      "hand": "left"
    },
    {
      "midi": 62,
      "time": 26.471,
      "duration": 0.176,
      "velocity": 0.79,
      "hand": "right"
    },
    {
      "midi": 67,
      "time": 26.471,
      "duration": 0.176,
      "velocity": 0.83,
      "hand": "right"
    },
    {
      "midi": 71,
      "time": 26.471,
      "duration": 0.176,
      "velocity": 0.83,
      "hand": "right"
    },
    {
      "midi": 35,
      "time": 26.647,
      "duration": 0.176,
      "velocity": 0.73,
      "hand": "left"
    },
    {
      "midi": 42,
      "time": 26.647,
      "duration": 0.176,
      "velocity": 0.65,
      "hand": "left"
    },
    {
      "midi": 43,
      "time": 26.647,
      "duration": 0.529,
      "velocity": 0.86,
      "hand": "left"
    },
    {
      "midi": 50,
      "time": 26.647,
      "duration": 0.529,
      "velocity": 0.86,
      "hand": "left"
    },
    {
      "midi": 55,
      "time": 26.647,
      "duration": 0.529,
      "velocity": 0.79,
      "hand": "left"
    },
    {
      "midi": 62,
      "time": 26.647,
      "duration": 0.529,
      "velocity": 0.79,
      "hand": "right"
    },
    {
      "midi": 67,
      "time": 26.647,
      "duration": 0.529,
      "velocity": 0.83,
      "hand": "right"
    },
    {
      "midi": 71,
      "time": 26.647,
      "duration": 0.529,
      "velocity": 0.83,
      "hand": "right"
    },
    {
      "midi": 42,
      "time": 27,
      "duration": 0.176,
      "velocity": 0.51,
      "hand": "left"
    },
    {
      "midi": 37,
      "time": 27.353,
      "duration": 0.176,
      "velocity": 0.73,
      "hand": "left"
    },
    {
      "midi": 42,
      "time": 27.353,
      "duration": 0.176,
      "velocity": 0.58,
      "hand": "left"
    },
    {
      "midi": 43,
      "time": 27.353,
      "duration": 0.353,
      "velocity": 0.86,
      "hand": "left"
    },
    {
      "midi": 50,
      "time": 27.353,
      "duration": 0.353,
      "velocity": 0.86,
      "hand": "left"
    },
    {
      "midi": 55,
      "time": 27.353,
      "duration": 0.353,
      "velocity": 0.79,
      "hand": "left"
    },
    {
      "midi": 62,
      "time": 27.353,
      "duration": 0.353,
      "velocity": 0.79,
      "hand": "right"
    },
    {
      "midi": 67,
      "time": 27.353,
      "duration": 0.353,
      "velocity": 0.83,
      "hand": "right"
    },
    {
      "midi": 71,
      "time": 27.353,
      "duration": 0.353,
      "velocity": 0.83,
      "hand": "right"
    },
    {
      "midi": 35,
      "time": 27.706,
      "duration": 0.176,
      "velocity": 0.58,
      "hand": "left"
    },
    {
      "midi": 42,
      "time": 27.706,
      "duration": 0.176,
      "velocity": 0.51,
      "hand": "left"
    },
    {
      "midi": 43,
      "time": 27.882,
      "duration": 0.176,
      "velocity": 0.86,
      "hand": "left"
    },
    {
      "midi": 47,
      "time": 27.882,
      "duration": 0.176,
      "velocity": 0.86,
      "hand": "left"
    },
    {
      "midi": 55,
      "time": 27.882,
      "duration": 0.176,
      "velocity": 0.79,
      "hand": "left"
    },
    {
      "midi": 59,
      "time": 27.882,
      "duration": 0.176,
      "velocity": 0.79,
      "hand": "left"
    },
    {
      "midi": 64,
      "time": 27.882,
      "duration": 0.176,
      "velocity": 0.83,
      "hand": "right"
    },
    {
      "midi": 67,
      "time": 27.882,
      "duration": 0.176,
      "velocity": 0.83,
      "hand": "right"
    },
    {
      "midi": 35,
      "time": 28.059,
      "duration": 0.176,
      "velocity": 0.73,
      "hand": "left"
    },
    {
      "midi": 38,
      "time": 28.059,
      "duration": 0.882,
      "velocity": 0.86,
      "hand": "left"
    },
    {
      "midi": 42,
      "time": 28.059,
      "duration": 0.176,
      "velocity": 0.65,
      "hand": "left"
    },
    {
      "midi": 45,
      "time": 28.059,
      "duration": 0.882,
      "velocity": 0.86,
      "hand": "left"
    },
    {
      "midi": 50,
      "time": 28.059,
      "duration": 0.882,
      "velocity": 0.79,
      "hand": "left"
    },
    {
      "midi": 57,
      "time": 28.059,
      "duration": 0.882,
      "velocity": 0.79,
      "hand": "left"
    },
    {
      "midi": 62,
      "time": 28.059,
      "duration": 0.882,
      "velocity": 0.83,
      "hand": "right"
    },
    {
      "midi": 66,
      "time": 28.059,
      "duration": 0.882,
      "velocity": 0.83,
      "hand": "right"
    },
    {
      "midi": 42,
      "time": 28.412,
      "duration": 0.176,
      "velocity": 0.51,
      "hand": "left"
    },
    {
      "midi": 37,
      "time": 28.765,
      "duration": 0.176,
      "velocity": 0.73,
      "hand": "left"
    },
    {
      "midi": 42,
      "time": 28.765,
      "duration": 0.176,
      "velocity": 0.58,
      "hand": "left"
    },
    {
      "midi": 35,
      "time": 29.118,
      "duration": 0.176,
      "velocity": 0.58,
      "hand": "left"
    },
    {
      "midi": 42,
      "time": 29.118,
      "duration": 0.176,
      "velocity": 0.51,
      "hand": "left"
    },
    {
      "midi": 35,
      "time": 29.471,
      "duration": 0.176,
      "velocity": 0.73,
      "hand": "left"
    },
    {
      "midi": 38,
      "time": 29.471,
      "duration": 0.529,
      "velocity": 0.86,
      "hand": "left"
    },
    {
      "midi": 42,
      "time": 29.471,
      "duration": 0.176,
      "velocity": 0.65,
      "hand": "left"
    },
    {
      "midi": 50,
      "time": 29.471,
      "duration": 0.529,
      "velocity": 0.79,
      "hand": "left"
    },
    {
      "midi": 62,
      "time": 29.471,
      "duration": 0.529,
      "velocity": 0.79,
      "hand": "right"
    },
    {
      "midi": 66,
      "time": 29.471,
      "duration": 0.529,
      "velocity": 0.83,
      "hand": "right"
    },
    {
      "midi": 69,
      "time": 29.471,
      "duration": 0.529,
      "velocity": 0.83,
      "hand": "right"
    },
    {
      "midi": 42,
      "time": 29.824,
      "duration": 0.176,
      "velocity": 0.51,
      "hand": "left"
    },
    {
      "midi": 37,
      "time": 30.176,
      "duration": 0.176,
      "velocity": 0.73,
      "hand": "left"
    },
    {
      "midi": 42,
      "time": 30.176,
      "duration": 0.176,
      "velocity": 0.58,
      "hand": "left"
    },
    {
      "midi": 35,
      "time": 30.529,
      "duration": 0.176,
      "velocity": 0.58,
      "hand": "left"
    },
    {
      "midi": 42,
      "time": 30.529,
      "duration": 0.176,
      "velocity": 0.51,
      "hand": "left"
    },
    {
      "midi": 35,
      "time": 30.882,
      "duration": 0.176,
      "velocity": 0.73,
      "hand": "left"
    },
    {
      "midi": 42,
      "time": 30.882,
      "duration": 0.176,
      "velocity": 0.65,
      "hand": "left"
    },
    {
      "midi": 43,
      "time": 30.882,
      "duration": 0.529,
      "velocity": 0.86,
      "hand": "left"
    },
    {
      "midi": 50,
      "time": 30.882,
      "duration": 0.529,
      "velocity": 0.86,
      "hand": "left"
    },
    {
      "midi": 55,
      "time": 30.882,
      "duration": 0.529,
      "velocity": 0.79,
      "hand": "left"
    },
    {
      "midi": 62,
      "time": 30.882,
      "duration": 0.529,
      "velocity": 0.79,
      "hand": "right"
    },
    {
      "midi": 67,
      "time": 30.882,
      "duration": 0.529,
      "velocity": 0.83,
      "hand": "right"
    },
    {
      "midi": 71,
      "time": 30.882,
      "duration": 0.529,
      "velocity": 0.83,
      "hand": "right"
    },
    {
      "midi": 42,
      "time": 31.235,
      "duration": 0.176,
      "velocity": 0.51,
      "hand": "left"
    },
    {
      "midi": 37,
      "time": 31.588,
      "duration": 0.176,
      "velocity": 0.73,
      "hand": "left"
    },
    {
      "midi": 42,
      "time": 31.588,
      "duration": 0.176,
      "velocity": 0.58,
      "hand": "left"
    },
    {
      "midi": 43,
      "time": 31.588,
      "duration": 0.353,
      "velocity": 0.86,
      "hand": "left"
    },
    {
      "midi": 50,
      "time": 31.588,
      "duration": 0.353,
      "velocity": 0.86,
      "hand": "left"
    },
    {
      "midi": 55,
      "time": 31.588,
      "duration": 0.353,
      "velocity": 0.79,
      "hand": "left"
    },
    {
      "midi": 62,
      "time": 31.588,
      "duration": 0.353,
      "velocity": 0.79,
      "hand": "right"
    },
    {
      "midi": 67,
      "time": 31.588,
      "duration": 0.353,
      "velocity": 0.83,
      "hand": "right"
    },
    {
      "midi": 71,
      "time": 31.588,
      "duration": 0.353,
      "velocity": 0.83,
      "hand": "right"
    },
    {
      "midi": 35,
      "time": 31.941,
      "duration": 0.176,
      "velocity": 0.58,
      "hand": "left"
    },
    {
      "midi": 42,
      "time": 31.941,
      "duration": 0.176,
      "velocity": 0.51,
      "hand": "left"
    },
    {
      "midi": 43,
      "time": 32.118,
      "duration": 0.176,
      "velocity": 0.86,
      "hand": "left"
    },
    {
      "midi": 50,
      "time": 32.118,
      "duration": 0.176,
      "velocity": 0.86,
      "hand": "left"
    },
    {
      "midi": 55,
      "time": 32.118,
      "duration": 0.176,
      "velocity": 0.79,
      "hand": "left"
    },
    {
      "midi": 62,
      "time": 32.118,
      "duration": 0.176,
      "velocity": 0.79,
      "hand": "right"
    },
    {
      "midi": 67,
      "time": 32.118,
      "duration": 0.176,
      "velocity": 0.83,
      "hand": "right"
    },
    {
      "midi": 71,
      "time": 32.118,
      "duration": 0.176,
      "velocity": 0.83,
      "hand": "right"
    },
    {
      "midi": 35,
      "time": 32.294,
      "duration": 0.176,
      "velocity": 0.73,
      "hand": "left"
    },
    {
      "midi": 40,
      "time": 32.294,
      "duration": 0.176,
      "velocity": 0.86,
      "hand": "left"
    },
    {
      "midi": 42,
      "time": 32.294,
      "duration": 0.176,
      "velocity": 0.65,
      "hand": "left"
    },
    {
      "midi": 50,
      "time": 32.294,
      "duration": 0.176,
      "velocity": 0.86,
      "hand": "left"
    },
    {
      "midi": 52,
      "time": 32.294,
      "duration": 0.176,
      "velocity": 0.79,
      "hand": "left"
    },
    {
      "midi": 62,
      "time": 32.294,
      "duration": 0.176,
      "velocity": 0.79,
      "hand": "right"
    },
    {
      "midi": 68,
      "time": 32.294,
      "duration": 0.176,
      "velocity": 0.83,
      "hand": "right"
    },
    {
      "midi": 71,
      "time": 32.294,
      "duration": 0.176,
      "velocity": 0.83,
      "hand": "right"
    },
    {
      "midi": 40,
      "time": 32.647,
      "duration": 0.176,
      "velocity": 0.86,
      "hand": "left"
    },
    {
      "midi": 42,
      "time": 32.647,
      "duration": 0.176,
      "velocity": 0.51,
      "hand": "left"
    },
    {
      "midi": 47,
      "time": 32.647,
      "duration": 0.176,
      "velocity": 0.86,
      "hand": "left"
    },
    {
      "midi": 52,
      "time": 32.647,
      "duration": 0.176,
      "velocity": 0.79,
      "hand": "left"
    },
    {
      "midi": 59,
      "time": 32.647,
      "duration": 0.176,
      "velocity": 0.79,
      "hand": "left"
    },
    {
      "midi": 68,
      "time": 32.647,
      "duration": 0.176,
      "velocity": 0.83,
      "hand": "right"
    },
    {
      "midi": 74,
      "time": 32.647,
      "duration": 0.176,
      "velocity": 0.83,
      "hand": "right"
    },
    {
      "midi": 37,
      "time": 33,
      "duration": 0.176,
      "velocity": 0.73,
      "hand": "left"
    },
    {
      "midi": 40,
      "time": 33,
      "duration": 0.176,
      "velocity": 0.86,
      "hand": "left"
    },
    {
      "midi": 42,
      "time": 33,
      "duration": 0.176,
      "velocity": 0.58,
      "hand": "left"
    },
    {
      "midi": 45,
      "time": 33,
      "duration": 0.176,
      "velocity": 0.86,
      "hand": "left"
    },
    {
      "midi": 52,
      "time": 33,
      "duration": 0.176,
      "velocity": 0.79,
      "hand": "left"
    },
    {
      "midi": 57,
      "time": 33,
      "duration": 0.176,
      "velocity": 0.79,
      "hand": "left"
    },
    {
      "midi": 64,
      "time": 33,
      "duration": 0.176,
      "velocity": 0.83,
      "hand": "right"
    },
    {
      "midi": 73,
      "time": 33,
      "duration": 0.176,
      "velocity": 0.83,
      "hand": "right"
    },
    {
      "midi": 35,
      "time": 33.353,
      "duration": 0.176,
      "velocity": 0.58,
      "hand": "left"
    },
    {
      "midi": 40,
      "time": 33.353,
      "duration": 0.176,
      "velocity": 0.86,
      "hand": "left"
    },
    {
      "midi": 42,
      "time": 33.353,
      "duration": 0.176,
      "velocity": 0.51,
      "hand": "left"
    },
    {
      "midi": 44,
      "time": 33.353,
      "duration": 0.176,
      "velocity": 0.86,
      "hand": "left"
    },
    {
      "midi": 52,
      "time": 33.353,
      "duration": 0.176,
      "velocity": 0.79,
      "hand": "left"
    },
    {
      "midi": 56,
      "time": 33.353,
      "duration": 0.176,
      "velocity": 0.79,
      "hand": "left"
    },
    {
      "midi": 62,
      "time": 33.353,
      "duration": 0.176,
      "velocity": 0.83,
      "hand": "right"
    },
    {
      "midi": 71,
      "time": 33.353,
      "duration": 0.176,
      "velocity": 0.83,
      "hand": "right"
    },
    {
      "midi": 33,
      "time": 33.706,
      "duration": 1.412,
      "velocity": 0.86,
      "hand": "left"
    },
    {
      "midi": 35,
      "time": 33.706,
      "duration": 0.176,
      "velocity": 0.73,
      "hand": "left"
    },
    {
      "midi": 42,
      "time": 33.706,
      "duration": 0.176,
      "velocity": 0.65,
      "hand": "left"
    },
    {
      "midi": 45,
      "time": 33.706,
      "duration": 1.412,
      "velocity": 0.79,
      "hand": "left"
    },
    {
      "midi": 57,
      "time": 33.706,
      "duration": 1.412,
      "velocity": 0.79,
      "hand": "left"
    },
    {
      "midi": 61,
      "time": 33.706,
      "duration": 1.412,
      "velocity": 0.83,
      "hand": "right"
    },
    {
      "midi": 69,
      "time": 33.706,
      "duration": 0.882,
      "velocity": 0.83,
      "hand": "right"
    },
    {
      "midi": 69,
      "time": 33.706,
      "duration": 1.412,
      "velocity": 0.86,
      "hand": "right"
    },
    {
      "midi": 42,
      "time": 34.059,
      "duration": 0.176,
      "velocity": 0.51,
      "hand": "left"
    },
    {
      "midi": 37,
      "time": 34.412,
      "duration": 0.176,
      "velocity": 0.73,
      "hand": "left"
    },
    {
      "midi": 42,
      "time": 34.412,
      "duration": 0.176,
      "velocity": 0.58,
      "hand": "left"
    },
    {
      "midi": 35,
      "time": 34.765,
      "duration": 0.176,
      "velocity": 0.58,
      "hand": "left"
    },
    {
      "midi": 42,
      "time": 34.765,
      "duration": 0.176,
      "velocity": 0.51,
      "hand": "left"
    },
    {
      "midi": 35,
      "time": 35.118,
      "duration": 0.176,
      "velocity": 0.73,
      "hand": "left"
    },
    {
      "midi": 42,
      "time": 35.118,
      "duration": 0.176,
      "velocity": 0.65,
      "hand": "left"
    },
    {
      "midi": 67,
      "time": 35.118,
      "duration": 0.529,
      "velocity": 0.83,
      "hand": "right"
    },
    {
      "midi": 42,
      "time": 35.471,
      "duration": 0.176,
      "velocity": 0.51,
      "hand": "left"
    },
    {
      "midi": 37,
      "time": 35.824,
      "duration": 0.176,
      "velocity": 0.73,
      "hand": "left"
    },
    {
      "midi": 42,
      "time": 35.824,
      "duration": 0.176,
      "velocity": 0.58,
      "hand": "left"
    },
    {
      "midi": 35,
      "time": 36.176,
      "duration": 0.176,
      "velocity": 0.58,
      "hand": "left"
    },
    {
      "midi": 42,
      "time": 36.176,
      "duration": 0.176,
      "velocity": 0.51,
      "hand": "left"
    },
    {
      "midi": 35,
      "time": 36.529,
      "duration": 0.176,
      "velocity": 0.73,
      "hand": "left"
    },
    {
      "midi": 38,
      "time": 36.529,
      "duration": 0.529,
      "velocity": 0.86,
      "hand": "left"
    },
    {
      "midi": 42,
      "time": 36.529,
      "duration": 0.176,
      "velocity": 0.65,
      "hand": "left"
    },
    {
      "midi": 45,
      "time": 36.529,
      "duration": 0.529,
      "velocity": 0.86,
      "hand": "left"
    },
    {
      "midi": 50,
      "time": 36.529,
      "duration": 0.529,
      "velocity": 0.79,
      "hand": "left"
    },
    {
      "midi": 57,
      "time": 36.529,
      "duration": 0.529,
      "velocity": 0.79,
      "hand": "left"
    },
    {
      "midi": 62,
      "time": 36.529,
      "duration": 0.529,
      "velocity": 0.83,
      "hand": "right"
    },
    {
      "midi": 66,
      "time": 36.529,
      "duration": 0.529,
      "velocity": 0.83,
      "hand": "right"
    },
    {
      "midi": 42,
      "time": 36.882,
      "duration": 0.176,
      "velocity": 0.51,
      "hand": "left"
    },
    {
      "midi": 37,
      "time": 37.235,
      "duration": 0.176,
      "velocity": 0.73,
      "hand": "left"
    },
    {
      "midi": 38,
      "time": 37.235,
      "duration": 0.353,
      "velocity": 0.86,
      "hand": "left"
    },
    {
      "midi": 42,
      "time": 37.235,
      "duration": 0.176,
      "velocity": 0.58,
      "hand": "left"
    },
    {
      "midi": 45,
      "time": 37.235,
      "duration": 0.353,
      "velocity": 0.86,
      "hand": "left"
    },
    {
      "midi": 50,
      "time": 37.235,
      "duration": 0.353,
      "velocity": 0.79,
      "hand": "left"
    },
    {
      "midi": 57,
      "time": 37.235,
      "duration": 0.353,
      "velocity": 0.79,
      "hand": "left"
    },
    {
      "midi": 62,
      "time": 37.235,
      "duration": 0.353,
      "velocity": 0.83,
      "hand": "right"
    },
    {
      "midi": 66,
      "time": 37.235,
      "duration": 0.353,
      "velocity": 0.83,
      "hand": "right"
    },
    {
      "midi": 35,
      "time": 37.588,
      "duration": 0.176,
      "velocity": 0.58,
      "hand": "left"
    },
    {
      "midi": 42,
      "time": 37.588,
      "duration": 0.176,
      "velocity": 0.51,
      "hand": "left"
    },
    {
      "midi": 38,
      "time": 37.765,
      "duration": 0.176,
      "velocity": 0.86,
      "hand": "left"
    },
    {
      "midi": 44,
      "time": 37.765,
      "duration": 0.176,
      "velocity": 0.86,
      "hand": "left"
    },
    {
      "midi": 50,
      "time": 37.765,
      "duration": 0.176,
      "velocity": 0.79,
      "hand": "left"
    },
    {
      "midi": 56,
      "time": 37.765,
      "duration": 0.176,
      "velocity": 0.79,
      "hand": "left"
    },
    {
      "midi": 62,
      "time": 37.765,
      "duration": 0.176,
      "velocity": 0.83,
      "hand": "right"
    },
    {
      "midi": 65,
      "time": 37.765,
      "duration": 0.176,
      "velocity": 0.83,
      "hand": "right"
    },
    {
      "midi": 35,
      "time": 37.941,
      "duration": 0.176,
      "velocity": 0.73,
      "hand": "left"
    },
    {
      "midi": 38,
      "time": 37.941,
      "duration": 0.529,
      "velocity": 0.86,
      "hand": "left"
    },
    {
      "midi": 42,
      "time": 37.941,
      "duration": 0.176,
      "velocity": 0.65,
      "hand": "left"
    },
    {
      "midi": 45,
      "time": 37.941,
      "duration": 0.529,
      "velocity": 0.86,
      "hand": "left"
    },
    {
      "midi": 50,
      "time": 37.941,
      "duration": 0.529,
      "velocity": 0.79,
      "hand": "left"
    },
    {
      "midi": 57,
      "time": 37.941,
      "duration": 0.529,
      "velocity": 0.79,
      "hand": "left"
    },
    {
      "midi": 62,
      "time": 37.941,
      "duration": 0.529,
      "velocity": 0.83,
      "hand": "right"
    },
    {
      "midi": 66,
      "time": 37.941,
      "duration": 0.529,
      "velocity": 0.83,
      "hand": "right"
    },
    {
      "midi": 42,
      "time": 38.294,
      "duration": 0.176,
      "velocity": 0.51,
      "hand": "left"
    },
    {
      "midi": 37,
      "time": 38.647,
      "duration": 0.176,
      "velocity": 0.73,
      "hand": "left"
    },
    {
      "midi": 38,
      "time": 38.647,
      "duration": 0.353,
      "velocity": 0.86,
      "hand": "left"
    },
    {
      "midi": 42,
      "time": 38.647,
      "duration": 0.176,
      "velocity": 0.58,
      "hand": "left"
    },
    {
      "midi": 45,
      "time": 38.647,
      "duration": 0.353,
      "velocity": 0.86,
      "hand": "left"
    },
    {
      "midi": 50,
      "time": 38.647,
      "duration": 0.353,
      "velocity": 0.79,
      "hand": "left"
    },
    {
      "midi": 57,
      "time": 38.647,
      "duration": 0.353,
      "velocity": 0.79,
      "hand": "left"
    },
    {
      "midi": 62,
      "time": 38.647,
      "duration": 0.353,
      "velocity": 0.83,
      "hand": "right"
    },
    {
      "midi": 66,
      "time": 38.647,
      "duration": 0.353,
      "velocity": 0.83,
      "hand": "right"
    },
    {
      "midi": 35,
      "time": 39,
      "duration": 0.176,
      "velocity": 0.58,
      "hand": "left"
    },
    {
      "midi": 42,
      "time": 39,
      "duration": 0.176,
      "velocity": 0.51,
      "hand": "left"
    },
    {
      "midi": 38,
      "time": 39.176,
      "duration": 0.176,
      "velocity": 0.86,
      "hand": "left"
    },
    {
      "midi": 45,
      "time": 39.176,
      "duration": 0.176,
      "velocity": 0.86,
      "hand": "left"
    },
    {
      "midi": 50,
      "time": 39.176,
      "duration": 0.176,
      "velocity": 0.79,
      "hand": "left"
    },
    {
      "midi": 57,
      "time": 39.176,
      "duration": 0.176,
      "velocity": 0.79,
      "hand": "left"
    },
    {
      "midi": 64,
      "time": 39.176,
      "duration": 0.176,
      "velocity": 0.83,
      "hand": "right"
    },
    {
      "midi": 67,
      "time": 39.176,
      "duration": 0.176,
      "velocity": 0.83,
      "hand": "right"
    },
    {
      "midi": 35,
      "time": 39.353,
      "duration": 0.176,
      "velocity": 0.73,
      "hand": "left"
    },
    {
      "midi": 38,
      "time": 39.353,
      "duration": 0.882,
      "velocity": 0.86,
      "hand": "left"
    },
    {
      "midi": 42,
      "time": 39.353,
      "duration": 0.176,
      "velocity": 0.65,
      "hand": "left"
    },
    {
      "midi": 50,
      "time": 39.353,
      "duration": 0.882,
      "velocity": 0.79,
      "hand": "left"
    },
    {
      "midi": 62,
      "time": 39.353,
      "duration": 0.882,
      "velocity": 0.79,
      "hand": "right"
    },
    {
      "midi": 66,
      "time": 39.353,
      "duration": 0.882,
      "velocity": 0.83,
      "hand": "right"
    },
    {
      "midi": 69,
      "time": 39.353,
      "duration": 0.882,
      "velocity": 0.83,
      "hand": "right"
    },
    {
      "midi": 42,
      "time": 39.706,
      "duration": 0.176,
      "velocity": 0.51,
      "hand": "left"
    },
    {
      "midi": 37,
      "time": 40.059,
      "duration": 0.176,
      "velocity": 0.73,
      "hand": "left"
    },
    {
      "midi": 42,
      "time": 40.059,
      "duration": 0.176,
      "velocity": 0.58,
      "hand": "left"
    },
    {
      "midi": 35,
      "time": 40.412,
      "duration": 0.176,
      "velocity": 0.58,
      "hand": "left"
    },
    {
      "midi": 42,
      "time": 40.412,
      "duration": 0.176,
      "velocity": 0.51,
      "hand": "left"
    },
    {
      "midi": 35,
      "time": 40.765,
      "duration": 0.176,
      "velocity": 0.73,
      "hand": "left"
    },
    {
      "midi": 38,
      "time": 40.765,
      "duration": 0.529,
      "velocity": 0.86,
      "hand": "left"
    },
    {
      "midi": 42,
      "time": 40.765,
      "duration": 0.176,
      "velocity": 0.65,
      "hand": "left"
    },
    {
      "midi": 50,
      "time": 40.765,
      "duration": 0.529,
      "velocity": 0.79,
      "hand": "left"
    },
    {
      "midi": 62,
      "time": 40.765,
      "duration": 0.529,
      "velocity": 0.79,
      "hand": "right"
    },
    {
      "midi": 66,
      "time": 40.765,
      "duration": 0.529,
      "velocity": 0.83,
      "hand": "right"
    },
    {
      "midi": 69,
      "time": 40.765,
      "duration": 0.529,
      "velocity": 0.83,
      "hand": "right"
    },
    {
      "midi": 42,
      "time": 41.118,
      "duration": 0.176,
      "velocity": 0.51,
      "hand": "left"
    },
    {
      "midi": 37,
      "time": 41.471,
      "duration": 0.176,
      "velocity": 0.73,
      "hand": "left"
    },
    {
      "midi": 38,
      "time": 41.471,
      "duration": 0.353,
      "velocity": 0.86,
      "hand": "left"
    },
    {
      "midi": 42,
      "time": 41.471,
      "duration": 0.176,
      "velocity": 0.58,
      "hand": "left"
    },
    {
      "midi": 45,
      "time": 41.471,
      "duration": 0.353,
      "velocity": 0.86,
      "hand": "left"
    },
    {
      "midi": 50,
      "time": 41.471,
      "duration": 0.353,
      "velocity": 0.79,
      "hand": "left"
    },
    {
      "midi": 57,
      "time": 41.471,
      "duration": 0.353,
      "velocity": 0.79,
      "hand": "left"
    },
    {
      "midi": 66,
      "time": 41.471,
      "duration": 0.353,
      "velocity": 0.83,
      "hand": "right"
    },
    {
      "midi": 69,
      "time": 41.471,
      "duration": 0.353,
      "velocity": 0.83,
      "hand": "right"
    },
    {
      "midi": 35,
      "time": 41.824,
      "duration": 0.176,
      "velocity": 0.58,
      "hand": "left"
    },
    {
      "midi": 42,
      "time": 41.824,
      "duration": 0.176,
      "velocity": 0.51,
      "hand": "left"
    },
    {
      "midi": 38,
      "time": 42,
      "duration": 0.176,
      "velocity": 0.86,
      "hand": "left"
    },
    {
      "midi": 45,
      "time": 42,
      "duration": 0.176,
      "velocity": 0.86,
      "hand": "left"
    },
    {
      "midi": 50,
      "time": 42,
      "duration": 0.176,
      "velocity": 0.79,
      "hand": "left"
    },
    {
      "midi": 57,
      "time": 42,
      "duration": 0.176,
      "velocity": 0.79,
      "hand": "left"
    },
    {
      "midi": 62,
      "time": 42,
      "duration": 0.176,
      "velocity": 0.83,
      "hand": "right"
    },
    {
      "midi": 66,
      "time": 42,
      "duration": 0.176,
      "velocity": 0.83,
      "hand": "right"
    },
    {
      "midi": 35,
      "time": 42.176,
      "duration": 0.176,
      "velocity": 0.73,
      "hand": "left"
    },
    {
      "midi": 42,
      "time": 42.176,
      "duration": 0.176,
      "velocity": 0.65,
      "hand": "left"
    },
    {
      "midi": 43,
      "time": 42.176,
      "duration": 0.529,
      "velocity": 0.86,
      "hand": "left"
    },
    {
      "midi": 47,
      "time": 42.176,
      "duration": 0.529,
      "velocity": 0.86,
      "hand": "left"
    },
    {
      "midi": 55,
      "time": 42.176,
      "duration": 0.529,
      "velocity": 0.79,
      "hand": "left"
    },
    {
      "midi": 59,
      "time": 42.176,
      "duration": 0.529,
      "velocity": 0.79,
      "hand": "left"
    },
    {
      "midi": 62,
      "time": 42.176,
      "duration": 0.529,
      "velocity": 0.83,
      "hand": "right"
    },
    {
      "midi": 64,
      "time": 42.176,
      "duration": 0.529,
      "velocity": 0.83,
      "hand": "right"
    },
    {
      "midi": 42,
      "time": 42.529,
      "duration": 0.176,
      "velocity": 0.51,
      "hand": "left"
    },
    {
      "midi": 37,
      "time": 42.882,
      "duration": 0.176,
      "velocity": 0.73,
      "hand": "left"
    },
    {
      "midi": 42,
      "time": 42.882,
      "duration": 0.176,
      "velocity": 0.58,
      "hand": "left"
    },
    {
      "midi": 43,
      "time": 42.882,
      "duration": 0.353,
      "velocity": 0.86,
      "hand": "left"
    },
    {
      "midi": 47,
      "time": 42.882,
      "duration": 0.353,
      "velocity": 0.86,
      "hand": "left"
    },
    {
      "midi": 55,
      "time": 42.882,
      "duration": 0.353,
      "velocity": 0.79,
      "hand": "left"
    },
    {
      "midi": 59,
      "time": 42.882,
      "duration": 0.353,
      "velocity": 0.79,
      "hand": "left"
    },
    {
      "midi": 62,
      "time": 42.882,
      "duration": 0.353,
      "velocity": 0.83,
      "hand": "right"
    },
    {
      "midi": 64,
      "time": 43.059,
      "duration": 0.353,
      "velocity": 0.83,
      "hand": "right"
    },
    {
      "midi": 35,
      "time": 43.235,
      "duration": 0.176,
      "velocity": 0.58,
      "hand": "left"
    },
    {
      "midi": 42,
      "time": 43.235,
      "duration": 0.176,
      "velocity": 0.51,
      "hand": "left"
    },
    {
      "midi": 43,
      "time": 43.412,
      "duration": 0.176,
      "velocity": 0.86,
      "hand": "left"
    },
    {
      "midi": 47,
      "time": 43.412,
      "duration": 0.176,
      "velocity": 0.86,
      "hand": "left"
    },
    {
      "midi": 55,
      "time": 43.412,
      "duration": 0.176,
      "velocity": 0.79,
      "hand": "left"
    },
    {
      "midi": 59,
      "time": 43.412,
      "duration": 0.176,
      "velocity": 0.79,
      "hand": "left"
    },
    {
      "midi": 62,
      "time": 43.412,
      "duration": 0.176,
      "velocity": 0.83,
      "hand": "right"
    },
    {
      "midi": 64,
      "time": 43.412,
      "duration": 0.176,
      "velocity": 0.83,
      "hand": "right"
    },
    {
      "midi": 35,
      "time": 43.588,
      "duration": 0.176,
      "velocity": 0.73,
      "hand": "left"
    },
    {
      "midi": 42,
      "time": 43.588,
      "duration": 0.176,
      "velocity": 0.65,
      "hand": "left"
    },
    {
      "midi": 45,
      "time": 43.588,
      "duration": 0.529,
      "velocity": 0.86,
      "hand": "left"
    },
    {
      "midi": 57,
      "time": 43.588,
      "duration": 0.529,
      "velocity": 0.79,
      "hand": "left"
    },
    {
      "midi": 61,
      "time": 43.588,
      "duration": 0.529,
      "velocity": 0.83,
      "hand": "right"
    },
    {
      "midi": 64,
      "time": 43.588,
      "duration": 0.529,
      "velocity": 0.83,
      "hand": "right"
    },
    {
      "midi": 38,
      "time": 43.941,
      "duration": 0.176,
      "velocity": 0.73,
      "hand": "left"
    },
    {
      "midi": 42,
      "time": 43.941,
      "duration": 0.176,
      "velocity": 0.51,
      "hand": "left"
    },
    {
      "midi": 38,
      "time": 44.118,
      "duration": 0.176,
      "velocity": 0.58,
      "hand": "left"
    },
    {
      "midi": 33,
      "time": 44.294,
      "duration": 0.353,
      "velocity": 0.86,
      "hand": "left"
    },
    {
      "midi": 38,
      "time": 44.294,
      "duration": 0.176,
      "velocity": 0.83,
      "hand": "left"
    },
    {
      "midi": 42,
      "time": 44.294,
      "duration": 0.176,
      "velocity": 0.58,
      "hand": "left"
    },
    {
      "midi": 45,
      "time": 44.294,
      "duration": 0.353,
      "velocity": 0.79,
      "hand": "left"
    },
    {
      "midi": 57,
      "time": 44.294,
      "duration": 0.353,
      "velocity": 0.79,
      "hand": "left"
    },
    {
      "midi": 61,
      "time": 44.294,
      "duration": 0.353,
      "velocity": 0.83,
      "hand": "right"
    },
    {
      "midi": 66,
      "time": 44.294,
      "duration": 0.353,
      "velocity": 0.83,
      "hand": "right"
    },
    {
      "midi": 35,
      "time": 44.647,
      "duration": 0.176,
      "velocity": 0.58,
      "hand": "left"
    },
    {
      "midi": 46,
      "time": 44.647,
      "duration": 0.176,
      "velocity": 0.65,
      "hand": "left"
    },
    {
      "midi": 33,
      "time": 44.824,
      "duration": 0.176,
      "velocity": 0.86,
      "hand": "left"
    },
    {
      "midi": 43,
      "time": 44.824,
      "duration": 0.176,
      "velocity": 0.86,
      "hand": "left"
    },
    {
      "midi": 45,
      "time": 44.824,
      "duration": 0.176,
      "velocity": 0.79,
      "hand": "left"
    },
    {
      "midi": 55,
      "time": 44.824,
      "duration": 0.176,
      "velocity": 0.79,
      "hand": "left"
    },
    {
      "midi": 61,
      "time": 44.824,
      "duration": 0.176,
      "velocity": 0.83,
      "hand": "right"
    },
    {
      "midi": 64,
      "time": 44.824,
      "duration": 0.176,
      "velocity": 0.83,
      "hand": "right"
    },
    {
      "midi": 35,
      "time": 45,
      "duration": 0.176,
      "velocity": 0.65,
      "hand": "left"
    },
    {
      "midi": 38,
      "time": 45,
      "duration": 1.412,
      "velocity": 0.86,
      "hand": "left"
    },
    {
      "midi": 42,
      "time": 45,
      "duration": 1.412,
      "velocity": 0.86,
      "hand": "left"
    },
    {
      "midi": 42,
      "time": 45,
      "duration": 0.176,
      "velocity": 0.58,
      "hand": "left"
    },
    {
      "midi": 50,
      "time": 45,
      "duration": 1.412,
      "velocity": 0.79,
      "hand": "left"
    },
    {
      "midi": 54,
      "time": 45,
      "duration": 1.412,
      "velocity": 0.79,
      "hand": "left"
    },
    {
      "midi": 62,
      "time": 45,
      "duration": 1.412,
      "velocity": 0.83,
      "hand": "right"
    },
    {
      "midi": 42,
      "time": 45.353,
      "duration": 0.176,
      "velocity": 0.36,
      "hand": "left"
    },
    {
      "midi": 42,
      "time": 45.529,
      "duration": 0.176,
      "velocity": 0.73,
      "hand": "left"
    },
    {
      "midi": 38,
      "time": 45.706,
      "duration": 0.176,
      "velocity": 0.73,
      "hand": "left"
    },
    {
      "midi": 46,
      "time": 45.706,
      "duration": 0.176,
      "velocity": 0.73,
      "hand": "left"
    },
    {
      "midi": 35,
      "time": 46.235,
      "duration": 0.176,
      "velocity": 0.65,
      "hand": "left"
    },
    {
      "midi": 38,
      "time": 46.412,
      "duration": 0.176,
      "velocity": 0.73,
      "hand": "left"
    },
    {
      "midi": 38,
      "time": 46.588,
      "duration": 0.176,
      "velocity": 0.43,
      "hand": "left"
    },
    {
      "midi": 35,
      "time": 46.941,
      "duration": 0.176,
      "velocity": 0.65,
      "hand": "left"
    },
    {
      "midi": 38,
      "time": 47.118,
      "duration": 0.176,
      "velocity": 0.73,
      "hand": "left"
    },
    {
      "midi": 38,
      "time": 47.294,
      "duration": 0.176,
      "velocity": 0.43,
      "hand": "left"
    },
    {
      "midi": 41,
      "time": 47.471,
      "duration": 0.176,
      "velocity": 0.83,
      "hand": "left"
    },
    {
      "midi": 35,
      "time": 47.824,
      "duration": 0.176,
      "velocity": 0.73,
      "hand": "left"
    },
    {
      "midi": 38,
      "time": 47.824,
      "duration": 0.176,
      "velocity": 0.86,
      "hand": "left"
    },
    {
      "midi": 42,
      "time": 47.824,
      "duration": 0.176,
      "velocity": 0.65,
      "hand": "left"
    },
    {
      "midi": 49,
      "time": 47.824,
      "duration": 0.176,
      "velocity": 0.65,
      "hand": "left"
    },
    {
      "midi": 50,
      "time": 47.824,
      "duration": 0.176,
      "velocity": 0.79,
      "hand": "left"
    },
    {
      "midi": 62,
      "time": 47.824,
      "duration": 0.176,
      "velocity": 0.79,
      "hand": "right"
    },
    {
      "midi": 66,
      "time": 47.824,
      "duration": 0.176,
      "velocity": 0.83,
      "hand": "right"
    },
    {
      "midi": 69,
      "time": 47.824,
      "duration": 1.588,
      "velocity": 0.83,
      "hand": "right"
    },
    {
      "midi": 38,
      "time": 48,
      "duration": 0.353,
      "velocity": 0.86,
      "hand": "left"
    },
    {
      "midi": 50,
      "time": 48,
      "duration": 0.353,
      "velocity": 0.79,
      "hand": "left"
    },
    {
      "midi": 62,
      "time": 48,
      "duration": 0.353,
      "velocity": 0.79,
      "hand": "right"
    },
    {
      "midi": 66,
      "time": 48,
      "duration": 0.353,
      "velocity": 0.83,
      "hand": "right"
    },
    {
      "midi": 42,
      "time": 48.176,
      "duration": 0.176,
      "velocity": 0.51,
      "hand": "left"
    },
    {
      "midi": 42,
      "time": 48.353,
      "duration": 0.176,
      "velocity": 0.43,
      "hand": "left"
    },
    {
      "midi": 38,
      "time": 48.529,
      "duration": 0.353,
      "velocity": 0.86,
      "hand": "left"
    },
    {
      "midi": 38,
      "time": 48.529,
      "duration": 0.176,
      "velocity": 0.73,
      "hand": "left"
    },
    {
      "midi": 42,
      "time": 48.529,
      "duration": 0.176,
      "velocity": 0.58,
      "hand": "left"
    },
    {
      "midi": 50,
      "time": 48.529,
      "duration": 0.353,
      "velocity": 0.79,
      "hand": "left"
    },
    {
      "midi": 62,
      "time": 48.529,
      "duration": 0.353,
      "velocity": 0.79,
      "hand": "right"
    },
    {
      "midi": 66,
      "time": 48.529,
      "duration": 0.353,
      "velocity": 0.83,
      "hand": "right"
    },
    {
      "midi": 42,
      "time": 48.882,
      "duration": 0.176,
      "velocity": 0.51,
      "hand": "left"
    },
    {
      "midi": 35,
      "time": 49.059,
      "duration": 0.176,
      "velocity": 0.58,
      "hand": "left"
    },
    {
      "midi": 38,
      "time": 49.059,
      "duration": 0.176,
      "velocity": 0.86,
      "hand": "left"
    },
    {
      "midi": 42,
      "time": 49.059,
      "duration": 0.176,
      "velocity": 0.43,
      "hand": "left"
    },
    {
      "midi": 50,
      "time": 49.059,
      "duration": 0.176,
      "velocity": 0.79,
      "hand": "left"
    },
    {
      "midi": 62,
      "time": 49.059,
      "duration": 0.176,
      "velocity": 0.79,
      "hand": "right"
    },
    {
      "midi": 66,
      "time": 49.059,
      "duration": 0.176,
      "velocity": 0.83,
      "hand": "right"
    },
    {
      "midi": 35,
      "time": 49.235,
      "duration": 0.176,
      "velocity": 0.73,
      "hand": "left"
    },
    {
      "midi": 38,
      "time": 49.235,
      "duration": 0.529,
      "velocity": 0.86,
      "hand": "left"
    },
    {
      "midi": 42,
      "time": 49.235,
      "duration": 0.176,
      "velocity": 0.65,
      "hand": "left"
    },
    {
      "midi": 50,
      "time": 49.235,
      "duration": 0.529,
      "velocity": 0.79,
      "hand": "left"
    },
    {
      "midi": 62,
      "time": 49.235,
      "duration": 0.529,
      "velocity": 0.79,
      "hand": "right"
    },
    {
      "midi": 66,
      "time": 49.235,
      "duration": 0.529,
      "velocity": 0.83,
      "hand": "right"
    },
    {
      "midi": 69,
      "time": 49.235,
      "duration": 0.353,
      "velocity": 0.83,
      "hand": "right"
    },
    {
      "midi": 42,
      "time": 49.588,
      "duration": 0.176,
      "velocity": 0.51,
      "hand": "left"
    },
    {
      "midi": 42,
      "time": 49.765,
      "duration": 0.176,
      "velocity": 0.43,
      "hand": "left"
    },
    {
      "midi": 66,
      "time": 49.765,
      "duration": 0.176,
      "velocity": 0.83,
      "hand": "right"
    },
    {
      "midi": 38,
      "time": 49.941,
      "duration": 0.176,
      "velocity": 0.73,
      "hand": "left"
    },
    {
      "midi": 42,
      "time": 49.941,
      "duration": 0.176,
      "velocity": 0.58,
      "hand": "left"
    },
    {
      "midi": 69,
      "time": 49.941,
      "duration": 0.353,
      "velocity": 0.83,
      "hand": "right"
    },
    {
      "midi": 35,
      "time": 50.294,
      "duration": 0.176,
      "velocity": 0.58,
      "hand": "left"
    },
    {
      "midi": 42,
      "time": 50.294,
      "duration": 0.176,
      "velocity": 0.51,
      "hand": "left"
    },
    {
      "midi": 42,
      "time": 50.471,
      "duration": 0.176,
      "velocity": 0.43,
      "hand": "left"
    },
    {
      "midi": 74,
      "time": 50.471,
      "duration": 0.176,
      "velocity": 0.83,
      "hand": "right"
    },
    {
      "midi": 33,
      "time": 50.647,
      "duration": 0.176,
      "velocity": 0.86,
      "hand": "left"
    },
    {
      "midi": 35,
      "time": 50.647,
      "duration": 0.176,
      "velocity": 0.73,
      "hand": "left"
    },
    {
      "midi": 42,
      "time": 50.647,
      "duration": 0.176,
      "velocity": 0.65,
      "hand": "left"
    },
    {
      "midi": 45,
      "time": 50.647,
      "duration": 0.176,
      "velocity": 0.79,
      "hand": "left"
    },
    {
      "midi": 52,
      "time": 50.647,
      "duration": 0.176,
      "velocity": 0.86,
      "hand": "left"
    },
    {
      "midi": 64,
      "time": 50.647,
      "duration": 0.176,
      "velocity": 0.79,
      "hand": "right"
    },
    {
      "midi": 67,
      "time": 50.647,
      "duration": 0.176,
      "velocity": 0.83,
      "hand": "right"
    },
    {
      "midi": 73,
      "time": 50.647,
      "duration": 1.588,
      "velocity": 0.83,
      "hand": "right"
    },
    {
      "midi": 73,
      "time": 50.647,
      "duration": 0.882,
      "velocity": 0.86,
      "hand": "right"
    },
    {
      "midi": 33,
      "time": 50.824,
      "duration": 0.353,
      "velocity": 0.86,
      "hand": "left"
    },
    {
      "midi": 45,
      "time": 50.824,
      "duration": 0.353,
      "velocity": 0.79,
      "hand": "left"
    },
    {
      "midi": 52,
      "time": 50.824,
      "duration": 0.353,
      "velocity": 0.86,
      "hand": "left"
    },
    {
      "midi": 64,
      "time": 50.824,
      "duration": 0.353,
      "velocity": 0.79,
      "hand": "right"
    },
    {
      "midi": 67,
      "time": 50.824,
      "duration": 0.353,
      "velocity": 0.83,
      "hand": "right"
    },
    {
      "midi": 42,
      "time": 51,
      "duration": 0.176,
      "velocity": 0.51,
      "hand": "left"
    },
    {
      "midi": 42,
      "time": 51.176,
      "duration": 0.176,
      "velocity": 0.43,
      "hand": "left"
    },
    {
      "midi": 33,
      "time": 51.353,
      "duration": 0.353,
      "velocity": 0.86,
      "hand": "left"
    },
    {
      "midi": 38,
      "time": 51.353,
      "duration": 0.176,
      "velocity": 0.73,
      "hand": "left"
    },
    {
      "midi": 42,
      "time": 51.353,
      "duration": 0.176,
      "velocity": 0.58,
      "hand": "left"
    },
    {
      "midi": 45,
      "time": 51.353,
      "duration": 0.353,
      "velocity": 0.79,
      "hand": "left"
    },
    {
      "midi": 52,
      "time": 51.353,
      "duration": 0.353,
      "velocity": 0.86,
      "hand": "left"
    },
    {
      "midi": 64,
      "time": 51.353,
      "duration": 0.353,
      "velocity": 0.79,
      "hand": "right"
    },
    {
      "midi": 67,
      "time": 51.353,
      "duration": 0.353,
      "velocity": 0.83,
      "hand": "right"
    },
    {
      "midi": 42,
      "time": 51.706,
      "duration": 0.176,
      "velocity": 0.51,
      "hand": "left"
    },
    {
      "midi": 33,
      "time": 51.882,
      "duration": 0.176,
      "velocity": 0.86,
      "hand": "left"
    },
    {
      "midi": 35,
      "time": 51.882,
      "duration": 0.176,
      "velocity": 0.58,
      "hand": "left"
    },
    {
      "midi": 45,
      "time": 51.882,
      "duration": 0.176,
      "velocity": 0.79,
      "hand": "left"
    },
    {
      "midi": 46,
      "time": 51.882,
      "duration": 0.176,
      "velocity": 0.52,
      "hand": "left"
    },
    {
      "midi": 52,
      "time": 51.882,
      "duration": 0.176,
      "velocity": 0.86,
      "hand": "left"
    },
    {
      "midi": 64,
      "time": 51.882,
      "duration": 0.176,
      "velocity": 0.79,
      "hand": "right"
    },
    {
      "midi": 67,
      "time": 51.882,
      "duration": 0.176,
      "velocity": 0.83,
      "hand": "right"
    },
    {
      "midi": 33,
      "time": 52.059,
      "duration": 0.529,
      "velocity": 0.86,
      "hand": "left"
    },
    {
      "midi": 35,
      "time": 52.059,
      "duration": 0.176,
      "velocity": 0.73,
      "hand": "left"
    },
    {
      "midi": 42,
      "time": 52.059,
      "duration": 0.176,
      "velocity": 0.65,
      "hand": "left"
    },
    {
      "midi": 45,
      "time": 52.059,
      "duration": 0.529,
      "velocity": 0.79,
      "hand": "left"
    },
    {
      "midi": 52,
      "time": 52.059,
      "duration": 0.529,
      "velocity": 0.86,
      "hand": "left"
    },
    {
      "midi": 64,
      "time": 52.059,
      "duration": 0.529,
      "velocity": 0.79,
      "hand": "right"
    },
    {
      "midi": 67,
      "time": 52.059,
      "duration": 0.529,
      "velocity": 0.83,
      "hand": "right"
    },
    {
      "midi": 73,
      "time": 52.059,
      "duration": 0.529,
      "velocity": 0.83,
      "hand": "right"
    },
    {
      "midi": 35,
      "time": 52.412,
      "duration": 0.176,
      "velocity": 0.58,
      "hand": "left"
    },
    {
      "midi": 42,
      "time": 52.412,
      "duration": 0.176,
      "velocity": 0.51,
      "hand": "left"
    },
    {
      "midi": 42,
      "time": 52.588,
      "duration": 0.176,
      "velocity": 0.43,
      "hand": "left"
    },
    {
      "midi": 38,
      "time": 52.765,
      "duration": 0.176,
      "velocity": 0.73,
      "hand": "left"
    },
    {
      "midi": 42,
      "time": 52.765,
      "duration": 0.176,
      "velocity": 0.58,
      "hand": "left"
    },
    {
      "midi": 35,
      "time": 53.118,
      "duration": 0.176,
      "velocity": 0.58,
      "hand": "left"
    },
    {
      "midi": 42,
      "time": 53.118,
      "duration": 0.176,
      "velocity": 0.51,
      "hand": "left"
    },
    {
      "midi": 42,
      "time": 53.294,
      "duration": 0.176,
      "velocity": 0.43,
      "hand": "left"
    },
    {
      "midi": 35,
      "time": 53.471,
      "duration": 0.176,
      "velocity": 0.73,
      "hand": "left"
    },
    {
      "midi": 42,
      "time": 53.471,
      "duration": 0.176,
      "velocity": 0.65,
      "hand": "left"
    },
    {
      "midi": 45,
      "time": 53.471,
      "duration": 0.176,
      "velocity": 0.86,
      "hand": "left"
    },
    {
      "midi": 49,
      "time": 53.471,
      "duration": 0.176,
      "velocity": 0.86,
      "hand": "left"
    },
    {
      "midi": 57,
      "time": 53.471,
      "duration": 0.176,
      "velocity": 0.79,
      "hand": "left"
    },
    {
      "midi": 61,
      "time": 53.471,
      "duration": 0.176,
      "velocity": 0.79,
      "hand": "right"
    },
    {
      "midi": 64,
      "time": 53.471,
      "duration": 0.176,
      "velocity": 0.83,
      "hand": "right"
    },
    {
      "midi": 67,
      "time": 53.471,
      "duration": 1.588,
      "velocity": 0.83,
      "hand": "right"
    },
    {
      "midi": 45,
      "time": 53.647,
      "duration": 0.353,
      "velocity": 0.86,
      "hand": "left"
    },
    {
      "midi": 49,
      "time": 53.647,
      "duration": 0.353,
      "velocity": 0.86,
      "hand": "left"
    },
    {
      "midi": 57,
      "time": 53.647,
      "duration": 0.353,
      "velocity": 0.79,
      "hand": "left"
    },
    {
      "midi": 61,
      "time": 53.647,
      "duration": 0.353,
      "velocity": 0.79,
      "hand": "right"
    },
    {
      "midi": 64,
      "time": 53.647,
      "duration": 0.353,
      "velocity": 0.83,
      "hand": "right"
    },
    {
      "midi": 42,
      "time": 53.824,
      "duration": 0.176,
      "velocity": 0.51,
      "hand": "left"
    },
    {
      "midi": 42,
      "time": 54,
      "duration": 0.176,
      "velocity": 0.43,
      "hand": "left"
    },
    {
      "midi": 38,
      "time": 54.176,
      "duration": 0.176,
      "velocity": 0.73,
      "hand": "left"
    },
    {
      "midi": 42,
      "time": 54.176,
      "duration": 0.176,
      "velocity": 0.58,
      "hand": "left"
    },
    {
      "midi": 45,
      "time": 54.176,
      "duration": 0.353,
      "velocity": 0.86,
      "hand": "left"
    },
    {
      "midi": 49,
      "time": 54.176,
      "duration": 0.353,
      "velocity": 0.86,
      "hand": "left"
    },
    {
      "midi": 57,
      "time": 54.176,
      "duration": 0.353,
      "velocity": 0.79,
      "hand": "left"
    },
    {
      "midi": 61,
      "time": 54.176,
      "duration": 0.353,
      "velocity": 0.79,
      "hand": "right"
    },
    {
      "midi": 64,
      "time": 54.176,
      "duration": 0.353,
      "velocity": 0.83,
      "hand": "right"
    },
    {
      "midi": 42,
      "time": 54.529,
      "duration": 0.176,
      "velocity": 0.51,
      "hand": "left"
    },
    {
      "midi": 35,
      "time": 54.706,
      "duration": 0.176,
      "velocity": 0.58,
      "hand": "left"
    },
    {
      "midi": 42,
      "time": 54.706,
      "duration": 0.176,
      "velocity": 0.43,
      "hand": "left"
    },
    {
      "midi": 45,
      "time": 54.706,
      "duration": 0.176,
      "velocity": 0.86,
      "hand": "left"
    },
    {
      "midi": 49,
      "time": 54.706,
      "duration": 0.176,
      "velocity": 0.86,
      "hand": "left"
    },
    {
      "midi": 57,
      "time": 54.706,
      "duration": 0.176,
      "velocity": 0.79,
      "hand": "left"
    },
    {
      "midi": 61,
      "time": 54.706,
      "duration": 0.176,
      "velocity": 0.79,
      "hand": "right"
    },
    {
      "midi": 64,
      "time": 54.706,
      "duration": 0.176,
      "velocity": 0.83,
      "hand": "right"
    },
    {
      "midi": 35,
      "time": 54.882,
      "duration": 0.176,
      "velocity": 0.73,
      "hand": "left"
    },
    {
      "midi": 42,
      "time": 54.882,
      "duration": 0.176,
      "velocity": 0.65,
      "hand": "left"
    },
    {
      "midi": 45,
      "time": 54.882,
      "duration": 0.529,
      "velocity": 0.86,
      "hand": "left"
    },
    {
      "midi": 49,
      "time": 54.882,
      "duration": 0.529,
      "velocity": 0.86,
      "hand": "left"
    },
    {
      "midi": 57,
      "time": 54.882,
      "duration": 0.529,
      "velocity": 0.79,
      "hand": "left"
    },
    {
      "midi": 61,
      "time": 54.882,
      "duration": 0.529,
      "velocity": 0.79,
      "hand": "right"
    },
    {
      "midi": 64,
      "time": 54.882,
      "duration": 0.529,
      "velocity": 0.83,
      "hand": "right"
    },
    {
      "midi": 67,
      "time": 54.882,
      "duration": 0.353,
      "velocity": 0.83,
      "hand": "right"
    },
    {
      "midi": 42,
      "time": 55.235,
      "duration": 0.176,
      "velocity": 0.51,
      "hand": "left"
    },
    {
      "midi": 46,
      "time": 55.412,
      "duration": 0.176,
      "velocity": 0.58,
      "hand": "left"
    },
    {
      "midi": 64,
      "time": 55.412,
      "duration": 0.176,
      "velocity": 0.83,
      "hand": "right"
    },
    {
      "midi": 38,
      "time": 55.588,
      "duration": 0.176,
      "velocity": 0.73,
      "hand": "left"
    },
    {
      "midi": 42,
      "time": 55.588,
      "duration": 0.176,
      "velocity": 0.58,
      "hand": "left"
    },
    {
      "midi": 67,
      "time": 55.588,
      "duration": 0.353,
      "velocity": 0.83,
      "hand": "right"
    },
    {
      "midi": 35,
      "time": 55.941,
      "duration": 0.176,
      "velocity": 0.58,
      "hand": "left"
    },
    {
      "midi": 42,
      "time": 55.941,
      "duration": 0.176,
      "velocity": 0.51,
      "hand": "left"
    },
    {
      "midi": 42,
      "time": 56.118,
      "duration": 0.176,
      "velocity": 0.43,
      "hand": "left"
    },
    {
      "midi": 71,
      "time": 56.118,
      "duration": 0.176,
      "velocity": 0.83,
      "hand": "right"
    },
    {
      "midi": 35,
      "time": 56.294,
      "duration": 0.176,
      "velocity": 0.73,
      "hand": "left"
    },
    {
      "midi": 38,
      "time": 56.294,
      "duration": 0.176,
      "velocity": 0.86,
      "hand": "left"
    },
    {
      "midi": 42,
      "time": 56.294,
      "duration": 0.176,
      "velocity": 0.65,
      "hand": "left"
    },
    {
      "midi": 50,
      "time": 56.294,
      "duration": 0.176,
      "velocity": 0.79,
      "hand": "left"
    },
    {
      "midi": 62,
      "time": 56.294,
      "duration": 0.176,
      "velocity": 0.79,
      "hand": "right"
    },
    {
      "midi": 69,
      "time": 56.294,
      "duration": 0.882,
      "velocity": 0.83,
      "hand": "right"
    },
    {
      "midi": 38,
      "time": 56.471,
      "duration": 0.353,
      "velocity": 0.86,
      "hand": "left"
    },
    {
      "midi": 50,
      "time": 56.471,
      "duration": 0.353,
      "velocity": 0.79,
      "hand": "left"
    },
    {
      "midi": 62,
      "time": 56.471,
      "duration": 0.353,
      "velocity": 0.79,
      "hand": "right"
    },
    {
      "midi": 42,
      "time": 56.647,
      "duration": 0.176,
      "velocity": 0.51,
      "hand": "left"
    },
    {
      "midi": 42,
      "time": 56.824,
      "duration": 0.176,
      "velocity": 0.43,
      "hand": "left"
    },
    {
      "midi": 38,
      "time": 57,
      "duration": 0.353,
      "velocity": 0.86,
      "hand": "left"
    },
    {
      "midi": 38,
      "time": 57,
      "duration": 0.176,
      "velocity": 0.73,
      "hand": "left"
    },
    {
      "midi": 42,
      "time": 57,
      "duration": 0.176,
      "velocity": 0.58,
      "hand": "left"
    },
    {
      "midi": 50,
      "time": 57,
      "duration": 0.353,
      "velocity": 0.79,
      "hand": "left"
    },
    {
      "midi": 62,
      "time": 57,
      "duration": 0.353,
      "velocity": 0.79,
      "hand": "right"
    },
    {
      "midi": 42,
      "time": 57.353,
      "duration": 0.176,
      "velocity": 0.51,
      "hand": "left"
    },
    {
      "midi": 35,
      "time": 57.529,
      "duration": 0.176,
      "velocity": 0.58,
      "hand": "left"
    },
    {
      "midi": 38,
      "time": 57.529,
      "duration": 0.176,
      "velocity": 0.86,
      "hand": "left"
    },
    {
      "midi": 42,
      "time": 57.529,
      "duration": 0.176,
      "velocity": 0.43,
      "hand": "left"
    },
    {
      "midi": 50,
      "time": 57.529,
      "duration": 0.176,
      "velocity": 0.79,
      "hand": "left"
    },
    {
      "midi": 62,
      "time": 57.529,
      "duration": 0.176,
      "velocity": 0.79,
      "hand": "right"
    },
    {
      "midi": 35,
      "time": 57.706,
      "duration": 0.176,
      "velocity": 0.73,
      "hand": "left"
    },
    {
      "midi": 38,
      "time": 57.706,
      "duration": 0.529,
      "velocity": 0.86,
      "hand": "left"
    },
    {
      "midi": 42,
      "time": 57.706,
      "duration": 0.176,
      "velocity": 0.65,
      "hand": "left"
    },
    {
      "midi": 50,
      "time": 57.706,
      "duration": 0.529,
      "velocity": 0.79,
      "hand": "left"
    },
    {
      "midi": 62,
      "time": 57.706,
      "duration": 0.529,
      "velocity": 0.79,
      "hand": "right"
    },
    {
      "midi": 69,
      "time": 57.706,
      "duration": 0.529,
      "velocity": 0.83,
      "hand": "right"
    },
    {
      "midi": 42,
      "time": 58.059,
      "duration": 0.176,
      "velocity": 0.51,
      "hand": "left"
    },
    {
      "midi": 42,
      "time": 58.235,
      "duration": 0.176,
      "velocity": 0.43,
      "hand": "left"
    },
    {
      "midi": 38,
      "time": 58.412,
      "duration": 0.176,
      "velocity": 0.73,
      "hand": "left"
    },
    {
      "midi": 42,
      "time": 58.412,
      "duration": 0.176,
      "velocity": 0.58,
      "hand": "left"
    },
    {
      "midi": 35,
      "time": 58.765,
      "duration": 0.176,
      "velocity": 0.58,
      "hand": "left"
    },
    {
      "midi": 42,
      "time": 58.765,
      "duration": 0.176,
      "velocity": 0.51,
      "hand": "left"
    },
    {
      "midi": 42,
      "time": 58.941,
      "duration": 0.176,
      "velocity": 0.43,
      "hand": "left"
    },
    {
      "midi": 35,
      "time": 59.118,
      "duration": 0.176,
      "velocity": 0.73,
      "hand": "left"
    },
    {
      "midi": 38,
      "time": 59.118,
      "duration": 0.529,
      "velocity": 0.86,
      "hand": "left"
    },
    {
      "midi": 42,
      "time": 59.118,
      "duration": 0.176,
      "velocity": 0.65,
      "hand": "left"
    },
    {
      "midi": 45,
      "time": 59.118,
      "duration": 0.529,
      "velocity": 0.86,
      "hand": "left"
    },
    {
      "midi": 50,
      "time": 59.118,
      "duration": 0.529,
      "velocity": 0.79,
      "hand": "left"
    },
    {
      "midi": 57,
      "time": 59.118,
      "duration": 0.529,
      "velocity": 0.79,
      "hand": "left"
    },
    {
      "midi": 66,
      "time": 59.118,
      "duration": 0.529,
      "velocity": 0.83,
      "hand": "right"
    },
    {
      "midi": 74,
      "time": 59.118,
      "duration": 0.529,
      "velocity": 0.83,
      "hand": "right"
    },
    {
      "midi": 42,
      "time": 59.471,
      "duration": 0.176,
      "velocity": 0.51,
      "hand": "left"
    },
    {
      "midi": 42,
      "time": 59.647,
      "duration": 0.176,
      "velocity": 0.43,
      "hand": "left"
    },
    {
      "midi": 38,
      "time": 59.824,
      "duration": 0.353,
      "velocity": 0.86,
      "hand": "left"
    },
    {
      "midi": 38,
      "time": 59.824,
      "duration": 0.176,
      "velocity": 0.73,
      "hand": "left"
    },
    {
      "midi": 42,
      "time": 59.824,
      "duration": 0.176,
      "velocity": 0.58,
      "hand": "left"
    },
    {
      "midi": 45,
      "time": 59.824,
      "duration": 0.353,
      "velocity": 0.86,
      "hand": "left"
    },
    {
      "midi": 50,
      "time": 59.824,
      "duration": 0.353,
      "velocity": 0.79,
      "hand": "left"
    },
    {
      "midi": 57,
      "time": 59.824,
      "duration": 0.353,
      "velocity": 0.79,
      "hand": "left"
    },
    {
      "midi": 66,
      "time": 59.824,
      "duration": 0.353,
      "velocity": 0.83,
      "hand": "right"
    },
    {
      "midi": 74,
      "time": 59.824,
      "duration": 0.353,
      "velocity": 0.83,
      "hand": "right"
    },
    {
      "midi": 42,
      "time": 60.176,
      "duration": 0.176,
      "velocity": 0.51,
      "hand": "left"
    },
    {
      "midi": 35,
      "time": 60.353,
      "duration": 0.176,
      "velocity": 0.58,
      "hand": "left"
    },
    {
      "midi": 38,
      "time": 60.353,
      "duration": 0.176,
      "velocity": 0.86,
      "hand": "left"
    },
    {
      "midi": 42,
      "time": 60.353,
      "duration": 0.176,
      "velocity": 0.43,
      "hand": "left"
    },
    {
      "midi": 45,
      "time": 60.353,
      "duration": 0.176,
      "velocity": 0.86,
      "hand": "left"
    },
    {
      "midi": 50,
      "time": 60.353,
      "duration": 0.176,
      "velocity": 0.79,
      "hand": "left"
    },
    {
      "midi": 57,
      "time": 60.353,
      "duration": 0.176,
      "velocity": 0.79,
      "hand": "left"
    },
    {
      "midi": 66,
      "time": 60.353,
      "duration": 0.176,
      "velocity": 0.83,
      "hand": "right"
    },
    {
      "midi": 74,
      "time": 60.353,
      "duration": 0.176,
      "velocity": 0.83,
      "hand": "right"
    },
    {
      "midi": 35,
      "time": 60.529,
      "duration": 0.176,
      "velocity": 0.73,
      "hand": "left"
    },
    {
      "midi": 42,
      "time": 60.529,
      "duration": 0.529,
      "velocity": 0.86,
      "hand": "left"
    },
    {
      "midi": 42,
      "time": 60.529,
      "duration": 0.176,
      "velocity": 0.65,
      "hand": "left"
    },
    {
      "midi": 45,
      "time": 60.529,
      "duration": 0.529,
      "velocity": 0.86,
      "hand": "left"
    },
    {
      "midi": 54,
      "time": 60.529,
      "duration": 0.529,
      "velocity": 0.79,
      "hand": "left"
    },
    {
      "midi": 57,
      "time": 60.529,
      "duration": 0.529,
      "velocity": 0.79,
      "hand": "left"
    },
    {
      "midi": 69,
      "time": 60.529,
      "duration": 0.529,
      "velocity": 0.83,
      "hand": "right"
    },
    {
      "midi": 74,
      "time": 60.529,
      "duration": 0.529,
      "velocity": 0.83,
      "hand": "right"
    },
    {
      "midi": 42,
      "time": 60.882,
      "duration": 0.176,
      "velocity": 0.51,
      "hand": "left"
    },
    {
      "midi": 46,
      "time": 61.059,
      "duration": 0.176,
      "velocity": 0.58,
      "hand": "left"
    },
    {
      "midi": 38,
      "time": 61.235,
      "duration": 0.176,
      "velocity": 0.73,
      "hand": "left"
    },
    {
      "midi": 42,
      "time": 61.235,
      "duration": 0.353,
      "velocity": 0.86,
      "hand": "left"
    },
    {
      "midi": 42,
      "time": 61.235,
      "duration": 0.176,
      "velocity": 0.58,
      "hand": "left"
    },
    {
      "midi": 50,
      "time": 61.235,
      "duration": 0.353,
      "velocity": 0.86,
      "hand": "left"
    },
    {
      "midi": 54,
      "time": 61.235,
      "duration": 0.353,
      "velocity": 0.79,
      "hand": "left"
    },
    {
      "midi": 62,
      "time": 61.235,
      "duration": 0.353,
      "velocity": 0.79,
      "hand": "right"
    },
    {
      "midi": 69,
      "time": 61.235,
      "duration": 0.353,
      "velocity": 0.83,
      "hand": "right"
    },
    {
      "midi": 74,
      "time": 61.235,
      "duration": 0.353,
      "velocity": 0.83,
      "hand": "right"
    },
    {
      "midi": 35,
      "time": 61.588,
      "duration": 0.176,
      "velocity": 0.58,
      "hand": "left"
    },
    {
      "midi": 42,
      "time": 61.588,
      "duration": 0.176,
      "velocity": 0.51,
      "hand": "left"
    },
    {
      "midi": 42,
      "time": 61.765,
      "duration": 0.176,
      "velocity": 0.86,
      "hand": "left"
    },
    {
      "midi": 50,
      "time": 61.765,
      "duration": 0.176,
      "velocity": 0.86,
      "hand": "left"
    },
    {
      "midi": 54,
      "time": 61.765,
      "duration": 0.176,
      "velocity": 0.79,
      "hand": "left"
    },
    {
      "midi": 62,
      "time": 61.765,
      "duration": 0.176,
      "velocity": 0.79,
      "hand": "right"
    },
    {
      "midi": 69,
      "time": 61.765,
      "duration": 0.176,
      "velocity": 0.83,
      "hand": "right"
    },
    {
      "midi": 73,
      "time": 61.765,
      "duration": 0.176,
      "velocity": 0.83,
      "hand": "right"
    },
    {
      "midi": 35,
      "time": 61.941,
      "duration": 0.176,
      "velocity": 0.73,
      "hand": "left"
    },
    {
      "midi": 42,
      "time": 61.941,
      "duration": 0.176,
      "velocity": 0.65,
      "hand": "left"
    },
    {
      "midi": 43,
      "time": 61.941,
      "duration": 0.529,
      "velocity": 0.86,
      "hand": "left"
    },
    {
      "midi": 50,
      "time": 61.941,
      "duration": 0.529,
      "velocity": 0.86,
      "hand": "left"
    },
    {
      "midi": 55,
      "time": 61.941,
      "duration": 0.529,
      "velocity": 0.79,
      "hand": "left"
    },
    {
      "midi": 62,
      "time": 61.941,
      "duration": 0.529,
      "velocity": 0.79,
      "hand": "right"
    },
    {
      "midi": 67,
      "time": 61.941,
      "duration": 0.529,
      "velocity": 0.83,
      "hand": "right"
    },
    {
      "midi": 71,
      "time": 61.941,
      "duration": 0.882,
      "velocity": 0.83,
      "hand": "right"
    },
    {
      "midi": 42,
      "time": 62.294,
      "duration": 0.176,
      "velocity": 0.51,
      "hand": "left"
    },
    {
      "midi": 42,
      "time": 62.471,
      "duration": 0.176,
      "velocity": 0.43,
      "hand": "left"
    },
    {
      "midi": 38,
      "time": 62.647,
      "duration": 0.176,
      "velocity": 0.73,
      "hand": "left"
    },
    {
      "midi": 42,
      "time": 62.647,
      "duration": 0.176,
      "velocity": 0.58,
      "hand": "left"
    },
    {
      "midi": 43,
      "time": 62.647,
      "duration": 0.353,
      "velocity": 0.86,
      "hand": "left"
    },
    {
      "midi": 50,
      "time": 62.647,
      "duration": 0.353,
      "velocity": 0.86,
      "hand": "left"
    },
    {
      "midi": 55,
      "time": 62.647,
      "duration": 0.353,
      "velocity": 0.79,
      "hand": "left"
    },
    {
      "midi": 62,
      "time": 62.647,
      "duration": 0.353,
      "velocity": 0.79,
      "hand": "right"
    },
    {
      "midi": 67,
      "time": 62.647,
      "duration": 0.353,
      "velocity": 0.83,
      "hand": "right"
    },
    {
      "midi": 42,
      "time": 63,
      "duration": 0.176,
      "velocity": 0.51,
      "hand": "left"
    },
    {
      "midi": 35,
      "time": 63.176,
      "duration": 0.176,
      "velocity": 0.58,
      "hand": "left"
    },
    {
      "midi": 42,
      "time": 63.176,
      "duration": 0.176,
      "velocity": 0.43,
      "hand": "left"
    },
    {
      "midi": 43,
      "time": 63.176,
      "duration": 0.176,
      "velocity": 0.86,
      "hand": "left"
    },
    {
      "midi": 50,
      "time": 63.176,
      "duration": 0.176,
      "velocity": 0.86,
      "hand": "left"
    },
    {
      "midi": 55,
      "time": 63.176,
      "duration": 0.176,
      "velocity": 0.79,
      "hand": "left"
    },
    {
      "midi": 62,
      "time": 63.176,
      "duration": 0.176,
      "velocity": 0.79,
      "hand": "right"
    },
    {
      "midi": 67,
      "time": 63.176,
      "duration": 0.176,
      "velocity": 0.83,
      "hand": "right"
    },
    {
      "midi": 35,
      "time": 63.353,
      "duration": 0.176,
      "velocity": 0.73,
      "hand": "left"
    },
    {
      "midi": 42,
      "time": 63.353,
      "duration": 0.176,
      "velocity": 0.65,
      "hand": "left"
    },
    {
      "midi": 47,
      "time": 63.353,
      "duration": 0.529,
      "velocity": 0.86,
      "hand": "left"
    },
    {
      "midi": 50,
      "time": 63.353,
      "duration": 0.529,
      "velocity": 0.86,
      "hand": "left"
    },
    {
      "midi": 59,
      "time": 63.353,
      "duration": 0.529,
      "velocity": 0.79,
      "hand": "left"
    },
    {
      "midi": 62,
      "time": 63.353,
      "duration": 0.529,
      "velocity": 0.79,
      "hand": "right"
    },
    {
      "midi": 67,
      "time": 63.353,
      "duration": 0.529,
      "velocity": 0.83,
      "hand": "right"
    },
    {
      "midi": 35,
      "time": 63.706,
      "duration": 0.176,
      "velocity": 0.58,
      "hand": "left"
    },
    {
      "midi": 42,
      "time": 63.706,
      "duration": 0.176,
      "velocity": 0.51,
      "hand": "left"
    },
    {
      "midi": 42,
      "time": 63.882,
      "duration": 0.176,
      "velocity": 0.43,
      "hand": "left"
    },
    {
      "midi": 38,
      "time": 64.059,
      "duration": 0.176,
      "velocity": 0.73,
      "hand": "left"
    },
    {
      "midi": 42,
      "time": 64.059,
      "duration": 0.176,
      "velocity": 0.58,
      "hand": "left"
    },
    {
      "midi": 43,
      "time": 64.059,
      "duration": 0.353,
      "velocity": 0.86,
      "hand": "left"
    },
    {
      "midi": 50,
      "time": 64.059,
      "duration": 0.353,
      "velocity": 0.86,
      "hand": "left"
    },
    {
      "midi": 55,
      "time": 64.059,
      "duration": 0.353,
      "velocity": 0.79,
      "hand": "left"
    },
    {
      "midi": 62,
      "time": 64.059,
      "duration": 0.353,
      "velocity": 0.79,
      "hand": "right"
    },
    {
      "midi": 67,
      "time": 64.059,
      "duration": 0.353,
      "velocity": 0.83,
      "hand": "right"
    },
    {
      "midi": 71,
      "time": 64.059,
      "duration": 0.529,
      "velocity": 0.83,
      "hand": "right"
    },
    {
      "midi": 35,
      "time": 64.412,
      "duration": 0.176,
      "velocity": 0.58,
      "hand": "left"
    },
    {
      "midi": 42,
      "time": 64.412,
      "duration": 0.176,
      "velocity": 0.51,
      "hand": "left"
    },
    {
      "midi": 43,
      "time": 64.588,
      "duration": 0.176,
      "velocity": 0.86,
      "hand": "left"
    },
    {
      "midi": 46,
      "time": 64.588,
      "duration": 0.176,
      "velocity": 0.58,
      "hand": "left"
    },
    {
      "midi": 50,
      "time": 64.588,
      "duration": 0.176,
      "velocity": 0.86,
      "hand": "left"
    },
    {
      "midi": 55,
      "time": 64.588,
      "duration": 0.176,
      "velocity": 0.79,
      "hand": "left"
    },
    {
      "midi": 62,
      "time": 64.588,
      "duration": 0.176,
      "velocity": 0.79,
      "hand": "right"
    },
    {
      "midi": 67,
      "time": 64.588,
      "duration": 0.176,
      "velocity": 0.83,
      "hand": "right"
    },
    {
      "midi": 35,
      "time": 64.765,
      "duration": 0.176,
      "velocity": 0.73,
      "hand": "left"
    },
    {
      "midi": 42,
      "time": 64.765,
      "duration": 0.176,
      "velocity": 0.65,
      "hand": "left"
    },
    {
      "midi": 45,
      "time": 64.765,
      "duration": 0.529,
      "velocity": 0.86,
      "hand": "left"
    },
    {
      "midi": 50,
      "time": 64.765,
      "duration": 0.529,
      "velocity": 0.86,
      "hand": "left"
    },
    {
      "midi": 57,
      "time": 64.765,
      "duration": 0.529,
      "velocity": 0.79,
      "hand": "left"
    },
    {
      "midi": 62,
      "time": 64.765,
      "duration": 0.529,
      "velocity": 0.79,
      "hand": "right"
    },
    {
      "midi": 66,
      "time": 64.765,
      "duration": 0.529,
      "velocity": 0.83,
      "hand": "right"
    },
    {
      "midi": 69,
      "time": 64.765,
      "duration": 0.529,
      "velocity": 0.83,
      "hand": "right"
    },
    {
      "midi": 42,
      "time": 65.118,
      "duration": 0.176,
      "velocity": 0.73,
      "hand": "left"
    },
    {
      "midi": 42,
      "time": 65.294,
      "duration": 0.176,
      "velocity": 0.43,
      "hand": "left"
    },
    {
      "midi": 33,
      "time": 65.471,
      "duration": 0.353,
      "velocity": 0.86,
      "hand": "left"
    },
    {
      "midi": 38,
      "time": 65.471,
      "duration": 0.176,
      "velocity": 0.73,
      "hand": "left"
    },
    {
      "midi": 42,
      "time": 65.471,
      "duration": 0.176,
      "velocity": 0.58,
      "hand": "left"
    },
    {
      "midi": 45,
      "time": 65.471,
      "duration": 0.353,
      "velocity": 0.79,
      "hand": "left"
    },
    {
      "midi": 57,
      "time": 65.471,
      "duration": 0.353,
      "velocity": 0.79,
      "hand": "left"
    },
    {
      "midi": 62,
      "time": 65.471,
      "duration": 0.353,
      "velocity": 0.83,
      "hand": "right"
    },
    {
      "midi": 66,
      "time": 65.471,
      "duration": 0.353,
      "velocity": 0.83,
      "hand": "right"
    },
    {
      "midi": 42,
      "time": 65.824,
      "duration": 0.176,
      "velocity": 0.51,
      "hand": "left"
    },
    {
      "midi": 35,
      "time": 66,
      "duration": 0.176,
      "velocity": 0.86,
      "hand": "left"
    },
    {
      "midi": 42,
      "time": 66,
      "duration": 0.176,
      "velocity": 0.86,
      "hand": "left"
    },
    {
      "midi": 47,
      "time": 66,
      "duration": 0.176,
      "velocity": 0.79,
      "hand": "left"
    },
    {
      "midi": 54,
      "time": 66,
      "duration": 0.176,
      "velocity": 0.79,
      "hand": "left"
    },
    {
      "midi": 62,
      "time": 66,
      "duration": 0.176,
      "velocity": 0.83,
      "hand": "right"
    },
    {
      "midi": 33,
      "time": 66.176,
      "duration": 0.529,
      "velocity": 0.86,
      "hand": "left"
    },
    {
      "midi": 35,
      "time": 66.176,
      "duration": 0.176,
      "velocity": 0.73,
      "hand": "left"
    },
    {
      "midi": 42,
      "time": 66.176,
      "duration": 0.176,
      "velocity": 0.65,
      "hand": "left"
    },
    {
      "midi": 45,
      "time": 66.176,
      "duration": 0.529,
      "velocity": 0.79,
      "hand": "left"
    },
    {
      "midi": 57,
      "time": 66.176,
      "duration": 0.529,
      "velocity": 0.79,
      "hand": "left"
    },
    {
      "midi": 62,
      "time": 66.176,
      "duration": 0.529,
      "velocity": 0.83,
      "hand": "right"
    },
    {
      "midi": 64,
      "time": 66.176,
      "duration": 0.529,
      "velocity": 0.83,
      "hand": "right"
    },
    {
      "midi": 42,
      "time": 66.529,
      "duration": 0.176,
      "velocity": 0.73,
      "hand": "left"
    },
    {
      "midi": 42,
      "time": 66.706,
      "duration": 0.176,
      "velocity": 0.43,
      "hand": "left"
    },
    {
      "midi": 33,
      "time": 66.882,
      "duration": 0.353,
      "velocity": 0.86,
      "hand": "left"
    },
    {
      "midi": 38,
      "time": 66.882,
      "duration": 0.176,
      "velocity": 0.73,
      "hand": "left"
    },
    {
      "midi": 42,
      "time": 66.882,
      "duration": 0.176,
      "velocity": 0.58,
      "hand": "left"
    },
    {
      "midi": 45,
      "time": 66.882,
      "duration": 0.353,
      "velocity": 0.79,
      "hand": "left"
    },
    {
      "midi": 57,
      "time": 66.882,
      "duration": 0.353,
      "velocity": 0.79,
      "hand": "left"
    },
    {
      "midi": 61,
      "time": 66.882,
      "duration": 0.353,
      "velocity": 0.83,
      "hand": "right"
    },
    {
      "midi": 66,
      "time": 66.882,
      "duration": 0.353,
      "velocity": 0.83,
      "hand": "right"
    },
    {
      "midi": 35,
      "time": 67.235,
      "duration": 0.176,
      "velocity": 0.58,
      "hand": "left"
    },
    {
      "midi": 42,
      "time": 67.235,
      "duration": 0.176,
      "velocity": 0.51,
      "hand": "left"
    },
    {
      "midi": 33,
      "time": 67.412,
      "duration": 0.176,
      "velocity": 0.86,
      "hand": "left"
    },
    {
      "midi": 42,
      "time": 67.412,
      "duration": 0.176,
      "velocity": 0.43,
      "hand": "left"
    },
    {
      "midi": 43,
      "time": 67.412,
      "duration": 0.176,
      "velocity": 0.86,
      "hand": "left"
    },
    {
      "midi": 45,
      "time": 67.412,
      "duration": 0.176,
      "velocity": 0.79,
      "hand": "left"
    },
    {
      "midi": 55,
      "time": 67.412,
      "duration": 0.176,
      "velocity": 0.79,
      "hand": "left"
    },
    {
      "midi": 61,
      "time": 67.412,
      "duration": 0.176,
      "velocity": 0.83,
      "hand": "right"
    },
    {
      "midi": 64,
      "time": 67.412,
      "duration": 0.176,
      "velocity": 0.83,
      "hand": "right"
    },
    {
      "midi": 35,
      "time": 67.588,
      "duration": 0.176,
      "velocity": 0.73,
      "hand": "left"
    },
    {
      "midi": 38,
      "time": 67.588,
      "duration": 1.588,
      "velocity": 0.86,
      "hand": "left"
    },
    {
      "midi": 42,
      "time": 67.588,
      "duration": 0.176,
      "velocity": 0.65,
      "hand": "left"
    },
    {
      "midi": 50,
      "time": 67.588,
      "duration": 1.588,
      "velocity": 0.79,
      "hand": "left"
    },
    {
      "midi": 62,
      "time": 67.588,
      "duration": 1.588,
      "velocity": 0.83,
      "hand": "right"
    },
    {
      "midi": 62,
      "time": 67.588,
      "duration": 2.294,
      "velocity": 0.86,
      "hand": "right"
    },
    {
      "midi": 42,
      "time": 67.941,
      "duration": 0.176,
      "velocity": 0.51,
      "hand": "left"
    },
    {
      "midi": 37,
      "time": 68.294,
      "duration": 0.176,
      "velocity": 0.73,
      "hand": "left"
    },
    {
      "midi": 42,
      "time": 68.294,
      "duration": 0.176,
      "velocity": 0.58,
      "hand": "left"
    },
    {
      "midi": 43,
      "time": 68.294,
      "duration": 0.529,
      "velocity": 0.86,
      "hand": "left"
    },
    {
      "midi": 55,
      "time": 68.294,
      "duration": 0.529,
      "velocity": 0.79,
      "hand": "left"
    },
    {
      "midi": 59,
      "time": 68.294,
      "duration": 0.529,
      "velocity": 0.83,
      "hand": "left"
    },
    {
      "midi": 35,
      "time": 68.647,
      "duration": 0.176,
      "velocity": 0.58,
      "hand": "left"
    },
    {
      "midi": 42,
      "time": 68.647,
      "duration": 0.176,
      "velocity": 0.51,
      "hand": "left"
    },
    {
      "midi": 35,
      "time": 69,
      "duration": 0.176,
      "velocity": 0.73,
      "hand": "left"
    },
    {
      "midi": 38,
      "time": 69,
      "duration": 0.529,
      "velocity": 0.86,
      "hand": "left"
    },
    {
      "midi": 42,
      "time": 69,
      "duration": 0.529,
      "velocity": 0.86,
      "hand": "left"
    },
    {
      "midi": 42,
      "time": 69,
      "duration": 0.176,
      "velocity": 0.65,
      "hand": "left"
    },
    {
      "midi": 50,
      "time": 69,
      "duration": 0.529,
      "velocity": 0.79,
      "hand": "left"
    },
    {
      "midi": 54,
      "time": 69,
      "duration": 0.529,
      "velocity": 0.79,
      "hand": "left"
    },
    {
      "midi": 57,
      "time": 69,
      "duration": 0.529,
      "velocity": 0.83,
      "hand": "left"
    },
    {
      "midi": 62,
      "time": 69,
      "duration": 0.529,
      "velocity": 0.83,
      "hand": "right"
    },
    {
      "midi": 38,
      "time": 69.353,
      "duration": 0.176,
      "velocity": 0.73,
      "hand": "left"
    },
    {
      "midi": 42,
      "time": 69.353,
      "duration": 0.176,
      "velocity": 0.51,
      "hand": "left"
    },
    {
      "midi": 38,
      "time": 69.529,
      "duration": 0.176,
      "velocity": 0.58,
      "hand": "left"
    },
    {
      "midi": 38,
      "time": 69.706,
      "duration": 0.176,
      "velocity": 0.83,
      "hand": "left"
    },
    {
      "midi": 42,
      "time": 69.706,
      "duration": 0.176,
      "velocity": 0.58,
      "hand": "left"
    },
    {
      "midi": 35,
      "time": 70.059,
      "duration": 0.176,
      "velocity": 0.58,
      "hand": "left"
    },
    {
      "midi": 46,
      "time": 70.059,
      "duration": 0.176,
      "velocity": 0.65,
      "hand": "left"
    },
    {
      "midi": 35,
      "time": 70.412,
      "duration": 0.176,
      "velocity": 0.73,
      "hand": "left"
    },
    {
      "midi": 38,
      "time": 70.412,
      "duration": 0.529,
      "velocity": 0.86,
      "hand": "left"
    },
    {
      "midi": 42,
      "time": 70.412,
      "duration": 0.176,
      "velocity": 0.65,
      "hand": "left"
    },
    {
      "midi": 45,
      "time": 70.412,
      "duration": 0.529,
      "velocity": 0.86,
      "hand": "left"
    },
    {
      "midi": 49,
      "time": 70.412,
      "duration": 0.176,
      "velocity": 0.65,
      "hand": "left"
    },
    {
      "midi": 50,
      "time": 70.412,
      "duration": 0.529,
      "velocity": 0.79,
      "hand": "left"
    },
    {
      "midi": 57,
      "time": 70.412,
      "duration": 0.529,
      "velocity": 0.79,
      "hand": "left"
    },
    {
      "midi": 62,
      "time": 70.412,
      "duration": 0.529,
      "velocity": 0.83,
      "hand": "right"
    },
    {
      "midi": 66,
      "time": 70.412,
      "duration": 0.529,
      "velocity": 0.83,
      "hand": "right"
    },
    {
      "midi": 42,
      "time": 70.765,
      "duration": 0.176,
      "velocity": 0.51,
      "hand": "left"
    },
    {
      "midi": 37,
      "time": 71.118,
      "duration": 0.176,
      "velocity": 0.73,
      "hand": "left"
    },
    {
      "midi": 38,
      "time": 71.118,
      "duration": 0.353,
      "velocity": 0.86,
      "hand": "left"
    },
    {
      "midi": 42,
      "time": 71.118,
      "duration": 0.176,
      "velocity": 0.58,
      "hand": "left"
    },
    {
      "midi": 45,
      "time": 71.118,
      "duration": 0.353,
      "velocity": 0.86,
      "hand": "left"
    },
    {
      "midi": 50,
      "time": 71.118,
      "duration": 0.353,
      "velocity": 0.79,
      "hand": "left"
    },
    {
      "midi": 57,
      "time": 71.118,
      "duration": 0.353,
      "velocity": 0.79,
      "hand": "left"
    },
    {
      "midi": 62,
      "time": 71.118,
      "duration": 0.353,
      "velocity": 0.83,
      "hand": "right"
    },
    {
      "midi": 66,
      "time": 71.118,
      "duration": 0.353,
      "velocity": 0.83,
      "hand": "right"
    },
    {
      "midi": 35,
      "time": 71.471,
      "duration": 0.176,
      "velocity": 0.58,
      "hand": "left"
    },
    {
      "midi": 42,
      "time": 71.471,
      "duration": 0.176,
      "velocity": 0.51,
      "hand": "left"
    },
    {
      "midi": 38,
      "time": 71.647,
      "duration": 0.176,
      "velocity": 0.86,
      "hand": "left"
    },
    {
      "midi": 44,
      "time": 71.647,
      "duration": 0.176,
      "velocity": 0.86,
      "hand": "left"
    },
    {
      "midi": 50,
      "time": 71.647,
      "duration": 0.176,
      "velocity": 0.79,
      "hand": "left"
    },
    {
      "midi": 56,
      "time": 71.647,
      "duration": 0.176,
      "velocity": 0.79,
      "hand": "left"
    },
    {
      "midi": 62,
      "time": 71.647,
      "duration": 0.176,
      "velocity": 0.83,
      "hand": "right"
    },
    {
      "midi": 65,
      "time": 71.647,
      "duration": 0.176,
      "velocity": 0.83,
      "hand": "right"
    },
    {
      "midi": 35,
      "time": 71.824,
      "duration": 0.176,
      "velocity": 0.73,
      "hand": "left"
    },
    {
      "midi": 38,
      "time": 71.824,
      "duration": 0.529,
      "velocity": 0.86,
      "hand": "left"
    },
    {
      "midi": 42,
      "time": 71.824,
      "duration": 0.176,
      "velocity": 0.65,
      "hand": "left"
    },
    {
      "midi": 45,
      "time": 71.824,
      "duration": 0.529,
      "velocity": 0.86,
      "hand": "left"
    },
    {
      "midi": 50,
      "time": 71.824,
      "duration": 0.529,
      "velocity": 0.79,
      "hand": "left"
    },
    {
      "midi": 57,
      "time": 71.824,
      "duration": 0.529,
      "velocity": 0.79,
      "hand": "left"
    },
    {
      "midi": 62,
      "time": 71.824,
      "duration": 0.529,
      "velocity": 0.83,
      "hand": "right"
    },
    {
      "midi": 66,
      "time": 71.824,
      "duration": 0.529,
      "velocity": 0.83,
      "hand": "right"
    },
    {
      "midi": 42,
      "time": 72.176,
      "duration": 0.176,
      "velocity": 0.51,
      "hand": "left"
    },
    {
      "midi": 37,
      "time": 72.529,
      "duration": 0.176,
      "velocity": 0.73,
      "hand": "left"
    },
    {
      "midi": 38,
      "time": 72.529,
      "duration": 0.353,
      "velocity": 0.86,
      "hand": "left"
    },
    {
      "midi": 42,
      "time": 72.529,
      "duration": 0.176,
      "velocity": 0.58,
      "hand": "left"
    },
    {
      "midi": 45,
      "time": 72.529,
      "duration": 0.353,
      "velocity": 0.86,
      "hand": "left"
    },
    {
      "midi": 50,
      "time": 72.529,
      "duration": 0.353,
      "velocity": 0.79,
      "hand": "left"
    },
    {
      "midi": 57,
      "time": 72.529,
      "duration": 0.353,
      "velocity": 0.79,
      "hand": "left"
    },
    {
      "midi": 62,
      "time": 72.529,
      "duration": 0.353,
      "velocity": 0.83,
      "hand": "right"
    },
    {
      "midi": 66,
      "time": 72.529,
      "duration": 0.353,
      "velocity": 0.83,
      "hand": "right"
    },
    {
      "midi": 35,
      "time": 72.882,
      "duration": 0.176,
      "velocity": 0.58,
      "hand": "left"
    },
    {
      "midi": 42,
      "time": 72.882,
      "duration": 0.176,
      "velocity": 0.51,
      "hand": "left"
    },
    {
      "midi": 38,
      "time": 73.059,
      "duration": 0.176,
      "velocity": 0.86,
      "hand": "left"
    },
    {
      "midi": 45,
      "time": 73.059,
      "duration": 0.176,
      "velocity": 0.86,
      "hand": "left"
    },
    {
      "midi": 50,
      "time": 73.059,
      "duration": 0.176,
      "velocity": 0.79,
      "hand": "left"
    },
    {
      "midi": 57,
      "time": 73.059,
      "duration": 0.176,
      "velocity": 0.79,
      "hand": "left"
    },
    {
      "midi": 64,
      "time": 73.059,
      "duration": 0.176,
      "velocity": 0.83,
      "hand": "right"
    },
    {
      "midi": 67,
      "time": 73.059,
      "duration": 0.176,
      "velocity": 0.83,
      "hand": "right"
    },
    {
      "midi": 35,
      "time": 73.235,
      "duration": 0.176,
      "velocity": 0.73,
      "hand": "left"
    },
    {
      "midi": 38,
      "time": 73.235,
      "duration": 0.882,
      "velocity": 0.86,
      "hand": "left"
    },
    {
      "midi": 42,
      "time": 73.235,
      "duration": 0.176,
      "velocity": 0.65,
      "hand": "left"
    },
    {
      "midi": 50,
      "time": 73.235,
      "duration": 0.882,
      "velocity": 0.79,
      "hand": "left"
    },
    {
      "midi": 62,
      "time": 73.235,
      "duration": 0.882,
      "velocity": 0.79,
      "hand": "right"
    },
    {
      "midi": 66,
      "time": 73.235,
      "duration": 0.882,
      "velocity": 0.83,
      "hand": "right"
    },
    {
      "midi": 69,
      "time": 73.235,
      "duration": 0.882,
      "velocity": 0.83,
      "hand": "right"
    },
    {
      "midi": 42,
      "time": 73.588,
      "duration": 0.176,
      "velocity": 0.51,
      "hand": "left"
    },
    {
      "midi": 37,
      "time": 73.941,
      "duration": 0.176,
      "velocity": 0.73,
      "hand": "left"
    },
    {
      "midi": 42,
      "time": 73.941,
      "duration": 0.176,
      "velocity": 0.58,
      "hand": "left"
    },
    {
      "midi": 35,
      "time": 74.294,
      "duration": 0.176,
      "velocity": 0.58,
      "hand": "left"
    },
    {
      "midi": 42,
      "time": 74.294,
      "duration": 0.176,
      "velocity": 0.51,
      "hand": "left"
    },
    {
      "midi": 35,
      "time": 74.647,
      "duration": 0.176,
      "velocity": 0.73,
      "hand": "left"
    },
    {
      "midi": 38,
      "time": 74.647,
      "duration": 0.529,
      "velocity": 0.86,
      "hand": "left"
    },
    {
      "midi": 42,
      "time": 74.647,
      "duration": 0.176,
      "velocity": 0.65,
      "hand": "left"
    },
    {
      "midi": 50,
      "time": 74.647,
      "duration": 0.529,
      "velocity": 0.79,
      "hand": "left"
    },
    {
      "midi": 62,
      "time": 74.647,
      "duration": 0.529,
      "velocity": 0.79,
      "hand": "right"
    },
    {
      "midi": 66,
      "time": 74.647,
      "duration": 0.529,
      "velocity": 0.83,
      "hand": "right"
    },
    {
      "midi": 69,
      "time": 74.647,
      "duration": 0.529,
      "velocity": 0.83,
      "hand": "right"
    },
    {
      "midi": 42,
      "time": 75,
      "duration": 0.176,
      "velocity": 0.51,
      "hand": "left"
    },
    {
      "midi": 37,
      "time": 75.176,
      "duration": 0.176,
      "velocity": 0.73,
      "hand": "left"
    },
    {
      "midi": 38,
      "time": 75.176,
      "duration": 0.353,
      "velocity": 0.86,
      "hand": "left"
    },
    {
      "midi": 42,
      "time": 75.176,
      "duration": 0.176,
      "velocity": 0.58,
      "hand": "left"
    },
    {
      "midi": 50,
      "time": 75.176,
      "duration": 0.353,
      "velocity": 0.79,
      "hand": "left"
    },
    {
      "midi": 62,
      "time": 75.176,
      "duration": 0.353,
      "velocity": 0.79,
      "hand": "right"
    },
    {
      "midi": 66,
      "time": 75.176,
      "duration": 0.353,
      "velocity": 0.83,
      "hand": "right"
    },
    {
      "midi": 69,
      "time": 75.176,
      "duration": 0.353,
      "velocity": 0.83,
      "hand": "right"
    },
    {
      "midi": 35,
      "time": 75.529,
      "duration": 0.176,
      "velocity": 0.58,
      "hand": "left"
    },
    {
      "midi": 42,
      "time": 75.529,
      "duration": 0.176,
      "velocity": 0.51,
      "hand": "left"
    },
    {
      "midi": 38,
      "time": 75.706,
      "duration": 0.176,
      "velocity": 0.86,
      "hand": "left"
    },
    {
      "midi": 45,
      "time": 75.706,
      "duration": 0.176,
      "velocity": 0.86,
      "hand": "left"
    },
    {
      "midi": 50,
      "time": 75.706,
      "duration": 0.176,
      "velocity": 0.79,
      "hand": "left"
    },
    {
      "midi": 57,
      "time": 75.706,
      "duration": 0.176,
      "velocity": 0.79,
      "hand": "left"
    },
    {
      "midi": 62,
      "time": 75.706,
      "duration": 0.176,
      "velocity": 0.83,
      "hand": "right"
    },
    {
      "midi": 66,
      "time": 75.706,
      "duration": 0.176,
      "velocity": 0.83,
      "hand": "right"
    },
    {
      "midi": 33,
      "time": 75.882,
      "duration": 0.529,
      "velocity": 0.86,
      "hand": "left"
    },
    {
      "midi": 35,
      "time": 75.882,
      "duration": 0.176,
      "velocity": 0.73,
      "hand": "left"
    },
    {
      "midi": 42,
      "time": 75.882,
      "duration": 0.176,
      "velocity": 0.65,
      "hand": "left"
    },
    {
      "midi": 45,
      "time": 75.882,
      "duration": 0.529,
      "velocity": 0.79,
      "hand": "left"
    },
    {
      "midi": 57,
      "time": 75.882,
      "duration": 0.529,
      "velocity": 0.79,
      "hand": "left"
    },
    {
      "midi": 61,
      "time": 75.882,
      "duration": 0.529,
      "velocity": 0.83,
      "hand": "right"
    },
    {
      "midi": 64,
      "time": 75.882,
      "duration": 0.529,
      "velocity": 0.83,
      "hand": "right"
    },
    {
      "midi": 42,
      "time": 76.235,
      "duration": 0.176,
      "velocity": 0.51,
      "hand": "left"
    },
    {
      "midi": 33,
      "time": 76.588,
      "duration": 0.529,
      "velocity": 0.86,
      "hand": "left"
    },
    {
      "midi": 37,
      "time": 76.588,
      "duration": 0.176,
      "velocity": 0.73,
      "hand": "left"
    },
    {
      "midi": 42,
      "time": 76.588,
      "duration": 0.176,
      "velocity": 0.58,
      "hand": "left"
    },
    {
      "midi": 45,
      "time": 76.588,
      "duration": 0.529,
      "velocity": 0.79,
      "hand": "left"
    },
    {
      "midi": 57,
      "time": 76.588,
      "duration": 0.529,
      "velocity": 0.79,
      "hand": "left"
    },
    {
      "midi": 61,
      "time": 76.588,
      "duration": 0.529,
      "velocity": 0.83,
      "hand": "right"
    },
    {
      "midi": 64,
      "time": 76.588,
      "duration": 0.529,
      "velocity": 0.83,
      "hand": "right"
    },
    {
      "midi": 35,
      "time": 76.941,
      "duration": 0.176,
      "velocity": 0.58,
      "hand": "left"
    },
    {
      "midi": 42,
      "time": 76.941,
      "duration": 0.176,
      "velocity": 0.51,
      "hand": "left"
    },
    {
      "midi": 35,
      "time": 77.294,
      "duration": 0.176,
      "velocity": 0.73,
      "hand": "left"
    },
    {
      "midi": 38,
      "time": 77.294,
      "duration": 0.529,
      "velocity": 0.86,
      "hand": "left"
    },
    {
      "midi": 42,
      "time": 77.294,
      "duration": 0.176,
      "velocity": 0.65,
      "hand": "left"
    },
    {
      "midi": 45,
      "time": 77.294,
      "duration": 0.529,
      "velocity": 0.86,
      "hand": "left"
    },
    {
      "midi": 50,
      "time": 77.294,
      "duration": 0.529,
      "velocity": 0.79,
      "hand": "left"
    },
    {
      "midi": 57,
      "time": 77.294,
      "duration": 0.529,
      "velocity": 0.79,
      "hand": "left"
    },
    {
      "midi": 62,
      "time": 77.294,
      "duration": 0.529,
      "velocity": 0.83,
      "hand": "right"
    },
    {
      "midi": 66,
      "time": 77.294,
      "duration": 0.529,
      "velocity": 0.83,
      "hand": "right"
    },
    {
      "midi": 42,
      "time": 77.647,
      "duration": 0.176,
      "velocity": 0.51,
      "hand": "left"
    },
    {
      "midi": 37,
      "time": 78,
      "duration": 0.176,
      "velocity": 0.73,
      "hand": "left"
    },
    {
      "midi": 38,
      "time": 78,
      "duration": 0.353,
      "velocity": 0.86,
      "hand": "left"
    },
    {
      "midi": 42,
      "time": 78,
      "duration": 0.176,
      "velocity": 0.58,
      "hand": "left"
    },
    {
      "midi": 45,
      "time": 78,
      "duration": 0.353,
      "velocity": 0.86,
      "hand": "left"
    },
    {
      "midi": 50,
      "time": 78,
      "duration": 0.353,
      "velocity": 0.79,
      "hand": "left"
    },
    {
      "midi": 57,
      "time": 78,
      "duration": 0.353,
      "velocity": 0.79,
      "hand": "left"
    },
    {
      "midi": 64,
      "time": 78,
      "duration": 0.353,
      "velocity": 0.83,
      "hand": "right"
    },
    {
      "midi": 67,
      "time": 78,
      "duration": 0.353,
      "velocity": 0.83,
      "hand": "right"
    },
    {
      "midi": 35,
      "time": 78.353,
      "duration": 0.176,
      "velocity": 0.58,
      "hand": "left"
    },
    {
      "midi": 42,
      "time": 78.353,
      "duration": 0.176,
      "velocity": 0.51,
      "hand": "left"
    },
    {
      "midi": 38,
      "time": 78.529,
      "duration": 0.176,
      "velocity": 0.86,
      "hand": "left"
    },
    {
      "midi": 45,
      "time": 78.529,
      "duration": 0.176,
      "velocity": 0.86,
      "hand": "left"
    },
    {
      "midi": 50,
      "time": 78.529,
      "duration": 0.176,
      "velocity": 0.79,
      "hand": "left"
    },
    {
      "midi": 57,
      "time": 78.529,
      "duration": 0.176,
      "velocity": 0.79,
      "hand": "left"
    },
    {
      "midi": 62,
      "time": 78.529,
      "duration": 0.176,
      "velocity": 0.83,
      "hand": "right"
    },
    {
      "midi": 66,
      "time": 78.529,
      "duration": 0.176,
      "velocity": 0.83,
      "hand": "right"
    },
    {
      "midi": 33,
      "time": 78.706,
      "duration": 1.412,
      "velocity": 0.86,
      "hand": "left"
    },
    {
      "midi": 35,
      "time": 78.706,
      "duration": 0.176,
      "velocity": 0.73,
      "hand": "left"
    },
    {
      "midi": 42,
      "time": 78.706,
      "duration": 0.176,
      "velocity": 0.65,
      "hand": "left"
    },
    {
      "midi": 45,
      "time": 78.706,
      "duration": 1.412,
      "velocity": 0.79,
      "hand": "left"
    },
    {
      "midi": 57,
      "time": 78.706,
      "duration": 1.412,
      "velocity": 0.79,
      "hand": "left"
    },
    {
      "midi": 61,
      "time": 78.706,
      "duration": 1.412,
      "velocity": 0.83,
      "hand": "right"
    },
    {
      "midi": 64,
      "time": 78.706,
      "duration": 1.412,
      "velocity": 0.83,
      "hand": "right"
    },
    {
      "midi": 42,
      "time": 79.059,
      "duration": 0.176,
      "velocity": 0.51,
      "hand": "left"
    },
    {
      "midi": 37,
      "time": 79.412,
      "duration": 0.176,
      "velocity": 0.73,
      "hand": "left"
    },
    {
      "midi": 42,
      "time": 79.412,
      "duration": 0.176,
      "velocity": 0.58,
      "hand": "left"
    },
    {
      "midi": 35,
      "time": 79.765,
      "duration": 0.176,
      "velocity": 0.58,
      "hand": "left"
    },
    {
      "midi": 42,
      "time": 79.765,
      "duration": 0.176,
      "velocity": 0.51,
      "hand": "left"
    },
    {
      "midi": 35,
      "time": 80.118,
      "duration": 0.176,
      "velocity": 0.73,
      "hand": "left"
    },
    {
      "midi": 42,
      "time": 80.118,
      "duration": 0.176,
      "velocity": 0.65,
      "hand": "left"
    },
    {
      "midi": 42,
      "time": 80.471,
      "duration": 0.176,
      "velocity": 0.51,
      "hand": "left"
    },
    {
      "midi": 37,
      "time": 80.824,
      "duration": 0.176,
      "velocity": 0.73,
      "hand": "left"
    },
    {
      "midi": 42,
      "time": 80.824,
      "duration": 0.176,
      "velocity": 0.58,
      "hand": "left"
    },
    {
      "midi": 35,
      "time": 81.176,
      "duration": 0.176,
      "velocity": 0.58,
      "hand": "left"
    },
    {
      "midi": 42,
      "time": 81.176,
      "duration": 0.176,
      "velocity": 0.51,
      "hand": "left"
    },
    {
      "midi": 35,
      "time": 81.529,
      "duration": 0.176,
      "velocity": 0.73,
      "hand": "left"
    },
    {
      "midi": 38,
      "time": 81.529,
      "duration": 0.529,
      "velocity": 0.86,
      "hand": "left"
    },
    {
      "midi": 42,
      "time": 81.529,
      "duration": 0.176,
      "velocity": 0.65,
      "hand": "left"
    },
    {
      "midi": 45,
      "time": 81.529,
      "duration": 0.529,
      "velocity": 0.86,
      "hand": "left"
    },
    {
      "midi": 50,
      "time": 81.529,
      "duration": 0.529,
      "velocity": 0.79,
      "hand": "left"
    },
    {
      "midi": 57,
      "time": 81.529,
      "duration": 0.529,
      "velocity": 0.79,
      "hand": "left"
    },
    {
      "midi": 62,
      "time": 81.529,
      "duration": 0.529,
      "velocity": 0.83,
      "hand": "right"
    },
    {
      "midi": 66,
      "time": 81.529,
      "duration": 0.529,
      "velocity": 0.83,
      "hand": "right"
    },
    {
      "midi": 42,
      "time": 81.882,
      "duration": 0.176,
      "velocity": 0.51,
      "hand": "left"
    },
    {
      "midi": 37,
      "time": 82.235,
      "duration": 0.176,
      "velocity": 0.73,
      "hand": "left"
    },
    {
      "midi": 38,
      "time": 82.235,
      "duration": 0.353,
      "velocity": 0.86,
      "hand": "left"
    },
    {
      "midi": 42,
      "time": 82.235,
      "duration": 0.176,
      "velocity": 0.58,
      "hand": "left"
    },
    {
      "midi": 45,
      "time": 82.235,
      "duration": 0.353,
      "velocity": 0.86,
      "hand": "left"
    },
    {
      "midi": 50,
      "time": 82.235,
      "duration": 0.353,
      "velocity": 0.79,
      "hand": "left"
    },
    {
      "midi": 57,
      "time": 82.235,
      "duration": 0.353,
      "velocity": 0.79,
      "hand": "left"
    },
    {
      "midi": 62,
      "time": 82.235,
      "duration": 0.353,
      "velocity": 0.83,
      "hand": "right"
    },
    {
      "midi": 66,
      "time": 82.235,
      "duration": 0.353,
      "velocity": 0.83,
      "hand": "right"
    },
    {
      "midi": 35,
      "time": 82.588,
      "duration": 0.176,
      "velocity": 0.58,
      "hand": "left"
    },
    {
      "midi": 42,
      "time": 82.588,
      "duration": 0.176,
      "velocity": 0.51,
      "hand": "left"
    },
    {
      "midi": 38,
      "time": 82.765,
      "duration": 0.176,
      "velocity": 0.86,
      "hand": "left"
    },
    {
      "midi": 44,
      "time": 82.765,
      "duration": 0.176,
      "velocity": 0.86,
      "hand": "left"
    },
    {
      "midi": 50,
      "time": 82.765,
      "duration": 0.176,
      "velocity": 0.79,
      "hand": "left"
    },
    {
      "midi": 56,
      "time": 82.765,
      "duration": 0.176,
      "velocity": 0.79,
      "hand": "left"
    },
    {
      "midi": 62,
      "time": 82.765,
      "duration": 0.176,
      "velocity": 0.83,
      "hand": "right"
    },
    {
      "midi": 65,
      "time": 82.765,
      "duration": 0.176,
      "velocity": 0.83,
      "hand": "right"
    },
    {
      "midi": 35,
      "time": 82.941,
      "duration": 0.176,
      "velocity": 0.73,
      "hand": "left"
    },
    {
      "midi": 38,
      "time": 82.941,
      "duration": 0.529,
      "velocity": 0.86,
      "hand": "left"
    },
    {
      "midi": 42,
      "time": 82.941,
      "duration": 0.176,
      "velocity": 0.65,
      "hand": "left"
    },
    {
      "midi": 45,
      "time": 82.941,
      "duration": 0.529,
      "velocity": 0.86,
      "hand": "left"
    },
    {
      "midi": 50,
      "time": 82.941,
      "duration": 0.529,
      "velocity": 0.79,
      "hand": "left"
    },
    {
      "midi": 57,
      "time": 82.941,
      "duration": 0.529,
      "velocity": 0.79,
      "hand": "left"
    },
    {
      "midi": 62,
      "time": 82.941,
      "duration": 0.529,
      "velocity": 0.83,
      "hand": "right"
    },
    {
      "midi": 66,
      "time": 82.941,
      "duration": 0.529,
      "velocity": 0.83,
      "hand": "right"
    },
    {
      "midi": 42,
      "time": 83.294,
      "duration": 0.176,
      "velocity": 0.51,
      "hand": "left"
    },
    {
      "midi": 37,
      "time": 83.647,
      "duration": 0.176,
      "velocity": 0.73,
      "hand": "left"
    },
    {
      "midi": 38,
      "time": 83.647,
      "duration": 0.353,
      "velocity": 0.86,
      "hand": "left"
    },
    {
      "midi": 42,
      "time": 83.647,
      "duration": 0.176,
      "velocity": 0.58,
      "hand": "left"
    },
    {
      "midi": 45,
      "time": 83.647,
      "duration": 0.353,
      "velocity": 0.86,
      "hand": "left"
    },
    {
      "midi": 50,
      "time": 83.647,
      "duration": 0.353,
      "velocity": 0.79,
      "hand": "left"
    },
    {
      "midi": 57,
      "time": 83.647,
      "duration": 0.353,
      "velocity": 0.79,
      "hand": "left"
    },
    {
      "midi": 62,
      "time": 83.647,
      "duration": 0.353,
      "velocity": 0.83,
      "hand": "right"
    },
    {
      "midi": 66,
      "time": 83.647,
      "duration": 0.353,
      "velocity": 0.83,
      "hand": "right"
    },
    {
      "midi": 35,
      "time": 84,
      "duration": 0.176,
      "velocity": 0.58,
      "hand": "left"
    },
    {
      "midi": 42,
      "time": 84,
      "duration": 0.176,
      "velocity": 0.51,
      "hand": "left"
    },
    {
      "midi": 38,
      "time": 84.176,
      "duration": 0.176,
      "velocity": 0.86,
      "hand": "left"
    },
    {
      "midi": 45,
      "time": 84.176,
      "duration": 0.176,
      "velocity": 0.86,
      "hand": "left"
    },
    {
      "midi": 50,
      "time": 84.176,
      "duration": 0.176,
      "velocity": 0.79,
      "hand": "left"
    },
    {
      "midi": 57,
      "time": 84.176,
      "duration": 0.176,
      "velocity": 0.79,
      "hand": "left"
    },
    {
      "midi": 64,
      "time": 84.176,
      "duration": 0.176,
      "velocity": 0.83,
      "hand": "right"
    },
    {
      "midi": 67,
      "time": 84.176,
      "duration": 0.176,
      "velocity": 0.83,
      "hand": "right"
    },
    {
      "midi": 35,
      "time": 84.353,
      "duration": 0.176,
      "velocity": 0.73,
      "hand": "left"
    },
    {
      "midi": 38,
      "time": 84.353,
      "duration": 0.882,
      "velocity": 0.86,
      "hand": "left"
    },
    {
      "midi": 42,
      "time": 84.353,
      "duration": 0.176,
      "velocity": 0.65,
      "hand": "left"
    },
    {
      "midi": 50,
      "time": 84.353,
      "duration": 0.882,
      "velocity": 0.79,
      "hand": "left"
    },
    {
      "midi": 62,
      "time": 84.353,
      "duration": 0.882,
      "velocity": 0.79,
      "hand": "right"
    },
    {
      "midi": 66,
      "time": 84.353,
      "duration": 0.882,
      "velocity": 0.83,
      "hand": "right"
    },
    {
      "midi": 69,
      "time": 84.353,
      "duration": 0.882,
      "velocity": 0.83,
      "hand": "right"
    },
    {
      "midi": 42,
      "time": 84.706,
      "duration": 0.176,
      "velocity": 0.51,
      "hand": "left"
    },
    {
      "midi": 37,
      "time": 85.059,
      "duration": 0.176,
      "velocity": 0.73,
      "hand": "left"
    },
    {
      "midi": 42,
      "time": 85.059,
      "duration": 0.176,
      "velocity": 0.58,
      "hand": "left"
    },
    {
      "midi": 35,
      "time": 85.412,
      "duration": 0.176,
      "velocity": 0.58,
      "hand": "left"
    },
    {
      "midi": 42,
      "time": 85.412,
      "duration": 0.176,
      "velocity": 0.51,
      "hand": "left"
    },
    {
      "midi": 35,
      "time": 85.765,
      "duration": 0.176,
      "velocity": 0.73,
      "hand": "left"
    },
    {
      "midi": 38,
      "time": 85.765,
      "duration": 0.529,
      "velocity": 0.86,
      "hand": "left"
    },
    {
      "midi": 42,
      "time": 85.765,
      "duration": 0.176,
      "velocity": 0.65,
      "hand": "left"
    },
    {
      "midi": 50,
      "time": 85.765,
      "duration": 0.529,
      "velocity": 0.79,
      "hand": "left"
    },
    {
      "midi": 62,
      "time": 85.765,
      "duration": 0.529,
      "velocity": 0.79,
      "hand": "right"
    },
    {
      "midi": 66,
      "time": 85.765,
      "duration": 0.529,
      "velocity": 0.83,
      "hand": "right"
    },
    {
      "midi": 69,
      "time": 85.765,
      "duration": 0.529,
      "velocity": 0.83,
      "hand": "right"
    },
    {
      "midi": 35,
      "time": 86.118,
      "duration": 0.176,
      "velocity": 0.58,
      "hand": "left"
    },
    {
      "midi": 42,
      "time": 86.118,
      "duration": 0.176,
      "velocity": 0.51,
      "hand": "left"
    },
    {
      "midi": 37,
      "time": 86.471,
      "duration": 0.176,
      "velocity": 0.73,
      "hand": "left"
    },
    {
      "midi": 38,
      "time": 86.471,
      "duration": 0.353,
      "velocity": 0.86,
      "hand": "left"
    },
    {
      "midi": 42,
      "time": 86.471,
      "duration": 0.176,
      "velocity": 0.58,
      "hand": "left"
    },
    {
      "midi": 50,
      "time": 86.471,
      "duration": 0.353,
      "velocity": 0.79,
      "hand": "left"
    },
    {
      "midi": 62,
      "time": 86.471,
      "duration": 0.353,
      "velocity": 0.79,
      "hand": "right"
    },
    {
      "midi": 66,
      "time": 86.471,
      "duration": 0.353,
      "velocity": 0.83,
      "hand": "right"
    },
    {
      "midi": 69,
      "time": 86.471,
      "duration": 0.353,
      "velocity": 0.83,
      "hand": "right"
    },
    {
      "midi": 35,
      "time": 86.824,
      "duration": 0.176,
      "velocity": 0.58,
      "hand": "left"
    },
    {
      "midi": 42,
      "time": 86.824,
      "duration": 0.176,
      "velocity": 0.51,
      "hand": "left"
    },
    {
      "midi": 38,
      "time": 87,
      "duration": 0.176,
      "velocity": 0.86,
      "hand": "left"
    },
    {
      "midi": 42,
      "time": 87,
      "duration": 0.176,
      "velocity": 0.43,
      "hand": "left"
    },
    {
      "midi": 45,
      "time": 87,
      "duration": 0.176,
      "velocity": 0.86,
      "hand": "left"
    },
    {
      "midi": 50,
      "time": 87,
      "duration": 0.176,
      "velocity": 0.79,
      "hand": "left"
    },
    {
      "midi": 57,
      "time": 87,
      "duration": 0.176,
      "velocity": 0.79,
      "hand": "left"
    },
    {
      "midi": 62,
      "time": 87,
      "duration": 0.176,
      "velocity": 0.83,
      "hand": "right"
    },
    {
      "midi": 66,
      "time": 87,
      "duration": 0.176,
      "velocity": 0.83,
      "hand": "right"
    },
    {
      "midi": 35,
      "time": 87.176,
      "duration": 0.176,
      "velocity": 0.73,
      "hand": "left"
    },
    {
      "midi": 42,
      "time": 87.176,
      "duration": 0.176,
      "velocity": 0.65,
      "hand": "left"
    },
    {
      "midi": 43,
      "time": 87.176,
      "duration": 0.529,
      "velocity": 0.86,
      "hand": "left"
    },
    {
      "midi": 47,
      "time": 87.176,
      "duration": 0.529,
      "velocity": 0.86,
      "hand": "left"
    },
    {
      "midi": 55,
      "time": 87.176,
      "duration": 0.529,
      "velocity": 0.79,
      "hand": "left"
    },
    {
      "midi": 59,
      "time": 87.176,
      "duration": 0.529,
      "velocity": 0.79,
      "hand": "left"
    },
    {
      "midi": 62,
      "time": 87.176,
      "duration": 0.529,
      "velocity": 0.83,
      "hand": "right"
    },
    {
      "midi": 64,
      "time": 87.176,
      "duration": 0.529,
      "velocity": 0.83,
      "hand": "right"
    },
    {
      "midi": 42,
      "time": 87.529,
      "duration": 0.176,
      "velocity": 0.51,
      "hand": "left"
    },
    {
      "midi": 37,
      "time": 87.882,
      "duration": 0.176,
      "velocity": 0.73,
      "hand": "left"
    },
    {
      "midi": 42,
      "time": 87.882,
      "duration": 0.176,
      "velocity": 0.58,
      "hand": "left"
    },
    {
      "midi": 43,
      "time": 87.882,
      "duration": 0.176,
      "velocity": 0.86,
      "hand": "left"
    },
    {
      "midi": 47,
      "time": 87.882,
      "duration": 0.176,
      "velocity": 0.86,
      "hand": "left"
    },
    {
      "midi": 55,
      "time": 87.882,
      "duration": 0.176,
      "velocity": 0.79,
      "hand": "left"
    },
    {
      "midi": 59,
      "time": 87.882,
      "duration": 0.176,
      "velocity": 0.79,
      "hand": "left"
    },
    {
      "midi": 62,
      "time": 87.882,
      "duration": 0.176,
      "velocity": 0.83,
      "hand": "right"
    },
    {
      "midi": 64,
      "time": 87.882,
      "duration": 0.176,
      "velocity": 0.83,
      "hand": "right"
    },
    {
      "midi": 35,
      "time": 88.235,
      "duration": 0.176,
      "velocity": 0.58,
      "hand": "left"
    },
    {
      "midi": 42,
      "time": 88.235,
      "duration": 0.176,
      "velocity": 0.51,
      "hand": "left"
    },
    {
      "midi": 43,
      "time": 88.235,
      "duration": 0.176,
      "velocity": 0.86,
      "hand": "left"
    },
    {
      "midi": 47,
      "time": 88.235,
      "duration": 0.176,
      "velocity": 0.86,
      "hand": "left"
    },
    {
      "midi": 55,
      "time": 88.235,
      "duration": 0.176,
      "velocity": 0.79,
      "hand": "left"
    },
    {
      "midi": 59,
      "time": 88.235,
      "duration": 0.176,
      "velocity": 0.79,
      "hand": "left"
    },
    {
      "midi": 62,
      "time": 88.235,
      "duration": 0.176,
      "velocity": 0.83,
      "hand": "right"
    },
    {
      "midi": 64,
      "time": 88.235,
      "duration": 0.176,
      "velocity": 0.83,
      "hand": "right"
    },
    {
      "midi": 35,
      "time": 88.588,
      "duration": 0.176,
      "velocity": 0.73,
      "hand": "left"
    },
    {
      "midi": 42,
      "time": 88.588,
      "duration": 0.176,
      "velocity": 0.65,
      "hand": "left"
    },
    {
      "midi": 45,
      "time": 88.588,
      "duration": 0.529,
      "velocity": 0.86,
      "hand": "left"
    },
    {
      "midi": 57,
      "time": 88.588,
      "duration": 0.529,
      "velocity": 0.79,
      "hand": "left"
    },
    {
      "midi": 61,
      "time": 88.588,
      "duration": 0.529,
      "velocity": 0.83,
      "hand": "right"
    },
    {
      "midi": 64,
      "time": 88.588,
      "duration": 0.529,
      "velocity": 0.83,
      "hand": "right"
    },
    {
      "midi": 42,
      "time": 88.941,
      "duration": 0.176,
      "velocity": 0.51,
      "hand": "left"
    },
    {
      "midi": 33,
      "time": 89.294,
      "duration": 0.353,
      "velocity": 0.86,
      "hand": "left"
    },
    {
      "midi": 37,
      "time": 89.294,
      "duration": 0.176,
      "velocity": 0.73,
      "hand": "left"
    },
    {
      "midi": 42,
      "time": 89.294,
      "duration": 0.176,
      "velocity": 0.58,
      "hand": "left"
    },
    {
      "midi": 45,
      "time": 89.294,
      "duration": 0.353,
      "velocity": 0.79,
      "hand": "left"
    },
    {
      "midi": 57,
      "time": 89.294,
      "duration": 0.353,
      "velocity": 0.79,
      "hand": "left"
    },
    {
      "midi": 61,
      "time": 89.294,
      "duration": 0.353,
      "velocity": 0.83,
      "hand": "right"
    },
    {
      "midi": 66,
      "time": 89.294,
      "duration": 0.353,
      "velocity": 0.83,
      "hand": "right"
    },
    {
      "midi": 35,
      "time": 89.647,
      "duration": 0.176,
      "velocity": 0.58,
      "hand": "left"
    },
    {
      "midi": 42,
      "time": 89.647,
      "duration": 0.176,
      "velocity": 0.51,
      "hand": "left"
    },
    {
      "midi": 33,
      "time": 89.824,
      "duration": 0.176,
      "velocity": 0.86,
      "hand": "left"
    },
    {
      "midi": 43,
      "time": 89.824,
      "duration": 0.176,
      "velocity": 0.86,
      "hand": "left"
    },
    {
      "midi": 45,
      "time": 89.824,
      "duration": 0.176,
      "velocity": 0.79,
      "hand": "left"
    },
    {
      "midi": 55,
      "time": 89.824,
      "duration": 0.176,
      "velocity": 0.79,
      "hand": "left"
    },
    {
      "midi": 61,
      "time": 89.824,
      "duration": 0.176,
      "velocity": 0.83,
      "hand": "right"
    },
    {
      "midi": 64,
      "time": 89.824,
      "duration": 0.176,
      "velocity": 0.83,
      "hand": "right"
    },
    {
      "midi": 35,
      "time": 90,
      "duration": 0.176,
      "velocity": 0.65,
      "hand": "left"
    },
    {
      "midi": 38,
      "time": 90,
      "duration": 1.412,
      "velocity": 0.86,
      "hand": "left"
    },
    {
      "midi": 42,
      "time": 90,
      "duration": 1.412,
      "velocity": 0.86,
      "hand": "left"
    },
    {
      "midi": 42,
      "time": 90,
      "duration": 0.176,
      "velocity": 0.58,
      "hand": "left"
    },
    {
      "midi": 50,
      "time": 90,
      "duration": 1.412,
      "velocity": 0.79,
      "hand": "left"
    },
    {
      "midi": 54,
      "time": 90,
      "duration": 1.412,
      "velocity": 0.79,
      "hand": "left"
    },
    {
      "midi": 62,
      "time": 90,
      "duration": 1.412,
      "velocity": 0.83,
      "hand": "right"
    },
    {
      "midi": 42,
      "time": 90.353,
      "duration": 0.176,
      "velocity": 0.36,
      "hand": "left"
    },
    {
      "midi": 42,
      "time": 90.529,
      "duration": 0.176,
      "velocity": 0.73,
      "hand": "left"
    },
    {
      "midi": 38,
      "time": 90.706,
      "duration": 0.176,
      "velocity": 0.73,
      "hand": "left"
    },
    {
      "midi": 46,
      "time": 90.706,
      "duration": 0.176,
      "velocity": 0.73,
      "hand": "left"
    },
    {
      "midi": 35,
      "time": 91.235,
      "duration": 0.176,
      "velocity": 0.65,
      "hand": "left"
    },
    {
      "midi": 38,
      "time": 91.412,
      "duration": 0.176,
      "velocity": 0.73,
      "hand": "left"
    },
    {
      "midi": 38,
      "time": 91.588,
      "duration": 0.176,
      "velocity": 0.43,
      "hand": "left"
    },
    {
      "midi": 35,
      "time": 91.941,
      "duration": 0.176,
      "velocity": 0.65,
      "hand": "left"
    },
    {
      "midi": 38,
      "time": 92.118,
      "duration": 0.176,
      "velocity": 0.73,
      "hand": "left"
    },
    {
      "midi": 38,
      "time": 92.294,
      "duration": 0.176,
      "velocity": 0.43,
      "hand": "left"
    },
    {
      "midi": 41,
      "time": 92.471,
      "duration": 0.176,
      "velocity": 0.83,
      "hand": "left"
    },
    {
      "midi": 35,
      "time": 92.824,
      "duration": 0.176,
      "velocity": 0.73,
      "hand": "left"
    },
    {
      "midi": 42,
      "time": 92.824,
      "duration": 0.176,
      "velocity": 0.65,
      "hand": "left"
    },
    {
      "midi": 43,
      "time": 92.824,
      "duration": 0.529,
      "velocity": 0.86,
      "hand": "left"
    },
    {
      "midi": 49,
      "time": 92.824,
      "duration": 0.176,
      "velocity": 0.65,
      "hand": "left"
    },
    {
      "midi": 50,
      "time": 92.824,
      "duration": 0.529,
      "velocity": 0.86,
      "hand": "left"
    },
    {
      "midi": 55,
      "time": 92.824,
      "duration": 0.529,
      "velocity": 0.79,
      "hand": "left"
    },
    {
      "midi": 62,
      "time": 92.824,
      "duration": 0.529,
      "velocity": 0.83,
      "hand": "right"
    },
    {
      "midi": 71,
      "time": 92.824,
      "duration": 0.529,
      "velocity": 0.83,
      "hand": "right"
    },
    {
      "midi": 42,
      "time": 93.176,
      "duration": 0.176,
      "velocity": 0.51,
      "hand": "left"
    },
    {
      "midi": 37,
      "time": 93.529,
      "duration": 0.176,
      "velocity": 0.73,
      "hand": "left"
    },
    {
      "midi": 42,
      "time": 93.529,
      "duration": 0.176,
      "velocity": 0.58,
      "hand": "left"
    },
    {
      "midi": 43,
      "time": 93.529,
      "duration": 0.353,
      "velocity": 0.86,
      "hand": "left"
    },
    {
      "midi": 50,
      "time": 93.529,
      "duration": 0.353,
      "velocity": 0.86,
      "hand": "left"
    },
    {
      "midi": 55,
      "time": 93.529,
      "duration": 0.353,
      "velocity": 0.79,
      "hand": "left"
    },
    {
      "midi": 62,
      "time": 93.529,
      "duration": 0.353,
      "velocity": 0.79,
      "hand": "right"
    },
    {
      "midi": 67,
      "time": 93.529,
      "duration": 0.353,
      "velocity": 0.83,
      "hand": "right"
    },
    {
      "midi": 71,
      "time": 93.529,
      "duration": 0.353,
      "velocity": 0.83,
      "hand": "right"
    },
    {
      "midi": 35,
      "time": 93.882,
      "duration": 0.176,
      "velocity": 0.58,
      "hand": "left"
    },
    {
      "midi": 42,
      "time": 93.882,
      "duration": 0.176,
      "velocity": 0.51,
      "hand": "left"
    },
    {
      "midi": 43,
      "time": 94.059,
      "duration": 0.176,
      "velocity": 0.86,
      "hand": "left"
    },
    {
      "midi": 50,
      "time": 94.059,
      "duration": 0.176,
      "velocity": 0.86,
      "hand": "left"
    },
    {
      "midi": 55,
      "time": 94.059,
      "duration": 0.176,
      "velocity": 0.79,
      "hand": "left"
    },
    {
      "midi": 62,
      "time": 94.059,
      "duration": 0.176,
      "velocity": 0.79,
      "hand": "right"
    },
    {
      "midi": 67,
      "time": 94.059,
      "duration": 0.176,
      "velocity": 0.83,
      "hand": "right"
    },
    {
      "midi": 71,
      "time": 94.059,
      "duration": 0.176,
      "velocity": 0.83,
      "hand": "right"
    },
    {
      "midi": 35,
      "time": 94.235,
      "duration": 0.176,
      "velocity": 0.73,
      "hand": "left"
    },
    {
      "midi": 42,
      "time": 94.235,
      "duration": 0.176,
      "velocity": 0.65,
      "hand": "left"
    },
    {
      "midi": 43,
      "time": 94.235,
      "duration": 0.529,
      "velocity": 0.86,
      "hand": "left"
    },
    {
      "midi": 50,
      "time": 94.235,
      "duration": 0.529,
      "velocity": 0.86,
      "hand": "left"
    },
    {
      "midi": 55,
      "time": 94.235,
      "duration": 0.529,
      "velocity": 0.79,
      "hand": "left"
    },
    {
      "midi": 62,
      "time": 94.235,
      "duration": 0.529,
      "velocity": 0.79,
      "hand": "right"
    },
    {
      "midi": 67,
      "time": 94.235,
      "duration": 0.529,
      "velocity": 0.83,
      "hand": "right"
    },
    {
      "midi": 71,
      "time": 94.235,
      "duration": 0.529,
      "velocity": 0.83,
      "hand": "right"
    },
    {
      "midi": 42,
      "time": 94.588,
      "duration": 0.176,
      "velocity": 0.51,
      "hand": "left"
    },
    {
      "midi": 37,
      "time": 94.941,
      "duration": 0.176,
      "velocity": 0.73,
      "hand": "left"
    },
    {
      "midi": 42,
      "time": 94.941,
      "duration": 0.176,
      "velocity": 0.58,
      "hand": "left"
    },
    {
      "midi": 43,
      "time": 94.941,
      "duration": 0.353,
      "velocity": 0.86,
      "hand": "left"
    },
    {
      "midi": 50,
      "time": 94.941,
      "duration": 0.353,
      "velocity": 0.86,
      "hand": "left"
    },
    {
      "midi": 55,
      "time": 94.941,
      "duration": 0.353,
      "velocity": 0.79,
      "hand": "left"
    },
    {
      "midi": 62,
      "time": 94.941,
      "duration": 0.353,
      "velocity": 0.79,
      "hand": "right"
    },
    {
      "midi": 67,
      "time": 94.941,
      "duration": 0.353,
      "velocity": 0.83,
      "hand": "right"
    },
    {
      "midi": 71,
      "time": 94.941,
      "duration": 0.353,
      "velocity": 0.83,
      "hand": "right"
    },
    {
      "midi": 35,
      "time": 95.294,
      "duration": 0.176,
      "velocity": 0.58,
      "hand": "left"
    },
    {
      "midi": 42,
      "time": 95.294,
      "duration": 0.176,
      "velocity": 0.51,
      "hand": "left"
    },
    {
      "midi": 43,
      "time": 95.471,
      "duration": 0.176,
      "velocity": 0.86,
      "hand": "left"
    },
    {
      "midi": 47,
      "time": 95.471,
      "duration": 0.176,
      "velocity": 0.86,
      "hand": "left"
    },
    {
      "midi": 55,
      "time": 95.471,
      "duration": 0.176,
      "velocity": 0.79,
      "hand": "left"
    },
    {
      "midi": 59,
      "time": 95.471,
      "duration": 0.176,
      "velocity": 0.79,
      "hand": "left"
    },
    {
      "midi": 64,
      "time": 95.471,
      "duration": 0.176,
      "velocity": 0.83,
      "hand": "right"
    },
    {
      "midi": 67,
      "time": 95.471,
      "duration": 0.176,
      "velocity": 0.83,
      "hand": "right"
    },
    {
      "midi": 35,
      "time": 95.647,
      "duration": 0.176,
      "velocity": 0.73,
      "hand": "left"
    },
    {
      "midi": 38,
      "time": 95.647,
      "duration": 0.882,
      "velocity": 0.86,
      "hand": "left"
    },
    {
      "midi": 42,
      "time": 95.647,
      "duration": 0.176,
      "velocity": 0.65,
      "hand": "left"
    },
    {
      "midi": 45,
      "time": 95.647,
      "duration": 0.882,
      "velocity": 0.86,
      "hand": "left"
    },
    {
      "midi": 50,
      "time": 95.647,
      "duration": 0.882,
      "velocity": 0.79,
      "hand": "left"
    },
    {
      "midi": 57,
      "time": 95.647,
      "duration": 0.882,
      "velocity": 0.79,
      "hand": "left"
    },
    {
      "midi": 62,
      "time": 95.647,
      "duration": 0.882,
      "velocity": 0.83,
      "hand": "right"
    },
    {
      "midi": 66,
      "time": 95.647,
      "duration": 0.882,
      "velocity": 0.83,
      "hand": "right"
    },
    {
      "midi": 42,
      "time": 96,
      "duration": 0.176,
      "velocity": 0.51,
      "hand": "left"
    },
    {
      "midi": 37,
      "time": 96.353,
      "duration": 0.176,
      "velocity": 0.73,
      "hand": "left"
    },
    {
      "midi": 42,
      "time": 96.353,
      "duration": 0.176,
      "velocity": 0.58,
      "hand": "left"
    },
    {
      "midi": 35,
      "time": 96.706,
      "duration": 0.176,
      "velocity": 0.58,
      "hand": "left"
    },
    {
      "midi": 42,
      "time": 96.706,
      "duration": 0.176,
      "velocity": 0.51,
      "hand": "left"
    },
    {
      "midi": 35,
      "time": 97.059,
      "duration": 0.176,
      "velocity": 0.73,
      "hand": "left"
    },
    {
      "midi": 38,
      "time": 97.059,
      "duration": 0.529,
      "velocity": 0.86,
      "hand": "left"
    },
    {
      "midi": 42,
      "time": 97.059,
      "duration": 0.176,
      "velocity": 0.65,
      "hand": "left"
    },
    {
      "midi": 50,
      "time": 97.059,
      "duration": 0.529,
      "velocity": 0.79,
      "hand": "left"
    },
    {
      "midi": 62,
      "time": 97.059,
      "duration": 0.529,
      "velocity": 0.79,
      "hand": "right"
    },
    {
      "midi": 66,
      "time": 97.059,
      "duration": 0.529,
      "velocity": 0.83,
      "hand": "right"
    },
    {
      "midi": 69,
      "time": 97.059,
      "duration": 0.529,
      "velocity": 0.83,
      "hand": "right"
    },
    {
      "midi": 35,
      "time": 97.412,
      "duration": 0.176,
      "velocity": 0.58,
      "hand": "left"
    },
    {
      "midi": 42,
      "time": 97.412,
      "duration": 0.176,
      "velocity": 0.51,
      "hand": "left"
    },
    {
      "midi": 37,
      "time": 97.765,
      "duration": 0.176,
      "velocity": 0.73,
      "hand": "left"
    },
    {
      "midi": 42,
      "time": 97.765,
      "duration": 0.176,
      "velocity": 0.58,
      "hand": "left"
    },
    {
      "midi": 35,
      "time": 98.118,
      "duration": 0.176,
      "velocity": 0.58,
      "hand": "left"
    },
    {
      "midi": 42,
      "time": 98.118,
      "duration": 0.176,
      "velocity": 0.51,
      "hand": "left"
    },
    {
      "midi": 42,
      "time": 98.294,
      "duration": 0.176,
      "velocity": 0.43,
      "hand": "left"
    },
    {
      "midi": 35,
      "time": 98.471,
      "duration": 0.176,
      "velocity": 0.73,
      "hand": "left"
    },
    {
      "midi": 42,
      "time": 98.471,
      "duration": 0.176,
      "velocity": 0.65,
      "hand": "left"
    },
    {
      "midi": 43,
      "time": 98.471,
      "duration": 0.529,
      "velocity": 0.86,
      "hand": "left"
    },
    {
      "midi": 50,
      "time": 98.471,
      "duration": 0.529,
      "velocity": 0.86,
      "hand": "left"
    },
    {
      "midi": 55,
      "time": 98.471,
      "duration": 0.529,
      "velocity": 0.79,
      "hand": "left"
    },
    {
      "midi": 62,
      "time": 98.471,
      "duration": 0.529,
      "velocity": 0.79,
      "hand": "right"
    },
    {
      "midi": 67,
      "time": 98.471,
      "duration": 0.529,
      "velocity": 0.83,
      "hand": "right"
    },
    {
      "midi": 71,
      "time": 98.471,
      "duration": 0.529,
      "velocity": 0.83,
      "hand": "right"
    },
    {
      "midi": 42,
      "time": 98.824,
      "duration": 0.176,
      "velocity": 0.51,
      "hand": "left"
    },
    {
      "midi": 37,
      "time": 99.176,
      "duration": 0.176,
      "velocity": 0.73,
      "hand": "left"
    },
    {
      "midi": 42,
      "time": 99.176,
      "duration": 0.176,
      "velocity": 0.58,
      "hand": "left"
    },
    {
      "midi": 43,
      "time": 99.176,
      "duration": 0.353,
      "velocity": 0.86,
      "hand": "left"
    },
    {
      "midi": 50,
      "time": 99.176,
      "duration": 0.353,
      "velocity": 0.86,
      "hand": "left"
    },
    {
      "midi": 55,
      "time": 99.176,
      "duration": 0.353,
      "velocity": 0.79,
      "hand": "left"
    },
    {
      "midi": 62,
      "time": 99.176,
      "duration": 0.353,
      "velocity": 0.79,
      "hand": "right"
    },
    {
      "midi": 67,
      "time": 99.176,
      "duration": 0.353,
      "velocity": 0.83,
      "hand": "right"
    },
    {
      "midi": 71,
      "time": 99.176,
      "duration": 0.353,
      "velocity": 0.83,
      "hand": "right"
    },
    {
      "midi": 35,
      "time": 99.529,
      "duration": 0.176,
      "velocity": 0.58,
      "hand": "left"
    },
    {
      "midi": 42,
      "time": 99.529,
      "duration": 0.176,
      "velocity": 0.51,
      "hand": "left"
    },
    {
      "midi": 43,
      "time": 99.706,
      "duration": 0.176,
      "velocity": 0.86,
      "hand": "left"
    },
    {
      "midi": 50,
      "time": 99.706,
      "duration": 0.176,
      "velocity": 0.86,
      "hand": "left"
    },
    {
      "midi": 55,
      "time": 99.706,
      "duration": 0.176,
      "velocity": 0.79,
      "hand": "left"
    },
    {
      "midi": 62,
      "time": 99.706,
      "duration": 0.176,
      "velocity": 0.79,
      "hand": "right"
    },
    {
      "midi": 67,
      "time": 99.706,
      "duration": 0.176,
      "velocity": 0.83,
      "hand": "right"
    },
    {
      "midi": 71,
      "time": 99.706,
      "duration": 0.176,
      "velocity": 0.83,
      "hand": "right"
    },
    {
      "midi": 35,
      "time": 99.882,
      "duration": 0.176,
      "velocity": 0.73,
      "hand": "left"
    },
    {
      "midi": 40,
      "time": 99.882,
      "duration": 0.176,
      "velocity": 0.86,
      "hand": "left"
    },
    {
      "midi": 42,
      "time": 99.882,
      "duration": 0.176,
      "velocity": 0.65,
      "hand": "left"
    },
    {
      "midi": 50,
      "time": 99.882,
      "duration": 0.176,
      "velocity": 0.86,
      "hand": "left"
    },
    {
      "midi": 52,
      "time": 99.882,
      "duration": 0.176,
      "velocity": 0.79,
      "hand": "left"
    },
    {
      "midi": 62,
      "time": 99.882,
      "duration": 0.176,
      "velocity": 0.79,
      "hand": "right"
    },
    {
      "midi": 68,
      "time": 99.882,
      "duration": 0.176,
      "velocity": 0.83,
      "hand": "right"
    },
    {
      "midi": 71,
      "time": 99.882,
      "duration": 0.176,
      "velocity": 0.83,
      "hand": "right"
    },
    {
      "midi": 40,
      "time": 100.235,
      "duration": 0.176,
      "velocity": 0.86,
      "hand": "left"
    },
    {
      "midi": 42,
      "time": 100.235,
      "duration": 0.176,
      "velocity": 0.51,
      "hand": "left"
    },
    {
      "midi": 47,
      "time": 100.235,
      "duration": 0.176,
      "velocity": 0.86,
      "hand": "left"
    },
    {
      "midi": 52,
      "time": 100.235,
      "duration": 0.176,
      "velocity": 0.79,
      "hand": "left"
    },
    {
      "midi": 59,
      "time": 100.235,
      "duration": 0.176,
      "velocity": 0.79,
      "hand": "left"
    },
    {
      "midi": 68,
      "time": 100.235,
      "duration": 0.176,
      "velocity": 0.83,
      "hand": "right"
    },
    {
      "midi": 74,
      "time": 100.235,
      "duration": 0.176,
      "velocity": 0.83,
      "hand": "right"
    },
    {
      "midi": 37,
      "time": 100.588,
      "duration": 0.176,
      "velocity": 0.73,
      "hand": "left"
    },
    {
      "midi": 40,
      "time": 100.588,
      "duration": 0.176,
      "velocity": 0.86,
      "hand": "left"
    },
    {
      "midi": 42,
      "time": 100.588,
      "duration": 0.176,
      "velocity": 0.58,
      "hand": "left"
    },
    {
      "midi": 45,
      "time": 100.588,
      "duration": 0.176,
      "velocity": 0.86,
      "hand": "left"
    },
    {
      "midi": 52,
      "time": 100.588,
      "duration": 0.176,
      "velocity": 0.79,
      "hand": "left"
    },
    {
      "midi": 57,
      "time": 100.588,
      "duration": 0.176,
      "velocity": 0.79,
      "hand": "left"
    },
    {
      "midi": 64,
      "time": 100.588,
      "duration": 0.176,
      "velocity": 0.83,
      "hand": "right"
    },
    {
      "midi": 73,
      "time": 100.588,
      "duration": 0.176,
      "velocity": 0.83,
      "hand": "right"
    },
    {
      "midi": 35,
      "time": 100.941,
      "duration": 0.176,
      "velocity": 0.58,
      "hand": "left"
    },
    {
      "midi": 40,
      "time": 100.941,
      "duration": 0.176,
      "velocity": 0.86,
      "hand": "left"
    },
    {
      "midi": 42,
      "time": 100.941,
      "duration": 0.176,
      "velocity": 0.51,
      "hand": "left"
    },
    {
      "midi": 44,
      "time": 100.941,
      "duration": 0.176,
      "velocity": 0.86,
      "hand": "left"
    },
    {
      "midi": 52,
      "time": 100.941,
      "duration": 0.176,
      "velocity": 0.79,
      "hand": "left"
    },
    {
      "midi": 56,
      "time": 100.941,
      "duration": 0.176,
      "velocity": 0.79,
      "hand": "left"
    },
    {
      "midi": 62,
      "time": 100.941,
      "duration": 0.176,
      "velocity": 0.83,
      "hand": "right"
    },
    {
      "midi": 71,
      "time": 100.941,
      "duration": 0.176,
      "velocity": 0.83,
      "hand": "right"
    },
    {
      "midi": 33,
      "time": 101.294,
      "duration": 1.412,
      "velocity": 0.86,
      "hand": "left"
    },
    {
      "midi": 35,
      "time": 101.294,
      "duration": 0.176,
      "velocity": 0.73,
      "hand": "left"
    },
    {
      "midi": 42,
      "time": 101.294,
      "duration": 0.176,
      "velocity": 0.65,
      "hand": "left"
    },
    {
      "midi": 45,
      "time": 101.294,
      "duration": 1.412,
      "velocity": 0.79,
      "hand": "left"
    },
    {
      "midi": 57,
      "time": 101.294,
      "duration": 1.412,
      "velocity": 0.79,
      "hand": "left"
    },
    {
      "midi": 61,
      "time": 101.294,
      "duration": 1.412,
      "velocity": 0.83,
      "hand": "right"
    },
    {
      "midi": 69,
      "time": 101.294,
      "duration": 0.882,
      "velocity": 0.83,
      "hand": "right"
    },
    {
      "midi": 69,
      "time": 101.294,
      "duration": 1.412,
      "velocity": 0.86,
      "hand": "right"
    },
    {
      "midi": 42,
      "time": 101.471,
      "duration": 0.176,
      "velocity": 0.43,
      "hand": "left"
    },
    {
      "midi": 42,
      "time": 101.647,
      "duration": 0.176,
      "velocity": 0.51,
      "hand": "left"
    },
    {
      "midi": 37,
      "time": 102,
      "duration": 0.176,
      "velocity": 0.73,
      "hand": "left"
    },
    {
      "midi": 42,
      "time": 102,
      "duration": 0.176,
      "velocity": 0.58,
      "hand": "left"
    },
    {
      "midi": 35,
      "time": 102.353,
      "duration": 0.176,
      "velocity": 0.58,
      "hand": "left"
    },
    {
      "midi": 42,
      "time": 102.353,
      "duration": 0.176,
      "velocity": 0.51,
      "hand": "left"
    },
    {
      "midi": 46,
      "time": 102.529,
      "duration": 0.176,
      "velocity": 0.39,
      "hand": "left"
    },
    {
      "midi": 35,
      "time": 102.706,
      "duration": 0.176,
      "velocity": 0.73,
      "hand": "left"
    },
    {
      "midi": 42,
      "time": 102.706,
      "duration": 0.176,
      "velocity": 0.65,
      "hand": "left"
    },
    {
      "midi": 67,
      "time": 102.706,
      "duration": 0.529,
      "velocity": 0.83,
      "hand": "right"
    },
    {
      "midi": 35,
      "time": 103.059,
      "duration": 0.176,
      "velocity": 0.58,
      "hand": "left"
    },
    {
      "midi": 42,
      "time": 103.059,
      "duration": 0.176,
      "velocity": 0.51,
      "hand": "left"
    },
    {
      "midi": 37,
      "time": 103.412,
      "duration": 0.176,
      "velocity": 0.73,
      "hand": "left"
    },
    {
      "midi": 42,
      "time": 103.412,
      "duration": 0.176,
      "velocity": 0.58,
      "hand": "left"
    },
    {
      "midi": 35,
      "time": 103.765,
      "duration": 0.176,
      "velocity": 0.58,
      "hand": "left"
    },
    {
      "midi": 42,
      "time": 103.765,
      "duration": 0.176,
      "velocity": 0.51,
      "hand": "left"
    },
    {
      "midi": 35,
      "time": 104.118,
      "duration": 0.176,
      "velocity": 0.73,
      "hand": "left"
    },
    {
      "midi": 38,
      "time": 104.118,
      "duration": 0.529,
      "velocity": 0.86,
      "hand": "left"
    },
    {
      "midi": 42,
      "time": 104.118,
      "duration": 0.176,
      "velocity": 0.65,
      "hand": "left"
    },
    {
      "midi": 45,
      "time": 104.118,
      "duration": 0.529,
      "velocity": 0.86,
      "hand": "left"
    },
    {
      "midi": 50,
      "time": 104.118,
      "duration": 0.529,
      "velocity": 0.79,
      "hand": "left"
    },
    {
      "midi": 57,
      "time": 104.118,
      "duration": 0.529,
      "velocity": 0.79,
      "hand": "left"
    },
    {
      "midi": 62,
      "time": 104.118,
      "duration": 0.529,
      "velocity": 0.83,
      "hand": "right"
    },
    {
      "midi": 66,
      "time": 104.118,
      "duration": 0.529,
      "velocity": 0.83,
      "hand": "right"
    },
    {
      "midi": 42,
      "time": 104.471,
      "duration": 0.176,
      "velocity": 0.51,
      "hand": "left"
    },
    {
      "midi": 37,
      "time": 104.824,
      "duration": 0.176,
      "velocity": 0.73,
      "hand": "left"
    },
    {
      "midi": 38,
      "time": 104.824,
      "duration": 0.353,
      "velocity": 0.86,
      "hand": "left"
    },
    {
      "midi": 42,
      "time": 104.824,
      "duration": 0.176,
      "velocity": 0.58,
      "hand": "left"
    },
    {
      "midi": 45,
      "time": 104.824,
      "duration": 0.353,
      "velocity": 0.86,
      "hand": "left"
    },
    {
      "midi": 50,
      "time": 104.824,
      "duration": 0.353,
      "velocity": 0.79,
      "hand": "left"
    },
    {
      "midi": 57,
      "time": 104.824,
      "duration": 0.353,
      "velocity": 0.79,
      "hand": "left"
    },
    {
      "midi": 62,
      "time": 104.824,
      "duration": 0.353,
      "velocity": 0.83,
      "hand": "right"
    },
    {
      "midi": 66,
      "time": 104.824,
      "duration": 0.353,
      "velocity": 0.83,
      "hand": "right"
    },
    {
      "midi": 35,
      "time": 105.176,
      "duration": 0.176,
      "velocity": 0.58,
      "hand": "left"
    },
    {
      "midi": 42,
      "time": 105.176,
      "duration": 0.176,
      "velocity": 0.51,
      "hand": "left"
    },
    {
      "midi": 38,
      "time": 105.353,
      "duration": 0.176,
      "velocity": 0.86,
      "hand": "left"
    },
    {
      "midi": 44,
      "time": 105.353,
      "duration": 0.176,
      "velocity": 0.86,
      "hand": "left"
    },
    {
      "midi": 50,
      "time": 105.353,
      "duration": 0.176,
      "velocity": 0.79,
      "hand": "left"
    },
    {
      "midi": 56,
      "time": 105.353,
      "duration": 0.176,
      "velocity": 0.79,
      "hand": "left"
    },
    {
      "midi": 62,
      "time": 105.353,
      "duration": 0.176,
      "velocity": 0.83,
      "hand": "right"
    },
    {
      "midi": 65,
      "time": 105.353,
      "duration": 0.176,
      "velocity": 0.83,
      "hand": "right"
    },
    {
      "midi": 35,
      "time": 105.529,
      "duration": 0.176,
      "velocity": 0.73,
      "hand": "left"
    },
    {
      "midi": 38,
      "time": 105.529,
      "duration": 0.529,
      "velocity": 0.86,
      "hand": "left"
    },
    {
      "midi": 42,
      "time": 105.529,
      "duration": 0.176,
      "velocity": 0.65,
      "hand": "left"
    },
    {
      "midi": 45,
      "time": 105.529,
      "duration": 0.529,
      "velocity": 0.86,
      "hand": "left"
    },
    {
      "midi": 50,
      "time": 105.529,
      "duration": 0.529,
      "velocity": 0.79,
      "hand": "left"
    },
    {
      "midi": 57,
      "time": 105.529,
      "duration": 0.529,
      "velocity": 0.79,
      "hand": "left"
    },
    {
      "midi": 62,
      "time": 105.529,
      "duration": 0.529,
      "velocity": 0.83,
      "hand": "right"
    },
    {
      "midi": 66,
      "time": 105.529,
      "duration": 0.529,
      "velocity": 0.83,
      "hand": "right"
    },
    {
      "midi": 42,
      "time": 105.882,
      "duration": 0.176,
      "velocity": 0.51,
      "hand": "left"
    },
    {
      "midi": 37,
      "time": 106.235,
      "duration": 0.176,
      "velocity": 0.73,
      "hand": "left"
    },
    {
      "midi": 38,
      "time": 106.235,
      "duration": 0.353,
      "velocity": 0.86,
      "hand": "left"
    },
    {
      "midi": 42,
      "time": 106.235,
      "duration": 0.176,
      "velocity": 0.58,
      "hand": "left"
    },
    {
      "midi": 45,
      "time": 106.235,
      "duration": 0.353,
      "velocity": 0.86,
      "hand": "left"
    },
    {
      "midi": 50,
      "time": 106.235,
      "duration": 0.353,
      "velocity": 0.79,
      "hand": "left"
    },
    {
      "midi": 57,
      "time": 106.235,
      "duration": 0.353,
      "velocity": 0.79,
      "hand": "left"
    },
    {
      "midi": 62,
      "time": 106.235,
      "duration": 0.353,
      "velocity": 0.83,
      "hand": "right"
    },
    {
      "midi": 66,
      "time": 106.235,
      "duration": 0.353,
      "velocity": 0.83,
      "hand": "right"
    },
    {
      "midi": 35,
      "time": 106.588,
      "duration": 0.176,
      "velocity": 0.58,
      "hand": "left"
    },
    {
      "midi": 42,
      "time": 106.588,
      "duration": 0.176,
      "velocity": 0.51,
      "hand": "left"
    },
    {
      "midi": 38,
      "time": 106.765,
      "duration": 0.176,
      "velocity": 0.86,
      "hand": "left"
    },
    {
      "midi": 45,
      "time": 106.765,
      "duration": 0.176,
      "velocity": 0.86,
      "hand": "left"
    },
    {
      "midi": 50,
      "time": 106.765,
      "duration": 0.176,
      "velocity": 0.79,
      "hand": "left"
    },
    {
      "midi": 57,
      "time": 106.765,
      "duration": 0.176,
      "velocity": 0.79,
      "hand": "left"
    },
    {
      "midi": 64,
      "time": 106.765,
      "duration": 0.176,
      "velocity": 0.83,
      "hand": "right"
    },
    {
      "midi": 67,
      "time": 106.765,
      "duration": 0.176,
      "velocity": 0.83,
      "hand": "right"
    },
    {
      "midi": 35,
      "time": 106.941,
      "duration": 0.176,
      "velocity": 0.73,
      "hand": "left"
    },
    {
      "midi": 38,
      "time": 106.941,
      "duration": 0.882,
      "velocity": 0.86,
      "hand": "left"
    },
    {
      "midi": 42,
      "time": 106.941,
      "duration": 0.176,
      "velocity": 0.65,
      "hand": "left"
    },
    {
      "midi": 50,
      "time": 106.941,
      "duration": 0.882,
      "velocity": 0.79,
      "hand": "left"
    },
    {
      "midi": 62,
      "time": 106.941,
      "duration": 0.882,
      "velocity": 0.79,
      "hand": "right"
    },
    {
      "midi": 66,
      "time": 106.941,
      "duration": 0.882,
      "velocity": 0.83,
      "hand": "right"
    },
    {
      "midi": 69,
      "time": 106.941,
      "duration": 0.882,
      "velocity": 0.83,
      "hand": "right"
    },
    {
      "midi": 42,
      "time": 107.294,
      "duration": 0.176,
      "velocity": 0.51,
      "hand": "left"
    },
    {
      "midi": 37,
      "time": 107.647,
      "duration": 0.176,
      "velocity": 0.73,
      "hand": "left"
    },
    {
      "midi": 42,
      "time": 107.647,
      "duration": 0.176,
      "velocity": 0.58,
      "hand": "left"
    },
    {
      "midi": 35,
      "time": 108,
      "duration": 0.176,
      "velocity": 0.58,
      "hand": "left"
    },
    {
      "midi": 42,
      "time": 108,
      "duration": 0.176,
      "velocity": 0.51,
      "hand": "left"
    },
    {
      "midi": 35,
      "time": 108.353,
      "duration": 0.176,
      "velocity": 0.73,
      "hand": "left"
    },
    {
      "midi": 38,
      "time": 108.353,
      "duration": 0.529,
      "velocity": 0.86,
      "hand": "left"
    },
    {
      "midi": 42,
      "time": 108.353,
      "duration": 0.176,
      "velocity": 0.65,
      "hand": "left"
    },
    {
      "midi": 50,
      "time": 108.353,
      "duration": 0.529,
      "velocity": 0.79,
      "hand": "left"
    },
    {
      "midi": 62,
      "time": 108.353,
      "duration": 0.529,
      "velocity": 0.79,
      "hand": "right"
    },
    {
      "midi": 66,
      "time": 108.353,
      "duration": 0.529,
      "velocity": 0.83,
      "hand": "right"
    },
    {
      "midi": 69,
      "time": 108.353,
      "duration": 0.529,
      "velocity": 0.83,
      "hand": "right"
    },
    {
      "midi": 35,
      "time": 108.706,
      "duration": 0.176,
      "velocity": 0.58,
      "hand": "left"
    },
    {
      "midi": 42,
      "time": 108.706,
      "duration": 0.176,
      "velocity": 0.51,
      "hand": "left"
    },
    {
      "midi": 37,
      "time": 109.059,
      "duration": 0.176,
      "velocity": 0.73,
      "hand": "left"
    },
    {
      "midi": 38,
      "time": 109.059,
      "duration": 0.353,
      "velocity": 0.86,
      "hand": "left"
    },
    {
      "midi": 42,
      "time": 109.059,
      "duration": 0.176,
      "velocity": 0.58,
      "hand": "left"
    },
    {
      "midi": 45,
      "time": 109.059,
      "duration": 0.353,
      "velocity": 0.86,
      "hand": "left"
    },
    {
      "midi": 50,
      "time": 109.059,
      "duration": 0.353,
      "velocity": 0.79,
      "hand": "left"
    },
    {
      "midi": 57,
      "time": 109.059,
      "duration": 0.353,
      "velocity": 0.79,
      "hand": "left"
    },
    {
      "midi": 66,
      "time": 109.059,
      "duration": 0.353,
      "velocity": 0.83,
      "hand": "right"
    },
    {
      "midi": 69,
      "time": 109.059,
      "duration": 0.353,
      "velocity": 0.83,
      "hand": "right"
    },
    {
      "midi": 35,
      "time": 109.412,
      "duration": 0.176,
      "velocity": 0.58,
      "hand": "left"
    },
    {
      "midi": 42,
      "time": 109.412,
      "duration": 0.176,
      "velocity": 0.51,
      "hand": "left"
    },
    {
      "midi": 38,
      "time": 109.588,
      "duration": 0.176,
      "velocity": 0.86,
      "hand": "left"
    },
    {
      "midi": 42,
      "time": 109.588,
      "duration": 0.176,
      "velocity": 0.43,
      "hand": "left"
    },
    {
      "midi": 45,
      "time": 109.588,
      "duration": 0.176,
      "velocity": 0.86,
      "hand": "left"
    },
    {
      "midi": 50,
      "time": 109.588,
      "duration": 0.176,
      "velocity": 0.79,
      "hand": "left"
    },
    {
      "midi": 57,
      "time": 109.588,
      "duration": 0.176,
      "velocity": 0.79,
      "hand": "left"
    },
    {
      "midi": 62,
      "time": 109.588,
      "duration": 0.176,
      "velocity": 0.83,
      "hand": "right"
    },
    {
      "midi": 66,
      "time": 109.588,
      "duration": 0.176,
      "velocity": 0.83,
      "hand": "right"
    },
    {
      "midi": 35,
      "time": 109.765,
      "duration": 0.176,
      "velocity": 0.65,
      "hand": "left"
    },
    {
      "midi": 42,
      "time": 109.765,
      "duration": 0.176,
      "velocity": 0.58,
      "hand": "left"
    },
    {
      "midi": 43,
      "time": 109.765,
      "duration": 0.529,
      "velocity": 0.86,
      "hand": "left"
    },
    {
      "midi": 47,
      "time": 109.765,
      "duration": 0.529,
      "velocity": 0.86,
      "hand": "left"
    },
    {
      "midi": 55,
      "time": 109.765,
      "duration": 0.529,
      "velocity": 0.79,
      "hand": "left"
    },
    {
      "midi": 59,
      "time": 109.765,
      "duration": 0.529,
      "velocity": 0.79,
      "hand": "left"
    },
    {
      "midi": 62,
      "time": 109.765,
      "duration": 0.529,
      "velocity": 0.83,
      "hand": "right"
    },
    {
      "midi": 64,
      "time": 109.765,
      "duration": 0.529,
      "velocity": 0.83,
      "hand": "right"
    },
    {
      "midi": 42,
      "time": 110.118,
      "duration": 0.176,
      "velocity": 0.36,
      "hand": "left"
    },
    {
      "midi": 42,
      "time": 110.294,
      "duration": 0.176,
      "velocity": 0.73,
      "hand": "left"
    },
    {
      "midi": 38,
      "time": 110.471,
      "duration": 0.176,
      "velocity": 0.73,
      "hand": "left"
    },
    {
      "midi": 43,
      "time": 110.471,
      "duration": 0.353,
      "velocity": 0.86,
      "hand": "left"
    },
    {
      "midi": 46,
      "time": 110.471,
      "duration": 0.176,
      "velocity": 0.73,
      "hand": "left"
    },
    {
      "midi": 47,
      "time": 110.471,
      "duration": 0.353,
      "velocity": 0.86,
      "hand": "left"
    },
    {
      "midi": 55,
      "time": 110.471,
      "duration": 0.353,
      "velocity": 0.79,
      "hand": "left"
    },
    {
      "midi": 59,
      "time": 110.471,
      "duration": 0.353,
      "velocity": 0.79,
      "hand": "left"
    },
    {
      "midi": 62,
      "time": 110.471,
      "duration": 0.353,
      "velocity": 0.83,
      "hand": "right"
    },
    {
      "midi": 64,
      "time": 110.471,
      "duration": 0.353,
      "velocity": 0.83,
      "hand": "right"
    },
    {
      "midi": 35,
      "time": 111,
      "duration": 0.176,
      "velocity": 0.65,
      "hand": "left"
    },
    {
      "midi": 43,
      "time": 111,
      "duration": 0.176,
      "velocity": 0.86,
      "hand": "left"
    },
    {
      "midi": 47,
      "time": 111,
      "duration": 0.176,
      "velocity": 0.86,
      "hand": "left"
    },
    {
      "midi": 55,
      "time": 111,
      "duration": 0.176,
      "velocity": 0.79,
      "hand": "left"
    },
    {
      "midi": 59,
      "time": 111,
      "duration": 0.176,
      "velocity": 0.79,
      "hand": "left"
    },
    {
      "midi": 62,
      "time": 111,
      "duration": 0.176,
      "velocity": 0.83,
      "hand": "right"
    },
    {
      "midi": 64,
      "time": 111,
      "duration": 0.176,
      "velocity": 0.83,
      "hand": "right"
    },
    {
      "midi": 38,
      "time": 111.176,
      "duration": 0.176,
      "velocity": 0.73,
      "hand": "left"
    },
    {
      "midi": 45,
      "time": 111.176,
      "duration": 0.529,
      "velocity": 0.86,
      "hand": "left"
    },
    {
      "midi": 57,
      "time": 111.176,
      "duration": 0.529,
      "velocity": 0.79,
      "hand": "left"
    },
    {
      "midi": 61,
      "time": 111.176,
      "duration": 0.529,
      "velocity": 0.83,
      "hand": "right"
    },
    {
      "midi": 64,
      "time": 111.176,
      "duration": 0.529,
      "velocity": 0.83,
      "hand": "right"
    },
    {
      "midi": 38,
      "time": 111.353,
      "duration": 0.176,
      "velocity": 0.43,
      "hand": "left"
    },
    {
      "midi": 35,
      "time": 111.706,
      "duration": 0.176,
      "velocity": 0.65,
      "hand": "left"
    },
    {
      "midi": 33,
      "time": 111.882,
      "duration": 0.353,
      "velocity": 0.86,
      "hand": "left"
    },
    {
      "midi": 38,
      "time": 111.882,
      "duration": 0.176,
      "velocity": 0.73,
      "hand": "left"
    },
    {
      "midi": 45,
      "time": 111.882,
      "duration": 0.353,
      "velocity": 0.79,
      "hand": "left"
    },
    {
      "midi": 57,
      "time": 111.882,
      "duration": 0.353,
      "velocity": 0.79,
      "hand": "left"
    },
    {
      "midi": 61,
      "time": 111.882,
      "duration": 0.353,
      "velocity": 0.83,
      "hand": "right"
    },
    {
      "midi": 66,
      "time": 111.882,
      "duration": 0.353,
      "velocity": 0.83,
      "hand": "right"
    },
    {
      "midi": 38,
      "time": 112.059,
      "duration": 0.176,
      "velocity": 0.43,
      "hand": "left"
    },
    {
      "midi": 41,
      "time": 112.235,
      "duration": 0.176,
      "velocity": 0.83,
      "hand": "left"
    },
    {
      "midi": 33,
      "time": 112.412,
      "duration": 0.176,
      "velocity": 0.86,
      "hand": "left"
    },
    {
      "midi": 43,
      "time": 112.412,
      "duration": 0.176,
      "velocity": 0.86,
      "hand": "left"
    },
    {
      "midi": 45,
      "time": 112.412,
      "duration": 0.176,
      "velocity": 0.79,
      "hand": "left"
    },
    {
      "midi": 55,
      "time": 112.412,
      "duration": 0.176,
      "velocity": 0.79,
      "hand": "left"
    },
    {
      "midi": 61,
      "time": 112.412,
      "duration": 0.176,
      "velocity": 0.83,
      "hand": "right"
    },
    {
      "midi": 64,
      "time": 112.412,
      "duration": 0.176,
      "velocity": 0.83,
      "hand": "right"
    },
    {
      "midi": 35,
      "time": 112.588,
      "duration": 0.176,
      "velocity": 0.73,
      "hand": "left"
    },
    {
      "midi": 38,
      "time": 112.588,
      "duration": 1.412,
      "velocity": 0.86,
      "hand": "left"
    },
    {
      "midi": 42,
      "time": 112.588,
      "duration": 1.412,
      "velocity": 0.86,
      "hand": "left"
    },
    {
      "midi": 50,
      "time": 112.588,
      "duration": 1.412,
      "velocity": 0.79,
      "hand": "left"
    },
    {
      "midi": 54,
      "time": 112.588,
      "duration": 1.412,
      "velocity": 0.79,
      "hand": "left"
    },
    {
      "midi": 62,
      "time": 112.588,
      "duration": 1.412,
      "velocity": 0.83,
      "hand": "right"
    },
    {
      "midi": 38,
      "time": 113.118,
      "duration": 0.176,
      "velocity": 0.36,
      "hand": "left"
    },
    {
      "midi": 38,
      "time": 113.294,
      "duration": 0.176,
      "velocity": 0.65,
      "hand": "left"
    },
    {
      "midi": 35,
      "time": 113.471,
      "duration": 0.176,
      "velocity": 0.65,
      "hand": "left"
    },
    {
      "midi": 48,
      "time": 113.647,
      "duration": 0.176,
      "velocity": 0.73,
      "hand": "left"
    },
    {
      "midi": 38,
      "time": 114.176,
      "duration": 0.176,
      "velocity": 0.29,
      "hand": "left"
    },
    {
      "midi": 45,
      "time": 114.353,
      "duration": 0.176,
      "velocity": 0.73,
      "hand": "left"
    },
    {
      "midi": 35,
      "time": 114.529,
      "duration": 0.176,
      "velocity": 0.65,
      "hand": "left"
    },
    {
      "midi": 41,
      "time": 114.706,
      "duration": 0.176,
      "velocity": 0.73,
      "hand": "left"
    },
    {
      "midi": 41,
      "time": 115.059,
      "duration": 0.176,
      "velocity": 0.83,
      "hand": "left"
    },
    {
      "midi": 35,
      "time": 115.412,
      "duration": 0.176,
      "velocity": 0.73,
      "hand": "left"
    },
    {
      "midi": 38,
      "time": 115.412,
      "duration": 0.176,
      "velocity": 0.86,
      "hand": "left"
    },
    {
      "midi": 42,
      "time": 115.412,
      "duration": 0.176,
      "velocity": 0.65,
      "hand": "left"
    },
    {
      "midi": 49,
      "time": 115.412,
      "duration": 0.176,
      "velocity": 0.65,
      "hand": "left"
    },
    {
      "midi": 50,
      "time": 115.412,
      "duration": 0.176,
      "velocity": 0.79,
      "hand": "left"
    },
    {
      "midi": 62,
      "time": 115.412,
      "duration": 0.176,
      "velocity": 0.79,
      "hand": "right"
    },
    {
      "midi": 66,
      "time": 115.412,
      "duration": 0.176,
      "velocity": 0.83,
      "hand": "right"
    },
    {
      "midi": 69,
      "time": 115.412,
      "duration": 1.588,
      "velocity": 0.83,
      "hand": "right"
    },
    {
      "midi": 38,
      "time": 115.588,
      "duration": 0.353,
      "velocity": 0.86,
      "hand": "left"
    },
    {
      "midi": 50,
      "time": 115.588,
      "duration": 0.353,
      "velocity": 0.79,
      "hand": "left"
    },
    {
      "midi": 62,
      "time": 115.588,
      "duration": 0.353,
      "velocity": 0.79,
      "hand": "right"
    },
    {
      "midi": 66,
      "time": 115.588,
      "duration": 0.353,
      "velocity": 0.83,
      "hand": "right"
    },
    {
      "midi": 42,
      "time": 115.765,
      "duration": 0.176,
      "velocity": 0.51,
      "hand": "left"
    },
    {
      "midi": 42,
      "time": 115.941,
      "duration": 0.176,
      "velocity": 0.43,
      "hand": "left"
    },
    {
      "midi": 38,
      "time": 116.118,
      "duration": 0.353,
      "velocity": 0.86,
      "hand": "left"
    },
    {
      "midi": 38,
      "time": 116.118,
      "duration": 0.176,
      "velocity": 0.73,
      "hand": "left"
    },
    {
      "midi": 42,
      "time": 116.118,
      "duration": 0.176,
      "velocity": 0.58,
      "hand": "left"
    },
    {
      "midi": 50,
      "time": 116.118,
      "duration": 0.353,
      "velocity": 0.79,
      "hand": "left"
    },
    {
      "midi": 62,
      "time": 116.118,
      "duration": 0.353,
      "velocity": 0.79,
      "hand": "right"
    },
    {
      "midi": 66,
      "time": 116.118,
      "duration": 0.353,
      "velocity": 0.83,
      "hand": "right"
    },
    {
      "midi": 42,
      "time": 116.471,
      "duration": 0.176,
      "velocity": 0.51,
      "hand": "left"
    },
    {
      "midi": 35,
      "time": 116.647,
      "duration": 0.176,
      "velocity": 0.58,
      "hand": "left"
    },
    {
      "midi": 38,
      "time": 116.647,
      "duration": 0.176,
      "velocity": 0.86,
      "hand": "left"
    },
    {
      "midi": 42,
      "time": 116.647,
      "duration": 0.176,
      "velocity": 0.43,
      "hand": "left"
    },
    {
      "midi": 50,
      "time": 116.647,
      "duration": 0.176,
      "velocity": 0.79,
      "hand": "left"
    },
    {
      "midi": 62,
      "time": 116.647,
      "duration": 0.176,
      "velocity": 0.79,
      "hand": "right"
    },
    {
      "midi": 66,
      "time": 116.647,
      "duration": 0.176,
      "velocity": 0.83,
      "hand": "right"
    },
    {
      "midi": 35,
      "time": 116.824,
      "duration": 0.176,
      "velocity": 0.73,
      "hand": "left"
    },
    {
      "midi": 38,
      "time": 116.824,
      "duration": 0.529,
      "velocity": 0.86,
      "hand": "left"
    },
    {
      "midi": 42,
      "time": 116.824,
      "duration": 0.176,
      "velocity": 0.65,
      "hand": "left"
    },
    {
      "midi": 50,
      "time": 116.824,
      "duration": 0.529,
      "velocity": 0.79,
      "hand": "left"
    },
    {
      "midi": 62,
      "time": 116.824,
      "duration": 0.529,
      "velocity": 0.79,
      "hand": "right"
    },
    {
      "midi": 66,
      "time": 116.824,
      "duration": 0.529,
      "velocity": 0.83,
      "hand": "right"
    },
    {
      "midi": 69,
      "time": 116.824,
      "duration": 0.353,
      "velocity": 0.83,
      "hand": "right"
    },
    {
      "midi": 42,
      "time": 117.176,
      "duration": 0.176,
      "velocity": 0.51,
      "hand": "left"
    },
    {
      "midi": 42,
      "time": 117.353,
      "duration": 0.176,
      "velocity": 0.43,
      "hand": "left"
    },
    {
      "midi": 66,
      "time": 117.353,
      "duration": 0.176,
      "velocity": 0.83,
      "hand": "right"
    },
    {
      "midi": 38,
      "time": 117.529,
      "duration": 0.176,
      "velocity": 0.73,
      "hand": "left"
    },
    {
      "midi": 42,
      "time": 117.529,
      "duration": 0.176,
      "velocity": 0.58,
      "hand": "left"
    },
    {
      "midi": 69,
      "time": 117.529,
      "duration": 0.353,
      "velocity": 0.83,
      "hand": "right"
    },
    {
      "midi": 35,
      "time": 117.882,
      "duration": 0.176,
      "velocity": 0.58,
      "hand": "left"
    },
    {
      "midi": 42,
      "time": 117.882,
      "duration": 0.176,
      "velocity": 0.51,
      "hand": "left"
    },
    {
      "midi": 42,
      "time": 118.059,
      "duration": 0.176,
      "velocity": 0.43,
      "hand": "left"
    },
    {
      "midi": 74,
      "time": 118.059,
      "duration": 0.176,
      "velocity": 0.83,
      "hand": "right"
    },
    {
      "midi": 33,
      "time": 118.235,
      "duration": 0.176,
      "velocity": 0.86,
      "hand": "left"
    },
    {
      "midi": 35,
      "time": 118.235,
      "duration": 0.176,
      "velocity": 0.73,
      "hand": "left"
    },
    {
      "midi": 42,
      "time": 118.235,
      "duration": 0.176,
      "velocity": 0.65,
      "hand": "left"
    },
    {
      "midi": 45,
      "time": 118.235,
      "duration": 0.176,
      "velocity": 0.79,
      "hand": "left"
    },
    {
      "midi": 52,
      "time": 118.235,
      "duration": 0.176,
      "velocity": 0.86,
      "hand": "left"
    },
    {
      "midi": 64,
      "time": 118.235,
      "duration": 0.176,
      "velocity": 0.79,
      "hand": "right"
    },
    {
      "midi": 67,
      "time": 118.235,
      "duration": 0.176,
      "velocity": 0.83,
      "hand": "right"
    },
    {
      "midi": 73,
      "time": 118.235,
      "duration": 1.588,
      "velocity": 0.83,
      "hand": "right"
    },
    {
      "midi": 73,
      "time": 118.235,
      "duration": 0.882,
      "velocity": 0.86,
      "hand": "right"
    },
    {
      "midi": 33,
      "time": 118.412,
      "duration": 0.353,
      "velocity": 0.86,
      "hand": "left"
    },
    {
      "midi": 45,
      "time": 118.412,
      "duration": 0.353,
      "velocity": 0.79,
      "hand": "left"
    },
    {
      "midi": 52,
      "time": 118.412,
      "duration": 0.353,
      "velocity": 0.86,
      "hand": "left"
    },
    {
      "midi": 64,
      "time": 118.412,
      "duration": 0.353,
      "velocity": 0.79,
      "hand": "right"
    },
    {
      "midi": 67,
      "time": 118.412,
      "duration": 0.353,
      "velocity": 0.83,
      "hand": "right"
    },
    {
      "midi": 42,
      "time": 118.588,
      "duration": 0.176,
      "velocity": 0.51,
      "hand": "left"
    },
    {
      "midi": 42,
      "time": 118.765,
      "duration": 0.176,
      "velocity": 0.43,
      "hand": "left"
    },
    {
      "midi": 33,
      "time": 118.941,
      "duration": 0.353,
      "velocity": 0.86,
      "hand": "left"
    },
    {
      "midi": 38,
      "time": 118.941,
      "duration": 0.176,
      "velocity": 0.73,
      "hand": "left"
    },
    {
      "midi": 42,
      "time": 118.941,
      "duration": 0.176,
      "velocity": 0.58,
      "hand": "left"
    },
    {
      "midi": 45,
      "time": 118.941,
      "duration": 0.353,
      "velocity": 0.79,
      "hand": "left"
    },
    {
      "midi": 52,
      "time": 118.941,
      "duration": 0.353,
      "velocity": 0.86,
      "hand": "left"
    },
    {
      "midi": 64,
      "time": 118.941,
      "duration": 0.353,
      "velocity": 0.79,
      "hand": "right"
    },
    {
      "midi": 67,
      "time": 118.941,
      "duration": 0.353,
      "velocity": 0.83,
      "hand": "right"
    },
    {
      "midi": 42,
      "time": 119.294,
      "duration": 0.176,
      "velocity": 0.51,
      "hand": "left"
    },
    {
      "midi": 33,
      "time": 119.471,
      "duration": 0.176,
      "velocity": 0.86,
      "hand": "left"
    },
    {
      "midi": 35,
      "time": 119.471,
      "duration": 0.176,
      "velocity": 0.58,
      "hand": "left"
    },
    {
      "midi": 42,
      "time": 119.471,
      "duration": 0.176,
      "velocity": 0.43,
      "hand": "left"
    },
    {
      "midi": 45,
      "time": 119.471,
      "duration": 0.176,
      "velocity": 0.79,
      "hand": "left"
    },
    {
      "midi": 52,
      "time": 119.471,
      "duration": 0.176,
      "velocity": 0.86,
      "hand": "left"
    },
    {
      "midi": 64,
      "time": 119.471,
      "duration": 0.176,
      "velocity": 0.79,
      "hand": "right"
    },
    {
      "midi": 67,
      "time": 119.471,
      "duration": 0.176,
      "velocity": 0.83,
      "hand": "right"
    },
    {
      "midi": 33,
      "time": 119.647,
      "duration": 0.529,
      "velocity": 0.86,
      "hand": "left"
    },
    {
      "midi": 35,
      "time": 119.647,
      "duration": 0.176,
      "velocity": 0.73,
      "hand": "left"
    },
    {
      "midi": 42,
      "time": 119.647,
      "duration": 0.176,
      "velocity": 0.65,
      "hand": "left"
    },
    {
      "midi": 45,
      "time": 119.647,
      "duration": 0.529,
      "velocity": 0.79,
      "hand": "left"
    },
    {
      "midi": 52,
      "time": 119.647,
      "duration": 0.529,
      "velocity": 0.86,
      "hand": "left"
    },
    {
      "midi": 64,
      "time": 119.647,
      "duration": 0.529,
      "velocity": 0.79,
      "hand": "right"
    },
    {
      "midi": 67,
      "time": 119.647,
      "duration": 0.529,
      "velocity": 0.83,
      "hand": "right"
    },
    {
      "midi": 73,
      "time": 119.647,
      "duration": 0.529,
      "velocity": 0.83,
      "hand": "right"
    },
    {
      "midi": 35,
      "time": 120,
      "duration": 0.176,
      "velocity": 0.58,
      "hand": "left"
    },
    {
      "midi": 42,
      "time": 120,
      "duration": 0.176,
      "velocity": 0.51,
      "hand": "left"
    },
    {
      "midi": 42,
      "time": 120.176,
      "duration": 0.176,
      "velocity": 0.43,
      "hand": "left"
    },
    {
      "midi": 38,
      "time": 120.353,
      "duration": 0.176,
      "velocity": 0.73,
      "hand": "left"
    },
    {
      "midi": 42,
      "time": 120.353,
      "duration": 0.176,
      "velocity": 0.58,
      "hand": "left"
    },
    {
      "midi": 35,
      "time": 120.706,
      "duration": 0.176,
      "velocity": 0.58,
      "hand": "left"
    },
    {
      "midi": 42,
      "time": 120.706,
      "duration": 0.176,
      "velocity": 0.51,
      "hand": "left"
    },
    {
      "midi": 46,
      "time": 120.882,
      "duration": 0.176,
      "velocity": 0.58,
      "hand": "left"
    },
    {
      "midi": 35,
      "time": 121.059,
      "duration": 0.176,
      "velocity": 0.73,
      "hand": "left"
    },
    {
      "midi": 42,
      "time": 121.059,
      "duration": 0.176,
      "velocity": 0.65,
      "hand": "left"
    },
    {
      "midi": 45,
      "time": 121.059,
      "duration": 0.176,
      "velocity": 0.86,
      "hand": "left"
    },
    {
      "midi": 49,
      "time": 121.059,
      "duration": 0.176,
      "velocity": 0.86,
      "hand": "left"
    },
    {
      "midi": 57,
      "time": 121.059,
      "duration": 0.176,
      "velocity": 0.79,
      "hand": "left"
    },
    {
      "midi": 61,
      "time": 121.059,
      "duration": 0.176,
      "velocity": 0.79,
      "hand": "right"
    },
    {
      "midi": 64,
      "time": 121.059,
      "duration": 0.176,
      "velocity": 0.83,
      "hand": "right"
    },
    {
      "midi": 67,
      "time": 121.059,
      "duration": 1.588,
      "velocity": 0.83,
      "hand": "right"
    },
    {
      "midi": 45,
      "time": 121.235,
      "duration": 0.353,
      "velocity": 0.86,
      "hand": "left"
    },
    {
      "midi": 49,
      "time": 121.235,
      "duration": 0.353,
      "velocity": 0.86,
      "hand": "left"
    },
    {
      "midi": 57,
      "time": 121.235,
      "duration": 0.353,
      "velocity": 0.79,
      "hand": "left"
    },
    {
      "midi": 61,
      "time": 121.235,
      "duration": 0.353,
      "velocity": 0.79,
      "hand": "right"
    },
    {
      "midi": 64,
      "time": 121.235,
      "duration": 0.353,
      "velocity": 0.83,
      "hand": "right"
    },
    {
      "midi": 42,
      "time": 121.412,
      "duration": 0.176,
      "velocity": 0.51,
      "hand": "left"
    },
    {
      "midi": 42,
      "time": 121.588,
      "duration": 0.176,
      "velocity": 0.43,
      "hand": "left"
    },
    {
      "midi": 38,
      "time": 121.765,
      "duration": 0.176,
      "velocity": 0.73,
      "hand": "left"
    },
    {
      "midi": 42,
      "time": 121.765,
      "duration": 0.176,
      "velocity": 0.58,
      "hand": "left"
    },
    {
      "midi": 45,
      "time": 121.765,
      "duration": 0.353,
      "velocity": 0.86,
      "hand": "left"
    },
    {
      "midi": 49,
      "time": 121.765,
      "duration": 0.353,
      "velocity": 0.86,
      "hand": "left"
    },
    {
      "midi": 57,
      "time": 121.765,
      "duration": 0.353,
      "velocity": 0.79,
      "hand": "left"
    },
    {
      "midi": 61,
      "time": 121.765,
      "duration": 0.353,
      "velocity": 0.79,
      "hand": "right"
    },
    {
      "midi": 64,
      "time": 121.765,
      "duration": 0.353,
      "velocity": 0.83,
      "hand": "right"
    },
    {
      "midi": 42,
      "time": 122.118,
      "duration": 0.176,
      "velocity": 0.51,
      "hand": "left"
    },
    {
      "midi": 35,
      "time": 122.294,
      "duration": 0.176,
      "velocity": 0.58,
      "hand": "left"
    },
    {
      "midi": 38,
      "time": 122.294,
      "duration": 0.176,
      "velocity": 0.26,
      "hand": "left"
    },
    {
      "midi": 45,
      "time": 122.294,
      "duration": 0.176,
      "velocity": 0.86,
      "hand": "left"
    },
    {
      "midi": 49,
      "time": 122.294,
      "duration": 0.176,
      "velocity": 0.86,
      "hand": "left"
    },
    {
      "midi": 57,
      "time": 122.294,
      "duration": 0.176,
      "velocity": 0.79,
      "hand": "left"
    },
    {
      "midi": 61,
      "time": 122.294,
      "duration": 0.176,
      "velocity": 0.79,
      "hand": "right"
    },
    {
      "midi": 64,
      "time": 122.294,
      "duration": 0.176,
      "velocity": 0.83,
      "hand": "right"
    },
    {
      "midi": 35,
      "time": 122.471,
      "duration": 0.176,
      "velocity": 0.73,
      "hand": "left"
    },
    {
      "midi": 42,
      "time": 122.471,
      "duration": 0.176,
      "velocity": 0.65,
      "hand": "left"
    },
    {
      "midi": 45,
      "time": 122.471,
      "duration": 0.529,
      "velocity": 0.86,
      "hand": "left"
    },
    {
      "midi": 49,
      "time": 122.471,
      "duration": 0.529,
      "velocity": 0.86,
      "hand": "left"
    },
    {
      "midi": 57,
      "time": 122.471,
      "duration": 0.529,
      "velocity": 0.79,
      "hand": "left"
    },
    {
      "midi": 61,
      "time": 122.471,
      "duration": 0.529,
      "velocity": 0.79,
      "hand": "right"
    },
    {
      "midi": 64,
      "time": 122.471,
      "duration": 0.529,
      "velocity": 0.83,
      "hand": "right"
    },
    {
      "midi": 67,
      "time": 122.471,
      "duration": 0.353,
      "velocity": 0.83,
      "hand": "right"
    },
    {
      "midi": 42,
      "time": 122.824,
      "duration": 0.176,
      "velocity": 0.51,
      "hand": "left"
    },
    {
      "midi": 42,
      "time": 123,
      "duration": 0.176,
      "velocity": 0.43,
      "hand": "left"
    },
    {
      "midi": 64,
      "time": 123,
      "duration": 0.176,
      "velocity": 0.83,
      "hand": "right"
    },
    {
      "midi": 38,
      "time": 123.176,
      "duration": 0.176,
      "velocity": 0.73,
      "hand": "left"
    },
    {
      "midi": 42,
      "time": 123.176,
      "duration": 0.176,
      "velocity": 0.58,
      "hand": "left"
    },
    {
      "midi": 67,
      "time": 123.176,
      "duration": 0.353,
      "velocity": 0.83,
      "hand": "right"
    },
    {
      "midi": 35,
      "time": 123.529,
      "duration": 0.176,
      "velocity": 0.58,
      "hand": "left"
    },
    {
      "midi": 42,
      "time": 123.529,
      "duration": 0.176,
      "velocity": 0.51,
      "hand": "left"
    },
    {
      "midi": 42,
      "time": 123.706,
      "duration": 0.176,
      "velocity": 0.43,
      "hand": "left"
    },
    {
      "midi": 71,
      "time": 123.706,
      "duration": 0.176,
      "velocity": 0.83,
      "hand": "right"
    },
    {
      "midi": 35,
      "time": 123.882,
      "duration": 0.176,
      "velocity": 0.73,
      "hand": "left"
    },
    {
      "midi": 38,
      "time": 123.882,
      "duration": 0.176,
      "velocity": 0.86,
      "hand": "left"
    },
    {
      "midi": 42,
      "time": 123.882,
      "duration": 0.176,
      "velocity": 0.65,
      "hand": "left"
    },
    {
      "midi": 50,
      "time": 123.882,
      "duration": 0.176,
      "velocity": 0.79,
      "hand": "left"
    },
    {
      "midi": 62,
      "time": 123.882,
      "duration": 0.176,
      "velocity": 0.79,
      "hand": "right"
    },
    {
      "midi": 69,
      "time": 123.882,
      "duration": 0.882,
      "velocity": 0.83,
      "hand": "right"
    },
    {
      "midi": 38,
      "time": 124.059,
      "duration": 0.353,
      "velocity": 0.86,
      "hand": "left"
    },
    {
      "midi": 50,
      "time": 124.059,
      "duration": 0.353,
      "velocity": 0.79,
      "hand": "left"
    },
    {
      "midi": 62,
      "time": 124.059,
      "duration": 0.353,
      "velocity": 0.79,
      "hand": "right"
    },
    {
      "midi": 42,
      "time": 124.235,
      "duration": 0.176,
      "velocity": 0.51,
      "hand": "left"
    },
    {
      "midi": 42,
      "time": 124.412,
      "duration": 0.176,
      "velocity": 0.43,
      "hand": "left"
    },
    {
      "midi": 38,
      "time": 124.588,
      "duration": 0.353,
      "velocity": 0.86,
      "hand": "left"
    },
    {
      "midi": 38,
      "time": 124.588,
      "duration": 0.176,
      "velocity": 0.73,
      "hand": "left"
    },
    {
      "midi": 42,
      "time": 124.588,
      "duration": 0.176,
      "velocity": 0.58,
      "hand": "left"
    },
    {
      "midi": 50,
      "time": 124.588,
      "duration": 0.353,
      "velocity": 0.79,
      "hand": "left"
    },
    {
      "midi": 62,
      "time": 124.588,
      "duration": 0.353,
      "velocity": 0.79,
      "hand": "right"
    },
    {
      "midi": 35,
      "time": 124.941,
      "duration": 0.176,
      "velocity": 0.58,
      "hand": "left"
    },
    {
      "midi": 38,
      "time": 124.941,
      "duration": 0.176,
      "velocity": 0.86,
      "hand": "left"
    },
    {
      "midi": 42,
      "time": 124.941,
      "duration": 0.176,
      "velocity": 0.51,
      "hand": "left"
    },
    {
      "midi": 46,
      "time": 124.941,
      "duration": 0.176,
      "velocity": 0.52,
      "hand": "left"
    },
    {
      "midi": 50,
      "time": 124.941,
      "duration": 0.176,
      "velocity": 0.79,
      "hand": "left"
    },
    {
      "midi": 62,
      "time": 124.941,
      "duration": 0.176,
      "velocity": 0.79,
      "hand": "right"
    },
    {
      "midi": 35,
      "time": 125.118,
      "duration": 0.176,
      "velocity": 0.73,
      "hand": "left"
    },
    {
      "midi": 38,
      "time": 125.118,
      "duration": 0.529,
      "velocity": 0.86,
      "hand": "left"
    },
    {
      "midi": 42,
      "time": 125.118,
      "duration": 0.176,
      "velocity": 0.65,
      "hand": "left"
    },
    {
      "midi": 50,
      "time": 125.118,
      "duration": 0.529,
      "velocity": 0.79,
      "hand": "left"
    },
    {
      "midi": 62,
      "time": 125.118,
      "duration": 0.529,
      "velocity": 0.79,
      "hand": "right"
    },
    {
      "midi": 69,
      "time": 125.118,
      "duration": 0.529,
      "velocity": 0.83,
      "hand": "right"
    },
    {
      "midi": 35,
      "time": 125.471,
      "duration": 0.176,
      "velocity": 0.58,
      "hand": "left"
    },
    {
      "midi": 42,
      "time": 125.471,
      "duration": 0.176,
      "velocity": 0.51,
      "hand": "left"
    },
    {
      "midi": 42,
      "time": 125.647,
      "duration": 0.176,
      "velocity": 0.43,
      "hand": "left"
    },
    {
      "midi": 38,
      "time": 125.824,
      "duration": 0.176,
      "velocity": 0.73,
      "hand": "left"
    },
    {
      "midi": 42,
      "time": 125.824,
      "duration": 0.176,
      "velocity": 0.58,
      "hand": "left"
    },
    {
      "midi": 35,
      "time": 126.176,
      "duration": 0.176,
      "velocity": 0.58,
      "hand": "left"
    },
    {
      "midi": 42,
      "time": 126.176,
      "duration": 0.176,
      "velocity": 0.51,
      "hand": "left"
    },
    {
      "midi": 42,
      "time": 126.353,
      "duration": 0.176,
      "velocity": 0.43,
      "hand": "left"
    },
    {
      "midi": 35,
      "time": 126.529,
      "duration": 0.176,
      "velocity": 0.73,
      "hand": "left"
    },
    {
      "midi": 38,
      "time": 126.529,
      "duration": 0.529,
      "velocity": 0.86,
      "hand": "left"
    },
    {
      "midi": 42,
      "time": 126.529,
      "duration": 0.176,
      "velocity": 0.65,
      "hand": "left"
    },
    {
      "midi": 45,
      "time": 126.529,
      "duration": 0.529,
      "velocity": 0.86,
      "hand": "left"
    },
    {
      "midi": 50,
      "time": 126.529,
      "duration": 0.529,
      "velocity": 0.79,
      "hand": "left"
    },
    {
      "midi": 57,
      "time": 126.529,
      "duration": 0.529,
      "velocity": 0.79,
      "hand": "left"
    },
    {
      "midi": 66,
      "time": 126.529,
      "duration": 0.529,
      "velocity": 0.83,
      "hand": "right"
    },
    {
      "midi": 74,
      "time": 126.529,
      "duration": 0.529,
      "velocity": 0.83,
      "hand": "right"
    },
    {
      "midi": 42,
      "time": 126.882,
      "duration": 0.176,
      "velocity": 0.51,
      "hand": "left"
    },
    {
      "midi": 42,
      "time": 127.059,
      "duration": 0.176,
      "velocity": 0.43,
      "hand": "left"
    },
    {
      "midi": 38,
      "time": 127.235,
      "duration": 0.353,
      "velocity": 0.86,
      "hand": "left"
    },
    {
      "midi": 38,
      "time": 127.235,
      "duration": 0.176,
      "velocity": 0.73,
      "hand": "left"
    },
    {
      "midi": 42,
      "time": 127.235,
      "duration": 0.176,
      "velocity": 0.58,
      "hand": "left"
    },
    {
      "midi": 45,
      "time": 127.235,
      "duration": 0.353,
      "velocity": 0.86,
      "hand": "left"
    },
    {
      "midi": 50,
      "time": 127.235,
      "duration": 0.353,
      "velocity": 0.79,
      "hand": "left"
    },
    {
      "midi": 57,
      "time": 127.235,
      "duration": 0.353,
      "velocity": 0.79,
      "hand": "left"
    },
    {
      "midi": 66,
      "time": 127.235,
      "duration": 0.353,
      "velocity": 0.83,
      "hand": "right"
    },
    {
      "midi": 74,
      "time": 127.235,
      "duration": 0.353,
      "velocity": 0.83,
      "hand": "right"
    },
    {
      "midi": 42,
      "time": 127.588,
      "duration": 0.176,
      "velocity": 0.51,
      "hand": "left"
    },
    {
      "midi": 35,
      "time": 127.765,
      "duration": 0.176,
      "velocity": 0.58,
      "hand": "left"
    },
    {
      "midi": 38,
      "time": 127.765,
      "duration": 0.176,
      "velocity": 0.86,
      "hand": "left"
    },
    {
      "midi": 42,
      "time": 127.765,
      "duration": 0.176,
      "velocity": 0.43,
      "hand": "left"
    },
    {
      "midi": 45,
      "time": 127.765,
      "duration": 0.176,
      "velocity": 0.86,
      "hand": "left"
    },
    {
      "midi": 50,
      "time": 127.765,
      "duration": 0.176,
      "velocity": 0.79,
      "hand": "left"
    },
    {
      "midi": 57,
      "time": 127.765,
      "duration": 0.176,
      "velocity": 0.79,
      "hand": "left"
    },
    {
      "midi": 66,
      "time": 127.765,
      "duration": 0.176,
      "velocity": 0.83,
      "hand": "right"
    },
    {
      "midi": 74,
      "time": 127.765,
      "duration": 0.176,
      "velocity": 0.83,
      "hand": "right"
    },
    {
      "midi": 35,
      "time": 127.941,
      "duration": 0.176,
      "velocity": 0.73,
      "hand": "left"
    },
    {
      "midi": 42,
      "time": 127.941,
      "duration": 0.529,
      "velocity": 0.86,
      "hand": "left"
    },
    {
      "midi": 42,
      "time": 127.941,
      "duration": 0.176,
      "velocity": 0.65,
      "hand": "left"
    },
    {
      "midi": 45,
      "time": 127.941,
      "duration": 0.529,
      "velocity": 0.86,
      "hand": "left"
    },
    {
      "midi": 54,
      "time": 127.941,
      "duration": 0.529,
      "velocity": 0.79,
      "hand": "left"
    },
    {
      "midi": 57,
      "time": 127.941,
      "duration": 0.529,
      "velocity": 0.79,
      "hand": "left"
    },
    {
      "midi": 69,
      "time": 127.941,
      "duration": 0.529,
      "velocity": 0.83,
      "hand": "right"
    },
    {
      "midi": 74,
      "time": 127.941,
      "duration": 0.529,
      "velocity": 0.83,
      "hand": "right"
    },
    {
      "midi": 46,
      "time": 128.294,
      "duration": 0.176,
      "velocity": 0.51,
      "hand": "left"
    },
    {
      "midi": 38,
      "time": 128.647,
      "duration": 0.176,
      "velocity": 0.73,
      "hand": "left"
    },
    {
      "midi": 42,
      "time": 128.647,
      "duration": 0.353,
      "velocity": 0.86,
      "hand": "left"
    },
    {
      "midi": 42,
      "time": 128.647,
      "duration": 0.176,
      "velocity": 0.58,
      "hand": "left"
    },
    {
      "midi": 50,
      "time": 128.647,
      "duration": 0.353,
      "velocity": 0.86,
      "hand": "left"
    },
    {
      "midi": 54,
      "time": 128.647,
      "duration": 0.353,
      "velocity": 0.79,
      "hand": "left"
    },
    {
      "midi": 62,
      "time": 128.647,
      "duration": 0.353,
      "velocity": 0.79,
      "hand": "right"
    },
    {
      "midi": 69,
      "time": 128.647,
      "duration": 0.353,
      "velocity": 0.83,
      "hand": "right"
    },
    {
      "midi": 74,
      "time": 128.647,
      "duration": 0.353,
      "velocity": 0.83,
      "hand": "right"
    },
    {
      "midi": 35,
      "time": 129,
      "duration": 0.176,
      "velocity": 0.58,
      "hand": "left"
    },
    {
      "midi": 42,
      "time": 129,
      "duration": 0.176,
      "velocity": 0.51,
      "hand": "left"
    },
    {
      "midi": 42,
      "time": 129.176,
      "duration": 0.176,
      "velocity": 0.86,
      "hand": "left"
    },
    {
      "midi": 50,
      "time": 129.176,
      "duration": 0.176,
      "velocity": 0.86,
      "hand": "left"
    },
    {
      "midi": 54,
      "time": 129.176,
      "duration": 0.176,
      "velocity": 0.79,
      "hand": "left"
    },
    {
      "midi": 62,
      "time": 129.176,
      "duration": 0.176,
      "velocity": 0.79,
      "hand": "right"
    },
    {
      "midi": 69,
      "time": 129.176,
      "duration": 0.176,
      "velocity": 0.83,
      "hand": "right"
    },
    {
      "midi": 73,
      "time": 129.176,
      "duration": 0.176,
      "velocity": 0.83,
      "hand": "right"
    },
    {
      "midi": 35,
      "time": 129.353,
      "duration": 0.176,
      "velocity": 0.73,
      "hand": "left"
    },
    {
      "midi": 42,
      "time": 129.353,
      "duration": 0.176,
      "velocity": 0.65,
      "hand": "left"
    },
    {
      "midi": 43,
      "time": 129.353,
      "duration": 0.529,
      "velocity": 0.86,
      "hand": "left"
    },
    {
      "midi": 50,
      "time": 129.353,
      "duration": 0.529,
      "velocity": 0.86,
      "hand": "left"
    },
    {
      "midi": 55,
      "time": 129.353,
      "duration": 0.529,
      "velocity": 0.79,
      "hand": "left"
    },
    {
      "midi": 62,
      "time": 129.353,
      "duration": 0.529,
      "velocity": 0.79,
      "hand": "right"
    },
    {
      "midi": 67,
      "time": 129.353,
      "duration": 0.529,
      "velocity": 0.83,
      "hand": "right"
    },
    {
      "midi": 71,
      "time": 129.353,
      "duration": 0.882,
      "velocity": 0.83,
      "hand": "right"
    },
    {
      "midi": 42,
      "time": 129.706,
      "duration": 0.176,
      "velocity": 0.51,
      "hand": "left"
    },
    {
      "midi": 42,
      "time": 129.882,
      "duration": 0.176,
      "velocity": 0.43,
      "hand": "left"
    },
    {
      "midi": 38,
      "time": 130.059,
      "duration": 0.176,
      "velocity": 0.73,
      "hand": "left"
    },
    {
      "midi": 42,
      "time": 130.059,
      "duration": 0.176,
      "velocity": 0.58,
      "hand": "left"
    },
    {
      "midi": 43,
      "time": 130.059,
      "duration": 0.353,
      "velocity": 0.86,
      "hand": "left"
    },
    {
      "midi": 50,
      "time": 130.059,
      "duration": 0.353,
      "velocity": 0.86,
      "hand": "left"
    },
    {
      "midi": 55,
      "time": 130.059,
      "duration": 0.353,
      "velocity": 0.79,
      "hand": "left"
    },
    {
      "midi": 62,
      "time": 130.059,
      "duration": 0.353,
      "velocity": 0.79,
      "hand": "right"
    },
    {
      "midi": 67,
      "time": 130.059,
      "duration": 0.353,
      "velocity": 0.83,
      "hand": "right"
    },
    {
      "midi": 42,
      "time": 130.412,
      "duration": 0.176,
      "velocity": 0.51,
      "hand": "left"
    },
    {
      "midi": 35,
      "time": 130.588,
      "duration": 0.176,
      "velocity": 0.58,
      "hand": "left"
    },
    {
      "midi": 42,
      "time": 130.588,
      "duration": 0.176,
      "velocity": 0.43,
      "hand": "left"
    },
    {
      "midi": 43,
      "time": 130.588,
      "duration": 0.176,
      "velocity": 0.86,
      "hand": "left"
    },
    {
      "midi": 50,
      "time": 130.588,
      "duration": 0.176,
      "velocity": 0.86,
      "hand": "left"
    },
    {
      "midi": 55,
      "time": 130.588,
      "duration": 0.176,
      "velocity": 0.79,
      "hand": "left"
    },
    {
      "midi": 62,
      "time": 130.588,
      "duration": 0.176,
      "velocity": 0.79,
      "hand": "right"
    },
    {
      "midi": 67,
      "time": 130.588,
      "duration": 0.176,
      "velocity": 0.83,
      "hand": "right"
    },
    {
      "midi": 35,
      "time": 130.765,
      "duration": 0.176,
      "velocity": 0.73,
      "hand": "left"
    },
    {
      "midi": 42,
      "time": 130.765,
      "duration": 0.176,
      "velocity": 0.65,
      "hand": "left"
    },
    {
      "midi": 47,
      "time": 130.765,
      "duration": 0.529,
      "velocity": 0.86,
      "hand": "left"
    },
    {
      "midi": 50,
      "time": 130.765,
      "duration": 0.529,
      "velocity": 0.86,
      "hand": "left"
    },
    {
      "midi": 59,
      "time": 130.765,
      "duration": 0.529,
      "velocity": 0.79,
      "hand": "left"
    },
    {
      "midi": 62,
      "time": 130.765,
      "duration": 0.529,
      "velocity": 0.79,
      "hand": "right"
    },
    {
      "midi": 67,
      "time": 130.765,
      "duration": 0.529,
      "velocity": 0.83,
      "hand": "right"
    },
    {
      "midi": 42,
      "time": 131.118,
      "duration": 0.176,
      "velocity": 0.51,
      "hand": "left"
    },
    {
      "midi": 42,
      "time": 131.294,
      "duration": 0.176,
      "velocity": 0.43,
      "hand": "left"
    },
    {
      "midi": 38,
      "time": 131.471,
      "duration": 0.176,
      "velocity": 0.73,
      "hand": "left"
    },
    {
      "midi": 42,
      "time": 131.471,
      "duration": 0.176,
      "velocity": 0.58,
      "hand": "left"
    },
    {
      "midi": 43,
      "time": 131.471,
      "duration": 0.353,
      "velocity": 0.86,
      "hand": "left"
    },
    {
      "midi": 50,
      "time": 131.471,
      "duration": 0.353,
      "velocity": 0.86,
      "hand": "left"
    },
    {
      "midi": 55,
      "time": 131.471,
      "duration": 0.353,
      "velocity": 0.79,
      "hand": "left"
    },
    {
      "midi": 62,
      "time": 131.471,
      "duration": 0.353,
      "velocity": 0.79,
      "hand": "right"
    },
    {
      "midi": 67,
      "time": 131.471,
      "duration": 0.353,
      "velocity": 0.83,
      "hand": "right"
    },
    {
      "midi": 71,
      "time": 131.471,
      "duration": 0.529,
      "velocity": 0.83,
      "hand": "right"
    },
    {
      "midi": 35,
      "time": 131.824,
      "duration": 0.176,
      "velocity": 0.58,
      "hand": "left"
    },
    {
      "midi": 42,
      "time": 131.824,
      "duration": 0.176,
      "velocity": 0.51,
      "hand": "left"
    },
    {
      "midi": 42,
      "time": 132,
      "duration": 0.176,
      "velocity": 0.43,
      "hand": "left"
    },
    {
      "midi": 43,
      "time": 132,
      "duration": 0.176,
      "velocity": 0.86,
      "hand": "left"
    },
    {
      "midi": 50,
      "time": 132,
      "duration": 0.176,
      "velocity": 0.86,
      "hand": "left"
    },
    {
      "midi": 55,
      "time": 132,
      "duration": 0.176,
      "velocity": 0.79,
      "hand": "left"
    },
    {
      "midi": 62,
      "time": 132,
      "duration": 0.176,
      "velocity": 0.79,
      "hand": "right"
    },
    {
      "midi": 67,
      "time": 132,
      "duration": 0.176,
      "velocity": 0.83,
      "hand": "right"
    },
    {
      "midi": 35,
      "time": 132.176,
      "duration": 0.176,
      "velocity": 0.73,
      "hand": "left"
    },
    {
      "midi": 42,
      "time": 132.176,
      "duration": 0.176,
      "velocity": 0.65,
      "hand": "left"
    },
    {
      "midi": 45,
      "time": 132.176,
      "duration": 0.529,
      "velocity": 0.86,
      "hand": "left"
    },
    {
      "midi": 50,
      "time": 132.176,
      "duration": 0.529,
      "velocity": 0.86,
      "hand": "left"
    },
    {
      "midi": 57,
      "time": 132.176,
      "duration": 0.529,
      "velocity": 0.79,
      "hand": "left"
    },
    {
      "midi": 62,
      "time": 132.176,
      "duration": 0.529,
      "velocity": 0.79,
      "hand": "right"
    },
    {
      "midi": 66,
      "time": 132.176,
      "duration": 0.529,
      "velocity": 0.83,
      "hand": "right"
    },
    {
      "midi": 69,
      "time": 132.176,
      "duration": 0.529,
      "velocity": 0.83,
      "hand": "right"
    },
    {
      "midi": 42,
      "time": 132.529,
      "duration": 0.176,
      "velocity": 0.51,
      "hand": "left"
    },
    {
      "midi": 42,
      "time": 132.706,
      "duration": 0.176,
      "velocity": 0.43,
      "hand": "left"
    },
    {
      "midi": 33,
      "time": 132.882,
      "duration": 0.353,
      "velocity": 0.86,
      "hand": "left"
    },
    {
      "midi": 38,
      "time": 132.882,
      "duration": 0.176,
      "velocity": 0.73,
      "hand": "left"
    },
    {
      "midi": 42,
      "time": 132.882,
      "duration": 0.176,
      "velocity": 0.58,
      "hand": "left"
    },
    {
      "midi": 45,
      "time": 132.882,
      "duration": 0.353,
      "velocity": 0.79,
      "hand": "left"
    },
    {
      "midi": 57,
      "time": 132.882,
      "duration": 0.353,
      "velocity": 0.79,
      "hand": "left"
    },
    {
      "midi": 62,
      "time": 132.882,
      "duration": 0.353,
      "velocity": 0.83,
      "hand": "right"
    },
    {
      "midi": 66,
      "time": 132.882,
      "duration": 0.353,
      "velocity": 0.83,
      "hand": "right"
    },
    {
      "midi": 42,
      "time": 133.235,
      "duration": 0.176,
      "velocity": 0.51,
      "hand": "left"
    },
    {
      "midi": 35,
      "time": 133.412,
      "duration": 0.176,
      "velocity": 0.86,
      "hand": "left"
    },
    {
      "midi": 42,
      "time": 133.412,
      "duration": 0.176,
      "velocity": 0.86,
      "hand": "left"
    },
    {
      "midi": 47,
      "time": 133.412,
      "duration": 0.176,
      "velocity": 0.79,
      "hand": "left"
    },
    {
      "midi": 54,
      "time": 133.412,
      "duration": 0.176,
      "velocity": 0.79,
      "hand": "left"
    },
    {
      "midi": 62,
      "time": 133.412,
      "duration": 0.176,
      "velocity": 0.83,
      "hand": "right"
    },
    {
      "midi": 33,
      "time": 133.588,
      "duration": 0.529,
      "velocity": 0.86,
      "hand": "left"
    },
    {
      "midi": 35,
      "time": 133.588,
      "duration": 0.176,
      "velocity": 0.73,
      "hand": "left"
    },
    {
      "midi": 42,
      "time": 133.588,
      "duration": 0.176,
      "velocity": 0.65,
      "hand": "left"
    },
    {
      "midi": 45,
      "time": 133.588,
      "duration": 0.529,
      "velocity": 0.79,
      "hand": "left"
    },
    {
      "midi": 57,
      "time": 133.588,
      "duration": 0.529,
      "velocity": 0.79,
      "hand": "left"
    },
    {
      "midi": 62,
      "time": 133.588,
      "duration": 0.529,
      "velocity": 0.83,
      "hand": "right"
    },
    {
      "midi": 64,
      "time": 133.588,
      "duration": 0.529,
      "velocity": 0.83,
      "hand": "right"
    },
    {
      "midi": 42,
      "time": 133.941,
      "duration": 0.176,
      "velocity": 0.51,
      "hand": "left"
    },
    {
      "midi": 46,
      "time": 134.118,
      "duration": 0.176,
      "velocity": 0.58,
      "hand": "left"
    },
    {
      "midi": 33,
      "time": 134.294,
      "duration": 0.353,
      "velocity": 0.86,
      "hand": "left"
    },
    {
      "midi": 38,
      "time": 134.294,
      "duration": 0.176,
      "velocity": 0.73,
      "hand": "left"
    },
    {
      "midi": 42,
      "time": 134.294,
      "duration": 0.176,
      "velocity": 0.58,
      "hand": "left"
    },
    {
      "midi": 45,
      "time": 134.294,
      "duration": 0.353,
      "velocity": 0.79,
      "hand": "left"
    },
    {
      "midi": 57,
      "time": 134.294,
      "duration": 0.353,
      "velocity": 0.79,
      "hand": "left"
    },
    {
      "midi": 61,
      "time": 134.294,
      "duration": 0.353,
      "velocity": 0.83,
      "hand": "right"
    },
    {
      "midi": 66,
      "time": 134.294,
      "duration": 0.353,
      "velocity": 0.83,
      "hand": "right"
    },
    {
      "midi": 35,
      "time": 134.647,
      "duration": 0.176,
      "velocity": 0.58,
      "hand": "left"
    },
    {
      "midi": 42,
      "time": 134.647,
      "duration": 0.176,
      "velocity": 0.51,
      "hand": "left"
    },
    {
      "midi": 33,
      "time": 134.824,
      "duration": 0.176,
      "velocity": 0.86,
      "hand": "left"
    },
    {
      "midi": 42,
      "time": 134.824,
      "duration": 0.176,
      "velocity": 0.43,
      "hand": "left"
    },
    {
      "midi": 43,
      "time": 134.824,
      "duration": 0.176,
      "velocity": 0.86,
      "hand": "left"
    },
    {
      "midi": 45,
      "time": 134.824,
      "duration": 0.176,
      "velocity": 0.79,
      "hand": "left"
    },
    {
      "midi": 55,
      "time": 134.824,
      "duration": 0.176,
      "velocity": 0.79,
      "hand": "left"
    },
    {
      "midi": 61,
      "time": 134.824,
      "duration": 0.176,
      "velocity": 0.83,
      "hand": "right"
    },
    {
      "midi": 64,
      "time": 134.824,
      "duration": 0.176,
      "velocity": 0.83,
      "hand": "right"
    },
    {
      "midi": 35,
      "time": 135,
      "duration": 0.176,
      "velocity": 0.73,
      "hand": "left"
    },
    {
      "midi": 38,
      "time": 135,
      "duration": 1.588,
      "velocity": 0.86,
      "hand": "left"
    },
    {
      "midi": 42,
      "time": 135,
      "duration": 0.176,
      "velocity": 0.65,
      "hand": "left"
    },
    {
      "midi": 50,
      "time": 135,
      "duration": 1.588,
      "velocity": 0.79,
      "hand": "left"
    },
    {
      "midi": 62,
      "time": 135,
      "duration": 1.588,
      "velocity": 0.83,
      "hand": "right"
    },
    {
      "midi": 62,
      "time": 135,
      "duration": 2.294,
      "velocity": 0.86,
      "hand": "right"
    },
    {
      "midi": 42,
      "time": 135.353,
      "duration": 0.176,
      "velocity": 0.51,
      "hand": "left"
    },
    {
      "midi": 37,
      "time": 135.706,
      "duration": 0.176,
      "velocity": 0.73,
      "hand": "left"
    },
    {
      "midi": 42,
      "time": 135.706,
      "duration": 0.176,
      "velocity": 0.58,
      "hand": "left"
    },
    {
      "midi": 43,
      "time": 135.706,
      "duration": 0.529,
      "velocity": 0.86,
      "hand": "left"
    },
    {
      "midi": 55,
      "time": 135.706,
      "duration": 0.529,
      "velocity": 0.79,
      "hand": "left"
    },
    {
      "midi": 59,
      "time": 135.706,
      "duration": 0.529,
      "velocity": 0.83,
      "hand": "left"
    },
    {
      "midi": 35,
      "time": 136.059,
      "duration": 0.176,
      "velocity": 0.58,
      "hand": "left"
    },
    {
      "midi": 42,
      "time": 136.059,
      "duration": 0.176,
      "velocity": 0.51,
      "hand": "left"
    },
    {
      "midi": 35,
      "time": 136.412,
      "duration": 0.176,
      "velocity": 0.73,
      "hand": "left"
    },
    {
      "midi": 38,
      "time": 136.412,
      "duration": 0.529,
      "velocity": 0.86,
      "hand": "left"
    },
    {
      "midi": 42,
      "time": 136.412,
      "duration": 0.529,
      "velocity": 0.86,
      "hand": "left"
    },
    {
      "midi": 42,
      "time": 136.412,
      "duration": 0.176,
      "velocity": 0.65,
      "hand": "left"
    },
    {
      "midi": 50,
      "time": 136.412,
      "duration": 0.529,
      "velocity": 0.79,
      "hand": "left"
    },
    {
      "midi": 54,
      "time": 136.412,
      "duration": 0.529,
      "velocity": 0.79,
      "hand": "left"
    },
    {
      "midi": 57,
      "time": 136.412,
      "duration": 0.529,
      "velocity": 0.83,
      "hand": "left"
    },
    {
      "midi": 62,
      "time": 136.412,
      "duration": 0.529,
      "velocity": 0.83,
      "hand": "right"
    },
    {
      "midi": 38,
      "time": 136.765,
      "duration": 0.176,
      "velocity": 0.73,
      "hand": "left"
    },
    {
      "midi": 42,
      "time": 136.765,
      "duration": 0.176,
      "velocity": 0.51,
      "hand": "left"
    },
    {
      "midi": 38,
      "time": 136.941,
      "duration": 0.176,
      "velocity": 0.58,
      "hand": "left"
    },
    {
      "midi": 38,
      "time": 137.118,
      "duration": 0.176,
      "velocity": 0.83,
      "hand": "left"
    },
    {
      "midi": 42,
      "time": 137.118,
      "duration": 0.176,
      "velocity": 0.58,
      "hand": "left"
    },
    {
      "midi": 35,
      "time": 137.471,
      "duration": 0.176,
      "velocity": 0.58,
      "hand": "left"
    },
    {
      "midi": 46,
      "time": 137.471,
      "duration": 0.176,
      "velocity": 0.65,
      "hand": "left"
    },
    {
      "midi": 35,
      "time": 137.824,
      "duration": 0.176,
      "velocity": 0.73,
      "hand": "left"
    },
    {
      "midi": 38,
      "time": 137.824,
      "duration": 0.529,
      "velocity": 0.86,
      "hand": "left"
    },
    {
      "midi": 42,
      "time": 137.824,
      "duration": 0.176,
      "velocity": 0.65,
      "hand": "left"
    },
    {
      "midi": 45,
      "time": 137.824,
      "duration": 0.529,
      "velocity": 0.86,
      "hand": "left"
    },
    {
      "midi": 49,
      "time": 137.824,
      "duration": 0.176,
      "velocity": 0.65,
      "hand": "left"
    },
    {
      "midi": 50,
      "time": 137.824,
      "duration": 0.529,
      "velocity": 0.79,
      "hand": "left"
    },
    {
      "midi": 57,
      "time": 137.824,
      "duration": 0.529,
      "velocity": 0.79,
      "hand": "left"
    },
    {
      "midi": 62,
      "time": 137.824,
      "duration": 0.529,
      "velocity": 0.83,
      "hand": "right"
    },
    {
      "midi": 66,
      "time": 137.824,
      "duration": 0.529,
      "velocity": 0.83,
      "hand": "right"
    },
    {
      "midi": 42,
      "time": 138.176,
      "duration": 0.176,
      "velocity": 0.51,
      "hand": "left"
    },
    {
      "midi": 37,
      "time": 138.529,
      "duration": 0.176,
      "velocity": 0.73,
      "hand": "left"
    },
    {
      "midi": 38,
      "time": 138.529,
      "duration": 0.353,
      "velocity": 0.86,
      "hand": "left"
    },
    {
      "midi": 42,
      "time": 138.529,
      "duration": 0.176,
      "velocity": 0.58,
      "hand": "left"
    },
    {
      "midi": 45,
      "time": 138.529,
      "duration": 0.353,
      "velocity": 0.86,
      "hand": "left"
    },
    {
      "midi": 50,
      "time": 138.529,
      "duration": 0.353,
      "velocity": 0.79,
      "hand": "left"
    },
    {
      "midi": 57,
      "time": 138.529,
      "duration": 0.353,
      "velocity": 0.79,
      "hand": "left"
    },
    {
      "midi": 62,
      "time": 138.529,
      "duration": 0.353,
      "velocity": 0.83,
      "hand": "right"
    },
    {
      "midi": 66,
      "time": 138.529,
      "duration": 0.353,
      "velocity": 0.83,
      "hand": "right"
    },
    {
      "midi": 35,
      "time": 138.882,
      "duration": 0.176,
      "velocity": 0.58,
      "hand": "left"
    },
    {
      "midi": 42,
      "time": 138.882,
      "duration": 0.176,
      "velocity": 0.51,
      "hand": "left"
    },
    {
      "midi": 38,
      "time": 139.059,
      "duration": 0.176,
      "velocity": 0.86,
      "hand": "left"
    },
    {
      "midi": 44,
      "time": 139.059,
      "duration": 0.176,
      "velocity": 0.86,
      "hand": "left"
    },
    {
      "midi": 50,
      "time": 139.059,
      "duration": 0.176,
      "velocity": 0.79,
      "hand": "left"
    },
    {
      "midi": 56,
      "time": 139.059,
      "duration": 0.176,
      "velocity": 0.79,
      "hand": "left"
    },
    {
      "midi": 62,
      "time": 139.059,
      "duration": 0.176,
      "velocity": 0.83,
      "hand": "right"
    },
    {
      "midi": 65,
      "time": 139.059,
      "duration": 0.176,
      "velocity": 0.83,
      "hand": "right"
    },
    {
      "midi": 35,
      "time": 139.235,
      "duration": 0.176,
      "velocity": 0.73,
      "hand": "left"
    },
    {
      "midi": 38,
      "time": 139.235,
      "duration": 0.529,
      "velocity": 0.86,
      "hand": "left"
    },
    {
      "midi": 42,
      "time": 139.235,
      "duration": 0.176,
      "velocity": 0.65,
      "hand": "left"
    },
    {
      "midi": 45,
      "time": 139.235,
      "duration": 0.529,
      "velocity": 0.86,
      "hand": "left"
    },
    {
      "midi": 50,
      "time": 139.235,
      "duration": 0.529,
      "velocity": 0.79,
      "hand": "left"
    },
    {
      "midi": 57,
      "time": 139.235,
      "duration": 0.529,
      "velocity": 0.79,
      "hand": "left"
    },
    {
      "midi": 62,
      "time": 139.235,
      "duration": 0.529,
      "velocity": 0.83,
      "hand": "right"
    },
    {
      "midi": 66,
      "time": 139.235,
      "duration": 0.529,
      "velocity": 0.83,
      "hand": "right"
    },
    {
      "midi": 42,
      "time": 139.588,
      "duration": 0.176,
      "velocity": 0.51,
      "hand": "left"
    },
    {
      "midi": 37,
      "time": 139.941,
      "duration": 0.176,
      "velocity": 0.73,
      "hand": "left"
    },
    {
      "midi": 38,
      "time": 139.941,
      "duration": 0.353,
      "velocity": 0.86,
      "hand": "left"
    },
    {
      "midi": 42,
      "time": 139.941,
      "duration": 0.176,
      "velocity": 0.58,
      "hand": "left"
    },
    {
      "midi": 45,
      "time": 139.941,
      "duration": 0.353,
      "velocity": 0.86,
      "hand": "left"
    },
    {
      "midi": 50,
      "time": 139.941,
      "duration": 0.353,
      "velocity": 0.79,
      "hand": "left"
    },
    {
      "midi": 57,
      "time": 139.941,
      "duration": 0.353,
      "velocity": 0.79,
      "hand": "left"
    },
    {
      "midi": 62,
      "time": 139.941,
      "duration": 0.353,
      "velocity": 0.83,
      "hand": "right"
    },
    {
      "midi": 66,
      "time": 139.941,
      "duration": 0.353,
      "velocity": 0.83,
      "hand": "right"
    },
    {
      "midi": 35,
      "time": 140.294,
      "duration": 0.176,
      "velocity": 0.58,
      "hand": "left"
    },
    {
      "midi": 42,
      "time": 140.294,
      "duration": 0.176,
      "velocity": 0.51,
      "hand": "left"
    },
    {
      "midi": 38,
      "time": 140.471,
      "duration": 0.176,
      "velocity": 0.86,
      "hand": "left"
    },
    {
      "midi": 45,
      "time": 140.471,
      "duration": 0.176,
      "velocity": 0.86,
      "hand": "left"
    },
    {
      "midi": 50,
      "time": 140.471,
      "duration": 0.176,
      "velocity": 0.79,
      "hand": "left"
    },
    {
      "midi": 57,
      "time": 140.471,
      "duration": 0.176,
      "velocity": 0.79,
      "hand": "left"
    },
    {
      "midi": 64,
      "time": 140.471,
      "duration": 0.176,
      "velocity": 0.83,
      "hand": "right"
    },
    {
      "midi": 67,
      "time": 140.471,
      "duration": 0.176,
      "velocity": 0.83,
      "hand": "right"
    },
    {
      "midi": 35,
      "time": 140.647,
      "duration": 0.176,
      "velocity": 0.73,
      "hand": "left"
    },
    {
      "midi": 38,
      "time": 140.647,
      "duration": 0.882,
      "velocity": 0.86,
      "hand": "left"
    },
    {
      "midi": 42,
      "time": 140.647,
      "duration": 0.176,
      "velocity": 0.65,
      "hand": "left"
    },
    {
      "midi": 50,
      "time": 140.647,
      "duration": 0.882,
      "velocity": 0.79,
      "hand": "left"
    },
    {
      "midi": 62,
      "time": 140.647,
      "duration": 0.882,
      "velocity": 0.79,
      "hand": "right"
    },
    {
      "midi": 66,
      "time": 140.647,
      "duration": 0.882,
      "velocity": 0.83,
      "hand": "right"
    },
    {
      "midi": 69,
      "time": 140.647,
      "duration": 0.882,
      "velocity": 0.83,
      "hand": "right"
    },
    {
      "midi": 42,
      "time": 141,
      "duration": 0.176,
      "velocity": 0.51,
      "hand": "left"
    },
    {
      "midi": 37,
      "time": 141.353,
      "duration": 0.176,
      "velocity": 0.73,
      "hand": "left"
    },
    {
      "midi": 42,
      "time": 141.353,
      "duration": 0.176,
      "velocity": 0.58,
      "hand": "left"
    },
    {
      "midi": 35,
      "time": 141.706,
      "duration": 0.176,
      "velocity": 0.58,
      "hand": "left"
    },
    {
      "midi": 42,
      "time": 141.706,
      "duration": 0.176,
      "velocity": 0.51,
      "hand": "left"
    },
    {
      "midi": 35,
      "time": 142.059,
      "duration": 0.176,
      "velocity": 0.73,
      "hand": "left"
    },
    {
      "midi": 38,
      "time": 142.059,
      "duration": 0.529,
      "velocity": 0.86,
      "hand": "left"
    },
    {
      "midi": 42,
      "time": 142.059,
      "duration": 0.176,
      "velocity": 0.65,
      "hand": "left"
    },
    {
      "midi": 50,
      "time": 142.059,
      "duration": 0.529,
      "velocity": 0.79,
      "hand": "left"
    },
    {
      "midi": 62,
      "time": 142.059,
      "duration": 0.529,
      "velocity": 0.79,
      "hand": "right"
    },
    {
      "midi": 66,
      "time": 142.059,
      "duration": 0.529,
      "velocity": 0.83,
      "hand": "right"
    },
    {
      "midi": 69,
      "time": 142.059,
      "duration": 0.529,
      "velocity": 0.83,
      "hand": "right"
    },
    {
      "midi": 35,
      "time": 142.412,
      "duration": 0.176,
      "velocity": 0.58,
      "hand": "left"
    },
    {
      "midi": 42,
      "time": 142.412,
      "duration": 0.176,
      "velocity": 0.51,
      "hand": "left"
    },
    {
      "midi": 37,
      "time": 142.765,
      "duration": 0.176,
      "velocity": 0.73,
      "hand": "left"
    },
    {
      "midi": 38,
      "time": 142.765,
      "duration": 0.353,
      "velocity": 0.86,
      "hand": "left"
    },
    {
      "midi": 42,
      "time": 142.765,
      "duration": 0.176,
      "velocity": 0.58,
      "hand": "left"
    },
    {
      "midi": 50,
      "time": 142.765,
      "duration": 0.353,
      "velocity": 0.79,
      "hand": "left"
    },
    {
      "midi": 62,
      "time": 142.765,
      "duration": 0.353,
      "velocity": 0.79,
      "hand": "right"
    },
    {
      "midi": 66,
      "time": 142.765,
      "duration": 0.353,
      "velocity": 0.83,
      "hand": "right"
    },
    {
      "midi": 69,
      "time": 142.765,
      "duration": 0.353,
      "velocity": 0.83,
      "hand": "right"
    },
    {
      "midi": 35,
      "time": 143.118,
      "duration": 0.176,
      "velocity": 0.58,
      "hand": "left"
    },
    {
      "midi": 42,
      "time": 143.118,
      "duration": 0.176,
      "velocity": 0.51,
      "hand": "left"
    },
    {
      "midi": 38,
      "time": 143.294,
      "duration": 0.176,
      "velocity": 0.86,
      "hand": "left"
    },
    {
      "midi": 42,
      "time": 143.294,
      "duration": 0.176,
      "velocity": 0.43,
      "hand": "left"
    },
    {
      "midi": 45,
      "time": 143.294,
      "duration": 0.176,
      "velocity": 0.86,
      "hand": "left"
    },
    {
      "midi": 50,
      "time": 143.294,
      "duration": 0.176,
      "velocity": 0.79,
      "hand": "left"
    },
    {
      "midi": 57,
      "time": 143.294,
      "duration": 0.176,
      "velocity": 0.79,
      "hand": "left"
    },
    {
      "midi": 62,
      "time": 143.294,
      "duration": 0.176,
      "velocity": 0.83,
      "hand": "right"
    },
    {
      "midi": 66,
      "time": 143.294,
      "duration": 0.176,
      "velocity": 0.83,
      "hand": "right"
    },
    {
      "midi": 33,
      "time": 143.471,
      "duration": 0.529,
      "velocity": 0.86,
      "hand": "left"
    },
    {
      "midi": 35,
      "time": 143.471,
      "duration": 0.176,
      "velocity": 0.73,
      "hand": "left"
    },
    {
      "midi": 42,
      "time": 143.471,
      "duration": 0.176,
      "velocity": 0.65,
      "hand": "left"
    },
    {
      "midi": 45,
      "time": 143.471,
      "duration": 0.529,
      "velocity": 0.79,
      "hand": "left"
    },
    {
      "midi": 57,
      "time": 143.471,
      "duration": 0.529,
      "velocity": 0.79,
      "hand": "left"
    },
    {
      "midi": 61,
      "time": 143.471,
      "duration": 0.529,
      "velocity": 0.83,
      "hand": "right"
    },
    {
      "midi": 64,
      "time": 143.471,
      "duration": 0.529,
      "velocity": 0.83,
      "hand": "right"
    },
    {
      "midi": 42,
      "time": 143.824,
      "duration": 0.176,
      "velocity": 0.51,
      "hand": "left"
    },
    {
      "midi": 33,
      "time": 144.176,
      "duration": 0.529,
      "velocity": 0.86,
      "hand": "left"
    },
    {
      "midi": 37,
      "time": 144.176,
      "duration": 0.176,
      "velocity": 0.73,
      "hand": "left"
    },
    {
      "midi": 42,
      "time": 144.176,
      "duration": 0.176,
      "velocity": 0.58,
      "hand": "left"
    },
    {
      "midi": 45,
      "time": 144.176,
      "duration": 0.529,
      "velocity": 0.79,
      "hand": "left"
    },
    {
      "midi": 57,
      "time": 144.176,
      "duration": 0.529,
      "velocity": 0.79,
      "hand": "left"
    },
    {
      "midi": 61,
      "time": 144.176,
      "duration": 0.529,
      "velocity": 0.83,
      "hand": "right"
    },
    {
      "midi": 64,
      "time": 144.176,
      "duration": 0.529,
      "velocity": 0.83,
      "hand": "right"
    },
    {
      "midi": 35,
      "time": 144.529,
      "duration": 0.176,
      "velocity": 0.58,
      "hand": "left"
    },
    {
      "midi": 42,
      "time": 144.529,
      "duration": 0.176,
      "velocity": 0.51,
      "hand": "left"
    },
    {
      "midi": 35,
      "time": 144.882,
      "duration": 0.176,
      "velocity": 0.73,
      "hand": "left"
    },
    {
      "midi": 38,
      "time": 144.882,
      "duration": 0.529,
      "velocity": 0.86,
      "hand": "left"
    },
    {
      "midi": 42,
      "time": 144.882,
      "duration": 0.176,
      "velocity": 0.65,
      "hand": "left"
    },
    {
      "midi": 45,
      "time": 144.882,
      "duration": 0.529,
      "velocity": 0.86,
      "hand": "left"
    },
    {
      "midi": 50,
      "time": 144.882,
      "duration": 0.529,
      "velocity": 0.79,
      "hand": "left"
    },
    {
      "midi": 57,
      "time": 144.882,
      "duration": 0.529,
      "velocity": 0.79,
      "hand": "left"
    },
    {
      "midi": 62,
      "time": 144.882,
      "duration": 0.529,
      "velocity": 0.83,
      "hand": "right"
    },
    {
      "midi": 66,
      "time": 144.882,
      "duration": 0.529,
      "velocity": 0.83,
      "hand": "right"
    },
    {
      "midi": 42,
      "time": 145.235,
      "duration": 0.176,
      "velocity": 0.51,
      "hand": "left"
    },
    {
      "midi": 37,
      "time": 145.588,
      "duration": 0.176,
      "velocity": 0.73,
      "hand": "left"
    },
    {
      "midi": 38,
      "time": 145.588,
      "duration": 0.353,
      "velocity": 0.86,
      "hand": "left"
    },
    {
      "midi": 42,
      "time": 145.588,
      "duration": 0.176,
      "velocity": 0.58,
      "hand": "left"
    },
    {
      "midi": 45,
      "time": 145.588,
      "duration": 0.353,
      "velocity": 0.86,
      "hand": "left"
    },
    {
      "midi": 50,
      "time": 145.588,
      "duration": 0.353,
      "velocity": 0.79,
      "hand": "left"
    },
    {
      "midi": 57,
      "time": 145.588,
      "duration": 0.353,
      "velocity": 0.79,
      "hand": "left"
    },
    {
      "midi": 64,
      "time": 145.588,
      "duration": 0.353,
      "velocity": 0.83,
      "hand": "right"
    },
    {
      "midi": 67,
      "time": 145.588,
      "duration": 0.353,
      "velocity": 0.83,
      "hand": "right"
    },
    {
      "midi": 35,
      "time": 145.941,
      "duration": 0.176,
      "velocity": 0.58,
      "hand": "left"
    },
    {
      "midi": 42,
      "time": 145.941,
      "duration": 0.176,
      "velocity": 0.51,
      "hand": "left"
    },
    {
      "midi": 38,
      "time": 146.118,
      "duration": 0.176,
      "velocity": 0.86,
      "hand": "left"
    },
    {
      "midi": 45,
      "time": 146.118,
      "duration": 0.176,
      "velocity": 0.86,
      "hand": "left"
    },
    {
      "midi": 50,
      "time": 146.118,
      "duration": 0.176,
      "velocity": 0.79,
      "hand": "left"
    },
    {
      "midi": 57,
      "time": 146.118,
      "duration": 0.176,
      "velocity": 0.79,
      "hand": "left"
    },
    {
      "midi": 62,
      "time": 146.118,
      "duration": 0.176,
      "velocity": 0.83,
      "hand": "right"
    },
    {
      "midi": 66,
      "time": 146.118,
      "duration": 0.176,
      "velocity": 0.83,
      "hand": "right"
    },
    {
      "midi": 33,
      "time": 146.294,
      "duration": 1.412,
      "velocity": 0.86,
      "hand": "left"
    },
    {
      "midi": 35,
      "time": 146.294,
      "duration": 0.176,
      "velocity": 0.73,
      "hand": "left"
    },
    {
      "midi": 42,
      "time": 146.294,
      "duration": 0.176,
      "velocity": 0.65,
      "hand": "left"
    },
    {
      "midi": 45,
      "time": 146.294,
      "duration": 1.412,
      "velocity": 0.79,
      "hand": "left"
    },
    {
      "midi": 57,
      "time": 146.294,
      "duration": 1.412,
      "velocity": 0.79,
      "hand": "left"
    },
    {
      "midi": 61,
      "time": 146.294,
      "duration": 1.412,
      "velocity": 0.83,
      "hand": "right"
    },
    {
      "midi": 64,
      "time": 146.294,
      "duration": 1.412,
      "velocity": 0.83,
      "hand": "right"
    },
    {
      "midi": 42,
      "time": 146.647,
      "duration": 0.176,
      "velocity": 0.51,
      "hand": "left"
    },
    {
      "midi": 37,
      "time": 147,
      "duration": 0.176,
      "velocity": 0.73,
      "hand": "left"
    },
    {
      "midi": 42,
      "time": 147,
      "duration": 0.176,
      "velocity": 0.58,
      "hand": "left"
    },
    {
      "midi": 35,
      "time": 147.353,
      "duration": 0.176,
      "velocity": 0.58,
      "hand": "left"
    },
    {
      "midi": 42,
      "time": 147.353,
      "duration": 0.176,
      "velocity": 0.51,
      "hand": "left"
    },
    {
      "midi": 35,
      "time": 147.706,
      "duration": 0.176,
      "velocity": 0.73,
      "hand": "left"
    },
    {
      "midi": 42,
      "time": 147.706,
      "duration": 0.176,
      "velocity": 0.65,
      "hand": "left"
    },
    {
      "midi": 35,
      "time": 148.059,
      "duration": 0.176,
      "velocity": 0.58,
      "hand": "left"
    },
    {
      "midi": 42,
      "time": 148.059,
      "duration": 0.176,
      "velocity": 0.51,
      "hand": "left"
    },
    {
      "midi": 37,
      "time": 148.412,
      "duration": 0.176,
      "velocity": 0.73,
      "hand": "left"
    },
    {
      "midi": 42,
      "time": 148.412,
      "duration": 0.176,
      "velocity": 0.58,
      "hand": "left"
    },
    {
      "midi": 35,
      "time": 148.765,
      "duration": 0.176,
      "velocity": 0.58,
      "hand": "left"
    },
    {
      "midi": 42,
      "time": 148.765,
      "duration": 0.176,
      "velocity": 0.51,
      "hand": "left"
    },
    {
      "midi": 35,
      "time": 149.118,
      "duration": 0.176,
      "velocity": 0.73,
      "hand": "left"
    },
    {
      "midi": 38,
      "time": 149.118,
      "duration": 0.529,
      "velocity": 0.86,
      "hand": "left"
    },
    {
      "midi": 42,
      "time": 149.118,
      "duration": 0.176,
      "velocity": 0.65,
      "hand": "left"
    },
    {
      "midi": 45,
      "time": 149.118,
      "duration": 0.529,
      "velocity": 0.86,
      "hand": "left"
    },
    {
      "midi": 50,
      "time": 149.118,
      "duration": 0.529,
      "velocity": 0.79,
      "hand": "left"
    },
    {
      "midi": 57,
      "time": 149.118,
      "duration": 0.529,
      "velocity": 0.79,
      "hand": "left"
    },
    {
      "midi": 62,
      "time": 149.118,
      "duration": 0.529,
      "velocity": 0.83,
      "hand": "right"
    },
    {
      "midi": 66,
      "time": 149.118,
      "duration": 0.529,
      "velocity": 0.83,
      "hand": "right"
    },
    {
      "midi": 42,
      "time": 149.471,
      "duration": 0.176,
      "velocity": 0.51,
      "hand": "left"
    },
    {
      "midi": 37,
      "time": 149.824,
      "duration": 0.176,
      "velocity": 0.73,
      "hand": "left"
    },
    {
      "midi": 38,
      "time": 149.824,
      "duration": 0.353,
      "velocity": 0.86,
      "hand": "left"
    },
    {
      "midi": 42,
      "time": 149.824,
      "duration": 0.176,
      "velocity": 0.58,
      "hand": "left"
    },
    {
      "midi": 45,
      "time": 149.824,
      "duration": 0.353,
      "velocity": 0.86,
      "hand": "left"
    },
    {
      "midi": 50,
      "time": 149.824,
      "duration": 0.353,
      "velocity": 0.79,
      "hand": "left"
    },
    {
      "midi": 57,
      "time": 149.824,
      "duration": 0.353,
      "velocity": 0.79,
      "hand": "left"
    },
    {
      "midi": 62,
      "time": 149.824,
      "duration": 0.353,
      "velocity": 0.83,
      "hand": "right"
    },
    {
      "midi": 66,
      "time": 149.824,
      "duration": 0.353,
      "velocity": 0.83,
      "hand": "right"
    },
    {
      "midi": 35,
      "time": 150.176,
      "duration": 0.176,
      "velocity": 0.58,
      "hand": "left"
    },
    {
      "midi": 42,
      "time": 150.176,
      "duration": 0.176,
      "velocity": 0.51,
      "hand": "left"
    },
    {
      "midi": 38,
      "time": 150.353,
      "duration": 0.176,
      "velocity": 0.86,
      "hand": "left"
    },
    {
      "midi": 44,
      "time": 150.353,
      "duration": 0.176,
      "velocity": 0.86,
      "hand": "left"
    },
    {
      "midi": 50,
      "time": 150.353,
      "duration": 0.176,
      "velocity": 0.79,
      "hand": "left"
    },
    {
      "midi": 56,
      "time": 150.353,
      "duration": 0.176,
      "velocity": 0.79,
      "hand": "left"
    },
    {
      "midi": 62,
      "time": 150.353,
      "duration": 0.176,
      "velocity": 0.83,
      "hand": "right"
    },
    {
      "midi": 65,
      "time": 150.353,
      "duration": 0.176,
      "velocity": 0.83,
      "hand": "right"
    },
    {
      "midi": 35,
      "time": 150.529,
      "duration": 0.176,
      "velocity": 0.73,
      "hand": "left"
    },
    {
      "midi": 38,
      "time": 150.529,
      "duration": 0.529,
      "velocity": 0.86,
      "hand": "left"
    },
    {
      "midi": 42,
      "time": 150.529,
      "duration": 0.176,
      "velocity": 0.65,
      "hand": "left"
    },
    {
      "midi": 45,
      "time": 150.529,
      "duration": 0.529,
      "velocity": 0.86,
      "hand": "left"
    },
    {
      "midi": 50,
      "time": 150.529,
      "duration": 0.529,
      "velocity": 0.79,
      "hand": "left"
    },
    {
      "midi": 57,
      "time": 150.529,
      "duration": 0.529,
      "velocity": 0.79,
      "hand": "left"
    },
    {
      "midi": 62,
      "time": 150.529,
      "duration": 0.529,
      "velocity": 0.83,
      "hand": "right"
    },
    {
      "midi": 66,
      "time": 150.529,
      "duration": 0.529,
      "velocity": 0.83,
      "hand": "right"
    },
    {
      "midi": 42,
      "time": 150.882,
      "duration": 0.176,
      "velocity": 0.51,
      "hand": "left"
    },
    {
      "midi": 37,
      "time": 151.235,
      "duration": 0.176,
      "velocity": 0.73,
      "hand": "left"
    },
    {
      "midi": 38,
      "time": 151.235,
      "duration": 0.353,
      "velocity": 0.86,
      "hand": "left"
    },
    {
      "midi": 42,
      "time": 151.235,
      "duration": 0.176,
      "velocity": 0.58,
      "hand": "left"
    },
    {
      "midi": 45,
      "time": 151.235,
      "duration": 0.353,
      "velocity": 0.86,
      "hand": "left"
    },
    {
      "midi": 50,
      "time": 151.235,
      "duration": 0.353,
      "velocity": 0.79,
      "hand": "left"
    },
    {
      "midi": 57,
      "time": 151.235,
      "duration": 0.353,
      "velocity": 0.79,
      "hand": "left"
    },
    {
      "midi": 62,
      "time": 151.235,
      "duration": 0.353,
      "velocity": 0.83,
      "hand": "right"
    },
    {
      "midi": 66,
      "time": 151.235,
      "duration": 0.353,
      "velocity": 0.83,
      "hand": "right"
    },
    {
      "midi": 35,
      "time": 151.588,
      "duration": 0.176,
      "velocity": 0.58,
      "hand": "left"
    },
    {
      "midi": 42,
      "time": 151.588,
      "duration": 0.176,
      "velocity": 0.51,
      "hand": "left"
    },
    {
      "midi": 38,
      "time": 151.765,
      "duration": 0.176,
      "velocity": 0.86,
      "hand": "left"
    },
    {
      "midi": 45,
      "time": 151.765,
      "duration": 0.176,
      "velocity": 0.86,
      "hand": "left"
    },
    {
      "midi": 50,
      "time": 151.765,
      "duration": 0.176,
      "velocity": 0.79,
      "hand": "left"
    },
    {
      "midi": 57,
      "time": 151.765,
      "duration": 0.176,
      "velocity": 0.79,
      "hand": "left"
    },
    {
      "midi": 64,
      "time": 151.765,
      "duration": 0.176,
      "velocity": 0.83,
      "hand": "right"
    },
    {
      "midi": 67,
      "time": 151.765,
      "duration": 0.176,
      "velocity": 0.83,
      "hand": "right"
    },
    {
      "midi": 35,
      "time": 151.941,
      "duration": 0.176,
      "velocity": 0.73,
      "hand": "left"
    },
    {
      "midi": 38,
      "time": 151.941,
      "duration": 0.882,
      "velocity": 0.86,
      "hand": "left"
    },
    {
      "midi": 42,
      "time": 151.941,
      "duration": 0.176,
      "velocity": 0.65,
      "hand": "left"
    },
    {
      "midi": 50,
      "time": 151.941,
      "duration": 0.882,
      "velocity": 0.79,
      "hand": "left"
    },
    {
      "midi": 62,
      "time": 151.941,
      "duration": 0.882,
      "velocity": 0.79,
      "hand": "right"
    },
    {
      "midi": 66,
      "time": 151.941,
      "duration": 0.882,
      "velocity": 0.83,
      "hand": "right"
    },
    {
      "midi": 69,
      "time": 151.941,
      "duration": 0.882,
      "velocity": 0.83,
      "hand": "right"
    },
    {
      "midi": 42,
      "time": 152.294,
      "duration": 0.176,
      "velocity": 0.51,
      "hand": "left"
    },
    {
      "midi": 37,
      "time": 152.647,
      "duration": 0.176,
      "velocity": 0.73,
      "hand": "left"
    },
    {
      "midi": 42,
      "time": 152.647,
      "duration": 0.176,
      "velocity": 0.58,
      "hand": "left"
    },
    {
      "midi": 35,
      "time": 153,
      "duration": 0.176,
      "velocity": 0.58,
      "hand": "left"
    },
    {
      "midi": 42,
      "time": 153,
      "duration": 0.176,
      "velocity": 0.51,
      "hand": "left"
    },
    {
      "midi": 35,
      "time": 153.353,
      "duration": 0.176,
      "velocity": 0.73,
      "hand": "left"
    },
    {
      "midi": 38,
      "time": 153.353,
      "duration": 0.529,
      "velocity": 0.86,
      "hand": "left"
    },
    {
      "midi": 42,
      "time": 153.353,
      "duration": 0.176,
      "velocity": 0.65,
      "hand": "left"
    },
    {
      "midi": 50,
      "time": 153.353,
      "duration": 0.529,
      "velocity": 0.79,
      "hand": "left"
    },
    {
      "midi": 62,
      "time": 153.353,
      "duration": 0.529,
      "velocity": 0.79,
      "hand": "right"
    },
    {
      "midi": 66,
      "time": 153.353,
      "duration": 0.529,
      "velocity": 0.83,
      "hand": "right"
    },
    {
      "midi": 69,
      "time": 153.353,
      "duration": 0.529,
      "velocity": 0.83,
      "hand": "right"
    },
    {
      "midi": 35,
      "time": 153.706,
      "duration": 0.176,
      "velocity": 0.58,
      "hand": "left"
    },
    {
      "midi": 42,
      "time": 153.706,
      "duration": 0.176,
      "velocity": 0.51,
      "hand": "left"
    },
    {
      "midi": 37,
      "time": 154.059,
      "duration": 0.176,
      "velocity": 0.73,
      "hand": "left"
    },
    {
      "midi": 38,
      "time": 154.059,
      "duration": 0.353,
      "velocity": 0.86,
      "hand": "left"
    },
    {
      "midi": 42,
      "time": 154.059,
      "duration": 0.176,
      "velocity": 0.58,
      "hand": "left"
    },
    {
      "midi": 50,
      "time": 154.059,
      "duration": 0.353,
      "velocity": 0.79,
      "hand": "left"
    },
    {
      "midi": 62,
      "time": 154.059,
      "duration": 0.353,
      "velocity": 0.79,
      "hand": "right"
    },
    {
      "midi": 66,
      "time": 154.059,
      "duration": 0.353,
      "velocity": 0.83,
      "hand": "right"
    },
    {
      "midi": 69,
      "time": 154.059,
      "duration": 0.353,
      "velocity": 0.83,
      "hand": "right"
    },
    {
      "midi": 35,
      "time": 154.412,
      "duration": 0.176,
      "velocity": 0.58,
      "hand": "left"
    },
    {
      "midi": 42,
      "time": 154.412,
      "duration": 0.176,
      "velocity": 0.51,
      "hand": "left"
    },
    {
      "midi": 38,
      "time": 154.588,
      "duration": 0.176,
      "velocity": 0.86,
      "hand": "left"
    },
    {
      "midi": 45,
      "time": 154.588,
      "duration": 0.176,
      "velocity": 0.86,
      "hand": "left"
    },
    {
      "midi": 50,
      "time": 154.588,
      "duration": 0.176,
      "velocity": 0.79,
      "hand": "left"
    },
    {
      "midi": 57,
      "time": 154.588,
      "duration": 0.176,
      "velocity": 0.79,
      "hand": "left"
    },
    {
      "midi": 62,
      "time": 154.588,
      "duration": 0.176,
      "velocity": 0.83,
      "hand": "right"
    },
    {
      "midi": 66,
      "time": 154.588,
      "duration": 0.176,
      "velocity": 0.83,
      "hand": "right"
    },
    {
      "midi": 35,
      "time": 154.765,
      "duration": 0.176,
      "velocity": 0.73,
      "hand": "left"
    },
    {
      "midi": 42,
      "time": 154.765,
      "duration": 0.176,
      "velocity": 0.65,
      "hand": "left"
    },
    {
      "midi": 43,
      "time": 154.765,
      "duration": 0.529,
      "velocity": 0.86,
      "hand": "left"
    },
    {
      "midi": 47,
      "time": 154.765,
      "duration": 0.529,
      "velocity": 0.86,
      "hand": "left"
    },
    {
      "midi": 55,
      "time": 154.765,
      "duration": 0.529,
      "velocity": 0.79,
      "hand": "left"
    },
    {
      "midi": 59,
      "time": 154.765,
      "duration": 0.529,
      "velocity": 0.79,
      "hand": "left"
    },
    {
      "midi": 62,
      "time": 154.765,
      "duration": 0.529,
      "velocity": 0.83,
      "hand": "right"
    },
    {
      "midi": 64,
      "time": 154.765,
      "duration": 0.529,
      "velocity": 0.83,
      "hand": "right"
    },
    {
      "midi": 42,
      "time": 155.118,
      "duration": 0.176,
      "velocity": 0.51,
      "hand": "left"
    },
    {
      "midi": 37,
      "time": 155.471,
      "duration": 0.176,
      "velocity": 0.73,
      "hand": "left"
    },
    {
      "midi": 42,
      "time": 155.471,
      "duration": 0.176,
      "velocity": 0.58,
      "hand": "left"
    },
    {
      "midi": 43,
      "time": 155.471,
      "duration": 0.176,
      "velocity": 0.86,
      "hand": "left"
    },
    {
      "midi": 47,
      "time": 155.471,
      "duration": 0.176,
      "velocity": 0.86,
      "hand": "left"
    },
    {
      "midi": 55,
      "time": 155.471,
      "duration": 0.176,
      "velocity": 0.79,
      "hand": "left"
    },
    {
      "midi": 59,
      "time": 155.471,
      "duration": 0.176,
      "velocity": 0.79,
      "hand": "left"
    },
    {
      "midi": 62,
      "time": 155.471,
      "duration": 0.176,
      "velocity": 0.83,
      "hand": "right"
    },
    {
      "midi": 64,
      "time": 155.471,
      "duration": 0.176,
      "velocity": 0.83,
      "hand": "right"
    },
    {
      "midi": 35,
      "time": 155.824,
      "duration": 0.176,
      "velocity": 0.58,
      "hand": "left"
    },
    {
      "midi": 42,
      "time": 155.824,
      "duration": 0.176,
      "velocity": 0.51,
      "hand": "left"
    },
    {
      "midi": 43,
      "time": 155.824,
      "duration": 0.176,
      "velocity": 0.86,
      "hand": "left"
    },
    {
      "midi": 47,
      "time": 155.824,
      "duration": 0.176,
      "velocity": 0.86,
      "hand": "left"
    },
    {
      "midi": 55,
      "time": 155.824,
      "duration": 0.176,
      "velocity": 0.79,
      "hand": "left"
    },
    {
      "midi": 59,
      "time": 155.824,
      "duration": 0.176,
      "velocity": 0.79,
      "hand": "left"
    },
    {
      "midi": 62,
      "time": 155.824,
      "duration": 0.176,
      "velocity": 0.83,
      "hand": "right"
    },
    {
      "midi": 64,
      "time": 155.824,
      "duration": 0.176,
      "velocity": 0.83,
      "hand": "right"
    },
    {
      "midi": 35,
      "time": 156.176,
      "duration": 0.176,
      "velocity": 0.73,
      "hand": "left"
    },
    {
      "midi": 42,
      "time": 156.176,
      "duration": 0.176,
      "velocity": 0.65,
      "hand": "left"
    },
    {
      "midi": 45,
      "time": 156.176,
      "duration": 0.529,
      "velocity": 0.86,
      "hand": "left"
    },
    {
      "midi": 57,
      "time": 156.176,
      "duration": 0.529,
      "velocity": 0.79,
      "hand": "left"
    },
    {
      "midi": 61,
      "time": 156.176,
      "duration": 0.529,
      "velocity": 0.83,
      "hand": "right"
    },
    {
      "midi": 64,
      "time": 156.176,
      "duration": 0.529,
      "velocity": 0.83,
      "hand": "right"
    },
    {
      "midi": 42,
      "time": 156.529,
      "duration": 0.176,
      "velocity": 0.51,
      "hand": "left"
    },
    {
      "midi": 33,
      "time": 156.882,
      "duration": 0.353,
      "velocity": 0.86,
      "hand": "left"
    },
    {
      "midi": 37,
      "time": 156.882,
      "duration": 0.176,
      "velocity": 0.73,
      "hand": "left"
    },
    {
      "midi": 42,
      "time": 156.882,
      "duration": 0.176,
      "velocity": 0.58,
      "hand": "left"
    },
    {
      "midi": 45,
      "time": 156.882,
      "duration": 0.353,
      "velocity": 0.79,
      "hand": "left"
    },
    {
      "midi": 57,
      "time": 156.882,
      "duration": 0.353,
      "velocity": 0.79,
      "hand": "left"
    },
    {
      "midi": 61,
      "time": 156.882,
      "duration": 0.353,
      "velocity": 0.83,
      "hand": "right"
    },
    {
      "midi": 66,
      "time": 156.882,
      "duration": 0.353,
      "velocity": 0.83,
      "hand": "right"
    },
    {
      "midi": 35,
      "time": 157.235,
      "duration": 0.176,
      "velocity": 0.58,
      "hand": "left"
    },
    {
      "midi": 42,
      "time": 157.235,
      "duration": 0.176,
      "velocity": 0.51,
      "hand": "left"
    },
    {
      "midi": 33,
      "time": 157.412,
      "duration": 0.176,
      "velocity": 0.86,
      "hand": "left"
    },
    {
      "midi": 43,
      "time": 157.412,
      "duration": 0.176,
      "velocity": 0.86,
      "hand": "left"
    },
    {
      "midi": 45,
      "time": 157.412,
      "duration": 0.176,
      "velocity": 0.79,
      "hand": "left"
    },
    {
      "midi": 55,
      "time": 157.412,
      "duration": 0.176,
      "velocity": 0.79,
      "hand": "left"
    },
    {
      "midi": 61,
      "time": 157.412,
      "duration": 0.176,
      "velocity": 0.83,
      "hand": "right"
    },
    {
      "midi": 64,
      "time": 157.412,
      "duration": 0.176,
      "velocity": 0.83,
      "hand": "right"
    },
    {
      "midi": 35,
      "time": 157.588,
      "duration": 0.176,
      "velocity": 0.73,
      "hand": "left"
    },
    {
      "midi": 38,
      "time": 157.588,
      "duration": 1.412,
      "velocity": 0.86,
      "hand": "left"
    },
    {
      "midi": 42,
      "time": 157.588,
      "duration": 1.412,
      "velocity": 0.86,
      "hand": "left"
    },
    {
      "midi": 42,
      "time": 157.588,
      "duration": 0.176,
      "velocity": 0.65,
      "hand": "left"
    },
    {
      "midi": 50,
      "time": 157.588,
      "duration": 1.412,
      "velocity": 0.79,
      "hand": "left"
    },
    {
      "midi": 54,
      "time": 157.588,
      "duration": 1.412,
      "velocity": 0.79,
      "hand": "left"
    },
    {
      "midi": 62,
      "time": 157.588,
      "duration": 1.412,
      "velocity": 0.83,
      "hand": "right"
    },
    {
      "midi": 42,
      "time": 157.941,
      "duration": 0.176,
      "velocity": 0.51,
      "hand": "left"
    },
    {
      "midi": 37,
      "time": 158.294,
      "duration": 0.176,
      "velocity": 0.73,
      "hand": "left"
    },
    {
      "midi": 42,
      "time": 158.294,
      "duration": 0.176,
      "velocity": 0.58,
      "hand": "left"
    },
    {
      "midi": 35,
      "time": 158.647,
      "duration": 0.176,
      "velocity": 0.58,
      "hand": "left"
    },
    {
      "midi": 42,
      "time": 158.647,
      "duration": 0.176,
      "velocity": 0.51,
      "hand": "left"
    },
    {
      "midi": 35,
      "time": 159,
      "duration": 0.176,
      "velocity": 0.73,
      "hand": "left"
    },
    {
      "midi": 42,
      "time": 159,
      "duration": 0.176,
      "velocity": 0.65,
      "hand": "left"
    },
    {
      "midi": 38,
      "time": 159.353,
      "duration": 0.176,
      "velocity": 0.65,
      "hand": "left"
    },
    {
      "midi": 38,
      "time": 159.706,
      "duration": 0.176,
      "velocity": 0.73,
      "hand": "left"
    },
    {
      "midi": 35,
      "time": 160.059,
      "duration": 0.176,
      "velocity": 0.58,
      "hand": "left"
    },
    {
      "midi": 38,
      "time": 160.059,
      "duration": 0.176,
      "velocity": 0.83,
      "hand": "left"
    },
    {
      "midi": 38,
      "time": 160.235,
      "duration": 0.176,
      "velocity": 0.65,
      "hand": "left"
    },
    {
      "midi": 35,
      "time": 160.412,
      "duration": 0.176,
      "velocity": 0.73,
      "hand": "left"
    },
    {
      "midi": 42,
      "time": 160.412,
      "duration": 0.176,
      "velocity": 0.65,
      "hand": "left"
    },
    {
      "midi": 43,
      "time": 160.412,
      "duration": 0.529,
      "velocity": 0.86,
      "hand": "left"
    },
    {
      "midi": 49,
      "time": 160.412,
      "duration": 0.176,
      "velocity": 0.65,
      "hand": "left"
    },
    {
      "midi": 50,
      "time": 160.412,
      "duration": 0.529,
      "velocity": 0.86,
      "hand": "left"
    },
    {
      "midi": 55,
      "time": 160.412,
      "duration": 0.529,
      "velocity": 0.79,
      "hand": "left"
    },
    {
      "midi": 62,
      "time": 160.412,
      "duration": 0.529,
      "velocity": 0.83,
      "hand": "right"
    },
    {
      "midi": 71,
      "time": 160.412,
      "duration": 0.529,
      "velocity": 0.83,
      "hand": "right"
    },
    {
      "midi": 42,
      "time": 160.765,
      "duration": 0.176,
      "velocity": 0.51,
      "hand": "left"
    },
    {
      "midi": 37,
      "time": 161.118,
      "duration": 0.176,
      "velocity": 0.73,
      "hand": "left"
    },
    {
      "midi": 42,
      "time": 161.118,
      "duration": 0.176,
      "velocity": 0.58,
      "hand": "left"
    },
    {
      "midi": 43,
      "time": 161.118,
      "duration": 0.353,
      "velocity": 0.86,
      "hand": "left"
    },
    {
      "midi": 50,
      "time": 161.118,
      "duration": 0.353,
      "velocity": 0.86,
      "hand": "left"
    },
    {
      "midi": 55,
      "time": 161.118,
      "duration": 0.353,
      "velocity": 0.79,
      "hand": "left"
    },
    {
      "midi": 62,
      "time": 161.118,
      "duration": 0.353,
      "velocity": 0.79,
      "hand": "right"
    },
    {
      "midi": 67,
      "time": 161.118,
      "duration": 0.353,
      "velocity": 0.83,
      "hand": "right"
    },
    {
      "midi": 71,
      "time": 161.118,
      "duration": 0.353,
      "velocity": 0.83,
      "hand": "right"
    },
    {
      "midi": 35,
      "time": 161.471,
      "duration": 0.176,
      "velocity": 0.58,
      "hand": "left"
    },
    {
      "midi": 42,
      "time": 161.471,
      "duration": 0.176,
      "velocity": 0.51,
      "hand": "left"
    },
    {
      "midi": 43,
      "time": 161.647,
      "duration": 0.176,
      "velocity": 0.86,
      "hand": "left"
    },
    {
      "midi": 50,
      "time": 161.647,
      "duration": 0.176,
      "velocity": 0.86,
      "hand": "left"
    },
    {
      "midi": 55,
      "time": 161.647,
      "duration": 0.176,
      "velocity": 0.79,
      "hand": "left"
    },
    {
      "midi": 62,
      "time": 161.647,
      "duration": 0.176,
      "velocity": 0.79,
      "hand": "right"
    },
    {
      "midi": 67,
      "time": 161.647,
      "duration": 0.176,
      "velocity": 0.83,
      "hand": "right"
    },
    {
      "midi": 71,
      "time": 161.647,
      "duration": 0.176,
      "velocity": 0.83,
      "hand": "right"
    },
    {
      "midi": 35,
      "time": 161.824,
      "duration": 0.176,
      "velocity": 0.73,
      "hand": "left"
    },
    {
      "midi": 42,
      "time": 161.824,
      "duration": 0.176,
      "velocity": 0.65,
      "hand": "left"
    },
    {
      "midi": 43,
      "time": 161.824,
      "duration": 0.529,
      "velocity": 0.86,
      "hand": "left"
    },
    {
      "midi": 50,
      "time": 161.824,
      "duration": 0.529,
      "velocity": 0.86,
      "hand": "left"
    },
    {
      "midi": 55,
      "time": 161.824,
      "duration": 0.529,
      "velocity": 0.79,
      "hand": "left"
    },
    {
      "midi": 62,
      "time": 161.824,
      "duration": 0.529,
      "velocity": 0.79,
      "hand": "right"
    },
    {
      "midi": 67,
      "time": 161.824,
      "duration": 0.529,
      "velocity": 0.83,
      "hand": "right"
    },
    {
      "midi": 71,
      "time": 161.824,
      "duration": 0.529,
      "velocity": 0.83,
      "hand": "right"
    },
    {
      "midi": 42,
      "time": 162.176,
      "duration": 0.176,
      "velocity": 0.51,
      "hand": "left"
    },
    {
      "midi": 37,
      "time": 162.529,
      "duration": 0.176,
      "velocity": 0.73,
      "hand": "left"
    },
    {
      "midi": 42,
      "time": 162.529,
      "duration": 0.176,
      "velocity": 0.58,
      "hand": "left"
    },
    {
      "midi": 43,
      "time": 162.529,
      "duration": 0.353,
      "velocity": 0.86,
      "hand": "left"
    },
    {
      "midi": 50,
      "time": 162.529,
      "duration": 0.353,
      "velocity": 0.86,
      "hand": "left"
    },
    {
      "midi": 55,
      "time": 162.529,
      "duration": 0.353,
      "velocity": 0.79,
      "hand": "left"
    },
    {
      "midi": 62,
      "time": 162.529,
      "duration": 0.353,
      "velocity": 0.79,
      "hand": "right"
    },
    {
      "midi": 67,
      "time": 162.529,
      "duration": 0.353,
      "velocity": 0.83,
      "hand": "right"
    },
    {
      "midi": 71,
      "time": 162.529,
      "duration": 0.353,
      "velocity": 0.83,
      "hand": "right"
    },
    {
      "midi": 35,
      "time": 162.882,
      "duration": 0.176,
      "velocity": 0.58,
      "hand": "left"
    },
    {
      "midi": 42,
      "time": 162.882,
      "duration": 0.176,
      "velocity": 0.51,
      "hand": "left"
    },
    {
      "midi": 43,
      "time": 163.059,
      "duration": 0.176,
      "velocity": 0.86,
      "hand": "left"
    },
    {
      "midi": 47,
      "time": 163.059,
      "duration": 0.176,
      "velocity": 0.86,
      "hand": "left"
    },
    {
      "midi": 55,
      "time": 163.059,
      "duration": 0.176,
      "velocity": 0.79,
      "hand": "left"
    },
    {
      "midi": 59,
      "time": 163.059,
      "duration": 0.176,
      "velocity": 0.79,
      "hand": "left"
    },
    {
      "midi": 64,
      "time": 163.059,
      "duration": 0.176,
      "velocity": 0.83,
      "hand": "right"
    },
    {
      "midi": 67,
      "time": 163.059,
      "duration": 0.176,
      "velocity": 0.83,
      "hand": "right"
    },
    {
      "midi": 35,
      "time": 163.235,
      "duration": 0.176,
      "velocity": 0.73,
      "hand": "left"
    },
    {
      "midi": 38,
      "time": 163.235,
      "duration": 0.882,
      "velocity": 0.86,
      "hand": "left"
    },
    {
      "midi": 42,
      "time": 163.235,
      "duration": 0.176,
      "velocity": 0.65,
      "hand": "left"
    },
    {
      "midi": 45,
      "time": 163.235,
      "duration": 0.882,
      "velocity": 0.86,
      "hand": "left"
    },
    {
      "midi": 50,
      "time": 163.235,
      "duration": 0.882,
      "velocity": 0.79,
      "hand": "left"
    },
    {
      "midi": 57,
      "time": 163.235,
      "duration": 0.882,
      "velocity": 0.79,
      "hand": "left"
    },
    {
      "midi": 62,
      "time": 163.235,
      "duration": 0.882,
      "velocity": 0.83,
      "hand": "right"
    },
    {
      "midi": 66,
      "time": 163.235,
      "duration": 0.882,
      "velocity": 0.83,
      "hand": "right"
    },
    {
      "midi": 42,
      "time": 163.588,
      "duration": 0.176,
      "velocity": 0.51,
      "hand": "left"
    },
    {
      "midi": 37,
      "time": 163.941,
      "duration": 0.176,
      "velocity": 0.73,
      "hand": "left"
    },
    {
      "midi": 42,
      "time": 163.941,
      "duration": 0.176,
      "velocity": 0.58,
      "hand": "left"
    },
    {
      "midi": 35,
      "time": 164.294,
      "duration": 0.176,
      "velocity": 0.58,
      "hand": "left"
    },
    {
      "midi": 42,
      "time": 164.294,
      "duration": 0.176,
      "velocity": 0.51,
      "hand": "left"
    },
    {
      "midi": 35,
      "time": 164.647,
      "duration": 0.176,
      "velocity": 0.73,
      "hand": "left"
    },
    {
      "midi": 38,
      "time": 164.647,
      "duration": 0.529,
      "velocity": 0.86,
      "hand": "left"
    },
    {
      "midi": 42,
      "time": 164.647,
      "duration": 0.176,
      "velocity": 0.65,
      "hand": "left"
    },
    {
      "midi": 50,
      "time": 164.647,
      "duration": 0.529,
      "velocity": 0.79,
      "hand": "left"
    },
    {
      "midi": 62,
      "time": 164.647,
      "duration": 0.529,
      "velocity": 0.79,
      "hand": "right"
    },
    {
      "midi": 66,
      "time": 164.647,
      "duration": 0.529,
      "velocity": 0.83,
      "hand": "right"
    },
    {
      "midi": 69,
      "time": 164.647,
      "duration": 0.529,
      "velocity": 0.83,
      "hand": "right"
    },
    {
      "midi": 42,
      "time": 165,
      "duration": 0.176,
      "velocity": 0.51,
      "hand": "left"
    },
    {
      "midi": 37,
      "time": 165.353,
      "duration": 0.176,
      "velocity": 0.73,
      "hand": "left"
    },
    {
      "midi": 42,
      "time": 165.353,
      "duration": 0.176,
      "velocity": 0.58,
      "hand": "left"
    },
    {
      "midi": 35,
      "time": 165.706,
      "duration": 0.176,
      "velocity": 0.58,
      "hand": "left"
    },
    {
      "midi": 42,
      "time": 165.706,
      "duration": 0.176,
      "velocity": 0.51,
      "hand": "left"
    },
    {
      "midi": 35,
      "time": 166.059,
      "duration": 0.176,
      "velocity": 0.73,
      "hand": "left"
    },
    {
      "midi": 42,
      "time": 166.059,
      "duration": 0.176,
      "velocity": 0.65,
      "hand": "left"
    },
    {
      "midi": 43,
      "time": 166.059,
      "duration": 0.529,
      "velocity": 0.86,
      "hand": "left"
    },
    {
      "midi": 50,
      "time": 166.059,
      "duration": 0.529,
      "velocity": 0.86,
      "hand": "left"
    },
    {
      "midi": 55,
      "time": 166.059,
      "duration": 0.529,
      "velocity": 0.79,
      "hand": "left"
    },
    {
      "midi": 62,
      "time": 166.059,
      "duration": 0.529,
      "velocity": 0.79,
      "hand": "right"
    },
    {
      "midi": 67,
      "time": 166.059,
      "duration": 0.529,
      "velocity": 0.83,
      "hand": "right"
    },
    {
      "midi": 71,
      "time": 166.059,
      "duration": 0.529,
      "velocity": 0.83,
      "hand": "right"
    },
    {
      "midi": 42,
      "time": 166.412,
      "duration": 0.176,
      "velocity": 0.51,
      "hand": "left"
    },
    {
      "midi": 37,
      "time": 166.765,
      "duration": 0.176,
      "velocity": 0.73,
      "hand": "left"
    },
    {
      "midi": 42,
      "time": 166.765,
      "duration": 0.176,
      "velocity": 0.58,
      "hand": "left"
    },
    {
      "midi": 43,
      "time": 166.765,
      "duration": 0.353,
      "velocity": 0.86,
      "hand": "left"
    },
    {
      "midi": 50,
      "time": 166.765,
      "duration": 0.353,
      "velocity": 0.86,
      "hand": "left"
    },
    {
      "midi": 55,
      "time": 166.765,
      "duration": 0.353,
      "velocity": 0.79,
      "hand": "left"
    },
    {
      "midi": 62,
      "time": 166.765,
      "duration": 0.353,
      "velocity": 0.79,
      "hand": "right"
    },
    {
      "midi": 67,
      "time": 166.765,
      "duration": 0.353,
      "velocity": 0.83,
      "hand": "right"
    },
    {
      "midi": 71,
      "time": 166.765,
      "duration": 0.353,
      "velocity": 0.83,
      "hand": "right"
    },
    {
      "midi": 35,
      "time": 167.118,
      "duration": 0.176,
      "velocity": 0.58,
      "hand": "left"
    },
    {
      "midi": 42,
      "time": 167.118,
      "duration": 0.176,
      "velocity": 0.51,
      "hand": "left"
    },
    {
      "midi": 43,
      "time": 167.294,
      "duration": 0.176,
      "velocity": 0.86,
      "hand": "left"
    },
    {
      "midi": 50,
      "time": 167.294,
      "duration": 0.176,
      "velocity": 0.86,
      "hand": "left"
    },
    {
      "midi": 55,
      "time": 167.294,
      "duration": 0.176,
      "velocity": 0.79,
      "hand": "left"
    },
    {
      "midi": 62,
      "time": 167.294,
      "duration": 0.176,
      "velocity": 0.79,
      "hand": "right"
    },
    {
      "midi": 67,
      "time": 167.294,
      "duration": 0.176,
      "velocity": 0.83,
      "hand": "right"
    },
    {
      "midi": 71,
      "time": 167.294,
      "duration": 0.176,
      "velocity": 0.83,
      "hand": "right"
    },
    {
      "midi": 35,
      "time": 167.471,
      "duration": 0.176,
      "velocity": 0.73,
      "hand": "left"
    },
    {
      "midi": 40,
      "time": 167.471,
      "duration": 0.176,
      "velocity": 0.86,
      "hand": "left"
    },
    {
      "midi": 42,
      "time": 167.471,
      "duration": 0.176,
      "velocity": 0.65,
      "hand": "left"
    },
    {
      "midi": 50,
      "time": 167.471,
      "duration": 0.176,
      "velocity": 0.86,
      "hand": "left"
    },
    {
      "midi": 52,
      "time": 167.471,
      "duration": 0.176,
      "velocity": 0.79,
      "hand": "left"
    },
    {
      "midi": 62,
      "time": 167.471,
      "duration": 0.176,
      "velocity": 0.79,
      "hand": "right"
    },
    {
      "midi": 68,
      "time": 167.471,
      "duration": 0.176,
      "velocity": 0.83,
      "hand": "right"
    },
    {
      "midi": 71,
      "time": 167.471,
      "duration": 0.176,
      "velocity": 0.83,
      "hand": "right"
    },
    {
      "midi": 40,
      "time": 167.824,
      "duration": 0.176,
      "velocity": 0.86,
      "hand": "left"
    },
    {
      "midi": 42,
      "time": 167.824,
      "duration": 0.176,
      "velocity": 0.51,
      "hand": "left"
    },
    {
      "midi": 47,
      "time": 167.824,
      "duration": 0.176,
      "velocity": 0.86,
      "hand": "left"
    },
    {
      "midi": 52,
      "time": 167.824,
      "duration": 0.176,
      "velocity": 0.79,
      "hand": "left"
    },
    {
      "midi": 59,
      "time": 167.824,
      "duration": 0.176,
      "velocity": 0.79,
      "hand": "left"
    },
    {
      "midi": 68,
      "time": 167.824,
      "duration": 0.176,
      "velocity": 0.83,
      "hand": "right"
    },
    {
      "midi": 74,
      "time": 167.824,
      "duration": 0.176,
      "velocity": 0.83,
      "hand": "right"
    },
    {
      "midi": 37,
      "time": 168.176,
      "duration": 0.176,
      "velocity": 0.73,
      "hand": "left"
    },
    {
      "midi": 40,
      "time": 168.176,
      "duration": 0.176,
      "velocity": 0.86,
      "hand": "left"
    },
    {
      "midi": 42,
      "time": 168.176,
      "duration": 0.176,
      "velocity": 0.58,
      "hand": "left"
    },
    {
      "midi": 45,
      "time": 168.176,
      "duration": 0.176,
      "velocity": 0.86,
      "hand": "left"
    },
    {
      "midi": 52,
      "time": 168.176,
      "duration": 0.176,
      "velocity": 0.79,
      "hand": "left"
    },
    {
      "midi": 57,
      "time": 168.176,
      "duration": 0.176,
      "velocity": 0.79,
      "hand": "left"
    },
    {
      "midi": 64,
      "time": 168.176,
      "duration": 0.176,
      "velocity": 0.83,
      "hand": "right"
    },
    {
      "midi": 73,
      "time": 168.176,
      "duration": 0.176,
      "velocity": 0.83,
      "hand": "right"
    },
    {
      "midi": 35,
      "time": 168.529,
      "duration": 0.176,
      "velocity": 0.58,
      "hand": "left"
    },
    {
      "midi": 40,
      "time": 168.529,
      "duration": 0.176,
      "velocity": 0.86,
      "hand": "left"
    },
    {
      "midi": 42,
      "time": 168.529,
      "duration": 0.176,
      "velocity": 0.51,
      "hand": "left"
    },
    {
      "midi": 44,
      "time": 168.529,
      "duration": 0.176,
      "velocity": 0.86,
      "hand": "left"
    },
    {
      "midi": 52,
      "time": 168.529,
      "duration": 0.176,
      "velocity": 0.79,
      "hand": "left"
    },
    {
      "midi": 56,
      "time": 168.529,
      "duration": 0.176,
      "velocity": 0.79,
      "hand": "left"
    },
    {
      "midi": 62,
      "time": 168.529,
      "duration": 0.176,
      "velocity": 0.83,
      "hand": "right"
    },
    {
      "midi": 71,
      "time": 168.529,
      "duration": 0.176,
      "velocity": 0.83,
      "hand": "right"
    },
    {
      "midi": 33,
      "time": 168.882,
      "duration": 1.412,
      "velocity": 0.86,
      "hand": "left"
    },
    {
      "midi": 35,
      "time": 168.882,
      "duration": 0.176,
      "velocity": 0.73,
      "hand": "left"
    },
    {
      "midi": 42,
      "time": 168.882,
      "duration": 0.176,
      "velocity": 0.65,
      "hand": "left"
    },
    {
      "midi": 45,
      "time": 168.882,
      "duration": 1.412,
      "velocity": 0.79,
      "hand": "left"
    },
    {
      "midi": 57,
      "time": 168.882,
      "duration": 1.412,
      "velocity": 0.79,
      "hand": "left"
    },
    {
      "midi": 61,
      "time": 168.882,
      "duration": 1.412,
      "velocity": 0.83,
      "hand": "right"
    },
    {
      "midi": 69,
      "time": 168.882,
      "duration": 0.882,
      "velocity": 0.83,
      "hand": "right"
    },
    {
      "midi": 69,
      "time": 168.882,
      "duration": 1.412,
      "velocity": 0.86,
      "hand": "right"
    },
    {
      "midi": 42,
      "time": 169.235,
      "duration": 0.176,
      "velocity": 0.51,
      "hand": "left"
    },
    {
      "midi": 37,
      "time": 169.588,
      "duration": 0.176,
      "velocity": 0.73,
      "hand": "left"
    },
    {
      "midi": 42,
      "time": 169.588,
      "duration": 0.176,
      "velocity": 0.58,
      "hand": "left"
    },
    {
      "midi": 35,
      "time": 169.941,
      "duration": 0.176,
      "velocity": 0.58,
      "hand": "left"
    },
    {
      "midi": 42,
      "time": 169.941,
      "duration": 0.176,
      "velocity": 0.51,
      "hand": "left"
    },
    {
      "midi": 35,
      "time": 170.294,
      "duration": 0.176,
      "velocity": 0.73,
      "hand": "left"
    },
    {
      "midi": 42,
      "time": 170.294,
      "duration": 0.176,
      "velocity": 0.65,
      "hand": "left"
    },
    {
      "midi": 67,
      "time": 170.294,
      "duration": 0.529,
      "velocity": 0.83,
      "hand": "right"
    },
    {
      "midi": 42,
      "time": 170.647,
      "duration": 0.176,
      "velocity": 0.51,
      "hand": "left"
    },
    {
      "midi": 37,
      "time": 171,
      "duration": 0.176,
      "velocity": 0.73,
      "hand": "left"
    },
    {
      "midi": 42,
      "time": 171,
      "duration": 0.176,
      "velocity": 0.58,
      "hand": "left"
    },
    {
      "midi": 35,
      "time": 171.353,
      "duration": 0.176,
      "velocity": 0.58,
      "hand": "left"
    },
    {
      "midi": 42,
      "time": 171.353,
      "duration": 0.176,
      "velocity": 0.51,
      "hand": "left"
    },
    {
      "midi": 35,
      "time": 171.706,
      "duration": 0.176,
      "velocity": 0.73,
      "hand": "left"
    },
    {
      "midi": 38,
      "time": 171.706,
      "duration": 0.529,
      "velocity": 0.86,
      "hand": "left"
    },
    {
      "midi": 42,
      "time": 171.706,
      "duration": 0.176,
      "velocity": 0.65,
      "hand": "left"
    },
    {
      "midi": 45,
      "time": 171.706,
      "duration": 0.529,
      "velocity": 0.86,
      "hand": "left"
    },
    {
      "midi": 50,
      "time": 171.706,
      "duration": 0.529,
      "velocity": 0.79,
      "hand": "left"
    },
    {
      "midi": 57,
      "time": 171.706,
      "duration": 0.529,
      "velocity": 0.79,
      "hand": "left"
    },
    {
      "midi": 62,
      "time": 171.706,
      "duration": 0.529,
      "velocity": 0.83,
      "hand": "right"
    },
    {
      "midi": 66,
      "time": 171.706,
      "duration": 0.529,
      "velocity": 0.83,
      "hand": "right"
    },
    {
      "midi": 42,
      "time": 172.059,
      "duration": 0.176,
      "velocity": 0.51,
      "hand": "left"
    },
    {
      "midi": 37,
      "time": 172.412,
      "duration": 0.176,
      "velocity": 0.73,
      "hand": "left"
    },
    {
      "midi": 38,
      "time": 172.412,
      "duration": 0.353,
      "velocity": 0.86,
      "hand": "left"
    },
    {
      "midi": 42,
      "time": 172.412,
      "duration": 0.176,
      "velocity": 0.58,
      "hand": "left"
    },
    {
      "midi": 45,
      "time": 172.412,
      "duration": 0.353,
      "velocity": 0.86,
      "hand": "left"
    },
    {
      "midi": 50,
      "time": 172.412,
      "duration": 0.353,
      "velocity": 0.79,
      "hand": "left"
    },
    {
      "midi": 57,
      "time": 172.412,
      "duration": 0.353,
      "velocity": 0.79,
      "hand": "left"
    },
    {
      "midi": 62,
      "time": 172.412,
      "duration": 0.353,
      "velocity": 0.83,
      "hand": "right"
    },
    {
      "midi": 66,
      "time": 172.412,
      "duration": 0.353,
      "velocity": 0.83,
      "hand": "right"
    },
    {
      "midi": 35,
      "time": 172.765,
      "duration": 0.176,
      "velocity": 0.58,
      "hand": "left"
    },
    {
      "midi": 42,
      "time": 172.765,
      "duration": 0.176,
      "velocity": 0.51,
      "hand": "left"
    },
    {
      "midi": 38,
      "time": 172.941,
      "duration": 0.176,
      "velocity": 0.86,
      "hand": "left"
    },
    {
      "midi": 44,
      "time": 172.941,
      "duration": 0.176,
      "velocity": 0.86,
      "hand": "left"
    },
    {
      "midi": 50,
      "time": 172.941,
      "duration": 0.176,
      "velocity": 0.79,
      "hand": "left"
    },
    {
      "midi": 56,
      "time": 172.941,
      "duration": 0.176,
      "velocity": 0.79,
      "hand": "left"
    },
    {
      "midi": 62,
      "time": 172.941,
      "duration": 0.176,
      "velocity": 0.83,
      "hand": "right"
    },
    {
      "midi": 65,
      "time": 172.941,
      "duration": 0.176,
      "velocity": 0.83,
      "hand": "right"
    },
    {
      "midi": 35,
      "time": 173.118,
      "duration": 0.176,
      "velocity": 0.73,
      "hand": "left"
    },
    {
      "midi": 38,
      "time": 173.118,
      "duration": 0.529,
      "velocity": 0.86,
      "hand": "left"
    },
    {
      "midi": 42,
      "time": 173.118,
      "duration": 0.176,
      "velocity": 0.65,
      "hand": "left"
    },
    {
      "midi": 45,
      "time": 173.118,
      "duration": 0.529,
      "velocity": 0.86,
      "hand": "left"
    },
    {
      "midi": 50,
      "time": 173.118,
      "duration": 0.529,
      "velocity": 0.79,
      "hand": "left"
    },
    {
      "midi": 57,
      "time": 173.118,
      "duration": 0.529,
      "velocity": 0.79,
      "hand": "left"
    },
    {
      "midi": 62,
      "time": 173.118,
      "duration": 0.529,
      "velocity": 0.83,
      "hand": "right"
    },
    {
      "midi": 66,
      "time": 173.118,
      "duration": 0.529,
      "velocity": 0.83,
      "hand": "right"
    },
    {
      "midi": 42,
      "time": 173.471,
      "duration": 0.176,
      "velocity": 0.51,
      "hand": "left"
    },
    {
      "midi": 37,
      "time": 173.824,
      "duration": 0.176,
      "velocity": 0.73,
      "hand": "left"
    },
    {
      "midi": 38,
      "time": 173.824,
      "duration": 0.353,
      "velocity": 0.86,
      "hand": "left"
    },
    {
      "midi": 42,
      "time": 173.824,
      "duration": 0.176,
      "velocity": 0.58,
      "hand": "left"
    },
    {
      "midi": 45,
      "time": 173.824,
      "duration": 0.353,
      "velocity": 0.86,
      "hand": "left"
    },
    {
      "midi": 50,
      "time": 173.824,
      "duration": 0.353,
      "velocity": 0.79,
      "hand": "left"
    },
    {
      "midi": 57,
      "time": 173.824,
      "duration": 0.353,
      "velocity": 0.79,
      "hand": "left"
    },
    {
      "midi": 62,
      "time": 173.824,
      "duration": 0.353,
      "velocity": 0.83,
      "hand": "right"
    },
    {
      "midi": 66,
      "time": 173.824,
      "duration": 0.353,
      "velocity": 0.83,
      "hand": "right"
    },
    {
      "midi": 35,
      "time": 174.176,
      "duration": 0.176,
      "velocity": 0.58,
      "hand": "left"
    },
    {
      "midi": 42,
      "time": 174.176,
      "duration": 0.176,
      "velocity": 0.51,
      "hand": "left"
    },
    {
      "midi": 38,
      "time": 174.353,
      "duration": 0.176,
      "velocity": 0.86,
      "hand": "left"
    },
    {
      "midi": 45,
      "time": 174.353,
      "duration": 0.176,
      "velocity": 0.86,
      "hand": "left"
    },
    {
      "midi": 50,
      "time": 174.353,
      "duration": 0.176,
      "velocity": 0.79,
      "hand": "left"
    },
    {
      "midi": 57,
      "time": 174.353,
      "duration": 0.176,
      "velocity": 0.79,
      "hand": "left"
    },
    {
      "midi": 64,
      "time": 174.353,
      "duration": 0.176,
      "velocity": 0.83,
      "hand": "right"
    },
    {
      "midi": 67,
      "time": 174.353,
      "duration": 0.176,
      "velocity": 0.83,
      "hand": "right"
    },
    {
      "midi": 35,
      "time": 174.529,
      "duration": 0.176,
      "velocity": 0.73,
      "hand": "left"
    },
    {
      "midi": 38,
      "time": 174.529,
      "duration": 0.882,
      "velocity": 0.86,
      "hand": "left"
    },
    {
      "midi": 42,
      "time": 174.529,
      "duration": 0.176,
      "velocity": 0.65,
      "hand": "left"
    },
    {
      "midi": 50,
      "time": 174.529,
      "duration": 0.882,
      "velocity": 0.79,
      "hand": "left"
    },
    {
      "midi": 62,
      "time": 174.529,
      "duration": 0.882,
      "velocity": 0.79,
      "hand": "right"
    },
    {
      "midi": 66,
      "time": 174.529,
      "duration": 0.882,
      "velocity": 0.83,
      "hand": "right"
    },
    {
      "midi": 69,
      "time": 174.529,
      "duration": 0.882,
      "velocity": 0.83,
      "hand": "right"
    },
    {
      "midi": 42,
      "time": 174.882,
      "duration": 0.176,
      "velocity": 0.51,
      "hand": "left"
    },
    {
      "midi": 37,
      "time": 175.059,
      "duration": 0.176,
      "velocity": 0.73,
      "hand": "left"
    },
    {
      "midi": 42,
      "time": 175.059,
      "duration": 0.176,
      "velocity": 0.58,
      "hand": "left"
    },
    {
      "midi": 35,
      "time": 175.412,
      "duration": 0.176,
      "velocity": 0.58,
      "hand": "left"
    },
    {
      "midi": 42,
      "time": 175.412,
      "duration": 0.176,
      "velocity": 0.51,
      "hand": "left"
    },
    {
      "midi": 35,
      "time": 175.765,
      "duration": 0.176,
      "velocity": 0.73,
      "hand": "left"
    },
    {
      "midi": 38,
      "time": 175.765,
      "duration": 0.529,
      "velocity": 0.86,
      "hand": "left"
    },
    {
      "midi": 42,
      "time": 175.765,
      "duration": 0.176,
      "velocity": 0.65,
      "hand": "left"
    },
    {
      "midi": 50,
      "time": 175.765,
      "duration": 0.529,
      "velocity": 0.79,
      "hand": "left"
    },
    {
      "midi": 62,
      "time": 175.765,
      "duration": 0.529,
      "velocity": 0.79,
      "hand": "right"
    },
    {
      "midi": 66,
      "time": 175.765,
      "duration": 0.529,
      "velocity": 0.83,
      "hand": "right"
    },
    {
      "midi": 69,
      "time": 175.765,
      "duration": 0.529,
      "velocity": 0.83,
      "hand": "right"
    },
    {
      "midi": 42,
      "time": 176.118,
      "duration": 0.176,
      "velocity": 0.51,
      "hand": "left"
    },
    {
      "midi": 37,
      "time": 176.471,
      "duration": 0.176,
      "velocity": 0.73,
      "hand": "left"
    },
    {
      "midi": 38,
      "time": 176.471,
      "duration": 0.353,
      "velocity": 0.86,
      "hand": "left"
    },
    {
      "midi": 42,
      "time": 176.471,
      "duration": 0.176,
      "velocity": 0.58,
      "hand": "left"
    },
    {
      "midi": 45,
      "time": 176.471,
      "duration": 0.353,
      "velocity": 0.86,
      "hand": "left"
    },
    {
      "midi": 50,
      "time": 176.471,
      "duration": 0.353,
      "velocity": 0.79,
      "hand": "left"
    },
    {
      "midi": 57,
      "time": 176.471,
      "duration": 0.353,
      "velocity": 0.79,
      "hand": "left"
    },
    {
      "midi": 66,
      "time": 176.471,
      "duration": 0.353,
      "velocity": 0.83,
      "hand": "right"
    },
    {
      "midi": 69,
      "time": 176.471,
      "duration": 0.353,
      "velocity": 0.83,
      "hand": "right"
    },
    {
      "midi": 35,
      "time": 176.824,
      "duration": 0.176,
      "velocity": 0.58,
      "hand": "left"
    },
    {
      "midi": 42,
      "time": 176.824,
      "duration": 0.176,
      "velocity": 0.51,
      "hand": "left"
    },
    {
      "midi": 38,
      "time": 177,
      "duration": 0.176,
      "velocity": 0.86,
      "hand": "left"
    },
    {
      "midi": 45,
      "time": 177,
      "duration": 0.176,
      "velocity": 0.86,
      "hand": "left"
    },
    {
      "midi": 50,
      "time": 177,
      "duration": 0.176,
      "velocity": 0.79,
      "hand": "left"
    },
    {
      "midi": 57,
      "time": 177,
      "duration": 0.176,
      "velocity": 0.79,
      "hand": "left"
    },
    {
      "midi": 62,
      "time": 177,
      "duration": 0.176,
      "velocity": 0.83,
      "hand": "right"
    },
    {
      "midi": 66,
      "time": 177,
      "duration": 0.176,
      "velocity": 0.83,
      "hand": "right"
    },
    {
      "midi": 35,
      "time": 177.176,
      "duration": 0.176,
      "velocity": 0.73,
      "hand": "left"
    },
    {
      "midi": 42,
      "time": 177.176,
      "duration": 0.176,
      "velocity": 0.65,
      "hand": "left"
    },
    {
      "midi": 43,
      "time": 177.176,
      "duration": 0.529,
      "velocity": 0.86,
      "hand": "left"
    },
    {
      "midi": 47,
      "time": 177.176,
      "duration": 0.529,
      "velocity": 0.86,
      "hand": "left"
    },
    {
      "midi": 55,
      "time": 177.176,
      "duration": 0.529,
      "velocity": 0.79,
      "hand": "left"
    },
    {
      "midi": 59,
      "time": 177.176,
      "duration": 0.529,
      "velocity": 0.79,
      "hand": "left"
    },
    {
      "midi": 62,
      "time": 177.176,
      "duration": 0.529,
      "velocity": 0.83,
      "hand": "right"
    },
    {
      "midi": 64,
      "time": 177.176,
      "duration": 0.529,
      "velocity": 0.83,
      "hand": "right"
    },
    {
      "midi": 42,
      "time": 177.529,
      "duration": 0.176,
      "velocity": 0.51,
      "hand": "left"
    },
    {
      "midi": 37,
      "time": 177.882,
      "duration": 0.176,
      "velocity": 0.73,
      "hand": "left"
    },
    {
      "midi": 42,
      "time": 177.882,
      "duration": 0.176,
      "velocity": 0.58,
      "hand": "left"
    },
    {
      "midi": 43,
      "time": 177.882,
      "duration": 0.353,
      "velocity": 0.86,
      "hand": "left"
    },
    {
      "midi": 47,
      "time": 177.882,
      "duration": 0.353,
      "velocity": 0.86,
      "hand": "left"
    },
    {
      "midi": 55,
      "time": 177.882,
      "duration": 0.353,
      "velocity": 0.79,
      "hand": "left"
    },
    {
      "midi": 59,
      "time": 177.882,
      "duration": 0.353,
      "velocity": 0.79,
      "hand": "left"
    },
    {
      "midi": 62,
      "time": 177.882,
      "duration": 0.353,
      "velocity": 0.83,
      "hand": "right"
    },
    {
      "midi": 64,
      "time": 178.059,
      "duration": 0.353,
      "velocity": 0.83,
      "hand": "right"
    },
    {
      "midi": 35,
      "time": 178.235,
      "duration": 0.176,
      "velocity": 0.58,
      "hand": "left"
    },
    {
      "midi": 42,
      "time": 178.235,
      "duration": 0.176,
      "velocity": 0.51,
      "hand": "left"
    },
    {
      "midi": 43,
      "time": 178.412,
      "duration": 0.176,
      "velocity": 0.86,
      "hand": "left"
    },
    {
      "midi": 47,
      "time": 178.412,
      "duration": 0.176,
      "velocity": 0.86,
      "hand": "left"
    },
    {
      "midi": 55,
      "time": 178.412,
      "duration": 0.176,
      "velocity": 0.79,
      "hand": "left"
    },
    {
      "midi": 59,
      "time": 178.412,
      "duration": 0.176,
      "velocity": 0.79,
      "hand": "left"
    },
    {
      "midi": 62,
      "time": 178.412,
      "duration": 0.176,
      "velocity": 0.83,
      "hand": "right"
    },
    {
      "midi": 64,
      "time": 178.412,
      "duration": 0.176,
      "velocity": 0.83,
      "hand": "right"
    },
    {
      "midi": 35,
      "time": 178.588,
      "duration": 0.176,
      "velocity": 0.73,
      "hand": "left"
    },
    {
      "midi": 42,
      "time": 178.588,
      "duration": 0.176,
      "velocity": 0.65,
      "hand": "left"
    },
    {
      "midi": 45,
      "time": 178.588,
      "duration": 0.529,
      "velocity": 0.86,
      "hand": "left"
    },
    {
      "midi": 57,
      "time": 178.588,
      "duration": 0.529,
      "velocity": 0.79,
      "hand": "left"
    },
    {
      "midi": 61,
      "time": 178.588,
      "duration": 0.529,
      "velocity": 0.83,
      "hand": "right"
    },
    {
      "midi": 64,
      "time": 178.588,
      "duration": 0.529,
      "velocity": 0.83,
      "hand": "right"
    },
    {
      "midi": 35,
      "time": 178.941,
      "duration": 0.176,
      "velocity": 0.65,
      "hand": "left"
    },
    {
      "midi": 42,
      "time": 178.941,
      "duration": 0.176,
      "velocity": 0.51,
      "hand": "left"
    },
    {
      "midi": 33,
      "time": 179.294,
      "duration": 0.353,
      "velocity": 0.86,
      "hand": "left"
    },
    {
      "midi": 38,
      "time": 179.294,
      "duration": 0.176,
      "velocity": 0.69,
      "hand": "left"
    },
    {
      "midi": 42,
      "time": 179.294,
      "duration": 0.176,
      "velocity": 0.58,
      "hand": "left"
    },
    {
      "midi": 45,
      "time": 179.294,
      "duration": 0.353,
      "velocity": 0.79,
      "hand": "left"
    },
    {
      "midi": 57,
      "time": 179.294,
      "duration": 0.353,
      "velocity": 0.79,
      "hand": "left"
    },
    {
      "midi": 61,
      "time": 179.294,
      "duration": 0.353,
      "velocity": 0.83,
      "hand": "right"
    },
    {
      "midi": 66,
      "time": 179.294,
      "duration": 0.353,
      "velocity": 0.83,
      "hand": "right"
    },
    {
      "midi": 35,
      "time": 179.647,
      "duration": 0.176,
      "velocity": 0.58,
      "hand": "left"
    },
    {
      "midi": 38,
      "time": 179.647,
      "duration": 0.176,
      "velocity": 0.83,
      "hand": "left"
    },
    {
      "midi": 46,
      "time": 179.647,
      "duration": 0.176,
      "velocity": 0.65,
      "hand": "left"
    },
    {
      "midi": 33,
      "time": 179.824,
      "duration": 0.176,
      "velocity": 0.86,
      "hand": "left"
    },
    {
      "midi": 43,
      "time": 179.824,
      "duration": 0.176,
      "velocity": 0.86,
      "hand": "left"
    },
    {
      "midi": 45,
      "time": 179.824,
      "duration": 0.176,
      "velocity": 0.79,
      "hand": "left"
    },
    {
      "midi": 55,
      "time": 179.824,
      "duration": 0.176,
      "velocity": 0.79,
      "hand": "left"
    },
    {
      "midi": 61,
      "time": 179.824,
      "duration": 0.176,
      "velocity": 0.83,
      "hand": "right"
    },
    {
      "midi": 64,
      "time": 179.824,
      "duration": 0.176,
      "velocity": 0.83,
      "hand": "right"
    },
    {
      "midi": 35,
      "time": 180,
      "duration": 0.176,
      "velocity": 0.73,
      "hand": "left"
    },
    {
      "midi": 38,
      "time": 180,
      "duration": 1.412,
      "velocity": 0.86,
      "hand": "left"
    },
    {
      "midi": 42,
      "time": 180,
      "duration": 1.412,
      "velocity": 0.86,
      "hand": "left"
    },
    {
      "midi": 42,
      "time": 180,
      "duration": 0.176,
      "velocity": 0.65,
      "hand": "left"
    },
    {
      "midi": 50,
      "time": 180,
      "duration": 1.412,
      "velocity": 0.79,
      "hand": "left"
    },
    {
      "midi": 54,
      "time": 180,
      "duration": 1.412,
      "velocity": 0.79,
      "hand": "left"
    },
    {
      "midi": 62,
      "time": 180,
      "duration": 1.412,
      "velocity": 0.83,
      "hand": "right"
    },
    {
      "midi": 42,
      "time": 180.353,
      "duration": 0.176,
      "velocity": 0.51,
      "hand": "left"
    },
    {
      "midi": 37,
      "time": 180.706,
      "duration": 0.176,
      "velocity": 0.73,
      "hand": "left"
    },
    {
      "midi": 42,
      "time": 180.706,
      "duration": 0.176,
      "velocity": 0.58,
      "hand": "left"
    },
    {
      "midi": 35,
      "time": 181.059,
      "duration": 0.176,
      "velocity": 0.58,
      "hand": "left"
    },
    {
      "midi": 42,
      "time": 181.059,
      "duration": 0.176,
      "velocity": 0.51,
      "hand": "left"
    },
    {
      "midi": 35,
      "time": 181.412,
      "duration": 0.176,
      "velocity": 0.73,
      "hand": "left"
    },
    {
      "midi": 42,
      "time": 181.412,
      "duration": 0.176,
      "velocity": 0.65,
      "hand": "left"
    },
    {
      "midi": 35,
      "time": 181.765,
      "duration": 0.176,
      "velocity": 0.65,
      "hand": "left"
    },
    {
      "midi": 42,
      "time": 181.765,
      "duration": 0.176,
      "velocity": 0.51,
      "hand": "left"
    },
    {
      "midi": 38,
      "time": 182.118,
      "duration": 0.176,
      "velocity": 0.69,
      "hand": "left"
    },
    {
      "midi": 42,
      "time": 182.118,
      "duration": 0.176,
      "velocity": 0.58,
      "hand": "left"
    },
    {
      "midi": 35,
      "time": 182.471,
      "duration": 0.176,
      "velocity": 0.58,
      "hand": "left"
    },
    {
      "midi": 38,
      "time": 182.471,
      "duration": 0.176,
      "velocity": 0.83,
      "hand": "left"
    },
    {
      "midi": 46,
      "time": 182.471,
      "duration": 0.176,
      "velocity": 0.65,
      "hand": "left"
    },
    {
      "midi": 35,
      "time": 182.824,
      "duration": 0.176,
      "velocity": 0.73,
      "hand": "left"
    },
    {
      "midi": 38,
      "time": 182.824,
      "duration": 0.176,
      "velocity": 0.86,
      "hand": "left"
    },
    {
      "midi": 42,
      "time": 182.824,
      "duration": 0.176,
      "velocity": 0.65,
      "hand": "left"
    },
    {
      "midi": 49,
      "time": 182.824,
      "duration": 0.176,
      "velocity": 0.65,
      "hand": "left"
    },
    {
      "midi": 50,
      "time": 182.824,
      "duration": 0.176,
      "velocity": 0.79,
      "hand": "left"
    },
    {
      "midi": 62,
      "time": 182.824,
      "duration": 0.176,
      "velocity": 0.79,
      "hand": "right"
    },
    {
      "midi": 66,
      "time": 182.824,
      "duration": 0.176,
      "velocity": 0.83,
      "hand": "right"
    },
    {
      "midi": 69,
      "time": 182.824,
      "duration": 1.588,
      "velocity": 0.83,
      "hand": "right"
    },
    {
      "midi": 38,
      "time": 183,
      "duration": 0.353,
      "velocity": 0.86,
      "hand": "left"
    },
    {
      "midi": 50,
      "time": 183,
      "duration": 0.353,
      "velocity": 0.79,
      "hand": "left"
    },
    {
      "midi": 62,
      "time": 183,
      "duration": 0.353,
      "velocity": 0.79,
      "hand": "right"
    },
    {
      "midi": 66,
      "time": 183,
      "duration": 0.353,
      "velocity": 0.83,
      "hand": "right"
    },
    {
      "midi": 42,
      "time": 183.176,
      "duration": 0.176,
      "velocity": 0.51,
      "hand": "left"
    },
    {
      "midi": 42,
      "time": 183.353,
      "duration": 0.176,
      "velocity": 0.43,
      "hand": "left"
    },
    {
      "midi": 38,
      "time": 183.529,
      "duration": 0.353,
      "velocity": 0.86,
      "hand": "left"
    },
    {
      "midi": 38,
      "time": 183.529,
      "duration": 0.176,
      "velocity": 0.73,
      "hand": "left"
    },
    {
      "midi": 42,
      "time": 183.529,
      "duration": 0.176,
      "velocity": 0.58,
      "hand": "left"
    },
    {
      "midi": 50,
      "time": 183.529,
      "duration": 0.353,
      "velocity": 0.79,
      "hand": "left"
    },
    {
      "midi": 62,
      "time": 183.529,
      "duration": 0.353,
      "velocity": 0.79,
      "hand": "right"
    },
    {
      "midi": 66,
      "time": 183.529,
      "duration": 0.353,
      "velocity": 0.83,
      "hand": "right"
    },
    {
      "midi": 42,
      "time": 183.882,
      "duration": 0.176,
      "velocity": 0.51,
      "hand": "left"
    },
    {
      "midi": 35,
      "time": 184.059,
      "duration": 0.176,
      "velocity": 0.58,
      "hand": "left"
    },
    {
      "midi": 38,
      "time": 184.059,
      "duration": 0.176,
      "velocity": 0.86,
      "hand": "left"
    },
    {
      "midi": 42,
      "time": 184.059,
      "duration": 0.176,
      "velocity": 0.43,
      "hand": "left"
    },
    {
      "midi": 50,
      "time": 184.059,
      "duration": 0.176,
      "velocity": 0.79,
      "hand": "left"
    },
    {
      "midi": 62,
      "time": 184.059,
      "duration": 0.176,
      "velocity": 0.79,
      "hand": "right"
    },
    {
      "midi": 66,
      "time": 184.059,
      "duration": 0.176,
      "velocity": 0.83,
      "hand": "right"
    },
    {
      "midi": 35,
      "time": 184.235,
      "duration": 0.176,
      "velocity": 0.73,
      "hand": "left"
    },
    {
      "midi": 38,
      "time": 184.235,
      "duration": 0.529,
      "velocity": 0.86,
      "hand": "left"
    },
    {
      "midi": 42,
      "time": 184.235,
      "duration": 0.176,
      "velocity": 0.65,
      "hand": "left"
    },
    {
      "midi": 50,
      "time": 184.235,
      "duration": 0.529,
      "velocity": 0.79,
      "hand": "left"
    },
    {
      "midi": 62,
      "time": 184.235,
      "duration": 0.529,
      "velocity": 0.79,
      "hand": "right"
    },
    {
      "midi": 66,
      "time": 184.235,
      "duration": 0.529,
      "velocity": 0.83,
      "hand": "right"
    },
    {
      "midi": 69,
      "time": 184.235,
      "duration": 0.353,
      "velocity": 0.83,
      "hand": "right"
    },
    {
      "midi": 42,
      "time": 184.588,
      "duration": 0.176,
      "velocity": 0.51,
      "hand": "left"
    },
    {
      "midi": 42,
      "time": 184.765,
      "duration": 0.176,
      "velocity": 0.43,
      "hand": "left"
    },
    {
      "midi": 66,
      "time": 184.765,
      "duration": 0.176,
      "velocity": 0.83,
      "hand": "right"
    },
    {
      "midi": 38,
      "time": 184.941,
      "duration": 0.176,
      "velocity": 0.73,
      "hand": "left"
    },
    {
      "midi": 42,
      "time": 184.941,
      "duration": 0.176,
      "velocity": 0.58,
      "hand": "left"
    },
    {
      "midi": 69,
      "time": 184.941,
      "duration": 0.353,
      "velocity": 0.83,
      "hand": "right"
    },
    {
      "midi": 35,
      "time": 185.294,
      "duration": 0.176,
      "velocity": 0.58,
      "hand": "left"
    },
    {
      "midi": 42,
      "time": 185.294,
      "duration": 0.176,
      "velocity": 0.51,
      "hand": "left"
    },
    {
      "midi": 42,
      "time": 185.471,
      "duration": 0.176,
      "velocity": 0.43,
      "hand": "left"
    },
    {
      "midi": 74,
      "time": 185.471,
      "duration": 0.176,
      "velocity": 0.83,
      "hand": "right"
    },
    {
      "midi": 33,
      "time": 185.647,
      "duration": 0.176,
      "velocity": 0.86,
      "hand": "left"
    },
    {
      "midi": 35,
      "time": 185.647,
      "duration": 0.176,
      "velocity": 0.73,
      "hand": "left"
    },
    {
      "midi": 42,
      "time": 185.647,
      "duration": 0.176,
      "velocity": 0.65,
      "hand": "left"
    },
    {
      "midi": 45,
      "time": 185.647,
      "duration": 0.176,
      "velocity": 0.79,
      "hand": "left"
    },
    {
      "midi": 52,
      "time": 185.647,
      "duration": 0.176,
      "velocity": 0.86,
      "hand": "left"
    },
    {
      "midi": 64,
      "time": 185.647,
      "duration": 0.176,
      "velocity": 0.79,
      "hand": "right"
    },
    {
      "midi": 67,
      "time": 185.647,
      "duration": 0.176,
      "velocity": 0.83,
      "hand": "right"
    },
    {
      "midi": 73,
      "time": 185.647,
      "duration": 1.588,
      "velocity": 0.83,
      "hand": "right"
    },
    {
      "midi": 73,
      "time": 185.647,
      "duration": 0.882,
      "velocity": 0.86,
      "hand": "right"
    },
    {
      "midi": 33,
      "time": 185.824,
      "duration": 0.353,
      "velocity": 0.86,
      "hand": "left"
    },
    {
      "midi": 45,
      "time": 185.824,
      "duration": 0.353,
      "velocity": 0.79,
      "hand": "left"
    },
    {
      "midi": 52,
      "time": 185.824,
      "duration": 0.353,
      "velocity": 0.86,
      "hand": "left"
    },
    {
      "midi": 64,
      "time": 185.824,
      "duration": 0.353,
      "velocity": 0.79,
      "hand": "right"
    },
    {
      "midi": 67,
      "time": 185.824,
      "duration": 0.353,
      "velocity": 0.83,
      "hand": "right"
    },
    {
      "midi": 42,
      "time": 186,
      "duration": 0.176,
      "velocity": 0.51,
      "hand": "left"
    },
    {
      "midi": 42,
      "time": 186.176,
      "duration": 0.176,
      "velocity": 0.43,
      "hand": "left"
    },
    {
      "midi": 33,
      "time": 186.353,
      "duration": 0.353,
      "velocity": 0.86,
      "hand": "left"
    },
    {
      "midi": 38,
      "time": 186.353,
      "duration": 0.176,
      "velocity": 0.73,
      "hand": "left"
    },
    {
      "midi": 42,
      "time": 186.353,
      "duration": 0.176,
      "velocity": 0.58,
      "hand": "left"
    },
    {
      "midi": 45,
      "time": 186.353,
      "duration": 0.353,
      "velocity": 0.79,
      "hand": "left"
    },
    {
      "midi": 52,
      "time": 186.353,
      "duration": 0.353,
      "velocity": 0.86,
      "hand": "left"
    },
    {
      "midi": 64,
      "time": 186.353,
      "duration": 0.353,
      "velocity": 0.79,
      "hand": "right"
    },
    {
      "midi": 67,
      "time": 186.353,
      "duration": 0.353,
      "velocity": 0.83,
      "hand": "right"
    },
    {
      "midi": 42,
      "time": 186.706,
      "duration": 0.176,
      "velocity": 0.51,
      "hand": "left"
    },
    {
      "midi": 33,
      "time": 186.882,
      "duration": 0.176,
      "velocity": 0.86,
      "hand": "left"
    },
    {
      "midi": 35,
      "time": 186.882,
      "duration": 0.176,
      "velocity": 0.58,
      "hand": "left"
    },
    {
      "midi": 42,
      "time": 186.882,
      "duration": 0.176,
      "velocity": 0.43,
      "hand": "left"
    },
    {
      "midi": 45,
      "time": 186.882,
      "duration": 0.176,
      "velocity": 0.79,
      "hand": "left"
    },
    {
      "midi": 52,
      "time": 186.882,
      "duration": 0.176,
      "velocity": 0.86,
      "hand": "left"
    },
    {
      "midi": 64,
      "time": 186.882,
      "duration": 0.176,
      "velocity": 0.79,
      "hand": "right"
    },
    {
      "midi": 67,
      "time": 186.882,
      "duration": 0.176,
      "velocity": 0.83,
      "hand": "right"
    },
    {
      "midi": 33,
      "time": 187.059,
      "duration": 0.529,
      "velocity": 0.86,
      "hand": "left"
    },
    {
      "midi": 35,
      "time": 187.059,
      "duration": 0.176,
      "velocity": 0.73,
      "hand": "left"
    },
    {
      "midi": 42,
      "time": 187.059,
      "duration": 0.176,
      "velocity": 0.65,
      "hand": "left"
    },
    {
      "midi": 45,
      "time": 187.059,
      "duration": 0.529,
      "velocity": 0.79,
      "hand": "left"
    },
    {
      "midi": 52,
      "time": 187.059,
      "duration": 0.529,
      "velocity": 0.86,
      "hand": "left"
    },
    {
      "midi": 64,
      "time": 187.059,
      "duration": 0.529,
      "velocity": 0.79,
      "hand": "right"
    },
    {
      "midi": 67,
      "time": 187.059,
      "duration": 0.529,
      "velocity": 0.83,
      "hand": "right"
    },
    {
      "midi": 73,
      "time": 187.059,
      "duration": 0.529,
      "velocity": 0.83,
      "hand": "right"
    },
    {
      "midi": 35,
      "time": 187.412,
      "duration": 0.176,
      "velocity": 0.58,
      "hand": "left"
    },
    {
      "midi": 42,
      "time": 187.412,
      "duration": 0.176,
      "velocity": 0.51,
      "hand": "left"
    },
    {
      "midi": 42,
      "time": 187.588,
      "duration": 0.176,
      "velocity": 0.43,
      "hand": "left"
    },
    {
      "midi": 38,
      "time": 187.765,
      "duration": 0.176,
      "velocity": 0.73,
      "hand": "left"
    },
    {
      "midi": 42,
      "time": 187.765,
      "duration": 0.176,
      "velocity": 0.58,
      "hand": "left"
    },
    {
      "midi": 35,
      "time": 188.118,
      "duration": 0.176,
      "velocity": 0.58,
      "hand": "left"
    },
    {
      "midi": 42,
      "time": 188.118,
      "duration": 0.176,
      "velocity": 0.51,
      "hand": "left"
    },
    {
      "midi": 42,
      "time": 188.294,
      "duration": 0.176,
      "velocity": 0.43,
      "hand": "left"
    },
    {
      "midi": 35,
      "time": 188.471,
      "duration": 0.176,
      "velocity": 0.73,
      "hand": "left"
    },
    {
      "midi": 42,
      "time": 188.471,
      "duration": 0.176,
      "velocity": 0.65,
      "hand": "left"
    },
    {
      "midi": 45,
      "time": 188.471,
      "duration": 0.176,
      "velocity": 0.86,
      "hand": "left"
    },
    {
      "midi": 49,
      "time": 188.471,
      "duration": 0.176,
      "velocity": 0.86,
      "hand": "left"
    },
    {
      "midi": 57,
      "time": 188.471,
      "duration": 0.176,
      "velocity": 0.79,
      "hand": "left"
    },
    {
      "midi": 61,
      "time": 188.471,
      "duration": 0.176,
      "velocity": 0.79,
      "hand": "right"
    },
    {
      "midi": 64,
      "time": 188.471,
      "duration": 0.176,
      "velocity": 0.83,
      "hand": "right"
    },
    {
      "midi": 67,
      "time": 188.471,
      "duration": 1.588,
      "velocity": 0.83,
      "hand": "right"
    },
    {
      "midi": 45,
      "time": 188.647,
      "duration": 0.353,
      "velocity": 0.86,
      "hand": "left"
    },
    {
      "midi": 49,
      "time": 188.647,
      "duration": 0.353,
      "velocity": 0.86,
      "hand": "left"
    },
    {
      "midi": 57,
      "time": 188.647,
      "duration": 0.353,
      "velocity": 0.79,
      "hand": "left"
    },
    {
      "midi": 61,
      "time": 188.647,
      "duration": 0.353,
      "velocity": 0.79,
      "hand": "right"
    },
    {
      "midi": 64,
      "time": 188.647,
      "duration": 0.353,
      "velocity": 0.83,
      "hand": "right"
    },
    {
      "midi": 42,
      "time": 188.824,
      "duration": 0.176,
      "velocity": 0.73,
      "hand": "left"
    },
    {
      "midi": 42,
      "time": 189,
      "duration": 0.176,
      "velocity": 0.43,
      "hand": "left"
    },
    {
      "midi": 38,
      "time": 189.176,
      "duration": 0.176,
      "velocity": 0.73,
      "hand": "left"
    },
    {
      "midi": 42,
      "time": 189.176,
      "duration": 0.176,
      "velocity": 0.58,
      "hand": "left"
    },
    {
      "midi": 45,
      "time": 189.176,
      "duration": 0.353,
      "velocity": 0.86,
      "hand": "left"
    },
    {
      "midi": 49,
      "time": 189.176,
      "duration": 0.353,
      "velocity": 0.86,
      "hand": "left"
    },
    {
      "midi": 57,
      "time": 189.176,
      "duration": 0.353,
      "velocity": 0.79,
      "hand": "left"
    },
    {
      "midi": 61,
      "time": 189.176,
      "duration": 0.353,
      "velocity": 0.79,
      "hand": "right"
    },
    {
      "midi": 64,
      "time": 189.176,
      "duration": 0.353,
      "velocity": 0.83,
      "hand": "right"
    },
    {
      "midi": 42,
      "time": 189.529,
      "duration": 0.176,
      "velocity": 0.51,
      "hand": "left"
    },
    {
      "midi": 35,
      "time": 189.706,
      "duration": 0.176,
      "velocity": 0.58,
      "hand": "left"
    },
    {
      "midi": 42,
      "time": 189.706,
      "duration": 0.176,
      "velocity": 0.43,
      "hand": "left"
    },
    {
      "midi": 45,
      "time": 189.706,
      "duration": 0.176,
      "velocity": 0.86,
      "hand": "left"
    },
    {
      "midi": 49,
      "time": 189.706,
      "duration": 0.176,
      "velocity": 0.86,
      "hand": "left"
    },
    {
      "midi": 57,
      "time": 189.706,
      "duration": 0.176,
      "velocity": 0.79,
      "hand": "left"
    },
    {
      "midi": 61,
      "time": 189.706,
      "duration": 0.176,
      "velocity": 0.79,
      "hand": "right"
    },
    {
      "midi": 64,
      "time": 189.706,
      "duration": 0.176,
      "velocity": 0.83,
      "hand": "right"
    },
    {
      "midi": 35,
      "time": 189.882,
      "duration": 0.176,
      "velocity": 0.73,
      "hand": "left"
    },
    {
      "midi": 42,
      "time": 189.882,
      "duration": 0.176,
      "velocity": 0.65,
      "hand": "left"
    },
    {
      "midi": 45,
      "time": 189.882,
      "duration": 0.529,
      "velocity": 0.86,
      "hand": "left"
    },
    {
      "midi": 49,
      "time": 189.882,
      "duration": 0.529,
      "velocity": 0.86,
      "hand": "left"
    },
    {
      "midi": 57,
      "time": 189.882,
      "duration": 0.529,
      "velocity": 0.79,
      "hand": "left"
    },
    {
      "midi": 61,
      "time": 189.882,
      "duration": 0.529,
      "velocity": 0.79,
      "hand": "right"
    },
    {
      "midi": 64,
      "time": 189.882,
      "duration": 0.529,
      "velocity": 0.83,
      "hand": "right"
    },
    {
      "midi": 67,
      "time": 189.882,
      "duration": 0.353,
      "velocity": 0.83,
      "hand": "right"
    },
    {
      "midi": 42,
      "time": 190.235,
      "duration": 0.176,
      "velocity": 0.73,
      "hand": "left"
    },
    {
      "midi": 42,
      "time": 190.412,
      "duration": 0.176,
      "velocity": 0.43,
      "hand": "left"
    },
    {
      "midi": 64,
      "time": 190.412,
      "duration": 0.176,
      "velocity": 0.83,
      "hand": "right"
    },
    {
      "midi": 38,
      "time": 190.588,
      "duration": 0.176,
      "velocity": 0.73,
      "hand": "left"
    },
    {
      "midi": 42,
      "time": 190.588,
      "duration": 0.176,
      "velocity": 0.58,
      "hand": "left"
    },
    {
      "midi": 67,
      "time": 190.588,
      "duration": 0.353,
      "velocity": 0.83,
      "hand": "right"
    },
    {
      "midi": 35,
      "time": 190.941,
      "duration": 0.176,
      "velocity": 0.58,
      "hand": "left"
    },
    {
      "midi": 42,
      "time": 190.941,
      "duration": 0.176,
      "velocity": 0.51,
      "hand": "left"
    },
    {
      "midi": 42,
      "time": 191.118,
      "duration": 0.176,
      "velocity": 0.43,
      "hand": "left"
    },
    {
      "midi": 71,
      "time": 191.118,
      "duration": 0.176,
      "velocity": 0.83,
      "hand": "right"
    },
    {
      "midi": 35,
      "time": 191.294,
      "duration": 0.176,
      "velocity": 0.73,
      "hand": "left"
    },
    {
      "midi": 38,
      "time": 191.294,
      "duration": 0.176,
      "velocity": 0.86,
      "hand": "left"
    },
    {
      "midi": 42,
      "time": 191.294,
      "duration": 0.176,
      "velocity": 0.65,
      "hand": "left"
    },
    {
      "midi": 50,
      "time": 191.294,
      "duration": 0.176,
      "velocity": 0.79,
      "hand": "left"
    },
    {
      "midi": 62,
      "time": 191.294,
      "duration": 0.176,
      "velocity": 0.79,
      "hand": "right"
    },
    {
      "midi": 69,
      "time": 191.294,
      "duration": 0.882,
      "velocity": 0.83,
      "hand": "right"
    },
    {
      "midi": 38,
      "time": 191.471,
      "duration": 0.353,
      "velocity": 0.86,
      "hand": "left"
    },
    {
      "midi": 50,
      "time": 191.471,
      "duration": 0.353,
      "velocity": 0.79,
      "hand": "left"
    },
    {
      "midi": 62,
      "time": 191.471,
      "duration": 0.353,
      "velocity": 0.79,
      "hand": "right"
    },
    {
      "midi": 42,
      "time": 191.647,
      "duration": 0.176,
      "velocity": 0.51,
      "hand": "left"
    },
    {
      "midi": 42,
      "time": 191.824,
      "duration": 0.176,
      "velocity": 0.43,
      "hand": "left"
    },
    {
      "midi": 38,
      "time": 192,
      "duration": 0.353,
      "velocity": 0.86,
      "hand": "left"
    },
    {
      "midi": 38,
      "time": 192,
      "duration": 0.176,
      "velocity": 0.73,
      "hand": "left"
    },
    {
      "midi": 42,
      "time": 192,
      "duration": 0.176,
      "velocity": 0.58,
      "hand": "left"
    },
    {
      "midi": 50,
      "time": 192,
      "duration": 0.353,
      "velocity": 0.79,
      "hand": "left"
    },
    {
      "midi": 62,
      "time": 192,
      "duration": 0.353,
      "velocity": 0.79,
      "hand": "right"
    },
    {
      "midi": 42,
      "time": 192.353,
      "duration": 0.176,
      "velocity": 0.51,
      "hand": "left"
    },
    {
      "midi": 35,
      "time": 192.529,
      "duration": 0.176,
      "velocity": 0.58,
      "hand": "left"
    },
    {
      "midi": 38,
      "time": 192.529,
      "duration": 0.176,
      "velocity": 0.86,
      "hand": "left"
    },
    {
      "midi": 50,
      "time": 192.529,
      "duration": 0.176,
      "velocity": 0.79,
      "hand": "left"
    },
    {
      "midi": 62,
      "time": 192.529,
      "duration": 0.176,
      "velocity": 0.79,
      "hand": "right"
    },
    {
      "midi": 35,
      "time": 192.706,
      "duration": 0.176,
      "velocity": 0.73,
      "hand": "left"
    },
    {
      "midi": 38,
      "time": 192.706,
      "duration": 0.529,
      "velocity": 0.86,
      "hand": "left"
    },
    {
      "midi": 42,
      "time": 192.706,
      "duration": 0.176,
      "velocity": 0.65,
      "hand": "left"
    },
    {
      "midi": 50,
      "time": 192.706,
      "duration": 0.529,
      "velocity": 0.79,
      "hand": "left"
    },
    {
      "midi": 62,
      "time": 192.706,
      "duration": 0.529,
      "velocity": 0.79,
      "hand": "right"
    },
    {
      "midi": 69,
      "time": 192.706,
      "duration": 0.529,
      "velocity": 0.83,
      "hand": "right"
    },
    {
      "midi": 42,
      "time": 193.059,
      "duration": 0.176,
      "velocity": 0.51,
      "hand": "left"
    },
    {
      "midi": 42,
      "time": 193.235,
      "duration": 0.176,
      "velocity": 0.43,
      "hand": "left"
    },
    {
      "midi": 38,
      "time": 193.412,
      "duration": 0.176,
      "velocity": 0.73,
      "hand": "left"
    },
    {
      "midi": 42,
      "time": 193.412,
      "duration": 0.176,
      "velocity": 0.58,
      "hand": "left"
    },
    {
      "midi": 35,
      "time": 193.765,
      "duration": 0.176,
      "velocity": 0.58,
      "hand": "left"
    },
    {
      "midi": 42,
      "time": 193.765,
      "duration": 0.176,
      "velocity": 0.51,
      "hand": "left"
    },
    {
      "midi": 42,
      "time": 193.941,
      "duration": 0.176,
      "velocity": 0.43,
      "hand": "left"
    },
    {
      "midi": 35,
      "time": 194.118,
      "duration": 0.176,
      "velocity": 0.73,
      "hand": "left"
    },
    {
      "midi": 38,
      "time": 194.118,
      "duration": 0.529,
      "velocity": 0.86,
      "hand": "left"
    },
    {
      "midi": 42,
      "time": 194.118,
      "duration": 0.176,
      "velocity": 0.65,
      "hand": "left"
    },
    {
      "midi": 45,
      "time": 194.118,
      "duration": 0.529,
      "velocity": 0.86,
      "hand": "left"
    },
    {
      "midi": 50,
      "time": 194.118,
      "duration": 0.529,
      "velocity": 0.79,
      "hand": "left"
    },
    {
      "midi": 57,
      "time": 194.118,
      "duration": 0.529,
      "velocity": 0.79,
      "hand": "left"
    },
    {
      "midi": 66,
      "time": 194.118,
      "duration": 0.529,
      "velocity": 0.83,
      "hand": "right"
    },
    {
      "midi": 74,
      "time": 194.118,
      "duration": 0.529,
      "velocity": 0.83,
      "hand": "right"
    },
    {
      "midi": 42,
      "time": 194.471,
      "duration": 0.176,
      "velocity": 0.51,
      "hand": "left"
    },
    {
      "midi": 42,
      "time": 194.647,
      "duration": 0.176,
      "velocity": 0.43,
      "hand": "left"
    },
    {
      "midi": 38,
      "time": 194.824,
      "duration": 0.353,
      "velocity": 0.86,
      "hand": "left"
    },
    {
      "midi": 38,
      "time": 194.824,
      "duration": 0.176,
      "velocity": 0.73,
      "hand": "left"
    },
    {
      "midi": 42,
      "time": 194.824,
      "duration": 0.176,
      "velocity": 0.58,
      "hand": "left"
    },
    {
      "midi": 45,
      "time": 194.824,
      "duration": 0.353,
      "velocity": 0.86,
      "hand": "left"
    },
    {
      "midi": 50,
      "time": 194.824,
      "duration": 0.353,
      "velocity": 0.79,
      "hand": "left"
    },
    {
      "midi": 57,
      "time": 194.824,
      "duration": 0.353,
      "velocity": 0.79,
      "hand": "left"
    },
    {
      "midi": 66,
      "time": 194.824,
      "duration": 0.353,
      "velocity": 0.83,
      "hand": "right"
    },
    {
      "midi": 74,
      "time": 194.824,
      "duration": 0.353,
      "velocity": 0.83,
      "hand": "right"
    },
    {
      "midi": 42,
      "time": 195.176,
      "duration": 0.176,
      "velocity": 0.51,
      "hand": "left"
    },
    {
      "midi": 35,
      "time": 195.353,
      "duration": 0.176,
      "velocity": 0.58,
      "hand": "left"
    },
    {
      "midi": 38,
      "time": 195.353,
      "duration": 0.176,
      "velocity": 0.86,
      "hand": "left"
    },
    {
      "midi": 42,
      "time": 195.353,
      "duration": 0.176,
      "velocity": 0.43,
      "hand": "left"
    },
    {
      "midi": 45,
      "time": 195.353,
      "duration": 0.176,
      "velocity": 0.86,
      "hand": "left"
    },
    {
      "midi": 50,
      "time": 195.353,
      "duration": 0.176,
      "velocity": 0.79,
      "hand": "left"
    },
    {
      "midi": 57,
      "time": 195.353,
      "duration": 0.176,
      "velocity": 0.79,
      "hand": "left"
    },
    {
      "midi": 66,
      "time": 195.353,
      "duration": 0.176,
      "velocity": 0.83,
      "hand": "right"
    },
    {
      "midi": 74,
      "time": 195.353,
      "duration": 0.176,
      "velocity": 0.83,
      "hand": "right"
    },
    {
      "midi": 35,
      "time": 195.529,
      "duration": 0.176,
      "velocity": 0.73,
      "hand": "left"
    },
    {
      "midi": 42,
      "time": 195.529,
      "duration": 0.529,
      "velocity": 0.86,
      "hand": "left"
    },
    {
      "midi": 42,
      "time": 195.529,
      "duration": 0.176,
      "velocity": 0.65,
      "hand": "left"
    },
    {
      "midi": 45,
      "time": 195.529,
      "duration": 0.529,
      "velocity": 0.86,
      "hand": "left"
    },
    {
      "midi": 54,
      "time": 195.529,
      "duration": 0.529,
      "velocity": 0.79,
      "hand": "left"
    },
    {
      "midi": 57,
      "time": 195.529,
      "duration": 0.529,
      "velocity": 0.79,
      "hand": "left"
    },
    {
      "midi": 69,
      "time": 195.529,
      "duration": 0.529,
      "velocity": 0.83,
      "hand": "right"
    },
    {
      "midi": 74,
      "time": 195.529,
      "duration": 0.529,
      "velocity": 0.83,
      "hand": "right"
    },
    {
      "midi": 46,
      "time": 195.882,
      "duration": 0.176,
      "velocity": 0.51,
      "hand": "left"
    },
    {
      "midi": 38,
      "time": 196.235,
      "duration": 0.176,
      "velocity": 0.73,
      "hand": "left"
    },
    {
      "midi": 42,
      "time": 196.235,
      "duration": 0.353,
      "velocity": 0.86,
      "hand": "left"
    },
    {
      "midi": 42,
      "time": 196.235,
      "duration": 0.176,
      "velocity": 0.58,
      "hand": "left"
    },
    {
      "midi": 50,
      "time": 196.235,
      "duration": 0.353,
      "velocity": 0.86,
      "hand": "left"
    },
    {
      "midi": 54,
      "time": 196.235,
      "duration": 0.353,
      "velocity": 0.79,
      "hand": "left"
    },
    {
      "midi": 62,
      "time": 196.235,
      "duration": 0.353,
      "velocity": 0.79,
      "hand": "right"
    },
    {
      "midi": 69,
      "time": 196.235,
      "duration": 0.353,
      "velocity": 0.83,
      "hand": "right"
    },
    {
      "midi": 74,
      "time": 196.235,
      "duration": 0.353,
      "velocity": 0.83,
      "hand": "right"
    },
    {
      "midi": 35,
      "time": 196.588,
      "duration": 0.176,
      "velocity": 0.58,
      "hand": "left"
    },
    {
      "midi": 42,
      "time": 196.588,
      "duration": 0.176,
      "velocity": 0.51,
      "hand": "left"
    },
    {
      "midi": 42,
      "time": 196.765,
      "duration": 0.176,
      "velocity": 0.86,
      "hand": "left"
    },
    {
      "midi": 50,
      "time": 196.765,
      "duration": 0.176,
      "velocity": 0.86,
      "hand": "left"
    },
    {
      "midi": 54,
      "time": 196.765,
      "duration": 0.176,
      "velocity": 0.79,
      "hand": "left"
    },
    {
      "midi": 62,
      "time": 196.765,
      "duration": 0.176,
      "velocity": 0.79,
      "hand": "right"
    },
    {
      "midi": 69,
      "time": 196.765,
      "duration": 0.176,
      "velocity": 0.83,
      "hand": "right"
    },
    {
      "midi": 73,
      "time": 196.765,
      "duration": 0.176,
      "velocity": 0.83,
      "hand": "right"
    },
    {
      "midi": 35,
      "time": 196.941,
      "duration": 0.176,
      "velocity": 0.73,
      "hand": "left"
    },
    {
      "midi": 42,
      "time": 196.941,
      "duration": 0.176,
      "velocity": 0.65,
      "hand": "left"
    },
    {
      "midi": 43,
      "time": 196.941,
      "duration": 0.529,
      "velocity": 0.86,
      "hand": "left"
    },
    {
      "midi": 50,
      "time": 196.941,
      "duration": 0.529,
      "velocity": 0.86,
      "hand": "left"
    },
    {
      "midi": 55,
      "time": 196.941,
      "duration": 0.529,
      "velocity": 0.79,
      "hand": "left"
    },
    {
      "midi": 62,
      "time": 196.941,
      "duration": 0.529,
      "velocity": 0.79,
      "hand": "right"
    },
    {
      "midi": 67,
      "time": 196.941,
      "duration": 0.529,
      "velocity": 0.83,
      "hand": "right"
    },
    {
      "midi": 71,
      "time": 196.941,
      "duration": 0.882,
      "velocity": 0.83,
      "hand": "right"
    },
    {
      "midi": 42,
      "time": 197.294,
      "duration": 0.176,
      "velocity": 0.51,
      "hand": "left"
    },
    {
      "midi": 42,
      "time": 197.471,
      "duration": 0.176,
      "velocity": 0.43,
      "hand": "left"
    },
    {
      "midi": 38,
      "time": 197.647,
      "duration": 0.176,
      "velocity": 0.73,
      "hand": "left"
    },
    {
      "midi": 42,
      "time": 197.647,
      "duration": 0.176,
      "velocity": 0.58,
      "hand": "left"
    },
    {
      "midi": 43,
      "time": 197.647,
      "duration": 0.353,
      "velocity": 0.86,
      "hand": "left"
    },
    {
      "midi": 50,
      "time": 197.647,
      "duration": 0.353,
      "velocity": 0.86,
      "hand": "left"
    },
    {
      "midi": 55,
      "time": 197.647,
      "duration": 0.353,
      "velocity": 0.79,
      "hand": "left"
    },
    {
      "midi": 62,
      "time": 197.647,
      "duration": 0.353,
      "velocity": 0.79,
      "hand": "right"
    },
    {
      "midi": 67,
      "time": 197.647,
      "duration": 0.353,
      "velocity": 0.83,
      "hand": "right"
    },
    {
      "midi": 42,
      "time": 198,
      "duration": 0.176,
      "velocity": 0.51,
      "hand": "left"
    },
    {
      "midi": 35,
      "time": 198.176,
      "duration": 0.176,
      "velocity": 0.58,
      "hand": "left"
    },
    {
      "midi": 38,
      "time": 198.176,
      "duration": 0.176,
      "velocity": 0.26,
      "hand": "left"
    },
    {
      "midi": 43,
      "time": 198.176,
      "duration": 0.176,
      "velocity": 0.86,
      "hand": "left"
    },
    {
      "midi": 50,
      "time": 198.176,
      "duration": 0.176,
      "velocity": 0.86,
      "hand": "left"
    },
    {
      "midi": 55,
      "time": 198.176,
      "duration": 0.176,
      "velocity": 0.79,
      "hand": "left"
    },
    {
      "midi": 62,
      "time": 198.176,
      "duration": 0.176,
      "velocity": 0.79,
      "hand": "right"
    },
    {
      "midi": 67,
      "time": 198.176,
      "duration": 0.176,
      "velocity": 0.83,
      "hand": "right"
    },
    {
      "midi": 35,
      "time": 198.353,
      "duration": 0.176,
      "velocity": 0.73,
      "hand": "left"
    },
    {
      "midi": 42,
      "time": 198.353,
      "duration": 0.176,
      "velocity": 0.65,
      "hand": "left"
    },
    {
      "midi": 47,
      "time": 198.353,
      "duration": 0.529,
      "velocity": 0.86,
      "hand": "left"
    },
    {
      "midi": 50,
      "time": 198.353,
      "duration": 0.529,
      "velocity": 0.86,
      "hand": "left"
    },
    {
      "midi": 59,
      "time": 198.353,
      "duration": 0.529,
      "velocity": 0.79,
      "hand": "left"
    },
    {
      "midi": 62,
      "time": 198.353,
      "duration": 0.529,
      "velocity": 0.79,
      "hand": "right"
    },
    {
      "midi": 67,
      "time": 198.353,
      "duration": 0.529,
      "velocity": 0.83,
      "hand": "right"
    },
    {
      "midi": 42,
      "time": 198.706,
      "duration": 0.176,
      "velocity": 0.51,
      "hand": "left"
    },
    {
      "midi": 42,
      "time": 198.882,
      "duration": 0.176,
      "velocity": 0.43,
      "hand": "left"
    },
    {
      "midi": 38,
      "time": 199.059,
      "duration": 0.176,
      "velocity": 0.73,
      "hand": "left"
    },
    {
      "midi": 42,
      "time": 199.059,
      "duration": 0.176,
      "velocity": 0.58,
      "hand": "left"
    },
    {
      "midi": 43,
      "time": 199.059,
      "duration": 0.353,
      "velocity": 0.86,
      "hand": "left"
    },
    {
      "midi": 50,
      "time": 199.059,
      "duration": 0.353,
      "velocity": 0.86,
      "hand": "left"
    },
    {
      "midi": 55,
      "time": 199.059,
      "duration": 0.353,
      "velocity": 0.79,
      "hand": "left"
    },
    {
      "midi": 62,
      "time": 199.059,
      "duration": 0.353,
      "velocity": 0.79,
      "hand": "right"
    },
    {
      "midi": 67,
      "time": 199.059,
      "duration": 0.353,
      "velocity": 0.83,
      "hand": "right"
    },
    {
      "midi": 71,
      "time": 199.059,
      "duration": 0.529,
      "velocity": 0.83,
      "hand": "right"
    },
    {
      "midi": 35,
      "time": 199.412,
      "duration": 0.176,
      "velocity": 0.58,
      "hand": "left"
    },
    {
      "midi": 42,
      "time": 199.412,
      "duration": 0.176,
      "velocity": 0.51,
      "hand": "left"
    },
    {
      "midi": 42,
      "time": 199.588,
      "duration": 0.176,
      "velocity": 0.43,
      "hand": "left"
    },
    {
      "midi": 43,
      "time": 199.588,
      "duration": 0.176,
      "velocity": 0.86,
      "hand": "left"
    },
    {
      "midi": 50,
      "time": 199.588,
      "duration": 0.176,
      "velocity": 0.86,
      "hand": "left"
    },
    {
      "midi": 55,
      "time": 199.588,
      "duration": 0.176,
      "velocity": 0.79,
      "hand": "left"
    },
    {
      "midi": 62,
      "time": 199.588,
      "duration": 0.176,
      "velocity": 0.79,
      "hand": "right"
    },
    {
      "midi": 67,
      "time": 199.588,
      "duration": 0.176,
      "velocity": 0.83,
      "hand": "right"
    },
    {
      "midi": 35,
      "time": 199.765,
      "duration": 0.176,
      "velocity": 0.65,
      "hand": "left"
    },
    {
      "midi": 42,
      "time": 199.765,
      "duration": 0.176,
      "velocity": 0.58,
      "hand": "left"
    },
    {
      "midi": 45,
      "time": 199.765,
      "duration": 0.529,
      "velocity": 0.86,
      "hand": "left"
    },
    {
      "midi": 50,
      "time": 199.765,
      "duration": 0.529,
      "velocity": 0.86,
      "hand": "left"
    },
    {
      "midi": 57,
      "time": 199.765,
      "duration": 0.529,
      "velocity": 0.79,
      "hand": "left"
    },
    {
      "midi": 62,
      "time": 199.765,
      "duration": 0.529,
      "velocity": 0.79,
      "hand": "right"
    },
    {
      "midi": 66,
      "time": 199.765,
      "duration": 0.529,
      "velocity": 0.83,
      "hand": "right"
    },
    {
      "midi": 69,
      "time": 199.765,
      "duration": 0.529,
      "velocity": 0.83,
      "hand": "right"
    },
    {
      "midi": 42,
      "time": 200.118,
      "duration": 0.176,
      "velocity": 0.36,
      "hand": "left"
    },
    {
      "midi": 42,
      "time": 200.294,
      "duration": 0.176,
      "velocity": 0.73,
      "hand": "left"
    },
    {
      "midi": 33,
      "time": 200.471,
      "duration": 0.353,
      "velocity": 0.86,
      "hand": "left"
    },
    {
      "midi": 38,
      "time": 200.471,
      "duration": 0.176,
      "velocity": 0.73,
      "hand": "left"
    },
    {
      "midi": 45,
      "time": 200.471,
      "duration": 0.353,
      "velocity": 0.79,
      "hand": "left"
    },
    {
      "midi": 46,
      "time": 200.471,
      "duration": 0.176,
      "velocity": 0.73,
      "hand": "left"
    },
    {
      "midi": 57,
      "time": 200.471,
      "duration": 0.353,
      "velocity": 0.79,
      "hand": "left"
    },
    {
      "midi": 62,
      "time": 200.471,
      "duration": 0.353,
      "velocity": 0.83,
      "hand": "right"
    },
    {
      "midi": 66,
      "time": 200.471,
      "duration": 0.353,
      "velocity": 0.83,
      "hand": "right"
    },
    {
      "midi": 35,
      "time": 201,
      "duration": 0.176,
      "velocity": 0.86,
      "hand": "left"
    },
    {
      "midi": 42,
      "time": 201,
      "duration": 0.176,
      "velocity": 0.86,
      "hand": "left"
    },
    {
      "midi": 47,
      "time": 201,
      "duration": 0.176,
      "velocity": 0.79,
      "hand": "left"
    },
    {
      "midi": 54,
      "time": 201,
      "duration": 0.176,
      "velocity": 0.79,
      "hand": "left"
    },
    {
      "midi": 62,
      "time": 201,
      "duration": 0.176,
      "velocity": 0.83,
      "hand": "right"
    },
    {
      "midi": 33,
      "time": 201.176,
      "duration": 0.529,
      "velocity": 0.86,
      "hand": "left"
    },
    {
      "midi": 38,
      "time": 201.176,
      "duration": 0.176,
      "velocity": 0.73,
      "hand": "left"
    },
    {
      "midi": 45,
      "time": 201.176,
      "duration": 0.529,
      "velocity": 0.79,
      "hand": "left"
    },
    {
      "midi": 57,
      "time": 201.176,
      "duration": 0.529,
      "velocity": 0.79,
      "hand": "left"
    },
    {
      "midi": 62,
      "time": 201.176,
      "duration": 0.529,
      "velocity": 0.83,
      "hand": "right"
    },
    {
      "midi": 64,
      "time": 201.176,
      "duration": 0.529,
      "velocity": 0.83,
      "hand": "right"
    },
    {
      "midi": 38,
      "time": 201.353,
      "duration": 0.176,
      "velocity": 0.43,
      "hand": "left"
    },
    {
      "midi": 35,
      "time": 201.706,
      "duration": 0.176,
      "velocity": 0.65,
      "hand": "left"
    },
    {
      "midi": 33,
      "time": 201.882,
      "duration": 0.353,
      "velocity": 0.86,
      "hand": "left"
    },
    {
      "midi": 38,
      "time": 201.882,
      "duration": 0.176,
      "velocity": 0.73,
      "hand": "left"
    },
    {
      "midi": 45,
      "time": 201.882,
      "duration": 0.353,
      "velocity": 0.79,
      "hand": "left"
    },
    {
      "midi": 57,
      "time": 201.882,
      "duration": 0.353,
      "velocity": 0.79,
      "hand": "left"
    },
    {
      "midi": 61,
      "time": 201.882,
      "duration": 0.353,
      "velocity": 0.83,
      "hand": "right"
    },
    {
      "midi": 66,
      "time": 201.882,
      "duration": 0.353,
      "velocity": 0.83,
      "hand": "right"
    },
    {
      "midi": 38,
      "time": 202.059,
      "duration": 0.176,
      "velocity": 0.43,
      "hand": "left"
    },
    {
      "midi": 41,
      "time": 202.235,
      "duration": 0.176,
      "velocity": 0.83,
      "hand": "left"
    },
    {
      "midi": 33,
      "time": 202.412,
      "duration": 0.176,
      "velocity": 0.86,
      "hand": "left"
    },
    {
      "midi": 43,
      "time": 202.412,
      "duration": 0.176,
      "velocity": 0.86,
      "hand": "left"
    },
    {
      "midi": 45,
      "time": 202.412,
      "duration": 0.176,
      "velocity": 0.79,
      "hand": "left"
    },
    {
      "midi": 55,
      "time": 202.412,
      "duration": 0.176,
      "velocity": 0.79,
      "hand": "left"
    },
    {
      "midi": 61,
      "time": 202.412,
      "duration": 0.176,
      "velocity": 0.83,
      "hand": "right"
    },
    {
      "midi": 64,
      "time": 202.412,
      "duration": 0.176,
      "velocity": 0.83,
      "hand": "right"
    },
    {
      "midi": 35,
      "time": 202.588,
      "duration": 0.176,
      "velocity": 0.73,
      "hand": "left"
    },
    {
      "midi": 38,
      "time": 202.588,
      "duration": 1.588,
      "velocity": 0.86,
      "hand": "left"
    },
    {
      "midi": 49,
      "time": 202.588,
      "duration": 0.176,
      "velocity": 0.65,
      "hand": "left"
    },
    {
      "midi": 50,
      "time": 202.588,
      "duration": 1.588,
      "velocity": 0.79,
      "hand": "left"
    },
    {
      "midi": 62,
      "time": 202.588,
      "duration": 1.588,
      "velocity": 0.83,
      "hand": "right"
    },
    {
      "midi": 62,
      "time": 202.588,
      "duration": 2.294,
      "velocity": 0.86,
      "hand": "right"
    },
    {
      "midi": 38,
      "time": 203.118,
      "duration": 0.176,
      "velocity": 0.51,
      "hand": "left"
    },
    {
      "midi": 38,
      "time": 203.294,
      "duration": 0.176,
      "velocity": 0.83,
      "hand": "left"
    },
    {
      "midi": 43,
      "time": 203.294,
      "duration": 0.529,
      "velocity": 0.86,
      "hand": "left"
    },
    {
      "midi": 55,
      "time": 203.294,
      "duration": 0.529,
      "velocity": 0.79,
      "hand": "left"
    },
    {
      "midi": 59,
      "time": 203.294,
      "duration": 0.529,
      "velocity": 0.83,
      "hand": "left"
    },
    {
      "midi": 35,
      "time": 203.471,
      "duration": 0.176,
      "velocity": 0.65,
      "hand": "left"
    },
    {
      "midi": 48,
      "time": 203.647,
      "duration": 0.176,
      "velocity": 0.73,
      "hand": "left"
    },
    {
      "midi": 38,
      "time": 204,
      "duration": 0.529,
      "velocity": 0.86,
      "hand": "left"
    },
    {
      "midi": 42,
      "time": 204,
      "duration": 0.529,
      "velocity": 0.86,
      "hand": "left"
    },
    {
      "midi": 50,
      "time": 204,
      "duration": 0.529,
      "velocity": 0.79,
      "hand": "left"
    },
    {
      "midi": 54,
      "time": 204,
      "duration": 0.529,
      "velocity": 0.79,
      "hand": "left"
    },
    {
      "midi": 57,
      "time": 204,
      "duration": 0.529,
      "velocity": 0.83,
      "hand": "left"
    },
    {
      "midi": 62,
      "time": 204,
      "duration": 0.529,
      "velocity": 0.83,
      "hand": "right"
    },
    {
      "midi": 45,
      "time": 204.176,
      "duration": 0.176,
      "velocity": 0.83,
      "hand": "left"
    },
    {
      "midi": 41,
      "time": 204.706,
      "duration": 0.176,
      "velocity": 0.93,
      "hand": "left"
    },
    {
      "midi": 35,
      "time": 205.059,
      "duration": 0.176,
      "velocity": 0.58,
      "hand": "left"
    },
    {
      "midi": 35,
      "time": 205.412,
      "duration": 0.176,
      "velocity": 0.73,
      "hand": "left"
    },
    {
      "midi": 49,
      "time": 205.412,
      "duration": 0.176,
      "velocity": 0.65,
      "hand": "left"
    },
    {
      "midi": 59,
      "time": 205.412,
      "duration": 1.941,
      "velocity": 0.73,
      "hand": "left"
    }
  ],
  "arrangements": {
    "easy": [
      {
        "midi": 37,
        "time": 0,
        "duration": 0.706,
        "velocity": 0.61,
        "hand": "right"
      },
      {
        "midi": 37,
        "time": 1.412,
        "duration": 0.706,
        "velocity": 0.61,
        "hand": "right"
      },
      {
        "midi": 66,
        "time": 2.824,
        "duration": 0.529,
        "velocity": 0.83,
        "hand": "right"
      },
      {
        "midi": 66,
        "time": 3.529,
        "duration": 0.353,
        "velocity": 0.83,
        "hand": "right"
      },
      {
        "midi": 65,
        "time": 4.059,
        "duration": 0.235,
        "velocity": 0.83,
        "hand": "right"
      },
      {
        "midi": 66,
        "time": 4.235,
        "duration": 0.529,
        "velocity": 0.83,
        "hand": "right"
      },
      {
        "midi": 66,
        "time": 4.941,
        "duration": 0.353,
        "velocity": 0.83,
        "hand": "right"
      },
      {
        "midi": 67,
        "time": 5.471,
        "duration": 0.235,
        "velocity": 0.83,
        "hand": "right"
      },
      {
        "midi": 69,
        "time": 5.647,
        "duration": 0.882,
        "velocity": 0.83,
        "hand": "right"
      },
      {
        "midi": 42,
        "time": 6,
        "duration": 0.235,
        "velocity": 0.51,
        "hand": "right"
      },
      {
        "midi": 42,
        "time": 6.353,
        "duration": 0.235,
        "velocity": 0.58,
        "hand": "right"
      },
      {
        "midi": 42,
        "time": 6.706,
        "duration": 0.235,
        "velocity": 0.51,
        "hand": "right"
      },
      {
        "midi": 69,
        "time": 7.059,
        "duration": 0.529,
        "velocity": 0.83,
        "hand": "right"
      },
      {
        "midi": 42,
        "time": 7.412,
        "duration": 0.235,
        "velocity": 0.51,
        "hand": "right"
      },
      {
        "midi": 69,
        "time": 7.765,
        "duration": 0.353,
        "velocity": 0.83,
        "hand": "right"
      },
      {
        "midi": 42,
        "time": 8.118,
        "duration": 0.235,
        "velocity": 0.51,
        "hand": "right"
      },
      {
        "midi": 66,
        "time": 8.294,
        "duration": 0.235,
        "velocity": 0.83,
        "hand": "right"
      },
      {
        "midi": 64,
        "time": 8.471,
        "duration": 0.529,
        "velocity": 0.83,
        "hand": "right"
      },
      {
        "midi": 42,
        "time": 8.824,
        "duration": 0.235,
        "velocity": 0.51,
        "hand": "right"
      },
      {
        "midi": 64,
        "time": 9.176,
        "duration": 0.529,
        "velocity": 0.83,
        "hand": "right"
      },
      {
        "midi": 42,
        "time": 9.529,
        "duration": 0.235,
        "velocity": 0.51,
        "hand": "right"
      },
      {
        "midi": 42,
        "time": 9.706,
        "duration": 0.235,
        "velocity": 0.43,
        "hand": "right"
      },
      {
        "midi": 66,
        "time": 9.882,
        "duration": 0.529,
        "velocity": 0.83,
        "hand": "right"
      },
      {
        "midi": 42,
        "time": 10.235,
        "duration": 0.235,
        "velocity": 0.51,
        "hand": "right"
      },
      {
        "midi": 67,
        "time": 10.588,
        "duration": 0.353,
        "velocity": 0.83,
        "hand": "right"
      },
      {
        "midi": 42,
        "time": 10.941,
        "duration": 0.235,
        "velocity": 0.51,
        "hand": "right"
      },
      {
        "midi": 66,
        "time": 11.118,
        "duration": 0.235,
        "velocity": 0.83,
        "hand": "right"
      },
      {
        "midi": 64,
        "time": 11.294,
        "duration": 1.412,
        "velocity": 0.83,
        "hand": "right"
      },
      {
        "midi": 42,
        "time": 11.647,
        "duration": 0.235,
        "velocity": 0.51,
        "hand": "right"
      },
      {
        "midi": 42,
        "time": 12,
        "duration": 0.235,
        "velocity": 0.58,
        "hand": "right"
      },
      {
        "midi": 42,
        "time": 12.353,
        "duration": 0.235,
        "velocity": 0.51,
        "hand": "right"
      },
      {
        "midi": 42,
        "time": 12.706,
        "duration": 0.235,
        "velocity": 0.65,
        "hand": "right"
      },
      {
        "midi": 42,
        "time": 13.059,
        "duration": 0.235,
        "velocity": 0.51,
        "hand": "right"
      },
      {
        "midi": 42,
        "time": 13.412,
        "duration": 0.235,
        "velocity": 0.58,
        "hand": "right"
      },
      {
        "midi": 42,
        "time": 13.765,
        "duration": 0.235,
        "velocity": 0.51,
        "hand": "right"
      },
      {
        "midi": 66,
        "time": 14.118,
        "duration": 0.529,
        "velocity": 0.83,
        "hand": "right"
      },
      {
        "midi": 42,
        "time": 14.471,
        "duration": 0.235,
        "velocity": 0.51,
        "hand": "right"
      },
      {
        "midi": 66,
        "time": 14.824,
        "duration": 0.353,
        "velocity": 0.83,
        "hand": "right"
      },
      {
        "midi": 42,
        "time": 15.176,
        "duration": 0.235,
        "velocity": 0.51,
        "hand": "right"
      },
      {
        "midi": 65,
        "time": 15.353,
        "duration": 0.235,
        "velocity": 0.83,
        "hand": "right"
      },
      {
        "midi": 66,
        "time": 15.529,
        "duration": 0.529,
        "velocity": 0.83,
        "hand": "right"
      },
      {
        "midi": 42,
        "time": 15.882,
        "duration": 0.235,
        "velocity": 0.51,
        "hand": "right"
      },
      {
        "midi": 66,
        "time": 16.235,
        "duration": 0.353,
        "velocity": 0.83,
        "hand": "right"
      },
      {
        "midi": 42,
        "time": 16.588,
        "duration": 0.235,
        "velocity": 0.51,
        "hand": "right"
      },
      {
        "midi": 67,
        "time": 16.765,
        "duration": 0.235,
        "velocity": 0.83,
        "hand": "right"
      },
      {
        "midi": 69,
        "time": 16.941,
        "duration": 0.882,
        "velocity": 0.83,
        "hand": "right"
      },
      {
        "midi": 42,
        "time": 17.294,
        "duration": 0.235,
        "velocity": 0.51,
        "hand": "right"
      },
      {
        "midi": 42,
        "time": 17.647,
        "duration": 0.235,
        "velocity": 0.58,
        "hand": "right"
      },
      {
        "midi": 42,
        "time": 18,
        "duration": 0.235,
        "velocity": 0.51,
        "hand": "right"
      },
      {
        "midi": 69,
        "time": 18.353,
        "duration": 0.529,
        "velocity": 0.83,
        "hand": "right"
      },
      {
        "midi": 42,
        "time": 18.706,
        "duration": 0.235,
        "velocity": 0.51,
        "hand": "right"
      },
      {
        "midi": 69,
        "time": 19.059,
        "duration": 0.353,
        "velocity": 0.83,
        "hand": "right"
      },
      {
        "midi": 42,
        "time": 19.412,
        "duration": 0.235,
        "velocity": 0.51,
        "hand": "right"
      },
      {
        "midi": 66,
        "time": 19.588,
        "duration": 0.235,
        "velocity": 0.83,
        "hand": "right"
      },
      {
        "midi": 64,
        "time": 19.765,
        "duration": 0.529,
        "velocity": 0.83,
        "hand": "right"
      },
      {
        "midi": 42,
        "time": 20.118,
        "duration": 0.235,
        "velocity": 0.51,
        "hand": "right"
      },
      {
        "midi": 64,
        "time": 20.471,
        "duration": 0.235,
        "velocity": 0.83,
        "hand": "right"
      },
      {
        "midi": 64,
        "time": 20.824,
        "duration": 0.235,
        "velocity": 0.83,
        "hand": "right"
      },
      {
        "midi": 64,
        "time": 21.176,
        "duration": 0.529,
        "velocity": 0.83,
        "hand": "right"
      },
      {
        "midi": 42,
        "time": 21.529,
        "duration": 0.235,
        "velocity": 0.51,
        "hand": "right"
      },
      {
        "midi": 66,
        "time": 21.882,
        "duration": 0.353,
        "velocity": 0.83,
        "hand": "right"
      },
      {
        "midi": 42,
        "time": 22.235,
        "duration": 0.235,
        "velocity": 0.51,
        "hand": "right"
      },
      {
        "midi": 64,
        "time": 22.412,
        "duration": 0.235,
        "velocity": 0.83,
        "hand": "right"
      },
      {
        "midi": 62,
        "time": 22.588,
        "duration": 1.412,
        "velocity": 0.83,
        "hand": "right"
      },
      {
        "midi": 38,
        "time": 23.118,
        "duration": 0.235,
        "velocity": 0.51,
        "hand": "right"
      },
      {
        "midi": 35,
        "time": 23.471,
        "duration": 0.235,
        "velocity": 0.65,
        "hand": "right"
      },
      {
        "midi": 48,
        "time": 23.647,
        "duration": 0.235,
        "velocity": 0.73,
        "hand": "right"
      },
      {
        "midi": 45,
        "time": 24.176,
        "duration": 0.235,
        "velocity": 0.83,
        "hand": "right"
      },
      {
        "midi": 41,
        "time": 24.706,
        "duration": 0.235,
        "velocity": 0.93,
        "hand": "right"
      },
      {
        "midi": 35,
        "time": 25.059,
        "duration": 0.235,
        "velocity": 0.58,
        "hand": "right"
      },
      {
        "midi": 71,
        "time": 25.235,
        "duration": 0.529,
        "velocity": 0.83,
        "hand": "right"
      },
      {
        "midi": 42,
        "time": 25.588,
        "duration": 0.235,
        "velocity": 0.51,
        "hand": "right"
      },
      {
        "midi": 71,
        "time": 25.941,
        "duration": 0.353,
        "velocity": 0.83,
        "hand": "right"
      },
      {
        "midi": 42,
        "time": 26.294,
        "duration": 0.235,
        "velocity": 0.51,
        "hand": "right"
      },
      {
        "midi": 71,
        "time": 26.471,
        "duration": 0.235,
        "velocity": 0.83,
        "hand": "right"
      },
      {
        "midi": 42,
        "time": 27,
        "duration": 0.235,
        "velocity": 0.51,
        "hand": "right"
      },
      {
        "midi": 71,
        "time": 27.353,
        "duration": 0.353,
        "velocity": 0.83,
        "hand": "right"
      },
      {
        "midi": 42,
        "time": 27.706,
        "duration": 0.235,
        "velocity": 0.51,
        "hand": "right"
      },
      {
        "midi": 67,
        "time": 27.882,
        "duration": 0.235,
        "velocity": 0.83,
        "hand": "right"
      },
      {
        "midi": 66,
        "time": 28.059,
        "duration": 0.882,
        "velocity": 0.83,
        "hand": "right"
      },
      {
        "midi": 42,
        "time": 28.412,
        "duration": 0.235,
        "velocity": 0.51,
        "hand": "right"
      },
      {
        "midi": 42,
        "time": 28.765,
        "duration": 0.235,
        "velocity": 0.58,
        "hand": "right"
      },
      {
        "midi": 42,
        "time": 29.118,
        "duration": 0.235,
        "velocity": 0.51,
        "hand": "right"
      },
      {
        "midi": 69,
        "time": 29.471,
        "duration": 0.529,
        "velocity": 0.83,
        "hand": "right"
      },
      {
        "midi": 42,
        "time": 29.824,
        "duration": 0.235,
        "velocity": 0.51,
        "hand": "right"
      },
      {
        "midi": 42,
        "time": 30.176,
        "duration": 0.235,
        "velocity": 0.58,
        "hand": "right"
      },
      {
        "midi": 42,
        "time": 30.529,
        "duration": 0.235,
        "velocity": 0.51,
        "hand": "right"
      },
      {
        "midi": 71,
        "time": 30.882,
        "duration": 0.529,
        "velocity": 0.83,
        "hand": "right"
      },
      {
        "midi": 42,
        "time": 31.235,
        "duration": 0.235,
        "velocity": 0.51,
        "hand": "right"
      },
      {
        "midi": 71,
        "time": 31.588,
        "duration": 0.353,
        "velocity": 0.83,
        "hand": "right"
      },
      {
        "midi": 42,
        "time": 31.941,
        "duration": 0.235,
        "velocity": 0.51,
        "hand": "right"
      },
      {
        "midi": 71,
        "time": 32.118,
        "duration": 0.235,
        "velocity": 0.83,
        "hand": "right"
      },
      {
        "midi": 74,
        "time": 32.647,
        "duration": 0.235,
        "velocity": 0.83,
        "hand": "right"
      },
      {
        "midi": 73,
        "time": 33,
        "duration": 0.235,
        "velocity": 0.83,
        "hand": "right"
      },
      {
        "midi": 71,
        "time": 33.353,
        "duration": 0.235,
        "velocity": 0.83,
        "hand": "right"
      },
      {
        "midi": 69,
        "time": 33.706,
        "duration": 0.882,
        "velocity": 0.83,
        "hand": "right"
      },
      {
        "midi": 42,
        "time": 34.059,
        "duration": 0.235,
        "velocity": 0.51,
        "hand": "right"
      },
      {
        "midi": 42,
        "time": 34.412,
        "duration": 0.235,
        "velocity": 0.58,
        "hand": "right"
      },
      {
        "midi": 42,
        "time": 34.765,
        "duration": 0.235,
        "velocity": 0.51,
        "hand": "right"
      },
      {
        "midi": 67,
        "time": 35.118,
        "duration": 0.529,
        "velocity": 0.83,
        "hand": "right"
      },
      {
        "midi": 42,
        "time": 35.471,
        "duration": 0.235,
        "velocity": 0.51,
        "hand": "right"
      },
      {
        "midi": 42,
        "time": 35.824,
        "duration": 0.235,
        "velocity": 0.58,
        "hand": "right"
      },
      {
        "midi": 42,
        "time": 36.176,
        "duration": 0.235,
        "velocity": 0.51,
        "hand": "right"
      },
      {
        "midi": 66,
        "time": 36.529,
        "duration": 0.529,
        "velocity": 0.83,
        "hand": "right"
      },
      {
        "midi": 42,
        "time": 36.882,
        "duration": 0.235,
        "velocity": 0.51,
        "hand": "right"
      },
      {
        "midi": 66,
        "time": 37.235,
        "duration": 0.353,
        "velocity": 0.83,
        "hand": "right"
      },
      {
        "midi": 42,
        "time": 37.588,
        "duration": 0.235,
        "velocity": 0.51,
        "hand": "right"
      },
      {
        "midi": 65,
        "time": 37.765,
        "duration": 0.235,
        "velocity": 0.83,
        "hand": "right"
      },
      {
        "midi": 66,
        "time": 37.941,
        "duration": 0.529,
        "velocity": 0.83,
        "hand": "right"
      },
      {
        "midi": 42,
        "time": 38.294,
        "duration": 0.235,
        "velocity": 0.51,
        "hand": "right"
      },
      {
        "midi": 66,
        "time": 38.647,
        "duration": 0.353,
        "velocity": 0.83,
        "hand": "right"
      },
      {
        "midi": 42,
        "time": 39,
        "duration": 0.235,
        "velocity": 0.51,
        "hand": "right"
      },
      {
        "midi": 67,
        "time": 39.176,
        "duration": 0.235,
        "velocity": 0.83,
        "hand": "right"
      },
      {
        "midi": 69,
        "time": 39.353,
        "duration": 0.882,
        "velocity": 0.83,
        "hand": "right"
      },
      {
        "midi": 42,
        "time": 39.706,
        "duration": 0.235,
        "velocity": 0.51,
        "hand": "right"
      },
      {
        "midi": 42,
        "time": 40.059,
        "duration": 0.235,
        "velocity": 0.58,
        "hand": "right"
      },
      {
        "midi": 42,
        "time": 40.412,
        "duration": 0.235,
        "velocity": 0.51,
        "hand": "right"
      },
      {
        "midi": 69,
        "time": 40.765,
        "duration": 0.529,
        "velocity": 0.83,
        "hand": "right"
      },
      {
        "midi": 42,
        "time": 41.118,
        "duration": 0.235,
        "velocity": 0.51,
        "hand": "right"
      },
      {
        "midi": 69,
        "time": 41.471,
        "duration": 0.353,
        "velocity": 0.83,
        "hand": "right"
      },
      {
        "midi": 42,
        "time": 41.824,
        "duration": 0.235,
        "velocity": 0.51,
        "hand": "right"
      },
      {
        "midi": 66,
        "time": 42,
        "duration": 0.235,
        "velocity": 0.83,
        "hand": "right"
      },
      {
        "midi": 64,
        "time": 42.176,
        "duration": 0.529,
        "velocity": 0.83,
        "hand": "right"
      },
      {
        "midi": 42,
        "time": 42.529,
        "duration": 0.235,
        "velocity": 0.51,
        "hand": "right"
      },
      {
        "midi": 62,
        "time": 42.882,
        "duration": 0.353,
        "velocity": 0.83,
        "hand": "right"
      },
      {
        "midi": 64,
        "time": 43.059,
        "duration": 0.353,
        "velocity": 0.83,
        "hand": "right"
      },
      {
        "midi": 42,
        "time": 43.235,
        "duration": 0.235,
        "velocity": 0.51,
        "hand": "right"
      },
      {
        "midi": 64,
        "time": 43.412,
        "duration": 0.235,
        "velocity": 0.83,
        "hand": "right"
      },
      {
        "midi": 42,
        "time": 43.941,
        "duration": 0.235,
        "velocity": 0.51,
        "hand": "right"
      },
      {
        "midi": 38,
        "time": 44.118,
        "duration": 0.235,
        "velocity": 0.58,
        "hand": "right"
      },
      {
        "midi": 66,
        "time": 44.294,
        "duration": 0.353,
        "velocity": 0.83,
        "hand": "right"
      },
      {
        "midi": 46,
        "time": 44.647,
        "duration": 0.235,
        "velocity": 0.65,
        "hand": "right"
      },
      {
        "midi": 64,
        "time": 44.824,
        "duration": 0.235,
        "velocity": 0.83,
        "hand": "right"
      },
      {
        "midi": 62,
        "time": 45,
        "duration": 1.412,
        "velocity": 0.83,
        "hand": "right"
      },
      {
        "midi": 42,
        "time": 45.353,
        "duration": 0.235,
        "velocity": 0.36,
        "hand": "right"
      },
      {
        "midi": 46,
        "time": 45.706,
        "duration": 0.235,
        "velocity": 0.73,
        "hand": "right"
      },
      {
        "midi": 35,
        "time": 46.235,
        "duration": 0.235,
        "velocity": 0.65,
        "hand": "right"
      },
      {
        "midi": 38,
        "time": 46.412,
        "duration": 0.235,
        "velocity": 0.73,
        "hand": "right"
      },
      {
        "midi": 35,
        "time": 46.941,
        "duration": 0.235,
        "velocity": 0.65,
        "hand": "right"
      },
      {
        "midi": 38,
        "time": 47.118,
        "duration": 0.235,
        "velocity": 0.73,
        "hand": "right"
      },
      {
        "midi": 41,
        "time": 47.471,
        "duration": 0.235,
        "velocity": 0.83,
        "hand": "right"
      },
      {
        "midi": 69,
        "time": 47.824,
        "duration": 1.588,
        "velocity": 0.83,
        "hand": "right"
      },
      {
        "midi": 66,
        "time": 48,
        "duration": 0.353,
        "velocity": 0.83,
        "hand": "right"
      },
      {
        "midi": 42,
        "time": 48.176,
        "duration": 0.235,
        "velocity": 0.51,
        "hand": "right"
      },
      {
        "midi": 42,
        "time": 48.353,
        "duration": 0.235,
        "velocity": 0.43,
        "hand": "right"
      },
      {
        "midi": 66,
        "time": 48.529,
        "duration": 0.353,
        "velocity": 0.83,
        "hand": "right"
      },
      {
        "midi": 42,
        "time": 48.882,
        "duration": 0.235,
        "velocity": 0.51,
        "hand": "right"
      },
      {
        "midi": 66,
        "time": 49.059,
        "duration": 0.235,
        "velocity": 0.83,
        "hand": "right"
      },
      {
        "midi": 69,
        "time": 49.235,
        "duration": 0.353,
        "velocity": 0.83,
        "hand": "right"
      },
      {
        "midi": 42,
        "time": 49.588,
        "duration": 0.235,
        "velocity": 0.51,
        "hand": "right"
      },
      {
        "midi": 66,
        "time": 49.765,
        "duration": 0.235,
        "velocity": 0.83,
        "hand": "right"
      },
      {
        "midi": 69,
        "time": 49.941,
        "duration": 0.353,
        "velocity": 0.83,
        "hand": "right"
      },
      {
        "midi": 42,
        "time": 50.294,
        "duration": 0.235,
        "velocity": 0.51,
        "hand": "right"
      },
      {
        "midi": 74,
        "time": 50.471,
        "duration": 0.235,
        "velocity": 0.83,
        "hand": "right"
      },
      {
        "midi": 73,
        "time": 50.647,
        "duration": 1.588,
        "velocity": 0.83,
        "hand": "right"
      },
      {
        "midi": 67,
        "time": 50.824,
        "duration": 0.353,
        "velocity": 0.83,
        "hand": "right"
      },
      {
        "midi": 42,
        "time": 51,
        "duration": 0.235,
        "velocity": 0.51,
        "hand": "right"
      },
      {
        "midi": 67,
        "time": 51.353,
        "duration": 0.353,
        "velocity": 0.83,
        "hand": "right"
      },
      {
        "midi": 42,
        "time": 51.706,
        "duration": 0.235,
        "velocity": 0.51,
        "hand": "right"
      },
      {
        "midi": 67,
        "time": 51.882,
        "duration": 0.235,
        "velocity": 0.83,
        "hand": "right"
      },
      {
        "midi": 73,
        "time": 52.059,
        "duration": 0.529,
        "velocity": 0.83,
        "hand": "right"
      },
      {
        "midi": 42,
        "time": 52.412,
        "duration": 0.235,
        "velocity": 0.51,
        "hand": "right"
      },
      {
        "midi": 42,
        "time": 52.765,
        "duration": 0.235,
        "velocity": 0.58,
        "hand": "right"
      },
      {
        "midi": 42,
        "time": 53.118,
        "duration": 0.235,
        "velocity": 0.51,
        "hand": "right"
      },
      {
        "midi": 67,
        "time": 53.471,
        "duration": 1.588,
        "velocity": 0.83,
        "hand": "right"
      },
      {
        "midi": 64,
        "time": 53.647,
        "duration": 0.353,
        "velocity": 0.83,
        "hand": "right"
      },
      {
        "midi": 42,
        "time": 53.824,
        "duration": 0.235,
        "velocity": 0.51,
        "hand": "right"
      },
      {
        "midi": 64,
        "time": 54.176,
        "duration": 0.353,
        "velocity": 0.83,
        "hand": "right"
      },
      {
        "midi": 42,
        "time": 54.529,
        "duration": 0.235,
        "velocity": 0.51,
        "hand": "right"
      },
      {
        "midi": 64,
        "time": 54.706,
        "duration": 0.235,
        "velocity": 0.83,
        "hand": "right"
      },
      {
        "midi": 67,
        "time": 54.882,
        "duration": 0.353,
        "velocity": 0.83,
        "hand": "right"
      },
      {
        "midi": 42,
        "time": 55.235,
        "duration": 0.235,
        "velocity": 0.51,
        "hand": "right"
      },
      {
        "midi": 64,
        "time": 55.412,
        "duration": 0.235,
        "velocity": 0.83,
        "hand": "right"
      },
      {
        "midi": 67,
        "time": 55.588,
        "duration": 0.353,
        "velocity": 0.83,
        "hand": "right"
      },
      {
        "midi": 42,
        "time": 55.941,
        "duration": 0.235,
        "velocity": 0.51,
        "hand": "right"
      },
      {
        "midi": 71,
        "time": 56.118,
        "duration": 0.235,
        "velocity": 0.83,
        "hand": "right"
      },
      {
        "midi": 69,
        "time": 56.294,
        "duration": 0.882,
        "velocity": 0.83,
        "hand": "right"
      },
      {
        "midi": 62,
        "time": 56.471,
        "duration": 0.353,
        "velocity": 0.79,
        "hand": "right"
      },
      {
        "midi": 42,
        "time": 56.647,
        "duration": 0.235,
        "velocity": 0.51,
        "hand": "right"
      },
      {
        "midi": 42,
        "time": 56.824,
        "duration": 0.235,
        "velocity": 0.43,
        "hand": "right"
      },
      {
        "midi": 62,
        "time": 57,
        "duration": 0.353,
        "velocity": 0.79,
        "hand": "right"
      },
      {
        "midi": 42,
        "time": 57.353,
        "duration": 0.235,
        "velocity": 0.51,
        "hand": "right"
      },
      {
        "midi": 62,
        "time": 57.529,
        "duration": 0.235,
        "velocity": 0.79,
        "hand": "right"
      },
      {
        "midi": 69,
        "time": 57.706,
        "duration": 0.529,
        "velocity": 0.83,
        "hand": "right"
      },
      {
        "midi": 42,
        "time": 58.059,
        "duration": 0.235,
        "velocity": 0.51,
        "hand": "right"
      },
      {
        "midi": 42,
        "time": 58.412,
        "duration": 0.235,
        "velocity": 0.58,
        "hand": "right"
      },
      {
        "midi": 42,
        "time": 58.765,
        "duration": 0.235,
        "velocity": 0.51,
        "hand": "right"
      },
      {
        "midi": 74,
        "time": 59.118,
        "duration": 0.529,
        "velocity": 0.83,
        "hand": "right"
      },
      {
        "midi": 42,
        "time": 59.471,
        "duration": 0.235,
        "velocity": 0.51,
        "hand": "right"
      },
      {
        "midi": 74,
        "time": 59.824,
        "duration": 0.353,
        "velocity": 0.83,
        "hand": "right"
      },
      {
        "midi": 42,
        "time": 60.176,
        "duration": 0.235,
        "velocity": 0.51,
        "hand": "right"
      },
      {
        "midi": 74,
        "time": 60.353,
        "duration": 0.235,
        "velocity": 0.83,
        "hand": "right"
      },
      {
        "midi": 42,
        "time": 60.882,
        "duration": 0.235,
        "velocity": 0.51,
        "hand": "right"
      },
      {
        "midi": 46,
        "time": 61.059,
        "duration": 0.235,
        "velocity": 0.58,
        "hand": "right"
      },
      {
        "midi": 74,
        "time": 61.235,
        "duration": 0.353,
        "velocity": 0.83,
        "hand": "right"
      },
      {
        "midi": 42,
        "time": 61.588,
        "duration": 0.235,
        "velocity": 0.51,
        "hand": "right"
      },
      {
        "midi": 73,
        "time": 61.765,
        "duration": 0.235,
        "velocity": 0.83,
        "hand": "right"
      },
      {
        "midi": 71,
        "time": 61.941,
        "duration": 0.882,
        "velocity": 0.83,
        "hand": "right"
      },
      {
        "midi": 42,
        "time": 62.294,
        "duration": 0.235,
        "velocity": 0.51,
        "hand": "right"
      },
      {
        "midi": 42,
        "time": 62.471,
        "duration": 0.235,
        "velocity": 0.43,
        "hand": "right"
      },
      {
        "midi": 67,
        "time": 62.647,
        "duration": 0.353,
        "velocity": 0.83,
        "hand": "right"
      },
      {
        "midi": 42,
        "time": 63,
        "duration": 0.235,
        "velocity": 0.51,
        "hand": "right"
      },
      {
        "midi": 67,
        "time": 63.176,
        "duration": 0.235,
        "velocity": 0.83,
        "hand": "right"
      },
      {
        "midi": 67,
        "time": 63.353,
        "duration": 0.529,
        "velocity": 0.83,
        "hand": "right"
      },
      {
        "midi": 42,
        "time": 63.706,
        "duration": 0.235,
        "velocity": 0.51,
        "hand": "right"
      },
      {
        "midi": 71,
        "time": 64.059,
        "duration": 0.529,
        "velocity": 0.83,
        "hand": "right"
      },
      {
        "midi": 42,
        "time": 64.412,
        "duration": 0.235,
        "velocity": 0.51,
        "hand": "right"
      },
      {
        "midi": 67,
        "time": 64.588,
        "duration": 0.235,
        "velocity": 0.83,
        "hand": "right"
      },
      {
        "midi": 69,
        "time": 64.765,
        "duration": 0.529,
        "velocity": 0.83,
        "hand": "right"
      },
      {
        "midi": 42,
        "time": 65.118,
        "duration": 0.235,
        "velocity": 0.73,
        "hand": "right"
      },
      {
        "midi": 66,
        "time": 65.471,
        "duration": 0.353,
        "velocity": 0.83,
        "hand": "right"
      },
      {
        "midi": 42,
        "time": 65.824,
        "duration": 0.235,
        "velocity": 0.51,
        "hand": "right"
      },
      {
        "midi": 62,
        "time": 66,
        "duration": 0.235,
        "velocity": 0.83,
        "hand": "right"
      },
      {
        "midi": 64,
        "time": 66.176,
        "duration": 0.529,
        "velocity": 0.83,
        "hand": "right"
      },
      {
        "midi": 42,
        "time": 66.529,
        "duration": 0.235,
        "velocity": 0.73,
        "hand": "right"
      },
      {
        "midi": 42,
        "time": 66.706,
        "duration": 0.235,
        "velocity": 0.43,
        "hand": "right"
      },
      {
        "midi": 66,
        "time": 66.882,
        "duration": 0.353,
        "velocity": 0.83,
        "hand": "right"
      },
      {
        "midi": 42,
        "time": 67.235,
        "duration": 0.235,
        "velocity": 0.51,
        "hand": "right"
      },
      {
        "midi": 64,
        "time": 67.412,
        "duration": 0.235,
        "velocity": 0.83,
        "hand": "right"
      },
      {
        "midi": 62,
        "time": 67.588,
        "duration": 1.588,
        "velocity": 0.83,
        "hand": "right"
      },
      {
        "midi": 42,
        "time": 67.941,
        "duration": 0.235,
        "velocity": 0.51,
        "hand": "right"
      },
      {
        "midi": 59,
        "time": 68.294,
        "duration": 0.529,
        "velocity": 0.83,
        "hand": "right"
      },
      {
        "midi": 42,
        "time": 68.647,
        "duration": 0.235,
        "velocity": 0.51,
        "hand": "right"
      },
      {
        "midi": 62,
        "time": 69,
        "duration": 0.529,
        "velocity": 0.83,
        "hand": "right"
      },
      {
        "midi": 42,
        "time": 69.353,
        "duration": 0.235,
        "velocity": 0.51,
        "hand": "right"
      },
      {
        "midi": 38,
        "time": 69.529,
        "duration": 0.235,
        "velocity": 0.58,
        "hand": "right"
      },
      {
        "midi": 42,
        "time": 69.706,
        "duration": 0.235,
        "velocity": 0.58,
        "hand": "right"
      },
      {
        "midi": 46,
        "time": 70.059,
        "duration": 0.235,
        "velocity": 0.65,
        "hand": "right"
      },
      {
        "midi": 66,
        "time": 70.412,
        "duration": 0.529,
        "velocity": 0.83,
        "hand": "right"
      },
      {
        "midi": 42,
        "time": 70.765,
        "duration": 0.235,
        "velocity": 0.51,
        "hand": "right"
      },
      {
        "midi": 66,
        "time": 71.118,
        "duration": 0.353,
        "velocity": 0.83,
        "hand": "right"
      },
      {
        "midi": 42,
        "time": 71.471,
        "duration": 0.235,
        "velocity": 0.51,
        "hand": "right"
      },
      {
        "midi": 65,
        "time": 71.647,
        "duration": 0.235,
        "velocity": 0.83,
        "hand": "right"
      },
      {
        "midi": 66,
        "time": 71.824,
        "duration": 0.529,
        "velocity": 0.83,
        "hand": "right"
      },
      {
        "midi": 42,
        "time": 72.176,
        "duration": 0.235,
        "velocity": 0.51,
        "hand": "right"
      },
      {
        "midi": 66,
        "time": 72.529,
        "duration": 0.353,
        "velocity": 0.83,
        "hand": "right"
      },
      {
        "midi": 42,
        "time": 72.882,
        "duration": 0.235,
        "velocity": 0.51,
        "hand": "right"
      },
      {
        "midi": 67,
        "time": 73.059,
        "duration": 0.235,
        "velocity": 0.83,
        "hand": "right"
      },
      {
        "midi": 69,
        "time": 73.235,
        "duration": 0.882,
        "velocity": 0.83,
        "hand": "right"
      },
      {
        "midi": 42,
        "time": 73.588,
        "duration": 0.235,
        "velocity": 0.51,
        "hand": "right"
      },
      {
        "midi": 42,
        "time": 73.941,
        "duration": 0.235,
        "velocity": 0.58,
        "hand": "right"
      },
      {
        "midi": 42,
        "time": 74.294,
        "duration": 0.235,
        "velocity": 0.51,
        "hand": "right"
      },
      {
        "midi": 69,
        "time": 74.647,
        "duration": 0.529,
        "velocity": 0.83,
        "hand": "right"
      },
      {
        "midi": 42,
        "time": 75,
        "duration": 0.235,
        "velocity": 0.51,
        "hand": "right"
      },
      {
        "midi": 69,
        "time": 75.176,
        "duration": 0.353,
        "velocity": 0.83,
        "hand": "right"
      },
      {
        "midi": 42,
        "time": 75.529,
        "duration": 0.235,
        "velocity": 0.51,
        "hand": "right"
      },
      {
        "midi": 66,
        "time": 75.706,
        "duration": 0.235,
        "velocity": 0.83,
        "hand": "right"
      },
      {
        "midi": 64,
        "time": 75.882,
        "duration": 0.529,
        "velocity": 0.83,
        "hand": "right"
      },
      {
        "midi": 42,
        "time": 76.235,
        "duration": 0.235,
        "velocity": 0.51,
        "hand": "right"
      },
      {
        "midi": 64,
        "time": 76.588,
        "duration": 0.529,
        "velocity": 0.83,
        "hand": "right"
      },
      {
        "midi": 42,
        "time": 76.941,
        "duration": 0.235,
        "velocity": 0.51,
        "hand": "right"
      },
      {
        "midi": 66,
        "time": 77.294,
        "duration": 0.529,
        "velocity": 0.83,
        "hand": "right"
      },
      {
        "midi": 42,
        "time": 77.647,
        "duration": 0.235,
        "velocity": 0.51,
        "hand": "right"
      },
      {
        "midi": 67,
        "time": 78,
        "duration": 0.353,
        "velocity": 0.83,
        "hand": "right"
      },
      {
        "midi": 42,
        "time": 78.353,
        "duration": 0.235,
        "velocity": 0.51,
        "hand": "right"
      },
      {
        "midi": 66,
        "time": 78.529,
        "duration": 0.235,
        "velocity": 0.83,
        "hand": "right"
      },
      {
        "midi": 64,
        "time": 78.706,
        "duration": 1.412,
        "velocity": 0.83,
        "hand": "right"
      },
      {
        "midi": 42,
        "time": 79.059,
        "duration": 0.235,
        "velocity": 0.51,
        "hand": "right"
      },
      {
        "midi": 42,
        "time": 79.412,
        "duration": 0.235,
        "velocity": 0.58,
        "hand": "right"
      },
      {
        "midi": 42,
        "time": 79.765,
        "duration": 0.235,
        "velocity": 0.51,
        "hand": "right"
      },
      {
        "midi": 42,
        "time": 80.118,
        "duration": 0.235,
        "velocity": 0.65,
        "hand": "right"
      },
      {
        "midi": 42,
        "time": 80.471,
        "duration": 0.235,
        "velocity": 0.51,
        "hand": "right"
      },
      {
        "midi": 42,
        "time": 80.824,
        "duration": 0.235,
        "velocity": 0.58,
        "hand": "right"
      },
      {
        "midi": 42,
        "time": 81.176,
        "duration": 0.235,
        "velocity": 0.51,
        "hand": "right"
      },
      {
        "midi": 66,
        "time": 81.529,
        "duration": 0.529,
        "velocity": 0.83,
        "hand": "right"
      },
      {
        "midi": 42,
        "time": 81.882,
        "duration": 0.235,
        "velocity": 0.51,
        "hand": "right"
      },
      {
        "midi": 66,
        "time": 82.235,
        "duration": 0.353,
        "velocity": 0.83,
        "hand": "right"
      },
      {
        "midi": 42,
        "time": 82.588,
        "duration": 0.235,
        "velocity": 0.51,
        "hand": "right"
      },
      {
        "midi": 65,
        "time": 82.765,
        "duration": 0.235,
        "velocity": 0.83,
        "hand": "right"
      },
      {
        "midi": 66,
        "time": 82.941,
        "duration": 0.529,
        "velocity": 0.83,
        "hand": "right"
      },
      {
        "midi": 42,
        "time": 83.294,
        "duration": 0.235,
        "velocity": 0.51,
        "hand": "right"
      },
      {
        "midi": 66,
        "time": 83.647,
        "duration": 0.353,
        "velocity": 0.83,
        "hand": "right"
      },
      {
        "midi": 42,
        "time": 84,
        "duration": 0.235,
        "velocity": 0.51,
        "hand": "right"
      },
      {
        "midi": 67,
        "time": 84.176,
        "duration": 0.235,
        "velocity": 0.83,
        "hand": "right"
      },
      {
        "midi": 69,
        "time": 84.353,
        "duration": 0.882,
        "velocity": 0.83,
        "hand": "right"
      },
      {
        "midi": 42,
        "time": 84.706,
        "duration": 0.235,
        "velocity": 0.51,
        "hand": "right"
      },
      {
        "midi": 42,
        "time": 85.059,
        "duration": 0.235,
        "velocity": 0.58,
        "hand": "right"
      },
      {
        "midi": 42,
        "time": 85.412,
        "duration": 0.235,
        "velocity": 0.51,
        "hand": "right"
      },
      {
        "midi": 69,
        "time": 85.765,
        "duration": 0.529,
        "velocity": 0.83,
        "hand": "right"
      },
      {
        "midi": 42,
        "time": 86.118,
        "duration": 0.235,
        "velocity": 0.51,
        "hand": "right"
      },
      {
        "midi": 69,
        "time": 86.471,
        "duration": 0.353,
        "velocity": 0.83,
        "hand": "right"
      },
      {
        "midi": 42,
        "time": 86.824,
        "duration": 0.235,
        "velocity": 0.51,
        "hand": "right"
      },
      {
        "midi": 66,
        "time": 87,
        "duration": 0.235,
        "velocity": 0.83,
        "hand": "right"
      },
      {
        "midi": 64,
        "time": 87.176,
        "duration": 0.529,
        "velocity": 0.83,
        "hand": "right"
      },
      {
        "midi": 42,
        "time": 87.529,
        "duration": 0.235,
        "velocity": 0.51,
        "hand": "right"
      },
      {
        "midi": 64,
        "time": 87.882,
        "duration": 0.235,
        "velocity": 0.83,
        "hand": "right"
      },
      {
        "midi": 64,
        "time": 88.235,
        "duration": 0.235,
        "velocity": 0.83,
        "hand": "right"
      },
      {
        "midi": 64,
        "time": 88.588,
        "duration": 0.529,
        "velocity": 0.83,
        "hand": "right"
      },
      {
        "midi": 42,
        "time": 88.941,
        "duration": 0.235,
        "velocity": 0.51,
        "hand": "right"
      },
      {
        "midi": 66,
        "time": 89.294,
        "duration": 0.353,
        "velocity": 0.83,
        "hand": "right"
      },
      {
        "midi": 42,
        "time": 89.647,
        "duration": 0.235,
        "velocity": 0.51,
        "hand": "right"
      },
      {
        "midi": 64,
        "time": 89.824,
        "duration": 0.235,
        "velocity": 0.83,
        "hand": "right"
      },
      {
        "midi": 62,
        "time": 90,
        "duration": 1.412,
        "velocity": 0.83,
        "hand": "right"
      },
      {
        "midi": 42,
        "time": 90.353,
        "duration": 0.235,
        "velocity": 0.36,
        "hand": "right"
      },
      {
        "midi": 46,
        "time": 90.706,
        "duration": 0.235,
        "velocity": 0.73,
        "hand": "right"
      },
      {
        "midi": 35,
        "time": 91.235,
        "duration": 0.235,
        "velocity": 0.65,
        "hand": "right"
      },
      {
        "midi": 38,
        "time": 91.412,
        "duration": 0.235,
        "velocity": 0.73,
        "hand": "right"
      },
      {
        "midi": 35,
        "time": 91.941,
        "duration": 0.235,
        "velocity": 0.65,
        "hand": "right"
      },
      {
        "midi": 38,
        "time": 92.118,
        "duration": 0.235,
        "velocity": 0.73,
        "hand": "right"
      },
      {
        "midi": 41,
        "time": 92.471,
        "duration": 0.235,
        "velocity": 0.83,
        "hand": "right"
      },
      {
        "midi": 71,
        "time": 92.824,
        "duration": 0.529,
        "velocity": 0.83,
        "hand": "right"
      },
      {
        "midi": 42,
        "time": 93.176,
        "duration": 0.235,
        "velocity": 0.51,
        "hand": "right"
      },
      {
        "midi": 71,
        "time": 93.529,
        "duration": 0.353,
        "velocity": 0.83,
        "hand": "right"
      },
      {
        "midi": 42,
        "time": 93.882,
        "duration": 0.235,
        "velocity": 0.51,
        "hand": "right"
      },
      {
        "midi": 71,
        "time": 94.059,
        "duration": 0.235,
        "velocity": 0.83,
        "hand": "right"
      },
      {
        "midi": 42,
        "time": 94.588,
        "duration": 0.235,
        "velocity": 0.51,
        "hand": "right"
      },
      {
        "midi": 71,
        "time": 94.941,
        "duration": 0.353,
        "velocity": 0.83,
        "hand": "right"
      },
      {
        "midi": 42,
        "time": 95.294,
        "duration": 0.235,
        "velocity": 0.51,
        "hand": "right"
      },
      {
        "midi": 67,
        "time": 95.471,
        "duration": 0.235,
        "velocity": 0.83,
        "hand": "right"
      },
      {
        "midi": 66,
        "time": 95.647,
        "duration": 0.882,
        "velocity": 0.83,
        "hand": "right"
      },
      {
        "midi": 42,
        "time": 96,
        "duration": 0.235,
        "velocity": 0.51,
        "hand": "right"
      },
      {
        "midi": 42,
        "time": 96.353,
        "duration": 0.235,
        "velocity": 0.58,
        "hand": "right"
      },
      {
        "midi": 42,
        "time": 96.706,
        "duration": 0.235,
        "velocity": 0.51,
        "hand": "right"
      },
      {
        "midi": 69,
        "time": 97.059,
        "duration": 0.529,
        "velocity": 0.83,
        "hand": "right"
      },
      {
        "midi": 42,
        "time": 97.412,
        "duration": 0.235,
        "velocity": 0.51,
        "hand": "right"
      },
      {
        "midi": 42,
        "time": 97.765,
        "duration": 0.235,
        "velocity": 0.58,
        "hand": "right"
      },
      {
        "midi": 42,
        "time": 98.118,
        "duration": 0.235,
        "velocity": 0.51,
        "hand": "right"
      },
      {
        "midi": 71,
        "time": 98.471,
        "duration": 0.529,
        "velocity": 0.83,
        "hand": "right"
      },
      {
        "midi": 42,
        "time": 98.824,
        "duration": 0.235,
        "velocity": 0.51,
        "hand": "right"
      },
      {
        "midi": 71,
        "time": 99.176,
        "duration": 0.353,
        "velocity": 0.83,
        "hand": "right"
      },
      {
        "midi": 42,
        "time": 99.529,
        "duration": 0.235,
        "velocity": 0.51,
        "hand": "right"
      },
      {
        "midi": 71,
        "time": 99.706,
        "duration": 0.235,
        "velocity": 0.83,
        "hand": "right"
      },
      {
        "midi": 74,
        "time": 100.235,
        "duration": 0.235,
        "velocity": 0.83,
        "hand": "right"
      },
      {
        "midi": 73,
        "time": 100.588,
        "duration": 0.235,
        "velocity": 0.83,
        "hand": "right"
      },
      {
        "midi": 71,
        "time": 100.941,
        "duration": 0.235,
        "velocity": 0.83,
        "hand": "right"
      },
      {
        "midi": 69,
        "time": 101.294,
        "duration": 0.882,
        "velocity": 0.83,
        "hand": "right"
      },
      {
        "midi": 42,
        "time": 101.471,
        "duration": 0.235,
        "velocity": 0.43,
        "hand": "right"
      },
      {
        "midi": 42,
        "time": 102,
        "duration": 0.235,
        "velocity": 0.58,
        "hand": "right"
      },
      {
        "midi": 42,
        "time": 102.353,
        "duration": 0.235,
        "velocity": 0.51,
        "hand": "right"
      },
      {
        "midi": 46,
        "time": 102.529,
        "duration": 0.235,
        "velocity": 0.39,
        "hand": "right"
      },
      {
        "midi": 67,
        "time": 102.706,
        "duration": 0.529,
        "velocity": 0.83,
        "hand": "right"
      },
      {
        "midi": 42,
        "time": 103.059,
        "duration": 0.235,
        "velocity": 0.51,
        "hand": "right"
      },
      {
        "midi": 42,
        "time": 103.412,
        "duration": 0.235,
        "velocity": 0.58,
        "hand": "right"
      },
      {
        "midi": 42,
        "time": 103.765,
        "duration": 0.235,
        "velocity": 0.51,
        "hand": "right"
      },
      {
        "midi": 66,
        "time": 104.118,
        "duration": 0.529,
        "velocity": 0.83,
        "hand": "right"
      },
      {
        "midi": 42,
        "time": 104.471,
        "duration": 0.235,
        "velocity": 0.51,
        "hand": "right"
      },
      {
        "midi": 66,
        "time": 104.824,
        "duration": 0.353,
        "velocity": 0.83,
        "hand": "right"
      },
      {
        "midi": 42,
        "time": 105.176,
        "duration": 0.235,
        "velocity": 0.51,
        "hand": "right"
      },
      {
        "midi": 65,
        "time": 105.353,
        "duration": 0.235,
        "velocity": 0.83,
        "hand": "right"
      },
      {
        "midi": 66,
        "time": 105.529,
        "duration": 0.529,
        "velocity": 0.83,
        "hand": "right"
      },
      {
        "midi": 42,
        "time": 105.882,
        "duration": 0.235,
        "velocity": 0.51,
        "hand": "right"
      },
      {
        "midi": 66,
        "time": 106.235,
        "duration": 0.353,
        "velocity": 0.83,
        "hand": "right"
      },
      {
        "midi": 42,
        "time": 106.588,
        "duration": 0.235,
        "velocity": 0.51,
        "hand": "right"
      },
      {
        "midi": 67,
        "time": 106.765,
        "duration": 0.235,
        "velocity": 0.83,
        "hand": "right"
      },
      {
        "midi": 69,
        "time": 106.941,
        "duration": 0.882,
        "velocity": 0.83,
        "hand": "right"
      },
      {
        "midi": 42,
        "time": 107.294,
        "duration": 0.235,
        "velocity": 0.51,
        "hand": "right"
      },
      {
        "midi": 42,
        "time": 107.647,
        "duration": 0.235,
        "velocity": 0.58,
        "hand": "right"
      },
      {
        "midi": 42,
        "time": 108,
        "duration": 0.235,
        "velocity": 0.51,
        "hand": "right"
      },
      {
        "midi": 69,
        "time": 108.353,
        "duration": 0.529,
        "velocity": 0.83,
        "hand": "right"
      },
      {
        "midi": 42,
        "time": 108.706,
        "duration": 0.235,
        "velocity": 0.51,
        "hand": "right"
      },
      {
        "midi": 69,
        "time": 109.059,
        "duration": 0.353,
        "velocity": 0.83,
        "hand": "right"
      },
      {
        "midi": 42,
        "time": 109.412,
        "duration": 0.235,
        "velocity": 0.51,
        "hand": "right"
      },
      {
        "midi": 66,
        "time": 109.588,
        "duration": 0.235,
        "velocity": 0.83,
        "hand": "right"
      },
      {
        "midi": 64,
        "time": 109.765,
        "duration": 0.529,
        "velocity": 0.83,
        "hand": "right"
      },
      {
        "midi": 42,
        "time": 110.118,
        "duration": 0.235,
        "velocity": 0.36,
        "hand": "right"
      },
      {
        "midi": 64,
        "time": 110.471,
        "duration": 0.353,
        "velocity": 0.83,
        "hand": "right"
      },
      {
        "midi": 64,
        "time": 111,
        "duration": 0.235,
        "velocity": 0.83,
        "hand": "right"
      },
      {
        "midi": 38,
        "time": 111.353,
        "duration": 0.235,
        "velocity": 0.43,
        "hand": "right"
      },
      {
        "midi": 35,
        "time": 111.706,
        "duration": 0.235,
        "velocity": 0.65,
        "hand": "right"
      },
      {
        "midi": 66,
        "time": 111.882,
        "duration": 0.353,
        "velocity": 0.83,
        "hand": "right"
      },
      {
        "midi": 38,
        "time": 112.059,
        "duration": 0.235,
        "velocity": 0.43,
        "hand": "right"
      },
      {
        "midi": 41,
        "time": 112.235,
        "duration": 0.235,
        "velocity": 0.83,
        "hand": "right"
      },
      {
        "midi": 64,
        "time": 112.412,
        "duration": 0.235,
        "velocity": 0.83,
        "hand": "right"
      },
      {
        "midi": 62,
        "time": 112.588,
        "duration": 1.412,
        "velocity": 0.83,
        "hand": "right"
      },
      {
        "midi": 38,
        "time": 113.118,
        "duration": 0.235,
        "velocity": 0.36,
        "hand": "right"
      },
      {
        "midi": 35,
        "time": 113.471,
        "duration": 0.235,
        "velocity": 0.65,
        "hand": "right"
      },
      {
        "midi": 48,
        "time": 113.647,
        "duration": 0.235,
        "velocity": 0.73,
        "hand": "right"
      },
      {
        "midi": 38,
        "time": 114.176,
        "duration": 0.235,
        "velocity": 0.29,
        "hand": "right"
      },
      {
        "midi": 45,
        "time": 114.353,
        "duration": 0.235,
        "velocity": 0.73,
        "hand": "right"
      },
      {
        "midi": 35,
        "time": 114.529,
        "duration": 0.235,
        "velocity": 0.65,
        "hand": "right"
      },
      {
        "midi": 41,
        "time": 114.706,
        "duration": 0.235,
        "velocity": 0.73,
        "hand": "right"
      },
      {
        "midi": 41,
        "time": 115.059,
        "duration": 0.235,
        "velocity": 0.83,
        "hand": "right"
      },
      {
        "midi": 69,
        "time": 115.412,
        "duration": 1.588,
        "velocity": 0.83,
        "hand": "right"
      },
      {
        "midi": 66,
        "time": 115.588,
        "duration": 0.353,
        "velocity": 0.83,
        "hand": "right"
      },
      {
        "midi": 42,
        "time": 115.765,
        "duration": 0.235,
        "velocity": 0.51,
        "hand": "right"
      },
      {
        "midi": 66,
        "time": 116.118,
        "duration": 0.353,
        "velocity": 0.83,
        "hand": "right"
      },
      {
        "midi": 42,
        "time": 116.471,
        "duration": 0.235,
        "velocity": 0.51,
        "hand": "right"
      },
      {
        "midi": 66,
        "time": 116.647,
        "duration": 0.235,
        "velocity": 0.83,
        "hand": "right"
      },
      {
        "midi": 69,
        "time": 116.824,
        "duration": 0.353,
        "velocity": 0.83,
        "hand": "right"
      },
      {
        "midi": 42,
        "time": 117.176,
        "duration": 0.235,
        "velocity": 0.51,
        "hand": "right"
      },
      {
        "midi": 66,
        "time": 117.353,
        "duration": 0.235,
        "velocity": 0.83,
        "hand": "right"
      },
      {
        "midi": 69,
        "time": 117.529,
        "duration": 0.353,
        "velocity": 0.83,
        "hand": "right"
      },
      {
        "midi": 42,
        "time": 117.882,
        "duration": 0.235,
        "velocity": 0.51,
        "hand": "right"
      },
      {
        "midi": 74,
        "time": 118.059,
        "duration": 0.235,
        "velocity": 0.83,
        "hand": "right"
      },
      {
        "midi": 73,
        "time": 118.235,
        "duration": 1.588,
        "velocity": 0.83,
        "hand": "right"
      },
      {
        "midi": 67,
        "time": 118.412,
        "duration": 0.353,
        "velocity": 0.83,
        "hand": "right"
      },
      {
        "midi": 42,
        "time": 118.588,
        "duration": 0.235,
        "velocity": 0.51,
        "hand": "right"
      },
      {
        "midi": 42,
        "time": 118.765,
        "duration": 0.235,
        "velocity": 0.43,
        "hand": "right"
      },
      {
        "midi": 67,
        "time": 118.941,
        "duration": 0.353,
        "velocity": 0.83,
        "hand": "right"
      },
      {
        "midi": 42,
        "time": 119.294,
        "duration": 0.235,
        "velocity": 0.51,
        "hand": "right"
      },
      {
        "midi": 67,
        "time": 119.471,
        "duration": 0.235,
        "velocity": 0.83,
        "hand": "right"
      },
      {
        "midi": 73,
        "time": 119.647,
        "duration": 0.529,
        "velocity": 0.83,
        "hand": "right"
      },
      {
        "midi": 42,
        "time": 120,
        "duration": 0.235,
        "velocity": 0.51,
        "hand": "right"
      },
      {
        "midi": 42,
        "time": 120.353,
        "duration": 0.235,
        "velocity": 0.58,
        "hand": "right"
      },
      {
        "midi": 42,
        "time": 120.706,
        "duration": 0.235,
        "velocity": 0.51,
        "hand": "right"
      },
      {
        "midi": 46,
        "time": 120.882,
        "duration": 0.235,
        "velocity": 0.58,
        "hand": "right"
      },
      {
        "midi": 67,
        "time": 121.059,
        "duration": 1.588,
        "velocity": 0.83,
        "hand": "right"
      },
      {
        "midi": 64,
        "time": 121.235,
        "duration": 0.353,
        "velocity": 0.83,
        "hand": "right"
      },
      {
        "midi": 42,
        "time": 121.412,
        "duration": 0.235,
        "velocity": 0.51,
        "hand": "right"
      },
      {
        "midi": 64,
        "time": 121.765,
        "duration": 0.353,
        "velocity": 0.83,
        "hand": "right"
      },
      {
        "midi": 42,
        "time": 122.118,
        "duration": 0.235,
        "velocity": 0.51,
        "hand": "right"
      },
      {
        "midi": 64,
        "time": 122.294,
        "duration": 0.235,
        "velocity": 0.83,
        "hand": "right"
      },
      {
        "midi": 67,
        "time": 122.471,
        "duration": 0.353,
        "velocity": 0.83,
        "hand": "right"
      },
      {
        "midi": 42,
        "time": 122.824,
        "duration": 0.235,
        "velocity": 0.51,
        "hand": "right"
      },
      {
        "midi": 64,
        "time": 123,
        "duration": 0.235,
        "velocity": 0.83,
        "hand": "right"
      },
      {
        "midi": 67,
        "time": 123.176,
        "duration": 0.353,
        "velocity": 0.83,
        "hand": "right"
      },
      {
        "midi": 42,
        "time": 123.529,
        "duration": 0.235,
        "velocity": 0.51,
        "hand": "right"
      },
      {
        "midi": 71,
        "time": 123.706,
        "duration": 0.235,
        "velocity": 0.83,
        "hand": "right"
      },
      {
        "midi": 69,
        "time": 123.882,
        "duration": 0.882,
        "velocity": 0.83,
        "hand": "right"
      },
      {
        "midi": 62,
        "time": 124.059,
        "duration": 0.353,
        "velocity": 0.79,
        "hand": "right"
      },
      {
        "midi": 42,
        "time": 124.235,
        "duration": 0.235,
        "velocity": 0.51,
        "hand": "right"
      },
      {
        "midi": 42,
        "time": 124.412,
        "duration": 0.235,
        "velocity": 0.43,
        "hand": "right"
      },
      {
        "midi": 62,
        "time": 124.588,
        "duration": 0.353,
        "velocity": 0.79,
        "hand": "right"
      },
      {
        "midi": 62,
        "time": 124.941,
        "duration": 0.235,
        "velocity": 0.79,
        "hand": "right"
      },
      {
        "midi": 69,
        "time": 125.118,
        "duration": 0.529,
        "velocity": 0.83,
        "hand": "right"
      },
      {
        "midi": 42,
        "time": 125.471,
        "duration": 0.235,
        "velocity": 0.51,
        "hand": "right"
      },
      {
        "midi": 42,
        "time": 125.824,
        "duration": 0.235,
        "velocity": 0.58,
        "hand": "right"
      },
      {
        "midi": 42,
        "time": 126.176,
        "duration": 0.235,
        "velocity": 0.51,
        "hand": "right"
      },
      {
        "midi": 42,
        "time": 126.353,
        "duration": 0.235,
        "velocity": 0.43,
        "hand": "right"
      },
      {
        "midi": 74,
        "time": 126.529,
        "duration": 0.529,
        "velocity": 0.83,
        "hand": "right"
      },
      {
        "midi": 42,
        "time": 126.882,
        "duration": 0.235,
        "velocity": 0.51,
        "hand": "right"
      },
      {
        "midi": 42,
        "time": 127.059,
        "duration": 0.235,
        "velocity": 0.43,
        "hand": "right"
      },
      {
        "midi": 74,
        "time": 127.235,
        "duration": 0.353,
        "velocity": 0.83,
        "hand": "right"
      },
      {
        "midi": 42,
        "time": 127.588,
        "duration": 0.235,
        "velocity": 0.51,
        "hand": "right"
      },
      {
        "midi": 74,
        "time": 127.765,
        "duration": 0.235,
        "velocity": 0.83,
        "hand": "right"
      },
      {
        "midi": 46,
        "time": 128.294,
        "duration": 0.235,
        "velocity": 0.51,
        "hand": "right"
      },
      {
        "midi": 74,
        "time": 128.647,
        "duration": 0.353,
        "velocity": 0.83,
        "hand": "right"
      },
      {
        "midi": 42,
        "time": 129,
        "duration": 0.235,
        "velocity": 0.51,
        "hand": "right"
      },
      {
        "midi": 73,
        "time": 129.176,
        "duration": 0.235,
        "velocity": 0.83,
        "hand": "right"
      },
      {
        "midi": 71,
        "time": 129.353,
        "duration": 0.882,
        "velocity": 0.83,
        "hand": "right"
      },
      {
        "midi": 42,
        "time": 129.706,
        "duration": 0.235,
        "velocity": 0.51,
        "hand": "right"
      },
      {
        "midi": 67,
        "time": 130.059,
        "duration": 0.353,
        "velocity": 0.83,
        "hand": "right"
      },
      {
        "midi": 42,
        "time": 130.412,
        "duration": 0.235,
        "velocity": 0.51,
        "hand": "right"
      },
      {
        "midi": 67,
        "time": 130.588,
        "duration": 0.235,
        "velocity": 0.83,
        "hand": "right"
      },
      {
        "midi": 67,
        "time": 130.765,
        "duration": 0.529,
        "velocity": 0.83,
        "hand": "right"
      },
      {
        "midi": 42,
        "time": 131.118,
        "duration": 0.235,
        "velocity": 0.51,
        "hand": "right"
      },
      {
        "midi": 71,
        "time": 131.471,
        "duration": 0.529,
        "velocity": 0.83,
        "hand": "right"
      },
      {
        "midi": 42,
        "time": 131.824,
        "duration": 0.235,
        "velocity": 0.51,
        "hand": "right"
      },
      {
        "midi": 67,
        "time": 132,
        "duration": 0.235,
        "velocity": 0.83,
        "hand": "right"
      },
      {
        "midi": 69,
        "time": 132.176,
        "duration": 0.529,
        "velocity": 0.83,
        "hand": "right"
      },
      {
        "midi": 42,
        "time": 132.529,
        "duration": 0.235,
        "velocity": 0.51,
        "hand": "right"
      },
      {
        "midi": 42,
        "time": 132.706,
        "duration": 0.235,
        "velocity": 0.43,
        "hand": "right"
      },
      {
        "midi": 66,
        "time": 132.882,
        "duration": 0.353,
        "velocity": 0.83,
        "hand": "right"
      },
      {
        "midi": 42,
        "time": 133.235,
        "duration": 0.235,
        "velocity": 0.51,
        "hand": "right"
      },
      {
        "midi": 62,
        "time": 133.412,
        "duration": 0.235,
        "velocity": 0.83,
        "hand": "right"
      },
      {
        "midi": 64,
        "time": 133.588,
        "duration": 0.529,
        "velocity": 0.83,
        "hand": "right"
      },
      {
        "midi": 42,
        "time": 133.941,
        "duration": 0.235,
        "velocity": 0.51,
        "hand": "right"
      },
      {
        "midi": 46,
        "time": 134.118,
        "duration": 0.235,
        "velocity": 0.58,
        "hand": "right"
      },
      {
        "midi": 66,
        "time": 134.294,
        "duration": 0.353,
        "velocity": 0.83,
        "hand": "right"
      },
      {
        "midi": 42,
        "time": 134.647,
        "duration": 0.235,
        "velocity": 0.51,
        "hand": "right"
      },
      {
        "midi": 64,
        "time": 134.824,
        "duration": 0.235,
        "velocity": 0.83,
        "hand": "right"
      },
      {
        "midi": 62,
        "time": 135,
        "duration": 1.588,
        "velocity": 0.83,
        "hand": "right"
      },
      {
        "midi": 42,
        "time": 135.353,
        "duration": 0.235,
        "velocity": 0.51,
        "hand": "right"
      },
      {
        "midi": 59,
        "time": 135.706,
        "duration": 0.529,
        "velocity": 0.83,
        "hand": "right"
      },
      {
        "midi": 42,
        "time": 136.059,
        "duration": 0.235,
        "velocity": 0.51,
        "hand": "right"
      },
      {
        "midi": 62,
        "time": 136.412,
        "duration": 0.529,
        "velocity": 0.83,
        "hand": "right"
      },
      {
        "midi": 42,
        "time": 136.765,
        "duration": 0.235,
        "velocity": 0.51,
        "hand": "right"
      },
      {
        "midi": 38,
        "time": 136.941,
        "duration": 0.235,
        "velocity": 0.58,
        "hand": "right"
      },
      {
        "midi": 42,
        "time": 137.118,
        "duration": 0.235,
        "velocity": 0.58,
        "hand": "right"
      },
      {
        "midi": 46,
        "time": 137.471,
        "duration": 0.235,
        "velocity": 0.65,
        "hand": "right"
      },
      {
        "midi": 66,
        "time": 137.824,
        "duration": 0.529,
        "velocity": 0.83,
        "hand": "right"
      },
      {
        "midi": 42,
        "time": 138.176,
        "duration": 0.235,
        "velocity": 0.51,
        "hand": "right"
      },
      {
        "midi": 66,
        "time": 138.529,
        "duration": 0.353,
        "velocity": 0.83,
        "hand": "right"
      },
      {
        "midi": 42,
        "time": 138.882,
        "duration": 0.235,
        "velocity": 0.51,
        "hand": "right"
      },
      {
        "midi": 65,
        "time": 139.059,
        "duration": 0.235,
        "velocity": 0.83,
        "hand": "right"
      },
      {
        "midi": 66,
        "time": 139.235,
        "duration": 0.529,
        "velocity": 0.83,
        "hand": "right"
      },
      {
        "midi": 42,
        "time": 139.588,
        "duration": 0.235,
        "velocity": 0.51,
        "hand": "right"
      },
      {
        "midi": 66,
        "time": 139.941,
        "duration": 0.353,
        "velocity": 0.83,
        "hand": "right"
      },
      {
        "midi": 42,
        "time": 140.294,
        "duration": 0.235,
        "velocity": 0.51,
        "hand": "right"
      },
      {
        "midi": 67,
        "time": 140.471,
        "duration": 0.235,
        "velocity": 0.83,
        "hand": "right"
      },
      {
        "midi": 69,
        "time": 140.647,
        "duration": 0.882,
        "velocity": 0.83,
        "hand": "right"
      },
      {
        "midi": 42,
        "time": 141,
        "duration": 0.235,
        "velocity": 0.51,
        "hand": "right"
      },
      {
        "midi": 42,
        "time": 141.353,
        "duration": 0.235,
        "velocity": 0.58,
        "hand": "right"
      },
      {
        "midi": 42,
        "time": 141.706,
        "duration": 0.235,
        "velocity": 0.51,
        "hand": "right"
      },
      {
        "midi": 69,
        "time": 142.059,
        "duration": 0.529,
        "velocity": 0.83,
        "hand": "right"
      },
      {
        "midi": 42,
        "time": 142.412,
        "duration": 0.235,
        "velocity": 0.51,
        "hand": "right"
      },
      {
        "midi": 69,
        "time": 142.765,
        "duration": 0.353,
        "velocity": 0.83,
        "hand": "right"
      },
      {
        "midi": 42,
        "time": 143.118,
        "duration": 0.235,
        "velocity": 0.51,
        "hand": "right"
      },
      {
        "midi": 66,
        "time": 143.294,
        "duration": 0.235,
        "velocity": 0.83,
        "hand": "right"
      },
      {
        "midi": 64,
        "time": 143.471,
        "duration": 0.529,
        "velocity": 0.83,
        "hand": "right"
      },
      {
        "midi": 42,
        "time": 143.824,
        "duration": 0.235,
        "velocity": 0.51,
        "hand": "right"
      },
      {
        "midi": 64,
        "time": 144.176,
        "duration": 0.529,
        "velocity": 0.83,
        "hand": "right"
      },
      {
        "midi": 42,
        "time": 144.529,
        "duration": 0.235,
        "velocity": 0.51,
        "hand": "right"
      },
      {
        "midi": 66,
        "time": 144.882,
        "duration": 0.529,
        "velocity": 0.83,
        "hand": "right"
      },
      {
        "midi": 42,
        "time": 145.235,
        "duration": 0.235,
        "velocity": 0.51,
        "hand": "right"
      },
      {
        "midi": 67,
        "time": 145.588,
        "duration": 0.353,
        "velocity": 0.83,
        "hand": "right"
      },
      {
        "midi": 42,
        "time": 145.941,
        "duration": 0.235,
        "velocity": 0.51,
        "hand": "right"
      },
      {
        "midi": 66,
        "time": 146.118,
        "duration": 0.235,
        "velocity": 0.83,
        "hand": "right"
      },
      {
        "midi": 64,
        "time": 146.294,
        "duration": 1.412,
        "velocity": 0.83,
        "hand": "right"
      },
      {
        "midi": 42,
        "time": 146.647,
        "duration": 0.235,
        "velocity": 0.51,
        "hand": "right"
      },
      {
        "midi": 42,
        "time": 147,
        "duration": 0.235,
        "velocity": 0.58,
        "hand": "right"
      },
      {
        "midi": 42,
        "time": 147.353,
        "duration": 0.235,
        "velocity": 0.51,
        "hand": "right"
      },
      {
        "midi": 42,
        "time": 147.706,
        "duration": 0.235,
        "velocity": 0.65,
        "hand": "right"
      },
      {
        "midi": 42,
        "time": 148.059,
        "duration": 0.235,
        "velocity": 0.51,
        "hand": "right"
      },
      {
        "midi": 42,
        "time": 148.412,
        "duration": 0.235,
        "velocity": 0.58,
        "hand": "right"
      },
      {
        "midi": 42,
        "time": 148.765,
        "duration": 0.235,
        "velocity": 0.51,
        "hand": "right"
      },
      {
        "midi": 66,
        "time": 149.118,
        "duration": 0.529,
        "velocity": 0.83,
        "hand": "right"
      },
      {
        "midi": 42,
        "time": 149.471,
        "duration": 0.235,
        "velocity": 0.51,
        "hand": "right"
      },
      {
        "midi": 66,
        "time": 149.824,
        "duration": 0.353,
        "velocity": 0.83,
        "hand": "right"
      },
      {
        "midi": 42,
        "time": 150.176,
        "duration": 0.235,
        "velocity": 0.51,
        "hand": "right"
      },
      {
        "midi": 65,
        "time": 150.353,
        "duration": 0.235,
        "velocity": 0.83,
        "hand": "right"
      },
      {
        "midi": 66,
        "time": 150.529,
        "duration": 0.529,
        "velocity": 0.83,
        "hand": "right"
      },
      {
        "midi": 42,
        "time": 150.882,
        "duration": 0.235,
        "velocity": 0.51,
        "hand": "right"
      },
      {
        "midi": 66,
        "time": 151.235,
        "duration": 0.353,
        "velocity": 0.83,
        "hand": "right"
      },
      {
        "midi": 42,
        "time": 151.588,
        "duration": 0.235,
        "velocity": 0.51,
        "hand": "right"
      },
      {
        "midi": 67,
        "time": 151.765,
        "duration": 0.235,
        "velocity": 0.83,
        "hand": "right"
      },
      {
        "midi": 69,
        "time": 151.941,
        "duration": 0.882,
        "velocity": 0.83,
        "hand": "right"
      },
      {
        "midi": 42,
        "time": 152.294,
        "duration": 0.235,
        "velocity": 0.51,
        "hand": "right"
      },
      {
        "midi": 42,
        "time": 152.647,
        "duration": 0.235,
        "velocity": 0.58,
        "hand": "right"
      },
      {
        "midi": 42,
        "time": 153,
        "duration": 0.235,
        "velocity": 0.51,
        "hand": "right"
      },
      {
        "midi": 69,
        "time": 153.353,
        "duration": 0.529,
        "velocity": 0.83,
        "hand": "right"
      },
      {
        "midi": 42,
        "time": 153.706,
        "duration": 0.235,
        "velocity": 0.51,
        "hand": "right"
      },
      {
        "midi": 69,
        "time": 154.059,
        "duration": 0.353,
        "velocity": 0.83,
        "hand": "right"
      },
      {
        "midi": 42,
        "time": 154.412,
        "duration": 0.235,
        "velocity": 0.51,
        "hand": "right"
      },
      {
        "midi": 66,
        "time": 154.588,
        "duration": 0.235,
        "velocity": 0.83,
        "hand": "right"
      },
      {
        "midi": 64,
        "time": 154.765,
        "duration": 0.529,
        "velocity": 0.83,
        "hand": "right"
      },
      {
        "midi": 42,
        "time": 155.118,
        "duration": 0.235,
        "velocity": 0.51,
        "hand": "right"
      },
      {
        "midi": 64,
        "time": 155.471,
        "duration": 0.235,
        "velocity": 0.83,
        "hand": "right"
      },
      {
        "midi": 64,
        "time": 155.824,
        "duration": 0.235,
        "velocity": 0.83,
        "hand": "right"
      },
      {
        "midi": 64,
        "time": 156.176,
        "duration": 0.529,
        "velocity": 0.83,
        "hand": "right"
      },
      {
        "midi": 42,
        "time": 156.529,
        "duration": 0.235,
        "velocity": 0.51,
        "hand": "right"
      },
      {
        "midi": 66,
        "time": 156.882,
        "duration": 0.353,
        "velocity": 0.83,
        "hand": "right"
      },
      {
        "midi": 42,
        "time": 157.235,
        "duration": 0.235,
        "velocity": 0.51,
        "hand": "right"
      },
      {
        "midi": 64,
        "time": 157.412,
        "duration": 0.235,
        "velocity": 0.83,
        "hand": "right"
      },
      {
        "midi": 62,
        "time": 157.588,
        "duration": 1.412,
        "velocity": 0.83,
        "hand": "right"
      },
      {
        "midi": 42,
        "time": 157.941,
        "duration": 0.235,
        "velocity": 0.51,
        "hand": "right"
      },
      {
        "midi": 42,
        "time": 158.294,
        "duration": 0.235,
        "velocity": 0.58,
        "hand": "right"
      },
      {
        "midi": 42,
        "time": 158.647,
        "duration": 0.235,
        "velocity": 0.51,
        "hand": "right"
      },
      {
        "midi": 42,
        "time": 159,
        "duration": 0.235,
        "velocity": 0.65,
        "hand": "right"
      },
      {
        "midi": 38,
        "time": 159.353,
        "duration": 0.235,
        "velocity": 0.65,
        "hand": "right"
      },
      {
        "midi": 38,
        "time": 159.706,
        "duration": 0.235,
        "velocity": 0.73,
        "hand": "right"
      },
      {
        "midi": 38,
        "time": 160.059,
        "duration": 0.235,
        "velocity": 0.83,
        "hand": "right"
      },
      {
        "midi": 71,
        "time": 160.412,
        "duration": 0.529,
        "velocity": 0.83,
        "hand": "right"
      },
      {
        "midi": 42,
        "time": 160.765,
        "duration": 0.235,
        "velocity": 0.51,
        "hand": "right"
      },
      {
        "midi": 71,
        "time": 161.118,
        "duration": 0.353,
        "velocity": 0.83,
        "hand": "right"
      },
      {
        "midi": 42,
        "time": 161.471,
        "duration": 0.235,
        "velocity": 0.51,
        "hand": "right"
      },
      {
        "midi": 71,
        "time": 161.647,
        "duration": 0.235,
        "velocity": 0.83,
        "hand": "right"
      },
      {
        "midi": 71,
        "time": 161.824,
        "duration": 0.529,
        "velocity": 0.83,
        "hand": "right"
      },
      {
        "midi": 42,
        "time": 162.176,
        "duration": 0.235,
        "velocity": 0.51,
        "hand": "right"
      },
      {
        "midi": 71,
        "time": 162.529,
        "duration": 0.353,
        "velocity": 0.83,
        "hand": "right"
      },
      {
        "midi": 42,
        "time": 162.882,
        "duration": 0.235,
        "velocity": 0.51,
        "hand": "right"
      },
      {
        "midi": 67,
        "time": 163.059,
        "duration": 0.235,
        "velocity": 0.83,
        "hand": "right"
      },
      {
        "midi": 66,
        "time": 163.235,
        "duration": 0.882,
        "velocity": 0.83,
        "hand": "right"
      },
      {
        "midi": 42,
        "time": 163.588,
        "duration": 0.235,
        "velocity": 0.51,
        "hand": "right"
      },
      {
        "midi": 42,
        "time": 163.941,
        "duration": 0.235,
        "velocity": 0.58,
        "hand": "right"
      },
      {
        "midi": 42,
        "time": 164.294,
        "duration": 0.235,
        "velocity": 0.51,
        "hand": "right"
      },
      {
        "midi": 69,
        "time": 164.647,
        "duration": 0.529,
        "velocity": 0.83,
        "hand": "right"
      },
      {
        "midi": 42,
        "time": 165,
        "duration": 0.235,
        "velocity": 0.51,
        "hand": "right"
      },
      {
        "midi": 42,
        "time": 165.353,
        "duration": 0.235,
        "velocity": 0.58,
        "hand": "right"
      },
      {
        "midi": 42,
        "time": 165.706,
        "duration": 0.235,
        "velocity": 0.51,
        "hand": "right"
      },
      {
        "midi": 71,
        "time": 166.059,
        "duration": 0.529,
        "velocity": 0.83,
        "hand": "right"
      },
      {
        "midi": 42,
        "time": 166.412,
        "duration": 0.235,
        "velocity": 0.51,
        "hand": "right"
      },
      {
        "midi": 71,
        "time": 166.765,
        "duration": 0.353,
        "velocity": 0.83,
        "hand": "right"
      },
      {
        "midi": 42,
        "time": 167.118,
        "duration": 0.235,
        "velocity": 0.51,
        "hand": "right"
      },
      {
        "midi": 71,
        "time": 167.294,
        "duration": 0.235,
        "velocity": 0.83,
        "hand": "right"
      },
      {
        "midi": 71,
        "time": 167.471,
        "duration": 0.235,
        "velocity": 0.83,
        "hand": "right"
      },
      {
        "midi": 74,
        "time": 167.824,
        "duration": 0.235,
        "velocity": 0.83,
        "hand": "right"
      },
      {
        "midi": 73,
        "time": 168.176,
        "duration": 0.235,
        "velocity": 0.83,
        "hand": "right"
      },
      {
        "midi": 71,
        "time": 168.529,
        "duration": 0.235,
        "velocity": 0.83,
        "hand": "right"
      },
      {
        "midi": 69,
        "time": 168.882,
        "duration": 0.882,
        "velocity": 0.83,
        "hand": "right"
      },
      {
        "midi": 42,
        "time": 169.235,
        "duration": 0.235,
        "velocity": 0.51,
        "hand": "right"
      },
      {
        "midi": 42,
        "time": 169.588,
        "duration": 0.235,
        "velocity": 0.58,
        "hand": "right"
      },
      {
        "midi": 42,
        "time": 169.941,
        "duration": 0.235,
        "velocity": 0.51,
        "hand": "right"
      },
      {
        "midi": 67,
        "time": 170.294,
        "duration": 0.529,
        "velocity": 0.83,
        "hand": "right"
      },
      {
        "midi": 42,
        "time": 170.647,
        "duration": 0.235,
        "velocity": 0.51,
        "hand": "right"
      },
      {
        "midi": 42,
        "time": 171,
        "duration": 0.235,
        "velocity": 0.58,
        "hand": "right"
      },
      {
        "midi": 42,
        "time": 171.353,
        "duration": 0.235,
        "velocity": 0.51,
        "hand": "right"
      },
      {
        "midi": 66,
        "time": 171.706,
        "duration": 0.529,
        "velocity": 0.83,
        "hand": "right"
      },
      {
        "midi": 42,
        "time": 172.059,
        "duration": 0.235,
        "velocity": 0.51,
        "hand": "right"
      },
      {
        "midi": 66,
        "time": 172.412,
        "duration": 0.353,
        "velocity": 0.83,
        "hand": "right"
      },
      {
        "midi": 42,
        "time": 172.765,
        "duration": 0.235,
        "velocity": 0.51,
        "hand": "right"
      },
      {
        "midi": 65,
        "time": 172.941,
        "duration": 0.235,
        "velocity": 0.83,
        "hand": "right"
      },
      {
        "midi": 66,
        "time": 173.118,
        "duration": 0.529,
        "velocity": 0.83,
        "hand": "right"
      },
      {
        "midi": 42,
        "time": 173.471,
        "duration": 0.235,
        "velocity": 0.51,
        "hand": "right"
      },
      {
        "midi": 66,
        "time": 173.824,
        "duration": 0.353,
        "velocity": 0.83,
        "hand": "right"
      },
      {
        "midi": 42,
        "time": 174.176,
        "duration": 0.235,
        "velocity": 0.51,
        "hand": "right"
      },
      {
        "midi": 67,
        "time": 174.353,
        "duration": 0.235,
        "velocity": 0.83,
        "hand": "right"
      },
      {
        "midi": 69,
        "time": 174.529,
        "duration": 0.882,
        "velocity": 0.83,
        "hand": "right"
      },
      {
        "midi": 42,
        "time": 174.882,
        "duration": 0.235,
        "velocity": 0.51,
        "hand": "right"
      },
      {
        "midi": 42,
        "time": 175.059,
        "duration": 0.235,
        "velocity": 0.58,
        "hand": "right"
      },
      {
        "midi": 42,
        "time": 175.412,
        "duration": 0.235,
        "velocity": 0.51,
        "hand": "right"
      },
      {
        "midi": 69,
        "time": 175.765,
        "duration": 0.529,
        "velocity": 0.83,
        "hand": "right"
      },
      {
        "midi": 42,
        "time": 176.118,
        "duration": 0.235,
        "velocity": 0.51,
        "hand": "right"
      },
      {
        "midi": 69,
        "time": 176.471,
        "duration": 0.353,
        "velocity": 0.83,
        "hand": "right"
      },
      {
        "midi": 42,
        "time": 176.824,
        "duration": 0.235,
        "velocity": 0.51,
        "hand": "right"
      },
      {
        "midi": 66,
        "time": 177,
        "duration": 0.235,
        "velocity": 0.83,
        "hand": "right"
      },
      {
        "midi": 64,
        "time": 177.176,
        "duration": 0.529,
        "velocity": 0.83,
        "hand": "right"
      },
      {
        "midi": 42,
        "time": 177.529,
        "duration": 0.235,
        "velocity": 0.51,
        "hand": "right"
      },
      {
        "midi": 62,
        "time": 177.882,
        "duration": 0.353,
        "velocity": 0.83,
        "hand": "right"
      },
      {
        "midi": 64,
        "time": 178.059,
        "duration": 0.353,
        "velocity": 0.83,
        "hand": "right"
      },
      {
        "midi": 42,
        "time": 178.235,
        "duration": 0.235,
        "velocity": 0.51,
        "hand": "right"
      },
      {
        "midi": 64,
        "time": 178.412,
        "duration": 0.235,
        "velocity": 0.83,
        "hand": "right"
      },
      {
        "midi": 42,
        "time": 178.941,
        "duration": 0.235,
        "velocity": 0.51,
        "hand": "right"
      },
      {
        "midi": 66,
        "time": 179.294,
        "duration": 0.353,
        "velocity": 0.83,
        "hand": "right"
      },
      {
        "midi": 46,
        "time": 179.647,
        "duration": 0.235,
        "velocity": 0.65,
        "hand": "right"
      },
      {
        "midi": 64,
        "time": 179.824,
        "duration": 0.235,
        "velocity": 0.83,
        "hand": "right"
      },
      {
        "midi": 62,
        "time": 180,
        "duration": 1.412,
        "velocity": 0.83,
        "hand": "right"
      },
      {
        "midi": 42,
        "time": 180.353,
        "duration": 0.235,
        "velocity": 0.51,
        "hand": "right"
      },
      {
        "midi": 42,
        "time": 180.706,
        "duration": 0.235,
        "velocity": 0.58,
        "hand": "right"
      },
      {
        "midi": 42,
        "time": 181.059,
        "duration": 0.235,
        "velocity": 0.51,
        "hand": "right"
      },
      {
        "midi": 42,
        "time": 181.412,
        "duration": 0.235,
        "velocity": 0.65,
        "hand": "right"
      },
      {
        "midi": 42,
        "time": 181.765,
        "duration": 0.235,
        "velocity": 0.51,
        "hand": "right"
      },
      {
        "midi": 42,
        "time": 182.118,
        "duration": 0.235,
        "velocity": 0.58,
        "hand": "right"
      },
      {
        "midi": 46,
        "time": 182.471,
        "duration": 0.235,
        "velocity": 0.65,
        "hand": "right"
      },
      {
        "midi": 69,
        "time": 182.824,
        "duration": 1.588,
        "velocity": 0.83,
        "hand": "right"
      },
      {
        "midi": 66,
        "time": 183,
        "duration": 0.353,
        "velocity": 0.83,
        "hand": "right"
      },
      {
        "midi": 42,
        "time": 183.176,
        "duration": 0.235,
        "velocity": 0.51,
        "hand": "right"
      },
      {
        "midi": 42,
        "time": 183.353,
        "duration": 0.235,
        "velocity": 0.43,
        "hand": "right"
      },
      {
        "midi": 66,
        "time": 183.529,
        "duration": 0.353,
        "velocity": 0.83,
        "hand": "right"
      },
      {
        "midi": 42,
        "time": 183.882,
        "duration": 0.235,
        "velocity": 0.51,
        "hand": "right"
      },
      {
        "midi": 66,
        "time": 184.059,
        "duration": 0.235,
        "velocity": 0.83,
        "hand": "right"
      },
      {
        "midi": 69,
        "time": 184.235,
        "duration": 0.353,
        "velocity": 0.83,
        "hand": "right"
      },
      {
        "midi": 42,
        "time": 184.588,
        "duration": 0.235,
        "velocity": 0.51,
        "hand": "right"
      },
      {
        "midi": 66,
        "time": 184.765,
        "duration": 0.235,
        "velocity": 0.83,
        "hand": "right"
      },
      {
        "midi": 69,
        "time": 184.941,
        "duration": 0.353,
        "velocity": 0.83,
        "hand": "right"
      },
      {
        "midi": 42,
        "time": 185.294,
        "duration": 0.235,
        "velocity": 0.51,
        "hand": "right"
      },
      {
        "midi": 74,
        "time": 185.471,
        "duration": 0.235,
        "velocity": 0.83,
        "hand": "right"
      },
      {
        "midi": 73,
        "time": 185.647,
        "duration": 1.588,
        "velocity": 0.83,
        "hand": "right"
      },
      {
        "midi": 67,
        "time": 185.824,
        "duration": 0.353,
        "velocity": 0.83,
        "hand": "right"
      },
      {
        "midi": 42,
        "time": 186,
        "duration": 0.235,
        "velocity": 0.51,
        "hand": "right"
      },
      {
        "midi": 67,
        "time": 186.353,
        "duration": 0.353,
        "velocity": 0.83,
        "hand": "right"
      },
      {
        "midi": 42,
        "time": 186.706,
        "duration": 0.235,
        "velocity": 0.51,
        "hand": "right"
      },
      {
        "midi": 67,
        "time": 186.882,
        "duration": 0.235,
        "velocity": 0.83,
        "hand": "right"
      },
      {
        "midi": 73,
        "time": 187.059,
        "duration": 0.529,
        "velocity": 0.83,
        "hand": "right"
      },
      {
        "midi": 42,
        "time": 187.412,
        "duration": 0.235,
        "velocity": 0.51,
        "hand": "right"
      },
      {
        "midi": 42,
        "time": 187.765,
        "duration": 0.235,
        "velocity": 0.58,
        "hand": "right"
      },
      {
        "midi": 42,
        "time": 188.118,
        "duration": 0.235,
        "velocity": 0.51,
        "hand": "right"
      },
      {
        "midi": 67,
        "time": 188.471,
        "duration": 1.588,
        "velocity": 0.83,
        "hand": "right"
      },
      {
        "midi": 64,
        "time": 188.647,
        "duration": 0.353,
        "velocity": 0.83,
        "hand": "right"
      },
      {
        "midi": 42,
        "time": 188.824,
        "duration": 0.235,
        "velocity": 0.73,
        "hand": "right"
      },
      {
        "midi": 64,
        "time": 189.176,
        "duration": 0.353,
        "velocity": 0.83,
        "hand": "right"
      },
      {
        "midi": 42,
        "time": 189.529,
        "duration": 0.235,
        "velocity": 0.51,
        "hand": "right"
      },
      {
        "midi": 64,
        "time": 189.706,
        "duration": 0.235,
        "velocity": 0.83,
        "hand": "right"
      },
      {
        "midi": 67,
        "time": 189.882,
        "duration": 0.353,
        "velocity": 0.83,
        "hand": "right"
      },
      {
        "midi": 42,
        "time": 190.235,
        "duration": 0.235,
        "velocity": 0.73,
        "hand": "right"
      },
      {
        "midi": 64,
        "time": 190.412,
        "duration": 0.235,
        "velocity": 0.83,
        "hand": "right"
      },
      {
        "midi": 67,
        "time": 190.588,
        "duration": 0.353,
        "velocity": 0.83,
        "hand": "right"
      },
      {
        "midi": 42,
        "time": 190.941,
        "duration": 0.235,
        "velocity": 0.51,
        "hand": "right"
      },
      {
        "midi": 71,
        "time": 191.118,
        "duration": 0.235,
        "velocity": 0.83,
        "hand": "right"
      },
      {
        "midi": 69,
        "time": 191.294,
        "duration": 0.882,
        "velocity": 0.83,
        "hand": "right"
      },
      {
        "midi": 62,
        "time": 191.471,
        "duration": 0.353,
        "velocity": 0.79,
        "hand": "right"
      },
      {
        "midi": 42,
        "time": 191.647,
        "duration": 0.235,
        "velocity": 0.51,
        "hand": "right"
      },
      {
        "midi": 42,
        "time": 191.824,
        "duration": 0.235,
        "velocity": 0.43,
        "hand": "right"
      },
      {
        "midi": 62,
        "time": 192,
        "duration": 0.353,
        "velocity": 0.79,
        "hand": "right"
      },
      {
        "midi": 42,
        "time": 192.353,
        "duration": 0.235,
        "velocity": 0.51,
        "hand": "right"
      },
      {
        "midi": 62,
        "time": 192.529,
        "duration": 0.235,
        "velocity": 0.79,
        "hand": "right"
      },
      {
        "midi": 69,
        "time": 192.706,
        "duration": 0.529,
        "velocity": 0.83,
        "hand": "right"
      },
      {
        "midi": 42,
        "time": 193.059,
        "duration": 0.235,
        "velocity": 0.51,
        "hand": "right"
      },
      {
        "midi": 42,
        "time": 193.412,
        "duration": 0.235,
        "velocity": 0.58,
        "hand": "right"
      },
      {
        "midi": 42,
        "time": 193.765,
        "duration": 0.235,
        "velocity": 0.51,
        "hand": "right"
      },
      {
        "midi": 74,
        "time": 194.118,
        "duration": 0.529,
        "velocity": 0.83,
        "hand": "right"
      },
      {
        "midi": 42,
        "time": 194.471,
        "duration": 0.235,
        "velocity": 0.51,
        "hand": "right"
      },
      {
        "midi": 74,
        "time": 194.824,
        "duration": 0.353,
        "velocity": 0.83,
        "hand": "right"
      },
      {
        "midi": 42,
        "time": 195.176,
        "duration": 0.235,
        "velocity": 0.51,
        "hand": "right"
      },
      {
        "midi": 74,
        "time": 195.353,
        "duration": 0.235,
        "velocity": 0.83,
        "hand": "right"
      },
      {
        "midi": 46,
        "time": 195.882,
        "duration": 0.235,
        "velocity": 0.51,
        "hand": "right"
      },
      {
        "midi": 74,
        "time": 196.235,
        "duration": 0.353,
        "velocity": 0.83,
        "hand": "right"
      },
      {
        "midi": 42,
        "time": 196.588,
        "duration": 0.235,
        "velocity": 0.51,
        "hand": "right"
      },
      {
        "midi": 73,
        "time": 196.765,
        "duration": 0.235,
        "velocity": 0.83,
        "hand": "right"
      },
      {
        "midi": 71,
        "time": 196.941,
        "duration": 0.882,
        "velocity": 0.83,
        "hand": "right"
      },
      {
        "midi": 42,
        "time": 197.294,
        "duration": 0.235,
        "velocity": 0.51,
        "hand": "right"
      },
      {
        "midi": 42,
        "time": 197.471,
        "duration": 0.235,
        "velocity": 0.43,
        "hand": "right"
      },
      {
        "midi": 67,
        "time": 197.647,
        "duration": 0.353,
        "velocity": 0.83,
        "hand": "right"
      },
      {
        "midi": 42,
        "time": 198,
        "duration": 0.235,
        "velocity": 0.51,
        "hand": "right"
      },
      {
        "midi": 67,
        "time": 198.176,
        "duration": 0.235,
        "velocity": 0.83,
        "hand": "right"
      },
      {
        "midi": 67,
        "time": 198.353,
        "duration": 0.529,
        "velocity": 0.83,
        "hand": "right"
      },
      {
        "midi": 42,
        "time": 198.706,
        "duration": 0.235,
        "velocity": 0.51,
        "hand": "right"
      },
      {
        "midi": 71,
        "time": 199.059,
        "duration": 0.529,
        "velocity": 0.83,
        "hand": "right"
      },
      {
        "midi": 42,
        "time": 199.412,
        "duration": 0.235,
        "velocity": 0.51,
        "hand": "right"
      },
      {
        "midi": 67,
        "time": 199.588,
        "duration": 0.235,
        "velocity": 0.83,
        "hand": "right"
      },
      {
        "midi": 69,
        "time": 199.765,
        "duration": 0.529,
        "velocity": 0.83,
        "hand": "right"
      },
      {
        "midi": 42,
        "time": 200.118,
        "duration": 0.235,
        "velocity": 0.36,
        "hand": "right"
      },
      {
        "midi": 66,
        "time": 200.471,
        "duration": 0.353,
        "velocity": 0.83,
        "hand": "right"
      },
      {
        "midi": 62,
        "time": 201,
        "duration": 0.235,
        "velocity": 0.83,
        "hand": "right"
      },
      {
        "midi": 64,
        "time": 201.176,
        "duration": 0.529,
        "velocity": 0.83,
        "hand": "right"
      },
      {
        "midi": 38,
        "time": 201.353,
        "duration": 0.235,
        "velocity": 0.43,
        "hand": "right"
      },
      {
        "midi": 35,
        "time": 201.706,
        "duration": 0.235,
        "velocity": 0.65,
        "hand": "right"
      },
      {
        "midi": 66,
        "time": 201.882,
        "duration": 0.353,
        "velocity": 0.83,
        "hand": "right"
      },
      {
        "midi": 38,
        "time": 202.059,
        "duration": 0.235,
        "velocity": 0.43,
        "hand": "right"
      },
      {
        "midi": 41,
        "time": 202.235,
        "duration": 0.235,
        "velocity": 0.83,
        "hand": "right"
      },
      {
        "midi": 64,
        "time": 202.412,
        "duration": 0.235,
        "velocity": 0.83,
        "hand": "right"
      },
      {
        "midi": 62,
        "time": 202.588,
        "duration": 1.588,
        "velocity": 0.83,
        "hand": "right"
      },
      {
        "midi": 38,
        "time": 203.118,
        "duration": 0.235,
        "velocity": 0.51,
        "hand": "right"
      },
      {
        "midi": 59,
        "time": 203.294,
        "duration": 0.529,
        "velocity": 0.83,
        "hand": "right"
      },
      {
        "midi": 35,
        "time": 203.471,
        "duration": 0.235,
        "velocity": 0.65,
        "hand": "right"
      },
      {
        "midi": 48,
        "time": 203.647,
        "duration": 0.235,
        "velocity": 0.73,
        "hand": "right"
      },
      {
        "midi": 62,
        "time": 204,
        "duration": 0.529,
        "velocity": 0.83,
        "hand": "right"
      },
      {
        "midi": 45,
        "time": 204.176,
        "duration": 0.235,
        "velocity": 0.83,
        "hand": "right"
      },
      {
        "midi": 41,
        "time": 204.706,
        "duration": 0.235,
        "velocity": 0.93,
        "hand": "right"
      },
      {
        "midi": 35,
        "time": 205.059,
        "duration": 0.235,
        "velocity": 0.58,
        "hand": "right"
      },
      {
        "midi": 59,
        "time": 205.412,
        "duration": 1.941,
        "velocity": 0.73,
        "hand": "right"
      }
    ],
    "medium": [
      {
        "midi": 37,
        "time": 0,
        "duration": 0.706,
        "velocity": 0.61,
        "hand": "left"
      },
      {
        "midi": 37,
        "time": 1.412,
        "duration": 0.706,
        "velocity": 0.61,
        "hand": "left"
      },
      {
        "midi": 37,
        "time": 2.824,
        "duration": 0.706,
        "velocity": 0.46,
        "hand": "left"
      },
      {
        "midi": 50,
        "time": 2.824,
        "duration": 0.529,
        "velocity": 0.79,
        "hand": "left"
      },
      {
        "midi": 66,
        "time": 2.824,
        "duration": 0.529,
        "velocity": 0.83,
        "hand": "right"
      },
      {
        "midi": 37,
        "time": 3.529,
        "duration": 0.706,
        "velocity": 0.61,
        "hand": "left"
      },
      {
        "midi": 50,
        "time": 3.529,
        "duration": 0.353,
        "velocity": 0.79,
        "hand": "left"
      },
      {
        "midi": 66,
        "time": 3.529,
        "duration": 0.353,
        "velocity": 0.83,
        "hand": "right"
      },
      {
        "midi": 38,
        "time": 4.059,
        "duration": 0.176,
        "velocity": 0.86,
        "hand": "left"
      },
      {
        "midi": 56,
        "time": 4.059,
        "duration": 0.176,
        "velocity": 0.79,
        "hand": "left"
      },
      {
        "midi": 65,
        "time": 4.059,
        "duration": 0.176,
        "velocity": 0.83,
        "hand": "right"
      },
      {
        "midi": 37,
        "time": 4.235,
        "duration": 0.706,
        "velocity": 0.46,
        "hand": "left"
      },
      {
        "midi": 50,
        "time": 4.235,
        "duration": 0.529,
        "velocity": 0.79,
        "hand": "left"
      },
      {
        "midi": 66,
        "time": 4.235,
        "duration": 0.529,
        "velocity": 0.83,
        "hand": "right"
      },
      {
        "midi": 37,
        "time": 4.941,
        "duration": 0.706,
        "velocity": 0.61,
        "hand": "left"
      },
      {
        "midi": 50,
        "time": 4.941,
        "duration": 0.353,
        "velocity": 0.79,
        "hand": "left"
      },
      {
        "midi": 66,
        "time": 4.941,
        "duration": 0.353,
        "velocity": 0.83,
        "hand": "right"
      },
      {
        "midi": 38,
        "time": 5.471,
        "duration": 0.176,
        "velocity": 0.86,
        "hand": "left"
      },
      {
        "midi": 57,
        "time": 5.471,
        "duration": 0.176,
        "velocity": 0.79,
        "hand": "left"
      },
      {
        "midi": 67,
        "time": 5.471,
        "duration": 0.176,
        "velocity": 0.83,
        "hand": "right"
      },
      {
        "midi": 35,
        "time": 5.647,
        "duration": 0.176,
        "velocity": 0.73,
        "hand": "left"
      },
      {
        "midi": 50,
        "time": 5.647,
        "duration": 0.882,
        "velocity": 0.79,
        "hand": "left"
      },
      {
        "midi": 69,
        "time": 5.647,
        "duration": 0.882,
        "velocity": 0.83,
        "hand": "right"
      },
      {
        "midi": 42,
        "time": 6,
        "duration": 0.176,
        "velocity": 0.51,
        "hand": "left"
      },
      {
        "midi": 37,
        "time": 6.353,
        "duration": 0.176,
        "velocity": 0.73,
        "hand": "left"
      },
      {
        "midi": 42,
        "time": 6.353,
        "duration": 0.176,
        "velocity": 0.58,
        "hand": "left"
      },
      {
        "midi": 35,
        "time": 6.706,
        "duration": 0.176,
        "velocity": 0.58,
        "hand": "left"
      },
      {
        "midi": 42,
        "time": 6.706,
        "duration": 0.176,
        "velocity": 0.51,
        "hand": "left"
      },
      {
        "midi": 35,
        "time": 7.059,
        "duration": 0.176,
        "velocity": 0.73,
        "hand": "left"
      },
      {
        "midi": 50,
        "time": 7.059,
        "duration": 0.529,
        "velocity": 0.79,
        "hand": "left"
      },
      {
        "midi": 69,
        "time": 7.059,
        "duration": 0.529,
        "velocity": 0.83,
        "hand": "right"
      },
      {
        "midi": 42,
        "time": 7.412,
        "duration": 0.176,
        "velocity": 0.51,
        "hand": "left"
      },
      {
        "midi": 37,
        "time": 7.765,
        "duration": 0.176,
        "velocity": 0.73,
        "hand": "left"
      },
      {
        "midi": 50,
        "time": 7.765,
        "duration": 0.353,
        "velocity": 0.79,
        "hand": "left"
      },
      {
        "midi": 69,
        "time": 7.765,
        "duration": 0.353,
        "velocity": 0.83,
        "hand": "right"
      },
      {
        "midi": 35,
        "time": 8.118,
        "duration": 0.176,
        "velocity": 0.58,
        "hand": "left"
      },
      {
        "midi": 42,
        "time": 8.118,
        "duration": 0.176,
        "velocity": 0.51,
        "hand": "left"
      },
      {
        "midi": 38,
        "time": 8.294,
        "duration": 0.176,
        "velocity": 0.86,
        "hand": "left"
      },
      {
        "midi": 57,
        "time": 8.294,
        "duration": 0.176,
        "velocity": 0.79,
        "hand": "left"
      },
      {
        "midi": 66,
        "time": 8.294,
        "duration": 0.176,
        "velocity": 0.83,
        "hand": "right"
      },
      {
        "midi": 33,
        "time": 8.471,
        "duration": 0.529,
        "velocity": 0.86,
        "hand": "left"
      },
      {
        "midi": 45,
        "time": 8.471,
        "duration": 0.529,
        "velocity": 0.79,
        "hand": "left"
      },
      {
        "midi": 64,
        "time": 8.471,
        "duration": 0.529,
        "velocity": 0.83,
        "hand": "right"
      },
      {
        "midi": 42,
        "time": 8.824,
        "duration": 0.176,
        "velocity": 0.51,
        "hand": "left"
      },
      {
        "midi": 33,
        "time": 9.176,
        "duration": 0.529,
        "velocity": 0.86,
        "hand": "left"
      },
      {
        "midi": 45,
        "time": 9.176,
        "duration": 0.529,
        "velocity": 0.79,
        "hand": "left"
      },
      {
        "midi": 64,
        "time": 9.176,
        "duration": 0.529,
        "velocity": 0.83,
        "hand": "right"
      },
      {
        "midi": 35,
        "time": 9.529,
        "duration": 0.176,
        "velocity": 0.58,
        "hand": "left"
      },
      {
        "midi": 42,
        "time": 9.529,
        "duration": 0.176,
        "velocity": 0.51,
        "hand": "left"
      },
      {
        "midi": 42,
        "time": 9.706,
        "duration": 0.176,
        "velocity": 0.43,
        "hand": "left"
      },
      {
        "midi": 35,
        "time": 9.882,
        "duration": 0.176,
        "velocity": 0.73,
        "hand": "left"
      },
      {
        "midi": 50,
        "time": 9.882,
        "duration": 0.529,
        "velocity": 0.79,
        "hand": "left"
      },
      {
        "midi": 66,
        "time": 9.882,
        "duration": 0.529,
        "velocity": 0.83,
        "hand": "right"
      },
      {
        "midi": 42,
        "time": 10.235,
        "duration": 0.176,
        "velocity": 0.51,
        "hand": "left"
      },
      {
        "midi": 37,
        "time": 10.588,
        "duration": 0.176,
        "velocity": 0.73,
        "hand": "left"
      },
      {
        "midi": 50,
        "time": 10.588,
        "duration": 0.353,
        "velocity": 0.79,
        "hand": "left"
      },
      {
        "midi": 67,
        "time": 10.588,
        "duration": 0.353,
        "velocity": 0.83,
        "hand": "right"
      },
      {
        "midi": 35,
        "time": 10.941,
        "duration": 0.176,
        "velocity": 0.58,
        "hand": "left"
      },
      {
        "midi": 42,
        "time": 10.941,
        "duration": 0.176,
        "velocity": 0.51,
        "hand": "left"
      },
      {
        "midi": 38,
        "time": 11.118,
        "duration": 0.176,
        "velocity": 0.86,
        "hand": "left"
      },
      {
        "midi": 50,
        "time": 11.118,
        "duration": 0.176,
        "velocity": 0.79,
        "hand": "left"
      },
      {
        "midi": 66,
        "time": 11.118,
        "duration": 0.176,
        "velocity": 0.83,
        "hand": "right"
      },
      {
        "midi": 33,
        "time": 11.294,
        "duration": 1.412,
        "velocity": 0.86,
        "hand": "left"
      },
      {
        "midi": 45,
        "time": 11.294,
        "duration": 1.412,
        "velocity": 0.79,
        "hand": "left"
      },
      {
        "midi": 64,
        "time": 11.294,
        "duration": 1.412,
        "velocity": 0.83,
        "hand": "right"
      },
      {
        "midi": 42,
        "time": 11.647,
        "duration": 0.176,
        "velocity": 0.51,
        "hand": "left"
      },
      {
        "midi": 37,
        "time": 12,
        "duration": 0.176,
        "velocity": 0.73,
        "hand": "left"
      },
      {
        "midi": 42,
        "time": 12,
        "duration": 0.176,
        "velocity": 0.58,
        "hand": "left"
      },
      {
        "midi": 35,
        "time": 12.353,
        "duration": 0.176,
        "velocity": 0.58,
        "hand": "left"
      },
      {
        "midi": 42,
        "time": 12.353,
        "duration": 0.176,
        "velocity": 0.51,
        "hand": "left"
      },
      {
        "midi": 35,
        "time": 12.706,
        "duration": 0.176,
        "velocity": 0.73,
        "hand": "left"
      },
      {
        "midi": 42,
        "time": 12.706,
        "duration": 0.176,
        "velocity": 0.65,
        "hand": "left"
      },
      {
        "midi": 42,
        "time": 13.059,
        "duration": 0.176,
        "velocity": 0.51,
        "hand": "left"
      },
      {
        "midi": 37,
        "time": 13.412,
        "duration": 0.176,
        "velocity": 0.73,
        "hand": "left"
      },
      {
        "midi": 42,
        "time": 13.412,
        "duration": 0.176,
        "velocity": 0.58,
        "hand": "left"
      },
      {
        "midi": 35,
        "time": 13.765,
        "duration": 0.176,
        "velocity": 0.58,
        "hand": "left"
      },
      {
        "midi": 42,
        "time": 13.765,
        "duration": 0.176,
        "velocity": 0.51,
        "hand": "left"
      },
      {
        "midi": 35,
        "time": 14.118,
        "duration": 0.176,
        "velocity": 0.73,
        "hand": "left"
      },
      {
        "midi": 50,
        "time": 14.118,
        "duration": 0.529,
        "velocity": 0.79,
        "hand": "left"
      },
      {
        "midi": 66,
        "time": 14.118,
        "duration": 0.529,
        "velocity": 0.83,
        "hand": "right"
      },
      {
        "midi": 42,
        "time": 14.471,
        "duration": 0.176,
        "velocity": 0.51,
        "hand": "left"
      },
      {
        "midi": 37,
        "time": 14.824,
        "duration": 0.176,
        "velocity": 0.73,
        "hand": "left"
      },
      {
        "midi": 50,
        "time": 14.824,
        "duration": 0.353,
        "velocity": 0.79,
        "hand": "left"
      },
      {
        "midi": 66,
        "time": 14.824,
        "duration": 0.353,
        "velocity": 0.83,
        "hand": "right"
      },
      {
        "midi": 35,
        "time": 15.176,
        "duration": 0.176,
        "velocity": 0.58,
        "hand": "left"
      },
      {
        "midi": 42,
        "time": 15.176,
        "duration": 0.176,
        "velocity": 0.51,
        "hand": "left"
      },
      {
        "midi": 38,
        "time": 15.353,
        "duration": 0.176,
        "velocity": 0.86,
        "hand": "left"
      },
      {
        "midi": 56,
        "time": 15.353,
        "duration": 0.176,
        "velocity": 0.79,
        "hand": "left"
      },
      {
        "midi": 65,
        "time": 15.353,
        "duration": 0.176,
        "velocity": 0.83,
        "hand": "right"
      },
      {
        "midi": 35,
        "time": 15.529,
        "duration": 0.176,
        "velocity": 0.73,
        "hand": "left"
      },
      {
        "midi": 50,
        "time": 15.529,
        "duration": 0.529,
        "velocity": 0.79,
        "hand": "left"
      },
      {
        "midi": 66,
        "time": 15.529,
        "duration": 0.529,
        "velocity": 0.83,
        "hand": "right"
      },
      {
        "midi": 42,
        "time": 15.882,
        "duration": 0.176,
        "velocity": 0.51,
        "hand": "left"
      },
      {
        "midi": 37,
        "time": 16.235,
        "duration": 0.176,
        "velocity": 0.73,
        "hand": "left"
      },
      {
        "midi": 50,
        "time": 16.235,
        "duration": 0.353,
        "velocity": 0.79,
        "hand": "left"
      },
      {
        "midi": 66,
        "time": 16.235,
        "duration": 0.353,
        "velocity": 0.83,
        "hand": "right"
      },
      {
        "midi": 35,
        "time": 16.588,
        "duration": 0.176,
        "velocity": 0.58,
        "hand": "left"
      },
      {
        "midi": 42,
        "time": 16.588,
        "duration": 0.176,
        "velocity": 0.51,
        "hand": "left"
      },
      {
        "midi": 38,
        "time": 16.765,
        "duration": 0.176,
        "velocity": 0.86,
        "hand": "left"
      },
      {
        "midi": 57,
        "time": 16.765,
        "duration": 0.176,
        "velocity": 0.79,
        "hand": "left"
      },
      {
        "midi": 67,
        "time": 16.765,
        "duration": 0.176,
        "velocity": 0.83,
        "hand": "right"
      },
      {
        "midi": 35,
        "time": 16.941,
        "duration": 0.176,
        "velocity": 0.73,
        "hand": "left"
      },
      {
        "midi": 50,
        "time": 16.941,
        "duration": 0.882,
        "velocity": 0.79,
        "hand": "left"
      },
      {
        "midi": 69,
        "time": 16.941,
        "duration": 0.882,
        "velocity": 0.83,
        "hand": "right"
      },
      {
        "midi": 42,
        "time": 17.294,
        "duration": 0.176,
        "velocity": 0.51,
        "hand": "left"
      },
      {
        "midi": 37,
        "time": 17.647,
        "duration": 0.176,
        "velocity": 0.73,
        "hand": "left"
      },
      {
        "midi": 42,
        "time": 17.647,
        "duration": 0.176,
        "velocity": 0.58,
        "hand": "left"
      },
      {
        "midi": 35,
        "time": 18,
        "duration": 0.176,
        "velocity": 0.58,
        "hand": "left"
      },
      {
        "midi": 42,
        "time": 18,
        "duration": 0.176,
        "velocity": 0.51,
        "hand": "left"
      },
      {
        "midi": 35,
        "time": 18.353,
        "duration": 0.176,
        "velocity": 0.73,
        "hand": "left"
      },
      {
        "midi": 50,
        "time": 18.353,
        "duration": 0.529,
        "velocity": 0.79,
        "hand": "left"
      },
      {
        "midi": 69,
        "time": 18.353,
        "duration": 0.529,
        "velocity": 0.83,
        "hand": "right"
      },
      {
        "midi": 42,
        "time": 18.706,
        "duration": 0.176,
        "velocity": 0.51,
        "hand": "left"
      },
      {
        "midi": 37,
        "time": 19.059,
        "duration": 0.176,
        "velocity": 0.73,
        "hand": "left"
      },
      {
        "midi": 50,
        "time": 19.059,
        "duration": 0.353,
        "velocity": 0.79,
        "hand": "left"
      },
      {
        "midi": 69,
        "time": 19.059,
        "duration": 0.353,
        "velocity": 0.83,
        "hand": "right"
      },
      {
        "midi": 35,
        "time": 19.412,
        "duration": 0.176,
        "velocity": 0.58,
        "hand": "left"
      },
      {
        "midi": 42,
        "time": 19.412,
        "duration": 0.176,
        "velocity": 0.51,
        "hand": "left"
      },
      {
        "midi": 38,
        "time": 19.588,
        "duration": 0.176,
        "velocity": 0.86,
        "hand": "left"
      },
      {
        "midi": 57,
        "time": 19.588,
        "duration": 0.176,
        "velocity": 0.79,
        "hand": "left"
      },
      {
        "midi": 66,
        "time": 19.588,
        "duration": 0.176,
        "velocity": 0.83,
        "hand": "right"
      },
      {
        "midi": 35,
        "time": 19.765,
        "duration": 0.176,
        "velocity": 0.73,
        "hand": "left"
      },
      {
        "midi": 55,
        "time": 19.765,
        "duration": 0.529,
        "velocity": 0.79,
        "hand": "left"
      },
      {
        "midi": 64,
        "time": 19.765,
        "duration": 0.529,
        "velocity": 0.83,
        "hand": "right"
      },
      {
        "midi": 42,
        "time": 20.118,
        "duration": 0.176,
        "velocity": 0.51,
        "hand": "left"
      },
      {
        "midi": 37,
        "time": 20.471,
        "duration": 0.176,
        "velocity": 0.73,
        "hand": "left"
      },
      {
        "midi": 55,
        "time": 20.471,
        "duration": 0.176,
        "velocity": 0.79,
        "hand": "left"
      },
      {
        "midi": 64,
        "time": 20.471,
        "duration": 0.176,
        "velocity": 0.83,
        "hand": "right"
      },
      {
        "midi": 35,
        "time": 20.824,
        "duration": 0.176,
        "velocity": 0.58,
        "hand": "left"
      },
      {
        "midi": 55,
        "time": 20.824,
        "duration": 0.176,
        "velocity": 0.79,
        "hand": "left"
      },
      {
        "midi": 64,
        "time": 20.824,
        "duration": 0.176,
        "velocity": 0.83,
        "hand": "right"
      },
      {
        "midi": 35,
        "time": 21.176,
        "duration": 0.176,
        "velocity": 0.73,
        "hand": "left"
      },
      {
        "midi": 57,
        "time": 21.176,
        "duration": 0.529,
        "velocity": 0.79,
        "hand": "left"
      },
      {
        "midi": 64,
        "time": 21.176,
        "duration": 0.529,
        "velocity": 0.83,
        "hand": "right"
      },
      {
        "midi": 35,
        "time": 21.529,
        "duration": 0.176,
        "velocity": 0.58,
        "hand": "left"
      },
      {
        "midi": 42,
        "time": 21.529,
        "duration": 0.176,
        "velocity": 0.51,
        "hand": "left"
      },
      {
        "midi": 33,
        "time": 21.882,
        "duration": 0.353,
        "velocity": 0.86,
        "hand": "left"
      },
      {
        "midi": 45,
        "time": 21.882,
        "duration": 0.353,
        "velocity": 0.79,
        "hand": "left"
      },
      {
        "midi": 66,
        "time": 21.882,
        "duration": 0.353,
        "velocity": 0.83,
        "hand": "right"
      },
      {
        "midi": 35,
        "time": 22.235,
        "duration": 0.176,
        "velocity": 0.58,
        "hand": "left"
      },
      {
        "midi": 42,
        "time": 22.235,
        "duration": 0.176,
        "velocity": 0.51,
        "hand": "left"
      },
      {
        "midi": 33,
        "time": 22.412,
        "duration": 0.176,
        "velocity": 0.86,
        "hand": "left"
      },
      {
        "midi": 45,
        "time": 22.412,
        "duration": 0.176,
        "velocity": 0.79,
        "hand": "left"
      },
      {
        "midi": 64,
        "time": 22.412,
        "duration": 0.176,
        "velocity": 0.83,
        "hand": "right"
      },
      {
        "midi": 35,
        "time": 22.588,
        "duration": 0.176,
        "velocity": 0.73,
        "hand": "left"
      },
      {
        "midi": 49,
        "time": 22.588,
        "duration": 0.176,
        "velocity": 0.65,
        "hand": "left"
      },
      {
        "midi": 62,
        "time": 22.588,
        "duration": 1.412,
        "velocity": 0.83,
        "hand": "right"
      },
      {
        "midi": 38,
        "time": 23.118,
        "duration": 0.176,
        "velocity": 0.51,
        "hand": "left"
      },
      {
        "midi": 38,
        "time": 23.294,
        "duration": 0.176,
        "velocity": 0.83,
        "hand": "left"
      },
      {
        "midi": 35,
        "time": 23.471,
        "duration": 0.176,
        "velocity": 0.65,
        "hand": "left"
      },
      {
        "midi": 48,
        "time": 23.647,
        "duration": 0.176,
        "velocity": 0.73,
        "hand": "left"
      },
      {
        "midi": 45,
        "time": 24.176,
        "duration": 0.176,
        "velocity": 0.83,
        "hand": "left"
      },
      {
        "midi": 41,
        "time": 24.706,
        "duration": 0.176,
        "velocity": 0.93,
        "hand": "left"
      },
      {
        "midi": 35,
        "time": 25.059,
        "duration": 0.176,
        "velocity": 0.58,
        "hand": "left"
      },
      {
        "midi": 35,
        "time": 25.235,
        "duration": 0.176,
        "velocity": 0.73,
        "hand": "left"
      },
      {
        "midi": 50,
        "time": 25.235,
        "duration": 0.529,
        "velocity": 0.86,
        "hand": "left"
      },
      {
        "midi": 71,
        "time": 25.235,
        "duration": 0.529,
        "velocity": 0.83,
        "hand": "right"
      },
      {
        "midi": 42,
        "time": 25.588,
        "duration": 0.176,
        "velocity": 0.51,
        "hand": "left"
      },
      {
        "midi": 37,
        "time": 25.941,
        "duration": 0.176,
        "velocity": 0.73,
        "hand": "left"
      },
      {
        "midi": 55,
        "time": 25.941,
        "duration": 0.353,
        "velocity": 0.79,
        "hand": "left"
      },
      {
        "midi": 71,
        "time": 25.941,
        "duration": 0.353,
        "velocity": 0.83,
        "hand": "right"
      },
      {
        "midi": 35,
        "time": 26.294,
        "duration": 0.176,
        "velocity": 0.58,
        "hand": "left"
      },
      {
        "midi": 42,
        "time": 26.294,
        "duration": 0.176,
        "velocity": 0.51,
        "hand": "left"
      },
      {
        "midi": 43,
        "time": 26.471,
        "duration": 0.176,
        "velocity": 0.86,
        "hand": "left"
      },
      {
        "midi": 62,
        "time": 26.471,
        "duration": 0.176,
        "velocity": 0.79,
        "hand": "right"
      },
      {
        "midi": 71,
        "time": 26.471,
        "duration": 0.176,
        "velocity": 0.83,
        "hand": "right"
      },
      {
        "midi": 35,
        "time": 26.647,
        "duration": 0.176,
        "velocity": 0.73,
        "hand": "left"
      },
      {
        "midi": 55,
        "time": 26.647,
        "duration": 0.529,
        "velocity": 0.79,
        "hand": "left"
      },
      {
        "midi": 71,
        "time": 26.647,
        "duration": 0.529,
        "velocity": 0.83,
        "hand": "right"
      },
      {
        "midi": 42,
        "time": 27,
        "duration": 0.176,
        "velocity": 0.51,
        "hand": "left"
      },
      {
        "midi": 37,
        "time": 27.353,
        "duration": 0.176,
        "velocity": 0.73,
        "hand": "left"
      },
      {
        "midi": 55,
        "time": 27.353,
        "duration": 0.353,
        "velocity": 0.79,
        "hand": "left"
      },
      {
        "midi": 71,
        "time": 27.353,
        "duration": 0.353,
        "velocity": 0.83,
        "hand": "right"
      },
      {
        "midi": 35,
        "time": 27.706,
        "duration": 0.176,
        "velocity": 0.58,
        "hand": "left"
      },
      {
        "midi": 42,
        "time": 27.706,
        "duration": 0.176,
        "velocity": 0.51,
        "hand": "left"
      },
      {
        "midi": 43,
        "time": 27.882,
        "duration": 0.176,
        "velocity": 0.86,
        "hand": "left"
      },
      {
        "midi": 59,
        "time": 27.882,
        "duration": 0.176,
        "velocity": 0.79,
        "hand": "left"
      },
      {
        "midi": 67,
        "time": 27.882,
        "duration": 0.176,
        "velocity": 0.83,
        "hand": "right"
      },
      {
        "midi": 35,
        "time": 28.059,
        "duration": 0.176,
        "velocity": 0.73,
        "hand": "left"
      },
      {
        "midi": 50,
        "time": 28.059,
        "duration": 0.882,
        "velocity": 0.79,
        "hand": "left"
      },
      {
        "midi": 66,
        "time": 28.059,
        "duration": 0.882,
        "velocity": 0.83,
        "hand": "right"
      },
      {
        "midi": 42,
        "time": 28.412,
        "duration": 0.176,
        "velocity": 0.51,
        "hand": "left"
      },
      {
        "midi": 37,
        "time": 28.765,
        "duration": 0.176,
        "velocity": 0.73,
        "hand": "left"
      },
      {
        "midi": 42,
        "time": 28.765,
        "duration": 0.176,
        "velocity": 0.58,
        "hand": "left"
      },
      {
        "midi": 35,
        "time": 29.118,
        "duration": 0.176,
        "velocity": 0.58,
        "hand": "left"
      },
      {
        "midi": 42,
        "time": 29.118,
        "duration": 0.176,
        "velocity": 0.51,
        "hand": "left"
      },
      {
        "midi": 35,
        "time": 29.471,
        "duration": 0.176,
        "velocity": 0.73,
        "hand": "left"
      },
      {
        "midi": 50,
        "time": 29.471,
        "duration": 0.529,
        "velocity": 0.79,
        "hand": "left"
      },
      {
        "midi": 69,
        "time": 29.471,
        "duration": 0.529,
        "velocity": 0.83,
        "hand": "right"
      },
      {
        "midi": 42,
        "time": 29.824,
        "duration": 0.176,
        "velocity": 0.51,
        "hand": "left"
      },
      {
        "midi": 37,
        "time": 30.176,
        "duration": 0.176,
        "velocity": 0.73,
        "hand": "left"
      },
      {
        "midi": 42,
        "time": 30.176,
        "duration": 0.176,
        "velocity": 0.58,
        "hand": "left"
      },
      {
        "midi": 35,
        "time": 30.529,
        "duration": 0.176,
        "velocity": 0.58,
        "hand": "left"
      },
      {
        "midi": 42,
        "time": 30.529,
        "duration": 0.176,
        "velocity": 0.51,
        "hand": "left"
      },
      {
        "midi": 35,
        "time": 30.882,
        "duration": 0.176,
        "velocity": 0.73,
        "hand": "left"
      },
      {
        "midi": 55,
        "time": 30.882,
        "duration": 0.529,
        "velocity": 0.79,
        "hand": "left"
      },
      {
        "midi": 71,
        "time": 30.882,
        "duration": 0.529,
        "velocity": 0.83,
        "hand": "right"
      },
      {
        "midi": 42,
        "time": 31.235,
        "duration": 0.176,
        "velocity": 0.51,
        "hand": "left"
      },
      {
        "midi": 37,
        "time": 31.588,
        "duration": 0.176,
        "velocity": 0.73,
        "hand": "left"
      },
      {
        "midi": 55,
        "time": 31.588,
        "duration": 0.353,
        "velocity": 0.79,
        "hand": "left"
      },
      {
        "midi": 71,
        "time": 31.588,
        "duration": 0.353,
        "velocity": 0.83,
        "hand": "right"
      },
      {
        "midi": 35,
        "time": 31.941,
        "duration": 0.176,
        "velocity": 0.58,
        "hand": "left"
      },
      {
        "midi": 42,
        "time": 31.941,
        "duration": 0.176,
        "velocity": 0.51,
        "hand": "left"
      },
      {
        "midi": 43,
        "time": 32.118,
        "duration": 0.176,
        "velocity": 0.86,
        "hand": "left"
      },
      {
        "midi": 62,
        "time": 32.118,
        "duration": 0.176,
        "velocity": 0.79,
        "hand": "right"
      },
      {
        "midi": 71,
        "time": 32.118,
        "duration": 0.176,
        "velocity": 0.83,
        "hand": "right"
      },
      {
        "midi": 35,
        "time": 32.294,
        "duration": 0.176,
        "velocity": 0.73,
        "hand": "left"
      },
      {
        "midi": 52,
        "time": 32.294,
        "duration": 0.176,
        "velocity": 0.79,
        "hand": "left"
      },
      {
        "midi": 71,
        "time": 32.294,
        "duration": 0.176,
        "velocity": 0.83,
        "hand": "right"
      },
      {
        "midi": 40,
        "time": 32.647,
        "duration": 0.176,
        "velocity": 0.86,
        "hand": "left"
      },
      {
        "midi": 52,
        "time": 32.647,
        "duration": 0.176,
        "velocity": 0.79,
        "hand": "left"
      },
      {
        "midi": 74,
        "time": 32.647,
        "duration": 0.176,
        "velocity": 0.83,
        "hand": "right"
      },
      {
        "midi": 37,
        "time": 33,
        "duration": 0.176,
        "velocity": 0.73,
        "hand": "left"
      },
      {
        "midi": 52,
        "time": 33,
        "duration": 0.176,
        "velocity": 0.79,
        "hand": "left"
      },
      {
        "midi": 73,
        "time": 33,
        "duration": 0.176,
        "velocity": 0.83,
        "hand": "right"
      },
      {
        "midi": 35,
        "time": 33.353,
        "duration": 0.176,
        "velocity": 0.58,
        "hand": "left"
      },
      {
        "midi": 52,
        "time": 33.353,
        "duration": 0.176,
        "velocity": 0.79,
        "hand": "left"
      },
      {
        "midi": 71,
        "time": 33.353,
        "duration": 0.176,
        "velocity": 0.83,
        "hand": "right"
      },
      {
        "midi": 33,
        "time": 33.706,
        "duration": 1.412,
        "velocity": 0.86,
        "hand": "left"
      },
      {
        "midi": 57,
        "time": 33.706,
        "duration": 1.412,
        "velocity": 0.79,
        "hand": "left"
      },
      {
        "midi": 69,
        "time": 33.706,
        "duration": 1.412,
        "velocity": 0.86,
        "hand": "right"
      },
      {
        "midi": 42,
        "time": 34.059,
        "duration": 0.176,
        "velocity": 0.51,
        "hand": "left"
      },
      {
        "midi": 37,
        "time": 34.412,
        "duration": 0.176,
        "velocity": 0.73,
        "hand": "left"
      },
      {
        "midi": 42,
        "time": 34.412,
        "duration": 0.176,
        "velocity": 0.58,
        "hand": "left"
      },
      {
        "midi": 35,
        "time": 34.765,
        "duration": 0.176,
        "velocity": 0.58,
        "hand": "left"
      },
      {
        "midi": 42,
        "time": 34.765,
        "duration": 0.176,
        "velocity": 0.51,
        "hand": "left"
      },
      {
        "midi": 35,
        "time": 35.118,
        "duration": 0.176,
        "velocity": 0.73,
        "hand": "left"
      },
      {
        "midi": 42,
        "time": 35.118,
        "duration": 0.176,
        "velocity": 0.65,
        "hand": "left"
      },
      {
        "midi": 67,
        "time": 35.118,
        "duration": 0.529,
        "velocity": 0.83,
        "hand": "right"
      },
      {
        "midi": 42,
        "time": 35.471,
        "duration": 0.176,
        "velocity": 0.51,
        "hand": "left"
      },
      {
        "midi": 37,
        "time": 35.824,
        "duration": 0.176,
        "velocity": 0.73,
        "hand": "left"
      },
      {
        "midi": 42,
        "time": 35.824,
        "duration": 0.176,
        "velocity": 0.58,
        "hand": "left"
      },
      {
        "midi": 35,
        "time": 36.176,
        "duration": 0.176,
        "velocity": 0.58,
        "hand": "left"
      },
      {
        "midi": 42,
        "time": 36.176,
        "duration": 0.176,
        "velocity": 0.51,
        "hand": "left"
      },
      {
        "midi": 35,
        "time": 36.529,
        "duration": 0.176,
        "velocity": 0.73,
        "hand": "left"
      },
      {
        "midi": 50,
        "time": 36.529,
        "duration": 0.529,
        "velocity": 0.79,
        "hand": "left"
      },
      {
        "midi": 66,
        "time": 36.529,
        "duration": 0.529,
        "velocity": 0.83,
        "hand": "right"
      },
      {
        "midi": 42,
        "time": 36.882,
        "duration": 0.176,
        "velocity": 0.51,
        "hand": "left"
      },
      {
        "midi": 37,
        "time": 37.235,
        "duration": 0.176,
        "velocity": 0.73,
        "hand": "left"
      },
      {
        "midi": 50,
        "time": 37.235,
        "duration": 0.353,
        "velocity": 0.79,
        "hand": "left"
      },
      {
        "midi": 66,
        "time": 37.235,
        "duration": 0.353,
        "velocity": 0.83,
        "hand": "right"
      },
      {
        "midi": 35,
        "time": 37.588,
        "duration": 0.176,
        "velocity": 0.58,
        "hand": "left"
      },
      {
        "midi": 42,
        "time": 37.588,
        "duration": 0.176,
        "velocity": 0.51,
        "hand": "left"
      },
      {
        "midi": 38,
        "time": 37.765,
        "duration": 0.176,
        "velocity": 0.86,
        "hand": "left"
      },
      {
        "midi": 56,
        "time": 37.765,
        "duration": 0.176,
        "velocity": 0.79,
        "hand": "left"
      },
      {
        "midi": 65,
        "time": 37.765,
        "duration": 0.176,
        "velocity": 0.83,
        "hand": "right"
      },
      {
        "midi": 35,
        "time": 37.941,
        "duration": 0.176,
        "velocity": 0.73,
        "hand": "left"
      },
      {
        "midi": 50,
        "time": 37.941,
        "duration": 0.529,
        "velocity": 0.79,
        "hand": "left"
      },
      {
        "midi": 66,
        "time": 37.941,
        "duration": 0.529,
        "velocity": 0.83,
        "hand": "right"
      },
      {
        "midi": 42,
        "time": 38.294,
        "duration": 0.176,
        "velocity": 0.51,
        "hand": "left"
      },
      {
        "midi": 37,
        "time": 38.647,
        "duration": 0.176,
        "velocity": 0.73,
        "hand": "left"
      },
      {
        "midi": 50,
        "time": 38.647,
        "duration": 0.353,
        "velocity": 0.79,
        "hand": "left"
      },
      {
        "midi": 66,
        "time": 38.647,
        "duration": 0.353,
        "velocity": 0.83,
        "hand": "right"
      },
      {
        "midi": 35,
        "time": 39,
        "duration": 0.176,
        "velocity": 0.58,
        "hand": "left"
      },
      {
        "midi": 42,
        "time": 39,
        "duration": 0.176,
        "velocity": 0.51,
        "hand": "left"
      },
      {
        "midi": 38,
        "time": 39.176,
        "duration": 0.176,
        "velocity": 0.86,
        "hand": "left"
      },
      {
        "midi": 57,
        "time": 39.176,
        "duration": 0.176,
        "velocity": 0.79,
        "hand": "left"
      },
      {
        "midi": 67,
        "time": 39.176,
        "duration": 0.176,
        "velocity": 0.83,
        "hand": "right"
      },
      {
        "midi": 35,
        "time": 39.353,
        "duration": 0.176,
        "velocity": 0.73,
        "hand": "left"
      },
      {
        "midi": 50,
        "time": 39.353,
        "duration": 0.882,
        "velocity": 0.79,
        "hand": "left"
      },
      {
        "midi": 69,
        "time": 39.353,
        "duration": 0.882,
        "velocity": 0.83,
        "hand": "right"
      },
      {
        "midi": 42,
        "time": 39.706,
        "duration": 0.176,
        "velocity": 0.51,
        "hand": "left"
      },
      {
        "midi": 37,
        "time": 40.059,
        "duration": 0.176,
        "velocity": 0.73,
        "hand": "left"
      },
      {
        "midi": 42,
        "time": 40.059,
        "duration": 0.176,
        "velocity": 0.58,
        "hand": "left"
      },
      {
        "midi": 35,
        "time": 40.412,
        "duration": 0.176,
        "velocity": 0.58,
        "hand": "left"
      },
      {
        "midi": 42,
        "time": 40.412,
        "duration": 0.176,
        "velocity": 0.51,
        "hand": "left"
      },
      {
        "midi": 35,
        "time": 40.765,
        "duration": 0.176,
        "velocity": 0.73,
        "hand": "left"
      },
      {
        "midi": 50,
        "time": 40.765,
        "duration": 0.529,
        "velocity": 0.79,
        "hand": "left"
      },
      {
        "midi": 69,
        "time": 40.765,
        "duration": 0.529,
        "velocity": 0.83,
        "hand": "right"
      },
      {
        "midi": 42,
        "time": 41.118,
        "duration": 0.176,
        "velocity": 0.51,
        "hand": "left"
      },
      {
        "midi": 37,
        "time": 41.471,
        "duration": 0.176,
        "velocity": 0.73,
        "hand": "left"
      },
      {
        "midi": 50,
        "time": 41.471,
        "duration": 0.353,
        "velocity": 0.79,
        "hand": "left"
      },
      {
        "midi": 69,
        "time": 41.471,
        "duration": 0.353,
        "velocity": 0.83,
        "hand": "right"
      },
      {
        "midi": 35,
        "time": 41.824,
        "duration": 0.176,
        "velocity": 0.58,
        "hand": "left"
      },
      {
        "midi": 42,
        "time": 41.824,
        "duration": 0.176,
        "velocity": 0.51,
        "hand": "left"
      },
      {
        "midi": 38,
        "time": 42,
        "duration": 0.176,
        "velocity": 0.86,
        "hand": "left"
      },
      {
        "midi": 57,
        "time": 42,
        "duration": 0.176,
        "velocity": 0.79,
        "hand": "left"
      },
      {
        "midi": 66,
        "time": 42,
        "duration": 0.176,
        "velocity": 0.83,
        "hand": "right"
      },
      {
        "midi": 35,
        "time": 42.176,
        "duration": 0.176,
        "velocity": 0.73,
        "hand": "left"
      },
      {
        "midi": 55,
        "time": 42.176,
        "duration": 0.529,
        "velocity": 0.79,
        "hand": "left"
      },
      {
        "midi": 64,
        "time": 42.176,
        "duration": 0.529,
        "velocity": 0.83,
        "hand": "right"
      },
      {
        "midi": 42,
        "time": 42.529,
        "duration": 0.176,
        "velocity": 0.51,
        "hand": "left"
      },
      {
        "midi": 37,
        "time": 42.882,
        "duration": 0.176,
        "velocity": 0.73,
        "hand": "left"
      },
      {
        "midi": 47,
        "time": 42.882,
        "duration": 0.353,
        "velocity": 0.86,
        "hand": "left"
      },
      {
        "midi": 62,
        "time": 42.882,
        "duration": 0.353,
        "velocity": 0.83,
        "hand": "right"
      },
      {
        "midi": 64,
        "time": 43.059,
        "duration": 0.353,
        "velocity": 0.83,
        "hand": "right"
      },
      {
        "midi": 35,
        "time": 43.235,
        "duration": 0.176,
        "velocity": 0.58,
        "hand": "left"
      },
      {
        "midi": 42,
        "time": 43.235,
        "duration": 0.176,
        "velocity": 0.51,
        "hand": "left"
      },
      {
        "midi": 43,
        "time": 43.412,
        "duration": 0.176,
        "velocity": 0.86,
        "hand": "left"
      },
      {
        "midi": 59,
        "time": 43.412,
        "duration": 0.176,
        "velocity": 0.79,
        "hand": "left"
      },
      {
        "midi": 64,
        "time": 43.412,
        "duration": 0.176,
        "velocity": 0.83,
        "hand": "right"
      },
      {
        "midi": 35,
        "time": 43.588,
        "duration": 0.176,
        "velocity": 0.73,
        "hand": "left"
      },
      {
        "midi": 57,
        "time": 43.588,
        "duration": 0.529,
        "velocity": 0.79,
        "hand": "left"
      },
      {
        "midi": 64,
        "time": 43.588,
        "duration": 0.529,
        "velocity": 0.83,
        "hand": "right"
      },
      {
        "midi": 38,
        "time": 43.941,
        "duration": 0.176,
        "velocity": 0.73,
        "hand": "left"
      },
      {
        "midi": 42,
        "time": 43.941,
        "duration": 0.176,
        "velocity": 0.51,
        "hand": "left"
      },
      {
        "midi": 38,
        "time": 44.118,
        "duration": 0.176,
        "velocity": 0.58,
        "hand": "left"
      },
      {
        "midi": 33,
        "time": 44.294,
        "duration": 0.353,
        "velocity": 0.86,
        "hand": "left"
      },
      {
        "midi": 45,
        "time": 44.294,
        "duration": 0.353,
        "velocity": 0.79,
        "hand": "left"
      },
      {
        "midi": 66,
        "time": 44.294,
        "duration": 0.353,
        "velocity": 0.83,
        "hand": "right"
      },
      {
        "midi": 35,
        "time": 44.647,
        "duration": 0.176,
        "velocity": 0.58,
        "hand": "left"
      },
      {
        "midi": 46,
        "time": 44.647,
        "duration": 0.176,
        "velocity": 0.65,
        "hand": "left"
      },
      {
        "midi": 33,
        "time": 44.824,
        "duration": 0.176,
        "velocity": 0.86,
        "hand": "left"
      },
      {
        "midi": 55,
        "time": 44.824,
        "duration": 0.176,
        "velocity": 0.79,
        "hand": "left"
      },
      {
        "midi": 64,
        "time": 44.824,
        "duration": 0.176,
        "velocity": 0.83,
        "hand": "right"
      },
      {
        "midi": 35,
        "time": 45,
        "duration": 0.176,
        "velocity": 0.65,
        "hand": "left"
      },
      {
        "midi": 42,
        "time": 45,
        "duration": 0.176,
        "velocity": 0.58,
        "hand": "left"
      },
      {
        "midi": 62,
        "time": 45,
        "duration": 1.412,
        "velocity": 0.83,
        "hand": "right"
      },
      {
        "midi": 42,
        "time": 45.353,
        "duration": 0.176,
        "velocity": 0.36,
        "hand": "left"
      },
      {
        "midi": 42,
        "time": 45.529,
        "duration": 0.176,
        "velocity": 0.73,
        "hand": "left"
      },
      {
        "midi": 38,
        "time": 45.706,
        "duration": 0.176,
        "velocity": 0.73,
        "hand": "left"
      },
      {
        "midi": 46,
        "time": 45.706,
        "duration": 0.176,
        "velocity": 0.73,
        "hand": "left"
      },
      {
        "midi": 35,
        "time": 46.235,
        "duration": 0.176,
        "velocity": 0.65,
        "hand": "left"
      },
      {
        "midi": 38,
        "time": 46.412,
        "duration": 0.176,
        "velocity": 0.73,
        "hand": "left"
      },
      {
        "midi": 38,
        "time": 46.588,
        "duration": 0.176,
        "velocity": 0.43,
        "hand": "left"
      },
      {
        "midi": 35,
        "time": 46.941,
        "duration": 0.176,
        "velocity": 0.65,
        "hand": "left"
      },
      {
        "midi": 38,
        "time": 47.118,
        "duration": 0.176,
        "velocity": 0.73,
        "hand": "left"
      },
      {
        "midi": 38,
        "time": 47.294,
        "duration": 0.176,
        "velocity": 0.43,
        "hand": "left"
      },
      {
        "midi": 41,
        "time": 47.471,
        "duration": 0.176,
        "velocity": 0.83,
        "hand": "left"
      },
      {
        "midi": 35,
        "time": 47.824,
        "duration": 0.176,
        "velocity": 0.73,
        "hand": "left"
      },
      {
        "midi": 50,
        "time": 47.824,
        "duration": 0.176,
        "velocity": 0.79,
        "hand": "left"
      },
      {
        "midi": 69,
        "time": 47.824,
        "duration": 1.588,
        "velocity": 0.83,
        "hand": "right"
      },
      {
        "midi": 38,
        "time": 48,
        "duration": 0.353,
        "velocity": 0.86,
        "hand": "left"
      },
      {
        "midi": 62,
        "time": 48,
        "duration": 0.353,
        "velocity": 0.79,
        "hand": "right"
      },
      {
        "midi": 66,
        "time": 48,
        "duration": 0.353,
        "velocity": 0.83,
        "hand": "right"
      },
      {
        "midi": 42,
        "time": 48.176,
        "duration": 0.176,
        "velocity": 0.51,
        "hand": "left"
      },
      {
        "midi": 42,
        "time": 48.353,
        "duration": 0.176,
        "velocity": 0.43,
        "hand": "left"
      },
      {
        "midi": 38,
        "time": 48.529,
        "duration": 0.353,
        "velocity": 0.86,
        "hand": "left"
      },
      {
        "midi": 50,
        "time": 48.529,
        "duration": 0.353,
        "velocity": 0.79,
        "hand": "left"
      },
      {
        "midi": 66,
        "time": 48.529,
        "duration": 0.353,
        "velocity": 0.83,
        "hand": "right"
      },
      {
        "midi": 42,
        "time": 48.882,
        "duration": 0.176,
        "velocity": 0.51,
        "hand": "left"
      },
      {
        "midi": 35,
        "time": 49.059,
        "duration": 0.176,
        "velocity": 0.58,
        "hand": "left"
      },
      {
        "midi": 50,
        "time": 49.059,
        "duration": 0.176,
        "velocity": 0.79,
        "hand": "left"
      },
      {
        "midi": 66,
        "time": 49.059,
        "duration": 0.176,
        "velocity": 0.83,
        "hand": "right"
      },
      {
        "midi": 35,
        "time": 49.235,
        "duration": 0.176,
        "velocity": 0.73,
        "hand": "left"
      },
      {
        "midi": 50,
        "time": 49.235,
        "duration": 0.529,
        "velocity": 0.79,
        "hand": "left"
      },
      {
        "midi": 69,
        "time": 49.235,
        "duration": 0.353,
        "velocity": 0.83,
        "hand": "right"
      },
      {
        "midi": 42,
        "time": 49.588,
        "duration": 0.176,
        "velocity": 0.51,
        "hand": "left"
      },
      {
        "midi": 42,
        "time": 49.765,
        "duration": 0.176,
        "velocity": 0.43,
        "hand": "left"
      },
      {
        "midi": 66,
        "time": 49.765,
        "duration": 0.176,
        "velocity": 0.83,
        "hand": "right"
      },
      {
        "midi": 38,
        "time": 49.941,
        "duration": 0.176,
        "velocity": 0.73,
        "hand": "left"
      },
      {
        "midi": 42,
        "time": 49.941,
        "duration": 0.176,
        "velocity": 0.58,
        "hand": "left"
      },
      {
        "midi": 69,
        "time": 49.941,
        "duration": 0.353,
        "velocity": 0.83,
        "hand": "right"
      },
      {
        "midi": 35,
        "time": 50.294,
        "duration": 0.176,
        "velocity": 0.58,
        "hand": "left"
      },
      {
        "midi": 42,
        "time": 50.294,
        "duration": 0.176,
        "velocity": 0.51,
        "hand": "left"
      },
      {
        "midi": 42,
        "time": 50.471,
        "duration": 0.176,
        "velocity": 0.43,
        "hand": "left"
      },
      {
        "midi": 74,
        "time": 50.471,
        "duration": 0.176,
        "velocity": 0.83,
        "hand": "right"
      },
      {
        "midi": 33,
        "time": 50.647,
        "duration": 0.176,
        "velocity": 0.86,
        "hand": "left"
      },
      {
        "midi": 52,
        "time": 50.647,
        "duration": 0.176,
        "velocity": 0.86,
        "hand": "left"
      },
      {
        "midi": 73,
        "time": 50.647,
        "duration": 0.882,
        "velocity": 0.86,
        "hand": "right"
      },
      {
        "midi": 33,
        "time": 50.824,
        "duration": 0.353,
        "velocity": 0.86,
        "hand": "left"
      },
      {
        "midi": 52,
        "time": 50.824,
        "duration": 0.353,
        "velocity": 0.86,
        "hand": "left"
      },
      {
        "midi": 67,
        "time": 50.824,
        "duration": 0.353,
        "velocity": 0.83,
        "hand": "right"
      },
      {
        "midi": 42,
        "time": 51,
        "duration": 0.176,
        "velocity": 0.51,
        "hand": "left"
      },
      {
        "midi": 42,
        "time": 51.176,
        "duration": 0.176,
        "velocity": 0.43,
        "hand": "left"
      },
      {
        "midi": 33,
        "time": 51.353,
        "duration": 0.353,
        "velocity": 0.86,
        "hand": "left"
      },
      {
        "midi": 45,
        "time": 51.353,
        "duration": 0.353,
        "velocity": 0.79,
        "hand": "left"
      },
      {
        "midi": 67,
        "time": 51.353,
        "duration": 0.353,
        "velocity": 0.83,
        "hand": "right"
      },
      {
        "midi": 42,
        "time": 51.706,
        "duration": 0.176,
        "velocity": 0.51,
        "hand": "left"
      },
      {
        "midi": 33,
        "time": 51.882,
        "duration": 0.176,
        "velocity": 0.86,
        "hand": "left"
      },
      {
        "midi": 46,
        "time": 51.882,
        "duration": 0.176,
        "velocity": 0.52,
        "hand": "left"
      },
      {
        "midi": 67,
        "time": 51.882,
        "duration": 0.176,
        "velocity": 0.83,
        "hand": "right"
      },
      {
        "midi": 33,
        "time": 52.059,
        "duration": 0.529,
        "velocity": 0.86,
        "hand": "left"
      },
      {
        "midi": 52,
        "time": 52.059,
        "duration": 0.529,
        "velocity": 0.86,
        "hand": "left"
      },
      {
        "midi": 73,
        "time": 52.059,
        "duration": 0.529,
        "velocity": 0.83,
        "hand": "right"
      },
      {
        "midi": 35,
        "time": 52.412,
        "duration": 0.176,
        "velocity": 0.58,
        "hand": "left"
      },
      {
        "midi": 42,
        "time": 52.412,
        "duration": 0.176,
        "velocity": 0.51,
        "hand": "left"
      },
      {
        "midi": 42,
        "time": 52.588,
        "duration": 0.176,
        "velocity": 0.43,
        "hand": "left"
      },
      {
        "midi": 38,
        "time": 52.765,
        "duration": 0.176,
        "velocity": 0.73,
        "hand": "left"
      },
      {
        "midi": 42,
        "time": 52.765,
        "duration": 0.176,
        "velocity": 0.58,
        "hand": "left"
      },
      {
        "midi": 35,
        "time": 53.118,
        "duration": 0.176,
        "velocity": 0.58,
        "hand": "left"
      },
      {
        "midi": 42,
        "time": 53.118,
        "duration": 0.176,
        "velocity": 0.51,
        "hand": "left"
      },
      {
        "midi": 42,
        "time": 53.294,
        "duration": 0.176,
        "velocity": 0.43,
        "hand": "left"
      },
      {
        "midi": 35,
        "time": 53.471,
        "duration": 0.176,
        "velocity": 0.73,
        "hand": "left"
      },
      {
        "midi": 57,
        "time": 53.471,
        "duration": 0.176,
        "velocity": 0.79,
        "hand": "left"
      },
      {
        "midi": 67,
        "time": 53.471,
        "duration": 1.588,
        "velocity": 0.83,
        "hand": "right"
      },
      {
        "midi": 45,
        "time": 53.647,
        "duration": 0.353,
        "velocity": 0.86,
        "hand": "left"
      },
      {
        "midi": 57,
        "time": 53.647,
        "duration": 0.353,
        "velocity": 0.79,
        "hand": "left"
      },
      {
        "midi": 64,
        "time": 53.647,
        "duration": 0.353,
        "velocity": 0.83,
        "hand": "right"
      },
      {
        "midi": 42,
        "time": 53.824,
        "duration": 0.176,
        "velocity": 0.51,
        "hand": "left"
      },
      {
        "midi": 42,
        "time": 54,
        "duration": 0.176,
        "velocity": 0.43,
        "hand": "left"
      },
      {
        "midi": 38,
        "time": 54.176,
        "duration": 0.176,
        "velocity": 0.73,
        "hand": "left"
      },
      {
        "midi": 49,
        "time": 54.176,
        "duration": 0.353,
        "velocity": 0.86,
        "hand": "left"
      },
      {
        "midi": 64,
        "time": 54.176,
        "duration": 0.353,
        "velocity": 0.83,
        "hand": "right"
      },
      {
        "midi": 42,
        "time": 54.529,
        "duration": 0.176,
        "velocity": 0.51,
        "hand": "left"
      },
      {
        "midi": 35,
        "time": 54.706,
        "duration": 0.176,
        "velocity": 0.58,
        "hand": "left"
      },
      {
        "midi": 49,
        "time": 54.706,
        "duration": 0.176,
        "velocity": 0.86,
        "hand": "left"
      },
      {
        "midi": 64,
        "time": 54.706,
        "duration": 0.176,
        "velocity": 0.83,
        "hand": "right"
      },
      {
        "midi": 35,
        "time": 54.882,
        "duration": 0.176,
        "velocity": 0.73,
        "hand": "left"
      },
      {
        "midi": 57,
        "time": 54.882,
        "duration": 0.529,
        "velocity": 0.79,
        "hand": "left"
      },
      {
        "midi": 67,
        "time": 54.882,
        "duration": 0.353,
        "velocity": 0.83,
        "hand": "right"
      },
      {
        "midi": 42,
        "time": 55.235,
        "duration": 0.176,
        "velocity": 0.51,
        "hand": "left"
      },
      {
        "midi": 46,
        "time": 55.412,
        "duration": 0.176,
        "velocity": 0.58,
        "hand": "left"
      },
      {
        "midi": 64,
        "time": 55.412,
        "duration": 0.176,
        "velocity": 0.83,
        "hand": "right"
      },
      {
        "midi": 38,
        "time": 55.588,
        "duration": 0.176,
        "velocity": 0.73,
        "hand": "left"
      },
      {
        "midi": 42,
        "time": 55.588,
        "duration": 0.176,
        "velocity": 0.58,
        "hand": "left"
      },
      {
        "midi": 67,
        "time": 55.588,
        "duration": 0.353,
        "velocity": 0.83,
        "hand": "right"
      },
      {
        "midi": 35,
        "time": 55.941,
        "duration": 0.176,
        "velocity": 0.58,
        "hand": "left"
      },
      {
        "midi": 42,
        "time": 55.941,
        "duration": 0.176,
        "velocity": 0.51,
        "hand": "left"
      },
      {
        "midi": 42,
        "time": 56.118,
        "duration": 0.176,
        "velocity": 0.43,
        "hand": "left"
      },
      {
        "midi": 71,
        "time": 56.118,
        "duration": 0.176,
        "velocity": 0.83,
        "hand": "right"
      },
      {
        "midi": 35,
        "time": 56.294,
        "duration": 0.176,
        "velocity": 0.73,
        "hand": "left"
      },
      {
        "midi": 50,
        "time": 56.294,
        "duration": 0.176,
        "velocity": 0.79,
        "hand": "left"
      },
      {
        "midi": 69,
        "time": 56.294,
        "duration": 0.882,
        "velocity": 0.83,
        "hand": "right"
      },
      {
        "midi": 38,
        "time": 56.471,
        "duration": 0.353,
        "velocity": 0.86,
        "hand": "left"
      },
      {
        "midi": 50,
        "time": 56.471,
        "duration": 0.353,
        "velocity": 0.79,
        "hand": "left"
      },
      {
        "midi": 62,
        "time": 56.471,
        "duration": 0.353,
        "velocity": 0.79,
        "hand": "right"
      },
      {
        "midi": 42,
        "time": 56.647,
        "duration": 0.176,
        "velocity": 0.51,
        "hand": "left"
      },
      {
        "midi": 42,
        "time": 56.824,
        "duration": 0.176,
        "velocity": 0.43,
        "hand": "left"
      },
      {
        "midi": 38,
        "time": 57,
        "duration": 0.353,
        "velocity": 0.86,
        "hand": "left"
      },
      {
        "midi": 42,
        "time": 57,
        "duration": 0.176,
        "velocity": 0.58,
        "hand": "left"
      },
      {
        "midi": 62,
        "time": 57,
        "duration": 0.353,
        "velocity": 0.79,
        "hand": "right"
      },
      {
        "midi": 42,
        "time": 57.353,
        "duration": 0.176,
        "velocity": 0.51,
        "hand": "left"
      },
      {
        "midi": 35,
        "time": 57.529,
        "duration": 0.176,
        "velocity": 0.58,
        "hand": "left"
      },
      {
        "midi": 42,
        "time": 57.529,
        "duration": 0.176,
        "velocity": 0.43,
        "hand": "left"
      },
      {
        "midi": 62,
        "time": 57.529,
        "duration": 0.176,
        "velocity": 0.79,
        "hand": "right"
      },
      {
        "midi": 35,
        "time": 57.706,
        "duration": 0.176,
        "velocity": 0.73,
        "hand": "left"
      },
      {
        "midi": 50,
        "time": 57.706,
        "duration": 0.529,
        "velocity": 0.79,
        "hand": "left"
      },
      {
        "midi": 69,
        "time": 57.706,
        "duration": 0.529,
        "velocity": 0.83,
        "hand": "right"
      },
      {
        "midi": 42,
        "time": 58.059,
        "duration": 0.176,
        "velocity": 0.51,
        "hand": "left"
      },
      {
        "midi": 42,
        "time": 58.235,
        "duration": 0.176,
        "velocity": 0.43,
        "hand": "left"
      },
      {
        "midi": 38,
        "time": 58.412,
        "duration": 0.176,
        "velocity": 0.73,
        "hand": "left"
      },
      {
        "midi": 42,
        "time": 58.412,
        "duration": 0.176,
        "velocity": 0.58,
        "hand": "left"
      },
      {
        "midi": 35,
        "time": 58.765,
        "duration": 0.176,
        "velocity": 0.58,
        "hand": "left"
      },
      {
        "midi": 42,
        "time": 58.765,
        "duration": 0.176,
        "velocity": 0.51,
        "hand": "left"
      },
      {
        "midi": 42,
        "time": 58.941,
        "duration": 0.176,
        "velocity": 0.43,
        "hand": "left"
      },
      {
        "midi": 35,
        "time": 59.118,
        "duration": 0.176,
        "velocity": 0.73,
        "hand": "left"
      },
      {
        "midi": 50,
        "time": 59.118,
        "duration": 0.529,
        "velocity": 0.79,
        "hand": "left"
      },
      {
        "midi": 74,
        "time": 59.118,
        "duration": 0.529,
        "velocity": 0.83,
        "hand": "right"
      },
      {
        "midi": 42,
        "time": 59.471,
        "duration": 0.176,
        "velocity": 0.51,
        "hand": "left"
      },
      {
        "midi": 42,
        "time": 59.647,
        "duration": 0.176,
        "velocity": 0.43,
        "hand": "left"
      },
      {
        "midi": 38,
        "time": 59.824,
        "duration": 0.353,
        "velocity": 0.86,
        "hand": "left"
      },
      {
        "midi": 50,
        "time": 59.824,
        "duration": 0.353,
        "velocity": 0.79,
        "hand": "left"
      },
      {
        "midi": 74,
        "time": 59.824,
        "duration": 0.353,
        "velocity": 0.83,
        "hand": "right"
      },
      {
        "midi": 42,
        "time": 60.176,
        "duration": 0.176,
        "velocity": 0.51,
        "hand": "left"
      },
      {
        "midi": 35,
        "time": 60.353,
        "duration": 0.176,
        "velocity": 0.58,
        "hand": "left"
      },
      {
        "midi": 50,
        "time": 60.353,
        "duration": 0.176,
        "velocity": 0.79,
        "hand": "left"
      },
      {
        "midi": 74,
        "time": 60.353,
        "duration": 0.176,
        "velocity": 0.83,
        "hand": "right"
      },
      {
        "midi": 35,
        "time": 60.529,
        "duration": 0.176,
        "velocity": 0.73,
        "hand": "left"
      },
      {
        "midi": 54,
        "time": 60.529,
        "duration": 0.529,
        "velocity": 0.79,
        "hand": "left"
      },
      {
        "midi": 74,
        "time": 60.529,
        "duration": 0.529,
        "velocity": 0.83,
        "hand": "right"
      },
      {
        "midi": 42,
        "time": 60.882,
        "duration": 0.176,
        "velocity": 0.51,
        "hand": "left"
      },
      {
        "midi": 46,
        "time": 61.059,
        "duration": 0.176,
        "velocity": 0.58,
        "hand": "left"
      },
      {
        "midi": 38,
        "time": 61.235,
        "duration": 0.176,
        "velocity": 0.73,
        "hand": "left"
      },
      {
        "midi": 54,
        "time": 61.235,
        "duration": 0.353,
        "velocity": 0.79,
        "hand": "left"
      },
      {
        "midi": 74,
        "time": 61.235,
        "duration": 0.353,
        "velocity": 0.83,
        "hand": "right"
      },
      {
        "midi": 35,
        "time": 61.588,
        "duration": 0.176,
        "velocity": 0.58,
        "hand": "left"
      },
      {
        "midi": 42,
        "time": 61.588,
        "duration": 0.176,
        "velocity": 0.51,
        "hand": "left"
      },
      {
        "midi": 42,
        "time": 61.765,
        "duration": 0.176,
        "velocity": 0.86,
        "hand": "left"
      },
      {
        "midi": 62,
        "time": 61.765,
        "duration": 0.176,
        "velocity": 0.79,
        "hand": "right"
      },
      {
        "midi": 73,
        "time": 61.765,
        "duration": 0.176,
        "velocity": 0.83,
        "hand": "right"
      },
      {
        "midi": 35,
        "time": 61.941,
        "duration": 0.176,
        "velocity": 0.73,
        "hand": "left"
      },
      {
        "midi": 55,
        "time": 61.941,
        "duration": 0.529,
        "velocity": 0.79,
        "hand": "left"
      },
      {
        "midi": 71,
        "time": 61.941,
        "duration": 0.882,
        "velocity": 0.83,
        "hand": "right"
      },
      {
        "midi": 42,
        "time": 62.294,
        "duration": 0.176,
        "velocity": 0.51,
        "hand": "left"
      },
      {
        "midi": 42,
        "time": 62.471,
        "duration": 0.176,
        "velocity": 0.43,
        "hand": "left"
      },
      {
        "midi": 38,
        "time": 62.647,
        "duration": 0.176,
        "velocity": 0.73,
        "hand": "left"
      },
      {
        "midi": 50,
        "time": 62.647,
        "duration": 0.353,
        "velocity": 0.86,
        "hand": "left"
      },
      {
        "midi": 67,
        "time": 62.647,
        "duration": 0.353,
        "velocity": 0.83,
        "hand": "right"
      },
      {
        "midi": 42,
        "time": 63,
        "duration": 0.176,
        "velocity": 0.51,
        "hand": "left"
      },
      {
        "midi": 35,
        "time": 63.176,
        "duration": 0.176,
        "velocity": 0.58,
        "hand": "left"
      },
      {
        "midi": 50,
        "time": 63.176,
        "duration": 0.176,
        "velocity": 0.86,
        "hand": "left"
      },
      {
        "midi": 67,
        "time": 63.176,
        "duration": 0.176,
        "velocity": 0.83,
        "hand": "right"
      },
      {
        "midi": 35,
        "time": 63.353,
        "duration": 0.176,
        "velocity": 0.73,
        "hand": "left"
      },
      {
        "midi": 50,
        "time": 63.353,
        "duration": 0.529,
        "velocity": 0.86,
        "hand": "left"
      },
      {
        "midi": 67,
        "time": 63.353,
        "duration": 0.529,
        "velocity": 0.83,
        "hand": "right"
      },
      {
        "midi": 35,
        "time": 63.706,
        "duration": 0.176,
        "velocity": 0.58,
        "hand": "left"
      },
      {
        "midi": 42,
        "time": 63.706,
        "duration": 0.176,
        "velocity": 0.51,
        "hand": "left"
      },
      {
        "midi": 42,
        "time": 63.882,
        "duration": 0.176,
        "velocity": 0.43,
        "hand": "left"
      },
      {
        "midi": 38,
        "time": 64.059,
        "duration": 0.176,
        "velocity": 0.73,
        "hand": "left"
      },
      {
        "midi": 55,
        "time": 64.059,
        "duration": 0.353,
        "velocity": 0.79,
        "hand": "left"
      },
      {
        "midi": 71,
        "time": 64.059,
        "duration": 0.529,
        "velocity": 0.83,
        "hand": "right"
      },
      {
        "midi": 35,
        "time": 64.412,
        "duration": 0.176,
        "velocity": 0.58,
        "hand": "left"
      },
      {
        "midi": 42,
        "time": 64.412,
        "duration": 0.176,
        "velocity": 0.51,
        "hand": "left"
      },
      {
        "midi": 43,
        "time": 64.588,
        "duration": 0.176,
        "velocity": 0.86,
        "hand": "left"
      },
      {
        "midi": 55,
        "time": 64.588,
        "duration": 0.176,
        "velocity": 0.79,
        "hand": "left"
      },
      {
        "midi": 67,
        "time": 64.588,
        "duration": 0.176,
        "velocity": 0.83,
        "hand": "right"
      },
      {
        "midi": 35,
        "time": 64.765,
        "duration": 0.176,
        "velocity": 0.73,
        "hand": "left"
      },
      {
        "midi": 57,
        "time": 64.765,
        "duration": 0.529,
        "velocity": 0.79,
        "hand": "left"
      },
      {
        "midi": 69,
        "time": 64.765,
        "duration": 0.529,
        "velocity": 0.83,
        "hand": "right"
      },
      {
        "midi": 42,
        "time": 65.118,
        "duration": 0.176,
        "velocity": 0.73,
        "hand": "left"
      },
      {
        "midi": 42,
        "time": 65.294,
        "duration": 0.176,
        "velocity": 0.43,
        "hand": "left"
      },
      {
        "midi": 33,
        "time": 65.471,
        "duration": 0.353,
        "velocity": 0.86,
        "hand": "left"
      },
      {
        "midi": 45,
        "time": 65.471,
        "duration": 0.353,
        "velocity": 0.79,
        "hand": "left"
      },
      {
        "midi": 66,
        "time": 65.471,
        "duration": 0.353,
        "velocity": 0.83,
        "hand": "right"
      },
      {
        "midi": 42,
        "time": 65.824,
        "duration": 0.176,
        "velocity": 0.51,
        "hand": "left"
      },
      {
        "midi": 35,
        "time": 66,
        "duration": 0.176,
        "velocity": 0.86,
        "hand": "left"
      },
      {
        "midi": 47,
        "time": 66,
        "duration": 0.176,
        "velocity": 0.79,
        "hand": "left"
      },
      {
        "midi": 62,
        "time": 66,
        "duration": 0.176,
        "velocity": 0.83,
        "hand": "right"
      },
      {
        "midi": 33,
        "time": 66.176,
        "duration": 0.529,
        "velocity": 0.86,
        "hand": "left"
      },
      {
        "midi": 45,
        "time": 66.176,
        "duration": 0.529,
        "velocity": 0.79,
        "hand": "left"
      },
      {
        "midi": 64,
        "time": 66.176,
        "duration": 0.529,
        "velocity": 0.83,
        "hand": "right"
      },
      {
        "midi": 42,
        "time": 66.529,
        "duration": 0.176,
        "velocity": 0.73,
        "hand": "left"
      },
      {
        "midi": 42,
        "time": 66.706,
        "duration": 0.176,
        "velocity": 0.43,
        "hand": "left"
      },
      {
        "midi": 33,
        "time": 66.882,
        "duration": 0.353,
        "velocity": 0.86,
        "hand": "left"
      },
      {
        "midi": 45,
        "time": 66.882,
        "duration": 0.353,
        "velocity": 0.79,
        "hand": "left"
      },
      {
        "midi": 66,
        "time": 66.882,
        "duration": 0.353,
        "velocity": 0.83,
        "hand": "right"
      },
      {
        "midi": 35,
        "time": 67.235,
        "duration": 0.176,
        "velocity": 0.58,
        "hand": "left"
      },
      {
        "midi": 42,
        "time": 67.235,
        "duration": 0.176,
        "velocity": 0.51,
        "hand": "left"
      },
      {
        "midi": 33,
        "time": 67.412,
        "duration": 0.176,
        "velocity": 0.86,
        "hand": "left"
      },
      {
        "midi": 45,
        "time": 67.412,
        "duration": 0.176,
        "velocity": 0.79,
        "hand": "left"
      },
      {
        "midi": 64,
        "time": 67.412,
        "duration": 0.176,
        "velocity": 0.83,
        "hand": "right"
      },
      {
        "midi": 35,
        "time": 67.588,
        "duration": 0.176,
        "velocity": 0.73,
        "hand": "left"
      },
      {
        "midi": 50,
        "time": 67.588,
        "duration": 1.588,
        "velocity": 0.79,
        "hand": "left"
      },
      {
        "midi": 62,
        "time": 67.588,
        "duration": 2.294,
        "velocity": 0.86,
        "hand": "right"
      },
      {
        "midi": 42,
        "time": 67.941,
        "duration": 0.176,
        "velocity": 0.51,
        "hand": "left"
      },
      {
        "midi": 37,
        "time": 68.294,
        "duration": 0.176,
        "velocity": 0.73,
        "hand": "left"
      },
      {
        "midi": 43,
        "time": 68.294,
        "duration": 0.529,
        "velocity": 0.86,
        "hand": "left"
      },
      {
        "midi": 59,
        "time": 68.294,
        "duration": 0.529,
        "velocity": 0.83,
        "hand": "left"
      },
      {
        "midi": 35,
        "time": 68.647,
        "duration": 0.176,
        "velocity": 0.58,
        "hand": "left"
      },
      {
        "midi": 42,
        "time": 68.647,
        "duration": 0.176,
        "velocity": 0.51,
        "hand": "left"
      },
      {
        "midi": 35,
        "time": 69,
        "duration": 0.176,
        "velocity": 0.73,
        "hand": "left"
      },
      {
        "midi": 50,
        "time": 69,
        "duration": 0.529,
        "velocity": 0.79,
        "hand": "left"
      },
      {
        "midi": 62,
        "time": 69,
        "duration": 0.529,
        "velocity": 0.83,
        "hand": "right"
      },
      {
        "midi": 38,
        "time": 69.353,
        "duration": 0.176,
        "velocity": 0.73,
        "hand": "left"
      },
      {
        "midi": 42,
        "time": 69.353,
        "duration": 0.176,
        "velocity": 0.51,
        "hand": "left"
      },
      {
        "midi": 38,
        "time": 69.529,
        "duration": 0.176,
        "velocity": 0.58,
        "hand": "left"
      },
      {
        "midi": 38,
        "time": 69.706,
        "duration": 0.176,
        "velocity": 0.83,
        "hand": "left"
      },
      {
        "midi": 42,
        "time": 69.706,
        "duration": 0.176,
        "velocity": 0.58,
        "hand": "left"
      },
      {
        "midi": 35,
        "time": 70.059,
        "duration": 0.176,
        "velocity": 0.58,
        "hand": "left"
      },
      {
        "midi": 46,
        "time": 70.059,
        "duration": 0.176,
        "velocity": 0.65,
        "hand": "left"
      },
      {
        "midi": 35,
        "time": 70.412,
        "duration": 0.176,
        "velocity": 0.73,
        "hand": "left"
      },
      {
        "midi": 49,
        "time": 70.412,
        "duration": 0.176,
        "velocity": 0.65,
        "hand": "left"
      },
      {
        "midi": 66,
        "time": 70.412,
        "duration": 0.529,
        "velocity": 0.83,
        "hand": "right"
      },
      {
        "midi": 42,
        "time": 70.765,
        "duration": 0.176,
        "velocity": 0.51,
        "hand": "left"
      },
      {
        "midi": 37,
        "time": 71.118,
        "duration": 0.176,
        "velocity": 0.73,
        "hand": "left"
      },
      {
        "midi": 50,
        "time": 71.118,
        "duration": 0.353,
        "velocity": 0.79,
        "hand": "left"
      },
      {
        "midi": 66,
        "time": 71.118,
        "duration": 0.353,
        "velocity": 0.83,
        "hand": "right"
      },
      {
        "midi": 35,
        "time": 71.471,
        "duration": 0.176,
        "velocity": 0.58,
        "hand": "left"
      },
      {
        "midi": 42,
        "time": 71.471,
        "duration": 0.176,
        "velocity": 0.51,
        "hand": "left"
      },
      {
        "midi": 38,
        "time": 71.647,
        "duration": 0.176,
        "velocity": 0.86,
        "hand": "left"
      },
      {
        "midi": 56,
        "time": 71.647,
        "duration": 0.176,
        "velocity": 0.79,
        "hand": "left"
      },
      {
        "midi": 65,
        "time": 71.647,
        "duration": 0.176,
        "velocity": 0.83,
        "hand": "right"
      },
      {
        "midi": 35,
        "time": 71.824,
        "duration": 0.176,
        "velocity": 0.73,
        "hand": "left"
      },
      {
        "midi": 50,
        "time": 71.824,
        "duration": 0.529,
        "velocity": 0.79,
        "hand": "left"
      },
      {
        "midi": 66,
        "time": 71.824,
        "duration": 0.529,
        "velocity": 0.83,
        "hand": "right"
      },
      {
        "midi": 42,
        "time": 72.176,
        "duration": 0.176,
        "velocity": 0.51,
        "hand": "left"
      },
      {
        "midi": 37,
        "time": 72.529,
        "duration": 0.176,
        "velocity": 0.73,
        "hand": "left"
      },
      {
        "midi": 50,
        "time": 72.529,
        "duration": 0.353,
        "velocity": 0.79,
        "hand": "left"
      },
      {
        "midi": 66,
        "time": 72.529,
        "duration": 0.353,
        "velocity": 0.83,
        "hand": "right"
      },
      {
        "midi": 35,
        "time": 72.882,
        "duration": 0.176,
        "velocity": 0.58,
        "hand": "left"
      },
      {
        "midi": 42,
        "time": 72.882,
        "duration": 0.176,
        "velocity": 0.51,
        "hand": "left"
      },
      {
        "midi": 38,
        "time": 73.059,
        "duration": 0.176,
        "velocity": 0.86,
        "hand": "left"
      },
      {
        "midi": 57,
        "time": 73.059,
        "duration": 0.176,
        "velocity": 0.79,
        "hand": "left"
      },
      {
        "midi": 67,
        "time": 73.059,
        "duration": 0.176,
        "velocity": 0.83,
        "hand": "right"
      },
      {
        "midi": 35,
        "time": 73.235,
        "duration": 0.176,
        "velocity": 0.73,
        "hand": "left"
      },
      {
        "midi": 50,
        "time": 73.235,
        "duration": 0.882,
        "velocity": 0.79,
        "hand": "left"
      },
      {
        "midi": 69,
        "time": 73.235,
        "duration": 0.882,
        "velocity": 0.83,
        "hand": "right"
      },
      {
        "midi": 42,
        "time": 73.588,
        "duration": 0.176,
        "velocity": 0.51,
        "hand": "left"
      },
      {
        "midi": 37,
        "time": 73.941,
        "duration": 0.176,
        "velocity": 0.73,
        "hand": "left"
      },
      {
        "midi": 42,
        "time": 73.941,
        "duration": 0.176,
        "velocity": 0.58,
        "hand": "left"
      },
      {
        "midi": 35,
        "time": 74.294,
        "duration": 0.176,
        "velocity": 0.58,
        "hand": "left"
      },
      {
        "midi": 42,
        "time": 74.294,
        "duration": 0.176,
        "velocity": 0.51,
        "hand": "left"
      },
      {
        "midi": 35,
        "time": 74.647,
        "duration": 0.176,
        "velocity": 0.73,
        "hand": "left"
      },
      {
        "midi": 50,
        "time": 74.647,
        "duration": 0.529,
        "velocity": 0.79,
        "hand": "left"
      },
      {
        "midi": 69,
        "time": 74.647,
        "duration": 0.529,
        "velocity": 0.83,
        "hand": "right"
      },
      {
        "midi": 42,
        "time": 75,
        "duration": 0.176,
        "velocity": 0.51,
        "hand": "left"
      },
      {
        "midi": 37,
        "time": 75.176,
        "duration": 0.176,
        "velocity": 0.73,
        "hand": "left"
      },
      {
        "midi": 50,
        "time": 75.176,
        "duration": 0.353,
        "velocity": 0.79,
        "hand": "left"
      },
      {
        "midi": 69,
        "time": 75.176,
        "duration": 0.353,
        "velocity": 0.83,
        "hand": "right"
      },
      {
        "midi": 35,
        "time": 75.529,
        "duration": 0.176,
        "velocity": 0.58,
        "hand": "left"
      },
      {
        "midi": 42,
        "time": 75.529,
        "duration": 0.176,
        "velocity": 0.51,
        "hand": "left"
      },
      {
        "midi": 38,
        "time": 75.706,
        "duration": 0.176,
        "velocity": 0.86,
        "hand": "left"
      },
      {
        "midi": 57,
        "time": 75.706,
        "duration": 0.176,
        "velocity": 0.79,
        "hand": "left"
      },
      {
        "midi": 66,
        "time": 75.706,
        "duration": 0.176,
        "velocity": 0.83,
        "hand": "right"
      },
      {
        "midi": 33,
        "time": 75.882,
        "duration": 0.529,
        "velocity": 0.86,
        "hand": "left"
      },
      {
        "midi": 45,
        "time": 75.882,
        "duration": 0.529,
        "velocity": 0.79,
        "hand": "left"
      },
      {
        "midi": 64,
        "time": 75.882,
        "duration": 0.529,
        "velocity": 0.83,
        "hand": "right"
      },
      {
        "midi": 42,
        "time": 76.235,
        "duration": 0.176,
        "velocity": 0.51,
        "hand": "left"
      },
      {
        "midi": 33,
        "time": 76.588,
        "duration": 0.529,
        "velocity": 0.86,
        "hand": "left"
      },
      {
        "midi": 45,
        "time": 76.588,
        "duration": 0.529,
        "velocity": 0.79,
        "hand": "left"
      },
      {
        "midi": 64,
        "time": 76.588,
        "duration": 0.529,
        "velocity": 0.83,
        "hand": "right"
      },
      {
        "midi": 35,
        "time": 76.941,
        "duration": 0.176,
        "velocity": 0.58,
        "hand": "left"
      },
      {
        "midi": 42,
        "time": 76.941,
        "duration": 0.176,
        "velocity": 0.51,
        "hand": "left"
      },
      {
        "midi": 35,
        "time": 77.294,
        "duration": 0.176,
        "velocity": 0.73,
        "hand": "left"
      },
      {
        "midi": 50,
        "time": 77.294,
        "duration": 0.529,
        "velocity": 0.79,
        "hand": "left"
      },
      {
        "midi": 66,
        "time": 77.294,
        "duration": 0.529,
        "velocity": 0.83,
        "hand": "right"
      },
      {
        "midi": 42,
        "time": 77.647,
        "duration": 0.176,
        "velocity": 0.51,
        "hand": "left"
      },
      {
        "midi": 37,
        "time": 78,
        "duration": 0.176,
        "velocity": 0.73,
        "hand": "left"
      },
      {
        "midi": 50,
        "time": 78,
        "duration": 0.353,
        "velocity": 0.79,
        "hand": "left"
      },
      {
        "midi": 67,
        "time": 78,
        "duration": 0.353,
        "velocity": 0.83,
        "hand": "right"
      },
      {
        "midi": 35,
        "time": 78.353,
        "duration": 0.176,
        "velocity": 0.58,
        "hand": "left"
      },
      {
        "midi": 42,
        "time": 78.353,
        "duration": 0.176,
        "velocity": 0.51,
        "hand": "left"
      },
      {
        "midi": 38,
        "time": 78.529,
        "duration": 0.176,
        "velocity": 0.86,
        "hand": "left"
      },
      {
        "midi": 57,
        "time": 78.529,
        "duration": 0.176,
        "velocity": 0.79,
        "hand": "left"
      },
      {
        "midi": 66,
        "time": 78.529,
        "duration": 0.176,
        "velocity": 0.83,
        "hand": "right"
      },
      {
        "midi": 33,
        "time": 78.706,
        "duration": 1.412,
        "velocity": 0.86,
        "hand": "left"
      },
      {
        "midi": 45,
        "time": 78.706,
        "duration": 1.412,
        "velocity": 0.79,
        "hand": "left"
      },
      {
        "midi": 64,
        "time": 78.706,
        "duration": 1.412,
        "velocity": 0.83,
        "hand": "right"
      },
      {
        "midi": 42,
        "time": 79.059,
        "duration": 0.176,
        "velocity": 0.51,
        "hand": "left"
      },
      {
        "midi": 37,
        "time": 79.412,
        "duration": 0.176,
        "velocity": 0.73,
        "hand": "left"
      },
      {
        "midi": 42,
        "time": 79.412,
        "duration": 0.176,
        "velocity": 0.58,
        "hand": "left"
      },
      {
        "midi": 35,
        "time": 79.765,
        "duration": 0.176,
        "velocity": 0.58,
        "hand": "left"
      },
      {
        "midi": 42,
        "time": 79.765,
        "duration": 0.176,
        "velocity": 0.51,
        "hand": "left"
      },
      {
        "midi": 35,
        "time": 80.118,
        "duration": 0.176,
        "velocity": 0.73,
        "hand": "left"
      },
      {
        "midi": 42,
        "time": 80.118,
        "duration": 0.176,
        "velocity": 0.65,
        "hand": "left"
      },
      {
        "midi": 42,
        "time": 80.471,
        "duration": 0.176,
        "velocity": 0.51,
        "hand": "left"
      },
      {
        "midi": 37,
        "time": 80.824,
        "duration": 0.176,
        "velocity": 0.73,
        "hand": "left"
      },
      {
        "midi": 42,
        "time": 80.824,
        "duration": 0.176,
        "velocity": 0.58,
        "hand": "left"
      },
      {
        "midi": 35,
        "time": 81.176,
        "duration": 0.176,
        "velocity": 0.58,
        "hand": "left"
      },
      {
        "midi": 42,
        "time": 81.176,
        "duration": 0.176,
        "velocity": 0.51,
        "hand": "left"
      },
      {
        "midi": 35,
        "time": 81.529,
        "duration": 0.176,
        "velocity": 0.73,
        "hand": "left"
      },
      {
        "midi": 50,
        "time": 81.529,
        "duration": 0.529,
        "velocity": 0.79,
        "hand": "left"
      },
      {
        "midi": 66,
        "time": 81.529,
        "duration": 0.529,
        "velocity": 0.83,
        "hand": "right"
      },
      {
        "midi": 42,
        "time": 81.882,
        "duration": 0.176,
        "velocity": 0.51,
        "hand": "left"
      },
      {
        "midi": 37,
        "time": 82.235,
        "duration": 0.176,
        "velocity": 0.73,
        "hand": "left"
      },
      {
        "midi": 50,
        "time": 82.235,
        "duration": 0.353,
        "velocity": 0.79,
        "hand": "left"
      },
      {
        "midi": 66,
        "time": 82.235,
        "duration": 0.353,
        "velocity": 0.83,
        "hand": "right"
      },
      {
        "midi": 35,
        "time": 82.588,
        "duration": 0.176,
        "velocity": 0.58,
        "hand": "left"
      },
      {
        "midi": 42,
        "time": 82.588,
        "duration": 0.176,
        "velocity": 0.51,
        "hand": "left"
      },
      {
        "midi": 38,
        "time": 82.765,
        "duration": 0.176,
        "velocity": 0.86,
        "hand": "left"
      },
      {
        "midi": 56,
        "time": 82.765,
        "duration": 0.176,
        "velocity": 0.79,
        "hand": "left"
      },
      {
        "midi": 65,
        "time": 82.765,
        "duration": 0.176,
        "velocity": 0.83,
        "hand": "right"
      },
      {
        "midi": 35,
        "time": 82.941,
        "duration": 0.176,
        "velocity": 0.73,
        "hand": "left"
      },
      {
        "midi": 50,
        "time": 82.941,
        "duration": 0.529,
        "velocity": 0.79,
        "hand": "left"
      },
      {
        "midi": 66,
        "time": 82.941,
        "duration": 0.529,
        "velocity": 0.83,
        "hand": "right"
      },
      {
        "midi": 42,
        "time": 83.294,
        "duration": 0.176,
        "velocity": 0.51,
        "hand": "left"
      },
      {
        "midi": 37,
        "time": 83.647,
        "duration": 0.176,
        "velocity": 0.73,
        "hand": "left"
      },
      {
        "midi": 50,
        "time": 83.647,
        "duration": 0.353,
        "velocity": 0.79,
        "hand": "left"
      },
      {
        "midi": 66,
        "time": 83.647,
        "duration": 0.353,
        "velocity": 0.83,
        "hand": "right"
      },
      {
        "midi": 35,
        "time": 84,
        "duration": 0.176,
        "velocity": 0.58,
        "hand": "left"
      },
      {
        "midi": 42,
        "time": 84,
        "duration": 0.176,
        "velocity": 0.51,
        "hand": "left"
      },
      {
        "midi": 38,
        "time": 84.176,
        "duration": 0.176,
        "velocity": 0.86,
        "hand": "left"
      },
      {
        "midi": 57,
        "time": 84.176,
        "duration": 0.176,
        "velocity": 0.79,
        "hand": "left"
      },
      {
        "midi": 67,
        "time": 84.176,
        "duration": 0.176,
        "velocity": 0.83,
        "hand": "right"
      },
      {
        "midi": 35,
        "time": 84.353,
        "duration": 0.176,
        "velocity": 0.73,
        "hand": "left"
      },
      {
        "midi": 50,
        "time": 84.353,
        "duration": 0.882,
        "velocity": 0.79,
        "hand": "left"
      },
      {
        "midi": 69,
        "time": 84.353,
        "duration": 0.882,
        "velocity": 0.83,
        "hand": "right"
      },
      {
        "midi": 42,
        "time": 84.706,
        "duration": 0.176,
        "velocity": 0.51,
        "hand": "left"
      },
      {
        "midi": 37,
        "time": 85.059,
        "duration": 0.176,
        "velocity": 0.73,
        "hand": "left"
      },
      {
        "midi": 42,
        "time": 85.059,
        "duration": 0.176,
        "velocity": 0.58,
        "hand": "left"
      },
      {
        "midi": 35,
        "time": 85.412,
        "duration": 0.176,
        "velocity": 0.58,
        "hand": "left"
      },
      {
        "midi": 42,
        "time": 85.412,
        "duration": 0.176,
        "velocity": 0.51,
        "hand": "left"
      },
      {
        "midi": 35,
        "time": 85.765,
        "duration": 0.176,
        "velocity": 0.73,
        "hand": "left"
      },
      {
        "midi": 50,
        "time": 85.765,
        "duration": 0.529,
        "velocity": 0.79,
        "hand": "left"
      },
      {
        "midi": 69,
        "time": 85.765,
        "duration": 0.529,
        "velocity": 0.83,
        "hand": "right"
      },
      {
        "midi": 35,
        "time": 86.118,
        "duration": 0.176,
        "velocity": 0.58,
        "hand": "left"
      },
      {
        "midi": 42,
        "time": 86.118,
        "duration": 0.176,
        "velocity": 0.51,
        "hand": "left"
      },
      {
        "midi": 37,
        "time": 86.471,
        "duration": 0.176,
        "velocity": 0.73,
        "hand": "left"
      },
      {
        "midi": 50,
        "time": 86.471,
        "duration": 0.353,
        "velocity": 0.79,
        "hand": "left"
      },
      {
        "midi": 69,
        "time": 86.471,
        "duration": 0.353,
        "velocity": 0.83,
        "hand": "right"
      },
      {
        "midi": 35,
        "time": 86.824,
        "duration": 0.176,
        "velocity": 0.58,
        "hand": "left"
      },
      {
        "midi": 42,
        "time": 86.824,
        "duration": 0.176,
        "velocity": 0.51,
        "hand": "left"
      },
      {
        "midi": 38,
        "time": 87,
        "duration": 0.176,
        "velocity": 0.86,
        "hand": "left"
      },
      {
        "midi": 50,
        "time": 87,
        "duration": 0.176,
        "velocity": 0.79,
        "hand": "left"
      },
      {
        "midi": 66,
        "time": 87,
        "duration": 0.176,
        "velocity": 0.83,
        "hand": "right"
      },
      {
        "midi": 35,
        "time": 87.176,
        "duration": 0.176,
        "velocity": 0.73,
        "hand": "left"
      },
      {
        "midi": 55,
        "time": 87.176,
        "duration": 0.529,
        "velocity": 0.79,
        "hand": "left"
      },
      {
        "midi": 64,
        "time": 87.176,
        "duration": 0.529,
        "velocity": 0.83,
        "hand": "right"
      },
      {
        "midi": 42,
        "time": 87.529,
        "duration": 0.176,
        "velocity": 0.51,
        "hand": "left"
      },
      {
        "midi": 37,
        "time": 87.882,
        "duration": 0.176,
        "velocity": 0.73,
        "hand": "left"
      },
      {
        "midi": 55,
        "time": 87.882,
        "duration": 0.176,
        "velocity": 0.79,
        "hand": "left"
      },
      {
        "midi": 64,
        "time": 87.882,
        "duration": 0.176,
        "velocity": 0.83,
        "hand": "right"
      },
      {
        "midi": 35,
        "time": 88.235,
        "duration": 0.176,
        "velocity": 0.58,
        "hand": "left"
      },
      {
        "midi": 55,
        "time": 88.235,
        "duration": 0.176,
        "velocity": 0.79,
        "hand": "left"
      },
      {
        "midi": 64,
        "time": 88.235,
        "duration": 0.176,
        "velocity": 0.83,
        "hand": "right"
      },
      {
        "midi": 35,
        "time": 88.588,
        "duration": 0.176,
        "velocity": 0.73,
        "hand": "left"
      },
      {
        "midi": 57,
        "time": 88.588,
        "duration": 0.529,
        "velocity": 0.79,
        "hand": "left"
      },
      {
        "midi": 64,
        "time": 88.588,
        "duration": 0.529,
        "velocity": 0.83,
        "hand": "right"
      },
      {
        "midi": 42,
        "time": 88.941,
        "duration": 0.176,
        "velocity": 0.51,
        "hand": "left"
      },
      {
        "midi": 33,
        "time": 89.294,
        "duration": 0.353,
        "velocity": 0.86,
        "hand": "left"
      },
      {
        "midi": 45,
        "time": 89.294,
        "duration": 0.353,
        "velocity": 0.79,
        "hand": "left"
      },
      {
        "midi": 66,
        "time": 89.294,
        "duration": 0.353,
        "velocity": 0.83,
        "hand": "right"
      },
      {
        "midi": 35,
        "time": 89.647,
        "duration": 0.176,
        "velocity": 0.58,
        "hand": "left"
      },
      {
        "midi": 42,
        "time": 89.647,
        "duration": 0.176,
        "velocity": 0.51,
        "hand": "left"
      },
      {
        "midi": 33,
        "time": 89.824,
        "duration": 0.176,
        "velocity": 0.86,
        "hand": "left"
      },
      {
        "midi": 55,
        "time": 89.824,
        "duration": 0.176,
        "velocity": 0.79,
        "hand": "left"
      },
      {
        "midi": 64,
        "time": 89.824,
        "duration": 0.176,
        "velocity": 0.83,
        "hand": "right"
      },
      {
        "midi": 35,
        "time": 90,
        "duration": 0.176,
        "velocity": 0.65,
        "hand": "left"
      },
      {
        "midi": 42,
        "time": 90,
        "duration": 0.176,
        "velocity": 0.58,
        "hand": "left"
      },
      {
        "midi": 62,
        "time": 90,
        "duration": 1.412,
        "velocity": 0.83,
        "hand": "right"
      },
      {
        "midi": 42,
        "time": 90.353,
        "duration": 0.176,
        "velocity": 0.36,
        "hand": "left"
      },
      {
        "midi": 42,
        "time": 90.529,
        "duration": 0.176,
        "velocity": 0.73,
        "hand": "left"
      },
      {
        "midi": 38,
        "time": 90.706,
        "duration": 0.176,
        "velocity": 0.73,
        "hand": "left"
      },
      {
        "midi": 46,
        "time": 90.706,
        "duration": 0.176,
        "velocity": 0.73,
        "hand": "left"
      },
      {
        "midi": 35,
        "time": 91.235,
        "duration": 0.176,
        "velocity": 0.65,
        "hand": "left"
      },
      {
        "midi": 38,
        "time": 91.412,
        "duration": 0.176,
        "velocity": 0.73,
        "hand": "left"
      },
      {
        "midi": 38,
        "time": 91.588,
        "duration": 0.176,
        "velocity": 0.43,
        "hand": "left"
      },
      {
        "midi": 35,
        "time": 91.941,
        "duration": 0.176,
        "velocity": 0.65,
        "hand": "left"
      },
      {
        "midi": 38,
        "time": 92.118,
        "duration": 0.176,
        "velocity": 0.73,
        "hand": "left"
      },
      {
        "midi": 38,
        "time": 92.294,
        "duration": 0.176,
        "velocity": 0.43,
        "hand": "left"
      },
      {
        "midi": 41,
        "time": 92.471,
        "duration": 0.176,
        "velocity": 0.83,
        "hand": "left"
      },
      {
        "midi": 35,
        "time": 92.824,
        "duration": 0.176,
        "velocity": 0.73,
        "hand": "left"
      },
      {
        "midi": 50,
        "time": 92.824,
        "duration": 0.529,
        "velocity": 0.86,
        "hand": "left"
      },
      {
        "midi": 71,
        "time": 92.824,
        "duration": 0.529,
        "velocity": 0.83,
        "hand": "right"
      },
      {
        "midi": 42,
        "time": 93.176,
        "duration": 0.176,
        "velocity": 0.51,
        "hand": "left"
      },
      {
        "midi": 37,
        "time": 93.529,
        "duration": 0.176,
        "velocity": 0.73,
        "hand": "left"
      },
      {
        "midi": 55,
        "time": 93.529,
        "duration": 0.353,
        "velocity": 0.79,
        "hand": "left"
      },
      {
        "midi": 71,
        "time": 93.529,
        "duration": 0.353,
        "velocity": 0.83,
        "hand": "right"
      },
      {
        "midi": 35,
        "time": 93.882,
        "duration": 0.176,
        "velocity": 0.58,
        "hand": "left"
      },
      {
        "midi": 42,
        "time": 93.882,
        "duration": 0.176,
        "velocity": 0.51,
        "hand": "left"
      },
      {
        "midi": 43,
        "time": 94.059,
        "duration": 0.176,
        "velocity": 0.86,
        "hand": "left"
      },
      {
        "midi": 62,
        "time": 94.059,
        "duration": 0.176,
        "velocity": 0.79,
        "hand": "right"
      },
      {
        "midi": 71,
        "time": 94.059,
        "duration": 0.176,
        "velocity": 0.83,
        "hand": "right"
      },
      {
        "midi": 35,
        "time": 94.235,
        "duration": 0.176,
        "velocity": 0.73,
        "hand": "left"
      },
      {
        "midi": 55,
        "time": 94.235,
        "duration": 0.529,
        "velocity": 0.79,
        "hand": "left"
      },
      {
        "midi": 71,
        "time": 94.235,
        "duration": 0.529,
        "velocity": 0.83,
        "hand": "right"
      },
      {
        "midi": 42,
        "time": 94.588,
        "duration": 0.176,
        "velocity": 0.51,
        "hand": "left"
      },
      {
        "midi": 37,
        "time": 94.941,
        "duration": 0.176,
        "velocity": 0.73,
        "hand": "left"
      },
      {
        "midi": 55,
        "time": 94.941,
        "duration": 0.353,
        "velocity": 0.79,
        "hand": "left"
      },
      {
        "midi": 71,
        "time": 94.941,
        "duration": 0.353,
        "velocity": 0.83,
        "hand": "right"
      },
      {
        "midi": 35,
        "time": 95.294,
        "duration": 0.176,
        "velocity": 0.58,
        "hand": "left"
      },
      {
        "midi": 42,
        "time": 95.294,
        "duration": 0.176,
        "velocity": 0.51,
        "hand": "left"
      },
      {
        "midi": 43,
        "time": 95.471,
        "duration": 0.176,
        "velocity": 0.86,
        "hand": "left"
      },
      {
        "midi": 59,
        "time": 95.471,
        "duration": 0.176,
        "velocity": 0.79,
        "hand": "left"
      },
      {
        "midi": 67,
        "time": 95.471,
        "duration": 0.176,
        "velocity": 0.83,
        "hand": "right"
      },
      {
        "midi": 35,
        "time": 95.647,
        "duration": 0.176,
        "velocity": 0.73,
        "hand": "left"
      },
      {
        "midi": 50,
        "time": 95.647,
        "duration": 0.882,
        "velocity": 0.79,
        "hand": "left"
      },
      {
        "midi": 66,
        "time": 95.647,
        "duration": 0.882,
        "velocity": 0.83,
        "hand": "right"
      },
      {
        "midi": 42,
        "time": 96,
        "duration": 0.176,
        "velocity": 0.51,
        "hand": "left"
      },
      {
        "midi": 37,
        "time": 96.353,
        "duration": 0.176,
        "velocity": 0.73,
        "hand": "left"
      },
      {
        "midi": 42,
        "time": 96.353,
        "duration": 0.176,
        "velocity": 0.58,
        "hand": "left"
      },
      {
        "midi": 35,
        "time": 96.706,
        "duration": 0.176,
        "velocity": 0.58,
        "hand": "left"
      },
      {
        "midi": 42,
        "time": 96.706,
        "duration": 0.176,
        "velocity": 0.51,
        "hand": "left"
      },
      {
        "midi": 35,
        "time": 97.059,
        "duration": 0.176,
        "velocity": 0.73,
        "hand": "left"
      },
      {
        "midi": 50,
        "time": 97.059,
        "duration": 0.529,
        "velocity": 0.79,
        "hand": "left"
      },
      {
        "midi": 69,
        "time": 97.059,
        "duration": 0.529,
        "velocity": 0.83,
        "hand": "right"
      },
      {
        "midi": 35,
        "time": 97.412,
        "duration": 0.176,
        "velocity": 0.58,
        "hand": "left"
      },
      {
        "midi": 42,
        "time": 97.412,
        "duration": 0.176,
        "velocity": 0.51,
        "hand": "left"
      },
      {
        "midi": 37,
        "time": 97.765,
        "duration": 0.176,
        "velocity": 0.73,
        "hand": "left"
      },
      {
        "midi": 42,
        "time": 97.765,
        "duration": 0.176,
        "velocity": 0.58,
        "hand": "left"
      },
      {
        "midi": 35,
        "time": 98.118,
        "duration": 0.176,
        "velocity": 0.58,
        "hand": "left"
      },
      {
        "midi": 42,
        "time": 98.118,
        "duration": 0.176,
        "velocity": 0.51,
        "hand": "left"
      },
      {
        "midi": 42,
        "time": 98.294,
        "duration": 0.176,
        "velocity": 0.43,
        "hand": "left"
      },
      {
        "midi": 35,
        "time": 98.471,
        "duration": 0.176,
        "velocity": 0.73,
        "hand": "left"
      },
      {
        "midi": 55,
        "time": 98.471,
        "duration": 0.529,
        "velocity": 0.79,
        "hand": "left"
      },
      {
        "midi": 71,
        "time": 98.471,
        "duration": 0.529,
        "velocity": 0.83,
        "hand": "right"
      },
      {
        "midi": 42,
        "time": 98.824,
        "duration": 0.176,
        "velocity": 0.51,
        "hand": "left"
      },
      {
        "midi": 37,
        "time": 99.176,
        "duration": 0.176,
        "velocity": 0.73,
        "hand": "left"
      },
      {
        "midi": 55,
        "time": 99.176,
        "duration": 0.353,
        "velocity": 0.79,
        "hand": "left"
      },
      {
        "midi": 71,
        "time": 99.176,
        "duration": 0.353,
        "velocity": 0.83,
        "hand": "right"
      },
      {
        "midi": 35,
        "time": 99.529,
        "duration": 0.176,
        "velocity": 0.58,
        "hand": "left"
      },
      {
        "midi": 42,
        "time": 99.529,
        "duration": 0.176,
        "velocity": 0.51,
        "hand": "left"
      },
      {
        "midi": 43,
        "time": 99.706,
        "duration": 0.176,
        "velocity": 0.86,
        "hand": "left"
      },
      {
        "midi": 62,
        "time": 99.706,
        "duration": 0.176,
        "velocity": 0.79,
        "hand": "right"
      },
      {
        "midi": 71,
        "time": 99.706,
        "duration": 0.176,
        "velocity": 0.83,
        "hand": "right"
      },
      {
        "midi": 35,
        "time": 99.882,
        "duration": 0.176,
        "velocity": 0.73,
        "hand": "left"
      },
      {
        "midi": 52,
        "time": 99.882,
        "duration": 0.176,
        "velocity": 0.79,
        "hand": "left"
      },
      {
        "midi": 71,
        "time": 99.882,
        "duration": 0.176,
        "velocity": 0.83,
        "hand": "right"
      },
      {
        "midi": 40,
        "time": 100.235,
        "duration": 0.176,
        "velocity": 0.86,
        "hand": "left"
      },
      {
        "midi": 52,
        "time": 100.235,
        "duration": 0.176,
        "velocity": 0.79,
        "hand": "left"
      },
      {
        "midi": 74,
        "time": 100.235,
        "duration": 0.176,
        "velocity": 0.83,
        "hand": "right"
      },
      {
        "midi": 37,
        "time": 100.588,
        "duration": 0.176,
        "velocity": 0.73,
        "hand": "left"
      },
      {
        "midi": 52,
        "time": 100.588,
        "duration": 0.176,
        "velocity": 0.79,
        "hand": "left"
      },
      {
        "midi": 73,
        "time": 100.588,
        "duration": 0.176,
        "velocity": 0.83,
        "hand": "right"
      },
      {
        "midi": 35,
        "time": 100.941,
        "duration": 0.176,
        "velocity": 0.58,
        "hand": "left"
      },
      {
        "midi": 52,
        "time": 100.941,
        "duration": 0.176,
        "velocity": 0.79,
        "hand": "left"
      },
      {
        "midi": 71,
        "time": 100.941,
        "duration": 0.176,
        "velocity": 0.83,
        "hand": "right"
      },
      {
        "midi": 33,
        "time": 101.294,
        "duration": 1.412,
        "velocity": 0.86,
        "hand": "left"
      },
      {
        "midi": 57,
        "time": 101.294,
        "duration": 1.412,
        "velocity": 0.79,
        "hand": "left"
      },
      {
        "midi": 69,
        "time": 101.294,
        "duration": 1.412,
        "velocity": 0.86,
        "hand": "right"
      },
      {
        "midi": 42,
        "time": 101.471,
        "duration": 0.176,
        "velocity": 0.43,
        "hand": "left"
      },
      {
        "midi": 42,
        "time": 101.647,
        "duration": 0.176,
        "velocity": 0.51,
        "hand": "left"
      },
      {
        "midi": 37,
        "time": 102,
        "duration": 0.176,
        "velocity": 0.73,
        "hand": "left"
      },
      {
        "midi": 42,
        "time": 102,
        "duration": 0.176,
        "velocity": 0.58,
        "hand": "left"
      },
      {
        "midi": 35,
        "time": 102.353,
        "duration": 0.176,
        "velocity": 0.58,
        "hand": "left"
      },
      {
        "midi": 42,
        "time": 102.353,
        "duration": 0.176,
        "velocity": 0.51,
        "hand": "left"
      },
      {
        "midi": 46,
        "time": 102.529,
        "duration": 0.176,
        "velocity": 0.39,
        "hand": "left"
      },
      {
        "midi": 35,
        "time": 102.706,
        "duration": 0.176,
        "velocity": 0.73,
        "hand": "left"
      },
      {
        "midi": 42,
        "time": 102.706,
        "duration": 0.176,
        "velocity": 0.65,
        "hand": "left"
      },
      {
        "midi": 67,
        "time": 102.706,
        "duration": 0.529,
        "velocity": 0.83,
        "hand": "right"
      },
      {
        "midi": 35,
        "time": 103.059,
        "duration": 0.176,
        "velocity": 0.58,
        "hand": "left"
      },
      {
        "midi": 42,
        "time": 103.059,
        "duration": 0.176,
        "velocity": 0.51,
        "hand": "left"
      },
      {
        "midi": 37,
        "time": 103.412,
        "duration": 0.176,
        "velocity": 0.73,
        "hand": "left"
      },
      {
        "midi": 42,
        "time": 103.412,
        "duration": 0.176,
        "velocity": 0.58,
        "hand": "left"
      },
      {
        "midi": 35,
        "time": 103.765,
        "duration": 0.176,
        "velocity": 0.58,
        "hand": "left"
      },
      {
        "midi": 42,
        "time": 103.765,
        "duration": 0.176,
        "velocity": 0.51,
        "hand": "left"
      },
      {
        "midi": 35,
        "time": 104.118,
        "duration": 0.176,
        "velocity": 0.73,
        "hand": "left"
      },
      {
        "midi": 50,
        "time": 104.118,
        "duration": 0.529,
        "velocity": 0.79,
        "hand": "left"
      },
      {
        "midi": 66,
        "time": 104.118,
        "duration": 0.529,
        "velocity": 0.83,
        "hand": "right"
      },
      {
        "midi": 42,
        "time": 104.471,
        "duration": 0.176,
        "velocity": 0.51,
        "hand": "left"
      },
      {
        "midi": 37,
        "time": 104.824,
        "duration": 0.176,
        "velocity": 0.73,
        "hand": "left"
      },
      {
        "midi": 50,
        "time": 104.824,
        "duration": 0.353,
        "velocity": 0.79,
        "hand": "left"
      },
      {
        "midi": 66,
        "time": 104.824,
        "duration": 0.353,
        "velocity": 0.83,
        "hand": "right"
      },
      {
        "midi": 35,
        "time": 105.176,
        "duration": 0.176,
        "velocity": 0.58,
        "hand": "left"
      },
      {
        "midi": 42,
        "time": 105.176,
        "duration": 0.176,
        "velocity": 0.51,
        "hand": "left"
      },
      {
        "midi": 38,
        "time": 105.353,
        "duration": 0.176,
        "velocity": 0.86,
        "hand": "left"
      },
      {
        "midi": 56,
        "time": 105.353,
        "duration": 0.176,
        "velocity": 0.79,
        "hand": "left"
      },
      {
        "midi": 65,
        "time": 105.353,
        "duration": 0.176,
        "velocity": 0.83,
        "hand": "right"
      },
      {
        "midi": 35,
        "time": 105.529,
        "duration": 0.176,
        "velocity": 0.73,
        "hand": "left"
      },
      {
        "midi": 50,
        "time": 105.529,
        "duration": 0.529,
        "velocity": 0.79,
        "hand": "left"
      },
      {
        "midi": 66,
        "time": 105.529,
        "duration": 0.529,
        "velocity": 0.83,
        "hand": "right"
      },
      {
        "midi": 42,
        "time": 105.882,
        "duration": 0.176,
        "velocity": 0.51,
        "hand": "left"
      },
      {
        "midi": 37,
        "time": 106.235,
        "duration": 0.176,
        "velocity": 0.73,
        "hand": "left"
      },
      {
        "midi": 50,
        "time": 106.235,
        "duration": 0.353,
        "velocity": 0.79,
        "hand": "left"
      },
      {
        "midi": 66,
        "time": 106.235,
        "duration": 0.353,
        "velocity": 0.83,
        "hand": "right"
      },
      {
        "midi": 35,
        "time": 106.588,
        "duration": 0.176,
        "velocity": 0.58,
        "hand": "left"
      },
      {
        "midi": 42,
        "time": 106.588,
        "duration": 0.176,
        "velocity": 0.51,
        "hand": "left"
      },
      {
        "midi": 38,
        "time": 106.765,
        "duration": 0.176,
        "velocity": 0.86,
        "hand": "left"
      },
      {
        "midi": 57,
        "time": 106.765,
        "duration": 0.176,
        "velocity": 0.79,
        "hand": "left"
      },
      {
        "midi": 67,
        "time": 106.765,
        "duration": 0.176,
        "velocity": 0.83,
        "hand": "right"
      },
      {
        "midi": 35,
        "time": 106.941,
        "duration": 0.176,
        "velocity": 0.73,
        "hand": "left"
      },
      {
        "midi": 50,
        "time": 106.941,
        "duration": 0.882,
        "velocity": 0.79,
        "hand": "left"
      },
      {
        "midi": 69,
        "time": 106.941,
        "duration": 0.882,
        "velocity": 0.83,
        "hand": "right"
      },
      {
        "midi": 42,
        "time": 107.294,
        "duration": 0.176,
        "velocity": 0.51,
        "hand": "left"
      },
      {
        "midi": 37,
        "time": 107.647,
        "duration": 0.176,
        "velocity": 0.73,
        "hand": "left"
      },
      {
        "midi": 42,
        "time": 107.647,
        "duration": 0.176,
        "velocity": 0.58,
        "hand": "left"
      },
      {
        "midi": 35,
        "time": 108,
        "duration": 0.176,
        "velocity": 0.58,
        "hand": "left"
      },
      {
        "midi": 42,
        "time": 108,
        "duration": 0.176,
        "velocity": 0.51,
        "hand": "left"
      },
      {
        "midi": 35,
        "time": 108.353,
        "duration": 0.176,
        "velocity": 0.73,
        "hand": "left"
      },
      {
        "midi": 50,
        "time": 108.353,
        "duration": 0.529,
        "velocity": 0.79,
        "hand": "left"
      },
      {
        "midi": 69,
        "time": 108.353,
        "duration": 0.529,
        "velocity": 0.83,
        "hand": "right"
      },
      {
        "midi": 35,
        "time": 108.706,
        "duration": 0.176,
        "velocity": 0.58,
        "hand": "left"
      },
      {
        "midi": 42,
        "time": 108.706,
        "duration": 0.176,
        "velocity": 0.51,
        "hand": "left"
      },
      {
        "midi": 37,
        "time": 109.059,
        "duration": 0.176,
        "velocity": 0.73,
        "hand": "left"
      },
      {
        "midi": 50,
        "time": 109.059,
        "duration": 0.353,
        "velocity": 0.79,
        "hand": "left"
      },
      {
        "midi": 69,
        "time": 109.059,
        "duration": 0.353,
        "velocity": 0.83,
        "hand": "right"
      },
      {
        "midi": 35,
        "time": 109.412,
        "duration": 0.176,
        "velocity": 0.58,
        "hand": "left"
      },
      {
        "midi": 42,
        "time": 109.412,
        "duration": 0.176,
        "velocity": 0.51,
        "hand": "left"
      },
      {
        "midi": 38,
        "time": 109.588,
        "duration": 0.176,
        "velocity": 0.86,
        "hand": "left"
      },
      {
        "midi": 50,
        "time": 109.588,
        "duration": 0.176,
        "velocity": 0.79,
        "hand": "left"
      },
      {
        "midi": 66,
        "time": 109.588,
        "duration": 0.176,
        "velocity": 0.83,
        "hand": "right"
      },
      {
        "midi": 35,
        "time": 109.765,
        "duration": 0.176,
        "velocity": 0.65,
        "hand": "left"
      },
      {
        "midi": 55,
        "time": 109.765,
        "duration": 0.529,
        "velocity": 0.79,
        "hand": "left"
      },
      {
        "midi": 64,
        "time": 109.765,
        "duration": 0.529,
        "velocity": 0.83,
        "hand": "right"
      },
      {
        "midi": 42,
        "time": 110.118,
        "duration": 0.176,
        "velocity": 0.36,
        "hand": "left"
      },
      {
        "midi": 42,
        "time": 110.294,
        "duration": 0.176,
        "velocity": 0.73,
        "hand": "left"
      },
      {
        "midi": 38,
        "time": 110.471,
        "duration": 0.176,
        "velocity": 0.73,
        "hand": "left"
      },
      {
        "midi": 55,
        "time": 110.471,
        "duration": 0.353,
        "velocity": 0.79,
        "hand": "left"
      },
      {
        "midi": 64,
        "time": 110.471,
        "duration": 0.353,
        "velocity": 0.83,
        "hand": "right"
      },
      {
        "midi": 35,
        "time": 111,
        "duration": 0.176,
        "velocity": 0.65,
        "hand": "left"
      },
      {
        "midi": 55,
        "time": 111,
        "duration": 0.176,
        "velocity": 0.79,
        "hand": "left"
      },
      {
        "midi": 64,
        "time": 111,
        "duration": 0.176,
        "velocity": 0.83,
        "hand": "right"
      },
      {
        "midi": 38,
        "time": 111.176,
        "duration": 0.176,
        "velocity": 0.73,
        "hand": "left"
      },
      {
        "midi": 57,
        "time": 111.176,
        "duration": 0.529,
        "velocity": 0.79,
        "hand": "left"
      },
      {
        "midi": 64,
        "time": 111.176,
        "duration": 0.529,
        "velocity": 0.83,
        "hand": "right"
      },
      {
        "midi": 38,
        "time": 111.353,
        "duration": 0.176,
        "velocity": 0.43,
        "hand": "left"
      },
      {
        "midi": 35,
        "time": 111.706,
        "duration": 0.176,
        "velocity": 0.65,
        "hand": "left"
      },
      {
        "midi": 33,
        "time": 111.882,
        "duration": 0.353,
        "velocity": 0.86,
        "hand": "left"
      },
      {
        "midi": 57,
        "time": 111.882,
        "duration": 0.353,
        "velocity": 0.79,
        "hand": "left"
      },
      {
        "midi": 66,
        "time": 111.882,
        "duration": 0.353,
        "velocity": 0.83,
        "hand": "right"
      },
      {
        "midi": 38,
        "time": 112.059,
        "duration": 0.176,
        "velocity": 0.43,
        "hand": "left"
      },
      {
        "midi": 41,
        "time": 112.235,
        "duration": 0.176,
        "velocity": 0.83,
        "hand": "left"
      },
      {
        "midi": 33,
        "time": 112.412,
        "duration": 0.176,
        "velocity": 0.86,
        "hand": "left"
      },
      {
        "midi": 55,
        "time": 112.412,
        "duration": 0.176,
        "velocity": 0.79,
        "hand": "left"
      },
      {
        "midi": 64,
        "time": 112.412,
        "duration": 0.176,
        "velocity": 0.83,
        "hand": "right"
      },
      {
        "midi": 35,
        "time": 112.588,
        "duration": 0.176,
        "velocity": 0.73,
        "hand": "left"
      },
      {
        "midi": 50,
        "time": 112.588,
        "duration": 1.412,
        "velocity": 0.79,
        "hand": "left"
      },
      {
        "midi": 62,
        "time": 112.588,
        "duration": 1.412,
        "velocity": 0.83,
        "hand": "right"
      },
      {
        "midi": 38,
        "time": 113.118,
        "duration": 0.176,
        "velocity": 0.36,
        "hand": "left"
      },
      {
        "midi": 38,
        "time": 113.294,
        "duration": 0.176,
        "velocity": 0.65,
        "hand": "left"
      },
      {
        "midi": 35,
        "time": 113.471,
        "duration": 0.176,
        "velocity": 0.65,
        "hand": "left"
      },
      {
        "midi": 48,
        "time": 113.647,
        "duration": 0.176,
        "velocity": 0.73,
        "hand": "left"
      },
      {
        "midi": 38,
        "time": 114.176,
        "duration": 0.176,
        "velocity": 0.29,
        "hand": "left"
      },
      {
        "midi": 45,
        "time": 114.353,
        "duration": 0.176,
        "velocity": 0.73,
        "hand": "left"
      },
      {
        "midi": 35,
        "time": 114.529,
        "duration": 0.176,
        "velocity": 0.65,
        "hand": "left"
      },
      {
        "midi": 41,
        "time": 114.706,
        "duration": 0.176,
        "velocity": 0.73,
        "hand": "left"
      },
      {
        "midi": 41,
        "time": 115.059,
        "duration": 0.176,
        "velocity": 0.83,
        "hand": "left"
      },
      {
        "midi": 35,
        "time": 115.412,
        "duration": 0.176,
        "velocity": 0.73,
        "hand": "left"
      },
      {
        "midi": 50,
        "time": 115.412,
        "duration": 0.176,
        "velocity": 0.79,
        "hand": "left"
      },
      {
        "midi": 69,
        "time": 115.412,
        "duration": 1.588,
        "velocity": 0.83,
        "hand": "right"
      },
      {
        "midi": 38,
        "time": 115.588,
        "duration": 0.353,
        "velocity": 0.86,
        "hand": "left"
      },
      {
        "midi": 62,
        "time": 115.588,
        "duration": 0.353,
        "velocity": 0.79,
        "hand": "right"
      },
      {
        "midi": 66,
        "time": 115.588,
        "duration": 0.353,
        "velocity": 0.83,
        "hand": "right"
      },
      {
        "midi": 42,
        "time": 115.765,
        "duration": 0.176,
        "velocity": 0.51,
        "hand": "left"
      },
      {
        "midi": 42,
        "time": 115.941,
        "duration": 0.176,
        "velocity": 0.43,
        "hand": "left"
      },
      {
        "midi": 38,
        "time": 116.118,
        "duration": 0.353,
        "velocity": 0.86,
        "hand": "left"
      },
      {
        "midi": 50,
        "time": 116.118,
        "duration": 0.353,
        "velocity": 0.79,
        "hand": "left"
      },
      {
        "midi": 66,
        "time": 116.118,
        "duration": 0.353,
        "velocity": 0.83,
        "hand": "right"
      },
      {
        "midi": 42,
        "time": 116.471,
        "duration": 0.176,
        "velocity": 0.51,
        "hand": "left"
      },
      {
        "midi": 35,
        "time": 116.647,
        "duration": 0.176,
        "velocity": 0.58,
        "hand": "left"
      },
      {
        "midi": 50,
        "time": 116.647,
        "duration": 0.176,
        "velocity": 0.79,
        "hand": "left"
      },
      {
        "midi": 66,
        "time": 116.647,
        "duration": 0.176,
        "velocity": 0.83,
        "hand": "right"
      },
      {
        "midi": 35,
        "time": 116.824,
        "duration": 0.176,
        "velocity": 0.73,
        "hand": "left"
      },
      {
        "midi": 50,
        "time": 116.824,
        "duration": 0.529,
        "velocity": 0.79,
        "hand": "left"
      },
      {
        "midi": 69,
        "time": 116.824,
        "duration": 0.353,
        "velocity": 0.83,
        "hand": "right"
      },
      {
        "midi": 42,
        "time": 117.176,
        "duration": 0.176,
        "velocity": 0.51,
        "hand": "left"
      },
      {
        "midi": 42,
        "time": 117.353,
        "duration": 0.176,
        "velocity": 0.43,
        "hand": "left"
      },
      {
        "midi": 66,
        "time": 117.353,
        "duration": 0.176,
        "velocity": 0.83,
        "hand": "right"
      },
      {
        "midi": 38,
        "time": 117.529,
        "duration": 0.176,
        "velocity": 0.73,
        "hand": "left"
      },
      {
        "midi": 42,
        "time": 117.529,
        "duration": 0.176,
        "velocity": 0.58,
        "hand": "left"
      },
      {
        "midi": 69,
        "time": 117.529,
        "duration": 0.353,
        "velocity": 0.83,
        "hand": "right"
      },
      {
        "midi": 35,
        "time": 117.882,
        "duration": 0.176,
        "velocity": 0.58,
        "hand": "left"
      },
      {
        "midi": 42,
        "time": 117.882,
        "duration": 0.176,
        "velocity": 0.51,
        "hand": "left"
      },
      {
        "midi": 42,
        "time": 118.059,
        "duration": 0.176,
        "velocity": 0.43,
        "hand": "left"
      },
      {
        "midi": 74,
        "time": 118.059,
        "duration": 0.176,
        "velocity": 0.83,
        "hand": "right"
      },
      {
        "midi": 33,
        "time": 118.235,
        "duration": 0.176,
        "velocity": 0.86,
        "hand": "left"
      },
      {
        "midi": 52,
        "time": 118.235,
        "duration": 0.176,
        "velocity": 0.86,
        "hand": "left"
      },
      {
        "midi": 73,
        "time": 118.235,
        "duration": 0.882,
        "velocity": 0.86,
        "hand": "right"
      },
      {
        "midi": 33,
        "time": 118.412,
        "duration": 0.353,
        "velocity": 0.86,
        "hand": "left"
      },
      {
        "midi": 52,
        "time": 118.412,
        "duration": 0.353,
        "velocity": 0.86,
        "hand": "left"
      },
      {
        "midi": 67,
        "time": 118.412,
        "duration": 0.353,
        "velocity": 0.83,
        "hand": "right"
      },
      {
        "midi": 42,
        "time": 118.588,
        "duration": 0.176,
        "velocity": 0.51,
        "hand": "left"
      },
      {
        "midi": 42,
        "time": 118.765,
        "duration": 0.176,
        "velocity": 0.43,
        "hand": "left"
      },
      {
        "midi": 33,
        "time": 118.941,
        "duration": 0.353,
        "velocity": 0.86,
        "hand": "left"
      },
      {
        "midi": 45,
        "time": 118.941,
        "duration": 0.353,
        "velocity": 0.79,
        "hand": "left"
      },
      {
        "midi": 67,
        "time": 118.941,
        "duration": 0.353,
        "velocity": 0.83,
        "hand": "right"
      },
      {
        "midi": 42,
        "time": 119.294,
        "duration": 0.176,
        "velocity": 0.51,
        "hand": "left"
      },
      {
        "midi": 33,
        "time": 119.471,
        "duration": 0.176,
        "velocity": 0.86,
        "hand": "left"
      },
      {
        "midi": 45,
        "time": 119.471,
        "duration": 0.176,
        "velocity": 0.79,
        "hand": "left"
      },
      {
        "midi": 67,
        "time": 119.471,
        "duration": 0.176,
        "velocity": 0.83,
        "hand": "right"
      },
      {
        "midi": 33,
        "time": 119.647,
        "duration": 0.529,
        "velocity": 0.86,
        "hand": "left"
      },
      {
        "midi": 52,
        "time": 119.647,
        "duration": 0.529,
        "velocity": 0.86,
        "hand": "left"
      },
      {
        "midi": 73,
        "time": 119.647,
        "duration": 0.529,
        "velocity": 0.83,
        "hand": "right"
      },
      {
        "midi": 35,
        "time": 120,
        "duration": 0.176,
        "velocity": 0.58,
        "hand": "left"
      },
      {
        "midi": 42,
        "time": 120,
        "duration": 0.176,
        "velocity": 0.51,
        "hand": "left"
      },
      {
        "midi": 42,
        "time": 120.176,
        "duration": 0.176,
        "velocity": 0.43,
        "hand": "left"
      },
      {
        "midi": 38,
        "time": 120.353,
        "duration": 0.176,
        "velocity": 0.73,
        "hand": "left"
      },
      {
        "midi": 42,
        "time": 120.353,
        "duration": 0.176,
        "velocity": 0.58,
        "hand": "left"
      },
      {
        "midi": 35,
        "time": 120.706,
        "duration": 0.176,
        "velocity": 0.58,
        "hand": "left"
      },
      {
        "midi": 42,
        "time": 120.706,
        "duration": 0.176,
        "velocity": 0.51,
        "hand": "left"
      },
      {
        "midi": 46,
        "time": 120.882,
        "duration": 0.176,
        "velocity": 0.58,
        "hand": "left"
      },
      {
        "midi": 35,
        "time": 121.059,
        "duration": 0.176,
        "velocity": 0.73,
        "hand": "left"
      },
      {
        "midi": 57,
        "time": 121.059,
        "duration": 0.176,
        "velocity": 0.79,
        "hand": "left"
      },
      {
        "midi": 67,
        "time": 121.059,
        "duration": 1.588,
        "velocity": 0.83,
        "hand": "right"
      },
      {
        "midi": 45,
        "time": 121.235,
        "duration": 0.353,
        "velocity": 0.86,
        "hand": "left"
      },
      {
        "midi": 57,
        "time": 121.235,
        "duration": 0.353,
        "velocity": 0.79,
        "hand": "left"
      },
      {
        "midi": 64,
        "time": 121.235,
        "duration": 0.353,
        "velocity": 0.83,
        "hand": "right"
      },
      {
        "midi": 42,
        "time": 121.412,
        "duration": 0.176,
        "velocity": 0.51,
        "hand": "left"
      },
      {
        "midi": 42,
        "time": 121.588,
        "duration": 0.176,
        "velocity": 0.43,
        "hand": "left"
      },
      {
        "midi": 38,
        "time": 121.765,
        "duration": 0.176,
        "velocity": 0.73,
        "hand": "left"
      },
      {
        "midi": 49,
        "time": 121.765,
        "duration": 0.353,
        "velocity": 0.86,
        "hand": "left"
      },
      {
        "midi": 64,
        "time": 121.765,
        "duration": 0.353,
        "velocity": 0.83,
        "hand": "right"
      },
      {
        "midi": 42,
        "time": 122.118,
        "duration": 0.176,
        "velocity": 0.51,
        "hand": "left"
      },
      {
        "midi": 35,
        "time": 122.294,
        "duration": 0.176,
        "velocity": 0.58,
        "hand": "left"
      },
      {
        "midi": 49,
        "time": 122.294,
        "duration": 0.176,
        "velocity": 0.86,
        "hand": "left"
      },
      {
        "midi": 64,
        "time": 122.294,
        "duration": 0.176,
        "velocity": 0.83,
        "hand": "right"
      },
      {
        "midi": 35,
        "time": 122.471,
        "duration": 0.176,
        "velocity": 0.73,
        "hand": "left"
      },
      {
        "midi": 57,
        "time": 122.471,
        "duration": 0.529,
        "velocity": 0.79,
        "hand": "left"
      },
      {
        "midi": 67,
        "time": 122.471,
        "duration": 0.353,
        "velocity": 0.83,
        "hand": "right"
      },
      {
        "midi": 42,
        "time": 122.824,
        "duration": 0.176,
        "velocity": 0.51,
        "hand": "left"
      },
      {
        "midi": 42,
        "time": 123,
        "duration": 0.176,
        "velocity": 0.43,
        "hand": "left"
      },
      {
        "midi": 64,
        "time": 123,
        "duration": 0.176,
        "velocity": 0.83,
        "hand": "right"
      },
      {
        "midi": 38,
        "time": 123.176,
        "duration": 0.176,
        "velocity": 0.73,
        "hand": "left"
      },
      {
        "midi": 42,
        "time": 123.176,
        "duration": 0.176,
        "velocity": 0.58,
        "hand": "left"
      },
      {
        "midi": 67,
        "time": 123.176,
        "duration": 0.353,
        "velocity": 0.83,
        "hand": "right"
      },
      {
        "midi": 35,
        "time": 123.529,
        "duration": 0.176,
        "velocity": 0.58,
        "hand": "left"
      },
      {
        "midi": 42,
        "time": 123.529,
        "duration": 0.176,
        "velocity": 0.51,
        "hand": "left"
      },
      {
        "midi": 42,
        "time": 123.706,
        "duration": 0.176,
        "velocity": 0.43,
        "hand": "left"
      },
      {
        "midi": 71,
        "time": 123.706,
        "duration": 0.176,
        "velocity": 0.83,
        "hand": "right"
      },
      {
        "midi": 35,
        "time": 123.882,
        "duration": 0.176,
        "velocity": 0.73,
        "hand": "left"
      },
      {
        "midi": 50,
        "time": 123.882,
        "duration": 0.176,
        "velocity": 0.79,
        "hand": "left"
      },
      {
        "midi": 69,
        "time": 123.882,
        "duration": 0.882,
        "velocity": 0.83,
        "hand": "right"
      },
      {
        "midi": 38,
        "time": 124.059,
        "duration": 0.353,
        "velocity": 0.86,
        "hand": "left"
      },
      {
        "midi": 50,
        "time": 124.059,
        "duration": 0.353,
        "velocity": 0.79,
        "hand": "left"
      },
      {
        "midi": 62,
        "time": 124.059,
        "duration": 0.353,
        "velocity": 0.79,
        "hand": "right"
      },
      {
        "midi": 42,
        "time": 124.235,
        "duration": 0.176,
        "velocity": 0.51,
        "hand": "left"
      },
      {
        "midi": 42,
        "time": 124.412,
        "duration": 0.176,
        "velocity": 0.43,
        "hand": "left"
      },
      {
        "midi": 38,
        "time": 124.588,
        "duration": 0.353,
        "velocity": 0.86,
        "hand": "left"
      },
      {
        "midi": 42,
        "time": 124.588,
        "duration": 0.176,
        "velocity": 0.58,
        "hand": "left"
      },
      {
        "midi": 62,
        "time": 124.588,
        "duration": 0.353,
        "velocity": 0.79,
        "hand": "right"
      },
      {
        "midi": 35,
        "time": 124.941,
        "duration": 0.176,
        "velocity": 0.58,
        "hand": "left"
      },
      {
        "midi": 46,
        "time": 124.941,
        "duration": 0.176,
        "velocity": 0.52,
        "hand": "left"
      },
      {
        "midi": 62,
        "time": 124.941,
        "duration": 0.176,
        "velocity": 0.79,
        "hand": "right"
      },
      {
        "midi": 35,
        "time": 125.118,
        "duration": 0.176,
        "velocity": 0.73,
        "hand": "left"
      },
      {
        "midi": 50,
        "time": 125.118,
        "duration": 0.529,
        "velocity": 0.79,
        "hand": "left"
      },
      {
        "midi": 69,
        "time": 125.118,
        "duration": 0.529,
        "velocity": 0.83,
        "hand": "right"
      },
      {
        "midi": 35,
        "time": 125.471,
        "duration": 0.176,
        "velocity": 0.58,
        "hand": "left"
      },
      {
        "midi": 42,
        "time": 125.471,
        "duration": 0.176,
        "velocity": 0.51,
        "hand": "left"
      },
      {
        "midi": 42,
        "time": 125.647,
        "duration": 0.176,
        "velocity": 0.43,
        "hand": "left"
      },
      {
        "midi": 38,
        "time": 125.824,
        "duration": 0.176,
        "velocity": 0.73,
        "hand": "left"
      },
      {
        "midi": 42,
        "time": 125.824,
        "duration": 0.176,
        "velocity": 0.58,
        "hand": "left"
      },
      {
        "midi": 35,
        "time": 126.176,
        "duration": 0.176,
        "velocity": 0.58,
        "hand": "left"
      },
      {
        "midi": 42,
        "time": 126.176,
        "duration": 0.176,
        "velocity": 0.51,
        "hand": "left"
      },
      {
        "midi": 42,
        "time": 126.353,
        "duration": 0.176,
        "velocity": 0.43,
        "hand": "left"
      },
      {
        "midi": 35,
        "time": 126.529,
        "duration": 0.176,
        "velocity": 0.73,
        "hand": "left"
      },
      {
        "midi": 50,
        "time": 126.529,
        "duration": 0.529,
        "velocity": 0.79,
        "hand": "left"
      },
      {
        "midi": 74,
        "time": 126.529,
        "duration": 0.529,
        "velocity": 0.83,
        "hand": "right"
      },
      {
        "midi": 42,
        "time": 126.882,
        "duration": 0.176,
        "velocity": 0.51,
        "hand": "left"
      },
      {
        "midi": 42,
        "time": 127.059,
        "duration": 0.176,
        "velocity": 0.43,
        "hand": "left"
      },
      {
        "midi": 38,
        "time": 127.235,
        "duration": 0.353,
        "velocity": 0.86,
        "hand": "left"
      },
      {
        "midi": 50,
        "time": 127.235,
        "duration": 0.353,
        "velocity": 0.79,
        "hand": "left"
      },
      {
        "midi": 74,
        "time": 127.235,
        "duration": 0.353,
        "velocity": 0.83,
        "hand": "right"
      },
      {
        "midi": 42,
        "time": 127.588,
        "duration": 0.176,
        "velocity": 0.51,
        "hand": "left"
      },
      {
        "midi": 35,
        "time": 127.765,
        "duration": 0.176,
        "velocity": 0.58,
        "hand": "left"
      },
      {
        "midi": 50,
        "time": 127.765,
        "duration": 0.176,
        "velocity": 0.79,
        "hand": "left"
      },
      {
        "midi": 74,
        "time": 127.765,
        "duration": 0.176,
        "velocity": 0.83,
        "hand": "right"
      },
      {
        "midi": 35,
        "time": 127.941,
        "duration": 0.176,
        "velocity": 0.73,
        "hand": "left"
      },
      {
        "midi": 54,
        "time": 127.941,
        "duration": 0.529,
        "velocity": 0.79,
        "hand": "left"
      },
      {
        "midi": 74,
        "time": 127.941,
        "duration": 0.529,
        "velocity": 0.83,
        "hand": "right"
      },
      {
        "midi": 46,
        "time": 128.294,
        "duration": 0.176,
        "velocity": 0.51,
        "hand": "left"
      },
      {
        "midi": 38,
        "time": 128.647,
        "duration": 0.176,
        "velocity": 0.73,
        "hand": "left"
      },
      {
        "midi": 54,
        "time": 128.647,
        "duration": 0.353,
        "velocity": 0.79,
        "hand": "left"
      },
      {
        "midi": 74,
        "time": 128.647,
        "duration": 0.353,
        "velocity": 0.83,
        "hand": "right"
      },
      {
        "midi": 35,
        "time": 129,
        "duration": 0.176,
        "velocity": 0.58,
        "hand": "left"
      },
      {
        "midi": 42,
        "time": 129,
        "duration": 0.176,
        "velocity": 0.51,
        "hand": "left"
      },
      {
        "midi": 42,
        "time": 129.176,
        "duration": 0.176,
        "velocity": 0.86,
        "hand": "left"
      },
      {
        "midi": 62,
        "time": 129.176,
        "duration": 0.176,
        "velocity": 0.79,
        "hand": "right"
      },
      {
        "midi": 73,
        "time": 129.176,
        "duration": 0.176,
        "velocity": 0.83,
        "hand": "right"
      },
      {
        "midi": 35,
        "time": 129.353,
        "duration": 0.176,
        "velocity": 0.73,
        "hand": "left"
      },
      {
        "midi": 55,
        "time": 129.353,
        "duration": 0.529,
        "velocity": 0.79,
        "hand": "left"
      },
      {
        "midi": 71,
        "time": 129.353,
        "duration": 0.882,
        "velocity": 0.83,
        "hand": "right"
      },
      {
        "midi": 42,
        "time": 129.706,
        "duration": 0.176,
        "velocity": 0.51,
        "hand": "left"
      },
      {
        "midi": 42,
        "time": 129.882,
        "duration": 0.176,
        "velocity": 0.43,
        "hand": "left"
      },
      {
        "midi": 38,
        "time": 130.059,
        "duration": 0.176,
        "velocity": 0.73,
        "hand": "left"
      },
      {
        "midi": 50,
        "time": 130.059,
        "duration": 0.353,
        "velocity": 0.86,
        "hand": "left"
      },
      {
        "midi": 67,
        "time": 130.059,
        "duration": 0.353,
        "velocity": 0.83,
        "hand": "right"
      },
      {
        "midi": 42,
        "time": 130.412,
        "duration": 0.176,
        "velocity": 0.51,
        "hand": "left"
      },
      {
        "midi": 35,
        "time": 130.588,
        "duration": 0.176,
        "velocity": 0.58,
        "hand": "left"
      },
      {
        "midi": 50,
        "time": 130.588,
        "duration": 0.176,
        "velocity": 0.86,
        "hand": "left"
      },
      {
        "midi": 67,
        "time": 130.588,
        "duration": 0.176,
        "velocity": 0.83,
        "hand": "right"
      },
      {
        "midi": 35,
        "time": 130.765,
        "duration": 0.176,
        "velocity": 0.73,
        "hand": "left"
      },
      {
        "midi": 50,
        "time": 130.765,
        "duration": 0.529,
        "velocity": 0.86,
        "hand": "left"
      },
      {
        "midi": 67,
        "time": 130.765,
        "duration": 0.529,
        "velocity": 0.83,
        "hand": "right"
      },
      {
        "midi": 42,
        "time": 131.118,
        "duration": 0.176,
        "velocity": 0.51,
        "hand": "left"
      },
      {
        "midi": 42,
        "time": 131.294,
        "duration": 0.176,
        "velocity": 0.43,
        "hand": "left"
      },
      {
        "midi": 38,
        "time": 131.471,
        "duration": 0.176,
        "velocity": 0.73,
        "hand": "left"
      },
      {
        "midi": 55,
        "time": 131.471,
        "duration": 0.353,
        "velocity": 0.79,
        "hand": "left"
      },
      {
        "midi": 71,
        "time": 131.471,
        "duration": 0.529,
        "velocity": 0.83,
        "hand": "right"
      },
      {
        "midi": 35,
        "time": 131.824,
        "duration": 0.176,
        "velocity": 0.58,
        "hand": "left"
      },
      {
        "midi": 42,
        "time": 131.824,
        "duration": 0.176,
        "velocity": 0.51,
        "hand": "left"
      },
      {
        "midi": 42,
        "time": 132,
        "duration": 0.176,
        "velocity": 0.43,
        "hand": "left"
      },
      {
        "midi": 55,
        "time": 132,
        "duration": 0.176,
        "velocity": 0.79,
        "hand": "left"
      },
      {
        "midi": 67,
        "time": 132,
        "duration": 0.176,
        "velocity": 0.83,
        "hand": "right"
      },
      {
        "midi": 35,
        "time": 132.176,
        "duration": 0.176,
        "velocity": 0.73,
        "hand": "left"
      },
      {
        "midi": 57,
        "time": 132.176,
        "duration": 0.529,
        "velocity": 0.79,
        "hand": "left"
      },
      {
        "midi": 69,
        "time": 132.176,
        "duration": 0.529,
        "velocity": 0.83,
        "hand": "right"
      },
      {
        "midi": 42,
        "time": 132.529,
        "duration": 0.176,
        "velocity": 0.51,
        "hand": "left"
      },
      {
        "midi": 42,
        "time": 132.706,
        "duration": 0.176,
        "velocity": 0.43,
        "hand": "left"
      },
      {
        "midi": 33,
        "time": 132.882,
        "duration": 0.353,
        "velocity": 0.86,
        "hand": "left"
      },
      {
        "midi": 45,
        "time": 132.882,
        "duration": 0.353,
        "velocity": 0.79,
        "hand": "left"
      },
      {
        "midi": 66,
        "time": 132.882,
        "duration": 0.353,
        "velocity": 0.83,
        "hand": "right"
      },
      {
        "midi": 42,
        "time": 133.235,
        "duration": 0.176,
        "velocity": 0.51,
        "hand": "left"
      },
      {
        "midi": 35,
        "time": 133.412,
        "duration": 0.176,
        "velocity": 0.86,
        "hand": "left"
      },
      {
        "midi": 47,
        "time": 133.412,
        "duration": 0.176,
        "velocity": 0.79,
        "hand": "left"
      },
      {
        "midi": 62,
        "time": 133.412,
        "duration": 0.176,
        "velocity": 0.83,
        "hand": "right"
      },
      {
        "midi": 33,
        "time": 133.588,
        "duration": 0.529,
        "velocity": 0.86,
        "hand": "left"
      },
      {
        "midi": 45,
        "time": 133.588,
        "duration": 0.529,
        "velocity": 0.79,
        "hand": "left"
      },
      {
        "midi": 64,
        "time": 133.588,
        "duration": 0.529,
        "velocity": 0.83,
        "hand": "right"
      },
      {
        "midi": 42,
        "time": 133.941,
        "duration": 0.176,
        "velocity": 0.51,
        "hand": "left"
      },
      {
        "midi": 46,
        "time": 134.118,
        "duration": 0.176,
        "velocity": 0.58,
        "hand": "left"
      },
      {
        "midi": 33,
        "time": 134.294,
        "duration": 0.353,
        "velocity": 0.86,
        "hand": "left"
      },
      {
        "midi": 45,
        "time": 134.294,
        "duration": 0.353,
        "velocity": 0.79,
        "hand": "left"
      },
      {
        "midi": 66,
        "time": 134.294,
        "duration": 0.353,
        "velocity": 0.83,
        "hand": "right"
      },
      {
        "midi": 35,
        "time": 134.647,
        "duration": 0.176,
        "velocity": 0.58,
        "hand": "left"
      },
      {
        "midi": 42,
        "time": 134.647,
        "duration": 0.176,
        "velocity": 0.51,
        "hand": "left"
      },
      {
        "midi": 33,
        "time": 134.824,
        "duration": 0.176,
        "velocity": 0.86,
        "hand": "left"
      },
      {
        "midi": 45,
        "time": 134.824,
        "duration": 0.176,
        "velocity": 0.79,
        "hand": "left"
      },
      {
        "midi": 64,
        "time": 134.824,
        "duration": 0.176,
        "velocity": 0.83,
        "hand": "right"
      },
      {
        "midi": 35,
        "time": 135,
        "duration": 0.176,
        "velocity": 0.73,
        "hand": "left"
      },
      {
        "midi": 50,
        "time": 135,
        "duration": 1.588,
        "velocity": 0.79,
        "hand": "left"
      },
      {
        "midi": 62,
        "time": 135,
        "duration": 2.294,
        "velocity": 0.86,
        "hand": "right"
      },
      {
        "midi": 42,
        "time": 135.353,
        "duration": 0.176,
        "velocity": 0.51,
        "hand": "left"
      },
      {
        "midi": 37,
        "time": 135.706,
        "duration": 0.176,
        "velocity": 0.73,
        "hand": "left"
      },
      {
        "midi": 43,
        "time": 135.706,
        "duration": 0.529,
        "velocity": 0.86,
        "hand": "left"
      },
      {
        "midi": 59,
        "time": 135.706,
        "duration": 0.529,
        "velocity": 0.83,
        "hand": "left"
      },
      {
        "midi": 35,
        "time": 136.059,
        "duration": 0.176,
        "velocity": 0.58,
        "hand": "left"
      },
      {
        "midi": 42,
        "time": 136.059,
        "duration": 0.176,
        "velocity": 0.51,
        "hand": "left"
      },
      {
        "midi": 35,
        "time": 136.412,
        "duration": 0.176,
        "velocity": 0.73,
        "hand": "left"
      },
      {
        "midi": 50,
        "time": 136.412,
        "duration": 0.529,
        "velocity": 0.79,
        "hand": "left"
      },
      {
        "midi": 62,
        "time": 136.412,
        "duration": 0.529,
        "velocity": 0.83,
        "hand": "right"
      },
      {
        "midi": 38,
        "time": 136.765,
        "duration": 0.176,
        "velocity": 0.73,
        "hand": "left"
      },
      {
        "midi": 42,
        "time": 136.765,
        "duration": 0.176,
        "velocity": 0.51,
        "hand": "left"
      },
      {
        "midi": 38,
        "time": 136.941,
        "duration": 0.176,
        "velocity": 0.58,
        "hand": "left"
      },
      {
        "midi": 38,
        "time": 137.118,
        "duration": 0.176,
        "velocity": 0.83,
        "hand": "left"
      },
      {
        "midi": 42,
        "time": 137.118,
        "duration": 0.176,
        "velocity": 0.58,
        "hand": "left"
      },
      {
        "midi": 35,
        "time": 137.471,
        "duration": 0.176,
        "velocity": 0.58,
        "hand": "left"
      },
      {
        "midi": 46,
        "time": 137.471,
        "duration": 0.176,
        "velocity": 0.65,
        "hand": "left"
      },
      {
        "midi": 35,
        "time": 137.824,
        "duration": 0.176,
        "velocity": 0.73,
        "hand": "left"
      },
      {
        "midi": 49,
        "time": 137.824,
        "duration": 0.176,
        "velocity": 0.65,
        "hand": "left"
      },
      {
        "midi": 66,
        "time": 137.824,
        "duration": 0.529,
        "velocity": 0.83,
        "hand": "right"
      },
      {
        "midi": 42,
        "time": 138.176,
        "duration": 0.176,
        "velocity": 0.51,
        "hand": "left"
      },
      {
        "midi": 37,
        "time": 138.529,
        "duration": 0.176,
        "velocity": 0.73,
        "hand": "left"
      },
      {
        "midi": 50,
        "time": 138.529,
        "duration": 0.353,
        "velocity": 0.79,
        "hand": "left"
      },
      {
        "midi": 66,
        "time": 138.529,
        "duration": 0.353,
        "velocity": 0.83,
        "hand": "right"
      },
      {
        "midi": 35,
        "time": 138.882,
        "duration": 0.176,
        "velocity": 0.58,
        "hand": "left"
      },
      {
        "midi": 42,
        "time": 138.882,
        "duration": 0.176,
        "velocity": 0.51,
        "hand": "left"
      },
      {
        "midi": 38,
        "time": 139.059,
        "duration": 0.176,
        "velocity": 0.86,
        "hand": "left"
      },
      {
        "midi": 56,
        "time": 139.059,
        "duration": 0.176,
        "velocity": 0.79,
        "hand": "left"
      },
      {
        "midi": 65,
        "time": 139.059,
        "duration": 0.176,
        "velocity": 0.83,
        "hand": "right"
      },
      {
        "midi": 35,
        "time": 139.235,
        "duration": 0.176,
        "velocity": 0.73,
        "hand": "left"
      },
      {
        "midi": 50,
        "time": 139.235,
        "duration": 0.529,
        "velocity": 0.79,
        "hand": "left"
      },
      {
        "midi": 66,
        "time": 139.235,
        "duration": 0.529,
        "velocity": 0.83,
        "hand": "right"
      },
      {
        "midi": 42,
        "time": 139.588,
        "duration": 0.176,
        "velocity": 0.51,
        "hand": "left"
      },
      {
        "midi": 37,
        "time": 139.941,
        "duration": 0.176,
        "velocity": 0.73,
        "hand": "left"
      },
      {
        "midi": 50,
        "time": 139.941,
        "duration": 0.353,
        "velocity": 0.79,
        "hand": "left"
      },
      {
        "midi": 66,
        "time": 139.941,
        "duration": 0.353,
        "velocity": 0.83,
        "hand": "right"
      },
      {
        "midi": 35,
        "time": 140.294,
        "duration": 0.176,
        "velocity": 0.58,
        "hand": "left"
      },
      {
        "midi": 42,
        "time": 140.294,
        "duration": 0.176,
        "velocity": 0.51,
        "hand": "left"
      },
      {
        "midi": 38,
        "time": 140.471,
        "duration": 0.176,
        "velocity": 0.86,
        "hand": "left"
      },
      {
        "midi": 57,
        "time": 140.471,
        "duration": 0.176,
        "velocity": 0.79,
        "hand": "left"
      },
      {
        "midi": 67,
        "time": 140.471,
        "duration": 0.176,
        "velocity": 0.83,
        "hand": "right"
      },
      {
        "midi": 35,
        "time": 140.647,
        "duration": 0.176,
        "velocity": 0.73,
        "hand": "left"
      },
      {
        "midi": 50,
        "time": 140.647,
        "duration": 0.882,
        "velocity": 0.79,
        "hand": "left"
      },
      {
        "midi": 69,
        "time": 140.647,
        "duration": 0.882,
        "velocity": 0.83,
        "hand": "right"
      },
      {
        "midi": 42,
        "time": 141,
        "duration": 0.176,
        "velocity": 0.51,
        "hand": "left"
      },
      {
        "midi": 37,
        "time": 141.353,
        "duration": 0.176,
        "velocity": 0.73,
        "hand": "left"
      },
      {
        "midi": 42,
        "time": 141.353,
        "duration": 0.176,
        "velocity": 0.58,
        "hand": "left"
      },
      {
        "midi": 35,
        "time": 141.706,
        "duration": 0.176,
        "velocity": 0.58,
        "hand": "left"
      },
      {
        "midi": 42,
        "time": 141.706,
        "duration": 0.176,
        "velocity": 0.51,
        "hand": "left"
      },
      {
        "midi": 35,
        "time": 142.059,
        "duration": 0.176,
        "velocity": 0.73,
        "hand": "left"
      },
      {
        "midi": 50,
        "time": 142.059,
        "duration": 0.529,
        "velocity": 0.79,
        "hand": "left"
      },
      {
        "midi": 69,
        "time": 142.059,
        "duration": 0.529,
        "velocity": 0.83,
        "hand": "right"
      },
      {
        "midi": 35,
        "time": 142.412,
        "duration": 0.176,
        "velocity": 0.58,
        "hand": "left"
      },
      {
        "midi": 42,
        "time": 142.412,
        "duration": 0.176,
        "velocity": 0.51,
        "hand": "left"
      },
      {
        "midi": 37,
        "time": 142.765,
        "duration": 0.176,
        "velocity": 0.73,
        "hand": "left"
      },
      {
        "midi": 50,
        "time": 142.765,
        "duration": 0.353,
        "velocity": 0.79,
        "hand": "left"
      },
      {
        "midi": 69,
        "time": 142.765,
        "duration": 0.353,
        "velocity": 0.83,
        "hand": "right"
      },
      {
        "midi": 35,
        "time": 143.118,
        "duration": 0.176,
        "velocity": 0.58,
        "hand": "left"
      },
      {
        "midi": 42,
        "time": 143.118,
        "duration": 0.176,
        "velocity": 0.51,
        "hand": "left"
      },
      {
        "midi": 38,
        "time": 143.294,
        "duration": 0.176,
        "velocity": 0.86,
        "hand": "left"
      },
      {
        "midi": 50,
        "time": 143.294,
        "duration": 0.176,
        "velocity": 0.79,
        "hand": "left"
      },
      {
        "midi": 66,
        "time": 143.294,
        "duration": 0.176,
        "velocity": 0.83,
        "hand": "right"
      },
      {
        "midi": 33,
        "time": 143.471,
        "duration": 0.529,
        "velocity": 0.86,
        "hand": "left"
      },
      {
        "midi": 45,
        "time": 143.471,
        "duration": 0.529,
        "velocity": 0.79,
        "hand": "left"
      },
      {
        "midi": 64,
        "time": 143.471,
        "duration": 0.529,
        "velocity": 0.83,
        "hand": "right"
      },
      {
        "midi": 42,
        "time": 143.824,
        "duration": 0.176,
        "velocity": 0.51,
        "hand": "left"
      },
      {
        "midi": 33,
        "time": 144.176,
        "duration": 0.529,
        "velocity": 0.86,
        "hand": "left"
      },
      {
        "midi": 45,
        "time": 144.176,
        "duration": 0.529,
        "velocity": 0.79,
        "hand": "left"
      },
      {
        "midi": 64,
        "time": 144.176,
        "duration": 0.529,
        "velocity": 0.83,
        "hand": "right"
      },
      {
        "midi": 35,
        "time": 144.529,
        "duration": 0.176,
        "velocity": 0.58,
        "hand": "left"
      },
      {
        "midi": 42,
        "time": 144.529,
        "duration": 0.176,
        "velocity": 0.51,
        "hand": "left"
      },
      {
        "midi": 35,
        "time": 144.882,
        "duration": 0.176,
        "velocity": 0.73,
        "hand": "left"
      },
      {
        "midi": 50,
        "time": 144.882,
        "duration": 0.529,
        "velocity": 0.79,
        "hand": "left"
      },
      {
        "midi": 66,
        "time": 144.882,
        "duration": 0.529,
        "velocity": 0.83,
        "hand": "right"
      },
      {
        "midi": 42,
        "time": 145.235,
        "duration": 0.176,
        "velocity": 0.51,
        "hand": "left"
      },
      {
        "midi": 37,
        "time": 145.588,
        "duration": 0.176,
        "velocity": 0.73,
        "hand": "left"
      },
      {
        "midi": 50,
        "time": 145.588,
        "duration": 0.353,
        "velocity": 0.79,
        "hand": "left"
      },
      {
        "midi": 67,
        "time": 145.588,
        "duration": 0.353,
        "velocity": 0.83,
        "hand": "right"
      },
      {
        "midi": 35,
        "time": 145.941,
        "duration": 0.176,
        "velocity": 0.58,
        "hand": "left"
      },
      {
        "midi": 42,
        "time": 145.941,
        "duration": 0.176,
        "velocity": 0.51,
        "hand": "left"
      },
      {
        "midi": 38,
        "time": 146.118,
        "duration": 0.176,
        "velocity": 0.86,
        "hand": "left"
      },
      {
        "midi": 57,
        "time": 146.118,
        "duration": 0.176,
        "velocity": 0.79,
        "hand": "left"
      },
      {
        "midi": 66,
        "time": 146.118,
        "duration": 0.176,
        "velocity": 0.83,
        "hand": "right"
      },
      {
        "midi": 33,
        "time": 146.294,
        "duration": 1.412,
        "velocity": 0.86,
        "hand": "left"
      },
      {
        "midi": 45,
        "time": 146.294,
        "duration": 1.412,
        "velocity": 0.79,
        "hand": "left"
      },
      {
        "midi": 64,
        "time": 146.294,
        "duration": 1.412,
        "velocity": 0.83,
        "hand": "right"
      },
      {
        "midi": 42,
        "time": 146.647,
        "duration": 0.176,
        "velocity": 0.51,
        "hand": "left"
      },
      {
        "midi": 37,
        "time": 147,
        "duration": 0.176,
        "velocity": 0.73,
        "hand": "left"
      },
      {
        "midi": 42,
        "time": 147,
        "duration": 0.176,
        "velocity": 0.58,
        "hand": "left"
      },
      {
        "midi": 35,
        "time": 147.353,
        "duration": 0.176,
        "velocity": 0.58,
        "hand": "left"
      },
      {
        "midi": 42,
        "time": 147.353,
        "duration": 0.176,
        "velocity": 0.51,
        "hand": "left"
      },
      {
        "midi": 35,
        "time": 147.706,
        "duration": 0.176,
        "velocity": 0.73,
        "hand": "left"
      },
      {
        "midi": 42,
        "time": 147.706,
        "duration": 0.176,
        "velocity": 0.65,
        "hand": "left"
      },
      {
        "midi": 35,
        "time": 148.059,
        "duration": 0.176,
        "velocity": 0.58,
        "hand": "left"
      },
      {
        "midi": 42,
        "time": 148.059,
        "duration": 0.176,
        "velocity": 0.51,
        "hand": "left"
      },
      {
        "midi": 37,
        "time": 148.412,
        "duration": 0.176,
        "velocity": 0.73,
        "hand": "left"
      },
      {
        "midi": 42,
        "time": 148.412,
        "duration": 0.176,
        "velocity": 0.58,
        "hand": "left"
      },
      {
        "midi": 35,
        "time": 148.765,
        "duration": 0.176,
        "velocity": 0.58,
        "hand": "left"
      },
      {
        "midi": 42,
        "time": 148.765,
        "duration": 0.176,
        "velocity": 0.51,
        "hand": "left"
      },
      {
        "midi": 35,
        "time": 149.118,
        "duration": 0.176,
        "velocity": 0.73,
        "hand": "left"
      },
      {
        "midi": 50,
        "time": 149.118,
        "duration": 0.529,
        "velocity": 0.79,
        "hand": "left"
      },
      {
        "midi": 66,
        "time": 149.118,
        "duration": 0.529,
        "velocity": 0.83,
        "hand": "right"
      },
      {
        "midi": 42,
        "time": 149.471,
        "duration": 0.176,
        "velocity": 0.51,
        "hand": "left"
      },
      {
        "midi": 37,
        "time": 149.824,
        "duration": 0.176,
        "velocity": 0.73,
        "hand": "left"
      },
      {
        "midi": 50,
        "time": 149.824,
        "duration": 0.353,
        "velocity": 0.79,
        "hand": "left"
      },
      {
        "midi": 66,
        "time": 149.824,
        "duration": 0.353,
        "velocity": 0.83,
        "hand": "right"
      },
      {
        "midi": 35,
        "time": 150.176,
        "duration": 0.176,
        "velocity": 0.58,
        "hand": "left"
      },
      {
        "midi": 42,
        "time": 150.176,
        "duration": 0.176,
        "velocity": 0.51,
        "hand": "left"
      },
      {
        "midi": 38,
        "time": 150.353,
        "duration": 0.176,
        "velocity": 0.86,
        "hand": "left"
      },
      {
        "midi": 56,
        "time": 150.353,
        "duration": 0.176,
        "velocity": 0.79,
        "hand": "left"
      },
      {
        "midi": 65,
        "time": 150.353,
        "duration": 0.176,
        "velocity": 0.83,
        "hand": "right"
      },
      {
        "midi": 35,
        "time": 150.529,
        "duration": 0.176,
        "velocity": 0.73,
        "hand": "left"
      },
      {
        "midi": 50,
        "time": 150.529,
        "duration": 0.529,
        "velocity": 0.79,
        "hand": "left"
      },
      {
        "midi": 66,
        "time": 150.529,
        "duration": 0.529,
        "velocity": 0.83,
        "hand": "right"
      },
      {
        "midi": 42,
        "time": 150.882,
        "duration": 0.176,
        "velocity": 0.51,
        "hand": "left"
      },
      {
        "midi": 37,
        "time": 151.235,
        "duration": 0.176,
        "velocity": 0.73,
        "hand": "left"
      },
      {
        "midi": 50,
        "time": 151.235,
        "duration": 0.353,
        "velocity": 0.79,
        "hand": "left"
      },
      {
        "midi": 66,
        "time": 151.235,
        "duration": 0.353,
        "velocity": 0.83,
        "hand": "right"
      },
      {
        "midi": 35,
        "time": 151.588,
        "duration": 0.176,
        "velocity": 0.58,
        "hand": "left"
      },
      {
        "midi": 42,
        "time": 151.588,
        "duration": 0.176,
        "velocity": 0.51,
        "hand": "left"
      },
      {
        "midi": 38,
        "time": 151.765,
        "duration": 0.176,
        "velocity": 0.86,
        "hand": "left"
      },
      {
        "midi": 57,
        "time": 151.765,
        "duration": 0.176,
        "velocity": 0.79,
        "hand": "left"
      },
      {
        "midi": 67,
        "time": 151.765,
        "duration": 0.176,
        "velocity": 0.83,
        "hand": "right"
      },
      {
        "midi": 35,
        "time": 151.941,
        "duration": 0.176,
        "velocity": 0.73,
        "hand": "left"
      },
      {
        "midi": 50,
        "time": 151.941,
        "duration": 0.882,
        "velocity": 0.79,
        "hand": "left"
      },
      {
        "midi": 69,
        "time": 151.941,
        "duration": 0.882,
        "velocity": 0.83,
        "hand": "right"
      },
      {
        "midi": 42,
        "time": 152.294,
        "duration": 0.176,
        "velocity": 0.51,
        "hand": "left"
      },
      {
        "midi": 37,
        "time": 152.647,
        "duration": 0.176,
        "velocity": 0.73,
        "hand": "left"
      },
      {
        "midi": 42,
        "time": 152.647,
        "duration": 0.176,
        "velocity": 0.58,
        "hand": "left"
      },
      {
        "midi": 35,
        "time": 153,
        "duration": 0.176,
        "velocity": 0.58,
        "hand": "left"
      },
      {
        "midi": 42,
        "time": 153,
        "duration": 0.176,
        "velocity": 0.51,
        "hand": "left"
      },
      {
        "midi": 35,
        "time": 153.353,
        "duration": 0.176,
        "velocity": 0.73,
        "hand": "left"
      },
      {
        "midi": 50,
        "time": 153.353,
        "duration": 0.529,
        "velocity": 0.79,
        "hand": "left"
      },
      {
        "midi": 69,
        "time": 153.353,
        "duration": 0.529,
        "velocity": 0.83,
        "hand": "right"
      },
      {
        "midi": 35,
        "time": 153.706,
        "duration": 0.176,
        "velocity": 0.58,
        "hand": "left"
      },
      {
        "midi": 42,
        "time": 153.706,
        "duration": 0.176,
        "velocity": 0.51,
        "hand": "left"
      },
      {
        "midi": 37,
        "time": 154.059,
        "duration": 0.176,
        "velocity": 0.73,
        "hand": "left"
      },
      {
        "midi": 50,
        "time": 154.059,
        "duration": 0.353,
        "velocity": 0.79,
        "hand": "left"
      },
      {
        "midi": 69,
        "time": 154.059,
        "duration": 0.353,
        "velocity": 0.83,
        "hand": "right"
      },
      {
        "midi": 35,
        "time": 154.412,
        "duration": 0.176,
        "velocity": 0.58,
        "hand": "left"
      },
      {
        "midi": 42,
        "time": 154.412,
        "duration": 0.176,
        "velocity": 0.51,
        "hand": "left"
      },
      {
        "midi": 38,
        "time": 154.588,
        "duration": 0.176,
        "velocity": 0.86,
        "hand": "left"
      },
      {
        "midi": 57,
        "time": 154.588,
        "duration": 0.176,
        "velocity": 0.79,
        "hand": "left"
      },
      {
        "midi": 66,
        "time": 154.588,
        "duration": 0.176,
        "velocity": 0.83,
        "hand": "right"
      },
      {
        "midi": 35,
        "time": 154.765,
        "duration": 0.176,
        "velocity": 0.73,
        "hand": "left"
      },
      {
        "midi": 55,
        "time": 154.765,
        "duration": 0.529,
        "velocity": 0.79,
        "hand": "left"
      },
      {
        "midi": 64,
        "time": 154.765,
        "duration": 0.529,
        "velocity": 0.83,
        "hand": "right"
      },
      {
        "midi": 42,
        "time": 155.118,
        "duration": 0.176,
        "velocity": 0.51,
        "hand": "left"
      },
      {
        "midi": 37,
        "time": 155.471,
        "duration": 0.176,
        "velocity": 0.73,
        "hand": "left"
      },
      {
        "midi": 55,
        "time": 155.471,
        "duration": 0.176,
        "velocity": 0.79,
        "hand": "left"
      },
      {
        "midi": 64,
        "time": 155.471,
        "duration": 0.176,
        "velocity": 0.83,
        "hand": "right"
      },
      {
        "midi": 35,
        "time": 155.824,
        "duration": 0.176,
        "velocity": 0.58,
        "hand": "left"
      },
      {
        "midi": 55,
        "time": 155.824,
        "duration": 0.176,
        "velocity": 0.79,
        "hand": "left"
      },
      {
        "midi": 64,
        "time": 155.824,
        "duration": 0.176,
        "velocity": 0.83,
        "hand": "right"
      },
      {
        "midi": 35,
        "time": 156.176,
        "duration": 0.176,
        "velocity": 0.73,
        "hand": "left"
      },
      {
        "midi": 57,
        "time": 156.176,
        "duration": 0.529,
        "velocity": 0.79,
        "hand": "left"
      },
      {
        "midi": 64,
        "time": 156.176,
        "duration": 0.529,
        "velocity": 0.83,
        "hand": "right"
      },
      {
        "midi": 42,
        "time": 156.529,
        "duration": 0.176,
        "velocity": 0.51,
        "hand": "left"
      },
      {
        "midi": 33,
        "time": 156.882,
        "duration": 0.353,
        "velocity": 0.86,
        "hand": "left"
      },
      {
        "midi": 45,
        "time": 156.882,
        "duration": 0.353,
        "velocity": 0.79,
        "hand": "left"
      },
      {
        "midi": 66,
        "time": 156.882,
        "duration": 0.353,
        "velocity": 0.83,
        "hand": "right"
      },
      {
        "midi": 35,
        "time": 157.235,
        "duration": 0.176,
        "velocity": 0.58,
        "hand": "left"
      },
      {
        "midi": 42,
        "time": 157.235,
        "duration": 0.176,
        "velocity": 0.51,
        "hand": "left"
      },
      {
        "midi": 33,
        "time": 157.412,
        "duration": 0.176,
        "velocity": 0.86,
        "hand": "left"
      },
      {
        "midi": 55,
        "time": 157.412,
        "duration": 0.176,
        "velocity": 0.79,
        "hand": "left"
      },
      {
        "midi": 64,
        "time": 157.412,
        "duration": 0.176,
        "velocity": 0.83,
        "hand": "right"
      },
      {
        "midi": 35,
        "time": 157.588,
        "duration": 0.176,
        "velocity": 0.73,
        "hand": "left"
      },
      {
        "midi": 42,
        "time": 157.588,
        "duration": 0.176,
        "velocity": 0.65,
        "hand": "left"
      },
      {
        "midi": 62,
        "time": 157.588,
        "duration": 1.412,
        "velocity": 0.83,
        "hand": "right"
      },
      {
        "midi": 42,
        "time": 157.941,
        "duration": 0.176,
        "velocity": 0.51,
        "hand": "left"
      },
      {
        "midi": 37,
        "time": 158.294,
        "duration": 0.176,
        "velocity": 0.73,
        "hand": "left"
      },
      {
        "midi": 42,
        "time": 158.294,
        "duration": 0.176,
        "velocity": 0.58,
        "hand": "left"
      },
      {
        "midi": 35,
        "time": 158.647,
        "duration": 0.176,
        "velocity": 0.58,
        "hand": "left"
      },
      {
        "midi": 42,
        "time": 158.647,
        "duration": 0.176,
        "velocity": 0.51,
        "hand": "left"
      },
      {
        "midi": 35,
        "time": 159,
        "duration": 0.176,
        "velocity": 0.73,
        "hand": "left"
      },
      {
        "midi": 42,
        "time": 159,
        "duration": 0.176,
        "velocity": 0.65,
        "hand": "left"
      },
      {
        "midi": 38,
        "time": 159.353,
        "duration": 0.176,
        "velocity": 0.65,
        "hand": "left"
      },
      {
        "midi": 38,
        "time": 159.706,
        "duration": 0.176,
        "velocity": 0.73,
        "hand": "left"
      },
      {
        "midi": 35,
        "time": 160.059,
        "duration": 0.176,
        "velocity": 0.58,
        "hand": "left"
      },
      {
        "midi": 38,
        "time": 160.059,
        "duration": 0.176,
        "velocity": 0.83,
        "hand": "left"
      },
      {
        "midi": 38,
        "time": 160.235,
        "duration": 0.176,
        "velocity": 0.65,
        "hand": "left"
      },
      {
        "midi": 35,
        "time": 160.412,
        "duration": 0.176,
        "velocity": 0.73,
        "hand": "left"
      },
      {
        "midi": 50,
        "time": 160.412,
        "duration": 0.529,
        "velocity": 0.86,
        "hand": "left"
      },
      {
        "midi": 71,
        "time": 160.412,
        "duration": 0.529,
        "velocity": 0.83,
        "hand": "right"
      },
      {
        "midi": 42,
        "time": 160.765,
        "duration": 0.176,
        "velocity": 0.51,
        "hand": "left"
      },
      {
        "midi": 37,
        "time": 161.118,
        "duration": 0.176,
        "velocity": 0.73,
        "hand": "left"
      },
      {
        "midi": 55,
        "time": 161.118,
        "duration": 0.353,
        "velocity": 0.79,
        "hand": "left"
      },
      {
        "midi": 71,
        "time": 161.118,
        "duration": 0.353,
        "velocity": 0.83,
        "hand": "right"
      },
      {
        "midi": 35,
        "time": 161.471,
        "duration": 0.176,
        "velocity": 0.58,
        "hand": "left"
      },
      {
        "midi": 42,
        "time": 161.471,
        "duration": 0.176,
        "velocity": 0.51,
        "hand": "left"
      },
      {
        "midi": 43,
        "time": 161.647,
        "duration": 0.176,
        "velocity": 0.86,
        "hand": "left"
      },
      {
        "midi": 62,
        "time": 161.647,
        "duration": 0.176,
        "velocity": 0.79,
        "hand": "right"
      },
      {
        "midi": 71,
        "time": 161.647,
        "duration": 0.176,
        "velocity": 0.83,
        "hand": "right"
      },
      {
        "midi": 35,
        "time": 161.824,
        "duration": 0.176,
        "velocity": 0.73,
        "hand": "left"
      },
      {
        "midi": 55,
        "time": 161.824,
        "duration": 0.529,
        "velocity": 0.79,
        "hand": "left"
      },
      {
        "midi": 71,
        "time": 161.824,
        "duration": 0.529,
        "velocity": 0.83,
        "hand": "right"
      },
      {
        "midi": 42,
        "time": 162.176,
        "duration": 0.176,
        "velocity": 0.51,
        "hand": "left"
      },
      {
        "midi": 37,
        "time": 162.529,
        "duration": 0.176,
        "velocity": 0.73,
        "hand": "left"
      },
      {
        "midi": 55,
        "time": 162.529,
        "duration": 0.353,
        "velocity": 0.79,
        "hand": "left"
      },
      {
        "midi": 71,
        "time": 162.529,
        "duration": 0.353,
        "velocity": 0.83,
        "hand": "right"
      },
      {
        "midi": 35,
        "time": 162.882,
        "duration": 0.176,
        "velocity": 0.58,
        "hand": "left"
      },
      {
        "midi": 42,
        "time": 162.882,
        "duration": 0.176,
        "velocity": 0.51,
        "hand": "left"
      },
      {
        "midi": 43,
        "time": 163.059,
        "duration": 0.176,
        "velocity": 0.86,
        "hand": "left"
      },
      {
        "midi": 59,
        "time": 163.059,
        "duration": 0.176,
        "velocity": 0.79,
        "hand": "left"
      },
      {
        "midi": 67,
        "time": 163.059,
        "duration": 0.176,
        "velocity": 0.83,
        "hand": "right"
      },
      {
        "midi": 35,
        "time": 163.235,
        "duration": 0.176,
        "velocity": 0.73,
        "hand": "left"
      },
      {
        "midi": 50,
        "time": 163.235,
        "duration": 0.882,
        "velocity": 0.79,
        "hand": "left"
      },
      {
        "midi": 66,
        "time": 163.235,
        "duration": 0.882,
        "velocity": 0.83,
        "hand": "right"
      },
      {
        "midi": 42,
        "time": 163.588,
        "duration": 0.176,
        "velocity": 0.51,
        "hand": "left"
      },
      {
        "midi": 37,
        "time": 163.941,
        "duration": 0.176,
        "velocity": 0.73,
        "hand": "left"
      },
      {
        "midi": 42,
        "time": 163.941,
        "duration": 0.176,
        "velocity": 0.58,
        "hand": "left"
      },
      {
        "midi": 35,
        "time": 164.294,
        "duration": 0.176,
        "velocity": 0.58,
        "hand": "left"
      },
      {
        "midi": 42,
        "time": 164.294,
        "duration": 0.176,
        "velocity": 0.51,
        "hand": "left"
      },
      {
        "midi": 35,
        "time": 164.647,
        "duration": 0.176,
        "velocity": 0.73,
        "hand": "left"
      },
      {
        "midi": 50,
        "time": 164.647,
        "duration": 0.529,
        "velocity": 0.79,
        "hand": "left"
      },
      {
        "midi": 69,
        "time": 164.647,
        "duration": 0.529,
        "velocity": 0.83,
        "hand": "right"
      },
      {
        "midi": 42,
        "time": 165,
        "duration": 0.176,
        "velocity": 0.51,
        "hand": "left"
      },
      {
        "midi": 37,
        "time": 165.353,
        "duration": 0.176,
        "velocity": 0.73,
        "hand": "left"
      },
      {
        "midi": 42,
        "time": 165.353,
        "duration": 0.176,
        "velocity": 0.58,
        "hand": "left"
      },
      {
        "midi": 35,
        "time": 165.706,
        "duration": 0.176,
        "velocity": 0.58,
        "hand": "left"
      },
      {
        "midi": 42,
        "time": 165.706,
        "duration": 0.176,
        "velocity": 0.51,
        "hand": "left"
      },
      {
        "midi": 35,
        "time": 166.059,
        "duration": 0.176,
        "velocity": 0.73,
        "hand": "left"
      },
      {
        "midi": 55,
        "time": 166.059,
        "duration": 0.529,
        "velocity": 0.79,
        "hand": "left"
      },
      {
        "midi": 71,
        "time": 166.059,
        "duration": 0.529,
        "velocity": 0.83,
        "hand": "right"
      },
      {
        "midi": 42,
        "time": 166.412,
        "duration": 0.176,
        "velocity": 0.51,
        "hand": "left"
      },
      {
        "midi": 37,
        "time": 166.765,
        "duration": 0.176,
        "velocity": 0.73,
        "hand": "left"
      },
      {
        "midi": 55,
        "time": 166.765,
        "duration": 0.353,
        "velocity": 0.79,
        "hand": "left"
      },
      {
        "midi": 71,
        "time": 166.765,
        "duration": 0.353,
        "velocity": 0.83,
        "hand": "right"
      },
      {
        "midi": 35,
        "time": 167.118,
        "duration": 0.176,
        "velocity": 0.58,
        "hand": "left"
      },
      {
        "midi": 42,
        "time": 167.118,
        "duration": 0.176,
        "velocity": 0.51,
        "hand": "left"
      },
      {
        "midi": 43,
        "time": 167.294,
        "duration": 0.176,
        "velocity": 0.86,
        "hand": "left"
      },
      {
        "midi": 62,
        "time": 167.294,
        "duration": 0.176,
        "velocity": 0.79,
        "hand": "right"
      },
      {
        "midi": 71,
        "time": 167.294,
        "duration": 0.176,
        "velocity": 0.83,
        "hand": "right"
      },
      {
        "midi": 35,
        "time": 167.471,
        "duration": 0.176,
        "velocity": 0.73,
        "hand": "left"
      },
      {
        "midi": 52,
        "time": 167.471,
        "duration": 0.176,
        "velocity": 0.79,
        "hand": "left"
      },
      {
        "midi": 71,
        "time": 167.471,
        "duration": 0.176,
        "velocity": 0.83,
        "hand": "right"
      },
      {
        "midi": 40,
        "time": 167.824,
        "duration": 0.176,
        "velocity": 0.86,
        "hand": "left"
      },
      {
        "midi": 52,
        "time": 167.824,
        "duration": 0.176,
        "velocity": 0.79,
        "hand": "left"
      },
      {
        "midi": 74,
        "time": 167.824,
        "duration": 0.176,
        "velocity": 0.83,
        "hand": "right"
      },
      {
        "midi": 37,
        "time": 168.176,
        "duration": 0.176,
        "velocity": 0.73,
        "hand": "left"
      },
      {
        "midi": 52,
        "time": 168.176,
        "duration": 0.176,
        "velocity": 0.79,
        "hand": "left"
      },
      {
        "midi": 73,
        "time": 168.176,
        "duration": 0.176,
        "velocity": 0.83,
        "hand": "right"
      },
      {
        "midi": 35,
        "time": 168.529,
        "duration": 0.176,
        "velocity": 0.58,
        "hand": "left"
      },
      {
        "midi": 52,
        "time": 168.529,
        "duration": 0.176,
        "velocity": 0.79,
        "hand": "left"
      },
      {
        "midi": 71,
        "time": 168.529,
        "duration": 0.176,
        "velocity": 0.83,
        "hand": "right"
      },
      {
        "midi": 33,
        "time": 168.882,
        "duration": 1.412,
        "velocity": 0.86,
        "hand": "left"
      },
      {
        "midi": 57,
        "time": 168.882,
        "duration": 1.412,
        "velocity": 0.79,
        "hand": "left"
      },
      {
        "midi": 69,
        "time": 168.882,
        "duration": 1.412,
        "velocity": 0.86,
        "hand": "right"
      },
      {
        "midi": 42,
        "time": 169.235,
        "duration": 0.176,
        "velocity": 0.51,
        "hand": "left"
      },
      {
        "midi": 37,
        "time": 169.588,
        "duration": 0.176,
        "velocity": 0.73,
        "hand": "left"
      },
      {
        "midi": 42,
        "time": 169.588,
        "duration": 0.176,
        "velocity": 0.58,
        "hand": "left"
      },
      {
        "midi": 35,
        "time": 169.941,
        "duration": 0.176,
        "velocity": 0.58,
        "hand": "left"
      },
      {
        "midi": 42,
        "time": 169.941,
        "duration": 0.176,
        "velocity": 0.51,
        "hand": "left"
      },
      {
        "midi": 35,
        "time": 170.294,
        "duration": 0.176,
        "velocity": 0.73,
        "hand": "left"
      },
      {
        "midi": 42,
        "time": 170.294,
        "duration": 0.176,
        "velocity": 0.65,
        "hand": "left"
      },
      {
        "midi": 67,
        "time": 170.294,
        "duration": 0.529,
        "velocity": 0.83,
        "hand": "right"
      },
      {
        "midi": 42,
        "time": 170.647,
        "duration": 0.176,
        "velocity": 0.51,
        "hand": "left"
      },
      {
        "midi": 37,
        "time": 171,
        "duration": 0.176,
        "velocity": 0.73,
        "hand": "left"
      },
      {
        "midi": 42,
        "time": 171,
        "duration": 0.176,
        "velocity": 0.58,
        "hand": "left"
      },
      {
        "midi": 35,
        "time": 171.353,
        "duration": 0.176,
        "velocity": 0.58,
        "hand": "left"
      },
      {
        "midi": 42,
        "time": 171.353,
        "duration": 0.176,
        "velocity": 0.51,
        "hand": "left"
      },
      {
        "midi": 35,
        "time": 171.706,
        "duration": 0.176,
        "velocity": 0.73,
        "hand": "left"
      },
      {
        "midi": 50,
        "time": 171.706,
        "duration": 0.529,
        "velocity": 0.79,
        "hand": "left"
      },
      {
        "midi": 66,
        "time": 171.706,
        "duration": 0.529,
        "velocity": 0.83,
        "hand": "right"
      },
      {
        "midi": 42,
        "time": 172.059,
        "duration": 0.176,
        "velocity": 0.51,
        "hand": "left"
      },
      {
        "midi": 37,
        "time": 172.412,
        "duration": 0.176,
        "velocity": 0.73,
        "hand": "left"
      },
      {
        "midi": 50,
        "time": 172.412,
        "duration": 0.353,
        "velocity": 0.79,
        "hand": "left"
      },
      {
        "midi": 66,
        "time": 172.412,
        "duration": 0.353,
        "velocity": 0.83,
        "hand": "right"
      },
      {
        "midi": 35,
        "time": 172.765,
        "duration": 0.176,
        "velocity": 0.58,
        "hand": "left"
      },
      {
        "midi": 42,
        "time": 172.765,
        "duration": 0.176,
        "velocity": 0.51,
        "hand": "left"
      },
      {
        "midi": 38,
        "time": 172.941,
        "duration": 0.176,
        "velocity": 0.86,
        "hand": "left"
      },
      {
        "midi": 56,
        "time": 172.941,
        "duration": 0.176,
        "velocity": 0.79,
        "hand": "left"
      },
      {
        "midi": 65,
        "time": 172.941,
        "duration": 0.176,
        "velocity": 0.83,
        "hand": "right"
      },
      {
        "midi": 35,
        "time": 173.118,
        "duration": 0.176,
        "velocity": 0.73,
        "hand": "left"
      },
      {
        "midi": 50,
        "time": 173.118,
        "duration": 0.529,
        "velocity": 0.79,
        "hand": "left"
      },
      {
        "midi": 66,
        "time": 173.118,
        "duration": 0.529,
        "velocity": 0.83,
        "hand": "right"
      },
      {
        "midi": 42,
        "time": 173.471,
        "duration": 0.176,
        "velocity": 0.51,
        "hand": "left"
      },
      {
        "midi": 37,
        "time": 173.824,
        "duration": 0.176,
        "velocity": 0.73,
        "hand": "left"
      },
      {
        "midi": 50,
        "time": 173.824,
        "duration": 0.353,
        "velocity": 0.79,
        "hand": "left"
      },
      {
        "midi": 66,
        "time": 173.824,
        "duration": 0.353,
        "velocity": 0.83,
        "hand": "right"
      },
      {
        "midi": 35,
        "time": 174.176,
        "duration": 0.176,
        "velocity": 0.58,
        "hand": "left"
      },
      {
        "midi": 42,
        "time": 174.176,
        "duration": 0.176,
        "velocity": 0.51,
        "hand": "left"
      },
      {
        "midi": 38,
        "time": 174.353,
        "duration": 0.176,
        "velocity": 0.86,
        "hand": "left"
      },
      {
        "midi": 57,
        "time": 174.353,
        "duration": 0.176,
        "velocity": 0.79,
        "hand": "left"
      },
      {
        "midi": 67,
        "time": 174.353,
        "duration": 0.176,
        "velocity": 0.83,
        "hand": "right"
      },
      {
        "midi": 35,
        "time": 174.529,
        "duration": 0.176,
        "velocity": 0.73,
        "hand": "left"
      },
      {
        "midi": 50,
        "time": 174.529,
        "duration": 0.882,
        "velocity": 0.79,
        "hand": "left"
      },
      {
        "midi": 69,
        "time": 174.529,
        "duration": 0.882,
        "velocity": 0.83,
        "hand": "right"
      },
      {
        "midi": 42,
        "time": 174.882,
        "duration": 0.176,
        "velocity": 0.51,
        "hand": "left"
      },
      {
        "midi": 37,
        "time": 175.059,
        "duration": 0.176,
        "velocity": 0.73,
        "hand": "left"
      },
      {
        "midi": 42,
        "time": 175.059,
        "duration": 0.176,
        "velocity": 0.58,
        "hand": "left"
      },
      {
        "midi": 35,
        "time": 175.412,
        "duration": 0.176,
        "velocity": 0.58,
        "hand": "left"
      },
      {
        "midi": 42,
        "time": 175.412,
        "duration": 0.176,
        "velocity": 0.51,
        "hand": "left"
      },
      {
        "midi": 35,
        "time": 175.765,
        "duration": 0.176,
        "velocity": 0.73,
        "hand": "left"
      },
      {
        "midi": 50,
        "time": 175.765,
        "duration": 0.529,
        "velocity": 0.79,
        "hand": "left"
      },
      {
        "midi": 69,
        "time": 175.765,
        "duration": 0.529,
        "velocity": 0.83,
        "hand": "right"
      },
      {
        "midi": 42,
        "time": 176.118,
        "duration": 0.176,
        "velocity": 0.51,
        "hand": "left"
      },
      {
        "midi": 37,
        "time": 176.471,
        "duration": 0.176,
        "velocity": 0.73,
        "hand": "left"
      },
      {
        "midi": 50,
        "time": 176.471,
        "duration": 0.353,
        "velocity": 0.79,
        "hand": "left"
      },
      {
        "midi": 69,
        "time": 176.471,
        "duration": 0.353,
        "velocity": 0.83,
        "hand": "right"
      },
      {
        "midi": 35,
        "time": 176.824,
        "duration": 0.176,
        "velocity": 0.58,
        "hand": "left"
      },
      {
        "midi": 42,
        "time": 176.824,
        "duration": 0.176,
        "velocity": 0.51,
        "hand": "left"
      },
      {
        "midi": 38,
        "time": 177,
        "duration": 0.176,
        "velocity": 0.86,
        "hand": "left"
      },
      {
        "midi": 57,
        "time": 177,
        "duration": 0.176,
        "velocity": 0.79,
        "hand": "left"
      },
      {
        "midi": 66,
        "time": 177,
        "duration": 0.176,
        "velocity": 0.83,
        "hand": "right"
      },
      {
        "midi": 35,
        "time": 177.176,
        "duration": 0.176,
        "velocity": 0.73,
        "hand": "left"
      },
      {
        "midi": 55,
        "time": 177.176,
        "duration": 0.529,
        "velocity": 0.79,
        "hand": "left"
      },
      {
        "midi": 64,
        "time": 177.176,
        "duration": 0.529,
        "velocity": 0.83,
        "hand": "right"
      },
      {
        "midi": 42,
        "time": 177.529,
        "duration": 0.176,
        "velocity": 0.51,
        "hand": "left"
      },
      {
        "midi": 37,
        "time": 177.882,
        "duration": 0.176,
        "velocity": 0.73,
        "hand": "left"
      },
      {
        "midi": 47,
        "time": 177.882,
        "duration": 0.353,
        "velocity": 0.86,
        "hand": "left"
      },
      {
        "midi": 62,
        "time": 177.882,
        "duration": 0.353,
        "velocity": 0.83,
        "hand": "right"
      },
      {
        "midi": 64,
        "time": 178.059,
        "duration": 0.353,
        "velocity": 0.83,
        "hand": "right"
      },
      {
        "midi": 35,
        "time": 178.235,
        "duration": 0.176,
        "velocity": 0.58,
        "hand": "left"
      },
      {
        "midi": 42,
        "time": 178.235,
        "duration": 0.176,
        "velocity": 0.51,
        "hand": "left"
      },
      {
        "midi": 43,
        "time": 178.412,
        "duration": 0.176,
        "velocity": 0.86,
        "hand": "left"
      },
      {
        "midi": 59,
        "time": 178.412,
        "duration": 0.176,
        "velocity": 0.79,
        "hand": "left"
      },
      {
        "midi": 64,
        "time": 178.412,
        "duration": 0.176,
        "velocity": 0.83,
        "hand": "right"
      },
      {
        "midi": 35,
        "time": 178.588,
        "duration": 0.176,
        "velocity": 0.73,
        "hand": "left"
      },
      {
        "midi": 57,
        "time": 178.588,
        "duration": 0.529,
        "velocity": 0.79,
        "hand": "left"
      },
      {
        "midi": 64,
        "time": 178.588,
        "duration": 0.529,
        "velocity": 0.83,
        "hand": "right"
      },
      {
        "midi": 35,
        "time": 178.941,
        "duration": 0.176,
        "velocity": 0.65,
        "hand": "left"
      },
      {
        "midi": 42,
        "time": 178.941,
        "duration": 0.176,
        "velocity": 0.51,
        "hand": "left"
      },
      {
        "midi": 33,
        "time": 179.294,
        "duration": 0.353,
        "velocity": 0.86,
        "hand": "left"
      },
      {
        "midi": 45,
        "time": 179.294,
        "duration": 0.353,
        "velocity": 0.79,
        "hand": "left"
      },
      {
        "midi": 66,
        "time": 179.294,
        "duration": 0.353,
        "velocity": 0.83,
        "hand": "right"
      },
      {
        "midi": 35,
        "time": 179.647,
        "duration": 0.176,
        "velocity": 0.58,
        "hand": "left"
      },
      {
        "midi": 38,
        "time": 179.647,
        "duration": 0.176,
        "velocity": 0.83,
        "hand": "left"
      },
      {
        "midi": 46,
        "time": 179.647,
        "duration": 0.176,
        "velocity": 0.65,
        "hand": "left"
      },
      {
        "midi": 33,
        "time": 179.824,
        "duration": 0.176,
        "velocity": 0.86,
        "hand": "left"
      },
      {
        "midi": 55,
        "time": 179.824,
        "duration": 0.176,
        "velocity": 0.79,
        "hand": "left"
      },
      {
        "midi": 64,
        "time": 179.824,
        "duration": 0.176,
        "velocity": 0.83,
        "hand": "right"
      },
      {
        "midi": 35,
        "time": 180,
        "duration": 0.176,
        "velocity": 0.73,
        "hand": "left"
      },
      {
        "midi": 42,
        "time": 180,
        "duration": 0.176,
        "velocity": 0.65,
        "hand": "left"
      },
      {
        "midi": 62,
        "time": 180,
        "duration": 1.412,
        "velocity": 0.83,
        "hand": "right"
      },
      {
        "midi": 42,
        "time": 180.353,
        "duration": 0.176,
        "velocity": 0.51,
        "hand": "left"
      },
      {
        "midi": 37,
        "time": 180.706,
        "duration": 0.176,
        "velocity": 0.73,
        "hand": "left"
      },
      {
        "midi": 42,
        "time": 180.706,
        "duration": 0.176,
        "velocity": 0.58,
        "hand": "left"
      },
      {
        "midi": 35,
        "time": 181.059,
        "duration": 0.176,
        "velocity": 0.58,
        "hand": "left"
      },
      {
        "midi": 42,
        "time": 181.059,
        "duration": 0.176,
        "velocity": 0.51,
        "hand": "left"
      },
      {
        "midi": 35,
        "time": 181.412,
        "duration": 0.176,
        "velocity": 0.73,
        "hand": "left"
      },
      {
        "midi": 42,
        "time": 181.412,
        "duration": 0.176,
        "velocity": 0.65,
        "hand": "left"
      },
      {
        "midi": 35,
        "time": 181.765,
        "duration": 0.176,
        "velocity": 0.65,
        "hand": "left"
      },
      {
        "midi": 42,
        "time": 181.765,
        "duration": 0.176,
        "velocity": 0.51,
        "hand": "left"
      },
      {
        "midi": 38,
        "time": 182.118,
        "duration": 0.176,
        "velocity": 0.69,
        "hand": "left"
      },
      {
        "midi": 42,
        "time": 182.118,
        "duration": 0.176,
        "velocity": 0.58,
        "hand": "left"
      },
      {
        "midi": 35,
        "time": 182.471,
        "duration": 0.176,
        "velocity": 0.58,
        "hand": "left"
      },
      {
        "midi": 38,
        "time": 182.471,
        "duration": 0.176,
        "velocity": 0.83,
        "hand": "left"
      },
      {
        "midi": 46,
        "time": 182.471,
        "duration": 0.176,
        "velocity": 0.65,
        "hand": "left"
      },
      {
        "midi": 35,
        "time": 182.824,
        "duration": 0.176,
        "velocity": 0.73,
        "hand": "left"
      },
      {
        "midi": 50,
        "time": 182.824,
        "duration": 0.176,
        "velocity": 0.79,
        "hand": "left"
      },
      {
        "midi": 69,
        "time": 182.824,
        "duration": 1.588,
        "velocity": 0.83,
        "hand": "right"
      },
      {
        "midi": 38,
        "time": 183,
        "duration": 0.353,
        "velocity": 0.86,
        "hand": "left"
      },
      {
        "midi": 62,
        "time": 183,
        "duration": 0.353,
        "velocity": 0.79,
        "hand": "right"
      },
      {
        "midi": 66,
        "time": 183,
        "duration": 0.353,
        "velocity": 0.83,
        "hand": "right"
      },
      {
        "midi": 42,
        "time": 183.176,
        "duration": 0.176,
        "velocity": 0.51,
        "hand": "left"
      },
      {
        "midi": 42,
        "time": 183.353,
        "duration": 0.176,
        "velocity": 0.43,
        "hand": "left"
      },
      {
        "midi": 38,
        "time": 183.529,
        "duration": 0.353,
        "velocity": 0.86,
        "hand": "left"
      },
      {
        "midi": 50,
        "time": 183.529,
        "duration": 0.353,
        "velocity": 0.79,
        "hand": "left"
      },
      {
        "midi": 66,
        "time": 183.529,
        "duration": 0.353,
        "velocity": 0.83,
        "hand": "right"
      },
      {
        "midi": 42,
        "time": 183.882,
        "duration": 0.176,
        "velocity": 0.51,
        "hand": "left"
      },
      {
        "midi": 35,
        "time": 184.059,
        "duration": 0.176,
        "velocity": 0.58,
        "hand": "left"
      },
      {
        "midi": 50,
        "time": 184.059,
        "duration": 0.176,
        "velocity": 0.79,
        "hand": "left"
      },
      {
        "midi": 66,
        "time": 184.059,
        "duration": 0.176,
        "velocity": 0.83,
        "hand": "right"
      },
      {
        "midi": 35,
        "time": 184.235,
        "duration": 0.176,
        "velocity": 0.73,
        "hand": "left"
      },
      {
        "midi": 50,
        "time": 184.235,
        "duration": 0.529,
        "velocity": 0.79,
        "hand": "left"
      },
      {
        "midi": 69,
        "time": 184.235,
        "duration": 0.353,
        "velocity": 0.83,
        "hand": "right"
      },
      {
        "midi": 42,
        "time": 184.588,
        "duration": 0.176,
        "velocity": 0.51,
        "hand": "left"
      },
      {
        "midi": 42,
        "time": 184.765,
        "duration": 0.176,
        "velocity": 0.43,
        "hand": "left"
      },
      {
        "midi": 66,
        "time": 184.765,
        "duration": 0.176,
        "velocity": 0.83,
        "hand": "right"
      },
      {
        "midi": 38,
        "time": 184.941,
        "duration": 0.176,
        "velocity": 0.73,
        "hand": "left"
      },
      {
        "midi": 42,
        "time": 184.941,
        "duration": 0.176,
        "velocity": 0.58,
        "hand": "left"
      },
      {
        "midi": 69,
        "time": 184.941,
        "duration": 0.353,
        "velocity": 0.83,
        "hand": "right"
      },
      {
        "midi": 35,
        "time": 185.294,
        "duration": 0.176,
        "velocity": 0.58,
        "hand": "left"
      },
      {
        "midi": 42,
        "time": 185.294,
        "duration": 0.176,
        "velocity": 0.51,
        "hand": "left"
      },
      {
        "midi": 42,
        "time": 185.471,
        "duration": 0.176,
        "velocity": 0.43,
        "hand": "left"
      },
      {
        "midi": 74,
        "time": 185.471,
        "duration": 0.176,
        "velocity": 0.83,
        "hand": "right"
      },
      {
        "midi": 33,
        "time": 185.647,
        "duration": 0.176,
        "velocity": 0.86,
        "hand": "left"
      },
      {
        "midi": 52,
        "time": 185.647,
        "duration": 0.176,
        "velocity": 0.86,
        "hand": "left"
      },
      {
        "midi": 73,
        "time": 185.647,
        "duration": 0.882,
        "velocity": 0.86,
        "hand": "right"
      },
      {
        "midi": 33,
        "time": 185.824,
        "duration": 0.353,
        "velocity": 0.86,
        "hand": "left"
      },
      {
        "midi": 52,
        "time": 185.824,
        "duration": 0.353,
        "velocity": 0.86,
        "hand": "left"
      },
      {
        "midi": 67,
        "time": 185.824,
        "duration": 0.353,
        "velocity": 0.83,
        "hand": "right"
      },
      {
        "midi": 42,
        "time": 186,
        "duration": 0.176,
        "velocity": 0.51,
        "hand": "left"
      },
      {
        "midi": 42,
        "time": 186.176,
        "duration": 0.176,
        "velocity": 0.43,
        "hand": "left"
      },
      {
        "midi": 33,
        "time": 186.353,
        "duration": 0.353,
        "velocity": 0.86,
        "hand": "left"
      },
      {
        "midi": 45,
        "time": 186.353,
        "duration": 0.353,
        "velocity": 0.79,
        "hand": "left"
      },
      {
        "midi": 67,
        "time": 186.353,
        "duration": 0.353,
        "velocity": 0.83,
        "hand": "right"
      },
      {
        "midi": 42,
        "time": 186.706,
        "duration": 0.176,
        "velocity": 0.51,
        "hand": "left"
      },
      {
        "midi": 33,
        "time": 186.882,
        "duration": 0.176,
        "velocity": 0.86,
        "hand": "left"
      },
      {
        "midi": 45,
        "time": 186.882,
        "duration": 0.176,
        "velocity": 0.79,
        "hand": "left"
      },
      {
        "midi": 67,
        "time": 186.882,
        "duration": 0.176,
        "velocity": 0.83,
        "hand": "right"
      },
      {
        "midi": 33,
        "time": 187.059,
        "duration": 0.529,
        "velocity": 0.86,
        "hand": "left"
      },
      {
        "midi": 52,
        "time": 187.059,
        "duration": 0.529,
        "velocity": 0.86,
        "hand": "left"
      },
      {
        "midi": 73,
        "time": 187.059,
        "duration": 0.529,
        "velocity": 0.83,
        "hand": "right"
      },
      {
        "midi": 35,
        "time": 187.412,
        "duration": 0.176,
        "velocity": 0.58,
        "hand": "left"
      },
      {
        "midi": 42,
        "time": 187.412,
        "duration": 0.176,
        "velocity": 0.51,
        "hand": "left"
      },
      {
        "midi": 42,
        "time": 187.588,
        "duration": 0.176,
        "velocity": 0.43,
        "hand": "left"
      },
      {
        "midi": 38,
        "time": 187.765,
        "duration": 0.176,
        "velocity": 0.73,
        "hand": "left"
      },
      {
        "midi": 42,
        "time": 187.765,
        "duration": 0.176,
        "velocity": 0.58,
        "hand": "left"
      },
      {
        "midi": 35,
        "time": 188.118,
        "duration": 0.176,
        "velocity": 0.58,
        "hand": "left"
      },
      {
        "midi": 42,
        "time": 188.118,
        "duration": 0.176,
        "velocity": 0.51,
        "hand": "left"
      },
      {
        "midi": 42,
        "time": 188.294,
        "duration": 0.176,
        "velocity": 0.43,
        "hand": "left"
      },
      {
        "midi": 35,
        "time": 188.471,
        "duration": 0.176,
        "velocity": 0.73,
        "hand": "left"
      },
      {
        "midi": 57,
        "time": 188.471,
        "duration": 0.176,
        "velocity": 0.79,
        "hand": "left"
      },
      {
        "midi": 67,
        "time": 188.471,
        "duration": 1.588,
        "velocity": 0.83,
        "hand": "right"
      },
      {
        "midi": 45,
        "time": 188.647,
        "duration": 0.353,
        "velocity": 0.86,
        "hand": "left"
      },
      {
        "midi": 57,
        "time": 188.647,
        "duration": 0.353,
        "velocity": 0.79,
        "hand": "left"
      },
      {
        "midi": 64,
        "time": 188.647,
        "duration": 0.353,
        "velocity": 0.83,
        "hand": "right"
      },
      {
        "midi": 42,
        "time": 188.824,
        "duration": 0.176,
        "velocity": 0.73,
        "hand": "left"
      },
      {
        "midi": 42,
        "time": 189,
        "duration": 0.176,
        "velocity": 0.43,
        "hand": "left"
      },
      {
        "midi": 38,
        "time": 189.176,
        "duration": 0.176,
        "velocity": 0.73,
        "hand": "left"
      },
      {
        "midi": 49,
        "time": 189.176,
        "duration": 0.353,
        "velocity": 0.86,
        "hand": "left"
      },
      {
        "midi": 64,
        "time": 189.176,
        "duration": 0.353,
        "velocity": 0.83,
        "hand": "right"
      },
      {
        "midi": 42,
        "time": 189.529,
        "duration": 0.176,
        "velocity": 0.51,
        "hand": "left"
      },
      {
        "midi": 35,
        "time": 189.706,
        "duration": 0.176,
        "velocity": 0.58,
        "hand": "left"
      },
      {
        "midi": 49,
        "time": 189.706,
        "duration": 0.176,
        "velocity": 0.86,
        "hand": "left"
      },
      {
        "midi": 64,
        "time": 189.706,
        "duration": 0.176,
        "velocity": 0.83,
        "hand": "right"
      },
      {
        "midi": 35,
        "time": 189.882,
        "duration": 0.176,
        "velocity": 0.73,
        "hand": "left"
      },
      {
        "midi": 57,
        "time": 189.882,
        "duration": 0.529,
        "velocity": 0.79,
        "hand": "left"
      },
      {
        "midi": 67,
        "time": 189.882,
        "duration": 0.353,
        "velocity": 0.83,
        "hand": "right"
      },
      {
        "midi": 42,
        "time": 190.235,
        "duration": 0.176,
        "velocity": 0.73,
        "hand": "left"
      },
      {
        "midi": 42,
        "time": 190.412,
        "duration": 0.176,
        "velocity": 0.43,
        "hand": "left"
      },
      {
        "midi": 64,
        "time": 190.412,
        "duration": 0.176,
        "velocity": 0.83,
        "hand": "right"
      },
      {
        "midi": 38,
        "time": 190.588,
        "duration": 0.176,
        "velocity": 0.73,
        "hand": "left"
      },
      {
        "midi": 42,
        "time": 190.588,
        "duration": 0.176,
        "velocity": 0.58,
        "hand": "left"
      },
      {
        "midi": 67,
        "time": 190.588,
        "duration": 0.353,
        "velocity": 0.83,
        "hand": "right"
      },
      {
        "midi": 35,
        "time": 190.941,
        "duration": 0.176,
        "velocity": 0.58,
        "hand": "left"
      },
      {
        "midi": 42,
        "time": 190.941,
        "duration": 0.176,
        "velocity": 0.51,
        "hand": "left"
      },
      {
        "midi": 42,
        "time": 191.118,
        "duration": 0.176,
        "velocity": 0.43,
        "hand": "left"
      },
      {
        "midi": 71,
        "time": 191.118,
        "duration": 0.176,
        "velocity": 0.83,
        "hand": "right"
      },
      {
        "midi": 35,
        "time": 191.294,
        "duration": 0.176,
        "velocity": 0.73,
        "hand": "left"
      },
      {
        "midi": 50,
        "time": 191.294,
        "duration": 0.176,
        "velocity": 0.79,
        "hand": "left"
      },
      {
        "midi": 69,
        "time": 191.294,
        "duration": 0.882,
        "velocity": 0.83,
        "hand": "right"
      },
      {
        "midi": 38,
        "time": 191.471,
        "duration": 0.353,
        "velocity": 0.86,
        "hand": "left"
      },
      {
        "midi": 50,
        "time": 191.471,
        "duration": 0.353,
        "velocity": 0.79,
        "hand": "left"
      },
      {
        "midi": 62,
        "time": 191.471,
        "duration": 0.353,
        "velocity": 0.79,
        "hand": "right"
      },
      {
        "midi": 42,
        "time": 191.647,
        "duration": 0.176,
        "velocity": 0.51,
        "hand": "left"
      },
      {
        "midi": 42,
        "time": 191.824,
        "duration": 0.176,
        "velocity": 0.43,
        "hand": "left"
      },
      {
        "midi": 38,
        "time": 192,
        "duration": 0.353,
        "velocity": 0.86,
        "hand": "left"
      },
      {
        "midi": 42,
        "time": 192,
        "duration": 0.176,
        "velocity": 0.58,
        "hand": "left"
      },
      {
        "midi": 62,
        "time": 192,
        "duration": 0.353,
        "velocity": 0.79,
        "hand": "right"
      },
      {
        "midi": 42,
        "time": 192.353,
        "duration": 0.176,
        "velocity": 0.51,
        "hand": "left"
      },
      {
        "midi": 35,
        "time": 192.529,
        "duration": 0.176,
        "velocity": 0.58,
        "hand": "left"
      },
      {
        "midi": 50,
        "time": 192.529,
        "duration": 0.176,
        "velocity": 0.79,
        "hand": "left"
      },
      {
        "midi": 62,
        "time": 192.529,
        "duration": 0.176,
        "velocity": 0.79,
        "hand": "right"
      },
      {
        "midi": 35,
        "time": 192.706,
        "duration": 0.176,
        "velocity": 0.73,
        "hand": "left"
      },
      {
        "midi": 50,
        "time": 192.706,
        "duration": 0.529,
        "velocity": 0.79,
        "hand": "left"
      },
      {
        "midi": 69,
        "time": 192.706,
        "duration": 0.529,
        "velocity": 0.83,
        "hand": "right"
      },
      {
        "midi": 42,
        "time": 193.059,
        "duration": 0.176,
        "velocity": 0.51,
        "hand": "left"
      },
      {
        "midi": 42,
        "time": 193.235,
        "duration": 0.176,
        "velocity": 0.43,
        "hand": "left"
      },
      {
        "midi": 38,
        "time": 193.412,
        "duration": 0.176,
        "velocity": 0.73,
        "hand": "left"
      },
      {
        "midi": 42,
        "time": 193.412,
        "duration": 0.176,
        "velocity": 0.58,
        "hand": "left"
      },
      {
        "midi": 35,
        "time": 193.765,
        "duration": 0.176,
        "velocity": 0.58,
        "hand": "left"
      },
      {
        "midi": 42,
        "time": 193.765,
        "duration": 0.176,
        "velocity": 0.51,
        "hand": "left"
      },
      {
        "midi": 42,
        "time": 193.941,
        "duration": 0.176,
        "velocity": 0.43,
        "hand": "left"
      },
      {
        "midi": 35,
        "time": 194.118,
        "duration": 0.176,
        "velocity": 0.73,
        "hand": "left"
      },
      {
        "midi": 50,
        "time": 194.118,
        "duration": 0.529,
        "velocity": 0.79,
        "hand": "left"
      },
      {
        "midi": 74,
        "time": 194.118,
        "duration": 0.529,
        "velocity": 0.83,
        "hand": "right"
      },
      {
        "midi": 42,
        "time": 194.471,
        "duration": 0.176,
        "velocity": 0.51,
        "hand": "left"
      },
      {
        "midi": 42,
        "time": 194.647,
        "duration": 0.176,
        "velocity": 0.43,
        "hand": "left"
      },
      {
        "midi": 38,
        "time": 194.824,
        "duration": 0.353,
        "velocity": 0.86,
        "hand": "left"
      },
      {
        "midi": 50,
        "time": 194.824,
        "duration": 0.353,
        "velocity": 0.79,
        "hand": "left"
      },
      {
        "midi": 74,
        "time": 194.824,
        "duration": 0.353,
        "velocity": 0.83,
        "hand": "right"
      },
      {
        "midi": 42,
        "time": 195.176,
        "duration": 0.176,
        "velocity": 0.51,
        "hand": "left"
      },
      {
        "midi": 35,
        "time": 195.353,
        "duration": 0.176,
        "velocity": 0.58,
        "hand": "left"
      },
      {
        "midi": 50,
        "time": 195.353,
        "duration": 0.176,
        "velocity": 0.79,
        "hand": "left"
      },
      {
        "midi": 74,
        "time": 195.353,
        "duration": 0.176,
        "velocity": 0.83,
        "hand": "right"
      },
      {
        "midi": 35,
        "time": 195.529,
        "duration": 0.176,
        "velocity": 0.73,
        "hand": "left"
      },
      {
        "midi": 54,
        "time": 195.529,
        "duration": 0.529,
        "velocity": 0.79,
        "hand": "left"
      },
      {
        "midi": 74,
        "time": 195.529,
        "duration": 0.529,
        "velocity": 0.83,
        "hand": "right"
      },
      {
        "midi": 46,
        "time": 195.882,
        "duration": 0.176,
        "velocity": 0.51,
        "hand": "left"
      },
      {
        "midi": 38,
        "time": 196.235,
        "duration": 0.176,
        "velocity": 0.73,
        "hand": "left"
      },
      {
        "midi": 54,
        "time": 196.235,
        "duration": 0.353,
        "velocity": 0.79,
        "hand": "left"
      },
      {
        "midi": 74,
        "time": 196.235,
        "duration": 0.353,
        "velocity": 0.83,
        "hand": "right"
      },
      {
        "midi": 35,
        "time": 196.588,
        "duration": 0.176,
        "velocity": 0.58,
        "hand": "left"
      },
      {
        "midi": 42,
        "time": 196.588,
        "duration": 0.176,
        "velocity": 0.51,
        "hand": "left"
      },
      {
        "midi": 42,
        "time": 196.765,
        "duration": 0.176,
        "velocity": 0.86,
        "hand": "left"
      },
      {
        "midi": 62,
        "time": 196.765,
        "duration": 0.176,
        "velocity": 0.79,
        "hand": "right"
      },
      {
        "midi": 73,
        "time": 196.765,
        "duration": 0.176,
        "velocity": 0.83,
        "hand": "right"
      },
      {
        "midi": 35,
        "time": 196.941,
        "duration": 0.176,
        "velocity": 0.73,
        "hand": "left"
      },
      {
        "midi": 55,
        "time": 196.941,
        "duration": 0.529,
        "velocity": 0.79,
        "hand": "left"
      },
      {
        "midi": 71,
        "time": 196.941,
        "duration": 0.882,
        "velocity": 0.83,
        "hand": "right"
      },
      {
        "midi": 42,
        "time": 197.294,
        "duration": 0.176,
        "velocity": 0.51,
        "hand": "left"
      },
      {
        "midi": 42,
        "time": 197.471,
        "duration": 0.176,
        "velocity": 0.43,
        "hand": "left"
      },
      {
        "midi": 38,
        "time": 197.647,
        "duration": 0.176,
        "velocity": 0.73,
        "hand": "left"
      },
      {
        "midi": 50,
        "time": 197.647,
        "duration": 0.353,
        "velocity": 0.86,
        "hand": "left"
      },
      {
        "midi": 67,
        "time": 197.647,
        "duration": 0.353,
        "velocity": 0.83,
        "hand": "right"
      },
      {
        "midi": 42,
        "time": 198,
        "duration": 0.176,
        "velocity": 0.51,
        "hand": "left"
      },
      {
        "midi": 35,
        "time": 198.176,
        "duration": 0.176,
        "velocity": 0.58,
        "hand": "left"
      },
      {
        "midi": 50,
        "time": 198.176,
        "duration": 0.176,
        "velocity": 0.86,
        "hand": "left"
      },
      {
        "midi": 67,
        "time": 198.176,
        "duration": 0.176,
        "velocity": 0.83,
        "hand": "right"
      },
      {
        "midi": 35,
        "time": 198.353,
        "duration": 0.176,
        "velocity": 0.73,
        "hand": "left"
      },
      {
        "midi": 50,
        "time": 198.353,
        "duration": 0.529,
        "velocity": 0.86,
        "hand": "left"
      },
      {
        "midi": 67,
        "time": 198.353,
        "duration": 0.529,
        "velocity": 0.83,
        "hand": "right"
      },
      {
        "midi": 42,
        "time": 198.706,
        "duration": 0.176,
        "velocity": 0.51,
        "hand": "left"
      },
      {
        "midi": 42,
        "time": 198.882,
        "duration": 0.176,
        "velocity": 0.43,
        "hand": "left"
      },
      {
        "midi": 38,
        "time": 199.059,
        "duration": 0.176,
        "velocity": 0.73,
        "hand": "left"
      },
      {
        "midi": 55,
        "time": 199.059,
        "duration": 0.353,
        "velocity": 0.79,
        "hand": "left"
      },
      {
        "midi": 71,
        "time": 199.059,
        "duration": 0.529,
        "velocity": 0.83,
        "hand": "right"
      },
      {
        "midi": 35,
        "time": 199.412,
        "duration": 0.176,
        "velocity": 0.58,
        "hand": "left"
      },
      {
        "midi": 42,
        "time": 199.412,
        "duration": 0.176,
        "velocity": 0.51,
        "hand": "left"
      },
      {
        "midi": 42,
        "time": 199.588,
        "duration": 0.176,
        "velocity": 0.43,
        "hand": "left"
      },
      {
        "midi": 55,
        "time": 199.588,
        "duration": 0.176,
        "velocity": 0.79,
        "hand": "left"
      },
      {
        "midi": 67,
        "time": 199.588,
        "duration": 0.176,
        "velocity": 0.83,
        "hand": "right"
      },
      {
        "midi": 35,
        "time": 199.765,
        "duration": 0.176,
        "velocity": 0.65,
        "hand": "left"
      },
      {
        "midi": 57,
        "time": 199.765,
        "duration": 0.529,
        "velocity": 0.79,
        "hand": "left"
      },
      {
        "midi": 69,
        "time": 199.765,
        "duration": 0.529,
        "velocity": 0.83,
        "hand": "right"
      },
      {
        "midi": 42,
        "time": 200.118,
        "duration": 0.176,
        "velocity": 0.36,
        "hand": "left"
      },
      {
        "midi": 42,
        "time": 200.294,
        "duration": 0.176,
        "velocity": 0.73,
        "hand": "left"
      },
      {
        "midi": 33,
        "time": 200.471,
        "duration": 0.353,
        "velocity": 0.86,
        "hand": "left"
      },
      {
        "midi": 46,
        "time": 200.471,
        "duration": 0.176,
        "velocity": 0.73,
        "hand": "left"
      },
      {
        "midi": 66,
        "time": 200.471,
        "duration": 0.353,
        "velocity": 0.83,
        "hand": "right"
      },
      {
        "midi": 35,
        "time": 201,
        "duration": 0.176,
        "velocity": 0.86,
        "hand": "left"
      },
      {
        "midi": 47,
        "time": 201,
        "duration": 0.176,
        "velocity": 0.79,
        "hand": "left"
      },
      {
        "midi": 62,
        "time": 201,
        "duration": 0.176,
        "velocity": 0.83,
        "hand": "right"
      },
      {
        "midi": 33,
        "time": 201.176,
        "duration": 0.529,
        "velocity": 0.86,
        "hand": "left"
      },
      {
        "midi": 57,
        "time": 201.176,
        "duration": 0.529,
        "velocity": 0.79,
        "hand": "left"
      },
      {
        "midi": 64,
        "time": 201.176,
        "duration": 0.529,
        "velocity": 0.83,
        "hand": "right"
      },
      {
        "midi": 38,
        "time": 201.353,
        "duration": 0.176,
        "velocity": 0.43,
        "hand": "left"
      },
      {
        "midi": 35,
        "time": 201.706,
        "duration": 0.176,
        "velocity": 0.65,
        "hand": "left"
      },
      {
        "midi": 33,
        "time": 201.882,
        "duration": 0.353,
        "velocity": 0.86,
        "hand": "left"
      },
      {
        "midi": 57,
        "time": 201.882,
        "duration": 0.353,
        "velocity": 0.79,
        "hand": "left"
      },
      {
        "midi": 66,
        "time": 201.882,
        "duration": 0.353,
        "velocity": 0.83,
        "hand": "right"
      },
      {
        "midi": 38,
        "time": 202.059,
        "duration": 0.176,
        "velocity": 0.43,
        "hand": "left"
      },
      {
        "midi": 41,
        "time": 202.235,
        "duration": 0.176,
        "velocity": 0.83,
        "hand": "left"
      },
      {
        "midi": 33,
        "time": 202.412,
        "duration": 0.176,
        "velocity": 0.86,
        "hand": "left"
      },
      {
        "midi": 55,
        "time": 202.412,
        "duration": 0.176,
        "velocity": 0.79,
        "hand": "left"
      },
      {
        "midi": 64,
        "time": 202.412,
        "duration": 0.176,
        "velocity": 0.83,
        "hand": "right"
      },
      {
        "midi": 35,
        "time": 202.588,
        "duration": 0.176,
        "velocity": 0.73,
        "hand": "left"
      },
      {
        "midi": 50,
        "time": 202.588,
        "duration": 1.588,
        "velocity": 0.79,
        "hand": "left"
      },
      {
        "midi": 62,
        "time": 202.588,
        "duration": 2.294,
        "velocity": 0.86,
        "hand": "right"
      },
      {
        "midi": 38,
        "time": 203.118,
        "duration": 0.176,
        "velocity": 0.51,
        "hand": "left"
      },
      {
        "midi": 38,
        "time": 203.294,
        "duration": 0.176,
        "velocity": 0.83,
        "hand": "left"
      },
      {
        "midi": 55,
        "time": 203.294,
        "duration": 0.529,
        "velocity": 0.79,
        "hand": "left"
      },
      {
        "midi": 59,
        "time": 203.294,
        "duration": 0.529,
        "velocity": 0.83,
        "hand": "left"
      },
      {
        "midi": 35,
        "time": 203.471,
        "duration": 0.176,
        "velocity": 0.65,
        "hand": "left"
      },
      {
        "midi": 48,
        "time": 203.647,
        "duration": 0.176,
        "velocity": 0.73,
        "hand": "left"
      },
      {
        "midi": 38,
        "time": 204,
        "duration": 0.529,
        "velocity": 0.86,
        "hand": "left"
      },
      {
        "midi": 54,
        "time": 204,
        "duration": 0.529,
        "velocity": 0.79,
        "hand": "left"
      },
      {
        "midi": 62,
        "time": 204,
        "duration": 0.529,
        "velocity": 0.83,
        "hand": "right"
      },
      {
        "midi": 45,
        "time": 204.176,
        "duration": 0.176,
        "velocity": 0.83,
        "hand": "left"
      },
      {
        "midi": 41,
        "time": 204.706,
        "duration": 0.176,
        "velocity": 0.93,
        "hand": "left"
      },
      {
        "midi": 35,
        "time": 205.059,
        "duration": 0.176,
        "velocity": 0.58,
        "hand": "left"
      },
      {
        "midi": 35,
        "time": 205.412,
        "duration": 0.176,
        "velocity": 0.73,
        "hand": "left"
      },
      {
        "midi": 49,
        "time": 205.412,
        "duration": 0.176,
        "velocity": 0.65,
        "hand": "left"
      },
      {
        "midi": 59,
        "time": 205.412,
        "duration": 1.941,
        "velocity": 0.73,
        "hand": "left"
      }
    ],
    "hard": [
      {
        "midi": 37,
        "time": 0,
        "duration": 0.706,
        "velocity": 0.61,
        "hand": "left"
      },
      {
        "midi": 37,
        "time": 1.412,
        "duration": 0.706,
        "velocity": 0.61,
        "hand": "left"
      },
      {
        "midi": 37,
        "time": 2.824,
        "duration": 0.706,
        "velocity": 0.46,
        "hand": "left"
      },
      {
        "midi": 38,
        "time": 2.824,
        "duration": 0.529,
        "velocity": 0.86,
        "hand": "left"
      },
      {
        "midi": 45,
        "time": 2.824,
        "duration": 0.529,
        "velocity": 0.86,
        "hand": "left"
      },
      {
        "midi": 50,
        "time": 2.824,
        "duration": 0.529,
        "velocity": 0.79,
        "hand": "left"
      },
      {
        "midi": 57,
        "time": 2.824,
        "duration": 0.529,
        "velocity": 0.79,
        "hand": "left"
      },
      {
        "midi": 62,
        "time": 2.824,
        "duration": 0.529,
        "velocity": 0.83,
        "hand": "right"
      },
      {
        "midi": 66,
        "time": 2.824,
        "duration": 0.529,
        "velocity": 0.83,
        "hand": "right"
      },
      {
        "midi": 37,
        "time": 3.529,
        "duration": 0.706,
        "velocity": 0.61,
        "hand": "left"
      },
      {
        "midi": 38,
        "time": 3.529,
        "duration": 0.353,
        "velocity": 0.86,
        "hand": "left"
      },
      {
        "midi": 45,
        "time": 3.529,
        "duration": 0.353,
        "velocity": 0.86,
        "hand": "left"
      },
      {
        "midi": 50,
        "time": 3.529,
        "duration": 0.353,
        "velocity": 0.79,
        "hand": "left"
      },
      {
        "midi": 57,
        "time": 3.529,
        "duration": 0.353,
        "velocity": 0.79,
        "hand": "left"
      },
      {
        "midi": 62,
        "time": 3.529,
        "duration": 0.353,
        "velocity": 0.83,
        "hand": "right"
      },
      {
        "midi": 66,
        "time": 3.529,
        "duration": 0.353,
        "velocity": 0.83,
        "hand": "right"
      },
      {
        "midi": 38,
        "time": 4.059,
        "duration": 0.176,
        "velocity": 0.86,
        "hand": "left"
      },
      {
        "midi": 44,
        "time": 4.059,
        "duration": 0.176,
        "velocity": 0.86,
        "hand": "left"
      },
      {
        "midi": 50,
        "time": 4.059,
        "duration": 0.176,
        "velocity": 0.79,
        "hand": "left"
      },
      {
        "midi": 56,
        "time": 4.059,
        "duration": 0.176,
        "velocity": 0.79,
        "hand": "left"
      },
      {
        "midi": 62,
        "time": 4.059,
        "duration": 0.176,
        "velocity": 0.83,
        "hand": "right"
      },
      {
        "midi": 65,
        "time": 4.059,
        "duration": 0.176,
        "velocity": 0.83,
        "hand": "right"
      },
      {
        "midi": 37,
        "time": 4.235,
        "duration": 0.706,
        "velocity": 0.46,
        "hand": "left"
      },
      {
        "midi": 38,
        "time": 4.235,
        "duration": 0.529,
        "velocity": 0.86,
        "hand": "left"
      },
      {
        "midi": 45,
        "time": 4.235,
        "duration": 0.529,
        "velocity": 0.86,
        "hand": "left"
      },
      {
        "midi": 50,
        "time": 4.235,
        "duration": 0.529,
        "velocity": 0.79,
        "hand": "left"
      },
      {
        "midi": 57,
        "time": 4.235,
        "duration": 0.529,
        "velocity": 0.79,
        "hand": "left"
      },
      {
        "midi": 62,
        "time": 4.235,
        "duration": 0.529,
        "velocity": 0.83,
        "hand": "right"
      },
      {
        "midi": 66,
        "time": 4.235,
        "duration": 0.529,
        "velocity": 0.83,
        "hand": "right"
      },
      {
        "midi": 37,
        "time": 4.941,
        "duration": 0.706,
        "velocity": 0.61,
        "hand": "left"
      },
      {
        "midi": 38,
        "time": 4.941,
        "duration": 0.353,
        "velocity": 0.86,
        "hand": "left"
      },
      {
        "midi": 45,
        "time": 4.941,
        "duration": 0.353,
        "velocity": 0.86,
        "hand": "left"
      },
      {
        "midi": 50,
        "time": 4.941,
        "duration": 0.353,
        "velocity": 0.79,
        "hand": "left"
      },
      {
        "midi": 57,
        "time": 4.941,
        "duration": 0.353,
        "velocity": 0.79,
        "hand": "left"
      },
      {
        "midi": 62,
        "time": 4.941,
        "duration": 0.353,
        "velocity": 0.83,
        "hand": "right"
      },
      {
        "midi": 66,
        "time": 4.941,
        "duration": 0.353,
        "velocity": 0.83,
        "hand": "right"
      },
      {
        "midi": 38,
        "time": 5.471,
        "duration": 0.176,
        "velocity": 0.86,
        "hand": "left"
      },
      {
        "midi": 45,
        "time": 5.471,
        "duration": 0.176,
        "velocity": 0.86,
        "hand": "left"
      },
      {
        "midi": 50,
        "time": 5.471,
        "duration": 0.176,
        "velocity": 0.79,
        "hand": "left"
      },
      {
        "midi": 57,
        "time": 5.471,
        "duration": 0.176,
        "velocity": 0.79,
        "hand": "left"
      },
      {
        "midi": 64,
        "time": 5.471,
        "duration": 0.176,
        "velocity": 0.83,
        "hand": "right"
      },
      {
        "midi": 67,
        "time": 5.471,
        "duration": 0.176,
        "velocity": 0.83,
        "hand": "right"
      },
      {
        "midi": 35,
        "time": 5.647,
        "duration": 0.176,
        "velocity": 0.73,
        "hand": "left"
      },
      {
        "midi": 38,
        "time": 5.647,
        "duration": 0.882,
        "velocity": 0.86,
        "hand": "left"
      },
      {
        "midi": 42,
        "time": 5.647,
        "duration": 0.176,
        "velocity": 0.65,
        "hand": "left"
      },
      {
        "midi": 49,
        "time": 5.647,
        "duration": 0.176,
        "velocity": 0.65,
        "hand": "left"
      },
      {
        "midi": 50,
        "time": 5.647,
        "duration": 0.882,
        "velocity": 0.79,
        "hand": "left"
      },
      {
        "midi": 62,
        "time": 5.647,
        "duration": 0.882,
        "velocity": 0.79,
        "hand": "right"
      },
      {
        "midi": 66,
        "time": 5.647,
        "duration": 0.882,
        "velocity": 0.83,
        "hand": "right"
      },
      {
        "midi": 69,
        "time": 5.647,
        "duration": 0.882,
        "velocity": 0.83,
        "hand": "right"
      },
      {
        "midi": 42,
        "time": 6,
        "duration": 0.176,
        "velocity": 0.51,
        "hand": "left"
      },
      {
        "midi": 37,
        "time": 6.353,
        "duration": 0.176,
        "velocity": 0.73,
        "hand": "left"
      },
      {
        "midi": 42,
        "time": 6.353,
        "duration": 0.176,
        "velocity": 0.58,
        "hand": "left"
      },
      {
        "midi": 35,
        "time": 6.706,
        "duration": 0.176,
        "velocity": 0.58,
        "hand": "left"
      },
      {
        "midi": 42,
        "time": 6.706,
        "duration": 0.176,
        "velocity": 0.51,
        "hand": "left"
      },
      {
        "midi": 35,
        "time": 7.059,
        "duration": 0.176,
        "velocity": 0.73,
        "hand": "left"
      },
      {
        "midi": 38,
        "time": 7.059,
        "duration": 0.529,
        "velocity": 0.86,
        "hand": "left"
      },
      {
        "midi": 42,
        "time": 7.059,
        "duration": 0.176,
        "velocity": 0.65,
        "hand": "left"
      },
      {
        "midi": 50,
        "time": 7.059,
        "duration": 0.529,
        "velocity": 0.79,
        "hand": "left"
      },
      {
        "midi": 62,
        "time": 7.059,
        "duration": 0.529,
        "velocity": 0.79,
        "hand": "right"
      },
      {
        "midi": 66,
        "time": 7.059,
        "duration": 0.529,
        "velocity": 0.83,
        "hand": "right"
      },
      {
        "midi": 69,
        "time": 7.059,
        "duration": 0.529,
        "velocity": 0.83,
        "hand": "right"
      },
      {
        "midi": 42,
        "time": 7.412,
        "duration": 0.176,
        "velocity": 0.51,
        "hand": "left"
      },
      {
        "midi": 37,
        "time": 7.765,
        "duration": 0.176,
        "velocity": 0.73,
        "hand": "left"
      },
      {
        "midi": 38,
        "time": 7.765,
        "duration": 0.353,
        "velocity": 0.86,
        "hand": "left"
      },
      {
        "midi": 42,
        "time": 7.765,
        "duration": 0.176,
        "velocity": 0.58,
        "hand": "left"
      },
      {
        "midi": 50,
        "time": 7.765,
        "duration": 0.353,
        "velocity": 0.79,
        "hand": "left"
      },
      {
        "midi": 62,
        "time": 7.765,
        "duration": 0.353,
        "velocity": 0.79,
        "hand": "right"
      },
      {
        "midi": 66,
        "time": 7.765,
        "duration": 0.353,
        "velocity": 0.83,
        "hand": "right"
      },
      {
        "midi": 69,
        "time": 7.765,
        "duration": 0.353,
        "velocity": 0.83,
        "hand": "right"
      },
      {
        "midi": 35,
        "time": 8.118,
        "duration": 0.176,
        "velocity": 0.58,
        "hand": "left"
      },
      {
        "midi": 42,
        "time": 8.118,
        "duration": 0.176,
        "velocity": 0.51,
        "hand": "left"
      },
      {
        "midi": 38,
        "time": 8.294,
        "duration": 0.176,
        "velocity": 0.86,
        "hand": "left"
      },
      {
        "midi": 45,
        "time": 8.294,
        "duration": 0.176,
        "velocity": 0.86,
        "hand": "left"
      },
      {
        "midi": 50,
        "time": 8.294,
        "duration": 0.176,
        "velocity": 0.79,
        "hand": "left"
      },
      {
        "midi": 57,
        "time": 8.294,
        "duration": 0.176,
        "velocity": 0.79,
        "hand": "left"
      },
      {
        "midi": 62,
        "time": 8.294,
        "duration": 0.176,
        "velocity": 0.83,
        "hand": "right"
      },
      {
        "midi": 66,
        "time": 8.294,
        "duration": 0.176,
        "velocity": 0.83,
        "hand": "right"
      },
      {
        "midi": 33,
        "time": 8.471,
        "duration": 0.529,
        "velocity": 0.86,
        "hand": "left"
      },
      {
        "midi": 35,
        "time": 8.471,
        "duration": 0.176,
        "velocity": 0.73,
        "hand": "left"
      },
      {
        "midi": 42,
        "time": 8.471,
        "duration": 0.176,
        "velocity": 0.65,
        "hand": "left"
      },
      {
        "midi": 45,
        "time": 8.471,
        "duration": 0.529,
        "velocity": 0.79,
        "hand": "left"
      },
      {
        "midi": 57,
        "time": 8.471,
        "duration": 0.529,
        "velocity": 0.79,
        "hand": "left"
      },
      {
        "midi": 61,
        "time": 8.471,
        "duration": 0.529,
        "velocity": 0.83,
        "hand": "right"
      },
      {
        "midi": 64,
        "time": 8.471,
        "duration": 0.529,
        "velocity": 0.83,
        "hand": "right"
      },
      {
        "midi": 42,
        "time": 8.824,
        "duration": 0.176,
        "velocity": 0.51,
        "hand": "left"
      },
      {
        "midi": 33,
        "time": 9.176,
        "duration": 0.529,
        "velocity": 0.86,
        "hand": "left"
      },
      {
        "midi": 37,
        "time": 9.176,
        "duration": 0.176,
        "velocity": 0.73,
        "hand": "left"
      },
      {
        "midi": 42,
        "time": 9.176,
        "duration": 0.176,
        "velocity": 0.58,
        "hand": "left"
      },
      {
        "midi": 45,
        "time": 9.176,
        "duration": 0.529,
        "velocity": 0.79,
        "hand": "left"
      },
      {
        "midi": 57,
        "time": 9.176,
        "duration": 0.529,
        "velocity": 0.79,
        "hand": "left"
      },
      {
        "midi": 61,
        "time": 9.176,
        "duration": 0.529,
        "velocity": 0.83,
        "hand": "right"
      },
      {
        "midi": 64,
        "time": 9.176,
        "duration": 0.529,
        "velocity": 0.83,
        "hand": "right"
      },
      {
        "midi": 35,
        "time": 9.529,
        "duration": 0.176,
        "velocity": 0.58,
        "hand": "left"
      },
      {
        "midi": 42,
        "time": 9.529,
        "duration": 0.176,
        "velocity": 0.51,
        "hand": "left"
      },
      {
        "midi": 42,
        "time": 9.706,
        "duration": 0.176,
        "velocity": 0.43,
        "hand": "left"
      },
      {
        "midi": 35,
        "time": 9.882,
        "duration": 0.176,
        "velocity": 0.73,
        "hand": "left"
      },
      {
        "midi": 38,
        "time": 9.882,
        "duration": 0.529,
        "velocity": 0.86,
        "hand": "left"
      },
      {
        "midi": 42,
        "time": 9.882,
        "duration": 0.176,
        "velocity": 0.65,
        "hand": "left"
      },
      {
        "midi": 45,
        "time": 9.882,
        "duration": 0.529,
        "velocity": 0.86,
        "hand": "left"
      },
      {
        "midi": 50,
        "time": 9.882,
        "duration": 0.529,
        "velocity": 0.79,
        "hand": "left"
      },
      {
        "midi": 57,
        "time": 9.882,
        "duration": 0.529,
        "velocity": 0.79,
        "hand": "left"
      },
      {
        "midi": 62,
        "time": 9.882,
        "duration": 0.529,
        "velocity": 0.83,
        "hand": "right"
      },
      {
        "midi": 66,
        "time": 9.882,
        "duration": 0.529,
        "velocity": 0.83,
        "hand": "right"
      },
      {
        "midi": 42,
        "time": 10.235,
        "duration": 0.176,
        "velocity": 0.51,
        "hand": "left"
      },
      {
        "midi": 37,
        "time": 10.588,
        "duration": 0.176,
        "velocity": 0.73,
        "hand": "left"
      },
      {
        "midi": 38,
        "time": 10.588,
        "duration": 0.353,
        "velocity": 0.86,
        "hand": "left"
      },
      {
        "midi": 42,
        "time": 10.588,
        "duration": 0.176,
        "velocity": 0.58,
        "hand": "left"
      },
      {
        "midi": 45,
        "time": 10.588,
        "duration": 0.353,
        "velocity": 0.86,
        "hand": "left"
      },
      {
        "midi": 50,
        "time": 10.588,
        "duration": 0.353,
        "velocity": 0.79,
        "hand": "left"
      },
      {
        "midi": 57,
        "time": 10.588,
        "duration": 0.353,
        "velocity": 0.79,
        "hand": "left"
      },
      {
        "midi": 64,
        "time": 10.588,
        "duration": 0.353,
        "velocity": 0.83,
        "hand": "right"
      },
      {
        "midi": 67,
        "time": 10.588,
        "duration": 0.353,
        "velocity": 0.83,
        "hand": "right"
      },
      {
        "midi": 35,
        "time": 10.941,
        "duration": 0.176,
        "velocity": 0.58,
        "hand": "left"
      },
      {
        "midi": 42,
        "time": 10.941,
        "duration": 0.176,
        "velocity": 0.51,
        "hand": "left"
      },
      {
        "midi": 38,
        "time": 11.118,
        "duration": 0.176,
        "velocity": 0.86,
        "hand": "left"
      },
      {
        "midi": 45,
        "time": 11.118,
        "duration": 0.176,
        "velocity": 0.86,
        "hand": "left"
      },
      {
        "midi": 46,
        "time": 11.118,
        "duration": 0.176,
        "velocity": 0.58,
        "hand": "left"
      },
      {
        "midi": 50,
        "time": 11.118,
        "duration": 0.176,
        "velocity": 0.79,
        "hand": "left"
      },
      {
        "midi": 57,
        "time": 11.118,
        "duration": 0.176,
        "velocity": 0.79,
        "hand": "left"
      },
      {
        "midi": 62,
        "time": 11.118,
        "duration": 0.176,
        "velocity": 0.83,
        "hand": "right"
      },
      {
        "midi": 66,
        "time": 11.118,
        "duration": 0.176,
        "velocity": 0.83,
        "hand": "right"
      },
      {
        "midi": 33,
        "time": 11.294,
        "duration": 1.412,
        "velocity": 0.86,
        "hand": "left"
      },
      {
        "midi": 35,
        "time": 11.294,
        "duration": 0.176,
        "velocity": 0.73,
        "hand": "left"
      },
      {
        "midi": 42,
        "time": 11.294,
        "duration": 0.176,
        "velocity": 0.65,
        "hand": "left"
      },
      {
        "midi": 45,
        "time": 11.294,
        "duration": 1.412,
        "velocity": 0.79,
        "hand": "left"
      },
      {
        "midi": 57,
        "time": 11.294,
        "duration": 1.412,
        "velocity": 0.79,
        "hand": "left"
      },
      {
        "midi": 61,
        "time": 11.294,
        "duration": 1.412,
        "velocity": 0.83,
        "hand": "right"
      },
      {
        "midi": 64,
        "time": 11.294,
        "duration": 1.412,
        "velocity": 0.83,
        "hand": "right"
      },
      {
        "midi": 42,
        "time": 11.647,
        "duration": 0.176,
        "velocity": 0.51,
        "hand": "left"
      },
      {
        "midi": 37,
        "time": 12,
        "duration": 0.176,
        "velocity": 0.73,
        "hand": "left"
      },
      {
        "midi": 42,
        "time": 12,
        "duration": 0.176,
        "velocity": 0.58,
        "hand": "left"
      },
      {
        "midi": 35,
        "time": 12.353,
        "duration": 0.176,
        "velocity": 0.58,
        "hand": "left"
      },
      {
        "midi": 42,
        "time": 12.353,
        "duration": 0.176,
        "velocity": 0.51,
        "hand": "left"
      },
      {
        "midi": 35,
        "time": 12.706,
        "duration": 0.176,
        "velocity": 0.73,
        "hand": "left"
      },
      {
        "midi": 42,
        "time": 12.706,
        "duration": 0.176,
        "velocity": 0.65,
        "hand": "left"
      },
      {
        "midi": 42,
        "time": 13.059,
        "duration": 0.176,
        "velocity": 0.51,
        "hand": "left"
      },
      {
        "midi": 37,
        "time": 13.412,
        "duration": 0.176,
        "velocity": 0.73,
        "hand": "left"
      },
      {
        "midi": 42,
        "time": 13.412,
        "duration": 0.176,
        "velocity": 0.58,
        "hand": "left"
      },
      {
        "midi": 35,
        "time": 13.765,
        "duration": 0.176,
        "velocity": 0.58,
        "hand": "left"
      },
      {
        "midi": 42,
        "time": 13.765,
        "duration": 0.176,
        "velocity": 0.51,
        "hand": "left"
      },
      {
        "midi": 35,
        "time": 14.118,
        "duration": 0.176,
        "velocity": 0.73,
        "hand": "left"
      },
      {
        "midi": 38,
        "time": 14.118,
        "duration": 0.529,
        "velocity": 0.86,
        "hand": "left"
      },
      {
        "midi": 42,
        "time": 14.118,
        "duration": 0.176,
        "velocity": 0.65,
        "hand": "left"
      },
      {
        "midi": 45,
        "time": 14.118,
        "duration": 0.529,
        "velocity": 0.86,
        "hand": "left"
      },
      {
        "midi": 50,
        "time": 14.118,
        "duration": 0.529,
        "velocity": 0.79,
        "hand": "left"
      },
      {
        "midi": 57,
        "time": 14.118,
        "duration": 0.529,
        "velocity": 0.79,
        "hand": "left"
      },
      {
        "midi": 62,
        "time": 14.118,
        "duration": 0.529,
        "velocity": 0.83,
        "hand": "right"
      },
      {
        "midi": 66,
        "time": 14.118,
        "duration": 0.529,
        "velocity": 0.83,
        "hand": "right"
      },
      {
        "midi": 42,
        "time": 14.471,
        "duration": 0.176,
        "velocity": 0.51,
        "hand": "left"
      },
      {
        "midi": 37,
        "time": 14.824,
        "duration": 0.176,
        "velocity": 0.73,
        "hand": "left"
      },
      {
        "midi": 38,
        "time": 14.824,
        "duration": 0.353,
        "velocity": 0.86,
        "hand": "left"
      },
      {
        "midi": 42,
        "time": 14.824,
        "duration": 0.176,
        "velocity": 0.58,
        "hand": "left"
      },
      {
        "midi": 45,
        "time": 14.824,
        "duration": 0.353,
        "velocity": 0.86,
        "hand": "left"
      },
      {
        "midi": 50,
        "time": 14.824,
        "duration": 0.353,
        "velocity": 0.79,
        "hand": "left"
      },
      {
        "midi": 57,
        "time": 14.824,
        "duration": 0.353,
        "velocity": 0.79,
        "hand": "left"
      },
      {
        "midi": 62,
        "time": 14.824,
        "duration": 0.353,
        "velocity": 0.83,
        "hand": "right"
      },
      {
        "midi": 66,
        "time": 14.824,
        "duration": 0.353,
        "velocity": 0.83,
        "hand": "right"
      },
      {
        "midi": 35,
        "time": 15.176,
        "duration": 0.176,
        "velocity": 0.58,
        "hand": "left"
      },
      {
        "midi": 42,
        "time": 15.176,
        "duration": 0.176,
        "velocity": 0.51,
        "hand": "left"
      },
      {
        "midi": 38,
        "time": 15.353,
        "duration": 0.176,
        "velocity": 0.86,
        "hand": "left"
      },
      {
        "midi": 44,
        "time": 15.353,
        "duration": 0.176,
        "velocity": 0.86,
        "hand": "left"
      },
      {
        "midi": 50,
        "time": 15.353,
        "duration": 0.176,
        "velocity": 0.79,
        "hand": "left"
      },
      {
        "midi": 56,
        "time": 15.353,
        "duration": 0.176,
        "velocity": 0.79,
        "hand": "left"
      },
      {
        "midi": 62,
        "time": 15.353,
        "duration": 0.176,
        "velocity": 0.83,
        "hand": "right"
      },
      {
        "midi": 65,
        "time": 15.353,
        "duration": 0.176,
        "velocity": 0.83,
        "hand": "right"
      },
      {
        "midi": 35,
        "time": 15.529,
        "duration": 0.176,
        "velocity": 0.73,
        "hand": "left"
      },
      {
        "midi": 38,
        "time": 15.529,
        "duration": 0.529,
        "velocity": 0.86,
        "hand": "left"
      },
      {
        "midi": 42,
        "time": 15.529,
        "duration": 0.176,
        "velocity": 0.65,
        "hand": "left"
      },
      {
        "midi": 45,
        "time": 15.529,
        "duration": 0.529,
        "velocity": 0.86,
        "hand": "left"
      },
      {
        "midi": 50,
        "time": 15.529,
        "duration": 0.529,
        "velocity": 0.79,
        "hand": "left"
      },
      {
        "midi": 57,
        "time": 15.529,
        "duration": 0.529,
        "velocity": 0.79,
        "hand": "left"
      },
      {
        "midi": 62,
        "time": 15.529,
        "duration": 0.529,
        "velocity": 0.83,
        "hand": "right"
      },
      {
        "midi": 66,
        "time": 15.529,
        "duration": 0.529,
        "velocity": 0.83,
        "hand": "right"
      },
      {
        "midi": 42,
        "time": 15.882,
        "duration": 0.176,
        "velocity": 0.51,
        "hand": "left"
      },
      {
        "midi": 37,
        "time": 16.235,
        "duration": 0.176,
        "velocity": 0.73,
        "hand": "left"
      },
      {
        "midi": 38,
        "time": 16.235,
        "duration": 0.353,
        "velocity": 0.86,
        "hand": "left"
      },
      {
        "midi": 42,
        "time": 16.235,
        "duration": 0.176,
        "velocity": 0.58,
        "hand": "left"
      },
      {
        "midi": 45,
        "time": 16.235,
        "duration": 0.353,
        "velocity": 0.86,
        "hand": "left"
      },
      {
        "midi": 50,
        "time": 16.235,
        "duration": 0.353,
        "velocity": 0.79,
        "hand": "left"
      },
      {
        "midi": 57,
        "time": 16.235,
        "duration": 0.353,
        "velocity": 0.79,
        "hand": "left"
      },
      {
        "midi": 62,
        "time": 16.235,
        "duration": 0.353,
        "velocity": 0.83,
        "hand": "right"
      },
      {
        "midi": 66,
        "time": 16.235,
        "duration": 0.353,
        "velocity": 0.83,
        "hand": "right"
      },
      {
        "midi": 35,
        "time": 16.588,
        "duration": 0.176,
        "velocity": 0.58,
        "hand": "left"
      },
      {
        "midi": 42,
        "time": 16.588,
        "duration": 0.176,
        "velocity": 0.51,
        "hand": "left"
      },
      {
        "midi": 38,
        "time": 16.765,
        "duration": 0.176,
        "velocity": 0.86,
        "hand": "left"
      },
      {
        "midi": 45,
        "time": 16.765,
        "duration": 0.176,
        "velocity": 0.86,
        "hand": "left"
      },
      {
        "midi": 50,
        "time": 16.765,
        "duration": 0.176,
        "velocity": 0.79,
        "hand": "left"
      },
      {
        "midi": 57,
        "time": 16.765,
        "duration": 0.176,
        "velocity": 0.79,
        "hand": "left"
      },
      {
        "midi": 64,
        "time": 16.765,
        "duration": 0.176,
        "velocity": 0.83,
        "hand": "right"
      },
      {
        "midi": 67,
        "time": 16.765,
        "duration": 0.176,
        "velocity": 0.83,
        "hand": "right"
      },
      {
        "midi": 35,
        "time": 16.941,
        "duration": 0.176,
        "velocity": 0.73,
        "hand": "left"
      },
      {
        "midi": 38,
        "time": 16.941,
        "duration": 0.882,
        "velocity": 0.86,
        "hand": "left"
      },
      {
        "midi": 42,
        "time": 16.941,
        "duration": 0.176,
        "velocity": 0.65,
        "hand": "left"
      },
      {
        "midi": 50,
        "time": 16.941,
        "duration": 0.882,
        "velocity": 0.79,
        "hand": "left"
      },
      {
        "midi": 62,
        "time": 16.941,
        "duration": 0.882,
        "velocity": 0.79,
        "hand": "right"
      },
      {
        "midi": 66,
        "time": 16.941,
        "duration": 0.882,
        "velocity": 0.83,
        "hand": "right"
      },
      {
        "midi": 69,
        "time": 16.941,
        "duration": 0.882,
        "velocity": 0.83,
        "hand": "right"
      },
      {
        "midi": 42,
        "time": 17.294,
        "duration": 0.176,
        "velocity": 0.51,
        "hand": "left"
      },
      {
        "midi": 37,
        "time": 17.647,
        "duration": 0.176,
        "velocity": 0.73,
        "hand": "left"
      },
      {
        "midi": 42,
        "time": 17.647,
        "duration": 0.176,
        "velocity": 0.58,
        "hand": "left"
      },
      {
        "midi": 35,
        "time": 18,
        "duration": 0.176,
        "velocity": 0.58,
        "hand": "left"
      },
      {
        "midi": 42,
        "time": 18,
        "duration": 0.176,
        "velocity": 0.51,
        "hand": "left"
      },
      {
        "midi": 35,
        "time": 18.353,
        "duration": 0.176,
        "velocity": 0.73,
        "hand": "left"
      },
      {
        "midi": 38,
        "time": 18.353,
        "duration": 0.529,
        "velocity": 0.86,
        "hand": "left"
      },
      {
        "midi": 42,
        "time": 18.353,
        "duration": 0.176,
        "velocity": 0.65,
        "hand": "left"
      },
      {
        "midi": 50,
        "time": 18.353,
        "duration": 0.529,
        "velocity": 0.79,
        "hand": "left"
      },
      {
        "midi": 62,
        "time": 18.353,
        "duration": 0.529,
        "velocity": 0.79,
        "hand": "right"
      },
      {
        "midi": 66,
        "time": 18.353,
        "duration": 0.529,
        "velocity": 0.83,
        "hand": "right"
      },
      {
        "midi": 69,
        "time": 18.353,
        "duration": 0.529,
        "velocity": 0.83,
        "hand": "right"
      },
      {
        "midi": 42,
        "time": 18.706,
        "duration": 0.176,
        "velocity": 0.51,
        "hand": "left"
      },
      {
        "midi": 37,
        "time": 19.059,
        "duration": 0.176,
        "velocity": 0.73,
        "hand": "left"
      },
      {
        "midi": 38,
        "time": 19.059,
        "duration": 0.353,
        "velocity": 0.86,
        "hand": "left"
      },
      {
        "midi": 42,
        "time": 19.059,
        "duration": 0.176,
        "velocity": 0.58,
        "hand": "left"
      },
      {
        "midi": 50,
        "time": 19.059,
        "duration": 0.353,
        "velocity": 0.79,
        "hand": "left"
      },
      {
        "midi": 62,
        "time": 19.059,
        "duration": 0.353,
        "velocity": 0.79,
        "hand": "right"
      },
      {
        "midi": 66,
        "time": 19.059,
        "duration": 0.353,
        "velocity": 0.83,
        "hand": "right"
      },
      {
        "midi": 69,
        "time": 19.059,
        "duration": 0.353,
        "velocity": 0.83,
        "hand": "right"
      },
      {
        "midi": 35,
        "time": 19.412,
        "duration": 0.176,
        "velocity": 0.58,
        "hand": "left"
      },
      {
        "midi": 42,
        "time": 19.412,
        "duration": 0.176,
        "velocity": 0.51,
        "hand": "left"
      },
      {
        "midi": 38,
        "time": 19.588,
        "duration": 0.176,
        "velocity": 0.86,
        "hand": "left"
      },
      {
        "midi": 45,
        "time": 19.588,
        "duration": 0.176,
        "velocity": 0.86,
        "hand": "left"
      },
      {
        "midi": 50,
        "time": 19.588,
        "duration": 0.176,
        "velocity": 0.79,
        "hand": "left"
      },
      {
        "midi": 57,
        "time": 19.588,
        "duration": 0.176,
        "velocity": 0.79,
        "hand": "left"
      },
      {
        "midi": 62,
        "time": 19.588,
        "duration": 0.176,
        "velocity": 0.83,
        "hand": "right"
      },
      {
        "midi": 66,
        "time": 19.588,
        "duration": 0.176,
        "velocity": 0.83,
        "hand": "right"
      },
      {
        "midi": 35,
        "time": 19.765,
        "duration": 0.176,
        "velocity": 0.73,
        "hand": "left"
      },
      {
        "midi": 42,
        "time": 19.765,
        "duration": 0.176,
        "velocity": 0.65,
        "hand": "left"
      },
      {
        "midi": 43,
        "time": 19.765,
        "duration": 0.529,
        "velocity": 0.86,
        "hand": "left"
      },
      {
        "midi": 47,
        "time": 19.765,
        "duration": 0.529,
        "velocity": 0.86,
        "hand": "left"
      },
      {
        "midi": 55,
        "time": 19.765,
        "duration": 0.529,
        "velocity": 0.79,
        "hand": "left"
      },
      {
        "midi": 59,
        "time": 19.765,
        "duration": 0.529,
        "velocity": 0.79,
        "hand": "left"
      },
      {
        "midi": 62,
        "time": 19.765,
        "duration": 0.529,
        "velocity": 0.83,
        "hand": "right"
      },
      {
        "midi": 64,
        "time": 19.765,
        "duration": 0.529,
        "velocity": 0.83,
        "hand": "right"
      },
      {
        "midi": 42,
        "time": 20.118,
        "duration": 0.176,
        "velocity": 0.51,
        "hand": "left"
      },
      {
        "midi": 37,
        "time": 20.471,
        "duration": 0.176,
        "velocity": 0.73,
        "hand": "left"
      },
      {
        "midi": 42,
        "time": 20.471,
        "duration": 0.176,
        "velocity": 0.58,
        "hand": "left"
      },
      {
        "midi": 43,
        "time": 20.471,
        "duration": 0.176,
        "velocity": 0.86,
        "hand": "left"
      },
      {
        "midi": 47,
        "time": 20.471,
        "duration": 0.176,
        "velocity": 0.86,
        "hand": "left"
      },
      {
        "midi": 55,
        "time": 20.471,
        "duration": 0.176,
        "velocity": 0.79,
        "hand": "left"
      },
      {
        "midi": 59,
        "time": 20.471,
        "duration": 0.176,
        "velocity": 0.79,
        "hand": "left"
      },
      {
        "midi": 62,
        "time": 20.471,
        "duration": 0.176,
        "velocity": 0.83,
        "hand": "right"
      },
      {
        "midi": 64,
        "time": 20.471,
        "duration": 0.176,
        "velocity": 0.83,
        "hand": "right"
      },
      {
        "midi": 35,
        "time": 20.824,
        "duration": 0.176,
        "velocity": 0.58,
        "hand": "left"
      },
      {
        "midi": 42,
        "time": 20.824,
        "duration": 0.176,
        "velocity": 0.51,
        "hand": "left"
      },
      {
        "midi": 43,
        "time": 20.824,
        "duration": 0.176,
        "velocity": 0.86,
        "hand": "left"
      },
      {
        "midi": 47,
        "time": 20.824,
        "duration": 0.176,
        "velocity": 0.86,
        "hand": "left"
      },
      {
        "midi": 55,
        "time": 20.824,
        "duration": 0.176,
        "velocity": 0.79,
        "hand": "left"
      },
      {
        "midi": 59,
        "time": 20.824,
        "duration": 0.176,
        "velocity": 0.79,
        "hand": "left"
      },
      {
        "midi": 62,
        "time": 20.824,
        "duration": 0.176,
        "velocity": 0.83,
        "hand": "right"
      },
      {
        "midi": 64,
        "time": 20.824,
        "duration": 0.176,
        "velocity": 0.83,
        "hand": "right"
      },
      {
        "midi": 35,
        "time": 21.176,
        "duration": 0.176,
        "velocity": 0.73,
        "hand": "left"
      },
      {
        "midi": 42,
        "time": 21.176,
        "duration": 0.176,
        "velocity": 0.65,
        "hand": "left"
      },
      {
        "midi": 45,
        "time": 21.176,
        "duration": 0.529,
        "velocity": 0.86,
        "hand": "left"
      },
      {
        "midi": 57,
        "time": 21.176,
        "duration": 0.529,
        "velocity": 0.79,
        "hand": "left"
      },
      {
        "midi": 61,
        "time": 21.176,
        "duration": 0.529,
        "velocity": 0.83,
        "hand": "right"
      },
      {
        "midi": 64,
        "time": 21.176,
        "duration": 0.529,
        "velocity": 0.83,
        "hand": "right"
      },
      {
        "midi": 35,
        "time": 21.529,
        "duration": 0.176,
        "velocity": 0.58,
        "hand": "left"
      },
      {
        "midi": 42,
        "time": 21.529,
        "duration": 0.176,
        "velocity": 0.51,
        "hand": "left"
      },
      {
        "midi": 33,
        "time": 21.882,
        "duration": 0.353,
        "velocity": 0.86,
        "hand": "left"
      },
      {
        "midi": 37,
        "time": 21.882,
        "duration": 0.176,
        "velocity": 0.73,
        "hand": "left"
      },
      {
        "midi": 42,
        "time": 21.882,
        "duration": 0.176,
        "velocity": 0.58,
        "hand": "left"
      },
      {
        "midi": 45,
        "time": 21.882,
        "duration": 0.353,
        "velocity": 0.79,
        "hand": "left"
      },
      {
        "midi": 57,
        "time": 21.882,
        "duration": 0.353,
        "velocity": 0.79,
        "hand": "left"
      },
      {
        "midi": 61,
        "time": 21.882,
        "duration": 0.353,
        "velocity": 0.83,
        "hand": "right"
      },
      {
        "midi": 66,
        "time": 21.882,
        "duration": 0.353,
        "velocity": 0.83,
        "hand": "right"
      },
      {
        "midi": 35,
        "time": 22.235,
        "duration": 0.176,
        "velocity": 0.58,
        "hand": "left"
      },
      {
        "midi": 42,
        "time": 22.235,
        "duration": 0.176,
        "velocity": 0.51,
        "hand": "left"
      },
      {
        "midi": 33,
        "time": 22.412,
        "duration": 0.176,
        "velocity": 0.86,
        "hand": "left"
      },
      {
        "midi": 42,
        "time": 22.412,
        "duration": 0.176,
        "velocity": 0.43,
        "hand": "left"
      },
      {
        "midi": 43,
        "time": 22.412,
        "duration": 0.176,
        "velocity": 0.86,
        "hand": "left"
      },
      {
        "midi": 45,
        "time": 22.412,
        "duration": 0.176,
        "velocity": 0.79,
        "hand": "left"
      },
      {
        "midi": 55,
        "time": 22.412,
        "duration": 0.176,
        "velocity": 0.79,
        "hand": "left"
      },
      {
        "midi": 61,
        "time": 22.412,
        "duration": 0.176,
        "velocity": 0.83,
        "hand": "right"
      },
      {
        "midi": 64,
        "time": 22.412,
        "duration": 0.176,
        "velocity": 0.83,
        "hand": "right"
      },
      {
        "midi": 35,
        "time": 22.588,
        "duration": 0.176,
        "velocity": 0.73,
        "hand": "left"
      },
      {
        "midi": 38,
        "time": 22.588,
        "duration": 1.412,
        "velocity": 0.86,
        "hand": "left"
      },
      {
        "midi": 42,
        "time": 22.588,
        "duration": 1.412,
        "velocity": 0.86,
        "hand": "left"
      },
      {
        "midi": 49,
        "time": 22.588,
        "duration": 0.176,
        "velocity": 0.65,
        "hand": "left"
      },
      {
        "midi": 50,
        "time": 22.588,
        "duration": 1.412,
        "velocity": 0.79,
        "hand": "left"
      },
      {
        "midi": 54,
        "time": 22.588,
        "duration": 1.412,
        "velocity": 0.79,
        "hand": "left"
      },
      {
        "midi": 62,
        "time": 22.588,
        "duration": 1.412,
        "velocity": 0.83,
        "hand": "right"
      },
      {
        "midi": 38,
        "time": 23.118,
        "duration": 0.176,
        "velocity": 0.51,
        "hand": "left"
      },
      {
        "midi": 38,
        "time": 23.294,
        "duration": 0.176,
        "velocity": 0.83,
        "hand": "left"
      },
      {
        "midi": 35,
        "time": 23.471,
        "duration": 0.176,
        "velocity": 0.65,
        "hand": "left"
      },
      {
        "midi": 48,
        "time": 23.647,
        "duration": 0.176,
        "velocity": 0.73,
        "hand": "left"
      },
      {
        "midi": 45,
        "time": 24.176,
        "duration": 0.176,
        "velocity": 0.83,
        "hand": "left"
      },
      {
        "midi": 41,
        "time": 24.706,
        "duration": 0.176,
        "velocity": 0.93,
        "hand": "left"
      },
      {
        "midi": 35,
        "time": 25.059,
        "duration": 0.176,
        "velocity": 0.58,
        "hand": "left"
      },
      {
        "midi": 35,
        "time": 25.235,
        "duration": 0.176,
        "velocity": 0.73,
        "hand": "left"
      },
      {
        "midi": 42,
        "time": 25.235,
        "duration": 0.176,
        "velocity": 0.65,
        "hand": "left"
      },
      {
        "midi": 43,
        "time": 25.235,
        "duration": 0.529,
        "velocity": 0.86,
        "hand": "left"
      },
      {
        "midi": 49,
        "time": 25.235,
        "duration": 0.176,
        "velocity": 0.65,
        "hand": "left"
      },
      {
        "midi": 50,
        "time": 25.235,
        "duration": 0.529,
        "velocity": 0.86,
        "hand": "left"
      },
      {
        "midi": 55,
        "time": 25.235,
        "duration": 0.529,
        "velocity": 0.79,
        "hand": "left"
      },
      {
        "midi": 62,
        "time": 25.235,
        "duration": 0.529,
        "velocity": 0.83,
        "hand": "right"
      },
      {
        "midi": 71,
        "time": 25.235,
        "duration": 0.529,
        "velocity": 0.83,
        "hand": "right"
      },
      {
        "midi": 42,
        "time": 25.588,
        "duration": 0.176,
        "velocity": 0.51,
        "hand": "left"
      },
      {
        "midi": 37,
        "time": 25.941,
        "duration": 0.176,
        "velocity": 0.73,
        "hand": "left"
      },
      {
        "midi": 42,
        "time": 25.941,
        "duration": 0.176,
        "velocity": 0.58,
        "hand": "left"
      },
      {
        "midi": 43,
        "time": 25.941,
        "duration": 0.353,
        "velocity": 0.86,
        "hand": "left"
      },
      {
        "midi": 50,
        "time": 25.941,
        "duration": 0.353,
        "velocity": 0.86,
        "hand": "left"
      },
      {
        "midi": 55,
        "time": 25.941,
        "duration": 0.353,
        "velocity": 0.79,
        "hand": "left"
      },
      {
        "midi": 62,
        "time": 25.941,
        "duration": 0.353,
        "velocity": 0.79,
        "hand": "right"
      },
      {
        "midi": 67,
        "time": 25.941,
        "duration": 0.353,
        "velocity": 0.83,
        "hand": "right"
      },
      {
        "midi": 71,
        "time": 25.941,
        "duration": 0.353,
        "velocity": 0.83,
        "hand": "right"
      },
      {
        "midi": 35,
        "time": 26.294,
        "duration": 0.176,
        "velocity": 0.58,
        "hand": "left"
      },
      {
        "midi": 42,
        "time": 26.294,
        "duration": 0.176,
        "velocity": 0.51,
        "hand": "left"
      },
      {
        "midi": 43,
        "time": 26.471,
        "duration": 0.176,
        "velocity": 0.86,
        "hand": "left"
      },
      {
        "midi": 50,
        "time": 26.471,
        "duration": 0.176,
        "velocity": 0.86,
        "hand": "left"
      },
      {
        "midi": 55,
        "time": 26.471,
        "duration": 0.176,
        "velocity": 0.79,
        "hand": "left"
      },
      {
        "midi": 62,
        "time": 26.471,
        "duration": 0.176,
        "velocity": 0.79,
        "hand": "right"
      },
      {
        "midi": 67,
        "time": 26.471,
        "duration": 0.176,
        "velocity": 0.83,
        "hand": "right"
      },
      {
        "midi": 71,
        "time": 26.471,
        "duration": 0.176,
        "velocity": 0.83,
        "hand": "right"
      },
      {
        "midi": 35,
        "time": 26.647,
        "duration": 0.176,
        "velocity": 0.73,
        "hand": "left"
      },
      {
        "midi": 42,
        "time": 26.647,
        "duration": 0.176,
        "velocity": 0.65,
        "hand": "left"
      },
      {
        "midi": 43,
        "time": 26.647,
        "duration": 0.529,
        "velocity": 0.86,
        "hand": "left"
      },
      {
        "midi": 50,
        "time": 26.647,
        "duration": 0.529,
        "velocity": 0.86,
        "hand": "left"
      },
      {
        "midi": 55,
        "time": 26.647,
        "duration": 0.529,
        "velocity": 0.79,
        "hand": "left"
      },
      {
        "midi": 62,
        "time": 26.647,
        "duration": 0.529,
        "velocity": 0.79,
        "hand": "right"
      },
      {
        "midi": 67,
        "time": 26.647,
        "duration": 0.529,
        "velocity": 0.83,
        "hand": "right"
      },
      {
        "midi": 71,
        "time": 26.647,
        "duration": 0.529,
        "velocity": 0.83,
        "hand": "right"
      },
      {
        "midi": 42,
        "time": 27,
        "duration": 0.176,
        "velocity": 0.51,
        "hand": "left"
      },
      {
        "midi": 37,
        "time": 27.353,
        "duration": 0.176,
        "velocity": 0.73,
        "hand": "left"
      },
      {
        "midi": 42,
        "time": 27.353,
        "duration": 0.176,
        "velocity": 0.58,
        "hand": "left"
      },
      {
        "midi": 43,
        "time": 27.353,
        "duration": 0.353,
        "velocity": 0.86,
        "hand": "left"
      },
      {
        "midi": 50,
        "time": 27.353,
        "duration": 0.353,
        "velocity": 0.86,
        "hand": "left"
      },
      {
        "midi": 55,
        "time": 27.353,
        "duration": 0.353,
        "velocity": 0.79,
        "hand": "left"
      },
      {
        "midi": 62,
        "time": 27.353,
        "duration": 0.353,
        "velocity": 0.79,
        "hand": "right"
      },
      {
        "midi": 67,
        "time": 27.353,
        "duration": 0.353,
        "velocity": 0.83,
        "hand": "right"
      },
      {
        "midi": 71,
        "time": 27.353,
        "duration": 0.353,
        "velocity": 0.83,
        "hand": "right"
      },
      {
        "midi": 35,
        "time": 27.706,
        "duration": 0.176,
        "velocity": 0.58,
        "hand": "left"
      },
      {
        "midi": 42,
        "time": 27.706,
        "duration": 0.176,
        "velocity": 0.51,
        "hand": "left"
      },
      {
        "midi": 43,
        "time": 27.882,
        "duration": 0.176,
        "velocity": 0.86,
        "hand": "left"
      },
      {
        "midi": 47,
        "time": 27.882,
        "duration": 0.176,
        "velocity": 0.86,
        "hand": "left"
      },
      {
        "midi": 55,
        "time": 27.882,
        "duration": 0.176,
        "velocity": 0.79,
        "hand": "left"
      },
      {
        "midi": 59,
        "time": 27.882,
        "duration": 0.176,
        "velocity": 0.79,
        "hand": "left"
      },
      {
        "midi": 64,
        "time": 27.882,
        "duration": 0.176,
        "velocity": 0.83,
        "hand": "right"
      },
      {
        "midi": 67,
        "time": 27.882,
        "duration": 0.176,
        "velocity": 0.83,
        "hand": "right"
      },
      {
        "midi": 35,
        "time": 28.059,
        "duration": 0.176,
        "velocity": 0.73,
        "hand": "left"
      },
      {
        "midi": 38,
        "time": 28.059,
        "duration": 0.882,
        "velocity": 0.86,
        "hand": "left"
      },
      {
        "midi": 42,
        "time": 28.059,
        "duration": 0.176,
        "velocity": 0.65,
        "hand": "left"
      },
      {
        "midi": 45,
        "time": 28.059,
        "duration": 0.882,
        "velocity": 0.86,
        "hand": "left"
      },
      {
        "midi": 50,
        "time": 28.059,
        "duration": 0.882,
        "velocity": 0.79,
        "hand": "left"
      },
      {
        "midi": 57,
        "time": 28.059,
        "duration": 0.882,
        "velocity": 0.79,
        "hand": "left"
      },
      {
        "midi": 62,
        "time": 28.059,
        "duration": 0.882,
        "velocity": 0.83,
        "hand": "right"
      },
      {
        "midi": 66,
        "time": 28.059,
        "duration": 0.882,
        "velocity": 0.83,
        "hand": "right"
      },
      {
        "midi": 42,
        "time": 28.412,
        "duration": 0.176,
        "velocity": 0.51,
        "hand": "left"
      },
      {
        "midi": 37,
        "time": 28.765,
        "duration": 0.176,
        "velocity": 0.73,
        "hand": "left"
      },
      {
        "midi": 42,
        "time": 28.765,
        "duration": 0.176,
        "velocity": 0.58,
        "hand": "left"
      },
      {
        "midi": 35,
        "time": 29.118,
        "duration": 0.176,
        "velocity": 0.58,
        "hand": "left"
      },
      {
        "midi": 42,
        "time": 29.118,
        "duration": 0.176,
        "velocity": 0.51,
        "hand": "left"
      },
      {
        "midi": 35,
        "time": 29.471,
        "duration": 0.176,
        "velocity": 0.73,
        "hand": "left"
      },
      {
        "midi": 38,
        "time": 29.471,
        "duration": 0.529,
        "velocity": 0.86,
        "hand": "left"
      },
      {
        "midi": 42,
        "time": 29.471,
        "duration": 0.176,
        "velocity": 0.65,
        "hand": "left"
      },
      {
        "midi": 50,
        "time": 29.471,
        "duration": 0.529,
        "velocity": 0.79,
        "hand": "left"
      },
      {
        "midi": 62,
        "time": 29.471,
        "duration": 0.529,
        "velocity": 0.79,
        "hand": "right"
      },
      {
        "midi": 66,
        "time": 29.471,
        "duration": 0.529,
        "velocity": 0.83,
        "hand": "right"
      },
      {
        "midi": 69,
        "time": 29.471,
        "duration": 0.529,
        "velocity": 0.83,
        "hand": "right"
      },
      {
        "midi": 42,
        "time": 29.824,
        "duration": 0.176,
        "velocity": 0.51,
        "hand": "left"
      },
      {
        "midi": 37,
        "time": 30.176,
        "duration": 0.176,
        "velocity": 0.73,
        "hand": "left"
      },
      {
        "midi": 42,
        "time": 30.176,
        "duration": 0.176,
        "velocity": 0.58,
        "hand": "left"
      },
      {
        "midi": 35,
        "time": 30.529,
        "duration": 0.176,
        "velocity": 0.58,
        "hand": "left"
      },
      {
        "midi": 42,
        "time": 30.529,
        "duration": 0.176,
        "velocity": 0.51,
        "hand": "left"
      },
      {
        "midi": 35,
        "time": 30.882,
        "duration": 0.176,
        "velocity": 0.73,
        "hand": "left"
      },
      {
        "midi": 42,
        "time": 30.882,
        "duration": 0.176,
        "velocity": 0.65,
        "hand": "left"
      },
      {
        "midi": 43,
        "time": 30.882,
        "duration": 0.529,
        "velocity": 0.86,
        "hand": "left"
      },
      {
        "midi": 50,
        "time": 30.882,
        "duration": 0.529,
        "velocity": 0.86,
        "hand": "left"
      },
      {
        "midi": 55,
        "time": 30.882,
        "duration": 0.529,
        "velocity": 0.79,
        "hand": "left"
      },
      {
        "midi": 62,
        "time": 30.882,
        "duration": 0.529,
        "velocity": 0.79,
        "hand": "right"
      },
      {
        "midi": 67,
        "time": 30.882,
        "duration": 0.529,
        "velocity": 0.83,
        "hand": "right"
      },
      {
        "midi": 71,
        "time": 30.882,
        "duration": 0.529,
        "velocity": 0.83,
        "hand": "right"
      },
      {
        "midi": 42,
        "time": 31.235,
        "duration": 0.176,
        "velocity": 0.51,
        "hand": "left"
      },
      {
        "midi": 37,
        "time": 31.588,
        "duration": 0.176,
        "velocity": 0.73,
        "hand": "left"
      },
      {
        "midi": 42,
        "time": 31.588,
        "duration": 0.176,
        "velocity": 0.58,
        "hand": "left"
      },
      {
        "midi": 43,
        "time": 31.588,
        "duration": 0.353,
        "velocity": 0.86,
        "hand": "left"
      },
      {
        "midi": 50,
        "time": 31.588,
        "duration": 0.353,
        "velocity": 0.86,
        "hand": "left"
      },
      {
        "midi": 55,
        "time": 31.588,
        "duration": 0.353,
        "velocity": 0.79,
        "hand": "left"
      },
      {
        "midi": 62,
        "time": 31.588,
        "duration": 0.353,
        "velocity": 0.79,
        "hand": "right"
      },
      {
        "midi": 67,
        "time": 31.588,
        "duration": 0.353,
        "velocity": 0.83,
        "hand": "right"
      },
      {
        "midi": 71,
        "time": 31.588,
        "duration": 0.353,
        "velocity": 0.83,
        "hand": "right"
      },
      {
        "midi": 35,
        "time": 31.941,
        "duration": 0.176,
        "velocity": 0.58,
        "hand": "left"
      },
      {
        "midi": 42,
        "time": 31.941,
        "duration": 0.176,
        "velocity": 0.51,
        "hand": "left"
      },
      {
        "midi": 43,
        "time": 32.118,
        "duration": 0.176,
        "velocity": 0.86,
        "hand": "left"
      },
      {
        "midi": 50,
        "time": 32.118,
        "duration": 0.176,
        "velocity": 0.86,
        "hand": "left"
      },
      {
        "midi": 55,
        "time": 32.118,
        "duration": 0.176,
        "velocity": 0.79,
        "hand": "left"
      },
      {
        "midi": 62,
        "time": 32.118,
        "duration": 0.176,
        "velocity": 0.79,
        "hand": "right"
      },
      {
        "midi": 67,
        "time": 32.118,
        "duration": 0.176,
        "velocity": 0.83,
        "hand": "right"
      },
      {
        "midi": 71,
        "time": 32.118,
        "duration": 0.176,
        "velocity": 0.83,
        "hand": "right"
      },
      {
        "midi": 35,
        "time": 32.294,
        "duration": 0.176,
        "velocity": 0.73,
        "hand": "left"
      },
      {
        "midi": 40,
        "time": 32.294,
        "duration": 0.176,
        "velocity": 0.86,
        "hand": "left"
      },
      {
        "midi": 42,
        "time": 32.294,
        "duration": 0.176,
        "velocity": 0.65,
        "hand": "left"
      },
      {
        "midi": 50,
        "time": 32.294,
        "duration": 0.176,
        "velocity": 0.86,
        "hand": "left"
      },
      {
        "midi": 52,
        "time": 32.294,
        "duration": 0.176,
        "velocity": 0.79,
        "hand": "left"
      },
      {
        "midi": 62,
        "time": 32.294,
        "duration": 0.176,
        "velocity": 0.79,
        "hand": "right"
      },
      {
        "midi": 68,
        "time": 32.294,
        "duration": 0.176,
        "velocity": 0.83,
        "hand": "right"
      },
      {
        "midi": 71,
        "time": 32.294,
        "duration": 0.176,
        "velocity": 0.83,
        "hand": "right"
      },
      {
        "midi": 40,
        "time": 32.647,
        "duration": 0.176,
        "velocity": 0.86,
        "hand": "left"
      },
      {
        "midi": 42,
        "time": 32.647,
        "duration": 0.176,
        "velocity": 0.51,
        "hand": "left"
      },
      {
        "midi": 47,
        "time": 32.647,
        "duration": 0.176,
        "velocity": 0.86,
        "hand": "left"
      },
      {
        "midi": 52,
        "time": 32.647,
        "duration": 0.176,
        "velocity": 0.79,
        "hand": "left"
      },
      {
        "midi": 59,
        "time": 32.647,
        "duration": 0.176,
        "velocity": 0.79,
        "hand": "left"
      },
      {
        "midi": 68,
        "time": 32.647,
        "duration": 0.176,
        "velocity": 0.83,
        "hand": "right"
      },
      {
        "midi": 74,
        "time": 32.647,
        "duration": 0.176,
        "velocity": 0.83,
        "hand": "right"
      },
      {
        "midi": 37,
        "time": 33,
        "duration": 0.176,
        "velocity": 0.73,
        "hand": "left"
      },
      {
        "midi": 40,
        "time": 33,
        "duration": 0.176,
        "velocity": 0.86,
        "hand": "left"
      },
      {
        "midi": 42,
        "time": 33,
        "duration": 0.176,
        "velocity": 0.58,
        "hand": "left"
      },
      {
        "midi": 45,
        "time": 33,
        "duration": 0.176,
        "velocity": 0.86,
        "hand": "left"
      },
      {
        "midi": 52,
        "time": 33,
        "duration": 0.176,
        "velocity": 0.79,
        "hand": "left"
      },
      {
        "midi": 57,
        "time": 33,
        "duration": 0.176,
        "velocity": 0.79,
        "hand": "left"
      },
      {
        "midi": 64,
        "time": 33,
        "duration": 0.176,
        "velocity": 0.83,
        "hand": "right"
      },
      {
        "midi": 73,
        "time": 33,
        "duration": 0.176,
        "velocity": 0.83,
        "hand": "right"
      },
      {
        "midi": 35,
        "time": 33.353,
        "duration": 0.176,
        "velocity": 0.58,
        "hand": "left"
      },
      {
        "midi": 40,
        "time": 33.353,
        "duration": 0.176,
        "velocity": 0.86,
        "hand": "left"
      },
      {
        "midi": 42,
        "time": 33.353,
        "duration": 0.176,
        "velocity": 0.51,
        "hand": "left"
      },
      {
        "midi": 44,
        "time": 33.353,
        "duration": 0.176,
        "velocity": 0.86,
        "hand": "left"
      },
      {
        "midi": 52,
        "time": 33.353,
        "duration": 0.176,
        "velocity": 0.79,
        "hand": "left"
      },
      {
        "midi": 56,
        "time": 33.353,
        "duration": 0.176,
        "velocity": 0.79,
        "hand": "left"
      },
      {
        "midi": 62,
        "time": 33.353,
        "duration": 0.176,
        "velocity": 0.83,
        "hand": "right"
      },
      {
        "midi": 71,
        "time": 33.353,
        "duration": 0.176,
        "velocity": 0.83,
        "hand": "right"
      },
      {
        "midi": 33,
        "time": 33.706,
        "duration": 1.412,
        "velocity": 0.86,
        "hand": "left"
      },
      {
        "midi": 35,
        "time": 33.706,
        "duration": 0.176,
        "velocity": 0.73,
        "hand": "left"
      },
      {
        "midi": 42,
        "time": 33.706,
        "duration": 0.176,
        "velocity": 0.65,
        "hand": "left"
      },
      {
        "midi": 45,
        "time": 33.706,
        "duration": 1.412,
        "velocity": 0.79,
        "hand": "left"
      },
      {
        "midi": 57,
        "time": 33.706,
        "duration": 1.412,
        "velocity": 0.79,
        "hand": "left"
      },
      {
        "midi": 61,
        "time": 33.706,
        "duration": 1.412,
        "velocity": 0.83,
        "hand": "right"
      },
      {
        "midi": 69,
        "time": 33.706,
        "duration": 0.882,
        "velocity": 0.83,
        "hand": "right"
      },
      {
        "midi": 69,
        "time": 33.706,
        "duration": 1.412,
        "velocity": 0.86,
        "hand": "right"
      },
      {
        "midi": 42,
        "time": 34.059,
        "duration": 0.176,
        "velocity": 0.51,
        "hand": "left"
      },
      {
        "midi": 37,
        "time": 34.412,
        "duration": 0.176,
        "velocity": 0.73,
        "hand": "left"
      },
      {
        "midi": 42,
        "time": 34.412,
        "duration": 0.176,
        "velocity": 0.58,
        "hand": "left"
      },
      {
        "midi": 35,
        "time": 34.765,
        "duration": 0.176,
        "velocity": 0.58,
        "hand": "left"
      },
      {
        "midi": 42,
        "time": 34.765,
        "duration": 0.176,
        "velocity": 0.51,
        "hand": "left"
      },
      {
        "midi": 35,
        "time": 35.118,
        "duration": 0.176,
        "velocity": 0.73,
        "hand": "left"
      },
      {
        "midi": 42,
        "time": 35.118,
        "duration": 0.176,
        "velocity": 0.65,
        "hand": "left"
      },
      {
        "midi": 67,
        "time": 35.118,
        "duration": 0.529,
        "velocity": 0.83,
        "hand": "right"
      },
      {
        "midi": 42,
        "time": 35.471,
        "duration": 0.176,
        "velocity": 0.51,
        "hand": "left"
      },
      {
        "midi": 37,
        "time": 35.824,
        "duration": 0.176,
        "velocity": 0.73,
        "hand": "left"
      },
      {
        "midi": 42,
        "time": 35.824,
        "duration": 0.176,
        "velocity": 0.58,
        "hand": "left"
      },
      {
        "midi": 35,
        "time": 36.176,
        "duration": 0.176,
        "velocity": 0.58,
        "hand": "left"
      },
      {
        "midi": 42,
        "time": 36.176,
        "duration": 0.176,
        "velocity": 0.51,
        "hand": "left"
      },
      {
        "midi": 35,
        "time": 36.529,
        "duration": 0.176,
        "velocity": 0.73,
        "hand": "left"
      },
      {
        "midi": 38,
        "time": 36.529,
        "duration": 0.529,
        "velocity": 0.86,
        "hand": "left"
      },
      {
        "midi": 42,
        "time": 36.529,
        "duration": 0.176,
        "velocity": 0.65,
        "hand": "left"
      },
      {
        "midi": 45,
        "time": 36.529,
        "duration": 0.529,
        "velocity": 0.86,
        "hand": "left"
      },
      {
        "midi": 50,
        "time": 36.529,
        "duration": 0.529,
        "velocity": 0.79,
        "hand": "left"
      },
      {
        "midi": 57,
        "time": 36.529,
        "duration": 0.529,
        "velocity": 0.79,
        "hand": "left"
      },
      {
        "midi": 62,
        "time": 36.529,
        "duration": 0.529,
        "velocity": 0.83,
        "hand": "right"
      },
      {
        "midi": 66,
        "time": 36.529,
        "duration": 0.529,
        "velocity": 0.83,
        "hand": "right"
      },
      {
        "midi": 42,
        "time": 36.882,
        "duration": 0.176,
        "velocity": 0.51,
        "hand": "left"
      },
      {
        "midi": 37,
        "time": 37.235,
        "duration": 0.176,
        "velocity": 0.73,
        "hand": "left"
      },
      {
        "midi": 38,
        "time": 37.235,
        "duration": 0.353,
        "velocity": 0.86,
        "hand": "left"
      },
      {
        "midi": 42,
        "time": 37.235,
        "duration": 0.176,
        "velocity": 0.58,
        "hand": "left"
      },
      {
        "midi": 45,
        "time": 37.235,
        "duration": 0.353,
        "velocity": 0.86,
        "hand": "left"
      },
      {
        "midi": 50,
        "time": 37.235,
        "duration": 0.353,
        "velocity": 0.79,
        "hand": "left"
      },
      {
        "midi": 57,
        "time": 37.235,
        "duration": 0.353,
        "velocity": 0.79,
        "hand": "left"
      },
      {
        "midi": 62,
        "time": 37.235,
        "duration": 0.353,
        "velocity": 0.83,
        "hand": "right"
      },
      {
        "midi": 66,
        "time": 37.235,
        "duration": 0.353,
        "velocity": 0.83,
        "hand": "right"
      },
      {
        "midi": 35,
        "time": 37.588,
        "duration": 0.176,
        "velocity": 0.58,
        "hand": "left"
      },
      {
        "midi": 42,
        "time": 37.588,
        "duration": 0.176,
        "velocity": 0.51,
        "hand": "left"
      },
      {
        "midi": 38,
        "time": 37.765,
        "duration": 0.176,
        "velocity": 0.86,
        "hand": "left"
      },
      {
        "midi": 44,
        "time": 37.765,
        "duration": 0.176,
        "velocity": 0.86,
        "hand": "left"
      },
      {
        "midi": 50,
        "time": 37.765,
        "duration": 0.176,
        "velocity": 0.79,
        "hand": "left"
      },
      {
        "midi": 56,
        "time": 37.765,
        "duration": 0.176,
        "velocity": 0.79,
        "hand": "left"
      },
      {
        "midi": 62,
        "time": 37.765,
        "duration": 0.176,
        "velocity": 0.83,
        "hand": "right"
      },
      {
        "midi": 65,
        "time": 37.765,
        "duration": 0.176,
        "velocity": 0.83,
        "hand": "right"
      },
      {
        "midi": 35,
        "time": 37.941,
        "duration": 0.176,
        "velocity": 0.73,
        "hand": "left"
      },
      {
        "midi": 38,
        "time": 37.941,
        "duration": 0.529,
        "velocity": 0.86,
        "hand": "left"
      },
      {
        "midi": 42,
        "time": 37.941,
        "duration": 0.176,
        "velocity": 0.65,
        "hand": "left"
      },
      {
        "midi": 45,
        "time": 37.941,
        "duration": 0.529,
        "velocity": 0.86,
        "hand": "left"
      },
      {
        "midi": 50,
        "time": 37.941,
        "duration": 0.529,
        "velocity": 0.79,
        "hand": "left"
      },
      {
        "midi": 57,
        "time": 37.941,
        "duration": 0.529,
        "velocity": 0.79,
        "hand": "left"
      },
      {
        "midi": 62,
        "time": 37.941,
        "duration": 0.529,
        "velocity": 0.83,
        "hand": "right"
      },
      {
        "midi": 66,
        "time": 37.941,
        "duration": 0.529,
        "velocity": 0.83,
        "hand": "right"
      },
      {
        "midi": 42,
        "time": 38.294,
        "duration": 0.176,
        "velocity": 0.51,
        "hand": "left"
      },
      {
        "midi": 37,
        "time": 38.647,
        "duration": 0.176,
        "velocity": 0.73,
        "hand": "left"
      },
      {
        "midi": 38,
        "time": 38.647,
        "duration": 0.353,
        "velocity": 0.86,
        "hand": "left"
      },
      {
        "midi": 42,
        "time": 38.647,
        "duration": 0.176,
        "velocity": 0.58,
        "hand": "left"
      },
      {
        "midi": 45,
        "time": 38.647,
        "duration": 0.353,
        "velocity": 0.86,
        "hand": "left"
      },
      {
        "midi": 50,
        "time": 38.647,
        "duration": 0.353,
        "velocity": 0.79,
        "hand": "left"
      },
      {
        "midi": 57,
        "time": 38.647,
        "duration": 0.353,
        "velocity": 0.79,
        "hand": "left"
      },
      {
        "midi": 62,
        "time": 38.647,
        "duration": 0.353,
        "velocity": 0.83,
        "hand": "right"
      },
      {
        "midi": 66,
        "time": 38.647,
        "duration": 0.353,
        "velocity": 0.83,
        "hand": "right"
      },
      {
        "midi": 35,
        "time": 39,
        "duration": 0.176,
        "velocity": 0.58,
        "hand": "left"
      },
      {
        "midi": 42,
        "time": 39,
        "duration": 0.176,
        "velocity": 0.51,
        "hand": "left"
      },
      {
        "midi": 38,
        "time": 39.176,
        "duration": 0.176,
        "velocity": 0.86,
        "hand": "left"
      },
      {
        "midi": 45,
        "time": 39.176,
        "duration": 0.176,
        "velocity": 0.86,
        "hand": "left"
      },
      {
        "midi": 50,
        "time": 39.176,
        "duration": 0.176,
        "velocity": 0.79,
        "hand": "left"
      },
      {
        "midi": 57,
        "time": 39.176,
        "duration": 0.176,
        "velocity": 0.79,
        "hand": "left"
      },
      {
        "midi": 64,
        "time": 39.176,
        "duration": 0.176,
        "velocity": 0.83,
        "hand": "right"
      },
      {
        "midi": 67,
        "time": 39.176,
        "duration": 0.176,
        "velocity": 0.83,
        "hand": "right"
      },
      {
        "midi": 35,
        "time": 39.353,
        "duration": 0.176,
        "velocity": 0.73,
        "hand": "left"
      },
      {
        "midi": 38,
        "time": 39.353,
        "duration": 0.882,
        "velocity": 0.86,
        "hand": "left"
      },
      {
        "midi": 42,
        "time": 39.353,
        "duration": 0.176,
        "velocity": 0.65,
        "hand": "left"
      },
      {
        "midi": 50,
        "time": 39.353,
        "duration": 0.882,
        "velocity": 0.79,
        "hand": "left"
      },
      {
        "midi": 62,
        "time": 39.353,
        "duration": 0.882,
        "velocity": 0.79,
        "hand": "right"
      },
      {
        "midi": 66,
        "time": 39.353,
        "duration": 0.882,
        "velocity": 0.83,
        "hand": "right"
      },
      {
        "midi": 69,
        "time": 39.353,
        "duration": 0.882,
        "velocity": 0.83,
        "hand": "right"
      },
      {
        "midi": 42,
        "time": 39.706,
        "duration": 0.176,
        "velocity": 0.51,
        "hand": "left"
      },
      {
        "midi": 37,
        "time": 40.059,
        "duration": 0.176,
        "velocity": 0.73,
        "hand": "left"
      },
      {
        "midi": 42,
        "time": 40.059,
        "duration": 0.176,
        "velocity": 0.58,
        "hand": "left"
      },
      {
        "midi": 35,
        "time": 40.412,
        "duration": 0.176,
        "velocity": 0.58,
        "hand": "left"
      },
      {
        "midi": 42,
        "time": 40.412,
        "duration": 0.176,
        "velocity": 0.51,
        "hand": "left"
      },
      {
        "midi": 35,
        "time": 40.765,
        "duration": 0.176,
        "velocity": 0.73,
        "hand": "left"
      },
      {
        "midi": 38,
        "time": 40.765,
        "duration": 0.529,
        "velocity": 0.86,
        "hand": "left"
      },
      {
        "midi": 42,
        "time": 40.765,
        "duration": 0.176,
        "velocity": 0.65,
        "hand": "left"
      },
      {
        "midi": 50,
        "time": 40.765,
        "duration": 0.529,
        "velocity": 0.79,
        "hand": "left"
      },
      {
        "midi": 62,
        "time": 40.765,
        "duration": 0.529,
        "velocity": 0.79,
        "hand": "right"
      },
      {
        "midi": 66,
        "time": 40.765,
        "duration": 0.529,
        "velocity": 0.83,
        "hand": "right"
      },
      {
        "midi": 69,
        "time": 40.765,
        "duration": 0.529,
        "velocity": 0.83,
        "hand": "right"
      },
      {
        "midi": 42,
        "time": 41.118,
        "duration": 0.176,
        "velocity": 0.51,
        "hand": "left"
      },
      {
        "midi": 37,
        "time": 41.471,
        "duration": 0.176,
        "velocity": 0.73,
        "hand": "left"
      },
      {
        "midi": 38,
        "time": 41.471,
        "duration": 0.353,
        "velocity": 0.86,
        "hand": "left"
      },
      {
        "midi": 42,
        "time": 41.471,
        "duration": 0.176,
        "velocity": 0.58,
        "hand": "left"
      },
      {
        "midi": 45,
        "time": 41.471,
        "duration": 0.353,
        "velocity": 0.86,
        "hand": "left"
      },
      {
        "midi": 50,
        "time": 41.471,
        "duration": 0.353,
        "velocity": 0.79,
        "hand": "left"
      },
      {
        "midi": 57,
        "time": 41.471,
        "duration": 0.353,
        "velocity": 0.79,
        "hand": "left"
      },
      {
        "midi": 66,
        "time": 41.471,
        "duration": 0.353,
        "velocity": 0.83,
        "hand": "right"
      },
      {
        "midi": 69,
        "time": 41.471,
        "duration": 0.353,
        "velocity": 0.83,
        "hand": "right"
      },
      {
        "midi": 35,
        "time": 41.824,
        "duration": 0.176,
        "velocity": 0.58,
        "hand": "left"
      },
      {
        "midi": 42,
        "time": 41.824,
        "duration": 0.176,
        "velocity": 0.51,
        "hand": "left"
      },
      {
        "midi": 38,
        "time": 42,
        "duration": 0.176,
        "velocity": 0.86,
        "hand": "left"
      },
      {
        "midi": 45,
        "time": 42,
        "duration": 0.176,
        "velocity": 0.86,
        "hand": "left"
      },
      {
        "midi": 50,
        "time": 42,
        "duration": 0.176,
        "velocity": 0.79,
        "hand": "left"
      },
      {
        "midi": 57,
        "time": 42,
        "duration": 0.176,
        "velocity": 0.79,
        "hand": "left"
      },
      {
        "midi": 62,
        "time": 42,
        "duration": 0.176,
        "velocity": 0.83,
        "hand": "right"
      },
      {
        "midi": 66,
        "time": 42,
        "duration": 0.176,
        "velocity": 0.83,
        "hand": "right"
      },
      {
        "midi": 35,
        "time": 42.176,
        "duration": 0.176,
        "velocity": 0.73,
        "hand": "left"
      },
      {
        "midi": 42,
        "time": 42.176,
        "duration": 0.176,
        "velocity": 0.65,
        "hand": "left"
      },
      {
        "midi": 43,
        "time": 42.176,
        "duration": 0.529,
        "velocity": 0.86,
        "hand": "left"
      },
      {
        "midi": 47,
        "time": 42.176,
        "duration": 0.529,
        "velocity": 0.86,
        "hand": "left"
      },
      {
        "midi": 55,
        "time": 42.176,
        "duration": 0.529,
        "velocity": 0.79,
        "hand": "left"
      },
      {
        "midi": 59,
        "time": 42.176,
        "duration": 0.529,
        "velocity": 0.79,
        "hand": "left"
      },
      {
        "midi": 62,
        "time": 42.176,
        "duration": 0.529,
        "velocity": 0.83,
        "hand": "right"
      },
      {
        "midi": 64,
        "time": 42.176,
        "duration": 0.529,
        "velocity": 0.83,
        "hand": "right"
      },
      {
        "midi": 42,
        "time": 42.529,
        "duration": 0.176,
        "velocity": 0.51,
        "hand": "left"
      },
      {
        "midi": 37,
        "time": 42.882,
        "duration": 0.176,
        "velocity": 0.73,
        "hand": "left"
      },
      {
        "midi": 42,
        "time": 42.882,
        "duration": 0.176,
        "velocity": 0.58,
        "hand": "left"
      },
      {
        "midi": 43,
        "time": 42.882,
        "duration": 0.353,
        "velocity": 0.86,
        "hand": "left"
      },
      {
        "midi": 47,
        "time": 42.882,
        "duration": 0.353,
        "velocity": 0.86,
        "hand": "left"
      },
      {
        "midi": 55,
        "time": 42.882,
        "duration": 0.353,
        "velocity": 0.79,
        "hand": "left"
      },
      {
        "midi": 59,
        "time": 42.882,
        "duration": 0.353,
        "velocity": 0.79,
        "hand": "left"
      },
      {
        "midi": 62,
        "time": 42.882,
        "duration": 0.353,
        "velocity": 0.83,
        "hand": "right"
      },
      {
        "midi": 64,
        "time": 43.059,
        "duration": 0.353,
        "velocity": 0.83,
        "hand": "right"
      },
      {
        "midi": 35,
        "time": 43.235,
        "duration": 0.176,
        "velocity": 0.58,
        "hand": "left"
      },
      {
        "midi": 42,
        "time": 43.235,
        "duration": 0.176,
        "velocity": 0.51,
        "hand": "left"
      },
      {
        "midi": 43,
        "time": 43.412,
        "duration": 0.176,
        "velocity": 0.86,
        "hand": "left"
      },
      {
        "midi": 47,
        "time": 43.412,
        "duration": 0.176,
        "velocity": 0.86,
        "hand": "left"
      },
      {
        "midi": 55,
        "time": 43.412,
        "duration": 0.176,
        "velocity": 0.79,
        "hand": "left"
      },
      {
        "midi": 59,
        "time": 43.412,
        "duration": 0.176,
        "velocity": 0.79,
        "hand": "left"
      },
      {
        "midi": 62,
        "time": 43.412,
        "duration": 0.176,
        "velocity": 0.83,
        "hand": "right"
      },
      {
        "midi": 64,
        "time": 43.412,
        "duration": 0.176,
        "velocity": 0.83,
        "hand": "right"
      },
      {
        "midi": 35,
        "time": 43.588,
        "duration": 0.176,
        "velocity": 0.73,
        "hand": "left"
      },
      {
        "midi": 42,
        "time": 43.588,
        "duration": 0.176,
        "velocity": 0.65,
        "hand": "left"
      },
      {
        "midi": 45,
        "time": 43.588,
        "duration": 0.529,
        "velocity": 0.86,
        "hand": "left"
      },
      {
        "midi": 57,
        "time": 43.588,
        "duration": 0.529,
        "velocity": 0.79,
        "hand": "left"
      },
      {
        "midi": 61,
        "time": 43.588,
        "duration": 0.529,
        "velocity": 0.83,
        "hand": "right"
      },
      {
        "midi": 64,
        "time": 43.588,
        "duration": 0.529,
        "velocity": 0.83,
        "hand": "right"
      },
      {
        "midi": 38,
        "time": 43.941,
        "duration": 0.176,
        "velocity": 0.73,
        "hand": "left"
      },
      {
        "midi": 42,
        "time": 43.941,
        "duration": 0.176,
        "velocity": 0.51,
        "hand": "left"
      },
      {
        "midi": 38,
        "time": 44.118,
        "duration": 0.176,
        "velocity": 0.58,
        "hand": "left"
      },
      {
        "midi": 33,
        "time": 44.294,
        "duration": 0.353,
        "velocity": 0.86,
        "hand": "left"
      },
      {
        "midi": 38,
        "time": 44.294,
        "duration": 0.176,
        "velocity": 0.83,
        "hand": "left"
      },
      {
        "midi": 42,
        "time": 44.294,
        "duration": 0.176,
        "velocity": 0.58,
        "hand": "left"
      },
      {
        "midi": 45,
        "time": 44.294,
        "duration": 0.353,
        "velocity": 0.79,
        "hand": "left"
      },
      {
        "midi": 57,
        "time": 44.294,
        "duration": 0.353,
        "velocity": 0.79,
        "hand": "left"
      },
      {
        "midi": 61,
        "time": 44.294,
        "duration": 0.353,
        "velocity": 0.83,
        "hand": "right"
      },
      {
        "midi": 66,
        "time": 44.294,
        "duration": 0.353,
        "velocity": 0.83,
        "hand": "right"
      },
      {
        "midi": 35,
        "time": 44.647,
        "duration": 0.176,
        "velocity": 0.58,
        "hand": "left"
      },
      {
        "midi": 46,
        "time": 44.647,
        "duration": 0.176,
        "velocity": 0.65,
        "hand": "left"
      },
      {
        "midi": 33,
        "time": 44.824,
        "duration": 0.176,
        "velocity": 0.86,
        "hand": "left"
      },
      {
        "midi": 43,
        "time": 44.824,
        "duration": 0.176,
        "velocity": 0.86,
        "hand": "left"
      },
      {
        "midi": 45,
        "time": 44.824,
        "duration": 0.176,
        "velocity": 0.79,
        "hand": "left"
      },
      {
        "midi": 55,
        "time": 44.824,
        "duration": 0.176,
        "velocity": 0.79,
        "hand": "left"
      },
      {
        "midi": 61,
        "time": 44.824,
        "duration": 0.176,
        "velocity": 0.83,
        "hand": "right"
      },
      {
        "midi": 64,
        "time": 44.824,
        "duration": 0.176,
        "velocity": 0.83,
        "hand": "right"
      },
      {
        "midi": 35,
        "time": 45,
        "duration": 0.176,
        "velocity": 0.65,
        "hand": "left"
      },
      {
        "midi": 38,
        "time": 45,
        "duration": 1.412,
        "velocity": 0.86,
        "hand": "left"
      },
      {
        "midi": 42,
        "time": 45,
        "duration": 1.412,
        "velocity": 0.86,
        "hand": "left"
      },
      {
        "midi": 42,
        "time": 45,
        "duration": 0.176,
        "velocity": 0.58,
        "hand": "left"
      },
      {
        "midi": 50,
        "time": 45,
        "duration": 1.412,
        "velocity": 0.79,
        "hand": "left"
      },
      {
        "midi": 54,
        "time": 45,
        "duration": 1.412,
        "velocity": 0.79,
        "hand": "left"
      },
      {
        "midi": 62,
        "time": 45,
        "duration": 1.412,
        "velocity": 0.83,
        "hand": "right"
      },
      {
        "midi": 42,
        "time": 45.353,
        "duration": 0.176,
        "velocity": 0.36,
        "hand": "left"
      },
      {
        "midi": 42,
        "time": 45.529,
        "duration": 0.176,
        "velocity": 0.73,
        "hand": "left"
      },
      {
        "midi": 38,
        "time": 45.706,
        "duration": 0.176,
        "velocity": 0.73,
        "hand": "left"
      },
      {
        "midi": 46,
        "time": 45.706,
        "duration": 0.176,
        "velocity": 0.73,
        "hand": "left"
      },
      {
        "midi": 35,
        "time": 46.235,
        "duration": 0.176,
        "velocity": 0.65,
        "hand": "left"
      },
      {
        "midi": 38,
        "time": 46.412,
        "duration": 0.176,
        "velocity": 0.73,
        "hand": "left"
      },
      {
        "midi": 38,
        "time": 46.588,
        "duration": 0.176,
        "velocity": 0.43,
        "hand": "left"
      },
      {
        "midi": 35,
        "time": 46.941,
        "duration": 0.176,
        "velocity": 0.65,
        "hand": "left"
      },
      {
        "midi": 38,
        "time": 47.118,
        "duration": 0.176,
        "velocity": 0.73,
        "hand": "left"
      },
      {
        "midi": 38,
        "time": 47.294,
        "duration": 0.176,
        "velocity": 0.43,
        "hand": "left"
      },
      {
        "midi": 41,
        "time": 47.471,
        "duration": 0.176,
        "velocity": 0.83,
        "hand": "left"
      },
      {
        "midi": 35,
        "time": 47.824,
        "duration": 0.176,
        "velocity": 0.73,
        "hand": "left"
      },
      {
        "midi": 38,
        "time": 47.824,
        "duration": 0.176,
        "velocity": 0.86,
        "hand": "left"
      },
      {
        "midi": 42,
        "time": 47.824,
        "duration": 0.176,
        "velocity": 0.65,
        "hand": "left"
      },
      {
        "midi": 49,
        "time": 47.824,
        "duration": 0.176,
        "velocity": 0.65,
        "hand": "left"
      },
      {
        "midi": 50,
        "time": 47.824,
        "duration": 0.176,
        "velocity": 0.79,
        "hand": "left"
      },
      {
        "midi": 62,
        "time": 47.824,
        "duration": 0.176,
        "velocity": 0.79,
        "hand": "right"
      },
      {
        "midi": 66,
        "time": 47.824,
        "duration": 0.176,
        "velocity": 0.83,
        "hand": "right"
      },
      {
        "midi": 69,
        "time": 47.824,
        "duration": 1.588,
        "velocity": 0.83,
        "hand": "right"
      },
      {
        "midi": 38,
        "time": 48,
        "duration": 0.353,
        "velocity": 0.86,
        "hand": "left"
      },
      {
        "midi": 50,
        "time": 48,
        "duration": 0.353,
        "velocity": 0.79,
        "hand": "left"
      },
      {
        "midi": 62,
        "time": 48,
        "duration": 0.353,
        "velocity": 0.79,
        "hand": "right"
      },
      {
        "midi": 66,
        "time": 48,
        "duration": 0.353,
        "velocity": 0.83,
        "hand": "right"
      },
      {
        "midi": 42,
        "time": 48.176,
        "duration": 0.176,
        "velocity": 0.51,
        "hand": "left"
      },
      {
        "midi": 42,
        "time": 48.353,
        "duration": 0.176,
        "velocity": 0.43,
        "hand": "left"
      },
      {
        "midi": 38,
        "time": 48.529,
        "duration": 0.353,
        "velocity": 0.86,
        "hand": "left"
      },
      {
        "midi": 38,
        "time": 48.529,
        "duration": 0.176,
        "velocity": 0.73,
        "hand": "left"
      },
      {
        "midi": 42,
        "time": 48.529,
        "duration": 0.176,
        "velocity": 0.58,
        "hand": "left"
      },
      {
        "midi": 50,
        "time": 48.529,
        "duration": 0.353,
        "velocity": 0.79,
        "hand": "left"
      },
      {
        "midi": 62,
        "time": 48.529,
        "duration": 0.353,
        "velocity": 0.79,
        "hand": "right"
      },
      {
        "midi": 66,
        "time": 48.529,
        "duration": 0.353,
        "velocity": 0.83,
        "hand": "right"
      },
      {
        "midi": 42,
        "time": 48.882,
        "duration": 0.176,
        "velocity": 0.51,
        "hand": "left"
      },
      {
        "midi": 35,
        "time": 49.059,
        "duration": 0.176,
        "velocity": 0.58,
        "hand": "left"
      },
      {
        "midi": 38,
        "time": 49.059,
        "duration": 0.176,
        "velocity": 0.86,
        "hand": "left"
      },
      {
        "midi": 42,
        "time": 49.059,
        "duration": 0.176,
        "velocity": 0.43,
        "hand": "left"
      },
      {
        "midi": 50,
        "time": 49.059,
        "duration": 0.176,
        "velocity": 0.79,
        "hand": "left"
      },
      {
        "midi": 62,
        "time": 49.059,
        "duration": 0.176,
        "velocity": 0.79,
        "hand": "right"
      },
      {
        "midi": 66,
        "time": 49.059,
        "duration": 0.176,
        "velocity": 0.83,
        "hand": "right"
      },
      {
        "midi": 35,
        "time": 49.235,
        "duration": 0.176,
        "velocity": 0.73,
        "hand": "left"
      },
      {
        "midi": 38,
        "time": 49.235,
        "duration": 0.529,
        "velocity": 0.86,
        "hand": "left"
      },
      {
        "midi": 42,
        "time": 49.235,
        "duration": 0.176,
        "velocity": 0.65,
        "hand": "left"
      },
      {
        "midi": 50,
        "time": 49.235,
        "duration": 0.529,
        "velocity": 0.79,
        "hand": "left"
      },
      {
        "midi": 62,
        "time": 49.235,
        "duration": 0.529,
        "velocity": 0.79,
        "hand": "right"
      },
      {
        "midi": 66,
        "time": 49.235,
        "duration": 0.529,
        "velocity": 0.83,
        "hand": "right"
      },
      {
        "midi": 69,
        "time": 49.235,
        "duration": 0.353,
        "velocity": 0.83,
        "hand": "right"
      },
      {
        "midi": 42,
        "time": 49.588,
        "duration": 0.176,
        "velocity": 0.51,
        "hand": "left"
      },
      {
        "midi": 42,
        "time": 49.765,
        "duration": 0.176,
        "velocity": 0.43,
        "hand": "left"
      },
      {
        "midi": 66,
        "time": 49.765,
        "duration": 0.176,
        "velocity": 0.83,
        "hand": "right"
      },
      {
        "midi": 38,
        "time": 49.941,
        "duration": 0.176,
        "velocity": 0.73,
        "hand": "left"
      },
      {
        "midi": 42,
        "time": 49.941,
        "duration": 0.176,
        "velocity": 0.58,
        "hand": "left"
      },
      {
        "midi": 69,
        "time": 49.941,
        "duration": 0.353,
        "velocity": 0.83,
        "hand": "right"
      },
      {
        "midi": 35,
        "time": 50.294,
        "duration": 0.176,
        "velocity": 0.58,
        "hand": "left"
      },
      {
        "midi": 42,
        "time": 50.294,
        "duration": 0.176,
        "velocity": 0.51,
        "hand": "left"
      },
      {
        "midi": 42,
        "time": 50.471,
        "duration": 0.176,
        "velocity": 0.43,
        "hand": "left"
      },
      {
        "midi": 74,
        "time": 50.471,
        "duration": 0.176,
        "velocity": 0.83,
        "hand": "right"
      },
      {
        "midi": 33,
        "time": 50.647,
        "duration": 0.176,
        "velocity": 0.86,
        "hand": "left"
      },
      {
        "midi": 35,
        "time": 50.647,
        "duration": 0.176,
        "velocity": 0.73,
        "hand": "left"
      },
      {
        "midi": 42,
        "time": 50.647,
        "duration": 0.176,
        "velocity": 0.65,
        "hand": "left"
      },
      {
        "midi": 45,
        "time": 50.647,
        "duration": 0.176,
        "velocity": 0.79,
        "hand": "left"
      },
      {
        "midi": 52,
        "time": 50.647,
        "duration": 0.176,
        "velocity": 0.86,
        "hand": "left"
      },
      {
        "midi": 64,
        "time": 50.647,
        "duration": 0.176,
        "velocity": 0.79,
        "hand": "right"
      },
      {
        "midi": 67,
        "time": 50.647,
        "duration": 0.176,
        "velocity": 0.83,
        "hand": "right"
      },
      {
        "midi": 73,
        "time": 50.647,
        "duration": 1.588,
        "velocity": 0.83,
        "hand": "right"
      },
      {
        "midi": 73,
        "time": 50.647,
        "duration": 0.882,
        "velocity": 0.86,
        "hand": "right"
      },
      {
        "midi": 33,
        "time": 50.824,
        "duration": 0.353,
        "velocity": 0.86,
        "hand": "left"
      },
      {
        "midi": 45,
        "time": 50.824,
        "duration": 0.353,
        "velocity": 0.79,
        "hand": "left"
      },
      {
        "midi": 52,
        "time": 50.824,
        "duration": 0.353,
        "velocity": 0.86,
        "hand": "left"
      },
      {
        "midi": 64,
        "time": 50.824,
        "duration": 0.353,
        "velocity": 0.79,
        "hand": "right"
      },
      {
        "midi": 67,
        "time": 50.824,
        "duration": 0.353,
        "velocity": 0.83,
        "hand": "right"
      },
      {
        "midi": 42,
        "time": 51,
        "duration": 0.176,
        "velocity": 0.51,
        "hand": "left"
      },
      {
        "midi": 42,
        "time": 51.176,
        "duration": 0.176,
        "velocity": 0.43,
        "hand": "left"
      },
      {
        "midi": 33,
        "time": 51.353,
        "duration": 0.353,
        "velocity": 0.86,
        "hand": "left"
      },
      {
        "midi": 38,
        "time": 51.353,
        "duration": 0.176,
        "velocity": 0.73,
        "hand": "left"
      },
      {
        "midi": 42,
        "time": 51.353,
        "duration": 0.176,
        "velocity": 0.58,
        "hand": "left"
      },
      {
        "midi": 45,
        "time": 51.353,
        "duration": 0.353,
        "velocity": 0.79,
        "hand": "left"
      },
      {
        "midi": 52,
        "time": 51.353,
        "duration": 0.353,
        "velocity": 0.86,
        "hand": "left"
      },
      {
        "midi": 64,
        "time": 51.353,
        "duration": 0.353,
        "velocity": 0.79,
        "hand": "right"
      },
      {
        "midi": 67,
        "time": 51.353,
        "duration": 0.353,
        "velocity": 0.83,
        "hand": "right"
      },
      {
        "midi": 42,
        "time": 51.706,
        "duration": 0.176,
        "velocity": 0.51,
        "hand": "left"
      },
      {
        "midi": 33,
        "time": 51.882,
        "duration": 0.176,
        "velocity": 0.86,
        "hand": "left"
      },
      {
        "midi": 35,
        "time": 51.882,
        "duration": 0.176,
        "velocity": 0.58,
        "hand": "left"
      },
      {
        "midi": 45,
        "time": 51.882,
        "duration": 0.176,
        "velocity": 0.79,
        "hand": "left"
      },
      {
        "midi": 46,
        "time": 51.882,
        "duration": 0.176,
        "velocity": 0.52,
        "hand": "left"
      },
      {
        "midi": 52,
        "time": 51.882,
        "duration": 0.176,
        "velocity": 0.86,
        "hand": "left"
      },
      {
        "midi": 64,
        "time": 51.882,
        "duration": 0.176,
        "velocity": 0.79,
        "hand": "right"
      },
      {
        "midi": 67,
        "time": 51.882,
        "duration": 0.176,
        "velocity": 0.83,
        "hand": "right"
      },
      {
        "midi": 33,
        "time": 52.059,
        "duration": 0.529,
        "velocity": 0.86,
        "hand": "left"
      },
      {
        "midi": 35,
        "time": 52.059,
        "duration": 0.176,
        "velocity": 0.73,
        "hand": "left"
      },
      {
        "midi": 42,
        "time": 52.059,
        "duration": 0.176,
        "velocity": 0.65,
        "hand": "left"
      },
      {
        "midi": 45,
        "time": 52.059,
        "duration": 0.529,
        "velocity": 0.79,
        "hand": "left"
      },
      {
        "midi": 52,
        "time": 52.059,
        "duration": 0.529,
        "velocity": 0.86,
        "hand": "left"
      },
      {
        "midi": 64,
        "time": 52.059,
        "duration": 0.529,
        "velocity": 0.79,
        "hand": "right"
      },
      {
        "midi": 67,
        "time": 52.059,
        "duration": 0.529,
        "velocity": 0.83,
        "hand": "right"
      },
      {
        "midi": 73,
        "time": 52.059,
        "duration": 0.529,
        "velocity": 0.83,
        "hand": "right"
      },
      {
        "midi": 35,
        "time": 52.412,
        "duration": 0.176,
        "velocity": 0.58,
        "hand": "left"
      },
      {
        "midi": 42,
        "time": 52.412,
        "duration": 0.176,
        "velocity": 0.51,
        "hand": "left"
      },
      {
        "midi": 42,
        "time": 52.588,
        "duration": 0.176,
        "velocity": 0.43,
        "hand": "left"
      },
      {
        "midi": 38,
        "time": 52.765,
        "duration": 0.176,
        "velocity": 0.73,
        "hand": "left"
      },
      {
        "midi": 42,
        "time": 52.765,
        "duration": 0.176,
        "velocity": 0.58,
        "hand": "left"
      },
      {
        "midi": 35,
        "time": 53.118,
        "duration": 0.176,
        "velocity": 0.58,
        "hand": "left"
      },
      {
        "midi": 42,
        "time": 53.118,
        "duration": 0.176,
        "velocity": 0.51,
        "hand": "left"
      },
      {
        "midi": 42,
        "time": 53.294,
        "duration": 0.176,
        "velocity": 0.43,
        "hand": "left"
      },
      {
        "midi": 35,
        "time": 53.471,
        "duration": 0.176,
        "velocity": 0.73,
        "hand": "left"
      },
      {
        "midi": 42,
        "time": 53.471,
        "duration": 0.176,
        "velocity": 0.65,
        "hand": "left"
      },
      {
        "midi": 45,
        "time": 53.471,
        "duration": 0.176,
        "velocity": 0.86,
        "hand": "left"
      },
      {
        "midi": 49,
        "time": 53.471,
        "duration": 0.176,
        "velocity": 0.86,
        "hand": "left"
      },
      {
        "midi": 57,
        "time": 53.471,
        "duration": 0.176,
        "velocity": 0.79,
        "hand": "left"
      },
      {
        "midi": 61,
        "time": 53.471,
        "duration": 0.176,
        "velocity": 0.79,
        "hand": "right"
      },
      {
        "midi": 64,
        "time": 53.471,
        "duration": 0.176,
        "velocity": 0.83,
        "hand": "right"
      },
      {
        "midi": 67,
        "time": 53.471,
        "duration": 1.588,
        "velocity": 0.83,
        "hand": "right"
      },
      {
        "midi": 45,
        "time": 53.647,
        "duration": 0.353,
        "velocity": 0.86,
        "hand": "left"
      },
      {
        "midi": 49,
        "time": 53.647,
        "duration": 0.353,
        "velocity": 0.86,
        "hand": "left"
      },
      {
        "midi": 57,
        "time": 53.647,
        "duration": 0.353,
        "velocity": 0.79,
        "hand": "left"
      },
      {
        "midi": 61,
        "time": 53.647,
        "duration": 0.353,
        "velocity": 0.79,
        "hand": "right"
      },
      {
        "midi": 64,
        "time": 53.647,
        "duration": 0.353,
        "velocity": 0.83,
        "hand": "right"
      },
      {
        "midi": 42,
        "time": 53.824,
        "duration": 0.176,
        "velocity": 0.51,
        "hand": "left"
      },
      {
        "midi": 42,
        "time": 54,
        "duration": 0.176,
        "velocity": 0.43,
        "hand": "left"
      },
      {
        "midi": 38,
        "time": 54.176,
        "duration": 0.176,
        "velocity": 0.73,
        "hand": "left"
      },
      {
        "midi": 42,
        "time": 54.176,
        "duration": 0.176,
        "velocity": 0.58,
        "hand": "left"
      },
      {
        "midi": 45,
        "time": 54.176,
        "duration": 0.353,
        "velocity": 0.86,
        "hand": "left"
      },
      {
        "midi": 49,
        "time": 54.176,
        "duration": 0.353,
        "velocity": 0.86,
        "hand": "left"
      },
      {
        "midi": 57,
        "time": 54.176,
        "duration": 0.353,
        "velocity": 0.79,
        "hand": "left"
      },
      {
        "midi": 61,
        "time": 54.176,
        "duration": 0.353,
        "velocity": 0.79,
        "hand": "right"
      },
      {
        "midi": 64,
        "time": 54.176,
        "duration": 0.353,
        "velocity": 0.83,
        "hand": "right"
      },
      {
        "midi": 42,
        "time": 54.529,
        "duration": 0.176,
        "velocity": 0.51,
        "hand": "left"
      },
      {
        "midi": 35,
        "time": 54.706,
        "duration": 0.176,
        "velocity": 0.58,
        "hand": "left"
      },
      {
        "midi": 42,
        "time": 54.706,
        "duration": 0.176,
        "velocity": 0.43,
        "hand": "left"
      },
      {
        "midi": 45,
        "time": 54.706,
        "duration": 0.176,
        "velocity": 0.86,
        "hand": "left"
      },
      {
        "midi": 49,
        "time": 54.706,
        "duration": 0.176,
        "velocity": 0.86,
        "hand": "left"
      },
      {
        "midi": 57,
        "time": 54.706,
        "duration": 0.176,
        "velocity": 0.79,
        "hand": "left"
      },
      {
        "midi": 61,
        "time": 54.706,
        "duration": 0.176,
        "velocity": 0.79,
        "hand": "right"
      },
      {
        "midi": 64,
        "time": 54.706,
        "duration": 0.176,
        "velocity": 0.83,
        "hand": "right"
      },
      {
        "midi": 35,
        "time": 54.882,
        "duration": 0.176,
        "velocity": 0.73,
        "hand": "left"
      },
      {
        "midi": 42,
        "time": 54.882,
        "duration": 0.176,
        "velocity": 0.65,
        "hand": "left"
      },
      {
        "midi": 45,
        "time": 54.882,
        "duration": 0.529,
        "velocity": 0.86,
        "hand": "left"
      },
      {
        "midi": 49,
        "time": 54.882,
        "duration": 0.529,
        "velocity": 0.86,
        "hand": "left"
      },
      {
        "midi": 57,
        "time": 54.882,
        "duration": 0.529,
        "velocity": 0.79,
        "hand": "left"
      },
      {
        "midi": 61,
        "time": 54.882,
        "duration": 0.529,
        "velocity": 0.79,
        "hand": "right"
      },
      {
        "midi": 64,
        "time": 54.882,
        "duration": 0.529,
        "velocity": 0.83,
        "hand": "right"
      },
      {
        "midi": 67,
        "time": 54.882,
        "duration": 0.353,
        "velocity": 0.83,
        "hand": "right"
      },
      {
        "midi": 42,
        "time": 55.235,
        "duration": 0.176,
        "velocity": 0.51,
        "hand": "left"
      },
      {
        "midi": 46,
        "time": 55.412,
        "duration": 0.176,
        "velocity": 0.58,
        "hand": "left"
      },
      {
        "midi": 64,
        "time": 55.412,
        "duration": 0.176,
        "velocity": 0.83,
        "hand": "right"
      },
      {
        "midi": 38,
        "time": 55.588,
        "duration": 0.176,
        "velocity": 0.73,
        "hand": "left"
      },
      {
        "midi": 42,
        "time": 55.588,
        "duration": 0.176,
        "velocity": 0.58,
        "hand": "left"
      },
      {
        "midi": 67,
        "time": 55.588,
        "duration": 0.353,
        "velocity": 0.83,
        "hand": "right"
      },
      {
        "midi": 35,
        "time": 55.941,
        "duration": 0.176,
        "velocity": 0.58,
        "hand": "left"
      },
      {
        "midi": 42,
        "time": 55.941,
        "duration": 0.176,
        "velocity": 0.51,
        "hand": "left"
      },
      {
        "midi": 42,
        "time": 56.118,
        "duration": 0.176,
        "velocity": 0.43,
        "hand": "left"
      },
      {
        "midi": 71,
        "time": 56.118,
        "duration": 0.176,
        "velocity": 0.83,
        "hand": "right"
      },
      {
        "midi": 35,
        "time": 56.294,
        "duration": 0.176,
        "velocity": 0.73,
        "hand": "left"
      },
      {
        "midi": 38,
        "time": 56.294,
        "duration": 0.176,
        "velocity": 0.86,
        "hand": "left"
      },
      {
        "midi": 42,
        "time": 56.294,
        "duration": 0.176,
        "velocity": 0.65,
        "hand": "left"
      },
      {
        "midi": 50,
        "time": 56.294,
        "duration": 0.176,
        "velocity": 0.79,
        "hand": "left"
      },
      {
        "midi": 62,
        "time": 56.294,
        "duration": 0.176,
        "velocity": 0.79,
        "hand": "right"
      },
      {
        "midi": 69,
        "time": 56.294,
        "duration": 0.882,
        "velocity": 0.83,
        "hand": "right"
      },
      {
        "midi": 38,
        "time": 56.471,
        "duration": 0.353,
        "velocity": 0.86,
        "hand": "left"
      },
      {
        "midi": 50,
        "time": 56.471,
        "duration": 0.353,
        "velocity": 0.79,
        "hand": "left"
      },
      {
        "midi": 62,
        "time": 56.471,
        "duration": 0.353,
        "velocity": 0.79,
        "hand": "right"
      },
      {
        "midi": 42,
        "time": 56.647,
        "duration": 0.176,
        "velocity": 0.51,
        "hand": "left"
      },
      {
        "midi": 42,
        "time": 56.824,
        "duration": 0.176,
        "velocity": 0.43,
        "hand": "left"
      },
      {
        "midi": 38,
        "time": 57,
        "duration": 0.353,
        "velocity": 0.86,
        "hand": "left"
      },
      {
        "midi": 38,
        "time": 57,
        "duration": 0.176,
        "velocity": 0.73,
        "hand": "left"
      },
      {
        "midi": 42,
        "time": 57,
        "duration": 0.176,
        "velocity": 0.58,
        "hand": "left"
      },
      {
        "midi": 50,
        "time": 57,
        "duration": 0.353,
        "velocity": 0.79,
        "hand": "left"
      },
      {
        "midi": 62,
        "time": 57,
        "duration": 0.353,
        "velocity": 0.79,
        "hand": "right"
      },
      {
        "midi": 42,
        "time": 57.353,
        "duration": 0.176,
        "velocity": 0.51,
        "hand": "left"
      },
      {
        "midi": 35,
        "time": 57.529,
        "duration": 0.176,
        "velocity": 0.58,
        "hand": "left"
      },
      {
        "midi": 38,
        "time": 57.529,
        "duration": 0.176,
        "velocity": 0.86,
        "hand": "left"
      },
      {
        "midi": 42,
        "time": 57.529,
        "duration": 0.176,
        "velocity": 0.43,
        "hand": "left"
      },
      {
        "midi": 50,
        "time": 57.529,
        "duration": 0.176,
        "velocity": 0.79,
        "hand": "left"
      },
      {
        "midi": 62,
        "time": 57.529,
        "duration": 0.176,
        "velocity": 0.79,
        "hand": "right"
      },
      {
        "midi": 35,
        "time": 57.706,
        "duration": 0.176,
        "velocity": 0.73,
        "hand": "left"
      },
      {
        "midi": 38,
        "time": 57.706,
        "duration": 0.529,
        "velocity": 0.86,
        "hand": "left"
      },
      {
        "midi": 42,
        "time": 57.706,
        "duration": 0.176,
        "velocity": 0.65,
        "hand": "left"
      },
      {
        "midi": 50,
        "time": 57.706,
        "duration": 0.529,
        "velocity": 0.79,
        "hand": "left"
      },
      {
        "midi": 62,
        "time": 57.706,
        "duration": 0.529,
        "velocity": 0.79,
        "hand": "right"
      },
      {
        "midi": 69,
        "time": 57.706,
        "duration": 0.529,
        "velocity": 0.83,
        "hand": "right"
      },
      {
        "midi": 42,
        "time": 58.059,
        "duration": 0.176,
        "velocity": 0.51,
        "hand": "left"
      },
      {
        "midi": 42,
        "time": 58.235,
        "duration": 0.176,
        "velocity": 0.43,
        "hand": "left"
      },
      {
        "midi": 38,
        "time": 58.412,
        "duration": 0.176,
        "velocity": 0.73,
        "hand": "left"
      },
      {
        "midi": 42,
        "time": 58.412,
        "duration": 0.176,
        "velocity": 0.58,
        "hand": "left"
      },
      {
        "midi": 35,
        "time": 58.765,
        "duration": 0.176,
        "velocity": 0.58,
        "hand": "left"
      },
      {
        "midi": 42,
        "time": 58.765,
        "duration": 0.176,
        "velocity": 0.51,
        "hand": "left"
      },
      {
        "midi": 42,
        "time": 58.941,
        "duration": 0.176,
        "velocity": 0.43,
        "hand": "left"
      },
      {
        "midi": 35,
        "time": 59.118,
        "duration": 0.176,
        "velocity": 0.73,
        "hand": "left"
      },
      {
        "midi": 38,
        "time": 59.118,
        "duration": 0.529,
        "velocity": 0.86,
        "hand": "left"
      },
      {
        "midi": 42,
        "time": 59.118,
        "duration": 0.176,
        "velocity": 0.65,
        "hand": "left"
      },
      {
        "midi": 45,
        "time": 59.118,
        "duration": 0.529,
        "velocity": 0.86,
        "hand": "left"
      },
      {
        "midi": 50,
        "time": 59.118,
        "duration": 0.529,
        "velocity": 0.79,
        "hand": "left"
      },
      {
        "midi": 57,
        "time": 59.118,
        "duration": 0.529,
        "velocity": 0.79,
        "hand": "left"
      },
      {
        "midi": 66,
        "time": 59.118,
        "duration": 0.529,
        "velocity": 0.83,
        "hand": "right"
      },
      {
        "midi": 74,
        "time": 59.118,
        "duration": 0.529,
        "velocity": 0.83,
        "hand": "right"
      },
      {
        "midi": 42,
        "time": 59.471,
        "duration": 0.176,
        "velocity": 0.51,
        "hand": "left"
      },
      {
        "midi": 42,
        "time": 59.647,
        "duration": 0.176,
        "velocity": 0.43,
        "hand": "left"
      },
      {
        "midi": 38,
        "time": 59.824,
        "duration": 0.353,
        "velocity": 0.86,
        "hand": "left"
      },
      {
        "midi": 38,
        "time": 59.824,
        "duration": 0.176,
        "velocity": 0.73,
        "hand": "left"
      },
      {
        "midi": 42,
        "time": 59.824,
        "duration": 0.176,
        "velocity": 0.58,
        "hand": "left"
      },
      {
        "midi": 45,
        "time": 59.824,
        "duration": 0.353,
        "velocity": 0.86,
        "hand": "left"
      },
      {
        "midi": 50,
        "time": 59.824,
        "duration": 0.353,
        "velocity": 0.79,
        "hand": "left"
      },
      {
        "midi": 57,
        "time": 59.824,
        "duration": 0.353,
        "velocity": 0.79,
        "hand": "left"
      },
      {
        "midi": 66,
        "time": 59.824,
        "duration": 0.353,
        "velocity": 0.83,
        "hand": "right"
      },
      {
        "midi": 74,
        "time": 59.824,
        "duration": 0.353,
        "velocity": 0.83,
        "hand": "right"
      },
      {
        "midi": 42,
        "time": 60.176,
        "duration": 0.176,
        "velocity": 0.51,
        "hand": "left"
      },
      {
        "midi": 35,
        "time": 60.353,
        "duration": 0.176,
        "velocity": 0.58,
        "hand": "left"
      },
      {
        "midi": 38,
        "time": 60.353,
        "duration": 0.176,
        "velocity": 0.86,
        "hand": "left"
      },
      {
        "midi": 42,
        "time": 60.353,
        "duration": 0.176,
        "velocity": 0.43,
        "hand": "left"
      },
      {
        "midi": 45,
        "time": 60.353,
        "duration": 0.176,
        "velocity": 0.86,
        "hand": "left"
      },
      {
        "midi": 50,
        "time": 60.353,
        "duration": 0.176,
        "velocity": 0.79,
        "hand": "left"
      },
      {
        "midi": 57,
        "time": 60.353,
        "duration": 0.176,
        "velocity": 0.79,
        "hand": "left"
      },
      {
        "midi": 66,
        "time": 60.353,
        "duration": 0.176,
        "velocity": 0.83,
        "hand": "right"
      },
      {
        "midi": 74,
        "time": 60.353,
        "duration": 0.176,
        "velocity": 0.83,
        "hand": "right"
      },
      {
        "midi": 35,
        "time": 60.529,
        "duration": 0.176,
        "velocity": 0.73,
        "hand": "left"
      },
      {
        "midi": 42,
        "time": 60.529,
        "duration": 0.529,
        "velocity": 0.86,
        "hand": "left"
      },
      {
        "midi": 42,
        "time": 60.529,
        "duration": 0.176,
        "velocity": 0.65,
        "hand": "left"
      },
      {
        "midi": 45,
        "time": 60.529,
        "duration": 0.529,
        "velocity": 0.86,
        "hand": "left"
      },
      {
        "midi": 54,
        "time": 60.529,
        "duration": 0.529,
        "velocity": 0.79,
        "hand": "left"
      },
      {
        "midi": 57,
        "time": 60.529,
        "duration": 0.529,
        "velocity": 0.79,
        "hand": "left"
      },
      {
        "midi": 69,
        "time": 60.529,
        "duration": 0.529,
        "velocity": 0.83,
        "hand": "right"
      },
      {
        "midi": 74,
        "time": 60.529,
        "duration": 0.529,
        "velocity": 0.83,
        "hand": "right"
      },
      {
        "midi": 42,
        "time": 60.882,
        "duration": 0.176,
        "velocity": 0.51,
        "hand": "left"
      },
      {
        "midi": 46,
        "time": 61.059,
        "duration": 0.176,
        "velocity": 0.58,
        "hand": "left"
      },
      {
        "midi": 38,
        "time": 61.235,
        "duration": 0.176,
        "velocity": 0.73,
        "hand": "left"
      },
      {
        "midi": 42,
        "time": 61.235,
        "duration": 0.353,
        "velocity": 0.86,
        "hand": "left"
      },
      {
        "midi": 42,
        "time": 61.235,
        "duration": 0.176,
        "velocity": 0.58,
        "hand": "left"
      },
      {
        "midi": 50,
        "time": 61.235,
        "duration": 0.353,
        "velocity": 0.86,
        "hand": "left"
      },
      {
        "midi": 54,
        "time": 61.235,
        "duration": 0.353,
        "velocity": 0.79,
        "hand": "left"
      },
      {
        "midi": 62,
        "time": 61.235,
        "duration": 0.353,
        "velocity": 0.79,
        "hand": "right"
      },
      {
        "midi": 69,
        "time": 61.235,
        "duration": 0.353,
        "velocity": 0.83,
        "hand": "right"
      },
      {
        "midi": 74,
        "time": 61.235,
        "duration": 0.353,
        "velocity": 0.83,
        "hand": "right"
      },
      {
        "midi": 35,
        "time": 61.588,
        "duration": 0.176,
        "velocity": 0.58,
        "hand": "left"
      },
      {
        "midi": 42,
        "time": 61.588,
        "duration": 0.176,
        "velocity": 0.51,
        "hand": "left"
      },
      {
        "midi": 42,
        "time": 61.765,
        "duration": 0.176,
        "velocity": 0.86,
        "hand": "left"
      },
      {
        "midi": 50,
        "time": 61.765,
        "duration": 0.176,
        "velocity": 0.86,
        "hand": "left"
      },
      {
        "midi": 54,
        "time": 61.765,
        "duration": 0.176,
        "velocity": 0.79,
        "hand": "left"
      },
      {
        "midi": 62,
        "time": 61.765,
        "duration": 0.176,
        "velocity": 0.79,
        "hand": "right"
      },
      {
        "midi": 69,
        "time": 61.765,
        "duration": 0.176,
        "velocity": 0.83,
        "hand": "right"
      },
      {
        "midi": 73,
        "time": 61.765,
        "duration": 0.176,
        "velocity": 0.83,
        "hand": "right"
      },
      {
        "midi": 35,
        "time": 61.941,
        "duration": 0.176,
        "velocity": 0.73,
        "hand": "left"
      },
      {
        "midi": 42,
        "time": 61.941,
        "duration": 0.176,
        "velocity": 0.65,
        "hand": "left"
      },
      {
        "midi": 43,
        "time": 61.941,
        "duration": 0.529,
        "velocity": 0.86,
        "hand": "left"
      },
      {
        "midi": 50,
        "time": 61.941,
        "duration": 0.529,
        "velocity": 0.86,
        "hand": "left"
      },
      {
        "midi": 55,
        "time": 61.941,
        "duration": 0.529,
        "velocity": 0.79,
        "hand": "left"
      },
      {
        "midi": 62,
        "time": 61.941,
        "duration": 0.529,
        "velocity": 0.79,
        "hand": "right"
      },
      {
        "midi": 67,
        "time": 61.941,
        "duration": 0.529,
        "velocity": 0.83,
        "hand": "right"
      },
      {
        "midi": 71,
        "time": 61.941,
        "duration": 0.882,
        "velocity": 0.83,
        "hand": "right"
      },
      {
        "midi": 42,
        "time": 62.294,
        "duration": 0.176,
        "velocity": 0.51,
        "hand": "left"
      },
      {
        "midi": 42,
        "time": 62.471,
        "duration": 0.176,
        "velocity": 0.43,
        "hand": "left"
      },
      {
        "midi": 38,
        "time": 62.647,
        "duration": 0.176,
        "velocity": 0.73,
        "hand": "left"
      },
      {
        "midi": 42,
        "time": 62.647,
        "duration": 0.176,
        "velocity": 0.58,
        "hand": "left"
      },
      {
        "midi": 43,
        "time": 62.647,
        "duration": 0.353,
        "velocity": 0.86,
        "hand": "left"
      },
      {
        "midi": 50,
        "time": 62.647,
        "duration": 0.353,
        "velocity": 0.86,
        "hand": "left"
      },
      {
        "midi": 55,
        "time": 62.647,
        "duration": 0.353,
        "velocity": 0.79,
        "hand": "left"
      },
      {
        "midi": 62,
        "time": 62.647,
        "duration": 0.353,
        "velocity": 0.79,
        "hand": "right"
      },
      {
        "midi": 67,
        "time": 62.647,
        "duration": 0.353,
        "velocity": 0.83,
        "hand": "right"
      },
      {
        "midi": 42,
        "time": 63,
        "duration": 0.176,
        "velocity": 0.51,
        "hand": "left"
      },
      {
        "midi": 35,
        "time": 63.176,
        "duration": 0.176,
        "velocity": 0.58,
        "hand": "left"
      },
      {
        "midi": 42,
        "time": 63.176,
        "duration": 0.176,
        "velocity": 0.43,
        "hand": "left"
      },
      {
        "midi": 43,
        "time": 63.176,
        "duration": 0.176,
        "velocity": 0.86,
        "hand": "left"
      },
      {
        "midi": 50,
        "time": 63.176,
        "duration": 0.176,
        "velocity": 0.86,
        "hand": "left"
      },
      {
        "midi": 55,
        "time": 63.176,
        "duration": 0.176,
        "velocity": 0.79,
        "hand": "left"
      },
      {
        "midi": 62,
        "time": 63.176,
        "duration": 0.176,
        "velocity": 0.79,
        "hand": "right"
      },
      {
        "midi": 67,
        "time": 63.176,
        "duration": 0.176,
        "velocity": 0.83,
        "hand": "right"
      },
      {
        "midi": 35,
        "time": 63.353,
        "duration": 0.176,
        "velocity": 0.73,
        "hand": "left"
      },
      {
        "midi": 42,
        "time": 63.353,
        "duration": 0.176,
        "velocity": 0.65,
        "hand": "left"
      },
      {
        "midi": 47,
        "time": 63.353,
        "duration": 0.529,
        "velocity": 0.86,
        "hand": "left"
      },
      {
        "midi": 50,
        "time": 63.353,
        "duration": 0.529,
        "velocity": 0.86,
        "hand": "left"
      },
      {
        "midi": 59,
        "time": 63.353,
        "duration": 0.529,
        "velocity": 0.79,
        "hand": "left"
      },
      {
        "midi": 62,
        "time": 63.353,
        "duration": 0.529,
        "velocity": 0.79,
        "hand": "right"
      },
      {
        "midi": 67,
        "time": 63.353,
        "duration": 0.529,
        "velocity": 0.83,
        "hand": "right"
      },
      {
        "midi": 35,
        "time": 63.706,
        "duration": 0.176,
        "velocity": 0.58,
        "hand": "left"
      },
      {
        "midi": 42,
        "time": 63.706,
        "duration": 0.176,
        "velocity": 0.51,
        "hand": "left"
      },
      {
        "midi": 42,
        "time": 63.882,
        "duration": 0.176,
        "velocity": 0.43,
        "hand": "left"
      },
      {
        "midi": 38,
        "time": 64.059,
        "duration": 0.176,
        "velocity": 0.73,
        "hand": "left"
      },
      {
        "midi": 42,
        "time": 64.059,
        "duration": 0.176,
        "velocity": 0.58,
        "hand": "left"
      },
      {
        "midi": 43,
        "time": 64.059,
        "duration": 0.353,
        "velocity": 0.86,
        "hand": "left"
      },
      {
        "midi": 50,
        "time": 64.059,
        "duration": 0.353,
        "velocity": 0.86,
        "hand": "left"
      },
      {
        "midi": 55,
        "time": 64.059,
        "duration": 0.353,
        "velocity": 0.79,
        "hand": "left"
      },
      {
        "midi": 62,
        "time": 64.059,
        "duration": 0.353,
        "velocity": 0.79,
        "hand": "right"
      },
      {
        "midi": 67,
        "time": 64.059,
        "duration": 0.353,
        "velocity": 0.83,
        "hand": "right"
      },
      {
        "midi": 71,
        "time": 64.059,
        "duration": 0.529,
        "velocity": 0.83,
        "hand": "right"
      },
      {
        "midi": 35,
        "time": 64.412,
        "duration": 0.176,
        "velocity": 0.58,
        "hand": "left"
      },
      {
        "midi": 42,
        "time": 64.412,
        "duration": 0.176,
        "velocity": 0.51,
        "hand": "left"
      },
      {
        "midi": 43,
        "time": 64.588,
        "duration": 0.176,
        "velocity": 0.86,
        "hand": "left"
      },
      {
        "midi": 46,
        "time": 64.588,
        "duration": 0.176,
        "velocity": 0.58,
        "hand": "left"
      },
      {
        "midi": 50,
        "time": 64.588,
        "duration": 0.176,
        "velocity": 0.86,
        "hand": "left"
      },
      {
        "midi": 55,
        "time": 64.588,
        "duration": 0.176,
        "velocity": 0.79,
        "hand": "left"
      },
      {
        "midi": 62,
        "time": 64.588,
        "duration": 0.176,
        "velocity": 0.79,
        "hand": "right"
      },
      {
        "midi": 67,
        "time": 64.588,
        "duration": 0.176,
        "velocity": 0.83,
        "hand": "right"
      },
      {
        "midi": 35,
        "time": 64.765,
        "duration": 0.176,
        "velocity": 0.73,
        "hand": "left"
      },
      {
        "midi": 42,
        "time": 64.765,
        "duration": 0.176,
        "velocity": 0.65,
        "hand": "left"
      },
      {
        "midi": 45,
        "time": 64.765,
        "duration": 0.529,
        "velocity": 0.86,
        "hand": "left"
      },
      {
        "midi": 50,
        "time": 64.765,
        "duration": 0.529,
        "velocity": 0.86,
        "hand": "left"
      },
      {
        "midi": 57,
        "time": 64.765,
        "duration": 0.529,
        "velocity": 0.79,
        "hand": "left"
      },
      {
        "midi": 62,
        "time": 64.765,
        "duration": 0.529,
        "velocity": 0.79,
        "hand": "right"
      },
      {
        "midi": 66,
        "time": 64.765,
        "duration": 0.529,
        "velocity": 0.83,
        "hand": "right"
      },
      {
        "midi": 69,
        "time": 64.765,
        "duration": 0.529,
        "velocity": 0.83,
        "hand": "right"
      },
      {
        "midi": 42,
        "time": 65.118,
        "duration": 0.176,
        "velocity": 0.73,
        "hand": "left"
      },
      {
        "midi": 42,
        "time": 65.294,
        "duration": 0.176,
        "velocity": 0.43,
        "hand": "left"
      },
      {
        "midi": 33,
        "time": 65.471,
        "duration": 0.353,
        "velocity": 0.86,
        "hand": "left"
      },
      {
        "midi": 38,
        "time": 65.471,
        "duration": 0.176,
        "velocity": 0.73,
        "hand": "left"
      },
      {
        "midi": 42,
        "time": 65.471,
        "duration": 0.176,
        "velocity": 0.58,
        "hand": "left"
      },
      {
        "midi": 45,
        "time": 65.471,
        "duration": 0.353,
        "velocity": 0.79,
        "hand": "left"
      },
      {
        "midi": 57,
        "time": 65.471,
        "duration": 0.353,
        "velocity": 0.79,
        "hand": "left"
      },
      {
        "midi": 62,
        "time": 65.471,
        "duration": 0.353,
        "velocity": 0.83,
        "hand": "right"
      },
      {
        "midi": 66,
        "time": 65.471,
        "duration": 0.353,
        "velocity": 0.83,
        "hand": "right"
      },
      {
        "midi": 42,
        "time": 65.824,
        "duration": 0.176,
        "velocity": 0.51,
        "hand": "left"
      },
      {
        "midi": 35,
        "time": 66,
        "duration": 0.176,
        "velocity": 0.86,
        "hand": "left"
      },
      {
        "midi": 42,
        "time": 66,
        "duration": 0.176,
        "velocity": 0.86,
        "hand": "left"
      },
      {
        "midi": 47,
        "time": 66,
        "duration": 0.176,
        "velocity": 0.79,
        "hand": "left"
      },
      {
        "midi": 54,
        "time": 66,
        "duration": 0.176,
        "velocity": 0.79,
        "hand": "left"
      },
      {
        "midi": 62,
        "time": 66,
        "duration": 0.176,
        "velocity": 0.83,
        "hand": "right"
      },
      {
        "midi": 33,
        "time": 66.176,
        "duration": 0.529,
        "velocity": 0.86,
        "hand": "left"
      },
      {
        "midi": 35,
        "time": 66.176,
        "duration": 0.176,
        "velocity": 0.73,
        "hand": "left"
      },
      {
        "midi": 42,
        "time": 66.176,
        "duration": 0.176,
        "velocity": 0.65,
        "hand": "left"
      },
      {
        "midi": 45,
        "time": 66.176,
        "duration": 0.529,
        "velocity": 0.79,
        "hand": "left"
      },
      {
        "midi": 57,
        "time": 66.176,
        "duration": 0.529,
        "velocity": 0.79,
        "hand": "left"
      },
      {
        "midi": 62,
        "time": 66.176,
        "duration": 0.529,
        "velocity": 0.83,
        "hand": "right"
      },
      {
        "midi": 64,
        "time": 66.176,
        "duration": 0.529,
        "velocity": 0.83,
        "hand": "right"
      },
      {
        "midi": 42,
        "time": 66.529,
        "duration": 0.176,
        "velocity": 0.73,
        "hand": "left"
      },
      {
        "midi": 42,
        "time": 66.706,
        "duration": 0.176,
        "velocity": 0.43,
        "hand": "left"
      },
      {
        "midi": 33,
        "time": 66.882,
        "duration": 0.353,
        "velocity": 0.86,
        "hand": "left"
      },
      {
        "midi": 38,
        "time": 66.882,
        "duration": 0.176,
        "velocity": 0.73,
        "hand": "left"
      },
      {
        "midi": 42,
        "time": 66.882,
        "duration": 0.176,
        "velocity": 0.58,
        "hand": "left"
      },
      {
        "midi": 45,
        "time": 66.882,
        "duration": 0.353,
        "velocity": 0.79,
        "hand": "left"
      },
      {
        "midi": 57,
        "time": 66.882,
        "duration": 0.353,
        "velocity": 0.79,
        "hand": "left"
      },
      {
        "midi": 61,
        "time": 66.882,
        "duration": 0.353,
        "velocity": 0.83,
        "hand": "right"
      },
      {
        "midi": 66,
        "time": 66.882,
        "duration": 0.353,
        "velocity": 0.83,
        "hand": "right"
      },
      {
        "midi": 35,
        "time": 67.235,
        "duration": 0.176,
        "velocity": 0.58,
        "hand": "left"
      },
      {
        "midi": 42,
        "time": 67.235,
        "duration": 0.176,
        "velocity": 0.51,
        "hand": "left"
      },
      {
        "midi": 33,
        "time": 67.412,
        "duration": 0.176,
        "velocity": 0.86,
        "hand": "left"
      },
      {
        "midi": 42,
        "time": 67.412,
        "duration": 0.176,
        "velocity": 0.43,
        "hand": "left"
      },
      {
        "midi": 43,
        "time": 67.412,
        "duration": 0.176,
        "velocity": 0.86,
        "hand": "left"
      },
      {
        "midi": 45,
        "time": 67.412,
        "duration": 0.176,
        "velocity": 0.79,
        "hand": "left"
      },
      {
        "midi": 55,
        "time": 67.412,
        "duration": 0.176,
        "velocity": 0.79,
        "hand": "left"
      },
      {
        "midi": 61,
        "time": 67.412,
        "duration": 0.176,
        "velocity": 0.83,
        "hand": "right"
      },
      {
        "midi": 64,
        "time": 67.412,
        "duration": 0.176,
        "velocity": 0.83,
        "hand": "right"
      },
      {
        "midi": 35,
        "time": 67.588,
        "duration": 0.176,
        "velocity": 0.73,
        "hand": "left"
      },
      {
        "midi": 38,
        "time": 67.588,
        "duration": 1.588,
        "velocity": 0.86,
        "hand": "left"
      },
      {
        "midi": 42,
        "time": 67.588,
        "duration": 0.176,
        "velocity": 0.65,
        "hand": "left"
      },
      {
        "midi": 50,
        "time": 67.588,
        "duration": 1.588,
        "velocity": 0.79,
        "hand": "left"
      },
      {
        "midi": 62,
        "time": 67.588,
        "duration": 1.588,
        "velocity": 0.83,
        "hand": "right"
      },
      {
        "midi": 62,
        "time": 67.588,
        "duration": 2.294,
        "velocity": 0.86,
        "hand": "right"
      },
      {
        "midi": 42,
        "time": 67.941,
        "duration": 0.176,
        "velocity": 0.51,
        "hand": "left"
      },
      {
        "midi": 37,
        "time": 68.294,
        "duration": 0.176,
        "velocity": 0.73,
        "hand": "left"
      },
      {
        "midi": 42,
        "time": 68.294,
        "duration": 0.176,
        "velocity": 0.58,
        "hand": "left"
      },
      {
        "midi": 43,
        "time": 68.294,
        "duration": 0.529,
        "velocity": 0.86,
        "hand": "left"
      },
      {
        "midi": 55,
        "time": 68.294,
        "duration": 0.529,
        "velocity": 0.79,
        "hand": "left"
      },
      {
        "midi": 59,
        "time": 68.294,
        "duration": 0.529,
        "velocity": 0.83,
        "hand": "left"
      },
      {
        "midi": 35,
        "time": 68.647,
        "duration": 0.176,
        "velocity": 0.58,
        "hand": "left"
      },
      {
        "midi": 42,
        "time": 68.647,
        "duration": 0.176,
        "velocity": 0.51,
        "hand": "left"
      },
      {
        "midi": 35,
        "time": 69,
        "duration": 0.176,
        "velocity": 0.73,
        "hand": "left"
      },
      {
        "midi": 38,
        "time": 69,
        "duration": 0.529,
        "velocity": 0.86,
        "hand": "left"
      },
      {
        "midi": 42,
        "time": 69,
        "duration": 0.529,
        "velocity": 0.86,
        "hand": "left"
      },
      {
        "midi": 42,
        "time": 69,
        "duration": 0.176,
        "velocity": 0.65,
        "hand": "left"
      },
      {
        "midi": 50,
        "time": 69,
        "duration": 0.529,
        "velocity": 0.79,
        "hand": "left"
      },
      {
        "midi": 54,
        "time": 69,
        "duration": 0.529,
        "velocity": 0.79,
        "hand": "left"
      },
      {
        "midi": 57,
        "time": 69,
        "duration": 0.529,
        "velocity": 0.83,
        "hand": "left"
      },
      {
        "midi": 62,
        "time": 69,
        "duration": 0.529,
        "velocity": 0.83,
        "hand": "right"
      },
      {
        "midi": 38,
        "time": 69.353,
        "duration": 0.176,
        "velocity": 0.73,
        "hand": "left"
      },
      {
        "midi": 42,
        "time": 69.353,
        "duration": 0.176,
        "velocity": 0.51,
        "hand": "left"
      },
      {
        "midi": 38,
        "time": 69.529,
        "duration": 0.176,
        "velocity": 0.58,
        "hand": "left"
      },
      {
        "midi": 38,
        "time": 69.706,
        "duration": 0.176,
        "velocity": 0.83,
        "hand": "left"
      },
      {
        "midi": 42,
        "time": 69.706,
        "duration": 0.176,
        "velocity": 0.58,
        "hand": "left"
      },
      {
        "midi": 35,
        "time": 70.059,
        "duration": 0.176,
        "velocity": 0.58,
        "hand": "left"
      },
      {
        "midi": 46,
        "time": 70.059,
        "duration": 0.176,
        "velocity": 0.65,
        "hand": "left"
      },
      {
        "midi": 35,
        "time": 70.412,
        "duration": 0.176,
        "velocity": 0.73,
        "hand": "left"
      },
      {
        "midi": 38,
        "time": 70.412,
        "duration": 0.529,
        "velocity": 0.86,
        "hand": "left"
      },
      {
        "midi": 42,
        "time": 70.412,
        "duration": 0.176,
        "velocity": 0.65,
        "hand": "left"
      },
      {
        "midi": 45,
        "time": 70.412,
        "duration": 0.529,
        "velocity": 0.86,
        "hand": "left"
      },
      {
        "midi": 49,
        "time": 70.412,
        "duration": 0.176,
        "velocity": 0.65,
        "hand": "left"
      },
      {
        "midi": 50,
        "time": 70.412,
        "duration": 0.529,
        "velocity": 0.79,
        "hand": "left"
      },
      {
        "midi": 57,
        "time": 70.412,
        "duration": 0.529,
        "velocity": 0.79,
        "hand": "left"
      },
      {
        "midi": 62,
        "time": 70.412,
        "duration": 0.529,
        "velocity": 0.83,
        "hand": "right"
      },
      {
        "midi": 66,
        "time": 70.412,
        "duration": 0.529,
        "velocity": 0.83,
        "hand": "right"
      },
      {
        "midi": 42,
        "time": 70.765,
        "duration": 0.176,
        "velocity": 0.51,
        "hand": "left"
      },
      {
        "midi": 37,
        "time": 71.118,
        "duration": 0.176,
        "velocity": 0.73,
        "hand": "left"
      },
      {
        "midi": 38,
        "time": 71.118,
        "duration": 0.353,
        "velocity": 0.86,
        "hand": "left"
      },
      {
        "midi": 42,
        "time": 71.118,
        "duration": 0.176,
        "velocity": 0.58,
        "hand": "left"
      },
      {
        "midi": 45,
        "time": 71.118,
        "duration": 0.353,
        "velocity": 0.86,
        "hand": "left"
      },
      {
        "midi": 50,
        "time": 71.118,
        "duration": 0.353,
        "velocity": 0.79,
        "hand": "left"
      },
      {
        "midi": 57,
        "time": 71.118,
        "duration": 0.353,
        "velocity": 0.79,
        "hand": "left"
      },
      {
        "midi": 62,
        "time": 71.118,
        "duration": 0.353,
        "velocity": 0.83,
        "hand": "right"
      },
      {
        "midi": 66,
        "time": 71.118,
        "duration": 0.353,
        "velocity": 0.83,
        "hand": "right"
      },
      {
        "midi": 35,
        "time": 71.471,
        "duration": 0.176,
        "velocity": 0.58,
        "hand": "left"
      },
      {
        "midi": 42,
        "time": 71.471,
        "duration": 0.176,
        "velocity": 0.51,
        "hand": "left"
      },
      {
        "midi": 38,
        "time": 71.647,
        "duration": 0.176,
        "velocity": 0.86,
        "hand": "left"
      },
      {
        "midi": 44,
        "time": 71.647,
        "duration": 0.176,
        "velocity": 0.86,
        "hand": "left"
      },
      {
        "midi": 50,
        "time": 71.647,
        "duration": 0.176,
        "velocity": 0.79,
        "hand": "left"
      },
      {
        "midi": 56,
        "time": 71.647,
        "duration": 0.176,
        "velocity": 0.79,
        "hand": "left"
      },
      {
        "midi": 62,
        "time": 71.647,
        "duration": 0.176,
        "velocity": 0.83,
        "hand": "right"
      },
      {
        "midi": 65,
        "time": 71.647,
        "duration": 0.176,
        "velocity": 0.83,
        "hand": "right"
      },
      {
        "midi": 35,
        "time": 71.824,
        "duration": 0.176,
        "velocity": 0.73,
        "hand": "left"
      },
      {
        "midi": 38,
        "time": 71.824,
        "duration": 0.529,
        "velocity": 0.86,
        "hand": "left"
      },
      {
        "midi": 42,
        "time": 71.824,
        "duration": 0.176,
        "velocity": 0.65,
        "hand": "left"
      },
      {
        "midi": 45,
        "time": 71.824,
        "duration": 0.529,
        "velocity": 0.86,
        "hand": "left"
      },
      {
        "midi": 50,
        "time": 71.824,
        "duration": 0.529,
        "velocity": 0.79,
        "hand": "left"
      },
      {
        "midi": 57,
        "time": 71.824,
        "duration": 0.529,
        "velocity": 0.79,
        "hand": "left"
      },
      {
        "midi": 62,
        "time": 71.824,
        "duration": 0.529,
        "velocity": 0.83,
        "hand": "right"
      },
      {
        "midi": 66,
        "time": 71.824,
        "duration": 0.529,
        "velocity": 0.83,
        "hand": "right"
      },
      {
        "midi": 42,
        "time": 72.176,
        "duration": 0.176,
        "velocity": 0.51,
        "hand": "left"
      },
      {
        "midi": 37,
        "time": 72.529,
        "duration": 0.176,
        "velocity": 0.73,
        "hand": "left"
      },
      {
        "midi": 38,
        "time": 72.529,
        "duration": 0.353,
        "velocity": 0.86,
        "hand": "left"
      },
      {
        "midi": 42,
        "time": 72.529,
        "duration": 0.176,
        "velocity": 0.58,
        "hand": "left"
      },
      {
        "midi": 45,
        "time": 72.529,
        "duration": 0.353,
        "velocity": 0.86,
        "hand": "left"
      },
      {
        "midi": 50,
        "time": 72.529,
        "duration": 0.353,
        "velocity": 0.79,
        "hand": "left"
      },
      {
        "midi": 57,
        "time": 72.529,
        "duration": 0.353,
        "velocity": 0.79,
        "hand": "left"
      },
      {
        "midi": 62,
        "time": 72.529,
        "duration": 0.353,
        "velocity": 0.83,
        "hand": "right"
      },
      {
        "midi": 66,
        "time": 72.529,
        "duration": 0.353,
        "velocity": 0.83,
        "hand": "right"
      },
      {
        "midi": 35,
        "time": 72.882,
        "duration": 0.176,
        "velocity": 0.58,
        "hand": "left"
      },
      {
        "midi": 42,
        "time": 72.882,
        "duration": 0.176,
        "velocity": 0.51,
        "hand": "left"
      },
      {
        "midi": 38,
        "time": 73.059,
        "duration": 0.176,
        "velocity": 0.86,
        "hand": "left"
      },
      {
        "midi": 45,
        "time": 73.059,
        "duration": 0.176,
        "velocity": 0.86,
        "hand": "left"
      },
      {
        "midi": 50,
        "time": 73.059,
        "duration": 0.176,
        "velocity": 0.79,
        "hand": "left"
      },
      {
        "midi": 57,
        "time": 73.059,
        "duration": 0.176,
        "velocity": 0.79,
        "hand": "left"
      },
      {
        "midi": 64,
        "time": 73.059,
        "duration": 0.176,
        "velocity": 0.83,
        "hand": "right"
      },
      {
        "midi": 67,
        "time": 73.059,
        "duration": 0.176,
        "velocity": 0.83,
        "hand": "right"
      },
      {
        "midi": 35,
        "time": 73.235,
        "duration": 0.176,
        "velocity": 0.73,
        "hand": "left"
      },
      {
        "midi": 38,
        "time": 73.235,
        "duration": 0.882,
        "velocity": 0.86,
        "hand": "left"
      },
      {
        "midi": 42,
        "time": 73.235,
        "duration": 0.176,
        "velocity": 0.65,
        "hand": "left"
      },
      {
        "midi": 50,
        "time": 73.235,
        "duration": 0.882,
        "velocity": 0.79,
        "hand": "left"
      },
      {
        "midi": 62,
        "time": 73.235,
        "duration": 0.882,
        "velocity": 0.79,
        "hand": "right"
      },
      {
        "midi": 66,
        "time": 73.235,
        "duration": 0.882,
        "velocity": 0.83,
        "hand": "right"
      },
      {
        "midi": 69,
        "time": 73.235,
        "duration": 0.882,
        "velocity": 0.83,
        "hand": "right"
      },
      {
        "midi": 42,
        "time": 73.588,
        "duration": 0.176,
        "velocity": 0.51,
        "hand": "left"
      },
      {
        "midi": 37,
        "time": 73.941,
        "duration": 0.176,
        "velocity": 0.73,
        "hand": "left"
      },
      {
        "midi": 42,
        "time": 73.941,
        "duration": 0.176,
        "velocity": 0.58,
        "hand": "left"
      },
      {
        "midi": 35,
        "time": 74.294,
        "duration": 0.176,
        "velocity": 0.58,
        "hand": "left"
      },
      {
        "midi": 42,
        "time": 74.294,
        "duration": 0.176,
        "velocity": 0.51,
        "hand": "left"
      },
      {
        "midi": 35,
        "time": 74.647,
        "duration": 0.176,
        "velocity": 0.73,
        "hand": "left"
      },
      {
        "midi": 38,
        "time": 74.647,
        "duration": 0.529,
        "velocity": 0.86,
        "hand": "left"
      },
      {
        "midi": 42,
        "time": 74.647,
        "duration": 0.176,
        "velocity": 0.65,
        "hand": "left"
      },
      {
        "midi": 50,
        "time": 74.647,
        "duration": 0.529,
        "velocity": 0.79,
        "hand": "left"
      },
      {
        "midi": 62,
        "time": 74.647,
        "duration": 0.529,
        "velocity": 0.79,
        "hand": "right"
      },
      {
        "midi": 66,
        "time": 74.647,
        "duration": 0.529,
        "velocity": 0.83,
        "hand": "right"
      },
      {
        "midi": 69,
        "time": 74.647,
        "duration": 0.529,
        "velocity": 0.83,
        "hand": "right"
      },
      {
        "midi": 42,
        "time": 75,
        "duration": 0.176,
        "velocity": 0.51,
        "hand": "left"
      },
      {
        "midi": 37,
        "time": 75.176,
        "duration": 0.176,
        "velocity": 0.73,
        "hand": "left"
      },
      {
        "midi": 38,
        "time": 75.176,
        "duration": 0.353,
        "velocity": 0.86,
        "hand": "left"
      },
      {
        "midi": 42,
        "time": 75.176,
        "duration": 0.176,
        "velocity": 0.58,
        "hand": "left"
      },
      {
        "midi": 50,
        "time": 75.176,
        "duration": 0.353,
        "velocity": 0.79,
        "hand": "left"
      },
      {
        "midi": 62,
        "time": 75.176,
        "duration": 0.353,
        "velocity": 0.79,
        "hand": "right"
      },
      {
        "midi": 66,
        "time": 75.176,
        "duration": 0.353,
        "velocity": 0.83,
        "hand": "right"
      },
      {
        "midi": 69,
        "time": 75.176,
        "duration": 0.353,
        "velocity": 0.83,
        "hand": "right"
      },
      {
        "midi": 35,
        "time": 75.529,
        "duration": 0.176,
        "velocity": 0.58,
        "hand": "left"
      },
      {
        "midi": 42,
        "time": 75.529,
        "duration": 0.176,
        "velocity": 0.51,
        "hand": "left"
      },
      {
        "midi": 38,
        "time": 75.706,
        "duration": 0.176,
        "velocity": 0.86,
        "hand": "left"
      },
      {
        "midi": 45,
        "time": 75.706,
        "duration": 0.176,
        "velocity": 0.86,
        "hand": "left"
      },
      {
        "midi": 50,
        "time": 75.706,
        "duration": 0.176,
        "velocity": 0.79,
        "hand": "left"
      },
      {
        "midi": 57,
        "time": 75.706,
        "duration": 0.176,
        "velocity": 0.79,
        "hand": "left"
      },
      {
        "midi": 62,
        "time": 75.706,
        "duration": 0.176,
        "velocity": 0.83,
        "hand": "right"
      },
      {
        "midi": 66,
        "time": 75.706,
        "duration": 0.176,
        "velocity": 0.83,
        "hand": "right"
      },
      {
        "midi": 33,
        "time": 75.882,
        "duration": 0.529,
        "velocity": 0.86,
        "hand": "left"
      },
      {
        "midi": 35,
        "time": 75.882,
        "duration": 0.176,
        "velocity": 0.73,
        "hand": "left"
      },
      {
        "midi": 42,
        "time": 75.882,
        "duration": 0.176,
        "velocity": 0.65,
        "hand": "left"
      },
      {
        "midi": 45,
        "time": 75.882,
        "duration": 0.529,
        "velocity": 0.79,
        "hand": "left"
      },
      {
        "midi": 57,
        "time": 75.882,
        "duration": 0.529,
        "velocity": 0.79,
        "hand": "left"
      },
      {
        "midi": 61,
        "time": 75.882,
        "duration": 0.529,
        "velocity": 0.83,
        "hand": "right"
      },
      {
        "midi": 64,
        "time": 75.882,
        "duration": 0.529,
        "velocity": 0.83,
        "hand": "right"
      },
      {
        "midi": 42,
        "time": 76.235,
        "duration": 0.176,
        "velocity": 0.51,
        "hand": "left"
      },
      {
        "midi": 33,
        "time": 76.588,
        "duration": 0.529,
        "velocity": 0.86,
        "hand": "left"
      },
      {
        "midi": 37,
        "time": 76.588,
        "duration": 0.176,
        "velocity": 0.73,
        "hand": "left"
      },
      {
        "midi": 42,
        "time": 76.588,
        "duration": 0.176,
        "velocity": 0.58,
        "hand": "left"
      },
      {
        "midi": 45,
        "time": 76.588,
        "duration": 0.529,
        "velocity": 0.79,
        "hand": "left"
      },
      {
        "midi": 57,
        "time": 76.588,
        "duration": 0.529,
        "velocity": 0.79,
        "hand": "left"
      },
      {
        "midi": 61,
        "time": 76.588,
        "duration": 0.529,
        "velocity": 0.83,
        "hand": "right"
      },
      {
        "midi": 64,
        "time": 76.588,
        "duration": 0.529,
        "velocity": 0.83,
        "hand": "right"
      },
      {
        "midi": 35,
        "time": 76.941,
        "duration": 0.176,
        "velocity": 0.58,
        "hand": "left"
      },
      {
        "midi": 42,
        "time": 76.941,
        "duration": 0.176,
        "velocity": 0.51,
        "hand": "left"
      },
      {
        "midi": 35,
        "time": 77.294,
        "duration": 0.176,
        "velocity": 0.73,
        "hand": "left"
      },
      {
        "midi": 38,
        "time": 77.294,
        "duration": 0.529,
        "velocity": 0.86,
        "hand": "left"
      },
      {
        "midi": 42,
        "time": 77.294,
        "duration": 0.176,
        "velocity": 0.65,
        "hand": "left"
      },
      {
        "midi": 45,
        "time": 77.294,
        "duration": 0.529,
        "velocity": 0.86,
        "hand": "left"
      },
      {
        "midi": 50,
        "time": 77.294,
        "duration": 0.529,
        "velocity": 0.79,
        "hand": "left"
      },
      {
        "midi": 57,
        "time": 77.294,
        "duration": 0.529,
        "velocity": 0.79,
        "hand": "left"
      },
      {
        "midi": 62,
        "time": 77.294,
        "duration": 0.529,
        "velocity": 0.83,
        "hand": "right"
      },
      {
        "midi": 66,
        "time": 77.294,
        "duration": 0.529,
        "velocity": 0.83,
        "hand": "right"
      },
      {
        "midi": 42,
        "time": 77.647,
        "duration": 0.176,
        "velocity": 0.51,
        "hand": "left"
      },
      {
        "midi": 37,
        "time": 78,
        "duration": 0.176,
        "velocity": 0.73,
        "hand": "left"
      },
      {
        "midi": 38,
        "time": 78,
        "duration": 0.353,
        "velocity": 0.86,
        "hand": "left"
      },
      {
        "midi": 42,
        "time": 78,
        "duration": 0.176,
        "velocity": 0.58,
        "hand": "left"
      },
      {
        "midi": 45,
        "time": 78,
        "duration": 0.353,
        "velocity": 0.86,
        "hand": "left"
      },
      {
        "midi": 50,
        "time": 78,
        "duration": 0.353,
        "velocity": 0.79,
        "hand": "left"
      },
      {
        "midi": 57,
        "time": 78,
        "duration": 0.353,
        "velocity": 0.79,
        "hand": "left"
      },
      {
        "midi": 64,
        "time": 78,
        "duration": 0.353,
        "velocity": 0.83,
        "hand": "right"
      },
      {
        "midi": 67,
        "time": 78,
        "duration": 0.353,
        "velocity": 0.83,
        "hand": "right"
      },
      {
        "midi": 35,
        "time": 78.353,
        "duration": 0.176,
        "velocity": 0.58,
        "hand": "left"
      },
      {
        "midi": 42,
        "time": 78.353,
        "duration": 0.176,
        "velocity": 0.51,
        "hand": "left"
      },
      {
        "midi": 38,
        "time": 78.529,
        "duration": 0.176,
        "velocity": 0.86,
        "hand": "left"
      },
      {
        "midi": 45,
        "time": 78.529,
        "duration": 0.176,
        "velocity": 0.86,
        "hand": "left"
      },
      {
        "midi": 50,
        "time": 78.529,
        "duration": 0.176,
        "velocity": 0.79,
        "hand": "left"
      },
      {
        "midi": 57,
        "time": 78.529,
        "duration": 0.176,
        "velocity": 0.79,
        "hand": "left"
      },
      {
        "midi": 62,
        "time": 78.529,
        "duration": 0.176,
        "velocity": 0.83,
        "hand": "right"
      },
      {
        "midi": 66,
        "time": 78.529,
        "duration": 0.176,
        "velocity": 0.83,
        "hand": "right"
      },
      {
        "midi": 33,
        "time": 78.706,
        "duration": 1.412,
        "velocity": 0.86,
        "hand": "left"
      },
      {
        "midi": 35,
        "time": 78.706,
        "duration": 0.176,
        "velocity": 0.73,
        "hand": "left"
      },
      {
        "midi": 42,
        "time": 78.706,
        "duration": 0.176,
        "velocity": 0.65,
        "hand": "left"
      },
      {
        "midi": 45,
        "time": 78.706,
        "duration": 1.412,
        "velocity": 0.79,
        "hand": "left"
      },
      {
        "midi": 57,
        "time": 78.706,
        "duration": 1.412,
        "velocity": 0.79,
        "hand": "left"
      },
      {
        "midi": 61,
        "time": 78.706,
        "duration": 1.412,
        "velocity": 0.83,
        "hand": "right"
      },
      {
        "midi": 64,
        "time": 78.706,
        "duration": 1.412,
        "velocity": 0.83,
        "hand": "right"
      },
      {
        "midi": 42,
        "time": 79.059,
        "duration": 0.176,
        "velocity": 0.51,
        "hand": "left"
      },
      {
        "midi": 37,
        "time": 79.412,
        "duration": 0.176,
        "velocity": 0.73,
        "hand": "left"
      },
      {
        "midi": 42,
        "time": 79.412,
        "duration": 0.176,
        "velocity": 0.58,
        "hand": "left"
      },
      {
        "midi": 35,
        "time": 79.765,
        "duration": 0.176,
        "velocity": 0.58,
        "hand": "left"
      },
      {
        "midi": 42,
        "time": 79.765,
        "duration": 0.176,
        "velocity": 0.51,
        "hand": "left"
      },
      {
        "midi": 35,
        "time": 80.118,
        "duration": 0.176,
        "velocity": 0.73,
        "hand": "left"
      },
      {
        "midi": 42,
        "time": 80.118,
        "duration": 0.176,
        "velocity": 0.65,
        "hand": "left"
      },
      {
        "midi": 42,
        "time": 80.471,
        "duration": 0.176,
        "velocity": 0.51,
        "hand": "left"
      },
      {
        "midi": 37,
        "time": 80.824,
        "duration": 0.176,
        "velocity": 0.73,
        "hand": "left"
      },
      {
        "midi": 42,
        "time": 80.824,
        "duration": 0.176,
        "velocity": 0.58,
        "hand": "left"
      },
      {
        "midi": 35,
        "time": 81.176,
        "duration": 0.176,
        "velocity": 0.58,
        "hand": "left"
      },
      {
        "midi": 42,
        "time": 81.176,
        "duration": 0.176,
        "velocity": 0.51,
        "hand": "left"
      },
      {
        "midi": 35,
        "time": 81.529,
        "duration": 0.176,
        "velocity": 0.73,
        "hand": "left"
      },
      {
        "midi": 38,
        "time": 81.529,
        "duration": 0.529,
        "velocity": 0.86,
        "hand": "left"
      },
      {
        "midi": 42,
        "time": 81.529,
        "duration": 0.176,
        "velocity": 0.65,
        "hand": "left"
      },
      {
        "midi": 45,
        "time": 81.529,
        "duration": 0.529,
        "velocity": 0.86,
        "hand": "left"
      },
      {
        "midi": 50,
        "time": 81.529,
        "duration": 0.529,
        "velocity": 0.79,
        "hand": "left"
      },
      {
        "midi": 57,
        "time": 81.529,
        "duration": 0.529,
        "velocity": 0.79,
        "hand": "left"
      },
      {
        "midi": 62,
        "time": 81.529,
        "duration": 0.529,
        "velocity": 0.83,
        "hand": "right"
      },
      {
        "midi": 66,
        "time": 81.529,
        "duration": 0.529,
        "velocity": 0.83,
        "hand": "right"
      },
      {
        "midi": 42,
        "time": 81.882,
        "duration": 0.176,
        "velocity": 0.51,
        "hand": "left"
      },
      {
        "midi": 37,
        "time": 82.235,
        "duration": 0.176,
        "velocity": 0.73,
        "hand": "left"
      },
      {
        "midi": 38,
        "time": 82.235,
        "duration": 0.353,
        "velocity": 0.86,
        "hand": "left"
      },
      {
        "midi": 42,
        "time": 82.235,
        "duration": 0.176,
        "velocity": 0.58,
        "hand": "left"
      },
      {
        "midi": 45,
        "time": 82.235,
        "duration": 0.353,
        "velocity": 0.86,
        "hand": "left"
      },
      {
        "midi": 50,
        "time": 82.235,
        "duration": 0.353,
        "velocity": 0.79,
        "hand": "left"
      },
      {
        "midi": 57,
        "time": 82.235,
        "duration": 0.353,
        "velocity": 0.79,
        "hand": "left"
      },
      {
        "midi": 62,
        "time": 82.235,
        "duration": 0.353,
        "velocity": 0.83,
        "hand": "right"
      },
      {
        "midi": 66,
        "time": 82.235,
        "duration": 0.353,
        "velocity": 0.83,
        "hand": "right"
      },
      {
        "midi": 35,
        "time": 82.588,
        "duration": 0.176,
        "velocity": 0.58,
        "hand": "left"
      },
      {
        "midi": 42,
        "time": 82.588,
        "duration": 0.176,
        "velocity": 0.51,
        "hand": "left"
      },
      {
        "midi": 38,
        "time": 82.765,
        "duration": 0.176,
        "velocity": 0.86,
        "hand": "left"
      },
      {
        "midi": 44,
        "time": 82.765,
        "duration": 0.176,
        "velocity": 0.86,
        "hand": "left"
      },
      {
        "midi": 50,
        "time": 82.765,
        "duration": 0.176,
        "velocity": 0.79,
        "hand": "left"
      },
      {
        "midi": 56,
        "time": 82.765,
        "duration": 0.176,
        "velocity": 0.79,
        "hand": "left"
      },
      {
        "midi": 62,
        "time": 82.765,
        "duration": 0.176,
        "velocity": 0.83,
        "hand": "right"
      },
      {
        "midi": 65,
        "time": 82.765,
        "duration": 0.176,
        "velocity": 0.83,
        "hand": "right"
      },
      {
        "midi": 35,
        "time": 82.941,
        "duration": 0.176,
        "velocity": 0.73,
        "hand": "left"
      },
      {
        "midi": 38,
        "time": 82.941,
        "duration": 0.529,
        "velocity": 0.86,
        "hand": "left"
      },
      {
        "midi": 42,
        "time": 82.941,
        "duration": 0.176,
        "velocity": 0.65,
        "hand": "left"
      },
      {
        "midi": 45,
        "time": 82.941,
        "duration": 0.529,
        "velocity": 0.86,
        "hand": "left"
      },
      {
        "midi": 50,
        "time": 82.941,
        "duration": 0.529,
        "velocity": 0.79,
        "hand": "left"
      },
      {
        "midi": 57,
        "time": 82.941,
        "duration": 0.529,
        "velocity": 0.79,
        "hand": "left"
      },
      {
        "midi": 62,
        "time": 82.941,
        "duration": 0.529,
        "velocity": 0.83,
        "hand": "right"
      },
      {
        "midi": 66,
        "time": 82.941,
        "duration": 0.529,
        "velocity": 0.83,
        "hand": "right"
      },
      {
        "midi": 42,
        "time": 83.294,
        "duration": 0.176,
        "velocity": 0.51,
        "hand": "left"
      },
      {
        "midi": 37,
        "time": 83.647,
        "duration": 0.176,
        "velocity": 0.73,
        "hand": "left"
      },
      {
        "midi": 38,
        "time": 83.647,
        "duration": 0.353,
        "velocity": 0.86,
        "hand": "left"
      },
      {
        "midi": 42,
        "time": 83.647,
        "duration": 0.176,
        "velocity": 0.58,
        "hand": "left"
      },
      {
        "midi": 45,
        "time": 83.647,
        "duration": 0.353,
        "velocity": 0.86,
        "hand": "left"
      },
      {
        "midi": 50,
        "time": 83.647,
        "duration": 0.353,
        "velocity": 0.79,
        "hand": "left"
      },
      {
        "midi": 57,
        "time": 83.647,
        "duration": 0.353,
        "velocity": 0.79,
        "hand": "left"
      },
      {
        "midi": 62,
        "time": 83.647,
        "duration": 0.353,
        "velocity": 0.83,
        "hand": "right"
      },
      {
        "midi": 66,
        "time": 83.647,
        "duration": 0.353,
        "velocity": 0.83,
        "hand": "right"
      },
      {
        "midi": 35,
        "time": 84,
        "duration": 0.176,
        "velocity": 0.58,
        "hand": "left"
      },
      {
        "midi": 42,
        "time": 84,
        "duration": 0.176,
        "velocity": 0.51,
        "hand": "left"
      },
      {
        "midi": 38,
        "time": 84.176,
        "duration": 0.176,
        "velocity": 0.86,
        "hand": "left"
      },
      {
        "midi": 45,
        "time": 84.176,
        "duration": 0.176,
        "velocity": 0.86,
        "hand": "left"
      },
      {
        "midi": 50,
        "time": 84.176,
        "duration": 0.176,
        "velocity": 0.79,
        "hand": "left"
      },
      {
        "midi": 57,
        "time": 84.176,
        "duration": 0.176,
        "velocity": 0.79,
        "hand": "left"
      },
      {
        "midi": 64,
        "time": 84.176,
        "duration": 0.176,
        "velocity": 0.83,
        "hand": "right"
      },
      {
        "midi": 67,
        "time": 84.176,
        "duration": 0.176,
        "velocity": 0.83,
        "hand": "right"
      },
      {
        "midi": 35,
        "time": 84.353,
        "duration": 0.176,
        "velocity": 0.73,
        "hand": "left"
      },
      {
        "midi": 38,
        "time": 84.353,
        "duration": 0.882,
        "velocity": 0.86,
        "hand": "left"
      },
      {
        "midi": 42,
        "time": 84.353,
        "duration": 0.176,
        "velocity": 0.65,
        "hand": "left"
      },
      {
        "midi": 50,
        "time": 84.353,
        "duration": 0.882,
        "velocity": 0.79,
        "hand": "left"
      },
      {
        "midi": 62,
        "time": 84.353,
        "duration": 0.882,
        "velocity": 0.79,
        "hand": "right"
      },
      {
        "midi": 66,
        "time": 84.353,
        "duration": 0.882,
        "velocity": 0.83,
        "hand": "right"
      },
      {
        "midi": 69,
        "time": 84.353,
        "duration": 0.882,
        "velocity": 0.83,
        "hand": "right"
      },
      {
        "midi": 42,
        "time": 84.706,
        "duration": 0.176,
        "velocity": 0.51,
        "hand": "left"
      },
      {
        "midi": 37,
        "time": 85.059,
        "duration": 0.176,
        "velocity": 0.73,
        "hand": "left"
      },
      {
        "midi": 42,
        "time": 85.059,
        "duration": 0.176,
        "velocity": 0.58,
        "hand": "left"
      },
      {
        "midi": 35,
        "time": 85.412,
        "duration": 0.176,
        "velocity": 0.58,
        "hand": "left"
      },
      {
        "midi": 42,
        "time": 85.412,
        "duration": 0.176,
        "velocity": 0.51,
        "hand": "left"
      },
      {
        "midi": 35,
        "time": 85.765,
        "duration": 0.176,
        "velocity": 0.73,
        "hand": "left"
      },
      {
        "midi": 38,
        "time": 85.765,
        "duration": 0.529,
        "velocity": 0.86,
        "hand": "left"
      },
      {
        "midi": 42,
        "time": 85.765,
        "duration": 0.176,
        "velocity": 0.65,
        "hand": "left"
      },
      {
        "midi": 50,
        "time": 85.765,
        "duration": 0.529,
        "velocity": 0.79,
        "hand": "left"
      },
      {
        "midi": 62,
        "time": 85.765,
        "duration": 0.529,
        "velocity": 0.79,
        "hand": "right"
      },
      {
        "midi": 66,
        "time": 85.765,
        "duration": 0.529,
        "velocity": 0.83,
        "hand": "right"
      },
      {
        "midi": 69,
        "time": 85.765,
        "duration": 0.529,
        "velocity": 0.83,
        "hand": "right"
      },
      {
        "midi": 35,
        "time": 86.118,
        "duration": 0.176,
        "velocity": 0.58,
        "hand": "left"
      },
      {
        "midi": 42,
        "time": 86.118,
        "duration": 0.176,
        "velocity": 0.51,
        "hand": "left"
      },
      {
        "midi": 37,
        "time": 86.471,
        "duration": 0.176,
        "velocity": 0.73,
        "hand": "left"
      },
      {
        "midi": 38,
        "time": 86.471,
        "duration": 0.353,
        "velocity": 0.86,
        "hand": "left"
      },
      {
        "midi": 42,
        "time": 86.471,
        "duration": 0.176,
        "velocity": 0.58,
        "hand": "left"
      },
      {
        "midi": 50,
        "time": 86.471,
        "duration": 0.353,
        "velocity": 0.79,
        "hand": "left"
      },
      {
        "midi": 62,
        "time": 86.471,
        "duration": 0.353,
        "velocity": 0.79,
        "hand": "right"
      },
      {
        "midi": 66,
        "time": 86.471,
        "duration": 0.353,
        "velocity": 0.83,
        "hand": "right"
      },
      {
        "midi": 69,
        "time": 86.471,
        "duration": 0.353,
        "velocity": 0.83,
        "hand": "right"
      },
      {
        "midi": 35,
        "time": 86.824,
        "duration": 0.176,
        "velocity": 0.58,
        "hand": "left"
      },
      {
        "midi": 42,
        "time": 86.824,
        "duration": 0.176,
        "velocity": 0.51,
        "hand": "left"
      },
      {
        "midi": 38,
        "time": 87,
        "duration": 0.176,
        "velocity": 0.86,
        "hand": "left"
      },
      {
        "midi": 42,
        "time": 87,
        "duration": 0.176,
        "velocity": 0.43,
        "hand": "left"
      },
      {
        "midi": 45,
        "time": 87,
        "duration": 0.176,
        "velocity": 0.86,
        "hand": "left"
      },
      {
        "midi": 50,
        "time": 87,
        "duration": 0.176,
        "velocity": 0.79,
        "hand": "left"
      },
      {
        "midi": 57,
        "time": 87,
        "duration": 0.176,
        "velocity": 0.79,
        "hand": "left"
      },
      {
        "midi": 62,
        "time": 87,
        "duration": 0.176,
        "velocity": 0.83,
        "hand": "right"
      },
      {
        "midi": 66,
        "time": 87,
        "duration": 0.176,
        "velocity": 0.83,
        "hand": "right"
      },
      {
        "midi": 35,
        "time": 87.176,
        "duration": 0.176,
        "velocity": 0.73,
        "hand": "left"
      },
      {
        "midi": 42,
        "time": 87.176,
        "duration": 0.176,
        "velocity": 0.65,
        "hand": "left"
      },
      {
        "midi": 43,
        "time": 87.176,
        "duration": 0.529,
        "velocity": 0.86,
        "hand": "left"
      },
      {
        "midi": 47,
        "time": 87.176,
        "duration": 0.529,
        "velocity": 0.86,
        "hand": "left"
      },
      {
        "midi": 55,
        "time": 87.176,
        "duration": 0.529,
        "velocity": 0.79,
        "hand": "left"
      },
      {
        "midi": 59,
        "time": 87.176,
        "duration": 0.529,
        "velocity": 0.79,
        "hand": "left"
      },
      {
        "midi": 62,
        "time": 87.176,
        "duration": 0.529,
        "velocity": 0.83,
        "hand": "right"
      },
      {
        "midi": 64,
        "time": 87.176,
        "duration": 0.529,
        "velocity": 0.83,
        "hand": "right"
      },
      {
        "midi": 42,
        "time": 87.529,
        "duration": 0.176,
        "velocity": 0.51,
        "hand": "left"
      },
      {
        "midi": 37,
        "time": 87.882,
        "duration": 0.176,
        "velocity": 0.73,
        "hand": "left"
      },
      {
        "midi": 42,
        "time": 87.882,
        "duration": 0.176,
        "velocity": 0.58,
        "hand": "left"
      },
      {
        "midi": 43,
        "time": 87.882,
        "duration": 0.176,
        "velocity": 0.86,
        "hand": "left"
      },
      {
        "midi": 47,
        "time": 87.882,
        "duration": 0.176,
        "velocity": 0.86,
        "hand": "left"
      },
      {
        "midi": 55,
        "time": 87.882,
        "duration": 0.176,
        "velocity": 0.79,
        "hand": "left"
      },
      {
        "midi": 59,
        "time": 87.882,
        "duration": 0.176,
        "velocity": 0.79,
        "hand": "left"
      },
      {
        "midi": 62,
        "time": 87.882,
        "duration": 0.176,
        "velocity": 0.83,
        "hand": "right"
      },
      {
        "midi": 64,
        "time": 87.882,
        "duration": 0.176,
        "velocity": 0.83,
        "hand": "right"
      },
      {
        "midi": 35,
        "time": 88.235,
        "duration": 0.176,
        "velocity": 0.58,
        "hand": "left"
      },
      {
        "midi": 42,
        "time": 88.235,
        "duration": 0.176,
        "velocity": 0.51,
        "hand": "left"
      },
      {
        "midi": 43,
        "time": 88.235,
        "duration": 0.176,
        "velocity": 0.86,
        "hand": "left"
      },
      {
        "midi": 47,
        "time": 88.235,
        "duration": 0.176,
        "velocity": 0.86,
        "hand": "left"
      },
      {
        "midi": 55,
        "time": 88.235,
        "duration": 0.176,
        "velocity": 0.79,
        "hand": "left"
      },
      {
        "midi": 59,
        "time": 88.235,
        "duration": 0.176,
        "velocity": 0.79,
        "hand": "left"
      },
      {
        "midi": 62,
        "time": 88.235,
        "duration": 0.176,
        "velocity": 0.83,
        "hand": "right"
      },
      {
        "midi": 64,
        "time": 88.235,
        "duration": 0.176,
        "velocity": 0.83,
        "hand": "right"
      },
      {
        "midi": 35,
        "time": 88.588,
        "duration": 0.176,
        "velocity": 0.73,
        "hand": "left"
      },
      {
        "midi": 42,
        "time": 88.588,
        "duration": 0.176,
        "velocity": 0.65,
        "hand": "left"
      },
      {
        "midi": 45,
        "time": 88.588,
        "duration": 0.529,
        "velocity": 0.86,
        "hand": "left"
      },
      {
        "midi": 57,
        "time": 88.588,
        "duration": 0.529,
        "velocity": 0.79,
        "hand": "left"
      },
      {
        "midi": 61,
        "time": 88.588,
        "duration": 0.529,
        "velocity": 0.83,
        "hand": "right"
      },
      {
        "midi": 64,
        "time": 88.588,
        "duration": 0.529,
        "velocity": 0.83,
        "hand": "right"
      },
      {
        "midi": 42,
        "time": 88.941,
        "duration": 0.176,
        "velocity": 0.51,
        "hand": "left"
      },
      {
        "midi": 33,
        "time": 89.294,
        "duration": 0.353,
        "velocity": 0.86,
        "hand": "left"
      },
      {
        "midi": 37,
        "time": 89.294,
        "duration": 0.176,
        "velocity": 0.73,
        "hand": "left"
      },
      {
        "midi": 42,
        "time": 89.294,
        "duration": 0.176,
        "velocity": 0.58,
        "hand": "left"
      },
      {
        "midi": 45,
        "time": 89.294,
        "duration": 0.353,
        "velocity": 0.79,
        "hand": "left"
      },
      {
        "midi": 57,
        "time": 89.294,
        "duration": 0.353,
        "velocity": 0.79,
        "hand": "left"
      },
      {
        "midi": 61,
        "time": 89.294,
        "duration": 0.353,
        "velocity": 0.83,
        "hand": "right"
      },
      {
        "midi": 66,
        "time": 89.294,
        "duration": 0.353,
        "velocity": 0.83,
        "hand": "right"
      },
      {
        "midi": 35,
        "time": 89.647,
        "duration": 0.176,
        "velocity": 0.58,
        "hand": "left"
      },
      {
        "midi": 42,
        "time": 89.647,
        "duration": 0.176,
        "velocity": 0.51,
        "hand": "left"
      },
      {
        "midi": 33,
        "time": 89.824,
        "duration": 0.176,
        "velocity": 0.86,
        "hand": "left"
      },
      {
        "midi": 43,
        "time": 89.824,
        "duration": 0.176,
        "velocity": 0.86,
        "hand": "left"
      },
      {
        "midi": 45,
        "time": 89.824,
        "duration": 0.176,
        "velocity": 0.79,
        "hand": "left"
      },
      {
        "midi": 55,
        "time": 89.824,
        "duration": 0.176,
        "velocity": 0.79,
        "hand": "left"
      },
      {
        "midi": 61,
        "time": 89.824,
        "duration": 0.176,
        "velocity": 0.83,
        "hand": "right"
      },
      {
        "midi": 64,
        "time": 89.824,
        "duration": 0.176,
        "velocity": 0.83,
        "hand": "right"
      },
      {
        "midi": 35,
        "time": 90,
        "duration": 0.176,
        "velocity": 0.65,
        "hand": "left"
      },
      {
        "midi": 38,
        "time": 90,
        "duration": 1.412,
        "velocity": 0.86,
        "hand": "left"
      },
      {
        "midi": 42,
        "time": 90,
        "duration": 1.412,
        "velocity": 0.86,
        "hand": "left"
      },
      {
        "midi": 42,
        "time": 90,
        "duration": 0.176,
        "velocity": 0.58,
        "hand": "left"
      },
      {
        "midi": 50,
        "time": 90,
        "duration": 1.412,
        "velocity": 0.79,
        "hand": "left"
      },
      {
        "midi": 54,
        "time": 90,
        "duration": 1.412,
        "velocity": 0.79,
        "hand": "left"
      },
      {
        "midi": 62,
        "time": 90,
        "duration": 1.412,
        "velocity": 0.83,
        "hand": "right"
      },
      {
        "midi": 42,
        "time": 90.353,
        "duration": 0.176,
        "velocity": 0.36,
        "hand": "left"
      },
      {
        "midi": 42,
        "time": 90.529,
        "duration": 0.176,
        "velocity": 0.73,
        "hand": "left"
      },
      {
        "midi": 38,
        "time": 90.706,
        "duration": 0.176,
        "velocity": 0.73,
        "hand": "left"
      },
      {
        "midi": 46,
        "time": 90.706,
        "duration": 0.176,
        "velocity": 0.73,
        "hand": "left"
      },
      {
        "midi": 35,
        "time": 91.235,
        "duration": 0.176,
        "velocity": 0.65,
        "hand": "left"
      },
      {
        "midi": 38,
        "time": 91.412,
        "duration": 0.176,
        "velocity": 0.73,
        "hand": "left"
      },
      {
        "midi": 38,
        "time": 91.588,
        "duration": 0.176,
        "velocity": 0.43,
        "hand": "left"
      },
      {
        "midi": 35,
        "time": 91.941,
        "duration": 0.176,
        "velocity": 0.65,
        "hand": "left"
      },
      {
        "midi": 38,
        "time": 92.118,
        "duration": 0.176,
        "velocity": 0.73,
        "hand": "left"
      },
      {
        "midi": 38,
        "time": 92.294,
        "duration": 0.176,
        "velocity": 0.43,
        "hand": "left"
      },
      {
        "midi": 41,
        "time": 92.471,
        "duration": 0.176,
        "velocity": 0.83,
        "hand": "left"
      },
      {
        "midi": 35,
        "time": 92.824,
        "duration": 0.176,
        "velocity": 0.73,
        "hand": "left"
      },
      {
        "midi": 42,
        "time": 92.824,
        "duration": 0.176,
        "velocity": 0.65,
        "hand": "left"
      },
      {
        "midi": 43,
        "time": 92.824,
        "duration": 0.529,
        "velocity": 0.86,
        "hand": "left"
      },
      {
        "midi": 49,
        "time": 92.824,
        "duration": 0.176,
        "velocity": 0.65,
        "hand": "left"
      },
      {
        "midi": 50,
        "time": 92.824,
        "duration": 0.529,
        "velocity": 0.86,
        "hand": "left"
      },
      {
        "midi": 55,
        "time": 92.824,
        "duration": 0.529,
        "velocity": 0.79,
        "hand": "left"
      },
      {
        "midi": 62,
        "time": 92.824,
        "duration": 0.529,
        "velocity": 0.83,
        "hand": "right"
      },
      {
        "midi": 71,
        "time": 92.824,
        "duration": 0.529,
        "velocity": 0.83,
        "hand": "right"
      },
      {
        "midi": 42,
        "time": 93.176,
        "duration": 0.176,
        "velocity": 0.51,
        "hand": "left"
      },
      {
        "midi": 37,
        "time": 93.529,
        "duration": 0.176,
        "velocity": 0.73,
        "hand": "left"
      },
      {
        "midi": 42,
        "time": 93.529,
        "duration": 0.176,
        "velocity": 0.58,
        "hand": "left"
      },
      {
        "midi": 43,
        "time": 93.529,
        "duration": 0.353,
        "velocity": 0.86,
        "hand": "left"
      },
      {
        "midi": 50,
        "time": 93.529,
        "duration": 0.353,
        "velocity": 0.86,
        "hand": "left"
      },
      {
        "midi": 55,
        "time": 93.529,
        "duration": 0.353,
        "velocity": 0.79,
        "hand": "left"
      },
      {
        "midi": 62,
        "time": 93.529,
        "duration": 0.353,
        "velocity": 0.79,
        "hand": "right"
      },
      {
        "midi": 67,
        "time": 93.529,
        "duration": 0.353,
        "velocity": 0.83,
        "hand": "right"
      },
      {
        "midi": 71,
        "time": 93.529,
        "duration": 0.353,
        "velocity": 0.83,
        "hand": "right"
      },
      {
        "midi": 35,
        "time": 93.882,
        "duration": 0.176,
        "velocity": 0.58,
        "hand": "left"
      },
      {
        "midi": 42,
        "time": 93.882,
        "duration": 0.176,
        "velocity": 0.51,
        "hand": "left"
      },
      {
        "midi": 43,
        "time": 94.059,
        "duration": 0.176,
        "velocity": 0.86,
        "hand": "left"
      },
      {
        "midi": 50,
        "time": 94.059,
        "duration": 0.176,
        "velocity": 0.86,
        "hand": "left"
      },
      {
        "midi": 55,
        "time": 94.059,
        "duration": 0.176,
        "velocity": 0.79,
        "hand": "left"
      },
      {
        "midi": 62,
        "time": 94.059,
        "duration": 0.176,
        "velocity": 0.79,
        "hand": "right"
      },
      {
        "midi": 67,
        "time": 94.059,
        "duration": 0.176,
        "velocity": 0.83,
        "hand": "right"
      },
      {
        "midi": 71,
        "time": 94.059,
        "duration": 0.176,
        "velocity": 0.83,
        "hand": "right"
      },
      {
        "midi": 35,
        "time": 94.235,
        "duration": 0.176,
        "velocity": 0.73,
        "hand": "left"
      },
      {
        "midi": 42,
        "time": 94.235,
        "duration": 0.176,
        "velocity": 0.65,
        "hand": "left"
      },
      {
        "midi": 43,
        "time": 94.235,
        "duration": 0.529,
        "velocity": 0.86,
        "hand": "left"
      },
      {
        "midi": 50,
        "time": 94.235,
        "duration": 0.529,
        "velocity": 0.86,
        "hand": "left"
      },
      {
        "midi": 55,
        "time": 94.235,
        "duration": 0.529,
        "velocity": 0.79,
        "hand": "left"
      },
      {
        "midi": 62,
        "time": 94.235,
        "duration": 0.529,
        "velocity": 0.79,
        "hand": "right"
      },
      {
        "midi": 67,
        "time": 94.235,
        "duration": 0.529,
        "velocity": 0.83,
        "hand": "right"
      },
      {
        "midi": 71,
        "time": 94.235,
        "duration": 0.529,
        "velocity": 0.83,
        "hand": "right"
      },
      {
        "midi": 42,
        "time": 94.588,
        "duration": 0.176,
        "velocity": 0.51,
        "hand": "left"
      },
      {
        "midi": 37,
        "time": 94.941,
        "duration": 0.176,
        "velocity": 0.73,
        "hand": "left"
      },
      {
        "midi": 42,
        "time": 94.941,
        "duration": 0.176,
        "velocity": 0.58,
        "hand": "left"
      },
      {
        "midi": 43,
        "time": 94.941,
        "duration": 0.353,
        "velocity": 0.86,
        "hand": "left"
      },
      {
        "midi": 50,
        "time": 94.941,
        "duration": 0.353,
        "velocity": 0.86,
        "hand": "left"
      },
      {
        "midi": 55,
        "time": 94.941,
        "duration": 0.353,
        "velocity": 0.79,
        "hand": "left"
      },
      {
        "midi": 62,
        "time": 94.941,
        "duration": 0.353,
        "velocity": 0.79,
        "hand": "right"
      },
      {
        "midi": 67,
        "time": 94.941,
        "duration": 0.353,
        "velocity": 0.83,
        "hand": "right"
      },
      {
        "midi": 71,
        "time": 94.941,
        "duration": 0.353,
        "velocity": 0.83,
        "hand": "right"
      },
      {
        "midi": 35,
        "time": 95.294,
        "duration": 0.176,
        "velocity": 0.58,
        "hand": "left"
      },
      {
        "midi": 42,
        "time": 95.294,
        "duration": 0.176,
        "velocity": 0.51,
        "hand": "left"
      },
      {
        "midi": 43,
        "time": 95.471,
        "duration": 0.176,
        "velocity": 0.86,
        "hand": "left"
      },
      {
        "midi": 47,
        "time": 95.471,
        "duration": 0.176,
        "velocity": 0.86,
        "hand": "left"
      },
      {
        "midi": 55,
        "time": 95.471,
        "duration": 0.176,
        "velocity": 0.79,
        "hand": "left"
      },
      {
        "midi": 59,
        "time": 95.471,
        "duration": 0.176,
        "velocity": 0.79,
        "hand": "left"
      },
      {
        "midi": 64,
        "time": 95.471,
        "duration": 0.176,
        "velocity": 0.83,
        "hand": "right"
      },
      {
        "midi": 67,
        "time": 95.471,
        "duration": 0.176,
        "velocity": 0.83,
        "hand": "right"
      },
      {
        "midi": 35,
        "time": 95.647,
        "duration": 0.176,
        "velocity": 0.73,
        "hand": "left"
      },
      {
        "midi": 38,
        "time": 95.647,
        "duration": 0.882,
        "velocity": 0.86,
        "hand": "left"
      },
      {
        "midi": 42,
        "time": 95.647,
        "duration": 0.176,
        "velocity": 0.65,
        "hand": "left"
      },
      {
        "midi": 45,
        "time": 95.647,
        "duration": 0.882,
        "velocity": 0.86,
        "hand": "left"
      },
      {
        "midi": 50,
        "time": 95.647,
        "duration": 0.882,
        "velocity": 0.79,
        "hand": "left"
      },
      {
        "midi": 57,
        "time": 95.647,
        "duration": 0.882,
        "velocity": 0.79,
        "hand": "left"
      },
      {
        "midi": 62,
        "time": 95.647,
        "duration": 0.882,
        "velocity": 0.83,
        "hand": "right"
      },
      {
        "midi": 66,
        "time": 95.647,
        "duration": 0.882,
        "velocity": 0.83,
        "hand": "right"
      },
      {
        "midi": 42,
        "time": 96,
        "duration": 0.176,
        "velocity": 0.51,
        "hand": "left"
      },
      {
        "midi": 37,
        "time": 96.353,
        "duration": 0.176,
        "velocity": 0.73,
        "hand": "left"
      },
      {
        "midi": 42,
        "time": 96.353,
        "duration": 0.176,
        "velocity": 0.58,
        "hand": "left"
      },
      {
        "midi": 35,
        "time": 96.706,
        "duration": 0.176,
        "velocity": 0.58,
        "hand": "left"
      },
      {
        "midi": 42,
        "time": 96.706,
        "duration": 0.176,
        "velocity": 0.51,
        "hand": "left"
      },
      {
        "midi": 35,
        "time": 97.059,
        "duration": 0.176,
        "velocity": 0.73,
        "hand": "left"
      },
      {
        "midi": 38,
        "time": 97.059,
        "duration": 0.529,
        "velocity": 0.86,
        "hand": "left"
      },
      {
        "midi": 42,
        "time": 97.059,
        "duration": 0.176,
        "velocity": 0.65,
        "hand": "left"
      },
      {
        "midi": 50,
        "time": 97.059,
        "duration": 0.529,
        "velocity": 0.79,
        "hand": "left"
      },
      {
        "midi": 62,
        "time": 97.059,
        "duration": 0.529,
        "velocity": 0.79,
        "hand": "right"
      },
      {
        "midi": 66,
        "time": 97.059,
        "duration": 0.529,
        "velocity": 0.83,
        "hand": "right"
      },
      {
        "midi": 69,
        "time": 97.059,
        "duration": 0.529,
        "velocity": 0.83,
        "hand": "right"
      },
      {
        "midi": 35,
        "time": 97.412,
        "duration": 0.176,
        "velocity": 0.58,
        "hand": "left"
      },
      {
        "midi": 42,
        "time": 97.412,
        "duration": 0.176,
        "velocity": 0.51,
        "hand": "left"
      },
      {
        "midi": 37,
        "time": 97.765,
        "duration": 0.176,
        "velocity": 0.73,
        "hand": "left"
      },
      {
        "midi": 42,
        "time": 97.765,
        "duration": 0.176,
        "velocity": 0.58,
        "hand": "left"
      },
      {
        "midi": 35,
        "time": 98.118,
        "duration": 0.176,
        "velocity": 0.58,
        "hand": "left"
      },
      {
        "midi": 42,
        "time": 98.118,
        "duration": 0.176,
        "velocity": 0.51,
        "hand": "left"
      },
      {
        "midi": 42,
        "time": 98.294,
        "duration": 0.176,
        "velocity": 0.43,
        "hand": "left"
      },
      {
        "midi": 35,
        "time": 98.471,
        "duration": 0.176,
        "velocity": 0.73,
        "hand": "left"
      },
      {
        "midi": 42,
        "time": 98.471,
        "duration": 0.176,
        "velocity": 0.65,
        "hand": "left"
      },
      {
        "midi": 43,
        "time": 98.471,
        "duration": 0.529,
        "velocity": 0.86,
        "hand": "left"
      },
      {
        "midi": 50,
        "time": 98.471,
        "duration": 0.529,
        "velocity": 0.86,
        "hand": "left"
      },
      {
        "midi": 55,
        "time": 98.471,
        "duration": 0.529,
        "velocity": 0.79,
        "hand": "left"
      },
      {
        "midi": 62,
        "time": 98.471,
        "duration": 0.529,
        "velocity": 0.79,
        "hand": "right"
      },
      {
        "midi": 67,
        "time": 98.471,
        "duration": 0.529,
        "velocity": 0.83,
        "hand": "right"
      },
      {
        "midi": 71,
        "time": 98.471,
        "duration": 0.529,
        "velocity": 0.83,
        "hand": "right"
      },
      {
        "midi": 42,
        "time": 98.824,
        "duration": 0.176,
        "velocity": 0.51,
        "hand": "left"
      },
      {
        "midi": 37,
        "time": 99.176,
        "duration": 0.176,
        "velocity": 0.73,
        "hand": "left"
      },
      {
        "midi": 42,
        "time": 99.176,
        "duration": 0.176,
        "velocity": 0.58,
        "hand": "left"
      },
      {
        "midi": 43,
        "time": 99.176,
        "duration": 0.353,
        "velocity": 0.86,
        "hand": "left"
      },
      {
        "midi": 50,
        "time": 99.176,
        "duration": 0.353,
        "velocity": 0.86,
        "hand": "left"
      },
      {
        "midi": 55,
        "time": 99.176,
        "duration": 0.353,
        "velocity": 0.79,
        "hand": "left"
      },
      {
        "midi": 62,
        "time": 99.176,
        "duration": 0.353,
        "velocity": 0.79,
        "hand": "right"
      },
      {
        "midi": 67,
        "time": 99.176,
        "duration": 0.353,
        "velocity": 0.83,
        "hand": "right"
      },
      {
        "midi": 71,
        "time": 99.176,
        "duration": 0.353,
        "velocity": 0.83,
        "hand": "right"
      },
      {
        "midi": 35,
        "time": 99.529,
        "duration": 0.176,
        "velocity": 0.58,
        "hand": "left"
      },
      {
        "midi": 42,
        "time": 99.529,
        "duration": 0.176,
        "velocity": 0.51,
        "hand": "left"
      },
      {
        "midi": 43,
        "time": 99.706,
        "duration": 0.176,
        "velocity": 0.86,
        "hand": "left"
      },
      {
        "midi": 50,
        "time": 99.706,
        "duration": 0.176,
        "velocity": 0.86,
        "hand": "left"
      },
      {
        "midi": 55,
        "time": 99.706,
        "duration": 0.176,
        "velocity": 0.79,
        "hand": "left"
      },
      {
        "midi": 62,
        "time": 99.706,
        "duration": 0.176,
        "velocity": 0.79,
        "hand": "right"
      },
      {
        "midi": 67,
        "time": 99.706,
        "duration": 0.176,
        "velocity": 0.83,
        "hand": "right"
      },
      {
        "midi": 71,
        "time": 99.706,
        "duration": 0.176,
        "velocity": 0.83,
        "hand": "right"
      },
      {
        "midi": 35,
        "time": 99.882,
        "duration": 0.176,
        "velocity": 0.73,
        "hand": "left"
      },
      {
        "midi": 40,
        "time": 99.882,
        "duration": 0.176,
        "velocity": 0.86,
        "hand": "left"
      },
      {
        "midi": 42,
        "time": 99.882,
        "duration": 0.176,
        "velocity": 0.65,
        "hand": "left"
      },
      {
        "midi": 50,
        "time": 99.882,
        "duration": 0.176,
        "velocity": 0.86,
        "hand": "left"
      },
      {
        "midi": 52,
        "time": 99.882,
        "duration": 0.176,
        "velocity": 0.79,
        "hand": "left"
      },
      {
        "midi": 62,
        "time": 99.882,
        "duration": 0.176,
        "velocity": 0.79,
        "hand": "right"
      },
      {
        "midi": 68,
        "time": 99.882,
        "duration": 0.176,
        "velocity": 0.83,
        "hand": "right"
      },
      {
        "midi": 71,
        "time": 99.882,
        "duration": 0.176,
        "velocity": 0.83,
        "hand": "right"
      },
      {
        "midi": 40,
        "time": 100.235,
        "duration": 0.176,
        "velocity": 0.86,
        "hand": "left"
      },
      {
        "midi": 42,
        "time": 100.235,
        "duration": 0.176,
        "velocity": 0.51,
        "hand": "left"
      },
      {
        "midi": 47,
        "time": 100.235,
        "duration": 0.176,
        "velocity": 0.86,
        "hand": "left"
      },
      {
        "midi": 52,
        "time": 100.235,
        "duration": 0.176,
        "velocity": 0.79,
        "hand": "left"
      },
      {
        "midi": 59,
        "time": 100.235,
        "duration": 0.176,
        "velocity": 0.79,
        "hand": "left"
      },
      {
        "midi": 68,
        "time": 100.235,
        "duration": 0.176,
        "velocity": 0.83,
        "hand": "right"
      },
      {
        "midi": 74,
        "time": 100.235,
        "duration": 0.176,
        "velocity": 0.83,
        "hand": "right"
      },
      {
        "midi": 37,
        "time": 100.588,
        "duration": 0.176,
        "velocity": 0.73,
        "hand": "left"
      },
      {
        "midi": 40,
        "time": 100.588,
        "duration": 0.176,
        "velocity": 0.86,
        "hand": "left"
      },
      {
        "midi": 42,
        "time": 100.588,
        "duration": 0.176,
        "velocity": 0.58,
        "hand": "left"
      },
      {
        "midi": 45,
        "time": 100.588,
        "duration": 0.176,
        "velocity": 0.86,
        "hand": "left"
      },
      {
        "midi": 52,
        "time": 100.588,
        "duration": 0.176,
        "velocity": 0.79,
        "hand": "left"
      },
      {
        "midi": 57,
        "time": 100.588,
        "duration": 0.176,
        "velocity": 0.79,
        "hand": "left"
      },
      {
        "midi": 64,
        "time": 100.588,
        "duration": 0.176,
        "velocity": 0.83,
        "hand": "right"
      },
      {
        "midi": 73,
        "time": 100.588,
        "duration": 0.176,
        "velocity": 0.83,
        "hand": "right"
      },
      {
        "midi": 35,
        "time": 100.941,
        "duration": 0.176,
        "velocity": 0.58,
        "hand": "left"
      },
      {
        "midi": 40,
        "time": 100.941,
        "duration": 0.176,
        "velocity": 0.86,
        "hand": "left"
      },
      {
        "midi": 42,
        "time": 100.941,
        "duration": 0.176,
        "velocity": 0.51,
        "hand": "left"
      },
      {
        "midi": 44,
        "time": 100.941,
        "duration": 0.176,
        "velocity": 0.86,
        "hand": "left"
      },
      {
        "midi": 52,
        "time": 100.941,
        "duration": 0.176,
        "velocity": 0.79,
        "hand": "left"
      },
      {
        "midi": 56,
        "time": 100.941,
        "duration": 0.176,
        "velocity": 0.79,
        "hand": "left"
      },
      {
        "midi": 62,
        "time": 100.941,
        "duration": 0.176,
        "velocity": 0.83,
        "hand": "right"
      },
      {
        "midi": 71,
        "time": 100.941,
        "duration": 0.176,
        "velocity": 0.83,
        "hand": "right"
      },
      {
        "midi": 33,
        "time": 101.294,
        "duration": 1.412,
        "velocity": 0.86,
        "hand": "left"
      },
      {
        "midi": 35,
        "time": 101.294,
        "duration": 0.176,
        "velocity": 0.73,
        "hand": "left"
      },
      {
        "midi": 42,
        "time": 101.294,
        "duration": 0.176,
        "velocity": 0.65,
        "hand": "left"
      },
      {
        "midi": 45,
        "time": 101.294,
        "duration": 1.412,
        "velocity": 0.79,
        "hand": "left"
      },
      {
        "midi": 57,
        "time": 101.294,
        "duration": 1.412,
        "velocity": 0.79,
        "hand": "left"
      },
      {
        "midi": 61,
        "time": 101.294,
        "duration": 1.412,
        "velocity": 0.83,
        "hand": "right"
      },
      {
        "midi": 69,
        "time": 101.294,
        "duration": 0.882,
        "velocity": 0.83,
        "hand": "right"
      },
      {
        "midi": 69,
        "time": 101.294,
        "duration": 1.412,
        "velocity": 0.86,
        "hand": "right"
      },
      {
        "midi": 42,
        "time": 101.471,
        "duration": 0.176,
        "velocity": 0.43,
        "hand": "left"
      },
      {
        "midi": 42,
        "time": 101.647,
        "duration": 0.176,
        "velocity": 0.51,
        "hand": "left"
      },
      {
        "midi": 37,
        "time": 102,
        "duration": 0.176,
        "velocity": 0.73,
        "hand": "left"
      },
      {
        "midi": 42,
        "time": 102,
        "duration": 0.176,
        "velocity": 0.58,
        "hand": "left"
      },
      {
        "midi": 35,
        "time": 102.353,
        "duration": 0.176,
        "velocity": 0.58,
        "hand": "left"
      },
      {
        "midi": 42,
        "time": 102.353,
        "duration": 0.176,
        "velocity": 0.51,
        "hand": "left"
      },
      {
        "midi": 46,
        "time": 102.529,
        "duration": 0.176,
        "velocity": 0.39,
        "hand": "left"
      },
      {
        "midi": 35,
        "time": 102.706,
        "duration": 0.176,
        "velocity": 0.73,
        "hand": "left"
      },
      {
        "midi": 42,
        "time": 102.706,
        "duration": 0.176,
        "velocity": 0.65,
        "hand": "left"
      },
      {
        "midi": 67,
        "time": 102.706,
        "duration": 0.529,
        "velocity": 0.83,
        "hand": "right"
      },
      {
        "midi": 35,
        "time": 103.059,
        "duration": 0.176,
        "velocity": 0.58,
        "hand": "left"
      },
      {
        "midi": 42,
        "time": 103.059,
        "duration": 0.176,
        "velocity": 0.51,
        "hand": "left"
      },
      {
        "midi": 37,
        "time": 103.412,
        "duration": 0.176,
        "velocity": 0.73,
        "hand": "left"
      },
      {
        "midi": 42,
        "time": 103.412,
        "duration": 0.176,
        "velocity": 0.58,
        "hand": "left"
      },
      {
        "midi": 35,
        "time": 103.765,
        "duration": 0.176,
        "velocity": 0.58,
        "hand": "left"
      },
      {
        "midi": 42,
        "time": 103.765,
        "duration": 0.176,
        "velocity": 0.51,
        "hand": "left"
      },
      {
        "midi": 35,
        "time": 104.118,
        "duration": 0.176,
        "velocity": 0.73,
        "hand": "left"
      },
      {
        "midi": 38,
        "time": 104.118,
        "duration": 0.529,
        "velocity": 0.86,
        "hand": "left"
      },
      {
        "midi": 42,
        "time": 104.118,
        "duration": 0.176,
        "velocity": 0.65,
        "hand": "left"
      },
      {
        "midi": 45,
        "time": 104.118,
        "duration": 0.529,
        "velocity": 0.86,
        "hand": "left"
      },
      {
        "midi": 50,
        "time": 104.118,
        "duration": 0.529,
        "velocity": 0.79,
        "hand": "left"
      },
      {
        "midi": 57,
        "time": 104.118,
        "duration": 0.529,
        "velocity": 0.79,
        "hand": "left"
      },
      {
        "midi": 62,
        "time": 104.118,
        "duration": 0.529,
        "velocity": 0.83,
        "hand": "right"
      },
      {
        "midi": 66,
        "time": 104.118,
        "duration": 0.529,
        "velocity": 0.83,
        "hand": "right"
      },
      {
        "midi": 42,
        "time": 104.471,
        "duration": 0.176,
        "velocity": 0.51,
        "hand": "left"
      },
      {
        "midi": 37,
        "time": 104.824,
        "duration": 0.176,
        "velocity": 0.73,
        "hand": "left"
      },
      {
        "midi": 38,
        "time": 104.824,
        "duration": 0.353,
        "velocity": 0.86,
        "hand": "left"
      },
      {
        "midi": 42,
        "time": 104.824,
        "duration": 0.176,
        "velocity": 0.58,
        "hand": "left"
      },
      {
        "midi": 45,
        "time": 104.824,
        "duration": 0.353,
        "velocity": 0.86,
        "hand": "left"
      },
      {
        "midi": 50,
        "time": 104.824,
        "duration": 0.353,
        "velocity": 0.79,
        "hand": "left"
      },
      {
        "midi": 57,
        "time": 104.824,
        "duration": 0.353,
        "velocity": 0.79,
        "hand": "left"
      },
      {
        "midi": 62,
        "time": 104.824,
        "duration": 0.353,
        "velocity": 0.83,
        "hand": "right"
      },
      {
        "midi": 66,
        "time": 104.824,
        "duration": 0.353,
        "velocity": 0.83,
        "hand": "right"
      },
      {
        "midi": 35,
        "time": 105.176,
        "duration": 0.176,
        "velocity": 0.58,
        "hand": "left"
      },
      {
        "midi": 42,
        "time": 105.176,
        "duration": 0.176,
        "velocity": 0.51,
        "hand": "left"
      },
      {
        "midi": 38,
        "time": 105.353,
        "duration": 0.176,
        "velocity": 0.86,
        "hand": "left"
      },
      {
        "midi": 44,
        "time": 105.353,
        "duration": 0.176,
        "velocity": 0.86,
        "hand": "left"
      },
      {
        "midi": 50,
        "time": 105.353,
        "duration": 0.176,
        "velocity": 0.79,
        "hand": "left"
      },
      {
        "midi": 56,
        "time": 105.353,
        "duration": 0.176,
        "velocity": 0.79,
        "hand": "left"
      },
      {
        "midi": 62,
        "time": 105.353,
        "duration": 0.176,
        "velocity": 0.83,
        "hand": "right"
      },
      {
        "midi": 65,
        "time": 105.353,
        "duration": 0.176,
        "velocity": 0.83,
        "hand": "right"
      },
      {
        "midi": 35,
        "time": 105.529,
        "duration": 0.176,
        "velocity": 0.73,
        "hand": "left"
      },
      {
        "midi": 38,
        "time": 105.529,
        "duration": 0.529,
        "velocity": 0.86,
        "hand": "left"
      },
      {
        "midi": 42,
        "time": 105.529,
        "duration": 0.176,
        "velocity": 0.65,
        "hand": "left"
      },
      {
        "midi": 45,
        "time": 105.529,
        "duration": 0.529,
        "velocity": 0.86,
        "hand": "left"
      },
      {
        "midi": 50,
        "time": 105.529,
        "duration": 0.529,
        "velocity": 0.79,
        "hand": "left"
      },
      {
        "midi": 57,
        "time": 105.529,
        "duration": 0.529,
        "velocity": 0.79,
        "hand": "left"
      },
      {
        "midi": 62,
        "time": 105.529,
        "duration": 0.529,
        "velocity": 0.83,
        "hand": "right"
      },
      {
        "midi": 66,
        "time": 105.529,
        "duration": 0.529,
        "velocity": 0.83,
        "hand": "right"
      },
      {
        "midi": 42,
        "time": 105.882,
        "duration": 0.176,
        "velocity": 0.51,
        "hand": "left"
      },
      {
        "midi": 37,
        "time": 106.235,
        "duration": 0.176,
        "velocity": 0.73,
        "hand": "left"
      },
      {
        "midi": 38,
        "time": 106.235,
        "duration": 0.353,
        "velocity": 0.86,
        "hand": "left"
      },
      {
        "midi": 42,
        "time": 106.235,
        "duration": 0.176,
        "velocity": 0.58,
        "hand": "left"
      },
      {
        "midi": 45,
        "time": 106.235,
        "duration": 0.353,
        "velocity": 0.86,
        "hand": "left"
      },
      {
        "midi": 50,
        "time": 106.235,
        "duration": 0.353,
        "velocity": 0.79,
        "hand": "left"
      },
      {
        "midi": 57,
        "time": 106.235,
        "duration": 0.353,
        "velocity": 0.79,
        "hand": "left"
      },
      {
        "midi": 62,
        "time": 106.235,
        "duration": 0.353,
        "velocity": 0.83,
        "hand": "right"
      },
      {
        "midi": 66,
        "time": 106.235,
        "duration": 0.353,
        "velocity": 0.83,
        "hand": "right"
      },
      {
        "midi": 35,
        "time": 106.588,
        "duration": 0.176,
        "velocity": 0.58,
        "hand": "left"
      },
      {
        "midi": 42,
        "time": 106.588,
        "duration": 0.176,
        "velocity": 0.51,
        "hand": "left"
      },
      {
        "midi": 38,
        "time": 106.765,
        "duration": 0.176,
        "velocity": 0.86,
        "hand": "left"
      },
      {
        "midi": 45,
        "time": 106.765,
        "duration": 0.176,
        "velocity": 0.86,
        "hand": "left"
      },
      {
        "midi": 50,
        "time": 106.765,
        "duration": 0.176,
        "velocity": 0.79,
        "hand": "left"
      },
      {
        "midi": 57,
        "time": 106.765,
        "duration": 0.176,
        "velocity": 0.79,
        "hand": "left"
      },
      {
        "midi": 64,
        "time": 106.765,
        "duration": 0.176,
        "velocity": 0.83,
        "hand": "right"
      },
      {
        "midi": 67,
        "time": 106.765,
        "duration": 0.176,
        "velocity": 0.83,
        "hand": "right"
      },
      {
        "midi": 35,
        "time": 106.941,
        "duration": 0.176,
        "velocity": 0.73,
        "hand": "left"
      },
      {
        "midi": 38,
        "time": 106.941,
        "duration": 0.882,
        "velocity": 0.86,
        "hand": "left"
      },
      {
        "midi": 42,
        "time": 106.941,
        "duration": 0.176,
        "velocity": 0.65,
        "hand": "left"
      },
      {
        "midi": 50,
        "time": 106.941,
        "duration": 0.882,
        "velocity": 0.79,
        "hand": "left"
      },
      {
        "midi": 62,
        "time": 106.941,
        "duration": 0.882,
        "velocity": 0.79,
        "hand": "right"
      },
      {
        "midi": 66,
        "time": 106.941,
        "duration": 0.882,
        "velocity": 0.83,
        "hand": "right"
      },
      {
        "midi": 69,
        "time": 106.941,
        "duration": 0.882,
        "velocity": 0.83,
        "hand": "right"
      },
      {
        "midi": 42,
        "time": 107.294,
        "duration": 0.176,
        "velocity": 0.51,
        "hand": "left"
      },
      {
        "midi": 37,
        "time": 107.647,
        "duration": 0.176,
        "velocity": 0.73,
        "hand": "left"
      },
      {
        "midi": 42,
        "time": 107.647,
        "duration": 0.176,
        "velocity": 0.58,
        "hand": "left"
      },
      {
        "midi": 35,
        "time": 108,
        "duration": 0.176,
        "velocity": 0.58,
        "hand": "left"
      },
      {
        "midi": 42,
        "time": 108,
        "duration": 0.176,
        "velocity": 0.51,
        "hand": "left"
      },
      {
        "midi": 35,
        "time": 108.353,
        "duration": 0.176,
        "velocity": 0.73,
        "hand": "left"
      },
      {
        "midi": 38,
        "time": 108.353,
        "duration": 0.529,
        "velocity": 0.86,
        "hand": "left"
      },
      {
        "midi": 42,
        "time": 108.353,
        "duration": 0.176,
        "velocity": 0.65,
        "hand": "left"
      },
      {
        "midi": 50,
        "time": 108.353,
        "duration": 0.529,
        "velocity": 0.79,
        "hand": "left"
      },
      {
        "midi": 62,
        "time": 108.353,
        "duration": 0.529,
        "velocity": 0.79,
        "hand": "right"
      },
      {
        "midi": 66,
        "time": 108.353,
        "duration": 0.529,
        "velocity": 0.83,
        "hand": "right"
      },
      {
        "midi": 69,
        "time": 108.353,
        "duration": 0.529,
        "velocity": 0.83,
        "hand": "right"
      },
      {
        "midi": 35,
        "time": 108.706,
        "duration": 0.176,
        "velocity": 0.58,
        "hand": "left"
      },
      {
        "midi": 42,
        "time": 108.706,
        "duration": 0.176,
        "velocity": 0.51,
        "hand": "left"
      },
      {
        "midi": 37,
        "time": 109.059,
        "duration": 0.176,
        "velocity": 0.73,
        "hand": "left"
      },
      {
        "midi": 38,
        "time": 109.059,
        "duration": 0.353,
        "velocity": 0.86,
        "hand": "left"
      },
      {
        "midi": 42,
        "time": 109.059,
        "duration": 0.176,
        "velocity": 0.58,
        "hand": "left"
      },
      {
        "midi": 45,
        "time": 109.059,
        "duration": 0.353,
        "velocity": 0.86,
        "hand": "left"
      },
      {
        "midi": 50,
        "time": 109.059,
        "duration": 0.353,
        "velocity": 0.79,
        "hand": "left"
      },
      {
        "midi": 57,
        "time": 109.059,
        "duration": 0.353,
        "velocity": 0.79,
        "hand": "left"
      },
      {
        "midi": 66,
        "time": 109.059,
        "duration": 0.353,
        "velocity": 0.83,
        "hand": "right"
      },
      {
        "midi": 69,
        "time": 109.059,
        "duration": 0.353,
        "velocity": 0.83,
        "hand": "right"
      },
      {
        "midi": 35,
        "time": 109.412,
        "duration": 0.176,
        "velocity": 0.58,
        "hand": "left"
      },
      {
        "midi": 42,
        "time": 109.412,
        "duration": 0.176,
        "velocity": 0.51,
        "hand": "left"
      },
      {
        "midi": 38,
        "time": 109.588,
        "duration": 0.176,
        "velocity": 0.86,
        "hand": "left"
      },
      {
        "midi": 42,
        "time": 109.588,
        "duration": 0.176,
        "velocity": 0.43,
        "hand": "left"
      },
      {
        "midi": 45,
        "time": 109.588,
        "duration": 0.176,
        "velocity": 0.86,
        "hand": "left"
      },
      {
        "midi": 50,
        "time": 109.588,
        "duration": 0.176,
        "velocity": 0.79,
        "hand": "left"
      },
      {
        "midi": 57,
        "time": 109.588,
        "duration": 0.176,
        "velocity": 0.79,
        "hand": "left"
      },
      {
        "midi": 62,
        "time": 109.588,
        "duration": 0.176,
        "velocity": 0.83,
        "hand": "right"
      },
      {
        "midi": 66,
        "time": 109.588,
        "duration": 0.176,
        "velocity": 0.83,
        "hand": "right"
      },
      {
        "midi": 35,
        "time": 109.765,
        "duration": 0.176,
        "velocity": 0.65,
        "hand": "left"
      },
      {
        "midi": 42,
        "time": 109.765,
        "duration": 0.176,
        "velocity": 0.58,
        "hand": "left"
      },
      {
        "midi": 43,
        "time": 109.765,
        "duration": 0.529,
        "velocity": 0.86,
        "hand": "left"
      },
      {
        "midi": 47,
        "time": 109.765,
        "duration": 0.529,
        "velocity": 0.86,
        "hand": "left"
      },
      {
        "midi": 55,
        "time": 109.765,
        "duration": 0.529,
        "velocity": 0.79,
        "hand": "left"
      },
      {
        "midi": 59,
        "time": 109.765,
        "duration": 0.529,
        "velocity": 0.79,
        "hand": "left"
      },
      {
        "midi": 62,
        "time": 109.765,
        "duration": 0.529,
        "velocity": 0.83,
        "hand": "right"
      },
      {
        "midi": 64,
        "time": 109.765,
        "duration": 0.529,
        "velocity": 0.83,
        "hand": "right"
      },
      {
        "midi": 42,
        "time": 110.118,
        "duration": 0.176,
        "velocity": 0.36,
        "hand": "left"
      },
      {
        "midi": 42,
        "time": 110.294,
        "duration": 0.176,
        "velocity": 0.73,
        "hand": "left"
      },
      {
        "midi": 38,
        "time": 110.471,
        "duration": 0.176,
        "velocity": 0.73,
        "hand": "left"
      },
      {
        "midi": 43,
        "time": 110.471,
        "duration": 0.353,
        "velocity": 0.86,
        "hand": "left"
      },
      {
        "midi": 46,
        "time": 110.471,
        "duration": 0.176,
        "velocity": 0.73,
        "hand": "left"
      },
      {
        "midi": 47,
        "time": 110.471,
        "duration": 0.353,
        "velocity": 0.86,
        "hand": "left"
      },
      {
        "midi": 55,
        "time": 110.471,
        "duration": 0.353,
        "velocity": 0.79,
        "hand": "left"
      },
      {
        "midi": 59,
        "time": 110.471,
        "duration": 0.353,
        "velocity": 0.79,
        "hand": "left"
      },
      {
        "midi": 62,
        "time": 110.471,
        "duration": 0.353,
        "velocity": 0.83,
        "hand": "right"
      },
      {
        "midi": 64,
        "time": 110.471,
        "duration": 0.353,
        "velocity": 0.83,
        "hand": "right"
      },
      {
        "midi": 35,
        "time": 111,
        "duration": 0.176,
        "velocity": 0.65,
        "hand": "left"
      },
      {
        "midi": 43,
        "time": 111,
        "duration": 0.176,
        "velocity": 0.86,
        "hand": "left"
      },
      {
        "midi": 47,
        "time": 111,
        "duration": 0.176,
        "velocity": 0.86,
        "hand": "left"
      },
      {
        "midi": 55,
        "time": 111,
        "duration": 0.176,
        "velocity": 0.79,
        "hand": "left"
      },
      {
        "midi": 59,
        "time": 111,
        "duration": 0.176,
        "velocity": 0.79,
        "hand": "left"
      },
      {
        "midi": 62,
        "time": 111,
        "duration": 0.176,
        "velocity": 0.83,
        "hand": "right"
      },
      {
        "midi": 64,
        "time": 111,
        "duration": 0.176,
        "velocity": 0.83,
        "hand": "right"
      },
      {
        "midi": 38,
        "time": 111.176,
        "duration": 0.176,
        "velocity": 0.73,
        "hand": "left"
      },
      {
        "midi": 45,
        "time": 111.176,
        "duration": 0.529,
        "velocity": 0.86,
        "hand": "left"
      },
      {
        "midi": 57,
        "time": 111.176,
        "duration": 0.529,
        "velocity": 0.79,
        "hand": "left"
      },
      {
        "midi": 61,
        "time": 111.176,
        "duration": 0.529,
        "velocity": 0.83,
        "hand": "right"
      },
      {
        "midi": 64,
        "time": 111.176,
        "duration": 0.529,
        "velocity": 0.83,
        "hand": "right"
      },
      {
        "midi": 38,
        "time": 111.353,
        "duration": 0.176,
        "velocity": 0.43,
        "hand": "left"
      },
      {
        "midi": 35,
        "time": 111.706,
        "duration": 0.176,
        "velocity": 0.65,
        "hand": "left"
      },
      {
        "midi": 33,
        "time": 111.882,
        "duration": 0.353,
        "velocity": 0.86,
        "hand": "left"
      },
      {
        "midi": 38,
        "time": 111.882,
        "duration": 0.176,
        "velocity": 0.73,
        "hand": "left"
      },
      {
        "midi": 45,
        "time": 111.882,
        "duration": 0.353,
        "velocity": 0.79,
        "hand": "left"
      },
      {
        "midi": 57,
        "time": 111.882,
        "duration": 0.353,
        "velocity": 0.79,
        "hand": "left"
      },
      {
        "midi": 61,
        "time": 111.882,
        "duration": 0.353,
        "velocity": 0.83,
        "hand": "right"
      },
      {
        "midi": 66,
        "time": 111.882,
        "duration": 0.353,
        "velocity": 0.83,
        "hand": "right"
      },
      {
        "midi": 38,
        "time": 112.059,
        "duration": 0.176,
        "velocity": 0.43,
        "hand": "left"
      },
      {
        "midi": 41,
        "time": 112.235,
        "duration": 0.176,
        "velocity": 0.83,
        "hand": "left"
      },
      {
        "midi": 33,
        "time": 112.412,
        "duration": 0.176,
        "velocity": 0.86,
        "hand": "left"
      },
      {
        "midi": 43,
        "time": 112.412,
        "duration": 0.176,
        "velocity": 0.86,
        "hand": "left"
      },
      {
        "midi": 45,
        "time": 112.412,
        "duration": 0.176,
        "velocity": 0.79,
        "hand": "left"
      },
      {
        "midi": 55,
        "time": 112.412,
        "duration": 0.176,
        "velocity": 0.79,
        "hand": "left"
      },
      {
        "midi": 61,
        "time": 112.412,
        "duration": 0.176,
        "velocity": 0.83,
        "hand": "right"
      },
      {
        "midi": 64,
        "time": 112.412,
        "duration": 0.176,
        "velocity": 0.83,
        "hand": "right"
      },
      {
        "midi": 35,
        "time": 112.588,
        "duration": 0.176,
        "velocity": 0.73,
        "hand": "left"
      },
      {
        "midi": 38,
        "time": 112.588,
        "duration": 1.412,
        "velocity": 0.86,
        "hand": "left"
      },
      {
        "midi": 42,
        "time": 112.588,
        "duration": 1.412,
        "velocity": 0.86,
        "hand": "left"
      },
      {
        "midi": 50,
        "time": 112.588,
        "duration": 1.412,
        "velocity": 0.79,
        "hand": "left"
      },
      {
        "midi": 54,
        "time": 112.588,
        "duration": 1.412,
        "velocity": 0.79,
        "hand": "left"
      },
      {
        "midi": 62,
        "time": 112.588,
        "duration": 1.412,
        "velocity": 0.83,
        "hand": "right"
      },
      {
        "midi": 38,
        "time": 113.118,
        "duration": 0.176,
        "velocity": 0.36,
        "hand": "left"
      },
      {
        "midi": 38,
        "time": 113.294,
        "duration": 0.176,
        "velocity": 0.65,
        "hand": "left"
      },
      {
        "midi": 35,
        "time": 113.471,
        "duration": 0.176,
        "velocity": 0.65,
        "hand": "left"
      },
      {
        "midi": 48,
        "time": 113.647,
        "duration": 0.176,
        "velocity": 0.73,
        "hand": "left"
      },
      {
        "midi": 38,
        "time": 114.176,
        "duration": 0.176,
        "velocity": 0.29,
        "hand": "left"
      },
      {
        "midi": 45,
        "time": 114.353,
        "duration": 0.176,
        "velocity": 0.73,
        "hand": "left"
      },
      {
        "midi": 35,
        "time": 114.529,
        "duration": 0.176,
        "velocity": 0.65,
        "hand": "left"
      },
      {
        "midi": 41,
        "time": 114.706,
        "duration": 0.176,
        "velocity": 0.73,
        "hand": "left"
      },
      {
        "midi": 41,
        "time": 115.059,
        "duration": 0.176,
        "velocity": 0.83,
        "hand": "left"
      },
      {
        "midi": 35,
        "time": 115.412,
        "duration": 0.176,
        "velocity": 0.73,
        "hand": "left"
      },
      {
        "midi": 38,
        "time": 115.412,
        "duration": 0.176,
        "velocity": 0.86,
        "hand": "left"
      },
      {
        "midi": 42,
        "time": 115.412,
        "duration": 0.176,
        "velocity": 0.65,
        "hand": "left"
      },
      {
        "midi": 49,
        "time": 115.412,
        "duration": 0.176,
        "velocity": 0.65,
        "hand": "left"
      },
      {
        "midi": 50,
        "time": 115.412,
        "duration": 0.176,
        "velocity": 0.79,
        "hand": "left"
      },
      {
        "midi": 62,
        "time": 115.412,
        "duration": 0.176,
        "velocity": 0.79,
        "hand": "right"
      },
      {
        "midi": 66,
        "time": 115.412,
        "duration": 0.176,
        "velocity": 0.83,
        "hand": "right"
      },
      {
        "midi": 69,
        "time": 115.412,
        "duration": 1.588,
        "velocity": 0.83,
        "hand": "right"
      },
      {
        "midi": 38,
        "time": 115.588,
        "duration": 0.353,
        "velocity": 0.86,
        "hand": "left"
      },
      {
        "midi": 50,
        "time": 115.588,
        "duration": 0.353,
        "velocity": 0.79,
        "hand": "left"
      },
      {
        "midi": 62,
        "time": 115.588,
        "duration": 0.353,
        "velocity": 0.79,
        "hand": "right"
      },
      {
        "midi": 66,
        "time": 115.588,
        "duration": 0.353,
        "velocity": 0.83,
        "hand": "right"
      },
      {
        "midi": 42,
        "time": 115.765,
        "duration": 0.176,
        "velocity": 0.51,
        "hand": "left"
      },
      {
        "midi": 42,
        "time": 115.941,
        "duration": 0.176,
        "velocity": 0.43,
        "hand": "left"
      },
      {
        "midi": 38,
        "time": 116.118,
        "duration": 0.353,
        "velocity": 0.86,
        "hand": "left"
      },
      {
        "midi": 38,
        "time": 116.118,
        "duration": 0.176,
        "velocity": 0.73,
        "hand": "left"
      },
      {
        "midi": 42,
        "time": 116.118,
        "duration": 0.176,
        "velocity": 0.58,
        "hand": "left"
      },
      {
        "midi": 50,
        "time": 116.118,
        "duration": 0.353,
        "velocity": 0.79,
        "hand": "left"
      },
      {
        "midi": 62,
        "time": 116.118,
        "duration": 0.353,
        "velocity": 0.79,
        "hand": "right"
      },
      {
        "midi": 66,
        "time": 116.118,
        "duration": 0.353,
        "velocity": 0.83,
        "hand": "right"
      },
      {
        "midi": 42,
        "time": 116.471,
        "duration": 0.176,
        "velocity": 0.51,
        "hand": "left"
      },
      {
        "midi": 35,
        "time": 116.647,
        "duration": 0.176,
        "velocity": 0.58,
        "hand": "left"
      },
      {
        "midi": 38,
        "time": 116.647,
        "duration": 0.176,
        "velocity": 0.86,
        "hand": "left"
      },
      {
        "midi": 42,
        "time": 116.647,
        "duration": 0.176,
        "velocity": 0.43,
        "hand": "left"
      },
      {
        "midi": 50,
        "time": 116.647,
        "duration": 0.176,
        "velocity": 0.79,
        "hand": "left"
      },
      {
        "midi": 62,
        "time": 116.647,
        "duration": 0.176,
        "velocity": 0.79,
        "hand": "right"
      },
      {
        "midi": 66,
        "time": 116.647,
        "duration": 0.176,
        "velocity": 0.83,
        "hand": "right"
      },
      {
        "midi": 35,
        "time": 116.824,
        "duration": 0.176,
        "velocity": 0.73,
        "hand": "left"
      },
      {
        "midi": 38,
        "time": 116.824,
        "duration": 0.529,
        "velocity": 0.86,
        "hand": "left"
      },
      {
        "midi": 42,
        "time": 116.824,
        "duration": 0.176,
        "velocity": 0.65,
        "hand": "left"
      },
      {
        "midi": 50,
        "time": 116.824,
        "duration": 0.529,
        "velocity": 0.79,
        "hand": "left"
      },
      {
        "midi": 62,
        "time": 116.824,
        "duration": 0.529,
        "velocity": 0.79,
        "hand": "right"
      },
      {
        "midi": 66,
        "time": 116.824,
        "duration": 0.529,
        "velocity": 0.83,
        "hand": "right"
      },
      {
        "midi": 69,
        "time": 116.824,
        "duration": 0.353,
        "velocity": 0.83,
        "hand": "right"
      },
      {
        "midi": 42,
        "time": 117.176,
        "duration": 0.176,
        "velocity": 0.51,
        "hand": "left"
      },
      {
        "midi": 42,
        "time": 117.353,
        "duration": 0.176,
        "velocity": 0.43,
        "hand": "left"
      },
      {
        "midi": 66,
        "time": 117.353,
        "duration": 0.176,
        "velocity": 0.83,
        "hand": "right"
      },
      {
        "midi": 38,
        "time": 117.529,
        "duration": 0.176,
        "velocity": 0.73,
        "hand": "left"
      },
      {
        "midi": 42,
        "time": 117.529,
        "duration": 0.176,
        "velocity": 0.58,
        "hand": "left"
      },
      {
        "midi": 69,
        "time": 117.529,
        "duration": 0.353,
        "velocity": 0.83,
        "hand": "right"
      },
      {
        "midi": 35,
        "time": 117.882,
        "duration": 0.176,
        "velocity": 0.58,
        "hand": "left"
      },
      {
        "midi": 42,
        "time": 117.882,
        "duration": 0.176,
        "velocity": 0.51,
        "hand": "left"
      },
      {
        "midi": 42,
        "time": 118.059,
        "duration": 0.176,
        "velocity": 0.43,
        "hand": "left"
      },
      {
        "midi": 74,
        "time": 118.059,
        "duration": 0.176,
        "velocity": 0.83,
        "hand": "right"
      },
      {
        "midi": 33,
        "time": 118.235,
        "duration": 0.176,
        "velocity": 0.86,
        "hand": "left"
      },
      {
        "midi": 35,
        "time": 118.235,
        "duration": 0.176,
        "velocity": 0.73,
        "hand": "left"
      },
      {
        "midi": 42,
        "time": 118.235,
        "duration": 0.176,
        "velocity": 0.65,
        "hand": "left"
      },
      {
        "midi": 45,
        "time": 118.235,
        "duration": 0.176,
        "velocity": 0.79,
        "hand": "left"
      },
      {
        "midi": 52,
        "time": 118.235,
        "duration": 0.176,
        "velocity": 0.86,
        "hand": "left"
      },
      {
        "midi": 64,
        "time": 118.235,
        "duration": 0.176,
        "velocity": 0.79,
        "hand": "right"
      },
      {
        "midi": 67,
        "time": 118.235,
        "duration": 0.176,
        "velocity": 0.83,
        "hand": "right"
      },
      {
        "midi": 73,
        "time": 118.235,
        "duration": 1.588,
        "velocity": 0.83,
        "hand": "right"
      },
      {
        "midi": 73,
        "time": 118.235,
        "duration": 0.882,
        "velocity": 0.86,
        "hand": "right"
      },
      {
        "midi": 33,
        "time": 118.412,
        "duration": 0.353,
        "velocity": 0.86,
        "hand": "left"
      },
      {
        "midi": 45,
        "time": 118.412,
        "duration": 0.353,
        "velocity": 0.79,
        "hand": "left"
      },
      {
        "midi": 52,
        "time": 118.412,
        "duration": 0.353,
        "velocity": 0.86,
        "hand": "left"
      },
      {
        "midi": 64,
        "time": 118.412,
        "duration": 0.353,
        "velocity": 0.79,
        "hand": "right"
      },
      {
        "midi": 67,
        "time": 118.412,
        "duration": 0.353,
        "velocity": 0.83,
        "hand": "right"
      },
      {
        "midi": 42,
        "time": 118.588,
        "duration": 0.176,
        "velocity": 0.51,
        "hand": "left"
      },
      {
        "midi": 42,
        "time": 118.765,
        "duration": 0.176,
        "velocity": 0.43,
        "hand": "left"
      },
      {
        "midi": 33,
        "time": 118.941,
        "duration": 0.353,
        "velocity": 0.86,
        "hand": "left"
      },
      {
        "midi": 38,
        "time": 118.941,
        "duration": 0.176,
        "velocity": 0.73,
        "hand": "left"
      },
      {
        "midi": 42,
        "time": 118.941,
        "duration": 0.176,
        "velocity": 0.58,
        "hand": "left"
      },
      {
        "midi": 45,
        "time": 118.941,
        "duration": 0.353,
        "velocity": 0.79,
        "hand": "left"
      },
      {
        "midi": 52,
        "time": 118.941,
        "duration": 0.353,
        "velocity": 0.86,
        "hand": "left"
      },
      {
        "midi": 64,
        "time": 118.941,
        "duration": 0.353,
        "velocity": 0.79,
        "hand": "right"
      },
      {
        "midi": 67,
        "time": 118.941,
        "duration": 0.353,
        "velocity": 0.83,
        "hand": "right"
      },
      {
        "midi": 42,
        "time": 119.294,
        "duration": 0.176,
        "velocity": 0.51,
        "hand": "left"
      },
      {
        "midi": 33,
        "time": 119.471,
        "duration": 0.176,
        "velocity": 0.86,
        "hand": "left"
      },
      {
        "midi": 35,
        "time": 119.471,
        "duration": 0.176,
        "velocity": 0.58,
        "hand": "left"
      },
      {
        "midi": 42,
        "time": 119.471,
        "duration": 0.176,
        "velocity": 0.43,
        "hand": "left"
      },
      {
        "midi": 45,
        "time": 119.471,
        "duration": 0.176,
        "velocity": 0.79,
        "hand": "left"
      },
      {
        "midi": 52,
        "time": 119.471,
        "duration": 0.176,
        "velocity": 0.86,
        "hand": "left"
      },
      {
        "midi": 64,
        "time": 119.471,
        "duration": 0.176,
        "velocity": 0.79,
        "hand": "right"
      },
      {
        "midi": 67,
        "time": 119.471,
        "duration": 0.176,
        "velocity": 0.83,
        "hand": "right"
      },
      {
        "midi": 33,
        "time": 119.647,
        "duration": 0.529,
        "velocity": 0.86,
        "hand": "left"
      },
      {
        "midi": 35,
        "time": 119.647,
        "duration": 0.176,
        "velocity": 0.73,
        "hand": "left"
      },
      {
        "midi": 42,
        "time": 119.647,
        "duration": 0.176,
        "velocity": 0.65,
        "hand": "left"
      },
      {
        "midi": 45,
        "time": 119.647,
        "duration": 0.529,
        "velocity": 0.79,
        "hand": "left"
      },
      {
        "midi": 52,
        "time": 119.647,
        "duration": 0.529,
        "velocity": 0.86,
        "hand": "left"
      },
      {
        "midi": 64,
        "time": 119.647,
        "duration": 0.529,
        "velocity": 0.79,
        "hand": "right"
      },
      {
        "midi": 67,
        "time": 119.647,
        "duration": 0.529,
        "velocity": 0.83,
        "hand": "right"
      },
      {
        "midi": 73,
        "time": 119.647,
        "duration": 0.529,
        "velocity": 0.83,
        "hand": "right"
      },
      {
        "midi": 35,
        "time": 120,
        "duration": 0.176,
        "velocity": 0.58,
        "hand": "left"
      },
      {
        "midi": 42,
        "time": 120,
        "duration": 0.176,
        "velocity": 0.51,
        "hand": "left"
      },
      {
        "midi": 42,
        "time": 120.176,
        "duration": 0.176,
        "velocity": 0.43,
        "hand": "left"
      },
      {
        "midi": 38,
        "time": 120.353,
        "duration": 0.176,
        "velocity": 0.73,
        "hand": "left"
      },
      {
        "midi": 42,
        "time": 120.353,
        "duration": 0.176,
        "velocity": 0.58,
        "hand": "left"
      },
      {
        "midi": 35,
        "time": 120.706,
        "duration": 0.176,
        "velocity": 0.58,
        "hand": "left"
      },
      {
        "midi": 42,
        "time": 120.706,
        "duration": 0.176,
        "velocity": 0.51,
        "hand": "left"
      },
      {
        "midi": 46,
        "time": 120.882,
        "duration": 0.176,
        "velocity": 0.58,
        "hand": "left"
      },
      {
        "midi": 35,
        "time": 121.059,
        "duration": 0.176,
        "velocity": 0.73,
        "hand": "left"
      },
      {
        "midi": 42,
        "time": 121.059,
        "duration": 0.176,
        "velocity": 0.65,
        "hand": "left"
      },
      {
        "midi": 45,
        "time": 121.059,
        "duration": 0.176,
        "velocity": 0.86,
        "hand": "left"
      },
      {
        "midi": 49,
        "time": 121.059,
        "duration": 0.176,
        "velocity": 0.86,
        "hand": "left"
      },
      {
        "midi": 57,
        "time": 121.059,
        "duration": 0.176,
        "velocity": 0.79,
        "hand": "left"
      },
      {
        "midi": 61,
        "time": 121.059,
        "duration": 0.176,
        "velocity": 0.79,
        "hand": "right"
      },
      {
        "midi": 64,
        "time": 121.059,
        "duration": 0.176,
        "velocity": 0.83,
        "hand": "right"
      },
      {
        "midi": 67,
        "time": 121.059,
        "duration": 1.588,
        "velocity": 0.83,
        "hand": "right"
      },
      {
        "midi": 45,
        "time": 121.235,
        "duration": 0.353,
        "velocity": 0.86,
        "hand": "left"
      },
      {
        "midi": 49,
        "time": 121.235,
        "duration": 0.353,
        "velocity": 0.86,
        "hand": "left"
      },
      {
        "midi": 57,
        "time": 121.235,
        "duration": 0.353,
        "velocity": 0.79,
        "hand": "left"
      },
      {
        "midi": 61,
        "time": 121.235,
        "duration": 0.353,
        "velocity": 0.79,
        "hand": "right"
      },
      {
        "midi": 64,
        "time": 121.235,
        "duration": 0.353,
        "velocity": 0.83,
        "hand": "right"
      },
      {
        "midi": 42,
        "time": 121.412,
        "duration": 0.176,
        "velocity": 0.51,
        "hand": "left"
      },
      {
        "midi": 42,
        "time": 121.588,
        "duration": 0.176,
        "velocity": 0.43,
        "hand": "left"
      },
      {
        "midi": 38,
        "time": 121.765,
        "duration": 0.176,
        "velocity": 0.73,
        "hand": "left"
      },
      {
        "midi": 42,
        "time": 121.765,
        "duration": 0.176,
        "velocity": 0.58,
        "hand": "left"
      },
      {
        "midi": 45,
        "time": 121.765,
        "duration": 0.353,
        "velocity": 0.86,
        "hand": "left"
      },
      {
        "midi": 49,
        "time": 121.765,
        "duration": 0.353,
        "velocity": 0.86,
        "hand": "left"
      },
      {
        "midi": 57,
        "time": 121.765,
        "duration": 0.353,
        "velocity": 0.79,
        "hand": "left"
      },
      {
        "midi": 61,
        "time": 121.765,
        "duration": 0.353,
        "velocity": 0.79,
        "hand": "right"
      },
      {
        "midi": 64,
        "time": 121.765,
        "duration": 0.353,
        "velocity": 0.83,
        "hand": "right"
      },
      {
        "midi": 42,
        "time": 122.118,
        "duration": 0.176,
        "velocity": 0.51,
        "hand": "left"
      },
      {
        "midi": 35,
        "time": 122.294,
        "duration": 0.176,
        "velocity": 0.58,
        "hand": "left"
      },
      {
        "midi": 38,
        "time": 122.294,
        "duration": 0.176,
        "velocity": 0.26,
        "hand": "left"
      },
      {
        "midi": 45,
        "time": 122.294,
        "duration": 0.176,
        "velocity": 0.86,
        "hand": "left"
      },
      {
        "midi": 49,
        "time": 122.294,
        "duration": 0.176,
        "velocity": 0.86,
        "hand": "left"
      },
      {
        "midi": 57,
        "time": 122.294,
        "duration": 0.176,
        "velocity": 0.79,
        "hand": "left"
      },
      {
        "midi": 61,
        "time": 122.294,
        "duration": 0.176,
        "velocity": 0.79,
        "hand": "right"
      },
      {
        "midi": 64,
        "time": 122.294,
        "duration": 0.176,
        "velocity": 0.83,
        "hand": "right"
      },
      {
        "midi": 35,
        "time": 122.471,
        "duration": 0.176,
        "velocity": 0.73,
        "hand": "left"
      },
      {
        "midi": 42,
        "time": 122.471,
        "duration": 0.176,
        "velocity": 0.65,
        "hand": "left"
      },
      {
        "midi": 45,
        "time": 122.471,
        "duration": 0.529,
        "velocity": 0.86,
        "hand": "left"
      },
      {
        "midi": 49,
        "time": 122.471,
        "duration": 0.529,
        "velocity": 0.86,
        "hand": "left"
      },
      {
        "midi": 57,
        "time": 122.471,
        "duration": 0.529,
        "velocity": 0.79,
        "hand": "left"
      },
      {
        "midi": 61,
        "time": 122.471,
        "duration": 0.529,
        "velocity": 0.79,
        "hand": "right"
      },
      {
        "midi": 64,
        "time": 122.471,
        "duration": 0.529,
        "velocity": 0.83,
        "hand": "right"
      },
      {
        "midi": 67,
        "time": 122.471,
        "duration": 0.353,
        "velocity": 0.83,
        "hand": "right"
      },
      {
        "midi": 42,
        "time": 122.824,
        "duration": 0.176,
        "velocity": 0.51,
        "hand": "left"
      },
      {
        "midi": 42,
        "time": 123,
        "duration": 0.176,
        "velocity": 0.43,
        "hand": "left"
      },
      {
        "midi": 64,
        "time": 123,
        "duration": 0.176,
        "velocity": 0.83,
        "hand": "right"
      },
      {
        "midi": 38,
        "time": 123.176,
        "duration": 0.176,
        "velocity": 0.73,
        "hand": "left"
      },
      {
        "midi": 42,
        "time": 123.176,
        "duration": 0.176,
        "velocity": 0.58,
        "hand": "left"
      },
      {
        "midi": 67,
        "time": 123.176,
        "duration": 0.353,
        "velocity": 0.83,
        "hand": "right"
      },
      {
        "midi": 35,
        "time": 123.529,
        "duration": 0.176,
        "velocity": 0.58,
        "hand": "left"
      },
      {
        "midi": 42,
        "time": 123.529,
        "duration": 0.176,
        "velocity": 0.51,
        "hand": "left"
      },
      {
        "midi": 42,
        "time": 123.706,
        "duration": 0.176,
        "velocity": 0.43,
        "hand": "left"
      },
      {
        "midi": 71,
        "time": 123.706,
        "duration": 0.176,
        "velocity": 0.83,
        "hand": "right"
      },
      {
        "midi": 35,
        "time": 123.882,
        "duration": 0.176,
        "velocity": 0.73,
        "hand": "left"
      },
      {
        "midi": 38,
        "time": 123.882,
        "duration": 0.176,
        "velocity": 0.86,
        "hand": "left"
      },
      {
        "midi": 42,
        "time": 123.882,
        "duration": 0.176,
        "velocity": 0.65,
        "hand": "left"
      },
      {
        "midi": 50,
        "time": 123.882,
        "duration": 0.176,
        "velocity": 0.79,
        "hand": "left"
      },
      {
        "midi": 62,
        "time": 123.882,
        "duration": 0.176,
        "velocity": 0.79,
        "hand": "right"
      },
      {
        "midi": 69,
        "time": 123.882,
        "duration": 0.882,
        "velocity": 0.83,
        "hand": "right"
      },
      {
        "midi": 38,
        "time": 124.059,
        "duration": 0.353,
        "velocity": 0.86,
        "hand": "left"
      },
      {
        "midi": 50,
        "time": 124.059,
        "duration": 0.353,
        "velocity": 0.79,
        "hand": "left"
      },
      {
        "midi": 62,
        "time": 124.059,
        "duration": 0.353,
        "velocity": 0.79,
        "hand": "right"
      },
      {
        "midi": 42,
        "time": 124.235,
        "duration": 0.176,
        "velocity": 0.51,
        "hand": "left"
      },
      {
        "midi": 42,
        "time": 124.412,
        "duration": 0.176,
        "velocity": 0.43,
        "hand": "left"
      },
      {
        "midi": 38,
        "time": 124.588,
        "duration": 0.353,
        "velocity": 0.86,
        "hand": "left"
      },
      {
        "midi": 38,
        "time": 124.588,
        "duration": 0.176,
        "velocity": 0.73,
        "hand": "left"
      },
      {
        "midi": 42,
        "time": 124.588,
        "duration": 0.176,
        "velocity": 0.58,
        "hand": "left"
      },
      {
        "midi": 50,
        "time": 124.588,
        "duration": 0.353,
        "velocity": 0.79,
        "hand": "left"
      },
      {
        "midi": 62,
        "time": 124.588,
        "duration": 0.353,
        "velocity": 0.79,
        "hand": "right"
      },
      {
        "midi": 35,
        "time": 124.941,
        "duration": 0.176,
        "velocity": 0.58,
        "hand": "left"
      },
      {
        "midi": 38,
        "time": 124.941,
        "duration": 0.176,
        "velocity": 0.86,
        "hand": "left"
      },
      {
        "midi": 42,
        "time": 124.941,
        "duration": 0.176,
        "velocity": 0.51,
        "hand": "left"
      },
      {
        "midi": 46,
        "time": 124.941,
        "duration": 0.176,
        "velocity": 0.52,
        "hand": "left"
      },
      {
        "midi": 50,
        "time": 124.941,
        "duration": 0.176,
        "velocity": 0.79,
        "hand": "left"
      },
      {
        "midi": 62,
        "time": 124.941,
        "duration": 0.176,
        "velocity": 0.79,
        "hand": "right"
      },
      {
        "midi": 35,
        "time": 125.118,
        "duration": 0.176,
        "velocity": 0.73,
        "hand": "left"
      },
      {
        "midi": 38,
        "time": 125.118,
        "duration": 0.529,
        "velocity": 0.86,
        "hand": "left"
      },
      {
        "midi": 42,
        "time": 125.118,
        "duration": 0.176,
        "velocity": 0.65,
        "hand": "left"
      },
      {
        "midi": 50,
        "time": 125.118,
        "duration": 0.529,
        "velocity": 0.79,
        "hand": "left"
      },
      {
        "midi": 62,
        "time": 125.118,
        "duration": 0.529,
        "velocity": 0.79,
        "hand": "right"
      },
      {
        "midi": 69,
        "time": 125.118,
        "duration": 0.529,
        "velocity": 0.83,
        "hand": "right"
      },
      {
        "midi": 35,
        "time": 125.471,
        "duration": 0.176,
        "velocity": 0.58,
        "hand": "left"
      },
      {
        "midi": 42,
        "time": 125.471,
        "duration": 0.176,
        "velocity": 0.51,
        "hand": "left"
      },
      {
        "midi": 42,
        "time": 125.647,
        "duration": 0.176,
        "velocity": 0.43,
        "hand": "left"
      },
      {
        "midi": 38,
        "time": 125.824,
        "duration": 0.176,
        "velocity": 0.73,
        "hand": "left"
      },
      {
        "midi": 42,
        "time": 125.824,
        "duration": 0.176,
        "velocity": 0.58,
        "hand": "left"
      },
      {
        "midi": 35,
        "time": 126.176,
        "duration": 0.176,
        "velocity": 0.58,
        "hand": "left"
      },
      {
        "midi": 42,
        "time": 126.176,
        "duration": 0.176,
        "velocity": 0.51,
        "hand": "left"
      },
      {
        "midi": 42,
        "time": 126.353,
        "duration": 0.176,
        "velocity": 0.43,
        "hand": "left"
      },
      {
        "midi": 35,
        "time": 126.529,
        "duration": 0.176,
        "velocity": 0.73,
        "hand": "left"
      },
      {
        "midi": 38,
        "time": 126.529,
        "duration": 0.529,
        "velocity": 0.86,
        "hand": "left"
      },
      {
        "midi": 42,
        "time": 126.529,
        "duration": 0.176,
        "velocity": 0.65,
        "hand": "left"
      },
      {
        "midi": 45,
        "time": 126.529,
        "duration": 0.529,
        "velocity": 0.86,
        "hand": "left"
      },
      {
        "midi": 50,
        "time": 126.529,
        "duration": 0.529,
        "velocity": 0.79,
        "hand": "left"
      },
      {
        "midi": 57,
        "time": 126.529,
        "duration": 0.529,
        "velocity": 0.79,
        "hand": "left"
      },
      {
        "midi": 66,
        "time": 126.529,
        "duration": 0.529,
        "velocity": 0.83,
        "hand": "right"
      },
      {
        "midi": 74,
        "time": 126.529,
        "duration": 0.529,
        "velocity": 0.83,
        "hand": "right"
      },
      {
        "midi": 42,
        "time": 126.882,
        "duration": 0.176,
        "velocity": 0.51,
        "hand": "left"
      },
      {
        "midi": 42,
        "time": 127.059,
        "duration": 0.176,
        "velocity": 0.43,
        "hand": "left"
      },
      {
        "midi": 38,
        "time": 127.235,
        "duration": 0.353,
        "velocity": 0.86,
        "hand": "left"
      },
      {
        "midi": 38,
        "time": 127.235,
        "duration": 0.176,
        "velocity": 0.73,
        "hand": "left"
      },
      {
        "midi": 42,
        "time": 127.235,
        "duration": 0.176,
        "velocity": 0.58,
        "hand": "left"
      },
      {
        "midi": 45,
        "time": 127.235,
        "duration": 0.353,
        "velocity": 0.86,
        "hand": "left"
      },
      {
        "midi": 50,
        "time": 127.235,
        "duration": 0.353,
        "velocity": 0.79,
        "hand": "left"
      },
      {
        "midi": 57,
        "time": 127.235,
        "duration": 0.353,
        "velocity": 0.79,
        "hand": "left"
      },
      {
        "midi": 66,
        "time": 127.235,
        "duration": 0.353,
        "velocity": 0.83,
        "hand": "right"
      },
      {
        "midi": 74,
        "time": 127.235,
        "duration": 0.353,
        "velocity": 0.83,
        "hand": "right"
      },
      {
        "midi": 42,
        "time": 127.588,
        "duration": 0.176,
        "velocity": 0.51,
        "hand": "left"
      },
      {
        "midi": 35,
        "time": 127.765,
        "duration": 0.176,
        "velocity": 0.58,
        "hand": "left"
      },
      {
        "midi": 38,
        "time": 127.765,
        "duration": 0.176,
        "velocity": 0.86,
        "hand": "left"
      },
      {
        "midi": 42,
        "time": 127.765,
        "duration": 0.176,
        "velocity": 0.43,
        "hand": "left"
      },
      {
        "midi": 45,
        "time": 127.765,
        "duration": 0.176,
        "velocity": 0.86,
        "hand": "left"
      },
      {
        "midi": 50,
        "time": 127.765,
        "duration": 0.176,
        "velocity": 0.79,
        "hand": "left"
      },
      {
        "midi": 57,
        "time": 127.765,
        "duration": 0.176,
        "velocity": 0.79,
        "hand": "left"
      },
      {
        "midi": 66,
        "time": 127.765,
        "duration": 0.176,
        "velocity": 0.83,
        "hand": "right"
      },
      {
        "midi": 74,
        "time": 127.765,
        "duration": 0.176,
        "velocity": 0.83,
        "hand": "right"
      },
      {
        "midi": 35,
        "time": 127.941,
        "duration": 0.176,
        "velocity": 0.73,
        "hand": "left"
      },
      {
        "midi": 42,
        "time": 127.941,
        "duration": 0.529,
        "velocity": 0.86,
        "hand": "left"
      },
      {
        "midi": 42,
        "time": 127.941,
        "duration": 0.176,
        "velocity": 0.65,
        "hand": "left"
      },
      {
        "midi": 45,
        "time": 127.941,
        "duration": 0.529,
        "velocity": 0.86,
        "hand": "left"
      },
      {
        "midi": 54,
        "time": 127.941,
        "duration": 0.529,
        "velocity": 0.79,
        "hand": "left"
      },
      {
        "midi": 57,
        "time": 127.941,
        "duration": 0.529,
        "velocity": 0.79,
        "hand": "left"
      },
      {
        "midi": 69,
        "time": 127.941,
        "duration": 0.529,
        "velocity": 0.83,
        "hand": "right"
      },
      {
        "midi": 74,
        "time": 127.941,
        "duration": 0.529,
        "velocity": 0.83,
        "hand": "right"
      },
      {
        "midi": 46,
        "time": 128.294,
        "duration": 0.176,
        "velocity": 0.51,
        "hand": "left"
      },
      {
        "midi": 38,
        "time": 128.647,
        "duration": 0.176,
        "velocity": 0.73,
        "hand": "left"
      },
      {
        "midi": 42,
        "time": 128.647,
        "duration": 0.353,
        "velocity": 0.86,
        "hand": "left"
      },
      {
        "midi": 42,
        "time": 128.647,
        "duration": 0.176,
        "velocity": 0.58,
        "hand": "left"
      },
      {
        "midi": 50,
        "time": 128.647,
        "duration": 0.353,
        "velocity": 0.86,
        "hand": "left"
      },
      {
        "midi": 54,
        "time": 128.647,
        "duration": 0.353,
        "velocity": 0.79,
        "hand": "left"
      },
      {
        "midi": 62,
        "time": 128.647,
        "duration": 0.353,
        "velocity": 0.79,
        "hand": "right"
      },
      {
        "midi": 69,
        "time": 128.647,
        "duration": 0.353,
        "velocity": 0.83,
        "hand": "right"
      },
      {
        "midi": 74,
        "time": 128.647,
        "duration": 0.353,
        "velocity": 0.83,
        "hand": "right"
      },
      {
        "midi": 35,
        "time": 129,
        "duration": 0.176,
        "velocity": 0.58,
        "hand": "left"
      },
      {
        "midi": 42,
        "time": 129,
        "duration": 0.176,
        "velocity": 0.51,
        "hand": "left"
      },
      {
        "midi": 42,
        "time": 129.176,
        "duration": 0.176,
        "velocity": 0.86,
        "hand": "left"
      },
      {
        "midi": 50,
        "time": 129.176,
        "duration": 0.176,
        "velocity": 0.86,
        "hand": "left"
      },
      {
        "midi": 54,
        "time": 129.176,
        "duration": 0.176,
        "velocity": 0.79,
        "hand": "left"
      },
      {
        "midi": 62,
        "time": 129.176,
        "duration": 0.176,
        "velocity": 0.79,
        "hand": "right"
      },
      {
        "midi": 69,
        "time": 129.176,
        "duration": 0.176,
        "velocity": 0.83,
        "hand": "right"
      },
      {
        "midi": 73,
        "time": 129.176,
        "duration": 0.176,
        "velocity": 0.83,
        "hand": "right"
      },
      {
        "midi": 35,
        "time": 129.353,
        "duration": 0.176,
        "velocity": 0.73,
        "hand": "left"
      },
      {
        "midi": 42,
        "time": 129.353,
        "duration": 0.176,
        "velocity": 0.65,
        "hand": "left"
      },
      {
        "midi": 43,
        "time": 129.353,
        "duration": 0.529,
        "velocity": 0.86,
        "hand": "left"
      },
      {
        "midi": 50,
        "time": 129.353,
        "duration": 0.529,
        "velocity": 0.86,
        "hand": "left"
      },
      {
        "midi": 55,
        "time": 129.353,
        "duration": 0.529,
        "velocity": 0.79,
        "hand": "left"
      },
      {
        "midi": 62,
        "time": 129.353,
        "duration": 0.529,
        "velocity": 0.79,
        "hand": "right"
      },
      {
        "midi": 67,
        "time": 129.353,
        "duration": 0.529,
        "velocity": 0.83,
        "hand": "right"
      },
      {
        "midi": 71,
        "time": 129.353,
        "duration": 0.882,
        "velocity": 0.83,
        "hand": "right"
      },
      {
        "midi": 42,
        "time": 129.706,
        "duration": 0.176,
        "velocity": 0.51,
        "hand": "left"
      },
      {
        "midi": 42,
        "time": 129.882,
        "duration": 0.176,
        "velocity": 0.43,
        "hand": "left"
      },
      {
        "midi": 38,
        "time": 130.059,
        "duration": 0.176,
        "velocity": 0.73,
        "hand": "left"
      },
      {
        "midi": 42,
        "time": 130.059,
        "duration": 0.176,
        "velocity": 0.58,
        "hand": "left"
      },
      {
        "midi": 43,
        "time": 130.059,
        "duration": 0.353,
        "velocity": 0.86,
        "hand": "left"
      },
      {
        "midi": 50,
        "time": 130.059,
        "duration": 0.353,
        "velocity": 0.86,
        "hand": "left"
      },
      {
        "midi": 55,
        "time": 130.059,
        "duration": 0.353,
        "velocity": 0.79,
        "hand": "left"
      },
      {
        "midi": 62,
        "time": 130.059,
        "duration": 0.353,
        "velocity": 0.79,
        "hand": "right"
      },
      {
        "midi": 67,
        "time": 130.059,
        "duration": 0.353,
        "velocity": 0.83,
        "hand": "right"
      },
      {
        "midi": 42,
        "time": 130.412,
        "duration": 0.176,
        "velocity": 0.51,
        "hand": "left"
      },
      {
        "midi": 35,
        "time": 130.588,
        "duration": 0.176,
        "velocity": 0.58,
        "hand": "left"
      },
      {
        "midi": 42,
        "time": 130.588,
        "duration": 0.176,
        "velocity": 0.43,
        "hand": "left"
      },
      {
        "midi": 43,
        "time": 130.588,
        "duration": 0.176,
        "velocity": 0.86,
        "hand": "left"
      },
      {
        "midi": 50,
        "time": 130.588,
        "duration": 0.176,
        "velocity": 0.86,
        "hand": "left"
      },
      {
        "midi": 55,
        "time": 130.588,
        "duration": 0.176,
        "velocity": 0.79,
        "hand": "left"
      },
      {
        "midi": 62,
        "time": 130.588,
        "duration": 0.176,
        "velocity": 0.79,
        "hand": "right"
      },
      {
        "midi": 67,
        "time": 130.588,
        "duration": 0.176,
        "velocity": 0.83,
        "hand": "right"
      },
      {
        "midi": 35,
        "time": 130.765,
        "duration": 0.176,
        "velocity": 0.73,
        "hand": "left"
      },
      {
        "midi": 42,
        "time": 130.765,
        "duration": 0.176,
        "velocity": 0.65,
        "hand": "left"
      },
      {
        "midi": 47,
        "time": 130.765,
        "duration": 0.529,
        "velocity": 0.86,
        "hand": "left"
      },
      {
        "midi": 50,
        "time": 130.765,
        "duration": 0.529,
        "velocity": 0.86,
        "hand": "left"
      },
      {
        "midi": 59,
        "time": 130.765,
        "duration": 0.529,
        "velocity": 0.79,
        "hand": "left"
      },
      {
        "midi": 62,
        "time": 130.765,
        "duration": 0.529,
        "velocity": 0.79,
        "hand": "right"
      },
      {
        "midi": 67,
        "time": 130.765,
        "duration": 0.529,
        "velocity": 0.83,
        "hand": "right"
      },
      {
        "midi": 42,
        "time": 131.118,
        "duration": 0.176,
        "velocity": 0.51,
        "hand": "left"
      },
      {
        "midi": 42,
        "time": 131.294,
        "duration": 0.176,
        "velocity": 0.43,
        "hand": "left"
      },
      {
        "midi": 38,
        "time": 131.471,
        "duration": 0.176,
        "velocity": 0.73,
        "hand": "left"
      },
      {
        "midi": 42,
        "time": 131.471,
        "duration": 0.176,
        "velocity": 0.58,
        "hand": "left"
      },
      {
        "midi": 43,
        "time": 131.471,
        "duration": 0.353,
        "velocity": 0.86,
        "hand": "left"
      },
      {
        "midi": 50,
        "time": 131.471,
        "duration": 0.353,
        "velocity": 0.86,
        "hand": "left"
      },
      {
        "midi": 55,
        "time": 131.471,
        "duration": 0.353,
        "velocity": 0.79,
        "hand": "left"
      },
      {
        "midi": 62,
        "time": 131.471,
        "duration": 0.353,
        "velocity": 0.79,
        "hand": "right"
      },
      {
        "midi": 67,
        "time": 131.471,
        "duration": 0.353,
        "velocity": 0.83,
        "hand": "right"
      },
      {
        "midi": 71,
        "time": 131.471,
        "duration": 0.529,
        "velocity": 0.83,
        "hand": "right"
      },
      {
        "midi": 35,
        "time": 131.824,
        "duration": 0.176,
        "velocity": 0.58,
        "hand": "left"
      },
      {
        "midi": 42,
        "time": 131.824,
        "duration": 0.176,
        "velocity": 0.51,
        "hand": "left"
      },
      {
        "midi": 42,
        "time": 132,
        "duration": 0.176,
        "velocity": 0.43,
        "hand": "left"
      },
      {
        "midi": 43,
        "time": 132,
        "duration": 0.176,
        "velocity": 0.86,
        "hand": "left"
      },
      {
        "midi": 50,
        "time": 132,
        "duration": 0.176,
        "velocity": 0.86,
        "hand": "left"
      },
      {
        "midi": 55,
        "time": 132,
        "duration": 0.176,
        "velocity": 0.79,
        "hand": "left"
      },
      {
        "midi": 62,
        "time": 132,
        "duration": 0.176,
        "velocity": 0.79,
        "hand": "right"
      },
      {
        "midi": 67,
        "time": 132,
        "duration": 0.176,
        "velocity": 0.83,
        "hand": "right"
      },
      {
        "midi": 35,
        "time": 132.176,
        "duration": 0.176,
        "velocity": 0.73,
        "hand": "left"
      },
      {
        "midi": 42,
        "time": 132.176,
        "duration": 0.176,
        "velocity": 0.65,
        "hand": "left"
      },
      {
        "midi": 45,
        "time": 132.176,
        "duration": 0.529,
        "velocity": 0.86,
        "hand": "left"
      },
      {
        "midi": 50,
        "time": 132.176,
        "duration": 0.529,
        "velocity": 0.86,
        "hand": "left"
      },
      {
        "midi": 57,
        "time": 132.176,
        "duration": 0.529,
        "velocity": 0.79,
        "hand": "left"
      },
      {
        "midi": 62,
        "time": 132.176,
        "duration": 0.529,
        "velocity": 0.79,
        "hand": "right"
      },
      {
        "midi": 66,
        "time": 132.176,
        "duration": 0.529,
        "velocity": 0.83,
        "hand": "right"
      },
      {
        "midi": 69,
        "time": 132.176,
        "duration": 0.529,
        "velocity": 0.83,
        "hand": "right"
      },
      {
        "midi": 42,
        "time": 132.529,
        "duration": 0.176,
        "velocity": 0.51,
        "hand": "left"
      },
      {
        "midi": 42,
        "time": 132.706,
        "duration": 0.176,
        "velocity": 0.43,
        "hand": "left"
      },
      {
        "midi": 33,
        "time": 132.882,
        "duration": 0.353,
        "velocity": 0.86,
        "hand": "left"
      },
      {
        "midi": 38,
        "time": 132.882,
        "duration": 0.176,
        "velocity": 0.73,
        "hand": "left"
      },
      {
        "midi": 42,
        "time": 132.882,
        "duration": 0.176,
        "velocity": 0.58,
        "hand": "left"
      },
      {
        "midi": 45,
        "time": 132.882,
        "duration": 0.353,
        "velocity": 0.79,
        "hand": "left"
      },
      {
        "midi": 57,
        "time": 132.882,
        "duration": 0.353,
        "velocity": 0.79,
        "hand": "left"
      },
      {
        "midi": 62,
        "time": 132.882,
        "duration": 0.353,
        "velocity": 0.83,
        "hand": "right"
      },
      {
        "midi": 66,
        "time": 132.882,
        "duration": 0.353,
        "velocity": 0.83,
        "hand": "right"
      },
      {
        "midi": 42,
        "time": 133.235,
        "duration": 0.176,
        "velocity": 0.51,
        "hand": "left"
      },
      {
        "midi": 35,
        "time": 133.412,
        "duration": 0.176,
        "velocity": 0.86,
        "hand": "left"
      },
      {
        "midi": 42,
        "time": 133.412,
        "duration": 0.176,
        "velocity": 0.86,
        "hand": "left"
      },
      {
        "midi": 47,
        "time": 133.412,
        "duration": 0.176,
        "velocity": 0.79,
        "hand": "left"
      },
      {
        "midi": 54,
        "time": 133.412,
        "duration": 0.176,
        "velocity": 0.79,
        "hand": "left"
      },
      {
        "midi": 62,
        "time": 133.412,
        "duration": 0.176,
        "velocity": 0.83,
        "hand": "right"
      },
      {
        "midi": 33,
        "time": 133.588,
        "duration": 0.529,
        "velocity": 0.86,
        "hand": "left"
      },
      {
        "midi": 35,
        "time": 133.588,
        "duration": 0.176,
        "velocity": 0.73,
        "hand": "left"
      },
      {
        "midi": 42,
        "time": 133.588,
        "duration": 0.176,
        "velocity": 0.65,
        "hand": "left"
      },
      {
        "midi": 45,
        "time": 133.588,
        "duration": 0.529,
        "velocity": 0.79,
        "hand": "left"
      },
      {
        "midi": 57,
        "time": 133.588,
        "duration": 0.529,
        "velocity": 0.79,
        "hand": "left"
      },
      {
        "midi": 62,
        "time": 133.588,
        "duration": 0.529,
        "velocity": 0.83,
        "hand": "right"
      },
      {
        "midi": 64,
        "time": 133.588,
        "duration": 0.529,
        "velocity": 0.83,
        "hand": "right"
      },
      {
        "midi": 42,
        "time": 133.941,
        "duration": 0.176,
        "velocity": 0.51,
        "hand": "left"
      },
      {
        "midi": 46,
        "time": 134.118,
        "duration": 0.176,
        "velocity": 0.58,
        "hand": "left"
      },
      {
        "midi": 33,
        "time": 134.294,
        "duration": 0.353,
        "velocity": 0.86,
        "hand": "left"
      },
      {
        "midi": 38,
        "time": 134.294,
        "duration": 0.176,
        "velocity": 0.73,
        "hand": "left"
      },
      {
        "midi": 42,
        "time": 134.294,
        "duration": 0.176,
        "velocity": 0.58,
        "hand": "left"
      },
      {
        "midi": 45,
        "time": 134.294,
        "duration": 0.353,
        "velocity": 0.79,
        "hand": "left"
      },
      {
        "midi": 57,
        "time": 134.294,
        "duration": 0.353,
        "velocity": 0.79,
        "hand": "left"
      },
      {
        "midi": 61,
        "time": 134.294,
        "duration": 0.353,
        "velocity": 0.83,
        "hand": "right"
      },
      {
        "midi": 66,
        "time": 134.294,
        "duration": 0.353,
        "velocity": 0.83,
        "hand": "right"
      },
      {
        "midi": 35,
        "time": 134.647,
        "duration": 0.176,
        "velocity": 0.58,
        "hand": "left"
      },
      {
        "midi": 42,
        "time": 134.647,
        "duration": 0.176,
        "velocity": 0.51,
        "hand": "left"
      },
      {
        "midi": 33,
        "time": 134.824,
        "duration": 0.176,
        "velocity": 0.86,
        "hand": "left"
      },
      {
        "midi": 42,
        "time": 134.824,
        "duration": 0.176,
        "velocity": 0.43,
        "hand": "left"
      },
      {
        "midi": 43,
        "time": 134.824,
        "duration": 0.176,
        "velocity": 0.86,
        "hand": "left"
      },
      {
        "midi": 45,
        "time": 134.824,
        "duration": 0.176,
        "velocity": 0.79,
        "hand": "left"
      },
      {
        "midi": 55,
        "time": 134.824,
        "duration": 0.176,
        "velocity": 0.79,
        "hand": "left"
      },
      {
        "midi": 61,
        "time": 134.824,
        "duration": 0.176,
        "velocity": 0.83,
        "hand": "right"
      },
      {
        "midi": 64,
        "time": 134.824,
        "duration": 0.176,
        "velocity": 0.83,
        "hand": "right"
      },
      {
        "midi": 35,
        "time": 135,
        "duration": 0.176,
        "velocity": 0.73,
        "hand": "left"
      },
      {
        "midi": 38,
        "time": 135,
        "duration": 1.588,
        "velocity": 0.86,
        "hand": "left"
      },
      {
        "midi": 42,
        "time": 135,
        "duration": 0.176,
        "velocity": 0.65,
        "hand": "left"
      },
      {
        "midi": 50,
        "time": 135,
        "duration": 1.588,
        "velocity": 0.79,
        "hand": "left"
      },
      {
        "midi": 62,
        "time": 135,
        "duration": 1.588,
        "velocity": 0.83,
        "hand": "right"
      },
      {
        "midi": 62,
        "time": 135,
        "duration": 2.294,
        "velocity": 0.86,
        "hand": "right"
      },
      {
        "midi": 42,
        "time": 135.353,
        "duration": 0.176,
        "velocity": 0.51,
        "hand": "left"
      },
      {
        "midi": 37,
        "time": 135.706,
        "duration": 0.176,
        "velocity": 0.73,
        "hand": "left"
      },
      {
        "midi": 42,
        "time": 135.706,
        "duration": 0.176,
        "velocity": 0.58,
        "hand": "left"
      },
      {
        "midi": 43,
        "time": 135.706,
        "duration": 0.529,
        "velocity": 0.86,
        "hand": "left"
      },
      {
        "midi": 55,
        "time": 135.706,
        "duration": 0.529,
        "velocity": 0.79,
        "hand": "left"
      },
      {
        "midi": 59,
        "time": 135.706,
        "duration": 0.529,
        "velocity": 0.83,
        "hand": "left"
      },
      {
        "midi": 35,
        "time": 136.059,
        "duration": 0.176,
        "velocity": 0.58,
        "hand": "left"
      },
      {
        "midi": 42,
        "time": 136.059,
        "duration": 0.176,
        "velocity": 0.51,
        "hand": "left"
      },
      {
        "midi": 35,
        "time": 136.412,
        "duration": 0.176,
        "velocity": 0.73,
        "hand": "left"
      },
      {
        "midi": 38,
        "time": 136.412,
        "duration": 0.529,
        "velocity": 0.86,
        "hand": "left"
      },
      {
        "midi": 42,
        "time": 136.412,
        "duration": 0.529,
        "velocity": 0.86,
        "hand": "left"
      },
      {
        "midi": 42,
        "time": 136.412,
        "duration": 0.176,
        "velocity": 0.65,
        "hand": "left"
      },
      {
        "midi": 50,
        "time": 136.412,
        "duration": 0.529,
        "velocity": 0.79,
        "hand": "left"
      },
      {
        "midi": 54,
        "time": 136.412,
        "duration": 0.529,
        "velocity": 0.79,
        "hand": "left"
      },
      {
        "midi": 57,
        "time": 136.412,
        "duration": 0.529,
        "velocity": 0.83,
        "hand": "left"
      },
      {
        "midi": 62,
        "time": 136.412,
        "duration": 0.529,
        "velocity": 0.83,
        "hand": "right"
      },
      {
        "midi": 38,
        "time": 136.765,
        "duration": 0.176,
        "velocity": 0.73,
        "hand": "left"
      },
      {
        "midi": 42,
        "time": 136.765,
        "duration": 0.176,
        "velocity": 0.51,
        "hand": "left"
      },
      {
        "midi": 38,
        "time": 136.941,
        "duration": 0.176,
        "velocity": 0.58,
        "hand": "left"
      },
      {
        "midi": 38,
        "time": 137.118,
        "duration": 0.176,
        "velocity": 0.83,
        "hand": "left"
      },
      {
        "midi": 42,
        "time": 137.118,
        "duration": 0.176,
        "velocity": 0.58,
        "hand": "left"
      },
      {
        "midi": 35,
        "time": 137.471,
        "duration": 0.176,
        "velocity": 0.58,
        "hand": "left"
      },
      {
        "midi": 46,
        "time": 137.471,
        "duration": 0.176,
        "velocity": 0.65,
        "hand": "left"
      },
      {
        "midi": 35,
        "time": 137.824,
        "duration": 0.176,
        "velocity": 0.73,
        "hand": "left"
      },
      {
        "midi": 38,
        "time": 137.824,
        "duration": 0.529,
        "velocity": 0.86,
        "hand": "left"
      },
      {
        "midi": 42,
        "time": 137.824,
        "duration": 0.176,
        "velocity": 0.65,
        "hand": "left"
      },
      {
        "midi": 45,
        "time": 137.824,
        "duration": 0.529,
        "velocity": 0.86,
        "hand": "left"
      },
      {
        "midi": 49,
        "time": 137.824,
        "duration": 0.176,
        "velocity": 0.65,
        "hand": "left"
      },
      {
        "midi": 50,
        "time": 137.824,
        "duration": 0.529,
        "velocity": 0.79,
        "hand": "left"
      },
      {
        "midi": 57,
        "time": 137.824,
        "duration": 0.529,
        "velocity": 0.79,
        "hand": "left"
      },
      {
        "midi": 62,
        "time": 137.824,
        "duration": 0.529,
        "velocity": 0.83,
        "hand": "right"
      },
      {
        "midi": 66,
        "time": 137.824,
        "duration": 0.529,
        "velocity": 0.83,
        "hand": "right"
      },
      {
        "midi": 42,
        "time": 138.176,
        "duration": 0.176,
        "velocity": 0.51,
        "hand": "left"
      },
      {
        "midi": 37,
        "time": 138.529,
        "duration": 0.176,
        "velocity": 0.73,
        "hand": "left"
      },
      {
        "midi": 38,
        "time": 138.529,
        "duration": 0.353,
        "velocity": 0.86,
        "hand": "left"
      },
      {
        "midi": 42,
        "time": 138.529,
        "duration": 0.176,
        "velocity": 0.58,
        "hand": "left"
      },
      {
        "midi": 45,
        "time": 138.529,
        "duration": 0.353,
        "velocity": 0.86,
        "hand": "left"
      },
      {
        "midi": 50,
        "time": 138.529,
        "duration": 0.353,
        "velocity": 0.79,
        "hand": "left"
      },
      {
        "midi": 57,
        "time": 138.529,
        "duration": 0.353,
        "velocity": 0.79,
        "hand": "left"
      },
      {
        "midi": 62,
        "time": 138.529,
        "duration": 0.353,
        "velocity": 0.83,
        "hand": "right"
      },
      {
        "midi": 66,
        "time": 138.529,
        "duration": 0.353,
        "velocity": 0.83,
        "hand": "right"
      },
      {
        "midi": 35,
        "time": 138.882,
        "duration": 0.176,
        "velocity": 0.58,
        "hand": "left"
      },
      {
        "midi": 42,
        "time": 138.882,
        "duration": 0.176,
        "velocity": 0.51,
        "hand": "left"
      },
      {
        "midi": 38,
        "time": 139.059,
        "duration": 0.176,
        "velocity": 0.86,
        "hand": "left"
      },
      {
        "midi": 44,
        "time": 139.059,
        "duration": 0.176,
        "velocity": 0.86,
        "hand": "left"
      },
      {
        "midi": 50,
        "time": 139.059,
        "duration": 0.176,
        "velocity": 0.79,
        "hand": "left"
      },
      {
        "midi": 56,
        "time": 139.059,
        "duration": 0.176,
        "velocity": 0.79,
        "hand": "left"
      },
      {
        "midi": 62,
        "time": 139.059,
        "duration": 0.176,
        "velocity": 0.83,
        "hand": "right"
      },
      {
        "midi": 65,
        "time": 139.059,
        "duration": 0.176,
        "velocity": 0.83,
        "hand": "right"
      },
      {
        "midi": 35,
        "time": 139.235,
        "duration": 0.176,
        "velocity": 0.73,
        "hand": "left"
      },
      {
        "midi": 38,
        "time": 139.235,
        "duration": 0.529,
        "velocity": 0.86,
        "hand": "left"
      },
      {
        "midi": 42,
        "time": 139.235,
        "duration": 0.176,
        "velocity": 0.65,
        "hand": "left"
      },
      {
        "midi": 45,
        "time": 139.235,
        "duration": 0.529,
        "velocity": 0.86,
        "hand": "left"
      },
      {
        "midi": 50,
        "time": 139.235,
        "duration": 0.529,
        "velocity": 0.79,
        "hand": "left"
      },
      {
        "midi": 57,
        "time": 139.235,
        "duration": 0.529,
        "velocity": 0.79,
        "hand": "left"
      },
      {
        "midi": 62,
        "time": 139.235,
        "duration": 0.529,
        "velocity": 0.83,
        "hand": "right"
      },
      {
        "midi": 66,
        "time": 139.235,
        "duration": 0.529,
        "velocity": 0.83,
        "hand": "right"
      },
      {
        "midi": 42,
        "time": 139.588,
        "duration": 0.176,
        "velocity": 0.51,
        "hand": "left"
      },
      {
        "midi": 37,
        "time": 139.941,
        "duration": 0.176,
        "velocity": 0.73,
        "hand": "left"
      },
      {
        "midi": 38,
        "time": 139.941,
        "duration": 0.353,
        "velocity": 0.86,
        "hand": "left"
      },
      {
        "midi": 42,
        "time": 139.941,
        "duration": 0.176,
        "velocity": 0.58,
        "hand": "left"
      },
      {
        "midi": 45,
        "time": 139.941,
        "duration": 0.353,
        "velocity": 0.86,
        "hand": "left"
      },
      {
        "midi": 50,
        "time": 139.941,
        "duration": 0.353,
        "velocity": 0.79,
        "hand": "left"
      },
      {
        "midi": 57,
        "time": 139.941,
        "duration": 0.353,
        "velocity": 0.79,
        "hand": "left"
      },
      {
        "midi": 62,
        "time": 139.941,
        "duration": 0.353,
        "velocity": 0.83,
        "hand": "right"
      },
      {
        "midi": 66,
        "time": 139.941,
        "duration": 0.353,
        "velocity": 0.83,
        "hand": "right"
      },
      {
        "midi": 35,
        "time": 140.294,
        "duration": 0.176,
        "velocity": 0.58,
        "hand": "left"
      },
      {
        "midi": 42,
        "time": 140.294,
        "duration": 0.176,
        "velocity": 0.51,
        "hand": "left"
      },
      {
        "midi": 38,
        "time": 140.471,
        "duration": 0.176,
        "velocity": 0.86,
        "hand": "left"
      },
      {
        "midi": 45,
        "time": 140.471,
        "duration": 0.176,
        "velocity": 0.86,
        "hand": "left"
      },
      {
        "midi": 50,
        "time": 140.471,
        "duration": 0.176,
        "velocity": 0.79,
        "hand": "left"
      },
      {
        "midi": 57,
        "time": 140.471,
        "duration": 0.176,
        "velocity": 0.79,
        "hand": "left"
      },
      {
        "midi": 64,
        "time": 140.471,
        "duration": 0.176,
        "velocity": 0.83,
        "hand": "right"
      },
      {
        "midi": 67,
        "time": 140.471,
        "duration": 0.176,
        "velocity": 0.83,
        "hand": "right"
      },
      {
        "midi": 35,
        "time": 140.647,
        "duration": 0.176,
        "velocity": 0.73,
        "hand": "left"
      },
      {
        "midi": 38,
        "time": 140.647,
        "duration": 0.882,
        "velocity": 0.86,
        "hand": "left"
      },
      {
        "midi": 42,
        "time": 140.647,
        "duration": 0.176,
        "velocity": 0.65,
        "hand": "left"
      },
      {
        "midi": 50,
        "time": 140.647,
        "duration": 0.882,
        "velocity": 0.79,
        "hand": "left"
      },
      {
        "midi": 62,
        "time": 140.647,
        "duration": 0.882,
        "velocity": 0.79,
        "hand": "right"
      },
      {
        "midi": 66,
        "time": 140.647,
        "duration": 0.882,
        "velocity": 0.83,
        "hand": "right"
      },
      {
        "midi": 69,
        "time": 140.647,
        "duration": 0.882,
        "velocity": 0.83,
        "hand": "right"
      },
      {
        "midi": 42,
        "time": 141,
        "duration": 0.176,
        "velocity": 0.51,
        "hand": "left"
      },
      {
        "midi": 37,
        "time": 141.353,
        "duration": 0.176,
        "velocity": 0.73,
        "hand": "left"
      },
      {
        "midi": 42,
        "time": 141.353,
        "duration": 0.176,
        "velocity": 0.58,
        "hand": "left"
      },
      {
        "midi": 35,
        "time": 141.706,
        "duration": 0.176,
        "velocity": 0.58,
        "hand": "left"
      },
      {
        "midi": 42,
        "time": 141.706,
        "duration": 0.176,
        "velocity": 0.51,
        "hand": "left"
      },
      {
        "midi": 35,
        "time": 142.059,
        "duration": 0.176,
        "velocity": 0.73,
        "hand": "left"
      },
      {
        "midi": 38,
        "time": 142.059,
        "duration": 0.529,
        "velocity": 0.86,
        "hand": "left"
      },
      {
        "midi": 42,
        "time": 142.059,
        "duration": 0.176,
        "velocity": 0.65,
        "hand": "left"
      },
      {
        "midi": 50,
        "time": 142.059,
        "duration": 0.529,
        "velocity": 0.79,
        "hand": "left"
      },
      {
        "midi": 62,
        "time": 142.059,
        "duration": 0.529,
        "velocity": 0.79,
        "hand": "right"
      },
      {
        "midi": 66,
        "time": 142.059,
        "duration": 0.529,
        "velocity": 0.83,
        "hand": "right"
      },
      {
        "midi": 69,
        "time": 142.059,
        "duration": 0.529,
        "velocity": 0.83,
        "hand": "right"
      },
      {
        "midi": 35,
        "time": 142.412,
        "duration": 0.176,
        "velocity": 0.58,
        "hand": "left"
      },
      {
        "midi": 42,
        "time": 142.412,
        "duration": 0.176,
        "velocity": 0.51,
        "hand": "left"
      },
      {
        "midi": 37,
        "time": 142.765,
        "duration": 0.176,
        "velocity": 0.73,
        "hand": "left"
      },
      {
        "midi": 38,
        "time": 142.765,
        "duration": 0.353,
        "velocity": 0.86,
        "hand": "left"
      },
      {
        "midi": 42,
        "time": 142.765,
        "duration": 0.176,
        "velocity": 0.58,
        "hand": "left"
      },
      {
        "midi": 50,
        "time": 142.765,
        "duration": 0.353,
        "velocity": 0.79,
        "hand": "left"
      },
      {
        "midi": 62,
        "time": 142.765,
        "duration": 0.353,
        "velocity": 0.79,
        "hand": "right"
      },
      {
        "midi": 66,
        "time": 142.765,
        "duration": 0.353,
        "velocity": 0.83,
        "hand": "right"
      },
      {
        "midi": 69,
        "time": 142.765,
        "duration": 0.353,
        "velocity": 0.83,
        "hand": "right"
      },
      {
        "midi": 35,
        "time": 143.118,
        "duration": 0.176,
        "velocity": 0.58,
        "hand": "left"
      },
      {
        "midi": 42,
        "time": 143.118,
        "duration": 0.176,
        "velocity": 0.51,
        "hand": "left"
      },
      {
        "midi": 38,
        "time": 143.294,
        "duration": 0.176,
        "velocity": 0.86,
        "hand": "left"
      },
      {
        "midi": 42,
        "time": 143.294,
        "duration": 0.176,
        "velocity": 0.43,
        "hand": "left"
      },
      {
        "midi": 45,
        "time": 143.294,
        "duration": 0.176,
        "velocity": 0.86,
        "hand": "left"
      },
      {
        "midi": 50,
        "time": 143.294,
        "duration": 0.176,
        "velocity": 0.79,
        "hand": "left"
      },
      {
        "midi": 57,
        "time": 143.294,
        "duration": 0.176,
        "velocity": 0.79,
        "hand": "left"
      },
      {
        "midi": 62,
        "time": 143.294,
        "duration": 0.176,
        "velocity": 0.83,
        "hand": "right"
      },
      {
        "midi": 66,
        "time": 143.294,
        "duration": 0.176,
        "velocity": 0.83,
        "hand": "right"
      },
      {
        "midi": 33,
        "time": 143.471,
        "duration": 0.529,
        "velocity": 0.86,
        "hand": "left"
      },
      {
        "midi": 35,
        "time": 143.471,
        "duration": 0.176,
        "velocity": 0.73,
        "hand": "left"
      },
      {
        "midi": 42,
        "time": 143.471,
        "duration": 0.176,
        "velocity": 0.65,
        "hand": "left"
      },
      {
        "midi": 45,
        "time": 143.471,
        "duration": 0.529,
        "velocity": 0.79,
        "hand": "left"
      },
      {
        "midi": 57,
        "time": 143.471,
        "duration": 0.529,
        "velocity": 0.79,
        "hand": "left"
      },
      {
        "midi": 61,
        "time": 143.471,
        "duration": 0.529,
        "velocity": 0.83,
        "hand": "right"
      },
      {
        "midi": 64,
        "time": 143.471,
        "duration": 0.529,
        "velocity": 0.83,
        "hand": "right"
      },
      {
        "midi": 42,
        "time": 143.824,
        "duration": 0.176,
        "velocity": 0.51,
        "hand": "left"
      },
      {
        "midi": 33,
        "time": 144.176,
        "duration": 0.529,
        "velocity": 0.86,
        "hand": "left"
      },
      {
        "midi": 37,
        "time": 144.176,
        "duration": 0.176,
        "velocity": 0.73,
        "hand": "left"
      },
      {
        "midi": 42,
        "time": 144.176,
        "duration": 0.176,
        "velocity": 0.58,
        "hand": "left"
      },
      {
        "midi": 45,
        "time": 144.176,
        "duration": 0.529,
        "velocity": 0.79,
        "hand": "left"
      },
      {
        "midi": 57,
        "time": 144.176,
        "duration": 0.529,
        "velocity": 0.79,
        "hand": "left"
      },
      {
        "midi": 61,
        "time": 144.176,
        "duration": 0.529,
        "velocity": 0.83,
        "hand": "right"
      },
      {
        "midi": 64,
        "time": 144.176,
        "duration": 0.529,
        "velocity": 0.83,
        "hand": "right"
      },
      {
        "midi": 35,
        "time": 144.529,
        "duration": 0.176,
        "velocity": 0.58,
        "hand": "left"
      },
      {
        "midi": 42,
        "time": 144.529,
        "duration": 0.176,
        "velocity": 0.51,
        "hand": "left"
      },
      {
        "midi": 35,
        "time": 144.882,
        "duration": 0.176,
        "velocity": 0.73,
        "hand": "left"
      },
      {
        "midi": 38,
        "time": 144.882,
        "duration": 0.529,
        "velocity": 0.86,
        "hand": "left"
      },
      {
        "midi": 42,
        "time": 144.882,
        "duration": 0.176,
        "velocity": 0.65,
        "hand": "left"
      },
      {
        "midi": 45,
        "time": 144.882,
        "duration": 0.529,
        "velocity": 0.86,
        "hand": "left"
      },
      {
        "midi": 50,
        "time": 144.882,
        "duration": 0.529,
        "velocity": 0.79,
        "hand": "left"
      },
      {
        "midi": 57,
        "time": 144.882,
        "duration": 0.529,
        "velocity": 0.79,
        "hand": "left"
      },
      {
        "midi": 62,
        "time": 144.882,
        "duration": 0.529,
        "velocity": 0.83,
        "hand": "right"
      },
      {
        "midi": 66,
        "time": 144.882,
        "duration": 0.529,
        "velocity": 0.83,
        "hand": "right"
      },
      {
        "midi": 42,
        "time": 145.235,
        "duration": 0.176,
        "velocity": 0.51,
        "hand": "left"
      },
      {
        "midi": 37,
        "time": 145.588,
        "duration": 0.176,
        "velocity": 0.73,
        "hand": "left"
      },
      {
        "midi": 38,
        "time": 145.588,
        "duration": 0.353,
        "velocity": 0.86,
        "hand": "left"
      },
      {
        "midi": 42,
        "time": 145.588,
        "duration": 0.176,
        "velocity": 0.58,
        "hand": "left"
      },
      {
        "midi": 45,
        "time": 145.588,
        "duration": 0.353,
        "velocity": 0.86,
        "hand": "left"
      },
      {
        "midi": 50,
        "time": 145.588,
        "duration": 0.353,
        "velocity": 0.79,
        "hand": "left"
      },
      {
        "midi": 57,
        "time": 145.588,
        "duration": 0.353,
        "velocity": 0.79,
        "hand": "left"
      },
      {
        "midi": 64,
        "time": 145.588,
        "duration": 0.353,
        "velocity": 0.83,
        "hand": "right"
      },
      {
        "midi": 67,
        "time": 145.588,
        "duration": 0.353,
        "velocity": 0.83,
        "hand": "right"
      },
      {
        "midi": 35,
        "time": 145.941,
        "duration": 0.176,
        "velocity": 0.58,
        "hand": "left"
      },
      {
        "midi": 42,
        "time": 145.941,
        "duration": 0.176,
        "velocity": 0.51,
        "hand": "left"
      },
      {
        "midi": 38,
        "time": 146.118,
        "duration": 0.176,
        "velocity": 0.86,
        "hand": "left"
      },
      {
        "midi": 45,
        "time": 146.118,
        "duration": 0.176,
        "velocity": 0.86,
        "hand": "left"
      },
      {
        "midi": 50,
        "time": 146.118,
        "duration": 0.176,
        "velocity": 0.79,
        "hand": "left"
      },
      {
        "midi": 57,
        "time": 146.118,
        "duration": 0.176,
        "velocity": 0.79,
        "hand": "left"
      },
      {
        "midi": 62,
        "time": 146.118,
        "duration": 0.176,
        "velocity": 0.83,
        "hand": "right"
      },
      {
        "midi": 66,
        "time": 146.118,
        "duration": 0.176,
        "velocity": 0.83,
        "hand": "right"
      },
      {
        "midi": 33,
        "time": 146.294,
        "duration": 1.412,
        "velocity": 0.86,
        "hand": "left"
      },
      {
        "midi": 35,
        "time": 146.294,
        "duration": 0.176,
        "velocity": 0.73,
        "hand": "left"
      },
      {
        "midi": 42,
        "time": 146.294,
        "duration": 0.176,
        "velocity": 0.65,
        "hand": "left"
      },
      {
        "midi": 45,
        "time": 146.294,
        "duration": 1.412,
        "velocity": 0.79,
        "hand": "left"
      },
      {
        "midi": 57,
        "time": 146.294,
        "duration": 1.412,
        "velocity": 0.79,
        "hand": "left"
      },
      {
        "midi": 61,
        "time": 146.294,
        "duration": 1.412,
        "velocity": 0.83,
        "hand": "right"
      },
      {
        "midi": 64,
        "time": 146.294,
        "duration": 1.412,
        "velocity": 0.83,
        "hand": "right"
      },
      {
        "midi": 42,
        "time": 146.647,
        "duration": 0.176,
        "velocity": 0.51,
        "hand": "left"
      },
      {
        "midi": 37,
        "time": 147,
        "duration": 0.176,
        "velocity": 0.73,
        "hand": "left"
      },
      {
        "midi": 42,
        "time": 147,
        "duration": 0.176,
        "velocity": 0.58,
        "hand": "left"
      },
      {
        "midi": 35,
        "time": 147.353,
        "duration": 0.176,
        "velocity": 0.58,
        "hand": "left"
      },
      {
        "midi": 42,
        "time": 147.353,
        "duration": 0.176,
        "velocity": 0.51,
        "hand": "left"
      },
      {
        "midi": 35,
        "time": 147.706,
        "duration": 0.176,
        "velocity": 0.73,
        "hand": "left"
      },
      {
        "midi": 42,
        "time": 147.706,
        "duration": 0.176,
        "velocity": 0.65,
        "hand": "left"
      },
      {
        "midi": 35,
        "time": 148.059,
        "duration": 0.176,
        "velocity": 0.58,
        "hand": "left"
      },
      {
        "midi": 42,
        "time": 148.059,
        "duration": 0.176,
        "velocity": 0.51,
        "hand": "left"
      },
      {
        "midi": 37,
        "time": 148.412,
        "duration": 0.176,
        "velocity": 0.73,
        "hand": "left"
      },
      {
        "midi": 42,
        "time": 148.412,
        "duration": 0.176,
        "velocity": 0.58,
        "hand": "left"
      },
      {
        "midi": 35,
        "time": 148.765,
        "duration": 0.176,
        "velocity": 0.58,
        "hand": "left"
      },
      {
        "midi": 42,
        "time": 148.765,
        "duration": 0.176,
        "velocity": 0.51,
        "hand": "left"
      },
      {
        "midi": 35,
        "time": 149.118,
        "duration": 0.176,
        "velocity": 0.73,
        "hand": "left"
      },
      {
        "midi": 38,
        "time": 149.118,
        "duration": 0.529,
        "velocity": 0.86,
        "hand": "left"
      },
      {
        "midi": 42,
        "time": 149.118,
        "duration": 0.176,
        "velocity": 0.65,
        "hand": "left"
      },
      {
        "midi": 45,
        "time": 149.118,
        "duration": 0.529,
        "velocity": 0.86,
        "hand": "left"
      },
      {
        "midi": 50,
        "time": 149.118,
        "duration": 0.529,
        "velocity": 0.79,
        "hand": "left"
      },
      {
        "midi": 57,
        "time": 149.118,
        "duration": 0.529,
        "velocity": 0.79,
        "hand": "left"
      },
      {
        "midi": 62,
        "time": 149.118,
        "duration": 0.529,
        "velocity": 0.83,
        "hand": "right"
      },
      {
        "midi": 66,
        "time": 149.118,
        "duration": 0.529,
        "velocity": 0.83,
        "hand": "right"
      },
      {
        "midi": 42,
        "time": 149.471,
        "duration": 0.176,
        "velocity": 0.51,
        "hand": "left"
      },
      {
        "midi": 37,
        "time": 149.824,
        "duration": 0.176,
        "velocity": 0.73,
        "hand": "left"
      },
      {
        "midi": 38,
        "time": 149.824,
        "duration": 0.353,
        "velocity": 0.86,
        "hand": "left"
      },
      {
        "midi": 42,
        "time": 149.824,
        "duration": 0.176,
        "velocity": 0.58,
        "hand": "left"
      },
      {
        "midi": 45,
        "time": 149.824,
        "duration": 0.353,
        "velocity": 0.86,
        "hand": "left"
      },
      {
        "midi": 50,
        "time": 149.824,
        "duration": 0.353,
        "velocity": 0.79,
        "hand": "left"
      },
      {
        "midi": 57,
        "time": 149.824,
        "duration": 0.353,
        "velocity": 0.79,
        "hand": "left"
      },
      {
        "midi": 62,
        "time": 149.824,
        "duration": 0.353,
        "velocity": 0.83,
        "hand": "right"
      },
      {
        "midi": 66,
        "time": 149.824,
        "duration": 0.353,
        "velocity": 0.83,
        "hand": "right"
      },
      {
        "midi": 35,
        "time": 150.176,
        "duration": 0.176,
        "velocity": 0.58,
        "hand": "left"
      },
      {
        "midi": 42,
        "time": 150.176,
        "duration": 0.176,
        "velocity": 0.51,
        "hand": "left"
      },
      {
        "midi": 38,
        "time": 150.353,
        "duration": 0.176,
        "velocity": 0.86,
        "hand": "left"
      },
      {
        "midi": 44,
        "time": 150.353,
        "duration": 0.176,
        "velocity": 0.86,
        "hand": "left"
      },
      {
        "midi": 50,
        "time": 150.353,
        "duration": 0.176,
        "velocity": 0.79,
        "hand": "left"
      },
      {
        "midi": 56,
        "time": 150.353,
        "duration": 0.176,
        "velocity": 0.79,
        "hand": "left"
      },
      {
        "midi": 62,
        "time": 150.353,
        "duration": 0.176,
        "velocity": 0.83,
        "hand": "right"
      },
      {
        "midi": 65,
        "time": 150.353,
        "duration": 0.176,
        "velocity": 0.83,
        "hand": "right"
      },
      {
        "midi": 35,
        "time": 150.529,
        "duration": 0.176,
        "velocity": 0.73,
        "hand": "left"
      },
      {
        "midi": 38,
        "time": 150.529,
        "duration": 0.529,
        "velocity": 0.86,
        "hand": "left"
      },
      {
        "midi": 42,
        "time": 150.529,
        "duration": 0.176,
        "velocity": 0.65,
        "hand": "left"
      },
      {
        "midi": 45,
        "time": 150.529,
        "duration": 0.529,
        "velocity": 0.86,
        "hand": "left"
      },
      {
        "midi": 50,
        "time": 150.529,
        "duration": 0.529,
        "velocity": 0.79,
        "hand": "left"
      },
      {
        "midi": 57,
        "time": 150.529,
        "duration": 0.529,
        "velocity": 0.79,
        "hand": "left"
      },
      {
        "midi": 62,
        "time": 150.529,
        "duration": 0.529,
        "velocity": 0.83,
        "hand": "right"
      },
      {
        "midi": 66,
        "time": 150.529,
        "duration": 0.529,
        "velocity": 0.83,
        "hand": "right"
      },
      {
        "midi": 42,
        "time": 150.882,
        "duration": 0.176,
        "velocity": 0.51,
        "hand": "left"
      },
      {
        "midi": 37,
        "time": 151.235,
        "duration": 0.176,
        "velocity": 0.73,
        "hand": "left"
      },
      {
        "midi": 38,
        "time": 151.235,
        "duration": 0.353,
        "velocity": 0.86,
        "hand": "left"
      },
      {
        "midi": 42,
        "time": 151.235,
        "duration": 0.176,
        "velocity": 0.58,
        "hand": "left"
      },
      {
        "midi": 45,
        "time": 151.235,
        "duration": 0.353,
        "velocity": 0.86,
        "hand": "left"
      },
      {
        "midi": 50,
        "time": 151.235,
        "duration": 0.353,
        "velocity": 0.79,
        "hand": "left"
      },
      {
        "midi": 57,
        "time": 151.235,
        "duration": 0.353,
        "velocity": 0.79,
        "hand": "left"
      },
      {
        "midi": 62,
        "time": 151.235,
        "duration": 0.353,
        "velocity": 0.83,
        "hand": "right"
      },
      {
        "midi": 66,
        "time": 151.235,
        "duration": 0.353,
        "velocity": 0.83,
        "hand": "right"
      },
      {
        "midi": 35,
        "time": 151.588,
        "duration": 0.176,
        "velocity": 0.58,
        "hand": "left"
      },
      {
        "midi": 42,
        "time": 151.588,
        "duration": 0.176,
        "velocity": 0.51,
        "hand": "left"
      },
      {
        "midi": 38,
        "time": 151.765,
        "duration": 0.176,
        "velocity": 0.86,
        "hand": "left"
      },
      {
        "midi": 45,
        "time": 151.765,
        "duration": 0.176,
        "velocity": 0.86,
        "hand": "left"
      },
      {
        "midi": 50,
        "time": 151.765,
        "duration": 0.176,
        "velocity": 0.79,
        "hand": "left"
      },
      {
        "midi": 57,
        "time": 151.765,
        "duration": 0.176,
        "velocity": 0.79,
        "hand": "left"
      },
      {
        "midi": 64,
        "time": 151.765,
        "duration": 0.176,
        "velocity": 0.83,
        "hand": "right"
      },
      {
        "midi": 67,
        "time": 151.765,
        "duration": 0.176,
        "velocity": 0.83,
        "hand": "right"
      },
      {
        "midi": 35,
        "time": 151.941,
        "duration": 0.176,
        "velocity": 0.73,
        "hand": "left"
      },
      {
        "midi": 38,
        "time": 151.941,
        "duration": 0.882,
        "velocity": 0.86,
        "hand": "left"
      },
      {
        "midi": 42,
        "time": 151.941,
        "duration": 0.176,
        "velocity": 0.65,
        "hand": "left"
      },
      {
        "midi": 50,
        "time": 151.941,
        "duration": 0.882,
        "velocity": 0.79,
        "hand": "left"
      },
      {
        "midi": 62,
        "time": 151.941,
        "duration": 0.882,
        "velocity": 0.79,
        "hand": "right"
      },
      {
        "midi": 66,
        "time": 151.941,
        "duration": 0.882,
        "velocity": 0.83,
        "hand": "right"
      },
      {
        "midi": 69,
        "time": 151.941,
        "duration": 0.882,
        "velocity": 0.83,
        "hand": "right"
      },
      {
        "midi": 42,
        "time": 152.294,
        "duration": 0.176,
        "velocity": 0.51,
        "hand": "left"
      },
      {
        "midi": 37,
        "time": 152.647,
        "duration": 0.176,
        "velocity": 0.73,
        "hand": "left"
      },
      {
        "midi": 42,
        "time": 152.647,
        "duration": 0.176,
        "velocity": 0.58,
        "hand": "left"
      },
      {
        "midi": 35,
        "time": 153,
        "duration": 0.176,
        "velocity": 0.58,
        "hand": "left"
      },
      {
        "midi": 42,
        "time": 153,
        "duration": 0.176,
        "velocity": 0.51,
        "hand": "left"
      },
      {
        "midi": 35,
        "time": 153.353,
        "duration": 0.176,
        "velocity": 0.73,
        "hand": "left"
      },
      {
        "midi": 38,
        "time": 153.353,
        "duration": 0.529,
        "velocity": 0.86,
        "hand": "left"
      },
      {
        "midi": 42,
        "time": 153.353,
        "duration": 0.176,
        "velocity": 0.65,
        "hand": "left"
      },
      {
        "midi": 50,
        "time": 153.353,
        "duration": 0.529,
        "velocity": 0.79,
        "hand": "left"
      },
      {
        "midi": 62,
        "time": 153.353,
        "duration": 0.529,
        "velocity": 0.79,
        "hand": "right"
      },
      {
        "midi": 66,
        "time": 153.353,
        "duration": 0.529,
        "velocity": 0.83,
        "hand": "right"
      },
      {
        "midi": 69,
        "time": 153.353,
        "duration": 0.529,
        "velocity": 0.83,
        "hand": "right"
      },
      {
        "midi": 35,
        "time": 153.706,
        "duration": 0.176,
        "velocity": 0.58,
        "hand": "left"
      },
      {
        "midi": 42,
        "time": 153.706,
        "duration": 0.176,
        "velocity": 0.51,
        "hand": "left"
      },
      {
        "midi": 37,
        "time": 154.059,
        "duration": 0.176,
        "velocity": 0.73,
        "hand": "left"
      },
      {
        "midi": 38,
        "time": 154.059,
        "duration": 0.353,
        "velocity": 0.86,
        "hand": "left"
      },
      {
        "midi": 42,
        "time": 154.059,
        "duration": 0.176,
        "velocity": 0.58,
        "hand": "left"
      },
      {
        "midi": 50,
        "time": 154.059,
        "duration": 0.353,
        "velocity": 0.79,
        "hand": "left"
      },
      {
        "midi": 62,
        "time": 154.059,
        "duration": 0.353,
        "velocity": 0.79,
        "hand": "right"
      },
      {
        "midi": 66,
        "time": 154.059,
        "duration": 0.353,
        "velocity": 0.83,
        "hand": "right"
      },
      {
        "midi": 69,
        "time": 154.059,
        "duration": 0.353,
        "velocity": 0.83,
        "hand": "right"
      },
      {
        "midi": 35,
        "time": 154.412,
        "duration": 0.176,
        "velocity": 0.58,
        "hand": "left"
      },
      {
        "midi": 42,
        "time": 154.412,
        "duration": 0.176,
        "velocity": 0.51,
        "hand": "left"
      },
      {
        "midi": 38,
        "time": 154.588,
        "duration": 0.176,
        "velocity": 0.86,
        "hand": "left"
      },
      {
        "midi": 45,
        "time": 154.588,
        "duration": 0.176,
        "velocity": 0.86,
        "hand": "left"
      },
      {
        "midi": 50,
        "time": 154.588,
        "duration": 0.176,
        "velocity": 0.79,
        "hand": "left"
      },
      {
        "midi": 57,
        "time": 154.588,
        "duration": 0.176,
        "velocity": 0.79,
        "hand": "left"
      },
      {
        "midi": 62,
        "time": 154.588,
        "duration": 0.176,
        "velocity": 0.83,
        "hand": "right"
      },
      {
        "midi": 66,
        "time": 154.588,
        "duration": 0.176,
        "velocity": 0.83,
        "hand": "right"
      },
      {
        "midi": 35,
        "time": 154.765,
        "duration": 0.176,
        "velocity": 0.73,
        "hand": "left"
      },
      {
        "midi": 42,
        "time": 154.765,
        "duration": 0.176,
        "velocity": 0.65,
        "hand": "left"
      },
      {
        "midi": 43,
        "time": 154.765,
        "duration": 0.529,
        "velocity": 0.86,
        "hand": "left"
      },
      {
        "midi": 47,
        "time": 154.765,
        "duration": 0.529,
        "velocity": 0.86,
        "hand": "left"
      },
      {
        "midi": 55,
        "time": 154.765,
        "duration": 0.529,
        "velocity": 0.79,
        "hand": "left"
      },
      {
        "midi": 59,
        "time": 154.765,
        "duration": 0.529,
        "velocity": 0.79,
        "hand": "left"
      },
      {
        "midi": 62,
        "time": 154.765,
        "duration": 0.529,
        "velocity": 0.83,
        "hand": "right"
      },
      {
        "midi": 64,
        "time": 154.765,
        "duration": 0.529,
        "velocity": 0.83,
        "hand": "right"
      },
      {
        "midi": 42,
        "time": 155.118,
        "duration": 0.176,
        "velocity": 0.51,
        "hand": "left"
      },
      {
        "midi": 37,
        "time": 155.471,
        "duration": 0.176,
        "velocity": 0.73,
        "hand": "left"
      },
      {
        "midi": 42,
        "time": 155.471,
        "duration": 0.176,
        "velocity": 0.58,
        "hand": "left"
      },
      {
        "midi": 43,
        "time": 155.471,
        "duration": 0.176,
        "velocity": 0.86,
        "hand": "left"
      },
      {
        "midi": 47,
        "time": 155.471,
        "duration": 0.176,
        "velocity": 0.86,
        "hand": "left"
      },
      {
        "midi": 55,
        "time": 155.471,
        "duration": 0.176,
        "velocity": 0.79,
        "hand": "left"
      },
      {
        "midi": 59,
        "time": 155.471,
        "duration": 0.176,
        "velocity": 0.79,
        "hand": "left"
      },
      {
        "midi": 62,
        "time": 155.471,
        "duration": 0.176,
        "velocity": 0.83,
        "hand": "right"
      },
      {
        "midi": 64,
        "time": 155.471,
        "duration": 0.176,
        "velocity": 0.83,
        "hand": "right"
      },
      {
        "midi": 35,
        "time": 155.824,
        "duration": 0.176,
        "velocity": 0.58,
        "hand": "left"
      },
      {
        "midi": 42,
        "time": 155.824,
        "duration": 0.176,
        "velocity": 0.51,
        "hand": "left"
      },
      {
        "midi": 43,
        "time": 155.824,
        "duration": 0.176,
        "velocity": 0.86,
        "hand": "left"
      },
      {
        "midi": 47,
        "time": 155.824,
        "duration": 0.176,
        "velocity": 0.86,
        "hand": "left"
      },
      {
        "midi": 55,
        "time": 155.824,
        "duration": 0.176,
        "velocity": 0.79,
        "hand": "left"
      },
      {
        "midi": 59,
        "time": 155.824,
        "duration": 0.176,
        "velocity": 0.79,
        "hand": "left"
      },
      {
        "midi": 62,
        "time": 155.824,
        "duration": 0.176,
        "velocity": 0.83,
        "hand": "right"
      },
      {
        "midi": 64,
        "time": 155.824,
        "duration": 0.176,
        "velocity": 0.83,
        "hand": "right"
      },
      {
        "midi": 35,
        "time": 156.176,
        "duration": 0.176,
        "velocity": 0.73,
        "hand": "left"
      },
      {
        "midi": 42,
        "time": 156.176,
        "duration": 0.176,
        "velocity": 0.65,
        "hand": "left"
      },
      {
        "midi": 45,
        "time": 156.176,
        "duration": 0.529,
        "velocity": 0.86,
        "hand": "left"
      },
      {
        "midi": 57,
        "time": 156.176,
        "duration": 0.529,
        "velocity": 0.79,
        "hand": "left"
      },
      {
        "midi": 61,
        "time": 156.176,
        "duration": 0.529,
        "velocity": 0.83,
        "hand": "right"
      },
      {
        "midi": 64,
        "time": 156.176,
        "duration": 0.529,
        "velocity": 0.83,
        "hand": "right"
      },
      {
        "midi": 42,
        "time": 156.529,
        "duration": 0.176,
        "velocity": 0.51,
        "hand": "left"
      },
      {
        "midi": 33,
        "time": 156.882,
        "duration": 0.353,
        "velocity": 0.86,
        "hand": "left"
      },
      {
        "midi": 37,
        "time": 156.882,
        "duration": 0.176,
        "velocity": 0.73,
        "hand": "left"
      },
      {
        "midi": 42,
        "time": 156.882,
        "duration": 0.176,
        "velocity": 0.58,
        "hand": "left"
      },
      {
        "midi": 45,
        "time": 156.882,
        "duration": 0.353,
        "velocity": 0.79,
        "hand": "left"
      },
      {
        "midi": 57,
        "time": 156.882,
        "duration": 0.353,
        "velocity": 0.79,
        "hand": "left"
      },
      {
        "midi": 61,
        "time": 156.882,
        "duration": 0.353,
        "velocity": 0.83,
        "hand": "right"
      },
      {
        "midi": 66,
        "time": 156.882,
        "duration": 0.353,
        "velocity": 0.83,
        "hand": "right"
      },
      {
        "midi": 35,
        "time": 157.235,
        "duration": 0.176,
        "velocity": 0.58,
        "hand": "left"
      },
      {
        "midi": 42,
        "time": 157.235,
        "duration": 0.176,
        "velocity": 0.51,
        "hand": "left"
      },
      {
        "midi": 33,
        "time": 157.412,
        "duration": 0.176,
        "velocity": 0.86,
        "hand": "left"
      },
      {
        "midi": 43,
        "time": 157.412,
        "duration": 0.176,
        "velocity": 0.86,
        "hand": "left"
      },
      {
        "midi": 45,
        "time": 157.412,
        "duration": 0.176,
        "velocity": 0.79,
        "hand": "left"
      },
      {
        "midi": 55,
        "time": 157.412,
        "duration": 0.176,
        "velocity": 0.79,
        "hand": "left"
      },
      {
        "midi": 61,
        "time": 157.412,
        "duration": 0.176,
        "velocity": 0.83,
        "hand": "right"
      },
      {
        "midi": 64,
        "time": 157.412,
        "duration": 0.176,
        "velocity": 0.83,
        "hand": "right"
      },
      {
        "midi": 35,
        "time": 157.588,
        "duration": 0.176,
        "velocity": 0.73,
        "hand": "left"
      },
      {
        "midi": 38,
        "time": 157.588,
        "duration": 1.412,
        "velocity": 0.86,
        "hand": "left"
      },
      {
        "midi": 42,
        "time": 157.588,
        "duration": 1.412,
        "velocity": 0.86,
        "hand": "left"
      },
      {
        "midi": 42,
        "time": 157.588,
        "duration": 0.176,
        "velocity": 0.65,
        "hand": "left"
      },
      {
        "midi": 50,
        "time": 157.588,
        "duration": 1.412,
        "velocity": 0.79,
        "hand": "left"
      },
      {
        "midi": 54,
        "time": 157.588,
        "duration": 1.412,
        "velocity": 0.79,
        "hand": "left"
      },
      {
        "midi": 62,
        "time": 157.588,
        "duration": 1.412,
        "velocity": 0.83,
        "hand": "right"
      },
      {
        "midi": 42,
        "time": 157.941,
        "duration": 0.176,
        "velocity": 0.51,
        "hand": "left"
      },
      {
        "midi": 37,
        "time": 158.294,
        "duration": 0.176,
        "velocity": 0.73,
        "hand": "left"
      },
      {
        "midi": 42,
        "time": 158.294,
        "duration": 0.176,
        "velocity": 0.58,
        "hand": "left"
      },
      {
        "midi": 35,
        "time": 158.647,
        "duration": 0.176,
        "velocity": 0.58,
        "hand": "left"
      },
      {
        "midi": 42,
        "time": 158.647,
        "duration": 0.176,
        "velocity": 0.51,
        "hand": "left"
      },
      {
        "midi": 35,
        "time": 159,
        "duration": 0.176,
        "velocity": 0.73,
        "hand": "left"
      },
      {
        "midi": 42,
        "time": 159,
        "duration": 0.176,
        "velocity": 0.65,
        "hand": "left"
      },
      {
        "midi": 38,
        "time": 159.353,
        "duration": 0.176,
        "velocity": 0.65,
        "hand": "left"
      },
      {
        "midi": 38,
        "time": 159.706,
        "duration": 0.176,
        "velocity": 0.73,
        "hand": "left"
      },
      {
        "midi": 35,
        "time": 160.059,
        "duration": 0.176,
        "velocity": 0.58,
        "hand": "left"
      },
      {
        "midi": 38,
        "time": 160.059,
        "duration": 0.176,
        "velocity": 0.83,
        "hand": "left"
      },
      {
        "midi": 38,
        "time": 160.235,
        "duration": 0.176,
        "velocity": 0.65,
        "hand": "left"
      },
      {
        "midi": 35,
        "time": 160.412,
        "duration": 0.176,
        "velocity": 0.73,
        "hand": "left"
      },
      {
        "midi": 42,
        "time": 160.412,
        "duration": 0.176,
        "velocity": 0.65,
        "hand": "left"
      },
      {
        "midi": 43,
        "time": 160.412,
        "duration": 0.529,
        "velocity": 0.86,
        "hand": "left"
      },
      {
        "midi": 49,
        "time": 160.412,
        "duration": 0.176,
        "velocity": 0.65,
        "hand": "left"
      },
      {
        "midi": 50,
        "time": 160.412,
        "duration": 0.529,
        "velocity": 0.86,
        "hand": "left"
      },
      {
        "midi": 55,
        "time": 160.412,
        "duration": 0.529,
        "velocity": 0.79,
        "hand": "left"
      },
      {
        "midi": 62,
        "time": 160.412,
        "duration": 0.529,
        "velocity": 0.83,
        "hand": "right"
      },
      {
        "midi": 71,
        "time": 160.412,
        "duration": 0.529,
        "velocity": 0.83,
        "hand": "right"
      },
      {
        "midi": 42,
        "time": 160.765,
        "duration": 0.176,
        "velocity": 0.51,
        "hand": "left"
      },
      {
        "midi": 37,
        "time": 161.118,
        "duration": 0.176,
        "velocity": 0.73,
        "hand": "left"
      },
      {
        "midi": 42,
        "time": 161.118,
        "duration": 0.176,
        "velocity": 0.58,
        "hand": "left"
      },
      {
        "midi": 43,
        "time": 161.118,
        "duration": 0.353,
        "velocity": 0.86,
        "hand": "left"
      },
      {
        "midi": 50,
        "time": 161.118,
        "duration": 0.353,
        "velocity": 0.86,
        "hand": "left"
      },
      {
        "midi": 55,
        "time": 161.118,
        "duration": 0.353,
        "velocity": 0.79,
        "hand": "left"
      },
      {
        "midi": 62,
        "time": 161.118,
        "duration": 0.353,
        "velocity": 0.79,
        "hand": "right"
      },
      {
        "midi": 67,
        "time": 161.118,
        "duration": 0.353,
        "velocity": 0.83,
        "hand": "right"
      },
      {
        "midi": 71,
        "time": 161.118,
        "duration": 0.353,
        "velocity": 0.83,
        "hand": "right"
      },
      {
        "midi": 35,
        "time": 161.471,
        "duration": 0.176,
        "velocity": 0.58,
        "hand": "left"
      },
      {
        "midi": 42,
        "time": 161.471,
        "duration": 0.176,
        "velocity": 0.51,
        "hand": "left"
      },
      {
        "midi": 43,
        "time": 161.647,
        "duration": 0.176,
        "velocity": 0.86,
        "hand": "left"
      },
      {
        "midi": 50,
        "time": 161.647,
        "duration": 0.176,
        "velocity": 0.86,
        "hand": "left"
      },
      {
        "midi": 55,
        "time": 161.647,
        "duration": 0.176,
        "velocity": 0.79,
        "hand": "left"
      },
      {
        "midi": 62,
        "time": 161.647,
        "duration": 0.176,
        "velocity": 0.79,
        "hand": "right"
      },
      {
        "midi": 67,
        "time": 161.647,
        "duration": 0.176,
        "velocity": 0.83,
        "hand": "right"
      },
      {
        "midi": 71,
        "time": 161.647,
        "duration": 0.176,
        "velocity": 0.83,
        "hand": "right"
      },
      {
        "midi": 35,
        "time": 161.824,
        "duration": 0.176,
        "velocity": 0.73,
        "hand": "left"
      },
      {
        "midi": 42,
        "time": 161.824,
        "duration": 0.176,
        "velocity": 0.65,
        "hand": "left"
      },
      {
        "midi": 43,
        "time": 161.824,
        "duration": 0.529,
        "velocity": 0.86,
        "hand": "left"
      },
      {
        "midi": 50,
        "time": 161.824,
        "duration": 0.529,
        "velocity": 0.86,
        "hand": "left"
      },
      {
        "midi": 55,
        "time": 161.824,
        "duration": 0.529,
        "velocity": 0.79,
        "hand": "left"
      },
      {
        "midi": 62,
        "time": 161.824,
        "duration": 0.529,
        "velocity": 0.79,
        "hand": "right"
      },
      {
        "midi": 67,
        "time": 161.824,
        "duration": 0.529,
        "velocity": 0.83,
        "hand": "right"
      },
      {
        "midi": 71,
        "time": 161.824,
        "duration": 0.529,
        "velocity": 0.83,
        "hand": "right"
      },
      {
        "midi": 42,
        "time": 162.176,
        "duration": 0.176,
        "velocity": 0.51,
        "hand": "left"
      },
      {
        "midi": 37,
        "time": 162.529,
        "duration": 0.176,
        "velocity": 0.73,
        "hand": "left"
      },
      {
        "midi": 42,
        "time": 162.529,
        "duration": 0.176,
        "velocity": 0.58,
        "hand": "left"
      },
      {
        "midi": 43,
        "time": 162.529,
        "duration": 0.353,
        "velocity": 0.86,
        "hand": "left"
      },
      {
        "midi": 50,
        "time": 162.529,
        "duration": 0.353,
        "velocity": 0.86,
        "hand": "left"
      },
      {
        "midi": 55,
        "time": 162.529,
        "duration": 0.353,
        "velocity": 0.79,
        "hand": "left"
      },
      {
        "midi": 62,
        "time": 162.529,
        "duration": 0.353,
        "velocity": 0.79,
        "hand": "right"
      },
      {
        "midi": 67,
        "time": 162.529,
        "duration": 0.353,
        "velocity": 0.83,
        "hand": "right"
      },
      {
        "midi": 71,
        "time": 162.529,
        "duration": 0.353,
        "velocity": 0.83,
        "hand": "right"
      },
      {
        "midi": 35,
        "time": 162.882,
        "duration": 0.176,
        "velocity": 0.58,
        "hand": "left"
      },
      {
        "midi": 42,
        "time": 162.882,
        "duration": 0.176,
        "velocity": 0.51,
        "hand": "left"
      },
      {
        "midi": 43,
        "time": 163.059,
        "duration": 0.176,
        "velocity": 0.86,
        "hand": "left"
      },
      {
        "midi": 47,
        "time": 163.059,
        "duration": 0.176,
        "velocity": 0.86,
        "hand": "left"
      },
      {
        "midi": 55,
        "time": 163.059,
        "duration": 0.176,
        "velocity": 0.79,
        "hand": "left"
      },
      {
        "midi": 59,
        "time": 163.059,
        "duration": 0.176,
        "velocity": 0.79,
        "hand": "left"
      },
      {
        "midi": 64,
        "time": 163.059,
        "duration": 0.176,
        "velocity": 0.83,
        "hand": "right"
      },
      {
        "midi": 67,
        "time": 163.059,
        "duration": 0.176,
        "velocity": 0.83,
        "hand": "right"
      },
      {
        "midi": 35,
        "time": 163.235,
        "duration": 0.176,
        "velocity": 0.73,
        "hand": "left"
      },
      {
        "midi": 38,
        "time": 163.235,
        "duration": 0.882,
        "velocity": 0.86,
        "hand": "left"
      },
      {
        "midi": 42,
        "time": 163.235,
        "duration": 0.176,
        "velocity": 0.65,
        "hand": "left"
      },
      {
        "midi": 45,
        "time": 163.235,
        "duration": 0.882,
        "velocity": 0.86,
        "hand": "left"
      },
      {
        "midi": 50,
        "time": 163.235,
        "duration": 0.882,
        "velocity": 0.79,
        "hand": "left"
      },
      {
        "midi": 57,
        "time": 163.235,
        "duration": 0.882,
        "velocity": 0.79,
        "hand": "left"
      },
      {
        "midi": 62,
        "time": 163.235,
        "duration": 0.882,
        "velocity": 0.83,
        "hand": "right"
      },
      {
        "midi": 66,
        "time": 163.235,
        "duration": 0.882,
        "velocity": 0.83,
        "hand": "right"
      },
      {
        "midi": 42,
        "time": 163.588,
        "duration": 0.176,
        "velocity": 0.51,
        "hand": "left"
      },
      {
        "midi": 37,
        "time": 163.941,
        "duration": 0.176,
        "velocity": 0.73,
        "hand": "left"
      },
      {
        "midi": 42,
        "time": 163.941,
        "duration": 0.176,
        "velocity": 0.58,
        "hand": "left"
      },
      {
        "midi": 35,
        "time": 164.294,
        "duration": 0.176,
        "velocity": 0.58,
        "hand": "left"
      },
      {
        "midi": 42,
        "time": 164.294,
        "duration": 0.176,
        "velocity": 0.51,
        "hand": "left"
      },
      {
        "midi": 35,
        "time": 164.647,
        "duration": 0.176,
        "velocity": 0.73,
        "hand": "left"
      },
      {
        "midi": 38,
        "time": 164.647,
        "duration": 0.529,
        "velocity": 0.86,
        "hand": "left"
      },
      {
        "midi": 42,
        "time": 164.647,
        "duration": 0.176,
        "velocity": 0.65,
        "hand": "left"
      },
      {
        "midi": 50,
        "time": 164.647,
        "duration": 0.529,
        "velocity": 0.79,
        "hand": "left"
      },
      {
        "midi": 62,
        "time": 164.647,
        "duration": 0.529,
        "velocity": 0.79,
        "hand": "right"
      },
      {
        "midi": 66,
        "time": 164.647,
        "duration": 0.529,
        "velocity": 0.83,
        "hand": "right"
      },
      {
        "midi": 69,
        "time": 164.647,
        "duration": 0.529,
        "velocity": 0.83,
        "hand": "right"
      },
      {
        "midi": 42,
        "time": 165,
        "duration": 0.176,
        "velocity": 0.51,
        "hand": "left"
      },
      {
        "midi": 37,
        "time": 165.353,
        "duration": 0.176,
        "velocity": 0.73,
        "hand": "left"
      },
      {
        "midi": 42,
        "time": 165.353,
        "duration": 0.176,
        "velocity": 0.58,
        "hand": "left"
      },
      {
        "midi": 35,
        "time": 165.706,
        "duration": 0.176,
        "velocity": 0.58,
        "hand": "left"
      },
      {
        "midi": 42,
        "time": 165.706,
        "duration": 0.176,
        "velocity": 0.51,
        "hand": "left"
      },
      {
        "midi": 35,
        "time": 166.059,
        "duration": 0.176,
        "velocity": 0.73,
        "hand": "left"
      },
      {
        "midi": 42,
        "time": 166.059,
        "duration": 0.176,
        "velocity": 0.65,
        "hand": "left"
      },
      {
        "midi": 43,
        "time": 166.059,
        "duration": 0.529,
        "velocity": 0.86,
        "hand": "left"
      },
      {
        "midi": 50,
        "time": 166.059,
        "duration": 0.529,
        "velocity": 0.86,
        "hand": "left"
      },
      {
        "midi": 55,
        "time": 166.059,
        "duration": 0.529,
        "velocity": 0.79,
        "hand": "left"
      },
      {
        "midi": 62,
        "time": 166.059,
        "duration": 0.529,
        "velocity": 0.79,
        "hand": "right"
      },
      {
        "midi": 67,
        "time": 166.059,
        "duration": 0.529,
        "velocity": 0.83,
        "hand": "right"
      },
      {
        "midi": 71,
        "time": 166.059,
        "duration": 0.529,
        "velocity": 0.83,
        "hand": "right"
      },
      {
        "midi": 42,
        "time": 166.412,
        "duration": 0.176,
        "velocity": 0.51,
        "hand": "left"
      },
      {
        "midi": 37,
        "time": 166.765,
        "duration": 0.176,
        "velocity": 0.73,
        "hand": "left"
      },
      {
        "midi": 42,
        "time": 166.765,
        "duration": 0.176,
        "velocity": 0.58,
        "hand": "left"
      },
      {
        "midi": 43,
        "time": 166.765,
        "duration": 0.353,
        "velocity": 0.86,
        "hand": "left"
      },
      {
        "midi": 50,
        "time": 166.765,
        "duration": 0.353,
        "velocity": 0.86,
        "hand": "left"
      },
      {
        "midi": 55,
        "time": 166.765,
        "duration": 0.353,
        "velocity": 0.79,
        "hand": "left"
      },
      {
        "midi": 62,
        "time": 166.765,
        "duration": 0.353,
        "velocity": 0.79,
        "hand": "right"
      },
      {
        "midi": 67,
        "time": 166.765,
        "duration": 0.353,
        "velocity": 0.83,
        "hand": "right"
      },
      {
        "midi": 71,
        "time": 166.765,
        "duration": 0.353,
        "velocity": 0.83,
        "hand": "right"
      },
      {
        "midi": 35,
        "time": 167.118,
        "duration": 0.176,
        "velocity": 0.58,
        "hand": "left"
      },
      {
        "midi": 42,
        "time": 167.118,
        "duration": 0.176,
        "velocity": 0.51,
        "hand": "left"
      },
      {
        "midi": 43,
        "time": 167.294,
        "duration": 0.176,
        "velocity": 0.86,
        "hand": "left"
      },
      {
        "midi": 50,
        "time": 167.294,
        "duration": 0.176,
        "velocity": 0.86,
        "hand": "left"
      },
      {
        "midi": 55,
        "time": 167.294,
        "duration": 0.176,
        "velocity": 0.79,
        "hand": "left"
      },
      {
        "midi": 62,
        "time": 167.294,
        "duration": 0.176,
        "velocity": 0.79,
        "hand": "right"
      },
      {
        "midi": 67,
        "time": 167.294,
        "duration": 0.176,
        "velocity": 0.83,
        "hand": "right"
      },
      {
        "midi": 71,
        "time": 167.294,
        "duration": 0.176,
        "velocity": 0.83,
        "hand": "right"
      },
      {
        "midi": 35,
        "time": 167.471,
        "duration": 0.176,
        "velocity": 0.73,
        "hand": "left"
      },
      {
        "midi": 40,
        "time": 167.471,
        "duration": 0.176,
        "velocity": 0.86,
        "hand": "left"
      },
      {
        "midi": 42,
        "time": 167.471,
        "duration": 0.176,
        "velocity": 0.65,
        "hand": "left"
      },
      {
        "midi": 50,
        "time": 167.471,
        "duration": 0.176,
        "velocity": 0.86,
        "hand": "left"
      },
      {
        "midi": 52,
        "time": 167.471,
        "duration": 0.176,
        "velocity": 0.79,
        "hand": "left"
      },
      {
        "midi": 62,
        "time": 167.471,
        "duration": 0.176,
        "velocity": 0.79,
        "hand": "right"
      },
      {
        "midi": 68,
        "time": 167.471,
        "duration": 0.176,
        "velocity": 0.83,
        "hand": "right"
      },
      {
        "midi": 71,
        "time": 167.471,
        "duration": 0.176,
        "velocity": 0.83,
        "hand": "right"
      },
      {
        "midi": 40,
        "time": 167.824,
        "duration": 0.176,
        "velocity": 0.86,
        "hand": "left"
      },
      {
        "midi": 42,
        "time": 167.824,
        "duration": 0.176,
        "velocity": 0.51,
        "hand": "left"
      },
      {
        "midi": 47,
        "time": 167.824,
        "duration": 0.176,
        "velocity": 0.86,
        "hand": "left"
      },
      {
        "midi": 52,
        "time": 167.824,
        "duration": 0.176,
        "velocity": 0.79,
        "hand": "left"
      },
      {
        "midi": 59,
        "time": 167.824,
        "duration": 0.176,
        "velocity": 0.79,
        "hand": "left"
      },
      {
        "midi": 68,
        "time": 167.824,
        "duration": 0.176,
        "velocity": 0.83,
        "hand": "right"
      },
      {
        "midi": 74,
        "time": 167.824,
        "duration": 0.176,
        "velocity": 0.83,
        "hand": "right"
      },
      {
        "midi": 37,
        "time": 168.176,
        "duration": 0.176,
        "velocity": 0.73,
        "hand": "left"
      },
      {
        "midi": 40,
        "time": 168.176,
        "duration": 0.176,
        "velocity": 0.86,
        "hand": "left"
      },
      {
        "midi": 42,
        "time": 168.176,
        "duration": 0.176,
        "velocity": 0.58,
        "hand": "left"
      },
      {
        "midi": 45,
        "time": 168.176,
        "duration": 0.176,
        "velocity": 0.86,
        "hand": "left"
      },
      {
        "midi": 52,
        "time": 168.176,
        "duration": 0.176,
        "velocity": 0.79,
        "hand": "left"
      },
      {
        "midi": 57,
        "time": 168.176,
        "duration": 0.176,
        "velocity": 0.79,
        "hand": "left"
      },
      {
        "midi": 64,
        "time": 168.176,
        "duration": 0.176,
        "velocity": 0.83,
        "hand": "right"
      },
      {
        "midi": 73,
        "time": 168.176,
        "duration": 0.176,
        "velocity": 0.83,
        "hand": "right"
      },
      {
        "midi": 35,
        "time": 168.529,
        "duration": 0.176,
        "velocity": 0.58,
        "hand": "left"
      },
      {
        "midi": 40,
        "time": 168.529,
        "duration": 0.176,
        "velocity": 0.86,
        "hand": "left"
      },
      {
        "midi": 42,
        "time": 168.529,
        "duration": 0.176,
        "velocity": 0.51,
        "hand": "left"
      },
      {
        "midi": 44,
        "time": 168.529,
        "duration": 0.176,
        "velocity": 0.86,
        "hand": "left"
      },
      {
        "midi": 52,
        "time": 168.529,
        "duration": 0.176,
        "velocity": 0.79,
        "hand": "left"
      },
      {
        "midi": 56,
        "time": 168.529,
        "duration": 0.176,
        "velocity": 0.79,
        "hand": "left"
      },
      {
        "midi": 62,
        "time": 168.529,
        "duration": 0.176,
        "velocity": 0.83,
        "hand": "right"
      },
      {
        "midi": 71,
        "time": 168.529,
        "duration": 0.176,
        "velocity": 0.83,
        "hand": "right"
      },
      {
        "midi": 33,
        "time": 168.882,
        "duration": 1.412,
        "velocity": 0.86,
        "hand": "left"
      },
      {
        "midi": 35,
        "time": 168.882,
        "duration": 0.176,
        "velocity": 0.73,
        "hand": "left"
      },
      {
        "midi": 42,
        "time": 168.882,
        "duration": 0.176,
        "velocity": 0.65,
        "hand": "left"
      },
      {
        "midi": 45,
        "time": 168.882,
        "duration": 1.412,
        "velocity": 0.79,
        "hand": "left"
      },
      {
        "midi": 57,
        "time": 168.882,
        "duration": 1.412,
        "velocity": 0.79,
        "hand": "left"
      },
      {
        "midi": 61,
        "time": 168.882,
        "duration": 1.412,
        "velocity": 0.83,
        "hand": "right"
      },
      {
        "midi": 69,
        "time": 168.882,
        "duration": 0.882,
        "velocity": 0.83,
        "hand": "right"
      },
      {
        "midi": 69,
        "time": 168.882,
        "duration": 1.412,
        "velocity": 0.86,
        "hand": "right"
      },
      {
        "midi": 42,
        "time": 169.235,
        "duration": 0.176,
        "velocity": 0.51,
        "hand": "left"
      },
      {
        "midi": 37,
        "time": 169.588,
        "duration": 0.176,
        "velocity": 0.73,
        "hand": "left"
      },
      {
        "midi": 42,
        "time": 169.588,
        "duration": 0.176,
        "velocity": 0.58,
        "hand": "left"
      },
      {
        "midi": 35,
        "time": 169.941,
        "duration": 0.176,
        "velocity": 0.58,
        "hand": "left"
      },
      {
        "midi": 42,
        "time": 169.941,
        "duration": 0.176,
        "velocity": 0.51,
        "hand": "left"
      },
      {
        "midi": 35,
        "time": 170.294,
        "duration": 0.176,
        "velocity": 0.73,
        "hand": "left"
      },
      {
        "midi": 42,
        "time": 170.294,
        "duration": 0.176,
        "velocity": 0.65,
        "hand": "left"
      },
      {
        "midi": 67,
        "time": 170.294,
        "duration": 0.529,
        "velocity": 0.83,
        "hand": "right"
      },
      {
        "midi": 42,
        "time": 170.647,
        "duration": 0.176,
        "velocity": 0.51,
        "hand": "left"
      },
      {
        "midi": 37,
        "time": 171,
        "duration": 0.176,
        "velocity": 0.73,
        "hand": "left"
      },
      {
        "midi": 42,
        "time": 171,
        "duration": 0.176,
        "velocity": 0.58,
        "hand": "left"
      },
      {
        "midi": 35,
        "time": 171.353,
        "duration": 0.176,
        "velocity": 0.58,
        "hand": "left"
      },
      {
        "midi": 42,
        "time": 171.353,
        "duration": 0.176,
        "velocity": 0.51,
        "hand": "left"
      },
      {
        "midi": 35,
        "time": 171.706,
        "duration": 0.176,
        "velocity": 0.73,
        "hand": "left"
      },
      {
        "midi": 38,
        "time": 171.706,
        "duration": 0.529,
        "velocity": 0.86,
        "hand": "left"
      },
      {
        "midi": 42,
        "time": 171.706,
        "duration": 0.176,
        "velocity": 0.65,
        "hand": "left"
      },
      {
        "midi": 45,
        "time": 171.706,
        "duration": 0.529,
        "velocity": 0.86,
        "hand": "left"
      },
      {
        "midi": 50,
        "time": 171.706,
        "duration": 0.529,
        "velocity": 0.79,
        "hand": "left"
      },
      {
        "midi": 57,
        "time": 171.706,
        "duration": 0.529,
        "velocity": 0.79,
        "hand": "left"
      },
      {
        "midi": 62,
        "time": 171.706,
        "duration": 0.529,
        "velocity": 0.83,
        "hand": "right"
      },
      {
        "midi": 66,
        "time": 171.706,
        "duration": 0.529,
        "velocity": 0.83,
        "hand": "right"
      },
      {
        "midi": 42,
        "time": 172.059,
        "duration": 0.176,
        "velocity": 0.51,
        "hand": "left"
      },
      {
        "midi": 37,
        "time": 172.412,
        "duration": 0.176,
        "velocity": 0.73,
        "hand": "left"
      },
      {
        "midi": 38,
        "time": 172.412,
        "duration": 0.353,
        "velocity": 0.86,
        "hand": "left"
      },
      {
        "midi": 42,
        "time": 172.412,
        "duration": 0.176,
        "velocity": 0.58,
        "hand": "left"
      },
      {
        "midi": 45,
        "time": 172.412,
        "duration": 0.353,
        "velocity": 0.86,
        "hand": "left"
      },
      {
        "midi": 50,
        "time": 172.412,
        "duration": 0.353,
        "velocity": 0.79,
        "hand": "left"
      },
      {
        "midi": 57,
        "time": 172.412,
        "duration": 0.353,
        "velocity": 0.79,
        "hand": "left"
      },
      {
        "midi": 62,
        "time": 172.412,
        "duration": 0.353,
        "velocity": 0.83,
        "hand": "right"
      },
      {
        "midi": 66,
        "time": 172.412,
        "duration": 0.353,
        "velocity": 0.83,
        "hand": "right"
      },
      {
        "midi": 35,
        "time": 172.765,
        "duration": 0.176,
        "velocity": 0.58,
        "hand": "left"
      },
      {
        "midi": 42,
        "time": 172.765,
        "duration": 0.176,
        "velocity": 0.51,
        "hand": "left"
      },
      {
        "midi": 38,
        "time": 172.941,
        "duration": 0.176,
        "velocity": 0.86,
        "hand": "left"
      },
      {
        "midi": 44,
        "time": 172.941,
        "duration": 0.176,
        "velocity": 0.86,
        "hand": "left"
      },
      {
        "midi": 50,
        "time": 172.941,
        "duration": 0.176,
        "velocity": 0.79,
        "hand": "left"
      },
      {
        "midi": 56,
        "time": 172.941,
        "duration": 0.176,
        "velocity": 0.79,
        "hand": "left"
      },
      {
        "midi": 62,
        "time": 172.941,
        "duration": 0.176,
        "velocity": 0.83,
        "hand": "right"
      },
      {
        "midi": 65,
        "time": 172.941,
        "duration": 0.176,
        "velocity": 0.83,
        "hand": "right"
      },
      {
        "midi": 35,
        "time": 173.118,
        "duration": 0.176,
        "velocity": 0.73,
        "hand": "left"
      },
      {
        "midi": 38,
        "time": 173.118,
        "duration": 0.529,
        "velocity": 0.86,
        "hand": "left"
      },
      {
        "midi": 42,
        "time": 173.118,
        "duration": 0.176,
        "velocity": 0.65,
        "hand": "left"
      },
      {
        "midi": 45,
        "time": 173.118,
        "duration": 0.529,
        "velocity": 0.86,
        "hand": "left"
      },
      {
        "midi": 50,
        "time": 173.118,
        "duration": 0.529,
        "velocity": 0.79,
        "hand": "left"
      },
      {
        "midi": 57,
        "time": 173.118,
        "duration": 0.529,
        "velocity": 0.79,
        "hand": "left"
      },
      {
        "midi": 62,
        "time": 173.118,
        "duration": 0.529,
        "velocity": 0.83,
        "hand": "right"
      },
      {
        "midi": 66,
        "time": 173.118,
        "duration": 0.529,
        "velocity": 0.83,
        "hand": "right"
      },
      {
        "midi": 42,
        "time": 173.471,
        "duration": 0.176,
        "velocity": 0.51,
        "hand": "left"
      },
      {
        "midi": 37,
        "time": 173.824,
        "duration": 0.176,
        "velocity": 0.73,
        "hand": "left"
      },
      {
        "midi": 38,
        "time": 173.824,
        "duration": 0.353,
        "velocity": 0.86,
        "hand": "left"
      },
      {
        "midi": 42,
        "time": 173.824,
        "duration": 0.176,
        "velocity": 0.58,
        "hand": "left"
      },
      {
        "midi": 45,
        "time": 173.824,
        "duration": 0.353,
        "velocity": 0.86,
        "hand": "left"
      },
      {
        "midi": 50,
        "time": 173.824,
        "duration": 0.353,
        "velocity": 0.79,
        "hand": "left"
      },
      {
        "midi": 57,
        "time": 173.824,
        "duration": 0.353,
        "velocity": 0.79,
        "hand": "left"
      },
      {
        "midi": 62,
        "time": 173.824,
        "duration": 0.353,
        "velocity": 0.83,
        "hand": "right"
      },
      {
        "midi": 66,
        "time": 173.824,
        "duration": 0.353,
        "velocity": 0.83,
        "hand": "right"
      },
      {
        "midi": 35,
        "time": 174.176,
        "duration": 0.176,
        "velocity": 0.58,
        "hand": "left"
      },
      {
        "midi": 42,
        "time": 174.176,
        "duration": 0.176,
        "velocity": 0.51,
        "hand": "left"
      },
      {
        "midi": 38,
        "time": 174.353,
        "duration": 0.176,
        "velocity": 0.86,
        "hand": "left"
      },
      {
        "midi": 45,
        "time": 174.353,
        "duration": 0.176,
        "velocity": 0.86,
        "hand": "left"
      },
      {
        "midi": 50,
        "time": 174.353,
        "duration": 0.176,
        "velocity": 0.79,
        "hand": "left"
      },
      {
        "midi": 57,
        "time": 174.353,
        "duration": 0.176,
        "velocity": 0.79,
        "hand": "left"
      },
      {
        "midi": 64,
        "time": 174.353,
        "duration": 0.176,
        "velocity": 0.83,
        "hand": "right"
      },
      {
        "midi": 67,
        "time": 174.353,
        "duration": 0.176,
        "velocity": 0.83,
        "hand": "right"
      },
      {
        "midi": 35,
        "time": 174.529,
        "duration": 0.176,
        "velocity": 0.73,
        "hand": "left"
      },
      {
        "midi": 38,
        "time": 174.529,
        "duration": 0.882,
        "velocity": 0.86,
        "hand": "left"
      },
      {
        "midi": 42,
        "time": 174.529,
        "duration": 0.176,
        "velocity": 0.65,
        "hand": "left"
      },
      {
        "midi": 50,
        "time": 174.529,
        "duration": 0.882,
        "velocity": 0.79,
        "hand": "left"
      },
      {
        "midi": 62,
        "time": 174.529,
        "duration": 0.882,
        "velocity": 0.79,
        "hand": "right"
      },
      {
        "midi": 66,
        "time": 174.529,
        "duration": 0.882,
        "velocity": 0.83,
        "hand": "right"
      },
      {
        "midi": 69,
        "time": 174.529,
        "duration": 0.882,
        "velocity": 0.83,
        "hand": "right"
      },
      {
        "midi": 42,
        "time": 174.882,
        "duration": 0.176,
        "velocity": 0.51,
        "hand": "left"
      },
      {
        "midi": 37,
        "time": 175.059,
        "duration": 0.176,
        "velocity": 0.73,
        "hand": "left"
      },
      {
        "midi": 42,
        "time": 175.059,
        "duration": 0.176,
        "velocity": 0.58,
        "hand": "left"
      },
      {
        "midi": 35,
        "time": 175.412,
        "duration": 0.176,
        "velocity": 0.58,
        "hand": "left"
      },
      {
        "midi": 42,
        "time": 175.412,
        "duration": 0.176,
        "velocity": 0.51,
        "hand": "left"
      },
      {
        "midi": 35,
        "time": 175.765,
        "duration": 0.176,
        "velocity": 0.73,
        "hand": "left"
      },
      {
        "midi": 38,
        "time": 175.765,
        "duration": 0.529,
        "velocity": 0.86,
        "hand": "left"
      },
      {
        "midi": 42,
        "time": 175.765,
        "duration": 0.176,
        "velocity": 0.65,
        "hand": "left"
      },
      {
        "midi": 50,
        "time": 175.765,
        "duration": 0.529,
        "velocity": 0.79,
        "hand": "left"
      },
      {
        "midi": 62,
        "time": 175.765,
        "duration": 0.529,
        "velocity": 0.79,
        "hand": "right"
      },
      {
        "midi": 66,
        "time": 175.765,
        "duration": 0.529,
        "velocity": 0.83,
        "hand": "right"
      },
      {
        "midi": 69,
        "time": 175.765,
        "duration": 0.529,
        "velocity": 0.83,
        "hand": "right"
      },
      {
        "midi": 42,
        "time": 176.118,
        "duration": 0.176,
        "velocity": 0.51,
        "hand": "left"
      },
      {
        "midi": 37,
        "time": 176.471,
        "duration": 0.176,
        "velocity": 0.73,
        "hand": "left"
      },
      {
        "midi": 38,
        "time": 176.471,
        "duration": 0.353,
        "velocity": 0.86,
        "hand": "left"
      },
      {
        "midi": 42,
        "time": 176.471,
        "duration": 0.176,
        "velocity": 0.58,
        "hand": "left"
      },
      {
        "midi": 45,
        "time": 176.471,
        "duration": 0.353,
        "velocity": 0.86,
        "hand": "left"
      },
      {
        "midi": 50,
        "time": 176.471,
        "duration": 0.353,
        "velocity": 0.79,
        "hand": "left"
      },
      {
        "midi": 57,
        "time": 176.471,
        "duration": 0.353,
        "velocity": 0.79,
        "hand": "left"
      },
      {
        "midi": 66,
        "time": 176.471,
        "duration": 0.353,
        "velocity": 0.83,
        "hand": "right"
      },
      {
        "midi": 69,
        "time": 176.471,
        "duration": 0.353,
        "velocity": 0.83,
        "hand": "right"
      },
      {
        "midi": 35,
        "time": 176.824,
        "duration": 0.176,
        "velocity": 0.58,
        "hand": "left"
      },
      {
        "midi": 42,
        "time": 176.824,
        "duration": 0.176,
        "velocity": 0.51,
        "hand": "left"
      },
      {
        "midi": 38,
        "time": 177,
        "duration": 0.176,
        "velocity": 0.86,
        "hand": "left"
      },
      {
        "midi": 45,
        "time": 177,
        "duration": 0.176,
        "velocity": 0.86,
        "hand": "left"
      },
      {
        "midi": 50,
        "time": 177,
        "duration": 0.176,
        "velocity": 0.79,
        "hand": "left"
      },
      {
        "midi": 57,
        "time": 177,
        "duration": 0.176,
        "velocity": 0.79,
        "hand": "left"
      },
      {
        "midi": 62,
        "time": 177,
        "duration": 0.176,
        "velocity": 0.83,
        "hand": "right"
      },
      {
        "midi": 66,
        "time": 177,
        "duration": 0.176,
        "velocity": 0.83,
        "hand": "right"
      },
      {
        "midi": 35,
        "time": 177.176,
        "duration": 0.176,
        "velocity": 0.73,
        "hand": "left"
      },
      {
        "midi": 42,
        "time": 177.176,
        "duration": 0.176,
        "velocity": 0.65,
        "hand": "left"
      },
      {
        "midi": 43,
        "time": 177.176,
        "duration": 0.529,
        "velocity": 0.86,
        "hand": "left"
      },
      {
        "midi": 47,
        "time": 177.176,
        "duration": 0.529,
        "velocity": 0.86,
        "hand": "left"
      },
      {
        "midi": 55,
        "time": 177.176,
        "duration": 0.529,
        "velocity": 0.79,
        "hand": "left"
      },
      {
        "midi": 59,
        "time": 177.176,
        "duration": 0.529,
        "velocity": 0.79,
        "hand": "left"
      },
      {
        "midi": 62,
        "time": 177.176,
        "duration": 0.529,
        "velocity": 0.83,
        "hand": "right"
      },
      {
        "midi": 64,
        "time": 177.176,
        "duration": 0.529,
        "velocity": 0.83,
        "hand": "right"
      },
      {
        "midi": 42,
        "time": 177.529,
        "duration": 0.176,
        "velocity": 0.51,
        "hand": "left"
      },
      {
        "midi": 37,
        "time": 177.882,
        "duration": 0.176,
        "velocity": 0.73,
        "hand": "left"
      },
      {
        "midi": 42,
        "time": 177.882,
        "duration": 0.176,
        "velocity": 0.58,
        "hand": "left"
      },
      {
        "midi": 43,
        "time": 177.882,
        "duration": 0.353,
        "velocity": 0.86,
        "hand": "left"
      },
      {
        "midi": 47,
        "time": 177.882,
        "duration": 0.353,
        "velocity": 0.86,
        "hand": "left"
      },
      {
        "midi": 55,
        "time": 177.882,
        "duration": 0.353,
        "velocity": 0.79,
        "hand": "left"
      },
      {
        "midi": 59,
        "time": 177.882,
        "duration": 0.353,
        "velocity": 0.79,
        "hand": "left"
      },
      {
        "midi": 62,
        "time": 177.882,
        "duration": 0.353,
        "velocity": 0.83,
        "hand": "right"
      },
      {
        "midi": 64,
        "time": 178.059,
        "duration": 0.353,
        "velocity": 0.83,
        "hand": "right"
      },
      {
        "midi": 35,
        "time": 178.235,
        "duration": 0.176,
        "velocity": 0.58,
        "hand": "left"
      },
      {
        "midi": 42,
        "time": 178.235,
        "duration": 0.176,
        "velocity": 0.51,
        "hand": "left"
      },
      {
        "midi": 43,
        "time": 178.412,
        "duration": 0.176,
        "velocity": 0.86,
        "hand": "left"
      },
      {
        "midi": 47,
        "time": 178.412,
        "duration": 0.176,
        "velocity": 0.86,
        "hand": "left"
      },
      {
        "midi": 55,
        "time": 178.412,
        "duration": 0.176,
        "velocity": 0.79,
        "hand": "left"
      },
      {
        "midi": 59,
        "time": 178.412,
        "duration": 0.176,
        "velocity": 0.79,
        "hand": "left"
      },
      {
        "midi": 62,
        "time": 178.412,
        "duration": 0.176,
        "velocity": 0.83,
        "hand": "right"
      },
      {
        "midi": 64,
        "time": 178.412,
        "duration": 0.176,
        "velocity": 0.83,
        "hand": "right"
      },
      {
        "midi": 35,
        "time": 178.588,
        "duration": 0.176,
        "velocity": 0.73,
        "hand": "left"
      },
      {
        "midi": 42,
        "time": 178.588,
        "duration": 0.176,
        "velocity": 0.65,
        "hand": "left"
      },
      {
        "midi": 45,
        "time": 178.588,
        "duration": 0.529,
        "velocity": 0.86,
        "hand": "left"
      },
      {
        "midi": 57,
        "time": 178.588,
        "duration": 0.529,
        "velocity": 0.79,
        "hand": "left"
      },
      {
        "midi": 61,
        "time": 178.588,
        "duration": 0.529,
        "velocity": 0.83,
        "hand": "right"
      },
      {
        "midi": 64,
        "time": 178.588,
        "duration": 0.529,
        "velocity": 0.83,
        "hand": "right"
      },
      {
        "midi": 35,
        "time": 178.941,
        "duration": 0.176,
        "velocity": 0.65,
        "hand": "left"
      },
      {
        "midi": 42,
        "time": 178.941,
        "duration": 0.176,
        "velocity": 0.51,
        "hand": "left"
      },
      {
        "midi": 33,
        "time": 179.294,
        "duration": 0.353,
        "velocity": 0.86,
        "hand": "left"
      },
      {
        "midi": 38,
        "time": 179.294,
        "duration": 0.176,
        "velocity": 0.69,
        "hand": "left"
      },
      {
        "midi": 42,
        "time": 179.294,
        "duration": 0.176,
        "velocity": 0.58,
        "hand": "left"
      },
      {
        "midi": 45,
        "time": 179.294,
        "duration": 0.353,
        "velocity": 0.79,
        "hand": "left"
      },
      {
        "midi": 57,
        "time": 179.294,
        "duration": 0.353,
        "velocity": 0.79,
        "hand": "left"
      },
      {
        "midi": 61,
        "time": 179.294,
        "duration": 0.353,
        "velocity": 0.83,
        "hand": "right"
      },
      {
        "midi": 66,
        "time": 179.294,
        "duration": 0.353,
        "velocity": 0.83,
        "hand": "right"
      },
      {
        "midi": 35,
        "time": 179.647,
        "duration": 0.176,
        "velocity": 0.58,
        "hand": "left"
      },
      {
        "midi": 38,
        "time": 179.647,
        "duration": 0.176,
        "velocity": 0.83,
        "hand": "left"
      },
      {
        "midi": 46,
        "time": 179.647,
        "duration": 0.176,
        "velocity": 0.65,
        "hand": "left"
      },
      {
        "midi": 33,
        "time": 179.824,
        "duration": 0.176,
        "velocity": 0.86,
        "hand": "left"
      },
      {
        "midi": 43,
        "time": 179.824,
        "duration": 0.176,
        "velocity": 0.86,
        "hand": "left"
      },
      {
        "midi": 45,
        "time": 179.824,
        "duration": 0.176,
        "velocity": 0.79,
        "hand": "left"
      },
      {
        "midi": 55,
        "time": 179.824,
        "duration": 0.176,
        "velocity": 0.79,
        "hand": "left"
      },
      {
        "midi": 61,
        "time": 179.824,
        "duration": 0.176,
        "velocity": 0.83,
        "hand": "right"
      },
      {
        "midi": 64,
        "time": 179.824,
        "duration": 0.176,
        "velocity": 0.83,
        "hand": "right"
      },
      {
        "midi": 35,
        "time": 180,
        "duration": 0.176,
        "velocity": 0.73,
        "hand": "left"
      },
      {
        "midi": 38,
        "time": 180,
        "duration": 1.412,
        "velocity": 0.86,
        "hand": "left"
      },
      {
        "midi": 42,
        "time": 180,
        "duration": 1.412,
        "velocity": 0.86,
        "hand": "left"
      },
      {
        "midi": 42,
        "time": 180,
        "duration": 0.176,
        "velocity": 0.65,
        "hand": "left"
      },
      {
        "midi": 50,
        "time": 180,
        "duration": 1.412,
        "velocity": 0.79,
        "hand": "left"
      },
      {
        "midi": 54,
        "time": 180,
        "duration": 1.412,
        "velocity": 0.79,
        "hand": "left"
      },
      {
        "midi": 62,
        "time": 180,
        "duration": 1.412,
        "velocity": 0.83,
        "hand": "right"
      },
      {
        "midi": 42,
        "time": 180.353,
        "duration": 0.176,
        "velocity": 0.51,
        "hand": "left"
      },
      {
        "midi": 37,
        "time": 180.706,
        "duration": 0.176,
        "velocity": 0.73,
        "hand": "left"
      },
      {
        "midi": 42,
        "time": 180.706,
        "duration": 0.176,
        "velocity": 0.58,
        "hand": "left"
      },
      {
        "midi": 35,
        "time": 181.059,
        "duration": 0.176,
        "velocity": 0.58,
        "hand": "left"
      },
      {
        "midi": 42,
        "time": 181.059,
        "duration": 0.176,
        "velocity": 0.51,
        "hand": "left"
      },
      {
        "midi": 35,
        "time": 181.412,
        "duration": 0.176,
        "velocity": 0.73,
        "hand": "left"
      },
      {
        "midi": 42,
        "time": 181.412,
        "duration": 0.176,
        "velocity": 0.65,
        "hand": "left"
      },
      {
        "midi": 35,
        "time": 181.765,
        "duration": 0.176,
        "velocity": 0.65,
        "hand": "left"
      },
      {
        "midi": 42,
        "time": 181.765,
        "duration": 0.176,
        "velocity": 0.51,
        "hand": "left"
      },
      {
        "midi": 38,
        "time": 182.118,
        "duration": 0.176,
        "velocity": 0.69,
        "hand": "left"
      },
      {
        "midi": 42,
        "time": 182.118,
        "duration": 0.176,
        "velocity": 0.58,
        "hand": "left"
      },
      {
        "midi": 35,
        "time": 182.471,
        "duration": 0.176,
        "velocity": 0.58,
        "hand": "left"
      },
      {
        "midi": 38,
        "time": 182.471,
        "duration": 0.176,
        "velocity": 0.83,
        "hand": "left"
      },
      {
        "midi": 46,
        "time": 182.471,
        "duration": 0.176,
        "velocity": 0.65,
        "hand": "left"
      },
      {
        "midi": 35,
        "time": 182.824,
        "duration": 0.176,
        "velocity": 0.73,
        "hand": "left"
      },
      {
        "midi": 38,
        "time": 182.824,
        "duration": 0.176,
        "velocity": 0.86,
        "hand": "left"
      },
      {
        "midi": 42,
        "time": 182.824,
        "duration": 0.176,
        "velocity": 0.65,
        "hand": "left"
      },
      {
        "midi": 49,
        "time": 182.824,
        "duration": 0.176,
        "velocity": 0.65,
        "hand": "left"
      },
      {
        "midi": 50,
        "time": 182.824,
        "duration": 0.176,
        "velocity": 0.79,
        "hand": "left"
      },
      {
        "midi": 62,
        "time": 182.824,
        "duration": 0.176,
        "velocity": 0.79,
        "hand": "right"
      },
      {
        "midi": 66,
        "time": 182.824,
        "duration": 0.176,
        "velocity": 0.83,
        "hand": "right"
      },
      {
        "midi": 69,
        "time": 182.824,
        "duration": 1.588,
        "velocity": 0.83,
        "hand": "right"
      },
      {
        "midi": 38,
        "time": 183,
        "duration": 0.353,
        "velocity": 0.86,
        "hand": "left"
      },
      {
        "midi": 50,
        "time": 183,
        "duration": 0.353,
        "velocity": 0.79,
        "hand": "left"
      },
      {
        "midi": 62,
        "time": 183,
        "duration": 0.353,
        "velocity": 0.79,
        "hand": "right"
      },
      {
        "midi": 66,
        "time": 183,
        "duration": 0.353,
        "velocity": 0.83,
        "hand": "right"
      },
      {
        "midi": 42,
        "time": 183.176,
        "duration": 0.176,
        "velocity": 0.51,
        "hand": "left"
      },
      {
        "midi": 42,
        "time": 183.353,
        "duration": 0.176,
        "velocity": 0.43,
        "hand": "left"
      },
      {
        "midi": 38,
        "time": 183.529,
        "duration": 0.353,
        "velocity": 0.86,
        "hand": "left"
      },
      {
        "midi": 38,
        "time": 183.529,
        "duration": 0.176,
        "velocity": 0.73,
        "hand": "left"
      },
      {
        "midi": 42,
        "time": 183.529,
        "duration": 0.176,
        "velocity": 0.58,
        "hand": "left"
      },
      {
        "midi": 50,
        "time": 183.529,
        "duration": 0.353,
        "velocity": 0.79,
        "hand": "left"
      },
      {
        "midi": 62,
        "time": 183.529,
        "duration": 0.353,
        "velocity": 0.79,
        "hand": "right"
      },
      {
        "midi": 66,
        "time": 183.529,
        "duration": 0.353,
        "velocity": 0.83,
        "hand": "right"
      },
      {
        "midi": 42,
        "time": 183.882,
        "duration": 0.176,
        "velocity": 0.51,
        "hand": "left"
      },
      {
        "midi": 35,
        "time": 184.059,
        "duration": 0.176,
        "velocity": 0.58,
        "hand": "left"
      },
      {
        "midi": 38,
        "time": 184.059,
        "duration": 0.176,
        "velocity": 0.86,
        "hand": "left"
      },
      {
        "midi": 42,
        "time": 184.059,
        "duration": 0.176,
        "velocity": 0.43,
        "hand": "left"
      },
      {
        "midi": 50,
        "time": 184.059,
        "duration": 0.176,
        "velocity": 0.79,
        "hand": "left"
      },
      {
        "midi": 62,
        "time": 184.059,
        "duration": 0.176,
        "velocity": 0.79,
        "hand": "right"
      },
      {
        "midi": 66,
        "time": 184.059,
        "duration": 0.176,
        "velocity": 0.83,
        "hand": "right"
      },
      {
        "midi": 35,
        "time": 184.235,
        "duration": 0.176,
        "velocity": 0.73,
        "hand": "left"
      },
      {
        "midi": 38,
        "time": 184.235,
        "duration": 0.529,
        "velocity": 0.86,
        "hand": "left"
      },
      {
        "midi": 42,
        "time": 184.235,
        "duration": 0.176,
        "velocity": 0.65,
        "hand": "left"
      },
      {
        "midi": 50,
        "time": 184.235,
        "duration": 0.529,
        "velocity": 0.79,
        "hand": "left"
      },
      {
        "midi": 62,
        "time": 184.235,
        "duration": 0.529,
        "velocity": 0.79,
        "hand": "right"
      },
      {
        "midi": 66,
        "time": 184.235,
        "duration": 0.529,
        "velocity": 0.83,
        "hand": "right"
      },
      {
        "midi": 69,
        "time": 184.235,
        "duration": 0.353,
        "velocity": 0.83,
        "hand": "right"
      },
      {
        "midi": 42,
        "time": 184.588,
        "duration": 0.176,
        "velocity": 0.51,
        "hand": "left"
      },
      {
        "midi": 42,
        "time": 184.765,
        "duration": 0.176,
        "velocity": 0.43,
        "hand": "left"
      },
      {
        "midi": 66,
        "time": 184.765,
        "duration": 0.176,
        "velocity": 0.83,
        "hand": "right"
      },
      {
        "midi": 38,
        "time": 184.941,
        "duration": 0.176,
        "velocity": 0.73,
        "hand": "left"
      },
      {
        "midi": 42,
        "time": 184.941,
        "duration": 0.176,
        "velocity": 0.58,
        "hand": "left"
      },
      {
        "midi": 69,
        "time": 184.941,
        "duration": 0.353,
        "velocity": 0.83,
        "hand": "right"
      },
      {
        "midi": 35,
        "time": 185.294,
        "duration": 0.176,
        "velocity": 0.58,
        "hand": "left"
      },
      {
        "midi": 42,
        "time": 185.294,
        "duration": 0.176,
        "velocity": 0.51,
        "hand": "left"
      },
      {
        "midi": 42,
        "time": 185.471,
        "duration": 0.176,
        "velocity": 0.43,
        "hand": "left"
      },
      {
        "midi": 74,
        "time": 185.471,
        "duration": 0.176,
        "velocity": 0.83,
        "hand": "right"
      },
      {
        "midi": 33,
        "time": 185.647,
        "duration": 0.176,
        "velocity": 0.86,
        "hand": "left"
      },
      {
        "midi": 35,
        "time": 185.647,
        "duration": 0.176,
        "velocity": 0.73,
        "hand": "left"
      },
      {
        "midi": 42,
        "time": 185.647,
        "duration": 0.176,
        "velocity": 0.65,
        "hand": "left"
      },
      {
        "midi": 45,
        "time": 185.647,
        "duration": 0.176,
        "velocity": 0.79,
        "hand": "left"
      },
      {
        "midi": 52,
        "time": 185.647,
        "duration": 0.176,
        "velocity": 0.86,
        "hand": "left"
      },
      {
        "midi": 64,
        "time": 185.647,
        "duration": 0.176,
        "velocity": 0.79,
        "hand": "right"
      },
      {
        "midi": 67,
        "time": 185.647,
        "duration": 0.176,
        "velocity": 0.83,
        "hand": "right"
      },
      {
        "midi": 73,
        "time": 185.647,
        "duration": 1.588,
        "velocity": 0.83,
        "hand": "right"
      },
      {
        "midi": 73,
        "time": 185.647,
        "duration": 0.882,
        "velocity": 0.86,
        "hand": "right"
      },
      {
        "midi": 33,
        "time": 185.824,
        "duration": 0.353,
        "velocity": 0.86,
        "hand": "left"
      },
      {
        "midi": 45,
        "time": 185.824,
        "duration": 0.353,
        "velocity": 0.79,
        "hand": "left"
      },
      {
        "midi": 52,
        "time": 185.824,
        "duration": 0.353,
        "velocity": 0.86,
        "hand": "left"
      },
      {
        "midi": 64,
        "time": 185.824,
        "duration": 0.353,
        "velocity": 0.79,
        "hand": "right"
      },
      {
        "midi": 67,
        "time": 185.824,
        "duration": 0.353,
        "velocity": 0.83,
        "hand": "right"
      },
      {
        "midi": 42,
        "time": 186,
        "duration": 0.176,
        "velocity": 0.51,
        "hand": "left"
      },
      {
        "midi": 42,
        "time": 186.176,
        "duration": 0.176,
        "velocity": 0.43,
        "hand": "left"
      },
      {
        "midi": 33,
        "time": 186.353,
        "duration": 0.353,
        "velocity": 0.86,
        "hand": "left"
      },
      {
        "midi": 38,
        "time": 186.353,
        "duration": 0.176,
        "velocity": 0.73,
        "hand": "left"
      },
      {
        "midi": 42,
        "time": 186.353,
        "duration": 0.176,
        "velocity": 0.58,
        "hand": "left"
      },
      {
        "midi": 45,
        "time": 186.353,
        "duration": 0.353,
        "velocity": 0.79,
        "hand": "left"
      },
      {
        "midi": 52,
        "time": 186.353,
        "duration": 0.353,
        "velocity": 0.86,
        "hand": "left"
      },
      {
        "midi": 64,
        "time": 186.353,
        "duration": 0.353,
        "velocity": 0.79,
        "hand": "right"
      },
      {
        "midi": 67,
        "time": 186.353,
        "duration": 0.353,
        "velocity": 0.83,
        "hand": "right"
      },
      {
        "midi": 42,
        "time": 186.706,
        "duration": 0.176,
        "velocity": 0.51,
        "hand": "left"
      },
      {
        "midi": 33,
        "time": 186.882,
        "duration": 0.176,
        "velocity": 0.86,
        "hand": "left"
      },
      {
        "midi": 35,
        "time": 186.882,
        "duration": 0.176,
        "velocity": 0.58,
        "hand": "left"
      },
      {
        "midi": 42,
        "time": 186.882,
        "duration": 0.176,
        "velocity": 0.43,
        "hand": "left"
      },
      {
        "midi": 45,
        "time": 186.882,
        "duration": 0.176,
        "velocity": 0.79,
        "hand": "left"
      },
      {
        "midi": 52,
        "time": 186.882,
        "duration": 0.176,
        "velocity": 0.86,
        "hand": "left"
      },
      {
        "midi": 64,
        "time": 186.882,
        "duration": 0.176,
        "velocity": 0.79,
        "hand": "right"
      },
      {
        "midi": 67,
        "time": 186.882,
        "duration": 0.176,
        "velocity": 0.83,
        "hand": "right"
      },
      {
        "midi": 33,
        "time": 187.059,
        "duration": 0.529,
        "velocity": 0.86,
        "hand": "left"
      },
      {
        "midi": 35,
        "time": 187.059,
        "duration": 0.176,
        "velocity": 0.73,
        "hand": "left"
      },
      {
        "midi": 42,
        "time": 187.059,
        "duration": 0.176,
        "velocity": 0.65,
        "hand": "left"
      },
      {
        "midi": 45,
        "time": 187.059,
        "duration": 0.529,
        "velocity": 0.79,
        "hand": "left"
      },
      {
        "midi": 52,
        "time": 187.059,
        "duration": 0.529,
        "velocity": 0.86,
        "hand": "left"
      },
      {
        "midi": 64,
        "time": 187.059,
        "duration": 0.529,
        "velocity": 0.79,
        "hand": "right"
      },
      {
        "midi": 67,
        "time": 187.059,
        "duration": 0.529,
        "velocity": 0.83,
        "hand": "right"
      },
      {
        "midi": 73,
        "time": 187.059,
        "duration": 0.529,
        "velocity": 0.83,
        "hand": "right"
      },
      {
        "midi": 35,
        "time": 187.412,
        "duration": 0.176,
        "velocity": 0.58,
        "hand": "left"
      },
      {
        "midi": 42,
        "time": 187.412,
        "duration": 0.176,
        "velocity": 0.51,
        "hand": "left"
      },
      {
        "midi": 42,
        "time": 187.588,
        "duration": 0.176,
        "velocity": 0.43,
        "hand": "left"
      },
      {
        "midi": 38,
        "time": 187.765,
        "duration": 0.176,
        "velocity": 0.73,
        "hand": "left"
      },
      {
        "midi": 42,
        "time": 187.765,
        "duration": 0.176,
        "velocity": 0.58,
        "hand": "left"
      },
      {
        "midi": 35,
        "time": 188.118,
        "duration": 0.176,
        "velocity": 0.58,
        "hand": "left"
      },
      {
        "midi": 42,
        "time": 188.118,
        "duration": 0.176,
        "velocity": 0.51,
        "hand": "left"
      },
      {
        "midi": 42,
        "time": 188.294,
        "duration": 0.176,
        "velocity": 0.43,
        "hand": "left"
      },
      {
        "midi": 35,
        "time": 188.471,
        "duration": 0.176,
        "velocity": 0.73,
        "hand": "left"
      },
      {
        "midi": 42,
        "time": 188.471,
        "duration": 0.176,
        "velocity": 0.65,
        "hand": "left"
      },
      {
        "midi": 45,
        "time": 188.471,
        "duration": 0.176,
        "velocity": 0.86,
        "hand": "left"
      },
      {
        "midi": 49,
        "time": 188.471,
        "duration": 0.176,
        "velocity": 0.86,
        "hand": "left"
      },
      {
        "midi": 57,
        "time": 188.471,
        "duration": 0.176,
        "velocity": 0.79,
        "hand": "left"
      },
      {
        "midi": 61,
        "time": 188.471,
        "duration": 0.176,
        "velocity": 0.79,
        "hand": "right"
      },
      {
        "midi": 64,
        "time": 188.471,
        "duration": 0.176,
        "velocity": 0.83,
        "hand": "right"
      },
      {
        "midi": 67,
        "time": 188.471,
        "duration": 1.588,
        "velocity": 0.83,
        "hand": "right"
      },
      {
        "midi": 45,
        "time": 188.647,
        "duration": 0.353,
        "velocity": 0.86,
        "hand": "left"
      },
      {
        "midi": 49,
        "time": 188.647,
        "duration": 0.353,
        "velocity": 0.86,
        "hand": "left"
      },
      {
        "midi": 57,
        "time": 188.647,
        "duration": 0.353,
        "velocity": 0.79,
        "hand": "left"
      },
      {
        "midi": 61,
        "time": 188.647,
        "duration": 0.353,
        "velocity": 0.79,
        "hand": "right"
      },
      {
        "midi": 64,
        "time": 188.647,
        "duration": 0.353,
        "velocity": 0.83,
        "hand": "right"
      },
      {
        "midi": 42,
        "time": 188.824,
        "duration": 0.176,
        "velocity": 0.73,
        "hand": "left"
      },
      {
        "midi": 42,
        "time": 189,
        "duration": 0.176,
        "velocity": 0.43,
        "hand": "left"
      },
      {
        "midi": 38,
        "time": 189.176,
        "duration": 0.176,
        "velocity": 0.73,
        "hand": "left"
      },
      {
        "midi": 42,
        "time": 189.176,
        "duration": 0.176,
        "velocity": 0.58,
        "hand": "left"
      },
      {
        "midi": 45,
        "time": 189.176,
        "duration": 0.353,
        "velocity": 0.86,
        "hand": "left"
      },
      {
        "midi": 49,
        "time": 189.176,
        "duration": 0.353,
        "velocity": 0.86,
        "hand": "left"
      },
      {
        "midi": 57,
        "time": 189.176,
        "duration": 0.353,
        "velocity": 0.79,
        "hand": "left"
      },
      {
        "midi": 61,
        "time": 189.176,
        "duration": 0.353,
        "velocity": 0.79,
        "hand": "right"
      },
      {
        "midi": 64,
        "time": 189.176,
        "duration": 0.353,
        "velocity": 0.83,
        "hand": "right"
      },
      {
        "midi": 42,
        "time": 189.529,
        "duration": 0.176,
        "velocity": 0.51,
        "hand": "left"
      },
      {
        "midi": 35,
        "time": 189.706,
        "duration": 0.176,
        "velocity": 0.58,
        "hand": "left"
      },
      {
        "midi": 42,
        "time": 189.706,
        "duration": 0.176,
        "velocity": 0.43,
        "hand": "left"
      },
      {
        "midi": 45,
        "time": 189.706,
        "duration": 0.176,
        "velocity": 0.86,
        "hand": "left"
      },
      {
        "midi": 49,
        "time": 189.706,
        "duration": 0.176,
        "velocity": 0.86,
        "hand": "left"
      },
      {
        "midi": 57,
        "time": 189.706,
        "duration": 0.176,
        "velocity": 0.79,
        "hand": "left"
      },
      {
        "midi": 61,
        "time": 189.706,
        "duration": 0.176,
        "velocity": 0.79,
        "hand": "right"
      },
      {
        "midi": 64,
        "time": 189.706,
        "duration": 0.176,
        "velocity": 0.83,
        "hand": "right"
      },
      {
        "midi": 35,
        "time": 189.882,
        "duration": 0.176,
        "velocity": 0.73,
        "hand": "left"
      },
      {
        "midi": 42,
        "time": 189.882,
        "duration": 0.176,
        "velocity": 0.65,
        "hand": "left"
      },
      {
        "midi": 45,
        "time": 189.882,
        "duration": 0.529,
        "velocity": 0.86,
        "hand": "left"
      },
      {
        "midi": 49,
        "time": 189.882,
        "duration": 0.529,
        "velocity": 0.86,
        "hand": "left"
      },
      {
        "midi": 57,
        "time": 189.882,
        "duration": 0.529,
        "velocity": 0.79,
        "hand": "left"
      },
      {
        "midi": 61,
        "time": 189.882,
        "duration": 0.529,
        "velocity": 0.79,
        "hand": "right"
      },
      {
        "midi": 64,
        "time": 189.882,
        "duration": 0.529,
        "velocity": 0.83,
        "hand": "right"
      },
      {
        "midi": 67,
        "time": 189.882,
        "duration": 0.353,
        "velocity": 0.83,
        "hand": "right"
      },
      {
        "midi": 42,
        "time": 190.235,
        "duration": 0.176,
        "velocity": 0.73,
        "hand": "left"
      },
      {
        "midi": 42,
        "time": 190.412,
        "duration": 0.176,
        "velocity": 0.43,
        "hand": "left"
      },
      {
        "midi": 64,
        "time": 190.412,
        "duration": 0.176,
        "velocity": 0.83,
        "hand": "right"
      },
      {
        "midi": 38,
        "time": 190.588,
        "duration": 0.176,
        "velocity": 0.73,
        "hand": "left"
      },
      {
        "midi": 42,
        "time": 190.588,
        "duration": 0.176,
        "velocity": 0.58,
        "hand": "left"
      },
      {
        "midi": 67,
        "time": 190.588,
        "duration": 0.353,
        "velocity": 0.83,
        "hand": "right"
      },
      {
        "midi": 35,
        "time": 190.941,
        "duration": 0.176,
        "velocity": 0.58,
        "hand": "left"
      },
      {
        "midi": 42,
        "time": 190.941,
        "duration": 0.176,
        "velocity": 0.51,
        "hand": "left"
      },
      {
        "midi": 42,
        "time": 191.118,
        "duration": 0.176,
        "velocity": 0.43,
        "hand": "left"
      },
      {
        "midi": 71,
        "time": 191.118,
        "duration": 0.176,
        "velocity": 0.83,
        "hand": "right"
      },
      {
        "midi": 35,
        "time": 191.294,
        "duration": 0.176,
        "velocity": 0.73,
        "hand": "left"
      },
      {
        "midi": 38,
        "time": 191.294,
        "duration": 0.176,
        "velocity": 0.86,
        "hand": "left"
      },
      {
        "midi": 42,
        "time": 191.294,
        "duration": 0.176,
        "velocity": 0.65,
        "hand": "left"
      },
      {
        "midi": 50,
        "time": 191.294,
        "duration": 0.176,
        "velocity": 0.79,
        "hand": "left"
      },
      {
        "midi": 62,
        "time": 191.294,
        "duration": 0.176,
        "velocity": 0.79,
        "hand": "right"
      },
      {
        "midi": 69,
        "time": 191.294,
        "duration": 0.882,
        "velocity": 0.83,
        "hand": "right"
      },
      {
        "midi": 38,
        "time": 191.471,
        "duration": 0.353,
        "velocity": 0.86,
        "hand": "left"
      },
      {
        "midi": 50,
        "time": 191.471,
        "duration": 0.353,
        "velocity": 0.79,
        "hand": "left"
      },
      {
        "midi": 62,
        "time": 191.471,
        "duration": 0.353,
        "velocity": 0.79,
        "hand": "right"
      },
      {
        "midi": 42,
        "time": 191.647,
        "duration": 0.176,
        "velocity": 0.51,
        "hand": "left"
      },
      {
        "midi": 42,
        "time": 191.824,
        "duration": 0.176,
        "velocity": 0.43,
        "hand": "left"
      },
      {
        "midi": 38,
        "time": 192,
        "duration": 0.353,
        "velocity": 0.86,
        "hand": "left"
      },
      {
        "midi": 38,
        "time": 192,
        "duration": 0.176,
        "velocity": 0.73,
        "hand": "left"
      },
      {
        "midi": 42,
        "time": 192,
        "duration": 0.176,
        "velocity": 0.58,
        "hand": "left"
      },
      {
        "midi": 50,
        "time": 192,
        "duration": 0.353,
        "velocity": 0.79,
        "hand": "left"
      },
      {
        "midi": 62,
        "time": 192,
        "duration": 0.353,
        "velocity": 0.79,
        "hand": "right"
      },
      {
        "midi": 42,
        "time": 192.353,
        "duration": 0.176,
        "velocity": 0.51,
        "hand": "left"
      },
      {
        "midi": 35,
        "time": 192.529,
        "duration": 0.176,
        "velocity": 0.58,
        "hand": "left"
      },
      {
        "midi": 38,
        "time": 192.529,
        "duration": 0.176,
        "velocity": 0.86,
        "hand": "left"
      },
      {
        "midi": 50,
        "time": 192.529,
        "duration": 0.176,
        "velocity": 0.79,
        "hand": "left"
      },
      {
        "midi": 62,
        "time": 192.529,
        "duration": 0.176,
        "velocity": 0.79,
        "hand": "right"
      },
      {
        "midi": 35,
        "time": 192.706,
        "duration": 0.176,
        "velocity": 0.73,
        "hand": "left"
      },
      {
        "midi": 38,
        "time": 192.706,
        "duration": 0.529,
        "velocity": 0.86,
        "hand": "left"
      },
      {
        "midi": 42,
        "time": 192.706,
        "duration": 0.176,
        "velocity": 0.65,
        "hand": "left"
      },
      {
        "midi": 50,
        "time": 192.706,
        "duration": 0.529,
        "velocity": 0.79,
        "hand": "left"
      },
      {
        "midi": 62,
        "time": 192.706,
        "duration": 0.529,
        "velocity": 0.79,
        "hand": "right"
      },
      {
        "midi": 69,
        "time": 192.706,
        "duration": 0.529,
        "velocity": 0.83,
        "hand": "right"
      },
      {
        "midi": 42,
        "time": 193.059,
        "duration": 0.176,
        "velocity": 0.51,
        "hand": "left"
      },
      {
        "midi": 42,
        "time": 193.235,
        "duration": 0.176,
        "velocity": 0.43,
        "hand": "left"
      },
      {
        "midi": 38,
        "time": 193.412,
        "duration": 0.176,
        "velocity": 0.73,
        "hand": "left"
      },
      {
        "midi": 42,
        "time": 193.412,
        "duration": 0.176,
        "velocity": 0.58,
        "hand": "left"
      },
      {
        "midi": 35,
        "time": 193.765,
        "duration": 0.176,
        "velocity": 0.58,
        "hand": "left"
      },
      {
        "midi": 42,
        "time": 193.765,
        "duration": 0.176,
        "velocity": 0.51,
        "hand": "left"
      },
      {
        "midi": 42,
        "time": 193.941,
        "duration": 0.176,
        "velocity": 0.43,
        "hand": "left"
      },
      {
        "midi": 35,
        "time": 194.118,
        "duration": 0.176,
        "velocity": 0.73,
        "hand": "left"
      },
      {
        "midi": 38,
        "time": 194.118,
        "duration": 0.529,
        "velocity": 0.86,
        "hand": "left"
      },
      {
        "midi": 42,
        "time": 194.118,
        "duration": 0.176,
        "velocity": 0.65,
        "hand": "left"
      },
      {
        "midi": 45,
        "time": 194.118,
        "duration": 0.529,
        "velocity": 0.86,
        "hand": "left"
      },
      {
        "midi": 50,
        "time": 194.118,
        "duration": 0.529,
        "velocity": 0.79,
        "hand": "left"
      },
      {
        "midi": 57,
        "time": 194.118,
        "duration": 0.529,
        "velocity": 0.79,
        "hand": "left"
      },
      {
        "midi": 66,
        "time": 194.118,
        "duration": 0.529,
        "velocity": 0.83,
        "hand": "right"
      },
      {
        "midi": 74,
        "time": 194.118,
        "duration": 0.529,
        "velocity": 0.83,
        "hand": "right"
      },
      {
        "midi": 42,
        "time": 194.471,
        "duration": 0.176,
        "velocity": 0.51,
        "hand": "left"
      },
      {
        "midi": 42,
        "time": 194.647,
        "duration": 0.176,
        "velocity": 0.43,
        "hand": "left"
      },
      {
        "midi": 38,
        "time": 194.824,
        "duration": 0.353,
        "velocity": 0.86,
        "hand": "left"
      },
      {
        "midi": 38,
        "time": 194.824,
        "duration": 0.176,
        "velocity": 0.73,
        "hand": "left"
      },
      {
        "midi": 42,
        "time": 194.824,
        "duration": 0.176,
        "velocity": 0.58,
        "hand": "left"
      },
      {
        "midi": 45,
        "time": 194.824,
        "duration": 0.353,
        "velocity": 0.86,
        "hand": "left"
      },
      {
        "midi": 50,
        "time": 194.824,
        "duration": 0.353,
        "velocity": 0.79,
        "hand": "left"
      },
      {
        "midi": 57,
        "time": 194.824,
        "duration": 0.353,
        "velocity": 0.79,
        "hand": "left"
      },
      {
        "midi": 66,
        "time": 194.824,
        "duration": 0.353,
        "velocity": 0.83,
        "hand": "right"
      },
      {
        "midi": 74,
        "time": 194.824,
        "duration": 0.353,
        "velocity": 0.83,
        "hand": "right"
      },
      {
        "midi": 42,
        "time": 195.176,
        "duration": 0.176,
        "velocity": 0.51,
        "hand": "left"
      },
      {
        "midi": 35,
        "time": 195.353,
        "duration": 0.176,
        "velocity": 0.58,
        "hand": "left"
      },
      {
        "midi": 38,
        "time": 195.353,
        "duration": 0.176,
        "velocity": 0.86,
        "hand": "left"
      },
      {
        "midi": 42,
        "time": 195.353,
        "duration": 0.176,
        "velocity": 0.43,
        "hand": "left"
      },
      {
        "midi": 45,
        "time": 195.353,
        "duration": 0.176,
        "velocity": 0.86,
        "hand": "left"
      },
      {
        "midi": 50,
        "time": 195.353,
        "duration": 0.176,
        "velocity": 0.79,
        "hand": "left"
      },
      {
        "midi": 57,
        "time": 195.353,
        "duration": 0.176,
        "velocity": 0.79,
        "hand": "left"
      },
      {
        "midi": 66,
        "time": 195.353,
        "duration": 0.176,
        "velocity": 0.83,
        "hand": "right"
      },
      {
        "midi": 74,
        "time": 195.353,
        "duration": 0.176,
        "velocity": 0.83,
        "hand": "right"
      },
      {
        "midi": 35,
        "time": 195.529,
        "duration": 0.176,
        "velocity": 0.73,
        "hand": "left"
      },
      {
        "midi": 42,
        "time": 195.529,
        "duration": 0.529,
        "velocity": 0.86,
        "hand": "left"
      },
      {
        "midi": 42,
        "time": 195.529,
        "duration": 0.176,
        "velocity": 0.65,
        "hand": "left"
      },
      {
        "midi": 45,
        "time": 195.529,
        "duration": 0.529,
        "velocity": 0.86,
        "hand": "left"
      },
      {
        "midi": 54,
        "time": 195.529,
        "duration": 0.529,
        "velocity": 0.79,
        "hand": "left"
      },
      {
        "midi": 57,
        "time": 195.529,
        "duration": 0.529,
        "velocity": 0.79,
        "hand": "left"
      },
      {
        "midi": 69,
        "time": 195.529,
        "duration": 0.529,
        "velocity": 0.83,
        "hand": "right"
      },
      {
        "midi": 74,
        "time": 195.529,
        "duration": 0.529,
        "velocity": 0.83,
        "hand": "right"
      },
      {
        "midi": 46,
        "time": 195.882,
        "duration": 0.176,
        "velocity": 0.51,
        "hand": "left"
      },
      {
        "midi": 38,
        "time": 196.235,
        "duration": 0.176,
        "velocity": 0.73,
        "hand": "left"
      },
      {
        "midi": 42,
        "time": 196.235,
        "duration": 0.353,
        "velocity": 0.86,
        "hand": "left"
      },
      {
        "midi": 42,
        "time": 196.235,
        "duration": 0.176,
        "velocity": 0.58,
        "hand": "left"
      },
      {
        "midi": 50,
        "time": 196.235,
        "duration": 0.353,
        "velocity": 0.86,
        "hand": "left"
      },
      {
        "midi": 54,
        "time": 196.235,
        "duration": 0.353,
        "velocity": 0.79,
        "hand": "left"
      },
      {
        "midi": 62,
        "time": 196.235,
        "duration": 0.353,
        "velocity": 0.79,
        "hand": "right"
      },
      {
        "midi": 69,
        "time": 196.235,
        "duration": 0.353,
        "velocity": 0.83,
        "hand": "right"
      },
      {
        "midi": 74,
        "time": 196.235,
        "duration": 0.353,
        "velocity": 0.83,
        "hand": "right"
      },
      {
        "midi": 35,
        "time": 196.588,
        "duration": 0.176,
        "velocity": 0.58,
        "hand": "left"
      },
      {
        "midi": 42,
        "time": 196.588,
        "duration": 0.176,
        "velocity": 0.51,
        "hand": "left"
      },
      {
        "midi": 42,
        "time": 196.765,
        "duration": 0.176,
        "velocity": 0.86,
        "hand": "left"
      },
      {
        "midi": 50,
        "time": 196.765,
        "duration": 0.176,
        "velocity": 0.86,
        "hand": "left"
      },
      {
        "midi": 54,
        "time": 196.765,
        "duration": 0.176,
        "velocity": 0.79,
        "hand": "left"
      },
      {
        "midi": 62,
        "time": 196.765,
        "duration": 0.176,
        "velocity": 0.79,
        "hand": "right"
      },
      {
        "midi": 69,
        "time": 196.765,
        "duration": 0.176,
        "velocity": 0.83,
        "hand": "right"
      },
      {
        "midi": 73,
        "time": 196.765,
        "duration": 0.176,
        "velocity": 0.83,
        "hand": "right"
      },
      {
        "midi": 35,
        "time": 196.941,
        "duration": 0.176,
        "velocity": 0.73,
        "hand": "left"
      },
      {
        "midi": 42,
        "time": 196.941,
        "duration": 0.176,
        "velocity": 0.65,
        "hand": "left"
      },
      {
        "midi": 43,
        "time": 196.941,
        "duration": 0.529,
        "velocity": 0.86,
        "hand": "left"
      },
      {
        "midi": 50,
        "time": 196.941,
        "duration": 0.529,
        "velocity": 0.86,
        "hand": "left"
      },
      {
        "midi": 55,
        "time": 196.941,
        "duration": 0.529,
        "velocity": 0.79,
        "hand": "left"
      },
      {
        "midi": 62,
        "time": 196.941,
        "duration": 0.529,
        "velocity": 0.79,
        "hand": "right"
      },
      {
        "midi": 67,
        "time": 196.941,
        "duration": 0.529,
        "velocity": 0.83,
        "hand": "right"
      },
      {
        "midi": 71,
        "time": 196.941,
        "duration": 0.882,
        "velocity": 0.83,
        "hand": "right"
      },
      {
        "midi": 42,
        "time": 197.294,
        "duration": 0.176,
        "velocity": 0.51,
        "hand": "left"
      },
      {
        "midi": 42,
        "time": 197.471,
        "duration": 0.176,
        "velocity": 0.43,
        "hand": "left"
      },
      {
        "midi": 38,
        "time": 197.647,
        "duration": 0.176,
        "velocity": 0.73,
        "hand": "left"
      },
      {
        "midi": 42,
        "time": 197.647,
        "duration": 0.176,
        "velocity": 0.58,
        "hand": "left"
      },
      {
        "midi": 43,
        "time": 197.647,
        "duration": 0.353,
        "velocity": 0.86,
        "hand": "left"
      },
      {
        "midi": 50,
        "time": 197.647,
        "duration": 0.353,
        "velocity": 0.86,
        "hand": "left"
      },
      {
        "midi": 55,
        "time": 197.647,
        "duration": 0.353,
        "velocity": 0.79,
        "hand": "left"
      },
      {
        "midi": 62,
        "time": 197.647,
        "duration": 0.353,
        "velocity": 0.79,
        "hand": "right"
      },
      {
        "midi": 67,
        "time": 197.647,
        "duration": 0.353,
        "velocity": 0.83,
        "hand": "right"
      },
      {
        "midi": 42,
        "time": 198,
        "duration": 0.176,
        "velocity": 0.51,
        "hand": "left"
      },
      {
        "midi": 35,
        "time": 198.176,
        "duration": 0.176,
        "velocity": 0.58,
        "hand": "left"
      },
      {
        "midi": 38,
        "time": 198.176,
        "duration": 0.176,
        "velocity": 0.26,
        "hand": "left"
      },
      {
        "midi": 43,
        "time": 198.176,
        "duration": 0.176,
        "velocity": 0.86,
        "hand": "left"
      },
      {
        "midi": 50,
        "time": 198.176,
        "duration": 0.176,
        "velocity": 0.86,
        "hand": "left"
      },
      {
        "midi": 55,
        "time": 198.176,
        "duration": 0.176,
        "velocity": 0.79,
        "hand": "left"
      },
      {
        "midi": 62,
        "time": 198.176,
        "duration": 0.176,
        "velocity": 0.79,
        "hand": "right"
      },
      {
        "midi": 67,
        "time": 198.176,
        "duration": 0.176,
        "velocity": 0.83,
        "hand": "right"
      },
      {
        "midi": 35,
        "time": 198.353,
        "duration": 0.176,
        "velocity": 0.73,
        "hand": "left"
      },
      {
        "midi": 42,
        "time": 198.353,
        "duration": 0.176,
        "velocity": 0.65,
        "hand": "left"
      },
      {
        "midi": 47,
        "time": 198.353,
        "duration": 0.529,
        "velocity": 0.86,
        "hand": "left"
      },
      {
        "midi": 50,
        "time": 198.353,
        "duration": 0.529,
        "velocity": 0.86,
        "hand": "left"
      },
      {
        "midi": 59,
        "time": 198.353,
        "duration": 0.529,
        "velocity": 0.79,
        "hand": "left"
      },
      {
        "midi": 62,
        "time": 198.353,
        "duration": 0.529,
        "velocity": 0.79,
        "hand": "right"
      },
      {
        "midi": 67,
        "time": 198.353,
        "duration": 0.529,
        "velocity": 0.83,
        "hand": "right"
      },
      {
        "midi": 42,
        "time": 198.706,
        "duration": 0.176,
        "velocity": 0.51,
        "hand": "left"
      },
      {
        "midi": 42,
        "time": 198.882,
        "duration": 0.176,
        "velocity": 0.43,
        "hand": "left"
      },
      {
        "midi": 38,
        "time": 199.059,
        "duration": 0.176,
        "velocity": 0.73,
        "hand": "left"
      },
      {
        "midi": 42,
        "time": 199.059,
        "duration": 0.176,
        "velocity": 0.58,
        "hand": "left"
      },
      {
        "midi": 43,
        "time": 199.059,
        "duration": 0.353,
        "velocity": 0.86,
        "hand": "left"
      },
      {
        "midi": 50,
        "time": 199.059,
        "duration": 0.353,
        "velocity": 0.86,
        "hand": "left"
      },
      {
        "midi": 55,
        "time": 199.059,
        "duration": 0.353,
        "velocity": 0.79,
        "hand": "left"
      },
      {
        "midi": 62,
        "time": 199.059,
        "duration": 0.353,
        "velocity": 0.79,
        "hand": "right"
      },
      {
        "midi": 67,
        "time": 199.059,
        "duration": 0.353,
        "velocity": 0.83,
        "hand": "right"
      },
      {
        "midi": 71,
        "time": 199.059,
        "duration": 0.529,
        "velocity": 0.83,
        "hand": "right"
      },
      {
        "midi": 35,
        "time": 199.412,
        "duration": 0.176,
        "velocity": 0.58,
        "hand": "left"
      },
      {
        "midi": 42,
        "time": 199.412,
        "duration": 0.176,
        "velocity": 0.51,
        "hand": "left"
      },
      {
        "midi": 42,
        "time": 199.588,
        "duration": 0.176,
        "velocity": 0.43,
        "hand": "left"
      },
      {
        "midi": 43,
        "time": 199.588,
        "duration": 0.176,
        "velocity": 0.86,
        "hand": "left"
      },
      {
        "midi": 50,
        "time": 199.588,
        "duration": 0.176,
        "velocity": 0.86,
        "hand": "left"
      },
      {
        "midi": 55,
        "time": 199.588,
        "duration": 0.176,
        "velocity": 0.79,
        "hand": "left"
      },
      {
        "midi": 62,
        "time": 199.588,
        "duration": 0.176,
        "velocity": 0.79,
        "hand": "right"
      },
      {
        "midi": 67,
        "time": 199.588,
        "duration": 0.176,
        "velocity": 0.83,
        "hand": "right"
      },
      {
        "midi": 35,
        "time": 199.765,
        "duration": 0.176,
        "velocity": 0.65,
        "hand": "left"
      },
      {
        "midi": 42,
        "time": 199.765,
        "duration": 0.176,
        "velocity": 0.58,
        "hand": "left"
      },
      {
        "midi": 45,
        "time": 199.765,
        "duration": 0.529,
        "velocity": 0.86,
        "hand": "left"
      },
      {
        "midi": 50,
        "time": 199.765,
        "duration": 0.529,
        "velocity": 0.86,
        "hand": "left"
      },
      {
        "midi": 57,
        "time": 199.765,
        "duration": 0.529,
        "velocity": 0.79,
        "hand": "left"
      },
      {
        "midi": 62,
        "time": 199.765,
        "duration": 0.529,
        "velocity": 0.79,
        "hand": "right"
      },
      {
        "midi": 66,
        "time": 199.765,
        "duration": 0.529,
        "velocity": 0.83,
        "hand": "right"
      },
      {
        "midi": 69,
        "time": 199.765,
        "duration": 0.529,
        "velocity": 0.83,
        "hand": "right"
      },
      {
        "midi": 42,
        "time": 200.118,
        "duration": 0.176,
        "velocity": 0.36,
        "hand": "left"
      },
      {
        "midi": 42,
        "time": 200.294,
        "duration": 0.176,
        "velocity": 0.73,
        "hand": "left"
      },
      {
        "midi": 33,
        "time": 200.471,
        "duration": 0.353,
        "velocity": 0.86,
        "hand": "left"
      },
      {
        "midi": 38,
        "time": 200.471,
        "duration": 0.176,
        "velocity": 0.73,
        "hand": "left"
      },
      {
        "midi": 45,
        "time": 200.471,
        "duration": 0.353,
        "velocity": 0.79,
        "hand": "left"
      },
      {
        "midi": 46,
        "time": 200.471,
        "duration": 0.176,
        "velocity": 0.73,
        "hand": "left"
      },
      {
        "midi": 57,
        "time": 200.471,
        "duration": 0.353,
        "velocity": 0.79,
        "hand": "left"
      },
      {
        "midi": 62,
        "time": 200.471,
        "duration": 0.353,
        "velocity": 0.83,
        "hand": "right"
      },
      {
        "midi": 66,
        "time": 200.471,
        "duration": 0.353,
        "velocity": 0.83,
        "hand": "right"
      },
      {
        "midi": 35,
        "time": 201,
        "duration": 0.176,
        "velocity": 0.86,
        "hand": "left"
      },
      {
        "midi": 42,
        "time": 201,
        "duration": 0.176,
        "velocity": 0.86,
        "hand": "left"
      },
      {
        "midi": 47,
        "time": 201,
        "duration": 0.176,
        "velocity": 0.79,
        "hand": "left"
      },
      {
        "midi": 54,
        "time": 201,
        "duration": 0.176,
        "velocity": 0.79,
        "hand": "left"
      },
      {
        "midi": 62,
        "time": 201,
        "duration": 0.176,
        "velocity": 0.83,
        "hand": "right"
      },
      {
        "midi": 33,
        "time": 201.176,
        "duration": 0.529,
        "velocity": 0.86,
        "hand": "left"
      },
      {
        "midi": 38,
        "time": 201.176,
        "duration": 0.176,
        "velocity": 0.73,
        "hand": "left"
      },
      {
        "midi": 45,
        "time": 201.176,
        "duration": 0.529,
        "velocity": 0.79,
        "hand": "left"
      },
      {
        "midi": 57,
        "time": 201.176,
        "duration": 0.529,
        "velocity": 0.79,
        "hand": "left"
      },
      {
        "midi": 62,
        "time": 201.176,
        "duration": 0.529,
        "velocity": 0.83,
        "hand": "right"
      },
      {
        "midi": 64,
        "time": 201.176,
        "duration": 0.529,
        "velocity": 0.83,
        "hand": "right"
      },
      {
        "midi": 38,
        "time": 201.353,
        "duration": 0.176,
        "velocity": 0.43,
        "hand": "left"
      },
      {
        "midi": 35,
        "time": 201.706,
        "duration": 0.176,
        "velocity": 0.65,
        "hand": "left"
      },
      {
        "midi": 33,
        "time": 201.882,
        "duration": 0.353,
        "velocity": 0.86,
        "hand": "left"
      },
      {
        "midi": 38,
        "time": 201.882,
        "duration": 0.176,
        "velocity": 0.73,
        "hand": "left"
      },
      {
        "midi": 45,
        "time": 201.882,
        "duration": 0.353,
        "velocity": 0.79,
        "hand": "left"
      },
      {
        "midi": 57,
        "time": 201.882,
        "duration": 0.353,
        "velocity": 0.79,
        "hand": "left"
      },
      {
        "midi": 61,
        "time": 201.882,
        "duration": 0.353,
        "velocity": 0.83,
        "hand": "right"
      },
      {
        "midi": 66,
        "time": 201.882,
        "duration": 0.353,
        "velocity": 0.83,
        "hand": "right"
      },
      {
        "midi": 38,
        "time": 202.059,
        "duration": 0.176,
        "velocity": 0.43,
        "hand": "left"
      },
      {
        "midi": 41,
        "time": 202.235,
        "duration": 0.176,
        "velocity": 0.83,
        "hand": "left"
      },
      {
        "midi": 33,
        "time": 202.412,
        "duration": 0.176,
        "velocity": 0.86,
        "hand": "left"
      },
      {
        "midi": 43,
        "time": 202.412,
        "duration": 0.176,
        "velocity": 0.86,
        "hand": "left"
      },
      {
        "midi": 45,
        "time": 202.412,
        "duration": 0.176,
        "velocity": 0.79,
        "hand": "left"
      },
      {
        "midi": 55,
        "time": 202.412,
        "duration": 0.176,
        "velocity": 0.79,
        "hand": "left"
      },
      {
        "midi": 61,
        "time": 202.412,
        "duration": 0.176,
        "velocity": 0.83,
        "hand": "right"
      },
      {
        "midi": 64,
        "time": 202.412,
        "duration": 0.176,
        "velocity": 0.83,
        "hand": "right"
      },
      {
        "midi": 35,
        "time": 202.588,
        "duration": 0.176,
        "velocity": 0.73,
        "hand": "left"
      },
      {
        "midi": 38,
        "time": 202.588,
        "duration": 1.588,
        "velocity": 0.86,
        "hand": "left"
      },
      {
        "midi": 49,
        "time": 202.588,
        "duration": 0.176,
        "velocity": 0.65,
        "hand": "left"
      },
      {
        "midi": 50,
        "time": 202.588,
        "duration": 1.588,
        "velocity": 0.79,
        "hand": "left"
      },
      {
        "midi": 62,
        "time": 202.588,
        "duration": 1.588,
        "velocity": 0.83,
        "hand": "right"
      },
      {
        "midi": 62,
        "time": 202.588,
        "duration": 2.294,
        "velocity": 0.86,
        "hand": "right"
      },
      {
        "midi": 38,
        "time": 203.118,
        "duration": 0.176,
        "velocity": 0.51,
        "hand": "left"
      },
      {
        "midi": 38,
        "time": 203.294,
        "duration": 0.176,
        "velocity": 0.83,
        "hand": "left"
      },
      {
        "midi": 43,
        "time": 203.294,
        "duration": 0.529,
        "velocity": 0.86,
        "hand": "left"
      },
      {
        "midi": 55,
        "time": 203.294,
        "duration": 0.529,
        "velocity": 0.79,
        "hand": "left"
      },
      {
        "midi": 59,
        "time": 203.294,
        "duration": 0.529,
        "velocity": 0.83,
        "hand": "left"
      },
      {
        "midi": 35,
        "time": 203.471,
        "duration": 0.176,
        "velocity": 0.65,
        "hand": "left"
      },
      {
        "midi": 48,
        "time": 203.647,
        "duration": 0.176,
        "velocity": 0.73,
        "hand": "left"
      },
      {
        "midi": 38,
        "time": 204,
        "duration": 0.529,
        "velocity": 0.86,
        "hand": "left"
      },
      {
        "midi": 42,
        "time": 204,
        "duration": 0.529,
        "velocity": 0.86,
        "hand": "left"
      },
      {
        "midi": 50,
        "time": 204,
        "duration": 0.529,
        "velocity": 0.79,
        "hand": "left"
      },
      {
        "midi": 54,
        "time": 204,
        "duration": 0.529,
        "velocity": 0.79,
        "hand": "left"
      },
      {
        "midi": 57,
        "time": 204,
        "duration": 0.529,
        "velocity": 0.83,
        "hand": "left"
      },
      {
        "midi": 62,
        "time": 204,
        "duration": 0.529,
        "velocity": 0.83,
        "hand": "right"
      },
      {
        "midi": 45,
        "time": 204.176,
        "duration": 0.176,
        "velocity": 0.83,
        "hand": "left"
      },
      {
        "midi": 41,
        "time": 204.706,
        "duration": 0.176,
        "velocity": 0.93,
        "hand": "left"
      },
      {
        "midi": 35,
        "time": 205.059,
        "duration": 0.176,
        "velocity": 0.58,
        "hand": "left"
      },
      {
        "midi": 35,
        "time": 205.412,
        "duration": 0.176,
        "velocity": 0.73,
        "hand": "left"
      },
      {
        "midi": 49,
        "time": 205.412,
        "duration": 0.176,
        "velocity": 0.65,
        "hand": "left"
      },
      {
        "midi": 59,
        "time": 205.412,
        "duration": 1.941,
        "velocity": 0.73,
        "hand": "left"
      }
    ]
  },
  "notes1Hand": [
    {
      "midi": 37,
      "time": 0,
      "duration": 0.706,
      "velocity": 0.61,
      "hand": "right"
    },
    {
      "midi": 37,
      "time": 1.412,
      "duration": 0.706,
      "velocity": 0.61,
      "hand": "right"
    },
    {
      "midi": 66,
      "time": 2.824,
      "duration": 0.529,
      "velocity": 0.83,
      "hand": "right"
    },
    {
      "midi": 66,
      "time": 3.529,
      "duration": 0.353,
      "velocity": 0.83,
      "hand": "right"
    },
    {
      "midi": 65,
      "time": 4.059,
      "duration": 0.235,
      "velocity": 0.83,
      "hand": "right"
    },
    {
      "midi": 66,
      "time": 4.235,
      "duration": 0.529,
      "velocity": 0.83,
      "hand": "right"
    },
    {
      "midi": 66,
      "time": 4.941,
      "duration": 0.353,
      "velocity": 0.83,
      "hand": "right"
    },
    {
      "midi": 67,
      "time": 5.471,
      "duration": 0.235,
      "velocity": 0.83,
      "hand": "right"
    },
    {
      "midi": 69,
      "time": 5.647,
      "duration": 0.882,
      "velocity": 0.83,
      "hand": "right"
    },
    {
      "midi": 42,
      "time": 6,
      "duration": 0.235,
      "velocity": 0.51,
      "hand": "right"
    },
    {
      "midi": 42,
      "time": 6.353,
      "duration": 0.235,
      "velocity": 0.58,
      "hand": "right"
    },
    {
      "midi": 42,
      "time": 6.706,
      "duration": 0.235,
      "velocity": 0.51,
      "hand": "right"
    },
    {
      "midi": 69,
      "time": 7.059,
      "duration": 0.529,
      "velocity": 0.83,
      "hand": "right"
    },
    {
      "midi": 42,
      "time": 7.412,
      "duration": 0.235,
      "velocity": 0.51,
      "hand": "right"
    },
    {
      "midi": 69,
      "time": 7.765,
      "duration": 0.353,
      "velocity": 0.83,
      "hand": "right"
    },
    {
      "midi": 42,
      "time": 8.118,
      "duration": 0.235,
      "velocity": 0.51,
      "hand": "right"
    },
    {
      "midi": 66,
      "time": 8.294,
      "duration": 0.235,
      "velocity": 0.83,
      "hand": "right"
    },
    {
      "midi": 64,
      "time": 8.471,
      "duration": 0.529,
      "velocity": 0.83,
      "hand": "right"
    },
    {
      "midi": 42,
      "time": 8.824,
      "duration": 0.235,
      "velocity": 0.51,
      "hand": "right"
    },
    {
      "midi": 64,
      "time": 9.176,
      "duration": 0.529,
      "velocity": 0.83,
      "hand": "right"
    },
    {
      "midi": 42,
      "time": 9.529,
      "duration": 0.235,
      "velocity": 0.51,
      "hand": "right"
    },
    {
      "midi": 42,
      "time": 9.706,
      "duration": 0.235,
      "velocity": 0.43,
      "hand": "right"
    },
    {
      "midi": 66,
      "time": 9.882,
      "duration": 0.529,
      "velocity": 0.83,
      "hand": "right"
    },
    {
      "midi": 42,
      "time": 10.235,
      "duration": 0.235,
      "velocity": 0.51,
      "hand": "right"
    },
    {
      "midi": 67,
      "time": 10.588,
      "duration": 0.353,
      "velocity": 0.83,
      "hand": "right"
    },
    {
      "midi": 42,
      "time": 10.941,
      "duration": 0.235,
      "velocity": 0.51,
      "hand": "right"
    },
    {
      "midi": 66,
      "time": 11.118,
      "duration": 0.235,
      "velocity": 0.83,
      "hand": "right"
    },
    {
      "midi": 64,
      "time": 11.294,
      "duration": 1.412,
      "velocity": 0.83,
      "hand": "right"
    },
    {
      "midi": 42,
      "time": 11.647,
      "duration": 0.235,
      "velocity": 0.51,
      "hand": "right"
    },
    {
      "midi": 42,
      "time": 12,
      "duration": 0.235,
      "velocity": 0.58,
      "hand": "right"
    },
    {
      "midi": 42,
      "time": 12.353,
      "duration": 0.235,
      "velocity": 0.51,
      "hand": "right"
    },
    {
      "midi": 42,
      "time": 12.706,
      "duration": 0.235,
      "velocity": 0.65,
      "hand": "right"
    },
    {
      "midi": 42,
      "time": 13.059,
      "duration": 0.235,
      "velocity": 0.51,
      "hand": "right"
    },
    {
      "midi": 42,
      "time": 13.412,
      "duration": 0.235,
      "velocity": 0.58,
      "hand": "right"
    },
    {
      "midi": 42,
      "time": 13.765,
      "duration": 0.235,
      "velocity": 0.51,
      "hand": "right"
    },
    {
      "midi": 66,
      "time": 14.118,
      "duration": 0.529,
      "velocity": 0.83,
      "hand": "right"
    },
    {
      "midi": 42,
      "time": 14.471,
      "duration": 0.235,
      "velocity": 0.51,
      "hand": "right"
    },
    {
      "midi": 66,
      "time": 14.824,
      "duration": 0.353,
      "velocity": 0.83,
      "hand": "right"
    },
    {
      "midi": 42,
      "time": 15.176,
      "duration": 0.235,
      "velocity": 0.51,
      "hand": "right"
    },
    {
      "midi": 65,
      "time": 15.353,
      "duration": 0.235,
      "velocity": 0.83,
      "hand": "right"
    },
    {
      "midi": 66,
      "time": 15.529,
      "duration": 0.529,
      "velocity": 0.83,
      "hand": "right"
    },
    {
      "midi": 42,
      "time": 15.882,
      "duration": 0.235,
      "velocity": 0.51,
      "hand": "right"
    },
    {
      "midi": 66,
      "time": 16.235,
      "duration": 0.353,
      "velocity": 0.83,
      "hand": "right"
    },
    {
      "midi": 42,
      "time": 16.588,
      "duration": 0.235,
      "velocity": 0.51,
      "hand": "right"
    },
    {
      "midi": 67,
      "time": 16.765,
      "duration": 0.235,
      "velocity": 0.83,
      "hand": "right"
    },
    {
      "midi": 69,
      "time": 16.941,
      "duration": 0.882,
      "velocity": 0.83,
      "hand": "right"
    },
    {
      "midi": 42,
      "time": 17.294,
      "duration": 0.235,
      "velocity": 0.51,
      "hand": "right"
    },
    {
      "midi": 42,
      "time": 17.647,
      "duration": 0.235,
      "velocity": 0.58,
      "hand": "right"
    },
    {
      "midi": 42,
      "time": 18,
      "duration": 0.235,
      "velocity": 0.51,
      "hand": "right"
    },
    {
      "midi": 69,
      "time": 18.353,
      "duration": 0.529,
      "velocity": 0.83,
      "hand": "right"
    },
    {
      "midi": 42,
      "time": 18.706,
      "duration": 0.235,
      "velocity": 0.51,
      "hand": "right"
    },
    {
      "midi": 69,
      "time": 19.059,
      "duration": 0.353,
      "velocity": 0.83,
      "hand": "right"
    },
    {
      "midi": 42,
      "time": 19.412,
      "duration": 0.235,
      "velocity": 0.51,
      "hand": "right"
    },
    {
      "midi": 66,
      "time": 19.588,
      "duration": 0.235,
      "velocity": 0.83,
      "hand": "right"
    },
    {
      "midi": 64,
      "time": 19.765,
      "duration": 0.529,
      "velocity": 0.83,
      "hand": "right"
    },
    {
      "midi": 42,
      "time": 20.118,
      "duration": 0.235,
      "velocity": 0.51,
      "hand": "right"
    },
    {
      "midi": 64,
      "time": 20.471,
      "duration": 0.235,
      "velocity": 0.83,
      "hand": "right"
    },
    {
      "midi": 64,
      "time": 20.824,
      "duration": 0.235,
      "velocity": 0.83,
      "hand": "right"
    },
    {
      "midi": 64,
      "time": 21.176,
      "duration": 0.529,
      "velocity": 0.83,
      "hand": "right"
    },
    {
      "midi": 42,
      "time": 21.529,
      "duration": 0.235,
      "velocity": 0.51,
      "hand": "right"
    },
    {
      "midi": 66,
      "time": 21.882,
      "duration": 0.353,
      "velocity": 0.83,
      "hand": "right"
    },
    {
      "midi": 42,
      "time": 22.235,
      "duration": 0.235,
      "velocity": 0.51,
      "hand": "right"
    },
    {
      "midi": 64,
      "time": 22.412,
      "duration": 0.235,
      "velocity": 0.83,
      "hand": "right"
    },
    {
      "midi": 62,
      "time": 22.588,
      "duration": 1.412,
      "velocity": 0.83,
      "hand": "right"
    },
    {
      "midi": 38,
      "time": 23.118,
      "duration": 0.235,
      "velocity": 0.51,
      "hand": "right"
    },
    {
      "midi": 35,
      "time": 23.471,
      "duration": 0.235,
      "velocity": 0.65,
      "hand": "right"
    },
    {
      "midi": 48,
      "time": 23.647,
      "duration": 0.235,
      "velocity": 0.73,
      "hand": "right"
    },
    {
      "midi": 45,
      "time": 24.176,
      "duration": 0.235,
      "velocity": 0.83,
      "hand": "right"
    },
    {
      "midi": 41,
      "time": 24.706,
      "duration": 0.235,
      "velocity": 0.93,
      "hand": "right"
    },
    {
      "midi": 35,
      "time": 25.059,
      "duration": 0.235,
      "velocity": 0.58,
      "hand": "right"
    },
    {
      "midi": 71,
      "time": 25.235,
      "duration": 0.529,
      "velocity": 0.83,
      "hand": "right"
    },
    {
      "midi": 42,
      "time": 25.588,
      "duration": 0.235,
      "velocity": 0.51,
      "hand": "right"
    },
    {
      "midi": 71,
      "time": 25.941,
      "duration": 0.353,
      "velocity": 0.83,
      "hand": "right"
    },
    {
      "midi": 42,
      "time": 26.294,
      "duration": 0.235,
      "velocity": 0.51,
      "hand": "right"
    },
    {
      "midi": 71,
      "time": 26.471,
      "duration": 0.235,
      "velocity": 0.83,
      "hand": "right"
    },
    {
      "midi": 42,
      "time": 27,
      "duration": 0.235,
      "velocity": 0.51,
      "hand": "right"
    },
    {
      "midi": 71,
      "time": 27.353,
      "duration": 0.353,
      "velocity": 0.83,
      "hand": "right"
    },
    {
      "midi": 42,
      "time": 27.706,
      "duration": 0.235,
      "velocity": 0.51,
      "hand": "right"
    },
    {
      "midi": 67,
      "time": 27.882,
      "duration": 0.235,
      "velocity": 0.83,
      "hand": "right"
    },
    {
      "midi": 66,
      "time": 28.059,
      "duration": 0.882,
      "velocity": 0.83,
      "hand": "right"
    },
    {
      "midi": 42,
      "time": 28.412,
      "duration": 0.235,
      "velocity": 0.51,
      "hand": "right"
    },
    {
      "midi": 42,
      "time": 28.765,
      "duration": 0.235,
      "velocity": 0.58,
      "hand": "right"
    },
    {
      "midi": 42,
      "time": 29.118,
      "duration": 0.235,
      "velocity": 0.51,
      "hand": "right"
    },
    {
      "midi": 69,
      "time": 29.471,
      "duration": 0.529,
      "velocity": 0.83,
      "hand": "right"
    },
    {
      "midi": 42,
      "time": 29.824,
      "duration": 0.235,
      "velocity": 0.51,
      "hand": "right"
    },
    {
      "midi": 42,
      "time": 30.176,
      "duration": 0.235,
      "velocity": 0.58,
      "hand": "right"
    },
    {
      "midi": 42,
      "time": 30.529,
      "duration": 0.235,
      "velocity": 0.51,
      "hand": "right"
    },
    {
      "midi": 71,
      "time": 30.882,
      "duration": 0.529,
      "velocity": 0.83,
      "hand": "right"
    },
    {
      "midi": 42,
      "time": 31.235,
      "duration": 0.235,
      "velocity": 0.51,
      "hand": "right"
    },
    {
      "midi": 71,
      "time": 31.588,
      "duration": 0.353,
      "velocity": 0.83,
      "hand": "right"
    },
    {
      "midi": 42,
      "time": 31.941,
      "duration": 0.235,
      "velocity": 0.51,
      "hand": "right"
    },
    {
      "midi": 71,
      "time": 32.118,
      "duration": 0.235,
      "velocity": 0.83,
      "hand": "right"
    },
    {
      "midi": 74,
      "time": 32.647,
      "duration": 0.235,
      "velocity": 0.83,
      "hand": "right"
    },
    {
      "midi": 73,
      "time": 33,
      "duration": 0.235,
      "velocity": 0.83,
      "hand": "right"
    },
    {
      "midi": 71,
      "time": 33.353,
      "duration": 0.235,
      "velocity": 0.83,
      "hand": "right"
    },
    {
      "midi": 69,
      "time": 33.706,
      "duration": 0.882,
      "velocity": 0.83,
      "hand": "right"
    },
    {
      "midi": 42,
      "time": 34.059,
      "duration": 0.235,
      "velocity": 0.51,
      "hand": "right"
    },
    {
      "midi": 42,
      "time": 34.412,
      "duration": 0.235,
      "velocity": 0.58,
      "hand": "right"
    },
    {
      "midi": 42,
      "time": 34.765,
      "duration": 0.235,
      "velocity": 0.51,
      "hand": "right"
    },
    {
      "midi": 67,
      "time": 35.118,
      "duration": 0.529,
      "velocity": 0.83,
      "hand": "right"
    },
    {
      "midi": 42,
      "time": 35.471,
      "duration": 0.235,
      "velocity": 0.51,
      "hand": "right"
    },
    {
      "midi": 42,
      "time": 35.824,
      "duration": 0.235,
      "velocity": 0.58,
      "hand": "right"
    },
    {
      "midi": 42,
      "time": 36.176,
      "duration": 0.235,
      "velocity": 0.51,
      "hand": "right"
    },
    {
      "midi": 66,
      "time": 36.529,
      "duration": 0.529,
      "velocity": 0.83,
      "hand": "right"
    },
    {
      "midi": 42,
      "time": 36.882,
      "duration": 0.235,
      "velocity": 0.51,
      "hand": "right"
    },
    {
      "midi": 66,
      "time": 37.235,
      "duration": 0.353,
      "velocity": 0.83,
      "hand": "right"
    },
    {
      "midi": 42,
      "time": 37.588,
      "duration": 0.235,
      "velocity": 0.51,
      "hand": "right"
    },
    {
      "midi": 65,
      "time": 37.765,
      "duration": 0.235,
      "velocity": 0.83,
      "hand": "right"
    },
    {
      "midi": 66,
      "time": 37.941,
      "duration": 0.529,
      "velocity": 0.83,
      "hand": "right"
    },
    {
      "midi": 42,
      "time": 38.294,
      "duration": 0.235,
      "velocity": 0.51,
      "hand": "right"
    },
    {
      "midi": 66,
      "time": 38.647,
      "duration": 0.353,
      "velocity": 0.83,
      "hand": "right"
    },
    {
      "midi": 42,
      "time": 39,
      "duration": 0.235,
      "velocity": 0.51,
      "hand": "right"
    },
    {
      "midi": 67,
      "time": 39.176,
      "duration": 0.235,
      "velocity": 0.83,
      "hand": "right"
    },
    {
      "midi": 69,
      "time": 39.353,
      "duration": 0.882,
      "velocity": 0.83,
      "hand": "right"
    },
    {
      "midi": 42,
      "time": 39.706,
      "duration": 0.235,
      "velocity": 0.51,
      "hand": "right"
    },
    {
      "midi": 42,
      "time": 40.059,
      "duration": 0.235,
      "velocity": 0.58,
      "hand": "right"
    },
    {
      "midi": 42,
      "time": 40.412,
      "duration": 0.235,
      "velocity": 0.51,
      "hand": "right"
    },
    {
      "midi": 69,
      "time": 40.765,
      "duration": 0.529,
      "velocity": 0.83,
      "hand": "right"
    },
    {
      "midi": 42,
      "time": 41.118,
      "duration": 0.235,
      "velocity": 0.51,
      "hand": "right"
    },
    {
      "midi": 69,
      "time": 41.471,
      "duration": 0.353,
      "velocity": 0.83,
      "hand": "right"
    },
    {
      "midi": 42,
      "time": 41.824,
      "duration": 0.235,
      "velocity": 0.51,
      "hand": "right"
    },
    {
      "midi": 66,
      "time": 42,
      "duration": 0.235,
      "velocity": 0.83,
      "hand": "right"
    },
    {
      "midi": 64,
      "time": 42.176,
      "duration": 0.529,
      "velocity": 0.83,
      "hand": "right"
    },
    {
      "midi": 42,
      "time": 42.529,
      "duration": 0.235,
      "velocity": 0.51,
      "hand": "right"
    },
    {
      "midi": 62,
      "time": 42.882,
      "duration": 0.353,
      "velocity": 0.83,
      "hand": "right"
    },
    {
      "midi": 64,
      "time": 43.059,
      "duration": 0.353,
      "velocity": 0.83,
      "hand": "right"
    },
    {
      "midi": 42,
      "time": 43.235,
      "duration": 0.235,
      "velocity": 0.51,
      "hand": "right"
    },
    {
      "midi": 64,
      "time": 43.412,
      "duration": 0.235,
      "velocity": 0.83,
      "hand": "right"
    },
    {
      "midi": 42,
      "time": 43.941,
      "duration": 0.235,
      "velocity": 0.51,
      "hand": "right"
    },
    {
      "midi": 38,
      "time": 44.118,
      "duration": 0.235,
      "velocity": 0.58,
      "hand": "right"
    },
    {
      "midi": 66,
      "time": 44.294,
      "duration": 0.353,
      "velocity": 0.83,
      "hand": "right"
    },
    {
      "midi": 46,
      "time": 44.647,
      "duration": 0.235,
      "velocity": 0.65,
      "hand": "right"
    },
    {
      "midi": 64,
      "time": 44.824,
      "duration": 0.235,
      "velocity": 0.83,
      "hand": "right"
    },
    {
      "midi": 62,
      "time": 45,
      "duration": 1.412,
      "velocity": 0.83,
      "hand": "right"
    },
    {
      "midi": 42,
      "time": 45.353,
      "duration": 0.235,
      "velocity": 0.36,
      "hand": "right"
    },
    {
      "midi": 46,
      "time": 45.706,
      "duration": 0.235,
      "velocity": 0.73,
      "hand": "right"
    },
    {
      "midi": 35,
      "time": 46.235,
      "duration": 0.235,
      "velocity": 0.65,
      "hand": "right"
    },
    {
      "midi": 38,
      "time": 46.412,
      "duration": 0.235,
      "velocity": 0.73,
      "hand": "right"
    },
    {
      "midi": 35,
      "time": 46.941,
      "duration": 0.235,
      "velocity": 0.65,
      "hand": "right"
    },
    {
      "midi": 38,
      "time": 47.118,
      "duration": 0.235,
      "velocity": 0.73,
      "hand": "right"
    },
    {
      "midi": 41,
      "time": 47.471,
      "duration": 0.235,
      "velocity": 0.83,
      "hand": "right"
    },
    {
      "midi": 69,
      "time": 47.824,
      "duration": 1.588,
      "velocity": 0.83,
      "hand": "right"
    },
    {
      "midi": 66,
      "time": 48,
      "duration": 0.353,
      "velocity": 0.83,
      "hand": "right"
    },
    {
      "midi": 42,
      "time": 48.176,
      "duration": 0.235,
      "velocity": 0.51,
      "hand": "right"
    },
    {
      "midi": 42,
      "time": 48.353,
      "duration": 0.235,
      "velocity": 0.43,
      "hand": "right"
    },
    {
      "midi": 66,
      "time": 48.529,
      "duration": 0.353,
      "velocity": 0.83,
      "hand": "right"
    },
    {
      "midi": 42,
      "time": 48.882,
      "duration": 0.235,
      "velocity": 0.51,
      "hand": "right"
    },
    {
      "midi": 66,
      "time": 49.059,
      "duration": 0.235,
      "velocity": 0.83,
      "hand": "right"
    },
    {
      "midi": 69,
      "time": 49.235,
      "duration": 0.353,
      "velocity": 0.83,
      "hand": "right"
    },
    {
      "midi": 42,
      "time": 49.588,
      "duration": 0.235,
      "velocity": 0.51,
      "hand": "right"
    },
    {
      "midi": 66,
      "time": 49.765,
      "duration": 0.235,
      "velocity": 0.83,
      "hand": "right"
    },
    {
      "midi": 69,
      "time": 49.941,
      "duration": 0.353,
      "velocity": 0.83,
      "hand": "right"
    },
    {
      "midi": 42,
      "time": 50.294,
      "duration": 0.235,
      "velocity": 0.51,
      "hand": "right"
    },
    {
      "midi": 74,
      "time": 50.471,
      "duration": 0.235,
      "velocity": 0.83,
      "hand": "right"
    },
    {
      "midi": 73,
      "time": 50.647,
      "duration": 1.588,
      "velocity": 0.83,
      "hand": "right"
    },
    {
      "midi": 67,
      "time": 50.824,
      "duration": 0.353,
      "velocity": 0.83,
      "hand": "right"
    },
    {
      "midi": 42,
      "time": 51,
      "duration": 0.235,
      "velocity": 0.51,
      "hand": "right"
    },
    {
      "midi": 67,
      "time": 51.353,
      "duration": 0.353,
      "velocity": 0.83,
      "hand": "right"
    },
    {
      "midi": 42,
      "time": 51.706,
      "duration": 0.235,
      "velocity": 0.51,
      "hand": "right"
    },
    {
      "midi": 67,
      "time": 51.882,
      "duration": 0.235,
      "velocity": 0.83,
      "hand": "right"
    },
    {
      "midi": 73,
      "time": 52.059,
      "duration": 0.529,
      "velocity": 0.83,
      "hand": "right"
    },
    {
      "midi": 42,
      "time": 52.412,
      "duration": 0.235,
      "velocity": 0.51,
      "hand": "right"
    },
    {
      "midi": 42,
      "time": 52.765,
      "duration": 0.235,
      "velocity": 0.58,
      "hand": "right"
    },
    {
      "midi": 42,
      "time": 53.118,
      "duration": 0.235,
      "velocity": 0.51,
      "hand": "right"
    },
    {
      "midi": 67,
      "time": 53.471,
      "duration": 1.588,
      "velocity": 0.83,
      "hand": "right"
    },
    {
      "midi": 64,
      "time": 53.647,
      "duration": 0.353,
      "velocity": 0.83,
      "hand": "right"
    },
    {
      "midi": 42,
      "time": 53.824,
      "duration": 0.235,
      "velocity": 0.51,
      "hand": "right"
    },
    {
      "midi": 64,
      "time": 54.176,
      "duration": 0.353,
      "velocity": 0.83,
      "hand": "right"
    },
    {
      "midi": 42,
      "time": 54.529,
      "duration": 0.235,
      "velocity": 0.51,
      "hand": "right"
    },
    {
      "midi": 64,
      "time": 54.706,
      "duration": 0.235,
      "velocity": 0.83,
      "hand": "right"
    },
    {
      "midi": 67,
      "time": 54.882,
      "duration": 0.353,
      "velocity": 0.83,
      "hand": "right"
    },
    {
      "midi": 42,
      "time": 55.235,
      "duration": 0.235,
      "velocity": 0.51,
      "hand": "right"
    },
    {
      "midi": 64,
      "time": 55.412,
      "duration": 0.235,
      "velocity": 0.83,
      "hand": "right"
    },
    {
      "midi": 67,
      "time": 55.588,
      "duration": 0.353,
      "velocity": 0.83,
      "hand": "right"
    },
    {
      "midi": 42,
      "time": 55.941,
      "duration": 0.235,
      "velocity": 0.51,
      "hand": "right"
    },
    {
      "midi": 71,
      "time": 56.118,
      "duration": 0.235,
      "velocity": 0.83,
      "hand": "right"
    },
    {
      "midi": 69,
      "time": 56.294,
      "duration": 0.882,
      "velocity": 0.83,
      "hand": "right"
    },
    {
      "midi": 62,
      "time": 56.471,
      "duration": 0.353,
      "velocity": 0.79,
      "hand": "right"
    },
    {
      "midi": 42,
      "time": 56.647,
      "duration": 0.235,
      "velocity": 0.51,
      "hand": "right"
    },
    {
      "midi": 42,
      "time": 56.824,
      "duration": 0.235,
      "velocity": 0.43,
      "hand": "right"
    },
    {
      "midi": 62,
      "time": 57,
      "duration": 0.353,
      "velocity": 0.79,
      "hand": "right"
    },
    {
      "midi": 42,
      "time": 57.353,
      "duration": 0.235,
      "velocity": 0.51,
      "hand": "right"
    },
    {
      "midi": 62,
      "time": 57.529,
      "duration": 0.235,
      "velocity": 0.79,
      "hand": "right"
    },
    {
      "midi": 69,
      "time": 57.706,
      "duration": 0.529,
      "velocity": 0.83,
      "hand": "right"
    },
    {
      "midi": 42,
      "time": 58.059,
      "duration": 0.235,
      "velocity": 0.51,
      "hand": "right"
    },
    {
      "midi": 42,
      "time": 58.412,
      "duration": 0.235,
      "velocity": 0.58,
      "hand": "right"
    },
    {
      "midi": 42,
      "time": 58.765,
      "duration": 0.235,
      "velocity": 0.51,
      "hand": "right"
    },
    {
      "midi": 74,
      "time": 59.118,
      "duration": 0.529,
      "velocity": 0.83,
      "hand": "right"
    },
    {
      "midi": 42,
      "time": 59.471,
      "duration": 0.235,
      "velocity": 0.51,
      "hand": "right"
    },
    {
      "midi": 74,
      "time": 59.824,
      "duration": 0.353,
      "velocity": 0.83,
      "hand": "right"
    },
    {
      "midi": 42,
      "time": 60.176,
      "duration": 0.235,
      "velocity": 0.51,
      "hand": "right"
    },
    {
      "midi": 74,
      "time": 60.353,
      "duration": 0.235,
      "velocity": 0.83,
      "hand": "right"
    },
    {
      "midi": 42,
      "time": 60.882,
      "duration": 0.235,
      "velocity": 0.51,
      "hand": "right"
    },
    {
      "midi": 46,
      "time": 61.059,
      "duration": 0.235,
      "velocity": 0.58,
      "hand": "right"
    },
    {
      "midi": 74,
      "time": 61.235,
      "duration": 0.353,
      "velocity": 0.83,
      "hand": "right"
    },
    {
      "midi": 42,
      "time": 61.588,
      "duration": 0.235,
      "velocity": 0.51,
      "hand": "right"
    },
    {
      "midi": 73,
      "time": 61.765,
      "duration": 0.235,
      "velocity": 0.83,
      "hand": "right"
    },
    {
      "midi": 71,
      "time": 61.941,
      "duration": 0.882,
      "velocity": 0.83,
      "hand": "right"
    },
    {
      "midi": 42,
      "time": 62.294,
      "duration": 0.235,
      "velocity": 0.51,
      "hand": "right"
    },
    {
      "midi": 42,
      "time": 62.471,
      "duration": 0.235,
      "velocity": 0.43,
      "hand": "right"
    },
    {
      "midi": 67,
      "time": 62.647,
      "duration": 0.353,
      "velocity": 0.83,
      "hand": "right"
    },
    {
      "midi": 42,
      "time": 63,
      "duration": 0.235,
      "velocity": 0.51,
      "hand": "right"
    },
    {
      "midi": 67,
      "time": 63.176,
      "duration": 0.235,
      "velocity": 0.83,
      "hand": "right"
    },
    {
      "midi": 67,
      "time": 63.353,
      "duration": 0.529,
      "velocity": 0.83,
      "hand": "right"
    },
    {
      "midi": 42,
      "time": 63.706,
      "duration": 0.235,
      "velocity": 0.51,
      "hand": "right"
    },
    {
      "midi": 71,
      "time": 64.059,
      "duration": 0.529,
      "velocity": 0.83,
      "hand": "right"
    },
    {
      "midi": 42,
      "time": 64.412,
      "duration": 0.235,
      "velocity": 0.51,
      "hand": "right"
    },
    {
      "midi": 67,
      "time": 64.588,
      "duration": 0.235,
      "velocity": 0.83,
      "hand": "right"
    },
    {
      "midi": 69,
      "time": 64.765,
      "duration": 0.529,
      "velocity": 0.83,
      "hand": "right"
    },
    {
      "midi": 42,
      "time": 65.118,
      "duration": 0.235,
      "velocity": 0.73,
      "hand": "right"
    },
    {
      "midi": 66,
      "time": 65.471,
      "duration": 0.353,
      "velocity": 0.83,
      "hand": "right"
    },
    {
      "midi": 42,
      "time": 65.824,
      "duration": 0.235,
      "velocity": 0.51,
      "hand": "right"
    },
    {
      "midi": 62,
      "time": 66,
      "duration": 0.235,
      "velocity": 0.83,
      "hand": "right"
    },
    {
      "midi": 64,
      "time": 66.176,
      "duration": 0.529,
      "velocity": 0.83,
      "hand": "right"
    },
    {
      "midi": 42,
      "time": 66.529,
      "duration": 0.235,
      "velocity": 0.73,
      "hand": "right"
    },
    {
      "midi": 42,
      "time": 66.706,
      "duration": 0.235,
      "velocity": 0.43,
      "hand": "right"
    },
    {
      "midi": 66,
      "time": 66.882,
      "duration": 0.353,
      "velocity": 0.83,
      "hand": "right"
    },
    {
      "midi": 42,
      "time": 67.235,
      "duration": 0.235,
      "velocity": 0.51,
      "hand": "right"
    },
    {
      "midi": 64,
      "time": 67.412,
      "duration": 0.235,
      "velocity": 0.83,
      "hand": "right"
    },
    {
      "midi": 62,
      "time": 67.588,
      "duration": 1.588,
      "velocity": 0.83,
      "hand": "right"
    },
    {
      "midi": 42,
      "time": 67.941,
      "duration": 0.235,
      "velocity": 0.51,
      "hand": "right"
    },
    {
      "midi": 59,
      "time": 68.294,
      "duration": 0.529,
      "velocity": 0.83,
      "hand": "right"
    },
    {
      "midi": 42,
      "time": 68.647,
      "duration": 0.235,
      "velocity": 0.51,
      "hand": "right"
    },
    {
      "midi": 62,
      "time": 69,
      "duration": 0.529,
      "velocity": 0.83,
      "hand": "right"
    },
    {
      "midi": 42,
      "time": 69.353,
      "duration": 0.235,
      "velocity": 0.51,
      "hand": "right"
    },
    {
      "midi": 38,
      "time": 69.529,
      "duration": 0.235,
      "velocity": 0.58,
      "hand": "right"
    },
    {
      "midi": 42,
      "time": 69.706,
      "duration": 0.235,
      "velocity": 0.58,
      "hand": "right"
    },
    {
      "midi": 46,
      "time": 70.059,
      "duration": 0.235,
      "velocity": 0.65,
      "hand": "right"
    },
    {
      "midi": 66,
      "time": 70.412,
      "duration": 0.529,
      "velocity": 0.83,
      "hand": "right"
    },
    {
      "midi": 42,
      "time": 70.765,
      "duration": 0.235,
      "velocity": 0.51,
      "hand": "right"
    },
    {
      "midi": 66,
      "time": 71.118,
      "duration": 0.353,
      "velocity": 0.83,
      "hand": "right"
    },
    {
      "midi": 42,
      "time": 71.471,
      "duration": 0.235,
      "velocity": 0.51,
      "hand": "right"
    },
    {
      "midi": 65,
      "time": 71.647,
      "duration": 0.235,
      "velocity": 0.83,
      "hand": "right"
    },
    {
      "midi": 66,
      "time": 71.824,
      "duration": 0.529,
      "velocity": 0.83,
      "hand": "right"
    },
    {
      "midi": 42,
      "time": 72.176,
      "duration": 0.235,
      "velocity": 0.51,
      "hand": "right"
    },
    {
      "midi": 66,
      "time": 72.529,
      "duration": 0.353,
      "velocity": 0.83,
      "hand": "right"
    },
    {
      "midi": 42,
      "time": 72.882,
      "duration": 0.235,
      "velocity": 0.51,
      "hand": "right"
    },
    {
      "midi": 67,
      "time": 73.059,
      "duration": 0.235,
      "velocity": 0.83,
      "hand": "right"
    },
    {
      "midi": 69,
      "time": 73.235,
      "duration": 0.882,
      "velocity": 0.83,
      "hand": "right"
    },
    {
      "midi": 42,
      "time": 73.588,
      "duration": 0.235,
      "velocity": 0.51,
      "hand": "right"
    },
    {
      "midi": 42,
      "time": 73.941,
      "duration": 0.235,
      "velocity": 0.58,
      "hand": "right"
    },
    {
      "midi": 42,
      "time": 74.294,
      "duration": 0.235,
      "velocity": 0.51,
      "hand": "right"
    },
    {
      "midi": 69,
      "time": 74.647,
      "duration": 0.529,
      "velocity": 0.83,
      "hand": "right"
    },
    {
      "midi": 42,
      "time": 75,
      "duration": 0.235,
      "velocity": 0.51,
      "hand": "right"
    },
    {
      "midi": 69,
      "time": 75.176,
      "duration": 0.353,
      "velocity": 0.83,
      "hand": "right"
    },
    {
      "midi": 42,
      "time": 75.529,
      "duration": 0.235,
      "velocity": 0.51,
      "hand": "right"
    },
    {
      "midi": 66,
      "time": 75.706,
      "duration": 0.235,
      "velocity": 0.83,
      "hand": "right"
    },
    {
      "midi": 64,
      "time": 75.882,
      "duration": 0.529,
      "velocity": 0.83,
      "hand": "right"
    },
    {
      "midi": 42,
      "time": 76.235,
      "duration": 0.235,
      "velocity": 0.51,
      "hand": "right"
    },
    {
      "midi": 64,
      "time": 76.588,
      "duration": 0.529,
      "velocity": 0.83,
      "hand": "right"
    },
    {
      "midi": 42,
      "time": 76.941,
      "duration": 0.235,
      "velocity": 0.51,
      "hand": "right"
    },
    {
      "midi": 66,
      "time": 77.294,
      "duration": 0.529,
      "velocity": 0.83,
      "hand": "right"
    },
    {
      "midi": 42,
      "time": 77.647,
      "duration": 0.235,
      "velocity": 0.51,
      "hand": "right"
    },
    {
      "midi": 67,
      "time": 78,
      "duration": 0.353,
      "velocity": 0.83,
      "hand": "right"
    },
    {
      "midi": 42,
      "time": 78.353,
      "duration": 0.235,
      "velocity": 0.51,
      "hand": "right"
    },
    {
      "midi": 66,
      "time": 78.529,
      "duration": 0.235,
      "velocity": 0.83,
      "hand": "right"
    },
    {
      "midi": 64,
      "time": 78.706,
      "duration": 1.412,
      "velocity": 0.83,
      "hand": "right"
    },
    {
      "midi": 42,
      "time": 79.059,
      "duration": 0.235,
      "velocity": 0.51,
      "hand": "right"
    },
    {
      "midi": 42,
      "time": 79.412,
      "duration": 0.235,
      "velocity": 0.58,
      "hand": "right"
    },
    {
      "midi": 42,
      "time": 79.765,
      "duration": 0.235,
      "velocity": 0.51,
      "hand": "right"
    },
    {
      "midi": 42,
      "time": 80.118,
      "duration": 0.235,
      "velocity": 0.65,
      "hand": "right"
    },
    {
      "midi": 42,
      "time": 80.471,
      "duration": 0.235,
      "velocity": 0.51,
      "hand": "right"
    },
    {
      "midi": 42,
      "time": 80.824,
      "duration": 0.235,
      "velocity": 0.58,
      "hand": "right"
    },
    {
      "midi": 42,
      "time": 81.176,
      "duration": 0.235,
      "velocity": 0.51,
      "hand": "right"
    },
    {
      "midi": 66,
      "time": 81.529,
      "duration": 0.529,
      "velocity": 0.83,
      "hand": "right"
    },
    {
      "midi": 42,
      "time": 81.882,
      "duration": 0.235,
      "velocity": 0.51,
      "hand": "right"
    },
    {
      "midi": 66,
      "time": 82.235,
      "duration": 0.353,
      "velocity": 0.83,
      "hand": "right"
    },
    {
      "midi": 42,
      "time": 82.588,
      "duration": 0.235,
      "velocity": 0.51,
      "hand": "right"
    },
    {
      "midi": 65,
      "time": 82.765,
      "duration": 0.235,
      "velocity": 0.83,
      "hand": "right"
    },
    {
      "midi": 66,
      "time": 82.941,
      "duration": 0.529,
      "velocity": 0.83,
      "hand": "right"
    },
    {
      "midi": 42,
      "time": 83.294,
      "duration": 0.235,
      "velocity": 0.51,
      "hand": "right"
    },
    {
      "midi": 66,
      "time": 83.647,
      "duration": 0.353,
      "velocity": 0.83,
      "hand": "right"
    },
    {
      "midi": 42,
      "time": 84,
      "duration": 0.235,
      "velocity": 0.51,
      "hand": "right"
    },
    {
      "midi": 67,
      "time": 84.176,
      "duration": 0.235,
      "velocity": 0.83,
      "hand": "right"
    },
    {
      "midi": 69,
      "time": 84.353,
      "duration": 0.882,
      "velocity": 0.83,
      "hand": "right"
    },
    {
      "midi": 42,
      "time": 84.706,
      "duration": 0.235,
      "velocity": 0.51,
      "hand": "right"
    },
    {
      "midi": 42,
      "time": 85.059,
      "duration": 0.235,
      "velocity": 0.58,
      "hand": "right"
    },
    {
      "midi": 42,
      "time": 85.412,
      "duration": 0.235,
      "velocity": 0.51,
      "hand": "right"
    },
    {
      "midi": 69,
      "time": 85.765,
      "duration": 0.529,
      "velocity": 0.83,
      "hand": "right"
    },
    {
      "midi": 42,
      "time": 86.118,
      "duration": 0.235,
      "velocity": 0.51,
      "hand": "right"
    },
    {
      "midi": 69,
      "time": 86.471,
      "duration": 0.353,
      "velocity": 0.83,
      "hand": "right"
    },
    {
      "midi": 42,
      "time": 86.824,
      "duration": 0.235,
      "velocity": 0.51,
      "hand": "right"
    },
    {
      "midi": 66,
      "time": 87,
      "duration": 0.235,
      "velocity": 0.83,
      "hand": "right"
    },
    {
      "midi": 64,
      "time": 87.176,
      "duration": 0.529,
      "velocity": 0.83,
      "hand": "right"
    },
    {
      "midi": 42,
      "time": 87.529,
      "duration": 0.235,
      "velocity": 0.51,
      "hand": "right"
    },
    {
      "midi": 64,
      "time": 87.882,
      "duration": 0.235,
      "velocity": 0.83,
      "hand": "right"
    },
    {
      "midi": 64,
      "time": 88.235,
      "duration": 0.235,
      "velocity": 0.83,
      "hand": "right"
    },
    {
      "midi": 64,
      "time": 88.588,
      "duration": 0.529,
      "velocity": 0.83,
      "hand": "right"
    },
    {
      "midi": 42,
      "time": 88.941,
      "duration": 0.235,
      "velocity": 0.51,
      "hand": "right"
    },
    {
      "midi": 66,
      "time": 89.294,
      "duration": 0.353,
      "velocity": 0.83,
      "hand": "right"
    },
    {
      "midi": 42,
      "time": 89.647,
      "duration": 0.235,
      "velocity": 0.51,
      "hand": "right"
    },
    {
      "midi": 64,
      "time": 89.824,
      "duration": 0.235,
      "velocity": 0.83,
      "hand": "right"
    },
    {
      "midi": 62,
      "time": 90,
      "duration": 1.412,
      "velocity": 0.83,
      "hand": "right"
    },
    {
      "midi": 42,
      "time": 90.353,
      "duration": 0.235,
      "velocity": 0.36,
      "hand": "right"
    },
    {
      "midi": 46,
      "time": 90.706,
      "duration": 0.235,
      "velocity": 0.73,
      "hand": "right"
    },
    {
      "midi": 35,
      "time": 91.235,
      "duration": 0.235,
      "velocity": 0.65,
      "hand": "right"
    },
    {
      "midi": 38,
      "time": 91.412,
      "duration": 0.235,
      "velocity": 0.73,
      "hand": "right"
    },
    {
      "midi": 35,
      "time": 91.941,
      "duration": 0.235,
      "velocity": 0.65,
      "hand": "right"
    },
    {
      "midi": 38,
      "time": 92.118,
      "duration": 0.235,
      "velocity": 0.73,
      "hand": "right"
    },
    {
      "midi": 41,
      "time": 92.471,
      "duration": 0.235,
      "velocity": 0.83,
      "hand": "right"
    },
    {
      "midi": 71,
      "time": 92.824,
      "duration": 0.529,
      "velocity": 0.83,
      "hand": "right"
    },
    {
      "midi": 42,
      "time": 93.176,
      "duration": 0.235,
      "velocity": 0.51,
      "hand": "right"
    },
    {
      "midi": 71,
      "time": 93.529,
      "duration": 0.353,
      "velocity": 0.83,
      "hand": "right"
    },
    {
      "midi": 42,
      "time": 93.882,
      "duration": 0.235,
      "velocity": 0.51,
      "hand": "right"
    },
    {
      "midi": 71,
      "time": 94.059,
      "duration": 0.235,
      "velocity": 0.83,
      "hand": "right"
    },
    {
      "midi": 42,
      "time": 94.588,
      "duration": 0.235,
      "velocity": 0.51,
      "hand": "right"
    },
    {
      "midi": 71,
      "time": 94.941,
      "duration": 0.353,
      "velocity": 0.83,
      "hand": "right"
    },
    {
      "midi": 42,
      "time": 95.294,
      "duration": 0.235,
      "velocity": 0.51,
      "hand": "right"
    },
    {
      "midi": 67,
      "time": 95.471,
      "duration": 0.235,
      "velocity": 0.83,
      "hand": "right"
    },
    {
      "midi": 66,
      "time": 95.647,
      "duration": 0.882,
      "velocity": 0.83,
      "hand": "right"
    },
    {
      "midi": 42,
      "time": 96,
      "duration": 0.235,
      "velocity": 0.51,
      "hand": "right"
    },
    {
      "midi": 42,
      "time": 96.353,
      "duration": 0.235,
      "velocity": 0.58,
      "hand": "right"
    },
    {
      "midi": 42,
      "time": 96.706,
      "duration": 0.235,
      "velocity": 0.51,
      "hand": "right"
    },
    {
      "midi": 69,
      "time": 97.059,
      "duration": 0.529,
      "velocity": 0.83,
      "hand": "right"
    },
    {
      "midi": 42,
      "time": 97.412,
      "duration": 0.235,
      "velocity": 0.51,
      "hand": "right"
    },
    {
      "midi": 42,
      "time": 97.765,
      "duration": 0.235,
      "velocity": 0.58,
      "hand": "right"
    },
    {
      "midi": 42,
      "time": 98.118,
      "duration": 0.235,
      "velocity": 0.51,
      "hand": "right"
    },
    {
      "midi": 71,
      "time": 98.471,
      "duration": 0.529,
      "velocity": 0.83,
      "hand": "right"
    },
    {
      "midi": 42,
      "time": 98.824,
      "duration": 0.235,
      "velocity": 0.51,
      "hand": "right"
    },
    {
      "midi": 71,
      "time": 99.176,
      "duration": 0.353,
      "velocity": 0.83,
      "hand": "right"
    },
    {
      "midi": 42,
      "time": 99.529,
      "duration": 0.235,
      "velocity": 0.51,
      "hand": "right"
    },
    {
      "midi": 71,
      "time": 99.706,
      "duration": 0.235,
      "velocity": 0.83,
      "hand": "right"
    },
    {
      "midi": 74,
      "time": 100.235,
      "duration": 0.235,
      "velocity": 0.83,
      "hand": "right"
    },
    {
      "midi": 73,
      "time": 100.588,
      "duration": 0.235,
      "velocity": 0.83,
      "hand": "right"
    },
    {
      "midi": 71,
      "time": 100.941,
      "duration": 0.235,
      "velocity": 0.83,
      "hand": "right"
    },
    {
      "midi": 69,
      "time": 101.294,
      "duration": 0.882,
      "velocity": 0.83,
      "hand": "right"
    },
    {
      "midi": 42,
      "time": 101.471,
      "duration": 0.235,
      "velocity": 0.43,
      "hand": "right"
    },
    {
      "midi": 42,
      "time": 102,
      "duration": 0.235,
      "velocity": 0.58,
      "hand": "right"
    },
    {
      "midi": 42,
      "time": 102.353,
      "duration": 0.235,
      "velocity": 0.51,
      "hand": "right"
    },
    {
      "midi": 46,
      "time": 102.529,
      "duration": 0.235,
      "velocity": 0.39,
      "hand": "right"
    },
    {
      "midi": 67,
      "time": 102.706,
      "duration": 0.529,
      "velocity": 0.83,
      "hand": "right"
    },
    {
      "midi": 42,
      "time": 103.059,
      "duration": 0.235,
      "velocity": 0.51,
      "hand": "right"
    },
    {
      "midi": 42,
      "time": 103.412,
      "duration": 0.235,
      "velocity": 0.58,
      "hand": "right"
    },
    {
      "midi": 42,
      "time": 103.765,
      "duration": 0.235,
      "velocity": 0.51,
      "hand": "right"
    },
    {
      "midi": 66,
      "time": 104.118,
      "duration": 0.529,
      "velocity": 0.83,
      "hand": "right"
    },
    {
      "midi": 42,
      "time": 104.471,
      "duration": 0.235,
      "velocity": 0.51,
      "hand": "right"
    },
    {
      "midi": 66,
      "time": 104.824,
      "duration": 0.353,
      "velocity": 0.83,
      "hand": "right"
    },
    {
      "midi": 42,
      "time": 105.176,
      "duration": 0.235,
      "velocity": 0.51,
      "hand": "right"
    },
    {
      "midi": 65,
      "time": 105.353,
      "duration": 0.235,
      "velocity": 0.83,
      "hand": "right"
    },
    {
      "midi": 66,
      "time": 105.529,
      "duration": 0.529,
      "velocity": 0.83,
      "hand": "right"
    },
    {
      "midi": 42,
      "time": 105.882,
      "duration": 0.235,
      "velocity": 0.51,
      "hand": "right"
    },
    {
      "midi": 66,
      "time": 106.235,
      "duration": 0.353,
      "velocity": 0.83,
      "hand": "right"
    },
    {
      "midi": 42,
      "time": 106.588,
      "duration": 0.235,
      "velocity": 0.51,
      "hand": "right"
    },
    {
      "midi": 67,
      "time": 106.765,
      "duration": 0.235,
      "velocity": 0.83,
      "hand": "right"
    },
    {
      "midi": 69,
      "time": 106.941,
      "duration": 0.882,
      "velocity": 0.83,
      "hand": "right"
    },
    {
      "midi": 42,
      "time": 107.294,
      "duration": 0.235,
      "velocity": 0.51,
      "hand": "right"
    },
    {
      "midi": 42,
      "time": 107.647,
      "duration": 0.235,
      "velocity": 0.58,
      "hand": "right"
    },
    {
      "midi": 42,
      "time": 108,
      "duration": 0.235,
      "velocity": 0.51,
      "hand": "right"
    },
    {
      "midi": 69,
      "time": 108.353,
      "duration": 0.529,
      "velocity": 0.83,
      "hand": "right"
    },
    {
      "midi": 42,
      "time": 108.706,
      "duration": 0.235,
      "velocity": 0.51,
      "hand": "right"
    },
    {
      "midi": 69,
      "time": 109.059,
      "duration": 0.353,
      "velocity": 0.83,
      "hand": "right"
    },
    {
      "midi": 42,
      "time": 109.412,
      "duration": 0.235,
      "velocity": 0.51,
      "hand": "right"
    },
    {
      "midi": 66,
      "time": 109.588,
      "duration": 0.235,
      "velocity": 0.83,
      "hand": "right"
    },
    {
      "midi": 64,
      "time": 109.765,
      "duration": 0.529,
      "velocity": 0.83,
      "hand": "right"
    },
    {
      "midi": 42,
      "time": 110.118,
      "duration": 0.235,
      "velocity": 0.36,
      "hand": "right"
    },
    {
      "midi": 64,
      "time": 110.471,
      "duration": 0.353,
      "velocity": 0.83,
      "hand": "right"
    },
    {
      "midi": 64,
      "time": 111,
      "duration": 0.235,
      "velocity": 0.83,
      "hand": "right"
    },
    {
      "midi": 38,
      "time": 111.353,
      "duration": 0.235,
      "velocity": 0.43,
      "hand": "right"
    },
    {
      "midi": 35,
      "time": 111.706,
      "duration": 0.235,
      "velocity": 0.65,
      "hand": "right"
    },
    {
      "midi": 66,
      "time": 111.882,
      "duration": 0.353,
      "velocity": 0.83,
      "hand": "right"
    },
    {
      "midi": 38,
      "time": 112.059,
      "duration": 0.235,
      "velocity": 0.43,
      "hand": "right"
    },
    {
      "midi": 41,
      "time": 112.235,
      "duration": 0.235,
      "velocity": 0.83,
      "hand": "right"
    },
    {
      "midi": 64,
      "time": 112.412,
      "duration": 0.235,
      "velocity": 0.83,
      "hand": "right"
    },
    {
      "midi": 62,
      "time": 112.588,
      "duration": 1.412,
      "velocity": 0.83,
      "hand": "right"
    },
    {
      "midi": 38,
      "time": 113.118,
      "duration": 0.235,
      "velocity": 0.36,
      "hand": "right"
    },
    {
      "midi": 35,
      "time": 113.471,
      "duration": 0.235,
      "velocity": 0.65,
      "hand": "right"
    },
    {
      "midi": 48,
      "time": 113.647,
      "duration": 0.235,
      "velocity": 0.73,
      "hand": "right"
    },
    {
      "midi": 38,
      "time": 114.176,
      "duration": 0.235,
      "velocity": 0.29,
      "hand": "right"
    },
    {
      "midi": 45,
      "time": 114.353,
      "duration": 0.235,
      "velocity": 0.73,
      "hand": "right"
    },
    {
      "midi": 35,
      "time": 114.529,
      "duration": 0.235,
      "velocity": 0.65,
      "hand": "right"
    },
    {
      "midi": 41,
      "time": 114.706,
      "duration": 0.235,
      "velocity": 0.73,
      "hand": "right"
    },
    {
      "midi": 41,
      "time": 115.059,
      "duration": 0.235,
      "velocity": 0.83,
      "hand": "right"
    },
    {
      "midi": 69,
      "time": 115.412,
      "duration": 1.588,
      "velocity": 0.83,
      "hand": "right"
    },
    {
      "midi": 66,
      "time": 115.588,
      "duration": 0.353,
      "velocity": 0.83,
      "hand": "right"
    },
    {
      "midi": 42,
      "time": 115.765,
      "duration": 0.235,
      "velocity": 0.51,
      "hand": "right"
    },
    {
      "midi": 66,
      "time": 116.118,
      "duration": 0.353,
      "velocity": 0.83,
      "hand": "right"
    },
    {
      "midi": 42,
      "time": 116.471,
      "duration": 0.235,
      "velocity": 0.51,
      "hand": "right"
    },
    {
      "midi": 66,
      "time": 116.647,
      "duration": 0.235,
      "velocity": 0.83,
      "hand": "right"
    },
    {
      "midi": 69,
      "time": 116.824,
      "duration": 0.353,
      "velocity": 0.83,
      "hand": "right"
    },
    {
      "midi": 42,
      "time": 117.176,
      "duration": 0.235,
      "velocity": 0.51,
      "hand": "right"
    },
    {
      "midi": 66,
      "time": 117.353,
      "duration": 0.235,
      "velocity": 0.83,
      "hand": "right"
    },
    {
      "midi": 69,
      "time": 117.529,
      "duration": 0.353,
      "velocity": 0.83,
      "hand": "right"
    },
    {
      "midi": 42,
      "time": 117.882,
      "duration": 0.235,
      "velocity": 0.51,
      "hand": "right"
    },
    {
      "midi": 74,
      "time": 118.059,
      "duration": 0.235,
      "velocity": 0.83,
      "hand": "right"
    },
    {
      "midi": 73,
      "time": 118.235,
      "duration": 1.588,
      "velocity": 0.83,
      "hand": "right"
    },
    {
      "midi": 67,
      "time": 118.412,
      "duration": 0.353,
      "velocity": 0.83,
      "hand": "right"
    },
    {
      "midi": 42,
      "time": 118.588,
      "duration": 0.235,
      "velocity": 0.51,
      "hand": "right"
    },
    {
      "midi": 42,
      "time": 118.765,
      "duration": 0.235,
      "velocity": 0.43,
      "hand": "right"
    },
    {
      "midi": 67,
      "time": 118.941,
      "duration": 0.353,
      "velocity": 0.83,
      "hand": "right"
    },
    {
      "midi": 42,
      "time": 119.294,
      "duration": 0.235,
      "velocity": 0.51,
      "hand": "right"
    },
    {
      "midi": 67,
      "time": 119.471,
      "duration": 0.235,
      "velocity": 0.83,
      "hand": "right"
    },
    {
      "midi": 73,
      "time": 119.647,
      "duration": 0.529,
      "velocity": 0.83,
      "hand": "right"
    },
    {
      "midi": 42,
      "time": 120,
      "duration": 0.235,
      "velocity": 0.51,
      "hand": "right"
    },
    {
      "midi": 42,
      "time": 120.353,
      "duration": 0.235,
      "velocity": 0.58,
      "hand": "right"
    },
    {
      "midi": 42,
      "time": 120.706,
      "duration": 0.235,
      "velocity": 0.51,
      "hand": "right"
    },
    {
      "midi": 46,
      "time": 120.882,
      "duration": 0.235,
      "velocity": 0.58,
      "hand": "right"
    },
    {
      "midi": 67,
      "time": 121.059,
      "duration": 1.588,
      "velocity": 0.83,
      "hand": "right"
    },
    {
      "midi": 64,
      "time": 121.235,
      "duration": 0.353,
      "velocity": 0.83,
      "hand": "right"
    },
    {
      "midi": 42,
      "time": 121.412,
      "duration": 0.235,
      "velocity": 0.51,
      "hand": "right"
    },
    {
      "midi": 64,
      "time": 121.765,
      "duration": 0.353,
      "velocity": 0.83,
      "hand": "right"
    },
    {
      "midi": 42,
      "time": 122.118,
      "duration": 0.235,
      "velocity": 0.51,
      "hand": "right"
    },
    {
      "midi": 64,
      "time": 122.294,
      "duration": 0.235,
      "velocity": 0.83,
      "hand": "right"
    },
    {
      "midi": 67,
      "time": 122.471,
      "duration": 0.353,
      "velocity": 0.83,
      "hand": "right"
    },
    {
      "midi": 42,
      "time": 122.824,
      "duration": 0.235,
      "velocity": 0.51,
      "hand": "right"
    },
    {
      "midi": 64,
      "time": 123,
      "duration": 0.235,
      "velocity": 0.83,
      "hand": "right"
    },
    {
      "midi": 67,
      "time": 123.176,
      "duration": 0.353,
      "velocity": 0.83,
      "hand": "right"
    },
    {
      "midi": 42,
      "time": 123.529,
      "duration": 0.235,
      "velocity": 0.51,
      "hand": "right"
    },
    {
      "midi": 71,
      "time": 123.706,
      "duration": 0.235,
      "velocity": 0.83,
      "hand": "right"
    },
    {
      "midi": 69,
      "time": 123.882,
      "duration": 0.882,
      "velocity": 0.83,
      "hand": "right"
    },
    {
      "midi": 62,
      "time": 124.059,
      "duration": 0.353,
      "velocity": 0.79,
      "hand": "right"
    },
    {
      "midi": 42,
      "time": 124.235,
      "duration": 0.235,
      "velocity": 0.51,
      "hand": "right"
    },
    {
      "midi": 42,
      "time": 124.412,
      "duration": 0.235,
      "velocity": 0.43,
      "hand": "right"
    },
    {
      "midi": 62,
      "time": 124.588,
      "duration": 0.353,
      "velocity": 0.79,
      "hand": "right"
    },
    {
      "midi": 62,
      "time": 124.941,
      "duration": 0.235,
      "velocity": 0.79,
      "hand": "right"
    },
    {
      "midi": 69,
      "time": 125.118,
      "duration": 0.529,
      "velocity": 0.83,
      "hand": "right"
    },
    {
      "midi": 42,
      "time": 125.471,
      "duration": 0.235,
      "velocity": 0.51,
      "hand": "right"
    },
    {
      "midi": 42,
      "time": 125.824,
      "duration": 0.235,
      "velocity": 0.58,
      "hand": "right"
    },
    {
      "midi": 42,
      "time": 126.176,
      "duration": 0.235,
      "velocity": 0.51,
      "hand": "right"
    },
    {
      "midi": 42,
      "time": 126.353,
      "duration": 0.235,
      "velocity": 0.43,
      "hand": "right"
    },
    {
      "midi": 74,
      "time": 126.529,
      "duration": 0.529,
      "velocity": 0.83,
      "hand": "right"
    },
    {
      "midi": 42,
      "time": 126.882,
      "duration": 0.235,
      "velocity": 0.51,
      "hand": "right"
    },
    {
      "midi": 42,
      "time": 127.059,
      "duration": 0.235,
      "velocity": 0.43,
      "hand": "right"
    },
    {
      "midi": 74,
      "time": 127.235,
      "duration": 0.353,
      "velocity": 0.83,
      "hand": "right"
    },
    {
      "midi": 42,
      "time": 127.588,
      "duration": 0.235,
      "velocity": 0.51,
      "hand": "right"
    },
    {
      "midi": 74,
      "time": 127.765,
      "duration": 0.235,
      "velocity": 0.83,
      "hand": "right"
    },
    {
      "midi": 46,
      "time": 128.294,
      "duration": 0.235,
      "velocity": 0.51,
      "hand": "right"
    },
    {
      "midi": 74,
      "time": 128.647,
      "duration": 0.353,
      "velocity": 0.83,
      "hand": "right"
    },
    {
      "midi": 42,
      "time": 129,
      "duration": 0.235,
      "velocity": 0.51,
      "hand": "right"
    },
    {
      "midi": 73,
      "time": 129.176,
      "duration": 0.235,
      "velocity": 0.83,
      "hand": "right"
    },
    {
      "midi": 71,
      "time": 129.353,
      "duration": 0.882,
      "velocity": 0.83,
      "hand": "right"
    },
    {
      "midi": 42,
      "time": 129.706,
      "duration": 0.235,
      "velocity": 0.51,
      "hand": "right"
    },
    {
      "midi": 67,
      "time": 130.059,
      "duration": 0.353,
      "velocity": 0.83,
      "hand": "right"
    },
    {
      "midi": 42,
      "time": 130.412,
      "duration": 0.235,
      "velocity": 0.51,
      "hand": "right"
    },
    {
      "midi": 67,
      "time": 130.588,
      "duration": 0.235,
      "velocity": 0.83,
      "hand": "right"
    },
    {
      "midi": 67,
      "time": 130.765,
      "duration": 0.529,
      "velocity": 0.83,
      "hand": "right"
    },
    {
      "midi": 42,
      "time": 131.118,
      "duration": 0.235,
      "velocity": 0.51,
      "hand": "right"
    },
    {
      "midi": 71,
      "time": 131.471,
      "duration": 0.529,
      "velocity": 0.83,
      "hand": "right"
    },
    {
      "midi": 42,
      "time": 131.824,
      "duration": 0.235,
      "velocity": 0.51,
      "hand": "right"
    },
    {
      "midi": 67,
      "time": 132,
      "duration": 0.235,
      "velocity": 0.83,
      "hand": "right"
    },
    {
      "midi": 69,
      "time": 132.176,
      "duration": 0.529,
      "velocity": 0.83,
      "hand": "right"
    },
    {
      "midi": 42,
      "time": 132.529,
      "duration": 0.235,
      "velocity": 0.51,
      "hand": "right"
    },
    {
      "midi": 42,
      "time": 132.706,
      "duration": 0.235,
      "velocity": 0.43,
      "hand": "right"
    },
    {
      "midi": 66,
      "time": 132.882,
      "duration": 0.353,
      "velocity": 0.83,
      "hand": "right"
    },
    {
      "midi": 42,
      "time": 133.235,
      "duration": 0.235,
      "velocity": 0.51,
      "hand": "right"
    },
    {
      "midi": 62,
      "time": 133.412,
      "duration": 0.235,
      "velocity": 0.83,
      "hand": "right"
    },
    {
      "midi": 64,
      "time": 133.588,
      "duration": 0.529,
      "velocity": 0.83,
      "hand": "right"
    },
    {
      "midi": 42,
      "time": 133.941,
      "duration": 0.235,
      "velocity": 0.51,
      "hand": "right"
    },
    {
      "midi": 46,
      "time": 134.118,
      "duration": 0.235,
      "velocity": 0.58,
      "hand": "right"
    },
    {
      "midi": 66,
      "time": 134.294,
      "duration": 0.353,
      "velocity": 0.83,
      "hand": "right"
    },
    {
      "midi": 42,
      "time": 134.647,
      "duration": 0.235,
      "velocity": 0.51,
      "hand": "right"
    },
    {
      "midi": 64,
      "time": 134.824,
      "duration": 0.235,
      "velocity": 0.83,
      "hand": "right"
    },
    {
      "midi": 62,
      "time": 135,
      "duration": 1.588,
      "velocity": 0.83,
      "hand": "right"
    },
    {
      "midi": 42,
      "time": 135.353,
      "duration": 0.235,
      "velocity": 0.51,
      "hand": "right"
    },
    {
      "midi": 59,
      "time": 135.706,
      "duration": 0.529,
      "velocity": 0.83,
      "hand": "right"
    },
    {
      "midi": 42,
      "time": 136.059,
      "duration": 0.235,
      "velocity": 0.51,
      "hand": "right"
    },
    {
      "midi": 62,
      "time": 136.412,
      "duration": 0.529,
      "velocity": 0.83,
      "hand": "right"
    },
    {
      "midi": 42,
      "time": 136.765,
      "duration": 0.235,
      "velocity": 0.51,
      "hand": "right"
    },
    {
      "midi": 38,
      "time": 136.941,
      "duration": 0.235,
      "velocity": 0.58,
      "hand": "right"
    },
    {
      "midi": 42,
      "time": 137.118,
      "duration": 0.235,
      "velocity": 0.58,
      "hand": "right"
    },
    {
      "midi": 46,
      "time": 137.471,
      "duration": 0.235,
      "velocity": 0.65,
      "hand": "right"
    },
    {
      "midi": 66,
      "time": 137.824,
      "duration": 0.529,
      "velocity": 0.83,
      "hand": "right"
    },
    {
      "midi": 42,
      "time": 138.176,
      "duration": 0.235,
      "velocity": 0.51,
      "hand": "right"
    },
    {
      "midi": 66,
      "time": 138.529,
      "duration": 0.353,
      "velocity": 0.83,
      "hand": "right"
    },
    {
      "midi": 42,
      "time": 138.882,
      "duration": 0.235,
      "velocity": 0.51,
      "hand": "right"
    },
    {
      "midi": 65,
      "time": 139.059,
      "duration": 0.235,
      "velocity": 0.83,
      "hand": "right"
    },
    {
      "midi": 66,
      "time": 139.235,
      "duration": 0.529,
      "velocity": 0.83,
      "hand": "right"
    },
    {
      "midi": 42,
      "time": 139.588,
      "duration": 0.235,
      "velocity": 0.51,
      "hand": "right"
    },
    {
      "midi": 66,
      "time": 139.941,
      "duration": 0.353,
      "velocity": 0.83,
      "hand": "right"
    },
    {
      "midi": 42,
      "time": 140.294,
      "duration": 0.235,
      "velocity": 0.51,
      "hand": "right"
    },
    {
      "midi": 67,
      "time": 140.471,
      "duration": 0.235,
      "velocity": 0.83,
      "hand": "right"
    },
    {
      "midi": 69,
      "time": 140.647,
      "duration": 0.882,
      "velocity": 0.83,
      "hand": "right"
    },
    {
      "midi": 42,
      "time": 141,
      "duration": 0.235,
      "velocity": 0.51,
      "hand": "right"
    },
    {
      "midi": 42,
      "time": 141.353,
      "duration": 0.235,
      "velocity": 0.58,
      "hand": "right"
    },
    {
      "midi": 42,
      "time": 141.706,
      "duration": 0.235,
      "velocity": 0.51,
      "hand": "right"
    },
    {
      "midi": 69,
      "time": 142.059,
      "duration": 0.529,
      "velocity": 0.83,
      "hand": "right"
    },
    {
      "midi": 42,
      "time": 142.412,
      "duration": 0.235,
      "velocity": 0.51,
      "hand": "right"
    },
    {
      "midi": 69,
      "time": 142.765,
      "duration": 0.353,
      "velocity": 0.83,
      "hand": "right"
    },
    {
      "midi": 42,
      "time": 143.118,
      "duration": 0.235,
      "velocity": 0.51,
      "hand": "right"
    },
    {
      "midi": 66,
      "time": 143.294,
      "duration": 0.235,
      "velocity": 0.83,
      "hand": "right"
    },
    {
      "midi": 64,
      "time": 143.471,
      "duration": 0.529,
      "velocity": 0.83,
      "hand": "right"
    },
    {
      "midi": 42,
      "time": 143.824,
      "duration": 0.235,
      "velocity": 0.51,
      "hand": "right"
    },
    {
      "midi": 64,
      "time": 144.176,
      "duration": 0.529,
      "velocity": 0.83,
      "hand": "right"
    },
    {
      "midi": 42,
      "time": 144.529,
      "duration": 0.235,
      "velocity": 0.51,
      "hand": "right"
    },
    {
      "midi": 66,
      "time": 144.882,
      "duration": 0.529,
      "velocity": 0.83,
      "hand": "right"
    },
    {
      "midi": 42,
      "time": 145.235,
      "duration": 0.235,
      "velocity": 0.51,
      "hand": "right"
    },
    {
      "midi": 67,
      "time": 145.588,
      "duration": 0.353,
      "velocity": 0.83,
      "hand": "right"
    },
    {
      "midi": 42,
      "time": 145.941,
      "duration": 0.235,
      "velocity": 0.51,
      "hand": "right"
    },
    {
      "midi": 66,
      "time": 146.118,
      "duration": 0.235,
      "velocity": 0.83,
      "hand": "right"
    },
    {
      "midi": 64,
      "time": 146.294,
      "duration": 1.412,
      "velocity": 0.83,
      "hand": "right"
    },
    {
      "midi": 42,
      "time": 146.647,
      "duration": 0.235,
      "velocity": 0.51,
      "hand": "right"
    },
    {
      "midi": 42,
      "time": 147,
      "duration": 0.235,
      "velocity": 0.58,
      "hand": "right"
    },
    {
      "midi": 42,
      "time": 147.353,
      "duration": 0.235,
      "velocity": 0.51,
      "hand": "right"
    },
    {
      "midi": 42,
      "time": 147.706,
      "duration": 0.235,
      "velocity": 0.65,
      "hand": "right"
    },
    {
      "midi": 42,
      "time": 148.059,
      "duration": 0.235,
      "velocity": 0.51,
      "hand": "right"
    },
    {
      "midi": 42,
      "time": 148.412,
      "duration": 0.235,
      "velocity": 0.58,
      "hand": "right"
    },
    {
      "midi": 42,
      "time": 148.765,
      "duration": 0.235,
      "velocity": 0.51,
      "hand": "right"
    },
    {
      "midi": 66,
      "time": 149.118,
      "duration": 0.529,
      "velocity": 0.83,
      "hand": "right"
    },
    {
      "midi": 42,
      "time": 149.471,
      "duration": 0.235,
      "velocity": 0.51,
      "hand": "right"
    },
    {
      "midi": 66,
      "time": 149.824,
      "duration": 0.353,
      "velocity": 0.83,
      "hand": "right"
    },
    {
      "midi": 42,
      "time": 150.176,
      "duration": 0.235,
      "velocity": 0.51,
      "hand": "right"
    },
    {
      "midi": 65,
      "time": 150.353,
      "duration": 0.235,
      "velocity": 0.83,
      "hand": "right"
    },
    {
      "midi": 66,
      "time": 150.529,
      "duration": 0.529,
      "velocity": 0.83,
      "hand": "right"
    },
    {
      "midi": 42,
      "time": 150.882,
      "duration": 0.235,
      "velocity": 0.51,
      "hand": "right"
    },
    {
      "midi": 66,
      "time": 151.235,
      "duration": 0.353,
      "velocity": 0.83,
      "hand": "right"
    },
    {
      "midi": 42,
      "time": 151.588,
      "duration": 0.235,
      "velocity": 0.51,
      "hand": "right"
    },
    {
      "midi": 67,
      "time": 151.765,
      "duration": 0.235,
      "velocity": 0.83,
      "hand": "right"
    },
    {
      "midi": 69,
      "time": 151.941,
      "duration": 0.882,
      "velocity": 0.83,
      "hand": "right"
    },
    {
      "midi": 42,
      "time": 152.294,
      "duration": 0.235,
      "velocity": 0.51,
      "hand": "right"
    },
    {
      "midi": 42,
      "time": 152.647,
      "duration": 0.235,
      "velocity": 0.58,
      "hand": "right"
    },
    {
      "midi": 42,
      "time": 153,
      "duration": 0.235,
      "velocity": 0.51,
      "hand": "right"
    },
    {
      "midi": 69,
      "time": 153.353,
      "duration": 0.529,
      "velocity": 0.83,
      "hand": "right"
    },
    {
      "midi": 42,
      "time": 153.706,
      "duration": 0.235,
      "velocity": 0.51,
      "hand": "right"
    },
    {
      "midi": 69,
      "time": 154.059,
      "duration": 0.353,
      "velocity": 0.83,
      "hand": "right"
    },
    {
      "midi": 42,
      "time": 154.412,
      "duration": 0.235,
      "velocity": 0.51,
      "hand": "right"
    },
    {
      "midi": 66,
      "time": 154.588,
      "duration": 0.235,
      "velocity": 0.83,
      "hand": "right"
    },
    {
      "midi": 64,
      "time": 154.765,
      "duration": 0.529,
      "velocity": 0.83,
      "hand": "right"
    },
    {
      "midi": 42,
      "time": 155.118,
      "duration": 0.235,
      "velocity": 0.51,
      "hand": "right"
    },
    {
      "midi": 64,
      "time": 155.471,
      "duration": 0.235,
      "velocity": 0.83,
      "hand": "right"
    },
    {
      "midi": 64,
      "time": 155.824,
      "duration": 0.235,
      "velocity": 0.83,
      "hand": "right"
    },
    {
      "midi": 64,
      "time": 156.176,
      "duration": 0.529,
      "velocity": 0.83,
      "hand": "right"
    },
    {
      "midi": 42,
      "time": 156.529,
      "duration": 0.235,
      "velocity": 0.51,
      "hand": "right"
    },
    {
      "midi": 66,
      "time": 156.882,
      "duration": 0.353,
      "velocity": 0.83,
      "hand": "right"
    },
    {
      "midi": 42,
      "time": 157.235,
      "duration": 0.235,
      "velocity": 0.51,
      "hand": "right"
    },
    {
      "midi": 64,
      "time": 157.412,
      "duration": 0.235,
      "velocity": 0.83,
      "hand": "right"
    },
    {
      "midi": 62,
      "time": 157.588,
      "duration": 1.412,
      "velocity": 0.83,
      "hand": "right"
    },
    {
      "midi": 42,
      "time": 157.941,
      "duration": 0.235,
      "velocity": 0.51,
      "hand": "right"
    },
    {
      "midi": 42,
      "time": 158.294,
      "duration": 0.235,
      "velocity": 0.58,
      "hand": "right"
    },
    {
      "midi": 42,
      "time": 158.647,
      "duration": 0.235,
      "velocity": 0.51,
      "hand": "right"
    },
    {
      "midi": 42,
      "time": 159,
      "duration": 0.235,
      "velocity": 0.65,
      "hand": "right"
    },
    {
      "midi": 38,
      "time": 159.353,
      "duration": 0.235,
      "velocity": 0.65,
      "hand": "right"
    },
    {
      "midi": 38,
      "time": 159.706,
      "duration": 0.235,
      "velocity": 0.73,
      "hand": "right"
    },
    {
      "midi": 38,
      "time": 160.059,
      "duration": 0.235,
      "velocity": 0.83,
      "hand": "right"
    },
    {
      "midi": 71,
      "time": 160.412,
      "duration": 0.529,
      "velocity": 0.83,
      "hand": "right"
    },
    {
      "midi": 42,
      "time": 160.765,
      "duration": 0.235,
      "velocity": 0.51,
      "hand": "right"
    },
    {
      "midi": 71,
      "time": 161.118,
      "duration": 0.353,
      "velocity": 0.83,
      "hand": "right"
    },
    {
      "midi": 42,
      "time": 161.471,
      "duration": 0.235,
      "velocity": 0.51,
      "hand": "right"
    },
    {
      "midi": 71,
      "time": 161.647,
      "duration": 0.235,
      "velocity": 0.83,
      "hand": "right"
    },
    {
      "midi": 71,
      "time": 161.824,
      "duration": 0.529,
      "velocity": 0.83,
      "hand": "right"
    },
    {
      "midi": 42,
      "time": 162.176,
      "duration": 0.235,
      "velocity": 0.51,
      "hand": "right"
    },
    {
      "midi": 71,
      "time": 162.529,
      "duration": 0.353,
      "velocity": 0.83,
      "hand": "right"
    },
    {
      "midi": 42,
      "time": 162.882,
      "duration": 0.235,
      "velocity": 0.51,
      "hand": "right"
    },
    {
      "midi": 67,
      "time": 163.059,
      "duration": 0.235,
      "velocity": 0.83,
      "hand": "right"
    },
    {
      "midi": 66,
      "time": 163.235,
      "duration": 0.882,
      "velocity": 0.83,
      "hand": "right"
    },
    {
      "midi": 42,
      "time": 163.588,
      "duration": 0.235,
      "velocity": 0.51,
      "hand": "right"
    },
    {
      "midi": 42,
      "time": 163.941,
      "duration": 0.235,
      "velocity": 0.58,
      "hand": "right"
    },
    {
      "midi": 42,
      "time": 164.294,
      "duration": 0.235,
      "velocity": 0.51,
      "hand": "right"
    },
    {
      "midi": 69,
      "time": 164.647,
      "duration": 0.529,
      "velocity": 0.83,
      "hand": "right"
    },
    {
      "midi": 42,
      "time": 165,
      "duration": 0.235,
      "velocity": 0.51,
      "hand": "right"
    },
    {
      "midi": 42,
      "time": 165.353,
      "duration": 0.235,
      "velocity": 0.58,
      "hand": "right"
    },
    {
      "midi": 42,
      "time": 165.706,
      "duration": 0.235,
      "velocity": 0.51,
      "hand": "right"
    },
    {
      "midi": 71,
      "time": 166.059,
      "duration": 0.529,
      "velocity": 0.83,
      "hand": "right"
    },
    {
      "midi": 42,
      "time": 166.412,
      "duration": 0.235,
      "velocity": 0.51,
      "hand": "right"
    },
    {
      "midi": 71,
      "time": 166.765,
      "duration": 0.353,
      "velocity": 0.83,
      "hand": "right"
    },
    {
      "midi": 42,
      "time": 167.118,
      "duration": 0.235,
      "velocity": 0.51,
      "hand": "right"
    },
    {
      "midi": 71,
      "time": 167.294,
      "duration": 0.235,
      "velocity": 0.83,
      "hand": "right"
    },
    {
      "midi": 71,
      "time": 167.471,
      "duration": 0.235,
      "velocity": 0.83,
      "hand": "right"
    },
    {
      "midi": 74,
      "time": 167.824,
      "duration": 0.235,
      "velocity": 0.83,
      "hand": "right"
    },
    {
      "midi": 73,
      "time": 168.176,
      "duration": 0.235,
      "velocity": 0.83,
      "hand": "right"
    },
    {
      "midi": 71,
      "time": 168.529,
      "duration": 0.235,
      "velocity": 0.83,
      "hand": "right"
    },
    {
      "midi": 69,
      "time": 168.882,
      "duration": 0.882,
      "velocity": 0.83,
      "hand": "right"
    },
    {
      "midi": 42,
      "time": 169.235,
      "duration": 0.235,
      "velocity": 0.51,
      "hand": "right"
    },
    {
      "midi": 42,
      "time": 169.588,
      "duration": 0.235,
      "velocity": 0.58,
      "hand": "right"
    },
    {
      "midi": 42,
      "time": 169.941,
      "duration": 0.235,
      "velocity": 0.51,
      "hand": "right"
    },
    {
      "midi": 67,
      "time": 170.294,
      "duration": 0.529,
      "velocity": 0.83,
      "hand": "right"
    },
    {
      "midi": 42,
      "time": 170.647,
      "duration": 0.235,
      "velocity": 0.51,
      "hand": "right"
    },
    {
      "midi": 42,
      "time": 171,
      "duration": 0.235,
      "velocity": 0.58,
      "hand": "right"
    },
    {
      "midi": 42,
      "time": 171.353,
      "duration": 0.235,
      "velocity": 0.51,
      "hand": "right"
    },
    {
      "midi": 66,
      "time": 171.706,
      "duration": 0.529,
      "velocity": 0.83,
      "hand": "right"
    },
    {
      "midi": 42,
      "time": 172.059,
      "duration": 0.235,
      "velocity": 0.51,
      "hand": "right"
    },
    {
      "midi": 66,
      "time": 172.412,
      "duration": 0.353,
      "velocity": 0.83,
      "hand": "right"
    },
    {
      "midi": 42,
      "time": 172.765,
      "duration": 0.235,
      "velocity": 0.51,
      "hand": "right"
    },
    {
      "midi": 65,
      "time": 172.941,
      "duration": 0.235,
      "velocity": 0.83,
      "hand": "right"
    },
    {
      "midi": 66,
      "time": 173.118,
      "duration": 0.529,
      "velocity": 0.83,
      "hand": "right"
    },
    {
      "midi": 42,
      "time": 173.471,
      "duration": 0.235,
      "velocity": 0.51,
      "hand": "right"
    },
    {
      "midi": 66,
      "time": 173.824,
      "duration": 0.353,
      "velocity": 0.83,
      "hand": "right"
    },
    {
      "midi": 42,
      "time": 174.176,
      "duration": 0.235,
      "velocity": 0.51,
      "hand": "right"
    },
    {
      "midi": 67,
      "time": 174.353,
      "duration": 0.235,
      "velocity": 0.83,
      "hand": "right"
    },
    {
      "midi": 69,
      "time": 174.529,
      "duration": 0.882,
      "velocity": 0.83,
      "hand": "right"
    },
    {
      "midi": 42,
      "time": 174.882,
      "duration": 0.235,
      "velocity": 0.51,
      "hand": "right"
    },
    {
      "midi": 42,
      "time": 175.059,
      "duration": 0.235,
      "velocity": 0.58,
      "hand": "right"
    },
    {
      "midi": 42,
      "time": 175.412,
      "duration": 0.235,
      "velocity": 0.51,
      "hand": "right"
    },
    {
      "midi": 69,
      "time": 175.765,
      "duration": 0.529,
      "velocity": 0.83,
      "hand": "right"
    },
    {
      "midi": 42,
      "time": 176.118,
      "duration": 0.235,
      "velocity": 0.51,
      "hand": "right"
    },
    {
      "midi": 69,
      "time": 176.471,
      "duration": 0.353,
      "velocity": 0.83,
      "hand": "right"
    },
    {
      "midi": 42,
      "time": 176.824,
      "duration": 0.235,
      "velocity": 0.51,
      "hand": "right"
    },
    {
      "midi": 66,
      "time": 177,
      "duration": 0.235,
      "velocity": 0.83,
      "hand": "right"
    },
    {
      "midi": 64,
      "time": 177.176,
      "duration": 0.529,
      "velocity": 0.83,
      "hand": "right"
    },
    {
      "midi": 42,
      "time": 177.529,
      "duration": 0.235,
      "velocity": 0.51,
      "hand": "right"
    },
    {
      "midi": 62,
      "time": 177.882,
      "duration": 0.353,
      "velocity": 0.83,
      "hand": "right"
    },
    {
      "midi": 64,
      "time": 178.059,
      "duration": 0.353,
      "velocity": 0.83,
      "hand": "right"
    },
    {
      "midi": 42,
      "time": 178.235,
      "duration": 0.235,
      "velocity": 0.51,
      "hand": "right"
    },
    {
      "midi": 64,
      "time": 178.412,
      "duration": 0.235,
      "velocity": 0.83,
      "hand": "right"
    },
    {
      "midi": 42,
      "time": 178.941,
      "duration": 0.235,
      "velocity": 0.51,
      "hand": "right"
    },
    {
      "midi": 66,
      "time": 179.294,
      "duration": 0.353,
      "velocity": 0.83,
      "hand": "right"
    },
    {
      "midi": 46,
      "time": 179.647,
      "duration": 0.235,
      "velocity": 0.65,
      "hand": "right"
    },
    {
      "midi": 64,
      "time": 179.824,
      "duration": 0.235,
      "velocity": 0.83,
      "hand": "right"
    },
    {
      "midi": 62,
      "time": 180,
      "duration": 1.412,
      "velocity": 0.83,
      "hand": "right"
    },
    {
      "midi": 42,
      "time": 180.353,
      "duration": 0.235,
      "velocity": 0.51,
      "hand": "right"
    },
    {
      "midi": 42,
      "time": 180.706,
      "duration": 0.235,
      "velocity": 0.58,
      "hand": "right"
    },
    {
      "midi": 42,
      "time": 181.059,
      "duration": 0.235,
      "velocity": 0.51,
      "hand": "right"
    },
    {
      "midi": 42,
      "time": 181.412,
      "duration": 0.235,
      "velocity": 0.65,
      "hand": "right"
    },
    {
      "midi": 42,
      "time": 181.765,
      "duration": 0.235,
      "velocity": 0.51,
      "hand": "right"
    },
    {
      "midi": 42,
      "time": 182.118,
      "duration": 0.235,
      "velocity": 0.58,
      "hand": "right"
    },
    {
      "midi": 46,
      "time": 182.471,
      "duration": 0.235,
      "velocity": 0.65,
      "hand": "right"
    },
    {
      "midi": 69,
      "time": 182.824,
      "duration": 1.588,
      "velocity": 0.83,
      "hand": "right"
    },
    {
      "midi": 66,
      "time": 183,
      "duration": 0.353,
      "velocity": 0.83,
      "hand": "right"
    },
    {
      "midi": 42,
      "time": 183.176,
      "duration": 0.235,
      "velocity": 0.51,
      "hand": "right"
    },
    {
      "midi": 42,
      "time": 183.353,
      "duration": 0.235,
      "velocity": 0.43,
      "hand": "right"
    },
    {
      "midi": 66,
      "time": 183.529,
      "duration": 0.353,
      "velocity": 0.83,
      "hand": "right"
    },
    {
      "midi": 42,
      "time": 183.882,
      "duration": 0.235,
      "velocity": 0.51,
      "hand": "right"
    },
    {
      "midi": 66,
      "time": 184.059,
      "duration": 0.235,
      "velocity": 0.83,
      "hand": "right"
    },
    {
      "midi": 69,
      "time": 184.235,
      "duration": 0.353,
      "velocity": 0.83,
      "hand": "right"
    },
    {
      "midi": 42,
      "time": 184.588,
      "duration": 0.235,
      "velocity": 0.51,
      "hand": "right"
    },
    {
      "midi": 66,
      "time": 184.765,
      "duration": 0.235,
      "velocity": 0.83,
      "hand": "right"
    },
    {
      "midi": 69,
      "time": 184.941,
      "duration": 0.353,
      "velocity": 0.83,
      "hand": "right"
    },
    {
      "midi": 42,
      "time": 185.294,
      "duration": 0.235,
      "velocity": 0.51,
      "hand": "right"
    },
    {
      "midi": 74,
      "time": 185.471,
      "duration": 0.235,
      "velocity": 0.83,
      "hand": "right"
    },
    {
      "midi": 73,
      "time": 185.647,
      "duration": 1.588,
      "velocity": 0.83,
      "hand": "right"
    },
    {
      "midi": 67,
      "time": 185.824,
      "duration": 0.353,
      "velocity": 0.83,
      "hand": "right"
    },
    {
      "midi": 42,
      "time": 186,
      "duration": 0.235,
      "velocity": 0.51,
      "hand": "right"
    },
    {
      "midi": 67,
      "time": 186.353,
      "duration": 0.353,
      "velocity": 0.83,
      "hand": "right"
    },
    {
      "midi": 42,
      "time": 186.706,
      "duration": 0.235,
      "velocity": 0.51,
      "hand": "right"
    },
    {
      "midi": 67,
      "time": 186.882,
      "duration": 0.235,
      "velocity": 0.83,
      "hand": "right"
    },
    {
      "midi": 73,
      "time": 187.059,
      "duration": 0.529,
      "velocity": 0.83,
      "hand": "right"
    },
    {
      "midi": 42,
      "time": 187.412,
      "duration": 0.235,
      "velocity": 0.51,
      "hand": "right"
    },
    {
      "midi": 42,
      "time": 187.765,
      "duration": 0.235,
      "velocity": 0.58,
      "hand": "right"
    },
    {
      "midi": 42,
      "time": 188.118,
      "duration": 0.235,
      "velocity": 0.51,
      "hand": "right"
    },
    {
      "midi": 67,
      "time": 188.471,
      "duration": 1.588,
      "velocity": 0.83,
      "hand": "right"
    },
    {
      "midi": 64,
      "time": 188.647,
      "duration": 0.353,
      "velocity": 0.83,
      "hand": "right"
    },
    {
      "midi": 42,
      "time": 188.824,
      "duration": 0.235,
      "velocity": 0.73,
      "hand": "right"
    },
    {
      "midi": 64,
      "time": 189.176,
      "duration": 0.353,
      "velocity": 0.83,
      "hand": "right"
    },
    {
      "midi": 42,
      "time": 189.529,
      "duration": 0.235,
      "velocity": 0.51,
      "hand": "right"
    },
    {
      "midi": 64,
      "time": 189.706,
      "duration": 0.235,
      "velocity": 0.83,
      "hand": "right"
    },
    {
      "midi": 67,
      "time": 189.882,
      "duration": 0.353,
      "velocity": 0.83,
      "hand": "right"
    },
    {
      "midi": 42,
      "time": 190.235,
      "duration": 0.235,
      "velocity": 0.73,
      "hand": "right"
    },
    {
      "midi": 64,
      "time": 190.412,
      "duration": 0.235,
      "velocity": 0.83,
      "hand": "right"
    },
    {
      "midi": 67,
      "time": 190.588,
      "duration": 0.353,
      "velocity": 0.83,
      "hand": "right"
    },
    {
      "midi": 42,
      "time": 190.941,
      "duration": 0.235,
      "velocity": 0.51,
      "hand": "right"
    },
    {
      "midi": 71,
      "time": 191.118,
      "duration": 0.235,
      "velocity": 0.83,
      "hand": "right"
    },
    {
      "midi": 69,
      "time": 191.294,
      "duration": 0.882,
      "velocity": 0.83,
      "hand": "right"
    },
    {
      "midi": 62,
      "time": 191.471,
      "duration": 0.353,
      "velocity": 0.79,
      "hand": "right"
    },
    {
      "midi": 42,
      "time": 191.647,
      "duration": 0.235,
      "velocity": 0.51,
      "hand": "right"
    },
    {
      "midi": 42,
      "time": 191.824,
      "duration": 0.235,
      "velocity": 0.43,
      "hand": "right"
    },
    {
      "midi": 62,
      "time": 192,
      "duration": 0.353,
      "velocity": 0.79,
      "hand": "right"
    },
    {
      "midi": 42,
      "time": 192.353,
      "duration": 0.235,
      "velocity": 0.51,
      "hand": "right"
    },
    {
      "midi": 62,
      "time": 192.529,
      "duration": 0.235,
      "velocity": 0.79,
      "hand": "right"
    },
    {
      "midi": 69,
      "time": 192.706,
      "duration": 0.529,
      "velocity": 0.83,
      "hand": "right"
    },
    {
      "midi": 42,
      "time": 193.059,
      "duration": 0.235,
      "velocity": 0.51,
      "hand": "right"
    },
    {
      "midi": 42,
      "time": 193.412,
      "duration": 0.235,
      "velocity": 0.58,
      "hand": "right"
    },
    {
      "midi": 42,
      "time": 193.765,
      "duration": 0.235,
      "velocity": 0.51,
      "hand": "right"
    },
    {
      "midi": 74,
      "time": 194.118,
      "duration": 0.529,
      "velocity": 0.83,
      "hand": "right"
    },
    {
      "midi": 42,
      "time": 194.471,
      "duration": 0.235,
      "velocity": 0.51,
      "hand": "right"
    },
    {
      "midi": 74,
      "time": 194.824,
      "duration": 0.353,
      "velocity": 0.83,
      "hand": "right"
    },
    {
      "midi": 42,
      "time": 195.176,
      "duration": 0.235,
      "velocity": 0.51,
      "hand": "right"
    },
    {
      "midi": 74,
      "time": 195.353,
      "duration": 0.235,
      "velocity": 0.83,
      "hand": "right"
    },
    {
      "midi": 46,
      "time": 195.882,
      "duration": 0.235,
      "velocity": 0.51,
      "hand": "right"
    },
    {
      "midi": 74,
      "time": 196.235,
      "duration": 0.353,
      "velocity": 0.83,
      "hand": "right"
    },
    {
      "midi": 42,
      "time": 196.588,
      "duration": 0.235,
      "velocity": 0.51,
      "hand": "right"
    },
    {
      "midi": 73,
      "time": 196.765,
      "duration": 0.235,
      "velocity": 0.83,
      "hand": "right"
    },
    {
      "midi": 71,
      "time": 196.941,
      "duration": 0.882,
      "velocity": 0.83,
      "hand": "right"
    },
    {
      "midi": 42,
      "time": 197.294,
      "duration": 0.235,
      "velocity": 0.51,
      "hand": "right"
    },
    {
      "midi": 42,
      "time": 197.471,
      "duration": 0.235,
      "velocity": 0.43,
      "hand": "right"
    },
    {
      "midi": 67,
      "time": 197.647,
      "duration": 0.353,
      "velocity": 0.83,
      "hand": "right"
    },
    {
      "midi": 42,
      "time": 198,
      "duration": 0.235,
      "velocity": 0.51,
      "hand": "right"
    },
    {
      "midi": 67,
      "time": 198.176,
      "duration": 0.235,
      "velocity": 0.83,
      "hand": "right"
    },
    {
      "midi": 67,
      "time": 198.353,
      "duration": 0.529,
      "velocity": 0.83,
      "hand": "right"
    },
    {
      "midi": 42,
      "time": 198.706,
      "duration": 0.235,
      "velocity": 0.51,
      "hand": "right"
    },
    {
      "midi": 71,
      "time": 199.059,
      "duration": 0.529,
      "velocity": 0.83,
      "hand": "right"
    },
    {
      "midi": 42,
      "time": 199.412,
      "duration": 0.235,
      "velocity": 0.51,
      "hand": "right"
    },
    {
      "midi": 67,
      "time": 199.588,
      "duration": 0.235,
      "velocity": 0.83,
      "hand": "right"
    },
    {
      "midi": 69,
      "time": 199.765,
      "duration": 0.529,
      "velocity": 0.83,
      "hand": "right"
    },
    {
      "midi": 42,
      "time": 200.118,
      "duration": 0.235,
      "velocity": 0.36,
      "hand": "right"
    },
    {
      "midi": 66,
      "time": 200.471,
      "duration": 0.353,
      "velocity": 0.83,
      "hand": "right"
    },
    {
      "midi": 62,
      "time": 201,
      "duration": 0.235,
      "velocity": 0.83,
      "hand": "right"
    },
    {
      "midi": 64,
      "time": 201.176,
      "duration": 0.529,
      "velocity": 0.83,
      "hand": "right"
    },
    {
      "midi": 38,
      "time": 201.353,
      "duration": 0.235,
      "velocity": 0.43,
      "hand": "right"
    },
    {
      "midi": 35,
      "time": 201.706,
      "duration": 0.235,
      "velocity": 0.65,
      "hand": "right"
    },
    {
      "midi": 66,
      "time": 201.882,
      "duration": 0.353,
      "velocity": 0.83,
      "hand": "right"
    },
    {
      "midi": 38,
      "time": 202.059,
      "duration": 0.235,
      "velocity": 0.43,
      "hand": "right"
    },
    {
      "midi": 41,
      "time": 202.235,
      "duration": 0.235,
      "velocity": 0.83,
      "hand": "right"
    },
    {
      "midi": 64,
      "time": 202.412,
      "duration": 0.235,
      "velocity": 0.83,
      "hand": "right"
    },
    {
      "midi": 62,
      "time": 202.588,
      "duration": 1.588,
      "velocity": 0.83,
      "hand": "right"
    },
    {
      "midi": 38,
      "time": 203.118,
      "duration": 0.235,
      "velocity": 0.51,
      "hand": "right"
    },
    {
      "midi": 59,
      "time": 203.294,
      "duration": 0.529,
      "velocity": 0.83,
      "hand": "right"
    },
    {
      "midi": 35,
      "time": 203.471,
      "duration": 0.235,
      "velocity": 0.65,
      "hand": "right"
    },
    {
      "midi": 48,
      "time": 203.647,
      "duration": 0.235,
      "velocity": 0.73,
      "hand": "right"
    },
    {
      "midi": 62,
      "time": 204,
      "duration": 0.529,
      "velocity": 0.83,
      "hand": "right"
    },
    {
      "midi": 45,
      "time": 204.176,
      "duration": 0.235,
      "velocity": 0.83,
      "hand": "right"
    },
    {
      "midi": 41,
      "time": 204.706,
      "duration": 0.235,
      "velocity": 0.93,
      "hand": "right"
    },
    {
      "midi": 35,
      "time": 205.059,
      "duration": 0.235,
      "velocity": 0.58,
      "hand": "right"
    },
    {
      "midi": 59,
      "time": 205.412,
      "duration": 1.941,
      "velocity": 0.73,
      "hand": "right"
    }
  ],
  "notes2Hands": [
    {
      "midi": 37,
      "time": 0,
      "duration": 0.706,
      "velocity": 0.61,
      "hand": "left"
    },
    {
      "midi": 37,
      "time": 1.412,
      "duration": 0.706,
      "velocity": 0.61,
      "hand": "left"
    },
    {
      "midi": 37,
      "time": 2.824,
      "duration": 0.706,
      "velocity": 0.46,
      "hand": "left"
    },
    {
      "midi": 38,
      "time": 2.824,
      "duration": 0.529,
      "velocity": 0.86,
      "hand": "left"
    },
    {
      "midi": 45,
      "time": 2.824,
      "duration": 0.529,
      "velocity": 0.86,
      "hand": "left"
    },
    {
      "midi": 50,
      "time": 2.824,
      "duration": 0.529,
      "velocity": 0.79,
      "hand": "left"
    },
    {
      "midi": 57,
      "time": 2.824,
      "duration": 0.529,
      "velocity": 0.79,
      "hand": "left"
    },
    {
      "midi": 62,
      "time": 2.824,
      "duration": 0.529,
      "velocity": 0.83,
      "hand": "right"
    },
    {
      "midi": 66,
      "time": 2.824,
      "duration": 0.529,
      "velocity": 0.83,
      "hand": "right"
    },
    {
      "midi": 37,
      "time": 3.529,
      "duration": 0.706,
      "velocity": 0.61,
      "hand": "left"
    },
    {
      "midi": 38,
      "time": 3.529,
      "duration": 0.353,
      "velocity": 0.86,
      "hand": "left"
    },
    {
      "midi": 45,
      "time": 3.529,
      "duration": 0.353,
      "velocity": 0.86,
      "hand": "left"
    },
    {
      "midi": 50,
      "time": 3.529,
      "duration": 0.353,
      "velocity": 0.79,
      "hand": "left"
    },
    {
      "midi": 57,
      "time": 3.529,
      "duration": 0.353,
      "velocity": 0.79,
      "hand": "left"
    },
    {
      "midi": 62,
      "time": 3.529,
      "duration": 0.353,
      "velocity": 0.83,
      "hand": "right"
    },
    {
      "midi": 66,
      "time": 3.529,
      "duration": 0.353,
      "velocity": 0.83,
      "hand": "right"
    },
    {
      "midi": 38,
      "time": 4.059,
      "duration": 0.176,
      "velocity": 0.86,
      "hand": "left"
    },
    {
      "midi": 44,
      "time": 4.059,
      "duration": 0.176,
      "velocity": 0.86,
      "hand": "left"
    },
    {
      "midi": 50,
      "time": 4.059,
      "duration": 0.176,
      "velocity": 0.79,
      "hand": "left"
    },
    {
      "midi": 56,
      "time": 4.059,
      "duration": 0.176,
      "velocity": 0.79,
      "hand": "left"
    },
    {
      "midi": 62,
      "time": 4.059,
      "duration": 0.176,
      "velocity": 0.83,
      "hand": "right"
    },
    {
      "midi": 65,
      "time": 4.059,
      "duration": 0.176,
      "velocity": 0.83,
      "hand": "right"
    },
    {
      "midi": 37,
      "time": 4.235,
      "duration": 0.706,
      "velocity": 0.46,
      "hand": "left"
    },
    {
      "midi": 38,
      "time": 4.235,
      "duration": 0.529,
      "velocity": 0.86,
      "hand": "left"
    },
    {
      "midi": 45,
      "time": 4.235,
      "duration": 0.529,
      "velocity": 0.86,
      "hand": "left"
    },
    {
      "midi": 50,
      "time": 4.235,
      "duration": 0.529,
      "velocity": 0.79,
      "hand": "left"
    },
    {
      "midi": 57,
      "time": 4.235,
      "duration": 0.529,
      "velocity": 0.79,
      "hand": "left"
    },
    {
      "midi": 62,
      "time": 4.235,
      "duration": 0.529,
      "velocity": 0.83,
      "hand": "right"
    },
    {
      "midi": 66,
      "time": 4.235,
      "duration": 0.529,
      "velocity": 0.83,
      "hand": "right"
    },
    {
      "midi": 37,
      "time": 4.941,
      "duration": 0.706,
      "velocity": 0.61,
      "hand": "left"
    },
    {
      "midi": 38,
      "time": 4.941,
      "duration": 0.353,
      "velocity": 0.86,
      "hand": "left"
    },
    {
      "midi": 45,
      "time": 4.941,
      "duration": 0.353,
      "velocity": 0.86,
      "hand": "left"
    },
    {
      "midi": 50,
      "time": 4.941,
      "duration": 0.353,
      "velocity": 0.79,
      "hand": "left"
    },
    {
      "midi": 57,
      "time": 4.941,
      "duration": 0.353,
      "velocity": 0.79,
      "hand": "left"
    },
    {
      "midi": 62,
      "time": 4.941,
      "duration": 0.353,
      "velocity": 0.83,
      "hand": "right"
    },
    {
      "midi": 66,
      "time": 4.941,
      "duration": 0.353,
      "velocity": 0.83,
      "hand": "right"
    },
    {
      "midi": 38,
      "time": 5.471,
      "duration": 0.176,
      "velocity": 0.86,
      "hand": "left"
    },
    {
      "midi": 45,
      "time": 5.471,
      "duration": 0.176,
      "velocity": 0.86,
      "hand": "left"
    },
    {
      "midi": 50,
      "time": 5.471,
      "duration": 0.176,
      "velocity": 0.79,
      "hand": "left"
    },
    {
      "midi": 57,
      "time": 5.471,
      "duration": 0.176,
      "velocity": 0.79,
      "hand": "left"
    },
    {
      "midi": 64,
      "time": 5.471,
      "duration": 0.176,
      "velocity": 0.83,
      "hand": "right"
    },
    {
      "midi": 67,
      "time": 5.471,
      "duration": 0.176,
      "velocity": 0.83,
      "hand": "right"
    },
    {
      "midi": 35,
      "time": 5.647,
      "duration": 0.176,
      "velocity": 0.73,
      "hand": "left"
    },
    {
      "midi": 38,
      "time": 5.647,
      "duration": 0.882,
      "velocity": 0.86,
      "hand": "left"
    },
    {
      "midi": 42,
      "time": 5.647,
      "duration": 0.176,
      "velocity": 0.65,
      "hand": "left"
    },
    {
      "midi": 49,
      "time": 5.647,
      "duration": 0.176,
      "velocity": 0.65,
      "hand": "left"
    },
    {
      "midi": 50,
      "time": 5.647,
      "duration": 0.882,
      "velocity": 0.79,
      "hand": "left"
    },
    {
      "midi": 62,
      "time": 5.647,
      "duration": 0.882,
      "velocity": 0.79,
      "hand": "right"
    },
    {
      "midi": 66,
      "time": 5.647,
      "duration": 0.882,
      "velocity": 0.83,
      "hand": "right"
    },
    {
      "midi": 69,
      "time": 5.647,
      "duration": 0.882,
      "velocity": 0.83,
      "hand": "right"
    },
    {
      "midi": 42,
      "time": 6,
      "duration": 0.176,
      "velocity": 0.51,
      "hand": "left"
    },
    {
      "midi": 37,
      "time": 6.353,
      "duration": 0.176,
      "velocity": 0.73,
      "hand": "left"
    },
    {
      "midi": 42,
      "time": 6.353,
      "duration": 0.176,
      "velocity": 0.58,
      "hand": "left"
    },
    {
      "midi": 35,
      "time": 6.706,
      "duration": 0.176,
      "velocity": 0.58,
      "hand": "left"
    },
    {
      "midi": 42,
      "time": 6.706,
      "duration": 0.176,
      "velocity": 0.51,
      "hand": "left"
    },
    {
      "midi": 35,
      "time": 7.059,
      "duration": 0.176,
      "velocity": 0.73,
      "hand": "left"
    },
    {
      "midi": 38,
      "time": 7.059,
      "duration": 0.529,
      "velocity": 0.86,
      "hand": "left"
    },
    {
      "midi": 42,
      "time": 7.059,
      "duration": 0.176,
      "velocity": 0.65,
      "hand": "left"
    },
    {
      "midi": 50,
      "time": 7.059,
      "duration": 0.529,
      "velocity": 0.79,
      "hand": "left"
    },
    {
      "midi": 62,
      "time": 7.059,
      "duration": 0.529,
      "velocity": 0.79,
      "hand": "right"
    },
    {
      "midi": 66,
      "time": 7.059,
      "duration": 0.529,
      "velocity": 0.83,
      "hand": "right"
    },
    {
      "midi": 69,
      "time": 7.059,
      "duration": 0.529,
      "velocity": 0.83,
      "hand": "right"
    },
    {
      "midi": 42,
      "time": 7.412,
      "duration": 0.176,
      "velocity": 0.51,
      "hand": "left"
    },
    {
      "midi": 37,
      "time": 7.765,
      "duration": 0.176,
      "velocity": 0.73,
      "hand": "left"
    },
    {
      "midi": 38,
      "time": 7.765,
      "duration": 0.353,
      "velocity": 0.86,
      "hand": "left"
    },
    {
      "midi": 42,
      "time": 7.765,
      "duration": 0.176,
      "velocity": 0.58,
      "hand": "left"
    },
    {
      "midi": 50,
      "time": 7.765,
      "duration": 0.353,
      "velocity": 0.79,
      "hand": "left"
    },
    {
      "midi": 62,
      "time": 7.765,
      "duration": 0.353,
      "velocity": 0.79,
      "hand": "right"
    },
    {
      "midi": 66,
      "time": 7.765,
      "duration": 0.353,
      "velocity": 0.83,
      "hand": "right"
    },
    {
      "midi": 69,
      "time": 7.765,
      "duration": 0.353,
      "velocity": 0.83,
      "hand": "right"
    },
    {
      "midi": 35,
      "time": 8.118,
      "duration": 0.176,
      "velocity": 0.58,
      "hand": "left"
    },
    {
      "midi": 42,
      "time": 8.118,
      "duration": 0.176,
      "velocity": 0.51,
      "hand": "left"
    },
    {
      "midi": 38,
      "time": 8.294,
      "duration": 0.176,
      "velocity": 0.86,
      "hand": "left"
    },
    {
      "midi": 45,
      "time": 8.294,
      "duration": 0.176,
      "velocity": 0.86,
      "hand": "left"
    },
    {
      "midi": 50,
      "time": 8.294,
      "duration": 0.176,
      "velocity": 0.79,
      "hand": "left"
    },
    {
      "midi": 57,
      "time": 8.294,
      "duration": 0.176,
      "velocity": 0.79,
      "hand": "left"
    },
    {
      "midi": 62,
      "time": 8.294,
      "duration": 0.176,
      "velocity": 0.83,
      "hand": "right"
    },
    {
      "midi": 66,
      "time": 8.294,
      "duration": 0.176,
      "velocity": 0.83,
      "hand": "right"
    },
    {
      "midi": 33,
      "time": 8.471,
      "duration": 0.529,
      "velocity": 0.86,
      "hand": "left"
    },
    {
      "midi": 35,
      "time": 8.471,
      "duration": 0.176,
      "velocity": 0.73,
      "hand": "left"
    },
    {
      "midi": 42,
      "time": 8.471,
      "duration": 0.176,
      "velocity": 0.65,
      "hand": "left"
    },
    {
      "midi": 45,
      "time": 8.471,
      "duration": 0.529,
      "velocity": 0.79,
      "hand": "left"
    },
    {
      "midi": 57,
      "time": 8.471,
      "duration": 0.529,
      "velocity": 0.79,
      "hand": "left"
    },
    {
      "midi": 61,
      "time": 8.471,
      "duration": 0.529,
      "velocity": 0.83,
      "hand": "right"
    },
    {
      "midi": 64,
      "time": 8.471,
      "duration": 0.529,
      "velocity": 0.83,
      "hand": "right"
    },
    {
      "midi": 42,
      "time": 8.824,
      "duration": 0.176,
      "velocity": 0.51,
      "hand": "left"
    },
    {
      "midi": 33,
      "time": 9.176,
      "duration": 0.529,
      "velocity": 0.86,
      "hand": "left"
    },
    {
      "midi": 37,
      "time": 9.176,
      "duration": 0.176,
      "velocity": 0.73,
      "hand": "left"
    },
    {
      "midi": 42,
      "time": 9.176,
      "duration": 0.176,
      "velocity": 0.58,
      "hand": "left"
    },
    {
      "midi": 45,
      "time": 9.176,
      "duration": 0.529,
      "velocity": 0.79,
      "hand": "left"
    },
    {
      "midi": 57,
      "time": 9.176,
      "duration": 0.529,
      "velocity": 0.79,
      "hand": "left"
    },
    {
      "midi": 61,
      "time": 9.176,
      "duration": 0.529,
      "velocity": 0.83,
      "hand": "right"
    },
    {
      "midi": 64,
      "time": 9.176,
      "duration": 0.529,
      "velocity": 0.83,
      "hand": "right"
    },
    {
      "midi": 35,
      "time": 9.529,
      "duration": 0.176,
      "velocity": 0.58,
      "hand": "left"
    },
    {
      "midi": 42,
      "time": 9.529,
      "duration": 0.176,
      "velocity": 0.51,
      "hand": "left"
    },
    {
      "midi": 42,
      "time": 9.706,
      "duration": 0.176,
      "velocity": 0.43,
      "hand": "left"
    },
    {
      "midi": 35,
      "time": 9.882,
      "duration": 0.176,
      "velocity": 0.73,
      "hand": "left"
    },
    {
      "midi": 38,
      "time": 9.882,
      "duration": 0.529,
      "velocity": 0.86,
      "hand": "left"
    },
    {
      "midi": 42,
      "time": 9.882,
      "duration": 0.176,
      "velocity": 0.65,
      "hand": "left"
    },
    {
      "midi": 45,
      "time": 9.882,
      "duration": 0.529,
      "velocity": 0.86,
      "hand": "left"
    },
    {
      "midi": 50,
      "time": 9.882,
      "duration": 0.529,
      "velocity": 0.79,
      "hand": "left"
    },
    {
      "midi": 57,
      "time": 9.882,
      "duration": 0.529,
      "velocity": 0.79,
      "hand": "left"
    },
    {
      "midi": 62,
      "time": 9.882,
      "duration": 0.529,
      "velocity": 0.83,
      "hand": "right"
    },
    {
      "midi": 66,
      "time": 9.882,
      "duration": 0.529,
      "velocity": 0.83,
      "hand": "right"
    },
    {
      "midi": 42,
      "time": 10.235,
      "duration": 0.176,
      "velocity": 0.51,
      "hand": "left"
    },
    {
      "midi": 37,
      "time": 10.588,
      "duration": 0.176,
      "velocity": 0.73,
      "hand": "left"
    },
    {
      "midi": 38,
      "time": 10.588,
      "duration": 0.353,
      "velocity": 0.86,
      "hand": "left"
    },
    {
      "midi": 42,
      "time": 10.588,
      "duration": 0.176,
      "velocity": 0.58,
      "hand": "left"
    },
    {
      "midi": 45,
      "time": 10.588,
      "duration": 0.353,
      "velocity": 0.86,
      "hand": "left"
    },
    {
      "midi": 50,
      "time": 10.588,
      "duration": 0.353,
      "velocity": 0.79,
      "hand": "left"
    },
    {
      "midi": 57,
      "time": 10.588,
      "duration": 0.353,
      "velocity": 0.79,
      "hand": "left"
    },
    {
      "midi": 64,
      "time": 10.588,
      "duration": 0.353,
      "velocity": 0.83,
      "hand": "right"
    },
    {
      "midi": 67,
      "time": 10.588,
      "duration": 0.353,
      "velocity": 0.83,
      "hand": "right"
    },
    {
      "midi": 35,
      "time": 10.941,
      "duration": 0.176,
      "velocity": 0.58,
      "hand": "left"
    },
    {
      "midi": 42,
      "time": 10.941,
      "duration": 0.176,
      "velocity": 0.51,
      "hand": "left"
    },
    {
      "midi": 38,
      "time": 11.118,
      "duration": 0.176,
      "velocity": 0.86,
      "hand": "left"
    },
    {
      "midi": 45,
      "time": 11.118,
      "duration": 0.176,
      "velocity": 0.86,
      "hand": "left"
    },
    {
      "midi": 46,
      "time": 11.118,
      "duration": 0.176,
      "velocity": 0.58,
      "hand": "left"
    },
    {
      "midi": 50,
      "time": 11.118,
      "duration": 0.176,
      "velocity": 0.79,
      "hand": "left"
    },
    {
      "midi": 57,
      "time": 11.118,
      "duration": 0.176,
      "velocity": 0.79,
      "hand": "left"
    },
    {
      "midi": 62,
      "time": 11.118,
      "duration": 0.176,
      "velocity": 0.83,
      "hand": "right"
    },
    {
      "midi": 66,
      "time": 11.118,
      "duration": 0.176,
      "velocity": 0.83,
      "hand": "right"
    },
    {
      "midi": 33,
      "time": 11.294,
      "duration": 1.412,
      "velocity": 0.86,
      "hand": "left"
    },
    {
      "midi": 35,
      "time": 11.294,
      "duration": 0.176,
      "velocity": 0.73,
      "hand": "left"
    },
    {
      "midi": 42,
      "time": 11.294,
      "duration": 0.176,
      "velocity": 0.65,
      "hand": "left"
    },
    {
      "midi": 45,
      "time": 11.294,
      "duration": 1.412,
      "velocity": 0.79,
      "hand": "left"
    },
    {
      "midi": 57,
      "time": 11.294,
      "duration": 1.412,
      "velocity": 0.79,
      "hand": "left"
    },
    {
      "midi": 61,
      "time": 11.294,
      "duration": 1.412,
      "velocity": 0.83,
      "hand": "right"
    },
    {
      "midi": 64,
      "time": 11.294,
      "duration": 1.412,
      "velocity": 0.83,
      "hand": "right"
    },
    {
      "midi": 42,
      "time": 11.647,
      "duration": 0.176,
      "velocity": 0.51,
      "hand": "left"
    },
    {
      "midi": 37,
      "time": 12,
      "duration": 0.176,
      "velocity": 0.73,
      "hand": "left"
    },
    {
      "midi": 42,
      "time": 12,
      "duration": 0.176,
      "velocity": 0.58,
      "hand": "left"
    },
    {
      "midi": 35,
      "time": 12.353,
      "duration": 0.176,
      "velocity": 0.58,
      "hand": "left"
    },
    {
      "midi": 42,
      "time": 12.353,
      "duration": 0.176,
      "velocity": 0.51,
      "hand": "left"
    },
    {
      "midi": 35,
      "time": 12.706,
      "duration": 0.176,
      "velocity": 0.73,
      "hand": "left"
    },
    {
      "midi": 42,
      "time": 12.706,
      "duration": 0.176,
      "velocity": 0.65,
      "hand": "left"
    },
    {
      "midi": 42,
      "time": 13.059,
      "duration": 0.176,
      "velocity": 0.51,
      "hand": "left"
    },
    {
      "midi": 37,
      "time": 13.412,
      "duration": 0.176,
      "velocity": 0.73,
      "hand": "left"
    },
    {
      "midi": 42,
      "time": 13.412,
      "duration": 0.176,
      "velocity": 0.58,
      "hand": "left"
    },
    {
      "midi": 35,
      "time": 13.765,
      "duration": 0.176,
      "velocity": 0.58,
      "hand": "left"
    },
    {
      "midi": 42,
      "time": 13.765,
      "duration": 0.176,
      "velocity": 0.51,
      "hand": "left"
    },
    {
      "midi": 35,
      "time": 14.118,
      "duration": 0.176,
      "velocity": 0.73,
      "hand": "left"
    },
    {
      "midi": 38,
      "time": 14.118,
      "duration": 0.529,
      "velocity": 0.86,
      "hand": "left"
    },
    {
      "midi": 42,
      "time": 14.118,
      "duration": 0.176,
      "velocity": 0.65,
      "hand": "left"
    },
    {
      "midi": 45,
      "time": 14.118,
      "duration": 0.529,
      "velocity": 0.86,
      "hand": "left"
    },
    {
      "midi": 50,
      "time": 14.118,
      "duration": 0.529,
      "velocity": 0.79,
      "hand": "left"
    },
    {
      "midi": 57,
      "time": 14.118,
      "duration": 0.529,
      "velocity": 0.79,
      "hand": "left"
    },
    {
      "midi": 62,
      "time": 14.118,
      "duration": 0.529,
      "velocity": 0.83,
      "hand": "right"
    },
    {
      "midi": 66,
      "time": 14.118,
      "duration": 0.529,
      "velocity": 0.83,
      "hand": "right"
    },
    {
      "midi": 42,
      "time": 14.471,
      "duration": 0.176,
      "velocity": 0.51,
      "hand": "left"
    },
    {
      "midi": 37,
      "time": 14.824,
      "duration": 0.176,
      "velocity": 0.73,
      "hand": "left"
    },
    {
      "midi": 38,
      "time": 14.824,
      "duration": 0.353,
      "velocity": 0.86,
      "hand": "left"
    },
    {
      "midi": 42,
      "time": 14.824,
      "duration": 0.176,
      "velocity": 0.58,
      "hand": "left"
    },
    {
      "midi": 45,
      "time": 14.824,
      "duration": 0.353,
      "velocity": 0.86,
      "hand": "left"
    },
    {
      "midi": 50,
      "time": 14.824,
      "duration": 0.353,
      "velocity": 0.79,
      "hand": "left"
    },
    {
      "midi": 57,
      "time": 14.824,
      "duration": 0.353,
      "velocity": 0.79,
      "hand": "left"
    },
    {
      "midi": 62,
      "time": 14.824,
      "duration": 0.353,
      "velocity": 0.83,
      "hand": "right"
    },
    {
      "midi": 66,
      "time": 14.824,
      "duration": 0.353,
      "velocity": 0.83,
      "hand": "right"
    },
    {
      "midi": 35,
      "time": 15.176,
      "duration": 0.176,
      "velocity": 0.58,
      "hand": "left"
    },
    {
      "midi": 42,
      "time": 15.176,
      "duration": 0.176,
      "velocity": 0.51,
      "hand": "left"
    },
    {
      "midi": 38,
      "time": 15.353,
      "duration": 0.176,
      "velocity": 0.86,
      "hand": "left"
    },
    {
      "midi": 44,
      "time": 15.353,
      "duration": 0.176,
      "velocity": 0.86,
      "hand": "left"
    },
    {
      "midi": 50,
      "time": 15.353,
      "duration": 0.176,
      "velocity": 0.79,
      "hand": "left"
    },
    {
      "midi": 56,
      "time": 15.353,
      "duration": 0.176,
      "velocity": 0.79,
      "hand": "left"
    },
    {
      "midi": 62,
      "time": 15.353,
      "duration": 0.176,
      "velocity": 0.83,
      "hand": "right"
    },
    {
      "midi": 65,
      "time": 15.353,
      "duration": 0.176,
      "velocity": 0.83,
      "hand": "right"
    },
    {
      "midi": 35,
      "time": 15.529,
      "duration": 0.176,
      "velocity": 0.73,
      "hand": "left"
    },
    {
      "midi": 38,
      "time": 15.529,
      "duration": 0.529,
      "velocity": 0.86,
      "hand": "left"
    },
    {
      "midi": 42,
      "time": 15.529,
      "duration": 0.176,
      "velocity": 0.65,
      "hand": "left"
    },
    {
      "midi": 45,
      "time": 15.529,
      "duration": 0.529,
      "velocity": 0.86,
      "hand": "left"
    },
    {
      "midi": 50,
      "time": 15.529,
      "duration": 0.529,
      "velocity": 0.79,
      "hand": "left"
    },
    {
      "midi": 57,
      "time": 15.529,
      "duration": 0.529,
      "velocity": 0.79,
      "hand": "left"
    },
    {
      "midi": 62,
      "time": 15.529,
      "duration": 0.529,
      "velocity": 0.83,
      "hand": "right"
    },
    {
      "midi": 66,
      "time": 15.529,
      "duration": 0.529,
      "velocity": 0.83,
      "hand": "right"
    },
    {
      "midi": 42,
      "time": 15.882,
      "duration": 0.176,
      "velocity": 0.51,
      "hand": "left"
    },
    {
      "midi": 37,
      "time": 16.235,
      "duration": 0.176,
      "velocity": 0.73,
      "hand": "left"
    },
    {
      "midi": 38,
      "time": 16.235,
      "duration": 0.353,
      "velocity": 0.86,
      "hand": "left"
    },
    {
      "midi": 42,
      "time": 16.235,
      "duration": 0.176,
      "velocity": 0.58,
      "hand": "left"
    },
    {
      "midi": 45,
      "time": 16.235,
      "duration": 0.353,
      "velocity": 0.86,
      "hand": "left"
    },
    {
      "midi": 50,
      "time": 16.235,
      "duration": 0.353,
      "velocity": 0.79,
      "hand": "left"
    },
    {
      "midi": 57,
      "time": 16.235,
      "duration": 0.353,
      "velocity": 0.79,
      "hand": "left"
    },
    {
      "midi": 62,
      "time": 16.235,
      "duration": 0.353,
      "velocity": 0.83,
      "hand": "right"
    },
    {
      "midi": 66,
      "time": 16.235,
      "duration": 0.353,
      "velocity": 0.83,
      "hand": "right"
    },
    {
      "midi": 35,
      "time": 16.588,
      "duration": 0.176,
      "velocity": 0.58,
      "hand": "left"
    },
    {
      "midi": 42,
      "time": 16.588,
      "duration": 0.176,
      "velocity": 0.51,
      "hand": "left"
    },
    {
      "midi": 38,
      "time": 16.765,
      "duration": 0.176,
      "velocity": 0.86,
      "hand": "left"
    },
    {
      "midi": 45,
      "time": 16.765,
      "duration": 0.176,
      "velocity": 0.86,
      "hand": "left"
    },
    {
      "midi": 50,
      "time": 16.765,
      "duration": 0.176,
      "velocity": 0.79,
      "hand": "left"
    },
    {
      "midi": 57,
      "time": 16.765,
      "duration": 0.176,
      "velocity": 0.79,
      "hand": "left"
    },
    {
      "midi": 64,
      "time": 16.765,
      "duration": 0.176,
      "velocity": 0.83,
      "hand": "right"
    },
    {
      "midi": 67,
      "time": 16.765,
      "duration": 0.176,
      "velocity": 0.83,
      "hand": "right"
    },
    {
      "midi": 35,
      "time": 16.941,
      "duration": 0.176,
      "velocity": 0.73,
      "hand": "left"
    },
    {
      "midi": 38,
      "time": 16.941,
      "duration": 0.882,
      "velocity": 0.86,
      "hand": "left"
    },
    {
      "midi": 42,
      "time": 16.941,
      "duration": 0.176,
      "velocity": 0.65,
      "hand": "left"
    },
    {
      "midi": 50,
      "time": 16.941,
      "duration": 0.882,
      "velocity": 0.79,
      "hand": "left"
    },
    {
      "midi": 62,
      "time": 16.941,
      "duration": 0.882,
      "velocity": 0.79,
      "hand": "right"
    },
    {
      "midi": 66,
      "time": 16.941,
      "duration": 0.882,
      "velocity": 0.83,
      "hand": "right"
    },
    {
      "midi": 69,
      "time": 16.941,
      "duration": 0.882,
      "velocity": 0.83,
      "hand": "right"
    },
    {
      "midi": 42,
      "time": 17.294,
      "duration": 0.176,
      "velocity": 0.51,
      "hand": "left"
    },
    {
      "midi": 37,
      "time": 17.647,
      "duration": 0.176,
      "velocity": 0.73,
      "hand": "left"
    },
    {
      "midi": 42,
      "time": 17.647,
      "duration": 0.176,
      "velocity": 0.58,
      "hand": "left"
    },
    {
      "midi": 35,
      "time": 18,
      "duration": 0.176,
      "velocity": 0.58,
      "hand": "left"
    },
    {
      "midi": 42,
      "time": 18,
      "duration": 0.176,
      "velocity": 0.51,
      "hand": "left"
    },
    {
      "midi": 35,
      "time": 18.353,
      "duration": 0.176,
      "velocity": 0.73,
      "hand": "left"
    },
    {
      "midi": 38,
      "time": 18.353,
      "duration": 0.529,
      "velocity": 0.86,
      "hand": "left"
    },
    {
      "midi": 42,
      "time": 18.353,
      "duration": 0.176,
      "velocity": 0.65,
      "hand": "left"
    },
    {
      "midi": 50,
      "time": 18.353,
      "duration": 0.529,
      "velocity": 0.79,
      "hand": "left"
    },
    {
      "midi": 62,
      "time": 18.353,
      "duration": 0.529,
      "velocity": 0.79,
      "hand": "right"
    },
    {
      "midi": 66,
      "time": 18.353,
      "duration": 0.529,
      "velocity": 0.83,
      "hand": "right"
    },
    {
      "midi": 69,
      "time": 18.353,
      "duration": 0.529,
      "velocity": 0.83,
      "hand": "right"
    },
    {
      "midi": 42,
      "time": 18.706,
      "duration": 0.176,
      "velocity": 0.51,
      "hand": "left"
    },
    {
      "midi": 37,
      "time": 19.059,
      "duration": 0.176,
      "velocity": 0.73,
      "hand": "left"
    },
    {
      "midi": 38,
      "time": 19.059,
      "duration": 0.353,
      "velocity": 0.86,
      "hand": "left"
    },
    {
      "midi": 42,
      "time": 19.059,
      "duration": 0.176,
      "velocity": 0.58,
      "hand": "left"
    },
    {
      "midi": 50,
      "time": 19.059,
      "duration": 0.353,
      "velocity": 0.79,
      "hand": "left"
    },
    {
      "midi": 62,
      "time": 19.059,
      "duration": 0.353,
      "velocity": 0.79,
      "hand": "right"
    },
    {
      "midi": 66,
      "time": 19.059,
      "duration": 0.353,
      "velocity": 0.83,
      "hand": "right"
    },
    {
      "midi": 69,
      "time": 19.059,
      "duration": 0.353,
      "velocity": 0.83,
      "hand": "right"
    },
    {
      "midi": 35,
      "time": 19.412,
      "duration": 0.176,
      "velocity": 0.58,
      "hand": "left"
    },
    {
      "midi": 42,
      "time": 19.412,
      "duration": 0.176,
      "velocity": 0.51,
      "hand": "left"
    },
    {
      "midi": 38,
      "time": 19.588,
      "duration": 0.176,
      "velocity": 0.86,
      "hand": "left"
    },
    {
      "midi": 45,
      "time": 19.588,
      "duration": 0.176,
      "velocity": 0.86,
      "hand": "left"
    },
    {
      "midi": 50,
      "time": 19.588,
      "duration": 0.176,
      "velocity": 0.79,
      "hand": "left"
    },
    {
      "midi": 57,
      "time": 19.588,
      "duration": 0.176,
      "velocity": 0.79,
      "hand": "left"
    },
    {
      "midi": 62,
      "time": 19.588,
      "duration": 0.176,
      "velocity": 0.83,
      "hand": "right"
    },
    {
      "midi": 66,
      "time": 19.588,
      "duration": 0.176,
      "velocity": 0.83,
      "hand": "right"
    },
    {
      "midi": 35,
      "time": 19.765,
      "duration": 0.176,
      "velocity": 0.73,
      "hand": "left"
    },
    {
      "midi": 42,
      "time": 19.765,
      "duration": 0.176,
      "velocity": 0.65,
      "hand": "left"
    },
    {
      "midi": 43,
      "time": 19.765,
      "duration": 0.529,
      "velocity": 0.86,
      "hand": "left"
    },
    {
      "midi": 47,
      "time": 19.765,
      "duration": 0.529,
      "velocity": 0.86,
      "hand": "left"
    },
    {
      "midi": 55,
      "time": 19.765,
      "duration": 0.529,
      "velocity": 0.79,
      "hand": "left"
    },
    {
      "midi": 59,
      "time": 19.765,
      "duration": 0.529,
      "velocity": 0.79,
      "hand": "left"
    },
    {
      "midi": 62,
      "time": 19.765,
      "duration": 0.529,
      "velocity": 0.83,
      "hand": "right"
    },
    {
      "midi": 64,
      "time": 19.765,
      "duration": 0.529,
      "velocity": 0.83,
      "hand": "right"
    },
    {
      "midi": 42,
      "time": 20.118,
      "duration": 0.176,
      "velocity": 0.51,
      "hand": "left"
    },
    {
      "midi": 37,
      "time": 20.471,
      "duration": 0.176,
      "velocity": 0.73,
      "hand": "left"
    },
    {
      "midi": 42,
      "time": 20.471,
      "duration": 0.176,
      "velocity": 0.58,
      "hand": "left"
    },
    {
      "midi": 43,
      "time": 20.471,
      "duration": 0.176,
      "velocity": 0.86,
      "hand": "left"
    },
    {
      "midi": 47,
      "time": 20.471,
      "duration": 0.176,
      "velocity": 0.86,
      "hand": "left"
    },
    {
      "midi": 55,
      "time": 20.471,
      "duration": 0.176,
      "velocity": 0.79,
      "hand": "left"
    },
    {
      "midi": 59,
      "time": 20.471,
      "duration": 0.176,
      "velocity": 0.79,
      "hand": "left"
    },
    {
      "midi": 62,
      "time": 20.471,
      "duration": 0.176,
      "velocity": 0.83,
      "hand": "right"
    },
    {
      "midi": 64,
      "time": 20.471,
      "duration": 0.176,
      "velocity": 0.83,
      "hand": "right"
    },
    {
      "midi": 35,
      "time": 20.824,
      "duration": 0.176,
      "velocity": 0.58,
      "hand": "left"
    },
    {
      "midi": 42,
      "time": 20.824,
      "duration": 0.176,
      "velocity": 0.51,
      "hand": "left"
    },
    {
      "midi": 43,
      "time": 20.824,
      "duration": 0.176,
      "velocity": 0.86,
      "hand": "left"
    },
    {
      "midi": 47,
      "time": 20.824,
      "duration": 0.176,
      "velocity": 0.86,
      "hand": "left"
    },
    {
      "midi": 55,
      "time": 20.824,
      "duration": 0.176,
      "velocity": 0.79,
      "hand": "left"
    },
    {
      "midi": 59,
      "time": 20.824,
      "duration": 0.176,
      "velocity": 0.79,
      "hand": "left"
    },
    {
      "midi": 62,
      "time": 20.824,
      "duration": 0.176,
      "velocity": 0.83,
      "hand": "right"
    },
    {
      "midi": 64,
      "time": 20.824,
      "duration": 0.176,
      "velocity": 0.83,
      "hand": "right"
    },
    {
      "midi": 35,
      "time": 21.176,
      "duration": 0.176,
      "velocity": 0.73,
      "hand": "left"
    },
    {
      "midi": 42,
      "time": 21.176,
      "duration": 0.176,
      "velocity": 0.65,
      "hand": "left"
    },
    {
      "midi": 45,
      "time": 21.176,
      "duration": 0.529,
      "velocity": 0.86,
      "hand": "left"
    },
    {
      "midi": 57,
      "time": 21.176,
      "duration": 0.529,
      "velocity": 0.79,
      "hand": "left"
    },
    {
      "midi": 61,
      "time": 21.176,
      "duration": 0.529,
      "velocity": 0.83,
      "hand": "right"
    },
    {
      "midi": 64,
      "time": 21.176,
      "duration": 0.529,
      "velocity": 0.83,
      "hand": "right"
    },
    {
      "midi": 35,
      "time": 21.529,
      "duration": 0.176,
      "velocity": 0.58,
      "hand": "left"
    },
    {
      "midi": 42,
      "time": 21.529,
      "duration": 0.176,
      "velocity": 0.51,
      "hand": "left"
    },
    {
      "midi": 33,
      "time": 21.882,
      "duration": 0.353,
      "velocity": 0.86,
      "hand": "left"
    },
    {
      "midi": 37,
      "time": 21.882,
      "duration": 0.176,
      "velocity": 0.73,
      "hand": "left"
    },
    {
      "midi": 42,
      "time": 21.882,
      "duration": 0.176,
      "velocity": 0.58,
      "hand": "left"
    },
    {
      "midi": 45,
      "time": 21.882,
      "duration": 0.353,
      "velocity": 0.79,
      "hand": "left"
    },
    {
      "midi": 57,
      "time": 21.882,
      "duration": 0.353,
      "velocity": 0.79,
      "hand": "left"
    },
    {
      "midi": 61,
      "time": 21.882,
      "duration": 0.353,
      "velocity": 0.83,
      "hand": "right"
    },
    {
      "midi": 66,
      "time": 21.882,
      "duration": 0.353,
      "velocity": 0.83,
      "hand": "right"
    },
    {
      "midi": 35,
      "time": 22.235,
      "duration": 0.176,
      "velocity": 0.58,
      "hand": "left"
    },
    {
      "midi": 42,
      "time": 22.235,
      "duration": 0.176,
      "velocity": 0.51,
      "hand": "left"
    },
    {
      "midi": 33,
      "time": 22.412,
      "duration": 0.176,
      "velocity": 0.86,
      "hand": "left"
    },
    {
      "midi": 42,
      "time": 22.412,
      "duration": 0.176,
      "velocity": 0.43,
      "hand": "left"
    },
    {
      "midi": 43,
      "time": 22.412,
      "duration": 0.176,
      "velocity": 0.86,
      "hand": "left"
    },
    {
      "midi": 45,
      "time": 22.412,
      "duration": 0.176,
      "velocity": 0.79,
      "hand": "left"
    },
    {
      "midi": 55,
      "time": 22.412,
      "duration": 0.176,
      "velocity": 0.79,
      "hand": "left"
    },
    {
      "midi": 61,
      "time": 22.412,
      "duration": 0.176,
      "velocity": 0.83,
      "hand": "right"
    },
    {
      "midi": 64,
      "time": 22.412,
      "duration": 0.176,
      "velocity": 0.83,
      "hand": "right"
    },
    {
      "midi": 35,
      "time": 22.588,
      "duration": 0.176,
      "velocity": 0.73,
      "hand": "left"
    },
    {
      "midi": 38,
      "time": 22.588,
      "duration": 1.412,
      "velocity": 0.86,
      "hand": "left"
    },
    {
      "midi": 42,
      "time": 22.588,
      "duration": 1.412,
      "velocity": 0.86,
      "hand": "left"
    },
    {
      "midi": 49,
      "time": 22.588,
      "duration": 0.176,
      "velocity": 0.65,
      "hand": "left"
    },
    {
      "midi": 50,
      "time": 22.588,
      "duration": 1.412,
      "velocity": 0.79,
      "hand": "left"
    },
    {
      "midi": 54,
      "time": 22.588,
      "duration": 1.412,
      "velocity": 0.79,
      "hand": "left"
    },
    {
      "midi": 62,
      "time": 22.588,
      "duration": 1.412,
      "velocity": 0.83,
      "hand": "right"
    },
    {
      "midi": 38,
      "time": 23.118,
      "duration": 0.176,
      "velocity": 0.51,
      "hand": "left"
    },
    {
      "midi": 38,
      "time": 23.294,
      "duration": 0.176,
      "velocity": 0.83,
      "hand": "left"
    },
    {
      "midi": 35,
      "time": 23.471,
      "duration": 0.176,
      "velocity": 0.65,
      "hand": "left"
    },
    {
      "midi": 48,
      "time": 23.647,
      "duration": 0.176,
      "velocity": 0.73,
      "hand": "left"
    },
    {
      "midi": 45,
      "time": 24.176,
      "duration": 0.176,
      "velocity": 0.83,
      "hand": "left"
    },
    {
      "midi": 41,
      "time": 24.706,
      "duration": 0.176,
      "velocity": 0.93,
      "hand": "left"
    },
    {
      "midi": 35,
      "time": 25.059,
      "duration": 0.176,
      "velocity": 0.58,
      "hand": "left"
    },
    {
      "midi": 35,
      "time": 25.235,
      "duration": 0.176,
      "velocity": 0.73,
      "hand": "left"
    },
    {
      "midi": 42,
      "time": 25.235,
      "duration": 0.176,
      "velocity": 0.65,
      "hand": "left"
    },
    {
      "midi": 43,
      "time": 25.235,
      "duration": 0.529,
      "velocity": 0.86,
      "hand": "left"
    },
    {
      "midi": 49,
      "time": 25.235,
      "duration": 0.176,
      "velocity": 0.65,
      "hand": "left"
    },
    {
      "midi": 50,
      "time": 25.235,
      "duration": 0.529,
      "velocity": 0.86,
      "hand": "left"
    },
    {
      "midi": 55,
      "time": 25.235,
      "duration": 0.529,
      "velocity": 0.79,
      "hand": "left"
    },
    {
      "midi": 62,
      "time": 25.235,
      "duration": 0.529,
      "velocity": 0.83,
      "hand": "right"
    },
    {
      "midi": 71,
      "time": 25.235,
      "duration": 0.529,
      "velocity": 0.83,
      "hand": "right"
    },
    {
      "midi": 42,
      "time": 25.588,
      "duration": 0.176,
      "velocity": 0.51,
      "hand": "left"
    },
    {
      "midi": 37,
      "time": 25.941,
      "duration": 0.176,
      "velocity": 0.73,
      "hand": "left"
    },
    {
      "midi": 42,
      "time": 25.941,
      "duration": 0.176,
      "velocity": 0.58,
      "hand": "left"
    },
    {
      "midi": 43,
      "time": 25.941,
      "duration": 0.353,
      "velocity": 0.86,
      "hand": "left"
    },
    {
      "midi": 50,
      "time": 25.941,
      "duration": 0.353,
      "velocity": 0.86,
      "hand": "left"
    },
    {
      "midi": 55,
      "time": 25.941,
      "duration": 0.353,
      "velocity": 0.79,
      "hand": "left"
    },
    {
      "midi": 62,
      "time": 25.941,
      "duration": 0.353,
      "velocity": 0.79,
      "hand": "right"
    },
    {
      "midi": 67,
      "time": 25.941,
      "duration": 0.353,
      "velocity": 0.83,
      "hand": "right"
    },
    {
      "midi": 71,
      "time": 25.941,
      "duration": 0.353,
      "velocity": 0.83,
      "hand": "right"
    },
    {
      "midi": 35,
      "time": 26.294,
      "duration": 0.176,
      "velocity": 0.58,
      "hand": "left"
    },
    {
      "midi": 42,
      "time": 26.294,
      "duration": 0.176,
      "velocity": 0.51,
      "hand": "left"
    },
    {
      "midi": 43,
      "time": 26.471,
      "duration": 0.176,
      "velocity": 0.86,
      "hand": "left"
    },
    {
      "midi": 50,
      "time": 26.471,
      "duration": 0.176,
      "velocity": 0.86,
      "hand": "left"
    },
    {
      "midi": 55,
      "time": 26.471,
      "duration": 0.176,
      "velocity": 0.79,
      "hand": "left"
    },
    {
      "midi": 62,
      "time": 26.471,
      "duration": 0.176,
      "velocity": 0.79,
      "hand": "right"
    },
    {
      "midi": 67,
      "time": 26.471,
      "duration": 0.176,
      "velocity": 0.83,
      "hand": "right"
    },
    {
      "midi": 71,
      "time": 26.471,
      "duration": 0.176,
      "velocity": 0.83,
      "hand": "right"
    },
    {
      "midi": 35,
      "time": 26.647,
      "duration": 0.176,
      "velocity": 0.73,
      "hand": "left"
    },
    {
      "midi": 42,
      "time": 26.647,
      "duration": 0.176,
      "velocity": 0.65,
      "hand": "left"
    },
    {
      "midi": 43,
      "time": 26.647,
      "duration": 0.529,
      "velocity": 0.86,
      "hand": "left"
    },
    {
      "midi": 50,
      "time": 26.647,
      "duration": 0.529,
      "velocity": 0.86,
      "hand": "left"
    },
    {
      "midi": 55,
      "time": 26.647,
      "duration": 0.529,
      "velocity": 0.79,
      "hand": "left"
    },
    {
      "midi": 62,
      "time": 26.647,
      "duration": 0.529,
      "velocity": 0.79,
      "hand": "right"
    },
    {
      "midi": 67,
      "time": 26.647,
      "duration": 0.529,
      "velocity": 0.83,
      "hand": "right"
    },
    {
      "midi": 71,
      "time": 26.647,
      "duration": 0.529,
      "velocity": 0.83,
      "hand": "right"
    },
    {
      "midi": 42,
      "time": 27,
      "duration": 0.176,
      "velocity": 0.51,
      "hand": "left"
    },
    {
      "midi": 37,
      "time": 27.353,
      "duration": 0.176,
      "velocity": 0.73,
      "hand": "left"
    },
    {
      "midi": 42,
      "time": 27.353,
      "duration": 0.176,
      "velocity": 0.58,
      "hand": "left"
    },
    {
      "midi": 43,
      "time": 27.353,
      "duration": 0.353,
      "velocity": 0.86,
      "hand": "left"
    },
    {
      "midi": 50,
      "time": 27.353,
      "duration": 0.353,
      "velocity": 0.86,
      "hand": "left"
    },
    {
      "midi": 55,
      "time": 27.353,
      "duration": 0.353,
      "velocity": 0.79,
      "hand": "left"
    },
    {
      "midi": 62,
      "time": 27.353,
      "duration": 0.353,
      "velocity": 0.79,
      "hand": "right"
    },
    {
      "midi": 67,
      "time": 27.353,
      "duration": 0.353,
      "velocity": 0.83,
      "hand": "right"
    },
    {
      "midi": 71,
      "time": 27.353,
      "duration": 0.353,
      "velocity": 0.83,
      "hand": "right"
    },
    {
      "midi": 35,
      "time": 27.706,
      "duration": 0.176,
      "velocity": 0.58,
      "hand": "left"
    },
    {
      "midi": 42,
      "time": 27.706,
      "duration": 0.176,
      "velocity": 0.51,
      "hand": "left"
    },
    {
      "midi": 43,
      "time": 27.882,
      "duration": 0.176,
      "velocity": 0.86,
      "hand": "left"
    },
    {
      "midi": 47,
      "time": 27.882,
      "duration": 0.176,
      "velocity": 0.86,
      "hand": "left"
    },
    {
      "midi": 55,
      "time": 27.882,
      "duration": 0.176,
      "velocity": 0.79,
      "hand": "left"
    },
    {
      "midi": 59,
      "time": 27.882,
      "duration": 0.176,
      "velocity": 0.79,
      "hand": "left"
    },
    {
      "midi": 64,
      "time": 27.882,
      "duration": 0.176,
      "velocity": 0.83,
      "hand": "right"
    },
    {
      "midi": 67,
      "time": 27.882,
      "duration": 0.176,
      "velocity": 0.83,
      "hand": "right"
    },
    {
      "midi": 35,
      "time": 28.059,
      "duration": 0.176,
      "velocity": 0.73,
      "hand": "left"
    },
    {
      "midi": 38,
      "time": 28.059,
      "duration": 0.882,
      "velocity": 0.86,
      "hand": "left"
    },
    {
      "midi": 42,
      "time": 28.059,
      "duration": 0.176,
      "velocity": 0.65,
      "hand": "left"
    },
    {
      "midi": 45,
      "time": 28.059,
      "duration": 0.882,
      "velocity": 0.86,
      "hand": "left"
    },
    {
      "midi": 50,
      "time": 28.059,
      "duration": 0.882,
      "velocity": 0.79,
      "hand": "left"
    },
    {
      "midi": 57,
      "time": 28.059,
      "duration": 0.882,
      "velocity": 0.79,
      "hand": "left"
    },
    {
      "midi": 62,
      "time": 28.059,
      "duration": 0.882,
      "velocity": 0.83,
      "hand": "right"
    },
    {
      "midi": 66,
      "time": 28.059,
      "duration": 0.882,
      "velocity": 0.83,
      "hand": "right"
    },
    {
      "midi": 42,
      "time": 28.412,
      "duration": 0.176,
      "velocity": 0.51,
      "hand": "left"
    },
    {
      "midi": 37,
      "time": 28.765,
      "duration": 0.176,
      "velocity": 0.73,
      "hand": "left"
    },
    {
      "midi": 42,
      "time": 28.765,
      "duration": 0.176,
      "velocity": 0.58,
      "hand": "left"
    },
    {
      "midi": 35,
      "time": 29.118,
      "duration": 0.176,
      "velocity": 0.58,
      "hand": "left"
    },
    {
      "midi": 42,
      "time": 29.118,
      "duration": 0.176,
      "velocity": 0.51,
      "hand": "left"
    },
    {
      "midi": 35,
      "time": 29.471,
      "duration": 0.176,
      "velocity": 0.73,
      "hand": "left"
    },
    {
      "midi": 38,
      "time": 29.471,
      "duration": 0.529,
      "velocity": 0.86,
      "hand": "left"
    },
    {
      "midi": 42,
      "time": 29.471,
      "duration": 0.176,
      "velocity": 0.65,
      "hand": "left"
    },
    {
      "midi": 50,
      "time": 29.471,
      "duration": 0.529,
      "velocity": 0.79,
      "hand": "left"
    },
    {
      "midi": 62,
      "time": 29.471,
      "duration": 0.529,
      "velocity": 0.79,
      "hand": "right"
    },
    {
      "midi": 66,
      "time": 29.471,
      "duration": 0.529,
      "velocity": 0.83,
      "hand": "right"
    },
    {
      "midi": 69,
      "time": 29.471,
      "duration": 0.529,
      "velocity": 0.83,
      "hand": "right"
    },
    {
      "midi": 42,
      "time": 29.824,
      "duration": 0.176,
      "velocity": 0.51,
      "hand": "left"
    },
    {
      "midi": 37,
      "time": 30.176,
      "duration": 0.176,
      "velocity": 0.73,
      "hand": "left"
    },
    {
      "midi": 42,
      "time": 30.176,
      "duration": 0.176,
      "velocity": 0.58,
      "hand": "left"
    },
    {
      "midi": 35,
      "time": 30.529,
      "duration": 0.176,
      "velocity": 0.58,
      "hand": "left"
    },
    {
      "midi": 42,
      "time": 30.529,
      "duration": 0.176,
      "velocity": 0.51,
      "hand": "left"
    },
    {
      "midi": 35,
      "time": 30.882,
      "duration": 0.176,
      "velocity": 0.73,
      "hand": "left"
    },
    {
      "midi": 42,
      "time": 30.882,
      "duration": 0.176,
      "velocity": 0.65,
      "hand": "left"
    },
    {
      "midi": 43,
      "time": 30.882,
      "duration": 0.529,
      "velocity": 0.86,
      "hand": "left"
    },
    {
      "midi": 50,
      "time": 30.882,
      "duration": 0.529,
      "velocity": 0.86,
      "hand": "left"
    },
    {
      "midi": 55,
      "time": 30.882,
      "duration": 0.529,
      "velocity": 0.79,
      "hand": "left"
    },
    {
      "midi": 62,
      "time": 30.882,
      "duration": 0.529,
      "velocity": 0.79,
      "hand": "right"
    },
    {
      "midi": 67,
      "time": 30.882,
      "duration": 0.529,
      "velocity": 0.83,
      "hand": "right"
    },
    {
      "midi": 71,
      "time": 30.882,
      "duration": 0.529,
      "velocity": 0.83,
      "hand": "right"
    },
    {
      "midi": 42,
      "time": 31.235,
      "duration": 0.176,
      "velocity": 0.51,
      "hand": "left"
    },
    {
      "midi": 37,
      "time": 31.588,
      "duration": 0.176,
      "velocity": 0.73,
      "hand": "left"
    },
    {
      "midi": 42,
      "time": 31.588,
      "duration": 0.176,
      "velocity": 0.58,
      "hand": "left"
    },
    {
      "midi": 43,
      "time": 31.588,
      "duration": 0.353,
      "velocity": 0.86,
      "hand": "left"
    },
    {
      "midi": 50,
      "time": 31.588,
      "duration": 0.353,
      "velocity": 0.86,
      "hand": "left"
    },
    {
      "midi": 55,
      "time": 31.588,
      "duration": 0.353,
      "velocity": 0.79,
      "hand": "left"
    },
    {
      "midi": 62,
      "time": 31.588,
      "duration": 0.353,
      "velocity": 0.79,
      "hand": "right"
    },
    {
      "midi": 67,
      "time": 31.588,
      "duration": 0.353,
      "velocity": 0.83,
      "hand": "right"
    },
    {
      "midi": 71,
      "time": 31.588,
      "duration": 0.353,
      "velocity": 0.83,
      "hand": "right"
    },
    {
      "midi": 35,
      "time": 31.941,
      "duration": 0.176,
      "velocity": 0.58,
      "hand": "left"
    },
    {
      "midi": 42,
      "time": 31.941,
      "duration": 0.176,
      "velocity": 0.51,
      "hand": "left"
    },
    {
      "midi": 43,
      "time": 32.118,
      "duration": 0.176,
      "velocity": 0.86,
      "hand": "left"
    },
    {
      "midi": 50,
      "time": 32.118,
      "duration": 0.176,
      "velocity": 0.86,
      "hand": "left"
    },
    {
      "midi": 55,
      "time": 32.118,
      "duration": 0.176,
      "velocity": 0.79,
      "hand": "left"
    },
    {
      "midi": 62,
      "time": 32.118,
      "duration": 0.176,
      "velocity": 0.79,
      "hand": "right"
    },
    {
      "midi": 67,
      "time": 32.118,
      "duration": 0.176,
      "velocity": 0.83,
      "hand": "right"
    },
    {
      "midi": 71,
      "time": 32.118,
      "duration": 0.176,
      "velocity": 0.83,
      "hand": "right"
    },
    {
      "midi": 35,
      "time": 32.294,
      "duration": 0.176,
      "velocity": 0.73,
      "hand": "left"
    },
    {
      "midi": 40,
      "time": 32.294,
      "duration": 0.176,
      "velocity": 0.86,
      "hand": "left"
    },
    {
      "midi": 42,
      "time": 32.294,
      "duration": 0.176,
      "velocity": 0.65,
      "hand": "left"
    },
    {
      "midi": 50,
      "time": 32.294,
      "duration": 0.176,
      "velocity": 0.86,
      "hand": "left"
    },
    {
      "midi": 52,
      "time": 32.294,
      "duration": 0.176,
      "velocity": 0.79,
      "hand": "left"
    },
    {
      "midi": 62,
      "time": 32.294,
      "duration": 0.176,
      "velocity": 0.79,
      "hand": "right"
    },
    {
      "midi": 68,
      "time": 32.294,
      "duration": 0.176,
      "velocity": 0.83,
      "hand": "right"
    },
    {
      "midi": 71,
      "time": 32.294,
      "duration": 0.176,
      "velocity": 0.83,
      "hand": "right"
    },
    {
      "midi": 40,
      "time": 32.647,
      "duration": 0.176,
      "velocity": 0.86,
      "hand": "left"
    },
    {
      "midi": 42,
      "time": 32.647,
      "duration": 0.176,
      "velocity": 0.51,
      "hand": "left"
    },
    {
      "midi": 47,
      "time": 32.647,
      "duration": 0.176,
      "velocity": 0.86,
      "hand": "left"
    },
    {
      "midi": 52,
      "time": 32.647,
      "duration": 0.176,
      "velocity": 0.79,
      "hand": "left"
    },
    {
      "midi": 59,
      "time": 32.647,
      "duration": 0.176,
      "velocity": 0.79,
      "hand": "left"
    },
    {
      "midi": 68,
      "time": 32.647,
      "duration": 0.176,
      "velocity": 0.83,
      "hand": "right"
    },
    {
      "midi": 74,
      "time": 32.647,
      "duration": 0.176,
      "velocity": 0.83,
      "hand": "right"
    },
    {
      "midi": 37,
      "time": 33,
      "duration": 0.176,
      "velocity": 0.73,
      "hand": "left"
    },
    {
      "midi": 40,
      "time": 33,
      "duration": 0.176,
      "velocity": 0.86,
      "hand": "left"
    },
    {
      "midi": 42,
      "time": 33,
      "duration": 0.176,
      "velocity": 0.58,
      "hand": "left"
    },
    {
      "midi": 45,
      "time": 33,
      "duration": 0.176,
      "velocity": 0.86,
      "hand": "left"
    },
    {
      "midi": 52,
      "time": 33,
      "duration": 0.176,
      "velocity": 0.79,
      "hand": "left"
    },
    {
      "midi": 57,
      "time": 33,
      "duration": 0.176,
      "velocity": 0.79,
      "hand": "left"
    },
    {
      "midi": 64,
      "time": 33,
      "duration": 0.176,
      "velocity": 0.83,
      "hand": "right"
    },
    {
      "midi": 73,
      "time": 33,
      "duration": 0.176,
      "velocity": 0.83,
      "hand": "right"
    },
    {
      "midi": 35,
      "time": 33.353,
      "duration": 0.176,
      "velocity": 0.58,
      "hand": "left"
    },
    {
      "midi": 40,
      "time": 33.353,
      "duration": 0.176,
      "velocity": 0.86,
      "hand": "left"
    },
    {
      "midi": 42,
      "time": 33.353,
      "duration": 0.176,
      "velocity": 0.51,
      "hand": "left"
    },
    {
      "midi": 44,
      "time": 33.353,
      "duration": 0.176,
      "velocity": 0.86,
      "hand": "left"
    },
    {
      "midi": 52,
      "time": 33.353,
      "duration": 0.176,
      "velocity": 0.79,
      "hand": "left"
    },
    {
      "midi": 56,
      "time": 33.353,
      "duration": 0.176,
      "velocity": 0.79,
      "hand": "left"
    },
    {
      "midi": 62,
      "time": 33.353,
      "duration": 0.176,
      "velocity": 0.83,
      "hand": "right"
    },
    {
      "midi": 71,
      "time": 33.353,
      "duration": 0.176,
      "velocity": 0.83,
      "hand": "right"
    },
    {
      "midi": 33,
      "time": 33.706,
      "duration": 1.412,
      "velocity": 0.86,
      "hand": "left"
    },
    {
      "midi": 35,
      "time": 33.706,
      "duration": 0.176,
      "velocity": 0.73,
      "hand": "left"
    },
    {
      "midi": 42,
      "time": 33.706,
      "duration": 0.176,
      "velocity": 0.65,
      "hand": "left"
    },
    {
      "midi": 45,
      "time": 33.706,
      "duration": 1.412,
      "velocity": 0.79,
      "hand": "left"
    },
    {
      "midi": 57,
      "time": 33.706,
      "duration": 1.412,
      "velocity": 0.79,
      "hand": "left"
    },
    {
      "midi": 61,
      "time": 33.706,
      "duration": 1.412,
      "velocity": 0.83,
      "hand": "right"
    },
    {
      "midi": 69,
      "time": 33.706,
      "duration": 0.882,
      "velocity": 0.83,
      "hand": "right"
    },
    {
      "midi": 69,
      "time": 33.706,
      "duration": 1.412,
      "velocity": 0.86,
      "hand": "right"
    },
    {
      "midi": 42,
      "time": 34.059,
      "duration": 0.176,
      "velocity": 0.51,
      "hand": "left"
    },
    {
      "midi": 37,
      "time": 34.412,
      "duration": 0.176,
      "velocity": 0.73,
      "hand": "left"
    },
    {
      "midi": 42,
      "time": 34.412,
      "duration": 0.176,
      "velocity": 0.58,
      "hand": "left"
    },
    {
      "midi": 35,
      "time": 34.765,
      "duration": 0.176,
      "velocity": 0.58,
      "hand": "left"
    },
    {
      "midi": 42,
      "time": 34.765,
      "duration": 0.176,
      "velocity": 0.51,
      "hand": "left"
    },
    {
      "midi": 35,
      "time": 35.118,
      "duration": 0.176,
      "velocity": 0.73,
      "hand": "left"
    },
    {
      "midi": 42,
      "time": 35.118,
      "duration": 0.176,
      "velocity": 0.65,
      "hand": "left"
    },
    {
      "midi": 67,
      "time": 35.118,
      "duration": 0.529,
      "velocity": 0.83,
      "hand": "right"
    },
    {
      "midi": 42,
      "time": 35.471,
      "duration": 0.176,
      "velocity": 0.51,
      "hand": "left"
    },
    {
      "midi": 37,
      "time": 35.824,
      "duration": 0.176,
      "velocity": 0.73,
      "hand": "left"
    },
    {
      "midi": 42,
      "time": 35.824,
      "duration": 0.176,
      "velocity": 0.58,
      "hand": "left"
    },
    {
      "midi": 35,
      "time": 36.176,
      "duration": 0.176,
      "velocity": 0.58,
      "hand": "left"
    },
    {
      "midi": 42,
      "time": 36.176,
      "duration": 0.176,
      "velocity": 0.51,
      "hand": "left"
    },
    {
      "midi": 35,
      "time": 36.529,
      "duration": 0.176,
      "velocity": 0.73,
      "hand": "left"
    },
    {
      "midi": 38,
      "time": 36.529,
      "duration": 0.529,
      "velocity": 0.86,
      "hand": "left"
    },
    {
      "midi": 42,
      "time": 36.529,
      "duration": 0.176,
      "velocity": 0.65,
      "hand": "left"
    },
    {
      "midi": 45,
      "time": 36.529,
      "duration": 0.529,
      "velocity": 0.86,
      "hand": "left"
    },
    {
      "midi": 50,
      "time": 36.529,
      "duration": 0.529,
      "velocity": 0.79,
      "hand": "left"
    },
    {
      "midi": 57,
      "time": 36.529,
      "duration": 0.529,
      "velocity": 0.79,
      "hand": "left"
    },
    {
      "midi": 62,
      "time": 36.529,
      "duration": 0.529,
      "velocity": 0.83,
      "hand": "right"
    },
    {
      "midi": 66,
      "time": 36.529,
      "duration": 0.529,
      "velocity": 0.83,
      "hand": "right"
    },
    {
      "midi": 42,
      "time": 36.882,
      "duration": 0.176,
      "velocity": 0.51,
      "hand": "left"
    },
    {
      "midi": 37,
      "time": 37.235,
      "duration": 0.176,
      "velocity": 0.73,
      "hand": "left"
    },
    {
      "midi": 38,
      "time": 37.235,
      "duration": 0.353,
      "velocity": 0.86,
      "hand": "left"
    },
    {
      "midi": 42,
      "time": 37.235,
      "duration": 0.176,
      "velocity": 0.58,
      "hand": "left"
    },
    {
      "midi": 45,
      "time": 37.235,
      "duration": 0.353,
      "velocity": 0.86,
      "hand": "left"
    },
    {
      "midi": 50,
      "time": 37.235,
      "duration": 0.353,
      "velocity": 0.79,
      "hand": "left"
    },
    {
      "midi": 57,
      "time": 37.235,
      "duration": 0.353,
      "velocity": 0.79,
      "hand": "left"
    },
    {
      "midi": 62,
      "time": 37.235,
      "duration": 0.353,
      "velocity": 0.83,
      "hand": "right"
    },
    {
      "midi": 66,
      "time": 37.235,
      "duration": 0.353,
      "velocity": 0.83,
      "hand": "right"
    },
    {
      "midi": 35,
      "time": 37.588,
      "duration": 0.176,
      "velocity": 0.58,
      "hand": "left"
    },
    {
      "midi": 42,
      "time": 37.588,
      "duration": 0.176,
      "velocity": 0.51,
      "hand": "left"
    },
    {
      "midi": 38,
      "time": 37.765,
      "duration": 0.176,
      "velocity": 0.86,
      "hand": "left"
    },
    {
      "midi": 44,
      "time": 37.765,
      "duration": 0.176,
      "velocity": 0.86,
      "hand": "left"
    },
    {
      "midi": 50,
      "time": 37.765,
      "duration": 0.176,
      "velocity": 0.79,
      "hand": "left"
    },
    {
      "midi": 56,
      "time": 37.765,
      "duration": 0.176,
      "velocity": 0.79,
      "hand": "left"
    },
    {
      "midi": 62,
      "time": 37.765,
      "duration": 0.176,
      "velocity": 0.83,
      "hand": "right"
    },
    {
      "midi": 65,
      "time": 37.765,
      "duration": 0.176,
      "velocity": 0.83,
      "hand": "right"
    },
    {
      "midi": 35,
      "time": 37.941,
      "duration": 0.176,
      "velocity": 0.73,
      "hand": "left"
    },
    {
      "midi": 38,
      "time": 37.941,
      "duration": 0.529,
      "velocity": 0.86,
      "hand": "left"
    },
    {
      "midi": 42,
      "time": 37.941,
      "duration": 0.176,
      "velocity": 0.65,
      "hand": "left"
    },
    {
      "midi": 45,
      "time": 37.941,
      "duration": 0.529,
      "velocity": 0.86,
      "hand": "left"
    },
    {
      "midi": 50,
      "time": 37.941,
      "duration": 0.529,
      "velocity": 0.79,
      "hand": "left"
    },
    {
      "midi": 57,
      "time": 37.941,
      "duration": 0.529,
      "velocity": 0.79,
      "hand": "left"
    },
    {
      "midi": 62,
      "time": 37.941,
      "duration": 0.529,
      "velocity": 0.83,
      "hand": "right"
    },
    {
      "midi": 66,
      "time": 37.941,
      "duration": 0.529,
      "velocity": 0.83,
      "hand": "right"
    },
    {
      "midi": 42,
      "time": 38.294,
      "duration": 0.176,
      "velocity": 0.51,
      "hand": "left"
    },
    {
      "midi": 37,
      "time": 38.647,
      "duration": 0.176,
      "velocity": 0.73,
      "hand": "left"
    },
    {
      "midi": 38,
      "time": 38.647,
      "duration": 0.353,
      "velocity": 0.86,
      "hand": "left"
    },
    {
      "midi": 42,
      "time": 38.647,
      "duration": 0.176,
      "velocity": 0.58,
      "hand": "left"
    },
    {
      "midi": 45,
      "time": 38.647,
      "duration": 0.353,
      "velocity": 0.86,
      "hand": "left"
    },
    {
      "midi": 50,
      "time": 38.647,
      "duration": 0.353,
      "velocity": 0.79,
      "hand": "left"
    },
    {
      "midi": 57,
      "time": 38.647,
      "duration": 0.353,
      "velocity": 0.79,
      "hand": "left"
    },
    {
      "midi": 62,
      "time": 38.647,
      "duration": 0.353,
      "velocity": 0.83,
      "hand": "right"
    },
    {
      "midi": 66,
      "time": 38.647,
      "duration": 0.353,
      "velocity": 0.83,
      "hand": "right"
    },
    {
      "midi": 35,
      "time": 39,
      "duration": 0.176,
      "velocity": 0.58,
      "hand": "left"
    },
    {
      "midi": 42,
      "time": 39,
      "duration": 0.176,
      "velocity": 0.51,
      "hand": "left"
    },
    {
      "midi": 38,
      "time": 39.176,
      "duration": 0.176,
      "velocity": 0.86,
      "hand": "left"
    },
    {
      "midi": 45,
      "time": 39.176,
      "duration": 0.176,
      "velocity": 0.86,
      "hand": "left"
    },
    {
      "midi": 50,
      "time": 39.176,
      "duration": 0.176,
      "velocity": 0.79,
      "hand": "left"
    },
    {
      "midi": 57,
      "time": 39.176,
      "duration": 0.176,
      "velocity": 0.79,
      "hand": "left"
    },
    {
      "midi": 64,
      "time": 39.176,
      "duration": 0.176,
      "velocity": 0.83,
      "hand": "right"
    },
    {
      "midi": 67,
      "time": 39.176,
      "duration": 0.176,
      "velocity": 0.83,
      "hand": "right"
    },
    {
      "midi": 35,
      "time": 39.353,
      "duration": 0.176,
      "velocity": 0.73,
      "hand": "left"
    },
    {
      "midi": 38,
      "time": 39.353,
      "duration": 0.882,
      "velocity": 0.86,
      "hand": "left"
    },
    {
      "midi": 42,
      "time": 39.353,
      "duration": 0.176,
      "velocity": 0.65,
      "hand": "left"
    },
    {
      "midi": 50,
      "time": 39.353,
      "duration": 0.882,
      "velocity": 0.79,
      "hand": "left"
    },
    {
      "midi": 62,
      "time": 39.353,
      "duration": 0.882,
      "velocity": 0.79,
      "hand": "right"
    },
    {
      "midi": 66,
      "time": 39.353,
      "duration": 0.882,
      "velocity": 0.83,
      "hand": "right"
    },
    {
      "midi": 69,
      "time": 39.353,
      "duration": 0.882,
      "velocity": 0.83,
      "hand": "right"
    },
    {
      "midi": 42,
      "time": 39.706,
      "duration": 0.176,
      "velocity": 0.51,
      "hand": "left"
    },
    {
      "midi": 37,
      "time": 40.059,
      "duration": 0.176,
      "velocity": 0.73,
      "hand": "left"
    },
    {
      "midi": 42,
      "time": 40.059,
      "duration": 0.176,
      "velocity": 0.58,
      "hand": "left"
    },
    {
      "midi": 35,
      "time": 40.412,
      "duration": 0.176,
      "velocity": 0.58,
      "hand": "left"
    },
    {
      "midi": 42,
      "time": 40.412,
      "duration": 0.176,
      "velocity": 0.51,
      "hand": "left"
    },
    {
      "midi": 35,
      "time": 40.765,
      "duration": 0.176,
      "velocity": 0.73,
      "hand": "left"
    },
    {
      "midi": 38,
      "time": 40.765,
      "duration": 0.529,
      "velocity": 0.86,
      "hand": "left"
    },
    {
      "midi": 42,
      "time": 40.765,
      "duration": 0.176,
      "velocity": 0.65,
      "hand": "left"
    },
    {
      "midi": 50,
      "time": 40.765,
      "duration": 0.529,
      "velocity": 0.79,
      "hand": "left"
    },
    {
      "midi": 62,
      "time": 40.765,
      "duration": 0.529,
      "velocity": 0.79,
      "hand": "right"
    },
    {
      "midi": 66,
      "time": 40.765,
      "duration": 0.529,
      "velocity": 0.83,
      "hand": "right"
    },
    {
      "midi": 69,
      "time": 40.765,
      "duration": 0.529,
      "velocity": 0.83,
      "hand": "right"
    },
    {
      "midi": 42,
      "time": 41.118,
      "duration": 0.176,
      "velocity": 0.51,
      "hand": "left"
    },
    {
      "midi": 37,
      "time": 41.471,
      "duration": 0.176,
      "velocity": 0.73,
      "hand": "left"
    },
    {
      "midi": 38,
      "time": 41.471,
      "duration": 0.353,
      "velocity": 0.86,
      "hand": "left"
    },
    {
      "midi": 42,
      "time": 41.471,
      "duration": 0.176,
      "velocity": 0.58,
      "hand": "left"
    },
    {
      "midi": 45,
      "time": 41.471,
      "duration": 0.353,
      "velocity": 0.86,
      "hand": "left"
    },
    {
      "midi": 50,
      "time": 41.471,
      "duration": 0.353,
      "velocity": 0.79,
      "hand": "left"
    },
    {
      "midi": 57,
      "time": 41.471,
      "duration": 0.353,
      "velocity": 0.79,
      "hand": "left"
    },
    {
      "midi": 66,
      "time": 41.471,
      "duration": 0.353,
      "velocity": 0.83,
      "hand": "right"
    },
    {
      "midi": 69,
      "time": 41.471,
      "duration": 0.353,
      "velocity": 0.83,
      "hand": "right"
    },
    {
      "midi": 35,
      "time": 41.824,
      "duration": 0.176,
      "velocity": 0.58,
      "hand": "left"
    },
    {
      "midi": 42,
      "time": 41.824,
      "duration": 0.176,
      "velocity": 0.51,
      "hand": "left"
    },
    {
      "midi": 38,
      "time": 42,
      "duration": 0.176,
      "velocity": 0.86,
      "hand": "left"
    },
    {
      "midi": 45,
      "time": 42,
      "duration": 0.176,
      "velocity": 0.86,
      "hand": "left"
    },
    {
      "midi": 50,
      "time": 42,
      "duration": 0.176,
      "velocity": 0.79,
      "hand": "left"
    },
    {
      "midi": 57,
      "time": 42,
      "duration": 0.176,
      "velocity": 0.79,
      "hand": "left"
    },
    {
      "midi": 62,
      "time": 42,
      "duration": 0.176,
      "velocity": 0.83,
      "hand": "right"
    },
    {
      "midi": 66,
      "time": 42,
      "duration": 0.176,
      "velocity": 0.83,
      "hand": "right"
    },
    {
      "midi": 35,
      "time": 42.176,
      "duration": 0.176,
      "velocity": 0.73,
      "hand": "left"
    },
    {
      "midi": 42,
      "time": 42.176,
      "duration": 0.176,
      "velocity": 0.65,
      "hand": "left"
    },
    {
      "midi": 43,
      "time": 42.176,
      "duration": 0.529,
      "velocity": 0.86,
      "hand": "left"
    },
    {
      "midi": 47,
      "time": 42.176,
      "duration": 0.529,
      "velocity": 0.86,
      "hand": "left"
    },
    {
      "midi": 55,
      "time": 42.176,
      "duration": 0.529,
      "velocity": 0.79,
      "hand": "left"
    },
    {
      "midi": 59,
      "time": 42.176,
      "duration": 0.529,
      "velocity": 0.79,
      "hand": "left"
    },
    {
      "midi": 62,
      "time": 42.176,
      "duration": 0.529,
      "velocity": 0.83,
      "hand": "right"
    },
    {
      "midi": 64,
      "time": 42.176,
      "duration": 0.529,
      "velocity": 0.83,
      "hand": "right"
    },
    {
      "midi": 42,
      "time": 42.529,
      "duration": 0.176,
      "velocity": 0.51,
      "hand": "left"
    },
    {
      "midi": 37,
      "time": 42.882,
      "duration": 0.176,
      "velocity": 0.73,
      "hand": "left"
    },
    {
      "midi": 42,
      "time": 42.882,
      "duration": 0.176,
      "velocity": 0.58,
      "hand": "left"
    },
    {
      "midi": 43,
      "time": 42.882,
      "duration": 0.353,
      "velocity": 0.86,
      "hand": "left"
    },
    {
      "midi": 47,
      "time": 42.882,
      "duration": 0.353,
      "velocity": 0.86,
      "hand": "left"
    },
    {
      "midi": 55,
      "time": 42.882,
      "duration": 0.353,
      "velocity": 0.79,
      "hand": "left"
    },
    {
      "midi": 59,
      "time": 42.882,
      "duration": 0.353,
      "velocity": 0.79,
      "hand": "left"
    },
    {
      "midi": 62,
      "time": 42.882,
      "duration": 0.353,
      "velocity": 0.83,
      "hand": "right"
    },
    {
      "midi": 64,
      "time": 43.059,
      "duration": 0.353,
      "velocity": 0.83,
      "hand": "right"
    },
    {
      "midi": 35,
      "time": 43.235,
      "duration": 0.176,
      "velocity": 0.58,
      "hand": "left"
    },
    {
      "midi": 42,
      "time": 43.235,
      "duration": 0.176,
      "velocity": 0.51,
      "hand": "left"
    },
    {
      "midi": 43,
      "time": 43.412,
      "duration": 0.176,
      "velocity": 0.86,
      "hand": "left"
    },
    {
      "midi": 47,
      "time": 43.412,
      "duration": 0.176,
      "velocity": 0.86,
      "hand": "left"
    },
    {
      "midi": 55,
      "time": 43.412,
      "duration": 0.176,
      "velocity": 0.79,
      "hand": "left"
    },
    {
      "midi": 59,
      "time": 43.412,
      "duration": 0.176,
      "velocity": 0.79,
      "hand": "left"
    },
    {
      "midi": 62,
      "time": 43.412,
      "duration": 0.176,
      "velocity": 0.83,
      "hand": "right"
    },
    {
      "midi": 64,
      "time": 43.412,
      "duration": 0.176,
      "velocity": 0.83,
      "hand": "right"
    },
    {
      "midi": 35,
      "time": 43.588,
      "duration": 0.176,
      "velocity": 0.73,
      "hand": "left"
    },
    {
      "midi": 42,
      "time": 43.588,
      "duration": 0.176,
      "velocity": 0.65,
      "hand": "left"
    },
    {
      "midi": 45,
      "time": 43.588,
      "duration": 0.529,
      "velocity": 0.86,
      "hand": "left"
    },
    {
      "midi": 57,
      "time": 43.588,
      "duration": 0.529,
      "velocity": 0.79,
      "hand": "left"
    },
    {
      "midi": 61,
      "time": 43.588,
      "duration": 0.529,
      "velocity": 0.83,
      "hand": "right"
    },
    {
      "midi": 64,
      "time": 43.588,
      "duration": 0.529,
      "velocity": 0.83,
      "hand": "right"
    },
    {
      "midi": 38,
      "time": 43.941,
      "duration": 0.176,
      "velocity": 0.73,
      "hand": "left"
    },
    {
      "midi": 42,
      "time": 43.941,
      "duration": 0.176,
      "velocity": 0.51,
      "hand": "left"
    },
    {
      "midi": 38,
      "time": 44.118,
      "duration": 0.176,
      "velocity": 0.58,
      "hand": "left"
    },
    {
      "midi": 33,
      "time": 44.294,
      "duration": 0.353,
      "velocity": 0.86,
      "hand": "left"
    },
    {
      "midi": 38,
      "time": 44.294,
      "duration": 0.176,
      "velocity": 0.83,
      "hand": "left"
    },
    {
      "midi": 42,
      "time": 44.294,
      "duration": 0.176,
      "velocity": 0.58,
      "hand": "left"
    },
    {
      "midi": 45,
      "time": 44.294,
      "duration": 0.353,
      "velocity": 0.79,
      "hand": "left"
    },
    {
      "midi": 57,
      "time": 44.294,
      "duration": 0.353,
      "velocity": 0.79,
      "hand": "left"
    },
    {
      "midi": 61,
      "time": 44.294,
      "duration": 0.353,
      "velocity": 0.83,
      "hand": "right"
    },
    {
      "midi": 66,
      "time": 44.294,
      "duration": 0.353,
      "velocity": 0.83,
      "hand": "right"
    },
    {
      "midi": 35,
      "time": 44.647,
      "duration": 0.176,
      "velocity": 0.58,
      "hand": "left"
    },
    {
      "midi": 46,
      "time": 44.647,
      "duration": 0.176,
      "velocity": 0.65,
      "hand": "left"
    },
    {
      "midi": 33,
      "time": 44.824,
      "duration": 0.176,
      "velocity": 0.86,
      "hand": "left"
    },
    {
      "midi": 43,
      "time": 44.824,
      "duration": 0.176,
      "velocity": 0.86,
      "hand": "left"
    },
    {
      "midi": 45,
      "time": 44.824,
      "duration": 0.176,
      "velocity": 0.79,
      "hand": "left"
    },
    {
      "midi": 55,
      "time": 44.824,
      "duration": 0.176,
      "velocity": 0.79,
      "hand": "left"
    },
    {
      "midi": 61,
      "time": 44.824,
      "duration": 0.176,
      "velocity": 0.83,
      "hand": "right"
    },
    {
      "midi": 64,
      "time": 44.824,
      "duration": 0.176,
      "velocity": 0.83,
      "hand": "right"
    },
    {
      "midi": 35,
      "time": 45,
      "duration": 0.176,
      "velocity": 0.65,
      "hand": "left"
    },
    {
      "midi": 38,
      "time": 45,
      "duration": 1.412,
      "velocity": 0.86,
      "hand": "left"
    },
    {
      "midi": 42,
      "time": 45,
      "duration": 1.412,
      "velocity": 0.86,
      "hand": "left"
    },
    {
      "midi": 42,
      "time": 45,
      "duration": 0.176,
      "velocity": 0.58,
      "hand": "left"
    },
    {
      "midi": 50,
      "time": 45,
      "duration": 1.412,
      "velocity": 0.79,
      "hand": "left"
    },
    {
      "midi": 54,
      "time": 45,
      "duration": 1.412,
      "velocity": 0.79,
      "hand": "left"
    },
    {
      "midi": 62,
      "time": 45,
      "duration": 1.412,
      "velocity": 0.83,
      "hand": "right"
    },
    {
      "midi": 42,
      "time": 45.353,
      "duration": 0.176,
      "velocity": 0.36,
      "hand": "left"
    },
    {
      "midi": 42,
      "time": 45.529,
      "duration": 0.176,
      "velocity": 0.73,
      "hand": "left"
    },
    {
      "midi": 38,
      "time": 45.706,
      "duration": 0.176,
      "velocity": 0.73,
      "hand": "left"
    },
    {
      "midi": 46,
      "time": 45.706,
      "duration": 0.176,
      "velocity": 0.73,
      "hand": "left"
    },
    {
      "midi": 35,
      "time": 46.235,
      "duration": 0.176,
      "velocity": 0.65,
      "hand": "left"
    },
    {
      "midi": 38,
      "time": 46.412,
      "duration": 0.176,
      "velocity": 0.73,
      "hand": "left"
    },
    {
      "midi": 38,
      "time": 46.588,
      "duration": 0.176,
      "velocity": 0.43,
      "hand": "left"
    },
    {
      "midi": 35,
      "time": 46.941,
      "duration": 0.176,
      "velocity": 0.65,
      "hand": "left"
    },
    {
      "midi": 38,
      "time": 47.118,
      "duration": 0.176,
      "velocity": 0.73,
      "hand": "left"
    },
    {
      "midi": 38,
      "time": 47.294,
      "duration": 0.176,
      "velocity": 0.43,
      "hand": "left"
    },
    {
      "midi": 41,
      "time": 47.471,
      "duration": 0.176,
      "velocity": 0.83,
      "hand": "left"
    },
    {
      "midi": 35,
      "time": 47.824,
      "duration": 0.176,
      "velocity": 0.73,
      "hand": "left"
    },
    {
      "midi": 38,
      "time": 47.824,
      "duration": 0.176,
      "velocity": 0.86,
      "hand": "left"
    },
    {
      "midi": 42,
      "time": 47.824,
      "duration": 0.176,
      "velocity": 0.65,
      "hand": "left"
    },
    {
      "midi": 49,
      "time": 47.824,
      "duration": 0.176,
      "velocity": 0.65,
      "hand": "left"
    },
    {
      "midi": 50,
      "time": 47.824,
      "duration": 0.176,
      "velocity": 0.79,
      "hand": "left"
    },
    {
      "midi": 62,
      "time": 47.824,
      "duration": 0.176,
      "velocity": 0.79,
      "hand": "right"
    },
    {
      "midi": 66,
      "time": 47.824,
      "duration": 0.176,
      "velocity": 0.83,
      "hand": "right"
    },
    {
      "midi": 69,
      "time": 47.824,
      "duration": 1.588,
      "velocity": 0.83,
      "hand": "right"
    },
    {
      "midi": 38,
      "time": 48,
      "duration": 0.353,
      "velocity": 0.86,
      "hand": "left"
    },
    {
      "midi": 50,
      "time": 48,
      "duration": 0.353,
      "velocity": 0.79,
      "hand": "left"
    },
    {
      "midi": 62,
      "time": 48,
      "duration": 0.353,
      "velocity": 0.79,
      "hand": "right"
    },
    {
      "midi": 66,
      "time": 48,
      "duration": 0.353,
      "velocity": 0.83,
      "hand": "right"
    },
    {
      "midi": 42,
      "time": 48.176,
      "duration": 0.176,
      "velocity": 0.51,
      "hand": "left"
    },
    {
      "midi": 42,
      "time": 48.353,
      "duration": 0.176,
      "velocity": 0.43,
      "hand": "left"
    },
    {
      "midi": 38,
      "time": 48.529,
      "duration": 0.353,
      "velocity": 0.86,
      "hand": "left"
    },
    {
      "midi": 38,
      "time": 48.529,
      "duration": 0.176,
      "velocity": 0.73,
      "hand": "left"
    },
    {
      "midi": 42,
      "time": 48.529,
      "duration": 0.176,
      "velocity": 0.58,
      "hand": "left"
    },
    {
      "midi": 50,
      "time": 48.529,
      "duration": 0.353,
      "velocity": 0.79,
      "hand": "left"
    },
    {
      "midi": 62,
      "time": 48.529,
      "duration": 0.353,
      "velocity": 0.79,
      "hand": "right"
    },
    {
      "midi": 66,
      "time": 48.529,
      "duration": 0.353,
      "velocity": 0.83,
      "hand": "right"
    },
    {
      "midi": 42,
      "time": 48.882,
      "duration": 0.176,
      "velocity": 0.51,
      "hand": "left"
    },
    {
      "midi": 35,
      "time": 49.059,
      "duration": 0.176,
      "velocity": 0.58,
      "hand": "left"
    },
    {
      "midi": 38,
      "time": 49.059,
      "duration": 0.176,
      "velocity": 0.86,
      "hand": "left"
    },
    {
      "midi": 42,
      "time": 49.059,
      "duration": 0.176,
      "velocity": 0.43,
      "hand": "left"
    },
    {
      "midi": 50,
      "time": 49.059,
      "duration": 0.176,
      "velocity": 0.79,
      "hand": "left"
    },
    {
      "midi": 62,
      "time": 49.059,
      "duration": 0.176,
      "velocity": 0.79,
      "hand": "right"
    },
    {
      "midi": 66,
      "time": 49.059,
      "duration": 0.176,
      "velocity": 0.83,
      "hand": "right"
    },
    {
      "midi": 35,
      "time": 49.235,
      "duration": 0.176,
      "velocity": 0.73,
      "hand": "left"
    },
    {
      "midi": 38,
      "time": 49.235,
      "duration": 0.529,
      "velocity": 0.86,
      "hand": "left"
    },
    {
      "midi": 42,
      "time": 49.235,
      "duration": 0.176,
      "velocity": 0.65,
      "hand": "left"
    },
    {
      "midi": 50,
      "time": 49.235,
      "duration": 0.529,
      "velocity": 0.79,
      "hand": "left"
    },
    {
      "midi": 62,
      "time": 49.235,
      "duration": 0.529,
      "velocity": 0.79,
      "hand": "right"
    },
    {
      "midi": 66,
      "time": 49.235,
      "duration": 0.529,
      "velocity": 0.83,
      "hand": "right"
    },
    {
      "midi": 69,
      "time": 49.235,
      "duration": 0.353,
      "velocity": 0.83,
      "hand": "right"
    },
    {
      "midi": 42,
      "time": 49.588,
      "duration": 0.176,
      "velocity": 0.51,
      "hand": "left"
    },
    {
      "midi": 42,
      "time": 49.765,
      "duration": 0.176,
      "velocity": 0.43,
      "hand": "left"
    },
    {
      "midi": 66,
      "time": 49.765,
      "duration": 0.176,
      "velocity": 0.83,
      "hand": "right"
    },
    {
      "midi": 38,
      "time": 49.941,
      "duration": 0.176,
      "velocity": 0.73,
      "hand": "left"
    },
    {
      "midi": 42,
      "time": 49.941,
      "duration": 0.176,
      "velocity": 0.58,
      "hand": "left"
    },
    {
      "midi": 69,
      "time": 49.941,
      "duration": 0.353,
      "velocity": 0.83,
      "hand": "right"
    },
    {
      "midi": 35,
      "time": 50.294,
      "duration": 0.176,
      "velocity": 0.58,
      "hand": "left"
    },
    {
      "midi": 42,
      "time": 50.294,
      "duration": 0.176,
      "velocity": 0.51,
      "hand": "left"
    },
    {
      "midi": 42,
      "time": 50.471,
      "duration": 0.176,
      "velocity": 0.43,
      "hand": "left"
    },
    {
      "midi": 74,
      "time": 50.471,
      "duration": 0.176,
      "velocity": 0.83,
      "hand": "right"
    },
    {
      "midi": 33,
      "time": 50.647,
      "duration": 0.176,
      "velocity": 0.86,
      "hand": "left"
    },
    {
      "midi": 35,
      "time": 50.647,
      "duration": 0.176,
      "velocity": 0.73,
      "hand": "left"
    },
    {
      "midi": 42,
      "time": 50.647,
      "duration": 0.176,
      "velocity": 0.65,
      "hand": "left"
    },
    {
      "midi": 45,
      "time": 50.647,
      "duration": 0.176,
      "velocity": 0.79,
      "hand": "left"
    },
    {
      "midi": 52,
      "time": 50.647,
      "duration": 0.176,
      "velocity": 0.86,
      "hand": "left"
    },
    {
      "midi": 64,
      "time": 50.647,
      "duration": 0.176,
      "velocity": 0.79,
      "hand": "right"
    },
    {
      "midi": 67,
      "time": 50.647,
      "duration": 0.176,
      "velocity": 0.83,
      "hand": "right"
    },
    {
      "midi": 73,
      "time": 50.647,
      "duration": 1.588,
      "velocity": 0.83,
      "hand": "right"
    },
    {
      "midi": 73,
      "time": 50.647,
      "duration": 0.882,
      "velocity": 0.86,
      "hand": "right"
    },
    {
      "midi": 33,
      "time": 50.824,
      "duration": 0.353,
      "velocity": 0.86,
      "hand": "left"
    },
    {
      "midi": 45,
      "time": 50.824,
      "duration": 0.353,
      "velocity": 0.79,
      "hand": "left"
    },
    {
      "midi": 52,
      "time": 50.824,
      "duration": 0.353,
      "velocity": 0.86,
      "hand": "left"
    },
    {
      "midi": 64,
      "time": 50.824,
      "duration": 0.353,
      "velocity": 0.79,
      "hand": "right"
    },
    {
      "midi": 67,
      "time": 50.824,
      "duration": 0.353,
      "velocity": 0.83,
      "hand": "right"
    },
    {
      "midi": 42,
      "time": 51,
      "duration": 0.176,
      "velocity": 0.51,
      "hand": "left"
    },
    {
      "midi": 42,
      "time": 51.176,
      "duration": 0.176,
      "velocity": 0.43,
      "hand": "left"
    },
    {
      "midi": 33,
      "time": 51.353,
      "duration": 0.353,
      "velocity": 0.86,
      "hand": "left"
    },
    {
      "midi": 38,
      "time": 51.353,
      "duration": 0.176,
      "velocity": 0.73,
      "hand": "left"
    },
    {
      "midi": 42,
      "time": 51.353,
      "duration": 0.176,
      "velocity": 0.58,
      "hand": "left"
    },
    {
      "midi": 45,
      "time": 51.353,
      "duration": 0.353,
      "velocity": 0.79,
      "hand": "left"
    },
    {
      "midi": 52,
      "time": 51.353,
      "duration": 0.353,
      "velocity": 0.86,
      "hand": "left"
    },
    {
      "midi": 64,
      "time": 51.353,
      "duration": 0.353,
      "velocity": 0.79,
      "hand": "right"
    },
    {
      "midi": 67,
      "time": 51.353,
      "duration": 0.353,
      "velocity": 0.83,
      "hand": "right"
    },
    {
      "midi": 42,
      "time": 51.706,
      "duration": 0.176,
      "velocity": 0.51,
      "hand": "left"
    },
    {
      "midi": 33,
      "time": 51.882,
      "duration": 0.176,
      "velocity": 0.86,
      "hand": "left"
    },
    {
      "midi": 35,
      "time": 51.882,
      "duration": 0.176,
      "velocity": 0.58,
      "hand": "left"
    },
    {
      "midi": 45,
      "time": 51.882,
      "duration": 0.176,
      "velocity": 0.79,
      "hand": "left"
    },
    {
      "midi": 46,
      "time": 51.882,
      "duration": 0.176,
      "velocity": 0.52,
      "hand": "left"
    },
    {
      "midi": 52,
      "time": 51.882,
      "duration": 0.176,
      "velocity": 0.86,
      "hand": "left"
    },
    {
      "midi": 64,
      "time": 51.882,
      "duration": 0.176,
      "velocity": 0.79,
      "hand": "right"
    },
    {
      "midi": 67,
      "time": 51.882,
      "duration": 0.176,
      "velocity": 0.83,
      "hand": "right"
    },
    {
      "midi": 33,
      "time": 52.059,
      "duration": 0.529,
      "velocity": 0.86,
      "hand": "left"
    },
    {
      "midi": 35,
      "time": 52.059,
      "duration": 0.176,
      "velocity": 0.73,
      "hand": "left"
    },
    {
      "midi": 42,
      "time": 52.059,
      "duration": 0.176,
      "velocity": 0.65,
      "hand": "left"
    },
    {
      "midi": 45,
      "time": 52.059,
      "duration": 0.529,
      "velocity": 0.79,
      "hand": "left"
    },
    {
      "midi": 52,
      "time": 52.059,
      "duration": 0.529,
      "velocity": 0.86,
      "hand": "left"
    },
    {
      "midi": 64,
      "time": 52.059,
      "duration": 0.529,
      "velocity": 0.79,
      "hand": "right"
    },
    {
      "midi": 67,
      "time": 52.059,
      "duration": 0.529,
      "velocity": 0.83,
      "hand": "right"
    },
    {
      "midi": 73,
      "time": 52.059,
      "duration": 0.529,
      "velocity": 0.83,
      "hand": "right"
    },
    {
      "midi": 35,
      "time": 52.412,
      "duration": 0.176,
      "velocity": 0.58,
      "hand": "left"
    },
    {
      "midi": 42,
      "time": 52.412,
      "duration": 0.176,
      "velocity": 0.51,
      "hand": "left"
    },
    {
      "midi": 42,
      "time": 52.588,
      "duration": 0.176,
      "velocity": 0.43,
      "hand": "left"
    },
    {
      "midi": 38,
      "time": 52.765,
      "duration": 0.176,
      "velocity": 0.73,
      "hand": "left"
    },
    {
      "midi": 42,
      "time": 52.765,
      "duration": 0.176,
      "velocity": 0.58,
      "hand": "left"
    },
    {
      "midi": 35,
      "time": 53.118,
      "duration": 0.176,
      "velocity": 0.58,
      "hand": "left"
    },
    {
      "midi": 42,
      "time": 53.118,
      "duration": 0.176,
      "velocity": 0.51,
      "hand": "left"
    },
    {
      "midi": 42,
      "time": 53.294,
      "duration": 0.176,
      "velocity": 0.43,
      "hand": "left"
    },
    {
      "midi": 35,
      "time": 53.471,
      "duration": 0.176,
      "velocity": 0.73,
      "hand": "left"
    },
    {
      "midi": 42,
      "time": 53.471,
      "duration": 0.176,
      "velocity": 0.65,
      "hand": "left"
    },
    {
      "midi": 45,
      "time": 53.471,
      "duration": 0.176,
      "velocity": 0.86,
      "hand": "left"
    },
    {
      "midi": 49,
      "time": 53.471,
      "duration": 0.176,
      "velocity": 0.86,
      "hand": "left"
    },
    {
      "midi": 57,
      "time": 53.471,
      "duration": 0.176,
      "velocity": 0.79,
      "hand": "left"
    },
    {
      "midi": 61,
      "time": 53.471,
      "duration": 0.176,
      "velocity": 0.79,
      "hand": "right"
    },
    {
      "midi": 64,
      "time": 53.471,
      "duration": 0.176,
      "velocity": 0.83,
      "hand": "right"
    },
    {
      "midi": 67,
      "time": 53.471,
      "duration": 1.588,
      "velocity": 0.83,
      "hand": "right"
    },
    {
      "midi": 45,
      "time": 53.647,
      "duration": 0.353,
      "velocity": 0.86,
      "hand": "left"
    },
    {
      "midi": 49,
      "time": 53.647,
      "duration": 0.353,
      "velocity": 0.86,
      "hand": "left"
    },
    {
      "midi": 57,
      "time": 53.647,
      "duration": 0.353,
      "velocity": 0.79,
      "hand": "left"
    },
    {
      "midi": 61,
      "time": 53.647,
      "duration": 0.353,
      "velocity": 0.79,
      "hand": "right"
    },
    {
      "midi": 64,
      "time": 53.647,
      "duration": 0.353,
      "velocity": 0.83,
      "hand": "right"
    },
    {
      "midi": 42,
      "time": 53.824,
      "duration": 0.176,
      "velocity": 0.51,
      "hand": "left"
    },
    {
      "midi": 42,
      "time": 54,
      "duration": 0.176,
      "velocity": 0.43,
      "hand": "left"
    },
    {
      "midi": 38,
      "time": 54.176,
      "duration": 0.176,
      "velocity": 0.73,
      "hand": "left"
    },
    {
      "midi": 42,
      "time": 54.176,
      "duration": 0.176,
      "velocity": 0.58,
      "hand": "left"
    },
    {
      "midi": 45,
      "time": 54.176,
      "duration": 0.353,
      "velocity": 0.86,
      "hand": "left"
    },
    {
      "midi": 49,
      "time": 54.176,
      "duration": 0.353,
      "velocity": 0.86,
      "hand": "left"
    },
    {
      "midi": 57,
      "time": 54.176,
      "duration": 0.353,
      "velocity": 0.79,
      "hand": "left"
    },
    {
      "midi": 61,
      "time": 54.176,
      "duration": 0.353,
      "velocity": 0.79,
      "hand": "right"
    },
    {
      "midi": 64,
      "time": 54.176,
      "duration": 0.353,
      "velocity": 0.83,
      "hand": "right"
    },
    {
      "midi": 42,
      "time": 54.529,
      "duration": 0.176,
      "velocity": 0.51,
      "hand": "left"
    },
    {
      "midi": 35,
      "time": 54.706,
      "duration": 0.176,
      "velocity": 0.58,
      "hand": "left"
    },
    {
      "midi": 42,
      "time": 54.706,
      "duration": 0.176,
      "velocity": 0.43,
      "hand": "left"
    },
    {
      "midi": 45,
      "time": 54.706,
      "duration": 0.176,
      "velocity": 0.86,
      "hand": "left"
    },
    {
      "midi": 49,
      "time": 54.706,
      "duration": 0.176,
      "velocity": 0.86,
      "hand": "left"
    },
    {
      "midi": 57,
      "time": 54.706,
      "duration": 0.176,
      "velocity": 0.79,
      "hand": "left"
    },
    {
      "midi": 61,
      "time": 54.706,
      "duration": 0.176,
      "velocity": 0.79,
      "hand": "right"
    },
    {
      "midi": 64,
      "time": 54.706,
      "duration": 0.176,
      "velocity": 0.83,
      "hand": "right"
    },
    {
      "midi": 35,
      "time": 54.882,
      "duration": 0.176,
      "velocity": 0.73,
      "hand": "left"
    },
    {
      "midi": 42,
      "time": 54.882,
      "duration": 0.176,
      "velocity": 0.65,
      "hand": "left"
    },
    {
      "midi": 45,
      "time": 54.882,
      "duration": 0.529,
      "velocity": 0.86,
      "hand": "left"
    },
    {
      "midi": 49,
      "time": 54.882,
      "duration": 0.529,
      "velocity": 0.86,
      "hand": "left"
    },
    {
      "midi": 57,
      "time": 54.882,
      "duration": 0.529,
      "velocity": 0.79,
      "hand": "left"
    },
    {
      "midi": 61,
      "time": 54.882,
      "duration": 0.529,
      "velocity": 0.79,
      "hand": "right"
    },
    {
      "midi": 64,
      "time": 54.882,
      "duration": 0.529,
      "velocity": 0.83,
      "hand": "right"
    },
    {
      "midi": 67,
      "time": 54.882,
      "duration": 0.353,
      "velocity": 0.83,
      "hand": "right"
    },
    {
      "midi": 42,
      "time": 55.235,
      "duration": 0.176,
      "velocity": 0.51,
      "hand": "left"
    },
    {
      "midi": 46,
      "time": 55.412,
      "duration": 0.176,
      "velocity": 0.58,
      "hand": "left"
    },
    {
      "midi": 64,
      "time": 55.412,
      "duration": 0.176,
      "velocity": 0.83,
      "hand": "right"
    },
    {
      "midi": 38,
      "time": 55.588,
      "duration": 0.176,
      "velocity": 0.73,
      "hand": "left"
    },
    {
      "midi": 42,
      "time": 55.588,
      "duration": 0.176,
      "velocity": 0.58,
      "hand": "left"
    },
    {
      "midi": 67,
      "time": 55.588,
      "duration": 0.353,
      "velocity": 0.83,
      "hand": "right"
    },
    {
      "midi": 35,
      "time": 55.941,
      "duration": 0.176,
      "velocity": 0.58,
      "hand": "left"
    },
    {
      "midi": 42,
      "time": 55.941,
      "duration": 0.176,
      "velocity": 0.51,
      "hand": "left"
    },
    {
      "midi": 42,
      "time": 56.118,
      "duration": 0.176,
      "velocity": 0.43,
      "hand": "left"
    },
    {
      "midi": 71,
      "time": 56.118,
      "duration": 0.176,
      "velocity": 0.83,
      "hand": "right"
    },
    {
      "midi": 35,
      "time": 56.294,
      "duration": 0.176,
      "velocity": 0.73,
      "hand": "left"
    },
    {
      "midi": 38,
      "time": 56.294,
      "duration": 0.176,
      "velocity": 0.86,
      "hand": "left"
    },
    {
      "midi": 42,
      "time": 56.294,
      "duration": 0.176,
      "velocity": 0.65,
      "hand": "left"
    },
    {
      "midi": 50,
      "time": 56.294,
      "duration": 0.176,
      "velocity": 0.79,
      "hand": "left"
    },
    {
      "midi": 62,
      "time": 56.294,
      "duration": 0.176,
      "velocity": 0.79,
      "hand": "right"
    },
    {
      "midi": 69,
      "time": 56.294,
      "duration": 0.882,
      "velocity": 0.83,
      "hand": "right"
    },
    {
      "midi": 38,
      "time": 56.471,
      "duration": 0.353,
      "velocity": 0.86,
      "hand": "left"
    },
    {
      "midi": 50,
      "time": 56.471,
      "duration": 0.353,
      "velocity": 0.79,
      "hand": "left"
    },
    {
      "midi": 62,
      "time": 56.471,
      "duration": 0.353,
      "velocity": 0.79,
      "hand": "right"
    },
    {
      "midi": 42,
      "time": 56.647,
      "duration": 0.176,
      "velocity": 0.51,
      "hand": "left"
    },
    {
      "midi": 42,
      "time": 56.824,
      "duration": 0.176,
      "velocity": 0.43,
      "hand": "left"
    },
    {
      "midi": 38,
      "time": 57,
      "duration": 0.353,
      "velocity": 0.86,
      "hand": "left"
    },
    {
      "midi": 38,
      "time": 57,
      "duration": 0.176,
      "velocity": 0.73,
      "hand": "left"
    },
    {
      "midi": 42,
      "time": 57,
      "duration": 0.176,
      "velocity": 0.58,
      "hand": "left"
    },
    {
      "midi": 50,
      "time": 57,
      "duration": 0.353,
      "velocity": 0.79,
      "hand": "left"
    },
    {
      "midi": 62,
      "time": 57,
      "duration": 0.353,
      "velocity": 0.79,
      "hand": "right"
    },
    {
      "midi": 42,
      "time": 57.353,
      "duration": 0.176,
      "velocity": 0.51,
      "hand": "left"
    },
    {
      "midi": 35,
      "time": 57.529,
      "duration": 0.176,
      "velocity": 0.58,
      "hand": "left"
    },
    {
      "midi": 38,
      "time": 57.529,
      "duration": 0.176,
      "velocity": 0.86,
      "hand": "left"
    },
    {
      "midi": 42,
      "time": 57.529,
      "duration": 0.176,
      "velocity": 0.43,
      "hand": "left"
    },
    {
      "midi": 50,
      "time": 57.529,
      "duration": 0.176,
      "velocity": 0.79,
      "hand": "left"
    },
    {
      "midi": 62,
      "time": 57.529,
      "duration": 0.176,
      "velocity": 0.79,
      "hand": "right"
    },
    {
      "midi": 35,
      "time": 57.706,
      "duration": 0.176,
      "velocity": 0.73,
      "hand": "left"
    },
    {
      "midi": 38,
      "time": 57.706,
      "duration": 0.529,
      "velocity": 0.86,
      "hand": "left"
    },
    {
      "midi": 42,
      "time": 57.706,
      "duration": 0.176,
      "velocity": 0.65,
      "hand": "left"
    },
    {
      "midi": 50,
      "time": 57.706,
      "duration": 0.529,
      "velocity": 0.79,
      "hand": "left"
    },
    {
      "midi": 62,
      "time": 57.706,
      "duration": 0.529,
      "velocity": 0.79,
      "hand": "right"
    },
    {
      "midi": 69,
      "time": 57.706,
      "duration": 0.529,
      "velocity": 0.83,
      "hand": "right"
    },
    {
      "midi": 42,
      "time": 58.059,
      "duration": 0.176,
      "velocity": 0.51,
      "hand": "left"
    },
    {
      "midi": 42,
      "time": 58.235,
      "duration": 0.176,
      "velocity": 0.43,
      "hand": "left"
    },
    {
      "midi": 38,
      "time": 58.412,
      "duration": 0.176,
      "velocity": 0.73,
      "hand": "left"
    },
    {
      "midi": 42,
      "time": 58.412,
      "duration": 0.176,
      "velocity": 0.58,
      "hand": "left"
    },
    {
      "midi": 35,
      "time": 58.765,
      "duration": 0.176,
      "velocity": 0.58,
      "hand": "left"
    },
    {
      "midi": 42,
      "time": 58.765,
      "duration": 0.176,
      "velocity": 0.51,
      "hand": "left"
    },
    {
      "midi": 42,
      "time": 58.941,
      "duration": 0.176,
      "velocity": 0.43,
      "hand": "left"
    },
    {
      "midi": 35,
      "time": 59.118,
      "duration": 0.176,
      "velocity": 0.73,
      "hand": "left"
    },
    {
      "midi": 38,
      "time": 59.118,
      "duration": 0.529,
      "velocity": 0.86,
      "hand": "left"
    },
    {
      "midi": 42,
      "time": 59.118,
      "duration": 0.176,
      "velocity": 0.65,
      "hand": "left"
    },
    {
      "midi": 45,
      "time": 59.118,
      "duration": 0.529,
      "velocity": 0.86,
      "hand": "left"
    },
    {
      "midi": 50,
      "time": 59.118,
      "duration": 0.529,
      "velocity": 0.79,
      "hand": "left"
    },
    {
      "midi": 57,
      "time": 59.118,
      "duration": 0.529,
      "velocity": 0.79,
      "hand": "left"
    },
    {
      "midi": 66,
      "time": 59.118,
      "duration": 0.529,
      "velocity": 0.83,
      "hand": "right"
    },
    {
      "midi": 74,
      "time": 59.118,
      "duration": 0.529,
      "velocity": 0.83,
      "hand": "right"
    },
    {
      "midi": 42,
      "time": 59.471,
      "duration": 0.176,
      "velocity": 0.51,
      "hand": "left"
    },
    {
      "midi": 42,
      "time": 59.647,
      "duration": 0.176,
      "velocity": 0.43,
      "hand": "left"
    },
    {
      "midi": 38,
      "time": 59.824,
      "duration": 0.353,
      "velocity": 0.86,
      "hand": "left"
    },
    {
      "midi": 38,
      "time": 59.824,
      "duration": 0.176,
      "velocity": 0.73,
      "hand": "left"
    },
    {
      "midi": 42,
      "time": 59.824,
      "duration": 0.176,
      "velocity": 0.58,
      "hand": "left"
    },
    {
      "midi": 45,
      "time": 59.824,
      "duration": 0.353,
      "velocity": 0.86,
      "hand": "left"
    },
    {
      "midi": 50,
      "time": 59.824,
      "duration": 0.353,
      "velocity": 0.79,
      "hand": "left"
    },
    {
      "midi": 57,
      "time": 59.824,
      "duration": 0.353,
      "velocity": 0.79,
      "hand": "left"
    },
    {
      "midi": 66,
      "time": 59.824,
      "duration": 0.353,
      "velocity": 0.83,
      "hand": "right"
    },
    {
      "midi": 74,
      "time": 59.824,
      "duration": 0.353,
      "velocity": 0.83,
      "hand": "right"
    },
    {
      "midi": 42,
      "time": 60.176,
      "duration": 0.176,
      "velocity": 0.51,
      "hand": "left"
    },
    {
      "midi": 35,
      "time": 60.353,
      "duration": 0.176,
      "velocity": 0.58,
      "hand": "left"
    },
    {
      "midi": 38,
      "time": 60.353,
      "duration": 0.176,
      "velocity": 0.86,
      "hand": "left"
    },
    {
      "midi": 42,
      "time": 60.353,
      "duration": 0.176,
      "velocity": 0.43,
      "hand": "left"
    },
    {
      "midi": 45,
      "time": 60.353,
      "duration": 0.176,
      "velocity": 0.86,
      "hand": "left"
    },
    {
      "midi": 50,
      "time": 60.353,
      "duration": 0.176,
      "velocity": 0.79,
      "hand": "left"
    },
    {
      "midi": 57,
      "time": 60.353,
      "duration": 0.176,
      "velocity": 0.79,
      "hand": "left"
    },
    {
      "midi": 66,
      "time": 60.353,
      "duration": 0.176,
      "velocity": 0.83,
      "hand": "right"
    },
    {
      "midi": 74,
      "time": 60.353,
      "duration": 0.176,
      "velocity": 0.83,
      "hand": "right"
    },
    {
      "midi": 35,
      "time": 60.529,
      "duration": 0.176,
      "velocity": 0.73,
      "hand": "left"
    },
    {
      "midi": 42,
      "time": 60.529,
      "duration": 0.529,
      "velocity": 0.86,
      "hand": "left"
    },
    {
      "midi": 42,
      "time": 60.529,
      "duration": 0.176,
      "velocity": 0.65,
      "hand": "left"
    },
    {
      "midi": 45,
      "time": 60.529,
      "duration": 0.529,
      "velocity": 0.86,
      "hand": "left"
    },
    {
      "midi": 54,
      "time": 60.529,
      "duration": 0.529,
      "velocity": 0.79,
      "hand": "left"
    },
    {
      "midi": 57,
      "time": 60.529,
      "duration": 0.529,
      "velocity": 0.79,
      "hand": "left"
    },
    {
      "midi": 69,
      "time": 60.529,
      "duration": 0.529,
      "velocity": 0.83,
      "hand": "right"
    },
    {
      "midi": 74,
      "time": 60.529,
      "duration": 0.529,
      "velocity": 0.83,
      "hand": "right"
    },
    {
      "midi": 42,
      "time": 60.882,
      "duration": 0.176,
      "velocity": 0.51,
      "hand": "left"
    },
    {
      "midi": 46,
      "time": 61.059,
      "duration": 0.176,
      "velocity": 0.58,
      "hand": "left"
    },
    {
      "midi": 38,
      "time": 61.235,
      "duration": 0.176,
      "velocity": 0.73,
      "hand": "left"
    },
    {
      "midi": 42,
      "time": 61.235,
      "duration": 0.353,
      "velocity": 0.86,
      "hand": "left"
    },
    {
      "midi": 42,
      "time": 61.235,
      "duration": 0.176,
      "velocity": 0.58,
      "hand": "left"
    },
    {
      "midi": 50,
      "time": 61.235,
      "duration": 0.353,
      "velocity": 0.86,
      "hand": "left"
    },
    {
      "midi": 54,
      "time": 61.235,
      "duration": 0.353,
      "velocity": 0.79,
      "hand": "left"
    },
    {
      "midi": 62,
      "time": 61.235,
      "duration": 0.353,
      "velocity": 0.79,
      "hand": "right"
    },
    {
      "midi": 69,
      "time": 61.235,
      "duration": 0.353,
      "velocity": 0.83,
      "hand": "right"
    },
    {
      "midi": 74,
      "time": 61.235,
      "duration": 0.353,
      "velocity": 0.83,
      "hand": "right"
    },
    {
      "midi": 35,
      "time": 61.588,
      "duration": 0.176,
      "velocity": 0.58,
      "hand": "left"
    },
    {
      "midi": 42,
      "time": 61.588,
      "duration": 0.176,
      "velocity": 0.51,
      "hand": "left"
    },
    {
      "midi": 42,
      "time": 61.765,
      "duration": 0.176,
      "velocity": 0.86,
      "hand": "left"
    },
    {
      "midi": 50,
      "time": 61.765,
      "duration": 0.176,
      "velocity": 0.86,
      "hand": "left"
    },
    {
      "midi": 54,
      "time": 61.765,
      "duration": 0.176,
      "velocity": 0.79,
      "hand": "left"
    },
    {
      "midi": 62,
      "time": 61.765,
      "duration": 0.176,
      "velocity": 0.79,
      "hand": "right"
    },
    {
      "midi": 69,
      "time": 61.765,
      "duration": 0.176,
      "velocity": 0.83,
      "hand": "right"
    },
    {
      "midi": 73,
      "time": 61.765,
      "duration": 0.176,
      "velocity": 0.83,
      "hand": "right"
    },
    {
      "midi": 35,
      "time": 61.941,
      "duration": 0.176,
      "velocity": 0.73,
      "hand": "left"
    },
    {
      "midi": 42,
      "time": 61.941,
      "duration": 0.176,
      "velocity": 0.65,
      "hand": "left"
    },
    {
      "midi": 43,
      "time": 61.941,
      "duration": 0.529,
      "velocity": 0.86,
      "hand": "left"
    },
    {
      "midi": 50,
      "time": 61.941,
      "duration": 0.529,
      "velocity": 0.86,
      "hand": "left"
    },
    {
      "midi": 55,
      "time": 61.941,
      "duration": 0.529,
      "velocity": 0.79,
      "hand": "left"
    },
    {
      "midi": 62,
      "time": 61.941,
      "duration": 0.529,
      "velocity": 0.79,
      "hand": "right"
    },
    {
      "midi": 67,
      "time": 61.941,
      "duration": 0.529,
      "velocity": 0.83,
      "hand": "right"
    },
    {
      "midi": 71,
      "time": 61.941,
      "duration": 0.882,
      "velocity": 0.83,
      "hand": "right"
    },
    {
      "midi": 42,
      "time": 62.294,
      "duration": 0.176,
      "velocity": 0.51,
      "hand": "left"
    },
    {
      "midi": 42,
      "time": 62.471,
      "duration": 0.176,
      "velocity": 0.43,
      "hand": "left"
    },
    {
      "midi": 38,
      "time": 62.647,
      "duration": 0.176,
      "velocity": 0.73,
      "hand": "left"
    },
    {
      "midi": 42,
      "time": 62.647,
      "duration": 0.176,
      "velocity": 0.58,
      "hand": "left"
    },
    {
      "midi": 43,
      "time": 62.647,
      "duration": 0.353,
      "velocity": 0.86,
      "hand": "left"
    },
    {
      "midi": 50,
      "time": 62.647,
      "duration": 0.353,
      "velocity": 0.86,
      "hand": "left"
    },
    {
      "midi": 55,
      "time": 62.647,
      "duration": 0.353,
      "velocity": 0.79,
      "hand": "left"
    },
    {
      "midi": 62,
      "time": 62.647,
      "duration": 0.353,
      "velocity": 0.79,
      "hand": "right"
    },
    {
      "midi": 67,
      "time": 62.647,
      "duration": 0.353,
      "velocity": 0.83,
      "hand": "right"
    },
    {
      "midi": 42,
      "time": 63,
      "duration": 0.176,
      "velocity": 0.51,
      "hand": "left"
    },
    {
      "midi": 35,
      "time": 63.176,
      "duration": 0.176,
      "velocity": 0.58,
      "hand": "left"
    },
    {
      "midi": 42,
      "time": 63.176,
      "duration": 0.176,
      "velocity": 0.43,
      "hand": "left"
    },
    {
      "midi": 43,
      "time": 63.176,
      "duration": 0.176,
      "velocity": 0.86,
      "hand": "left"
    },
    {
      "midi": 50,
      "time": 63.176,
      "duration": 0.176,
      "velocity": 0.86,
      "hand": "left"
    },
    {
      "midi": 55,
      "time": 63.176,
      "duration": 0.176,
      "velocity": 0.79,
      "hand": "left"
    },
    {
      "midi": 62,
      "time": 63.176,
      "duration": 0.176,
      "velocity": 0.79,
      "hand": "right"
    },
    {
      "midi": 67,
      "time": 63.176,
      "duration": 0.176,
      "velocity": 0.83,
      "hand": "right"
    },
    {
      "midi": 35,
      "time": 63.353,
      "duration": 0.176,
      "velocity": 0.73,
      "hand": "left"
    },
    {
      "midi": 42,
      "time": 63.353,
      "duration": 0.176,
      "velocity": 0.65,
      "hand": "left"
    },
    {
      "midi": 47,
      "time": 63.353,
      "duration": 0.529,
      "velocity": 0.86,
      "hand": "left"
    },
    {
      "midi": 50,
      "time": 63.353,
      "duration": 0.529,
      "velocity": 0.86,
      "hand": "left"
    },
    {
      "midi": 59,
      "time": 63.353,
      "duration": 0.529,
      "velocity": 0.79,
      "hand": "left"
    },
    {
      "midi": 62,
      "time": 63.353,
      "duration": 0.529,
      "velocity": 0.79,
      "hand": "right"
    },
    {
      "midi": 67,
      "time": 63.353,
      "duration": 0.529,
      "velocity": 0.83,
      "hand": "right"
    },
    {
      "midi": 35,
      "time": 63.706,
      "duration": 0.176,
      "velocity": 0.58,
      "hand": "left"
    },
    {
      "midi": 42,
      "time": 63.706,
      "duration": 0.176,
      "velocity": 0.51,
      "hand": "left"
    },
    {
      "midi": 42,
      "time": 63.882,
      "duration": 0.176,
      "velocity": 0.43,
      "hand": "left"
    },
    {
      "midi": 38,
      "time": 64.059,
      "duration": 0.176,
      "velocity": 0.73,
      "hand": "left"
    },
    {
      "midi": 42,
      "time": 64.059,
      "duration": 0.176,
      "velocity": 0.58,
      "hand": "left"
    },
    {
      "midi": 43,
      "time": 64.059,
      "duration": 0.353,
      "velocity": 0.86,
      "hand": "left"
    },
    {
      "midi": 50,
      "time": 64.059,
      "duration": 0.353,
      "velocity": 0.86,
      "hand": "left"
    },
    {
      "midi": 55,
      "time": 64.059,
      "duration": 0.353,
      "velocity": 0.79,
      "hand": "left"
    },
    {
      "midi": 62,
      "time": 64.059,
      "duration": 0.353,
      "velocity": 0.79,
      "hand": "right"
    },
    {
      "midi": 67,
      "time": 64.059,
      "duration": 0.353,
      "velocity": 0.83,
      "hand": "right"
    },
    {
      "midi": 71,
      "time": 64.059,
      "duration": 0.529,
      "velocity": 0.83,
      "hand": "right"
    },
    {
      "midi": 35,
      "time": 64.412,
      "duration": 0.176,
      "velocity": 0.58,
      "hand": "left"
    },
    {
      "midi": 42,
      "time": 64.412,
      "duration": 0.176,
      "velocity": 0.51,
      "hand": "left"
    },
    {
      "midi": 43,
      "time": 64.588,
      "duration": 0.176,
      "velocity": 0.86,
      "hand": "left"
    },
    {
      "midi": 46,
      "time": 64.588,
      "duration": 0.176,
      "velocity": 0.58,
      "hand": "left"
    },
    {
      "midi": 50,
      "time": 64.588,
      "duration": 0.176,
      "velocity": 0.86,
      "hand": "left"
    },
    {
      "midi": 55,
      "time": 64.588,
      "duration": 0.176,
      "velocity": 0.79,
      "hand": "left"
    },
    {
      "midi": 62,
      "time": 64.588,
      "duration": 0.176,
      "velocity": 0.79,
      "hand": "right"
    },
    {
      "midi": 67,
      "time": 64.588,
      "duration": 0.176,
      "velocity": 0.83,
      "hand": "right"
    },
    {
      "midi": 35,
      "time": 64.765,
      "duration": 0.176,
      "velocity": 0.73,
      "hand": "left"
    },
    {
      "midi": 42,
      "time": 64.765,
      "duration": 0.176,
      "velocity": 0.65,
      "hand": "left"
    },
    {
      "midi": 45,
      "time": 64.765,
      "duration": 0.529,
      "velocity": 0.86,
      "hand": "left"
    },
    {
      "midi": 50,
      "time": 64.765,
      "duration": 0.529,
      "velocity": 0.86,
      "hand": "left"
    },
    {
      "midi": 57,
      "time": 64.765,
      "duration": 0.529,
      "velocity": 0.79,
      "hand": "left"
    },
    {
      "midi": 62,
      "time": 64.765,
      "duration": 0.529,
      "velocity": 0.79,
      "hand": "right"
    },
    {
      "midi": 66,
      "time": 64.765,
      "duration": 0.529,
      "velocity": 0.83,
      "hand": "right"
    },
    {
      "midi": 69,
      "time": 64.765,
      "duration": 0.529,
      "velocity": 0.83,
      "hand": "right"
    },
    {
      "midi": 42,
      "time": 65.118,
      "duration": 0.176,
      "velocity": 0.73,
      "hand": "left"
    },
    {
      "midi": 42,
      "time": 65.294,
      "duration": 0.176,
      "velocity": 0.43,
      "hand": "left"
    },
    {
      "midi": 33,
      "time": 65.471,
      "duration": 0.353,
      "velocity": 0.86,
      "hand": "left"
    },
    {
      "midi": 38,
      "time": 65.471,
      "duration": 0.176,
      "velocity": 0.73,
      "hand": "left"
    },
    {
      "midi": 42,
      "time": 65.471,
      "duration": 0.176,
      "velocity": 0.58,
      "hand": "left"
    },
    {
      "midi": 45,
      "time": 65.471,
      "duration": 0.353,
      "velocity": 0.79,
      "hand": "left"
    },
    {
      "midi": 57,
      "time": 65.471,
      "duration": 0.353,
      "velocity": 0.79,
      "hand": "left"
    },
    {
      "midi": 62,
      "time": 65.471,
      "duration": 0.353,
      "velocity": 0.83,
      "hand": "right"
    },
    {
      "midi": 66,
      "time": 65.471,
      "duration": 0.353,
      "velocity": 0.83,
      "hand": "right"
    },
    {
      "midi": 42,
      "time": 65.824,
      "duration": 0.176,
      "velocity": 0.51,
      "hand": "left"
    },
    {
      "midi": 35,
      "time": 66,
      "duration": 0.176,
      "velocity": 0.86,
      "hand": "left"
    },
    {
      "midi": 42,
      "time": 66,
      "duration": 0.176,
      "velocity": 0.86,
      "hand": "left"
    },
    {
      "midi": 47,
      "time": 66,
      "duration": 0.176,
      "velocity": 0.79,
      "hand": "left"
    },
    {
      "midi": 54,
      "time": 66,
      "duration": 0.176,
      "velocity": 0.79,
      "hand": "left"
    },
    {
      "midi": 62,
      "time": 66,
      "duration": 0.176,
      "velocity": 0.83,
      "hand": "right"
    },
    {
      "midi": 33,
      "time": 66.176,
      "duration": 0.529,
      "velocity": 0.86,
      "hand": "left"
    },
    {
      "midi": 35,
      "time": 66.176,
      "duration": 0.176,
      "velocity": 0.73,
      "hand": "left"
    },
    {
      "midi": 42,
      "time": 66.176,
      "duration": 0.176,
      "velocity": 0.65,
      "hand": "left"
    },
    {
      "midi": 45,
      "time": 66.176,
      "duration": 0.529,
      "velocity": 0.79,
      "hand": "left"
    },
    {
      "midi": 57,
      "time": 66.176,
      "duration": 0.529,
      "velocity": 0.79,
      "hand": "left"
    },
    {
      "midi": 62,
      "time": 66.176,
      "duration": 0.529,
      "velocity": 0.83,
      "hand": "right"
    },
    {
      "midi": 64,
      "time": 66.176,
      "duration": 0.529,
      "velocity": 0.83,
      "hand": "right"
    },
    {
      "midi": 42,
      "time": 66.529,
      "duration": 0.176,
      "velocity": 0.73,
      "hand": "left"
    },
    {
      "midi": 42,
      "time": 66.706,
      "duration": 0.176,
      "velocity": 0.43,
      "hand": "left"
    },
    {
      "midi": 33,
      "time": 66.882,
      "duration": 0.353,
      "velocity": 0.86,
      "hand": "left"
    },
    {
      "midi": 38,
      "time": 66.882,
      "duration": 0.176,
      "velocity": 0.73,
      "hand": "left"
    },
    {
      "midi": 42,
      "time": 66.882,
      "duration": 0.176,
      "velocity": 0.58,
      "hand": "left"
    },
    {
      "midi": 45,
      "time": 66.882,
      "duration": 0.353,
      "velocity": 0.79,
      "hand": "left"
    },
    {
      "midi": 57,
      "time": 66.882,
      "duration": 0.353,
      "velocity": 0.79,
      "hand": "left"
    },
    {
      "midi": 61,
      "time": 66.882,
      "duration": 0.353,
      "velocity": 0.83,
      "hand": "right"
    },
    {
      "midi": 66,
      "time": 66.882,
      "duration": 0.353,
      "velocity": 0.83,
      "hand": "right"
    },
    {
      "midi": 35,
      "time": 67.235,
      "duration": 0.176,
      "velocity": 0.58,
      "hand": "left"
    },
    {
      "midi": 42,
      "time": 67.235,
      "duration": 0.176,
      "velocity": 0.51,
      "hand": "left"
    },
    {
      "midi": 33,
      "time": 67.412,
      "duration": 0.176,
      "velocity": 0.86,
      "hand": "left"
    },
    {
      "midi": 42,
      "time": 67.412,
      "duration": 0.176,
      "velocity": 0.43,
      "hand": "left"
    },
    {
      "midi": 43,
      "time": 67.412,
      "duration": 0.176,
      "velocity": 0.86,
      "hand": "left"
    },
    {
      "midi": 45,
      "time": 67.412,
      "duration": 0.176,
      "velocity": 0.79,
      "hand": "left"
    },
    {
      "midi": 55,
      "time": 67.412,
      "duration": 0.176,
      "velocity": 0.79,
      "hand": "left"
    },
    {
      "midi": 61,
      "time": 67.412,
      "duration": 0.176,
      "velocity": 0.83,
      "hand": "right"
    },
    {
      "midi": 64,
      "time": 67.412,
      "duration": 0.176,
      "velocity": 0.83,
      "hand": "right"
    },
    {
      "midi": 35,
      "time": 67.588,
      "duration": 0.176,
      "velocity": 0.73,
      "hand": "left"
    },
    {
      "midi": 38,
      "time": 67.588,
      "duration": 1.588,
      "velocity": 0.86,
      "hand": "left"
    },
    {
      "midi": 42,
      "time": 67.588,
      "duration": 0.176,
      "velocity": 0.65,
      "hand": "left"
    },
    {
      "midi": 50,
      "time": 67.588,
      "duration": 1.588,
      "velocity": 0.79,
      "hand": "left"
    },
    {
      "midi": 62,
      "time": 67.588,
      "duration": 1.588,
      "velocity": 0.83,
      "hand": "right"
    },
    {
      "midi": 62,
      "time": 67.588,
      "duration": 2.294,
      "velocity": 0.86,
      "hand": "right"
    },
    {
      "midi": 42,
      "time": 67.941,
      "duration": 0.176,
      "velocity": 0.51,
      "hand": "left"
    },
    {
      "midi": 37,
      "time": 68.294,
      "duration": 0.176,
      "velocity": 0.73,
      "hand": "left"
    },
    {
      "midi": 42,
      "time": 68.294,
      "duration": 0.176,
      "velocity": 0.58,
      "hand": "left"
    },
    {
      "midi": 43,
      "time": 68.294,
      "duration": 0.529,
      "velocity": 0.86,
      "hand": "left"
    },
    {
      "midi": 55,
      "time": 68.294,
      "duration": 0.529,
      "velocity": 0.79,
      "hand": "left"
    },
    {
      "midi": 59,
      "time": 68.294,
      "duration": 0.529,
      "velocity": 0.83,
      "hand": "left"
    },
    {
      "midi": 35,
      "time": 68.647,
      "duration": 0.176,
      "velocity": 0.58,
      "hand": "left"
    },
    {
      "midi": 42,
      "time": 68.647,
      "duration": 0.176,
      "velocity": 0.51,
      "hand": "left"
    },
    {
      "midi": 35,
      "time": 69,
      "duration": 0.176,
      "velocity": 0.73,
      "hand": "left"
    },
    {
      "midi": 38,
      "time": 69,
      "duration": 0.529,
      "velocity": 0.86,
      "hand": "left"
    },
    {
      "midi": 42,
      "time": 69,
      "duration": 0.529,
      "velocity": 0.86,
      "hand": "left"
    },
    {
      "midi": 42,
      "time": 69,
      "duration": 0.176,
      "velocity": 0.65,
      "hand": "left"
    },
    {
      "midi": 50,
      "time": 69,
      "duration": 0.529,
      "velocity": 0.79,
      "hand": "left"
    },
    {
      "midi": 54,
      "time": 69,
      "duration": 0.529,
      "velocity": 0.79,
      "hand": "left"
    },
    {
      "midi": 57,
      "time": 69,
      "duration": 0.529,
      "velocity": 0.83,
      "hand": "left"
    },
    {
      "midi": 62,
      "time": 69,
      "duration": 0.529,
      "velocity": 0.83,
      "hand": "right"
    },
    {
      "midi": 38,
      "time": 69.353,
      "duration": 0.176,
      "velocity": 0.73,
      "hand": "left"
    },
    {
      "midi": 42,
      "time": 69.353,
      "duration": 0.176,
      "velocity": 0.51,
      "hand": "left"
    },
    {
      "midi": 38,
      "time": 69.529,
      "duration": 0.176,
      "velocity": 0.58,
      "hand": "left"
    },
    {
      "midi": 38,
      "time": 69.706,
      "duration": 0.176,
      "velocity": 0.83,
      "hand": "left"
    },
    {
      "midi": 42,
      "time": 69.706,
      "duration": 0.176,
      "velocity": 0.58,
      "hand": "left"
    },
    {
      "midi": 35,
      "time": 70.059,
      "duration": 0.176,
      "velocity": 0.58,
      "hand": "left"
    },
    {
      "midi": 46,
      "time": 70.059,
      "duration": 0.176,
      "velocity": 0.65,
      "hand": "left"
    },
    {
      "midi": 35,
      "time": 70.412,
      "duration": 0.176,
      "velocity": 0.73,
      "hand": "left"
    },
    {
      "midi": 38,
      "time": 70.412,
      "duration": 0.529,
      "velocity": 0.86,
      "hand": "left"
    },
    {
      "midi": 42,
      "time": 70.412,
      "duration": 0.176,
      "velocity": 0.65,
      "hand": "left"
    },
    {
      "midi": 45,
      "time": 70.412,
      "duration": 0.529,
      "velocity": 0.86,
      "hand": "left"
    },
    {
      "midi": 49,
      "time": 70.412,
      "duration": 0.176,
      "velocity": 0.65,
      "hand": "left"
    },
    {
      "midi": 50,
      "time": 70.412,
      "duration": 0.529,
      "velocity": 0.79,
      "hand": "left"
    },
    {
      "midi": 57,
      "time": 70.412,
      "duration": 0.529,
      "velocity": 0.79,
      "hand": "left"
    },
    {
      "midi": 62,
      "time": 70.412,
      "duration": 0.529,
      "velocity": 0.83,
      "hand": "right"
    },
    {
      "midi": 66,
      "time": 70.412,
      "duration": 0.529,
      "velocity": 0.83,
      "hand": "right"
    },
    {
      "midi": 42,
      "time": 70.765,
      "duration": 0.176,
      "velocity": 0.51,
      "hand": "left"
    },
    {
      "midi": 37,
      "time": 71.118,
      "duration": 0.176,
      "velocity": 0.73,
      "hand": "left"
    },
    {
      "midi": 38,
      "time": 71.118,
      "duration": 0.353,
      "velocity": 0.86,
      "hand": "left"
    },
    {
      "midi": 42,
      "time": 71.118,
      "duration": 0.176,
      "velocity": 0.58,
      "hand": "left"
    },
    {
      "midi": 45,
      "time": 71.118,
      "duration": 0.353,
      "velocity": 0.86,
      "hand": "left"
    },
    {
      "midi": 50,
      "time": 71.118,
      "duration": 0.353,
      "velocity": 0.79,
      "hand": "left"
    },
    {
      "midi": 57,
      "time": 71.118,
      "duration": 0.353,
      "velocity": 0.79,
      "hand": "left"
    },
    {
      "midi": 62,
      "time": 71.118,
      "duration": 0.353,
      "velocity": 0.83,
      "hand": "right"
    },
    {
      "midi": 66,
      "time": 71.118,
      "duration": 0.353,
      "velocity": 0.83,
      "hand": "right"
    },
    {
      "midi": 35,
      "time": 71.471,
      "duration": 0.176,
      "velocity": 0.58,
      "hand": "left"
    },
    {
      "midi": 42,
      "time": 71.471,
      "duration": 0.176,
      "velocity": 0.51,
      "hand": "left"
    },
    {
      "midi": 38,
      "time": 71.647,
      "duration": 0.176,
      "velocity": 0.86,
      "hand": "left"
    },
    {
      "midi": 44,
      "time": 71.647,
      "duration": 0.176,
      "velocity": 0.86,
      "hand": "left"
    },
    {
      "midi": 50,
      "time": 71.647,
      "duration": 0.176,
      "velocity": 0.79,
      "hand": "left"
    },
    {
      "midi": 56,
      "time": 71.647,
      "duration": 0.176,
      "velocity": 0.79,
      "hand": "left"
    },
    {
      "midi": 62,
      "time": 71.647,
      "duration": 0.176,
      "velocity": 0.83,
      "hand": "right"
    },
    {
      "midi": 65,
      "time": 71.647,
      "duration": 0.176,
      "velocity": 0.83,
      "hand": "right"
    },
    {
      "midi": 35,
      "time": 71.824,
      "duration": 0.176,
      "velocity": 0.73,
      "hand": "left"
    },
    {
      "midi": 38,
      "time": 71.824,
      "duration": 0.529,
      "velocity": 0.86,
      "hand": "left"
    },
    {
      "midi": 42,
      "time": 71.824,
      "duration": 0.176,
      "velocity": 0.65,
      "hand": "left"
    },
    {
      "midi": 45,
      "time": 71.824,
      "duration": 0.529,
      "velocity": 0.86,
      "hand": "left"
    },
    {
      "midi": 50,
      "time": 71.824,
      "duration": 0.529,
      "velocity": 0.79,
      "hand": "left"
    },
    {
      "midi": 57,
      "time": 71.824,
      "duration": 0.529,
      "velocity": 0.79,
      "hand": "left"
    },
    {
      "midi": 62,
      "time": 71.824,
      "duration": 0.529,
      "velocity": 0.83,
      "hand": "right"
    },
    {
      "midi": 66,
      "time": 71.824,
      "duration": 0.529,
      "velocity": 0.83,
      "hand": "right"
    },
    {
      "midi": 42,
      "time": 72.176,
      "duration": 0.176,
      "velocity": 0.51,
      "hand": "left"
    },
    {
      "midi": 37,
      "time": 72.529,
      "duration": 0.176,
      "velocity": 0.73,
      "hand": "left"
    },
    {
      "midi": 38,
      "time": 72.529,
      "duration": 0.353,
      "velocity": 0.86,
      "hand": "left"
    },
    {
      "midi": 42,
      "time": 72.529,
      "duration": 0.176,
      "velocity": 0.58,
      "hand": "left"
    },
    {
      "midi": 45,
      "time": 72.529,
      "duration": 0.353,
      "velocity": 0.86,
      "hand": "left"
    },
    {
      "midi": 50,
      "time": 72.529,
      "duration": 0.353,
      "velocity": 0.79,
      "hand": "left"
    },
    {
      "midi": 57,
      "time": 72.529,
      "duration": 0.353,
      "velocity": 0.79,
      "hand": "left"
    },
    {
      "midi": 62,
      "time": 72.529,
      "duration": 0.353,
      "velocity": 0.83,
      "hand": "right"
    },
    {
      "midi": 66,
      "time": 72.529,
      "duration": 0.353,
      "velocity": 0.83,
      "hand": "right"
    },
    {
      "midi": 35,
      "time": 72.882,
      "duration": 0.176,
      "velocity": 0.58,
      "hand": "left"
    },
    {
      "midi": 42,
      "time": 72.882,
      "duration": 0.176,
      "velocity": 0.51,
      "hand": "left"
    },
    {
      "midi": 38,
      "time": 73.059,
      "duration": 0.176,
      "velocity": 0.86,
      "hand": "left"
    },
    {
      "midi": 45,
      "time": 73.059,
      "duration": 0.176,
      "velocity": 0.86,
      "hand": "left"
    },
    {
      "midi": 50,
      "time": 73.059,
      "duration": 0.176,
      "velocity": 0.79,
      "hand": "left"
    },
    {
      "midi": 57,
      "time": 73.059,
      "duration": 0.176,
      "velocity": 0.79,
      "hand": "left"
    },
    {
      "midi": 64,
      "time": 73.059,
      "duration": 0.176,
      "velocity": 0.83,
      "hand": "right"
    },
    {
      "midi": 67,
      "time": 73.059,
      "duration": 0.176,
      "velocity": 0.83,
      "hand": "right"
    },
    {
      "midi": 35,
      "time": 73.235,
      "duration": 0.176,
      "velocity": 0.73,
      "hand": "left"
    },
    {
      "midi": 38,
      "time": 73.235,
      "duration": 0.882,
      "velocity": 0.86,
      "hand": "left"
    },
    {
      "midi": 42,
      "time": 73.235,
      "duration": 0.176,
      "velocity": 0.65,
      "hand": "left"
    },
    {
      "midi": 50,
      "time": 73.235,
      "duration": 0.882,
      "velocity": 0.79,
      "hand": "left"
    },
    {
      "midi": 62,
      "time": 73.235,
      "duration": 0.882,
      "velocity": 0.79,
      "hand": "right"
    },
    {
      "midi": 66,
      "time": 73.235,
      "duration": 0.882,
      "velocity": 0.83,
      "hand": "right"
    },
    {
      "midi": 69,
      "time": 73.235,
      "duration": 0.882,
      "velocity": 0.83,
      "hand": "right"
    },
    {
      "midi": 42,
      "time": 73.588,
      "duration": 0.176,
      "velocity": 0.51,
      "hand": "left"
    },
    {
      "midi": 37,
      "time": 73.941,
      "duration": 0.176,
      "velocity": 0.73,
      "hand": "left"
    },
    {
      "midi": 42,
      "time": 73.941,
      "duration": 0.176,
      "velocity": 0.58,
      "hand": "left"
    },
    {
      "midi": 35,
      "time": 74.294,
      "duration": 0.176,
      "velocity": 0.58,
      "hand": "left"
    },
    {
      "midi": 42,
      "time": 74.294,
      "duration": 0.176,
      "velocity": 0.51,
      "hand": "left"
    },
    {
      "midi": 35,
      "time": 74.647,
      "duration": 0.176,
      "velocity": 0.73,
      "hand": "left"
    },
    {
      "midi": 38,
      "time": 74.647,
      "duration": 0.529,
      "velocity": 0.86,
      "hand": "left"
    },
    {
      "midi": 42,
      "time": 74.647,
      "duration": 0.176,
      "velocity": 0.65,
      "hand": "left"
    },
    {
      "midi": 50,
      "time": 74.647,
      "duration": 0.529,
      "velocity": 0.79,
      "hand": "left"
    },
    {
      "midi": 62,
      "time": 74.647,
      "duration": 0.529,
      "velocity": 0.79,
      "hand": "right"
    },
    {
      "midi": 66,
      "time": 74.647,
      "duration": 0.529,
      "velocity": 0.83,
      "hand": "right"
    },
    {
      "midi": 69,
      "time": 74.647,
      "duration": 0.529,
      "velocity": 0.83,
      "hand": "right"
    },
    {
      "midi": 42,
      "time": 75,
      "duration": 0.176,
      "velocity": 0.51,
      "hand": "left"
    },
    {
      "midi": 37,
      "time": 75.176,
      "duration": 0.176,
      "velocity": 0.73,
      "hand": "left"
    },
    {
      "midi": 38,
      "time": 75.176,
      "duration": 0.353,
      "velocity": 0.86,
      "hand": "left"
    },
    {
      "midi": 42,
      "time": 75.176,
      "duration": 0.176,
      "velocity": 0.58,
      "hand": "left"
    },
    {
      "midi": 50,
      "time": 75.176,
      "duration": 0.353,
      "velocity": 0.79,
      "hand": "left"
    },
    {
      "midi": 62,
      "time": 75.176,
      "duration": 0.353,
      "velocity": 0.79,
      "hand": "right"
    },
    {
      "midi": 66,
      "time": 75.176,
      "duration": 0.353,
      "velocity": 0.83,
      "hand": "right"
    },
    {
      "midi": 69,
      "time": 75.176,
      "duration": 0.353,
      "velocity": 0.83,
      "hand": "right"
    },
    {
      "midi": 35,
      "time": 75.529,
      "duration": 0.176,
      "velocity": 0.58,
      "hand": "left"
    },
    {
      "midi": 42,
      "time": 75.529,
      "duration": 0.176,
      "velocity": 0.51,
      "hand": "left"
    },
    {
      "midi": 38,
      "time": 75.706,
      "duration": 0.176,
      "velocity": 0.86,
      "hand": "left"
    },
    {
      "midi": 45,
      "time": 75.706,
      "duration": 0.176,
      "velocity": 0.86,
      "hand": "left"
    },
    {
      "midi": 50,
      "time": 75.706,
      "duration": 0.176,
      "velocity": 0.79,
      "hand": "left"
    },
    {
      "midi": 57,
      "time": 75.706,
      "duration": 0.176,
      "velocity": 0.79,
      "hand": "left"
    },
    {
      "midi": 62,
      "time": 75.706,
      "duration": 0.176,
      "velocity": 0.83,
      "hand": "right"
    },
    {
      "midi": 66,
      "time": 75.706,
      "duration": 0.176,
      "velocity": 0.83,
      "hand": "right"
    },
    {
      "midi": 33,
      "time": 75.882,
      "duration": 0.529,
      "velocity": 0.86,
      "hand": "left"
    },
    {
      "midi": 35,
      "time": 75.882,
      "duration": 0.176,
      "velocity": 0.73,
      "hand": "left"
    },
    {
      "midi": 42,
      "time": 75.882,
      "duration": 0.176,
      "velocity": 0.65,
      "hand": "left"
    },
    {
      "midi": 45,
      "time": 75.882,
      "duration": 0.529,
      "velocity": 0.79,
      "hand": "left"
    },
    {
      "midi": 57,
      "time": 75.882,
      "duration": 0.529,
      "velocity": 0.79,
      "hand": "left"
    },
    {
      "midi": 61,
      "time": 75.882,
      "duration": 0.529,
      "velocity": 0.83,
      "hand": "right"
    },
    {
      "midi": 64,
      "time": 75.882,
      "duration": 0.529,
      "velocity": 0.83,
      "hand": "right"
    },
    {
      "midi": 42,
      "time": 76.235,
      "duration": 0.176,
      "velocity": 0.51,
      "hand": "left"
    },
    {
      "midi": 33,
      "time": 76.588,
      "duration": 0.529,
      "velocity": 0.86,
      "hand": "left"
    },
    {
      "midi": 37,
      "time": 76.588,
      "duration": 0.176,
      "velocity": 0.73,
      "hand": "left"
    },
    {
      "midi": 42,
      "time": 76.588,
      "duration": 0.176,
      "velocity": 0.58,
      "hand": "left"
    },
    {
      "midi": 45,
      "time": 76.588,
      "duration": 0.529,
      "velocity": 0.79,
      "hand": "left"
    },
    {
      "midi": 57,
      "time": 76.588,
      "duration": 0.529,
      "velocity": 0.79,
      "hand": "left"
    },
    {
      "midi": 61,
      "time": 76.588,
      "duration": 0.529,
      "velocity": 0.83,
      "hand": "right"
    },
    {
      "midi": 64,
      "time": 76.588,
      "duration": 0.529,
      "velocity": 0.83,
      "hand": "right"
    },
    {
      "midi": 35,
      "time": 76.941,
      "duration": 0.176,
      "velocity": 0.58,
      "hand": "left"
    },
    {
      "midi": 42,
      "time": 76.941,
      "duration": 0.176,
      "velocity": 0.51,
      "hand": "left"
    },
    {
      "midi": 35,
      "time": 77.294,
      "duration": 0.176,
      "velocity": 0.73,
      "hand": "left"
    },
    {
      "midi": 38,
      "time": 77.294,
      "duration": 0.529,
      "velocity": 0.86,
      "hand": "left"
    },
    {
      "midi": 42,
      "time": 77.294,
      "duration": 0.176,
      "velocity": 0.65,
      "hand": "left"
    },
    {
      "midi": 45,
      "time": 77.294,
      "duration": 0.529,
      "velocity": 0.86,
      "hand": "left"
    },
    {
      "midi": 50,
      "time": 77.294,
      "duration": 0.529,
      "velocity": 0.79,
      "hand": "left"
    },
    {
      "midi": 57,
      "time": 77.294,
      "duration": 0.529,
      "velocity": 0.79,
      "hand": "left"
    },
    {
      "midi": 62,
      "time": 77.294,
      "duration": 0.529,
      "velocity": 0.83,
      "hand": "right"
    },
    {
      "midi": 66,
      "time": 77.294,
      "duration": 0.529,
      "velocity": 0.83,
      "hand": "right"
    },
    {
      "midi": 42,
      "time": 77.647,
      "duration": 0.176,
      "velocity": 0.51,
      "hand": "left"
    },
    {
      "midi": 37,
      "time": 78,
      "duration": 0.176,
      "velocity": 0.73,
      "hand": "left"
    },
    {
      "midi": 38,
      "time": 78,
      "duration": 0.353,
      "velocity": 0.86,
      "hand": "left"
    },
    {
      "midi": 42,
      "time": 78,
      "duration": 0.176,
      "velocity": 0.58,
      "hand": "left"
    },
    {
      "midi": 45,
      "time": 78,
      "duration": 0.353,
      "velocity": 0.86,
      "hand": "left"
    },
    {
      "midi": 50,
      "time": 78,
      "duration": 0.353,
      "velocity": 0.79,
      "hand": "left"
    },
    {
      "midi": 57,
      "time": 78,
      "duration": 0.353,
      "velocity": 0.79,
      "hand": "left"
    },
    {
      "midi": 64,
      "time": 78,
      "duration": 0.353,
      "velocity": 0.83,
      "hand": "right"
    },
    {
      "midi": 67,
      "time": 78,
      "duration": 0.353,
      "velocity": 0.83,
      "hand": "right"
    },
    {
      "midi": 35,
      "time": 78.353,
      "duration": 0.176,
      "velocity": 0.58,
      "hand": "left"
    },
    {
      "midi": 42,
      "time": 78.353,
      "duration": 0.176,
      "velocity": 0.51,
      "hand": "left"
    },
    {
      "midi": 38,
      "time": 78.529,
      "duration": 0.176,
      "velocity": 0.86,
      "hand": "left"
    },
    {
      "midi": 45,
      "time": 78.529,
      "duration": 0.176,
      "velocity": 0.86,
      "hand": "left"
    },
    {
      "midi": 50,
      "time": 78.529,
      "duration": 0.176,
      "velocity": 0.79,
      "hand": "left"
    },
    {
      "midi": 57,
      "time": 78.529,
      "duration": 0.176,
      "velocity": 0.79,
      "hand": "left"
    },
    {
      "midi": 62,
      "time": 78.529,
      "duration": 0.176,
      "velocity": 0.83,
      "hand": "right"
    },
    {
      "midi": 66,
      "time": 78.529,
      "duration": 0.176,
      "velocity": 0.83,
      "hand": "right"
    },
    {
      "midi": 33,
      "time": 78.706,
      "duration": 1.412,
      "velocity": 0.86,
      "hand": "left"
    },
    {
      "midi": 35,
      "time": 78.706,
      "duration": 0.176,
      "velocity": 0.73,
      "hand": "left"
    },
    {
      "midi": 42,
      "time": 78.706,
      "duration": 0.176,
      "velocity": 0.65,
      "hand": "left"
    },
    {
      "midi": 45,
      "time": 78.706,
      "duration": 1.412,
      "velocity": 0.79,
      "hand": "left"
    },
    {
      "midi": 57,
      "time": 78.706,
      "duration": 1.412,
      "velocity": 0.79,
      "hand": "left"
    },
    {
      "midi": 61,
      "time": 78.706,
      "duration": 1.412,
      "velocity": 0.83,
      "hand": "right"
    },
    {
      "midi": 64,
      "time": 78.706,
      "duration": 1.412,
      "velocity": 0.83,
      "hand": "right"
    },
    {
      "midi": 42,
      "time": 79.059,
      "duration": 0.176,
      "velocity": 0.51,
      "hand": "left"
    },
    {
      "midi": 37,
      "time": 79.412,
      "duration": 0.176,
      "velocity": 0.73,
      "hand": "left"
    },
    {
      "midi": 42,
      "time": 79.412,
      "duration": 0.176,
      "velocity": 0.58,
      "hand": "left"
    },
    {
      "midi": 35,
      "time": 79.765,
      "duration": 0.176,
      "velocity": 0.58,
      "hand": "left"
    },
    {
      "midi": 42,
      "time": 79.765,
      "duration": 0.176,
      "velocity": 0.51,
      "hand": "left"
    },
    {
      "midi": 35,
      "time": 80.118,
      "duration": 0.176,
      "velocity": 0.73,
      "hand": "left"
    },
    {
      "midi": 42,
      "time": 80.118,
      "duration": 0.176,
      "velocity": 0.65,
      "hand": "left"
    },
    {
      "midi": 42,
      "time": 80.471,
      "duration": 0.176,
      "velocity": 0.51,
      "hand": "left"
    },
    {
      "midi": 37,
      "time": 80.824,
      "duration": 0.176,
      "velocity": 0.73,
      "hand": "left"
    },
    {
      "midi": 42,
      "time": 80.824,
      "duration": 0.176,
      "velocity": 0.58,
      "hand": "left"
    },
    {
      "midi": 35,
      "time": 81.176,
      "duration": 0.176,
      "velocity": 0.58,
      "hand": "left"
    },
    {
      "midi": 42,
      "time": 81.176,
      "duration": 0.176,
      "velocity": 0.51,
      "hand": "left"
    },
    {
      "midi": 35,
      "time": 81.529,
      "duration": 0.176,
      "velocity": 0.73,
      "hand": "left"
    },
    {
      "midi": 38,
      "time": 81.529,
      "duration": 0.529,
      "velocity": 0.86,
      "hand": "left"
    },
    {
      "midi": 42,
      "time": 81.529,
      "duration": 0.176,
      "velocity": 0.65,
      "hand": "left"
    },
    {
      "midi": 45,
      "time": 81.529,
      "duration": 0.529,
      "velocity": 0.86,
      "hand": "left"
    },
    {
      "midi": 50,
      "time": 81.529,
      "duration": 0.529,
      "velocity": 0.79,
      "hand": "left"
    },
    {
      "midi": 57,
      "time": 81.529,
      "duration": 0.529,
      "velocity": 0.79,
      "hand": "left"
    },
    {
      "midi": 62,
      "time": 81.529,
      "duration": 0.529,
      "velocity": 0.83,
      "hand": "right"
    },
    {
      "midi": 66,
      "time": 81.529,
      "duration": 0.529,
      "velocity": 0.83,
      "hand": "right"
    },
    {
      "midi": 42,
      "time": 81.882,
      "duration": 0.176,
      "velocity": 0.51,
      "hand": "left"
    },
    {
      "midi": 37,
      "time": 82.235,
      "duration": 0.176,
      "velocity": 0.73,
      "hand": "left"
    },
    {
      "midi": 38,
      "time": 82.235,
      "duration": 0.353,
      "velocity": 0.86,
      "hand": "left"
    },
    {
      "midi": 42,
      "time": 82.235,
      "duration": 0.176,
      "velocity": 0.58,
      "hand": "left"
    },
    {
      "midi": 45,
      "time": 82.235,
      "duration": 0.353,
      "velocity": 0.86,
      "hand": "left"
    },
    {
      "midi": 50,
      "time": 82.235,
      "duration": 0.353,
      "velocity": 0.79,
      "hand": "left"
    },
    {
      "midi": 57,
      "time": 82.235,
      "duration": 0.353,
      "velocity": 0.79,
      "hand": "left"
    },
    {
      "midi": 62,
      "time": 82.235,
      "duration": 0.353,
      "velocity": 0.83,
      "hand": "right"
    },
    {
      "midi": 66,
      "time": 82.235,
      "duration": 0.353,
      "velocity": 0.83,
      "hand": "right"
    },
    {
      "midi": 35,
      "time": 82.588,
      "duration": 0.176,
      "velocity": 0.58,
      "hand": "left"
    },
    {
      "midi": 42,
      "time": 82.588,
      "duration": 0.176,
      "velocity": 0.51,
      "hand": "left"
    },
    {
      "midi": 38,
      "time": 82.765,
      "duration": 0.176,
      "velocity": 0.86,
      "hand": "left"
    },
    {
      "midi": 44,
      "time": 82.765,
      "duration": 0.176,
      "velocity": 0.86,
      "hand": "left"
    },
    {
      "midi": 50,
      "time": 82.765,
      "duration": 0.176,
      "velocity": 0.79,
      "hand": "left"
    },
    {
      "midi": 56,
      "time": 82.765,
      "duration": 0.176,
      "velocity": 0.79,
      "hand": "left"
    },
    {
      "midi": 62,
      "time": 82.765,
      "duration": 0.176,
      "velocity": 0.83,
      "hand": "right"
    },
    {
      "midi": 65,
      "time": 82.765,
      "duration": 0.176,
      "velocity": 0.83,
      "hand": "right"
    },
    {
      "midi": 35,
      "time": 82.941,
      "duration": 0.176,
      "velocity": 0.73,
      "hand": "left"
    },
    {
      "midi": 38,
      "time": 82.941,
      "duration": 0.529,
      "velocity": 0.86,
      "hand": "left"
    },
    {
      "midi": 42,
      "time": 82.941,
      "duration": 0.176,
      "velocity": 0.65,
      "hand": "left"
    },
    {
      "midi": 45,
      "time": 82.941,
      "duration": 0.529,
      "velocity": 0.86,
      "hand": "left"
    },
    {
      "midi": 50,
      "time": 82.941,
      "duration": 0.529,
      "velocity": 0.79,
      "hand": "left"
    },
    {
      "midi": 57,
      "time": 82.941,
      "duration": 0.529,
      "velocity": 0.79,
      "hand": "left"
    },
    {
      "midi": 62,
      "time": 82.941,
      "duration": 0.529,
      "velocity": 0.83,
      "hand": "right"
    },
    {
      "midi": 66,
      "time": 82.941,
      "duration": 0.529,
      "velocity": 0.83,
      "hand": "right"
    },
    {
      "midi": 42,
      "time": 83.294,
      "duration": 0.176,
      "velocity": 0.51,
      "hand": "left"
    },
    {
      "midi": 37,
      "time": 83.647,
      "duration": 0.176,
      "velocity": 0.73,
      "hand": "left"
    },
    {
      "midi": 38,
      "time": 83.647,
      "duration": 0.353,
      "velocity": 0.86,
      "hand": "left"
    },
    {
      "midi": 42,
      "time": 83.647,
      "duration": 0.176,
      "velocity": 0.58,
      "hand": "left"
    },
    {
      "midi": 45,
      "time": 83.647,
      "duration": 0.353,
      "velocity": 0.86,
      "hand": "left"
    },
    {
      "midi": 50,
      "time": 83.647,
      "duration": 0.353,
      "velocity": 0.79,
      "hand": "left"
    },
    {
      "midi": 57,
      "time": 83.647,
      "duration": 0.353,
      "velocity": 0.79,
      "hand": "left"
    },
    {
      "midi": 62,
      "time": 83.647,
      "duration": 0.353,
      "velocity": 0.83,
      "hand": "right"
    },
    {
      "midi": 66,
      "time": 83.647,
      "duration": 0.353,
      "velocity": 0.83,
      "hand": "right"
    },
    {
      "midi": 35,
      "time": 84,
      "duration": 0.176,
      "velocity": 0.58,
      "hand": "left"
    },
    {
      "midi": 42,
      "time": 84,
      "duration": 0.176,
      "velocity": 0.51,
      "hand": "left"
    },
    {
      "midi": 38,
      "time": 84.176,
      "duration": 0.176,
      "velocity": 0.86,
      "hand": "left"
    },
    {
      "midi": 45,
      "time": 84.176,
      "duration": 0.176,
      "velocity": 0.86,
      "hand": "left"
    },
    {
      "midi": 50,
      "time": 84.176,
      "duration": 0.176,
      "velocity": 0.79,
      "hand": "left"
    },
    {
      "midi": 57,
      "time": 84.176,
      "duration": 0.176,
      "velocity": 0.79,
      "hand": "left"
    },
    {
      "midi": 64,
      "time": 84.176,
      "duration": 0.176,
      "velocity": 0.83,
      "hand": "right"
    },
    {
      "midi": 67,
      "time": 84.176,
      "duration": 0.176,
      "velocity": 0.83,
      "hand": "right"
    },
    {
      "midi": 35,
      "time": 84.353,
      "duration": 0.176,
      "velocity": 0.73,
      "hand": "left"
    },
    {
      "midi": 38,
      "time": 84.353,
      "duration": 0.882,
      "velocity": 0.86,
      "hand": "left"
    },
    {
      "midi": 42,
      "time": 84.353,
      "duration": 0.176,
      "velocity": 0.65,
      "hand": "left"
    },
    {
      "midi": 50,
      "time": 84.353,
      "duration": 0.882,
      "velocity": 0.79,
      "hand": "left"
    },
    {
      "midi": 62,
      "time": 84.353,
      "duration": 0.882,
      "velocity": 0.79,
      "hand": "right"
    },
    {
      "midi": 66,
      "time": 84.353,
      "duration": 0.882,
      "velocity": 0.83,
      "hand": "right"
    },
    {
      "midi": 69,
      "time": 84.353,
      "duration": 0.882,
      "velocity": 0.83,
      "hand": "right"
    },
    {
      "midi": 42,
      "time": 84.706,
      "duration": 0.176,
      "velocity": 0.51,
      "hand": "left"
    },
    {
      "midi": 37,
      "time": 85.059,
      "duration": 0.176,
      "velocity": 0.73,
      "hand": "left"
    },
    {
      "midi": 42,
      "time": 85.059,
      "duration": 0.176,
      "velocity": 0.58,
      "hand": "left"
    },
    {
      "midi": 35,
      "time": 85.412,
      "duration": 0.176,
      "velocity": 0.58,
      "hand": "left"
    },
    {
      "midi": 42,
      "time": 85.412,
      "duration": 0.176,
      "velocity": 0.51,
      "hand": "left"
    },
    {
      "midi": 35,
      "time": 85.765,
      "duration": 0.176,
      "velocity": 0.73,
      "hand": "left"
    },
    {
      "midi": 38,
      "time": 85.765,
      "duration": 0.529,
      "velocity": 0.86,
      "hand": "left"
    },
    {
      "midi": 42,
      "time": 85.765,
      "duration": 0.176,
      "velocity": 0.65,
      "hand": "left"
    },
    {
      "midi": 50,
      "time": 85.765,
      "duration": 0.529,
      "velocity": 0.79,
      "hand": "left"
    },
    {
      "midi": 62,
      "time": 85.765,
      "duration": 0.529,
      "velocity": 0.79,
      "hand": "right"
    },
    {
      "midi": 66,
      "time": 85.765,
      "duration": 0.529,
      "velocity": 0.83,
      "hand": "right"
    },
    {
      "midi": 69,
      "time": 85.765,
      "duration": 0.529,
      "velocity": 0.83,
      "hand": "right"
    },
    {
      "midi": 35,
      "time": 86.118,
      "duration": 0.176,
      "velocity": 0.58,
      "hand": "left"
    },
    {
      "midi": 42,
      "time": 86.118,
      "duration": 0.176,
      "velocity": 0.51,
      "hand": "left"
    },
    {
      "midi": 37,
      "time": 86.471,
      "duration": 0.176,
      "velocity": 0.73,
      "hand": "left"
    },
    {
      "midi": 38,
      "time": 86.471,
      "duration": 0.353,
      "velocity": 0.86,
      "hand": "left"
    },
    {
      "midi": 42,
      "time": 86.471,
      "duration": 0.176,
      "velocity": 0.58,
      "hand": "left"
    },
    {
      "midi": 50,
      "time": 86.471,
      "duration": 0.353,
      "velocity": 0.79,
      "hand": "left"
    },
    {
      "midi": 62,
      "time": 86.471,
      "duration": 0.353,
      "velocity": 0.79,
      "hand": "right"
    },
    {
      "midi": 66,
      "time": 86.471,
      "duration": 0.353,
      "velocity": 0.83,
      "hand": "right"
    },
    {
      "midi": 69,
      "time": 86.471,
      "duration": 0.353,
      "velocity": 0.83,
      "hand": "right"
    },
    {
      "midi": 35,
      "time": 86.824,
      "duration": 0.176,
      "velocity": 0.58,
      "hand": "left"
    },
    {
      "midi": 42,
      "time": 86.824,
      "duration": 0.176,
      "velocity": 0.51,
      "hand": "left"
    },
    {
      "midi": 38,
      "time": 87,
      "duration": 0.176,
      "velocity": 0.86,
      "hand": "left"
    },
    {
      "midi": 42,
      "time": 87,
      "duration": 0.176,
      "velocity": 0.43,
      "hand": "left"
    },
    {
      "midi": 45,
      "time": 87,
      "duration": 0.176,
      "velocity": 0.86,
      "hand": "left"
    },
    {
      "midi": 50,
      "time": 87,
      "duration": 0.176,
      "velocity": 0.79,
      "hand": "left"
    },
    {
      "midi": 57,
      "time": 87,
      "duration": 0.176,
      "velocity": 0.79,
      "hand": "left"
    },
    {
      "midi": 62,
      "time": 87,
      "duration": 0.176,
      "velocity": 0.83,
      "hand": "right"
    },
    {
      "midi": 66,
      "time": 87,
      "duration": 0.176,
      "velocity": 0.83,
      "hand": "right"
    },
    {
      "midi": 35,
      "time": 87.176,
      "duration": 0.176,
      "velocity": 0.73,
      "hand": "left"
    },
    {
      "midi": 42,
      "time": 87.176,
      "duration": 0.176,
      "velocity": 0.65,
      "hand": "left"
    },
    {
      "midi": 43,
      "time": 87.176,
      "duration": 0.529,
      "velocity": 0.86,
      "hand": "left"
    },
    {
      "midi": 47,
      "time": 87.176,
      "duration": 0.529,
      "velocity": 0.86,
      "hand": "left"
    },
    {
      "midi": 55,
      "time": 87.176,
      "duration": 0.529,
      "velocity": 0.79,
      "hand": "left"
    },
    {
      "midi": 59,
      "time": 87.176,
      "duration": 0.529,
      "velocity": 0.79,
      "hand": "left"
    },
    {
      "midi": 62,
      "time": 87.176,
      "duration": 0.529,
      "velocity": 0.83,
      "hand": "right"
    },
    {
      "midi": 64,
      "time": 87.176,
      "duration": 0.529,
      "velocity": 0.83,
      "hand": "right"
    },
    {
      "midi": 42,
      "time": 87.529,
      "duration": 0.176,
      "velocity": 0.51,
      "hand": "left"
    },
    {
      "midi": 37,
      "time": 87.882,
      "duration": 0.176,
      "velocity": 0.73,
      "hand": "left"
    },
    {
      "midi": 42,
      "time": 87.882,
      "duration": 0.176,
      "velocity": 0.58,
      "hand": "left"
    },
    {
      "midi": 43,
      "time": 87.882,
      "duration": 0.176,
      "velocity": 0.86,
      "hand": "left"
    },
    {
      "midi": 47,
      "time": 87.882,
      "duration": 0.176,
      "velocity": 0.86,
      "hand": "left"
    },
    {
      "midi": 55,
      "time": 87.882,
      "duration": 0.176,
      "velocity": 0.79,
      "hand": "left"
    },
    {
      "midi": 59,
      "time": 87.882,
      "duration": 0.176,
      "velocity": 0.79,
      "hand": "left"
    },
    {
      "midi": 62,
      "time": 87.882,
      "duration": 0.176,
      "velocity": 0.83,
      "hand": "right"
    },
    {
      "midi": 64,
      "time": 87.882,
      "duration": 0.176,
      "velocity": 0.83,
      "hand": "right"
    },
    {
      "midi": 35,
      "time": 88.235,
      "duration": 0.176,
      "velocity": 0.58,
      "hand": "left"
    },
    {
      "midi": 42,
      "time": 88.235,
      "duration": 0.176,
      "velocity": 0.51,
      "hand": "left"
    },
    {
      "midi": 43,
      "time": 88.235,
      "duration": 0.176,
      "velocity": 0.86,
      "hand": "left"
    },
    {
      "midi": 47,
      "time": 88.235,
      "duration": 0.176,
      "velocity": 0.86,
      "hand": "left"
    },
    {
      "midi": 55,
      "time": 88.235,
      "duration": 0.176,
      "velocity": 0.79,
      "hand": "left"
    },
    {
      "midi": 59,
      "time": 88.235,
      "duration": 0.176,
      "velocity": 0.79,
      "hand": "left"
    },
    {
      "midi": 62,
      "time": 88.235,
      "duration": 0.176,
      "velocity": 0.83,
      "hand": "right"
    },
    {
      "midi": 64,
      "time": 88.235,
      "duration": 0.176,
      "velocity": 0.83,
      "hand": "right"
    },
    {
      "midi": 35,
      "time": 88.588,
      "duration": 0.176,
      "velocity": 0.73,
      "hand": "left"
    },
    {
      "midi": 42,
      "time": 88.588,
      "duration": 0.176,
      "velocity": 0.65,
      "hand": "left"
    },
    {
      "midi": 45,
      "time": 88.588,
      "duration": 0.529,
      "velocity": 0.86,
      "hand": "left"
    },
    {
      "midi": 57,
      "time": 88.588,
      "duration": 0.529,
      "velocity": 0.79,
      "hand": "left"
    },
    {
      "midi": 61,
      "time": 88.588,
      "duration": 0.529,
      "velocity": 0.83,
      "hand": "right"
    },
    {
      "midi": 64,
      "time": 88.588,
      "duration": 0.529,
      "velocity": 0.83,
      "hand": "right"
    },
    {
      "midi": 42,
      "time": 88.941,
      "duration": 0.176,
      "velocity": 0.51,
      "hand": "left"
    },
    {
      "midi": 33,
      "time": 89.294,
      "duration": 0.353,
      "velocity": 0.86,
      "hand": "left"
    },
    {
      "midi": 37,
      "time": 89.294,
      "duration": 0.176,
      "velocity": 0.73,
      "hand": "left"
    },
    {
      "midi": 42,
      "time": 89.294,
      "duration": 0.176,
      "velocity": 0.58,
      "hand": "left"
    },
    {
      "midi": 45,
      "time": 89.294,
      "duration": 0.353,
      "velocity": 0.79,
      "hand": "left"
    },
    {
      "midi": 57,
      "time": 89.294,
      "duration": 0.353,
      "velocity": 0.79,
      "hand": "left"
    },
    {
      "midi": 61,
      "time": 89.294,
      "duration": 0.353,
      "velocity": 0.83,
      "hand": "right"
    },
    {
      "midi": 66,
      "time": 89.294,
      "duration": 0.353,
      "velocity": 0.83,
      "hand": "right"
    },
    {
      "midi": 35,
      "time": 89.647,
      "duration": 0.176,
      "velocity": 0.58,
      "hand": "left"
    },
    {
      "midi": 42,
      "time": 89.647,
      "duration": 0.176,
      "velocity": 0.51,
      "hand": "left"
    },
    {
      "midi": 33,
      "time": 89.824,
      "duration": 0.176,
      "velocity": 0.86,
      "hand": "left"
    },
    {
      "midi": 43,
      "time": 89.824,
      "duration": 0.176,
      "velocity": 0.86,
      "hand": "left"
    },
    {
      "midi": 45,
      "time": 89.824,
      "duration": 0.176,
      "velocity": 0.79,
      "hand": "left"
    },
    {
      "midi": 55,
      "time": 89.824,
      "duration": 0.176,
      "velocity": 0.79,
      "hand": "left"
    },
    {
      "midi": 61,
      "time": 89.824,
      "duration": 0.176,
      "velocity": 0.83,
      "hand": "right"
    },
    {
      "midi": 64,
      "time": 89.824,
      "duration": 0.176,
      "velocity": 0.83,
      "hand": "right"
    },
    {
      "midi": 35,
      "time": 90,
      "duration": 0.176,
      "velocity": 0.65,
      "hand": "left"
    },
    {
      "midi": 38,
      "time": 90,
      "duration": 1.412,
      "velocity": 0.86,
      "hand": "left"
    },
    {
      "midi": 42,
      "time": 90,
      "duration": 1.412,
      "velocity": 0.86,
      "hand": "left"
    },
    {
      "midi": 42,
      "time": 90,
      "duration": 0.176,
      "velocity": 0.58,
      "hand": "left"
    },
    {
      "midi": 50,
      "time": 90,
      "duration": 1.412,
      "velocity": 0.79,
      "hand": "left"
    },
    {
      "midi": 54,
      "time": 90,
      "duration": 1.412,
      "velocity": 0.79,
      "hand": "left"
    },
    {
      "midi": 62,
      "time": 90,
      "duration": 1.412,
      "velocity": 0.83,
      "hand": "right"
    },
    {
      "midi": 42,
      "time": 90.353,
      "duration": 0.176,
      "velocity": 0.36,
      "hand": "left"
    },
    {
      "midi": 42,
      "time": 90.529,
      "duration": 0.176,
      "velocity": 0.73,
      "hand": "left"
    },
    {
      "midi": 38,
      "time": 90.706,
      "duration": 0.176,
      "velocity": 0.73,
      "hand": "left"
    },
    {
      "midi": 46,
      "time": 90.706,
      "duration": 0.176,
      "velocity": 0.73,
      "hand": "left"
    },
    {
      "midi": 35,
      "time": 91.235,
      "duration": 0.176,
      "velocity": 0.65,
      "hand": "left"
    },
    {
      "midi": 38,
      "time": 91.412,
      "duration": 0.176,
      "velocity": 0.73,
      "hand": "left"
    },
    {
      "midi": 38,
      "time": 91.588,
      "duration": 0.176,
      "velocity": 0.43,
      "hand": "left"
    },
    {
      "midi": 35,
      "time": 91.941,
      "duration": 0.176,
      "velocity": 0.65,
      "hand": "left"
    },
    {
      "midi": 38,
      "time": 92.118,
      "duration": 0.176,
      "velocity": 0.73,
      "hand": "left"
    },
    {
      "midi": 38,
      "time": 92.294,
      "duration": 0.176,
      "velocity": 0.43,
      "hand": "left"
    },
    {
      "midi": 41,
      "time": 92.471,
      "duration": 0.176,
      "velocity": 0.83,
      "hand": "left"
    },
    {
      "midi": 35,
      "time": 92.824,
      "duration": 0.176,
      "velocity": 0.73,
      "hand": "left"
    },
    {
      "midi": 42,
      "time": 92.824,
      "duration": 0.176,
      "velocity": 0.65,
      "hand": "left"
    },
    {
      "midi": 43,
      "time": 92.824,
      "duration": 0.529,
      "velocity": 0.86,
      "hand": "left"
    },
    {
      "midi": 49,
      "time": 92.824,
      "duration": 0.176,
      "velocity": 0.65,
      "hand": "left"
    },
    {
      "midi": 50,
      "time": 92.824,
      "duration": 0.529,
      "velocity": 0.86,
      "hand": "left"
    },
    {
      "midi": 55,
      "time": 92.824,
      "duration": 0.529,
      "velocity": 0.79,
      "hand": "left"
    },
    {
      "midi": 62,
      "time": 92.824,
      "duration": 0.529,
      "velocity": 0.83,
      "hand": "right"
    },
    {
      "midi": 71,
      "time": 92.824,
      "duration": 0.529,
      "velocity": 0.83,
      "hand": "right"
    },
    {
      "midi": 42,
      "time": 93.176,
      "duration": 0.176,
      "velocity": 0.51,
      "hand": "left"
    },
    {
      "midi": 37,
      "time": 93.529,
      "duration": 0.176,
      "velocity": 0.73,
      "hand": "left"
    },
    {
      "midi": 42,
      "time": 93.529,
      "duration": 0.176,
      "velocity": 0.58,
      "hand": "left"
    },
    {
      "midi": 43,
      "time": 93.529,
      "duration": 0.353,
      "velocity": 0.86,
      "hand": "left"
    },
    {
      "midi": 50,
      "time": 93.529,
      "duration": 0.353,
      "velocity": 0.86,
      "hand": "left"
    },
    {
      "midi": 55,
      "time": 93.529,
      "duration": 0.353,
      "velocity": 0.79,
      "hand": "left"
    },
    {
      "midi": 62,
      "time": 93.529,
      "duration": 0.353,
      "velocity": 0.79,
      "hand": "right"
    },
    {
      "midi": 67,
      "time": 93.529,
      "duration": 0.353,
      "velocity": 0.83,
      "hand": "right"
    },
    {
      "midi": 71,
      "time": 93.529,
      "duration": 0.353,
      "velocity": 0.83,
      "hand": "right"
    },
    {
      "midi": 35,
      "time": 93.882,
      "duration": 0.176,
      "velocity": 0.58,
      "hand": "left"
    },
    {
      "midi": 42,
      "time": 93.882,
      "duration": 0.176,
      "velocity": 0.51,
      "hand": "left"
    },
    {
      "midi": 43,
      "time": 94.059,
      "duration": 0.176,
      "velocity": 0.86,
      "hand": "left"
    },
    {
      "midi": 50,
      "time": 94.059,
      "duration": 0.176,
      "velocity": 0.86,
      "hand": "left"
    },
    {
      "midi": 55,
      "time": 94.059,
      "duration": 0.176,
      "velocity": 0.79,
      "hand": "left"
    },
    {
      "midi": 62,
      "time": 94.059,
      "duration": 0.176,
      "velocity": 0.79,
      "hand": "right"
    },
    {
      "midi": 67,
      "time": 94.059,
      "duration": 0.176,
      "velocity": 0.83,
      "hand": "right"
    },
    {
      "midi": 71,
      "time": 94.059,
      "duration": 0.176,
      "velocity": 0.83,
      "hand": "right"
    },
    {
      "midi": 35,
      "time": 94.235,
      "duration": 0.176,
      "velocity": 0.73,
      "hand": "left"
    },
    {
      "midi": 42,
      "time": 94.235,
      "duration": 0.176,
      "velocity": 0.65,
      "hand": "left"
    },
    {
      "midi": 43,
      "time": 94.235,
      "duration": 0.529,
      "velocity": 0.86,
      "hand": "left"
    },
    {
      "midi": 50,
      "time": 94.235,
      "duration": 0.529,
      "velocity": 0.86,
      "hand": "left"
    },
    {
      "midi": 55,
      "time": 94.235,
      "duration": 0.529,
      "velocity": 0.79,
      "hand": "left"
    },
    {
      "midi": 62,
      "time": 94.235,
      "duration": 0.529,
      "velocity": 0.79,
      "hand": "right"
    },
    {
      "midi": 67,
      "time": 94.235,
      "duration": 0.529,
      "velocity": 0.83,
      "hand": "right"
    },
    {
      "midi": 71,
      "time": 94.235,
      "duration": 0.529,
      "velocity": 0.83,
      "hand": "right"
    },
    {
      "midi": 42,
      "time": 94.588,
      "duration": 0.176,
      "velocity": 0.51,
      "hand": "left"
    },
    {
      "midi": 37,
      "time": 94.941,
      "duration": 0.176,
      "velocity": 0.73,
      "hand": "left"
    },
    {
      "midi": 42,
      "time": 94.941,
      "duration": 0.176,
      "velocity": 0.58,
      "hand": "left"
    },
    {
      "midi": 43,
      "time": 94.941,
      "duration": 0.353,
      "velocity": 0.86,
      "hand": "left"
    },
    {
      "midi": 50,
      "time": 94.941,
      "duration": 0.353,
      "velocity": 0.86,
      "hand": "left"
    },
    {
      "midi": 55,
      "time": 94.941,
      "duration": 0.353,
      "velocity": 0.79,
      "hand": "left"
    },
    {
      "midi": 62,
      "time": 94.941,
      "duration": 0.353,
      "velocity": 0.79,
      "hand": "right"
    },
    {
      "midi": 67,
      "time": 94.941,
      "duration": 0.353,
      "velocity": 0.83,
      "hand": "right"
    },
    {
      "midi": 71,
      "time": 94.941,
      "duration": 0.353,
      "velocity": 0.83,
      "hand": "right"
    },
    {
      "midi": 35,
      "time": 95.294,
      "duration": 0.176,
      "velocity": 0.58,
      "hand": "left"
    },
    {
      "midi": 42,
      "time": 95.294,
      "duration": 0.176,
      "velocity": 0.51,
      "hand": "left"
    },
    {
      "midi": 43,
      "time": 95.471,
      "duration": 0.176,
      "velocity": 0.86,
      "hand": "left"
    },
    {
      "midi": 47,
      "time": 95.471,
      "duration": 0.176,
      "velocity": 0.86,
      "hand": "left"
    },
    {
      "midi": 55,
      "time": 95.471,
      "duration": 0.176,
      "velocity": 0.79,
      "hand": "left"
    },
    {
      "midi": 59,
      "time": 95.471,
      "duration": 0.176,
      "velocity": 0.79,
      "hand": "left"
    },
    {
      "midi": 64,
      "time": 95.471,
      "duration": 0.176,
      "velocity": 0.83,
      "hand": "right"
    },
    {
      "midi": 67,
      "time": 95.471,
      "duration": 0.176,
      "velocity": 0.83,
      "hand": "right"
    },
    {
      "midi": 35,
      "time": 95.647,
      "duration": 0.176,
      "velocity": 0.73,
      "hand": "left"
    },
    {
      "midi": 38,
      "time": 95.647,
      "duration": 0.882,
      "velocity": 0.86,
      "hand": "left"
    },
    {
      "midi": 42,
      "time": 95.647,
      "duration": 0.176,
      "velocity": 0.65,
      "hand": "left"
    },
    {
      "midi": 45,
      "time": 95.647,
      "duration": 0.882,
      "velocity": 0.86,
      "hand": "left"
    },
    {
      "midi": 50,
      "time": 95.647,
      "duration": 0.882,
      "velocity": 0.79,
      "hand": "left"
    },
    {
      "midi": 57,
      "time": 95.647,
      "duration": 0.882,
      "velocity": 0.79,
      "hand": "left"
    },
    {
      "midi": 62,
      "time": 95.647,
      "duration": 0.882,
      "velocity": 0.83,
      "hand": "right"
    },
    {
      "midi": 66,
      "time": 95.647,
      "duration": 0.882,
      "velocity": 0.83,
      "hand": "right"
    },
    {
      "midi": 42,
      "time": 96,
      "duration": 0.176,
      "velocity": 0.51,
      "hand": "left"
    },
    {
      "midi": 37,
      "time": 96.353,
      "duration": 0.176,
      "velocity": 0.73,
      "hand": "left"
    },
    {
      "midi": 42,
      "time": 96.353,
      "duration": 0.176,
      "velocity": 0.58,
      "hand": "left"
    },
    {
      "midi": 35,
      "time": 96.706,
      "duration": 0.176,
      "velocity": 0.58,
      "hand": "left"
    },
    {
      "midi": 42,
      "time": 96.706,
      "duration": 0.176,
      "velocity": 0.51,
      "hand": "left"
    },
    {
      "midi": 35,
      "time": 97.059,
      "duration": 0.176,
      "velocity": 0.73,
      "hand": "left"
    },
    {
      "midi": 38,
      "time": 97.059,
      "duration": 0.529,
      "velocity": 0.86,
      "hand": "left"
    },
    {
      "midi": 42,
      "time": 97.059,
      "duration": 0.176,
      "velocity": 0.65,
      "hand": "left"
    },
    {
      "midi": 50,
      "time": 97.059,
      "duration": 0.529,
      "velocity": 0.79,
      "hand": "left"
    },
    {
      "midi": 62,
      "time": 97.059,
      "duration": 0.529,
      "velocity": 0.79,
      "hand": "right"
    },
    {
      "midi": 66,
      "time": 97.059,
      "duration": 0.529,
      "velocity": 0.83,
      "hand": "right"
    },
    {
      "midi": 69,
      "time": 97.059,
      "duration": 0.529,
      "velocity": 0.83,
      "hand": "right"
    },
    {
      "midi": 35,
      "time": 97.412,
      "duration": 0.176,
      "velocity": 0.58,
      "hand": "left"
    },
    {
      "midi": 42,
      "time": 97.412,
      "duration": 0.176,
      "velocity": 0.51,
      "hand": "left"
    },
    {
      "midi": 37,
      "time": 97.765,
      "duration": 0.176,
      "velocity": 0.73,
      "hand": "left"
    },
    {
      "midi": 42,
      "time": 97.765,
      "duration": 0.176,
      "velocity": 0.58,
      "hand": "left"
    },
    {
      "midi": 35,
      "time": 98.118,
      "duration": 0.176,
      "velocity": 0.58,
      "hand": "left"
    },
    {
      "midi": 42,
      "time": 98.118,
      "duration": 0.176,
      "velocity": 0.51,
      "hand": "left"
    },
    {
      "midi": 42,
      "time": 98.294,
      "duration": 0.176,
      "velocity": 0.43,
      "hand": "left"
    },
    {
      "midi": 35,
      "time": 98.471,
      "duration": 0.176,
      "velocity": 0.73,
      "hand": "left"
    },
    {
      "midi": 42,
      "time": 98.471,
      "duration": 0.176,
      "velocity": 0.65,
      "hand": "left"
    },
    {
      "midi": 43,
      "time": 98.471,
      "duration": 0.529,
      "velocity": 0.86,
      "hand": "left"
    },
    {
      "midi": 50,
      "time": 98.471,
      "duration": 0.529,
      "velocity": 0.86,
      "hand": "left"
    },
    {
      "midi": 55,
      "time": 98.471,
      "duration": 0.529,
      "velocity": 0.79,
      "hand": "left"
    },
    {
      "midi": 62,
      "time": 98.471,
      "duration": 0.529,
      "velocity": 0.79,
      "hand": "right"
    },
    {
      "midi": 67,
      "time": 98.471,
      "duration": 0.529,
      "velocity": 0.83,
      "hand": "right"
    },
    {
      "midi": 71,
      "time": 98.471,
      "duration": 0.529,
      "velocity": 0.83,
      "hand": "right"
    },
    {
      "midi": 42,
      "time": 98.824,
      "duration": 0.176,
      "velocity": 0.51,
      "hand": "left"
    },
    {
      "midi": 37,
      "time": 99.176,
      "duration": 0.176,
      "velocity": 0.73,
      "hand": "left"
    },
    {
      "midi": 42,
      "time": 99.176,
      "duration": 0.176,
      "velocity": 0.58,
      "hand": "left"
    },
    {
      "midi": 43,
      "time": 99.176,
      "duration": 0.353,
      "velocity": 0.86,
      "hand": "left"
    },
    {
      "midi": 50,
      "time": 99.176,
      "duration": 0.353,
      "velocity": 0.86,
      "hand": "left"
    },
    {
      "midi": 55,
      "time": 99.176,
      "duration": 0.353,
      "velocity": 0.79,
      "hand": "left"
    },
    {
      "midi": 62,
      "time": 99.176,
      "duration": 0.353,
      "velocity": 0.79,
      "hand": "right"
    },
    {
      "midi": 67,
      "time": 99.176,
      "duration": 0.353,
      "velocity": 0.83,
      "hand": "right"
    },
    {
      "midi": 71,
      "time": 99.176,
      "duration": 0.353,
      "velocity": 0.83,
      "hand": "right"
    },
    {
      "midi": 35,
      "time": 99.529,
      "duration": 0.176,
      "velocity": 0.58,
      "hand": "left"
    },
    {
      "midi": 42,
      "time": 99.529,
      "duration": 0.176,
      "velocity": 0.51,
      "hand": "left"
    },
    {
      "midi": 43,
      "time": 99.706,
      "duration": 0.176,
      "velocity": 0.86,
      "hand": "left"
    },
    {
      "midi": 50,
      "time": 99.706,
      "duration": 0.176,
      "velocity": 0.86,
      "hand": "left"
    },
    {
      "midi": 55,
      "time": 99.706,
      "duration": 0.176,
      "velocity": 0.79,
      "hand": "left"
    },
    {
      "midi": 62,
      "time": 99.706,
      "duration": 0.176,
      "velocity": 0.79,
      "hand": "right"
    },
    {
      "midi": 67,
      "time": 99.706,
      "duration": 0.176,
      "velocity": 0.83,
      "hand": "right"
    },
    {
      "midi": 71,
      "time": 99.706,
      "duration": 0.176,
      "velocity": 0.83,
      "hand": "right"
    },
    {
      "midi": 35,
      "time": 99.882,
      "duration": 0.176,
      "velocity": 0.73,
      "hand": "left"
    },
    {
      "midi": 40,
      "time": 99.882,
      "duration": 0.176,
      "velocity": 0.86,
      "hand": "left"
    },
    {
      "midi": 42,
      "time": 99.882,
      "duration": 0.176,
      "velocity": 0.65,
      "hand": "left"
    },
    {
      "midi": 50,
      "time": 99.882,
      "duration": 0.176,
      "velocity": 0.86,
      "hand": "left"
    },
    {
      "midi": 52,
      "time": 99.882,
      "duration": 0.176,
      "velocity": 0.79,
      "hand": "left"
    },
    {
      "midi": 62,
      "time": 99.882,
      "duration": 0.176,
      "velocity": 0.79,
      "hand": "right"
    },
    {
      "midi": 68,
      "time": 99.882,
      "duration": 0.176,
      "velocity": 0.83,
      "hand": "right"
    },
    {
      "midi": 71,
      "time": 99.882,
      "duration": 0.176,
      "velocity": 0.83,
      "hand": "right"
    },
    {
      "midi": 40,
      "time": 100.235,
      "duration": 0.176,
      "velocity": 0.86,
      "hand": "left"
    },
    {
      "midi": 42,
      "time": 100.235,
      "duration": 0.176,
      "velocity": 0.51,
      "hand": "left"
    },
    {
      "midi": 47,
      "time": 100.235,
      "duration": 0.176,
      "velocity": 0.86,
      "hand": "left"
    },
    {
      "midi": 52,
      "time": 100.235,
      "duration": 0.176,
      "velocity": 0.79,
      "hand": "left"
    },
    {
      "midi": 59,
      "time": 100.235,
      "duration": 0.176,
      "velocity": 0.79,
      "hand": "left"
    },
    {
      "midi": 68,
      "time": 100.235,
      "duration": 0.176,
      "velocity": 0.83,
      "hand": "right"
    },
    {
      "midi": 74,
      "time": 100.235,
      "duration": 0.176,
      "velocity": 0.83,
      "hand": "right"
    },
    {
      "midi": 37,
      "time": 100.588,
      "duration": 0.176,
      "velocity": 0.73,
      "hand": "left"
    },
    {
      "midi": 40,
      "time": 100.588,
      "duration": 0.176,
      "velocity": 0.86,
      "hand": "left"
    },
    {
      "midi": 42,
      "time": 100.588,
      "duration": 0.176,
      "velocity": 0.58,
      "hand": "left"
    },
    {
      "midi": 45,
      "time": 100.588,
      "duration": 0.176,
      "velocity": 0.86,
      "hand": "left"
    },
    {
      "midi": 52,
      "time": 100.588,
      "duration": 0.176,
      "velocity": 0.79,
      "hand": "left"
    },
    {
      "midi": 57,
      "time": 100.588,
      "duration": 0.176,
      "velocity": 0.79,
      "hand": "left"
    },
    {
      "midi": 64,
      "time": 100.588,
      "duration": 0.176,
      "velocity": 0.83,
      "hand": "right"
    },
    {
      "midi": 73,
      "time": 100.588,
      "duration": 0.176,
      "velocity": 0.83,
      "hand": "right"
    },
    {
      "midi": 35,
      "time": 100.941,
      "duration": 0.176,
      "velocity": 0.58,
      "hand": "left"
    },
    {
      "midi": 40,
      "time": 100.941,
      "duration": 0.176,
      "velocity": 0.86,
      "hand": "left"
    },
    {
      "midi": 42,
      "time": 100.941,
      "duration": 0.176,
      "velocity": 0.51,
      "hand": "left"
    },
    {
      "midi": 44,
      "time": 100.941,
      "duration": 0.176,
      "velocity": 0.86,
      "hand": "left"
    },
    {
      "midi": 52,
      "time": 100.941,
      "duration": 0.176,
      "velocity": 0.79,
      "hand": "left"
    },
    {
      "midi": 56,
      "time": 100.941,
      "duration": 0.176,
      "velocity": 0.79,
      "hand": "left"
    },
    {
      "midi": 62,
      "time": 100.941,
      "duration": 0.176,
      "velocity": 0.83,
      "hand": "right"
    },
    {
      "midi": 71,
      "time": 100.941,
      "duration": 0.176,
      "velocity": 0.83,
      "hand": "right"
    },
    {
      "midi": 33,
      "time": 101.294,
      "duration": 1.412,
      "velocity": 0.86,
      "hand": "left"
    },
    {
      "midi": 35,
      "time": 101.294,
      "duration": 0.176,
      "velocity": 0.73,
      "hand": "left"
    },
    {
      "midi": 42,
      "time": 101.294,
      "duration": 0.176,
      "velocity": 0.65,
      "hand": "left"
    },
    {
      "midi": 45,
      "time": 101.294,
      "duration": 1.412,
      "velocity": 0.79,
      "hand": "left"
    },
    {
      "midi": 57,
      "time": 101.294,
      "duration": 1.412,
      "velocity": 0.79,
      "hand": "left"
    },
    {
      "midi": 61,
      "time": 101.294,
      "duration": 1.412,
      "velocity": 0.83,
      "hand": "right"
    },
    {
      "midi": 69,
      "time": 101.294,
      "duration": 0.882,
      "velocity": 0.83,
      "hand": "right"
    },
    {
      "midi": 69,
      "time": 101.294,
      "duration": 1.412,
      "velocity": 0.86,
      "hand": "right"
    },
    {
      "midi": 42,
      "time": 101.471,
      "duration": 0.176,
      "velocity": 0.43,
      "hand": "left"
    },
    {
      "midi": 42,
      "time": 101.647,
      "duration": 0.176,
      "velocity": 0.51,
      "hand": "left"
    },
    {
      "midi": 37,
      "time": 102,
      "duration": 0.176,
      "velocity": 0.73,
      "hand": "left"
    },
    {
      "midi": 42,
      "time": 102,
      "duration": 0.176,
      "velocity": 0.58,
      "hand": "left"
    },
    {
      "midi": 35,
      "time": 102.353,
      "duration": 0.176,
      "velocity": 0.58,
      "hand": "left"
    },
    {
      "midi": 42,
      "time": 102.353,
      "duration": 0.176,
      "velocity": 0.51,
      "hand": "left"
    },
    {
      "midi": 46,
      "time": 102.529,
      "duration": 0.176,
      "velocity": 0.39,
      "hand": "left"
    },
    {
      "midi": 35,
      "time": 102.706,
      "duration": 0.176,
      "velocity": 0.73,
      "hand": "left"
    },
    {
      "midi": 42,
      "time": 102.706,
      "duration": 0.176,
      "velocity": 0.65,
      "hand": "left"
    },
    {
      "midi": 67,
      "time": 102.706,
      "duration": 0.529,
      "velocity": 0.83,
      "hand": "right"
    },
    {
      "midi": 35,
      "time": 103.059,
      "duration": 0.176,
      "velocity": 0.58,
      "hand": "left"
    },
    {
      "midi": 42,
      "time": 103.059,
      "duration": 0.176,
      "velocity": 0.51,
      "hand": "left"
    },
    {
      "midi": 37,
      "time": 103.412,
      "duration": 0.176,
      "velocity": 0.73,
      "hand": "left"
    },
    {
      "midi": 42,
      "time": 103.412,
      "duration": 0.176,
      "velocity": 0.58,
      "hand": "left"
    },
    {
      "midi": 35,
      "time": 103.765,
      "duration": 0.176,
      "velocity": 0.58,
      "hand": "left"
    },
    {
      "midi": 42,
      "time": 103.765,
      "duration": 0.176,
      "velocity": 0.51,
      "hand": "left"
    },
    {
      "midi": 35,
      "time": 104.118,
      "duration": 0.176,
      "velocity": 0.73,
      "hand": "left"
    },
    {
      "midi": 38,
      "time": 104.118,
      "duration": 0.529,
      "velocity": 0.86,
      "hand": "left"
    },
    {
      "midi": 42,
      "time": 104.118,
      "duration": 0.176,
      "velocity": 0.65,
      "hand": "left"
    },
    {
      "midi": 45,
      "time": 104.118,
      "duration": 0.529,
      "velocity": 0.86,
      "hand": "left"
    },
    {
      "midi": 50,
      "time": 104.118,
      "duration": 0.529,
      "velocity": 0.79,
      "hand": "left"
    },
    {
      "midi": 57,
      "time": 104.118,
      "duration": 0.529,
      "velocity": 0.79,
      "hand": "left"
    },
    {
      "midi": 62,
      "time": 104.118,
      "duration": 0.529,
      "velocity": 0.83,
      "hand": "right"
    },
    {
      "midi": 66,
      "time": 104.118,
      "duration": 0.529,
      "velocity": 0.83,
      "hand": "right"
    },
    {
      "midi": 42,
      "time": 104.471,
      "duration": 0.176,
      "velocity": 0.51,
      "hand": "left"
    },
    {
      "midi": 37,
      "time": 104.824,
      "duration": 0.176,
      "velocity": 0.73,
      "hand": "left"
    },
    {
      "midi": 38,
      "time": 104.824,
      "duration": 0.353,
      "velocity": 0.86,
      "hand": "left"
    },
    {
      "midi": 42,
      "time": 104.824,
      "duration": 0.176,
      "velocity": 0.58,
      "hand": "left"
    },
    {
      "midi": 45,
      "time": 104.824,
      "duration": 0.353,
      "velocity": 0.86,
      "hand": "left"
    },
    {
      "midi": 50,
      "time": 104.824,
      "duration": 0.353,
      "velocity": 0.79,
      "hand": "left"
    },
    {
      "midi": 57,
      "time": 104.824,
      "duration": 0.353,
      "velocity": 0.79,
      "hand": "left"
    },
    {
      "midi": 62,
      "time": 104.824,
      "duration": 0.353,
      "velocity": 0.83,
      "hand": "right"
    },
    {
      "midi": 66,
      "time": 104.824,
      "duration": 0.353,
      "velocity": 0.83,
      "hand": "right"
    },
    {
      "midi": 35,
      "time": 105.176,
      "duration": 0.176,
      "velocity": 0.58,
      "hand": "left"
    },
    {
      "midi": 42,
      "time": 105.176,
      "duration": 0.176,
      "velocity": 0.51,
      "hand": "left"
    },
    {
      "midi": 38,
      "time": 105.353,
      "duration": 0.176,
      "velocity": 0.86,
      "hand": "left"
    },
    {
      "midi": 44,
      "time": 105.353,
      "duration": 0.176,
      "velocity": 0.86,
      "hand": "left"
    },
    {
      "midi": 50,
      "time": 105.353,
      "duration": 0.176,
      "velocity": 0.79,
      "hand": "left"
    },
    {
      "midi": 56,
      "time": 105.353,
      "duration": 0.176,
      "velocity": 0.79,
      "hand": "left"
    },
    {
      "midi": 62,
      "time": 105.353,
      "duration": 0.176,
      "velocity": 0.83,
      "hand": "right"
    },
    {
      "midi": 65,
      "time": 105.353,
      "duration": 0.176,
      "velocity": 0.83,
      "hand": "right"
    },
    {
      "midi": 35,
      "time": 105.529,
      "duration": 0.176,
      "velocity": 0.73,
      "hand": "left"
    },
    {
      "midi": 38,
      "time": 105.529,
      "duration": 0.529,
      "velocity": 0.86,
      "hand": "left"
    },
    {
      "midi": 42,
      "time": 105.529,
      "duration": 0.176,
      "velocity": 0.65,
      "hand": "left"
    },
    {
      "midi": 45,
      "time": 105.529,
      "duration": 0.529,
      "velocity": 0.86,
      "hand": "left"
    },
    {
      "midi": 50,
      "time": 105.529,
      "duration": 0.529,
      "velocity": 0.79,
      "hand": "left"
    },
    {
      "midi": 57,
      "time": 105.529,
      "duration": 0.529,
      "velocity": 0.79,
      "hand": "left"
    },
    {
      "midi": 62,
      "time": 105.529,
      "duration": 0.529,
      "velocity": 0.83,
      "hand": "right"
    },
    {
      "midi": 66,
      "time": 105.529,
      "duration": 0.529,
      "velocity": 0.83,
      "hand": "right"
    },
    {
      "midi": 42,
      "time": 105.882,
      "duration": 0.176,
      "velocity": 0.51,
      "hand": "left"
    },
    {
      "midi": 37,
      "time": 106.235,
      "duration": 0.176,
      "velocity": 0.73,
      "hand": "left"
    },
    {
      "midi": 38,
      "time": 106.235,
      "duration": 0.353,
      "velocity": 0.86,
      "hand": "left"
    },
    {
      "midi": 42,
      "time": 106.235,
      "duration": 0.176,
      "velocity": 0.58,
      "hand": "left"
    },
    {
      "midi": 45,
      "time": 106.235,
      "duration": 0.353,
      "velocity": 0.86,
      "hand": "left"
    },
    {
      "midi": 50,
      "time": 106.235,
      "duration": 0.353,
      "velocity": 0.79,
      "hand": "left"
    },
    {
      "midi": 57,
      "time": 106.235,
      "duration": 0.353,
      "velocity": 0.79,
      "hand": "left"
    },
    {
      "midi": 62,
      "time": 106.235,
      "duration": 0.353,
      "velocity": 0.83,
      "hand": "right"
    },
    {
      "midi": 66,
      "time": 106.235,
      "duration": 0.353,
      "velocity": 0.83,
      "hand": "right"
    },
    {
      "midi": 35,
      "time": 106.588,
      "duration": 0.176,
      "velocity": 0.58,
      "hand": "left"
    },
    {
      "midi": 42,
      "time": 106.588,
      "duration": 0.176,
      "velocity": 0.51,
      "hand": "left"
    },
    {
      "midi": 38,
      "time": 106.765,
      "duration": 0.176,
      "velocity": 0.86,
      "hand": "left"
    },
    {
      "midi": 45,
      "time": 106.765,
      "duration": 0.176,
      "velocity": 0.86,
      "hand": "left"
    },
    {
      "midi": 50,
      "time": 106.765,
      "duration": 0.176,
      "velocity": 0.79,
      "hand": "left"
    },
    {
      "midi": 57,
      "time": 106.765,
      "duration": 0.176,
      "velocity": 0.79,
      "hand": "left"
    },
    {
      "midi": 64,
      "time": 106.765,
      "duration": 0.176,
      "velocity": 0.83,
      "hand": "right"
    },
    {
      "midi": 67,
      "time": 106.765,
      "duration": 0.176,
      "velocity": 0.83,
      "hand": "right"
    },
    {
      "midi": 35,
      "time": 106.941,
      "duration": 0.176,
      "velocity": 0.73,
      "hand": "left"
    },
    {
      "midi": 38,
      "time": 106.941,
      "duration": 0.882,
      "velocity": 0.86,
      "hand": "left"
    },
    {
      "midi": 42,
      "time": 106.941,
      "duration": 0.176,
      "velocity": 0.65,
      "hand": "left"
    },
    {
      "midi": 50,
      "time": 106.941,
      "duration": 0.882,
      "velocity": 0.79,
      "hand": "left"
    },
    {
      "midi": 62,
      "time": 106.941,
      "duration": 0.882,
      "velocity": 0.79,
      "hand": "right"
    },
    {
      "midi": 66,
      "time": 106.941,
      "duration": 0.882,
      "velocity": 0.83,
      "hand": "right"
    },
    {
      "midi": 69,
      "time": 106.941,
      "duration": 0.882,
      "velocity": 0.83,
      "hand": "right"
    },
    {
      "midi": 42,
      "time": 107.294,
      "duration": 0.176,
      "velocity": 0.51,
      "hand": "left"
    },
    {
      "midi": 37,
      "time": 107.647,
      "duration": 0.176,
      "velocity": 0.73,
      "hand": "left"
    },
    {
      "midi": 42,
      "time": 107.647,
      "duration": 0.176,
      "velocity": 0.58,
      "hand": "left"
    },
    {
      "midi": 35,
      "time": 108,
      "duration": 0.176,
      "velocity": 0.58,
      "hand": "left"
    },
    {
      "midi": 42,
      "time": 108,
      "duration": 0.176,
      "velocity": 0.51,
      "hand": "left"
    },
    {
      "midi": 35,
      "time": 108.353,
      "duration": 0.176,
      "velocity": 0.73,
      "hand": "left"
    },
    {
      "midi": 38,
      "time": 108.353,
      "duration": 0.529,
      "velocity": 0.86,
      "hand": "left"
    },
    {
      "midi": 42,
      "time": 108.353,
      "duration": 0.176,
      "velocity": 0.65,
      "hand": "left"
    },
    {
      "midi": 50,
      "time": 108.353,
      "duration": 0.529,
      "velocity": 0.79,
      "hand": "left"
    },
    {
      "midi": 62,
      "time": 108.353,
      "duration": 0.529,
      "velocity": 0.79,
      "hand": "right"
    },
    {
      "midi": 66,
      "time": 108.353,
      "duration": 0.529,
      "velocity": 0.83,
      "hand": "right"
    },
    {
      "midi": 69,
      "time": 108.353,
      "duration": 0.529,
      "velocity": 0.83,
      "hand": "right"
    },
    {
      "midi": 35,
      "time": 108.706,
      "duration": 0.176,
      "velocity": 0.58,
      "hand": "left"
    },
    {
      "midi": 42,
      "time": 108.706,
      "duration": 0.176,
      "velocity": 0.51,
      "hand": "left"
    },
    {
      "midi": 37,
      "time": 109.059,
      "duration": 0.176,
      "velocity": 0.73,
      "hand": "left"
    },
    {
      "midi": 38,
      "time": 109.059,
      "duration": 0.353,
      "velocity": 0.86,
      "hand": "left"
    },
    {
      "midi": 42,
      "time": 109.059,
      "duration": 0.176,
      "velocity": 0.58,
      "hand": "left"
    },
    {
      "midi": 45,
      "time": 109.059,
      "duration": 0.353,
      "velocity": 0.86,
      "hand": "left"
    },
    {
      "midi": 50,
      "time": 109.059,
      "duration": 0.353,
      "velocity": 0.79,
      "hand": "left"
    },
    {
      "midi": 57,
      "time": 109.059,
      "duration": 0.353,
      "velocity": 0.79,
      "hand": "left"
    },
    {
      "midi": 66,
      "time": 109.059,
      "duration": 0.353,
      "velocity": 0.83,
      "hand": "right"
    },
    {
      "midi": 69,
      "time": 109.059,
      "duration": 0.353,
      "velocity": 0.83,
      "hand": "right"
    },
    {
      "midi": 35,
      "time": 109.412,
      "duration": 0.176,
      "velocity": 0.58,
      "hand": "left"
    },
    {
      "midi": 42,
      "time": 109.412,
      "duration": 0.176,
      "velocity": 0.51,
      "hand": "left"
    },
    {
      "midi": 38,
      "time": 109.588,
      "duration": 0.176,
      "velocity": 0.86,
      "hand": "left"
    },
    {
      "midi": 42,
      "time": 109.588,
      "duration": 0.176,
      "velocity": 0.43,
      "hand": "left"
    },
    {
      "midi": 45,
      "time": 109.588,
      "duration": 0.176,
      "velocity": 0.86,
      "hand": "left"
    },
    {
      "midi": 50,
      "time": 109.588,
      "duration": 0.176,
      "velocity": 0.79,
      "hand": "left"
    },
    {
      "midi": 57,
      "time": 109.588,
      "duration": 0.176,
      "velocity": 0.79,
      "hand": "left"
    },
    {
      "midi": 62,
      "time": 109.588,
      "duration": 0.176,
      "velocity": 0.83,
      "hand": "right"
    },
    {
      "midi": 66,
      "time": 109.588,
      "duration": 0.176,
      "velocity": 0.83,
      "hand": "right"
    },
    {
      "midi": 35,
      "time": 109.765,
      "duration": 0.176,
      "velocity": 0.65,
      "hand": "left"
    },
    {
      "midi": 42,
      "time": 109.765,
      "duration": 0.176,
      "velocity": 0.58,
      "hand": "left"
    },
    {
      "midi": 43,
      "time": 109.765,
      "duration": 0.529,
      "velocity": 0.86,
      "hand": "left"
    },
    {
      "midi": 47,
      "time": 109.765,
      "duration": 0.529,
      "velocity": 0.86,
      "hand": "left"
    },
    {
      "midi": 55,
      "time": 109.765,
      "duration": 0.529,
      "velocity": 0.79,
      "hand": "left"
    },
    {
      "midi": 59,
      "time": 109.765,
      "duration": 0.529,
      "velocity": 0.79,
      "hand": "left"
    },
    {
      "midi": 62,
      "time": 109.765,
      "duration": 0.529,
      "velocity": 0.83,
      "hand": "right"
    },
    {
      "midi": 64,
      "time": 109.765,
      "duration": 0.529,
      "velocity": 0.83,
      "hand": "right"
    },
    {
      "midi": 42,
      "time": 110.118,
      "duration": 0.176,
      "velocity": 0.36,
      "hand": "left"
    },
    {
      "midi": 42,
      "time": 110.294,
      "duration": 0.176,
      "velocity": 0.73,
      "hand": "left"
    },
    {
      "midi": 38,
      "time": 110.471,
      "duration": 0.176,
      "velocity": 0.73,
      "hand": "left"
    },
    {
      "midi": 43,
      "time": 110.471,
      "duration": 0.353,
      "velocity": 0.86,
      "hand": "left"
    },
    {
      "midi": 46,
      "time": 110.471,
      "duration": 0.176,
      "velocity": 0.73,
      "hand": "left"
    },
    {
      "midi": 47,
      "time": 110.471,
      "duration": 0.353,
      "velocity": 0.86,
      "hand": "left"
    },
    {
      "midi": 55,
      "time": 110.471,
      "duration": 0.353,
      "velocity": 0.79,
      "hand": "left"
    },
    {
      "midi": 59,
      "time": 110.471,
      "duration": 0.353,
      "velocity": 0.79,
      "hand": "left"
    },
    {
      "midi": 62,
      "time": 110.471,
      "duration": 0.353,
      "velocity": 0.83,
      "hand": "right"
    },
    {
      "midi": 64,
      "time": 110.471,
      "duration": 0.353,
      "velocity": 0.83,
      "hand": "right"
    },
    {
      "midi": 35,
      "time": 111,
      "duration": 0.176,
      "velocity": 0.65,
      "hand": "left"
    },
    {
      "midi": 43,
      "time": 111,
      "duration": 0.176,
      "velocity": 0.86,
      "hand": "left"
    },
    {
      "midi": 47,
      "time": 111,
      "duration": 0.176,
      "velocity": 0.86,
      "hand": "left"
    },
    {
      "midi": 55,
      "time": 111,
      "duration": 0.176,
      "velocity": 0.79,
      "hand": "left"
    },
    {
      "midi": 59,
      "time": 111,
      "duration": 0.176,
      "velocity": 0.79,
      "hand": "left"
    },
    {
      "midi": 62,
      "time": 111,
      "duration": 0.176,
      "velocity": 0.83,
      "hand": "right"
    },
    {
      "midi": 64,
      "time": 111,
      "duration": 0.176,
      "velocity": 0.83,
      "hand": "right"
    },
    {
      "midi": 38,
      "time": 111.176,
      "duration": 0.176,
      "velocity": 0.73,
      "hand": "left"
    },
    {
      "midi": 45,
      "time": 111.176,
      "duration": 0.529,
      "velocity": 0.86,
      "hand": "left"
    },
    {
      "midi": 57,
      "time": 111.176,
      "duration": 0.529,
      "velocity": 0.79,
      "hand": "left"
    },
    {
      "midi": 61,
      "time": 111.176,
      "duration": 0.529,
      "velocity": 0.83,
      "hand": "right"
    },
    {
      "midi": 64,
      "time": 111.176,
      "duration": 0.529,
      "velocity": 0.83,
      "hand": "right"
    },
    {
      "midi": 38,
      "time": 111.353,
      "duration": 0.176,
      "velocity": 0.43,
      "hand": "left"
    },
    {
      "midi": 35,
      "time": 111.706,
      "duration": 0.176,
      "velocity": 0.65,
      "hand": "left"
    },
    {
      "midi": 33,
      "time": 111.882,
      "duration": 0.353,
      "velocity": 0.86,
      "hand": "left"
    },
    {
      "midi": 38,
      "time": 111.882,
      "duration": 0.176,
      "velocity": 0.73,
      "hand": "left"
    },
    {
      "midi": 45,
      "time": 111.882,
      "duration": 0.353,
      "velocity": 0.79,
      "hand": "left"
    },
    {
      "midi": 57,
      "time": 111.882,
      "duration": 0.353,
      "velocity": 0.79,
      "hand": "left"
    },
    {
      "midi": 61,
      "time": 111.882,
      "duration": 0.353,
      "velocity": 0.83,
      "hand": "right"
    },
    {
      "midi": 66,
      "time": 111.882,
      "duration": 0.353,
      "velocity": 0.83,
      "hand": "right"
    },
    {
      "midi": 38,
      "time": 112.059,
      "duration": 0.176,
      "velocity": 0.43,
      "hand": "left"
    },
    {
      "midi": 41,
      "time": 112.235,
      "duration": 0.176,
      "velocity": 0.83,
      "hand": "left"
    },
    {
      "midi": 33,
      "time": 112.412,
      "duration": 0.176,
      "velocity": 0.86,
      "hand": "left"
    },
    {
      "midi": 43,
      "time": 112.412,
      "duration": 0.176,
      "velocity": 0.86,
      "hand": "left"
    },
    {
      "midi": 45,
      "time": 112.412,
      "duration": 0.176,
      "velocity": 0.79,
      "hand": "left"
    },
    {
      "midi": 55,
      "time": 112.412,
      "duration": 0.176,
      "velocity": 0.79,
      "hand": "left"
    },
    {
      "midi": 61,
      "time": 112.412,
      "duration": 0.176,
      "velocity": 0.83,
      "hand": "right"
    },
    {
      "midi": 64,
      "time": 112.412,
      "duration": 0.176,
      "velocity": 0.83,
      "hand": "right"
    },
    {
      "midi": 35,
      "time": 112.588,
      "duration": 0.176,
      "velocity": 0.73,
      "hand": "left"
    },
    {
      "midi": 38,
      "time": 112.588,
      "duration": 1.412,
      "velocity": 0.86,
      "hand": "left"
    },
    {
      "midi": 42,
      "time": 112.588,
      "duration": 1.412,
      "velocity": 0.86,
      "hand": "left"
    },
    {
      "midi": 50,
      "time": 112.588,
      "duration": 1.412,
      "velocity": 0.79,
      "hand": "left"
    },
    {
      "midi": 54,
      "time": 112.588,
      "duration": 1.412,
      "velocity": 0.79,
      "hand": "left"
    },
    {
      "midi": 62,
      "time": 112.588,
      "duration": 1.412,
      "velocity": 0.83,
      "hand": "right"
    },
    {
      "midi": 38,
      "time": 113.118,
      "duration": 0.176,
      "velocity": 0.36,
      "hand": "left"
    },
    {
      "midi": 38,
      "time": 113.294,
      "duration": 0.176,
      "velocity": 0.65,
      "hand": "left"
    },
    {
      "midi": 35,
      "time": 113.471,
      "duration": 0.176,
      "velocity": 0.65,
      "hand": "left"
    },
    {
      "midi": 48,
      "time": 113.647,
      "duration": 0.176,
      "velocity": 0.73,
      "hand": "left"
    },
    {
      "midi": 38,
      "time": 114.176,
      "duration": 0.176,
      "velocity": 0.29,
      "hand": "left"
    },
    {
      "midi": 45,
      "time": 114.353,
      "duration": 0.176,
      "velocity": 0.73,
      "hand": "left"
    },
    {
      "midi": 35,
      "time": 114.529,
      "duration": 0.176,
      "velocity": 0.65,
      "hand": "left"
    },
    {
      "midi": 41,
      "time": 114.706,
      "duration": 0.176,
      "velocity": 0.73,
      "hand": "left"
    },
    {
      "midi": 41,
      "time": 115.059,
      "duration": 0.176,
      "velocity": 0.83,
      "hand": "left"
    },
    {
      "midi": 35,
      "time": 115.412,
      "duration": 0.176,
      "velocity": 0.73,
      "hand": "left"
    },
    {
      "midi": 38,
      "time": 115.412,
      "duration": 0.176,
      "velocity": 0.86,
      "hand": "left"
    },
    {
      "midi": 42,
      "time": 115.412,
      "duration": 0.176,
      "velocity": 0.65,
      "hand": "left"
    },
    {
      "midi": 49,
      "time": 115.412,
      "duration": 0.176,
      "velocity": 0.65,
      "hand": "left"
    },
    {
      "midi": 50,
      "time": 115.412,
      "duration": 0.176,
      "velocity": 0.79,
      "hand": "left"
    },
    {
      "midi": 62,
      "time": 115.412,
      "duration": 0.176,
      "velocity": 0.79,
      "hand": "right"
    },
    {
      "midi": 66,
      "time": 115.412,
      "duration": 0.176,
      "velocity": 0.83,
      "hand": "right"
    },
    {
      "midi": 69,
      "time": 115.412,
      "duration": 1.588,
      "velocity": 0.83,
      "hand": "right"
    },
    {
      "midi": 38,
      "time": 115.588,
      "duration": 0.353,
      "velocity": 0.86,
      "hand": "left"
    },
    {
      "midi": 50,
      "time": 115.588,
      "duration": 0.353,
      "velocity": 0.79,
      "hand": "left"
    },
    {
      "midi": 62,
      "time": 115.588,
      "duration": 0.353,
      "velocity": 0.79,
      "hand": "right"
    },
    {
      "midi": 66,
      "time": 115.588,
      "duration": 0.353,
      "velocity": 0.83,
      "hand": "right"
    },
    {
      "midi": 42,
      "time": 115.765,
      "duration": 0.176,
      "velocity": 0.51,
      "hand": "left"
    },
    {
      "midi": 42,
      "time": 115.941,
      "duration": 0.176,
      "velocity": 0.43,
      "hand": "left"
    },
    {
      "midi": 38,
      "time": 116.118,
      "duration": 0.353,
      "velocity": 0.86,
      "hand": "left"
    },
    {
      "midi": 38,
      "time": 116.118,
      "duration": 0.176,
      "velocity": 0.73,
      "hand": "left"
    },
    {
      "midi": 42,
      "time": 116.118,
      "duration": 0.176,
      "velocity": 0.58,
      "hand": "left"
    },
    {
      "midi": 50,
      "time": 116.118,
      "duration": 0.353,
      "velocity": 0.79,
      "hand": "left"
    },
    {
      "midi": 62,
      "time": 116.118,
      "duration": 0.353,
      "velocity": 0.79,
      "hand": "right"
    },
    {
      "midi": 66,
      "time": 116.118,
      "duration": 0.353,
      "velocity": 0.83,
      "hand": "right"
    },
    {
      "midi": 42,
      "time": 116.471,
      "duration": 0.176,
      "velocity": 0.51,
      "hand": "left"
    },
    {
      "midi": 35,
      "time": 116.647,
      "duration": 0.176,
      "velocity": 0.58,
      "hand": "left"
    },
    {
      "midi": 38,
      "time": 116.647,
      "duration": 0.176,
      "velocity": 0.86,
      "hand": "left"
    },
    {
      "midi": 42,
      "time": 116.647,
      "duration": 0.176,
      "velocity": 0.43,
      "hand": "left"
    },
    {
      "midi": 50,
      "time": 116.647,
      "duration": 0.176,
      "velocity": 0.79,
      "hand": "left"
    },
    {
      "midi": 62,
      "time": 116.647,
      "duration": 0.176,
      "velocity": 0.79,
      "hand": "right"
    },
    {
      "midi": 66,
      "time": 116.647,
      "duration": 0.176,
      "velocity": 0.83,
      "hand": "right"
    },
    {
      "midi": 35,
      "time": 116.824,
      "duration": 0.176,
      "velocity": 0.73,
      "hand": "left"
    },
    {
      "midi": 38,
      "time": 116.824,
      "duration": 0.529,
      "velocity": 0.86,
      "hand": "left"
    },
    {
      "midi": 42,
      "time": 116.824,
      "duration": 0.176,
      "velocity": 0.65,
      "hand": "left"
    },
    {
      "midi": 50,
      "time": 116.824,
      "duration": 0.529,
      "velocity": 0.79,
      "hand": "left"
    },
    {
      "midi": 62,
      "time": 116.824,
      "duration": 0.529,
      "velocity": 0.79,
      "hand": "right"
    },
    {
      "midi": 66,
      "time": 116.824,
      "duration": 0.529,
      "velocity": 0.83,
      "hand": "right"
    },
    {
      "midi": 69,
      "time": 116.824,
      "duration": 0.353,
      "velocity": 0.83,
      "hand": "right"
    },
    {
      "midi": 42,
      "time": 117.176,
      "duration": 0.176,
      "velocity": 0.51,
      "hand": "left"
    },
    {
      "midi": 42,
      "time": 117.353,
      "duration": 0.176,
      "velocity": 0.43,
      "hand": "left"
    },
    {
      "midi": 66,
      "time": 117.353,
      "duration": 0.176,
      "velocity": 0.83,
      "hand": "right"
    },
    {
      "midi": 38,
      "time": 117.529,
      "duration": 0.176,
      "velocity": 0.73,
      "hand": "left"
    },
    {
      "midi": 42,
      "time": 117.529,
      "duration": 0.176,
      "velocity": 0.58,
      "hand": "left"
    },
    {
      "midi": 69,
      "time": 117.529,
      "duration": 0.353,
      "velocity": 0.83,
      "hand": "right"
    },
    {
      "midi": 35,
      "time": 117.882,
      "duration": 0.176,
      "velocity": 0.58,
      "hand": "left"
    },
    {
      "midi": 42,
      "time": 117.882,
      "duration": 0.176,
      "velocity": 0.51,
      "hand": "left"
    },
    {
      "midi": 42,
      "time": 118.059,
      "duration": 0.176,
      "velocity": 0.43,
      "hand": "left"
    },
    {
      "midi": 74,
      "time": 118.059,
      "duration": 0.176,
      "velocity": 0.83,
      "hand": "right"
    },
    {
      "midi": 33,
      "time": 118.235,
      "duration": 0.176,
      "velocity": 0.86,
      "hand": "left"
    },
    {
      "midi": 35,
      "time": 118.235,
      "duration": 0.176,
      "velocity": 0.73,
      "hand": "left"
    },
    {
      "midi": 42,
      "time": 118.235,
      "duration": 0.176,
      "velocity": 0.65,
      "hand": "left"
    },
    {
      "midi": 45,
      "time": 118.235,
      "duration": 0.176,
      "velocity": 0.79,
      "hand": "left"
    },
    {
      "midi": 52,
      "time": 118.235,
      "duration": 0.176,
      "velocity": 0.86,
      "hand": "left"
    },
    {
      "midi": 64,
      "time": 118.235,
      "duration": 0.176,
      "velocity": 0.79,
      "hand": "right"
    },
    {
      "midi": 67,
      "time": 118.235,
      "duration": 0.176,
      "velocity": 0.83,
      "hand": "right"
    },
    {
      "midi": 73,
      "time": 118.235,
      "duration": 1.588,
      "velocity": 0.83,
      "hand": "right"
    },
    {
      "midi": 73,
      "time": 118.235,
      "duration": 0.882,
      "velocity": 0.86,
      "hand": "right"
    },
    {
      "midi": 33,
      "time": 118.412,
      "duration": 0.353,
      "velocity": 0.86,
      "hand": "left"
    },
    {
      "midi": 45,
      "time": 118.412,
      "duration": 0.353,
      "velocity": 0.79,
      "hand": "left"
    },
    {
      "midi": 52,
      "time": 118.412,
      "duration": 0.353,
      "velocity": 0.86,
      "hand": "left"
    },
    {
      "midi": 64,
      "time": 118.412,
      "duration": 0.353,
      "velocity": 0.79,
      "hand": "right"
    },
    {
      "midi": 67,
      "time": 118.412,
      "duration": 0.353,
      "velocity": 0.83,
      "hand": "right"
    },
    {
      "midi": 42,
      "time": 118.588,
      "duration": 0.176,
      "velocity": 0.51,
      "hand": "left"
    },
    {
      "midi": 42,
      "time": 118.765,
      "duration": 0.176,
      "velocity": 0.43,
      "hand": "left"
    },
    {
      "midi": 33,
      "time": 118.941,
      "duration": 0.353,
      "velocity": 0.86,
      "hand": "left"
    },
    {
      "midi": 38,
      "time": 118.941,
      "duration": 0.176,
      "velocity": 0.73,
      "hand": "left"
    },
    {
      "midi": 42,
      "time": 118.941,
      "duration": 0.176,
      "velocity": 0.58,
      "hand": "left"
    },
    {
      "midi": 45,
      "time": 118.941,
      "duration": 0.353,
      "velocity": 0.79,
      "hand": "left"
    },
    {
      "midi": 52,
      "time": 118.941,
      "duration": 0.353,
      "velocity": 0.86,
      "hand": "left"
    },
    {
      "midi": 64,
      "time": 118.941,
      "duration": 0.353,
      "velocity": 0.79,
      "hand": "right"
    },
    {
      "midi": 67,
      "time": 118.941,
      "duration": 0.353,
      "velocity": 0.83,
      "hand": "right"
    },
    {
      "midi": 42,
      "time": 119.294,
      "duration": 0.176,
      "velocity": 0.51,
      "hand": "left"
    },
    {
      "midi": 33,
      "time": 119.471,
      "duration": 0.176,
      "velocity": 0.86,
      "hand": "left"
    },
    {
      "midi": 35,
      "time": 119.471,
      "duration": 0.176,
      "velocity": 0.58,
      "hand": "left"
    },
    {
      "midi": 42,
      "time": 119.471,
      "duration": 0.176,
      "velocity": 0.43,
      "hand": "left"
    },
    {
      "midi": 45,
      "time": 119.471,
      "duration": 0.176,
      "velocity": 0.79,
      "hand": "left"
    },
    {
      "midi": 52,
      "time": 119.471,
      "duration": 0.176,
      "velocity": 0.86,
      "hand": "left"
    },
    {
      "midi": 64,
      "time": 119.471,
      "duration": 0.176,
      "velocity": 0.79,
      "hand": "right"
    },
    {
      "midi": 67,
      "time": 119.471,
      "duration": 0.176,
      "velocity": 0.83,
      "hand": "right"
    },
    {
      "midi": 33,
      "time": 119.647,
      "duration": 0.529,
      "velocity": 0.86,
      "hand": "left"
    },
    {
      "midi": 35,
      "time": 119.647,
      "duration": 0.176,
      "velocity": 0.73,
      "hand": "left"
    },
    {
      "midi": 42,
      "time": 119.647,
      "duration": 0.176,
      "velocity": 0.65,
      "hand": "left"
    },
    {
      "midi": 45,
      "time": 119.647,
      "duration": 0.529,
      "velocity": 0.79,
      "hand": "left"
    },
    {
      "midi": 52,
      "time": 119.647,
      "duration": 0.529,
      "velocity": 0.86,
      "hand": "left"
    },
    {
      "midi": 64,
      "time": 119.647,
      "duration": 0.529,
      "velocity": 0.79,
      "hand": "right"
    },
    {
      "midi": 67,
      "time": 119.647,
      "duration": 0.529,
      "velocity": 0.83,
      "hand": "right"
    },
    {
      "midi": 73,
      "time": 119.647,
      "duration": 0.529,
      "velocity": 0.83,
      "hand": "right"
    },
    {
      "midi": 35,
      "time": 120,
      "duration": 0.176,
      "velocity": 0.58,
      "hand": "left"
    },
    {
      "midi": 42,
      "time": 120,
      "duration": 0.176,
      "velocity": 0.51,
      "hand": "left"
    },
    {
      "midi": 42,
      "time": 120.176,
      "duration": 0.176,
      "velocity": 0.43,
      "hand": "left"
    },
    {
      "midi": 38,
      "time": 120.353,
      "duration": 0.176,
      "velocity": 0.73,
      "hand": "left"
    },
    {
      "midi": 42,
      "time": 120.353,
      "duration": 0.176,
      "velocity": 0.58,
      "hand": "left"
    },
    {
      "midi": 35,
      "time": 120.706,
      "duration": 0.176,
      "velocity": 0.58,
      "hand": "left"
    },
    {
      "midi": 42,
      "time": 120.706,
      "duration": 0.176,
      "velocity": 0.51,
      "hand": "left"
    },
    {
      "midi": 46,
      "time": 120.882,
      "duration": 0.176,
      "velocity": 0.58,
      "hand": "left"
    },
    {
      "midi": 35,
      "time": 121.059,
      "duration": 0.176,
      "velocity": 0.73,
      "hand": "left"
    },
    {
      "midi": 42,
      "time": 121.059,
      "duration": 0.176,
      "velocity": 0.65,
      "hand": "left"
    },
    {
      "midi": 45,
      "time": 121.059,
      "duration": 0.176,
      "velocity": 0.86,
      "hand": "left"
    },
    {
      "midi": 49,
      "time": 121.059,
      "duration": 0.176,
      "velocity": 0.86,
      "hand": "left"
    },
    {
      "midi": 57,
      "time": 121.059,
      "duration": 0.176,
      "velocity": 0.79,
      "hand": "left"
    },
    {
      "midi": 61,
      "time": 121.059,
      "duration": 0.176,
      "velocity": 0.79,
      "hand": "right"
    },
    {
      "midi": 64,
      "time": 121.059,
      "duration": 0.176,
      "velocity": 0.83,
      "hand": "right"
    },
    {
      "midi": 67,
      "time": 121.059,
      "duration": 1.588,
      "velocity": 0.83,
      "hand": "right"
    },
    {
      "midi": 45,
      "time": 121.235,
      "duration": 0.353,
      "velocity": 0.86,
      "hand": "left"
    },
    {
      "midi": 49,
      "time": 121.235,
      "duration": 0.353,
      "velocity": 0.86,
      "hand": "left"
    },
    {
      "midi": 57,
      "time": 121.235,
      "duration": 0.353,
      "velocity": 0.79,
      "hand": "left"
    },
    {
      "midi": 61,
      "time": 121.235,
      "duration": 0.353,
      "velocity": 0.79,
      "hand": "right"
    },
    {
      "midi": 64,
      "time": 121.235,
      "duration": 0.353,
      "velocity": 0.83,
      "hand": "right"
    },
    {
      "midi": 42,
      "time": 121.412,
      "duration": 0.176,
      "velocity": 0.51,
      "hand": "left"
    },
    {
      "midi": 42,
      "time": 121.588,
      "duration": 0.176,
      "velocity": 0.43,
      "hand": "left"
    },
    {
      "midi": 38,
      "time": 121.765,
      "duration": 0.176,
      "velocity": 0.73,
      "hand": "left"
    },
    {
      "midi": 42,
      "time": 121.765,
      "duration": 0.176,
      "velocity": 0.58,
      "hand": "left"
    },
    {
      "midi": 45,
      "time": 121.765,
      "duration": 0.353,
      "velocity": 0.86,
      "hand": "left"
    },
    {
      "midi": 49,
      "time": 121.765,
      "duration": 0.353,
      "velocity": 0.86,
      "hand": "left"
    },
    {
      "midi": 57,
      "time": 121.765,
      "duration": 0.353,
      "velocity": 0.79,
      "hand": "left"
    },
    {
      "midi": 61,
      "time": 121.765,
      "duration": 0.353,
      "velocity": 0.79,
      "hand": "right"
    },
    {
      "midi": 64,
      "time": 121.765,
      "duration": 0.353,
      "velocity": 0.83,
      "hand": "right"
    },
    {
      "midi": 42,
      "time": 122.118,
      "duration": 0.176,
      "velocity": 0.51,
      "hand": "left"
    },
    {
      "midi": 35,
      "time": 122.294,
      "duration": 0.176,
      "velocity": 0.58,
      "hand": "left"
    },
    {
      "midi": 38,
      "time": 122.294,
      "duration": 0.176,
      "velocity": 0.26,
      "hand": "left"
    },
    {
      "midi": 45,
      "time": 122.294,
      "duration": 0.176,
      "velocity": 0.86,
      "hand": "left"
    },
    {
      "midi": 49,
      "time": 122.294,
      "duration": 0.176,
      "velocity": 0.86,
      "hand": "left"
    },
    {
      "midi": 57,
      "time": 122.294,
      "duration": 0.176,
      "velocity": 0.79,
      "hand": "left"
    },
    {
      "midi": 61,
      "time": 122.294,
      "duration": 0.176,
      "velocity": 0.79,
      "hand": "right"
    },
    {
      "midi": 64,
      "time": 122.294,
      "duration": 0.176,
      "velocity": 0.83,
      "hand": "right"
    },
    {
      "midi": 35,
      "time": 122.471,
      "duration": 0.176,
      "velocity": 0.73,
      "hand": "left"
    },
    {
      "midi": 42,
      "time": 122.471,
      "duration": 0.176,
      "velocity": 0.65,
      "hand": "left"
    },
    {
      "midi": 45,
      "time": 122.471,
      "duration": 0.529,
      "velocity": 0.86,
      "hand": "left"
    },
    {
      "midi": 49,
      "time": 122.471,
      "duration": 0.529,
      "velocity": 0.86,
      "hand": "left"
    },
    {
      "midi": 57,
      "time": 122.471,
      "duration": 0.529,
      "velocity": 0.79,
      "hand": "left"
    },
    {
      "midi": 61,
      "time": 122.471,
      "duration": 0.529,
      "velocity": 0.79,
      "hand": "right"
    },
    {
      "midi": 64,
      "time": 122.471,
      "duration": 0.529,
      "velocity": 0.83,
      "hand": "right"
    },
    {
      "midi": 67,
      "time": 122.471,
      "duration": 0.353,
      "velocity": 0.83,
      "hand": "right"
    },
    {
      "midi": 42,
      "time": 122.824,
      "duration": 0.176,
      "velocity": 0.51,
      "hand": "left"
    },
    {
      "midi": 42,
      "time": 123,
      "duration": 0.176,
      "velocity": 0.43,
      "hand": "left"
    },
    {
      "midi": 64,
      "time": 123,
      "duration": 0.176,
      "velocity": 0.83,
      "hand": "right"
    },
    {
      "midi": 38,
      "time": 123.176,
      "duration": 0.176,
      "velocity": 0.73,
      "hand": "left"
    },
    {
      "midi": 42,
      "time": 123.176,
      "duration": 0.176,
      "velocity": 0.58,
      "hand": "left"
    },
    {
      "midi": 67,
      "time": 123.176,
      "duration": 0.353,
      "velocity": 0.83,
      "hand": "right"
    },
    {
      "midi": 35,
      "time": 123.529,
      "duration": 0.176,
      "velocity": 0.58,
      "hand": "left"
    },
    {
      "midi": 42,
      "time": 123.529,
      "duration": 0.176,
      "velocity": 0.51,
      "hand": "left"
    },
    {
      "midi": 42,
      "time": 123.706,
      "duration": 0.176,
      "velocity": 0.43,
      "hand": "left"
    },
    {
      "midi": 71,
      "time": 123.706,
      "duration": 0.176,
      "velocity": 0.83,
      "hand": "right"
    },
    {
      "midi": 35,
      "time": 123.882,
      "duration": 0.176,
      "velocity": 0.73,
      "hand": "left"
    },
    {
      "midi": 38,
      "time": 123.882,
      "duration": 0.176,
      "velocity": 0.86,
      "hand": "left"
    },
    {
      "midi": 42,
      "time": 123.882,
      "duration": 0.176,
      "velocity": 0.65,
      "hand": "left"
    },
    {
      "midi": 50,
      "time": 123.882,
      "duration": 0.176,
      "velocity": 0.79,
      "hand": "left"
    },
    {
      "midi": 62,
      "time": 123.882,
      "duration": 0.176,
      "velocity": 0.79,
      "hand": "right"
    },
    {
      "midi": 69,
      "time": 123.882,
      "duration": 0.882,
      "velocity": 0.83,
      "hand": "right"
    },
    {
      "midi": 38,
      "time": 124.059,
      "duration": 0.353,
      "velocity": 0.86,
      "hand": "left"
    },
    {
      "midi": 50,
      "time": 124.059,
      "duration": 0.353,
      "velocity": 0.79,
      "hand": "left"
    },
    {
      "midi": 62,
      "time": 124.059,
      "duration": 0.353,
      "velocity": 0.79,
      "hand": "right"
    },
    {
      "midi": 42,
      "time": 124.235,
      "duration": 0.176,
      "velocity": 0.51,
      "hand": "left"
    },
    {
      "midi": 42,
      "time": 124.412,
      "duration": 0.176,
      "velocity": 0.43,
      "hand": "left"
    },
    {
      "midi": 38,
      "time": 124.588,
      "duration": 0.353,
      "velocity": 0.86,
      "hand": "left"
    },
    {
      "midi": 38,
      "time": 124.588,
      "duration": 0.176,
      "velocity": 0.73,
      "hand": "left"
    },
    {
      "midi": 42,
      "time": 124.588,
      "duration": 0.176,
      "velocity": 0.58,
      "hand": "left"
    },
    {
      "midi": 50,
      "time": 124.588,
      "duration": 0.353,
      "velocity": 0.79,
      "hand": "left"
    },
    {
      "midi": 62,
      "time": 124.588,
      "duration": 0.353,
      "velocity": 0.79,
      "hand": "right"
    },
    {
      "midi": 35,
      "time": 124.941,
      "duration": 0.176,
      "velocity": 0.58,
      "hand": "left"
    },
    {
      "midi": 38,
      "time": 124.941,
      "duration": 0.176,
      "velocity": 0.86,
      "hand": "left"
    },
    {
      "midi": 42,
      "time": 124.941,
      "duration": 0.176,
      "velocity": 0.51,
      "hand": "left"
    },
    {
      "midi": 46,
      "time": 124.941,
      "duration": 0.176,
      "velocity": 0.52,
      "hand": "left"
    },
    {
      "midi": 50,
      "time": 124.941,
      "duration": 0.176,
      "velocity": 0.79,
      "hand": "left"
    },
    {
      "midi": 62,
      "time": 124.941,
      "duration": 0.176,
      "velocity": 0.79,
      "hand": "right"
    },
    {
      "midi": 35,
      "time": 125.118,
      "duration": 0.176,
      "velocity": 0.73,
      "hand": "left"
    },
    {
      "midi": 38,
      "time": 125.118,
      "duration": 0.529,
      "velocity": 0.86,
      "hand": "left"
    },
    {
      "midi": 42,
      "time": 125.118,
      "duration": 0.176,
      "velocity": 0.65,
      "hand": "left"
    },
    {
      "midi": 50,
      "time": 125.118,
      "duration": 0.529,
      "velocity": 0.79,
      "hand": "left"
    },
    {
      "midi": 62,
      "time": 125.118,
      "duration": 0.529,
      "velocity": 0.79,
      "hand": "right"
    },
    {
      "midi": 69,
      "time": 125.118,
      "duration": 0.529,
      "velocity": 0.83,
      "hand": "right"
    },
    {
      "midi": 35,
      "time": 125.471,
      "duration": 0.176,
      "velocity": 0.58,
      "hand": "left"
    },
    {
      "midi": 42,
      "time": 125.471,
      "duration": 0.176,
      "velocity": 0.51,
      "hand": "left"
    },
    {
      "midi": 42,
      "time": 125.647,
      "duration": 0.176,
      "velocity": 0.43,
      "hand": "left"
    },
    {
      "midi": 38,
      "time": 125.824,
      "duration": 0.176,
      "velocity": 0.73,
      "hand": "left"
    },
    {
      "midi": 42,
      "time": 125.824,
      "duration": 0.176,
      "velocity": 0.58,
      "hand": "left"
    },
    {
      "midi": 35,
      "time": 126.176,
      "duration": 0.176,
      "velocity": 0.58,
      "hand": "left"
    },
    {
      "midi": 42,
      "time": 126.176,
      "duration": 0.176,
      "velocity": 0.51,
      "hand": "left"
    },
    {
      "midi": 42,
      "time": 126.353,
      "duration": 0.176,
      "velocity": 0.43,
      "hand": "left"
    },
    {
      "midi": 35,
      "time": 126.529,
      "duration": 0.176,
      "velocity": 0.73,
      "hand": "left"
    },
    {
      "midi": 38,
      "time": 126.529,
      "duration": 0.529,
      "velocity": 0.86,
      "hand": "left"
    },
    {
      "midi": 42,
      "time": 126.529,
      "duration": 0.176,
      "velocity": 0.65,
      "hand": "left"
    },
    {
      "midi": 45,
      "time": 126.529,
      "duration": 0.529,
      "velocity": 0.86,
      "hand": "left"
    },
    {
      "midi": 50,
      "time": 126.529,
      "duration": 0.529,
      "velocity": 0.79,
      "hand": "left"
    },
    {
      "midi": 57,
      "time": 126.529,
      "duration": 0.529,
      "velocity": 0.79,
      "hand": "left"
    },
    {
      "midi": 66,
      "time": 126.529,
      "duration": 0.529,
      "velocity": 0.83,
      "hand": "right"
    },
    {
      "midi": 74,
      "time": 126.529,
      "duration": 0.529,
      "velocity": 0.83,
      "hand": "right"
    },
    {
      "midi": 42,
      "time": 126.882,
      "duration": 0.176,
      "velocity": 0.51,
      "hand": "left"
    },
    {
      "midi": 42,
      "time": 127.059,
      "duration": 0.176,
      "velocity": 0.43,
      "hand": "left"
    },
    {
      "midi": 38,
      "time": 127.235,
      "duration": 0.353,
      "velocity": 0.86,
      "hand": "left"
    },
    {
      "midi": 38,
      "time": 127.235,
      "duration": 0.176,
      "velocity": 0.73,
      "hand": "left"
    },
    {
      "midi": 42,
      "time": 127.235,
      "duration": 0.176,
      "velocity": 0.58,
      "hand": "left"
    },
    {
      "midi": 45,
      "time": 127.235,
      "duration": 0.353,
      "velocity": 0.86,
      "hand": "left"
    },
    {
      "midi": 50,
      "time": 127.235,
      "duration": 0.353,
      "velocity": 0.79,
      "hand": "left"
    },
    {
      "midi": 57,
      "time": 127.235,
      "duration": 0.353,
      "velocity": 0.79,
      "hand": "left"
    },
    {
      "midi": 66,
      "time": 127.235,
      "duration": 0.353,
      "velocity": 0.83,
      "hand": "right"
    },
    {
      "midi": 74,
      "time": 127.235,
      "duration": 0.353,
      "velocity": 0.83,
      "hand": "right"
    },
    {
      "midi": 42,
      "time": 127.588,
      "duration": 0.176,
      "velocity": 0.51,
      "hand": "left"
    },
    {
      "midi": 35,
      "time": 127.765,
      "duration": 0.176,
      "velocity": 0.58,
      "hand": "left"
    },
    {
      "midi": 38,
      "time": 127.765,
      "duration": 0.176,
      "velocity": 0.86,
      "hand": "left"
    },
    {
      "midi": 42,
      "time": 127.765,
      "duration": 0.176,
      "velocity": 0.43,
      "hand": "left"
    },
    {
      "midi": 45,
      "time": 127.765,
      "duration": 0.176,
      "velocity": 0.86,
      "hand": "left"
    },
    {
      "midi": 50,
      "time": 127.765,
      "duration": 0.176,
      "velocity": 0.79,
      "hand": "left"
    },
    {
      "midi": 57,
      "time": 127.765,
      "duration": 0.176,
      "velocity": 0.79,
      "hand": "left"
    },
    {
      "midi": 66,
      "time": 127.765,
      "duration": 0.176,
      "velocity": 0.83,
      "hand": "right"
    },
    {
      "midi": 74,
      "time": 127.765,
      "duration": 0.176,
      "velocity": 0.83,
      "hand": "right"
    },
    {
      "midi": 35,
      "time": 127.941,
      "duration": 0.176,
      "velocity": 0.73,
      "hand": "left"
    },
    {
      "midi": 42,
      "time": 127.941,
      "duration": 0.529,
      "velocity": 0.86,
      "hand": "left"
    },
    {
      "midi": 42,
      "time": 127.941,
      "duration": 0.176,
      "velocity": 0.65,
      "hand": "left"
    },
    {
      "midi": 45,
      "time": 127.941,
      "duration": 0.529,
      "velocity": 0.86,
      "hand": "left"
    },
    {
      "midi": 54,
      "time": 127.941,
      "duration": 0.529,
      "velocity": 0.79,
      "hand": "left"
    },
    {
      "midi": 57,
      "time": 127.941,
      "duration": 0.529,
      "velocity": 0.79,
      "hand": "left"
    },
    {
      "midi": 69,
      "time": 127.941,
      "duration": 0.529,
      "velocity": 0.83,
      "hand": "right"
    },
    {
      "midi": 74,
      "time": 127.941,
      "duration": 0.529,
      "velocity": 0.83,
      "hand": "right"
    },
    {
      "midi": 46,
      "time": 128.294,
      "duration": 0.176,
      "velocity": 0.51,
      "hand": "left"
    },
    {
      "midi": 38,
      "time": 128.647,
      "duration": 0.176,
      "velocity": 0.73,
      "hand": "left"
    },
    {
      "midi": 42,
      "time": 128.647,
      "duration": 0.353,
      "velocity": 0.86,
      "hand": "left"
    },
    {
      "midi": 42,
      "time": 128.647,
      "duration": 0.176,
      "velocity": 0.58,
      "hand": "left"
    },
    {
      "midi": 50,
      "time": 128.647,
      "duration": 0.353,
      "velocity": 0.86,
      "hand": "left"
    },
    {
      "midi": 54,
      "time": 128.647,
      "duration": 0.353,
      "velocity": 0.79,
      "hand": "left"
    },
    {
      "midi": 62,
      "time": 128.647,
      "duration": 0.353,
      "velocity": 0.79,
      "hand": "right"
    },
    {
      "midi": 69,
      "time": 128.647,
      "duration": 0.353,
      "velocity": 0.83,
      "hand": "right"
    },
    {
      "midi": 74,
      "time": 128.647,
      "duration": 0.353,
      "velocity": 0.83,
      "hand": "right"
    },
    {
      "midi": 35,
      "time": 129,
      "duration": 0.176,
      "velocity": 0.58,
      "hand": "left"
    },
    {
      "midi": 42,
      "time": 129,
      "duration": 0.176,
      "velocity": 0.51,
      "hand": "left"
    },
    {
      "midi": 42,
      "time": 129.176,
      "duration": 0.176,
      "velocity": 0.86,
      "hand": "left"
    },
    {
      "midi": 50,
      "time": 129.176,
      "duration": 0.176,
      "velocity": 0.86,
      "hand": "left"
    },
    {
      "midi": 54,
      "time": 129.176,
      "duration": 0.176,
      "velocity": 0.79,
      "hand": "left"
    },
    {
      "midi": 62,
      "time": 129.176,
      "duration": 0.176,
      "velocity": 0.79,
      "hand": "right"
    },
    {
      "midi": 69,
      "time": 129.176,
      "duration": 0.176,
      "velocity": 0.83,
      "hand": "right"
    },
    {
      "midi": 73,
      "time": 129.176,
      "duration": 0.176,
      "velocity": 0.83,
      "hand": "right"
    },
    {
      "midi": 35,
      "time": 129.353,
      "duration": 0.176,
      "velocity": 0.73,
      "hand": "left"
    },
    {
      "midi": 42,
      "time": 129.353,
      "duration": 0.176,
      "velocity": 0.65,
      "hand": "left"
    },
    {
      "midi": 43,
      "time": 129.353,
      "duration": 0.529,
      "velocity": 0.86,
      "hand": "left"
    },
    {
      "midi": 50,
      "time": 129.353,
      "duration": 0.529,
      "velocity": 0.86,
      "hand": "left"
    },
    {
      "midi": 55,
      "time": 129.353,
      "duration": 0.529,
      "velocity": 0.79,
      "hand": "left"
    },
    {
      "midi": 62,
      "time": 129.353,
      "duration": 0.529,
      "velocity": 0.79,
      "hand": "right"
    },
    {
      "midi": 67,
      "time": 129.353,
      "duration": 0.529,
      "velocity": 0.83,
      "hand": "right"
    },
    {
      "midi": 71,
      "time": 129.353,
      "duration": 0.882,
      "velocity": 0.83,
      "hand": "right"
    },
    {
      "midi": 42,
      "time": 129.706,
      "duration": 0.176,
      "velocity": 0.51,
      "hand": "left"
    },
    {
      "midi": 42,
      "time": 129.882,
      "duration": 0.176,
      "velocity": 0.43,
      "hand": "left"
    },
    {
      "midi": 38,
      "time": 130.059,
      "duration": 0.176,
      "velocity": 0.73,
      "hand": "left"
    },
    {
      "midi": 42,
      "time": 130.059,
      "duration": 0.176,
      "velocity": 0.58,
      "hand": "left"
    },
    {
      "midi": 43,
      "time": 130.059,
      "duration": 0.353,
      "velocity": 0.86,
      "hand": "left"
    },
    {
      "midi": 50,
      "time": 130.059,
      "duration": 0.353,
      "velocity": 0.86,
      "hand": "left"
    },
    {
      "midi": 55,
      "time": 130.059,
      "duration": 0.353,
      "velocity": 0.79,
      "hand": "left"
    },
    {
      "midi": 62,
      "time": 130.059,
      "duration": 0.353,
      "velocity": 0.79,
      "hand": "right"
    },
    {
      "midi": 67,
      "time": 130.059,
      "duration": 0.353,
      "velocity": 0.83,
      "hand": "right"
    },
    {
      "midi": 42,
      "time": 130.412,
      "duration": 0.176,
      "velocity": 0.51,
      "hand": "left"
    },
    {
      "midi": 35,
      "time": 130.588,
      "duration": 0.176,
      "velocity": 0.58,
      "hand": "left"
    },
    {
      "midi": 42,
      "time": 130.588,
      "duration": 0.176,
      "velocity": 0.43,
      "hand": "left"
    },
    {
      "midi": 43,
      "time": 130.588,
      "duration": 0.176,
      "velocity": 0.86,
      "hand": "left"
    },
    {
      "midi": 50,
      "time": 130.588,
      "duration": 0.176,
      "velocity": 0.86,
      "hand": "left"
    },
    {
      "midi": 55,
      "time": 130.588,
      "duration": 0.176,
      "velocity": 0.79,
      "hand": "left"
    },
    {
      "midi": 62,
      "time": 130.588,
      "duration": 0.176,
      "velocity": 0.79,
      "hand": "right"
    },
    {
      "midi": 67,
      "time": 130.588,
      "duration": 0.176,
      "velocity": 0.83,
      "hand": "right"
    },
    {
      "midi": 35,
      "time": 130.765,
      "duration": 0.176,
      "velocity": 0.73,
      "hand": "left"
    },
    {
      "midi": 42,
      "time": 130.765,
      "duration": 0.176,
      "velocity": 0.65,
      "hand": "left"
    },
    {
      "midi": 47,
      "time": 130.765,
      "duration": 0.529,
      "velocity": 0.86,
      "hand": "left"
    },
    {
      "midi": 50,
      "time": 130.765,
      "duration": 0.529,
      "velocity": 0.86,
      "hand": "left"
    },
    {
      "midi": 59,
      "time": 130.765,
      "duration": 0.529,
      "velocity": 0.79,
      "hand": "left"
    },
    {
      "midi": 62,
      "time": 130.765,
      "duration": 0.529,
      "velocity": 0.79,
      "hand": "right"
    },
    {
      "midi": 67,
      "time": 130.765,
      "duration": 0.529,
      "velocity": 0.83,
      "hand": "right"
    },
    {
      "midi": 42,
      "time": 131.118,
      "duration": 0.176,
      "velocity": 0.51,
      "hand": "left"
    },
    {
      "midi": 42,
      "time": 131.294,
      "duration": 0.176,
      "velocity": 0.43,
      "hand": "left"
    },
    {
      "midi": 38,
      "time": 131.471,
      "duration": 0.176,
      "velocity": 0.73,
      "hand": "left"
    },
    {
      "midi": 42,
      "time": 131.471,
      "duration": 0.176,
      "velocity": 0.58,
      "hand": "left"
    },
    {
      "midi": 43,
      "time": 131.471,
      "duration": 0.353,
      "velocity": 0.86,
      "hand": "left"
    },
    {
      "midi": 50,
      "time": 131.471,
      "duration": 0.353,
      "velocity": 0.86,
      "hand": "left"
    },
    {
      "midi": 55,
      "time": 131.471,
      "duration": 0.353,
      "velocity": 0.79,
      "hand": "left"
    },
    {
      "midi": 62,
      "time": 131.471,
      "duration": 0.353,
      "velocity": 0.79,
      "hand": "right"
    },
    {
      "midi": 67,
      "time": 131.471,
      "duration": 0.353,
      "velocity": 0.83,
      "hand": "right"
    },
    {
      "midi": 71,
      "time": 131.471,
      "duration": 0.529,
      "velocity": 0.83,
      "hand": "right"
    },
    {
      "midi": 35,
      "time": 131.824,
      "duration": 0.176,
      "velocity": 0.58,
      "hand": "left"
    },
    {
      "midi": 42,
      "time": 131.824,
      "duration": 0.176,
      "velocity": 0.51,
      "hand": "left"
    },
    {
      "midi": 42,
      "time": 132,
      "duration": 0.176,
      "velocity": 0.43,
      "hand": "left"
    },
    {
      "midi": 43,
      "time": 132,
      "duration": 0.176,
      "velocity": 0.86,
      "hand": "left"
    },
    {
      "midi": 50,
      "time": 132,
      "duration": 0.176,
      "velocity": 0.86,
      "hand": "left"
    },
    {
      "midi": 55,
      "time": 132,
      "duration": 0.176,
      "velocity": 0.79,
      "hand": "left"
    },
    {
      "midi": 62,
      "time": 132,
      "duration": 0.176,
      "velocity": 0.79,
      "hand": "right"
    },
    {
      "midi": 67,
      "time": 132,
      "duration": 0.176,
      "velocity": 0.83,
      "hand": "right"
    },
    {
      "midi": 35,
      "time": 132.176,
      "duration": 0.176,
      "velocity": 0.73,
      "hand": "left"
    },
    {
      "midi": 42,
      "time": 132.176,
      "duration": 0.176,
      "velocity": 0.65,
      "hand": "left"
    },
    {
      "midi": 45,
      "time": 132.176,
      "duration": 0.529,
      "velocity": 0.86,
      "hand": "left"
    },
    {
      "midi": 50,
      "time": 132.176,
      "duration": 0.529,
      "velocity": 0.86,
      "hand": "left"
    },
    {
      "midi": 57,
      "time": 132.176,
      "duration": 0.529,
      "velocity": 0.79,
      "hand": "left"
    },
    {
      "midi": 62,
      "time": 132.176,
      "duration": 0.529,
      "velocity": 0.79,
      "hand": "right"
    },
    {
      "midi": 66,
      "time": 132.176,
      "duration": 0.529,
      "velocity": 0.83,
      "hand": "right"
    },
    {
      "midi": 69,
      "time": 132.176,
      "duration": 0.529,
      "velocity": 0.83,
      "hand": "right"
    },
    {
      "midi": 42,
      "time": 132.529,
      "duration": 0.176,
      "velocity": 0.51,
      "hand": "left"
    },
    {
      "midi": 42,
      "time": 132.706,
      "duration": 0.176,
      "velocity": 0.43,
      "hand": "left"
    },
    {
      "midi": 33,
      "time": 132.882,
      "duration": 0.353,
      "velocity": 0.86,
      "hand": "left"
    },
    {
      "midi": 38,
      "time": 132.882,
      "duration": 0.176,
      "velocity": 0.73,
      "hand": "left"
    },
    {
      "midi": 42,
      "time": 132.882,
      "duration": 0.176,
      "velocity": 0.58,
      "hand": "left"
    },
    {
      "midi": 45,
      "time": 132.882,
      "duration": 0.353,
      "velocity": 0.79,
      "hand": "left"
    },
    {
      "midi": 57,
      "time": 132.882,
      "duration": 0.353,
      "velocity": 0.79,
      "hand": "left"
    },
    {
      "midi": 62,
      "time": 132.882,
      "duration": 0.353,
      "velocity": 0.83,
      "hand": "right"
    },
    {
      "midi": 66,
      "time": 132.882,
      "duration": 0.353,
      "velocity": 0.83,
      "hand": "right"
    },
    {
      "midi": 42,
      "time": 133.235,
      "duration": 0.176,
      "velocity": 0.51,
      "hand": "left"
    },
    {
      "midi": 35,
      "time": 133.412,
      "duration": 0.176,
      "velocity": 0.86,
      "hand": "left"
    },
    {
      "midi": 42,
      "time": 133.412,
      "duration": 0.176,
      "velocity": 0.86,
      "hand": "left"
    },
    {
      "midi": 47,
      "time": 133.412,
      "duration": 0.176,
      "velocity": 0.79,
      "hand": "left"
    },
    {
      "midi": 54,
      "time": 133.412,
      "duration": 0.176,
      "velocity": 0.79,
      "hand": "left"
    },
    {
      "midi": 62,
      "time": 133.412,
      "duration": 0.176,
      "velocity": 0.83,
      "hand": "right"
    },
    {
      "midi": 33,
      "time": 133.588,
      "duration": 0.529,
      "velocity": 0.86,
      "hand": "left"
    },
    {
      "midi": 35,
      "time": 133.588,
      "duration": 0.176,
      "velocity": 0.73,
      "hand": "left"
    },
    {
      "midi": 42,
      "time": 133.588,
      "duration": 0.176,
      "velocity": 0.65,
      "hand": "left"
    },
    {
      "midi": 45,
      "time": 133.588,
      "duration": 0.529,
      "velocity": 0.79,
      "hand": "left"
    },
    {
      "midi": 57,
      "time": 133.588,
      "duration": 0.529,
      "velocity": 0.79,
      "hand": "left"
    },
    {
      "midi": 62,
      "time": 133.588,
      "duration": 0.529,
      "velocity": 0.83,
      "hand": "right"
    },
    {
      "midi": 64,
      "time": 133.588,
      "duration": 0.529,
      "velocity": 0.83,
      "hand": "right"
    },
    {
      "midi": 42,
      "time": 133.941,
      "duration": 0.176,
      "velocity": 0.51,
      "hand": "left"
    },
    {
      "midi": 46,
      "time": 134.118,
      "duration": 0.176,
      "velocity": 0.58,
      "hand": "left"
    },
    {
      "midi": 33,
      "time": 134.294,
      "duration": 0.353,
      "velocity": 0.86,
      "hand": "left"
    },
    {
      "midi": 38,
      "time": 134.294,
      "duration": 0.176,
      "velocity": 0.73,
      "hand": "left"
    },
    {
      "midi": 42,
      "time": 134.294,
      "duration": 0.176,
      "velocity": 0.58,
      "hand": "left"
    },
    {
      "midi": 45,
      "time": 134.294,
      "duration": 0.353,
      "velocity": 0.79,
      "hand": "left"
    },
    {
      "midi": 57,
      "time": 134.294,
      "duration": 0.353,
      "velocity": 0.79,
      "hand": "left"
    },
    {
      "midi": 61,
      "time": 134.294,
      "duration": 0.353,
      "velocity": 0.83,
      "hand": "right"
    },
    {
      "midi": 66,
      "time": 134.294,
      "duration": 0.353,
      "velocity": 0.83,
      "hand": "right"
    },
    {
      "midi": 35,
      "time": 134.647,
      "duration": 0.176,
      "velocity": 0.58,
      "hand": "left"
    },
    {
      "midi": 42,
      "time": 134.647,
      "duration": 0.176,
      "velocity": 0.51,
      "hand": "left"
    },
    {
      "midi": 33,
      "time": 134.824,
      "duration": 0.176,
      "velocity": 0.86,
      "hand": "left"
    },
    {
      "midi": 42,
      "time": 134.824,
      "duration": 0.176,
      "velocity": 0.43,
      "hand": "left"
    },
    {
      "midi": 43,
      "time": 134.824,
      "duration": 0.176,
      "velocity": 0.86,
      "hand": "left"
    },
    {
      "midi": 45,
      "time": 134.824,
      "duration": 0.176,
      "velocity": 0.79,
      "hand": "left"
    },
    {
      "midi": 55,
      "time": 134.824,
      "duration": 0.176,
      "velocity": 0.79,
      "hand": "left"
    },
    {
      "midi": 61,
      "time": 134.824,
      "duration": 0.176,
      "velocity": 0.83,
      "hand": "right"
    },
    {
      "midi": 64,
      "time": 134.824,
      "duration": 0.176,
      "velocity": 0.83,
      "hand": "right"
    },
    {
      "midi": 35,
      "time": 135,
      "duration": 0.176,
      "velocity": 0.73,
      "hand": "left"
    },
    {
      "midi": 38,
      "time": 135,
      "duration": 1.588,
      "velocity": 0.86,
      "hand": "left"
    },
    {
      "midi": 42,
      "time": 135,
      "duration": 0.176,
      "velocity": 0.65,
      "hand": "left"
    },
    {
      "midi": 50,
      "time": 135,
      "duration": 1.588,
      "velocity": 0.79,
      "hand": "left"
    },
    {
      "midi": 62,
      "time": 135,
      "duration": 1.588,
      "velocity": 0.83,
      "hand": "right"
    },
    {
      "midi": 62,
      "time": 135,
      "duration": 2.294,
      "velocity": 0.86,
      "hand": "right"
    },
    {
      "midi": 42,
      "time": 135.353,
      "duration": 0.176,
      "velocity": 0.51,
      "hand": "left"
    },
    {
      "midi": 37,
      "time": 135.706,
      "duration": 0.176,
      "velocity": 0.73,
      "hand": "left"
    },
    {
      "midi": 42,
      "time": 135.706,
      "duration": 0.176,
      "velocity": 0.58,
      "hand": "left"
    },
    {
      "midi": 43,
      "time": 135.706,
      "duration": 0.529,
      "velocity": 0.86,
      "hand": "left"
    },
    {
      "midi": 55,
      "time": 135.706,
      "duration": 0.529,
      "velocity": 0.79,
      "hand": "left"
    },
    {
      "midi": 59,
      "time": 135.706,
      "duration": 0.529,
      "velocity": 0.83,
      "hand": "left"
    },
    {
      "midi": 35,
      "time": 136.059,
      "duration": 0.176,
      "velocity": 0.58,
      "hand": "left"
    },
    {
      "midi": 42,
      "time": 136.059,
      "duration": 0.176,
      "velocity": 0.51,
      "hand": "left"
    },
    {
      "midi": 35,
      "time": 136.412,
      "duration": 0.176,
      "velocity": 0.73,
      "hand": "left"
    },
    {
      "midi": 38,
      "time": 136.412,
      "duration": 0.529,
      "velocity": 0.86,
      "hand": "left"
    },
    {
      "midi": 42,
      "time": 136.412,
      "duration": 0.529,
      "velocity": 0.86,
      "hand": "left"
    },
    {
      "midi": 42,
      "time": 136.412,
      "duration": 0.176,
      "velocity": 0.65,
      "hand": "left"
    },
    {
      "midi": 50,
      "time": 136.412,
      "duration": 0.529,
      "velocity": 0.79,
      "hand": "left"
    },
    {
      "midi": 54,
      "time": 136.412,
      "duration": 0.529,
      "velocity": 0.79,
      "hand": "left"
    },
    {
      "midi": 57,
      "time": 136.412,
      "duration": 0.529,
      "velocity": 0.83,
      "hand": "left"
    },
    {
      "midi": 62,
      "time": 136.412,
      "duration": 0.529,
      "velocity": 0.83,
      "hand": "right"
    },
    {
      "midi": 38,
      "time": 136.765,
      "duration": 0.176,
      "velocity": 0.73,
      "hand": "left"
    },
    {
      "midi": 42,
      "time": 136.765,
      "duration": 0.176,
      "velocity": 0.51,
      "hand": "left"
    },
    {
      "midi": 38,
      "time": 136.941,
      "duration": 0.176,
      "velocity": 0.58,
      "hand": "left"
    },
    {
      "midi": 38,
      "time": 137.118,
      "duration": 0.176,
      "velocity": 0.83,
      "hand": "left"
    },
    {
      "midi": 42,
      "time": 137.118,
      "duration": 0.176,
      "velocity": 0.58,
      "hand": "left"
    },
    {
      "midi": 35,
      "time": 137.471,
      "duration": 0.176,
      "velocity": 0.58,
      "hand": "left"
    },
    {
      "midi": 46,
      "time": 137.471,
      "duration": 0.176,
      "velocity": 0.65,
      "hand": "left"
    },
    {
      "midi": 35,
      "time": 137.824,
      "duration": 0.176,
      "velocity": 0.73,
      "hand": "left"
    },
    {
      "midi": 38,
      "time": 137.824,
      "duration": 0.529,
      "velocity": 0.86,
      "hand": "left"
    },
    {
      "midi": 42,
      "time": 137.824,
      "duration": 0.176,
      "velocity": 0.65,
      "hand": "left"
    },
    {
      "midi": 45,
      "time": 137.824,
      "duration": 0.529,
      "velocity": 0.86,
      "hand": "left"
    },
    {
      "midi": 49,
      "time": 137.824,
      "duration": 0.176,
      "velocity": 0.65,
      "hand": "left"
    },
    {
      "midi": 50,
      "time": 137.824,
      "duration": 0.529,
      "velocity": 0.79,
      "hand": "left"
    },
    {
      "midi": 57,
      "time": 137.824,
      "duration": 0.529,
      "velocity": 0.79,
      "hand": "left"
    },
    {
      "midi": 62,
      "time": 137.824,
      "duration": 0.529,
      "velocity": 0.83,
      "hand": "right"
    },
    {
      "midi": 66,
      "time": 137.824,
      "duration": 0.529,
      "velocity": 0.83,
      "hand": "right"
    },
    {
      "midi": 42,
      "time": 138.176,
      "duration": 0.176,
      "velocity": 0.51,
      "hand": "left"
    },
    {
      "midi": 37,
      "time": 138.529,
      "duration": 0.176,
      "velocity": 0.73,
      "hand": "left"
    },
    {
      "midi": 38,
      "time": 138.529,
      "duration": 0.353,
      "velocity": 0.86,
      "hand": "left"
    },
    {
      "midi": 42,
      "time": 138.529,
      "duration": 0.176,
      "velocity": 0.58,
      "hand": "left"
    },
    {
      "midi": 45,
      "time": 138.529,
      "duration": 0.353,
      "velocity": 0.86,
      "hand": "left"
    },
    {
      "midi": 50,
      "time": 138.529,
      "duration": 0.353,
      "velocity": 0.79,
      "hand": "left"
    },
    {
      "midi": 57,
      "time": 138.529,
      "duration": 0.353,
      "velocity": 0.79,
      "hand": "left"
    },
    {
      "midi": 62,
      "time": 138.529,
      "duration": 0.353,
      "velocity": 0.83,
      "hand": "right"
    },
    {
      "midi": 66,
      "time": 138.529,
      "duration": 0.353,
      "velocity": 0.83,
      "hand": "right"
    },
    {
      "midi": 35,
      "time": 138.882,
      "duration": 0.176,
      "velocity": 0.58,
      "hand": "left"
    },
    {
      "midi": 42,
      "time": 138.882,
      "duration": 0.176,
      "velocity": 0.51,
      "hand": "left"
    },
    {
      "midi": 38,
      "time": 139.059,
      "duration": 0.176,
      "velocity": 0.86,
      "hand": "left"
    },
    {
      "midi": 44,
      "time": 139.059,
      "duration": 0.176,
      "velocity": 0.86,
      "hand": "left"
    },
    {
      "midi": 50,
      "time": 139.059,
      "duration": 0.176,
      "velocity": 0.79,
      "hand": "left"
    },
    {
      "midi": 56,
      "time": 139.059,
      "duration": 0.176,
      "velocity": 0.79,
      "hand": "left"
    },
    {
      "midi": 62,
      "time": 139.059,
      "duration": 0.176,
      "velocity": 0.83,
      "hand": "right"
    },
    {
      "midi": 65,
      "time": 139.059,
      "duration": 0.176,
      "velocity": 0.83,
      "hand": "right"
    },
    {
      "midi": 35,
      "time": 139.235,
      "duration": 0.176,
      "velocity": 0.73,
      "hand": "left"
    },
    {
      "midi": 38,
      "time": 139.235,
      "duration": 0.529,
      "velocity": 0.86,
      "hand": "left"
    },
    {
      "midi": 42,
      "time": 139.235,
      "duration": 0.176,
      "velocity": 0.65,
      "hand": "left"
    },
    {
      "midi": 45,
      "time": 139.235,
      "duration": 0.529,
      "velocity": 0.86,
      "hand": "left"
    },
    {
      "midi": 50,
      "time": 139.235,
      "duration": 0.529,
      "velocity": 0.79,
      "hand": "left"
    },
    {
      "midi": 57,
      "time": 139.235,
      "duration": 0.529,
      "velocity": 0.79,
      "hand": "left"
    },
    {
      "midi": 62,
      "time": 139.235,
      "duration": 0.529,
      "velocity": 0.83,
      "hand": "right"
    },
    {
      "midi": 66,
      "time": 139.235,
      "duration": 0.529,
      "velocity": 0.83,
      "hand": "right"
    },
    {
      "midi": 42,
      "time": 139.588,
      "duration": 0.176,
      "velocity": 0.51,
      "hand": "left"
    },
    {
      "midi": 37,
      "time": 139.941,
      "duration": 0.176,
      "velocity": 0.73,
      "hand": "left"
    },
    {
      "midi": 38,
      "time": 139.941,
      "duration": 0.353,
      "velocity": 0.86,
      "hand": "left"
    },
    {
      "midi": 42,
      "time": 139.941,
      "duration": 0.176,
      "velocity": 0.58,
      "hand": "left"
    },
    {
      "midi": 45,
      "time": 139.941,
      "duration": 0.353,
      "velocity": 0.86,
      "hand": "left"
    },
    {
      "midi": 50,
      "time": 139.941,
      "duration": 0.353,
      "velocity": 0.79,
      "hand": "left"
    },
    {
      "midi": 57,
      "time": 139.941,
      "duration": 0.353,
      "velocity": 0.79,
      "hand": "left"
    },
    {
      "midi": 62,
      "time": 139.941,
      "duration": 0.353,
      "velocity": 0.83,
      "hand": "right"
    },
    {
      "midi": 66,
      "time": 139.941,
      "duration": 0.353,
      "velocity": 0.83,
      "hand": "right"
    },
    {
      "midi": 35,
      "time": 140.294,
      "duration": 0.176,
      "velocity": 0.58,
      "hand": "left"
    },
    {
      "midi": 42,
      "time": 140.294,
      "duration": 0.176,
      "velocity": 0.51,
      "hand": "left"
    },
    {
      "midi": 38,
      "time": 140.471,
      "duration": 0.176,
      "velocity": 0.86,
      "hand": "left"
    },
    {
      "midi": 45,
      "time": 140.471,
      "duration": 0.176,
      "velocity": 0.86,
      "hand": "left"
    },
    {
      "midi": 50,
      "time": 140.471,
      "duration": 0.176,
      "velocity": 0.79,
      "hand": "left"
    },
    {
      "midi": 57,
      "time": 140.471,
      "duration": 0.176,
      "velocity": 0.79,
      "hand": "left"
    },
    {
      "midi": 64,
      "time": 140.471,
      "duration": 0.176,
      "velocity": 0.83,
      "hand": "right"
    },
    {
      "midi": 67,
      "time": 140.471,
      "duration": 0.176,
      "velocity": 0.83,
      "hand": "right"
    },
    {
      "midi": 35,
      "time": 140.647,
      "duration": 0.176,
      "velocity": 0.73,
      "hand": "left"
    },
    {
      "midi": 38,
      "time": 140.647,
      "duration": 0.882,
      "velocity": 0.86,
      "hand": "left"
    },
    {
      "midi": 42,
      "time": 140.647,
      "duration": 0.176,
      "velocity": 0.65,
      "hand": "left"
    },
    {
      "midi": 50,
      "time": 140.647,
      "duration": 0.882,
      "velocity": 0.79,
      "hand": "left"
    },
    {
      "midi": 62,
      "time": 140.647,
      "duration": 0.882,
      "velocity": 0.79,
      "hand": "right"
    },
    {
      "midi": 66,
      "time": 140.647,
      "duration": 0.882,
      "velocity": 0.83,
      "hand": "right"
    },
    {
      "midi": 69,
      "time": 140.647,
      "duration": 0.882,
      "velocity": 0.83,
      "hand": "right"
    },
    {
      "midi": 42,
      "time": 141,
      "duration": 0.176,
      "velocity": 0.51,
      "hand": "left"
    },
    {
      "midi": 37,
      "time": 141.353,
      "duration": 0.176,
      "velocity": 0.73,
      "hand": "left"
    },
    {
      "midi": 42,
      "time": 141.353,
      "duration": 0.176,
      "velocity": 0.58,
      "hand": "left"
    },
    {
      "midi": 35,
      "time": 141.706,
      "duration": 0.176,
      "velocity": 0.58,
      "hand": "left"
    },
    {
      "midi": 42,
      "time": 141.706,
      "duration": 0.176,
      "velocity": 0.51,
      "hand": "left"
    },
    {
      "midi": 35,
      "time": 142.059,
      "duration": 0.176,
      "velocity": 0.73,
      "hand": "left"
    },
    {
      "midi": 38,
      "time": 142.059,
      "duration": 0.529,
      "velocity": 0.86,
      "hand": "left"
    },
    {
      "midi": 42,
      "time": 142.059,
      "duration": 0.176,
      "velocity": 0.65,
      "hand": "left"
    },
    {
      "midi": 50,
      "time": 142.059,
      "duration": 0.529,
      "velocity": 0.79,
      "hand": "left"
    },
    {
      "midi": 62,
      "time": 142.059,
      "duration": 0.529,
      "velocity": 0.79,
      "hand": "right"
    },
    {
      "midi": 66,
      "time": 142.059,
      "duration": 0.529,
      "velocity": 0.83,
      "hand": "right"
    },
    {
      "midi": 69,
      "time": 142.059,
      "duration": 0.529,
      "velocity": 0.83,
      "hand": "right"
    },
    {
      "midi": 35,
      "time": 142.412,
      "duration": 0.176,
      "velocity": 0.58,
      "hand": "left"
    },
    {
      "midi": 42,
      "time": 142.412,
      "duration": 0.176,
      "velocity": 0.51,
      "hand": "left"
    },
    {
      "midi": 37,
      "time": 142.765,
      "duration": 0.176,
      "velocity": 0.73,
      "hand": "left"
    },
    {
      "midi": 38,
      "time": 142.765,
      "duration": 0.353,
      "velocity": 0.86,
      "hand": "left"
    },
    {
      "midi": 42,
      "time": 142.765,
      "duration": 0.176,
      "velocity": 0.58,
      "hand": "left"
    },
    {
      "midi": 50,
      "time": 142.765,
      "duration": 0.353,
      "velocity": 0.79,
      "hand": "left"
    },
    {
      "midi": 62,
      "time": 142.765,
      "duration": 0.353,
      "velocity": 0.79,
      "hand": "right"
    },
    {
      "midi": 66,
      "time": 142.765,
      "duration": 0.353,
      "velocity": 0.83,
      "hand": "right"
    },
    {
      "midi": 69,
      "time": 142.765,
      "duration": 0.353,
      "velocity": 0.83,
      "hand": "right"
    },
    {
      "midi": 35,
      "time": 143.118,
      "duration": 0.176,
      "velocity": 0.58,
      "hand": "left"
    },
    {
      "midi": 42,
      "time": 143.118,
      "duration": 0.176,
      "velocity": 0.51,
      "hand": "left"
    },
    {
      "midi": 38,
      "time": 143.294,
      "duration": 0.176,
      "velocity": 0.86,
      "hand": "left"
    },
    {
      "midi": 42,
      "time": 143.294,
      "duration": 0.176,
      "velocity": 0.43,
      "hand": "left"
    },
    {
      "midi": 45,
      "time": 143.294,
      "duration": 0.176,
      "velocity": 0.86,
      "hand": "left"
    },
    {
      "midi": 50,
      "time": 143.294,
      "duration": 0.176,
      "velocity": 0.79,
      "hand": "left"
    },
    {
      "midi": 57,
      "time": 143.294,
      "duration": 0.176,
      "velocity": 0.79,
      "hand": "left"
    },
    {
      "midi": 62,
      "time": 143.294,
      "duration": 0.176,
      "velocity": 0.83,
      "hand": "right"
    },
    {
      "midi": 66,
      "time": 143.294,
      "duration": 0.176,
      "velocity": 0.83,
      "hand": "right"
    },
    {
      "midi": 33,
      "time": 143.471,
      "duration": 0.529,
      "velocity": 0.86,
      "hand": "left"
    },
    {
      "midi": 35,
      "time": 143.471,
      "duration": 0.176,
      "velocity": 0.73,
      "hand": "left"
    },
    {
      "midi": 42,
      "time": 143.471,
      "duration": 0.176,
      "velocity": 0.65,
      "hand": "left"
    },
    {
      "midi": 45,
      "time": 143.471,
      "duration": 0.529,
      "velocity": 0.79,
      "hand": "left"
    },
    {
      "midi": 57,
      "time": 143.471,
      "duration": 0.529,
      "velocity": 0.79,
      "hand": "left"
    },
    {
      "midi": 61,
      "time": 143.471,
      "duration": 0.529,
      "velocity": 0.83,
      "hand": "right"
    },
    {
      "midi": 64,
      "time": 143.471,
      "duration": 0.529,
      "velocity": 0.83,
      "hand": "right"
    },
    {
      "midi": 42,
      "time": 143.824,
      "duration": 0.176,
      "velocity": 0.51,
      "hand": "left"
    },
    {
      "midi": 33,
      "time": 144.176,
      "duration": 0.529,
      "velocity": 0.86,
      "hand": "left"
    },
    {
      "midi": 37,
      "time": 144.176,
      "duration": 0.176,
      "velocity": 0.73,
      "hand": "left"
    },
    {
      "midi": 42,
      "time": 144.176,
      "duration": 0.176,
      "velocity": 0.58,
      "hand": "left"
    },
    {
      "midi": 45,
      "time": 144.176,
      "duration": 0.529,
      "velocity": 0.79,
      "hand": "left"
    },
    {
      "midi": 57,
      "time": 144.176,
      "duration": 0.529,
      "velocity": 0.79,
      "hand": "left"
    },
    {
      "midi": 61,
      "time": 144.176,
      "duration": 0.529,
      "velocity": 0.83,
      "hand": "right"
    },
    {
      "midi": 64,
      "time": 144.176,
      "duration": 0.529,
      "velocity": 0.83,
      "hand": "right"
    },
    {
      "midi": 35,
      "time": 144.529,
      "duration": 0.176,
      "velocity": 0.58,
      "hand": "left"
    },
    {
      "midi": 42,
      "time": 144.529,
      "duration": 0.176,
      "velocity": 0.51,
      "hand": "left"
    },
    {
      "midi": 35,
      "time": 144.882,
      "duration": 0.176,
      "velocity": 0.73,
      "hand": "left"
    },
    {
      "midi": 38,
      "time": 144.882,
      "duration": 0.529,
      "velocity": 0.86,
      "hand": "left"
    },
    {
      "midi": 42,
      "time": 144.882,
      "duration": 0.176,
      "velocity": 0.65,
      "hand": "left"
    },
    {
      "midi": 45,
      "time": 144.882,
      "duration": 0.529,
      "velocity": 0.86,
      "hand": "left"
    },
    {
      "midi": 50,
      "time": 144.882,
      "duration": 0.529,
      "velocity": 0.79,
      "hand": "left"
    },
    {
      "midi": 57,
      "time": 144.882,
      "duration": 0.529,
      "velocity": 0.79,
      "hand": "left"
    },
    {
      "midi": 62,
      "time": 144.882,
      "duration": 0.529,
      "velocity": 0.83,
      "hand": "right"
    },
    {
      "midi": 66,
      "time": 144.882,
      "duration": 0.529,
      "velocity": 0.83,
      "hand": "right"
    },
    {
      "midi": 42,
      "time": 145.235,
      "duration": 0.176,
      "velocity": 0.51,
      "hand": "left"
    },
    {
      "midi": 37,
      "time": 145.588,
      "duration": 0.176,
      "velocity": 0.73,
      "hand": "left"
    },
    {
      "midi": 38,
      "time": 145.588,
      "duration": 0.353,
      "velocity": 0.86,
      "hand": "left"
    },
    {
      "midi": 42,
      "time": 145.588,
      "duration": 0.176,
      "velocity": 0.58,
      "hand": "left"
    },
    {
      "midi": 45,
      "time": 145.588,
      "duration": 0.353,
      "velocity": 0.86,
      "hand": "left"
    },
    {
      "midi": 50,
      "time": 145.588,
      "duration": 0.353,
      "velocity": 0.79,
      "hand": "left"
    },
    {
      "midi": 57,
      "time": 145.588,
      "duration": 0.353,
      "velocity": 0.79,
      "hand": "left"
    },
    {
      "midi": 64,
      "time": 145.588,
      "duration": 0.353,
      "velocity": 0.83,
      "hand": "right"
    },
    {
      "midi": 67,
      "time": 145.588,
      "duration": 0.353,
      "velocity": 0.83,
      "hand": "right"
    },
    {
      "midi": 35,
      "time": 145.941,
      "duration": 0.176,
      "velocity": 0.58,
      "hand": "left"
    },
    {
      "midi": 42,
      "time": 145.941,
      "duration": 0.176,
      "velocity": 0.51,
      "hand": "left"
    },
    {
      "midi": 38,
      "time": 146.118,
      "duration": 0.176,
      "velocity": 0.86,
      "hand": "left"
    },
    {
      "midi": 45,
      "time": 146.118,
      "duration": 0.176,
      "velocity": 0.86,
      "hand": "left"
    },
    {
      "midi": 50,
      "time": 146.118,
      "duration": 0.176,
      "velocity": 0.79,
      "hand": "left"
    },
    {
      "midi": 57,
      "time": 146.118,
      "duration": 0.176,
      "velocity": 0.79,
      "hand": "left"
    },
    {
      "midi": 62,
      "time": 146.118,
      "duration": 0.176,
      "velocity": 0.83,
      "hand": "right"
    },
    {
      "midi": 66,
      "time": 146.118,
      "duration": 0.176,
      "velocity": 0.83,
      "hand": "right"
    },
    {
      "midi": 33,
      "time": 146.294,
      "duration": 1.412,
      "velocity": 0.86,
      "hand": "left"
    },
    {
      "midi": 35,
      "time": 146.294,
      "duration": 0.176,
      "velocity": 0.73,
      "hand": "left"
    },
    {
      "midi": 42,
      "time": 146.294,
      "duration": 0.176,
      "velocity": 0.65,
      "hand": "left"
    },
    {
      "midi": 45,
      "time": 146.294,
      "duration": 1.412,
      "velocity": 0.79,
      "hand": "left"
    },
    {
      "midi": 57,
      "time": 146.294,
      "duration": 1.412,
      "velocity": 0.79,
      "hand": "left"
    },
    {
      "midi": 61,
      "time": 146.294,
      "duration": 1.412,
      "velocity": 0.83,
      "hand": "right"
    },
    {
      "midi": 64,
      "time": 146.294,
      "duration": 1.412,
      "velocity": 0.83,
      "hand": "right"
    },
    {
      "midi": 42,
      "time": 146.647,
      "duration": 0.176,
      "velocity": 0.51,
      "hand": "left"
    },
    {
      "midi": 37,
      "time": 147,
      "duration": 0.176,
      "velocity": 0.73,
      "hand": "left"
    },
    {
      "midi": 42,
      "time": 147,
      "duration": 0.176,
      "velocity": 0.58,
      "hand": "left"
    },
    {
      "midi": 35,
      "time": 147.353,
      "duration": 0.176,
      "velocity": 0.58,
      "hand": "left"
    },
    {
      "midi": 42,
      "time": 147.353,
      "duration": 0.176,
      "velocity": 0.51,
      "hand": "left"
    },
    {
      "midi": 35,
      "time": 147.706,
      "duration": 0.176,
      "velocity": 0.73,
      "hand": "left"
    },
    {
      "midi": 42,
      "time": 147.706,
      "duration": 0.176,
      "velocity": 0.65,
      "hand": "left"
    },
    {
      "midi": 35,
      "time": 148.059,
      "duration": 0.176,
      "velocity": 0.58,
      "hand": "left"
    },
    {
      "midi": 42,
      "time": 148.059,
      "duration": 0.176,
      "velocity": 0.51,
      "hand": "left"
    },
    {
      "midi": 37,
      "time": 148.412,
      "duration": 0.176,
      "velocity": 0.73,
      "hand": "left"
    },
    {
      "midi": 42,
      "time": 148.412,
      "duration": 0.176,
      "velocity": 0.58,
      "hand": "left"
    },
    {
      "midi": 35,
      "time": 148.765,
      "duration": 0.176,
      "velocity": 0.58,
      "hand": "left"
    },
    {
      "midi": 42,
      "time": 148.765,
      "duration": 0.176,
      "velocity": 0.51,
      "hand": "left"
    },
    {
      "midi": 35,
      "time": 149.118,
      "duration": 0.176,
      "velocity": 0.73,
      "hand": "left"
    },
    {
      "midi": 38,
      "time": 149.118,
      "duration": 0.529,
      "velocity": 0.86,
      "hand": "left"
    },
    {
      "midi": 42,
      "time": 149.118,
      "duration": 0.176,
      "velocity": 0.65,
      "hand": "left"
    },
    {
      "midi": 45,
      "time": 149.118,
      "duration": 0.529,
      "velocity": 0.86,
      "hand": "left"
    },
    {
      "midi": 50,
      "time": 149.118,
      "duration": 0.529,
      "velocity": 0.79,
      "hand": "left"
    },
    {
      "midi": 57,
      "time": 149.118,
      "duration": 0.529,
      "velocity": 0.79,
      "hand": "left"
    },
    {
      "midi": 62,
      "time": 149.118,
      "duration": 0.529,
      "velocity": 0.83,
      "hand": "right"
    },
    {
      "midi": 66,
      "time": 149.118,
      "duration": 0.529,
      "velocity": 0.83,
      "hand": "right"
    },
    {
      "midi": 42,
      "time": 149.471,
      "duration": 0.176,
      "velocity": 0.51,
      "hand": "left"
    },
    {
      "midi": 37,
      "time": 149.824,
      "duration": 0.176,
      "velocity": 0.73,
      "hand": "left"
    },
    {
      "midi": 38,
      "time": 149.824,
      "duration": 0.353,
      "velocity": 0.86,
      "hand": "left"
    },
    {
      "midi": 42,
      "time": 149.824,
      "duration": 0.176,
      "velocity": 0.58,
      "hand": "left"
    },
    {
      "midi": 45,
      "time": 149.824,
      "duration": 0.353,
      "velocity": 0.86,
      "hand": "left"
    },
    {
      "midi": 50,
      "time": 149.824,
      "duration": 0.353,
      "velocity": 0.79,
      "hand": "left"
    },
    {
      "midi": 57,
      "time": 149.824,
      "duration": 0.353,
      "velocity": 0.79,
      "hand": "left"
    },
    {
      "midi": 62,
      "time": 149.824,
      "duration": 0.353,
      "velocity": 0.83,
      "hand": "right"
    },
    {
      "midi": 66,
      "time": 149.824,
      "duration": 0.353,
      "velocity": 0.83,
      "hand": "right"
    },
    {
      "midi": 35,
      "time": 150.176,
      "duration": 0.176,
      "velocity": 0.58,
      "hand": "left"
    },
    {
      "midi": 42,
      "time": 150.176,
      "duration": 0.176,
      "velocity": 0.51,
      "hand": "left"
    },
    {
      "midi": 38,
      "time": 150.353,
      "duration": 0.176,
      "velocity": 0.86,
      "hand": "left"
    },
    {
      "midi": 44,
      "time": 150.353,
      "duration": 0.176,
      "velocity": 0.86,
      "hand": "left"
    },
    {
      "midi": 50,
      "time": 150.353,
      "duration": 0.176,
      "velocity": 0.79,
      "hand": "left"
    },
    {
      "midi": 56,
      "time": 150.353,
      "duration": 0.176,
      "velocity": 0.79,
      "hand": "left"
    },
    {
      "midi": 62,
      "time": 150.353,
      "duration": 0.176,
      "velocity": 0.83,
      "hand": "right"
    },
    {
      "midi": 65,
      "time": 150.353,
      "duration": 0.176,
      "velocity": 0.83,
      "hand": "right"
    },
    {
      "midi": 35,
      "time": 150.529,
      "duration": 0.176,
      "velocity": 0.73,
      "hand": "left"
    },
    {
      "midi": 38,
      "time": 150.529,
      "duration": 0.529,
      "velocity": 0.86,
      "hand": "left"
    },
    {
      "midi": 42,
      "time": 150.529,
      "duration": 0.176,
      "velocity": 0.65,
      "hand": "left"
    },
    {
      "midi": 45,
      "time": 150.529,
      "duration": 0.529,
      "velocity": 0.86,
      "hand": "left"
    },
    {
      "midi": 50,
      "time": 150.529,
      "duration": 0.529,
      "velocity": 0.79,
      "hand": "left"
    },
    {
      "midi": 57,
      "time": 150.529,
      "duration": 0.529,
      "velocity": 0.79,
      "hand": "left"
    },
    {
      "midi": 62,
      "time": 150.529,
      "duration": 0.529,
      "velocity": 0.83,
      "hand": "right"
    },
    {
      "midi": 66,
      "time": 150.529,
      "duration": 0.529,
      "velocity": 0.83,
      "hand": "right"
    },
    {
      "midi": 42,
      "time": 150.882,
      "duration": 0.176,
      "velocity": 0.51,
      "hand": "left"
    },
    {
      "midi": 37,
      "time": 151.235,
      "duration": 0.176,
      "velocity": 0.73,
      "hand": "left"
    },
    {
      "midi": 38,
      "time": 151.235,
      "duration": 0.353,
      "velocity": 0.86,
      "hand": "left"
    },
    {
      "midi": 42,
      "time": 151.235,
      "duration": 0.176,
      "velocity": 0.58,
      "hand": "left"
    },
    {
      "midi": 45,
      "time": 151.235,
      "duration": 0.353,
      "velocity": 0.86,
      "hand": "left"
    },
    {
      "midi": 50,
      "time": 151.235,
      "duration": 0.353,
      "velocity": 0.79,
      "hand": "left"
    },
    {
      "midi": 57,
      "time": 151.235,
      "duration": 0.353,
      "velocity": 0.79,
      "hand": "left"
    },
    {
      "midi": 62,
      "time": 151.235,
      "duration": 0.353,
      "velocity": 0.83,
      "hand": "right"
    },
    {
      "midi": 66,
      "time": 151.235,
      "duration": 0.353,
      "velocity": 0.83,
      "hand": "right"
    },
    {
      "midi": 35,
      "time": 151.588,
      "duration": 0.176,
      "velocity": 0.58,
      "hand": "left"
    },
    {
      "midi": 42,
      "time": 151.588,
      "duration": 0.176,
      "velocity": 0.51,
      "hand": "left"
    },
    {
      "midi": 38,
      "time": 151.765,
      "duration": 0.176,
      "velocity": 0.86,
      "hand": "left"
    },
    {
      "midi": 45,
      "time": 151.765,
      "duration": 0.176,
      "velocity": 0.86,
      "hand": "left"
    },
    {
      "midi": 50,
      "time": 151.765,
      "duration": 0.176,
      "velocity": 0.79,
      "hand": "left"
    },
    {
      "midi": 57,
      "time": 151.765,
      "duration": 0.176,
      "velocity": 0.79,
      "hand": "left"
    },
    {
      "midi": 64,
      "time": 151.765,
      "duration": 0.176,
      "velocity": 0.83,
      "hand": "right"
    },
    {
      "midi": 67,
      "time": 151.765,
      "duration": 0.176,
      "velocity": 0.83,
      "hand": "right"
    },
    {
      "midi": 35,
      "time": 151.941,
      "duration": 0.176,
      "velocity": 0.73,
      "hand": "left"
    },
    {
      "midi": 38,
      "time": 151.941,
      "duration": 0.882,
      "velocity": 0.86,
      "hand": "left"
    },
    {
      "midi": 42,
      "time": 151.941,
      "duration": 0.176,
      "velocity": 0.65,
      "hand": "left"
    },
    {
      "midi": 50,
      "time": 151.941,
      "duration": 0.882,
      "velocity": 0.79,
      "hand": "left"
    },
    {
      "midi": 62,
      "time": 151.941,
      "duration": 0.882,
      "velocity": 0.79,
      "hand": "right"
    },
    {
      "midi": 66,
      "time": 151.941,
      "duration": 0.882,
      "velocity": 0.83,
      "hand": "right"
    },
    {
      "midi": 69,
      "time": 151.941,
      "duration": 0.882,
      "velocity": 0.83,
      "hand": "right"
    },
    {
      "midi": 42,
      "time": 152.294,
      "duration": 0.176,
      "velocity": 0.51,
      "hand": "left"
    },
    {
      "midi": 37,
      "time": 152.647,
      "duration": 0.176,
      "velocity": 0.73,
      "hand": "left"
    },
    {
      "midi": 42,
      "time": 152.647,
      "duration": 0.176,
      "velocity": 0.58,
      "hand": "left"
    },
    {
      "midi": 35,
      "time": 153,
      "duration": 0.176,
      "velocity": 0.58,
      "hand": "left"
    },
    {
      "midi": 42,
      "time": 153,
      "duration": 0.176,
      "velocity": 0.51,
      "hand": "left"
    },
    {
      "midi": 35,
      "time": 153.353,
      "duration": 0.176,
      "velocity": 0.73,
      "hand": "left"
    },
    {
      "midi": 38,
      "time": 153.353,
      "duration": 0.529,
      "velocity": 0.86,
      "hand": "left"
    },
    {
      "midi": 42,
      "time": 153.353,
      "duration": 0.176,
      "velocity": 0.65,
      "hand": "left"
    },
    {
      "midi": 50,
      "time": 153.353,
      "duration": 0.529,
      "velocity": 0.79,
      "hand": "left"
    },
    {
      "midi": 62,
      "time": 153.353,
      "duration": 0.529,
      "velocity": 0.79,
      "hand": "right"
    },
    {
      "midi": 66,
      "time": 153.353,
      "duration": 0.529,
      "velocity": 0.83,
      "hand": "right"
    },
    {
      "midi": 69,
      "time": 153.353,
      "duration": 0.529,
      "velocity": 0.83,
      "hand": "right"
    },
    {
      "midi": 35,
      "time": 153.706,
      "duration": 0.176,
      "velocity": 0.58,
      "hand": "left"
    },
    {
      "midi": 42,
      "time": 153.706,
      "duration": 0.176,
      "velocity": 0.51,
      "hand": "left"
    },
    {
      "midi": 37,
      "time": 154.059,
      "duration": 0.176,
      "velocity": 0.73,
      "hand": "left"
    },
    {
      "midi": 38,
      "time": 154.059,
      "duration": 0.353,
      "velocity": 0.86,
      "hand": "left"
    },
    {
      "midi": 42,
      "time": 154.059,
      "duration": 0.176,
      "velocity": 0.58,
      "hand": "left"
    },
    {
      "midi": 50,
      "time": 154.059,
      "duration": 0.353,
      "velocity": 0.79,
      "hand": "left"
    },
    {
      "midi": 62,
      "time": 154.059,
      "duration": 0.353,
      "velocity": 0.79,
      "hand": "right"
    },
    {
      "midi": 66,
      "time": 154.059,
      "duration": 0.353,
      "velocity": 0.83,
      "hand": "right"
    },
    {
      "midi": 69,
      "time": 154.059,
      "duration": 0.353,
      "velocity": 0.83,
      "hand": "right"
    },
    {
      "midi": 35,
      "time": 154.412,
      "duration": 0.176,
      "velocity": 0.58,
      "hand": "left"
    },
    {
      "midi": 42,
      "time": 154.412,
      "duration": 0.176,
      "velocity": 0.51,
      "hand": "left"
    },
    {
      "midi": 38,
      "time": 154.588,
      "duration": 0.176,
      "velocity": 0.86,
      "hand": "left"
    },
    {
      "midi": 45,
      "time": 154.588,
      "duration": 0.176,
      "velocity": 0.86,
      "hand": "left"
    },
    {
      "midi": 50,
      "time": 154.588,
      "duration": 0.176,
      "velocity": 0.79,
      "hand": "left"
    },
    {
      "midi": 57,
      "time": 154.588,
      "duration": 0.176,
      "velocity": 0.79,
      "hand": "left"
    },
    {
      "midi": 62,
      "time": 154.588,
      "duration": 0.176,
      "velocity": 0.83,
      "hand": "right"
    },
    {
      "midi": 66,
      "time": 154.588,
      "duration": 0.176,
      "velocity": 0.83,
      "hand": "right"
    },
    {
      "midi": 35,
      "time": 154.765,
      "duration": 0.176,
      "velocity": 0.73,
      "hand": "left"
    },
    {
      "midi": 42,
      "time": 154.765,
      "duration": 0.176,
      "velocity": 0.65,
      "hand": "left"
    },
    {
      "midi": 43,
      "time": 154.765,
      "duration": 0.529,
      "velocity": 0.86,
      "hand": "left"
    },
    {
      "midi": 47,
      "time": 154.765,
      "duration": 0.529,
      "velocity": 0.86,
      "hand": "left"
    },
    {
      "midi": 55,
      "time": 154.765,
      "duration": 0.529,
      "velocity": 0.79,
      "hand": "left"
    },
    {
      "midi": 59,
      "time": 154.765,
      "duration": 0.529,
      "velocity": 0.79,
      "hand": "left"
    },
    {
      "midi": 62,
      "time": 154.765,
      "duration": 0.529,
      "velocity": 0.83,
      "hand": "right"
    },
    {
      "midi": 64,
      "time": 154.765,
      "duration": 0.529,
      "velocity": 0.83,
      "hand": "right"
    },
    {
      "midi": 42,
      "time": 155.118,
      "duration": 0.176,
      "velocity": 0.51,
      "hand": "left"
    },
    {
      "midi": 37,
      "time": 155.471,
      "duration": 0.176,
      "velocity": 0.73,
      "hand": "left"
    },
    {
      "midi": 42,
      "time": 155.471,
      "duration": 0.176,
      "velocity": 0.58,
      "hand": "left"
    },
    {
      "midi": 43,
      "time": 155.471,
      "duration": 0.176,
      "velocity": 0.86,
      "hand": "left"
    },
    {
      "midi": 47,
      "time": 155.471,
      "duration": 0.176,
      "velocity": 0.86,
      "hand": "left"
    },
    {
      "midi": 55,
      "time": 155.471,
      "duration": 0.176,
      "velocity": 0.79,
      "hand": "left"
    },
    {
      "midi": 59,
      "time": 155.471,
      "duration": 0.176,
      "velocity": 0.79,
      "hand": "left"
    },
    {
      "midi": 62,
      "time": 155.471,
      "duration": 0.176,
      "velocity": 0.83,
      "hand": "right"
    },
    {
      "midi": 64,
      "time": 155.471,
      "duration": 0.176,
      "velocity": 0.83,
      "hand": "right"
    },
    {
      "midi": 35,
      "time": 155.824,
      "duration": 0.176,
      "velocity": 0.58,
      "hand": "left"
    },
    {
      "midi": 42,
      "time": 155.824,
      "duration": 0.176,
      "velocity": 0.51,
      "hand": "left"
    },
    {
      "midi": 43,
      "time": 155.824,
      "duration": 0.176,
      "velocity": 0.86,
      "hand": "left"
    },
    {
      "midi": 47,
      "time": 155.824,
      "duration": 0.176,
      "velocity": 0.86,
      "hand": "left"
    },
    {
      "midi": 55,
      "time": 155.824,
      "duration": 0.176,
      "velocity": 0.79,
      "hand": "left"
    },
    {
      "midi": 59,
      "time": 155.824,
      "duration": 0.176,
      "velocity": 0.79,
      "hand": "left"
    },
    {
      "midi": 62,
      "time": 155.824,
      "duration": 0.176,
      "velocity": 0.83,
      "hand": "right"
    },
    {
      "midi": 64,
      "time": 155.824,
      "duration": 0.176,
      "velocity": 0.83,
      "hand": "right"
    },
    {
      "midi": 35,
      "time": 156.176,
      "duration": 0.176,
      "velocity": 0.73,
      "hand": "left"
    },
    {
      "midi": 42,
      "time": 156.176,
      "duration": 0.176,
      "velocity": 0.65,
      "hand": "left"
    },
    {
      "midi": 45,
      "time": 156.176,
      "duration": 0.529,
      "velocity": 0.86,
      "hand": "left"
    },
    {
      "midi": 57,
      "time": 156.176,
      "duration": 0.529,
      "velocity": 0.79,
      "hand": "left"
    },
    {
      "midi": 61,
      "time": 156.176,
      "duration": 0.529,
      "velocity": 0.83,
      "hand": "right"
    },
    {
      "midi": 64,
      "time": 156.176,
      "duration": 0.529,
      "velocity": 0.83,
      "hand": "right"
    },
    {
      "midi": 42,
      "time": 156.529,
      "duration": 0.176,
      "velocity": 0.51,
      "hand": "left"
    },
    {
      "midi": 33,
      "time": 156.882,
      "duration": 0.353,
      "velocity": 0.86,
      "hand": "left"
    },
    {
      "midi": 37,
      "time": 156.882,
      "duration": 0.176,
      "velocity": 0.73,
      "hand": "left"
    },
    {
      "midi": 42,
      "time": 156.882,
      "duration": 0.176,
      "velocity": 0.58,
      "hand": "left"
    },
    {
      "midi": 45,
      "time": 156.882,
      "duration": 0.353,
      "velocity": 0.79,
      "hand": "left"
    },
    {
      "midi": 57,
      "time": 156.882,
      "duration": 0.353,
      "velocity": 0.79,
      "hand": "left"
    },
    {
      "midi": 61,
      "time": 156.882,
      "duration": 0.353,
      "velocity": 0.83,
      "hand": "right"
    },
    {
      "midi": 66,
      "time": 156.882,
      "duration": 0.353,
      "velocity": 0.83,
      "hand": "right"
    },
    {
      "midi": 35,
      "time": 157.235,
      "duration": 0.176,
      "velocity": 0.58,
      "hand": "left"
    },
    {
      "midi": 42,
      "time": 157.235,
      "duration": 0.176,
      "velocity": 0.51,
      "hand": "left"
    },
    {
      "midi": 33,
      "time": 157.412,
      "duration": 0.176,
      "velocity": 0.86,
      "hand": "left"
    },
    {
      "midi": 43,
      "time": 157.412,
      "duration": 0.176,
      "velocity": 0.86,
      "hand": "left"
    },
    {
      "midi": 45,
      "time": 157.412,
      "duration": 0.176,
      "velocity": 0.79,
      "hand": "left"
    },
    {
      "midi": 55,
      "time": 157.412,
      "duration": 0.176,
      "velocity": 0.79,
      "hand": "left"
    },
    {
      "midi": 61,
      "time": 157.412,
      "duration": 0.176,
      "velocity": 0.83,
      "hand": "right"
    },
    {
      "midi": 64,
      "time": 157.412,
      "duration": 0.176,
      "velocity": 0.83,
      "hand": "right"
    },
    {
      "midi": 35,
      "time": 157.588,
      "duration": 0.176,
      "velocity": 0.73,
      "hand": "left"
    },
    {
      "midi": 38,
      "time": 157.588,
      "duration": 1.412,
      "velocity": 0.86,
      "hand": "left"
    },
    {
      "midi": 42,
      "time": 157.588,
      "duration": 1.412,
      "velocity": 0.86,
      "hand": "left"
    },
    {
      "midi": 42,
      "time": 157.588,
      "duration": 0.176,
      "velocity": 0.65,
      "hand": "left"
    },
    {
      "midi": 50,
      "time": 157.588,
      "duration": 1.412,
      "velocity": 0.79,
      "hand": "left"
    },
    {
      "midi": 54,
      "time": 157.588,
      "duration": 1.412,
      "velocity": 0.79,
      "hand": "left"
    },
    {
      "midi": 62,
      "time": 157.588,
      "duration": 1.412,
      "velocity": 0.83,
      "hand": "right"
    },
    {
      "midi": 42,
      "time": 157.941,
      "duration": 0.176,
      "velocity": 0.51,
      "hand": "left"
    },
    {
      "midi": 37,
      "time": 158.294,
      "duration": 0.176,
      "velocity": 0.73,
      "hand": "left"
    },
    {
      "midi": 42,
      "time": 158.294,
      "duration": 0.176,
      "velocity": 0.58,
      "hand": "left"
    },
    {
      "midi": 35,
      "time": 158.647,
      "duration": 0.176,
      "velocity": 0.58,
      "hand": "left"
    },
    {
      "midi": 42,
      "time": 158.647,
      "duration": 0.176,
      "velocity": 0.51,
      "hand": "left"
    },
    {
      "midi": 35,
      "time": 159,
      "duration": 0.176,
      "velocity": 0.73,
      "hand": "left"
    },
    {
      "midi": 42,
      "time": 159,
      "duration": 0.176,
      "velocity": 0.65,
      "hand": "left"
    },
    {
      "midi": 38,
      "time": 159.353,
      "duration": 0.176,
      "velocity": 0.65,
      "hand": "left"
    },
    {
      "midi": 38,
      "time": 159.706,
      "duration": 0.176,
      "velocity": 0.73,
      "hand": "left"
    },
    {
      "midi": 35,
      "time": 160.059,
      "duration": 0.176,
      "velocity": 0.58,
      "hand": "left"
    },
    {
      "midi": 38,
      "time": 160.059,
      "duration": 0.176,
      "velocity": 0.83,
      "hand": "left"
    },
    {
      "midi": 38,
      "time": 160.235,
      "duration": 0.176,
      "velocity": 0.65,
      "hand": "left"
    },
    {
      "midi": 35,
      "time": 160.412,
      "duration": 0.176,
      "velocity": 0.73,
      "hand": "left"
    },
    {
      "midi": 42,
      "time": 160.412,
      "duration": 0.176,
      "velocity": 0.65,
      "hand": "left"
    },
    {
      "midi": 43,
      "time": 160.412,
      "duration": 0.529,
      "velocity": 0.86,
      "hand": "left"
    },
    {
      "midi": 49,
      "time": 160.412,
      "duration": 0.176,
      "velocity": 0.65,
      "hand": "left"
    },
    {
      "midi": 50,
      "time": 160.412,
      "duration": 0.529,
      "velocity": 0.86,
      "hand": "left"
    },
    {
      "midi": 55,
      "time": 160.412,
      "duration": 0.529,
      "velocity": 0.79,
      "hand": "left"
    },
    {
      "midi": 62,
      "time": 160.412,
      "duration": 0.529,
      "velocity": 0.83,
      "hand": "right"
    },
    {
      "midi": 71,
      "time": 160.412,
      "duration": 0.529,
      "velocity": 0.83,
      "hand": "right"
    },
    {
      "midi": 42,
      "time": 160.765,
      "duration": 0.176,
      "velocity": 0.51,
      "hand": "left"
    },
    {
      "midi": 37,
      "time": 161.118,
      "duration": 0.176,
      "velocity": 0.73,
      "hand": "left"
    },
    {
      "midi": 42,
      "time": 161.118,
      "duration": 0.176,
      "velocity": 0.58,
      "hand": "left"
    },
    {
      "midi": 43,
      "time": 161.118,
      "duration": 0.353,
      "velocity": 0.86,
      "hand": "left"
    },
    {
      "midi": 50,
      "time": 161.118,
      "duration": 0.353,
      "velocity": 0.86,
      "hand": "left"
    },
    {
      "midi": 55,
      "time": 161.118,
      "duration": 0.353,
      "velocity": 0.79,
      "hand": "left"
    },
    {
      "midi": 62,
      "time": 161.118,
      "duration": 0.353,
      "velocity": 0.79,
      "hand": "right"
    },
    {
      "midi": 67,
      "time": 161.118,
      "duration": 0.353,
      "velocity": 0.83,
      "hand": "right"
    },
    {
      "midi": 71,
      "time": 161.118,
      "duration": 0.353,
      "velocity": 0.83,
      "hand": "right"
    },
    {
      "midi": 35,
      "time": 161.471,
      "duration": 0.176,
      "velocity": 0.58,
      "hand": "left"
    },
    {
      "midi": 42,
      "time": 161.471,
      "duration": 0.176,
      "velocity": 0.51,
      "hand": "left"
    },
    {
      "midi": 43,
      "time": 161.647,
      "duration": 0.176,
      "velocity": 0.86,
      "hand": "left"
    },
    {
      "midi": 50,
      "time": 161.647,
      "duration": 0.176,
      "velocity": 0.86,
      "hand": "left"
    },
    {
      "midi": 55,
      "time": 161.647,
      "duration": 0.176,
      "velocity": 0.79,
      "hand": "left"
    },
    {
      "midi": 62,
      "time": 161.647,
      "duration": 0.176,
      "velocity": 0.79,
      "hand": "right"
    },
    {
      "midi": 67,
      "time": 161.647,
      "duration": 0.176,
      "velocity": 0.83,
      "hand": "right"
    },
    {
      "midi": 71,
      "time": 161.647,
      "duration": 0.176,
      "velocity": 0.83,
      "hand": "right"
    },
    {
      "midi": 35,
      "time": 161.824,
      "duration": 0.176,
      "velocity": 0.73,
      "hand": "left"
    },
    {
      "midi": 42,
      "time": 161.824,
      "duration": 0.176,
      "velocity": 0.65,
      "hand": "left"
    },
    {
      "midi": 43,
      "time": 161.824,
      "duration": 0.529,
      "velocity": 0.86,
      "hand": "left"
    },
    {
      "midi": 50,
      "time": 161.824,
      "duration": 0.529,
      "velocity": 0.86,
      "hand": "left"
    },
    {
      "midi": 55,
      "time": 161.824,
      "duration": 0.529,
      "velocity": 0.79,
      "hand": "left"
    },
    {
      "midi": 62,
      "time": 161.824,
      "duration": 0.529,
      "velocity": 0.79,
      "hand": "right"
    },
    {
      "midi": 67,
      "time": 161.824,
      "duration": 0.529,
      "velocity": 0.83,
      "hand": "right"
    },
    {
      "midi": 71,
      "time": 161.824,
      "duration": 0.529,
      "velocity": 0.83,
      "hand": "right"
    },
    {
      "midi": 42,
      "time": 162.176,
      "duration": 0.176,
      "velocity": 0.51,
      "hand": "left"
    },
    {
      "midi": 37,
      "time": 162.529,
      "duration": 0.176,
      "velocity": 0.73,
      "hand": "left"
    },
    {
      "midi": 42,
      "time": 162.529,
      "duration": 0.176,
      "velocity": 0.58,
      "hand": "left"
    },
    {
      "midi": 43,
      "time": 162.529,
      "duration": 0.353,
      "velocity": 0.86,
      "hand": "left"
    },
    {
      "midi": 50,
      "time": 162.529,
      "duration": 0.353,
      "velocity": 0.86,
      "hand": "left"
    },
    {
      "midi": 55,
      "time": 162.529,
      "duration": 0.353,
      "velocity": 0.79,
      "hand": "left"
    },
    {
      "midi": 62,
      "time": 162.529,
      "duration": 0.353,
      "velocity": 0.79,
      "hand": "right"
    },
    {
      "midi": 67,
      "time": 162.529,
      "duration": 0.353,
      "velocity": 0.83,
      "hand": "right"
    },
    {
      "midi": 71,
      "time": 162.529,
      "duration": 0.353,
      "velocity": 0.83,
      "hand": "right"
    },
    {
      "midi": 35,
      "time": 162.882,
      "duration": 0.176,
      "velocity": 0.58,
      "hand": "left"
    },
    {
      "midi": 42,
      "time": 162.882,
      "duration": 0.176,
      "velocity": 0.51,
      "hand": "left"
    },
    {
      "midi": 43,
      "time": 163.059,
      "duration": 0.176,
      "velocity": 0.86,
      "hand": "left"
    },
    {
      "midi": 47,
      "time": 163.059,
      "duration": 0.176,
      "velocity": 0.86,
      "hand": "left"
    },
    {
      "midi": 55,
      "time": 163.059,
      "duration": 0.176,
      "velocity": 0.79,
      "hand": "left"
    },
    {
      "midi": 59,
      "time": 163.059,
      "duration": 0.176,
      "velocity": 0.79,
      "hand": "left"
    },
    {
      "midi": 64,
      "time": 163.059,
      "duration": 0.176,
      "velocity": 0.83,
      "hand": "right"
    },
    {
      "midi": 67,
      "time": 163.059,
      "duration": 0.176,
      "velocity": 0.83,
      "hand": "right"
    },
    {
      "midi": 35,
      "time": 163.235,
      "duration": 0.176,
      "velocity": 0.73,
      "hand": "left"
    },
    {
      "midi": 38,
      "time": 163.235,
      "duration": 0.882,
      "velocity": 0.86,
      "hand": "left"
    },
    {
      "midi": 42,
      "time": 163.235,
      "duration": 0.176,
      "velocity": 0.65,
      "hand": "left"
    },
    {
      "midi": 45,
      "time": 163.235,
      "duration": 0.882,
      "velocity": 0.86,
      "hand": "left"
    },
    {
      "midi": 50,
      "time": 163.235,
      "duration": 0.882,
      "velocity": 0.79,
      "hand": "left"
    },
    {
      "midi": 57,
      "time": 163.235,
      "duration": 0.882,
      "velocity": 0.79,
      "hand": "left"
    },
    {
      "midi": 62,
      "time": 163.235,
      "duration": 0.882,
      "velocity": 0.83,
      "hand": "right"
    },
    {
      "midi": 66,
      "time": 163.235,
      "duration": 0.882,
      "velocity": 0.83,
      "hand": "right"
    },
    {
      "midi": 42,
      "time": 163.588,
      "duration": 0.176,
      "velocity": 0.51,
      "hand": "left"
    },
    {
      "midi": 37,
      "time": 163.941,
      "duration": 0.176,
      "velocity": 0.73,
      "hand": "left"
    },
    {
      "midi": 42,
      "time": 163.941,
      "duration": 0.176,
      "velocity": 0.58,
      "hand": "left"
    },
    {
      "midi": 35,
      "time": 164.294,
      "duration": 0.176,
      "velocity": 0.58,
      "hand": "left"
    },
    {
      "midi": 42,
      "time": 164.294,
      "duration": 0.176,
      "velocity": 0.51,
      "hand": "left"
    },
    {
      "midi": 35,
      "time": 164.647,
      "duration": 0.176,
      "velocity": 0.73,
      "hand": "left"
    },
    {
      "midi": 38,
      "time": 164.647,
      "duration": 0.529,
      "velocity": 0.86,
      "hand": "left"
    },
    {
      "midi": 42,
      "time": 164.647,
      "duration": 0.176,
      "velocity": 0.65,
      "hand": "left"
    },
    {
      "midi": 50,
      "time": 164.647,
      "duration": 0.529,
      "velocity": 0.79,
      "hand": "left"
    },
    {
      "midi": 62,
      "time": 164.647,
      "duration": 0.529,
      "velocity": 0.79,
      "hand": "right"
    },
    {
      "midi": 66,
      "time": 164.647,
      "duration": 0.529,
      "velocity": 0.83,
      "hand": "right"
    },
    {
      "midi": 69,
      "time": 164.647,
      "duration": 0.529,
      "velocity": 0.83,
      "hand": "right"
    },
    {
      "midi": 42,
      "time": 165,
      "duration": 0.176,
      "velocity": 0.51,
      "hand": "left"
    },
    {
      "midi": 37,
      "time": 165.353,
      "duration": 0.176,
      "velocity": 0.73,
      "hand": "left"
    },
    {
      "midi": 42,
      "time": 165.353,
      "duration": 0.176,
      "velocity": 0.58,
      "hand": "left"
    },
    {
      "midi": 35,
      "time": 165.706,
      "duration": 0.176,
      "velocity": 0.58,
      "hand": "left"
    },
    {
      "midi": 42,
      "time": 165.706,
      "duration": 0.176,
      "velocity": 0.51,
      "hand": "left"
    },
    {
      "midi": 35,
      "time": 166.059,
      "duration": 0.176,
      "velocity": 0.73,
      "hand": "left"
    },
    {
      "midi": 42,
      "time": 166.059,
      "duration": 0.176,
      "velocity": 0.65,
      "hand": "left"
    },
    {
      "midi": 43,
      "time": 166.059,
      "duration": 0.529,
      "velocity": 0.86,
      "hand": "left"
    },
    {
      "midi": 50,
      "time": 166.059,
      "duration": 0.529,
      "velocity": 0.86,
      "hand": "left"
    },
    {
      "midi": 55,
      "time": 166.059,
      "duration": 0.529,
      "velocity": 0.79,
      "hand": "left"
    },
    {
      "midi": 62,
      "time": 166.059,
      "duration": 0.529,
      "velocity": 0.79,
      "hand": "right"
    },
    {
      "midi": 67,
      "time": 166.059,
      "duration": 0.529,
      "velocity": 0.83,
      "hand": "right"
    },
    {
      "midi": 71,
      "time": 166.059,
      "duration": 0.529,
      "velocity": 0.83,
      "hand": "right"
    },
    {
      "midi": 42,
      "time": 166.412,
      "duration": 0.176,
      "velocity": 0.51,
      "hand": "left"
    },
    {
      "midi": 37,
      "time": 166.765,
      "duration": 0.176,
      "velocity": 0.73,
      "hand": "left"
    },
    {
      "midi": 42,
      "time": 166.765,
      "duration": 0.176,
      "velocity": 0.58,
      "hand": "left"
    },
    {
      "midi": 43,
      "time": 166.765,
      "duration": 0.353,
      "velocity": 0.86,
      "hand": "left"
    },
    {
      "midi": 50,
      "time": 166.765,
      "duration": 0.353,
      "velocity": 0.86,
      "hand": "left"
    },
    {
      "midi": 55,
      "time": 166.765,
      "duration": 0.353,
      "velocity": 0.79,
      "hand": "left"
    },
    {
      "midi": 62,
      "time": 166.765,
      "duration": 0.353,
      "velocity": 0.79,
      "hand": "right"
    },
    {
      "midi": 67,
      "time": 166.765,
      "duration": 0.353,
      "velocity": 0.83,
      "hand": "right"
    },
    {
      "midi": 71,
      "time": 166.765,
      "duration": 0.353,
      "velocity": 0.83,
      "hand": "right"
    },
    {
      "midi": 35,
      "time": 167.118,
      "duration": 0.176,
      "velocity": 0.58,
      "hand": "left"
    },
    {
      "midi": 42,
      "time": 167.118,
      "duration": 0.176,
      "velocity": 0.51,
      "hand": "left"
    },
    {
      "midi": 43,
      "time": 167.294,
      "duration": 0.176,
      "velocity": 0.86,
      "hand": "left"
    },
    {
      "midi": 50,
      "time": 167.294,
      "duration": 0.176,
      "velocity": 0.86,
      "hand": "left"
    },
    {
      "midi": 55,
      "time": 167.294,
      "duration": 0.176,
      "velocity": 0.79,
      "hand": "left"
    },
    {
      "midi": 62,
      "time": 167.294,
      "duration": 0.176,
      "velocity": 0.79,
      "hand": "right"
    },
    {
      "midi": 67,
      "time": 167.294,
      "duration": 0.176,
      "velocity": 0.83,
      "hand": "right"
    },
    {
      "midi": 71,
      "time": 167.294,
      "duration": 0.176,
      "velocity": 0.83,
      "hand": "right"
    },
    {
      "midi": 35,
      "time": 167.471,
      "duration": 0.176,
      "velocity": 0.73,
      "hand": "left"
    },
    {
      "midi": 40,
      "time": 167.471,
      "duration": 0.176,
      "velocity": 0.86,
      "hand": "left"
    },
    {
      "midi": 42,
      "time": 167.471,
      "duration": 0.176,
      "velocity": 0.65,
      "hand": "left"
    },
    {
      "midi": 50,
      "time": 167.471,
      "duration": 0.176,
      "velocity": 0.86,
      "hand": "left"
    },
    {
      "midi": 52,
      "time": 167.471,
      "duration": 0.176,
      "velocity": 0.79,
      "hand": "left"
    },
    {
      "midi": 62,
      "time": 167.471,
      "duration": 0.176,
      "velocity": 0.79,
      "hand": "right"
    },
    {
      "midi": 68,
      "time": 167.471,
      "duration": 0.176,
      "velocity": 0.83,
      "hand": "right"
    },
    {
      "midi": 71,
      "time": 167.471,
      "duration": 0.176,
      "velocity": 0.83,
      "hand": "right"
    },
    {
      "midi": 40,
      "time": 167.824,
      "duration": 0.176,
      "velocity": 0.86,
      "hand": "left"
    },
    {
      "midi": 42,
      "time": 167.824,
      "duration": 0.176,
      "velocity": 0.51,
      "hand": "left"
    },
    {
      "midi": 47,
      "time": 167.824,
      "duration": 0.176,
      "velocity": 0.86,
      "hand": "left"
    },
    {
      "midi": 52,
      "time": 167.824,
      "duration": 0.176,
      "velocity": 0.79,
      "hand": "left"
    },
    {
      "midi": 59,
      "time": 167.824,
      "duration": 0.176,
      "velocity": 0.79,
      "hand": "left"
    },
    {
      "midi": 68,
      "time": 167.824,
      "duration": 0.176,
      "velocity": 0.83,
      "hand": "right"
    },
    {
      "midi": 74,
      "time": 167.824,
      "duration": 0.176,
      "velocity": 0.83,
      "hand": "right"
    },
    {
      "midi": 37,
      "time": 168.176,
      "duration": 0.176,
      "velocity": 0.73,
      "hand": "left"
    },
    {
      "midi": 40,
      "time": 168.176,
      "duration": 0.176,
      "velocity": 0.86,
      "hand": "left"
    },
    {
      "midi": 42,
      "time": 168.176,
      "duration": 0.176,
      "velocity": 0.58,
      "hand": "left"
    },
    {
      "midi": 45,
      "time": 168.176,
      "duration": 0.176,
      "velocity": 0.86,
      "hand": "left"
    },
    {
      "midi": 52,
      "time": 168.176,
      "duration": 0.176,
      "velocity": 0.79,
      "hand": "left"
    },
    {
      "midi": 57,
      "time": 168.176,
      "duration": 0.176,
      "velocity": 0.79,
      "hand": "left"
    },
    {
      "midi": 64,
      "time": 168.176,
      "duration": 0.176,
      "velocity": 0.83,
      "hand": "right"
    },
    {
      "midi": 73,
      "time": 168.176,
      "duration": 0.176,
      "velocity": 0.83,
      "hand": "right"
    },
    {
      "midi": 35,
      "time": 168.529,
      "duration": 0.176,
      "velocity": 0.58,
      "hand": "left"
    },
    {
      "midi": 40,
      "time": 168.529,
      "duration": 0.176,
      "velocity": 0.86,
      "hand": "left"
    },
    {
      "midi": 42,
      "time": 168.529,
      "duration": 0.176,
      "velocity": 0.51,
      "hand": "left"
    },
    {
      "midi": 44,
      "time": 168.529,
      "duration": 0.176,
      "velocity": 0.86,
      "hand": "left"
    },
    {
      "midi": 52,
      "time": 168.529,
      "duration": 0.176,
      "velocity": 0.79,
      "hand": "left"
    },
    {
      "midi": 56,
      "time": 168.529,
      "duration": 0.176,
      "velocity": 0.79,
      "hand": "left"
    },
    {
      "midi": 62,
      "time": 168.529,
      "duration": 0.176,
      "velocity": 0.83,
      "hand": "right"
    },
    {
      "midi": 71,
      "time": 168.529,
      "duration": 0.176,
      "velocity": 0.83,
      "hand": "right"
    },
    {
      "midi": 33,
      "time": 168.882,
      "duration": 1.412,
      "velocity": 0.86,
      "hand": "left"
    },
    {
      "midi": 35,
      "time": 168.882,
      "duration": 0.176,
      "velocity": 0.73,
      "hand": "left"
    },
    {
      "midi": 42,
      "time": 168.882,
      "duration": 0.176,
      "velocity": 0.65,
      "hand": "left"
    },
    {
      "midi": 45,
      "time": 168.882,
      "duration": 1.412,
      "velocity": 0.79,
      "hand": "left"
    },
    {
      "midi": 57,
      "time": 168.882,
      "duration": 1.412,
      "velocity": 0.79,
      "hand": "left"
    },
    {
      "midi": 61,
      "time": 168.882,
      "duration": 1.412,
      "velocity": 0.83,
      "hand": "right"
    },
    {
      "midi": 69,
      "time": 168.882,
      "duration": 0.882,
      "velocity": 0.83,
      "hand": "right"
    },
    {
      "midi": 69,
      "time": 168.882,
      "duration": 1.412,
      "velocity": 0.86,
      "hand": "right"
    },
    {
      "midi": 42,
      "time": 169.235,
      "duration": 0.176,
      "velocity": 0.51,
      "hand": "left"
    },
    {
      "midi": 37,
      "time": 169.588,
      "duration": 0.176,
      "velocity": 0.73,
      "hand": "left"
    },
    {
      "midi": 42,
      "time": 169.588,
      "duration": 0.176,
      "velocity": 0.58,
      "hand": "left"
    },
    {
      "midi": 35,
      "time": 169.941,
      "duration": 0.176,
      "velocity": 0.58,
      "hand": "left"
    },
    {
      "midi": 42,
      "time": 169.941,
      "duration": 0.176,
      "velocity": 0.51,
      "hand": "left"
    },
    {
      "midi": 35,
      "time": 170.294,
      "duration": 0.176,
      "velocity": 0.73,
      "hand": "left"
    },
    {
      "midi": 42,
      "time": 170.294,
      "duration": 0.176,
      "velocity": 0.65,
      "hand": "left"
    },
    {
      "midi": 67,
      "time": 170.294,
      "duration": 0.529,
      "velocity": 0.83,
      "hand": "right"
    },
    {
      "midi": 42,
      "time": 170.647,
      "duration": 0.176,
      "velocity": 0.51,
      "hand": "left"
    },
    {
      "midi": 37,
      "time": 171,
      "duration": 0.176,
      "velocity": 0.73,
      "hand": "left"
    },
    {
      "midi": 42,
      "time": 171,
      "duration": 0.176,
      "velocity": 0.58,
      "hand": "left"
    },
    {
      "midi": 35,
      "time": 171.353,
      "duration": 0.176,
      "velocity": 0.58,
      "hand": "left"
    },
    {
      "midi": 42,
      "time": 171.353,
      "duration": 0.176,
      "velocity": 0.51,
      "hand": "left"
    },
    {
      "midi": 35,
      "time": 171.706,
      "duration": 0.176,
      "velocity": 0.73,
      "hand": "left"
    },
    {
      "midi": 38,
      "time": 171.706,
      "duration": 0.529,
      "velocity": 0.86,
      "hand": "left"
    },
    {
      "midi": 42,
      "time": 171.706,
      "duration": 0.176,
      "velocity": 0.65,
      "hand": "left"
    },
    {
      "midi": 45,
      "time": 171.706,
      "duration": 0.529,
      "velocity": 0.86,
      "hand": "left"
    },
    {
      "midi": 50,
      "time": 171.706,
      "duration": 0.529,
      "velocity": 0.79,
      "hand": "left"
    },
    {
      "midi": 57,
      "time": 171.706,
      "duration": 0.529,
      "velocity": 0.79,
      "hand": "left"
    },
    {
      "midi": 62,
      "time": 171.706,
      "duration": 0.529,
      "velocity": 0.83,
      "hand": "right"
    },
    {
      "midi": 66,
      "time": 171.706,
      "duration": 0.529,
      "velocity": 0.83,
      "hand": "right"
    },
    {
      "midi": 42,
      "time": 172.059,
      "duration": 0.176,
      "velocity": 0.51,
      "hand": "left"
    },
    {
      "midi": 37,
      "time": 172.412,
      "duration": 0.176,
      "velocity": 0.73,
      "hand": "left"
    },
    {
      "midi": 38,
      "time": 172.412,
      "duration": 0.353,
      "velocity": 0.86,
      "hand": "left"
    },
    {
      "midi": 42,
      "time": 172.412,
      "duration": 0.176,
      "velocity": 0.58,
      "hand": "left"
    },
    {
      "midi": 45,
      "time": 172.412,
      "duration": 0.353,
      "velocity": 0.86,
      "hand": "left"
    },
    {
      "midi": 50,
      "time": 172.412,
      "duration": 0.353,
      "velocity": 0.79,
      "hand": "left"
    },
    {
      "midi": 57,
      "time": 172.412,
      "duration": 0.353,
      "velocity": 0.79,
      "hand": "left"
    },
    {
      "midi": 62,
      "time": 172.412,
      "duration": 0.353,
      "velocity": 0.83,
      "hand": "right"
    },
    {
      "midi": 66,
      "time": 172.412,
      "duration": 0.353,
      "velocity": 0.83,
      "hand": "right"
    },
    {
      "midi": 35,
      "time": 172.765,
      "duration": 0.176,
      "velocity": 0.58,
      "hand": "left"
    },
    {
      "midi": 42,
      "time": 172.765,
      "duration": 0.176,
      "velocity": 0.51,
      "hand": "left"
    },
    {
      "midi": 38,
      "time": 172.941,
      "duration": 0.176,
      "velocity": 0.86,
      "hand": "left"
    },
    {
      "midi": 44,
      "time": 172.941,
      "duration": 0.176,
      "velocity": 0.86,
      "hand": "left"
    },
    {
      "midi": 50,
      "time": 172.941,
      "duration": 0.176,
      "velocity": 0.79,
      "hand": "left"
    },
    {
      "midi": 56,
      "time": 172.941,
      "duration": 0.176,
      "velocity": 0.79,
      "hand": "left"
    },
    {
      "midi": 62,
      "time": 172.941,
      "duration": 0.176,
      "velocity": 0.83,
      "hand": "right"
    },
    {
      "midi": 65,
      "time": 172.941,
      "duration": 0.176,
      "velocity": 0.83,
      "hand": "right"
    },
    {
      "midi": 35,
      "time": 173.118,
      "duration": 0.176,
      "velocity": 0.73,
      "hand": "left"
    },
    {
      "midi": 38,
      "time": 173.118,
      "duration": 0.529,
      "velocity": 0.86,
      "hand": "left"
    },
    {
      "midi": 42,
      "time": 173.118,
      "duration": 0.176,
      "velocity": 0.65,
      "hand": "left"
    },
    {
      "midi": 45,
      "time": 173.118,
      "duration": 0.529,
      "velocity": 0.86,
      "hand": "left"
    },
    {
      "midi": 50,
      "time": 173.118,
      "duration": 0.529,
      "velocity": 0.79,
      "hand": "left"
    },
    {
      "midi": 57,
      "time": 173.118,
      "duration": 0.529,
      "velocity": 0.79,
      "hand": "left"
    },
    {
      "midi": 62,
      "time": 173.118,
      "duration": 0.529,
      "velocity": 0.83,
      "hand": "right"
    },
    {
      "midi": 66,
      "time": 173.118,
      "duration": 0.529,
      "velocity": 0.83,
      "hand": "right"
    },
    {
      "midi": 42,
      "time": 173.471,
      "duration": 0.176,
      "velocity": 0.51,
      "hand": "left"
    },
    {
      "midi": 37,
      "time": 173.824,
      "duration": 0.176,
      "velocity": 0.73,
      "hand": "left"
    },
    {
      "midi": 38,
      "time": 173.824,
      "duration": 0.353,
      "velocity": 0.86,
      "hand": "left"
    },
    {
      "midi": 42,
      "time": 173.824,
      "duration": 0.176,
      "velocity": 0.58,
      "hand": "left"
    },
    {
      "midi": 45,
      "time": 173.824,
      "duration": 0.353,
      "velocity": 0.86,
      "hand": "left"
    },
    {
      "midi": 50,
      "time": 173.824,
      "duration": 0.353,
      "velocity": 0.79,
      "hand": "left"
    },
    {
      "midi": 57,
      "time": 173.824,
      "duration": 0.353,
      "velocity": 0.79,
      "hand": "left"
    },
    {
      "midi": 62,
      "time": 173.824,
      "duration": 0.353,
      "velocity": 0.83,
      "hand": "right"
    },
    {
      "midi": 66,
      "time": 173.824,
      "duration": 0.353,
      "velocity": 0.83,
      "hand": "right"
    },
    {
      "midi": 35,
      "time": 174.176,
      "duration": 0.176,
      "velocity": 0.58,
      "hand": "left"
    },
    {
      "midi": 42,
      "time": 174.176,
      "duration": 0.176,
      "velocity": 0.51,
      "hand": "left"
    },
    {
      "midi": 38,
      "time": 174.353,
      "duration": 0.176,
      "velocity": 0.86,
      "hand": "left"
    },
    {
      "midi": 45,
      "time": 174.353,
      "duration": 0.176,
      "velocity": 0.86,
      "hand": "left"
    },
    {
      "midi": 50,
      "time": 174.353,
      "duration": 0.176,
      "velocity": 0.79,
      "hand": "left"
    },
    {
      "midi": 57,
      "time": 174.353,
      "duration": 0.176,
      "velocity": 0.79,
      "hand": "left"
    },
    {
      "midi": 64,
      "time": 174.353,
      "duration": 0.176,
      "velocity": 0.83,
      "hand": "right"
    },
    {
      "midi": 67,
      "time": 174.353,
      "duration": 0.176,
      "velocity": 0.83,
      "hand": "right"
    },
    {
      "midi": 35,
      "time": 174.529,
      "duration": 0.176,
      "velocity": 0.73,
      "hand": "left"
    },
    {
      "midi": 38,
      "time": 174.529,
      "duration": 0.882,
      "velocity": 0.86,
      "hand": "left"
    },
    {
      "midi": 42,
      "time": 174.529,
      "duration": 0.176,
      "velocity": 0.65,
      "hand": "left"
    },
    {
      "midi": 50,
      "time": 174.529,
      "duration": 0.882,
      "velocity": 0.79,
      "hand": "left"
    },
    {
      "midi": 62,
      "time": 174.529,
      "duration": 0.882,
      "velocity": 0.79,
      "hand": "right"
    },
    {
      "midi": 66,
      "time": 174.529,
      "duration": 0.882,
      "velocity": 0.83,
      "hand": "right"
    },
    {
      "midi": 69,
      "time": 174.529,
      "duration": 0.882,
      "velocity": 0.83,
      "hand": "right"
    },
    {
      "midi": 42,
      "time": 174.882,
      "duration": 0.176,
      "velocity": 0.51,
      "hand": "left"
    },
    {
      "midi": 37,
      "time": 175.059,
      "duration": 0.176,
      "velocity": 0.73,
      "hand": "left"
    },
    {
      "midi": 42,
      "time": 175.059,
      "duration": 0.176,
      "velocity": 0.58,
      "hand": "left"
    },
    {
      "midi": 35,
      "time": 175.412,
      "duration": 0.176,
      "velocity": 0.58,
      "hand": "left"
    },
    {
      "midi": 42,
      "time": 175.412,
      "duration": 0.176,
      "velocity": 0.51,
      "hand": "left"
    },
    {
      "midi": 35,
      "time": 175.765,
      "duration": 0.176,
      "velocity": 0.73,
      "hand": "left"
    },
    {
      "midi": 38,
      "time": 175.765,
      "duration": 0.529,
      "velocity": 0.86,
      "hand": "left"
    },
    {
      "midi": 42,
      "time": 175.765,
      "duration": 0.176,
      "velocity": 0.65,
      "hand": "left"
    },
    {
      "midi": 50,
      "time": 175.765,
      "duration": 0.529,
      "velocity": 0.79,
      "hand": "left"
    },
    {
      "midi": 62,
      "time": 175.765,
      "duration": 0.529,
      "velocity": 0.79,
      "hand": "right"
    },
    {
      "midi": 66,
      "time": 175.765,
      "duration": 0.529,
      "velocity": 0.83,
      "hand": "right"
    },
    {
      "midi": 69,
      "time": 175.765,
      "duration": 0.529,
      "velocity": 0.83,
      "hand": "right"
    },
    {
      "midi": 42,
      "time": 176.118,
      "duration": 0.176,
      "velocity": 0.51,
      "hand": "left"
    },
    {
      "midi": 37,
      "time": 176.471,
      "duration": 0.176,
      "velocity": 0.73,
      "hand": "left"
    },
    {
      "midi": 38,
      "time": 176.471,
      "duration": 0.353,
      "velocity": 0.86,
      "hand": "left"
    },
    {
      "midi": 42,
      "time": 176.471,
      "duration": 0.176,
      "velocity": 0.58,
      "hand": "left"
    },
    {
      "midi": 45,
      "time": 176.471,
      "duration": 0.353,
      "velocity": 0.86,
      "hand": "left"
    },
    {
      "midi": 50,
      "time": 176.471,
      "duration": 0.353,
      "velocity": 0.79,
      "hand": "left"
    },
    {
      "midi": 57,
      "time": 176.471,
      "duration": 0.353,
      "velocity": 0.79,
      "hand": "left"
    },
    {
      "midi": 66,
      "time": 176.471,
      "duration": 0.353,
      "velocity": 0.83,
      "hand": "right"
    },
    {
      "midi": 69,
      "time": 176.471,
      "duration": 0.353,
      "velocity": 0.83,
      "hand": "right"
    },
    {
      "midi": 35,
      "time": 176.824,
      "duration": 0.176,
      "velocity": 0.58,
      "hand": "left"
    },
    {
      "midi": 42,
      "time": 176.824,
      "duration": 0.176,
      "velocity": 0.51,
      "hand": "left"
    },
    {
      "midi": 38,
      "time": 177,
      "duration": 0.176,
      "velocity": 0.86,
      "hand": "left"
    },
    {
      "midi": 45,
      "time": 177,
      "duration": 0.176,
      "velocity": 0.86,
      "hand": "left"
    },
    {
      "midi": 50,
      "time": 177,
      "duration": 0.176,
      "velocity": 0.79,
      "hand": "left"
    },
    {
      "midi": 57,
      "time": 177,
      "duration": 0.176,
      "velocity": 0.79,
      "hand": "left"
    },
    {
      "midi": 62,
      "time": 177,
      "duration": 0.176,
      "velocity": 0.83,
      "hand": "right"
    },
    {
      "midi": 66,
      "time": 177,
      "duration": 0.176,
      "velocity": 0.83,
      "hand": "right"
    },
    {
      "midi": 35,
      "time": 177.176,
      "duration": 0.176,
      "velocity": 0.73,
      "hand": "left"
    },
    {
      "midi": 42,
      "time": 177.176,
      "duration": 0.176,
      "velocity": 0.65,
      "hand": "left"
    },
    {
      "midi": 43,
      "time": 177.176,
      "duration": 0.529,
      "velocity": 0.86,
      "hand": "left"
    },
    {
      "midi": 47,
      "time": 177.176,
      "duration": 0.529,
      "velocity": 0.86,
      "hand": "left"
    },
    {
      "midi": 55,
      "time": 177.176,
      "duration": 0.529,
      "velocity": 0.79,
      "hand": "left"
    },
    {
      "midi": 59,
      "time": 177.176,
      "duration": 0.529,
      "velocity": 0.79,
      "hand": "left"
    },
    {
      "midi": 62,
      "time": 177.176,
      "duration": 0.529,
      "velocity": 0.83,
      "hand": "right"
    },
    {
      "midi": 64,
      "time": 177.176,
      "duration": 0.529,
      "velocity": 0.83,
      "hand": "right"
    },
    {
      "midi": 42,
      "time": 177.529,
      "duration": 0.176,
      "velocity": 0.51,
      "hand": "left"
    },
    {
      "midi": 37,
      "time": 177.882,
      "duration": 0.176,
      "velocity": 0.73,
      "hand": "left"
    },
    {
      "midi": 42,
      "time": 177.882,
      "duration": 0.176,
      "velocity": 0.58,
      "hand": "left"
    },
    {
      "midi": 43,
      "time": 177.882,
      "duration": 0.353,
      "velocity": 0.86,
      "hand": "left"
    },
    {
      "midi": 47,
      "time": 177.882,
      "duration": 0.353,
      "velocity": 0.86,
      "hand": "left"
    },
    {
      "midi": 55,
      "time": 177.882,
      "duration": 0.353,
      "velocity": 0.79,
      "hand": "left"
    },
    {
      "midi": 59,
      "time": 177.882,
      "duration": 0.353,
      "velocity": 0.79,
      "hand": "left"
    },
    {
      "midi": 62,
      "time": 177.882,
      "duration": 0.353,
      "velocity": 0.83,
      "hand": "right"
    },
    {
      "midi": 64,
      "time": 178.059,
      "duration": 0.353,
      "velocity": 0.83,
      "hand": "right"
    },
    {
      "midi": 35,
      "time": 178.235,
      "duration": 0.176,
      "velocity": 0.58,
      "hand": "left"
    },
    {
      "midi": 42,
      "time": 178.235,
      "duration": 0.176,
      "velocity": 0.51,
      "hand": "left"
    },
    {
      "midi": 43,
      "time": 178.412,
      "duration": 0.176,
      "velocity": 0.86,
      "hand": "left"
    },
    {
      "midi": 47,
      "time": 178.412,
      "duration": 0.176,
      "velocity": 0.86,
      "hand": "left"
    },
    {
      "midi": 55,
      "time": 178.412,
      "duration": 0.176,
      "velocity": 0.79,
      "hand": "left"
    },
    {
      "midi": 59,
      "time": 178.412,
      "duration": 0.176,
      "velocity": 0.79,
      "hand": "left"
    },
    {
      "midi": 62,
      "time": 178.412,
      "duration": 0.176,
      "velocity": 0.83,
      "hand": "right"
    },
    {
      "midi": 64,
      "time": 178.412,
      "duration": 0.176,
      "velocity": 0.83,
      "hand": "right"
    },
    {
      "midi": 35,
      "time": 178.588,
      "duration": 0.176,
      "velocity": 0.73,
      "hand": "left"
    },
    {
      "midi": 42,
      "time": 178.588,
      "duration": 0.176,
      "velocity": 0.65,
      "hand": "left"
    },
    {
      "midi": 45,
      "time": 178.588,
      "duration": 0.529,
      "velocity": 0.86,
      "hand": "left"
    },
    {
      "midi": 57,
      "time": 178.588,
      "duration": 0.529,
      "velocity": 0.79,
      "hand": "left"
    },
    {
      "midi": 61,
      "time": 178.588,
      "duration": 0.529,
      "velocity": 0.83,
      "hand": "right"
    },
    {
      "midi": 64,
      "time": 178.588,
      "duration": 0.529,
      "velocity": 0.83,
      "hand": "right"
    },
    {
      "midi": 35,
      "time": 178.941,
      "duration": 0.176,
      "velocity": 0.65,
      "hand": "left"
    },
    {
      "midi": 42,
      "time": 178.941,
      "duration": 0.176,
      "velocity": 0.51,
      "hand": "left"
    },
    {
      "midi": 33,
      "time": 179.294,
      "duration": 0.353,
      "velocity": 0.86,
      "hand": "left"
    },
    {
      "midi": 38,
      "time": 179.294,
      "duration": 0.176,
      "velocity": 0.69,
      "hand": "left"
    },
    {
      "midi": 42,
      "time": 179.294,
      "duration": 0.176,
      "velocity": 0.58,
      "hand": "left"
    },
    {
      "midi": 45,
      "time": 179.294,
      "duration": 0.353,
      "velocity": 0.79,
      "hand": "left"
    },
    {
      "midi": 57,
      "time": 179.294,
      "duration": 0.353,
      "velocity": 0.79,
      "hand": "left"
    },
    {
      "midi": 61,
      "time": 179.294,
      "duration": 0.353,
      "velocity": 0.83,
      "hand": "right"
    },
    {
      "midi": 66,
      "time": 179.294,
      "duration": 0.353,
      "velocity": 0.83,
      "hand": "right"
    },
    {
      "midi": 35,
      "time": 179.647,
      "duration": 0.176,
      "velocity": 0.58,
      "hand": "left"
    },
    {
      "midi": 38,
      "time": 179.647,
      "duration": 0.176,
      "velocity": 0.83,
      "hand": "left"
    },
    {
      "midi": 46,
      "time": 179.647,
      "duration": 0.176,
      "velocity": 0.65,
      "hand": "left"
    },
    {
      "midi": 33,
      "time": 179.824,
      "duration": 0.176,
      "velocity": 0.86,
      "hand": "left"
    },
    {
      "midi": 43,
      "time": 179.824,
      "duration": 0.176,
      "velocity": 0.86,
      "hand": "left"
    },
    {
      "midi": 45,
      "time": 179.824,
      "duration": 0.176,
      "velocity": 0.79,
      "hand": "left"
    },
    {
      "midi": 55,
      "time": 179.824,
      "duration": 0.176,
      "velocity": 0.79,
      "hand": "left"
    },
    {
      "midi": 61,
      "time": 179.824,
      "duration": 0.176,
      "velocity": 0.83,
      "hand": "right"
    },
    {
      "midi": 64,
      "time": 179.824,
      "duration": 0.176,
      "velocity": 0.83,
      "hand": "right"
    },
    {
      "midi": 35,
      "time": 180,
      "duration": 0.176,
      "velocity": 0.73,
      "hand": "left"
    },
    {
      "midi": 38,
      "time": 180,
      "duration": 1.412,
      "velocity": 0.86,
      "hand": "left"
    },
    {
      "midi": 42,
      "time": 180,
      "duration": 1.412,
      "velocity": 0.86,
      "hand": "left"
    },
    {
      "midi": 42,
      "time": 180,
      "duration": 0.176,
      "velocity": 0.65,
      "hand": "left"
    },
    {
      "midi": 50,
      "time": 180,
      "duration": 1.412,
      "velocity": 0.79,
      "hand": "left"
    },
    {
      "midi": 54,
      "time": 180,
      "duration": 1.412,
      "velocity": 0.79,
      "hand": "left"
    },
    {
      "midi": 62,
      "time": 180,
      "duration": 1.412,
      "velocity": 0.83,
      "hand": "right"
    },
    {
      "midi": 42,
      "time": 180.353,
      "duration": 0.176,
      "velocity": 0.51,
      "hand": "left"
    },
    {
      "midi": 37,
      "time": 180.706,
      "duration": 0.176,
      "velocity": 0.73,
      "hand": "left"
    },
    {
      "midi": 42,
      "time": 180.706,
      "duration": 0.176,
      "velocity": 0.58,
      "hand": "left"
    },
    {
      "midi": 35,
      "time": 181.059,
      "duration": 0.176,
      "velocity": 0.58,
      "hand": "left"
    },
    {
      "midi": 42,
      "time": 181.059,
      "duration": 0.176,
      "velocity": 0.51,
      "hand": "left"
    },
    {
      "midi": 35,
      "time": 181.412,
      "duration": 0.176,
      "velocity": 0.73,
      "hand": "left"
    },
    {
      "midi": 42,
      "time": 181.412,
      "duration": 0.176,
      "velocity": 0.65,
      "hand": "left"
    },
    {
      "midi": 35,
      "time": 181.765,
      "duration": 0.176,
      "velocity": 0.65,
      "hand": "left"
    },
    {
      "midi": 42,
      "time": 181.765,
      "duration": 0.176,
      "velocity": 0.51,
      "hand": "left"
    },
    {
      "midi": 38,
      "time": 182.118,
      "duration": 0.176,
      "velocity": 0.69,
      "hand": "left"
    },
    {
      "midi": 42,
      "time": 182.118,
      "duration": 0.176,
      "velocity": 0.58,
      "hand": "left"
    },
    {
      "midi": 35,
      "time": 182.471,
      "duration": 0.176,
      "velocity": 0.58,
      "hand": "left"
    },
    {
      "midi": 38,
      "time": 182.471,
      "duration": 0.176,
      "velocity": 0.83,
      "hand": "left"
    },
    {
      "midi": 46,
      "time": 182.471,
      "duration": 0.176,
      "velocity": 0.65,
      "hand": "left"
    },
    {
      "midi": 35,
      "time": 182.824,
      "duration": 0.176,
      "velocity": 0.73,
      "hand": "left"
    },
    {
      "midi": 38,
      "time": 182.824,
      "duration": 0.176,
      "velocity": 0.86,
      "hand": "left"
    },
    {
      "midi": 42,
      "time": 182.824,
      "duration": 0.176,
      "velocity": 0.65,
      "hand": "left"
    },
    {
      "midi": 49,
      "time": 182.824,
      "duration": 0.176,
      "velocity": 0.65,
      "hand": "left"
    },
    {
      "midi": 50,
      "time": 182.824,
      "duration": 0.176,
      "velocity": 0.79,
      "hand": "left"
    },
    {
      "midi": 62,
      "time": 182.824,
      "duration": 0.176,
      "velocity": 0.79,
      "hand": "right"
    },
    {
      "midi": 66,
      "time": 182.824,
      "duration": 0.176,
      "velocity": 0.83,
      "hand": "right"
    },
    {
      "midi": 69,
      "time": 182.824,
      "duration": 1.588,
      "velocity": 0.83,
      "hand": "right"
    },
    {
      "midi": 38,
      "time": 183,
      "duration": 0.353,
      "velocity": 0.86,
      "hand": "left"
    },
    {
      "midi": 50,
      "time": 183,
      "duration": 0.353,
      "velocity": 0.79,
      "hand": "left"
    },
    {
      "midi": 62,
      "time": 183,
      "duration": 0.353,
      "velocity": 0.79,
      "hand": "right"
    },
    {
      "midi": 66,
      "time": 183,
      "duration": 0.353,
      "velocity": 0.83,
      "hand": "right"
    },
    {
      "midi": 42,
      "time": 183.176,
      "duration": 0.176,
      "velocity": 0.51,
      "hand": "left"
    },
    {
      "midi": 42,
      "time": 183.353,
      "duration": 0.176,
      "velocity": 0.43,
      "hand": "left"
    },
    {
      "midi": 38,
      "time": 183.529,
      "duration": 0.353,
      "velocity": 0.86,
      "hand": "left"
    },
    {
      "midi": 38,
      "time": 183.529,
      "duration": 0.176,
      "velocity": 0.73,
      "hand": "left"
    },
    {
      "midi": 42,
      "time": 183.529,
      "duration": 0.176,
      "velocity": 0.58,
      "hand": "left"
    },
    {
      "midi": 50,
      "time": 183.529,
      "duration": 0.353,
      "velocity": 0.79,
      "hand": "left"
    },
    {
      "midi": 62,
      "time": 183.529,
      "duration": 0.353,
      "velocity": 0.79,
      "hand": "right"
    },
    {
      "midi": 66,
      "time": 183.529,
      "duration": 0.353,
      "velocity": 0.83,
      "hand": "right"
    },
    {
      "midi": 42,
      "time": 183.882,
      "duration": 0.176,
      "velocity": 0.51,
      "hand": "left"
    },
    {
      "midi": 35,
      "time": 184.059,
      "duration": 0.176,
      "velocity": 0.58,
      "hand": "left"
    },
    {
      "midi": 38,
      "time": 184.059,
      "duration": 0.176,
      "velocity": 0.86,
      "hand": "left"
    },
    {
      "midi": 42,
      "time": 184.059,
      "duration": 0.176,
      "velocity": 0.43,
      "hand": "left"
    },
    {
      "midi": 50,
      "time": 184.059,
      "duration": 0.176,
      "velocity": 0.79,
      "hand": "left"
    },
    {
      "midi": 62,
      "time": 184.059,
      "duration": 0.176,
      "velocity": 0.79,
      "hand": "right"
    },
    {
      "midi": 66,
      "time": 184.059,
      "duration": 0.176,
      "velocity": 0.83,
      "hand": "right"
    },
    {
      "midi": 35,
      "time": 184.235,
      "duration": 0.176,
      "velocity": 0.73,
      "hand": "left"
    },
    {
      "midi": 38,
      "time": 184.235,
      "duration": 0.529,
      "velocity": 0.86,
      "hand": "left"
    },
    {
      "midi": 42,
      "time": 184.235,
      "duration": 0.176,
      "velocity": 0.65,
      "hand": "left"
    },
    {
      "midi": 50,
      "time": 184.235,
      "duration": 0.529,
      "velocity": 0.79,
      "hand": "left"
    },
    {
      "midi": 62,
      "time": 184.235,
      "duration": 0.529,
      "velocity": 0.79,
      "hand": "right"
    },
    {
      "midi": 66,
      "time": 184.235,
      "duration": 0.529,
      "velocity": 0.83,
      "hand": "right"
    },
    {
      "midi": 69,
      "time": 184.235,
      "duration": 0.353,
      "velocity": 0.83,
      "hand": "right"
    },
    {
      "midi": 42,
      "time": 184.588,
      "duration": 0.176,
      "velocity": 0.51,
      "hand": "left"
    },
    {
      "midi": 42,
      "time": 184.765,
      "duration": 0.176,
      "velocity": 0.43,
      "hand": "left"
    },
    {
      "midi": 66,
      "time": 184.765,
      "duration": 0.176,
      "velocity": 0.83,
      "hand": "right"
    },
    {
      "midi": 38,
      "time": 184.941,
      "duration": 0.176,
      "velocity": 0.73,
      "hand": "left"
    },
    {
      "midi": 42,
      "time": 184.941,
      "duration": 0.176,
      "velocity": 0.58,
      "hand": "left"
    },
    {
      "midi": 69,
      "time": 184.941,
      "duration": 0.353,
      "velocity": 0.83,
      "hand": "right"
    },
    {
      "midi": 35,
      "time": 185.294,
      "duration": 0.176,
      "velocity": 0.58,
      "hand": "left"
    },
    {
      "midi": 42,
      "time": 185.294,
      "duration": 0.176,
      "velocity": 0.51,
      "hand": "left"
    },
    {
      "midi": 42,
      "time": 185.471,
      "duration": 0.176,
      "velocity": 0.43,
      "hand": "left"
    },
    {
      "midi": 74,
      "time": 185.471,
      "duration": 0.176,
      "velocity": 0.83,
      "hand": "right"
    },
    {
      "midi": 33,
      "time": 185.647,
      "duration": 0.176,
      "velocity": 0.86,
      "hand": "left"
    },
    {
      "midi": 35,
      "time": 185.647,
      "duration": 0.176,
      "velocity": 0.73,
      "hand": "left"
    },
    {
      "midi": 42,
      "time": 185.647,
      "duration": 0.176,
      "velocity": 0.65,
      "hand": "left"
    },
    {
      "midi": 45,
      "time": 185.647,
      "duration": 0.176,
      "velocity": 0.79,
      "hand": "left"
    },
    {
      "midi": 52,
      "time": 185.647,
      "duration": 0.176,
      "velocity": 0.86,
      "hand": "left"
    },
    {
      "midi": 64,
      "time": 185.647,
      "duration": 0.176,
      "velocity": 0.79,
      "hand": "right"
    },
    {
      "midi": 67,
      "time": 185.647,
      "duration": 0.176,
      "velocity": 0.83,
      "hand": "right"
    },
    {
      "midi": 73,
      "time": 185.647,
      "duration": 1.588,
      "velocity": 0.83,
      "hand": "right"
    },
    {
      "midi": 73,
      "time": 185.647,
      "duration": 0.882,
      "velocity": 0.86,
      "hand": "right"
    },
    {
      "midi": 33,
      "time": 185.824,
      "duration": 0.353,
      "velocity": 0.86,
      "hand": "left"
    },
    {
      "midi": 45,
      "time": 185.824,
      "duration": 0.353,
      "velocity": 0.79,
      "hand": "left"
    },
    {
      "midi": 52,
      "time": 185.824,
      "duration": 0.353,
      "velocity": 0.86,
      "hand": "left"
    },
    {
      "midi": 64,
      "time": 185.824,
      "duration": 0.353,
      "velocity": 0.79,
      "hand": "right"
    },
    {
      "midi": 67,
      "time": 185.824,
      "duration": 0.353,
      "velocity": 0.83,
      "hand": "right"
    },
    {
      "midi": 42,
      "time": 186,
      "duration": 0.176,
      "velocity": 0.51,
      "hand": "left"
    },
    {
      "midi": 42,
      "time": 186.176,
      "duration": 0.176,
      "velocity": 0.43,
      "hand": "left"
    },
    {
      "midi": 33,
      "time": 186.353,
      "duration": 0.353,
      "velocity": 0.86,
      "hand": "left"
    },
    {
      "midi": 38,
      "time": 186.353,
      "duration": 0.176,
      "velocity": 0.73,
      "hand": "left"
    },
    {
      "midi": 42,
      "time": 186.353,
      "duration": 0.176,
      "velocity": 0.58,
      "hand": "left"
    },
    {
      "midi": 45,
      "time": 186.353,
      "duration": 0.353,
      "velocity": 0.79,
      "hand": "left"
    },
    {
      "midi": 52,
      "time": 186.353,
      "duration": 0.353,
      "velocity": 0.86,
      "hand": "left"
    },
    {
      "midi": 64,
      "time": 186.353,
      "duration": 0.353,
      "velocity": 0.79,
      "hand": "right"
    },
    {
      "midi": 67,
      "time": 186.353,
      "duration": 0.353,
      "velocity": 0.83,
      "hand": "right"
    },
    {
      "midi": 42,
      "time": 186.706,
      "duration": 0.176,
      "velocity": 0.51,
      "hand": "left"
    },
    {
      "midi": 33,
      "time": 186.882,
      "duration": 0.176,
      "velocity": 0.86,
      "hand": "left"
    },
    {
      "midi": 35,
      "time": 186.882,
      "duration": 0.176,
      "velocity": 0.58,
      "hand": "left"
    },
    {
      "midi": 42,
      "time": 186.882,
      "duration": 0.176,
      "velocity": 0.43,
      "hand": "left"
    },
    {
      "midi": 45,
      "time": 186.882,
      "duration": 0.176,
      "velocity": 0.79,
      "hand": "left"
    },
    {
      "midi": 52,
      "time": 186.882,
      "duration": 0.176,
      "velocity": 0.86,
      "hand": "left"
    },
    {
      "midi": 64,
      "time": 186.882,
      "duration": 0.176,
      "velocity": 0.79,
      "hand": "right"
    },
    {
      "midi": 67,
      "time": 186.882,
      "duration": 0.176,
      "velocity": 0.83,
      "hand": "right"
    },
    {
      "midi": 33,
      "time": 187.059,
      "duration": 0.529,
      "velocity": 0.86,
      "hand": "left"
    },
    {
      "midi": 35,
      "time": 187.059,
      "duration": 0.176,
      "velocity": 0.73,
      "hand": "left"
    },
    {
      "midi": 42,
      "time": 187.059,
      "duration": 0.176,
      "velocity": 0.65,
      "hand": "left"
    },
    {
      "midi": 45,
      "time": 187.059,
      "duration": 0.529,
      "velocity": 0.79,
      "hand": "left"
    },
    {
      "midi": 52,
      "time": 187.059,
      "duration": 0.529,
      "velocity": 0.86,
      "hand": "left"
    },
    {
      "midi": 64,
      "time": 187.059,
      "duration": 0.529,
      "velocity": 0.79,
      "hand": "right"
    },
    {
      "midi": 67,
      "time": 187.059,
      "duration": 0.529,
      "velocity": 0.83,
      "hand": "right"
    },
    {
      "midi": 73,
      "time": 187.059,
      "duration": 0.529,
      "velocity": 0.83,
      "hand": "right"
    },
    {
      "midi": 35,
      "time": 187.412,
      "duration": 0.176,
      "velocity": 0.58,
      "hand": "left"
    },
    {
      "midi": 42,
      "time": 187.412,
      "duration": 0.176,
      "velocity": 0.51,
      "hand": "left"
    },
    {
      "midi": 42,
      "time": 187.588,
      "duration": 0.176,
      "velocity": 0.43,
      "hand": "left"
    },
    {
      "midi": 38,
      "time": 187.765,
      "duration": 0.176,
      "velocity": 0.73,
      "hand": "left"
    },
    {
      "midi": 42,
      "time": 187.765,
      "duration": 0.176,
      "velocity": 0.58,
      "hand": "left"
    },
    {
      "midi": 35,
      "time": 188.118,
      "duration": 0.176,
      "velocity": 0.58,
      "hand": "left"
    },
    {
      "midi": 42,
      "time": 188.118,
      "duration": 0.176,
      "velocity": 0.51,
      "hand": "left"
    },
    {
      "midi": 42,
      "time": 188.294,
      "duration": 0.176,
      "velocity": 0.43,
      "hand": "left"
    },
    {
      "midi": 35,
      "time": 188.471,
      "duration": 0.176,
      "velocity": 0.73,
      "hand": "left"
    },
    {
      "midi": 42,
      "time": 188.471,
      "duration": 0.176,
      "velocity": 0.65,
      "hand": "left"
    },
    {
      "midi": 45,
      "time": 188.471,
      "duration": 0.176,
      "velocity": 0.86,
      "hand": "left"
    },
    {
      "midi": 49,
      "time": 188.471,
      "duration": 0.176,
      "velocity": 0.86,
      "hand": "left"
    },
    {
      "midi": 57,
      "time": 188.471,
      "duration": 0.176,
      "velocity": 0.79,
      "hand": "left"
    },
    {
      "midi": 61,
      "time": 188.471,
      "duration": 0.176,
      "velocity": 0.79,
      "hand": "right"
    },
    {
      "midi": 64,
      "time": 188.471,
      "duration": 0.176,
      "velocity": 0.83,
      "hand": "right"
    },
    {
      "midi": 67,
      "time": 188.471,
      "duration": 1.588,
      "velocity": 0.83,
      "hand": "right"
    },
    {
      "midi": 45,
      "time": 188.647,
      "duration": 0.353,
      "velocity": 0.86,
      "hand": "left"
    },
    {
      "midi": 49,
      "time": 188.647,
      "duration": 0.353,
      "velocity": 0.86,
      "hand": "left"
    },
    {
      "midi": 57,
      "time": 188.647,
      "duration": 0.353,
      "velocity": 0.79,
      "hand": "left"
    },
    {
      "midi": 61,
      "time": 188.647,
      "duration": 0.353,
      "velocity": 0.79,
      "hand": "right"
    },
    {
      "midi": 64,
      "time": 188.647,
      "duration": 0.353,
      "velocity": 0.83,
      "hand": "right"
    },
    {
      "midi": 42,
      "time": 188.824,
      "duration": 0.176,
      "velocity": 0.73,
      "hand": "left"
    },
    {
      "midi": 42,
      "time": 189,
      "duration": 0.176,
      "velocity": 0.43,
      "hand": "left"
    },
    {
      "midi": 38,
      "time": 189.176,
      "duration": 0.176,
      "velocity": 0.73,
      "hand": "left"
    },
    {
      "midi": 42,
      "time": 189.176,
      "duration": 0.176,
      "velocity": 0.58,
      "hand": "left"
    },
    {
      "midi": 45,
      "time": 189.176,
      "duration": 0.353,
      "velocity": 0.86,
      "hand": "left"
    },
    {
      "midi": 49,
      "time": 189.176,
      "duration": 0.353,
      "velocity": 0.86,
      "hand": "left"
    },
    {
      "midi": 57,
      "time": 189.176,
      "duration": 0.353,
      "velocity": 0.79,
      "hand": "left"
    },
    {
      "midi": 61,
      "time": 189.176,
      "duration": 0.353,
      "velocity": 0.79,
      "hand": "right"
    },
    {
      "midi": 64,
      "time": 189.176,
      "duration": 0.353,
      "velocity": 0.83,
      "hand": "right"
    },
    {
      "midi": 42,
      "time": 189.529,
      "duration": 0.176,
      "velocity": 0.51,
      "hand": "left"
    },
    {
      "midi": 35,
      "time": 189.706,
      "duration": 0.176,
      "velocity": 0.58,
      "hand": "left"
    },
    {
      "midi": 42,
      "time": 189.706,
      "duration": 0.176,
      "velocity": 0.43,
      "hand": "left"
    },
    {
      "midi": 45,
      "time": 189.706,
      "duration": 0.176,
      "velocity": 0.86,
      "hand": "left"
    },
    {
      "midi": 49,
      "time": 189.706,
      "duration": 0.176,
      "velocity": 0.86,
      "hand": "left"
    },
    {
      "midi": 57,
      "time": 189.706,
      "duration": 0.176,
      "velocity": 0.79,
      "hand": "left"
    },
    {
      "midi": 61,
      "time": 189.706,
      "duration": 0.176,
      "velocity": 0.79,
      "hand": "right"
    },
    {
      "midi": 64,
      "time": 189.706,
      "duration": 0.176,
      "velocity": 0.83,
      "hand": "right"
    },
    {
      "midi": 35,
      "time": 189.882,
      "duration": 0.176,
      "velocity": 0.73,
      "hand": "left"
    },
    {
      "midi": 42,
      "time": 189.882,
      "duration": 0.176,
      "velocity": 0.65,
      "hand": "left"
    },
    {
      "midi": 45,
      "time": 189.882,
      "duration": 0.529,
      "velocity": 0.86,
      "hand": "left"
    },
    {
      "midi": 49,
      "time": 189.882,
      "duration": 0.529,
      "velocity": 0.86,
      "hand": "left"
    },
    {
      "midi": 57,
      "time": 189.882,
      "duration": 0.529,
      "velocity": 0.79,
      "hand": "left"
    },
    {
      "midi": 61,
      "time": 189.882,
      "duration": 0.529,
      "velocity": 0.79,
      "hand": "right"
    },
    {
      "midi": 64,
      "time": 189.882,
      "duration": 0.529,
      "velocity": 0.83,
      "hand": "right"
    },
    {
      "midi": 67,
      "time": 189.882,
      "duration": 0.353,
      "velocity": 0.83,
      "hand": "right"
    },
    {
      "midi": 42,
      "time": 190.235,
      "duration": 0.176,
      "velocity": 0.73,
      "hand": "left"
    },
    {
      "midi": 42,
      "time": 190.412,
      "duration": 0.176,
      "velocity": 0.43,
      "hand": "left"
    },
    {
      "midi": 64,
      "time": 190.412,
      "duration": 0.176,
      "velocity": 0.83,
      "hand": "right"
    },
    {
      "midi": 38,
      "time": 190.588,
      "duration": 0.176,
      "velocity": 0.73,
      "hand": "left"
    },
    {
      "midi": 42,
      "time": 190.588,
      "duration": 0.176,
      "velocity": 0.58,
      "hand": "left"
    },
    {
      "midi": 67,
      "time": 190.588,
      "duration": 0.353,
      "velocity": 0.83,
      "hand": "right"
    },
    {
      "midi": 35,
      "time": 190.941,
      "duration": 0.176,
      "velocity": 0.58,
      "hand": "left"
    },
    {
      "midi": 42,
      "time": 190.941,
      "duration": 0.176,
      "velocity": 0.51,
      "hand": "left"
    },
    {
      "midi": 42,
      "time": 191.118,
      "duration": 0.176,
      "velocity": 0.43,
      "hand": "left"
    },
    {
      "midi": 71,
      "time": 191.118,
      "duration": 0.176,
      "velocity": 0.83,
      "hand": "right"
    },
    {
      "midi": 35,
      "time": 191.294,
      "duration": 0.176,
      "velocity": 0.73,
      "hand": "left"
    },
    {
      "midi": 38,
      "time": 191.294,
      "duration": 0.176,
      "velocity": 0.86,
      "hand": "left"
    },
    {
      "midi": 42,
      "time": 191.294,
      "duration": 0.176,
      "velocity": 0.65,
      "hand": "left"
    },
    {
      "midi": 50,
      "time": 191.294,
      "duration": 0.176,
      "velocity": 0.79,
      "hand": "left"
    },
    {
      "midi": 62,
      "time": 191.294,
      "duration": 0.176,
      "velocity": 0.79,
      "hand": "right"
    },
    {
      "midi": 69,
      "time": 191.294,
      "duration": 0.882,
      "velocity": 0.83,
      "hand": "right"
    },
    {
      "midi": 38,
      "time": 191.471,
      "duration": 0.353,
      "velocity": 0.86,
      "hand": "left"
    },
    {
      "midi": 50,
      "time": 191.471,
      "duration": 0.353,
      "velocity": 0.79,
      "hand": "left"
    },
    {
      "midi": 62,
      "time": 191.471,
      "duration": 0.353,
      "velocity": 0.79,
      "hand": "right"
    },
    {
      "midi": 42,
      "time": 191.647,
      "duration": 0.176,
      "velocity": 0.51,
      "hand": "left"
    },
    {
      "midi": 42,
      "time": 191.824,
      "duration": 0.176,
      "velocity": 0.43,
      "hand": "left"
    },
    {
      "midi": 38,
      "time": 192,
      "duration": 0.353,
      "velocity": 0.86,
      "hand": "left"
    },
    {
      "midi": 38,
      "time": 192,
      "duration": 0.176,
      "velocity": 0.73,
      "hand": "left"
    },
    {
      "midi": 42,
      "time": 192,
      "duration": 0.176,
      "velocity": 0.58,
      "hand": "left"
    },
    {
      "midi": 50,
      "time": 192,
      "duration": 0.353,
      "velocity": 0.79,
      "hand": "left"
    },
    {
      "midi": 62,
      "time": 192,
      "duration": 0.353,
      "velocity": 0.79,
      "hand": "right"
    },
    {
      "midi": 42,
      "time": 192.353,
      "duration": 0.176,
      "velocity": 0.51,
      "hand": "left"
    },
    {
      "midi": 35,
      "time": 192.529,
      "duration": 0.176,
      "velocity": 0.58,
      "hand": "left"
    },
    {
      "midi": 38,
      "time": 192.529,
      "duration": 0.176,
      "velocity": 0.86,
      "hand": "left"
    },
    {
      "midi": 50,
      "time": 192.529,
      "duration": 0.176,
      "velocity": 0.79,
      "hand": "left"
    },
    {
      "midi": 62,
      "time": 192.529,
      "duration": 0.176,
      "velocity": 0.79,
      "hand": "right"
    },
    {
      "midi": 35,
      "time": 192.706,
      "duration": 0.176,
      "velocity": 0.73,
      "hand": "left"
    },
    {
      "midi": 38,
      "time": 192.706,
      "duration": 0.529,
      "velocity": 0.86,
      "hand": "left"
    },
    {
      "midi": 42,
      "time": 192.706,
      "duration": 0.176,
      "velocity": 0.65,
      "hand": "left"
    },
    {
      "midi": 50,
      "time": 192.706,
      "duration": 0.529,
      "velocity": 0.79,
      "hand": "left"
    },
    {
      "midi": 62,
      "time": 192.706,
      "duration": 0.529,
      "velocity": 0.79,
      "hand": "right"
    },
    {
      "midi": 69,
      "time": 192.706,
      "duration": 0.529,
      "velocity": 0.83,
      "hand": "right"
    },
    {
      "midi": 42,
      "time": 193.059,
      "duration": 0.176,
      "velocity": 0.51,
      "hand": "left"
    },
    {
      "midi": 42,
      "time": 193.235,
      "duration": 0.176,
      "velocity": 0.43,
      "hand": "left"
    },
    {
      "midi": 38,
      "time": 193.412,
      "duration": 0.176,
      "velocity": 0.73,
      "hand": "left"
    },
    {
      "midi": 42,
      "time": 193.412,
      "duration": 0.176,
      "velocity": 0.58,
      "hand": "left"
    },
    {
      "midi": 35,
      "time": 193.765,
      "duration": 0.176,
      "velocity": 0.58,
      "hand": "left"
    },
    {
      "midi": 42,
      "time": 193.765,
      "duration": 0.176,
      "velocity": 0.51,
      "hand": "left"
    },
    {
      "midi": 42,
      "time": 193.941,
      "duration": 0.176,
      "velocity": 0.43,
      "hand": "left"
    },
    {
      "midi": 35,
      "time": 194.118,
      "duration": 0.176,
      "velocity": 0.73,
      "hand": "left"
    },
    {
      "midi": 38,
      "time": 194.118,
      "duration": 0.529,
      "velocity": 0.86,
      "hand": "left"
    },
    {
      "midi": 42,
      "time": 194.118,
      "duration": 0.176,
      "velocity": 0.65,
      "hand": "left"
    },
    {
      "midi": 45,
      "time": 194.118,
      "duration": 0.529,
      "velocity": 0.86,
      "hand": "left"
    },
    {
      "midi": 50,
      "time": 194.118,
      "duration": 0.529,
      "velocity": 0.79,
      "hand": "left"
    },
    {
      "midi": 57,
      "time": 194.118,
      "duration": 0.529,
      "velocity": 0.79,
      "hand": "left"
    },
    {
      "midi": 66,
      "time": 194.118,
      "duration": 0.529,
      "velocity": 0.83,
      "hand": "right"
    },
    {
      "midi": 74,
      "time": 194.118,
      "duration": 0.529,
      "velocity": 0.83,
      "hand": "right"
    },
    {
      "midi": 42,
      "time": 194.471,
      "duration": 0.176,
      "velocity": 0.51,
      "hand": "left"
    },
    {
      "midi": 42,
      "time": 194.647,
      "duration": 0.176,
      "velocity": 0.43,
      "hand": "left"
    },
    {
      "midi": 38,
      "time": 194.824,
      "duration": 0.353,
      "velocity": 0.86,
      "hand": "left"
    },
    {
      "midi": 38,
      "time": 194.824,
      "duration": 0.176,
      "velocity": 0.73,
      "hand": "left"
    },
    {
      "midi": 42,
      "time": 194.824,
      "duration": 0.176,
      "velocity": 0.58,
      "hand": "left"
    },
    {
      "midi": 45,
      "time": 194.824,
      "duration": 0.353,
      "velocity": 0.86,
      "hand": "left"
    },
    {
      "midi": 50,
      "time": 194.824,
      "duration": 0.353,
      "velocity": 0.79,
      "hand": "left"
    },
    {
      "midi": 57,
      "time": 194.824,
      "duration": 0.353,
      "velocity": 0.79,
      "hand": "left"
    },
    {
      "midi": 66,
      "time": 194.824,
      "duration": 0.353,
      "velocity": 0.83,
      "hand": "right"
    },
    {
      "midi": 74,
      "time": 194.824,
      "duration": 0.353,
      "velocity": 0.83,
      "hand": "right"
    },
    {
      "midi": 42,
      "time": 195.176,
      "duration": 0.176,
      "velocity": 0.51,
      "hand": "left"
    },
    {
      "midi": 35,
      "time": 195.353,
      "duration": 0.176,
      "velocity": 0.58,
      "hand": "left"
    },
    {
      "midi": 38,
      "time": 195.353,
      "duration": 0.176,
      "velocity": 0.86,
      "hand": "left"
    },
    {
      "midi": 42,
      "time": 195.353,
      "duration": 0.176,
      "velocity": 0.43,
      "hand": "left"
    },
    {
      "midi": 45,
      "time": 195.353,
      "duration": 0.176,
      "velocity": 0.86,
      "hand": "left"
    },
    {
      "midi": 50,
      "time": 195.353,
      "duration": 0.176,
      "velocity": 0.79,
      "hand": "left"
    },
    {
      "midi": 57,
      "time": 195.353,
      "duration": 0.176,
      "velocity": 0.79,
      "hand": "left"
    },
    {
      "midi": 66,
      "time": 195.353,
      "duration": 0.176,
      "velocity": 0.83,
      "hand": "right"
    },
    {
      "midi": 74,
      "time": 195.353,
      "duration": 0.176,
      "velocity": 0.83,
      "hand": "right"
    },
    {
      "midi": 35,
      "time": 195.529,
      "duration": 0.176,
      "velocity": 0.73,
      "hand": "left"
    },
    {
      "midi": 42,
      "time": 195.529,
      "duration": 0.529,
      "velocity": 0.86,
      "hand": "left"
    },
    {
      "midi": 42,
      "time": 195.529,
      "duration": 0.176,
      "velocity": 0.65,
      "hand": "left"
    },
    {
      "midi": 45,
      "time": 195.529,
      "duration": 0.529,
      "velocity": 0.86,
      "hand": "left"
    },
    {
      "midi": 54,
      "time": 195.529,
      "duration": 0.529,
      "velocity": 0.79,
      "hand": "left"
    },
    {
      "midi": 57,
      "time": 195.529,
      "duration": 0.529,
      "velocity": 0.79,
      "hand": "left"
    },
    {
      "midi": 69,
      "time": 195.529,
      "duration": 0.529,
      "velocity": 0.83,
      "hand": "right"
    },
    {
      "midi": 74,
      "time": 195.529,
      "duration": 0.529,
      "velocity": 0.83,
      "hand": "right"
    },
    {
      "midi": 46,
      "time": 195.882,
      "duration": 0.176,
      "velocity": 0.51,
      "hand": "left"
    },
    {
      "midi": 38,
      "time": 196.235,
      "duration": 0.176,
      "velocity": 0.73,
      "hand": "left"
    },
    {
      "midi": 42,
      "time": 196.235,
      "duration": 0.353,
      "velocity": 0.86,
      "hand": "left"
    },
    {
      "midi": 42,
      "time": 196.235,
      "duration": 0.176,
      "velocity": 0.58,
      "hand": "left"
    },
    {
      "midi": 50,
      "time": 196.235,
      "duration": 0.353,
      "velocity": 0.86,
      "hand": "left"
    },
    {
      "midi": 54,
      "time": 196.235,
      "duration": 0.353,
      "velocity": 0.79,
      "hand": "left"
    },
    {
      "midi": 62,
      "time": 196.235,
      "duration": 0.353,
      "velocity": 0.79,
      "hand": "right"
    },
    {
      "midi": 69,
      "time": 196.235,
      "duration": 0.353,
      "velocity": 0.83,
      "hand": "right"
    },
    {
      "midi": 74,
      "time": 196.235,
      "duration": 0.353,
      "velocity": 0.83,
      "hand": "right"
    },
    {
      "midi": 35,
      "time": 196.588,
      "duration": 0.176,
      "velocity": 0.58,
      "hand": "left"
    },
    {
      "midi": 42,
      "time": 196.588,
      "duration": 0.176,
      "velocity": 0.51,
      "hand": "left"
    },
    {
      "midi": 42,
      "time": 196.765,
      "duration": 0.176,
      "velocity": 0.86,
      "hand": "left"
    },
    {
      "midi": 50,
      "time": 196.765,
      "duration": 0.176,
      "velocity": 0.86,
      "hand": "left"
    },
    {
      "midi": 54,
      "time": 196.765,
      "duration": 0.176,
      "velocity": 0.79,
      "hand": "left"
    },
    {
      "midi": 62,
      "time": 196.765,
      "duration": 0.176,
      "velocity": 0.79,
      "hand": "right"
    },
    {
      "midi": 69,
      "time": 196.765,
      "duration": 0.176,
      "velocity": 0.83,
      "hand": "right"
    },
    {
      "midi": 73,
      "time": 196.765,
      "duration": 0.176,
      "velocity": 0.83,
      "hand": "right"
    },
    {
      "midi": 35,
      "time": 196.941,
      "duration": 0.176,
      "velocity": 0.73,
      "hand": "left"
    },
    {
      "midi": 42,
      "time": 196.941,
      "duration": 0.176,
      "velocity": 0.65,
      "hand": "left"
    },
    {
      "midi": 43,
      "time": 196.941,
      "duration": 0.529,
      "velocity": 0.86,
      "hand": "left"
    },
    {
      "midi": 50,
      "time": 196.941,
      "duration": 0.529,
      "velocity": 0.86,
      "hand": "left"
    },
    {
      "midi": 55,
      "time": 196.941,
      "duration": 0.529,
      "velocity": 0.79,
      "hand": "left"
    },
    {
      "midi": 62,
      "time": 196.941,
      "duration": 0.529,
      "velocity": 0.79,
      "hand": "right"
    },
    {
      "midi": 67,
      "time": 196.941,
      "duration": 0.529,
      "velocity": 0.83,
      "hand": "right"
    },
    {
      "midi": 71,
      "time": 196.941,
      "duration": 0.882,
      "velocity": 0.83,
      "hand": "right"
    },
    {
      "midi": 42,
      "time": 197.294,
      "duration": 0.176,
      "velocity": 0.51,
      "hand": "left"
    },
    {
      "midi": 42,
      "time": 197.471,
      "duration": 0.176,
      "velocity": 0.43,
      "hand": "left"
    },
    {
      "midi": 38,
      "time": 197.647,
      "duration": 0.176,
      "velocity": 0.73,
      "hand": "left"
    },
    {
      "midi": 42,
      "time": 197.647,
      "duration": 0.176,
      "velocity": 0.58,
      "hand": "left"
    },
    {
      "midi": 43,
      "time": 197.647,
      "duration": 0.353,
      "velocity": 0.86,
      "hand": "left"
    },
    {
      "midi": 50,
      "time": 197.647,
      "duration": 0.353,
      "velocity": 0.86,
      "hand": "left"
    },
    {
      "midi": 55,
      "time": 197.647,
      "duration": 0.353,
      "velocity": 0.79,
      "hand": "left"
    },
    {
      "midi": 62,
      "time": 197.647,
      "duration": 0.353,
      "velocity": 0.79,
      "hand": "right"
    },
    {
      "midi": 67,
      "time": 197.647,
      "duration": 0.353,
      "velocity": 0.83,
      "hand": "right"
    },
    {
      "midi": 42,
      "time": 198,
      "duration": 0.176,
      "velocity": 0.51,
      "hand": "left"
    },
    {
      "midi": 35,
      "time": 198.176,
      "duration": 0.176,
      "velocity": 0.58,
      "hand": "left"
    },
    {
      "midi": 38,
      "time": 198.176,
      "duration": 0.176,
      "velocity": 0.26,
      "hand": "left"
    },
    {
      "midi": 43,
      "time": 198.176,
      "duration": 0.176,
      "velocity": 0.86,
      "hand": "left"
    },
    {
      "midi": 50,
      "time": 198.176,
      "duration": 0.176,
      "velocity": 0.86,
      "hand": "left"
    },
    {
      "midi": 55,
      "time": 198.176,
      "duration": 0.176,
      "velocity": 0.79,
      "hand": "left"
    },
    {
      "midi": 62,
      "time": 198.176,
      "duration": 0.176,
      "velocity": 0.79,
      "hand": "right"
    },
    {
      "midi": 67,
      "time": 198.176,
      "duration": 0.176,
      "velocity": 0.83,
      "hand": "right"
    },
    {
      "midi": 35,
      "time": 198.353,
      "duration": 0.176,
      "velocity": 0.73,
      "hand": "left"
    },
    {
      "midi": 42,
      "time": 198.353,
      "duration": 0.176,
      "velocity": 0.65,
      "hand": "left"
    },
    {
      "midi": 47,
      "time": 198.353,
      "duration": 0.529,
      "velocity": 0.86,
      "hand": "left"
    },
    {
      "midi": 50,
      "time": 198.353,
      "duration": 0.529,
      "velocity": 0.86,
      "hand": "left"
    },
    {
      "midi": 59,
      "time": 198.353,
      "duration": 0.529,
      "velocity": 0.79,
      "hand": "left"
    },
    {
      "midi": 62,
      "time": 198.353,
      "duration": 0.529,
      "velocity": 0.79,
      "hand": "right"
    },
    {
      "midi": 67,
      "time": 198.353,
      "duration": 0.529,
      "velocity": 0.83,
      "hand": "right"
    },
    {
      "midi": 42,
      "time": 198.706,
      "duration": 0.176,
      "velocity": 0.51,
      "hand": "left"
    },
    {
      "midi": 42,
      "time": 198.882,
      "duration": 0.176,
      "velocity": 0.43,
      "hand": "left"
    },
    {
      "midi": 38,
      "time": 199.059,
      "duration": 0.176,
      "velocity": 0.73,
      "hand": "left"
    },
    {
      "midi": 42,
      "time": 199.059,
      "duration": 0.176,
      "velocity": 0.58,
      "hand": "left"
    },
    {
      "midi": 43,
      "time": 199.059,
      "duration": 0.353,
      "velocity": 0.86,
      "hand": "left"
    },
    {
      "midi": 50,
      "time": 199.059,
      "duration": 0.353,
      "velocity": 0.86,
      "hand": "left"
    },
    {
      "midi": 55,
      "time": 199.059,
      "duration": 0.353,
      "velocity": 0.79,
      "hand": "left"
    },
    {
      "midi": 62,
      "time": 199.059,
      "duration": 0.353,
      "velocity": 0.79,
      "hand": "right"
    },
    {
      "midi": 67,
      "time": 199.059,
      "duration": 0.353,
      "velocity": 0.83,
      "hand": "right"
    },
    {
      "midi": 71,
      "time": 199.059,
      "duration": 0.529,
      "velocity": 0.83,
      "hand": "right"
    },
    {
      "midi": 35,
      "time": 199.412,
      "duration": 0.176,
      "velocity": 0.58,
      "hand": "left"
    },
    {
      "midi": 42,
      "time": 199.412,
      "duration": 0.176,
      "velocity": 0.51,
      "hand": "left"
    },
    {
      "midi": 42,
      "time": 199.588,
      "duration": 0.176,
      "velocity": 0.43,
      "hand": "left"
    },
    {
      "midi": 43,
      "time": 199.588,
      "duration": 0.176,
      "velocity": 0.86,
      "hand": "left"
    },
    {
      "midi": 50,
      "time": 199.588,
      "duration": 0.176,
      "velocity": 0.86,
      "hand": "left"
    },
    {
      "midi": 55,
      "time": 199.588,
      "duration": 0.176,
      "velocity": 0.79,
      "hand": "left"
    },
    {
      "midi": 62,
      "time": 199.588,
      "duration": 0.176,
      "velocity": 0.79,
      "hand": "right"
    },
    {
      "midi": 67,
      "time": 199.588,
      "duration": 0.176,
      "velocity": 0.83,
      "hand": "right"
    },
    {
      "midi": 35,
      "time": 199.765,
      "duration": 0.176,
      "velocity": 0.65,
      "hand": "left"
    },
    {
      "midi": 42,
      "time": 199.765,
      "duration": 0.176,
      "velocity": 0.58,
      "hand": "left"
    },
    {
      "midi": 45,
      "time": 199.765,
      "duration": 0.529,
      "velocity": 0.86,
      "hand": "left"
    },
    {
      "midi": 50,
      "time": 199.765,
      "duration": 0.529,
      "velocity": 0.86,
      "hand": "left"
    },
    {
      "midi": 57,
      "time": 199.765,
      "duration": 0.529,
      "velocity": 0.79,
      "hand": "left"
    },
    {
      "midi": 62,
      "time": 199.765,
      "duration": 0.529,
      "velocity": 0.79,
      "hand": "right"
    },
    {
      "midi": 66,
      "time": 199.765,
      "duration": 0.529,
      "velocity": 0.83,
      "hand": "right"
    },
    {
      "midi": 69,
      "time": 199.765,
      "duration": 0.529,
      "velocity": 0.83,
      "hand": "right"
    },
    {
      "midi": 42,
      "time": 200.118,
      "duration": 0.176,
      "velocity": 0.36,
      "hand": "left"
    },
    {
      "midi": 42,
      "time": 200.294,
      "duration": 0.176,
      "velocity": 0.73,
      "hand": "left"
    },
    {
      "midi": 33,
      "time": 200.471,
      "duration": 0.353,
      "velocity": 0.86,
      "hand": "left"
    },
    {
      "midi": 38,
      "time": 200.471,
      "duration": 0.176,
      "velocity": 0.73,
      "hand": "left"
    },
    {
      "midi": 45,
      "time": 200.471,
      "duration": 0.353,
      "velocity": 0.79,
      "hand": "left"
    },
    {
      "midi": 46,
      "time": 200.471,
      "duration": 0.176,
      "velocity": 0.73,
      "hand": "left"
    },
    {
      "midi": 57,
      "time": 200.471,
      "duration": 0.353,
      "velocity": 0.79,
      "hand": "left"
    },
    {
      "midi": 62,
      "time": 200.471,
      "duration": 0.353,
      "velocity": 0.83,
      "hand": "right"
    },
    {
      "midi": 66,
      "time": 200.471,
      "duration": 0.353,
      "velocity": 0.83,
      "hand": "right"
    },
    {
      "midi": 35,
      "time": 201,
      "duration": 0.176,
      "velocity": 0.86,
      "hand": "left"
    },
    {
      "midi": 42,
      "time": 201,
      "duration": 0.176,
      "velocity": 0.86,
      "hand": "left"
    },
    {
      "midi": 47,
      "time": 201,
      "duration": 0.176,
      "velocity": 0.79,
      "hand": "left"
    },
    {
      "midi": 54,
      "time": 201,
      "duration": 0.176,
      "velocity": 0.79,
      "hand": "left"
    },
    {
      "midi": 62,
      "time": 201,
      "duration": 0.176,
      "velocity": 0.83,
      "hand": "right"
    },
    {
      "midi": 33,
      "time": 201.176,
      "duration": 0.529,
      "velocity": 0.86,
      "hand": "left"
    },
    {
      "midi": 38,
      "time": 201.176,
      "duration": 0.176,
      "velocity": 0.73,
      "hand": "left"
    },
    {
      "midi": 45,
      "time": 201.176,
      "duration": 0.529,
      "velocity": 0.79,
      "hand": "left"
    },
    {
      "midi": 57,
      "time": 201.176,
      "duration": 0.529,
      "velocity": 0.79,
      "hand": "left"
    },
    {
      "midi": 62,
      "time": 201.176,
      "duration": 0.529,
      "velocity": 0.83,
      "hand": "right"
    },
    {
      "midi": 64,
      "time": 201.176,
      "duration": 0.529,
      "velocity": 0.83,
      "hand": "right"
    },
    {
      "midi": 38,
      "time": 201.353,
      "duration": 0.176,
      "velocity": 0.43,
      "hand": "left"
    },
    {
      "midi": 35,
      "time": 201.706,
      "duration": 0.176,
      "velocity": 0.65,
      "hand": "left"
    },
    {
      "midi": 33,
      "time": 201.882,
      "duration": 0.353,
      "velocity": 0.86,
      "hand": "left"
    },
    {
      "midi": 38,
      "time": 201.882,
      "duration": 0.176,
      "velocity": 0.73,
      "hand": "left"
    },
    {
      "midi": 45,
      "time": 201.882,
      "duration": 0.353,
      "velocity": 0.79,
      "hand": "left"
    },
    {
      "midi": 57,
      "time": 201.882,
      "duration": 0.353,
      "velocity": 0.79,
      "hand": "left"
    },
    {
      "midi": 61,
      "time": 201.882,
      "duration": 0.353,
      "velocity": 0.83,
      "hand": "right"
    },
    {
      "midi": 66,
      "time": 201.882,
      "duration": 0.353,
      "velocity": 0.83,
      "hand": "right"
    },
    {
      "midi": 38,
      "time": 202.059,
      "duration": 0.176,
      "velocity": 0.43,
      "hand": "left"
    },
    {
      "midi": 41,
      "time": 202.235,
      "duration": 0.176,
      "velocity": 0.83,
      "hand": "left"
    },
    {
      "midi": 33,
      "time": 202.412,
      "duration": 0.176,
      "velocity": 0.86,
      "hand": "left"
    },
    {
      "midi": 43,
      "time": 202.412,
      "duration": 0.176,
      "velocity": 0.86,
      "hand": "left"
    },
    {
      "midi": 45,
      "time": 202.412,
      "duration": 0.176,
      "velocity": 0.79,
      "hand": "left"
    },
    {
      "midi": 55,
      "time": 202.412,
      "duration": 0.176,
      "velocity": 0.79,
      "hand": "left"
    },
    {
      "midi": 61,
      "time": 202.412,
      "duration": 0.176,
      "velocity": 0.83,
      "hand": "right"
    },
    {
      "midi": 64,
      "time": 202.412,
      "duration": 0.176,
      "velocity": 0.83,
      "hand": "right"
    },
    {
      "midi": 35,
      "time": 202.588,
      "duration": 0.176,
      "velocity": 0.73,
      "hand": "left"
    },
    {
      "midi": 38,
      "time": 202.588,
      "duration": 1.588,
      "velocity": 0.86,
      "hand": "left"
    },
    {
      "midi": 49,
      "time": 202.588,
      "duration": 0.176,
      "velocity": 0.65,
      "hand": "left"
    },
    {
      "midi": 50,
      "time": 202.588,
      "duration": 1.588,
      "velocity": 0.79,
      "hand": "left"
    },
    {
      "midi": 62,
      "time": 202.588,
      "duration": 1.588,
      "velocity": 0.83,
      "hand": "right"
    },
    {
      "midi": 62,
      "time": 202.588,
      "duration": 2.294,
      "velocity": 0.86,
      "hand": "right"
    },
    {
      "midi": 38,
      "time": 203.118,
      "duration": 0.176,
      "velocity": 0.51,
      "hand": "left"
    },
    {
      "midi": 38,
      "time": 203.294,
      "duration": 0.176,
      "velocity": 0.83,
      "hand": "left"
    },
    {
      "midi": 43,
      "time": 203.294,
      "duration": 0.529,
      "velocity": 0.86,
      "hand": "left"
    },
    {
      "midi": 55,
      "time": 203.294,
      "duration": 0.529,
      "velocity": 0.79,
      "hand": "left"
    },
    {
      "midi": 59,
      "time": 203.294,
      "duration": 0.529,
      "velocity": 0.83,
      "hand": "left"
    },
    {
      "midi": 35,
      "time": 203.471,
      "duration": 0.176,
      "velocity": 0.65,
      "hand": "left"
    },
    {
      "midi": 48,
      "time": 203.647,
      "duration": 0.176,
      "velocity": 0.73,
      "hand": "left"
    },
    {
      "midi": 38,
      "time": 204,
      "duration": 0.529,
      "velocity": 0.86,
      "hand": "left"
    },
    {
      "midi": 42,
      "time": 204,
      "duration": 0.529,
      "velocity": 0.86,
      "hand": "left"
    },
    {
      "midi": 50,
      "time": 204,
      "duration": 0.529,
      "velocity": 0.79,
      "hand": "left"
    },
    {
      "midi": 54,
      "time": 204,
      "duration": 0.529,
      "velocity": 0.79,
      "hand": "left"
    },
    {
      "midi": 57,
      "time": 204,
      "duration": 0.529,
      "velocity": 0.83,
      "hand": "left"
    },
    {
      "midi": 62,
      "time": 204,
      "duration": 0.529,
      "velocity": 0.83,
      "hand": "right"
    },
    {
      "midi": 45,
      "time": 204.176,
      "duration": 0.176,
      "velocity": 0.83,
      "hand": "left"
    },
    {
      "midi": 41,
      "time": 204.706,
      "duration": 0.176,
      "velocity": 0.93,
      "hand": "left"
    },
    {
      "midi": 35,
      "time": 205.059,
      "duration": 0.176,
      "velocity": 0.58,
      "hand": "left"
    },
    {
      "midi": 35,
      "time": 205.412,
      "duration": 0.176,
      "velocity": 0.73,
      "hand": "left"
    },
    {
      "midi": 49,
      "time": 205.412,
      "duration": 0.176,
      "velocity": 0.65,
      "hand": "left"
    },
    {
      "midi": 59,
      "time": 205.412,
      "duration": 1.941,
      "velocity": 0.73,
      "hand": "left"
    }
  ]
}
