{
  "id": "amazing-grace",
  "title": "Amazing Grace",
  "artist": "John Newton",
  "difficulty": "Difícil",
  "bpm": 80,
  "duration": 33,
  "category": "Religiosos",
  "isPremium": false,
  "coverUrl": "/images/covers/placeholder.png",
  "notes": [
    {
      "midi": 43,
      "time": 0,
      "duration": 0.735,
      "velocity": 0.52,
      "hand": "left"
    },
    {
      "midi": 55,
      "time": 0,
      "duration": 0.75,
      "velocity": 0.52,
      "hand": "left"
    },
    {
      "midi": 62,
      "time": 0,
      "duration": 0.75,
      "velocity": 0.52,
      "hand": "right"
    },
    {
      "midi": 43,
      "time": 0.75,
      "duration": 1.485,
      "velocity": 0.51,
      "hand": "left"
    },
    {
      "midi": 50,
      "time": 0.75,
      "duration": 1.5,
      "velocity": 0.51,
      "hand": "left"
    },
    {
      "midi": 67,
      "time": 0.75,
      "duration": 1.5,
      "velocity": 0.69,
      "hand": "right"
    },
    {
      "midi": 43,
      "time": 2.25,
      "duration": 0.375,
      "velocity": 0.52,
      "hand": "left"
    },
    {
      "midi": 55,
      "time": 2.25,
      "duration": 0.735,
      "velocity": 0.61,
      "hand": "left"
    },
    {
      "midi": 62,
      "time": 2.25,
      "duration": 0.735,
      "velocity": 0.56,
      "hand": "right"
    },
    {
      "midi": 71,
      "time": 2.25,
      "duration": 0.375,
      "velocity": 0.7,
      "hand": "right"
    },
    {
      "midi": 47,
      "time": 2.625,
      "duration": 0.375,
      "velocity": 0.65,
      "hand": "left"
    },
    {
      "midi": 67,
      "time": 2.625,
      "duration": 0.375,
      "velocity": 0.57,
      "hand": "right"
    },
    {
      "midi": 50,
      "time": 3,
      "duration": 1.485,
      "velocity": 0.6,
      "hand": "left"
    },
    {
      "midi": 55,
      "time": 3,
      "duration": 1.5,
      "velocity": 0.6,
      "hand": "left"
    },
    {
      "midi": 62,
      "time": 3,
      "duration": 1.5,
      "velocity": 0.65,
      "hand": "right"
    },
    {
      "midi": 71,
      "time": 3,
      "duration": 1.5,
      "velocity": 0.65,
      "hand": "right"
    },
    {
      "midi": 50,
      "time": 4.5,
      "duration": 0.75,
      "velocity": 0.61,
      "hand": "left"
    },
    {
      "midi": 54,
      "time": 4.5,
      "duration": 0.75,
      "velocity": 0.61,
      "hand": "left"
    },
    {
      "midi": 60,
      "time": 4.5,
      "duration": 0.75,
      "velocity": 0.55,
      "hand": "right"
    },
    {
      "midi": 69,
      "time": 4.5,
      "duration": 0.75,
      "velocity": 0.55,
      "hand": "right"
    },
    {
      "midi": 52,
      "time": 5.25,
      "duration": 1.5,
      "velocity": 0.6,
      "hand": "left"
    },
    {
      "midi": 55,
      "time": 5.25,
      "duration": 1.485,
      "velocity": 0.6,
      "hand": "left"
    },
    {
      "midi": 67,
      "time": 5.25,
      "duration": 1.5,
      "velocity": 0.54,
      "hand": "right"
    },
    {
      "midi": 48,
      "time": 6.75,
      "duration": 0.75,
      "velocity": 0.59,
      "hand": "left"
    },
    {
      "midi": 55,
      "time": 6.75,
      "duration": 0.735,
      "velocity": 0.59,
      "hand": "left"
    },
    {
      "midi": 60,
      "time": 6.75,
      "duration": 0.75,
      "velocity": 0.51,
      "hand": "right"
    },
    {
      "midi": 64,
      "time": 6.75,
      "duration": 0.75,
      "velocity": 0.51,
      "hand": "right"
    },
    {
      "midi": 43,
      "time": 7.5,
      "duration": 1.485,
      "velocity": 0.57,
      "hand": "left"
    },
    {
      "midi": 55,
      "time": 7.5,
      "duration": 1.485,
      "velocity": 0.57,
      "hand": "left"
    },
    {
      "midi": 62,
      "time": 7.5,
      "duration": 1.485,
      "velocity": 0.54,
      "hand": "right"
    },
    {
      "midi": 43,
      "time": 9,
      "duration": 0.735,
      "velocity": 0.6,
      "hand": "left"
    },
    {
      "midi": 55,
      "time": 9,
      "duration": 0.75,
      "velocity": 0.6,
      "hand": "left"
    },
    {
      "midi": 62,
      "time": 9,
      "duration": 0.75,
      "velocity": 0.61,
      "hand": "right"
    },
    {
      "midi": 43,
      "time": 9.75,
      "duration": 1.485,
      "velocity": 0.59,
      "hand": "left"
    },
    {
      "midi": 50,
      "time": 9.75,
      "duration": 1.5,
      "velocity": 0.59,
      "hand": "left"
    },
    {
      "midi": 67,
      "time": 9.75,
      "duration": 1.5,
      "velocity": 0.68,
      "hand": "right"
    },
    {
      "midi": 43,
      "time": 11.25,
      "duration": 0.375,
      "velocity": 0.52,
      "hand": "left"
    },
    {
      "midi": 55,
      "time": 11.25,
      "duration": 0.735,
      "velocity": 0.65,
      "hand": "left"
    },
    {
      "midi": 62,
      "time": 11.25,
      "duration": 0.735,
      "velocity": 0.54,
      "hand": "right"
    },
    {
      "midi": 71,
      "time": 11.25,
      "duration": 0.375,
      "velocity": 0.67,
      "hand": "right"
    },
    {
      "midi": 47,
      "time": 11.625,
      "duration": 0.375,
      "velocity": 0.61,
      "hand": "left"
    },
    {
      "midi": 67,
      "time": 11.625,
      "duration": 0.375,
      "velocity": 0.54,
      "hand": "right"
    },
    {
      "midi": 50,
      "time": 12,
      "duration": 1.5,
      "velocity": 0.65,
      "hand": "left"
    },
    {
      "midi": 55,
      "time": 12,
      "duration": 1.5,
      "velocity": 0.65,
      "hand": "left"
    },
    {
      "midi": 62,
      "time": 12,
      "duration": 1.485,
      "velocity": 0.67,
      "hand": "right"
    },
    {
      "midi": 71,
      "time": 12,
      "duration": 1.5,
      "velocity": 0.67,
      "hand": "right"
    },
    {
      "midi": 48,
      "time": 13.5,
      "duration": 0.75,
      "velocity": 0.57,
      "hand": "left"
    },
    {
      "midi": 54,
      "time": 13.5,
      "duration": 0.75,
      "velocity": 0.57,
      "hand": "left"
    },
    {
      "midi": 62,
      "time": 13.5,
      "duration": 0.735,
      "velocity": 0.55,
      "hand": "right"
    },
    {
      "midi": 69,
      "time": 13.5,
      "duration": 0.75,
      "velocity": 0.55,
      "hand": "right"
    },
    {
      "midi": 47,
      "time": 14.25,
      "duration": 1.5,
      "velocity": 0.61,
      "hand": "left"
    },
    {
      "midi": 55,
      "time": 14.25,
      "duration": 1.485,
      "velocity": 0.61,
      "hand": "left"
    },
    {
      "midi": 62,
      "time": 14.25,
      "duration": 1.485,
      "velocity": 0.67,
      "hand": "right"
    },
    {
      "midi": 74,
      "time": 14.25,
      "duration": 1.5,
      "velocity": 0.67,
      "hand": "right"
    },
    {
      "midi": 43,
      "time": 15.75,
      "duration": 0.75,
      "velocity": 0.62,
      "hand": "left"
    },
    {
      "midi": 55,
      "time": 15.75,
      "duration": 0.735,
      "velocity": 0.62,
      "hand": "left"
    },
    {
      "midi": 62,
      "time": 15.75,
      "duration": 0.735,
      "velocity": 0.52,
      "hand": "right"
    },
    {
      "midi": 71,
      "time": 15.75,
      "duration": 0.75,
      "velocity": 0.52,
      "hand": "right"
    },
    {
      "midi": 55,
      "time": 16.5,
      "duration": 1.11,
      "velocity": 0.64,
      "hand": "left"
    },
    {
      "midi": 59,
      "time": 16.5,
      "duration": 1.125,
      "velocity": 0.63,
      "hand": "left"
    },
    {
      "midi": 62,
      "time": 16.5,
      "duration": 1.485,
      "velocity": 0.55,
      "hand": "right"
    },
    {
      "midi": 74,
      "time": 16.5,
      "duration": 1.125,
      "velocity": 0.67,
      "hand": "right"
    },
    {
      "midi": 55,
      "time": 17.625,
      "duration": 0.36,
      "velocity": 0.57,
      "hand": "left"
    },
    {
      "midi": 71,
      "time": 17.625,
      "duration": 0.375,
      "velocity": 0.51,
      "hand": "right"
    },
    {
      "midi": 55,
      "time": 18,
      "duration": 0.36,
      "velocity": 0.61,
      "hand": "left"
    },
    {
      "midi": 59,
      "time": 18,
      "duration": 0.375,
      "velocity": 0.63,
      "hand": "left"
    },
    {
      "midi": 62,
      "time": 18,
      "duration": 0.735,
      "velocity": 0.6,
      "hand": "right"
    },
    {
      "midi": 74,
      "time": 18,
      "duration": 0.375,
      "velocity": 0.65,
      "hand": "right"
    },
    {
      "midi": 55,
      "time": 18.375,
      "duration": 0.36,
      "velocity": 0.55,
      "hand": "left"
    },
    {
      "midi": 71,
      "time": 18.375,
      "duration": 0.375,
      "velocity": 0.54,
      "hand": "right"
    },
    {
      "midi": 47,
      "time": 18.75,
      "duration": 1.485,
      "velocity": 0.58,
      "hand": "left"
    },
    {
      "midi": 55,
      "time": 18.75,
      "duration": 1.485,
      "velocity": 0.58,
      "hand": "left"
    },
    {
      "midi": 62,
      "time": 18.75,
      "duration": 1.485,
      "velocity": 0.52,
      "hand": "right"
    },
    {
      "midi": 67,
      "time": 18.75,
      "duration": 1.5,
      "velocity": 0.52,
      "hand": "right"
    },
    {
      "midi": 47,
      "time": 20.25,
      "duration": 0.75,
      "velocity": 0.61,
      "hand": "left"
    },
    {
      "midi": 55,
      "time": 20.25,
      "duration": 0.735,
      "velocity": 0.61,
      "hand": "left"
    },
    {
      "midi": 62,
      "time": 20.25,
      "duration": 0.75,
      "velocity": 0.48,
      "hand": "right"
    },
    {
      "midi": 48,
      "time": 21,
      "duration": 1.125,
      "velocity": 0.57,
      "hand": "left"
    },
    {
      "midi": 55,
      "time": 21,
      "duration": 1.5,
      "velocity": 0.64,
      "hand": "left"
    },
    {
      "midi": 60,
      "time": 21,
      "duration": 1.125,
      "velocity": 0.65,
      "hand": "right"
    },
    {
      "midi": 64,
      "time": 21,
      "duration": 1.125,
      "velocity": 0.65,
      "hand": "right"
    },
    {
      "midi": 47,
      "time": 22.125,
      "duration": 0.375,
      "velocity": 0.56,
      "hand": "left"
    },
    {
      "midi": 62,
      "time": 22.125,
      "duration": 0.375,
      "velocity": 0.63,
      "hand": "right"
    },
    {
      "midi": 67,
      "time": 22.125,
      "duration": 0.36,
      "velocity": 0.63,
      "hand": "right"
    },
    {
      "midi": 48,
      "time": 22.5,
      "duration": 0.75,
      "velocity": 0.62,
      "hand": "left"
    },
    {
      "midi": 52,
      "time": 22.5,
      "duration": 0.375,
      "velocity": 0.56,
      "hand": "left"
    },
    {
      "midi": 60,
      "time": 22.5,
      "duration": 0.75,
      "velocity": 0.52,
      "hand": "right"
    },
    {
      "midi": 67,
      "time": 22.5,
      "duration": 0.375,
      "velocity": 0.57,
      "hand": "right"
    },
    {
      "midi": 55,
      "time": 22.875,
      "duration": 0.36,
      "velocity": 0.61,
      "hand": "left"
    },
    {
      "midi": 64,
      "time": 22.875,
      "duration": 0.375,
      "velocity": 0.55,
      "hand": "right"
    },
    {
      "midi": 43,
      "time": 23.25,
      "duration": 1.5,
      "velocity": 0.61,
      "hand": "left"
    },
    {
      "midi": 55,
      "time": 23.25,
      "duration": 1.485,
      "velocity": 0.61,
      "hand": "left"
    },
    {
      "midi": 62,
      "time": 23.25,
      "duration": 1.485,
      "velocity": 0.56,
      "hand": "right"
    },
    {
      "midi": 47,
      "time": 24.75,
      "duration": 0.75,
      "velocity": 0.6,
      "hand": "left"
    },
    {
      "midi": 55,
      "time": 24.75,
      "duration": 0.735,
      "velocity": 0.6,
      "hand": "left"
    },
    {
      "midi": 62,
      "time": 24.75,
      "duration": 0.75,
      "velocity": 0.57,
      "hand": "right"
    },
    {
      "midi": 52,
      "time": 25.5,
      "duration": 1.5,
      "velocity": 0.59,
      "hand": "left"
    },
    {
      "midi": 55,
      "time": 25.5,
      "duration": 1.485,
      "velocity": 0.59,
      "hand": "left"
    },
    {
      "midi": 67,
      "time": 25.5,
      "duration": 1.5,
      "velocity": 0.7,
      "hand": "right"
    },
    {
      "midi": 50,
      "time": 27,
      "duration": 0.735,
      "velocity": 0.55,
      "hand": "left"
    },
    {
      "midi": 55,
      "time": 27,
      "duration": 0.375,
      "velocity": 0.53,
      "hand": "left"
    },
    {
      "midi": 62,
      "time": 27,
      "duration": 0.735,
      "velocity": 0.56,
      "hand": "right"
    },
    {
      "midi": 71,
      "time": 27,
      "duration": 0.375,
      "velocity": 0.68,
      "hand": "right"
    },
    {
      "midi": 59,
      "time": 27.375,
      "duration": 0.375,
      "velocity": 0.63,
      "hand": "left"
    },
    {
      "midi": 67,
      "time": 27.375,
      "duration": 0.375,
      "velocity": 0.57,
      "hand": "right"
    },
    {
      "midi": 50,
      "time": 27.75,
      "duration": 1.485,
      "velocity": 0.56,
      "hand": "left"
    },
    {
      "midi": 55,
      "time": 27.75,
      "duration": 1.5,
      "velocity": 0.56,
      "hand": "left"
    },
    {
      "midi": 62,
      "time": 27.75,
      "duration": 1.5,
      "velocity": 0.67,
      "hand": "right"
    },
    {
      "midi": 71,
      "time": 27.75,
      "duration": 1.5,
      "velocity": 0.67,
      "hand": "right"
    },
    {
      "midi": 50,
      "time": 29.25,
      "duration": 0.75,
      "velocity": 0.61,
      "hand": "left"
    },
    {
      "midi": 54,
      "time": 29.25,
      "duration": 0.75,
      "velocity": 0.61,
      "hand": "left"
    },
    {
      "midi": 60,
      "time": 29.25,
      "duration": 0.75,
      "velocity": 0.56,
      "hand": "right"
    },
    {
      "midi": 69,
      "time": 29.25,
      "duration": 0.75,
      "velocity": 0.56,
      "hand": "right"
    },
    {
      "midi": 43,
      "time": 30,
      "duration": 1.5,
      "velocity": 0.62,
      "hand": "left"
    },
    {
      "midi": 55,
      "time": 30,
      "duration": 1.5,
      "velocity": 0.62,
      "hand": "left"
    },
    {
      "midi": 67,
      "time": 30,
      "duration": 1.5,
      "velocity": 0.54,
      "hand": "right"
    }
  ],
  "arrangements": {
    "easy": [
      {
        "midi": 62,
        "time": 0,
        "duration": 0.75,
        "velocity": 0.52,
        "hand": "right"
      },
      {
        "midi": 67,
        "time": 0.75,
        "duration": 1.5,
        "velocity": 0.69,
        "hand": "right"
      },
      {
        "midi": 71,
        "time": 2.25,
        "duration": 0.45,
        "velocity": 0.7,
        "hand": "right"
      },
      {
        "midi": 71,
        "time": 3,
        "duration": 1.5,
        "velocity": 0.65,
        "hand": "right"
      },
      {
        "midi": 69,
        "time": 4.5,
        "duration": 0.75,
        "velocity": 0.55,
        "hand": "right"
      },
      {
        "midi": 67,
        "time": 5.25,
        "duration": 1.5,
        "velocity": 0.54,
        "hand": "right"
      },
      {
        "midi": 64,
        "time": 6.75,
        "duration": 0.75,
        "velocity": 0.51,
        "hand": "right"
      },
      {
        "midi": 62,
        "time": 7.5,
        "duration": 1.485,
        "velocity": 0.54,
        "hand": "right"
      },
      {
        "midi": 62,
        "time": 9,
        "duration": 0.75,
        "velocity": 0.61,
        "hand": "right"
      },
      {
        "midi": 67,
        "time": 9.75,
        "duration": 1.5,
        "velocity": 0.68,
        "hand": "right"
      },
      {
        "midi": 71,
        "time": 11.25,
        "duration": 0.45,
        "velocity": 0.67,
        "hand": "right"
      },
      {
        "midi": 71,
        "time": 12,
        "duration": 1.5,
        "velocity": 0.67,
        "hand": "right"
      },
      {
        "midi": 69,
        "time": 13.5,
        "duration": 0.75,
        "velocity": 0.55,
        "hand": "right"
      },
      {
        "midi": 74,
        "time": 14.25,
        "duration": 1.5,
        "velocity": 0.67,
        "hand": "right"
      },
      {
        "midi": 71,
        "time": 15.75,
        "duration": 0.75,
        "velocity": 0.52,
        "hand": "right"
      },
      {
        "midi": 74,
        "time": 16.5,
        "duration": 1.125,
        "velocity": 0.67,
        "hand": "right"
      },
      {
        "midi": 71,
        "time": 17.625,
        "duration": 0.45,
        "velocity": 0.51,
        "hand": "right"
      },
      {
        "midi": 71,
        "time": 18.375,
        "duration": 0.45,
        "velocity": 0.54,
        "hand": "right"
      },
      {
        "midi": 62,
        "time": 20.25,
        "duration": 0.75,
        "velocity": 0.48,
        "hand": "right"
      },
      {
        "midi": 64,
        "time": 21,
        "duration": 1.125,
        "velocity": 0.65,
        "hand": "right"
      },
      {
        "midi": 67,
        "time": 22.125,
        "duration": 0.45,
        "velocity": 0.63,
        "hand": "right"
      },
      {
        "midi": 64,
        "time": 22.875,
        "duration": 0.45,
        "velocity": 0.55,
        "hand": "right"
      },
      {
        "midi": 62,
        "time": 24.75,
        "duration": 0.75,
        "velocity": 0.57,
        "hand": "right"
      },
      {
        "midi": 67,
        "time": 25.5,
        "duration": 1.5,
        "velocity": 0.7,
        "hand": "right"
      },
      {
        "midi": 71,
        "time": 27,
        "duration": 0.45,
        "velocity": 0.68,
        "hand": "right"
      },
      {
        "midi": 71,
        "time": 27.75,
        "duration": 1.5,
        "velocity": 0.67,
        "hand": "right"
      },
      {
        "midi": 69,
        "time": 29.25,
        "duration": 0.75,
        "velocity": 0.56,
        "hand": "right"
      },
      {
        "midi": 67,
        "time": 30,
        "duration": 1.5,
        "velocity": 0.54,
        "hand": "right"
      }
    ],
    "medium": [
      {
        "midi": 55,
        "time": 0,
        "duration": 0.735,
        "velocity": 0.52,
        "hand": "left"
      },
      {
        "midi": 62,
        "time": 0,
        "duration": 0.75,
        "velocity": 0.52,
        "hand": "right"
      },
      {
        "midi": 55,
        "time": 0.75,
        "duration": 1.485,
        "velocity": 0.51,
        "hand": "left"
      },
      {
        "midi": 67,
        "time": 0.75,
        "duration": 1.5,
        "velocity": 0.69,
        "hand": "right"
      },
      {
        "midi": 55,
        "time": 2.25,
        "duration": 0.375,
        "velocity": 0.52,
        "hand": "left"
      },
      {
        "midi": 71,
        "time": 2.25,
        "duration": 0.375,
        "velocity": 0.7,
        "hand": "right"
      },
      {
        "midi": 71,
        "time": 3,
        "duration": 1.5,
        "velocity": 0.65,
        "hand": "right"
      },
      {
        "midi": 69,
        "time": 4.5,
        "duration": 0.75,
        "velocity": 0.55,
        "hand": "right"
      },
      {
        "midi": 52,
        "time": 5.25,
        "duration": 1.5,
        "velocity": 0.6,
        "hand": "left"
      },
      {
        "midi": 67,
        "time": 5.25,
        "duration": 1.5,
        "velocity": 0.54,
        "hand": "right"
      },
      {
        "midi": 48,
        "time": 6.75,
        "duration": 0.75,
        "velocity": 0.59,
        "hand": "left"
      },
      {
        "midi": 64,
        "time": 6.75,
        "duration": 0.75,
        "velocity": 0.51,
        "hand": "right"
      },
      {
        "midi": 55,
        "time": 7.5,
        "duration": 1.485,
        "velocity": 0.57,
        "hand": "left"
      },
      {
        "midi": 62,
        "time": 7.5,
        "duration": 1.485,
        "velocity": 0.54,
        "hand": "right"
      },
      {
        "midi": 55,
        "time": 9,
        "duration": 0.735,
        "velocity": 0.6,
        "hand": "left"
      },
      {
        "midi": 62,
        "time": 9,
        "duration": 0.75,
        "velocity": 0.61,
        "hand": "right"
      },
      {
        "midi": 55,
        "time": 9.75,
        "duration": 1.485,
        "velocity": 0.59,
        "hand": "left"
      },
      {
        "midi": 67,
        "time": 9.75,
        "duration": 1.5,
        "velocity": 0.68,
        "hand": "right"
      },
      {
        "midi": 55,
        "time": 11.25,
        "duration": 0.375,
        "velocity": 0.52,
        "hand": "left"
      },
      {
        "midi": 71,
        "time": 11.25,
        "duration": 0.375,
        "velocity": 0.67,
        "hand": "right"
      },
      {
        "midi": 71,
        "time": 12,
        "duration": 1.5,
        "velocity": 0.67,
        "hand": "right"
      },
      {
        "midi": 69,
        "time": 13.5,
        "duration": 0.75,
        "velocity": 0.55,
        "hand": "right"
      },
      {
        "midi": 59,
        "time": 14.25,
        "duration": 1.5,
        "velocity": 0.61,
        "hand": "left"
      },
      {
        "midi": 74,
        "time": 14.25,
        "duration": 1.5,
        "velocity": 0.67,
        "hand": "right"
      },
      {
        "midi": 55,
        "time": 15.75,
        "duration": 0.75,
        "velocity": 0.62,
        "hand": "left"
      },
      {
        "midi": 71,
        "time": 15.75,
        "duration": 0.75,
        "velocity": 0.52,
        "hand": "right"
      },
      {
        "midi": 74,
        "time": 16.5,
        "duration": 1.125,
        "velocity": 0.67,
        "hand": "right"
      },
      {
        "midi": 55,
        "time": 17.625,
        "duration": 0.36,
        "velocity": 0.57,
        "hand": "left"
      },
      {
        "midi": 71,
        "time": 17.625,
        "duration": 0.375,
        "velocity": 0.51,
        "hand": "right"
      },
      {
        "midi": 55,
        "time": 18.375,
        "duration": 0.36,
        "velocity": 0.55,
        "hand": "left"
      },
      {
        "midi": 71,
        "time": 18.375,
        "duration": 0.375,
        "velocity": 0.54,
        "hand": "right"
      },
      {
        "midi": 47,
        "time": 20.25,
        "duration": 0.75,
        "velocity": 0.61,
        "hand": "left"
      },
      {
        "midi": 62,
        "time": 20.25,
        "duration": 0.75,
        "velocity": 0.48,
        "hand": "right"
      },
      {
        "midi": 48,
        "time": 21,
        "duration": 1.125,
        "velocity": 0.57,
        "hand": "left"
      },
      {
        "midi": 64,
        "time": 21,
        "duration": 1.125,
        "velocity": 0.65,
        "hand": "right"
      },
      {
        "midi": 59,
        "time": 22.125,
        "duration": 0.375,
        "velocity": 0.56,
        "hand": "left"
      },
      {
        "midi": 67,
        "time": 22.125,
        "duration": 0.36,
        "velocity": 0.63,
        "hand": "right"
      },
      {
        "midi": 55,
        "time": 22.875,
        "duration": 0.36,
        "velocity": 0.61,
        "hand": "left"
      },
      {
        "midi": 64,
        "time": 22.875,
        "duration": 0.375,
        "velocity": 0.55,
        "hand": "right"
      },
      {
        "midi": 47,
        "time": 24.75,
        "duration": 0.75,
        "velocity": 0.6,
        "hand": "left"
      },
      {
        "midi": 62,
        "time": 24.75,
        "duration": 0.75,
        "velocity": 0.57,
        "hand": "right"
      },
      {
        "midi": 52,
        "time": 25.5,
        "duration": 1.5,
        "velocity": 0.59,
        "hand": "left"
      },
      {
        "midi": 67,
        "time": 25.5,
        "duration": 1.5,
        "velocity": 0.7,
        "hand": "right"
      },
      {
        "midi": 71,
        "time": 27,
        "duration": 0.375,
        "velocity": 0.68,
        "hand": "right"
      },
      {
        "midi": 71,
        "time": 27.75,
        "duration": 1.5,
        "velocity": 0.67,
        "hand": "right"
      },
      {
        "midi": 69,
        "time": 29.25,
        "duration": 0.75,
        "velocity": 0.56,
        "hand": "right"
      },
      {
        "midi": 55,
        "time": 30,
        "duration": 1.5,
        "velocity": 0.62,
        "hand": "left"
      },
      {
        "midi": 67,
        "time": 30,
        "duration": 1.5,
        "velocity": 0.54,
        "hand": "right"
      }
    ],
    "hard": [
      {
        "midi": 43,
        "time": 0,
        "duration": 0.735,
        "velocity": 0.52,
        "hand": "left"
      },
      {
        "midi": 55,
        "time": 0,
        "duration": 0.75,
        "velocity": 0.52,
        "hand": "left"
      },
      {
        "midi": 62,
        "time": 0,
        "duration": 0.75,
        "velocity": 0.52,
        "hand": "right"
      },
      {
        "midi": 43,
        "time": 0.75,
        "duration": 1.485,
        "velocity": 0.51,
        "hand": "left"
      },
      {
        "midi": 50,
        "time": 0.75,
        "duration": 1.5,
        "velocity": 0.51,
        "hand": "left"
      },
      {
        "midi": 67,
        "time": 0.75,
        "duration": 1.5,
        "velocity": 0.69,
        "hand": "right"
      },
      {
        "midi": 43,
        "time": 2.25,
        "duration": 0.375,
        "velocity": 0.52,
        "hand": "left"
      },
      {
        "midi": 55,
        "time": 2.25,
        "duration": 0.735,
        "velocity": 0.61,
        "hand": "left"
      },
      {
        "midi": 62,
        "time": 2.25,
        "duration": 0.735,
        "velocity": 0.56,
        "hand": "right"
      },
      {
        "midi": 71,
        "time": 2.25,
        "duration": 0.375,
        "velocity": 0.7,
        "hand": "right"
      },
      {
        "midi": 47,
        "time": 2.625,
        "duration": 0.375,
        "velocity": 0.65,
        "hand": "left"
      },
      {
        "midi": 67,
        "time": 2.625,
        "duration": 0.375,
        "velocity": 0.57,
        "hand": "right"
      },
      {
        "midi": 50,
        "time": 3,
        "duration": 1.485,
        "velocity": 0.6,
        "hand": "left"
      },
      {
        "midi": 55,
        "time": 3,
        "duration": 1.5,
        "velocity": 0.6,
        "hand": "left"
      },
      {
        "midi": 62,
        "time": 3,
        "duration": 1.5,
        "velocity": 0.65,
        "hand": "right"
      },
      {
        "midi": 71,
        "time": 3,
        "duration": 1.5,
        "velocity": 0.65,
        "hand": "right"
      },
      {
        "midi": 50,
        "time": 4.5,
        "duration": 0.75,
        "velocity": 0.61,
        "hand": "left"
      },
      {
        "midi": 54,
        "time": 4.5,
        "duration": 0.75,
        "velocity": 0.61,
        "hand": "left"
      },
      {
        "midi": 60,
        "time": 4.5,
        "duration": 0.75,
        "velocity": 0.55,
        "hand": "right"
      },
      {
        "midi": 69,
        "time": 4.5,
        "duration": 0.75,
        "velocity": 0.55,
        "hand": "right"
      },
      {
        "midi": 52,
        "time": 5.25,
        "duration": 1.5,
        "velocity": 0.6,
        "hand": "left"
      },
      {
        "midi": 55,
        "time": 5.25,
        "duration": 1.485,
        "velocity": 0.6,
        "hand": "left"
      },
      {
        "midi": 67,
        "time": 5.25,
        "duration": 1.5,
        "velocity": 0.54,
        "hand": "right"
      },
      {
        "midi": 48,
        "time": 6.75,
        "duration": 0.75,
        "velocity": 0.59,
        "hand": "left"
      },
      {
        "midi": 55,
        "time": 6.75,
        "duration": 0.735,
        "velocity": 0.59,
        "hand": "left"
      },
      {
        "midi": 60,
        "time": 6.75,
        "duration": 0.75,
        "velocity": 0.51,
        "hand": "right"
      },
      {
        "midi": 64,
        "time": 6.75,
        "duration": 0.75,
        "velocity": 0.51,
        "hand": "right"
      },
      {
        "midi": 43,
        "time": 7.5,
        "duration": 1.485,
        "velocity": 0.57,
        "hand": "left"
      },
      {
        "midi": 55,
        "time": 7.5,
        "duration": 1.485,
        "velocity": 0.57,
        "hand": "left"
      },
      {
        "midi": 62,
        "time": 7.5,
        "duration": 1.485,
        "velocity": 0.54,
        "hand": "right"
      },
      {
        "midi": 43,
        "time": 9,
        "duration": 0.735,
        "velocity": 0.6,
        "hand": "left"
      },
      {
        "midi": 55,
        "time": 9,
        "duration": 0.75,
        "velocity": 0.6,
        "hand": "left"
      },
      {
        "midi": 62,
        "time": 9,
        "duration": 0.75,
        "velocity": 0.61,
        "hand": "right"
      },
      {
        "midi": 43,
        "time": 9.75,
        "duration": 1.485,
        "velocity": 0.59,
        "hand": "left"
      },
      {
        "midi": 50,
        "time": 9.75,
        "duration": 1.5,
        "velocity": 0.59,
        "hand": "left"
      },
      {
        "midi": 67,
        "time": 9.75,
        "duration": 1.5,
        "velocity": 0.68,
        "hand": "right"
      },
      {
        "midi": 43,
        "time": 11.25,
        "duration": 0.375,
        "velocity": 0.52,
        "hand": "left"
      },
      {
        "midi": 55,
        "time": 11.25,
        "duration": 0.735,
        "velocity": 0.65,
        "hand": "left"
      },
      {
        "midi": 62,
        "time": 11.25,
        "duration": 0.735,
        "velocity": 0.54,
        "hand": "right"
      },
      {
        "midi": 71,
        "time": 11.25,
        "duration": 0.375,
        "velocity": 0.67,
        "hand": "right"
      },
      {
        "midi": 47,
        "time": 11.625,
        "duration": 0.375,
        "velocity": 0.61,
        "hand": "left"
      },
      {
        "midi": 67,
        "time": 11.625,
        "duration": 0.375,
        "velocity": 0.54,
        "hand": "right"
      },
      {
        "midi": 50,
        "time": 12,
        "duration": 1.5,
        "velocity": 0.65,
        "hand": "left"
      },
      {
        "midi": 55,
        "time": 12,
        "duration": 1.5,
        "velocity": 0.65,
        "hand": "left"
      },
      {
        "midi": 62,
        "time": 12,
        "duration": 1.485,
        "velocity": 0.67,
        "hand": "right"
      },
      {
        "midi": 71,
        "time": 12,
        "duration": 1.5,
        "velocity": 0.67,
        "hand": "right"
      },
      {
        "midi": 48,
        "time": 13.5,
        "duration": 0.75,
        "velocity": 0.57,
        "hand": "left"
      },
      {
        "midi": 54,
        "time": 13.5,
        "duration": 0.75,
        "velocity": 0.57,
        "hand": "left"
      },
      {
        "midi": 62,
        "time": 13.5,
        "duration": 0.735,
        "velocity": 0.55,
        "hand": "right"
      },
      {
        "midi": 69,
        "time": 13.5,
        "duration": 0.75,
        "velocity": 0.55,
        "hand": "right"
      },
      {
        "midi": 47,
        "time": 14.25,
        "duration": 1.5,
        "velocity": 0.61,
        "hand": "left"
      },
      {
        "midi": 55,
        "time": 14.25,
        "duration": 1.485,
        "velocity": 0.61,
        "hand": "left"
      },
      {
        "midi": 62,
        "time": 14.25,
        "duration": 1.485,
        "velocity": 0.67,
        "hand": "right"
      },
      {
        "midi": 74,
        "time": 14.25,
        "duration": 1.5,
        "velocity": 0.67,
        "hand": "right"
      },
      {
        "midi": 43,
        "time": 15.75,
        "duration": 0.75,
        "velocity": 0.62,
        "hand": "left"
      },
      {
        "midi": 55,
        "time": 15.75,
        "duration": 0.735,
        "velocity": 0.62,
        "hand": "left"
      },
      {
        "midi": 62,
        "time": 15.75,
        "duration": 0.735,
        "velocity": 0.52,
        "hand": "right"
      },
      {
        "midi": 71,
        "time": 15.75,
        "duration": 0.75,
        "velocity": 0.52,
        "hand": "right"
      },
      {
        "midi": 55,
        "time": 16.5,
        "duration": 1.11,
        "velocity": 0.64,
        "hand": "left"
      },
      {
        "midi": 59,
        "time": 16.5,
        "duration": 1.125,
        "velocity": 0.63,
        "hand": "left"
      },
      {
        "midi": 62,
        "time": 16.5,
        "duration": 1.485,
        "velocity": 0.55,
        "hand": "right"
      },
      {
        "midi": 74,
        "time": 16.5,
        "duration": 1.125,
        "velocity": 0.67,
        "hand": "right"
      },
      {
        "midi": 55,
        "time": 17.625,
        "duration": 0.36,
        "velocity": 0.57,
        "hand": "left"
      },
      {
        "midi": 71,
        "time": 17.625,
        "duration": 0.375,
        "velocity": 0.51,
        "hand": "right"
      },
      {
        "midi": 55,
        "time": 18,
        "duration": 0.36,
        "velocity": 0.61,
        "hand": "left"
      },
      {
        "midi": 59,
        "time": 18,
        "duration": 0.375,
        "velocity": 0.63,
        "hand": "left"
      },
      {
        "midi": 62,
        "time": 18,
        "duration": 0.735,
        "velocity": 0.6,
        "hand": "right"
      },
      {
        "midi": 74,
        "time": 18,
        "duration": 0.375,
        "velocity": 0.65,
        "hand": "right"
      },
      {
        "midi": 55,
        "time": 18.375,
        "duration": 0.36,
        "velocity": 0.55,
        "hand": "left"
      },
      {
        "midi": 71,
        "time": 18.375,
        "duration": 0.375,
        "velocity": 0.54,
        "hand": "right"
      },
      {
        "midi": 47,
        "time": 18.75,
        "duration": 1.485,
        "velocity": 0.58,
        "hand": "left"
      },
      {
        "midi": 55,
        "time": 18.75,
        "duration": 1.485,
        "velocity": 0.58,
        "hand": "left"
      },
      {
        "midi": 62,
        "time": 18.75,
        "duration": 1.485,
        "velocity": 0.52,
        "hand": "right"
      },
      {
        "midi": 67,
        "time": 18.75,
        "duration": 1.5,
        "velocity": 0.52,
        "hand": "right"
      },
      {
        "midi": 47,
        "time": 20.25,
        "duration": 0.75,
        "velocity": 0.61,
        "hand": "left"
      },
      {
        "midi": 55,
        "time": 20.25,
        "duration": 0.735,
        "velocity": 0.61,
        "hand": "left"
      },
      {
        "midi": 62,
        "time": 20.25,
        "duration": 0.75,
        "velocity": 0.48,
        "hand": "right"
      },
      {
        "midi": 48,
        "time": 21,
        "duration": 1.125,
        "velocity": 0.57,
        "hand": "left"
      },
      {
        "midi": 55,
        "time": 21,
        "duration": 1.5,
        "velocity": 0.64,
        "hand": "left"
      },
      {
        "midi": 60,
        "time": 21,
        "duration": 1.125,
        "velocity": 0.65,
        "hand": "right"
      },
      {
        "midi": 64,
        "time": 21,
        "duration": 1.125,
        "velocity": 0.65,
        "hand": "right"
      },
      {
        "midi": 47,
        "time": 22.125,
        "duration": 0.375,
        "velocity": 0.56,
        "hand": "left"
      },
      {
        "midi": 62,
        "time": 22.125,
        "duration": 0.375,
        "velocity": 0.63,
        "hand": "right"
      },
      {
        "midi": 67,
        "time": 22.125,
        "duration": 0.36,
        "velocity": 0.63,
        "hand": "right"
      },
      {
        "midi": 48,
        "time": 22.5,
        "duration": 0.75,
        "velocity": 0.62,
        "hand": "left"
      },
      {
        "midi": 52,
        "time": 22.5,
        "duration": 0.375,
        "velocity": 0.56,
        "hand": "left"
      },
      {
        "midi": 60,
        "time": 22.5,
        "duration": 0.75,
        "velocity": 0.52,
        "hand": "right"
      },
      {
        "midi": 67,
        "time": 22.5,
        "duration": 0.375,
        "velocity": 0.57,
        "hand": "right"
      },
      {
        "midi": 55,
        "time": 22.875,
        "duration": 0.36,
        "velocity": 0.61,
        "hand": "left"
      },
      {
        "midi": 64,
        "time": 22.875,
        "duration": 0.375,
        "velocity": 0.55,
        "hand": "right"
      },
      {
        "midi": 43,
        "time": 23.25,
        "duration": 1.5,
        "velocity": 0.61,
        "hand": "left"
      },
      {
        "midi": 55,
        "time": 23.25,
        "duration": 1.485,
        "velocity": 0.61,
        "hand": "left"
      },
      {
        "midi": 62,
        "time": 23.25,
        "duration": 1.485,
        "velocity": 0.56,
        "hand": "right"
      },
      {
        "midi": 47,
        "time": 24.75,
        "duration": 0.75,
        "velocity": 0.6,
        "hand": "left"
      },
      {
        "midi": 55,
        "time": 24.75,
        "duration": 0.735,
        "velocity": 0.6,
        "hand": "left"
      },
      {
        "midi": 62,
        "time": 24.75,
        "duration": 0.75,
        "velocity": 0.57,
        "hand": "right"
      },
      {
        "midi": 52,
        "time": 25.5,
        "duration": 1.5,
        "velocity": 0.59,
        "hand": "left"
      },
      {
        "midi": 55,
        "time": 25.5,
        "duration": 1.485,
        "velocity": 0.59,
        "hand": "left"
      },
      {
        "midi": 67,
        "time": 25.5,
        "duration": 1.5,
        "velocity": 0.7,
        "hand": "right"
      },
      {
        "midi": 50,
        "time": 27,
        "duration": 0.735,
        "velocity": 0.55,
        "hand": "left"
      },
      {
        "midi": 55,
        "time": 27,
        "duration": 0.375,
        "velocity": 0.53,
        "hand": "left"
      },
      {
        "midi": 62,
        "time": 27,
        "duration": 0.735,
        "velocity": 0.56,
        "hand": "right"
      },
      {
        "midi": 71,
        "time": 27,
        "duration": 0.375,
        "velocity": 0.68,
        "hand": "right"
      },
      {
        "midi": 59,
        "time": 27.375,
        "duration": 0.375,
        "velocity": 0.63,
        "hand": "left"
      },
      {
        "midi": 67,
        "time": 27.375,
        "duration": 0.375,
        "velocity": 0.57,
        "hand": "right"
      },
      {
        "midi": 50,
        "time": 27.75,
        "duration": 1.485,
        "velocity": 0.56,
        "hand": "left"
      },
      {
        "midi": 55,
        "time": 27.75,
        "duration": 1.5,
        "velocity": 0.56,
        "hand": "left"
      },
      {
        "midi": 62,
        "time": 27.75,
        "duration": 1.5,
        "velocity": 0.67,
        "hand": "right"
      },
      {
        "midi": 71,
        "time": 27.75,
        "duration": 1.5,
        "velocity": 0.67,
        "hand": "right"
      },
      {
        "midi": 50,
        "time": 29.25,
        "duration": 0.75,
        "velocity": 0.61,
        "hand": "left"
      },
      {
        "midi": 54,
        "time": 29.25,
        "duration": 0.75,
        "velocity": 0.61,
        "hand": "left"
      },
      {
        "midi": 60,
        "time": 29.25,
        "duration": 0.75,
        "velocity": 0.56,
        "hand": "right"
      },
      {
        "midi": 69,
        "time": 29.25,
        "duration": 0.75,
        "velocity": 0.56,
        "hand": "right"
      },
      {
        "midi": 43,
        "time": 30,
        "duration": 1.5,
        "velocity": 0.62,
        "hand": "left"
      },
      {
        "midi": 55,
        "time": 30,
        "duration": 1.5,
        "velocity": 0.62,
        "hand": "left"
      },
      {
        "midi": 67,
        "time": 30,
        "duration": 1.5,
        "velocity": 0.54,
        "hand": "right"
      }
    ]
  },
  "notes1Hand": [
    {
      "midi": 62,
      "time": 0,
      "duration": 0.75,
      "velocity": 0.52,
      "hand": "right"
    },
    {
      "midi": 67,
      "time": 0.75,
      "duration": 1.5,
      "velocity": 0.69,
      "hand": "right"
    },
    {
      "midi": 71,
      "time": 2.25,
      "duration": 0.45,
      "velocity": 0.7,
      "hand": "right"
    },
    {
      "midi": 71,
      "time": 3,
      "duration": 1.5,
      "velocity": 0.65,
      "hand": "right"
    },
    {
      "midi": 69,
      "time": 4.5,
      "duration": 0.75,
      "velocity": 0.55,
      "hand": "right"
    },
    {
      "midi": 67,
      "time": 5.25,
      "duration": 1.5,
      "velocity": 0.54,
      "hand": "right"
    },
    {
      "midi": 64,
      "time": 6.75,
      "duration": 0.75,
      "velocity": 0.51,
      "hand": "right"
    },
    {
      "midi": 62,
      "time": 7.5,
      "duration": 1.485,
      "velocity": 0.54,
      "hand": "right"
    },
    {
      "midi": 62,
      "time": 9,
      "duration": 0.75,
      "velocity": 0.61,
      "hand": "right"
    },
    {
      "midi": 67,
      "time": 9.75,
      "duration": 1.5,
      "velocity": 0.68,
      "hand": "right"
    },
    {
      "midi": 71,
      "time": 11.25,
      "duration": 0.45,
      "velocity": 0.67,
      "hand": "right"
    },
    {
      "midi": 71,
      "time": 12,
      "duration": 1.5,
      "velocity": 0.67,
      "hand": "right"
    },
    {
      "midi": 69,
      "time": 13.5,
      "duration": 0.75,
      "velocity": 0.55,
      "hand": "right"
    },
    {
      "midi": 74,
      "time": 14.25,
      "duration": 1.5,
      "velocity": 0.67,
      "hand": "right"
    },
    {
      "midi": 71,
      "time": 15.75,
      "duration": 0.75,
      "velocity": 0.52,
      "hand": "right"
    },
    {
      "midi": 74,
      "time": 16.5,
      "duration": 1.125,
      "velocity": 0.67,
      "hand": "right"
    },
    {
      "midi": 71,
      "time": 17.625,
      "duration": 0.45,
      "velocity": 0.51,
      "hand": "right"
    },
    {
      "midi": 71,
      "time": 18.375,
      "duration": 0.45,
      "velocity": 0.54,
      "hand": "right"
    },
    {
      "midi": 62,
      "time": 20.25,
      "duration": 0.75,
      "velocity": 0.48,
      "hand": "right"
    },
    {
      "midi": 64,
      "time": 21,
      "duration": 1.125,
      "velocity": 0.65,
      "hand": "right"
    },
    {
      "midi": 67,
      "time": 22.125,
      "duration": 0.45,
      "velocity": 0.63,
      "hand": "right"
    },
    {
      "midi": 64,
      "time": 22.875,
      "duration": 0.45,
      "velocity": 0.55,
      "hand": "right"
    },
    {
      "midi": 62,
      "time": 24.75,
      "duration": 0.75,
      "velocity": 0.57,
      "hand": "right"
    },
    {
      "midi": 67,
      "time": 25.5,
      "duration": 1.5,
      "velocity": 0.7,
      "hand": "right"
    },
    {
      "midi": 71,
      "time": 27,
      "duration": 0.45,
      "velocity": 0.68,
      "hand": "right"
    },
    {
      "midi": 71,
      "time": 27.75,
      "duration": 1.5,
      "velocity": 0.67,
      "hand": "right"
    },
    {
      "midi": 69,
      "time": 29.25,
      "duration": 0.75,
      "velocity": 0.56,
      "hand": "right"
    },
    {
      "midi": 67,
      "time": 30,
      "duration": 1.5,
      "velocity": 0.54,
      "hand": "right"
    }
  ],
  "notes2Hands": [
    {
      "midi": 43,
      "time": 0,
      "duration": 0.735,
      "velocity": 0.52,
      "hand": "left"
    },
    {
      "midi": 55,
      "time": 0,
      "duration": 0.75,
      "velocity": 0.52,
      "hand": "left"
    },
    {
      "midi": 62,
      "time": 0,
      "duration": 0.75,
      "velocity": 0.52,
      "hand": "right"
    },
    {
      "midi": 43,
      "time": 0.75,
      "duration": 1.485,
      "velocity": 0.51,
      "hand": "left"
    },
    {
      "midi": 50,
      "time": 0.75,
      "duration": 1.5,
      "velocity": 0.51,
      "hand": "left"
    },
    {
      "midi": 67,
      "time": 0.75,
      "duration": 1.5,
      "velocity": 0.69,
      "hand": "right"
    },
    {
      "midi": 43,
      "time": 2.25,
      "duration": 0.375,
      "velocity": 0.52,
      "hand": "left"
    },
    {
      "midi": 55,
      "time": 2.25,
      "duration": 0.735,
      "velocity": 0.61,
      "hand": "left"
    },
    {
      "midi": 62,
      "time": 2.25,
      "duration": 0.735,
      "velocity": 0.56,
      "hand": "right"
    },
    {
      "midi": 71,
      "time": 2.25,
      "duration": 0.375,
      "velocity": 0.7,
      "hand": "right"
    },
    {
      "midi": 47,
      "time": 2.625,
      "duration": 0.375,
      "velocity": 0.65,
      "hand": "left"
    },
    {
      "midi": 67,
      "time": 2.625,
      "duration": 0.375,
      "velocity": 0.57,
      "hand": "right"
    },
    {
      "midi": 50,
      "time": 3,
      "duration": 1.485,
      "velocity": 0.6,
      "hand": "left"
    },
    {
      "midi": 55,
      "time": 3,
      "duration": 1.5,
      "velocity": 0.6,
      "hand": "left"
    },
    {
      "midi": 62,
      "time": 3,
      "duration": 1.5,
      "velocity": 0.65,
      "hand": "right"
    },
    {
      "midi": 71,
      "time": 3,
      "duration": 1.5,
      "velocity": 0.65,
      "hand": "right"
    },
    {
      "midi": 50,
      "time": 4.5,
      "duration": 0.75,
      "velocity": 0.61,
      "hand": "left"
    },
    {
      "midi": 54,
      "time": 4.5,
      "duration": 0.75,
      "velocity": 0.61,
      "hand": "left"
    },
    {
      "midi": 60,
      "time": 4.5,
      "duration": 0.75,
      "velocity": 0.55,
      "hand": "right"
    },
    {
      "midi": 69,
      "time": 4.5,
      "duration": 0.75,
      "velocity": 0.55,
      "hand": "right"
    },
    {
      "midi": 52,
      "time": 5.25,
      "duration": 1.5,
      "velocity": 0.6,
      "hand": "left"
    },
    {
      "midi": 55,
      "time": 5.25,
      "duration": 1.485,
      "velocity": 0.6,
      "hand": "left"
    },
    {
      "midi": 67,
      "time": 5.25,
      "duration": 1.5,
      "velocity": 0.54,
      "hand": "right"
    },
    {
      "midi": 48,
      "time": 6.75,
      "duration": 0.75,
      "velocity": 0.59,
      "hand": "left"
    },
    {
      "midi": 55,
      "time": 6.75,
      "duration": 0.735,
      "velocity": 0.59,
      "hand": "left"
    },
    {
      "midi": 60,
      "time": 6.75,
      "duration": 0.75,
      "velocity": 0.51,
      "hand": "right"
    },
    {
      "midi": 64,
      "time": 6.75,
      "duration": 0.75,
      "velocity": 0.51,
      "hand": "right"
    },
    {
      "midi": 43,
      "time": 7.5,
      "duration": 1.485,
      "velocity": 0.57,
      "hand": "left"
    },
    {
      "midi": 55,
      "time": 7.5,
      "duration": 1.485,
      "velocity": 0.57,
      "hand": "left"
    },
    {
      "midi": 62,
      "time": 7.5,
      "duration": 1.485,
      "velocity": 0.54,
      "hand": "right"
    },
    {
      "midi": 43,
      "time": 9,
      "duration": 0.735,
      "velocity": 0.6,
      "hand": "left"
    },
    {
      "midi": 55,
      "time": 9,
      "duration": 0.75,
      "velocity": 0.6,
      "hand": "left"
    },
    {
      "midi": 62,
      "time": 9,
      "duration": 0.75,
      "velocity": 0.61,
      "hand": "right"
    },
    {
      "midi": 43,
      "time": 9.75,
      "duration": 1.485,
      "velocity": 0.59,
      "hand": "left"
    },
    {
      "midi": 50,
      "time": 9.75,
      "duration": 1.5,
      "velocity": 0.59,
      "hand": "left"
    },
    {
      "midi": 67,
      "time": 9.75,
      "duration": 1.5,
      "velocity": 0.68,
      "hand": "right"
    },
    {
      "midi": 43,
      "time": 11.25,
      "duration": 0.375,
      "velocity": 0.52,
      "hand": "left"
    },
    {
      "midi": 55,
      "time": 11.25,
      "duration": 0.735,
      "velocity": 0.65,
      "hand": "left"
    },
    {
      "midi": 62,
      "time": 11.25,
      "duration": 0.735,
      "velocity": 0.54,
      "hand": "right"
    },
    {
      "midi": 71,
      "time": 11.25,
      "duration": 0.375,
      "velocity": 0.67,
      "hand": "right"
    },
    {
      "midi": 47,
      "time": 11.625,
      "duration": 0.375,
      "velocity": 0.61,
      "hand": "left"
    },
    {
      "midi": 67,
      "time": 11.625,
      "duration": 0.375,
      "velocity": 0.54,
      "hand": "right"
    },
    {
      "midi": 50,
      "time": 12,
      "duration": 1.5,
      "velocity": 0.65,
      "hand": "left"
    },
    {
      "midi": 55,
      "time": 12,
      "duration": 1.5,
      "velocity": 0.65,
      "hand": "left"
    },
    {
      "midi": 62,
      "time": 12,
      "duration": 1.485,
      "velocity": 0.67,
      "hand": "right"
    },
    {
      "midi": 71,
      "time": 12,
      "duration": 1.5,
      "velocity": 0.67,
      "hand": "right"
    },
    {
      "midi": 48,
      "time": 13.5,
      "duration": 0.75,
      "velocity": 0.57,
      "hand": "left"
    },
    {
      "midi": 54,
      "time": 13.5,
      "duration": 0.75,
      "velocity": 0.57,
      "hand": "left"
    },
    {
      "midi": 62,
      "time": 13.5,
      "duration": 0.735,
      "velocity": 0.55,
      "hand": "right"
    },
    {
      "midi": 69,
      "time": 13.5,
      "duration": 0.75,
      "velocity": 0.55,
      "hand": "right"
    },
    {
      "midi": 47,
      "time": 14.25,
      "duration": 1.5,
      "velocity": 0.61,
      "hand": "left"
    },
    {
      "midi": 55,
      "time": 14.25,
      "duration": 1.485,
      "velocity": 0.61,
      "hand": "left"
    },
    {
      "midi": 62,
      "time": 14.25,
      "duration": 1.485,
      "velocity": 0.67,
      "hand": "right"
    },
    {
      "midi": 74,
      "time": 14.25,
      "duration": 1.5,
      "velocity": 0.67,
      "hand": "right"
    },
    {
      "midi": 43,
      "time": 15.75,
      "duration": 0.75,
      "velocity": 0.62,
      "hand": "left"
    },
    {
      "midi": 55,
      "time": 15.75,
      "duration": 0.735,
      "velocity": 0.62,
      "hand": "left"
    },
    {
      "midi": 62,
      "time": 15.75,
      "duration": 0.735,
      "velocity": 0.52,
      "hand": "right"
    },
    {
      "midi": 71,
      "time": 15.75,
      "duration": 0.75,
      "velocity": 0.52,
      "hand": "right"
    },
    {
      "midi": 55,
      "time": 16.5,
      "duration": 1.11,
      "velocity": 0.64,
      "hand": "left"
    },
    {
      "midi": 59,
      "time": 16.5,
      "duration": 1.125,
      "velocity": 0.63,
      "hand": "left"
    },
    {
      "midi": 62,
      "time": 16.5,
      "duration": 1.485,
      "velocity": 0.55,
      "hand": "right"
    },
    {
      "midi": 74,
      "time": 16.5,
      "duration": 1.125,
      "velocity": 0.67,
      "hand": "right"
    },
    {
      "midi": 55,
      "time": 17.625,
      "duration": 0.36,
      "velocity": 0.57,
      "hand": "left"
    },
    {
      "midi": 71,
      "time": 17.625,
      "duration": 0.375,
      "velocity": 0.51,
      "hand": "right"
    },
    {
      "midi": 55,
      "time": 18,
      "duration": 0.36,
      "velocity": 0.61,
      "hand": "left"
    },
    {
      "midi": 59,
      "time": 18,
      "duration": 0.375,
      "velocity": 0.63,
      "hand": "left"
    },
    {
      "midi": 62,
      "time": 18,
      "duration": 0.735,
      "velocity": 0.6,
      "hand": "right"
    },
    {
      "midi": 74,
      "time": 18,
      "duration": 0.375,
      "velocity": 0.65,
      "hand": "right"
    },
    {
      "midi": 55,
      "time": 18.375,
      "duration": 0.36,
      "velocity": 0.55,
      "hand": "left"
    },
    {
      "midi": 71,
      "time": 18.375,
      "duration": 0.375,
      "velocity": 0.54,
      "hand": "right"
    },
    {
      "midi": 47,
      "time": 18.75,
      "duration": 1.485,
      "velocity": 0.58,
      "hand": "left"
    },
    {
      "midi": 55,
      "time": 18.75,
      "duration": 1.485,
      "velocity": 0.58,
      "hand": "left"
    },
    {
      "midi": 62,
      "time": 18.75,
      "duration": 1.485,
      "velocity": 0.52,
      "hand": "right"
    },
    {
      "midi": 67,
      "time": 18.75,
      "duration": 1.5,
      "velocity": 0.52,
      "hand": "right"
    },
    {
      "midi": 47,
      "time": 20.25,
      "duration": 0.75,
      "velocity": 0.61,
      "hand": "left"
    },
    {
      "midi": 55,
      "time": 20.25,
      "duration": 0.735,
      "velocity": 0.61,
      "hand": "left"
    },
    {
      "midi": 62,
      "time": 20.25,
      "duration": 0.75,
      "velocity": 0.48,
      "hand": "right"
    },
    {
      "midi": 48,
      "time": 21,
      "duration": 1.125,
      "velocity": 0.57,
      "hand": "left"
    },
    {
      "midi": 55,
      "time": 21,
      "duration": 1.5,
      "velocity": 0.64,
      "hand": "left"
    },
    {
      "midi": 60,
      "time": 21,
      "duration": 1.125,
      "velocity": 0.65,
      "hand": "right"
    },
    {
      "midi": 64,
      "time": 21,
      "duration": 1.125,
      "velocity": 0.65,
      "hand": "right"
    },
    {
      "midi": 47,
      "time": 22.125,
      "duration": 0.375,
      "velocity": 0.56,
      "hand": "left"
    },
    {
      "midi": 62,
      "time": 22.125,
      "duration": 0.375,
      "velocity": 0.63,
      "hand": "right"
    },
    {
      "midi": 67,
      "time": 22.125,
      "duration": 0.36,
      "velocity": 0.63,
      "hand": "right"
    },
    {
      "midi": 48,
      "time": 22.5,
      "duration": 0.75,
      "velocity": 0.62,
      "hand": "left"
    },
    {
      "midi": 52,
      "time": 22.5,
      "duration": 0.375,
      "velocity": 0.56,
      "hand": "left"
    },
    {
      "midi": 60,
      "time": 22.5,
      "duration": 0.75,
      "velocity": 0.52,
      "hand": "right"
    },
    {
      "midi": 67,
      "time": 22.5,
      "duration": 0.375,
      "velocity": 0.57,
      "hand": "right"
    },
    {
      "midi": 55,
      "time": 22.875,
      "duration": 0.36,
      "velocity": 0.61,
      "hand": "left"
    },
    {
      "midi": 64,
      "time": 22.875,
      "duration": 0.375,
      "velocity": 0.55,
      "hand": "right"
    },
    {
      "midi": 43,
      "time": 23.25,
      "duration": 1.5,
      "velocity": 0.61,
      "hand": "left"
    },
    {
      "midi": 55,
      "time": 23.25,
      "duration": 1.485,
      "velocity": 0.61,
      "hand": "left"
    },
    {
      "midi": 62,
      "time": 23.25,
      "duration": 1.485,
      "velocity": 0.56,
      "hand": "right"
    },
    {
      "midi": 47,
      "time": 24.75,
      "duration": 0.75,
      "velocity": 0.6,
      "hand": "left"
    },
    {
      "midi": 55,
      "time": 24.75,
      "duration": 0.735,
      "velocity": 0.6,
      "hand": "left"
    },
    {
      "midi": 62,
      "time": 24.75,
      "duration": 0.75,
      "velocity": 0.57,
      "hand": "right"
    },
    {
      "midi": 52,
      "time": 25.5,
      "duration": 1.5,
      "velocity": 0.59,
      "hand": "left"
    },
    {
      "midi": 55,
      "time": 25.5,
      "duration": 1.485,
      "velocity": 0.59,
      "hand": "left"
    },
    {
      "midi": 67,
      "time": 25.5,
      "duration": 1.5,
      "velocity": 0.7,
      "hand": "right"
    },
    {
      "midi": 50,
      "time": 27,
      "duration": 0.735,
      "velocity": 0.55,
      "hand": "left"
    },
    {
      "midi": 55,
      "time": 27,
      "duration": 0.375,
      "velocity": 0.53,
      "hand": "left"
    },
    {
      "midi": 62,
      "time": 27,
      "duration": 0.735,
      "velocity": 0.56,
      "hand": "right"
    },
    {
      "midi": 71,
      "time": 27,
      "duration": 0.375,
      "velocity": 0.68,
      "hand": "right"
    },
    {
      "midi": 59,
      "time": 27.375,
      "duration": 0.375,
      "velocity": 0.63,
      "hand": "left"
    },
    {
      "midi": 67,
      "time": 27.375,
      "duration": 0.375,
      "velocity": 0.57,
      "hand": "right"
    },
    {
      "midi": 50,
      "time": 27.75,
      "duration": 1.485,
      "velocity": 0.56,
      "hand": "left"
    },
    {
      "midi": 55,
      "time": 27.75,
      "duration": 1.5,
      "velocity": 0.56,
      "hand": "left"
    },
    {
      "midi": 62,
      "time": 27.75,
      "duration": 1.5,
      "velocity": 0.67,
      "hand": "right"
    },
    {
      "midi": 71,
      "time": 27.75,
      "duration": 1.5,
      "velocity": 0.67,
      "hand": "right"
    },
    {
      "midi": 50,
      "time": 29.25,
      "duration": 0.75,
      "velocity": 0.61,
      "hand": "left"
    },
    {
      "midi": 54,
      "time": 29.25,
      "duration": 0.75,
      "velocity": 0.61,
      "hand": "left"
    },
    {
      "midi": 60,
      "time": 29.25,
      "duration": 0.75,
      "velocity": 0.56,
      "hand": "right"
    },
    {
      "midi": 69,
      "time": 29.25,
      "duration": 0.75,
      "velocity": 0.56,
      "hand": "right"
    },
    {
      "midi": 43,
      "time": 30,
      "duration": 1.5,
      "velocity": 0.62,
      "hand": "left"
    },
    {
      "midi": 55,
      "time": 30,
      "duration": 1.5,
      "velocity": 0.62,
      "hand": "left"
    },
    {
      "midi": 67,
      "time": 30,
      "duration": 1.5,
      "velocity": 0.54,
      "hand": "right"
    }
  ]
}
