{
  "id": "aos-pes-da-cruz",
  "title": "Aos Pes da Cruz",
  "artist": "Isaac Watts / Ralph E. Hudson",
  "difficulty": "Difícil",
  "bpm": 90,
  "duration": 44,
  "category": "Religiosos",
  "isPremium": false,
  "coverUrl": "/images/covers/placeholder.png",
  "notes": [
    {
      "midi": 51,
      "time": 0,
      "duration": 0.652,
      "velocity": 0.51,
      "hand": "left"
    },
    {
      "midi": 55,
      "time": 0,
      "duration": 0.667,
      "velocity": 0.51,
      "hand": "left"
    },
    {
      "midi": 63,
      "time": 0,
      "duration": 0.652,
      "velocity": 0.54,
      "hand": "right"
    },
    {
      "midi": 51,
      "time": 0.667,
      "duration": 0.985,
      "velocity": 0.61,
      "hand": "left"
    },
    {
      "midi": 58,
      "time": 0.667,
      "duration": 1,
      "velocity": 0.61,
      "hand": "left"
    },
    {
      "midi": 63,
      "time": 0.667,
      "duration": 0.985,
      "velocity": 0.65,
      "hand": "right"
    },
    {
      "midi": 67,
      "time": 0.667,
      "duration": 1,
      "velocity": 0.65,
      "hand": "right"
    },
    {
      "midi": 51,
      "time": 1.667,
      "duration": 0.318,
      "velocity": 0.59,
      "hand": "left"
    },
    {
      "midi": 56,
      "time": 1.667,
      "duration": 0.333,
      "velocity": 0.59,
      "hand": "left"
    },
    {
      "midi": 63,
      "time": 1.667,
      "duration": 0.318,
      "velocity": 0.6,
      "hand": "right"
    },
    {
      "midi": 65,
      "time": 1.667,
      "duration": 0.333,
      "velocity": 0.6,
      "hand": "right"
    },
    {
      "midi": 51,
      "time": 2,
      "duration": 0.652,
      "velocity": 0.57,
      "hand": "left"
    },
    {
      "midi": 55,
      "time": 2,
      "duration": 0.667,
      "velocity": 0.57,
      "hand": "left"
    },
    {
      "midi": 63,
      "time": 2,
      "duration": 0.652,
      "velocity": 0.58,
      "hand": "right"
    },
    {
      "midi": 51,
      "time": 2.667,
      "duration": 0.651,
      "velocity": 0.61,
      "hand": "left"
    },
    {
      "midi": 58,
      "time": 2.667,
      "duration": 0.667,
      "velocity": 0.61,
      "hand": "left"
    },
    {
      "midi": 63,
      "time": 2.667,
      "duration": 0.651,
      "velocity": 0.65,
      "hand": "right"
    },
    {
      "midi": 67,
      "time": 2.667,
      "duration": 0.651,
      "velocity": 0.65,
      "hand": "right"
    },
    {
      "midi": 51,
      "time": 3.333,
      "duration": 0.985,
      "velocity": 0.68,
      "hand": "left"
    },
    {
      "midi": 63,
      "time": 3.333,
      "duration": 1,
      "velocity": 0.68,
      "hand": "right"
    },
    {
      "midi": 67,
      "time": 3.333,
      "duration": 1,
      "velocity": 0.64,
      "hand": "right"
    },
    {
      "midi": 70,
      "time": 3.333,
      "duration": 1,
      "velocity": 0.64,
      "hand": "right"
    },
    {
      "midi": 51,
      "time": 4.333,
      "duration": 0.319,
      "velocity": 0.58,
      "hand": "left"
    },
    {
      "midi": 58,
      "time": 4.333,
      "duration": 0.319,
      "velocity": 0.58,
      "hand": "left"
    },
    {
      "midi": 65,
      "time": 4.333,
      "duration": 0.333,
      "velocity": 0.53,
      "hand": "right"
    },
    {
      "midi": 68,
      "time": 4.333,
      "duration": 0.333,
      "velocity": 0.53,
      "hand": "right"
    },
    {
      "midi": 51,
      "time": 4.667,
      "duration": 0.667,
      "velocity": 0.59,
      "hand": "left"
    },
    {
      "midi": 58,
      "time": 4.667,
      "duration": 0.667,
      "velocity": 0.59,
      "hand": "left"
    },
    {
      "midi": 63,
      "time": 4.667,
      "duration": 0.651,
      "velocity": 0.56,
      "hand": "right"
    },
    {
      "midi": 67,
      "time": 4.667,
      "duration": 0.667,
      "velocity": 0.56,
      "hand": "right"
    },
    {
      "midi": 55,
      "time": 5.333,
      "duration": 0.667,
      "velocity": 0.69,
      "hand": "left"
    },
    {
      "midi": 63,
      "time": 5.333,
      "duration": 0.652,
      "velocity": 0.63,
      "hand": "right"
    },
    {
      "midi": 70,
      "time": 5.333,
      "duration": 0.667,
      "velocity": 0.63,
      "hand": "right"
    },
    {
      "midi": 56,
      "time": 6,
      "duration": 0.667,
      "velocity": 0.62,
      "hand": "left"
    },
    {
      "midi": 63,
      "time": 6,
      "duration": 0.652,
      "velocity": 0.62,
      "hand": "right"
    },
    {
      "midi": 72,
      "time": 6,
      "duration": 0.667,
      "velocity": 0.62,
      "hand": "right"
    },
    {
      "midi": 55,
      "time": 6.667,
      "duration": 0.667,
      "velocity": 0.57,
      "hand": "left"
    },
    {
      "midi": 63,
      "time": 6.667,
      "duration": 0.667,
      "velocity": 0.59,
      "hand": "right"
    },
    {
      "midi": 70,
      "time": 6.667,
      "duration": 0.667,
      "velocity": 0.59,
      "hand": "right"
    },
    {
      "midi": 53,
      "time": 7.333,
      "duration": 0.667,
      "velocity": 0.57,
      "hand": "left"
    },
    {
      "midi": 58,
      "time": 7.333,
      "duration": 0.652,
      "velocity": 0.57,
      "hand": "left"
    },
    {
      "midi": 62,
      "time": 7.333,
      "duration": 0.667,
      "velocity": 0.55,
      "hand": "right"
    },
    {
      "midi": 68,
      "time": 7.333,
      "duration": 0.667,
      "velocity": 0.55,
      "hand": "right"
    },
    {
      "midi": 51,
      "time": 8,
      "duration": 0.667,
      "velocity": 0.59,
      "hand": "left"
    },
    {
      "midi": 58,
      "time": 8,
      "duration": 0.652,
      "velocity": 0.59,
      "hand": "left"
    },
    {
      "midi": 63,
      "time": 8,
      "duration": 0.667,
      "velocity": 0.59,
      "hand": "right"
    },
    {
      "midi": 67,
      "time": 8,
      "duration": 0.667,
      "velocity": 0.59,
      "hand": "right"
    },
    {
      "midi": 46,
      "time": 8.667,
      "duration": 2,
      "velocity": 0.6,
      "hand": "left"
    },
    {
      "midi": 58,
      "time": 8.667,
      "duration": 2,
      "velocity": 0.6,
      "hand": "left"
    },
    {
      "midi": 62,
      "time": 8.667,
      "duration": 2,
      "velocity": 0.54,
      "hand": "right"
    },
    {
      "midi": 65,
      "time": 8.667,
      "duration": 2,
      "velocity": 0.54,
      "hand": "right"
    },
    {
      "midi": 51,
      "time": 10.667,
      "duration": 0.651,
      "velocity": 0.56,
      "hand": "left"
    },
    {
      "midi": 55,
      "time": 10.667,
      "duration": 0.667,
      "velocity": 0.56,
      "hand": "left"
    },
    {
      "midi": 63,
      "time": 10.667,
      "duration": 0.651,
      "velocity": 0.54,
      "hand": "right"
    },
    {
      "midi": 51,
      "time": 11.333,
      "duration": 0.985,
      "velocity": 0.61,
      "hand": "left"
    },
    {
      "midi": 58,
      "time": 11.333,
      "duration": 1,
      "velocity": 0.61,
      "hand": "left"
    },
    {
      "midi": 63,
      "time": 11.333,
      "duration": 0.985,
      "velocity": 0.65,
      "hand": "right"
    },
    {
      "midi": 67,
      "time": 11.333,
      "duration": 1,
      "velocity": 0.65,
      "hand": "right"
    },
    {
      "midi": 51,
      "time": 12.333,
      "duration": 0.319,
      "velocity": 0.59,
      "hand": "left"
    },
    {
      "midi": 56,
      "time": 12.333,
      "duration": 0.333,
      "velocity": 0.59,
      "hand": "left"
    },
    {
      "midi": 63,
      "time": 12.333,
      "duration": 0.319,
      "velocity": 0.56,
      "hand": "right"
    },
    {
      "midi": 65,
      "time": 12.333,
      "duration": 0.333,
      "velocity": 0.56,
      "hand": "right"
    },
    {
      "midi": 51,
      "time": 12.667,
      "duration": 0.651,
      "velocity": 0.59,
      "hand": "left"
    },
    {
      "midi": 55,
      "time": 12.667,
      "duration": 0.667,
      "velocity": 0.59,
      "hand": "left"
    },
    {
      "midi": 63,
      "time": 12.667,
      "duration": 0.651,
      "velocity": 0.57,
      "hand": "right"
    },
    {
      "midi": 51,
      "time": 13.333,
      "duration": 0.652,
      "velocity": 0.61,
      "hand": "left"
    },
    {
      "midi": 58,
      "time": 13.333,
      "duration": 0.667,
      "velocity": 0.61,
      "hand": "left"
    },
    {
      "midi": 63,
      "time": 13.333,
      "duration": 0.652,
      "velocity": 0.65,
      "hand": "right"
    },
    {
      "midi": 67,
      "time": 13.333,
      "duration": 0.652,
      "velocity": 0.65,
      "hand": "right"
    },
    {
      "midi": 51,
      "time": 14,
      "duration": 0.985,
      "velocity": 0.69,
      "hand": "left"
    },
    {
      "midi": 63,
      "time": 14,
      "duration": 0.985,
      "velocity": 0.69,
      "hand": "right"
    },
    {
      "midi": 67,
      "time": 14,
      "duration": 1,
      "velocity": 0.65,
      "hand": "right"
    },
    {
      "midi": 70,
      "time": 14,
      "duration": 1,
      "velocity": 0.65,
      "hand": "right"
    },
    {
      "midi": 51,
      "time": 15,
      "duration": 0.318,
      "velocity": 0.63,
      "hand": "left"
    },
    {
      "midi": 63,
      "time": 15,
      "duration": 0.318,
      "velocity": 0.63,
      "hand": "right"
    },
    {
      "midi": 68,
      "time": 15,
      "duration": 0.333,
      "velocity": 0.67,
      "hand": "right"
    },
    {
      "midi": 72,
      "time": 15,
      "duration": 0.333,
      "velocity": 0.67,
      "hand": "right"
    },
    {
      "midi": 51,
      "time": 15.333,
      "duration": 0.652,
      "velocity": 0.59,
      "hand": "left"
    },
    {
      "midi": 63,
      "time": 15.333,
      "duration": 0.652,
      "velocity": 0.59,
      "hand": "right"
    },
    {
      "midi": 67,
      "time": 15.333,
      "duration": 0.667,
      "velocity": 0.57,
      "hand": "right"
    },
    {
      "midi": 70,
      "time": 15.333,
      "duration": 0.667,
      "velocity": 0.57,
      "hand": "right"
    },
    {
      "midi": 51,
      "time": 16,
      "duration": 0.667,
      "velocity": 0.57,
      "hand": "left"
    },
    {
      "midi": 55,
      "time": 16,
      "duration": 0.667,
      "velocity": 0.57,
      "hand": "left"
    },
    {
      "midi": 63,
      "time": 16,
      "duration": 0.667,
      "velocity": 0.49,
      "hand": "right"
    },
    {
      "midi": 44,
      "time": 16.667,
      "duration": 0.651,
      "velocity": 0.6,
      "hand": "left"
    },
    {
      "midi": 56,
      "time": 16.667,
      "duration": 0.667,
      "velocity": 0.6,
      "hand": "left"
    },
    {
      "midi": 60,
      "time": 16.667,
      "duration": 0.651,
      "velocity": 0.61,
      "hand": "right"
    },
    {
      "midi": 65,
      "time": 16.667,
      "duration": 0.651,
      "velocity": 0.61,
      "hand": "right"
    },
    {
      "midi": 44,
      "time": 17.333,
      "duration": 0.667,
      "velocity": 0.65,
      "hand": "left"
    },
    {
      "midi": 60,
      "time": 17.333,
      "duration": 0.667,
      "velocity": 0.65,
      "hand": "right"
    },
    {
      "midi": 65,
      "time": 17.333,
      "duration": 0.667,
      "velocity": 0.63,
      "hand": "right"
    },
    {
      "midi": 68,
      "time": 17.333,
      "duration": 0.667,
      "velocity": 0.63,
      "hand": "right"
    },
    {
      "midi": 46,
      "time": 18,
      "duration": 0.652,
      "velocity": 0.61,
      "hand": "left"
    },
    {
      "midi": 58,
      "time": 18,
      "duration": 0.667,
      "velocity": 0.61,
      "hand": "left"
    },
    {
      "midi": 63,
      "time": 18,
      "duration": 0.667,
      "velocity": 0.57,
      "hand": "right"
    },
    {
      "midi": 67,
      "time": 18,
      "duration": 0.667,
      "velocity": 0.57,
      "hand": "right"
    },
    {
      "midi": 46,
      "time": 18.667,
      "duration": 0.667,
      "velocity": 0.58,
      "hand": "left"
    },
    {
      "midi": 56,
      "time": 18.667,
      "duration": 0.667,
      "velocity": 0.58,
      "hand": "left"
    },
    {
      "midi": 62,
      "time": 18.667,
      "duration": 0.667,
      "velocity": 0.57,
      "hand": "right"
    },
    {
      "midi": 65,
      "time": 18.667,
      "duration": 0.667,
      "velocity": 0.57,
      "hand": "right"
    },
    {
      "midi": 51,
      "time": 19.333,
      "duration": 1.985,
      "velocity": 0.6,
      "hand": "left"
    },
    {
      "midi": 55,
      "time": 19.333,
      "duration": 1.985,
      "velocity": 0.6,
      "hand": "left"
    },
    {
      "midi": 63,
      "time": 19.333,
      "duration": 1.985,
      "velocity": 0.6,
      "hand": "right"
    },
    {
      "midi": 51,
      "time": 21.333,
      "duration": 0.319,
      "velocity": 0.57,
      "hand": "left"
    },
    {
      "midi": 55,
      "time": 21.333,
      "duration": 0.333,
      "velocity": 0.57,
      "hand": "left"
    },
    {
      "midi": 63,
      "time": 21.333,
      "duration": 0.319,
      "velocity": 0.57,
      "hand": "right"
    },
    {
      "midi": 51,
      "time": 21.667,
      "duration": 0.318,
      "velocity": 0.61,
      "hand": "left"
    },
    {
      "midi": 56,
      "time": 21.667,
      "duration": 0.333,
      "velocity": 0.61,
      "hand": "left"
    },
    {
      "midi": 63,
      "time": 21.667,
      "duration": 0.318,
      "velocity": 0.65,
      "hand": "right"
    },
    {
      "midi": 65,
      "time": 21.667,
      "duration": 0.333,
      "velocity": 0.65,
      "hand": "right"
    },
    {
      "midi": 51,
      "time": 22,
      "duration": 0.652,
      "velocity": 0.59,
      "hand": "left"
    },
    {
      "midi": 58,
      "time": 22,
      "duration": 0.652,
      "velocity": 0.59,
      "hand": "left"
    },
    {
      "midi": 63,
      "time": 22,
      "duration": 0.652,
      "velocity": 0.65,
      "hand": "right"
    },
    {
      "midi": 67,
      "time": 22,
      "duration": 0.652,
      "velocity": 0.65,
      "hand": "right"
    },
    {
      "midi": 51,
      "time": 22.667,
      "duration": 0.485,
      "velocity": 0.57,
      "hand": "left"
    },
    {
      "midi": 58,
      "time": 22.667,
      "duration": 0.485,
      "velocity": 0.57,
      "hand": "left"
    },
    {
      "midi": 63,
      "time": 22.667,
      "duration": 0.485,
      "velocity": 0.61,
      "hand": "right"
    },
    {
      "midi": 67,
      "time": 22.667,
      "duration": 0.485,
      "velocity": 0.61,
      "hand": "right"
    },
    {
      "midi": 51,
      "time": 23.167,
      "duration": 0.151,
      "velocity": 0.6,
      "hand": "left"
    },
    {
      "midi": 58,
      "time": 23.167,
      "duration": 0.151,
      "velocity": 0.6,
      "hand": "left"
    },
    {
      "midi": 63,
      "time": 23.167,
      "duration": 0.151,
      "velocity": 0.59,
      "hand": "right"
    },
    {
      "midi": 67,
      "time": 23.167,
      "duration": 0.151,
      "velocity": 0.59,
      "hand": "right"
    },
    {
      "midi": 51,
      "time": 23.333,
      "duration": 0.652,
      "velocity": 0.65,
      "hand": "left"
    },
    {
      "midi": 58,
      "time": 23.333,
      "duration": 0.667,
      "velocity": 0.65,
      "hand": "left"
    },
    {
      "midi": 63,
      "time": 23.333,
      "duration": 0.652,
      "velocity": 0.61,
      "hand": "right"
    },
    {
      "midi": 67,
      "time": 23.333,
      "duration": 0.667,
      "velocity": 0.61,
      "hand": "right"
    },
    {
      "midi": 51,
      "time": 24,
      "duration": 0.318,
      "velocity": 0.63,
      "hand": "left"
    },
    {
      "midi": 60,
      "time": 24,
      "duration": 0.333,
      "velocity": 0.63,
      "hand": "right"
    },
    {
      "midi": 63,
      "time": 24,
      "duration": 0.318,
      "velocity": 0.56,
      "hand": "right"
    },
    {
      "midi": 68,
      "time": 24,
      "duration": 0.333,
      "velocity": 0.56,
      "hand": "right"
    },
    {
      "midi": 51,
      "time": 24.333,
      "duration": 0.333,
      "velocity": 0.61,
      "hand": "left"
    },
    {
      "midi": 58,
      "time": 24.333,
      "duration": 0.319,
      "velocity": 0.61,
      "hand": "left"
    },
    {
      "midi": 63,
      "time": 24.333,
      "duration": 0.319,
      "velocity": 0.58,
      "hand": "right"
    },
    {
      "midi": 67,
      "time": 24.333,
      "duration": 0.319,
      "velocity": 0.58,
      "hand": "right"
    },
    {
      "midi": 46,
      "time": 24.667,
      "duration": 0.651,
      "velocity": 0.61,
      "hand": "left"
    },
    {
      "midi": 58,
      "time": 24.667,
      "duration": 0.651,
      "velocity": 0.61,
      "hand": "left"
    },
    {
      "midi": 63,
      "time": 24.667,
      "duration": 0.333,
      "velocity": 0.6,
      "hand": "right"
    },
    {
      "midi": 67,
      "time": 24.667,
      "duration": 0.333,
      "velocity": 0.6,
      "hand": "right"
    },
    {
      "midi": 62,
      "time": 25,
      "duration": 0.318,
      "velocity": 0.6,
      "hand": "right"
    },
    {
      "midi": 65,
      "time": 25,
      "duration": 0.318,
      "velocity": 0.6,
      "hand": "right"
    },
    {
      "midi": 46,
      "time": 25.333,
      "duration": 0.485,
      "velocity": 0.58,
      "hand": "left"
    },
    {
      "midi": 58,
      "time": 25.333,
      "duration": 0.5,
      "velocity": 0.58,
      "hand": "left"
    },
    {
      "midi": 62,
      "time": 25.333,
      "duration": 0.5,
      "velocity": 0.61,
      "hand": "right"
    },
    {
      "midi": 65,
      "time": 25.333,
      "duration": 0.5,
      "velocity": 0.61,
      "hand": "right"
    },
    {
      "midi": 46,
      "time": 25.833,
      "duration": 0.152,
      "velocity": 0.56,
      "hand": "left"
    },
    {
      "midi": 55,
      "time": 25.833,
      "duration": 0.167,
      "velocity": 0.56,
      "hand": "left"
    },
    {
      "midi": 63,
      "time": 25.833,
      "duration": 0.167,
      "velocity": 0.55,
      "hand": "right"
    },
    {
      "midi": 46,
      "time": 26,
      "duration": 0.652,
      "velocity": 0.62,
      "hand": "left"
    },
    {
      "midi": 58,
      "time": 26,
      "duration": 0.652,
      "velocity": 0.62,
      "hand": "left"
    },
    {
      "midi": 62,
      "time": 26,
      "duration": 0.652,
      "velocity": 0.6,
      "hand": "right"
    },
    {
      "midi": 65,
      "time": 26,
      "duration": 0.652,
      "velocity": 0.6,
      "hand": "right"
    },
    {
      "midi": 46,
      "time": 26.667,
      "duration": 0.318,
      "velocity": 0.59,
      "hand": "left"
    },
    {
      "midi": 58,
      "time": 26.667,
      "duration": 0.318,
      "velocity": 0.59,
      "hand": "left"
    },
    {
      "midi": 62,
      "time": 26.667,
      "duration": 0.333,
      "velocity": 0.57,
      "hand": "right"
    },
    {
      "midi": 65,
      "time": 26.667,
      "duration": 0.333,
      "velocity": 0.57,
      "hand": "right"
    },
    {
      "midi": 46,
      "time": 27,
      "duration": 0.318,
      "velocity": 0.61,
      "hand": "left"
    },
    {
      "midi": 58,
      "time": 27,
      "duration": 0.333,
      "velocity": 0.61,
      "hand": "left"
    },
    {
      "midi": 63,
      "time": 27,
      "duration": 0.333,
      "velocity": 0.65,
      "hand": "right"
    },
    {
      "midi": 67,
      "time": 27,
      "duration": 0.333,
      "velocity": 0.65,
      "hand": "right"
    },
    {
      "midi": 46,
      "time": 27.333,
      "duration": 0.319,
      "velocity": 0.74,
      "hand": "left"
    },
    {
      "midi": 65,
      "time": 27.333,
      "duration": 0.319,
      "velocity": 0.62,
      "hand": "right"
    },
    {
      "midi": 68,
      "time": 27.333,
      "duration": 0.319,
      "velocity": 0.62,
      "hand": "right"
    },
    {
      "midi": 46,
      "time": 27.667,
      "duration": 0.318,
      "velocity": 0.57,
      "hand": "left"
    },
    {
      "midi": 63,
      "time": 27.667,
      "duration": 0.333,
      "velocity": 0.57,
      "hand": "right"
    },
    {
      "midi": 65,
      "time": 27.667,
      "duration": 0.318,
      "velocity": 0.6,
      "hand": "right"
    },
    {
      "midi": 68,
      "time": 27.667,
      "duration": 0.318,
      "velocity": 0.6,
      "hand": "right"
    },
    {
      "midi": 46,
      "time": 28,
      "duration": 0.485,
      "velocity": 0.56,
      "hand": "left"
    },
    {
      "midi": 62,
      "time": 28,
      "duration": 0.5,
      "velocity": 0.56,
      "hand": "right"
    },
    {
      "midi": 65,
      "time": 28,
      "duration": 0.485,
      "velocity": 0.59,
      "hand": "right"
    },
    {
      "midi": 68,
      "time": 28,
      "duration": 0.485,
      "velocity": 0.59,
      "hand": "right"
    },
    {
      "midi": 46,
      "time": 28.5,
      "duration": 0.152,
      "velocity": 0.55,
      "hand": "left"
    },
    {
      "midi": 60,
      "time": 28.5,
      "duration": 0.167,
      "velocity": 0.55,
      "hand": "right"
    },
    {
      "midi": 65,
      "time": 28.5,
      "duration": 0.152,
      "velocity": 0.62,
      "hand": "right"
    },
    {
      "midi": 68,
      "time": 28.5,
      "duration": 0.152,
      "velocity": 0.62,
      "hand": "right"
    },
    {
      "midi": 46,
      "time": 28.667,
      "duration": 0.651,
      "velocity": 0.57,
      "hand": "left"
    },
    {
      "midi": 58,
      "time": 28.667,
      "duration": 0.651,
      "velocity": 0.57,
      "hand": "left"
    },
    {
      "midi": 65,
      "time": 28.667,
      "duration": 0.667,
      "velocity": 0.57,
      "hand": "right"
    },
    {
      "midi": 68,
      "time": 28.667,
      "duration": 0.667,
      "velocity": 0.57,
      "hand": "right"
    },
    {
      "midi": 46,
      "time": 29.333,
      "duration": 0.485,
      "velocity": 0.54,
      "hand": "left"
    },
    {
      "midi": 58,
      "time": 29.333,
      "duration": 0.485,
      "velocity": 0.54,
      "hand": "left"
    },
    {
      "midi": 67,
      "time": 29.333,
      "duration": 0.5,
      "velocity": 0.64,
      "hand": "right"
    },
    {
      "midi": 70,
      "time": 29.333,
      "duration": 0.5,
      "velocity": 0.64,
      "hand": "right"
    },
    {
      "midi": 46,
      "time": 29.833,
      "duration": 0.167,
      "velocity": 0.61,
      "hand": "left"
    },
    {
      "midi": 58,
      "time": 29.833,
      "duration": 0.152,
      "velocity": 0.61,
      "hand": "left"
    },
    {
      "midi": 65,
      "time": 29.833,
      "duration": 0.167,
      "velocity": 0.52,
      "hand": "right"
    },
    {
      "midi": 68,
      "time": 29.833,
      "duration": 0.167,
      "velocity": 0.52,
      "hand": "right"
    },
    {
      "midi": 51,
      "time": 30,
      "duration": 0.652,
      "velocity": 0.6,
      "hand": "left"
    },
    {
      "midi": 58,
      "time": 30,
      "duration": 0.667,
      "velocity": 0.6,
      "hand": "left"
    },
    {
      "midi": 63,
      "time": 30,
      "duration": 0.652,
      "velocity": 0.53,
      "hand": "right"
    },
    {
      "midi": 67,
      "time": 30,
      "duration": 1.985,
      "velocity": 0.53,
      "hand": "right"
    },
    {
      "midi": 51,
      "time": 30.667,
      "duration": 0.485,
      "velocity": 0.65,
      "hand": "left"
    },
    {
      "midi": 63,
      "time": 30.667,
      "duration": 0.485,
      "velocity": 0.65,
      "hand": "right"
    },
    {
      "midi": 51,
      "time": 31.167,
      "duration": 0.151,
      "velocity": 0.57,
      "hand": "left"
    },
    {
      "midi": 63,
      "time": 31.167,
      "duration": 0.167,
      "velocity": 0.57,
      "hand": "right"
    },
    {
      "midi": 51,
      "time": 31.333,
      "duration": 0.652,
      "velocity": 0.56,
      "hand": "left"
    },
    {
      "midi": 58,
      "time": 31.333,
      "duration": 0.652,
      "velocity": 0.56,
      "hand": "left"
    },
    {
      "midi": 51,
      "time": 32,
      "duration": 0.318,
      "velocity": 0.61,
      "hand": "left"
    },
    {
      "midi": 58,
      "time": 32,
      "duration": 0.318,
      "velocity": 0.61,
      "hand": "left"
    },
    {
      "midi": 63,
      "time": 32,
      "duration": 0.318,
      "velocity": 0.55,
      "hand": "right"
    },
    {
      "midi": 67,
      "time": 32,
      "duration": 0.318,
      "velocity": 0.55,
      "hand": "right"
    },
    {
      "midi": 51,
      "time": 32.333,
      "duration": 0.333,
      "velocity": 0.6,
      "hand": "left"
    },
    {
      "midi": 58,
      "time": 32.333,
      "duration": 0.333,
      "velocity": 0.6,
      "hand": "left"
    },
    {
      "midi": 63,
      "time": 32.333,
      "duration": 0.319,
      "velocity": 0.61,
      "hand": "right"
    },
    {
      "midi": 67,
      "time": 32.333,
      "duration": 0.333,
      "velocity": 0.61,
      "hand": "right"
    },
    {
      "midi": 44,
      "time": 32.667,
      "duration": 0.333,
      "velocity": 0.54,
      "hand": "left"
    },
    {
      "midi": 60,
      "time": 32.667,
      "duration": 0.651,
      "velocity": 0.64,
      "hand": "right"
    },
    {
      "midi": 63,
      "time": 32.667,
      "duration": 0.651,
      "velocity": 0.62,
      "hand": "right"
    },
    {
      "midi": 68,
      "time": 32.667,
      "duration": 0.651,
      "velocity": 0.62,
      "hand": "right"
    },
    {
      "midi": 46,
      "time": 33,
      "duration": 0.333,
      "velocity": 0.57,
      "hand": "left"
    },
    {
      "midi": 48,
      "time": 33.333,
      "duration": 0.333,
      "velocity": 0.65,
      "hand": "left"
    },
    {
      "midi": 60,
      "time": 33.333,
      "duration": 0.652,
      "velocity": 0.61,
      "hand": "right"
    },
    {
      "midi": 63,
      "time": 33.333,
      "duration": 0.667,
      "velocity": 0.59,
      "hand": "right"
    },
    {
      "midi": 68,
      "time": 33.333,
      "duration": 0.667,
      "velocity": 0.59,
      "hand": "right"
    },
    {
      "midi": 46,
      "time": 33.667,
      "duration": 0.333,
      "velocity": 0.57,
      "hand": "left"
    },
    {
      "midi": 44,
      "time": 34,
      "duration": 0.333,
      "velocity": 0.6,
      "hand": "left"
    },
    {
      "midi": 56,
      "time": 34,
      "duration": 0.667,
      "velocity": 0.57,
      "hand": "left"
    },
    {
      "midi": 60,
      "time": 34,
      "duration": 0.652,
      "velocity": 0.46,
      "hand": "right"
    },
    {
      "midi": 46,
      "time": 34.333,
      "duration": 0.333,
      "velocity": 0.61,
      "hand": "left"
    },
    {
      "midi": 48,
      "time": 34.667,
      "duration": 0.333,
      "velocity": 0.67,
      "hand": "left"
    },
    {
      "midi": 60,
      "time": 34.667,
      "duration": 0.318,
      "velocity": 0.67,
      "hand": "right"
    },
    {
      "midi": 63,
      "time": 34.667,
      "duration": 0.333,
      "velocity": 0.69,
      "hand": "right"
    },
    {
      "midi": 68,
      "time": 34.667,
      "duration": 0.318,
      "velocity": 0.69,
      "hand": "right"
    },
    {
      "midi": 50,
      "time": 35,
      "duration": 0.333,
      "velocity": 0.58,
      "hand": "left"
    },
    {
      "midi": 60,
      "time": 35,
      "duration": 0.333,
      "velocity": 0.58,
      "hand": "right"
    },
    {
      "midi": 65,
      "time": 35,
      "duration": 0.333,
      "velocity": 0.61,
      "hand": "right"
    },
    {
      "midi": 68,
      "time": 35,
      "duration": 0.333,
      "velocity": 0.61,
      "hand": "right"
    },
    {
      "midi": 51,
      "time": 35.333,
      "duration": 0.652,
      "velocity": 0.57,
      "hand": "left"
    },
    {
      "midi": 58,
      "time": 35.333,
      "duration": 0.652,
      "velocity": 0.57,
      "hand": "left"
    },
    {
      "midi": 63,
      "time": 35.333,
      "duration": 0.652,
      "velocity": 0.55,
      "hand": "right"
    },
    {
      "midi": 67,
      "time": 35.333,
      "duration": 0.652,
      "velocity": 0.55,
      "hand": "right"
    },
    {
      "midi": 51,
      "time": 36,
      "duration": 0.652,
      "velocity": 0.53,
      "hand": "left"
    },
    {
      "midi": 58,
      "time": 36,
      "duration": 0.333,
      "velocity": 0.61,
      "hand": "left"
    },
    {
      "midi": 63,
      "time": 36,
      "duration": 0.652,
      "velocity": 0.54,
      "hand": "right"
    },
    {
      "midi": 67,
      "time": 36,
      "duration": 0.333,
      "velocity": 0.59,
      "hand": "right"
    },
    {
      "midi": 56,
      "time": 36.333,
      "duration": 0.333,
      "velocity": 0.59,
      "hand": "left"
    },
    {
      "midi": 65,
      "time": 36.333,
      "duration": 0.333,
      "velocity": 0.57,
      "hand": "right"
    },
    {
      "midi": 51,
      "time": 36.667,
      "duration": 0.651,
      "velocity": 0.59,
      "hand": "left"
    },
    {
      "midi": 55,
      "time": 36.667,
      "duration": 0.667,
      "velocity": 0.59,
      "hand": "left"
    },
    {
      "midi": 63,
      "time": 36.667,
      "duration": 0.651,
      "velocity": 0.53,
      "hand": "right"
    },
    {
      "midi": 51,
      "time": 37.333,
      "duration": 0.667,
      "velocity": 0.63,
      "hand": "left"
    },
    {
      "midi": 58,
      "time": 37.333,
      "duration": 0.667,
      "velocity": 0.63,
      "hand": "left"
    },
    {
      "midi": 63,
      "time": 37.333,
      "duration": 0.667,
      "velocity": 0.66,
      "hand": "right"
    },
    {
      "midi": 67,
      "time": 37.333,
      "duration": 0.667,
      "velocity": 0.66,
      "hand": "right"
    },
    {
      "midi": 44,
      "time": 38,
      "duration": 0.652,
      "velocity": 0.61,
      "hand": "left"
    },
    {
      "midi": 56,
      "time": 38,
      "duration": 0.652,
      "velocity": 0.61,
      "hand": "left"
    },
    {
      "midi": 60,
      "time": 38,
      "duration": 0.652,
      "velocity": 0.57,
      "hand": "right"
    },
    {
      "midi": 65,
      "time": 38,
      "duration": 0.652,
      "velocity": 0.57,
      "hand": "right"
    },
    {
      "midi": 44,
      "time": 38.667,
      "duration": 0.318,
      "velocity": 0.61,
      "hand": "left"
    },
    {
      "midi": 56,
      "time": 38.667,
      "duration": 0.318,
      "velocity": 0.61,
      "hand": "left"
    },
    {
      "midi": 60,
      "time": 38.667,
      "duration": 0.318,
      "velocity": 0.62,
      "hand": "right"
    },
    {
      "midi": 65,
      "time": 38.667,
      "duration": 0.333,
      "velocity": 0.62,
      "hand": "right"
    },
    {
      "midi": 44,
      "time": 39,
      "duration": 0.333,
      "velocity": 0.55,
      "hand": "left"
    },
    {
      "midi": 56,
      "time": 39,
      "duration": 0.333,
      "velocity": 0.55,
      "hand": "left"
    },
    {
      "midi": 60,
      "time": 39,
      "duration": 0.333,
      "velocity": 0.57,
      "hand": "right"
    },
    {
      "midi": 63,
      "time": 39,
      "duration": 0.333,
      "velocity": 0.57,
      "hand": "right"
    },
    {
      "midi": 46,
      "time": 39.333,
      "duration": 0.319,
      "velocity": 0.6,
      "hand": "left"
    },
    {
      "midi": 53,
      "time": 39.333,
      "duration": 0.333,
      "velocity": 0.6,
      "hand": "left"
    },
    {
      "midi": 62,
      "time": 39.333,
      "duration": 0.333,
      "velocity": 0.55,
      "hand": "right"
    },
    {
      "midi": 46,
      "time": 39.667,
      "duration": 0.318,
      "velocity": 0.61,
      "hand": "left"
    },
    {
      "midi": 58,
      "time": 39.667,
      "duration": 0.318,
      "velocity": 0.61,
      "hand": "left"
    },
    {
      "midi": 65,
      "time": 39.667,
      "duration": 0.333,
      "velocity": 0.69,
      "hand": "right"
    },
    {
      "midi": 68,
      "time": 39.667,
      "duration": 0.333,
      "velocity": 0.69,
      "hand": "right"
    },
    {
      "midi": 46,
      "time": 40,
      "duration": 0.485,
      "velocity": 0.61,
      "hand": "left"
    },
    {
      "midi": 58,
      "time": 40,
      "duration": 0.5,
      "velocity": 0.61,
      "hand": "left"
    },
    {
      "midi": 63,
      "time": 40,
      "duration": 0.5,
      "velocity": 0.59,
      "hand": "right"
    },
    {
      "midi": 67,
      "time": 40,
      "duration": 0.5,
      "velocity": 0.59,
      "hand": "right"
    },
    {
      "midi": 46,
      "time": 40.5,
      "duration": 0.167,
      "velocity": 0.57,
      "hand": "left"
    },
    {
      "midi": 56,
      "time": 40.5,
      "duration": 0.167,
      "velocity": 0.57,
      "hand": "left"
    },
    {
      "midi": 62,
      "time": 40.5,
      "duration": 0.167,
      "velocity": 0.55,
      "hand": "right"
    },
    {
      "midi": 65,
      "time": 40.5,
      "duration": 0.167,
      "velocity": 0.55,
      "hand": "right"
    },
    {
      "midi": 51,
      "time": 40.667,
      "duration": 2,
      "velocity": 0.59,
      "hand": "left"
    },
    {
      "midi": 55,
      "time": 40.667,
      "duration": 2,
      "velocity": 0.59,
      "hand": "left"
    },
    {
      "midi": 63,
      "time": 40.667,
      "duration": 2,
      "velocity": 0.55,
      "hand": "right"
    }
  ],
  "arrangements": {
    "easy": [
      {
        "midi": 63,
        "time": 0,
        "duration": 0.652,
        "velocity": 0.54,
        "hand": "right"
      },
      {
        "midi": 67,
        "time": 0.667,
        "duration": 1,
        "velocity": 0.65,
        "hand": "right"
      },
      {
        "midi": 65,
        "time": 1.667,
        "duration": 0.4,
        "velocity": 0.6,
        "hand": "right"
      },
      {
        "midi": 67,
        "time": 2.667,
        "duration": 0.651,
        "velocity": 0.65,
        "hand": "right"
      },
      {
        "midi": 70,
        "time": 3.333,
        "duration": 1,
        "velocity": 0.64,
        "hand": "right"
      },
      {
        "midi": 68,
        "time": 4.333,
        "duration": 0.4,
        "velocity": 0.53,
        "hand": "right"
      },
      {
        "midi": 70,
        "time": 5.333,
        "duration": 0.667,
        "velocity": 0.63,
        "hand": "right"
      },
      {
        "midi": 72,
        "time": 6,
        "duration": 0.667,
        "velocity": 0.62,
        "hand": "right"
      },
      {
        "midi": 70,
        "time": 6.667,
        "duration": 0.667,
        "velocity": 0.59,
        "hand": "right"
      },
      {
        "midi": 68,
        "time": 7.333,
        "duration": 0.667,
        "velocity": 0.55,
        "hand": "right"
      },
      {
        "midi": 67,
        "time": 8,
        "duration": 0.667,
        "velocity": 0.59,
        "hand": "right"
      },
      {
        "midi": 65,
        "time": 8.667,
        "duration": 2,
        "velocity": 0.54,
        "hand": "right"
      },
      {
        "midi": 63,
        "time": 10.667,
        "duration": 0.651,
        "velocity": 0.54,
        "hand": "right"
      },
      {
        "midi": 67,
        "time": 11.333,
        "duration": 1,
        "velocity": 0.65,
        "hand": "right"
      },
      {
        "midi": 65,
        "time": 12.333,
        "duration": 0.4,
        "velocity": 0.56,
        "hand": "right"
      },
      {
        "midi": 67,
        "time": 13.333,
        "duration": 0.652,
        "velocity": 0.65,
        "hand": "right"
      },
      {
        "midi": 70,
        "time": 14,
        "duration": 1,
        "velocity": 0.65,
        "hand": "right"
      },
      {
        "midi": 72,
        "time": 15,
        "duration": 0.4,
        "velocity": 0.67,
        "hand": "right"
      },
      {
        "midi": 63,
        "time": 16,
        "duration": 0.667,
        "velocity": 0.49,
        "hand": "right"
      },
      {
        "midi": 65,
        "time": 16.667,
        "duration": 0.651,
        "velocity": 0.61,
        "hand": "right"
      },
      {
        "midi": 68,
        "time": 17.333,
        "duration": 0.667,
        "velocity": 0.63,
        "hand": "right"
      },
      {
        "midi": 67,
        "time": 18,
        "duration": 0.667,
        "velocity": 0.57,
        "hand": "right"
      },
      {
        "midi": 65,
        "time": 18.667,
        "duration": 0.667,
        "velocity": 0.57,
        "hand": "right"
      },
      {
        "midi": 63,
        "time": 19.333,
        "duration": 1.985,
        "velocity": 0.6,
        "hand": "right"
      },
      {
        "midi": 63,
        "time": 21.333,
        "duration": 0.4,
        "velocity": 0.57,
        "hand": "right"
      },
      {
        "midi": 67,
        "time": 22,
        "duration": 0.652,
        "velocity": 0.65,
        "hand": "right"
      },
      {
        "midi": 67,
        "time": 22.667,
        "duration": 0.485,
        "velocity": 0.61,
        "hand": "right"
      },
      {
        "midi": 67,
        "time": 23.333,
        "duration": 0.667,
        "velocity": 0.61,
        "hand": "right"
      },
      {
        "midi": 68,
        "time": 24,
        "duration": 0.4,
        "velocity": 0.56,
        "hand": "right"
      },
      {
        "midi": 67,
        "time": 24.667,
        "duration": 0.4,
        "velocity": 0.6,
        "hand": "right"
      },
      {
        "midi": 65,
        "time": 25.333,
        "duration": 0.5,
        "velocity": 0.61,
        "hand": "right"
      },
      {
        "midi": 65,
        "time": 26,
        "duration": 0.652,
        "velocity": 0.6,
        "hand": "right"
      },
      {
        "midi": 65,
        "time": 26.667,
        "duration": 0.4,
        "velocity": 0.57,
        "hand": "right"
      },
      {
        "midi": 68,
        "time": 27.333,
        "duration": 0.4,
        "velocity": 0.62,
        "hand": "right"
      },
      {
        "midi": 68,
        "time": 28,
        "duration": 0.485,
        "velocity": 0.59,
        "hand": "right"
      },
      {
        "midi": 68,
        "time": 28.667,
        "duration": 0.667,
        "velocity": 0.57,
        "hand": "right"
      },
      {
        "midi": 70,
        "time": 29.333,
        "duration": 0.5,
        "velocity": 0.64,
        "hand": "right"
      },
      {
        "midi": 67,
        "time": 30,
        "duration": 1.985,
        "velocity": 0.53,
        "hand": "right"
      },
      {
        "midi": 63,
        "time": 30.667,
        "duration": 0.485,
        "velocity": 0.65,
        "hand": "right"
      },
      {
        "midi": 58,
        "time": 31.333,
        "duration": 0.652,
        "velocity": 0.56,
        "hand": "right"
      },
      {
        "midi": 67,
        "time": 32,
        "duration": 0.4,
        "velocity": 0.55,
        "hand": "right"
      },
      {
        "midi": 68,
        "time": 32.667,
        "duration": 0.651,
        "velocity": 0.62,
        "hand": "right"
      },
      {
        "midi": 68,
        "time": 33.333,
        "duration": 0.667,
        "velocity": 0.59,
        "hand": "right"
      },
      {
        "midi": 60,
        "time": 34,
        "duration": 0.652,
        "velocity": 0.46,
        "hand": "right"
      },
      {
        "midi": 68,
        "time": 34.667,
        "duration": 0.4,
        "velocity": 0.69,
        "hand": "right"
      },
      {
        "midi": 67,
        "time": 35.333,
        "duration": 0.652,
        "velocity": 0.55,
        "hand": "right"
      },
      {
        "midi": 67,
        "time": 36,
        "duration": 0.4,
        "velocity": 0.59,
        "hand": "right"
      },
      {
        "midi": 63,
        "time": 36.667,
        "duration": 0.651,
        "velocity": 0.53,
        "hand": "right"
      },
      {
        "midi": 67,
        "time": 37.333,
        "duration": 0.667,
        "velocity": 0.66,
        "hand": "right"
      },
      {
        "midi": 65,
        "time": 38,
        "duration": 0.652,
        "velocity": 0.57,
        "hand": "right"
      },
      {
        "midi": 65,
        "time": 38.667,
        "duration": 0.4,
        "velocity": 0.62,
        "hand": "right"
      },
      {
        "midi": 62,
        "time": 39.333,
        "duration": 0.4,
        "velocity": 0.55,
        "hand": "right"
      },
      {
        "midi": 67,
        "time": 40,
        "duration": 0.5,
        "velocity": 0.59,
        "hand": "right"
      },
      {
        "midi": 63,
        "time": 40.667,
        "duration": 2,
        "velocity": 0.55,
        "hand": "right"
      }
    ],
    "medium": [
      {
        "midi": 51,
        "time": 0,
        "duration": 0.652,
        "velocity": 0.51,
        "hand": "left"
      },
      {
        "midi": 63,
        "time": 0,
        "duration": 0.652,
        "velocity": 0.54,
        "hand": "right"
      },
      {
        "midi": 51,
        "time": 1.667,
        "duration": 0.318,
        "velocity": 0.59,
        "hand": "left"
      },
      {
        "midi": 65,
        "time": 1.667,
        "duration": 0.333,
        "velocity": 0.6,
        "hand": "right"
      },
      {
        "midi": 51,
        "time": 2.667,
        "duration": 0.651,
        "velocity": 0.61,
        "hand": "left"
      },
      {
        "midi": 67,
        "time": 2.667,
        "duration": 0.651,
        "velocity": 0.65,
        "hand": "right"
      },
      {
        "midi": 68,
        "time": 4.333,
        "duration": 0.333,
        "velocity": 0.53,
        "hand": "right"
      },
      {
        "midi": 55,
        "time": 5.333,
        "duration": 0.667,
        "velocity": 0.69,
        "hand": "left"
      },
      {
        "midi": 70,
        "time": 5.333,
        "duration": 0.667,
        "velocity": 0.63,
        "hand": "right"
      },
      {
        "midi": 55,
        "time": 6.667,
        "duration": 0.667,
        "velocity": 0.57,
        "hand": "left"
      },
      {
        "midi": 70,
        "time": 6.667,
        "duration": 0.667,
        "velocity": 0.59,
        "hand": "right"
      },
      {
        "midi": 51,
        "time": 8,
        "duration": 0.667,
        "velocity": 0.59,
        "hand": "left"
      },
      {
        "midi": 67,
        "time": 8,
        "duration": 0.667,
        "velocity": 0.59,
        "hand": "right"
      },
      {
        "midi": 51,
        "time": 10.667,
        "duration": 0.651,
        "velocity": 0.56,
        "hand": "left"
      },
      {
        "midi": 63,
        "time": 10.667,
        "duration": 0.651,
        "velocity": 0.54,
        "hand": "right"
      },
      {
        "midi": 51,
        "time": 12.333,
        "duration": 0.319,
        "velocity": 0.59,
        "hand": "left"
      },
      {
        "midi": 65,
        "time": 12.333,
        "duration": 0.333,
        "velocity": 0.56,
        "hand": "right"
      },
      {
        "midi": 51,
        "time": 13.333,
        "duration": 0.652,
        "velocity": 0.61,
        "hand": "left"
      },
      {
        "midi": 67,
        "time": 13.333,
        "duration": 0.652,
        "velocity": 0.65,
        "hand": "right"
      },
      {
        "midi": 72,
        "time": 15,
        "duration": 0.333,
        "velocity": 0.67,
        "hand": "right"
      },
      {
        "midi": 51,
        "time": 16,
        "duration": 0.667,
        "velocity": 0.57,
        "hand": "left"
      },
      {
        "midi": 63,
        "time": 16,
        "duration": 0.667,
        "velocity": 0.49,
        "hand": "right"
      },
      {
        "midi": 56,
        "time": 17.333,
        "duration": 0.667,
        "velocity": 0.65,
        "hand": "left"
      },
      {
        "midi": 68,
        "time": 17.333,
        "duration": 0.667,
        "velocity": 0.63,
        "hand": "right"
      },
      {
        "midi": 58,
        "time": 18.667,
        "duration": 0.667,
        "velocity": 0.58,
        "hand": "left"
      },
      {
        "midi": 65,
        "time": 18.667,
        "duration": 0.667,
        "velocity": 0.57,
        "hand": "right"
      },
      {
        "midi": 51,
        "time": 21.333,
        "duration": 0.319,
        "velocity": 0.57,
        "hand": "left"
      },
      {
        "midi": 63,
        "time": 21.333,
        "duration": 0.319,
        "velocity": 0.57,
        "hand": "right"
      },
      {
        "midi": 51,
        "time": 22.667,
        "duration": 0.485,
        "velocity": 0.57,
        "hand": "left"
      },
      {
        "midi": 67,
        "time": 22.667,
        "duration": 0.485,
        "velocity": 0.61,
        "hand": "right"
      },
      {
        "midi": 68,
        "time": 24,
        "duration": 0.333,
        "velocity": 0.56,
        "hand": "right"
      },
      {
        "midi": 62,
        "time": 25,
        "duration": 0.318,
        "velocity": 0.6,
        "hand": "right"
      },
      {
        "midi": 65,
        "time": 25,
        "duration": 0.318,
        "velocity": 0.6,
        "hand": "right"
      },
      {
        "midi": 58,
        "time": 25.833,
        "duration": 0.233,
        "velocity": 0.56,
        "hand": "left"
      },
      {
        "midi": 63,
        "time": 25.833,
        "duration": 0.233,
        "velocity": 0.55,
        "hand": "right"
      },
      {
        "midi": 58,
        "time": 26.667,
        "duration": 0.318,
        "velocity": 0.59,
        "hand": "left"
      },
      {
        "midi": 65,
        "time": 26.667,
        "duration": 0.333,
        "velocity": 0.57,
        "hand": "right"
      },
      {
        "midi": 58,
        "time": 27.667,
        "duration": 0.318,
        "velocity": 0.57,
        "hand": "left"
      },
      {
        "midi": 68,
        "time": 27.667,
        "duration": 0.318,
        "velocity": 0.6,
        "hand": "right"
      },
      {
        "midi": 58,
        "time": 28.5,
        "duration": 0.233,
        "velocity": 0.55,
        "hand": "left"
      },
      {
        "midi": 68,
        "time": 28.5,
        "duration": 0.233,
        "velocity": 0.62,
        "hand": "right"
      },
      {
        "midi": 58,
        "time": 29.333,
        "duration": 0.485,
        "velocity": 0.54,
        "hand": "left"
      },
      {
        "midi": 70,
        "time": 29.333,
        "duration": 0.5,
        "velocity": 0.64,
        "hand": "right"
      },
      {
        "midi": 51,
        "time": 30.667,
        "duration": 0.485,
        "velocity": 0.65,
        "hand": "left"
      },
      {
        "midi": 63,
        "time": 30.667,
        "duration": 0.485,
        "velocity": 0.65,
        "hand": "right"
      },
      {
        "midi": 51,
        "time": 32,
        "duration": 0.318,
        "velocity": 0.61,
        "hand": "left"
      },
      {
        "midi": 67,
        "time": 32,
        "duration": 0.318,
        "velocity": 0.55,
        "hand": "right"
      },
      {
        "midi": 46,
        "time": 33,
        "duration": 0.333,
        "velocity": 0.57,
        "hand": "left"
      },
      {
        "midi": 44,
        "time": 34,
        "duration": 0.333,
        "velocity": 0.6,
        "hand": "left"
      },
      {
        "midi": 60,
        "time": 34,
        "duration": 0.652,
        "velocity": 0.46,
        "hand": "right"
      },
      {
        "midi": 68,
        "time": 35,
        "duration": 0.333,
        "velocity": 0.61,
        "hand": "right"
      },
      {
        "midi": 51,
        "time": 36,
        "duration": 0.652,
        "velocity": 0.53,
        "hand": "left"
      },
      {
        "midi": 67,
        "time": 36,
        "duration": 0.333,
        "velocity": 0.59,
        "hand": "right"
      },
      {
        "midi": 51,
        "time": 37.333,
        "duration": 0.667,
        "velocity": 0.63,
        "hand": "left"
      },
      {
        "midi": 67,
        "time": 37.333,
        "duration": 0.667,
        "velocity": 0.66,
        "hand": "right"
      },
      {
        "midi": 56,
        "time": 38.667,
        "duration": 0.318,
        "velocity": 0.61,
        "hand": "left"
      },
      {
        "midi": 65,
        "time": 38.667,
        "duration": 0.333,
        "velocity": 0.62,
        "hand": "right"
      },
      {
        "midi": 58,
        "time": 39.667,
        "duration": 0.318,
        "velocity": 0.61,
        "hand": "left"
      },
      {
        "midi": 68,
        "time": 39.667,
        "duration": 0.333,
        "velocity": 0.69,
        "hand": "right"
      },
      {
        "midi": 58,
        "time": 40.5,
        "duration": 0.233,
        "velocity": 0.57,
        "hand": "left"
      },
      {
        "midi": 65,
        "time": 40.5,
        "duration": 0.233,
        "velocity": 0.55,
        "hand": "right"
      }
    ],
    "hard": [
      {
        "midi": 51,
        "time": 0,
        "duration": 0.652,
        "velocity": 0.51,
        "hand": "left"
      },
      {
        "midi": 55,
        "time": 0,
        "duration": 0.667,
        "velocity": 0.51,
        "hand": "left"
      },
      {
        "midi": 63,
        "time": 0,
        "duration": 0.652,
        "velocity": 0.54,
        "hand": "right"
      },
      {
        "midi": 51,
        "time": 0.667,
        "duration": 0.985,
        "velocity": 0.61,
        "hand": "left"
      },
      {
        "midi": 58,
        "time": 0.667,
        "duration": 1,
        "velocity": 0.61,
        "hand": "left"
      },
      {
        "midi": 63,
        "time": 0.667,
        "duration": 0.985,
        "velocity": 0.65,
        "hand": "right"
      },
      {
        "midi": 67,
        "time": 0.667,
        "duration": 1,
        "velocity": 0.65,
        "hand": "right"
      },
      {
        "midi": 51,
        "time": 1.667,
        "duration": 0.318,
        "velocity": 0.59,
        "hand": "left"
      },
      {
        "midi": 56,
        "time": 1.667,
        "duration": 0.333,
        "velocity": 0.59,
        "hand": "left"
      },
      {
        "midi": 63,
        "time": 1.667,
        "duration": 0.318,
        "velocity": 0.6,
        "hand": "right"
      },
      {
        "midi": 65,
        "time": 1.667,
        "duration": 0.333,
        "velocity": 0.6,
        "hand": "right"
      },
      {
        "midi": 51,
        "time": 2,
        "duration": 0.652,
        "velocity": 0.57,
        "hand": "left"
      },
      {
        "midi": 55,
        "time": 2,
        "duration": 0.667,
        "velocity": 0.57,
        "hand": "left"
      },
      {
        "midi": 63,
        "time": 2,
        "duration": 0.652,
        "velocity": 0.58,
        "hand": "right"
      },
      {
        "midi": 51,
        "time": 2.667,
        "duration": 0.651,
        "velocity": 0.61,
        "hand": "left"
      },
      {
        "midi": 58,
        "time": 2.667,
        "duration": 0.667,
        "velocity": 0.61,
        "hand": "left"
      },
      {
        "midi": 63,
        "time": 2.667,
        "duration": 0.651,
        "velocity": 0.65,
        "hand": "right"
      },
      {
        "midi": 67,
        "time": 2.667,
        "duration": 0.651,
        "velocity": 0.65,
        "hand": "right"
      },
      {
        "midi": 51,
        "time": 3.333,
        "duration": 0.985,
        "velocity": 0.68,
        "hand": "left"
      },
      {
        "midi": 63,
        "time": 3.333,
        "duration": 1,
        "velocity": 0.68,
        "hand": "right"
      },
      {
        "midi": 67,
        "time": 3.333,
        "duration": 1,
        "velocity": 0.64,
        "hand": "right"
      },
      {
        "midi": 70,
        "time": 3.333,
        "duration": 1,
        "velocity": 0.64,
        "hand": "right"
      },
      {
        "midi": 51,
        "time": 4.333,
        "duration": 0.319,
        "velocity": 0.58,
        "hand": "left"
      },
      {
        "midi": 58,
        "time": 4.333,
        "duration": 0.319,
        "velocity": 0.58,
        "hand": "left"
      },
      {
        "midi": 65,
        "time": 4.333,
        "duration": 0.333,
        "velocity": 0.53,
        "hand": "right"
      },
      {
        "midi": 68,
        "time": 4.333,
        "duration": 0.333,
        "velocity": 0.53,
        "hand": "right"
      },
      {
        "midi": 51,
        "time": 4.667,
        "duration": 0.667,
        "velocity": 0.59,
        "hand": "left"
      },
      {
        "midi": 58,
        "time": 4.667,
        "duration": 0.667,
        "velocity": 0.59,
        "hand": "left"
      },
      {
        "midi": 63,
        "time": 4.667,
        "duration": 0.651,
        "velocity": 0.56,
        "hand": "right"
      },
      {
        "midi": 67,
        "time": 4.667,
        "duration": 0.667,
        "velocity": 0.56,
        "hand": "right"
      },
      {
        "midi": 55,
        "time": 5.333,
        "duration": 0.667,
        "velocity": 0.69,
        "hand": "left"
      },
      {
        "midi": 63,
        "time": 5.333,
        "duration": 0.652,
        "velocity": 0.63,
        "hand": "right"
      },
      {
        "midi": 70,
        "time": 5.333,
        "duration": 0.667,
        "velocity": 0.63,
        "hand": "right"
      },
      {
        "midi": 56,
        "time": 6,
        "duration": 0.667,
        "velocity": 0.62,
        "hand": "left"
      },
      {
        "midi": 63,
        "time": 6,
        "duration": 0.652,
        "velocity": 0.62,
        "hand": "right"
      },
      {
        "midi": 72,
        "time": 6,
        "duration": 0.667,
        "velocity": 0.62,
        "hand": "right"
      },
      {
        "midi": 55,
        "time": 6.667,
        "duration": 0.667,
        "velocity": 0.57,
        "hand": "left"
      },
      {
        "midi": 63,
        "time": 6.667,
        "duration": 0.667,
        "velocity": 0.59,
        "hand": "right"
      },
      {
        "midi": 70,
        "time": 6.667,
        "duration": 0.667,
        "velocity": 0.59,
        "hand": "right"
      },
      {
        "midi": 53,
        "time": 7.333,
        "duration": 0.667,
        "velocity": 0.57,
        "hand": "left"
      },
      {
        "midi": 58,
        "time": 7.333,
        "duration": 0.652,
        "velocity": 0.57,
        "hand": "left"
      },
      {
        "midi": 62,
        "time": 7.333,
        "duration": 0.667,
        "velocity": 0.55,
        "hand": "right"
      },
      {
        "midi": 68,
        "time": 7.333,
        "duration": 0.667,
        "velocity": 0.55,
        "hand": "right"
      },
      {
        "midi": 51,
        "time": 8,
        "duration": 0.667,
        "velocity": 0.59,
        "hand": "left"
      },
      {
        "midi": 58,
        "time": 8,
        "duration": 0.652,
        "velocity": 0.59,
        "hand": "left"
      },
      {
        "midi": 63,
        "time": 8,
        "duration": 0.667,
        "velocity": 0.59,
        "hand": "right"
      },
      {
        "midi": 67,
        "time": 8,
        "duration": 0.667,
        "velocity": 0.59,
        "hand": "right"
      },
      {
        "midi": 46,
        "time": 8.667,
        "duration": 2,
        "velocity": 0.6,
        "hand": "left"
      },
      {
        "midi": 58,
        "time": 8.667,
        "duration": 2,
        "velocity": 0.6,
        "hand": "left"
      },
      {
        "midi": 62,
        "time": 8.667,
        "duration": 2,
        "velocity": 0.54,
        "hand": "right"
      },
      {
        "midi": 65,
        "time": 8.667,
        "duration": 2,
        "velocity": 0.54,
        "hand": "right"
      },
      {
        "midi": 51,
        "time": 10.667,
        "duration": 0.651,
        "velocity": 0.56,
        "hand": "left"
      },
      {
        "midi": 55,
        "time": 10.667,
        "duration": 0.667,
        "velocity": 0.56,
        "hand": "left"
      },
      {
        "midi": 63,
        "time": 10.667,
        "duration": 0.651,
        "velocity": 0.54,
        "hand": "right"
      },
      {
        "midi": 51,
        "time": 11.333,
        "duration": 0.985,
        "velocity": 0.61,
        "hand": "left"
      },
      {
        "midi": 58,
        "time": 11.333,
        "duration": 1,
        "velocity": 0.61,
        "hand": "left"
      },
      {
        "midi": 63,
        "time": 11.333,
        "duration": 0.985,
        "velocity": 0.65,
        "hand": "right"
      },
      {
        "midi": 67,
        "time": 11.333,
        "duration": 1,
        "velocity": 0.65,
        "hand": "right"
      },
      {
        "midi": 51,
        "time": 12.333,
        "duration": 0.319,
        "velocity": 0.59,
        "hand": "left"
      },
      {
        "midi": 56,
        "time": 12.333,
        "duration": 0.333,
        "velocity": 0.59,
        "hand": "left"
      },
      {
        "midi": 63,
        "time": 12.333,
        "duration": 0.319,
        "velocity": 0.56,
        "hand": "right"
      },
      {
        "midi": 65,
        "time": 12.333,
        "duration": 0.333,
        "velocity": 0.56,
        "hand": "right"
      },
      {
        "midi": 51,
        "time": 12.667,
        "duration": 0.651,
        "velocity": 0.59,
        "hand": "left"
      },
      {
        "midi": 55,
        "time": 12.667,
        "duration": 0.667,
        "velocity": 0.59,
        "hand": "left"
      },
      {
        "midi": 63,
        "time": 12.667,
        "duration": 0.651,
        "velocity": 0.57,
        "hand": "right"
      },
      {
        "midi": 51,
        "time": 13.333,
        "duration": 0.652,
        "velocity": 0.61,
        "hand": "left"
      },
      {
        "midi": 58,
        "time": 13.333,
        "duration": 0.667,
        "velocity": 0.61,
        "hand": "left"
      },
      {
        "midi": 63,
        "time": 13.333,
        "duration": 0.652,
        "velocity": 0.65,
        "hand": "right"
      },
      {
        "midi": 67,
        "time": 13.333,
        "duration": 0.652,
        "velocity": 0.65,
        "hand": "right"
      },
      {
        "midi": 51,
        "time": 14,
        "duration": 0.985,
        "velocity": 0.69,
        "hand": "left"
      },
      {
        "midi": 63,
        "time": 14,
        "duration": 0.985,
        "velocity": 0.69,
        "hand": "right"
      },
      {
        "midi": 67,
        "time": 14,
        "duration": 1,
        "velocity": 0.65,
        "hand": "right"
      },
      {
        "midi": 70,
        "time": 14,
        "duration": 1,
        "velocity": 0.65,
        "hand": "right"
      },
      {
        "midi": 51,
        "time": 15,
        "duration": 0.318,
        "velocity": 0.63,
        "hand": "left"
      },
      {
        "midi": 63,
        "time": 15,
        "duration": 0.318,
        "velocity": 0.63,
        "hand": "right"
      },
      {
        "midi": 68,
        "time": 15,
        "duration": 0.333,
        "velocity": 0.67,
        "hand": "right"
      },
      {
        "midi": 72,
        "time": 15,
        "duration": 0.333,
        "velocity": 0.67,
        "hand": "right"
      },
      {
        "midi": 51,
        "time": 15.333,
        "duration": 0.652,
        "velocity": 0.59,
        "hand": "left"
      },
      {
        "midi": 63,
        "time": 15.333,
        "duration": 0.652,
        "velocity": 0.59,
        "hand": "right"
      },
      {
        "midi": 67,
        "time": 15.333,
        "duration": 0.667,
        "velocity": 0.57,
        "hand": "right"
      },
      {
        "midi": 70,
        "time": 15.333,
        "duration": 0.667,
        "velocity": 0.57,
        "hand": "right"
      },
      {
        "midi": 51,
        "time": 16,
        "duration": 0.667,
        "velocity": 0.57,
        "hand": "left"
      },
      {
        "midi": 55,
        "time": 16,
        "duration": 0.667,
        "velocity": 0.57,
        "hand": "left"
      },
      {
        "midi": 63,
        "time": 16,
        "duration": 0.667,
        "velocity": 0.49,
        "hand": "right"
      },
      {
        "midi": 44,
        "time": 16.667,
        "duration": 0.651,
        "velocity": 0.6,
        "hand": "left"
      },
      {
        "midi": 56,
        "time": 16.667,
        "duration": 0.667,
        "velocity": 0.6,
        "hand": "left"
      },
      {
        "midi": 60,
        "time": 16.667,
        "duration": 0.651,
        "velocity": 0.61,
        "hand": "right"
      },
      {
        "midi": 65,
        "time": 16.667,
        "duration": 0.651,
        "velocity": 0.61,
        "hand": "right"
      },
      {
        "midi": 44,
        "time": 17.333,
        "duration": 0.667,
        "velocity": 0.65,
        "hand": "left"
      },
      {
        "midi": 60,
        "time": 17.333,
        "duration": 0.667,
        "velocity": 0.65,
        "hand": "right"
      },
      {
        "midi": 65,
        "time": 17.333,
        "duration": 0.667,
        "velocity": 0.63,
        "hand": "right"
      },
      {
        "midi": 68,
        "time": 17.333,
        "duration": 0.667,
        "velocity": 0.63,
        "hand": "right"
      },
      {
        "midi": 46,
        "time": 18,
        "duration": 0.652,
        "velocity": 0.61,
        "hand": "left"
      },
      {
        "midi": 58,
        "time": 18,
        "duration": 0.667,
        "velocity": 0.61,
        "hand": "left"
      },
      {
        "midi": 63,
        "time": 18,
        "duration": 0.667,
        "velocity": 0.57,
        "hand": "right"
      },
      {
        "midi": 67,
        "time": 18,
        "duration": 0.667,
        "velocity": 0.57,
        "hand": "right"
      },
      {
        "midi": 46,
        "time": 18.667,
        "duration": 0.667,
        "velocity": 0.58,
        "hand": "left"
      },
      {
        "midi": 56,
        "time": 18.667,
        "duration": 0.667,
        "velocity": 0.58,
        "hand": "left"
      },
      {
        "midi": 62,
        "time": 18.667,
        "duration": 0.667,
        "velocity": 0.57,
        "hand": "right"
      },
      {
        "midi": 65,
        "time": 18.667,
        "duration": 0.667,
        "velocity": 0.57,
        "hand": "right"
      },
      {
        "midi": 51,
        "time": 19.333,
        "duration": 1.985,
        "velocity": 0.6,
        "hand": "left"
      },
      {
        "midi": 55,
        "time": 19.333,
        "duration": 1.985,
        "velocity": 0.6,
        "hand": "left"
      },
      {
        "midi": 63,
        "time": 19.333,
        "duration": 1.985,
        "velocity": 0.6,
        "hand": "right"
      },
      {
        "midi": 51,
        "time": 21.333,
        "duration": 0.319,
        "velocity": 0.57,
        "hand": "left"
      },
      {
        "midi": 55,
        "time": 21.333,
        "duration": 0.333,
        "velocity": 0.57,
        "hand": "left"
      },
      {
        "midi": 63,
        "time": 21.333,
        "duration": 0.319,
        "velocity": 0.57,
        "hand": "right"
      },
      {
        "midi": 51,
        "time": 21.667,
        "duration": 0.318,
        "velocity": 0.61,
        "hand": "left"
      },
      {
        "midi": 56,
        "time": 21.667,
        "duration": 0.333,
        "velocity": 0.61,
        "hand": "left"
      },
      {
        "midi": 63,
        "time": 21.667,
        "duration": 0.318,
        "velocity": 0.65,
        "hand": "right"
      },
      {
        "midi": 65,
        "time": 21.667,
        "duration": 0.333,
        "velocity": 0.65,
        "hand": "right"
      },
      {
        "midi": 51,
        "time": 22,
        "duration": 0.652,
        "velocity": 0.59,
        "hand": "left"
      },
      {
        "midi": 58,
        "time": 22,
        "duration": 0.652,
        "velocity": 0.59,
        "hand": "left"
      },
      {
        "midi": 63,
        "time": 22,
        "duration": 0.652,
        "velocity": 0.65,
        "hand": "right"
      },
      {
        "midi": 67,
        "time": 22,
        "duration": 0.652,
        "velocity": 0.65,
        "hand": "right"
      },
      {
        "midi": 51,
        "time": 22.667,
        "duration": 0.485,
        "velocity": 0.57,
        "hand": "left"
      },
      {
        "midi": 58,
        "time": 22.667,
        "duration": 0.485,
        "velocity": 0.57,
        "hand": "left"
      },
      {
        "midi": 63,
        "time": 22.667,
        "duration": 0.485,
        "velocity": 0.61,
        "hand": "right"
      },
      {
        "midi": 67,
        "time": 22.667,
        "duration": 0.485,
        "velocity": 0.61,
        "hand": "right"
      },
      {
        "midi": 51,
        "time": 23.167,
        "duration": 0.151,
        "velocity": 0.6,
        "hand": "left"
      },
      {
        "midi": 58,
        "time": 23.167,
        "duration": 0.151,
        "velocity": 0.6,
        "hand": "left"
      },
      {
        "midi": 63,
        "time": 23.167,
        "duration": 0.151,
        "velocity": 0.59,
        "hand": "right"
      },
      {
        "midi": 67,
        "time": 23.167,
        "duration": 0.151,
        "velocity": 0.59,
        "hand": "right"
      },
      {
        "midi": 51,
        "time": 23.333,
        "duration": 0.652,
        "velocity": 0.65,
        "hand": "left"
      },
      {
        "midi": 58,
        "time": 23.333,
        "duration": 0.667,
        "velocity": 0.65,
        "hand": "left"
      },
      {
        "midi": 63,
        "time": 23.333,
        "duration": 0.652,
        "velocity": 0.61,
        "hand": "right"
      },
      {
        "midi": 67,
        "time": 23.333,
        "duration": 0.667,
        "velocity": 0.61,
        "hand": "right"
      },
      {
        "midi": 51,
        "time": 24,
        "duration": 0.318,
        "velocity": 0.63,
        "hand": "left"
      },
      {
        "midi": 60,
        "time": 24,
        "duration": 0.333,
        "velocity": 0.63,
        "hand": "right"
      },
      {
        "midi": 63,
        "time": 24,
        "duration": 0.318,
        "velocity": 0.56,
        "hand": "right"
      },
      {
        "midi": 68,
        "time": 24,
        "duration": 0.333,
        "velocity": 0.56,
        "hand": "right"
      },
      {
        "midi": 51,
        "time": 24.333,
        "duration": 0.333,
        "velocity": 0.61,
        "hand": "left"
      },
      {
        "midi": 58,
        "time": 24.333,
        "duration": 0.319,
        "velocity": 0.61,
        "hand": "left"
      },
      {
        "midi": 63,
        "time": 24.333,
        "duration": 0.319,
        "velocity": 0.58,
        "hand": "right"
      },
      {
        "midi": 67,
        "time": 24.333,
        "duration": 0.319,
        "velocity": 0.58,
        "hand": "right"
      },
      {
        "midi": 46,
        "time": 24.667,
        "duration": 0.651,
        "velocity": 0.61,
        "hand": "left"
      },
      {
        "midi": 58,
        "time": 24.667,
        "duration": 0.651,
        "velocity": 0.61,
        "hand": "left"
      },
      {
        "midi": 63,
        "time": 24.667,
        "duration": 0.333,
        "velocity": 0.6,
        "hand": "right"
      },
      {
        "midi": 67,
        "time": 24.667,
        "duration": 0.333,
        "velocity": 0.6,
        "hand": "right"
      },
      {
        "midi": 62,
        "time": 25,
        "duration": 0.318,
        "velocity": 0.6,
        "hand": "right"
      },
      {
        "midi": 65,
        "time": 25,
        "duration": 0.318,
        "velocity": 0.6,
        "hand": "right"
      },
      {
        "midi": 46,
        "time": 25.333,
        "duration": 0.485,
        "velocity": 0.58,
        "hand": "left"
      },
      {
        "midi": 58,
        "time": 25.333,
        "duration": 0.5,
        "velocity": 0.58,
        "hand": "left"
      },
      {
        "midi": 62,
        "time": 25.333,
        "duration": 0.5,
        "velocity": 0.61,
        "hand": "right"
      },
      {
        "midi": 65,
        "time": 25.333,
        "duration": 0.5,
        "velocity": 0.61,
        "hand": "right"
      },
      {
        "midi": 46,
        "time": 25.833,
        "duration": 0.152,
        "velocity": 0.56,
        "hand": "left"
      },
      {
        "midi": 55,
        "time": 25.833,
        "duration": 0.167,
        "velocity": 0.56,
        "hand": "left"
      },
      {
        "midi": 63,
        "time": 25.833,
        "duration": 0.167,
        "velocity": 0.55,
        "hand": "right"
      },
      {
        "midi": 46,
        "time": 26,
        "duration": 0.652,
        "velocity": 0.62,
        "hand": "left"
      },
      {
        "midi": 58,
        "time": 26,
        "duration": 0.652,
        "velocity": 0.62,
        "hand": "left"
      },
      {
        "midi": 62,
        "time": 26,
        "duration": 0.652,
        "velocity": 0.6,
        "hand": "right"
      },
      {
        "midi": 65,
        "time": 26,
        "duration": 0.652,
        "velocity": 0.6,
        "hand": "right"
      },
      {
        "midi": 46,
        "time": 26.667,
        "duration": 0.318,
        "velocity": 0.59,
        "hand": "left"
      },
      {
        "midi": 58,
        "time": 26.667,
        "duration": 0.318,
        "velocity": 0.59,
        "hand": "left"
      },
      {
        "midi": 62,
        "time": 26.667,
        "duration": 0.333,
        "velocity": 0.57,
        "hand": "right"
      },
      {
        "midi": 65,
        "time": 26.667,
        "duration": 0.333,
        "velocity": 0.57,
        "hand": "right"
      },
      {
        "midi": 46,
        "time": 27,
        "duration": 0.318,
        "velocity": 0.61,
        "hand": "left"
      },
      {
        "midi": 58,
        "time": 27,
        "duration": 0.333,
        "velocity": 0.61,
        "hand": "left"
      },
      {
        "midi": 63,
        "time": 27,
        "duration": 0.333,
        "velocity": 0.65,
        "hand": "right"
      },
      {
        "midi": 67,
        "time": 27,
        "duration": 0.333,
        "velocity": 0.65,
        "hand": "right"
      },
      {
        "midi": 46,
        "time": 27.333,
        "duration": 0.319,
        "velocity": 0.74,
        "hand": "left"
      },
      {
        "midi": 65,
        "time": 27.333,
        "duration": 0.319,
        "velocity": 0.62,
        "hand": "right"
      },
      {
        "midi": 68,
        "time": 27.333,
        "duration": 0.319,
        "velocity": 0.62,
        "hand": "right"
      },
      {
        "midi": 46,
        "time": 27.667,
        "duration": 0.318,
        "velocity": 0.57,
        "hand": "left"
      },
      {
        "midi": 63,
        "time": 27.667,
        "duration": 0.333,
        "velocity": 0.57,
        "hand": "right"
      },
      {
        "midi": 65,
        "time": 27.667,
        "duration": 0.318,
        "velocity": 0.6,
        "hand": "right"
      },
      {
        "midi": 68,
        "time": 27.667,
        "duration": 0.318,
        "velocity": 0.6,
        "hand": "right"
      },
      {
        "midi": 46,
        "time": 28,
        "duration": 0.485,
        "velocity": 0.56,
        "hand": "left"
      },
      {
        "midi": 62,
        "time": 28,
        "duration": 0.5,
        "velocity": 0.56,
        "hand": "right"
      },
      {
        "midi": 65,
        "time": 28,
        "duration": 0.485,
        "velocity": 0.59,
        "hand": "right"
      },
      {
        "midi": 68,
        "time": 28,
        "duration": 0.485,
        "velocity": 0.59,
        "hand": "right"
      },
      {
        "midi": 46,
        "time": 28.5,
        "duration": 0.152,
        "velocity": 0.55,
        "hand": "left"
      },
      {
        "midi": 60,
        "time": 28.5,
        "duration": 0.167,
        "velocity": 0.55,
        "hand": "right"
      },
      {
        "midi": 65,
        "time": 28.5,
        "duration": 0.152,
        "velocity": 0.62,
        "hand": "right"
      },
      {
        "midi": 68,
        "time": 28.5,
        "duration": 0.152,
        "velocity": 0.62,
        "hand": "right"
      },
      {
        "midi": 46,
        "time": 28.667,
        "duration": 0.651,
        "velocity": 0.57,
        "hand": "left"
      },
      {
        "midi": 58,
        "time": 28.667,
        "duration": 0.651,
        "velocity": 0.57,
        "hand": "left"
      },
      {
        "midi": 65,
        "time": 28.667,
        "duration": 0.667,
        "velocity": 0.57,
        "hand": "right"
      },
      {
        "midi": 68,
        "time": 28.667,
        "duration": 0.667,
        "velocity": 0.57,
        "hand": "right"
      },
      {
        "midi": 46,
        "time": 29.333,
        "duration": 0.485,
        "velocity": 0.54,
        "hand": "left"
      },
      {
        "midi": 58,
        "time": 29.333,
        "duration": 0.485,
        "velocity": 0.54,
        "hand": "left"
      },
      {
        "midi": 67,
        "time": 29.333,
        "duration": 0.5,
        "velocity": 0.64,
        "hand": "right"
      },
      {
        "midi": 70,
        "time": 29.333,
        "duration": 0.5,
        "velocity": 0.64,
        "hand": "right"
      },
      {
        "midi": 46,
        "time": 29.833,
        "duration": 0.167,
        "velocity": 0.61,
        "hand": "left"
      },
      {
        "midi": 58,
        "time": 29.833,
        "duration": 0.152,
        "velocity": 0.61,
        "hand": "left"
      },
      {
        "midi": 65,
        "time": 29.833,
        "duration": 0.167,
        "velocity": 0.52,
        "hand": "right"
      },
      {
        "midi": 68,
        "time": 29.833,
        "duration": 0.167,
        "velocity": 0.52,
        "hand": "right"
      },
      {
        "midi": 51,
        "time": 30,
        "duration": 0.652,
        "velocity": 0.6,
        "hand": "left"
      },
      {
        "midi": 58,
        "time": 30,
        "duration": 0.667,
        "velocity": 0.6,
        "hand": "left"
      },
      {
        "midi": 63,
        "time": 30,
        "duration": 0.652,
        "velocity": 0.53,
        "hand": "right"
      },
      {
        "midi": 67,
        "time": 30,
        "duration": 1.985,
        "velocity": 0.53,
        "hand": "right"
      },
      {
        "midi": 51,
        "time": 30.667,
        "duration": 0.485,
        "velocity": 0.65,
        "hand": "left"
      },
      {
        "midi": 63,
        "time": 30.667,
        "duration": 0.485,
        "velocity": 0.65,
        "hand": "right"
      },
      {
        "midi": 51,
        "time": 31.167,
        "duration": 0.151,
        "velocity": 0.57,
        "hand": "left"
      },
      {
        "midi": 63,
        "time": 31.167,
        "duration": 0.167,
        "velocity": 0.57,
        "hand": "right"
      },
      {
        "midi": 51,
        "time": 31.333,
        "duration": 0.652,
        "velocity": 0.56,
        "hand": "left"
      },
      {
        "midi": 58,
        "time": 31.333,
        "duration": 0.652,
        "velocity": 0.56,
        "hand": "left"
      },
      {
        "midi": 51,
        "time": 32,
        "duration": 0.318,
        "velocity": 0.61,
        "hand": "left"
      },
      {
        "midi": 58,
        "time": 32,
        "duration": 0.318,
        "velocity": 0.61,
        "hand": "left"
      },
      {
        "midi": 63,
        "time": 32,
        "duration": 0.318,
        "velocity": 0.55,
        "hand": "right"
      },
      {
        "midi": 67,
        "time": 32,
        "duration": 0.318,
        "velocity": 0.55,
        "hand": "right"
      },
      {
        "midi": 51,
        "time": 32.333,
        "duration": 0.333,
        "velocity": 0.6,
        "hand": "left"
      },
      {
        "midi": 58,
        "time": 32.333,
        "duration": 0.333,
        "velocity": 0.6,
        "hand": "left"
      },
      {
        "midi": 63,
        "time": 32.333,
        "duration": 0.319,
        "velocity": 0.61,
        "hand": "right"
      },
      {
        "midi": 67,
        "time": 32.333,
        "duration": 0.333,
        "velocity": 0.61,
        "hand": "right"
      },
      {
        "midi": 44,
        "time": 32.667,
        "duration": 0.333,
        "velocity": 0.54,
        "hand": "left"
      },
      {
        "midi": 60,
        "time": 32.667,
        "duration": 0.651,
        "velocity": 0.64,
        "hand": "right"
      },
      {
        "midi": 63,
        "time": 32.667,
        "duration": 0.651,
        "velocity": 0.62,
        "hand": "right"
      },
      {
        "midi": 68,
        "time": 32.667,
        "duration": 0.651,
        "velocity": 0.62,
        "hand": "right"
      },
      {
        "midi": 46,
        "time": 33,
        "duration": 0.333,
        "velocity": 0.57,
        "hand": "left"
      },
      {
        "midi": 48,
        "time": 33.333,
        "duration": 0.333,
        "velocity": 0.65,
        "hand": "left"
      },
      {
        "midi": 60,
        "time": 33.333,
        "duration": 0.652,
        "velocity": 0.61,
        "hand": "right"
      },
      {
        "midi": 63,
        "time": 33.333,
        "duration": 0.667,
        "velocity": 0.59,
        "hand": "right"
      },
      {
        "midi": 68,
        "time": 33.333,
        "duration": 0.667,
        "velocity": 0.59,
        "hand": "right"
      },
      {
        "midi": 46,
        "time": 33.667,
        "duration": 0.333,
        "velocity": 0.57,
        "hand": "left"
      },
      {
        "midi": 44,
        "time": 34,
        "duration": 0.333,
        "velocity": 0.6,
        "hand": "left"
      },
      {
        "midi": 56,
        "time": 34,
        "duration": 0.667,
        "velocity": 0.57,
        "hand": "left"
      },
      {
        "midi": 60,
        "time": 34,
        "duration": 0.652,
        "velocity": 0.46,
        "hand": "right"
      },
      {
        "midi": 46,
        "time": 34.333,
        "duration": 0.333,
        "velocity": 0.61,
        "hand": "left"
      },
      {
        "midi": 48,
        "time": 34.667,
        "duration": 0.333,
        "velocity": 0.67,
        "hand": "left"
      },
      {
        "midi": 60,
        "time": 34.667,
        "duration": 0.318,
        "velocity": 0.67,
        "hand": "right"
      },
      {
        "midi": 63,
        "time": 34.667,
        "duration": 0.333,
        "velocity": 0.69,
        "hand": "right"
      },
      {
        "midi": 68,
        "time": 34.667,
        "duration": 0.318,
        "velocity": 0.69,
        "hand": "right"
      },
      {
        "midi": 50,
        "time": 35,
        "duration": 0.333,
        "velocity": 0.58,
        "hand": "left"
      },
      {
        "midi": 60,
        "time": 35,
        "duration": 0.333,
        "velocity": 0.58,
        "hand": "right"
      },
      {
        "midi": 65,
        "time": 35,
        "duration": 0.333,
        "velocity": 0.61,
        "hand": "right"
      },
      {
        "midi": 68,
        "time": 35,
        "duration": 0.333,
        "velocity": 0.61,
        "hand": "right"
      },
      {
        "midi": 51,
        "time": 35.333,
        "duration": 0.652,
        "velocity": 0.57,
        "hand": "left"
      },
      {
        "midi": 58,
        "time": 35.333,
        "duration": 0.652,
        "velocity": 0.57,
        "hand": "left"
      },
      {
        "midi": 63,
        "time": 35.333,
        "duration": 0.652,
        "velocity": 0.55,
        "hand": "right"
      },
      {
        "midi": 67,
        "time": 35.333,
        "duration": 0.652,
        "velocity": 0.55,
        "hand": "right"
      },
      {
        "midi": 51,
        "time": 36,
        "duration": 0.652,
        "velocity": 0.53,
        "hand": "left"
      },
      {
        "midi": 58,
        "time": 36,
        "duration": 0.333,
        "velocity": 0.61,
        "hand": "left"
      },
      {
        "midi": 63,
        "time": 36,
        "duration": 0.652,
        "velocity": 0.54,
        "hand": "right"
      },
      {
        "midi": 67,
        "time": 36,
        "duration": 0.333,
        "velocity": 0.59,
        "hand": "right"
      },
      {
        "midi": 56,
        "time": 36.333,
        "duration": 0.333,
        "velocity": 0.59,
        "hand": "left"
      },
      {
        "midi": 65,
        "time": 36.333,
        "duration": 0.333,
        "velocity": 0.57,
        "hand": "right"
      },
      {
        "midi": 51,
        "time": 36.667,
        "duration": 0.651,
        "velocity": 0.59,
        "hand": "left"
      },
      {
        "midi": 55,
        "time": 36.667,
        "duration": 0.667,
        "velocity": 0.59,
        "hand": "left"
      },
      {
        "midi": 63,
        "time": 36.667,
        "duration": 0.651,
        "velocity": 0.53,
        "hand": "right"
      },
      {
        "midi": 51,
        "time": 37.333,
        "duration": 0.667,
        "velocity": 0.63,
        "hand": "left"
      },
      {
        "midi": 58,
        "time": 37.333,
        "duration": 0.667,
        "velocity": 0.63,
        "hand": "left"
      },
      {
        "midi": 63,
        "time": 37.333,
        "duration": 0.667,
        "velocity": 0.66,
        "hand": "right"
      },
      {
        "midi": 67,
        "time": 37.333,
        "duration": 0.667,
        "velocity": 0.66,
        "hand": "right"
      },
      {
        "midi": 44,
        "time": 38,
        "duration": 0.652,
        "velocity": 0.61,
        "hand": "left"
      },
      {
        "midi": 56,
        "time": 38,
        "duration": 0.652,
        "velocity": 0.61,
        "hand": "left"
      },
      {
        "midi": 60,
        "time": 38,
        "duration": 0.652,
        "velocity": 0.57,
        "hand": "right"
      },
      {
        "midi": 65,
        "time": 38,
        "duration": 0.652,
        "velocity": 0.57,
        "hand": "right"
      },
      {
        "midi": 44,
        "time": 38.667,
        "duration": 0.318,
        "velocity": 0.61,
        "hand": "left"
      },
      {
        "midi": 56,
        "time": 38.667,
        "duration": 0.318,
        "velocity": 0.61,
        "hand": "left"
      },
      {
        "midi": 60,
        "time": 38.667,
        "duration": 0.318,
        "velocity": 0.62,
        "hand": "right"
      },
      {
        "midi": 65,
        "time": 38.667,
        "duration": 0.333,
        "velocity": 0.62,
        "hand": "right"
      },
      {
        "midi": 44,
        "time": 39,
        "duration": 0.333,
        "velocity": 0.55,
        "hand": "left"
      },
      {
        "midi": 56,
        "time": 39,
        "duration": 0.333,
        "velocity": 0.55,
        "hand": "left"
      },
      {
        "midi": 60,
        "time": 39,
        "duration": 0.333,
        "velocity": 0.57,
        "hand": "right"
      },
      {
        "midi": 63,
        "time": 39,
        "duration": 0.333,
        "velocity": 0.57,
        "hand": "right"
      },
      {
        "midi": 46,
        "time": 39.333,
        "duration": 0.319,
        "velocity": 0.6,
        "hand": "left"
      },
      {
        "midi": 53,
        "time": 39.333,
        "duration": 0.333,
        "velocity": 0.6,
        "hand": "left"
      },
      {
        "midi": 62,
        "time": 39.333,
        "duration": 0.333,
        "velocity": 0.55,
        "hand": "right"
      },
      {
        "midi": 46,
        "time": 39.667,
        "duration": 0.318,
        "velocity": 0.61,
        "hand": "left"
      },
      {
        "midi": 58,
        "time": 39.667,
        "duration": 0.318,
        "velocity": 0.61,
        "hand": "left"
      },
      {
        "midi": 65,
        "time": 39.667,
        "duration": 0.333,
        "velocity": 0.69,
        "hand": "right"
      },
      {
        "midi": 68,
        "time": 39.667,
        "duration": 0.333,
        "velocity": 0.69,
        "hand": "right"
      },
      {
        "midi": 46,
        "time": 40,
        "duration": 0.485,
        "velocity": 0.61,
        "hand": "left"
      },
      {
        "midi": 58,
        "time": 40,
        "duration": 0.5,
        "velocity": 0.61,
        "hand": "left"
      },
      {
        "midi": 63,
        "time": 40,
        "duration": 0.5,
        "velocity": 0.59,
        "hand": "right"
      },
      {
        "midi": 67,
        "time": 40,
        "duration": 0.5,
        "velocity": 0.59,
        "hand": "right"
      },
      {
        "midi": 46,
        "time": 40.5,
        "duration": 0.167,
        "velocity": 0.57,
        "hand": "left"
      },
      {
        "midi": 56,
        "time": 40.5,
        "duration": 0.167,
        "velocity": 0.57,
        "hand": "left"
      },
      {
        "midi": 62,
        "time": 40.5,
        "duration": 0.167,
        "velocity": 0.55,
        "hand": "right"
      },
      {
        "midi": 65,
        "time": 40.5,
        "duration": 0.167,
        "velocity": 0.55,
        "hand": "right"
      },
      {
        "midi": 51,
        "time": 40.667,
        "duration": 2,
        "velocity": 0.59,
        "hand": "left"
      },
      {
        "midi": 55,
        "time": 40.667,
        "duration": 2,
        "velocity": 0.59,
        "hand": "left"
      },
      {
        "midi": 63,
        "time": 40.667,
        "duration": 2,
        "velocity": 0.55,
        "hand": "right"
      }
    ]
  },
  "notes1Hand": [
    {
      "midi": 63,
      "time": 0,
      "duration": 0.652,
      "velocity": 0.54,
      "hand": "right"
    },
    {
      "midi": 67,
      "time": 0.667,
      "duration": 1,
      "velocity": 0.65,
      "hand": "right"
    },
    {
      "midi": 65,
      "time": 1.667,
      "duration": 0.4,
      "velocity": 0.6,
      "hand": "right"
    },
    {
      "midi": 67,
      "time": 2.667,
      "duration": 0.651,
      "velocity": 0.65,
      "hand": "right"
    },
    {
      "midi": 70,
      "time": 3.333,
      "duration": 1,
      "velocity": 0.64,
      "hand": "right"
    },
    {
      "midi": 68,
      "time": 4.333,
      "duration": 0.4,
      "velocity": 0.53,
      "hand": "right"
    },
    {
      "midi": 70,
      "time": 5.333,
      "duration": 0.667,
      "velocity": 0.63,
      "hand": "right"
    },
    {
      "midi": 72,
      "time": 6,
      "duration": 0.667,
      "velocity": 0.62,
      "hand": "right"
    },
    {
      "midi": 70,
      "time": 6.667,
      "duration": 0.667,
      "velocity": 0.59,
      "hand": "right"
    },
    {
      "midi": 68,
      "time": 7.333,
      "duration": 0.667,
      "velocity": 0.55,
      "hand": "right"
    },
    {
      "midi": 67,
      "time": 8,
      "duration": 0.667,
      "velocity": 0.59,
      "hand": "right"
    },
    {
      "midi": 65,
      "time": 8.667,
      "duration": 2,
      "velocity": 0.54,
      "hand": "right"
    },
    {
      "midi": 63,
      "time": 10.667,
      "duration": 0.651,
      "velocity": 0.54,
      "hand": "right"
    },
    {
      "midi": 67,
      "time": 11.333,
      "duration": 1,
      "velocity": 0.65,
      "hand": "right"
    },
    {
      "midi": 65,
      "time": 12.333,
      "duration": 0.4,
      "velocity": 0.56,
      "hand": "right"
    },
    {
      "midi": 67,
      "time": 13.333,
      "duration": 0.652,
      "velocity": 0.65,
      "hand": "right"
    },
    {
      "midi": 70,
      "time": 14,
      "duration": 1,
      "velocity": 0.65,
      "hand": "right"
    },
    {
      "midi": 72,
      "time": 15,
      "duration": 0.4,
      "velocity": 0.67,
      "hand": "right"
    },
    {
      "midi": 63,
      "time": 16,
      "duration": 0.667,
      "velocity": 0.49,
      "hand": "right"
    },
    {
      "midi": 65,
      "time": 16.667,
      "duration": 0.651,
      "velocity": 0.61,
      "hand": "right"
    },
    {
      "midi": 68,
      "time": 17.333,
      "duration": 0.667,
      "velocity": 0.63,
      "hand": "right"
    },
    {
      "midi": 67,
      "time": 18,
      "duration": 0.667,
      "velocity": 0.57,
      "hand": "right"
    },
    {
      "midi": 65,
      "time": 18.667,
      "duration": 0.667,
      "velocity": 0.57,
      "hand": "right"
    },
    {
      "midi": 63,
      "time": 19.333,
      "duration": 1.985,
      "velocity": 0.6,
      "hand": "right"
    },
    {
      "midi": 63,
      "time": 21.333,
      "duration": 0.4,
      "velocity": 0.57,
      "hand": "right"
    },
    {
      "midi": 67,
      "time": 22,
      "duration": 0.652,
      "velocity": 0.65,
      "hand": "right"
    },
    {
      "midi": 67,
      "time": 22.667,
      "duration": 0.485,
      "velocity": 0.61,
      "hand": "right"
    },
    {
      "midi": 67,
      "time": 23.333,
      "duration": 0.667,
      "velocity": 0.61,
      "hand": "right"
    },
    {
      "midi": 68,
      "time": 24,
      "duration": 0.4,
      "velocity": 0.56,
      "hand": "right"
    },
    {
      "midi": 67,
      "time": 24.667,
      "duration": 0.4,
      "velocity": 0.6,
      "hand": "right"
    },
    {
      "midi": 65,
      "time": 25.333,
      "duration": 0.5,
      "velocity": 0.61,
      "hand": "right"
    },
    {
      "midi": 65,
      "time": 26,
      "duration": 0.652,
      "velocity": 0.6,
      "hand": "right"
    },
    {
      "midi": 65,
      "time": 26.667,
      "duration": 0.4,
      "velocity": 0.57,
      "hand": "right"
    },
    {
      "midi": 68,
      "time": 27.333,
      "duration": 0.4,
      "velocity": 0.62,
      "hand": "right"
    },
    {
      "midi": 68,
      "time": 28,
      "duration": 0.485,
      "velocity": 0.59,
      "hand": "right"
    },
    {
      "midi": 68,
      "time": 28.667,
      "duration": 0.667,
      "velocity": 0.57,
      "hand": "right"
    },
    {
      "midi": 70,
      "time": 29.333,
      "duration": 0.5,
      "velocity": 0.64,
      "hand": "right"
    },
    {
      "midi": 67,
      "time": 30,
      "duration": 1.985,
      "velocity": 0.53,
      "hand": "right"
    },
    {
      "midi": 63,
      "time": 30.667,
      "duration": 0.485,
      "velocity": 0.65,
      "hand": "right"
    },
    {
      "midi": 58,
      "time": 31.333,
      "duration": 0.652,
      "velocity": 0.56,
      "hand": "right"
    },
    {
      "midi": 67,
      "time": 32,
      "duration": 0.4,
      "velocity": 0.55,
      "hand": "right"
    },
    {
      "midi": 68,
      "time": 32.667,
      "duration": 0.651,
      "velocity": 0.62,
      "hand": "right"
    },
    {
      "midi": 68,
      "time": 33.333,
      "duration": 0.667,
      "velocity": 0.59,
      "hand": "right"
    },
    {
      "midi": 60,
      "time": 34,
      "duration": 0.652,
      "velocity": 0.46,
      "hand": "right"
    },
    {
      "midi": 68,
      "time": 34.667,
      "duration": 0.4,
      "velocity": 0.69,
      "hand": "right"
    },
    {
      "midi": 67,
      "time": 35.333,
      "duration": 0.652,
      "velocity": 0.55,
      "hand": "right"
    },
    {
      "midi": 67,
      "time": 36,
      "duration": 0.4,
      "velocity": 0.59,
      "hand": "right"
    },
    {
      "midi": 63,
      "time": 36.667,
      "duration": 0.651,
      "velocity": 0.53,
      "hand": "right"
    },
    {
      "midi": 67,
      "time": 37.333,
      "duration": 0.667,
      "velocity": 0.66,
      "hand": "right"
    },
    {
      "midi": 65,
      "time": 38,
      "duration": 0.652,
      "velocity": 0.57,
      "hand": "right"
    },
    {
      "midi": 65,
      "time": 38.667,
      "duration": 0.4,
      "velocity": 0.62,
      "hand": "right"
    },
    {
      "midi": 62,
      "time": 39.333,
      "duration": 0.4,
      "velocity": 0.55,
      "hand": "right"
    },
    {
      "midi": 67,
      "time": 40,
      "duration": 0.5,
      "velocity": 0.59,
      "hand": "right"
    },
    {
      "midi": 63,
      "time": 40.667,
      "duration": 2,
      "velocity": 0.55,
      "hand": "right"
    }
  ],
  "notes2Hands": [
    {
      "midi": 51,
      "time": 0,
      "duration": 0.652,
      "velocity": 0.51,
      "hand": "left"
    },
    {
      "midi": 55,
      "time": 0,
      "duration": 0.667,
      "velocity": 0.51,
      "hand": "left"
    },
    {
      "midi": 63,
      "time": 0,
      "duration": 0.652,
      "velocity": 0.54,
      "hand": "right"
    },
    {
      "midi": 51,
      "time": 0.667,
      "duration": 0.985,
      "velocity": 0.61,
      "hand": "left"
    },
    {
      "midi": 58,
      "time": 0.667,
      "duration": 1,
      "velocity": 0.61,
      "hand": "left"
    },
    {
      "midi": 63,
      "time": 0.667,
      "duration": 0.985,
      "velocity": 0.65,
      "hand": "right"
    },
    {
      "midi": 67,
      "time": 0.667,
      "duration": 1,
      "velocity": 0.65,
      "hand": "right"
    },
    {
      "midi": 51,
      "time": 1.667,
      "duration": 0.318,
      "velocity": 0.59,
      "hand": "left"
    },
    {
      "midi": 56,
      "time": 1.667,
      "duration": 0.333,
      "velocity": 0.59,
      "hand": "left"
    },
    {
      "midi": 63,
      "time": 1.667,
      "duration": 0.318,
      "velocity": 0.6,
      "hand": "right"
    },
    {
      "midi": 65,
      "time": 1.667,
      "duration": 0.333,
      "velocity": 0.6,
      "hand": "right"
    },
    {
      "midi": 51,
      "time": 2,
      "duration": 0.652,
      "velocity": 0.57,
      "hand": "left"
    },
    {
      "midi": 55,
      "time": 2,
      "duration": 0.667,
      "velocity": 0.57,
      "hand": "left"
    },
    {
      "midi": 63,
      "time": 2,
      "duration": 0.652,
      "velocity": 0.58,
      "hand": "right"
    },
    {
      "midi": 51,
      "time": 2.667,
      "duration": 0.651,
      "velocity": 0.61,
      "hand": "left"
    },
    {
      "midi": 58,
      "time": 2.667,
      "duration": 0.667,
      "velocity": 0.61,
      "hand": "left"
    },
    {
      "midi": 63,
      "time": 2.667,
      "duration": 0.651,
      "velocity": 0.65,
      "hand": "right"
    },
    {
      "midi": 67,
      "time": 2.667,
      "duration": 0.651,
      "velocity": 0.65,
      "hand": "right"
    },
    {
      "midi": 51,
      "time": 3.333,
      "duration": 0.985,
      "velocity": 0.68,
      "hand": "left"
    },
    {
      "midi": 63,
      "time": 3.333,
      "duration": 1,
      "velocity": 0.68,
      "hand": "right"
    },
    {
      "midi": 67,
      "time": 3.333,
      "duration": 1,
      "velocity": 0.64,
      "hand": "right"
    },
    {
      "midi": 70,
      "time": 3.333,
      "duration": 1,
      "velocity": 0.64,
      "hand": "right"
    },
    {
      "midi": 51,
      "time": 4.333,
      "duration": 0.319,
      "velocity": 0.58,
      "hand": "left"
    },
    {
      "midi": 58,
      "time": 4.333,
      "duration": 0.319,
      "velocity": 0.58,
      "hand": "left"
    },
    {
      "midi": 65,
      "time": 4.333,
      "duration": 0.333,
      "velocity": 0.53,
      "hand": "right"
    },
    {
      "midi": 68,
      "time": 4.333,
      "duration": 0.333,
      "velocity": 0.53,
      "hand": "right"
    },
    {
      "midi": 51,
      "time": 4.667,
      "duration": 0.667,
      "velocity": 0.59,
      "hand": "left"
    },
    {
      "midi": 58,
      "time": 4.667,
      "duration": 0.667,
      "velocity": 0.59,
      "hand": "left"
    },
    {
      "midi": 63,
      "time": 4.667,
      "duration": 0.651,
      "velocity": 0.56,
      "hand": "right"
    },
    {
      "midi": 67,
      "time": 4.667,
      "duration": 0.667,
      "velocity": 0.56,
      "hand": "right"
    },
    {
      "midi": 55,
      "time": 5.333,
      "duration": 0.667,
      "velocity": 0.69,
      "hand": "left"
    },
    {
      "midi": 63,
      "time": 5.333,
      "duration": 0.652,
      "velocity": 0.63,
      "hand": "right"
    },
    {
      "midi": 70,
      "time": 5.333,
      "duration": 0.667,
      "velocity": 0.63,
      "hand": "right"
    },
    {
      "midi": 56,
      "time": 6,
      "duration": 0.667,
      "velocity": 0.62,
      "hand": "left"
    },
    {
      "midi": 63,
      "time": 6,
      "duration": 0.652,
      "velocity": 0.62,
      "hand": "right"
    },
    {
      "midi": 72,
      "time": 6,
      "duration": 0.667,
      "velocity": 0.62,
      "hand": "right"
    },
    {
      "midi": 55,
      "time": 6.667,
      "duration": 0.667,
      "velocity": 0.57,
      "hand": "left"
    },
    {
      "midi": 63,
      "time": 6.667,
      "duration": 0.667,
      "velocity": 0.59,
      "hand": "right"
    },
    {
      "midi": 70,
      "time": 6.667,
      "duration": 0.667,
      "velocity": 0.59,
      "hand": "right"
    },
    {
      "midi": 53,
      "time": 7.333,
      "duration": 0.667,
      "velocity": 0.57,
      "hand": "left"
    },
    {
      "midi": 58,
      "time": 7.333,
      "duration": 0.652,
      "velocity": 0.57,
      "hand": "left"
    },
    {
      "midi": 62,
      "time": 7.333,
      "duration": 0.667,
      "velocity": 0.55,
      "hand": "right"
    },
    {
      "midi": 68,
      "time": 7.333,
      "duration": 0.667,
      "velocity": 0.55,
      "hand": "right"
    },
    {
      "midi": 51,
      "time": 8,
      "duration": 0.667,
      "velocity": 0.59,
      "hand": "left"
    },
    {
      "midi": 58,
      "time": 8,
      "duration": 0.652,
      "velocity": 0.59,
      "hand": "left"
    },
    {
      "midi": 63,
      "time": 8,
      "duration": 0.667,
      "velocity": 0.59,
      "hand": "right"
    },
    {
      "midi": 67,
      "time": 8,
      "duration": 0.667,
      "velocity": 0.59,
      "hand": "right"
    },
    {
      "midi": 46,
      "time": 8.667,
      "duration": 2,
      "velocity": 0.6,
      "hand": "left"
    },
    {
      "midi": 58,
      "time": 8.667,
      "duration": 2,
      "velocity": 0.6,
      "hand": "left"
    },
    {
      "midi": 62,
      "time": 8.667,
      "duration": 2,
      "velocity": 0.54,
      "hand": "right"
    },
    {
      "midi": 65,
      "time": 8.667,
      "duration": 2,
      "velocity": 0.54,
      "hand": "right"
    },
    {
      "midi": 51,
      "time": 10.667,
      "duration": 0.651,
      "velocity": 0.56,
      "hand": "left"
    },
    {
      "midi": 55,
      "time": 10.667,
      "duration": 0.667,
      "velocity": 0.56,
      "hand": "left"
    },
    {
      "midi": 63,
      "time": 10.667,
      "duration": 0.651,
      "velocity": 0.54,
      "hand": "right"
    },
    {
      "midi": 51,
      "time": 11.333,
      "duration": 0.985,
      "velocity": 0.61,
      "hand": "left"
    },
    {
      "midi": 58,
      "time": 11.333,
      "duration": 1,
      "velocity": 0.61,
      "hand": "left"
    },
    {
      "midi": 63,
      "time": 11.333,
      "duration": 0.985,
      "velocity": 0.65,
      "hand": "right"
    },
    {
      "midi": 67,
      "time": 11.333,
      "duration": 1,
      "velocity": 0.65,
      "hand": "right"
    },
    {
      "midi": 51,
      "time": 12.333,
      "duration": 0.319,
      "velocity": 0.59,
      "hand": "left"
    },
    {
      "midi": 56,
      "time": 12.333,
      "duration": 0.333,
      "velocity": 0.59,
      "hand": "left"
    },
    {
      "midi": 63,
      "time": 12.333,
      "duration": 0.319,
      "velocity": 0.56,
      "hand": "right"
    },
    {
      "midi": 65,
      "time": 12.333,
      "duration": 0.333,
      "velocity": 0.56,
      "hand": "right"
    },
    {
      "midi": 51,
      "time": 12.667,
      "duration": 0.651,
      "velocity": 0.59,
      "hand": "left"
    },
    {
      "midi": 55,
      "time": 12.667,
      "duration": 0.667,
      "velocity": 0.59,
      "hand": "left"
    },
    {
      "midi": 63,
      "time": 12.667,
      "duration": 0.651,
      "velocity": 0.57,
      "hand": "right"
    },
    {
      "midi": 51,
      "time": 13.333,
      "duration": 0.652,
      "velocity": 0.61,
      "hand": "left"
    },
    {
      "midi": 58,
      "time": 13.333,
      "duration": 0.667,
      "velocity": 0.61,
      "hand": "left"
    },
    {
      "midi": 63,
      "time": 13.333,
      "duration": 0.652,
      "velocity": 0.65,
      "hand": "right"
    },
    {
      "midi": 67,
      "time": 13.333,
      "duration": 0.652,
      "velocity": 0.65,
      "hand": "right"
    },
    {
      "midi": 51,
      "time": 14,
      "duration": 0.985,
      "velocity": 0.69,
      "hand": "left"
    },
    {
      "midi": 63,
      "time": 14,
      "duration": 0.985,
      "velocity": 0.69,
      "hand": "right"
    },
    {
      "midi": 67,
      "time": 14,
      "duration": 1,
      "velocity": 0.65,
      "hand": "right"
    },
    {
      "midi": 70,
      "time": 14,
      "duration": 1,
      "velocity": 0.65,
      "hand": "right"
    },
    {
      "midi": 51,
      "time": 15,
      "duration": 0.318,
      "velocity": 0.63,
      "hand": "left"
    },
    {
      "midi": 63,
      "time": 15,
      "duration": 0.318,
      "velocity": 0.63,
      "hand": "right"
    },
    {
      "midi": 68,
      "time": 15,
      "duration": 0.333,
      "velocity": 0.67,
      "hand": "right"
    },
    {
      "midi": 72,
      "time": 15,
      "duration": 0.333,
      "velocity": 0.67,
      "hand": "right"
    },
    {
      "midi": 51,
      "time": 15.333,
      "duration": 0.652,
      "velocity": 0.59,
      "hand": "left"
    },
    {
      "midi": 63,
      "time": 15.333,
      "duration": 0.652,
      "velocity": 0.59,
      "hand": "right"
    },
    {
      "midi": 67,
      "time": 15.333,
      "duration": 0.667,
      "velocity": 0.57,
      "hand": "right"
    },
    {
      "midi": 70,
      "time": 15.333,
      "duration": 0.667,
      "velocity": 0.57,
      "hand": "right"
    },
    {
      "midi": 51,
      "time": 16,
      "duration": 0.667,
      "velocity": 0.57,
      "hand": "left"
    },
    {
      "midi": 55,
      "time": 16,
      "duration": 0.667,
      "velocity": 0.57,
      "hand": "left"
    },
    {
      "midi": 63,
      "time": 16,
      "duration": 0.667,
      "velocity": 0.49,
      "hand": "right"
    },
    {
      "midi": 44,
      "time": 16.667,
      "duration": 0.651,
      "velocity": 0.6,
      "hand": "left"
    },
    {
      "midi": 56,
      "time": 16.667,
      "duration": 0.667,
      "velocity": 0.6,
      "hand": "left"
    },
    {
      "midi": 60,
      "time": 16.667,
      "duration": 0.651,
      "velocity": 0.61,
      "hand": "right"
    },
    {
      "midi": 65,
      "time": 16.667,
      "duration": 0.651,
      "velocity": 0.61,
      "hand": "right"
    },
    {
      "midi": 44,
      "time": 17.333,
      "duration": 0.667,
      "velocity": 0.65,
      "hand": "left"
    },
    {
      "midi": 60,
      "time": 17.333,
      "duration": 0.667,
      "velocity": 0.65,
      "hand": "right"
    },
    {
      "midi": 65,
      "time": 17.333,
      "duration": 0.667,
      "velocity": 0.63,
      "hand": "right"
    },
    {
      "midi": 68,
      "time": 17.333,
      "duration": 0.667,
      "velocity": 0.63,
      "hand": "right"
    },
    {
      "midi": 46,
      "time": 18,
      "duration": 0.652,
      "velocity": 0.61,
      "hand": "left"
    },
    {
      "midi": 58,
      "time": 18,
      "duration": 0.667,
      "velocity": 0.61,
      "hand": "left"
    },
    {
      "midi": 63,
      "time": 18,
      "duration": 0.667,
      "velocity": 0.57,
      "hand": "right"
    },
    {
      "midi": 67,
      "time": 18,
      "duration": 0.667,
      "velocity": 0.57,
      "hand": "right"
    },
    {
      "midi": 46,
      "time": 18.667,
      "duration": 0.667,
      "velocity": 0.58,
      "hand": "left"
    },
    {
      "midi": 56,
      "time": 18.667,
      "duration": 0.667,
      "velocity": 0.58,
      "hand": "left"
    },
    {
      "midi": 62,
      "time": 18.667,
      "duration": 0.667,
      "velocity": 0.57,
      "hand": "right"
    },
    {
      "midi": 65,
      "time": 18.667,
      "duration": 0.667,
      "velocity": 0.57,
      "hand": "right"
    },
    {
      "midi": 51,
      "time": 19.333,
      "duration": 1.985,
      "velocity": 0.6,
      "hand": "left"
    },
    {
      "midi": 55,
      "time": 19.333,
      "duration": 1.985,
      "velocity": 0.6,
      "hand": "left"
    },
    {
      "midi": 63,
      "time": 19.333,
      "duration": 1.985,
      "velocity": 0.6,
      "hand": "right"
    },
    {
      "midi": 51,
      "time": 21.333,
      "duration": 0.319,
      "velocity": 0.57,
      "hand": "left"
    },
    {
      "midi": 55,
      "time": 21.333,
      "duration": 0.333,
      "velocity": 0.57,
      "hand": "left"
    },
    {
      "midi": 63,
      "time": 21.333,
      "duration": 0.319,
      "velocity": 0.57,
      "hand": "right"
    },
    {
      "midi": 51,
      "time": 21.667,
      "duration": 0.318,
      "velocity": 0.61,
      "hand": "left"
    },
    {
      "midi": 56,
      "time": 21.667,
      "duration": 0.333,
      "velocity": 0.61,
      "hand": "left"
    },
    {
      "midi": 63,
      "time": 21.667,
      "duration": 0.318,
      "velocity": 0.65,
      "hand": "right"
    },
    {
      "midi": 65,
      "time": 21.667,
      "duration": 0.333,
      "velocity": 0.65,
      "hand": "right"
    },
    {
      "midi": 51,
      "time": 22,
      "duration": 0.652,
      "velocity": 0.59,
      "hand": "left"
    },
    {
      "midi": 58,
      "time": 22,
      "duration": 0.652,
      "velocity": 0.59,
      "hand": "left"
    },
    {
      "midi": 63,
      "time": 22,
      "duration": 0.652,
      "velocity": 0.65,
      "hand": "right"
    },
    {
      "midi": 67,
      "time": 22,
      "duration": 0.652,
      "velocity": 0.65,
      "hand": "right"
    },
    {
      "midi": 51,
      "time": 22.667,
      "duration": 0.485,
      "velocity": 0.57,
      "hand": "left"
    },
    {
      "midi": 58,
      "time": 22.667,
      "duration": 0.485,
      "velocity": 0.57,
      "hand": "left"
    },
    {
      "midi": 63,
      "time": 22.667,
      "duration": 0.485,
      "velocity": 0.61,
      "hand": "right"
    },
    {
      "midi": 67,
      "time": 22.667,
      "duration": 0.485,
      "velocity": 0.61,
      "hand": "right"
    },
    {
      "midi": 51,
      "time": 23.167,
      "duration": 0.151,
      "velocity": 0.6,
      "hand": "left"
    },
    {
      "midi": 58,
      "time": 23.167,
      "duration": 0.151,
      "velocity": 0.6,
      "hand": "left"
    },
    {
      "midi": 63,
      "time": 23.167,
      "duration": 0.151,
      "velocity": 0.59,
      "hand": "right"
    },
    {
      "midi": 67,
      "time": 23.167,
      "duration": 0.151,
      "velocity": 0.59,
      "hand": "right"
    },
    {
      "midi": 51,
      "time": 23.333,
      "duration": 0.652,
      "velocity": 0.65,
      "hand": "left"
    },
    {
      "midi": 58,
      "time": 23.333,
      "duration": 0.667,
      "velocity": 0.65,
      "hand": "left"
    },
    {
      "midi": 63,
      "time": 23.333,
      "duration": 0.652,
      "velocity": 0.61,
      "hand": "right"
    },
    {
      "midi": 67,
      "time": 23.333,
      "duration": 0.667,
      "velocity": 0.61,
      "hand": "right"
    },
    {
      "midi": 51,
      "time": 24,
      "duration": 0.318,
      "velocity": 0.63,
      "hand": "left"
    },
    {
      "midi": 60,
      "time": 24,
      "duration": 0.333,
      "velocity": 0.63,
      "hand": "right"
    },
    {
      "midi": 63,
      "time": 24,
      "duration": 0.318,
      "velocity": 0.56,
      "hand": "right"
    },
    {
      "midi": 68,
      "time": 24,
      "duration": 0.333,
      "velocity": 0.56,
      "hand": "right"
    },
    {
      "midi": 51,
      "time": 24.333,
      "duration": 0.333,
      "velocity": 0.61,
      "hand": "left"
    },
    {
      "midi": 58,
      "time": 24.333,
      "duration": 0.319,
      "velocity": 0.61,
      "hand": "left"
    },
    {
      "midi": 63,
      "time": 24.333,
      "duration": 0.319,
      "velocity": 0.58,
      "hand": "right"
    },
    {
      "midi": 67,
      "time": 24.333,
      "duration": 0.319,
      "velocity": 0.58,
      "hand": "right"
    },
    {
      "midi": 46,
      "time": 24.667,
      "duration": 0.651,
      "velocity": 0.61,
      "hand": "left"
    },
    {
      "midi": 58,
      "time": 24.667,
      "duration": 0.651,
      "velocity": 0.61,
      "hand": "left"
    },
    {
      "midi": 63,
      "time": 24.667,
      "duration": 0.333,
      "velocity": 0.6,
      "hand": "right"
    },
    {
      "midi": 67,
      "time": 24.667,
      "duration": 0.333,
      "velocity": 0.6,
      "hand": "right"
    },
    {
      "midi": 62,
      "time": 25,
      "duration": 0.318,
      "velocity": 0.6,
      "hand": "right"
    },
    {
      "midi": 65,
      "time": 25,
      "duration": 0.318,
      "velocity": 0.6,
      "hand": "right"
    },
    {
      "midi": 46,
      "time": 25.333,
      "duration": 0.485,
      "velocity": 0.58,
      "hand": "left"
    },
    {
      "midi": 58,
      "time": 25.333,
      "duration": 0.5,
      "velocity": 0.58,
      "hand": "left"
    },
    {
      "midi": 62,
      "time": 25.333,
      "duration": 0.5,
      "velocity": 0.61,
      "hand": "right"
    },
    {
      "midi": 65,
      "time": 25.333,
      "duration": 0.5,
      "velocity": 0.61,
      "hand": "right"
    },
    {
      "midi": 46,
      "time": 25.833,
      "duration": 0.152,
      "velocity": 0.56,
      "hand": "left"
    },
    {
      "midi": 55,
      "time": 25.833,
      "duration": 0.167,
      "velocity": 0.56,
      "hand": "left"
    },
    {
      "midi": 63,
      "time": 25.833,
      "duration": 0.167,
      "velocity": 0.55,
      "hand": "right"
    },
    {
      "midi": 46,
      "time": 26,
      "duration": 0.652,
      "velocity": 0.62,
      "hand": "left"
    },
    {
      "midi": 58,
      "time": 26,
      "duration": 0.652,
      "velocity": 0.62,
      "hand": "left"
    },
    {
      "midi": 62,
      "time": 26,
      "duration": 0.652,
      "velocity": 0.6,
      "hand": "right"
    },
    {
      "midi": 65,
      "time": 26,
      "duration": 0.652,
      "velocity": 0.6,
      "hand": "right"
    },
    {
      "midi": 46,
      "time": 26.667,
      "duration": 0.318,
      "velocity": 0.59,
      "hand": "left"
    },
    {
      "midi": 58,
      "time": 26.667,
      "duration": 0.318,
      "velocity": 0.59,
      "hand": "left"
    },
    {
      "midi": 62,
      "time": 26.667,
      "duration": 0.333,
      "velocity": 0.57,
      "hand": "right"
    },
    {
      "midi": 65,
      "time": 26.667,
      "duration": 0.333,
      "velocity": 0.57,
      "hand": "right"
    },
    {
      "midi": 46,
      "time": 27,
      "duration": 0.318,
      "velocity": 0.61,
      "hand": "left"
    },
    {
      "midi": 58,
      "time": 27,
      "duration": 0.333,
      "velocity": 0.61,
      "hand": "left"
    },
    {
      "midi": 63,
      "time": 27,
      "duration": 0.333,
      "velocity": 0.65,
      "hand": "right"
    },
    {
      "midi": 67,
      "time": 27,
      "duration": 0.333,
      "velocity": 0.65,
      "hand": "right"
    },
    {
      "midi": 46,
      "time": 27.333,
      "duration": 0.319,
      "velocity": 0.74,
      "hand": "left"
    },
    {
      "midi": 65,
      "time": 27.333,
      "duration": 0.319,
      "velocity": 0.62,
      "hand": "right"
    },
    {
      "midi": 68,
      "time": 27.333,
      "duration": 0.319,
      "velocity": 0.62,
      "hand": "right"
    },
    {
      "midi": 46,
      "time": 27.667,
      "duration": 0.318,
      "velocity": 0.57,
      "hand": "left"
    },
    {
      "midi": 63,
      "time": 27.667,
      "duration": 0.333,
      "velocity": 0.57,
      "hand": "right"
    },
    {
      "midi": 65,
      "time": 27.667,
      "duration": 0.318,
      "velocity": 0.6,
      "hand": "right"
    },
    {
      "midi": 68,
      "time": 27.667,
      "duration": 0.318,
      "velocity": 0.6,
      "hand": "right"
    },
    {
      "midi": 46,
      "time": 28,
      "duration": 0.485,
      "velocity": 0.56,
      "hand": "left"
    },
    {
      "midi": 62,
      "time": 28,
      "duration": 0.5,
      "velocity": 0.56,
      "hand": "right"
    },
    {
      "midi": 65,
      "time": 28,
      "duration": 0.485,
      "velocity": 0.59,
      "hand": "right"
    },
    {
      "midi": 68,
      "time": 28,
      "duration": 0.485,
      "velocity": 0.59,
      "hand": "right"
    },
    {
      "midi": 46,
      "time": 28.5,
      "duration": 0.152,
      "velocity": 0.55,
      "hand": "left"
    },
    {
      "midi": 60,
      "time": 28.5,
      "duration": 0.167,
      "velocity": 0.55,
      "hand": "right"
    },
    {
      "midi": 65,
      "time": 28.5,
      "duration": 0.152,
      "velocity": 0.62,
      "hand": "right"
    },
    {
      "midi": 68,
      "time": 28.5,
      "duration": 0.152,
      "velocity": 0.62,
      "hand": "right"
    },
    {
      "midi": 46,
      "time": 28.667,
      "duration": 0.651,
      "velocity": 0.57,
      "hand": "left"
    },
    {
      "midi": 58,
      "time": 28.667,
      "duration": 0.651,
      "velocity": 0.57,
      "hand": "left"
    },
    {
      "midi": 65,
      "time": 28.667,
      "duration": 0.667,
      "velocity": 0.57,
      "hand": "right"
    },
    {
      "midi": 68,
      "time": 28.667,
      "duration": 0.667,
      "velocity": 0.57,
      "hand": "right"
    },
    {
      "midi": 46,
      "time": 29.333,
      "duration": 0.485,
      "velocity": 0.54,
      "hand": "left"
    },
    {
      "midi": 58,
      "time": 29.333,
      "duration": 0.485,
      "velocity": 0.54,
      "hand": "left"
    },
    {
      "midi": 67,
      "time": 29.333,
      "duration": 0.5,
      "velocity": 0.64,
      "hand": "right"
    },
    {
      "midi": 70,
      "time": 29.333,
      "duration": 0.5,
      "velocity": 0.64,
      "hand": "right"
    },
    {
      "midi": 46,
      "time": 29.833,
      "duration": 0.167,
      "velocity": 0.61,
      "hand": "left"
    },
    {
      "midi": 58,
      "time": 29.833,
      "duration": 0.152,
      "velocity": 0.61,
      "hand": "left"
    },
    {
      "midi": 65,
      "time": 29.833,
      "duration": 0.167,
      "velocity": 0.52,
      "hand": "right"
    },
    {
      "midi": 68,
      "time": 29.833,
      "duration": 0.167,
      "velocity": 0.52,
      "hand": "right"
    },
    {
      "midi": 51,
      "time": 30,
      "duration": 0.652,
      "velocity": 0.6,
      "hand": "left"
    },
    {
      "midi": 58,
      "time": 30,
      "duration": 0.667,
      "velocity": 0.6,
      "hand": "left"
    },
    {
      "midi": 63,
      "time": 30,
      "duration": 0.652,
      "velocity": 0.53,
      "hand": "right"
    },
    {
      "midi": 67,
      "time": 30,
      "duration": 1.985,
      "velocity": 0.53,
      "hand": "right"
    },
    {
      "midi": 51,
      "time": 30.667,
      "duration": 0.485,
      "velocity": 0.65,
      "hand": "left"
    },
    {
      "midi": 63,
      "time": 30.667,
      "duration": 0.485,
      "velocity": 0.65,
      "hand": "right"
    },
    {
      "midi": 51,
      "time": 31.167,
      "duration": 0.151,
      "velocity": 0.57,
      "hand": "left"
    },
    {
      "midi": 63,
      "time": 31.167,
      "duration": 0.167,
      "velocity": 0.57,
      "hand": "right"
    },
    {
      "midi": 51,
      "time": 31.333,
      "duration": 0.652,
      "velocity": 0.56,
      "hand": "left"
    },
    {
      "midi": 58,
      "time": 31.333,
      "duration": 0.652,
      "velocity": 0.56,
      "hand": "left"
    },
    {
      "midi": 51,
      "time": 32,
      "duration": 0.318,
      "velocity": 0.61,
      "hand": "left"
    },
    {
      "midi": 58,
      "time": 32,
      "duration": 0.318,
      "velocity": 0.61,
      "hand": "left"
    },
    {
      "midi": 63,
      "time": 32,
      "duration": 0.318,
      "velocity": 0.55,
      "hand": "right"
    },
    {
      "midi": 67,
      "time": 32,
      "duration": 0.318,
      "velocity": 0.55,
      "hand": "right"
    },
    {
      "midi": 51,
      "time": 32.333,
      "duration": 0.333,
      "velocity": 0.6,
      "hand": "left"
    },
    {
      "midi": 58,
      "time": 32.333,
      "duration": 0.333,
      "velocity": 0.6,
      "hand": "left"
    },
    {
      "midi": 63,
      "time": 32.333,
      "duration": 0.319,
      "velocity": 0.61,
      "hand": "right"
    },
    {
      "midi": 67,
      "time": 32.333,
      "duration": 0.333,
      "velocity": 0.61,
      "hand": "right"
    },
    {
      "midi": 44,
      "time": 32.667,
      "duration": 0.333,
      "velocity": 0.54,
      "hand": "left"
    },
    {
      "midi": 60,
      "time": 32.667,
      "duration": 0.651,
      "velocity": 0.64,
      "hand": "right"
    },
    {
      "midi": 63,
      "time": 32.667,
      "duration": 0.651,
      "velocity": 0.62,
      "hand": "right"
    },
    {
      "midi": 68,
      "time": 32.667,
      "duration": 0.651,
      "velocity": 0.62,
      "hand": "right"
    },
    {
      "midi": 46,
      "time": 33,
      "duration": 0.333,
      "velocity": 0.57,
      "hand": "left"
    },
    {
      "midi": 48,
      "time": 33.333,
      "duration": 0.333,
      "velocity": 0.65,
      "hand": "left"
    },
    {
      "midi": 60,
      "time": 33.333,
      "duration": 0.652,
      "velocity": 0.61,
      "hand": "right"
    },
    {
      "midi": 63,
      "time": 33.333,
      "duration": 0.667,
      "velocity": 0.59,
      "hand": "right"
    },
    {
      "midi": 68,
      "time": 33.333,
      "duration": 0.667,
      "velocity": 0.59,
      "hand": "right"
    },
    {
      "midi": 46,
      "time": 33.667,
      "duration": 0.333,
      "velocity": 0.57,
      "hand": "left"
    },
    {
      "midi": 44,
      "time": 34,
      "duration": 0.333,
      "velocity": 0.6,
      "hand": "left"
    },
    {
      "midi": 56,
      "time": 34,
      "duration": 0.667,
      "velocity": 0.57,
      "hand": "left"
    },
    {
      "midi": 60,
      "time": 34,
      "duration": 0.652,
      "velocity": 0.46,
      "hand": "right"
    },
    {
      "midi": 46,
      "time": 34.333,
      "duration": 0.333,
      "velocity": 0.61,
      "hand": "left"
    },
    {
      "midi": 48,
      "time": 34.667,
      "duration": 0.333,
      "velocity": 0.67,
      "hand": "left"
    },
    {
      "midi": 60,
      "time": 34.667,
      "duration": 0.318,
      "velocity": 0.67,
      "hand": "right"
    },
    {
      "midi": 63,
      "time": 34.667,
      "duration": 0.333,
      "velocity": 0.69,
      "hand": "right"
    },
    {
      "midi": 68,
      "time": 34.667,
      "duration": 0.318,
      "velocity": 0.69,
      "hand": "right"
    },
    {
      "midi": 50,
      "time": 35,
      "duration": 0.333,
      "velocity": 0.58,
      "hand": "left"
    },
    {
      "midi": 60,
      "time": 35,
      "duration": 0.333,
      "velocity": 0.58,
      "hand": "right"
    },
    {
      "midi": 65,
      "time": 35,
      "duration": 0.333,
      "velocity": 0.61,
      "hand": "right"
    },
    {
      "midi": 68,
      "time": 35,
      "duration": 0.333,
      "velocity": 0.61,
      "hand": "right"
    },
    {
      "midi": 51,
      "time": 35.333,
      "duration": 0.652,
      "velocity": 0.57,
      "hand": "left"
    },
    {
      "midi": 58,
      "time": 35.333,
      "duration": 0.652,
      "velocity": 0.57,
      "hand": "left"
    },
    {
      "midi": 63,
      "time": 35.333,
      "duration": 0.652,
      "velocity": 0.55,
      "hand": "right"
    },
    {
      "midi": 67,
      "time": 35.333,
      "duration": 0.652,
      "velocity": 0.55,
      "hand": "right"
    },
    {
      "midi": 51,
      "time": 36,
      "duration": 0.652,
      "velocity": 0.53,
      "hand": "left"
    },
    {
      "midi": 58,
      "time": 36,
      "duration": 0.333,
      "velocity": 0.61,
      "hand": "left"
    },
    {
      "midi": 63,
      "time": 36,
      "duration": 0.652,
      "velocity": 0.54,
      "hand": "right"
    },
    {
      "midi": 67,
      "time": 36,
      "duration": 0.333,
      "velocity": 0.59,
      "hand": "right"
    },
    {
      "midi": 56,
      "time": 36.333,
      "duration": 0.333,
      "velocity": 0.59,
      "hand": "left"
    },
    {
      "midi": 65,
      "time": 36.333,
      "duration": 0.333,
      "velocity": 0.57,
      "hand": "right"
    },
    {
      "midi": 51,
      "time": 36.667,
      "duration": 0.651,
      "velocity": 0.59,
      "hand": "left"
    },
    {
      "midi": 55,
      "time": 36.667,
      "duration": 0.667,
      "velocity": 0.59,
      "hand": "left"
    },
    {
      "midi": 63,
      "time": 36.667,
      "duration": 0.651,
      "velocity": 0.53,
      "hand": "right"
    },
    {
      "midi": 51,
      "time": 37.333,
      "duration": 0.667,
      "velocity": 0.63,
      "hand": "left"
    },
    {
      "midi": 58,
      "time": 37.333,
      "duration": 0.667,
      "velocity": 0.63,
      "hand": "left"
    },
    {
      "midi": 63,
      "time": 37.333,
      "duration": 0.667,
      "velocity": 0.66,
      "hand": "right"
    },
    {
      "midi": 67,
      "time": 37.333,
      "duration": 0.667,
      "velocity": 0.66,
      "hand": "right"
    },
    {
      "midi": 44,
      "time": 38,
      "duration": 0.652,
      "velocity": 0.61,
      "hand": "left"
    },
    {
      "midi": 56,
      "time": 38,
      "duration": 0.652,
      "velocity": 0.61,
      "hand": "left"
    },
    {
      "midi": 60,
      "time": 38,
      "duration": 0.652,
      "velocity": 0.57,
      "hand": "right"
    },
    {
      "midi": 65,
      "time": 38,
      "duration": 0.652,
      "velocity": 0.57,
      "hand": "right"
    },
    {
      "midi": 44,
      "time": 38.667,
      "duration": 0.318,
      "velocity": 0.61,
      "hand": "left"
    },
    {
      "midi": 56,
      "time": 38.667,
      "duration": 0.318,
      "velocity": 0.61,
      "hand": "left"
    },
    {
      "midi": 60,
      "time": 38.667,
      "duration": 0.318,
      "velocity": 0.62,
      "hand": "right"
    },
    {
      "midi": 65,
      "time": 38.667,
      "duration": 0.333,
      "velocity": 0.62,
      "hand": "right"
    },
    {
      "midi": 44,
      "time": 39,
      "duration": 0.333,
      "velocity": 0.55,
      "hand": "left"
    },
    {
      "midi": 56,
      "time": 39,
      "duration": 0.333,
      "velocity": 0.55,
      "hand": "left"
    },
    {
      "midi": 60,
      "time": 39,
      "duration": 0.333,
      "velocity": 0.57,
      "hand": "right"
    },
    {
      "midi": 63,
      "time": 39,
      "duration": 0.333,
      "velocity": 0.57,
      "hand": "right"
    },
    {
      "midi": 46,
      "time": 39.333,
      "duration": 0.319,
      "velocity": 0.6,
      "hand": "left"
    },
    {
      "midi": 53,
      "time": 39.333,
      "duration": 0.333,
      "velocity": 0.6,
      "hand": "left"
    },
    {
      "midi": 62,
      "time": 39.333,
      "duration": 0.333,
      "velocity": 0.55,
      "hand": "right"
    },
    {
      "midi": 46,
      "time": 39.667,
      "duration": 0.318,
      "velocity": 0.61,
      "hand": "left"
    },
    {
      "midi": 58,
      "time": 39.667,
      "duration": 0.318,
      "velocity": 0.61,
      "hand": "left"
    },
    {
      "midi": 65,
      "time": 39.667,
      "duration": 0.333,
      "velocity": 0.69,
      "hand": "right"
    },
    {
      "midi": 68,
      "time": 39.667,
      "duration": 0.333,
      "velocity": 0.69,
      "hand": "right"
    },
    {
      "midi": 46,
      "time": 40,
      "duration": 0.485,
      "velocity": 0.61,
      "hand": "left"
    },
    {
      "midi": 58,
      "time": 40,
      "duration": 0.5,
      "velocity": 0.61,
      "hand": "left"
    },
    {
      "midi": 63,
      "time": 40,
      "duration": 0.5,
      "velocity": 0.59,
      "hand": "right"
    },
    {
      "midi": 67,
      "time": 40,
      "duration": 0.5,
      "velocity": 0.59,
      "hand": "right"
    },
    {
      "midi": 46,
      "time": 40.5,
      "duration": 0.167,
      "velocity": 0.57,
      "hand": "left"
    },
    {
      "midi": 56,
      "time": 40.5,
      "duration": 0.167,
      "velocity": 0.57,
      "hand": "left"
    },
    {
      "midi": 62,
      "time": 40.5,
      "duration": 0.167,
      "velocity": 0.55,
      "hand": "right"
    },
    {
      "midi": 65,
      "time": 40.5,
      "duration": 0.167,
      "velocity": 0.55,
      "hand": "right"
    },
    {
      "midi": 51,
      "time": 40.667,
      "duration": 2,
      "velocity": 0.59,
      "hand": "left"
    },
    {
      "midi": 55,
      "time": 40.667,
      "duration": 2,
      "velocity": 0.59,
      "hand": "left"
    },
    {
      "midi": 63,
      "time": 40.667,
      "duration": 2,
      "velocity": 0.55,
      "hand": "right"
    }
  ]
}
