{
  "id": "atirei-o-pau-no-gato",
  "title": "Atirei o Pau no Gato",
  "artist": "Tradicional",
  "difficulty": "Difícil",
  "bpm": 80,
  "duration": 86,
  "category": "Infantis",
  "isPremium": false,
  "coverUrl": "/images/covers/placeholder.png",
  "notes": [
    {
      "midi": 40,
      "time": 0,
      "duration": 0.394,
      "velocity": 0.95,
      "hand": "left"
    },
    {
      "midi": 42,
      "time": 0,
      "duration": 0.068,
      "velocity": 0.71,
      "hand": "left"
    },
    {
      "midi": 64,
      "time": 0,
      "duration": 0.818,
      "velocity": 1,
      "hand": "right"
    },
    {
      "midi": 67,
      "time": 0,
      "duration": 0.803,
      "velocity": 1,
      "hand": "right"
    },
    {
      "midi": 69,
      "time": 0,
      "duration": 0.53,
      "velocity": 1,
      "hand": "right"
    },
    {
      "midi": 46,
      "time": 0.272,
      "duration": 0.068,
      "velocity": 0.64,
      "hand": "left"
    },
    {
      "midi": 51,
      "time": 0.272,
      "duration": 0.068,
      "velocity": 0.69,
      "hand": "left"
    },
    {
      "midi": 38,
      "time": 0.409,
      "duration": 0.068,
      "velocity": 0.55,
      "hand": "left"
    },
    {
      "midi": 40,
      "time": 0.409,
      "duration": 0.068,
      "velocity": 0.64,
      "hand": "left"
    },
    {
      "midi": 62,
      "time": 0.409,
      "duration": 0.068,
      "velocity": 0.68,
      "hand": "right"
    },
    {
      "midi": 66,
      "time": 0.409,
      "duration": 0.068,
      "velocity": 0.5,
      "hand": "right"
    },
    {
      "midi": 36,
      "time": 0.545,
      "duration": 0.068,
      "velocity": 0.8,
      "hand": "left"
    },
    {
      "midi": 38,
      "time": 0.545,
      "duration": 0.068,
      "velocity": 0.55,
      "hand": "left"
    },
    {
      "midi": 63,
      "time": 0.545,
      "duration": 0.068,
      "velocity": 0.5,
      "hand": "right"
    },
    {
      "midi": 66,
      "time": 0.545,
      "duration": 0.258,
      "velocity": 0.53,
      "hand": "right"
    },
    {
      "midi": 69,
      "time": 0.545,
      "duration": 0.273,
      "velocity": 0.56,
      "hand": "right"
    },
    {
      "midi": 65,
      "time": 0.682,
      "duration": 0.136,
      "velocity": 0.84,
      "hand": "right"
    },
    {
      "midi": 38,
      "time": 0.818,
      "duration": 0.068,
      "velocity": 0.55,
      "hand": "left"
    },
    {
      "midi": 40,
      "time": 0.818,
      "duration": 0.068,
      "velocity": 0.64,
      "hand": "left"
    },
    {
      "midi": 62,
      "time": 0.818,
      "duration": 0.068,
      "velocity": 0.68,
      "hand": "right"
    },
    {
      "midi": 67,
      "time": 0.818,
      "duration": 0.136,
      "velocity": 0.75,
      "hand": "right"
    },
    {
      "midi": 39,
      "time": 0.954,
      "duration": 0.068,
      "velocity": 0.15,
      "hand": "left"
    },
    {
      "midi": 69,
      "time": 0.954,
      "duration": 0.136,
      "velocity": 0.76,
      "hand": "right"
    },
    {
      "midi": 39,
      "time": 1.091,
      "duration": 0.53,
      "velocity": 0.95,
      "hand": "left"
    },
    {
      "midi": 65,
      "time": 1.091,
      "duration": 0.257,
      "velocity": 0.61,
      "hand": "right"
    },
    {
      "midi": 68,
      "time": 1.091,
      "duration": 0.682,
      "velocity": 0.97,
      "hand": "right"
    },
    {
      "midi": 70,
      "time": 1.091,
      "duration": 0.273,
      "velocity": 0.64,
      "hand": "right"
    },
    {
      "midi": 38,
      "time": 1.363,
      "duration": 0.068,
      "velocity": 0.55,
      "hand": "left"
    },
    {
      "midi": 40,
      "time": 1.363,
      "duration": 0.068,
      "velocity": 0.65,
      "hand": "left"
    },
    {
      "midi": 61,
      "time": 1.363,
      "duration": 0.068,
      "velocity": 0.65,
      "hand": "right"
    },
    {
      "midi": 65,
      "time": 1.363,
      "duration": 0.068,
      "velocity": 0.63,
      "hand": "right"
    },
    {
      "midi": 69,
      "time": 1.5,
      "duration": 0.273,
      "velocity": 0.88,
      "hand": "right"
    },
    {
      "midi": 36,
      "time": 1.636,
      "duration": 0.068,
      "velocity": 0.76,
      "hand": "left"
    },
    {
      "midi": 38,
      "time": 1.636,
      "duration": 0.068,
      "velocity": 0.55,
      "hand": "left"
    },
    {
      "midi": 61,
      "time": 1.636,
      "duration": 0.258,
      "velocity": 0.65,
      "hand": "right"
    },
    {
      "midi": 65,
      "time": 1.636,
      "duration": 0.068,
      "velocity": 0.65,
      "hand": "right"
    },
    {
      "midi": 38,
      "time": 1.772,
      "duration": 0.068,
      "velocity": 0.55,
      "hand": "left"
    },
    {
      "midi": 40,
      "time": 1.772,
      "duration": 0.068,
      "velocity": 0.72,
      "hand": "left"
    },
    {
      "midi": 38,
      "time": 1.909,
      "duration": 0.068,
      "velocity": 0.55,
      "hand": "left"
    },
    {
      "midi": 46,
      "time": 1.909,
      "duration": 0.068,
      "velocity": 0.64,
      "hand": "left"
    },
    {
      "midi": 61,
      "time": 1.909,
      "duration": 0.068,
      "velocity": 0.72,
      "hand": "right"
    },
    {
      "midi": 65,
      "time": 1.909,
      "duration": 0.068,
      "velocity": 0.72,
      "hand": "right"
    },
    {
      "midi": 67,
      "time": 1.909,
      "duration": 0.258,
      "velocity": 0.88,
      "hand": "right"
    },
    {
      "midi": 38,
      "time": 2.045,
      "duration": 0.068,
      "velocity": 0.55,
      "hand": "left"
    },
    {
      "midi": 38,
      "time": 2.182,
      "duration": 0.394,
      "velocity": 0.92,
      "hand": "left"
    },
    {
      "midi": 40,
      "time": 2.182,
      "duration": 0.068,
      "velocity": 0.64,
      "hand": "left"
    },
    {
      "midi": 65,
      "time": 2.182,
      "duration": 0.666,
      "velocity": 0.96,
      "hand": "right"
    },
    {
      "midi": 67,
      "time": 2.182,
      "duration": 0.53,
      "velocity": 1,
      "hand": "right"
    },
    {
      "midi": 69,
      "time": 2.182,
      "duration": 0.682,
      "velocity": 0.89,
      "hand": "right"
    },
    {
      "midi": 46,
      "time": 2.454,
      "duration": 0.068,
      "velocity": 0.64,
      "hand": "left"
    },
    {
      "midi": 51,
      "time": 2.454,
      "duration": 0.068,
      "velocity": 0.65,
      "hand": "left"
    },
    {
      "midi": 38,
      "time": 2.591,
      "duration": 0.068,
      "velocity": 0.55,
      "hand": "left"
    },
    {
      "midi": 40,
      "time": 2.591,
      "duration": 0.068,
      "velocity": 0.62,
      "hand": "left"
    },
    {
      "midi": 60,
      "time": 2.591,
      "duration": 0.068,
      "velocity": 0.65,
      "hand": "right"
    },
    {
      "midi": 64,
      "time": 2.591,
      "duration": 0.068,
      "velocity": 0.56,
      "hand": "right"
    },
    {
      "midi": 36,
      "time": 2.727,
      "duration": 0.068,
      "velocity": 0.8,
      "hand": "left"
    },
    {
      "midi": 38,
      "time": 2.727,
      "duration": 0.258,
      "velocity": 0.56,
      "hand": "left"
    },
    {
      "midi": 60,
      "time": 2.727,
      "duration": 0.136,
      "velocity": 0.72,
      "hand": "right"
    },
    {
      "midi": 64,
      "time": 2.727,
      "duration": 0.136,
      "velocity": 0.54,
      "hand": "right"
    },
    {
      "midi": 67,
      "time": 2.727,
      "duration": 0.258,
      "velocity": 0.48,
      "hand": "right"
    },
    {
      "midi": 65,
      "time": 2.863,
      "duration": 0.136,
      "velocity": 0.95,
      "hand": "right"
    },
    {
      "midi": 38,
      "time": 3,
      "duration": 0.068,
      "velocity": 0.55,
      "hand": "left"
    },
    {
      "midi": 40,
      "time": 3,
      "duration": 0.068,
      "velocity": 0.63,
      "hand": "left"
    },
    {
      "midi": 60,
      "time": 3,
      "duration": 0.136,
      "velocity": 0.74,
      "hand": "right"
    },
    {
      "midi": 64,
      "time": 3,
      "duration": 0.068,
      "velocity": 0.69,
      "hand": "right"
    },
    {
      "midi": 67,
      "time": 3,
      "duration": 0.136,
      "velocity": 0.83,
      "hand": "right"
    },
    {
      "midi": 69,
      "time": 3.136,
      "duration": 0.136,
      "velocity": 0.86,
      "hand": "right"
    },
    {
      "midi": 38,
      "time": 3.272,
      "duration": 0.068,
      "velocity": 0.55,
      "hand": "left"
    },
    {
      "midi": 64,
      "time": 3.272,
      "duration": 1.091,
      "velocity": 0.98,
      "hand": "right"
    },
    {
      "midi": 68,
      "time": 3.272,
      "duration": 0.818,
      "velocity": 0.9,
      "hand": "right"
    },
    {
      "midi": 72,
      "time": 3.272,
      "duration": 0.409,
      "velocity": 0.81,
      "hand": "right"
    },
    {
      "midi": 38,
      "time": 3.545,
      "duration": 0.068,
      "velocity": 0.55,
      "hand": "left"
    },
    {
      "midi": 40,
      "time": 3.545,
      "duration": 0.068,
      "velocity": 0.71,
      "hand": "left"
    },
    {
      "midi": 63,
      "time": 3.545,
      "duration": 0.136,
      "velocity": 0.51,
      "hand": "right"
    },
    {
      "midi": 71,
      "time": 3.682,
      "duration": 0.273,
      "velocity": 0.75,
      "hand": "right"
    },
    {
      "midi": 37,
      "time": 3.818,
      "duration": 0.273,
      "velocity": 0.49,
      "hand": "left"
    },
    {
      "midi": 63,
      "time": 3.818,
      "duration": 0.258,
      "velocity": 0.57,
      "hand": "right"
    },
    {
      "midi": 67,
      "time": 3.818,
      "duration": 0.273,
      "velocity": 0.43,
      "hand": "right"
    },
    {
      "midi": 38,
      "time": 3.954,
      "duration": 0.068,
      "velocity": 0.55,
      "hand": "left"
    },
    {
      "midi": 40,
      "time": 3.954,
      "duration": 0.068,
      "velocity": 0.65,
      "hand": "left"
    },
    {
      "midi": 38,
      "time": 4.091,
      "duration": 0.068,
      "velocity": 0.55,
      "hand": "left"
    },
    {
      "midi": 46,
      "time": 4.091,
      "duration": 0.068,
      "velocity": 0.64,
      "hand": "left"
    },
    {
      "midi": 63,
      "time": 4.091,
      "duration": 0.136,
      "velocity": 0.57,
      "hand": "right"
    },
    {
      "midi": 69,
      "time": 4.091,
      "duration": 0.273,
      "velocity": 0.77,
      "hand": "right"
    },
    {
      "midi": 38,
      "time": 4.227,
      "duration": 0.068,
      "velocity": 0.55,
      "hand": "left"
    },
    {
      "midi": 36,
      "time": 4.363,
      "duration": 0.531,
      "velocity": 0.96,
      "hand": "left"
    },
    {
      "midi": 38,
      "time": 4.363,
      "duration": 0.068,
      "velocity": 0.55,
      "hand": "left"
    },
    {
      "midi": 62,
      "time": 4.363,
      "duration": 0.394,
      "velocity": 1,
      "hand": "right"
    },
    {
      "midi": 67,
      "time": 4.363,
      "duration": 0.667,
      "velocity": 1,
      "hand": "right"
    },
    {
      "midi": 46,
      "time": 4.636,
      "duration": 0.068,
      "velocity": 0.64,
      "hand": "left"
    },
    {
      "midi": 51,
      "time": 4.636,
      "duration": 0.068,
      "velocity": 0.65,
      "hand": "left"
    },
    {
      "midi": 38,
      "time": 4.772,
      "duration": 0.068,
      "velocity": 0.55,
      "hand": "left"
    },
    {
      "midi": 40,
      "time": 4.772,
      "duration": 0.068,
      "velocity": 0.8,
      "hand": "left"
    },
    {
      "midi": 62,
      "time": 4.772,
      "duration": 0.068,
      "velocity": 0.69,
      "hand": "right"
    },
    {
      "midi": 36,
      "time": 4.909,
      "duration": 0.068,
      "velocity": 0.61,
      "hand": "left"
    },
    {
      "midi": 38,
      "time": 4.909,
      "duration": 0.068,
      "velocity": 0.55,
      "hand": "left"
    },
    {
      "midi": 62,
      "time": 4.909,
      "duration": 0.068,
      "velocity": 0.61,
      "hand": "right"
    },
    {
      "midi": 67,
      "time": 5.045,
      "duration": 0.136,
      "velocity": 0.97,
      "hand": "right"
    },
    {
      "midi": 38,
      "time": 5.182,
      "duration": 0.068,
      "velocity": 0.55,
      "hand": "left"
    },
    {
      "midi": 40,
      "time": 5.182,
      "duration": 0.068,
      "velocity": 0.69,
      "hand": "left"
    },
    {
      "midi": 62,
      "time": 5.182,
      "duration": 0.136,
      "velocity": 0.75,
      "hand": "right"
    },
    {
      "midi": 69,
      "time": 5.182,
      "duration": 0.136,
      "velocity": 0.84,
      "hand": "right"
    },
    {
      "midi": 71,
      "time": 5.318,
      "duration": 0.136,
      "velocity": 0.83,
      "hand": "right"
    },
    {
      "midi": 38,
      "time": 5.454,
      "duration": 0.068,
      "velocity": 0.55,
      "hand": "left"
    },
    {
      "midi": 40,
      "time": 5.454,
      "duration": 0.068,
      "velocity": 0.36,
      "hand": "left"
    },
    {
      "midi": 54,
      "time": 5.591,
      "duration": 0.068,
      "velocity": 0.2,
      "hand": "left"
    },
    {
      "midi": 38,
      "time": 5.727,
      "duration": 0.068,
      "velocity": 0.55,
      "hand": "left"
    },
    {
      "midi": 40,
      "time": 5.727,
      "duration": 0.068,
      "velocity": 0.47,
      "hand": "left"
    },
    {
      "midi": 71,
      "time": 5.727,
      "duration": 0.136,
      "velocity": 0.68,
      "hand": "right"
    },
    {
      "midi": 77,
      "time": 5.727,
      "duration": 0.136,
      "velocity": 0.76,
      "hand": "right"
    },
    {
      "midi": 82,
      "time": 5.727,
      "duration": 0.136,
      "velocity": 0.72,
      "hand": "right"
    },
    {
      "midi": 36,
      "time": 6,
      "duration": 0.068,
      "velocity": 0.5,
      "hand": "left"
    },
    {
      "midi": 43,
      "time": 6,
      "duration": 0.257,
      "velocity": 1,
      "hand": "left"
    },
    {
      "midi": 38,
      "time": 6.272,
      "duration": 0.068,
      "velocity": 0.55,
      "hand": "left"
    },
    {
      "midi": 40,
      "time": 6.272,
      "duration": 0.068,
      "velocity": 0.47,
      "hand": "left"
    },
    {
      "midi": 71,
      "time": 6.272,
      "duration": 0.273,
      "velocity": 0.56,
      "hand": "right"
    },
    {
      "midi": 77,
      "time": 6.272,
      "duration": 0.136,
      "velocity": 0.72,
      "hand": "right"
    },
    {
      "midi": 82,
      "time": 6.272,
      "duration": 0.136,
      "velocity": 0.57,
      "hand": "right"
    },
    {
      "midi": 43,
      "time": 6.545,
      "duration": 0.258,
      "velocity": 1,
      "hand": "left"
    },
    {
      "midi": 46,
      "time": 6.545,
      "duration": 0.068,
      "velocity": 0.64,
      "hand": "left"
    },
    {
      "midi": 38,
      "time": 6.818,
      "duration": 0.068,
      "velocity": 0.55,
      "hand": "left"
    },
    {
      "midi": 40,
      "time": 6.818,
      "duration": 0.068,
      "velocity": 0.47,
      "hand": "left"
    },
    {
      "midi": 71,
      "time": 6.818,
      "duration": 0.136,
      "velocity": 0.68,
      "hand": "right"
    },
    {
      "midi": 77,
      "time": 6.818,
      "duration": 0.136,
      "velocity": 0.76,
      "hand": "right"
    },
    {
      "midi": 82,
      "time": 6.818,
      "duration": 0.136,
      "velocity": 0.68,
      "hand": "right"
    },
    {
      "midi": 36,
      "time": 7.091,
      "duration": 0.068,
      "velocity": 0.5,
      "hand": "left"
    },
    {
      "midi": 43,
      "time": 7.091,
      "duration": 0.257,
      "velocity": 1,
      "hand": "left"
    },
    {
      "midi": 38,
      "time": 7.363,
      "duration": 0.068,
      "velocity": 0.55,
      "hand": "left"
    },
    {
      "midi": 40,
      "time": 7.363,
      "duration": 0.068,
      "velocity": 0.47,
      "hand": "left"
    },
    {
      "midi": 71,
      "time": 7.363,
      "duration": 0.136,
      "velocity": 0.69,
      "hand": "right"
    },
    {
      "midi": 77,
      "time": 7.363,
      "duration": 0.136,
      "velocity": 0.76,
      "hand": "right"
    },
    {
      "midi": 82,
      "time": 7.363,
      "duration": 0.136,
      "velocity": 0.68,
      "hand": "right"
    },
    {
      "midi": 36,
      "time": 7.636,
      "duration": 0.409,
      "velocity": 0.96,
      "hand": "left"
    },
    {
      "midi": 47,
      "time": 7.636,
      "duration": 0.068,
      "velocity": 0.48,
      "hand": "left"
    },
    {
      "midi": 62,
      "time": 7.636,
      "duration": 0.394,
      "velocity": 0.98,
      "hand": "right"
    },
    {
      "midi": 67,
      "time": 7.636,
      "duration": 0.394,
      "velocity": 0.93,
      "hand": "right"
    },
    {
      "midi": 46,
      "time": 7.909,
      "duration": 0.068,
      "velocity": 0.64,
      "hand": "left"
    },
    {
      "midi": 48,
      "time": 7.909,
      "duration": 0.068,
      "velocity": 0.68,
      "hand": "left"
    },
    {
      "midi": 57,
      "time": 8.045,
      "duration": 0.068,
      "velocity": 0.59,
      "hand": "left"
    },
    {
      "midi": 62,
      "time": 8.045,
      "duration": 0.068,
      "velocity": 0.68,
      "hand": "right"
    },
    {
      "midi": 67,
      "time": 8.045,
      "duration": 0.068,
      "velocity": 0.58,
      "hand": "right"
    },
    {
      "midi": 36,
      "time": 8.182,
      "duration": 0.068,
      "velocity": 0.5,
      "hand": "left"
    },
    {
      "midi": 43,
      "time": 8.182,
      "duration": 0.409,
      "velocity": 0.76,
      "hand": "left"
    },
    {
      "midi": 47,
      "time": 8.454,
      "duration": 0.068,
      "velocity": 0.61,
      "hand": "left"
    },
    {
      "midi": 62,
      "time": 8.454,
      "duration": 0.068,
      "velocity": 0.74,
      "hand": "right"
    },
    {
      "midi": 65,
      "time": 8.454,
      "duration": 0.273,
      "velocity": 0.72,
      "hand": "right"
    },
    {
      "midi": 67,
      "time": 8.454,
      "duration": 0.136,
      "velocity": 0.72,
      "hand": "right"
    },
    {
      "midi": 36,
      "time": 8.727,
      "duration": 0.53,
      "velocity": 0.92,
      "hand": "left"
    },
    {
      "midi": 47,
      "time": 8.727,
      "duration": 0.068,
      "velocity": 0.65,
      "hand": "left"
    },
    {
      "midi": 62,
      "time": 8.727,
      "duration": 0.258,
      "velocity": 0.93,
      "hand": "right"
    },
    {
      "midi": 64,
      "time": 8.727,
      "duration": 0.273,
      "velocity": 0.58,
      "hand": "right"
    },
    {
      "midi": 71,
      "time": 8.727,
      "duration": 0.409,
      "velocity": 0.9,
      "hand": "right"
    },
    {
      "midi": 40,
      "time": 9,
      "duration": 0.068,
      "velocity": 0.36,
      "hand": "left"
    },
    {
      "midi": 45,
      "time": 9,
      "duration": 0.068,
      "velocity": 0.65,
      "hand": "left"
    },
    {
      "midi": 62,
      "time": 9,
      "duration": 0.257,
      "velocity": 0.74,
      "hand": "right"
    },
    {
      "midi": 67,
      "time": 9,
      "duration": 0.257,
      "velocity": 0.72,
      "hand": "right"
    },
    {
      "midi": 36,
      "time": 9.272,
      "duration": 0.068,
      "velocity": 0.5,
      "hand": "left"
    },
    {
      "midi": 41,
      "time": 9.272,
      "duration": 0.068,
      "velocity": 0.75,
      "hand": "left"
    },
    {
      "midi": 62,
      "time": 9.272,
      "duration": 0.258,
      "velocity": 0.9,
      "hand": "right"
    },
    {
      "midi": 64,
      "time": 9.272,
      "duration": 0.273,
      "velocity": 0.74,
      "hand": "right"
    },
    {
      "midi": 67,
      "time": 9.272,
      "duration": 0.068,
      "velocity": 0.55,
      "hand": "right"
    },
    {
      "midi": 69,
      "time": 9.272,
      "duration": 0.409,
      "velocity": 0.95,
      "hand": "right"
    },
    {
      "midi": 45,
      "time": 9.409,
      "duration": 0.121,
      "velocity": 0.95,
      "hand": "left"
    },
    {
      "midi": 45,
      "time": 9.545,
      "duration": 0.068,
      "velocity": 0.57,
      "hand": "left"
    },
    {
      "midi": 47,
      "time": 9.545,
      "duration": 0.136,
      "velocity": 0.89,
      "hand": "left"
    },
    {
      "midi": 62,
      "time": 9.545,
      "duration": 0.068,
      "velocity": 0.73,
      "hand": "right"
    },
    {
      "midi": 65,
      "time": 9.545,
      "duration": 0.136,
      "velocity": 0.58,
      "hand": "right"
    },
    {
      "midi": 67,
      "time": 9.545,
      "duration": 0.136,
      "velocity": 0.61,
      "hand": "right"
    },
    {
      "midi": 43,
      "time": 9.682,
      "duration": 0.068,
      "velocity": 0.68,
      "hand": "left"
    },
    {
      "midi": 38,
      "time": 9.818,
      "duration": 0.068,
      "velocity": 0.55,
      "hand": "left"
    },
    {
      "midi": 40,
      "time": 9.818,
      "duration": 0.136,
      "velocity": 0.95,
      "hand": "left"
    },
    {
      "midi": 62,
      "time": 9.818,
      "duration": 0.136,
      "velocity": 0.73,
      "hand": "right"
    },
    {
      "midi": 67,
      "time": 9.818,
      "duration": 0.409,
      "velocity": 0.65,
      "hand": "right"
    },
    {
      "midi": 69,
      "time": 9.818,
      "duration": 0.136,
      "velocity": 0.56,
      "hand": "right"
    },
    {
      "midi": 36,
      "time": 10.363,
      "duration": 0.068,
      "velocity": 0.8,
      "hand": "left"
    },
    {
      "midi": 38,
      "time": 10.363,
      "duration": 0.068,
      "velocity": 0.55,
      "hand": "left"
    },
    {
      "midi": 62,
      "time": 10.363,
      "duration": 0.136,
      "velocity": 0.73,
      "hand": "right"
    },
    {
      "midi": 67,
      "time": 10.363,
      "duration": 0.273,
      "velocity": 0.63,
      "hand": "right"
    },
    {
      "midi": 69,
      "time": 10.363,
      "duration": 0.136,
      "velocity": 0.85,
      "hand": "right"
    },
    {
      "midi": 38,
      "time": 10.909,
      "duration": 0.068,
      "velocity": 0.55,
      "hand": "left"
    },
    {
      "midi": 40,
      "time": 10.909,
      "duration": 0.136,
      "velocity": 0.91,
      "hand": "left"
    },
    {
      "midi": 62,
      "time": 10.909,
      "duration": 0.136,
      "velocity": 0.75,
      "hand": "right"
    },
    {
      "midi": 67,
      "time": 10.909,
      "duration": 0.409,
      "velocity": 0.68,
      "hand": "right"
    },
    {
      "midi": 69,
      "time": 10.909,
      "duration": 0.136,
      "velocity": 0.64,
      "hand": "right"
    },
    {
      "midi": 69,
      "time": 11.454,
      "duration": 0.273,
      "velocity": 0.54,
      "hand": "right"
    },
    {
      "midi": 67,
      "time": 11.727,
      "duration": 0.258,
      "velocity": 0.52,
      "hand": "right"
    },
    {
      "midi": 38,
      "time": 12,
      "duration": 0.136,
      "velocity": 0.84,
      "hand": "left"
    },
    {
      "midi": 42,
      "time": 12,
      "duration": 0.068,
      "velocity": 0.71,
      "hand": "left"
    },
    {
      "midi": 62,
      "time": 12,
      "duration": 0.136,
      "velocity": 0.92,
      "hand": "right"
    },
    {
      "midi": 65,
      "time": 12,
      "duration": 0.409,
      "velocity": 0.94,
      "hand": "right"
    },
    {
      "midi": 67,
      "time": 12,
      "duration": 0.136,
      "velocity": 0.56,
      "hand": "right"
    },
    {
      "midi": 36,
      "time": 12.545,
      "duration": 0.068,
      "velocity": 0.8,
      "hand": "left"
    },
    {
      "midi": 38,
      "time": 12.545,
      "duration": 0.136,
      "velocity": 0.98,
      "hand": "left"
    },
    {
      "midi": 62,
      "time": 12.545,
      "duration": 0.136,
      "velocity": 0.92,
      "hand": "right"
    },
    {
      "midi": 65,
      "time": 12.545,
      "duration": 0.409,
      "velocity": 0.94,
      "hand": "right"
    },
    {
      "midi": 67,
      "time": 12.545,
      "duration": 0.136,
      "velocity": 0.77,
      "hand": "right"
    },
    {
      "midi": 38,
      "time": 13.091,
      "duration": 0.136,
      "velocity": 0.94,
      "hand": "left"
    },
    {
      "midi": 40,
      "time": 13.091,
      "duration": 0.068,
      "velocity": 0.71,
      "hand": "left"
    },
    {
      "midi": 62,
      "time": 13.091,
      "duration": 0.136,
      "velocity": 0.92,
      "hand": "right"
    },
    {
      "midi": 65,
      "time": 13.091,
      "duration": 0.409,
      "velocity": 0.94,
      "hand": "right"
    },
    {
      "midi": 69,
      "time": 13.091,
      "duration": 0.136,
      "velocity": 0.92,
      "hand": "right"
    },
    {
      "midi": 67,
      "time": 13.636,
      "duration": 0.136,
      "velocity": 0.54,
      "hand": "right"
    },
    {
      "midi": 65,
      "time": 13.909,
      "duration": 0.258,
      "velocity": 0.59,
      "hand": "right"
    },
    {
      "midi": 38,
      "time": 14.182,
      "duration": 0.068,
      "velocity": 0.55,
      "hand": "left"
    },
    {
      "midi": 42,
      "time": 14.182,
      "duration": 0.068,
      "velocity": 0.71,
      "hand": "left"
    },
    {
      "midi": 60,
      "time": 14.182,
      "duration": 0.136,
      "velocity": 0.56,
      "hand": "right"
    },
    {
      "midi": 65,
      "time": 14.182,
      "duration": 0.136,
      "velocity": 0.96,
      "hand": "right"
    },
    {
      "midi": 36,
      "time": 14.727,
      "duration": 0.068,
      "velocity": 0.8,
      "hand": "left"
    },
    {
      "midi": 38,
      "time": 14.727,
      "duration": 0.273,
      "velocity": 0.97,
      "hand": "left"
    },
    {
      "midi": 60,
      "time": 14.727,
      "duration": 0.136,
      "velocity": 1,
      "hand": "right"
    },
    {
      "midi": 65,
      "time": 14.727,
      "duration": 0.136,
      "velocity": 0.96,
      "hand": "right"
    },
    {
      "midi": 38,
      "time": 15.272,
      "duration": 0.273,
      "velocity": 1,
      "hand": "left"
    },
    {
      "midi": 40,
      "time": 15.272,
      "duration": 0.068,
      "velocity": 0.65,
      "hand": "left"
    },
    {
      "midi": 60,
      "time": 15.272,
      "duration": 0.136,
      "velocity": 0.54,
      "hand": "right"
    },
    {
      "midi": 64,
      "time": 15.272,
      "duration": 0.545,
      "velocity": 0.96,
      "hand": "right"
    },
    {
      "midi": 38,
      "time": 15.682,
      "duration": 0.068,
      "velocity": 0.55,
      "hand": "left"
    },
    {
      "midi": 40,
      "time": 15.682,
      "duration": 0.068,
      "velocity": 0.73,
      "hand": "left"
    },
    {
      "midi": 38,
      "time": 15.818,
      "duration": 0.068,
      "velocity": 0.55,
      "hand": "left"
    },
    {
      "midi": 41,
      "time": 15.818,
      "duration": 0.068,
      "velocity": 0.75,
      "hand": "left"
    },
    {
      "midi": 60,
      "time": 15.818,
      "duration": 0.136,
      "velocity": 0.73,
      "hand": "right"
    },
    {
      "midi": 38,
      "time": 16.091,
      "duration": 0.068,
      "velocity": 0.55,
      "hand": "left"
    },
    {
      "midi": 40,
      "time": 16.091,
      "duration": 0.068,
      "velocity": 0.65,
      "hand": "left"
    },
    {
      "midi": 60,
      "time": 16.091,
      "duration": 0.257,
      "velocity": 0.7,
      "hand": "right"
    },
    {
      "midi": 38,
      "time": 16.363,
      "duration": 0.068,
      "velocity": 0.55,
      "hand": "left"
    },
    {
      "midi": 41,
      "time": 16.363,
      "duration": 0.136,
      "velocity": 0.8,
      "hand": "left"
    },
    {
      "midi": 60,
      "time": 16.363,
      "duration": 0.273,
      "velocity": 0.98,
      "hand": "right"
    },
    {
      "midi": 64,
      "time": 16.363,
      "duration": 0.273,
      "velocity": 1,
      "hand": "right"
    },
    {
      "midi": 67,
      "time": 16.363,
      "duration": 0.136,
      "velocity": 0.95,
      "hand": "right"
    },
    {
      "midi": 69,
      "time": 16.363,
      "duration": 0.409,
      "velocity": 0.72,
      "hand": "right"
    },
    {
      "midi": 36,
      "time": 16.909,
      "duration": 0.068,
      "velocity": 0.8,
      "hand": "left"
    },
    {
      "midi": 38,
      "time": 16.909,
      "duration": 0.068,
      "velocity": 0.55,
      "hand": "left"
    },
    {
      "midi": 60,
      "time": 16.909,
      "duration": 0.136,
      "velocity": 0.98,
      "hand": "right"
    },
    {
      "midi": 64,
      "time": 16.909,
      "duration": 0.136,
      "velocity": 1,
      "hand": "right"
    },
    {
      "midi": 67,
      "time": 16.909,
      "duration": 0.136,
      "velocity": 0.95,
      "hand": "right"
    },
    {
      "midi": 69,
      "time": 16.909,
      "duration": 0.409,
      "velocity": 0.72,
      "hand": "right"
    },
    {
      "midi": 38,
      "time": 17.454,
      "duration": 0.068,
      "velocity": 0.55,
      "hand": "left"
    },
    {
      "midi": 40,
      "time": 17.454,
      "duration": 0.068,
      "velocity": 0.65,
      "hand": "left"
    },
    {
      "midi": 60,
      "time": 17.454,
      "duration": 0.136,
      "velocity": 0.72,
      "hand": "right"
    },
    {
      "midi": 63,
      "time": 17.454,
      "duration": 0.136,
      "velocity": 0.82,
      "hand": "right"
    },
    {
      "midi": 67,
      "time": 17.454,
      "duration": 0.136,
      "velocity": 0.84,
      "hand": "right"
    },
    {
      "midi": 69,
      "time": 17.454,
      "duration": 0.409,
      "velocity": 0.72,
      "hand": "right"
    },
    {
      "midi": 71,
      "time": 18,
      "duration": 0.273,
      "velocity": 0.56,
      "hand": "right"
    },
    {
      "midi": 69,
      "time": 18.272,
      "duration": 0.258,
      "velocity": 0.55,
      "hand": "right"
    },
    {
      "midi": 38,
      "time": 18.545,
      "duration": 0.068,
      "velocity": 0.55,
      "hand": "left"
    },
    {
      "midi": 40,
      "time": 18.545,
      "duration": 0.136,
      "velocity": 0.94,
      "hand": "left"
    },
    {
      "midi": 64,
      "time": 18.545,
      "duration": 0.273,
      "velocity": 0.98,
      "hand": "right"
    },
    {
      "midi": 67,
      "time": 18.545,
      "duration": 0.409,
      "velocity": 0.91,
      "hand": "right"
    },
    {
      "midi": 69,
      "time": 18.545,
      "duration": 0.136,
      "velocity": 0.55,
      "hand": "right"
    },
    {
      "midi": 36,
      "time": 19.091,
      "duration": 0.068,
      "velocity": 0.8,
      "hand": "left"
    },
    {
      "midi": 38,
      "time": 19.091,
      "duration": 0.068,
      "velocity": 0.55,
      "hand": "left"
    },
    {
      "midi": 64,
      "time": 19.091,
      "duration": 0.273,
      "velocity": 0.98,
      "hand": "right"
    },
    {
      "midi": 67,
      "time": 19.091,
      "duration": 0.409,
      "velocity": 0.91,
      "hand": "right"
    },
    {
      "midi": 69,
      "time": 19.091,
      "duration": 0.136,
      "velocity": 0.87,
      "hand": "right"
    },
    {
      "midi": 39,
      "time": 19.636,
      "duration": 0.136,
      "velocity": 0.85,
      "hand": "left"
    },
    {
      "midi": 65,
      "time": 19.636,
      "duration": 0.136,
      "velocity": 0.59,
      "hand": "right"
    },
    {
      "midi": 68,
      "time": 19.636,
      "duration": 0.136,
      "velocity": 0.57,
      "hand": "right"
    },
    {
      "midi": 64,
      "time": 20.182,
      "duration": 0.136,
      "velocity": 0.74,
      "hand": "right"
    },
    {
      "midi": 65,
      "time": 20.454,
      "duration": 0.258,
      "velocity": 0.69,
      "hand": "right"
    },
    {
      "midi": 38,
      "time": 20.727,
      "duration": 0.136,
      "velocity": 0.87,
      "hand": "left"
    },
    {
      "midi": 42,
      "time": 20.727,
      "duration": 0.068,
      "velocity": 0.71,
      "hand": "left"
    },
    {
      "midi": 65,
      "time": 20.727,
      "duration": 0.273,
      "velocity": 0.98,
      "hand": "right"
    },
    {
      "midi": 67,
      "time": 20.727,
      "duration": 0.136,
      "velocity": 0.56,
      "hand": "right"
    },
    {
      "midi": 69,
      "time": 20.727,
      "duration": 0.273,
      "velocity": 0.92,
      "hand": "right"
    },
    {
      "midi": 64,
      "time": 21.272,
      "duration": 0.136,
      "velocity": 0.72,
      "hand": "right"
    },
    {
      "midi": 65,
      "time": 21.545,
      "duration": 0.136,
      "velocity": 0.57,
      "hand": "right"
    },
    {
      "midi": 38,
      "time": 21.818,
      "duration": 0.068,
      "velocity": 0.55,
      "hand": "left"
    },
    {
      "midi": 65,
      "time": 21.818,
      "duration": 0.258,
      "velocity": 1,
      "hand": "right"
    },
    {
      "midi": 68,
      "time": 21.818,
      "duration": 0.136,
      "velocity": 0.94,
      "hand": "right"
    },
    {
      "midi": 71,
      "time": 21.818,
      "duration": 0.136,
      "velocity": 0.98,
      "hand": "right"
    },
    {
      "midi": 65,
      "time": 22.091,
      "duration": 0.136,
      "velocity": 0.53,
      "hand": "right"
    },
    {
      "midi": 64,
      "time": 22.363,
      "duration": 0.136,
      "velocity": 0.65,
      "hand": "right"
    },
    {
      "midi": 62,
      "time": 22.636,
      "duration": 0.136,
      "velocity": 0.55,
      "hand": "right"
    },
    {
      "midi": 36,
      "time": 22.909,
      "duration": 0.53,
      "velocity": 0.95,
      "hand": "left"
    },
    {
      "midi": 38,
      "time": 22.909,
      "duration": 0.068,
      "velocity": 0.55,
      "hand": "left"
    },
    {
      "midi": 64,
      "time": 22.909,
      "duration": 0.273,
      "velocity": 0.93,
      "hand": "right"
    },
    {
      "midi": 67,
      "time": 22.909,
      "duration": 0.53,
      "velocity": 0.94,
      "hand": "right"
    },
    {
      "midi": 69,
      "time": 22.909,
      "duration": 0.273,
      "velocity": 0.94,
      "hand": "right"
    },
    {
      "midi": 72,
      "time": 22.909,
      "duration": 0.273,
      "velocity": 0.96,
      "hand": "right"
    },
    {
      "midi": 36,
      "time": 23.454,
      "duration": 0.136,
      "velocity": 0.95,
      "hand": "left"
    },
    {
      "midi": 38,
      "time": 23.454,
      "duration": 0.068,
      "velocity": 0.55,
      "hand": "left"
    },
    {
      "midi": 67,
      "time": 23.454,
      "duration": 0.803,
      "velocity": 0.57,
      "hand": "right"
    },
    {
      "midi": 72,
      "time": 23.454,
      "duration": 0.531,
      "velocity": 0.74,
      "hand": "right"
    },
    {
      "midi": 74,
      "time": 23.454,
      "duration": 1.091,
      "velocity": 0.72,
      "hand": "right"
    },
    {
      "midi": 79,
      "time": 23.454,
      "duration": 1.091,
      "velocity": 0.9,
      "hand": "right"
    },
    {
      "midi": 36,
      "time": 24,
      "duration": 0.136,
      "velocity": 0.95,
      "hand": "left"
    },
    {
      "midi": 38,
      "time": 24,
      "duration": 0.068,
      "velocity": 0.55,
      "hand": "left"
    },
    {
      "midi": 60,
      "time": 24,
      "duration": 0.409,
      "velocity": 0.72,
      "hand": "right"
    },
    {
      "midi": 72,
      "time": 24,
      "duration": 0.545,
      "velocity": 0.78,
      "hand": "right"
    },
    {
      "midi": 36,
      "time": 24.272,
      "duration": 0.068,
      "velocity": 0.67,
      "hand": "left"
    },
    {
      "midi": 38,
      "time": 24.272,
      "duration": 0.068,
      "velocity": 0.55,
      "hand": "left"
    },
    {
      "midi": 71,
      "time": 24.272,
      "duration": 0.136,
      "velocity": 0.68,
      "hand": "right"
    },
    {
      "midi": 77,
      "time": 24.272,
      "duration": 0.136,
      "velocity": 0.76,
      "hand": "right"
    },
    {
      "midi": 82,
      "time": 24.272,
      "duration": 0.136,
      "velocity": 0.72,
      "hand": "right"
    },
    {
      "midi": 36,
      "time": 24.545,
      "duration": 0.068,
      "velocity": 0.67,
      "hand": "left"
    },
    {
      "midi": 38,
      "time": 24.545,
      "duration": 0.068,
      "velocity": 0.55,
      "hand": "left"
    },
    {
      "midi": 43,
      "time": 24.818,
      "duration": 0.273,
      "velocity": 0.95,
      "hand": "left"
    },
    {
      "midi": 53,
      "time": 24.818,
      "duration": 0.136,
      "velocity": 0.74,
      "hand": "left"
    },
    {
      "midi": 71,
      "time": 24.818,
      "duration": 0.273,
      "velocity": 0.56,
      "hand": "right"
    },
    {
      "midi": 77,
      "time": 24.818,
      "duration": 0.136,
      "velocity": 0.72,
      "hand": "right"
    },
    {
      "midi": 82,
      "time": 24.818,
      "duration": 0.136,
      "velocity": 0.57,
      "hand": "right"
    },
    {
      "midi": 67,
      "time": 25.091,
      "duration": 0.257,
      "velocity": 0.9,
      "hand": "right"
    },
    {
      "midi": 36,
      "time": 25.363,
      "duration": 0.068,
      "velocity": 0.67,
      "hand": "left"
    },
    {
      "midi": 38,
      "time": 25.363,
      "duration": 0.068,
      "velocity": 0.55,
      "hand": "left"
    },
    {
      "midi": 71,
      "time": 25.363,
      "duration": 0.136,
      "velocity": 0.68,
      "hand": "right"
    },
    {
      "midi": 77,
      "time": 25.363,
      "duration": 0.136,
      "velocity": 0.76,
      "hand": "right"
    },
    {
      "midi": 82,
      "time": 25.363,
      "duration": 0.136,
      "velocity": 0.68,
      "hand": "right"
    },
    {
      "midi": 36,
      "time": 25.636,
      "duration": 0.068,
      "velocity": 0.57,
      "hand": "left"
    },
    {
      "midi": 41,
      "time": 25.636,
      "duration": 0.068,
      "velocity": 0.75,
      "hand": "left"
    },
    {
      "midi": 36,
      "time": 25.909,
      "duration": 0.068,
      "velocity": 0.67,
      "hand": "left"
    },
    {
      "midi": 38,
      "time": 25.909,
      "duration": 0.068,
      "velocity": 0.55,
      "hand": "left"
    },
    {
      "midi": 71,
      "time": 25.909,
      "duration": 0.136,
      "velocity": 0.69,
      "hand": "right"
    },
    {
      "midi": 77,
      "time": 25.909,
      "duration": 0.136,
      "velocity": 0.76,
      "hand": "right"
    },
    {
      "midi": 82,
      "time": 25.909,
      "duration": 0.136,
      "velocity": 0.68,
      "hand": "right"
    },
    {
      "midi": 55,
      "time": 26.182,
      "duration": 0.273,
      "velocity": 0.85,
      "hand": "left"
    },
    {
      "midi": 57,
      "time": 26.182,
      "duration": 0.53,
      "velocity": 0.83,
      "hand": "left"
    },
    {
      "midi": 62,
      "time": 26.182,
      "duration": 0.257,
      "velocity": 0.94,
      "hand": "right"
    },
    {
      "midi": 64,
      "time": 26.182,
      "duration": 0.273,
      "velocity": 0.74,
      "hand": "right"
    },
    {
      "midi": 67,
      "time": 26.182,
      "duration": 0.257,
      "velocity": 0.93,
      "hand": "right"
    },
    {
      "midi": 36,
      "time": 26.454,
      "duration": 0.068,
      "velocity": 0.67,
      "hand": "left"
    },
    {
      "midi": 38,
      "time": 26.454,
      "duration": 0.068,
      "velocity": 0.55,
      "hand": "left"
    },
    {
      "midi": 71,
      "time": 26.454,
      "duration": 0.273,
      "velocity": 0.79,
      "hand": "right"
    },
    {
      "midi": 77,
      "time": 26.454,
      "duration": 0.273,
      "velocity": 0.79,
      "hand": "right"
    },
    {
      "midi": 82,
      "time": 26.454,
      "duration": 0.273,
      "velocity": 0.79,
      "hand": "right"
    },
    {
      "midi": 36,
      "time": 26.727,
      "duration": 0.068,
      "velocity": 0.67,
      "hand": "left"
    },
    {
      "midi": 38,
      "time": 26.727,
      "duration": 0.068,
      "velocity": 0.55,
      "hand": "left"
    },
    {
      "midi": 64,
      "time": 26.727,
      "duration": 0.273,
      "velocity": 0.9,
      "hand": "right"
    },
    {
      "midi": 47,
      "time": 27,
      "duration": 0.136,
      "velocity": 0.89,
      "hand": "left"
    },
    {
      "midi": 53,
      "time": 27,
      "duration": 0.136,
      "velocity": 0.74,
      "hand": "left"
    },
    {
      "midi": 62,
      "time": 27,
      "duration": 0.136,
      "velocity": 0.64,
      "hand": "right"
    },
    {
      "midi": 65,
      "time": 27,
      "duration": 0.136,
      "velocity": 0.74,
      "hand": "right"
    },
    {
      "midi": 38,
      "time": 27.272,
      "duration": 0.068,
      "velocity": 0.55,
      "hand": "left"
    },
    {
      "midi": 40,
      "time": 27.272,
      "duration": 0.258,
      "velocity": 0.95,
      "hand": "left"
    },
    {
      "midi": 62,
      "time": 27.272,
      "duration": 0.395,
      "velocity": 0.83,
      "hand": "right"
    },
    {
      "midi": 67,
      "time": 27.272,
      "duration": 0.409,
      "velocity": 0.81,
      "hand": "right"
    },
    {
      "midi": 69,
      "time": 27.272,
      "duration": 0.395,
      "velocity": 0.85,
      "hand": "right"
    },
    {
      "midi": 38,
      "time": 27.545,
      "duration": 0.068,
      "velocity": 0.55,
      "hand": "left"
    },
    {
      "midi": 40,
      "time": 27.545,
      "duration": 0.068,
      "velocity": 0.69,
      "hand": "left"
    },
    {
      "midi": 55,
      "time": 27.682,
      "duration": 0.068,
      "velocity": 0.55,
      "hand": "left"
    },
    {
      "midi": 59,
      "time": 27.682,
      "duration": 0.068,
      "velocity": 0.63,
      "hand": "left"
    },
    {
      "midi": 62,
      "time": 27.682,
      "duration": 0.068,
      "velocity": 0.73,
      "hand": "right"
    },
    {
      "midi": 66,
      "time": 27.682,
      "duration": 0.068,
      "velocity": 0.73,
      "hand": "right"
    },
    {
      "midi": 69,
      "time": 27.682,
      "duration": 0.068,
      "velocity": 0.56,
      "hand": "right"
    },
    {
      "midi": 36,
      "time": 27.818,
      "duration": 0.068,
      "velocity": 0.8,
      "hand": "left"
    },
    {
      "midi": 38,
      "time": 27.818,
      "duration": 0.068,
      "velocity": 0.55,
      "hand": "left"
    },
    {
      "midi": 62,
      "time": 27.818,
      "duration": 0.068,
      "velocity": 0.53,
      "hand": "right"
    },
    {
      "midi": 67,
      "time": 27.818,
      "duration": 0.121,
      "velocity": 0.79,
      "hand": "right"
    },
    {
      "midi": 38,
      "time": 27.954,
      "duration": 0.068,
      "velocity": 0.55,
      "hand": "left"
    },
    {
      "midi": 40,
      "time": 27.954,
      "duration": 0.068,
      "velocity": 0.62,
      "hand": "left"
    },
    {
      "midi": 67,
      "time": 27.954,
      "duration": 0.136,
      "velocity": 0.57,
      "hand": "right"
    },
    {
      "midi": 38,
      "time": 28.091,
      "duration": 0.068,
      "velocity": 0.55,
      "hand": "left"
    },
    {
      "midi": 45,
      "time": 28.091,
      "duration": 0.136,
      "velocity": 0.68,
      "hand": "left"
    },
    {
      "midi": 62,
      "time": 28.091,
      "duration": 0.068,
      "velocity": 0.64,
      "hand": "right"
    },
    {
      "midi": 66,
      "time": 28.091,
      "duration": 0.068,
      "velocity": 0.52,
      "hand": "right"
    },
    {
      "midi": 69,
      "time": 28.091,
      "duration": 0.136,
      "velocity": 0.68,
      "hand": "right"
    },
    {
      "midi": 71,
      "time": 28.091,
      "duration": 0.136,
      "velocity": 0.73,
      "hand": "right"
    },
    {
      "midi": 38,
      "time": 28.227,
      "duration": 0.068,
      "velocity": 0.55,
      "hand": "left"
    },
    {
      "midi": 48,
      "time": 28.227,
      "duration": 0.136,
      "velocity": 0.53,
      "hand": "left"
    },
    {
      "midi": 60,
      "time": 28.227,
      "duration": 0.136,
      "velocity": 0.53,
      "hand": "right"
    },
    {
      "midi": 62,
      "time": 28.227,
      "duration": 0.121,
      "velocity": 0.72,
      "hand": "right"
    },
    {
      "midi": 72,
      "time": 28.227,
      "duration": 0.136,
      "velocity": 0.53,
      "hand": "right"
    },
    {
      "midi": 38,
      "time": 28.363,
      "duration": 0.068,
      "velocity": 0.55,
      "hand": "left"
    },
    {
      "midi": 40,
      "time": 28.363,
      "duration": 0.394,
      "velocity": 0.91,
      "hand": "left"
    },
    {
      "midi": 67,
      "time": 28.363,
      "duration": 0.409,
      "velocity": 0.83,
      "hand": "right"
    },
    {
      "midi": 69,
      "time": 28.363,
      "duration": 0.531,
      "velocity": 0.87,
      "hand": "right"
    },
    {
      "midi": 74,
      "time": 28.363,
      "duration": 0.273,
      "velocity": 0.54,
      "hand": "right"
    },
    {
      "midi": 46,
      "time": 28.636,
      "duration": 0.068,
      "velocity": 0.64,
      "hand": "left"
    },
    {
      "midi": 48,
      "time": 28.636,
      "duration": 0.273,
      "velocity": 0.76,
      "hand": "left"
    },
    {
      "midi": 63,
      "time": 28.636,
      "duration": 0.068,
      "velocity": 0.43,
      "hand": "right"
    },
    {
      "midi": 66,
      "time": 28.636,
      "duration": 0.258,
      "velocity": 1,
      "hand": "right"
    },
    {
      "midi": 72,
      "time": 28.636,
      "duration": 0.273,
      "velocity": 0.76,
      "hand": "right"
    },
    {
      "midi": 38,
      "time": 28.772,
      "duration": 0.068,
      "velocity": 0.55,
      "hand": "left"
    },
    {
      "midi": 40,
      "time": 28.772,
      "duration": 0.068,
      "velocity": 0.73,
      "hand": "left"
    },
    {
      "midi": 36,
      "time": 28.909,
      "duration": 0.068,
      "velocity": 0.8,
      "hand": "left"
    },
    {
      "midi": 38,
      "time": 28.909,
      "duration": 0.068,
      "velocity": 0.55,
      "hand": "left"
    },
    {
      "midi": 62,
      "time": 28.909,
      "duration": 0.273,
      "velocity": 0.57,
      "hand": "right"
    },
    {
      "midi": 66,
      "time": 28.909,
      "duration": 0.273,
      "velocity": 0.52,
      "hand": "right"
    },
    {
      "midi": 69,
      "time": 28.909,
      "duration": 0.258,
      "velocity": 0.69,
      "hand": "right"
    },
    {
      "midi": 71,
      "time": 28.909,
      "duration": 0.273,
      "velocity": 0.69,
      "hand": "right"
    },
    {
      "midi": 38,
      "time": 29.182,
      "duration": 0.068,
      "velocity": 0.55,
      "hand": "left"
    },
    {
      "midi": 40,
      "time": 29.182,
      "duration": 0.273,
      "velocity": 0.95,
      "hand": "left"
    },
    {
      "midi": 67,
      "time": 29.182,
      "duration": 0.257,
      "velocity": 0.68,
      "hand": "right"
    },
    {
      "midi": 69,
      "time": 29.182,
      "duration": 0.273,
      "velocity": 0.69,
      "hand": "right"
    },
    {
      "midi": 38,
      "time": 29.454,
      "duration": 0.258,
      "velocity": 0.84,
      "hand": "left"
    },
    {
      "midi": 42,
      "time": 29.454,
      "duration": 0.068,
      "velocity": 0.71,
      "hand": "left"
    },
    {
      "midi": 65,
      "time": 29.454,
      "duration": 0.531,
      "velocity": 0.75,
      "hand": "right"
    },
    {
      "midi": 67,
      "time": 29.454,
      "duration": 0.531,
      "velocity": 0.91,
      "hand": "right"
    },
    {
      "midi": 72,
      "time": 29.454,
      "duration": 0.545,
      "velocity": 0.72,
      "hand": "right"
    },
    {
      "midi": 38,
      "time": 29.727,
      "duration": 0.068,
      "velocity": 0.55,
      "hand": "left"
    },
    {
      "midi": 40,
      "time": 29.727,
      "duration": 0.068,
      "velocity": 0.65,
      "hand": "left"
    },
    {
      "midi": 53,
      "time": 29.863,
      "duration": 0.068,
      "velocity": 0.57,
      "hand": "left"
    },
    {
      "midi": 57,
      "time": 29.863,
      "duration": 0.068,
      "velocity": 0.49,
      "hand": "left"
    },
    {
      "midi": 60,
      "time": 29.863,
      "duration": 0.068,
      "velocity": 0.68,
      "hand": "right"
    },
    {
      "midi": 64,
      "time": 29.863,
      "duration": 0.068,
      "velocity": 0.54,
      "hand": "right"
    },
    {
      "midi": 36,
      "time": 30,
      "duration": 0.068,
      "velocity": 0.8,
      "hand": "left"
    },
    {
      "midi": 38,
      "time": 30,
      "duration": 0.068,
      "velocity": 0.55,
      "hand": "left"
    },
    {
      "midi": 60,
      "time": 30,
      "duration": 0.257,
      "velocity": 0.83,
      "hand": "right"
    },
    {
      "midi": 65,
      "time": 30,
      "duration": 0.409,
      "velocity": 0.86,
      "hand": "right"
    },
    {
      "midi": 67,
      "time": 30,
      "duration": 0.273,
      "velocity": 0.77,
      "hand": "right"
    },
    {
      "midi": 38,
      "time": 30.136,
      "duration": 0.068,
      "velocity": 0.55,
      "hand": "left"
    },
    {
      "midi": 40,
      "time": 30.136,
      "duration": 0.068,
      "velocity": 0.76,
      "hand": "left"
    },
    {
      "midi": 38,
      "time": 30.272,
      "duration": 0.068,
      "velocity": 0.55,
      "hand": "left"
    },
    {
      "midi": 46,
      "time": 30.272,
      "duration": 0.068,
      "velocity": 0.64,
      "hand": "left"
    },
    {
      "midi": 60,
      "time": 30.272,
      "duration": 0.136,
      "velocity": 0.68,
      "hand": "right"
    },
    {
      "midi": 64,
      "time": 30.272,
      "duration": 0.136,
      "velocity": 0.57,
      "hand": "right"
    },
    {
      "midi": 38,
      "time": 30.409,
      "duration": 0.068,
      "velocity": 0.55,
      "hand": "left"
    },
    {
      "midi": 38,
      "time": 30.545,
      "duration": 0.394,
      "velocity": 0.94,
      "hand": "left"
    },
    {
      "midi": 40,
      "time": 30.545,
      "duration": 0.068,
      "velocity": 0.71,
      "hand": "left"
    },
    {
      "midi": 62,
      "time": 30.545,
      "duration": 0.531,
      "velocity": 0.89,
      "hand": "right"
    },
    {
      "midi": 65,
      "time": 30.545,
      "duration": 0.409,
      "velocity": 0.81,
      "hand": "right"
    },
    {
      "midi": 69,
      "time": 30.545,
      "duration": 0.531,
      "velocity": 1,
      "hand": "right"
    },
    {
      "midi": 46,
      "time": 30.818,
      "duration": 0.068,
      "velocity": 0.64,
      "hand": "left"
    },
    {
      "midi": 54,
      "time": 30.818,
      "duration": 0.068,
      "velocity": 0.61,
      "hand": "left"
    },
    {
      "midi": 38,
      "time": 30.954,
      "duration": 0.068,
      "velocity": 0.55,
      "hand": "left"
    },
    {
      "midi": 40,
      "time": 30.954,
      "duration": 0.068,
      "velocity": 0.67,
      "hand": "left"
    },
    {
      "midi": 61,
      "time": 30.954,
      "duration": 0.068,
      "velocity": 0.4,
      "hand": "right"
    },
    {
      "midi": 63,
      "time": 30.954,
      "duration": 0.273,
      "velocity": 0.56,
      "hand": "right"
    },
    {
      "midi": 36,
      "time": 31.091,
      "duration": 0.068,
      "velocity": 0.76,
      "hand": "left"
    },
    {
      "midi": 38,
      "time": 31.091,
      "duration": 0.068,
      "velocity": 0.55,
      "hand": "left"
    },
    {
      "midi": 62,
      "time": 31.091,
      "duration": 0.121,
      "velocity": 0.91,
      "hand": "right"
    },
    {
      "midi": 64,
      "time": 31.091,
      "duration": 0.409,
      "velocity": 0.93,
      "hand": "right"
    },
    {
      "midi": 67,
      "time": 31.091,
      "duration": 0.273,
      "velocity": 1,
      "hand": "right"
    },
    {
      "midi": 69,
      "time": 31.091,
      "duration": 0.273,
      "velocity": 0.87,
      "hand": "right"
    },
    {
      "midi": 53,
      "time": 31.227,
      "duration": 0.136,
      "velocity": 0.56,
      "hand": "left"
    },
    {
      "midi": 57,
      "time": 31.227,
      "duration": 0.136,
      "velocity": 0.53,
      "hand": "left"
    },
    {
      "midi": 62,
      "time": 31.227,
      "duration": 0.136,
      "velocity": 0.56,
      "hand": "right"
    },
    {
      "midi": 38,
      "time": 31.363,
      "duration": 0.068,
      "velocity": 0.55,
      "hand": "left"
    },
    {
      "midi": 40,
      "time": 31.363,
      "duration": 0.068,
      "velocity": 0.64,
      "hand": "left"
    },
    {
      "midi": 65,
      "time": 31.363,
      "duration": 0.258,
      "velocity": 0.75,
      "hand": "right"
    },
    {
      "midi": 38,
      "time": 31.636,
      "duration": 0.068,
      "velocity": 0.55,
      "hand": "left"
    },
    {
      "midi": 42,
      "time": 31.636,
      "duration": 0.068,
      "velocity": 0.71,
      "hand": "left"
    },
    {
      "midi": 60,
      "time": 31.636,
      "duration": 0.394,
      "velocity": 1,
      "hand": "right"
    },
    {
      "midi": 65,
      "time": 31.636,
      "duration": 0.531,
      "velocity": 1,
      "hand": "right"
    },
    {
      "midi": 40,
      "time": 31.772,
      "duration": 0.068,
      "velocity": 0.69,
      "hand": "left"
    },
    {
      "midi": 38,
      "time": 31.909,
      "duration": 0.068,
      "velocity": 0.55,
      "hand": "left"
    },
    {
      "midi": 46,
      "time": 31.909,
      "duration": 0.068,
      "velocity": 0.64,
      "hand": "left"
    },
    {
      "midi": 53,
      "time": 32.045,
      "duration": 0.068,
      "velocity": 0.61,
      "hand": "left"
    },
    {
      "midi": 55,
      "time": 32.045,
      "duration": 0.068,
      "velocity": 0.72,
      "hand": "left"
    },
    {
      "midi": 60,
      "time": 32.045,
      "duration": 0.068,
      "velocity": 0.56,
      "hand": "right"
    },
    {
      "midi": 36,
      "time": 32.182,
      "duration": 0.068,
      "velocity": 0.76,
      "hand": "left"
    },
    {
      "midi": 38,
      "time": 32.182,
      "duration": 0.121,
      "velocity": 0.97,
      "hand": "left"
    },
    {
      "midi": 60,
      "time": 32.182,
      "duration": 0.257,
      "velocity": 0.91,
      "hand": "right"
    },
    {
      "midi": 65,
      "time": 32.182,
      "duration": 0.257,
      "velocity": 0.95,
      "hand": "right"
    },
    {
      "midi": 38,
      "time": 32.318,
      "duration": 0.068,
      "velocity": 0.55,
      "hand": "left"
    },
    {
      "midi": 55,
      "time": 32.318,
      "duration": 0.121,
      "velocity": 0.59,
      "hand": "left"
    },
    {
      "midi": 38,
      "time": 32.454,
      "duration": 0.068,
      "velocity": 0.55,
      "hand": "left"
    },
    {
      "midi": 43,
      "time": 32.454,
      "duration": 0.273,
      "velocity": 0.92,
      "hand": "left"
    },
    {
      "midi": 65,
      "time": 32.454,
      "duration": 0.136,
      "velocity": 0.54,
      "hand": "right"
    },
    {
      "midi": 67,
      "time": 32.454,
      "duration": 0.136,
      "velocity": 0.59,
      "hand": "right"
    },
    {
      "midi": 77,
      "time": 32.454,
      "duration": 0.136,
      "velocity": 0.54,
      "hand": "right"
    },
    {
      "midi": 79,
      "time": 32.454,
      "duration": 0.136,
      "velocity": 0.59,
      "hand": "right"
    },
    {
      "midi": 38,
      "time": 32.591,
      "duration": 0.068,
      "velocity": 0.55,
      "hand": "left"
    },
    {
      "midi": 52,
      "time": 32.591,
      "duration": 0.121,
      "velocity": 0.73,
      "hand": "left"
    },
    {
      "midi": 64,
      "time": 32.591,
      "duration": 0.121,
      "velocity": 0.73,
      "hand": "right"
    },
    {
      "midi": 76,
      "time": 32.591,
      "duration": 0.136,
      "velocity": 0.73,
      "hand": "right"
    },
    {
      "midi": 38,
      "time": 32.727,
      "duration": 0.273,
      "velocity": 1,
      "hand": "left"
    },
    {
      "midi": 42,
      "time": 32.727,
      "duration": 0.068,
      "velocity": 0.71,
      "hand": "left"
    },
    {
      "midi": 60,
      "time": 32.727,
      "duration": 0.53,
      "velocity": 0.9,
      "hand": "right"
    },
    {
      "midi": 62,
      "time": 32.727,
      "duration": 0.136,
      "velocity": 0.78,
      "hand": "right"
    },
    {
      "midi": 64,
      "time": 32.727,
      "duration": 0.121,
      "velocity": 1,
      "hand": "right"
    },
    {
      "midi": 74,
      "time": 32.727,
      "duration": 0.136,
      "velocity": 0.78,
      "hand": "right"
    },
    {
      "midi": 52,
      "time": 32.863,
      "duration": 0.273,
      "velocity": 0.74,
      "hand": "left"
    },
    {
      "midi": 64,
      "time": 32.863,
      "duration": 0.273,
      "velocity": 0.74,
      "hand": "right"
    },
    {
      "midi": 76,
      "time": 32.863,
      "duration": 0.273,
      "velocity": 0.74,
      "hand": "right"
    },
    {
      "midi": 42,
      "time": 33,
      "duration": 0.257,
      "velocity": 0.95,
      "hand": "left"
    },
    {
      "midi": 46,
      "time": 33,
      "duration": 0.068,
      "velocity": 0.64,
      "hand": "left"
    },
    {
      "midi": 38,
      "time": 33.136,
      "duration": 0.068,
      "velocity": 0.55,
      "hand": "left"
    },
    {
      "midi": 40,
      "time": 33.136,
      "duration": 0.068,
      "velocity": 0.64,
      "hand": "left"
    },
    {
      "midi": 36,
      "time": 33.272,
      "duration": 0.068,
      "velocity": 0.8,
      "hand": "left"
    },
    {
      "midi": 38,
      "time": 33.272,
      "duration": 0.258,
      "velocity": 0.87,
      "hand": "left"
    },
    {
      "midi": 60,
      "time": 33.272,
      "duration": 0.122,
      "velocity": 0.58,
      "hand": "right"
    },
    {
      "midi": 62,
      "time": 33.272,
      "duration": 0.273,
      "velocity": 0.75,
      "hand": "right"
    },
    {
      "midi": 74,
      "time": 33.272,
      "duration": 0.273,
      "velocity": 0.75,
      "hand": "right"
    },
    {
      "midi": 48,
      "time": 33.409,
      "duration": 0.136,
      "velocity": 0.76,
      "hand": "left"
    },
    {
      "midi": 60,
      "time": 33.409,
      "duration": 0.121,
      "velocity": 0.76,
      "hand": "right"
    },
    {
      "midi": 72,
      "time": 33.409,
      "duration": 0.136,
      "velocity": 0.76,
      "hand": "right"
    },
    {
      "midi": 38,
      "time": 33.545,
      "duration": 0.068,
      "velocity": 0.55,
      "hand": "left"
    },
    {
      "midi": 40,
      "time": 33.545,
      "duration": 0.068,
      "velocity": 0.64,
      "hand": "left"
    },
    {
      "midi": 60,
      "time": 33.545,
      "duration": 0.122,
      "velocity": 0.86,
      "hand": "right"
    },
    {
      "midi": 57,
      "time": 33.682,
      "duration": 0.121,
      "velocity": 0.81,
      "hand": "left"
    },
    {
      "midi": 60,
      "time": 33.682,
      "duration": 0.121,
      "velocity": 0.57,
      "hand": "right"
    },
    {
      "midi": 38,
      "time": 33.818,
      "duration": 0.068,
      "velocity": 0.55,
      "hand": "left"
    },
    {
      "midi": 41,
      "time": 33.818,
      "duration": 0.53,
      "velocity": 0.8,
      "hand": "left"
    },
    {
      "midi": 65,
      "time": 33.818,
      "duration": 0.955,
      "velocity": 0.65,
      "hand": "right"
    },
    {
      "midi": 67,
      "time": 33.818,
      "duration": 0.818,
      "velocity": 0.95,
      "hand": "right"
    },
    {
      "midi": 69,
      "time": 33.818,
      "duration": 0.258,
      "velocity": 0.87,
      "hand": "right"
    },
    {
      "midi": 38,
      "time": 34.091,
      "duration": 0.068,
      "velocity": 0.55,
      "hand": "left"
    },
    {
      "midi": 40,
      "time": 34.091,
      "duration": 0.068,
      "velocity": 0.65,
      "hand": "left"
    },
    {
      "midi": 64,
      "time": 34.091,
      "duration": 0.121,
      "velocity": 1,
      "hand": "right"
    },
    {
      "midi": 69,
      "time": 34.091,
      "duration": 0.257,
      "velocity": 0.81,
      "hand": "right"
    },
    {
      "midi": 53,
      "time": 34.227,
      "duration": 0.068,
      "velocity": 0.56,
      "hand": "left"
    },
    {
      "midi": 57,
      "time": 34.227,
      "duration": 0.068,
      "velocity": 0.61,
      "hand": "left"
    },
    {
      "midi": 60,
      "time": 34.227,
      "duration": 0.068,
      "velocity": 0.63,
      "hand": "right"
    },
    {
      "midi": 64,
      "time": 34.227,
      "duration": 0.068,
      "velocity": 0.52,
      "hand": "right"
    },
    {
      "midi": 36,
      "time": 34.363,
      "duration": 0.068,
      "velocity": 0.76,
      "hand": "left"
    },
    {
      "midi": 38,
      "time": 34.363,
      "duration": 0.068,
      "velocity": 0.55,
      "hand": "left"
    },
    {
      "midi": 60,
      "time": 34.363,
      "duration": 0.258,
      "velocity": 0.91,
      "hand": "right"
    },
    {
      "midi": 64,
      "time": 34.363,
      "duration": 0.258,
      "velocity": 0.52,
      "hand": "right"
    },
    {
      "midi": 69,
      "time": 34.363,
      "duration": 0.409,
      "velocity": 0.87,
      "hand": "right"
    },
    {
      "midi": 72,
      "time": 34.363,
      "duration": 0.136,
      "velocity": 0.91,
      "hand": "right"
    },
    {
      "midi": 38,
      "time": 34.5,
      "duration": 0.068,
      "velocity": 0.55,
      "hand": "left"
    },
    {
      "midi": 40,
      "time": 34.5,
      "duration": 0.068,
      "velocity": 0.72,
      "hand": "left"
    },
    {
      "midi": 36,
      "time": 34.636,
      "duration": 0.273,
      "velocity": 0.8,
      "hand": "left"
    },
    {
      "midi": 38,
      "time": 34.636,
      "duration": 0.068,
      "velocity": 0.55,
      "hand": "left"
    },
    {
      "midi": 60,
      "time": 34.636,
      "duration": 0.136,
      "velocity": 0.61,
      "hand": "right"
    },
    {
      "midi": 64,
      "time": 34.636,
      "duration": 0.273,
      "velocity": 0.76,
      "hand": "right"
    },
    {
      "midi": 76,
      "time": 34.636,
      "duration": 0.273,
      "velocity": 0.76,
      "hand": "right"
    },
    {
      "midi": 38,
      "time": 34.772,
      "duration": 0.068,
      "velocity": 0.55,
      "hand": "left"
    },
    {
      "midi": 38,
      "time": 34.909,
      "duration": 0.068,
      "velocity": 0.55,
      "hand": "left"
    },
    {
      "midi": 40,
      "time": 34.909,
      "duration": 0.068,
      "velocity": 0.64,
      "hand": "left"
    },
    {
      "midi": 65,
      "time": 34.909,
      "duration": 0.818,
      "velocity": 0.51,
      "hand": "right"
    },
    {
      "midi": 67,
      "time": 34.909,
      "duration": 0.818,
      "velocity": 0.84,
      "hand": "right"
    },
    {
      "midi": 69,
      "time": 34.909,
      "duration": 0.409,
      "velocity": 0.88,
      "hand": "right"
    },
    {
      "midi": 77,
      "time": 34.909,
      "duration": 0.682,
      "velocity": 0.74,
      "hand": "right"
    },
    {
      "midi": 46,
      "time": 35.182,
      "duration": 0.068,
      "velocity": 0.64,
      "hand": "left"
    },
    {
      "midi": 53,
      "time": 35.182,
      "duration": 0.068,
      "velocity": 0.56,
      "hand": "left"
    },
    {
      "midi": 60,
      "time": 35.182,
      "duration": 0.068,
      "velocity": 0.56,
      "hand": "right"
    },
    {
      "midi": 63,
      "time": 35.182,
      "duration": 0.136,
      "velocity": 0.54,
      "hand": "right"
    },
    {
      "midi": 38,
      "time": 35.318,
      "duration": 0.068,
      "velocity": 0.55,
      "hand": "left"
    },
    {
      "midi": 40,
      "time": 35.318,
      "duration": 0.068,
      "velocity": 0.62,
      "hand": "left"
    },
    {
      "midi": 36,
      "time": 35.454,
      "duration": 0.068,
      "velocity": 0.8,
      "hand": "left"
    },
    {
      "midi": 38,
      "time": 35.454,
      "duration": 0.068,
      "velocity": 0.55,
      "hand": "left"
    },
    {
      "midi": 60,
      "time": 35.454,
      "duration": 0.273,
      "velocity": 0.74,
      "hand": "right"
    },
    {
      "midi": 63,
      "time": 35.454,
      "duration": 0.273,
      "velocity": 0.61,
      "hand": "right"
    },
    {
      "midi": 71,
      "time": 35.454,
      "duration": 0.273,
      "velocity": 0.72,
      "hand": "right"
    },
    {
      "midi": 52,
      "time": 35.591,
      "duration": 0.136,
      "velocity": 0.58,
      "hand": "left"
    },
    {
      "midi": 64,
      "time": 35.591,
      "duration": 0.136,
      "velocity": 0.58,
      "hand": "right"
    },
    {
      "midi": 76,
      "time": 35.591,
      "duration": 0.136,
      "velocity": 0.58,
      "hand": "right"
    },
    {
      "midi": 38,
      "time": 35.727,
      "duration": 0.068,
      "velocity": 0.55,
      "hand": "left"
    },
    {
      "midi": 40,
      "time": 35.727,
      "duration": 0.068,
      "velocity": 0.63,
      "hand": "left"
    },
    {
      "midi": 62,
      "time": 35.727,
      "duration": 0.136,
      "velocity": 0.65,
      "hand": "right"
    },
    {
      "midi": 69,
      "time": 35.727,
      "duration": 0.258,
      "velocity": 0.71,
      "hand": "right"
    },
    {
      "midi": 74,
      "time": 35.727,
      "duration": 0.136,
      "velocity": 0.65,
      "hand": "right"
    },
    {
      "midi": 48,
      "time": 35.863,
      "duration": 0.136,
      "velocity": 0.68,
      "hand": "left"
    },
    {
      "midi": 60,
      "time": 35.863,
      "duration": 0.136,
      "velocity": 0.68,
      "hand": "right"
    },
    {
      "midi": 72,
      "time": 35.863,
      "duration": 0.136,
      "velocity": 0.68,
      "hand": "right"
    },
    {
      "midi": 38,
      "time": 36,
      "duration": 0.068,
      "velocity": 0.55,
      "hand": "left"
    },
    {
      "midi": 40,
      "time": 36,
      "duration": 0.257,
      "velocity": 0.94,
      "hand": "left"
    },
    {
      "midi": 67,
      "time": 36,
      "duration": 0.53,
      "velocity": 0.92,
      "hand": "right"
    },
    {
      "midi": 69,
      "time": 36,
      "duration": 0.257,
      "velocity": 0.86,
      "hand": "right"
    },
    {
      "midi": 74,
      "time": 36,
      "duration": 0.682,
      "velocity": 0.73,
      "hand": "right"
    },
    {
      "midi": 38,
      "time": 36.272,
      "duration": 0.068,
      "velocity": 0.55,
      "hand": "left"
    },
    {
      "midi": 40,
      "time": 36.272,
      "duration": 0.068,
      "velocity": 0.71,
      "hand": "left"
    },
    {
      "midi": 62,
      "time": 36.272,
      "duration": 0.068,
      "velocity": 0.72,
      "hand": "right"
    },
    {
      "midi": 66,
      "time": 36.272,
      "duration": 0.068,
      "velocity": 0.61,
      "hand": "right"
    },
    {
      "midi": 69,
      "time": 36.272,
      "duration": 0.068,
      "velocity": 0.53,
      "hand": "right"
    },
    {
      "midi": 55,
      "time": 36.409,
      "duration": 0.068,
      "velocity": 0.63,
      "hand": "left"
    },
    {
      "midi": 59,
      "time": 36.409,
      "duration": 0.068,
      "velocity": 0.65,
      "hand": "left"
    },
    {
      "midi": 62,
      "time": 36.409,
      "duration": 0.068,
      "velocity": 0.63,
      "hand": "right"
    },
    {
      "midi": 66,
      "time": 36.409,
      "duration": 0.068,
      "velocity": 0.52,
      "hand": "right"
    },
    {
      "midi": 36,
      "time": 36.545,
      "duration": 0.068,
      "velocity": 0.76,
      "hand": "left"
    },
    {
      "midi": 38,
      "time": 36.545,
      "duration": 0.068,
      "velocity": 0.55,
      "hand": "left"
    },
    {
      "midi": 62,
      "time": 36.545,
      "duration": 0.258,
      "velocity": 0.86,
      "hand": "right"
    },
    {
      "midi": 67,
      "time": 36.545,
      "duration": 0.409,
      "velocity": 0.8,
      "hand": "right"
    },
    {
      "midi": 69,
      "time": 36.545,
      "duration": 0.258,
      "velocity": 0.87,
      "hand": "right"
    },
    {
      "midi": 38,
      "time": 36.682,
      "duration": 0.068,
      "velocity": 0.55,
      "hand": "left"
    },
    {
      "midi": 40,
      "time": 36.682,
      "duration": 0.068,
      "velocity": 0.65,
      "hand": "left"
    },
    {
      "midi": 38,
      "time": 36.818,
      "duration": 0.068,
      "velocity": 0.55,
      "hand": "left"
    },
    {
      "midi": 40,
      "time": 36.818,
      "duration": 0.258,
      "velocity": 0.83,
      "hand": "left"
    },
    {
      "midi": 62,
      "time": 36.818,
      "duration": 0.136,
      "velocity": 0.61,
      "hand": "right"
    },
    {
      "midi": 66,
      "time": 36.818,
      "duration": 0.136,
      "velocity": 0.54,
      "hand": "right"
    },
    {
      "midi": 69,
      "time": 36.818,
      "duration": 0.068,
      "velocity": 0.56,
      "hand": "right"
    },
    {
      "midi": 38,
      "time": 36.954,
      "duration": 0.068,
      "velocity": 0.55,
      "hand": "left"
    },
    {
      "midi": 39,
      "time": 37.091,
      "duration": 0.545,
      "velocity": 0.85,
      "hand": "left"
    },
    {
      "midi": 65,
      "time": 37.091,
      "duration": 0.257,
      "velocity": 0.59,
      "hand": "right"
    },
    {
      "midi": 68,
      "time": 37.091,
      "duration": 0.53,
      "velocity": 0.97,
      "hand": "right"
    },
    {
      "midi": 46,
      "time": 37.363,
      "duration": 0.068,
      "velocity": 0.64,
      "hand": "left"
    },
    {
      "midi": 54,
      "time": 37.363,
      "duration": 0.068,
      "velocity": 0.72,
      "hand": "left"
    },
    {
      "midi": 61,
      "time": 37.363,
      "duration": 0.068,
      "velocity": 0.63,
      "hand": "right"
    },
    {
      "midi": 65,
      "time": 37.363,
      "duration": 0.068,
      "velocity": 0.54,
      "hand": "right"
    },
    {
      "midi": 38,
      "time": 37.5,
      "duration": 0.068,
      "velocity": 0.55,
      "hand": "left"
    },
    {
      "midi": 40,
      "time": 37.5,
      "duration": 0.068,
      "velocity": 0.8,
      "hand": "left"
    },
    {
      "midi": 36,
      "time": 37.636,
      "duration": 0.068,
      "velocity": 0.61,
      "hand": "left"
    },
    {
      "midi": 38,
      "time": 37.636,
      "duration": 0.068,
      "velocity": 0.55,
      "hand": "left"
    },
    {
      "midi": 61,
      "time": 37.636,
      "duration": 0.258,
      "velocity": 0.83,
      "hand": "right"
    },
    {
      "midi": 65,
      "time": 37.636,
      "duration": 0.068,
      "velocity": 0.7,
      "hand": "right"
    },
    {
      "midi": 68,
      "time": 37.636,
      "duration": 0.409,
      "velocity": 0.59,
      "hand": "right"
    },
    {
      "midi": 52,
      "time": 37.772,
      "duration": 0.136,
      "velocity": 0.73,
      "hand": "left"
    },
    {
      "midi": 64,
      "time": 37.772,
      "duration": 0.136,
      "velocity": 0.73,
      "hand": "right"
    },
    {
      "midi": 76,
      "time": 37.772,
      "duration": 0.136,
      "velocity": 0.73,
      "hand": "right"
    },
    {
      "midi": 39,
      "time": 37.909,
      "duration": 0.273,
      "velocity": 0.76,
      "hand": "left"
    },
    {
      "midi": 62,
      "time": 37.909,
      "duration": 0.136,
      "velocity": 0.72,
      "hand": "right"
    },
    {
      "midi": 65,
      "time": 37.909,
      "duration": 0.258,
      "velocity": 0.84,
      "hand": "right"
    },
    {
      "midi": 74,
      "time": 37.909,
      "duration": 0.136,
      "velocity": 0.72,
      "hand": "right"
    },
    {
      "midi": 48,
      "time": 38.045,
      "duration": 0.136,
      "velocity": 0.57,
      "hand": "left"
    },
    {
      "midi": 60,
      "time": 38.045,
      "duration": 0.122,
      "velocity": 0.57,
      "hand": "right"
    },
    {
      "midi": 72,
      "time": 38.045,
      "duration": 0.136,
      "velocity": 0.57,
      "hand": "right"
    },
    {
      "midi": 38,
      "time": 38.182,
      "duration": 0.394,
      "velocity": 0.87,
      "hand": "left"
    },
    {
      "midi": 42,
      "time": 38.182,
      "duration": 0.068,
      "velocity": 0.71,
      "hand": "left"
    },
    {
      "midi": 65,
      "time": 38.182,
      "duration": 0.682,
      "velocity": 1,
      "hand": "right"
    },
    {
      "midi": 67,
      "time": 38.182,
      "duration": 0.53,
      "velocity": 0.82,
      "hand": "right"
    },
    {
      "midi": 69,
      "time": 38.182,
      "duration": 0.682,
      "velocity": 0.97,
      "hand": "right"
    },
    {
      "midi": 74,
      "time": 38.182,
      "duration": 0.545,
      "velocity": 0.83,
      "hand": "right"
    },
    {
      "midi": 46,
      "time": 38.454,
      "duration": 0.068,
      "velocity": 0.64,
      "hand": "left"
    },
    {
      "midi": 54,
      "time": 38.454,
      "duration": 0.068,
      "velocity": 0.61,
      "hand": "left"
    },
    {
      "midi": 38,
      "time": 38.591,
      "duration": 0.068,
      "velocity": 0.55,
      "hand": "left"
    },
    {
      "midi": 40,
      "time": 38.591,
      "duration": 0.068,
      "velocity": 0.64,
      "hand": "left"
    },
    {
      "midi": 60,
      "time": 38.591,
      "duration": 0.068,
      "velocity": 0.59,
      "hand": "right"
    },
    {
      "midi": 64,
      "time": 38.591,
      "duration": 0.068,
      "velocity": 0.56,
      "hand": "right"
    },
    {
      "midi": 36,
      "time": 38.727,
      "duration": 0.068,
      "velocity": 0.8,
      "hand": "left"
    },
    {
      "midi": 38,
      "time": 38.727,
      "duration": 0.068,
      "velocity": 0.55,
      "hand": "left"
    },
    {
      "midi": 60,
      "time": 38.727,
      "duration": 0.136,
      "velocity": 0.87,
      "hand": "right"
    },
    {
      "midi": 64,
      "time": 38.727,
      "duration": 0.258,
      "velocity": 0.73,
      "hand": "right"
    },
    {
      "midi": 67,
      "time": 38.727,
      "duration": 0.136,
      "velocity": 0.8,
      "hand": "right"
    },
    {
      "midi": 76,
      "time": 38.727,
      "duration": 0.273,
      "velocity": 0.73,
      "hand": "right"
    },
    {
      "midi": 38,
      "time": 39,
      "duration": 0.257,
      "velocity": 0.8,
      "hand": "left"
    },
    {
      "midi": 40,
      "time": 39,
      "duration": 0.068,
      "velocity": 0.64,
      "hand": "left"
    },
    {
      "midi": 65,
      "time": 39,
      "duration": 0.136,
      "velocity": 0.72,
      "hand": "right"
    },
    {
      "midi": 67,
      "time": 39,
      "duration": 0.068,
      "velocity": 0.55,
      "hand": "right"
    },
    {
      "midi": 74,
      "time": 39,
      "duration": 0.136,
      "velocity": 0.7,
      "hand": "right"
    },
    {
      "midi": 38,
      "time": 39.272,
      "duration": 0.068,
      "velocity": 0.55,
      "hand": "left"
    },
    {
      "midi": 65,
      "time": 39.272,
      "duration": 0.258,
      "velocity": 0.95,
      "hand": "right"
    },
    {
      "midi": 68,
      "time": 39.272,
      "duration": 0.122,
      "velocity": 0.87,
      "hand": "right"
    },
    {
      "midi": 71,
      "time": 39.272,
      "duration": 0.395,
      "velocity": 0.94,
      "hand": "right"
    },
    {
      "midi": 44,
      "time": 39.409,
      "duration": 0.136,
      "velocity": 0.59,
      "hand": "left"
    },
    {
      "midi": 56,
      "time": 39.409,
      "duration": 0.136,
      "velocity": 0.59,
      "hand": "left"
    },
    {
      "midi": 68,
      "time": 39.409,
      "duration": 0.136,
      "velocity": 0.59,
      "hand": "right"
    },
    {
      "midi": 38,
      "time": 39.545,
      "duration": 0.068,
      "velocity": 0.55,
      "hand": "left"
    },
    {
      "midi": 40,
      "time": 39.545,
      "duration": 0.068,
      "velocity": 0.65,
      "hand": "left"
    },
    {
      "midi": 65,
      "time": 39.545,
      "duration": 0.136,
      "velocity": 0.69,
      "hand": "right"
    },
    {
      "midi": 69,
      "time": 39.545,
      "duration": 0.136,
      "velocity": 0.64,
      "hand": "right"
    },
    {
      "midi": 47,
      "time": 39.682,
      "duration": 0.121,
      "velocity": 0.51,
      "hand": "left"
    },
    {
      "midi": 71,
      "time": 39.682,
      "duration": 0.136,
      "velocity": 0.51,
      "hand": "right"
    },
    {
      "midi": 36,
      "time": 39.818,
      "duration": 0.068,
      "velocity": 0.76,
      "hand": "left"
    },
    {
      "midi": 38,
      "time": 39.818,
      "duration": 0.068,
      "velocity": 0.55,
      "hand": "left"
    },
    {
      "midi": 64,
      "time": 39.818,
      "duration": 0.136,
      "velocity": 0.81,
      "hand": "right"
    },
    {
      "midi": 67,
      "time": 39.818,
      "duration": 0.136,
      "velocity": 0.59,
      "hand": "right"
    },
    {
      "midi": 38,
      "time": 39.954,
      "duration": 0.068,
      "velocity": 0.55,
      "hand": "left"
    },
    {
      "midi": 40,
      "time": 39.954,
      "duration": 0.068,
      "velocity": 0.72,
      "hand": "left"
    },
    {
      "midi": 60,
      "time": 39.954,
      "duration": 0.136,
      "velocity": 0.68,
      "hand": "right"
    },
    {
      "midi": 72,
      "time": 39.954,
      "duration": 0.136,
      "velocity": 0.68,
      "hand": "right"
    },
    {
      "midi": 38,
      "time": 40.091,
      "duration": 0.068,
      "velocity": 0.55,
      "hand": "left"
    },
    {
      "midi": 61,
      "time": 40.091,
      "duration": 0.136,
      "velocity": 0.59,
      "hand": "right"
    },
    {
      "midi": 63,
      "time": 40.091,
      "duration": 0.068,
      "velocity": 0.4,
      "hand": "right"
    },
    {
      "midi": 73,
      "time": 40.091,
      "duration": 0.136,
      "velocity": 0.59,
      "hand": "right"
    },
    {
      "midi": 38,
      "time": 40.227,
      "duration": 0.068,
      "velocity": 0.55,
      "hand": "left"
    },
    {
      "midi": 50,
      "time": 40.227,
      "duration": 0.136,
      "velocity": 0.53,
      "hand": "left"
    },
    {
      "midi": 62,
      "time": 40.227,
      "duration": 0.121,
      "velocity": 0.53,
      "hand": "right"
    },
    {
      "midi": 74,
      "time": 40.227,
      "duration": 0.136,
      "velocity": 0.53,
      "hand": "right"
    },
    {
      "midi": 36,
      "time": 40.363,
      "duration": 0.531,
      "velocity": 0.95,
      "hand": "left"
    },
    {
      "midi": 38,
      "time": 40.363,
      "duration": 0.068,
      "velocity": 0.55,
      "hand": "left"
    },
    {
      "midi": 67,
      "time": 40.363,
      "duration": 0.531,
      "velocity": 0.94,
      "hand": "right"
    },
    {
      "midi": 69,
      "time": 40.363,
      "duration": 1.909,
      "velocity": 0.94,
      "hand": "right"
    },
    {
      "midi": 72,
      "time": 40.363,
      "duration": 1.909,
      "velocity": 0.93,
      "hand": "right"
    },
    {
      "midi": 76,
      "time": 40.363,
      "duration": 0.682,
      "velocity": 0.68,
      "hand": "right"
    },
    {
      "midi": 46,
      "time": 40.636,
      "duration": 0.068,
      "velocity": 0.64,
      "hand": "left"
    },
    {
      "midi": 54,
      "time": 40.636,
      "duration": 0.068,
      "velocity": 0.54,
      "hand": "left"
    },
    {
      "midi": 38,
      "time": 40.772,
      "duration": 0.068,
      "velocity": 0.55,
      "hand": "left"
    },
    {
      "midi": 40,
      "time": 40.772,
      "duration": 0.068,
      "velocity": 0.62,
      "hand": "left"
    },
    {
      "midi": 36,
      "time": 40.909,
      "duration": 0.068,
      "velocity": 0.8,
      "hand": "left"
    },
    {
      "midi": 38,
      "time": 40.909,
      "duration": 0.068,
      "velocity": 0.55,
      "hand": "left"
    },
    {
      "midi": 62,
      "time": 40.909,
      "duration": 0.409,
      "velocity": 0.72,
      "hand": "right"
    },
    {
      "midi": 67,
      "time": 40.909,
      "duration": 0.803,
      "velocity": 0.57,
      "hand": "right"
    },
    {
      "midi": 74,
      "time": 40.909,
      "duration": 1.091,
      "velocity": 0.72,
      "hand": "right"
    },
    {
      "midi": 79,
      "time": 40.909,
      "duration": 1.091,
      "velocity": 0.9,
      "hand": "right"
    },
    {
      "midi": 38,
      "time": 41.182,
      "duration": 0.068,
      "velocity": 0.55,
      "hand": "left"
    },
    {
      "midi": 40,
      "time": 41.182,
      "duration": 0.068,
      "velocity": 0.63,
      "hand": "left"
    },
    {
      "midi": 36,
      "time": 41.454,
      "duration": 0.136,
      "velocity": 0.95,
      "hand": "left"
    },
    {
      "midi": 38,
      "time": 41.454,
      "duration": 0.068,
      "velocity": 0.55,
      "hand": "left"
    },
    {
      "midi": 36,
      "time": 41.727,
      "duration": 0.068,
      "velocity": 0.67,
      "hand": "left"
    },
    {
      "midi": 38,
      "time": 41.727,
      "duration": 0.068,
      "velocity": 0.55,
      "hand": "left"
    },
    {
      "midi": 71,
      "time": 41.727,
      "duration": 0.136,
      "velocity": 0.68,
      "hand": "right"
    },
    {
      "midi": 77,
      "time": 41.727,
      "duration": 0.136,
      "velocity": 0.76,
      "hand": "right"
    },
    {
      "midi": 82,
      "time": 41.727,
      "duration": 0.136,
      "velocity": 0.72,
      "hand": "right"
    },
    {
      "midi": 36,
      "time": 42,
      "duration": 0.068,
      "velocity": 0.65,
      "hand": "left"
    },
    {
      "midi": 38,
      "time": 42,
      "duration": 0.068,
      "velocity": 0.55,
      "hand": "left"
    },
    {
      "midi": 43,
      "time": 42.272,
      "duration": 0.273,
      "velocity": 0.95,
      "hand": "left"
    },
    {
      "midi": 53,
      "time": 42.272,
      "duration": 0.136,
      "velocity": 0.74,
      "hand": "left"
    },
    {
      "midi": 71,
      "time": 42.272,
      "duration": 0.273,
      "velocity": 0.56,
      "hand": "right"
    },
    {
      "midi": 77,
      "time": 42.272,
      "duration": 0.136,
      "velocity": 0.72,
      "hand": "right"
    },
    {
      "midi": 82,
      "time": 42.272,
      "duration": 0.136,
      "velocity": 0.57,
      "hand": "right"
    },
    {
      "midi": 60,
      "time": 42.409,
      "duration": 0.068,
      "velocity": 0.92,
      "hand": "right"
    },
    {
      "midi": 47,
      "time": 42.545,
      "duration": 0.068,
      "velocity": 0.56,
      "hand": "left"
    },
    {
      "midi": 57,
      "time": 42.545,
      "duration": 0.068,
      "velocity": 0.64,
      "hand": "left"
    },
    {
      "midi": 67,
      "time": 42.545,
      "duration": 0.258,
      "velocity": 0.9,
      "hand": "right"
    },
    {
      "midi": 36,
      "time": 42.818,
      "duration": 0.068,
      "velocity": 0.67,
      "hand": "left"
    },
    {
      "midi": 38,
      "time": 42.818,
      "duration": 0.068,
      "velocity": 0.55,
      "hand": "left"
    },
    {
      "midi": 71,
      "time": 42.818,
      "duration": 0.136,
      "velocity": 0.68,
      "hand": "right"
    },
    {
      "midi": 77,
      "time": 42.818,
      "duration": 0.136,
      "velocity": 0.76,
      "hand": "right"
    },
    {
      "midi": 82,
      "time": 42.818,
      "duration": 0.136,
      "velocity": 0.68,
      "hand": "right"
    },
    {
      "midi": 36,
      "time": 43.091,
      "duration": 0.068,
      "velocity": 0.67,
      "hand": "left"
    },
    {
      "midi": 38,
      "time": 43.091,
      "duration": 0.068,
      "velocity": 0.55,
      "hand": "left"
    },
    {
      "midi": 43,
      "time": 43.363,
      "duration": 0.136,
      "velocity": 0.95,
      "hand": "left"
    },
    {
      "midi": 53,
      "time": 43.363,
      "duration": 0.068,
      "velocity": 0.76,
      "hand": "left"
    },
    {
      "midi": 71,
      "time": 43.363,
      "duration": 0.136,
      "velocity": 0.69,
      "hand": "right"
    },
    {
      "midi": 77,
      "time": 43.363,
      "duration": 0.136,
      "velocity": 0.76,
      "hand": "right"
    },
    {
      "midi": 82,
      "time": 43.363,
      "duration": 0.136,
      "velocity": 0.68,
      "hand": "right"
    },
    {
      "midi": 39,
      "time": 43.636,
      "duration": 0.068,
      "velocity": 0.65,
      "hand": "left"
    },
    {
      "midi": 62,
      "time": 43.636,
      "duration": 0.068,
      "velocity": 0.7,
      "hand": "right"
    },
    {
      "midi": 64,
      "time": 43.636,
      "duration": 0.273,
      "velocity": 0.74,
      "hand": "right"
    },
    {
      "midi": 67,
      "time": 43.636,
      "duration": 0.136,
      "velocity": 0.56,
      "hand": "right"
    },
    {
      "midi": 39,
      "time": 43.909,
      "duration": 0.068,
      "velocity": 0.67,
      "hand": "left"
    },
    {
      "midi": 71,
      "time": 43.909,
      "duration": 0.273,
      "velocity": 0.79,
      "hand": "right"
    },
    {
      "midi": 77,
      "time": 43.909,
      "duration": 0.273,
      "velocity": 0.79,
      "hand": "right"
    },
    {
      "midi": 82,
      "time": 43.909,
      "duration": 0.273,
      "velocity": 0.79,
      "hand": "right"
    },
    {
      "midi": 57,
      "time": 44.045,
      "duration": 0.068,
      "velocity": 0.61,
      "hand": "left"
    },
    {
      "midi": 62,
      "time": 44.045,
      "duration": 0.068,
      "velocity": 0.72,
      "hand": "right"
    },
    {
      "midi": 67,
      "time": 44.045,
      "duration": 0.136,
      "velocity": 0.55,
      "hand": "right"
    },
    {
      "midi": 36,
      "time": 44.182,
      "duration": 0.068,
      "velocity": 0.64,
      "hand": "left"
    },
    {
      "midi": 38,
      "time": 44.182,
      "duration": 0.068,
      "velocity": 0.55,
      "hand": "left"
    },
    {
      "midi": 64,
      "time": 44.182,
      "duration": 0.273,
      "velocity": 0.9,
      "hand": "right"
    },
    {
      "midi": 45,
      "time": 44.318,
      "duration": 0.068,
      "velocity": 0.6,
      "hand": "left"
    },
    {
      "midi": 36,
      "time": 44.454,
      "duration": 0.068,
      "velocity": 0.57,
      "hand": "left"
    },
    {
      "midi": 41,
      "time": 44.454,
      "duration": 0.068,
      "velocity": 0.75,
      "hand": "left"
    },
    {
      "midi": 62,
      "time": 44.454,
      "duration": 0.122,
      "velocity": 0.73,
      "hand": "right"
    },
    {
      "midi": 65,
      "time": 44.454,
      "duration": 0.136,
      "velocity": 0.74,
      "hand": "right"
    },
    {
      "midi": 67,
      "time": 44.454,
      "duration": 0.136,
      "velocity": 0.64,
      "hand": "right"
    },
    {
      "midi": 70,
      "time": 44.454,
      "duration": 0.136,
      "velocity": 0.87,
      "hand": "right"
    },
    {
      "midi": 62,
      "time": 44.591,
      "duration": 0.121,
      "velocity": 0.68,
      "hand": "right"
    },
    {
      "midi": 38,
      "time": 44.727,
      "duration": 0.068,
      "velocity": 0.55,
      "hand": "left"
    },
    {
      "midi": 40,
      "time": 44.727,
      "duration": 0.258,
      "velocity": 0.95,
      "hand": "left"
    },
    {
      "midi": 62,
      "time": 44.727,
      "duration": 0.394,
      "velocity": 0.83,
      "hand": "right"
    },
    {
      "midi": 67,
      "time": 44.727,
      "duration": 0.409,
      "velocity": 0.81,
      "hand": "right"
    },
    {
      "midi": 69,
      "time": 44.727,
      "duration": 0.394,
      "velocity": 0.85,
      "hand": "right"
    },
    {
      "midi": 38,
      "time": 45,
      "duration": 0.068,
      "velocity": 0.55,
      "hand": "left"
    },
    {
      "midi": 40,
      "time": 45,
      "duration": 0.068,
      "velocity": 0.69,
      "hand": "left"
    },
    {
      "midi": 55,
      "time": 45.136,
      "duration": 0.068,
      "velocity": 0.55,
      "hand": "left"
    },
    {
      "midi": 59,
      "time": 45.136,
      "duration": 0.068,
      "velocity": 0.63,
      "hand": "left"
    },
    {
      "midi": 62,
      "time": 45.136,
      "duration": 0.068,
      "velocity": 0.73,
      "hand": "right"
    },
    {
      "midi": 66,
      "time": 45.136,
      "duration": 0.068,
      "velocity": 0.73,
      "hand": "right"
    },
    {
      "midi": 69,
      "time": 45.136,
      "duration": 0.068,
      "velocity": 0.56,
      "hand": "right"
    },
    {
      "midi": 36,
      "time": 45.272,
      "duration": 0.068,
      "velocity": 0.8,
      "hand": "left"
    },
    {
      "midi": 38,
      "time": 45.272,
      "duration": 0.068,
      "velocity": 0.55,
      "hand": "left"
    },
    {
      "midi": 62,
      "time": 45.272,
      "duration": 0.068,
      "velocity": 0.53,
      "hand": "right"
    },
    {
      "midi": 67,
      "time": 45.272,
      "duration": 0.273,
      "velocity": 0.79,
      "hand": "right"
    },
    {
      "midi": 38,
      "time": 45.409,
      "duration": 0.068,
      "velocity": 0.55,
      "hand": "left"
    },
    {
      "midi": 40,
      "time": 45.409,
      "duration": 0.068,
      "velocity": 0.62,
      "hand": "left"
    },
    {
      "midi": 38,
      "time": 45.545,
      "duration": 0.068,
      "velocity": 0.55,
      "hand": "left"
    },
    {
      "midi": 46,
      "time": 45.545,
      "duration": 0.068,
      "velocity": 0.64,
      "hand": "left"
    },
    {
      "midi": 62,
      "time": 45.545,
      "duration": 0.068,
      "velocity": 0.64,
      "hand": "right"
    },
    {
      "midi": 66,
      "time": 45.545,
      "duration": 0.068,
      "velocity": 0.52,
      "hand": "right"
    },
    {
      "midi": 38,
      "time": 45.682,
      "duration": 0.068,
      "velocity": 0.55,
      "hand": "left"
    },
    {
      "midi": 59,
      "time": 45.682,
      "duration": 0.121,
      "velocity": 0.69,
      "hand": "left"
    },
    {
      "midi": 62,
      "time": 45.682,
      "duration": 0.121,
      "velocity": 0.72,
      "hand": "right"
    },
    {
      "midi": 38,
      "time": 45.818,
      "duration": 0.068,
      "velocity": 0.55,
      "hand": "left"
    },
    {
      "midi": 40,
      "time": 45.818,
      "duration": 0.394,
      "velocity": 0.91,
      "hand": "left"
    },
    {
      "midi": 62,
      "time": 45.818,
      "duration": 0.258,
      "velocity": 0.75,
      "hand": "right"
    },
    {
      "midi": 67,
      "time": 45.818,
      "duration": 0.409,
      "velocity": 0.83,
      "hand": "right"
    },
    {
      "midi": 69,
      "time": 45.818,
      "duration": 0.53,
      "velocity": 0.87,
      "hand": "right"
    },
    {
      "midi": 46,
      "time": 46.091,
      "duration": 0.068,
      "velocity": 0.64,
      "hand": "left"
    },
    {
      "midi": 54,
      "time": 46.091,
      "duration": 0.068,
      "velocity": 0.61,
      "hand": "left"
    },
    {
      "midi": 62,
      "time": 46.091,
      "duration": 0.068,
      "velocity": 0.56,
      "hand": "right"
    },
    {
      "midi": 66,
      "time": 46.091,
      "duration": 0.257,
      "velocity": 1,
      "hand": "right"
    },
    {
      "midi": 38,
      "time": 46.227,
      "duration": 0.068,
      "velocity": 0.55,
      "hand": "left"
    },
    {
      "midi": 40,
      "time": 46.227,
      "duration": 0.068,
      "velocity": 0.73,
      "hand": "left"
    },
    {
      "midi": 36,
      "time": 46.363,
      "duration": 0.068,
      "velocity": 0.8,
      "hand": "left"
    },
    {
      "midi": 38,
      "time": 46.363,
      "duration": 0.068,
      "velocity": 0.55,
      "hand": "left"
    },
    {
      "midi": 62,
      "time": 46.363,
      "duration": 0.273,
      "velocity": 0.57,
      "hand": "right"
    },
    {
      "midi": 66,
      "time": 46.363,
      "duration": 0.273,
      "velocity": 0.52,
      "hand": "right"
    },
    {
      "midi": 69,
      "time": 46.363,
      "duration": 0.273,
      "velocity": 0.69,
      "hand": "right"
    },
    {
      "midi": 38,
      "time": 46.636,
      "duration": 0.068,
      "velocity": 0.55,
      "hand": "left"
    },
    {
      "midi": 40,
      "time": 46.636,
      "duration": 0.273,
      "velocity": 0.95,
      "hand": "left"
    },
    {
      "midi": 67,
      "time": 46.636,
      "duration": 0.258,
      "velocity": 0.68,
      "hand": "right"
    },
    {
      "midi": 38,
      "time": 46.909,
      "duration": 0.258,
      "velocity": 0.84,
      "hand": "left"
    },
    {
      "midi": 42,
      "time": 46.909,
      "duration": 0.068,
      "velocity": 0.71,
      "hand": "left"
    },
    {
      "midi": 62,
      "time": 46.909,
      "duration": 1.076,
      "velocity": 0.87,
      "hand": "right"
    },
    {
      "midi": 65,
      "time": 46.909,
      "duration": 0.53,
      "velocity": 0.75,
      "hand": "right"
    },
    {
      "midi": 67,
      "time": 46.909,
      "duration": 0.53,
      "velocity": 0.91,
      "hand": "right"
    },
    {
      "midi": 38,
      "time": 47.182,
      "duration": 0.068,
      "velocity": 0.55,
      "hand": "left"
    },
    {
      "midi": 40,
      "time": 47.182,
      "duration": 0.068,
      "velocity": 0.65,
      "hand": "left"
    },
    {
      "midi": 53,
      "time": 47.318,
      "duration": 0.068,
      "velocity": 0.57,
      "hand": "left"
    },
    {
      "midi": 57,
      "time": 47.318,
      "duration": 0.068,
      "velocity": 0.49,
      "hand": "left"
    },
    {
      "midi": 60,
      "time": 47.318,
      "duration": 0.068,
      "velocity": 0.68,
      "hand": "right"
    },
    {
      "midi": 64,
      "time": 47.318,
      "duration": 0.068,
      "velocity": 0.54,
      "hand": "right"
    },
    {
      "midi": 36,
      "time": 47.454,
      "duration": 0.068,
      "velocity": 0.8,
      "hand": "left"
    },
    {
      "midi": 38,
      "time": 47.454,
      "duration": 0.068,
      "velocity": 0.55,
      "hand": "left"
    },
    {
      "midi": 60,
      "time": 47.454,
      "duration": 0.258,
      "velocity": 0.83,
      "hand": "right"
    },
    {
      "midi": 65,
      "time": 47.454,
      "duration": 0.409,
      "velocity": 0.86,
      "hand": "right"
    },
    {
      "midi": 67,
      "time": 47.454,
      "duration": 0.273,
      "velocity": 0.77,
      "hand": "right"
    },
    {
      "midi": 38,
      "time": 47.591,
      "duration": 0.068,
      "velocity": 0.55,
      "hand": "left"
    },
    {
      "midi": 40,
      "time": 47.591,
      "duration": 0.068,
      "velocity": 0.76,
      "hand": "left"
    },
    {
      "midi": 38,
      "time": 47.727,
      "duration": 0.068,
      "velocity": 0.55,
      "hand": "left"
    },
    {
      "midi": 46,
      "time": 47.727,
      "duration": 0.068,
      "velocity": 0.64,
      "hand": "left"
    },
    {
      "midi": 60,
      "time": 47.727,
      "duration": 0.136,
      "velocity": 0.68,
      "hand": "right"
    },
    {
      "midi": 64,
      "time": 47.727,
      "duration": 0.136,
      "velocity": 0.57,
      "hand": "right"
    },
    {
      "midi": 38,
      "time": 47.863,
      "duration": 0.068,
      "velocity": 0.55,
      "hand": "left"
    },
    {
      "midi": 38,
      "time": 48,
      "duration": 0.394,
      "velocity": 0.94,
      "hand": "left"
    },
    {
      "midi": 40,
      "time": 48,
      "duration": 0.068,
      "velocity": 0.71,
      "hand": "left"
    },
    {
      "midi": 62,
      "time": 48,
      "duration": 0.53,
      "velocity": 0.86,
      "hand": "right"
    },
    {
      "midi": 65,
      "time": 48,
      "duration": 0.409,
      "velocity": 0.81,
      "hand": "right"
    },
    {
      "midi": 69,
      "time": 48,
      "duration": 0.53,
      "velocity": 1,
      "hand": "right"
    },
    {
      "midi": 46,
      "time": 48.272,
      "duration": 0.068,
      "velocity": 0.64,
      "hand": "left"
    },
    {
      "midi": 54,
      "time": 48.272,
      "duration": 0.068,
      "velocity": 0.61,
      "hand": "left"
    },
    {
      "midi": 38,
      "time": 48.409,
      "duration": 0.068,
      "velocity": 0.55,
      "hand": "left"
    },
    {
      "midi": 40,
      "time": 48.409,
      "duration": 0.068,
      "velocity": 0.67,
      "hand": "left"
    },
    {
      "midi": 61,
      "time": 48.409,
      "duration": 0.068,
      "velocity": 0.4,
      "hand": "right"
    },
    {
      "midi": 63,
      "time": 48.409,
      "duration": 0.273,
      "velocity": 0.56,
      "hand": "right"
    },
    {
      "midi": 36,
      "time": 48.545,
      "duration": 0.068,
      "velocity": 0.76,
      "hand": "left"
    },
    {
      "midi": 38,
      "time": 48.545,
      "duration": 0.068,
      "velocity": 0.55,
      "hand": "left"
    },
    {
      "midi": 62,
      "time": 48.545,
      "duration": 0.122,
      "velocity": 0.88,
      "hand": "right"
    },
    {
      "midi": 64,
      "time": 48.545,
      "duration": 0.273,
      "velocity": 0.56,
      "hand": "right"
    },
    {
      "midi": 67,
      "time": 48.545,
      "duration": 0.273,
      "velocity": 1,
      "hand": "right"
    },
    {
      "midi": 69,
      "time": 48.545,
      "duration": 0.273,
      "velocity": 0.87,
      "hand": "right"
    },
    {
      "midi": 53,
      "time": 48.682,
      "duration": 0.136,
      "velocity": 0.56,
      "hand": "left"
    },
    {
      "midi": 57,
      "time": 48.682,
      "duration": 0.136,
      "velocity": 0.53,
      "hand": "left"
    },
    {
      "midi": 62,
      "time": 48.682,
      "duration": 0.136,
      "velocity": 0.56,
      "hand": "right"
    },
    {
      "midi": 38,
      "time": 48.818,
      "duration": 0.068,
      "velocity": 0.55,
      "hand": "left"
    },
    {
      "midi": 40,
      "time": 48.818,
      "duration": 0.068,
      "velocity": 0.64,
      "hand": "left"
    },
    {
      "midi": 65,
      "time": 48.818,
      "duration": 0.258,
      "velocity": 0.75,
      "hand": "right"
    },
    {
      "midi": 38,
      "time": 49.091,
      "duration": 0.068,
      "velocity": 0.55,
      "hand": "left"
    },
    {
      "midi": 42,
      "time": 49.091,
      "duration": 0.068,
      "velocity": 0.71,
      "hand": "left"
    },
    {
      "midi": 60,
      "time": 49.091,
      "duration": 0.394,
      "velocity": 1,
      "hand": "right"
    },
    {
      "midi": 65,
      "time": 49.091,
      "duration": 0.53,
      "velocity": 0.99,
      "hand": "right"
    },
    {
      "midi": 40,
      "time": 49.227,
      "duration": 0.068,
      "velocity": 0.69,
      "hand": "left"
    },
    {
      "midi": 38,
      "time": 49.363,
      "duration": 0.068,
      "velocity": 0.55,
      "hand": "left"
    },
    {
      "midi": 46,
      "time": 49.363,
      "duration": 0.068,
      "velocity": 0.64,
      "hand": "left"
    },
    {
      "midi": 67,
      "time": 49.363,
      "duration": 0.273,
      "velocity": 0.85,
      "hand": "right"
    },
    {
      "midi": 53,
      "time": 49.5,
      "duration": 0.068,
      "velocity": 0.61,
      "hand": "left"
    },
    {
      "midi": 55,
      "time": 49.5,
      "duration": 0.068,
      "velocity": 0.72,
      "hand": "left"
    },
    {
      "midi": 60,
      "time": 49.5,
      "duration": 0.068,
      "velocity": 0.56,
      "hand": "right"
    },
    {
      "midi": 36,
      "time": 49.636,
      "duration": 0.068,
      "velocity": 0.76,
      "hand": "left"
    },
    {
      "midi": 38,
      "time": 49.636,
      "duration": 0.121,
      "velocity": 0.97,
      "hand": "left"
    },
    {
      "midi": 60,
      "time": 49.636,
      "duration": 0.258,
      "velocity": 0.91,
      "hand": "right"
    },
    {
      "midi": 65,
      "time": 49.636,
      "duration": 0.545,
      "velocity": 0.95,
      "hand": "right"
    },
    {
      "midi": 70,
      "time": 49.636,
      "duration": 0.273,
      "velocity": 0.85,
      "hand": "right"
    },
    {
      "midi": 38,
      "time": 49.772,
      "duration": 0.068,
      "velocity": 0.55,
      "hand": "left"
    },
    {
      "midi": 38,
      "time": 49.909,
      "duration": 0.068,
      "velocity": 0.55,
      "hand": "left"
    },
    {
      "midi": 43,
      "time": 49.909,
      "duration": 0.273,
      "velocity": 0.92,
      "hand": "left"
    },
    {
      "midi": 60,
      "time": 49.909,
      "duration": 0.136,
      "velocity": 0.61,
      "hand": "right"
    },
    {
      "midi": 72,
      "time": 49.909,
      "duration": 0.273,
      "velocity": 0.74,
      "hand": "right"
    },
    {
      "midi": 38,
      "time": 50.045,
      "duration": 0.068,
      "velocity": 0.55,
      "hand": "left"
    },
    {
      "midi": 38,
      "time": 50.182,
      "duration": 0.273,
      "velocity": 1,
      "hand": "left"
    },
    {
      "midi": 42,
      "time": 50.182,
      "duration": 0.068,
      "velocity": 0.71,
      "hand": "left"
    },
    {
      "midi": 60,
      "time": 50.182,
      "duration": 0.53,
      "velocity": 0.9,
      "hand": "right"
    },
    {
      "midi": 64,
      "time": 50.182,
      "duration": 0.955,
      "velocity": 0.95,
      "hand": "right"
    },
    {
      "midi": 76,
      "time": 50.182,
      "duration": 0.545,
      "velocity": 0.78,
      "hand": "right"
    },
    {
      "midi": 42,
      "time": 50.454,
      "duration": 0.258,
      "velocity": 0.95,
      "hand": "left"
    },
    {
      "midi": 46,
      "time": 50.454,
      "duration": 0.068,
      "velocity": 0.64,
      "hand": "left"
    },
    {
      "midi": 38,
      "time": 50.591,
      "duration": 0.068,
      "velocity": 0.55,
      "hand": "left"
    },
    {
      "midi": 40,
      "time": 50.591,
      "duration": 0.068,
      "velocity": 0.64,
      "hand": "left"
    },
    {
      "midi": 36,
      "time": 50.727,
      "duration": 0.068,
      "velocity": 0.8,
      "hand": "left"
    },
    {
      "midi": 38,
      "time": 50.727,
      "duration": 0.258,
      "velocity": 0.87,
      "hand": "left"
    },
    {
      "midi": 60,
      "time": 50.727,
      "duration": 0.136,
      "velocity": 0.58,
      "hand": "right"
    },
    {
      "midi": 79,
      "time": 50.727,
      "duration": 0.545,
      "velocity": 0.76,
      "hand": "right"
    },
    {
      "midi": 38,
      "time": 51,
      "duration": 0.068,
      "velocity": 0.55,
      "hand": "left"
    },
    {
      "midi": 40,
      "time": 51,
      "duration": 0.068,
      "velocity": 0.64,
      "hand": "left"
    },
    {
      "midi": 60,
      "time": 51,
      "duration": 0.121,
      "velocity": 0.86,
      "hand": "right"
    },
    {
      "midi": 57,
      "time": 51.136,
      "duration": 0.121,
      "velocity": 0.81,
      "hand": "left"
    },
    {
      "midi": 60,
      "time": 51.136,
      "duration": 0.121,
      "velocity": 0.57,
      "hand": "right"
    },
    {
      "midi": 38,
      "time": 51.272,
      "duration": 0.068,
      "velocity": 0.55,
      "hand": "left"
    },
    {
      "midi": 41,
      "time": 51.272,
      "duration": 0.531,
      "velocity": 0.8,
      "hand": "left"
    },
    {
      "midi": 65,
      "time": 51.272,
      "duration": 2.045,
      "velocity": 0.99,
      "hand": "right"
    },
    {
      "midi": 67,
      "time": 51.272,
      "duration": 0.818,
      "velocity": 0.95,
      "hand": "right"
    },
    {
      "midi": 69,
      "time": 51.272,
      "duration": 0.409,
      "velocity": 0.87,
      "hand": "right"
    },
    {
      "midi": 77,
      "time": 51.272,
      "duration": 0.818,
      "velocity": 0.74,
      "hand": "right"
    },
    {
      "midi": 38,
      "time": 51.545,
      "duration": 0.068,
      "velocity": 0.55,
      "hand": "left"
    },
    {
      "midi": 40,
      "time": 51.545,
      "duration": 0.068,
      "velocity": 0.65,
      "hand": "left"
    },
    {
      "midi": 64,
      "time": 51.545,
      "duration": 0.122,
      "velocity": 1,
      "hand": "right"
    },
    {
      "midi": 53,
      "time": 51.682,
      "duration": 0.068,
      "velocity": 0.56,
      "hand": "left"
    },
    {
      "midi": 57,
      "time": 51.682,
      "duration": 0.068,
      "velocity": 0.61,
      "hand": "left"
    },
    {
      "midi": 60,
      "time": 51.682,
      "duration": 0.068,
      "velocity": 0.63,
      "hand": "right"
    },
    {
      "midi": 64,
      "time": 51.682,
      "duration": 0.068,
      "velocity": 0.52,
      "hand": "right"
    },
    {
      "midi": 36,
      "time": 51.818,
      "duration": 0.068,
      "velocity": 0.76,
      "hand": "left"
    },
    {
      "midi": 38,
      "time": 51.818,
      "duration": 0.068,
      "velocity": 0.55,
      "hand": "left"
    },
    {
      "midi": 60,
      "time": 51.818,
      "duration": 0.258,
      "velocity": 0.83,
      "hand": "right"
    },
    {
      "midi": 64,
      "time": 51.818,
      "duration": 0.258,
      "velocity": 0.52,
      "hand": "right"
    },
    {
      "midi": 69,
      "time": 51.818,
      "duration": 0.409,
      "velocity": 0.87,
      "hand": "right"
    },
    {
      "midi": 38,
      "time": 51.954,
      "duration": 0.068,
      "velocity": 0.55,
      "hand": "left"
    },
    {
      "midi": 40,
      "time": 51.954,
      "duration": 0.068,
      "velocity": 0.72,
      "hand": "left"
    },
    {
      "midi": 36,
      "time": 52.091,
      "duration": 0.273,
      "velocity": 0.8,
      "hand": "left"
    },
    {
      "midi": 38,
      "time": 52.091,
      "duration": 0.068,
      "velocity": 0.55,
      "hand": "left"
    },
    {
      "midi": 60,
      "time": 52.091,
      "duration": 0.136,
      "velocity": 0.61,
      "hand": "right"
    },
    {
      "midi": 64,
      "time": 52.091,
      "duration": 0.068,
      "velocity": 0.53,
      "hand": "right"
    },
    {
      "midi": 72,
      "time": 52.091,
      "duration": 0.273,
      "velocity": 0.78,
      "hand": "right"
    },
    {
      "midi": 38,
      "time": 52.227,
      "duration": 0.068,
      "velocity": 0.55,
      "hand": "left"
    },
    {
      "midi": 38,
      "time": 52.363,
      "duration": 0.068,
      "velocity": 0.55,
      "hand": "left"
    },
    {
      "midi": 40,
      "time": 52.363,
      "duration": 0.068,
      "velocity": 0.64,
      "hand": "left"
    },
    {
      "midi": 63,
      "time": 52.363,
      "duration": 0.258,
      "velocity": 0.82,
      "hand": "right"
    },
    {
      "midi": 67,
      "time": 52.363,
      "duration": 0.818,
      "velocity": 0.84,
      "hand": "right"
    },
    {
      "midi": 69,
      "time": 52.363,
      "duration": 0.409,
      "velocity": 0.88,
      "hand": "right"
    },
    {
      "midi": 77,
      "time": 52.363,
      "duration": 0.545,
      "velocity": 0.8,
      "hand": "right"
    },
    {
      "midi": 46,
      "time": 52.636,
      "duration": 0.068,
      "velocity": 0.64,
      "hand": "left"
    },
    {
      "midi": 53,
      "time": 52.636,
      "duration": 0.068,
      "velocity": 0.56,
      "hand": "left"
    },
    {
      "midi": 60,
      "time": 52.636,
      "duration": 0.068,
      "velocity": 0.56,
      "hand": "right"
    },
    {
      "midi": 63,
      "time": 52.636,
      "duration": 0.136,
      "velocity": 0.54,
      "hand": "right"
    },
    {
      "midi": 38,
      "time": 52.772,
      "duration": 0.068,
      "velocity": 0.55,
      "hand": "left"
    },
    {
      "midi": 40,
      "time": 52.772,
      "duration": 0.068,
      "velocity": 0.62,
      "hand": "left"
    },
    {
      "midi": 36,
      "time": 52.909,
      "duration": 0.068,
      "velocity": 0.8,
      "hand": "left"
    },
    {
      "midi": 38,
      "time": 52.909,
      "duration": 0.068,
      "velocity": 0.55,
      "hand": "left"
    },
    {
      "midi": 60,
      "time": 52.909,
      "duration": 0.273,
      "velocity": 0.74,
      "hand": "right"
    },
    {
      "midi": 63,
      "time": 52.909,
      "duration": 0.273,
      "velocity": 0.61,
      "hand": "right"
    },
    {
      "midi": 71,
      "time": 52.909,
      "duration": 0.273,
      "velocity": 0.72,
      "hand": "right"
    },
    {
      "midi": 38,
      "time": 53.182,
      "duration": 0.068,
      "velocity": 0.55,
      "hand": "left"
    },
    {
      "midi": 40,
      "time": 53.182,
      "duration": 0.068,
      "velocity": 0.63,
      "hand": "left"
    },
    {
      "midi": 69,
      "time": 53.182,
      "duration": 0.257,
      "velocity": 0.71,
      "hand": "right"
    },
    {
      "midi": 77,
      "time": 53.182,
      "duration": 0.273,
      "velocity": 0.76,
      "hand": "right"
    },
    {
      "midi": 38,
      "time": 53.454,
      "duration": 0.068,
      "velocity": 0.55,
      "hand": "left"
    },
    {
      "midi": 40,
      "time": 53.454,
      "duration": 0.258,
      "velocity": 0.94,
      "hand": "left"
    },
    {
      "midi": 67,
      "time": 53.454,
      "duration": 0.531,
      "velocity": 0.99,
      "hand": "right"
    },
    {
      "midi": 69,
      "time": 53.454,
      "duration": 0.258,
      "velocity": 0.86,
      "hand": "right"
    },
    {
      "midi": 79,
      "time": 53.454,
      "duration": 1.091,
      "velocity": 0.76,
      "hand": "right"
    },
    {
      "midi": 38,
      "time": 53.727,
      "duration": 0.068,
      "velocity": 0.55,
      "hand": "left"
    },
    {
      "midi": 40,
      "time": 53.727,
      "duration": 0.068,
      "velocity": 0.71,
      "hand": "left"
    },
    {
      "midi": 62,
      "time": 53.727,
      "duration": 0.068,
      "velocity": 0.72,
      "hand": "right"
    },
    {
      "midi": 66,
      "time": 53.727,
      "duration": 0.068,
      "velocity": 0.61,
      "hand": "right"
    },
    {
      "midi": 69,
      "time": 53.727,
      "duration": 0.068,
      "velocity": 0.53,
      "hand": "right"
    },
    {
      "midi": 55,
      "time": 53.863,
      "duration": 0.068,
      "velocity": 0.63,
      "hand": "left"
    },
    {
      "midi": 59,
      "time": 53.863,
      "duration": 0.068,
      "velocity": 0.65,
      "hand": "left"
    },
    {
      "midi": 62,
      "time": 53.863,
      "duration": 0.068,
      "velocity": 0.63,
      "hand": "right"
    },
    {
      "midi": 66,
      "time": 53.863,
      "duration": 0.068,
      "velocity": 0.52,
      "hand": "right"
    },
    {
      "midi": 36,
      "time": 54,
      "duration": 0.068,
      "velocity": 0.76,
      "hand": "left"
    },
    {
      "midi": 38,
      "time": 54,
      "duration": 0.068,
      "velocity": 0.55,
      "hand": "left"
    },
    {
      "midi": 62,
      "time": 54,
      "duration": 0.257,
      "velocity": 0.86,
      "hand": "right"
    },
    {
      "midi": 67,
      "time": 54,
      "duration": 0.409,
      "velocity": 0.8,
      "hand": "right"
    },
    {
      "midi": 69,
      "time": 54,
      "duration": 0.257,
      "velocity": 0.87,
      "hand": "right"
    },
    {
      "midi": 38,
      "time": 54.136,
      "duration": 0.068,
      "velocity": 0.55,
      "hand": "left"
    },
    {
      "midi": 40,
      "time": 54.136,
      "duration": 0.068,
      "velocity": 0.65,
      "hand": "left"
    },
    {
      "midi": 38,
      "time": 54.272,
      "duration": 0.068,
      "velocity": 0.55,
      "hand": "left"
    },
    {
      "midi": 40,
      "time": 54.272,
      "duration": 0.258,
      "velocity": 0.83,
      "hand": "left"
    },
    {
      "midi": 62,
      "time": 54.272,
      "duration": 0.136,
      "velocity": 0.61,
      "hand": "right"
    },
    {
      "midi": 66,
      "time": 54.272,
      "duration": 0.136,
      "velocity": 0.54,
      "hand": "right"
    },
    {
      "midi": 69,
      "time": 54.272,
      "duration": 0.068,
      "velocity": 0.56,
      "hand": "right"
    },
    {
      "midi": 38,
      "time": 54.409,
      "duration": 0.068,
      "velocity": 0.55,
      "hand": "left"
    },
    {
      "midi": 39,
      "time": 54.545,
      "duration": 0.545,
      "velocity": 0.85,
      "hand": "left"
    },
    {
      "midi": 65,
      "time": 54.545,
      "duration": 0.258,
      "velocity": 0.59,
      "hand": "right"
    },
    {
      "midi": 68,
      "time": 54.545,
      "duration": 0.531,
      "velocity": 0.96,
      "hand": "right"
    },
    {
      "midi": 80,
      "time": 54.545,
      "duration": 1.091,
      "velocity": 0.85,
      "hand": "right"
    },
    {
      "midi": 46,
      "time": 54.818,
      "duration": 0.068,
      "velocity": 0.64,
      "hand": "left"
    },
    {
      "midi": 54,
      "time": 54.818,
      "duration": 0.068,
      "velocity": 0.72,
      "hand": "left"
    },
    {
      "midi": 61,
      "time": 54.818,
      "duration": 0.068,
      "velocity": 0.63,
      "hand": "right"
    },
    {
      "midi": 65,
      "time": 54.818,
      "duration": 0.068,
      "velocity": 0.54,
      "hand": "right"
    },
    {
      "midi": 38,
      "time": 54.954,
      "duration": 0.068,
      "velocity": 0.55,
      "hand": "left"
    },
    {
      "midi": 40,
      "time": 54.954,
      "duration": 0.068,
      "velocity": 0.8,
      "hand": "left"
    },
    {
      "midi": 36,
      "time": 55.091,
      "duration": 0.068,
      "velocity": 0.61,
      "hand": "left"
    },
    {
      "midi": 38,
      "time": 55.091,
      "duration": 0.068,
      "velocity": 0.55,
      "hand": "left"
    },
    {
      "midi": 61,
      "time": 55.091,
      "duration": 0.257,
      "velocity": 0.83,
      "hand": "right"
    },
    {
      "midi": 65,
      "time": 55.091,
      "duration": 0.068,
      "velocity": 0.7,
      "hand": "right"
    },
    {
      "midi": 68,
      "time": 55.091,
      "duration": 0.409,
      "velocity": 0.59,
      "hand": "right"
    },
    {
      "midi": 39,
      "time": 55.363,
      "duration": 0.273,
      "velocity": 0.76,
      "hand": "left"
    },
    {
      "midi": 61,
      "time": 55.363,
      "duration": 0.136,
      "velocity": 0.73,
      "hand": "right"
    },
    {
      "midi": 65,
      "time": 55.363,
      "duration": 0.258,
      "velocity": 0.84,
      "hand": "right"
    },
    {
      "midi": 38,
      "time": 55.636,
      "duration": 0.394,
      "velocity": 0.87,
      "hand": "left"
    },
    {
      "midi": 42,
      "time": 55.636,
      "duration": 0.068,
      "velocity": 0.71,
      "hand": "left"
    },
    {
      "midi": 65,
      "time": 55.636,
      "duration": 0.682,
      "velocity": 0.99,
      "hand": "right"
    },
    {
      "midi": 67,
      "time": 55.636,
      "duration": 0.531,
      "velocity": 0.82,
      "hand": "right"
    },
    {
      "midi": 69,
      "time": 55.636,
      "duration": 0.682,
      "velocity": 0.86,
      "hand": "right"
    },
    {
      "midi": 81,
      "time": 55.636,
      "duration": 1.091,
      "velocity": 0.73,
      "hand": "right"
    },
    {
      "midi": 46,
      "time": 55.909,
      "duration": 0.068,
      "velocity": 0.64,
      "hand": "left"
    },
    {
      "midi": 54,
      "time": 55.909,
      "duration": 0.068,
      "velocity": 0.61,
      "hand": "left"
    },
    {
      "midi": 38,
      "time": 56.045,
      "duration": 0.068,
      "velocity": 0.55,
      "hand": "left"
    },
    {
      "midi": 40,
      "time": 56.045,
      "duration": 0.068,
      "velocity": 0.64,
      "hand": "left"
    },
    {
      "midi": 60,
      "time": 56.045,
      "duration": 0.068,
      "velocity": 0.59,
      "hand": "right"
    },
    {
      "midi": 64,
      "time": 56.045,
      "duration": 0.068,
      "velocity": 0.56,
      "hand": "right"
    },
    {
      "midi": 36,
      "time": 56.182,
      "duration": 0.068,
      "velocity": 0.8,
      "hand": "left"
    },
    {
      "midi": 38,
      "time": 56.182,
      "duration": 0.068,
      "velocity": 0.55,
      "hand": "left"
    },
    {
      "midi": 60,
      "time": 56.182,
      "duration": 0.136,
      "velocity": 0.87,
      "hand": "right"
    },
    {
      "midi": 64,
      "time": 56.182,
      "duration": 0.136,
      "velocity": 0.57,
      "hand": "right"
    },
    {
      "midi": 67,
      "time": 56.182,
      "duration": 0.136,
      "velocity": 0.8,
      "hand": "right"
    },
    {
      "midi": 38,
      "time": 56.454,
      "duration": 0.258,
      "velocity": 0.8,
      "hand": "left"
    },
    {
      "midi": 40,
      "time": 56.454,
      "duration": 0.068,
      "velocity": 0.64,
      "hand": "left"
    },
    {
      "midi": 65,
      "time": 56.454,
      "duration": 0.136,
      "velocity": 0.72,
      "hand": "right"
    },
    {
      "midi": 67,
      "time": 56.454,
      "duration": 0.068,
      "velocity": 0.55,
      "hand": "right"
    },
    {
      "midi": 38,
      "time": 56.727,
      "duration": 0.068,
      "velocity": 0.55,
      "hand": "left"
    },
    {
      "midi": 68,
      "time": 56.727,
      "duration": 0.682,
      "velocity": 0.98,
      "hand": "right"
    },
    {
      "midi": 71,
      "time": 56.727,
      "duration": 0.682,
      "velocity": 0.97,
      "hand": "right"
    },
    {
      "midi": 83,
      "time": 56.727,
      "duration": 1.091,
      "velocity": 0.83,
      "hand": "right"
    },
    {
      "midi": 38,
      "time": 57,
      "duration": 0.068,
      "velocity": 0.55,
      "hand": "left"
    },
    {
      "midi": 40,
      "time": 57,
      "duration": 0.068,
      "velocity": 0.65,
      "hand": "left"
    },
    {
      "midi": 65,
      "time": 57,
      "duration": 0.136,
      "velocity": 0.69,
      "hand": "right"
    },
    {
      "midi": 36,
      "time": 57.272,
      "duration": 0.068,
      "velocity": 0.76,
      "hand": "left"
    },
    {
      "midi": 38,
      "time": 57.272,
      "duration": 0.068,
      "velocity": 0.55,
      "hand": "left"
    },
    {
      "midi": 64,
      "time": 57.272,
      "duration": 0.136,
      "velocity": 0.81,
      "hand": "right"
    },
    {
      "midi": 67,
      "time": 57.272,
      "duration": 0.136,
      "velocity": 0.59,
      "hand": "right"
    },
    {
      "midi": 38,
      "time": 57.409,
      "duration": 0.068,
      "velocity": 0.55,
      "hand": "left"
    },
    {
      "midi": 40,
      "time": 57.409,
      "duration": 0.068,
      "velocity": 0.72,
      "hand": "left"
    },
    {
      "midi": 38,
      "time": 57.545,
      "duration": 0.068,
      "velocity": 0.55,
      "hand": "left"
    },
    {
      "midi": 63,
      "time": 57.545,
      "duration": 0.068,
      "velocity": 0.4,
      "hand": "right"
    },
    {
      "midi": 38,
      "time": 57.682,
      "duration": 0.068,
      "velocity": 0.55,
      "hand": "left"
    },
    {
      "midi": 36,
      "time": 57.818,
      "duration": 0.53,
      "velocity": 0.95,
      "hand": "left"
    },
    {
      "midi": 38,
      "time": 57.818,
      "duration": 0.068,
      "velocity": 0.55,
      "hand": "left"
    },
    {
      "midi": 67,
      "time": 57.818,
      "duration": 0.53,
      "velocity": 0.94,
      "hand": "right"
    },
    {
      "midi": 69,
      "time": 57.818,
      "duration": 1.773,
      "velocity": 0.96,
      "hand": "right"
    },
    {
      "midi": 72,
      "time": 57.818,
      "duration": 1.636,
      "velocity": 0.91,
      "hand": "right"
    },
    {
      "midi": 84,
      "time": 57.818,
      "duration": 1.5,
      "velocity": 0.65,
      "hand": "right"
    },
    {
      "midi": 46,
      "time": 58.091,
      "duration": 0.068,
      "velocity": 0.64,
      "hand": "left"
    },
    {
      "midi": 54,
      "time": 58.091,
      "duration": 0.068,
      "velocity": 0.54,
      "hand": "left"
    },
    {
      "midi": 38,
      "time": 58.227,
      "duration": 0.068,
      "velocity": 0.55,
      "hand": "left"
    },
    {
      "midi": 40,
      "time": 58.227,
      "duration": 0.068,
      "velocity": 0.62,
      "hand": "left"
    },
    {
      "midi": 36,
      "time": 58.363,
      "duration": 0.136,
      "velocity": 0.95,
      "hand": "left"
    },
    {
      "midi": 38,
      "time": 58.363,
      "duration": 0.068,
      "velocity": 0.55,
      "hand": "left"
    },
    {
      "midi": 62,
      "time": 58.363,
      "duration": 0.409,
      "velocity": 0.72,
      "hand": "right"
    },
    {
      "midi": 67,
      "time": 58.363,
      "duration": 0.804,
      "velocity": 0.57,
      "hand": "right"
    },
    {
      "midi": 74,
      "time": 58.363,
      "duration": 1.091,
      "velocity": 0.72,
      "hand": "right"
    },
    {
      "midi": 79,
      "time": 58.363,
      "duration": 1.091,
      "velocity": 0.9,
      "hand": "right"
    },
    {
      "midi": 38,
      "time": 58.636,
      "duration": 0.068,
      "velocity": 0.55,
      "hand": "left"
    },
    {
      "midi": 40,
      "time": 58.636,
      "duration": 0.068,
      "velocity": 0.63,
      "hand": "left"
    },
    {
      "midi": 36,
      "time": 58.909,
      "duration": 0.136,
      "velocity": 0.95,
      "hand": "left"
    },
    {
      "midi": 40,
      "time": 58.909,
      "duration": 0.068,
      "velocity": 0.64,
      "hand": "left"
    },
    {
      "midi": 36,
      "time": 59.182,
      "duration": 0.068,
      "velocity": 0.67,
      "hand": "left"
    },
    {
      "midi": 38,
      "time": 59.182,
      "duration": 0.068,
      "velocity": 0.55,
      "hand": "left"
    },
    {
      "midi": 71,
      "time": 59.182,
      "duration": 0.136,
      "velocity": 0.68,
      "hand": "right"
    },
    {
      "midi": 77,
      "time": 59.182,
      "duration": 0.136,
      "velocity": 0.76,
      "hand": "right"
    },
    {
      "midi": 82,
      "time": 59.182,
      "duration": 0.136,
      "velocity": 0.72,
      "hand": "right"
    },
    {
      "midi": 36,
      "time": 59.454,
      "duration": 0.068,
      "velocity": 0.67,
      "hand": "left"
    },
    {
      "midi": 38,
      "time": 59.454,
      "duration": 0.068,
      "velocity": 0.55,
      "hand": "left"
    },
    {
      "midi": 62,
      "time": 59.591,
      "duration": 0.068,
      "velocity": 0.61,
      "hand": "right"
    },
    {
      "midi": 43,
      "time": 59.727,
      "duration": 0.273,
      "velocity": 0.95,
      "hand": "left"
    },
    {
      "midi": 53,
      "time": 59.727,
      "duration": 0.136,
      "velocity": 0.74,
      "hand": "left"
    },
    {
      "midi": 71,
      "time": 59.727,
      "duration": 0.273,
      "velocity": 0.56,
      "hand": "right"
    },
    {
      "midi": 77,
      "time": 59.727,
      "duration": 0.136,
      "velocity": 0.72,
      "hand": "right"
    },
    {
      "midi": 82,
      "time": 59.727,
      "duration": 0.136,
      "velocity": 0.57,
      "hand": "right"
    },
    {
      "midi": 67,
      "time": 60,
      "duration": 0.257,
      "velocity": 0.74,
      "hand": "right"
    },
    {
      "midi": 36,
      "time": 60.272,
      "duration": 0.068,
      "velocity": 0.67,
      "hand": "left"
    },
    {
      "midi": 38,
      "time": 60.272,
      "duration": 0.068,
      "velocity": 0.55,
      "hand": "left"
    },
    {
      "midi": 71,
      "time": 60.272,
      "duration": 0.136,
      "velocity": 0.68,
      "hand": "right"
    },
    {
      "midi": 77,
      "time": 60.272,
      "duration": 0.136,
      "velocity": 0.76,
      "hand": "right"
    },
    {
      "midi": 82,
      "time": 60.272,
      "duration": 0.136,
      "velocity": 0.68,
      "hand": "right"
    },
    {
      "midi": 36,
      "time": 60.545,
      "duration": 0.068,
      "velocity": 0.57,
      "hand": "left"
    },
    {
      "midi": 41,
      "time": 60.545,
      "duration": 0.068,
      "velocity": 0.75,
      "hand": "left"
    },
    {
      "midi": 36,
      "time": 60.818,
      "duration": 0.068,
      "velocity": 0.67,
      "hand": "left"
    },
    {
      "midi": 38,
      "time": 60.818,
      "duration": 0.068,
      "velocity": 0.55,
      "hand": "left"
    },
    {
      "midi": 71,
      "time": 60.818,
      "duration": 0.136,
      "velocity": 0.69,
      "hand": "right"
    },
    {
      "midi": 77,
      "time": 60.818,
      "duration": 0.136,
      "velocity": 0.76,
      "hand": "right"
    },
    {
      "midi": 82,
      "time": 60.818,
      "duration": 0.136,
      "velocity": 0.68,
      "hand": "right"
    },
    {
      "midi": 55,
      "time": 61.091,
      "duration": 0.273,
      "velocity": 0.85,
      "hand": "left"
    },
    {
      "midi": 57,
      "time": 61.091,
      "duration": 0.257,
      "velocity": 0.83,
      "hand": "left"
    },
    {
      "midi": 62,
      "time": 61.091,
      "duration": 0.257,
      "velocity": 0.94,
      "hand": "right"
    },
    {
      "midi": 64,
      "time": 61.091,
      "duration": 0.273,
      "velocity": 0.58,
      "hand": "right"
    },
    {
      "midi": 67,
      "time": 61.091,
      "duration": 0.257,
      "velocity": 0.93,
      "hand": "right"
    },
    {
      "midi": 36,
      "time": 61.363,
      "duration": 0.068,
      "velocity": 0.67,
      "hand": "left"
    },
    {
      "midi": 38,
      "time": 61.363,
      "duration": 0.068,
      "velocity": 0.55,
      "hand": "left"
    },
    {
      "midi": 71,
      "time": 61.363,
      "duration": 0.273,
      "velocity": 0.79,
      "hand": "right"
    },
    {
      "midi": 77,
      "time": 61.363,
      "duration": 0.273,
      "velocity": 0.79,
      "hand": "right"
    },
    {
      "midi": 82,
      "time": 61.363,
      "duration": 0.273,
      "velocity": 0.79,
      "hand": "right"
    },
    {
      "midi": 36,
      "time": 61.636,
      "duration": 0.068,
      "velocity": 0.67,
      "hand": "left"
    },
    {
      "midi": 38,
      "time": 61.636,
      "duration": 0.068,
      "velocity": 0.55,
      "hand": "left"
    },
    {
      "midi": 64,
      "time": 61.636,
      "duration": 0.273,
      "velocity": 0.74,
      "hand": "right"
    },
    {
      "midi": 47,
      "time": 61.909,
      "duration": 0.136,
      "velocity": 0.89,
      "hand": "left"
    },
    {
      "midi": 53,
      "time": 61.909,
      "duration": 0.136,
      "velocity": 0.74,
      "hand": "left"
    },
    {
      "midi": 62,
      "time": 61.909,
      "duration": 0.136,
      "velocity": 0.64,
      "hand": "right"
    },
    {
      "midi": 65,
      "time": 61.909,
      "duration": 0.136,
      "velocity": 0.58,
      "hand": "right"
    },
    {
      "midi": 38,
      "time": 62.182,
      "duration": 0.068,
      "velocity": 0.55,
      "hand": "left"
    },
    {
      "midi": 40,
      "time": 62.182,
      "duration": 0.257,
      "velocity": 0.95,
      "hand": "left"
    },
    {
      "midi": 62,
      "time": 62.182,
      "duration": 0.394,
      "velocity": 0.84,
      "hand": "right"
    },
    {
      "midi": 67,
      "time": 62.182,
      "duration": 0.409,
      "velocity": 0.65,
      "hand": "right"
    },
    {
      "midi": 69,
      "time": 62.182,
      "duration": 0.394,
      "velocity": 0.85,
      "hand": "right"
    },
    {
      "midi": 38,
      "time": 62.454,
      "duration": 0.068,
      "velocity": 0.55,
      "hand": "left"
    },
    {
      "midi": 40,
      "time": 62.454,
      "duration": 0.068,
      "velocity": 0.69,
      "hand": "left"
    },
    {
      "midi": 55,
      "time": 62.591,
      "duration": 0.068,
      "velocity": 0.55,
      "hand": "left"
    },
    {
      "midi": 59,
      "time": 62.591,
      "duration": 0.068,
      "velocity": 0.63,
      "hand": "left"
    },
    {
      "midi": 62,
      "time": 62.591,
      "duration": 0.068,
      "velocity": 0.73,
      "hand": "right"
    },
    {
      "midi": 66,
      "time": 62.591,
      "duration": 0.068,
      "velocity": 0.73,
      "hand": "right"
    },
    {
      "midi": 69,
      "time": 62.591,
      "duration": 0.068,
      "velocity": 0.56,
      "hand": "right"
    },
    {
      "midi": 36,
      "time": 62.727,
      "duration": 0.068,
      "velocity": 0.8,
      "hand": "left"
    },
    {
      "midi": 38,
      "time": 62.727,
      "duration": 0.068,
      "velocity": 0.55,
      "hand": "left"
    },
    {
      "midi": 62,
      "time": 62.727,
      "duration": 0.068,
      "velocity": 0.53,
      "hand": "right"
    },
    {
      "midi": 67,
      "time": 62.727,
      "duration": 0.121,
      "velocity": 0.63,
      "hand": "right"
    },
    {
      "midi": 38,
      "time": 62.863,
      "duration": 0.068,
      "velocity": 0.55,
      "hand": "left"
    },
    {
      "midi": 40,
      "time": 62.863,
      "duration": 0.068,
      "velocity": 0.62,
      "hand": "left"
    },
    {
      "midi": 67,
      "time": 62.863,
      "duration": 0.136,
      "velocity": 0.57,
      "hand": "right"
    },
    {
      "midi": 38,
      "time": 63,
      "duration": 0.068,
      "velocity": 0.55,
      "hand": "left"
    },
    {
      "midi": 45,
      "time": 63,
      "duration": 0.136,
      "velocity": 0.68,
      "hand": "left"
    },
    {
      "midi": 62,
      "time": 63,
      "duration": 0.068,
      "velocity": 0.64,
      "hand": "right"
    },
    {
      "midi": 66,
      "time": 63,
      "duration": 0.068,
      "velocity": 0.52,
      "hand": "right"
    },
    {
      "midi": 69,
      "time": 63,
      "duration": 0.136,
      "velocity": 0.68,
      "hand": "right"
    },
    {
      "midi": 71,
      "time": 63,
      "duration": 0.136,
      "velocity": 0.73,
      "hand": "right"
    },
    {
      "midi": 38,
      "time": 63.136,
      "duration": 0.068,
      "velocity": 0.55,
      "hand": "left"
    },
    {
      "midi": 48,
      "time": 63.136,
      "duration": 0.136,
      "velocity": 0.53,
      "hand": "left"
    },
    {
      "midi": 60,
      "time": 63.136,
      "duration": 0.136,
      "velocity": 0.53,
      "hand": "right"
    },
    {
      "midi": 62,
      "time": 63.136,
      "duration": 0.121,
      "velocity": 0.72,
      "hand": "right"
    },
    {
      "midi": 72,
      "time": 63.136,
      "duration": 0.136,
      "velocity": 0.53,
      "hand": "right"
    },
    {
      "midi": 38,
      "time": 63.272,
      "duration": 0.068,
      "velocity": 0.55,
      "hand": "left"
    },
    {
      "midi": 40,
      "time": 63.272,
      "duration": 0.395,
      "velocity": 0.91,
      "hand": "left"
    },
    {
      "midi": 67,
      "time": 63.272,
      "duration": 0.409,
      "velocity": 0.68,
      "hand": "right"
    },
    {
      "midi": 69,
      "time": 63.272,
      "duration": 0.531,
      "velocity": 0.87,
      "hand": "right"
    },
    {
      "midi": 74,
      "time": 63.272,
      "duration": 0.273,
      "velocity": 0.54,
      "hand": "right"
    },
    {
      "midi": 46,
      "time": 63.545,
      "duration": 0.068,
      "velocity": 0.64,
      "hand": "left"
    },
    {
      "midi": 48,
      "time": 63.545,
      "duration": 0.273,
      "velocity": 0.76,
      "hand": "left"
    },
    {
      "midi": 60,
      "time": 63.545,
      "duration": 0.273,
      "velocity": 0.76,
      "hand": "right"
    },
    {
      "midi": 62,
      "time": 63.545,
      "duration": 0.068,
      "velocity": 0.56,
      "hand": "right"
    },
    {
      "midi": 66,
      "time": 63.545,
      "duration": 0.258,
      "velocity": 1,
      "hand": "right"
    },
    {
      "midi": 72,
      "time": 63.545,
      "duration": 0.273,
      "velocity": 0.76,
      "hand": "right"
    },
    {
      "midi": 38,
      "time": 63.682,
      "duration": 0.068,
      "velocity": 0.55,
      "hand": "left"
    },
    {
      "midi": 40,
      "time": 63.682,
      "duration": 0.068,
      "velocity": 0.73,
      "hand": "left"
    },
    {
      "midi": 36,
      "time": 63.818,
      "duration": 0.068,
      "velocity": 0.8,
      "hand": "left"
    },
    {
      "midi": 38,
      "time": 63.818,
      "duration": 0.068,
      "velocity": 0.55,
      "hand": "left"
    },
    {
      "midi": 62,
      "time": 63.818,
      "duration": 0.273,
      "velocity": 0.57,
      "hand": "right"
    },
    {
      "midi": 66,
      "time": 63.818,
      "duration": 0.273,
      "velocity": 0.52,
      "hand": "right"
    },
    {
      "midi": 69,
      "time": 63.818,
      "duration": 0.258,
      "velocity": 0.54,
      "hand": "right"
    },
    {
      "midi": 71,
      "time": 63.818,
      "duration": 0.273,
      "velocity": 0.69,
      "hand": "right"
    },
    {
      "midi": 38,
      "time": 64.091,
      "duration": 0.068,
      "velocity": 0.55,
      "hand": "left"
    },
    {
      "midi": 40,
      "time": 64.091,
      "duration": 0.273,
      "velocity": 0.95,
      "hand": "left"
    },
    {
      "midi": 67,
      "time": 64.091,
      "duration": 0.257,
      "velocity": 0.52,
      "hand": "right"
    },
    {
      "midi": 69,
      "time": 64.091,
      "duration": 0.273,
      "velocity": 0.69,
      "hand": "right"
    },
    {
      "midi": 38,
      "time": 64.363,
      "duration": 0.258,
      "velocity": 0.84,
      "hand": "left"
    },
    {
      "midi": 42,
      "time": 64.363,
      "duration": 0.068,
      "velocity": 0.71,
      "hand": "left"
    },
    {
      "midi": 65,
      "time": 64.363,
      "duration": 0.409,
      "velocity": 0.59,
      "hand": "right"
    },
    {
      "midi": 67,
      "time": 64.363,
      "duration": 0.531,
      "velocity": 0.95,
      "hand": "right"
    },
    {
      "midi": 72,
      "time": 64.363,
      "duration": 0.545,
      "velocity": 0.72,
      "hand": "right"
    },
    {
      "midi": 38,
      "time": 64.636,
      "duration": 0.068,
      "velocity": 0.55,
      "hand": "left"
    },
    {
      "midi": 40,
      "time": 64.636,
      "duration": 0.068,
      "velocity": 0.65,
      "hand": "left"
    },
    {
      "midi": 53,
      "time": 64.772,
      "duration": 0.068,
      "velocity": 0.57,
      "hand": "left"
    },
    {
      "midi": 57,
      "time": 64.772,
      "duration": 0.068,
      "velocity": 0.49,
      "hand": "left"
    },
    {
      "midi": 60,
      "time": 64.772,
      "duration": 0.068,
      "velocity": 0.68,
      "hand": "right"
    },
    {
      "midi": 64,
      "time": 64.772,
      "duration": 0.068,
      "velocity": 0.54,
      "hand": "right"
    },
    {
      "midi": 36,
      "time": 64.909,
      "duration": 0.068,
      "velocity": 0.8,
      "hand": "left"
    },
    {
      "midi": 38,
      "time": 64.909,
      "duration": 0.068,
      "velocity": 0.55,
      "hand": "left"
    },
    {
      "midi": 65,
      "time": 64.909,
      "duration": 0.409,
      "velocity": 0.7,
      "hand": "right"
    },
    {
      "midi": 67,
      "time": 64.909,
      "duration": 0.273,
      "velocity": 0.77,
      "hand": "right"
    },
    {
      "midi": 69,
      "time": 64.909,
      "duration": 0.53,
      "velocity": 0.72,
      "hand": "right"
    },
    {
      "midi": 38,
      "time": 65.045,
      "duration": 0.068,
      "velocity": 0.55,
      "hand": "left"
    },
    {
      "midi": 40,
      "time": 65.045,
      "duration": 0.068,
      "velocity": 0.76,
      "hand": "left"
    },
    {
      "midi": 38,
      "time": 65.182,
      "duration": 0.068,
      "velocity": 0.55,
      "hand": "left"
    },
    {
      "midi": 46,
      "time": 65.182,
      "duration": 0.068,
      "velocity": 0.64,
      "hand": "left"
    },
    {
      "midi": 60,
      "time": 65.182,
      "duration": 0.136,
      "velocity": 0.68,
      "hand": "right"
    },
    {
      "midi": 64,
      "time": 65.182,
      "duration": 0.136,
      "velocity": 0.57,
      "hand": "right"
    },
    {
      "midi": 38,
      "time": 65.318,
      "duration": 0.068,
      "velocity": 0.55,
      "hand": "left"
    },
    {
      "midi": 38,
      "time": 65.454,
      "duration": 0.394,
      "velocity": 0.94,
      "hand": "left"
    },
    {
      "midi": 40,
      "time": 65.454,
      "duration": 0.068,
      "velocity": 0.71,
      "hand": "left"
    },
    {
      "midi": 62,
      "time": 65.454,
      "duration": 0.531,
      "velocity": 0.92,
      "hand": "right"
    },
    {
      "midi": 65,
      "time": 65.454,
      "duration": 0.409,
      "velocity": 0.65,
      "hand": "right"
    },
    {
      "midi": 69,
      "time": 65.454,
      "duration": 0.531,
      "velocity": 1,
      "hand": "right"
    },
    {
      "midi": 46,
      "time": 65.727,
      "duration": 0.068,
      "velocity": 0.64,
      "hand": "left"
    },
    {
      "midi": 54,
      "time": 65.727,
      "duration": 0.068,
      "velocity": 0.61,
      "hand": "left"
    },
    {
      "midi": 38,
      "time": 65.863,
      "duration": 0.068,
      "velocity": 0.55,
      "hand": "left"
    },
    {
      "midi": 40,
      "time": 65.863,
      "duration": 0.068,
      "velocity": 0.67,
      "hand": "left"
    },
    {
      "midi": 61,
      "time": 65.863,
      "duration": 0.068,
      "velocity": 0.4,
      "hand": "right"
    },
    {
      "midi": 63,
      "time": 65.863,
      "duration": 0.273,
      "velocity": 0.56,
      "hand": "right"
    },
    {
      "midi": 36,
      "time": 66,
      "duration": 0.068,
      "velocity": 0.76,
      "hand": "left"
    },
    {
      "midi": 38,
      "time": 66,
      "duration": 0.068,
      "velocity": 0.55,
      "hand": "left"
    },
    {
      "midi": 62,
      "time": 66,
      "duration": 0.121,
      "velocity": 0.86,
      "hand": "right"
    },
    {
      "midi": 64,
      "time": 66,
      "duration": 0.273,
      "velocity": 0.56,
      "hand": "right"
    },
    {
      "midi": 67,
      "time": 66,
      "duration": 0.273,
      "velocity": 0.98,
      "hand": "right"
    },
    {
      "midi": 69,
      "time": 66,
      "duration": 0.273,
      "velocity": 0.87,
      "hand": "right"
    },
    {
      "midi": 53,
      "time": 66.136,
      "duration": 0.136,
      "velocity": 0.56,
      "hand": "left"
    },
    {
      "midi": 57,
      "time": 66.136,
      "duration": 0.136,
      "velocity": 0.53,
      "hand": "left"
    },
    {
      "midi": 62,
      "time": 66.136,
      "duration": 0.136,
      "velocity": 0.56,
      "hand": "right"
    },
    {
      "midi": 38,
      "time": 66.272,
      "duration": 0.068,
      "velocity": 0.55,
      "hand": "left"
    },
    {
      "midi": 40,
      "time": 66.272,
      "duration": 0.068,
      "velocity": 0.64,
      "hand": "left"
    },
    {
      "midi": 65,
      "time": 66.272,
      "duration": 0.258,
      "velocity": 0.59,
      "hand": "right"
    },
    {
      "midi": 38,
      "time": 66.545,
      "duration": 0.068,
      "velocity": 0.55,
      "hand": "left"
    },
    {
      "midi": 42,
      "time": 66.545,
      "duration": 0.068,
      "velocity": 0.71,
      "hand": "left"
    },
    {
      "midi": 60,
      "time": 66.545,
      "duration": 0.394,
      "velocity": 1,
      "hand": "right"
    },
    {
      "midi": 65,
      "time": 66.545,
      "duration": 0.531,
      "velocity": 1,
      "hand": "right"
    },
    {
      "midi": 40,
      "time": 66.682,
      "duration": 0.068,
      "velocity": 0.69,
      "hand": "left"
    },
    {
      "midi": 38,
      "time": 66.818,
      "duration": 0.068,
      "velocity": 0.55,
      "hand": "left"
    },
    {
      "midi": 46,
      "time": 66.818,
      "duration": 0.068,
      "velocity": 0.64,
      "hand": "left"
    },
    {
      "midi": 53,
      "time": 66.954,
      "duration": 0.068,
      "velocity": 0.61,
      "hand": "left"
    },
    {
      "midi": 55,
      "time": 66.954,
      "duration": 0.068,
      "velocity": 0.72,
      "hand": "left"
    },
    {
      "midi": 60,
      "time": 66.954,
      "duration": 0.068,
      "velocity": 0.56,
      "hand": "right"
    },
    {
      "midi": 36,
      "time": 67.091,
      "duration": 0.068,
      "velocity": 0.76,
      "hand": "left"
    },
    {
      "midi": 38,
      "time": 67.091,
      "duration": 0.121,
      "velocity": 0.97,
      "hand": "left"
    },
    {
      "midi": 60,
      "time": 67.091,
      "duration": 0.257,
      "velocity": 0.91,
      "hand": "right"
    },
    {
      "midi": 65,
      "time": 67.091,
      "duration": 0.257,
      "velocity": 0.95,
      "hand": "right"
    },
    {
      "midi": 38,
      "time": 67.227,
      "duration": 0.068,
      "velocity": 0.55,
      "hand": "left"
    },
    {
      "midi": 38,
      "time": 67.363,
      "duration": 0.068,
      "velocity": 0.55,
      "hand": "left"
    },
    {
      "midi": 43,
      "time": 67.363,
      "duration": 0.273,
      "velocity": 0.92,
      "hand": "left"
    },
    {
      "midi": 65,
      "time": 67.363,
      "duration": 0.136,
      "velocity": 0.54,
      "hand": "right"
    },
    {
      "midi": 67,
      "time": 67.363,
      "duration": 0.136,
      "velocity": 0.59,
      "hand": "right"
    },
    {
      "midi": 77,
      "time": 67.363,
      "duration": 0.136,
      "velocity": 0.54,
      "hand": "right"
    },
    {
      "midi": 79,
      "time": 67.363,
      "duration": 0.136,
      "velocity": 0.59,
      "hand": "right"
    },
    {
      "midi": 38,
      "time": 67.5,
      "duration": 0.068,
      "velocity": 0.55,
      "hand": "left"
    },
    {
      "midi": 52,
      "time": 67.5,
      "duration": 0.121,
      "velocity": 0.73,
      "hand": "left"
    },
    {
      "midi": 64,
      "time": 67.5,
      "duration": 0.121,
      "velocity": 0.73,
      "hand": "right"
    },
    {
      "midi": 76,
      "time": 67.5,
      "duration": 0.136,
      "velocity": 0.73,
      "hand": "right"
    },
    {
      "midi": 38,
      "time": 67.636,
      "duration": 0.273,
      "velocity": 1,
      "hand": "left"
    },
    {
      "midi": 42,
      "time": 67.636,
      "duration": 0.068,
      "velocity": 0.71,
      "hand": "left"
    },
    {
      "midi": 60,
      "time": 67.636,
      "duration": 0.531,
      "velocity": 0.9,
      "hand": "right"
    },
    {
      "midi": 62,
      "time": 67.636,
      "duration": 0.136,
      "velocity": 0.78,
      "hand": "right"
    },
    {
      "midi": 64,
      "time": 67.636,
      "duration": 0.121,
      "velocity": 0.97,
      "hand": "right"
    },
    {
      "midi": 74,
      "time": 67.636,
      "duration": 0.136,
      "velocity": 0.78,
      "hand": "right"
    },
    {
      "midi": 52,
      "time": 67.772,
      "duration": 0.273,
      "velocity": 0.74,
      "hand": "left"
    },
    {
      "midi": 64,
      "time": 67.772,
      "duration": 0.273,
      "velocity": 0.74,
      "hand": "right"
    },
    {
      "midi": 76,
      "time": 67.772,
      "duration": 0.273,
      "velocity": 0.74,
      "hand": "right"
    },
    {
      "midi": 42,
      "time": 67.909,
      "duration": 0.258,
      "velocity": 0.95,
      "hand": "left"
    },
    {
      "midi": 46,
      "time": 67.909,
      "duration": 0.068,
      "velocity": 0.64,
      "hand": "left"
    },
    {
      "midi": 38,
      "time": 68.045,
      "duration": 0.068,
      "velocity": 0.55,
      "hand": "left"
    },
    {
      "midi": 40,
      "time": 68.045,
      "duration": 0.068,
      "velocity": 0.64,
      "hand": "left"
    },
    {
      "midi": 36,
      "time": 68.182,
      "duration": 0.068,
      "velocity": 0.8,
      "hand": "left"
    },
    {
      "midi": 38,
      "time": 68.182,
      "duration": 0.257,
      "velocity": 0.87,
      "hand": "left"
    },
    {
      "midi": 60,
      "time": 68.182,
      "duration": 0.121,
      "velocity": 0.58,
      "hand": "right"
    },
    {
      "midi": 62,
      "time": 68.182,
      "duration": 0.273,
      "velocity": 0.75,
      "hand": "right"
    },
    {
      "midi": 74,
      "time": 68.182,
      "duration": 0.273,
      "velocity": 0.75,
      "hand": "right"
    },
    {
      "midi": 48,
      "time": 68.318,
      "duration": 0.136,
      "velocity": 0.76,
      "hand": "left"
    },
    {
      "midi": 60,
      "time": 68.318,
      "duration": 0.121,
      "velocity": 0.76,
      "hand": "right"
    },
    {
      "midi": 72,
      "time": 68.318,
      "duration": 0.136,
      "velocity": 0.76,
      "hand": "right"
    },
    {
      "midi": 38,
      "time": 68.454,
      "duration": 0.068,
      "velocity": 0.55,
      "hand": "left"
    },
    {
      "midi": 40,
      "time": 68.454,
      "duration": 0.068,
      "velocity": 0.64,
      "hand": "left"
    },
    {
      "midi": 60,
      "time": 68.454,
      "duration": 0.122,
      "velocity": 0.7,
      "hand": "right"
    },
    {
      "midi": 57,
      "time": 68.591,
      "duration": 0.121,
      "velocity": 0.81,
      "hand": "left"
    },
    {
      "midi": 60,
      "time": 68.591,
      "duration": 0.121,
      "velocity": 0.57,
      "hand": "right"
    },
    {
      "midi": 38,
      "time": 68.727,
      "duration": 0.068,
      "velocity": 0.55,
      "hand": "left"
    },
    {
      "midi": 41,
      "time": 68.727,
      "duration": 0.53,
      "velocity": 0.8,
      "hand": "left"
    },
    {
      "midi": 65,
      "time": 68.727,
      "duration": 0.818,
      "velocity": 1,
      "hand": "right"
    },
    {
      "midi": 67,
      "time": 68.727,
      "duration": 0.818,
      "velocity": 0.95,
      "hand": "right"
    },
    {
      "midi": 69,
      "time": 68.727,
      "duration": 0.258,
      "velocity": 0.72,
      "hand": "right"
    },
    {
      "midi": 38,
      "time": 69,
      "duration": 0.068,
      "velocity": 0.55,
      "hand": "left"
    },
    {
      "midi": 40,
      "time": 69,
      "duration": 0.068,
      "velocity": 0.65,
      "hand": "left"
    },
    {
      "midi": 64,
      "time": 69,
      "duration": 0.121,
      "velocity": 1,
      "hand": "right"
    },
    {
      "midi": 69,
      "time": 69,
      "duration": 0.257,
      "velocity": 0.81,
      "hand": "right"
    },
    {
      "midi": 53,
      "time": 69.136,
      "duration": 0.068,
      "velocity": 0.56,
      "hand": "left"
    },
    {
      "midi": 57,
      "time": 69.136,
      "duration": 0.068,
      "velocity": 0.61,
      "hand": "left"
    },
    {
      "midi": 60,
      "time": 69.136,
      "duration": 0.068,
      "velocity": 0.63,
      "hand": "right"
    },
    {
      "midi": 64,
      "time": 69.136,
      "duration": 0.068,
      "velocity": 0.52,
      "hand": "right"
    },
    {
      "midi": 36,
      "time": 69.272,
      "duration": 0.068,
      "velocity": 0.76,
      "hand": "left"
    },
    {
      "midi": 38,
      "time": 69.272,
      "duration": 0.068,
      "velocity": 0.55,
      "hand": "left"
    },
    {
      "midi": 60,
      "time": 69.272,
      "duration": 0.258,
      "velocity": 0.91,
      "hand": "right"
    },
    {
      "midi": 64,
      "time": 69.272,
      "duration": 0.258,
      "velocity": 0.52,
      "hand": "right"
    },
    {
      "midi": 69,
      "time": 69.272,
      "duration": 0.409,
      "velocity": 0.72,
      "hand": "right"
    },
    {
      "midi": 72,
      "time": 69.272,
      "duration": 0.136,
      "velocity": 0.91,
      "hand": "right"
    },
    {
      "midi": 38,
      "time": 69.409,
      "duration": 0.068,
      "velocity": 0.55,
      "hand": "left"
    },
    {
      "midi": 40,
      "time": 69.409,
      "duration": 0.068,
      "velocity": 0.72,
      "hand": "left"
    },
    {
      "midi": 36,
      "time": 69.545,
      "duration": 0.273,
      "velocity": 0.8,
      "hand": "left"
    },
    {
      "midi": 38,
      "time": 69.545,
      "duration": 0.068,
      "velocity": 0.55,
      "hand": "left"
    },
    {
      "midi": 60,
      "time": 69.545,
      "duration": 0.136,
      "velocity": 0.61,
      "hand": "right"
    },
    {
      "midi": 64,
      "time": 69.545,
      "duration": 0.273,
      "velocity": 0.76,
      "hand": "right"
    },
    {
      "midi": 76,
      "time": 69.545,
      "duration": 0.273,
      "velocity": 0.76,
      "hand": "right"
    },
    {
      "midi": 38,
      "time": 69.682,
      "duration": 0.068,
      "velocity": 0.55,
      "hand": "left"
    },
    {
      "midi": 62,
      "time": 69.682,
      "duration": 0.121,
      "velocity": 0.61,
      "hand": "right"
    },
    {
      "midi": 38,
      "time": 69.818,
      "duration": 0.068,
      "velocity": 0.55,
      "hand": "left"
    },
    {
      "midi": 40,
      "time": 69.818,
      "duration": 0.068,
      "velocity": 0.64,
      "hand": "left"
    },
    {
      "midi": 63,
      "time": 69.818,
      "duration": 0.258,
      "velocity": 0.82,
      "hand": "right"
    },
    {
      "midi": 67,
      "time": 69.818,
      "duration": 0.955,
      "velocity": 0.91,
      "hand": "right"
    },
    {
      "midi": 69,
      "time": 69.818,
      "duration": 0.409,
      "velocity": 0.72,
      "hand": "right"
    },
    {
      "midi": 79,
      "time": 69.818,
      "duration": 0.682,
      "velocity": 0.74,
      "hand": "right"
    },
    {
      "midi": 46,
      "time": 70.091,
      "duration": 0.068,
      "velocity": 0.64,
      "hand": "left"
    },
    {
      "midi": 53,
      "time": 70.091,
      "duration": 0.068,
      "velocity": 0.56,
      "hand": "left"
    },
    {
      "midi": 60,
      "time": 70.091,
      "duration": 0.068,
      "velocity": 0.56,
      "hand": "right"
    },
    {
      "midi": 63,
      "time": 70.091,
      "duration": 0.136,
      "velocity": 0.54,
      "hand": "right"
    },
    {
      "midi": 38,
      "time": 70.227,
      "duration": 0.068,
      "velocity": 0.55,
      "hand": "left"
    },
    {
      "midi": 40,
      "time": 70.227,
      "duration": 0.068,
      "velocity": 0.62,
      "hand": "left"
    },
    {
      "midi": 36,
      "time": 70.363,
      "duration": 0.068,
      "velocity": 0.8,
      "hand": "left"
    },
    {
      "midi": 38,
      "time": 70.363,
      "duration": 0.068,
      "velocity": 0.55,
      "hand": "left"
    },
    {
      "midi": 60,
      "time": 70.363,
      "duration": 0.273,
      "velocity": 0.74,
      "hand": "right"
    },
    {
      "midi": 63,
      "time": 70.363,
      "duration": 0.273,
      "velocity": 0.61,
      "hand": "right"
    },
    {
      "midi": 71,
      "time": 70.363,
      "duration": 0.273,
      "velocity": 0.56,
      "hand": "right"
    },
    {
      "midi": 52,
      "time": 70.5,
      "duration": 0.136,
      "velocity": 0.58,
      "hand": "left"
    },
    {
      "midi": 64,
      "time": 70.5,
      "duration": 0.136,
      "velocity": 0.58,
      "hand": "right"
    },
    {
      "midi": 76,
      "time": 70.5,
      "duration": 0.136,
      "velocity": 0.58,
      "hand": "right"
    },
    {
      "midi": 38,
      "time": 70.636,
      "duration": 0.068,
      "velocity": 0.55,
      "hand": "left"
    },
    {
      "midi": 40,
      "time": 70.636,
      "duration": 0.068,
      "velocity": 0.63,
      "hand": "left"
    },
    {
      "midi": 62,
      "time": 70.636,
      "duration": 0.136,
      "velocity": 0.65,
      "hand": "right"
    },
    {
      "midi": 69,
      "time": 70.636,
      "duration": 0.258,
      "velocity": 0.55,
      "hand": "right"
    },
    {
      "midi": 74,
      "time": 70.636,
      "duration": 0.136,
      "velocity": 0.65,
      "hand": "right"
    },
    {
      "midi": 48,
      "time": 70.772,
      "duration": 0.136,
      "velocity": 0.68,
      "hand": "left"
    },
    {
      "midi": 60,
      "time": 70.772,
      "duration": 0.136,
      "velocity": 0.68,
      "hand": "right"
    },
    {
      "midi": 72,
      "time": 70.772,
      "duration": 0.136,
      "velocity": 0.68,
      "hand": "right"
    },
    {
      "midi": 38,
      "time": 70.909,
      "duration": 0.068,
      "velocity": 0.55,
      "hand": "left"
    },
    {
      "midi": 40,
      "time": 70.909,
      "duration": 0.258,
      "velocity": 0.94,
      "hand": "left"
    },
    {
      "midi": 67,
      "time": 70.909,
      "duration": 0.409,
      "velocity": 0.59,
      "hand": "right"
    },
    {
      "midi": 69,
      "time": 70.909,
      "duration": 0.258,
      "velocity": 0.86,
      "hand": "right"
    },
    {
      "midi": 76,
      "time": 70.909,
      "duration": 0.682,
      "velocity": 0.73,
      "hand": "right"
    },
    {
      "midi": 38,
      "time": 71.182,
      "duration": 0.068,
      "velocity": 0.55,
      "hand": "left"
    },
    {
      "midi": 40,
      "time": 71.182,
      "duration": 0.068,
      "velocity": 0.71,
      "hand": "left"
    },
    {
      "midi": 62,
      "time": 71.182,
      "duration": 0.068,
      "velocity": 0.72,
      "hand": "right"
    },
    {
      "midi": 66,
      "time": 71.182,
      "duration": 0.068,
      "velocity": 0.61,
      "hand": "right"
    },
    {
      "midi": 69,
      "time": 71.182,
      "duration": 0.068,
      "velocity": 0.53,
      "hand": "right"
    },
    {
      "midi": 55,
      "time": 71.318,
      "duration": 0.068,
      "velocity": 0.63,
      "hand": "left"
    },
    {
      "midi": 59,
      "time": 71.318,
      "duration": 0.068,
      "velocity": 0.65,
      "hand": "left"
    },
    {
      "midi": 62,
      "time": 71.318,
      "duration": 0.068,
      "velocity": 0.63,
      "hand": "right"
    },
    {
      "midi": 66,
      "time": 71.318,
      "duration": 0.068,
      "velocity": 0.52,
      "hand": "right"
    },
    {
      "midi": 36,
      "time": 71.454,
      "duration": 0.068,
      "velocity": 0.76,
      "hand": "left"
    },
    {
      "midi": 38,
      "time": 71.454,
      "duration": 0.068,
      "velocity": 0.55,
      "hand": "left"
    },
    {
      "midi": 62,
      "time": 71.454,
      "duration": 0.258,
      "velocity": 0.86,
      "hand": "right"
    },
    {
      "midi": 67,
      "time": 71.454,
      "duration": 0.409,
      "velocity": 0.64,
      "hand": "right"
    },
    {
      "midi": 69,
      "time": 71.454,
      "duration": 0.258,
      "velocity": 0.87,
      "hand": "right"
    },
    {
      "midi": 38,
      "time": 71.591,
      "duration": 0.068,
      "velocity": 0.55,
      "hand": "left"
    },
    {
      "midi": 40,
      "time": 71.591,
      "duration": 0.068,
      "velocity": 0.65,
      "hand": "left"
    },
    {
      "midi": 38,
      "time": 71.727,
      "duration": 0.068,
      "velocity": 0.55,
      "hand": "left"
    },
    {
      "midi": 40,
      "time": 71.727,
      "duration": 0.258,
      "velocity": 0.83,
      "hand": "left"
    },
    {
      "midi": 62,
      "time": 71.727,
      "duration": 0.136,
      "velocity": 0.61,
      "hand": "right"
    },
    {
      "midi": 66,
      "time": 71.727,
      "duration": 0.136,
      "velocity": 0.54,
      "hand": "right"
    },
    {
      "midi": 69,
      "time": 71.727,
      "duration": 0.068,
      "velocity": 0.56,
      "hand": "right"
    },
    {
      "midi": 38,
      "time": 71.863,
      "duration": 0.068,
      "velocity": 0.55,
      "hand": "left"
    },
    {
      "midi": 39,
      "time": 72,
      "duration": 0.545,
      "velocity": 0.85,
      "hand": "left"
    },
    {
      "midi": 65,
      "time": 72,
      "duration": 0.136,
      "velocity": 0.59,
      "hand": "right"
    },
    {
      "midi": 68,
      "time": 72,
      "duration": 0.53,
      "velocity": 0.92,
      "hand": "right"
    },
    {
      "midi": 46,
      "time": 72.272,
      "duration": 0.068,
      "velocity": 0.64,
      "hand": "left"
    },
    {
      "midi": 54,
      "time": 72.272,
      "duration": 0.068,
      "velocity": 0.72,
      "hand": "left"
    },
    {
      "midi": 61,
      "time": 72.272,
      "duration": 0.068,
      "velocity": 0.63,
      "hand": "right"
    },
    {
      "midi": 65,
      "time": 72.272,
      "duration": 0.068,
      "velocity": 0.54,
      "hand": "right"
    },
    {
      "midi": 38,
      "time": 72.409,
      "duration": 0.068,
      "velocity": 0.55,
      "hand": "left"
    },
    {
      "midi": 40,
      "time": 72.409,
      "duration": 0.068,
      "velocity": 0.8,
      "hand": "left"
    },
    {
      "midi": 36,
      "time": 72.545,
      "duration": 0.068,
      "velocity": 0.61,
      "hand": "left"
    },
    {
      "midi": 38,
      "time": 72.545,
      "duration": 0.068,
      "velocity": 0.55,
      "hand": "left"
    },
    {
      "midi": 61,
      "time": 72.545,
      "duration": 0.258,
      "velocity": 0.83,
      "hand": "right"
    },
    {
      "midi": 65,
      "time": 72.545,
      "duration": 0.068,
      "velocity": 0.7,
      "hand": "right"
    },
    {
      "midi": 68,
      "time": 72.545,
      "duration": 0.409,
      "velocity": 0.59,
      "hand": "right"
    },
    {
      "midi": 52,
      "time": 72.682,
      "duration": 0.136,
      "velocity": 0.73,
      "hand": "left"
    },
    {
      "midi": 64,
      "time": 72.682,
      "duration": 0.136,
      "velocity": 0.73,
      "hand": "right"
    },
    {
      "midi": 76,
      "time": 72.682,
      "duration": 0.136,
      "velocity": 0.73,
      "hand": "right"
    },
    {
      "midi": 39,
      "time": 72.818,
      "duration": 0.273,
      "velocity": 0.76,
      "hand": "left"
    },
    {
      "midi": 62,
      "time": 72.818,
      "duration": 0.136,
      "velocity": 0.72,
      "hand": "right"
    },
    {
      "midi": 65,
      "time": 72.818,
      "duration": 0.258,
      "velocity": 0.73,
      "hand": "right"
    },
    {
      "midi": 74,
      "time": 72.818,
      "duration": 0.136,
      "velocity": 0.72,
      "hand": "right"
    },
    {
      "midi": 48,
      "time": 72.954,
      "duration": 0.136,
      "velocity": 0.57,
      "hand": "left"
    },
    {
      "midi": 60,
      "time": 72.954,
      "duration": 0.122,
      "velocity": 0.57,
      "hand": "right"
    },
    {
      "midi": 72,
      "time": 72.954,
      "duration": 0.136,
      "velocity": 0.57,
      "hand": "right"
    },
    {
      "midi": 38,
      "time": 73.091,
      "duration": 0.394,
      "velocity": 0.87,
      "hand": "left"
    },
    {
      "midi": 42,
      "time": 73.091,
      "duration": 0.068,
      "velocity": 0.71,
      "hand": "left"
    },
    {
      "midi": 65,
      "time": 73.091,
      "duration": 0.682,
      "velocity": 1,
      "hand": "right"
    },
    {
      "midi": 67,
      "time": 73.091,
      "duration": 0.53,
      "velocity": 0.82,
      "hand": "right"
    },
    {
      "midi": 69,
      "time": 73.091,
      "duration": 0.682,
      "velocity": 0.93,
      "hand": "right"
    },
    {
      "midi": 74,
      "time": 73.091,
      "duration": 0.545,
      "velocity": 0.83,
      "hand": "right"
    },
    {
      "midi": 46,
      "time": 73.363,
      "duration": 0.068,
      "velocity": 0.64,
      "hand": "left"
    },
    {
      "midi": 54,
      "time": 73.363,
      "duration": 0.068,
      "velocity": 0.61,
      "hand": "left"
    },
    {
      "midi": 38,
      "time": 73.5,
      "duration": 0.068,
      "velocity": 0.55,
      "hand": "left"
    },
    {
      "midi": 40,
      "time": 73.5,
      "duration": 0.068,
      "velocity": 0.64,
      "hand": "left"
    },
    {
      "midi": 60,
      "time": 73.5,
      "duration": 0.068,
      "velocity": 0.59,
      "hand": "right"
    },
    {
      "midi": 64,
      "time": 73.5,
      "duration": 0.068,
      "velocity": 0.56,
      "hand": "right"
    },
    {
      "midi": 36,
      "time": 73.636,
      "duration": 0.068,
      "velocity": 0.8,
      "hand": "left"
    },
    {
      "midi": 38,
      "time": 73.636,
      "duration": 0.068,
      "velocity": 0.55,
      "hand": "left"
    },
    {
      "midi": 60,
      "time": 73.636,
      "duration": 0.136,
      "velocity": 0.87,
      "hand": "right"
    },
    {
      "midi": 64,
      "time": 73.636,
      "duration": 0.258,
      "velocity": 0.73,
      "hand": "right"
    },
    {
      "midi": 67,
      "time": 73.636,
      "duration": 0.136,
      "velocity": 0.8,
      "hand": "right"
    },
    {
      "midi": 76,
      "time": 73.636,
      "duration": 0.273,
      "velocity": 0.73,
      "hand": "right"
    },
    {
      "midi": 38,
      "time": 73.909,
      "duration": 0.258,
      "velocity": 0.8,
      "hand": "left"
    },
    {
      "midi": 40,
      "time": 73.909,
      "duration": 0.068,
      "velocity": 0.64,
      "hand": "left"
    },
    {
      "midi": 65,
      "time": 73.909,
      "duration": 0.136,
      "velocity": 0.57,
      "hand": "right"
    },
    {
      "midi": 67,
      "time": 73.909,
      "duration": 0.068,
      "velocity": 0.55,
      "hand": "right"
    },
    {
      "midi": 74,
      "time": 73.909,
      "duration": 0.136,
      "velocity": 0.7,
      "hand": "right"
    },
    {
      "midi": 38,
      "time": 74.182,
      "duration": 0.068,
      "velocity": 0.55,
      "hand": "left"
    },
    {
      "midi": 65,
      "time": 74.182,
      "duration": 0.257,
      "velocity": 0.95,
      "hand": "right"
    },
    {
      "midi": 68,
      "time": 74.182,
      "duration": 0.121,
      "velocity": 0.94,
      "hand": "right"
    },
    {
      "midi": 71,
      "time": 74.182,
      "duration": 0.394,
      "velocity": 0.96,
      "hand": "right"
    },
    {
      "midi": 44,
      "time": 74.318,
      "duration": 0.136,
      "velocity": 0.59,
      "hand": "left"
    },
    {
      "midi": 56,
      "time": 74.318,
      "duration": 0.136,
      "velocity": 0.59,
      "hand": "left"
    },
    {
      "midi": 68,
      "time": 74.318,
      "duration": 0.136,
      "velocity": 0.59,
      "hand": "right"
    },
    {
      "midi": 38,
      "time": 74.454,
      "duration": 0.068,
      "velocity": 0.55,
      "hand": "left"
    },
    {
      "midi": 40,
      "time": 74.454,
      "duration": 0.068,
      "velocity": 0.65,
      "hand": "left"
    },
    {
      "midi": 65,
      "time": 74.454,
      "duration": 0.136,
      "velocity": 0.53,
      "hand": "right"
    },
    {
      "midi": 69,
      "time": 74.454,
      "duration": 0.136,
      "velocity": 0.64,
      "hand": "right"
    },
    {
      "midi": 47,
      "time": 74.591,
      "duration": 0.121,
      "velocity": 0.51,
      "hand": "left"
    },
    {
      "midi": 71,
      "time": 74.591,
      "duration": 0.136,
      "velocity": 0.51,
      "hand": "right"
    },
    {
      "midi": 36,
      "time": 74.727,
      "duration": 0.068,
      "velocity": 0.76,
      "hand": "left"
    },
    {
      "midi": 38,
      "time": 74.727,
      "duration": 0.068,
      "velocity": 0.55,
      "hand": "left"
    },
    {
      "midi": 64,
      "time": 74.727,
      "duration": 0.136,
      "velocity": 0.65,
      "hand": "right"
    },
    {
      "midi": 67,
      "time": 74.727,
      "duration": 0.136,
      "velocity": 0.59,
      "hand": "right"
    },
    {
      "midi": 38,
      "time": 74.863,
      "duration": 0.068,
      "velocity": 0.55,
      "hand": "left"
    },
    {
      "midi": 40,
      "time": 74.863,
      "duration": 0.068,
      "velocity": 0.72,
      "hand": "left"
    },
    {
      "midi": 60,
      "time": 74.863,
      "duration": 0.136,
      "velocity": 0.68,
      "hand": "right"
    },
    {
      "midi": 72,
      "time": 74.863,
      "duration": 0.136,
      "velocity": 0.68,
      "hand": "right"
    },
    {
      "midi": 38,
      "time": 75,
      "duration": 0.068,
      "velocity": 0.55,
      "hand": "left"
    },
    {
      "midi": 61,
      "time": 75,
      "duration": 0.136,
      "velocity": 0.59,
      "hand": "right"
    },
    {
      "midi": 63,
      "time": 75,
      "duration": 0.068,
      "velocity": 0.4,
      "hand": "right"
    },
    {
      "midi": 73,
      "time": 75,
      "duration": 0.136,
      "velocity": 0.59,
      "hand": "right"
    },
    {
      "midi": 38,
      "time": 75.136,
      "duration": 0.068,
      "velocity": 0.55,
      "hand": "left"
    },
    {
      "midi": 50,
      "time": 75.136,
      "duration": 0.136,
      "velocity": 0.53,
      "hand": "left"
    },
    {
      "midi": 62,
      "time": 75.136,
      "duration": 0.121,
      "velocity": 0.53,
      "hand": "right"
    },
    {
      "midi": 74,
      "time": 75.136,
      "duration": 0.136,
      "velocity": 0.53,
      "hand": "right"
    },
    {
      "midi": 40,
      "time": 75.272,
      "duration": 0.395,
      "velocity": 0.95,
      "hand": "left"
    },
    {
      "midi": 42,
      "time": 75.272,
      "duration": 0.068,
      "velocity": 0.71,
      "hand": "left"
    },
    {
      "midi": 67,
      "time": 75.272,
      "duration": 0.545,
      "velocity": 0.91,
      "hand": "right"
    },
    {
      "midi": 69,
      "time": 75.272,
      "duration": 0.531,
      "velocity": 1,
      "hand": "right"
    },
    {
      "midi": 72,
      "time": 75.272,
      "duration": 0.682,
      "velocity": 0.86,
      "hand": "right"
    },
    {
      "midi": 79,
      "time": 75.272,
      "duration": 1.091,
      "velocity": 0.85,
      "hand": "right"
    },
    {
      "midi": 46,
      "time": 75.545,
      "duration": 0.068,
      "velocity": 0.64,
      "hand": "left"
    },
    {
      "midi": 51,
      "time": 75.545,
      "duration": 0.068,
      "velocity": 0.69,
      "hand": "left"
    },
    {
      "midi": 38,
      "time": 75.682,
      "duration": 0.068,
      "velocity": 0.55,
      "hand": "left"
    },
    {
      "midi": 40,
      "time": 75.682,
      "duration": 0.068,
      "velocity": 0.64,
      "hand": "left"
    },
    {
      "midi": 62,
      "time": 75.682,
      "duration": 0.068,
      "velocity": 0.68,
      "hand": "right"
    },
    {
      "midi": 66,
      "time": 75.682,
      "duration": 0.068,
      "velocity": 0.5,
      "hand": "right"
    },
    {
      "midi": 36,
      "time": 75.818,
      "duration": 0.068,
      "velocity": 0.8,
      "hand": "left"
    },
    {
      "midi": 38,
      "time": 75.818,
      "duration": 0.068,
      "velocity": 0.55,
      "hand": "left"
    },
    {
      "midi": 63,
      "time": 75.818,
      "duration": 0.068,
      "velocity": 0.5,
      "hand": "right"
    },
    {
      "midi": 66,
      "time": 75.818,
      "duration": 0.258,
      "velocity": 0.53,
      "hand": "right"
    },
    {
      "midi": 69,
      "time": 75.818,
      "duration": 0.273,
      "velocity": 0.56,
      "hand": "right"
    },
    {
      "midi": 65,
      "time": 75.954,
      "duration": 0.136,
      "velocity": 0.84,
      "hand": "right"
    },
    {
      "midi": 38,
      "time": 76.091,
      "duration": 0.068,
      "velocity": 0.55,
      "hand": "left"
    },
    {
      "midi": 40,
      "time": 76.091,
      "duration": 0.068,
      "velocity": 0.64,
      "hand": "left"
    },
    {
      "midi": 62,
      "time": 76.091,
      "duration": 0.068,
      "velocity": 0.68,
      "hand": "right"
    },
    {
      "midi": 67,
      "time": 76.091,
      "duration": 0.136,
      "velocity": 0.75,
      "hand": "right"
    },
    {
      "midi": 39,
      "time": 76.227,
      "duration": 0.068,
      "velocity": 0.15,
      "hand": "left"
    },
    {
      "midi": 69,
      "time": 76.227,
      "duration": 0.136,
      "velocity": 0.76,
      "hand": "right"
    },
    {
      "midi": 39,
      "time": 76.363,
      "duration": 0.531,
      "velocity": 0.95,
      "hand": "left"
    },
    {
      "midi": 65,
      "time": 76.363,
      "duration": 0.258,
      "velocity": 0.61,
      "hand": "right"
    },
    {
      "midi": 68,
      "time": 76.363,
      "duration": 0.531,
      "velocity": 0.97,
      "hand": "right"
    },
    {
      "midi": 70,
      "time": 76.363,
      "duration": 0.273,
      "velocity": 0.8,
      "hand": "right"
    },
    {
      "midi": 80,
      "time": 76.363,
      "duration": 1.091,
      "velocity": 0.81,
      "hand": "right"
    },
    {
      "midi": 38,
      "time": 76.636,
      "duration": 0.068,
      "velocity": 0.55,
      "hand": "left"
    },
    {
      "midi": 40,
      "time": 76.636,
      "duration": 0.068,
      "velocity": 0.65,
      "hand": "left"
    },
    {
      "midi": 61,
      "time": 76.636,
      "duration": 0.068,
      "velocity": 0.65,
      "hand": "right"
    },
    {
      "midi": 65,
      "time": 76.636,
      "duration": 0.068,
      "velocity": 0.63,
      "hand": "right"
    },
    {
      "midi": 69,
      "time": 76.772,
      "duration": 0.273,
      "velocity": 0.88,
      "hand": "right"
    },
    {
      "midi": 36,
      "time": 76.909,
      "duration": 0.068,
      "velocity": 0.76,
      "hand": "left"
    },
    {
      "midi": 38,
      "time": 76.909,
      "duration": 0.068,
      "velocity": 0.55,
      "hand": "left"
    },
    {
      "midi": 61,
      "time": 76.909,
      "duration": 0.258,
      "velocity": 0.65,
      "hand": "right"
    },
    {
      "midi": 65,
      "time": 76.909,
      "duration": 0.068,
      "velocity": 0.65,
      "hand": "right"
    },
    {
      "midi": 68,
      "time": 76.909,
      "duration": 0.409,
      "velocity": 0.54,
      "hand": "right"
    },
    {
      "midi": 38,
      "time": 77.045,
      "duration": 0.068,
      "velocity": 0.55,
      "hand": "left"
    },
    {
      "midi": 40,
      "time": 77.045,
      "duration": 0.068,
      "velocity": 0.72,
      "hand": "left"
    },
    {
      "midi": 38,
      "time": 77.182,
      "duration": 0.068,
      "velocity": 0.55,
      "hand": "left"
    },
    {
      "midi": 46,
      "time": 77.182,
      "duration": 0.068,
      "velocity": 0.64,
      "hand": "left"
    },
    {
      "midi": 61,
      "time": 77.182,
      "duration": 0.068,
      "velocity": 0.72,
      "hand": "right"
    },
    {
      "midi": 65,
      "time": 77.182,
      "duration": 0.068,
      "velocity": 0.72,
      "hand": "right"
    },
    {
      "midi": 67,
      "time": 77.182,
      "duration": 0.257,
      "velocity": 0.88,
      "hand": "right"
    },
    {
      "midi": 38,
      "time": 77.318,
      "duration": 0.068,
      "velocity": 0.55,
      "hand": "left"
    },
    {
      "midi": 38,
      "time": 77.454,
      "duration": 0.394,
      "velocity": 0.92,
      "hand": "left"
    },
    {
      "midi": 40,
      "time": 77.454,
      "duration": 0.068,
      "velocity": 0.64,
      "hand": "left"
    },
    {
      "midi": 65,
      "time": 77.454,
      "duration": 0.667,
      "velocity": 0.96,
      "hand": "right"
    },
    {
      "midi": 67,
      "time": 77.454,
      "duration": 0.531,
      "velocity": 1,
      "hand": "right"
    },
    {
      "midi": 69,
      "time": 77.454,
      "duration": 0.682,
      "velocity": 0.89,
      "hand": "right"
    },
    {
      "midi": 81,
      "time": 77.454,
      "duration": 1.091,
      "velocity": 0.75,
      "hand": "right"
    },
    {
      "midi": 46,
      "time": 77.727,
      "duration": 0.068,
      "velocity": 0.64,
      "hand": "left"
    },
    {
      "midi": 51,
      "time": 77.727,
      "duration": 0.068,
      "velocity": 0.65,
      "hand": "left"
    },
    {
      "midi": 38,
      "time": 77.863,
      "duration": 0.068,
      "velocity": 0.55,
      "hand": "left"
    },
    {
      "midi": 40,
      "time": 77.863,
      "duration": 0.068,
      "velocity": 0.62,
      "hand": "left"
    },
    {
      "midi": 60,
      "time": 77.863,
      "duration": 0.068,
      "velocity": 0.65,
      "hand": "right"
    },
    {
      "midi": 64,
      "time": 77.863,
      "duration": 0.068,
      "velocity": 0.56,
      "hand": "right"
    },
    {
      "midi": 36,
      "time": 78,
      "duration": 0.068,
      "velocity": 0.8,
      "hand": "left"
    },
    {
      "midi": 38,
      "time": 78,
      "duration": 0.257,
      "velocity": 0.56,
      "hand": "left"
    },
    {
      "midi": 60,
      "time": 78,
      "duration": 0.136,
      "velocity": 0.72,
      "hand": "right"
    },
    {
      "midi": 64,
      "time": 78,
      "duration": 0.068,
      "velocity": 0.54,
      "hand": "right"
    },
    {
      "midi": 67,
      "time": 78,
      "duration": 0.257,
      "velocity": 0.48,
      "hand": "right"
    },
    {
      "midi": 65,
      "time": 78.136,
      "duration": 0.136,
      "velocity": 0.95,
      "hand": "right"
    },
    {
      "midi": 38,
      "time": 78.272,
      "duration": 0.068,
      "velocity": 0.55,
      "hand": "left"
    },
    {
      "midi": 40,
      "time": 78.272,
      "duration": 0.068,
      "velocity": 0.63,
      "hand": "left"
    },
    {
      "midi": 60,
      "time": 78.272,
      "duration": 0.136,
      "velocity": 0.74,
      "hand": "right"
    },
    {
      "midi": 64,
      "time": 78.272,
      "duration": 0.068,
      "velocity": 0.69,
      "hand": "right"
    },
    {
      "midi": 67,
      "time": 78.272,
      "duration": 0.136,
      "velocity": 0.83,
      "hand": "right"
    },
    {
      "midi": 69,
      "time": 78.409,
      "duration": 0.136,
      "velocity": 0.86,
      "hand": "right"
    },
    {
      "midi": 38,
      "time": 78.545,
      "duration": 0.068,
      "velocity": 0.55,
      "hand": "left"
    },
    {
      "midi": 68,
      "time": 78.545,
      "duration": 0.818,
      "velocity": 0.9,
      "hand": "right"
    },
    {
      "midi": 72,
      "time": 78.545,
      "duration": 0.409,
      "velocity": 0.81,
      "hand": "right"
    },
    {
      "midi": 83,
      "time": 78.545,
      "duration": 1.091,
      "velocity": 0.9,
      "hand": "right"
    },
    {
      "midi": 38,
      "time": 78.818,
      "duration": 0.068,
      "velocity": 0.55,
      "hand": "left"
    },
    {
      "midi": 40,
      "time": 78.818,
      "duration": 0.068,
      "velocity": 0.71,
      "hand": "left"
    },
    {
      "midi": 63,
      "time": 78.818,
      "duration": 0.136,
      "velocity": 0.51,
      "hand": "right"
    },
    {
      "midi": 71,
      "time": 78.954,
      "duration": 0.273,
      "velocity": 0.75,
      "hand": "right"
    },
    {
      "midi": 37,
      "time": 79.091,
      "duration": 0.273,
      "velocity": 0.49,
      "hand": "left"
    },
    {
      "midi": 63,
      "time": 79.091,
      "duration": 0.257,
      "velocity": 0.57,
      "hand": "right"
    },
    {
      "midi": 67,
      "time": 79.091,
      "duration": 0.273,
      "velocity": 0.43,
      "hand": "right"
    },
    {
      "midi": 38,
      "time": 79.227,
      "duration": 0.068,
      "velocity": 0.55,
      "hand": "left"
    },
    {
      "midi": 40,
      "time": 79.227,
      "duration": 0.068,
      "velocity": 0.65,
      "hand": "left"
    },
    {
      "midi": 38,
      "time": 79.363,
      "duration": 0.068,
      "velocity": 0.55,
      "hand": "left"
    },
    {
      "midi": 46,
      "time": 79.363,
      "duration": 0.068,
      "velocity": 0.64,
      "hand": "left"
    },
    {
      "midi": 63,
      "time": 79.363,
      "duration": 0.136,
      "velocity": 0.57,
      "hand": "right"
    },
    {
      "midi": 69,
      "time": 79.363,
      "duration": 0.273,
      "velocity": 0.77,
      "hand": "right"
    },
    {
      "midi": 38,
      "time": 79.5,
      "duration": 0.068,
      "velocity": 0.55,
      "hand": "left"
    },
    {
      "midi": 36,
      "time": 79.636,
      "duration": 0.531,
      "velocity": 0.96,
      "hand": "left"
    },
    {
      "midi": 38,
      "time": 79.636,
      "duration": 0.068,
      "velocity": 0.55,
      "hand": "left"
    },
    {
      "midi": 62,
      "time": 79.636,
      "duration": 0.394,
      "velocity": 1,
      "hand": "right"
    },
    {
      "midi": 67,
      "time": 79.636,
      "duration": 0.667,
      "velocity": 1,
      "hand": "right"
    },
    {
      "midi": 74,
      "time": 79.636,
      "duration": 1.091,
      "velocity": 0.72,
      "hand": "right"
    },
    {
      "midi": 46,
      "time": 79.909,
      "duration": 0.068,
      "velocity": 0.64,
      "hand": "left"
    },
    {
      "midi": 51,
      "time": 79.909,
      "duration": 0.068,
      "velocity": 0.65,
      "hand": "left"
    },
    {
      "midi": 38,
      "time": 80.045,
      "duration": 0.068,
      "velocity": 0.55,
      "hand": "left"
    },
    {
      "midi": 40,
      "time": 80.045,
      "duration": 0.068,
      "velocity": 0.8,
      "hand": "left"
    },
    {
      "midi": 62,
      "time": 80.045,
      "duration": 0.068,
      "velocity": 0.69,
      "hand": "right"
    },
    {
      "midi": 36,
      "time": 80.182,
      "duration": 0.068,
      "velocity": 0.61,
      "hand": "left"
    },
    {
      "midi": 38,
      "time": 80.182,
      "duration": 0.068,
      "velocity": 0.55,
      "hand": "left"
    },
    {
      "midi": 62,
      "time": 80.182,
      "duration": 0.068,
      "velocity": 0.61,
      "hand": "right"
    },
    {
      "midi": 67,
      "time": 80.318,
      "duration": 0.136,
      "velocity": 0.97,
      "hand": "right"
    },
    {
      "midi": 38,
      "time": 80.454,
      "duration": 0.068,
      "velocity": 0.55,
      "hand": "left"
    },
    {
      "midi": 40,
      "time": 80.454,
      "duration": 0.068,
      "velocity": 0.69,
      "hand": "left"
    },
    {
      "midi": 62,
      "time": 80.454,
      "duration": 0.136,
      "velocity": 0.75,
      "hand": "right"
    },
    {
      "midi": 69,
      "time": 80.454,
      "duration": 0.136,
      "velocity": 0.84,
      "hand": "right"
    },
    {
      "midi": 71,
      "time": 80.591,
      "duration": 0.136,
      "velocity": 0.83,
      "hand": "right"
    },
    {
      "midi": 38,
      "time": 80.727,
      "duration": 0.068,
      "velocity": 0.55,
      "hand": "left"
    },
    {
      "midi": 40,
      "time": 80.727,
      "duration": 0.068,
      "velocity": 0.36,
      "hand": "left"
    },
    {
      "midi": 54,
      "time": 80.863,
      "duration": 0.068,
      "velocity": 0.2,
      "hand": "left"
    },
    {
      "midi": 38,
      "time": 81,
      "duration": 0.068,
      "velocity": 0.55,
      "hand": "left"
    },
    {
      "midi": 40,
      "time": 81,
      "duration": 0.068,
      "velocity": 0.47,
      "hand": "left"
    },
    {
      "midi": 62,
      "time": 81,
      "duration": 0.136,
      "velocity": 0.75,
      "hand": "right"
    },
    {
      "midi": 65,
      "time": 81,
      "duration": 0.136,
      "velocity": 0.72,
      "hand": "right"
    },
    {
      "midi": 70,
      "time": 81,
      "duration": 0.136,
      "velocity": 0.63,
      "hand": "right"
    },
    {
      "midi": 36,
      "time": 81.272,
      "duration": 0.068,
      "velocity": 0.5,
      "hand": "left"
    },
    {
      "midi": 43,
      "time": 81.272,
      "duration": 0.258,
      "velocity": 0.9,
      "hand": "left"
    },
    {
      "midi": 38,
      "time": 81.545,
      "duration": 0.068,
      "velocity": 0.55,
      "hand": "left"
    },
    {
      "midi": 40,
      "time": 81.545,
      "duration": 0.068,
      "velocity": 0.47,
      "hand": "left"
    },
    {
      "midi": 62,
      "time": 81.545,
      "duration": 0.136,
      "velocity": 0.72,
      "hand": "right"
    },
    {
      "midi": 65,
      "time": 81.545,
      "duration": 0.136,
      "velocity": 0.69,
      "hand": "right"
    },
    {
      "midi": 70,
      "time": 81.545,
      "duration": 0.136,
      "velocity": 0.57,
      "hand": "right"
    },
    {
      "midi": 43,
      "time": 81.818,
      "duration": 0.258,
      "velocity": 0.61,
      "hand": "left"
    },
    {
      "midi": 47,
      "time": 81.818,
      "duration": 0.068,
      "velocity": 0.5,
      "hand": "left"
    },
    {
      "midi": 38,
      "time": 82.091,
      "duration": 0.068,
      "velocity": 0.55,
      "hand": "left"
    },
    {
      "midi": 40,
      "time": 82.091,
      "duration": 0.068,
      "velocity": 0.47,
      "hand": "left"
    },
    {
      "midi": 62,
      "time": 82.091,
      "duration": 0.136,
      "velocity": 0.72,
      "hand": "right"
    },
    {
      "midi": 65,
      "time": 82.091,
      "duration": 0.273,
      "velocity": 1,
      "hand": "right"
    },
    {
      "midi": 70,
      "time": 82.091,
      "duration": 0.273,
      "velocity": 0.88,
      "hand": "right"
    },
    {
      "midi": 36,
      "time": 82.363,
      "duration": 0.068,
      "velocity": 0.5,
      "hand": "left"
    },
    {
      "midi": 43,
      "time": 82.363,
      "duration": 0.258,
      "velocity": 0.57,
      "hand": "left"
    },
    {
      "midi": 38,
      "time": 82.636,
      "duration": 0.068,
      "velocity": 0.55,
      "hand": "left"
    },
    {
      "midi": 40,
      "time": 82.636,
      "duration": 0.068,
      "velocity": 0.47,
      "hand": "left"
    },
    {
      "midi": 62,
      "time": 82.636,
      "duration": 0.136,
      "velocity": 0.59,
      "hand": "right"
    },
    {
      "midi": 65,
      "time": 82.636,
      "duration": 0.136,
      "velocity": 0.5,
      "hand": "right"
    },
    {
      "midi": 70,
      "time": 82.636,
      "duration": 0.136,
      "velocity": 0.5,
      "hand": "right"
    },
    {
      "midi": 36,
      "time": 82.909,
      "duration": 1.909,
      "velocity": 0.8,
      "hand": "left"
    },
    {
      "midi": 38,
      "time": 82.909,
      "duration": 0.068,
      "velocity": 0.55,
      "hand": "left"
    },
    {
      "midi": 62,
      "time": 82.909,
      "duration": 1.636,
      "velocity": 0.64,
      "hand": "right"
    },
    {
      "midi": 66,
      "time": 82.909,
      "duration": 1.636,
      "velocity": 0.61,
      "hand": "right"
    },
    {
      "midi": 69,
      "time": 82.909,
      "duration": 1.636,
      "velocity": 0.64,
      "hand": "right"
    }
  ],
  "arrangements": {
    "easy": [
      {
        "midi": 69,
        "time": 0,
        "duration": 0.53,
        "velocity": 1,
        "hand": "right"
      },
      {
        "midi": 65,
        "time": 0.682,
        "duration": 0.45,
        "velocity": 0.84,
        "hand": "right"
      },
      {
        "midi": 65,
        "time": 1.363,
        "duration": 0.45,
        "velocity": 0.63,
        "hand": "right"
      },
      {
        "midi": 62,
        "time": 2.045,
        "duration": 0.45,
        "velocity": 0.55,
        "hand": "right"
      },
      {
        "midi": 67,
        "time": 2.727,
        "duration": 0.45,
        "velocity": 0.48,
        "hand": "right"
      },
      {
        "midi": 63,
        "time": 3.545,
        "duration": 0.45,
        "velocity": 0.51,
        "hand": "right"
      },
      {
        "midi": 62,
        "time": 4.227,
        "duration": 0.45,
        "velocity": 0.55,
        "hand": "right"
      },
      {
        "midi": 62,
        "time": 4.909,
        "duration": 0.45,
        "velocity": 0.61,
        "hand": "right"
      },
      {
        "midi": 66,
        "time": 5.591,
        "duration": 0.45,
        "velocity": 0.2,
        "hand": "right"
      },
      {
        "midi": 82,
        "time": 6.272,
        "duration": 0.45,
        "velocity": 0.57,
        "hand": "right"
      },
      {
        "midi": 55,
        "time": 7.091,
        "duration": 0.45,
        "velocity": 1,
        "hand": "right"
      },
      {
        "midi": 60,
        "time": 7.909,
        "duration": 0.45,
        "velocity": 0.68,
        "hand": "right"
      },
      {
        "midi": 71,
        "time": 8.727,
        "duration": 0.45,
        "velocity": 0.9,
        "hand": "right"
      },
      {
        "midi": 57,
        "time": 9.409,
        "duration": 0.45,
        "velocity": 0.95,
        "hand": "right"
      },
      {
        "midi": 69,
        "time": 10.363,
        "duration": 0.45,
        "velocity": 0.85,
        "hand": "right"
      },
      {
        "midi": 69,
        "time": 11.454,
        "duration": 0.45,
        "velocity": 0.54,
        "hand": "right"
      },
      {
        "midi": 67,
        "time": 12.545,
        "duration": 0.45,
        "velocity": 0.77,
        "hand": "right"
      },
      {
        "midi": 67,
        "time": 13.636,
        "duration": 0.45,
        "velocity": 0.54,
        "hand": "right"
      },
      {
        "midi": 65,
        "time": 14.727,
        "duration": 0.45,
        "velocity": 0.96,
        "hand": "right"
      },
      {
        "midi": 64,
        "time": 15.682,
        "duration": 0.45,
        "velocity": 0.73,
        "hand": "right"
      },
      {
        "midi": 69,
        "time": 16.363,
        "duration": 0.45,
        "velocity": 0.72,
        "hand": "right"
      },
      {
        "midi": 69,
        "time": 17.454,
        "duration": 0.45,
        "velocity": 0.72,
        "hand": "right"
      },
      {
        "midi": 69,
        "time": 18.272,
        "duration": 0.45,
        "velocity": 0.55,
        "hand": "right"
      },
      {
        "midi": 69,
        "time": 19.091,
        "duration": 0.45,
        "velocity": 0.87,
        "hand": "right"
      },
      {
        "midi": 64,
        "time": 20.182,
        "duration": 0.45,
        "velocity": 0.74,
        "hand": "right"
      },
      {
        "midi": 64,
        "time": 21.272,
        "duration": 0.45,
        "velocity": 0.72,
        "hand": "right"
      },
      {
        "midi": 65,
        "time": 22.091,
        "duration": 0.45,
        "velocity": 0.53,
        "hand": "right"
      },
      {
        "midi": 72,
        "time": 22.909,
        "duration": 0.45,
        "velocity": 0.96,
        "hand": "right"
      },
      {
        "midi": 72,
        "time": 24,
        "duration": 0.545,
        "velocity": 0.78,
        "hand": "right"
      },
      {
        "midi": 82,
        "time": 24.818,
        "duration": 0.45,
        "velocity": 0.57,
        "hand": "right"
      },
      {
        "midi": 65,
        "time": 25.636,
        "duration": 0.45,
        "velocity": 0.75,
        "hand": "right"
      },
      {
        "midi": 82,
        "time": 26.454,
        "duration": 0.45,
        "velocity": 0.79,
        "hand": "right"
      },
      {
        "midi": 69,
        "time": 27.272,
        "duration": 0.45,
        "velocity": 0.85,
        "hand": "right"
      },
      {
        "midi": 67,
        "time": 27.954,
        "duration": 0.45,
        "velocity": 0.57,
        "hand": "right"
      },
      {
        "midi": 72,
        "time": 28.636,
        "duration": 0.45,
        "velocity": 0.76,
        "hand": "right"
      },
      {
        "midi": 72,
        "time": 29.454,
        "duration": 0.545,
        "velocity": 0.72,
        "hand": "right"
      },
      {
        "midi": 64,
        "time": 30.136,
        "duration": 0.45,
        "velocity": 0.76,
        "hand": "right"
      },
      {
        "midi": 66,
        "time": 30.818,
        "duration": 0.45,
        "velocity": 0.61,
        "hand": "right"
      },
      {
        "midi": 65,
        "time": 31.636,
        "duration": 0.531,
        "velocity": 1,
        "hand": "right"
      },
      {
        "midi": 55,
        "time": 32.318,
        "duration": 0.45,
        "velocity": 0.59,
        "hand": "right"
      },
      {
        "midi": 58,
        "time": 33,
        "duration": 0.45,
        "velocity": 0.64,
        "hand": "right"
      },
      {
        "midi": 60,
        "time": 33.682,
        "duration": 0.45,
        "velocity": 0.57,
        "hand": "right"
      },
      {
        "midi": 72,
        "time": 34.363,
        "duration": 0.45,
        "velocity": 0.91,
        "hand": "right"
      },
      {
        "midi": 63,
        "time": 35.182,
        "duration": 0.45,
        "velocity": 0.54,
        "hand": "right"
      },
      {
        "midi": 72,
        "time": 35.863,
        "duration": 0.45,
        "velocity": 0.68,
        "hand": "right"
      },
      {
        "midi": 69,
        "time": 36.545,
        "duration": 0.45,
        "velocity": 0.87,
        "hand": "right"
      },
      {
        "midi": 65,
        "time": 37.363,
        "duration": 0.45,
        "velocity": 0.54,
        "hand": "right"
      },
      {
        "midi": 72,
        "time": 38.045,
        "duration": 0.45,
        "velocity": 0.57,
        "hand": "right"
      },
      {
        "midi": 76,
        "time": 38.727,
        "duration": 0.45,
        "velocity": 0.73,
        "hand": "right"
      },
      {
        "midi": 68,
        "time": 39.409,
        "duration": 0.45,
        "velocity": 0.59,
        "hand": "right"
      },
      {
        "midi": 73,
        "time": 40.091,
        "duration": 0.45,
        "velocity": 0.59,
        "hand": "right"
      },
      {
        "midi": 64,
        "time": 40.772,
        "duration": 0.45,
        "velocity": 0.62,
        "hand": "right"
      },
      {
        "midi": 62,
        "time": 41.454,
        "duration": 0.45,
        "velocity": 0.55,
        "hand": "right"
      },
      {
        "midi": 82,
        "time": 42.272,
        "duration": 0.45,
        "velocity": 0.57,
        "hand": "right"
      },
      {
        "midi": 62,
        "time": 43.091,
        "duration": 0.45,
        "velocity": 0.55,
        "hand": "right"
      },
      {
        "midi": 82,
        "time": 43.909,
        "duration": 0.45,
        "velocity": 0.79,
        "hand": "right"
      },
      {
        "midi": 62,
        "time": 44.591,
        "duration": 0.45,
        "velocity": 0.68,
        "hand": "right"
      },
      {
        "midi": 67,
        "time": 45.272,
        "duration": 0.45,
        "velocity": 0.79,
        "hand": "right"
      },
      {
        "midi": 66,
        "time": 46.091,
        "duration": 0.45,
        "velocity": 1,
        "hand": "right"
      },
      {
        "midi": 67,
        "time": 46.909,
        "duration": 0.53,
        "velocity": 0.91,
        "hand": "right"
      },
      {
        "midi": 64,
        "time": 47.591,
        "duration": 0.45,
        "velocity": 0.76,
        "hand": "right"
      },
      {
        "midi": 66,
        "time": 48.272,
        "duration": 0.45,
        "velocity": 0.61,
        "hand": "right"
      },
      {
        "midi": 65,
        "time": 49.091,
        "duration": 0.53,
        "velocity": 0.99,
        "hand": "right"
      },
      {
        "midi": 62,
        "time": 49.772,
        "duration": 0.45,
        "velocity": 0.55,
        "hand": "right"
      },
      {
        "midi": 58,
        "time": 50.454,
        "duration": 0.45,
        "velocity": 0.64,
        "hand": "right"
      },
      {
        "midi": 60,
        "time": 51.136,
        "duration": 0.45,
        "velocity": 0.57,
        "hand": "right"
      },
      {
        "midi": 69,
        "time": 51.818,
        "duration": 0.45,
        "velocity": 0.87,
        "hand": "right"
      },
      {
        "midi": 63,
        "time": 52.636,
        "duration": 0.45,
        "velocity": 0.54,
        "hand": "right"
      },
      {
        "midi": 79,
        "time": 53.454,
        "duration": 1.091,
        "velocity": 0.76,
        "hand": "right"
      },
      {
        "midi": 64,
        "time": 54.136,
        "duration": 0.45,
        "velocity": 0.65,
        "hand": "right"
      },
      {
        "midi": 65,
        "time": 54.818,
        "duration": 0.45,
        "velocity": 0.54,
        "hand": "right"
      },
      {
        "midi": 81,
        "time": 55.636,
        "duration": 1.091,
        "velocity": 0.73,
        "hand": "right"
      },
      {
        "midi": 67,
        "time": 56.454,
        "duration": 0.45,
        "velocity": 0.55,
        "hand": "right"
      },
      {
        "midi": 67,
        "time": 57.272,
        "duration": 0.45,
        "velocity": 0.59,
        "hand": "right"
      },
      {
        "midi": 66,
        "time": 58.091,
        "duration": 0.45,
        "velocity": 0.54,
        "hand": "right"
      },
      {
        "midi": 64,
        "time": 58.909,
        "duration": 0.45,
        "velocity": 0.64,
        "hand": "right"
      },
      {
        "midi": 62,
        "time": 59.591,
        "duration": 0.45,
        "velocity": 0.61,
        "hand": "right"
      },
      {
        "midi": 82,
        "time": 60.272,
        "duration": 0.45,
        "velocity": 0.68,
        "hand": "right"
      },
      {
        "midi": 67,
        "time": 61.091,
        "duration": 0.45,
        "velocity": 0.93,
        "hand": "right"
      },
      {
        "midi": 65,
        "time": 61.909,
        "duration": 0.45,
        "velocity": 0.58,
        "hand": "right"
      },
      {
        "midi": 69,
        "time": 62.591,
        "duration": 0.45,
        "velocity": 0.56,
        "hand": "right"
      },
      {
        "midi": 74,
        "time": 63.272,
        "duration": 0.45,
        "velocity": 0.54,
        "hand": "right"
      },
      {
        "midi": 69,
        "time": 64.091,
        "duration": 0.45,
        "velocity": 0.69,
        "hand": "right"
      },
      {
        "midi": 64,
        "time": 64.772,
        "duration": 0.45,
        "velocity": 0.54,
        "hand": "right"
      },
      {
        "midi": 69,
        "time": 65.454,
        "duration": 0.531,
        "velocity": 1,
        "hand": "right"
      },
      {
        "midi": 62,
        "time": 66.136,
        "duration": 0.45,
        "velocity": 0.56,
        "hand": "right"
      },
      {
        "midi": 58,
        "time": 66.818,
        "duration": 0.45,
        "velocity": 0.64,
        "hand": "right"
      },
      {
        "midi": 76,
        "time": 67.5,
        "duration": 0.45,
        "velocity": 0.73,
        "hand": "right"
      },
      {
        "midi": 74,
        "time": 68.182,
        "duration": 0.45,
        "velocity": 0.75,
        "hand": "right"
      },
      {
        "midi": 69,
        "time": 69,
        "duration": 0.45,
        "velocity": 0.81,
        "hand": "right"
      },
      {
        "midi": 62,
        "time": 69.682,
        "duration": 0.45,
        "velocity": 0.61,
        "hand": "right"
      },
      {
        "midi": 71,
        "time": 70.363,
        "duration": 0.45,
        "velocity": 0.56,
        "hand": "right"
      },
      {
        "midi": 69,
        "time": 71.182,
        "duration": 0.45,
        "velocity": 0.53,
        "hand": "right"
      },
      {
        "midi": 62,
        "time": 71.863,
        "duration": 0.45,
        "velocity": 0.55,
        "hand": "right"
      },
      {
        "midi": 68,
        "time": 72.545,
        "duration": 0.45,
        "velocity": 0.59,
        "hand": "right"
      },
      {
        "midi": 66,
        "time": 73.363,
        "duration": 0.45,
        "velocity": 0.61,
        "hand": "right"
      },
      {
        "midi": 71,
        "time": 74.182,
        "duration": 0.45,
        "velocity": 0.96,
        "hand": "right"
      },
      {
        "midi": 72,
        "time": 74.863,
        "duration": 0.45,
        "velocity": 0.68,
        "hand": "right"
      },
      {
        "midi": 63,
        "time": 75.545,
        "duration": 0.45,
        "velocity": 0.69,
        "hand": "right"
      },
      {
        "midi": 69,
        "time": 76.227,
        "duration": 0.45,
        "velocity": 0.76,
        "hand": "right"
      },
      {
        "midi": 68,
        "time": 76.909,
        "duration": 0.45,
        "velocity": 0.54,
        "hand": "right"
      },
      {
        "midi": 63,
        "time": 77.727,
        "duration": 0.45,
        "velocity": 0.65,
        "hand": "right"
      },
      {
        "midi": 69,
        "time": 78.409,
        "duration": 0.45,
        "velocity": 0.86,
        "hand": "right"
      },
      {
        "midi": 67,
        "time": 79.091,
        "duration": 0.45,
        "velocity": 0.43,
        "hand": "right"
      },
      {
        "midi": 63,
        "time": 79.909,
        "duration": 0.45,
        "velocity": 0.65,
        "hand": "right"
      },
      {
        "midi": 71,
        "time": 80.591,
        "duration": 0.45,
        "velocity": 0.83,
        "hand": "right"
      },
      {
        "midi": 55,
        "time": 81.272,
        "duration": 0.45,
        "velocity": 0.9,
        "hand": "right"
      },
      {
        "midi": 70,
        "time": 82.091,
        "duration": 0.45,
        "velocity": 0.88,
        "hand": "right"
      },
      {
        "midi": 69,
        "time": 82.909,
        "duration": 1.636,
        "velocity": 0.64,
        "hand": "right"
      }
    ],
    "medium": [
      {
        "midi": 69,
        "time": 0,
        "duration": 0.53,
        "velocity": 1,
        "hand": "right"
      },
      {
        "midi": 65,
        "time": 0.682,
        "duration": 0.262,
        "velocity": 0.84,
        "hand": "right"
      },
      {
        "midi": 50,
        "time": 1.363,
        "duration": 0.262,
        "velocity": 0.55,
        "hand": "left"
      },
      {
        "midi": 65,
        "time": 1.363,
        "duration": 0.262,
        "velocity": 0.63,
        "hand": "right"
      },
      {
        "midi": 38,
        "time": 2.045,
        "duration": 0.262,
        "velocity": 0.55,
        "hand": "left"
      },
      {
        "midi": 67,
        "time": 2.727,
        "duration": 0.262,
        "velocity": 0.48,
        "hand": "right"
      },
      {
        "midi": 50,
        "time": 3.545,
        "duration": 0.262,
        "velocity": 0.55,
        "hand": "left"
      },
      {
        "midi": 63,
        "time": 3.545,
        "duration": 0.262,
        "velocity": 0.51,
        "hand": "right"
      },
      {
        "midi": 38,
        "time": 4.227,
        "duration": 0.262,
        "velocity": 0.55,
        "hand": "left"
      },
      {
        "midi": 48,
        "time": 4.909,
        "duration": 0.262,
        "velocity": 0.61,
        "hand": "left"
      },
      {
        "midi": 62,
        "time": 4.909,
        "duration": 0.262,
        "velocity": 0.61,
        "hand": "right"
      },
      {
        "midi": 54,
        "time": 5.591,
        "duration": 0.262,
        "velocity": 0.2,
        "hand": "left"
      },
      {
        "midi": 82,
        "time": 6.272,
        "duration": 0.262,
        "velocity": 0.57,
        "hand": "right"
      },
      {
        "midi": 36,
        "time": 7.091,
        "duration": 0.262,
        "velocity": 0.5,
        "hand": "left"
      },
      {
        "midi": 43,
        "time": 7.091,
        "duration": 0.262,
        "velocity": 1,
        "hand": "left"
      },
      {
        "midi": 46,
        "time": 7.909,
        "duration": 0.262,
        "velocity": 0.64,
        "hand": "left"
      },
      {
        "midi": 48,
        "time": 7.909,
        "duration": 0.262,
        "velocity": 0.68,
        "hand": "left"
      },
      {
        "midi": 71,
        "time": 8.727,
        "duration": 0.409,
        "velocity": 0.9,
        "hand": "right"
      },
      {
        "midi": 45,
        "time": 9.409,
        "duration": 0.262,
        "velocity": 0.95,
        "hand": "left"
      },
      {
        "midi": 69,
        "time": 10.363,
        "duration": 0.262,
        "velocity": 0.85,
        "hand": "right"
      },
      {
        "midi": 69,
        "time": 11.454,
        "duration": 0.273,
        "velocity": 0.54,
        "hand": "right"
      },
      {
        "midi": 67,
        "time": 12.545,
        "duration": 0.262,
        "velocity": 0.77,
        "hand": "right"
      },
      {
        "midi": 67,
        "time": 13.636,
        "duration": 0.262,
        "velocity": 0.54,
        "hand": "right"
      },
      {
        "midi": 65,
        "time": 14.727,
        "duration": 0.262,
        "velocity": 0.96,
        "hand": "right"
      },
      {
        "midi": 38,
        "time": 15.682,
        "duration": 0.262,
        "velocity": 0.55,
        "hand": "left"
      },
      {
        "midi": 40,
        "time": 15.682,
        "duration": 0.262,
        "velocity": 0.73,
        "hand": "left"
      },
      {
        "midi": 69,
        "time": 16.363,
        "duration": 0.409,
        "velocity": 0.72,
        "hand": "right"
      },
      {
        "midi": 69,
        "time": 17.454,
        "duration": 0.409,
        "velocity": 0.72,
        "hand": "right"
      },
      {
        "midi": 69,
        "time": 18.272,
        "duration": 0.262,
        "velocity": 0.55,
        "hand": "right"
      },
      {
        "midi": 69,
        "time": 19.091,
        "duration": 0.262,
        "velocity": 0.87,
        "hand": "right"
      },
      {
        "midi": 64,
        "time": 20.182,
        "duration": 0.262,
        "velocity": 0.74,
        "hand": "right"
      },
      {
        "midi": 64,
        "time": 21.272,
        "duration": 0.262,
        "velocity": 0.72,
        "hand": "right"
      },
      {
        "midi": 65,
        "time": 22.091,
        "duration": 0.262,
        "velocity": 0.53,
        "hand": "right"
      },
      {
        "midi": 72,
        "time": 22.909,
        "duration": 0.273,
        "velocity": 0.96,
        "hand": "right"
      },
      {
        "midi": 72,
        "time": 24,
        "duration": 0.545,
        "velocity": 0.78,
        "hand": "right"
      },
      {
        "midi": 82,
        "time": 24.818,
        "duration": 0.262,
        "velocity": 0.57,
        "hand": "right"
      },
      {
        "midi": 36,
        "time": 25.636,
        "duration": 0.262,
        "velocity": 0.57,
        "hand": "left"
      },
      {
        "midi": 41,
        "time": 25.636,
        "duration": 0.262,
        "velocity": 0.75,
        "hand": "left"
      },
      {
        "midi": 82,
        "time": 26.454,
        "duration": 0.273,
        "velocity": 0.79,
        "hand": "right"
      },
      {
        "midi": 69,
        "time": 27.272,
        "duration": 0.395,
        "velocity": 0.85,
        "hand": "right"
      },
      {
        "midi": 67,
        "time": 27.954,
        "duration": 0.262,
        "velocity": 0.57,
        "hand": "right"
      },
      {
        "midi": 58,
        "time": 28.636,
        "duration": 0.262,
        "velocity": 0.64,
        "hand": "left"
      },
      {
        "midi": 72,
        "time": 28.636,
        "duration": 0.273,
        "velocity": 0.76,
        "hand": "right"
      },
      {
        "midi": 72,
        "time": 29.454,
        "duration": 0.545,
        "velocity": 0.72,
        "hand": "right"
      },
      {
        "midi": 38,
        "time": 30.136,
        "duration": 0.262,
        "velocity": 0.55,
        "hand": "left"
      },
      {
        "midi": 40,
        "time": 30.136,
        "duration": 0.262,
        "velocity": 0.76,
        "hand": "left"
      },
      {
        "midi": 46,
        "time": 30.818,
        "duration": 0.262,
        "velocity": 0.64,
        "hand": "left"
      },
      {
        "midi": 54,
        "time": 30.818,
        "duration": 0.262,
        "velocity": 0.61,
        "hand": "left"
      },
      {
        "midi": 50,
        "time": 31.636,
        "duration": 0.262,
        "velocity": 0.55,
        "hand": "left"
      },
      {
        "midi": 65,
        "time": 31.636,
        "duration": 0.531,
        "velocity": 1,
        "hand": "right"
      },
      {
        "midi": 50,
        "time": 32.318,
        "duration": 0.262,
        "velocity": 0.55,
        "hand": "left"
      },
      {
        "midi": 55,
        "time": 32.318,
        "duration": 0.262,
        "velocity": 0.59,
        "hand": "left"
      },
      {
        "midi": 42,
        "time": 33,
        "duration": 0.262,
        "velocity": 0.95,
        "hand": "left"
      },
      {
        "midi": 46,
        "time": 33,
        "duration": 0.262,
        "velocity": 0.64,
        "hand": "left"
      },
      {
        "midi": 57,
        "time": 33.682,
        "duration": 0.262,
        "velocity": 0.81,
        "hand": "left"
      },
      {
        "midi": 60,
        "time": 33.682,
        "duration": 0.262,
        "velocity": 0.57,
        "hand": "right"
      },
      {
        "midi": 72,
        "time": 34.363,
        "duration": 0.262,
        "velocity": 0.91,
        "hand": "right"
      },
      {
        "midi": 58,
        "time": 35.182,
        "duration": 0.262,
        "velocity": 0.64,
        "hand": "left"
      },
      {
        "midi": 63,
        "time": 35.182,
        "duration": 0.262,
        "velocity": 0.54,
        "hand": "right"
      },
      {
        "midi": 72,
        "time": 35.863,
        "duration": 0.262,
        "velocity": 0.68,
        "hand": "right"
      },
      {
        "midi": 69,
        "time": 36.545,
        "duration": 0.262,
        "velocity": 0.87,
        "hand": "right"
      },
      {
        "midi": 58,
        "time": 37.363,
        "duration": 0.262,
        "velocity": 0.64,
        "hand": "left"
      },
      {
        "midi": 65,
        "time": 37.363,
        "duration": 0.262,
        "velocity": 0.54,
        "hand": "right"
      },
      {
        "midi": 72,
        "time": 38.045,
        "duration": 0.262,
        "velocity": 0.57,
        "hand": "right"
      },
      {
        "midi": 76,
        "time": 38.727,
        "duration": 0.273,
        "velocity": 0.73,
        "hand": "right"
      },
      {
        "midi": 56,
        "time": 39.409,
        "duration": 0.262,
        "velocity": 0.59,
        "hand": "left"
      },
      {
        "midi": 68,
        "time": 39.409,
        "duration": 0.262,
        "velocity": 0.59,
        "hand": "right"
      },
      {
        "midi": 73,
        "time": 40.091,
        "duration": 0.262,
        "velocity": 0.59,
        "hand": "right"
      },
      {
        "midi": 38,
        "time": 40.772,
        "duration": 0.262,
        "velocity": 0.55,
        "hand": "left"
      },
      {
        "midi": 40,
        "time": 40.772,
        "duration": 0.262,
        "velocity": 0.62,
        "hand": "left"
      },
      {
        "midi": 36,
        "time": 41.454,
        "duration": 0.262,
        "velocity": 0.95,
        "hand": "left"
      },
      {
        "midi": 38,
        "time": 41.454,
        "duration": 0.262,
        "velocity": 0.55,
        "hand": "left"
      },
      {
        "midi": 82,
        "time": 42.272,
        "duration": 0.262,
        "velocity": 0.57,
        "hand": "right"
      },
      {
        "midi": 36,
        "time": 43.091,
        "duration": 0.262,
        "velocity": 0.67,
        "hand": "left"
      },
      {
        "midi": 38,
        "time": 43.091,
        "duration": 0.262,
        "velocity": 0.55,
        "hand": "left"
      },
      {
        "midi": 82,
        "time": 43.909,
        "duration": 0.273,
        "velocity": 0.79,
        "hand": "right"
      },
      {
        "midi": 62,
        "time": 44.591,
        "duration": 0.262,
        "velocity": 0.68,
        "hand": "right"
      },
      {
        "midi": 67,
        "time": 45.272,
        "duration": 0.273,
        "velocity": 0.79,
        "hand": "right"
      },
      {
        "midi": 58,
        "time": 46.091,
        "duration": 0.262,
        "velocity": 0.64,
        "hand": "left"
      },
      {
        "midi": 66,
        "time": 46.091,
        "duration": 0.262,
        "velocity": 1,
        "hand": "right"
      },
      {
        "midi": 67,
        "time": 46.909,
        "duration": 0.53,
        "velocity": 0.91,
        "hand": "right"
      },
      {
        "midi": 38,
        "time": 47.591,
        "duration": 0.262,
        "velocity": 0.55,
        "hand": "left"
      },
      {
        "midi": 40,
        "time": 47.591,
        "duration": 0.262,
        "velocity": 0.76,
        "hand": "left"
      },
      {
        "midi": 46,
        "time": 48.272,
        "duration": 0.262,
        "velocity": 0.64,
        "hand": "left"
      },
      {
        "midi": 54,
        "time": 48.272,
        "duration": 0.262,
        "velocity": 0.61,
        "hand": "left"
      },
      {
        "midi": 50,
        "time": 49.091,
        "duration": 0.262,
        "velocity": 0.55,
        "hand": "left"
      },
      {
        "midi": 65,
        "time": 49.091,
        "duration": 0.53,
        "velocity": 0.99,
        "hand": "right"
      },
      {
        "midi": 38,
        "time": 49.772,
        "duration": 0.262,
        "velocity": 0.55,
        "hand": "left"
      },
      {
        "midi": 42,
        "time": 50.454,
        "duration": 0.262,
        "velocity": 0.95,
        "hand": "left"
      },
      {
        "midi": 46,
        "time": 50.454,
        "duration": 0.262,
        "velocity": 0.64,
        "hand": "left"
      },
      {
        "midi": 57,
        "time": 51.136,
        "duration": 0.262,
        "velocity": 0.81,
        "hand": "left"
      },
      {
        "midi": 60,
        "time": 51.136,
        "duration": 0.262,
        "velocity": 0.57,
        "hand": "right"
      },
      {
        "midi": 69,
        "time": 51.818,
        "duration": 0.409,
        "velocity": 0.87,
        "hand": "right"
      },
      {
        "midi": 58,
        "time": 52.636,
        "duration": 0.262,
        "velocity": 0.64,
        "hand": "left"
      },
      {
        "midi": 63,
        "time": 52.636,
        "duration": 0.262,
        "velocity": 0.54,
        "hand": "right"
      },
      {
        "midi": 79,
        "time": 53.454,
        "duration": 1.091,
        "velocity": 0.76,
        "hand": "right"
      },
      {
        "midi": 38,
        "time": 54.136,
        "duration": 0.262,
        "velocity": 0.55,
        "hand": "left"
      },
      {
        "midi": 40,
        "time": 54.136,
        "duration": 0.262,
        "velocity": 0.65,
        "hand": "left"
      },
      {
        "midi": 58,
        "time": 54.818,
        "duration": 0.262,
        "velocity": 0.64,
        "hand": "left"
      },
      {
        "midi": 65,
        "time": 54.818,
        "duration": 0.262,
        "velocity": 0.54,
        "hand": "right"
      },
      {
        "midi": 81,
        "time": 55.636,
        "duration": 1.091,
        "velocity": 0.73,
        "hand": "right"
      },
      {
        "midi": 67,
        "time": 56.454,
        "duration": 0.262,
        "velocity": 0.55,
        "hand": "right"
      },
      {
        "midi": 67,
        "time": 57.272,
        "duration": 0.262,
        "velocity": 0.59,
        "hand": "right"
      },
      {
        "midi": 46,
        "time": 58.091,
        "duration": 0.262,
        "velocity": 0.64,
        "hand": "left"
      },
      {
        "midi": 54,
        "time": 58.091,
        "duration": 0.262,
        "velocity": 0.54,
        "hand": "left"
      },
      {
        "midi": 36,
        "time": 58.909,
        "duration": 0.262,
        "velocity": 0.95,
        "hand": "left"
      },
      {
        "midi": 40,
        "time": 58.909,
        "duration": 0.262,
        "velocity": 0.64,
        "hand": "left"
      },
      {
        "midi": 62,
        "time": 59.591,
        "duration": 0.262,
        "velocity": 0.61,
        "hand": "right"
      },
      {
        "midi": 82,
        "time": 60.272,
        "duration": 0.262,
        "velocity": 0.68,
        "hand": "right"
      },
      {
        "midi": 55,
        "time": 61.091,
        "duration": 0.273,
        "velocity": 0.85,
        "hand": "left"
      },
      {
        "midi": 67,
        "time": 61.091,
        "duration": 0.262,
        "velocity": 0.93,
        "hand": "right"
      },
      {
        "midi": 59,
        "time": 61.909,
        "duration": 0.262,
        "velocity": 0.89,
        "hand": "left"
      },
      {
        "midi": 65,
        "time": 61.909,
        "duration": 0.262,
        "velocity": 0.58,
        "hand": "right"
      },
      {
        "midi": 55,
        "time": 62.591,
        "duration": 0.262,
        "velocity": 0.55,
        "hand": "left"
      },
      {
        "midi": 69,
        "time": 62.591,
        "duration": 0.262,
        "velocity": 0.56,
        "hand": "right"
      },
      {
        "midi": 74,
        "time": 63.272,
        "duration": 0.273,
        "velocity": 0.54,
        "hand": "right"
      },
      {
        "midi": 69,
        "time": 64.091,
        "duration": 0.273,
        "velocity": 0.69,
        "hand": "right"
      },
      {
        "midi": 53,
        "time": 64.772,
        "duration": 0.262,
        "velocity": 0.57,
        "hand": "left"
      },
      {
        "midi": 64,
        "time": 64.772,
        "duration": 0.262,
        "velocity": 0.54,
        "hand": "right"
      },
      {
        "midi": 69,
        "time": 65.454,
        "duration": 0.531,
        "velocity": 1,
        "hand": "right"
      },
      {
        "midi": 53,
        "time": 66.136,
        "duration": 0.262,
        "velocity": 0.56,
        "hand": "left"
      },
      {
        "midi": 62,
        "time": 66.136,
        "duration": 0.262,
        "velocity": 0.56,
        "hand": "right"
      },
      {
        "midi": 38,
        "time": 66.818,
        "duration": 0.262,
        "velocity": 0.55,
        "hand": "left"
      },
      {
        "midi": 46,
        "time": 66.818,
        "duration": 0.262,
        "velocity": 0.64,
        "hand": "left"
      },
      {
        "midi": 76,
        "time": 67.5,
        "duration": 0.262,
        "velocity": 0.73,
        "hand": "right"
      },
      {
        "midi": 74,
        "time": 68.182,
        "duration": 0.273,
        "velocity": 0.75,
        "hand": "right"
      },
      {
        "midi": 69,
        "time": 69,
        "duration": 0.262,
        "velocity": 0.81,
        "hand": "right"
      },
      {
        "midi": 50,
        "time": 69.682,
        "duration": 0.262,
        "velocity": 0.55,
        "hand": "left"
      },
      {
        "midi": 62,
        "time": 69.682,
        "duration": 0.262,
        "velocity": 0.61,
        "hand": "right"
      },
      {
        "midi": 71,
        "time": 70.363,
        "duration": 0.273,
        "velocity": 0.56,
        "hand": "right"
      },
      {
        "midi": 69,
        "time": 71.182,
        "duration": 0.262,
        "velocity": 0.53,
        "hand": "right"
      },
      {
        "midi": 38,
        "time": 71.863,
        "duration": 0.262,
        "velocity": 0.55,
        "hand": "left"
      },
      {
        "midi": 68,
        "time": 72.545,
        "duration": 0.409,
        "velocity": 0.59,
        "hand": "right"
      },
      {
        "midi": 46,
        "time": 73.363,
        "duration": 0.262,
        "velocity": 0.64,
        "hand": "left"
      },
      {
        "midi": 54,
        "time": 73.363,
        "duration": 0.262,
        "velocity": 0.61,
        "hand": "left"
      },
      {
        "midi": 71,
        "time": 74.182,
        "duration": 0.394,
        "velocity": 0.96,
        "hand": "right"
      },
      {
        "midi": 72,
        "time": 74.863,
        "duration": 0.262,
        "velocity": 0.68,
        "hand": "right"
      },
      {
        "midi": 46,
        "time": 75.545,
        "duration": 0.262,
        "velocity": 0.64,
        "hand": "left"
      },
      {
        "midi": 51,
        "time": 75.545,
        "duration": 0.262,
        "velocity": 0.69,
        "hand": "left"
      },
      {
        "midi": 69,
        "time": 76.227,
        "duration": 0.262,
        "velocity": 0.76,
        "hand": "right"
      },
      {
        "midi": 68,
        "time": 76.909,
        "duration": 0.409,
        "velocity": 0.54,
        "hand": "right"
      },
      {
        "midi": 46,
        "time": 77.727,
        "duration": 0.262,
        "velocity": 0.64,
        "hand": "left"
      },
      {
        "midi": 51,
        "time": 77.727,
        "duration": 0.262,
        "velocity": 0.65,
        "hand": "left"
      },
      {
        "midi": 69,
        "time": 78.409,
        "duration": 0.262,
        "velocity": 0.86,
        "hand": "right"
      },
      {
        "midi": 67,
        "time": 79.091,
        "duration": 0.273,
        "velocity": 0.43,
        "hand": "right"
      },
      {
        "midi": 46,
        "time": 79.909,
        "duration": 0.262,
        "velocity": 0.64,
        "hand": "left"
      },
      {
        "midi": 51,
        "time": 79.909,
        "duration": 0.262,
        "velocity": 0.65,
        "hand": "left"
      },
      {
        "midi": 71,
        "time": 80.591,
        "duration": 0.262,
        "velocity": 0.83,
        "hand": "right"
      },
      {
        "midi": 36,
        "time": 81.272,
        "duration": 0.262,
        "velocity": 0.5,
        "hand": "left"
      },
      {
        "midi": 43,
        "time": 81.272,
        "duration": 0.262,
        "velocity": 0.9,
        "hand": "left"
      },
      {
        "midi": 70,
        "time": 82.091,
        "duration": 0.273,
        "velocity": 0.88,
        "hand": "right"
      },
      {
        "midi": 69,
        "time": 82.909,
        "duration": 1.636,
        "velocity": 0.64,
        "hand": "right"
      }
    ],
    "hard": [
      {
        "midi": 40,
        "time": 0,
        "duration": 0.394,
        "velocity": 0.95,
        "hand": "left"
      },
      {
        "midi": 42,
        "time": 0,
        "duration": 0.068,
        "velocity": 0.71,
        "hand": "left"
      },
      {
        "midi": 64,
        "time": 0,
        "duration": 0.818,
        "velocity": 1,
        "hand": "right"
      },
      {
        "midi": 67,
        "time": 0,
        "duration": 0.803,
        "velocity": 1,
        "hand": "right"
      },
      {
        "midi": 69,
        "time": 0,
        "duration": 0.53,
        "velocity": 1,
        "hand": "right"
      },
      {
        "midi": 46,
        "time": 0.272,
        "duration": 0.068,
        "velocity": 0.64,
        "hand": "left"
      },
      {
        "midi": 51,
        "time": 0.272,
        "duration": 0.068,
        "velocity": 0.69,
        "hand": "left"
      },
      {
        "midi": 38,
        "time": 0.409,
        "duration": 0.068,
        "velocity": 0.55,
        "hand": "left"
      },
      {
        "midi": 40,
        "time": 0.409,
        "duration": 0.068,
        "velocity": 0.64,
        "hand": "left"
      },
      {
        "midi": 62,
        "time": 0.409,
        "duration": 0.068,
        "velocity": 0.68,
        "hand": "right"
      },
      {
        "midi": 66,
        "time": 0.409,
        "duration": 0.068,
        "velocity": 0.5,
        "hand": "right"
      },
      {
        "midi": 36,
        "time": 0.545,
        "duration": 0.068,
        "velocity": 0.8,
        "hand": "left"
      },
      {
        "midi": 38,
        "time": 0.545,
        "duration": 0.068,
        "velocity": 0.55,
        "hand": "left"
      },
      {
        "midi": 63,
        "time": 0.545,
        "duration": 0.068,
        "velocity": 0.5,
        "hand": "right"
      },
      {
        "midi": 66,
        "time": 0.545,
        "duration": 0.258,
        "velocity": 0.53,
        "hand": "right"
      },
      {
        "midi": 69,
        "time": 0.545,
        "duration": 0.273,
        "velocity": 0.56,
        "hand": "right"
      },
      {
        "midi": 65,
        "time": 0.682,
        "duration": 0.136,
        "velocity": 0.84,
        "hand": "right"
      },
      {
        "midi": 38,
        "time": 0.818,
        "duration": 0.068,
        "velocity": 0.55,
        "hand": "left"
      },
      {
        "midi": 40,
        "time": 0.818,
        "duration": 0.068,
        "velocity": 0.64,
        "hand": "left"
      },
      {
        "midi": 62,
        "time": 0.818,
        "duration": 0.068,
        "velocity": 0.68,
        "hand": "right"
      },
      {
        "midi": 67,
        "time": 0.818,
        "duration": 0.136,
        "velocity": 0.75,
        "hand": "right"
      },
      {
        "midi": 39,
        "time": 0.954,
        "duration": 0.068,
        "velocity": 0.15,
        "hand": "left"
      },
      {
        "midi": 69,
        "time": 0.954,
        "duration": 0.136,
        "velocity": 0.76,
        "hand": "right"
      },
      {
        "midi": 39,
        "time": 1.091,
        "duration": 0.53,
        "velocity": 0.95,
        "hand": "left"
      },
      {
        "midi": 65,
        "time": 1.091,
        "duration": 0.257,
        "velocity": 0.61,
        "hand": "right"
      },
      {
        "midi": 68,
        "time": 1.091,
        "duration": 0.682,
        "velocity": 0.97,
        "hand": "right"
      },
      {
        "midi": 70,
        "time": 1.091,
        "duration": 0.273,
        "velocity": 0.64,
        "hand": "right"
      },
      {
        "midi": 38,
        "time": 1.363,
        "duration": 0.068,
        "velocity": 0.55,
        "hand": "left"
      },
      {
        "midi": 40,
        "time": 1.363,
        "duration": 0.068,
        "velocity": 0.65,
        "hand": "left"
      },
      {
        "midi": 61,
        "time": 1.363,
        "duration": 0.068,
        "velocity": 0.65,
        "hand": "right"
      },
      {
        "midi": 65,
        "time": 1.363,
        "duration": 0.068,
        "velocity": 0.63,
        "hand": "right"
      },
      {
        "midi": 69,
        "time": 1.5,
        "duration": 0.273,
        "velocity": 0.88,
        "hand": "right"
      },
      {
        "midi": 36,
        "time": 1.636,
        "duration": 0.068,
        "velocity": 0.76,
        "hand": "left"
      },
      {
        "midi": 38,
        "time": 1.636,
        "duration": 0.068,
        "velocity": 0.55,
        "hand": "left"
      },
      {
        "midi": 61,
        "time": 1.636,
        "duration": 0.258,
        "velocity": 0.65,
        "hand": "right"
      },
      {
        "midi": 65,
        "time": 1.636,
        "duration": 0.068,
        "velocity": 0.65,
        "hand": "right"
      },
      {
        "midi": 38,
        "time": 1.772,
        "duration": 0.068,
        "velocity": 0.55,
        "hand": "left"
      },
      {
        "midi": 40,
        "time": 1.772,
        "duration": 0.068,
        "velocity": 0.72,
        "hand": "left"
      },
      {
        "midi": 38,
        "time": 1.909,
        "duration": 0.068,
        "velocity": 0.55,
        "hand": "left"
      },
      {
        "midi": 46,
        "time": 1.909,
        "duration": 0.068,
        "velocity": 0.64,
        "hand": "left"
      },
      {
        "midi": 61,
        "time": 1.909,
        "duration": 0.068,
        "velocity": 0.72,
        "hand": "right"
      },
      {
        "midi": 65,
        "time": 1.909,
        "duration": 0.068,
        "velocity": 0.72,
        "hand": "right"
      },
      {
        "midi": 67,
        "time": 1.909,
        "duration": 0.258,
        "velocity": 0.88,
        "hand": "right"
      },
      {
        "midi": 38,
        "time": 2.045,
        "duration": 0.068,
        "velocity": 0.55,
        "hand": "left"
      },
      {
        "midi": 38,
        "time": 2.182,
        "duration": 0.394,
        "velocity": 0.92,
        "hand": "left"
      },
      {
        "midi": 40,
        "time": 2.182,
        "duration": 0.068,
        "velocity": 0.64,
        "hand": "left"
      },
      {
        "midi": 65,
        "time": 2.182,
        "duration": 0.666,
        "velocity": 0.96,
        "hand": "right"
      },
      {
        "midi": 67,
        "time": 2.182,
        "duration": 0.53,
        "velocity": 1,
        "hand": "right"
      },
      {
        "midi": 69,
        "time": 2.182,
        "duration": 0.682,
        "velocity": 0.89,
        "hand": "right"
      },
      {
        "midi": 46,
        "time": 2.454,
        "duration": 0.068,
        "velocity": 0.64,
        "hand": "left"
      },
      {
        "midi": 51,
        "time": 2.454,
        "duration": 0.068,
        "velocity": 0.65,
        "hand": "left"
      },
      {
        "midi": 38,
        "time": 2.591,
        "duration": 0.068,
        "velocity": 0.55,
        "hand": "left"
      },
      {
        "midi": 40,
        "time": 2.591,
        "duration": 0.068,
        "velocity": 0.62,
        "hand": "left"
      },
      {
        "midi": 60,
        "time": 2.591,
        "duration": 0.068,
        "velocity": 0.65,
        "hand": "right"
      },
      {
        "midi": 64,
        "time": 2.591,
        "duration": 0.068,
        "velocity": 0.56,
        "hand": "right"
      },
      {
        "midi": 36,
        "time": 2.727,
        "duration": 0.068,
        "velocity": 0.8,
        "hand": "left"
      },
      {
        "midi": 38,
        "time": 2.727,
        "duration": 0.258,
        "velocity": 0.56,
        "hand": "left"
      },
      {
        "midi": 60,
        "time": 2.727,
        "duration": 0.136,
        "velocity": 0.72,
        "hand": "right"
      },
      {
        "midi": 64,
        "time": 2.727,
        "duration": 0.136,
        "velocity": 0.54,
        "hand": "right"
      },
      {
        "midi": 67,
        "time": 2.727,
        "duration": 0.258,
        "velocity": 0.48,
        "hand": "right"
      },
      {
        "midi": 65,
        "time": 2.863,
        "duration": 0.136,
        "velocity": 0.95,
        "hand": "right"
      },
      {
        "midi": 38,
        "time": 3,
        "duration": 0.068,
        "velocity": 0.55,
        "hand": "left"
      },
      {
        "midi": 40,
        "time": 3,
        "duration": 0.068,
        "velocity": 0.63,
        "hand": "left"
      },
      {
        "midi": 60,
        "time": 3,
        "duration": 0.136,
        "velocity": 0.74,
        "hand": "right"
      },
      {
        "midi": 64,
        "time": 3,
        "duration": 0.068,
        "velocity": 0.69,
        "hand": "right"
      },
      {
        "midi": 67,
        "time": 3,
        "duration": 0.136,
        "velocity": 0.83,
        "hand": "right"
      },
      {
        "midi": 69,
        "time": 3.136,
        "duration": 0.136,
        "velocity": 0.86,
        "hand": "right"
      },
      {
        "midi": 38,
        "time": 3.272,
        "duration": 0.068,
        "velocity": 0.55,
        "hand": "left"
      },
      {
        "midi": 64,
        "time": 3.272,
        "duration": 1.091,
        "velocity": 0.98,
        "hand": "right"
      },
      {
        "midi": 68,
        "time": 3.272,
        "duration": 0.818,
        "velocity": 0.9,
        "hand": "right"
      },
      {
        "midi": 72,
        "time": 3.272,
        "duration": 0.409,
        "velocity": 0.81,
        "hand": "right"
      },
      {
        "midi": 38,
        "time": 3.545,
        "duration": 0.068,
        "velocity": 0.55,
        "hand": "left"
      },
      {
        "midi": 40,
        "time": 3.545,
        "duration": 0.068,
        "velocity": 0.71,
        "hand": "left"
      },
      {
        "midi": 63,
        "time": 3.545,
        "duration": 0.136,
        "velocity": 0.51,
        "hand": "right"
      },
      {
        "midi": 71,
        "time": 3.682,
        "duration": 0.273,
        "velocity": 0.75,
        "hand": "right"
      },
      {
        "midi": 37,
        "time": 3.818,
        "duration": 0.273,
        "velocity": 0.49,
        "hand": "left"
      },
      {
        "midi": 63,
        "time": 3.818,
        "duration": 0.258,
        "velocity": 0.57,
        "hand": "right"
      },
      {
        "midi": 67,
        "time": 3.818,
        "duration": 0.273,
        "velocity": 0.43,
        "hand": "right"
      },
      {
        "midi": 38,
        "time": 3.954,
        "duration": 0.068,
        "velocity": 0.55,
        "hand": "left"
      },
      {
        "midi": 40,
        "time": 3.954,
        "duration": 0.068,
        "velocity": 0.65,
        "hand": "left"
      },
      {
        "midi": 38,
        "time": 4.091,
        "duration": 0.068,
        "velocity": 0.55,
        "hand": "left"
      },
      {
        "midi": 46,
        "time": 4.091,
        "duration": 0.068,
        "velocity": 0.64,
        "hand": "left"
      },
      {
        "midi": 63,
        "time": 4.091,
        "duration": 0.136,
        "velocity": 0.57,
        "hand": "right"
      },
      {
        "midi": 69,
        "time": 4.091,
        "duration": 0.273,
        "velocity": 0.77,
        "hand": "right"
      },
      {
        "midi": 38,
        "time": 4.227,
        "duration": 0.068,
        "velocity": 0.55,
        "hand": "left"
      },
      {
        "midi": 36,
        "time": 4.363,
        "duration": 0.531,
        "velocity": 0.96,
        "hand": "left"
      },
      {
        "midi": 38,
        "time": 4.363,
        "duration": 0.068,
        "velocity": 0.55,
        "hand": "left"
      },
      {
        "midi": 62,
        "time": 4.363,
        "duration": 0.394,
        "velocity": 1,
        "hand": "right"
      },
      {
        "midi": 67,
        "time": 4.363,
        "duration": 0.667,
        "velocity": 1,
        "hand": "right"
      },
      {
        "midi": 46,
        "time": 4.636,
        "duration": 0.068,
        "velocity": 0.64,
        "hand": "left"
      },
      {
        "midi": 51,
        "time": 4.636,
        "duration": 0.068,
        "velocity": 0.65,
        "hand": "left"
      },
      {
        "midi": 38,
        "time": 4.772,
        "duration": 0.068,
        "velocity": 0.55,
        "hand": "left"
      },
      {
        "midi": 40,
        "time": 4.772,
        "duration": 0.068,
        "velocity": 0.8,
        "hand": "left"
      },
      {
        "midi": 62,
        "time": 4.772,
        "duration": 0.068,
        "velocity": 0.69,
        "hand": "right"
      },
      {
        "midi": 36,
        "time": 4.909,
        "duration": 0.068,
        "velocity": 0.61,
        "hand": "left"
      },
      {
        "midi": 38,
        "time": 4.909,
        "duration": 0.068,
        "velocity": 0.55,
        "hand": "left"
      },
      {
        "midi": 62,
        "time": 4.909,
        "duration": 0.068,
        "velocity": 0.61,
        "hand": "right"
      },
      {
        "midi": 67,
        "time": 5.045,
        "duration": 0.136,
        "velocity": 0.97,
        "hand": "right"
      },
      {
        "midi": 38,
        "time": 5.182,
        "duration": 0.068,
        "velocity": 0.55,
        "hand": "left"
      },
      {
        "midi": 40,
        "time": 5.182,
        "duration": 0.068,
        "velocity": 0.69,
        "hand": "left"
      },
      {
        "midi": 62,
        "time": 5.182,
        "duration": 0.136,
        "velocity": 0.75,
        "hand": "right"
      },
      {
        "midi": 69,
        "time": 5.182,
        "duration": 0.136,
        "velocity": 0.84,
        "hand": "right"
      },
      {
        "midi": 71,
        "time": 5.318,
        "duration": 0.136,
        "velocity": 0.83,
        "hand": "right"
      },
      {
        "midi": 38,
        "time": 5.454,
        "duration": 0.068,
        "velocity": 0.55,
        "hand": "left"
      },
      {
        "midi": 40,
        "time": 5.454,
        "duration": 0.068,
        "velocity": 0.36,
        "hand": "left"
      },
      {
        "midi": 54,
        "time": 5.591,
        "duration": 0.068,
        "velocity": 0.2,
        "hand": "left"
      },
      {
        "midi": 38,
        "time": 5.727,
        "duration": 0.068,
        "velocity": 0.55,
        "hand": "left"
      },
      {
        "midi": 40,
        "time": 5.727,
        "duration": 0.068,
        "velocity": 0.47,
        "hand": "left"
      },
      {
        "midi": 71,
        "time": 5.727,
        "duration": 0.136,
        "velocity": 0.68,
        "hand": "right"
      },
      {
        "midi": 77,
        "time": 5.727,
        "duration": 0.136,
        "velocity": 0.76,
        "hand": "right"
      },
      {
        "midi": 82,
        "time": 5.727,
        "duration": 0.136,
        "velocity": 0.72,
        "hand": "right"
      },
      {
        "midi": 36,
        "time": 6,
        "duration": 0.068,
        "velocity": 0.5,
        "hand": "left"
      },
      {
        "midi": 43,
        "time": 6,
        "duration": 0.257,
        "velocity": 1,
        "hand": "left"
      },
      {
        "midi": 38,
        "time": 6.272,
        "duration": 0.068,
        "velocity": 0.55,
        "hand": "left"
      },
      {
        "midi": 40,
        "time": 6.272,
        "duration": 0.068,
        "velocity": 0.47,
        "hand": "left"
      },
      {
        "midi": 71,
        "time": 6.272,
        "duration": 0.273,
        "velocity": 0.56,
        "hand": "right"
      },
      {
        "midi": 77,
        "time": 6.272,
        "duration": 0.136,
        "velocity": 0.72,
        "hand": "right"
      },
      {
        "midi": 82,
        "time": 6.272,
        "duration": 0.136,
        "velocity": 0.57,
        "hand": "right"
      },
      {
        "midi": 43,
        "time": 6.545,
        "duration": 0.258,
        "velocity": 1,
        "hand": "left"
      },
      {
        "midi": 46,
        "time": 6.545,
        "duration": 0.068,
        "velocity": 0.64,
        "hand": "left"
      },
      {
        "midi": 38,
        "time": 6.818,
        "duration": 0.068,
        "velocity": 0.55,
        "hand": "left"
      },
      {
        "midi": 40,
        "time": 6.818,
        "duration": 0.068,
        "velocity": 0.47,
        "hand": "left"
      },
      {
        "midi": 71,
        "time": 6.818,
        "duration": 0.136,
        "velocity": 0.68,
        "hand": "right"
      },
      {
        "midi": 77,
        "time": 6.818,
        "duration": 0.136,
        "velocity": 0.76,
        "hand": "right"
      },
      {
        "midi": 82,
        "time": 6.818,
        "duration": 0.136,
        "velocity": 0.68,
        "hand": "right"
      },
      {
        "midi": 36,
        "time": 7.091,
        "duration": 0.068,
        "velocity": 0.5,
        "hand": "left"
      },
      {
        "midi": 43,
        "time": 7.091,
        "duration": 0.257,
        "velocity": 1,
        "hand": "left"
      },
      {
        "midi": 38,
        "time": 7.363,
        "duration": 0.068,
        "velocity": 0.55,
        "hand": "left"
      },
      {
        "midi": 40,
        "time": 7.363,
        "duration": 0.068,
        "velocity": 0.47,
        "hand": "left"
      },
      {
        "midi": 71,
        "time": 7.363,
        "duration": 0.136,
        "velocity": 0.69,
        "hand": "right"
      },
      {
        "midi": 77,
        "time": 7.363,
        "duration": 0.136,
        "velocity": 0.76,
        "hand": "right"
      },
      {
        "midi": 82,
        "time": 7.363,
        "duration": 0.136,
        "velocity": 0.68,
        "hand": "right"
      },
      {
        "midi": 36,
        "time": 7.636,
        "duration": 0.409,
        "velocity": 0.96,
        "hand": "left"
      },
      {
        "midi": 47,
        "time": 7.636,
        "duration": 0.068,
        "velocity": 0.48,
        "hand": "left"
      },
      {
        "midi": 62,
        "time": 7.636,
        "duration": 0.394,
        "velocity": 0.98,
        "hand": "right"
      },
      {
        "midi": 67,
        "time": 7.636,
        "duration": 0.394,
        "velocity": 0.93,
        "hand": "right"
      },
      {
        "midi": 46,
        "time": 7.909,
        "duration": 0.068,
        "velocity": 0.64,
        "hand": "left"
      },
      {
        "midi": 48,
        "time": 7.909,
        "duration": 0.068,
        "velocity": 0.68,
        "hand": "left"
      },
      {
        "midi": 57,
        "time": 8.045,
        "duration": 0.068,
        "velocity": 0.59,
        "hand": "left"
      },
      {
        "midi": 62,
        "time": 8.045,
        "duration": 0.068,
        "velocity": 0.68,
        "hand": "right"
      },
      {
        "midi": 67,
        "time": 8.045,
        "duration": 0.068,
        "velocity": 0.58,
        "hand": "right"
      },
      {
        "midi": 36,
        "time": 8.182,
        "duration": 0.068,
        "velocity": 0.5,
        "hand": "left"
      },
      {
        "midi": 43,
        "time": 8.182,
        "duration": 0.409,
        "velocity": 0.76,
        "hand": "left"
      },
      {
        "midi": 47,
        "time": 8.454,
        "duration": 0.068,
        "velocity": 0.61,
        "hand": "left"
      },
      {
        "midi": 62,
        "time": 8.454,
        "duration": 0.068,
        "velocity": 0.74,
        "hand": "right"
      },
      {
        "midi": 65,
        "time": 8.454,
        "duration": 0.273,
        "velocity": 0.72,
        "hand": "right"
      },
      {
        "midi": 67,
        "time": 8.454,
        "duration": 0.136,
        "velocity": 0.72,
        "hand": "right"
      },
      {
        "midi": 36,
        "time": 8.727,
        "duration": 0.53,
        "velocity": 0.92,
        "hand": "left"
      },
      {
        "midi": 47,
        "time": 8.727,
        "duration": 0.068,
        "velocity": 0.65,
        "hand": "left"
      },
      {
        "midi": 62,
        "time": 8.727,
        "duration": 0.258,
        "velocity": 0.93,
        "hand": "right"
      },
      {
        "midi": 64,
        "time": 8.727,
        "duration": 0.273,
        "velocity": 0.58,
        "hand": "right"
      },
      {
        "midi": 71,
        "time": 8.727,
        "duration": 0.409,
        "velocity": 0.9,
        "hand": "right"
      },
      {
        "midi": 40,
        "time": 9,
        "duration": 0.068,
        "velocity": 0.36,
        "hand": "left"
      },
      {
        "midi": 45,
        "time": 9,
        "duration": 0.068,
        "velocity": 0.65,
        "hand": "left"
      },
      {
        "midi": 62,
        "time": 9,
        "duration": 0.257,
        "velocity": 0.74,
        "hand": "right"
      },
      {
        "midi": 67,
        "time": 9,
        "duration": 0.257,
        "velocity": 0.72,
        "hand": "right"
      },
      {
        "midi": 36,
        "time": 9.272,
        "duration": 0.068,
        "velocity": 0.5,
        "hand": "left"
      },
      {
        "midi": 41,
        "time": 9.272,
        "duration": 0.068,
        "velocity": 0.75,
        "hand": "left"
      },
      {
        "midi": 62,
        "time": 9.272,
        "duration": 0.258,
        "velocity": 0.9,
        "hand": "right"
      },
      {
        "midi": 64,
        "time": 9.272,
        "duration": 0.273,
        "velocity": 0.74,
        "hand": "right"
      },
      {
        "midi": 67,
        "time": 9.272,
        "duration": 0.068,
        "velocity": 0.55,
        "hand": "right"
      },
      {
        "midi": 69,
        "time": 9.272,
        "duration": 0.409,
        "velocity": 0.95,
        "hand": "right"
      },
      {
        "midi": 45,
        "time": 9.409,
        "duration": 0.121,
        "velocity": 0.95,
        "hand": "left"
      },
      {
        "midi": 45,
        "time": 9.545,
        "duration": 0.068,
        "velocity": 0.57,
        "hand": "left"
      },
      {
        "midi": 47,
        "time": 9.545,
        "duration": 0.136,
        "velocity": 0.89,
        "hand": "left"
      },
      {
        "midi": 62,
        "time": 9.545,
        "duration": 0.068,
        "velocity": 0.73,
        "hand": "right"
      },
      {
        "midi": 65,
        "time": 9.545,
        "duration": 0.136,
        "velocity": 0.58,
        "hand": "right"
      },
      {
        "midi": 67,
        "time": 9.545,
        "duration": 0.136,
        "velocity": 0.61,
        "hand": "right"
      },
      {
        "midi": 43,
        "time": 9.682,
        "duration": 0.068,
        "velocity": 0.68,
        "hand": "left"
      },
      {
        "midi": 38,
        "time": 9.818,
        "duration": 0.068,
        "velocity": 0.55,
        "hand": "left"
      },
      {
        "midi": 40,
        "time": 9.818,
        "duration": 0.136,
        "velocity": 0.95,
        "hand": "left"
      },
      {
        "midi": 62,
        "time": 9.818,
        "duration": 0.136,
        "velocity": 0.73,
        "hand": "right"
      },
      {
        "midi": 67,
        "time": 9.818,
        "duration": 0.409,
        "velocity": 0.65,
        "hand": "right"
      },
      {
        "midi": 69,
        "time": 9.818,
        "duration": 0.136,
        "velocity": 0.56,
        "hand": "right"
      },
      {
        "midi": 36,
        "time": 10.363,
        "duration": 0.068,
        "velocity": 0.8,
        "hand": "left"
      },
      {
        "midi": 38,
        "time": 10.363,
        "duration": 0.068,
        "velocity": 0.55,
        "hand": "left"
      },
      {
        "midi": 62,
        "time": 10.363,
        "duration": 0.136,
        "velocity": 0.73,
        "hand": "right"
      },
      {
        "midi": 67,
        "time": 10.363,
        "duration": 0.273,
        "velocity": 0.63,
        "hand": "right"
      },
      {
        "midi": 69,
        "time": 10.363,
        "duration": 0.136,
        "velocity": 0.85,
        "hand": "right"
      },
      {
        "midi": 38,
        "time": 10.909,
        "duration": 0.068,
        "velocity": 0.55,
        "hand": "left"
      },
      {
        "midi": 40,
        "time": 10.909,
        "duration": 0.136,
        "velocity": 0.91,
        "hand": "left"
      },
      {
        "midi": 62,
        "time": 10.909,
        "duration": 0.136,
        "velocity": 0.75,
        "hand": "right"
      },
      {
        "midi": 67,
        "time": 10.909,
        "duration": 0.409,
        "velocity": 0.68,
        "hand": "right"
      },
      {
        "midi": 69,
        "time": 10.909,
        "duration": 0.136,
        "velocity": 0.64,
        "hand": "right"
      },
      {
        "midi": 69,
        "time": 11.454,
        "duration": 0.273,
        "velocity": 0.54,
        "hand": "right"
      },
      {
        "midi": 67,
        "time": 11.727,
        "duration": 0.258,
        "velocity": 0.52,
        "hand": "right"
      },
      {
        "midi": 38,
        "time": 12,
        "duration": 0.136,
        "velocity": 0.84,
        "hand": "left"
      },
      {
        "midi": 42,
        "time": 12,
        "duration": 0.068,
        "velocity": 0.71,
        "hand": "left"
      },
      {
        "midi": 62,
        "time": 12,
        "duration": 0.136,
        "velocity": 0.92,
        "hand": "right"
      },
      {
        "midi": 65,
        "time": 12,
        "duration": 0.409,
        "velocity": 0.94,
        "hand": "right"
      },
      {
        "midi": 67,
        "time": 12,
        "duration": 0.136,
        "velocity": 0.56,
        "hand": "right"
      },
      {
        "midi": 36,
        "time": 12.545,
        "duration": 0.068,
        "velocity": 0.8,
        "hand": "left"
      },
      {
        "midi": 38,
        "time": 12.545,
        "duration": 0.136,
        "velocity": 0.98,
        "hand": "left"
      },
      {
        "midi": 62,
        "time": 12.545,
        "duration": 0.136,
        "velocity": 0.92,
        "hand": "right"
      },
      {
        "midi": 65,
        "time": 12.545,
        "duration": 0.409,
        "velocity": 0.94,
        "hand": "right"
      },
      {
        "midi": 67,
        "time": 12.545,
        "duration": 0.136,
        "velocity": 0.77,
        "hand": "right"
      },
      {
        "midi": 38,
        "time": 13.091,
        "duration": 0.136,
        "velocity": 0.94,
        "hand": "left"
      },
      {
        "midi": 40,
        "time": 13.091,
        "duration": 0.068,
        "velocity": 0.71,
        "hand": "left"
      },
      {
        "midi": 62,
        "time": 13.091,
        "duration": 0.136,
        "velocity": 0.92,
        "hand": "right"
      },
      {
        "midi": 65,
        "time": 13.091,
        "duration": 0.409,
        "velocity": 0.94,
        "hand": "right"
      },
      {
        "midi": 69,
        "time": 13.091,
        "duration": 0.136,
        "velocity": 0.92,
        "hand": "right"
      },
      {
        "midi": 67,
        "time": 13.636,
        "duration": 0.136,
        "velocity": 0.54,
        "hand": "right"
      },
      {
        "midi": 65,
        "time": 13.909,
        "duration": 0.258,
        "velocity": 0.59,
        "hand": "right"
      },
      {
        "midi": 38,
        "time": 14.182,
        "duration": 0.068,
        "velocity": 0.55,
        "hand": "left"
      },
      {
        "midi": 42,
        "time": 14.182,
        "duration": 0.068,
        "velocity": 0.71,
        "hand": "left"
      },
      {
        "midi": 60,
        "time": 14.182,
        "duration": 0.136,
        "velocity": 0.56,
        "hand": "right"
      },
      {
        "midi": 65,
        "time": 14.182,
        "duration": 0.136,
        "velocity": 0.96,
        "hand": "right"
      },
      {
        "midi": 36,
        "time": 14.727,
        "duration": 0.068,
        "velocity": 0.8,
        "hand": "left"
      },
      {
        "midi": 38,
        "time": 14.727,
        "duration": 0.273,
        "velocity": 0.97,
        "hand": "left"
      },
      {
        "midi": 60,
        "time": 14.727,
        "duration": 0.136,
        "velocity": 1,
        "hand": "right"
      },
      {
        "midi": 65,
        "time": 14.727,
        "duration": 0.136,
        "velocity": 0.96,
        "hand": "right"
      },
      {
        "midi": 38,
        "time": 15.272,
        "duration": 0.273,
        "velocity": 1,
        "hand": "left"
      },
      {
        "midi": 40,
        "time": 15.272,
        "duration": 0.068,
        "velocity": 0.65,
        "hand": "left"
      },
      {
        "midi": 60,
        "time": 15.272,
        "duration": 0.136,
        "velocity": 0.54,
        "hand": "right"
      },
      {
        "midi": 64,
        "time": 15.272,
        "duration": 0.545,
        "velocity": 0.96,
        "hand": "right"
      },
      {
        "midi": 38,
        "time": 15.682,
        "duration": 0.068,
        "velocity": 0.55,
        "hand": "left"
      },
      {
        "midi": 40,
        "time": 15.682,
        "duration": 0.068,
        "velocity": 0.73,
        "hand": "left"
      },
      {
        "midi": 38,
        "time": 15.818,
        "duration": 0.068,
        "velocity": 0.55,
        "hand": "left"
      },
      {
        "midi": 41,
        "time": 15.818,
        "duration": 0.068,
        "velocity": 0.75,
        "hand": "left"
      },
      {
        "midi": 60,
        "time": 15.818,
        "duration": 0.136,
        "velocity": 0.73,
        "hand": "right"
      },
      {
        "midi": 38,
        "time": 16.091,
        "duration": 0.068,
        "velocity": 0.55,
        "hand": "left"
      },
      {
        "midi": 40,
        "time": 16.091,
        "duration": 0.068,
        "velocity": 0.65,
        "hand": "left"
      },
      {
        "midi": 60,
        "time": 16.091,
        "duration": 0.257,
        "velocity": 0.7,
        "hand": "right"
      },
      {
        "midi": 38,
        "time": 16.363,
        "duration": 0.068,
        "velocity": 0.55,
        "hand": "left"
      },
      {
        "midi": 41,
        "time": 16.363,
        "duration": 0.136,
        "velocity": 0.8,
        "hand": "left"
      },
      {
        "midi": 60,
        "time": 16.363,
        "duration": 0.273,
        "velocity": 0.98,
        "hand": "right"
      },
      {
        "midi": 64,
        "time": 16.363,
        "duration": 0.273,
        "velocity": 1,
        "hand": "right"
      },
      {
        "midi": 67,
        "time": 16.363,
        "duration": 0.136,
        "velocity": 0.95,
        "hand": "right"
      },
      {
        "midi": 69,
        "time": 16.363,
        "duration": 0.409,
        "velocity": 0.72,
        "hand": "right"
      },
      {
        "midi": 36,
        "time": 16.909,
        "duration": 0.068,
        "velocity": 0.8,
        "hand": "left"
      },
      {
        "midi": 38,
        "time": 16.909,
        "duration": 0.068,
        "velocity": 0.55,
        "hand": "left"
      },
      {
        "midi": 60,
        "time": 16.909,
        "duration": 0.136,
        "velocity": 0.98,
        "hand": "right"
      },
      {
        "midi": 64,
        "time": 16.909,
        "duration": 0.136,
        "velocity": 1,
        "hand": "right"
      },
      {
        "midi": 67,
        "time": 16.909,
        "duration": 0.136,
        "velocity": 0.95,
        "hand": "right"
      },
      {
        "midi": 69,
        "time": 16.909,
        "duration": 0.409,
        "velocity": 0.72,
        "hand": "right"
      },
      {
        "midi": 38,
        "time": 17.454,
        "duration": 0.068,
        "velocity": 0.55,
        "hand": "left"
      },
      {
        "midi": 40,
        "time": 17.454,
        "duration": 0.068,
        "velocity": 0.65,
        "hand": "left"
      },
      {
        "midi": 60,
        "time": 17.454,
        "duration": 0.136,
        "velocity": 0.72,
        "hand": "right"
      },
      {
        "midi": 63,
        "time": 17.454,
        "duration": 0.136,
        "velocity": 0.82,
        "hand": "right"
      },
      {
        "midi": 67,
        "time": 17.454,
        "duration": 0.136,
        "velocity": 0.84,
        "hand": "right"
      },
      {
        "midi": 69,
        "time": 17.454,
        "duration": 0.409,
        "velocity": 0.72,
        "hand": "right"
      },
      {
        "midi": 71,
        "time": 18,
        "duration": 0.273,
        "velocity": 0.56,
        "hand": "right"
      },
      {
        "midi": 69,
        "time": 18.272,
        "duration": 0.258,
        "velocity": 0.55,
        "hand": "right"
      },
      {
        "midi": 38,
        "time": 18.545,
        "duration": 0.068,
        "velocity": 0.55,
        "hand": "left"
      },
      {
        "midi": 40,
        "time": 18.545,
        "duration": 0.136,
        "velocity": 0.94,
        "hand": "left"
      },
      {
        "midi": 64,
        "time": 18.545,
        "duration": 0.273,
        "velocity": 0.98,
        "hand": "right"
      },
      {
        "midi": 67,
        "time": 18.545,
        "duration": 0.409,
        "velocity": 0.91,
        "hand": "right"
      },
      {
        "midi": 69,
        "time": 18.545,
        "duration": 0.136,
        "velocity": 0.55,
        "hand": "right"
      },
      {
        "midi": 36,
        "time": 19.091,
        "duration": 0.068,
        "velocity": 0.8,
        "hand": "left"
      },
      {
        "midi": 38,
        "time": 19.091,
        "duration": 0.068,
        "velocity": 0.55,
        "hand": "left"
      },
      {
        "midi": 64,
        "time": 19.091,
        "duration": 0.273,
        "velocity": 0.98,
        "hand": "right"
      },
      {
        "midi": 67,
        "time": 19.091,
        "duration": 0.409,
        "velocity": 0.91,
        "hand": "right"
      },
      {
        "midi": 69,
        "time": 19.091,
        "duration": 0.136,
        "velocity": 0.87,
        "hand": "right"
      },
      {
        "midi": 39,
        "time": 19.636,
        "duration": 0.136,
        "velocity": 0.85,
        "hand": "left"
      },
      {
        "midi": 65,
        "time": 19.636,
        "duration": 0.136,
        "velocity": 0.59,
        "hand": "right"
      },
      {
        "midi": 68,
        "time": 19.636,
        "duration": 0.136,
        "velocity": 0.57,
        "hand": "right"
      },
      {
        "midi": 64,
        "time": 20.182,
        "duration": 0.136,
        "velocity": 0.74,
        "hand": "right"
      },
      {
        "midi": 65,
        "time": 20.454,
        "duration": 0.258,
        "velocity": 0.69,
        "hand": "right"
      },
      {
        "midi": 38,
        "time": 20.727,
        "duration": 0.136,
        "velocity": 0.87,
        "hand": "left"
      },
      {
        "midi": 42,
        "time": 20.727,
        "duration": 0.068,
        "velocity": 0.71,
        "hand": "left"
      },
      {
        "midi": 65,
        "time": 20.727,
        "duration": 0.273,
        "velocity": 0.98,
        "hand": "right"
      },
      {
        "midi": 67,
        "time": 20.727,
        "duration": 0.136,
        "velocity": 0.56,
        "hand": "right"
      },
      {
        "midi": 69,
        "time": 20.727,
        "duration": 0.273,
        "velocity": 0.92,
        "hand": "right"
      },
      {
        "midi": 64,
        "time": 21.272,
        "duration": 0.136,
        "velocity": 0.72,
        "hand": "right"
      },
      {
        "midi": 65,
        "time": 21.545,
        "duration": 0.136,
        "velocity": 0.57,
        "hand": "right"
      },
      {
        "midi": 38,
        "time": 21.818,
        "duration": 0.068,
        "velocity": 0.55,
        "hand": "left"
      },
      {
        "midi": 65,
        "time": 21.818,
        "duration": 0.258,
        "velocity": 1,
        "hand": "right"
      },
      {
        "midi": 68,
        "time": 21.818,
        "duration": 0.136,
        "velocity": 0.94,
        "hand": "right"
      },
      {
        "midi": 71,
        "time": 21.818,
        "duration": 0.136,
        "velocity": 0.98,
        "hand": "right"
      },
      {
        "midi": 65,
        "time": 22.091,
        "duration": 0.136,
        "velocity": 0.53,
        "hand": "right"
      },
      {
        "midi": 64,
        "time": 22.363,
        "duration": 0.136,
        "velocity": 0.65,
        "hand": "right"
      },
      {
        "midi": 62,
        "time": 22.636,
        "duration": 0.136,
        "velocity": 0.55,
        "hand": "right"
      },
      {
        "midi": 36,
        "time": 22.909,
        "duration": 0.53,
        "velocity": 0.95,
        "hand": "left"
      },
      {
        "midi": 38,
        "time": 22.909,
        "duration": 0.068,
        "velocity": 0.55,
        "hand": "left"
      },
      {
        "midi": 64,
        "time": 22.909,
        "duration": 0.273,
        "velocity": 0.93,
        "hand": "right"
      },
      {
        "midi": 67,
        "time": 22.909,
        "duration": 0.53,
        "velocity": 0.94,
        "hand": "right"
      },
      {
        "midi": 69,
        "time": 22.909,
        "duration": 0.273,
        "velocity": 0.94,
        "hand": "right"
      },
      {
        "midi": 72,
        "time": 22.909,
        "duration": 0.273,
        "velocity": 0.96,
        "hand": "right"
      },
      {
        "midi": 36,
        "time": 23.454,
        "duration": 0.136,
        "velocity": 0.95,
        "hand": "left"
      },
      {
        "midi": 38,
        "time": 23.454,
        "duration": 0.068,
        "velocity": 0.55,
        "hand": "left"
      },
      {
        "midi": 67,
        "time": 23.454,
        "duration": 0.803,
        "velocity": 0.57,
        "hand": "right"
      },
      {
        "midi": 72,
        "time": 23.454,
        "duration": 0.531,
        "velocity": 0.74,
        "hand": "right"
      },
      {
        "midi": 74,
        "time": 23.454,
        "duration": 1.091,
        "velocity": 0.72,
        "hand": "right"
      },
      {
        "midi": 79,
        "time": 23.454,
        "duration": 1.091,
        "velocity": 0.9,
        "hand": "right"
      },
      {
        "midi": 36,
        "time": 24,
        "duration": 0.136,
        "velocity": 0.95,
        "hand": "left"
      },
      {
        "midi": 38,
        "time": 24,
        "duration": 0.068,
        "velocity": 0.55,
        "hand": "left"
      },
      {
        "midi": 60,
        "time": 24,
        "duration": 0.409,
        "velocity": 0.72,
        "hand": "right"
      },
      {
        "midi": 72,
        "time": 24,
        "duration": 0.545,
        "velocity": 0.78,
        "hand": "right"
      },
      {
        "midi": 36,
        "time": 24.272,
        "duration": 0.068,
        "velocity": 0.67,
        "hand": "left"
      },
      {
        "midi": 38,
        "time": 24.272,
        "duration": 0.068,
        "velocity": 0.55,
        "hand": "left"
      },
      {
        "midi": 71,
        "time": 24.272,
        "duration": 0.136,
        "velocity": 0.68,
        "hand": "right"
      },
      {
        "midi": 77,
        "time": 24.272,
        "duration": 0.136,
        "velocity": 0.76,
        "hand": "right"
      },
      {
        "midi": 82,
        "time": 24.272,
        "duration": 0.136,
        "velocity": 0.72,
        "hand": "right"
      },
      {
        "midi": 36,
        "time": 24.545,
        "duration": 0.068,
        "velocity": 0.67,
        "hand": "left"
      },
      {
        "midi": 38,
        "time": 24.545,
        "duration": 0.068,
        "velocity": 0.55,
        "hand": "left"
      },
      {
        "midi": 43,
        "time": 24.818,
        "duration": 0.273,
        "velocity": 0.95,
        "hand": "left"
      },
      {
        "midi": 53,
        "time": 24.818,
        "duration": 0.136,
        "velocity": 0.74,
        "hand": "left"
      },
      {
        "midi": 71,
        "time": 24.818,
        "duration": 0.273,
        "velocity": 0.56,
        "hand": "right"
      },
      {
        "midi": 77,
        "time": 24.818,
        "duration": 0.136,
        "velocity": 0.72,
        "hand": "right"
      },
      {
        "midi": 82,
        "time": 24.818,
        "duration": 0.136,
        "velocity": 0.57,
        "hand": "right"
      },
      {
        "midi": 67,
        "time": 25.091,
        "duration": 0.257,
        "velocity": 0.9,
        "hand": "right"
      },
      {
        "midi": 36,
        "time": 25.363,
        "duration": 0.068,
        "velocity": 0.67,
        "hand": "left"
      },
      {
        "midi": 38,
        "time": 25.363,
        "duration": 0.068,
        "velocity": 0.55,
        "hand": "left"
      },
      {
        "midi": 71,
        "time": 25.363,
        "duration": 0.136,
        "velocity": 0.68,
        "hand": "right"
      },
      {
        "midi": 77,
        "time": 25.363,
        "duration": 0.136,
        "velocity": 0.76,
        "hand": "right"
      },
      {
        "midi": 82,
        "time": 25.363,
        "duration": 0.136,
        "velocity": 0.68,
        "hand": "right"
      },
      {
        "midi": 36,
        "time": 25.636,
        "duration": 0.068,
        "velocity": 0.57,
        "hand": "left"
      },
      {
        "midi": 41,
        "time": 25.636,
        "duration": 0.068,
        "velocity": 0.75,
        "hand": "left"
      },
      {
        "midi": 36,
        "time": 25.909,
        "duration": 0.068,
        "velocity": 0.67,
        "hand": "left"
      },
      {
        "midi": 38,
        "time": 25.909,
        "duration": 0.068,
        "velocity": 0.55,
        "hand": "left"
      },
      {
        "midi": 71,
        "time": 25.909,
        "duration": 0.136,
        "velocity": 0.69,
        "hand": "right"
      },
      {
        "midi": 77,
        "time": 25.909,
        "duration": 0.136,
        "velocity": 0.76,
        "hand": "right"
      },
      {
        "midi": 82,
        "time": 25.909,
        "duration": 0.136,
        "velocity": 0.68,
        "hand": "right"
      },
      {
        "midi": 55,
        "time": 26.182,
        "duration": 0.273,
        "velocity": 0.85,
        "hand": "left"
      },
      {
        "midi": 57,
        "time": 26.182,
        "duration": 0.53,
        "velocity": 0.83,
        "hand": "left"
      },
      {
        "midi": 62,
        "time": 26.182,
        "duration": 0.257,
        "velocity": 0.94,
        "hand": "right"
      },
      {
        "midi": 64,
        "time": 26.182,
        "duration": 0.273,
        "velocity": 0.74,
        "hand": "right"
      },
      {
        "midi": 67,
        "time": 26.182,
        "duration": 0.257,
        "velocity": 0.93,
        "hand": "right"
      },
      {
        "midi": 36,
        "time": 26.454,
        "duration": 0.068,
        "velocity": 0.67,
        "hand": "left"
      },
      {
        "midi": 38,
        "time": 26.454,
        "duration": 0.068,
        "velocity": 0.55,
        "hand": "left"
      },
      {
        "midi": 71,
        "time": 26.454,
        "duration": 0.273,
        "velocity": 0.79,
        "hand": "right"
      },
      {
        "midi": 77,
        "time": 26.454,
        "duration": 0.273,
        "velocity": 0.79,
        "hand": "right"
      },
      {
        "midi": 82,
        "time": 26.454,
        "duration": 0.273,
        "velocity": 0.79,
        "hand": "right"
      },
      {
        "midi": 36,
        "time": 26.727,
        "duration": 0.068,
        "velocity": 0.67,
        "hand": "left"
      },
      {
        "midi": 38,
        "time": 26.727,
        "duration": 0.068,
        "velocity": 0.55,
        "hand": "left"
      },
      {
        "midi": 64,
        "time": 26.727,
        "duration": 0.273,
        "velocity": 0.9,
        "hand": "right"
      },
      {
        "midi": 47,
        "time": 27,
        "duration": 0.136,
        "velocity": 0.89,
        "hand": "left"
      },
      {
        "midi": 53,
        "time": 27,
        "duration": 0.136,
        "velocity": 0.74,
        "hand": "left"
      },
      {
        "midi": 62,
        "time": 27,
        "duration": 0.136,
        "velocity": 0.64,
        "hand": "right"
      },
      {
        "midi": 65,
        "time": 27,
        "duration": 0.136,
        "velocity": 0.74,
        "hand": "right"
      },
      {
        "midi": 38,
        "time": 27.272,
        "duration": 0.068,
        "velocity": 0.55,
        "hand": "left"
      },
      {
        "midi": 40,
        "time": 27.272,
        "duration": 0.258,
        "velocity": 0.95,
        "hand": "left"
      },
      {
        "midi": 62,
        "time": 27.272,
        "duration": 0.395,
        "velocity": 0.83,
        "hand": "right"
      },
      {
        "midi": 67,
        "time": 27.272,
        "duration": 0.409,
        "velocity": 0.81,
        "hand": "right"
      },
      {
        "midi": 69,
        "time": 27.272,
        "duration": 0.395,
        "velocity": 0.85,
        "hand": "right"
      },
      {
        "midi": 38,
        "time": 27.545,
        "duration": 0.068,
        "velocity": 0.55,
        "hand": "left"
      },
      {
        "midi": 40,
        "time": 27.545,
        "duration": 0.068,
        "velocity": 0.69,
        "hand": "left"
      },
      {
        "midi": 55,
        "time": 27.682,
        "duration": 0.068,
        "velocity": 0.55,
        "hand": "left"
      },
      {
        "midi": 59,
        "time": 27.682,
        "duration": 0.068,
        "velocity": 0.63,
        "hand": "left"
      },
      {
        "midi": 62,
        "time": 27.682,
        "duration": 0.068,
        "velocity": 0.73,
        "hand": "right"
      },
      {
        "midi": 66,
        "time": 27.682,
        "duration": 0.068,
        "velocity": 0.73,
        "hand": "right"
      },
      {
        "midi": 69,
        "time": 27.682,
        "duration": 0.068,
        "velocity": 0.56,
        "hand": "right"
      },
      {
        "midi": 36,
        "time": 27.818,
        "duration": 0.068,
        "velocity": 0.8,
        "hand": "left"
      },
      {
        "midi": 38,
        "time": 27.818,
        "duration": 0.068,
        "velocity": 0.55,
        "hand": "left"
      },
      {
        "midi": 62,
        "time": 27.818,
        "duration": 0.068,
        "velocity": 0.53,
        "hand": "right"
      },
      {
        "midi": 67,
        "time": 27.818,
        "duration": 0.121,
        "velocity": 0.79,
        "hand": "right"
      },
      {
        "midi": 38,
        "time": 27.954,
        "duration": 0.068,
        "velocity": 0.55,
        "hand": "left"
      },
      {
        "midi": 40,
        "time": 27.954,
        "duration": 0.068,
        "velocity": 0.62,
        "hand": "left"
      },
      {
        "midi": 67,
        "time": 27.954,
        "duration": 0.136,
        "velocity": 0.57,
        "hand": "right"
      },
      {
        "midi": 38,
        "time": 28.091,
        "duration": 0.068,
        "velocity": 0.55,
        "hand": "left"
      },
      {
        "midi": 45,
        "time": 28.091,
        "duration": 0.136,
        "velocity": 0.68,
        "hand": "left"
      },
      {
        "midi": 62,
        "time": 28.091,
        "duration": 0.068,
        "velocity": 0.64,
        "hand": "right"
      },
      {
        "midi": 66,
        "time": 28.091,
        "duration": 0.068,
        "velocity": 0.52,
        "hand": "right"
      },
      {
        "midi": 69,
        "time": 28.091,
        "duration": 0.136,
        "velocity": 0.68,
        "hand": "right"
      },
      {
        "midi": 71,
        "time": 28.091,
        "duration": 0.136,
        "velocity": 0.73,
        "hand": "right"
      },
      {
        "midi": 38,
        "time": 28.227,
        "duration": 0.068,
        "velocity": 0.55,
        "hand": "left"
      },
      {
        "midi": 48,
        "time": 28.227,
        "duration": 0.136,
        "velocity": 0.53,
        "hand": "left"
      },
      {
        "midi": 60,
        "time": 28.227,
        "duration": 0.136,
        "velocity": 0.53,
        "hand": "right"
      },
      {
        "midi": 62,
        "time": 28.227,
        "duration": 0.121,
        "velocity": 0.72,
        "hand": "right"
      },
      {
        "midi": 72,
        "time": 28.227,
        "duration": 0.136,
        "velocity": 0.53,
        "hand": "right"
      },
      {
        "midi": 38,
        "time": 28.363,
        "duration": 0.068,
        "velocity": 0.55,
        "hand": "left"
      },
      {
        "midi": 40,
        "time": 28.363,
        "duration": 0.394,
        "velocity": 0.91,
        "hand": "left"
      },
      {
        "midi": 67,
        "time": 28.363,
        "duration": 0.409,
        "velocity": 0.83,
        "hand": "right"
      },
      {
        "midi": 69,
        "time": 28.363,
        "duration": 0.531,
        "velocity": 0.87,
        "hand": "right"
      },
      {
        "midi": 74,
        "time": 28.363,
        "duration": 0.273,
        "velocity": 0.54,
        "hand": "right"
      },
      {
        "midi": 46,
        "time": 28.636,
        "duration": 0.068,
        "velocity": 0.64,
        "hand": "left"
      },
      {
        "midi": 48,
        "time": 28.636,
        "duration": 0.273,
        "velocity": 0.76,
        "hand": "left"
      },
      {
        "midi": 63,
        "time": 28.636,
        "duration": 0.068,
        "velocity": 0.43,
        "hand": "right"
      },
      {
        "midi": 66,
        "time": 28.636,
        "duration": 0.258,
        "velocity": 1,
        "hand": "right"
      },
      {
        "midi": 72,
        "time": 28.636,
        "duration": 0.273,
        "velocity": 0.76,
        "hand": "right"
      },
      {
        "midi": 38,
        "time": 28.772,
        "duration": 0.068,
        "velocity": 0.55,
        "hand": "left"
      },
      {
        "midi": 40,
        "time": 28.772,
        "duration": 0.068,
        "velocity": 0.73,
        "hand": "left"
      },
      {
        "midi": 36,
        "time": 28.909,
        "duration": 0.068,
        "velocity": 0.8,
        "hand": "left"
      },
      {
        "midi": 38,
        "time": 28.909,
        "duration": 0.068,
        "velocity": 0.55,
        "hand": "left"
      },
      {
        "midi": 62,
        "time": 28.909,
        "duration": 0.273,
        "velocity": 0.57,
        "hand": "right"
      },
      {
        "midi": 66,
        "time": 28.909,
        "duration": 0.273,
        "velocity": 0.52,
        "hand": "right"
      },
      {
        "midi": 69,
        "time": 28.909,
        "duration": 0.258,
        "velocity": 0.69,
        "hand": "right"
      },
      {
        "midi": 71,
        "time": 28.909,
        "duration": 0.273,
        "velocity": 0.69,
        "hand": "right"
      },
      {
        "midi": 38,
        "time": 29.182,
        "duration": 0.068,
        "velocity": 0.55,
        "hand": "left"
      },
      {
        "midi": 40,
        "time": 29.182,
        "duration": 0.273,
        "velocity": 0.95,
        "hand": "left"
      },
      {
        "midi": 67,
        "time": 29.182,
        "duration": 0.257,
        "velocity": 0.68,
        "hand": "right"
      },
      {
        "midi": 69,
        "time": 29.182,
        "duration": 0.273,
        "velocity": 0.69,
        "hand": "right"
      },
      {
        "midi": 38,
        "time": 29.454,
        "duration": 0.258,
        "velocity": 0.84,
        "hand": "left"
      },
      {
        "midi": 42,
        "time": 29.454,
        "duration": 0.068,
        "velocity": 0.71,
        "hand": "left"
      },
      {
        "midi": 65,
        "time": 29.454,
        "duration": 0.531,
        "velocity": 0.75,
        "hand": "right"
      },
      {
        "midi": 67,
        "time": 29.454,
        "duration": 0.531,
        "velocity": 0.91,
        "hand": "right"
      },
      {
        "midi": 72,
        "time": 29.454,
        "duration": 0.545,
        "velocity": 0.72,
        "hand": "right"
      },
      {
        "midi": 38,
        "time": 29.727,
        "duration": 0.068,
        "velocity": 0.55,
        "hand": "left"
      },
      {
        "midi": 40,
        "time": 29.727,
        "duration": 0.068,
        "velocity": 0.65,
        "hand": "left"
      },
      {
        "midi": 53,
        "time": 29.863,
        "duration": 0.068,
        "velocity": 0.57,
        "hand": "left"
      },
      {
        "midi": 57,
        "time": 29.863,
        "duration": 0.068,
        "velocity": 0.49,
        "hand": "left"
      },
      {
        "midi": 60,
        "time": 29.863,
        "duration": 0.068,
        "velocity": 0.68,
        "hand": "right"
      },
      {
        "midi": 64,
        "time": 29.863,
        "duration": 0.068,
        "velocity": 0.54,
        "hand": "right"
      },
      {
        "midi": 36,
        "time": 30,
        "duration": 0.068,
        "velocity": 0.8,
        "hand": "left"
      },
      {
        "midi": 38,
        "time": 30,
        "duration": 0.068,
        "velocity": 0.55,
        "hand": "left"
      },
      {
        "midi": 60,
        "time": 30,
        "duration": 0.257,
        "velocity": 0.83,
        "hand": "right"
      },
      {
        "midi": 65,
        "time": 30,
        "duration": 0.409,
        "velocity": 0.86,
        "hand": "right"
      },
      {
        "midi": 67,
        "time": 30,
        "duration": 0.273,
        "velocity": 0.77,
        "hand": "right"
      },
      {
        "midi": 38,
        "time": 30.136,
        "duration": 0.068,
        "velocity": 0.55,
        "hand": "left"
      },
      {
        "midi": 40,
        "time": 30.136,
        "duration": 0.068,
        "velocity": 0.76,
        "hand": "left"
      },
      {
        "midi": 38,
        "time": 30.272,
        "duration": 0.068,
        "velocity": 0.55,
        "hand": "left"
      },
      {
        "midi": 46,
        "time": 30.272,
        "duration": 0.068,
        "velocity": 0.64,
        "hand": "left"
      },
      {
        "midi": 60,
        "time": 30.272,
        "duration": 0.136,
        "velocity": 0.68,
        "hand": "right"
      },
      {
        "midi": 64,
        "time": 30.272,
        "duration": 0.136,
        "velocity": 0.57,
        "hand": "right"
      },
      {
        "midi": 38,
        "time": 30.409,
        "duration": 0.068,
        "velocity": 0.55,
        "hand": "left"
      },
      {
        "midi": 38,
        "time": 30.545,
        "duration": 0.394,
        "velocity": 0.94,
        "hand": "left"
      },
      {
        "midi": 40,
        "time": 30.545,
        "duration": 0.068,
        "velocity": 0.71,
        "hand": "left"
      },
      {
        "midi": 62,
        "time": 30.545,
        "duration": 0.531,
        "velocity": 0.89,
        "hand": "right"
      },
      {
        "midi": 65,
        "time": 30.545,
        "duration": 0.409,
        "velocity": 0.81,
        "hand": "right"
      },
      {
        "midi": 69,
        "time": 30.545,
        "duration": 0.531,
        "velocity": 1,
        "hand": "right"
      },
      {
        "midi": 46,
        "time": 30.818,
        "duration": 0.068,
        "velocity": 0.64,
        "hand": "left"
      },
      {
        "midi": 54,
        "time": 30.818,
        "duration": 0.068,
        "velocity": 0.61,
        "hand": "left"
      },
      {
        "midi": 38,
        "time": 30.954,
        "duration": 0.068,
        "velocity": 0.55,
        "hand": "left"
      },
      {
        "midi": 40,
        "time": 30.954,
        "duration": 0.068,
        "velocity": 0.67,
        "hand": "left"
      },
      {
        "midi": 61,
        "time": 30.954,
        "duration": 0.068,
        "velocity": 0.4,
        "hand": "right"
      },
      {
        "midi": 63,
        "time": 30.954,
        "duration": 0.273,
        "velocity": 0.56,
        "hand": "right"
      },
      {
        "midi": 36,
        "time": 31.091,
        "duration": 0.068,
        "velocity": 0.76,
        "hand": "left"
      },
      {
        "midi": 38,
        "time": 31.091,
        "duration": 0.068,
        "velocity": 0.55,
        "hand": "left"
      },
      {
        "midi": 62,
        "time": 31.091,
        "duration": 0.121,
        "velocity": 0.91,
        "hand": "right"
      },
      {
        "midi": 64,
        "time": 31.091,
        "duration": 0.409,
        "velocity": 0.93,
        "hand": "right"
      },
      {
        "midi": 67,
        "time": 31.091,
        "duration": 0.273,
        "velocity": 1,
        "hand": "right"
      },
      {
        "midi": 69,
        "time": 31.091,
        "duration": 0.273,
        "velocity": 0.87,
        "hand": "right"
      },
      {
        "midi": 53,
        "time": 31.227,
        "duration": 0.136,
        "velocity": 0.56,
        "hand": "left"
      },
      {
        "midi": 57,
        "time": 31.227,
        "duration": 0.136,
        "velocity": 0.53,
        "hand": "left"
      },
      {
        "midi": 62,
        "time": 31.227,
        "duration": 0.136,
        "velocity": 0.56,
        "hand": "right"
      },
      {
        "midi": 38,
        "time": 31.363,
        "duration": 0.068,
        "velocity": 0.55,
        "hand": "left"
      },
      {
        "midi": 40,
        "time": 31.363,
        "duration": 0.068,
        "velocity": 0.64,
        "hand": "left"
      },
      {
        "midi": 65,
        "time": 31.363,
        "duration": 0.258,
        "velocity": 0.75,
        "hand": "right"
      },
      {
        "midi": 38,
        "time": 31.636,
        "duration": 0.068,
        "velocity": 0.55,
        "hand": "left"
      },
      {
        "midi": 42,
        "time": 31.636,
        "duration": 0.068,
        "velocity": 0.71,
        "hand": "left"
      },
      {
        "midi": 60,
        "time": 31.636,
        "duration": 0.394,
        "velocity": 1,
        "hand": "right"
      },
      {
        "midi": 65,
        "time": 31.636,
        "duration": 0.531,
        "velocity": 1,
        "hand": "right"
      },
      {
        "midi": 40,
        "time": 31.772,
        "duration": 0.068,
        "velocity": 0.69,
        "hand": "left"
      },
      {
        "midi": 38,
        "time": 31.909,
        "duration": 0.068,
        "velocity": 0.55,
        "hand": "left"
      },
      {
        "midi": 46,
        "time": 31.909,
        "duration": 0.068,
        "velocity": 0.64,
        "hand": "left"
      },
      {
        "midi": 53,
        "time": 32.045,
        "duration": 0.068,
        "velocity": 0.61,
        "hand": "left"
      },
      {
        "midi": 55,
        "time": 32.045,
        "duration": 0.068,
        "velocity": 0.72,
        "hand": "left"
      },
      {
        "midi": 60,
        "time": 32.045,
        "duration": 0.068,
        "velocity": 0.56,
        "hand": "right"
      },
      {
        "midi": 36,
        "time": 32.182,
        "duration": 0.068,
        "velocity": 0.76,
        "hand": "left"
      },
      {
        "midi": 38,
        "time": 32.182,
        "duration": 0.121,
        "velocity": 0.97,
        "hand": "left"
      },
      {
        "midi": 60,
        "time": 32.182,
        "duration": 0.257,
        "velocity": 0.91,
        "hand": "right"
      },
      {
        "midi": 65,
        "time": 32.182,
        "duration": 0.257,
        "velocity": 0.95,
        "hand": "right"
      },
      {
        "midi": 38,
        "time": 32.318,
        "duration": 0.068,
        "velocity": 0.55,
        "hand": "left"
      },
      {
        "midi": 55,
        "time": 32.318,
        "duration": 0.121,
        "velocity": 0.59,
        "hand": "left"
      },
      {
        "midi": 38,
        "time": 32.454,
        "duration": 0.068,
        "velocity": 0.55,
        "hand": "left"
      },
      {
        "midi": 43,
        "time": 32.454,
        "duration": 0.273,
        "velocity": 0.92,
        "hand": "left"
      },
      {
        "midi": 65,
        "time": 32.454,
        "duration": 0.136,
        "velocity": 0.54,
        "hand": "right"
      },
      {
        "midi": 67,
        "time": 32.454,
        "duration": 0.136,
        "velocity": 0.59,
        "hand": "right"
      },
      {
        "midi": 77,
        "time": 32.454,
        "duration": 0.136,
        "velocity": 0.54,
        "hand": "right"
      },
      {
        "midi": 79,
        "time": 32.454,
        "duration": 0.136,
        "velocity": 0.59,
        "hand": "right"
      },
      {
        "midi": 38,
        "time": 32.591,
        "duration": 0.068,
        "velocity": 0.55,
        "hand": "left"
      },
      {
        "midi": 52,
        "time": 32.591,
        "duration": 0.121,
        "velocity": 0.73,
        "hand": "left"
      },
      {
        "midi": 64,
        "time": 32.591,
        "duration": 0.121,
        "velocity": 0.73,
        "hand": "right"
      },
      {
        "midi": 76,
        "time": 32.591,
        "duration": 0.136,
        "velocity": 0.73,
        "hand": "right"
      },
      {
        "midi": 38,
        "time": 32.727,
        "duration": 0.273,
        "velocity": 1,
        "hand": "left"
      },
      {
        "midi": 42,
        "time": 32.727,
        "duration": 0.068,
        "velocity": 0.71,
        "hand": "left"
      },
      {
        "midi": 60,
        "time": 32.727,
        "duration": 0.53,
        "velocity": 0.9,
        "hand": "right"
      },
      {
        "midi": 62,
        "time": 32.727,
        "duration": 0.136,
        "velocity": 0.78,
        "hand": "right"
      },
      {
        "midi": 64,
        "time": 32.727,
        "duration": 0.121,
        "velocity": 1,
        "hand": "right"
      },
      {
        "midi": 74,
        "time": 32.727,
        "duration": 0.136,
        "velocity": 0.78,
        "hand": "right"
      },
      {
        "midi": 52,
        "time": 32.863,
        "duration": 0.273,
        "velocity": 0.74,
        "hand": "left"
      },
      {
        "midi": 64,
        "time": 32.863,
        "duration": 0.273,
        "velocity": 0.74,
        "hand": "right"
      },
      {
        "midi": 76,
        "time": 32.863,
        "duration": 0.273,
        "velocity": 0.74,
        "hand": "right"
      },
      {
        "midi": 42,
        "time": 33,
        "duration": 0.257,
        "velocity": 0.95,
        "hand": "left"
      },
      {
        "midi": 46,
        "time": 33,
        "duration": 0.068,
        "velocity": 0.64,
        "hand": "left"
      },
      {
        "midi": 38,
        "time": 33.136,
        "duration": 0.068,
        "velocity": 0.55,
        "hand": "left"
      },
      {
        "midi": 40,
        "time": 33.136,
        "duration": 0.068,
        "velocity": 0.64,
        "hand": "left"
      },
      {
        "midi": 36,
        "time": 33.272,
        "duration": 0.068,
        "velocity": 0.8,
        "hand": "left"
      },
      {
        "midi": 38,
        "time": 33.272,
        "duration": 0.258,
        "velocity": 0.87,
        "hand": "left"
      },
      {
        "midi": 60,
        "time": 33.272,
        "duration": 0.122,
        "velocity": 0.58,
        "hand": "right"
      },
      {
        "midi": 62,
        "time": 33.272,
        "duration": 0.273,
        "velocity": 0.75,
        "hand": "right"
      },
      {
        "midi": 74,
        "time": 33.272,
        "duration": 0.273,
        "velocity": 0.75,
        "hand": "right"
      },
      {
        "midi": 48,
        "time": 33.409,
        "duration": 0.136,
        "velocity": 0.76,
        "hand": "left"
      },
      {
        "midi": 60,
        "time": 33.409,
        "duration": 0.121,
        "velocity": 0.76,
        "hand": "right"
      },
      {
        "midi": 72,
        "time": 33.409,
        "duration": 0.136,
        "velocity": 0.76,
        "hand": "right"
      },
      {
        "midi": 38,
        "time": 33.545,
        "duration": 0.068,
        "velocity": 0.55,
        "hand": "left"
      },
      {
        "midi": 40,
        "time": 33.545,
        "duration": 0.068,
        "velocity": 0.64,
        "hand": "left"
      },
      {
        "midi": 60,
        "time": 33.545,
        "duration": 0.122,
        "velocity": 0.86,
        "hand": "right"
      },
      {
        "midi": 57,
        "time": 33.682,
        "duration": 0.121,
        "velocity": 0.81,
        "hand": "left"
      },
      {
        "midi": 60,
        "time": 33.682,
        "duration": 0.121,
        "velocity": 0.57,
        "hand": "right"
      },
      {
        "midi": 38,
        "time": 33.818,
        "duration": 0.068,
        "velocity": 0.55,
        "hand": "left"
      },
      {
        "midi": 41,
        "time": 33.818,
        "duration": 0.53,
        "velocity": 0.8,
        "hand": "left"
      },
      {
        "midi": 65,
        "time": 33.818,
        "duration": 0.955,
        "velocity": 0.65,
        "hand": "right"
      },
      {
        "midi": 67,
        "time": 33.818,
        "duration": 0.818,
        "velocity": 0.95,
        "hand": "right"
      },
      {
        "midi": 69,
        "time": 33.818,
        "duration": 0.258,
        "velocity": 0.87,
        "hand": "right"
      },
      {
        "midi": 38,
        "time": 34.091,
        "duration": 0.068,
        "velocity": 0.55,
        "hand": "left"
      },
      {
        "midi": 40,
        "time": 34.091,
        "duration": 0.068,
        "velocity": 0.65,
        "hand": "left"
      },
      {
        "midi": 64,
        "time": 34.091,
        "duration": 0.121,
        "velocity": 1,
        "hand": "right"
      },
      {
        "midi": 69,
        "time": 34.091,
        "duration": 0.257,
        "velocity": 0.81,
        "hand": "right"
      },
      {
        "midi": 53,
        "time": 34.227,
        "duration": 0.068,
        "velocity": 0.56,
        "hand": "left"
      },
      {
        "midi": 57,
        "time": 34.227,
        "duration": 0.068,
        "velocity": 0.61,
        "hand": "left"
      },
      {
        "midi": 60,
        "time": 34.227,
        "duration": 0.068,
        "velocity": 0.63,
        "hand": "right"
      },
      {
        "midi": 64,
        "time": 34.227,
        "duration": 0.068,
        "velocity": 0.52,
        "hand": "right"
      },
      {
        "midi": 36,
        "time": 34.363,
        "duration": 0.068,
        "velocity": 0.76,
        "hand": "left"
      },
      {
        "midi": 38,
        "time": 34.363,
        "duration": 0.068,
        "velocity": 0.55,
        "hand": "left"
      },
      {
        "midi": 60,
        "time": 34.363,
        "duration": 0.258,
        "velocity": 0.91,
        "hand": "right"
      },
      {
        "midi": 64,
        "time": 34.363,
        "duration": 0.258,
        "velocity": 0.52,
        "hand": "right"
      },
      {
        "midi": 69,
        "time": 34.363,
        "duration": 0.409,
        "velocity": 0.87,
        "hand": "right"
      },
      {
        "midi": 72,
        "time": 34.363,
        "duration": 0.136,
        "velocity": 0.91,
        "hand": "right"
      },
      {
        "midi": 38,
        "time": 34.5,
        "duration": 0.068,
        "velocity": 0.55,
        "hand": "left"
      },
      {
        "midi": 40,
        "time": 34.5,
        "duration": 0.068,
        "velocity": 0.72,
        "hand": "left"
      },
      {
        "midi": 36,
        "time": 34.636,
        "duration": 0.273,
        "velocity": 0.8,
        "hand": "left"
      },
      {
        "midi": 38,
        "time": 34.636,
        "duration": 0.068,
        "velocity": 0.55,
        "hand": "left"
      },
      {
        "midi": 60,
        "time": 34.636,
        "duration": 0.136,
        "velocity": 0.61,
        "hand": "right"
      },
      {
        "midi": 64,
        "time": 34.636,
        "duration": 0.273,
        "velocity": 0.76,
        "hand": "right"
      },
      {
        "midi": 76,
        "time": 34.636,
        "duration": 0.273,
        "velocity": 0.76,
        "hand": "right"
      },
      {
        "midi": 38,
        "time": 34.772,
        "duration": 0.068,
        "velocity": 0.55,
        "hand": "left"
      },
      {
        "midi": 38,
        "time": 34.909,
        "duration": 0.068,
        "velocity": 0.55,
        "hand": "left"
      },
      {
        "midi": 40,
        "time": 34.909,
        "duration": 0.068,
        "velocity": 0.64,
        "hand": "left"
      },
      {
        "midi": 65,
        "time": 34.909,
        "duration": 0.818,
        "velocity": 0.51,
        "hand": "right"
      },
      {
        "midi": 67,
        "time": 34.909,
        "duration": 0.818,
        "velocity": 0.84,
        "hand": "right"
      },
      {
        "midi": 69,
        "time": 34.909,
        "duration": 0.409,
        "velocity": 0.88,
        "hand": "right"
      },
      {
        "midi": 77,
        "time": 34.909,
        "duration": 0.682,
        "velocity": 0.74,
        "hand": "right"
      },
      {
        "midi": 46,
        "time": 35.182,
        "duration": 0.068,
        "velocity": 0.64,
        "hand": "left"
      },
      {
        "midi": 53,
        "time": 35.182,
        "duration": 0.068,
        "velocity": 0.56,
        "hand": "left"
      },
      {
        "midi": 60,
        "time": 35.182,
        "duration": 0.068,
        "velocity": 0.56,
        "hand": "right"
      },
      {
        "midi": 63,
        "time": 35.182,
        "duration": 0.136,
        "velocity": 0.54,
        "hand": "right"
      },
      {
        "midi": 38,
        "time": 35.318,
        "duration": 0.068,
        "velocity": 0.55,
        "hand": "left"
      },
      {
        "midi": 40,
        "time": 35.318,
        "duration": 0.068,
        "velocity": 0.62,
        "hand": "left"
      },
      {
        "midi": 36,
        "time": 35.454,
        "duration": 0.068,
        "velocity": 0.8,
        "hand": "left"
      },
      {
        "midi": 38,
        "time": 35.454,
        "duration": 0.068,
        "velocity": 0.55,
        "hand": "left"
      },
      {
        "midi": 60,
        "time": 35.454,
        "duration": 0.273,
        "velocity": 0.74,
        "hand": "right"
      },
      {
        "midi": 63,
        "time": 35.454,
        "duration": 0.273,
        "velocity": 0.61,
        "hand": "right"
      },
      {
        "midi": 71,
        "time": 35.454,
        "duration": 0.273,
        "velocity": 0.72,
        "hand": "right"
      },
      {
        "midi": 52,
        "time": 35.591,
        "duration": 0.136,
        "velocity": 0.58,
        "hand": "left"
      },
      {
        "midi": 64,
        "time": 35.591,
        "duration": 0.136,
        "velocity": 0.58,
        "hand": "right"
      },
      {
        "midi": 76,
        "time": 35.591,
        "duration": 0.136,
        "velocity": 0.58,
        "hand": "right"
      },
      {
        "midi": 38,
        "time": 35.727,
        "duration": 0.068,
        "velocity": 0.55,
        "hand": "left"
      },
      {
        "midi": 40,
        "time": 35.727,
        "duration": 0.068,
        "velocity": 0.63,
        "hand": "left"
      },
      {
        "midi": 62,
        "time": 35.727,
        "duration": 0.136,
        "velocity": 0.65,
        "hand": "right"
      },
      {
        "midi": 69,
        "time": 35.727,
        "duration": 0.258,
        "velocity": 0.71,
        "hand": "right"
      },
      {
        "midi": 74,
        "time": 35.727,
        "duration": 0.136,
        "velocity": 0.65,
        "hand": "right"
      },
      {
        "midi": 48,
        "time": 35.863,
        "duration": 0.136,
        "velocity": 0.68,
        "hand": "left"
      },
      {
        "midi": 60,
        "time": 35.863,
        "duration": 0.136,
        "velocity": 0.68,
        "hand": "right"
      },
      {
        "midi": 72,
        "time": 35.863,
        "duration": 0.136,
        "velocity": 0.68,
        "hand": "right"
      },
      {
        "midi": 38,
        "time": 36,
        "duration": 0.068,
        "velocity": 0.55,
        "hand": "left"
      },
      {
        "midi": 40,
        "time": 36,
        "duration": 0.257,
        "velocity": 0.94,
        "hand": "left"
      },
      {
        "midi": 67,
        "time": 36,
        "duration": 0.53,
        "velocity": 0.92,
        "hand": "right"
      },
      {
        "midi": 69,
        "time": 36,
        "duration": 0.257,
        "velocity": 0.86,
        "hand": "right"
      },
      {
        "midi": 74,
        "time": 36,
        "duration": 0.682,
        "velocity": 0.73,
        "hand": "right"
      },
      {
        "midi": 38,
        "time": 36.272,
        "duration": 0.068,
        "velocity": 0.55,
        "hand": "left"
      },
      {
        "midi": 40,
        "time": 36.272,
        "duration": 0.068,
        "velocity": 0.71,
        "hand": "left"
      },
      {
        "midi": 62,
        "time": 36.272,
        "duration": 0.068,
        "velocity": 0.72,
        "hand": "right"
      },
      {
        "midi": 66,
        "time": 36.272,
        "duration": 0.068,
        "velocity": 0.61,
        "hand": "right"
      },
      {
        "midi": 69,
        "time": 36.272,
        "duration": 0.068,
        "velocity": 0.53,
        "hand": "right"
      },
      {
        "midi": 55,
        "time": 36.409,
        "duration": 0.068,
        "velocity": 0.63,
        "hand": "left"
      },
      {
        "midi": 59,
        "time": 36.409,
        "duration": 0.068,
        "velocity": 0.65,
        "hand": "left"
      },
      {
        "midi": 62,
        "time": 36.409,
        "duration": 0.068,
        "velocity": 0.63,
        "hand": "right"
      },
      {
        "midi": 66,
        "time": 36.409,
        "duration": 0.068,
        "velocity": 0.52,
        "hand": "right"
      },
      {
        "midi": 36,
        "time": 36.545,
        "duration": 0.068,
        "velocity": 0.76,
        "hand": "left"
      },
      {
        "midi": 38,
        "time": 36.545,
        "duration": 0.068,
        "velocity": 0.55,
        "hand": "left"
      },
      {
        "midi": 62,
        "time": 36.545,
        "duration": 0.258,
        "velocity": 0.86,
        "hand": "right"
      },
      {
        "midi": 67,
        "time": 36.545,
        "duration": 0.409,
        "velocity": 0.8,
        "hand": "right"
      },
      {
        "midi": 69,
        "time": 36.545,
        "duration": 0.258,
        "velocity": 0.87,
        "hand": "right"
      },
      {
        "midi": 38,
        "time": 36.682,
        "duration": 0.068,
        "velocity": 0.55,
        "hand": "left"
      },
      {
        "midi": 40,
        "time": 36.682,
        "duration": 0.068,
        "velocity": 0.65,
        "hand": "left"
      },
      {
        "midi": 38,
        "time": 36.818,
        "duration": 0.068,
        "velocity": 0.55,
        "hand": "left"
      },
      {
        "midi": 40,
        "time": 36.818,
        "duration": 0.258,
        "velocity": 0.83,
        "hand": "left"
      },
      {
        "midi": 62,
        "time": 36.818,
        "duration": 0.136,
        "velocity": 0.61,
        "hand": "right"
      },
      {
        "midi": 66,
        "time": 36.818,
        "duration": 0.136,
        "velocity": 0.54,
        "hand": "right"
      },
      {
        "midi": 69,
        "time": 36.818,
        "duration": 0.068,
        "velocity": 0.56,
        "hand": "right"
      },
      {
        "midi": 38,
        "time": 36.954,
        "duration": 0.068,
        "velocity": 0.55,
        "hand": "left"
      },
      {
        "midi": 39,
        "time": 37.091,
        "duration": 0.545,
        "velocity": 0.85,
        "hand": "left"
      },
      {
        "midi": 65,
        "time": 37.091,
        "duration": 0.257,
        "velocity": 0.59,
        "hand": "right"
      },
      {
        "midi": 68,
        "time": 37.091,
        "duration": 0.53,
        "velocity": 0.97,
        "hand": "right"
      },
      {
        "midi": 46,
        "time": 37.363,
        "duration": 0.068,
        "velocity": 0.64,
        "hand": "left"
      },
      {
        "midi": 54,
        "time": 37.363,
        "duration": 0.068,
        "velocity": 0.72,
        "hand": "left"
      },
      {
        "midi": 61,
        "time": 37.363,
        "duration": 0.068,
        "velocity": 0.63,
        "hand": "right"
      },
      {
        "midi": 65,
        "time": 37.363,
        "duration": 0.068,
        "velocity": 0.54,
        "hand": "right"
      },
      {
        "midi": 38,
        "time": 37.5,
        "duration": 0.068,
        "velocity": 0.55,
        "hand": "left"
      },
      {
        "midi": 40,
        "time": 37.5,
        "duration": 0.068,
        "velocity": 0.8,
        "hand": "left"
      },
      {
        "midi": 36,
        "time": 37.636,
        "duration": 0.068,
        "velocity": 0.61,
        "hand": "left"
      },
      {
        "midi": 38,
        "time": 37.636,
        "duration": 0.068,
        "velocity": 0.55,
        "hand": "left"
      },
      {
        "midi": 61,
        "time": 37.636,
        "duration": 0.258,
        "velocity": 0.83,
        "hand": "right"
      },
      {
        "midi": 65,
        "time": 37.636,
        "duration": 0.068,
        "velocity": 0.7,
        "hand": "right"
      },
      {
        "midi": 68,
        "time": 37.636,
        "duration": 0.409,
        "velocity": 0.59,
        "hand": "right"
      },
      {
        "midi": 52,
        "time": 37.772,
        "duration": 0.136,
        "velocity": 0.73,
        "hand": "left"
      },
      {
        "midi": 64,
        "time": 37.772,
        "duration": 0.136,
        "velocity": 0.73,
        "hand": "right"
      },
      {
        "midi": 76,
        "time": 37.772,
        "duration": 0.136,
        "velocity": 0.73,
        "hand": "right"
      },
      {
        "midi": 39,
        "time": 37.909,
        "duration": 0.273,
        "velocity": 0.76,
        "hand": "left"
      },
      {
        "midi": 62,
        "time": 37.909,
        "duration": 0.136,
        "velocity": 0.72,
        "hand": "right"
      },
      {
        "midi": 65,
        "time": 37.909,
        "duration": 0.258,
        "velocity": 0.84,
        "hand": "right"
      },
      {
        "midi": 74,
        "time": 37.909,
        "duration": 0.136,
        "velocity": 0.72,
        "hand": "right"
      },
      {
        "midi": 48,
        "time": 38.045,
        "duration": 0.136,
        "velocity": 0.57,
        "hand": "left"
      },
      {
        "midi": 60,
        "time": 38.045,
        "duration": 0.122,
        "velocity": 0.57,
        "hand": "right"
      },
      {
        "midi": 72,
        "time": 38.045,
        "duration": 0.136,
        "velocity": 0.57,
        "hand": "right"
      },
      {
        "midi": 38,
        "time": 38.182,
        "duration": 0.394,
        "velocity": 0.87,
        "hand": "left"
      },
      {
        "midi": 42,
        "time": 38.182,
        "duration": 0.068,
        "velocity": 0.71,
        "hand": "left"
      },
      {
        "midi": 65,
        "time": 38.182,
        "duration": 0.682,
        "velocity": 1,
        "hand": "right"
      },
      {
        "midi": 67,
        "time": 38.182,
        "duration": 0.53,
        "velocity": 0.82,
        "hand": "right"
      },
      {
        "midi": 69,
        "time": 38.182,
        "duration": 0.682,
        "velocity": 0.97,
        "hand": "right"
      },
      {
        "midi": 74,
        "time": 38.182,
        "duration": 0.545,
        "velocity": 0.83,
        "hand": "right"
      },
      {
        "midi": 46,
        "time": 38.454,
        "duration": 0.068,
        "velocity": 0.64,
        "hand": "left"
      },
      {
        "midi": 54,
        "time": 38.454,
        "duration": 0.068,
        "velocity": 0.61,
        "hand": "left"
      },
      {
        "midi": 38,
        "time": 38.591,
        "duration": 0.068,
        "velocity": 0.55,
        "hand": "left"
      },
      {
        "midi": 40,
        "time": 38.591,
        "duration": 0.068,
        "velocity": 0.64,
        "hand": "left"
      },
      {
        "midi": 60,
        "time": 38.591,
        "duration": 0.068,
        "velocity": 0.59,
        "hand": "right"
      },
      {
        "midi": 64,
        "time": 38.591,
        "duration": 0.068,
        "velocity": 0.56,
        "hand": "right"
      },
      {
        "midi": 36,
        "time": 38.727,
        "duration": 0.068,
        "velocity": 0.8,
        "hand": "left"
      },
      {
        "midi": 38,
        "time": 38.727,
        "duration": 0.068,
        "velocity": 0.55,
        "hand": "left"
      },
      {
        "midi": 60,
        "time": 38.727,
        "duration": 0.136,
        "velocity": 0.87,
        "hand": "right"
      },
      {
        "midi": 64,
        "time": 38.727,
        "duration": 0.258,
        "velocity": 0.73,
        "hand": "right"
      },
      {
        "midi": 67,
        "time": 38.727,
        "duration": 0.136,
        "velocity": 0.8,
        "hand": "right"
      },
      {
        "midi": 76,
        "time": 38.727,
        "duration": 0.273,
        "velocity": 0.73,
        "hand": "right"
      },
      {
        "midi": 38,
        "time": 39,
        "duration": 0.257,
        "velocity": 0.8,
        "hand": "left"
      },
      {
        "midi": 40,
        "time": 39,
        "duration": 0.068,
        "velocity": 0.64,
        "hand": "left"
      },
      {
        "midi": 65,
        "time": 39,
        "duration": 0.136,
        "velocity": 0.72,
        "hand": "right"
      },
      {
        "midi": 67,
        "time": 39,
        "duration": 0.068,
        "velocity": 0.55,
        "hand": "right"
      },
      {
        "midi": 74,
        "time": 39,
        "duration": 0.136,
        "velocity": 0.7,
        "hand": "right"
      },
      {
        "midi": 38,
        "time": 39.272,
        "duration": 0.068,
        "velocity": 0.55,
        "hand": "left"
      },
      {
        "midi": 65,
        "time": 39.272,
        "duration": 0.258,
        "velocity": 0.95,
        "hand": "right"
      },
      {
        "midi": 68,
        "time": 39.272,
        "duration": 0.122,
        "velocity": 0.87,
        "hand": "right"
      },
      {
        "midi": 71,
        "time": 39.272,
        "duration": 0.395,
        "velocity": 0.94,
        "hand": "right"
      },
      {
        "midi": 44,
        "time": 39.409,
        "duration": 0.136,
        "velocity": 0.59,
        "hand": "left"
      },
      {
        "midi": 56,
        "time": 39.409,
        "duration": 0.136,
        "velocity": 0.59,
        "hand": "left"
      },
      {
        "midi": 68,
        "time": 39.409,
        "duration": 0.136,
        "velocity": 0.59,
        "hand": "right"
      },
      {
        "midi": 38,
        "time": 39.545,
        "duration": 0.068,
        "velocity": 0.55,
        "hand": "left"
      },
      {
        "midi": 40,
        "time": 39.545,
        "duration": 0.068,
        "velocity": 0.65,
        "hand": "left"
      },
      {
        "midi": 65,
        "time": 39.545,
        "duration": 0.136,
        "velocity": 0.69,
        "hand": "right"
      },
      {
        "midi": 69,
        "time": 39.545,
        "duration": 0.136,
        "velocity": 0.64,
        "hand": "right"
      },
      {
        "midi": 47,
        "time": 39.682,
        "duration": 0.121,
        "velocity": 0.51,
        "hand": "left"
      },
      {
        "midi": 71,
        "time": 39.682,
        "duration": 0.136,
        "velocity": 0.51,
        "hand": "right"
      },
      {
        "midi": 36,
        "time": 39.818,
        "duration": 0.068,
        "velocity": 0.76,
        "hand": "left"
      },
      {
        "midi": 38,
        "time": 39.818,
        "duration": 0.068,
        "velocity": 0.55,
        "hand": "left"
      },
      {
        "midi": 64,
        "time": 39.818,
        "duration": 0.136,
        "velocity": 0.81,
        "hand": "right"
      },
      {
        "midi": 67,
        "time": 39.818,
        "duration": 0.136,
        "velocity": 0.59,
        "hand": "right"
      },
      {
        "midi": 38,
        "time": 39.954,
        "duration": 0.068,
        "velocity": 0.55,
        "hand": "left"
      },
      {
        "midi": 40,
        "time": 39.954,
        "duration": 0.068,
        "velocity": 0.72,
        "hand": "left"
      },
      {
        "midi": 60,
        "time": 39.954,
        "duration": 0.136,
        "velocity": 0.68,
        "hand": "right"
      },
      {
        "midi": 72,
        "time": 39.954,
        "duration": 0.136,
        "velocity": 0.68,
        "hand": "right"
      },
      {
        "midi": 38,
        "time": 40.091,
        "duration": 0.068,
        "velocity": 0.55,
        "hand": "left"
      },
      {
        "midi": 61,
        "time": 40.091,
        "duration": 0.136,
        "velocity": 0.59,
        "hand": "right"
      },
      {
        "midi": 63,
        "time": 40.091,
        "duration": 0.068,
        "velocity": 0.4,
        "hand": "right"
      },
      {
        "midi": 73,
        "time": 40.091,
        "duration": 0.136,
        "velocity": 0.59,
        "hand": "right"
      },
      {
        "midi": 38,
        "time": 40.227,
        "duration": 0.068,
        "velocity": 0.55,
        "hand": "left"
      },
      {
        "midi": 50,
        "time": 40.227,
        "duration": 0.136,
        "velocity": 0.53,
        "hand": "left"
      },
      {
        "midi": 62,
        "time": 40.227,
        "duration": 0.121,
        "velocity": 0.53,
        "hand": "right"
      },
      {
        "midi": 74,
        "time": 40.227,
        "duration": 0.136,
        "velocity": 0.53,
        "hand": "right"
      },
      {
        "midi": 36,
        "time": 40.363,
        "duration": 0.531,
        "velocity": 0.95,
        "hand": "left"
      },
      {
        "midi": 38,
        "time": 40.363,
        "duration": 0.068,
        "velocity": 0.55,
        "hand": "left"
      },
      {
        "midi": 67,
        "time": 40.363,
        "duration": 0.531,
        "velocity": 0.94,
        "hand": "right"
      },
      {
        "midi": 69,
        "time": 40.363,
        "duration": 1.909,
        "velocity": 0.94,
        "hand": "right"
      },
      {
        "midi": 72,
        "time": 40.363,
        "duration": 1.909,
        "velocity": 0.93,
        "hand": "right"
      },
      {
        "midi": 76,
        "time": 40.363,
        "duration": 0.682,
        "velocity": 0.68,
        "hand": "right"
      },
      {
        "midi": 46,
        "time": 40.636,
        "duration": 0.068,
        "velocity": 0.64,
        "hand": "left"
      },
      {
        "midi": 54,
        "time": 40.636,
        "duration": 0.068,
        "velocity": 0.54,
        "hand": "left"
      },
      {
        "midi": 38,
        "time": 40.772,
        "duration": 0.068,
        "velocity": 0.55,
        "hand": "left"
      },
      {
        "midi": 40,
        "time": 40.772,
        "duration": 0.068,
        "velocity": 0.62,
        "hand": "left"
      },
      {
        "midi": 36,
        "time": 40.909,
        "duration": 0.068,
        "velocity": 0.8,
        "hand": "left"
      },
      {
        "midi": 38,
        "time": 40.909,
        "duration": 0.068,
        "velocity": 0.55,
        "hand": "left"
      },
      {
        "midi": 62,
        "time": 40.909,
        "duration": 0.409,
        "velocity": 0.72,
        "hand": "right"
      },
      {
        "midi": 67,
        "time": 40.909,
        "duration": 0.803,
        "velocity": 0.57,
        "hand": "right"
      },
      {
        "midi": 74,
        "time": 40.909,
        "duration": 1.091,
        "velocity": 0.72,
        "hand": "right"
      },
      {
        "midi": 79,
        "time": 40.909,
        "duration": 1.091,
        "velocity": 0.9,
        "hand": "right"
      },
      {
        "midi": 38,
        "time": 41.182,
        "duration": 0.068,
        "velocity": 0.55,
        "hand": "left"
      },
      {
        "midi": 40,
        "time": 41.182,
        "duration": 0.068,
        "velocity": 0.63,
        "hand": "left"
      },
      {
        "midi": 36,
        "time": 41.454,
        "duration": 0.136,
        "velocity": 0.95,
        "hand": "left"
      },
      {
        "midi": 38,
        "time": 41.454,
        "duration": 0.068,
        "velocity": 0.55,
        "hand": "left"
      },
      {
        "midi": 36,
        "time": 41.727,
        "duration": 0.068,
        "velocity": 0.67,
        "hand": "left"
      },
      {
        "midi": 38,
        "time": 41.727,
        "duration": 0.068,
        "velocity": 0.55,
        "hand": "left"
      },
      {
        "midi": 71,
        "time": 41.727,
        "duration": 0.136,
        "velocity": 0.68,
        "hand": "right"
      },
      {
        "midi": 77,
        "time": 41.727,
        "duration": 0.136,
        "velocity": 0.76,
        "hand": "right"
      },
      {
        "midi": 82,
        "time": 41.727,
        "duration": 0.136,
        "velocity": 0.72,
        "hand": "right"
      },
      {
        "midi": 36,
        "time": 42,
        "duration": 0.068,
        "velocity": 0.65,
        "hand": "left"
      },
      {
        "midi": 38,
        "time": 42,
        "duration": 0.068,
        "velocity": 0.55,
        "hand": "left"
      },
      {
        "midi": 43,
        "time": 42.272,
        "duration": 0.273,
        "velocity": 0.95,
        "hand": "left"
      },
      {
        "midi": 53,
        "time": 42.272,
        "duration": 0.136,
        "velocity": 0.74,
        "hand": "left"
      },
      {
        "midi": 71,
        "time": 42.272,
        "duration": 0.273,
        "velocity": 0.56,
        "hand": "right"
      },
      {
        "midi": 77,
        "time": 42.272,
        "duration": 0.136,
        "velocity": 0.72,
        "hand": "right"
      },
      {
        "midi": 82,
        "time": 42.272,
        "duration": 0.136,
        "velocity": 0.57,
        "hand": "right"
      },
      {
        "midi": 60,
        "time": 42.409,
        "duration": 0.068,
        "velocity": 0.92,
        "hand": "right"
      },
      {
        "midi": 47,
        "time": 42.545,
        "duration": 0.068,
        "velocity": 0.56,
        "hand": "left"
      },
      {
        "midi": 57,
        "time": 42.545,
        "duration": 0.068,
        "velocity": 0.64,
        "hand": "left"
      },
      {
        "midi": 67,
        "time": 42.545,
        "duration": 0.258,
        "velocity": 0.9,
        "hand": "right"
      },
      {
        "midi": 36,
        "time": 42.818,
        "duration": 0.068,
        "velocity": 0.67,
        "hand": "left"
      },
      {
        "midi": 38,
        "time": 42.818,
        "duration": 0.068,
        "velocity": 0.55,
        "hand": "left"
      },
      {
        "midi": 71,
        "time": 42.818,
        "duration": 0.136,
        "velocity": 0.68,
        "hand": "right"
      },
      {
        "midi": 77,
        "time": 42.818,
        "duration": 0.136,
        "velocity": 0.76,
        "hand": "right"
      },
      {
        "midi": 82,
        "time": 42.818,
        "duration": 0.136,
        "velocity": 0.68,
        "hand": "right"
      },
      {
        "midi": 36,
        "time": 43.091,
        "duration": 0.068,
        "velocity": 0.67,
        "hand": "left"
      },
      {
        "midi": 38,
        "time": 43.091,
        "duration": 0.068,
        "velocity": 0.55,
        "hand": "left"
      },
      {
        "midi": 43,
        "time": 43.363,
        "duration": 0.136,
        "velocity": 0.95,
        "hand": "left"
      },
      {
        "midi": 53,
        "time": 43.363,
        "duration": 0.068,
        "velocity": 0.76,
        "hand": "left"
      },
      {
        "midi": 71,
        "time": 43.363,
        "duration": 0.136,
        "velocity": 0.69,
        "hand": "right"
      },
      {
        "midi": 77,
        "time": 43.363,
        "duration": 0.136,
        "velocity": 0.76,
        "hand": "right"
      },
      {
        "midi": 82,
        "time": 43.363,
        "duration": 0.136,
        "velocity": 0.68,
        "hand": "right"
      },
      {
        "midi": 39,
        "time": 43.636,
        "duration": 0.068,
        "velocity": 0.65,
        "hand": "left"
      },
      {
        "midi": 62,
        "time": 43.636,
        "duration": 0.068,
        "velocity": 0.7,
        "hand": "right"
      },
      {
        "midi": 64,
        "time": 43.636,
        "duration": 0.273,
        "velocity": 0.74,
        "hand": "right"
      },
      {
        "midi": 67,
        "time": 43.636,
        "duration": 0.136,
        "velocity": 0.56,
        "hand": "right"
      },
      {
        "midi": 39,
        "time": 43.909,
        "duration": 0.068,
        "velocity": 0.67,
        "hand": "left"
      },
      {
        "midi": 71,
        "time": 43.909,
        "duration": 0.273,
        "velocity": 0.79,
        "hand": "right"
      },
      {
        "midi": 77,
        "time": 43.909,
        "duration": 0.273,
        "velocity": 0.79,
        "hand": "right"
      },
      {
        "midi": 82,
        "time": 43.909,
        "duration": 0.273,
        "velocity": 0.79,
        "hand": "right"
      },
      {
        "midi": 57,
        "time": 44.045,
        "duration": 0.068,
        "velocity": 0.61,
        "hand": "left"
      },
      {
        "midi": 62,
        "time": 44.045,
        "duration": 0.068,
        "velocity": 0.72,
        "hand": "right"
      },
      {
        "midi": 67,
        "time": 44.045,
        "duration": 0.136,
        "velocity": 0.55,
        "hand": "right"
      },
      {
        "midi": 36,
        "time": 44.182,
        "duration": 0.068,
        "velocity": 0.64,
        "hand": "left"
      },
      {
        "midi": 38,
        "time": 44.182,
        "duration": 0.068,
        "velocity": 0.55,
        "hand": "left"
      },
      {
        "midi": 64,
        "time": 44.182,
        "duration": 0.273,
        "velocity": 0.9,
        "hand": "right"
      },
      {
        "midi": 45,
        "time": 44.318,
        "duration": 0.068,
        "velocity": 0.6,
        "hand": "left"
      },
      {
        "midi": 36,
        "time": 44.454,
        "duration": 0.068,
        "velocity": 0.57,
        "hand": "left"
      },
      {
        "midi": 41,
        "time": 44.454,
        "duration": 0.068,
        "velocity": 0.75,
        "hand": "left"
      },
      {
        "midi": 62,
        "time": 44.454,
        "duration": 0.122,
        "velocity": 0.73,
        "hand": "right"
      },
      {
        "midi": 65,
        "time": 44.454,
        "duration": 0.136,
        "velocity": 0.74,
        "hand": "right"
      },
      {
        "midi": 67,
        "time": 44.454,
        "duration": 0.136,
        "velocity": 0.64,
        "hand": "right"
      },
      {
        "midi": 70,
        "time": 44.454,
        "duration": 0.136,
        "velocity": 0.87,
        "hand": "right"
      },
      {
        "midi": 62,
        "time": 44.591,
        "duration": 0.121,
        "velocity": 0.68,
        "hand": "right"
      },
      {
        "midi": 38,
        "time": 44.727,
        "duration": 0.068,
        "velocity": 0.55,
        "hand": "left"
      },
      {
        "midi": 40,
        "time": 44.727,
        "duration": 0.258,
        "velocity": 0.95,
        "hand": "left"
      },
      {
        "midi": 62,
        "time": 44.727,
        "duration": 0.394,
        "velocity": 0.83,
        "hand": "right"
      },
      {
        "midi": 67,
        "time": 44.727,
        "duration": 0.409,
        "velocity": 0.81,
        "hand": "right"
      },
      {
        "midi": 69,
        "time": 44.727,
        "duration": 0.394,
        "velocity": 0.85,
        "hand": "right"
      },
      {
        "midi": 38,
        "time": 45,
        "duration": 0.068,
        "velocity": 0.55,
        "hand": "left"
      },
      {
        "midi": 40,
        "time": 45,
        "duration": 0.068,
        "velocity": 0.69,
        "hand": "left"
      },
      {
        "midi": 55,
        "time": 45.136,
        "duration": 0.068,
        "velocity": 0.55,
        "hand": "left"
      },
      {
        "midi": 59,
        "time": 45.136,
        "duration": 0.068,
        "velocity": 0.63,
        "hand": "left"
      },
      {
        "midi": 62,
        "time": 45.136,
        "duration": 0.068,
        "velocity": 0.73,
        "hand": "right"
      },
      {
        "midi": 66,
        "time": 45.136,
        "duration": 0.068,
        "velocity": 0.73,
        "hand": "right"
      },
      {
        "midi": 69,
        "time": 45.136,
        "duration": 0.068,
        "velocity": 0.56,
        "hand": "right"
      },
      {
        "midi": 36,
        "time": 45.272,
        "duration": 0.068,
        "velocity": 0.8,
        "hand": "left"
      },
      {
        "midi": 38,
        "time": 45.272,
        "duration": 0.068,
        "velocity": 0.55,
        "hand": "left"
      },
      {
        "midi": 62,
        "time": 45.272,
        "duration": 0.068,
        "velocity": 0.53,
        "hand": "right"
      },
      {
        "midi": 67,
        "time": 45.272,
        "duration": 0.273,
        "velocity": 0.79,
        "hand": "right"
      },
      {
        "midi": 38,
        "time": 45.409,
        "duration": 0.068,
        "velocity": 0.55,
        "hand": "left"
      },
      {
        "midi": 40,
        "time": 45.409,
        "duration": 0.068,
        "velocity": 0.62,
        "hand": "left"
      },
      {
        "midi": 38,
        "time": 45.545,
        "duration": 0.068,
        "velocity": 0.55,
        "hand": "left"
      },
      {
        "midi": 46,
        "time": 45.545,
        "duration": 0.068,
        "velocity": 0.64,
        "hand": "left"
      },
      {
        "midi": 62,
        "time": 45.545,
        "duration": 0.068,
        "velocity": 0.64,
        "hand": "right"
      },
      {
        "midi": 66,
        "time": 45.545,
        "duration": 0.068,
        "velocity": 0.52,
        "hand": "right"
      },
      {
        "midi": 38,
        "time": 45.682,
        "duration": 0.068,
        "velocity": 0.55,
        "hand": "left"
      },
      {
        "midi": 59,
        "time": 45.682,
        "duration": 0.121,
        "velocity": 0.69,
        "hand": "left"
      },
      {
        "midi": 62,
        "time": 45.682,
        "duration": 0.121,
        "velocity": 0.72,
        "hand": "right"
      },
      {
        "midi": 38,
        "time": 45.818,
        "duration": 0.068,
        "velocity": 0.55,
        "hand": "left"
      },
      {
        "midi": 40,
        "time": 45.818,
        "duration": 0.394,
        "velocity": 0.91,
        "hand": "left"
      },
      {
        "midi": 62,
        "time": 45.818,
        "duration": 0.258,
        "velocity": 0.75,
        "hand": "right"
      },
      {
        "midi": 67,
        "time": 45.818,
        "duration": 0.409,
        "velocity": 0.83,
        "hand": "right"
      },
      {
        "midi": 69,
        "time": 45.818,
        "duration": 0.53,
        "velocity": 0.87,
        "hand": "right"
      },
      {
        "midi": 46,
        "time": 46.091,
        "duration": 0.068,
        "velocity": 0.64,
        "hand": "left"
      },
      {
        "midi": 54,
        "time": 46.091,
        "duration": 0.068,
        "velocity": 0.61,
        "hand": "left"
      },
      {
        "midi": 62,
        "time": 46.091,
        "duration": 0.068,
        "velocity": 0.56,
        "hand": "right"
      },
      {
        "midi": 66,
        "time": 46.091,
        "duration": 0.257,
        "velocity": 1,
        "hand": "right"
      },
      {
        "midi": 38,
        "time": 46.227,
        "duration": 0.068,
        "velocity": 0.55,
        "hand": "left"
      },
      {
        "midi": 40,
        "time": 46.227,
        "duration": 0.068,
        "velocity": 0.73,
        "hand": "left"
      },
      {
        "midi": 36,
        "time": 46.363,
        "duration": 0.068,
        "velocity": 0.8,
        "hand": "left"
      },
      {
        "midi": 38,
        "time": 46.363,
        "duration": 0.068,
        "velocity": 0.55,
        "hand": "left"
      },
      {
        "midi": 62,
        "time": 46.363,
        "duration": 0.273,
        "velocity": 0.57,
        "hand": "right"
      },
      {
        "midi": 66,
        "time": 46.363,
        "duration": 0.273,
        "velocity": 0.52,
        "hand": "right"
      },
      {
        "midi": 69,
        "time": 46.363,
        "duration": 0.273,
        "velocity": 0.69,
        "hand": "right"
      },
      {
        "midi": 38,
        "time": 46.636,
        "duration": 0.068,
        "velocity": 0.55,
        "hand": "left"
      },
      {
        "midi": 40,
        "time": 46.636,
        "duration": 0.273,
        "velocity": 0.95,
        "hand": "left"
      },
      {
        "midi": 67,
        "time": 46.636,
        "duration": 0.258,
        "velocity": 0.68,
        "hand": "right"
      },
      {
        "midi": 38,
        "time": 46.909,
        "duration": 0.258,
        "velocity": 0.84,
        "hand": "left"
      },
      {
        "midi": 42,
        "time": 46.909,
        "duration": 0.068,
        "velocity": 0.71,
        "hand": "left"
      },
      {
        "midi": 62,
        "time": 46.909,
        "duration": 1.076,
        "velocity": 0.87,
        "hand": "right"
      },
      {
        "midi": 65,
        "time": 46.909,
        "duration": 0.53,
        "velocity": 0.75,
        "hand": "right"
      },
      {
        "midi": 67,
        "time": 46.909,
        "duration": 0.53,
        "velocity": 0.91,
        "hand": "right"
      },
      {
        "midi": 38,
        "time": 47.182,
        "duration": 0.068,
        "velocity": 0.55,
        "hand": "left"
      },
      {
        "midi": 40,
        "time": 47.182,
        "duration": 0.068,
        "velocity": 0.65,
        "hand": "left"
      },
      {
        "midi": 53,
        "time": 47.318,
        "duration": 0.068,
        "velocity": 0.57,
        "hand": "left"
      },
      {
        "midi": 57,
        "time": 47.318,
        "duration": 0.068,
        "velocity": 0.49,
        "hand": "left"
      },
      {
        "midi": 60,
        "time": 47.318,
        "duration": 0.068,
        "velocity": 0.68,
        "hand": "right"
      },
      {
        "midi": 64,
        "time": 47.318,
        "duration": 0.068,
        "velocity": 0.54,
        "hand": "right"
      },
      {
        "midi": 36,
        "time": 47.454,
        "duration": 0.068,
        "velocity": 0.8,
        "hand": "left"
      },
      {
        "midi": 38,
        "time": 47.454,
        "duration": 0.068,
        "velocity": 0.55,
        "hand": "left"
      },
      {
        "midi": 60,
        "time": 47.454,
        "duration": 0.258,
        "velocity": 0.83,
        "hand": "right"
      },
      {
        "midi": 65,
        "time": 47.454,
        "duration": 0.409,
        "velocity": 0.86,
        "hand": "right"
      },
      {
        "midi": 67,
        "time": 47.454,
        "duration": 0.273,
        "velocity": 0.77,
        "hand": "right"
      },
      {
        "midi": 38,
        "time": 47.591,
        "duration": 0.068,
        "velocity": 0.55,
        "hand": "left"
      },
      {
        "midi": 40,
        "time": 47.591,
        "duration": 0.068,
        "velocity": 0.76,
        "hand": "left"
      },
      {
        "midi": 38,
        "time": 47.727,
        "duration": 0.068,
        "velocity": 0.55,
        "hand": "left"
      },
      {
        "midi": 46,
        "time": 47.727,
        "duration": 0.068,
        "velocity": 0.64,
        "hand": "left"
      },
      {
        "midi": 60,
        "time": 47.727,
        "duration": 0.136,
        "velocity": 0.68,
        "hand": "right"
      },
      {
        "midi": 64,
        "time": 47.727,
        "duration": 0.136,
        "velocity": 0.57,
        "hand": "right"
      },
      {
        "midi": 38,
        "time": 47.863,
        "duration": 0.068,
        "velocity": 0.55,
        "hand": "left"
      },
      {
        "midi": 38,
        "time": 48,
        "duration": 0.394,
        "velocity": 0.94,
        "hand": "left"
      },
      {
        "midi": 40,
        "time": 48,
        "duration": 0.068,
        "velocity": 0.71,
        "hand": "left"
      },
      {
        "midi": 62,
        "time": 48,
        "duration": 0.53,
        "velocity": 0.86,
        "hand": "right"
      },
      {
        "midi": 65,
        "time": 48,
        "duration": 0.409,
        "velocity": 0.81,
        "hand": "right"
      },
      {
        "midi": 69,
        "time": 48,
        "duration": 0.53,
        "velocity": 1,
        "hand": "right"
      },
      {
        "midi": 46,
        "time": 48.272,
        "duration": 0.068,
        "velocity": 0.64,
        "hand": "left"
      },
      {
        "midi": 54,
        "time": 48.272,
        "duration": 0.068,
        "velocity": 0.61,
        "hand": "left"
      },
      {
        "midi": 38,
        "time": 48.409,
        "duration": 0.068,
        "velocity": 0.55,
        "hand": "left"
      },
      {
        "midi": 40,
        "time": 48.409,
        "duration": 0.068,
        "velocity": 0.67,
        "hand": "left"
      },
      {
        "midi": 61,
        "time": 48.409,
        "duration": 0.068,
        "velocity": 0.4,
        "hand": "right"
      },
      {
        "midi": 63,
        "time": 48.409,
        "duration": 0.273,
        "velocity": 0.56,
        "hand": "right"
      },
      {
        "midi": 36,
        "time": 48.545,
        "duration": 0.068,
        "velocity": 0.76,
        "hand": "left"
      },
      {
        "midi": 38,
        "time": 48.545,
        "duration": 0.068,
        "velocity": 0.55,
        "hand": "left"
      },
      {
        "midi": 62,
        "time": 48.545,
        "duration": 0.122,
        "velocity": 0.88,
        "hand": "right"
      },
      {
        "midi": 64,
        "time": 48.545,
        "duration": 0.273,
        "velocity": 0.56,
        "hand": "right"
      },
      {
        "midi": 67,
        "time": 48.545,
        "duration": 0.273,
        "velocity": 1,
        "hand": "right"
      },
      {
        "midi": 69,
        "time": 48.545,
        "duration": 0.273,
        "velocity": 0.87,
        "hand": "right"
      },
      {
        "midi": 53,
        "time": 48.682,
        "duration": 0.136,
        "velocity": 0.56,
        "hand": "left"
      },
      {
        "midi": 57,
        "time": 48.682,
        "duration": 0.136,
        "velocity": 0.53,
        "hand": "left"
      },
      {
        "midi": 62,
        "time": 48.682,
        "duration": 0.136,
        "velocity": 0.56,
        "hand": "right"
      },
      {
        "midi": 38,
        "time": 48.818,
        "duration": 0.068,
        "velocity": 0.55,
        "hand": "left"
      },
      {
        "midi": 40,
        "time": 48.818,
        "duration": 0.068,
        "velocity": 0.64,
        "hand": "left"
      },
      {
        "midi": 65,
        "time": 48.818,
        "duration": 0.258,
        "velocity": 0.75,
        "hand": "right"
      },
      {
        "midi": 38,
        "time": 49.091,
        "duration": 0.068,
        "velocity": 0.55,
        "hand": "left"
      },
      {
        "midi": 42,
        "time": 49.091,
        "duration": 0.068,
        "velocity": 0.71,
        "hand": "left"
      },
      {
        "midi": 60,
        "time": 49.091,
        "duration": 0.394,
        "velocity": 1,
        "hand": "right"
      },
      {
        "midi": 65,
        "time": 49.091,
        "duration": 0.53,
        "velocity": 0.99,
        "hand": "right"
      },
      {
        "midi": 40,
        "time": 49.227,
        "duration": 0.068,
        "velocity": 0.69,
        "hand": "left"
      },
      {
        "midi": 38,
        "time": 49.363,
        "duration": 0.068,
        "velocity": 0.55,
        "hand": "left"
      },
      {
        "midi": 46,
        "time": 49.363,
        "duration": 0.068,
        "velocity": 0.64,
        "hand": "left"
      },
      {
        "midi": 67,
        "time": 49.363,
        "duration": 0.273,
        "velocity": 0.85,
        "hand": "right"
      },
      {
        "midi": 53,
        "time": 49.5,
        "duration": 0.068,
        "velocity": 0.61,
        "hand": "left"
      },
      {
        "midi": 55,
        "time": 49.5,
        "duration": 0.068,
        "velocity": 0.72,
        "hand": "left"
      },
      {
        "midi": 60,
        "time": 49.5,
        "duration": 0.068,
        "velocity": 0.56,
        "hand": "right"
      },
      {
        "midi": 36,
        "time": 49.636,
        "duration": 0.068,
        "velocity": 0.76,
        "hand": "left"
      },
      {
        "midi": 38,
        "time": 49.636,
        "duration": 0.121,
        "velocity": 0.97,
        "hand": "left"
      },
      {
        "midi": 60,
        "time": 49.636,
        "duration": 0.258,
        "velocity": 0.91,
        "hand": "right"
      },
      {
        "midi": 65,
        "time": 49.636,
        "duration": 0.545,
        "velocity": 0.95,
        "hand": "right"
      },
      {
        "midi": 70,
        "time": 49.636,
        "duration": 0.273,
        "velocity": 0.85,
        "hand": "right"
      },
      {
        "midi": 38,
        "time": 49.772,
        "duration": 0.068,
        "velocity": 0.55,
        "hand": "left"
      },
      {
        "midi": 38,
        "time": 49.909,
        "duration": 0.068,
        "velocity": 0.55,
        "hand": "left"
      },
      {
        "midi": 43,
        "time": 49.909,
        "duration": 0.273,
        "velocity": 0.92,
        "hand": "left"
      },
      {
        "midi": 60,
        "time": 49.909,
        "duration": 0.136,
        "velocity": 0.61,
        "hand": "right"
      },
      {
        "midi": 72,
        "time": 49.909,
        "duration": 0.273,
        "velocity": 0.74,
        "hand": "right"
      },
      {
        "midi": 38,
        "time": 50.045,
        "duration": 0.068,
        "velocity": 0.55,
        "hand": "left"
      },
      {
        "midi": 38,
        "time": 50.182,
        "duration": 0.273,
        "velocity": 1,
        "hand": "left"
      },
      {
        "midi": 42,
        "time": 50.182,
        "duration": 0.068,
        "velocity": 0.71,
        "hand": "left"
      },
      {
        "midi": 60,
        "time": 50.182,
        "duration": 0.53,
        "velocity": 0.9,
        "hand": "right"
      },
      {
        "midi": 64,
        "time": 50.182,
        "duration": 0.955,
        "velocity": 0.95,
        "hand": "right"
      },
      {
        "midi": 76,
        "time": 50.182,
        "duration": 0.545,
        "velocity": 0.78,
        "hand": "right"
      },
      {
        "midi": 42,
        "time": 50.454,
        "duration": 0.258,
        "velocity": 0.95,
        "hand": "left"
      },
      {
        "midi": 46,
        "time": 50.454,
        "duration": 0.068,
        "velocity": 0.64,
        "hand": "left"
      },
      {
        "midi": 38,
        "time": 50.591,
        "duration": 0.068,
        "velocity": 0.55,
        "hand": "left"
      },
      {
        "midi": 40,
        "time": 50.591,
        "duration": 0.068,
        "velocity": 0.64,
        "hand": "left"
      },
      {
        "midi": 36,
        "time": 50.727,
        "duration": 0.068,
        "velocity": 0.8,
        "hand": "left"
      },
      {
        "midi": 38,
        "time": 50.727,
        "duration": 0.258,
        "velocity": 0.87,
        "hand": "left"
      },
      {
        "midi": 60,
        "time": 50.727,
        "duration": 0.136,
        "velocity": 0.58,
        "hand": "right"
      },
      {
        "midi": 79,
        "time": 50.727,
        "duration": 0.545,
        "velocity": 0.76,
        "hand": "right"
      },
      {
        "midi": 38,
        "time": 51,
        "duration": 0.068,
        "velocity": 0.55,
        "hand": "left"
      },
      {
        "midi": 40,
        "time": 51,
        "duration": 0.068,
        "velocity": 0.64,
        "hand": "left"
      },
      {
        "midi": 60,
        "time": 51,
        "duration": 0.121,
        "velocity": 0.86,
        "hand": "right"
      },
      {
        "midi": 57,
        "time": 51.136,
        "duration": 0.121,
        "velocity": 0.81,
        "hand": "left"
      },
      {
        "midi": 60,
        "time": 51.136,
        "duration": 0.121,
        "velocity": 0.57,
        "hand": "right"
      },
      {
        "midi": 38,
        "time": 51.272,
        "duration": 0.068,
        "velocity": 0.55,
        "hand": "left"
      },
      {
        "midi": 41,
        "time": 51.272,
        "duration": 0.531,
        "velocity": 0.8,
        "hand": "left"
      },
      {
        "midi": 65,
        "time": 51.272,
        "duration": 2.045,
        "velocity": 0.99,
        "hand": "right"
      },
      {
        "midi": 67,
        "time": 51.272,
        "duration": 0.818,
        "velocity": 0.95,
        "hand": "right"
      },
      {
        "midi": 69,
        "time": 51.272,
        "duration": 0.409,
        "velocity": 0.87,
        "hand": "right"
      },
      {
        "midi": 77,
        "time": 51.272,
        "duration": 0.818,
        "velocity": 0.74,
        "hand": "right"
      },
      {
        "midi": 38,
        "time": 51.545,
        "duration": 0.068,
        "velocity": 0.55,
        "hand": "left"
      },
      {
        "midi": 40,
        "time": 51.545,
        "duration": 0.068,
        "velocity": 0.65,
        "hand": "left"
      },
      {
        "midi": 64,
        "time": 51.545,
        "duration": 0.122,
        "velocity": 1,
        "hand": "right"
      },
      {
        "midi": 53,
        "time": 51.682,
        "duration": 0.068,
        "velocity": 0.56,
        "hand": "left"
      },
      {
        "midi": 57,
        "time": 51.682,
        "duration": 0.068,
        "velocity": 0.61,
        "hand": "left"
      },
      {
        "midi": 60,
        "time": 51.682,
        "duration": 0.068,
        "velocity": 0.63,
        "hand": "right"
      },
      {
        "midi": 64,
        "time": 51.682,
        "duration": 0.068,
        "velocity": 0.52,
        "hand": "right"
      },
      {
        "midi": 36,
        "time": 51.818,
        "duration": 0.068,
        "velocity": 0.76,
        "hand": "left"
      },
      {
        "midi": 38,
        "time": 51.818,
        "duration": 0.068,
        "velocity": 0.55,
        "hand": "left"
      },
      {
        "midi": 60,
        "time": 51.818,
        "duration": 0.258,
        "velocity": 0.83,
        "hand": "right"
      },
      {
        "midi": 64,
        "time": 51.818,
        "duration": 0.258,
        "velocity": 0.52,
        "hand": "right"
      },
      {
        "midi": 69,
        "time": 51.818,
        "duration": 0.409,
        "velocity": 0.87,
        "hand": "right"
      },
      {
        "midi": 38,
        "time": 51.954,
        "duration": 0.068,
        "velocity": 0.55,
        "hand": "left"
      },
      {
        "midi": 40,
        "time": 51.954,
        "duration": 0.068,
        "velocity": 0.72,
        "hand": "left"
      },
      {
        "midi": 36,
        "time": 52.091,
        "duration": 0.273,
        "velocity": 0.8,
        "hand": "left"
      },
      {
        "midi": 38,
        "time": 52.091,
        "duration": 0.068,
        "velocity": 0.55,
        "hand": "left"
      },
      {
        "midi": 60,
        "time": 52.091,
        "duration": 0.136,
        "velocity": 0.61,
        "hand": "right"
      },
      {
        "midi": 64,
        "time": 52.091,
        "duration": 0.068,
        "velocity": 0.53,
        "hand": "right"
      },
      {
        "midi": 72,
        "time": 52.091,
        "duration": 0.273,
        "velocity": 0.78,
        "hand": "right"
      },
      {
        "midi": 38,
        "time": 52.227,
        "duration": 0.068,
        "velocity": 0.55,
        "hand": "left"
      },
      {
        "midi": 38,
        "time": 52.363,
        "duration": 0.068,
        "velocity": 0.55,
        "hand": "left"
      },
      {
        "midi": 40,
        "time": 52.363,
        "duration": 0.068,
        "velocity": 0.64,
        "hand": "left"
      },
      {
        "midi": 63,
        "time": 52.363,
        "duration": 0.258,
        "velocity": 0.82,
        "hand": "right"
      },
      {
        "midi": 67,
        "time": 52.363,
        "duration": 0.818,
        "velocity": 0.84,
        "hand": "right"
      },
      {
        "midi": 69,
        "time": 52.363,
        "duration": 0.409,
        "velocity": 0.88,
        "hand": "right"
      },
      {
        "midi": 77,
        "time": 52.363,
        "duration": 0.545,
        "velocity": 0.8,
        "hand": "right"
      },
      {
        "midi": 46,
        "time": 52.636,
        "duration": 0.068,
        "velocity": 0.64,
        "hand": "left"
      },
      {
        "midi": 53,
        "time": 52.636,
        "duration": 0.068,
        "velocity": 0.56,
        "hand": "left"
      },
      {
        "midi": 60,
        "time": 52.636,
        "duration": 0.068,
        "velocity": 0.56,
        "hand": "right"
      },
      {
        "midi": 63,
        "time": 52.636,
        "duration": 0.136,
        "velocity": 0.54,
        "hand": "right"
      },
      {
        "midi": 38,
        "time": 52.772,
        "duration": 0.068,
        "velocity": 0.55,
        "hand": "left"
      },
      {
        "midi": 40,
        "time": 52.772,
        "duration": 0.068,
        "velocity": 0.62,
        "hand": "left"
      },
      {
        "midi": 36,
        "time": 52.909,
        "duration": 0.068,
        "velocity": 0.8,
        "hand": "left"
      },
      {
        "midi": 38,
        "time": 52.909,
        "duration": 0.068,
        "velocity": 0.55,
        "hand": "left"
      },
      {
        "midi": 60,
        "time": 52.909,
        "duration": 0.273,
        "velocity": 0.74,
        "hand": "right"
      },
      {
        "midi": 63,
        "time": 52.909,
        "duration": 0.273,
        "velocity": 0.61,
        "hand": "right"
      },
      {
        "midi": 71,
        "time": 52.909,
        "duration": 0.273,
        "velocity": 0.72,
        "hand": "right"
      },
      {
        "midi": 38,
        "time": 53.182,
        "duration": 0.068,
        "velocity": 0.55,
        "hand": "left"
      },
      {
        "midi": 40,
        "time": 53.182,
        "duration": 0.068,
        "velocity": 0.63,
        "hand": "left"
      },
      {
        "midi": 69,
        "time": 53.182,
        "duration": 0.257,
        "velocity": 0.71,
        "hand": "right"
      },
      {
        "midi": 77,
        "time": 53.182,
        "duration": 0.273,
        "velocity": 0.76,
        "hand": "right"
      },
      {
        "midi": 38,
        "time": 53.454,
        "duration": 0.068,
        "velocity": 0.55,
        "hand": "left"
      },
      {
        "midi": 40,
        "time": 53.454,
        "duration": 0.258,
        "velocity": 0.94,
        "hand": "left"
      },
      {
        "midi": 67,
        "time": 53.454,
        "duration": 0.531,
        "velocity": 0.99,
        "hand": "right"
      },
      {
        "midi": 69,
        "time": 53.454,
        "duration": 0.258,
        "velocity": 0.86,
        "hand": "right"
      },
      {
        "midi": 79,
        "time": 53.454,
        "duration": 1.091,
        "velocity": 0.76,
        "hand": "right"
      },
      {
        "midi": 38,
        "time": 53.727,
        "duration": 0.068,
        "velocity": 0.55,
        "hand": "left"
      },
      {
        "midi": 40,
        "time": 53.727,
        "duration": 0.068,
        "velocity": 0.71,
        "hand": "left"
      },
      {
        "midi": 62,
        "time": 53.727,
        "duration": 0.068,
        "velocity": 0.72,
        "hand": "right"
      },
      {
        "midi": 66,
        "time": 53.727,
        "duration": 0.068,
        "velocity": 0.61,
        "hand": "right"
      },
      {
        "midi": 69,
        "time": 53.727,
        "duration": 0.068,
        "velocity": 0.53,
        "hand": "right"
      },
      {
        "midi": 55,
        "time": 53.863,
        "duration": 0.068,
        "velocity": 0.63,
        "hand": "left"
      },
      {
        "midi": 59,
        "time": 53.863,
        "duration": 0.068,
        "velocity": 0.65,
        "hand": "left"
      },
      {
        "midi": 62,
        "time": 53.863,
        "duration": 0.068,
        "velocity": 0.63,
        "hand": "right"
      },
      {
        "midi": 66,
        "time": 53.863,
        "duration": 0.068,
        "velocity": 0.52,
        "hand": "right"
      },
      {
        "midi": 36,
        "time": 54,
        "duration": 0.068,
        "velocity": 0.76,
        "hand": "left"
      },
      {
        "midi": 38,
        "time": 54,
        "duration": 0.068,
        "velocity": 0.55,
        "hand": "left"
      },
      {
        "midi": 62,
        "time": 54,
        "duration": 0.257,
        "velocity": 0.86,
        "hand": "right"
      },
      {
        "midi": 67,
        "time": 54,
        "duration": 0.409,
        "velocity": 0.8,
        "hand": "right"
      },
      {
        "midi": 69,
        "time": 54,
        "duration": 0.257,
        "velocity": 0.87,
        "hand": "right"
      },
      {
        "midi": 38,
        "time": 54.136,
        "duration": 0.068,
        "velocity": 0.55,
        "hand": "left"
      },
      {
        "midi": 40,
        "time": 54.136,
        "duration": 0.068,
        "velocity": 0.65,
        "hand": "left"
      },
      {
        "midi": 38,
        "time": 54.272,
        "duration": 0.068,
        "velocity": 0.55,
        "hand": "left"
      },
      {
        "midi": 40,
        "time": 54.272,
        "duration": 0.258,
        "velocity": 0.83,
        "hand": "left"
      },
      {
        "midi": 62,
        "time": 54.272,
        "duration": 0.136,
        "velocity": 0.61,
        "hand": "right"
      },
      {
        "midi": 66,
        "time": 54.272,
        "duration": 0.136,
        "velocity": 0.54,
        "hand": "right"
      },
      {
        "midi": 69,
        "time": 54.272,
        "duration": 0.068,
        "velocity": 0.56,
        "hand": "right"
      },
      {
        "midi": 38,
        "time": 54.409,
        "duration": 0.068,
        "velocity": 0.55,
        "hand": "left"
      },
      {
        "midi": 39,
        "time": 54.545,
        "duration": 0.545,
        "velocity": 0.85,
        "hand": "left"
      },
      {
        "midi": 65,
        "time": 54.545,
        "duration": 0.258,
        "velocity": 0.59,
        "hand": "right"
      },
      {
        "midi": 68,
        "time": 54.545,
        "duration": 0.531,
        "velocity": 0.96,
        "hand": "right"
      },
      {
        "midi": 80,
        "time": 54.545,
        "duration": 1.091,
        "velocity": 0.85,
        "hand": "right"
      },
      {
        "midi": 46,
        "time": 54.818,
        "duration": 0.068,
        "velocity": 0.64,
        "hand": "left"
      },
      {
        "midi": 54,
        "time": 54.818,
        "duration": 0.068,
        "velocity": 0.72,
        "hand": "left"
      },
      {
        "midi": 61,
        "time": 54.818,
        "duration": 0.068,
        "velocity": 0.63,
        "hand": "right"
      },
      {
        "midi": 65,
        "time": 54.818,
        "duration": 0.068,
        "velocity": 0.54,
        "hand": "right"
      },
      {
        "midi": 38,
        "time": 54.954,
        "duration": 0.068,
        "velocity": 0.55,
        "hand": "left"
      },
      {
        "midi": 40,
        "time": 54.954,
        "duration": 0.068,
        "velocity": 0.8,
        "hand": "left"
      },
      {
        "midi": 36,
        "time": 55.091,
        "duration": 0.068,
        "velocity": 0.61,
        "hand": "left"
      },
      {
        "midi": 38,
        "time": 55.091,
        "duration": 0.068,
        "velocity": 0.55,
        "hand": "left"
      },
      {
        "midi": 61,
        "time": 55.091,
        "duration": 0.257,
        "velocity": 0.83,
        "hand": "right"
      },
      {
        "midi": 65,
        "time": 55.091,
        "duration": 0.068,
        "velocity": 0.7,
        "hand": "right"
      },
      {
        "midi": 68,
        "time": 55.091,
        "duration": 0.409,
        "velocity": 0.59,
        "hand": "right"
      },
      {
        "midi": 39,
        "time": 55.363,
        "duration": 0.273,
        "velocity": 0.76,
        "hand": "left"
      },
      {
        "midi": 61,
        "time": 55.363,
        "duration": 0.136,
        "velocity": 0.73,
        "hand": "right"
      },
      {
        "midi": 65,
        "time": 55.363,
        "duration": 0.258,
        "velocity": 0.84,
        "hand": "right"
      },
      {
        "midi": 38,
        "time": 55.636,
        "duration": 0.394,
        "velocity": 0.87,
        "hand": "left"
      },
      {
        "midi": 42,
        "time": 55.636,
        "duration": 0.068,
        "velocity": 0.71,
        "hand": "left"
      },
      {
        "midi": 65,
        "time": 55.636,
        "duration": 0.682,
        "velocity": 0.99,
        "hand": "right"
      },
      {
        "midi": 67,
        "time": 55.636,
        "duration": 0.531,
        "velocity": 0.82,
        "hand": "right"
      },
      {
        "midi": 69,
        "time": 55.636,
        "duration": 0.682,
        "velocity": 0.86,
        "hand": "right"
      },
      {
        "midi": 81,
        "time": 55.636,
        "duration": 1.091,
        "velocity": 0.73,
        "hand": "right"
      },
      {
        "midi": 46,
        "time": 55.909,
        "duration": 0.068,
        "velocity": 0.64,
        "hand": "left"
      },
      {
        "midi": 54,
        "time": 55.909,
        "duration": 0.068,
        "velocity": 0.61,
        "hand": "left"
      },
      {
        "midi": 38,
        "time": 56.045,
        "duration": 0.068,
        "velocity": 0.55,
        "hand": "left"
      },
      {
        "midi": 40,
        "time": 56.045,
        "duration": 0.068,
        "velocity": 0.64,
        "hand": "left"
      },
      {
        "midi": 60,
        "time": 56.045,
        "duration": 0.068,
        "velocity": 0.59,
        "hand": "right"
      },
      {
        "midi": 64,
        "time": 56.045,
        "duration": 0.068,
        "velocity": 0.56,
        "hand": "right"
      },
      {
        "midi": 36,
        "time": 56.182,
        "duration": 0.068,
        "velocity": 0.8,
        "hand": "left"
      },
      {
        "midi": 38,
        "time": 56.182,
        "duration": 0.068,
        "velocity": 0.55,
        "hand": "left"
      },
      {
        "midi": 60,
        "time": 56.182,
        "duration": 0.136,
        "velocity": 0.87,
        "hand": "right"
      },
      {
        "midi": 64,
        "time": 56.182,
        "duration": 0.136,
        "velocity": 0.57,
        "hand": "right"
      },
      {
        "midi": 67,
        "time": 56.182,
        "duration": 0.136,
        "velocity": 0.8,
        "hand": "right"
      },
      {
        "midi": 38,
        "time": 56.454,
        "duration": 0.258,
        "velocity": 0.8,
        "hand": "left"
      },
      {
        "midi": 40,
        "time": 56.454,
        "duration": 0.068,
        "velocity": 0.64,
        "hand": "left"
      },
      {
        "midi": 65,
        "time": 56.454,
        "duration": 0.136,
        "velocity": 0.72,
        "hand": "right"
      },
      {
        "midi": 67,
        "time": 56.454,
        "duration": 0.068,
        "velocity": 0.55,
        "hand": "right"
      },
      {
        "midi": 38,
        "time": 56.727,
        "duration": 0.068,
        "velocity": 0.55,
        "hand": "left"
      },
      {
        "midi": 68,
        "time": 56.727,
        "duration": 0.682,
        "velocity": 0.98,
        "hand": "right"
      },
      {
        "midi": 71,
        "time": 56.727,
        "duration": 0.682,
        "velocity": 0.97,
        "hand": "right"
      },
      {
        "midi": 83,
        "time": 56.727,
        "duration": 1.091,
        "velocity": 0.83,
        "hand": "right"
      },
      {
        "midi": 38,
        "time": 57,
        "duration": 0.068,
        "velocity": 0.55,
        "hand": "left"
      },
      {
        "midi": 40,
        "time": 57,
        "duration": 0.068,
        "velocity": 0.65,
        "hand": "left"
      },
      {
        "midi": 65,
        "time": 57,
        "duration": 0.136,
        "velocity": 0.69,
        "hand": "right"
      },
      {
        "midi": 36,
        "time": 57.272,
        "duration": 0.068,
        "velocity": 0.76,
        "hand": "left"
      },
      {
        "midi": 38,
        "time": 57.272,
        "duration": 0.068,
        "velocity": 0.55,
        "hand": "left"
      },
      {
        "midi": 64,
        "time": 57.272,
        "duration": 0.136,
        "velocity": 0.81,
        "hand": "right"
      },
      {
        "midi": 67,
        "time": 57.272,
        "duration": 0.136,
        "velocity": 0.59,
        "hand": "right"
      },
      {
        "midi": 38,
        "time": 57.409,
        "duration": 0.068,
        "velocity": 0.55,
        "hand": "left"
      },
      {
        "midi": 40,
        "time": 57.409,
        "duration": 0.068,
        "velocity": 0.72,
        "hand": "left"
      },
      {
        "midi": 38,
        "time": 57.545,
        "duration": 0.068,
        "velocity": 0.55,
        "hand": "left"
      },
      {
        "midi": 63,
        "time": 57.545,
        "duration": 0.068,
        "velocity": 0.4,
        "hand": "right"
      },
      {
        "midi": 38,
        "time": 57.682,
        "duration": 0.068,
        "velocity": 0.55,
        "hand": "left"
      },
      {
        "midi": 36,
        "time": 57.818,
        "duration": 0.53,
        "velocity": 0.95,
        "hand": "left"
      },
      {
        "midi": 38,
        "time": 57.818,
        "duration": 0.068,
        "velocity": 0.55,
        "hand": "left"
      },
      {
        "midi": 67,
        "time": 57.818,
        "duration": 0.53,
        "velocity": 0.94,
        "hand": "right"
      },
      {
        "midi": 69,
        "time": 57.818,
        "duration": 1.773,
        "velocity": 0.96,
        "hand": "right"
      },
      {
        "midi": 72,
        "time": 57.818,
        "duration": 1.636,
        "velocity": 0.91,
        "hand": "right"
      },
      {
        "midi": 84,
        "time": 57.818,
        "duration": 1.5,
        "velocity": 0.65,
        "hand": "right"
      },
      {
        "midi": 46,
        "time": 58.091,
        "duration": 0.068,
        "velocity": 0.64,
        "hand": "left"
      },
      {
        "midi": 54,
        "time": 58.091,
        "duration": 0.068,
        "velocity": 0.54,
        "hand": "left"
      },
      {
        "midi": 38,
        "time": 58.227,
        "duration": 0.068,
        "velocity": 0.55,
        "hand": "left"
      },
      {
        "midi": 40,
        "time": 58.227,
        "duration": 0.068,
        "velocity": 0.62,
        "hand": "left"
      },
      {
        "midi": 36,
        "time": 58.363,
        "duration": 0.136,
        "velocity": 0.95,
        "hand": "left"
      },
      {
        "midi": 38,
        "time": 58.363,
        "duration": 0.068,
        "velocity": 0.55,
        "hand": "left"
      },
      {
        "midi": 62,
        "time": 58.363,
        "duration": 0.409,
        "velocity": 0.72,
        "hand": "right"
      },
      {
        "midi": 67,
        "time": 58.363,
        "duration": 0.804,
        "velocity": 0.57,
        "hand": "right"
      },
      {
        "midi": 74,
        "time": 58.363,
        "duration": 1.091,
        "velocity": 0.72,
        "hand": "right"
      },
      {
        "midi": 79,
        "time": 58.363,
        "duration": 1.091,
        "velocity": 0.9,
        "hand": "right"
      },
      {
        "midi": 38,
        "time": 58.636,
        "duration": 0.068,
        "velocity": 0.55,
        "hand": "left"
      },
      {
        "midi": 40,
        "time": 58.636,
        "duration": 0.068,
        "velocity": 0.63,
        "hand": "left"
      },
      {
        "midi": 36,
        "time": 58.909,
        "duration": 0.136,
        "velocity": 0.95,
        "hand": "left"
      },
      {
        "midi": 40,
        "time": 58.909,
        "duration": 0.068,
        "velocity": 0.64,
        "hand": "left"
      },
      {
        "midi": 36,
        "time": 59.182,
        "duration": 0.068,
        "velocity": 0.67,
        "hand": "left"
      },
      {
        "midi": 38,
        "time": 59.182,
        "duration": 0.068,
        "velocity": 0.55,
        "hand": "left"
      },
      {
        "midi": 71,
        "time": 59.182,
        "duration": 0.136,
        "velocity": 0.68,
        "hand": "right"
      },
      {
        "midi": 77,
        "time": 59.182,
        "duration": 0.136,
        "velocity": 0.76,
        "hand": "right"
      },
      {
        "midi": 82,
        "time": 59.182,
        "duration": 0.136,
        "velocity": 0.72,
        "hand": "right"
      },
      {
        "midi": 36,
        "time": 59.454,
        "duration": 0.068,
        "velocity": 0.67,
        "hand": "left"
      },
      {
        "midi": 38,
        "time": 59.454,
        "duration": 0.068,
        "velocity": 0.55,
        "hand": "left"
      },
      {
        "midi": 62,
        "time": 59.591,
        "duration": 0.068,
        "velocity": 0.61,
        "hand": "right"
      },
      {
        "midi": 43,
        "time": 59.727,
        "duration": 0.273,
        "velocity": 0.95,
        "hand": "left"
      },
      {
        "midi": 53,
        "time": 59.727,
        "duration": 0.136,
        "velocity": 0.74,
        "hand": "left"
      },
      {
        "midi": 71,
        "time": 59.727,
        "duration": 0.273,
        "velocity": 0.56,
        "hand": "right"
      },
      {
        "midi": 77,
        "time": 59.727,
        "duration": 0.136,
        "velocity": 0.72,
        "hand": "right"
      },
      {
        "midi": 82,
        "time": 59.727,
        "duration": 0.136,
        "velocity": 0.57,
        "hand": "right"
      },
      {
        "midi": 67,
        "time": 60,
        "duration": 0.257,
        "velocity": 0.74,
        "hand": "right"
      },
      {
        "midi": 36,
        "time": 60.272,
        "duration": 0.068,
        "velocity": 0.67,
        "hand": "left"
      },
      {
        "midi": 38,
        "time": 60.272,
        "duration": 0.068,
        "velocity": 0.55,
        "hand": "left"
      },
      {
        "midi": 71,
        "time": 60.272,
        "duration": 0.136,
        "velocity": 0.68,
        "hand": "right"
      },
      {
        "midi": 77,
        "time": 60.272,
        "duration": 0.136,
        "velocity": 0.76,
        "hand": "right"
      },
      {
        "midi": 82,
        "time": 60.272,
        "duration": 0.136,
        "velocity": 0.68,
        "hand": "right"
      },
      {
        "midi": 36,
        "time": 60.545,
        "duration": 0.068,
        "velocity": 0.57,
        "hand": "left"
      },
      {
        "midi": 41,
        "time": 60.545,
        "duration": 0.068,
        "velocity": 0.75,
        "hand": "left"
      },
      {
        "midi": 36,
        "time": 60.818,
        "duration": 0.068,
        "velocity": 0.67,
        "hand": "left"
      },
      {
        "midi": 38,
        "time": 60.818,
        "duration": 0.068,
        "velocity": 0.55,
        "hand": "left"
      },
      {
        "midi": 71,
        "time": 60.818,
        "duration": 0.136,
        "velocity": 0.69,
        "hand": "right"
      },
      {
        "midi": 77,
        "time": 60.818,
        "duration": 0.136,
        "velocity": 0.76,
        "hand": "right"
      },
      {
        "midi": 82,
        "time": 60.818,
        "duration": 0.136,
        "velocity": 0.68,
        "hand": "right"
      },
      {
        "midi": 55,
        "time": 61.091,
        "duration": 0.273,
        "velocity": 0.85,
        "hand": "left"
      },
      {
        "midi": 57,
        "time": 61.091,
        "duration": 0.257,
        "velocity": 0.83,
        "hand": "left"
      },
      {
        "midi": 62,
        "time": 61.091,
        "duration": 0.257,
        "velocity": 0.94,
        "hand": "right"
      },
      {
        "midi": 64,
        "time": 61.091,
        "duration": 0.273,
        "velocity": 0.58,
        "hand": "right"
      },
      {
        "midi": 67,
        "time": 61.091,
        "duration": 0.257,
        "velocity": 0.93,
        "hand": "right"
      },
      {
        "midi": 36,
        "time": 61.363,
        "duration": 0.068,
        "velocity": 0.67,
        "hand": "left"
      },
      {
        "midi": 38,
        "time": 61.363,
        "duration": 0.068,
        "velocity": 0.55,
        "hand": "left"
      },
      {
        "midi": 71,
        "time": 61.363,
        "duration": 0.273,
        "velocity": 0.79,
        "hand": "right"
      },
      {
        "midi": 77,
        "time": 61.363,
        "duration": 0.273,
        "velocity": 0.79,
        "hand": "right"
      },
      {
        "midi": 82,
        "time": 61.363,
        "duration": 0.273,
        "velocity": 0.79,
        "hand": "right"
      },
      {
        "midi": 36,
        "time": 61.636,
        "duration": 0.068,
        "velocity": 0.67,
        "hand": "left"
      },
      {
        "midi": 38,
        "time": 61.636,
        "duration": 0.068,
        "velocity": 0.55,
        "hand": "left"
      },
      {
        "midi": 64,
        "time": 61.636,
        "duration": 0.273,
        "velocity": 0.74,
        "hand": "right"
      },
      {
        "midi": 47,
        "time": 61.909,
        "duration": 0.136,
        "velocity": 0.89,
        "hand": "left"
      },
      {
        "midi": 53,
        "time": 61.909,
        "duration": 0.136,
        "velocity": 0.74,
        "hand": "left"
      },
      {
        "midi": 62,
        "time": 61.909,
        "duration": 0.136,
        "velocity": 0.64,
        "hand": "right"
      },
      {
        "midi": 65,
        "time": 61.909,
        "duration": 0.136,
        "velocity": 0.58,
        "hand": "right"
      },
      {
        "midi": 38,
        "time": 62.182,
        "duration": 0.068,
        "velocity": 0.55,
        "hand": "left"
      },
      {
        "midi": 40,
        "time": 62.182,
        "duration": 0.257,
        "velocity": 0.95,
        "hand": "left"
      },
      {
        "midi": 62,
        "time": 62.182,
        "duration": 0.394,
        "velocity": 0.84,
        "hand": "right"
      },
      {
        "midi": 67,
        "time": 62.182,
        "duration": 0.409,
        "velocity": 0.65,
        "hand": "right"
      },
      {
        "midi": 69,
        "time": 62.182,
        "duration": 0.394,
        "velocity": 0.85,
        "hand": "right"
      },
      {
        "midi": 38,
        "time": 62.454,
        "duration": 0.068,
        "velocity": 0.55,
        "hand": "left"
      },
      {
        "midi": 40,
        "time": 62.454,
        "duration": 0.068,
        "velocity": 0.69,
        "hand": "left"
      },
      {
        "midi": 55,
        "time": 62.591,
        "duration": 0.068,
        "velocity": 0.55,
        "hand": "left"
      },
      {
        "midi": 59,
        "time": 62.591,
        "duration": 0.068,
        "velocity": 0.63,
        "hand": "left"
      },
      {
        "midi": 62,
        "time": 62.591,
        "duration": 0.068,
        "velocity": 0.73,
        "hand": "right"
      },
      {
        "midi": 66,
        "time": 62.591,
        "duration": 0.068,
        "velocity": 0.73,
        "hand": "right"
      },
      {
        "midi": 69,
        "time": 62.591,
        "duration": 0.068,
        "velocity": 0.56,
        "hand": "right"
      },
      {
        "midi": 36,
        "time": 62.727,
        "duration": 0.068,
        "velocity": 0.8,
        "hand": "left"
      },
      {
        "midi": 38,
        "time": 62.727,
        "duration": 0.068,
        "velocity": 0.55,
        "hand": "left"
      },
      {
        "midi": 62,
        "time": 62.727,
        "duration": 0.068,
        "velocity": 0.53,
        "hand": "right"
      },
      {
        "midi": 67,
        "time": 62.727,
        "duration": 0.121,
        "velocity": 0.63,
        "hand": "right"
      },
      {
        "midi": 38,
        "time": 62.863,
        "duration": 0.068,
        "velocity": 0.55,
        "hand": "left"
      },
      {
        "midi": 40,
        "time": 62.863,
        "duration": 0.068,
        "velocity": 0.62,
        "hand": "left"
      },
      {
        "midi": 67,
        "time": 62.863,
        "duration": 0.136,
        "velocity": 0.57,
        "hand": "right"
      },
      {
        "midi": 38,
        "time": 63,
        "duration": 0.068,
        "velocity": 0.55,
        "hand": "left"
      },
      {
        "midi": 45,
        "time": 63,
        "duration": 0.136,
        "velocity": 0.68,
        "hand": "left"
      },
      {
        "midi": 62,
        "time": 63,
        "duration": 0.068,
        "velocity": 0.64,
        "hand": "right"
      },
      {
        "midi": 66,
        "time": 63,
        "duration": 0.068,
        "velocity": 0.52,
        "hand": "right"
      },
      {
        "midi": 69,
        "time": 63,
        "duration": 0.136,
        "velocity": 0.68,
        "hand": "right"
      },
      {
        "midi": 71,
        "time": 63,
        "duration": 0.136,
        "velocity": 0.73,
        "hand": "right"
      },
      {
        "midi": 38,
        "time": 63.136,
        "duration": 0.068,
        "velocity": 0.55,
        "hand": "left"
      },
      {
        "midi": 48,
        "time": 63.136,
        "duration": 0.136,
        "velocity": 0.53,
        "hand": "left"
      },
      {
        "midi": 60,
        "time": 63.136,
        "duration": 0.136,
        "velocity": 0.53,
        "hand": "right"
      },
      {
        "midi": 62,
        "time": 63.136,
        "duration": 0.121,
        "velocity": 0.72,
        "hand": "right"
      },
      {
        "midi": 72,
        "time": 63.136,
        "duration": 0.136,
        "velocity": 0.53,
        "hand": "right"
      },
      {
        "midi": 38,
        "time": 63.272,
        "duration": 0.068,
        "velocity": 0.55,
        "hand": "left"
      },
      {
        "midi": 40,
        "time": 63.272,
        "duration": 0.395,
        "velocity": 0.91,
        "hand": "left"
      },
      {
        "midi": 67,
        "time": 63.272,
        "duration": 0.409,
        "velocity": 0.68,
        "hand": "right"
      },
      {
        "midi": 69,
        "time": 63.272,
        "duration": 0.531,
        "velocity": 0.87,
        "hand": "right"
      },
      {
        "midi": 74,
        "time": 63.272,
        "duration": 0.273,
        "velocity": 0.54,
        "hand": "right"
      },
      {
        "midi": 46,
        "time": 63.545,
        "duration": 0.068,
        "velocity": 0.64,
        "hand": "left"
      },
      {
        "midi": 48,
        "time": 63.545,
        "duration": 0.273,
        "velocity": 0.76,
        "hand": "left"
      },
      {
        "midi": 60,
        "time": 63.545,
        "duration": 0.273,
        "velocity": 0.76,
        "hand": "right"
      },
      {
        "midi": 62,
        "time": 63.545,
        "duration": 0.068,
        "velocity": 0.56,
        "hand": "right"
      },
      {
        "midi": 66,
        "time": 63.545,
        "duration": 0.258,
        "velocity": 1,
        "hand": "right"
      },
      {
        "midi": 72,
        "time": 63.545,
        "duration": 0.273,
        "velocity": 0.76,
        "hand": "right"
      },
      {
        "midi": 38,
        "time": 63.682,
        "duration": 0.068,
        "velocity": 0.55,
        "hand": "left"
      },
      {
        "midi": 40,
        "time": 63.682,
        "duration": 0.068,
        "velocity": 0.73,
        "hand": "left"
      },
      {
        "midi": 36,
        "time": 63.818,
        "duration": 0.068,
        "velocity": 0.8,
        "hand": "left"
      },
      {
        "midi": 38,
        "time": 63.818,
        "duration": 0.068,
        "velocity": 0.55,
        "hand": "left"
      },
      {
        "midi": 62,
        "time": 63.818,
        "duration": 0.273,
        "velocity": 0.57,
        "hand": "right"
      },
      {
        "midi": 66,
        "time": 63.818,
        "duration": 0.273,
        "velocity": 0.52,
        "hand": "right"
      },
      {
        "midi": 69,
        "time": 63.818,
        "duration": 0.258,
        "velocity": 0.54,
        "hand": "right"
      },
      {
        "midi": 71,
        "time": 63.818,
        "duration": 0.273,
        "velocity": 0.69,
        "hand": "right"
      },
      {
        "midi": 38,
        "time": 64.091,
        "duration": 0.068,
        "velocity": 0.55,
        "hand": "left"
      },
      {
        "midi": 40,
        "time": 64.091,
        "duration": 0.273,
        "velocity": 0.95,
        "hand": "left"
      },
      {
        "midi": 67,
        "time": 64.091,
        "duration": 0.257,
        "velocity": 0.52,
        "hand": "right"
      },
      {
        "midi": 69,
        "time": 64.091,
        "duration": 0.273,
        "velocity": 0.69,
        "hand": "right"
      },
      {
        "midi": 38,
        "time": 64.363,
        "duration": 0.258,
        "velocity": 0.84,
        "hand": "left"
      },
      {
        "midi": 42,
        "time": 64.363,
        "duration": 0.068,
        "velocity": 0.71,
        "hand": "left"
      },
      {
        "midi": 65,
        "time": 64.363,
        "duration": 0.409,
        "velocity": 0.59,
        "hand": "right"
      },
      {
        "midi": 67,
        "time": 64.363,
        "duration": 0.531,
        "velocity": 0.95,
        "hand": "right"
      },
      {
        "midi": 72,
        "time": 64.363,
        "duration": 0.545,
        "velocity": 0.72,
        "hand": "right"
      },
      {
        "midi": 38,
        "time": 64.636,
        "duration": 0.068,
        "velocity": 0.55,
        "hand": "left"
      },
      {
        "midi": 40,
        "time": 64.636,
        "duration": 0.068,
        "velocity": 0.65,
        "hand": "left"
      },
      {
        "midi": 53,
        "time": 64.772,
        "duration": 0.068,
        "velocity": 0.57,
        "hand": "left"
      },
      {
        "midi": 57,
        "time": 64.772,
        "duration": 0.068,
        "velocity": 0.49,
        "hand": "left"
      },
      {
        "midi": 60,
        "time": 64.772,
        "duration": 0.068,
        "velocity": 0.68,
        "hand": "right"
      },
      {
        "midi": 64,
        "time": 64.772,
        "duration": 0.068,
        "velocity": 0.54,
        "hand": "right"
      },
      {
        "midi": 36,
        "time": 64.909,
        "duration": 0.068,
        "velocity": 0.8,
        "hand": "left"
      },
      {
        "midi": 38,
        "time": 64.909,
        "duration": 0.068,
        "velocity": 0.55,
        "hand": "left"
      },
      {
        "midi": 65,
        "time": 64.909,
        "duration": 0.409,
        "velocity": 0.7,
        "hand": "right"
      },
      {
        "midi": 67,
        "time": 64.909,
        "duration": 0.273,
        "velocity": 0.77,
        "hand": "right"
      },
      {
        "midi": 69,
        "time": 64.909,
        "duration": 0.53,
        "velocity": 0.72,
        "hand": "right"
      },
      {
        "midi": 38,
        "time": 65.045,
        "duration": 0.068,
        "velocity": 0.55,
        "hand": "left"
      },
      {
        "midi": 40,
        "time": 65.045,
        "duration": 0.068,
        "velocity": 0.76,
        "hand": "left"
      },
      {
        "midi": 38,
        "time": 65.182,
        "duration": 0.068,
        "velocity": 0.55,
        "hand": "left"
      },
      {
        "midi": 46,
        "time": 65.182,
        "duration": 0.068,
        "velocity": 0.64,
        "hand": "left"
      },
      {
        "midi": 60,
        "time": 65.182,
        "duration": 0.136,
        "velocity": 0.68,
        "hand": "right"
      },
      {
        "midi": 64,
        "time": 65.182,
        "duration": 0.136,
        "velocity": 0.57,
        "hand": "right"
      },
      {
        "midi": 38,
        "time": 65.318,
        "duration": 0.068,
        "velocity": 0.55,
        "hand": "left"
      },
      {
        "midi": 38,
        "time": 65.454,
        "duration": 0.394,
        "velocity": 0.94,
        "hand": "left"
      },
      {
        "midi": 40,
        "time": 65.454,
        "duration": 0.068,
        "velocity": 0.71,
        "hand": "left"
      },
      {
        "midi": 62,
        "time": 65.454,
        "duration": 0.531,
        "velocity": 0.92,
        "hand": "right"
      },
      {
        "midi": 65,
        "time": 65.454,
        "duration": 0.409,
        "velocity": 0.65,
        "hand": "right"
      },
      {
        "midi": 69,
        "time": 65.454,
        "duration": 0.531,
        "velocity": 1,
        "hand": "right"
      },
      {
        "midi": 46,
        "time": 65.727,
        "duration": 0.068,
        "velocity": 0.64,
        "hand": "left"
      },
      {
        "midi": 54,
        "time": 65.727,
        "duration": 0.068,
        "velocity": 0.61,
        "hand": "left"
      },
      {
        "midi": 38,
        "time": 65.863,
        "duration": 0.068,
        "velocity": 0.55,
        "hand": "left"
      },
      {
        "midi": 40,
        "time": 65.863,
        "duration": 0.068,
        "velocity": 0.67,
        "hand": "left"
      },
      {
        "midi": 61,
        "time": 65.863,
        "duration": 0.068,
        "velocity": 0.4,
        "hand": "right"
      },
      {
        "midi": 63,
        "time": 65.863,
        "duration": 0.273,
        "velocity": 0.56,
        "hand": "right"
      },
      {
        "midi": 36,
        "time": 66,
        "duration": 0.068,
        "velocity": 0.76,
        "hand": "left"
      },
      {
        "midi": 38,
        "time": 66,
        "duration": 0.068,
        "velocity": 0.55,
        "hand": "left"
      },
      {
        "midi": 62,
        "time": 66,
        "duration": 0.121,
        "velocity": 0.86,
        "hand": "right"
      },
      {
        "midi": 64,
        "time": 66,
        "duration": 0.273,
        "velocity": 0.56,
        "hand": "right"
      },
      {
        "midi": 67,
        "time": 66,
        "duration": 0.273,
        "velocity": 0.98,
        "hand": "right"
      },
      {
        "midi": 69,
        "time": 66,
        "duration": 0.273,
        "velocity": 0.87,
        "hand": "right"
      },
      {
        "midi": 53,
        "time": 66.136,
        "duration": 0.136,
        "velocity": 0.56,
        "hand": "left"
      },
      {
        "midi": 57,
        "time": 66.136,
        "duration": 0.136,
        "velocity": 0.53,
        "hand": "left"
      },
      {
        "midi": 62,
        "time": 66.136,
        "duration": 0.136,
        "velocity": 0.56,
        "hand": "right"
      },
      {
        "midi": 38,
        "time": 66.272,
        "duration": 0.068,
        "velocity": 0.55,
        "hand": "left"
      },
      {
        "midi": 40,
        "time": 66.272,
        "duration": 0.068,
        "velocity": 0.64,
        "hand": "left"
      },
      {
        "midi": 65,
        "time": 66.272,
        "duration": 0.258,
        "velocity": 0.59,
        "hand": "right"
      },
      {
        "midi": 38,
        "time": 66.545,
        "duration": 0.068,
        "velocity": 0.55,
        "hand": "left"
      },
      {
        "midi": 42,
        "time": 66.545,
        "duration": 0.068,
        "velocity": 0.71,
        "hand": "left"
      },
      {
        "midi": 60,
        "time": 66.545,
        "duration": 0.394,
        "velocity": 1,
        "hand": "right"
      },
      {
        "midi": 65,
        "time": 66.545,
        "duration": 0.531,
        "velocity": 1,
        "hand": "right"
      },
      {
        "midi": 40,
        "time": 66.682,
        "duration": 0.068,
        "velocity": 0.69,
        "hand": "left"
      },
      {
        "midi": 38,
        "time": 66.818,
        "duration": 0.068,
        "velocity": 0.55,
        "hand": "left"
      },
      {
        "midi": 46,
        "time": 66.818,
        "duration": 0.068,
        "velocity": 0.64,
        "hand": "left"
      },
      {
        "midi": 53,
        "time": 66.954,
        "duration": 0.068,
        "velocity": 0.61,
        "hand": "left"
      },
      {
        "midi": 55,
        "time": 66.954,
        "duration": 0.068,
        "velocity": 0.72,
        "hand": "left"
      },
      {
        "midi": 60,
        "time": 66.954,
        "duration": 0.068,
        "velocity": 0.56,
        "hand": "right"
      },
      {
        "midi": 36,
        "time": 67.091,
        "duration": 0.068,
        "velocity": 0.76,
        "hand": "left"
      },
      {
        "midi": 38,
        "time": 67.091,
        "duration": 0.121,
        "velocity": 0.97,
        "hand": "left"
      },
      {
        "midi": 60,
        "time": 67.091,
        "duration": 0.257,
        "velocity": 0.91,
        "hand": "right"
      },
      {
        "midi": 65,
        "time": 67.091,
        "duration": 0.257,
        "velocity": 0.95,
        "hand": "right"
      },
      {
        "midi": 38,
        "time": 67.227,
        "duration": 0.068,
        "velocity": 0.55,
        "hand": "left"
      },
      {
        "midi": 38,
        "time": 67.363,
        "duration": 0.068,
        "velocity": 0.55,
        "hand": "left"
      },
      {
        "midi": 43,
        "time": 67.363,
        "duration": 0.273,
        "velocity": 0.92,
        "hand": "left"
      },
      {
        "midi": 65,
        "time": 67.363,
        "duration": 0.136,
        "velocity": 0.54,
        "hand": "right"
      },
      {
        "midi": 67,
        "time": 67.363,
        "duration": 0.136,
        "velocity": 0.59,
        "hand": "right"
      },
      {
        "midi": 77,
        "time": 67.363,
        "duration": 0.136,
        "velocity": 0.54,
        "hand": "right"
      },
      {
        "midi": 79,
        "time": 67.363,
        "duration": 0.136,
        "velocity": 0.59,
        "hand": "right"
      },
      {
        "midi": 38,
        "time": 67.5,
        "duration": 0.068,
        "velocity": 0.55,
        "hand": "left"
      },
      {
        "midi": 52,
        "time": 67.5,
        "duration": 0.121,
        "velocity": 0.73,
        "hand": "left"
      },
      {
        "midi": 64,
        "time": 67.5,
        "duration": 0.121,
        "velocity": 0.73,
        "hand": "right"
      },
      {
        "midi": 76,
        "time": 67.5,
        "duration": 0.136,
        "velocity": 0.73,
        "hand": "right"
      },
      {
        "midi": 38,
        "time": 67.636,
        "duration": 0.273,
        "velocity": 1,
        "hand": "left"
      },
      {
        "midi": 42,
        "time": 67.636,
        "duration": 0.068,
        "velocity": 0.71,
        "hand": "left"
      },
      {
        "midi": 60,
        "time": 67.636,
        "duration": 0.531,
        "velocity": 0.9,
        "hand": "right"
      },
      {
        "midi": 62,
        "time": 67.636,
        "duration": 0.136,
        "velocity": 0.78,
        "hand": "right"
      },
      {
        "midi": 64,
        "time": 67.636,
        "duration": 0.121,
        "velocity": 0.97,
        "hand": "right"
      },
      {
        "midi": 74,
        "time": 67.636,
        "duration": 0.136,
        "velocity": 0.78,
        "hand": "right"
      },
      {
        "midi": 52,
        "time": 67.772,
        "duration": 0.273,
        "velocity": 0.74,
        "hand": "left"
      },
      {
        "midi": 64,
        "time": 67.772,
        "duration": 0.273,
        "velocity": 0.74,
        "hand": "right"
      },
      {
        "midi": 76,
        "time": 67.772,
        "duration": 0.273,
        "velocity": 0.74,
        "hand": "right"
      },
      {
        "midi": 42,
        "time": 67.909,
        "duration": 0.258,
        "velocity": 0.95,
        "hand": "left"
      },
      {
        "midi": 46,
        "time": 67.909,
        "duration": 0.068,
        "velocity": 0.64,
        "hand": "left"
      },
      {
        "midi": 38,
        "time": 68.045,
        "duration": 0.068,
        "velocity": 0.55,
        "hand": "left"
      },
      {
        "midi": 40,
        "time": 68.045,
        "duration": 0.068,
        "velocity": 0.64,
        "hand": "left"
      },
      {
        "midi": 36,
        "time": 68.182,
        "duration": 0.068,
        "velocity": 0.8,
        "hand": "left"
      },
      {
        "midi": 38,
        "time": 68.182,
        "duration": 0.257,
        "velocity": 0.87,
        "hand": "left"
      },
      {
        "midi": 60,
        "time": 68.182,
        "duration": 0.121,
        "velocity": 0.58,
        "hand": "right"
      },
      {
        "midi": 62,
        "time": 68.182,
        "duration": 0.273,
        "velocity": 0.75,
        "hand": "right"
      },
      {
        "midi": 74,
        "time": 68.182,
        "duration": 0.273,
        "velocity": 0.75,
        "hand": "right"
      },
      {
        "midi": 48,
        "time": 68.318,
        "duration": 0.136,
        "velocity": 0.76,
        "hand": "left"
      },
      {
        "midi": 60,
        "time": 68.318,
        "duration": 0.121,
        "velocity": 0.76,
        "hand": "right"
      },
      {
        "midi": 72,
        "time": 68.318,
        "duration": 0.136,
        "velocity": 0.76,
        "hand": "right"
      },
      {
        "midi": 38,
        "time": 68.454,
        "duration": 0.068,
        "velocity": 0.55,
        "hand": "left"
      },
      {
        "midi": 40,
        "time": 68.454,
        "duration": 0.068,
        "velocity": 0.64,
        "hand": "left"
      },
      {
        "midi": 60,
        "time": 68.454,
        "duration": 0.122,
        "velocity": 0.7,
        "hand": "right"
      },
      {
        "midi": 57,
        "time": 68.591,
        "duration": 0.121,
        "velocity": 0.81,
        "hand": "left"
      },
      {
        "midi": 60,
        "time": 68.591,
        "duration": 0.121,
        "velocity": 0.57,
        "hand": "right"
      },
      {
        "midi": 38,
        "time": 68.727,
        "duration": 0.068,
        "velocity": 0.55,
        "hand": "left"
      },
      {
        "midi": 41,
        "time": 68.727,
        "duration": 0.53,
        "velocity": 0.8,
        "hand": "left"
      },
      {
        "midi": 65,
        "time": 68.727,
        "duration": 0.818,
        "velocity": 1,
        "hand": "right"
      },
      {
        "midi": 67,
        "time": 68.727,
        "duration": 0.818,
        "velocity": 0.95,
        "hand": "right"
      },
      {
        "midi": 69,
        "time": 68.727,
        "duration": 0.258,
        "velocity": 0.72,
        "hand": "right"
      },
      {
        "midi": 38,
        "time": 69,
        "duration": 0.068,
        "velocity": 0.55,
        "hand": "left"
      },
      {
        "midi": 40,
        "time": 69,
        "duration": 0.068,
        "velocity": 0.65,
        "hand": "left"
      },
      {
        "midi": 64,
        "time": 69,
        "duration": 0.121,
        "velocity": 1,
        "hand": "right"
      },
      {
        "midi": 69,
        "time": 69,
        "duration": 0.257,
        "velocity": 0.81,
        "hand": "right"
      },
      {
        "midi": 53,
        "time": 69.136,
        "duration": 0.068,
        "velocity": 0.56,
        "hand": "left"
      },
      {
        "midi": 57,
        "time": 69.136,
        "duration": 0.068,
        "velocity": 0.61,
        "hand": "left"
      },
      {
        "midi": 60,
        "time": 69.136,
        "duration": 0.068,
        "velocity": 0.63,
        "hand": "right"
      },
      {
        "midi": 64,
        "time": 69.136,
        "duration": 0.068,
        "velocity": 0.52,
        "hand": "right"
      },
      {
        "midi": 36,
        "time": 69.272,
        "duration": 0.068,
        "velocity": 0.76,
        "hand": "left"
      },
      {
        "midi": 38,
        "time": 69.272,
        "duration": 0.068,
        "velocity": 0.55,
        "hand": "left"
      },
      {
        "midi": 60,
        "time": 69.272,
        "duration": 0.258,
        "velocity": 0.91,
        "hand": "right"
      },
      {
        "midi": 64,
        "time": 69.272,
        "duration": 0.258,
        "velocity": 0.52,
        "hand": "right"
      },
      {
        "midi": 69,
        "time": 69.272,
        "duration": 0.409,
        "velocity": 0.72,
        "hand": "right"
      },
      {
        "midi": 72,
        "time": 69.272,
        "duration": 0.136,
        "velocity": 0.91,
        "hand": "right"
      },
      {
        "midi": 38,
        "time": 69.409,
        "duration": 0.068,
        "velocity": 0.55,
        "hand": "left"
      },
      {
        "midi": 40,
        "time": 69.409,
        "duration": 0.068,
        "velocity": 0.72,
        "hand": "left"
      },
      {
        "midi": 36,
        "time": 69.545,
        "duration": 0.273,
        "velocity": 0.8,
        "hand": "left"
      },
      {
        "midi": 38,
        "time": 69.545,
        "duration": 0.068,
        "velocity": 0.55,
        "hand": "left"
      },
      {
        "midi": 60,
        "time": 69.545,
        "duration": 0.136,
        "velocity": 0.61,
        "hand": "right"
      },
      {
        "midi": 64,
        "time": 69.545,
        "duration": 0.273,
        "velocity": 0.76,
        "hand": "right"
      },
      {
        "midi": 76,
        "time": 69.545,
        "duration": 0.273,
        "velocity": 0.76,
        "hand": "right"
      },
      {
        "midi": 38,
        "time": 69.682,
        "duration": 0.068,
        "velocity": 0.55,
        "hand": "left"
      },
      {
        "midi": 62,
        "time": 69.682,
        "duration": 0.121,
        "velocity": 0.61,
        "hand": "right"
      },
      {
        "midi": 38,
        "time": 69.818,
        "duration": 0.068,
        "velocity": 0.55,
        "hand": "left"
      },
      {
        "midi": 40,
        "time": 69.818,
        "duration": 0.068,
        "velocity": 0.64,
        "hand": "left"
      },
      {
        "midi": 63,
        "time": 69.818,
        "duration": 0.258,
        "velocity": 0.82,
        "hand": "right"
      },
      {
        "midi": 67,
        "time": 69.818,
        "duration": 0.955,
        "velocity": 0.91,
        "hand": "right"
      },
      {
        "midi": 69,
        "time": 69.818,
        "duration": 0.409,
        "velocity": 0.72,
        "hand": "right"
      },
      {
        "midi": 79,
        "time": 69.818,
        "duration": 0.682,
        "velocity": 0.74,
        "hand": "right"
      },
      {
        "midi": 46,
        "time": 70.091,
        "duration": 0.068,
        "velocity": 0.64,
        "hand": "left"
      },
      {
        "midi": 53,
        "time": 70.091,
        "duration": 0.068,
        "velocity": 0.56,
        "hand": "left"
      },
      {
        "midi": 60,
        "time": 70.091,
        "duration": 0.068,
        "velocity": 0.56,
        "hand": "right"
      },
      {
        "midi": 63,
        "time": 70.091,
        "duration": 0.136,
        "velocity": 0.54,
        "hand": "right"
      },
      {
        "midi": 38,
        "time": 70.227,
        "duration": 0.068,
        "velocity": 0.55,
        "hand": "left"
      },
      {
        "midi": 40,
        "time": 70.227,
        "duration": 0.068,
        "velocity": 0.62,
        "hand": "left"
      },
      {
        "midi": 36,
        "time": 70.363,
        "duration": 0.068,
        "velocity": 0.8,
        "hand": "left"
      },
      {
        "midi": 38,
        "time": 70.363,
        "duration": 0.068,
        "velocity": 0.55,
        "hand": "left"
      },
      {
        "midi": 60,
        "time": 70.363,
        "duration": 0.273,
        "velocity": 0.74,
        "hand": "right"
      },
      {
        "midi": 63,
        "time": 70.363,
        "duration": 0.273,
        "velocity": 0.61,
        "hand": "right"
      },
      {
        "midi": 71,
        "time": 70.363,
        "duration": 0.273,
        "velocity": 0.56,
        "hand": "right"
      },
      {
        "midi": 52,
        "time": 70.5,
        "duration": 0.136,
        "velocity": 0.58,
        "hand": "left"
      },
      {
        "midi": 64,
        "time": 70.5,
        "duration": 0.136,
        "velocity": 0.58,
        "hand": "right"
      },
      {
        "midi": 76,
        "time": 70.5,
        "duration": 0.136,
        "velocity": 0.58,
        "hand": "right"
      },
      {
        "midi": 38,
        "time": 70.636,
        "duration": 0.068,
        "velocity": 0.55,
        "hand": "left"
      },
      {
        "midi": 40,
        "time": 70.636,
        "duration": 0.068,
        "velocity": 0.63,
        "hand": "left"
      },
      {
        "midi": 62,
        "time": 70.636,
        "duration": 0.136,
        "velocity": 0.65,
        "hand": "right"
      },
      {
        "midi": 69,
        "time": 70.636,
        "duration": 0.258,
        "velocity": 0.55,
        "hand": "right"
      },
      {
        "midi": 74,
        "time": 70.636,
        "duration": 0.136,
        "velocity": 0.65,
        "hand": "right"
      },
      {
        "midi": 48,
        "time": 70.772,
        "duration": 0.136,
        "velocity": 0.68,
        "hand": "left"
      },
      {
        "midi": 60,
        "time": 70.772,
        "duration": 0.136,
        "velocity": 0.68,
        "hand": "right"
      },
      {
        "midi": 72,
        "time": 70.772,
        "duration": 0.136,
        "velocity": 0.68,
        "hand": "right"
      },
      {
        "midi": 38,
        "time": 70.909,
        "duration": 0.068,
        "velocity": 0.55,
        "hand": "left"
      },
      {
        "midi": 40,
        "time": 70.909,
        "duration": 0.258,
        "velocity": 0.94,
        "hand": "left"
      },
      {
        "midi": 67,
        "time": 70.909,
        "duration": 0.409,
        "velocity": 0.59,
        "hand": "right"
      },
      {
        "midi": 69,
        "time": 70.909,
        "duration": 0.258,
        "velocity": 0.86,
        "hand": "right"
      },
      {
        "midi": 76,
        "time": 70.909,
        "duration": 0.682,
        "velocity": 0.73,
        "hand": "right"
      },
      {
        "midi": 38,
        "time": 71.182,
        "duration": 0.068,
        "velocity": 0.55,
        "hand": "left"
      },
      {
        "midi": 40,
        "time": 71.182,
        "duration": 0.068,
        "velocity": 0.71,
        "hand": "left"
      },
      {
        "midi": 62,
        "time": 71.182,
        "duration": 0.068,
        "velocity": 0.72,
        "hand": "right"
      },
      {
        "midi": 66,
        "time": 71.182,
        "duration": 0.068,
        "velocity": 0.61,
        "hand": "right"
      },
      {
        "midi": 69,
        "time": 71.182,
        "duration": 0.068,
        "velocity": 0.53,
        "hand": "right"
      },
      {
        "midi": 55,
        "time": 71.318,
        "duration": 0.068,
        "velocity": 0.63,
        "hand": "left"
      },
      {
        "midi": 59,
        "time": 71.318,
        "duration": 0.068,
        "velocity": 0.65,
        "hand": "left"
      },
      {
        "midi": 62,
        "time": 71.318,
        "duration": 0.068,
        "velocity": 0.63,
        "hand": "right"
      },
      {
        "midi": 66,
        "time": 71.318,
        "duration": 0.068,
        "velocity": 0.52,
        "hand": "right"
      },
      {
        "midi": 36,
        "time": 71.454,
        "duration": 0.068,
        "velocity": 0.76,
        "hand": "left"
      },
      {
        "midi": 38,
        "time": 71.454,
        "duration": 0.068,
        "velocity": 0.55,
        "hand": "left"
      },
      {
        "midi": 62,
        "time": 71.454,
        "duration": 0.258,
        "velocity": 0.86,
        "hand": "right"
      },
      {
        "midi": 67,
        "time": 71.454,
        "duration": 0.409,
        "velocity": 0.64,
        "hand": "right"
      },
      {
        "midi": 69,
        "time": 71.454,
        "duration": 0.258,
        "velocity": 0.87,
        "hand": "right"
      },
      {
        "midi": 38,
        "time": 71.591,
        "duration": 0.068,
        "velocity": 0.55,
        "hand": "left"
      },
      {
        "midi": 40,
        "time": 71.591,
        "duration": 0.068,
        "velocity": 0.65,
        "hand": "left"
      },
      {
        "midi": 38,
        "time": 71.727,
        "duration": 0.068,
        "velocity": 0.55,
        "hand": "left"
      },
      {
        "midi": 40,
        "time": 71.727,
        "duration": 0.258,
        "velocity": 0.83,
        "hand": "left"
      },
      {
        "midi": 62,
        "time": 71.727,
        "duration": 0.136,
        "velocity": 0.61,
        "hand": "right"
      },
      {
        "midi": 66,
        "time": 71.727,
        "duration": 0.136,
        "velocity": 0.54,
        "hand": "right"
      },
      {
        "midi": 69,
        "time": 71.727,
        "duration": 0.068,
        "velocity": 0.56,
        "hand": "right"
      },
      {
        "midi": 38,
        "time": 71.863,
        "duration": 0.068,
        "velocity": 0.55,
        "hand": "left"
      },
      {
        "midi": 39,
        "time": 72,
        "duration": 0.545,
        "velocity": 0.85,
        "hand": "left"
      },
      {
        "midi": 65,
        "time": 72,
        "duration": 0.136,
        "velocity": 0.59,
        "hand": "right"
      },
      {
        "midi": 68,
        "time": 72,
        "duration": 0.53,
        "velocity": 0.92,
        "hand": "right"
      },
      {
        "midi": 46,
        "time": 72.272,
        "duration": 0.068,
        "velocity": 0.64,
        "hand": "left"
      },
      {
        "midi": 54,
        "time": 72.272,
        "duration": 0.068,
        "velocity": 0.72,
        "hand": "left"
      },
      {
        "midi": 61,
        "time": 72.272,
        "duration": 0.068,
        "velocity": 0.63,
        "hand": "right"
      },
      {
        "midi": 65,
        "time": 72.272,
        "duration": 0.068,
        "velocity": 0.54,
        "hand": "right"
      },
      {
        "midi": 38,
        "time": 72.409,
        "duration": 0.068,
        "velocity": 0.55,
        "hand": "left"
      },
      {
        "midi": 40,
        "time": 72.409,
        "duration": 0.068,
        "velocity": 0.8,
        "hand": "left"
      },
      {
        "midi": 36,
        "time": 72.545,
        "duration": 0.068,
        "velocity": 0.61,
        "hand": "left"
      },
      {
        "midi": 38,
        "time": 72.545,
        "duration": 0.068,
        "velocity": 0.55,
        "hand": "left"
      },
      {
        "midi": 61,
        "time": 72.545,
        "duration": 0.258,
        "velocity": 0.83,
        "hand": "right"
      },
      {
        "midi": 65,
        "time": 72.545,
        "duration": 0.068,
        "velocity": 0.7,
        "hand": "right"
      },
      {
        "midi": 68,
        "time": 72.545,
        "duration": 0.409,
        "velocity": 0.59,
        "hand": "right"
      },
      {
        "midi": 52,
        "time": 72.682,
        "duration": 0.136,
        "velocity": 0.73,
        "hand": "left"
      },
      {
        "midi": 64,
        "time": 72.682,
        "duration": 0.136,
        "velocity": 0.73,
        "hand": "right"
      },
      {
        "midi": 76,
        "time": 72.682,
        "duration": 0.136,
        "velocity": 0.73,
        "hand": "right"
      },
      {
        "midi": 39,
        "time": 72.818,
        "duration": 0.273,
        "velocity": 0.76,
        "hand": "left"
      },
      {
        "midi": 62,
        "time": 72.818,
        "duration": 0.136,
        "velocity": 0.72,
        "hand": "right"
      },
      {
        "midi": 65,
        "time": 72.818,
        "duration": 0.258,
        "velocity": 0.73,
        "hand": "right"
      },
      {
        "midi": 74,
        "time": 72.818,
        "duration": 0.136,
        "velocity": 0.72,
        "hand": "right"
      },
      {
        "midi": 48,
        "time": 72.954,
        "duration": 0.136,
        "velocity": 0.57,
        "hand": "left"
      },
      {
        "midi": 60,
        "time": 72.954,
        "duration": 0.122,
        "velocity": 0.57,
        "hand": "right"
      },
      {
        "midi": 72,
        "time": 72.954,
        "duration": 0.136,
        "velocity": 0.57,
        "hand": "right"
      },
      {
        "midi": 38,
        "time": 73.091,
        "duration": 0.394,
        "velocity": 0.87,
        "hand": "left"
      },
      {
        "midi": 42,
        "time": 73.091,
        "duration": 0.068,
        "velocity": 0.71,
        "hand": "left"
      },
      {
        "midi": 65,
        "time": 73.091,
        "duration": 0.682,
        "velocity": 1,
        "hand": "right"
      },
      {
        "midi": 67,
        "time": 73.091,
        "duration": 0.53,
        "velocity": 0.82,
        "hand": "right"
      },
      {
        "midi": 69,
        "time": 73.091,
        "duration": 0.682,
        "velocity": 0.93,
        "hand": "right"
      },
      {
        "midi": 74,
        "time": 73.091,
        "duration": 0.545,
        "velocity": 0.83,
        "hand": "right"
      },
      {
        "midi": 46,
        "time": 73.363,
        "duration": 0.068,
        "velocity": 0.64,
        "hand": "left"
      },
      {
        "midi": 54,
        "time": 73.363,
        "duration": 0.068,
        "velocity": 0.61,
        "hand": "left"
      },
      {
        "midi": 38,
        "time": 73.5,
        "duration": 0.068,
        "velocity": 0.55,
        "hand": "left"
      },
      {
        "midi": 40,
        "time": 73.5,
        "duration": 0.068,
        "velocity": 0.64,
        "hand": "left"
      },
      {
        "midi": 60,
        "time": 73.5,
        "duration": 0.068,
        "velocity": 0.59,
        "hand": "right"
      },
      {
        "midi": 64,
        "time": 73.5,
        "duration": 0.068,
        "velocity": 0.56,
        "hand": "right"
      },
      {
        "midi": 36,
        "time": 73.636,
        "duration": 0.068,
        "velocity": 0.8,
        "hand": "left"
      },
      {
        "midi": 38,
        "time": 73.636,
        "duration": 0.068,
        "velocity": 0.55,
        "hand": "left"
      },
      {
        "midi": 60,
        "time": 73.636,
        "duration": 0.136,
        "velocity": 0.87,
        "hand": "right"
      },
      {
        "midi": 64,
        "time": 73.636,
        "duration": 0.258,
        "velocity": 0.73,
        "hand": "right"
      },
      {
        "midi": 67,
        "time": 73.636,
        "duration": 0.136,
        "velocity": 0.8,
        "hand": "right"
      },
      {
        "midi": 76,
        "time": 73.636,
        "duration": 0.273,
        "velocity": 0.73,
        "hand": "right"
      },
      {
        "midi": 38,
        "time": 73.909,
        "duration": 0.258,
        "velocity": 0.8,
        "hand": "left"
      },
      {
        "midi": 40,
        "time": 73.909,
        "duration": 0.068,
        "velocity": 0.64,
        "hand": "left"
      },
      {
        "midi": 65,
        "time": 73.909,
        "duration": 0.136,
        "velocity": 0.57,
        "hand": "right"
      },
      {
        "midi": 67,
        "time": 73.909,
        "duration": 0.068,
        "velocity": 0.55,
        "hand": "right"
      },
      {
        "midi": 74,
        "time": 73.909,
        "duration": 0.136,
        "velocity": 0.7,
        "hand": "right"
      },
      {
        "midi": 38,
        "time": 74.182,
        "duration": 0.068,
        "velocity": 0.55,
        "hand": "left"
      },
      {
        "midi": 65,
        "time": 74.182,
        "duration": 0.257,
        "velocity": 0.95,
        "hand": "right"
      },
      {
        "midi": 68,
        "time": 74.182,
        "duration": 0.121,
        "velocity": 0.94,
        "hand": "right"
      },
      {
        "midi": 71,
        "time": 74.182,
        "duration": 0.394,
        "velocity": 0.96,
        "hand": "right"
      },
      {
        "midi": 44,
        "time": 74.318,
        "duration": 0.136,
        "velocity": 0.59,
        "hand": "left"
      },
      {
        "midi": 56,
        "time": 74.318,
        "duration": 0.136,
        "velocity": 0.59,
        "hand": "left"
      },
      {
        "midi": 68,
        "time": 74.318,
        "duration": 0.136,
        "velocity": 0.59,
        "hand": "right"
      },
      {
        "midi": 38,
        "time": 74.454,
        "duration": 0.068,
        "velocity": 0.55,
        "hand": "left"
      },
      {
        "midi": 40,
        "time": 74.454,
        "duration": 0.068,
        "velocity": 0.65,
        "hand": "left"
      },
      {
        "midi": 65,
        "time": 74.454,
        "duration": 0.136,
        "velocity": 0.53,
        "hand": "right"
      },
      {
        "midi": 69,
        "time": 74.454,
        "duration": 0.136,
        "velocity": 0.64,
        "hand": "right"
      },
      {
        "midi": 47,
        "time": 74.591,
        "duration": 0.121,
        "velocity": 0.51,
        "hand": "left"
      },
      {
        "midi": 71,
        "time": 74.591,
        "duration": 0.136,
        "velocity": 0.51,
        "hand": "right"
      },
      {
        "midi": 36,
        "time": 74.727,
        "duration": 0.068,
        "velocity": 0.76,
        "hand": "left"
      },
      {
        "midi": 38,
        "time": 74.727,
        "duration": 0.068,
        "velocity": 0.55,
        "hand": "left"
      },
      {
        "midi": 64,
        "time": 74.727,
        "duration": 0.136,
        "velocity": 0.65,
        "hand": "right"
      },
      {
        "midi": 67,
        "time": 74.727,
        "duration": 0.136,
        "velocity": 0.59,
        "hand": "right"
      },
      {
        "midi": 38,
        "time": 74.863,
        "duration": 0.068,
        "velocity": 0.55,
        "hand": "left"
      },
      {
        "midi": 40,
        "time": 74.863,
        "duration": 0.068,
        "velocity": 0.72,
        "hand": "left"
      },
      {
        "midi": 60,
        "time": 74.863,
        "duration": 0.136,
        "velocity": 0.68,
        "hand": "right"
      },
      {
        "midi": 72,
        "time": 74.863,
        "duration": 0.136,
        "velocity": 0.68,
        "hand": "right"
      },
      {
        "midi": 38,
        "time": 75,
        "duration": 0.068,
        "velocity": 0.55,
        "hand": "left"
      },
      {
        "midi": 61,
        "time": 75,
        "duration": 0.136,
        "velocity": 0.59,
        "hand": "right"
      },
      {
        "midi": 63,
        "time": 75,
        "duration": 0.068,
        "velocity": 0.4,
        "hand": "right"
      },
      {
        "midi": 73,
        "time": 75,
        "duration": 0.136,
        "velocity": 0.59,
        "hand": "right"
      },
      {
        "midi": 38,
        "time": 75.136,
        "duration": 0.068,
        "velocity": 0.55,
        "hand": "left"
      },
      {
        "midi": 50,
        "time": 75.136,
        "duration": 0.136,
        "velocity": 0.53,
        "hand": "left"
      },
      {
        "midi": 62,
        "time": 75.136,
        "duration": 0.121,
        "velocity": 0.53,
        "hand": "right"
      },
      {
        "midi": 74,
        "time": 75.136,
        "duration": 0.136,
        "velocity": 0.53,
        "hand": "right"
      },
      {
        "midi": 40,
        "time": 75.272,
        "duration": 0.395,
        "velocity": 0.95,
        "hand": "left"
      },
      {
        "midi": 42,
        "time": 75.272,
        "duration": 0.068,
        "velocity": 0.71,
        "hand": "left"
      },
      {
        "midi": 67,
        "time": 75.272,
        "duration": 0.545,
        "velocity": 0.91,
        "hand": "right"
      },
      {
        "midi": 69,
        "time": 75.272,
        "duration": 0.531,
        "velocity": 1,
        "hand": "right"
      },
      {
        "midi": 72,
        "time": 75.272,
        "duration": 0.682,
        "velocity": 0.86,
        "hand": "right"
      },
      {
        "midi": 79,
        "time": 75.272,
        "duration": 1.091,
        "velocity": 0.85,
        "hand": "right"
      },
      {
        "midi": 46,
        "time": 75.545,
        "duration": 0.068,
        "velocity": 0.64,
        "hand": "left"
      },
      {
        "midi": 51,
        "time": 75.545,
        "duration": 0.068,
        "velocity": 0.69,
        "hand": "left"
      },
      {
        "midi": 38,
        "time": 75.682,
        "duration": 0.068,
        "velocity": 0.55,
        "hand": "left"
      },
      {
        "midi": 40,
        "time": 75.682,
        "duration": 0.068,
        "velocity": 0.64,
        "hand": "left"
      },
      {
        "midi": 62,
        "time": 75.682,
        "duration": 0.068,
        "velocity": 0.68,
        "hand": "right"
      },
      {
        "midi": 66,
        "time": 75.682,
        "duration": 0.068,
        "velocity": 0.5,
        "hand": "right"
      },
      {
        "midi": 36,
        "time": 75.818,
        "duration": 0.068,
        "velocity": 0.8,
        "hand": "left"
      },
      {
        "midi": 38,
        "time": 75.818,
        "duration": 0.068,
        "velocity": 0.55,
        "hand": "left"
      },
      {
        "midi": 63,
        "time": 75.818,
        "duration": 0.068,
        "velocity": 0.5,
        "hand": "right"
      },
      {
        "midi": 66,
        "time": 75.818,
        "duration": 0.258,
        "velocity": 0.53,
        "hand": "right"
      },
      {
        "midi": 69,
        "time": 75.818,
        "duration": 0.273,
        "velocity": 0.56,
        "hand": "right"
      },
      {
        "midi": 65,
        "time": 75.954,
        "duration": 0.136,
        "velocity": 0.84,
        "hand": "right"
      },
      {
        "midi": 38,
        "time": 76.091,
        "duration": 0.068,
        "velocity": 0.55,
        "hand": "left"
      },
      {
        "midi": 40,
        "time": 76.091,
        "duration": 0.068,
        "velocity": 0.64,
        "hand": "left"
      },
      {
        "midi": 62,
        "time": 76.091,
        "duration": 0.068,
        "velocity": 0.68,
        "hand": "right"
      },
      {
        "midi": 67,
        "time": 76.091,
        "duration": 0.136,
        "velocity": 0.75,
        "hand": "right"
      },
      {
        "midi": 39,
        "time": 76.227,
        "duration": 0.068,
        "velocity": 0.15,
        "hand": "left"
      },
      {
        "midi": 69,
        "time": 76.227,
        "duration": 0.136,
        "velocity": 0.76,
        "hand": "right"
      },
      {
        "midi": 39,
        "time": 76.363,
        "duration": 0.531,
        "velocity": 0.95,
        "hand": "left"
      },
      {
        "midi": 65,
        "time": 76.363,
        "duration": 0.258,
        "velocity": 0.61,
        "hand": "right"
      },
      {
        "midi": 68,
        "time": 76.363,
        "duration": 0.531,
        "velocity": 0.97,
        "hand": "right"
      },
      {
        "midi": 70,
        "time": 76.363,
        "duration": 0.273,
        "velocity": 0.8,
        "hand": "right"
      },
      {
        "midi": 80,
        "time": 76.363,
        "duration": 1.091,
        "velocity": 0.81,
        "hand": "right"
      },
      {
        "midi": 38,
        "time": 76.636,
        "duration": 0.068,
        "velocity": 0.55,
        "hand": "left"
      },
      {
        "midi": 40,
        "time": 76.636,
        "duration": 0.068,
        "velocity": 0.65,
        "hand": "left"
      },
      {
        "midi": 61,
        "time": 76.636,
        "duration": 0.068,
        "velocity": 0.65,
        "hand": "right"
      },
      {
        "midi": 65,
        "time": 76.636,
        "duration": 0.068,
        "velocity": 0.63,
        "hand": "right"
      },
      {
        "midi": 69,
        "time": 76.772,
        "duration": 0.273,
        "velocity": 0.88,
        "hand": "right"
      },
      {
        "midi": 36,
        "time": 76.909,
        "duration": 0.068,
        "velocity": 0.76,
        "hand": "left"
      },
      {
        "midi": 38,
        "time": 76.909,
        "duration": 0.068,
        "velocity": 0.55,
        "hand": "left"
      },
      {
        "midi": 61,
        "time": 76.909,
        "duration": 0.258,
        "velocity": 0.65,
        "hand": "right"
      },
      {
        "midi": 65,
        "time": 76.909,
        "duration": 0.068,
        "velocity": 0.65,
        "hand": "right"
      },
      {
        "midi": 68,
        "time": 76.909,
        "duration": 0.409,
        "velocity": 0.54,
        "hand": "right"
      },
      {
        "midi": 38,
        "time": 77.045,
        "duration": 0.068,
        "velocity": 0.55,
        "hand": "left"
      },
      {
        "midi": 40,
        "time": 77.045,
        "duration": 0.068,
        "velocity": 0.72,
        "hand": "left"
      },
      {
        "midi": 38,
        "time": 77.182,
        "duration": 0.068,
        "velocity": 0.55,
        "hand": "left"
      },
      {
        "midi": 46,
        "time": 77.182,
        "duration": 0.068,
        "velocity": 0.64,
        "hand": "left"
      },
      {
        "midi": 61,
        "time": 77.182,
        "duration": 0.068,
        "velocity": 0.72,
        "hand": "right"
      },
      {
        "midi": 65,
        "time": 77.182,
        "duration": 0.068,
        "velocity": 0.72,
        "hand": "right"
      },
      {
        "midi": 67,
        "time": 77.182,
        "duration": 0.257,
        "velocity": 0.88,
        "hand": "right"
      },
      {
        "midi": 38,
        "time": 77.318,
        "duration": 0.068,
        "velocity": 0.55,
        "hand": "left"
      },
      {
        "midi": 38,
        "time": 77.454,
        "duration": 0.394,
        "velocity": 0.92,
        "hand": "left"
      },
      {
        "midi": 40,
        "time": 77.454,
        "duration": 0.068,
        "velocity": 0.64,
        "hand": "left"
      },
      {
        "midi": 65,
        "time": 77.454,
        "duration": 0.667,
        "velocity": 0.96,
        "hand": "right"
      },
      {
        "midi": 67,
        "time": 77.454,
        "duration": 0.531,
        "velocity": 1,
        "hand": "right"
      },
      {
        "midi": 69,
        "time": 77.454,
        "duration": 0.682,
        "velocity": 0.89,
        "hand": "right"
      },
      {
        "midi": 81,
        "time": 77.454,
        "duration": 1.091,
        "velocity": 0.75,
        "hand": "right"
      },
      {
        "midi": 46,
        "time": 77.727,
        "duration": 0.068,
        "velocity": 0.64,
        "hand": "left"
      },
      {
        "midi": 51,
        "time": 77.727,
        "duration": 0.068,
        "velocity": 0.65,
        "hand": "left"
      },
      {
        "midi": 38,
        "time": 77.863,
        "duration": 0.068,
        "velocity": 0.55,
        "hand": "left"
      },
      {
        "midi": 40,
        "time": 77.863,
        "duration": 0.068,
        "velocity": 0.62,
        "hand": "left"
      },
      {
        "midi": 60,
        "time": 77.863,
        "duration": 0.068,
        "velocity": 0.65,
        "hand": "right"
      },
      {
        "midi": 64,
        "time": 77.863,
        "duration": 0.068,
        "velocity": 0.56,
        "hand": "right"
      },
      {
        "midi": 36,
        "time": 78,
        "duration": 0.068,
        "velocity": 0.8,
        "hand": "left"
      },
      {
        "midi": 38,
        "time": 78,
        "duration": 0.257,
        "velocity": 0.56,
        "hand": "left"
      },
      {
        "midi": 60,
        "time": 78,
        "duration": 0.136,
        "velocity": 0.72,
        "hand": "right"
      },
      {
        "midi": 64,
        "time": 78,
        "duration": 0.068,
        "velocity": 0.54,
        "hand": "right"
      },
      {
        "midi": 67,
        "time": 78,
        "duration": 0.257,
        "velocity": 0.48,
        "hand": "right"
      },
      {
        "midi": 65,
        "time": 78.136,
        "duration": 0.136,
        "velocity": 0.95,
        "hand": "right"
      },
      {
        "midi": 38,
        "time": 78.272,
        "duration": 0.068,
        "velocity": 0.55,
        "hand": "left"
      },
      {
        "midi": 40,
        "time": 78.272,
        "duration": 0.068,
        "velocity": 0.63,
        "hand": "left"
      },
      {
        "midi": 60,
        "time": 78.272,
        "duration": 0.136,
        "velocity": 0.74,
        "hand": "right"
      },
      {
        "midi": 64,
        "time": 78.272,
        "duration": 0.068,
        "velocity": 0.69,
        "hand": "right"
      },
      {
        "midi": 67,
        "time": 78.272,
        "duration": 0.136,
        "velocity": 0.83,
        "hand": "right"
      },
      {
        "midi": 69,
        "time": 78.409,
        "duration": 0.136,
        "velocity": 0.86,
        "hand": "right"
      },
      {
        "midi": 38,
        "time": 78.545,
        "duration": 0.068,
        "velocity": 0.55,
        "hand": "left"
      },
      {
        "midi": 68,
        "time": 78.545,
        "duration": 0.818,
        "velocity": 0.9,
        "hand": "right"
      },
      {
        "midi": 72,
        "time": 78.545,
        "duration": 0.409,
        "velocity": 0.81,
        "hand": "right"
      },
      {
        "midi": 83,
        "time": 78.545,
        "duration": 1.091,
        "velocity": 0.9,
        "hand": "right"
      },
      {
        "midi": 38,
        "time": 78.818,
        "duration": 0.068,
        "velocity": 0.55,
        "hand": "left"
      },
      {
        "midi": 40,
        "time": 78.818,
        "duration": 0.068,
        "velocity": 0.71,
        "hand": "left"
      },
      {
        "midi": 63,
        "time": 78.818,
        "duration": 0.136,
        "velocity": 0.51,
        "hand": "right"
      },
      {
        "midi": 71,
        "time": 78.954,
        "duration": 0.273,
        "velocity": 0.75,
        "hand": "right"
      },
      {
        "midi": 37,
        "time": 79.091,
        "duration": 0.273,
        "velocity": 0.49,
        "hand": "left"
      },
      {
        "midi": 63,
        "time": 79.091,
        "duration": 0.257,
        "velocity": 0.57,
        "hand": "right"
      },
      {
        "midi": 67,
        "time": 79.091,
        "duration": 0.273,
        "velocity": 0.43,
        "hand": "right"
      },
      {
        "midi": 38,
        "time": 79.227,
        "duration": 0.068,
        "velocity": 0.55,
        "hand": "left"
      },
      {
        "midi": 40,
        "time": 79.227,
        "duration": 0.068,
        "velocity": 0.65,
        "hand": "left"
      },
      {
        "midi": 38,
        "time": 79.363,
        "duration": 0.068,
        "velocity": 0.55,
        "hand": "left"
      },
      {
        "midi": 46,
        "time": 79.363,
        "duration": 0.068,
        "velocity": 0.64,
        "hand": "left"
      },
      {
        "midi": 63,
        "time": 79.363,
        "duration": 0.136,
        "velocity": 0.57,
        "hand": "right"
      },
      {
        "midi": 69,
        "time": 79.363,
        "duration": 0.273,
        "velocity": 0.77,
        "hand": "right"
      },
      {
        "midi": 38,
        "time": 79.5,
        "duration": 0.068,
        "velocity": 0.55,
        "hand": "left"
      },
      {
        "midi": 36,
        "time": 79.636,
        "duration": 0.531,
        "velocity": 0.96,
        "hand": "left"
      },
      {
        "midi": 38,
        "time": 79.636,
        "duration": 0.068,
        "velocity": 0.55,
        "hand": "left"
      },
      {
        "midi": 62,
        "time": 79.636,
        "duration": 0.394,
        "velocity": 1,
        "hand": "right"
      },
      {
        "midi": 67,
        "time": 79.636,
        "duration": 0.667,
        "velocity": 1,
        "hand": "right"
      },
      {
        "midi": 74,
        "time": 79.636,
        "duration": 1.091,
        "velocity": 0.72,
        "hand": "right"
      },
      {
        "midi": 46,
        "time": 79.909,
        "duration": 0.068,
        "velocity": 0.64,
        "hand": "left"
      },
      {
        "midi": 51,
        "time": 79.909,
        "duration": 0.068,
        "velocity": 0.65,
        "hand": "left"
      },
      {
        "midi": 38,
        "time": 80.045,
        "duration": 0.068,
        "velocity": 0.55,
        "hand": "left"
      },
      {
        "midi": 40,
        "time": 80.045,
        "duration": 0.068,
        "velocity": 0.8,
        "hand": "left"
      },
      {
        "midi": 62,
        "time": 80.045,
        "duration": 0.068,
        "velocity": 0.69,
        "hand": "right"
      },
      {
        "midi": 36,
        "time": 80.182,
        "duration": 0.068,
        "velocity": 0.61,
        "hand": "left"
      },
      {
        "midi": 38,
        "time": 80.182,
        "duration": 0.068,
        "velocity": 0.55,
        "hand": "left"
      },
      {
        "midi": 62,
        "time": 80.182,
        "duration": 0.068,
        "velocity": 0.61,
        "hand": "right"
      },
      {
        "midi": 67,
        "time": 80.318,
        "duration": 0.136,
        "velocity": 0.97,
        "hand": "right"
      },
      {
        "midi": 38,
        "time": 80.454,
        "duration": 0.068,
        "velocity": 0.55,
        "hand": "left"
      },
      {
        "midi": 40,
        "time": 80.454,
        "duration": 0.068,
        "velocity": 0.69,
        "hand": "left"
      },
      {
        "midi": 62,
        "time": 80.454,
        "duration": 0.136,
        "velocity": 0.75,
        "hand": "right"
      },
      {
        "midi": 69,
        "time": 80.454,
        "duration": 0.136,
        "velocity": 0.84,
        "hand": "right"
      },
      {
        "midi": 71,
        "time": 80.591,
        "duration": 0.136,
        "velocity": 0.83,
        "hand": "right"
      },
      {
        "midi": 38,
        "time": 80.727,
        "duration": 0.068,
        "velocity": 0.55,
        "hand": "left"
      },
      {
        "midi": 40,
        "time": 80.727,
        "duration": 0.068,
        "velocity": 0.36,
        "hand": "left"
      },
      {
        "midi": 54,
        "time": 80.863,
        "duration": 0.068,
        "velocity": 0.2,
        "hand": "left"
      },
      {
        "midi": 38,
        "time": 81,
        "duration": 0.068,
        "velocity": 0.55,
        "hand": "left"
      },
      {
        "midi": 40,
        "time": 81,
        "duration": 0.068,
        "velocity": 0.47,
        "hand": "left"
      },
      {
        "midi": 62,
        "time": 81,
        "duration": 0.136,
        "velocity": 0.75,
        "hand": "right"
      },
      {
        "midi": 65,
        "time": 81,
        "duration": 0.136,
        "velocity": 0.72,
        "hand": "right"
      },
      {
        "midi": 70,
        "time": 81,
        "duration": 0.136,
        "velocity": 0.63,
        "hand": "right"
      },
      {
        "midi": 36,
        "time": 81.272,
        "duration": 0.068,
        "velocity": 0.5,
        "hand": "left"
      },
      {
        "midi": 43,
        "time": 81.272,
        "duration": 0.258,
        "velocity": 0.9,
        "hand": "left"
      },
      {
        "midi": 38,
        "time": 81.545,
        "duration": 0.068,
        "velocity": 0.55,
        "hand": "left"
      },
      {
        "midi": 40,
        "time": 81.545,
        "duration": 0.068,
        "velocity": 0.47,
        "hand": "left"
      },
      {
        "midi": 62,
        "time": 81.545,
        "duration": 0.136,
        "velocity": 0.72,
        "hand": "right"
      },
      {
        "midi": 65,
        "time": 81.545,
        "duration": 0.136,
        "velocity": 0.69,
        "hand": "right"
      },
      {
        "midi": 70,
        "time": 81.545,
        "duration": 0.136,
        "velocity": 0.57,
        "hand": "right"
      },
      {
        "midi": 43,
        "time": 81.818,
        "duration": 0.258,
        "velocity": 0.61,
        "hand": "left"
      },
      {
        "midi": 47,
        "time": 81.818,
        "duration": 0.068,
        "velocity": 0.5,
        "hand": "left"
      },
      {
        "midi": 38,
        "time": 82.091,
        "duration": 0.068,
        "velocity": 0.55,
        "hand": "left"
      },
      {
        "midi": 40,
        "time": 82.091,
        "duration": 0.068,
        "velocity": 0.47,
        "hand": "left"
      },
      {
        "midi": 62,
        "time": 82.091,
        "duration": 0.136,
        "velocity": 0.72,
        "hand": "right"
      },
      {
        "midi": 65,
        "time": 82.091,
        "duration": 0.273,
        "velocity": 1,
        "hand": "right"
      },
      {
        "midi": 70,
        "time": 82.091,
        "duration": 0.273,
        "velocity": 0.88,
        "hand": "right"
      },
      {
        "midi": 36,
        "time": 82.363,
        "duration": 0.068,
        "velocity": 0.5,
        "hand": "left"
      },
      {
        "midi": 43,
        "time": 82.363,
        "duration": 0.258,
        "velocity": 0.57,
        "hand": "left"
      },
      {
        "midi": 38,
        "time": 82.636,
        "duration": 0.068,
        "velocity": 0.55,
        "hand": "left"
      },
      {
        "midi": 40,
        "time": 82.636,
        "duration": 0.068,
        "velocity": 0.47,
        "hand": "left"
      },
      {
        "midi": 62,
        "time": 82.636,
        "duration": 0.136,
        "velocity": 0.59,
        "hand": "right"
      },
      {
        "midi": 65,
        "time": 82.636,
        "duration": 0.136,
        "velocity": 0.5,
        "hand": "right"
      },
      {
        "midi": 70,
        "time": 82.636,
        "duration": 0.136,
        "velocity": 0.5,
        "hand": "right"
      },
      {
        "midi": 36,
        "time": 82.909,
        "duration": 1.909,
        "velocity": 0.8,
        "hand": "left"
      },
      {
        "midi": 38,
        "time": 82.909,
        "duration": 0.068,
        "velocity": 0.55,
        "hand": "left"
      },
      {
        "midi": 62,
        "time": 82.909,
        "duration": 1.636,
        "velocity": 0.64,
        "hand": "right"
      },
      {
        "midi": 66,
        "time": 82.909,
        "duration": 1.636,
        "velocity": 0.61,
        "hand": "right"
      },
      {
        "midi": 69,
        "time": 82.909,
        "duration": 1.636,
        "velocity": 0.64,
        "hand": "right"
      }
    ]
  },
  "notes1Hand": [
    {
      "midi": 69,
      "time": 0,
      "duration": 0.53,
      "velocity": 1,
      "hand": "right"
    },
    {
      "midi": 65,
      "time": 0.682,
      "duration": 0.45,
      "velocity": 0.84,
      "hand": "right"
    },
    {
      "midi": 65,
      "time": 1.363,
      "duration": 0.45,
      "velocity": 0.63,
      "hand": "right"
    },
    {
      "midi": 62,
      "time": 2.045,
      "duration": 0.45,
      "velocity": 0.55,
      "hand": "right"
    },
    {
      "midi": 67,
      "time": 2.727,
      "duration": 0.45,
      "velocity": 0.48,
      "hand": "right"
    },
    {
      "midi": 63,
      "time": 3.545,
      "duration": 0.45,
      "velocity": 0.51,
      "hand": "right"
    },
    {
      "midi": 62,
      "time": 4.227,
      "duration": 0.45,
      "velocity": 0.55,
      "hand": "right"
    },
    {
      "midi": 62,
      "time": 4.909,
      "duration": 0.45,
      "velocity": 0.61,
      "hand": "right"
    },
    {
      "midi": 66,
      "time": 5.591,
      "duration": 0.45,
      "velocity": 0.2,
      "hand": "right"
    },
    {
      "midi": 82,
      "time": 6.272,
      "duration": 0.45,
      "velocity": 0.57,
      "hand": "right"
    },
    {
      "midi": 55,
      "time": 7.091,
      "duration": 0.45,
      "velocity": 1,
      "hand": "right"
    },
    {
      "midi": 60,
      "time": 7.909,
      "duration": 0.45,
      "velocity": 0.68,
      "hand": "right"
    },
    {
      "midi": 71,
      "time": 8.727,
      "duration": 0.45,
      "velocity": 0.9,
      "hand": "right"
    },
    {
      "midi": 57,
      "time": 9.409,
      "duration": 0.45,
      "velocity": 0.95,
      "hand": "right"
    },
    {
      "midi": 69,
      "time": 10.363,
      "duration": 0.45,
      "velocity": 0.85,
      "hand": "right"
    },
    {
      "midi": 69,
      "time": 11.454,
      "duration": 0.45,
      "velocity": 0.54,
      "hand": "right"
    },
    {
      "midi": 67,
      "time": 12.545,
      "duration": 0.45,
      "velocity": 0.77,
      "hand": "right"
    },
    {
      "midi": 67,
      "time": 13.636,
      "duration": 0.45,
      "velocity": 0.54,
      "hand": "right"
    },
    {
      "midi": 65,
      "time": 14.727,
      "duration": 0.45,
      "velocity": 0.96,
      "hand": "right"
    },
    {
      "midi": 64,
      "time": 15.682,
      "duration": 0.45,
      "velocity": 0.73,
      "hand": "right"
    },
    {
      "midi": 69,
      "time": 16.363,
      "duration": 0.45,
      "velocity": 0.72,
      "hand": "right"
    },
    {
      "midi": 69,
      "time": 17.454,
      "duration": 0.45,
      "velocity": 0.72,
      "hand": "right"
    },
    {
      "midi": 69,
      "time": 18.272,
      "duration": 0.45,
      "velocity": 0.55,
      "hand": "right"
    },
    {
      "midi": 69,
      "time": 19.091,
      "duration": 0.45,
      "velocity": 0.87,
      "hand": "right"
    },
    {
      "midi": 64,
      "time": 20.182,
      "duration": 0.45,
      "velocity": 0.74,
      "hand": "right"
    },
    {
      "midi": 64,
      "time": 21.272,
      "duration": 0.45,
      "velocity": 0.72,
      "hand": "right"
    },
    {
      "midi": 65,
      "time": 22.091,
      "duration": 0.45,
      "velocity": 0.53,
      "hand": "right"
    },
    {
      "midi": 72,
      "time": 22.909,
      "duration": 0.45,
      "velocity": 0.96,
      "hand": "right"
    },
    {
      "midi": 72,
      "time": 24,
      "duration": 0.545,
      "velocity": 0.78,
      "hand": "right"
    },
    {
      "midi": 82,
      "time": 24.818,
      "duration": 0.45,
      "velocity": 0.57,
      "hand": "right"
    },
    {
      "midi": 65,
      "time": 25.636,
      "duration": 0.45,
      "velocity": 0.75,
      "hand": "right"
    },
    {
      "midi": 82,
      "time": 26.454,
      "duration": 0.45,
      "velocity": 0.79,
      "hand": "right"
    },
    {
      "midi": 69,
      "time": 27.272,
      "duration": 0.45,
      "velocity": 0.85,
      "hand": "right"
    },
    {
      "midi": 67,
      "time": 27.954,
      "duration": 0.45,
      "velocity": 0.57,
      "hand": "right"
    },
    {
      "midi": 72,
      "time": 28.636,
      "duration": 0.45,
      "velocity": 0.76,
      "hand": "right"
    },
    {
      "midi": 72,
      "time": 29.454,
      "duration": 0.545,
      "velocity": 0.72,
      "hand": "right"
    },
    {
      "midi": 64,
      "time": 30.136,
      "duration": 0.45,
      "velocity": 0.76,
      "hand": "right"
    },
    {
      "midi": 66,
      "time": 30.818,
      "duration": 0.45,
      "velocity": 0.61,
      "hand": "right"
    },
    {
      "midi": 65,
      "time": 31.636,
      "duration": 0.531,
      "velocity": 1,
      "hand": "right"
    },
    {
      "midi": 55,
      "time": 32.318,
      "duration": 0.45,
      "velocity": 0.59,
      "hand": "right"
    },
    {
      "midi": 58,
      "time": 33,
      "duration": 0.45,
      "velocity": 0.64,
      "hand": "right"
    },
    {
      "midi": 60,
      "time": 33.682,
      "duration": 0.45,
      "velocity": 0.57,
      "hand": "right"
    },
    {
      "midi": 72,
      "time": 34.363,
      "duration": 0.45,
      "velocity": 0.91,
      "hand": "right"
    },
    {
      "midi": 63,
      "time": 35.182,
      "duration": 0.45,
      "velocity": 0.54,
      "hand": "right"
    },
    {
      "midi": 72,
      "time": 35.863,
      "duration": 0.45,
      "velocity": 0.68,
      "hand": "right"
    },
    {
      "midi": 69,
      "time": 36.545,
      "duration": 0.45,
      "velocity": 0.87,
      "hand": "right"
    },
    {
      "midi": 65,
      "time": 37.363,
      "duration": 0.45,
      "velocity": 0.54,
      "hand": "right"
    },
    {
      "midi": 72,
      "time": 38.045,
      "duration": 0.45,
      "velocity": 0.57,
      "hand": "right"
    },
    {
      "midi": 76,
      "time": 38.727,
      "duration": 0.45,
      "velocity": 0.73,
      "hand": "right"
    },
    {
      "midi": 68,
      "time": 39.409,
      "duration": 0.45,
      "velocity": 0.59,
      "hand": "right"
    },
    {
      "midi": 73,
      "time": 40.091,
      "duration": 0.45,
      "velocity": 0.59,
      "hand": "right"
    },
    {
      "midi": 64,
      "time": 40.772,
      "duration": 0.45,
      "velocity": 0.62,
      "hand": "right"
    },
    {
      "midi": 62,
      "time": 41.454,
      "duration": 0.45,
      "velocity": 0.55,
      "hand": "right"
    },
    {
      "midi": 82,
      "time": 42.272,
      "duration": 0.45,
      "velocity": 0.57,
      "hand": "right"
    },
    {
      "midi": 62,
      "time": 43.091,
      "duration": 0.45,
      "velocity": 0.55,
      "hand": "right"
    },
    {
      "midi": 82,
      "time": 43.909,
      "duration": 0.45,
      "velocity": 0.79,
      "hand": "right"
    },
    {
      "midi": 62,
      "time": 44.591,
      "duration": 0.45,
      "velocity": 0.68,
      "hand": "right"
    },
    {
      "midi": 67,
      "time": 45.272,
      "duration": 0.45,
      "velocity": 0.79,
      "hand": "right"
    },
    {
      "midi": 66,
      "time": 46.091,
      "duration": 0.45,
      "velocity": 1,
      "hand": "right"
    },
    {
      "midi": 67,
      "time": 46.909,
      "duration": 0.53,
      "velocity": 0.91,
      "hand": "right"
    },
    {
      "midi": 64,
      "time": 47.591,
      "duration": 0.45,
      "velocity": 0.76,
      "hand": "right"
    },
    {
      "midi": 66,
      "time": 48.272,
      "duration": 0.45,
      "velocity": 0.61,
      "hand": "right"
    },
    {
      "midi": 65,
      "time": 49.091,
      "duration": 0.53,
      "velocity": 0.99,
      "hand": "right"
    },
    {
      "midi": 62,
      "time": 49.772,
      "duration": 0.45,
      "velocity": 0.55,
      "hand": "right"
    },
    {
      "midi": 58,
      "time": 50.454,
      "duration": 0.45,
      "velocity": 0.64,
      "hand": "right"
    },
    {
      "midi": 60,
      "time": 51.136,
      "duration": 0.45,
      "velocity": 0.57,
      "hand": "right"
    },
    {
      "midi": 69,
      "time": 51.818,
      "duration": 0.45,
      "velocity": 0.87,
      "hand": "right"
    },
    {
      "midi": 63,
      "time": 52.636,
      "duration": 0.45,
      "velocity": 0.54,
      "hand": "right"
    },
    {
      "midi": 79,
      "time": 53.454,
      "duration": 1.091,
      "velocity": 0.76,
      "hand": "right"
    },
    {
      "midi": 64,
      "time": 54.136,
      "duration": 0.45,
      "velocity": 0.65,
      "hand": "right"
    },
    {
      "midi": 65,
      "time": 54.818,
      "duration": 0.45,
      "velocity": 0.54,
      "hand": "right"
    },
    {
      "midi": 81,
      "time": 55.636,
      "duration": 1.091,
      "velocity": 0.73,
      "hand": "right"
    },
    {
      "midi": 67,
      "time": 56.454,
      "duration": 0.45,
      "velocity": 0.55,
      "hand": "right"
    },
    {
      "midi": 67,
      "time": 57.272,
      "duration": 0.45,
      "velocity": 0.59,
      "hand": "right"
    },
    {
      "midi": 66,
      "time": 58.091,
      "duration": 0.45,
      "velocity": 0.54,
      "hand": "right"
    },
    {
      "midi": 64,
      "time": 58.909,
      "duration": 0.45,
      "velocity": 0.64,
      "hand": "right"
    },
    {
      "midi": 62,
      "time": 59.591,
      "duration": 0.45,
      "velocity": 0.61,
      "hand": "right"
    },
    {
      "midi": 82,
      "time": 60.272,
      "duration": 0.45,
      "velocity": 0.68,
      "hand": "right"
    },
    {
      "midi": 67,
      "time": 61.091,
      "duration": 0.45,
      "velocity": 0.93,
      "hand": "right"
    },
    {
      "midi": 65,
      "time": 61.909,
      "duration": 0.45,
      "velocity": 0.58,
      "hand": "right"
    },
    {
      "midi": 69,
      "time": 62.591,
      "duration": 0.45,
      "velocity": 0.56,
      "hand": "right"
    },
    {
      "midi": 74,
      "time": 63.272,
      "duration": 0.45,
      "velocity": 0.54,
      "hand": "right"
    },
    {
      "midi": 69,
      "time": 64.091,
      "duration": 0.45,
      "velocity": 0.69,
      "hand": "right"
    },
    {
      "midi": 64,
      "time": 64.772,
      "duration": 0.45,
      "velocity": 0.54,
      "hand": "right"
    },
    {
      "midi": 69,
      "time": 65.454,
      "duration": 0.531,
      "velocity": 1,
      "hand": "right"
    },
    {
      "midi": 62,
      "time": 66.136,
      "duration": 0.45,
      "velocity": 0.56,
      "hand": "right"
    },
    {
      "midi": 58,
      "time": 66.818,
      "duration": 0.45,
      "velocity": 0.64,
      "hand": "right"
    },
    {
      "midi": 76,
      "time": 67.5,
      "duration": 0.45,
      "velocity": 0.73,
      "hand": "right"
    },
    {
      "midi": 74,
      "time": 68.182,
      "duration": 0.45,
      "velocity": 0.75,
      "hand": "right"
    },
    {
      "midi": 69,
      "time": 69,
      "duration": 0.45,
      "velocity": 0.81,
      "hand": "right"
    },
    {
      "midi": 62,
      "time": 69.682,
      "duration": 0.45,
      "velocity": 0.61,
      "hand": "right"
    },
    {
      "midi": 71,
      "time": 70.363,
      "duration": 0.45,
      "velocity": 0.56,
      "hand": "right"
    },
    {
      "midi": 69,
      "time": 71.182,
      "duration": 0.45,
      "velocity": 0.53,
      "hand": "right"
    },
    {
      "midi": 62,
      "time": 71.863,
      "duration": 0.45,
      "velocity": 0.55,
      "hand": "right"
    },
    {
      "midi": 68,
      "time": 72.545,
      "duration": 0.45,
      "velocity": 0.59,
      "hand": "right"
    },
    {
      "midi": 66,
      "time": 73.363,
      "duration": 0.45,
      "velocity": 0.61,
      "hand": "right"
    },
    {
      "midi": 71,
      "time": 74.182,
      "duration": 0.45,
      "velocity": 0.96,
      "hand": "right"
    },
    {
      "midi": 72,
      "time": 74.863,
      "duration": 0.45,
      "velocity": 0.68,
      "hand": "right"
    },
    {
      "midi": 63,
      "time": 75.545,
      "duration": 0.45,
      "velocity": 0.69,
      "hand": "right"
    },
    {
      "midi": 69,
      "time": 76.227,
      "duration": 0.45,
      "velocity": 0.76,
      "hand": "right"
    },
    {
      "midi": 68,
      "time": 76.909,
      "duration": 0.45,
      "velocity": 0.54,
      "hand": "right"
    },
    {
      "midi": 63,
      "time": 77.727,
      "duration": 0.45,
      "velocity": 0.65,
      "hand": "right"
    },
    {
      "midi": 69,
      "time": 78.409,
      "duration": 0.45,
      "velocity": 0.86,
      "hand": "right"
    },
    {
      "midi": 67,
      "time": 79.091,
      "duration": 0.45,
      "velocity": 0.43,
      "hand": "right"
    },
    {
      "midi": 63,
      "time": 79.909,
      "duration": 0.45,
      "velocity": 0.65,
      "hand": "right"
    },
    {
      "midi": 71,
      "time": 80.591,
      "duration": 0.45,
      "velocity": 0.83,
      "hand": "right"
    },
    {
      "midi": 55,
      "time": 81.272,
      "duration": 0.45,
      "velocity": 0.9,
      "hand": "right"
    },
    {
      "midi": 70,
      "time": 82.091,
      "duration": 0.45,
      "velocity": 0.88,
      "hand": "right"
    },
    {
      "midi": 69,
      "time": 82.909,
      "duration": 1.636,
      "velocity": 0.64,
      "hand": "right"
    }
  ],
  "notes2Hands": [
    {
      "midi": 40,
      "time": 0,
      "duration": 0.394,
      "velocity": 0.95,
      "hand": "left"
    },
    {
      "midi": 42,
      "time": 0,
      "duration": 0.068,
      "velocity": 0.71,
      "hand": "left"
    },
    {
      "midi": 64,
      "time": 0,
      "duration": 0.818,
      "velocity": 1,
      "hand": "right"
    },
    {
      "midi": 67,
      "time": 0,
      "duration": 0.803,
      "velocity": 1,
      "hand": "right"
    },
    {
      "midi": 69,
      "time": 0,
      "duration": 0.53,
      "velocity": 1,
      "hand": "right"
    },
    {
      "midi": 46,
      "time": 0.272,
      "duration": 0.068,
      "velocity": 0.64,
      "hand": "left"
    },
    {
      "midi": 51,
      "time": 0.272,
      "duration": 0.068,
      "velocity": 0.69,
      "hand": "left"
    },
    {
      "midi": 38,
      "time": 0.409,
      "duration": 0.068,
      "velocity": 0.55,
      "hand": "left"
    },
    {
      "midi": 40,
      "time": 0.409,
      "duration": 0.068,
      "velocity": 0.64,
      "hand": "left"
    },
    {
      "midi": 62,
      "time": 0.409,
      "duration": 0.068,
      "velocity": 0.68,
      "hand": "right"
    },
    {
      "midi": 66,
      "time": 0.409,
      "duration": 0.068,
      "velocity": 0.5,
      "hand": "right"
    },
    {
      "midi": 36,
      "time": 0.545,
      "duration": 0.068,
      "velocity": 0.8,
      "hand": "left"
    },
    {
      "midi": 38,
      "time": 0.545,
      "duration": 0.068,
      "velocity": 0.55,
      "hand": "left"
    },
    {
      "midi": 63,
      "time": 0.545,
      "duration": 0.068,
      "velocity": 0.5,
      "hand": "right"
    },
    {
      "midi": 66,
      "time": 0.545,
      "duration": 0.258,
      "velocity": 0.53,
      "hand": "right"
    },
    {
      "midi": 69,
      "time": 0.545,
      "duration": 0.273,
      "velocity": 0.56,
      "hand": "right"
    },
    {
      "midi": 65,
      "time": 0.682,
      "duration": 0.136,
      "velocity": 0.84,
      "hand": "right"
    },
    {
      "midi": 38,
      "time": 0.818,
      "duration": 0.068,
      "velocity": 0.55,
      "hand": "left"
    },
    {
      "midi": 40,
      "time": 0.818,
      "duration": 0.068,
      "velocity": 0.64,
      "hand": "left"
    },
    {
      "midi": 62,
      "time": 0.818,
      "duration": 0.068,
      "velocity": 0.68,
      "hand": "right"
    },
    {
      "midi": 67,
      "time": 0.818,
      "duration": 0.136,
      "velocity": 0.75,
      "hand": "right"
    },
    {
      "midi": 39,
      "time": 0.954,
      "duration": 0.068,
      "velocity": 0.15,
      "hand": "left"
    },
    {
      "midi": 69,
      "time": 0.954,
      "duration": 0.136,
      "velocity": 0.76,
      "hand": "right"
    },
    {
      "midi": 39,
      "time": 1.091,
      "duration": 0.53,
      "velocity": 0.95,
      "hand": "left"
    },
    {
      "midi": 65,
      "time": 1.091,
      "duration": 0.257,
      "velocity": 0.61,
      "hand": "right"
    },
    {
      "midi": 68,
      "time": 1.091,
      "duration": 0.682,
      "velocity": 0.97,
      "hand": "right"
    },
    {
      "midi": 70,
      "time": 1.091,
      "duration": 0.273,
      "velocity": 0.64,
      "hand": "right"
    },
    {
      "midi": 38,
      "time": 1.363,
      "duration": 0.068,
      "velocity": 0.55,
      "hand": "left"
    },
    {
      "midi": 40,
      "time": 1.363,
      "duration": 0.068,
      "velocity": 0.65,
      "hand": "left"
    },
    {
      "midi": 61,
      "time": 1.363,
      "duration": 0.068,
      "velocity": 0.65,
      "hand": "right"
    },
    {
      "midi": 65,
      "time": 1.363,
      "duration": 0.068,
      "velocity": 0.63,
      "hand": "right"
    },
    {
      "midi": 69,
      "time": 1.5,
      "duration": 0.273,
      "velocity": 0.88,
      "hand": "right"
    },
    {
      "midi": 36,
      "time": 1.636,
      "duration": 0.068,
      "velocity": 0.76,
      "hand": "left"
    },
    {
      "midi": 38,
      "time": 1.636,
      "duration": 0.068,
      "velocity": 0.55,
      "hand": "left"
    },
    {
      "midi": 61,
      "time": 1.636,
      "duration": 0.258,
      "velocity": 0.65,
      "hand": "right"
    },
    {
      "midi": 65,
      "time": 1.636,
      "duration": 0.068,
      "velocity": 0.65,
      "hand": "right"
    },
    {
      "midi": 38,
      "time": 1.772,
      "duration": 0.068,
      "velocity": 0.55,
      "hand": "left"
    },
    {
      "midi": 40,
      "time": 1.772,
      "duration": 0.068,
      "velocity": 0.72,
      "hand": "left"
    },
    {
      "midi": 38,
      "time": 1.909,
      "duration": 0.068,
      "velocity": 0.55,
      "hand": "left"
    },
    {
      "midi": 46,
      "time": 1.909,
      "duration": 0.068,
      "velocity": 0.64,
      "hand": "left"
    },
    {
      "midi": 61,
      "time": 1.909,
      "duration": 0.068,
      "velocity": 0.72,
      "hand": "right"
    },
    {
      "midi": 65,
      "time": 1.909,
      "duration": 0.068,
      "velocity": 0.72,
      "hand": "right"
    },
    {
      "midi": 67,
      "time": 1.909,
      "duration": 0.258,
      "velocity": 0.88,
      "hand": "right"
    },
    {
      "midi": 38,
      "time": 2.045,
      "duration": 0.068,
      "velocity": 0.55,
      "hand": "left"
    },
    {
      "midi": 38,
      "time": 2.182,
      "duration": 0.394,
      "velocity": 0.92,
      "hand": "left"
    },
    {
      "midi": 40,
      "time": 2.182,
      "duration": 0.068,
      "velocity": 0.64,
      "hand": "left"
    },
    {
      "midi": 65,
      "time": 2.182,
      "duration": 0.666,
      "velocity": 0.96,
      "hand": "right"
    },
    {
      "midi": 67,
      "time": 2.182,
      "duration": 0.53,
      "velocity": 1,
      "hand": "right"
    },
    {
      "midi": 69,
      "time": 2.182,
      "duration": 0.682,
      "velocity": 0.89,
      "hand": "right"
    },
    {
      "midi": 46,
      "time": 2.454,
      "duration": 0.068,
      "velocity": 0.64,
      "hand": "left"
    },
    {
      "midi": 51,
      "time": 2.454,
      "duration": 0.068,
      "velocity": 0.65,
      "hand": "left"
    },
    {
      "midi": 38,
      "time": 2.591,
      "duration": 0.068,
      "velocity": 0.55,
      "hand": "left"
    },
    {
      "midi": 40,
      "time": 2.591,
      "duration": 0.068,
      "velocity": 0.62,
      "hand": "left"
    },
    {
      "midi": 60,
      "time": 2.591,
      "duration": 0.068,
      "velocity": 0.65,
      "hand": "right"
    },
    {
      "midi": 64,
      "time": 2.591,
      "duration": 0.068,
      "velocity": 0.56,
      "hand": "right"
    },
    {
      "midi": 36,
      "time": 2.727,
      "duration": 0.068,
      "velocity": 0.8,
      "hand": "left"
    },
    {
      "midi": 38,
      "time": 2.727,
      "duration": 0.258,
      "velocity": 0.56,
      "hand": "left"
    },
    {
      "midi": 60,
      "time": 2.727,
      "duration": 0.136,
      "velocity": 0.72,
      "hand": "right"
    },
    {
      "midi": 64,
      "time": 2.727,
      "duration": 0.136,
      "velocity": 0.54,
      "hand": "right"
    },
    {
      "midi": 67,
      "time": 2.727,
      "duration": 0.258,
      "velocity": 0.48,
      "hand": "right"
    },
    {
      "midi": 65,
      "time": 2.863,
      "duration": 0.136,
      "velocity": 0.95,
      "hand": "right"
    },
    {
      "midi": 38,
      "time": 3,
      "duration": 0.068,
      "velocity": 0.55,
      "hand": "left"
    },
    {
      "midi": 40,
      "time": 3,
      "duration": 0.068,
      "velocity": 0.63,
      "hand": "left"
    },
    {
      "midi": 60,
      "time": 3,
      "duration": 0.136,
      "velocity": 0.74,
      "hand": "right"
    },
    {
      "midi": 64,
      "time": 3,
      "duration": 0.068,
      "velocity": 0.69,
      "hand": "right"
    },
    {
      "midi": 67,
      "time": 3,
      "duration": 0.136,
      "velocity": 0.83,
      "hand": "right"
    },
    {
      "midi": 69,
      "time": 3.136,
      "duration": 0.136,
      "velocity": 0.86,
      "hand": "right"
    },
    {
      "midi": 38,
      "time": 3.272,
      "duration": 0.068,
      "velocity": 0.55,
      "hand": "left"
    },
    {
      "midi": 64,
      "time": 3.272,
      "duration": 1.091,
      "velocity": 0.98,
      "hand": "right"
    },
    {
      "midi": 68,
      "time": 3.272,
      "duration": 0.818,
      "velocity": 0.9,
      "hand": "right"
    },
    {
      "midi": 72,
      "time": 3.272,
      "duration": 0.409,
      "velocity": 0.81,
      "hand": "right"
    },
    {
      "midi": 38,
      "time": 3.545,
      "duration": 0.068,
      "velocity": 0.55,
      "hand": "left"
    },
    {
      "midi": 40,
      "time": 3.545,
      "duration": 0.068,
      "velocity": 0.71,
      "hand": "left"
    },
    {
      "midi": 63,
      "time": 3.545,
      "duration": 0.136,
      "velocity": 0.51,
      "hand": "right"
    },
    {
      "midi": 71,
      "time": 3.682,
      "duration": 0.273,
      "velocity": 0.75,
      "hand": "right"
    },
    {
      "midi": 37,
      "time": 3.818,
      "duration": 0.273,
      "velocity": 0.49,
      "hand": "left"
    },
    {
      "midi": 63,
      "time": 3.818,
      "duration": 0.258,
      "velocity": 0.57,
      "hand": "right"
    },
    {
      "midi": 67,
      "time": 3.818,
      "duration": 0.273,
      "velocity": 0.43,
      "hand": "right"
    },
    {
      "midi": 38,
      "time": 3.954,
      "duration": 0.068,
      "velocity": 0.55,
      "hand": "left"
    },
    {
      "midi": 40,
      "time": 3.954,
      "duration": 0.068,
      "velocity": 0.65,
      "hand": "left"
    },
    {
      "midi": 38,
      "time": 4.091,
      "duration": 0.068,
      "velocity": 0.55,
      "hand": "left"
    },
    {
      "midi": 46,
      "time": 4.091,
      "duration": 0.068,
      "velocity": 0.64,
      "hand": "left"
    },
    {
      "midi": 63,
      "time": 4.091,
      "duration": 0.136,
      "velocity": 0.57,
      "hand": "right"
    },
    {
      "midi": 69,
      "time": 4.091,
      "duration": 0.273,
      "velocity": 0.77,
      "hand": "right"
    },
    {
      "midi": 38,
      "time": 4.227,
      "duration": 0.068,
      "velocity": 0.55,
      "hand": "left"
    },
    {
      "midi": 36,
      "time": 4.363,
      "duration": 0.531,
      "velocity": 0.96,
      "hand": "left"
    },
    {
      "midi": 38,
      "time": 4.363,
      "duration": 0.068,
      "velocity": 0.55,
      "hand": "left"
    },
    {
      "midi": 62,
      "time": 4.363,
      "duration": 0.394,
      "velocity": 1,
      "hand": "right"
    },
    {
      "midi": 67,
      "time": 4.363,
      "duration": 0.667,
      "velocity": 1,
      "hand": "right"
    },
    {
      "midi": 46,
      "time": 4.636,
      "duration": 0.068,
      "velocity": 0.64,
      "hand": "left"
    },
    {
      "midi": 51,
      "time": 4.636,
      "duration": 0.068,
      "velocity": 0.65,
      "hand": "left"
    },
    {
      "midi": 38,
      "time": 4.772,
      "duration": 0.068,
      "velocity": 0.55,
      "hand": "left"
    },
    {
      "midi": 40,
      "time": 4.772,
      "duration": 0.068,
      "velocity": 0.8,
      "hand": "left"
    },
    {
      "midi": 62,
      "time": 4.772,
      "duration": 0.068,
      "velocity": 0.69,
      "hand": "right"
    },
    {
      "midi": 36,
      "time": 4.909,
      "duration": 0.068,
      "velocity": 0.61,
      "hand": "left"
    },
    {
      "midi": 38,
      "time": 4.909,
      "duration": 0.068,
      "velocity": 0.55,
      "hand": "left"
    },
    {
      "midi": 62,
      "time": 4.909,
      "duration": 0.068,
      "velocity": 0.61,
      "hand": "right"
    },
    {
      "midi": 67,
      "time": 5.045,
      "duration": 0.136,
      "velocity": 0.97,
      "hand": "right"
    },
    {
      "midi": 38,
      "time": 5.182,
      "duration": 0.068,
      "velocity": 0.55,
      "hand": "left"
    },
    {
      "midi": 40,
      "time": 5.182,
      "duration": 0.068,
      "velocity": 0.69,
      "hand": "left"
    },
    {
      "midi": 62,
      "time": 5.182,
      "duration": 0.136,
      "velocity": 0.75,
      "hand": "right"
    },
    {
      "midi": 69,
      "time": 5.182,
      "duration": 0.136,
      "velocity": 0.84,
      "hand": "right"
    },
    {
      "midi": 71,
      "time": 5.318,
      "duration": 0.136,
      "velocity": 0.83,
      "hand": "right"
    },
    {
      "midi": 38,
      "time": 5.454,
      "duration": 0.068,
      "velocity": 0.55,
      "hand": "left"
    },
    {
      "midi": 40,
      "time": 5.454,
      "duration": 0.068,
      "velocity": 0.36,
      "hand": "left"
    },
    {
      "midi": 54,
      "time": 5.591,
      "duration": 0.068,
      "velocity": 0.2,
      "hand": "left"
    },
    {
      "midi": 38,
      "time": 5.727,
      "duration": 0.068,
      "velocity": 0.55,
      "hand": "left"
    },
    {
      "midi": 40,
      "time": 5.727,
      "duration": 0.068,
      "velocity": 0.47,
      "hand": "left"
    },
    {
      "midi": 71,
      "time": 5.727,
      "duration": 0.136,
      "velocity": 0.68,
      "hand": "right"
    },
    {
      "midi": 77,
      "time": 5.727,
      "duration": 0.136,
      "velocity": 0.76,
      "hand": "right"
    },
    {
      "midi": 82,
      "time": 5.727,
      "duration": 0.136,
      "velocity": 0.72,
      "hand": "right"
    },
    {
      "midi": 36,
      "time": 6,
      "duration": 0.068,
      "velocity": 0.5,
      "hand": "left"
    },
    {
      "midi": 43,
      "time": 6,
      "duration": 0.257,
      "velocity": 1,
      "hand": "left"
    },
    {
      "midi": 38,
      "time": 6.272,
      "duration": 0.068,
      "velocity": 0.55,
      "hand": "left"
    },
    {
      "midi": 40,
      "time": 6.272,
      "duration": 0.068,
      "velocity": 0.47,
      "hand": "left"
    },
    {
      "midi": 71,
      "time": 6.272,
      "duration": 0.273,
      "velocity": 0.56,
      "hand": "right"
    },
    {
      "midi": 77,
      "time": 6.272,
      "duration": 0.136,
      "velocity": 0.72,
      "hand": "right"
    },
    {
      "midi": 82,
      "time": 6.272,
      "duration": 0.136,
      "velocity": 0.57,
      "hand": "right"
    },
    {
      "midi": 43,
      "time": 6.545,
      "duration": 0.258,
      "velocity": 1,
      "hand": "left"
    },
    {
      "midi": 46,
      "time": 6.545,
      "duration": 0.068,
      "velocity": 0.64,
      "hand": "left"
    },
    {
      "midi": 38,
      "time": 6.818,
      "duration": 0.068,
      "velocity": 0.55,
      "hand": "left"
    },
    {
      "midi": 40,
      "time": 6.818,
      "duration": 0.068,
      "velocity": 0.47,
      "hand": "left"
    },
    {
      "midi": 71,
      "time": 6.818,
      "duration": 0.136,
      "velocity": 0.68,
      "hand": "right"
    },
    {
      "midi": 77,
      "time": 6.818,
      "duration": 0.136,
      "velocity": 0.76,
      "hand": "right"
    },
    {
      "midi": 82,
      "time": 6.818,
      "duration": 0.136,
      "velocity": 0.68,
      "hand": "right"
    },
    {
      "midi": 36,
      "time": 7.091,
      "duration": 0.068,
      "velocity": 0.5,
      "hand": "left"
    },
    {
      "midi": 43,
      "time": 7.091,
      "duration": 0.257,
      "velocity": 1,
      "hand": "left"
    },
    {
      "midi": 38,
      "time": 7.363,
      "duration": 0.068,
      "velocity": 0.55,
      "hand": "left"
    },
    {
      "midi": 40,
      "time": 7.363,
      "duration": 0.068,
      "velocity": 0.47,
      "hand": "left"
    },
    {
      "midi": 71,
      "time": 7.363,
      "duration": 0.136,
      "velocity": 0.69,
      "hand": "right"
    },
    {
      "midi": 77,
      "time": 7.363,
      "duration": 0.136,
      "velocity": 0.76,
      "hand": "right"
    },
    {
      "midi": 82,
      "time": 7.363,
      "duration": 0.136,
      "velocity": 0.68,
      "hand": "right"
    },
    {
      "midi": 36,
      "time": 7.636,
      "duration": 0.409,
      "velocity": 0.96,
      "hand": "left"
    },
    {
      "midi": 47,
      "time": 7.636,
      "duration": 0.068,
      "velocity": 0.48,
      "hand": "left"
    },
    {
      "midi": 62,
      "time": 7.636,
      "duration": 0.394,
      "velocity": 0.98,
      "hand": "right"
    },
    {
      "midi": 67,
      "time": 7.636,
      "duration": 0.394,
      "velocity": 0.93,
      "hand": "right"
    },
    {
      "midi": 46,
      "time": 7.909,
      "duration": 0.068,
      "velocity": 0.64,
      "hand": "left"
    },
    {
      "midi": 48,
      "time": 7.909,
      "duration": 0.068,
      "velocity": 0.68,
      "hand": "left"
    },
    {
      "midi": 57,
      "time": 8.045,
      "duration": 0.068,
      "velocity": 0.59,
      "hand": "left"
    },
    {
      "midi": 62,
      "time": 8.045,
      "duration": 0.068,
      "velocity": 0.68,
      "hand": "right"
    },
    {
      "midi": 67,
      "time": 8.045,
      "duration": 0.068,
      "velocity": 0.58,
      "hand": "right"
    },
    {
      "midi": 36,
      "time": 8.182,
      "duration": 0.068,
      "velocity": 0.5,
      "hand": "left"
    },
    {
      "midi": 43,
      "time": 8.182,
      "duration": 0.409,
      "velocity": 0.76,
      "hand": "left"
    },
    {
      "midi": 47,
      "time": 8.454,
      "duration": 0.068,
      "velocity": 0.61,
      "hand": "left"
    },
    {
      "midi": 62,
      "time": 8.454,
      "duration": 0.068,
      "velocity": 0.74,
      "hand": "right"
    },
    {
      "midi": 65,
      "time": 8.454,
      "duration": 0.273,
      "velocity": 0.72,
      "hand": "right"
    },
    {
      "midi": 67,
      "time": 8.454,
      "duration": 0.136,
      "velocity": 0.72,
      "hand": "right"
    },
    {
      "midi": 36,
      "time": 8.727,
      "duration": 0.53,
      "velocity": 0.92,
      "hand": "left"
    },
    {
      "midi": 47,
      "time": 8.727,
      "duration": 0.068,
      "velocity": 0.65,
      "hand": "left"
    },
    {
      "midi": 62,
      "time": 8.727,
      "duration": 0.258,
      "velocity": 0.93,
      "hand": "right"
    },
    {
      "midi": 64,
      "time": 8.727,
      "duration": 0.273,
      "velocity": 0.58,
      "hand": "right"
    },
    {
      "midi": 71,
      "time": 8.727,
      "duration": 0.409,
      "velocity": 0.9,
      "hand": "right"
    },
    {
      "midi": 40,
      "time": 9,
      "duration": 0.068,
      "velocity": 0.36,
      "hand": "left"
    },
    {
      "midi": 45,
      "time": 9,
      "duration": 0.068,
      "velocity": 0.65,
      "hand": "left"
    },
    {
      "midi": 62,
      "time": 9,
      "duration": 0.257,
      "velocity": 0.74,
      "hand": "right"
    },
    {
      "midi": 67,
      "time": 9,
      "duration": 0.257,
      "velocity": 0.72,
      "hand": "right"
    },
    {
      "midi": 36,
      "time": 9.272,
      "duration": 0.068,
      "velocity": 0.5,
      "hand": "left"
    },
    {
      "midi": 41,
      "time": 9.272,
      "duration": 0.068,
      "velocity": 0.75,
      "hand": "left"
    },
    {
      "midi": 62,
      "time": 9.272,
      "duration": 0.258,
      "velocity": 0.9,
      "hand": "right"
    },
    {
      "midi": 64,
      "time": 9.272,
      "duration": 0.273,
      "velocity": 0.74,
      "hand": "right"
    },
    {
      "midi": 67,
      "time": 9.272,
      "duration": 0.068,
      "velocity": 0.55,
      "hand": "right"
    },
    {
      "midi": 69,
      "time": 9.272,
      "duration": 0.409,
      "velocity": 0.95,
      "hand": "right"
    },
    {
      "midi": 45,
      "time": 9.409,
      "duration": 0.121,
      "velocity": 0.95,
      "hand": "left"
    },
    {
      "midi": 45,
      "time": 9.545,
      "duration": 0.068,
      "velocity": 0.57,
      "hand": "left"
    },
    {
      "midi": 47,
      "time": 9.545,
      "duration": 0.136,
      "velocity": 0.89,
      "hand": "left"
    },
    {
      "midi": 62,
      "time": 9.545,
      "duration": 0.068,
      "velocity": 0.73,
      "hand": "right"
    },
    {
      "midi": 65,
      "time": 9.545,
      "duration": 0.136,
      "velocity": 0.58,
      "hand": "right"
    },
    {
      "midi": 67,
      "time": 9.545,
      "duration": 0.136,
      "velocity": 0.61,
      "hand": "right"
    },
    {
      "midi": 43,
      "time": 9.682,
      "duration": 0.068,
      "velocity": 0.68,
      "hand": "left"
    },
    {
      "midi": 38,
      "time": 9.818,
      "duration": 0.068,
      "velocity": 0.55,
      "hand": "left"
    },
    {
      "midi": 40,
      "time": 9.818,
      "duration": 0.136,
      "velocity": 0.95,
      "hand": "left"
    },
    {
      "midi": 62,
      "time": 9.818,
      "duration": 0.136,
      "velocity": 0.73,
      "hand": "right"
    },
    {
      "midi": 67,
      "time": 9.818,
      "duration": 0.409,
      "velocity": 0.65,
      "hand": "right"
    },
    {
      "midi": 69,
      "time": 9.818,
      "duration": 0.136,
      "velocity": 0.56,
      "hand": "right"
    },
    {
      "midi": 36,
      "time": 10.363,
      "duration": 0.068,
      "velocity": 0.8,
      "hand": "left"
    },
    {
      "midi": 38,
      "time": 10.363,
      "duration": 0.068,
      "velocity": 0.55,
      "hand": "left"
    },
    {
      "midi": 62,
      "time": 10.363,
      "duration": 0.136,
      "velocity": 0.73,
      "hand": "right"
    },
    {
      "midi": 67,
      "time": 10.363,
      "duration": 0.273,
      "velocity": 0.63,
      "hand": "right"
    },
    {
      "midi": 69,
      "time": 10.363,
      "duration": 0.136,
      "velocity": 0.85,
      "hand": "right"
    },
    {
      "midi": 38,
      "time": 10.909,
      "duration": 0.068,
      "velocity": 0.55,
      "hand": "left"
    },
    {
      "midi": 40,
      "time": 10.909,
      "duration": 0.136,
      "velocity": 0.91,
      "hand": "left"
    },
    {
      "midi": 62,
      "time": 10.909,
      "duration": 0.136,
      "velocity": 0.75,
      "hand": "right"
    },
    {
      "midi": 67,
      "time": 10.909,
      "duration": 0.409,
      "velocity": 0.68,
      "hand": "right"
    },
    {
      "midi": 69,
      "time": 10.909,
      "duration": 0.136,
      "velocity": 0.64,
      "hand": "right"
    },
    {
      "midi": 69,
      "time": 11.454,
      "duration": 0.273,
      "velocity": 0.54,
      "hand": "right"
    },
    {
      "midi": 67,
      "time": 11.727,
      "duration": 0.258,
      "velocity": 0.52,
      "hand": "right"
    },
    {
      "midi": 38,
      "time": 12,
      "duration": 0.136,
      "velocity": 0.84,
      "hand": "left"
    },
    {
      "midi": 42,
      "time": 12,
      "duration": 0.068,
      "velocity": 0.71,
      "hand": "left"
    },
    {
      "midi": 62,
      "time": 12,
      "duration": 0.136,
      "velocity": 0.92,
      "hand": "right"
    },
    {
      "midi": 65,
      "time": 12,
      "duration": 0.409,
      "velocity": 0.94,
      "hand": "right"
    },
    {
      "midi": 67,
      "time": 12,
      "duration": 0.136,
      "velocity": 0.56,
      "hand": "right"
    },
    {
      "midi": 36,
      "time": 12.545,
      "duration": 0.068,
      "velocity": 0.8,
      "hand": "left"
    },
    {
      "midi": 38,
      "time": 12.545,
      "duration": 0.136,
      "velocity": 0.98,
      "hand": "left"
    },
    {
      "midi": 62,
      "time": 12.545,
      "duration": 0.136,
      "velocity": 0.92,
      "hand": "right"
    },
    {
      "midi": 65,
      "time": 12.545,
      "duration": 0.409,
      "velocity": 0.94,
      "hand": "right"
    },
    {
      "midi": 67,
      "time": 12.545,
      "duration": 0.136,
      "velocity": 0.77,
      "hand": "right"
    },
    {
      "midi": 38,
      "time": 13.091,
      "duration": 0.136,
      "velocity": 0.94,
      "hand": "left"
    },
    {
      "midi": 40,
      "time": 13.091,
      "duration": 0.068,
      "velocity": 0.71,
      "hand": "left"
    },
    {
      "midi": 62,
      "time": 13.091,
      "duration": 0.136,
      "velocity": 0.92,
      "hand": "right"
    },
    {
      "midi": 65,
      "time": 13.091,
      "duration": 0.409,
      "velocity": 0.94,
      "hand": "right"
    },
    {
      "midi": 69,
      "time": 13.091,
      "duration": 0.136,
      "velocity": 0.92,
      "hand": "right"
    },
    {
      "midi": 67,
      "time": 13.636,
      "duration": 0.136,
      "velocity": 0.54,
      "hand": "right"
    },
    {
      "midi": 65,
      "time": 13.909,
      "duration": 0.258,
      "velocity": 0.59,
      "hand": "right"
    },
    {
      "midi": 38,
      "time": 14.182,
      "duration": 0.068,
      "velocity": 0.55,
      "hand": "left"
    },
    {
      "midi": 42,
      "time": 14.182,
      "duration": 0.068,
      "velocity": 0.71,
      "hand": "left"
    },
    {
      "midi": 60,
      "time": 14.182,
      "duration": 0.136,
      "velocity": 0.56,
      "hand": "right"
    },
    {
      "midi": 65,
      "time": 14.182,
      "duration": 0.136,
      "velocity": 0.96,
      "hand": "right"
    },
    {
      "midi": 36,
      "time": 14.727,
      "duration": 0.068,
      "velocity": 0.8,
      "hand": "left"
    },
    {
      "midi": 38,
      "time": 14.727,
      "duration": 0.273,
      "velocity": 0.97,
      "hand": "left"
    },
    {
      "midi": 60,
      "time": 14.727,
      "duration": 0.136,
      "velocity": 1,
      "hand": "right"
    },
    {
      "midi": 65,
      "time": 14.727,
      "duration": 0.136,
      "velocity": 0.96,
      "hand": "right"
    },
    {
      "midi": 38,
      "time": 15.272,
      "duration": 0.273,
      "velocity": 1,
      "hand": "left"
    },
    {
      "midi": 40,
      "time": 15.272,
      "duration": 0.068,
      "velocity": 0.65,
      "hand": "left"
    },
    {
      "midi": 60,
      "time": 15.272,
      "duration": 0.136,
      "velocity": 0.54,
      "hand": "right"
    },
    {
      "midi": 64,
      "time": 15.272,
      "duration": 0.545,
      "velocity": 0.96,
      "hand": "right"
    },
    {
      "midi": 38,
      "time": 15.682,
      "duration": 0.068,
      "velocity": 0.55,
      "hand": "left"
    },
    {
      "midi": 40,
      "time": 15.682,
      "duration": 0.068,
      "velocity": 0.73,
      "hand": "left"
    },
    {
      "midi": 38,
      "time": 15.818,
      "duration": 0.068,
      "velocity": 0.55,
      "hand": "left"
    },
    {
      "midi": 41,
      "time": 15.818,
      "duration": 0.068,
      "velocity": 0.75,
      "hand": "left"
    },
    {
      "midi": 60,
      "time": 15.818,
      "duration": 0.136,
      "velocity": 0.73,
      "hand": "right"
    },
    {
      "midi": 38,
      "time": 16.091,
      "duration": 0.068,
      "velocity": 0.55,
      "hand": "left"
    },
    {
      "midi": 40,
      "time": 16.091,
      "duration": 0.068,
      "velocity": 0.65,
      "hand": "left"
    },
    {
      "midi": 60,
      "time": 16.091,
      "duration": 0.257,
      "velocity": 0.7,
      "hand": "right"
    },
    {
      "midi": 38,
      "time": 16.363,
      "duration": 0.068,
      "velocity": 0.55,
      "hand": "left"
    },
    {
      "midi": 41,
      "time": 16.363,
      "duration": 0.136,
      "velocity": 0.8,
      "hand": "left"
    },
    {
      "midi": 60,
      "time": 16.363,
      "duration": 0.273,
      "velocity": 0.98,
      "hand": "right"
    },
    {
      "midi": 64,
      "time": 16.363,
      "duration": 0.273,
      "velocity": 1,
      "hand": "right"
    },
    {
      "midi": 67,
      "time": 16.363,
      "duration": 0.136,
      "velocity": 0.95,
      "hand": "right"
    },
    {
      "midi": 69,
      "time": 16.363,
      "duration": 0.409,
      "velocity": 0.72,
      "hand": "right"
    },
    {
      "midi": 36,
      "time": 16.909,
      "duration": 0.068,
      "velocity": 0.8,
      "hand": "left"
    },
    {
      "midi": 38,
      "time": 16.909,
      "duration": 0.068,
      "velocity": 0.55,
      "hand": "left"
    },
    {
      "midi": 60,
      "time": 16.909,
      "duration": 0.136,
      "velocity": 0.98,
      "hand": "right"
    },
    {
      "midi": 64,
      "time": 16.909,
      "duration": 0.136,
      "velocity": 1,
      "hand": "right"
    },
    {
      "midi": 67,
      "time": 16.909,
      "duration": 0.136,
      "velocity": 0.95,
      "hand": "right"
    },
    {
      "midi": 69,
      "time": 16.909,
      "duration": 0.409,
      "velocity": 0.72,
      "hand": "right"
    },
    {
      "midi": 38,
      "time": 17.454,
      "duration": 0.068,
      "velocity": 0.55,
      "hand": "left"
    },
    {
      "midi": 40,
      "time": 17.454,
      "duration": 0.068,
      "velocity": 0.65,
      "hand": "left"
    },
    {
      "midi": 60,
      "time": 17.454,
      "duration": 0.136,
      "velocity": 0.72,
      "hand": "right"
    },
    {
      "midi": 63,
      "time": 17.454,
      "duration": 0.136,
      "velocity": 0.82,
      "hand": "right"
    },
    {
      "midi": 67,
      "time": 17.454,
      "duration": 0.136,
      "velocity": 0.84,
      "hand": "right"
    },
    {
      "midi": 69,
      "time": 17.454,
      "duration": 0.409,
      "velocity": 0.72,
      "hand": "right"
    },
    {
      "midi": 71,
      "time": 18,
      "duration": 0.273,
      "velocity": 0.56,
      "hand": "right"
    },
    {
      "midi": 69,
      "time": 18.272,
      "duration": 0.258,
      "velocity": 0.55,
      "hand": "right"
    },
    {
      "midi": 38,
      "time": 18.545,
      "duration": 0.068,
      "velocity": 0.55,
      "hand": "left"
    },
    {
      "midi": 40,
      "time": 18.545,
      "duration": 0.136,
      "velocity": 0.94,
      "hand": "left"
    },
    {
      "midi": 64,
      "time": 18.545,
      "duration": 0.273,
      "velocity": 0.98,
      "hand": "right"
    },
    {
      "midi": 67,
      "time": 18.545,
      "duration": 0.409,
      "velocity": 0.91,
      "hand": "right"
    },
    {
      "midi": 69,
      "time": 18.545,
      "duration": 0.136,
      "velocity": 0.55,
      "hand": "right"
    },
    {
      "midi": 36,
      "time": 19.091,
      "duration": 0.068,
      "velocity": 0.8,
      "hand": "left"
    },
    {
      "midi": 38,
      "time": 19.091,
      "duration": 0.068,
      "velocity": 0.55,
      "hand": "left"
    },
    {
      "midi": 64,
      "time": 19.091,
      "duration": 0.273,
      "velocity": 0.98,
      "hand": "right"
    },
    {
      "midi": 67,
      "time": 19.091,
      "duration": 0.409,
      "velocity": 0.91,
      "hand": "right"
    },
    {
      "midi": 69,
      "time": 19.091,
      "duration": 0.136,
      "velocity": 0.87,
      "hand": "right"
    },
    {
      "midi": 39,
      "time": 19.636,
      "duration": 0.136,
      "velocity": 0.85,
      "hand": "left"
    },
    {
      "midi": 65,
      "time": 19.636,
      "duration": 0.136,
      "velocity": 0.59,
      "hand": "right"
    },
    {
      "midi": 68,
      "time": 19.636,
      "duration": 0.136,
      "velocity": 0.57,
      "hand": "right"
    },
    {
      "midi": 64,
      "time": 20.182,
      "duration": 0.136,
      "velocity": 0.74,
      "hand": "right"
    },
    {
      "midi": 65,
      "time": 20.454,
      "duration": 0.258,
      "velocity": 0.69,
      "hand": "right"
    },
    {
      "midi": 38,
      "time": 20.727,
      "duration": 0.136,
      "velocity": 0.87,
      "hand": "left"
    },
    {
      "midi": 42,
      "time": 20.727,
      "duration": 0.068,
      "velocity": 0.71,
      "hand": "left"
    },
    {
      "midi": 65,
      "time": 20.727,
      "duration": 0.273,
      "velocity": 0.98,
      "hand": "right"
    },
    {
      "midi": 67,
      "time": 20.727,
      "duration": 0.136,
      "velocity": 0.56,
      "hand": "right"
    },
    {
      "midi": 69,
      "time": 20.727,
      "duration": 0.273,
      "velocity": 0.92,
      "hand": "right"
    },
    {
      "midi": 64,
      "time": 21.272,
      "duration": 0.136,
      "velocity": 0.72,
      "hand": "right"
    },
    {
      "midi": 65,
      "time": 21.545,
      "duration": 0.136,
      "velocity": 0.57,
      "hand": "right"
    },
    {
      "midi": 38,
      "time": 21.818,
      "duration": 0.068,
      "velocity": 0.55,
      "hand": "left"
    },
    {
      "midi": 65,
      "time": 21.818,
      "duration": 0.258,
      "velocity": 1,
      "hand": "right"
    },
    {
      "midi": 68,
      "time": 21.818,
      "duration": 0.136,
      "velocity": 0.94,
      "hand": "right"
    },
    {
      "midi": 71,
      "time": 21.818,
      "duration": 0.136,
      "velocity": 0.98,
      "hand": "right"
    },
    {
      "midi": 65,
      "time": 22.091,
      "duration": 0.136,
      "velocity": 0.53,
      "hand": "right"
    },
    {
      "midi": 64,
      "time": 22.363,
      "duration": 0.136,
      "velocity": 0.65,
      "hand": "right"
    },
    {
      "midi": 62,
      "time": 22.636,
      "duration": 0.136,
      "velocity": 0.55,
      "hand": "right"
    },
    {
      "midi": 36,
      "time": 22.909,
      "duration": 0.53,
      "velocity": 0.95,
      "hand": "left"
    },
    {
      "midi": 38,
      "time": 22.909,
      "duration": 0.068,
      "velocity": 0.55,
      "hand": "left"
    },
    {
      "midi": 64,
      "time": 22.909,
      "duration": 0.273,
      "velocity": 0.93,
      "hand": "right"
    },
    {
      "midi": 67,
      "time": 22.909,
      "duration": 0.53,
      "velocity": 0.94,
      "hand": "right"
    },
    {
      "midi": 69,
      "time": 22.909,
      "duration": 0.273,
      "velocity": 0.94,
      "hand": "right"
    },
    {
      "midi": 72,
      "time": 22.909,
      "duration": 0.273,
      "velocity": 0.96,
      "hand": "right"
    },
    {
      "midi": 36,
      "time": 23.454,
      "duration": 0.136,
      "velocity": 0.95,
      "hand": "left"
    },
    {
      "midi": 38,
      "time": 23.454,
      "duration": 0.068,
      "velocity": 0.55,
      "hand": "left"
    },
    {
      "midi": 67,
      "time": 23.454,
      "duration": 0.803,
      "velocity": 0.57,
      "hand": "right"
    },
    {
      "midi": 72,
      "time": 23.454,
      "duration": 0.531,
      "velocity": 0.74,
      "hand": "right"
    },
    {
      "midi": 74,
      "time": 23.454,
      "duration": 1.091,
      "velocity": 0.72,
      "hand": "right"
    },
    {
      "midi": 79,
      "time": 23.454,
      "duration": 1.091,
      "velocity": 0.9,
      "hand": "right"
    },
    {
      "midi": 36,
      "time": 24,
      "duration": 0.136,
      "velocity": 0.95,
      "hand": "left"
    },
    {
      "midi": 38,
      "time": 24,
      "duration": 0.068,
      "velocity": 0.55,
      "hand": "left"
    },
    {
      "midi": 60,
      "time": 24,
      "duration": 0.409,
      "velocity": 0.72,
      "hand": "right"
    },
    {
      "midi": 72,
      "time": 24,
      "duration": 0.545,
      "velocity": 0.78,
      "hand": "right"
    },
    {
      "midi": 36,
      "time": 24.272,
      "duration": 0.068,
      "velocity": 0.67,
      "hand": "left"
    },
    {
      "midi": 38,
      "time": 24.272,
      "duration": 0.068,
      "velocity": 0.55,
      "hand": "left"
    },
    {
      "midi": 71,
      "time": 24.272,
      "duration": 0.136,
      "velocity": 0.68,
      "hand": "right"
    },
    {
      "midi": 77,
      "time": 24.272,
      "duration": 0.136,
      "velocity": 0.76,
      "hand": "right"
    },
    {
      "midi": 82,
      "time": 24.272,
      "duration": 0.136,
      "velocity": 0.72,
      "hand": "right"
    },
    {
      "midi": 36,
      "time": 24.545,
      "duration": 0.068,
      "velocity": 0.67,
      "hand": "left"
    },
    {
      "midi": 38,
      "time": 24.545,
      "duration": 0.068,
      "velocity": 0.55,
      "hand": "left"
    },
    {
      "midi": 43,
      "time": 24.818,
      "duration": 0.273,
      "velocity": 0.95,
      "hand": "left"
    },
    {
      "midi": 53,
      "time": 24.818,
      "duration": 0.136,
      "velocity": 0.74,
      "hand": "left"
    },
    {
      "midi": 71,
      "time": 24.818,
      "duration": 0.273,
      "velocity": 0.56,
      "hand": "right"
    },
    {
      "midi": 77,
      "time": 24.818,
      "duration": 0.136,
      "velocity": 0.72,
      "hand": "right"
    },
    {
      "midi": 82,
      "time": 24.818,
      "duration": 0.136,
      "velocity": 0.57,
      "hand": "right"
    },
    {
      "midi": 67,
      "time": 25.091,
      "duration": 0.257,
      "velocity": 0.9,
      "hand": "right"
    },
    {
      "midi": 36,
      "time": 25.363,
      "duration": 0.068,
      "velocity": 0.67,
      "hand": "left"
    },
    {
      "midi": 38,
      "time": 25.363,
      "duration": 0.068,
      "velocity": 0.55,
      "hand": "left"
    },
    {
      "midi": 71,
      "time": 25.363,
      "duration": 0.136,
      "velocity": 0.68,
      "hand": "right"
    },
    {
      "midi": 77,
      "time": 25.363,
      "duration": 0.136,
      "velocity": 0.76,
      "hand": "right"
    },
    {
      "midi": 82,
      "time": 25.363,
      "duration": 0.136,
      "velocity": 0.68,
      "hand": "right"
    },
    {
      "midi": 36,
      "time": 25.636,
      "duration": 0.068,
      "velocity": 0.57,
      "hand": "left"
    },
    {
      "midi": 41,
      "time": 25.636,
      "duration": 0.068,
      "velocity": 0.75,
      "hand": "left"
    },
    {
      "midi": 36,
      "time": 25.909,
      "duration": 0.068,
      "velocity": 0.67,
      "hand": "left"
    },
    {
      "midi": 38,
      "time": 25.909,
      "duration": 0.068,
      "velocity": 0.55,
      "hand": "left"
    },
    {
      "midi": 71,
      "time": 25.909,
      "duration": 0.136,
      "velocity": 0.69,
      "hand": "right"
    },
    {
      "midi": 77,
      "time": 25.909,
      "duration": 0.136,
      "velocity": 0.76,
      "hand": "right"
    },
    {
      "midi": 82,
      "time": 25.909,
      "duration": 0.136,
      "velocity": 0.68,
      "hand": "right"
    },
    {
      "midi": 55,
      "time": 26.182,
      "duration": 0.273,
      "velocity": 0.85,
      "hand": "left"
    },
    {
      "midi": 57,
      "time": 26.182,
      "duration": 0.53,
      "velocity": 0.83,
      "hand": "left"
    },
    {
      "midi": 62,
      "time": 26.182,
      "duration": 0.257,
      "velocity": 0.94,
      "hand": "right"
    },
    {
      "midi": 64,
      "time": 26.182,
      "duration": 0.273,
      "velocity": 0.74,
      "hand": "right"
    },
    {
      "midi": 67,
      "time": 26.182,
      "duration": 0.257,
      "velocity": 0.93,
      "hand": "right"
    },
    {
      "midi": 36,
      "time": 26.454,
      "duration": 0.068,
      "velocity": 0.67,
      "hand": "left"
    },
    {
      "midi": 38,
      "time": 26.454,
      "duration": 0.068,
      "velocity": 0.55,
      "hand": "left"
    },
    {
      "midi": 71,
      "time": 26.454,
      "duration": 0.273,
      "velocity": 0.79,
      "hand": "right"
    },
    {
      "midi": 77,
      "time": 26.454,
      "duration": 0.273,
      "velocity": 0.79,
      "hand": "right"
    },
    {
      "midi": 82,
      "time": 26.454,
      "duration": 0.273,
      "velocity": 0.79,
      "hand": "right"
    },
    {
      "midi": 36,
      "time": 26.727,
      "duration": 0.068,
      "velocity": 0.67,
      "hand": "left"
    },
    {
      "midi": 38,
      "time": 26.727,
      "duration": 0.068,
      "velocity": 0.55,
      "hand": "left"
    },
    {
      "midi": 64,
      "time": 26.727,
      "duration": 0.273,
      "velocity": 0.9,
      "hand": "right"
    },
    {
      "midi": 47,
      "time": 27,
      "duration": 0.136,
      "velocity": 0.89,
      "hand": "left"
    },
    {
      "midi": 53,
      "time": 27,
      "duration": 0.136,
      "velocity": 0.74,
      "hand": "left"
    },
    {
      "midi": 62,
      "time": 27,
      "duration": 0.136,
      "velocity": 0.64,
      "hand": "right"
    },
    {
      "midi": 65,
      "time": 27,
      "duration": 0.136,
      "velocity": 0.74,
      "hand": "right"
    },
    {
      "midi": 38,
      "time": 27.272,
      "duration": 0.068,
      "velocity": 0.55,
      "hand": "left"
    },
    {
      "midi": 40,
      "time": 27.272,
      "duration": 0.258,
      "velocity": 0.95,
      "hand": "left"
    },
    {
      "midi": 62,
      "time": 27.272,
      "duration": 0.395,
      "velocity": 0.83,
      "hand": "right"
    },
    {
      "midi": 67,
      "time": 27.272,
      "duration": 0.409,
      "velocity": 0.81,
      "hand": "right"
    },
    {
      "midi": 69,
      "time": 27.272,
      "duration": 0.395,
      "velocity": 0.85,
      "hand": "right"
    },
    {
      "midi": 38,
      "time": 27.545,
      "duration": 0.068,
      "velocity": 0.55,
      "hand": "left"
    },
    {
      "midi": 40,
      "time": 27.545,
      "duration": 0.068,
      "velocity": 0.69,
      "hand": "left"
    },
    {
      "midi": 55,
      "time": 27.682,
      "duration": 0.068,
      "velocity": 0.55,
      "hand": "left"
    },
    {
      "midi": 59,
      "time": 27.682,
      "duration": 0.068,
      "velocity": 0.63,
      "hand": "left"
    },
    {
      "midi": 62,
      "time": 27.682,
      "duration": 0.068,
      "velocity": 0.73,
      "hand": "right"
    },
    {
      "midi": 66,
      "time": 27.682,
      "duration": 0.068,
      "velocity": 0.73,
      "hand": "right"
    },
    {
      "midi": 69,
      "time": 27.682,
      "duration": 0.068,
      "velocity": 0.56,
      "hand": "right"
    },
    {
      "midi": 36,
      "time": 27.818,
      "duration": 0.068,
      "velocity": 0.8,
      "hand": "left"
    },
    {
      "midi": 38,
      "time": 27.818,
      "duration": 0.068,
      "velocity": 0.55,
      "hand": "left"
    },
    {
      "midi": 62,
      "time": 27.818,
      "duration": 0.068,
      "velocity": 0.53,
      "hand": "right"
    },
    {
      "midi": 67,
      "time": 27.818,
      "duration": 0.121,
      "velocity": 0.79,
      "hand": "right"
    },
    {
      "midi": 38,
      "time": 27.954,
      "duration": 0.068,
      "velocity": 0.55,
      "hand": "left"
    },
    {
      "midi": 40,
      "time": 27.954,
      "duration": 0.068,
      "velocity": 0.62,
      "hand": "left"
    },
    {
      "midi": 67,
      "time": 27.954,
      "duration": 0.136,
      "velocity": 0.57,
      "hand": "right"
    },
    {
      "midi": 38,
      "time": 28.091,
      "duration": 0.068,
      "velocity": 0.55,
      "hand": "left"
    },
    {
      "midi": 45,
      "time": 28.091,
      "duration": 0.136,
      "velocity": 0.68,
      "hand": "left"
    },
    {
      "midi": 62,
      "time": 28.091,
      "duration": 0.068,
      "velocity": 0.64,
      "hand": "right"
    },
    {
      "midi": 66,
      "time": 28.091,
      "duration": 0.068,
      "velocity": 0.52,
      "hand": "right"
    },
    {
      "midi": 69,
      "time": 28.091,
      "duration": 0.136,
      "velocity": 0.68,
      "hand": "right"
    },
    {
      "midi": 71,
      "time": 28.091,
      "duration": 0.136,
      "velocity": 0.73,
      "hand": "right"
    },
    {
      "midi": 38,
      "time": 28.227,
      "duration": 0.068,
      "velocity": 0.55,
      "hand": "left"
    },
    {
      "midi": 48,
      "time": 28.227,
      "duration": 0.136,
      "velocity": 0.53,
      "hand": "left"
    },
    {
      "midi": 60,
      "time": 28.227,
      "duration": 0.136,
      "velocity": 0.53,
      "hand": "right"
    },
    {
      "midi": 62,
      "time": 28.227,
      "duration": 0.121,
      "velocity": 0.72,
      "hand": "right"
    },
    {
      "midi": 72,
      "time": 28.227,
      "duration": 0.136,
      "velocity": 0.53,
      "hand": "right"
    },
    {
      "midi": 38,
      "time": 28.363,
      "duration": 0.068,
      "velocity": 0.55,
      "hand": "left"
    },
    {
      "midi": 40,
      "time": 28.363,
      "duration": 0.394,
      "velocity": 0.91,
      "hand": "left"
    },
    {
      "midi": 67,
      "time": 28.363,
      "duration": 0.409,
      "velocity": 0.83,
      "hand": "right"
    },
    {
      "midi": 69,
      "time": 28.363,
      "duration": 0.531,
      "velocity": 0.87,
      "hand": "right"
    },
    {
      "midi": 74,
      "time": 28.363,
      "duration": 0.273,
      "velocity": 0.54,
      "hand": "right"
    },
    {
      "midi": 46,
      "time": 28.636,
      "duration": 0.068,
      "velocity": 0.64,
      "hand": "left"
    },
    {
      "midi": 48,
      "time": 28.636,
      "duration": 0.273,
      "velocity": 0.76,
      "hand": "left"
    },
    {
      "midi": 63,
      "time": 28.636,
      "duration": 0.068,
      "velocity": 0.43,
      "hand": "right"
    },
    {
      "midi": 66,
      "time": 28.636,
      "duration": 0.258,
      "velocity": 1,
      "hand": "right"
    },
    {
      "midi": 72,
      "time": 28.636,
      "duration": 0.273,
      "velocity": 0.76,
      "hand": "right"
    },
    {
      "midi": 38,
      "time": 28.772,
      "duration": 0.068,
      "velocity": 0.55,
      "hand": "left"
    },
    {
      "midi": 40,
      "time": 28.772,
      "duration": 0.068,
      "velocity": 0.73,
      "hand": "left"
    },
    {
      "midi": 36,
      "time": 28.909,
      "duration": 0.068,
      "velocity": 0.8,
      "hand": "left"
    },
    {
      "midi": 38,
      "time": 28.909,
      "duration": 0.068,
      "velocity": 0.55,
      "hand": "left"
    },
    {
      "midi": 62,
      "time": 28.909,
      "duration": 0.273,
      "velocity": 0.57,
      "hand": "right"
    },
    {
      "midi": 66,
      "time": 28.909,
      "duration": 0.273,
      "velocity": 0.52,
      "hand": "right"
    },
    {
      "midi": 69,
      "time": 28.909,
      "duration": 0.258,
      "velocity": 0.69,
      "hand": "right"
    },
    {
      "midi": 71,
      "time": 28.909,
      "duration": 0.273,
      "velocity": 0.69,
      "hand": "right"
    },
    {
      "midi": 38,
      "time": 29.182,
      "duration": 0.068,
      "velocity": 0.55,
      "hand": "left"
    },
    {
      "midi": 40,
      "time": 29.182,
      "duration": 0.273,
      "velocity": 0.95,
      "hand": "left"
    },
    {
      "midi": 67,
      "time": 29.182,
      "duration": 0.257,
      "velocity": 0.68,
      "hand": "right"
    },
    {
      "midi": 69,
      "time": 29.182,
      "duration": 0.273,
      "velocity": 0.69,
      "hand": "right"
    },
    {
      "midi": 38,
      "time": 29.454,
      "duration": 0.258,
      "velocity": 0.84,
      "hand": "left"
    },
    {
      "midi": 42,
      "time": 29.454,
      "duration": 0.068,
      "velocity": 0.71,
      "hand": "left"
    },
    {
      "midi": 65,
      "time": 29.454,
      "duration": 0.531,
      "velocity": 0.75,
      "hand": "right"
    },
    {
      "midi": 67,
      "time": 29.454,
      "duration": 0.531,
      "velocity": 0.91,
      "hand": "right"
    },
    {
      "midi": 72,
      "time": 29.454,
      "duration": 0.545,
      "velocity": 0.72,
      "hand": "right"
    },
    {
      "midi": 38,
      "time": 29.727,
      "duration": 0.068,
      "velocity": 0.55,
      "hand": "left"
    },
    {
      "midi": 40,
      "time": 29.727,
      "duration": 0.068,
      "velocity": 0.65,
      "hand": "left"
    },
    {
      "midi": 53,
      "time": 29.863,
      "duration": 0.068,
      "velocity": 0.57,
      "hand": "left"
    },
    {
      "midi": 57,
      "time": 29.863,
      "duration": 0.068,
      "velocity": 0.49,
      "hand": "left"
    },
    {
      "midi": 60,
      "time": 29.863,
      "duration": 0.068,
      "velocity": 0.68,
      "hand": "right"
    },
    {
      "midi": 64,
      "time": 29.863,
      "duration": 0.068,
      "velocity": 0.54,
      "hand": "right"
    },
    {
      "midi": 36,
      "time": 30,
      "duration": 0.068,
      "velocity": 0.8,
      "hand": "left"
    },
    {
      "midi": 38,
      "time": 30,
      "duration": 0.068,
      "velocity": 0.55,
      "hand": "left"
    },
    {
      "midi": 60,
      "time": 30,
      "duration": 0.257,
      "velocity": 0.83,
      "hand": "right"
    },
    {
      "midi": 65,
      "time": 30,
      "duration": 0.409,
      "velocity": 0.86,
      "hand": "right"
    },
    {
      "midi": 67,
      "time": 30,
      "duration": 0.273,
      "velocity": 0.77,
      "hand": "right"
    },
    {
      "midi": 38,
      "time": 30.136,
      "duration": 0.068,
      "velocity": 0.55,
      "hand": "left"
    },
    {
      "midi": 40,
      "time": 30.136,
      "duration": 0.068,
      "velocity": 0.76,
      "hand": "left"
    },
    {
      "midi": 38,
      "time": 30.272,
      "duration": 0.068,
      "velocity": 0.55,
      "hand": "left"
    },
    {
      "midi": 46,
      "time": 30.272,
      "duration": 0.068,
      "velocity": 0.64,
      "hand": "left"
    },
    {
      "midi": 60,
      "time": 30.272,
      "duration": 0.136,
      "velocity": 0.68,
      "hand": "right"
    },
    {
      "midi": 64,
      "time": 30.272,
      "duration": 0.136,
      "velocity": 0.57,
      "hand": "right"
    },
    {
      "midi": 38,
      "time": 30.409,
      "duration": 0.068,
      "velocity": 0.55,
      "hand": "left"
    },
    {
      "midi": 38,
      "time": 30.545,
      "duration": 0.394,
      "velocity": 0.94,
      "hand": "left"
    },
    {
      "midi": 40,
      "time": 30.545,
      "duration": 0.068,
      "velocity": 0.71,
      "hand": "left"
    },
    {
      "midi": 62,
      "time": 30.545,
      "duration": 0.531,
      "velocity": 0.89,
      "hand": "right"
    },
    {
      "midi": 65,
      "time": 30.545,
      "duration": 0.409,
      "velocity": 0.81,
      "hand": "right"
    },
    {
      "midi": 69,
      "time": 30.545,
      "duration": 0.531,
      "velocity": 1,
      "hand": "right"
    },
    {
      "midi": 46,
      "time": 30.818,
      "duration": 0.068,
      "velocity": 0.64,
      "hand": "left"
    },
    {
      "midi": 54,
      "time": 30.818,
      "duration": 0.068,
      "velocity": 0.61,
      "hand": "left"
    },
    {
      "midi": 38,
      "time": 30.954,
      "duration": 0.068,
      "velocity": 0.55,
      "hand": "left"
    },
    {
      "midi": 40,
      "time": 30.954,
      "duration": 0.068,
      "velocity": 0.67,
      "hand": "left"
    },
    {
      "midi": 61,
      "time": 30.954,
      "duration": 0.068,
      "velocity": 0.4,
      "hand": "right"
    },
    {
      "midi": 63,
      "time": 30.954,
      "duration": 0.273,
      "velocity": 0.56,
      "hand": "right"
    },
    {
      "midi": 36,
      "time": 31.091,
      "duration": 0.068,
      "velocity": 0.76,
      "hand": "left"
    },
    {
      "midi": 38,
      "time": 31.091,
      "duration": 0.068,
      "velocity": 0.55,
      "hand": "left"
    },
    {
      "midi": 62,
      "time": 31.091,
      "duration": 0.121,
      "velocity": 0.91,
      "hand": "right"
    },
    {
      "midi": 64,
      "time": 31.091,
      "duration": 0.409,
      "velocity": 0.93,
      "hand": "right"
    },
    {
      "midi": 67,
      "time": 31.091,
      "duration": 0.273,
      "velocity": 1,
      "hand": "right"
    },
    {
      "midi": 69,
      "time": 31.091,
      "duration": 0.273,
      "velocity": 0.87,
      "hand": "right"
    },
    {
      "midi": 53,
      "time": 31.227,
      "duration": 0.136,
      "velocity": 0.56,
      "hand": "left"
    },
    {
      "midi": 57,
      "time": 31.227,
      "duration": 0.136,
      "velocity": 0.53,
      "hand": "left"
    },
    {
      "midi": 62,
      "time": 31.227,
      "duration": 0.136,
      "velocity": 0.56,
      "hand": "right"
    },
    {
      "midi": 38,
      "time": 31.363,
      "duration": 0.068,
      "velocity": 0.55,
      "hand": "left"
    },
    {
      "midi": 40,
      "time": 31.363,
      "duration": 0.068,
      "velocity": 0.64,
      "hand": "left"
    },
    {
      "midi": 65,
      "time": 31.363,
      "duration": 0.258,
      "velocity": 0.75,
      "hand": "right"
    },
    {
      "midi": 38,
      "time": 31.636,
      "duration": 0.068,
      "velocity": 0.55,
      "hand": "left"
    },
    {
      "midi": 42,
      "time": 31.636,
      "duration": 0.068,
      "velocity": 0.71,
      "hand": "left"
    },
    {
      "midi": 60,
      "time": 31.636,
      "duration": 0.394,
      "velocity": 1,
      "hand": "right"
    },
    {
      "midi": 65,
      "time": 31.636,
      "duration": 0.531,
      "velocity": 1,
      "hand": "right"
    },
    {
      "midi": 40,
      "time": 31.772,
      "duration": 0.068,
      "velocity": 0.69,
      "hand": "left"
    },
    {
      "midi": 38,
      "time": 31.909,
      "duration": 0.068,
      "velocity": 0.55,
      "hand": "left"
    },
    {
      "midi": 46,
      "time": 31.909,
      "duration": 0.068,
      "velocity": 0.64,
      "hand": "left"
    },
    {
      "midi": 53,
      "time": 32.045,
      "duration": 0.068,
      "velocity": 0.61,
      "hand": "left"
    },
    {
      "midi": 55,
      "time": 32.045,
      "duration": 0.068,
      "velocity": 0.72,
      "hand": "left"
    },
    {
      "midi": 60,
      "time": 32.045,
      "duration": 0.068,
      "velocity": 0.56,
      "hand": "right"
    },
    {
      "midi": 36,
      "time": 32.182,
      "duration": 0.068,
      "velocity": 0.76,
      "hand": "left"
    },
    {
      "midi": 38,
      "time": 32.182,
      "duration": 0.121,
      "velocity": 0.97,
      "hand": "left"
    },
    {
      "midi": 60,
      "time": 32.182,
      "duration": 0.257,
      "velocity": 0.91,
      "hand": "right"
    },
    {
      "midi": 65,
      "time": 32.182,
      "duration": 0.257,
      "velocity": 0.95,
      "hand": "right"
    },
    {
      "midi": 38,
      "time": 32.318,
      "duration": 0.068,
      "velocity": 0.55,
      "hand": "left"
    },
    {
      "midi": 55,
      "time": 32.318,
      "duration": 0.121,
      "velocity": 0.59,
      "hand": "left"
    },
    {
      "midi": 38,
      "time": 32.454,
      "duration": 0.068,
      "velocity": 0.55,
      "hand": "left"
    },
    {
      "midi": 43,
      "time": 32.454,
      "duration": 0.273,
      "velocity": 0.92,
      "hand": "left"
    },
    {
      "midi": 65,
      "time": 32.454,
      "duration": 0.136,
      "velocity": 0.54,
      "hand": "right"
    },
    {
      "midi": 67,
      "time": 32.454,
      "duration": 0.136,
      "velocity": 0.59,
      "hand": "right"
    },
    {
      "midi": 77,
      "time": 32.454,
      "duration": 0.136,
      "velocity": 0.54,
      "hand": "right"
    },
    {
      "midi": 79,
      "time": 32.454,
      "duration": 0.136,
      "velocity": 0.59,
      "hand": "right"
    },
    {
      "midi": 38,
      "time": 32.591,
      "duration": 0.068,
      "velocity": 0.55,
      "hand": "left"
    },
    {
      "midi": 52,
      "time": 32.591,
      "duration": 0.121,
      "velocity": 0.73,
      "hand": "left"
    },
    {
      "midi": 64,
      "time": 32.591,
      "duration": 0.121,
      "velocity": 0.73,
      "hand": "right"
    },
    {
      "midi": 76,
      "time": 32.591,
      "duration": 0.136,
      "velocity": 0.73,
      "hand": "right"
    },
    {
      "midi": 38,
      "time": 32.727,
      "duration": 0.273,
      "velocity": 1,
      "hand": "left"
    },
    {
      "midi": 42,
      "time": 32.727,
      "duration": 0.068,
      "velocity": 0.71,
      "hand": "left"
    },
    {
      "midi": 60,
      "time": 32.727,
      "duration": 0.53,
      "velocity": 0.9,
      "hand": "right"
    },
    {
      "midi": 62,
      "time": 32.727,
      "duration": 0.136,
      "velocity": 0.78,
      "hand": "right"
    },
    {
      "midi": 64,
      "time": 32.727,
      "duration": 0.121,
      "velocity": 1,
      "hand": "right"
    },
    {
      "midi": 74,
      "time": 32.727,
      "duration": 0.136,
      "velocity": 0.78,
      "hand": "right"
    },
    {
      "midi": 52,
      "time": 32.863,
      "duration": 0.273,
      "velocity": 0.74,
      "hand": "left"
    },
    {
      "midi": 64,
      "time": 32.863,
      "duration": 0.273,
      "velocity": 0.74,
      "hand": "right"
    },
    {
      "midi": 76,
      "time": 32.863,
      "duration": 0.273,
      "velocity": 0.74,
      "hand": "right"
    },
    {
      "midi": 42,
      "time": 33,
      "duration": 0.257,
      "velocity": 0.95,
      "hand": "left"
    },
    {
      "midi": 46,
      "time": 33,
      "duration": 0.068,
      "velocity": 0.64,
      "hand": "left"
    },
    {
      "midi": 38,
      "time": 33.136,
      "duration": 0.068,
      "velocity": 0.55,
      "hand": "left"
    },
    {
      "midi": 40,
      "time": 33.136,
      "duration": 0.068,
      "velocity": 0.64,
      "hand": "left"
    },
    {
      "midi": 36,
      "time": 33.272,
      "duration": 0.068,
      "velocity": 0.8,
      "hand": "left"
    },
    {
      "midi": 38,
      "time": 33.272,
      "duration": 0.258,
      "velocity": 0.87,
      "hand": "left"
    },
    {
      "midi": 60,
      "time": 33.272,
      "duration": 0.122,
      "velocity": 0.58,
      "hand": "right"
    },
    {
      "midi": 62,
      "time": 33.272,
      "duration": 0.273,
      "velocity": 0.75,
      "hand": "right"
    },
    {
      "midi": 74,
      "time": 33.272,
      "duration": 0.273,
      "velocity": 0.75,
      "hand": "right"
    },
    {
      "midi": 48,
      "time": 33.409,
      "duration": 0.136,
      "velocity": 0.76,
      "hand": "left"
    },
    {
      "midi": 60,
      "time": 33.409,
      "duration": 0.121,
      "velocity": 0.76,
      "hand": "right"
    },
    {
      "midi": 72,
      "time": 33.409,
      "duration": 0.136,
      "velocity": 0.76,
      "hand": "right"
    },
    {
      "midi": 38,
      "time": 33.545,
      "duration": 0.068,
      "velocity": 0.55,
      "hand": "left"
    },
    {
      "midi": 40,
      "time": 33.545,
      "duration": 0.068,
      "velocity": 0.64,
      "hand": "left"
    },
    {
      "midi": 60,
      "time": 33.545,
      "duration": 0.122,
      "velocity": 0.86,
      "hand": "right"
    },
    {
      "midi": 57,
      "time": 33.682,
      "duration": 0.121,
      "velocity": 0.81,
      "hand": "left"
    },
    {
      "midi": 60,
      "time": 33.682,
      "duration": 0.121,
      "velocity": 0.57,
      "hand": "right"
    },
    {
      "midi": 38,
      "time": 33.818,
      "duration": 0.068,
      "velocity": 0.55,
      "hand": "left"
    },
    {
      "midi": 41,
      "time": 33.818,
      "duration": 0.53,
      "velocity": 0.8,
      "hand": "left"
    },
    {
      "midi": 65,
      "time": 33.818,
      "duration": 0.955,
      "velocity": 0.65,
      "hand": "right"
    },
    {
      "midi": 67,
      "time": 33.818,
      "duration": 0.818,
      "velocity": 0.95,
      "hand": "right"
    },
    {
      "midi": 69,
      "time": 33.818,
      "duration": 0.258,
      "velocity": 0.87,
      "hand": "right"
    },
    {
      "midi": 38,
      "time": 34.091,
      "duration": 0.068,
      "velocity": 0.55,
      "hand": "left"
    },
    {
      "midi": 40,
      "time": 34.091,
      "duration": 0.068,
      "velocity": 0.65,
      "hand": "left"
    },
    {
      "midi": 64,
      "time": 34.091,
      "duration": 0.121,
      "velocity": 1,
      "hand": "right"
    },
    {
      "midi": 69,
      "time": 34.091,
      "duration": 0.257,
      "velocity": 0.81,
      "hand": "right"
    },
    {
      "midi": 53,
      "time": 34.227,
      "duration": 0.068,
      "velocity": 0.56,
      "hand": "left"
    },
    {
      "midi": 57,
      "time": 34.227,
      "duration": 0.068,
      "velocity": 0.61,
      "hand": "left"
    },
    {
      "midi": 60,
      "time": 34.227,
      "duration": 0.068,
      "velocity": 0.63,
      "hand": "right"
    },
    {
      "midi": 64,
      "time": 34.227,
      "duration": 0.068,
      "velocity": 0.52,
      "hand": "right"
    },
    {
      "midi": 36,
      "time": 34.363,
      "duration": 0.068,
      "velocity": 0.76,
      "hand": "left"
    },
    {
      "midi": 38,
      "time": 34.363,
      "duration": 0.068,
      "velocity": 0.55,
      "hand": "left"
    },
    {
      "midi": 60,
      "time": 34.363,
      "duration": 0.258,
      "velocity": 0.91,
      "hand": "right"
    },
    {
      "midi": 64,
      "time": 34.363,
      "duration": 0.258,
      "velocity": 0.52,
      "hand": "right"
    },
    {
      "midi": 69,
      "time": 34.363,
      "duration": 0.409,
      "velocity": 0.87,
      "hand": "right"
    },
    {
      "midi": 72,
      "time": 34.363,
      "duration": 0.136,
      "velocity": 0.91,
      "hand": "right"
    },
    {
      "midi": 38,
      "time": 34.5,
      "duration": 0.068,
      "velocity": 0.55,
      "hand": "left"
    },
    {
      "midi": 40,
      "time": 34.5,
      "duration": 0.068,
      "velocity": 0.72,
      "hand": "left"
    },
    {
      "midi": 36,
      "time": 34.636,
      "duration": 0.273,
      "velocity": 0.8,
      "hand": "left"
    },
    {
      "midi": 38,
      "time": 34.636,
      "duration": 0.068,
      "velocity": 0.55,
      "hand": "left"
    },
    {
      "midi": 60,
      "time": 34.636,
      "duration": 0.136,
      "velocity": 0.61,
      "hand": "right"
    },
    {
      "midi": 64,
      "time": 34.636,
      "duration": 0.273,
      "velocity": 0.76,
      "hand": "right"
    },
    {
      "midi": 76,
      "time": 34.636,
      "duration": 0.273,
      "velocity": 0.76,
      "hand": "right"
    },
    {
      "midi": 38,
      "time": 34.772,
      "duration": 0.068,
      "velocity": 0.55,
      "hand": "left"
    },
    {
      "midi": 38,
      "time": 34.909,
      "duration": 0.068,
      "velocity": 0.55,
      "hand": "left"
    },
    {
      "midi": 40,
      "time": 34.909,
      "duration": 0.068,
      "velocity": 0.64,
      "hand": "left"
    },
    {
      "midi": 65,
      "time": 34.909,
      "duration": 0.818,
      "velocity": 0.51,
      "hand": "right"
    },
    {
      "midi": 67,
      "time": 34.909,
      "duration": 0.818,
      "velocity": 0.84,
      "hand": "right"
    },
    {
      "midi": 69,
      "time": 34.909,
      "duration": 0.409,
      "velocity": 0.88,
      "hand": "right"
    },
    {
      "midi": 77,
      "time": 34.909,
      "duration": 0.682,
      "velocity": 0.74,
      "hand": "right"
    },
    {
      "midi": 46,
      "time": 35.182,
      "duration": 0.068,
      "velocity": 0.64,
      "hand": "left"
    },
    {
      "midi": 53,
      "time": 35.182,
      "duration": 0.068,
      "velocity": 0.56,
      "hand": "left"
    },
    {
      "midi": 60,
      "time": 35.182,
      "duration": 0.068,
      "velocity": 0.56,
      "hand": "right"
    },
    {
      "midi": 63,
      "time": 35.182,
      "duration": 0.136,
      "velocity": 0.54,
      "hand": "right"
    },
    {
      "midi": 38,
      "time": 35.318,
      "duration": 0.068,
      "velocity": 0.55,
      "hand": "left"
    },
    {
      "midi": 40,
      "time": 35.318,
      "duration": 0.068,
      "velocity": 0.62,
      "hand": "left"
    },
    {
      "midi": 36,
      "time": 35.454,
      "duration": 0.068,
      "velocity": 0.8,
      "hand": "left"
    },
    {
      "midi": 38,
      "time": 35.454,
      "duration": 0.068,
      "velocity": 0.55,
      "hand": "left"
    },
    {
      "midi": 60,
      "time": 35.454,
      "duration": 0.273,
      "velocity": 0.74,
      "hand": "right"
    },
    {
      "midi": 63,
      "time": 35.454,
      "duration": 0.273,
      "velocity": 0.61,
      "hand": "right"
    },
    {
      "midi": 71,
      "time": 35.454,
      "duration": 0.273,
      "velocity": 0.72,
      "hand": "right"
    },
    {
      "midi": 52,
      "time": 35.591,
      "duration": 0.136,
      "velocity": 0.58,
      "hand": "left"
    },
    {
      "midi": 64,
      "time": 35.591,
      "duration": 0.136,
      "velocity": 0.58,
      "hand": "right"
    },
    {
      "midi": 76,
      "time": 35.591,
      "duration": 0.136,
      "velocity": 0.58,
      "hand": "right"
    },
    {
      "midi": 38,
      "time": 35.727,
      "duration": 0.068,
      "velocity": 0.55,
      "hand": "left"
    },
    {
      "midi": 40,
      "time": 35.727,
      "duration": 0.068,
      "velocity": 0.63,
      "hand": "left"
    },
    {
      "midi": 62,
      "time": 35.727,
      "duration": 0.136,
      "velocity": 0.65,
      "hand": "right"
    },
    {
      "midi": 69,
      "time": 35.727,
      "duration": 0.258,
      "velocity": 0.71,
      "hand": "right"
    },
    {
      "midi": 74,
      "time": 35.727,
      "duration": 0.136,
      "velocity": 0.65,
      "hand": "right"
    },
    {
      "midi": 48,
      "time": 35.863,
      "duration": 0.136,
      "velocity": 0.68,
      "hand": "left"
    },
    {
      "midi": 60,
      "time": 35.863,
      "duration": 0.136,
      "velocity": 0.68,
      "hand": "right"
    },
    {
      "midi": 72,
      "time": 35.863,
      "duration": 0.136,
      "velocity": 0.68,
      "hand": "right"
    },
    {
      "midi": 38,
      "time": 36,
      "duration": 0.068,
      "velocity": 0.55,
      "hand": "left"
    },
    {
      "midi": 40,
      "time": 36,
      "duration": 0.257,
      "velocity": 0.94,
      "hand": "left"
    },
    {
      "midi": 67,
      "time": 36,
      "duration": 0.53,
      "velocity": 0.92,
      "hand": "right"
    },
    {
      "midi": 69,
      "time": 36,
      "duration": 0.257,
      "velocity": 0.86,
      "hand": "right"
    },
    {
      "midi": 74,
      "time": 36,
      "duration": 0.682,
      "velocity": 0.73,
      "hand": "right"
    },
    {
      "midi": 38,
      "time": 36.272,
      "duration": 0.068,
      "velocity": 0.55,
      "hand": "left"
    },
    {
      "midi": 40,
      "time": 36.272,
      "duration": 0.068,
      "velocity": 0.71,
      "hand": "left"
    },
    {
      "midi": 62,
      "time": 36.272,
      "duration": 0.068,
      "velocity": 0.72,
      "hand": "right"
    },
    {
      "midi": 66,
      "time": 36.272,
      "duration": 0.068,
      "velocity": 0.61,
      "hand": "right"
    },
    {
      "midi": 69,
      "time": 36.272,
      "duration": 0.068,
      "velocity": 0.53,
      "hand": "right"
    },
    {
      "midi": 55,
      "time": 36.409,
      "duration": 0.068,
      "velocity": 0.63,
      "hand": "left"
    },
    {
      "midi": 59,
      "time": 36.409,
      "duration": 0.068,
      "velocity": 0.65,
      "hand": "left"
    },
    {
      "midi": 62,
      "time": 36.409,
      "duration": 0.068,
      "velocity": 0.63,
      "hand": "right"
    },
    {
      "midi": 66,
      "time": 36.409,
      "duration": 0.068,
      "velocity": 0.52,
      "hand": "right"
    },
    {
      "midi": 36,
      "time": 36.545,
      "duration": 0.068,
      "velocity": 0.76,
      "hand": "left"
    },
    {
      "midi": 38,
      "time": 36.545,
      "duration": 0.068,
      "velocity": 0.55,
      "hand": "left"
    },
    {
      "midi": 62,
      "time": 36.545,
      "duration": 0.258,
      "velocity": 0.86,
      "hand": "right"
    },
    {
      "midi": 67,
      "time": 36.545,
      "duration": 0.409,
      "velocity": 0.8,
      "hand": "right"
    },
    {
      "midi": 69,
      "time": 36.545,
      "duration": 0.258,
      "velocity": 0.87,
      "hand": "right"
    },
    {
      "midi": 38,
      "time": 36.682,
      "duration": 0.068,
      "velocity": 0.55,
      "hand": "left"
    },
    {
      "midi": 40,
      "time": 36.682,
      "duration": 0.068,
      "velocity": 0.65,
      "hand": "left"
    },
    {
      "midi": 38,
      "time": 36.818,
      "duration": 0.068,
      "velocity": 0.55,
      "hand": "left"
    },
    {
      "midi": 40,
      "time": 36.818,
      "duration": 0.258,
      "velocity": 0.83,
      "hand": "left"
    },
    {
      "midi": 62,
      "time": 36.818,
      "duration": 0.136,
      "velocity": 0.61,
      "hand": "right"
    },
    {
      "midi": 66,
      "time": 36.818,
      "duration": 0.136,
      "velocity": 0.54,
      "hand": "right"
    },
    {
      "midi": 69,
      "time": 36.818,
      "duration": 0.068,
      "velocity": 0.56,
      "hand": "right"
    },
    {
      "midi": 38,
      "time": 36.954,
      "duration": 0.068,
      "velocity": 0.55,
      "hand": "left"
    },
    {
      "midi": 39,
      "time": 37.091,
      "duration": 0.545,
      "velocity": 0.85,
      "hand": "left"
    },
    {
      "midi": 65,
      "time": 37.091,
      "duration": 0.257,
      "velocity": 0.59,
      "hand": "right"
    },
    {
      "midi": 68,
      "time": 37.091,
      "duration": 0.53,
      "velocity": 0.97,
      "hand": "right"
    },
    {
      "midi": 46,
      "time": 37.363,
      "duration": 0.068,
      "velocity": 0.64,
      "hand": "left"
    },
    {
      "midi": 54,
      "time": 37.363,
      "duration": 0.068,
      "velocity": 0.72,
      "hand": "left"
    },
    {
      "midi": 61,
      "time": 37.363,
      "duration": 0.068,
      "velocity": 0.63,
      "hand": "right"
    },
    {
      "midi": 65,
      "time": 37.363,
      "duration": 0.068,
      "velocity": 0.54,
      "hand": "right"
    },
    {
      "midi": 38,
      "time": 37.5,
      "duration": 0.068,
      "velocity": 0.55,
      "hand": "left"
    },
    {
      "midi": 40,
      "time": 37.5,
      "duration": 0.068,
      "velocity": 0.8,
      "hand": "left"
    },
    {
      "midi": 36,
      "time": 37.636,
      "duration": 0.068,
      "velocity": 0.61,
      "hand": "left"
    },
    {
      "midi": 38,
      "time": 37.636,
      "duration": 0.068,
      "velocity": 0.55,
      "hand": "left"
    },
    {
      "midi": 61,
      "time": 37.636,
      "duration": 0.258,
      "velocity": 0.83,
      "hand": "right"
    },
    {
      "midi": 65,
      "time": 37.636,
      "duration": 0.068,
      "velocity": 0.7,
      "hand": "right"
    },
    {
      "midi": 68,
      "time": 37.636,
      "duration": 0.409,
      "velocity": 0.59,
      "hand": "right"
    },
    {
      "midi": 52,
      "time": 37.772,
      "duration": 0.136,
      "velocity": 0.73,
      "hand": "left"
    },
    {
      "midi": 64,
      "time": 37.772,
      "duration": 0.136,
      "velocity": 0.73,
      "hand": "right"
    },
    {
      "midi": 76,
      "time": 37.772,
      "duration": 0.136,
      "velocity": 0.73,
      "hand": "right"
    },
    {
      "midi": 39,
      "time": 37.909,
      "duration": 0.273,
      "velocity": 0.76,
      "hand": "left"
    },
    {
      "midi": 62,
      "time": 37.909,
      "duration": 0.136,
      "velocity": 0.72,
      "hand": "right"
    },
    {
      "midi": 65,
      "time": 37.909,
      "duration": 0.258,
      "velocity": 0.84,
      "hand": "right"
    },
    {
      "midi": 74,
      "time": 37.909,
      "duration": 0.136,
      "velocity": 0.72,
      "hand": "right"
    },
    {
      "midi": 48,
      "time": 38.045,
      "duration": 0.136,
      "velocity": 0.57,
      "hand": "left"
    },
    {
      "midi": 60,
      "time": 38.045,
      "duration": 0.122,
      "velocity": 0.57,
      "hand": "right"
    },
    {
      "midi": 72,
      "time": 38.045,
      "duration": 0.136,
      "velocity": 0.57,
      "hand": "right"
    },
    {
      "midi": 38,
      "time": 38.182,
      "duration": 0.394,
      "velocity": 0.87,
      "hand": "left"
    },
    {
      "midi": 42,
      "time": 38.182,
      "duration": 0.068,
      "velocity": 0.71,
      "hand": "left"
    },
    {
      "midi": 65,
      "time": 38.182,
      "duration": 0.682,
      "velocity": 1,
      "hand": "right"
    },
    {
      "midi": 67,
      "time": 38.182,
      "duration": 0.53,
      "velocity": 0.82,
      "hand": "right"
    },
    {
      "midi": 69,
      "time": 38.182,
      "duration": 0.682,
      "velocity": 0.97,
      "hand": "right"
    },
    {
      "midi": 74,
      "time": 38.182,
      "duration": 0.545,
      "velocity": 0.83,
      "hand": "right"
    },
    {
      "midi": 46,
      "time": 38.454,
      "duration": 0.068,
      "velocity": 0.64,
      "hand": "left"
    },
    {
      "midi": 54,
      "time": 38.454,
      "duration": 0.068,
      "velocity": 0.61,
      "hand": "left"
    },
    {
      "midi": 38,
      "time": 38.591,
      "duration": 0.068,
      "velocity": 0.55,
      "hand": "left"
    },
    {
      "midi": 40,
      "time": 38.591,
      "duration": 0.068,
      "velocity": 0.64,
      "hand": "left"
    },
    {
      "midi": 60,
      "time": 38.591,
      "duration": 0.068,
      "velocity": 0.59,
      "hand": "right"
    },
    {
      "midi": 64,
      "time": 38.591,
      "duration": 0.068,
      "velocity": 0.56,
      "hand": "right"
    },
    {
      "midi": 36,
      "time": 38.727,
      "duration": 0.068,
      "velocity": 0.8,
      "hand": "left"
    },
    {
      "midi": 38,
      "time": 38.727,
      "duration": 0.068,
      "velocity": 0.55,
      "hand": "left"
    },
    {
      "midi": 60,
      "time": 38.727,
      "duration": 0.136,
      "velocity": 0.87,
      "hand": "right"
    },
    {
      "midi": 64,
      "time": 38.727,
      "duration": 0.258,
      "velocity": 0.73,
      "hand": "right"
    },
    {
      "midi": 67,
      "time": 38.727,
      "duration": 0.136,
      "velocity": 0.8,
      "hand": "right"
    },
    {
      "midi": 76,
      "time": 38.727,
      "duration": 0.273,
      "velocity": 0.73,
      "hand": "right"
    },
    {
      "midi": 38,
      "time": 39,
      "duration": 0.257,
      "velocity": 0.8,
      "hand": "left"
    },
    {
      "midi": 40,
      "time": 39,
      "duration": 0.068,
      "velocity": 0.64,
      "hand": "left"
    },
    {
      "midi": 65,
      "time": 39,
      "duration": 0.136,
      "velocity": 0.72,
      "hand": "right"
    },
    {
      "midi": 67,
      "time": 39,
      "duration": 0.068,
      "velocity": 0.55,
      "hand": "right"
    },
    {
      "midi": 74,
      "time": 39,
      "duration": 0.136,
      "velocity": 0.7,
      "hand": "right"
    },
    {
      "midi": 38,
      "time": 39.272,
      "duration": 0.068,
      "velocity": 0.55,
      "hand": "left"
    },
    {
      "midi": 65,
      "time": 39.272,
      "duration": 0.258,
      "velocity": 0.95,
      "hand": "right"
    },
    {
      "midi": 68,
      "time": 39.272,
      "duration": 0.122,
      "velocity": 0.87,
      "hand": "right"
    },
    {
      "midi": 71,
      "time": 39.272,
      "duration": 0.395,
      "velocity": 0.94,
      "hand": "right"
    },
    {
      "midi": 44,
      "time": 39.409,
      "duration": 0.136,
      "velocity": 0.59,
      "hand": "left"
    },
    {
      "midi": 56,
      "time": 39.409,
      "duration": 0.136,
      "velocity": 0.59,
      "hand": "left"
    },
    {
      "midi": 68,
      "time": 39.409,
      "duration": 0.136,
      "velocity": 0.59,
      "hand": "right"
    },
    {
      "midi": 38,
      "time": 39.545,
      "duration": 0.068,
      "velocity": 0.55,
      "hand": "left"
    },
    {
      "midi": 40,
      "time": 39.545,
      "duration": 0.068,
      "velocity": 0.65,
      "hand": "left"
    },
    {
      "midi": 65,
      "time": 39.545,
      "duration": 0.136,
      "velocity": 0.69,
      "hand": "right"
    },
    {
      "midi": 69,
      "time": 39.545,
      "duration": 0.136,
      "velocity": 0.64,
      "hand": "right"
    },
    {
      "midi": 47,
      "time": 39.682,
      "duration": 0.121,
      "velocity": 0.51,
      "hand": "left"
    },
    {
      "midi": 71,
      "time": 39.682,
      "duration": 0.136,
      "velocity": 0.51,
      "hand": "right"
    },
    {
      "midi": 36,
      "time": 39.818,
      "duration": 0.068,
      "velocity": 0.76,
      "hand": "left"
    },
    {
      "midi": 38,
      "time": 39.818,
      "duration": 0.068,
      "velocity": 0.55,
      "hand": "left"
    },
    {
      "midi": 64,
      "time": 39.818,
      "duration": 0.136,
      "velocity": 0.81,
      "hand": "right"
    },
    {
      "midi": 67,
      "time": 39.818,
      "duration": 0.136,
      "velocity": 0.59,
      "hand": "right"
    },
    {
      "midi": 38,
      "time": 39.954,
      "duration": 0.068,
      "velocity": 0.55,
      "hand": "left"
    },
    {
      "midi": 40,
      "time": 39.954,
      "duration": 0.068,
      "velocity": 0.72,
      "hand": "left"
    },
    {
      "midi": 60,
      "time": 39.954,
      "duration": 0.136,
      "velocity": 0.68,
      "hand": "right"
    },
    {
      "midi": 72,
      "time": 39.954,
      "duration": 0.136,
      "velocity": 0.68,
      "hand": "right"
    },
    {
      "midi": 38,
      "time": 40.091,
      "duration": 0.068,
      "velocity": 0.55,
      "hand": "left"
    },
    {
      "midi": 61,
      "time": 40.091,
      "duration": 0.136,
      "velocity": 0.59,
      "hand": "right"
    },
    {
      "midi": 63,
      "time": 40.091,
      "duration": 0.068,
      "velocity": 0.4,
      "hand": "right"
    },
    {
      "midi": 73,
      "time": 40.091,
      "duration": 0.136,
      "velocity": 0.59,
      "hand": "right"
    },
    {
      "midi": 38,
      "time": 40.227,
      "duration": 0.068,
      "velocity": 0.55,
      "hand": "left"
    },
    {
      "midi": 50,
      "time": 40.227,
      "duration": 0.136,
      "velocity": 0.53,
      "hand": "left"
    },
    {
      "midi": 62,
      "time": 40.227,
      "duration": 0.121,
      "velocity": 0.53,
      "hand": "right"
    },
    {
      "midi": 74,
      "time": 40.227,
      "duration": 0.136,
      "velocity": 0.53,
      "hand": "right"
    },
    {
      "midi": 36,
      "time": 40.363,
      "duration": 0.531,
      "velocity": 0.95,
      "hand": "left"
    },
    {
      "midi": 38,
      "time": 40.363,
      "duration": 0.068,
      "velocity": 0.55,
      "hand": "left"
    },
    {
      "midi": 67,
      "time": 40.363,
      "duration": 0.531,
      "velocity": 0.94,
      "hand": "right"
    },
    {
      "midi": 69,
      "time": 40.363,
      "duration": 1.909,
      "velocity": 0.94,
      "hand": "right"
    },
    {
      "midi": 72,
      "time": 40.363,
      "duration": 1.909,
      "velocity": 0.93,
      "hand": "right"
    },
    {
      "midi": 76,
      "time": 40.363,
      "duration": 0.682,
      "velocity": 0.68,
      "hand": "right"
    },
    {
      "midi": 46,
      "time": 40.636,
      "duration": 0.068,
      "velocity": 0.64,
      "hand": "left"
    },
    {
      "midi": 54,
      "time": 40.636,
      "duration": 0.068,
      "velocity": 0.54,
      "hand": "left"
    },
    {
      "midi": 38,
      "time": 40.772,
      "duration": 0.068,
      "velocity": 0.55,
      "hand": "left"
    },
    {
      "midi": 40,
      "time": 40.772,
      "duration": 0.068,
      "velocity": 0.62,
      "hand": "left"
    },
    {
      "midi": 36,
      "time": 40.909,
      "duration": 0.068,
      "velocity": 0.8,
      "hand": "left"
    },
    {
      "midi": 38,
      "time": 40.909,
      "duration": 0.068,
      "velocity": 0.55,
      "hand": "left"
    },
    {
      "midi": 62,
      "time": 40.909,
      "duration": 0.409,
      "velocity": 0.72,
      "hand": "right"
    },
    {
      "midi": 67,
      "time": 40.909,
      "duration": 0.803,
      "velocity": 0.57,
      "hand": "right"
    },
    {
      "midi": 74,
      "time": 40.909,
      "duration": 1.091,
      "velocity": 0.72,
      "hand": "right"
    },
    {
      "midi": 79,
      "time": 40.909,
      "duration": 1.091,
      "velocity": 0.9,
      "hand": "right"
    },
    {
      "midi": 38,
      "time": 41.182,
      "duration": 0.068,
      "velocity": 0.55,
      "hand": "left"
    },
    {
      "midi": 40,
      "time": 41.182,
      "duration": 0.068,
      "velocity": 0.63,
      "hand": "left"
    },
    {
      "midi": 36,
      "time": 41.454,
      "duration": 0.136,
      "velocity": 0.95,
      "hand": "left"
    },
    {
      "midi": 38,
      "time": 41.454,
      "duration": 0.068,
      "velocity": 0.55,
      "hand": "left"
    },
    {
      "midi": 36,
      "time": 41.727,
      "duration": 0.068,
      "velocity": 0.67,
      "hand": "left"
    },
    {
      "midi": 38,
      "time": 41.727,
      "duration": 0.068,
      "velocity": 0.55,
      "hand": "left"
    },
    {
      "midi": 71,
      "time": 41.727,
      "duration": 0.136,
      "velocity": 0.68,
      "hand": "right"
    },
    {
      "midi": 77,
      "time": 41.727,
      "duration": 0.136,
      "velocity": 0.76,
      "hand": "right"
    },
    {
      "midi": 82,
      "time": 41.727,
      "duration": 0.136,
      "velocity": 0.72,
      "hand": "right"
    },
    {
      "midi": 36,
      "time": 42,
      "duration": 0.068,
      "velocity": 0.65,
      "hand": "left"
    },
    {
      "midi": 38,
      "time": 42,
      "duration": 0.068,
      "velocity": 0.55,
      "hand": "left"
    },
    {
      "midi": 43,
      "time": 42.272,
      "duration": 0.273,
      "velocity": 0.95,
      "hand": "left"
    },
    {
      "midi": 53,
      "time": 42.272,
      "duration": 0.136,
      "velocity": 0.74,
      "hand": "left"
    },
    {
      "midi": 71,
      "time": 42.272,
      "duration": 0.273,
      "velocity": 0.56,
      "hand": "right"
    },
    {
      "midi": 77,
      "time": 42.272,
      "duration": 0.136,
      "velocity": 0.72,
      "hand": "right"
    },
    {
      "midi": 82,
      "time": 42.272,
      "duration": 0.136,
      "velocity": 0.57,
      "hand": "right"
    },
    {
      "midi": 60,
      "time": 42.409,
      "duration": 0.068,
      "velocity": 0.92,
      "hand": "right"
    },
    {
      "midi": 47,
      "time": 42.545,
      "duration": 0.068,
      "velocity": 0.56,
      "hand": "left"
    },
    {
      "midi": 57,
      "time": 42.545,
      "duration": 0.068,
      "velocity": 0.64,
      "hand": "left"
    },
    {
      "midi": 67,
      "time": 42.545,
      "duration": 0.258,
      "velocity": 0.9,
      "hand": "right"
    },
    {
      "midi": 36,
      "time": 42.818,
      "duration": 0.068,
      "velocity": 0.67,
      "hand": "left"
    },
    {
      "midi": 38,
      "time": 42.818,
      "duration": 0.068,
      "velocity": 0.55,
      "hand": "left"
    },
    {
      "midi": 71,
      "time": 42.818,
      "duration": 0.136,
      "velocity": 0.68,
      "hand": "right"
    },
    {
      "midi": 77,
      "time": 42.818,
      "duration": 0.136,
      "velocity": 0.76,
      "hand": "right"
    },
    {
      "midi": 82,
      "time": 42.818,
      "duration": 0.136,
      "velocity": 0.68,
      "hand": "right"
    },
    {
      "midi": 36,
      "time": 43.091,
      "duration": 0.068,
      "velocity": 0.67,
      "hand": "left"
    },
    {
      "midi": 38,
      "time": 43.091,
      "duration": 0.068,
      "velocity": 0.55,
      "hand": "left"
    },
    {
      "midi": 43,
      "time": 43.363,
      "duration": 0.136,
      "velocity": 0.95,
      "hand": "left"
    },
    {
      "midi": 53,
      "time": 43.363,
      "duration": 0.068,
      "velocity": 0.76,
      "hand": "left"
    },
    {
      "midi": 71,
      "time": 43.363,
      "duration": 0.136,
      "velocity": 0.69,
      "hand": "right"
    },
    {
      "midi": 77,
      "time": 43.363,
      "duration": 0.136,
      "velocity": 0.76,
      "hand": "right"
    },
    {
      "midi": 82,
      "time": 43.363,
      "duration": 0.136,
      "velocity": 0.68,
      "hand": "right"
    },
    {
      "midi": 39,
      "time": 43.636,
      "duration": 0.068,
      "velocity": 0.65,
      "hand": "left"
    },
    {
      "midi": 62,
      "time": 43.636,
      "duration": 0.068,
      "velocity": 0.7,
      "hand": "right"
    },
    {
      "midi": 64,
      "time": 43.636,
      "duration": 0.273,
      "velocity": 0.74,
      "hand": "right"
    },
    {
      "midi": 67,
      "time": 43.636,
      "duration": 0.136,
      "velocity": 0.56,
      "hand": "right"
    },
    {
      "midi": 39,
      "time": 43.909,
      "duration": 0.068,
      "velocity": 0.67,
      "hand": "left"
    },
    {
      "midi": 71,
      "time": 43.909,
      "duration": 0.273,
      "velocity": 0.79,
      "hand": "right"
    },
    {
      "midi": 77,
      "time": 43.909,
      "duration": 0.273,
      "velocity": 0.79,
      "hand": "right"
    },
    {
      "midi": 82,
      "time": 43.909,
      "duration": 0.273,
      "velocity": 0.79,
      "hand": "right"
    },
    {
      "midi": 57,
      "time": 44.045,
      "duration": 0.068,
      "velocity": 0.61,
      "hand": "left"
    },
    {
      "midi": 62,
      "time": 44.045,
      "duration": 0.068,
      "velocity": 0.72,
      "hand": "right"
    },
    {
      "midi": 67,
      "time": 44.045,
      "duration": 0.136,
      "velocity": 0.55,
      "hand": "right"
    },
    {
      "midi": 36,
      "time": 44.182,
      "duration": 0.068,
      "velocity": 0.64,
      "hand": "left"
    },
    {
      "midi": 38,
      "time": 44.182,
      "duration": 0.068,
      "velocity": 0.55,
      "hand": "left"
    },
    {
      "midi": 64,
      "time": 44.182,
      "duration": 0.273,
      "velocity": 0.9,
      "hand": "right"
    },
    {
      "midi": 45,
      "time": 44.318,
      "duration": 0.068,
      "velocity": 0.6,
      "hand": "left"
    },
    {
      "midi": 36,
      "time": 44.454,
      "duration": 0.068,
      "velocity": 0.57,
      "hand": "left"
    },
    {
      "midi": 41,
      "time": 44.454,
      "duration": 0.068,
      "velocity": 0.75,
      "hand": "left"
    },
    {
      "midi": 62,
      "time": 44.454,
      "duration": 0.122,
      "velocity": 0.73,
      "hand": "right"
    },
    {
      "midi": 65,
      "time": 44.454,
      "duration": 0.136,
      "velocity": 0.74,
      "hand": "right"
    },
    {
      "midi": 67,
      "time": 44.454,
      "duration": 0.136,
      "velocity": 0.64,
      "hand": "right"
    },
    {
      "midi": 70,
      "time": 44.454,
      "duration": 0.136,
      "velocity": 0.87,
      "hand": "right"
    },
    {
      "midi": 62,
      "time": 44.591,
      "duration": 0.121,
      "velocity": 0.68,
      "hand": "right"
    },
    {
      "midi": 38,
      "time": 44.727,
      "duration": 0.068,
      "velocity": 0.55,
      "hand": "left"
    },
    {
      "midi": 40,
      "time": 44.727,
      "duration": 0.258,
      "velocity": 0.95,
      "hand": "left"
    },
    {
      "midi": 62,
      "time": 44.727,
      "duration": 0.394,
      "velocity": 0.83,
      "hand": "right"
    },
    {
      "midi": 67,
      "time": 44.727,
      "duration": 0.409,
      "velocity": 0.81,
      "hand": "right"
    },
    {
      "midi": 69,
      "time": 44.727,
      "duration": 0.394,
      "velocity": 0.85,
      "hand": "right"
    },
    {
      "midi": 38,
      "time": 45,
      "duration": 0.068,
      "velocity": 0.55,
      "hand": "left"
    },
    {
      "midi": 40,
      "time": 45,
      "duration": 0.068,
      "velocity": 0.69,
      "hand": "left"
    },
    {
      "midi": 55,
      "time": 45.136,
      "duration": 0.068,
      "velocity": 0.55,
      "hand": "left"
    },
    {
      "midi": 59,
      "time": 45.136,
      "duration": 0.068,
      "velocity": 0.63,
      "hand": "left"
    },
    {
      "midi": 62,
      "time": 45.136,
      "duration": 0.068,
      "velocity": 0.73,
      "hand": "right"
    },
    {
      "midi": 66,
      "time": 45.136,
      "duration": 0.068,
      "velocity": 0.73,
      "hand": "right"
    },
    {
      "midi": 69,
      "time": 45.136,
      "duration": 0.068,
      "velocity": 0.56,
      "hand": "right"
    },
    {
      "midi": 36,
      "time": 45.272,
      "duration": 0.068,
      "velocity": 0.8,
      "hand": "left"
    },
    {
      "midi": 38,
      "time": 45.272,
      "duration": 0.068,
      "velocity": 0.55,
      "hand": "left"
    },
    {
      "midi": 62,
      "time": 45.272,
      "duration": 0.068,
      "velocity": 0.53,
      "hand": "right"
    },
    {
      "midi": 67,
      "time": 45.272,
      "duration": 0.273,
      "velocity": 0.79,
      "hand": "right"
    },
    {
      "midi": 38,
      "time": 45.409,
      "duration": 0.068,
      "velocity": 0.55,
      "hand": "left"
    },
    {
      "midi": 40,
      "time": 45.409,
      "duration": 0.068,
      "velocity": 0.62,
      "hand": "left"
    },
    {
      "midi": 38,
      "time": 45.545,
      "duration": 0.068,
      "velocity": 0.55,
      "hand": "left"
    },
    {
      "midi": 46,
      "time": 45.545,
      "duration": 0.068,
      "velocity": 0.64,
      "hand": "left"
    },
    {
      "midi": 62,
      "time": 45.545,
      "duration": 0.068,
      "velocity": 0.64,
      "hand": "right"
    },
    {
      "midi": 66,
      "time": 45.545,
      "duration": 0.068,
      "velocity": 0.52,
      "hand": "right"
    },
    {
      "midi": 38,
      "time": 45.682,
      "duration": 0.068,
      "velocity": 0.55,
      "hand": "left"
    },
    {
      "midi": 59,
      "time": 45.682,
      "duration": 0.121,
      "velocity": 0.69,
      "hand": "left"
    },
    {
      "midi": 62,
      "time": 45.682,
      "duration": 0.121,
      "velocity": 0.72,
      "hand": "right"
    },
    {
      "midi": 38,
      "time": 45.818,
      "duration": 0.068,
      "velocity": 0.55,
      "hand": "left"
    },
    {
      "midi": 40,
      "time": 45.818,
      "duration": 0.394,
      "velocity": 0.91,
      "hand": "left"
    },
    {
      "midi": 62,
      "time": 45.818,
      "duration": 0.258,
      "velocity": 0.75,
      "hand": "right"
    },
    {
      "midi": 67,
      "time": 45.818,
      "duration": 0.409,
      "velocity": 0.83,
      "hand": "right"
    },
    {
      "midi": 69,
      "time": 45.818,
      "duration": 0.53,
      "velocity": 0.87,
      "hand": "right"
    },
    {
      "midi": 46,
      "time": 46.091,
      "duration": 0.068,
      "velocity": 0.64,
      "hand": "left"
    },
    {
      "midi": 54,
      "time": 46.091,
      "duration": 0.068,
      "velocity": 0.61,
      "hand": "left"
    },
    {
      "midi": 62,
      "time": 46.091,
      "duration": 0.068,
      "velocity": 0.56,
      "hand": "right"
    },
    {
      "midi": 66,
      "time": 46.091,
      "duration": 0.257,
      "velocity": 1,
      "hand": "right"
    },
    {
      "midi": 38,
      "time": 46.227,
      "duration": 0.068,
      "velocity": 0.55,
      "hand": "left"
    },
    {
      "midi": 40,
      "time": 46.227,
      "duration": 0.068,
      "velocity": 0.73,
      "hand": "left"
    },
    {
      "midi": 36,
      "time": 46.363,
      "duration": 0.068,
      "velocity": 0.8,
      "hand": "left"
    },
    {
      "midi": 38,
      "time": 46.363,
      "duration": 0.068,
      "velocity": 0.55,
      "hand": "left"
    },
    {
      "midi": 62,
      "time": 46.363,
      "duration": 0.273,
      "velocity": 0.57,
      "hand": "right"
    },
    {
      "midi": 66,
      "time": 46.363,
      "duration": 0.273,
      "velocity": 0.52,
      "hand": "right"
    },
    {
      "midi": 69,
      "time": 46.363,
      "duration": 0.273,
      "velocity": 0.69,
      "hand": "right"
    },
    {
      "midi": 38,
      "time": 46.636,
      "duration": 0.068,
      "velocity": 0.55,
      "hand": "left"
    },
    {
      "midi": 40,
      "time": 46.636,
      "duration": 0.273,
      "velocity": 0.95,
      "hand": "left"
    },
    {
      "midi": 67,
      "time": 46.636,
      "duration": 0.258,
      "velocity": 0.68,
      "hand": "right"
    },
    {
      "midi": 38,
      "time": 46.909,
      "duration": 0.258,
      "velocity": 0.84,
      "hand": "left"
    },
    {
      "midi": 42,
      "time": 46.909,
      "duration": 0.068,
      "velocity": 0.71,
      "hand": "left"
    },
    {
      "midi": 62,
      "time": 46.909,
      "duration": 1.076,
      "velocity": 0.87,
      "hand": "right"
    },
    {
      "midi": 65,
      "time": 46.909,
      "duration": 0.53,
      "velocity": 0.75,
      "hand": "right"
    },
    {
      "midi": 67,
      "time": 46.909,
      "duration": 0.53,
      "velocity": 0.91,
      "hand": "right"
    },
    {
      "midi": 38,
      "time": 47.182,
      "duration": 0.068,
      "velocity": 0.55,
      "hand": "left"
    },
    {
      "midi": 40,
      "time": 47.182,
      "duration": 0.068,
      "velocity": 0.65,
      "hand": "left"
    },
    {
      "midi": 53,
      "time": 47.318,
      "duration": 0.068,
      "velocity": 0.57,
      "hand": "left"
    },
    {
      "midi": 57,
      "time": 47.318,
      "duration": 0.068,
      "velocity": 0.49,
      "hand": "left"
    },
    {
      "midi": 60,
      "time": 47.318,
      "duration": 0.068,
      "velocity": 0.68,
      "hand": "right"
    },
    {
      "midi": 64,
      "time": 47.318,
      "duration": 0.068,
      "velocity": 0.54,
      "hand": "right"
    },
    {
      "midi": 36,
      "time": 47.454,
      "duration": 0.068,
      "velocity": 0.8,
      "hand": "left"
    },
    {
      "midi": 38,
      "time": 47.454,
      "duration": 0.068,
      "velocity": 0.55,
      "hand": "left"
    },
    {
      "midi": 60,
      "time": 47.454,
      "duration": 0.258,
      "velocity": 0.83,
      "hand": "right"
    },
    {
      "midi": 65,
      "time": 47.454,
      "duration": 0.409,
      "velocity": 0.86,
      "hand": "right"
    },
    {
      "midi": 67,
      "time": 47.454,
      "duration": 0.273,
      "velocity": 0.77,
      "hand": "right"
    },
    {
      "midi": 38,
      "time": 47.591,
      "duration": 0.068,
      "velocity": 0.55,
      "hand": "left"
    },
    {
      "midi": 40,
      "time": 47.591,
      "duration": 0.068,
      "velocity": 0.76,
      "hand": "left"
    },
    {
      "midi": 38,
      "time": 47.727,
      "duration": 0.068,
      "velocity": 0.55,
      "hand": "left"
    },
    {
      "midi": 46,
      "time": 47.727,
      "duration": 0.068,
      "velocity": 0.64,
      "hand": "left"
    },
    {
      "midi": 60,
      "time": 47.727,
      "duration": 0.136,
      "velocity": 0.68,
      "hand": "right"
    },
    {
      "midi": 64,
      "time": 47.727,
      "duration": 0.136,
      "velocity": 0.57,
      "hand": "right"
    },
    {
      "midi": 38,
      "time": 47.863,
      "duration": 0.068,
      "velocity": 0.55,
      "hand": "left"
    },
    {
      "midi": 38,
      "time": 48,
      "duration": 0.394,
      "velocity": 0.94,
      "hand": "left"
    },
    {
      "midi": 40,
      "time": 48,
      "duration": 0.068,
      "velocity": 0.71,
      "hand": "left"
    },
    {
      "midi": 62,
      "time": 48,
      "duration": 0.53,
      "velocity": 0.86,
      "hand": "right"
    },
    {
      "midi": 65,
      "time": 48,
      "duration": 0.409,
      "velocity": 0.81,
      "hand": "right"
    },
    {
      "midi": 69,
      "time": 48,
      "duration": 0.53,
      "velocity": 1,
      "hand": "right"
    },
    {
      "midi": 46,
      "time": 48.272,
      "duration": 0.068,
      "velocity": 0.64,
      "hand": "left"
    },
    {
      "midi": 54,
      "time": 48.272,
      "duration": 0.068,
      "velocity": 0.61,
      "hand": "left"
    },
    {
      "midi": 38,
      "time": 48.409,
      "duration": 0.068,
      "velocity": 0.55,
      "hand": "left"
    },
    {
      "midi": 40,
      "time": 48.409,
      "duration": 0.068,
      "velocity": 0.67,
      "hand": "left"
    },
    {
      "midi": 61,
      "time": 48.409,
      "duration": 0.068,
      "velocity": 0.4,
      "hand": "right"
    },
    {
      "midi": 63,
      "time": 48.409,
      "duration": 0.273,
      "velocity": 0.56,
      "hand": "right"
    },
    {
      "midi": 36,
      "time": 48.545,
      "duration": 0.068,
      "velocity": 0.76,
      "hand": "left"
    },
    {
      "midi": 38,
      "time": 48.545,
      "duration": 0.068,
      "velocity": 0.55,
      "hand": "left"
    },
    {
      "midi": 62,
      "time": 48.545,
      "duration": 0.122,
      "velocity": 0.88,
      "hand": "right"
    },
    {
      "midi": 64,
      "time": 48.545,
      "duration": 0.273,
      "velocity": 0.56,
      "hand": "right"
    },
    {
      "midi": 67,
      "time": 48.545,
      "duration": 0.273,
      "velocity": 1,
      "hand": "right"
    },
    {
      "midi": 69,
      "time": 48.545,
      "duration": 0.273,
      "velocity": 0.87,
      "hand": "right"
    },
    {
      "midi": 53,
      "time": 48.682,
      "duration": 0.136,
      "velocity": 0.56,
      "hand": "left"
    },
    {
      "midi": 57,
      "time": 48.682,
      "duration": 0.136,
      "velocity": 0.53,
      "hand": "left"
    },
    {
      "midi": 62,
      "time": 48.682,
      "duration": 0.136,
      "velocity": 0.56,
      "hand": "right"
    },
    {
      "midi": 38,
      "time": 48.818,
      "duration": 0.068,
      "velocity": 0.55,
      "hand": "left"
    },
    {
      "midi": 40,
      "time": 48.818,
      "duration": 0.068,
      "velocity": 0.64,
      "hand": "left"
    },
    {
      "midi": 65,
      "time": 48.818,
      "duration": 0.258,
      "velocity": 0.75,
      "hand": "right"
    },
    {
      "midi": 38,
      "time": 49.091,
      "duration": 0.068,
      "velocity": 0.55,
      "hand": "left"
    },
    {
      "midi": 42,
      "time": 49.091,
      "duration": 0.068,
      "velocity": 0.71,
      "hand": "left"
    },
    {
      "midi": 60,
      "time": 49.091,
      "duration": 0.394,
      "velocity": 1,
      "hand": "right"
    },
    {
      "midi": 65,
      "time": 49.091,
      "duration": 0.53,
      "velocity": 0.99,
      "hand": "right"
    },
    {
      "midi": 40,
      "time": 49.227,
      "duration": 0.068,
      "velocity": 0.69,
      "hand": "left"
    },
    {
      "midi": 38,
      "time": 49.363,
      "duration": 0.068,
      "velocity": 0.55,
      "hand": "left"
    },
    {
      "midi": 46,
      "time": 49.363,
      "duration": 0.068,
      "velocity": 0.64,
      "hand": "left"
    },
    {
      "midi": 67,
      "time": 49.363,
      "duration": 0.273,
      "velocity": 0.85,
      "hand": "right"
    },
    {
      "midi": 53,
      "time": 49.5,
      "duration": 0.068,
      "velocity": 0.61,
      "hand": "left"
    },
    {
      "midi": 55,
      "time": 49.5,
      "duration": 0.068,
      "velocity": 0.72,
      "hand": "left"
    },
    {
      "midi": 60,
      "time": 49.5,
      "duration": 0.068,
      "velocity": 0.56,
      "hand": "right"
    },
    {
      "midi": 36,
      "time": 49.636,
      "duration": 0.068,
      "velocity": 0.76,
      "hand": "left"
    },
    {
      "midi": 38,
      "time": 49.636,
      "duration": 0.121,
      "velocity": 0.97,
      "hand": "left"
    },
    {
      "midi": 60,
      "time": 49.636,
      "duration": 0.258,
      "velocity": 0.91,
      "hand": "right"
    },
    {
      "midi": 65,
      "time": 49.636,
      "duration": 0.545,
      "velocity": 0.95,
      "hand": "right"
    },
    {
      "midi": 70,
      "time": 49.636,
      "duration": 0.273,
      "velocity": 0.85,
      "hand": "right"
    },
    {
      "midi": 38,
      "time": 49.772,
      "duration": 0.068,
      "velocity": 0.55,
      "hand": "left"
    },
    {
      "midi": 38,
      "time": 49.909,
      "duration": 0.068,
      "velocity": 0.55,
      "hand": "left"
    },
    {
      "midi": 43,
      "time": 49.909,
      "duration": 0.273,
      "velocity": 0.92,
      "hand": "left"
    },
    {
      "midi": 60,
      "time": 49.909,
      "duration": 0.136,
      "velocity": 0.61,
      "hand": "right"
    },
    {
      "midi": 72,
      "time": 49.909,
      "duration": 0.273,
      "velocity": 0.74,
      "hand": "right"
    },
    {
      "midi": 38,
      "time": 50.045,
      "duration": 0.068,
      "velocity": 0.55,
      "hand": "left"
    },
    {
      "midi": 38,
      "time": 50.182,
      "duration": 0.273,
      "velocity": 1,
      "hand": "left"
    },
    {
      "midi": 42,
      "time": 50.182,
      "duration": 0.068,
      "velocity": 0.71,
      "hand": "left"
    },
    {
      "midi": 60,
      "time": 50.182,
      "duration": 0.53,
      "velocity": 0.9,
      "hand": "right"
    },
    {
      "midi": 64,
      "time": 50.182,
      "duration": 0.955,
      "velocity": 0.95,
      "hand": "right"
    },
    {
      "midi": 76,
      "time": 50.182,
      "duration": 0.545,
      "velocity": 0.78,
      "hand": "right"
    },
    {
      "midi": 42,
      "time": 50.454,
      "duration": 0.258,
      "velocity": 0.95,
      "hand": "left"
    },
    {
      "midi": 46,
      "time": 50.454,
      "duration": 0.068,
      "velocity": 0.64,
      "hand": "left"
    },
    {
      "midi": 38,
      "time": 50.591,
      "duration": 0.068,
      "velocity": 0.55,
      "hand": "left"
    },
    {
      "midi": 40,
      "time": 50.591,
      "duration": 0.068,
      "velocity": 0.64,
      "hand": "left"
    },
    {
      "midi": 36,
      "time": 50.727,
      "duration": 0.068,
      "velocity": 0.8,
      "hand": "left"
    },
    {
      "midi": 38,
      "time": 50.727,
      "duration": 0.258,
      "velocity": 0.87,
      "hand": "left"
    },
    {
      "midi": 60,
      "time": 50.727,
      "duration": 0.136,
      "velocity": 0.58,
      "hand": "right"
    },
    {
      "midi": 79,
      "time": 50.727,
      "duration": 0.545,
      "velocity": 0.76,
      "hand": "right"
    },
    {
      "midi": 38,
      "time": 51,
      "duration": 0.068,
      "velocity": 0.55,
      "hand": "left"
    },
    {
      "midi": 40,
      "time": 51,
      "duration": 0.068,
      "velocity": 0.64,
      "hand": "left"
    },
    {
      "midi": 60,
      "time": 51,
      "duration": 0.121,
      "velocity": 0.86,
      "hand": "right"
    },
    {
      "midi": 57,
      "time": 51.136,
      "duration": 0.121,
      "velocity": 0.81,
      "hand": "left"
    },
    {
      "midi": 60,
      "time": 51.136,
      "duration": 0.121,
      "velocity": 0.57,
      "hand": "right"
    },
    {
      "midi": 38,
      "time": 51.272,
      "duration": 0.068,
      "velocity": 0.55,
      "hand": "left"
    },
    {
      "midi": 41,
      "time": 51.272,
      "duration": 0.531,
      "velocity": 0.8,
      "hand": "left"
    },
    {
      "midi": 65,
      "time": 51.272,
      "duration": 2.045,
      "velocity": 0.99,
      "hand": "right"
    },
    {
      "midi": 67,
      "time": 51.272,
      "duration": 0.818,
      "velocity": 0.95,
      "hand": "right"
    },
    {
      "midi": 69,
      "time": 51.272,
      "duration": 0.409,
      "velocity": 0.87,
      "hand": "right"
    },
    {
      "midi": 77,
      "time": 51.272,
      "duration": 0.818,
      "velocity": 0.74,
      "hand": "right"
    },
    {
      "midi": 38,
      "time": 51.545,
      "duration": 0.068,
      "velocity": 0.55,
      "hand": "left"
    },
    {
      "midi": 40,
      "time": 51.545,
      "duration": 0.068,
      "velocity": 0.65,
      "hand": "left"
    },
    {
      "midi": 64,
      "time": 51.545,
      "duration": 0.122,
      "velocity": 1,
      "hand": "right"
    },
    {
      "midi": 53,
      "time": 51.682,
      "duration": 0.068,
      "velocity": 0.56,
      "hand": "left"
    },
    {
      "midi": 57,
      "time": 51.682,
      "duration": 0.068,
      "velocity": 0.61,
      "hand": "left"
    },
    {
      "midi": 60,
      "time": 51.682,
      "duration": 0.068,
      "velocity": 0.63,
      "hand": "right"
    },
    {
      "midi": 64,
      "time": 51.682,
      "duration": 0.068,
      "velocity": 0.52,
      "hand": "right"
    },
    {
      "midi": 36,
      "time": 51.818,
      "duration": 0.068,
      "velocity": 0.76,
      "hand": "left"
    },
    {
      "midi": 38,
      "time": 51.818,
      "duration": 0.068,
      "velocity": 0.55,
      "hand": "left"
    },
    {
      "midi": 60,
      "time": 51.818,
      "duration": 0.258,
      "velocity": 0.83,
      "hand": "right"
    },
    {
      "midi": 64,
      "time": 51.818,
      "duration": 0.258,
      "velocity": 0.52,
      "hand": "right"
    },
    {
      "midi": 69,
      "time": 51.818,
      "duration": 0.409,
      "velocity": 0.87,
      "hand": "right"
    },
    {
      "midi": 38,
      "time": 51.954,
      "duration": 0.068,
      "velocity": 0.55,
      "hand": "left"
    },
    {
      "midi": 40,
      "time": 51.954,
      "duration": 0.068,
      "velocity": 0.72,
      "hand": "left"
    },
    {
      "midi": 36,
      "time": 52.091,
      "duration": 0.273,
      "velocity": 0.8,
      "hand": "left"
    },
    {
      "midi": 38,
      "time": 52.091,
      "duration": 0.068,
      "velocity": 0.55,
      "hand": "left"
    },
    {
      "midi": 60,
      "time": 52.091,
      "duration": 0.136,
      "velocity": 0.61,
      "hand": "right"
    },
    {
      "midi": 64,
      "time": 52.091,
      "duration": 0.068,
      "velocity": 0.53,
      "hand": "right"
    },
    {
      "midi": 72,
      "time": 52.091,
      "duration": 0.273,
      "velocity": 0.78,
      "hand": "right"
    },
    {
      "midi": 38,
      "time": 52.227,
      "duration": 0.068,
      "velocity": 0.55,
      "hand": "left"
    },
    {
      "midi": 38,
      "time": 52.363,
      "duration": 0.068,
      "velocity": 0.55,
      "hand": "left"
    },
    {
      "midi": 40,
      "time": 52.363,
      "duration": 0.068,
      "velocity": 0.64,
      "hand": "left"
    },
    {
      "midi": 63,
      "time": 52.363,
      "duration": 0.258,
      "velocity": 0.82,
      "hand": "right"
    },
    {
      "midi": 67,
      "time": 52.363,
      "duration": 0.818,
      "velocity": 0.84,
      "hand": "right"
    },
    {
      "midi": 69,
      "time": 52.363,
      "duration": 0.409,
      "velocity": 0.88,
      "hand": "right"
    },
    {
      "midi": 77,
      "time": 52.363,
      "duration": 0.545,
      "velocity": 0.8,
      "hand": "right"
    },
    {
      "midi": 46,
      "time": 52.636,
      "duration": 0.068,
      "velocity": 0.64,
      "hand": "left"
    },
    {
      "midi": 53,
      "time": 52.636,
      "duration": 0.068,
      "velocity": 0.56,
      "hand": "left"
    },
    {
      "midi": 60,
      "time": 52.636,
      "duration": 0.068,
      "velocity": 0.56,
      "hand": "right"
    },
    {
      "midi": 63,
      "time": 52.636,
      "duration": 0.136,
      "velocity": 0.54,
      "hand": "right"
    },
    {
      "midi": 38,
      "time": 52.772,
      "duration": 0.068,
      "velocity": 0.55,
      "hand": "left"
    },
    {
      "midi": 40,
      "time": 52.772,
      "duration": 0.068,
      "velocity": 0.62,
      "hand": "left"
    },
    {
      "midi": 36,
      "time": 52.909,
      "duration": 0.068,
      "velocity": 0.8,
      "hand": "left"
    },
    {
      "midi": 38,
      "time": 52.909,
      "duration": 0.068,
      "velocity": 0.55,
      "hand": "left"
    },
    {
      "midi": 60,
      "time": 52.909,
      "duration": 0.273,
      "velocity": 0.74,
      "hand": "right"
    },
    {
      "midi": 63,
      "time": 52.909,
      "duration": 0.273,
      "velocity": 0.61,
      "hand": "right"
    },
    {
      "midi": 71,
      "time": 52.909,
      "duration": 0.273,
      "velocity": 0.72,
      "hand": "right"
    },
    {
      "midi": 38,
      "time": 53.182,
      "duration": 0.068,
      "velocity": 0.55,
      "hand": "left"
    },
    {
      "midi": 40,
      "time": 53.182,
      "duration": 0.068,
      "velocity": 0.63,
      "hand": "left"
    },
    {
      "midi": 69,
      "time": 53.182,
      "duration": 0.257,
      "velocity": 0.71,
      "hand": "right"
    },
    {
      "midi": 77,
      "time": 53.182,
      "duration": 0.273,
      "velocity": 0.76,
      "hand": "right"
    },
    {
      "midi": 38,
      "time": 53.454,
      "duration": 0.068,
      "velocity": 0.55,
      "hand": "left"
    },
    {
      "midi": 40,
      "time": 53.454,
      "duration": 0.258,
      "velocity": 0.94,
      "hand": "left"
    },
    {
      "midi": 67,
      "time": 53.454,
      "duration": 0.531,
      "velocity": 0.99,
      "hand": "right"
    },
    {
      "midi": 69,
      "time": 53.454,
      "duration": 0.258,
      "velocity": 0.86,
      "hand": "right"
    },
    {
      "midi": 79,
      "time": 53.454,
      "duration": 1.091,
      "velocity": 0.76,
      "hand": "right"
    },
    {
      "midi": 38,
      "time": 53.727,
      "duration": 0.068,
      "velocity": 0.55,
      "hand": "left"
    },
    {
      "midi": 40,
      "time": 53.727,
      "duration": 0.068,
      "velocity": 0.71,
      "hand": "left"
    },
    {
      "midi": 62,
      "time": 53.727,
      "duration": 0.068,
      "velocity": 0.72,
      "hand": "right"
    },
    {
      "midi": 66,
      "time": 53.727,
      "duration": 0.068,
      "velocity": 0.61,
      "hand": "right"
    },
    {
      "midi": 69,
      "time": 53.727,
      "duration": 0.068,
      "velocity": 0.53,
      "hand": "right"
    },
    {
      "midi": 55,
      "time": 53.863,
      "duration": 0.068,
      "velocity": 0.63,
      "hand": "left"
    },
    {
      "midi": 59,
      "time": 53.863,
      "duration": 0.068,
      "velocity": 0.65,
      "hand": "left"
    },
    {
      "midi": 62,
      "time": 53.863,
      "duration": 0.068,
      "velocity": 0.63,
      "hand": "right"
    },
    {
      "midi": 66,
      "time": 53.863,
      "duration": 0.068,
      "velocity": 0.52,
      "hand": "right"
    },
    {
      "midi": 36,
      "time": 54,
      "duration": 0.068,
      "velocity": 0.76,
      "hand": "left"
    },
    {
      "midi": 38,
      "time": 54,
      "duration": 0.068,
      "velocity": 0.55,
      "hand": "left"
    },
    {
      "midi": 62,
      "time": 54,
      "duration": 0.257,
      "velocity": 0.86,
      "hand": "right"
    },
    {
      "midi": 67,
      "time": 54,
      "duration": 0.409,
      "velocity": 0.8,
      "hand": "right"
    },
    {
      "midi": 69,
      "time": 54,
      "duration": 0.257,
      "velocity": 0.87,
      "hand": "right"
    },
    {
      "midi": 38,
      "time": 54.136,
      "duration": 0.068,
      "velocity": 0.55,
      "hand": "left"
    },
    {
      "midi": 40,
      "time": 54.136,
      "duration": 0.068,
      "velocity": 0.65,
      "hand": "left"
    },
    {
      "midi": 38,
      "time": 54.272,
      "duration": 0.068,
      "velocity": 0.55,
      "hand": "left"
    },
    {
      "midi": 40,
      "time": 54.272,
      "duration": 0.258,
      "velocity": 0.83,
      "hand": "left"
    },
    {
      "midi": 62,
      "time": 54.272,
      "duration": 0.136,
      "velocity": 0.61,
      "hand": "right"
    },
    {
      "midi": 66,
      "time": 54.272,
      "duration": 0.136,
      "velocity": 0.54,
      "hand": "right"
    },
    {
      "midi": 69,
      "time": 54.272,
      "duration": 0.068,
      "velocity": 0.56,
      "hand": "right"
    },
    {
      "midi": 38,
      "time": 54.409,
      "duration": 0.068,
      "velocity": 0.55,
      "hand": "left"
    },
    {
      "midi": 39,
      "time": 54.545,
      "duration": 0.545,
      "velocity": 0.85,
      "hand": "left"
    },
    {
      "midi": 65,
      "time": 54.545,
      "duration": 0.258,
      "velocity": 0.59,
      "hand": "right"
    },
    {
      "midi": 68,
      "time": 54.545,
      "duration": 0.531,
      "velocity": 0.96,
      "hand": "right"
    },
    {
      "midi": 80,
      "time": 54.545,
      "duration": 1.091,
      "velocity": 0.85,
      "hand": "right"
    },
    {
      "midi": 46,
      "time": 54.818,
      "duration": 0.068,
      "velocity": 0.64,
      "hand": "left"
    },
    {
      "midi": 54,
      "time": 54.818,
      "duration": 0.068,
      "velocity": 0.72,
      "hand": "left"
    },
    {
      "midi": 61,
      "time": 54.818,
      "duration": 0.068,
      "velocity": 0.63,
      "hand": "right"
    },
    {
      "midi": 65,
      "time": 54.818,
      "duration": 0.068,
      "velocity": 0.54,
      "hand": "right"
    },
    {
      "midi": 38,
      "time": 54.954,
      "duration": 0.068,
      "velocity": 0.55,
      "hand": "left"
    },
    {
      "midi": 40,
      "time": 54.954,
      "duration": 0.068,
      "velocity": 0.8,
      "hand": "left"
    },
    {
      "midi": 36,
      "time": 55.091,
      "duration": 0.068,
      "velocity": 0.61,
      "hand": "left"
    },
    {
      "midi": 38,
      "time": 55.091,
      "duration": 0.068,
      "velocity": 0.55,
      "hand": "left"
    },
    {
      "midi": 61,
      "time": 55.091,
      "duration": 0.257,
      "velocity": 0.83,
      "hand": "right"
    },
    {
      "midi": 65,
      "time": 55.091,
      "duration": 0.068,
      "velocity": 0.7,
      "hand": "right"
    },
    {
      "midi": 68,
      "time": 55.091,
      "duration": 0.409,
      "velocity": 0.59,
      "hand": "right"
    },
    {
      "midi": 39,
      "time": 55.363,
      "duration": 0.273,
      "velocity": 0.76,
      "hand": "left"
    },
    {
      "midi": 61,
      "time": 55.363,
      "duration": 0.136,
      "velocity": 0.73,
      "hand": "right"
    },
    {
      "midi": 65,
      "time": 55.363,
      "duration": 0.258,
      "velocity": 0.84,
      "hand": "right"
    },
    {
      "midi": 38,
      "time": 55.636,
      "duration": 0.394,
      "velocity": 0.87,
      "hand": "left"
    },
    {
      "midi": 42,
      "time": 55.636,
      "duration": 0.068,
      "velocity": 0.71,
      "hand": "left"
    },
    {
      "midi": 65,
      "time": 55.636,
      "duration": 0.682,
      "velocity": 0.99,
      "hand": "right"
    },
    {
      "midi": 67,
      "time": 55.636,
      "duration": 0.531,
      "velocity": 0.82,
      "hand": "right"
    },
    {
      "midi": 69,
      "time": 55.636,
      "duration": 0.682,
      "velocity": 0.86,
      "hand": "right"
    },
    {
      "midi": 81,
      "time": 55.636,
      "duration": 1.091,
      "velocity": 0.73,
      "hand": "right"
    },
    {
      "midi": 46,
      "time": 55.909,
      "duration": 0.068,
      "velocity": 0.64,
      "hand": "left"
    },
    {
      "midi": 54,
      "time": 55.909,
      "duration": 0.068,
      "velocity": 0.61,
      "hand": "left"
    },
    {
      "midi": 38,
      "time": 56.045,
      "duration": 0.068,
      "velocity": 0.55,
      "hand": "left"
    },
    {
      "midi": 40,
      "time": 56.045,
      "duration": 0.068,
      "velocity": 0.64,
      "hand": "left"
    },
    {
      "midi": 60,
      "time": 56.045,
      "duration": 0.068,
      "velocity": 0.59,
      "hand": "right"
    },
    {
      "midi": 64,
      "time": 56.045,
      "duration": 0.068,
      "velocity": 0.56,
      "hand": "right"
    },
    {
      "midi": 36,
      "time": 56.182,
      "duration": 0.068,
      "velocity": 0.8,
      "hand": "left"
    },
    {
      "midi": 38,
      "time": 56.182,
      "duration": 0.068,
      "velocity": 0.55,
      "hand": "left"
    },
    {
      "midi": 60,
      "time": 56.182,
      "duration": 0.136,
      "velocity": 0.87,
      "hand": "right"
    },
    {
      "midi": 64,
      "time": 56.182,
      "duration": 0.136,
      "velocity": 0.57,
      "hand": "right"
    },
    {
      "midi": 67,
      "time": 56.182,
      "duration": 0.136,
      "velocity": 0.8,
      "hand": "right"
    },
    {
      "midi": 38,
      "time": 56.454,
      "duration": 0.258,
      "velocity": 0.8,
      "hand": "left"
    },
    {
      "midi": 40,
      "time": 56.454,
      "duration": 0.068,
      "velocity": 0.64,
      "hand": "left"
    },
    {
      "midi": 65,
      "time": 56.454,
      "duration": 0.136,
      "velocity": 0.72,
      "hand": "right"
    },
    {
      "midi": 67,
      "time": 56.454,
      "duration": 0.068,
      "velocity": 0.55,
      "hand": "right"
    },
    {
      "midi": 38,
      "time": 56.727,
      "duration": 0.068,
      "velocity": 0.55,
      "hand": "left"
    },
    {
      "midi": 68,
      "time": 56.727,
      "duration": 0.682,
      "velocity": 0.98,
      "hand": "right"
    },
    {
      "midi": 71,
      "time": 56.727,
      "duration": 0.682,
      "velocity": 0.97,
      "hand": "right"
    },
    {
      "midi": 83,
      "time": 56.727,
      "duration": 1.091,
      "velocity": 0.83,
      "hand": "right"
    },
    {
      "midi": 38,
      "time": 57,
      "duration": 0.068,
      "velocity": 0.55,
      "hand": "left"
    },
    {
      "midi": 40,
      "time": 57,
      "duration": 0.068,
      "velocity": 0.65,
      "hand": "left"
    },
    {
      "midi": 65,
      "time": 57,
      "duration": 0.136,
      "velocity": 0.69,
      "hand": "right"
    },
    {
      "midi": 36,
      "time": 57.272,
      "duration": 0.068,
      "velocity": 0.76,
      "hand": "left"
    },
    {
      "midi": 38,
      "time": 57.272,
      "duration": 0.068,
      "velocity": 0.55,
      "hand": "left"
    },
    {
      "midi": 64,
      "time": 57.272,
      "duration": 0.136,
      "velocity": 0.81,
      "hand": "right"
    },
    {
      "midi": 67,
      "time": 57.272,
      "duration": 0.136,
      "velocity": 0.59,
      "hand": "right"
    },
    {
      "midi": 38,
      "time": 57.409,
      "duration": 0.068,
      "velocity": 0.55,
      "hand": "left"
    },
    {
      "midi": 40,
      "time": 57.409,
      "duration": 0.068,
      "velocity": 0.72,
      "hand": "left"
    },
    {
      "midi": 38,
      "time": 57.545,
      "duration": 0.068,
      "velocity": 0.55,
      "hand": "left"
    },
    {
      "midi": 63,
      "time": 57.545,
      "duration": 0.068,
      "velocity": 0.4,
      "hand": "right"
    },
    {
      "midi": 38,
      "time": 57.682,
      "duration": 0.068,
      "velocity": 0.55,
      "hand": "left"
    },
    {
      "midi": 36,
      "time": 57.818,
      "duration": 0.53,
      "velocity": 0.95,
      "hand": "left"
    },
    {
      "midi": 38,
      "time": 57.818,
      "duration": 0.068,
      "velocity": 0.55,
      "hand": "left"
    },
    {
      "midi": 67,
      "time": 57.818,
      "duration": 0.53,
      "velocity": 0.94,
      "hand": "right"
    },
    {
      "midi": 69,
      "time": 57.818,
      "duration": 1.773,
      "velocity": 0.96,
      "hand": "right"
    },
    {
      "midi": 72,
      "time": 57.818,
      "duration": 1.636,
      "velocity": 0.91,
      "hand": "right"
    },
    {
      "midi": 84,
      "time": 57.818,
      "duration": 1.5,
      "velocity": 0.65,
      "hand": "right"
    },
    {
      "midi": 46,
      "time": 58.091,
      "duration": 0.068,
      "velocity": 0.64,
      "hand": "left"
    },
    {
      "midi": 54,
      "time": 58.091,
      "duration": 0.068,
      "velocity": 0.54,
      "hand": "left"
    },
    {
      "midi": 38,
      "time": 58.227,
      "duration": 0.068,
      "velocity": 0.55,
      "hand": "left"
    },
    {
      "midi": 40,
      "time": 58.227,
      "duration": 0.068,
      "velocity": 0.62,
      "hand": "left"
    },
    {
      "midi": 36,
      "time": 58.363,
      "duration": 0.136,
      "velocity": 0.95,
      "hand": "left"
    },
    {
      "midi": 38,
      "time": 58.363,
      "duration": 0.068,
      "velocity": 0.55,
      "hand": "left"
    },
    {
      "midi": 62,
      "time": 58.363,
      "duration": 0.409,
      "velocity": 0.72,
      "hand": "right"
    },
    {
      "midi": 67,
      "time": 58.363,
      "duration": 0.804,
      "velocity": 0.57,
      "hand": "right"
    },
    {
      "midi": 74,
      "time": 58.363,
      "duration": 1.091,
      "velocity": 0.72,
      "hand": "right"
    },
    {
      "midi": 79,
      "time": 58.363,
      "duration": 1.091,
      "velocity": 0.9,
      "hand": "right"
    },
    {
      "midi": 38,
      "time": 58.636,
      "duration": 0.068,
      "velocity": 0.55,
      "hand": "left"
    },
    {
      "midi": 40,
      "time": 58.636,
      "duration": 0.068,
      "velocity": 0.63,
      "hand": "left"
    },
    {
      "midi": 36,
      "time": 58.909,
      "duration": 0.136,
      "velocity": 0.95,
      "hand": "left"
    },
    {
      "midi": 40,
      "time": 58.909,
      "duration": 0.068,
      "velocity": 0.64,
      "hand": "left"
    },
    {
      "midi": 36,
      "time": 59.182,
      "duration": 0.068,
      "velocity": 0.67,
      "hand": "left"
    },
    {
      "midi": 38,
      "time": 59.182,
      "duration": 0.068,
      "velocity": 0.55,
      "hand": "left"
    },
    {
      "midi": 71,
      "time": 59.182,
      "duration": 0.136,
      "velocity": 0.68,
      "hand": "right"
    },
    {
      "midi": 77,
      "time": 59.182,
      "duration": 0.136,
      "velocity": 0.76,
      "hand": "right"
    },
    {
      "midi": 82,
      "time": 59.182,
      "duration": 0.136,
      "velocity": 0.72,
      "hand": "right"
    },
    {
      "midi": 36,
      "time": 59.454,
      "duration": 0.068,
      "velocity": 0.67,
      "hand": "left"
    },
    {
      "midi": 38,
      "time": 59.454,
      "duration": 0.068,
      "velocity": 0.55,
      "hand": "left"
    },
    {
      "midi": 62,
      "time": 59.591,
      "duration": 0.068,
      "velocity": 0.61,
      "hand": "right"
    },
    {
      "midi": 43,
      "time": 59.727,
      "duration": 0.273,
      "velocity": 0.95,
      "hand": "left"
    },
    {
      "midi": 53,
      "time": 59.727,
      "duration": 0.136,
      "velocity": 0.74,
      "hand": "left"
    },
    {
      "midi": 71,
      "time": 59.727,
      "duration": 0.273,
      "velocity": 0.56,
      "hand": "right"
    },
    {
      "midi": 77,
      "time": 59.727,
      "duration": 0.136,
      "velocity": 0.72,
      "hand": "right"
    },
    {
      "midi": 82,
      "time": 59.727,
      "duration": 0.136,
      "velocity": 0.57,
      "hand": "right"
    },
    {
      "midi": 67,
      "time": 60,
      "duration": 0.257,
      "velocity": 0.74,
      "hand": "right"
    },
    {
      "midi": 36,
      "time": 60.272,
      "duration": 0.068,
      "velocity": 0.67,
      "hand": "left"
    },
    {
      "midi": 38,
      "time": 60.272,
      "duration": 0.068,
      "velocity": 0.55,
      "hand": "left"
    },
    {
      "midi": 71,
      "time": 60.272,
      "duration": 0.136,
      "velocity": 0.68,
      "hand": "right"
    },
    {
      "midi": 77,
      "time": 60.272,
      "duration": 0.136,
      "velocity": 0.76,
      "hand": "right"
    },
    {
      "midi": 82,
      "time": 60.272,
      "duration": 0.136,
      "velocity": 0.68,
      "hand": "right"
    },
    {
      "midi": 36,
      "time": 60.545,
      "duration": 0.068,
      "velocity": 0.57,
      "hand": "left"
    },
    {
      "midi": 41,
      "time": 60.545,
      "duration": 0.068,
      "velocity": 0.75,
      "hand": "left"
    },
    {
      "midi": 36,
      "time": 60.818,
      "duration": 0.068,
      "velocity": 0.67,
      "hand": "left"
    },
    {
      "midi": 38,
      "time": 60.818,
      "duration": 0.068,
      "velocity": 0.55,
      "hand": "left"
    },
    {
      "midi": 71,
      "time": 60.818,
      "duration": 0.136,
      "velocity": 0.69,
      "hand": "right"
    },
    {
      "midi": 77,
      "time": 60.818,
      "duration": 0.136,
      "velocity": 0.76,
      "hand": "right"
    },
    {
      "midi": 82,
      "time": 60.818,
      "duration": 0.136,
      "velocity": 0.68,
      "hand": "right"
    },
    {
      "midi": 55,
      "time": 61.091,
      "duration": 0.273,
      "velocity": 0.85,
      "hand": "left"
    },
    {
      "midi": 57,
      "time": 61.091,
      "duration": 0.257,
      "velocity": 0.83,
      "hand": "left"
    },
    {
      "midi": 62,
      "time": 61.091,
      "duration": 0.257,
      "velocity": 0.94,
      "hand": "right"
    },
    {
      "midi": 64,
      "time": 61.091,
      "duration": 0.273,
      "velocity": 0.58,
      "hand": "right"
    },
    {
      "midi": 67,
      "time": 61.091,
      "duration": 0.257,
      "velocity": 0.93,
      "hand": "right"
    },
    {
      "midi": 36,
      "time": 61.363,
      "duration": 0.068,
      "velocity": 0.67,
      "hand": "left"
    },
    {
      "midi": 38,
      "time": 61.363,
      "duration": 0.068,
      "velocity": 0.55,
      "hand": "left"
    },
    {
      "midi": 71,
      "time": 61.363,
      "duration": 0.273,
      "velocity": 0.79,
      "hand": "right"
    },
    {
      "midi": 77,
      "time": 61.363,
      "duration": 0.273,
      "velocity": 0.79,
      "hand": "right"
    },
    {
      "midi": 82,
      "time": 61.363,
      "duration": 0.273,
      "velocity": 0.79,
      "hand": "right"
    },
    {
      "midi": 36,
      "time": 61.636,
      "duration": 0.068,
      "velocity": 0.67,
      "hand": "left"
    },
    {
      "midi": 38,
      "time": 61.636,
      "duration": 0.068,
      "velocity": 0.55,
      "hand": "left"
    },
    {
      "midi": 64,
      "time": 61.636,
      "duration": 0.273,
      "velocity": 0.74,
      "hand": "right"
    },
    {
      "midi": 47,
      "time": 61.909,
      "duration": 0.136,
      "velocity": 0.89,
      "hand": "left"
    },
    {
      "midi": 53,
      "time": 61.909,
      "duration": 0.136,
      "velocity": 0.74,
      "hand": "left"
    },
    {
      "midi": 62,
      "time": 61.909,
      "duration": 0.136,
      "velocity": 0.64,
      "hand": "right"
    },
    {
      "midi": 65,
      "time": 61.909,
      "duration": 0.136,
      "velocity": 0.58,
      "hand": "right"
    },
    {
      "midi": 38,
      "time": 62.182,
      "duration": 0.068,
      "velocity": 0.55,
      "hand": "left"
    },
    {
      "midi": 40,
      "time": 62.182,
      "duration": 0.257,
      "velocity": 0.95,
      "hand": "left"
    },
    {
      "midi": 62,
      "time": 62.182,
      "duration": 0.394,
      "velocity": 0.84,
      "hand": "right"
    },
    {
      "midi": 67,
      "time": 62.182,
      "duration": 0.409,
      "velocity": 0.65,
      "hand": "right"
    },
    {
      "midi": 69,
      "time": 62.182,
      "duration": 0.394,
      "velocity": 0.85,
      "hand": "right"
    },
    {
      "midi": 38,
      "time": 62.454,
      "duration": 0.068,
      "velocity": 0.55,
      "hand": "left"
    },
    {
      "midi": 40,
      "time": 62.454,
      "duration": 0.068,
      "velocity": 0.69,
      "hand": "left"
    },
    {
      "midi": 55,
      "time": 62.591,
      "duration": 0.068,
      "velocity": 0.55,
      "hand": "left"
    },
    {
      "midi": 59,
      "time": 62.591,
      "duration": 0.068,
      "velocity": 0.63,
      "hand": "left"
    },
    {
      "midi": 62,
      "time": 62.591,
      "duration": 0.068,
      "velocity": 0.73,
      "hand": "right"
    },
    {
      "midi": 66,
      "time": 62.591,
      "duration": 0.068,
      "velocity": 0.73,
      "hand": "right"
    },
    {
      "midi": 69,
      "time": 62.591,
      "duration": 0.068,
      "velocity": 0.56,
      "hand": "right"
    },
    {
      "midi": 36,
      "time": 62.727,
      "duration": 0.068,
      "velocity": 0.8,
      "hand": "left"
    },
    {
      "midi": 38,
      "time": 62.727,
      "duration": 0.068,
      "velocity": 0.55,
      "hand": "left"
    },
    {
      "midi": 62,
      "time": 62.727,
      "duration": 0.068,
      "velocity": 0.53,
      "hand": "right"
    },
    {
      "midi": 67,
      "time": 62.727,
      "duration": 0.121,
      "velocity": 0.63,
      "hand": "right"
    },
    {
      "midi": 38,
      "time": 62.863,
      "duration": 0.068,
      "velocity": 0.55,
      "hand": "left"
    },
    {
      "midi": 40,
      "time": 62.863,
      "duration": 0.068,
      "velocity": 0.62,
      "hand": "left"
    },
    {
      "midi": 67,
      "time": 62.863,
      "duration": 0.136,
      "velocity": 0.57,
      "hand": "right"
    },
    {
      "midi": 38,
      "time": 63,
      "duration": 0.068,
      "velocity": 0.55,
      "hand": "left"
    },
    {
      "midi": 45,
      "time": 63,
      "duration": 0.136,
      "velocity": 0.68,
      "hand": "left"
    },
    {
      "midi": 62,
      "time": 63,
      "duration": 0.068,
      "velocity": 0.64,
      "hand": "right"
    },
    {
      "midi": 66,
      "time": 63,
      "duration": 0.068,
      "velocity": 0.52,
      "hand": "right"
    },
    {
      "midi": 69,
      "time": 63,
      "duration": 0.136,
      "velocity": 0.68,
      "hand": "right"
    },
    {
      "midi": 71,
      "time": 63,
      "duration": 0.136,
      "velocity": 0.73,
      "hand": "right"
    },
    {
      "midi": 38,
      "time": 63.136,
      "duration": 0.068,
      "velocity": 0.55,
      "hand": "left"
    },
    {
      "midi": 48,
      "time": 63.136,
      "duration": 0.136,
      "velocity": 0.53,
      "hand": "left"
    },
    {
      "midi": 60,
      "time": 63.136,
      "duration": 0.136,
      "velocity": 0.53,
      "hand": "right"
    },
    {
      "midi": 62,
      "time": 63.136,
      "duration": 0.121,
      "velocity": 0.72,
      "hand": "right"
    },
    {
      "midi": 72,
      "time": 63.136,
      "duration": 0.136,
      "velocity": 0.53,
      "hand": "right"
    },
    {
      "midi": 38,
      "time": 63.272,
      "duration": 0.068,
      "velocity": 0.55,
      "hand": "left"
    },
    {
      "midi": 40,
      "time": 63.272,
      "duration": 0.395,
      "velocity": 0.91,
      "hand": "left"
    },
    {
      "midi": 67,
      "time": 63.272,
      "duration": 0.409,
      "velocity": 0.68,
      "hand": "right"
    },
    {
      "midi": 69,
      "time": 63.272,
      "duration": 0.531,
      "velocity": 0.87,
      "hand": "right"
    },
    {
      "midi": 74,
      "time": 63.272,
      "duration": 0.273,
      "velocity": 0.54,
      "hand": "right"
    },
    {
      "midi": 46,
      "time": 63.545,
      "duration": 0.068,
      "velocity": 0.64,
      "hand": "left"
    },
    {
      "midi": 48,
      "time": 63.545,
      "duration": 0.273,
      "velocity": 0.76,
      "hand": "left"
    },
    {
      "midi": 60,
      "time": 63.545,
      "duration": 0.273,
      "velocity": 0.76,
      "hand": "right"
    },
    {
      "midi": 62,
      "time": 63.545,
      "duration": 0.068,
      "velocity": 0.56,
      "hand": "right"
    },
    {
      "midi": 66,
      "time": 63.545,
      "duration": 0.258,
      "velocity": 1,
      "hand": "right"
    },
    {
      "midi": 72,
      "time": 63.545,
      "duration": 0.273,
      "velocity": 0.76,
      "hand": "right"
    },
    {
      "midi": 38,
      "time": 63.682,
      "duration": 0.068,
      "velocity": 0.55,
      "hand": "left"
    },
    {
      "midi": 40,
      "time": 63.682,
      "duration": 0.068,
      "velocity": 0.73,
      "hand": "left"
    },
    {
      "midi": 36,
      "time": 63.818,
      "duration": 0.068,
      "velocity": 0.8,
      "hand": "left"
    },
    {
      "midi": 38,
      "time": 63.818,
      "duration": 0.068,
      "velocity": 0.55,
      "hand": "left"
    },
    {
      "midi": 62,
      "time": 63.818,
      "duration": 0.273,
      "velocity": 0.57,
      "hand": "right"
    },
    {
      "midi": 66,
      "time": 63.818,
      "duration": 0.273,
      "velocity": 0.52,
      "hand": "right"
    },
    {
      "midi": 69,
      "time": 63.818,
      "duration": 0.258,
      "velocity": 0.54,
      "hand": "right"
    },
    {
      "midi": 71,
      "time": 63.818,
      "duration": 0.273,
      "velocity": 0.69,
      "hand": "right"
    },
    {
      "midi": 38,
      "time": 64.091,
      "duration": 0.068,
      "velocity": 0.55,
      "hand": "left"
    },
    {
      "midi": 40,
      "time": 64.091,
      "duration": 0.273,
      "velocity": 0.95,
      "hand": "left"
    },
    {
      "midi": 67,
      "time": 64.091,
      "duration": 0.257,
      "velocity": 0.52,
      "hand": "right"
    },
    {
      "midi": 69,
      "time": 64.091,
      "duration": 0.273,
      "velocity": 0.69,
      "hand": "right"
    },
    {
      "midi": 38,
      "time": 64.363,
      "duration": 0.258,
      "velocity": 0.84,
      "hand": "left"
    },
    {
      "midi": 42,
      "time": 64.363,
      "duration": 0.068,
      "velocity": 0.71,
      "hand": "left"
    },
    {
      "midi": 65,
      "time": 64.363,
      "duration": 0.409,
      "velocity": 0.59,
      "hand": "right"
    },
    {
      "midi": 67,
      "time": 64.363,
      "duration": 0.531,
      "velocity": 0.95,
      "hand": "right"
    },
    {
      "midi": 72,
      "time": 64.363,
      "duration": 0.545,
      "velocity": 0.72,
      "hand": "right"
    },
    {
      "midi": 38,
      "time": 64.636,
      "duration": 0.068,
      "velocity": 0.55,
      "hand": "left"
    },
    {
      "midi": 40,
      "time": 64.636,
      "duration": 0.068,
      "velocity": 0.65,
      "hand": "left"
    },
    {
      "midi": 53,
      "time": 64.772,
      "duration": 0.068,
      "velocity": 0.57,
      "hand": "left"
    },
    {
      "midi": 57,
      "time": 64.772,
      "duration": 0.068,
      "velocity": 0.49,
      "hand": "left"
    },
    {
      "midi": 60,
      "time": 64.772,
      "duration": 0.068,
      "velocity": 0.68,
      "hand": "right"
    },
    {
      "midi": 64,
      "time": 64.772,
      "duration": 0.068,
      "velocity": 0.54,
      "hand": "right"
    },
    {
      "midi": 36,
      "time": 64.909,
      "duration": 0.068,
      "velocity": 0.8,
      "hand": "left"
    },
    {
      "midi": 38,
      "time": 64.909,
      "duration": 0.068,
      "velocity": 0.55,
      "hand": "left"
    },
    {
      "midi": 65,
      "time": 64.909,
      "duration": 0.409,
      "velocity": 0.7,
      "hand": "right"
    },
    {
      "midi": 67,
      "time": 64.909,
      "duration": 0.273,
      "velocity": 0.77,
      "hand": "right"
    },
    {
      "midi": 69,
      "time": 64.909,
      "duration": 0.53,
      "velocity": 0.72,
      "hand": "right"
    },
    {
      "midi": 38,
      "time": 65.045,
      "duration": 0.068,
      "velocity": 0.55,
      "hand": "left"
    },
    {
      "midi": 40,
      "time": 65.045,
      "duration": 0.068,
      "velocity": 0.76,
      "hand": "left"
    },
    {
      "midi": 38,
      "time": 65.182,
      "duration": 0.068,
      "velocity": 0.55,
      "hand": "left"
    },
    {
      "midi": 46,
      "time": 65.182,
      "duration": 0.068,
      "velocity": 0.64,
      "hand": "left"
    },
    {
      "midi": 60,
      "time": 65.182,
      "duration": 0.136,
      "velocity": 0.68,
      "hand": "right"
    },
    {
      "midi": 64,
      "time": 65.182,
      "duration": 0.136,
      "velocity": 0.57,
      "hand": "right"
    },
    {
      "midi": 38,
      "time": 65.318,
      "duration": 0.068,
      "velocity": 0.55,
      "hand": "left"
    },
    {
      "midi": 38,
      "time": 65.454,
      "duration": 0.394,
      "velocity": 0.94,
      "hand": "left"
    },
    {
      "midi": 40,
      "time": 65.454,
      "duration": 0.068,
      "velocity": 0.71,
      "hand": "left"
    },
    {
      "midi": 62,
      "time": 65.454,
      "duration": 0.531,
      "velocity": 0.92,
      "hand": "right"
    },
    {
      "midi": 65,
      "time": 65.454,
      "duration": 0.409,
      "velocity": 0.65,
      "hand": "right"
    },
    {
      "midi": 69,
      "time": 65.454,
      "duration": 0.531,
      "velocity": 1,
      "hand": "right"
    },
    {
      "midi": 46,
      "time": 65.727,
      "duration": 0.068,
      "velocity": 0.64,
      "hand": "left"
    },
    {
      "midi": 54,
      "time": 65.727,
      "duration": 0.068,
      "velocity": 0.61,
      "hand": "left"
    },
    {
      "midi": 38,
      "time": 65.863,
      "duration": 0.068,
      "velocity": 0.55,
      "hand": "left"
    },
    {
      "midi": 40,
      "time": 65.863,
      "duration": 0.068,
      "velocity": 0.67,
      "hand": "left"
    },
    {
      "midi": 61,
      "time": 65.863,
      "duration": 0.068,
      "velocity": 0.4,
      "hand": "right"
    },
    {
      "midi": 63,
      "time": 65.863,
      "duration": 0.273,
      "velocity": 0.56,
      "hand": "right"
    },
    {
      "midi": 36,
      "time": 66,
      "duration": 0.068,
      "velocity": 0.76,
      "hand": "left"
    },
    {
      "midi": 38,
      "time": 66,
      "duration": 0.068,
      "velocity": 0.55,
      "hand": "left"
    },
    {
      "midi": 62,
      "time": 66,
      "duration": 0.121,
      "velocity": 0.86,
      "hand": "right"
    },
    {
      "midi": 64,
      "time": 66,
      "duration": 0.273,
      "velocity": 0.56,
      "hand": "right"
    },
    {
      "midi": 67,
      "time": 66,
      "duration": 0.273,
      "velocity": 0.98,
      "hand": "right"
    },
    {
      "midi": 69,
      "time": 66,
      "duration": 0.273,
      "velocity": 0.87,
      "hand": "right"
    },
    {
      "midi": 53,
      "time": 66.136,
      "duration": 0.136,
      "velocity": 0.56,
      "hand": "left"
    },
    {
      "midi": 57,
      "time": 66.136,
      "duration": 0.136,
      "velocity": 0.53,
      "hand": "left"
    },
    {
      "midi": 62,
      "time": 66.136,
      "duration": 0.136,
      "velocity": 0.56,
      "hand": "right"
    },
    {
      "midi": 38,
      "time": 66.272,
      "duration": 0.068,
      "velocity": 0.55,
      "hand": "left"
    },
    {
      "midi": 40,
      "time": 66.272,
      "duration": 0.068,
      "velocity": 0.64,
      "hand": "left"
    },
    {
      "midi": 65,
      "time": 66.272,
      "duration": 0.258,
      "velocity": 0.59,
      "hand": "right"
    },
    {
      "midi": 38,
      "time": 66.545,
      "duration": 0.068,
      "velocity": 0.55,
      "hand": "left"
    },
    {
      "midi": 42,
      "time": 66.545,
      "duration": 0.068,
      "velocity": 0.71,
      "hand": "left"
    },
    {
      "midi": 60,
      "time": 66.545,
      "duration": 0.394,
      "velocity": 1,
      "hand": "right"
    },
    {
      "midi": 65,
      "time": 66.545,
      "duration": 0.531,
      "velocity": 1,
      "hand": "right"
    },
    {
      "midi": 40,
      "time": 66.682,
      "duration": 0.068,
      "velocity": 0.69,
      "hand": "left"
    },
    {
      "midi": 38,
      "time": 66.818,
      "duration": 0.068,
      "velocity": 0.55,
      "hand": "left"
    },
    {
      "midi": 46,
      "time": 66.818,
      "duration": 0.068,
      "velocity": 0.64,
      "hand": "left"
    },
    {
      "midi": 53,
      "time": 66.954,
      "duration": 0.068,
      "velocity": 0.61,
      "hand": "left"
    },
    {
      "midi": 55,
      "time": 66.954,
      "duration": 0.068,
      "velocity": 0.72,
      "hand": "left"
    },
    {
      "midi": 60,
      "time": 66.954,
      "duration": 0.068,
      "velocity": 0.56,
      "hand": "right"
    },
    {
      "midi": 36,
      "time": 67.091,
      "duration": 0.068,
      "velocity": 0.76,
      "hand": "left"
    },
    {
      "midi": 38,
      "time": 67.091,
      "duration": 0.121,
      "velocity": 0.97,
      "hand": "left"
    },
    {
      "midi": 60,
      "time": 67.091,
      "duration": 0.257,
      "velocity": 0.91,
      "hand": "right"
    },
    {
      "midi": 65,
      "time": 67.091,
      "duration": 0.257,
      "velocity": 0.95,
      "hand": "right"
    },
    {
      "midi": 38,
      "time": 67.227,
      "duration": 0.068,
      "velocity": 0.55,
      "hand": "left"
    },
    {
      "midi": 38,
      "time": 67.363,
      "duration": 0.068,
      "velocity": 0.55,
      "hand": "left"
    },
    {
      "midi": 43,
      "time": 67.363,
      "duration": 0.273,
      "velocity": 0.92,
      "hand": "left"
    },
    {
      "midi": 65,
      "time": 67.363,
      "duration": 0.136,
      "velocity": 0.54,
      "hand": "right"
    },
    {
      "midi": 67,
      "time": 67.363,
      "duration": 0.136,
      "velocity": 0.59,
      "hand": "right"
    },
    {
      "midi": 77,
      "time": 67.363,
      "duration": 0.136,
      "velocity": 0.54,
      "hand": "right"
    },
    {
      "midi": 79,
      "time": 67.363,
      "duration": 0.136,
      "velocity": 0.59,
      "hand": "right"
    },
    {
      "midi": 38,
      "time": 67.5,
      "duration": 0.068,
      "velocity": 0.55,
      "hand": "left"
    },
    {
      "midi": 52,
      "time": 67.5,
      "duration": 0.121,
      "velocity": 0.73,
      "hand": "left"
    },
    {
      "midi": 64,
      "time": 67.5,
      "duration": 0.121,
      "velocity": 0.73,
      "hand": "right"
    },
    {
      "midi": 76,
      "time": 67.5,
      "duration": 0.136,
      "velocity": 0.73,
      "hand": "right"
    },
    {
      "midi": 38,
      "time": 67.636,
      "duration": 0.273,
      "velocity": 1,
      "hand": "left"
    },
    {
      "midi": 42,
      "time": 67.636,
      "duration": 0.068,
      "velocity": 0.71,
      "hand": "left"
    },
    {
      "midi": 60,
      "time": 67.636,
      "duration": 0.531,
      "velocity": 0.9,
      "hand": "right"
    },
    {
      "midi": 62,
      "time": 67.636,
      "duration": 0.136,
      "velocity": 0.78,
      "hand": "right"
    },
    {
      "midi": 64,
      "time": 67.636,
      "duration": 0.121,
      "velocity": 0.97,
      "hand": "right"
    },
    {
      "midi": 74,
      "time": 67.636,
      "duration": 0.136,
      "velocity": 0.78,
      "hand": "right"
    },
    {
      "midi": 52,
      "time": 67.772,
      "duration": 0.273,
      "velocity": 0.74,
      "hand": "left"
    },
    {
      "midi": 64,
      "time": 67.772,
      "duration": 0.273,
      "velocity": 0.74,
      "hand": "right"
    },
    {
      "midi": 76,
      "time": 67.772,
      "duration": 0.273,
      "velocity": 0.74,
      "hand": "right"
    },
    {
      "midi": 42,
      "time": 67.909,
      "duration": 0.258,
      "velocity": 0.95,
      "hand": "left"
    },
    {
      "midi": 46,
      "time": 67.909,
      "duration": 0.068,
      "velocity": 0.64,
      "hand": "left"
    },
    {
      "midi": 38,
      "time": 68.045,
      "duration": 0.068,
      "velocity": 0.55,
      "hand": "left"
    },
    {
      "midi": 40,
      "time": 68.045,
      "duration": 0.068,
      "velocity": 0.64,
      "hand": "left"
    },
    {
      "midi": 36,
      "time": 68.182,
      "duration": 0.068,
      "velocity": 0.8,
      "hand": "left"
    },
    {
      "midi": 38,
      "time": 68.182,
      "duration": 0.257,
      "velocity": 0.87,
      "hand": "left"
    },
    {
      "midi": 60,
      "time": 68.182,
      "duration": 0.121,
      "velocity": 0.58,
      "hand": "right"
    },
    {
      "midi": 62,
      "time": 68.182,
      "duration": 0.273,
      "velocity": 0.75,
      "hand": "right"
    },
    {
      "midi": 74,
      "time": 68.182,
      "duration": 0.273,
      "velocity": 0.75,
      "hand": "right"
    },
    {
      "midi": 48,
      "time": 68.318,
      "duration": 0.136,
      "velocity": 0.76,
      "hand": "left"
    },
    {
      "midi": 60,
      "time": 68.318,
      "duration": 0.121,
      "velocity": 0.76,
      "hand": "right"
    },
    {
      "midi": 72,
      "time": 68.318,
      "duration": 0.136,
      "velocity": 0.76,
      "hand": "right"
    },
    {
      "midi": 38,
      "time": 68.454,
      "duration": 0.068,
      "velocity": 0.55,
      "hand": "left"
    },
    {
      "midi": 40,
      "time": 68.454,
      "duration": 0.068,
      "velocity": 0.64,
      "hand": "left"
    },
    {
      "midi": 60,
      "time": 68.454,
      "duration": 0.122,
      "velocity": 0.7,
      "hand": "right"
    },
    {
      "midi": 57,
      "time": 68.591,
      "duration": 0.121,
      "velocity": 0.81,
      "hand": "left"
    },
    {
      "midi": 60,
      "time": 68.591,
      "duration": 0.121,
      "velocity": 0.57,
      "hand": "right"
    },
    {
      "midi": 38,
      "time": 68.727,
      "duration": 0.068,
      "velocity": 0.55,
      "hand": "left"
    },
    {
      "midi": 41,
      "time": 68.727,
      "duration": 0.53,
      "velocity": 0.8,
      "hand": "left"
    },
    {
      "midi": 65,
      "time": 68.727,
      "duration": 0.818,
      "velocity": 1,
      "hand": "right"
    },
    {
      "midi": 67,
      "time": 68.727,
      "duration": 0.818,
      "velocity": 0.95,
      "hand": "right"
    },
    {
      "midi": 69,
      "time": 68.727,
      "duration": 0.258,
      "velocity": 0.72,
      "hand": "right"
    },
    {
      "midi": 38,
      "time": 69,
      "duration": 0.068,
      "velocity": 0.55,
      "hand": "left"
    },
    {
      "midi": 40,
      "time": 69,
      "duration": 0.068,
      "velocity": 0.65,
      "hand": "left"
    },
    {
      "midi": 64,
      "time": 69,
      "duration": 0.121,
      "velocity": 1,
      "hand": "right"
    },
    {
      "midi": 69,
      "time": 69,
      "duration": 0.257,
      "velocity": 0.81,
      "hand": "right"
    },
    {
      "midi": 53,
      "time": 69.136,
      "duration": 0.068,
      "velocity": 0.56,
      "hand": "left"
    },
    {
      "midi": 57,
      "time": 69.136,
      "duration": 0.068,
      "velocity": 0.61,
      "hand": "left"
    },
    {
      "midi": 60,
      "time": 69.136,
      "duration": 0.068,
      "velocity": 0.63,
      "hand": "right"
    },
    {
      "midi": 64,
      "time": 69.136,
      "duration": 0.068,
      "velocity": 0.52,
      "hand": "right"
    },
    {
      "midi": 36,
      "time": 69.272,
      "duration": 0.068,
      "velocity": 0.76,
      "hand": "left"
    },
    {
      "midi": 38,
      "time": 69.272,
      "duration": 0.068,
      "velocity": 0.55,
      "hand": "left"
    },
    {
      "midi": 60,
      "time": 69.272,
      "duration": 0.258,
      "velocity": 0.91,
      "hand": "right"
    },
    {
      "midi": 64,
      "time": 69.272,
      "duration": 0.258,
      "velocity": 0.52,
      "hand": "right"
    },
    {
      "midi": 69,
      "time": 69.272,
      "duration": 0.409,
      "velocity": 0.72,
      "hand": "right"
    },
    {
      "midi": 72,
      "time": 69.272,
      "duration": 0.136,
      "velocity": 0.91,
      "hand": "right"
    },
    {
      "midi": 38,
      "time": 69.409,
      "duration": 0.068,
      "velocity": 0.55,
      "hand": "left"
    },
    {
      "midi": 40,
      "time": 69.409,
      "duration": 0.068,
      "velocity": 0.72,
      "hand": "left"
    },
    {
      "midi": 36,
      "time": 69.545,
      "duration": 0.273,
      "velocity": 0.8,
      "hand": "left"
    },
    {
      "midi": 38,
      "time": 69.545,
      "duration": 0.068,
      "velocity": 0.55,
      "hand": "left"
    },
    {
      "midi": 60,
      "time": 69.545,
      "duration": 0.136,
      "velocity": 0.61,
      "hand": "right"
    },
    {
      "midi": 64,
      "time": 69.545,
      "duration": 0.273,
      "velocity": 0.76,
      "hand": "right"
    },
    {
      "midi": 76,
      "time": 69.545,
      "duration": 0.273,
      "velocity": 0.76,
      "hand": "right"
    },
    {
      "midi": 38,
      "time": 69.682,
      "duration": 0.068,
      "velocity": 0.55,
      "hand": "left"
    },
    {
      "midi": 62,
      "time": 69.682,
      "duration": 0.121,
      "velocity": 0.61,
      "hand": "right"
    },
    {
      "midi": 38,
      "time": 69.818,
      "duration": 0.068,
      "velocity": 0.55,
      "hand": "left"
    },
    {
      "midi": 40,
      "time": 69.818,
      "duration": 0.068,
      "velocity": 0.64,
      "hand": "left"
    },
    {
      "midi": 63,
      "time": 69.818,
      "duration": 0.258,
      "velocity": 0.82,
      "hand": "right"
    },
    {
      "midi": 67,
      "time": 69.818,
      "duration": 0.955,
      "velocity": 0.91,
      "hand": "right"
    },
    {
      "midi": 69,
      "time": 69.818,
      "duration": 0.409,
      "velocity": 0.72,
      "hand": "right"
    },
    {
      "midi": 79,
      "time": 69.818,
      "duration": 0.682,
      "velocity": 0.74,
      "hand": "right"
    },
    {
      "midi": 46,
      "time": 70.091,
      "duration": 0.068,
      "velocity": 0.64,
      "hand": "left"
    },
    {
      "midi": 53,
      "time": 70.091,
      "duration": 0.068,
      "velocity": 0.56,
      "hand": "left"
    },
    {
      "midi": 60,
      "time": 70.091,
      "duration": 0.068,
      "velocity": 0.56,
      "hand": "right"
    },
    {
      "midi": 63,
      "time": 70.091,
      "duration": 0.136,
      "velocity": 0.54,
      "hand": "right"
    },
    {
      "midi": 38,
      "time": 70.227,
      "duration": 0.068,
      "velocity": 0.55,
      "hand": "left"
    },
    {
      "midi": 40,
      "time": 70.227,
      "duration": 0.068,
      "velocity": 0.62,
      "hand": "left"
    },
    {
      "midi": 36,
      "time": 70.363,
      "duration": 0.068,
      "velocity": 0.8,
      "hand": "left"
    },
    {
      "midi": 38,
      "time": 70.363,
      "duration": 0.068,
      "velocity": 0.55,
      "hand": "left"
    },
    {
      "midi": 60,
      "time": 70.363,
      "duration": 0.273,
      "velocity": 0.74,
      "hand": "right"
    },
    {
      "midi": 63,
      "time": 70.363,
      "duration": 0.273,
      "velocity": 0.61,
      "hand": "right"
    },
    {
      "midi": 71,
      "time": 70.363,
      "duration": 0.273,
      "velocity": 0.56,
      "hand": "right"
    },
    {
      "midi": 52,
      "time": 70.5,
      "duration": 0.136,
      "velocity": 0.58,
      "hand": "left"
    },
    {
      "midi": 64,
      "time": 70.5,
      "duration": 0.136,
      "velocity": 0.58,
      "hand": "right"
    },
    {
      "midi": 76,
      "time": 70.5,
      "duration": 0.136,
      "velocity": 0.58,
      "hand": "right"
    },
    {
      "midi": 38,
      "time": 70.636,
      "duration": 0.068,
      "velocity": 0.55,
      "hand": "left"
    },
    {
      "midi": 40,
      "time": 70.636,
      "duration": 0.068,
      "velocity": 0.63,
      "hand": "left"
    },
    {
      "midi": 62,
      "time": 70.636,
      "duration": 0.136,
      "velocity": 0.65,
      "hand": "right"
    },
    {
      "midi": 69,
      "time": 70.636,
      "duration": 0.258,
      "velocity": 0.55,
      "hand": "right"
    },
    {
      "midi": 74,
      "time": 70.636,
      "duration": 0.136,
      "velocity": 0.65,
      "hand": "right"
    },
    {
      "midi": 48,
      "time": 70.772,
      "duration": 0.136,
      "velocity": 0.68,
      "hand": "left"
    },
    {
      "midi": 60,
      "time": 70.772,
      "duration": 0.136,
      "velocity": 0.68,
      "hand": "right"
    },
    {
      "midi": 72,
      "time": 70.772,
      "duration": 0.136,
      "velocity": 0.68,
      "hand": "right"
    },
    {
      "midi": 38,
      "time": 70.909,
      "duration": 0.068,
      "velocity": 0.55,
      "hand": "left"
    },
    {
      "midi": 40,
      "time": 70.909,
      "duration": 0.258,
      "velocity": 0.94,
      "hand": "left"
    },
    {
      "midi": 67,
      "time": 70.909,
      "duration": 0.409,
      "velocity": 0.59,
      "hand": "right"
    },
    {
      "midi": 69,
      "time": 70.909,
      "duration": 0.258,
      "velocity": 0.86,
      "hand": "right"
    },
    {
      "midi": 76,
      "time": 70.909,
      "duration": 0.682,
      "velocity": 0.73,
      "hand": "right"
    },
    {
      "midi": 38,
      "time": 71.182,
      "duration": 0.068,
      "velocity": 0.55,
      "hand": "left"
    },
    {
      "midi": 40,
      "time": 71.182,
      "duration": 0.068,
      "velocity": 0.71,
      "hand": "left"
    },
    {
      "midi": 62,
      "time": 71.182,
      "duration": 0.068,
      "velocity": 0.72,
      "hand": "right"
    },
    {
      "midi": 66,
      "time": 71.182,
      "duration": 0.068,
      "velocity": 0.61,
      "hand": "right"
    },
    {
      "midi": 69,
      "time": 71.182,
      "duration": 0.068,
      "velocity": 0.53,
      "hand": "right"
    },
    {
      "midi": 55,
      "time": 71.318,
      "duration": 0.068,
      "velocity": 0.63,
      "hand": "left"
    },
    {
      "midi": 59,
      "time": 71.318,
      "duration": 0.068,
      "velocity": 0.65,
      "hand": "left"
    },
    {
      "midi": 62,
      "time": 71.318,
      "duration": 0.068,
      "velocity": 0.63,
      "hand": "right"
    },
    {
      "midi": 66,
      "time": 71.318,
      "duration": 0.068,
      "velocity": 0.52,
      "hand": "right"
    },
    {
      "midi": 36,
      "time": 71.454,
      "duration": 0.068,
      "velocity": 0.76,
      "hand": "left"
    },
    {
      "midi": 38,
      "time": 71.454,
      "duration": 0.068,
      "velocity": 0.55,
      "hand": "left"
    },
    {
      "midi": 62,
      "time": 71.454,
      "duration": 0.258,
      "velocity": 0.86,
      "hand": "right"
    },
    {
      "midi": 67,
      "time": 71.454,
      "duration": 0.409,
      "velocity": 0.64,
      "hand": "right"
    },
    {
      "midi": 69,
      "time": 71.454,
      "duration": 0.258,
      "velocity": 0.87,
      "hand": "right"
    },
    {
      "midi": 38,
      "time": 71.591,
      "duration": 0.068,
      "velocity": 0.55,
      "hand": "left"
    },
    {
      "midi": 40,
      "time": 71.591,
      "duration": 0.068,
      "velocity": 0.65,
      "hand": "left"
    },
    {
      "midi": 38,
      "time": 71.727,
      "duration": 0.068,
      "velocity": 0.55,
      "hand": "left"
    },
    {
      "midi": 40,
      "time": 71.727,
      "duration": 0.258,
      "velocity": 0.83,
      "hand": "left"
    },
    {
      "midi": 62,
      "time": 71.727,
      "duration": 0.136,
      "velocity": 0.61,
      "hand": "right"
    },
    {
      "midi": 66,
      "time": 71.727,
      "duration": 0.136,
      "velocity": 0.54,
      "hand": "right"
    },
    {
      "midi": 69,
      "time": 71.727,
      "duration": 0.068,
      "velocity": 0.56,
      "hand": "right"
    },
    {
      "midi": 38,
      "time": 71.863,
      "duration": 0.068,
      "velocity": 0.55,
      "hand": "left"
    },
    {
      "midi": 39,
      "time": 72,
      "duration": 0.545,
      "velocity": 0.85,
      "hand": "left"
    },
    {
      "midi": 65,
      "time": 72,
      "duration": 0.136,
      "velocity": 0.59,
      "hand": "right"
    },
    {
      "midi": 68,
      "time": 72,
      "duration": 0.53,
      "velocity": 0.92,
      "hand": "right"
    },
    {
      "midi": 46,
      "time": 72.272,
      "duration": 0.068,
      "velocity": 0.64,
      "hand": "left"
    },
    {
      "midi": 54,
      "time": 72.272,
      "duration": 0.068,
      "velocity": 0.72,
      "hand": "left"
    },
    {
      "midi": 61,
      "time": 72.272,
      "duration": 0.068,
      "velocity": 0.63,
      "hand": "right"
    },
    {
      "midi": 65,
      "time": 72.272,
      "duration": 0.068,
      "velocity": 0.54,
      "hand": "right"
    },
    {
      "midi": 38,
      "time": 72.409,
      "duration": 0.068,
      "velocity": 0.55,
      "hand": "left"
    },
    {
      "midi": 40,
      "time": 72.409,
      "duration": 0.068,
      "velocity": 0.8,
      "hand": "left"
    },
    {
      "midi": 36,
      "time": 72.545,
      "duration": 0.068,
      "velocity": 0.61,
      "hand": "left"
    },
    {
      "midi": 38,
      "time": 72.545,
      "duration": 0.068,
      "velocity": 0.55,
      "hand": "left"
    },
    {
      "midi": 61,
      "time": 72.545,
      "duration": 0.258,
      "velocity": 0.83,
      "hand": "right"
    },
    {
      "midi": 65,
      "time": 72.545,
      "duration": 0.068,
      "velocity": 0.7,
      "hand": "right"
    },
    {
      "midi": 68,
      "time": 72.545,
      "duration": 0.409,
      "velocity": 0.59,
      "hand": "right"
    },
    {
      "midi": 52,
      "time": 72.682,
      "duration": 0.136,
      "velocity": 0.73,
      "hand": "left"
    },
    {
      "midi": 64,
      "time": 72.682,
      "duration": 0.136,
      "velocity": 0.73,
      "hand": "right"
    },
    {
      "midi": 76,
      "time": 72.682,
      "duration": 0.136,
      "velocity": 0.73,
      "hand": "right"
    },
    {
      "midi": 39,
      "time": 72.818,
      "duration": 0.273,
      "velocity": 0.76,
      "hand": "left"
    },
    {
      "midi": 62,
      "time": 72.818,
      "duration": 0.136,
      "velocity": 0.72,
      "hand": "right"
    },
    {
      "midi": 65,
      "time": 72.818,
      "duration": 0.258,
      "velocity": 0.73,
      "hand": "right"
    },
    {
      "midi": 74,
      "time": 72.818,
      "duration": 0.136,
      "velocity": 0.72,
      "hand": "right"
    },
    {
      "midi": 48,
      "time": 72.954,
      "duration": 0.136,
      "velocity": 0.57,
      "hand": "left"
    },
    {
      "midi": 60,
      "time": 72.954,
      "duration": 0.122,
      "velocity": 0.57,
      "hand": "right"
    },
    {
      "midi": 72,
      "time": 72.954,
      "duration": 0.136,
      "velocity": 0.57,
      "hand": "right"
    },
    {
      "midi": 38,
      "time": 73.091,
      "duration": 0.394,
      "velocity": 0.87,
      "hand": "left"
    },
    {
      "midi": 42,
      "time": 73.091,
      "duration": 0.068,
      "velocity": 0.71,
      "hand": "left"
    },
    {
      "midi": 65,
      "time": 73.091,
      "duration": 0.682,
      "velocity": 1,
      "hand": "right"
    },
    {
      "midi": 67,
      "time": 73.091,
      "duration": 0.53,
      "velocity": 0.82,
      "hand": "right"
    },
    {
      "midi": 69,
      "time": 73.091,
      "duration": 0.682,
      "velocity": 0.93,
      "hand": "right"
    },
    {
      "midi": 74,
      "time": 73.091,
      "duration": 0.545,
      "velocity": 0.83,
      "hand": "right"
    },
    {
      "midi": 46,
      "time": 73.363,
      "duration": 0.068,
      "velocity": 0.64,
      "hand": "left"
    },
    {
      "midi": 54,
      "time": 73.363,
      "duration": 0.068,
      "velocity": 0.61,
      "hand": "left"
    },
    {
      "midi": 38,
      "time": 73.5,
      "duration": 0.068,
      "velocity": 0.55,
      "hand": "left"
    },
    {
      "midi": 40,
      "time": 73.5,
      "duration": 0.068,
      "velocity": 0.64,
      "hand": "left"
    },
    {
      "midi": 60,
      "time": 73.5,
      "duration": 0.068,
      "velocity": 0.59,
      "hand": "right"
    },
    {
      "midi": 64,
      "time": 73.5,
      "duration": 0.068,
      "velocity": 0.56,
      "hand": "right"
    },
    {
      "midi": 36,
      "time": 73.636,
      "duration": 0.068,
      "velocity": 0.8,
      "hand": "left"
    },
    {
      "midi": 38,
      "time": 73.636,
      "duration": 0.068,
      "velocity": 0.55,
      "hand": "left"
    },
    {
      "midi": 60,
      "time": 73.636,
      "duration": 0.136,
      "velocity": 0.87,
      "hand": "right"
    },
    {
      "midi": 64,
      "time": 73.636,
      "duration": 0.258,
      "velocity": 0.73,
      "hand": "right"
    },
    {
      "midi": 67,
      "time": 73.636,
      "duration": 0.136,
      "velocity": 0.8,
      "hand": "right"
    },
    {
      "midi": 76,
      "time": 73.636,
      "duration": 0.273,
      "velocity": 0.73,
      "hand": "right"
    },
    {
      "midi": 38,
      "time": 73.909,
      "duration": 0.258,
      "velocity": 0.8,
      "hand": "left"
    },
    {
      "midi": 40,
      "time": 73.909,
      "duration": 0.068,
      "velocity": 0.64,
      "hand": "left"
    },
    {
      "midi": 65,
      "time": 73.909,
      "duration": 0.136,
      "velocity": 0.57,
      "hand": "right"
    },
    {
      "midi": 67,
      "time": 73.909,
      "duration": 0.068,
      "velocity": 0.55,
      "hand": "right"
    },
    {
      "midi": 74,
      "time": 73.909,
      "duration": 0.136,
      "velocity": 0.7,
      "hand": "right"
    },
    {
      "midi": 38,
      "time": 74.182,
      "duration": 0.068,
      "velocity": 0.55,
      "hand": "left"
    },
    {
      "midi": 65,
      "time": 74.182,
      "duration": 0.257,
      "velocity": 0.95,
      "hand": "right"
    },
    {
      "midi": 68,
      "time": 74.182,
      "duration": 0.121,
      "velocity": 0.94,
      "hand": "right"
    },
    {
      "midi": 71,
      "time": 74.182,
      "duration": 0.394,
      "velocity": 0.96,
      "hand": "right"
    },
    {
      "midi": 44,
      "time": 74.318,
      "duration": 0.136,
      "velocity": 0.59,
      "hand": "left"
    },
    {
      "midi": 56,
      "time": 74.318,
      "duration": 0.136,
      "velocity": 0.59,
      "hand": "left"
    },
    {
      "midi": 68,
      "time": 74.318,
      "duration": 0.136,
      "velocity": 0.59,
      "hand": "right"
    },
    {
      "midi": 38,
      "time": 74.454,
      "duration": 0.068,
      "velocity": 0.55,
      "hand": "left"
    },
    {
      "midi": 40,
      "time": 74.454,
      "duration": 0.068,
      "velocity": 0.65,
      "hand": "left"
    },
    {
      "midi": 65,
      "time": 74.454,
      "duration": 0.136,
      "velocity": 0.53,
      "hand": "right"
    },
    {
      "midi": 69,
      "time": 74.454,
      "duration": 0.136,
      "velocity": 0.64,
      "hand": "right"
    },
    {
      "midi": 47,
      "time": 74.591,
      "duration": 0.121,
      "velocity": 0.51,
      "hand": "left"
    },
    {
      "midi": 71,
      "time": 74.591,
      "duration": 0.136,
      "velocity": 0.51,
      "hand": "right"
    },
    {
      "midi": 36,
      "time": 74.727,
      "duration": 0.068,
      "velocity": 0.76,
      "hand": "left"
    },
    {
      "midi": 38,
      "time": 74.727,
      "duration": 0.068,
      "velocity": 0.55,
      "hand": "left"
    },
    {
      "midi": 64,
      "time": 74.727,
      "duration": 0.136,
      "velocity": 0.65,
      "hand": "right"
    },
    {
      "midi": 67,
      "time": 74.727,
      "duration": 0.136,
      "velocity": 0.59,
      "hand": "right"
    },
    {
      "midi": 38,
      "time": 74.863,
      "duration": 0.068,
      "velocity": 0.55,
      "hand": "left"
    },
    {
      "midi": 40,
      "time": 74.863,
      "duration": 0.068,
      "velocity": 0.72,
      "hand": "left"
    },
    {
      "midi": 60,
      "time": 74.863,
      "duration": 0.136,
      "velocity": 0.68,
      "hand": "right"
    },
    {
      "midi": 72,
      "time": 74.863,
      "duration": 0.136,
      "velocity": 0.68,
      "hand": "right"
    },
    {
      "midi": 38,
      "time": 75,
      "duration": 0.068,
      "velocity": 0.55,
      "hand": "left"
    },
    {
      "midi": 61,
      "time": 75,
      "duration": 0.136,
      "velocity": 0.59,
      "hand": "right"
    },
    {
      "midi": 63,
      "time": 75,
      "duration": 0.068,
      "velocity": 0.4,
      "hand": "right"
    },
    {
      "midi": 73,
      "time": 75,
      "duration": 0.136,
      "velocity": 0.59,
      "hand": "right"
    },
    {
      "midi": 38,
      "time": 75.136,
      "duration": 0.068,
      "velocity": 0.55,
      "hand": "left"
    },
    {
      "midi": 50,
      "time": 75.136,
      "duration": 0.136,
      "velocity": 0.53,
      "hand": "left"
    },
    {
      "midi": 62,
      "time": 75.136,
      "duration": 0.121,
      "velocity": 0.53,
      "hand": "right"
    },
    {
      "midi": 74,
      "time": 75.136,
      "duration": 0.136,
      "velocity": 0.53,
      "hand": "right"
    },
    {
      "midi": 40,
      "time": 75.272,
      "duration": 0.395,
      "velocity": 0.95,
      "hand": "left"
    },
    {
      "midi": 42,
      "time": 75.272,
      "duration": 0.068,
      "velocity": 0.71,
      "hand": "left"
    },
    {
      "midi": 67,
      "time": 75.272,
      "duration": 0.545,
      "velocity": 0.91,
      "hand": "right"
    },
    {
      "midi": 69,
      "time": 75.272,
      "duration": 0.531,
      "velocity": 1,
      "hand": "right"
    },
    {
      "midi": 72,
      "time": 75.272,
      "duration": 0.682,
      "velocity": 0.86,
      "hand": "right"
    },
    {
      "midi": 79,
      "time": 75.272,
      "duration": 1.091,
      "velocity": 0.85,
      "hand": "right"
    },
    {
      "midi": 46,
      "time": 75.545,
      "duration": 0.068,
      "velocity": 0.64,
      "hand": "left"
    },
    {
      "midi": 51,
      "time": 75.545,
      "duration": 0.068,
      "velocity": 0.69,
      "hand": "left"
    },
    {
      "midi": 38,
      "time": 75.682,
      "duration": 0.068,
      "velocity": 0.55,
      "hand": "left"
    },
    {
      "midi": 40,
      "time": 75.682,
      "duration": 0.068,
      "velocity": 0.64,
      "hand": "left"
    },
    {
      "midi": 62,
      "time": 75.682,
      "duration": 0.068,
      "velocity": 0.68,
      "hand": "right"
    },
    {
      "midi": 66,
      "time": 75.682,
      "duration": 0.068,
      "velocity": 0.5,
      "hand": "right"
    },
    {
      "midi": 36,
      "time": 75.818,
      "duration": 0.068,
      "velocity": 0.8,
      "hand": "left"
    },
    {
      "midi": 38,
      "time": 75.818,
      "duration": 0.068,
      "velocity": 0.55,
      "hand": "left"
    },
    {
      "midi": 63,
      "time": 75.818,
      "duration": 0.068,
      "velocity": 0.5,
      "hand": "right"
    },
    {
      "midi": 66,
      "time": 75.818,
      "duration": 0.258,
      "velocity": 0.53,
      "hand": "right"
    },
    {
      "midi": 69,
      "time": 75.818,
      "duration": 0.273,
      "velocity": 0.56,
      "hand": "right"
    },
    {
      "midi": 65,
      "time": 75.954,
      "duration": 0.136,
      "velocity": 0.84,
      "hand": "right"
    },
    {
      "midi": 38,
      "time": 76.091,
      "duration": 0.068,
      "velocity": 0.55,
      "hand": "left"
    },
    {
      "midi": 40,
      "time": 76.091,
      "duration": 0.068,
      "velocity": 0.64,
      "hand": "left"
    },
    {
      "midi": 62,
      "time": 76.091,
      "duration": 0.068,
      "velocity": 0.68,
      "hand": "right"
    },
    {
      "midi": 67,
      "time": 76.091,
      "duration": 0.136,
      "velocity": 0.75,
      "hand": "right"
    },
    {
      "midi": 39,
      "time": 76.227,
      "duration": 0.068,
      "velocity": 0.15,
      "hand": "left"
    },
    {
      "midi": 69,
      "time": 76.227,
      "duration": 0.136,
      "velocity": 0.76,
      "hand": "right"
    },
    {
      "midi": 39,
      "time": 76.363,
      "duration": 0.531,
      "velocity": 0.95,
      "hand": "left"
    },
    {
      "midi": 65,
      "time": 76.363,
      "duration": 0.258,
      "velocity": 0.61,
      "hand": "right"
    },
    {
      "midi": 68,
      "time": 76.363,
      "duration": 0.531,
      "velocity": 0.97,
      "hand": "right"
    },
    {
      "midi": 70,
      "time": 76.363,
      "duration": 0.273,
      "velocity": 0.8,
      "hand": "right"
    },
    {
      "midi": 80,
      "time": 76.363,
      "duration": 1.091,
      "velocity": 0.81,
      "hand": "right"
    },
    {
      "midi": 38,
      "time": 76.636,
      "duration": 0.068,
      "velocity": 0.55,
      "hand": "left"
    },
    {
      "midi": 40,
      "time": 76.636,
      "duration": 0.068,
      "velocity": 0.65,
      "hand": "left"
    },
    {
      "midi": 61,
      "time": 76.636,
      "duration": 0.068,
      "velocity": 0.65,
      "hand": "right"
    },
    {
      "midi": 65,
      "time": 76.636,
      "duration": 0.068,
      "velocity": 0.63,
      "hand": "right"
    },
    {
      "midi": 69,
      "time": 76.772,
      "duration": 0.273,
      "velocity": 0.88,
      "hand": "right"
    },
    {
      "midi": 36,
      "time": 76.909,
      "duration": 0.068,
      "velocity": 0.76,
      "hand": "left"
    },
    {
      "midi": 38,
      "time": 76.909,
      "duration": 0.068,
      "velocity": 0.55,
      "hand": "left"
    },
    {
      "midi": 61,
      "time": 76.909,
      "duration": 0.258,
      "velocity": 0.65,
      "hand": "right"
    },
    {
      "midi": 65,
      "time": 76.909,
      "duration": 0.068,
      "velocity": 0.65,
      "hand": "right"
    },
    {
      "midi": 68,
      "time": 76.909,
      "duration": 0.409,
      "velocity": 0.54,
      "hand": "right"
    },
    {
      "midi": 38,
      "time": 77.045,
      "duration": 0.068,
      "velocity": 0.55,
      "hand": "left"
    },
    {
      "midi": 40,
      "time": 77.045,
      "duration": 0.068,
      "velocity": 0.72,
      "hand": "left"
    },
    {
      "midi": 38,
      "time": 77.182,
      "duration": 0.068,
      "velocity": 0.55,
      "hand": "left"
    },
    {
      "midi": 46,
      "time": 77.182,
      "duration": 0.068,
      "velocity": 0.64,
      "hand": "left"
    },
    {
      "midi": 61,
      "time": 77.182,
      "duration": 0.068,
      "velocity": 0.72,
      "hand": "right"
    },
    {
      "midi": 65,
      "time": 77.182,
      "duration": 0.068,
      "velocity": 0.72,
      "hand": "right"
    },
    {
      "midi": 67,
      "time": 77.182,
      "duration": 0.257,
      "velocity": 0.88,
      "hand": "right"
    },
    {
      "midi": 38,
      "time": 77.318,
      "duration": 0.068,
      "velocity": 0.55,
      "hand": "left"
    },
    {
      "midi": 38,
      "time": 77.454,
      "duration": 0.394,
      "velocity": 0.92,
      "hand": "left"
    },
    {
      "midi": 40,
      "time": 77.454,
      "duration": 0.068,
      "velocity": 0.64,
      "hand": "left"
    },
    {
      "midi": 65,
      "time": 77.454,
      "duration": 0.667,
      "velocity": 0.96,
      "hand": "right"
    },
    {
      "midi": 67,
      "time": 77.454,
      "duration": 0.531,
      "velocity": 1,
      "hand": "right"
    },
    {
      "midi": 69,
      "time": 77.454,
      "duration": 0.682,
      "velocity": 0.89,
      "hand": "right"
    },
    {
      "midi": 81,
      "time": 77.454,
      "duration": 1.091,
      "velocity": 0.75,
      "hand": "right"
    },
    {
      "midi": 46,
      "time": 77.727,
      "duration": 0.068,
      "velocity": 0.64,
      "hand": "left"
    },
    {
      "midi": 51,
      "time": 77.727,
      "duration": 0.068,
      "velocity": 0.65,
      "hand": "left"
    },
    {
      "midi": 38,
      "time": 77.863,
      "duration": 0.068,
      "velocity": 0.55,
      "hand": "left"
    },
    {
      "midi": 40,
      "time": 77.863,
      "duration": 0.068,
      "velocity": 0.62,
      "hand": "left"
    },
    {
      "midi": 60,
      "time": 77.863,
      "duration": 0.068,
      "velocity": 0.65,
      "hand": "right"
    },
    {
      "midi": 64,
      "time": 77.863,
      "duration": 0.068,
      "velocity": 0.56,
      "hand": "right"
    },
    {
      "midi": 36,
      "time": 78,
      "duration": 0.068,
      "velocity": 0.8,
      "hand": "left"
    },
    {
      "midi": 38,
      "time": 78,
      "duration": 0.257,
      "velocity": 0.56,
      "hand": "left"
    },
    {
      "midi": 60,
      "time": 78,
      "duration": 0.136,
      "velocity": 0.72,
      "hand": "right"
    },
    {
      "midi": 64,
      "time": 78,
      "duration": 0.068,
      "velocity": 0.54,
      "hand": "right"
    },
    {
      "midi": 67,
      "time": 78,
      "duration": 0.257,
      "velocity": 0.48,
      "hand": "right"
    },
    {
      "midi": 65,
      "time": 78.136,
      "duration": 0.136,
      "velocity": 0.95,
      "hand": "right"
    },
    {
      "midi": 38,
      "time": 78.272,
      "duration": 0.068,
      "velocity": 0.55,
      "hand": "left"
    },
    {
      "midi": 40,
      "time": 78.272,
      "duration": 0.068,
      "velocity": 0.63,
      "hand": "left"
    },
    {
      "midi": 60,
      "time": 78.272,
      "duration": 0.136,
      "velocity": 0.74,
      "hand": "right"
    },
    {
      "midi": 64,
      "time": 78.272,
      "duration": 0.068,
      "velocity": 0.69,
      "hand": "right"
    },
    {
      "midi": 67,
      "time": 78.272,
      "duration": 0.136,
      "velocity": 0.83,
      "hand": "right"
    },
    {
      "midi": 69,
      "time": 78.409,
      "duration": 0.136,
      "velocity": 0.86,
      "hand": "right"
    },
    {
      "midi": 38,
      "time": 78.545,
      "duration": 0.068,
      "velocity": 0.55,
      "hand": "left"
    },
    {
      "midi": 68,
      "time": 78.545,
      "duration": 0.818,
      "velocity": 0.9,
      "hand": "right"
    },
    {
      "midi": 72,
      "time": 78.545,
      "duration": 0.409,
      "velocity": 0.81,
      "hand": "right"
    },
    {
      "midi": 83,
      "time": 78.545,
      "duration": 1.091,
      "velocity": 0.9,
      "hand": "right"
    },
    {
      "midi": 38,
      "time": 78.818,
      "duration": 0.068,
      "velocity": 0.55,
      "hand": "left"
    },
    {
      "midi": 40,
      "time": 78.818,
      "duration": 0.068,
      "velocity": 0.71,
      "hand": "left"
    },
    {
      "midi": 63,
      "time": 78.818,
      "duration": 0.136,
      "velocity": 0.51,
      "hand": "right"
    },
    {
      "midi": 71,
      "time": 78.954,
      "duration": 0.273,
      "velocity": 0.75,
      "hand": "right"
    },
    {
      "midi": 37,
      "time": 79.091,
      "duration": 0.273,
      "velocity": 0.49,
      "hand": "left"
    },
    {
      "midi": 63,
      "time": 79.091,
      "duration": 0.257,
      "velocity": 0.57,
      "hand": "right"
    },
    {
      "midi": 67,
      "time": 79.091,
      "duration": 0.273,
      "velocity": 0.43,
      "hand": "right"
    },
    {
      "midi": 38,
      "time": 79.227,
      "duration": 0.068,
      "velocity": 0.55,
      "hand": "left"
    },
    {
      "midi": 40,
      "time": 79.227,
      "duration": 0.068,
      "velocity": 0.65,
      "hand": "left"
    },
    {
      "midi": 38,
      "time": 79.363,
      "duration": 0.068,
      "velocity": 0.55,
      "hand": "left"
    },
    {
      "midi": 46,
      "time": 79.363,
      "duration": 0.068,
      "velocity": 0.64,
      "hand": "left"
    },
    {
      "midi": 63,
      "time": 79.363,
      "duration": 0.136,
      "velocity": 0.57,
      "hand": "right"
    },
    {
      "midi": 69,
      "time": 79.363,
      "duration": 0.273,
      "velocity": 0.77,
      "hand": "right"
    },
    {
      "midi": 38,
      "time": 79.5,
      "duration": 0.068,
      "velocity": 0.55,
      "hand": "left"
    },
    {
      "midi": 36,
      "time": 79.636,
      "duration": 0.531,
      "velocity": 0.96,
      "hand": "left"
    },
    {
      "midi": 38,
      "time": 79.636,
      "duration": 0.068,
      "velocity": 0.55,
      "hand": "left"
    },
    {
      "midi": 62,
      "time": 79.636,
      "duration": 0.394,
      "velocity": 1,
      "hand": "right"
    },
    {
      "midi": 67,
      "time": 79.636,
      "duration": 0.667,
      "velocity": 1,
      "hand": "right"
    },
    {
      "midi": 74,
      "time": 79.636,
      "duration": 1.091,
      "velocity": 0.72,
      "hand": "right"
    },
    {
      "midi": 46,
      "time": 79.909,
      "duration": 0.068,
      "velocity": 0.64,
      "hand": "left"
    },
    {
      "midi": 51,
      "time": 79.909,
      "duration": 0.068,
      "velocity": 0.65,
      "hand": "left"
    },
    {
      "midi": 38,
      "time": 80.045,
      "duration": 0.068,
      "velocity": 0.55,
      "hand": "left"
    },
    {
      "midi": 40,
      "time": 80.045,
      "duration": 0.068,
      "velocity": 0.8,
      "hand": "left"
    },
    {
      "midi": 62,
      "time": 80.045,
      "duration": 0.068,
      "velocity": 0.69,
      "hand": "right"
    },
    {
      "midi": 36,
      "time": 80.182,
      "duration": 0.068,
      "velocity": 0.61,
      "hand": "left"
    },
    {
      "midi": 38,
      "time": 80.182,
      "duration": 0.068,
      "velocity": 0.55,
      "hand": "left"
    },
    {
      "midi": 62,
      "time": 80.182,
      "duration": 0.068,
      "velocity": 0.61,
      "hand": "right"
    },
    {
      "midi": 67,
      "time": 80.318,
      "duration": 0.136,
      "velocity": 0.97,
      "hand": "right"
    },
    {
      "midi": 38,
      "time": 80.454,
      "duration": 0.068,
      "velocity": 0.55,
      "hand": "left"
    },
    {
      "midi": 40,
      "time": 80.454,
      "duration": 0.068,
      "velocity": 0.69,
      "hand": "left"
    },
    {
      "midi": 62,
      "time": 80.454,
      "duration": 0.136,
      "velocity": 0.75,
      "hand": "right"
    },
    {
      "midi": 69,
      "time": 80.454,
      "duration": 0.136,
      "velocity": 0.84,
      "hand": "right"
    },
    {
      "midi": 71,
      "time": 80.591,
      "duration": 0.136,
      "velocity": 0.83,
      "hand": "right"
    },
    {
      "midi": 38,
      "time": 80.727,
      "duration": 0.068,
      "velocity": 0.55,
      "hand": "left"
    },
    {
      "midi": 40,
      "time": 80.727,
      "duration": 0.068,
      "velocity": 0.36,
      "hand": "left"
    },
    {
      "midi": 54,
      "time": 80.863,
      "duration": 0.068,
      "velocity": 0.2,
      "hand": "left"
    },
    {
      "midi": 38,
      "time": 81,
      "duration": 0.068,
      "velocity": 0.55,
      "hand": "left"
    },
    {
      "midi": 40,
      "time": 81,
      "duration": 0.068,
      "velocity": 0.47,
      "hand": "left"
    },
    {
      "midi": 62,
      "time": 81,
      "duration": 0.136,
      "velocity": 0.75,
      "hand": "right"
    },
    {
      "midi": 65,
      "time": 81,
      "duration": 0.136,
      "velocity": 0.72,
      "hand": "right"
    },
    {
      "midi": 70,
      "time": 81,
      "duration": 0.136,
      "velocity": 0.63,
      "hand": "right"
    },
    {
      "midi": 36,
      "time": 81.272,
      "duration": 0.068,
      "velocity": 0.5,
      "hand": "left"
    },
    {
      "midi": 43,
      "time": 81.272,
      "duration": 0.258,
      "velocity": 0.9,
      "hand": "left"
    },
    {
      "midi": 38,
      "time": 81.545,
      "duration": 0.068,
      "velocity": 0.55,
      "hand": "left"
    },
    {
      "midi": 40,
      "time": 81.545,
      "duration": 0.068,
      "velocity": 0.47,
      "hand": "left"
    },
    {
      "midi": 62,
      "time": 81.545,
      "duration": 0.136,
      "velocity": 0.72,
      "hand": "right"
    },
    {
      "midi": 65,
      "time": 81.545,
      "duration": 0.136,
      "velocity": 0.69,
      "hand": "right"
    },
    {
      "midi": 70,
      "time": 81.545,
      "duration": 0.136,
      "velocity": 0.57,
      "hand": "right"
    },
    {
      "midi": 43,
      "time": 81.818,
      "duration": 0.258,
      "velocity": 0.61,
      "hand": "left"
    },
    {
      "midi": 47,
      "time": 81.818,
      "duration": 0.068,
      "velocity": 0.5,
      "hand": "left"
    },
    {
      "midi": 38,
      "time": 82.091,
      "duration": 0.068,
      "velocity": 0.55,
      "hand": "left"
    },
    {
      "midi": 40,
      "time": 82.091,
      "duration": 0.068,
      "velocity": 0.47,
      "hand": "left"
    },
    {
      "midi": 62,
      "time": 82.091,
      "duration": 0.136,
      "velocity": 0.72,
      "hand": "right"
    },
    {
      "midi": 65,
      "time": 82.091,
      "duration": 0.273,
      "velocity": 1,
      "hand": "right"
    },
    {
      "midi": 70,
      "time": 82.091,
      "duration": 0.273,
      "velocity": 0.88,
      "hand": "right"
    },
    {
      "midi": 36,
      "time": 82.363,
      "duration": 0.068,
      "velocity": 0.5,
      "hand": "left"
    },
    {
      "midi": 43,
      "time": 82.363,
      "duration": 0.258,
      "velocity": 0.57,
      "hand": "left"
    },
    {
      "midi": 38,
      "time": 82.636,
      "duration": 0.068,
      "velocity": 0.55,
      "hand": "left"
    },
    {
      "midi": 40,
      "time": 82.636,
      "duration": 0.068,
      "velocity": 0.47,
      "hand": "left"
    },
    {
      "midi": 62,
      "time": 82.636,
      "duration": 0.136,
      "velocity": 0.59,
      "hand": "right"
    },
    {
      "midi": 65,
      "time": 82.636,
      "duration": 0.136,
      "velocity": 0.5,
      "hand": "right"
    },
    {
      "midi": 70,
      "time": 82.636,
      "duration": 0.136,
      "velocity": 0.5,
      "hand": "right"
    },
    {
      "midi": 36,
      "time": 82.909,
      "duration": 1.909,
      "velocity": 0.8,
      "hand": "left"
    },
    {
      "midi": 38,
      "time": 82.909,
      "duration": 0.068,
      "velocity": 0.55,
      "hand": "left"
    },
    {
      "midi": 62,
      "time": 82.909,
      "duration": 1.636,
      "velocity": 0.64,
      "hand": "right"
    },
    {
      "midi": 66,
      "time": 82.909,
      "duration": 1.636,
      "velocity": 0.61,
      "hand": "right"
    },
    {
      "midi": 69,
      "time": 82.909,
      "duration": 1.636,
      "velocity": 0.64,
      "hand": "right"
    }
  ]
}
