{
  "id": "ave-maria-schubert",
  "title": "Ave Maria",
  "artist": "Franz Schubert",
  "difficulty": "Difícil",
  "bpm": 45,
  "duration": 431,
  "category": "Intro de Filmes",
  "isPremium": true,
  "coverUrl": "/images/covers/placeholder.png",
  "notes": [
    {
      "midi": 46,
      "time": 0,
      "duration": 1.25,
      "velocity": 1,
      "hand": "left"
    },
    {
      "midi": 62,
      "time": 0.625,
      "duration": 0.625,
      "velocity": 1,
      "hand": "right"
    },
    {
      "midi": 65,
      "time": 0.625,
      "duration": 0.625,
      "velocity": 1,
      "hand": "right"
    },
    {
      "midi": 70,
      "time": 0.625,
      "duration": 0.61,
      "velocity": 1,
      "hand": "right"
    },
    {
      "midi": 70,
      "time": 1.25,
      "duration": 0.61,
      "velocity": 1,
      "hand": "right"
    },
    {
      "midi": 74,
      "time": 1.25,
      "duration": 0.625,
      "velocity": 1,
      "hand": "right"
    },
    {
      "midi": 62,
      "time": 1.875,
      "duration": 0.625,
      "velocity": 1,
      "hand": "right"
    },
    {
      "midi": 65,
      "time": 1.875,
      "duration": 0.625,
      "velocity": 1,
      "hand": "right"
    },
    {
      "midi": 70,
      "time": 1.875,
      "duration": 0.625,
      "velocity": 1,
      "hand": "right"
    },
    {
      "midi": 46,
      "time": 2.5,
      "duration": 1.25,
      "velocity": 1,
      "hand": "left"
    },
    {
      "midi": 62,
      "time": 3.125,
      "duration": 0.625,
      "velocity": 1,
      "hand": "right"
    },
    {
      "midi": 65,
      "time": 3.125,
      "duration": 0.625,
      "velocity": 1,
      "hand": "right"
    },
    {
      "midi": 70,
      "time": 3.125,
      "duration": 0.61,
      "velocity": 1,
      "hand": "right"
    },
    {
      "midi": 70,
      "time": 3.75,
      "duration": 0.61,
      "velocity": 1,
      "hand": "right"
    },
    {
      "midi": 74,
      "time": 3.75,
      "duration": 0.625,
      "velocity": 1,
      "hand": "right"
    },
    {
      "midi": 62,
      "time": 4.375,
      "duration": 0.625,
      "velocity": 1,
      "hand": "right"
    },
    {
      "midi": 65,
      "time": 4.375,
      "duration": 0.625,
      "velocity": 1,
      "hand": "right"
    },
    {
      "midi": 70,
      "time": 4.375,
      "duration": 0.625,
      "velocity": 1,
      "hand": "right"
    },
    {
      "midi": 46,
      "time": 5,
      "duration": 1.25,
      "velocity": 1,
      "hand": "left"
    },
    {
      "midi": 65,
      "time": 5.625,
      "duration": 0.625,
      "velocity": 1,
      "hand": "right"
    },
    {
      "midi": 70,
      "time": 5.625,
      "duration": 0.625,
      "velocity": 1,
      "hand": "right"
    },
    {
      "midi": 74,
      "time": 5.625,
      "duration": 0.61,
      "velocity": 1,
      "hand": "right"
    },
    {
      "midi": 74,
      "time": 6.25,
      "duration": 0.61,
      "velocity": 1,
      "hand": "right"
    },
    {
      "midi": 77,
      "time": 6.25,
      "duration": 0.625,
      "velocity": 1,
      "hand": "right"
    },
    {
      "midi": 65,
      "time": 6.875,
      "duration": 0.625,
      "velocity": 1,
      "hand": "right"
    },
    {
      "midi": 70,
      "time": 6.875,
      "duration": 0.625,
      "velocity": 1,
      "hand": "right"
    },
    {
      "midi": 74,
      "time": 6.875,
      "duration": 0.625,
      "velocity": 1,
      "hand": "right"
    },
    {
      "midi": 46,
      "time": 7.5,
      "duration": 1.25,
      "velocity": 1,
      "hand": "left"
    },
    {
      "midi": 68,
      "time": 8.125,
      "duration": 0.625,
      "velocity": 1,
      "hand": "right"
    },
    {
      "midi": 74,
      "time": 8.125,
      "duration": 0.625,
      "velocity": 1,
      "hand": "right"
    },
    {
      "midi": 77,
      "time": 8.125,
      "duration": 0.61,
      "velocity": 1,
      "hand": "right"
    },
    {
      "midi": 77,
      "time": 8.75,
      "duration": 0.61,
      "velocity": 1,
      "hand": "right"
    },
    {
      "midi": 80,
      "time": 8.75,
      "duration": 0.625,
      "velocity": 1,
      "hand": "right"
    },
    {
      "midi": 68,
      "time": 9.375,
      "duration": 0.625,
      "velocity": 1,
      "hand": "right"
    },
    {
      "midi": 74,
      "time": 9.375,
      "duration": 0.625,
      "velocity": 1,
      "hand": "right"
    },
    {
      "midi": 77,
      "time": 9.375,
      "duration": 0.625,
      "velocity": 1,
      "hand": "right"
    },
    {
      "midi": 46,
      "time": 10,
      "duration": 1.25,
      "velocity": 1,
      "hand": "left"
    },
    {
      "midi": 67,
      "time": 10.625,
      "duration": 0.625,
      "velocity": 1,
      "hand": "right"
    },
    {
      "midi": 70,
      "time": 10.625,
      "duration": 0.625,
      "velocity": 1,
      "hand": "right"
    },
    {
      "midi": 75,
      "time": 10.625,
      "duration": 0.61,
      "velocity": 1,
      "hand": "right"
    },
    {
      "midi": 75,
      "time": 11.25,
      "duration": 0.61,
      "velocity": 1,
      "hand": "right"
    },
    {
      "midi": 79,
      "time": 11.25,
      "duration": 0.625,
      "velocity": 1,
      "hand": "right"
    },
    {
      "midi": 67,
      "time": 11.875,
      "duration": 0.625,
      "velocity": 1,
      "hand": "right"
    },
    {
      "midi": 70,
      "time": 11.875,
      "duration": 0.625,
      "velocity": 1,
      "hand": "right"
    },
    {
      "midi": 75,
      "time": 11.875,
      "duration": 0.625,
      "velocity": 1,
      "hand": "right"
    },
    {
      "midi": 46,
      "time": 12.5,
      "duration": 1.25,
      "velocity": 1,
      "hand": "left"
    },
    {
      "midi": 66,
      "time": 13.125,
      "duration": 0.625,
      "velocity": 1,
      "hand": "right"
    },
    {
      "midi": 69,
      "time": 13.125,
      "duration": 0.625,
      "velocity": 1,
      "hand": "right"
    },
    {
      "midi": 75,
      "time": 13.125,
      "duration": 0.61,
      "velocity": 1,
      "hand": "right"
    },
    {
      "midi": 75,
      "time": 13.75,
      "duration": 0.61,
      "velocity": 1,
      "hand": "right"
    },
    {
      "midi": 78,
      "time": 13.75,
      "duration": 0.625,
      "velocity": 1,
      "hand": "right"
    },
    {
      "midi": 66,
      "time": 14.375,
      "duration": 0.625,
      "velocity": 1,
      "hand": "right"
    },
    {
      "midi": 69,
      "time": 14.375,
      "duration": 0.625,
      "velocity": 1,
      "hand": "right"
    },
    {
      "midi": 75,
      "time": 14.375,
      "duration": 0.625,
      "velocity": 1,
      "hand": "right"
    },
    {
      "midi": 46,
      "time": 15,
      "duration": 1.25,
      "velocity": 1,
      "hand": "left"
    },
    {
      "midi": 65,
      "time": 15.625,
      "duration": 0.625,
      "velocity": 1,
      "hand": "right"
    },
    {
      "midi": 70,
      "time": 15.625,
      "duration": 0.625,
      "velocity": 1,
      "hand": "right"
    },
    {
      "midi": 74,
      "time": 15.625,
      "duration": 0.61,
      "velocity": 1,
      "hand": "right"
    },
    {
      "midi": 74,
      "time": 16.25,
      "duration": 0.61,
      "velocity": 1,
      "hand": "right"
    },
    {
      "midi": 77,
      "time": 16.25,
      "duration": 0.625,
      "velocity": 1,
      "hand": "right"
    },
    {
      "midi": 65,
      "time": 16.875,
      "duration": 0.625,
      "velocity": 1,
      "hand": "right"
    },
    {
      "midi": 70,
      "time": 16.875,
      "duration": 0.625,
      "velocity": 1,
      "hand": "right"
    },
    {
      "midi": 74,
      "time": 16.875,
      "duration": 0.625,
      "velocity": 1,
      "hand": "right"
    },
    {
      "midi": 46,
      "time": 17.5,
      "duration": 1.25,
      "velocity": 1,
      "hand": "left"
    },
    {
      "midi": 62,
      "time": 18.125,
      "duration": 0.625,
      "velocity": 1,
      "hand": "right"
    },
    {
      "midi": 65,
      "time": 18.125,
      "duration": 0.625,
      "velocity": 1,
      "hand": "right"
    },
    {
      "midi": 70,
      "time": 18.125,
      "duration": 0.61,
      "velocity": 1,
      "hand": "right"
    },
    {
      "midi": 70,
      "time": 18.75,
      "duration": 0.61,
      "velocity": 1,
      "hand": "right"
    },
    {
      "midi": 74,
      "time": 18.75,
      "duration": 0.625,
      "velocity": 1,
      "hand": "right"
    },
    {
      "midi": 62,
      "time": 19.375,
      "duration": 0.625,
      "velocity": 1,
      "hand": "right"
    },
    {
      "midi": 65,
      "time": 19.375,
      "duration": 0.625,
      "velocity": 1,
      "hand": "right"
    },
    {
      "midi": 70,
      "time": 19.375,
      "duration": 0.61,
      "velocity": 1,
      "hand": "right"
    },
    {
      "midi": 46,
      "time": 20,
      "duration": 1.25,
      "velocity": 1,
      "hand": "left"
    },
    {
      "midi": 70,
      "time": 20,
      "duration": 0.61,
      "velocity": 1,
      "hand": "right"
    },
    {
      "midi": 62,
      "time": 20.625,
      "duration": 0.625,
      "velocity": 1,
      "hand": "right"
    },
    {
      "midi": 65,
      "time": 20.625,
      "duration": 0.625,
      "velocity": 1,
      "hand": "right"
    },
    {
      "midi": 70,
      "time": 20.625,
      "duration": 0.61,
      "velocity": 1,
      "hand": "right"
    },
    {
      "midi": 70,
      "time": 21.25,
      "duration": 0.61,
      "velocity": 1,
      "hand": "right"
    },
    {
      "midi": 74,
      "time": 21.25,
      "duration": 0.625,
      "velocity": 1,
      "hand": "right"
    },
    {
      "midi": 62,
      "time": 21.875,
      "duration": 0.625,
      "velocity": 1,
      "hand": "right"
    },
    {
      "midi": 65,
      "time": 21.875,
      "duration": 0.625,
      "velocity": 1,
      "hand": "right"
    },
    {
      "midi": 70,
      "time": 21.875,
      "duration": 0.625,
      "velocity": 1,
      "hand": "right"
    },
    {
      "midi": 43,
      "time": 22.5,
      "duration": 1.25,
      "velocity": 1,
      "hand": "left"
    },
    {
      "midi": 62,
      "time": 23.125,
      "duration": 0.625,
      "velocity": 1,
      "hand": "right"
    },
    {
      "midi": 64,
      "time": 23.125,
      "duration": 0.625,
      "velocity": 1,
      "hand": "right"
    },
    {
      "midi": 70,
      "time": 23.125,
      "duration": 0.61,
      "velocity": 1,
      "hand": "right"
    },
    {
      "midi": 70,
      "time": 23.75,
      "duration": 0.61,
      "velocity": 1,
      "hand": "right"
    },
    {
      "midi": 74,
      "time": 23.75,
      "duration": 0.625,
      "velocity": 1,
      "hand": "right"
    },
    {
      "midi": 62,
      "time": 24.375,
      "duration": 0.625,
      "velocity": 1,
      "hand": "right"
    },
    {
      "midi": 64,
      "time": 24.375,
      "duration": 0.625,
      "velocity": 1,
      "hand": "right"
    },
    {
      "midi": 70,
      "time": 24.375,
      "duration": 0.625,
      "velocity": 1,
      "hand": "right"
    },
    {
      "midi": 41,
      "time": 25,
      "duration": 1.25,
      "velocity": 1,
      "hand": "left"
    },
    {
      "midi": 74,
      "time": 25,
      "duration": 1.235,
      "velocity": 1,
      "hand": "right"
    },
    {
      "midi": 62,
      "time": 25.625,
      "duration": 0.625,
      "velocity": 1,
      "hand": "right"
    },
    {
      "midi": 65,
      "time": 25.625,
      "duration": 0.625,
      "velocity": 1,
      "hand": "right"
    },
    {
      "midi": 70,
      "time": 25.625,
      "duration": 0.61,
      "velocity": 1,
      "hand": "right"
    },
    {
      "midi": 70,
      "time": 26.25,
      "duration": 0.61,
      "velocity": 1,
      "hand": "right"
    },
    {
      "midi": 74,
      "time": 26.25,
      "duration": 0.625,
      "velocity": 1,
      "hand": "right"
    },
    {
      "midi": 62,
      "time": 26.875,
      "duration": 0.625,
      "velocity": 1,
      "hand": "right"
    },
    {
      "midi": 65,
      "time": 26.875,
      "duration": 0.625,
      "velocity": 1,
      "hand": "right"
    },
    {
      "midi": 70,
      "time": 26.875,
      "duration": 0.625,
      "velocity": 1,
      "hand": "right"
    },
    {
      "midi": 41,
      "time": 27.5,
      "duration": 1.25,
      "velocity": 1,
      "hand": "left"
    },
    {
      "midi": 63,
      "time": 28.125,
      "duration": 0.625,
      "velocity": 1,
      "hand": "right"
    },
    {
      "midi": 69,
      "time": 28.125,
      "duration": 0.625,
      "velocity": 1,
      "hand": "right"
    },
    {
      "midi": 72,
      "time": 28.125,
      "duration": 0.61,
      "velocity": 1,
      "hand": "right"
    },
    {
      "midi": 72,
      "time": 28.75,
      "duration": 0.61,
      "velocity": 1,
      "hand": "right"
    },
    {
      "midi": 75,
      "time": 28.75,
      "duration": 0.625,
      "velocity": 1,
      "hand": "right"
    },
    {
      "midi": 63,
      "time": 29.375,
      "duration": 0.625,
      "velocity": 1,
      "hand": "right"
    },
    {
      "midi": 69,
      "time": 29.375,
      "duration": 0.625,
      "velocity": 1,
      "hand": "right"
    },
    {
      "midi": 72,
      "time": 29.375,
      "duration": 0.625,
      "velocity": 1,
      "hand": "right"
    },
    {
      "midi": 43,
      "time": 30,
      "duration": 1.25,
      "velocity": 1,
      "hand": "left"
    },
    {
      "midi": 70,
      "time": 30,
      "duration": 0.61,
      "velocity": 1,
      "hand": "right"
    },
    {
      "midi": 62,
      "time": 30.625,
      "duration": 0.625,
      "velocity": 1,
      "hand": "right"
    },
    {
      "midi": 67,
      "time": 30.625,
      "duration": 0.625,
      "velocity": 1,
      "hand": "right"
    },
    {
      "midi": 70,
      "time": 30.625,
      "duration": 0.61,
      "velocity": 1,
      "hand": "right"
    },
    {
      "midi": 70,
      "time": 31.25,
      "duration": 0.61,
      "velocity": 1,
      "hand": "right"
    },
    {
      "midi": 74,
      "time": 31.25,
      "duration": 0.625,
      "velocity": 1,
      "hand": "right"
    },
    {
      "midi": 62,
      "time": 31.875,
      "duration": 0.625,
      "velocity": 1,
      "hand": "right"
    },
    {
      "midi": 67,
      "time": 31.875,
      "duration": 0.625,
      "velocity": 1,
      "hand": "right"
    },
    {
      "midi": 70,
      "time": 31.875,
      "duration": 0.625,
      "velocity": 1,
      "hand": "right"
    },
    {
      "midi": 43,
      "time": 32.5,
      "duration": 1.25,
      "velocity": 1,
      "hand": "left"
    },
    {
      "midi": 62,
      "time": 33.125,
      "duration": 0.625,
      "velocity": 1,
      "hand": "right"
    },
    {
      "midi": 67,
      "time": 33.125,
      "duration": 0.625,
      "velocity": 1,
      "hand": "right"
    },
    {
      "midi": 70,
      "time": 33.125,
      "duration": 0.61,
      "velocity": 1,
      "hand": "right"
    },
    {
      "midi": 70,
      "time": 33.75,
      "duration": 0.61,
      "velocity": 1,
      "hand": "right"
    },
    {
      "midi": 74,
      "time": 33.75,
      "duration": 0.625,
      "velocity": 1,
      "hand": "right"
    },
    {
      "midi": 62,
      "time": 34.375,
      "duration": 0.625,
      "velocity": 1,
      "hand": "right"
    },
    {
      "midi": 67,
      "time": 34.375,
      "duration": 0.625,
      "velocity": 1,
      "hand": "right"
    },
    {
      "midi": 70,
      "time": 34.375,
      "duration": 0.625,
      "velocity": 1,
      "hand": "right"
    },
    {
      "midi": 39,
      "time": 35,
      "duration": 1.25,
      "velocity": 1,
      "hand": "left"
    },
    {
      "midi": 72,
      "time": 35,
      "duration": 0.61,
      "velocity": 1,
      "hand": "right"
    },
    {
      "midi": 63,
      "time": 35.625,
      "duration": 0.625,
      "velocity": 1,
      "hand": "right"
    },
    {
      "midi": 67,
      "time": 35.625,
      "duration": 0.625,
      "velocity": 1,
      "hand": "right"
    },
    {
      "midi": 72,
      "time": 35.625,
      "duration": 0.61,
      "velocity": 1,
      "hand": "right"
    },
    {
      "midi": 72,
      "time": 36.25,
      "duration": 0.61,
      "velocity": 1,
      "hand": "right"
    },
    {
      "midi": 75,
      "time": 36.25,
      "duration": 0.625,
      "velocity": 1,
      "hand": "right"
    },
    {
      "midi": 63,
      "time": 36.875,
      "duration": 0.625,
      "velocity": 1,
      "hand": "right"
    },
    {
      "midi": 67,
      "time": 36.875,
      "duration": 0.625,
      "velocity": 1,
      "hand": "right"
    },
    {
      "midi": 72,
      "time": 36.875,
      "duration": 0.61,
      "velocity": 1,
      "hand": "right"
    },
    {
      "midi": 41,
      "time": 37.5,
      "duration": 1.25,
      "velocity": 1,
      "hand": "left"
    },
    {
      "midi": 70,
      "time": 37.5,
      "duration": 0.625,
      "velocity": 1,
      "hand": "right"
    },
    {
      "midi": 72,
      "time": 37.5,
      "duration": 0.313,
      "velocity": 1,
      "hand": "right"
    },
    {
      "midi": 74,
      "time": 37.5,
      "duration": 0.313,
      "velocity": 1,
      "hand": "right"
    },
    {
      "midi": 63,
      "time": 38.125,
      "duration": 0.625,
      "velocity": 1,
      "hand": "right"
    },
    {
      "midi": 65,
      "time": 38.125,
      "duration": 0.625,
      "velocity": 1,
      "hand": "right"
    },
    {
      "midi": 69,
      "time": 38.125,
      "duration": 0.61,
      "velocity": 1,
      "hand": "right"
    },
    {
      "midi": 67,
      "time": 38.75,
      "duration": 0.625,
      "velocity": 1,
      "hand": "right"
    },
    {
      "midi": 69,
      "time": 38.75,
      "duration": 0.61,
      "velocity": 1,
      "hand": "right"
    },
    {
      "midi": 72,
      "time": 38.75,
      "duration": 0.625,
      "velocity": 1,
      "hand": "right"
    },
    {
      "midi": 63,
      "time": 39.375,
      "duration": 0.625,
      "velocity": 1,
      "hand": "right"
    },
    {
      "midi": 65,
      "time": 39.375,
      "duration": 0.625,
      "velocity": 1,
      "hand": "right"
    },
    {
      "midi": 69,
      "time": 39.375,
      "duration": 0.625,
      "velocity": 1,
      "hand": "right"
    },
    {
      "midi": 46,
      "time": 40,
      "duration": 1.25,
      "velocity": 1,
      "hand": "left"
    },
    {
      "midi": 70,
      "time": 40,
      "duration": 0.61,
      "velocity": 1,
      "hand": "right"
    },
    {
      "midi": 62,
      "time": 40.625,
      "duration": 0.625,
      "velocity": 1,
      "hand": "right"
    },
    {
      "midi": 65,
      "time": 40.625,
      "duration": 0.625,
      "velocity": 1,
      "hand": "right"
    },
    {
      "midi": 70,
      "time": 40.625,
      "duration": 0.61,
      "velocity": 1,
      "hand": "right"
    },
    {
      "midi": 70,
      "time": 41.25,
      "duration": 0.61,
      "velocity": 1,
      "hand": "right"
    },
    {
      "midi": 74,
      "time": 41.25,
      "duration": 0.625,
      "velocity": 1,
      "hand": "right"
    },
    {
      "midi": 62,
      "time": 41.875,
      "duration": 0.625,
      "velocity": 1,
      "hand": "right"
    },
    {
      "midi": 65,
      "time": 41.875,
      "duration": 0.625,
      "velocity": 1,
      "hand": "right"
    },
    {
      "midi": 70,
      "time": 41.875,
      "duration": 0.625,
      "velocity": 1,
      "hand": "right"
    },
    {
      "midi": 46,
      "time": 42.5,
      "duration": 1.25,
      "velocity": 1,
      "hand": "left"
    },
    {
      "midi": 62,
      "time": 43.125,
      "duration": 0.625,
      "velocity": 1,
      "hand": "right"
    },
    {
      "midi": 65,
      "time": 43.125,
      "duration": 0.625,
      "velocity": 1,
      "hand": "right"
    },
    {
      "midi": 70,
      "time": 43.125,
      "duration": 0.61,
      "velocity": 1,
      "hand": "right"
    },
    {
      "midi": 70,
      "time": 43.75,
      "duration": 0.61,
      "velocity": 1,
      "hand": "right"
    },
    {
      "midi": 74,
      "time": 43.75,
      "duration": 1.235,
      "velocity": 1,
      "hand": "right"
    },
    {
      "midi": 62,
      "time": 44.375,
      "duration": 0.625,
      "velocity": 1,
      "hand": "right"
    },
    {
      "midi": 65,
      "time": 44.375,
      "duration": 0.625,
      "velocity": 1,
      "hand": "right"
    },
    {
      "midi": 70,
      "time": 44.375,
      "duration": 0.625,
      "velocity": 1,
      "hand": "right"
    },
    {
      "midi": 46,
      "time": 45,
      "duration": 1.25,
      "velocity": 1,
      "hand": "left"
    },
    {
      "midi": 74,
      "time": 45,
      "duration": 1.235,
      "velocity": 1,
      "hand": "right"
    },
    {
      "midi": 62,
      "time": 45.625,
      "duration": 0.625,
      "velocity": 1,
      "hand": "right"
    },
    {
      "midi": 66,
      "time": 45.625,
      "duration": 0.625,
      "velocity": 1,
      "hand": "right"
    },
    {
      "midi": 70,
      "time": 45.625,
      "duration": 0.61,
      "velocity": 1,
      "hand": "right"
    },
    {
      "midi": 70,
      "time": 46.25,
      "duration": 0.61,
      "velocity": 1,
      "hand": "right"
    },
    {
      "midi": 74,
      "time": 46.25,
      "duration": 0.625,
      "velocity": 1,
      "hand": "right"
    },
    {
      "midi": 62,
      "time": 46.875,
      "duration": 0.625,
      "velocity": 1,
      "hand": "right"
    },
    {
      "midi": 66,
      "time": 46.875,
      "duration": 0.625,
      "velocity": 1,
      "hand": "right"
    },
    {
      "midi": 70,
      "time": 46.875,
      "duration": 0.61,
      "velocity": 1,
      "hand": "right"
    },
    {
      "midi": 72,
      "time": 46.875,
      "duration": 0.625,
      "velocity": 1,
      "hand": "right"
    },
    {
      "midi": 46,
      "time": 47.5,
      "duration": 1.25,
      "velocity": 1,
      "hand": "left"
    },
    {
      "midi": 70,
      "time": 47.5,
      "duration": 0.61,
      "velocity": 1,
      "hand": "right"
    },
    {
      "midi": 62,
      "time": 48.125,
      "duration": 0.625,
      "velocity": 1,
      "hand": "right"
    },
    {
      "midi": 67,
      "time": 48.125,
      "duration": 0.625,
      "velocity": 1,
      "hand": "right"
    },
    {
      "midi": 70,
      "time": 48.125,
      "duration": 0.61,
      "velocity": 1,
      "hand": "right"
    },
    {
      "midi": 70,
      "time": 48.75,
      "duration": 0.61,
      "velocity": 1,
      "hand": "right"
    },
    {
      "midi": 74,
      "time": 48.75,
      "duration": 0.625,
      "velocity": 1,
      "hand": "right"
    },
    {
      "midi": 62,
      "time": 49.375,
      "duration": 0.625,
      "velocity": 1,
      "hand": "right"
    },
    {
      "midi": 67,
      "time": 49.375,
      "duration": 0.625,
      "velocity": 1,
      "hand": "right"
    },
    {
      "midi": 70,
      "time": 49.375,
      "duration": 0.625,
      "velocity": 1,
      "hand": "right"
    },
    {
      "midi": 76,
      "time": 49.375,
      "duration": 0.625,
      "velocity": 1,
      "hand": "right"
    },
    {
      "midi": 45,
      "time": 50,
      "duration": 1.25,
      "velocity": 1,
      "hand": "left"
    },
    {
      "midi": 74,
      "time": 50,
      "duration": 1.235,
      "velocity": 1,
      "hand": "right"
    },
    {
      "midi": 64,
      "time": 50.625,
      "duration": 0.625,
      "velocity": 1,
      "hand": "right"
    },
    {
      "midi": 67,
      "time": 50.625,
      "duration": 0.625,
      "velocity": 1,
      "hand": "right"
    },
    {
      "midi": 70,
      "time": 50.625,
      "duration": 0.61,
      "velocity": 1,
      "hand": "right"
    },
    {
      "midi": 70,
      "time": 51.25,
      "duration": 0.61,
      "velocity": 1,
      "hand": "right"
    },
    {
      "midi": 74,
      "time": 51.25,
      "duration": 0.625,
      "velocity": 1,
      "hand": "right"
    },
    {
      "midi": 64,
      "time": 51.875,
      "duration": 0.625,
      "velocity": 1,
      "hand": "right"
    },
    {
      "midi": 67,
      "time": 51.875,
      "duration": 0.625,
      "velocity": 1,
      "hand": "right"
    },
    {
      "midi": 70,
      "time": 51.875,
      "duration": 0.625,
      "velocity": 1,
      "hand": "right"
    },
    {
      "midi": 45,
      "time": 52.5,
      "duration": 1.25,
      "velocity": 1,
      "hand": "left"
    },
    {
      "midi": 73,
      "time": 52.5,
      "duration": 1.235,
      "velocity": 1,
      "hand": "right"
    },
    {
      "midi": 64,
      "time": 53.125,
      "duration": 0.625,
      "velocity": 1,
      "hand": "right"
    },
    {
      "midi": 67,
      "time": 53.125,
      "duration": 0.625,
      "velocity": 1,
      "hand": "right"
    },
    {
      "midi": 69,
      "time": 53.125,
      "duration": 0.61,
      "velocity": 1,
      "hand": "right"
    },
    {
      "midi": 69,
      "time": 53.75,
      "duration": 0.61,
      "velocity": 1,
      "hand": "right"
    },
    {
      "midi": 73,
      "time": 53.75,
      "duration": 0.625,
      "velocity": 1,
      "hand": "right"
    },
    {
      "midi": 64,
      "time": 54.375,
      "duration": 0.625,
      "velocity": 1,
      "hand": "right"
    },
    {
      "midi": 67,
      "time": 54.375,
      "duration": 0.625,
      "velocity": 1,
      "hand": "right"
    },
    {
      "midi": 69,
      "time": 54.375,
      "duration": 0.625,
      "velocity": 1,
      "hand": "right"
    },
    {
      "midi": 42,
      "time": 55,
      "duration": 1.25,
      "velocity": 1,
      "hand": "left"
    },
    {
      "midi": 72,
      "time": 55,
      "duration": 0.61,
      "velocity": 1,
      "hand": "right"
    },
    {
      "midi": 63,
      "time": 55.625,
      "duration": 0.625,
      "velocity": 1,
      "hand": "right"
    },
    {
      "midi": 69,
      "time": 55.625,
      "duration": 0.625,
      "velocity": 1,
      "hand": "right"
    },
    {
      "midi": 72,
      "time": 55.625,
      "duration": 0.61,
      "velocity": 1,
      "hand": "right"
    },
    {
      "midi": 72,
      "time": 56.25,
      "duration": 0.61,
      "velocity": 1,
      "hand": "right"
    },
    {
      "midi": 75,
      "time": 56.25,
      "duration": 0.625,
      "velocity": 1,
      "hand": "right"
    },
    {
      "midi": 63,
      "time": 56.875,
      "duration": 0.625,
      "velocity": 1,
      "hand": "right"
    },
    {
      "midi": 70,
      "time": 56.875,
      "duration": 0.625,
      "velocity": 1,
      "hand": "right"
    },
    {
      "midi": 72,
      "time": 56.875,
      "duration": 0.625,
      "velocity": 1,
      "hand": "right"
    },
    {
      "midi": 42,
      "time": 57.5,
      "duration": 1.25,
      "velocity": 1,
      "hand": "left"
    },
    {
      "midi": 69,
      "time": 57.5,
      "duration": 0.61,
      "velocity": 1,
      "hand": "right"
    },
    {
      "midi": 63,
      "time": 58.125,
      "duration": 0.625,
      "velocity": 1,
      "hand": "right"
    },
    {
      "midi": 69,
      "time": 58.125,
      "duration": 0.625,
      "velocity": 1,
      "hand": "right"
    },
    {
      "midi": 72,
      "time": 58.125,
      "duration": 0.61,
      "velocity": 1,
      "hand": "right"
    },
    {
      "midi": 74,
      "time": 58.125,
      "duration": 0.625,
      "velocity": 1,
      "hand": "right"
    },
    {
      "midi": 72,
      "time": 58.75,
      "duration": 0.61,
      "velocity": 1,
      "hand": "right"
    },
    {
      "midi": 75,
      "time": 58.75,
      "duration": 0.625,
      "velocity": 1,
      "hand": "right"
    },
    {
      "midi": 63,
      "time": 59.375,
      "duration": 0.625,
      "velocity": 1,
      "hand": "right"
    },
    {
      "midi": 69,
      "time": 59.375,
      "duration": 0.625,
      "velocity": 1,
      "hand": "right"
    },
    {
      "midi": 72,
      "time": 59.375,
      "duration": 0.625,
      "velocity": 1,
      "hand": "right"
    },
    {
      "midi": 43,
      "time": 60,
      "duration": 1.25,
      "velocity": 1,
      "hand": "left"
    },
    {
      "midi": 70,
      "time": 60,
      "duration": 0.61,
      "velocity": 1,
      "hand": "right"
    },
    {
      "midi": 62,
      "time": 60.625,
      "duration": 0.625,
      "velocity": 1,
      "hand": "right"
    },
    {
      "midi": 67,
      "time": 60.625,
      "duration": 0.625,
      "velocity": 1,
      "hand": "right"
    },
    {
      "midi": 70,
      "time": 60.625,
      "duration": 0.61,
      "velocity": 1,
      "hand": "right"
    },
    {
      "midi": 70,
      "time": 61.25,
      "duration": 0.61,
      "velocity": 1,
      "hand": "right"
    },
    {
      "midi": 74,
      "time": 61.25,
      "duration": 0.625,
      "velocity": 1,
      "hand": "right"
    },
    {
      "midi": 62,
      "time": 61.875,
      "duration": 0.625,
      "velocity": 1,
      "hand": "right"
    },
    {
      "midi": 67,
      "time": 61.875,
      "duration": 0.625,
      "velocity": 1,
      "hand": "right"
    },
    {
      "midi": 70,
      "time": 61.875,
      "duration": 0.625,
      "velocity": 1,
      "hand": "right"
    },
    {
      "midi": 43,
      "time": 62.5,
      "duration": 1.25,
      "velocity": 1,
      "hand": "left"
    },
    {
      "midi": 62,
      "time": 63.125,
      "duration": 0.625,
      "velocity": 1,
      "hand": "right"
    },
    {
      "midi": 64,
      "time": 63.125,
      "duration": 0.625,
      "velocity": 1,
      "hand": "right"
    },
    {
      "midi": 70,
      "time": 63.125,
      "duration": 0.61,
      "velocity": 1,
      "hand": "right"
    },
    {
      "midi": 70,
      "time": 63.75,
      "duration": 0.61,
      "velocity": 1,
      "hand": "right"
    },
    {
      "midi": 74,
      "time": 63.75,
      "duration": 0.625,
      "velocity": 1,
      "hand": "right"
    },
    {
      "midi": 62,
      "time": 64.375,
      "duration": 0.625,
      "velocity": 1,
      "hand": "right"
    },
    {
      "midi": 64,
      "time": 64.375,
      "duration": 0.625,
      "velocity": 1,
      "hand": "right"
    },
    {
      "midi": 70,
      "time": 64.375,
      "duration": 0.625,
      "velocity": 1,
      "hand": "right"
    },
    {
      "midi": 72,
      "time": 64.375,
      "duration": 0.61,
      "velocity": 1,
      "hand": "right"
    },
    {
      "midi": 45,
      "time": 65,
      "duration": 1.25,
      "velocity": 1,
      "hand": "left"
    },
    {
      "midi": 72,
      "time": 65,
      "duration": 1.235,
      "velocity": 1,
      "hand": "right"
    },
    {
      "midi": 60,
      "time": 65.625,
      "duration": 0.625,
      "velocity": 1,
      "hand": "right"
    },
    {
      "midi": 65,
      "time": 65.625,
      "duration": 0.625,
      "velocity": 1,
      "hand": "right"
    },
    {
      "midi": 69,
      "time": 65.625,
      "duration": 0.61,
      "velocity": 1,
      "hand": "right"
    },
    {
      "midi": 69,
      "time": 66.25,
      "duration": 0.61,
      "velocity": 1,
      "hand": "right"
    },
    {
      "midi": 72,
      "time": 66.25,
      "duration": 0.625,
      "velocity": 1,
      "hand": "right"
    },
    {
      "midi": 60,
      "time": 66.875,
      "duration": 0.625,
      "velocity": 1,
      "hand": "right"
    },
    {
      "midi": 65,
      "time": 66.875,
      "duration": 0.625,
      "velocity": 1,
      "hand": "right"
    },
    {
      "midi": 69,
      "time": 66.875,
      "duration": 0.625,
      "velocity": 1,
      "hand": "right"
    },
    {
      "midi": 38,
      "time": 67.5,
      "duration": 1.25,
      "velocity": 1,
      "hand": "left"
    },
    {
      "midi": 50,
      "time": 67.5,
      "duration": 1.25,
      "velocity": 1,
      "hand": "left"
    },
    {
      "midi": 67,
      "time": 67.5,
      "duration": 0.61,
      "velocity": 1,
      "hand": "right"
    },
    {
      "midi": 65,
      "time": 68.125,
      "duration": 0.625,
      "velocity": 1,
      "hand": "right"
    },
    {
      "midi": 67,
      "time": 68.125,
      "duration": 0.625,
      "velocity": 1,
      "hand": "right"
    },
    {
      "midi": 71,
      "time": 68.125,
      "duration": 0.61,
      "velocity": 1,
      "hand": "right"
    },
    {
      "midi": 74,
      "time": 68.125,
      "duration": 0.625,
      "velocity": 1,
      "hand": "right"
    },
    {
      "midi": 71,
      "time": 68.75,
      "duration": 0.61,
      "velocity": 1,
      "hand": "right"
    },
    {
      "midi": 77,
      "time": 68.75,
      "duration": 0.625,
      "velocity": 1,
      "hand": "right"
    },
    {
      "midi": 65,
      "time": 69.375,
      "duration": 0.625,
      "velocity": 1,
      "hand": "right"
    },
    {
      "midi": 67,
      "time": 69.375,
      "duration": 0.625,
      "velocity": 1,
      "hand": "right"
    },
    {
      "midi": 71,
      "time": 69.375,
      "duration": 0.625,
      "velocity": 1,
      "hand": "right"
    },
    {
      "midi": 74,
      "time": 69.375,
      "duration": 0.625,
      "velocity": 1,
      "hand": "right"
    },
    {
      "midi": 36,
      "time": 70,
      "duration": 1.25,
      "velocity": 1,
      "hand": "left"
    },
    {
      "midi": 48,
      "time": 70,
      "duration": 1.25,
      "velocity": 1,
      "hand": "left"
    },
    {
      "midi": 72,
      "time": 70,
      "duration": 0.61,
      "velocity": 1,
      "hand": "right"
    },
    {
      "midi": 65,
      "time": 70.625,
      "duration": 0.625,
      "velocity": 1,
      "hand": "right"
    },
    {
      "midi": 69,
      "time": 70.625,
      "duration": 0.625,
      "velocity": 1,
      "hand": "right"
    },
    {
      "midi": 72,
      "time": 70.625,
      "duration": 0.61,
      "velocity": 1,
      "hand": "right"
    },
    {
      "midi": 72,
      "time": 71.25,
      "duration": 0.61,
      "velocity": 1,
      "hand": "right"
    },
    {
      "midi": 77,
      "time": 71.25,
      "duration": 0.625,
      "velocity": 1,
      "hand": "right"
    },
    {
      "midi": 65,
      "time": 71.875,
      "duration": 0.625,
      "velocity": 1,
      "hand": "right"
    },
    {
      "midi": 69,
      "time": 71.875,
      "duration": 0.625,
      "velocity": 1,
      "hand": "right"
    },
    {
      "midi": 72,
      "time": 71.875,
      "duration": 0.625,
      "velocity": 1,
      "hand": "right"
    },
    {
      "midi": 36,
      "time": 72.5,
      "duration": 1.25,
      "velocity": 1,
      "hand": "left"
    },
    {
      "midi": 48,
      "time": 72.5,
      "duration": 1.25,
      "velocity": 1,
      "hand": "left"
    },
    {
      "midi": 67,
      "time": 73.125,
      "duration": 0.625,
      "velocity": 1,
      "hand": "right"
    },
    {
      "midi": 70,
      "time": 73.125,
      "duration": 0.61,
      "velocity": 1,
      "hand": "right"
    },
    {
      "midi": 72,
      "time": 73.125,
      "duration": 0.61,
      "velocity": 1,
      "hand": "right"
    },
    {
      "midi": 70,
      "time": 73.75,
      "duration": 0.313,
      "velocity": 1,
      "hand": "right"
    },
    {
      "midi": 72,
      "time": 73.75,
      "duration": 0.61,
      "velocity": 1,
      "hand": "right"
    },
    {
      "midi": 76,
      "time": 73.75,
      "duration": 0.625,
      "velocity": 1,
      "hand": "right"
    },
    {
      "midi": 67,
      "time": 74.375,
      "duration": 0.625,
      "velocity": 1,
      "hand": "right"
    },
    {
      "midi": 70,
      "time": 74.375,
      "duration": 0.625,
      "velocity": 1,
      "hand": "right"
    },
    {
      "midi": 72,
      "time": 74.375,
      "duration": 0.625,
      "velocity": 1,
      "hand": "right"
    },
    {
      "midi": 41,
      "time": 75,
      "duration": 1.25,
      "velocity": 1,
      "hand": "left"
    },
    {
      "midi": 53,
      "time": 75,
      "duration": 1.25,
      "velocity": 1,
      "hand": "left"
    },
    {
      "midi": 65,
      "time": 75,
      "duration": 0.61,
      "velocity": 1,
      "hand": "right"
    },
    {
      "midi": 65,
      "time": 75.625,
      "duration": 0.625,
      "velocity": 1,
      "hand": "right"
    },
    {
      "midi": 69,
      "time": 75.625,
      "duration": 0.625,
      "velocity": 1,
      "hand": "right"
    },
    {
      "midi": 72,
      "time": 75.625,
      "duration": 0.61,
      "velocity": 1,
      "hand": "right"
    },
    {
      "midi": 72,
      "time": 76.25,
      "duration": 0.61,
      "velocity": 1,
      "hand": "right"
    },
    {
      "midi": 77,
      "time": 76.25,
      "duration": 0.625,
      "velocity": 1,
      "hand": "right"
    },
    {
      "midi": 65,
      "time": 76.875,
      "duration": 0.625,
      "velocity": 1,
      "hand": "right"
    },
    {
      "midi": 69,
      "time": 76.875,
      "duration": 0.625,
      "velocity": 1,
      "hand": "right"
    },
    {
      "midi": 72,
      "time": 76.875,
      "duration": 0.625,
      "velocity": 1,
      "hand": "right"
    },
    {
      "midi": 41,
      "time": 77.5,
      "duration": 1.25,
      "velocity": 1,
      "hand": "left"
    },
    {
      "midi": 53,
      "time": 77.5,
      "duration": 1.25,
      "velocity": 1,
      "hand": "left"
    },
    {
      "midi": 65,
      "time": 78.125,
      "duration": 0.61,
      "velocity": 1,
      "hand": "right"
    },
    {
      "midi": 69,
      "time": 78.125,
      "duration": 0.625,
      "velocity": 1,
      "hand": "right"
    },
    {
      "midi": 72,
      "time": 78.125,
      "duration": 0.61,
      "velocity": 1,
      "hand": "right"
    },
    {
      "midi": 65,
      "time": 78.75,
      "duration": 0.61,
      "velocity": 1,
      "hand": "right"
    },
    {
      "midi": 72,
      "time": 78.75,
      "duration": 0.61,
      "velocity": 1,
      "hand": "right"
    },
    {
      "midi": 77,
      "time": 78.75,
      "duration": 0.625,
      "velocity": 1,
      "hand": "right"
    },
    {
      "midi": 65,
      "time": 79.375,
      "duration": 0.625,
      "velocity": 1,
      "hand": "right"
    },
    {
      "midi": 69,
      "time": 79.375,
      "duration": 0.625,
      "velocity": 1,
      "hand": "right"
    },
    {
      "midi": 72,
      "time": 79.375,
      "duration": 0.61,
      "velocity": 1,
      "hand": "right"
    },
    {
      "midi": 41,
      "time": 80,
      "duration": 1.25,
      "velocity": 1,
      "hand": "left"
    },
    {
      "midi": 53,
      "time": 80,
      "duration": 1.25,
      "velocity": 1,
      "hand": "left"
    },
    {
      "midi": 72,
      "time": 80,
      "duration": 0.61,
      "velocity": 1,
      "hand": "right"
    },
    {
      "midi": 63,
      "time": 80.625,
      "duration": 0.625,
      "velocity": 1,
      "hand": "right"
    },
    {
      "midi": 69,
      "time": 80.625,
      "duration": 0.625,
      "velocity": 1,
      "hand": "right"
    },
    {
      "midi": 72,
      "time": 80.625,
      "duration": 0.61,
      "velocity": 1,
      "hand": "right"
    },
    {
      "midi": 72,
      "time": 81.25,
      "duration": 0.61,
      "velocity": 1,
      "hand": "right"
    },
    {
      "midi": 77,
      "time": 81.25,
      "duration": 0.625,
      "velocity": 1,
      "hand": "right"
    },
    {
      "midi": 63,
      "time": 81.875,
      "duration": 0.625,
      "velocity": 1,
      "hand": "right"
    },
    {
      "midi": 69,
      "time": 81.875,
      "duration": 0.625,
      "velocity": 1,
      "hand": "right"
    },
    {
      "midi": 72,
      "time": 81.875,
      "duration": 0.61,
      "velocity": 1,
      "hand": "right"
    },
    {
      "midi": 41,
      "time": 82.5,
      "duration": 1.25,
      "velocity": 1,
      "hand": "left"
    },
    {
      "midi": 53,
      "time": 82.5,
      "duration": 1.25,
      "velocity": 1,
      "hand": "left"
    },
    {
      "midi": 72,
      "time": 82.5,
      "duration": 0.61,
      "velocity": 1,
      "hand": "right"
    },
    {
      "midi": 63,
      "time": 83.125,
      "duration": 0.625,
      "velocity": 1,
      "hand": "right"
    },
    {
      "midi": 69,
      "time": 83.125,
      "duration": 0.625,
      "velocity": 1,
      "hand": "right"
    },
    {
      "midi": 72,
      "time": 83.125,
      "duration": 0.61,
      "velocity": 1,
      "hand": "right"
    },
    {
      "midi": 72,
      "time": 83.75,
      "duration": 0.61,
      "velocity": 1,
      "hand": "right"
    },
    {
      "midi": 77,
      "time": 83.75,
      "duration": 0.625,
      "velocity": 1,
      "hand": "right"
    },
    {
      "midi": 63,
      "time": 84.375,
      "duration": 0.625,
      "velocity": 1,
      "hand": "right"
    },
    {
      "midi": 69,
      "time": 84.375,
      "duration": 0.625,
      "velocity": 1,
      "hand": "right"
    },
    {
      "midi": 72,
      "time": 84.375,
      "duration": 0.61,
      "velocity": 1,
      "hand": "right"
    },
    {
      "midi": 41,
      "time": 85,
      "duration": 1.25,
      "velocity": 1,
      "hand": "left"
    },
    {
      "midi": 53,
      "time": 85,
      "duration": 1.25,
      "velocity": 1,
      "hand": "left"
    },
    {
      "midi": 72,
      "time": 85,
      "duration": 1.25,
      "velocity": 1,
      "hand": "right"
    },
    {
      "midi": 74,
      "time": 85,
      "duration": 0.61,
      "velocity": 1,
      "hand": "right"
    },
    {
      "midi": 62,
      "time": 85.625,
      "duration": 0.625,
      "velocity": 1,
      "hand": "right"
    },
    {
      "midi": 70,
      "time": 85.625,
      "duration": 0.61,
      "velocity": 1,
      "hand": "right"
    },
    {
      "midi": 74,
      "time": 85.625,
      "duration": 0.61,
      "velocity": 1,
      "hand": "right"
    },
    {
      "midi": 70,
      "time": 86.25,
      "duration": 0.61,
      "velocity": 1,
      "hand": "right"
    },
    {
      "midi": 74,
      "time": 86.25,
      "duration": 0.61,
      "velocity": 1,
      "hand": "right"
    },
    {
      "midi": 77,
      "time": 86.25,
      "duration": 0.625,
      "velocity": 1,
      "hand": "right"
    },
    {
      "midi": 62,
      "time": 86.875,
      "duration": 0.625,
      "velocity": 1,
      "hand": "right"
    },
    {
      "midi": 70,
      "time": 86.875,
      "duration": 0.625,
      "velocity": 1,
      "hand": "right"
    },
    {
      "midi": 74,
      "time": 86.875,
      "duration": 0.625,
      "velocity": 1,
      "hand": "right"
    },
    {
      "midi": 41,
      "time": 87.5,
      "duration": 1.25,
      "velocity": 1,
      "hand": "left"
    },
    {
      "midi": 53,
      "time": 87.5,
      "duration": 1.25,
      "velocity": 1,
      "hand": "left"
    },
    {
      "midi": 62,
      "time": 88.125,
      "duration": 0.625,
      "velocity": 1,
      "hand": "right"
    },
    {
      "midi": 70,
      "time": 88.125,
      "duration": 0.61,
      "velocity": 1,
      "hand": "right"
    },
    {
      "midi": 74,
      "time": 88.125,
      "duration": 0.61,
      "velocity": 1,
      "hand": "right"
    },
    {
      "midi": 70,
      "time": 88.75,
      "duration": 0.61,
      "velocity": 1,
      "hand": "right"
    },
    {
      "midi": 74,
      "time": 88.75,
      "duration": 0.61,
      "velocity": 1,
      "hand": "right"
    },
    {
      "midi": 77,
      "time": 88.75,
      "duration": 0.625,
      "velocity": 1,
      "hand": "right"
    },
    {
      "midi": 62,
      "time": 89.375,
      "duration": 0.625,
      "velocity": 1,
      "hand": "right"
    },
    {
      "midi": 70,
      "time": 89.375,
      "duration": 0.625,
      "velocity": 1,
      "hand": "right"
    },
    {
      "midi": 74,
      "time": 89.375,
      "duration": 0.625,
      "velocity": 1,
      "hand": "right"
    },
    {
      "midi": 41,
      "time": 90,
      "duration": 1.25,
      "velocity": 1,
      "hand": "left"
    },
    {
      "midi": 53,
      "time": 90,
      "duration": 1.25,
      "velocity": 1,
      "hand": "left"
    },
    {
      "midi": 72,
      "time": 90,
      "duration": 0.61,
      "velocity": 1,
      "hand": "right"
    },
    {
      "midi": 63,
      "time": 90.625,
      "duration": 0.625,
      "velocity": 1,
      "hand": "right"
    },
    {
      "midi": 69,
      "time": 90.625,
      "duration": 0.625,
      "velocity": 1,
      "hand": "right"
    },
    {
      "midi": 72,
      "time": 90.625,
      "duration": 0.61,
      "velocity": 1,
      "hand": "right"
    },
    {
      "midi": 72,
      "time": 91.25,
      "duration": 0.61,
      "velocity": 1,
      "hand": "right"
    },
    {
      "midi": 77,
      "time": 91.25,
      "duration": 0.625,
      "velocity": 1,
      "hand": "right"
    },
    {
      "midi": 63,
      "time": 91.875,
      "duration": 0.625,
      "velocity": 1,
      "hand": "right"
    },
    {
      "midi": 69,
      "time": 91.875,
      "duration": 0.625,
      "velocity": 1,
      "hand": "right"
    },
    {
      "midi": 72,
      "time": 91.875,
      "duration": 0.61,
      "velocity": 1,
      "hand": "right"
    },
    {
      "midi": 41,
      "time": 92.5,
      "duration": 1.25,
      "velocity": 1,
      "hand": "left"
    },
    {
      "midi": 53,
      "time": 92.5,
      "duration": 1.25,
      "velocity": 1,
      "hand": "left"
    },
    {
      "midi": 72,
      "time": 92.5,
      "duration": 0.61,
      "velocity": 1,
      "hand": "right"
    },
    {
      "midi": 63,
      "time": 93.125,
      "duration": 0.625,
      "velocity": 1,
      "hand": "right"
    },
    {
      "midi": 69,
      "time": 93.125,
      "duration": 0.625,
      "velocity": 1,
      "hand": "right"
    },
    {
      "midi": 72,
      "time": 93.125,
      "duration": 0.61,
      "velocity": 1,
      "hand": "right"
    },
    {
      "midi": 72,
      "time": 93.75,
      "duration": 0.61,
      "velocity": 1,
      "hand": "right"
    },
    {
      "midi": 75,
      "time": 93.75,
      "duration": 0.625,
      "velocity": 1,
      "hand": "right"
    },
    {
      "midi": 77,
      "time": 93.75,
      "duration": 0.625,
      "velocity": 1,
      "hand": "right"
    },
    {
      "midi": 63,
      "time": 94.375,
      "duration": 0.625,
      "velocity": 1,
      "hand": "right"
    },
    {
      "midi": 69,
      "time": 94.375,
      "duration": 0.625,
      "velocity": 1,
      "hand": "right"
    },
    {
      "midi": 72,
      "time": 94.375,
      "duration": 0.625,
      "velocity": 1,
      "hand": "right"
    },
    {
      "midi": 74,
      "time": 94.375,
      "duration": 0.625,
      "velocity": 1,
      "hand": "right"
    },
    {
      "midi": 43,
      "time": 95,
      "duration": 1.25,
      "velocity": 1,
      "hand": "left"
    },
    {
      "midi": 55,
      "time": 95,
      "duration": 1.25,
      "velocity": 1,
      "hand": "left"
    },
    {
      "midi": 70,
      "time": 95,
      "duration": 0.61,
      "velocity": 1,
      "hand": "right"
    },
    {
      "midi": 62,
      "time": 95.625,
      "duration": 0.625,
      "velocity": 1,
      "hand": "right"
    },
    {
      "midi": 67,
      "time": 95.625,
      "duration": 0.625,
      "velocity": 1,
      "hand": "right"
    },
    {
      "midi": 70,
      "time": 95.625,
      "duration": 0.61,
      "velocity": 1,
      "hand": "right"
    },
    {
      "midi": 70,
      "time": 96.25,
      "duration": 0.61,
      "velocity": 1,
      "hand": "right"
    },
    {
      "midi": 74,
      "time": 96.25,
      "duration": 0.625,
      "velocity": 1,
      "hand": "right"
    },
    {
      "midi": 62,
      "time": 96.875,
      "duration": 0.625,
      "velocity": 1,
      "hand": "right"
    },
    {
      "midi": 67,
      "time": 96.875,
      "duration": 0.625,
      "velocity": 1,
      "hand": "right"
    },
    {
      "midi": 70,
      "time": 96.875,
      "duration": 0.625,
      "velocity": 1,
      "hand": "right"
    },
    {
      "midi": 43,
      "time": 97.5,
      "duration": 1.25,
      "velocity": 1,
      "hand": "left"
    },
    {
      "midi": 55,
      "time": 97.5,
      "duration": 1.25,
      "velocity": 1,
      "hand": "left"
    },
    {
      "midi": 58,
      "time": 98.125,
      "duration": 0.625,
      "velocity": 1,
      "hand": "left"
    },
    {
      "midi": 62,
      "time": 98.125,
      "duration": 0.625,
      "velocity": 1,
      "hand": "right"
    },
    {
      "midi": 67,
      "time": 98.125,
      "duration": 0.61,
      "velocity": 1,
      "hand": "right"
    },
    {
      "midi": 67,
      "time": 98.75,
      "duration": 0.61,
      "velocity": 1,
      "hand": "right"
    },
    {
      "midi": 70,
      "time": 98.75,
      "duration": 1.25,
      "velocity": 1,
      "hand": "right"
    },
    {
      "midi": 58,
      "time": 99.375,
      "duration": 0.625,
      "velocity": 1,
      "hand": "left"
    },
    {
      "midi": 62,
      "time": 99.375,
      "duration": 0.625,
      "velocity": 1,
      "hand": "right"
    },
    {
      "midi": 67,
      "time": 99.375,
      "duration": 0.625,
      "velocity": 1,
      "hand": "right"
    },
    {
      "midi": 41,
      "time": 100,
      "duration": 1.25,
      "velocity": 1,
      "hand": "left"
    },
    {
      "midi": 53,
      "time": 100,
      "duration": 1.25,
      "velocity": 1,
      "hand": "left"
    },
    {
      "midi": 72,
      "time": 100,
      "duration": 1.235,
      "velocity": 1,
      "hand": "right"
    },
    {
      "midi": 60,
      "time": 100.625,
      "duration": 0.625,
      "velocity": 1,
      "hand": "right"
    },
    {
      "midi": 65,
      "time": 100.625,
      "duration": 0.625,
      "velocity": 1,
      "hand": "right"
    },
    {
      "midi": 69,
      "time": 100.625,
      "duration": 0.61,
      "velocity": 1,
      "hand": "right"
    },
    {
      "midi": 69,
      "time": 101.25,
      "duration": 0.61,
      "velocity": 1,
      "hand": "right"
    },
    {
      "midi": 72,
      "time": 101.25,
      "duration": 0.61,
      "velocity": 1,
      "hand": "right"
    },
    {
      "midi": 60,
      "time": 101.875,
      "duration": 0.625,
      "velocity": 1,
      "hand": "right"
    },
    {
      "midi": 65,
      "time": 101.875,
      "duration": 0.625,
      "velocity": 1,
      "hand": "right"
    },
    {
      "midi": 69,
      "time": 101.875,
      "duration": 0.625,
      "velocity": 1,
      "hand": "right"
    },
    {
      "midi": 72,
      "time": 101.875,
      "duration": 0.625,
      "velocity": 1,
      "hand": "right"
    },
    {
      "midi": 38,
      "time": 102.5,
      "duration": 1.25,
      "velocity": 1,
      "hand": "left"
    },
    {
      "midi": 50,
      "time": 102.5,
      "duration": 1.25,
      "velocity": 1,
      "hand": "left"
    },
    {
      "midi": 74,
      "time": 102.5,
      "duration": 1.235,
      "velocity": 1,
      "hand": "right"
    },
    {
      "midi": 62,
      "time": 103.125,
      "duration": 0.625,
      "velocity": 1,
      "hand": "right"
    },
    {
      "midi": 66,
      "time": 103.125,
      "duration": 0.625,
      "velocity": 1,
      "hand": "right"
    },
    {
      "midi": 69,
      "time": 103.125,
      "duration": 0.61,
      "velocity": 1,
      "hand": "right"
    },
    {
      "midi": 69,
      "time": 103.75,
      "duration": 0.61,
      "velocity": 1,
      "hand": "right"
    },
    {
      "midi": 75,
      "time": 103.75,
      "duration": 0.313,
      "velocity": 1,
      "hand": "right"
    },
    {
      "midi": 66,
      "time": 104.375,
      "duration": 0.625,
      "velocity": 1,
      "hand": "right"
    },
    {
      "midi": 69,
      "time": 104.375,
      "duration": 0.625,
      "velocity": 1,
      "hand": "right"
    },
    {
      "midi": 72,
      "time": 104.375,
      "duration": 0.625,
      "velocity": 1,
      "hand": "right"
    },
    {
      "midi": 74,
      "time": 104.375,
      "duration": 0.313,
      "velocity": 1,
      "hand": "right"
    },
    {
      "midi": 36,
      "time": 105,
      "duration": 1.25,
      "velocity": 1,
      "hand": "left"
    },
    {
      "midi": 48,
      "time": 105,
      "duration": 1.25,
      "velocity": 1,
      "hand": "left"
    },
    {
      "midi": 75,
      "time": 105,
      "duration": 1.235,
      "velocity": 1,
      "hand": "right"
    },
    {
      "midi": 77,
      "time": 105,
      "duration": 0.313,
      "velocity": 1,
      "hand": "right"
    },
    {
      "midi": 63,
      "time": 105.625,
      "duration": 0.625,
      "velocity": 1,
      "hand": "right"
    },
    {
      "midi": 67,
      "time": 105.625,
      "duration": 0.625,
      "velocity": 1,
      "hand": "right"
    },
    {
      "midi": 72,
      "time": 105.625,
      "duration": 0.61,
      "velocity": 1,
      "hand": "right"
    },
    {
      "midi": 72,
      "time": 106.25,
      "duration": 0.61,
      "velocity": 1,
      "hand": "right"
    },
    {
      "midi": 75,
      "time": 106.25,
      "duration": 1.25,
      "velocity": 1,
      "hand": "right"
    },
    {
      "midi": 63,
      "time": 106.875,
      "duration": 0.625,
      "velocity": 1,
      "hand": "right"
    },
    {
      "midi": 67,
      "time": 106.875,
      "duration": 0.625,
      "velocity": 1,
      "hand": "right"
    },
    {
      "midi": 72,
      "time": 106.875,
      "duration": 0.625,
      "velocity": 1,
      "hand": "right"
    },
    {
      "midi": 36,
      "time": 107.5,
      "duration": 1.25,
      "velocity": 1,
      "hand": "left"
    },
    {
      "midi": 48,
      "time": 107.5,
      "duration": 1.25,
      "velocity": 1,
      "hand": "left"
    },
    {
      "midi": 63,
      "time": 108.125,
      "duration": 0.625,
      "velocity": 1,
      "hand": "right"
    },
    {
      "midi": 67,
      "time": 108.125,
      "duration": 0.625,
      "velocity": 1,
      "hand": "right"
    },
    {
      "midi": 72,
      "time": 108.125,
      "duration": 0.61,
      "velocity": 1,
      "hand": "right"
    },
    {
      "midi": 72,
      "time": 108.75,
      "duration": 0.61,
      "velocity": 1,
      "hand": "right"
    },
    {
      "midi": 75,
      "time": 108.75,
      "duration": 0.625,
      "velocity": 1,
      "hand": "right"
    },
    {
      "midi": 63,
      "time": 109.375,
      "duration": 0.625,
      "velocity": 1,
      "hand": "right"
    },
    {
      "midi": 67,
      "time": 109.375,
      "duration": 0.625,
      "velocity": 1,
      "hand": "right"
    },
    {
      "midi": 72,
      "time": 109.375,
      "duration": 0.61,
      "velocity": 1,
      "hand": "right"
    },
    {
      "midi": 39,
      "time": 110,
      "duration": 1.25,
      "velocity": 1,
      "hand": "left"
    },
    {
      "midi": 51,
      "time": 110,
      "duration": 1.25,
      "velocity": 1,
      "hand": "left"
    },
    {
      "midi": 72,
      "time": 110,
      "duration": 1.235,
      "velocity": 1,
      "hand": "right"
    },
    {
      "midi": 74,
      "time": 110,
      "duration": 0.313,
      "velocity": 1,
      "hand": "right"
    },
    {
      "midi": 60,
      "time": 110.625,
      "duration": 0.625,
      "velocity": 1,
      "hand": "right"
    },
    {
      "midi": 63,
      "time": 110.625,
      "duration": 0.625,
      "velocity": 1,
      "hand": "right"
    },
    {
      "midi": 67,
      "time": 110.625,
      "duration": 0.61,
      "velocity": 1,
      "hand": "right"
    },
    {
      "midi": 67,
      "time": 111.25,
      "duration": 0.61,
      "velocity": 1,
      "hand": "right"
    },
    {
      "midi": 72,
      "time": 111.25,
      "duration": 0.61,
      "velocity": 1,
      "hand": "right"
    },
    {
      "midi": 60,
      "time": 111.875,
      "duration": 0.625,
      "velocity": 1,
      "hand": "right"
    },
    {
      "midi": 63,
      "time": 111.875,
      "duration": 0.625,
      "velocity": 1,
      "hand": "right"
    },
    {
      "midi": 67,
      "time": 111.875,
      "duration": 0.625,
      "velocity": 1,
      "hand": "right"
    },
    {
      "midi": 72,
      "time": 111.875,
      "duration": 0.625,
      "velocity": 1,
      "hand": "right"
    },
    {
      "midi": 43,
      "time": 112.5,
      "duration": 1.25,
      "velocity": 1,
      "hand": "left"
    },
    {
      "midi": 55,
      "time": 112.5,
      "duration": 1.25,
      "velocity": 1,
      "hand": "left"
    },
    {
      "midi": 70,
      "time": 112.5,
      "duration": 0.61,
      "velocity": 1,
      "hand": "right"
    },
    {
      "midi": 61,
      "time": 113.125,
      "duration": 0.625,
      "velocity": 1,
      "hand": "right"
    },
    {
      "midi": 64,
      "time": 113.125,
      "duration": 0.625,
      "velocity": 1,
      "hand": "right"
    },
    {
      "midi": 70,
      "time": 113.125,
      "duration": 0.61,
      "velocity": 1,
      "hand": "right"
    },
    {
      "midi": 70,
      "time": 113.75,
      "duration": 0.61,
      "velocity": 1,
      "hand": "right"
    },
    {
      "midi": 73,
      "time": 113.75,
      "duration": 0.625,
      "velocity": 1,
      "hand": "right"
    },
    {
      "midi": 61,
      "time": 114.375,
      "duration": 0.625,
      "velocity": 1,
      "hand": "right"
    },
    {
      "midi": 64,
      "time": 114.375,
      "duration": 0.625,
      "velocity": 1,
      "hand": "right"
    },
    {
      "midi": 70,
      "time": 114.375,
      "duration": 0.625,
      "velocity": 1,
      "hand": "right"
    },
    {
      "midi": 72,
      "time": 114.375,
      "duration": 0.61,
      "velocity": 1,
      "hand": "right"
    },
    {
      "midi": 41,
      "time": 115,
      "duration": 1.25,
      "velocity": 1,
      "hand": "left"
    },
    {
      "midi": 53,
      "time": 115,
      "duration": 1.25,
      "velocity": 1,
      "hand": "left"
    },
    {
      "midi": 72,
      "time": 115,
      "duration": 1.235,
      "velocity": 1,
      "hand": "right"
    },
    {
      "midi": 60,
      "time": 115.625,
      "duration": 0.625,
      "velocity": 1,
      "hand": "right"
    },
    {
      "midi": 65,
      "time": 115.625,
      "duration": 0.625,
      "velocity": 1,
      "hand": "right"
    },
    {
      "midi": 69,
      "time": 115.625,
      "duration": 0.61,
      "velocity": 1,
      "hand": "right"
    },
    {
      "midi": 69,
      "time": 116.25,
      "duration": 0.61,
      "velocity": 1,
      "hand": "right"
    },
    {
      "midi": 72,
      "time": 116.25,
      "duration": 0.625,
      "velocity": 1,
      "hand": "right"
    },
    {
      "midi": 60,
      "time": 116.875,
      "duration": 0.625,
      "velocity": 1,
      "hand": "right"
    },
    {
      "midi": 65,
      "time": 116.875,
      "duration": 0.625,
      "velocity": 1,
      "hand": "right"
    },
    {
      "midi": 69,
      "time": 116.875,
      "duration": 0.625,
      "velocity": 1,
      "hand": "right"
    },
    {
      "midi": 41,
      "time": 117.5,
      "duration": 1.25,
      "velocity": 1,
      "hand": "left"
    },
    {
      "midi": 53,
      "time": 117.5,
      "duration": 1.25,
      "velocity": 1,
      "hand": "left"
    },
    {
      "midi": 63,
      "time": 118.125,
      "duration": 0.625,
      "velocity": 1,
      "hand": "right"
    },
    {
      "midi": 65,
      "time": 118.125,
      "duration": 0.625,
      "velocity": 1,
      "hand": "right"
    },
    {
      "midi": 69,
      "time": 118.125,
      "duration": 0.61,
      "velocity": 1,
      "hand": "right"
    },
    {
      "midi": 69,
      "time": 118.75,
      "duration": 0.61,
      "velocity": 1,
      "hand": "right"
    },
    {
      "midi": 72,
      "time": 118.75,
      "duration": 0.625,
      "velocity": 1,
      "hand": "right"
    },
    {
      "midi": 63,
      "time": 119.375,
      "duration": 0.625,
      "velocity": 1,
      "hand": "right"
    },
    {
      "midi": 65,
      "time": 119.375,
      "duration": 0.625,
      "velocity": 1,
      "hand": "right"
    },
    {
      "midi": 69,
      "time": 119.375,
      "duration": 0.625,
      "velocity": 1,
      "hand": "right"
    },
    {
      "midi": 46,
      "time": 120,
      "duration": 1.25,
      "velocity": 1,
      "hand": "left"
    },
    {
      "midi": 70,
      "time": 120,
      "duration": 0.61,
      "velocity": 1,
      "hand": "right"
    },
    {
      "midi": 62,
      "time": 120.625,
      "duration": 0.625,
      "velocity": 1,
      "hand": "right"
    },
    {
      "midi": 65,
      "time": 120.625,
      "duration": 0.625,
      "velocity": 1,
      "hand": "right"
    },
    {
      "midi": 70,
      "time": 120.625,
      "duration": 0.61,
      "velocity": 1,
      "hand": "right"
    },
    {
      "midi": 70,
      "time": 121.25,
      "duration": 0.61,
      "velocity": 1,
      "hand": "right"
    },
    {
      "midi": 74,
      "time": 121.25,
      "duration": 0.625,
      "velocity": 1,
      "hand": "right"
    },
    {
      "midi": 62,
      "time": 121.875,
      "duration": 0.625,
      "velocity": 1,
      "hand": "right"
    },
    {
      "midi": 65,
      "time": 121.875,
      "duration": 0.625,
      "velocity": 1,
      "hand": "right"
    },
    {
      "midi": 70,
      "time": 121.875,
      "duration": 0.625,
      "velocity": 1,
      "hand": "right"
    },
    {
      "midi": 43,
      "time": 122.5,
      "duration": 1.25,
      "velocity": 1,
      "hand": "left"
    },
    {
      "midi": 62,
      "time": 123.125,
      "duration": 0.625,
      "velocity": 1,
      "hand": "right"
    },
    {
      "midi": 64,
      "time": 123.125,
      "duration": 0.625,
      "velocity": 1,
      "hand": "right"
    },
    {
      "midi": 70,
      "time": 123.125,
      "duration": 0.61,
      "velocity": 1,
      "hand": "right"
    },
    {
      "midi": 70,
      "time": 123.75,
      "duration": 0.61,
      "velocity": 1,
      "hand": "right"
    },
    {
      "midi": 74,
      "time": 123.75,
      "duration": 0.625,
      "velocity": 1,
      "hand": "right"
    },
    {
      "midi": 62,
      "time": 124.375,
      "duration": 0.625,
      "velocity": 1,
      "hand": "right"
    },
    {
      "midi": 64,
      "time": 124.375,
      "duration": 0.625,
      "velocity": 1,
      "hand": "right"
    },
    {
      "midi": 70,
      "time": 124.375,
      "duration": 0.625,
      "velocity": 1,
      "hand": "right"
    },
    {
      "midi": 41,
      "time": 125,
      "duration": 1.25,
      "velocity": 1,
      "hand": "left"
    },
    {
      "midi": 74,
      "time": 125,
      "duration": 1.235,
      "velocity": 1,
      "hand": "right"
    },
    {
      "midi": 62,
      "time": 125.625,
      "duration": 0.625,
      "velocity": 1,
      "hand": "right"
    },
    {
      "midi": 65,
      "time": 125.625,
      "duration": 0.625,
      "velocity": 1,
      "hand": "right"
    },
    {
      "midi": 70,
      "time": 125.625,
      "duration": 0.61,
      "velocity": 1,
      "hand": "right"
    },
    {
      "midi": 70,
      "time": 126.25,
      "duration": 0.61,
      "velocity": 1,
      "hand": "right"
    },
    {
      "midi": 74,
      "time": 126.25,
      "duration": 0.625,
      "velocity": 1,
      "hand": "right"
    },
    {
      "midi": 62,
      "time": 126.875,
      "duration": 0.625,
      "velocity": 1,
      "hand": "right"
    },
    {
      "midi": 65,
      "time": 126.875,
      "duration": 0.625,
      "velocity": 1,
      "hand": "right"
    },
    {
      "midi": 70,
      "time": 126.875,
      "duration": 0.625,
      "velocity": 1,
      "hand": "right"
    },
    {
      "midi": 41,
      "time": 127.5,
      "duration": 1.25,
      "velocity": 1,
      "hand": "left"
    },
    {
      "midi": 63,
      "time": 128.125,
      "duration": 0.625,
      "velocity": 1,
      "hand": "right"
    },
    {
      "midi": 65,
      "time": 128.125,
      "duration": 0.625,
      "velocity": 1,
      "hand": "right"
    },
    {
      "midi": 69,
      "time": 128.125,
      "duration": 0.61,
      "velocity": 1,
      "hand": "right"
    },
    {
      "midi": 69,
      "time": 128.75,
      "duration": 0.61,
      "velocity": 1,
      "hand": "right"
    },
    {
      "midi": 72,
      "time": 128.75,
      "duration": 0.61,
      "velocity": 1,
      "hand": "right"
    },
    {
      "midi": 63,
      "time": 129.375,
      "duration": 0.625,
      "velocity": 1,
      "hand": "right"
    },
    {
      "midi": 65,
      "time": 129.375,
      "duration": 0.625,
      "velocity": 1,
      "hand": "right"
    },
    {
      "midi": 69,
      "time": 129.375,
      "duration": 0.625,
      "velocity": 1,
      "hand": "right"
    },
    {
      "midi": 72,
      "time": 129.375,
      "duration": 0.625,
      "velocity": 1,
      "hand": "right"
    },
    {
      "midi": 46,
      "time": 130,
      "duration": 1.25,
      "velocity": 1,
      "hand": "left"
    },
    {
      "midi": 70,
      "time": 130,
      "duration": 0.61,
      "velocity": 1,
      "hand": "right"
    },
    {
      "midi": 62,
      "time": 130.625,
      "duration": 0.625,
      "velocity": 1,
      "hand": "right"
    },
    {
      "midi": 65,
      "time": 130.625,
      "duration": 0.625,
      "velocity": 1,
      "hand": "right"
    },
    {
      "midi": 70,
      "time": 130.625,
      "duration": 0.61,
      "velocity": 1,
      "hand": "right"
    },
    {
      "midi": 70,
      "time": 131.25,
      "duration": 0.61,
      "velocity": 1,
      "hand": "right"
    },
    {
      "midi": 74,
      "time": 131.25,
      "duration": 0.625,
      "velocity": 1,
      "hand": "right"
    },
    {
      "midi": 62,
      "time": 131.875,
      "duration": 0.625,
      "velocity": 1,
      "hand": "right"
    },
    {
      "midi": 65,
      "time": 131.875,
      "duration": 0.625,
      "velocity": 1,
      "hand": "right"
    },
    {
      "midi": 70,
      "time": 131.875,
      "duration": 0.625,
      "velocity": 1,
      "hand": "right"
    },
    {
      "midi": 46,
      "time": 132.5,
      "duration": 1.25,
      "velocity": 1,
      "hand": "left"
    },
    {
      "midi": 62,
      "time": 133.125,
      "duration": 0.625,
      "velocity": 1,
      "hand": "right"
    },
    {
      "midi": 65,
      "time": 133.125,
      "duration": 0.625,
      "velocity": 1,
      "hand": "right"
    },
    {
      "midi": 70,
      "time": 133.125,
      "duration": 0.61,
      "velocity": 1,
      "hand": "right"
    },
    {
      "midi": 70,
      "time": 133.75,
      "duration": 0.61,
      "velocity": 1,
      "hand": "right"
    },
    {
      "midi": 74,
      "time": 133.75,
      "duration": 0.625,
      "velocity": 1,
      "hand": "right"
    },
    {
      "midi": 62,
      "time": 134.375,
      "duration": 0.625,
      "velocity": 1,
      "hand": "right"
    },
    {
      "midi": 65,
      "time": 134.375,
      "duration": 0.625,
      "velocity": 1,
      "hand": "right"
    },
    {
      "midi": 70,
      "time": 134.375,
      "duration": 0.625,
      "velocity": 1,
      "hand": "right"
    },
    {
      "midi": 46,
      "time": 135,
      "duration": 1.25,
      "velocity": 1,
      "hand": "left"
    },
    {
      "midi": 65,
      "time": 135.625,
      "duration": 0.625,
      "velocity": 1,
      "hand": "right"
    },
    {
      "midi": 70,
      "time": 135.625,
      "duration": 0.625,
      "velocity": 1,
      "hand": "right"
    },
    {
      "midi": 74,
      "time": 135.625,
      "duration": 0.61,
      "velocity": 1,
      "hand": "right"
    },
    {
      "midi": 74,
      "time": 136.25,
      "duration": 0.61,
      "velocity": 1,
      "hand": "right"
    },
    {
      "midi": 77,
      "time": 136.25,
      "duration": 0.625,
      "velocity": 1,
      "hand": "right"
    },
    {
      "midi": 65,
      "time": 136.875,
      "duration": 0.625,
      "velocity": 1,
      "hand": "right"
    },
    {
      "midi": 70,
      "time": 136.875,
      "duration": 0.625,
      "velocity": 1,
      "hand": "right"
    },
    {
      "midi": 74,
      "time": 136.875,
      "duration": 0.625,
      "velocity": 1,
      "hand": "right"
    },
    {
      "midi": 46,
      "time": 137.5,
      "duration": 1.25,
      "velocity": 1,
      "hand": "left"
    },
    {
      "midi": 68,
      "time": 138.125,
      "duration": 0.625,
      "velocity": 1,
      "hand": "right"
    },
    {
      "midi": 74,
      "time": 138.125,
      "duration": 0.625,
      "velocity": 1,
      "hand": "right"
    },
    {
      "midi": 77,
      "time": 138.125,
      "duration": 0.61,
      "velocity": 1,
      "hand": "right"
    },
    {
      "midi": 77,
      "time": 138.75,
      "duration": 0.61,
      "velocity": 1,
      "hand": "right"
    },
    {
      "midi": 80,
      "time": 138.75,
      "duration": 0.625,
      "velocity": 1,
      "hand": "right"
    },
    {
      "midi": 68,
      "time": 139.375,
      "duration": 0.625,
      "velocity": 1,
      "hand": "right"
    },
    {
      "midi": 74,
      "time": 139.375,
      "duration": 0.625,
      "velocity": 1,
      "hand": "right"
    },
    {
      "midi": 77,
      "time": 139.375,
      "duration": 0.625,
      "velocity": 1,
      "hand": "right"
    },
    {
      "midi": 46,
      "time": 140,
      "duration": 1.25,
      "velocity": 1,
      "hand": "left"
    },
    {
      "midi": 67,
      "time": 140.625,
      "duration": 0.625,
      "velocity": 1,
      "hand": "right"
    },
    {
      "midi": 70,
      "time": 140.625,
      "duration": 0.625,
      "velocity": 1,
      "hand": "right"
    },
    {
      "midi": 75,
      "time": 140.625,
      "duration": 0.61,
      "velocity": 1,
      "hand": "right"
    },
    {
      "midi": 75,
      "time": 141.25,
      "duration": 0.61,
      "velocity": 1,
      "hand": "right"
    },
    {
      "midi": 79,
      "time": 141.25,
      "duration": 0.625,
      "velocity": 1,
      "hand": "right"
    },
    {
      "midi": 67,
      "time": 141.875,
      "duration": 0.625,
      "velocity": 1,
      "hand": "right"
    },
    {
      "midi": 70,
      "time": 141.875,
      "duration": 0.625,
      "velocity": 1,
      "hand": "right"
    },
    {
      "midi": 75,
      "time": 141.875,
      "duration": 0.625,
      "velocity": 1,
      "hand": "right"
    },
    {
      "midi": 46,
      "time": 142.5,
      "duration": 1.25,
      "velocity": 1,
      "hand": "left"
    },
    {
      "midi": 66,
      "time": 143.125,
      "duration": 0.625,
      "velocity": 1,
      "hand": "right"
    },
    {
      "midi": 69,
      "time": 143.125,
      "duration": 0.625,
      "velocity": 1,
      "hand": "right"
    },
    {
      "midi": 75,
      "time": 143.125,
      "duration": 0.61,
      "velocity": 1,
      "hand": "right"
    },
    {
      "midi": 75,
      "time": 143.75,
      "duration": 0.61,
      "velocity": 1,
      "hand": "right"
    },
    {
      "midi": 78,
      "time": 143.75,
      "duration": 0.625,
      "velocity": 1,
      "hand": "right"
    },
    {
      "midi": 66,
      "time": 144.375,
      "duration": 0.625,
      "velocity": 1,
      "hand": "right"
    },
    {
      "midi": 69,
      "time": 144.375,
      "duration": 0.625,
      "velocity": 1,
      "hand": "right"
    },
    {
      "midi": 75,
      "time": 144.375,
      "duration": 0.625,
      "velocity": 1,
      "hand": "right"
    },
    {
      "midi": 46,
      "time": 145,
      "duration": 1.25,
      "velocity": 1,
      "hand": "left"
    },
    {
      "midi": 65,
      "time": 145.625,
      "duration": 0.625,
      "velocity": 1,
      "hand": "right"
    },
    {
      "midi": 70,
      "time": 145.625,
      "duration": 0.625,
      "velocity": 1,
      "hand": "right"
    },
    {
      "midi": 74,
      "time": 145.625,
      "duration": 0.61,
      "velocity": 1,
      "hand": "right"
    },
    {
      "midi": 74,
      "time": 146.25,
      "duration": 0.61,
      "velocity": 1,
      "hand": "right"
    },
    {
      "midi": 77,
      "time": 146.25,
      "duration": 0.625,
      "velocity": 1,
      "hand": "right"
    },
    {
      "midi": 65,
      "time": 146.875,
      "duration": 0.625,
      "velocity": 1,
      "hand": "right"
    },
    {
      "midi": 70,
      "time": 146.875,
      "duration": 0.625,
      "velocity": 1,
      "hand": "right"
    },
    {
      "midi": 74,
      "time": 146.875,
      "duration": 0.625,
      "velocity": 1,
      "hand": "right"
    },
    {
      "midi": 46,
      "time": 147.5,
      "duration": 1.25,
      "velocity": 1,
      "hand": "left"
    },
    {
      "midi": 62,
      "time": 148.125,
      "duration": 0.625,
      "velocity": 1,
      "hand": "right"
    },
    {
      "midi": 65,
      "time": 148.125,
      "duration": 0.625,
      "velocity": 1,
      "hand": "right"
    },
    {
      "midi": 70,
      "time": 148.125,
      "duration": 0.61,
      "velocity": 1,
      "hand": "right"
    },
    {
      "midi": 70,
      "time": 148.75,
      "duration": 0.61,
      "velocity": 1,
      "hand": "right"
    },
    {
      "midi": 74,
      "time": 148.75,
      "duration": 0.625,
      "velocity": 1,
      "hand": "right"
    },
    {
      "midi": 62,
      "time": 149.375,
      "duration": 0.625,
      "velocity": 1,
      "hand": "right"
    },
    {
      "midi": 65,
      "time": 149.375,
      "duration": 0.625,
      "velocity": 1,
      "hand": "right"
    },
    {
      "midi": 70,
      "time": 149.375,
      "duration": 0.61,
      "velocity": 1,
      "hand": "right"
    },
    {
      "midi": 46,
      "time": 150,
      "duration": 1.25,
      "velocity": 1,
      "hand": "left"
    },
    {
      "midi": 70,
      "time": 150,
      "duration": 0.61,
      "velocity": 1,
      "hand": "right"
    },
    {
      "midi": 62,
      "time": 150.625,
      "duration": 0.625,
      "velocity": 1,
      "hand": "right"
    },
    {
      "midi": 65,
      "time": 150.625,
      "duration": 0.625,
      "velocity": 1,
      "hand": "right"
    },
    {
      "midi": 70,
      "time": 150.625,
      "duration": 0.61,
      "velocity": 1,
      "hand": "right"
    },
    {
      "midi": 70,
      "time": 151.25,
      "duration": 0.61,
      "velocity": 1,
      "hand": "right"
    },
    {
      "midi": 74,
      "time": 151.25,
      "duration": 0.625,
      "velocity": 1,
      "hand": "right"
    },
    {
      "midi": 62,
      "time": 151.875,
      "duration": 0.625,
      "velocity": 1,
      "hand": "right"
    },
    {
      "midi": 65,
      "time": 151.875,
      "duration": 0.625,
      "velocity": 1,
      "hand": "right"
    },
    {
      "midi": 70,
      "time": 151.875,
      "duration": 0.625,
      "velocity": 1,
      "hand": "right"
    },
    {
      "midi": 43,
      "time": 152.5,
      "duration": 1.25,
      "velocity": 1,
      "hand": "left"
    },
    {
      "midi": 62,
      "time": 153.125,
      "duration": 0.625,
      "velocity": 1,
      "hand": "right"
    },
    {
      "midi": 64,
      "time": 153.125,
      "duration": 0.625,
      "velocity": 1,
      "hand": "right"
    },
    {
      "midi": 70,
      "time": 153.125,
      "duration": 0.61,
      "velocity": 1,
      "hand": "right"
    },
    {
      "midi": 70,
      "time": 153.75,
      "duration": 0.61,
      "velocity": 1,
      "hand": "right"
    },
    {
      "midi": 74,
      "time": 153.75,
      "duration": 0.625,
      "velocity": 1,
      "hand": "right"
    },
    {
      "midi": 62,
      "time": 154.375,
      "duration": 0.625,
      "velocity": 1,
      "hand": "right"
    },
    {
      "midi": 64,
      "time": 154.375,
      "duration": 0.625,
      "velocity": 1,
      "hand": "right"
    },
    {
      "midi": 70,
      "time": 154.375,
      "duration": 0.625,
      "velocity": 1,
      "hand": "right"
    },
    {
      "midi": 41,
      "time": 155,
      "duration": 1.25,
      "velocity": 1,
      "hand": "left"
    },
    {
      "midi": 74,
      "time": 155,
      "duration": 1.235,
      "velocity": 1,
      "hand": "right"
    },
    {
      "midi": 62,
      "time": 155.625,
      "duration": 0.625,
      "velocity": 1,
      "hand": "right"
    },
    {
      "midi": 65,
      "time": 155.625,
      "duration": 0.625,
      "velocity": 1,
      "hand": "right"
    },
    {
      "midi": 70,
      "time": 155.625,
      "duration": 0.61,
      "velocity": 1,
      "hand": "right"
    },
    {
      "midi": 70,
      "time": 156.25,
      "duration": 0.61,
      "velocity": 1,
      "hand": "right"
    },
    {
      "midi": 74,
      "time": 156.25,
      "duration": 0.625,
      "velocity": 1,
      "hand": "right"
    },
    {
      "midi": 62,
      "time": 156.875,
      "duration": 0.625,
      "velocity": 1,
      "hand": "right"
    },
    {
      "midi": 65,
      "time": 156.875,
      "duration": 0.625,
      "velocity": 1,
      "hand": "right"
    },
    {
      "midi": 70,
      "time": 156.875,
      "duration": 0.625,
      "velocity": 1,
      "hand": "right"
    },
    {
      "midi": 41,
      "time": 157.5,
      "duration": 1.25,
      "velocity": 1,
      "hand": "left"
    },
    {
      "midi": 63,
      "time": 158.125,
      "duration": 0.625,
      "velocity": 1,
      "hand": "right"
    },
    {
      "midi": 69,
      "time": 158.125,
      "duration": 0.625,
      "velocity": 1,
      "hand": "right"
    },
    {
      "midi": 72,
      "time": 158.125,
      "duration": 0.61,
      "velocity": 1,
      "hand": "right"
    },
    {
      "midi": 72,
      "time": 158.75,
      "duration": 0.61,
      "velocity": 1,
      "hand": "right"
    },
    {
      "midi": 75,
      "time": 158.75,
      "duration": 0.625,
      "velocity": 1,
      "hand": "right"
    },
    {
      "midi": 63,
      "time": 159.375,
      "duration": 0.625,
      "velocity": 1,
      "hand": "right"
    },
    {
      "midi": 69,
      "time": 159.375,
      "duration": 0.625,
      "velocity": 1,
      "hand": "right"
    },
    {
      "midi": 72,
      "time": 159.375,
      "duration": 0.625,
      "velocity": 1,
      "hand": "right"
    },
    {
      "midi": 43,
      "time": 160,
      "duration": 1.25,
      "velocity": 1,
      "hand": "left"
    },
    {
      "midi": 70,
      "time": 160,
      "duration": 0.61,
      "velocity": 1,
      "hand": "right"
    },
    {
      "midi": 62,
      "time": 160.625,
      "duration": 0.625,
      "velocity": 1,
      "hand": "right"
    },
    {
      "midi": 67,
      "time": 160.625,
      "duration": 0.625,
      "velocity": 1,
      "hand": "right"
    },
    {
      "midi": 70,
      "time": 160.625,
      "duration": 0.61,
      "velocity": 1,
      "hand": "right"
    },
    {
      "midi": 70,
      "time": 161.25,
      "duration": 0.61,
      "velocity": 1,
      "hand": "right"
    },
    {
      "midi": 74,
      "time": 161.25,
      "duration": 0.625,
      "velocity": 1,
      "hand": "right"
    },
    {
      "midi": 62,
      "time": 161.875,
      "duration": 0.625,
      "velocity": 1,
      "hand": "right"
    },
    {
      "midi": 67,
      "time": 161.875,
      "duration": 0.625,
      "velocity": 1,
      "hand": "right"
    },
    {
      "midi": 70,
      "time": 161.875,
      "duration": 0.625,
      "velocity": 1,
      "hand": "right"
    },
    {
      "midi": 43,
      "time": 162.5,
      "duration": 1.25,
      "velocity": 1,
      "hand": "left"
    },
    {
      "midi": 62,
      "time": 163.125,
      "duration": 0.625,
      "velocity": 1,
      "hand": "right"
    },
    {
      "midi": 67,
      "time": 163.125,
      "duration": 0.625,
      "velocity": 1,
      "hand": "right"
    },
    {
      "midi": 70,
      "time": 163.125,
      "duration": 0.61,
      "velocity": 1,
      "hand": "right"
    },
    {
      "midi": 70,
      "time": 163.75,
      "duration": 0.61,
      "velocity": 1,
      "hand": "right"
    },
    {
      "midi": 74,
      "time": 163.75,
      "duration": 0.625,
      "velocity": 1,
      "hand": "right"
    },
    {
      "midi": 62,
      "time": 164.375,
      "duration": 0.625,
      "velocity": 1,
      "hand": "right"
    },
    {
      "midi": 67,
      "time": 164.375,
      "duration": 0.625,
      "velocity": 1,
      "hand": "right"
    },
    {
      "midi": 70,
      "time": 164.375,
      "duration": 0.625,
      "velocity": 1,
      "hand": "right"
    },
    {
      "midi": 39,
      "time": 165,
      "duration": 1.25,
      "velocity": 1,
      "hand": "left"
    },
    {
      "midi": 72,
      "time": 165,
      "duration": 0.61,
      "velocity": 1,
      "hand": "right"
    },
    {
      "midi": 63,
      "time": 165.625,
      "duration": 0.625,
      "velocity": 1,
      "hand": "right"
    },
    {
      "midi": 67,
      "time": 165.625,
      "duration": 0.625,
      "velocity": 1,
      "hand": "right"
    },
    {
      "midi": 72,
      "time": 165.625,
      "duration": 0.61,
      "velocity": 1,
      "hand": "right"
    },
    {
      "midi": 72,
      "time": 166.25,
      "duration": 0.61,
      "velocity": 1,
      "hand": "right"
    },
    {
      "midi": 75,
      "time": 166.25,
      "duration": 0.625,
      "velocity": 1,
      "hand": "right"
    },
    {
      "midi": 63,
      "time": 166.875,
      "duration": 0.625,
      "velocity": 1,
      "hand": "right"
    },
    {
      "midi": 67,
      "time": 166.875,
      "duration": 0.625,
      "velocity": 1,
      "hand": "right"
    },
    {
      "midi": 72,
      "time": 166.875,
      "duration": 0.61,
      "velocity": 1,
      "hand": "right"
    },
    {
      "midi": 41,
      "time": 167.5,
      "duration": 1.25,
      "velocity": 1,
      "hand": "left"
    },
    {
      "midi": 70,
      "time": 167.5,
      "duration": 0.625,
      "velocity": 1,
      "hand": "right"
    },
    {
      "midi": 72,
      "time": 167.5,
      "duration": 0.313,
      "velocity": 1,
      "hand": "right"
    },
    {
      "midi": 74,
      "time": 167.5,
      "duration": 0.313,
      "velocity": 1,
      "hand": "right"
    },
    {
      "midi": 63,
      "time": 168.125,
      "duration": 0.625,
      "velocity": 1,
      "hand": "right"
    },
    {
      "midi": 65,
      "time": 168.125,
      "duration": 0.625,
      "velocity": 1,
      "hand": "right"
    },
    {
      "midi": 69,
      "time": 168.125,
      "duration": 0.61,
      "velocity": 1,
      "hand": "right"
    },
    {
      "midi": 67,
      "time": 168.75,
      "duration": 0.625,
      "velocity": 1,
      "hand": "right"
    },
    {
      "midi": 69,
      "time": 168.75,
      "duration": 0.61,
      "velocity": 1,
      "hand": "right"
    },
    {
      "midi": 72,
      "time": 168.75,
      "duration": 0.625,
      "velocity": 1,
      "hand": "right"
    },
    {
      "midi": 63,
      "time": 169.375,
      "duration": 0.625,
      "velocity": 1,
      "hand": "right"
    },
    {
      "midi": 65,
      "time": 169.375,
      "duration": 0.625,
      "velocity": 1,
      "hand": "right"
    },
    {
      "midi": 69,
      "time": 169.375,
      "duration": 0.625,
      "velocity": 1,
      "hand": "right"
    },
    {
      "midi": 46,
      "time": 170,
      "duration": 1.25,
      "velocity": 1,
      "hand": "left"
    },
    {
      "midi": 70,
      "time": 170,
      "duration": 0.61,
      "velocity": 1,
      "hand": "right"
    },
    {
      "midi": 62,
      "time": 170.625,
      "duration": 0.625,
      "velocity": 1,
      "hand": "right"
    },
    {
      "midi": 65,
      "time": 170.625,
      "duration": 0.625,
      "velocity": 1,
      "hand": "right"
    },
    {
      "midi": 70,
      "time": 170.625,
      "duration": 0.61,
      "velocity": 1,
      "hand": "right"
    },
    {
      "midi": 70,
      "time": 171.25,
      "duration": 0.61,
      "velocity": 1,
      "hand": "right"
    },
    {
      "midi": 74,
      "time": 171.25,
      "duration": 0.625,
      "velocity": 1,
      "hand": "right"
    },
    {
      "midi": 62,
      "time": 171.875,
      "duration": 0.625,
      "velocity": 1,
      "hand": "right"
    },
    {
      "midi": 65,
      "time": 171.875,
      "duration": 0.625,
      "velocity": 1,
      "hand": "right"
    },
    {
      "midi": 70,
      "time": 171.875,
      "duration": 0.625,
      "velocity": 1,
      "hand": "right"
    },
    {
      "midi": 46,
      "time": 172.5,
      "duration": 1.25,
      "velocity": 1,
      "hand": "left"
    },
    {
      "midi": 62,
      "time": 173.125,
      "duration": 0.625,
      "velocity": 1,
      "hand": "right"
    },
    {
      "midi": 65,
      "time": 173.125,
      "duration": 0.625,
      "velocity": 1,
      "hand": "right"
    },
    {
      "midi": 70,
      "time": 173.125,
      "duration": 0.61,
      "velocity": 1,
      "hand": "right"
    },
    {
      "midi": 70,
      "time": 173.75,
      "duration": 0.61,
      "velocity": 1,
      "hand": "right"
    },
    {
      "midi": 74,
      "time": 173.75,
      "duration": 1.235,
      "velocity": 1,
      "hand": "right"
    },
    {
      "midi": 62,
      "time": 174.375,
      "duration": 0.625,
      "velocity": 1,
      "hand": "right"
    },
    {
      "midi": 65,
      "time": 174.375,
      "duration": 0.625,
      "velocity": 1,
      "hand": "right"
    },
    {
      "midi": 70,
      "time": 174.375,
      "duration": 0.625,
      "velocity": 1,
      "hand": "right"
    },
    {
      "midi": 46,
      "time": 175,
      "duration": 1.25,
      "velocity": 1,
      "hand": "left"
    },
    {
      "midi": 74,
      "time": 175,
      "duration": 1.235,
      "velocity": 1,
      "hand": "right"
    },
    {
      "midi": 62,
      "time": 175.625,
      "duration": 0.625,
      "velocity": 1,
      "hand": "right"
    },
    {
      "midi": 66,
      "time": 175.625,
      "duration": 0.625,
      "velocity": 1,
      "hand": "right"
    },
    {
      "midi": 70,
      "time": 175.625,
      "duration": 0.61,
      "velocity": 1,
      "hand": "right"
    },
    {
      "midi": 70,
      "time": 176.25,
      "duration": 0.61,
      "velocity": 1,
      "hand": "right"
    },
    {
      "midi": 74,
      "time": 176.25,
      "duration": 0.625,
      "velocity": 1,
      "hand": "right"
    },
    {
      "midi": 62,
      "time": 176.875,
      "duration": 0.625,
      "velocity": 1,
      "hand": "right"
    },
    {
      "midi": 66,
      "time": 176.875,
      "duration": 0.625,
      "velocity": 1,
      "hand": "right"
    },
    {
      "midi": 70,
      "time": 176.875,
      "duration": 0.61,
      "velocity": 1,
      "hand": "right"
    },
    {
      "midi": 72,
      "time": 176.875,
      "duration": 0.625,
      "velocity": 1,
      "hand": "right"
    },
    {
      "midi": 46,
      "time": 177.5,
      "duration": 1.25,
      "velocity": 1,
      "hand": "left"
    },
    {
      "midi": 70,
      "time": 177.5,
      "duration": 0.61,
      "velocity": 1,
      "hand": "right"
    },
    {
      "midi": 62,
      "time": 178.125,
      "duration": 0.625,
      "velocity": 1,
      "hand": "right"
    },
    {
      "midi": 67,
      "time": 178.125,
      "duration": 0.625,
      "velocity": 1,
      "hand": "right"
    },
    {
      "midi": 70,
      "time": 178.125,
      "duration": 0.61,
      "velocity": 1,
      "hand": "right"
    },
    {
      "midi": 70,
      "time": 178.75,
      "duration": 0.61,
      "velocity": 1,
      "hand": "right"
    },
    {
      "midi": 74,
      "time": 178.75,
      "duration": 0.625,
      "velocity": 1,
      "hand": "right"
    },
    {
      "midi": 62,
      "time": 179.375,
      "duration": 0.625,
      "velocity": 1,
      "hand": "right"
    },
    {
      "midi": 67,
      "time": 179.375,
      "duration": 0.625,
      "velocity": 1,
      "hand": "right"
    },
    {
      "midi": 70,
      "time": 179.375,
      "duration": 0.625,
      "velocity": 1,
      "hand": "right"
    },
    {
      "midi": 76,
      "time": 179.375,
      "duration": 0.625,
      "velocity": 1,
      "hand": "right"
    },
    {
      "midi": 45,
      "time": 180,
      "duration": 1.25,
      "velocity": 1,
      "hand": "left"
    },
    {
      "midi": 74,
      "time": 180,
      "duration": 1.235,
      "velocity": 1,
      "hand": "right"
    },
    {
      "midi": 64,
      "time": 180.625,
      "duration": 0.625,
      "velocity": 1,
      "hand": "right"
    },
    {
      "midi": 67,
      "time": 180.625,
      "duration": 0.625,
      "velocity": 1,
      "hand": "right"
    },
    {
      "midi": 70,
      "time": 180.625,
      "duration": 0.61,
      "velocity": 1,
      "hand": "right"
    },
    {
      "midi": 70,
      "time": 181.25,
      "duration": 0.61,
      "velocity": 1,
      "hand": "right"
    },
    {
      "midi": 74,
      "time": 181.25,
      "duration": 0.625,
      "velocity": 1,
      "hand": "right"
    },
    {
      "midi": 64,
      "time": 181.875,
      "duration": 0.625,
      "velocity": 1,
      "hand": "right"
    },
    {
      "midi": 67,
      "time": 181.875,
      "duration": 0.625,
      "velocity": 1,
      "hand": "right"
    },
    {
      "midi": 70,
      "time": 181.875,
      "duration": 0.625,
      "velocity": 1,
      "hand": "right"
    },
    {
      "midi": 45,
      "time": 182.5,
      "duration": 1.25,
      "velocity": 1,
      "hand": "left"
    },
    {
      "midi": 73,
      "time": 182.5,
      "duration": 1.235,
      "velocity": 1,
      "hand": "right"
    },
    {
      "midi": 64,
      "time": 183.125,
      "duration": 0.625,
      "velocity": 1,
      "hand": "right"
    },
    {
      "midi": 67,
      "time": 183.125,
      "duration": 0.625,
      "velocity": 1,
      "hand": "right"
    },
    {
      "midi": 69,
      "time": 183.125,
      "duration": 0.61,
      "velocity": 1,
      "hand": "right"
    },
    {
      "midi": 69,
      "time": 183.75,
      "duration": 0.61,
      "velocity": 1,
      "hand": "right"
    },
    {
      "midi": 73,
      "time": 183.75,
      "duration": 0.625,
      "velocity": 1,
      "hand": "right"
    },
    {
      "midi": 64,
      "time": 184.375,
      "duration": 0.625,
      "velocity": 1,
      "hand": "right"
    },
    {
      "midi": 67,
      "time": 184.375,
      "duration": 0.625,
      "velocity": 1,
      "hand": "right"
    },
    {
      "midi": 69,
      "time": 184.375,
      "duration": 0.625,
      "velocity": 1,
      "hand": "right"
    },
    {
      "midi": 42,
      "time": 185,
      "duration": 1.25,
      "velocity": 1,
      "hand": "left"
    },
    {
      "midi": 72,
      "time": 185,
      "duration": 0.61,
      "velocity": 1,
      "hand": "right"
    },
    {
      "midi": 63,
      "time": 185.625,
      "duration": 0.625,
      "velocity": 1,
      "hand": "right"
    },
    {
      "midi": 69,
      "time": 185.625,
      "duration": 0.625,
      "velocity": 1,
      "hand": "right"
    },
    {
      "midi": 72,
      "time": 185.625,
      "duration": 0.61,
      "velocity": 1,
      "hand": "right"
    },
    {
      "midi": 72,
      "time": 186.25,
      "duration": 0.61,
      "velocity": 1,
      "hand": "right"
    },
    {
      "midi": 75,
      "time": 186.25,
      "duration": 0.625,
      "velocity": 1,
      "hand": "right"
    },
    {
      "midi": 63,
      "time": 186.875,
      "duration": 0.625,
      "velocity": 1,
      "hand": "right"
    },
    {
      "midi": 70,
      "time": 186.875,
      "duration": 0.625,
      "velocity": 1,
      "hand": "right"
    },
    {
      "midi": 72,
      "time": 186.875,
      "duration": 0.625,
      "velocity": 1,
      "hand": "right"
    },
    {
      "midi": 42,
      "time": 187.5,
      "duration": 1.25,
      "velocity": 1,
      "hand": "left"
    },
    {
      "midi": 69,
      "time": 187.5,
      "duration": 0.61,
      "velocity": 1,
      "hand": "right"
    },
    {
      "midi": 63,
      "time": 188.125,
      "duration": 0.625,
      "velocity": 1,
      "hand": "right"
    },
    {
      "midi": 69,
      "time": 188.125,
      "duration": 0.625,
      "velocity": 1,
      "hand": "right"
    },
    {
      "midi": 72,
      "time": 188.125,
      "duration": 0.61,
      "velocity": 1,
      "hand": "right"
    },
    {
      "midi": 74,
      "time": 188.125,
      "duration": 0.625,
      "velocity": 1,
      "hand": "right"
    },
    {
      "midi": 72,
      "time": 188.75,
      "duration": 0.61,
      "velocity": 1,
      "hand": "right"
    },
    {
      "midi": 75,
      "time": 188.75,
      "duration": 0.625,
      "velocity": 1,
      "hand": "right"
    },
    {
      "midi": 63,
      "time": 189.375,
      "duration": 0.625,
      "velocity": 1,
      "hand": "right"
    },
    {
      "midi": 69,
      "time": 189.375,
      "duration": 0.625,
      "velocity": 1,
      "hand": "right"
    },
    {
      "midi": 72,
      "time": 189.375,
      "duration": 0.625,
      "velocity": 1,
      "hand": "right"
    },
    {
      "midi": 43,
      "time": 190,
      "duration": 1.25,
      "velocity": 1,
      "hand": "left"
    },
    {
      "midi": 70,
      "time": 190,
      "duration": 0.61,
      "velocity": 1,
      "hand": "right"
    },
    {
      "midi": 62,
      "time": 190.625,
      "duration": 0.625,
      "velocity": 1,
      "hand": "right"
    },
    {
      "midi": 67,
      "time": 190.625,
      "duration": 0.625,
      "velocity": 1,
      "hand": "right"
    },
    {
      "midi": 70,
      "time": 190.625,
      "duration": 0.61,
      "velocity": 1,
      "hand": "right"
    },
    {
      "midi": 70,
      "time": 191.25,
      "duration": 0.61,
      "velocity": 1,
      "hand": "right"
    },
    {
      "midi": 74,
      "time": 191.25,
      "duration": 0.625,
      "velocity": 1,
      "hand": "right"
    },
    {
      "midi": 62,
      "time": 191.875,
      "duration": 0.625,
      "velocity": 1,
      "hand": "right"
    },
    {
      "midi": 67,
      "time": 191.875,
      "duration": 0.625,
      "velocity": 1,
      "hand": "right"
    },
    {
      "midi": 70,
      "time": 191.875,
      "duration": 0.625,
      "velocity": 1,
      "hand": "right"
    },
    {
      "midi": 43,
      "time": 192.5,
      "duration": 1.25,
      "velocity": 1,
      "hand": "left"
    },
    {
      "midi": 62,
      "time": 193.125,
      "duration": 0.625,
      "velocity": 1,
      "hand": "right"
    },
    {
      "midi": 64,
      "time": 193.125,
      "duration": 0.625,
      "velocity": 1,
      "hand": "right"
    },
    {
      "midi": 70,
      "time": 193.125,
      "duration": 0.61,
      "velocity": 1,
      "hand": "right"
    },
    {
      "midi": 70,
      "time": 193.75,
      "duration": 0.61,
      "velocity": 1,
      "hand": "right"
    },
    {
      "midi": 74,
      "time": 193.75,
      "duration": 0.625,
      "velocity": 1,
      "hand": "right"
    },
    {
      "midi": 62,
      "time": 194.375,
      "duration": 0.625,
      "velocity": 1,
      "hand": "right"
    },
    {
      "midi": 64,
      "time": 194.375,
      "duration": 0.625,
      "velocity": 1,
      "hand": "right"
    },
    {
      "midi": 70,
      "time": 194.375,
      "duration": 0.625,
      "velocity": 1,
      "hand": "right"
    },
    {
      "midi": 72,
      "time": 194.375,
      "duration": 0.61,
      "velocity": 1,
      "hand": "right"
    },
    {
      "midi": 45,
      "time": 195,
      "duration": 1.25,
      "velocity": 1,
      "hand": "left"
    },
    {
      "midi": 72,
      "time": 195,
      "duration": 1.235,
      "velocity": 1,
      "hand": "right"
    },
    {
      "midi": 60,
      "time": 195.625,
      "duration": 0.625,
      "velocity": 1,
      "hand": "right"
    },
    {
      "midi": 65,
      "time": 195.625,
      "duration": 0.625,
      "velocity": 1,
      "hand": "right"
    },
    {
      "midi": 69,
      "time": 195.625,
      "duration": 0.61,
      "velocity": 1,
      "hand": "right"
    },
    {
      "midi": 69,
      "time": 196.25,
      "duration": 0.61,
      "velocity": 1,
      "hand": "right"
    },
    {
      "midi": 72,
      "time": 196.25,
      "duration": 0.625,
      "velocity": 1,
      "hand": "right"
    },
    {
      "midi": 60,
      "time": 196.875,
      "duration": 0.625,
      "velocity": 1,
      "hand": "right"
    },
    {
      "midi": 65,
      "time": 196.875,
      "duration": 0.625,
      "velocity": 1,
      "hand": "right"
    },
    {
      "midi": 69,
      "time": 196.875,
      "duration": 0.625,
      "velocity": 1,
      "hand": "right"
    },
    {
      "midi": 38,
      "time": 197.5,
      "duration": 1.25,
      "velocity": 1,
      "hand": "left"
    },
    {
      "midi": 50,
      "time": 197.5,
      "duration": 1.25,
      "velocity": 1,
      "hand": "left"
    },
    {
      "midi": 67,
      "time": 197.5,
      "duration": 0.61,
      "velocity": 1,
      "hand": "right"
    },
    {
      "midi": 65,
      "time": 198.125,
      "duration": 0.625,
      "velocity": 1,
      "hand": "right"
    },
    {
      "midi": 67,
      "time": 198.125,
      "duration": 0.625,
      "velocity": 1,
      "hand": "right"
    },
    {
      "midi": 71,
      "time": 198.125,
      "duration": 0.61,
      "velocity": 1,
      "hand": "right"
    },
    {
      "midi": 74,
      "time": 198.125,
      "duration": 0.625,
      "velocity": 1,
      "hand": "right"
    },
    {
      "midi": 71,
      "time": 198.75,
      "duration": 0.61,
      "velocity": 1,
      "hand": "right"
    },
    {
      "midi": 77,
      "time": 198.75,
      "duration": 0.625,
      "velocity": 1,
      "hand": "right"
    },
    {
      "midi": 65,
      "time": 199.375,
      "duration": 0.625,
      "velocity": 1,
      "hand": "right"
    },
    {
      "midi": 67,
      "time": 199.375,
      "duration": 0.625,
      "velocity": 1,
      "hand": "right"
    },
    {
      "midi": 71,
      "time": 199.375,
      "duration": 0.625,
      "velocity": 1,
      "hand": "right"
    },
    {
      "midi": 74,
      "time": 199.375,
      "duration": 0.625,
      "velocity": 1,
      "hand": "right"
    },
    {
      "midi": 36,
      "time": 200,
      "duration": 1.25,
      "velocity": 1,
      "hand": "left"
    },
    {
      "midi": 48,
      "time": 200,
      "duration": 1.25,
      "velocity": 1,
      "hand": "left"
    },
    {
      "midi": 72,
      "time": 200,
      "duration": 0.61,
      "velocity": 1,
      "hand": "right"
    },
    {
      "midi": 65,
      "time": 200.625,
      "duration": 0.625,
      "velocity": 1,
      "hand": "right"
    },
    {
      "midi": 69,
      "time": 200.625,
      "duration": 0.625,
      "velocity": 1,
      "hand": "right"
    },
    {
      "midi": 72,
      "time": 200.625,
      "duration": 0.61,
      "velocity": 1,
      "hand": "right"
    },
    {
      "midi": 72,
      "time": 201.25,
      "duration": 0.61,
      "velocity": 1,
      "hand": "right"
    },
    {
      "midi": 77,
      "time": 201.25,
      "duration": 0.625,
      "velocity": 1,
      "hand": "right"
    },
    {
      "midi": 65,
      "time": 201.875,
      "duration": 0.625,
      "velocity": 1,
      "hand": "right"
    },
    {
      "midi": 69,
      "time": 201.875,
      "duration": 0.625,
      "velocity": 1,
      "hand": "right"
    },
    {
      "midi": 72,
      "time": 201.875,
      "duration": 0.625,
      "velocity": 1,
      "hand": "right"
    },
    {
      "midi": 36,
      "time": 202.5,
      "duration": 1.25,
      "velocity": 1,
      "hand": "left"
    },
    {
      "midi": 48,
      "time": 202.5,
      "duration": 1.25,
      "velocity": 1,
      "hand": "left"
    },
    {
      "midi": 67,
      "time": 203.125,
      "duration": 0.625,
      "velocity": 1,
      "hand": "right"
    },
    {
      "midi": 70,
      "time": 203.125,
      "duration": 0.61,
      "velocity": 1,
      "hand": "right"
    },
    {
      "midi": 72,
      "time": 203.125,
      "duration": 0.61,
      "velocity": 1,
      "hand": "right"
    },
    {
      "midi": 70,
      "time": 203.75,
      "duration": 0.313,
      "velocity": 1,
      "hand": "right"
    },
    {
      "midi": 72,
      "time": 203.75,
      "duration": 0.61,
      "velocity": 1,
      "hand": "right"
    },
    {
      "midi": 76,
      "time": 203.75,
      "duration": 0.625,
      "velocity": 1,
      "hand": "right"
    },
    {
      "midi": 67,
      "time": 204.375,
      "duration": 0.625,
      "velocity": 1,
      "hand": "right"
    },
    {
      "midi": 70,
      "time": 204.375,
      "duration": 0.625,
      "velocity": 1,
      "hand": "right"
    },
    {
      "midi": 72,
      "time": 204.375,
      "duration": 0.625,
      "velocity": 1,
      "hand": "right"
    },
    {
      "midi": 41,
      "time": 205,
      "duration": 1.25,
      "velocity": 1,
      "hand": "left"
    },
    {
      "midi": 53,
      "time": 205,
      "duration": 1.25,
      "velocity": 1,
      "hand": "left"
    },
    {
      "midi": 65,
      "time": 205,
      "duration": 0.61,
      "velocity": 1,
      "hand": "right"
    },
    {
      "midi": 65,
      "time": 205.625,
      "duration": 0.625,
      "velocity": 1,
      "hand": "right"
    },
    {
      "midi": 69,
      "time": 205.625,
      "duration": 0.625,
      "velocity": 1,
      "hand": "right"
    },
    {
      "midi": 72,
      "time": 205.625,
      "duration": 0.61,
      "velocity": 1,
      "hand": "right"
    },
    {
      "midi": 72,
      "time": 206.25,
      "duration": 0.61,
      "velocity": 1,
      "hand": "right"
    },
    {
      "midi": 77,
      "time": 206.25,
      "duration": 0.625,
      "velocity": 1,
      "hand": "right"
    },
    {
      "midi": 65,
      "time": 206.875,
      "duration": 0.625,
      "velocity": 1,
      "hand": "right"
    },
    {
      "midi": 69,
      "time": 206.875,
      "duration": 0.625,
      "velocity": 1,
      "hand": "right"
    },
    {
      "midi": 72,
      "time": 206.875,
      "duration": 0.625,
      "velocity": 1,
      "hand": "right"
    },
    {
      "midi": 41,
      "time": 207.5,
      "duration": 1.25,
      "velocity": 1,
      "hand": "left"
    },
    {
      "midi": 53,
      "time": 207.5,
      "duration": 1.25,
      "velocity": 1,
      "hand": "left"
    },
    {
      "midi": 65,
      "time": 208.125,
      "duration": 0.61,
      "velocity": 1,
      "hand": "right"
    },
    {
      "midi": 69,
      "time": 208.125,
      "duration": 0.625,
      "velocity": 1,
      "hand": "right"
    },
    {
      "midi": 72,
      "time": 208.125,
      "duration": 0.61,
      "velocity": 1,
      "hand": "right"
    },
    {
      "midi": 65,
      "time": 208.75,
      "duration": 0.61,
      "velocity": 1,
      "hand": "right"
    },
    {
      "midi": 72,
      "time": 208.75,
      "duration": 0.61,
      "velocity": 1,
      "hand": "right"
    },
    {
      "midi": 77,
      "time": 208.75,
      "duration": 0.625,
      "velocity": 1,
      "hand": "right"
    },
    {
      "midi": 65,
      "time": 209.375,
      "duration": 0.625,
      "velocity": 1,
      "hand": "right"
    },
    {
      "midi": 69,
      "time": 209.375,
      "duration": 0.625,
      "velocity": 1,
      "hand": "right"
    },
    {
      "midi": 72,
      "time": 209.375,
      "duration": 0.61,
      "velocity": 1,
      "hand": "right"
    },
    {
      "midi": 41,
      "time": 210,
      "duration": 1.25,
      "velocity": 1,
      "hand": "left"
    },
    {
      "midi": 53,
      "time": 210,
      "duration": 1.25,
      "velocity": 1,
      "hand": "left"
    },
    {
      "midi": 72,
      "time": 210,
      "duration": 0.61,
      "velocity": 1,
      "hand": "right"
    },
    {
      "midi": 63,
      "time": 210.625,
      "duration": 0.625,
      "velocity": 1,
      "hand": "right"
    },
    {
      "midi": 69,
      "time": 210.625,
      "duration": 0.625,
      "velocity": 1,
      "hand": "right"
    },
    {
      "midi": 72,
      "time": 210.625,
      "duration": 0.61,
      "velocity": 1,
      "hand": "right"
    },
    {
      "midi": 72,
      "time": 211.25,
      "duration": 0.61,
      "velocity": 1,
      "hand": "right"
    },
    {
      "midi": 77,
      "time": 211.25,
      "duration": 0.625,
      "velocity": 1,
      "hand": "right"
    },
    {
      "midi": 63,
      "time": 211.875,
      "duration": 0.625,
      "velocity": 1,
      "hand": "right"
    },
    {
      "midi": 69,
      "time": 211.875,
      "duration": 0.625,
      "velocity": 1,
      "hand": "right"
    },
    {
      "midi": 72,
      "time": 211.875,
      "duration": 0.61,
      "velocity": 1,
      "hand": "right"
    },
    {
      "midi": 41,
      "time": 212.5,
      "duration": 1.25,
      "velocity": 1,
      "hand": "left"
    },
    {
      "midi": 53,
      "time": 212.5,
      "duration": 1.25,
      "velocity": 1,
      "hand": "left"
    },
    {
      "midi": 72,
      "time": 212.5,
      "duration": 0.61,
      "velocity": 1,
      "hand": "right"
    },
    {
      "midi": 63,
      "time": 213.125,
      "duration": 0.625,
      "velocity": 1,
      "hand": "right"
    },
    {
      "midi": 69,
      "time": 213.125,
      "duration": 0.625,
      "velocity": 1,
      "hand": "right"
    },
    {
      "midi": 72,
      "time": 213.125,
      "duration": 0.61,
      "velocity": 1,
      "hand": "right"
    },
    {
      "midi": 72,
      "time": 213.75,
      "duration": 0.61,
      "velocity": 1,
      "hand": "right"
    },
    {
      "midi": 77,
      "time": 213.75,
      "duration": 0.625,
      "velocity": 1,
      "hand": "right"
    },
    {
      "midi": 63,
      "time": 214.375,
      "duration": 0.625,
      "velocity": 1,
      "hand": "right"
    },
    {
      "midi": 69,
      "time": 214.375,
      "duration": 0.625,
      "velocity": 1,
      "hand": "right"
    },
    {
      "midi": 72,
      "time": 214.375,
      "duration": 0.61,
      "velocity": 1,
      "hand": "right"
    },
    {
      "midi": 41,
      "time": 215,
      "duration": 1.25,
      "velocity": 1,
      "hand": "left"
    },
    {
      "midi": 53,
      "time": 215,
      "duration": 1.25,
      "velocity": 1,
      "hand": "left"
    },
    {
      "midi": 72,
      "time": 215,
      "duration": 1.25,
      "velocity": 1,
      "hand": "right"
    },
    {
      "midi": 74,
      "time": 215,
      "duration": 0.61,
      "velocity": 1,
      "hand": "right"
    },
    {
      "midi": 62,
      "time": 215.625,
      "duration": 0.625,
      "velocity": 1,
      "hand": "right"
    },
    {
      "midi": 70,
      "time": 215.625,
      "duration": 0.61,
      "velocity": 1,
      "hand": "right"
    },
    {
      "midi": 74,
      "time": 215.625,
      "duration": 0.61,
      "velocity": 1,
      "hand": "right"
    },
    {
      "midi": 70,
      "time": 216.25,
      "duration": 0.61,
      "velocity": 1,
      "hand": "right"
    },
    {
      "midi": 74,
      "time": 216.25,
      "duration": 0.61,
      "velocity": 1,
      "hand": "right"
    },
    {
      "midi": 77,
      "time": 216.25,
      "duration": 0.625,
      "velocity": 1,
      "hand": "right"
    },
    {
      "midi": 62,
      "time": 216.875,
      "duration": 0.625,
      "velocity": 1,
      "hand": "right"
    },
    {
      "midi": 70,
      "time": 216.875,
      "duration": 0.625,
      "velocity": 1,
      "hand": "right"
    },
    {
      "midi": 74,
      "time": 216.875,
      "duration": 0.625,
      "velocity": 1,
      "hand": "right"
    },
    {
      "midi": 41,
      "time": 217.5,
      "duration": 1.25,
      "velocity": 1,
      "hand": "left"
    },
    {
      "midi": 53,
      "time": 217.5,
      "duration": 1.25,
      "velocity": 1,
      "hand": "left"
    },
    {
      "midi": 62,
      "time": 218.125,
      "duration": 0.625,
      "velocity": 1,
      "hand": "right"
    },
    {
      "midi": 70,
      "time": 218.125,
      "duration": 0.61,
      "velocity": 1,
      "hand": "right"
    },
    {
      "midi": 74,
      "time": 218.125,
      "duration": 0.61,
      "velocity": 1,
      "hand": "right"
    },
    {
      "midi": 70,
      "time": 218.75,
      "duration": 0.61,
      "velocity": 1,
      "hand": "right"
    },
    {
      "midi": 74,
      "time": 218.75,
      "duration": 0.61,
      "velocity": 1,
      "hand": "right"
    },
    {
      "midi": 77,
      "time": 218.75,
      "duration": 0.625,
      "velocity": 1,
      "hand": "right"
    },
    {
      "midi": 62,
      "time": 219.375,
      "duration": 0.625,
      "velocity": 1,
      "hand": "right"
    },
    {
      "midi": 70,
      "time": 219.375,
      "duration": 0.625,
      "velocity": 1,
      "hand": "right"
    },
    {
      "midi": 74,
      "time": 219.375,
      "duration": 0.625,
      "velocity": 1,
      "hand": "right"
    },
    {
      "midi": 41,
      "time": 220,
      "duration": 1.25,
      "velocity": 1,
      "hand": "left"
    },
    {
      "midi": 53,
      "time": 220,
      "duration": 1.25,
      "velocity": 1,
      "hand": "left"
    },
    {
      "midi": 72,
      "time": 220,
      "duration": 0.61,
      "velocity": 1,
      "hand": "right"
    },
    {
      "midi": 63,
      "time": 220.625,
      "duration": 0.625,
      "velocity": 1,
      "hand": "right"
    },
    {
      "midi": 69,
      "time": 220.625,
      "duration": 0.625,
      "velocity": 1,
      "hand": "right"
    },
    {
      "midi": 72,
      "time": 220.625,
      "duration": 0.61,
      "velocity": 1,
      "hand": "right"
    },
    {
      "midi": 72,
      "time": 221.25,
      "duration": 0.61,
      "velocity": 1,
      "hand": "right"
    },
    {
      "midi": 77,
      "time": 221.25,
      "duration": 0.625,
      "velocity": 1,
      "hand": "right"
    },
    {
      "midi": 63,
      "time": 221.875,
      "duration": 0.625,
      "velocity": 1,
      "hand": "right"
    },
    {
      "midi": 69,
      "time": 221.875,
      "duration": 0.625,
      "velocity": 1,
      "hand": "right"
    },
    {
      "midi": 72,
      "time": 221.875,
      "duration": 0.61,
      "velocity": 1,
      "hand": "right"
    },
    {
      "midi": 41,
      "time": 222.5,
      "duration": 1.25,
      "velocity": 1,
      "hand": "left"
    },
    {
      "midi": 53,
      "time": 222.5,
      "duration": 1.25,
      "velocity": 1,
      "hand": "left"
    },
    {
      "midi": 72,
      "time": 222.5,
      "duration": 0.61,
      "velocity": 1,
      "hand": "right"
    },
    {
      "midi": 63,
      "time": 223.125,
      "duration": 0.625,
      "velocity": 1,
      "hand": "right"
    },
    {
      "midi": 69,
      "time": 223.125,
      "duration": 0.625,
      "velocity": 1,
      "hand": "right"
    },
    {
      "midi": 72,
      "time": 223.125,
      "duration": 0.61,
      "velocity": 1,
      "hand": "right"
    },
    {
      "midi": 72,
      "time": 223.75,
      "duration": 0.61,
      "velocity": 1,
      "hand": "right"
    },
    {
      "midi": 75,
      "time": 223.75,
      "duration": 0.625,
      "velocity": 1,
      "hand": "right"
    },
    {
      "midi": 77,
      "time": 223.75,
      "duration": 0.625,
      "velocity": 1,
      "hand": "right"
    },
    {
      "midi": 63,
      "time": 224.375,
      "duration": 0.625,
      "velocity": 1,
      "hand": "right"
    },
    {
      "midi": 69,
      "time": 224.375,
      "duration": 0.625,
      "velocity": 1,
      "hand": "right"
    },
    {
      "midi": 72,
      "time": 224.375,
      "duration": 0.625,
      "velocity": 1,
      "hand": "right"
    },
    {
      "midi": 74,
      "time": 224.375,
      "duration": 0.625,
      "velocity": 1,
      "hand": "right"
    },
    {
      "midi": 43,
      "time": 225,
      "duration": 1.25,
      "velocity": 1,
      "hand": "left"
    },
    {
      "midi": 55,
      "time": 225,
      "duration": 1.25,
      "velocity": 1,
      "hand": "left"
    },
    {
      "midi": 70,
      "time": 225,
      "duration": 0.61,
      "velocity": 1,
      "hand": "right"
    },
    {
      "midi": 62,
      "time": 225.625,
      "duration": 0.625,
      "velocity": 1,
      "hand": "right"
    },
    {
      "midi": 67,
      "time": 225.625,
      "duration": 0.625,
      "velocity": 1,
      "hand": "right"
    },
    {
      "midi": 70,
      "time": 225.625,
      "duration": 0.61,
      "velocity": 1,
      "hand": "right"
    },
    {
      "midi": 70,
      "time": 226.25,
      "duration": 0.61,
      "velocity": 1,
      "hand": "right"
    },
    {
      "midi": 74,
      "time": 226.25,
      "duration": 0.625,
      "velocity": 1,
      "hand": "right"
    },
    {
      "midi": 62,
      "time": 226.875,
      "duration": 0.625,
      "velocity": 1,
      "hand": "right"
    },
    {
      "midi": 67,
      "time": 226.875,
      "duration": 0.625,
      "velocity": 1,
      "hand": "right"
    },
    {
      "midi": 70,
      "time": 226.875,
      "duration": 0.625,
      "velocity": 1,
      "hand": "right"
    },
    {
      "midi": 43,
      "time": 227.5,
      "duration": 1.25,
      "velocity": 1,
      "hand": "left"
    },
    {
      "midi": 55,
      "time": 227.5,
      "duration": 1.25,
      "velocity": 1,
      "hand": "left"
    },
    {
      "midi": 58,
      "time": 228.125,
      "duration": 0.625,
      "velocity": 1,
      "hand": "left"
    },
    {
      "midi": 62,
      "time": 228.125,
      "duration": 0.625,
      "velocity": 1,
      "hand": "right"
    },
    {
      "midi": 67,
      "time": 228.125,
      "duration": 0.61,
      "velocity": 1,
      "hand": "right"
    },
    {
      "midi": 67,
      "time": 228.75,
      "duration": 0.61,
      "velocity": 1,
      "hand": "right"
    },
    {
      "midi": 70,
      "time": 228.75,
      "duration": 1.25,
      "velocity": 1,
      "hand": "right"
    },
    {
      "midi": 58,
      "time": 229.375,
      "duration": 0.625,
      "velocity": 1,
      "hand": "left"
    },
    {
      "midi": 62,
      "time": 229.375,
      "duration": 0.625,
      "velocity": 1,
      "hand": "right"
    },
    {
      "midi": 67,
      "time": 229.375,
      "duration": 0.625,
      "velocity": 1,
      "hand": "right"
    },
    {
      "midi": 41,
      "time": 230,
      "duration": 1.25,
      "velocity": 1,
      "hand": "left"
    },
    {
      "midi": 53,
      "time": 230,
      "duration": 1.25,
      "velocity": 1,
      "hand": "left"
    },
    {
      "midi": 72,
      "time": 230,
      "duration": 1.235,
      "velocity": 1,
      "hand": "right"
    },
    {
      "midi": 60,
      "time": 230.625,
      "duration": 0.625,
      "velocity": 1,
      "hand": "right"
    },
    {
      "midi": 65,
      "time": 230.625,
      "duration": 0.625,
      "velocity": 1,
      "hand": "right"
    },
    {
      "midi": 69,
      "time": 230.625,
      "duration": 0.61,
      "velocity": 1,
      "hand": "right"
    },
    {
      "midi": 69,
      "time": 231.25,
      "duration": 0.61,
      "velocity": 1,
      "hand": "right"
    },
    {
      "midi": 72,
      "time": 231.25,
      "duration": 0.61,
      "velocity": 1,
      "hand": "right"
    },
    {
      "midi": 60,
      "time": 231.875,
      "duration": 0.625,
      "velocity": 1,
      "hand": "right"
    },
    {
      "midi": 65,
      "time": 231.875,
      "duration": 0.625,
      "velocity": 1,
      "hand": "right"
    },
    {
      "midi": 69,
      "time": 231.875,
      "duration": 0.625,
      "velocity": 1,
      "hand": "right"
    },
    {
      "midi": 72,
      "time": 231.875,
      "duration": 0.625,
      "velocity": 1,
      "hand": "right"
    },
    {
      "midi": 38,
      "time": 232.5,
      "duration": 1.25,
      "velocity": 1,
      "hand": "left"
    },
    {
      "midi": 50,
      "time": 232.5,
      "duration": 1.25,
      "velocity": 1,
      "hand": "left"
    },
    {
      "midi": 74,
      "time": 232.5,
      "duration": 1.235,
      "velocity": 1,
      "hand": "right"
    },
    {
      "midi": 62,
      "time": 233.125,
      "duration": 0.625,
      "velocity": 1,
      "hand": "right"
    },
    {
      "midi": 66,
      "time": 233.125,
      "duration": 0.625,
      "velocity": 1,
      "hand": "right"
    },
    {
      "midi": 69,
      "time": 233.125,
      "duration": 0.61,
      "velocity": 1,
      "hand": "right"
    },
    {
      "midi": 69,
      "time": 233.75,
      "duration": 0.61,
      "velocity": 1,
      "hand": "right"
    },
    {
      "midi": 75,
      "time": 233.75,
      "duration": 0.313,
      "velocity": 1,
      "hand": "right"
    },
    {
      "midi": 66,
      "time": 234.375,
      "duration": 0.625,
      "velocity": 1,
      "hand": "right"
    },
    {
      "midi": 69,
      "time": 234.375,
      "duration": 0.625,
      "velocity": 1,
      "hand": "right"
    },
    {
      "midi": 72,
      "time": 234.375,
      "duration": 0.625,
      "velocity": 1,
      "hand": "right"
    },
    {
      "midi": 74,
      "time": 234.375,
      "duration": 0.313,
      "velocity": 1,
      "hand": "right"
    },
    {
      "midi": 36,
      "time": 235,
      "duration": 1.25,
      "velocity": 1,
      "hand": "left"
    },
    {
      "midi": 48,
      "time": 235,
      "duration": 1.25,
      "velocity": 1,
      "hand": "left"
    },
    {
      "midi": 75,
      "time": 235,
      "duration": 1.235,
      "velocity": 1,
      "hand": "right"
    },
    {
      "midi": 77,
      "time": 235,
      "duration": 0.313,
      "velocity": 1,
      "hand": "right"
    },
    {
      "midi": 63,
      "time": 235.625,
      "duration": 0.625,
      "velocity": 1,
      "hand": "right"
    },
    {
      "midi": 67,
      "time": 235.625,
      "duration": 0.625,
      "velocity": 1,
      "hand": "right"
    },
    {
      "midi": 72,
      "time": 235.625,
      "duration": 0.61,
      "velocity": 1,
      "hand": "right"
    },
    {
      "midi": 72,
      "time": 236.25,
      "duration": 0.61,
      "velocity": 1,
      "hand": "right"
    },
    {
      "midi": 75,
      "time": 236.25,
      "duration": 1.25,
      "velocity": 1,
      "hand": "right"
    },
    {
      "midi": 63,
      "time": 236.875,
      "duration": 0.625,
      "velocity": 1,
      "hand": "right"
    },
    {
      "midi": 67,
      "time": 236.875,
      "duration": 0.625,
      "velocity": 1,
      "hand": "right"
    },
    {
      "midi": 72,
      "time": 236.875,
      "duration": 0.625,
      "velocity": 1,
      "hand": "right"
    },
    {
      "midi": 36,
      "time": 237.5,
      "duration": 1.25,
      "velocity": 1,
      "hand": "left"
    },
    {
      "midi": 48,
      "time": 237.5,
      "duration": 1.25,
      "velocity": 1,
      "hand": "left"
    },
    {
      "midi": 63,
      "time": 238.125,
      "duration": 0.625,
      "velocity": 1,
      "hand": "right"
    },
    {
      "midi": 67,
      "time": 238.125,
      "duration": 0.625,
      "velocity": 1,
      "hand": "right"
    },
    {
      "midi": 72,
      "time": 238.125,
      "duration": 0.61,
      "velocity": 1,
      "hand": "right"
    },
    {
      "midi": 72,
      "time": 238.75,
      "duration": 0.61,
      "velocity": 1,
      "hand": "right"
    },
    {
      "midi": 75,
      "time": 238.75,
      "duration": 0.625,
      "velocity": 1,
      "hand": "right"
    },
    {
      "midi": 63,
      "time": 239.375,
      "duration": 0.625,
      "velocity": 1,
      "hand": "right"
    },
    {
      "midi": 67,
      "time": 239.375,
      "duration": 0.625,
      "velocity": 1,
      "hand": "right"
    },
    {
      "midi": 72,
      "time": 239.375,
      "duration": 0.61,
      "velocity": 1,
      "hand": "right"
    },
    {
      "midi": 39,
      "time": 240,
      "duration": 1.25,
      "velocity": 1,
      "hand": "left"
    },
    {
      "midi": 51,
      "time": 240,
      "duration": 1.25,
      "velocity": 1,
      "hand": "left"
    },
    {
      "midi": 72,
      "time": 240,
      "duration": 1.235,
      "velocity": 1,
      "hand": "right"
    },
    {
      "midi": 74,
      "time": 240,
      "duration": 0.313,
      "velocity": 1,
      "hand": "right"
    },
    {
      "midi": 60,
      "time": 240.625,
      "duration": 0.625,
      "velocity": 1,
      "hand": "right"
    },
    {
      "midi": 63,
      "time": 240.625,
      "duration": 0.625,
      "velocity": 1,
      "hand": "right"
    },
    {
      "midi": 67,
      "time": 240.625,
      "duration": 0.61,
      "velocity": 1,
      "hand": "right"
    },
    {
      "midi": 67,
      "time": 241.25,
      "duration": 0.61,
      "velocity": 1,
      "hand": "right"
    },
    {
      "midi": 72,
      "time": 241.25,
      "duration": 0.61,
      "velocity": 1,
      "hand": "right"
    },
    {
      "midi": 60,
      "time": 241.875,
      "duration": 0.625,
      "velocity": 1,
      "hand": "right"
    },
    {
      "midi": 63,
      "time": 241.875,
      "duration": 0.625,
      "velocity": 1,
      "hand": "right"
    },
    {
      "midi": 67,
      "time": 241.875,
      "duration": 0.625,
      "velocity": 1,
      "hand": "right"
    },
    {
      "midi": 72,
      "time": 241.875,
      "duration": 0.625,
      "velocity": 1,
      "hand": "right"
    },
    {
      "midi": 43,
      "time": 242.5,
      "duration": 1.25,
      "velocity": 1,
      "hand": "left"
    },
    {
      "midi": 55,
      "time": 242.5,
      "duration": 1.25,
      "velocity": 1,
      "hand": "left"
    },
    {
      "midi": 70,
      "time": 242.5,
      "duration": 0.61,
      "velocity": 1,
      "hand": "right"
    },
    {
      "midi": 61,
      "time": 243.125,
      "duration": 0.625,
      "velocity": 1,
      "hand": "right"
    },
    {
      "midi": 64,
      "time": 243.125,
      "duration": 0.625,
      "velocity": 1,
      "hand": "right"
    },
    {
      "midi": 70,
      "time": 243.125,
      "duration": 0.61,
      "velocity": 1,
      "hand": "right"
    },
    {
      "midi": 70,
      "time": 243.75,
      "duration": 0.61,
      "velocity": 1,
      "hand": "right"
    },
    {
      "midi": 73,
      "time": 243.75,
      "duration": 0.625,
      "velocity": 1,
      "hand": "right"
    },
    {
      "midi": 61,
      "time": 244.375,
      "duration": 0.625,
      "velocity": 1,
      "hand": "right"
    },
    {
      "midi": 64,
      "time": 244.375,
      "duration": 0.625,
      "velocity": 1,
      "hand": "right"
    },
    {
      "midi": 70,
      "time": 244.375,
      "duration": 0.625,
      "velocity": 1,
      "hand": "right"
    },
    {
      "midi": 72,
      "time": 244.375,
      "duration": 0.61,
      "velocity": 1,
      "hand": "right"
    },
    {
      "midi": 41,
      "time": 245,
      "duration": 1.25,
      "velocity": 1,
      "hand": "left"
    },
    {
      "midi": 53,
      "time": 245,
      "duration": 1.25,
      "velocity": 1,
      "hand": "left"
    },
    {
      "midi": 72,
      "time": 245,
      "duration": 1.235,
      "velocity": 1,
      "hand": "right"
    },
    {
      "midi": 60,
      "time": 245.625,
      "duration": 0.625,
      "velocity": 1,
      "hand": "right"
    },
    {
      "midi": 65,
      "time": 245.625,
      "duration": 0.625,
      "velocity": 1,
      "hand": "right"
    },
    {
      "midi": 69,
      "time": 245.625,
      "duration": 0.61,
      "velocity": 1,
      "hand": "right"
    },
    {
      "midi": 69,
      "time": 246.25,
      "duration": 0.61,
      "velocity": 1,
      "hand": "right"
    },
    {
      "midi": 72,
      "time": 246.25,
      "duration": 0.625,
      "velocity": 1,
      "hand": "right"
    },
    {
      "midi": 60,
      "time": 246.875,
      "duration": 0.625,
      "velocity": 1,
      "hand": "right"
    },
    {
      "midi": 65,
      "time": 246.875,
      "duration": 0.625,
      "velocity": 1,
      "hand": "right"
    },
    {
      "midi": 69,
      "time": 246.875,
      "duration": 0.625,
      "velocity": 1,
      "hand": "right"
    },
    {
      "midi": 41,
      "time": 247.5,
      "duration": 1.25,
      "velocity": 1,
      "hand": "left"
    },
    {
      "midi": 53,
      "time": 247.5,
      "duration": 1.25,
      "velocity": 1,
      "hand": "left"
    },
    {
      "midi": 63,
      "time": 248.125,
      "duration": 0.625,
      "velocity": 1,
      "hand": "right"
    },
    {
      "midi": 65,
      "time": 248.125,
      "duration": 0.625,
      "velocity": 1,
      "hand": "right"
    },
    {
      "midi": 69,
      "time": 248.125,
      "duration": 0.61,
      "velocity": 1,
      "hand": "right"
    },
    {
      "midi": 69,
      "time": 248.75,
      "duration": 0.61,
      "velocity": 1,
      "hand": "right"
    },
    {
      "midi": 72,
      "time": 248.75,
      "duration": 0.625,
      "velocity": 1,
      "hand": "right"
    },
    {
      "midi": 63,
      "time": 249.375,
      "duration": 0.625,
      "velocity": 1,
      "hand": "right"
    },
    {
      "midi": 65,
      "time": 249.375,
      "duration": 0.625,
      "velocity": 1,
      "hand": "right"
    },
    {
      "midi": 69,
      "time": 249.375,
      "duration": 0.625,
      "velocity": 1,
      "hand": "right"
    },
    {
      "midi": 46,
      "time": 250,
      "duration": 1.25,
      "velocity": 1,
      "hand": "left"
    },
    {
      "midi": 70,
      "time": 250,
      "duration": 0.61,
      "velocity": 1,
      "hand": "right"
    },
    {
      "midi": 62,
      "time": 250.625,
      "duration": 0.625,
      "velocity": 1,
      "hand": "right"
    },
    {
      "midi": 65,
      "time": 250.625,
      "duration": 0.625,
      "velocity": 1,
      "hand": "right"
    },
    {
      "midi": 70,
      "time": 250.625,
      "duration": 0.61,
      "velocity": 1,
      "hand": "right"
    },
    {
      "midi": 70,
      "time": 251.25,
      "duration": 0.61,
      "velocity": 1,
      "hand": "right"
    },
    {
      "midi": 74,
      "time": 251.25,
      "duration": 0.625,
      "velocity": 1,
      "hand": "right"
    },
    {
      "midi": 62,
      "time": 251.875,
      "duration": 0.625,
      "velocity": 1,
      "hand": "right"
    },
    {
      "midi": 65,
      "time": 251.875,
      "duration": 0.625,
      "velocity": 1,
      "hand": "right"
    },
    {
      "midi": 70,
      "time": 251.875,
      "duration": 0.625,
      "velocity": 1,
      "hand": "right"
    },
    {
      "midi": 43,
      "time": 252.5,
      "duration": 1.25,
      "velocity": 1,
      "hand": "left"
    },
    {
      "midi": 62,
      "time": 253.125,
      "duration": 0.625,
      "velocity": 1,
      "hand": "right"
    },
    {
      "midi": 64,
      "time": 253.125,
      "duration": 0.625,
      "velocity": 1,
      "hand": "right"
    },
    {
      "midi": 70,
      "time": 253.125,
      "duration": 0.61,
      "velocity": 1,
      "hand": "right"
    },
    {
      "midi": 70,
      "time": 253.75,
      "duration": 0.61,
      "velocity": 1,
      "hand": "right"
    },
    {
      "midi": 74,
      "time": 253.75,
      "duration": 0.625,
      "velocity": 1,
      "hand": "right"
    },
    {
      "midi": 62,
      "time": 254.375,
      "duration": 0.625,
      "velocity": 1,
      "hand": "right"
    },
    {
      "midi": 64,
      "time": 254.375,
      "duration": 0.625,
      "velocity": 1,
      "hand": "right"
    },
    {
      "midi": 70,
      "time": 254.375,
      "duration": 0.625,
      "velocity": 1,
      "hand": "right"
    },
    {
      "midi": 41,
      "time": 255,
      "duration": 1.25,
      "velocity": 1,
      "hand": "left"
    },
    {
      "midi": 74,
      "time": 255,
      "duration": 1.235,
      "velocity": 1,
      "hand": "right"
    },
    {
      "midi": 62,
      "time": 255.625,
      "duration": 0.625,
      "velocity": 1,
      "hand": "right"
    },
    {
      "midi": 65,
      "time": 255.625,
      "duration": 0.625,
      "velocity": 1,
      "hand": "right"
    },
    {
      "midi": 70,
      "time": 255.625,
      "duration": 0.61,
      "velocity": 1,
      "hand": "right"
    },
    {
      "midi": 70,
      "time": 256.25,
      "duration": 0.61,
      "velocity": 1,
      "hand": "right"
    },
    {
      "midi": 74,
      "time": 256.25,
      "duration": 0.625,
      "velocity": 1,
      "hand": "right"
    },
    {
      "midi": 62,
      "time": 256.875,
      "duration": 0.625,
      "velocity": 1,
      "hand": "right"
    },
    {
      "midi": 65,
      "time": 256.875,
      "duration": 0.625,
      "velocity": 1,
      "hand": "right"
    },
    {
      "midi": 70,
      "time": 256.875,
      "duration": 0.625,
      "velocity": 1,
      "hand": "right"
    },
    {
      "midi": 41,
      "time": 257.5,
      "duration": 1.25,
      "velocity": 1,
      "hand": "left"
    },
    {
      "midi": 63,
      "time": 258.125,
      "duration": 0.625,
      "velocity": 1,
      "hand": "right"
    },
    {
      "midi": 65,
      "time": 258.125,
      "duration": 0.625,
      "velocity": 1,
      "hand": "right"
    },
    {
      "midi": 69,
      "time": 258.125,
      "duration": 0.61,
      "velocity": 1,
      "hand": "right"
    },
    {
      "midi": 69,
      "time": 258.75,
      "duration": 0.61,
      "velocity": 1,
      "hand": "right"
    },
    {
      "midi": 72,
      "time": 258.75,
      "duration": 0.61,
      "velocity": 1,
      "hand": "right"
    },
    {
      "midi": 63,
      "time": 259.375,
      "duration": 0.625,
      "velocity": 1,
      "hand": "right"
    },
    {
      "midi": 65,
      "time": 259.375,
      "duration": 0.625,
      "velocity": 1,
      "hand": "right"
    },
    {
      "midi": 69,
      "time": 259.375,
      "duration": 0.625,
      "velocity": 1,
      "hand": "right"
    },
    {
      "midi": 72,
      "time": 259.375,
      "duration": 0.625,
      "velocity": 1,
      "hand": "right"
    },
    {
      "midi": 46,
      "time": 260,
      "duration": 1.25,
      "velocity": 1,
      "hand": "left"
    },
    {
      "midi": 70,
      "time": 260,
      "duration": 0.61,
      "velocity": 1,
      "hand": "right"
    },
    {
      "midi": 62,
      "time": 260.625,
      "duration": 0.625,
      "velocity": 1,
      "hand": "right"
    },
    {
      "midi": 65,
      "time": 260.625,
      "duration": 0.625,
      "velocity": 1,
      "hand": "right"
    },
    {
      "midi": 70,
      "time": 260.625,
      "duration": 0.61,
      "velocity": 1,
      "hand": "right"
    },
    {
      "midi": 70,
      "time": 261.25,
      "duration": 0.61,
      "velocity": 1,
      "hand": "right"
    },
    {
      "midi": 74,
      "time": 261.25,
      "duration": 0.625,
      "velocity": 1,
      "hand": "right"
    },
    {
      "midi": 62,
      "time": 261.875,
      "duration": 0.625,
      "velocity": 1,
      "hand": "right"
    },
    {
      "midi": 65,
      "time": 261.875,
      "duration": 0.625,
      "velocity": 1,
      "hand": "right"
    },
    {
      "midi": 70,
      "time": 261.875,
      "duration": 0.625,
      "velocity": 1,
      "hand": "right"
    },
    {
      "midi": 46,
      "time": 262.5,
      "duration": 1.25,
      "velocity": 1,
      "hand": "left"
    },
    {
      "midi": 62,
      "time": 263.125,
      "duration": 0.625,
      "velocity": 1,
      "hand": "right"
    },
    {
      "midi": 65,
      "time": 263.125,
      "duration": 0.625,
      "velocity": 1,
      "hand": "right"
    },
    {
      "midi": 70,
      "time": 263.125,
      "duration": 0.61,
      "velocity": 1,
      "hand": "right"
    },
    {
      "midi": 70,
      "time": 263.75,
      "duration": 0.61,
      "velocity": 1,
      "hand": "right"
    },
    {
      "midi": 74,
      "time": 263.75,
      "duration": 0.625,
      "velocity": 1,
      "hand": "right"
    },
    {
      "midi": 62,
      "time": 264.375,
      "duration": 0.625,
      "velocity": 1,
      "hand": "right"
    },
    {
      "midi": 65,
      "time": 264.375,
      "duration": 0.625,
      "velocity": 1,
      "hand": "right"
    },
    {
      "midi": 70,
      "time": 264.375,
      "duration": 0.625,
      "velocity": 1,
      "hand": "right"
    },
    {
      "midi": 46,
      "time": 265,
      "duration": 1.25,
      "velocity": 1,
      "hand": "left"
    },
    {
      "midi": 65,
      "time": 265.625,
      "duration": 0.625,
      "velocity": 1,
      "hand": "right"
    },
    {
      "midi": 70,
      "time": 265.625,
      "duration": 0.625,
      "velocity": 1,
      "hand": "right"
    },
    {
      "midi": 74,
      "time": 265.625,
      "duration": 0.61,
      "velocity": 1,
      "hand": "right"
    },
    {
      "midi": 74,
      "time": 266.25,
      "duration": 0.61,
      "velocity": 1,
      "hand": "right"
    },
    {
      "midi": 77,
      "time": 266.25,
      "duration": 0.625,
      "velocity": 1,
      "hand": "right"
    },
    {
      "midi": 65,
      "time": 266.875,
      "duration": 0.625,
      "velocity": 1,
      "hand": "right"
    },
    {
      "midi": 70,
      "time": 266.875,
      "duration": 0.625,
      "velocity": 1,
      "hand": "right"
    },
    {
      "midi": 74,
      "time": 266.875,
      "duration": 0.625,
      "velocity": 1,
      "hand": "right"
    },
    {
      "midi": 46,
      "time": 267.5,
      "duration": 1.25,
      "velocity": 1,
      "hand": "left"
    },
    {
      "midi": 68,
      "time": 268.125,
      "duration": 0.625,
      "velocity": 1,
      "hand": "right"
    },
    {
      "midi": 74,
      "time": 268.125,
      "duration": 0.625,
      "velocity": 1,
      "hand": "right"
    },
    {
      "midi": 77,
      "time": 268.125,
      "duration": 0.61,
      "velocity": 1,
      "hand": "right"
    },
    {
      "midi": 77,
      "time": 268.75,
      "duration": 0.61,
      "velocity": 1,
      "hand": "right"
    },
    {
      "midi": 80,
      "time": 268.75,
      "duration": 0.625,
      "velocity": 1,
      "hand": "right"
    },
    {
      "midi": 68,
      "time": 269.375,
      "duration": 0.625,
      "velocity": 1,
      "hand": "right"
    },
    {
      "midi": 74,
      "time": 269.375,
      "duration": 0.625,
      "velocity": 1,
      "hand": "right"
    },
    {
      "midi": 77,
      "time": 269.375,
      "duration": 0.625,
      "velocity": 1,
      "hand": "right"
    },
    {
      "midi": 46,
      "time": 270,
      "duration": 1.25,
      "velocity": 1,
      "hand": "left"
    },
    {
      "midi": 67,
      "time": 270.625,
      "duration": 0.625,
      "velocity": 1,
      "hand": "right"
    },
    {
      "midi": 70,
      "time": 270.625,
      "duration": 0.625,
      "velocity": 1,
      "hand": "right"
    },
    {
      "midi": 75,
      "time": 270.625,
      "duration": 0.61,
      "velocity": 1,
      "hand": "right"
    },
    {
      "midi": 75,
      "time": 271.25,
      "duration": 0.61,
      "velocity": 1,
      "hand": "right"
    },
    {
      "midi": 79,
      "time": 271.25,
      "duration": 0.625,
      "velocity": 1,
      "hand": "right"
    },
    {
      "midi": 67,
      "time": 271.875,
      "duration": 0.625,
      "velocity": 1,
      "hand": "right"
    },
    {
      "midi": 70,
      "time": 271.875,
      "duration": 0.625,
      "velocity": 1,
      "hand": "right"
    },
    {
      "midi": 75,
      "time": 271.875,
      "duration": 0.625,
      "velocity": 1,
      "hand": "right"
    },
    {
      "midi": 46,
      "time": 272.5,
      "duration": 1.25,
      "velocity": 1,
      "hand": "left"
    },
    {
      "midi": 66,
      "time": 273.125,
      "duration": 0.625,
      "velocity": 1,
      "hand": "right"
    },
    {
      "midi": 69,
      "time": 273.125,
      "duration": 0.625,
      "velocity": 1,
      "hand": "right"
    },
    {
      "midi": 75,
      "time": 273.125,
      "duration": 0.61,
      "velocity": 1,
      "hand": "right"
    },
    {
      "midi": 75,
      "time": 273.75,
      "duration": 0.61,
      "velocity": 1,
      "hand": "right"
    },
    {
      "midi": 78,
      "time": 273.75,
      "duration": 0.625,
      "velocity": 1,
      "hand": "right"
    },
    {
      "midi": 66,
      "time": 274.375,
      "duration": 0.625,
      "velocity": 1,
      "hand": "right"
    },
    {
      "midi": 69,
      "time": 274.375,
      "duration": 0.625,
      "velocity": 1,
      "hand": "right"
    },
    {
      "midi": 75,
      "time": 274.375,
      "duration": 0.625,
      "velocity": 1,
      "hand": "right"
    },
    {
      "midi": 46,
      "time": 275,
      "duration": 1.25,
      "velocity": 1,
      "hand": "left"
    },
    {
      "midi": 65,
      "time": 275.625,
      "duration": 0.625,
      "velocity": 1,
      "hand": "right"
    },
    {
      "midi": 70,
      "time": 275.625,
      "duration": 0.625,
      "velocity": 1,
      "hand": "right"
    },
    {
      "midi": 74,
      "time": 275.625,
      "duration": 0.61,
      "velocity": 1,
      "hand": "right"
    },
    {
      "midi": 74,
      "time": 276.25,
      "duration": 0.61,
      "velocity": 1,
      "hand": "right"
    },
    {
      "midi": 77,
      "time": 276.25,
      "duration": 0.625,
      "velocity": 1,
      "hand": "right"
    },
    {
      "midi": 65,
      "time": 276.875,
      "duration": 0.625,
      "velocity": 1,
      "hand": "right"
    },
    {
      "midi": 70,
      "time": 276.875,
      "duration": 0.625,
      "velocity": 1,
      "hand": "right"
    },
    {
      "midi": 74,
      "time": 276.875,
      "duration": 0.625,
      "velocity": 1,
      "hand": "right"
    },
    {
      "midi": 46,
      "time": 277.5,
      "duration": 1.25,
      "velocity": 1,
      "hand": "left"
    },
    {
      "midi": 62,
      "time": 278.125,
      "duration": 0.625,
      "velocity": 1,
      "hand": "right"
    },
    {
      "midi": 65,
      "time": 278.125,
      "duration": 0.625,
      "velocity": 1,
      "hand": "right"
    },
    {
      "midi": 70,
      "time": 278.125,
      "duration": 0.61,
      "velocity": 1,
      "hand": "right"
    },
    {
      "midi": 70,
      "time": 278.75,
      "duration": 0.61,
      "velocity": 1,
      "hand": "right"
    },
    {
      "midi": 74,
      "time": 278.75,
      "duration": 0.625,
      "velocity": 1,
      "hand": "right"
    },
    {
      "midi": 62,
      "time": 279.375,
      "duration": 0.625,
      "velocity": 1,
      "hand": "right"
    },
    {
      "midi": 65,
      "time": 279.375,
      "duration": 0.625,
      "velocity": 1,
      "hand": "right"
    },
    {
      "midi": 70,
      "time": 279.375,
      "duration": 0.61,
      "velocity": 1,
      "hand": "right"
    },
    {
      "midi": 46,
      "time": 280,
      "duration": 1.25,
      "velocity": 1,
      "hand": "left"
    },
    {
      "midi": 70,
      "time": 280,
      "duration": 0.61,
      "velocity": 1,
      "hand": "right"
    },
    {
      "midi": 62,
      "time": 280.625,
      "duration": 0.625,
      "velocity": 1,
      "hand": "right"
    },
    {
      "midi": 65,
      "time": 280.625,
      "duration": 0.625,
      "velocity": 1,
      "hand": "right"
    },
    {
      "midi": 70,
      "time": 280.625,
      "duration": 0.61,
      "velocity": 1,
      "hand": "right"
    },
    {
      "midi": 70,
      "time": 281.25,
      "duration": 0.61,
      "velocity": 1,
      "hand": "right"
    },
    {
      "midi": 74,
      "time": 281.25,
      "duration": 0.625,
      "velocity": 1,
      "hand": "right"
    },
    {
      "midi": 62,
      "time": 281.875,
      "duration": 0.625,
      "velocity": 1,
      "hand": "right"
    },
    {
      "midi": 65,
      "time": 281.875,
      "duration": 0.625,
      "velocity": 1,
      "hand": "right"
    },
    {
      "midi": 70,
      "time": 281.875,
      "duration": 0.625,
      "velocity": 1,
      "hand": "right"
    },
    {
      "midi": 43,
      "time": 282.5,
      "duration": 1.25,
      "velocity": 1,
      "hand": "left"
    },
    {
      "midi": 62,
      "time": 283.125,
      "duration": 0.625,
      "velocity": 1,
      "hand": "right"
    },
    {
      "midi": 64,
      "time": 283.125,
      "duration": 0.625,
      "velocity": 1,
      "hand": "right"
    },
    {
      "midi": 70,
      "time": 283.125,
      "duration": 0.61,
      "velocity": 1,
      "hand": "right"
    },
    {
      "midi": 70,
      "time": 283.75,
      "duration": 0.61,
      "velocity": 1,
      "hand": "right"
    },
    {
      "midi": 74,
      "time": 283.75,
      "duration": 0.625,
      "velocity": 1,
      "hand": "right"
    },
    {
      "midi": 62,
      "time": 284.375,
      "duration": 0.625,
      "velocity": 1,
      "hand": "right"
    },
    {
      "midi": 64,
      "time": 284.375,
      "duration": 0.625,
      "velocity": 1,
      "hand": "right"
    },
    {
      "midi": 70,
      "time": 284.375,
      "duration": 0.625,
      "velocity": 1,
      "hand": "right"
    },
    {
      "midi": 41,
      "time": 285,
      "duration": 1.25,
      "velocity": 1,
      "hand": "left"
    },
    {
      "midi": 74,
      "time": 285,
      "duration": 1.235,
      "velocity": 1,
      "hand": "right"
    },
    {
      "midi": 62,
      "time": 285.625,
      "duration": 0.625,
      "velocity": 1,
      "hand": "right"
    },
    {
      "midi": 65,
      "time": 285.625,
      "duration": 0.625,
      "velocity": 1,
      "hand": "right"
    },
    {
      "midi": 70,
      "time": 285.625,
      "duration": 0.61,
      "velocity": 1,
      "hand": "right"
    },
    {
      "midi": 70,
      "time": 286.25,
      "duration": 0.61,
      "velocity": 1,
      "hand": "right"
    },
    {
      "midi": 74,
      "time": 286.25,
      "duration": 0.625,
      "velocity": 1,
      "hand": "right"
    },
    {
      "midi": 62,
      "time": 286.875,
      "duration": 0.625,
      "velocity": 1,
      "hand": "right"
    },
    {
      "midi": 65,
      "time": 286.875,
      "duration": 0.625,
      "velocity": 1,
      "hand": "right"
    },
    {
      "midi": 70,
      "time": 286.875,
      "duration": 0.625,
      "velocity": 1,
      "hand": "right"
    },
    {
      "midi": 41,
      "time": 287.5,
      "duration": 1.25,
      "velocity": 1,
      "hand": "left"
    },
    {
      "midi": 63,
      "time": 288.125,
      "duration": 0.625,
      "velocity": 1,
      "hand": "right"
    },
    {
      "midi": 69,
      "time": 288.125,
      "duration": 0.625,
      "velocity": 1,
      "hand": "right"
    },
    {
      "midi": 72,
      "time": 288.125,
      "duration": 0.61,
      "velocity": 1,
      "hand": "right"
    },
    {
      "midi": 72,
      "time": 288.75,
      "duration": 0.61,
      "velocity": 1,
      "hand": "right"
    },
    {
      "midi": 75,
      "time": 288.75,
      "duration": 0.625,
      "velocity": 1,
      "hand": "right"
    },
    {
      "midi": 63,
      "time": 289.375,
      "duration": 0.625,
      "velocity": 1,
      "hand": "right"
    },
    {
      "midi": 69,
      "time": 289.375,
      "duration": 0.625,
      "velocity": 1,
      "hand": "right"
    },
    {
      "midi": 72,
      "time": 289.375,
      "duration": 0.625,
      "velocity": 1,
      "hand": "right"
    },
    {
      "midi": 43,
      "time": 290,
      "duration": 1.25,
      "velocity": 1,
      "hand": "left"
    },
    {
      "midi": 70,
      "time": 290,
      "duration": 0.61,
      "velocity": 1,
      "hand": "right"
    },
    {
      "midi": 62,
      "time": 290.625,
      "duration": 0.625,
      "velocity": 1,
      "hand": "right"
    },
    {
      "midi": 67,
      "time": 290.625,
      "duration": 0.625,
      "velocity": 1,
      "hand": "right"
    },
    {
      "midi": 70,
      "time": 290.625,
      "duration": 0.61,
      "velocity": 1,
      "hand": "right"
    },
    {
      "midi": 70,
      "time": 291.25,
      "duration": 0.61,
      "velocity": 1,
      "hand": "right"
    },
    {
      "midi": 74,
      "time": 291.25,
      "duration": 0.625,
      "velocity": 1,
      "hand": "right"
    },
    {
      "midi": 62,
      "time": 291.875,
      "duration": 0.625,
      "velocity": 1,
      "hand": "right"
    },
    {
      "midi": 67,
      "time": 291.875,
      "duration": 0.625,
      "velocity": 1,
      "hand": "right"
    },
    {
      "midi": 70,
      "time": 291.875,
      "duration": 0.625,
      "velocity": 1,
      "hand": "right"
    },
    {
      "midi": 43,
      "time": 292.5,
      "duration": 1.25,
      "velocity": 1,
      "hand": "left"
    },
    {
      "midi": 62,
      "time": 293.125,
      "duration": 0.625,
      "velocity": 1,
      "hand": "right"
    },
    {
      "midi": 67,
      "time": 293.125,
      "duration": 0.625,
      "velocity": 1,
      "hand": "right"
    },
    {
      "midi": 70,
      "time": 293.125,
      "duration": 0.61,
      "velocity": 1,
      "hand": "right"
    },
    {
      "midi": 70,
      "time": 293.75,
      "duration": 0.61,
      "velocity": 1,
      "hand": "right"
    },
    {
      "midi": 74,
      "time": 293.75,
      "duration": 0.625,
      "velocity": 1,
      "hand": "right"
    },
    {
      "midi": 62,
      "time": 294.375,
      "duration": 0.625,
      "velocity": 1,
      "hand": "right"
    },
    {
      "midi": 67,
      "time": 294.375,
      "duration": 0.625,
      "velocity": 1,
      "hand": "right"
    },
    {
      "midi": 70,
      "time": 294.375,
      "duration": 0.625,
      "velocity": 1,
      "hand": "right"
    },
    {
      "midi": 39,
      "time": 295,
      "duration": 1.25,
      "velocity": 1,
      "hand": "left"
    },
    {
      "midi": 72,
      "time": 295,
      "duration": 0.61,
      "velocity": 1,
      "hand": "right"
    },
    {
      "midi": 63,
      "time": 295.625,
      "duration": 0.625,
      "velocity": 1,
      "hand": "right"
    },
    {
      "midi": 67,
      "time": 295.625,
      "duration": 0.625,
      "velocity": 1,
      "hand": "right"
    },
    {
      "midi": 72,
      "time": 295.625,
      "duration": 0.61,
      "velocity": 1,
      "hand": "right"
    },
    {
      "midi": 72,
      "time": 296.25,
      "duration": 0.61,
      "velocity": 1,
      "hand": "right"
    },
    {
      "midi": 75,
      "time": 296.25,
      "duration": 0.625,
      "velocity": 1,
      "hand": "right"
    },
    {
      "midi": 63,
      "time": 296.875,
      "duration": 0.625,
      "velocity": 1,
      "hand": "right"
    },
    {
      "midi": 67,
      "time": 296.875,
      "duration": 0.625,
      "velocity": 1,
      "hand": "right"
    },
    {
      "midi": 72,
      "time": 296.875,
      "duration": 0.61,
      "velocity": 1,
      "hand": "right"
    },
    {
      "midi": 41,
      "time": 297.5,
      "duration": 1.25,
      "velocity": 1,
      "hand": "left"
    },
    {
      "midi": 70,
      "time": 297.5,
      "duration": 0.625,
      "velocity": 1,
      "hand": "right"
    },
    {
      "midi": 72,
      "time": 297.5,
      "duration": 0.313,
      "velocity": 1,
      "hand": "right"
    },
    {
      "midi": 74,
      "time": 297.5,
      "duration": 0.313,
      "velocity": 1,
      "hand": "right"
    },
    {
      "midi": 63,
      "time": 298.125,
      "duration": 0.625,
      "velocity": 1,
      "hand": "right"
    },
    {
      "midi": 65,
      "time": 298.125,
      "duration": 0.625,
      "velocity": 1,
      "hand": "right"
    },
    {
      "midi": 69,
      "time": 298.125,
      "duration": 0.61,
      "velocity": 1,
      "hand": "right"
    },
    {
      "midi": 67,
      "time": 298.75,
      "duration": 0.625,
      "velocity": 1,
      "hand": "right"
    },
    {
      "midi": 69,
      "time": 298.75,
      "duration": 0.61,
      "velocity": 1,
      "hand": "right"
    },
    {
      "midi": 72,
      "time": 298.75,
      "duration": 0.625,
      "velocity": 1,
      "hand": "right"
    },
    {
      "midi": 63,
      "time": 299.375,
      "duration": 0.625,
      "velocity": 1,
      "hand": "right"
    },
    {
      "midi": 65,
      "time": 299.375,
      "duration": 0.625,
      "velocity": 1,
      "hand": "right"
    },
    {
      "midi": 69,
      "time": 299.375,
      "duration": 0.625,
      "velocity": 1,
      "hand": "right"
    },
    {
      "midi": 46,
      "time": 300,
      "duration": 1.25,
      "velocity": 1,
      "hand": "left"
    },
    {
      "midi": 70,
      "time": 300,
      "duration": 0.61,
      "velocity": 1,
      "hand": "right"
    },
    {
      "midi": 62,
      "time": 300.625,
      "duration": 0.625,
      "velocity": 1,
      "hand": "right"
    },
    {
      "midi": 65,
      "time": 300.625,
      "duration": 0.625,
      "velocity": 1,
      "hand": "right"
    },
    {
      "midi": 70,
      "time": 300.625,
      "duration": 0.61,
      "velocity": 1,
      "hand": "right"
    },
    {
      "midi": 70,
      "time": 301.25,
      "duration": 0.61,
      "velocity": 1,
      "hand": "right"
    },
    {
      "midi": 74,
      "time": 301.25,
      "duration": 0.625,
      "velocity": 1,
      "hand": "right"
    },
    {
      "midi": 62,
      "time": 301.875,
      "duration": 0.625,
      "velocity": 1,
      "hand": "right"
    },
    {
      "midi": 65,
      "time": 301.875,
      "duration": 0.625,
      "velocity": 1,
      "hand": "right"
    },
    {
      "midi": 70,
      "time": 301.875,
      "duration": 0.625,
      "velocity": 1,
      "hand": "right"
    },
    {
      "midi": 46,
      "time": 302.5,
      "duration": 1.25,
      "velocity": 1,
      "hand": "left"
    },
    {
      "midi": 62,
      "time": 303.125,
      "duration": 0.625,
      "velocity": 1,
      "hand": "right"
    },
    {
      "midi": 65,
      "time": 303.125,
      "duration": 0.625,
      "velocity": 1,
      "hand": "right"
    },
    {
      "midi": 70,
      "time": 303.125,
      "duration": 0.61,
      "velocity": 1,
      "hand": "right"
    },
    {
      "midi": 70,
      "time": 303.75,
      "duration": 0.61,
      "velocity": 1,
      "hand": "right"
    },
    {
      "midi": 74,
      "time": 303.75,
      "duration": 1.235,
      "velocity": 1,
      "hand": "right"
    },
    {
      "midi": 62,
      "time": 304.375,
      "duration": 0.625,
      "velocity": 1,
      "hand": "right"
    },
    {
      "midi": 65,
      "time": 304.375,
      "duration": 0.625,
      "velocity": 1,
      "hand": "right"
    },
    {
      "midi": 70,
      "time": 304.375,
      "duration": 0.625,
      "velocity": 1,
      "hand": "right"
    },
    {
      "midi": 46,
      "time": 305,
      "duration": 1.25,
      "velocity": 1,
      "hand": "left"
    },
    {
      "midi": 74,
      "time": 305,
      "duration": 1.235,
      "velocity": 1,
      "hand": "right"
    },
    {
      "midi": 62,
      "time": 305.625,
      "duration": 0.625,
      "velocity": 1,
      "hand": "right"
    },
    {
      "midi": 66,
      "time": 305.625,
      "duration": 0.625,
      "velocity": 1,
      "hand": "right"
    },
    {
      "midi": 70,
      "time": 305.625,
      "duration": 0.61,
      "velocity": 1,
      "hand": "right"
    },
    {
      "midi": 70,
      "time": 306.25,
      "duration": 0.61,
      "velocity": 1,
      "hand": "right"
    },
    {
      "midi": 74,
      "time": 306.25,
      "duration": 0.625,
      "velocity": 1,
      "hand": "right"
    },
    {
      "midi": 62,
      "time": 306.875,
      "duration": 0.625,
      "velocity": 1,
      "hand": "right"
    },
    {
      "midi": 66,
      "time": 306.875,
      "duration": 0.625,
      "velocity": 1,
      "hand": "right"
    },
    {
      "midi": 70,
      "time": 306.875,
      "duration": 0.61,
      "velocity": 1,
      "hand": "right"
    },
    {
      "midi": 72,
      "time": 306.875,
      "duration": 0.625,
      "velocity": 1,
      "hand": "right"
    },
    {
      "midi": 46,
      "time": 307.5,
      "duration": 1.25,
      "velocity": 1,
      "hand": "left"
    },
    {
      "midi": 70,
      "time": 307.5,
      "duration": 0.61,
      "velocity": 1,
      "hand": "right"
    },
    {
      "midi": 62,
      "time": 308.125,
      "duration": 0.625,
      "velocity": 1,
      "hand": "right"
    },
    {
      "midi": 67,
      "time": 308.125,
      "duration": 0.625,
      "velocity": 1,
      "hand": "right"
    },
    {
      "midi": 70,
      "time": 308.125,
      "duration": 0.61,
      "velocity": 1,
      "hand": "right"
    },
    {
      "midi": 70,
      "time": 308.75,
      "duration": 0.61,
      "velocity": 1,
      "hand": "right"
    },
    {
      "midi": 74,
      "time": 308.75,
      "duration": 0.625,
      "velocity": 1,
      "hand": "right"
    },
    {
      "midi": 62,
      "time": 309.375,
      "duration": 0.625,
      "velocity": 1,
      "hand": "right"
    },
    {
      "midi": 67,
      "time": 309.375,
      "duration": 0.625,
      "velocity": 1,
      "hand": "right"
    },
    {
      "midi": 70,
      "time": 309.375,
      "duration": 0.625,
      "velocity": 1,
      "hand": "right"
    },
    {
      "midi": 76,
      "time": 309.375,
      "duration": 0.625,
      "velocity": 1,
      "hand": "right"
    },
    {
      "midi": 45,
      "time": 310,
      "duration": 1.25,
      "velocity": 1,
      "hand": "left"
    },
    {
      "midi": 74,
      "time": 310,
      "duration": 1.235,
      "velocity": 1,
      "hand": "right"
    },
    {
      "midi": 64,
      "time": 310.625,
      "duration": 0.625,
      "velocity": 1,
      "hand": "right"
    },
    {
      "midi": 67,
      "time": 310.625,
      "duration": 0.625,
      "velocity": 1,
      "hand": "right"
    },
    {
      "midi": 70,
      "time": 310.625,
      "duration": 0.61,
      "velocity": 1,
      "hand": "right"
    },
    {
      "midi": 70,
      "time": 311.25,
      "duration": 0.61,
      "velocity": 1,
      "hand": "right"
    },
    {
      "midi": 74,
      "time": 311.25,
      "duration": 0.625,
      "velocity": 1,
      "hand": "right"
    },
    {
      "midi": 64,
      "time": 311.875,
      "duration": 0.625,
      "velocity": 1,
      "hand": "right"
    },
    {
      "midi": 67,
      "time": 311.875,
      "duration": 0.625,
      "velocity": 1,
      "hand": "right"
    },
    {
      "midi": 70,
      "time": 311.875,
      "duration": 0.625,
      "velocity": 1,
      "hand": "right"
    },
    {
      "midi": 45,
      "time": 312.5,
      "duration": 1.25,
      "velocity": 1,
      "hand": "left"
    },
    {
      "midi": 73,
      "time": 312.5,
      "duration": 1.235,
      "velocity": 1,
      "hand": "right"
    },
    {
      "midi": 64,
      "time": 313.125,
      "duration": 0.625,
      "velocity": 1,
      "hand": "right"
    },
    {
      "midi": 67,
      "time": 313.125,
      "duration": 0.625,
      "velocity": 1,
      "hand": "right"
    },
    {
      "midi": 69,
      "time": 313.125,
      "duration": 0.61,
      "velocity": 1,
      "hand": "right"
    },
    {
      "midi": 69,
      "time": 313.75,
      "duration": 0.61,
      "velocity": 1,
      "hand": "right"
    },
    {
      "midi": 73,
      "time": 313.75,
      "duration": 0.625,
      "velocity": 1,
      "hand": "right"
    },
    {
      "midi": 64,
      "time": 314.375,
      "duration": 0.625,
      "velocity": 1,
      "hand": "right"
    },
    {
      "midi": 67,
      "time": 314.375,
      "duration": 0.625,
      "velocity": 1,
      "hand": "right"
    },
    {
      "midi": 69,
      "time": 314.375,
      "duration": 0.625,
      "velocity": 1,
      "hand": "right"
    },
    {
      "midi": 42,
      "time": 315,
      "duration": 1.25,
      "velocity": 1,
      "hand": "left"
    },
    {
      "midi": 72,
      "time": 315,
      "duration": 0.61,
      "velocity": 1,
      "hand": "right"
    },
    {
      "midi": 63,
      "time": 315.625,
      "duration": 0.625,
      "velocity": 1,
      "hand": "right"
    },
    {
      "midi": 69,
      "time": 315.625,
      "duration": 0.625,
      "velocity": 1,
      "hand": "right"
    },
    {
      "midi": 72,
      "time": 315.625,
      "duration": 0.61,
      "velocity": 1,
      "hand": "right"
    },
    {
      "midi": 72,
      "time": 316.25,
      "duration": 0.61,
      "velocity": 1,
      "hand": "right"
    },
    {
      "midi": 75,
      "time": 316.25,
      "duration": 0.625,
      "velocity": 1,
      "hand": "right"
    },
    {
      "midi": 63,
      "time": 316.875,
      "duration": 0.625,
      "velocity": 1,
      "hand": "right"
    },
    {
      "midi": 70,
      "time": 316.875,
      "duration": 0.625,
      "velocity": 1,
      "hand": "right"
    },
    {
      "midi": 72,
      "time": 316.875,
      "duration": 0.625,
      "velocity": 1,
      "hand": "right"
    },
    {
      "midi": 42,
      "time": 317.5,
      "duration": 1.25,
      "velocity": 1,
      "hand": "left"
    },
    {
      "midi": 69,
      "time": 317.5,
      "duration": 0.61,
      "velocity": 1,
      "hand": "right"
    },
    {
      "midi": 63,
      "time": 318.125,
      "duration": 0.625,
      "velocity": 1,
      "hand": "right"
    },
    {
      "midi": 69,
      "time": 318.125,
      "duration": 0.625,
      "velocity": 1,
      "hand": "right"
    },
    {
      "midi": 72,
      "time": 318.125,
      "duration": 0.61,
      "velocity": 1,
      "hand": "right"
    },
    {
      "midi": 74,
      "time": 318.125,
      "duration": 0.625,
      "velocity": 1,
      "hand": "right"
    },
    {
      "midi": 72,
      "time": 318.75,
      "duration": 0.61,
      "velocity": 1,
      "hand": "right"
    },
    {
      "midi": 75,
      "time": 318.75,
      "duration": 0.625,
      "velocity": 1,
      "hand": "right"
    },
    {
      "midi": 63,
      "time": 319.375,
      "duration": 0.625,
      "velocity": 1,
      "hand": "right"
    },
    {
      "midi": 69,
      "time": 319.375,
      "duration": 0.625,
      "velocity": 1,
      "hand": "right"
    },
    {
      "midi": 72,
      "time": 319.375,
      "duration": 0.625,
      "velocity": 1,
      "hand": "right"
    },
    {
      "midi": 43,
      "time": 320,
      "duration": 1.25,
      "velocity": 1,
      "hand": "left"
    },
    {
      "midi": 70,
      "time": 320,
      "duration": 0.61,
      "velocity": 1,
      "hand": "right"
    },
    {
      "midi": 62,
      "time": 320.625,
      "duration": 0.625,
      "velocity": 1,
      "hand": "right"
    },
    {
      "midi": 67,
      "time": 320.625,
      "duration": 0.625,
      "velocity": 1,
      "hand": "right"
    },
    {
      "midi": 70,
      "time": 320.625,
      "duration": 0.61,
      "velocity": 1,
      "hand": "right"
    },
    {
      "midi": 70,
      "time": 321.25,
      "duration": 0.61,
      "velocity": 1,
      "hand": "right"
    },
    {
      "midi": 74,
      "time": 321.25,
      "duration": 0.625,
      "velocity": 1,
      "hand": "right"
    },
    {
      "midi": 62,
      "time": 321.875,
      "duration": 0.625,
      "velocity": 1,
      "hand": "right"
    },
    {
      "midi": 67,
      "time": 321.875,
      "duration": 0.625,
      "velocity": 1,
      "hand": "right"
    },
    {
      "midi": 70,
      "time": 321.875,
      "duration": 0.625,
      "velocity": 1,
      "hand": "right"
    },
    {
      "midi": 43,
      "time": 322.5,
      "duration": 1.25,
      "velocity": 1,
      "hand": "left"
    },
    {
      "midi": 62,
      "time": 323.125,
      "duration": 0.625,
      "velocity": 1,
      "hand": "right"
    },
    {
      "midi": 64,
      "time": 323.125,
      "duration": 0.625,
      "velocity": 1,
      "hand": "right"
    },
    {
      "midi": 70,
      "time": 323.125,
      "duration": 0.61,
      "velocity": 1,
      "hand": "right"
    },
    {
      "midi": 70,
      "time": 323.75,
      "duration": 0.61,
      "velocity": 1,
      "hand": "right"
    },
    {
      "midi": 74,
      "time": 323.75,
      "duration": 0.625,
      "velocity": 1,
      "hand": "right"
    },
    {
      "midi": 62,
      "time": 324.375,
      "duration": 0.625,
      "velocity": 1,
      "hand": "right"
    },
    {
      "midi": 64,
      "time": 324.375,
      "duration": 0.625,
      "velocity": 1,
      "hand": "right"
    },
    {
      "midi": 70,
      "time": 324.375,
      "duration": 0.625,
      "velocity": 1,
      "hand": "right"
    },
    {
      "midi": 72,
      "time": 324.375,
      "duration": 0.61,
      "velocity": 1,
      "hand": "right"
    },
    {
      "midi": 45,
      "time": 325,
      "duration": 1.25,
      "velocity": 1,
      "hand": "left"
    },
    {
      "midi": 72,
      "time": 325,
      "duration": 1.235,
      "velocity": 1,
      "hand": "right"
    },
    {
      "midi": 60,
      "time": 325.625,
      "duration": 0.625,
      "velocity": 1,
      "hand": "right"
    },
    {
      "midi": 65,
      "time": 325.625,
      "duration": 0.625,
      "velocity": 1,
      "hand": "right"
    },
    {
      "midi": 69,
      "time": 325.625,
      "duration": 0.61,
      "velocity": 1,
      "hand": "right"
    },
    {
      "midi": 69,
      "time": 326.25,
      "duration": 0.61,
      "velocity": 1,
      "hand": "right"
    },
    {
      "midi": 72,
      "time": 326.25,
      "duration": 0.625,
      "velocity": 1,
      "hand": "right"
    },
    {
      "midi": 60,
      "time": 326.875,
      "duration": 0.625,
      "velocity": 1,
      "hand": "right"
    },
    {
      "midi": 65,
      "time": 326.875,
      "duration": 0.625,
      "velocity": 1,
      "hand": "right"
    },
    {
      "midi": 69,
      "time": 326.875,
      "duration": 0.625,
      "velocity": 1,
      "hand": "right"
    },
    {
      "midi": 38,
      "time": 327.5,
      "duration": 1.25,
      "velocity": 1,
      "hand": "left"
    },
    {
      "midi": 50,
      "time": 327.5,
      "duration": 1.25,
      "velocity": 1,
      "hand": "left"
    },
    {
      "midi": 67,
      "time": 327.5,
      "duration": 0.61,
      "velocity": 1,
      "hand": "right"
    },
    {
      "midi": 65,
      "time": 328.125,
      "duration": 0.625,
      "velocity": 1,
      "hand": "right"
    },
    {
      "midi": 67,
      "time": 328.125,
      "duration": 0.625,
      "velocity": 1,
      "hand": "right"
    },
    {
      "midi": 71,
      "time": 328.125,
      "duration": 0.61,
      "velocity": 1,
      "hand": "right"
    },
    {
      "midi": 74,
      "time": 328.125,
      "duration": 0.625,
      "velocity": 1,
      "hand": "right"
    },
    {
      "midi": 71,
      "time": 328.75,
      "duration": 0.61,
      "velocity": 1,
      "hand": "right"
    },
    {
      "midi": 77,
      "time": 328.75,
      "duration": 0.625,
      "velocity": 1,
      "hand": "right"
    },
    {
      "midi": 65,
      "time": 329.375,
      "duration": 0.625,
      "velocity": 1,
      "hand": "right"
    },
    {
      "midi": 67,
      "time": 329.375,
      "duration": 0.625,
      "velocity": 1,
      "hand": "right"
    },
    {
      "midi": 71,
      "time": 329.375,
      "duration": 0.625,
      "velocity": 1,
      "hand": "right"
    },
    {
      "midi": 74,
      "time": 329.375,
      "duration": 0.625,
      "velocity": 1,
      "hand": "right"
    },
    {
      "midi": 36,
      "time": 330,
      "duration": 1.25,
      "velocity": 1,
      "hand": "left"
    },
    {
      "midi": 48,
      "time": 330,
      "duration": 1.25,
      "velocity": 1,
      "hand": "left"
    },
    {
      "midi": 72,
      "time": 330,
      "duration": 0.61,
      "velocity": 1,
      "hand": "right"
    },
    {
      "midi": 65,
      "time": 330.625,
      "duration": 0.625,
      "velocity": 1,
      "hand": "right"
    },
    {
      "midi": 69,
      "time": 330.625,
      "duration": 0.625,
      "velocity": 1,
      "hand": "right"
    },
    {
      "midi": 72,
      "time": 330.625,
      "duration": 0.61,
      "velocity": 1,
      "hand": "right"
    },
    {
      "midi": 72,
      "time": 331.25,
      "duration": 0.61,
      "velocity": 1,
      "hand": "right"
    },
    {
      "midi": 77,
      "time": 331.25,
      "duration": 0.625,
      "velocity": 1,
      "hand": "right"
    },
    {
      "midi": 65,
      "time": 331.875,
      "duration": 0.625,
      "velocity": 1,
      "hand": "right"
    },
    {
      "midi": 69,
      "time": 331.875,
      "duration": 0.625,
      "velocity": 1,
      "hand": "right"
    },
    {
      "midi": 72,
      "time": 331.875,
      "duration": 0.625,
      "velocity": 1,
      "hand": "right"
    },
    {
      "midi": 36,
      "time": 332.5,
      "duration": 1.25,
      "velocity": 1,
      "hand": "left"
    },
    {
      "midi": 48,
      "time": 332.5,
      "duration": 1.25,
      "velocity": 1,
      "hand": "left"
    },
    {
      "midi": 67,
      "time": 333.125,
      "duration": 0.625,
      "velocity": 1,
      "hand": "right"
    },
    {
      "midi": 70,
      "time": 333.125,
      "duration": 0.61,
      "velocity": 1,
      "hand": "right"
    },
    {
      "midi": 72,
      "time": 333.125,
      "duration": 0.61,
      "velocity": 1,
      "hand": "right"
    },
    {
      "midi": 70,
      "time": 333.75,
      "duration": 0.313,
      "velocity": 1,
      "hand": "right"
    },
    {
      "midi": 72,
      "time": 333.75,
      "duration": 0.61,
      "velocity": 1,
      "hand": "right"
    },
    {
      "midi": 76,
      "time": 333.75,
      "duration": 0.625,
      "velocity": 1,
      "hand": "right"
    },
    {
      "midi": 67,
      "time": 334.375,
      "duration": 0.625,
      "velocity": 1,
      "hand": "right"
    },
    {
      "midi": 70,
      "time": 334.375,
      "duration": 0.625,
      "velocity": 1,
      "hand": "right"
    },
    {
      "midi": 72,
      "time": 334.375,
      "duration": 0.625,
      "velocity": 1,
      "hand": "right"
    },
    {
      "midi": 41,
      "time": 335,
      "duration": 1.25,
      "velocity": 1,
      "hand": "left"
    },
    {
      "midi": 53,
      "time": 335,
      "duration": 1.25,
      "velocity": 1,
      "hand": "left"
    },
    {
      "midi": 65,
      "time": 335,
      "duration": 0.61,
      "velocity": 1,
      "hand": "right"
    },
    {
      "midi": 65,
      "time": 335.625,
      "duration": 0.625,
      "velocity": 1,
      "hand": "right"
    },
    {
      "midi": 69,
      "time": 335.625,
      "duration": 0.625,
      "velocity": 1,
      "hand": "right"
    },
    {
      "midi": 72,
      "time": 335.625,
      "duration": 0.61,
      "velocity": 1,
      "hand": "right"
    },
    {
      "midi": 72,
      "time": 336.25,
      "duration": 0.61,
      "velocity": 1,
      "hand": "right"
    },
    {
      "midi": 77,
      "time": 336.25,
      "duration": 0.625,
      "velocity": 1,
      "hand": "right"
    },
    {
      "midi": 65,
      "time": 336.875,
      "duration": 0.625,
      "velocity": 1,
      "hand": "right"
    },
    {
      "midi": 69,
      "time": 336.875,
      "duration": 0.625,
      "velocity": 1,
      "hand": "right"
    },
    {
      "midi": 72,
      "time": 336.875,
      "duration": 0.625,
      "velocity": 1,
      "hand": "right"
    },
    {
      "midi": 41,
      "time": 337.5,
      "duration": 1.25,
      "velocity": 1,
      "hand": "left"
    },
    {
      "midi": 53,
      "time": 337.5,
      "duration": 1.25,
      "velocity": 1,
      "hand": "left"
    },
    {
      "midi": 65,
      "time": 338.125,
      "duration": 0.61,
      "velocity": 1,
      "hand": "right"
    },
    {
      "midi": 69,
      "time": 338.125,
      "duration": 0.625,
      "velocity": 1,
      "hand": "right"
    },
    {
      "midi": 72,
      "time": 338.125,
      "duration": 0.61,
      "velocity": 1,
      "hand": "right"
    },
    {
      "midi": 65,
      "time": 338.75,
      "duration": 0.61,
      "velocity": 1,
      "hand": "right"
    },
    {
      "midi": 72,
      "time": 338.75,
      "duration": 0.61,
      "velocity": 1,
      "hand": "right"
    },
    {
      "midi": 77,
      "time": 338.75,
      "duration": 0.625,
      "velocity": 1,
      "hand": "right"
    },
    {
      "midi": 65,
      "time": 339.375,
      "duration": 0.625,
      "velocity": 1,
      "hand": "right"
    },
    {
      "midi": 69,
      "time": 339.375,
      "duration": 0.625,
      "velocity": 1,
      "hand": "right"
    },
    {
      "midi": 72,
      "time": 339.375,
      "duration": 0.61,
      "velocity": 1,
      "hand": "right"
    },
    {
      "midi": 41,
      "time": 340,
      "duration": 1.25,
      "velocity": 1,
      "hand": "left"
    },
    {
      "midi": 53,
      "time": 340,
      "duration": 1.25,
      "velocity": 1,
      "hand": "left"
    },
    {
      "midi": 72,
      "time": 340,
      "duration": 0.61,
      "velocity": 1,
      "hand": "right"
    },
    {
      "midi": 63,
      "time": 340.625,
      "duration": 0.625,
      "velocity": 1,
      "hand": "right"
    },
    {
      "midi": 69,
      "time": 340.625,
      "duration": 0.625,
      "velocity": 1,
      "hand": "right"
    },
    {
      "midi": 72,
      "time": 340.625,
      "duration": 0.61,
      "velocity": 1,
      "hand": "right"
    },
    {
      "midi": 72,
      "time": 341.25,
      "duration": 0.61,
      "velocity": 1,
      "hand": "right"
    },
    {
      "midi": 77,
      "time": 341.25,
      "duration": 0.625,
      "velocity": 1,
      "hand": "right"
    },
    {
      "midi": 63,
      "time": 341.875,
      "duration": 0.625,
      "velocity": 1,
      "hand": "right"
    },
    {
      "midi": 69,
      "time": 341.875,
      "duration": 0.625,
      "velocity": 1,
      "hand": "right"
    },
    {
      "midi": 72,
      "time": 341.875,
      "duration": 0.61,
      "velocity": 1,
      "hand": "right"
    },
    {
      "midi": 41,
      "time": 342.5,
      "duration": 1.25,
      "velocity": 1,
      "hand": "left"
    },
    {
      "midi": 53,
      "time": 342.5,
      "duration": 1.25,
      "velocity": 1,
      "hand": "left"
    },
    {
      "midi": 72,
      "time": 342.5,
      "duration": 0.61,
      "velocity": 1,
      "hand": "right"
    },
    {
      "midi": 63,
      "time": 343.125,
      "duration": 0.625,
      "velocity": 1,
      "hand": "right"
    },
    {
      "midi": 69,
      "time": 343.125,
      "duration": 0.625,
      "velocity": 1,
      "hand": "right"
    },
    {
      "midi": 72,
      "time": 343.125,
      "duration": 0.61,
      "velocity": 1,
      "hand": "right"
    },
    {
      "midi": 72,
      "time": 343.75,
      "duration": 0.61,
      "velocity": 1,
      "hand": "right"
    },
    {
      "midi": 77,
      "time": 343.75,
      "duration": 0.625,
      "velocity": 1,
      "hand": "right"
    },
    {
      "midi": 63,
      "time": 344.375,
      "duration": 0.625,
      "velocity": 1,
      "hand": "right"
    },
    {
      "midi": 69,
      "time": 344.375,
      "duration": 0.625,
      "velocity": 1,
      "hand": "right"
    },
    {
      "midi": 72,
      "time": 344.375,
      "duration": 0.61,
      "velocity": 1,
      "hand": "right"
    },
    {
      "midi": 41,
      "time": 345,
      "duration": 1.25,
      "velocity": 1,
      "hand": "left"
    },
    {
      "midi": 53,
      "time": 345,
      "duration": 1.25,
      "velocity": 1,
      "hand": "left"
    },
    {
      "midi": 72,
      "time": 345,
      "duration": 1.25,
      "velocity": 1,
      "hand": "right"
    },
    {
      "midi": 74,
      "time": 345,
      "duration": 0.61,
      "velocity": 1,
      "hand": "right"
    },
    {
      "midi": 62,
      "time": 345.625,
      "duration": 0.625,
      "velocity": 1,
      "hand": "right"
    },
    {
      "midi": 70,
      "time": 345.625,
      "duration": 0.61,
      "velocity": 1,
      "hand": "right"
    },
    {
      "midi": 74,
      "time": 345.625,
      "duration": 0.61,
      "velocity": 1,
      "hand": "right"
    },
    {
      "midi": 70,
      "time": 346.25,
      "duration": 0.61,
      "velocity": 1,
      "hand": "right"
    },
    {
      "midi": 74,
      "time": 346.25,
      "duration": 0.61,
      "velocity": 1,
      "hand": "right"
    },
    {
      "midi": 77,
      "time": 346.25,
      "duration": 0.625,
      "velocity": 1,
      "hand": "right"
    },
    {
      "midi": 62,
      "time": 346.875,
      "duration": 0.625,
      "velocity": 1,
      "hand": "right"
    },
    {
      "midi": 70,
      "time": 346.875,
      "duration": 0.625,
      "velocity": 1,
      "hand": "right"
    },
    {
      "midi": 74,
      "time": 346.875,
      "duration": 0.625,
      "velocity": 1,
      "hand": "right"
    },
    {
      "midi": 41,
      "time": 347.5,
      "duration": 1.25,
      "velocity": 1,
      "hand": "left"
    },
    {
      "midi": 53,
      "time": 347.5,
      "duration": 1.25,
      "velocity": 1,
      "hand": "left"
    },
    {
      "midi": 62,
      "time": 348.125,
      "duration": 0.625,
      "velocity": 1,
      "hand": "right"
    },
    {
      "midi": 70,
      "time": 348.125,
      "duration": 0.61,
      "velocity": 1,
      "hand": "right"
    },
    {
      "midi": 74,
      "time": 348.125,
      "duration": 0.61,
      "velocity": 1,
      "hand": "right"
    },
    {
      "midi": 70,
      "time": 348.75,
      "duration": 0.61,
      "velocity": 1,
      "hand": "right"
    },
    {
      "midi": 74,
      "time": 348.75,
      "duration": 0.61,
      "velocity": 1,
      "hand": "right"
    },
    {
      "midi": 77,
      "time": 348.75,
      "duration": 0.625,
      "velocity": 1,
      "hand": "right"
    },
    {
      "midi": 62,
      "time": 349.375,
      "duration": 0.625,
      "velocity": 1,
      "hand": "right"
    },
    {
      "midi": 70,
      "time": 349.375,
      "duration": 0.625,
      "velocity": 1,
      "hand": "right"
    },
    {
      "midi": 74,
      "time": 349.375,
      "duration": 0.625,
      "velocity": 1,
      "hand": "right"
    },
    {
      "midi": 41,
      "time": 350,
      "duration": 1.25,
      "velocity": 1,
      "hand": "left"
    },
    {
      "midi": 53,
      "time": 350,
      "duration": 1.25,
      "velocity": 1,
      "hand": "left"
    },
    {
      "midi": 72,
      "time": 350,
      "duration": 0.61,
      "velocity": 1,
      "hand": "right"
    },
    {
      "midi": 63,
      "time": 350.625,
      "duration": 0.625,
      "velocity": 1,
      "hand": "right"
    },
    {
      "midi": 69,
      "time": 350.625,
      "duration": 0.625,
      "velocity": 1,
      "hand": "right"
    },
    {
      "midi": 72,
      "time": 350.625,
      "duration": 0.61,
      "velocity": 1,
      "hand": "right"
    },
    {
      "midi": 72,
      "time": 351.25,
      "duration": 0.61,
      "velocity": 1,
      "hand": "right"
    },
    {
      "midi": 77,
      "time": 351.25,
      "duration": 0.625,
      "velocity": 1,
      "hand": "right"
    },
    {
      "midi": 63,
      "time": 351.875,
      "duration": 0.625,
      "velocity": 1,
      "hand": "right"
    },
    {
      "midi": 69,
      "time": 351.875,
      "duration": 0.625,
      "velocity": 1,
      "hand": "right"
    },
    {
      "midi": 72,
      "time": 351.875,
      "duration": 0.61,
      "velocity": 1,
      "hand": "right"
    },
    {
      "midi": 41,
      "time": 352.5,
      "duration": 1.25,
      "velocity": 1,
      "hand": "left"
    },
    {
      "midi": 53,
      "time": 352.5,
      "duration": 1.25,
      "velocity": 1,
      "hand": "left"
    },
    {
      "midi": 72,
      "time": 352.5,
      "duration": 0.61,
      "velocity": 1,
      "hand": "right"
    },
    {
      "midi": 63,
      "time": 353.125,
      "duration": 0.625,
      "velocity": 1,
      "hand": "right"
    },
    {
      "midi": 69,
      "time": 353.125,
      "duration": 0.625,
      "velocity": 1,
      "hand": "right"
    },
    {
      "midi": 72,
      "time": 353.125,
      "duration": 0.61,
      "velocity": 1,
      "hand": "right"
    },
    {
      "midi": 72,
      "time": 353.75,
      "duration": 0.61,
      "velocity": 1,
      "hand": "right"
    },
    {
      "midi": 75,
      "time": 353.75,
      "duration": 0.625,
      "velocity": 1,
      "hand": "right"
    },
    {
      "midi": 77,
      "time": 353.75,
      "duration": 0.625,
      "velocity": 1,
      "hand": "right"
    },
    {
      "midi": 63,
      "time": 354.375,
      "duration": 0.625,
      "velocity": 1,
      "hand": "right"
    },
    {
      "midi": 69,
      "time": 354.375,
      "duration": 0.625,
      "velocity": 1,
      "hand": "right"
    },
    {
      "midi": 72,
      "time": 354.375,
      "duration": 0.625,
      "velocity": 1,
      "hand": "right"
    },
    {
      "midi": 74,
      "time": 354.375,
      "duration": 0.625,
      "velocity": 1,
      "hand": "right"
    },
    {
      "midi": 43,
      "time": 355,
      "duration": 1.25,
      "velocity": 1,
      "hand": "left"
    },
    {
      "midi": 55,
      "time": 355,
      "duration": 1.25,
      "velocity": 1,
      "hand": "left"
    },
    {
      "midi": 70,
      "time": 355,
      "duration": 0.61,
      "velocity": 1,
      "hand": "right"
    },
    {
      "midi": 62,
      "time": 355.625,
      "duration": 0.625,
      "velocity": 1,
      "hand": "right"
    },
    {
      "midi": 67,
      "time": 355.625,
      "duration": 0.625,
      "velocity": 1,
      "hand": "right"
    },
    {
      "midi": 70,
      "time": 355.625,
      "duration": 0.61,
      "velocity": 1,
      "hand": "right"
    },
    {
      "midi": 70,
      "time": 356.25,
      "duration": 0.61,
      "velocity": 1,
      "hand": "right"
    },
    {
      "midi": 74,
      "time": 356.25,
      "duration": 0.625,
      "velocity": 1,
      "hand": "right"
    },
    {
      "midi": 62,
      "time": 356.875,
      "duration": 0.625,
      "velocity": 1,
      "hand": "right"
    },
    {
      "midi": 67,
      "time": 356.875,
      "duration": 0.625,
      "velocity": 1,
      "hand": "right"
    },
    {
      "midi": 70,
      "time": 356.875,
      "duration": 0.625,
      "velocity": 1,
      "hand": "right"
    },
    {
      "midi": 43,
      "time": 357.5,
      "duration": 1.25,
      "velocity": 1,
      "hand": "left"
    },
    {
      "midi": 55,
      "time": 357.5,
      "duration": 1.25,
      "velocity": 1,
      "hand": "left"
    },
    {
      "midi": 58,
      "time": 358.125,
      "duration": 0.625,
      "velocity": 1,
      "hand": "left"
    },
    {
      "midi": 62,
      "time": 358.125,
      "duration": 0.625,
      "velocity": 1,
      "hand": "right"
    },
    {
      "midi": 67,
      "time": 358.125,
      "duration": 0.61,
      "velocity": 1,
      "hand": "right"
    },
    {
      "midi": 67,
      "time": 358.75,
      "duration": 0.61,
      "velocity": 1,
      "hand": "right"
    },
    {
      "midi": 70,
      "time": 358.75,
      "duration": 1.25,
      "velocity": 1,
      "hand": "right"
    },
    {
      "midi": 58,
      "time": 359.375,
      "duration": 0.625,
      "velocity": 1,
      "hand": "left"
    },
    {
      "midi": 62,
      "time": 359.375,
      "duration": 0.625,
      "velocity": 1,
      "hand": "right"
    },
    {
      "midi": 67,
      "time": 359.375,
      "duration": 0.625,
      "velocity": 1,
      "hand": "right"
    },
    {
      "midi": 41,
      "time": 360,
      "duration": 1.25,
      "velocity": 1,
      "hand": "left"
    },
    {
      "midi": 53,
      "time": 360,
      "duration": 1.25,
      "velocity": 1,
      "hand": "left"
    },
    {
      "midi": 72,
      "time": 360,
      "duration": 1.235,
      "velocity": 1,
      "hand": "right"
    },
    {
      "midi": 60,
      "time": 360.625,
      "duration": 0.625,
      "velocity": 1,
      "hand": "right"
    },
    {
      "midi": 65,
      "time": 360.625,
      "duration": 0.625,
      "velocity": 1,
      "hand": "right"
    },
    {
      "midi": 69,
      "time": 360.625,
      "duration": 0.61,
      "velocity": 1,
      "hand": "right"
    },
    {
      "midi": 69,
      "time": 361.25,
      "duration": 0.61,
      "velocity": 1,
      "hand": "right"
    },
    {
      "midi": 72,
      "time": 361.25,
      "duration": 0.61,
      "velocity": 1,
      "hand": "right"
    },
    {
      "midi": 60,
      "time": 361.875,
      "duration": 0.625,
      "velocity": 1,
      "hand": "right"
    },
    {
      "midi": 65,
      "time": 361.875,
      "duration": 0.625,
      "velocity": 1,
      "hand": "right"
    },
    {
      "midi": 69,
      "time": 361.875,
      "duration": 0.625,
      "velocity": 1,
      "hand": "right"
    },
    {
      "midi": 72,
      "time": 361.875,
      "duration": 0.625,
      "velocity": 1,
      "hand": "right"
    },
    {
      "midi": 38,
      "time": 362.5,
      "duration": 1.25,
      "velocity": 1,
      "hand": "left"
    },
    {
      "midi": 50,
      "time": 362.5,
      "duration": 1.25,
      "velocity": 1,
      "hand": "left"
    },
    {
      "midi": 74,
      "time": 362.5,
      "duration": 1.235,
      "velocity": 1,
      "hand": "right"
    },
    {
      "midi": 62,
      "time": 363.125,
      "duration": 0.625,
      "velocity": 1,
      "hand": "right"
    },
    {
      "midi": 66,
      "time": 363.125,
      "duration": 0.625,
      "velocity": 1,
      "hand": "right"
    },
    {
      "midi": 69,
      "time": 363.125,
      "duration": 0.61,
      "velocity": 1,
      "hand": "right"
    },
    {
      "midi": 69,
      "time": 363.75,
      "duration": 0.61,
      "velocity": 1,
      "hand": "right"
    },
    {
      "midi": 75,
      "time": 363.75,
      "duration": 0.313,
      "velocity": 1,
      "hand": "right"
    },
    {
      "midi": 66,
      "time": 364.375,
      "duration": 0.625,
      "velocity": 1,
      "hand": "right"
    },
    {
      "midi": 69,
      "time": 364.375,
      "duration": 0.625,
      "velocity": 1,
      "hand": "right"
    },
    {
      "midi": 72,
      "time": 364.375,
      "duration": 0.625,
      "velocity": 1,
      "hand": "right"
    },
    {
      "midi": 74,
      "time": 364.375,
      "duration": 0.313,
      "velocity": 1,
      "hand": "right"
    },
    {
      "midi": 36,
      "time": 365,
      "duration": 1.25,
      "velocity": 1,
      "hand": "left"
    },
    {
      "midi": 48,
      "time": 365,
      "duration": 1.25,
      "velocity": 1,
      "hand": "left"
    },
    {
      "midi": 75,
      "time": 365,
      "duration": 1.235,
      "velocity": 1,
      "hand": "right"
    },
    {
      "midi": 77,
      "time": 365,
      "duration": 0.313,
      "velocity": 1,
      "hand": "right"
    },
    {
      "midi": 63,
      "time": 365.625,
      "duration": 0.625,
      "velocity": 1,
      "hand": "right"
    },
    {
      "midi": 67,
      "time": 365.625,
      "duration": 0.625,
      "velocity": 1,
      "hand": "right"
    },
    {
      "midi": 72,
      "time": 365.625,
      "duration": 0.61,
      "velocity": 1,
      "hand": "right"
    },
    {
      "midi": 72,
      "time": 366.25,
      "duration": 0.61,
      "velocity": 1,
      "hand": "right"
    },
    {
      "midi": 75,
      "time": 366.25,
      "duration": 1.25,
      "velocity": 1,
      "hand": "right"
    },
    {
      "midi": 63,
      "time": 366.875,
      "duration": 0.625,
      "velocity": 1,
      "hand": "right"
    },
    {
      "midi": 67,
      "time": 366.875,
      "duration": 0.625,
      "velocity": 1,
      "hand": "right"
    },
    {
      "midi": 72,
      "time": 366.875,
      "duration": 0.625,
      "velocity": 1,
      "hand": "right"
    },
    {
      "midi": 36,
      "time": 367.5,
      "duration": 1.25,
      "velocity": 1,
      "hand": "left"
    },
    {
      "midi": 48,
      "time": 367.5,
      "duration": 1.25,
      "velocity": 1,
      "hand": "left"
    },
    {
      "midi": 63,
      "time": 368.125,
      "duration": 0.625,
      "velocity": 1,
      "hand": "right"
    },
    {
      "midi": 67,
      "time": 368.125,
      "duration": 0.625,
      "velocity": 1,
      "hand": "right"
    },
    {
      "midi": 72,
      "time": 368.125,
      "duration": 0.61,
      "velocity": 1,
      "hand": "right"
    },
    {
      "midi": 72,
      "time": 368.75,
      "duration": 0.61,
      "velocity": 1,
      "hand": "right"
    },
    {
      "midi": 75,
      "time": 368.75,
      "duration": 0.625,
      "velocity": 1,
      "hand": "right"
    },
    {
      "midi": 63,
      "time": 369.375,
      "duration": 0.625,
      "velocity": 1,
      "hand": "right"
    },
    {
      "midi": 67,
      "time": 369.375,
      "duration": 0.625,
      "velocity": 1,
      "hand": "right"
    },
    {
      "midi": 72,
      "time": 369.375,
      "duration": 0.61,
      "velocity": 1,
      "hand": "right"
    },
    {
      "midi": 39,
      "time": 370,
      "duration": 1.25,
      "velocity": 1,
      "hand": "left"
    },
    {
      "midi": 51,
      "time": 370,
      "duration": 1.25,
      "velocity": 1,
      "hand": "left"
    },
    {
      "midi": 72,
      "time": 370,
      "duration": 1.235,
      "velocity": 1,
      "hand": "right"
    },
    {
      "midi": 74,
      "time": 370,
      "duration": 0.313,
      "velocity": 1,
      "hand": "right"
    },
    {
      "midi": 60,
      "time": 370.625,
      "duration": 0.625,
      "velocity": 1,
      "hand": "right"
    },
    {
      "midi": 63,
      "time": 370.625,
      "duration": 0.625,
      "velocity": 1,
      "hand": "right"
    },
    {
      "midi": 67,
      "time": 370.625,
      "duration": 0.61,
      "velocity": 1,
      "hand": "right"
    },
    {
      "midi": 67,
      "time": 371.25,
      "duration": 0.61,
      "velocity": 1,
      "hand": "right"
    },
    {
      "midi": 72,
      "time": 371.25,
      "duration": 0.61,
      "velocity": 1,
      "hand": "right"
    },
    {
      "midi": 60,
      "time": 371.875,
      "duration": 0.625,
      "velocity": 1,
      "hand": "right"
    },
    {
      "midi": 63,
      "time": 371.875,
      "duration": 0.625,
      "velocity": 1,
      "hand": "right"
    },
    {
      "midi": 67,
      "time": 371.875,
      "duration": 0.625,
      "velocity": 1,
      "hand": "right"
    },
    {
      "midi": 72,
      "time": 371.875,
      "duration": 0.625,
      "velocity": 1,
      "hand": "right"
    },
    {
      "midi": 43,
      "time": 372.5,
      "duration": 1.25,
      "velocity": 1,
      "hand": "left"
    },
    {
      "midi": 55,
      "time": 372.5,
      "duration": 1.25,
      "velocity": 1,
      "hand": "left"
    },
    {
      "midi": 70,
      "time": 372.5,
      "duration": 0.61,
      "velocity": 1,
      "hand": "right"
    },
    {
      "midi": 61,
      "time": 373.125,
      "duration": 0.625,
      "velocity": 1,
      "hand": "right"
    },
    {
      "midi": 64,
      "time": 373.125,
      "duration": 0.625,
      "velocity": 1,
      "hand": "right"
    },
    {
      "midi": 70,
      "time": 373.125,
      "duration": 0.61,
      "velocity": 1,
      "hand": "right"
    },
    {
      "midi": 70,
      "time": 373.75,
      "duration": 0.61,
      "velocity": 1,
      "hand": "right"
    },
    {
      "midi": 73,
      "time": 373.75,
      "duration": 0.625,
      "velocity": 1,
      "hand": "right"
    },
    {
      "midi": 61,
      "time": 374.375,
      "duration": 0.625,
      "velocity": 1,
      "hand": "right"
    },
    {
      "midi": 64,
      "time": 374.375,
      "duration": 0.625,
      "velocity": 1,
      "hand": "right"
    },
    {
      "midi": 70,
      "time": 374.375,
      "duration": 0.625,
      "velocity": 1,
      "hand": "right"
    },
    {
      "midi": 72,
      "time": 374.375,
      "duration": 0.61,
      "velocity": 1,
      "hand": "right"
    },
    {
      "midi": 41,
      "time": 375,
      "duration": 1.25,
      "velocity": 1,
      "hand": "left"
    },
    {
      "midi": 53,
      "time": 375,
      "duration": 1.25,
      "velocity": 1,
      "hand": "left"
    },
    {
      "midi": 72,
      "time": 375,
      "duration": 1.235,
      "velocity": 1,
      "hand": "right"
    },
    {
      "midi": 60,
      "time": 375.625,
      "duration": 0.625,
      "velocity": 1,
      "hand": "right"
    },
    {
      "midi": 65,
      "time": 375.625,
      "duration": 0.625,
      "velocity": 1,
      "hand": "right"
    },
    {
      "midi": 69,
      "time": 375.625,
      "duration": 0.61,
      "velocity": 1,
      "hand": "right"
    },
    {
      "midi": 69,
      "time": 376.25,
      "duration": 0.61,
      "velocity": 1,
      "hand": "right"
    },
    {
      "midi": 72,
      "time": 376.25,
      "duration": 0.625,
      "velocity": 1,
      "hand": "right"
    },
    {
      "midi": 60,
      "time": 376.875,
      "duration": 0.625,
      "velocity": 1,
      "hand": "right"
    },
    {
      "midi": 65,
      "time": 376.875,
      "duration": 0.625,
      "velocity": 1,
      "hand": "right"
    },
    {
      "midi": 69,
      "time": 376.875,
      "duration": 0.625,
      "velocity": 1,
      "hand": "right"
    },
    {
      "midi": 41,
      "time": 377.5,
      "duration": 1.25,
      "velocity": 1,
      "hand": "left"
    },
    {
      "midi": 53,
      "time": 377.5,
      "duration": 1.25,
      "velocity": 1,
      "hand": "left"
    },
    {
      "midi": 63,
      "time": 378.125,
      "duration": 0.625,
      "velocity": 1,
      "hand": "right"
    },
    {
      "midi": 65,
      "time": 378.125,
      "duration": 0.625,
      "velocity": 1,
      "hand": "right"
    },
    {
      "midi": 69,
      "time": 378.125,
      "duration": 0.61,
      "velocity": 1,
      "hand": "right"
    },
    {
      "midi": 69,
      "time": 378.75,
      "duration": 0.61,
      "velocity": 1,
      "hand": "right"
    },
    {
      "midi": 72,
      "time": 378.75,
      "duration": 0.625,
      "velocity": 1,
      "hand": "right"
    },
    {
      "midi": 63,
      "time": 379.375,
      "duration": 0.625,
      "velocity": 1,
      "hand": "right"
    },
    {
      "midi": 65,
      "time": 379.375,
      "duration": 0.625,
      "velocity": 1,
      "hand": "right"
    },
    {
      "midi": 69,
      "time": 379.375,
      "duration": 0.625,
      "velocity": 1,
      "hand": "right"
    },
    {
      "midi": 46,
      "time": 380,
      "duration": 1.25,
      "velocity": 1,
      "hand": "left"
    },
    {
      "midi": 70,
      "time": 380,
      "duration": 0.61,
      "velocity": 1,
      "hand": "right"
    },
    {
      "midi": 62,
      "time": 380.625,
      "duration": 0.625,
      "velocity": 1,
      "hand": "right"
    },
    {
      "midi": 65,
      "time": 380.625,
      "duration": 0.625,
      "velocity": 1,
      "hand": "right"
    },
    {
      "midi": 70,
      "time": 380.625,
      "duration": 0.61,
      "velocity": 1,
      "hand": "right"
    },
    {
      "midi": 70,
      "time": 381.25,
      "duration": 0.61,
      "velocity": 1,
      "hand": "right"
    },
    {
      "midi": 74,
      "time": 381.25,
      "duration": 0.625,
      "velocity": 1,
      "hand": "right"
    },
    {
      "midi": 62,
      "time": 381.875,
      "duration": 0.625,
      "velocity": 1,
      "hand": "right"
    },
    {
      "midi": 65,
      "time": 381.875,
      "duration": 0.625,
      "velocity": 1,
      "hand": "right"
    },
    {
      "midi": 70,
      "time": 381.875,
      "duration": 0.625,
      "velocity": 1,
      "hand": "right"
    },
    {
      "midi": 43,
      "time": 382.5,
      "duration": 1.25,
      "velocity": 1,
      "hand": "left"
    },
    {
      "midi": 62,
      "time": 383.125,
      "duration": 0.625,
      "velocity": 1,
      "hand": "right"
    },
    {
      "midi": 64,
      "time": 383.125,
      "duration": 0.625,
      "velocity": 1,
      "hand": "right"
    },
    {
      "midi": 70,
      "time": 383.125,
      "duration": 0.61,
      "velocity": 1,
      "hand": "right"
    },
    {
      "midi": 70,
      "time": 383.75,
      "duration": 0.61,
      "velocity": 1,
      "hand": "right"
    },
    {
      "midi": 74,
      "time": 383.75,
      "duration": 0.625,
      "velocity": 1,
      "hand": "right"
    },
    {
      "midi": 62,
      "time": 384.375,
      "duration": 0.625,
      "velocity": 1,
      "hand": "right"
    },
    {
      "midi": 64,
      "time": 384.375,
      "duration": 0.625,
      "velocity": 1,
      "hand": "right"
    },
    {
      "midi": 70,
      "time": 384.375,
      "duration": 0.625,
      "velocity": 1,
      "hand": "right"
    },
    {
      "midi": 41,
      "time": 385,
      "duration": 1.25,
      "velocity": 1,
      "hand": "left"
    },
    {
      "midi": 74,
      "time": 385,
      "duration": 1.235,
      "velocity": 1,
      "hand": "right"
    },
    {
      "midi": 62,
      "time": 385.625,
      "duration": 0.625,
      "velocity": 1,
      "hand": "right"
    },
    {
      "midi": 65,
      "time": 385.625,
      "duration": 0.625,
      "velocity": 1,
      "hand": "right"
    },
    {
      "midi": 70,
      "time": 385.625,
      "duration": 0.61,
      "velocity": 1,
      "hand": "right"
    },
    {
      "midi": 70,
      "time": 386.25,
      "duration": 0.61,
      "velocity": 1,
      "hand": "right"
    },
    {
      "midi": 74,
      "time": 386.25,
      "duration": 0.625,
      "velocity": 1,
      "hand": "right"
    },
    {
      "midi": 62,
      "time": 386.875,
      "duration": 0.625,
      "velocity": 1,
      "hand": "right"
    },
    {
      "midi": 65,
      "time": 386.875,
      "duration": 0.625,
      "velocity": 1,
      "hand": "right"
    },
    {
      "midi": 70,
      "time": 386.875,
      "duration": 0.625,
      "velocity": 1,
      "hand": "right"
    },
    {
      "midi": 41,
      "time": 387.5,
      "duration": 1.25,
      "velocity": 1,
      "hand": "left"
    },
    {
      "midi": 63,
      "time": 388.125,
      "duration": 0.625,
      "velocity": 1,
      "hand": "right"
    },
    {
      "midi": 65,
      "time": 388.125,
      "duration": 0.625,
      "velocity": 1,
      "hand": "right"
    },
    {
      "midi": 69,
      "time": 388.125,
      "duration": 0.61,
      "velocity": 1,
      "hand": "right"
    },
    {
      "midi": 69,
      "time": 388.75,
      "duration": 0.61,
      "velocity": 1,
      "hand": "right"
    },
    {
      "midi": 72,
      "time": 388.75,
      "duration": 0.61,
      "velocity": 1,
      "hand": "right"
    },
    {
      "midi": 63,
      "time": 389.375,
      "duration": 0.625,
      "velocity": 1,
      "hand": "right"
    },
    {
      "midi": 65,
      "time": 389.375,
      "duration": 0.625,
      "velocity": 1,
      "hand": "right"
    },
    {
      "midi": 69,
      "time": 389.375,
      "duration": 0.625,
      "velocity": 1,
      "hand": "right"
    },
    {
      "midi": 72,
      "time": 389.375,
      "duration": 0.625,
      "velocity": 1,
      "hand": "right"
    },
    {
      "midi": 46,
      "time": 390,
      "duration": 1.25,
      "velocity": 1,
      "hand": "left"
    },
    {
      "midi": 70,
      "time": 390,
      "duration": 0.61,
      "velocity": 1,
      "hand": "right"
    },
    {
      "midi": 62,
      "time": 390.625,
      "duration": 0.625,
      "velocity": 1,
      "hand": "right"
    },
    {
      "midi": 65,
      "time": 390.625,
      "duration": 0.625,
      "velocity": 1,
      "hand": "right"
    },
    {
      "midi": 70,
      "time": 390.625,
      "duration": 0.61,
      "velocity": 1,
      "hand": "right"
    },
    {
      "midi": 70,
      "time": 391.25,
      "duration": 0.61,
      "velocity": 1,
      "hand": "right"
    },
    {
      "midi": 74,
      "time": 391.25,
      "duration": 0.625,
      "velocity": 1,
      "hand": "right"
    },
    {
      "midi": 62,
      "time": 391.875,
      "duration": 0.625,
      "velocity": 1,
      "hand": "right"
    },
    {
      "midi": 65,
      "time": 391.875,
      "duration": 0.625,
      "velocity": 1,
      "hand": "right"
    },
    {
      "midi": 70,
      "time": 391.875,
      "duration": 0.625,
      "velocity": 1,
      "hand": "right"
    },
    {
      "midi": 46,
      "time": 392.5,
      "duration": 1.25,
      "velocity": 1,
      "hand": "left"
    },
    {
      "midi": 62,
      "time": 393.125,
      "duration": 0.625,
      "velocity": 1,
      "hand": "right"
    },
    {
      "midi": 65,
      "time": 393.125,
      "duration": 0.625,
      "velocity": 1,
      "hand": "right"
    },
    {
      "midi": 70,
      "time": 393.125,
      "duration": 0.61,
      "velocity": 1,
      "hand": "right"
    },
    {
      "midi": 70,
      "time": 393.75,
      "duration": 0.61,
      "velocity": 1,
      "hand": "right"
    },
    {
      "midi": 74,
      "time": 393.75,
      "duration": 0.625,
      "velocity": 1,
      "hand": "right"
    },
    {
      "midi": 62,
      "time": 394.375,
      "duration": 0.625,
      "velocity": 1,
      "hand": "right"
    },
    {
      "midi": 65,
      "time": 394.375,
      "duration": 0.625,
      "velocity": 1,
      "hand": "right"
    },
    {
      "midi": 70,
      "time": 394.375,
      "duration": 0.625,
      "velocity": 1,
      "hand": "right"
    },
    {
      "midi": 46,
      "time": 395,
      "duration": 1.25,
      "velocity": 1,
      "hand": "left"
    },
    {
      "midi": 65,
      "time": 395.625,
      "duration": 0.625,
      "velocity": 1,
      "hand": "right"
    },
    {
      "midi": 70,
      "time": 395.625,
      "duration": 0.625,
      "velocity": 1,
      "hand": "right"
    },
    {
      "midi": 74,
      "time": 395.625,
      "duration": 0.61,
      "velocity": 1,
      "hand": "right"
    },
    {
      "midi": 74,
      "time": 396.25,
      "duration": 0.61,
      "velocity": 1,
      "hand": "right"
    },
    {
      "midi": 77,
      "time": 396.25,
      "duration": 0.625,
      "velocity": 1,
      "hand": "right"
    },
    {
      "midi": 65,
      "time": 396.875,
      "duration": 0.625,
      "velocity": 1,
      "hand": "right"
    },
    {
      "midi": 70,
      "time": 396.875,
      "duration": 0.625,
      "velocity": 1,
      "hand": "right"
    },
    {
      "midi": 74,
      "time": 396.875,
      "duration": 0.625,
      "velocity": 1,
      "hand": "right"
    },
    {
      "midi": 46,
      "time": 397.5,
      "duration": 1.25,
      "velocity": 1,
      "hand": "left"
    },
    {
      "midi": 68,
      "time": 398.125,
      "duration": 0.625,
      "velocity": 1,
      "hand": "right"
    },
    {
      "midi": 74,
      "time": 398.125,
      "duration": 0.625,
      "velocity": 1,
      "hand": "right"
    },
    {
      "midi": 77,
      "time": 398.125,
      "duration": 0.61,
      "velocity": 1,
      "hand": "right"
    },
    {
      "midi": 77,
      "time": 398.75,
      "duration": 0.61,
      "velocity": 1,
      "hand": "right"
    },
    {
      "midi": 80,
      "time": 398.75,
      "duration": 0.625,
      "velocity": 1,
      "hand": "right"
    },
    {
      "midi": 68,
      "time": 399.375,
      "duration": 0.625,
      "velocity": 1,
      "hand": "right"
    },
    {
      "midi": 74,
      "time": 399.375,
      "duration": 0.625,
      "velocity": 1,
      "hand": "right"
    },
    {
      "midi": 77,
      "time": 399.375,
      "duration": 0.625,
      "velocity": 1,
      "hand": "right"
    },
    {
      "midi": 46,
      "time": 400,
      "duration": 1.25,
      "velocity": 1,
      "hand": "left"
    },
    {
      "midi": 67,
      "time": 400.625,
      "duration": 0.625,
      "velocity": 1,
      "hand": "right"
    },
    {
      "midi": 70,
      "time": 400.625,
      "duration": 0.625,
      "velocity": 1,
      "hand": "right"
    },
    {
      "midi": 75,
      "time": 400.625,
      "duration": 0.61,
      "velocity": 1,
      "hand": "right"
    },
    {
      "midi": 75,
      "time": 401.25,
      "duration": 0.61,
      "velocity": 1,
      "hand": "right"
    },
    {
      "midi": 79,
      "time": 401.25,
      "duration": 0.625,
      "velocity": 1,
      "hand": "right"
    },
    {
      "midi": 67,
      "time": 401.875,
      "duration": 0.625,
      "velocity": 1,
      "hand": "right"
    },
    {
      "midi": 70,
      "time": 401.875,
      "duration": 0.625,
      "velocity": 1,
      "hand": "right"
    },
    {
      "midi": 75,
      "time": 401.875,
      "duration": 0.625,
      "velocity": 1,
      "hand": "right"
    },
    {
      "midi": 46,
      "time": 402.5,
      "duration": 1.25,
      "velocity": 1,
      "hand": "left"
    },
    {
      "midi": 66,
      "time": 403.125,
      "duration": 0.625,
      "velocity": 1,
      "hand": "right"
    },
    {
      "midi": 69,
      "time": 403.125,
      "duration": 0.625,
      "velocity": 1,
      "hand": "right"
    },
    {
      "midi": 75,
      "time": 403.125,
      "duration": 0.61,
      "velocity": 1,
      "hand": "right"
    },
    {
      "midi": 75,
      "time": 403.75,
      "duration": 0.61,
      "velocity": 1,
      "hand": "right"
    },
    {
      "midi": 78,
      "time": 403.75,
      "duration": 0.625,
      "velocity": 1,
      "hand": "right"
    },
    {
      "midi": 66,
      "time": 404.375,
      "duration": 0.625,
      "velocity": 1,
      "hand": "right"
    },
    {
      "midi": 69,
      "time": 404.375,
      "duration": 0.625,
      "velocity": 1,
      "hand": "right"
    },
    {
      "midi": 75,
      "time": 404.375,
      "duration": 0.625,
      "velocity": 1,
      "hand": "right"
    },
    {
      "midi": 46,
      "time": 405,
      "duration": 1.25,
      "velocity": 1,
      "hand": "left"
    },
    {
      "midi": 65,
      "time": 405.625,
      "duration": 0.625,
      "velocity": 1,
      "hand": "right"
    },
    {
      "midi": 70,
      "time": 405.625,
      "duration": 0.625,
      "velocity": 1,
      "hand": "right"
    },
    {
      "midi": 74,
      "time": 405.625,
      "duration": 0.61,
      "velocity": 1,
      "hand": "right"
    },
    {
      "midi": 74,
      "time": 406.25,
      "duration": 0.61,
      "velocity": 1,
      "hand": "right"
    },
    {
      "midi": 77,
      "time": 406.25,
      "duration": 0.625,
      "velocity": 1,
      "hand": "right"
    },
    {
      "midi": 65,
      "time": 406.875,
      "duration": 0.625,
      "velocity": 1,
      "hand": "right"
    },
    {
      "midi": 70,
      "time": 406.875,
      "duration": 0.625,
      "velocity": 1,
      "hand": "right"
    },
    {
      "midi": 74,
      "time": 406.875,
      "duration": 0.625,
      "velocity": 1,
      "hand": "right"
    },
    {
      "midi": 46,
      "time": 407.5,
      "duration": 1.25,
      "velocity": 1,
      "hand": "left"
    },
    {
      "midi": 62,
      "time": 408.125,
      "duration": 0.625,
      "velocity": 1,
      "hand": "right"
    },
    {
      "midi": 65,
      "time": 408.125,
      "duration": 0.625,
      "velocity": 1,
      "hand": "right"
    },
    {
      "midi": 70,
      "time": 408.125,
      "duration": 0.61,
      "velocity": 1,
      "hand": "right"
    },
    {
      "midi": 70,
      "time": 408.75,
      "duration": 0.61,
      "velocity": 1,
      "hand": "right"
    },
    {
      "midi": 74,
      "time": 408.75,
      "duration": 0.625,
      "velocity": 1,
      "hand": "right"
    },
    {
      "midi": 62,
      "time": 409.375,
      "duration": 0.625,
      "velocity": 1,
      "hand": "right"
    },
    {
      "midi": 65,
      "time": 409.375,
      "duration": 0.625,
      "velocity": 1,
      "hand": "right"
    },
    {
      "midi": 70,
      "time": 409.375,
      "duration": 0.625,
      "velocity": 1,
      "hand": "right"
    },
    {
      "midi": 46,
      "time": 410,
      "duration": 1.25,
      "velocity": 1,
      "hand": "left"
    },
    {
      "midi": 58,
      "time": 410.625,
      "duration": 0.625,
      "velocity": 1,
      "hand": "left"
    },
    {
      "midi": 62,
      "time": 410.625,
      "duration": 0.625,
      "velocity": 1,
      "hand": "right"
    },
    {
      "midi": 65,
      "time": 410.625,
      "duration": 0.61,
      "velocity": 1,
      "hand": "right"
    },
    {
      "midi": 65,
      "time": 411.25,
      "duration": 0.61,
      "velocity": 1,
      "hand": "right"
    },
    {
      "midi": 70,
      "time": 411.25,
      "duration": 0.625,
      "velocity": 1,
      "hand": "right"
    },
    {
      "midi": 58,
      "time": 411.875,
      "duration": 0.625,
      "velocity": 1,
      "hand": "left"
    },
    {
      "midi": 62,
      "time": 411.875,
      "duration": 0.625,
      "velocity": 1,
      "hand": "right"
    },
    {
      "midi": 65,
      "time": 411.875,
      "duration": 0.625,
      "velocity": 1,
      "hand": "right"
    },
    {
      "midi": 46,
      "time": 412.5,
      "duration": 1.25,
      "velocity": 1,
      "hand": "left"
    },
    {
      "midi": 53,
      "time": 413.125,
      "duration": 0.625,
      "velocity": 1,
      "hand": "left"
    },
    {
      "midi": 58,
      "time": 413.125,
      "duration": 0.625,
      "velocity": 1,
      "hand": "left"
    },
    {
      "midi": 62,
      "time": 413.125,
      "duration": 0.61,
      "velocity": 1,
      "hand": "right"
    },
    {
      "midi": 62,
      "time": 413.75,
      "duration": 0.61,
      "velocity": 1,
      "hand": "right"
    },
    {
      "midi": 65,
      "time": 413.75,
      "duration": 0.625,
      "velocity": 1,
      "hand": "right"
    },
    {
      "midi": 53,
      "time": 414.375,
      "duration": 0.625,
      "velocity": 1,
      "hand": "left"
    },
    {
      "midi": 58,
      "time": 414.375,
      "duration": 0.625,
      "velocity": 1,
      "hand": "left"
    },
    {
      "midi": 62,
      "time": 414.375,
      "duration": 0.625,
      "velocity": 1,
      "hand": "right"
    },
    {
      "midi": 46,
      "time": 415,
      "duration": 1.25,
      "velocity": 1,
      "hand": "left"
    },
    {
      "midi": 50,
      "time": 415.625,
      "duration": 0.625,
      "velocity": 1,
      "hand": "left"
    },
    {
      "midi": 53,
      "time": 415.625,
      "duration": 0.625,
      "velocity": 1,
      "hand": "left"
    },
    {
      "midi": 58,
      "time": 416.25,
      "duration": 0.61,
      "velocity": 1,
      "hand": "left"
    },
    {
      "midi": 62,
      "time": 416.25,
      "duration": 0.625,
      "velocity": 1,
      "hand": "right"
    },
    {
      "midi": 50,
      "time": 416.875,
      "duration": 0.625,
      "velocity": 1,
      "hand": "left"
    },
    {
      "midi": 53,
      "time": 416.875,
      "duration": 0.625,
      "velocity": 1,
      "hand": "left"
    },
    {
      "midi": 46,
      "time": 417.5,
      "duration": 1.25,
      "velocity": 1,
      "hand": "left"
    },
    {
      "midi": 50,
      "time": 418.125,
      "duration": 0.625,
      "velocity": 1,
      "hand": "left"
    },
    {
      "midi": 53,
      "time": 418.125,
      "duration": 0.625,
      "velocity": 1,
      "hand": "left"
    },
    {
      "midi": 58,
      "time": 418.75,
      "duration": 0.61,
      "velocity": 1,
      "hand": "left"
    },
    {
      "midi": 62,
      "time": 418.75,
      "duration": 0.625,
      "velocity": 1,
      "hand": "right"
    },
    {
      "midi": 50,
      "time": 419.375,
      "duration": 0.61,
      "velocity": 1,
      "hand": "left"
    },
    {
      "midi": 53,
      "time": 419.375,
      "duration": 0.61,
      "velocity": 1,
      "hand": "left"
    },
    {
      "midi": 41,
      "time": 420,
      "duration": 10,
      "velocity": 1,
      "hand": "left"
    },
    {
      "midi": 46,
      "time": 420,
      "duration": 10,
      "velocity": 1,
      "hand": "left"
    },
    {
      "midi": 62,
      "time": 420,
      "duration": 10,
      "velocity": 1,
      "hand": "right"
    }
  ],
  "arrangements": {
    "easy": [
      {
        "midi": 58,
        "time": 0,
        "duration": 1.25,
        "velocity": 1,
        "hand": "right"
      },
      {
        "midi": 74,
        "time": 1.25,
        "duration": 0.72,
        "velocity": 1,
        "hand": "right"
      },
      {
        "midi": 58,
        "time": 2.5,
        "duration": 1.25,
        "velocity": 1,
        "hand": "right"
      },
      {
        "midi": 74,
        "time": 3.75,
        "duration": 0.72,
        "velocity": 1,
        "hand": "right"
      },
      {
        "midi": 58,
        "time": 5,
        "duration": 1.25,
        "velocity": 1,
        "hand": "right"
      },
      {
        "midi": 77,
        "time": 6.25,
        "duration": 0.72,
        "velocity": 1,
        "hand": "right"
      },
      {
        "midi": 58,
        "time": 7.5,
        "duration": 1.25,
        "velocity": 1,
        "hand": "right"
      },
      {
        "midi": 80,
        "time": 8.75,
        "duration": 0.72,
        "velocity": 1,
        "hand": "right"
      },
      {
        "midi": 58,
        "time": 10,
        "duration": 1.25,
        "velocity": 1,
        "hand": "right"
      },
      {
        "midi": 79,
        "time": 11.25,
        "duration": 0.72,
        "velocity": 1,
        "hand": "right"
      },
      {
        "midi": 58,
        "time": 12.5,
        "duration": 1.25,
        "velocity": 1,
        "hand": "right"
      },
      {
        "midi": 78,
        "time": 13.75,
        "duration": 0.72,
        "velocity": 1,
        "hand": "right"
      },
      {
        "midi": 58,
        "time": 15,
        "duration": 1.25,
        "velocity": 1,
        "hand": "right"
      },
      {
        "midi": 77,
        "time": 16.25,
        "duration": 0.72,
        "velocity": 1,
        "hand": "right"
      },
      {
        "midi": 58,
        "time": 17.5,
        "duration": 1.25,
        "velocity": 1,
        "hand": "right"
      },
      {
        "midi": 74,
        "time": 18.75,
        "duration": 0.72,
        "velocity": 1,
        "hand": "right"
      },
      {
        "midi": 70,
        "time": 20,
        "duration": 0.72,
        "velocity": 1,
        "hand": "right"
      },
      {
        "midi": 74,
        "time": 21.25,
        "duration": 0.72,
        "velocity": 1,
        "hand": "right"
      },
      {
        "midi": 55,
        "time": 22.5,
        "duration": 1.25,
        "velocity": 1,
        "hand": "right"
      },
      {
        "midi": 74,
        "time": 23.75,
        "duration": 0.72,
        "velocity": 1,
        "hand": "right"
      },
      {
        "midi": 74,
        "time": 25,
        "duration": 1.235,
        "velocity": 1,
        "hand": "right"
      },
      {
        "midi": 74,
        "time": 26.25,
        "duration": 0.72,
        "velocity": 1,
        "hand": "right"
      },
      {
        "midi": 65,
        "time": 27.5,
        "duration": 1.25,
        "velocity": 1,
        "hand": "right"
      },
      {
        "midi": 75,
        "time": 28.75,
        "duration": 0.72,
        "velocity": 1,
        "hand": "right"
      },
      {
        "midi": 70,
        "time": 30,
        "duration": 0.72,
        "velocity": 1,
        "hand": "right"
      },
      {
        "midi": 74,
        "time": 31.25,
        "duration": 0.72,
        "velocity": 1,
        "hand": "right"
      },
      {
        "midi": 55,
        "time": 32.5,
        "duration": 1.25,
        "velocity": 1,
        "hand": "right"
      },
      {
        "midi": 74,
        "time": 33.75,
        "duration": 0.72,
        "velocity": 1,
        "hand": "right"
      },
      {
        "midi": 72,
        "time": 35,
        "duration": 0.72,
        "velocity": 1,
        "hand": "right"
      },
      {
        "midi": 75,
        "time": 36.25,
        "duration": 0.72,
        "velocity": 1,
        "hand": "right"
      },
      {
        "midi": 74,
        "time": 37.5,
        "duration": 0.72,
        "velocity": 1,
        "hand": "right"
      },
      {
        "midi": 72,
        "time": 38.75,
        "duration": 0.72,
        "velocity": 1,
        "hand": "right"
      },
      {
        "midi": 70,
        "time": 40,
        "duration": 0.72,
        "velocity": 1,
        "hand": "right"
      },
      {
        "midi": 74,
        "time": 41.25,
        "duration": 0.72,
        "velocity": 1,
        "hand": "right"
      },
      {
        "midi": 58,
        "time": 42.5,
        "duration": 1.25,
        "velocity": 1,
        "hand": "right"
      },
      {
        "midi": 74,
        "time": 43.75,
        "duration": 1.235,
        "velocity": 1,
        "hand": "right"
      },
      {
        "midi": 74,
        "time": 45,
        "duration": 1.235,
        "velocity": 1,
        "hand": "right"
      },
      {
        "midi": 74,
        "time": 46.25,
        "duration": 0.72,
        "velocity": 1,
        "hand": "right"
      },
      {
        "midi": 70,
        "time": 47.5,
        "duration": 0.72,
        "velocity": 1,
        "hand": "right"
      },
      {
        "midi": 74,
        "time": 48.75,
        "duration": 0.72,
        "velocity": 1,
        "hand": "right"
      },
      {
        "midi": 74,
        "time": 50,
        "duration": 1.235,
        "velocity": 1,
        "hand": "right"
      },
      {
        "midi": 74,
        "time": 51.25,
        "duration": 0.72,
        "velocity": 1,
        "hand": "right"
      },
      {
        "midi": 73,
        "time": 52.5,
        "duration": 1.235,
        "velocity": 1,
        "hand": "right"
      },
      {
        "midi": 73,
        "time": 53.75,
        "duration": 0.72,
        "velocity": 1,
        "hand": "right"
      },
      {
        "midi": 72,
        "time": 55,
        "duration": 0.72,
        "velocity": 1,
        "hand": "right"
      },
      {
        "midi": 75,
        "time": 56.25,
        "duration": 0.72,
        "velocity": 1,
        "hand": "right"
      },
      {
        "midi": 69,
        "time": 57.5,
        "duration": 0.72,
        "velocity": 1,
        "hand": "right"
      },
      {
        "midi": 75,
        "time": 58.75,
        "duration": 0.72,
        "velocity": 1,
        "hand": "right"
      },
      {
        "midi": 70,
        "time": 60,
        "duration": 0.72,
        "velocity": 1,
        "hand": "right"
      },
      {
        "midi": 74,
        "time": 61.25,
        "duration": 0.72,
        "velocity": 1,
        "hand": "right"
      },
      {
        "midi": 55,
        "time": 62.5,
        "duration": 1.25,
        "velocity": 1,
        "hand": "right"
      },
      {
        "midi": 74,
        "time": 63.75,
        "duration": 0.72,
        "velocity": 1,
        "hand": "right"
      },
      {
        "midi": 72,
        "time": 65,
        "duration": 1.235,
        "velocity": 1,
        "hand": "right"
      },
      {
        "midi": 72,
        "time": 66.25,
        "duration": 0.72,
        "velocity": 1,
        "hand": "right"
      },
      {
        "midi": 67,
        "time": 67.5,
        "duration": 0.72,
        "velocity": 1,
        "hand": "right"
      },
      {
        "midi": 77,
        "time": 68.75,
        "duration": 0.72,
        "velocity": 1,
        "hand": "right"
      },
      {
        "midi": 72,
        "time": 70,
        "duration": 0.72,
        "velocity": 1,
        "hand": "right"
      },
      {
        "midi": 77,
        "time": 71.25,
        "duration": 0.72,
        "velocity": 1,
        "hand": "right"
      },
      {
        "midi": 60,
        "time": 72.5,
        "duration": 1.25,
        "velocity": 1,
        "hand": "right"
      },
      {
        "midi": 76,
        "time": 73.75,
        "duration": 0.72,
        "velocity": 1,
        "hand": "right"
      },
      {
        "midi": 65,
        "time": 75,
        "duration": 0.72,
        "velocity": 1,
        "hand": "right"
      },
      {
        "midi": 77,
        "time": 76.25,
        "duration": 0.72,
        "velocity": 1,
        "hand": "right"
      },
      {
        "midi": 65,
        "time": 77.5,
        "duration": 1.25,
        "velocity": 1,
        "hand": "right"
      },
      {
        "midi": 77,
        "time": 78.75,
        "duration": 0.72,
        "velocity": 1,
        "hand": "right"
      },
      {
        "midi": 72,
        "time": 80,
        "duration": 0.72,
        "velocity": 1,
        "hand": "right"
      },
      {
        "midi": 77,
        "time": 81.25,
        "duration": 0.72,
        "velocity": 1,
        "hand": "right"
      },
      {
        "midi": 72,
        "time": 82.5,
        "duration": 0.72,
        "velocity": 1,
        "hand": "right"
      },
      {
        "midi": 77,
        "time": 83.75,
        "duration": 0.72,
        "velocity": 1,
        "hand": "right"
      },
      {
        "midi": 74,
        "time": 85,
        "duration": 0.72,
        "velocity": 1,
        "hand": "right"
      },
      {
        "midi": 77,
        "time": 86.25,
        "duration": 0.72,
        "velocity": 1,
        "hand": "right"
      },
      {
        "midi": 65,
        "time": 87.5,
        "duration": 1.25,
        "velocity": 1,
        "hand": "right"
      },
      {
        "midi": 77,
        "time": 88.75,
        "duration": 0.72,
        "velocity": 1,
        "hand": "right"
      },
      {
        "midi": 72,
        "time": 90,
        "duration": 0.72,
        "velocity": 1,
        "hand": "right"
      },
      {
        "midi": 77,
        "time": 91.25,
        "duration": 0.72,
        "velocity": 1,
        "hand": "right"
      },
      {
        "midi": 72,
        "time": 92.5,
        "duration": 0.72,
        "velocity": 1,
        "hand": "right"
      },
      {
        "midi": 77,
        "time": 93.75,
        "duration": 0.72,
        "velocity": 1,
        "hand": "right"
      },
      {
        "midi": 70,
        "time": 95,
        "duration": 0.72,
        "velocity": 1,
        "hand": "right"
      },
      {
        "midi": 74,
        "time": 96.25,
        "duration": 0.72,
        "velocity": 1,
        "hand": "right"
      },
      {
        "midi": 55,
        "time": 97.5,
        "duration": 1.25,
        "velocity": 1,
        "hand": "right"
      },
      {
        "midi": 70,
        "time": 98.75,
        "duration": 1.25,
        "velocity": 1,
        "hand": "right"
      },
      {
        "midi": 72,
        "time": 100,
        "duration": 1.235,
        "velocity": 1,
        "hand": "right"
      },
      {
        "midi": 72,
        "time": 101.25,
        "duration": 0.72,
        "velocity": 1,
        "hand": "right"
      },
      {
        "midi": 74,
        "time": 102.5,
        "duration": 1.235,
        "velocity": 1,
        "hand": "right"
      },
      {
        "midi": 75,
        "time": 103.75,
        "duration": 0.72,
        "velocity": 1,
        "hand": "right"
      },
      {
        "midi": 77,
        "time": 105,
        "duration": 0.72,
        "velocity": 1,
        "hand": "right"
      },
      {
        "midi": 75,
        "time": 106.25,
        "duration": 1.25,
        "velocity": 1,
        "hand": "right"
      },
      {
        "midi": 60,
        "time": 107.5,
        "duration": 1.25,
        "velocity": 1,
        "hand": "right"
      },
      {
        "midi": 75,
        "time": 108.75,
        "duration": 0.72,
        "velocity": 1,
        "hand": "right"
      },
      {
        "midi": 74,
        "time": 110,
        "duration": 0.72,
        "velocity": 1,
        "hand": "right"
      },
      {
        "midi": 72,
        "time": 111.25,
        "duration": 0.72,
        "velocity": 1,
        "hand": "right"
      },
      {
        "midi": 70,
        "time": 112.5,
        "duration": 0.72,
        "velocity": 1,
        "hand": "right"
      },
      {
        "midi": 73,
        "time": 113.75,
        "duration": 0.72,
        "velocity": 1,
        "hand": "right"
      },
      {
        "midi": 72,
        "time": 115,
        "duration": 1.235,
        "velocity": 1,
        "hand": "right"
      },
      {
        "midi": 72,
        "time": 116.25,
        "duration": 0.72,
        "velocity": 1,
        "hand": "right"
      },
      {
        "midi": 65,
        "time": 117.5,
        "duration": 1.25,
        "velocity": 1,
        "hand": "right"
      },
      {
        "midi": 72,
        "time": 118.75,
        "duration": 0.72,
        "velocity": 1,
        "hand": "right"
      },
      {
        "midi": 70,
        "time": 120,
        "duration": 0.72,
        "velocity": 1,
        "hand": "right"
      },
      {
        "midi": 74,
        "time": 121.25,
        "duration": 0.72,
        "velocity": 1,
        "hand": "right"
      },
      {
        "midi": 55,
        "time": 122.5,
        "duration": 1.25,
        "velocity": 1,
        "hand": "right"
      },
      {
        "midi": 74,
        "time": 123.75,
        "duration": 0.72,
        "velocity": 1,
        "hand": "right"
      },
      {
        "midi": 74,
        "time": 125,
        "duration": 1.235,
        "velocity": 1,
        "hand": "right"
      },
      {
        "midi": 74,
        "time": 126.25,
        "duration": 0.72,
        "velocity": 1,
        "hand": "right"
      },
      {
        "midi": 65,
        "time": 127.5,
        "duration": 1.25,
        "velocity": 1,
        "hand": "right"
      },
      {
        "midi": 72,
        "time": 128.75,
        "duration": 0.72,
        "velocity": 1,
        "hand": "right"
      },
      {
        "midi": 70,
        "time": 130,
        "duration": 0.72,
        "velocity": 1,
        "hand": "right"
      },
      {
        "midi": 74,
        "time": 131.25,
        "duration": 0.72,
        "velocity": 1,
        "hand": "right"
      },
      {
        "midi": 58,
        "time": 132.5,
        "duration": 1.25,
        "velocity": 1,
        "hand": "right"
      },
      {
        "midi": 74,
        "time": 133.75,
        "duration": 0.72,
        "velocity": 1,
        "hand": "right"
      },
      {
        "midi": 58,
        "time": 135,
        "duration": 1.25,
        "velocity": 1,
        "hand": "right"
      },
      {
        "midi": 77,
        "time": 136.25,
        "duration": 0.72,
        "velocity": 1,
        "hand": "right"
      },
      {
        "midi": 58,
        "time": 137.5,
        "duration": 1.25,
        "velocity": 1,
        "hand": "right"
      },
      {
        "midi": 80,
        "time": 138.75,
        "duration": 0.72,
        "velocity": 1,
        "hand": "right"
      },
      {
        "midi": 58,
        "time": 140,
        "duration": 1.25,
        "velocity": 1,
        "hand": "right"
      },
      {
        "midi": 79,
        "time": 141.25,
        "duration": 0.72,
        "velocity": 1,
        "hand": "right"
      },
      {
        "midi": 58,
        "time": 142.5,
        "duration": 1.25,
        "velocity": 1,
        "hand": "right"
      },
      {
        "midi": 78,
        "time": 143.75,
        "duration": 0.72,
        "velocity": 1,
        "hand": "right"
      },
      {
        "midi": 58,
        "time": 145,
        "duration": 1.25,
        "velocity": 1,
        "hand": "right"
      },
      {
        "midi": 77,
        "time": 146.25,
        "duration": 0.72,
        "velocity": 1,
        "hand": "right"
      },
      {
        "midi": 58,
        "time": 147.5,
        "duration": 1.25,
        "velocity": 1,
        "hand": "right"
      },
      {
        "midi": 74,
        "time": 148.75,
        "duration": 0.72,
        "velocity": 1,
        "hand": "right"
      },
      {
        "midi": 70,
        "time": 150,
        "duration": 0.72,
        "velocity": 1,
        "hand": "right"
      },
      {
        "midi": 74,
        "time": 151.25,
        "duration": 0.72,
        "velocity": 1,
        "hand": "right"
      },
      {
        "midi": 55,
        "time": 152.5,
        "duration": 1.25,
        "velocity": 1,
        "hand": "right"
      },
      {
        "midi": 74,
        "time": 153.75,
        "duration": 0.72,
        "velocity": 1,
        "hand": "right"
      },
      {
        "midi": 74,
        "time": 155,
        "duration": 1.235,
        "velocity": 1,
        "hand": "right"
      },
      {
        "midi": 74,
        "time": 156.25,
        "duration": 0.72,
        "velocity": 1,
        "hand": "right"
      },
      {
        "midi": 65,
        "time": 157.5,
        "duration": 1.25,
        "velocity": 1,
        "hand": "right"
      },
      {
        "midi": 75,
        "time": 158.75,
        "duration": 0.72,
        "velocity": 1,
        "hand": "right"
      },
      {
        "midi": 70,
        "time": 160,
        "duration": 0.72,
        "velocity": 1,
        "hand": "right"
      },
      {
        "midi": 74,
        "time": 161.25,
        "duration": 0.72,
        "velocity": 1,
        "hand": "right"
      },
      {
        "midi": 55,
        "time": 162.5,
        "duration": 1.25,
        "velocity": 1,
        "hand": "right"
      },
      {
        "midi": 74,
        "time": 163.75,
        "duration": 0.72,
        "velocity": 1,
        "hand": "right"
      },
      {
        "midi": 72,
        "time": 165,
        "duration": 0.72,
        "velocity": 1,
        "hand": "right"
      },
      {
        "midi": 75,
        "time": 166.25,
        "duration": 0.72,
        "velocity": 1,
        "hand": "right"
      },
      {
        "midi": 74,
        "time": 167.5,
        "duration": 0.72,
        "velocity": 1,
        "hand": "right"
      },
      {
        "midi": 72,
        "time": 168.75,
        "duration": 0.72,
        "velocity": 1,
        "hand": "right"
      },
      {
        "midi": 70,
        "time": 170,
        "duration": 0.72,
        "velocity": 1,
        "hand": "right"
      },
      {
        "midi": 74,
        "time": 171.25,
        "duration": 0.72,
        "velocity": 1,
        "hand": "right"
      },
      {
        "midi": 58,
        "time": 172.5,
        "duration": 1.25,
        "velocity": 1,
        "hand": "right"
      },
      {
        "midi": 74,
        "time": 173.75,
        "duration": 1.235,
        "velocity": 1,
        "hand": "right"
      },
      {
        "midi": 74,
        "time": 175,
        "duration": 1.235,
        "velocity": 1,
        "hand": "right"
      },
      {
        "midi": 74,
        "time": 176.25,
        "duration": 0.72,
        "velocity": 1,
        "hand": "right"
      },
      {
        "midi": 70,
        "time": 177.5,
        "duration": 0.72,
        "velocity": 1,
        "hand": "right"
      },
      {
        "midi": 74,
        "time": 178.75,
        "duration": 0.72,
        "velocity": 1,
        "hand": "right"
      },
      {
        "midi": 74,
        "time": 180,
        "duration": 1.235,
        "velocity": 1,
        "hand": "right"
      },
      {
        "midi": 74,
        "time": 181.25,
        "duration": 0.72,
        "velocity": 1,
        "hand": "right"
      },
      {
        "midi": 73,
        "time": 182.5,
        "duration": 1.235,
        "velocity": 1,
        "hand": "right"
      },
      {
        "midi": 73,
        "time": 183.75,
        "duration": 0.72,
        "velocity": 1,
        "hand": "right"
      },
      {
        "midi": 72,
        "time": 185,
        "duration": 0.72,
        "velocity": 1,
        "hand": "right"
      },
      {
        "midi": 75,
        "time": 186.25,
        "duration": 0.72,
        "velocity": 1,
        "hand": "right"
      },
      {
        "midi": 69,
        "time": 187.5,
        "duration": 0.72,
        "velocity": 1,
        "hand": "right"
      },
      {
        "midi": 75,
        "time": 188.75,
        "duration": 0.72,
        "velocity": 1,
        "hand": "right"
      },
      {
        "midi": 70,
        "time": 190,
        "duration": 0.72,
        "velocity": 1,
        "hand": "right"
      },
      {
        "midi": 74,
        "time": 191.25,
        "duration": 0.72,
        "velocity": 1,
        "hand": "right"
      },
      {
        "midi": 55,
        "time": 192.5,
        "duration": 1.25,
        "velocity": 1,
        "hand": "right"
      },
      {
        "midi": 74,
        "time": 193.75,
        "duration": 0.72,
        "velocity": 1,
        "hand": "right"
      },
      {
        "midi": 72,
        "time": 195,
        "duration": 1.235,
        "velocity": 1,
        "hand": "right"
      },
      {
        "midi": 72,
        "time": 196.25,
        "duration": 0.72,
        "velocity": 1,
        "hand": "right"
      },
      {
        "midi": 67,
        "time": 197.5,
        "duration": 0.72,
        "velocity": 1,
        "hand": "right"
      },
      {
        "midi": 77,
        "time": 198.75,
        "duration": 0.72,
        "velocity": 1,
        "hand": "right"
      },
      {
        "midi": 72,
        "time": 200,
        "duration": 0.72,
        "velocity": 1,
        "hand": "right"
      },
      {
        "midi": 77,
        "time": 201.25,
        "duration": 0.72,
        "velocity": 1,
        "hand": "right"
      },
      {
        "midi": 60,
        "time": 202.5,
        "duration": 1.25,
        "velocity": 1,
        "hand": "right"
      },
      {
        "midi": 76,
        "time": 203.75,
        "duration": 0.72,
        "velocity": 1,
        "hand": "right"
      },
      {
        "midi": 65,
        "time": 205,
        "duration": 0.72,
        "velocity": 1,
        "hand": "right"
      },
      {
        "midi": 77,
        "time": 206.25,
        "duration": 0.72,
        "velocity": 1,
        "hand": "right"
      },
      {
        "midi": 65,
        "time": 207.5,
        "duration": 1.25,
        "velocity": 1,
        "hand": "right"
      },
      {
        "midi": 77,
        "time": 208.75,
        "duration": 0.72,
        "velocity": 1,
        "hand": "right"
      },
      {
        "midi": 72,
        "time": 210,
        "duration": 0.72,
        "velocity": 1,
        "hand": "right"
      },
      {
        "midi": 77,
        "time": 211.25,
        "duration": 0.72,
        "velocity": 1,
        "hand": "right"
      },
      {
        "midi": 72,
        "time": 212.5,
        "duration": 0.72,
        "velocity": 1,
        "hand": "right"
      },
      {
        "midi": 77,
        "time": 213.75,
        "duration": 0.72,
        "velocity": 1,
        "hand": "right"
      },
      {
        "midi": 74,
        "time": 215,
        "duration": 0.72,
        "velocity": 1,
        "hand": "right"
      },
      {
        "midi": 77,
        "time": 216.25,
        "duration": 0.72,
        "velocity": 1,
        "hand": "right"
      },
      {
        "midi": 65,
        "time": 217.5,
        "duration": 1.25,
        "velocity": 1,
        "hand": "right"
      },
      {
        "midi": 77,
        "time": 218.75,
        "duration": 0.72,
        "velocity": 1,
        "hand": "right"
      },
      {
        "midi": 72,
        "time": 220,
        "duration": 0.72,
        "velocity": 1,
        "hand": "right"
      },
      {
        "midi": 77,
        "time": 221.25,
        "duration": 0.72,
        "velocity": 1,
        "hand": "right"
      },
      {
        "midi": 72,
        "time": 222.5,
        "duration": 0.72,
        "velocity": 1,
        "hand": "right"
      },
      {
        "midi": 77,
        "time": 223.75,
        "duration": 0.72,
        "velocity": 1,
        "hand": "right"
      },
      {
        "midi": 70,
        "time": 225,
        "duration": 0.72,
        "velocity": 1,
        "hand": "right"
      },
      {
        "midi": 74,
        "time": 226.25,
        "duration": 0.72,
        "velocity": 1,
        "hand": "right"
      },
      {
        "midi": 55,
        "time": 227.5,
        "duration": 1.25,
        "velocity": 1,
        "hand": "right"
      },
      {
        "midi": 70,
        "time": 228.75,
        "duration": 1.25,
        "velocity": 1,
        "hand": "right"
      },
      {
        "midi": 72,
        "time": 230,
        "duration": 1.235,
        "velocity": 1,
        "hand": "right"
      },
      {
        "midi": 72,
        "time": 231.25,
        "duration": 0.72,
        "velocity": 1,
        "hand": "right"
      },
      {
        "midi": 74,
        "time": 232.5,
        "duration": 1.235,
        "velocity": 1,
        "hand": "right"
      },
      {
        "midi": 75,
        "time": 233.75,
        "duration": 0.72,
        "velocity": 1,
        "hand": "right"
      },
      {
        "midi": 77,
        "time": 235,
        "duration": 0.72,
        "velocity": 1,
        "hand": "right"
      },
      {
        "midi": 75,
        "time": 236.25,
        "duration": 1.25,
        "velocity": 1,
        "hand": "right"
      },
      {
        "midi": 60,
        "time": 237.5,
        "duration": 1.25,
        "velocity": 1,
        "hand": "right"
      },
      {
        "midi": 75,
        "time": 238.75,
        "duration": 0.72,
        "velocity": 1,
        "hand": "right"
      },
      {
        "midi": 74,
        "time": 240,
        "duration": 0.72,
        "velocity": 1,
        "hand": "right"
      },
      {
        "midi": 72,
        "time": 241.25,
        "duration": 0.72,
        "velocity": 1,
        "hand": "right"
      },
      {
        "midi": 70,
        "time": 242.5,
        "duration": 0.72,
        "velocity": 1,
        "hand": "right"
      },
      {
        "midi": 73,
        "time": 243.75,
        "duration": 0.72,
        "velocity": 1,
        "hand": "right"
      },
      {
        "midi": 72,
        "time": 245,
        "duration": 1.235,
        "velocity": 1,
        "hand": "right"
      },
      {
        "midi": 72,
        "time": 246.25,
        "duration": 0.72,
        "velocity": 1,
        "hand": "right"
      },
      {
        "midi": 65,
        "time": 247.5,
        "duration": 1.25,
        "velocity": 1,
        "hand": "right"
      },
      {
        "midi": 72,
        "time": 248.75,
        "duration": 0.72,
        "velocity": 1,
        "hand": "right"
      },
      {
        "midi": 70,
        "time": 250,
        "duration": 0.72,
        "velocity": 1,
        "hand": "right"
      },
      {
        "midi": 74,
        "time": 251.25,
        "duration": 0.72,
        "velocity": 1,
        "hand": "right"
      },
      {
        "midi": 55,
        "time": 252.5,
        "duration": 1.25,
        "velocity": 1,
        "hand": "right"
      },
      {
        "midi": 74,
        "time": 253.75,
        "duration": 0.72,
        "velocity": 1,
        "hand": "right"
      },
      {
        "midi": 74,
        "time": 255,
        "duration": 1.235,
        "velocity": 1,
        "hand": "right"
      },
      {
        "midi": 74,
        "time": 256.25,
        "duration": 0.72,
        "velocity": 1,
        "hand": "right"
      },
      {
        "midi": 65,
        "time": 257.5,
        "duration": 1.25,
        "velocity": 1,
        "hand": "right"
      },
      {
        "midi": 72,
        "time": 258.75,
        "duration": 0.72,
        "velocity": 1,
        "hand": "right"
      },
      {
        "midi": 70,
        "time": 260,
        "duration": 0.72,
        "velocity": 1,
        "hand": "right"
      },
      {
        "midi": 74,
        "time": 261.25,
        "duration": 0.72,
        "velocity": 1,
        "hand": "right"
      },
      {
        "midi": 58,
        "time": 262.5,
        "duration": 1.25,
        "velocity": 1,
        "hand": "right"
      },
      {
        "midi": 74,
        "time": 263.75,
        "duration": 0.72,
        "velocity": 1,
        "hand": "right"
      },
      {
        "midi": 58,
        "time": 265,
        "duration": 1.25,
        "velocity": 1,
        "hand": "right"
      },
      {
        "midi": 77,
        "time": 266.25,
        "duration": 0.72,
        "velocity": 1,
        "hand": "right"
      },
      {
        "midi": 58,
        "time": 267.5,
        "duration": 1.25,
        "velocity": 1,
        "hand": "right"
      },
      {
        "midi": 80,
        "time": 268.75,
        "duration": 0.72,
        "velocity": 1,
        "hand": "right"
      },
      {
        "midi": 58,
        "time": 270,
        "duration": 1.25,
        "velocity": 1,
        "hand": "right"
      },
      {
        "midi": 79,
        "time": 271.25,
        "duration": 0.72,
        "velocity": 1,
        "hand": "right"
      },
      {
        "midi": 58,
        "time": 272.5,
        "duration": 1.25,
        "velocity": 1,
        "hand": "right"
      },
      {
        "midi": 78,
        "time": 273.75,
        "duration": 0.72,
        "velocity": 1,
        "hand": "right"
      },
      {
        "midi": 58,
        "time": 275,
        "duration": 1.25,
        "velocity": 1,
        "hand": "right"
      },
      {
        "midi": 77,
        "time": 276.25,
        "duration": 0.72,
        "velocity": 1,
        "hand": "right"
      },
      {
        "midi": 58,
        "time": 277.5,
        "duration": 1.25,
        "velocity": 1,
        "hand": "right"
      },
      {
        "midi": 74,
        "time": 278.75,
        "duration": 0.72,
        "velocity": 1,
        "hand": "right"
      },
      {
        "midi": 70,
        "time": 280,
        "duration": 0.72,
        "velocity": 1,
        "hand": "right"
      },
      {
        "midi": 74,
        "time": 281.25,
        "duration": 0.72,
        "velocity": 1,
        "hand": "right"
      },
      {
        "midi": 55,
        "time": 282.5,
        "duration": 1.25,
        "velocity": 1,
        "hand": "right"
      },
      {
        "midi": 74,
        "time": 283.75,
        "duration": 0.72,
        "velocity": 1,
        "hand": "right"
      },
      {
        "midi": 74,
        "time": 285,
        "duration": 1.235,
        "velocity": 1,
        "hand": "right"
      },
      {
        "midi": 74,
        "time": 286.25,
        "duration": 0.72,
        "velocity": 1,
        "hand": "right"
      },
      {
        "midi": 65,
        "time": 287.5,
        "duration": 1.25,
        "velocity": 1,
        "hand": "right"
      },
      {
        "midi": 75,
        "time": 288.75,
        "duration": 0.72,
        "velocity": 1,
        "hand": "right"
      },
      {
        "midi": 70,
        "time": 290,
        "duration": 0.72,
        "velocity": 1,
        "hand": "right"
      },
      {
        "midi": 74,
        "time": 291.25,
        "duration": 0.72,
        "velocity": 1,
        "hand": "right"
      },
      {
        "midi": 55,
        "time": 292.5,
        "duration": 1.25,
        "velocity": 1,
        "hand": "right"
      },
      {
        "midi": 74,
        "time": 293.75,
        "duration": 0.72,
        "velocity": 1,
        "hand": "right"
      },
      {
        "midi": 72,
        "time": 295,
        "duration": 0.72,
        "velocity": 1,
        "hand": "right"
      },
      {
        "midi": 75,
        "time": 296.25,
        "duration": 0.72,
        "velocity": 1,
        "hand": "right"
      },
      {
        "midi": 74,
        "time": 297.5,
        "duration": 0.72,
        "velocity": 1,
        "hand": "right"
      },
      {
        "midi": 72,
        "time": 298.75,
        "duration": 0.72,
        "velocity": 1,
        "hand": "right"
      },
      {
        "midi": 70,
        "time": 300,
        "duration": 0.72,
        "velocity": 1,
        "hand": "right"
      },
      {
        "midi": 74,
        "time": 301.25,
        "duration": 0.72,
        "velocity": 1,
        "hand": "right"
      },
      {
        "midi": 58,
        "time": 302.5,
        "duration": 1.25,
        "velocity": 1,
        "hand": "right"
      },
      {
        "midi": 74,
        "time": 303.75,
        "duration": 1.235,
        "velocity": 1,
        "hand": "right"
      },
      {
        "midi": 74,
        "time": 305,
        "duration": 1.235,
        "velocity": 1,
        "hand": "right"
      },
      {
        "midi": 74,
        "time": 306.25,
        "duration": 0.72,
        "velocity": 1,
        "hand": "right"
      },
      {
        "midi": 70,
        "time": 307.5,
        "duration": 0.72,
        "velocity": 1,
        "hand": "right"
      },
      {
        "midi": 74,
        "time": 308.75,
        "duration": 0.72,
        "velocity": 1,
        "hand": "right"
      },
      {
        "midi": 74,
        "time": 310,
        "duration": 1.235,
        "velocity": 1,
        "hand": "right"
      },
      {
        "midi": 74,
        "time": 311.25,
        "duration": 0.72,
        "velocity": 1,
        "hand": "right"
      },
      {
        "midi": 73,
        "time": 312.5,
        "duration": 1.235,
        "velocity": 1,
        "hand": "right"
      },
      {
        "midi": 73,
        "time": 313.75,
        "duration": 0.72,
        "velocity": 1,
        "hand": "right"
      },
      {
        "midi": 72,
        "time": 315,
        "duration": 0.72,
        "velocity": 1,
        "hand": "right"
      },
      {
        "midi": 75,
        "time": 316.25,
        "duration": 0.72,
        "velocity": 1,
        "hand": "right"
      },
      {
        "midi": 69,
        "time": 317.5,
        "duration": 0.72,
        "velocity": 1,
        "hand": "right"
      },
      {
        "midi": 75,
        "time": 318.75,
        "duration": 0.72,
        "velocity": 1,
        "hand": "right"
      },
      {
        "midi": 70,
        "time": 320,
        "duration": 0.72,
        "velocity": 1,
        "hand": "right"
      },
      {
        "midi": 74,
        "time": 321.25,
        "duration": 0.72,
        "velocity": 1,
        "hand": "right"
      },
      {
        "midi": 55,
        "time": 322.5,
        "duration": 1.25,
        "velocity": 1,
        "hand": "right"
      },
      {
        "midi": 74,
        "time": 323.75,
        "duration": 0.72,
        "velocity": 1,
        "hand": "right"
      },
      {
        "midi": 72,
        "time": 325,
        "duration": 1.235,
        "velocity": 1,
        "hand": "right"
      },
      {
        "midi": 72,
        "time": 326.25,
        "duration": 0.72,
        "velocity": 1,
        "hand": "right"
      },
      {
        "midi": 67,
        "time": 327.5,
        "duration": 0.72,
        "velocity": 1,
        "hand": "right"
      },
      {
        "midi": 77,
        "time": 328.75,
        "duration": 0.72,
        "velocity": 1,
        "hand": "right"
      },
      {
        "midi": 72,
        "time": 330,
        "duration": 0.72,
        "velocity": 1,
        "hand": "right"
      },
      {
        "midi": 77,
        "time": 331.25,
        "duration": 0.72,
        "velocity": 1,
        "hand": "right"
      },
      {
        "midi": 60,
        "time": 332.5,
        "duration": 1.25,
        "velocity": 1,
        "hand": "right"
      },
      {
        "midi": 76,
        "time": 333.75,
        "duration": 0.72,
        "velocity": 1,
        "hand": "right"
      },
      {
        "midi": 65,
        "time": 335,
        "duration": 0.72,
        "velocity": 1,
        "hand": "right"
      },
      {
        "midi": 77,
        "time": 336.25,
        "duration": 0.72,
        "velocity": 1,
        "hand": "right"
      },
      {
        "midi": 65,
        "time": 337.5,
        "duration": 1.25,
        "velocity": 1,
        "hand": "right"
      },
      {
        "midi": 77,
        "time": 338.75,
        "duration": 0.72,
        "velocity": 1,
        "hand": "right"
      },
      {
        "midi": 72,
        "time": 340,
        "duration": 0.72,
        "velocity": 1,
        "hand": "right"
      },
      {
        "midi": 77,
        "time": 341.25,
        "duration": 0.72,
        "velocity": 1,
        "hand": "right"
      },
      {
        "midi": 72,
        "time": 342.5,
        "duration": 0.72,
        "velocity": 1,
        "hand": "right"
      },
      {
        "midi": 77,
        "time": 343.75,
        "duration": 0.72,
        "velocity": 1,
        "hand": "right"
      },
      {
        "midi": 74,
        "time": 345,
        "duration": 0.72,
        "velocity": 1,
        "hand": "right"
      },
      {
        "midi": 77,
        "time": 346.25,
        "duration": 0.72,
        "velocity": 1,
        "hand": "right"
      },
      {
        "midi": 65,
        "time": 347.5,
        "duration": 1.25,
        "velocity": 1,
        "hand": "right"
      },
      {
        "midi": 77,
        "time": 348.75,
        "duration": 0.72,
        "velocity": 1,
        "hand": "right"
      },
      {
        "midi": 72,
        "time": 350,
        "duration": 0.72,
        "velocity": 1,
        "hand": "right"
      },
      {
        "midi": 77,
        "time": 351.25,
        "duration": 0.72,
        "velocity": 1,
        "hand": "right"
      },
      {
        "midi": 72,
        "time": 352.5,
        "duration": 0.72,
        "velocity": 1,
        "hand": "right"
      },
      {
        "midi": 77,
        "time": 353.75,
        "duration": 0.72,
        "velocity": 1,
        "hand": "right"
      },
      {
        "midi": 70,
        "time": 355,
        "duration": 0.72,
        "velocity": 1,
        "hand": "right"
      },
      {
        "midi": 74,
        "time": 356.25,
        "duration": 0.72,
        "velocity": 1,
        "hand": "right"
      },
      {
        "midi": 55,
        "time": 357.5,
        "duration": 1.25,
        "velocity": 1,
        "hand": "right"
      },
      {
        "midi": 70,
        "time": 358.75,
        "duration": 1.25,
        "velocity": 1,
        "hand": "right"
      },
      {
        "midi": 72,
        "time": 360,
        "duration": 1.235,
        "velocity": 1,
        "hand": "right"
      },
      {
        "midi": 72,
        "time": 361.25,
        "duration": 0.72,
        "velocity": 1,
        "hand": "right"
      },
      {
        "midi": 74,
        "time": 362.5,
        "duration": 1.235,
        "velocity": 1,
        "hand": "right"
      },
      {
        "midi": 75,
        "time": 363.75,
        "duration": 0.72,
        "velocity": 1,
        "hand": "right"
      },
      {
        "midi": 77,
        "time": 365,
        "duration": 0.72,
        "velocity": 1,
        "hand": "right"
      },
      {
        "midi": 75,
        "time": 366.25,
        "duration": 1.25,
        "velocity": 1,
        "hand": "right"
      },
      {
        "midi": 60,
        "time": 367.5,
        "duration": 1.25,
        "velocity": 1,
        "hand": "right"
      },
      {
        "midi": 75,
        "time": 368.75,
        "duration": 0.72,
        "velocity": 1,
        "hand": "right"
      },
      {
        "midi": 74,
        "time": 370,
        "duration": 0.72,
        "velocity": 1,
        "hand": "right"
      },
      {
        "midi": 72,
        "time": 371.25,
        "duration": 0.72,
        "velocity": 1,
        "hand": "right"
      },
      {
        "midi": 70,
        "time": 372.5,
        "duration": 0.72,
        "velocity": 1,
        "hand": "right"
      },
      {
        "midi": 73,
        "time": 373.75,
        "duration": 0.72,
        "velocity": 1,
        "hand": "right"
      },
      {
        "midi": 72,
        "time": 375,
        "duration": 1.235,
        "velocity": 1,
        "hand": "right"
      },
      {
        "midi": 72,
        "time": 376.25,
        "duration": 0.72,
        "velocity": 1,
        "hand": "right"
      },
      {
        "midi": 65,
        "time": 377.5,
        "duration": 1.25,
        "velocity": 1,
        "hand": "right"
      },
      {
        "midi": 72,
        "time": 378.75,
        "duration": 0.72,
        "velocity": 1,
        "hand": "right"
      },
      {
        "midi": 70,
        "time": 380,
        "duration": 0.72,
        "velocity": 1,
        "hand": "right"
      },
      {
        "midi": 74,
        "time": 381.25,
        "duration": 0.72,
        "velocity": 1,
        "hand": "right"
      },
      {
        "midi": 55,
        "time": 382.5,
        "duration": 1.25,
        "velocity": 1,
        "hand": "right"
      },
      {
        "midi": 74,
        "time": 383.75,
        "duration": 0.72,
        "velocity": 1,
        "hand": "right"
      },
      {
        "midi": 74,
        "time": 385,
        "duration": 1.235,
        "velocity": 1,
        "hand": "right"
      },
      {
        "midi": 74,
        "time": 386.25,
        "duration": 0.72,
        "velocity": 1,
        "hand": "right"
      },
      {
        "midi": 65,
        "time": 387.5,
        "duration": 1.25,
        "velocity": 1,
        "hand": "right"
      },
      {
        "midi": 72,
        "time": 388.75,
        "duration": 0.72,
        "velocity": 1,
        "hand": "right"
      },
      {
        "midi": 70,
        "time": 390,
        "duration": 0.72,
        "velocity": 1,
        "hand": "right"
      },
      {
        "midi": 74,
        "time": 391.25,
        "duration": 0.72,
        "velocity": 1,
        "hand": "right"
      },
      {
        "midi": 58,
        "time": 392.5,
        "duration": 1.25,
        "velocity": 1,
        "hand": "right"
      },
      {
        "midi": 74,
        "time": 393.75,
        "duration": 0.72,
        "velocity": 1,
        "hand": "right"
      },
      {
        "midi": 58,
        "time": 395,
        "duration": 1.25,
        "velocity": 1,
        "hand": "right"
      },
      {
        "midi": 77,
        "time": 396.25,
        "duration": 0.72,
        "velocity": 1,
        "hand": "right"
      },
      {
        "midi": 58,
        "time": 397.5,
        "duration": 1.25,
        "velocity": 1,
        "hand": "right"
      },
      {
        "midi": 80,
        "time": 398.75,
        "duration": 0.72,
        "velocity": 1,
        "hand": "right"
      },
      {
        "midi": 58,
        "time": 400,
        "duration": 1.25,
        "velocity": 1,
        "hand": "right"
      },
      {
        "midi": 79,
        "time": 401.25,
        "duration": 0.72,
        "velocity": 1,
        "hand": "right"
      },
      {
        "midi": 58,
        "time": 402.5,
        "duration": 1.25,
        "velocity": 1,
        "hand": "right"
      },
      {
        "midi": 78,
        "time": 403.75,
        "duration": 0.72,
        "velocity": 1,
        "hand": "right"
      },
      {
        "midi": 58,
        "time": 405,
        "duration": 1.25,
        "velocity": 1,
        "hand": "right"
      },
      {
        "midi": 77,
        "time": 406.25,
        "duration": 0.72,
        "velocity": 1,
        "hand": "right"
      },
      {
        "midi": 58,
        "time": 407.5,
        "duration": 1.25,
        "velocity": 1,
        "hand": "right"
      },
      {
        "midi": 74,
        "time": 408.75,
        "duration": 0.72,
        "velocity": 1,
        "hand": "right"
      },
      {
        "midi": 58,
        "time": 410,
        "duration": 1.25,
        "velocity": 1,
        "hand": "right"
      },
      {
        "midi": 70,
        "time": 411.25,
        "duration": 0.72,
        "velocity": 1,
        "hand": "right"
      },
      {
        "midi": 58,
        "time": 412.5,
        "duration": 1.25,
        "velocity": 1,
        "hand": "right"
      },
      {
        "midi": 65,
        "time": 413.75,
        "duration": 0.72,
        "velocity": 1,
        "hand": "right"
      },
      {
        "midi": 58,
        "time": 415,
        "duration": 1.25,
        "velocity": 1,
        "hand": "right"
      },
      {
        "midi": 62,
        "time": 416.25,
        "duration": 0.72,
        "velocity": 1,
        "hand": "right"
      },
      {
        "midi": 58,
        "time": 417.5,
        "duration": 1.25,
        "velocity": 1,
        "hand": "right"
      },
      {
        "midi": 62,
        "time": 418.75,
        "duration": 0.72,
        "velocity": 1,
        "hand": "right"
      },
      {
        "midi": 62,
        "time": 420,
        "duration": 10,
        "velocity": 1,
        "hand": "right"
      }
    ],
    "medium": [
      {
        "midi": 46,
        "time": 0,
        "duration": 1.25,
        "velocity": 1,
        "hand": "left"
      },
      {
        "midi": 70,
        "time": 1.25,
        "duration": 0.61,
        "velocity": 1,
        "hand": "right"
      },
      {
        "midi": 74,
        "time": 1.25,
        "duration": 0.625,
        "velocity": 1,
        "hand": "right"
      },
      {
        "midi": 46,
        "time": 2.5,
        "duration": 1.25,
        "velocity": 1,
        "hand": "left"
      },
      {
        "midi": 70,
        "time": 3.75,
        "duration": 0.61,
        "velocity": 1,
        "hand": "right"
      },
      {
        "midi": 74,
        "time": 3.75,
        "duration": 0.625,
        "velocity": 1,
        "hand": "right"
      },
      {
        "midi": 46,
        "time": 5,
        "duration": 1.25,
        "velocity": 1,
        "hand": "left"
      },
      {
        "midi": 74,
        "time": 6.25,
        "duration": 0.61,
        "velocity": 1,
        "hand": "right"
      },
      {
        "midi": 77,
        "time": 6.25,
        "duration": 0.625,
        "velocity": 1,
        "hand": "right"
      },
      {
        "midi": 46,
        "time": 7.5,
        "duration": 1.25,
        "velocity": 1,
        "hand": "left"
      },
      {
        "midi": 77,
        "time": 8.75,
        "duration": 0.61,
        "velocity": 1,
        "hand": "right"
      },
      {
        "midi": 80,
        "time": 8.75,
        "duration": 0.625,
        "velocity": 1,
        "hand": "right"
      },
      {
        "midi": 46,
        "time": 10,
        "duration": 1.25,
        "velocity": 1,
        "hand": "left"
      },
      {
        "midi": 75,
        "time": 11.25,
        "duration": 0.61,
        "velocity": 1,
        "hand": "right"
      },
      {
        "midi": 79,
        "time": 11.25,
        "duration": 0.625,
        "velocity": 1,
        "hand": "right"
      },
      {
        "midi": 46,
        "time": 12.5,
        "duration": 1.25,
        "velocity": 1,
        "hand": "left"
      },
      {
        "midi": 75,
        "time": 13.75,
        "duration": 0.61,
        "velocity": 1,
        "hand": "right"
      },
      {
        "midi": 78,
        "time": 13.75,
        "duration": 0.625,
        "velocity": 1,
        "hand": "right"
      },
      {
        "midi": 46,
        "time": 15,
        "duration": 1.25,
        "velocity": 1,
        "hand": "left"
      },
      {
        "midi": 74,
        "time": 16.25,
        "duration": 0.61,
        "velocity": 1,
        "hand": "right"
      },
      {
        "midi": 77,
        "time": 16.25,
        "duration": 0.625,
        "velocity": 1,
        "hand": "right"
      },
      {
        "midi": 46,
        "time": 17.5,
        "duration": 1.25,
        "velocity": 1,
        "hand": "left"
      },
      {
        "midi": 70,
        "time": 18.75,
        "duration": 0.61,
        "velocity": 1,
        "hand": "right"
      },
      {
        "midi": 74,
        "time": 18.75,
        "duration": 0.625,
        "velocity": 1,
        "hand": "right"
      },
      {
        "midi": 58,
        "time": 20,
        "duration": 1.25,
        "velocity": 1,
        "hand": "left"
      },
      {
        "midi": 70,
        "time": 20,
        "duration": 0.61,
        "velocity": 1,
        "hand": "right"
      },
      {
        "midi": 70,
        "time": 21.25,
        "duration": 0.61,
        "velocity": 1,
        "hand": "right"
      },
      {
        "midi": 74,
        "time": 21.25,
        "duration": 0.625,
        "velocity": 1,
        "hand": "right"
      },
      {
        "midi": 43,
        "time": 22.5,
        "duration": 1.25,
        "velocity": 1,
        "hand": "left"
      },
      {
        "midi": 70,
        "time": 23.75,
        "duration": 0.61,
        "velocity": 1,
        "hand": "right"
      },
      {
        "midi": 74,
        "time": 23.75,
        "duration": 0.625,
        "velocity": 1,
        "hand": "right"
      },
      {
        "midi": 74,
        "time": 25,
        "duration": 1.235,
        "velocity": 1,
        "hand": "right"
      },
      {
        "midi": 70,
        "time": 26.25,
        "duration": 0.61,
        "velocity": 1,
        "hand": "right"
      },
      {
        "midi": 74,
        "time": 26.25,
        "duration": 0.625,
        "velocity": 1,
        "hand": "right"
      },
      {
        "midi": 41,
        "time": 27.5,
        "duration": 1.25,
        "velocity": 1,
        "hand": "left"
      },
      {
        "midi": 72,
        "time": 28.75,
        "duration": 0.61,
        "velocity": 1,
        "hand": "right"
      },
      {
        "midi": 75,
        "time": 28.75,
        "duration": 0.625,
        "velocity": 1,
        "hand": "right"
      },
      {
        "midi": 55,
        "time": 30,
        "duration": 1.25,
        "velocity": 1,
        "hand": "left"
      },
      {
        "midi": 70,
        "time": 30,
        "duration": 0.61,
        "velocity": 1,
        "hand": "right"
      },
      {
        "midi": 70,
        "time": 31.25,
        "duration": 0.61,
        "velocity": 1,
        "hand": "right"
      },
      {
        "midi": 74,
        "time": 31.25,
        "duration": 0.625,
        "velocity": 1,
        "hand": "right"
      },
      {
        "midi": 43,
        "time": 32.5,
        "duration": 1.25,
        "velocity": 1,
        "hand": "left"
      },
      {
        "midi": 70,
        "time": 33.75,
        "duration": 0.61,
        "velocity": 1,
        "hand": "right"
      },
      {
        "midi": 74,
        "time": 33.75,
        "duration": 0.625,
        "velocity": 1,
        "hand": "right"
      },
      {
        "midi": 72,
        "time": 35,
        "duration": 0.61,
        "velocity": 1,
        "hand": "right"
      },
      {
        "midi": 72,
        "time": 36.25,
        "duration": 0.61,
        "velocity": 1,
        "hand": "right"
      },
      {
        "midi": 75,
        "time": 36.25,
        "duration": 0.625,
        "velocity": 1,
        "hand": "right"
      },
      {
        "midi": 74,
        "time": 37.5,
        "duration": 0.42,
        "velocity": 1,
        "hand": "right"
      },
      {
        "midi": 67,
        "time": 38.75,
        "duration": 0.625,
        "velocity": 1,
        "hand": "right"
      },
      {
        "midi": 72,
        "time": 38.75,
        "duration": 0.625,
        "velocity": 1,
        "hand": "right"
      },
      {
        "midi": 58,
        "time": 40,
        "duration": 1.25,
        "velocity": 1,
        "hand": "left"
      },
      {
        "midi": 70,
        "time": 40,
        "duration": 0.61,
        "velocity": 1,
        "hand": "right"
      },
      {
        "midi": 70,
        "time": 41.25,
        "duration": 0.61,
        "velocity": 1,
        "hand": "right"
      },
      {
        "midi": 74,
        "time": 41.25,
        "duration": 0.625,
        "velocity": 1,
        "hand": "right"
      },
      {
        "midi": 46,
        "time": 42.5,
        "duration": 1.25,
        "velocity": 1,
        "hand": "left"
      },
      {
        "midi": 70,
        "time": 43.75,
        "duration": 0.61,
        "velocity": 1,
        "hand": "right"
      },
      {
        "midi": 74,
        "time": 43.75,
        "duration": 1.235,
        "velocity": 1,
        "hand": "right"
      },
      {
        "midi": 58,
        "time": 45,
        "duration": 1.25,
        "velocity": 1,
        "hand": "left"
      },
      {
        "midi": 74,
        "time": 45,
        "duration": 1.235,
        "velocity": 1,
        "hand": "right"
      },
      {
        "midi": 70,
        "time": 46.25,
        "duration": 0.61,
        "velocity": 1,
        "hand": "right"
      },
      {
        "midi": 74,
        "time": 46.25,
        "duration": 0.625,
        "velocity": 1,
        "hand": "right"
      },
      {
        "midi": 58,
        "time": 47.5,
        "duration": 1.25,
        "velocity": 1,
        "hand": "left"
      },
      {
        "midi": 70,
        "time": 47.5,
        "duration": 0.61,
        "velocity": 1,
        "hand": "right"
      },
      {
        "midi": 70,
        "time": 48.75,
        "duration": 0.61,
        "velocity": 1,
        "hand": "right"
      },
      {
        "midi": 74,
        "time": 48.75,
        "duration": 0.625,
        "velocity": 1,
        "hand": "right"
      },
      {
        "midi": 74,
        "time": 50,
        "duration": 1.235,
        "velocity": 1,
        "hand": "right"
      },
      {
        "midi": 70,
        "time": 51.25,
        "duration": 0.61,
        "velocity": 1,
        "hand": "right"
      },
      {
        "midi": 74,
        "time": 51.25,
        "duration": 0.625,
        "velocity": 1,
        "hand": "right"
      },
      {
        "midi": 57,
        "time": 52.5,
        "duration": 1.25,
        "velocity": 1,
        "hand": "left"
      },
      {
        "midi": 73,
        "time": 52.5,
        "duration": 1.235,
        "velocity": 1,
        "hand": "right"
      },
      {
        "midi": 69,
        "time": 53.75,
        "duration": 0.61,
        "velocity": 1,
        "hand": "right"
      },
      {
        "midi": 73,
        "time": 53.75,
        "duration": 0.625,
        "velocity": 1,
        "hand": "right"
      },
      {
        "midi": 72,
        "time": 55,
        "duration": 0.61,
        "velocity": 1,
        "hand": "right"
      },
      {
        "midi": 72,
        "time": 56.25,
        "duration": 0.61,
        "velocity": 1,
        "hand": "right"
      },
      {
        "midi": 75,
        "time": 56.25,
        "duration": 0.625,
        "velocity": 1,
        "hand": "right"
      },
      {
        "midi": 54,
        "time": 57.5,
        "duration": 1.25,
        "velocity": 1,
        "hand": "left"
      },
      {
        "midi": 69,
        "time": 57.5,
        "duration": 0.61,
        "velocity": 1,
        "hand": "right"
      },
      {
        "midi": 72,
        "time": 58.75,
        "duration": 0.61,
        "velocity": 1,
        "hand": "right"
      },
      {
        "midi": 75,
        "time": 58.75,
        "duration": 0.625,
        "velocity": 1,
        "hand": "right"
      },
      {
        "midi": 55,
        "time": 60,
        "duration": 1.25,
        "velocity": 1,
        "hand": "left"
      },
      {
        "midi": 70,
        "time": 60,
        "duration": 0.61,
        "velocity": 1,
        "hand": "right"
      },
      {
        "midi": 70,
        "time": 61.25,
        "duration": 0.61,
        "velocity": 1,
        "hand": "right"
      },
      {
        "midi": 74,
        "time": 61.25,
        "duration": 0.625,
        "velocity": 1,
        "hand": "right"
      },
      {
        "midi": 43,
        "time": 62.5,
        "duration": 1.25,
        "velocity": 1,
        "hand": "left"
      },
      {
        "midi": 70,
        "time": 63.75,
        "duration": 0.61,
        "velocity": 1,
        "hand": "right"
      },
      {
        "midi": 74,
        "time": 63.75,
        "duration": 0.625,
        "velocity": 1,
        "hand": "right"
      },
      {
        "midi": 57,
        "time": 65,
        "duration": 1.25,
        "velocity": 1,
        "hand": "left"
      },
      {
        "midi": 72,
        "time": 65,
        "duration": 1.235,
        "velocity": 1,
        "hand": "right"
      },
      {
        "midi": 69,
        "time": 66.25,
        "duration": 0.61,
        "velocity": 1,
        "hand": "right"
      },
      {
        "midi": 72,
        "time": 66.25,
        "duration": 0.625,
        "velocity": 1,
        "hand": "right"
      },
      {
        "midi": 67,
        "time": 67.5,
        "duration": 0.61,
        "velocity": 1,
        "hand": "right"
      },
      {
        "midi": 71,
        "time": 68.75,
        "duration": 0.61,
        "velocity": 1,
        "hand": "right"
      },
      {
        "midi": 77,
        "time": 68.75,
        "duration": 0.625,
        "velocity": 1,
        "hand": "right"
      },
      {
        "midi": 72,
        "time": 70,
        "duration": 0.61,
        "velocity": 1,
        "hand": "right"
      },
      {
        "midi": 72,
        "time": 71.25,
        "duration": 0.61,
        "velocity": 1,
        "hand": "right"
      },
      {
        "midi": 77,
        "time": 71.25,
        "duration": 0.625,
        "velocity": 1,
        "hand": "right"
      },
      {
        "midi": 36,
        "time": 72.5,
        "duration": 1.25,
        "velocity": 1,
        "hand": "left"
      },
      {
        "midi": 48,
        "time": 72.5,
        "duration": 1.25,
        "velocity": 1,
        "hand": "left"
      },
      {
        "midi": 70,
        "time": 73.75,
        "duration": 0.42,
        "velocity": 1,
        "hand": "right"
      },
      {
        "midi": 76,
        "time": 73.75,
        "duration": 0.625,
        "velocity": 1,
        "hand": "right"
      },
      {
        "midi": 53,
        "time": 75,
        "duration": 1.25,
        "velocity": 1,
        "hand": "left"
      },
      {
        "midi": 65,
        "time": 75,
        "duration": 0.61,
        "velocity": 1,
        "hand": "right"
      },
      {
        "midi": 72,
        "time": 76.25,
        "duration": 0.61,
        "velocity": 1,
        "hand": "right"
      },
      {
        "midi": 77,
        "time": 76.25,
        "duration": 0.625,
        "velocity": 1,
        "hand": "right"
      },
      {
        "midi": 41,
        "time": 77.5,
        "duration": 1.25,
        "velocity": 1,
        "hand": "left"
      },
      {
        "midi": 53,
        "time": 77.5,
        "duration": 1.25,
        "velocity": 1,
        "hand": "left"
      },
      {
        "midi": 65,
        "time": 78.75,
        "duration": 0.61,
        "velocity": 1,
        "hand": "right"
      },
      {
        "midi": 77,
        "time": 78.75,
        "duration": 0.625,
        "velocity": 1,
        "hand": "right"
      },
      {
        "midi": 72,
        "time": 80,
        "duration": 0.61,
        "velocity": 1,
        "hand": "right"
      },
      {
        "midi": 72,
        "time": 81.25,
        "duration": 0.61,
        "velocity": 1,
        "hand": "right"
      },
      {
        "midi": 77,
        "time": 81.25,
        "duration": 0.625,
        "velocity": 1,
        "hand": "right"
      },
      {
        "midi": 72,
        "time": 82.5,
        "duration": 0.61,
        "velocity": 1,
        "hand": "right"
      },
      {
        "midi": 72,
        "time": 83.75,
        "duration": 0.61,
        "velocity": 1,
        "hand": "right"
      },
      {
        "midi": 77,
        "time": 83.75,
        "duration": 0.625,
        "velocity": 1,
        "hand": "right"
      },
      {
        "midi": 74,
        "time": 85,
        "duration": 0.61,
        "velocity": 1,
        "hand": "right"
      },
      {
        "midi": 70,
        "time": 86.25,
        "duration": 0.61,
        "velocity": 1,
        "hand": "right"
      },
      {
        "midi": 77,
        "time": 86.25,
        "duration": 0.625,
        "velocity": 1,
        "hand": "right"
      },
      {
        "midi": 41,
        "time": 87.5,
        "duration": 1.25,
        "velocity": 1,
        "hand": "left"
      },
      {
        "midi": 53,
        "time": 87.5,
        "duration": 1.25,
        "velocity": 1,
        "hand": "left"
      },
      {
        "midi": 70,
        "time": 88.75,
        "duration": 0.61,
        "velocity": 1,
        "hand": "right"
      },
      {
        "midi": 77,
        "time": 88.75,
        "duration": 0.625,
        "velocity": 1,
        "hand": "right"
      },
      {
        "midi": 72,
        "time": 90,
        "duration": 0.61,
        "velocity": 1,
        "hand": "right"
      },
      {
        "midi": 72,
        "time": 91.25,
        "duration": 0.61,
        "velocity": 1,
        "hand": "right"
      },
      {
        "midi": 77,
        "time": 91.25,
        "duration": 0.625,
        "velocity": 1,
        "hand": "right"
      },
      {
        "midi": 72,
        "time": 92.5,
        "duration": 0.61,
        "velocity": 1,
        "hand": "right"
      },
      {
        "midi": 72,
        "time": 93.75,
        "duration": 0.61,
        "velocity": 1,
        "hand": "right"
      },
      {
        "midi": 77,
        "time": 93.75,
        "duration": 0.625,
        "velocity": 1,
        "hand": "right"
      },
      {
        "midi": 55,
        "time": 95,
        "duration": 1.25,
        "velocity": 1,
        "hand": "left"
      },
      {
        "midi": 70,
        "time": 95,
        "duration": 0.61,
        "velocity": 1,
        "hand": "right"
      },
      {
        "midi": 70,
        "time": 96.25,
        "duration": 0.61,
        "velocity": 1,
        "hand": "right"
      },
      {
        "midi": 74,
        "time": 96.25,
        "duration": 0.625,
        "velocity": 1,
        "hand": "right"
      },
      {
        "midi": 43,
        "time": 97.5,
        "duration": 1.25,
        "velocity": 1,
        "hand": "left"
      },
      {
        "midi": 55,
        "time": 97.5,
        "duration": 1.25,
        "velocity": 1,
        "hand": "left"
      },
      {
        "midi": 67,
        "time": 98.75,
        "duration": 0.61,
        "velocity": 1,
        "hand": "right"
      },
      {
        "midi": 70,
        "time": 98.75,
        "duration": 1.25,
        "velocity": 1,
        "hand": "right"
      },
      {
        "midi": 72,
        "time": 100,
        "duration": 1.235,
        "velocity": 1,
        "hand": "right"
      },
      {
        "midi": 69,
        "time": 101.25,
        "duration": 0.61,
        "velocity": 1,
        "hand": "right"
      },
      {
        "midi": 72,
        "time": 101.25,
        "duration": 0.61,
        "velocity": 1,
        "hand": "right"
      },
      {
        "midi": 74,
        "time": 102.5,
        "duration": 1.235,
        "velocity": 1,
        "hand": "right"
      },
      {
        "midi": 69,
        "time": 103.75,
        "duration": 0.61,
        "velocity": 1,
        "hand": "right"
      },
      {
        "midi": 75,
        "time": 103.75,
        "duration": 0.42,
        "velocity": 1,
        "hand": "right"
      },
      {
        "midi": 77,
        "time": 105,
        "duration": 0.42,
        "velocity": 1,
        "hand": "right"
      },
      {
        "midi": 72,
        "time": 106.25,
        "duration": 0.61,
        "velocity": 1,
        "hand": "right"
      },
      {
        "midi": 75,
        "time": 106.25,
        "duration": 1.25,
        "velocity": 1,
        "hand": "right"
      },
      {
        "midi": 36,
        "time": 107.5,
        "duration": 1.25,
        "velocity": 1,
        "hand": "left"
      },
      {
        "midi": 48,
        "time": 107.5,
        "duration": 1.25,
        "velocity": 1,
        "hand": "left"
      },
      {
        "midi": 72,
        "time": 108.75,
        "duration": 0.61,
        "velocity": 1,
        "hand": "right"
      },
      {
        "midi": 75,
        "time": 108.75,
        "duration": 0.625,
        "velocity": 1,
        "hand": "right"
      },
      {
        "midi": 74,
        "time": 110,
        "duration": 0.42,
        "velocity": 1,
        "hand": "right"
      },
      {
        "midi": 67,
        "time": 111.25,
        "duration": 0.61,
        "velocity": 1,
        "hand": "right"
      },
      {
        "midi": 72,
        "time": 111.25,
        "duration": 0.61,
        "velocity": 1,
        "hand": "right"
      },
      {
        "midi": 55,
        "time": 112.5,
        "duration": 1.25,
        "velocity": 1,
        "hand": "left"
      },
      {
        "midi": 70,
        "time": 112.5,
        "duration": 0.61,
        "velocity": 1,
        "hand": "right"
      },
      {
        "midi": 70,
        "time": 113.75,
        "duration": 0.61,
        "velocity": 1,
        "hand": "right"
      },
      {
        "midi": 73,
        "time": 113.75,
        "duration": 0.625,
        "velocity": 1,
        "hand": "right"
      },
      {
        "midi": 72,
        "time": 115,
        "duration": 1.235,
        "velocity": 1,
        "hand": "right"
      },
      {
        "midi": 69,
        "time": 116.25,
        "duration": 0.61,
        "velocity": 1,
        "hand": "right"
      },
      {
        "midi": 72,
        "time": 116.25,
        "duration": 0.625,
        "velocity": 1,
        "hand": "right"
      },
      {
        "midi": 41,
        "time": 117.5,
        "duration": 1.25,
        "velocity": 1,
        "hand": "left"
      },
      {
        "midi": 53,
        "time": 117.5,
        "duration": 1.25,
        "velocity": 1,
        "hand": "left"
      },
      {
        "midi": 69,
        "time": 118.75,
        "duration": 0.61,
        "velocity": 1,
        "hand": "right"
      },
      {
        "midi": 72,
        "time": 118.75,
        "duration": 0.625,
        "velocity": 1,
        "hand": "right"
      },
      {
        "midi": 58,
        "time": 120,
        "duration": 1.25,
        "velocity": 1,
        "hand": "left"
      },
      {
        "midi": 70,
        "time": 120,
        "duration": 0.61,
        "velocity": 1,
        "hand": "right"
      },
      {
        "midi": 70,
        "time": 121.25,
        "duration": 0.61,
        "velocity": 1,
        "hand": "right"
      },
      {
        "midi": 74,
        "time": 121.25,
        "duration": 0.625,
        "velocity": 1,
        "hand": "right"
      },
      {
        "midi": 43,
        "time": 122.5,
        "duration": 1.25,
        "velocity": 1,
        "hand": "left"
      },
      {
        "midi": 70,
        "time": 123.75,
        "duration": 0.61,
        "velocity": 1,
        "hand": "right"
      },
      {
        "midi": 74,
        "time": 123.75,
        "duration": 0.625,
        "velocity": 1,
        "hand": "right"
      },
      {
        "midi": 74,
        "time": 125,
        "duration": 1.235,
        "velocity": 1,
        "hand": "right"
      },
      {
        "midi": 70,
        "time": 126.25,
        "duration": 0.61,
        "velocity": 1,
        "hand": "right"
      },
      {
        "midi": 74,
        "time": 126.25,
        "duration": 0.625,
        "velocity": 1,
        "hand": "right"
      },
      {
        "midi": 41,
        "time": 127.5,
        "duration": 1.25,
        "velocity": 1,
        "hand": "left"
      },
      {
        "midi": 69,
        "time": 128.75,
        "duration": 0.61,
        "velocity": 1,
        "hand": "right"
      },
      {
        "midi": 72,
        "time": 128.75,
        "duration": 0.61,
        "velocity": 1,
        "hand": "right"
      },
      {
        "midi": 58,
        "time": 130,
        "duration": 1.25,
        "velocity": 1,
        "hand": "left"
      },
      {
        "midi": 70,
        "time": 130,
        "duration": 0.61,
        "velocity": 1,
        "hand": "right"
      },
      {
        "midi": 70,
        "time": 131.25,
        "duration": 0.61,
        "velocity": 1,
        "hand": "right"
      },
      {
        "midi": 74,
        "time": 131.25,
        "duration": 0.625,
        "velocity": 1,
        "hand": "right"
      },
      {
        "midi": 46,
        "time": 132.5,
        "duration": 1.25,
        "velocity": 1,
        "hand": "left"
      },
      {
        "midi": 70,
        "time": 133.75,
        "duration": 0.61,
        "velocity": 1,
        "hand": "right"
      },
      {
        "midi": 74,
        "time": 133.75,
        "duration": 0.625,
        "velocity": 1,
        "hand": "right"
      },
      {
        "midi": 46,
        "time": 135,
        "duration": 1.25,
        "velocity": 1,
        "hand": "left"
      },
      {
        "midi": 74,
        "time": 136.25,
        "duration": 0.61,
        "velocity": 1,
        "hand": "right"
      },
      {
        "midi": 77,
        "time": 136.25,
        "duration": 0.625,
        "velocity": 1,
        "hand": "right"
      },
      {
        "midi": 46,
        "time": 137.5,
        "duration": 1.25,
        "velocity": 1,
        "hand": "left"
      },
      {
        "midi": 77,
        "time": 138.75,
        "duration": 0.61,
        "velocity": 1,
        "hand": "right"
      },
      {
        "midi": 80,
        "time": 138.75,
        "duration": 0.625,
        "velocity": 1,
        "hand": "right"
      },
      {
        "midi": 46,
        "time": 140,
        "duration": 1.25,
        "velocity": 1,
        "hand": "left"
      },
      {
        "midi": 75,
        "time": 141.25,
        "duration": 0.61,
        "velocity": 1,
        "hand": "right"
      },
      {
        "midi": 79,
        "time": 141.25,
        "duration": 0.625,
        "velocity": 1,
        "hand": "right"
      },
      {
        "midi": 46,
        "time": 142.5,
        "duration": 1.25,
        "velocity": 1,
        "hand": "left"
      },
      {
        "midi": 75,
        "time": 143.75,
        "duration": 0.61,
        "velocity": 1,
        "hand": "right"
      },
      {
        "midi": 78,
        "time": 143.75,
        "duration": 0.625,
        "velocity": 1,
        "hand": "right"
      },
      {
        "midi": 46,
        "time": 145,
        "duration": 1.25,
        "velocity": 1,
        "hand": "left"
      },
      {
        "midi": 74,
        "time": 146.25,
        "duration": 0.61,
        "velocity": 1,
        "hand": "right"
      },
      {
        "midi": 77,
        "time": 146.25,
        "duration": 0.625,
        "velocity": 1,
        "hand": "right"
      },
      {
        "midi": 46,
        "time": 147.5,
        "duration": 1.25,
        "velocity": 1,
        "hand": "left"
      },
      {
        "midi": 70,
        "time": 148.75,
        "duration": 0.61,
        "velocity": 1,
        "hand": "right"
      },
      {
        "midi": 74,
        "time": 148.75,
        "duration": 0.625,
        "velocity": 1,
        "hand": "right"
      },
      {
        "midi": 58,
        "time": 150,
        "duration": 1.25,
        "velocity": 1,
        "hand": "left"
      },
      {
        "midi": 70,
        "time": 150,
        "duration": 0.61,
        "velocity": 1,
        "hand": "right"
      },
      {
        "midi": 70,
        "time": 151.25,
        "duration": 0.61,
        "velocity": 1,
        "hand": "right"
      },
      {
        "midi": 74,
        "time": 151.25,
        "duration": 0.625,
        "velocity": 1,
        "hand": "right"
      },
      {
        "midi": 43,
        "time": 152.5,
        "duration": 1.25,
        "velocity": 1,
        "hand": "left"
      },
      {
        "midi": 70,
        "time": 153.75,
        "duration": 0.61,
        "velocity": 1,
        "hand": "right"
      },
      {
        "midi": 74,
        "time": 153.75,
        "duration": 0.625,
        "velocity": 1,
        "hand": "right"
      },
      {
        "midi": 74,
        "time": 155,
        "duration": 1.235,
        "velocity": 1,
        "hand": "right"
      },
      {
        "midi": 70,
        "time": 156.25,
        "duration": 0.61,
        "velocity": 1,
        "hand": "right"
      },
      {
        "midi": 74,
        "time": 156.25,
        "duration": 0.625,
        "velocity": 1,
        "hand": "right"
      },
      {
        "midi": 41,
        "time": 157.5,
        "duration": 1.25,
        "velocity": 1,
        "hand": "left"
      },
      {
        "midi": 72,
        "time": 158.75,
        "duration": 0.61,
        "velocity": 1,
        "hand": "right"
      },
      {
        "midi": 75,
        "time": 158.75,
        "duration": 0.625,
        "velocity": 1,
        "hand": "right"
      },
      {
        "midi": 55,
        "time": 160,
        "duration": 1.25,
        "velocity": 1,
        "hand": "left"
      },
      {
        "midi": 70,
        "time": 160,
        "duration": 0.61,
        "velocity": 1,
        "hand": "right"
      },
      {
        "midi": 70,
        "time": 161.25,
        "duration": 0.61,
        "velocity": 1,
        "hand": "right"
      },
      {
        "midi": 74,
        "time": 161.25,
        "duration": 0.625,
        "velocity": 1,
        "hand": "right"
      },
      {
        "midi": 43,
        "time": 162.5,
        "duration": 1.25,
        "velocity": 1,
        "hand": "left"
      },
      {
        "midi": 70,
        "time": 163.75,
        "duration": 0.61,
        "velocity": 1,
        "hand": "right"
      },
      {
        "midi": 74,
        "time": 163.75,
        "duration": 0.625,
        "velocity": 1,
        "hand": "right"
      },
      {
        "midi": 72,
        "time": 165,
        "duration": 0.61,
        "velocity": 1,
        "hand": "right"
      },
      {
        "midi": 72,
        "time": 166.25,
        "duration": 0.61,
        "velocity": 1,
        "hand": "right"
      },
      {
        "midi": 75,
        "time": 166.25,
        "duration": 0.625,
        "velocity": 1,
        "hand": "right"
      },
      {
        "midi": 74,
        "time": 167.5,
        "duration": 0.42,
        "velocity": 1,
        "hand": "right"
      },
      {
        "midi": 67,
        "time": 168.75,
        "duration": 0.625,
        "velocity": 1,
        "hand": "right"
      },
      {
        "midi": 72,
        "time": 168.75,
        "duration": 0.625,
        "velocity": 1,
        "hand": "right"
      },
      {
        "midi": 58,
        "time": 170,
        "duration": 1.25,
        "velocity": 1,
        "hand": "left"
      },
      {
        "midi": 70,
        "time": 170,
        "duration": 0.61,
        "velocity": 1,
        "hand": "right"
      },
      {
        "midi": 70,
        "time": 171.25,
        "duration": 0.61,
        "velocity": 1,
        "hand": "right"
      },
      {
        "midi": 74,
        "time": 171.25,
        "duration": 0.625,
        "velocity": 1,
        "hand": "right"
      },
      {
        "midi": 46,
        "time": 172.5,
        "duration": 1.25,
        "velocity": 1,
        "hand": "left"
      },
      {
        "midi": 70,
        "time": 173.75,
        "duration": 0.61,
        "velocity": 1,
        "hand": "right"
      },
      {
        "midi": 74,
        "time": 173.75,
        "duration": 1.235,
        "velocity": 1,
        "hand": "right"
      },
      {
        "midi": 58,
        "time": 175,
        "duration": 1.25,
        "velocity": 1,
        "hand": "left"
      },
      {
        "midi": 74,
        "time": 175,
        "duration": 1.235,
        "velocity": 1,
        "hand": "right"
      },
      {
        "midi": 70,
        "time": 176.25,
        "duration": 0.61,
        "velocity": 1,
        "hand": "right"
      },
      {
        "midi": 74,
        "time": 176.25,
        "duration": 0.625,
        "velocity": 1,
        "hand": "right"
      },
      {
        "midi": 58,
        "time": 177.5,
        "duration": 1.25,
        "velocity": 1,
        "hand": "left"
      },
      {
        "midi": 70,
        "time": 177.5,
        "duration": 0.61,
        "velocity": 1,
        "hand": "right"
      },
      {
        "midi": 70,
        "time": 178.75,
        "duration": 0.61,
        "velocity": 1,
        "hand": "right"
      },
      {
        "midi": 74,
        "time": 178.75,
        "duration": 0.625,
        "velocity": 1,
        "hand": "right"
      },
      {
        "midi": 74,
        "time": 180,
        "duration": 1.235,
        "velocity": 1,
        "hand": "right"
      },
      {
        "midi": 70,
        "time": 181.25,
        "duration": 0.61,
        "velocity": 1,
        "hand": "right"
      },
      {
        "midi": 74,
        "time": 181.25,
        "duration": 0.625,
        "velocity": 1,
        "hand": "right"
      },
      {
        "midi": 57,
        "time": 182.5,
        "duration": 1.25,
        "velocity": 1,
        "hand": "left"
      },
      {
        "midi": 73,
        "time": 182.5,
        "duration": 1.235,
        "velocity": 1,
        "hand": "right"
      },
      {
        "midi": 69,
        "time": 183.75,
        "duration": 0.61,
        "velocity": 1,
        "hand": "right"
      },
      {
        "midi": 73,
        "time": 183.75,
        "duration": 0.625,
        "velocity": 1,
        "hand": "right"
      },
      {
        "midi": 72,
        "time": 185,
        "duration": 0.61,
        "velocity": 1,
        "hand": "right"
      },
      {
        "midi": 72,
        "time": 186.25,
        "duration": 0.61,
        "velocity": 1,
        "hand": "right"
      },
      {
        "midi": 75,
        "time": 186.25,
        "duration": 0.625,
        "velocity": 1,
        "hand": "right"
      },
      {
        "midi": 54,
        "time": 187.5,
        "duration": 1.25,
        "velocity": 1,
        "hand": "left"
      },
      {
        "midi": 69,
        "time": 187.5,
        "duration": 0.61,
        "velocity": 1,
        "hand": "right"
      },
      {
        "midi": 72,
        "time": 188.75,
        "duration": 0.61,
        "velocity": 1,
        "hand": "right"
      },
      {
        "midi": 75,
        "time": 188.75,
        "duration": 0.625,
        "velocity": 1,
        "hand": "right"
      },
      {
        "midi": 55,
        "time": 190,
        "duration": 1.25,
        "velocity": 1,
        "hand": "left"
      },
      {
        "midi": 70,
        "time": 190,
        "duration": 0.61,
        "velocity": 1,
        "hand": "right"
      },
      {
        "midi": 70,
        "time": 191.25,
        "duration": 0.61,
        "velocity": 1,
        "hand": "right"
      },
      {
        "midi": 74,
        "time": 191.25,
        "duration": 0.625,
        "velocity": 1,
        "hand": "right"
      },
      {
        "midi": 43,
        "time": 192.5,
        "duration": 1.25,
        "velocity": 1,
        "hand": "left"
      },
      {
        "midi": 70,
        "time": 193.75,
        "duration": 0.61,
        "velocity": 1,
        "hand": "right"
      },
      {
        "midi": 74,
        "time": 193.75,
        "duration": 0.625,
        "velocity": 1,
        "hand": "right"
      },
      {
        "midi": 57,
        "time": 195,
        "duration": 1.25,
        "velocity": 1,
        "hand": "left"
      },
      {
        "midi": 72,
        "time": 195,
        "duration": 1.235,
        "velocity": 1,
        "hand": "right"
      },
      {
        "midi": 69,
        "time": 196.25,
        "duration": 0.61,
        "velocity": 1,
        "hand": "right"
      },
      {
        "midi": 72,
        "time": 196.25,
        "duration": 0.625,
        "velocity": 1,
        "hand": "right"
      },
      {
        "midi": 67,
        "time": 197.5,
        "duration": 0.61,
        "velocity": 1,
        "hand": "right"
      },
      {
        "midi": 71,
        "time": 198.75,
        "duration": 0.61,
        "velocity": 1,
        "hand": "right"
      },
      {
        "midi": 77,
        "time": 198.75,
        "duration": 0.625,
        "velocity": 1,
        "hand": "right"
      },
      {
        "midi": 72,
        "time": 200,
        "duration": 0.61,
        "velocity": 1,
        "hand": "right"
      },
      {
        "midi": 72,
        "time": 201.25,
        "duration": 0.61,
        "velocity": 1,
        "hand": "right"
      },
      {
        "midi": 77,
        "time": 201.25,
        "duration": 0.625,
        "velocity": 1,
        "hand": "right"
      },
      {
        "midi": 36,
        "time": 202.5,
        "duration": 1.25,
        "velocity": 1,
        "hand": "left"
      },
      {
        "midi": 48,
        "time": 202.5,
        "duration": 1.25,
        "velocity": 1,
        "hand": "left"
      },
      {
        "midi": 70,
        "time": 203.75,
        "duration": 0.42,
        "velocity": 1,
        "hand": "right"
      },
      {
        "midi": 76,
        "time": 203.75,
        "duration": 0.625,
        "velocity": 1,
        "hand": "right"
      },
      {
        "midi": 53,
        "time": 205,
        "duration": 1.25,
        "velocity": 1,
        "hand": "left"
      },
      {
        "midi": 65,
        "time": 205,
        "duration": 0.61,
        "velocity": 1,
        "hand": "right"
      },
      {
        "midi": 72,
        "time": 206.25,
        "duration": 0.61,
        "velocity": 1,
        "hand": "right"
      },
      {
        "midi": 77,
        "time": 206.25,
        "duration": 0.625,
        "velocity": 1,
        "hand": "right"
      },
      {
        "midi": 41,
        "time": 207.5,
        "duration": 1.25,
        "velocity": 1,
        "hand": "left"
      },
      {
        "midi": 53,
        "time": 207.5,
        "duration": 1.25,
        "velocity": 1,
        "hand": "left"
      },
      {
        "midi": 65,
        "time": 208.75,
        "duration": 0.61,
        "velocity": 1,
        "hand": "right"
      },
      {
        "midi": 77,
        "time": 208.75,
        "duration": 0.625,
        "velocity": 1,
        "hand": "right"
      },
      {
        "midi": 72,
        "time": 210,
        "duration": 0.61,
        "velocity": 1,
        "hand": "right"
      },
      {
        "midi": 72,
        "time": 211.25,
        "duration": 0.61,
        "velocity": 1,
        "hand": "right"
      },
      {
        "midi": 77,
        "time": 211.25,
        "duration": 0.625,
        "velocity": 1,
        "hand": "right"
      },
      {
        "midi": 72,
        "time": 212.5,
        "duration": 0.61,
        "velocity": 1,
        "hand": "right"
      },
      {
        "midi": 72,
        "time": 213.75,
        "duration": 0.61,
        "velocity": 1,
        "hand": "right"
      },
      {
        "midi": 77,
        "time": 213.75,
        "duration": 0.625,
        "velocity": 1,
        "hand": "right"
      },
      {
        "midi": 74,
        "time": 215,
        "duration": 0.61,
        "velocity": 1,
        "hand": "right"
      },
      {
        "midi": 70,
        "time": 216.25,
        "duration": 0.61,
        "velocity": 1,
        "hand": "right"
      },
      {
        "midi": 77,
        "time": 216.25,
        "duration": 0.625,
        "velocity": 1,
        "hand": "right"
      },
      {
        "midi": 41,
        "time": 217.5,
        "duration": 1.25,
        "velocity": 1,
        "hand": "left"
      },
      {
        "midi": 53,
        "time": 217.5,
        "duration": 1.25,
        "velocity": 1,
        "hand": "left"
      },
      {
        "midi": 70,
        "time": 218.75,
        "duration": 0.61,
        "velocity": 1,
        "hand": "right"
      },
      {
        "midi": 77,
        "time": 218.75,
        "duration": 0.625,
        "velocity": 1,
        "hand": "right"
      },
      {
        "midi": 72,
        "time": 220,
        "duration": 0.61,
        "velocity": 1,
        "hand": "right"
      },
      {
        "midi": 72,
        "time": 221.25,
        "duration": 0.61,
        "velocity": 1,
        "hand": "right"
      },
      {
        "midi": 77,
        "time": 221.25,
        "duration": 0.625,
        "velocity": 1,
        "hand": "right"
      },
      {
        "midi": 72,
        "time": 222.5,
        "duration": 0.61,
        "velocity": 1,
        "hand": "right"
      },
      {
        "midi": 72,
        "time": 223.75,
        "duration": 0.61,
        "velocity": 1,
        "hand": "right"
      },
      {
        "midi": 77,
        "time": 223.75,
        "duration": 0.625,
        "velocity": 1,
        "hand": "right"
      },
      {
        "midi": 55,
        "time": 225,
        "duration": 1.25,
        "velocity": 1,
        "hand": "left"
      },
      {
        "midi": 70,
        "time": 225,
        "duration": 0.61,
        "velocity": 1,
        "hand": "right"
      },
      {
        "midi": 70,
        "time": 226.25,
        "duration": 0.61,
        "velocity": 1,
        "hand": "right"
      },
      {
        "midi": 74,
        "time": 226.25,
        "duration": 0.625,
        "velocity": 1,
        "hand": "right"
      },
      {
        "midi": 43,
        "time": 227.5,
        "duration": 1.25,
        "velocity": 1,
        "hand": "left"
      },
      {
        "midi": 55,
        "time": 227.5,
        "duration": 1.25,
        "velocity": 1,
        "hand": "left"
      },
      {
        "midi": 67,
        "time": 228.75,
        "duration": 0.61,
        "velocity": 1,
        "hand": "right"
      },
      {
        "midi": 70,
        "time": 228.75,
        "duration": 1.25,
        "velocity": 1,
        "hand": "right"
      },
      {
        "midi": 72,
        "time": 230,
        "duration": 1.235,
        "velocity": 1,
        "hand": "right"
      },
      {
        "midi": 69,
        "time": 231.25,
        "duration": 0.61,
        "velocity": 1,
        "hand": "right"
      },
      {
        "midi": 72,
        "time": 231.25,
        "duration": 0.61,
        "velocity": 1,
        "hand": "right"
      },
      {
        "midi": 74,
        "time": 232.5,
        "duration": 1.235,
        "velocity": 1,
        "hand": "right"
      },
      {
        "midi": 69,
        "time": 233.75,
        "duration": 0.61,
        "velocity": 1,
        "hand": "right"
      },
      {
        "midi": 75,
        "time": 233.75,
        "duration": 0.42,
        "velocity": 1,
        "hand": "right"
      },
      {
        "midi": 77,
        "time": 235,
        "duration": 0.42,
        "velocity": 1,
        "hand": "right"
      },
      {
        "midi": 72,
        "time": 236.25,
        "duration": 0.61,
        "velocity": 1,
        "hand": "right"
      },
      {
        "midi": 75,
        "time": 236.25,
        "duration": 1.25,
        "velocity": 1,
        "hand": "right"
      },
      {
        "midi": 36,
        "time": 237.5,
        "duration": 1.25,
        "velocity": 1,
        "hand": "left"
      },
      {
        "midi": 48,
        "time": 237.5,
        "duration": 1.25,
        "velocity": 1,
        "hand": "left"
      },
      {
        "midi": 72,
        "time": 238.75,
        "duration": 0.61,
        "velocity": 1,
        "hand": "right"
      },
      {
        "midi": 75,
        "time": 238.75,
        "duration": 0.625,
        "velocity": 1,
        "hand": "right"
      },
      {
        "midi": 74,
        "time": 240,
        "duration": 0.42,
        "velocity": 1,
        "hand": "right"
      },
      {
        "midi": 67,
        "time": 241.25,
        "duration": 0.61,
        "velocity": 1,
        "hand": "right"
      },
      {
        "midi": 72,
        "time": 241.25,
        "duration": 0.61,
        "velocity": 1,
        "hand": "right"
      },
      {
        "midi": 55,
        "time": 242.5,
        "duration": 1.25,
        "velocity": 1,
        "hand": "left"
      },
      {
        "midi": 70,
        "time": 242.5,
        "duration": 0.61,
        "velocity": 1,
        "hand": "right"
      },
      {
        "midi": 70,
        "time": 243.75,
        "duration": 0.61,
        "velocity": 1,
        "hand": "right"
      },
      {
        "midi": 73,
        "time": 243.75,
        "duration": 0.625,
        "velocity": 1,
        "hand": "right"
      },
      {
        "midi": 72,
        "time": 245,
        "duration": 1.235,
        "velocity": 1,
        "hand": "right"
      },
      {
        "midi": 69,
        "time": 246.25,
        "duration": 0.61,
        "velocity": 1,
        "hand": "right"
      },
      {
        "midi": 72,
        "time": 246.25,
        "duration": 0.625,
        "velocity": 1,
        "hand": "right"
      },
      {
        "midi": 41,
        "time": 247.5,
        "duration": 1.25,
        "velocity": 1,
        "hand": "left"
      },
      {
        "midi": 53,
        "time": 247.5,
        "duration": 1.25,
        "velocity": 1,
        "hand": "left"
      },
      {
        "midi": 69,
        "time": 248.75,
        "duration": 0.61,
        "velocity": 1,
        "hand": "right"
      },
      {
        "midi": 72,
        "time": 248.75,
        "duration": 0.625,
        "velocity": 1,
        "hand": "right"
      },
      {
        "midi": 58,
        "time": 250,
        "duration": 1.25,
        "velocity": 1,
        "hand": "left"
      },
      {
        "midi": 70,
        "time": 250,
        "duration": 0.61,
        "velocity": 1,
        "hand": "right"
      },
      {
        "midi": 70,
        "time": 251.25,
        "duration": 0.61,
        "velocity": 1,
        "hand": "right"
      },
      {
        "midi": 74,
        "time": 251.25,
        "duration": 0.625,
        "velocity": 1,
        "hand": "right"
      },
      {
        "midi": 43,
        "time": 252.5,
        "duration": 1.25,
        "velocity": 1,
        "hand": "left"
      },
      {
        "midi": 70,
        "time": 253.75,
        "duration": 0.61,
        "velocity": 1,
        "hand": "right"
      },
      {
        "midi": 74,
        "time": 253.75,
        "duration": 0.625,
        "velocity": 1,
        "hand": "right"
      },
      {
        "midi": 74,
        "time": 255,
        "duration": 1.235,
        "velocity": 1,
        "hand": "right"
      },
      {
        "midi": 70,
        "time": 256.25,
        "duration": 0.61,
        "velocity": 1,
        "hand": "right"
      },
      {
        "midi": 74,
        "time": 256.25,
        "duration": 0.625,
        "velocity": 1,
        "hand": "right"
      },
      {
        "midi": 41,
        "time": 257.5,
        "duration": 1.25,
        "velocity": 1,
        "hand": "left"
      },
      {
        "midi": 69,
        "time": 258.75,
        "duration": 0.61,
        "velocity": 1,
        "hand": "right"
      },
      {
        "midi": 72,
        "time": 258.75,
        "duration": 0.61,
        "velocity": 1,
        "hand": "right"
      },
      {
        "midi": 58,
        "time": 260,
        "duration": 1.25,
        "velocity": 1,
        "hand": "left"
      },
      {
        "midi": 70,
        "time": 260,
        "duration": 0.61,
        "velocity": 1,
        "hand": "right"
      },
      {
        "midi": 70,
        "time": 261.25,
        "duration": 0.61,
        "velocity": 1,
        "hand": "right"
      },
      {
        "midi": 74,
        "time": 261.25,
        "duration": 0.625,
        "velocity": 1,
        "hand": "right"
      },
      {
        "midi": 46,
        "time": 262.5,
        "duration": 1.25,
        "velocity": 1,
        "hand": "left"
      },
      {
        "midi": 70,
        "time": 263.75,
        "duration": 0.61,
        "velocity": 1,
        "hand": "right"
      },
      {
        "midi": 74,
        "time": 263.75,
        "duration": 0.625,
        "velocity": 1,
        "hand": "right"
      },
      {
        "midi": 46,
        "time": 265,
        "duration": 1.25,
        "velocity": 1,
        "hand": "left"
      },
      {
        "midi": 74,
        "time": 266.25,
        "duration": 0.61,
        "velocity": 1,
        "hand": "right"
      },
      {
        "midi": 77,
        "time": 266.25,
        "duration": 0.625,
        "velocity": 1,
        "hand": "right"
      },
      {
        "midi": 46,
        "time": 267.5,
        "duration": 1.25,
        "velocity": 1,
        "hand": "left"
      },
      {
        "midi": 77,
        "time": 268.75,
        "duration": 0.61,
        "velocity": 1,
        "hand": "right"
      },
      {
        "midi": 80,
        "time": 268.75,
        "duration": 0.625,
        "velocity": 1,
        "hand": "right"
      },
      {
        "midi": 46,
        "time": 270,
        "duration": 1.25,
        "velocity": 1,
        "hand": "left"
      },
      {
        "midi": 75,
        "time": 271.25,
        "duration": 0.61,
        "velocity": 1,
        "hand": "right"
      },
      {
        "midi": 79,
        "time": 271.25,
        "duration": 0.625,
        "velocity": 1,
        "hand": "right"
      },
      {
        "midi": 46,
        "time": 272.5,
        "duration": 1.25,
        "velocity": 1,
        "hand": "left"
      },
      {
        "midi": 75,
        "time": 273.75,
        "duration": 0.61,
        "velocity": 1,
        "hand": "right"
      },
      {
        "midi": 78,
        "time": 273.75,
        "duration": 0.625,
        "velocity": 1,
        "hand": "right"
      },
      {
        "midi": 46,
        "time": 275,
        "duration": 1.25,
        "velocity": 1,
        "hand": "left"
      },
      {
        "midi": 74,
        "time": 276.25,
        "duration": 0.61,
        "velocity": 1,
        "hand": "right"
      },
      {
        "midi": 77,
        "time": 276.25,
        "duration": 0.625,
        "velocity": 1,
        "hand": "right"
      },
      {
        "midi": 46,
        "time": 277.5,
        "duration": 1.25,
        "velocity": 1,
        "hand": "left"
      },
      {
        "midi": 70,
        "time": 278.75,
        "duration": 0.61,
        "velocity": 1,
        "hand": "right"
      },
      {
        "midi": 74,
        "time": 278.75,
        "duration": 0.625,
        "velocity": 1,
        "hand": "right"
      },
      {
        "midi": 58,
        "time": 280,
        "duration": 1.25,
        "velocity": 1,
        "hand": "left"
      },
      {
        "midi": 70,
        "time": 280,
        "duration": 0.61,
        "velocity": 1,
        "hand": "right"
      },
      {
        "midi": 70,
        "time": 281.25,
        "duration": 0.61,
        "velocity": 1,
        "hand": "right"
      },
      {
        "midi": 74,
        "time": 281.25,
        "duration": 0.625,
        "velocity": 1,
        "hand": "right"
      },
      {
        "midi": 43,
        "time": 282.5,
        "duration": 1.25,
        "velocity": 1,
        "hand": "left"
      },
      {
        "midi": 70,
        "time": 283.75,
        "duration": 0.61,
        "velocity": 1,
        "hand": "right"
      },
      {
        "midi": 74,
        "time": 283.75,
        "duration": 0.625,
        "velocity": 1,
        "hand": "right"
      },
      {
        "midi": 74,
        "time": 285,
        "duration": 1.235,
        "velocity": 1,
        "hand": "right"
      },
      {
        "midi": 70,
        "time": 286.25,
        "duration": 0.61,
        "velocity": 1,
        "hand": "right"
      },
      {
        "midi": 74,
        "time": 286.25,
        "duration": 0.625,
        "velocity": 1,
        "hand": "right"
      },
      {
        "midi": 41,
        "time": 287.5,
        "duration": 1.25,
        "velocity": 1,
        "hand": "left"
      },
      {
        "midi": 72,
        "time": 288.75,
        "duration": 0.61,
        "velocity": 1,
        "hand": "right"
      },
      {
        "midi": 75,
        "time": 288.75,
        "duration": 0.625,
        "velocity": 1,
        "hand": "right"
      },
      {
        "midi": 55,
        "time": 290,
        "duration": 1.25,
        "velocity": 1,
        "hand": "left"
      },
      {
        "midi": 70,
        "time": 290,
        "duration": 0.61,
        "velocity": 1,
        "hand": "right"
      },
      {
        "midi": 70,
        "time": 291.25,
        "duration": 0.61,
        "velocity": 1,
        "hand": "right"
      },
      {
        "midi": 74,
        "time": 291.25,
        "duration": 0.625,
        "velocity": 1,
        "hand": "right"
      },
      {
        "midi": 43,
        "time": 292.5,
        "duration": 1.25,
        "velocity": 1,
        "hand": "left"
      },
      {
        "midi": 70,
        "time": 293.75,
        "duration": 0.61,
        "velocity": 1,
        "hand": "right"
      },
      {
        "midi": 74,
        "time": 293.75,
        "duration": 0.625,
        "velocity": 1,
        "hand": "right"
      },
      {
        "midi": 72,
        "time": 295,
        "duration": 0.61,
        "velocity": 1,
        "hand": "right"
      },
      {
        "midi": 72,
        "time": 296.25,
        "duration": 0.61,
        "velocity": 1,
        "hand": "right"
      },
      {
        "midi": 75,
        "time": 296.25,
        "duration": 0.625,
        "velocity": 1,
        "hand": "right"
      },
      {
        "midi": 74,
        "time": 297.5,
        "duration": 0.42,
        "velocity": 1,
        "hand": "right"
      },
      {
        "midi": 67,
        "time": 298.75,
        "duration": 0.625,
        "velocity": 1,
        "hand": "right"
      },
      {
        "midi": 72,
        "time": 298.75,
        "duration": 0.625,
        "velocity": 1,
        "hand": "right"
      },
      {
        "midi": 58,
        "time": 300,
        "duration": 1.25,
        "velocity": 1,
        "hand": "left"
      },
      {
        "midi": 70,
        "time": 300,
        "duration": 0.61,
        "velocity": 1,
        "hand": "right"
      },
      {
        "midi": 70,
        "time": 301.25,
        "duration": 0.61,
        "velocity": 1,
        "hand": "right"
      },
      {
        "midi": 74,
        "time": 301.25,
        "duration": 0.625,
        "velocity": 1,
        "hand": "right"
      },
      {
        "midi": 46,
        "time": 302.5,
        "duration": 1.25,
        "velocity": 1,
        "hand": "left"
      },
      {
        "midi": 70,
        "time": 303.75,
        "duration": 0.61,
        "velocity": 1,
        "hand": "right"
      },
      {
        "midi": 74,
        "time": 303.75,
        "duration": 1.235,
        "velocity": 1,
        "hand": "right"
      },
      {
        "midi": 58,
        "time": 305,
        "duration": 1.25,
        "velocity": 1,
        "hand": "left"
      },
      {
        "midi": 74,
        "time": 305,
        "duration": 1.235,
        "velocity": 1,
        "hand": "right"
      },
      {
        "midi": 70,
        "time": 306.25,
        "duration": 0.61,
        "velocity": 1,
        "hand": "right"
      },
      {
        "midi": 74,
        "time": 306.25,
        "duration": 0.625,
        "velocity": 1,
        "hand": "right"
      },
      {
        "midi": 58,
        "time": 307.5,
        "duration": 1.25,
        "velocity": 1,
        "hand": "left"
      },
      {
        "midi": 70,
        "time": 307.5,
        "duration": 0.61,
        "velocity": 1,
        "hand": "right"
      },
      {
        "midi": 70,
        "time": 308.75,
        "duration": 0.61,
        "velocity": 1,
        "hand": "right"
      },
      {
        "midi": 74,
        "time": 308.75,
        "duration": 0.625,
        "velocity": 1,
        "hand": "right"
      },
      {
        "midi": 74,
        "time": 310,
        "duration": 1.235,
        "velocity": 1,
        "hand": "right"
      },
      {
        "midi": 70,
        "time": 311.25,
        "duration": 0.61,
        "velocity": 1,
        "hand": "right"
      },
      {
        "midi": 74,
        "time": 311.25,
        "duration": 0.625,
        "velocity": 1,
        "hand": "right"
      },
      {
        "midi": 57,
        "time": 312.5,
        "duration": 1.25,
        "velocity": 1,
        "hand": "left"
      },
      {
        "midi": 73,
        "time": 312.5,
        "duration": 1.235,
        "velocity": 1,
        "hand": "right"
      },
      {
        "midi": 69,
        "time": 313.75,
        "duration": 0.61,
        "velocity": 1,
        "hand": "right"
      },
      {
        "midi": 73,
        "time": 313.75,
        "duration": 0.625,
        "velocity": 1,
        "hand": "right"
      },
      {
        "midi": 72,
        "time": 315,
        "duration": 0.61,
        "velocity": 1,
        "hand": "right"
      },
      {
        "midi": 72,
        "time": 316.25,
        "duration": 0.61,
        "velocity": 1,
        "hand": "right"
      },
      {
        "midi": 75,
        "time": 316.25,
        "duration": 0.625,
        "velocity": 1,
        "hand": "right"
      },
      {
        "midi": 54,
        "time": 317.5,
        "duration": 1.25,
        "velocity": 1,
        "hand": "left"
      },
      {
        "midi": 69,
        "time": 317.5,
        "duration": 0.61,
        "velocity": 1,
        "hand": "right"
      },
      {
        "midi": 72,
        "time": 318.75,
        "duration": 0.61,
        "velocity": 1,
        "hand": "right"
      },
      {
        "midi": 75,
        "time": 318.75,
        "duration": 0.625,
        "velocity": 1,
        "hand": "right"
      },
      {
        "midi": 55,
        "time": 320,
        "duration": 1.25,
        "velocity": 1,
        "hand": "left"
      },
      {
        "midi": 70,
        "time": 320,
        "duration": 0.61,
        "velocity": 1,
        "hand": "right"
      },
      {
        "midi": 70,
        "time": 321.25,
        "duration": 0.61,
        "velocity": 1,
        "hand": "right"
      },
      {
        "midi": 74,
        "time": 321.25,
        "duration": 0.625,
        "velocity": 1,
        "hand": "right"
      },
      {
        "midi": 43,
        "time": 322.5,
        "duration": 1.25,
        "velocity": 1,
        "hand": "left"
      },
      {
        "midi": 70,
        "time": 323.75,
        "duration": 0.61,
        "velocity": 1,
        "hand": "right"
      },
      {
        "midi": 74,
        "time": 323.75,
        "duration": 0.625,
        "velocity": 1,
        "hand": "right"
      },
      {
        "midi": 57,
        "time": 325,
        "duration": 1.25,
        "velocity": 1,
        "hand": "left"
      },
      {
        "midi": 72,
        "time": 325,
        "duration": 1.235,
        "velocity": 1,
        "hand": "right"
      },
      {
        "midi": 69,
        "time": 326.25,
        "duration": 0.61,
        "velocity": 1,
        "hand": "right"
      },
      {
        "midi": 72,
        "time": 326.25,
        "duration": 0.625,
        "velocity": 1,
        "hand": "right"
      },
      {
        "midi": 67,
        "time": 327.5,
        "duration": 0.61,
        "velocity": 1,
        "hand": "right"
      },
      {
        "midi": 71,
        "time": 328.75,
        "duration": 0.61,
        "velocity": 1,
        "hand": "right"
      },
      {
        "midi": 77,
        "time": 328.75,
        "duration": 0.625,
        "velocity": 1,
        "hand": "right"
      },
      {
        "midi": 72,
        "time": 330,
        "duration": 0.61,
        "velocity": 1,
        "hand": "right"
      },
      {
        "midi": 72,
        "time": 331.25,
        "duration": 0.61,
        "velocity": 1,
        "hand": "right"
      },
      {
        "midi": 77,
        "time": 331.25,
        "duration": 0.625,
        "velocity": 1,
        "hand": "right"
      },
      {
        "midi": 36,
        "time": 332.5,
        "duration": 1.25,
        "velocity": 1,
        "hand": "left"
      },
      {
        "midi": 48,
        "time": 332.5,
        "duration": 1.25,
        "velocity": 1,
        "hand": "left"
      },
      {
        "midi": 70,
        "time": 333.75,
        "duration": 0.42,
        "velocity": 1,
        "hand": "right"
      },
      {
        "midi": 76,
        "time": 333.75,
        "duration": 0.625,
        "velocity": 1,
        "hand": "right"
      },
      {
        "midi": 53,
        "time": 335,
        "duration": 1.25,
        "velocity": 1,
        "hand": "left"
      },
      {
        "midi": 65,
        "time": 335,
        "duration": 0.61,
        "velocity": 1,
        "hand": "right"
      },
      {
        "midi": 72,
        "time": 336.25,
        "duration": 0.61,
        "velocity": 1,
        "hand": "right"
      },
      {
        "midi": 77,
        "time": 336.25,
        "duration": 0.625,
        "velocity": 1,
        "hand": "right"
      },
      {
        "midi": 41,
        "time": 337.5,
        "duration": 1.25,
        "velocity": 1,
        "hand": "left"
      },
      {
        "midi": 53,
        "time": 337.5,
        "duration": 1.25,
        "velocity": 1,
        "hand": "left"
      },
      {
        "midi": 65,
        "time": 338.75,
        "duration": 0.61,
        "velocity": 1,
        "hand": "right"
      },
      {
        "midi": 77,
        "time": 338.75,
        "duration": 0.625,
        "velocity": 1,
        "hand": "right"
      },
      {
        "midi": 72,
        "time": 340,
        "duration": 0.61,
        "velocity": 1,
        "hand": "right"
      },
      {
        "midi": 72,
        "time": 341.25,
        "duration": 0.61,
        "velocity": 1,
        "hand": "right"
      },
      {
        "midi": 77,
        "time": 341.25,
        "duration": 0.625,
        "velocity": 1,
        "hand": "right"
      },
      {
        "midi": 72,
        "time": 342.5,
        "duration": 0.61,
        "velocity": 1,
        "hand": "right"
      },
      {
        "midi": 72,
        "time": 343.75,
        "duration": 0.61,
        "velocity": 1,
        "hand": "right"
      },
      {
        "midi": 77,
        "time": 343.75,
        "duration": 0.625,
        "velocity": 1,
        "hand": "right"
      },
      {
        "midi": 74,
        "time": 345,
        "duration": 0.61,
        "velocity": 1,
        "hand": "right"
      },
      {
        "midi": 70,
        "time": 346.25,
        "duration": 0.61,
        "velocity": 1,
        "hand": "right"
      },
      {
        "midi": 77,
        "time": 346.25,
        "duration": 0.625,
        "velocity": 1,
        "hand": "right"
      },
      {
        "midi": 41,
        "time": 347.5,
        "duration": 1.25,
        "velocity": 1,
        "hand": "left"
      },
      {
        "midi": 53,
        "time": 347.5,
        "duration": 1.25,
        "velocity": 1,
        "hand": "left"
      },
      {
        "midi": 70,
        "time": 348.75,
        "duration": 0.61,
        "velocity": 1,
        "hand": "right"
      },
      {
        "midi": 77,
        "time": 348.75,
        "duration": 0.625,
        "velocity": 1,
        "hand": "right"
      },
      {
        "midi": 72,
        "time": 350,
        "duration": 0.61,
        "velocity": 1,
        "hand": "right"
      },
      {
        "midi": 72,
        "time": 351.25,
        "duration": 0.61,
        "velocity": 1,
        "hand": "right"
      },
      {
        "midi": 77,
        "time": 351.25,
        "duration": 0.625,
        "velocity": 1,
        "hand": "right"
      },
      {
        "midi": 72,
        "time": 352.5,
        "duration": 0.61,
        "velocity": 1,
        "hand": "right"
      },
      {
        "midi": 72,
        "time": 353.75,
        "duration": 0.61,
        "velocity": 1,
        "hand": "right"
      },
      {
        "midi": 77,
        "time": 353.75,
        "duration": 0.625,
        "velocity": 1,
        "hand": "right"
      },
      {
        "midi": 55,
        "time": 355,
        "duration": 1.25,
        "velocity": 1,
        "hand": "left"
      },
      {
        "midi": 70,
        "time": 355,
        "duration": 0.61,
        "velocity": 1,
        "hand": "right"
      },
      {
        "midi": 70,
        "time": 356.25,
        "duration": 0.61,
        "velocity": 1,
        "hand": "right"
      },
      {
        "midi": 74,
        "time": 356.25,
        "duration": 0.625,
        "velocity": 1,
        "hand": "right"
      },
      {
        "midi": 43,
        "time": 357.5,
        "duration": 1.25,
        "velocity": 1,
        "hand": "left"
      },
      {
        "midi": 55,
        "time": 357.5,
        "duration": 1.25,
        "velocity": 1,
        "hand": "left"
      },
      {
        "midi": 67,
        "time": 358.75,
        "duration": 0.61,
        "velocity": 1,
        "hand": "right"
      },
      {
        "midi": 70,
        "time": 358.75,
        "duration": 1.25,
        "velocity": 1,
        "hand": "right"
      },
      {
        "midi": 72,
        "time": 360,
        "duration": 1.235,
        "velocity": 1,
        "hand": "right"
      },
      {
        "midi": 69,
        "time": 361.25,
        "duration": 0.61,
        "velocity": 1,
        "hand": "right"
      },
      {
        "midi": 72,
        "time": 361.25,
        "duration": 0.61,
        "velocity": 1,
        "hand": "right"
      },
      {
        "midi": 74,
        "time": 362.5,
        "duration": 1.235,
        "velocity": 1,
        "hand": "right"
      },
      {
        "midi": 69,
        "time": 363.75,
        "duration": 0.61,
        "velocity": 1,
        "hand": "right"
      },
      {
        "midi": 75,
        "time": 363.75,
        "duration": 0.42,
        "velocity": 1,
        "hand": "right"
      },
      {
        "midi": 77,
        "time": 365,
        "duration": 0.42,
        "velocity": 1,
        "hand": "right"
      },
      {
        "midi": 72,
        "time": 366.25,
        "duration": 0.61,
        "velocity": 1,
        "hand": "right"
      },
      {
        "midi": 75,
        "time": 366.25,
        "duration": 1.25,
        "velocity": 1,
        "hand": "right"
      },
      {
        "midi": 36,
        "time": 367.5,
        "duration": 1.25,
        "velocity": 1,
        "hand": "left"
      },
      {
        "midi": 48,
        "time": 367.5,
        "duration": 1.25,
        "velocity": 1,
        "hand": "left"
      },
      {
        "midi": 72,
        "time": 368.75,
        "duration": 0.61,
        "velocity": 1,
        "hand": "right"
      },
      {
        "midi": 75,
        "time": 368.75,
        "duration": 0.625,
        "velocity": 1,
        "hand": "right"
      },
      {
        "midi": 74,
        "time": 370,
        "duration": 0.42,
        "velocity": 1,
        "hand": "right"
      },
      {
        "midi": 67,
        "time": 371.25,
        "duration": 0.61,
        "velocity": 1,
        "hand": "right"
      },
      {
        "midi": 72,
        "time": 371.25,
        "duration": 0.61,
        "velocity": 1,
        "hand": "right"
      },
      {
        "midi": 55,
        "time": 372.5,
        "duration": 1.25,
        "velocity": 1,
        "hand": "left"
      },
      {
        "midi": 70,
        "time": 372.5,
        "duration": 0.61,
        "velocity": 1,
        "hand": "right"
      },
      {
        "midi": 70,
        "time": 373.75,
        "duration": 0.61,
        "velocity": 1,
        "hand": "right"
      },
      {
        "midi": 73,
        "time": 373.75,
        "duration": 0.625,
        "velocity": 1,
        "hand": "right"
      },
      {
        "midi": 72,
        "time": 375,
        "duration": 1.235,
        "velocity": 1,
        "hand": "right"
      },
      {
        "midi": 69,
        "time": 376.25,
        "duration": 0.61,
        "velocity": 1,
        "hand": "right"
      },
      {
        "midi": 72,
        "time": 376.25,
        "duration": 0.625,
        "velocity": 1,
        "hand": "right"
      },
      {
        "midi": 41,
        "time": 377.5,
        "duration": 1.25,
        "velocity": 1,
        "hand": "left"
      },
      {
        "midi": 53,
        "time": 377.5,
        "duration": 1.25,
        "velocity": 1,
        "hand": "left"
      },
      {
        "midi": 69,
        "time": 378.75,
        "duration": 0.61,
        "velocity": 1,
        "hand": "right"
      },
      {
        "midi": 72,
        "time": 378.75,
        "duration": 0.625,
        "velocity": 1,
        "hand": "right"
      },
      {
        "midi": 58,
        "time": 380,
        "duration": 1.25,
        "velocity": 1,
        "hand": "left"
      },
      {
        "midi": 70,
        "time": 380,
        "duration": 0.61,
        "velocity": 1,
        "hand": "right"
      },
      {
        "midi": 70,
        "time": 381.25,
        "duration": 0.61,
        "velocity": 1,
        "hand": "right"
      },
      {
        "midi": 74,
        "time": 381.25,
        "duration": 0.625,
        "velocity": 1,
        "hand": "right"
      },
      {
        "midi": 43,
        "time": 382.5,
        "duration": 1.25,
        "velocity": 1,
        "hand": "left"
      },
      {
        "midi": 70,
        "time": 383.75,
        "duration": 0.61,
        "velocity": 1,
        "hand": "right"
      },
      {
        "midi": 74,
        "time": 383.75,
        "duration": 0.625,
        "velocity": 1,
        "hand": "right"
      },
      {
        "midi": 74,
        "time": 385,
        "duration": 1.235,
        "velocity": 1,
        "hand": "right"
      },
      {
        "midi": 70,
        "time": 386.25,
        "duration": 0.61,
        "velocity": 1,
        "hand": "right"
      },
      {
        "midi": 74,
        "time": 386.25,
        "duration": 0.625,
        "velocity": 1,
        "hand": "right"
      },
      {
        "midi": 41,
        "time": 387.5,
        "duration": 1.25,
        "velocity": 1,
        "hand": "left"
      },
      {
        "midi": 69,
        "time": 388.75,
        "duration": 0.61,
        "velocity": 1,
        "hand": "right"
      },
      {
        "midi": 72,
        "time": 388.75,
        "duration": 0.61,
        "velocity": 1,
        "hand": "right"
      },
      {
        "midi": 58,
        "time": 390,
        "duration": 1.25,
        "velocity": 1,
        "hand": "left"
      },
      {
        "midi": 70,
        "time": 390,
        "duration": 0.61,
        "velocity": 1,
        "hand": "right"
      },
      {
        "midi": 70,
        "time": 391.25,
        "duration": 0.61,
        "velocity": 1,
        "hand": "right"
      },
      {
        "midi": 74,
        "time": 391.25,
        "duration": 0.625,
        "velocity": 1,
        "hand": "right"
      },
      {
        "midi": 46,
        "time": 392.5,
        "duration": 1.25,
        "velocity": 1,
        "hand": "left"
      },
      {
        "midi": 70,
        "time": 393.75,
        "duration": 0.61,
        "velocity": 1,
        "hand": "right"
      },
      {
        "midi": 74,
        "time": 393.75,
        "duration": 0.625,
        "velocity": 1,
        "hand": "right"
      },
      {
        "midi": 46,
        "time": 395,
        "duration": 1.25,
        "velocity": 1,
        "hand": "left"
      },
      {
        "midi": 74,
        "time": 396.25,
        "duration": 0.61,
        "velocity": 1,
        "hand": "right"
      },
      {
        "midi": 77,
        "time": 396.25,
        "duration": 0.625,
        "velocity": 1,
        "hand": "right"
      },
      {
        "midi": 46,
        "time": 397.5,
        "duration": 1.25,
        "velocity": 1,
        "hand": "left"
      },
      {
        "midi": 77,
        "time": 398.75,
        "duration": 0.61,
        "velocity": 1,
        "hand": "right"
      },
      {
        "midi": 80,
        "time": 398.75,
        "duration": 0.625,
        "velocity": 1,
        "hand": "right"
      },
      {
        "midi": 46,
        "time": 400,
        "duration": 1.25,
        "velocity": 1,
        "hand": "left"
      },
      {
        "midi": 75,
        "time": 401.25,
        "duration": 0.61,
        "velocity": 1,
        "hand": "right"
      },
      {
        "midi": 79,
        "time": 401.25,
        "duration": 0.625,
        "velocity": 1,
        "hand": "right"
      },
      {
        "midi": 46,
        "time": 402.5,
        "duration": 1.25,
        "velocity": 1,
        "hand": "left"
      },
      {
        "midi": 75,
        "time": 403.75,
        "duration": 0.61,
        "velocity": 1,
        "hand": "right"
      },
      {
        "midi": 78,
        "time": 403.75,
        "duration": 0.625,
        "velocity": 1,
        "hand": "right"
      },
      {
        "midi": 46,
        "time": 405,
        "duration": 1.25,
        "velocity": 1,
        "hand": "left"
      },
      {
        "midi": 74,
        "time": 406.25,
        "duration": 0.61,
        "velocity": 1,
        "hand": "right"
      },
      {
        "midi": 77,
        "time": 406.25,
        "duration": 0.625,
        "velocity": 1,
        "hand": "right"
      },
      {
        "midi": 46,
        "time": 407.5,
        "duration": 1.25,
        "velocity": 1,
        "hand": "left"
      },
      {
        "midi": 70,
        "time": 408.75,
        "duration": 0.61,
        "velocity": 1,
        "hand": "right"
      },
      {
        "midi": 74,
        "time": 408.75,
        "duration": 0.625,
        "velocity": 1,
        "hand": "right"
      },
      {
        "midi": 46,
        "time": 410,
        "duration": 1.25,
        "velocity": 1,
        "hand": "left"
      },
      {
        "midi": 65,
        "time": 411.25,
        "duration": 0.61,
        "velocity": 1,
        "hand": "right"
      },
      {
        "midi": 70,
        "time": 411.25,
        "duration": 0.625,
        "velocity": 1,
        "hand": "right"
      },
      {
        "midi": 46,
        "time": 412.5,
        "duration": 1.25,
        "velocity": 1,
        "hand": "left"
      },
      {
        "midi": 62,
        "time": 413.75,
        "duration": 0.61,
        "velocity": 1,
        "hand": "right"
      },
      {
        "midi": 65,
        "time": 413.75,
        "duration": 0.625,
        "velocity": 1,
        "hand": "right"
      },
      {
        "midi": 46,
        "time": 415,
        "duration": 1.25,
        "velocity": 1,
        "hand": "left"
      },
      {
        "midi": 58,
        "time": 416.25,
        "duration": 0.61,
        "velocity": 1,
        "hand": "left"
      },
      {
        "midi": 62,
        "time": 416.25,
        "duration": 0.625,
        "velocity": 1,
        "hand": "right"
      },
      {
        "midi": 46,
        "time": 417.5,
        "duration": 1.25,
        "velocity": 1,
        "hand": "left"
      },
      {
        "midi": 58,
        "time": 418.75,
        "duration": 0.61,
        "velocity": 1,
        "hand": "left"
      },
      {
        "midi": 62,
        "time": 418.75,
        "duration": 0.625,
        "velocity": 1,
        "hand": "right"
      },
      {
        "midi": 53,
        "time": 420,
        "duration": 3.5,
        "velocity": 1,
        "hand": "left"
      },
      {
        "midi": 62,
        "time": 420,
        "duration": 10,
        "velocity": 1,
        "hand": "right"
      }
    ],
    "hard": [
      {
        "midi": 46,
        "time": 0,
        "duration": 1.25,
        "velocity": 1,
        "hand": "left"
      },
      {
        "midi": 62,
        "time": 0.625,
        "duration": 0.625,
        "velocity": 1,
        "hand": "right"
      },
      {
        "midi": 65,
        "time": 0.625,
        "duration": 0.625,
        "velocity": 1,
        "hand": "right"
      },
      {
        "midi": 70,
        "time": 0.625,
        "duration": 0.61,
        "velocity": 1,
        "hand": "right"
      },
      {
        "midi": 70,
        "time": 1.25,
        "duration": 0.61,
        "velocity": 1,
        "hand": "right"
      },
      {
        "midi": 74,
        "time": 1.25,
        "duration": 0.625,
        "velocity": 1,
        "hand": "right"
      },
      {
        "midi": 62,
        "time": 1.875,
        "duration": 0.625,
        "velocity": 1,
        "hand": "right"
      },
      {
        "midi": 65,
        "time": 1.875,
        "duration": 0.625,
        "velocity": 1,
        "hand": "right"
      },
      {
        "midi": 70,
        "time": 1.875,
        "duration": 0.625,
        "velocity": 1,
        "hand": "right"
      },
      {
        "midi": 46,
        "time": 2.5,
        "duration": 1.25,
        "velocity": 1,
        "hand": "left"
      },
      {
        "midi": 62,
        "time": 3.125,
        "duration": 0.625,
        "velocity": 1,
        "hand": "right"
      },
      {
        "midi": 65,
        "time": 3.125,
        "duration": 0.625,
        "velocity": 1,
        "hand": "right"
      },
      {
        "midi": 70,
        "time": 3.125,
        "duration": 0.61,
        "velocity": 1,
        "hand": "right"
      },
      {
        "midi": 70,
        "time": 3.75,
        "duration": 0.61,
        "velocity": 1,
        "hand": "right"
      },
      {
        "midi": 74,
        "time": 3.75,
        "duration": 0.625,
        "velocity": 1,
        "hand": "right"
      },
      {
        "midi": 62,
        "time": 4.375,
        "duration": 0.625,
        "velocity": 1,
        "hand": "right"
      },
      {
        "midi": 65,
        "time": 4.375,
        "duration": 0.625,
        "velocity": 1,
        "hand": "right"
      },
      {
        "midi": 70,
        "time": 4.375,
        "duration": 0.625,
        "velocity": 1,
        "hand": "right"
      },
      {
        "midi": 46,
        "time": 5,
        "duration": 1.25,
        "velocity": 1,
        "hand": "left"
      },
      {
        "midi": 65,
        "time": 5.625,
        "duration": 0.625,
        "velocity": 1,
        "hand": "right"
      },
      {
        "midi": 70,
        "time": 5.625,
        "duration": 0.625,
        "velocity": 1,
        "hand": "right"
      },
      {
        "midi": 74,
        "time": 5.625,
        "duration": 0.61,
        "velocity": 1,
        "hand": "right"
      },
      {
        "midi": 74,
        "time": 6.25,
        "duration": 0.61,
        "velocity": 1,
        "hand": "right"
      },
      {
        "midi": 77,
        "time": 6.25,
        "duration": 0.625,
        "velocity": 1,
        "hand": "right"
      },
      {
        "midi": 65,
        "time": 6.875,
        "duration": 0.625,
        "velocity": 1,
        "hand": "right"
      },
      {
        "midi": 70,
        "time": 6.875,
        "duration": 0.625,
        "velocity": 1,
        "hand": "right"
      },
      {
        "midi": 74,
        "time": 6.875,
        "duration": 0.625,
        "velocity": 1,
        "hand": "right"
      },
      {
        "midi": 46,
        "time": 7.5,
        "duration": 1.25,
        "velocity": 1,
        "hand": "left"
      },
      {
        "midi": 68,
        "time": 8.125,
        "duration": 0.625,
        "velocity": 1,
        "hand": "right"
      },
      {
        "midi": 74,
        "time": 8.125,
        "duration": 0.625,
        "velocity": 1,
        "hand": "right"
      },
      {
        "midi": 77,
        "time": 8.125,
        "duration": 0.61,
        "velocity": 1,
        "hand": "right"
      },
      {
        "midi": 77,
        "time": 8.75,
        "duration": 0.61,
        "velocity": 1,
        "hand": "right"
      },
      {
        "midi": 80,
        "time": 8.75,
        "duration": 0.625,
        "velocity": 1,
        "hand": "right"
      },
      {
        "midi": 68,
        "time": 9.375,
        "duration": 0.625,
        "velocity": 1,
        "hand": "right"
      },
      {
        "midi": 74,
        "time": 9.375,
        "duration": 0.625,
        "velocity": 1,
        "hand": "right"
      },
      {
        "midi": 77,
        "time": 9.375,
        "duration": 0.625,
        "velocity": 1,
        "hand": "right"
      },
      {
        "midi": 46,
        "time": 10,
        "duration": 1.25,
        "velocity": 1,
        "hand": "left"
      },
      {
        "midi": 67,
        "time": 10.625,
        "duration": 0.625,
        "velocity": 1,
        "hand": "right"
      },
      {
        "midi": 70,
        "time": 10.625,
        "duration": 0.625,
        "velocity": 1,
        "hand": "right"
      },
      {
        "midi": 75,
        "time": 10.625,
        "duration": 0.61,
        "velocity": 1,
        "hand": "right"
      },
      {
        "midi": 75,
        "time": 11.25,
        "duration": 0.61,
        "velocity": 1,
        "hand": "right"
      },
      {
        "midi": 79,
        "time": 11.25,
        "duration": 0.625,
        "velocity": 1,
        "hand": "right"
      },
      {
        "midi": 67,
        "time": 11.875,
        "duration": 0.625,
        "velocity": 1,
        "hand": "right"
      },
      {
        "midi": 70,
        "time": 11.875,
        "duration": 0.625,
        "velocity": 1,
        "hand": "right"
      },
      {
        "midi": 75,
        "time": 11.875,
        "duration": 0.625,
        "velocity": 1,
        "hand": "right"
      },
      {
        "midi": 46,
        "time": 12.5,
        "duration": 1.25,
        "velocity": 1,
        "hand": "left"
      },
      {
        "midi": 66,
        "time": 13.125,
        "duration": 0.625,
        "velocity": 1,
        "hand": "right"
      },
      {
        "midi": 69,
        "time": 13.125,
        "duration": 0.625,
        "velocity": 1,
        "hand": "right"
      },
      {
        "midi": 75,
        "time": 13.125,
        "duration": 0.61,
        "velocity": 1,
        "hand": "right"
      },
      {
        "midi": 75,
        "time": 13.75,
        "duration": 0.61,
        "velocity": 1,
        "hand": "right"
      },
      {
        "midi": 78,
        "time": 13.75,
        "duration": 0.625,
        "velocity": 1,
        "hand": "right"
      },
      {
        "midi": 66,
        "time": 14.375,
        "duration": 0.625,
        "velocity": 1,
        "hand": "right"
      },
      {
        "midi": 69,
        "time": 14.375,
        "duration": 0.625,
        "velocity": 1,
        "hand": "right"
      },
      {
        "midi": 75,
        "time": 14.375,
        "duration": 0.625,
        "velocity": 1,
        "hand": "right"
      },
      {
        "midi": 46,
        "time": 15,
        "duration": 1.25,
        "velocity": 1,
        "hand": "left"
      },
      {
        "midi": 65,
        "time": 15.625,
        "duration": 0.625,
        "velocity": 1,
        "hand": "right"
      },
      {
        "midi": 70,
        "time": 15.625,
        "duration": 0.625,
        "velocity": 1,
        "hand": "right"
      },
      {
        "midi": 74,
        "time": 15.625,
        "duration": 0.61,
        "velocity": 1,
        "hand": "right"
      },
      {
        "midi": 74,
        "time": 16.25,
        "duration": 0.61,
        "velocity": 1,
        "hand": "right"
      },
      {
        "midi": 77,
        "time": 16.25,
        "duration": 0.625,
        "velocity": 1,
        "hand": "right"
      },
      {
        "midi": 65,
        "time": 16.875,
        "duration": 0.625,
        "velocity": 1,
        "hand": "right"
      },
      {
        "midi": 70,
        "time": 16.875,
        "duration": 0.625,
        "velocity": 1,
        "hand": "right"
      },
      {
        "midi": 74,
        "time": 16.875,
        "duration": 0.625,
        "velocity": 1,
        "hand": "right"
      },
      {
        "midi": 46,
        "time": 17.5,
        "duration": 1.25,
        "velocity": 1,
        "hand": "left"
      },
      {
        "midi": 62,
        "time": 18.125,
        "duration": 0.625,
        "velocity": 1,
        "hand": "right"
      },
      {
        "midi": 65,
        "time": 18.125,
        "duration": 0.625,
        "velocity": 1,
        "hand": "right"
      },
      {
        "midi": 70,
        "time": 18.125,
        "duration": 0.61,
        "velocity": 1,
        "hand": "right"
      },
      {
        "midi": 70,
        "time": 18.75,
        "duration": 0.61,
        "velocity": 1,
        "hand": "right"
      },
      {
        "midi": 74,
        "time": 18.75,
        "duration": 0.625,
        "velocity": 1,
        "hand": "right"
      },
      {
        "midi": 62,
        "time": 19.375,
        "duration": 0.625,
        "velocity": 1,
        "hand": "right"
      },
      {
        "midi": 65,
        "time": 19.375,
        "duration": 0.625,
        "velocity": 1,
        "hand": "right"
      },
      {
        "midi": 70,
        "time": 19.375,
        "duration": 0.61,
        "velocity": 1,
        "hand": "right"
      },
      {
        "midi": 46,
        "time": 20,
        "duration": 1.25,
        "velocity": 1,
        "hand": "left"
      },
      {
        "midi": 70,
        "time": 20,
        "duration": 0.61,
        "velocity": 1,
        "hand": "right"
      },
      {
        "midi": 62,
        "time": 20.625,
        "duration": 0.625,
        "velocity": 1,
        "hand": "right"
      },
      {
        "midi": 65,
        "time": 20.625,
        "duration": 0.625,
        "velocity": 1,
        "hand": "right"
      },
      {
        "midi": 70,
        "time": 20.625,
        "duration": 0.61,
        "velocity": 1,
        "hand": "right"
      },
      {
        "midi": 70,
        "time": 21.25,
        "duration": 0.61,
        "velocity": 1,
        "hand": "right"
      },
      {
        "midi": 74,
        "time": 21.25,
        "duration": 0.625,
        "velocity": 1,
        "hand": "right"
      },
      {
        "midi": 62,
        "time": 21.875,
        "duration": 0.625,
        "velocity": 1,
        "hand": "right"
      },
      {
        "midi": 65,
        "time": 21.875,
        "duration": 0.625,
        "velocity": 1,
        "hand": "right"
      },
      {
        "midi": 70,
        "time": 21.875,
        "duration": 0.625,
        "velocity": 1,
        "hand": "right"
      },
      {
        "midi": 43,
        "time": 22.5,
        "duration": 1.25,
        "velocity": 1,
        "hand": "left"
      },
      {
        "midi": 62,
        "time": 23.125,
        "duration": 0.625,
        "velocity": 1,
        "hand": "right"
      },
      {
        "midi": 64,
        "time": 23.125,
        "duration": 0.625,
        "velocity": 1,
        "hand": "right"
      },
      {
        "midi": 70,
        "time": 23.125,
        "duration": 0.61,
        "velocity": 1,
        "hand": "right"
      },
      {
        "midi": 70,
        "time": 23.75,
        "duration": 0.61,
        "velocity": 1,
        "hand": "right"
      },
      {
        "midi": 74,
        "time": 23.75,
        "duration": 0.625,
        "velocity": 1,
        "hand": "right"
      },
      {
        "midi": 62,
        "time": 24.375,
        "duration": 0.625,
        "velocity": 1,
        "hand": "right"
      },
      {
        "midi": 64,
        "time": 24.375,
        "duration": 0.625,
        "velocity": 1,
        "hand": "right"
      },
      {
        "midi": 70,
        "time": 24.375,
        "duration": 0.625,
        "velocity": 1,
        "hand": "right"
      },
      {
        "midi": 41,
        "time": 25,
        "duration": 1.25,
        "velocity": 1,
        "hand": "left"
      },
      {
        "midi": 74,
        "time": 25,
        "duration": 1.235,
        "velocity": 1,
        "hand": "right"
      },
      {
        "midi": 62,
        "time": 25.625,
        "duration": 0.625,
        "velocity": 1,
        "hand": "right"
      },
      {
        "midi": 65,
        "time": 25.625,
        "duration": 0.625,
        "velocity": 1,
        "hand": "right"
      },
      {
        "midi": 70,
        "time": 25.625,
        "duration": 0.61,
        "velocity": 1,
        "hand": "right"
      },
      {
        "midi": 70,
        "time": 26.25,
        "duration": 0.61,
        "velocity": 1,
        "hand": "right"
      },
      {
        "midi": 74,
        "time": 26.25,
        "duration": 0.625,
        "velocity": 1,
        "hand": "right"
      },
      {
        "midi": 62,
        "time": 26.875,
        "duration": 0.625,
        "velocity": 1,
        "hand": "right"
      },
      {
        "midi": 65,
        "time": 26.875,
        "duration": 0.625,
        "velocity": 1,
        "hand": "right"
      },
      {
        "midi": 70,
        "time": 26.875,
        "duration": 0.625,
        "velocity": 1,
        "hand": "right"
      },
      {
        "midi": 41,
        "time": 27.5,
        "duration": 1.25,
        "velocity": 1,
        "hand": "left"
      },
      {
        "midi": 63,
        "time": 28.125,
        "duration": 0.625,
        "velocity": 1,
        "hand": "right"
      },
      {
        "midi": 69,
        "time": 28.125,
        "duration": 0.625,
        "velocity": 1,
        "hand": "right"
      },
      {
        "midi": 72,
        "time": 28.125,
        "duration": 0.61,
        "velocity": 1,
        "hand": "right"
      },
      {
        "midi": 72,
        "time": 28.75,
        "duration": 0.61,
        "velocity": 1,
        "hand": "right"
      },
      {
        "midi": 75,
        "time": 28.75,
        "duration": 0.625,
        "velocity": 1,
        "hand": "right"
      },
      {
        "midi": 63,
        "time": 29.375,
        "duration": 0.625,
        "velocity": 1,
        "hand": "right"
      },
      {
        "midi": 69,
        "time": 29.375,
        "duration": 0.625,
        "velocity": 1,
        "hand": "right"
      },
      {
        "midi": 72,
        "time": 29.375,
        "duration": 0.625,
        "velocity": 1,
        "hand": "right"
      },
      {
        "midi": 43,
        "time": 30,
        "duration": 1.25,
        "velocity": 1,
        "hand": "left"
      },
      {
        "midi": 70,
        "time": 30,
        "duration": 0.61,
        "velocity": 1,
        "hand": "right"
      },
      {
        "midi": 62,
        "time": 30.625,
        "duration": 0.625,
        "velocity": 1,
        "hand": "right"
      },
      {
        "midi": 67,
        "time": 30.625,
        "duration": 0.625,
        "velocity": 1,
        "hand": "right"
      },
      {
        "midi": 70,
        "time": 30.625,
        "duration": 0.61,
        "velocity": 1,
        "hand": "right"
      },
      {
        "midi": 70,
        "time": 31.25,
        "duration": 0.61,
        "velocity": 1,
        "hand": "right"
      },
      {
        "midi": 74,
        "time": 31.25,
        "duration": 0.625,
        "velocity": 1,
        "hand": "right"
      },
      {
        "midi": 62,
        "time": 31.875,
        "duration": 0.625,
        "velocity": 1,
        "hand": "right"
      },
      {
        "midi": 67,
        "time": 31.875,
        "duration": 0.625,
        "velocity": 1,
        "hand": "right"
      },
      {
        "midi": 70,
        "time": 31.875,
        "duration": 0.625,
        "velocity": 1,
        "hand": "right"
      },
      {
        "midi": 43,
        "time": 32.5,
        "duration": 1.25,
        "velocity": 1,
        "hand": "left"
      },
      {
        "midi": 62,
        "time": 33.125,
        "duration": 0.625,
        "velocity": 1,
        "hand": "right"
      },
      {
        "midi": 67,
        "time": 33.125,
        "duration": 0.625,
        "velocity": 1,
        "hand": "right"
      },
      {
        "midi": 70,
        "time": 33.125,
        "duration": 0.61,
        "velocity": 1,
        "hand": "right"
      },
      {
        "midi": 70,
        "time": 33.75,
        "duration": 0.61,
        "velocity": 1,
        "hand": "right"
      },
      {
        "midi": 74,
        "time": 33.75,
        "duration": 0.625,
        "velocity": 1,
        "hand": "right"
      },
      {
        "midi": 62,
        "time": 34.375,
        "duration": 0.625,
        "velocity": 1,
        "hand": "right"
      },
      {
        "midi": 67,
        "time": 34.375,
        "duration": 0.625,
        "velocity": 1,
        "hand": "right"
      },
      {
        "midi": 70,
        "time": 34.375,
        "duration": 0.625,
        "velocity": 1,
        "hand": "right"
      },
      {
        "midi": 39,
        "time": 35,
        "duration": 1.25,
        "velocity": 1,
        "hand": "left"
      },
      {
        "midi": 72,
        "time": 35,
        "duration": 0.61,
        "velocity": 1,
        "hand": "right"
      },
      {
        "midi": 63,
        "time": 35.625,
        "duration": 0.625,
        "velocity": 1,
        "hand": "right"
      },
      {
        "midi": 67,
        "time": 35.625,
        "duration": 0.625,
        "velocity": 1,
        "hand": "right"
      },
      {
        "midi": 72,
        "time": 35.625,
        "duration": 0.61,
        "velocity": 1,
        "hand": "right"
      },
      {
        "midi": 72,
        "time": 36.25,
        "duration": 0.61,
        "velocity": 1,
        "hand": "right"
      },
      {
        "midi": 75,
        "time": 36.25,
        "duration": 0.625,
        "velocity": 1,
        "hand": "right"
      },
      {
        "midi": 63,
        "time": 36.875,
        "duration": 0.625,
        "velocity": 1,
        "hand": "right"
      },
      {
        "midi": 67,
        "time": 36.875,
        "duration": 0.625,
        "velocity": 1,
        "hand": "right"
      },
      {
        "midi": 72,
        "time": 36.875,
        "duration": 0.61,
        "velocity": 1,
        "hand": "right"
      },
      {
        "midi": 41,
        "time": 37.5,
        "duration": 1.25,
        "velocity": 1,
        "hand": "left"
      },
      {
        "midi": 70,
        "time": 37.5,
        "duration": 0.625,
        "velocity": 1,
        "hand": "right"
      },
      {
        "midi": 72,
        "time": 37.5,
        "duration": 0.313,
        "velocity": 1,
        "hand": "right"
      },
      {
        "midi": 74,
        "time": 37.5,
        "duration": 0.313,
        "velocity": 1,
        "hand": "right"
      },
      {
        "midi": 63,
        "time": 38.125,
        "duration": 0.625,
        "velocity": 1,
        "hand": "right"
      },
      {
        "midi": 65,
        "time": 38.125,
        "duration": 0.625,
        "velocity": 1,
        "hand": "right"
      },
      {
        "midi": 69,
        "time": 38.125,
        "duration": 0.61,
        "velocity": 1,
        "hand": "right"
      },
      {
        "midi": 67,
        "time": 38.75,
        "duration": 0.625,
        "velocity": 1,
        "hand": "right"
      },
      {
        "midi": 69,
        "time": 38.75,
        "duration": 0.61,
        "velocity": 1,
        "hand": "right"
      },
      {
        "midi": 72,
        "time": 38.75,
        "duration": 0.625,
        "velocity": 1,
        "hand": "right"
      },
      {
        "midi": 63,
        "time": 39.375,
        "duration": 0.625,
        "velocity": 1,
        "hand": "right"
      },
      {
        "midi": 65,
        "time": 39.375,
        "duration": 0.625,
        "velocity": 1,
        "hand": "right"
      },
      {
        "midi": 69,
        "time": 39.375,
        "duration": 0.625,
        "velocity": 1,
        "hand": "right"
      },
      {
        "midi": 46,
        "time": 40,
        "duration": 1.25,
        "velocity": 1,
        "hand": "left"
      },
      {
        "midi": 70,
        "time": 40,
        "duration": 0.61,
        "velocity": 1,
        "hand": "right"
      },
      {
        "midi": 62,
        "time": 40.625,
        "duration": 0.625,
        "velocity": 1,
        "hand": "right"
      },
      {
        "midi": 65,
        "time": 40.625,
        "duration": 0.625,
        "velocity": 1,
        "hand": "right"
      },
      {
        "midi": 70,
        "time": 40.625,
        "duration": 0.61,
        "velocity": 1,
        "hand": "right"
      },
      {
        "midi": 70,
        "time": 41.25,
        "duration": 0.61,
        "velocity": 1,
        "hand": "right"
      },
      {
        "midi": 74,
        "time": 41.25,
        "duration": 0.625,
        "velocity": 1,
        "hand": "right"
      },
      {
        "midi": 62,
        "time": 41.875,
        "duration": 0.625,
        "velocity": 1,
        "hand": "right"
      },
      {
        "midi": 65,
        "time": 41.875,
        "duration": 0.625,
        "velocity": 1,
        "hand": "right"
      },
      {
        "midi": 70,
        "time": 41.875,
        "duration": 0.625,
        "velocity": 1,
        "hand": "right"
      },
      {
        "midi": 46,
        "time": 42.5,
        "duration": 1.25,
        "velocity": 1,
        "hand": "left"
      },
      {
        "midi": 62,
        "time": 43.125,
        "duration": 0.625,
        "velocity": 1,
        "hand": "right"
      },
      {
        "midi": 65,
        "time": 43.125,
        "duration": 0.625,
        "velocity": 1,
        "hand": "right"
      },
      {
        "midi": 70,
        "time": 43.125,
        "duration": 0.61,
        "velocity": 1,
        "hand": "right"
      },
      {
        "midi": 70,
        "time": 43.75,
        "duration": 0.61,
        "velocity": 1,
        "hand": "right"
      },
      {
        "midi": 74,
        "time": 43.75,
        "duration": 1.235,
        "velocity": 1,
        "hand": "right"
      },
      {
        "midi": 62,
        "time": 44.375,
        "duration": 0.625,
        "velocity": 1,
        "hand": "right"
      },
      {
        "midi": 65,
        "time": 44.375,
        "duration": 0.625,
        "velocity": 1,
        "hand": "right"
      },
      {
        "midi": 70,
        "time": 44.375,
        "duration": 0.625,
        "velocity": 1,
        "hand": "right"
      },
      {
        "midi": 46,
        "time": 45,
        "duration": 1.25,
        "velocity": 1,
        "hand": "left"
      },
      {
        "midi": 74,
        "time": 45,
        "duration": 1.235,
        "velocity": 1,
        "hand": "right"
      },
      {
        "midi": 62,
        "time": 45.625,
        "duration": 0.625,
        "velocity": 1,
        "hand": "right"
      },
      {
        "midi": 66,
        "time": 45.625,
        "duration": 0.625,
        "velocity": 1,
        "hand": "right"
      },
      {
        "midi": 70,
        "time": 45.625,
        "duration": 0.61,
        "velocity": 1,
        "hand": "right"
      },
      {
        "midi": 70,
        "time": 46.25,
        "duration": 0.61,
        "velocity": 1,
        "hand": "right"
      },
      {
        "midi": 74,
        "time": 46.25,
        "duration": 0.625,
        "velocity": 1,
        "hand": "right"
      },
      {
        "midi": 62,
        "time": 46.875,
        "duration": 0.625,
        "velocity": 1,
        "hand": "right"
      },
      {
        "midi": 66,
        "time": 46.875,
        "duration": 0.625,
        "velocity": 1,
        "hand": "right"
      },
      {
        "midi": 70,
        "time": 46.875,
        "duration": 0.61,
        "velocity": 1,
        "hand": "right"
      },
      {
        "midi": 72,
        "time": 46.875,
        "duration": 0.625,
        "velocity": 1,
        "hand": "right"
      },
      {
        "midi": 46,
        "time": 47.5,
        "duration": 1.25,
        "velocity": 1,
        "hand": "left"
      },
      {
        "midi": 70,
        "time": 47.5,
        "duration": 0.61,
        "velocity": 1,
        "hand": "right"
      },
      {
        "midi": 62,
        "time": 48.125,
        "duration": 0.625,
        "velocity": 1,
        "hand": "right"
      },
      {
        "midi": 67,
        "time": 48.125,
        "duration": 0.625,
        "velocity": 1,
        "hand": "right"
      },
      {
        "midi": 70,
        "time": 48.125,
        "duration": 0.61,
        "velocity": 1,
        "hand": "right"
      },
      {
        "midi": 70,
        "time": 48.75,
        "duration": 0.61,
        "velocity": 1,
        "hand": "right"
      },
      {
        "midi": 74,
        "time": 48.75,
        "duration": 0.625,
        "velocity": 1,
        "hand": "right"
      },
      {
        "midi": 62,
        "time": 49.375,
        "duration": 0.625,
        "velocity": 1,
        "hand": "right"
      },
      {
        "midi": 67,
        "time": 49.375,
        "duration": 0.625,
        "velocity": 1,
        "hand": "right"
      },
      {
        "midi": 70,
        "time": 49.375,
        "duration": 0.625,
        "velocity": 1,
        "hand": "right"
      },
      {
        "midi": 76,
        "time": 49.375,
        "duration": 0.625,
        "velocity": 1,
        "hand": "right"
      },
      {
        "midi": 45,
        "time": 50,
        "duration": 1.25,
        "velocity": 1,
        "hand": "left"
      },
      {
        "midi": 74,
        "time": 50,
        "duration": 1.235,
        "velocity": 1,
        "hand": "right"
      },
      {
        "midi": 64,
        "time": 50.625,
        "duration": 0.625,
        "velocity": 1,
        "hand": "right"
      },
      {
        "midi": 67,
        "time": 50.625,
        "duration": 0.625,
        "velocity": 1,
        "hand": "right"
      },
      {
        "midi": 70,
        "time": 50.625,
        "duration": 0.61,
        "velocity": 1,
        "hand": "right"
      },
      {
        "midi": 70,
        "time": 51.25,
        "duration": 0.61,
        "velocity": 1,
        "hand": "right"
      },
      {
        "midi": 74,
        "time": 51.25,
        "duration": 0.625,
        "velocity": 1,
        "hand": "right"
      },
      {
        "midi": 64,
        "time": 51.875,
        "duration": 0.625,
        "velocity": 1,
        "hand": "right"
      },
      {
        "midi": 67,
        "time": 51.875,
        "duration": 0.625,
        "velocity": 1,
        "hand": "right"
      },
      {
        "midi": 70,
        "time": 51.875,
        "duration": 0.625,
        "velocity": 1,
        "hand": "right"
      },
      {
        "midi": 45,
        "time": 52.5,
        "duration": 1.25,
        "velocity": 1,
        "hand": "left"
      },
      {
        "midi": 73,
        "time": 52.5,
        "duration": 1.235,
        "velocity": 1,
        "hand": "right"
      },
      {
        "midi": 64,
        "time": 53.125,
        "duration": 0.625,
        "velocity": 1,
        "hand": "right"
      },
      {
        "midi": 67,
        "time": 53.125,
        "duration": 0.625,
        "velocity": 1,
        "hand": "right"
      },
      {
        "midi": 69,
        "time": 53.125,
        "duration": 0.61,
        "velocity": 1,
        "hand": "right"
      },
      {
        "midi": 69,
        "time": 53.75,
        "duration": 0.61,
        "velocity": 1,
        "hand": "right"
      },
      {
        "midi": 73,
        "time": 53.75,
        "duration": 0.625,
        "velocity": 1,
        "hand": "right"
      },
      {
        "midi": 64,
        "time": 54.375,
        "duration": 0.625,
        "velocity": 1,
        "hand": "right"
      },
      {
        "midi": 67,
        "time": 54.375,
        "duration": 0.625,
        "velocity": 1,
        "hand": "right"
      },
      {
        "midi": 69,
        "time": 54.375,
        "duration": 0.625,
        "velocity": 1,
        "hand": "right"
      },
      {
        "midi": 42,
        "time": 55,
        "duration": 1.25,
        "velocity": 1,
        "hand": "left"
      },
      {
        "midi": 72,
        "time": 55,
        "duration": 0.61,
        "velocity": 1,
        "hand": "right"
      },
      {
        "midi": 63,
        "time": 55.625,
        "duration": 0.625,
        "velocity": 1,
        "hand": "right"
      },
      {
        "midi": 69,
        "time": 55.625,
        "duration": 0.625,
        "velocity": 1,
        "hand": "right"
      },
      {
        "midi": 72,
        "time": 55.625,
        "duration": 0.61,
        "velocity": 1,
        "hand": "right"
      },
      {
        "midi": 72,
        "time": 56.25,
        "duration": 0.61,
        "velocity": 1,
        "hand": "right"
      },
      {
        "midi": 75,
        "time": 56.25,
        "duration": 0.625,
        "velocity": 1,
        "hand": "right"
      },
      {
        "midi": 63,
        "time": 56.875,
        "duration": 0.625,
        "velocity": 1,
        "hand": "right"
      },
      {
        "midi": 70,
        "time": 56.875,
        "duration": 0.625,
        "velocity": 1,
        "hand": "right"
      },
      {
        "midi": 72,
        "time": 56.875,
        "duration": 0.625,
        "velocity": 1,
        "hand": "right"
      },
      {
        "midi": 42,
        "time": 57.5,
        "duration": 1.25,
        "velocity": 1,
        "hand": "left"
      },
      {
        "midi": 69,
        "time": 57.5,
        "duration": 0.61,
        "velocity": 1,
        "hand": "right"
      },
      {
        "midi": 63,
        "time": 58.125,
        "duration": 0.625,
        "velocity": 1,
        "hand": "right"
      },
      {
        "midi": 69,
        "time": 58.125,
        "duration": 0.625,
        "velocity": 1,
        "hand": "right"
      },
      {
        "midi": 72,
        "time": 58.125,
        "duration": 0.61,
        "velocity": 1,
        "hand": "right"
      },
      {
        "midi": 74,
        "time": 58.125,
        "duration": 0.625,
        "velocity": 1,
        "hand": "right"
      },
      {
        "midi": 72,
        "time": 58.75,
        "duration": 0.61,
        "velocity": 1,
        "hand": "right"
      },
      {
        "midi": 75,
        "time": 58.75,
        "duration": 0.625,
        "velocity": 1,
        "hand": "right"
      },
      {
        "midi": 63,
        "time": 59.375,
        "duration": 0.625,
        "velocity": 1,
        "hand": "right"
      },
      {
        "midi": 69,
        "time": 59.375,
        "duration": 0.625,
        "velocity": 1,
        "hand": "right"
      },
      {
        "midi": 72,
        "time": 59.375,
        "duration": 0.625,
        "velocity": 1,
        "hand": "right"
      },
      {
        "midi": 43,
        "time": 60,
        "duration": 1.25,
        "velocity": 1,
        "hand": "left"
      },
      {
        "midi": 70,
        "time": 60,
        "duration": 0.61,
        "velocity": 1,
        "hand": "right"
      },
      {
        "midi": 62,
        "time": 60.625,
        "duration": 0.625,
        "velocity": 1,
        "hand": "right"
      },
      {
        "midi": 67,
        "time": 60.625,
        "duration": 0.625,
        "velocity": 1,
        "hand": "right"
      },
      {
        "midi": 70,
        "time": 60.625,
        "duration": 0.61,
        "velocity": 1,
        "hand": "right"
      },
      {
        "midi": 70,
        "time": 61.25,
        "duration": 0.61,
        "velocity": 1,
        "hand": "right"
      },
      {
        "midi": 74,
        "time": 61.25,
        "duration": 0.625,
        "velocity": 1,
        "hand": "right"
      },
      {
        "midi": 62,
        "time": 61.875,
        "duration": 0.625,
        "velocity": 1,
        "hand": "right"
      },
      {
        "midi": 67,
        "time": 61.875,
        "duration": 0.625,
        "velocity": 1,
        "hand": "right"
      },
      {
        "midi": 70,
        "time": 61.875,
        "duration": 0.625,
        "velocity": 1,
        "hand": "right"
      },
      {
        "midi": 43,
        "time": 62.5,
        "duration": 1.25,
        "velocity": 1,
        "hand": "left"
      },
      {
        "midi": 62,
        "time": 63.125,
        "duration": 0.625,
        "velocity": 1,
        "hand": "right"
      },
      {
        "midi": 64,
        "time": 63.125,
        "duration": 0.625,
        "velocity": 1,
        "hand": "right"
      },
      {
        "midi": 70,
        "time": 63.125,
        "duration": 0.61,
        "velocity": 1,
        "hand": "right"
      },
      {
        "midi": 70,
        "time": 63.75,
        "duration": 0.61,
        "velocity": 1,
        "hand": "right"
      },
      {
        "midi": 74,
        "time": 63.75,
        "duration": 0.625,
        "velocity": 1,
        "hand": "right"
      },
      {
        "midi": 62,
        "time": 64.375,
        "duration": 0.625,
        "velocity": 1,
        "hand": "right"
      },
      {
        "midi": 64,
        "time": 64.375,
        "duration": 0.625,
        "velocity": 1,
        "hand": "right"
      },
      {
        "midi": 70,
        "time": 64.375,
        "duration": 0.625,
        "velocity": 1,
        "hand": "right"
      },
      {
        "midi": 72,
        "time": 64.375,
        "duration": 0.61,
        "velocity": 1,
        "hand": "right"
      },
      {
        "midi": 45,
        "time": 65,
        "duration": 1.25,
        "velocity": 1,
        "hand": "left"
      },
      {
        "midi": 72,
        "time": 65,
        "duration": 1.235,
        "velocity": 1,
        "hand": "right"
      },
      {
        "midi": 60,
        "time": 65.625,
        "duration": 0.625,
        "velocity": 1,
        "hand": "right"
      },
      {
        "midi": 65,
        "time": 65.625,
        "duration": 0.625,
        "velocity": 1,
        "hand": "right"
      },
      {
        "midi": 69,
        "time": 65.625,
        "duration": 0.61,
        "velocity": 1,
        "hand": "right"
      },
      {
        "midi": 69,
        "time": 66.25,
        "duration": 0.61,
        "velocity": 1,
        "hand": "right"
      },
      {
        "midi": 72,
        "time": 66.25,
        "duration": 0.625,
        "velocity": 1,
        "hand": "right"
      },
      {
        "midi": 60,
        "time": 66.875,
        "duration": 0.625,
        "velocity": 1,
        "hand": "right"
      },
      {
        "midi": 65,
        "time": 66.875,
        "duration": 0.625,
        "velocity": 1,
        "hand": "right"
      },
      {
        "midi": 69,
        "time": 66.875,
        "duration": 0.625,
        "velocity": 1,
        "hand": "right"
      },
      {
        "midi": 38,
        "time": 67.5,
        "duration": 1.25,
        "velocity": 1,
        "hand": "left"
      },
      {
        "midi": 50,
        "time": 67.5,
        "duration": 1.25,
        "velocity": 1,
        "hand": "left"
      },
      {
        "midi": 67,
        "time": 67.5,
        "duration": 0.61,
        "velocity": 1,
        "hand": "right"
      },
      {
        "midi": 65,
        "time": 68.125,
        "duration": 0.625,
        "velocity": 1,
        "hand": "right"
      },
      {
        "midi": 67,
        "time": 68.125,
        "duration": 0.625,
        "velocity": 1,
        "hand": "right"
      },
      {
        "midi": 71,
        "time": 68.125,
        "duration": 0.61,
        "velocity": 1,
        "hand": "right"
      },
      {
        "midi": 74,
        "time": 68.125,
        "duration": 0.625,
        "velocity": 1,
        "hand": "right"
      },
      {
        "midi": 71,
        "time": 68.75,
        "duration": 0.61,
        "velocity": 1,
        "hand": "right"
      },
      {
        "midi": 77,
        "time": 68.75,
        "duration": 0.625,
        "velocity": 1,
        "hand": "right"
      },
      {
        "midi": 65,
        "time": 69.375,
        "duration": 0.625,
        "velocity": 1,
        "hand": "right"
      },
      {
        "midi": 67,
        "time": 69.375,
        "duration": 0.625,
        "velocity": 1,
        "hand": "right"
      },
      {
        "midi": 71,
        "time": 69.375,
        "duration": 0.625,
        "velocity": 1,
        "hand": "right"
      },
      {
        "midi": 74,
        "time": 69.375,
        "duration": 0.625,
        "velocity": 1,
        "hand": "right"
      },
      {
        "midi": 36,
        "time": 70,
        "duration": 1.25,
        "velocity": 1,
        "hand": "left"
      },
      {
        "midi": 48,
        "time": 70,
        "duration": 1.25,
        "velocity": 1,
        "hand": "left"
      },
      {
        "midi": 72,
        "time": 70,
        "duration": 0.61,
        "velocity": 1,
        "hand": "right"
      },
      {
        "midi": 65,
        "time": 70.625,
        "duration": 0.625,
        "velocity": 1,
        "hand": "right"
      },
      {
        "midi": 69,
        "time": 70.625,
        "duration": 0.625,
        "velocity": 1,
        "hand": "right"
      },
      {
        "midi": 72,
        "time": 70.625,
        "duration": 0.61,
        "velocity": 1,
        "hand": "right"
      },
      {
        "midi": 72,
        "time": 71.25,
        "duration": 0.61,
        "velocity": 1,
        "hand": "right"
      },
      {
        "midi": 77,
        "time": 71.25,
        "duration": 0.625,
        "velocity": 1,
        "hand": "right"
      },
      {
        "midi": 65,
        "time": 71.875,
        "duration": 0.625,
        "velocity": 1,
        "hand": "right"
      },
      {
        "midi": 69,
        "time": 71.875,
        "duration": 0.625,
        "velocity": 1,
        "hand": "right"
      },
      {
        "midi": 72,
        "time": 71.875,
        "duration": 0.625,
        "velocity": 1,
        "hand": "right"
      },
      {
        "midi": 36,
        "time": 72.5,
        "duration": 1.25,
        "velocity": 1,
        "hand": "left"
      },
      {
        "midi": 48,
        "time": 72.5,
        "duration": 1.25,
        "velocity": 1,
        "hand": "left"
      },
      {
        "midi": 67,
        "time": 73.125,
        "duration": 0.625,
        "velocity": 1,
        "hand": "right"
      },
      {
        "midi": 70,
        "time": 73.125,
        "duration": 0.61,
        "velocity": 1,
        "hand": "right"
      },
      {
        "midi": 72,
        "time": 73.125,
        "duration": 0.61,
        "velocity": 1,
        "hand": "right"
      },
      {
        "midi": 70,
        "time": 73.75,
        "duration": 0.313,
        "velocity": 1,
        "hand": "right"
      },
      {
        "midi": 72,
        "time": 73.75,
        "duration": 0.61,
        "velocity": 1,
        "hand": "right"
      },
      {
        "midi": 76,
        "time": 73.75,
        "duration": 0.625,
        "velocity": 1,
        "hand": "right"
      },
      {
        "midi": 67,
        "time": 74.375,
        "duration": 0.625,
        "velocity": 1,
        "hand": "right"
      },
      {
        "midi": 70,
        "time": 74.375,
        "duration": 0.625,
        "velocity": 1,
        "hand": "right"
      },
      {
        "midi": 72,
        "time": 74.375,
        "duration": 0.625,
        "velocity": 1,
        "hand": "right"
      },
      {
        "midi": 41,
        "time": 75,
        "duration": 1.25,
        "velocity": 1,
        "hand": "left"
      },
      {
        "midi": 53,
        "time": 75,
        "duration": 1.25,
        "velocity": 1,
        "hand": "left"
      },
      {
        "midi": 65,
        "time": 75,
        "duration": 0.61,
        "velocity": 1,
        "hand": "right"
      },
      {
        "midi": 65,
        "time": 75.625,
        "duration": 0.625,
        "velocity": 1,
        "hand": "right"
      },
      {
        "midi": 69,
        "time": 75.625,
        "duration": 0.625,
        "velocity": 1,
        "hand": "right"
      },
      {
        "midi": 72,
        "time": 75.625,
        "duration": 0.61,
        "velocity": 1,
        "hand": "right"
      },
      {
        "midi": 72,
        "time": 76.25,
        "duration": 0.61,
        "velocity": 1,
        "hand": "right"
      },
      {
        "midi": 77,
        "time": 76.25,
        "duration": 0.625,
        "velocity": 1,
        "hand": "right"
      },
      {
        "midi": 65,
        "time": 76.875,
        "duration": 0.625,
        "velocity": 1,
        "hand": "right"
      },
      {
        "midi": 69,
        "time": 76.875,
        "duration": 0.625,
        "velocity": 1,
        "hand": "right"
      },
      {
        "midi": 72,
        "time": 76.875,
        "duration": 0.625,
        "velocity": 1,
        "hand": "right"
      },
      {
        "midi": 41,
        "time": 77.5,
        "duration": 1.25,
        "velocity": 1,
        "hand": "left"
      },
      {
        "midi": 53,
        "time": 77.5,
        "duration": 1.25,
        "velocity": 1,
        "hand": "left"
      },
      {
        "midi": 65,
        "time": 78.125,
        "duration": 0.61,
        "velocity": 1,
        "hand": "right"
      },
      {
        "midi": 69,
        "time": 78.125,
        "duration": 0.625,
        "velocity": 1,
        "hand": "right"
      },
      {
        "midi": 72,
        "time": 78.125,
        "duration": 0.61,
        "velocity": 1,
        "hand": "right"
      },
      {
        "midi": 65,
        "time": 78.75,
        "duration": 0.61,
        "velocity": 1,
        "hand": "right"
      },
      {
        "midi": 72,
        "time": 78.75,
        "duration": 0.61,
        "velocity": 1,
        "hand": "right"
      },
      {
        "midi": 77,
        "time": 78.75,
        "duration": 0.625,
        "velocity": 1,
        "hand": "right"
      },
      {
        "midi": 65,
        "time": 79.375,
        "duration": 0.625,
        "velocity": 1,
        "hand": "right"
      },
      {
        "midi": 69,
        "time": 79.375,
        "duration": 0.625,
        "velocity": 1,
        "hand": "right"
      },
      {
        "midi": 72,
        "time": 79.375,
        "duration": 0.61,
        "velocity": 1,
        "hand": "right"
      },
      {
        "midi": 41,
        "time": 80,
        "duration": 1.25,
        "velocity": 1,
        "hand": "left"
      },
      {
        "midi": 53,
        "time": 80,
        "duration": 1.25,
        "velocity": 1,
        "hand": "left"
      },
      {
        "midi": 72,
        "time": 80,
        "duration": 0.61,
        "velocity": 1,
        "hand": "right"
      },
      {
        "midi": 63,
        "time": 80.625,
        "duration": 0.625,
        "velocity": 1,
        "hand": "right"
      },
      {
        "midi": 69,
        "time": 80.625,
        "duration": 0.625,
        "velocity": 1,
        "hand": "right"
      },
      {
        "midi": 72,
        "time": 80.625,
        "duration": 0.61,
        "velocity": 1,
        "hand": "right"
      },
      {
        "midi": 72,
        "time": 81.25,
        "duration": 0.61,
        "velocity": 1,
        "hand": "right"
      },
      {
        "midi": 77,
        "time": 81.25,
        "duration": 0.625,
        "velocity": 1,
        "hand": "right"
      },
      {
        "midi": 63,
        "time": 81.875,
        "duration": 0.625,
        "velocity": 1,
        "hand": "right"
      },
      {
        "midi": 69,
        "time": 81.875,
        "duration": 0.625,
        "velocity": 1,
        "hand": "right"
      },
      {
        "midi": 72,
        "time": 81.875,
        "duration": 0.61,
        "velocity": 1,
        "hand": "right"
      },
      {
        "midi": 41,
        "time": 82.5,
        "duration": 1.25,
        "velocity": 1,
        "hand": "left"
      },
      {
        "midi": 53,
        "time": 82.5,
        "duration": 1.25,
        "velocity": 1,
        "hand": "left"
      },
      {
        "midi": 72,
        "time": 82.5,
        "duration": 0.61,
        "velocity": 1,
        "hand": "right"
      },
      {
        "midi": 63,
        "time": 83.125,
        "duration": 0.625,
        "velocity": 1,
        "hand": "right"
      },
      {
        "midi": 69,
        "time": 83.125,
        "duration": 0.625,
        "velocity": 1,
        "hand": "right"
      },
      {
        "midi": 72,
        "time": 83.125,
        "duration": 0.61,
        "velocity": 1,
        "hand": "right"
      },
      {
        "midi": 72,
        "time": 83.75,
        "duration": 0.61,
        "velocity": 1,
        "hand": "right"
      },
      {
        "midi": 77,
        "time": 83.75,
        "duration": 0.625,
        "velocity": 1,
        "hand": "right"
      },
      {
        "midi": 63,
        "time": 84.375,
        "duration": 0.625,
        "velocity": 1,
        "hand": "right"
      },
      {
        "midi": 69,
        "time": 84.375,
        "duration": 0.625,
        "velocity": 1,
        "hand": "right"
      },
      {
        "midi": 72,
        "time": 84.375,
        "duration": 0.61,
        "velocity": 1,
        "hand": "right"
      },
      {
        "midi": 41,
        "time": 85,
        "duration": 1.25,
        "velocity": 1,
        "hand": "left"
      },
      {
        "midi": 53,
        "time": 85,
        "duration": 1.25,
        "velocity": 1,
        "hand": "left"
      },
      {
        "midi": 72,
        "time": 85,
        "duration": 1.25,
        "velocity": 1,
        "hand": "right"
      },
      {
        "midi": 74,
        "time": 85,
        "duration": 0.61,
        "velocity": 1,
        "hand": "right"
      },
      {
        "midi": 62,
        "time": 85.625,
        "duration": 0.625,
        "velocity": 1,
        "hand": "right"
      },
      {
        "midi": 70,
        "time": 85.625,
        "duration": 0.61,
        "velocity": 1,
        "hand": "right"
      },
      {
        "midi": 74,
        "time": 85.625,
        "duration": 0.61,
        "velocity": 1,
        "hand": "right"
      },
      {
        "midi": 70,
        "time": 86.25,
        "duration": 0.61,
        "velocity": 1,
        "hand": "right"
      },
      {
        "midi": 74,
        "time": 86.25,
        "duration": 0.61,
        "velocity": 1,
        "hand": "right"
      },
      {
        "midi": 77,
        "time": 86.25,
        "duration": 0.625,
        "velocity": 1,
        "hand": "right"
      },
      {
        "midi": 62,
        "time": 86.875,
        "duration": 0.625,
        "velocity": 1,
        "hand": "right"
      },
      {
        "midi": 70,
        "time": 86.875,
        "duration": 0.625,
        "velocity": 1,
        "hand": "right"
      },
      {
        "midi": 74,
        "time": 86.875,
        "duration": 0.625,
        "velocity": 1,
        "hand": "right"
      },
      {
        "midi": 41,
        "time": 87.5,
        "duration": 1.25,
        "velocity": 1,
        "hand": "left"
      },
      {
        "midi": 53,
        "time": 87.5,
        "duration": 1.25,
        "velocity": 1,
        "hand": "left"
      },
      {
        "midi": 62,
        "time": 88.125,
        "duration": 0.625,
        "velocity": 1,
        "hand": "right"
      },
      {
        "midi": 70,
        "time": 88.125,
        "duration": 0.61,
        "velocity": 1,
        "hand": "right"
      },
      {
        "midi": 74,
        "time": 88.125,
        "duration": 0.61,
        "velocity": 1,
        "hand": "right"
      },
      {
        "midi": 70,
        "time": 88.75,
        "duration": 0.61,
        "velocity": 1,
        "hand": "right"
      },
      {
        "midi": 74,
        "time": 88.75,
        "duration": 0.61,
        "velocity": 1,
        "hand": "right"
      },
      {
        "midi": 77,
        "time": 88.75,
        "duration": 0.625,
        "velocity": 1,
        "hand": "right"
      },
      {
        "midi": 62,
        "time": 89.375,
        "duration": 0.625,
        "velocity": 1,
        "hand": "right"
      },
      {
        "midi": 70,
        "time": 89.375,
        "duration": 0.625,
        "velocity": 1,
        "hand": "right"
      },
      {
        "midi": 74,
        "time": 89.375,
        "duration": 0.625,
        "velocity": 1,
        "hand": "right"
      },
      {
        "midi": 41,
        "time": 90,
        "duration": 1.25,
        "velocity": 1,
        "hand": "left"
      },
      {
        "midi": 53,
        "time": 90,
        "duration": 1.25,
        "velocity": 1,
        "hand": "left"
      },
      {
        "midi": 72,
        "time": 90,
        "duration": 0.61,
        "velocity": 1,
        "hand": "right"
      },
      {
        "midi": 63,
        "time": 90.625,
        "duration": 0.625,
        "velocity": 1,
        "hand": "right"
      },
      {
        "midi": 69,
        "time": 90.625,
        "duration": 0.625,
        "velocity": 1,
        "hand": "right"
      },
      {
        "midi": 72,
        "time": 90.625,
        "duration": 0.61,
        "velocity": 1,
        "hand": "right"
      },
      {
        "midi": 72,
        "time": 91.25,
        "duration": 0.61,
        "velocity": 1,
        "hand": "right"
      },
      {
        "midi": 77,
        "time": 91.25,
        "duration": 0.625,
        "velocity": 1,
        "hand": "right"
      },
      {
        "midi": 63,
        "time": 91.875,
        "duration": 0.625,
        "velocity": 1,
        "hand": "right"
      },
      {
        "midi": 69,
        "time": 91.875,
        "duration": 0.625,
        "velocity": 1,
        "hand": "right"
      },
      {
        "midi": 72,
        "time": 91.875,
        "duration": 0.61,
        "velocity": 1,
        "hand": "right"
      },
      {
        "midi": 41,
        "time": 92.5,
        "duration": 1.25,
        "velocity": 1,
        "hand": "left"
      },
      {
        "midi": 53,
        "time": 92.5,
        "duration": 1.25,
        "velocity": 1,
        "hand": "left"
      },
      {
        "midi": 72,
        "time": 92.5,
        "duration": 0.61,
        "velocity": 1,
        "hand": "right"
      },
      {
        "midi": 63,
        "time": 93.125,
        "duration": 0.625,
        "velocity": 1,
        "hand": "right"
      },
      {
        "midi": 69,
        "time": 93.125,
        "duration": 0.625,
        "velocity": 1,
        "hand": "right"
      },
      {
        "midi": 72,
        "time": 93.125,
        "duration": 0.61,
        "velocity": 1,
        "hand": "right"
      },
      {
        "midi": 72,
        "time": 93.75,
        "duration": 0.61,
        "velocity": 1,
        "hand": "right"
      },
      {
        "midi": 75,
        "time": 93.75,
        "duration": 0.625,
        "velocity": 1,
        "hand": "right"
      },
      {
        "midi": 77,
        "time": 93.75,
        "duration": 0.625,
        "velocity": 1,
        "hand": "right"
      },
      {
        "midi": 63,
        "time": 94.375,
        "duration": 0.625,
        "velocity": 1,
        "hand": "right"
      },
      {
        "midi": 69,
        "time": 94.375,
        "duration": 0.625,
        "velocity": 1,
        "hand": "right"
      },
      {
        "midi": 72,
        "time": 94.375,
        "duration": 0.625,
        "velocity": 1,
        "hand": "right"
      },
      {
        "midi": 74,
        "time": 94.375,
        "duration": 0.625,
        "velocity": 1,
        "hand": "right"
      },
      {
        "midi": 43,
        "time": 95,
        "duration": 1.25,
        "velocity": 1,
        "hand": "left"
      },
      {
        "midi": 55,
        "time": 95,
        "duration": 1.25,
        "velocity": 1,
        "hand": "left"
      },
      {
        "midi": 70,
        "time": 95,
        "duration": 0.61,
        "velocity": 1,
        "hand": "right"
      },
      {
        "midi": 62,
        "time": 95.625,
        "duration": 0.625,
        "velocity": 1,
        "hand": "right"
      },
      {
        "midi": 67,
        "time": 95.625,
        "duration": 0.625,
        "velocity": 1,
        "hand": "right"
      },
      {
        "midi": 70,
        "time": 95.625,
        "duration": 0.61,
        "velocity": 1,
        "hand": "right"
      },
      {
        "midi": 70,
        "time": 96.25,
        "duration": 0.61,
        "velocity": 1,
        "hand": "right"
      },
      {
        "midi": 74,
        "time": 96.25,
        "duration": 0.625,
        "velocity": 1,
        "hand": "right"
      },
      {
        "midi": 62,
        "time": 96.875,
        "duration": 0.625,
        "velocity": 1,
        "hand": "right"
      },
      {
        "midi": 67,
        "time": 96.875,
        "duration": 0.625,
        "velocity": 1,
        "hand": "right"
      },
      {
        "midi": 70,
        "time": 96.875,
        "duration": 0.625,
        "velocity": 1,
        "hand": "right"
      },
      {
        "midi": 43,
        "time": 97.5,
        "duration": 1.25,
        "velocity": 1,
        "hand": "left"
      },
      {
        "midi": 55,
        "time": 97.5,
        "duration": 1.25,
        "velocity": 1,
        "hand": "left"
      },
      {
        "midi": 58,
        "time": 98.125,
        "duration": 0.625,
        "velocity": 1,
        "hand": "left"
      },
      {
        "midi": 62,
        "time": 98.125,
        "duration": 0.625,
        "velocity": 1,
        "hand": "right"
      },
      {
        "midi": 67,
        "time": 98.125,
        "duration": 0.61,
        "velocity": 1,
        "hand": "right"
      },
      {
        "midi": 67,
        "time": 98.75,
        "duration": 0.61,
        "velocity": 1,
        "hand": "right"
      },
      {
        "midi": 70,
        "time": 98.75,
        "duration": 1.25,
        "velocity": 1,
        "hand": "right"
      },
      {
        "midi": 58,
        "time": 99.375,
        "duration": 0.625,
        "velocity": 1,
        "hand": "left"
      },
      {
        "midi": 62,
        "time": 99.375,
        "duration": 0.625,
        "velocity": 1,
        "hand": "right"
      },
      {
        "midi": 67,
        "time": 99.375,
        "duration": 0.625,
        "velocity": 1,
        "hand": "right"
      },
      {
        "midi": 41,
        "time": 100,
        "duration": 1.25,
        "velocity": 1,
        "hand": "left"
      },
      {
        "midi": 53,
        "time": 100,
        "duration": 1.25,
        "velocity": 1,
        "hand": "left"
      },
      {
        "midi": 72,
        "time": 100,
        "duration": 1.235,
        "velocity": 1,
        "hand": "right"
      },
      {
        "midi": 60,
        "time": 100.625,
        "duration": 0.625,
        "velocity": 1,
        "hand": "right"
      },
      {
        "midi": 65,
        "time": 100.625,
        "duration": 0.625,
        "velocity": 1,
        "hand": "right"
      },
      {
        "midi": 69,
        "time": 100.625,
        "duration": 0.61,
        "velocity": 1,
        "hand": "right"
      },
      {
        "midi": 69,
        "time": 101.25,
        "duration": 0.61,
        "velocity": 1,
        "hand": "right"
      },
      {
        "midi": 72,
        "time": 101.25,
        "duration": 0.61,
        "velocity": 1,
        "hand": "right"
      },
      {
        "midi": 60,
        "time": 101.875,
        "duration": 0.625,
        "velocity": 1,
        "hand": "right"
      },
      {
        "midi": 65,
        "time": 101.875,
        "duration": 0.625,
        "velocity": 1,
        "hand": "right"
      },
      {
        "midi": 69,
        "time": 101.875,
        "duration": 0.625,
        "velocity": 1,
        "hand": "right"
      },
      {
        "midi": 72,
        "time": 101.875,
        "duration": 0.625,
        "velocity": 1,
        "hand": "right"
      },
      {
        "midi": 38,
        "time": 102.5,
        "duration": 1.25,
        "velocity": 1,
        "hand": "left"
      },
      {
        "midi": 50,
        "time": 102.5,
        "duration": 1.25,
        "velocity": 1,
        "hand": "left"
      },
      {
        "midi": 74,
        "time": 102.5,
        "duration": 1.235,
        "velocity": 1,
        "hand": "right"
      },
      {
        "midi": 62,
        "time": 103.125,
        "duration": 0.625,
        "velocity": 1,
        "hand": "right"
      },
      {
        "midi": 66,
        "time": 103.125,
        "duration": 0.625,
        "velocity": 1,
        "hand": "right"
      },
      {
        "midi": 69,
        "time": 103.125,
        "duration": 0.61,
        "velocity": 1,
        "hand": "right"
      },
      {
        "midi": 69,
        "time": 103.75,
        "duration": 0.61,
        "velocity": 1,
        "hand": "right"
      },
      {
        "midi": 75,
        "time": 103.75,
        "duration": 0.313,
        "velocity": 1,
        "hand": "right"
      },
      {
        "midi": 66,
        "time": 104.375,
        "duration": 0.625,
        "velocity": 1,
        "hand": "right"
      },
      {
        "midi": 69,
        "time": 104.375,
        "duration": 0.625,
        "velocity": 1,
        "hand": "right"
      },
      {
        "midi": 72,
        "time": 104.375,
        "duration": 0.625,
        "velocity": 1,
        "hand": "right"
      },
      {
        "midi": 74,
        "time": 104.375,
        "duration": 0.313,
        "velocity": 1,
        "hand": "right"
      },
      {
        "midi": 36,
        "time": 105,
        "duration": 1.25,
        "velocity": 1,
        "hand": "left"
      },
      {
        "midi": 48,
        "time": 105,
        "duration": 1.25,
        "velocity": 1,
        "hand": "left"
      },
      {
        "midi": 75,
        "time": 105,
        "duration": 1.235,
        "velocity": 1,
        "hand": "right"
      },
      {
        "midi": 77,
        "time": 105,
        "duration": 0.313,
        "velocity": 1,
        "hand": "right"
      },
      {
        "midi": 63,
        "time": 105.625,
        "duration": 0.625,
        "velocity": 1,
        "hand": "right"
      },
      {
        "midi": 67,
        "time": 105.625,
        "duration": 0.625,
        "velocity": 1,
        "hand": "right"
      },
      {
        "midi": 72,
        "time": 105.625,
        "duration": 0.61,
        "velocity": 1,
        "hand": "right"
      },
      {
        "midi": 72,
        "time": 106.25,
        "duration": 0.61,
        "velocity": 1,
        "hand": "right"
      },
      {
        "midi": 75,
        "time": 106.25,
        "duration": 1.25,
        "velocity": 1,
        "hand": "right"
      },
      {
        "midi": 63,
        "time": 106.875,
        "duration": 0.625,
        "velocity": 1,
        "hand": "right"
      },
      {
        "midi": 67,
        "time": 106.875,
        "duration": 0.625,
        "velocity": 1,
        "hand": "right"
      },
      {
        "midi": 72,
        "time": 106.875,
        "duration": 0.625,
        "velocity": 1,
        "hand": "right"
      },
      {
        "midi": 36,
        "time": 107.5,
        "duration": 1.25,
        "velocity": 1,
        "hand": "left"
      },
      {
        "midi": 48,
        "time": 107.5,
        "duration": 1.25,
        "velocity": 1,
        "hand": "left"
      },
      {
        "midi": 63,
        "time": 108.125,
        "duration": 0.625,
        "velocity": 1,
        "hand": "right"
      },
      {
        "midi": 67,
        "time": 108.125,
        "duration": 0.625,
        "velocity": 1,
        "hand": "right"
      },
      {
        "midi": 72,
        "time": 108.125,
        "duration": 0.61,
        "velocity": 1,
        "hand": "right"
      },
      {
        "midi": 72,
        "time": 108.75,
        "duration": 0.61,
        "velocity": 1,
        "hand": "right"
      },
      {
        "midi": 75,
        "time": 108.75,
        "duration": 0.625,
        "velocity": 1,
        "hand": "right"
      },
      {
        "midi": 63,
        "time": 109.375,
        "duration": 0.625,
        "velocity": 1,
        "hand": "right"
      },
      {
        "midi": 67,
        "time": 109.375,
        "duration": 0.625,
        "velocity": 1,
        "hand": "right"
      },
      {
        "midi": 72,
        "time": 109.375,
        "duration": 0.61,
        "velocity": 1,
        "hand": "right"
      },
      {
        "midi": 39,
        "time": 110,
        "duration": 1.25,
        "velocity": 1,
        "hand": "left"
      },
      {
        "midi": 51,
        "time": 110,
        "duration": 1.25,
        "velocity": 1,
        "hand": "left"
      },
      {
        "midi": 72,
        "time": 110,
        "duration": 1.235,
        "velocity": 1,
        "hand": "right"
      },
      {
        "midi": 74,
        "time": 110,
        "duration": 0.313,
        "velocity": 1,
        "hand": "right"
      },
      {
        "midi": 60,
        "time": 110.625,
        "duration": 0.625,
        "velocity": 1,
        "hand": "right"
      },
      {
        "midi": 63,
        "time": 110.625,
        "duration": 0.625,
        "velocity": 1,
        "hand": "right"
      },
      {
        "midi": 67,
        "time": 110.625,
        "duration": 0.61,
        "velocity": 1,
        "hand": "right"
      },
      {
        "midi": 67,
        "time": 111.25,
        "duration": 0.61,
        "velocity": 1,
        "hand": "right"
      },
      {
        "midi": 72,
        "time": 111.25,
        "duration": 0.61,
        "velocity": 1,
        "hand": "right"
      },
      {
        "midi": 60,
        "time": 111.875,
        "duration": 0.625,
        "velocity": 1,
        "hand": "right"
      },
      {
        "midi": 63,
        "time": 111.875,
        "duration": 0.625,
        "velocity": 1,
        "hand": "right"
      },
      {
        "midi": 67,
        "time": 111.875,
        "duration": 0.625,
        "velocity": 1,
        "hand": "right"
      },
      {
        "midi": 72,
        "time": 111.875,
        "duration": 0.625,
        "velocity": 1,
        "hand": "right"
      },
      {
        "midi": 43,
        "time": 112.5,
        "duration": 1.25,
        "velocity": 1,
        "hand": "left"
      },
      {
        "midi": 55,
        "time": 112.5,
        "duration": 1.25,
        "velocity": 1,
        "hand": "left"
      },
      {
        "midi": 70,
        "time": 112.5,
        "duration": 0.61,
        "velocity": 1,
        "hand": "right"
      },
      {
        "midi": 61,
        "time": 113.125,
        "duration": 0.625,
        "velocity": 1,
        "hand": "right"
      },
      {
        "midi": 64,
        "time": 113.125,
        "duration": 0.625,
        "velocity": 1,
        "hand": "right"
      },
      {
        "midi": 70,
        "time": 113.125,
        "duration": 0.61,
        "velocity": 1,
        "hand": "right"
      },
      {
        "midi": 70,
        "time": 113.75,
        "duration": 0.61,
        "velocity": 1,
        "hand": "right"
      },
      {
        "midi": 73,
        "time": 113.75,
        "duration": 0.625,
        "velocity": 1,
        "hand": "right"
      },
      {
        "midi": 61,
        "time": 114.375,
        "duration": 0.625,
        "velocity": 1,
        "hand": "right"
      },
      {
        "midi": 64,
        "time": 114.375,
        "duration": 0.625,
        "velocity": 1,
        "hand": "right"
      },
      {
        "midi": 70,
        "time": 114.375,
        "duration": 0.625,
        "velocity": 1,
        "hand": "right"
      },
      {
        "midi": 72,
        "time": 114.375,
        "duration": 0.61,
        "velocity": 1,
        "hand": "right"
      },
      {
        "midi": 41,
        "time": 115,
        "duration": 1.25,
        "velocity": 1,
        "hand": "left"
      },
      {
        "midi": 53,
        "time": 115,
        "duration": 1.25,
        "velocity": 1,
        "hand": "left"
      },
      {
        "midi": 72,
        "time": 115,
        "duration": 1.235,
        "velocity": 1,
        "hand": "right"
      },
      {
        "midi": 60,
        "time": 115.625,
        "duration": 0.625,
        "velocity": 1,
        "hand": "right"
      },
      {
        "midi": 65,
        "time": 115.625,
        "duration": 0.625,
        "velocity": 1,
        "hand": "right"
      },
      {
        "midi": 69,
        "time": 115.625,
        "duration": 0.61,
        "velocity": 1,
        "hand": "right"
      },
      {
        "midi": 69,
        "time": 116.25,
        "duration": 0.61,
        "velocity": 1,
        "hand": "right"
      },
      {
        "midi": 72,
        "time": 116.25,
        "duration": 0.625,
        "velocity": 1,
        "hand": "right"
      },
      {
        "midi": 60,
        "time": 116.875,
        "duration": 0.625,
        "velocity": 1,
        "hand": "right"
      },
      {
        "midi": 65,
        "time": 116.875,
        "duration": 0.625,
        "velocity": 1,
        "hand": "right"
      },
      {
        "midi": 69,
        "time": 116.875,
        "duration": 0.625,
        "velocity": 1,
        "hand": "right"
      },
      {
        "midi": 41,
        "time": 117.5,
        "duration": 1.25,
        "velocity": 1,
        "hand": "left"
      },
      {
        "midi": 53,
        "time": 117.5,
        "duration": 1.25,
        "velocity": 1,
        "hand": "left"
      },
      {
        "midi": 63,
        "time": 118.125,
        "duration": 0.625,
        "velocity": 1,
        "hand": "right"
      },
      {
        "midi": 65,
        "time": 118.125,
        "duration": 0.625,
        "velocity": 1,
        "hand": "right"
      },
      {
        "midi": 69,
        "time": 118.125,
        "duration": 0.61,
        "velocity": 1,
        "hand": "right"
      },
      {
        "midi": 69,
        "time": 118.75,
        "duration": 0.61,
        "velocity": 1,
        "hand": "right"
      },
      {
        "midi": 72,
        "time": 118.75,
        "duration": 0.625,
        "velocity": 1,
        "hand": "right"
      },
      {
        "midi": 63,
        "time": 119.375,
        "duration": 0.625,
        "velocity": 1,
        "hand": "right"
      },
      {
        "midi": 65,
        "time": 119.375,
        "duration": 0.625,
        "velocity": 1,
        "hand": "right"
      },
      {
        "midi": 69,
        "time": 119.375,
        "duration": 0.625,
        "velocity": 1,
        "hand": "right"
      },
      {
        "midi": 46,
        "time": 120,
        "duration": 1.25,
        "velocity": 1,
        "hand": "left"
      },
      {
        "midi": 70,
        "time": 120,
        "duration": 0.61,
        "velocity": 1,
        "hand": "right"
      },
      {
        "midi": 62,
        "time": 120.625,
        "duration": 0.625,
        "velocity": 1,
        "hand": "right"
      },
      {
        "midi": 65,
        "time": 120.625,
        "duration": 0.625,
        "velocity": 1,
        "hand": "right"
      },
      {
        "midi": 70,
        "time": 120.625,
        "duration": 0.61,
        "velocity": 1,
        "hand": "right"
      },
      {
        "midi": 70,
        "time": 121.25,
        "duration": 0.61,
        "velocity": 1,
        "hand": "right"
      },
      {
        "midi": 74,
        "time": 121.25,
        "duration": 0.625,
        "velocity": 1,
        "hand": "right"
      },
      {
        "midi": 62,
        "time": 121.875,
        "duration": 0.625,
        "velocity": 1,
        "hand": "right"
      },
      {
        "midi": 65,
        "time": 121.875,
        "duration": 0.625,
        "velocity": 1,
        "hand": "right"
      },
      {
        "midi": 70,
        "time": 121.875,
        "duration": 0.625,
        "velocity": 1,
        "hand": "right"
      },
      {
        "midi": 43,
        "time": 122.5,
        "duration": 1.25,
        "velocity": 1,
        "hand": "left"
      },
      {
        "midi": 62,
        "time": 123.125,
        "duration": 0.625,
        "velocity": 1,
        "hand": "right"
      },
      {
        "midi": 64,
        "time": 123.125,
        "duration": 0.625,
        "velocity": 1,
        "hand": "right"
      },
      {
        "midi": 70,
        "time": 123.125,
        "duration": 0.61,
        "velocity": 1,
        "hand": "right"
      },
      {
        "midi": 70,
        "time": 123.75,
        "duration": 0.61,
        "velocity": 1,
        "hand": "right"
      },
      {
        "midi": 74,
        "time": 123.75,
        "duration": 0.625,
        "velocity": 1,
        "hand": "right"
      },
      {
        "midi": 62,
        "time": 124.375,
        "duration": 0.625,
        "velocity": 1,
        "hand": "right"
      },
      {
        "midi": 64,
        "time": 124.375,
        "duration": 0.625,
        "velocity": 1,
        "hand": "right"
      },
      {
        "midi": 70,
        "time": 124.375,
        "duration": 0.625,
        "velocity": 1,
        "hand": "right"
      },
      {
        "midi": 41,
        "time": 125,
        "duration": 1.25,
        "velocity": 1,
        "hand": "left"
      },
      {
        "midi": 74,
        "time": 125,
        "duration": 1.235,
        "velocity": 1,
        "hand": "right"
      },
      {
        "midi": 62,
        "time": 125.625,
        "duration": 0.625,
        "velocity": 1,
        "hand": "right"
      },
      {
        "midi": 65,
        "time": 125.625,
        "duration": 0.625,
        "velocity": 1,
        "hand": "right"
      },
      {
        "midi": 70,
        "time": 125.625,
        "duration": 0.61,
        "velocity": 1,
        "hand": "right"
      },
      {
        "midi": 70,
        "time": 126.25,
        "duration": 0.61,
        "velocity": 1,
        "hand": "right"
      },
      {
        "midi": 74,
        "time": 126.25,
        "duration": 0.625,
        "velocity": 1,
        "hand": "right"
      },
      {
        "midi": 62,
        "time": 126.875,
        "duration": 0.625,
        "velocity": 1,
        "hand": "right"
      },
      {
        "midi": 65,
        "time": 126.875,
        "duration": 0.625,
        "velocity": 1,
        "hand": "right"
      },
      {
        "midi": 70,
        "time": 126.875,
        "duration": 0.625,
        "velocity": 1,
        "hand": "right"
      },
      {
        "midi": 41,
        "time": 127.5,
        "duration": 1.25,
        "velocity": 1,
        "hand": "left"
      },
      {
        "midi": 63,
        "time": 128.125,
        "duration": 0.625,
        "velocity": 1,
        "hand": "right"
      },
      {
        "midi": 65,
        "time": 128.125,
        "duration": 0.625,
        "velocity": 1,
        "hand": "right"
      },
      {
        "midi": 69,
        "time": 128.125,
        "duration": 0.61,
        "velocity": 1,
        "hand": "right"
      },
      {
        "midi": 69,
        "time": 128.75,
        "duration": 0.61,
        "velocity": 1,
        "hand": "right"
      },
      {
        "midi": 72,
        "time": 128.75,
        "duration": 0.61,
        "velocity": 1,
        "hand": "right"
      },
      {
        "midi": 63,
        "time": 129.375,
        "duration": 0.625,
        "velocity": 1,
        "hand": "right"
      },
      {
        "midi": 65,
        "time": 129.375,
        "duration": 0.625,
        "velocity": 1,
        "hand": "right"
      },
      {
        "midi": 69,
        "time": 129.375,
        "duration": 0.625,
        "velocity": 1,
        "hand": "right"
      },
      {
        "midi": 72,
        "time": 129.375,
        "duration": 0.625,
        "velocity": 1,
        "hand": "right"
      },
      {
        "midi": 46,
        "time": 130,
        "duration": 1.25,
        "velocity": 1,
        "hand": "left"
      },
      {
        "midi": 70,
        "time": 130,
        "duration": 0.61,
        "velocity": 1,
        "hand": "right"
      },
      {
        "midi": 62,
        "time": 130.625,
        "duration": 0.625,
        "velocity": 1,
        "hand": "right"
      },
      {
        "midi": 65,
        "time": 130.625,
        "duration": 0.625,
        "velocity": 1,
        "hand": "right"
      },
      {
        "midi": 70,
        "time": 130.625,
        "duration": 0.61,
        "velocity": 1,
        "hand": "right"
      },
      {
        "midi": 70,
        "time": 131.25,
        "duration": 0.61,
        "velocity": 1,
        "hand": "right"
      },
      {
        "midi": 74,
        "time": 131.25,
        "duration": 0.625,
        "velocity": 1,
        "hand": "right"
      },
      {
        "midi": 62,
        "time": 131.875,
        "duration": 0.625,
        "velocity": 1,
        "hand": "right"
      },
      {
        "midi": 65,
        "time": 131.875,
        "duration": 0.625,
        "velocity": 1,
        "hand": "right"
      },
      {
        "midi": 70,
        "time": 131.875,
        "duration": 0.625,
        "velocity": 1,
        "hand": "right"
      },
      {
        "midi": 46,
        "time": 132.5,
        "duration": 1.25,
        "velocity": 1,
        "hand": "left"
      },
      {
        "midi": 62,
        "time": 133.125,
        "duration": 0.625,
        "velocity": 1,
        "hand": "right"
      },
      {
        "midi": 65,
        "time": 133.125,
        "duration": 0.625,
        "velocity": 1,
        "hand": "right"
      },
      {
        "midi": 70,
        "time": 133.125,
        "duration": 0.61,
        "velocity": 1,
        "hand": "right"
      },
      {
        "midi": 70,
        "time": 133.75,
        "duration": 0.61,
        "velocity": 1,
        "hand": "right"
      },
      {
        "midi": 74,
        "time": 133.75,
        "duration": 0.625,
        "velocity": 1,
        "hand": "right"
      },
      {
        "midi": 62,
        "time": 134.375,
        "duration": 0.625,
        "velocity": 1,
        "hand": "right"
      },
      {
        "midi": 65,
        "time": 134.375,
        "duration": 0.625,
        "velocity": 1,
        "hand": "right"
      },
      {
        "midi": 70,
        "time": 134.375,
        "duration": 0.625,
        "velocity": 1,
        "hand": "right"
      },
      {
        "midi": 46,
        "time": 135,
        "duration": 1.25,
        "velocity": 1,
        "hand": "left"
      },
      {
        "midi": 65,
        "time": 135.625,
        "duration": 0.625,
        "velocity": 1,
        "hand": "right"
      },
      {
        "midi": 70,
        "time": 135.625,
        "duration": 0.625,
        "velocity": 1,
        "hand": "right"
      },
      {
        "midi": 74,
        "time": 135.625,
        "duration": 0.61,
        "velocity": 1,
        "hand": "right"
      },
      {
        "midi": 74,
        "time": 136.25,
        "duration": 0.61,
        "velocity": 1,
        "hand": "right"
      },
      {
        "midi": 77,
        "time": 136.25,
        "duration": 0.625,
        "velocity": 1,
        "hand": "right"
      },
      {
        "midi": 65,
        "time": 136.875,
        "duration": 0.625,
        "velocity": 1,
        "hand": "right"
      },
      {
        "midi": 70,
        "time": 136.875,
        "duration": 0.625,
        "velocity": 1,
        "hand": "right"
      },
      {
        "midi": 74,
        "time": 136.875,
        "duration": 0.625,
        "velocity": 1,
        "hand": "right"
      },
      {
        "midi": 46,
        "time": 137.5,
        "duration": 1.25,
        "velocity": 1,
        "hand": "left"
      },
      {
        "midi": 68,
        "time": 138.125,
        "duration": 0.625,
        "velocity": 1,
        "hand": "right"
      },
      {
        "midi": 74,
        "time": 138.125,
        "duration": 0.625,
        "velocity": 1,
        "hand": "right"
      },
      {
        "midi": 77,
        "time": 138.125,
        "duration": 0.61,
        "velocity": 1,
        "hand": "right"
      },
      {
        "midi": 77,
        "time": 138.75,
        "duration": 0.61,
        "velocity": 1,
        "hand": "right"
      },
      {
        "midi": 80,
        "time": 138.75,
        "duration": 0.625,
        "velocity": 1,
        "hand": "right"
      },
      {
        "midi": 68,
        "time": 139.375,
        "duration": 0.625,
        "velocity": 1,
        "hand": "right"
      },
      {
        "midi": 74,
        "time": 139.375,
        "duration": 0.625,
        "velocity": 1,
        "hand": "right"
      },
      {
        "midi": 77,
        "time": 139.375,
        "duration": 0.625,
        "velocity": 1,
        "hand": "right"
      },
      {
        "midi": 46,
        "time": 140,
        "duration": 1.25,
        "velocity": 1,
        "hand": "left"
      },
      {
        "midi": 67,
        "time": 140.625,
        "duration": 0.625,
        "velocity": 1,
        "hand": "right"
      },
      {
        "midi": 70,
        "time": 140.625,
        "duration": 0.625,
        "velocity": 1,
        "hand": "right"
      },
      {
        "midi": 75,
        "time": 140.625,
        "duration": 0.61,
        "velocity": 1,
        "hand": "right"
      },
      {
        "midi": 75,
        "time": 141.25,
        "duration": 0.61,
        "velocity": 1,
        "hand": "right"
      },
      {
        "midi": 79,
        "time": 141.25,
        "duration": 0.625,
        "velocity": 1,
        "hand": "right"
      },
      {
        "midi": 67,
        "time": 141.875,
        "duration": 0.625,
        "velocity": 1,
        "hand": "right"
      },
      {
        "midi": 70,
        "time": 141.875,
        "duration": 0.625,
        "velocity": 1,
        "hand": "right"
      },
      {
        "midi": 75,
        "time": 141.875,
        "duration": 0.625,
        "velocity": 1,
        "hand": "right"
      },
      {
        "midi": 46,
        "time": 142.5,
        "duration": 1.25,
        "velocity": 1,
        "hand": "left"
      },
      {
        "midi": 66,
        "time": 143.125,
        "duration": 0.625,
        "velocity": 1,
        "hand": "right"
      },
      {
        "midi": 69,
        "time": 143.125,
        "duration": 0.625,
        "velocity": 1,
        "hand": "right"
      },
      {
        "midi": 75,
        "time": 143.125,
        "duration": 0.61,
        "velocity": 1,
        "hand": "right"
      },
      {
        "midi": 75,
        "time": 143.75,
        "duration": 0.61,
        "velocity": 1,
        "hand": "right"
      },
      {
        "midi": 78,
        "time": 143.75,
        "duration": 0.625,
        "velocity": 1,
        "hand": "right"
      },
      {
        "midi": 66,
        "time": 144.375,
        "duration": 0.625,
        "velocity": 1,
        "hand": "right"
      },
      {
        "midi": 69,
        "time": 144.375,
        "duration": 0.625,
        "velocity": 1,
        "hand": "right"
      },
      {
        "midi": 75,
        "time": 144.375,
        "duration": 0.625,
        "velocity": 1,
        "hand": "right"
      },
      {
        "midi": 46,
        "time": 145,
        "duration": 1.25,
        "velocity": 1,
        "hand": "left"
      },
      {
        "midi": 65,
        "time": 145.625,
        "duration": 0.625,
        "velocity": 1,
        "hand": "right"
      },
      {
        "midi": 70,
        "time": 145.625,
        "duration": 0.625,
        "velocity": 1,
        "hand": "right"
      },
      {
        "midi": 74,
        "time": 145.625,
        "duration": 0.61,
        "velocity": 1,
        "hand": "right"
      },
      {
        "midi": 74,
        "time": 146.25,
        "duration": 0.61,
        "velocity": 1,
        "hand": "right"
      },
      {
        "midi": 77,
        "time": 146.25,
        "duration": 0.625,
        "velocity": 1,
        "hand": "right"
      },
      {
        "midi": 65,
        "time": 146.875,
        "duration": 0.625,
        "velocity": 1,
        "hand": "right"
      },
      {
        "midi": 70,
        "time": 146.875,
        "duration": 0.625,
        "velocity": 1,
        "hand": "right"
      },
      {
        "midi": 74,
        "time": 146.875,
        "duration": 0.625,
        "velocity": 1,
        "hand": "right"
      },
      {
        "midi": 46,
        "time": 147.5,
        "duration": 1.25,
        "velocity": 1,
        "hand": "left"
      },
      {
        "midi": 62,
        "time": 148.125,
        "duration": 0.625,
        "velocity": 1,
        "hand": "right"
      },
      {
        "midi": 65,
        "time": 148.125,
        "duration": 0.625,
        "velocity": 1,
        "hand": "right"
      },
      {
        "midi": 70,
        "time": 148.125,
        "duration": 0.61,
        "velocity": 1,
        "hand": "right"
      },
      {
        "midi": 70,
        "time": 148.75,
        "duration": 0.61,
        "velocity": 1,
        "hand": "right"
      },
      {
        "midi": 74,
        "time": 148.75,
        "duration": 0.625,
        "velocity": 1,
        "hand": "right"
      },
      {
        "midi": 62,
        "time": 149.375,
        "duration": 0.625,
        "velocity": 1,
        "hand": "right"
      },
      {
        "midi": 65,
        "time": 149.375,
        "duration": 0.625,
        "velocity": 1,
        "hand": "right"
      },
      {
        "midi": 70,
        "time": 149.375,
        "duration": 0.61,
        "velocity": 1,
        "hand": "right"
      },
      {
        "midi": 46,
        "time": 150,
        "duration": 1.25,
        "velocity": 1,
        "hand": "left"
      },
      {
        "midi": 70,
        "time": 150,
        "duration": 0.61,
        "velocity": 1,
        "hand": "right"
      },
      {
        "midi": 62,
        "time": 150.625,
        "duration": 0.625,
        "velocity": 1,
        "hand": "right"
      },
      {
        "midi": 65,
        "time": 150.625,
        "duration": 0.625,
        "velocity": 1,
        "hand": "right"
      },
      {
        "midi": 70,
        "time": 150.625,
        "duration": 0.61,
        "velocity": 1,
        "hand": "right"
      },
      {
        "midi": 70,
        "time": 151.25,
        "duration": 0.61,
        "velocity": 1,
        "hand": "right"
      },
      {
        "midi": 74,
        "time": 151.25,
        "duration": 0.625,
        "velocity": 1,
        "hand": "right"
      },
      {
        "midi": 62,
        "time": 151.875,
        "duration": 0.625,
        "velocity": 1,
        "hand": "right"
      },
      {
        "midi": 65,
        "time": 151.875,
        "duration": 0.625,
        "velocity": 1,
        "hand": "right"
      },
      {
        "midi": 70,
        "time": 151.875,
        "duration": 0.625,
        "velocity": 1,
        "hand": "right"
      },
      {
        "midi": 43,
        "time": 152.5,
        "duration": 1.25,
        "velocity": 1,
        "hand": "left"
      },
      {
        "midi": 62,
        "time": 153.125,
        "duration": 0.625,
        "velocity": 1,
        "hand": "right"
      },
      {
        "midi": 64,
        "time": 153.125,
        "duration": 0.625,
        "velocity": 1,
        "hand": "right"
      },
      {
        "midi": 70,
        "time": 153.125,
        "duration": 0.61,
        "velocity": 1,
        "hand": "right"
      },
      {
        "midi": 70,
        "time": 153.75,
        "duration": 0.61,
        "velocity": 1,
        "hand": "right"
      },
      {
        "midi": 74,
        "time": 153.75,
        "duration": 0.625,
        "velocity": 1,
        "hand": "right"
      },
      {
        "midi": 62,
        "time": 154.375,
        "duration": 0.625,
        "velocity": 1,
        "hand": "right"
      },
      {
        "midi": 64,
        "time": 154.375,
        "duration": 0.625,
        "velocity": 1,
        "hand": "right"
      },
      {
        "midi": 70,
        "time": 154.375,
        "duration": 0.625,
        "velocity": 1,
        "hand": "right"
      },
      {
        "midi": 41,
        "time": 155,
        "duration": 1.25,
        "velocity": 1,
        "hand": "left"
      },
      {
        "midi": 74,
        "time": 155,
        "duration": 1.235,
        "velocity": 1,
        "hand": "right"
      },
      {
        "midi": 62,
        "time": 155.625,
        "duration": 0.625,
        "velocity": 1,
        "hand": "right"
      },
      {
        "midi": 65,
        "time": 155.625,
        "duration": 0.625,
        "velocity": 1,
        "hand": "right"
      },
      {
        "midi": 70,
        "time": 155.625,
        "duration": 0.61,
        "velocity": 1,
        "hand": "right"
      },
      {
        "midi": 70,
        "time": 156.25,
        "duration": 0.61,
        "velocity": 1,
        "hand": "right"
      },
      {
        "midi": 74,
        "time": 156.25,
        "duration": 0.625,
        "velocity": 1,
        "hand": "right"
      },
      {
        "midi": 62,
        "time": 156.875,
        "duration": 0.625,
        "velocity": 1,
        "hand": "right"
      },
      {
        "midi": 65,
        "time": 156.875,
        "duration": 0.625,
        "velocity": 1,
        "hand": "right"
      },
      {
        "midi": 70,
        "time": 156.875,
        "duration": 0.625,
        "velocity": 1,
        "hand": "right"
      },
      {
        "midi": 41,
        "time": 157.5,
        "duration": 1.25,
        "velocity": 1,
        "hand": "left"
      },
      {
        "midi": 63,
        "time": 158.125,
        "duration": 0.625,
        "velocity": 1,
        "hand": "right"
      },
      {
        "midi": 69,
        "time": 158.125,
        "duration": 0.625,
        "velocity": 1,
        "hand": "right"
      },
      {
        "midi": 72,
        "time": 158.125,
        "duration": 0.61,
        "velocity": 1,
        "hand": "right"
      },
      {
        "midi": 72,
        "time": 158.75,
        "duration": 0.61,
        "velocity": 1,
        "hand": "right"
      },
      {
        "midi": 75,
        "time": 158.75,
        "duration": 0.625,
        "velocity": 1,
        "hand": "right"
      },
      {
        "midi": 63,
        "time": 159.375,
        "duration": 0.625,
        "velocity": 1,
        "hand": "right"
      },
      {
        "midi": 69,
        "time": 159.375,
        "duration": 0.625,
        "velocity": 1,
        "hand": "right"
      },
      {
        "midi": 72,
        "time": 159.375,
        "duration": 0.625,
        "velocity": 1,
        "hand": "right"
      },
      {
        "midi": 43,
        "time": 160,
        "duration": 1.25,
        "velocity": 1,
        "hand": "left"
      },
      {
        "midi": 70,
        "time": 160,
        "duration": 0.61,
        "velocity": 1,
        "hand": "right"
      },
      {
        "midi": 62,
        "time": 160.625,
        "duration": 0.625,
        "velocity": 1,
        "hand": "right"
      },
      {
        "midi": 67,
        "time": 160.625,
        "duration": 0.625,
        "velocity": 1,
        "hand": "right"
      },
      {
        "midi": 70,
        "time": 160.625,
        "duration": 0.61,
        "velocity": 1,
        "hand": "right"
      },
      {
        "midi": 70,
        "time": 161.25,
        "duration": 0.61,
        "velocity": 1,
        "hand": "right"
      },
      {
        "midi": 74,
        "time": 161.25,
        "duration": 0.625,
        "velocity": 1,
        "hand": "right"
      },
      {
        "midi": 62,
        "time": 161.875,
        "duration": 0.625,
        "velocity": 1,
        "hand": "right"
      },
      {
        "midi": 67,
        "time": 161.875,
        "duration": 0.625,
        "velocity": 1,
        "hand": "right"
      },
      {
        "midi": 70,
        "time": 161.875,
        "duration": 0.625,
        "velocity": 1,
        "hand": "right"
      },
      {
        "midi": 43,
        "time": 162.5,
        "duration": 1.25,
        "velocity": 1,
        "hand": "left"
      },
      {
        "midi": 62,
        "time": 163.125,
        "duration": 0.625,
        "velocity": 1,
        "hand": "right"
      },
      {
        "midi": 67,
        "time": 163.125,
        "duration": 0.625,
        "velocity": 1,
        "hand": "right"
      },
      {
        "midi": 70,
        "time": 163.125,
        "duration": 0.61,
        "velocity": 1,
        "hand": "right"
      },
      {
        "midi": 70,
        "time": 163.75,
        "duration": 0.61,
        "velocity": 1,
        "hand": "right"
      },
      {
        "midi": 74,
        "time": 163.75,
        "duration": 0.625,
        "velocity": 1,
        "hand": "right"
      },
      {
        "midi": 62,
        "time": 164.375,
        "duration": 0.625,
        "velocity": 1,
        "hand": "right"
      },
      {
        "midi": 67,
        "time": 164.375,
        "duration": 0.625,
        "velocity": 1,
        "hand": "right"
      },
      {
        "midi": 70,
        "time": 164.375,
        "duration": 0.625,
        "velocity": 1,
        "hand": "right"
      },
      {
        "midi": 39,
        "time": 165,
        "duration": 1.25,
        "velocity": 1,
        "hand": "left"
      },
      {
        "midi": 72,
        "time": 165,
        "duration": 0.61,
        "velocity": 1,
        "hand": "right"
      },
      {
        "midi": 63,
        "time": 165.625,
        "duration": 0.625,
        "velocity": 1,
        "hand": "right"
      },
      {
        "midi": 67,
        "time": 165.625,
        "duration": 0.625,
        "velocity": 1,
        "hand": "right"
      },
      {
        "midi": 72,
        "time": 165.625,
        "duration": 0.61,
        "velocity": 1,
        "hand": "right"
      },
      {
        "midi": 72,
        "time": 166.25,
        "duration": 0.61,
        "velocity": 1,
        "hand": "right"
      },
      {
        "midi": 75,
        "time": 166.25,
        "duration": 0.625,
        "velocity": 1,
        "hand": "right"
      },
      {
        "midi": 63,
        "time": 166.875,
        "duration": 0.625,
        "velocity": 1,
        "hand": "right"
      },
      {
        "midi": 67,
        "time": 166.875,
        "duration": 0.625,
        "velocity": 1,
        "hand": "right"
      },
      {
        "midi": 72,
        "time": 166.875,
        "duration": 0.61,
        "velocity": 1,
        "hand": "right"
      },
      {
        "midi": 41,
        "time": 167.5,
        "duration": 1.25,
        "velocity": 1,
        "hand": "left"
      },
      {
        "midi": 70,
        "time": 167.5,
        "duration": 0.625,
        "velocity": 1,
        "hand": "right"
      },
      {
        "midi": 72,
        "time": 167.5,
        "duration": 0.313,
        "velocity": 1,
        "hand": "right"
      },
      {
        "midi": 74,
        "time": 167.5,
        "duration": 0.313,
        "velocity": 1,
        "hand": "right"
      },
      {
        "midi": 63,
        "time": 168.125,
        "duration": 0.625,
        "velocity": 1,
        "hand": "right"
      },
      {
        "midi": 65,
        "time": 168.125,
        "duration": 0.625,
        "velocity": 1,
        "hand": "right"
      },
      {
        "midi": 69,
        "time": 168.125,
        "duration": 0.61,
        "velocity": 1,
        "hand": "right"
      },
      {
        "midi": 67,
        "time": 168.75,
        "duration": 0.625,
        "velocity": 1,
        "hand": "right"
      },
      {
        "midi": 69,
        "time": 168.75,
        "duration": 0.61,
        "velocity": 1,
        "hand": "right"
      },
      {
        "midi": 72,
        "time": 168.75,
        "duration": 0.625,
        "velocity": 1,
        "hand": "right"
      },
      {
        "midi": 63,
        "time": 169.375,
        "duration": 0.625,
        "velocity": 1,
        "hand": "right"
      },
      {
        "midi": 65,
        "time": 169.375,
        "duration": 0.625,
        "velocity": 1,
        "hand": "right"
      },
      {
        "midi": 69,
        "time": 169.375,
        "duration": 0.625,
        "velocity": 1,
        "hand": "right"
      },
      {
        "midi": 46,
        "time": 170,
        "duration": 1.25,
        "velocity": 1,
        "hand": "left"
      },
      {
        "midi": 70,
        "time": 170,
        "duration": 0.61,
        "velocity": 1,
        "hand": "right"
      },
      {
        "midi": 62,
        "time": 170.625,
        "duration": 0.625,
        "velocity": 1,
        "hand": "right"
      },
      {
        "midi": 65,
        "time": 170.625,
        "duration": 0.625,
        "velocity": 1,
        "hand": "right"
      },
      {
        "midi": 70,
        "time": 170.625,
        "duration": 0.61,
        "velocity": 1,
        "hand": "right"
      },
      {
        "midi": 70,
        "time": 171.25,
        "duration": 0.61,
        "velocity": 1,
        "hand": "right"
      },
      {
        "midi": 74,
        "time": 171.25,
        "duration": 0.625,
        "velocity": 1,
        "hand": "right"
      },
      {
        "midi": 62,
        "time": 171.875,
        "duration": 0.625,
        "velocity": 1,
        "hand": "right"
      },
      {
        "midi": 65,
        "time": 171.875,
        "duration": 0.625,
        "velocity": 1,
        "hand": "right"
      },
      {
        "midi": 70,
        "time": 171.875,
        "duration": 0.625,
        "velocity": 1,
        "hand": "right"
      },
      {
        "midi": 46,
        "time": 172.5,
        "duration": 1.25,
        "velocity": 1,
        "hand": "left"
      },
      {
        "midi": 62,
        "time": 173.125,
        "duration": 0.625,
        "velocity": 1,
        "hand": "right"
      },
      {
        "midi": 65,
        "time": 173.125,
        "duration": 0.625,
        "velocity": 1,
        "hand": "right"
      },
      {
        "midi": 70,
        "time": 173.125,
        "duration": 0.61,
        "velocity": 1,
        "hand": "right"
      },
      {
        "midi": 70,
        "time": 173.75,
        "duration": 0.61,
        "velocity": 1,
        "hand": "right"
      },
      {
        "midi": 74,
        "time": 173.75,
        "duration": 1.235,
        "velocity": 1,
        "hand": "right"
      },
      {
        "midi": 62,
        "time": 174.375,
        "duration": 0.625,
        "velocity": 1,
        "hand": "right"
      },
      {
        "midi": 65,
        "time": 174.375,
        "duration": 0.625,
        "velocity": 1,
        "hand": "right"
      },
      {
        "midi": 70,
        "time": 174.375,
        "duration": 0.625,
        "velocity": 1,
        "hand": "right"
      },
      {
        "midi": 46,
        "time": 175,
        "duration": 1.25,
        "velocity": 1,
        "hand": "left"
      },
      {
        "midi": 74,
        "time": 175,
        "duration": 1.235,
        "velocity": 1,
        "hand": "right"
      },
      {
        "midi": 62,
        "time": 175.625,
        "duration": 0.625,
        "velocity": 1,
        "hand": "right"
      },
      {
        "midi": 66,
        "time": 175.625,
        "duration": 0.625,
        "velocity": 1,
        "hand": "right"
      },
      {
        "midi": 70,
        "time": 175.625,
        "duration": 0.61,
        "velocity": 1,
        "hand": "right"
      },
      {
        "midi": 70,
        "time": 176.25,
        "duration": 0.61,
        "velocity": 1,
        "hand": "right"
      },
      {
        "midi": 74,
        "time": 176.25,
        "duration": 0.625,
        "velocity": 1,
        "hand": "right"
      },
      {
        "midi": 62,
        "time": 176.875,
        "duration": 0.625,
        "velocity": 1,
        "hand": "right"
      },
      {
        "midi": 66,
        "time": 176.875,
        "duration": 0.625,
        "velocity": 1,
        "hand": "right"
      },
      {
        "midi": 70,
        "time": 176.875,
        "duration": 0.61,
        "velocity": 1,
        "hand": "right"
      },
      {
        "midi": 72,
        "time": 176.875,
        "duration": 0.625,
        "velocity": 1,
        "hand": "right"
      },
      {
        "midi": 46,
        "time": 177.5,
        "duration": 1.25,
        "velocity": 1,
        "hand": "left"
      },
      {
        "midi": 70,
        "time": 177.5,
        "duration": 0.61,
        "velocity": 1,
        "hand": "right"
      },
      {
        "midi": 62,
        "time": 178.125,
        "duration": 0.625,
        "velocity": 1,
        "hand": "right"
      },
      {
        "midi": 67,
        "time": 178.125,
        "duration": 0.625,
        "velocity": 1,
        "hand": "right"
      },
      {
        "midi": 70,
        "time": 178.125,
        "duration": 0.61,
        "velocity": 1,
        "hand": "right"
      },
      {
        "midi": 70,
        "time": 178.75,
        "duration": 0.61,
        "velocity": 1,
        "hand": "right"
      },
      {
        "midi": 74,
        "time": 178.75,
        "duration": 0.625,
        "velocity": 1,
        "hand": "right"
      },
      {
        "midi": 62,
        "time": 179.375,
        "duration": 0.625,
        "velocity": 1,
        "hand": "right"
      },
      {
        "midi": 67,
        "time": 179.375,
        "duration": 0.625,
        "velocity": 1,
        "hand": "right"
      },
      {
        "midi": 70,
        "time": 179.375,
        "duration": 0.625,
        "velocity": 1,
        "hand": "right"
      },
      {
        "midi": 76,
        "time": 179.375,
        "duration": 0.625,
        "velocity": 1,
        "hand": "right"
      },
      {
        "midi": 45,
        "time": 180,
        "duration": 1.25,
        "velocity": 1,
        "hand": "left"
      },
      {
        "midi": 74,
        "time": 180,
        "duration": 1.235,
        "velocity": 1,
        "hand": "right"
      },
      {
        "midi": 64,
        "time": 180.625,
        "duration": 0.625,
        "velocity": 1,
        "hand": "right"
      },
      {
        "midi": 67,
        "time": 180.625,
        "duration": 0.625,
        "velocity": 1,
        "hand": "right"
      },
      {
        "midi": 70,
        "time": 180.625,
        "duration": 0.61,
        "velocity": 1,
        "hand": "right"
      },
      {
        "midi": 70,
        "time": 181.25,
        "duration": 0.61,
        "velocity": 1,
        "hand": "right"
      },
      {
        "midi": 74,
        "time": 181.25,
        "duration": 0.625,
        "velocity": 1,
        "hand": "right"
      },
      {
        "midi": 64,
        "time": 181.875,
        "duration": 0.625,
        "velocity": 1,
        "hand": "right"
      },
      {
        "midi": 67,
        "time": 181.875,
        "duration": 0.625,
        "velocity": 1,
        "hand": "right"
      },
      {
        "midi": 70,
        "time": 181.875,
        "duration": 0.625,
        "velocity": 1,
        "hand": "right"
      },
      {
        "midi": 45,
        "time": 182.5,
        "duration": 1.25,
        "velocity": 1,
        "hand": "left"
      },
      {
        "midi": 73,
        "time": 182.5,
        "duration": 1.235,
        "velocity": 1,
        "hand": "right"
      },
      {
        "midi": 64,
        "time": 183.125,
        "duration": 0.625,
        "velocity": 1,
        "hand": "right"
      },
      {
        "midi": 67,
        "time": 183.125,
        "duration": 0.625,
        "velocity": 1,
        "hand": "right"
      },
      {
        "midi": 69,
        "time": 183.125,
        "duration": 0.61,
        "velocity": 1,
        "hand": "right"
      },
      {
        "midi": 69,
        "time": 183.75,
        "duration": 0.61,
        "velocity": 1,
        "hand": "right"
      },
      {
        "midi": 73,
        "time": 183.75,
        "duration": 0.625,
        "velocity": 1,
        "hand": "right"
      },
      {
        "midi": 64,
        "time": 184.375,
        "duration": 0.625,
        "velocity": 1,
        "hand": "right"
      },
      {
        "midi": 67,
        "time": 184.375,
        "duration": 0.625,
        "velocity": 1,
        "hand": "right"
      },
      {
        "midi": 69,
        "time": 184.375,
        "duration": 0.625,
        "velocity": 1,
        "hand": "right"
      },
      {
        "midi": 42,
        "time": 185,
        "duration": 1.25,
        "velocity": 1,
        "hand": "left"
      },
      {
        "midi": 72,
        "time": 185,
        "duration": 0.61,
        "velocity": 1,
        "hand": "right"
      },
      {
        "midi": 63,
        "time": 185.625,
        "duration": 0.625,
        "velocity": 1,
        "hand": "right"
      },
      {
        "midi": 69,
        "time": 185.625,
        "duration": 0.625,
        "velocity": 1,
        "hand": "right"
      },
      {
        "midi": 72,
        "time": 185.625,
        "duration": 0.61,
        "velocity": 1,
        "hand": "right"
      },
      {
        "midi": 72,
        "time": 186.25,
        "duration": 0.61,
        "velocity": 1,
        "hand": "right"
      },
      {
        "midi": 75,
        "time": 186.25,
        "duration": 0.625,
        "velocity": 1,
        "hand": "right"
      },
      {
        "midi": 63,
        "time": 186.875,
        "duration": 0.625,
        "velocity": 1,
        "hand": "right"
      },
      {
        "midi": 70,
        "time": 186.875,
        "duration": 0.625,
        "velocity": 1,
        "hand": "right"
      },
      {
        "midi": 72,
        "time": 186.875,
        "duration": 0.625,
        "velocity": 1,
        "hand": "right"
      },
      {
        "midi": 42,
        "time": 187.5,
        "duration": 1.25,
        "velocity": 1,
        "hand": "left"
      },
      {
        "midi": 69,
        "time": 187.5,
        "duration": 0.61,
        "velocity": 1,
        "hand": "right"
      },
      {
        "midi": 63,
        "time": 188.125,
        "duration": 0.625,
        "velocity": 1,
        "hand": "right"
      },
      {
        "midi": 69,
        "time": 188.125,
        "duration": 0.625,
        "velocity": 1,
        "hand": "right"
      },
      {
        "midi": 72,
        "time": 188.125,
        "duration": 0.61,
        "velocity": 1,
        "hand": "right"
      },
      {
        "midi": 74,
        "time": 188.125,
        "duration": 0.625,
        "velocity": 1,
        "hand": "right"
      },
      {
        "midi": 72,
        "time": 188.75,
        "duration": 0.61,
        "velocity": 1,
        "hand": "right"
      },
      {
        "midi": 75,
        "time": 188.75,
        "duration": 0.625,
        "velocity": 1,
        "hand": "right"
      },
      {
        "midi": 63,
        "time": 189.375,
        "duration": 0.625,
        "velocity": 1,
        "hand": "right"
      },
      {
        "midi": 69,
        "time": 189.375,
        "duration": 0.625,
        "velocity": 1,
        "hand": "right"
      },
      {
        "midi": 72,
        "time": 189.375,
        "duration": 0.625,
        "velocity": 1,
        "hand": "right"
      },
      {
        "midi": 43,
        "time": 190,
        "duration": 1.25,
        "velocity": 1,
        "hand": "left"
      },
      {
        "midi": 70,
        "time": 190,
        "duration": 0.61,
        "velocity": 1,
        "hand": "right"
      },
      {
        "midi": 62,
        "time": 190.625,
        "duration": 0.625,
        "velocity": 1,
        "hand": "right"
      },
      {
        "midi": 67,
        "time": 190.625,
        "duration": 0.625,
        "velocity": 1,
        "hand": "right"
      },
      {
        "midi": 70,
        "time": 190.625,
        "duration": 0.61,
        "velocity": 1,
        "hand": "right"
      },
      {
        "midi": 70,
        "time": 191.25,
        "duration": 0.61,
        "velocity": 1,
        "hand": "right"
      },
      {
        "midi": 74,
        "time": 191.25,
        "duration": 0.625,
        "velocity": 1,
        "hand": "right"
      },
      {
        "midi": 62,
        "time": 191.875,
        "duration": 0.625,
        "velocity": 1,
        "hand": "right"
      },
      {
        "midi": 67,
        "time": 191.875,
        "duration": 0.625,
        "velocity": 1,
        "hand": "right"
      },
      {
        "midi": 70,
        "time": 191.875,
        "duration": 0.625,
        "velocity": 1,
        "hand": "right"
      },
      {
        "midi": 43,
        "time": 192.5,
        "duration": 1.25,
        "velocity": 1,
        "hand": "left"
      },
      {
        "midi": 62,
        "time": 193.125,
        "duration": 0.625,
        "velocity": 1,
        "hand": "right"
      },
      {
        "midi": 64,
        "time": 193.125,
        "duration": 0.625,
        "velocity": 1,
        "hand": "right"
      },
      {
        "midi": 70,
        "time": 193.125,
        "duration": 0.61,
        "velocity": 1,
        "hand": "right"
      },
      {
        "midi": 70,
        "time": 193.75,
        "duration": 0.61,
        "velocity": 1,
        "hand": "right"
      },
      {
        "midi": 74,
        "time": 193.75,
        "duration": 0.625,
        "velocity": 1,
        "hand": "right"
      },
      {
        "midi": 62,
        "time": 194.375,
        "duration": 0.625,
        "velocity": 1,
        "hand": "right"
      },
      {
        "midi": 64,
        "time": 194.375,
        "duration": 0.625,
        "velocity": 1,
        "hand": "right"
      },
      {
        "midi": 70,
        "time": 194.375,
        "duration": 0.625,
        "velocity": 1,
        "hand": "right"
      },
      {
        "midi": 72,
        "time": 194.375,
        "duration": 0.61,
        "velocity": 1,
        "hand": "right"
      },
      {
        "midi": 45,
        "time": 195,
        "duration": 1.25,
        "velocity": 1,
        "hand": "left"
      },
      {
        "midi": 72,
        "time": 195,
        "duration": 1.235,
        "velocity": 1,
        "hand": "right"
      },
      {
        "midi": 60,
        "time": 195.625,
        "duration": 0.625,
        "velocity": 1,
        "hand": "right"
      },
      {
        "midi": 65,
        "time": 195.625,
        "duration": 0.625,
        "velocity": 1,
        "hand": "right"
      },
      {
        "midi": 69,
        "time": 195.625,
        "duration": 0.61,
        "velocity": 1,
        "hand": "right"
      },
      {
        "midi": 69,
        "time": 196.25,
        "duration": 0.61,
        "velocity": 1,
        "hand": "right"
      },
      {
        "midi": 72,
        "time": 196.25,
        "duration": 0.625,
        "velocity": 1,
        "hand": "right"
      },
      {
        "midi": 60,
        "time": 196.875,
        "duration": 0.625,
        "velocity": 1,
        "hand": "right"
      },
      {
        "midi": 65,
        "time": 196.875,
        "duration": 0.625,
        "velocity": 1,
        "hand": "right"
      },
      {
        "midi": 69,
        "time": 196.875,
        "duration": 0.625,
        "velocity": 1,
        "hand": "right"
      },
      {
        "midi": 38,
        "time": 197.5,
        "duration": 1.25,
        "velocity": 1,
        "hand": "left"
      },
      {
        "midi": 50,
        "time": 197.5,
        "duration": 1.25,
        "velocity": 1,
        "hand": "left"
      },
      {
        "midi": 67,
        "time": 197.5,
        "duration": 0.61,
        "velocity": 1,
        "hand": "right"
      },
      {
        "midi": 65,
        "time": 198.125,
        "duration": 0.625,
        "velocity": 1,
        "hand": "right"
      },
      {
        "midi": 67,
        "time": 198.125,
        "duration": 0.625,
        "velocity": 1,
        "hand": "right"
      },
      {
        "midi": 71,
        "time": 198.125,
        "duration": 0.61,
        "velocity": 1,
        "hand": "right"
      },
      {
        "midi": 74,
        "time": 198.125,
        "duration": 0.625,
        "velocity": 1,
        "hand": "right"
      },
      {
        "midi": 71,
        "time": 198.75,
        "duration": 0.61,
        "velocity": 1,
        "hand": "right"
      },
      {
        "midi": 77,
        "time": 198.75,
        "duration": 0.625,
        "velocity": 1,
        "hand": "right"
      },
      {
        "midi": 65,
        "time": 199.375,
        "duration": 0.625,
        "velocity": 1,
        "hand": "right"
      },
      {
        "midi": 67,
        "time": 199.375,
        "duration": 0.625,
        "velocity": 1,
        "hand": "right"
      },
      {
        "midi": 71,
        "time": 199.375,
        "duration": 0.625,
        "velocity": 1,
        "hand": "right"
      },
      {
        "midi": 74,
        "time": 199.375,
        "duration": 0.625,
        "velocity": 1,
        "hand": "right"
      },
      {
        "midi": 36,
        "time": 200,
        "duration": 1.25,
        "velocity": 1,
        "hand": "left"
      },
      {
        "midi": 48,
        "time": 200,
        "duration": 1.25,
        "velocity": 1,
        "hand": "left"
      },
      {
        "midi": 72,
        "time": 200,
        "duration": 0.61,
        "velocity": 1,
        "hand": "right"
      },
      {
        "midi": 65,
        "time": 200.625,
        "duration": 0.625,
        "velocity": 1,
        "hand": "right"
      },
      {
        "midi": 69,
        "time": 200.625,
        "duration": 0.625,
        "velocity": 1,
        "hand": "right"
      },
      {
        "midi": 72,
        "time": 200.625,
        "duration": 0.61,
        "velocity": 1,
        "hand": "right"
      },
      {
        "midi": 72,
        "time": 201.25,
        "duration": 0.61,
        "velocity": 1,
        "hand": "right"
      },
      {
        "midi": 77,
        "time": 201.25,
        "duration": 0.625,
        "velocity": 1,
        "hand": "right"
      },
      {
        "midi": 65,
        "time": 201.875,
        "duration": 0.625,
        "velocity": 1,
        "hand": "right"
      },
      {
        "midi": 69,
        "time": 201.875,
        "duration": 0.625,
        "velocity": 1,
        "hand": "right"
      },
      {
        "midi": 72,
        "time": 201.875,
        "duration": 0.625,
        "velocity": 1,
        "hand": "right"
      },
      {
        "midi": 36,
        "time": 202.5,
        "duration": 1.25,
        "velocity": 1,
        "hand": "left"
      },
      {
        "midi": 48,
        "time": 202.5,
        "duration": 1.25,
        "velocity": 1,
        "hand": "left"
      },
      {
        "midi": 67,
        "time": 203.125,
        "duration": 0.625,
        "velocity": 1,
        "hand": "right"
      },
      {
        "midi": 70,
        "time": 203.125,
        "duration": 0.61,
        "velocity": 1,
        "hand": "right"
      },
      {
        "midi": 72,
        "time": 203.125,
        "duration": 0.61,
        "velocity": 1,
        "hand": "right"
      },
      {
        "midi": 70,
        "time": 203.75,
        "duration": 0.313,
        "velocity": 1,
        "hand": "right"
      },
      {
        "midi": 72,
        "time": 203.75,
        "duration": 0.61,
        "velocity": 1,
        "hand": "right"
      },
      {
        "midi": 76,
        "time": 203.75,
        "duration": 0.625,
        "velocity": 1,
        "hand": "right"
      },
      {
        "midi": 67,
        "time": 204.375,
        "duration": 0.625,
        "velocity": 1,
        "hand": "right"
      },
      {
        "midi": 70,
        "time": 204.375,
        "duration": 0.625,
        "velocity": 1,
        "hand": "right"
      },
      {
        "midi": 72,
        "time": 204.375,
        "duration": 0.625,
        "velocity": 1,
        "hand": "right"
      },
      {
        "midi": 41,
        "time": 205,
        "duration": 1.25,
        "velocity": 1,
        "hand": "left"
      },
      {
        "midi": 53,
        "time": 205,
        "duration": 1.25,
        "velocity": 1,
        "hand": "left"
      },
      {
        "midi": 65,
        "time": 205,
        "duration": 0.61,
        "velocity": 1,
        "hand": "right"
      },
      {
        "midi": 65,
        "time": 205.625,
        "duration": 0.625,
        "velocity": 1,
        "hand": "right"
      },
      {
        "midi": 69,
        "time": 205.625,
        "duration": 0.625,
        "velocity": 1,
        "hand": "right"
      },
      {
        "midi": 72,
        "time": 205.625,
        "duration": 0.61,
        "velocity": 1,
        "hand": "right"
      },
      {
        "midi": 72,
        "time": 206.25,
        "duration": 0.61,
        "velocity": 1,
        "hand": "right"
      },
      {
        "midi": 77,
        "time": 206.25,
        "duration": 0.625,
        "velocity": 1,
        "hand": "right"
      },
      {
        "midi": 65,
        "time": 206.875,
        "duration": 0.625,
        "velocity": 1,
        "hand": "right"
      },
      {
        "midi": 69,
        "time": 206.875,
        "duration": 0.625,
        "velocity": 1,
        "hand": "right"
      },
      {
        "midi": 72,
        "time": 206.875,
        "duration": 0.625,
        "velocity": 1,
        "hand": "right"
      },
      {
        "midi": 41,
        "time": 207.5,
        "duration": 1.25,
        "velocity": 1,
        "hand": "left"
      },
      {
        "midi": 53,
        "time": 207.5,
        "duration": 1.25,
        "velocity": 1,
        "hand": "left"
      },
      {
        "midi": 65,
        "time": 208.125,
        "duration": 0.61,
        "velocity": 1,
        "hand": "right"
      },
      {
        "midi": 69,
        "time": 208.125,
        "duration": 0.625,
        "velocity": 1,
        "hand": "right"
      },
      {
        "midi": 72,
        "time": 208.125,
        "duration": 0.61,
        "velocity": 1,
        "hand": "right"
      },
      {
        "midi": 65,
        "time": 208.75,
        "duration": 0.61,
        "velocity": 1,
        "hand": "right"
      },
      {
        "midi": 72,
        "time": 208.75,
        "duration": 0.61,
        "velocity": 1,
        "hand": "right"
      },
      {
        "midi": 77,
        "time": 208.75,
        "duration": 0.625,
        "velocity": 1,
        "hand": "right"
      },
      {
        "midi": 65,
        "time": 209.375,
        "duration": 0.625,
        "velocity": 1,
        "hand": "right"
      },
      {
        "midi": 69,
        "time": 209.375,
        "duration": 0.625,
        "velocity": 1,
        "hand": "right"
      },
      {
        "midi": 72,
        "time": 209.375,
        "duration": 0.61,
        "velocity": 1,
        "hand": "right"
      },
      {
        "midi": 41,
        "time": 210,
        "duration": 1.25,
        "velocity": 1,
        "hand": "left"
      },
      {
        "midi": 53,
        "time": 210,
        "duration": 1.25,
        "velocity": 1,
        "hand": "left"
      },
      {
        "midi": 72,
        "time": 210,
        "duration": 0.61,
        "velocity": 1,
        "hand": "right"
      },
      {
        "midi": 63,
        "time": 210.625,
        "duration": 0.625,
        "velocity": 1,
        "hand": "right"
      },
      {
        "midi": 69,
        "time": 210.625,
        "duration": 0.625,
        "velocity": 1,
        "hand": "right"
      },
      {
        "midi": 72,
        "time": 210.625,
        "duration": 0.61,
        "velocity": 1,
        "hand": "right"
      },
      {
        "midi": 72,
        "time": 211.25,
        "duration": 0.61,
        "velocity": 1,
        "hand": "right"
      },
      {
        "midi": 77,
        "time": 211.25,
        "duration": 0.625,
        "velocity": 1,
        "hand": "right"
      },
      {
        "midi": 63,
        "time": 211.875,
        "duration": 0.625,
        "velocity": 1,
        "hand": "right"
      },
      {
        "midi": 69,
        "time": 211.875,
        "duration": 0.625,
        "velocity": 1,
        "hand": "right"
      },
      {
        "midi": 72,
        "time": 211.875,
        "duration": 0.61,
        "velocity": 1,
        "hand": "right"
      },
      {
        "midi": 41,
        "time": 212.5,
        "duration": 1.25,
        "velocity": 1,
        "hand": "left"
      },
      {
        "midi": 53,
        "time": 212.5,
        "duration": 1.25,
        "velocity": 1,
        "hand": "left"
      },
      {
        "midi": 72,
        "time": 212.5,
        "duration": 0.61,
        "velocity": 1,
        "hand": "right"
      },
      {
        "midi": 63,
        "time": 213.125,
        "duration": 0.625,
        "velocity": 1,
        "hand": "right"
      },
      {
        "midi": 69,
        "time": 213.125,
        "duration": 0.625,
        "velocity": 1,
        "hand": "right"
      },
      {
        "midi": 72,
        "time": 213.125,
        "duration": 0.61,
        "velocity": 1,
        "hand": "right"
      },
      {
        "midi": 72,
        "time": 213.75,
        "duration": 0.61,
        "velocity": 1,
        "hand": "right"
      },
      {
        "midi": 77,
        "time": 213.75,
        "duration": 0.625,
        "velocity": 1,
        "hand": "right"
      },
      {
        "midi": 63,
        "time": 214.375,
        "duration": 0.625,
        "velocity": 1,
        "hand": "right"
      },
      {
        "midi": 69,
        "time": 214.375,
        "duration": 0.625,
        "velocity": 1,
        "hand": "right"
      },
      {
        "midi": 72,
        "time": 214.375,
        "duration": 0.61,
        "velocity": 1,
        "hand": "right"
      },
      {
        "midi": 41,
        "time": 215,
        "duration": 1.25,
        "velocity": 1,
        "hand": "left"
      },
      {
        "midi": 53,
        "time": 215,
        "duration": 1.25,
        "velocity": 1,
        "hand": "left"
      },
      {
        "midi": 72,
        "time": 215,
        "duration": 1.25,
        "velocity": 1,
        "hand": "right"
      },
      {
        "midi": 74,
        "time": 215,
        "duration": 0.61,
        "velocity": 1,
        "hand": "right"
      },
      {
        "midi": 62,
        "time": 215.625,
        "duration": 0.625,
        "velocity": 1,
        "hand": "right"
      },
      {
        "midi": 70,
        "time": 215.625,
        "duration": 0.61,
        "velocity": 1,
        "hand": "right"
      },
      {
        "midi": 74,
        "time": 215.625,
        "duration": 0.61,
        "velocity": 1,
        "hand": "right"
      },
      {
        "midi": 70,
        "time": 216.25,
        "duration": 0.61,
        "velocity": 1,
        "hand": "right"
      },
      {
        "midi": 74,
        "time": 216.25,
        "duration": 0.61,
        "velocity": 1,
        "hand": "right"
      },
      {
        "midi": 77,
        "time": 216.25,
        "duration": 0.625,
        "velocity": 1,
        "hand": "right"
      },
      {
        "midi": 62,
        "time": 216.875,
        "duration": 0.625,
        "velocity": 1,
        "hand": "right"
      },
      {
        "midi": 70,
        "time": 216.875,
        "duration": 0.625,
        "velocity": 1,
        "hand": "right"
      },
      {
        "midi": 74,
        "time": 216.875,
        "duration": 0.625,
        "velocity": 1,
        "hand": "right"
      },
      {
        "midi": 41,
        "time": 217.5,
        "duration": 1.25,
        "velocity": 1,
        "hand": "left"
      },
      {
        "midi": 53,
        "time": 217.5,
        "duration": 1.25,
        "velocity": 1,
        "hand": "left"
      },
      {
        "midi": 62,
        "time": 218.125,
        "duration": 0.625,
        "velocity": 1,
        "hand": "right"
      },
      {
        "midi": 70,
        "time": 218.125,
        "duration": 0.61,
        "velocity": 1,
        "hand": "right"
      },
      {
        "midi": 74,
        "time": 218.125,
        "duration": 0.61,
        "velocity": 1,
        "hand": "right"
      },
      {
        "midi": 70,
        "time": 218.75,
        "duration": 0.61,
        "velocity": 1,
        "hand": "right"
      },
      {
        "midi": 74,
        "time": 218.75,
        "duration": 0.61,
        "velocity": 1,
        "hand": "right"
      },
      {
        "midi": 77,
        "time": 218.75,
        "duration": 0.625,
        "velocity": 1,
        "hand": "right"
      },
      {
        "midi": 62,
        "time": 219.375,
        "duration": 0.625,
        "velocity": 1,
        "hand": "right"
      },
      {
        "midi": 70,
        "time": 219.375,
        "duration": 0.625,
        "velocity": 1,
        "hand": "right"
      },
      {
        "midi": 74,
        "time": 219.375,
        "duration": 0.625,
        "velocity": 1,
        "hand": "right"
      },
      {
        "midi": 41,
        "time": 220,
        "duration": 1.25,
        "velocity": 1,
        "hand": "left"
      },
      {
        "midi": 53,
        "time": 220,
        "duration": 1.25,
        "velocity": 1,
        "hand": "left"
      },
      {
        "midi": 72,
        "time": 220,
        "duration": 0.61,
        "velocity": 1,
        "hand": "right"
      },
      {
        "midi": 63,
        "time": 220.625,
        "duration": 0.625,
        "velocity": 1,
        "hand": "right"
      },
      {
        "midi": 69,
        "time": 220.625,
        "duration": 0.625,
        "velocity": 1,
        "hand": "right"
      },
      {
        "midi": 72,
        "time": 220.625,
        "duration": 0.61,
        "velocity": 1,
        "hand": "right"
      },
      {
        "midi": 72,
        "time": 221.25,
        "duration": 0.61,
        "velocity": 1,
        "hand": "right"
      },
      {
        "midi": 77,
        "time": 221.25,
        "duration": 0.625,
        "velocity": 1,
        "hand": "right"
      },
      {
        "midi": 63,
        "time": 221.875,
        "duration": 0.625,
        "velocity": 1,
        "hand": "right"
      },
      {
        "midi": 69,
        "time": 221.875,
        "duration": 0.625,
        "velocity": 1,
        "hand": "right"
      },
      {
        "midi": 72,
        "time": 221.875,
        "duration": 0.61,
        "velocity": 1,
        "hand": "right"
      },
      {
        "midi": 41,
        "time": 222.5,
        "duration": 1.25,
        "velocity": 1,
        "hand": "left"
      },
      {
        "midi": 53,
        "time": 222.5,
        "duration": 1.25,
        "velocity": 1,
        "hand": "left"
      },
      {
        "midi": 72,
        "time": 222.5,
        "duration": 0.61,
        "velocity": 1,
        "hand": "right"
      },
      {
        "midi": 63,
        "time": 223.125,
        "duration": 0.625,
        "velocity": 1,
        "hand": "right"
      },
      {
        "midi": 69,
        "time": 223.125,
        "duration": 0.625,
        "velocity": 1,
        "hand": "right"
      },
      {
        "midi": 72,
        "time": 223.125,
        "duration": 0.61,
        "velocity": 1,
        "hand": "right"
      },
      {
        "midi": 72,
        "time": 223.75,
        "duration": 0.61,
        "velocity": 1,
        "hand": "right"
      },
      {
        "midi": 75,
        "time": 223.75,
        "duration": 0.625,
        "velocity": 1,
        "hand": "right"
      },
      {
        "midi": 77,
        "time": 223.75,
        "duration": 0.625,
        "velocity": 1,
        "hand": "right"
      },
      {
        "midi": 63,
        "time": 224.375,
        "duration": 0.625,
        "velocity": 1,
        "hand": "right"
      },
      {
        "midi": 69,
        "time": 224.375,
        "duration": 0.625,
        "velocity": 1,
        "hand": "right"
      },
      {
        "midi": 72,
        "time": 224.375,
        "duration": 0.625,
        "velocity": 1,
        "hand": "right"
      },
      {
        "midi": 74,
        "time": 224.375,
        "duration": 0.625,
        "velocity": 1,
        "hand": "right"
      },
      {
        "midi": 43,
        "time": 225,
        "duration": 1.25,
        "velocity": 1,
        "hand": "left"
      },
      {
        "midi": 55,
        "time": 225,
        "duration": 1.25,
        "velocity": 1,
        "hand": "left"
      },
      {
        "midi": 70,
        "time": 225,
        "duration": 0.61,
        "velocity": 1,
        "hand": "right"
      },
      {
        "midi": 62,
        "time": 225.625,
        "duration": 0.625,
        "velocity": 1,
        "hand": "right"
      },
      {
        "midi": 67,
        "time": 225.625,
        "duration": 0.625,
        "velocity": 1,
        "hand": "right"
      },
      {
        "midi": 70,
        "time": 225.625,
        "duration": 0.61,
        "velocity": 1,
        "hand": "right"
      },
      {
        "midi": 70,
        "time": 226.25,
        "duration": 0.61,
        "velocity": 1,
        "hand": "right"
      },
      {
        "midi": 74,
        "time": 226.25,
        "duration": 0.625,
        "velocity": 1,
        "hand": "right"
      },
      {
        "midi": 62,
        "time": 226.875,
        "duration": 0.625,
        "velocity": 1,
        "hand": "right"
      },
      {
        "midi": 67,
        "time": 226.875,
        "duration": 0.625,
        "velocity": 1,
        "hand": "right"
      },
      {
        "midi": 70,
        "time": 226.875,
        "duration": 0.625,
        "velocity": 1,
        "hand": "right"
      },
      {
        "midi": 43,
        "time": 227.5,
        "duration": 1.25,
        "velocity": 1,
        "hand": "left"
      },
      {
        "midi": 55,
        "time": 227.5,
        "duration": 1.25,
        "velocity": 1,
        "hand": "left"
      },
      {
        "midi": 58,
        "time": 228.125,
        "duration": 0.625,
        "velocity": 1,
        "hand": "left"
      },
      {
        "midi": 62,
        "time": 228.125,
        "duration": 0.625,
        "velocity": 1,
        "hand": "right"
      },
      {
        "midi": 67,
        "time": 228.125,
        "duration": 0.61,
        "velocity": 1,
        "hand": "right"
      },
      {
        "midi": 67,
        "time": 228.75,
        "duration": 0.61,
        "velocity": 1,
        "hand": "right"
      },
      {
        "midi": 70,
        "time": 228.75,
        "duration": 1.25,
        "velocity": 1,
        "hand": "right"
      },
      {
        "midi": 58,
        "time": 229.375,
        "duration": 0.625,
        "velocity": 1,
        "hand": "left"
      },
      {
        "midi": 62,
        "time": 229.375,
        "duration": 0.625,
        "velocity": 1,
        "hand": "right"
      },
      {
        "midi": 67,
        "time": 229.375,
        "duration": 0.625,
        "velocity": 1,
        "hand": "right"
      },
      {
        "midi": 41,
        "time": 230,
        "duration": 1.25,
        "velocity": 1,
        "hand": "left"
      },
      {
        "midi": 53,
        "time": 230,
        "duration": 1.25,
        "velocity": 1,
        "hand": "left"
      },
      {
        "midi": 72,
        "time": 230,
        "duration": 1.235,
        "velocity": 1,
        "hand": "right"
      },
      {
        "midi": 60,
        "time": 230.625,
        "duration": 0.625,
        "velocity": 1,
        "hand": "right"
      },
      {
        "midi": 65,
        "time": 230.625,
        "duration": 0.625,
        "velocity": 1,
        "hand": "right"
      },
      {
        "midi": 69,
        "time": 230.625,
        "duration": 0.61,
        "velocity": 1,
        "hand": "right"
      },
      {
        "midi": 69,
        "time": 231.25,
        "duration": 0.61,
        "velocity": 1,
        "hand": "right"
      },
      {
        "midi": 72,
        "time": 231.25,
        "duration": 0.61,
        "velocity": 1,
        "hand": "right"
      },
      {
        "midi": 60,
        "time": 231.875,
        "duration": 0.625,
        "velocity": 1,
        "hand": "right"
      },
      {
        "midi": 65,
        "time": 231.875,
        "duration": 0.625,
        "velocity": 1,
        "hand": "right"
      },
      {
        "midi": 69,
        "time": 231.875,
        "duration": 0.625,
        "velocity": 1,
        "hand": "right"
      },
      {
        "midi": 72,
        "time": 231.875,
        "duration": 0.625,
        "velocity": 1,
        "hand": "right"
      },
      {
        "midi": 38,
        "time": 232.5,
        "duration": 1.25,
        "velocity": 1,
        "hand": "left"
      },
      {
        "midi": 50,
        "time": 232.5,
        "duration": 1.25,
        "velocity": 1,
        "hand": "left"
      },
      {
        "midi": 74,
        "time": 232.5,
        "duration": 1.235,
        "velocity": 1,
        "hand": "right"
      },
      {
        "midi": 62,
        "time": 233.125,
        "duration": 0.625,
        "velocity": 1,
        "hand": "right"
      },
      {
        "midi": 66,
        "time": 233.125,
        "duration": 0.625,
        "velocity": 1,
        "hand": "right"
      },
      {
        "midi": 69,
        "time": 233.125,
        "duration": 0.61,
        "velocity": 1,
        "hand": "right"
      },
      {
        "midi": 69,
        "time": 233.75,
        "duration": 0.61,
        "velocity": 1,
        "hand": "right"
      },
      {
        "midi": 75,
        "time": 233.75,
        "duration": 0.313,
        "velocity": 1,
        "hand": "right"
      },
      {
        "midi": 66,
        "time": 234.375,
        "duration": 0.625,
        "velocity": 1,
        "hand": "right"
      },
      {
        "midi": 69,
        "time": 234.375,
        "duration": 0.625,
        "velocity": 1,
        "hand": "right"
      },
      {
        "midi": 72,
        "time": 234.375,
        "duration": 0.625,
        "velocity": 1,
        "hand": "right"
      },
      {
        "midi": 74,
        "time": 234.375,
        "duration": 0.313,
        "velocity": 1,
        "hand": "right"
      },
      {
        "midi": 36,
        "time": 235,
        "duration": 1.25,
        "velocity": 1,
        "hand": "left"
      },
      {
        "midi": 48,
        "time": 235,
        "duration": 1.25,
        "velocity": 1,
        "hand": "left"
      },
      {
        "midi": 75,
        "time": 235,
        "duration": 1.235,
        "velocity": 1,
        "hand": "right"
      },
      {
        "midi": 77,
        "time": 235,
        "duration": 0.313,
        "velocity": 1,
        "hand": "right"
      },
      {
        "midi": 63,
        "time": 235.625,
        "duration": 0.625,
        "velocity": 1,
        "hand": "right"
      },
      {
        "midi": 67,
        "time": 235.625,
        "duration": 0.625,
        "velocity": 1,
        "hand": "right"
      },
      {
        "midi": 72,
        "time": 235.625,
        "duration": 0.61,
        "velocity": 1,
        "hand": "right"
      },
      {
        "midi": 72,
        "time": 236.25,
        "duration": 0.61,
        "velocity": 1,
        "hand": "right"
      },
      {
        "midi": 75,
        "time": 236.25,
        "duration": 1.25,
        "velocity": 1,
        "hand": "right"
      },
      {
        "midi": 63,
        "time": 236.875,
        "duration": 0.625,
        "velocity": 1,
        "hand": "right"
      },
      {
        "midi": 67,
        "time": 236.875,
        "duration": 0.625,
        "velocity": 1,
        "hand": "right"
      },
      {
        "midi": 72,
        "time": 236.875,
        "duration": 0.625,
        "velocity": 1,
        "hand": "right"
      },
      {
        "midi": 36,
        "time": 237.5,
        "duration": 1.25,
        "velocity": 1,
        "hand": "left"
      },
      {
        "midi": 48,
        "time": 237.5,
        "duration": 1.25,
        "velocity": 1,
        "hand": "left"
      },
      {
        "midi": 63,
        "time": 238.125,
        "duration": 0.625,
        "velocity": 1,
        "hand": "right"
      },
      {
        "midi": 67,
        "time": 238.125,
        "duration": 0.625,
        "velocity": 1,
        "hand": "right"
      },
      {
        "midi": 72,
        "time": 238.125,
        "duration": 0.61,
        "velocity": 1,
        "hand": "right"
      },
      {
        "midi": 72,
        "time": 238.75,
        "duration": 0.61,
        "velocity": 1,
        "hand": "right"
      },
      {
        "midi": 75,
        "time": 238.75,
        "duration": 0.625,
        "velocity": 1,
        "hand": "right"
      },
      {
        "midi": 63,
        "time": 239.375,
        "duration": 0.625,
        "velocity": 1,
        "hand": "right"
      },
      {
        "midi": 67,
        "time": 239.375,
        "duration": 0.625,
        "velocity": 1,
        "hand": "right"
      },
      {
        "midi": 72,
        "time": 239.375,
        "duration": 0.61,
        "velocity": 1,
        "hand": "right"
      },
      {
        "midi": 39,
        "time": 240,
        "duration": 1.25,
        "velocity": 1,
        "hand": "left"
      },
      {
        "midi": 51,
        "time": 240,
        "duration": 1.25,
        "velocity": 1,
        "hand": "left"
      },
      {
        "midi": 72,
        "time": 240,
        "duration": 1.235,
        "velocity": 1,
        "hand": "right"
      },
      {
        "midi": 74,
        "time": 240,
        "duration": 0.313,
        "velocity": 1,
        "hand": "right"
      },
      {
        "midi": 60,
        "time": 240.625,
        "duration": 0.625,
        "velocity": 1,
        "hand": "right"
      },
      {
        "midi": 63,
        "time": 240.625,
        "duration": 0.625,
        "velocity": 1,
        "hand": "right"
      },
      {
        "midi": 67,
        "time": 240.625,
        "duration": 0.61,
        "velocity": 1,
        "hand": "right"
      },
      {
        "midi": 67,
        "time": 241.25,
        "duration": 0.61,
        "velocity": 1,
        "hand": "right"
      },
      {
        "midi": 72,
        "time": 241.25,
        "duration": 0.61,
        "velocity": 1,
        "hand": "right"
      },
      {
        "midi": 60,
        "time": 241.875,
        "duration": 0.625,
        "velocity": 1,
        "hand": "right"
      },
      {
        "midi": 63,
        "time": 241.875,
        "duration": 0.625,
        "velocity": 1,
        "hand": "right"
      },
      {
        "midi": 67,
        "time": 241.875,
        "duration": 0.625,
        "velocity": 1,
        "hand": "right"
      },
      {
        "midi": 72,
        "time": 241.875,
        "duration": 0.625,
        "velocity": 1,
        "hand": "right"
      },
      {
        "midi": 43,
        "time": 242.5,
        "duration": 1.25,
        "velocity": 1,
        "hand": "left"
      },
      {
        "midi": 55,
        "time": 242.5,
        "duration": 1.25,
        "velocity": 1,
        "hand": "left"
      },
      {
        "midi": 70,
        "time": 242.5,
        "duration": 0.61,
        "velocity": 1,
        "hand": "right"
      },
      {
        "midi": 61,
        "time": 243.125,
        "duration": 0.625,
        "velocity": 1,
        "hand": "right"
      },
      {
        "midi": 64,
        "time": 243.125,
        "duration": 0.625,
        "velocity": 1,
        "hand": "right"
      },
      {
        "midi": 70,
        "time": 243.125,
        "duration": 0.61,
        "velocity": 1,
        "hand": "right"
      },
      {
        "midi": 70,
        "time": 243.75,
        "duration": 0.61,
        "velocity": 1,
        "hand": "right"
      },
      {
        "midi": 73,
        "time": 243.75,
        "duration": 0.625,
        "velocity": 1,
        "hand": "right"
      },
      {
        "midi": 61,
        "time": 244.375,
        "duration": 0.625,
        "velocity": 1,
        "hand": "right"
      },
      {
        "midi": 64,
        "time": 244.375,
        "duration": 0.625,
        "velocity": 1,
        "hand": "right"
      },
      {
        "midi": 70,
        "time": 244.375,
        "duration": 0.625,
        "velocity": 1,
        "hand": "right"
      },
      {
        "midi": 72,
        "time": 244.375,
        "duration": 0.61,
        "velocity": 1,
        "hand": "right"
      },
      {
        "midi": 41,
        "time": 245,
        "duration": 1.25,
        "velocity": 1,
        "hand": "left"
      },
      {
        "midi": 53,
        "time": 245,
        "duration": 1.25,
        "velocity": 1,
        "hand": "left"
      },
      {
        "midi": 72,
        "time": 245,
        "duration": 1.235,
        "velocity": 1,
        "hand": "right"
      },
      {
        "midi": 60,
        "time": 245.625,
        "duration": 0.625,
        "velocity": 1,
        "hand": "right"
      },
      {
        "midi": 65,
        "time": 245.625,
        "duration": 0.625,
        "velocity": 1,
        "hand": "right"
      },
      {
        "midi": 69,
        "time": 245.625,
        "duration": 0.61,
        "velocity": 1,
        "hand": "right"
      },
      {
        "midi": 69,
        "time": 246.25,
        "duration": 0.61,
        "velocity": 1,
        "hand": "right"
      },
      {
        "midi": 72,
        "time": 246.25,
        "duration": 0.625,
        "velocity": 1,
        "hand": "right"
      },
      {
        "midi": 60,
        "time": 246.875,
        "duration": 0.625,
        "velocity": 1,
        "hand": "right"
      },
      {
        "midi": 65,
        "time": 246.875,
        "duration": 0.625,
        "velocity": 1,
        "hand": "right"
      },
      {
        "midi": 69,
        "time": 246.875,
        "duration": 0.625,
        "velocity": 1,
        "hand": "right"
      },
      {
        "midi": 41,
        "time": 247.5,
        "duration": 1.25,
        "velocity": 1,
        "hand": "left"
      },
      {
        "midi": 53,
        "time": 247.5,
        "duration": 1.25,
        "velocity": 1,
        "hand": "left"
      },
      {
        "midi": 63,
        "time": 248.125,
        "duration": 0.625,
        "velocity": 1,
        "hand": "right"
      },
      {
        "midi": 65,
        "time": 248.125,
        "duration": 0.625,
        "velocity": 1,
        "hand": "right"
      },
      {
        "midi": 69,
        "time": 248.125,
        "duration": 0.61,
        "velocity": 1,
        "hand": "right"
      },
      {
        "midi": 69,
        "time": 248.75,
        "duration": 0.61,
        "velocity": 1,
        "hand": "right"
      },
      {
        "midi": 72,
        "time": 248.75,
        "duration": 0.625,
        "velocity": 1,
        "hand": "right"
      },
      {
        "midi": 63,
        "time": 249.375,
        "duration": 0.625,
        "velocity": 1,
        "hand": "right"
      },
      {
        "midi": 65,
        "time": 249.375,
        "duration": 0.625,
        "velocity": 1,
        "hand": "right"
      },
      {
        "midi": 69,
        "time": 249.375,
        "duration": 0.625,
        "velocity": 1,
        "hand": "right"
      },
      {
        "midi": 46,
        "time": 250,
        "duration": 1.25,
        "velocity": 1,
        "hand": "left"
      },
      {
        "midi": 70,
        "time": 250,
        "duration": 0.61,
        "velocity": 1,
        "hand": "right"
      },
      {
        "midi": 62,
        "time": 250.625,
        "duration": 0.625,
        "velocity": 1,
        "hand": "right"
      },
      {
        "midi": 65,
        "time": 250.625,
        "duration": 0.625,
        "velocity": 1,
        "hand": "right"
      },
      {
        "midi": 70,
        "time": 250.625,
        "duration": 0.61,
        "velocity": 1,
        "hand": "right"
      },
      {
        "midi": 70,
        "time": 251.25,
        "duration": 0.61,
        "velocity": 1,
        "hand": "right"
      },
      {
        "midi": 74,
        "time": 251.25,
        "duration": 0.625,
        "velocity": 1,
        "hand": "right"
      },
      {
        "midi": 62,
        "time": 251.875,
        "duration": 0.625,
        "velocity": 1,
        "hand": "right"
      },
      {
        "midi": 65,
        "time": 251.875,
        "duration": 0.625,
        "velocity": 1,
        "hand": "right"
      },
      {
        "midi": 70,
        "time": 251.875,
        "duration": 0.625,
        "velocity": 1,
        "hand": "right"
      },
      {
        "midi": 43,
        "time": 252.5,
        "duration": 1.25,
        "velocity": 1,
        "hand": "left"
      },
      {
        "midi": 62,
        "time": 253.125,
        "duration": 0.625,
        "velocity": 1,
        "hand": "right"
      },
      {
        "midi": 64,
        "time": 253.125,
        "duration": 0.625,
        "velocity": 1,
        "hand": "right"
      },
      {
        "midi": 70,
        "time": 253.125,
        "duration": 0.61,
        "velocity": 1,
        "hand": "right"
      },
      {
        "midi": 70,
        "time": 253.75,
        "duration": 0.61,
        "velocity": 1,
        "hand": "right"
      },
      {
        "midi": 74,
        "time": 253.75,
        "duration": 0.625,
        "velocity": 1,
        "hand": "right"
      },
      {
        "midi": 62,
        "time": 254.375,
        "duration": 0.625,
        "velocity": 1,
        "hand": "right"
      },
      {
        "midi": 64,
        "time": 254.375,
        "duration": 0.625,
        "velocity": 1,
        "hand": "right"
      },
      {
        "midi": 70,
        "time": 254.375,
        "duration": 0.625,
        "velocity": 1,
        "hand": "right"
      },
      {
        "midi": 41,
        "time": 255,
        "duration": 1.25,
        "velocity": 1,
        "hand": "left"
      },
      {
        "midi": 74,
        "time": 255,
        "duration": 1.235,
        "velocity": 1,
        "hand": "right"
      },
      {
        "midi": 62,
        "time": 255.625,
        "duration": 0.625,
        "velocity": 1,
        "hand": "right"
      },
      {
        "midi": 65,
        "time": 255.625,
        "duration": 0.625,
        "velocity": 1,
        "hand": "right"
      },
      {
        "midi": 70,
        "time": 255.625,
        "duration": 0.61,
        "velocity": 1,
        "hand": "right"
      },
      {
        "midi": 70,
        "time": 256.25,
        "duration": 0.61,
        "velocity": 1,
        "hand": "right"
      },
      {
        "midi": 74,
        "time": 256.25,
        "duration": 0.625,
        "velocity": 1,
        "hand": "right"
      },
      {
        "midi": 62,
        "time": 256.875,
        "duration": 0.625,
        "velocity": 1,
        "hand": "right"
      },
      {
        "midi": 65,
        "time": 256.875,
        "duration": 0.625,
        "velocity": 1,
        "hand": "right"
      },
      {
        "midi": 70,
        "time": 256.875,
        "duration": 0.625,
        "velocity": 1,
        "hand": "right"
      },
      {
        "midi": 41,
        "time": 257.5,
        "duration": 1.25,
        "velocity": 1,
        "hand": "left"
      },
      {
        "midi": 63,
        "time": 258.125,
        "duration": 0.625,
        "velocity": 1,
        "hand": "right"
      },
      {
        "midi": 65,
        "time": 258.125,
        "duration": 0.625,
        "velocity": 1,
        "hand": "right"
      },
      {
        "midi": 69,
        "time": 258.125,
        "duration": 0.61,
        "velocity": 1,
        "hand": "right"
      },
      {
        "midi": 69,
        "time": 258.75,
        "duration": 0.61,
        "velocity": 1,
        "hand": "right"
      },
      {
        "midi": 72,
        "time": 258.75,
        "duration": 0.61,
        "velocity": 1,
        "hand": "right"
      },
      {
        "midi": 63,
        "time": 259.375,
        "duration": 0.625,
        "velocity": 1,
        "hand": "right"
      },
      {
        "midi": 65,
        "time": 259.375,
        "duration": 0.625,
        "velocity": 1,
        "hand": "right"
      },
      {
        "midi": 69,
        "time": 259.375,
        "duration": 0.625,
        "velocity": 1,
        "hand": "right"
      },
      {
        "midi": 72,
        "time": 259.375,
        "duration": 0.625,
        "velocity": 1,
        "hand": "right"
      },
      {
        "midi": 46,
        "time": 260,
        "duration": 1.25,
        "velocity": 1,
        "hand": "left"
      },
      {
        "midi": 70,
        "time": 260,
        "duration": 0.61,
        "velocity": 1,
        "hand": "right"
      },
      {
        "midi": 62,
        "time": 260.625,
        "duration": 0.625,
        "velocity": 1,
        "hand": "right"
      },
      {
        "midi": 65,
        "time": 260.625,
        "duration": 0.625,
        "velocity": 1,
        "hand": "right"
      },
      {
        "midi": 70,
        "time": 260.625,
        "duration": 0.61,
        "velocity": 1,
        "hand": "right"
      },
      {
        "midi": 70,
        "time": 261.25,
        "duration": 0.61,
        "velocity": 1,
        "hand": "right"
      },
      {
        "midi": 74,
        "time": 261.25,
        "duration": 0.625,
        "velocity": 1,
        "hand": "right"
      },
      {
        "midi": 62,
        "time": 261.875,
        "duration": 0.625,
        "velocity": 1,
        "hand": "right"
      },
      {
        "midi": 65,
        "time": 261.875,
        "duration": 0.625,
        "velocity": 1,
        "hand": "right"
      },
      {
        "midi": 70,
        "time": 261.875,
        "duration": 0.625,
        "velocity": 1,
        "hand": "right"
      },
      {
        "midi": 46,
        "time": 262.5,
        "duration": 1.25,
        "velocity": 1,
        "hand": "left"
      },
      {
        "midi": 62,
        "time": 263.125,
        "duration": 0.625,
        "velocity": 1,
        "hand": "right"
      },
      {
        "midi": 65,
        "time": 263.125,
        "duration": 0.625,
        "velocity": 1,
        "hand": "right"
      },
      {
        "midi": 70,
        "time": 263.125,
        "duration": 0.61,
        "velocity": 1,
        "hand": "right"
      },
      {
        "midi": 70,
        "time": 263.75,
        "duration": 0.61,
        "velocity": 1,
        "hand": "right"
      },
      {
        "midi": 74,
        "time": 263.75,
        "duration": 0.625,
        "velocity": 1,
        "hand": "right"
      },
      {
        "midi": 62,
        "time": 264.375,
        "duration": 0.625,
        "velocity": 1,
        "hand": "right"
      },
      {
        "midi": 65,
        "time": 264.375,
        "duration": 0.625,
        "velocity": 1,
        "hand": "right"
      },
      {
        "midi": 70,
        "time": 264.375,
        "duration": 0.625,
        "velocity": 1,
        "hand": "right"
      },
      {
        "midi": 46,
        "time": 265,
        "duration": 1.25,
        "velocity": 1,
        "hand": "left"
      },
      {
        "midi": 65,
        "time": 265.625,
        "duration": 0.625,
        "velocity": 1,
        "hand": "right"
      },
      {
        "midi": 70,
        "time": 265.625,
        "duration": 0.625,
        "velocity": 1,
        "hand": "right"
      },
      {
        "midi": 74,
        "time": 265.625,
        "duration": 0.61,
        "velocity": 1,
        "hand": "right"
      },
      {
        "midi": 74,
        "time": 266.25,
        "duration": 0.61,
        "velocity": 1,
        "hand": "right"
      },
      {
        "midi": 77,
        "time": 266.25,
        "duration": 0.625,
        "velocity": 1,
        "hand": "right"
      },
      {
        "midi": 65,
        "time": 266.875,
        "duration": 0.625,
        "velocity": 1,
        "hand": "right"
      },
      {
        "midi": 70,
        "time": 266.875,
        "duration": 0.625,
        "velocity": 1,
        "hand": "right"
      },
      {
        "midi": 74,
        "time": 266.875,
        "duration": 0.625,
        "velocity": 1,
        "hand": "right"
      },
      {
        "midi": 46,
        "time": 267.5,
        "duration": 1.25,
        "velocity": 1,
        "hand": "left"
      },
      {
        "midi": 68,
        "time": 268.125,
        "duration": 0.625,
        "velocity": 1,
        "hand": "right"
      },
      {
        "midi": 74,
        "time": 268.125,
        "duration": 0.625,
        "velocity": 1,
        "hand": "right"
      },
      {
        "midi": 77,
        "time": 268.125,
        "duration": 0.61,
        "velocity": 1,
        "hand": "right"
      },
      {
        "midi": 77,
        "time": 268.75,
        "duration": 0.61,
        "velocity": 1,
        "hand": "right"
      },
      {
        "midi": 80,
        "time": 268.75,
        "duration": 0.625,
        "velocity": 1,
        "hand": "right"
      },
      {
        "midi": 68,
        "time": 269.375,
        "duration": 0.625,
        "velocity": 1,
        "hand": "right"
      },
      {
        "midi": 74,
        "time": 269.375,
        "duration": 0.625,
        "velocity": 1,
        "hand": "right"
      },
      {
        "midi": 77,
        "time": 269.375,
        "duration": 0.625,
        "velocity": 1,
        "hand": "right"
      },
      {
        "midi": 46,
        "time": 270,
        "duration": 1.25,
        "velocity": 1,
        "hand": "left"
      },
      {
        "midi": 67,
        "time": 270.625,
        "duration": 0.625,
        "velocity": 1,
        "hand": "right"
      },
      {
        "midi": 70,
        "time": 270.625,
        "duration": 0.625,
        "velocity": 1,
        "hand": "right"
      },
      {
        "midi": 75,
        "time": 270.625,
        "duration": 0.61,
        "velocity": 1,
        "hand": "right"
      },
      {
        "midi": 75,
        "time": 271.25,
        "duration": 0.61,
        "velocity": 1,
        "hand": "right"
      },
      {
        "midi": 79,
        "time": 271.25,
        "duration": 0.625,
        "velocity": 1,
        "hand": "right"
      },
      {
        "midi": 67,
        "time": 271.875,
        "duration": 0.625,
        "velocity": 1,
        "hand": "right"
      },
      {
        "midi": 70,
        "time": 271.875,
        "duration": 0.625,
        "velocity": 1,
        "hand": "right"
      },
      {
        "midi": 75,
        "time": 271.875,
        "duration": 0.625,
        "velocity": 1,
        "hand": "right"
      },
      {
        "midi": 46,
        "time": 272.5,
        "duration": 1.25,
        "velocity": 1,
        "hand": "left"
      },
      {
        "midi": 66,
        "time": 273.125,
        "duration": 0.625,
        "velocity": 1,
        "hand": "right"
      },
      {
        "midi": 69,
        "time": 273.125,
        "duration": 0.625,
        "velocity": 1,
        "hand": "right"
      },
      {
        "midi": 75,
        "time": 273.125,
        "duration": 0.61,
        "velocity": 1,
        "hand": "right"
      },
      {
        "midi": 75,
        "time": 273.75,
        "duration": 0.61,
        "velocity": 1,
        "hand": "right"
      },
      {
        "midi": 78,
        "time": 273.75,
        "duration": 0.625,
        "velocity": 1,
        "hand": "right"
      },
      {
        "midi": 66,
        "time": 274.375,
        "duration": 0.625,
        "velocity": 1,
        "hand": "right"
      },
      {
        "midi": 69,
        "time": 274.375,
        "duration": 0.625,
        "velocity": 1,
        "hand": "right"
      },
      {
        "midi": 75,
        "time": 274.375,
        "duration": 0.625,
        "velocity": 1,
        "hand": "right"
      },
      {
        "midi": 46,
        "time": 275,
        "duration": 1.25,
        "velocity": 1,
        "hand": "left"
      },
      {
        "midi": 65,
        "time": 275.625,
        "duration": 0.625,
        "velocity": 1,
        "hand": "right"
      },
      {
        "midi": 70,
        "time": 275.625,
        "duration": 0.625,
        "velocity": 1,
        "hand": "right"
      },
      {
        "midi": 74,
        "time": 275.625,
        "duration": 0.61,
        "velocity": 1,
        "hand": "right"
      },
      {
        "midi": 74,
        "time": 276.25,
        "duration": 0.61,
        "velocity": 1,
        "hand": "right"
      },
      {
        "midi": 77,
        "time": 276.25,
        "duration": 0.625,
        "velocity": 1,
        "hand": "right"
      },
      {
        "midi": 65,
        "time": 276.875,
        "duration": 0.625,
        "velocity": 1,
        "hand": "right"
      },
      {
        "midi": 70,
        "time": 276.875,
        "duration": 0.625,
        "velocity": 1,
        "hand": "right"
      },
      {
        "midi": 74,
        "time": 276.875,
        "duration": 0.625,
        "velocity": 1,
        "hand": "right"
      },
      {
        "midi": 46,
        "time": 277.5,
        "duration": 1.25,
        "velocity": 1,
        "hand": "left"
      },
      {
        "midi": 62,
        "time": 278.125,
        "duration": 0.625,
        "velocity": 1,
        "hand": "right"
      },
      {
        "midi": 65,
        "time": 278.125,
        "duration": 0.625,
        "velocity": 1,
        "hand": "right"
      },
      {
        "midi": 70,
        "time": 278.125,
        "duration": 0.61,
        "velocity": 1,
        "hand": "right"
      },
      {
        "midi": 70,
        "time": 278.75,
        "duration": 0.61,
        "velocity": 1,
        "hand": "right"
      },
      {
        "midi": 74,
        "time": 278.75,
        "duration": 0.625,
        "velocity": 1,
        "hand": "right"
      },
      {
        "midi": 62,
        "time": 279.375,
        "duration": 0.625,
        "velocity": 1,
        "hand": "right"
      },
      {
        "midi": 65,
        "time": 279.375,
        "duration": 0.625,
        "velocity": 1,
        "hand": "right"
      },
      {
        "midi": 70,
        "time": 279.375,
        "duration": 0.61,
        "velocity": 1,
        "hand": "right"
      },
      {
        "midi": 46,
        "time": 280,
        "duration": 1.25,
        "velocity": 1,
        "hand": "left"
      },
      {
        "midi": 70,
        "time": 280,
        "duration": 0.61,
        "velocity": 1,
        "hand": "right"
      },
      {
        "midi": 62,
        "time": 280.625,
        "duration": 0.625,
        "velocity": 1,
        "hand": "right"
      },
      {
        "midi": 65,
        "time": 280.625,
        "duration": 0.625,
        "velocity": 1,
        "hand": "right"
      },
      {
        "midi": 70,
        "time": 280.625,
        "duration": 0.61,
        "velocity": 1,
        "hand": "right"
      },
      {
        "midi": 70,
        "time": 281.25,
        "duration": 0.61,
        "velocity": 1,
        "hand": "right"
      },
      {
        "midi": 74,
        "time": 281.25,
        "duration": 0.625,
        "velocity": 1,
        "hand": "right"
      },
      {
        "midi": 62,
        "time": 281.875,
        "duration": 0.625,
        "velocity": 1,
        "hand": "right"
      },
      {
        "midi": 65,
        "time": 281.875,
        "duration": 0.625,
        "velocity": 1,
        "hand": "right"
      },
      {
        "midi": 70,
        "time": 281.875,
        "duration": 0.625,
        "velocity": 1,
        "hand": "right"
      },
      {
        "midi": 43,
        "time": 282.5,
        "duration": 1.25,
        "velocity": 1,
        "hand": "left"
      },
      {
        "midi": 62,
        "time": 283.125,
        "duration": 0.625,
        "velocity": 1,
        "hand": "right"
      },
      {
        "midi": 64,
        "time": 283.125,
        "duration": 0.625,
        "velocity": 1,
        "hand": "right"
      },
      {
        "midi": 70,
        "time": 283.125,
        "duration": 0.61,
        "velocity": 1,
        "hand": "right"
      },
      {
        "midi": 70,
        "time": 283.75,
        "duration": 0.61,
        "velocity": 1,
        "hand": "right"
      },
      {
        "midi": 74,
        "time": 283.75,
        "duration": 0.625,
        "velocity": 1,
        "hand": "right"
      },
      {
        "midi": 62,
        "time": 284.375,
        "duration": 0.625,
        "velocity": 1,
        "hand": "right"
      },
      {
        "midi": 64,
        "time": 284.375,
        "duration": 0.625,
        "velocity": 1,
        "hand": "right"
      },
      {
        "midi": 70,
        "time": 284.375,
        "duration": 0.625,
        "velocity": 1,
        "hand": "right"
      },
      {
        "midi": 41,
        "time": 285,
        "duration": 1.25,
        "velocity": 1,
        "hand": "left"
      },
      {
        "midi": 74,
        "time": 285,
        "duration": 1.235,
        "velocity": 1,
        "hand": "right"
      },
      {
        "midi": 62,
        "time": 285.625,
        "duration": 0.625,
        "velocity": 1,
        "hand": "right"
      },
      {
        "midi": 65,
        "time": 285.625,
        "duration": 0.625,
        "velocity": 1,
        "hand": "right"
      },
      {
        "midi": 70,
        "time": 285.625,
        "duration": 0.61,
        "velocity": 1,
        "hand": "right"
      },
      {
        "midi": 70,
        "time": 286.25,
        "duration": 0.61,
        "velocity": 1,
        "hand": "right"
      },
      {
        "midi": 74,
        "time": 286.25,
        "duration": 0.625,
        "velocity": 1,
        "hand": "right"
      },
      {
        "midi": 62,
        "time": 286.875,
        "duration": 0.625,
        "velocity": 1,
        "hand": "right"
      },
      {
        "midi": 65,
        "time": 286.875,
        "duration": 0.625,
        "velocity": 1,
        "hand": "right"
      },
      {
        "midi": 70,
        "time": 286.875,
        "duration": 0.625,
        "velocity": 1,
        "hand": "right"
      },
      {
        "midi": 41,
        "time": 287.5,
        "duration": 1.25,
        "velocity": 1,
        "hand": "left"
      },
      {
        "midi": 63,
        "time": 288.125,
        "duration": 0.625,
        "velocity": 1,
        "hand": "right"
      },
      {
        "midi": 69,
        "time": 288.125,
        "duration": 0.625,
        "velocity": 1,
        "hand": "right"
      },
      {
        "midi": 72,
        "time": 288.125,
        "duration": 0.61,
        "velocity": 1,
        "hand": "right"
      },
      {
        "midi": 72,
        "time": 288.75,
        "duration": 0.61,
        "velocity": 1,
        "hand": "right"
      },
      {
        "midi": 75,
        "time": 288.75,
        "duration": 0.625,
        "velocity": 1,
        "hand": "right"
      },
      {
        "midi": 63,
        "time": 289.375,
        "duration": 0.625,
        "velocity": 1,
        "hand": "right"
      },
      {
        "midi": 69,
        "time": 289.375,
        "duration": 0.625,
        "velocity": 1,
        "hand": "right"
      },
      {
        "midi": 72,
        "time": 289.375,
        "duration": 0.625,
        "velocity": 1,
        "hand": "right"
      },
      {
        "midi": 43,
        "time": 290,
        "duration": 1.25,
        "velocity": 1,
        "hand": "left"
      },
      {
        "midi": 70,
        "time": 290,
        "duration": 0.61,
        "velocity": 1,
        "hand": "right"
      },
      {
        "midi": 62,
        "time": 290.625,
        "duration": 0.625,
        "velocity": 1,
        "hand": "right"
      },
      {
        "midi": 67,
        "time": 290.625,
        "duration": 0.625,
        "velocity": 1,
        "hand": "right"
      },
      {
        "midi": 70,
        "time": 290.625,
        "duration": 0.61,
        "velocity": 1,
        "hand": "right"
      },
      {
        "midi": 70,
        "time": 291.25,
        "duration": 0.61,
        "velocity": 1,
        "hand": "right"
      },
      {
        "midi": 74,
        "time": 291.25,
        "duration": 0.625,
        "velocity": 1,
        "hand": "right"
      },
      {
        "midi": 62,
        "time": 291.875,
        "duration": 0.625,
        "velocity": 1,
        "hand": "right"
      },
      {
        "midi": 67,
        "time": 291.875,
        "duration": 0.625,
        "velocity": 1,
        "hand": "right"
      },
      {
        "midi": 70,
        "time": 291.875,
        "duration": 0.625,
        "velocity": 1,
        "hand": "right"
      },
      {
        "midi": 43,
        "time": 292.5,
        "duration": 1.25,
        "velocity": 1,
        "hand": "left"
      },
      {
        "midi": 62,
        "time": 293.125,
        "duration": 0.625,
        "velocity": 1,
        "hand": "right"
      },
      {
        "midi": 67,
        "time": 293.125,
        "duration": 0.625,
        "velocity": 1,
        "hand": "right"
      },
      {
        "midi": 70,
        "time": 293.125,
        "duration": 0.61,
        "velocity": 1,
        "hand": "right"
      },
      {
        "midi": 70,
        "time": 293.75,
        "duration": 0.61,
        "velocity": 1,
        "hand": "right"
      },
      {
        "midi": 74,
        "time": 293.75,
        "duration": 0.625,
        "velocity": 1,
        "hand": "right"
      },
      {
        "midi": 62,
        "time": 294.375,
        "duration": 0.625,
        "velocity": 1,
        "hand": "right"
      },
      {
        "midi": 67,
        "time": 294.375,
        "duration": 0.625,
        "velocity": 1,
        "hand": "right"
      },
      {
        "midi": 70,
        "time": 294.375,
        "duration": 0.625,
        "velocity": 1,
        "hand": "right"
      },
      {
        "midi": 39,
        "time": 295,
        "duration": 1.25,
        "velocity": 1,
        "hand": "left"
      },
      {
        "midi": 72,
        "time": 295,
        "duration": 0.61,
        "velocity": 1,
        "hand": "right"
      },
      {
        "midi": 63,
        "time": 295.625,
        "duration": 0.625,
        "velocity": 1,
        "hand": "right"
      },
      {
        "midi": 67,
        "time": 295.625,
        "duration": 0.625,
        "velocity": 1,
        "hand": "right"
      },
      {
        "midi": 72,
        "time": 295.625,
        "duration": 0.61,
        "velocity": 1,
        "hand": "right"
      },
      {
        "midi": 72,
        "time": 296.25,
        "duration": 0.61,
        "velocity": 1,
        "hand": "right"
      },
      {
        "midi": 75,
        "time": 296.25,
        "duration": 0.625,
        "velocity": 1,
        "hand": "right"
      },
      {
        "midi": 63,
        "time": 296.875,
        "duration": 0.625,
        "velocity": 1,
        "hand": "right"
      },
      {
        "midi": 67,
        "time": 296.875,
        "duration": 0.625,
        "velocity": 1,
        "hand": "right"
      },
      {
        "midi": 72,
        "time": 296.875,
        "duration": 0.61,
        "velocity": 1,
        "hand": "right"
      },
      {
        "midi": 41,
        "time": 297.5,
        "duration": 1.25,
        "velocity": 1,
        "hand": "left"
      },
      {
        "midi": 70,
        "time": 297.5,
        "duration": 0.625,
        "velocity": 1,
        "hand": "right"
      },
      {
        "midi": 72,
        "time": 297.5,
        "duration": 0.313,
        "velocity": 1,
        "hand": "right"
      },
      {
        "midi": 74,
        "time": 297.5,
        "duration": 0.313,
        "velocity": 1,
        "hand": "right"
      },
      {
        "midi": 63,
        "time": 298.125,
        "duration": 0.625,
        "velocity": 1,
        "hand": "right"
      },
      {
        "midi": 65,
        "time": 298.125,
        "duration": 0.625,
        "velocity": 1,
        "hand": "right"
      },
      {
        "midi": 69,
        "time": 298.125,
        "duration": 0.61,
        "velocity": 1,
        "hand": "right"
      },
      {
        "midi": 67,
        "time": 298.75,
        "duration": 0.625,
        "velocity": 1,
        "hand": "right"
      },
      {
        "midi": 69,
        "time": 298.75,
        "duration": 0.61,
        "velocity": 1,
        "hand": "right"
      },
      {
        "midi": 72,
        "time": 298.75,
        "duration": 0.625,
        "velocity": 1,
        "hand": "right"
      },
      {
        "midi": 63,
        "time": 299.375,
        "duration": 0.625,
        "velocity": 1,
        "hand": "right"
      },
      {
        "midi": 65,
        "time": 299.375,
        "duration": 0.625,
        "velocity": 1,
        "hand": "right"
      },
      {
        "midi": 69,
        "time": 299.375,
        "duration": 0.625,
        "velocity": 1,
        "hand": "right"
      },
      {
        "midi": 46,
        "time": 300,
        "duration": 1.25,
        "velocity": 1,
        "hand": "left"
      },
      {
        "midi": 70,
        "time": 300,
        "duration": 0.61,
        "velocity": 1,
        "hand": "right"
      },
      {
        "midi": 62,
        "time": 300.625,
        "duration": 0.625,
        "velocity": 1,
        "hand": "right"
      },
      {
        "midi": 65,
        "time": 300.625,
        "duration": 0.625,
        "velocity": 1,
        "hand": "right"
      },
      {
        "midi": 70,
        "time": 300.625,
        "duration": 0.61,
        "velocity": 1,
        "hand": "right"
      },
      {
        "midi": 70,
        "time": 301.25,
        "duration": 0.61,
        "velocity": 1,
        "hand": "right"
      },
      {
        "midi": 74,
        "time": 301.25,
        "duration": 0.625,
        "velocity": 1,
        "hand": "right"
      },
      {
        "midi": 62,
        "time": 301.875,
        "duration": 0.625,
        "velocity": 1,
        "hand": "right"
      },
      {
        "midi": 65,
        "time": 301.875,
        "duration": 0.625,
        "velocity": 1,
        "hand": "right"
      },
      {
        "midi": 70,
        "time": 301.875,
        "duration": 0.625,
        "velocity": 1,
        "hand": "right"
      },
      {
        "midi": 46,
        "time": 302.5,
        "duration": 1.25,
        "velocity": 1,
        "hand": "left"
      },
      {
        "midi": 62,
        "time": 303.125,
        "duration": 0.625,
        "velocity": 1,
        "hand": "right"
      },
      {
        "midi": 65,
        "time": 303.125,
        "duration": 0.625,
        "velocity": 1,
        "hand": "right"
      },
      {
        "midi": 70,
        "time": 303.125,
        "duration": 0.61,
        "velocity": 1,
        "hand": "right"
      },
      {
        "midi": 70,
        "time": 303.75,
        "duration": 0.61,
        "velocity": 1,
        "hand": "right"
      },
      {
        "midi": 74,
        "time": 303.75,
        "duration": 1.235,
        "velocity": 1,
        "hand": "right"
      },
      {
        "midi": 62,
        "time": 304.375,
        "duration": 0.625,
        "velocity": 1,
        "hand": "right"
      },
      {
        "midi": 65,
        "time": 304.375,
        "duration": 0.625,
        "velocity": 1,
        "hand": "right"
      },
      {
        "midi": 70,
        "time": 304.375,
        "duration": 0.625,
        "velocity": 1,
        "hand": "right"
      },
      {
        "midi": 46,
        "time": 305,
        "duration": 1.25,
        "velocity": 1,
        "hand": "left"
      },
      {
        "midi": 74,
        "time": 305,
        "duration": 1.235,
        "velocity": 1,
        "hand": "right"
      },
      {
        "midi": 62,
        "time": 305.625,
        "duration": 0.625,
        "velocity": 1,
        "hand": "right"
      },
      {
        "midi": 66,
        "time": 305.625,
        "duration": 0.625,
        "velocity": 1,
        "hand": "right"
      },
      {
        "midi": 70,
        "time": 305.625,
        "duration": 0.61,
        "velocity": 1,
        "hand": "right"
      },
      {
        "midi": 70,
        "time": 306.25,
        "duration": 0.61,
        "velocity": 1,
        "hand": "right"
      },
      {
        "midi": 74,
        "time": 306.25,
        "duration": 0.625,
        "velocity": 1,
        "hand": "right"
      },
      {
        "midi": 62,
        "time": 306.875,
        "duration": 0.625,
        "velocity": 1,
        "hand": "right"
      },
      {
        "midi": 66,
        "time": 306.875,
        "duration": 0.625,
        "velocity": 1,
        "hand": "right"
      },
      {
        "midi": 70,
        "time": 306.875,
        "duration": 0.61,
        "velocity": 1,
        "hand": "right"
      },
      {
        "midi": 72,
        "time": 306.875,
        "duration": 0.625,
        "velocity": 1,
        "hand": "right"
      },
      {
        "midi": 46,
        "time": 307.5,
        "duration": 1.25,
        "velocity": 1,
        "hand": "left"
      },
      {
        "midi": 70,
        "time": 307.5,
        "duration": 0.61,
        "velocity": 1,
        "hand": "right"
      },
      {
        "midi": 62,
        "time": 308.125,
        "duration": 0.625,
        "velocity": 1,
        "hand": "right"
      },
      {
        "midi": 67,
        "time": 308.125,
        "duration": 0.625,
        "velocity": 1,
        "hand": "right"
      },
      {
        "midi": 70,
        "time": 308.125,
        "duration": 0.61,
        "velocity": 1,
        "hand": "right"
      },
      {
        "midi": 70,
        "time": 308.75,
        "duration": 0.61,
        "velocity": 1,
        "hand": "right"
      },
      {
        "midi": 74,
        "time": 308.75,
        "duration": 0.625,
        "velocity": 1,
        "hand": "right"
      },
      {
        "midi": 62,
        "time": 309.375,
        "duration": 0.625,
        "velocity": 1,
        "hand": "right"
      },
      {
        "midi": 67,
        "time": 309.375,
        "duration": 0.625,
        "velocity": 1,
        "hand": "right"
      },
      {
        "midi": 70,
        "time": 309.375,
        "duration": 0.625,
        "velocity": 1,
        "hand": "right"
      },
      {
        "midi": 76,
        "time": 309.375,
        "duration": 0.625,
        "velocity": 1,
        "hand": "right"
      },
      {
        "midi": 45,
        "time": 310,
        "duration": 1.25,
        "velocity": 1,
        "hand": "left"
      },
      {
        "midi": 74,
        "time": 310,
        "duration": 1.235,
        "velocity": 1,
        "hand": "right"
      },
      {
        "midi": 64,
        "time": 310.625,
        "duration": 0.625,
        "velocity": 1,
        "hand": "right"
      },
      {
        "midi": 67,
        "time": 310.625,
        "duration": 0.625,
        "velocity": 1,
        "hand": "right"
      },
      {
        "midi": 70,
        "time": 310.625,
        "duration": 0.61,
        "velocity": 1,
        "hand": "right"
      },
      {
        "midi": 70,
        "time": 311.25,
        "duration": 0.61,
        "velocity": 1,
        "hand": "right"
      },
      {
        "midi": 74,
        "time": 311.25,
        "duration": 0.625,
        "velocity": 1,
        "hand": "right"
      },
      {
        "midi": 64,
        "time": 311.875,
        "duration": 0.625,
        "velocity": 1,
        "hand": "right"
      },
      {
        "midi": 67,
        "time": 311.875,
        "duration": 0.625,
        "velocity": 1,
        "hand": "right"
      },
      {
        "midi": 70,
        "time": 311.875,
        "duration": 0.625,
        "velocity": 1,
        "hand": "right"
      },
      {
        "midi": 45,
        "time": 312.5,
        "duration": 1.25,
        "velocity": 1,
        "hand": "left"
      },
      {
        "midi": 73,
        "time": 312.5,
        "duration": 1.235,
        "velocity": 1,
        "hand": "right"
      },
      {
        "midi": 64,
        "time": 313.125,
        "duration": 0.625,
        "velocity": 1,
        "hand": "right"
      },
      {
        "midi": 67,
        "time": 313.125,
        "duration": 0.625,
        "velocity": 1,
        "hand": "right"
      },
      {
        "midi": 69,
        "time": 313.125,
        "duration": 0.61,
        "velocity": 1,
        "hand": "right"
      },
      {
        "midi": 69,
        "time": 313.75,
        "duration": 0.61,
        "velocity": 1,
        "hand": "right"
      },
      {
        "midi": 73,
        "time": 313.75,
        "duration": 0.625,
        "velocity": 1,
        "hand": "right"
      },
      {
        "midi": 64,
        "time": 314.375,
        "duration": 0.625,
        "velocity": 1,
        "hand": "right"
      },
      {
        "midi": 67,
        "time": 314.375,
        "duration": 0.625,
        "velocity": 1,
        "hand": "right"
      },
      {
        "midi": 69,
        "time": 314.375,
        "duration": 0.625,
        "velocity": 1,
        "hand": "right"
      },
      {
        "midi": 42,
        "time": 315,
        "duration": 1.25,
        "velocity": 1,
        "hand": "left"
      },
      {
        "midi": 72,
        "time": 315,
        "duration": 0.61,
        "velocity": 1,
        "hand": "right"
      },
      {
        "midi": 63,
        "time": 315.625,
        "duration": 0.625,
        "velocity": 1,
        "hand": "right"
      },
      {
        "midi": 69,
        "time": 315.625,
        "duration": 0.625,
        "velocity": 1,
        "hand": "right"
      },
      {
        "midi": 72,
        "time": 315.625,
        "duration": 0.61,
        "velocity": 1,
        "hand": "right"
      },
      {
        "midi": 72,
        "time": 316.25,
        "duration": 0.61,
        "velocity": 1,
        "hand": "right"
      },
      {
        "midi": 75,
        "time": 316.25,
        "duration": 0.625,
        "velocity": 1,
        "hand": "right"
      },
      {
        "midi": 63,
        "time": 316.875,
        "duration": 0.625,
        "velocity": 1,
        "hand": "right"
      },
      {
        "midi": 70,
        "time": 316.875,
        "duration": 0.625,
        "velocity": 1,
        "hand": "right"
      },
      {
        "midi": 72,
        "time": 316.875,
        "duration": 0.625,
        "velocity": 1,
        "hand": "right"
      },
      {
        "midi": 42,
        "time": 317.5,
        "duration": 1.25,
        "velocity": 1,
        "hand": "left"
      },
      {
        "midi": 69,
        "time": 317.5,
        "duration": 0.61,
        "velocity": 1,
        "hand": "right"
      },
      {
        "midi": 63,
        "time": 318.125,
        "duration": 0.625,
        "velocity": 1,
        "hand": "right"
      },
      {
        "midi": 69,
        "time": 318.125,
        "duration": 0.625,
        "velocity": 1,
        "hand": "right"
      },
      {
        "midi": 72,
        "time": 318.125,
        "duration": 0.61,
        "velocity": 1,
        "hand": "right"
      },
      {
        "midi": 74,
        "time": 318.125,
        "duration": 0.625,
        "velocity": 1,
        "hand": "right"
      },
      {
        "midi": 72,
        "time": 318.75,
        "duration": 0.61,
        "velocity": 1,
        "hand": "right"
      },
      {
        "midi": 75,
        "time": 318.75,
        "duration": 0.625,
        "velocity": 1,
        "hand": "right"
      },
      {
        "midi": 63,
        "time": 319.375,
        "duration": 0.625,
        "velocity": 1,
        "hand": "right"
      },
      {
        "midi": 69,
        "time": 319.375,
        "duration": 0.625,
        "velocity": 1,
        "hand": "right"
      },
      {
        "midi": 72,
        "time": 319.375,
        "duration": 0.625,
        "velocity": 1,
        "hand": "right"
      },
      {
        "midi": 43,
        "time": 320,
        "duration": 1.25,
        "velocity": 1,
        "hand": "left"
      },
      {
        "midi": 70,
        "time": 320,
        "duration": 0.61,
        "velocity": 1,
        "hand": "right"
      },
      {
        "midi": 62,
        "time": 320.625,
        "duration": 0.625,
        "velocity": 1,
        "hand": "right"
      },
      {
        "midi": 67,
        "time": 320.625,
        "duration": 0.625,
        "velocity": 1,
        "hand": "right"
      },
      {
        "midi": 70,
        "time": 320.625,
        "duration": 0.61,
        "velocity": 1,
        "hand": "right"
      },
      {
        "midi": 70,
        "time": 321.25,
        "duration": 0.61,
        "velocity": 1,
        "hand": "right"
      },
      {
        "midi": 74,
        "time": 321.25,
        "duration": 0.625,
        "velocity": 1,
        "hand": "right"
      },
      {
        "midi": 62,
        "time": 321.875,
        "duration": 0.625,
        "velocity": 1,
        "hand": "right"
      },
      {
        "midi": 67,
        "time": 321.875,
        "duration": 0.625,
        "velocity": 1,
        "hand": "right"
      },
      {
        "midi": 70,
        "time": 321.875,
        "duration": 0.625,
        "velocity": 1,
        "hand": "right"
      },
      {
        "midi": 43,
        "time": 322.5,
        "duration": 1.25,
        "velocity": 1,
        "hand": "left"
      },
      {
        "midi": 62,
        "time": 323.125,
        "duration": 0.625,
        "velocity": 1,
        "hand": "right"
      },
      {
        "midi": 64,
        "time": 323.125,
        "duration": 0.625,
        "velocity": 1,
        "hand": "right"
      },
      {
        "midi": 70,
        "time": 323.125,
        "duration": 0.61,
        "velocity": 1,
        "hand": "right"
      },
      {
        "midi": 70,
        "time": 323.75,
        "duration": 0.61,
        "velocity": 1,
        "hand": "right"
      },
      {
        "midi": 74,
        "time": 323.75,
        "duration": 0.625,
        "velocity": 1,
        "hand": "right"
      },
      {
        "midi": 62,
        "time": 324.375,
        "duration": 0.625,
        "velocity": 1,
        "hand": "right"
      },
      {
        "midi": 64,
        "time": 324.375,
        "duration": 0.625,
        "velocity": 1,
        "hand": "right"
      },
      {
        "midi": 70,
        "time": 324.375,
        "duration": 0.625,
        "velocity": 1,
        "hand": "right"
      },
      {
        "midi": 72,
        "time": 324.375,
        "duration": 0.61,
        "velocity": 1,
        "hand": "right"
      },
      {
        "midi": 45,
        "time": 325,
        "duration": 1.25,
        "velocity": 1,
        "hand": "left"
      },
      {
        "midi": 72,
        "time": 325,
        "duration": 1.235,
        "velocity": 1,
        "hand": "right"
      },
      {
        "midi": 60,
        "time": 325.625,
        "duration": 0.625,
        "velocity": 1,
        "hand": "right"
      },
      {
        "midi": 65,
        "time": 325.625,
        "duration": 0.625,
        "velocity": 1,
        "hand": "right"
      },
      {
        "midi": 69,
        "time": 325.625,
        "duration": 0.61,
        "velocity": 1,
        "hand": "right"
      },
      {
        "midi": 69,
        "time": 326.25,
        "duration": 0.61,
        "velocity": 1,
        "hand": "right"
      },
      {
        "midi": 72,
        "time": 326.25,
        "duration": 0.625,
        "velocity": 1,
        "hand": "right"
      },
      {
        "midi": 60,
        "time": 326.875,
        "duration": 0.625,
        "velocity": 1,
        "hand": "right"
      },
      {
        "midi": 65,
        "time": 326.875,
        "duration": 0.625,
        "velocity": 1,
        "hand": "right"
      },
      {
        "midi": 69,
        "time": 326.875,
        "duration": 0.625,
        "velocity": 1,
        "hand": "right"
      },
      {
        "midi": 38,
        "time": 327.5,
        "duration": 1.25,
        "velocity": 1,
        "hand": "left"
      },
      {
        "midi": 50,
        "time": 327.5,
        "duration": 1.25,
        "velocity": 1,
        "hand": "left"
      },
      {
        "midi": 67,
        "time": 327.5,
        "duration": 0.61,
        "velocity": 1,
        "hand": "right"
      },
      {
        "midi": 65,
        "time": 328.125,
        "duration": 0.625,
        "velocity": 1,
        "hand": "right"
      },
      {
        "midi": 67,
        "time": 328.125,
        "duration": 0.625,
        "velocity": 1,
        "hand": "right"
      },
      {
        "midi": 71,
        "time": 328.125,
        "duration": 0.61,
        "velocity": 1,
        "hand": "right"
      },
      {
        "midi": 74,
        "time": 328.125,
        "duration": 0.625,
        "velocity": 1,
        "hand": "right"
      },
      {
        "midi": 71,
        "time": 328.75,
        "duration": 0.61,
        "velocity": 1,
        "hand": "right"
      },
      {
        "midi": 77,
        "time": 328.75,
        "duration": 0.625,
        "velocity": 1,
        "hand": "right"
      },
      {
        "midi": 65,
        "time": 329.375,
        "duration": 0.625,
        "velocity": 1,
        "hand": "right"
      },
      {
        "midi": 67,
        "time": 329.375,
        "duration": 0.625,
        "velocity": 1,
        "hand": "right"
      },
      {
        "midi": 71,
        "time": 329.375,
        "duration": 0.625,
        "velocity": 1,
        "hand": "right"
      },
      {
        "midi": 74,
        "time": 329.375,
        "duration": 0.625,
        "velocity": 1,
        "hand": "right"
      },
      {
        "midi": 36,
        "time": 330,
        "duration": 1.25,
        "velocity": 1,
        "hand": "left"
      },
      {
        "midi": 48,
        "time": 330,
        "duration": 1.25,
        "velocity": 1,
        "hand": "left"
      },
      {
        "midi": 72,
        "time": 330,
        "duration": 0.61,
        "velocity": 1,
        "hand": "right"
      },
      {
        "midi": 65,
        "time": 330.625,
        "duration": 0.625,
        "velocity": 1,
        "hand": "right"
      },
      {
        "midi": 69,
        "time": 330.625,
        "duration": 0.625,
        "velocity": 1,
        "hand": "right"
      },
      {
        "midi": 72,
        "time": 330.625,
        "duration": 0.61,
        "velocity": 1,
        "hand": "right"
      },
      {
        "midi": 72,
        "time": 331.25,
        "duration": 0.61,
        "velocity": 1,
        "hand": "right"
      },
      {
        "midi": 77,
        "time": 331.25,
        "duration": 0.625,
        "velocity": 1,
        "hand": "right"
      },
      {
        "midi": 65,
        "time": 331.875,
        "duration": 0.625,
        "velocity": 1,
        "hand": "right"
      },
      {
        "midi": 69,
        "time": 331.875,
        "duration": 0.625,
        "velocity": 1,
        "hand": "right"
      },
      {
        "midi": 72,
        "time": 331.875,
        "duration": 0.625,
        "velocity": 1,
        "hand": "right"
      },
      {
        "midi": 36,
        "time": 332.5,
        "duration": 1.25,
        "velocity": 1,
        "hand": "left"
      },
      {
        "midi": 48,
        "time": 332.5,
        "duration": 1.25,
        "velocity": 1,
        "hand": "left"
      },
      {
        "midi": 67,
        "time": 333.125,
        "duration": 0.625,
        "velocity": 1,
        "hand": "right"
      },
      {
        "midi": 70,
        "time": 333.125,
        "duration": 0.61,
        "velocity": 1,
        "hand": "right"
      },
      {
        "midi": 72,
        "time": 333.125,
        "duration": 0.61,
        "velocity": 1,
        "hand": "right"
      },
      {
        "midi": 70,
        "time": 333.75,
        "duration": 0.313,
        "velocity": 1,
        "hand": "right"
      },
      {
        "midi": 72,
        "time": 333.75,
        "duration": 0.61,
        "velocity": 1,
        "hand": "right"
      },
      {
        "midi": 76,
        "time": 333.75,
        "duration": 0.625,
        "velocity": 1,
        "hand": "right"
      },
      {
        "midi": 67,
        "time": 334.375,
        "duration": 0.625,
        "velocity": 1,
        "hand": "right"
      },
      {
        "midi": 70,
        "time": 334.375,
        "duration": 0.625,
        "velocity": 1,
        "hand": "right"
      },
      {
        "midi": 72,
        "time": 334.375,
        "duration": 0.625,
        "velocity": 1,
        "hand": "right"
      },
      {
        "midi": 41,
        "time": 335,
        "duration": 1.25,
        "velocity": 1,
        "hand": "left"
      },
      {
        "midi": 53,
        "time": 335,
        "duration": 1.25,
        "velocity": 1,
        "hand": "left"
      },
      {
        "midi": 65,
        "time": 335,
        "duration": 0.61,
        "velocity": 1,
        "hand": "right"
      },
      {
        "midi": 65,
        "time": 335.625,
        "duration": 0.625,
        "velocity": 1,
        "hand": "right"
      },
      {
        "midi": 69,
        "time": 335.625,
        "duration": 0.625,
        "velocity": 1,
        "hand": "right"
      },
      {
        "midi": 72,
        "time": 335.625,
        "duration": 0.61,
        "velocity": 1,
        "hand": "right"
      },
      {
        "midi": 72,
        "time": 336.25,
        "duration": 0.61,
        "velocity": 1,
        "hand": "right"
      },
      {
        "midi": 77,
        "time": 336.25,
        "duration": 0.625,
        "velocity": 1,
        "hand": "right"
      },
      {
        "midi": 65,
        "time": 336.875,
        "duration": 0.625,
        "velocity": 1,
        "hand": "right"
      },
      {
        "midi": 69,
        "time": 336.875,
        "duration": 0.625,
        "velocity": 1,
        "hand": "right"
      },
      {
        "midi": 72,
        "time": 336.875,
        "duration": 0.625,
        "velocity": 1,
        "hand": "right"
      },
      {
        "midi": 41,
        "time": 337.5,
        "duration": 1.25,
        "velocity": 1,
        "hand": "left"
      },
      {
        "midi": 53,
        "time": 337.5,
        "duration": 1.25,
        "velocity": 1,
        "hand": "left"
      },
      {
        "midi": 65,
        "time": 338.125,
        "duration": 0.61,
        "velocity": 1,
        "hand": "right"
      },
      {
        "midi": 69,
        "time": 338.125,
        "duration": 0.625,
        "velocity": 1,
        "hand": "right"
      },
      {
        "midi": 72,
        "time": 338.125,
        "duration": 0.61,
        "velocity": 1,
        "hand": "right"
      },
      {
        "midi": 65,
        "time": 338.75,
        "duration": 0.61,
        "velocity": 1,
        "hand": "right"
      },
      {
        "midi": 72,
        "time": 338.75,
        "duration": 0.61,
        "velocity": 1,
        "hand": "right"
      },
      {
        "midi": 77,
        "time": 338.75,
        "duration": 0.625,
        "velocity": 1,
        "hand": "right"
      },
      {
        "midi": 65,
        "time": 339.375,
        "duration": 0.625,
        "velocity": 1,
        "hand": "right"
      },
      {
        "midi": 69,
        "time": 339.375,
        "duration": 0.625,
        "velocity": 1,
        "hand": "right"
      },
      {
        "midi": 72,
        "time": 339.375,
        "duration": 0.61,
        "velocity": 1,
        "hand": "right"
      },
      {
        "midi": 41,
        "time": 340,
        "duration": 1.25,
        "velocity": 1,
        "hand": "left"
      },
      {
        "midi": 53,
        "time": 340,
        "duration": 1.25,
        "velocity": 1,
        "hand": "left"
      },
      {
        "midi": 72,
        "time": 340,
        "duration": 0.61,
        "velocity": 1,
        "hand": "right"
      },
      {
        "midi": 63,
        "time": 340.625,
        "duration": 0.625,
        "velocity": 1,
        "hand": "right"
      },
      {
        "midi": 69,
        "time": 340.625,
        "duration": 0.625,
        "velocity": 1,
        "hand": "right"
      },
      {
        "midi": 72,
        "time": 340.625,
        "duration": 0.61,
        "velocity": 1,
        "hand": "right"
      },
      {
        "midi": 72,
        "time": 341.25,
        "duration": 0.61,
        "velocity": 1,
        "hand": "right"
      },
      {
        "midi": 77,
        "time": 341.25,
        "duration": 0.625,
        "velocity": 1,
        "hand": "right"
      },
      {
        "midi": 63,
        "time": 341.875,
        "duration": 0.625,
        "velocity": 1,
        "hand": "right"
      },
      {
        "midi": 69,
        "time": 341.875,
        "duration": 0.625,
        "velocity": 1,
        "hand": "right"
      },
      {
        "midi": 72,
        "time": 341.875,
        "duration": 0.61,
        "velocity": 1,
        "hand": "right"
      },
      {
        "midi": 41,
        "time": 342.5,
        "duration": 1.25,
        "velocity": 1,
        "hand": "left"
      },
      {
        "midi": 53,
        "time": 342.5,
        "duration": 1.25,
        "velocity": 1,
        "hand": "left"
      },
      {
        "midi": 72,
        "time": 342.5,
        "duration": 0.61,
        "velocity": 1,
        "hand": "right"
      },
      {
        "midi": 63,
        "time": 343.125,
        "duration": 0.625,
        "velocity": 1,
        "hand": "right"
      },
      {
        "midi": 69,
        "time": 343.125,
        "duration": 0.625,
        "velocity": 1,
        "hand": "right"
      },
      {
        "midi": 72,
        "time": 343.125,
        "duration": 0.61,
        "velocity": 1,
        "hand": "right"
      },
      {
        "midi": 72,
        "time": 343.75,
        "duration": 0.61,
        "velocity": 1,
        "hand": "right"
      },
      {
        "midi": 77,
        "time": 343.75,
        "duration": 0.625,
        "velocity": 1,
        "hand": "right"
      },
      {
        "midi": 63,
        "time": 344.375,
        "duration": 0.625,
        "velocity": 1,
        "hand": "right"
      },
      {
        "midi": 69,
        "time": 344.375,
        "duration": 0.625,
        "velocity": 1,
        "hand": "right"
      },
      {
        "midi": 72,
        "time": 344.375,
        "duration": 0.61,
        "velocity": 1,
        "hand": "right"
      },
      {
        "midi": 41,
        "time": 345,
        "duration": 1.25,
        "velocity": 1,
        "hand": "left"
      },
      {
        "midi": 53,
        "time": 345,
        "duration": 1.25,
        "velocity": 1,
        "hand": "left"
      },
      {
        "midi": 72,
        "time": 345,
        "duration": 1.25,
        "velocity": 1,
        "hand": "right"
      },
      {
        "midi": 74,
        "time": 345,
        "duration": 0.61,
        "velocity": 1,
        "hand": "right"
      },
      {
        "midi": 62,
        "time": 345.625,
        "duration": 0.625,
        "velocity": 1,
        "hand": "right"
      },
      {
        "midi": 70,
        "time": 345.625,
        "duration": 0.61,
        "velocity": 1,
        "hand": "right"
      },
      {
        "midi": 74,
        "time": 345.625,
        "duration": 0.61,
        "velocity": 1,
        "hand": "right"
      },
      {
        "midi": 70,
        "time": 346.25,
        "duration": 0.61,
        "velocity": 1,
        "hand": "right"
      },
      {
        "midi": 74,
        "time": 346.25,
        "duration": 0.61,
        "velocity": 1,
        "hand": "right"
      },
      {
        "midi": 77,
        "time": 346.25,
        "duration": 0.625,
        "velocity": 1,
        "hand": "right"
      },
      {
        "midi": 62,
        "time": 346.875,
        "duration": 0.625,
        "velocity": 1,
        "hand": "right"
      },
      {
        "midi": 70,
        "time": 346.875,
        "duration": 0.625,
        "velocity": 1,
        "hand": "right"
      },
      {
        "midi": 74,
        "time": 346.875,
        "duration": 0.625,
        "velocity": 1,
        "hand": "right"
      },
      {
        "midi": 41,
        "time": 347.5,
        "duration": 1.25,
        "velocity": 1,
        "hand": "left"
      },
      {
        "midi": 53,
        "time": 347.5,
        "duration": 1.25,
        "velocity": 1,
        "hand": "left"
      },
      {
        "midi": 62,
        "time": 348.125,
        "duration": 0.625,
        "velocity": 1,
        "hand": "right"
      },
      {
        "midi": 70,
        "time": 348.125,
        "duration": 0.61,
        "velocity": 1,
        "hand": "right"
      },
      {
        "midi": 74,
        "time": 348.125,
        "duration": 0.61,
        "velocity": 1,
        "hand": "right"
      },
      {
        "midi": 70,
        "time": 348.75,
        "duration": 0.61,
        "velocity": 1,
        "hand": "right"
      },
      {
        "midi": 74,
        "time": 348.75,
        "duration": 0.61,
        "velocity": 1,
        "hand": "right"
      },
      {
        "midi": 77,
        "time": 348.75,
        "duration": 0.625,
        "velocity": 1,
        "hand": "right"
      },
      {
        "midi": 62,
        "time": 349.375,
        "duration": 0.625,
        "velocity": 1,
        "hand": "right"
      },
      {
        "midi": 70,
        "time": 349.375,
        "duration": 0.625,
        "velocity": 1,
        "hand": "right"
      },
      {
        "midi": 74,
        "time": 349.375,
        "duration": 0.625,
        "velocity": 1,
        "hand": "right"
      },
      {
        "midi": 41,
        "time": 350,
        "duration": 1.25,
        "velocity": 1,
        "hand": "left"
      },
      {
        "midi": 53,
        "time": 350,
        "duration": 1.25,
        "velocity": 1,
        "hand": "left"
      },
      {
        "midi": 72,
        "time": 350,
        "duration": 0.61,
        "velocity": 1,
        "hand": "right"
      },
      {
        "midi": 63,
        "time": 350.625,
        "duration": 0.625,
        "velocity": 1,
        "hand": "right"
      },
      {
        "midi": 69,
        "time": 350.625,
        "duration": 0.625,
        "velocity": 1,
        "hand": "right"
      },
      {
        "midi": 72,
        "time": 350.625,
        "duration": 0.61,
        "velocity": 1,
        "hand": "right"
      },
      {
        "midi": 72,
        "time": 351.25,
        "duration": 0.61,
        "velocity": 1,
        "hand": "right"
      },
      {
        "midi": 77,
        "time": 351.25,
        "duration": 0.625,
        "velocity": 1,
        "hand": "right"
      },
      {
        "midi": 63,
        "time": 351.875,
        "duration": 0.625,
        "velocity": 1,
        "hand": "right"
      },
      {
        "midi": 69,
        "time": 351.875,
        "duration": 0.625,
        "velocity": 1,
        "hand": "right"
      },
      {
        "midi": 72,
        "time": 351.875,
        "duration": 0.61,
        "velocity": 1,
        "hand": "right"
      },
      {
        "midi": 41,
        "time": 352.5,
        "duration": 1.25,
        "velocity": 1,
        "hand": "left"
      },
      {
        "midi": 53,
        "time": 352.5,
        "duration": 1.25,
        "velocity": 1,
        "hand": "left"
      },
      {
        "midi": 72,
        "time": 352.5,
        "duration": 0.61,
        "velocity": 1,
        "hand": "right"
      },
      {
        "midi": 63,
        "time": 353.125,
        "duration": 0.625,
        "velocity": 1,
        "hand": "right"
      },
      {
        "midi": 69,
        "time": 353.125,
        "duration": 0.625,
        "velocity": 1,
        "hand": "right"
      },
      {
        "midi": 72,
        "time": 353.125,
        "duration": 0.61,
        "velocity": 1,
        "hand": "right"
      },
      {
        "midi": 72,
        "time": 353.75,
        "duration": 0.61,
        "velocity": 1,
        "hand": "right"
      },
      {
        "midi": 75,
        "time": 353.75,
        "duration": 0.625,
        "velocity": 1,
        "hand": "right"
      },
      {
        "midi": 77,
        "time": 353.75,
        "duration": 0.625,
        "velocity": 1,
        "hand": "right"
      },
      {
        "midi": 63,
        "time": 354.375,
        "duration": 0.625,
        "velocity": 1,
        "hand": "right"
      },
      {
        "midi": 69,
        "time": 354.375,
        "duration": 0.625,
        "velocity": 1,
        "hand": "right"
      },
      {
        "midi": 72,
        "time": 354.375,
        "duration": 0.625,
        "velocity": 1,
        "hand": "right"
      },
      {
        "midi": 74,
        "time": 354.375,
        "duration": 0.625,
        "velocity": 1,
        "hand": "right"
      },
      {
        "midi": 43,
        "time": 355,
        "duration": 1.25,
        "velocity": 1,
        "hand": "left"
      },
      {
        "midi": 55,
        "time": 355,
        "duration": 1.25,
        "velocity": 1,
        "hand": "left"
      },
      {
        "midi": 70,
        "time": 355,
        "duration": 0.61,
        "velocity": 1,
        "hand": "right"
      },
      {
        "midi": 62,
        "time": 355.625,
        "duration": 0.625,
        "velocity": 1,
        "hand": "right"
      },
      {
        "midi": 67,
        "time": 355.625,
        "duration": 0.625,
        "velocity": 1,
        "hand": "right"
      },
      {
        "midi": 70,
        "time": 355.625,
        "duration": 0.61,
        "velocity": 1,
        "hand": "right"
      },
      {
        "midi": 70,
        "time": 356.25,
        "duration": 0.61,
        "velocity": 1,
        "hand": "right"
      },
      {
        "midi": 74,
        "time": 356.25,
        "duration": 0.625,
        "velocity": 1,
        "hand": "right"
      },
      {
        "midi": 62,
        "time": 356.875,
        "duration": 0.625,
        "velocity": 1,
        "hand": "right"
      },
      {
        "midi": 67,
        "time": 356.875,
        "duration": 0.625,
        "velocity": 1,
        "hand": "right"
      },
      {
        "midi": 70,
        "time": 356.875,
        "duration": 0.625,
        "velocity": 1,
        "hand": "right"
      },
      {
        "midi": 43,
        "time": 357.5,
        "duration": 1.25,
        "velocity": 1,
        "hand": "left"
      },
      {
        "midi": 55,
        "time": 357.5,
        "duration": 1.25,
        "velocity": 1,
        "hand": "left"
      },
      {
        "midi": 58,
        "time": 358.125,
        "duration": 0.625,
        "velocity": 1,
        "hand": "left"
      },
      {
        "midi": 62,
        "time": 358.125,
        "duration": 0.625,
        "velocity": 1,
        "hand": "right"
      },
      {
        "midi": 67,
        "time": 358.125,
        "duration": 0.61,
        "velocity": 1,
        "hand": "right"
      },
      {
        "midi": 67,
        "time": 358.75,
        "duration": 0.61,
        "velocity": 1,
        "hand": "right"
      },
      {
        "midi": 70,
        "time": 358.75,
        "duration": 1.25,
        "velocity": 1,
        "hand": "right"
      },
      {
        "midi": 58,
        "time": 359.375,
        "duration": 0.625,
        "velocity": 1,
        "hand": "left"
      },
      {
        "midi": 62,
        "time": 359.375,
        "duration": 0.625,
        "velocity": 1,
        "hand": "right"
      },
      {
        "midi": 67,
        "time": 359.375,
        "duration": 0.625,
        "velocity": 1,
        "hand": "right"
      },
      {
        "midi": 41,
        "time": 360,
        "duration": 1.25,
        "velocity": 1,
        "hand": "left"
      },
      {
        "midi": 53,
        "time": 360,
        "duration": 1.25,
        "velocity": 1,
        "hand": "left"
      },
      {
        "midi": 72,
        "time": 360,
        "duration": 1.235,
        "velocity": 1,
        "hand": "right"
      },
      {
        "midi": 60,
        "time": 360.625,
        "duration": 0.625,
        "velocity": 1,
        "hand": "right"
      },
      {
        "midi": 65,
        "time": 360.625,
        "duration": 0.625,
        "velocity": 1,
        "hand": "right"
      },
      {
        "midi": 69,
        "time": 360.625,
        "duration": 0.61,
        "velocity": 1,
        "hand": "right"
      },
      {
        "midi": 69,
        "time": 361.25,
        "duration": 0.61,
        "velocity": 1,
        "hand": "right"
      },
      {
        "midi": 72,
        "time": 361.25,
        "duration": 0.61,
        "velocity": 1,
        "hand": "right"
      },
      {
        "midi": 60,
        "time": 361.875,
        "duration": 0.625,
        "velocity": 1,
        "hand": "right"
      },
      {
        "midi": 65,
        "time": 361.875,
        "duration": 0.625,
        "velocity": 1,
        "hand": "right"
      },
      {
        "midi": 69,
        "time": 361.875,
        "duration": 0.625,
        "velocity": 1,
        "hand": "right"
      },
      {
        "midi": 72,
        "time": 361.875,
        "duration": 0.625,
        "velocity": 1,
        "hand": "right"
      },
      {
        "midi": 38,
        "time": 362.5,
        "duration": 1.25,
        "velocity": 1,
        "hand": "left"
      },
      {
        "midi": 50,
        "time": 362.5,
        "duration": 1.25,
        "velocity": 1,
        "hand": "left"
      },
      {
        "midi": 74,
        "time": 362.5,
        "duration": 1.235,
        "velocity": 1,
        "hand": "right"
      },
      {
        "midi": 62,
        "time": 363.125,
        "duration": 0.625,
        "velocity": 1,
        "hand": "right"
      },
      {
        "midi": 66,
        "time": 363.125,
        "duration": 0.625,
        "velocity": 1,
        "hand": "right"
      },
      {
        "midi": 69,
        "time": 363.125,
        "duration": 0.61,
        "velocity": 1,
        "hand": "right"
      },
      {
        "midi": 69,
        "time": 363.75,
        "duration": 0.61,
        "velocity": 1,
        "hand": "right"
      },
      {
        "midi": 75,
        "time": 363.75,
        "duration": 0.313,
        "velocity": 1,
        "hand": "right"
      },
      {
        "midi": 66,
        "time": 364.375,
        "duration": 0.625,
        "velocity": 1,
        "hand": "right"
      },
      {
        "midi": 69,
        "time": 364.375,
        "duration": 0.625,
        "velocity": 1,
        "hand": "right"
      },
      {
        "midi": 72,
        "time": 364.375,
        "duration": 0.625,
        "velocity": 1,
        "hand": "right"
      },
      {
        "midi": 74,
        "time": 364.375,
        "duration": 0.313,
        "velocity": 1,
        "hand": "right"
      },
      {
        "midi": 36,
        "time": 365,
        "duration": 1.25,
        "velocity": 1,
        "hand": "left"
      },
      {
        "midi": 48,
        "time": 365,
        "duration": 1.25,
        "velocity": 1,
        "hand": "left"
      },
      {
        "midi": 75,
        "time": 365,
        "duration": 1.235,
        "velocity": 1,
        "hand": "right"
      },
      {
        "midi": 77,
        "time": 365,
        "duration": 0.313,
        "velocity": 1,
        "hand": "right"
      },
      {
        "midi": 63,
        "time": 365.625,
        "duration": 0.625,
        "velocity": 1,
        "hand": "right"
      },
      {
        "midi": 67,
        "time": 365.625,
        "duration": 0.625,
        "velocity": 1,
        "hand": "right"
      },
      {
        "midi": 72,
        "time": 365.625,
        "duration": 0.61,
        "velocity": 1,
        "hand": "right"
      },
      {
        "midi": 72,
        "time": 366.25,
        "duration": 0.61,
        "velocity": 1,
        "hand": "right"
      },
      {
        "midi": 75,
        "time": 366.25,
        "duration": 1.25,
        "velocity": 1,
        "hand": "right"
      },
      {
        "midi": 63,
        "time": 366.875,
        "duration": 0.625,
        "velocity": 1,
        "hand": "right"
      },
      {
        "midi": 67,
        "time": 366.875,
        "duration": 0.625,
        "velocity": 1,
        "hand": "right"
      },
      {
        "midi": 72,
        "time": 366.875,
        "duration": 0.625,
        "velocity": 1,
        "hand": "right"
      },
      {
        "midi": 36,
        "time": 367.5,
        "duration": 1.25,
        "velocity": 1,
        "hand": "left"
      },
      {
        "midi": 48,
        "time": 367.5,
        "duration": 1.25,
        "velocity": 1,
        "hand": "left"
      },
      {
        "midi": 63,
        "time": 368.125,
        "duration": 0.625,
        "velocity": 1,
        "hand": "right"
      },
      {
        "midi": 67,
        "time": 368.125,
        "duration": 0.625,
        "velocity": 1,
        "hand": "right"
      },
      {
        "midi": 72,
        "time": 368.125,
        "duration": 0.61,
        "velocity": 1,
        "hand": "right"
      },
      {
        "midi": 72,
        "time": 368.75,
        "duration": 0.61,
        "velocity": 1,
        "hand": "right"
      },
      {
        "midi": 75,
        "time": 368.75,
        "duration": 0.625,
        "velocity": 1,
        "hand": "right"
      },
      {
        "midi": 63,
        "time": 369.375,
        "duration": 0.625,
        "velocity": 1,
        "hand": "right"
      },
      {
        "midi": 67,
        "time": 369.375,
        "duration": 0.625,
        "velocity": 1,
        "hand": "right"
      },
      {
        "midi": 72,
        "time": 369.375,
        "duration": 0.61,
        "velocity": 1,
        "hand": "right"
      },
      {
        "midi": 39,
        "time": 370,
        "duration": 1.25,
        "velocity": 1,
        "hand": "left"
      },
      {
        "midi": 51,
        "time": 370,
        "duration": 1.25,
        "velocity": 1,
        "hand": "left"
      },
      {
        "midi": 72,
        "time": 370,
        "duration": 1.235,
        "velocity": 1,
        "hand": "right"
      },
      {
        "midi": 74,
        "time": 370,
        "duration": 0.313,
        "velocity": 1,
        "hand": "right"
      },
      {
        "midi": 60,
        "time": 370.625,
        "duration": 0.625,
        "velocity": 1,
        "hand": "right"
      },
      {
        "midi": 63,
        "time": 370.625,
        "duration": 0.625,
        "velocity": 1,
        "hand": "right"
      },
      {
        "midi": 67,
        "time": 370.625,
        "duration": 0.61,
        "velocity": 1,
        "hand": "right"
      },
      {
        "midi": 67,
        "time": 371.25,
        "duration": 0.61,
        "velocity": 1,
        "hand": "right"
      },
      {
        "midi": 72,
        "time": 371.25,
        "duration": 0.61,
        "velocity": 1,
        "hand": "right"
      },
      {
        "midi": 60,
        "time": 371.875,
        "duration": 0.625,
        "velocity": 1,
        "hand": "right"
      },
      {
        "midi": 63,
        "time": 371.875,
        "duration": 0.625,
        "velocity": 1,
        "hand": "right"
      },
      {
        "midi": 67,
        "time": 371.875,
        "duration": 0.625,
        "velocity": 1,
        "hand": "right"
      },
      {
        "midi": 72,
        "time": 371.875,
        "duration": 0.625,
        "velocity": 1,
        "hand": "right"
      },
      {
        "midi": 43,
        "time": 372.5,
        "duration": 1.25,
        "velocity": 1,
        "hand": "left"
      },
      {
        "midi": 55,
        "time": 372.5,
        "duration": 1.25,
        "velocity": 1,
        "hand": "left"
      },
      {
        "midi": 70,
        "time": 372.5,
        "duration": 0.61,
        "velocity": 1,
        "hand": "right"
      },
      {
        "midi": 61,
        "time": 373.125,
        "duration": 0.625,
        "velocity": 1,
        "hand": "right"
      },
      {
        "midi": 64,
        "time": 373.125,
        "duration": 0.625,
        "velocity": 1,
        "hand": "right"
      },
      {
        "midi": 70,
        "time": 373.125,
        "duration": 0.61,
        "velocity": 1,
        "hand": "right"
      },
      {
        "midi": 70,
        "time": 373.75,
        "duration": 0.61,
        "velocity": 1,
        "hand": "right"
      },
      {
        "midi": 73,
        "time": 373.75,
        "duration": 0.625,
        "velocity": 1,
        "hand": "right"
      },
      {
        "midi": 61,
        "time": 374.375,
        "duration": 0.625,
        "velocity": 1,
        "hand": "right"
      },
      {
        "midi": 64,
        "time": 374.375,
        "duration": 0.625,
        "velocity": 1,
        "hand": "right"
      },
      {
        "midi": 70,
        "time": 374.375,
        "duration": 0.625,
        "velocity": 1,
        "hand": "right"
      },
      {
        "midi": 72,
        "time": 374.375,
        "duration": 0.61,
        "velocity": 1,
        "hand": "right"
      },
      {
        "midi": 41,
        "time": 375,
        "duration": 1.25,
        "velocity": 1,
        "hand": "left"
      },
      {
        "midi": 53,
        "time": 375,
        "duration": 1.25,
        "velocity": 1,
        "hand": "left"
      },
      {
        "midi": 72,
        "time": 375,
        "duration": 1.235,
        "velocity": 1,
        "hand": "right"
      },
      {
        "midi": 60,
        "time": 375.625,
        "duration": 0.625,
        "velocity": 1,
        "hand": "right"
      },
      {
        "midi": 65,
        "time": 375.625,
        "duration": 0.625,
        "velocity": 1,
        "hand": "right"
      },
      {
        "midi": 69,
        "time": 375.625,
        "duration": 0.61,
        "velocity": 1,
        "hand": "right"
      },
      {
        "midi": 69,
        "time": 376.25,
        "duration": 0.61,
        "velocity": 1,
        "hand": "right"
      },
      {
        "midi": 72,
        "time": 376.25,
        "duration": 0.625,
        "velocity": 1,
        "hand": "right"
      },
      {
        "midi": 60,
        "time": 376.875,
        "duration": 0.625,
        "velocity": 1,
        "hand": "right"
      },
      {
        "midi": 65,
        "time": 376.875,
        "duration": 0.625,
        "velocity": 1,
        "hand": "right"
      },
      {
        "midi": 69,
        "time": 376.875,
        "duration": 0.625,
        "velocity": 1,
        "hand": "right"
      },
      {
        "midi": 41,
        "time": 377.5,
        "duration": 1.25,
        "velocity": 1,
        "hand": "left"
      },
      {
        "midi": 53,
        "time": 377.5,
        "duration": 1.25,
        "velocity": 1,
        "hand": "left"
      },
      {
        "midi": 63,
        "time": 378.125,
        "duration": 0.625,
        "velocity": 1,
        "hand": "right"
      },
      {
        "midi": 65,
        "time": 378.125,
        "duration": 0.625,
        "velocity": 1,
        "hand": "right"
      },
      {
        "midi": 69,
        "time": 378.125,
        "duration": 0.61,
        "velocity": 1,
        "hand": "right"
      },
      {
        "midi": 69,
        "time": 378.75,
        "duration": 0.61,
        "velocity": 1,
        "hand": "right"
      },
      {
        "midi": 72,
        "time": 378.75,
        "duration": 0.625,
        "velocity": 1,
        "hand": "right"
      },
      {
        "midi": 63,
        "time": 379.375,
        "duration": 0.625,
        "velocity": 1,
        "hand": "right"
      },
      {
        "midi": 65,
        "time": 379.375,
        "duration": 0.625,
        "velocity": 1,
        "hand": "right"
      },
      {
        "midi": 69,
        "time": 379.375,
        "duration": 0.625,
        "velocity": 1,
        "hand": "right"
      },
      {
        "midi": 46,
        "time": 380,
        "duration": 1.25,
        "velocity": 1,
        "hand": "left"
      },
      {
        "midi": 70,
        "time": 380,
        "duration": 0.61,
        "velocity": 1,
        "hand": "right"
      },
      {
        "midi": 62,
        "time": 380.625,
        "duration": 0.625,
        "velocity": 1,
        "hand": "right"
      },
      {
        "midi": 65,
        "time": 380.625,
        "duration": 0.625,
        "velocity": 1,
        "hand": "right"
      },
      {
        "midi": 70,
        "time": 380.625,
        "duration": 0.61,
        "velocity": 1,
        "hand": "right"
      },
      {
        "midi": 70,
        "time": 381.25,
        "duration": 0.61,
        "velocity": 1,
        "hand": "right"
      },
      {
        "midi": 74,
        "time": 381.25,
        "duration": 0.625,
        "velocity": 1,
        "hand": "right"
      },
      {
        "midi": 62,
        "time": 381.875,
        "duration": 0.625,
        "velocity": 1,
        "hand": "right"
      },
      {
        "midi": 65,
        "time": 381.875,
        "duration": 0.625,
        "velocity": 1,
        "hand": "right"
      },
      {
        "midi": 70,
        "time": 381.875,
        "duration": 0.625,
        "velocity": 1,
        "hand": "right"
      },
      {
        "midi": 43,
        "time": 382.5,
        "duration": 1.25,
        "velocity": 1,
        "hand": "left"
      },
      {
        "midi": 62,
        "time": 383.125,
        "duration": 0.625,
        "velocity": 1,
        "hand": "right"
      },
      {
        "midi": 64,
        "time": 383.125,
        "duration": 0.625,
        "velocity": 1,
        "hand": "right"
      },
      {
        "midi": 70,
        "time": 383.125,
        "duration": 0.61,
        "velocity": 1,
        "hand": "right"
      },
      {
        "midi": 70,
        "time": 383.75,
        "duration": 0.61,
        "velocity": 1,
        "hand": "right"
      },
      {
        "midi": 74,
        "time": 383.75,
        "duration": 0.625,
        "velocity": 1,
        "hand": "right"
      },
      {
        "midi": 62,
        "time": 384.375,
        "duration": 0.625,
        "velocity": 1,
        "hand": "right"
      },
      {
        "midi": 64,
        "time": 384.375,
        "duration": 0.625,
        "velocity": 1,
        "hand": "right"
      },
      {
        "midi": 70,
        "time": 384.375,
        "duration": 0.625,
        "velocity": 1,
        "hand": "right"
      },
      {
        "midi": 41,
        "time": 385,
        "duration": 1.25,
        "velocity": 1,
        "hand": "left"
      },
      {
        "midi": 74,
        "time": 385,
        "duration": 1.235,
        "velocity": 1,
        "hand": "right"
      },
      {
        "midi": 62,
        "time": 385.625,
        "duration": 0.625,
        "velocity": 1,
        "hand": "right"
      },
      {
        "midi": 65,
        "time": 385.625,
        "duration": 0.625,
        "velocity": 1,
        "hand": "right"
      },
      {
        "midi": 70,
        "time": 385.625,
        "duration": 0.61,
        "velocity": 1,
        "hand": "right"
      },
      {
        "midi": 70,
        "time": 386.25,
        "duration": 0.61,
        "velocity": 1,
        "hand": "right"
      },
      {
        "midi": 74,
        "time": 386.25,
        "duration": 0.625,
        "velocity": 1,
        "hand": "right"
      },
      {
        "midi": 62,
        "time": 386.875,
        "duration": 0.625,
        "velocity": 1,
        "hand": "right"
      },
      {
        "midi": 65,
        "time": 386.875,
        "duration": 0.625,
        "velocity": 1,
        "hand": "right"
      },
      {
        "midi": 70,
        "time": 386.875,
        "duration": 0.625,
        "velocity": 1,
        "hand": "right"
      },
      {
        "midi": 41,
        "time": 387.5,
        "duration": 1.25,
        "velocity": 1,
        "hand": "left"
      },
      {
        "midi": 63,
        "time": 388.125,
        "duration": 0.625,
        "velocity": 1,
        "hand": "right"
      },
      {
        "midi": 65,
        "time": 388.125,
        "duration": 0.625,
        "velocity": 1,
        "hand": "right"
      },
      {
        "midi": 69,
        "time": 388.125,
        "duration": 0.61,
        "velocity": 1,
        "hand": "right"
      },
      {
        "midi": 69,
        "time": 388.75,
        "duration": 0.61,
        "velocity": 1,
        "hand": "right"
      },
      {
        "midi": 72,
        "time": 388.75,
        "duration": 0.61,
        "velocity": 1,
        "hand": "right"
      },
      {
        "midi": 63,
        "time": 389.375,
        "duration": 0.625,
        "velocity": 1,
        "hand": "right"
      },
      {
        "midi": 65,
        "time": 389.375,
        "duration": 0.625,
        "velocity": 1,
        "hand": "right"
      },
      {
        "midi": 69,
        "time": 389.375,
        "duration": 0.625,
        "velocity": 1,
        "hand": "right"
      },
      {
        "midi": 72,
        "time": 389.375,
        "duration": 0.625,
        "velocity": 1,
        "hand": "right"
      },
      {
        "midi": 46,
        "time": 390,
        "duration": 1.25,
        "velocity": 1,
        "hand": "left"
      },
      {
        "midi": 70,
        "time": 390,
        "duration": 0.61,
        "velocity": 1,
        "hand": "right"
      },
      {
        "midi": 62,
        "time": 390.625,
        "duration": 0.625,
        "velocity": 1,
        "hand": "right"
      },
      {
        "midi": 65,
        "time": 390.625,
        "duration": 0.625,
        "velocity": 1,
        "hand": "right"
      },
      {
        "midi": 70,
        "time": 390.625,
        "duration": 0.61,
        "velocity": 1,
        "hand": "right"
      },
      {
        "midi": 70,
        "time": 391.25,
        "duration": 0.61,
        "velocity": 1,
        "hand": "right"
      },
      {
        "midi": 74,
        "time": 391.25,
        "duration": 0.625,
        "velocity": 1,
        "hand": "right"
      },
      {
        "midi": 62,
        "time": 391.875,
        "duration": 0.625,
        "velocity": 1,
        "hand": "right"
      },
      {
        "midi": 65,
        "time": 391.875,
        "duration": 0.625,
        "velocity": 1,
        "hand": "right"
      },
      {
        "midi": 70,
        "time": 391.875,
        "duration": 0.625,
        "velocity": 1,
        "hand": "right"
      },
      {
        "midi": 46,
        "time": 392.5,
        "duration": 1.25,
        "velocity": 1,
        "hand": "left"
      },
      {
        "midi": 62,
        "time": 393.125,
        "duration": 0.625,
        "velocity": 1,
        "hand": "right"
      },
      {
        "midi": 65,
        "time": 393.125,
        "duration": 0.625,
        "velocity": 1,
        "hand": "right"
      },
      {
        "midi": 70,
        "time": 393.125,
        "duration": 0.61,
        "velocity": 1,
        "hand": "right"
      },
      {
        "midi": 70,
        "time": 393.75,
        "duration": 0.61,
        "velocity": 1,
        "hand": "right"
      },
      {
        "midi": 74,
        "time": 393.75,
        "duration": 0.625,
        "velocity": 1,
        "hand": "right"
      },
      {
        "midi": 62,
        "time": 394.375,
        "duration": 0.625,
        "velocity": 1,
        "hand": "right"
      },
      {
        "midi": 65,
        "time": 394.375,
        "duration": 0.625,
        "velocity": 1,
        "hand": "right"
      },
      {
        "midi": 70,
        "time": 394.375,
        "duration": 0.625,
        "velocity": 1,
        "hand": "right"
      },
      {
        "midi": 46,
        "time": 395,
        "duration": 1.25,
        "velocity": 1,
        "hand": "left"
      },
      {
        "midi": 65,
        "time": 395.625,
        "duration": 0.625,
        "velocity": 1,
        "hand": "right"
      },
      {
        "midi": 70,
        "time": 395.625,
        "duration": 0.625,
        "velocity": 1,
        "hand": "right"
      },
      {
        "midi": 74,
        "time": 395.625,
        "duration": 0.61,
        "velocity": 1,
        "hand": "right"
      },
      {
        "midi": 74,
        "time": 396.25,
        "duration": 0.61,
        "velocity": 1,
        "hand": "right"
      },
      {
        "midi": 77,
        "time": 396.25,
        "duration": 0.625,
        "velocity": 1,
        "hand": "right"
      },
      {
        "midi": 65,
        "time": 396.875,
        "duration": 0.625,
        "velocity": 1,
        "hand": "right"
      },
      {
        "midi": 70,
        "time": 396.875,
        "duration": 0.625,
        "velocity": 1,
        "hand": "right"
      },
      {
        "midi": 74,
        "time": 396.875,
        "duration": 0.625,
        "velocity": 1,
        "hand": "right"
      },
      {
        "midi": 46,
        "time": 397.5,
        "duration": 1.25,
        "velocity": 1,
        "hand": "left"
      },
      {
        "midi": 68,
        "time": 398.125,
        "duration": 0.625,
        "velocity": 1,
        "hand": "right"
      },
      {
        "midi": 74,
        "time": 398.125,
        "duration": 0.625,
        "velocity": 1,
        "hand": "right"
      },
      {
        "midi": 77,
        "time": 398.125,
        "duration": 0.61,
        "velocity": 1,
        "hand": "right"
      },
      {
        "midi": 77,
        "time": 398.75,
        "duration": 0.61,
        "velocity": 1,
        "hand": "right"
      },
      {
        "midi": 80,
        "time": 398.75,
        "duration": 0.625,
        "velocity": 1,
        "hand": "right"
      },
      {
        "midi": 68,
        "time": 399.375,
        "duration": 0.625,
        "velocity": 1,
        "hand": "right"
      },
      {
        "midi": 74,
        "time": 399.375,
        "duration": 0.625,
        "velocity": 1,
        "hand": "right"
      },
      {
        "midi": 77,
        "time": 399.375,
        "duration": 0.625,
        "velocity": 1,
        "hand": "right"
      },
      {
        "midi": 46,
        "time": 400,
        "duration": 1.25,
        "velocity": 1,
        "hand": "left"
      },
      {
        "midi": 67,
        "time": 400.625,
        "duration": 0.625,
        "velocity": 1,
        "hand": "right"
      },
      {
        "midi": 70,
        "time": 400.625,
        "duration": 0.625,
        "velocity": 1,
        "hand": "right"
      },
      {
        "midi": 75,
        "time": 400.625,
        "duration": 0.61,
        "velocity": 1,
        "hand": "right"
      },
      {
        "midi": 75,
        "time": 401.25,
        "duration": 0.61,
        "velocity": 1,
        "hand": "right"
      },
      {
        "midi": 79,
        "time": 401.25,
        "duration": 0.625,
        "velocity": 1,
        "hand": "right"
      },
      {
        "midi": 67,
        "time": 401.875,
        "duration": 0.625,
        "velocity": 1,
        "hand": "right"
      },
      {
        "midi": 70,
        "time": 401.875,
        "duration": 0.625,
        "velocity": 1,
        "hand": "right"
      },
      {
        "midi": 75,
        "time": 401.875,
        "duration": 0.625,
        "velocity": 1,
        "hand": "right"
      },
      {
        "midi": 46,
        "time": 402.5,
        "duration": 1.25,
        "velocity": 1,
        "hand": "left"
      },
      {
        "midi": 66,
        "time": 403.125,
        "duration": 0.625,
        "velocity": 1,
        "hand": "right"
      },
      {
        "midi": 69,
        "time": 403.125,
        "duration": 0.625,
        "velocity": 1,
        "hand": "right"
      },
      {
        "midi": 75,
        "time": 403.125,
        "duration": 0.61,
        "velocity": 1,
        "hand": "right"
      },
      {
        "midi": 75,
        "time": 403.75,
        "duration": 0.61,
        "velocity": 1,
        "hand": "right"
      },
      {
        "midi": 78,
        "time": 403.75,
        "duration": 0.625,
        "velocity": 1,
        "hand": "right"
      },
      {
        "midi": 66,
        "time": 404.375,
        "duration": 0.625,
        "velocity": 1,
        "hand": "right"
      },
      {
        "midi": 69,
        "time": 404.375,
        "duration": 0.625,
        "velocity": 1,
        "hand": "right"
      },
      {
        "midi": 75,
        "time": 404.375,
        "duration": 0.625,
        "velocity": 1,
        "hand": "right"
      },
      {
        "midi": 46,
        "time": 405,
        "duration": 1.25,
        "velocity": 1,
        "hand": "left"
      },
      {
        "midi": 65,
        "time": 405.625,
        "duration": 0.625,
        "velocity": 1,
        "hand": "right"
      },
      {
        "midi": 70,
        "time": 405.625,
        "duration": 0.625,
        "velocity": 1,
        "hand": "right"
      },
      {
        "midi": 74,
        "time": 405.625,
        "duration": 0.61,
        "velocity": 1,
        "hand": "right"
      },
      {
        "midi": 74,
        "time": 406.25,
        "duration": 0.61,
        "velocity": 1,
        "hand": "right"
      },
      {
        "midi": 77,
        "time": 406.25,
        "duration": 0.625,
        "velocity": 1,
        "hand": "right"
      },
      {
        "midi": 65,
        "time": 406.875,
        "duration": 0.625,
        "velocity": 1,
        "hand": "right"
      },
      {
        "midi": 70,
        "time": 406.875,
        "duration": 0.625,
        "velocity": 1,
        "hand": "right"
      },
      {
        "midi": 74,
        "time": 406.875,
        "duration": 0.625,
        "velocity": 1,
        "hand": "right"
      },
      {
        "midi": 46,
        "time": 407.5,
        "duration": 1.25,
        "velocity": 1,
        "hand": "left"
      },
      {
        "midi": 62,
        "time": 408.125,
        "duration": 0.625,
        "velocity": 1,
        "hand": "right"
      },
      {
        "midi": 65,
        "time": 408.125,
        "duration": 0.625,
        "velocity": 1,
        "hand": "right"
      },
      {
        "midi": 70,
        "time": 408.125,
        "duration": 0.61,
        "velocity": 1,
        "hand": "right"
      },
      {
        "midi": 70,
        "time": 408.75,
        "duration": 0.61,
        "velocity": 1,
        "hand": "right"
      },
      {
        "midi": 74,
        "time": 408.75,
        "duration": 0.625,
        "velocity": 1,
        "hand": "right"
      },
      {
        "midi": 62,
        "time": 409.375,
        "duration": 0.625,
        "velocity": 1,
        "hand": "right"
      },
      {
        "midi": 65,
        "time": 409.375,
        "duration": 0.625,
        "velocity": 1,
        "hand": "right"
      },
      {
        "midi": 70,
        "time": 409.375,
        "duration": 0.625,
        "velocity": 1,
        "hand": "right"
      },
      {
        "midi": 46,
        "time": 410,
        "duration": 1.25,
        "velocity": 1,
        "hand": "left"
      },
      {
        "midi": 58,
        "time": 410.625,
        "duration": 0.625,
        "velocity": 1,
        "hand": "left"
      },
      {
        "midi": 62,
        "time": 410.625,
        "duration": 0.625,
        "velocity": 1,
        "hand": "right"
      },
      {
        "midi": 65,
        "time": 410.625,
        "duration": 0.61,
        "velocity": 1,
        "hand": "right"
      },
      {
        "midi": 65,
        "time": 411.25,
        "duration": 0.61,
        "velocity": 1,
        "hand": "right"
      },
      {
        "midi": 70,
        "time": 411.25,
        "duration": 0.625,
        "velocity": 1,
        "hand": "right"
      },
      {
        "midi": 58,
        "time": 411.875,
        "duration": 0.625,
        "velocity": 1,
        "hand": "left"
      },
      {
        "midi": 62,
        "time": 411.875,
        "duration": 0.625,
        "velocity": 1,
        "hand": "right"
      },
      {
        "midi": 65,
        "time": 411.875,
        "duration": 0.625,
        "velocity": 1,
        "hand": "right"
      },
      {
        "midi": 46,
        "time": 412.5,
        "duration": 1.25,
        "velocity": 1,
        "hand": "left"
      },
      {
        "midi": 53,
        "time": 413.125,
        "duration": 0.625,
        "velocity": 1,
        "hand": "left"
      },
      {
        "midi": 58,
        "time": 413.125,
        "duration": 0.625,
        "velocity": 1,
        "hand": "left"
      },
      {
        "midi": 62,
        "time": 413.125,
        "duration": 0.61,
        "velocity": 1,
        "hand": "right"
      },
      {
        "midi": 62,
        "time": 413.75,
        "duration": 0.61,
        "velocity": 1,
        "hand": "right"
      },
      {
        "midi": 65,
        "time": 413.75,
        "duration": 0.625,
        "velocity": 1,
        "hand": "right"
      },
      {
        "midi": 53,
        "time": 414.375,
        "duration": 0.625,
        "velocity": 1,
        "hand": "left"
      },
      {
        "midi": 58,
        "time": 414.375,
        "duration": 0.625,
        "velocity": 1,
        "hand": "left"
      },
      {
        "midi": 62,
        "time": 414.375,
        "duration": 0.625,
        "velocity": 1,
        "hand": "right"
      },
      {
        "midi": 46,
        "time": 415,
        "duration": 1.25,
        "velocity": 1,
        "hand": "left"
      },
      {
        "midi": 50,
        "time": 415.625,
        "duration": 0.625,
        "velocity": 1,
        "hand": "left"
      },
      {
        "midi": 53,
        "time": 415.625,
        "duration": 0.625,
        "velocity": 1,
        "hand": "left"
      },
      {
        "midi": 58,
        "time": 416.25,
        "duration": 0.61,
        "velocity": 1,
        "hand": "left"
      },
      {
        "midi": 62,
        "time": 416.25,
        "duration": 0.625,
        "velocity": 1,
        "hand": "right"
      },
      {
        "midi": 50,
        "time": 416.875,
        "duration": 0.625,
        "velocity": 1,
        "hand": "left"
      },
      {
        "midi": 53,
        "time": 416.875,
        "duration": 0.625,
        "velocity": 1,
        "hand": "left"
      },
      {
        "midi": 46,
        "time": 417.5,
        "duration": 1.25,
        "velocity": 1,
        "hand": "left"
      },
      {
        "midi": 50,
        "time": 418.125,
        "duration": 0.625,
        "velocity": 1,
        "hand": "left"
      },
      {
        "midi": 53,
        "time": 418.125,
        "duration": 0.625,
        "velocity": 1,
        "hand": "left"
      },
      {
        "midi": 58,
        "time": 418.75,
        "duration": 0.61,
        "velocity": 1,
        "hand": "left"
      },
      {
        "midi": 62,
        "time": 418.75,
        "duration": 0.625,
        "velocity": 1,
        "hand": "right"
      },
      {
        "midi": 50,
        "time": 419.375,
        "duration": 0.61,
        "velocity": 1,
        "hand": "left"
      },
      {
        "midi": 53,
        "time": 419.375,
        "duration": 0.61,
        "velocity": 1,
        "hand": "left"
      },
      {
        "midi": 41,
        "time": 420,
        "duration": 10,
        "velocity": 1,
        "hand": "left"
      },
      {
        "midi": 46,
        "time": 420,
        "duration": 10,
        "velocity": 1,
        "hand": "left"
      },
      {
        "midi": 62,
        "time": 420,
        "duration": 10,
        "velocity": 1,
        "hand": "right"
      }
    ]
  },
  "notes1Hand": [
    {
      "midi": 58,
      "time": 0,
      "duration": 1.25,
      "velocity": 1,
      "hand": "right"
    },
    {
      "midi": 74,
      "time": 1.25,
      "duration": 0.72,
      "velocity": 1,
      "hand": "right"
    },
    {
      "midi": 58,
      "time": 2.5,
      "duration": 1.25,
      "velocity": 1,
      "hand": "right"
    },
    {
      "midi": 74,
      "time": 3.75,
      "duration": 0.72,
      "velocity": 1,
      "hand": "right"
    },
    {
      "midi": 58,
      "time": 5,
      "duration": 1.25,
      "velocity": 1,
      "hand": "right"
    },
    {
      "midi": 77,
      "time": 6.25,
      "duration": 0.72,
      "velocity": 1,
      "hand": "right"
    },
    {
      "midi": 58,
      "time": 7.5,
      "duration": 1.25,
      "velocity": 1,
      "hand": "right"
    },
    {
      "midi": 80,
      "time": 8.75,
      "duration": 0.72,
      "velocity": 1,
      "hand": "right"
    },
    {
      "midi": 58,
      "time": 10,
      "duration": 1.25,
      "velocity": 1,
      "hand": "right"
    },
    {
      "midi": 79,
      "time": 11.25,
      "duration": 0.72,
      "velocity": 1,
      "hand": "right"
    },
    {
      "midi": 58,
      "time": 12.5,
      "duration": 1.25,
      "velocity": 1,
      "hand": "right"
    },
    {
      "midi": 78,
      "time": 13.75,
      "duration": 0.72,
      "velocity": 1,
      "hand": "right"
    },
    {
      "midi": 58,
      "time": 15,
      "duration": 1.25,
      "velocity": 1,
      "hand": "right"
    },
    {
      "midi": 77,
      "time": 16.25,
      "duration": 0.72,
      "velocity": 1,
      "hand": "right"
    },
    {
      "midi": 58,
      "time": 17.5,
      "duration": 1.25,
      "velocity": 1,
      "hand": "right"
    },
    {
      "midi": 74,
      "time": 18.75,
      "duration": 0.72,
      "velocity": 1,
      "hand": "right"
    },
    {
      "midi": 70,
      "time": 20,
      "duration": 0.72,
      "velocity": 1,
      "hand": "right"
    },
    {
      "midi": 74,
      "time": 21.25,
      "duration": 0.72,
      "velocity": 1,
      "hand": "right"
    },
    {
      "midi": 55,
      "time": 22.5,
      "duration": 1.25,
      "velocity": 1,
      "hand": "right"
    },
    {
      "midi": 74,
      "time": 23.75,
      "duration": 0.72,
      "velocity": 1,
      "hand": "right"
    },
    {
      "midi": 74,
      "time": 25,
      "duration": 1.235,
      "velocity": 1,
      "hand": "right"
    },
    {
      "midi": 74,
      "time": 26.25,
      "duration": 0.72,
      "velocity": 1,
      "hand": "right"
    },
    {
      "midi": 65,
      "time": 27.5,
      "duration": 1.25,
      "velocity": 1,
      "hand": "right"
    },
    {
      "midi": 75,
      "time": 28.75,
      "duration": 0.72,
      "velocity": 1,
      "hand": "right"
    },
    {
      "midi": 70,
      "time": 30,
      "duration": 0.72,
      "velocity": 1,
      "hand": "right"
    },
    {
      "midi": 74,
      "time": 31.25,
      "duration": 0.72,
      "velocity": 1,
      "hand": "right"
    },
    {
      "midi": 55,
      "time": 32.5,
      "duration": 1.25,
      "velocity": 1,
      "hand": "right"
    },
    {
      "midi": 74,
      "time": 33.75,
      "duration": 0.72,
      "velocity": 1,
      "hand": "right"
    },
    {
      "midi": 72,
      "time": 35,
      "duration": 0.72,
      "velocity": 1,
      "hand": "right"
    },
    {
      "midi": 75,
      "time": 36.25,
      "duration": 0.72,
      "velocity": 1,
      "hand": "right"
    },
    {
      "midi": 74,
      "time": 37.5,
      "duration": 0.72,
      "velocity": 1,
      "hand": "right"
    },
    {
      "midi": 72,
      "time": 38.75,
      "duration": 0.72,
      "velocity": 1,
      "hand": "right"
    },
    {
      "midi": 70,
      "time": 40,
      "duration": 0.72,
      "velocity": 1,
      "hand": "right"
    },
    {
      "midi": 74,
      "time": 41.25,
      "duration": 0.72,
      "velocity": 1,
      "hand": "right"
    },
    {
      "midi": 58,
      "time": 42.5,
      "duration": 1.25,
      "velocity": 1,
      "hand": "right"
    },
    {
      "midi": 74,
      "time": 43.75,
      "duration": 1.235,
      "velocity": 1,
      "hand": "right"
    },
    {
      "midi": 74,
      "time": 45,
      "duration": 1.235,
      "velocity": 1,
      "hand": "right"
    },
    {
      "midi": 74,
      "time": 46.25,
      "duration": 0.72,
      "velocity": 1,
      "hand": "right"
    },
    {
      "midi": 70,
      "time": 47.5,
      "duration": 0.72,
      "velocity": 1,
      "hand": "right"
    },
    {
      "midi": 74,
      "time": 48.75,
      "duration": 0.72,
      "velocity": 1,
      "hand": "right"
    },
    {
      "midi": 74,
      "time": 50,
      "duration": 1.235,
      "velocity": 1,
      "hand": "right"
    },
    {
      "midi": 74,
      "time": 51.25,
      "duration": 0.72,
      "velocity": 1,
      "hand": "right"
    },
    {
      "midi": 73,
      "time": 52.5,
      "duration": 1.235,
      "velocity": 1,
      "hand": "right"
    },
    {
      "midi": 73,
      "time": 53.75,
      "duration": 0.72,
      "velocity": 1,
      "hand": "right"
    },
    {
      "midi": 72,
      "time": 55,
      "duration": 0.72,
      "velocity": 1,
      "hand": "right"
    },
    {
      "midi": 75,
      "time": 56.25,
      "duration": 0.72,
      "velocity": 1,
      "hand": "right"
    },
    {
      "midi": 69,
      "time": 57.5,
      "duration": 0.72,
      "velocity": 1,
      "hand": "right"
    },
    {
      "midi": 75,
      "time": 58.75,
      "duration": 0.72,
      "velocity": 1,
      "hand": "right"
    },
    {
      "midi": 70,
      "time": 60,
      "duration": 0.72,
      "velocity": 1,
      "hand": "right"
    },
    {
      "midi": 74,
      "time": 61.25,
      "duration": 0.72,
      "velocity": 1,
      "hand": "right"
    },
    {
      "midi": 55,
      "time": 62.5,
      "duration": 1.25,
      "velocity": 1,
      "hand": "right"
    },
    {
      "midi": 74,
      "time": 63.75,
      "duration": 0.72,
      "velocity": 1,
      "hand": "right"
    },
    {
      "midi": 72,
      "time": 65,
      "duration": 1.235,
      "velocity": 1,
      "hand": "right"
    },
    {
      "midi": 72,
      "time": 66.25,
      "duration": 0.72,
      "velocity": 1,
      "hand": "right"
    },
    {
      "midi": 67,
      "time": 67.5,
      "duration": 0.72,
      "velocity": 1,
      "hand": "right"
    },
    {
      "midi": 77,
      "time": 68.75,
      "duration": 0.72,
      "velocity": 1,
      "hand": "right"
    },
    {
      "midi": 72,
      "time": 70,
      "duration": 0.72,
      "velocity": 1,
      "hand": "right"
    },
    {
      "midi": 77,
      "time": 71.25,
      "duration": 0.72,
      "velocity": 1,
      "hand": "right"
    },
    {
      "midi": 60,
      "time": 72.5,
      "duration": 1.25,
      "velocity": 1,
      "hand": "right"
    },
    {
      "midi": 76,
      "time": 73.75,
      "duration": 0.72,
      "velocity": 1,
      "hand": "right"
    },
    {
      "midi": 65,
      "time": 75,
      "duration": 0.72,
      "velocity": 1,
      "hand": "right"
    },
    {
      "midi": 77,
      "time": 76.25,
      "duration": 0.72,
      "velocity": 1,
      "hand": "right"
    },
    {
      "midi": 65,
      "time": 77.5,
      "duration": 1.25,
      "velocity": 1,
      "hand": "right"
    },
    {
      "midi": 77,
      "time": 78.75,
      "duration": 0.72,
      "velocity": 1,
      "hand": "right"
    },
    {
      "midi": 72,
      "time": 80,
      "duration": 0.72,
      "velocity": 1,
      "hand": "right"
    },
    {
      "midi": 77,
      "time": 81.25,
      "duration": 0.72,
      "velocity": 1,
      "hand": "right"
    },
    {
      "midi": 72,
      "time": 82.5,
      "duration": 0.72,
      "velocity": 1,
      "hand": "right"
    },
    {
      "midi": 77,
      "time": 83.75,
      "duration": 0.72,
      "velocity": 1,
      "hand": "right"
    },
    {
      "midi": 74,
      "time": 85,
      "duration": 0.72,
      "velocity": 1,
      "hand": "right"
    },
    {
      "midi": 77,
      "time": 86.25,
      "duration": 0.72,
      "velocity": 1,
      "hand": "right"
    },
    {
      "midi": 65,
      "time": 87.5,
      "duration": 1.25,
      "velocity": 1,
      "hand": "right"
    },
    {
      "midi": 77,
      "time": 88.75,
      "duration": 0.72,
      "velocity": 1,
      "hand": "right"
    },
    {
      "midi": 72,
      "time": 90,
      "duration": 0.72,
      "velocity": 1,
      "hand": "right"
    },
    {
      "midi": 77,
      "time": 91.25,
      "duration": 0.72,
      "velocity": 1,
      "hand": "right"
    },
    {
      "midi": 72,
      "time": 92.5,
      "duration": 0.72,
      "velocity": 1,
      "hand": "right"
    },
    {
      "midi": 77,
      "time": 93.75,
      "duration": 0.72,
      "velocity": 1,
      "hand": "right"
    },
    {
      "midi": 70,
      "time": 95,
      "duration": 0.72,
      "velocity": 1,
      "hand": "right"
    },
    {
      "midi": 74,
      "time": 96.25,
      "duration": 0.72,
      "velocity": 1,
      "hand": "right"
    },
    {
      "midi": 55,
      "time": 97.5,
      "duration": 1.25,
      "velocity": 1,
      "hand": "right"
    },
    {
      "midi": 70,
      "time": 98.75,
      "duration": 1.25,
      "velocity": 1,
      "hand": "right"
    },
    {
      "midi": 72,
      "time": 100,
      "duration": 1.235,
      "velocity": 1,
      "hand": "right"
    },
    {
      "midi": 72,
      "time": 101.25,
      "duration": 0.72,
      "velocity": 1,
      "hand": "right"
    },
    {
      "midi": 74,
      "time": 102.5,
      "duration": 1.235,
      "velocity": 1,
      "hand": "right"
    },
    {
      "midi": 75,
      "time": 103.75,
      "duration": 0.72,
      "velocity": 1,
      "hand": "right"
    },
    {
      "midi": 77,
      "time": 105,
      "duration": 0.72,
      "velocity": 1,
      "hand": "right"
    },
    {
      "midi": 75,
      "time": 106.25,
      "duration": 1.25,
      "velocity": 1,
      "hand": "right"
    },
    {
      "midi": 60,
      "time": 107.5,
      "duration": 1.25,
      "velocity": 1,
      "hand": "right"
    },
    {
      "midi": 75,
      "time": 108.75,
      "duration": 0.72,
      "velocity": 1,
      "hand": "right"
    },
    {
      "midi": 74,
      "time": 110,
      "duration": 0.72,
      "velocity": 1,
      "hand": "right"
    },
    {
      "midi": 72,
      "time": 111.25,
      "duration": 0.72,
      "velocity": 1,
      "hand": "right"
    },
    {
      "midi": 70,
      "time": 112.5,
      "duration": 0.72,
      "velocity": 1,
      "hand": "right"
    },
    {
      "midi": 73,
      "time": 113.75,
      "duration": 0.72,
      "velocity": 1,
      "hand": "right"
    },
    {
      "midi": 72,
      "time": 115,
      "duration": 1.235,
      "velocity": 1,
      "hand": "right"
    },
    {
      "midi": 72,
      "time": 116.25,
      "duration": 0.72,
      "velocity": 1,
      "hand": "right"
    },
    {
      "midi": 65,
      "time": 117.5,
      "duration": 1.25,
      "velocity": 1,
      "hand": "right"
    },
    {
      "midi": 72,
      "time": 118.75,
      "duration": 0.72,
      "velocity": 1,
      "hand": "right"
    },
    {
      "midi": 70,
      "time": 120,
      "duration": 0.72,
      "velocity": 1,
      "hand": "right"
    },
    {
      "midi": 74,
      "time": 121.25,
      "duration": 0.72,
      "velocity": 1,
      "hand": "right"
    },
    {
      "midi": 55,
      "time": 122.5,
      "duration": 1.25,
      "velocity": 1,
      "hand": "right"
    },
    {
      "midi": 74,
      "time": 123.75,
      "duration": 0.72,
      "velocity": 1,
      "hand": "right"
    },
    {
      "midi": 74,
      "time": 125,
      "duration": 1.235,
      "velocity": 1,
      "hand": "right"
    },
    {
      "midi": 74,
      "time": 126.25,
      "duration": 0.72,
      "velocity": 1,
      "hand": "right"
    },
    {
      "midi": 65,
      "time": 127.5,
      "duration": 1.25,
      "velocity": 1,
      "hand": "right"
    },
    {
      "midi": 72,
      "time": 128.75,
      "duration": 0.72,
      "velocity": 1,
      "hand": "right"
    },
    {
      "midi": 70,
      "time": 130,
      "duration": 0.72,
      "velocity": 1,
      "hand": "right"
    },
    {
      "midi": 74,
      "time": 131.25,
      "duration": 0.72,
      "velocity": 1,
      "hand": "right"
    },
    {
      "midi": 58,
      "time": 132.5,
      "duration": 1.25,
      "velocity": 1,
      "hand": "right"
    },
    {
      "midi": 74,
      "time": 133.75,
      "duration": 0.72,
      "velocity": 1,
      "hand": "right"
    },
    {
      "midi": 58,
      "time": 135,
      "duration": 1.25,
      "velocity": 1,
      "hand": "right"
    },
    {
      "midi": 77,
      "time": 136.25,
      "duration": 0.72,
      "velocity": 1,
      "hand": "right"
    },
    {
      "midi": 58,
      "time": 137.5,
      "duration": 1.25,
      "velocity": 1,
      "hand": "right"
    },
    {
      "midi": 80,
      "time": 138.75,
      "duration": 0.72,
      "velocity": 1,
      "hand": "right"
    },
    {
      "midi": 58,
      "time": 140,
      "duration": 1.25,
      "velocity": 1,
      "hand": "right"
    },
    {
      "midi": 79,
      "time": 141.25,
      "duration": 0.72,
      "velocity": 1,
      "hand": "right"
    },
    {
      "midi": 58,
      "time": 142.5,
      "duration": 1.25,
      "velocity": 1,
      "hand": "right"
    },
    {
      "midi": 78,
      "time": 143.75,
      "duration": 0.72,
      "velocity": 1,
      "hand": "right"
    },
    {
      "midi": 58,
      "time": 145,
      "duration": 1.25,
      "velocity": 1,
      "hand": "right"
    },
    {
      "midi": 77,
      "time": 146.25,
      "duration": 0.72,
      "velocity": 1,
      "hand": "right"
    },
    {
      "midi": 58,
      "time": 147.5,
      "duration": 1.25,
      "velocity": 1,
      "hand": "right"
    },
    {
      "midi": 74,
      "time": 148.75,
      "duration": 0.72,
      "velocity": 1,
      "hand": "right"
    },
    {
      "midi": 70,
      "time": 150,
      "duration": 0.72,
      "velocity": 1,
      "hand": "right"
    },
    {
      "midi": 74,
      "time": 151.25,
      "duration": 0.72,
      "velocity": 1,
      "hand": "right"
    },
    {
      "midi": 55,
      "time": 152.5,
      "duration": 1.25,
      "velocity": 1,
      "hand": "right"
    },
    {
      "midi": 74,
      "time": 153.75,
      "duration": 0.72,
      "velocity": 1,
      "hand": "right"
    },
    {
      "midi": 74,
      "time": 155,
      "duration": 1.235,
      "velocity": 1,
      "hand": "right"
    },
    {
      "midi": 74,
      "time": 156.25,
      "duration": 0.72,
      "velocity": 1,
      "hand": "right"
    },
    {
      "midi": 65,
      "time": 157.5,
      "duration": 1.25,
      "velocity": 1,
      "hand": "right"
    },
    {
      "midi": 75,
      "time": 158.75,
      "duration": 0.72,
      "velocity": 1,
      "hand": "right"
    },
    {
      "midi": 70,
      "time": 160,
      "duration": 0.72,
      "velocity": 1,
      "hand": "right"
    },
    {
      "midi": 74,
      "time": 161.25,
      "duration": 0.72,
      "velocity": 1,
      "hand": "right"
    },
    {
      "midi": 55,
      "time": 162.5,
      "duration": 1.25,
      "velocity": 1,
      "hand": "right"
    },
    {
      "midi": 74,
      "time": 163.75,
      "duration": 0.72,
      "velocity": 1,
      "hand": "right"
    },
    {
      "midi": 72,
      "time": 165,
      "duration": 0.72,
      "velocity": 1,
      "hand": "right"
    },
    {
      "midi": 75,
      "time": 166.25,
      "duration": 0.72,
      "velocity": 1,
      "hand": "right"
    },
    {
      "midi": 74,
      "time": 167.5,
      "duration": 0.72,
      "velocity": 1,
      "hand": "right"
    },
    {
      "midi": 72,
      "time": 168.75,
      "duration": 0.72,
      "velocity": 1,
      "hand": "right"
    },
    {
      "midi": 70,
      "time": 170,
      "duration": 0.72,
      "velocity": 1,
      "hand": "right"
    },
    {
      "midi": 74,
      "time": 171.25,
      "duration": 0.72,
      "velocity": 1,
      "hand": "right"
    },
    {
      "midi": 58,
      "time": 172.5,
      "duration": 1.25,
      "velocity": 1,
      "hand": "right"
    },
    {
      "midi": 74,
      "time": 173.75,
      "duration": 1.235,
      "velocity": 1,
      "hand": "right"
    },
    {
      "midi": 74,
      "time": 175,
      "duration": 1.235,
      "velocity": 1,
      "hand": "right"
    },
    {
      "midi": 74,
      "time": 176.25,
      "duration": 0.72,
      "velocity": 1,
      "hand": "right"
    },
    {
      "midi": 70,
      "time": 177.5,
      "duration": 0.72,
      "velocity": 1,
      "hand": "right"
    },
    {
      "midi": 74,
      "time": 178.75,
      "duration": 0.72,
      "velocity": 1,
      "hand": "right"
    },
    {
      "midi": 74,
      "time": 180,
      "duration": 1.235,
      "velocity": 1,
      "hand": "right"
    },
    {
      "midi": 74,
      "time": 181.25,
      "duration": 0.72,
      "velocity": 1,
      "hand": "right"
    },
    {
      "midi": 73,
      "time": 182.5,
      "duration": 1.235,
      "velocity": 1,
      "hand": "right"
    },
    {
      "midi": 73,
      "time": 183.75,
      "duration": 0.72,
      "velocity": 1,
      "hand": "right"
    },
    {
      "midi": 72,
      "time": 185,
      "duration": 0.72,
      "velocity": 1,
      "hand": "right"
    },
    {
      "midi": 75,
      "time": 186.25,
      "duration": 0.72,
      "velocity": 1,
      "hand": "right"
    },
    {
      "midi": 69,
      "time": 187.5,
      "duration": 0.72,
      "velocity": 1,
      "hand": "right"
    },
    {
      "midi": 75,
      "time": 188.75,
      "duration": 0.72,
      "velocity": 1,
      "hand": "right"
    },
    {
      "midi": 70,
      "time": 190,
      "duration": 0.72,
      "velocity": 1,
      "hand": "right"
    },
    {
      "midi": 74,
      "time": 191.25,
      "duration": 0.72,
      "velocity": 1,
      "hand": "right"
    },
    {
      "midi": 55,
      "time": 192.5,
      "duration": 1.25,
      "velocity": 1,
      "hand": "right"
    },
    {
      "midi": 74,
      "time": 193.75,
      "duration": 0.72,
      "velocity": 1,
      "hand": "right"
    },
    {
      "midi": 72,
      "time": 195,
      "duration": 1.235,
      "velocity": 1,
      "hand": "right"
    },
    {
      "midi": 72,
      "time": 196.25,
      "duration": 0.72,
      "velocity": 1,
      "hand": "right"
    },
    {
      "midi": 67,
      "time": 197.5,
      "duration": 0.72,
      "velocity": 1,
      "hand": "right"
    },
    {
      "midi": 77,
      "time": 198.75,
      "duration": 0.72,
      "velocity": 1,
      "hand": "right"
    },
    {
      "midi": 72,
      "time": 200,
      "duration": 0.72,
      "velocity": 1,
      "hand": "right"
    },
    {
      "midi": 77,
      "time": 201.25,
      "duration": 0.72,
      "velocity": 1,
      "hand": "right"
    },
    {
      "midi": 60,
      "time": 202.5,
      "duration": 1.25,
      "velocity": 1,
      "hand": "right"
    },
    {
      "midi": 76,
      "time": 203.75,
      "duration": 0.72,
      "velocity": 1,
      "hand": "right"
    },
    {
      "midi": 65,
      "time": 205,
      "duration": 0.72,
      "velocity": 1,
      "hand": "right"
    },
    {
      "midi": 77,
      "time": 206.25,
      "duration": 0.72,
      "velocity": 1,
      "hand": "right"
    },
    {
      "midi": 65,
      "time": 207.5,
      "duration": 1.25,
      "velocity": 1,
      "hand": "right"
    },
    {
      "midi": 77,
      "time": 208.75,
      "duration": 0.72,
      "velocity": 1,
      "hand": "right"
    },
    {
      "midi": 72,
      "time": 210,
      "duration": 0.72,
      "velocity": 1,
      "hand": "right"
    },
    {
      "midi": 77,
      "time": 211.25,
      "duration": 0.72,
      "velocity": 1,
      "hand": "right"
    },
    {
      "midi": 72,
      "time": 212.5,
      "duration": 0.72,
      "velocity": 1,
      "hand": "right"
    },
    {
      "midi": 77,
      "time": 213.75,
      "duration": 0.72,
      "velocity": 1,
      "hand": "right"
    },
    {
      "midi": 74,
      "time": 215,
      "duration": 0.72,
      "velocity": 1,
      "hand": "right"
    },
    {
      "midi": 77,
      "time": 216.25,
      "duration": 0.72,
      "velocity": 1,
      "hand": "right"
    },
    {
      "midi": 65,
      "time": 217.5,
      "duration": 1.25,
      "velocity": 1,
      "hand": "right"
    },
    {
      "midi": 77,
      "time": 218.75,
      "duration": 0.72,
      "velocity": 1,
      "hand": "right"
    },
    {
      "midi": 72,
      "time": 220,
      "duration": 0.72,
      "velocity": 1,
      "hand": "right"
    },
    {
      "midi": 77,
      "time": 221.25,
      "duration": 0.72,
      "velocity": 1,
      "hand": "right"
    },
    {
      "midi": 72,
      "time": 222.5,
      "duration": 0.72,
      "velocity": 1,
      "hand": "right"
    },
    {
      "midi": 77,
      "time": 223.75,
      "duration": 0.72,
      "velocity": 1,
      "hand": "right"
    },
    {
      "midi": 70,
      "time": 225,
      "duration": 0.72,
      "velocity": 1,
      "hand": "right"
    },
    {
      "midi": 74,
      "time": 226.25,
      "duration": 0.72,
      "velocity": 1,
      "hand": "right"
    },
    {
      "midi": 55,
      "time": 227.5,
      "duration": 1.25,
      "velocity": 1,
      "hand": "right"
    },
    {
      "midi": 70,
      "time": 228.75,
      "duration": 1.25,
      "velocity": 1,
      "hand": "right"
    },
    {
      "midi": 72,
      "time": 230,
      "duration": 1.235,
      "velocity": 1,
      "hand": "right"
    },
    {
      "midi": 72,
      "time": 231.25,
      "duration": 0.72,
      "velocity": 1,
      "hand": "right"
    },
    {
      "midi": 74,
      "time": 232.5,
      "duration": 1.235,
      "velocity": 1,
      "hand": "right"
    },
    {
      "midi": 75,
      "time": 233.75,
      "duration": 0.72,
      "velocity": 1,
      "hand": "right"
    },
    {
      "midi": 77,
      "time": 235,
      "duration": 0.72,
      "velocity": 1,
      "hand": "right"
    },
    {
      "midi": 75,
      "time": 236.25,
      "duration": 1.25,
      "velocity": 1,
      "hand": "right"
    },
    {
      "midi": 60,
      "time": 237.5,
      "duration": 1.25,
      "velocity": 1,
      "hand": "right"
    },
    {
      "midi": 75,
      "time": 238.75,
      "duration": 0.72,
      "velocity": 1,
      "hand": "right"
    },
    {
      "midi": 74,
      "time": 240,
      "duration": 0.72,
      "velocity": 1,
      "hand": "right"
    },
    {
      "midi": 72,
      "time": 241.25,
      "duration": 0.72,
      "velocity": 1,
      "hand": "right"
    },
    {
      "midi": 70,
      "time": 242.5,
      "duration": 0.72,
      "velocity": 1,
      "hand": "right"
    },
    {
      "midi": 73,
      "time": 243.75,
      "duration": 0.72,
      "velocity": 1,
      "hand": "right"
    },
    {
      "midi": 72,
      "time": 245,
      "duration": 1.235,
      "velocity": 1,
      "hand": "right"
    },
    {
      "midi": 72,
      "time": 246.25,
      "duration": 0.72,
      "velocity": 1,
      "hand": "right"
    },
    {
      "midi": 65,
      "time": 247.5,
      "duration": 1.25,
      "velocity": 1,
      "hand": "right"
    },
    {
      "midi": 72,
      "time": 248.75,
      "duration": 0.72,
      "velocity": 1,
      "hand": "right"
    },
    {
      "midi": 70,
      "time": 250,
      "duration": 0.72,
      "velocity": 1,
      "hand": "right"
    },
    {
      "midi": 74,
      "time": 251.25,
      "duration": 0.72,
      "velocity": 1,
      "hand": "right"
    },
    {
      "midi": 55,
      "time": 252.5,
      "duration": 1.25,
      "velocity": 1,
      "hand": "right"
    },
    {
      "midi": 74,
      "time": 253.75,
      "duration": 0.72,
      "velocity": 1,
      "hand": "right"
    },
    {
      "midi": 74,
      "time": 255,
      "duration": 1.235,
      "velocity": 1,
      "hand": "right"
    },
    {
      "midi": 74,
      "time": 256.25,
      "duration": 0.72,
      "velocity": 1,
      "hand": "right"
    },
    {
      "midi": 65,
      "time": 257.5,
      "duration": 1.25,
      "velocity": 1,
      "hand": "right"
    },
    {
      "midi": 72,
      "time": 258.75,
      "duration": 0.72,
      "velocity": 1,
      "hand": "right"
    },
    {
      "midi": 70,
      "time": 260,
      "duration": 0.72,
      "velocity": 1,
      "hand": "right"
    },
    {
      "midi": 74,
      "time": 261.25,
      "duration": 0.72,
      "velocity": 1,
      "hand": "right"
    },
    {
      "midi": 58,
      "time": 262.5,
      "duration": 1.25,
      "velocity": 1,
      "hand": "right"
    },
    {
      "midi": 74,
      "time": 263.75,
      "duration": 0.72,
      "velocity": 1,
      "hand": "right"
    },
    {
      "midi": 58,
      "time": 265,
      "duration": 1.25,
      "velocity": 1,
      "hand": "right"
    },
    {
      "midi": 77,
      "time": 266.25,
      "duration": 0.72,
      "velocity": 1,
      "hand": "right"
    },
    {
      "midi": 58,
      "time": 267.5,
      "duration": 1.25,
      "velocity": 1,
      "hand": "right"
    },
    {
      "midi": 80,
      "time": 268.75,
      "duration": 0.72,
      "velocity": 1,
      "hand": "right"
    },
    {
      "midi": 58,
      "time": 270,
      "duration": 1.25,
      "velocity": 1,
      "hand": "right"
    },
    {
      "midi": 79,
      "time": 271.25,
      "duration": 0.72,
      "velocity": 1,
      "hand": "right"
    },
    {
      "midi": 58,
      "time": 272.5,
      "duration": 1.25,
      "velocity": 1,
      "hand": "right"
    },
    {
      "midi": 78,
      "time": 273.75,
      "duration": 0.72,
      "velocity": 1,
      "hand": "right"
    },
    {
      "midi": 58,
      "time": 275,
      "duration": 1.25,
      "velocity": 1,
      "hand": "right"
    },
    {
      "midi": 77,
      "time": 276.25,
      "duration": 0.72,
      "velocity": 1,
      "hand": "right"
    },
    {
      "midi": 58,
      "time": 277.5,
      "duration": 1.25,
      "velocity": 1,
      "hand": "right"
    },
    {
      "midi": 74,
      "time": 278.75,
      "duration": 0.72,
      "velocity": 1,
      "hand": "right"
    },
    {
      "midi": 70,
      "time": 280,
      "duration": 0.72,
      "velocity": 1,
      "hand": "right"
    },
    {
      "midi": 74,
      "time": 281.25,
      "duration": 0.72,
      "velocity": 1,
      "hand": "right"
    },
    {
      "midi": 55,
      "time": 282.5,
      "duration": 1.25,
      "velocity": 1,
      "hand": "right"
    },
    {
      "midi": 74,
      "time": 283.75,
      "duration": 0.72,
      "velocity": 1,
      "hand": "right"
    },
    {
      "midi": 74,
      "time": 285,
      "duration": 1.235,
      "velocity": 1,
      "hand": "right"
    },
    {
      "midi": 74,
      "time": 286.25,
      "duration": 0.72,
      "velocity": 1,
      "hand": "right"
    },
    {
      "midi": 65,
      "time": 287.5,
      "duration": 1.25,
      "velocity": 1,
      "hand": "right"
    },
    {
      "midi": 75,
      "time": 288.75,
      "duration": 0.72,
      "velocity": 1,
      "hand": "right"
    },
    {
      "midi": 70,
      "time": 290,
      "duration": 0.72,
      "velocity": 1,
      "hand": "right"
    },
    {
      "midi": 74,
      "time": 291.25,
      "duration": 0.72,
      "velocity": 1,
      "hand": "right"
    },
    {
      "midi": 55,
      "time": 292.5,
      "duration": 1.25,
      "velocity": 1,
      "hand": "right"
    },
    {
      "midi": 74,
      "time": 293.75,
      "duration": 0.72,
      "velocity": 1,
      "hand": "right"
    },
    {
      "midi": 72,
      "time": 295,
      "duration": 0.72,
      "velocity": 1,
      "hand": "right"
    },
    {
      "midi": 75,
      "time": 296.25,
      "duration": 0.72,
      "velocity": 1,
      "hand": "right"
    },
    {
      "midi": 74,
      "time": 297.5,
      "duration": 0.72,
      "velocity": 1,
      "hand": "right"
    },
    {
      "midi": 72,
      "time": 298.75,
      "duration": 0.72,
      "velocity": 1,
      "hand": "right"
    },
    {
      "midi": 70,
      "time": 300,
      "duration": 0.72,
      "velocity": 1,
      "hand": "right"
    },
    {
      "midi": 74,
      "time": 301.25,
      "duration": 0.72,
      "velocity": 1,
      "hand": "right"
    },
    {
      "midi": 58,
      "time": 302.5,
      "duration": 1.25,
      "velocity": 1,
      "hand": "right"
    },
    {
      "midi": 74,
      "time": 303.75,
      "duration": 1.235,
      "velocity": 1,
      "hand": "right"
    },
    {
      "midi": 74,
      "time": 305,
      "duration": 1.235,
      "velocity": 1,
      "hand": "right"
    },
    {
      "midi": 74,
      "time": 306.25,
      "duration": 0.72,
      "velocity": 1,
      "hand": "right"
    },
    {
      "midi": 70,
      "time": 307.5,
      "duration": 0.72,
      "velocity": 1,
      "hand": "right"
    },
    {
      "midi": 74,
      "time": 308.75,
      "duration": 0.72,
      "velocity": 1,
      "hand": "right"
    },
    {
      "midi": 74,
      "time": 310,
      "duration": 1.235,
      "velocity": 1,
      "hand": "right"
    },
    {
      "midi": 74,
      "time": 311.25,
      "duration": 0.72,
      "velocity": 1,
      "hand": "right"
    },
    {
      "midi": 73,
      "time": 312.5,
      "duration": 1.235,
      "velocity": 1,
      "hand": "right"
    },
    {
      "midi": 73,
      "time": 313.75,
      "duration": 0.72,
      "velocity": 1,
      "hand": "right"
    },
    {
      "midi": 72,
      "time": 315,
      "duration": 0.72,
      "velocity": 1,
      "hand": "right"
    },
    {
      "midi": 75,
      "time": 316.25,
      "duration": 0.72,
      "velocity": 1,
      "hand": "right"
    },
    {
      "midi": 69,
      "time": 317.5,
      "duration": 0.72,
      "velocity": 1,
      "hand": "right"
    },
    {
      "midi": 75,
      "time": 318.75,
      "duration": 0.72,
      "velocity": 1,
      "hand": "right"
    },
    {
      "midi": 70,
      "time": 320,
      "duration": 0.72,
      "velocity": 1,
      "hand": "right"
    },
    {
      "midi": 74,
      "time": 321.25,
      "duration": 0.72,
      "velocity": 1,
      "hand": "right"
    },
    {
      "midi": 55,
      "time": 322.5,
      "duration": 1.25,
      "velocity": 1,
      "hand": "right"
    },
    {
      "midi": 74,
      "time": 323.75,
      "duration": 0.72,
      "velocity": 1,
      "hand": "right"
    },
    {
      "midi": 72,
      "time": 325,
      "duration": 1.235,
      "velocity": 1,
      "hand": "right"
    },
    {
      "midi": 72,
      "time": 326.25,
      "duration": 0.72,
      "velocity": 1,
      "hand": "right"
    },
    {
      "midi": 67,
      "time": 327.5,
      "duration": 0.72,
      "velocity": 1,
      "hand": "right"
    },
    {
      "midi": 77,
      "time": 328.75,
      "duration": 0.72,
      "velocity": 1,
      "hand": "right"
    },
    {
      "midi": 72,
      "time": 330,
      "duration": 0.72,
      "velocity": 1,
      "hand": "right"
    },
    {
      "midi": 77,
      "time": 331.25,
      "duration": 0.72,
      "velocity": 1,
      "hand": "right"
    },
    {
      "midi": 60,
      "time": 332.5,
      "duration": 1.25,
      "velocity": 1,
      "hand": "right"
    },
    {
      "midi": 76,
      "time": 333.75,
      "duration": 0.72,
      "velocity": 1,
      "hand": "right"
    },
    {
      "midi": 65,
      "time": 335,
      "duration": 0.72,
      "velocity": 1,
      "hand": "right"
    },
    {
      "midi": 77,
      "time": 336.25,
      "duration": 0.72,
      "velocity": 1,
      "hand": "right"
    },
    {
      "midi": 65,
      "time": 337.5,
      "duration": 1.25,
      "velocity": 1,
      "hand": "right"
    },
    {
      "midi": 77,
      "time": 338.75,
      "duration": 0.72,
      "velocity": 1,
      "hand": "right"
    },
    {
      "midi": 72,
      "time": 340,
      "duration": 0.72,
      "velocity": 1,
      "hand": "right"
    },
    {
      "midi": 77,
      "time": 341.25,
      "duration": 0.72,
      "velocity": 1,
      "hand": "right"
    },
    {
      "midi": 72,
      "time": 342.5,
      "duration": 0.72,
      "velocity": 1,
      "hand": "right"
    },
    {
      "midi": 77,
      "time": 343.75,
      "duration": 0.72,
      "velocity": 1,
      "hand": "right"
    },
    {
      "midi": 74,
      "time": 345,
      "duration": 0.72,
      "velocity": 1,
      "hand": "right"
    },
    {
      "midi": 77,
      "time": 346.25,
      "duration": 0.72,
      "velocity": 1,
      "hand": "right"
    },
    {
      "midi": 65,
      "time": 347.5,
      "duration": 1.25,
      "velocity": 1,
      "hand": "right"
    },
    {
      "midi": 77,
      "time": 348.75,
      "duration": 0.72,
      "velocity": 1,
      "hand": "right"
    },
    {
      "midi": 72,
      "time": 350,
      "duration": 0.72,
      "velocity": 1,
      "hand": "right"
    },
    {
      "midi": 77,
      "time": 351.25,
      "duration": 0.72,
      "velocity": 1,
      "hand": "right"
    },
    {
      "midi": 72,
      "time": 352.5,
      "duration": 0.72,
      "velocity": 1,
      "hand": "right"
    },
    {
      "midi": 77,
      "time": 353.75,
      "duration": 0.72,
      "velocity": 1,
      "hand": "right"
    },
    {
      "midi": 70,
      "time": 355,
      "duration": 0.72,
      "velocity": 1,
      "hand": "right"
    },
    {
      "midi": 74,
      "time": 356.25,
      "duration": 0.72,
      "velocity": 1,
      "hand": "right"
    },
    {
      "midi": 55,
      "time": 357.5,
      "duration": 1.25,
      "velocity": 1,
      "hand": "right"
    },
    {
      "midi": 70,
      "time": 358.75,
      "duration": 1.25,
      "velocity": 1,
      "hand": "right"
    },
    {
      "midi": 72,
      "time": 360,
      "duration": 1.235,
      "velocity": 1,
      "hand": "right"
    },
    {
      "midi": 72,
      "time": 361.25,
      "duration": 0.72,
      "velocity": 1,
      "hand": "right"
    },
    {
      "midi": 74,
      "time": 362.5,
      "duration": 1.235,
      "velocity": 1,
      "hand": "right"
    },
    {
      "midi": 75,
      "time": 363.75,
      "duration": 0.72,
      "velocity": 1,
      "hand": "right"
    },
    {
      "midi": 77,
      "time": 365,
      "duration": 0.72,
      "velocity": 1,
      "hand": "right"
    },
    {
      "midi": 75,
      "time": 366.25,
      "duration": 1.25,
      "velocity": 1,
      "hand": "right"
    },
    {
      "midi": 60,
      "time": 367.5,
      "duration": 1.25,
      "velocity": 1,
      "hand": "right"
    },
    {
      "midi": 75,
      "time": 368.75,
      "duration": 0.72,
      "velocity": 1,
      "hand": "right"
    },
    {
      "midi": 74,
      "time": 370,
      "duration": 0.72,
      "velocity": 1,
      "hand": "right"
    },
    {
      "midi": 72,
      "time": 371.25,
      "duration": 0.72,
      "velocity": 1,
      "hand": "right"
    },
    {
      "midi": 70,
      "time": 372.5,
      "duration": 0.72,
      "velocity": 1,
      "hand": "right"
    },
    {
      "midi": 73,
      "time": 373.75,
      "duration": 0.72,
      "velocity": 1,
      "hand": "right"
    },
    {
      "midi": 72,
      "time": 375,
      "duration": 1.235,
      "velocity": 1,
      "hand": "right"
    },
    {
      "midi": 72,
      "time": 376.25,
      "duration": 0.72,
      "velocity": 1,
      "hand": "right"
    },
    {
      "midi": 65,
      "time": 377.5,
      "duration": 1.25,
      "velocity": 1,
      "hand": "right"
    },
    {
      "midi": 72,
      "time": 378.75,
      "duration": 0.72,
      "velocity": 1,
      "hand": "right"
    },
    {
      "midi": 70,
      "time": 380,
      "duration": 0.72,
      "velocity": 1,
      "hand": "right"
    },
    {
      "midi": 74,
      "time": 381.25,
      "duration": 0.72,
      "velocity": 1,
      "hand": "right"
    },
    {
      "midi": 55,
      "time": 382.5,
      "duration": 1.25,
      "velocity": 1,
      "hand": "right"
    },
    {
      "midi": 74,
      "time": 383.75,
      "duration": 0.72,
      "velocity": 1,
      "hand": "right"
    },
    {
      "midi": 74,
      "time": 385,
      "duration": 1.235,
      "velocity": 1,
      "hand": "right"
    },
    {
      "midi": 74,
      "time": 386.25,
      "duration": 0.72,
      "velocity": 1,
      "hand": "right"
    },
    {
      "midi": 65,
      "time": 387.5,
      "duration": 1.25,
      "velocity": 1,
      "hand": "right"
    },
    {
      "midi": 72,
      "time": 388.75,
      "duration": 0.72,
      "velocity": 1,
      "hand": "right"
    },
    {
      "midi": 70,
      "time": 390,
      "duration": 0.72,
      "velocity": 1,
      "hand": "right"
    },
    {
      "midi": 74,
      "time": 391.25,
      "duration": 0.72,
      "velocity": 1,
      "hand": "right"
    },
    {
      "midi": 58,
      "time": 392.5,
      "duration": 1.25,
      "velocity": 1,
      "hand": "right"
    },
    {
      "midi": 74,
      "time": 393.75,
      "duration": 0.72,
      "velocity": 1,
      "hand": "right"
    },
    {
      "midi": 58,
      "time": 395,
      "duration": 1.25,
      "velocity": 1,
      "hand": "right"
    },
    {
      "midi": 77,
      "time": 396.25,
      "duration": 0.72,
      "velocity": 1,
      "hand": "right"
    },
    {
      "midi": 58,
      "time": 397.5,
      "duration": 1.25,
      "velocity": 1,
      "hand": "right"
    },
    {
      "midi": 80,
      "time": 398.75,
      "duration": 0.72,
      "velocity": 1,
      "hand": "right"
    },
    {
      "midi": 58,
      "time": 400,
      "duration": 1.25,
      "velocity": 1,
      "hand": "right"
    },
    {
      "midi": 79,
      "time": 401.25,
      "duration": 0.72,
      "velocity": 1,
      "hand": "right"
    },
    {
      "midi": 58,
      "time": 402.5,
      "duration": 1.25,
      "velocity": 1,
      "hand": "right"
    },
    {
      "midi": 78,
      "time": 403.75,
      "duration": 0.72,
      "velocity": 1,
      "hand": "right"
    },
    {
      "midi": 58,
      "time": 405,
      "duration": 1.25,
      "velocity": 1,
      "hand": "right"
    },
    {
      "midi": 77,
      "time": 406.25,
      "duration": 0.72,
      "velocity": 1,
      "hand": "right"
    },
    {
      "midi": 58,
      "time": 407.5,
      "duration": 1.25,
      "velocity": 1,
      "hand": "right"
    },
    {
      "midi": 74,
      "time": 408.75,
      "duration": 0.72,
      "velocity": 1,
      "hand": "right"
    },
    {
      "midi": 58,
      "time": 410,
      "duration": 1.25,
      "velocity": 1,
      "hand": "right"
    },
    {
      "midi": 70,
      "time": 411.25,
      "duration": 0.72,
      "velocity": 1,
      "hand": "right"
    },
    {
      "midi": 58,
      "time": 412.5,
      "duration": 1.25,
      "velocity": 1,
      "hand": "right"
    },
    {
      "midi": 65,
      "time": 413.75,
      "duration": 0.72,
      "velocity": 1,
      "hand": "right"
    },
    {
      "midi": 58,
      "time": 415,
      "duration": 1.25,
      "velocity": 1,
      "hand": "right"
    },
    {
      "midi": 62,
      "time": 416.25,
      "duration": 0.72,
      "velocity": 1,
      "hand": "right"
    },
    {
      "midi": 58,
      "time": 417.5,
      "duration": 1.25,
      "velocity": 1,
      "hand": "right"
    },
    {
      "midi": 62,
      "time": 418.75,
      "duration": 0.72,
      "velocity": 1,
      "hand": "right"
    },
    {
      "midi": 62,
      "time": 420,
      "duration": 10,
      "velocity": 1,
      "hand": "right"
    }
  ],
  "notes2Hands": [
    {
      "midi": 46,
      "time": 0,
      "duration": 1.25,
      "velocity": 1,
      "hand": "left"
    },
    {
      "midi": 62,
      "time": 0.625,
      "duration": 0.625,
      "velocity": 1,
      "hand": "right"
    },
    {
      "midi": 65,
      "time": 0.625,
      "duration": 0.625,
      "velocity": 1,
      "hand": "right"
    },
    {
      "midi": 70,
      "time": 0.625,
      "duration": 0.61,
      "velocity": 1,
      "hand": "right"
    },
    {
      "midi": 70,
      "time": 1.25,
      "duration": 0.61,
      "velocity": 1,
      "hand": "right"
    },
    {
      "midi": 74,
      "time": 1.25,
      "duration": 0.625,
      "velocity": 1,
      "hand": "right"
    },
    {
      "midi": 62,
      "time": 1.875,
      "duration": 0.625,
      "velocity": 1,
      "hand": "right"
    },
    {
      "midi": 65,
      "time": 1.875,
      "duration": 0.625,
      "velocity": 1,
      "hand": "right"
    },
    {
      "midi": 70,
      "time": 1.875,
      "duration": 0.625,
      "velocity": 1,
      "hand": "right"
    },
    {
      "midi": 46,
      "time": 2.5,
      "duration": 1.25,
      "velocity": 1,
      "hand": "left"
    },
    {
      "midi": 62,
      "time": 3.125,
      "duration": 0.625,
      "velocity": 1,
      "hand": "right"
    },
    {
      "midi": 65,
      "time": 3.125,
      "duration": 0.625,
      "velocity": 1,
      "hand": "right"
    },
    {
      "midi": 70,
      "time": 3.125,
      "duration": 0.61,
      "velocity": 1,
      "hand": "right"
    },
    {
      "midi": 70,
      "time": 3.75,
      "duration": 0.61,
      "velocity": 1,
      "hand": "right"
    },
    {
      "midi": 74,
      "time": 3.75,
      "duration": 0.625,
      "velocity": 1,
      "hand": "right"
    },
    {
      "midi": 62,
      "time": 4.375,
      "duration": 0.625,
      "velocity": 1,
      "hand": "right"
    },
    {
      "midi": 65,
      "time": 4.375,
      "duration": 0.625,
      "velocity": 1,
      "hand": "right"
    },
    {
      "midi": 70,
      "time": 4.375,
      "duration": 0.625,
      "velocity": 1,
      "hand": "right"
    },
    {
      "midi": 46,
      "time": 5,
      "duration": 1.25,
      "velocity": 1,
      "hand": "left"
    },
    {
      "midi": 65,
      "time": 5.625,
      "duration": 0.625,
      "velocity": 1,
      "hand": "right"
    },
    {
      "midi": 70,
      "time": 5.625,
      "duration": 0.625,
      "velocity": 1,
      "hand": "right"
    },
    {
      "midi": 74,
      "time": 5.625,
      "duration": 0.61,
      "velocity": 1,
      "hand": "right"
    },
    {
      "midi": 74,
      "time": 6.25,
      "duration": 0.61,
      "velocity": 1,
      "hand": "right"
    },
    {
      "midi": 77,
      "time": 6.25,
      "duration": 0.625,
      "velocity": 1,
      "hand": "right"
    },
    {
      "midi": 65,
      "time": 6.875,
      "duration": 0.625,
      "velocity": 1,
      "hand": "right"
    },
    {
      "midi": 70,
      "time": 6.875,
      "duration": 0.625,
      "velocity": 1,
      "hand": "right"
    },
    {
      "midi": 74,
      "time": 6.875,
      "duration": 0.625,
      "velocity": 1,
      "hand": "right"
    },
    {
      "midi": 46,
      "time": 7.5,
      "duration": 1.25,
      "velocity": 1,
      "hand": "left"
    },
    {
      "midi": 68,
      "time": 8.125,
      "duration": 0.625,
      "velocity": 1,
      "hand": "right"
    },
    {
      "midi": 74,
      "time": 8.125,
      "duration": 0.625,
      "velocity": 1,
      "hand": "right"
    },
    {
      "midi": 77,
      "time": 8.125,
      "duration": 0.61,
      "velocity": 1,
      "hand": "right"
    },
    {
      "midi": 77,
      "time": 8.75,
      "duration": 0.61,
      "velocity": 1,
      "hand": "right"
    },
    {
      "midi": 80,
      "time": 8.75,
      "duration": 0.625,
      "velocity": 1,
      "hand": "right"
    },
    {
      "midi": 68,
      "time": 9.375,
      "duration": 0.625,
      "velocity": 1,
      "hand": "right"
    },
    {
      "midi": 74,
      "time": 9.375,
      "duration": 0.625,
      "velocity": 1,
      "hand": "right"
    },
    {
      "midi": 77,
      "time": 9.375,
      "duration": 0.625,
      "velocity": 1,
      "hand": "right"
    },
    {
      "midi": 46,
      "time": 10,
      "duration": 1.25,
      "velocity": 1,
      "hand": "left"
    },
    {
      "midi": 67,
      "time": 10.625,
      "duration": 0.625,
      "velocity": 1,
      "hand": "right"
    },
    {
      "midi": 70,
      "time": 10.625,
      "duration": 0.625,
      "velocity": 1,
      "hand": "right"
    },
    {
      "midi": 75,
      "time": 10.625,
      "duration": 0.61,
      "velocity": 1,
      "hand": "right"
    },
    {
      "midi": 75,
      "time": 11.25,
      "duration": 0.61,
      "velocity": 1,
      "hand": "right"
    },
    {
      "midi": 79,
      "time": 11.25,
      "duration": 0.625,
      "velocity": 1,
      "hand": "right"
    },
    {
      "midi": 67,
      "time": 11.875,
      "duration": 0.625,
      "velocity": 1,
      "hand": "right"
    },
    {
      "midi": 70,
      "time": 11.875,
      "duration": 0.625,
      "velocity": 1,
      "hand": "right"
    },
    {
      "midi": 75,
      "time": 11.875,
      "duration": 0.625,
      "velocity": 1,
      "hand": "right"
    },
    {
      "midi": 46,
      "time": 12.5,
      "duration": 1.25,
      "velocity": 1,
      "hand": "left"
    },
    {
      "midi": 66,
      "time": 13.125,
      "duration": 0.625,
      "velocity": 1,
      "hand": "right"
    },
    {
      "midi": 69,
      "time": 13.125,
      "duration": 0.625,
      "velocity": 1,
      "hand": "right"
    },
    {
      "midi": 75,
      "time": 13.125,
      "duration": 0.61,
      "velocity": 1,
      "hand": "right"
    },
    {
      "midi": 75,
      "time": 13.75,
      "duration": 0.61,
      "velocity": 1,
      "hand": "right"
    },
    {
      "midi": 78,
      "time": 13.75,
      "duration": 0.625,
      "velocity": 1,
      "hand": "right"
    },
    {
      "midi": 66,
      "time": 14.375,
      "duration": 0.625,
      "velocity": 1,
      "hand": "right"
    },
    {
      "midi": 69,
      "time": 14.375,
      "duration": 0.625,
      "velocity": 1,
      "hand": "right"
    },
    {
      "midi": 75,
      "time": 14.375,
      "duration": 0.625,
      "velocity": 1,
      "hand": "right"
    },
    {
      "midi": 46,
      "time": 15,
      "duration": 1.25,
      "velocity": 1,
      "hand": "left"
    },
    {
      "midi": 65,
      "time": 15.625,
      "duration": 0.625,
      "velocity": 1,
      "hand": "right"
    },
    {
      "midi": 70,
      "time": 15.625,
      "duration": 0.625,
      "velocity": 1,
      "hand": "right"
    },
    {
      "midi": 74,
      "time": 15.625,
      "duration": 0.61,
      "velocity": 1,
      "hand": "right"
    },
    {
      "midi": 74,
      "time": 16.25,
      "duration": 0.61,
      "velocity": 1,
      "hand": "right"
    },
    {
      "midi": 77,
      "time": 16.25,
      "duration": 0.625,
      "velocity": 1,
      "hand": "right"
    },
    {
      "midi": 65,
      "time": 16.875,
      "duration": 0.625,
      "velocity": 1,
      "hand": "right"
    },
    {
      "midi": 70,
      "time": 16.875,
      "duration": 0.625,
      "velocity": 1,
      "hand": "right"
    },
    {
      "midi": 74,
      "time": 16.875,
      "duration": 0.625,
      "velocity": 1,
      "hand": "right"
    },
    {
      "midi": 46,
      "time": 17.5,
      "duration": 1.25,
      "velocity": 1,
      "hand": "left"
    },
    {
      "midi": 62,
      "time": 18.125,
      "duration": 0.625,
      "velocity": 1,
      "hand": "right"
    },
    {
      "midi": 65,
      "time": 18.125,
      "duration": 0.625,
      "velocity": 1,
      "hand": "right"
    },
    {
      "midi": 70,
      "time": 18.125,
      "duration": 0.61,
      "velocity": 1,
      "hand": "right"
    },
    {
      "midi": 70,
      "time": 18.75,
      "duration": 0.61,
      "velocity": 1,
      "hand": "right"
    },
    {
      "midi": 74,
      "time": 18.75,
      "duration": 0.625,
      "velocity": 1,
      "hand": "right"
    },
    {
      "midi": 62,
      "time": 19.375,
      "duration": 0.625,
      "velocity": 1,
      "hand": "right"
    },
    {
      "midi": 65,
      "time": 19.375,
      "duration": 0.625,
      "velocity": 1,
      "hand": "right"
    },
    {
      "midi": 70,
      "time": 19.375,
      "duration": 0.61,
      "velocity": 1,
      "hand": "right"
    },
    {
      "midi": 46,
      "time": 20,
      "duration": 1.25,
      "velocity": 1,
      "hand": "left"
    },
    {
      "midi": 70,
      "time": 20,
      "duration": 0.61,
      "velocity": 1,
      "hand": "right"
    },
    {
      "midi": 62,
      "time": 20.625,
      "duration": 0.625,
      "velocity": 1,
      "hand": "right"
    },
    {
      "midi": 65,
      "time": 20.625,
      "duration": 0.625,
      "velocity": 1,
      "hand": "right"
    },
    {
      "midi": 70,
      "time": 20.625,
      "duration": 0.61,
      "velocity": 1,
      "hand": "right"
    },
    {
      "midi": 70,
      "time": 21.25,
      "duration": 0.61,
      "velocity": 1,
      "hand": "right"
    },
    {
      "midi": 74,
      "time": 21.25,
      "duration": 0.625,
      "velocity": 1,
      "hand": "right"
    },
    {
      "midi": 62,
      "time": 21.875,
      "duration": 0.625,
      "velocity": 1,
      "hand": "right"
    },
    {
      "midi": 65,
      "time": 21.875,
      "duration": 0.625,
      "velocity": 1,
      "hand": "right"
    },
    {
      "midi": 70,
      "time": 21.875,
      "duration": 0.625,
      "velocity": 1,
      "hand": "right"
    },
    {
      "midi": 43,
      "time": 22.5,
      "duration": 1.25,
      "velocity": 1,
      "hand": "left"
    },
    {
      "midi": 62,
      "time": 23.125,
      "duration": 0.625,
      "velocity": 1,
      "hand": "right"
    },
    {
      "midi": 64,
      "time": 23.125,
      "duration": 0.625,
      "velocity": 1,
      "hand": "right"
    },
    {
      "midi": 70,
      "time": 23.125,
      "duration": 0.61,
      "velocity": 1,
      "hand": "right"
    },
    {
      "midi": 70,
      "time": 23.75,
      "duration": 0.61,
      "velocity": 1,
      "hand": "right"
    },
    {
      "midi": 74,
      "time": 23.75,
      "duration": 0.625,
      "velocity": 1,
      "hand": "right"
    },
    {
      "midi": 62,
      "time": 24.375,
      "duration": 0.625,
      "velocity": 1,
      "hand": "right"
    },
    {
      "midi": 64,
      "time": 24.375,
      "duration": 0.625,
      "velocity": 1,
      "hand": "right"
    },
    {
      "midi": 70,
      "time": 24.375,
      "duration": 0.625,
      "velocity": 1,
      "hand": "right"
    },
    {
      "midi": 41,
      "time": 25,
      "duration": 1.25,
      "velocity": 1,
      "hand": "left"
    },
    {
      "midi": 74,
      "time": 25,
      "duration": 1.235,
      "velocity": 1,
      "hand": "right"
    },
    {
      "midi": 62,
      "time": 25.625,
      "duration": 0.625,
      "velocity": 1,
      "hand": "right"
    },
    {
      "midi": 65,
      "time": 25.625,
      "duration": 0.625,
      "velocity": 1,
      "hand": "right"
    },
    {
      "midi": 70,
      "time": 25.625,
      "duration": 0.61,
      "velocity": 1,
      "hand": "right"
    },
    {
      "midi": 70,
      "time": 26.25,
      "duration": 0.61,
      "velocity": 1,
      "hand": "right"
    },
    {
      "midi": 74,
      "time": 26.25,
      "duration": 0.625,
      "velocity": 1,
      "hand": "right"
    },
    {
      "midi": 62,
      "time": 26.875,
      "duration": 0.625,
      "velocity": 1,
      "hand": "right"
    },
    {
      "midi": 65,
      "time": 26.875,
      "duration": 0.625,
      "velocity": 1,
      "hand": "right"
    },
    {
      "midi": 70,
      "time": 26.875,
      "duration": 0.625,
      "velocity": 1,
      "hand": "right"
    },
    {
      "midi": 41,
      "time": 27.5,
      "duration": 1.25,
      "velocity": 1,
      "hand": "left"
    },
    {
      "midi": 63,
      "time": 28.125,
      "duration": 0.625,
      "velocity": 1,
      "hand": "right"
    },
    {
      "midi": 69,
      "time": 28.125,
      "duration": 0.625,
      "velocity": 1,
      "hand": "right"
    },
    {
      "midi": 72,
      "time": 28.125,
      "duration": 0.61,
      "velocity": 1,
      "hand": "right"
    },
    {
      "midi": 72,
      "time": 28.75,
      "duration": 0.61,
      "velocity": 1,
      "hand": "right"
    },
    {
      "midi": 75,
      "time": 28.75,
      "duration": 0.625,
      "velocity": 1,
      "hand": "right"
    },
    {
      "midi": 63,
      "time": 29.375,
      "duration": 0.625,
      "velocity": 1,
      "hand": "right"
    },
    {
      "midi": 69,
      "time": 29.375,
      "duration": 0.625,
      "velocity": 1,
      "hand": "right"
    },
    {
      "midi": 72,
      "time": 29.375,
      "duration": 0.625,
      "velocity": 1,
      "hand": "right"
    },
    {
      "midi": 43,
      "time": 30,
      "duration": 1.25,
      "velocity": 1,
      "hand": "left"
    },
    {
      "midi": 70,
      "time": 30,
      "duration": 0.61,
      "velocity": 1,
      "hand": "right"
    },
    {
      "midi": 62,
      "time": 30.625,
      "duration": 0.625,
      "velocity": 1,
      "hand": "right"
    },
    {
      "midi": 67,
      "time": 30.625,
      "duration": 0.625,
      "velocity": 1,
      "hand": "right"
    },
    {
      "midi": 70,
      "time": 30.625,
      "duration": 0.61,
      "velocity": 1,
      "hand": "right"
    },
    {
      "midi": 70,
      "time": 31.25,
      "duration": 0.61,
      "velocity": 1,
      "hand": "right"
    },
    {
      "midi": 74,
      "time": 31.25,
      "duration": 0.625,
      "velocity": 1,
      "hand": "right"
    },
    {
      "midi": 62,
      "time": 31.875,
      "duration": 0.625,
      "velocity": 1,
      "hand": "right"
    },
    {
      "midi": 67,
      "time": 31.875,
      "duration": 0.625,
      "velocity": 1,
      "hand": "right"
    },
    {
      "midi": 70,
      "time": 31.875,
      "duration": 0.625,
      "velocity": 1,
      "hand": "right"
    },
    {
      "midi": 43,
      "time": 32.5,
      "duration": 1.25,
      "velocity": 1,
      "hand": "left"
    },
    {
      "midi": 62,
      "time": 33.125,
      "duration": 0.625,
      "velocity": 1,
      "hand": "right"
    },
    {
      "midi": 67,
      "time": 33.125,
      "duration": 0.625,
      "velocity": 1,
      "hand": "right"
    },
    {
      "midi": 70,
      "time": 33.125,
      "duration": 0.61,
      "velocity": 1,
      "hand": "right"
    },
    {
      "midi": 70,
      "time": 33.75,
      "duration": 0.61,
      "velocity": 1,
      "hand": "right"
    },
    {
      "midi": 74,
      "time": 33.75,
      "duration": 0.625,
      "velocity": 1,
      "hand": "right"
    },
    {
      "midi": 62,
      "time": 34.375,
      "duration": 0.625,
      "velocity": 1,
      "hand": "right"
    },
    {
      "midi": 67,
      "time": 34.375,
      "duration": 0.625,
      "velocity": 1,
      "hand": "right"
    },
    {
      "midi": 70,
      "time": 34.375,
      "duration": 0.625,
      "velocity": 1,
      "hand": "right"
    },
    {
      "midi": 39,
      "time": 35,
      "duration": 1.25,
      "velocity": 1,
      "hand": "left"
    },
    {
      "midi": 72,
      "time": 35,
      "duration": 0.61,
      "velocity": 1,
      "hand": "right"
    },
    {
      "midi": 63,
      "time": 35.625,
      "duration": 0.625,
      "velocity": 1,
      "hand": "right"
    },
    {
      "midi": 67,
      "time": 35.625,
      "duration": 0.625,
      "velocity": 1,
      "hand": "right"
    },
    {
      "midi": 72,
      "time": 35.625,
      "duration": 0.61,
      "velocity": 1,
      "hand": "right"
    },
    {
      "midi": 72,
      "time": 36.25,
      "duration": 0.61,
      "velocity": 1,
      "hand": "right"
    },
    {
      "midi": 75,
      "time": 36.25,
      "duration": 0.625,
      "velocity": 1,
      "hand": "right"
    },
    {
      "midi": 63,
      "time": 36.875,
      "duration": 0.625,
      "velocity": 1,
      "hand": "right"
    },
    {
      "midi": 67,
      "time": 36.875,
      "duration": 0.625,
      "velocity": 1,
      "hand": "right"
    },
    {
      "midi": 72,
      "time": 36.875,
      "duration": 0.61,
      "velocity": 1,
      "hand": "right"
    },
    {
      "midi": 41,
      "time": 37.5,
      "duration": 1.25,
      "velocity": 1,
      "hand": "left"
    },
    {
      "midi": 70,
      "time": 37.5,
      "duration": 0.625,
      "velocity": 1,
      "hand": "right"
    },
    {
      "midi": 72,
      "time": 37.5,
      "duration": 0.313,
      "velocity": 1,
      "hand": "right"
    },
    {
      "midi": 74,
      "time": 37.5,
      "duration": 0.313,
      "velocity": 1,
      "hand": "right"
    },
    {
      "midi": 63,
      "time": 38.125,
      "duration": 0.625,
      "velocity": 1,
      "hand": "right"
    },
    {
      "midi": 65,
      "time": 38.125,
      "duration": 0.625,
      "velocity": 1,
      "hand": "right"
    },
    {
      "midi": 69,
      "time": 38.125,
      "duration": 0.61,
      "velocity": 1,
      "hand": "right"
    },
    {
      "midi": 67,
      "time": 38.75,
      "duration": 0.625,
      "velocity": 1,
      "hand": "right"
    },
    {
      "midi": 69,
      "time": 38.75,
      "duration": 0.61,
      "velocity": 1,
      "hand": "right"
    },
    {
      "midi": 72,
      "time": 38.75,
      "duration": 0.625,
      "velocity": 1,
      "hand": "right"
    },
    {
      "midi": 63,
      "time": 39.375,
      "duration": 0.625,
      "velocity": 1,
      "hand": "right"
    },
    {
      "midi": 65,
      "time": 39.375,
      "duration": 0.625,
      "velocity": 1,
      "hand": "right"
    },
    {
      "midi": 69,
      "time": 39.375,
      "duration": 0.625,
      "velocity": 1,
      "hand": "right"
    },
    {
      "midi": 46,
      "time": 40,
      "duration": 1.25,
      "velocity": 1,
      "hand": "left"
    },
    {
      "midi": 70,
      "time": 40,
      "duration": 0.61,
      "velocity": 1,
      "hand": "right"
    },
    {
      "midi": 62,
      "time": 40.625,
      "duration": 0.625,
      "velocity": 1,
      "hand": "right"
    },
    {
      "midi": 65,
      "time": 40.625,
      "duration": 0.625,
      "velocity": 1,
      "hand": "right"
    },
    {
      "midi": 70,
      "time": 40.625,
      "duration": 0.61,
      "velocity": 1,
      "hand": "right"
    },
    {
      "midi": 70,
      "time": 41.25,
      "duration": 0.61,
      "velocity": 1,
      "hand": "right"
    },
    {
      "midi": 74,
      "time": 41.25,
      "duration": 0.625,
      "velocity": 1,
      "hand": "right"
    },
    {
      "midi": 62,
      "time": 41.875,
      "duration": 0.625,
      "velocity": 1,
      "hand": "right"
    },
    {
      "midi": 65,
      "time": 41.875,
      "duration": 0.625,
      "velocity": 1,
      "hand": "right"
    },
    {
      "midi": 70,
      "time": 41.875,
      "duration": 0.625,
      "velocity": 1,
      "hand": "right"
    },
    {
      "midi": 46,
      "time": 42.5,
      "duration": 1.25,
      "velocity": 1,
      "hand": "left"
    },
    {
      "midi": 62,
      "time": 43.125,
      "duration": 0.625,
      "velocity": 1,
      "hand": "right"
    },
    {
      "midi": 65,
      "time": 43.125,
      "duration": 0.625,
      "velocity": 1,
      "hand": "right"
    },
    {
      "midi": 70,
      "time": 43.125,
      "duration": 0.61,
      "velocity": 1,
      "hand": "right"
    },
    {
      "midi": 70,
      "time": 43.75,
      "duration": 0.61,
      "velocity": 1,
      "hand": "right"
    },
    {
      "midi": 74,
      "time": 43.75,
      "duration": 1.235,
      "velocity": 1,
      "hand": "right"
    },
    {
      "midi": 62,
      "time": 44.375,
      "duration": 0.625,
      "velocity": 1,
      "hand": "right"
    },
    {
      "midi": 65,
      "time": 44.375,
      "duration": 0.625,
      "velocity": 1,
      "hand": "right"
    },
    {
      "midi": 70,
      "time": 44.375,
      "duration": 0.625,
      "velocity": 1,
      "hand": "right"
    },
    {
      "midi": 46,
      "time": 45,
      "duration": 1.25,
      "velocity": 1,
      "hand": "left"
    },
    {
      "midi": 74,
      "time": 45,
      "duration": 1.235,
      "velocity": 1,
      "hand": "right"
    },
    {
      "midi": 62,
      "time": 45.625,
      "duration": 0.625,
      "velocity": 1,
      "hand": "right"
    },
    {
      "midi": 66,
      "time": 45.625,
      "duration": 0.625,
      "velocity": 1,
      "hand": "right"
    },
    {
      "midi": 70,
      "time": 45.625,
      "duration": 0.61,
      "velocity": 1,
      "hand": "right"
    },
    {
      "midi": 70,
      "time": 46.25,
      "duration": 0.61,
      "velocity": 1,
      "hand": "right"
    },
    {
      "midi": 74,
      "time": 46.25,
      "duration": 0.625,
      "velocity": 1,
      "hand": "right"
    },
    {
      "midi": 62,
      "time": 46.875,
      "duration": 0.625,
      "velocity": 1,
      "hand": "right"
    },
    {
      "midi": 66,
      "time": 46.875,
      "duration": 0.625,
      "velocity": 1,
      "hand": "right"
    },
    {
      "midi": 70,
      "time": 46.875,
      "duration": 0.61,
      "velocity": 1,
      "hand": "right"
    },
    {
      "midi": 72,
      "time": 46.875,
      "duration": 0.625,
      "velocity": 1,
      "hand": "right"
    },
    {
      "midi": 46,
      "time": 47.5,
      "duration": 1.25,
      "velocity": 1,
      "hand": "left"
    },
    {
      "midi": 70,
      "time": 47.5,
      "duration": 0.61,
      "velocity": 1,
      "hand": "right"
    },
    {
      "midi": 62,
      "time": 48.125,
      "duration": 0.625,
      "velocity": 1,
      "hand": "right"
    },
    {
      "midi": 67,
      "time": 48.125,
      "duration": 0.625,
      "velocity": 1,
      "hand": "right"
    },
    {
      "midi": 70,
      "time": 48.125,
      "duration": 0.61,
      "velocity": 1,
      "hand": "right"
    },
    {
      "midi": 70,
      "time": 48.75,
      "duration": 0.61,
      "velocity": 1,
      "hand": "right"
    },
    {
      "midi": 74,
      "time": 48.75,
      "duration": 0.625,
      "velocity": 1,
      "hand": "right"
    },
    {
      "midi": 62,
      "time": 49.375,
      "duration": 0.625,
      "velocity": 1,
      "hand": "right"
    },
    {
      "midi": 67,
      "time": 49.375,
      "duration": 0.625,
      "velocity": 1,
      "hand": "right"
    },
    {
      "midi": 70,
      "time": 49.375,
      "duration": 0.625,
      "velocity": 1,
      "hand": "right"
    },
    {
      "midi": 76,
      "time": 49.375,
      "duration": 0.625,
      "velocity": 1,
      "hand": "right"
    },
    {
      "midi": 45,
      "time": 50,
      "duration": 1.25,
      "velocity": 1,
      "hand": "left"
    },
    {
      "midi": 74,
      "time": 50,
      "duration": 1.235,
      "velocity": 1,
      "hand": "right"
    },
    {
      "midi": 64,
      "time": 50.625,
      "duration": 0.625,
      "velocity": 1,
      "hand": "right"
    },
    {
      "midi": 67,
      "time": 50.625,
      "duration": 0.625,
      "velocity": 1,
      "hand": "right"
    },
    {
      "midi": 70,
      "time": 50.625,
      "duration": 0.61,
      "velocity": 1,
      "hand": "right"
    },
    {
      "midi": 70,
      "time": 51.25,
      "duration": 0.61,
      "velocity": 1,
      "hand": "right"
    },
    {
      "midi": 74,
      "time": 51.25,
      "duration": 0.625,
      "velocity": 1,
      "hand": "right"
    },
    {
      "midi": 64,
      "time": 51.875,
      "duration": 0.625,
      "velocity": 1,
      "hand": "right"
    },
    {
      "midi": 67,
      "time": 51.875,
      "duration": 0.625,
      "velocity": 1,
      "hand": "right"
    },
    {
      "midi": 70,
      "time": 51.875,
      "duration": 0.625,
      "velocity": 1,
      "hand": "right"
    },
    {
      "midi": 45,
      "time": 52.5,
      "duration": 1.25,
      "velocity": 1,
      "hand": "left"
    },
    {
      "midi": 73,
      "time": 52.5,
      "duration": 1.235,
      "velocity": 1,
      "hand": "right"
    },
    {
      "midi": 64,
      "time": 53.125,
      "duration": 0.625,
      "velocity": 1,
      "hand": "right"
    },
    {
      "midi": 67,
      "time": 53.125,
      "duration": 0.625,
      "velocity": 1,
      "hand": "right"
    },
    {
      "midi": 69,
      "time": 53.125,
      "duration": 0.61,
      "velocity": 1,
      "hand": "right"
    },
    {
      "midi": 69,
      "time": 53.75,
      "duration": 0.61,
      "velocity": 1,
      "hand": "right"
    },
    {
      "midi": 73,
      "time": 53.75,
      "duration": 0.625,
      "velocity": 1,
      "hand": "right"
    },
    {
      "midi": 64,
      "time": 54.375,
      "duration": 0.625,
      "velocity": 1,
      "hand": "right"
    },
    {
      "midi": 67,
      "time": 54.375,
      "duration": 0.625,
      "velocity": 1,
      "hand": "right"
    },
    {
      "midi": 69,
      "time": 54.375,
      "duration": 0.625,
      "velocity": 1,
      "hand": "right"
    },
    {
      "midi": 42,
      "time": 55,
      "duration": 1.25,
      "velocity": 1,
      "hand": "left"
    },
    {
      "midi": 72,
      "time": 55,
      "duration": 0.61,
      "velocity": 1,
      "hand": "right"
    },
    {
      "midi": 63,
      "time": 55.625,
      "duration": 0.625,
      "velocity": 1,
      "hand": "right"
    },
    {
      "midi": 69,
      "time": 55.625,
      "duration": 0.625,
      "velocity": 1,
      "hand": "right"
    },
    {
      "midi": 72,
      "time": 55.625,
      "duration": 0.61,
      "velocity": 1,
      "hand": "right"
    },
    {
      "midi": 72,
      "time": 56.25,
      "duration": 0.61,
      "velocity": 1,
      "hand": "right"
    },
    {
      "midi": 75,
      "time": 56.25,
      "duration": 0.625,
      "velocity": 1,
      "hand": "right"
    },
    {
      "midi": 63,
      "time": 56.875,
      "duration": 0.625,
      "velocity": 1,
      "hand": "right"
    },
    {
      "midi": 70,
      "time": 56.875,
      "duration": 0.625,
      "velocity": 1,
      "hand": "right"
    },
    {
      "midi": 72,
      "time": 56.875,
      "duration": 0.625,
      "velocity": 1,
      "hand": "right"
    },
    {
      "midi": 42,
      "time": 57.5,
      "duration": 1.25,
      "velocity": 1,
      "hand": "left"
    },
    {
      "midi": 69,
      "time": 57.5,
      "duration": 0.61,
      "velocity": 1,
      "hand": "right"
    },
    {
      "midi": 63,
      "time": 58.125,
      "duration": 0.625,
      "velocity": 1,
      "hand": "right"
    },
    {
      "midi": 69,
      "time": 58.125,
      "duration": 0.625,
      "velocity": 1,
      "hand": "right"
    },
    {
      "midi": 72,
      "time": 58.125,
      "duration": 0.61,
      "velocity": 1,
      "hand": "right"
    },
    {
      "midi": 74,
      "time": 58.125,
      "duration": 0.625,
      "velocity": 1,
      "hand": "right"
    },
    {
      "midi": 72,
      "time": 58.75,
      "duration": 0.61,
      "velocity": 1,
      "hand": "right"
    },
    {
      "midi": 75,
      "time": 58.75,
      "duration": 0.625,
      "velocity": 1,
      "hand": "right"
    },
    {
      "midi": 63,
      "time": 59.375,
      "duration": 0.625,
      "velocity": 1,
      "hand": "right"
    },
    {
      "midi": 69,
      "time": 59.375,
      "duration": 0.625,
      "velocity": 1,
      "hand": "right"
    },
    {
      "midi": 72,
      "time": 59.375,
      "duration": 0.625,
      "velocity": 1,
      "hand": "right"
    },
    {
      "midi": 43,
      "time": 60,
      "duration": 1.25,
      "velocity": 1,
      "hand": "left"
    },
    {
      "midi": 70,
      "time": 60,
      "duration": 0.61,
      "velocity": 1,
      "hand": "right"
    },
    {
      "midi": 62,
      "time": 60.625,
      "duration": 0.625,
      "velocity": 1,
      "hand": "right"
    },
    {
      "midi": 67,
      "time": 60.625,
      "duration": 0.625,
      "velocity": 1,
      "hand": "right"
    },
    {
      "midi": 70,
      "time": 60.625,
      "duration": 0.61,
      "velocity": 1,
      "hand": "right"
    },
    {
      "midi": 70,
      "time": 61.25,
      "duration": 0.61,
      "velocity": 1,
      "hand": "right"
    },
    {
      "midi": 74,
      "time": 61.25,
      "duration": 0.625,
      "velocity": 1,
      "hand": "right"
    },
    {
      "midi": 62,
      "time": 61.875,
      "duration": 0.625,
      "velocity": 1,
      "hand": "right"
    },
    {
      "midi": 67,
      "time": 61.875,
      "duration": 0.625,
      "velocity": 1,
      "hand": "right"
    },
    {
      "midi": 70,
      "time": 61.875,
      "duration": 0.625,
      "velocity": 1,
      "hand": "right"
    },
    {
      "midi": 43,
      "time": 62.5,
      "duration": 1.25,
      "velocity": 1,
      "hand": "left"
    },
    {
      "midi": 62,
      "time": 63.125,
      "duration": 0.625,
      "velocity": 1,
      "hand": "right"
    },
    {
      "midi": 64,
      "time": 63.125,
      "duration": 0.625,
      "velocity": 1,
      "hand": "right"
    },
    {
      "midi": 70,
      "time": 63.125,
      "duration": 0.61,
      "velocity": 1,
      "hand": "right"
    },
    {
      "midi": 70,
      "time": 63.75,
      "duration": 0.61,
      "velocity": 1,
      "hand": "right"
    },
    {
      "midi": 74,
      "time": 63.75,
      "duration": 0.625,
      "velocity": 1,
      "hand": "right"
    },
    {
      "midi": 62,
      "time": 64.375,
      "duration": 0.625,
      "velocity": 1,
      "hand": "right"
    },
    {
      "midi": 64,
      "time": 64.375,
      "duration": 0.625,
      "velocity": 1,
      "hand": "right"
    },
    {
      "midi": 70,
      "time": 64.375,
      "duration": 0.625,
      "velocity": 1,
      "hand": "right"
    },
    {
      "midi": 72,
      "time": 64.375,
      "duration": 0.61,
      "velocity": 1,
      "hand": "right"
    },
    {
      "midi": 45,
      "time": 65,
      "duration": 1.25,
      "velocity": 1,
      "hand": "left"
    },
    {
      "midi": 72,
      "time": 65,
      "duration": 1.235,
      "velocity": 1,
      "hand": "right"
    },
    {
      "midi": 60,
      "time": 65.625,
      "duration": 0.625,
      "velocity": 1,
      "hand": "right"
    },
    {
      "midi": 65,
      "time": 65.625,
      "duration": 0.625,
      "velocity": 1,
      "hand": "right"
    },
    {
      "midi": 69,
      "time": 65.625,
      "duration": 0.61,
      "velocity": 1,
      "hand": "right"
    },
    {
      "midi": 69,
      "time": 66.25,
      "duration": 0.61,
      "velocity": 1,
      "hand": "right"
    },
    {
      "midi": 72,
      "time": 66.25,
      "duration": 0.625,
      "velocity": 1,
      "hand": "right"
    },
    {
      "midi": 60,
      "time": 66.875,
      "duration": 0.625,
      "velocity": 1,
      "hand": "right"
    },
    {
      "midi": 65,
      "time": 66.875,
      "duration": 0.625,
      "velocity": 1,
      "hand": "right"
    },
    {
      "midi": 69,
      "time": 66.875,
      "duration": 0.625,
      "velocity": 1,
      "hand": "right"
    },
    {
      "midi": 38,
      "time": 67.5,
      "duration": 1.25,
      "velocity": 1,
      "hand": "left"
    },
    {
      "midi": 50,
      "time": 67.5,
      "duration": 1.25,
      "velocity": 1,
      "hand": "left"
    },
    {
      "midi": 67,
      "time": 67.5,
      "duration": 0.61,
      "velocity": 1,
      "hand": "right"
    },
    {
      "midi": 65,
      "time": 68.125,
      "duration": 0.625,
      "velocity": 1,
      "hand": "right"
    },
    {
      "midi": 67,
      "time": 68.125,
      "duration": 0.625,
      "velocity": 1,
      "hand": "right"
    },
    {
      "midi": 71,
      "time": 68.125,
      "duration": 0.61,
      "velocity": 1,
      "hand": "right"
    },
    {
      "midi": 74,
      "time": 68.125,
      "duration": 0.625,
      "velocity": 1,
      "hand": "right"
    },
    {
      "midi": 71,
      "time": 68.75,
      "duration": 0.61,
      "velocity": 1,
      "hand": "right"
    },
    {
      "midi": 77,
      "time": 68.75,
      "duration": 0.625,
      "velocity": 1,
      "hand": "right"
    },
    {
      "midi": 65,
      "time": 69.375,
      "duration": 0.625,
      "velocity": 1,
      "hand": "right"
    },
    {
      "midi": 67,
      "time": 69.375,
      "duration": 0.625,
      "velocity": 1,
      "hand": "right"
    },
    {
      "midi": 71,
      "time": 69.375,
      "duration": 0.625,
      "velocity": 1,
      "hand": "right"
    },
    {
      "midi": 74,
      "time": 69.375,
      "duration": 0.625,
      "velocity": 1,
      "hand": "right"
    },
    {
      "midi": 36,
      "time": 70,
      "duration": 1.25,
      "velocity": 1,
      "hand": "left"
    },
    {
      "midi": 48,
      "time": 70,
      "duration": 1.25,
      "velocity": 1,
      "hand": "left"
    },
    {
      "midi": 72,
      "time": 70,
      "duration": 0.61,
      "velocity": 1,
      "hand": "right"
    },
    {
      "midi": 65,
      "time": 70.625,
      "duration": 0.625,
      "velocity": 1,
      "hand": "right"
    },
    {
      "midi": 69,
      "time": 70.625,
      "duration": 0.625,
      "velocity": 1,
      "hand": "right"
    },
    {
      "midi": 72,
      "time": 70.625,
      "duration": 0.61,
      "velocity": 1,
      "hand": "right"
    },
    {
      "midi": 72,
      "time": 71.25,
      "duration": 0.61,
      "velocity": 1,
      "hand": "right"
    },
    {
      "midi": 77,
      "time": 71.25,
      "duration": 0.625,
      "velocity": 1,
      "hand": "right"
    },
    {
      "midi": 65,
      "time": 71.875,
      "duration": 0.625,
      "velocity": 1,
      "hand": "right"
    },
    {
      "midi": 69,
      "time": 71.875,
      "duration": 0.625,
      "velocity": 1,
      "hand": "right"
    },
    {
      "midi": 72,
      "time": 71.875,
      "duration": 0.625,
      "velocity": 1,
      "hand": "right"
    },
    {
      "midi": 36,
      "time": 72.5,
      "duration": 1.25,
      "velocity": 1,
      "hand": "left"
    },
    {
      "midi": 48,
      "time": 72.5,
      "duration": 1.25,
      "velocity": 1,
      "hand": "left"
    },
    {
      "midi": 67,
      "time": 73.125,
      "duration": 0.625,
      "velocity": 1,
      "hand": "right"
    },
    {
      "midi": 70,
      "time": 73.125,
      "duration": 0.61,
      "velocity": 1,
      "hand": "right"
    },
    {
      "midi": 72,
      "time": 73.125,
      "duration": 0.61,
      "velocity": 1,
      "hand": "right"
    },
    {
      "midi": 70,
      "time": 73.75,
      "duration": 0.313,
      "velocity": 1,
      "hand": "right"
    },
    {
      "midi": 72,
      "time": 73.75,
      "duration": 0.61,
      "velocity": 1,
      "hand": "right"
    },
    {
      "midi": 76,
      "time": 73.75,
      "duration": 0.625,
      "velocity": 1,
      "hand": "right"
    },
    {
      "midi": 67,
      "time": 74.375,
      "duration": 0.625,
      "velocity": 1,
      "hand": "right"
    },
    {
      "midi": 70,
      "time": 74.375,
      "duration": 0.625,
      "velocity": 1,
      "hand": "right"
    },
    {
      "midi": 72,
      "time": 74.375,
      "duration": 0.625,
      "velocity": 1,
      "hand": "right"
    },
    {
      "midi": 41,
      "time": 75,
      "duration": 1.25,
      "velocity": 1,
      "hand": "left"
    },
    {
      "midi": 53,
      "time": 75,
      "duration": 1.25,
      "velocity": 1,
      "hand": "left"
    },
    {
      "midi": 65,
      "time": 75,
      "duration": 0.61,
      "velocity": 1,
      "hand": "right"
    },
    {
      "midi": 65,
      "time": 75.625,
      "duration": 0.625,
      "velocity": 1,
      "hand": "right"
    },
    {
      "midi": 69,
      "time": 75.625,
      "duration": 0.625,
      "velocity": 1,
      "hand": "right"
    },
    {
      "midi": 72,
      "time": 75.625,
      "duration": 0.61,
      "velocity": 1,
      "hand": "right"
    },
    {
      "midi": 72,
      "time": 76.25,
      "duration": 0.61,
      "velocity": 1,
      "hand": "right"
    },
    {
      "midi": 77,
      "time": 76.25,
      "duration": 0.625,
      "velocity": 1,
      "hand": "right"
    },
    {
      "midi": 65,
      "time": 76.875,
      "duration": 0.625,
      "velocity": 1,
      "hand": "right"
    },
    {
      "midi": 69,
      "time": 76.875,
      "duration": 0.625,
      "velocity": 1,
      "hand": "right"
    },
    {
      "midi": 72,
      "time": 76.875,
      "duration": 0.625,
      "velocity": 1,
      "hand": "right"
    },
    {
      "midi": 41,
      "time": 77.5,
      "duration": 1.25,
      "velocity": 1,
      "hand": "left"
    },
    {
      "midi": 53,
      "time": 77.5,
      "duration": 1.25,
      "velocity": 1,
      "hand": "left"
    },
    {
      "midi": 65,
      "time": 78.125,
      "duration": 0.61,
      "velocity": 1,
      "hand": "right"
    },
    {
      "midi": 69,
      "time": 78.125,
      "duration": 0.625,
      "velocity": 1,
      "hand": "right"
    },
    {
      "midi": 72,
      "time": 78.125,
      "duration": 0.61,
      "velocity": 1,
      "hand": "right"
    },
    {
      "midi": 65,
      "time": 78.75,
      "duration": 0.61,
      "velocity": 1,
      "hand": "right"
    },
    {
      "midi": 72,
      "time": 78.75,
      "duration": 0.61,
      "velocity": 1,
      "hand": "right"
    },
    {
      "midi": 77,
      "time": 78.75,
      "duration": 0.625,
      "velocity": 1,
      "hand": "right"
    },
    {
      "midi": 65,
      "time": 79.375,
      "duration": 0.625,
      "velocity": 1,
      "hand": "right"
    },
    {
      "midi": 69,
      "time": 79.375,
      "duration": 0.625,
      "velocity": 1,
      "hand": "right"
    },
    {
      "midi": 72,
      "time": 79.375,
      "duration": 0.61,
      "velocity": 1,
      "hand": "right"
    },
    {
      "midi": 41,
      "time": 80,
      "duration": 1.25,
      "velocity": 1,
      "hand": "left"
    },
    {
      "midi": 53,
      "time": 80,
      "duration": 1.25,
      "velocity": 1,
      "hand": "left"
    },
    {
      "midi": 72,
      "time": 80,
      "duration": 0.61,
      "velocity": 1,
      "hand": "right"
    },
    {
      "midi": 63,
      "time": 80.625,
      "duration": 0.625,
      "velocity": 1,
      "hand": "right"
    },
    {
      "midi": 69,
      "time": 80.625,
      "duration": 0.625,
      "velocity": 1,
      "hand": "right"
    },
    {
      "midi": 72,
      "time": 80.625,
      "duration": 0.61,
      "velocity": 1,
      "hand": "right"
    },
    {
      "midi": 72,
      "time": 81.25,
      "duration": 0.61,
      "velocity": 1,
      "hand": "right"
    },
    {
      "midi": 77,
      "time": 81.25,
      "duration": 0.625,
      "velocity": 1,
      "hand": "right"
    },
    {
      "midi": 63,
      "time": 81.875,
      "duration": 0.625,
      "velocity": 1,
      "hand": "right"
    },
    {
      "midi": 69,
      "time": 81.875,
      "duration": 0.625,
      "velocity": 1,
      "hand": "right"
    },
    {
      "midi": 72,
      "time": 81.875,
      "duration": 0.61,
      "velocity": 1,
      "hand": "right"
    },
    {
      "midi": 41,
      "time": 82.5,
      "duration": 1.25,
      "velocity": 1,
      "hand": "left"
    },
    {
      "midi": 53,
      "time": 82.5,
      "duration": 1.25,
      "velocity": 1,
      "hand": "left"
    },
    {
      "midi": 72,
      "time": 82.5,
      "duration": 0.61,
      "velocity": 1,
      "hand": "right"
    },
    {
      "midi": 63,
      "time": 83.125,
      "duration": 0.625,
      "velocity": 1,
      "hand": "right"
    },
    {
      "midi": 69,
      "time": 83.125,
      "duration": 0.625,
      "velocity": 1,
      "hand": "right"
    },
    {
      "midi": 72,
      "time": 83.125,
      "duration": 0.61,
      "velocity": 1,
      "hand": "right"
    },
    {
      "midi": 72,
      "time": 83.75,
      "duration": 0.61,
      "velocity": 1,
      "hand": "right"
    },
    {
      "midi": 77,
      "time": 83.75,
      "duration": 0.625,
      "velocity": 1,
      "hand": "right"
    },
    {
      "midi": 63,
      "time": 84.375,
      "duration": 0.625,
      "velocity": 1,
      "hand": "right"
    },
    {
      "midi": 69,
      "time": 84.375,
      "duration": 0.625,
      "velocity": 1,
      "hand": "right"
    },
    {
      "midi": 72,
      "time": 84.375,
      "duration": 0.61,
      "velocity": 1,
      "hand": "right"
    },
    {
      "midi": 41,
      "time": 85,
      "duration": 1.25,
      "velocity": 1,
      "hand": "left"
    },
    {
      "midi": 53,
      "time": 85,
      "duration": 1.25,
      "velocity": 1,
      "hand": "left"
    },
    {
      "midi": 72,
      "time": 85,
      "duration": 1.25,
      "velocity": 1,
      "hand": "right"
    },
    {
      "midi": 74,
      "time": 85,
      "duration": 0.61,
      "velocity": 1,
      "hand": "right"
    },
    {
      "midi": 62,
      "time": 85.625,
      "duration": 0.625,
      "velocity": 1,
      "hand": "right"
    },
    {
      "midi": 70,
      "time": 85.625,
      "duration": 0.61,
      "velocity": 1,
      "hand": "right"
    },
    {
      "midi": 74,
      "time": 85.625,
      "duration": 0.61,
      "velocity": 1,
      "hand": "right"
    },
    {
      "midi": 70,
      "time": 86.25,
      "duration": 0.61,
      "velocity": 1,
      "hand": "right"
    },
    {
      "midi": 74,
      "time": 86.25,
      "duration": 0.61,
      "velocity": 1,
      "hand": "right"
    },
    {
      "midi": 77,
      "time": 86.25,
      "duration": 0.625,
      "velocity": 1,
      "hand": "right"
    },
    {
      "midi": 62,
      "time": 86.875,
      "duration": 0.625,
      "velocity": 1,
      "hand": "right"
    },
    {
      "midi": 70,
      "time": 86.875,
      "duration": 0.625,
      "velocity": 1,
      "hand": "right"
    },
    {
      "midi": 74,
      "time": 86.875,
      "duration": 0.625,
      "velocity": 1,
      "hand": "right"
    },
    {
      "midi": 41,
      "time": 87.5,
      "duration": 1.25,
      "velocity": 1,
      "hand": "left"
    },
    {
      "midi": 53,
      "time": 87.5,
      "duration": 1.25,
      "velocity": 1,
      "hand": "left"
    },
    {
      "midi": 62,
      "time": 88.125,
      "duration": 0.625,
      "velocity": 1,
      "hand": "right"
    },
    {
      "midi": 70,
      "time": 88.125,
      "duration": 0.61,
      "velocity": 1,
      "hand": "right"
    },
    {
      "midi": 74,
      "time": 88.125,
      "duration": 0.61,
      "velocity": 1,
      "hand": "right"
    },
    {
      "midi": 70,
      "time": 88.75,
      "duration": 0.61,
      "velocity": 1,
      "hand": "right"
    },
    {
      "midi": 74,
      "time": 88.75,
      "duration": 0.61,
      "velocity": 1,
      "hand": "right"
    },
    {
      "midi": 77,
      "time": 88.75,
      "duration": 0.625,
      "velocity": 1,
      "hand": "right"
    },
    {
      "midi": 62,
      "time": 89.375,
      "duration": 0.625,
      "velocity": 1,
      "hand": "right"
    },
    {
      "midi": 70,
      "time": 89.375,
      "duration": 0.625,
      "velocity": 1,
      "hand": "right"
    },
    {
      "midi": 74,
      "time": 89.375,
      "duration": 0.625,
      "velocity": 1,
      "hand": "right"
    },
    {
      "midi": 41,
      "time": 90,
      "duration": 1.25,
      "velocity": 1,
      "hand": "left"
    },
    {
      "midi": 53,
      "time": 90,
      "duration": 1.25,
      "velocity": 1,
      "hand": "left"
    },
    {
      "midi": 72,
      "time": 90,
      "duration": 0.61,
      "velocity": 1,
      "hand": "right"
    },
    {
      "midi": 63,
      "time": 90.625,
      "duration": 0.625,
      "velocity": 1,
      "hand": "right"
    },
    {
      "midi": 69,
      "time": 90.625,
      "duration": 0.625,
      "velocity": 1,
      "hand": "right"
    },
    {
      "midi": 72,
      "time": 90.625,
      "duration": 0.61,
      "velocity": 1,
      "hand": "right"
    },
    {
      "midi": 72,
      "time": 91.25,
      "duration": 0.61,
      "velocity": 1,
      "hand": "right"
    },
    {
      "midi": 77,
      "time": 91.25,
      "duration": 0.625,
      "velocity": 1,
      "hand": "right"
    },
    {
      "midi": 63,
      "time": 91.875,
      "duration": 0.625,
      "velocity": 1,
      "hand": "right"
    },
    {
      "midi": 69,
      "time": 91.875,
      "duration": 0.625,
      "velocity": 1,
      "hand": "right"
    },
    {
      "midi": 72,
      "time": 91.875,
      "duration": 0.61,
      "velocity": 1,
      "hand": "right"
    },
    {
      "midi": 41,
      "time": 92.5,
      "duration": 1.25,
      "velocity": 1,
      "hand": "left"
    },
    {
      "midi": 53,
      "time": 92.5,
      "duration": 1.25,
      "velocity": 1,
      "hand": "left"
    },
    {
      "midi": 72,
      "time": 92.5,
      "duration": 0.61,
      "velocity": 1,
      "hand": "right"
    },
    {
      "midi": 63,
      "time": 93.125,
      "duration": 0.625,
      "velocity": 1,
      "hand": "right"
    },
    {
      "midi": 69,
      "time": 93.125,
      "duration": 0.625,
      "velocity": 1,
      "hand": "right"
    },
    {
      "midi": 72,
      "time": 93.125,
      "duration": 0.61,
      "velocity": 1,
      "hand": "right"
    },
    {
      "midi": 72,
      "time": 93.75,
      "duration": 0.61,
      "velocity": 1,
      "hand": "right"
    },
    {
      "midi": 75,
      "time": 93.75,
      "duration": 0.625,
      "velocity": 1,
      "hand": "right"
    },
    {
      "midi": 77,
      "time": 93.75,
      "duration": 0.625,
      "velocity": 1,
      "hand": "right"
    },
    {
      "midi": 63,
      "time": 94.375,
      "duration": 0.625,
      "velocity": 1,
      "hand": "right"
    },
    {
      "midi": 69,
      "time": 94.375,
      "duration": 0.625,
      "velocity": 1,
      "hand": "right"
    },
    {
      "midi": 72,
      "time": 94.375,
      "duration": 0.625,
      "velocity": 1,
      "hand": "right"
    },
    {
      "midi": 74,
      "time": 94.375,
      "duration": 0.625,
      "velocity": 1,
      "hand": "right"
    },
    {
      "midi": 43,
      "time": 95,
      "duration": 1.25,
      "velocity": 1,
      "hand": "left"
    },
    {
      "midi": 55,
      "time": 95,
      "duration": 1.25,
      "velocity": 1,
      "hand": "left"
    },
    {
      "midi": 70,
      "time": 95,
      "duration": 0.61,
      "velocity": 1,
      "hand": "right"
    },
    {
      "midi": 62,
      "time": 95.625,
      "duration": 0.625,
      "velocity": 1,
      "hand": "right"
    },
    {
      "midi": 67,
      "time": 95.625,
      "duration": 0.625,
      "velocity": 1,
      "hand": "right"
    },
    {
      "midi": 70,
      "time": 95.625,
      "duration": 0.61,
      "velocity": 1,
      "hand": "right"
    },
    {
      "midi": 70,
      "time": 96.25,
      "duration": 0.61,
      "velocity": 1,
      "hand": "right"
    },
    {
      "midi": 74,
      "time": 96.25,
      "duration": 0.625,
      "velocity": 1,
      "hand": "right"
    },
    {
      "midi": 62,
      "time": 96.875,
      "duration": 0.625,
      "velocity": 1,
      "hand": "right"
    },
    {
      "midi": 67,
      "time": 96.875,
      "duration": 0.625,
      "velocity": 1,
      "hand": "right"
    },
    {
      "midi": 70,
      "time": 96.875,
      "duration": 0.625,
      "velocity": 1,
      "hand": "right"
    },
    {
      "midi": 43,
      "time": 97.5,
      "duration": 1.25,
      "velocity": 1,
      "hand": "left"
    },
    {
      "midi": 55,
      "time": 97.5,
      "duration": 1.25,
      "velocity": 1,
      "hand": "left"
    },
    {
      "midi": 58,
      "time": 98.125,
      "duration": 0.625,
      "velocity": 1,
      "hand": "left"
    },
    {
      "midi": 62,
      "time": 98.125,
      "duration": 0.625,
      "velocity": 1,
      "hand": "right"
    },
    {
      "midi": 67,
      "time": 98.125,
      "duration": 0.61,
      "velocity": 1,
      "hand": "right"
    },
    {
      "midi": 67,
      "time": 98.75,
      "duration": 0.61,
      "velocity": 1,
      "hand": "right"
    },
    {
      "midi": 70,
      "time": 98.75,
      "duration": 1.25,
      "velocity": 1,
      "hand": "right"
    },
    {
      "midi": 58,
      "time": 99.375,
      "duration": 0.625,
      "velocity": 1,
      "hand": "left"
    },
    {
      "midi": 62,
      "time": 99.375,
      "duration": 0.625,
      "velocity": 1,
      "hand": "right"
    },
    {
      "midi": 67,
      "time": 99.375,
      "duration": 0.625,
      "velocity": 1,
      "hand": "right"
    },
    {
      "midi": 41,
      "time": 100,
      "duration": 1.25,
      "velocity": 1,
      "hand": "left"
    },
    {
      "midi": 53,
      "time": 100,
      "duration": 1.25,
      "velocity": 1,
      "hand": "left"
    },
    {
      "midi": 72,
      "time": 100,
      "duration": 1.235,
      "velocity": 1,
      "hand": "right"
    },
    {
      "midi": 60,
      "time": 100.625,
      "duration": 0.625,
      "velocity": 1,
      "hand": "right"
    },
    {
      "midi": 65,
      "time": 100.625,
      "duration": 0.625,
      "velocity": 1,
      "hand": "right"
    },
    {
      "midi": 69,
      "time": 100.625,
      "duration": 0.61,
      "velocity": 1,
      "hand": "right"
    },
    {
      "midi": 69,
      "time": 101.25,
      "duration": 0.61,
      "velocity": 1,
      "hand": "right"
    },
    {
      "midi": 72,
      "time": 101.25,
      "duration": 0.61,
      "velocity": 1,
      "hand": "right"
    },
    {
      "midi": 60,
      "time": 101.875,
      "duration": 0.625,
      "velocity": 1,
      "hand": "right"
    },
    {
      "midi": 65,
      "time": 101.875,
      "duration": 0.625,
      "velocity": 1,
      "hand": "right"
    },
    {
      "midi": 69,
      "time": 101.875,
      "duration": 0.625,
      "velocity": 1,
      "hand": "right"
    },
    {
      "midi": 72,
      "time": 101.875,
      "duration": 0.625,
      "velocity": 1,
      "hand": "right"
    },
    {
      "midi": 38,
      "time": 102.5,
      "duration": 1.25,
      "velocity": 1,
      "hand": "left"
    },
    {
      "midi": 50,
      "time": 102.5,
      "duration": 1.25,
      "velocity": 1,
      "hand": "left"
    },
    {
      "midi": 74,
      "time": 102.5,
      "duration": 1.235,
      "velocity": 1,
      "hand": "right"
    },
    {
      "midi": 62,
      "time": 103.125,
      "duration": 0.625,
      "velocity": 1,
      "hand": "right"
    },
    {
      "midi": 66,
      "time": 103.125,
      "duration": 0.625,
      "velocity": 1,
      "hand": "right"
    },
    {
      "midi": 69,
      "time": 103.125,
      "duration": 0.61,
      "velocity": 1,
      "hand": "right"
    },
    {
      "midi": 69,
      "time": 103.75,
      "duration": 0.61,
      "velocity": 1,
      "hand": "right"
    },
    {
      "midi": 75,
      "time": 103.75,
      "duration": 0.313,
      "velocity": 1,
      "hand": "right"
    },
    {
      "midi": 66,
      "time": 104.375,
      "duration": 0.625,
      "velocity": 1,
      "hand": "right"
    },
    {
      "midi": 69,
      "time": 104.375,
      "duration": 0.625,
      "velocity": 1,
      "hand": "right"
    },
    {
      "midi": 72,
      "time": 104.375,
      "duration": 0.625,
      "velocity": 1,
      "hand": "right"
    },
    {
      "midi": 74,
      "time": 104.375,
      "duration": 0.313,
      "velocity": 1,
      "hand": "right"
    },
    {
      "midi": 36,
      "time": 105,
      "duration": 1.25,
      "velocity": 1,
      "hand": "left"
    },
    {
      "midi": 48,
      "time": 105,
      "duration": 1.25,
      "velocity": 1,
      "hand": "left"
    },
    {
      "midi": 75,
      "time": 105,
      "duration": 1.235,
      "velocity": 1,
      "hand": "right"
    },
    {
      "midi": 77,
      "time": 105,
      "duration": 0.313,
      "velocity": 1,
      "hand": "right"
    },
    {
      "midi": 63,
      "time": 105.625,
      "duration": 0.625,
      "velocity": 1,
      "hand": "right"
    },
    {
      "midi": 67,
      "time": 105.625,
      "duration": 0.625,
      "velocity": 1,
      "hand": "right"
    },
    {
      "midi": 72,
      "time": 105.625,
      "duration": 0.61,
      "velocity": 1,
      "hand": "right"
    },
    {
      "midi": 72,
      "time": 106.25,
      "duration": 0.61,
      "velocity": 1,
      "hand": "right"
    },
    {
      "midi": 75,
      "time": 106.25,
      "duration": 1.25,
      "velocity": 1,
      "hand": "right"
    },
    {
      "midi": 63,
      "time": 106.875,
      "duration": 0.625,
      "velocity": 1,
      "hand": "right"
    },
    {
      "midi": 67,
      "time": 106.875,
      "duration": 0.625,
      "velocity": 1,
      "hand": "right"
    },
    {
      "midi": 72,
      "time": 106.875,
      "duration": 0.625,
      "velocity": 1,
      "hand": "right"
    },
    {
      "midi": 36,
      "time": 107.5,
      "duration": 1.25,
      "velocity": 1,
      "hand": "left"
    },
    {
      "midi": 48,
      "time": 107.5,
      "duration": 1.25,
      "velocity": 1,
      "hand": "left"
    },
    {
      "midi": 63,
      "time": 108.125,
      "duration": 0.625,
      "velocity": 1,
      "hand": "right"
    },
    {
      "midi": 67,
      "time": 108.125,
      "duration": 0.625,
      "velocity": 1,
      "hand": "right"
    },
    {
      "midi": 72,
      "time": 108.125,
      "duration": 0.61,
      "velocity": 1,
      "hand": "right"
    },
    {
      "midi": 72,
      "time": 108.75,
      "duration": 0.61,
      "velocity": 1,
      "hand": "right"
    },
    {
      "midi": 75,
      "time": 108.75,
      "duration": 0.625,
      "velocity": 1,
      "hand": "right"
    },
    {
      "midi": 63,
      "time": 109.375,
      "duration": 0.625,
      "velocity": 1,
      "hand": "right"
    },
    {
      "midi": 67,
      "time": 109.375,
      "duration": 0.625,
      "velocity": 1,
      "hand": "right"
    },
    {
      "midi": 72,
      "time": 109.375,
      "duration": 0.61,
      "velocity": 1,
      "hand": "right"
    },
    {
      "midi": 39,
      "time": 110,
      "duration": 1.25,
      "velocity": 1,
      "hand": "left"
    },
    {
      "midi": 51,
      "time": 110,
      "duration": 1.25,
      "velocity": 1,
      "hand": "left"
    },
    {
      "midi": 72,
      "time": 110,
      "duration": 1.235,
      "velocity": 1,
      "hand": "right"
    },
    {
      "midi": 74,
      "time": 110,
      "duration": 0.313,
      "velocity": 1,
      "hand": "right"
    },
    {
      "midi": 60,
      "time": 110.625,
      "duration": 0.625,
      "velocity": 1,
      "hand": "right"
    },
    {
      "midi": 63,
      "time": 110.625,
      "duration": 0.625,
      "velocity": 1,
      "hand": "right"
    },
    {
      "midi": 67,
      "time": 110.625,
      "duration": 0.61,
      "velocity": 1,
      "hand": "right"
    },
    {
      "midi": 67,
      "time": 111.25,
      "duration": 0.61,
      "velocity": 1,
      "hand": "right"
    },
    {
      "midi": 72,
      "time": 111.25,
      "duration": 0.61,
      "velocity": 1,
      "hand": "right"
    },
    {
      "midi": 60,
      "time": 111.875,
      "duration": 0.625,
      "velocity": 1,
      "hand": "right"
    },
    {
      "midi": 63,
      "time": 111.875,
      "duration": 0.625,
      "velocity": 1,
      "hand": "right"
    },
    {
      "midi": 67,
      "time": 111.875,
      "duration": 0.625,
      "velocity": 1,
      "hand": "right"
    },
    {
      "midi": 72,
      "time": 111.875,
      "duration": 0.625,
      "velocity": 1,
      "hand": "right"
    },
    {
      "midi": 43,
      "time": 112.5,
      "duration": 1.25,
      "velocity": 1,
      "hand": "left"
    },
    {
      "midi": 55,
      "time": 112.5,
      "duration": 1.25,
      "velocity": 1,
      "hand": "left"
    },
    {
      "midi": 70,
      "time": 112.5,
      "duration": 0.61,
      "velocity": 1,
      "hand": "right"
    },
    {
      "midi": 61,
      "time": 113.125,
      "duration": 0.625,
      "velocity": 1,
      "hand": "right"
    },
    {
      "midi": 64,
      "time": 113.125,
      "duration": 0.625,
      "velocity": 1,
      "hand": "right"
    },
    {
      "midi": 70,
      "time": 113.125,
      "duration": 0.61,
      "velocity": 1,
      "hand": "right"
    },
    {
      "midi": 70,
      "time": 113.75,
      "duration": 0.61,
      "velocity": 1,
      "hand": "right"
    },
    {
      "midi": 73,
      "time": 113.75,
      "duration": 0.625,
      "velocity": 1,
      "hand": "right"
    },
    {
      "midi": 61,
      "time": 114.375,
      "duration": 0.625,
      "velocity": 1,
      "hand": "right"
    },
    {
      "midi": 64,
      "time": 114.375,
      "duration": 0.625,
      "velocity": 1,
      "hand": "right"
    },
    {
      "midi": 70,
      "time": 114.375,
      "duration": 0.625,
      "velocity": 1,
      "hand": "right"
    },
    {
      "midi": 72,
      "time": 114.375,
      "duration": 0.61,
      "velocity": 1,
      "hand": "right"
    },
    {
      "midi": 41,
      "time": 115,
      "duration": 1.25,
      "velocity": 1,
      "hand": "left"
    },
    {
      "midi": 53,
      "time": 115,
      "duration": 1.25,
      "velocity": 1,
      "hand": "left"
    },
    {
      "midi": 72,
      "time": 115,
      "duration": 1.235,
      "velocity": 1,
      "hand": "right"
    },
    {
      "midi": 60,
      "time": 115.625,
      "duration": 0.625,
      "velocity": 1,
      "hand": "right"
    },
    {
      "midi": 65,
      "time": 115.625,
      "duration": 0.625,
      "velocity": 1,
      "hand": "right"
    },
    {
      "midi": 69,
      "time": 115.625,
      "duration": 0.61,
      "velocity": 1,
      "hand": "right"
    },
    {
      "midi": 69,
      "time": 116.25,
      "duration": 0.61,
      "velocity": 1,
      "hand": "right"
    },
    {
      "midi": 72,
      "time": 116.25,
      "duration": 0.625,
      "velocity": 1,
      "hand": "right"
    },
    {
      "midi": 60,
      "time": 116.875,
      "duration": 0.625,
      "velocity": 1,
      "hand": "right"
    },
    {
      "midi": 65,
      "time": 116.875,
      "duration": 0.625,
      "velocity": 1,
      "hand": "right"
    },
    {
      "midi": 69,
      "time": 116.875,
      "duration": 0.625,
      "velocity": 1,
      "hand": "right"
    },
    {
      "midi": 41,
      "time": 117.5,
      "duration": 1.25,
      "velocity": 1,
      "hand": "left"
    },
    {
      "midi": 53,
      "time": 117.5,
      "duration": 1.25,
      "velocity": 1,
      "hand": "left"
    },
    {
      "midi": 63,
      "time": 118.125,
      "duration": 0.625,
      "velocity": 1,
      "hand": "right"
    },
    {
      "midi": 65,
      "time": 118.125,
      "duration": 0.625,
      "velocity": 1,
      "hand": "right"
    },
    {
      "midi": 69,
      "time": 118.125,
      "duration": 0.61,
      "velocity": 1,
      "hand": "right"
    },
    {
      "midi": 69,
      "time": 118.75,
      "duration": 0.61,
      "velocity": 1,
      "hand": "right"
    },
    {
      "midi": 72,
      "time": 118.75,
      "duration": 0.625,
      "velocity": 1,
      "hand": "right"
    },
    {
      "midi": 63,
      "time": 119.375,
      "duration": 0.625,
      "velocity": 1,
      "hand": "right"
    },
    {
      "midi": 65,
      "time": 119.375,
      "duration": 0.625,
      "velocity": 1,
      "hand": "right"
    },
    {
      "midi": 69,
      "time": 119.375,
      "duration": 0.625,
      "velocity": 1,
      "hand": "right"
    },
    {
      "midi": 46,
      "time": 120,
      "duration": 1.25,
      "velocity": 1,
      "hand": "left"
    },
    {
      "midi": 70,
      "time": 120,
      "duration": 0.61,
      "velocity": 1,
      "hand": "right"
    },
    {
      "midi": 62,
      "time": 120.625,
      "duration": 0.625,
      "velocity": 1,
      "hand": "right"
    },
    {
      "midi": 65,
      "time": 120.625,
      "duration": 0.625,
      "velocity": 1,
      "hand": "right"
    },
    {
      "midi": 70,
      "time": 120.625,
      "duration": 0.61,
      "velocity": 1,
      "hand": "right"
    },
    {
      "midi": 70,
      "time": 121.25,
      "duration": 0.61,
      "velocity": 1,
      "hand": "right"
    },
    {
      "midi": 74,
      "time": 121.25,
      "duration": 0.625,
      "velocity": 1,
      "hand": "right"
    },
    {
      "midi": 62,
      "time": 121.875,
      "duration": 0.625,
      "velocity": 1,
      "hand": "right"
    },
    {
      "midi": 65,
      "time": 121.875,
      "duration": 0.625,
      "velocity": 1,
      "hand": "right"
    },
    {
      "midi": 70,
      "time": 121.875,
      "duration": 0.625,
      "velocity": 1,
      "hand": "right"
    },
    {
      "midi": 43,
      "time": 122.5,
      "duration": 1.25,
      "velocity": 1,
      "hand": "left"
    },
    {
      "midi": 62,
      "time": 123.125,
      "duration": 0.625,
      "velocity": 1,
      "hand": "right"
    },
    {
      "midi": 64,
      "time": 123.125,
      "duration": 0.625,
      "velocity": 1,
      "hand": "right"
    },
    {
      "midi": 70,
      "time": 123.125,
      "duration": 0.61,
      "velocity": 1,
      "hand": "right"
    },
    {
      "midi": 70,
      "time": 123.75,
      "duration": 0.61,
      "velocity": 1,
      "hand": "right"
    },
    {
      "midi": 74,
      "time": 123.75,
      "duration": 0.625,
      "velocity": 1,
      "hand": "right"
    },
    {
      "midi": 62,
      "time": 124.375,
      "duration": 0.625,
      "velocity": 1,
      "hand": "right"
    },
    {
      "midi": 64,
      "time": 124.375,
      "duration": 0.625,
      "velocity": 1,
      "hand": "right"
    },
    {
      "midi": 70,
      "time": 124.375,
      "duration": 0.625,
      "velocity": 1,
      "hand": "right"
    },
    {
      "midi": 41,
      "time": 125,
      "duration": 1.25,
      "velocity": 1,
      "hand": "left"
    },
    {
      "midi": 74,
      "time": 125,
      "duration": 1.235,
      "velocity": 1,
      "hand": "right"
    },
    {
      "midi": 62,
      "time": 125.625,
      "duration": 0.625,
      "velocity": 1,
      "hand": "right"
    },
    {
      "midi": 65,
      "time": 125.625,
      "duration": 0.625,
      "velocity": 1,
      "hand": "right"
    },
    {
      "midi": 70,
      "time": 125.625,
      "duration": 0.61,
      "velocity": 1,
      "hand": "right"
    },
    {
      "midi": 70,
      "time": 126.25,
      "duration": 0.61,
      "velocity": 1,
      "hand": "right"
    },
    {
      "midi": 74,
      "time": 126.25,
      "duration": 0.625,
      "velocity": 1,
      "hand": "right"
    },
    {
      "midi": 62,
      "time": 126.875,
      "duration": 0.625,
      "velocity": 1,
      "hand": "right"
    },
    {
      "midi": 65,
      "time": 126.875,
      "duration": 0.625,
      "velocity": 1,
      "hand": "right"
    },
    {
      "midi": 70,
      "time": 126.875,
      "duration": 0.625,
      "velocity": 1,
      "hand": "right"
    },
    {
      "midi": 41,
      "time": 127.5,
      "duration": 1.25,
      "velocity": 1,
      "hand": "left"
    },
    {
      "midi": 63,
      "time": 128.125,
      "duration": 0.625,
      "velocity": 1,
      "hand": "right"
    },
    {
      "midi": 65,
      "time": 128.125,
      "duration": 0.625,
      "velocity": 1,
      "hand": "right"
    },
    {
      "midi": 69,
      "time": 128.125,
      "duration": 0.61,
      "velocity": 1,
      "hand": "right"
    },
    {
      "midi": 69,
      "time": 128.75,
      "duration": 0.61,
      "velocity": 1,
      "hand": "right"
    },
    {
      "midi": 72,
      "time": 128.75,
      "duration": 0.61,
      "velocity": 1,
      "hand": "right"
    },
    {
      "midi": 63,
      "time": 129.375,
      "duration": 0.625,
      "velocity": 1,
      "hand": "right"
    },
    {
      "midi": 65,
      "time": 129.375,
      "duration": 0.625,
      "velocity": 1,
      "hand": "right"
    },
    {
      "midi": 69,
      "time": 129.375,
      "duration": 0.625,
      "velocity": 1,
      "hand": "right"
    },
    {
      "midi": 72,
      "time": 129.375,
      "duration": 0.625,
      "velocity": 1,
      "hand": "right"
    },
    {
      "midi": 46,
      "time": 130,
      "duration": 1.25,
      "velocity": 1,
      "hand": "left"
    },
    {
      "midi": 70,
      "time": 130,
      "duration": 0.61,
      "velocity": 1,
      "hand": "right"
    },
    {
      "midi": 62,
      "time": 130.625,
      "duration": 0.625,
      "velocity": 1,
      "hand": "right"
    },
    {
      "midi": 65,
      "time": 130.625,
      "duration": 0.625,
      "velocity": 1,
      "hand": "right"
    },
    {
      "midi": 70,
      "time": 130.625,
      "duration": 0.61,
      "velocity": 1,
      "hand": "right"
    },
    {
      "midi": 70,
      "time": 131.25,
      "duration": 0.61,
      "velocity": 1,
      "hand": "right"
    },
    {
      "midi": 74,
      "time": 131.25,
      "duration": 0.625,
      "velocity": 1,
      "hand": "right"
    },
    {
      "midi": 62,
      "time": 131.875,
      "duration": 0.625,
      "velocity": 1,
      "hand": "right"
    },
    {
      "midi": 65,
      "time": 131.875,
      "duration": 0.625,
      "velocity": 1,
      "hand": "right"
    },
    {
      "midi": 70,
      "time": 131.875,
      "duration": 0.625,
      "velocity": 1,
      "hand": "right"
    },
    {
      "midi": 46,
      "time": 132.5,
      "duration": 1.25,
      "velocity": 1,
      "hand": "left"
    },
    {
      "midi": 62,
      "time": 133.125,
      "duration": 0.625,
      "velocity": 1,
      "hand": "right"
    },
    {
      "midi": 65,
      "time": 133.125,
      "duration": 0.625,
      "velocity": 1,
      "hand": "right"
    },
    {
      "midi": 70,
      "time": 133.125,
      "duration": 0.61,
      "velocity": 1,
      "hand": "right"
    },
    {
      "midi": 70,
      "time": 133.75,
      "duration": 0.61,
      "velocity": 1,
      "hand": "right"
    },
    {
      "midi": 74,
      "time": 133.75,
      "duration": 0.625,
      "velocity": 1,
      "hand": "right"
    },
    {
      "midi": 62,
      "time": 134.375,
      "duration": 0.625,
      "velocity": 1,
      "hand": "right"
    },
    {
      "midi": 65,
      "time": 134.375,
      "duration": 0.625,
      "velocity": 1,
      "hand": "right"
    },
    {
      "midi": 70,
      "time": 134.375,
      "duration": 0.625,
      "velocity": 1,
      "hand": "right"
    },
    {
      "midi": 46,
      "time": 135,
      "duration": 1.25,
      "velocity": 1,
      "hand": "left"
    },
    {
      "midi": 65,
      "time": 135.625,
      "duration": 0.625,
      "velocity": 1,
      "hand": "right"
    },
    {
      "midi": 70,
      "time": 135.625,
      "duration": 0.625,
      "velocity": 1,
      "hand": "right"
    },
    {
      "midi": 74,
      "time": 135.625,
      "duration": 0.61,
      "velocity": 1,
      "hand": "right"
    },
    {
      "midi": 74,
      "time": 136.25,
      "duration": 0.61,
      "velocity": 1,
      "hand": "right"
    },
    {
      "midi": 77,
      "time": 136.25,
      "duration": 0.625,
      "velocity": 1,
      "hand": "right"
    },
    {
      "midi": 65,
      "time": 136.875,
      "duration": 0.625,
      "velocity": 1,
      "hand": "right"
    },
    {
      "midi": 70,
      "time": 136.875,
      "duration": 0.625,
      "velocity": 1,
      "hand": "right"
    },
    {
      "midi": 74,
      "time": 136.875,
      "duration": 0.625,
      "velocity": 1,
      "hand": "right"
    },
    {
      "midi": 46,
      "time": 137.5,
      "duration": 1.25,
      "velocity": 1,
      "hand": "left"
    },
    {
      "midi": 68,
      "time": 138.125,
      "duration": 0.625,
      "velocity": 1,
      "hand": "right"
    },
    {
      "midi": 74,
      "time": 138.125,
      "duration": 0.625,
      "velocity": 1,
      "hand": "right"
    },
    {
      "midi": 77,
      "time": 138.125,
      "duration": 0.61,
      "velocity": 1,
      "hand": "right"
    },
    {
      "midi": 77,
      "time": 138.75,
      "duration": 0.61,
      "velocity": 1,
      "hand": "right"
    },
    {
      "midi": 80,
      "time": 138.75,
      "duration": 0.625,
      "velocity": 1,
      "hand": "right"
    },
    {
      "midi": 68,
      "time": 139.375,
      "duration": 0.625,
      "velocity": 1,
      "hand": "right"
    },
    {
      "midi": 74,
      "time": 139.375,
      "duration": 0.625,
      "velocity": 1,
      "hand": "right"
    },
    {
      "midi": 77,
      "time": 139.375,
      "duration": 0.625,
      "velocity": 1,
      "hand": "right"
    },
    {
      "midi": 46,
      "time": 140,
      "duration": 1.25,
      "velocity": 1,
      "hand": "left"
    },
    {
      "midi": 67,
      "time": 140.625,
      "duration": 0.625,
      "velocity": 1,
      "hand": "right"
    },
    {
      "midi": 70,
      "time": 140.625,
      "duration": 0.625,
      "velocity": 1,
      "hand": "right"
    },
    {
      "midi": 75,
      "time": 140.625,
      "duration": 0.61,
      "velocity": 1,
      "hand": "right"
    },
    {
      "midi": 75,
      "time": 141.25,
      "duration": 0.61,
      "velocity": 1,
      "hand": "right"
    },
    {
      "midi": 79,
      "time": 141.25,
      "duration": 0.625,
      "velocity": 1,
      "hand": "right"
    },
    {
      "midi": 67,
      "time": 141.875,
      "duration": 0.625,
      "velocity": 1,
      "hand": "right"
    },
    {
      "midi": 70,
      "time": 141.875,
      "duration": 0.625,
      "velocity": 1,
      "hand": "right"
    },
    {
      "midi": 75,
      "time": 141.875,
      "duration": 0.625,
      "velocity": 1,
      "hand": "right"
    },
    {
      "midi": 46,
      "time": 142.5,
      "duration": 1.25,
      "velocity": 1,
      "hand": "left"
    },
    {
      "midi": 66,
      "time": 143.125,
      "duration": 0.625,
      "velocity": 1,
      "hand": "right"
    },
    {
      "midi": 69,
      "time": 143.125,
      "duration": 0.625,
      "velocity": 1,
      "hand": "right"
    },
    {
      "midi": 75,
      "time": 143.125,
      "duration": 0.61,
      "velocity": 1,
      "hand": "right"
    },
    {
      "midi": 75,
      "time": 143.75,
      "duration": 0.61,
      "velocity": 1,
      "hand": "right"
    },
    {
      "midi": 78,
      "time": 143.75,
      "duration": 0.625,
      "velocity": 1,
      "hand": "right"
    },
    {
      "midi": 66,
      "time": 144.375,
      "duration": 0.625,
      "velocity": 1,
      "hand": "right"
    },
    {
      "midi": 69,
      "time": 144.375,
      "duration": 0.625,
      "velocity": 1,
      "hand": "right"
    },
    {
      "midi": 75,
      "time": 144.375,
      "duration": 0.625,
      "velocity": 1,
      "hand": "right"
    },
    {
      "midi": 46,
      "time": 145,
      "duration": 1.25,
      "velocity": 1,
      "hand": "left"
    },
    {
      "midi": 65,
      "time": 145.625,
      "duration": 0.625,
      "velocity": 1,
      "hand": "right"
    },
    {
      "midi": 70,
      "time": 145.625,
      "duration": 0.625,
      "velocity": 1,
      "hand": "right"
    },
    {
      "midi": 74,
      "time": 145.625,
      "duration": 0.61,
      "velocity": 1,
      "hand": "right"
    },
    {
      "midi": 74,
      "time": 146.25,
      "duration": 0.61,
      "velocity": 1,
      "hand": "right"
    },
    {
      "midi": 77,
      "time": 146.25,
      "duration": 0.625,
      "velocity": 1,
      "hand": "right"
    },
    {
      "midi": 65,
      "time": 146.875,
      "duration": 0.625,
      "velocity": 1,
      "hand": "right"
    },
    {
      "midi": 70,
      "time": 146.875,
      "duration": 0.625,
      "velocity": 1,
      "hand": "right"
    },
    {
      "midi": 74,
      "time": 146.875,
      "duration": 0.625,
      "velocity": 1,
      "hand": "right"
    },
    {
      "midi": 46,
      "time": 147.5,
      "duration": 1.25,
      "velocity": 1,
      "hand": "left"
    },
    {
      "midi": 62,
      "time": 148.125,
      "duration": 0.625,
      "velocity": 1,
      "hand": "right"
    },
    {
      "midi": 65,
      "time": 148.125,
      "duration": 0.625,
      "velocity": 1,
      "hand": "right"
    },
    {
      "midi": 70,
      "time": 148.125,
      "duration": 0.61,
      "velocity": 1,
      "hand": "right"
    },
    {
      "midi": 70,
      "time": 148.75,
      "duration": 0.61,
      "velocity": 1,
      "hand": "right"
    },
    {
      "midi": 74,
      "time": 148.75,
      "duration": 0.625,
      "velocity": 1,
      "hand": "right"
    },
    {
      "midi": 62,
      "time": 149.375,
      "duration": 0.625,
      "velocity": 1,
      "hand": "right"
    },
    {
      "midi": 65,
      "time": 149.375,
      "duration": 0.625,
      "velocity": 1,
      "hand": "right"
    },
    {
      "midi": 70,
      "time": 149.375,
      "duration": 0.61,
      "velocity": 1,
      "hand": "right"
    },
    {
      "midi": 46,
      "time": 150,
      "duration": 1.25,
      "velocity": 1,
      "hand": "left"
    },
    {
      "midi": 70,
      "time": 150,
      "duration": 0.61,
      "velocity": 1,
      "hand": "right"
    },
    {
      "midi": 62,
      "time": 150.625,
      "duration": 0.625,
      "velocity": 1,
      "hand": "right"
    },
    {
      "midi": 65,
      "time": 150.625,
      "duration": 0.625,
      "velocity": 1,
      "hand": "right"
    },
    {
      "midi": 70,
      "time": 150.625,
      "duration": 0.61,
      "velocity": 1,
      "hand": "right"
    },
    {
      "midi": 70,
      "time": 151.25,
      "duration": 0.61,
      "velocity": 1,
      "hand": "right"
    },
    {
      "midi": 74,
      "time": 151.25,
      "duration": 0.625,
      "velocity": 1,
      "hand": "right"
    },
    {
      "midi": 62,
      "time": 151.875,
      "duration": 0.625,
      "velocity": 1,
      "hand": "right"
    },
    {
      "midi": 65,
      "time": 151.875,
      "duration": 0.625,
      "velocity": 1,
      "hand": "right"
    },
    {
      "midi": 70,
      "time": 151.875,
      "duration": 0.625,
      "velocity": 1,
      "hand": "right"
    },
    {
      "midi": 43,
      "time": 152.5,
      "duration": 1.25,
      "velocity": 1,
      "hand": "left"
    },
    {
      "midi": 62,
      "time": 153.125,
      "duration": 0.625,
      "velocity": 1,
      "hand": "right"
    },
    {
      "midi": 64,
      "time": 153.125,
      "duration": 0.625,
      "velocity": 1,
      "hand": "right"
    },
    {
      "midi": 70,
      "time": 153.125,
      "duration": 0.61,
      "velocity": 1,
      "hand": "right"
    },
    {
      "midi": 70,
      "time": 153.75,
      "duration": 0.61,
      "velocity": 1,
      "hand": "right"
    },
    {
      "midi": 74,
      "time": 153.75,
      "duration": 0.625,
      "velocity": 1,
      "hand": "right"
    },
    {
      "midi": 62,
      "time": 154.375,
      "duration": 0.625,
      "velocity": 1,
      "hand": "right"
    },
    {
      "midi": 64,
      "time": 154.375,
      "duration": 0.625,
      "velocity": 1,
      "hand": "right"
    },
    {
      "midi": 70,
      "time": 154.375,
      "duration": 0.625,
      "velocity": 1,
      "hand": "right"
    },
    {
      "midi": 41,
      "time": 155,
      "duration": 1.25,
      "velocity": 1,
      "hand": "left"
    },
    {
      "midi": 74,
      "time": 155,
      "duration": 1.235,
      "velocity": 1,
      "hand": "right"
    },
    {
      "midi": 62,
      "time": 155.625,
      "duration": 0.625,
      "velocity": 1,
      "hand": "right"
    },
    {
      "midi": 65,
      "time": 155.625,
      "duration": 0.625,
      "velocity": 1,
      "hand": "right"
    },
    {
      "midi": 70,
      "time": 155.625,
      "duration": 0.61,
      "velocity": 1,
      "hand": "right"
    },
    {
      "midi": 70,
      "time": 156.25,
      "duration": 0.61,
      "velocity": 1,
      "hand": "right"
    },
    {
      "midi": 74,
      "time": 156.25,
      "duration": 0.625,
      "velocity": 1,
      "hand": "right"
    },
    {
      "midi": 62,
      "time": 156.875,
      "duration": 0.625,
      "velocity": 1,
      "hand": "right"
    },
    {
      "midi": 65,
      "time": 156.875,
      "duration": 0.625,
      "velocity": 1,
      "hand": "right"
    },
    {
      "midi": 70,
      "time": 156.875,
      "duration": 0.625,
      "velocity": 1,
      "hand": "right"
    },
    {
      "midi": 41,
      "time": 157.5,
      "duration": 1.25,
      "velocity": 1,
      "hand": "left"
    },
    {
      "midi": 63,
      "time": 158.125,
      "duration": 0.625,
      "velocity": 1,
      "hand": "right"
    },
    {
      "midi": 69,
      "time": 158.125,
      "duration": 0.625,
      "velocity": 1,
      "hand": "right"
    },
    {
      "midi": 72,
      "time": 158.125,
      "duration": 0.61,
      "velocity": 1,
      "hand": "right"
    },
    {
      "midi": 72,
      "time": 158.75,
      "duration": 0.61,
      "velocity": 1,
      "hand": "right"
    },
    {
      "midi": 75,
      "time": 158.75,
      "duration": 0.625,
      "velocity": 1,
      "hand": "right"
    },
    {
      "midi": 63,
      "time": 159.375,
      "duration": 0.625,
      "velocity": 1,
      "hand": "right"
    },
    {
      "midi": 69,
      "time": 159.375,
      "duration": 0.625,
      "velocity": 1,
      "hand": "right"
    },
    {
      "midi": 72,
      "time": 159.375,
      "duration": 0.625,
      "velocity": 1,
      "hand": "right"
    },
    {
      "midi": 43,
      "time": 160,
      "duration": 1.25,
      "velocity": 1,
      "hand": "left"
    },
    {
      "midi": 70,
      "time": 160,
      "duration": 0.61,
      "velocity": 1,
      "hand": "right"
    },
    {
      "midi": 62,
      "time": 160.625,
      "duration": 0.625,
      "velocity": 1,
      "hand": "right"
    },
    {
      "midi": 67,
      "time": 160.625,
      "duration": 0.625,
      "velocity": 1,
      "hand": "right"
    },
    {
      "midi": 70,
      "time": 160.625,
      "duration": 0.61,
      "velocity": 1,
      "hand": "right"
    },
    {
      "midi": 70,
      "time": 161.25,
      "duration": 0.61,
      "velocity": 1,
      "hand": "right"
    },
    {
      "midi": 74,
      "time": 161.25,
      "duration": 0.625,
      "velocity": 1,
      "hand": "right"
    },
    {
      "midi": 62,
      "time": 161.875,
      "duration": 0.625,
      "velocity": 1,
      "hand": "right"
    },
    {
      "midi": 67,
      "time": 161.875,
      "duration": 0.625,
      "velocity": 1,
      "hand": "right"
    },
    {
      "midi": 70,
      "time": 161.875,
      "duration": 0.625,
      "velocity": 1,
      "hand": "right"
    },
    {
      "midi": 43,
      "time": 162.5,
      "duration": 1.25,
      "velocity": 1,
      "hand": "left"
    },
    {
      "midi": 62,
      "time": 163.125,
      "duration": 0.625,
      "velocity": 1,
      "hand": "right"
    },
    {
      "midi": 67,
      "time": 163.125,
      "duration": 0.625,
      "velocity": 1,
      "hand": "right"
    },
    {
      "midi": 70,
      "time": 163.125,
      "duration": 0.61,
      "velocity": 1,
      "hand": "right"
    },
    {
      "midi": 70,
      "time": 163.75,
      "duration": 0.61,
      "velocity": 1,
      "hand": "right"
    },
    {
      "midi": 74,
      "time": 163.75,
      "duration": 0.625,
      "velocity": 1,
      "hand": "right"
    },
    {
      "midi": 62,
      "time": 164.375,
      "duration": 0.625,
      "velocity": 1,
      "hand": "right"
    },
    {
      "midi": 67,
      "time": 164.375,
      "duration": 0.625,
      "velocity": 1,
      "hand": "right"
    },
    {
      "midi": 70,
      "time": 164.375,
      "duration": 0.625,
      "velocity": 1,
      "hand": "right"
    },
    {
      "midi": 39,
      "time": 165,
      "duration": 1.25,
      "velocity": 1,
      "hand": "left"
    },
    {
      "midi": 72,
      "time": 165,
      "duration": 0.61,
      "velocity": 1,
      "hand": "right"
    },
    {
      "midi": 63,
      "time": 165.625,
      "duration": 0.625,
      "velocity": 1,
      "hand": "right"
    },
    {
      "midi": 67,
      "time": 165.625,
      "duration": 0.625,
      "velocity": 1,
      "hand": "right"
    },
    {
      "midi": 72,
      "time": 165.625,
      "duration": 0.61,
      "velocity": 1,
      "hand": "right"
    },
    {
      "midi": 72,
      "time": 166.25,
      "duration": 0.61,
      "velocity": 1,
      "hand": "right"
    },
    {
      "midi": 75,
      "time": 166.25,
      "duration": 0.625,
      "velocity": 1,
      "hand": "right"
    },
    {
      "midi": 63,
      "time": 166.875,
      "duration": 0.625,
      "velocity": 1,
      "hand": "right"
    },
    {
      "midi": 67,
      "time": 166.875,
      "duration": 0.625,
      "velocity": 1,
      "hand": "right"
    },
    {
      "midi": 72,
      "time": 166.875,
      "duration": 0.61,
      "velocity": 1,
      "hand": "right"
    },
    {
      "midi": 41,
      "time": 167.5,
      "duration": 1.25,
      "velocity": 1,
      "hand": "left"
    },
    {
      "midi": 70,
      "time": 167.5,
      "duration": 0.625,
      "velocity": 1,
      "hand": "right"
    },
    {
      "midi": 72,
      "time": 167.5,
      "duration": 0.313,
      "velocity": 1,
      "hand": "right"
    },
    {
      "midi": 74,
      "time": 167.5,
      "duration": 0.313,
      "velocity": 1,
      "hand": "right"
    },
    {
      "midi": 63,
      "time": 168.125,
      "duration": 0.625,
      "velocity": 1,
      "hand": "right"
    },
    {
      "midi": 65,
      "time": 168.125,
      "duration": 0.625,
      "velocity": 1,
      "hand": "right"
    },
    {
      "midi": 69,
      "time": 168.125,
      "duration": 0.61,
      "velocity": 1,
      "hand": "right"
    },
    {
      "midi": 67,
      "time": 168.75,
      "duration": 0.625,
      "velocity": 1,
      "hand": "right"
    },
    {
      "midi": 69,
      "time": 168.75,
      "duration": 0.61,
      "velocity": 1,
      "hand": "right"
    },
    {
      "midi": 72,
      "time": 168.75,
      "duration": 0.625,
      "velocity": 1,
      "hand": "right"
    },
    {
      "midi": 63,
      "time": 169.375,
      "duration": 0.625,
      "velocity": 1,
      "hand": "right"
    },
    {
      "midi": 65,
      "time": 169.375,
      "duration": 0.625,
      "velocity": 1,
      "hand": "right"
    },
    {
      "midi": 69,
      "time": 169.375,
      "duration": 0.625,
      "velocity": 1,
      "hand": "right"
    },
    {
      "midi": 46,
      "time": 170,
      "duration": 1.25,
      "velocity": 1,
      "hand": "left"
    },
    {
      "midi": 70,
      "time": 170,
      "duration": 0.61,
      "velocity": 1,
      "hand": "right"
    },
    {
      "midi": 62,
      "time": 170.625,
      "duration": 0.625,
      "velocity": 1,
      "hand": "right"
    },
    {
      "midi": 65,
      "time": 170.625,
      "duration": 0.625,
      "velocity": 1,
      "hand": "right"
    },
    {
      "midi": 70,
      "time": 170.625,
      "duration": 0.61,
      "velocity": 1,
      "hand": "right"
    },
    {
      "midi": 70,
      "time": 171.25,
      "duration": 0.61,
      "velocity": 1,
      "hand": "right"
    },
    {
      "midi": 74,
      "time": 171.25,
      "duration": 0.625,
      "velocity": 1,
      "hand": "right"
    },
    {
      "midi": 62,
      "time": 171.875,
      "duration": 0.625,
      "velocity": 1,
      "hand": "right"
    },
    {
      "midi": 65,
      "time": 171.875,
      "duration": 0.625,
      "velocity": 1,
      "hand": "right"
    },
    {
      "midi": 70,
      "time": 171.875,
      "duration": 0.625,
      "velocity": 1,
      "hand": "right"
    },
    {
      "midi": 46,
      "time": 172.5,
      "duration": 1.25,
      "velocity": 1,
      "hand": "left"
    },
    {
      "midi": 62,
      "time": 173.125,
      "duration": 0.625,
      "velocity": 1,
      "hand": "right"
    },
    {
      "midi": 65,
      "time": 173.125,
      "duration": 0.625,
      "velocity": 1,
      "hand": "right"
    },
    {
      "midi": 70,
      "time": 173.125,
      "duration": 0.61,
      "velocity": 1,
      "hand": "right"
    },
    {
      "midi": 70,
      "time": 173.75,
      "duration": 0.61,
      "velocity": 1,
      "hand": "right"
    },
    {
      "midi": 74,
      "time": 173.75,
      "duration": 1.235,
      "velocity": 1,
      "hand": "right"
    },
    {
      "midi": 62,
      "time": 174.375,
      "duration": 0.625,
      "velocity": 1,
      "hand": "right"
    },
    {
      "midi": 65,
      "time": 174.375,
      "duration": 0.625,
      "velocity": 1,
      "hand": "right"
    },
    {
      "midi": 70,
      "time": 174.375,
      "duration": 0.625,
      "velocity": 1,
      "hand": "right"
    },
    {
      "midi": 46,
      "time": 175,
      "duration": 1.25,
      "velocity": 1,
      "hand": "left"
    },
    {
      "midi": 74,
      "time": 175,
      "duration": 1.235,
      "velocity": 1,
      "hand": "right"
    },
    {
      "midi": 62,
      "time": 175.625,
      "duration": 0.625,
      "velocity": 1,
      "hand": "right"
    },
    {
      "midi": 66,
      "time": 175.625,
      "duration": 0.625,
      "velocity": 1,
      "hand": "right"
    },
    {
      "midi": 70,
      "time": 175.625,
      "duration": 0.61,
      "velocity": 1,
      "hand": "right"
    },
    {
      "midi": 70,
      "time": 176.25,
      "duration": 0.61,
      "velocity": 1,
      "hand": "right"
    },
    {
      "midi": 74,
      "time": 176.25,
      "duration": 0.625,
      "velocity": 1,
      "hand": "right"
    },
    {
      "midi": 62,
      "time": 176.875,
      "duration": 0.625,
      "velocity": 1,
      "hand": "right"
    },
    {
      "midi": 66,
      "time": 176.875,
      "duration": 0.625,
      "velocity": 1,
      "hand": "right"
    },
    {
      "midi": 70,
      "time": 176.875,
      "duration": 0.61,
      "velocity": 1,
      "hand": "right"
    },
    {
      "midi": 72,
      "time": 176.875,
      "duration": 0.625,
      "velocity": 1,
      "hand": "right"
    },
    {
      "midi": 46,
      "time": 177.5,
      "duration": 1.25,
      "velocity": 1,
      "hand": "left"
    },
    {
      "midi": 70,
      "time": 177.5,
      "duration": 0.61,
      "velocity": 1,
      "hand": "right"
    },
    {
      "midi": 62,
      "time": 178.125,
      "duration": 0.625,
      "velocity": 1,
      "hand": "right"
    },
    {
      "midi": 67,
      "time": 178.125,
      "duration": 0.625,
      "velocity": 1,
      "hand": "right"
    },
    {
      "midi": 70,
      "time": 178.125,
      "duration": 0.61,
      "velocity": 1,
      "hand": "right"
    },
    {
      "midi": 70,
      "time": 178.75,
      "duration": 0.61,
      "velocity": 1,
      "hand": "right"
    },
    {
      "midi": 74,
      "time": 178.75,
      "duration": 0.625,
      "velocity": 1,
      "hand": "right"
    },
    {
      "midi": 62,
      "time": 179.375,
      "duration": 0.625,
      "velocity": 1,
      "hand": "right"
    },
    {
      "midi": 67,
      "time": 179.375,
      "duration": 0.625,
      "velocity": 1,
      "hand": "right"
    },
    {
      "midi": 70,
      "time": 179.375,
      "duration": 0.625,
      "velocity": 1,
      "hand": "right"
    },
    {
      "midi": 76,
      "time": 179.375,
      "duration": 0.625,
      "velocity": 1,
      "hand": "right"
    },
    {
      "midi": 45,
      "time": 180,
      "duration": 1.25,
      "velocity": 1,
      "hand": "left"
    },
    {
      "midi": 74,
      "time": 180,
      "duration": 1.235,
      "velocity": 1,
      "hand": "right"
    },
    {
      "midi": 64,
      "time": 180.625,
      "duration": 0.625,
      "velocity": 1,
      "hand": "right"
    },
    {
      "midi": 67,
      "time": 180.625,
      "duration": 0.625,
      "velocity": 1,
      "hand": "right"
    },
    {
      "midi": 70,
      "time": 180.625,
      "duration": 0.61,
      "velocity": 1,
      "hand": "right"
    },
    {
      "midi": 70,
      "time": 181.25,
      "duration": 0.61,
      "velocity": 1,
      "hand": "right"
    },
    {
      "midi": 74,
      "time": 181.25,
      "duration": 0.625,
      "velocity": 1,
      "hand": "right"
    },
    {
      "midi": 64,
      "time": 181.875,
      "duration": 0.625,
      "velocity": 1,
      "hand": "right"
    },
    {
      "midi": 67,
      "time": 181.875,
      "duration": 0.625,
      "velocity": 1,
      "hand": "right"
    },
    {
      "midi": 70,
      "time": 181.875,
      "duration": 0.625,
      "velocity": 1,
      "hand": "right"
    },
    {
      "midi": 45,
      "time": 182.5,
      "duration": 1.25,
      "velocity": 1,
      "hand": "left"
    },
    {
      "midi": 73,
      "time": 182.5,
      "duration": 1.235,
      "velocity": 1,
      "hand": "right"
    },
    {
      "midi": 64,
      "time": 183.125,
      "duration": 0.625,
      "velocity": 1,
      "hand": "right"
    },
    {
      "midi": 67,
      "time": 183.125,
      "duration": 0.625,
      "velocity": 1,
      "hand": "right"
    },
    {
      "midi": 69,
      "time": 183.125,
      "duration": 0.61,
      "velocity": 1,
      "hand": "right"
    },
    {
      "midi": 69,
      "time": 183.75,
      "duration": 0.61,
      "velocity": 1,
      "hand": "right"
    },
    {
      "midi": 73,
      "time": 183.75,
      "duration": 0.625,
      "velocity": 1,
      "hand": "right"
    },
    {
      "midi": 64,
      "time": 184.375,
      "duration": 0.625,
      "velocity": 1,
      "hand": "right"
    },
    {
      "midi": 67,
      "time": 184.375,
      "duration": 0.625,
      "velocity": 1,
      "hand": "right"
    },
    {
      "midi": 69,
      "time": 184.375,
      "duration": 0.625,
      "velocity": 1,
      "hand": "right"
    },
    {
      "midi": 42,
      "time": 185,
      "duration": 1.25,
      "velocity": 1,
      "hand": "left"
    },
    {
      "midi": 72,
      "time": 185,
      "duration": 0.61,
      "velocity": 1,
      "hand": "right"
    },
    {
      "midi": 63,
      "time": 185.625,
      "duration": 0.625,
      "velocity": 1,
      "hand": "right"
    },
    {
      "midi": 69,
      "time": 185.625,
      "duration": 0.625,
      "velocity": 1,
      "hand": "right"
    },
    {
      "midi": 72,
      "time": 185.625,
      "duration": 0.61,
      "velocity": 1,
      "hand": "right"
    },
    {
      "midi": 72,
      "time": 186.25,
      "duration": 0.61,
      "velocity": 1,
      "hand": "right"
    },
    {
      "midi": 75,
      "time": 186.25,
      "duration": 0.625,
      "velocity": 1,
      "hand": "right"
    },
    {
      "midi": 63,
      "time": 186.875,
      "duration": 0.625,
      "velocity": 1,
      "hand": "right"
    },
    {
      "midi": 70,
      "time": 186.875,
      "duration": 0.625,
      "velocity": 1,
      "hand": "right"
    },
    {
      "midi": 72,
      "time": 186.875,
      "duration": 0.625,
      "velocity": 1,
      "hand": "right"
    },
    {
      "midi": 42,
      "time": 187.5,
      "duration": 1.25,
      "velocity": 1,
      "hand": "left"
    },
    {
      "midi": 69,
      "time": 187.5,
      "duration": 0.61,
      "velocity": 1,
      "hand": "right"
    },
    {
      "midi": 63,
      "time": 188.125,
      "duration": 0.625,
      "velocity": 1,
      "hand": "right"
    },
    {
      "midi": 69,
      "time": 188.125,
      "duration": 0.625,
      "velocity": 1,
      "hand": "right"
    },
    {
      "midi": 72,
      "time": 188.125,
      "duration": 0.61,
      "velocity": 1,
      "hand": "right"
    },
    {
      "midi": 74,
      "time": 188.125,
      "duration": 0.625,
      "velocity": 1,
      "hand": "right"
    },
    {
      "midi": 72,
      "time": 188.75,
      "duration": 0.61,
      "velocity": 1,
      "hand": "right"
    },
    {
      "midi": 75,
      "time": 188.75,
      "duration": 0.625,
      "velocity": 1,
      "hand": "right"
    },
    {
      "midi": 63,
      "time": 189.375,
      "duration": 0.625,
      "velocity": 1,
      "hand": "right"
    },
    {
      "midi": 69,
      "time": 189.375,
      "duration": 0.625,
      "velocity": 1,
      "hand": "right"
    },
    {
      "midi": 72,
      "time": 189.375,
      "duration": 0.625,
      "velocity": 1,
      "hand": "right"
    },
    {
      "midi": 43,
      "time": 190,
      "duration": 1.25,
      "velocity": 1,
      "hand": "left"
    },
    {
      "midi": 70,
      "time": 190,
      "duration": 0.61,
      "velocity": 1,
      "hand": "right"
    },
    {
      "midi": 62,
      "time": 190.625,
      "duration": 0.625,
      "velocity": 1,
      "hand": "right"
    },
    {
      "midi": 67,
      "time": 190.625,
      "duration": 0.625,
      "velocity": 1,
      "hand": "right"
    },
    {
      "midi": 70,
      "time": 190.625,
      "duration": 0.61,
      "velocity": 1,
      "hand": "right"
    },
    {
      "midi": 70,
      "time": 191.25,
      "duration": 0.61,
      "velocity": 1,
      "hand": "right"
    },
    {
      "midi": 74,
      "time": 191.25,
      "duration": 0.625,
      "velocity": 1,
      "hand": "right"
    },
    {
      "midi": 62,
      "time": 191.875,
      "duration": 0.625,
      "velocity": 1,
      "hand": "right"
    },
    {
      "midi": 67,
      "time": 191.875,
      "duration": 0.625,
      "velocity": 1,
      "hand": "right"
    },
    {
      "midi": 70,
      "time": 191.875,
      "duration": 0.625,
      "velocity": 1,
      "hand": "right"
    },
    {
      "midi": 43,
      "time": 192.5,
      "duration": 1.25,
      "velocity": 1,
      "hand": "left"
    },
    {
      "midi": 62,
      "time": 193.125,
      "duration": 0.625,
      "velocity": 1,
      "hand": "right"
    },
    {
      "midi": 64,
      "time": 193.125,
      "duration": 0.625,
      "velocity": 1,
      "hand": "right"
    },
    {
      "midi": 70,
      "time": 193.125,
      "duration": 0.61,
      "velocity": 1,
      "hand": "right"
    },
    {
      "midi": 70,
      "time": 193.75,
      "duration": 0.61,
      "velocity": 1,
      "hand": "right"
    },
    {
      "midi": 74,
      "time": 193.75,
      "duration": 0.625,
      "velocity": 1,
      "hand": "right"
    },
    {
      "midi": 62,
      "time": 194.375,
      "duration": 0.625,
      "velocity": 1,
      "hand": "right"
    },
    {
      "midi": 64,
      "time": 194.375,
      "duration": 0.625,
      "velocity": 1,
      "hand": "right"
    },
    {
      "midi": 70,
      "time": 194.375,
      "duration": 0.625,
      "velocity": 1,
      "hand": "right"
    },
    {
      "midi": 72,
      "time": 194.375,
      "duration": 0.61,
      "velocity": 1,
      "hand": "right"
    },
    {
      "midi": 45,
      "time": 195,
      "duration": 1.25,
      "velocity": 1,
      "hand": "left"
    },
    {
      "midi": 72,
      "time": 195,
      "duration": 1.235,
      "velocity": 1,
      "hand": "right"
    },
    {
      "midi": 60,
      "time": 195.625,
      "duration": 0.625,
      "velocity": 1,
      "hand": "right"
    },
    {
      "midi": 65,
      "time": 195.625,
      "duration": 0.625,
      "velocity": 1,
      "hand": "right"
    },
    {
      "midi": 69,
      "time": 195.625,
      "duration": 0.61,
      "velocity": 1,
      "hand": "right"
    },
    {
      "midi": 69,
      "time": 196.25,
      "duration": 0.61,
      "velocity": 1,
      "hand": "right"
    },
    {
      "midi": 72,
      "time": 196.25,
      "duration": 0.625,
      "velocity": 1,
      "hand": "right"
    },
    {
      "midi": 60,
      "time": 196.875,
      "duration": 0.625,
      "velocity": 1,
      "hand": "right"
    },
    {
      "midi": 65,
      "time": 196.875,
      "duration": 0.625,
      "velocity": 1,
      "hand": "right"
    },
    {
      "midi": 69,
      "time": 196.875,
      "duration": 0.625,
      "velocity": 1,
      "hand": "right"
    },
    {
      "midi": 38,
      "time": 197.5,
      "duration": 1.25,
      "velocity": 1,
      "hand": "left"
    },
    {
      "midi": 50,
      "time": 197.5,
      "duration": 1.25,
      "velocity": 1,
      "hand": "left"
    },
    {
      "midi": 67,
      "time": 197.5,
      "duration": 0.61,
      "velocity": 1,
      "hand": "right"
    },
    {
      "midi": 65,
      "time": 198.125,
      "duration": 0.625,
      "velocity": 1,
      "hand": "right"
    },
    {
      "midi": 67,
      "time": 198.125,
      "duration": 0.625,
      "velocity": 1,
      "hand": "right"
    },
    {
      "midi": 71,
      "time": 198.125,
      "duration": 0.61,
      "velocity": 1,
      "hand": "right"
    },
    {
      "midi": 74,
      "time": 198.125,
      "duration": 0.625,
      "velocity": 1,
      "hand": "right"
    },
    {
      "midi": 71,
      "time": 198.75,
      "duration": 0.61,
      "velocity": 1,
      "hand": "right"
    },
    {
      "midi": 77,
      "time": 198.75,
      "duration": 0.625,
      "velocity": 1,
      "hand": "right"
    },
    {
      "midi": 65,
      "time": 199.375,
      "duration": 0.625,
      "velocity": 1,
      "hand": "right"
    },
    {
      "midi": 67,
      "time": 199.375,
      "duration": 0.625,
      "velocity": 1,
      "hand": "right"
    },
    {
      "midi": 71,
      "time": 199.375,
      "duration": 0.625,
      "velocity": 1,
      "hand": "right"
    },
    {
      "midi": 74,
      "time": 199.375,
      "duration": 0.625,
      "velocity": 1,
      "hand": "right"
    },
    {
      "midi": 36,
      "time": 200,
      "duration": 1.25,
      "velocity": 1,
      "hand": "left"
    },
    {
      "midi": 48,
      "time": 200,
      "duration": 1.25,
      "velocity": 1,
      "hand": "left"
    },
    {
      "midi": 72,
      "time": 200,
      "duration": 0.61,
      "velocity": 1,
      "hand": "right"
    },
    {
      "midi": 65,
      "time": 200.625,
      "duration": 0.625,
      "velocity": 1,
      "hand": "right"
    },
    {
      "midi": 69,
      "time": 200.625,
      "duration": 0.625,
      "velocity": 1,
      "hand": "right"
    },
    {
      "midi": 72,
      "time": 200.625,
      "duration": 0.61,
      "velocity": 1,
      "hand": "right"
    },
    {
      "midi": 72,
      "time": 201.25,
      "duration": 0.61,
      "velocity": 1,
      "hand": "right"
    },
    {
      "midi": 77,
      "time": 201.25,
      "duration": 0.625,
      "velocity": 1,
      "hand": "right"
    },
    {
      "midi": 65,
      "time": 201.875,
      "duration": 0.625,
      "velocity": 1,
      "hand": "right"
    },
    {
      "midi": 69,
      "time": 201.875,
      "duration": 0.625,
      "velocity": 1,
      "hand": "right"
    },
    {
      "midi": 72,
      "time": 201.875,
      "duration": 0.625,
      "velocity": 1,
      "hand": "right"
    },
    {
      "midi": 36,
      "time": 202.5,
      "duration": 1.25,
      "velocity": 1,
      "hand": "left"
    },
    {
      "midi": 48,
      "time": 202.5,
      "duration": 1.25,
      "velocity": 1,
      "hand": "left"
    },
    {
      "midi": 67,
      "time": 203.125,
      "duration": 0.625,
      "velocity": 1,
      "hand": "right"
    },
    {
      "midi": 70,
      "time": 203.125,
      "duration": 0.61,
      "velocity": 1,
      "hand": "right"
    },
    {
      "midi": 72,
      "time": 203.125,
      "duration": 0.61,
      "velocity": 1,
      "hand": "right"
    },
    {
      "midi": 70,
      "time": 203.75,
      "duration": 0.313,
      "velocity": 1,
      "hand": "right"
    },
    {
      "midi": 72,
      "time": 203.75,
      "duration": 0.61,
      "velocity": 1,
      "hand": "right"
    },
    {
      "midi": 76,
      "time": 203.75,
      "duration": 0.625,
      "velocity": 1,
      "hand": "right"
    },
    {
      "midi": 67,
      "time": 204.375,
      "duration": 0.625,
      "velocity": 1,
      "hand": "right"
    },
    {
      "midi": 70,
      "time": 204.375,
      "duration": 0.625,
      "velocity": 1,
      "hand": "right"
    },
    {
      "midi": 72,
      "time": 204.375,
      "duration": 0.625,
      "velocity": 1,
      "hand": "right"
    },
    {
      "midi": 41,
      "time": 205,
      "duration": 1.25,
      "velocity": 1,
      "hand": "left"
    },
    {
      "midi": 53,
      "time": 205,
      "duration": 1.25,
      "velocity": 1,
      "hand": "left"
    },
    {
      "midi": 65,
      "time": 205,
      "duration": 0.61,
      "velocity": 1,
      "hand": "right"
    },
    {
      "midi": 65,
      "time": 205.625,
      "duration": 0.625,
      "velocity": 1,
      "hand": "right"
    },
    {
      "midi": 69,
      "time": 205.625,
      "duration": 0.625,
      "velocity": 1,
      "hand": "right"
    },
    {
      "midi": 72,
      "time": 205.625,
      "duration": 0.61,
      "velocity": 1,
      "hand": "right"
    },
    {
      "midi": 72,
      "time": 206.25,
      "duration": 0.61,
      "velocity": 1,
      "hand": "right"
    },
    {
      "midi": 77,
      "time": 206.25,
      "duration": 0.625,
      "velocity": 1,
      "hand": "right"
    },
    {
      "midi": 65,
      "time": 206.875,
      "duration": 0.625,
      "velocity": 1,
      "hand": "right"
    },
    {
      "midi": 69,
      "time": 206.875,
      "duration": 0.625,
      "velocity": 1,
      "hand": "right"
    },
    {
      "midi": 72,
      "time": 206.875,
      "duration": 0.625,
      "velocity": 1,
      "hand": "right"
    },
    {
      "midi": 41,
      "time": 207.5,
      "duration": 1.25,
      "velocity": 1,
      "hand": "left"
    },
    {
      "midi": 53,
      "time": 207.5,
      "duration": 1.25,
      "velocity": 1,
      "hand": "left"
    },
    {
      "midi": 65,
      "time": 208.125,
      "duration": 0.61,
      "velocity": 1,
      "hand": "right"
    },
    {
      "midi": 69,
      "time": 208.125,
      "duration": 0.625,
      "velocity": 1,
      "hand": "right"
    },
    {
      "midi": 72,
      "time": 208.125,
      "duration": 0.61,
      "velocity": 1,
      "hand": "right"
    },
    {
      "midi": 65,
      "time": 208.75,
      "duration": 0.61,
      "velocity": 1,
      "hand": "right"
    },
    {
      "midi": 72,
      "time": 208.75,
      "duration": 0.61,
      "velocity": 1,
      "hand": "right"
    },
    {
      "midi": 77,
      "time": 208.75,
      "duration": 0.625,
      "velocity": 1,
      "hand": "right"
    },
    {
      "midi": 65,
      "time": 209.375,
      "duration": 0.625,
      "velocity": 1,
      "hand": "right"
    },
    {
      "midi": 69,
      "time": 209.375,
      "duration": 0.625,
      "velocity": 1,
      "hand": "right"
    },
    {
      "midi": 72,
      "time": 209.375,
      "duration": 0.61,
      "velocity": 1,
      "hand": "right"
    },
    {
      "midi": 41,
      "time": 210,
      "duration": 1.25,
      "velocity": 1,
      "hand": "left"
    },
    {
      "midi": 53,
      "time": 210,
      "duration": 1.25,
      "velocity": 1,
      "hand": "left"
    },
    {
      "midi": 72,
      "time": 210,
      "duration": 0.61,
      "velocity": 1,
      "hand": "right"
    },
    {
      "midi": 63,
      "time": 210.625,
      "duration": 0.625,
      "velocity": 1,
      "hand": "right"
    },
    {
      "midi": 69,
      "time": 210.625,
      "duration": 0.625,
      "velocity": 1,
      "hand": "right"
    },
    {
      "midi": 72,
      "time": 210.625,
      "duration": 0.61,
      "velocity": 1,
      "hand": "right"
    },
    {
      "midi": 72,
      "time": 211.25,
      "duration": 0.61,
      "velocity": 1,
      "hand": "right"
    },
    {
      "midi": 77,
      "time": 211.25,
      "duration": 0.625,
      "velocity": 1,
      "hand": "right"
    },
    {
      "midi": 63,
      "time": 211.875,
      "duration": 0.625,
      "velocity": 1,
      "hand": "right"
    },
    {
      "midi": 69,
      "time": 211.875,
      "duration": 0.625,
      "velocity": 1,
      "hand": "right"
    },
    {
      "midi": 72,
      "time": 211.875,
      "duration": 0.61,
      "velocity": 1,
      "hand": "right"
    },
    {
      "midi": 41,
      "time": 212.5,
      "duration": 1.25,
      "velocity": 1,
      "hand": "left"
    },
    {
      "midi": 53,
      "time": 212.5,
      "duration": 1.25,
      "velocity": 1,
      "hand": "left"
    },
    {
      "midi": 72,
      "time": 212.5,
      "duration": 0.61,
      "velocity": 1,
      "hand": "right"
    },
    {
      "midi": 63,
      "time": 213.125,
      "duration": 0.625,
      "velocity": 1,
      "hand": "right"
    },
    {
      "midi": 69,
      "time": 213.125,
      "duration": 0.625,
      "velocity": 1,
      "hand": "right"
    },
    {
      "midi": 72,
      "time": 213.125,
      "duration": 0.61,
      "velocity": 1,
      "hand": "right"
    },
    {
      "midi": 72,
      "time": 213.75,
      "duration": 0.61,
      "velocity": 1,
      "hand": "right"
    },
    {
      "midi": 77,
      "time": 213.75,
      "duration": 0.625,
      "velocity": 1,
      "hand": "right"
    },
    {
      "midi": 63,
      "time": 214.375,
      "duration": 0.625,
      "velocity": 1,
      "hand": "right"
    },
    {
      "midi": 69,
      "time": 214.375,
      "duration": 0.625,
      "velocity": 1,
      "hand": "right"
    },
    {
      "midi": 72,
      "time": 214.375,
      "duration": 0.61,
      "velocity": 1,
      "hand": "right"
    },
    {
      "midi": 41,
      "time": 215,
      "duration": 1.25,
      "velocity": 1,
      "hand": "left"
    },
    {
      "midi": 53,
      "time": 215,
      "duration": 1.25,
      "velocity": 1,
      "hand": "left"
    },
    {
      "midi": 72,
      "time": 215,
      "duration": 1.25,
      "velocity": 1,
      "hand": "right"
    },
    {
      "midi": 74,
      "time": 215,
      "duration": 0.61,
      "velocity": 1,
      "hand": "right"
    },
    {
      "midi": 62,
      "time": 215.625,
      "duration": 0.625,
      "velocity": 1,
      "hand": "right"
    },
    {
      "midi": 70,
      "time": 215.625,
      "duration": 0.61,
      "velocity": 1,
      "hand": "right"
    },
    {
      "midi": 74,
      "time": 215.625,
      "duration": 0.61,
      "velocity": 1,
      "hand": "right"
    },
    {
      "midi": 70,
      "time": 216.25,
      "duration": 0.61,
      "velocity": 1,
      "hand": "right"
    },
    {
      "midi": 74,
      "time": 216.25,
      "duration": 0.61,
      "velocity": 1,
      "hand": "right"
    },
    {
      "midi": 77,
      "time": 216.25,
      "duration": 0.625,
      "velocity": 1,
      "hand": "right"
    },
    {
      "midi": 62,
      "time": 216.875,
      "duration": 0.625,
      "velocity": 1,
      "hand": "right"
    },
    {
      "midi": 70,
      "time": 216.875,
      "duration": 0.625,
      "velocity": 1,
      "hand": "right"
    },
    {
      "midi": 74,
      "time": 216.875,
      "duration": 0.625,
      "velocity": 1,
      "hand": "right"
    },
    {
      "midi": 41,
      "time": 217.5,
      "duration": 1.25,
      "velocity": 1,
      "hand": "left"
    },
    {
      "midi": 53,
      "time": 217.5,
      "duration": 1.25,
      "velocity": 1,
      "hand": "left"
    },
    {
      "midi": 62,
      "time": 218.125,
      "duration": 0.625,
      "velocity": 1,
      "hand": "right"
    },
    {
      "midi": 70,
      "time": 218.125,
      "duration": 0.61,
      "velocity": 1,
      "hand": "right"
    },
    {
      "midi": 74,
      "time": 218.125,
      "duration": 0.61,
      "velocity": 1,
      "hand": "right"
    },
    {
      "midi": 70,
      "time": 218.75,
      "duration": 0.61,
      "velocity": 1,
      "hand": "right"
    },
    {
      "midi": 74,
      "time": 218.75,
      "duration": 0.61,
      "velocity": 1,
      "hand": "right"
    },
    {
      "midi": 77,
      "time": 218.75,
      "duration": 0.625,
      "velocity": 1,
      "hand": "right"
    },
    {
      "midi": 62,
      "time": 219.375,
      "duration": 0.625,
      "velocity": 1,
      "hand": "right"
    },
    {
      "midi": 70,
      "time": 219.375,
      "duration": 0.625,
      "velocity": 1,
      "hand": "right"
    },
    {
      "midi": 74,
      "time": 219.375,
      "duration": 0.625,
      "velocity": 1,
      "hand": "right"
    },
    {
      "midi": 41,
      "time": 220,
      "duration": 1.25,
      "velocity": 1,
      "hand": "left"
    },
    {
      "midi": 53,
      "time": 220,
      "duration": 1.25,
      "velocity": 1,
      "hand": "left"
    },
    {
      "midi": 72,
      "time": 220,
      "duration": 0.61,
      "velocity": 1,
      "hand": "right"
    },
    {
      "midi": 63,
      "time": 220.625,
      "duration": 0.625,
      "velocity": 1,
      "hand": "right"
    },
    {
      "midi": 69,
      "time": 220.625,
      "duration": 0.625,
      "velocity": 1,
      "hand": "right"
    },
    {
      "midi": 72,
      "time": 220.625,
      "duration": 0.61,
      "velocity": 1,
      "hand": "right"
    },
    {
      "midi": 72,
      "time": 221.25,
      "duration": 0.61,
      "velocity": 1,
      "hand": "right"
    },
    {
      "midi": 77,
      "time": 221.25,
      "duration": 0.625,
      "velocity": 1,
      "hand": "right"
    },
    {
      "midi": 63,
      "time": 221.875,
      "duration": 0.625,
      "velocity": 1,
      "hand": "right"
    },
    {
      "midi": 69,
      "time": 221.875,
      "duration": 0.625,
      "velocity": 1,
      "hand": "right"
    },
    {
      "midi": 72,
      "time": 221.875,
      "duration": 0.61,
      "velocity": 1,
      "hand": "right"
    },
    {
      "midi": 41,
      "time": 222.5,
      "duration": 1.25,
      "velocity": 1,
      "hand": "left"
    },
    {
      "midi": 53,
      "time": 222.5,
      "duration": 1.25,
      "velocity": 1,
      "hand": "left"
    },
    {
      "midi": 72,
      "time": 222.5,
      "duration": 0.61,
      "velocity": 1,
      "hand": "right"
    },
    {
      "midi": 63,
      "time": 223.125,
      "duration": 0.625,
      "velocity": 1,
      "hand": "right"
    },
    {
      "midi": 69,
      "time": 223.125,
      "duration": 0.625,
      "velocity": 1,
      "hand": "right"
    },
    {
      "midi": 72,
      "time": 223.125,
      "duration": 0.61,
      "velocity": 1,
      "hand": "right"
    },
    {
      "midi": 72,
      "time": 223.75,
      "duration": 0.61,
      "velocity": 1,
      "hand": "right"
    },
    {
      "midi": 75,
      "time": 223.75,
      "duration": 0.625,
      "velocity": 1,
      "hand": "right"
    },
    {
      "midi": 77,
      "time": 223.75,
      "duration": 0.625,
      "velocity": 1,
      "hand": "right"
    },
    {
      "midi": 63,
      "time": 224.375,
      "duration": 0.625,
      "velocity": 1,
      "hand": "right"
    },
    {
      "midi": 69,
      "time": 224.375,
      "duration": 0.625,
      "velocity": 1,
      "hand": "right"
    },
    {
      "midi": 72,
      "time": 224.375,
      "duration": 0.625,
      "velocity": 1,
      "hand": "right"
    },
    {
      "midi": 74,
      "time": 224.375,
      "duration": 0.625,
      "velocity": 1,
      "hand": "right"
    },
    {
      "midi": 43,
      "time": 225,
      "duration": 1.25,
      "velocity": 1,
      "hand": "left"
    },
    {
      "midi": 55,
      "time": 225,
      "duration": 1.25,
      "velocity": 1,
      "hand": "left"
    },
    {
      "midi": 70,
      "time": 225,
      "duration": 0.61,
      "velocity": 1,
      "hand": "right"
    },
    {
      "midi": 62,
      "time": 225.625,
      "duration": 0.625,
      "velocity": 1,
      "hand": "right"
    },
    {
      "midi": 67,
      "time": 225.625,
      "duration": 0.625,
      "velocity": 1,
      "hand": "right"
    },
    {
      "midi": 70,
      "time": 225.625,
      "duration": 0.61,
      "velocity": 1,
      "hand": "right"
    },
    {
      "midi": 70,
      "time": 226.25,
      "duration": 0.61,
      "velocity": 1,
      "hand": "right"
    },
    {
      "midi": 74,
      "time": 226.25,
      "duration": 0.625,
      "velocity": 1,
      "hand": "right"
    },
    {
      "midi": 62,
      "time": 226.875,
      "duration": 0.625,
      "velocity": 1,
      "hand": "right"
    },
    {
      "midi": 67,
      "time": 226.875,
      "duration": 0.625,
      "velocity": 1,
      "hand": "right"
    },
    {
      "midi": 70,
      "time": 226.875,
      "duration": 0.625,
      "velocity": 1,
      "hand": "right"
    },
    {
      "midi": 43,
      "time": 227.5,
      "duration": 1.25,
      "velocity": 1,
      "hand": "left"
    },
    {
      "midi": 55,
      "time": 227.5,
      "duration": 1.25,
      "velocity": 1,
      "hand": "left"
    },
    {
      "midi": 58,
      "time": 228.125,
      "duration": 0.625,
      "velocity": 1,
      "hand": "left"
    },
    {
      "midi": 62,
      "time": 228.125,
      "duration": 0.625,
      "velocity": 1,
      "hand": "right"
    },
    {
      "midi": 67,
      "time": 228.125,
      "duration": 0.61,
      "velocity": 1,
      "hand": "right"
    },
    {
      "midi": 67,
      "time": 228.75,
      "duration": 0.61,
      "velocity": 1,
      "hand": "right"
    },
    {
      "midi": 70,
      "time": 228.75,
      "duration": 1.25,
      "velocity": 1,
      "hand": "right"
    },
    {
      "midi": 58,
      "time": 229.375,
      "duration": 0.625,
      "velocity": 1,
      "hand": "left"
    },
    {
      "midi": 62,
      "time": 229.375,
      "duration": 0.625,
      "velocity": 1,
      "hand": "right"
    },
    {
      "midi": 67,
      "time": 229.375,
      "duration": 0.625,
      "velocity": 1,
      "hand": "right"
    },
    {
      "midi": 41,
      "time": 230,
      "duration": 1.25,
      "velocity": 1,
      "hand": "left"
    },
    {
      "midi": 53,
      "time": 230,
      "duration": 1.25,
      "velocity": 1,
      "hand": "left"
    },
    {
      "midi": 72,
      "time": 230,
      "duration": 1.235,
      "velocity": 1,
      "hand": "right"
    },
    {
      "midi": 60,
      "time": 230.625,
      "duration": 0.625,
      "velocity": 1,
      "hand": "right"
    },
    {
      "midi": 65,
      "time": 230.625,
      "duration": 0.625,
      "velocity": 1,
      "hand": "right"
    },
    {
      "midi": 69,
      "time": 230.625,
      "duration": 0.61,
      "velocity": 1,
      "hand": "right"
    },
    {
      "midi": 69,
      "time": 231.25,
      "duration": 0.61,
      "velocity": 1,
      "hand": "right"
    },
    {
      "midi": 72,
      "time": 231.25,
      "duration": 0.61,
      "velocity": 1,
      "hand": "right"
    },
    {
      "midi": 60,
      "time": 231.875,
      "duration": 0.625,
      "velocity": 1,
      "hand": "right"
    },
    {
      "midi": 65,
      "time": 231.875,
      "duration": 0.625,
      "velocity": 1,
      "hand": "right"
    },
    {
      "midi": 69,
      "time": 231.875,
      "duration": 0.625,
      "velocity": 1,
      "hand": "right"
    },
    {
      "midi": 72,
      "time": 231.875,
      "duration": 0.625,
      "velocity": 1,
      "hand": "right"
    },
    {
      "midi": 38,
      "time": 232.5,
      "duration": 1.25,
      "velocity": 1,
      "hand": "left"
    },
    {
      "midi": 50,
      "time": 232.5,
      "duration": 1.25,
      "velocity": 1,
      "hand": "left"
    },
    {
      "midi": 74,
      "time": 232.5,
      "duration": 1.235,
      "velocity": 1,
      "hand": "right"
    },
    {
      "midi": 62,
      "time": 233.125,
      "duration": 0.625,
      "velocity": 1,
      "hand": "right"
    },
    {
      "midi": 66,
      "time": 233.125,
      "duration": 0.625,
      "velocity": 1,
      "hand": "right"
    },
    {
      "midi": 69,
      "time": 233.125,
      "duration": 0.61,
      "velocity": 1,
      "hand": "right"
    },
    {
      "midi": 69,
      "time": 233.75,
      "duration": 0.61,
      "velocity": 1,
      "hand": "right"
    },
    {
      "midi": 75,
      "time": 233.75,
      "duration": 0.313,
      "velocity": 1,
      "hand": "right"
    },
    {
      "midi": 66,
      "time": 234.375,
      "duration": 0.625,
      "velocity": 1,
      "hand": "right"
    },
    {
      "midi": 69,
      "time": 234.375,
      "duration": 0.625,
      "velocity": 1,
      "hand": "right"
    },
    {
      "midi": 72,
      "time": 234.375,
      "duration": 0.625,
      "velocity": 1,
      "hand": "right"
    },
    {
      "midi": 74,
      "time": 234.375,
      "duration": 0.313,
      "velocity": 1,
      "hand": "right"
    },
    {
      "midi": 36,
      "time": 235,
      "duration": 1.25,
      "velocity": 1,
      "hand": "left"
    },
    {
      "midi": 48,
      "time": 235,
      "duration": 1.25,
      "velocity": 1,
      "hand": "left"
    },
    {
      "midi": 75,
      "time": 235,
      "duration": 1.235,
      "velocity": 1,
      "hand": "right"
    },
    {
      "midi": 77,
      "time": 235,
      "duration": 0.313,
      "velocity": 1,
      "hand": "right"
    },
    {
      "midi": 63,
      "time": 235.625,
      "duration": 0.625,
      "velocity": 1,
      "hand": "right"
    },
    {
      "midi": 67,
      "time": 235.625,
      "duration": 0.625,
      "velocity": 1,
      "hand": "right"
    },
    {
      "midi": 72,
      "time": 235.625,
      "duration": 0.61,
      "velocity": 1,
      "hand": "right"
    },
    {
      "midi": 72,
      "time": 236.25,
      "duration": 0.61,
      "velocity": 1,
      "hand": "right"
    },
    {
      "midi": 75,
      "time": 236.25,
      "duration": 1.25,
      "velocity": 1,
      "hand": "right"
    },
    {
      "midi": 63,
      "time": 236.875,
      "duration": 0.625,
      "velocity": 1,
      "hand": "right"
    },
    {
      "midi": 67,
      "time": 236.875,
      "duration": 0.625,
      "velocity": 1,
      "hand": "right"
    },
    {
      "midi": 72,
      "time": 236.875,
      "duration": 0.625,
      "velocity": 1,
      "hand": "right"
    },
    {
      "midi": 36,
      "time": 237.5,
      "duration": 1.25,
      "velocity": 1,
      "hand": "left"
    },
    {
      "midi": 48,
      "time": 237.5,
      "duration": 1.25,
      "velocity": 1,
      "hand": "left"
    },
    {
      "midi": 63,
      "time": 238.125,
      "duration": 0.625,
      "velocity": 1,
      "hand": "right"
    },
    {
      "midi": 67,
      "time": 238.125,
      "duration": 0.625,
      "velocity": 1,
      "hand": "right"
    },
    {
      "midi": 72,
      "time": 238.125,
      "duration": 0.61,
      "velocity": 1,
      "hand": "right"
    },
    {
      "midi": 72,
      "time": 238.75,
      "duration": 0.61,
      "velocity": 1,
      "hand": "right"
    },
    {
      "midi": 75,
      "time": 238.75,
      "duration": 0.625,
      "velocity": 1,
      "hand": "right"
    },
    {
      "midi": 63,
      "time": 239.375,
      "duration": 0.625,
      "velocity": 1,
      "hand": "right"
    },
    {
      "midi": 67,
      "time": 239.375,
      "duration": 0.625,
      "velocity": 1,
      "hand": "right"
    },
    {
      "midi": 72,
      "time": 239.375,
      "duration": 0.61,
      "velocity": 1,
      "hand": "right"
    },
    {
      "midi": 39,
      "time": 240,
      "duration": 1.25,
      "velocity": 1,
      "hand": "left"
    },
    {
      "midi": 51,
      "time": 240,
      "duration": 1.25,
      "velocity": 1,
      "hand": "left"
    },
    {
      "midi": 72,
      "time": 240,
      "duration": 1.235,
      "velocity": 1,
      "hand": "right"
    },
    {
      "midi": 74,
      "time": 240,
      "duration": 0.313,
      "velocity": 1,
      "hand": "right"
    },
    {
      "midi": 60,
      "time": 240.625,
      "duration": 0.625,
      "velocity": 1,
      "hand": "right"
    },
    {
      "midi": 63,
      "time": 240.625,
      "duration": 0.625,
      "velocity": 1,
      "hand": "right"
    },
    {
      "midi": 67,
      "time": 240.625,
      "duration": 0.61,
      "velocity": 1,
      "hand": "right"
    },
    {
      "midi": 67,
      "time": 241.25,
      "duration": 0.61,
      "velocity": 1,
      "hand": "right"
    },
    {
      "midi": 72,
      "time": 241.25,
      "duration": 0.61,
      "velocity": 1,
      "hand": "right"
    },
    {
      "midi": 60,
      "time": 241.875,
      "duration": 0.625,
      "velocity": 1,
      "hand": "right"
    },
    {
      "midi": 63,
      "time": 241.875,
      "duration": 0.625,
      "velocity": 1,
      "hand": "right"
    },
    {
      "midi": 67,
      "time": 241.875,
      "duration": 0.625,
      "velocity": 1,
      "hand": "right"
    },
    {
      "midi": 72,
      "time": 241.875,
      "duration": 0.625,
      "velocity": 1,
      "hand": "right"
    },
    {
      "midi": 43,
      "time": 242.5,
      "duration": 1.25,
      "velocity": 1,
      "hand": "left"
    },
    {
      "midi": 55,
      "time": 242.5,
      "duration": 1.25,
      "velocity": 1,
      "hand": "left"
    },
    {
      "midi": 70,
      "time": 242.5,
      "duration": 0.61,
      "velocity": 1,
      "hand": "right"
    },
    {
      "midi": 61,
      "time": 243.125,
      "duration": 0.625,
      "velocity": 1,
      "hand": "right"
    },
    {
      "midi": 64,
      "time": 243.125,
      "duration": 0.625,
      "velocity": 1,
      "hand": "right"
    },
    {
      "midi": 70,
      "time": 243.125,
      "duration": 0.61,
      "velocity": 1,
      "hand": "right"
    },
    {
      "midi": 70,
      "time": 243.75,
      "duration": 0.61,
      "velocity": 1,
      "hand": "right"
    },
    {
      "midi": 73,
      "time": 243.75,
      "duration": 0.625,
      "velocity": 1,
      "hand": "right"
    },
    {
      "midi": 61,
      "time": 244.375,
      "duration": 0.625,
      "velocity": 1,
      "hand": "right"
    },
    {
      "midi": 64,
      "time": 244.375,
      "duration": 0.625,
      "velocity": 1,
      "hand": "right"
    },
    {
      "midi": 70,
      "time": 244.375,
      "duration": 0.625,
      "velocity": 1,
      "hand": "right"
    },
    {
      "midi": 72,
      "time": 244.375,
      "duration": 0.61,
      "velocity": 1,
      "hand": "right"
    },
    {
      "midi": 41,
      "time": 245,
      "duration": 1.25,
      "velocity": 1,
      "hand": "left"
    },
    {
      "midi": 53,
      "time": 245,
      "duration": 1.25,
      "velocity": 1,
      "hand": "left"
    },
    {
      "midi": 72,
      "time": 245,
      "duration": 1.235,
      "velocity": 1,
      "hand": "right"
    },
    {
      "midi": 60,
      "time": 245.625,
      "duration": 0.625,
      "velocity": 1,
      "hand": "right"
    },
    {
      "midi": 65,
      "time": 245.625,
      "duration": 0.625,
      "velocity": 1,
      "hand": "right"
    },
    {
      "midi": 69,
      "time": 245.625,
      "duration": 0.61,
      "velocity": 1,
      "hand": "right"
    },
    {
      "midi": 69,
      "time": 246.25,
      "duration": 0.61,
      "velocity": 1,
      "hand": "right"
    },
    {
      "midi": 72,
      "time": 246.25,
      "duration": 0.625,
      "velocity": 1,
      "hand": "right"
    },
    {
      "midi": 60,
      "time": 246.875,
      "duration": 0.625,
      "velocity": 1,
      "hand": "right"
    },
    {
      "midi": 65,
      "time": 246.875,
      "duration": 0.625,
      "velocity": 1,
      "hand": "right"
    },
    {
      "midi": 69,
      "time": 246.875,
      "duration": 0.625,
      "velocity": 1,
      "hand": "right"
    },
    {
      "midi": 41,
      "time": 247.5,
      "duration": 1.25,
      "velocity": 1,
      "hand": "left"
    },
    {
      "midi": 53,
      "time": 247.5,
      "duration": 1.25,
      "velocity": 1,
      "hand": "left"
    },
    {
      "midi": 63,
      "time": 248.125,
      "duration": 0.625,
      "velocity": 1,
      "hand": "right"
    },
    {
      "midi": 65,
      "time": 248.125,
      "duration": 0.625,
      "velocity": 1,
      "hand": "right"
    },
    {
      "midi": 69,
      "time": 248.125,
      "duration": 0.61,
      "velocity": 1,
      "hand": "right"
    },
    {
      "midi": 69,
      "time": 248.75,
      "duration": 0.61,
      "velocity": 1,
      "hand": "right"
    },
    {
      "midi": 72,
      "time": 248.75,
      "duration": 0.625,
      "velocity": 1,
      "hand": "right"
    },
    {
      "midi": 63,
      "time": 249.375,
      "duration": 0.625,
      "velocity": 1,
      "hand": "right"
    },
    {
      "midi": 65,
      "time": 249.375,
      "duration": 0.625,
      "velocity": 1,
      "hand": "right"
    },
    {
      "midi": 69,
      "time": 249.375,
      "duration": 0.625,
      "velocity": 1,
      "hand": "right"
    },
    {
      "midi": 46,
      "time": 250,
      "duration": 1.25,
      "velocity": 1,
      "hand": "left"
    },
    {
      "midi": 70,
      "time": 250,
      "duration": 0.61,
      "velocity": 1,
      "hand": "right"
    },
    {
      "midi": 62,
      "time": 250.625,
      "duration": 0.625,
      "velocity": 1,
      "hand": "right"
    },
    {
      "midi": 65,
      "time": 250.625,
      "duration": 0.625,
      "velocity": 1,
      "hand": "right"
    },
    {
      "midi": 70,
      "time": 250.625,
      "duration": 0.61,
      "velocity": 1,
      "hand": "right"
    },
    {
      "midi": 70,
      "time": 251.25,
      "duration": 0.61,
      "velocity": 1,
      "hand": "right"
    },
    {
      "midi": 74,
      "time": 251.25,
      "duration": 0.625,
      "velocity": 1,
      "hand": "right"
    },
    {
      "midi": 62,
      "time": 251.875,
      "duration": 0.625,
      "velocity": 1,
      "hand": "right"
    },
    {
      "midi": 65,
      "time": 251.875,
      "duration": 0.625,
      "velocity": 1,
      "hand": "right"
    },
    {
      "midi": 70,
      "time": 251.875,
      "duration": 0.625,
      "velocity": 1,
      "hand": "right"
    },
    {
      "midi": 43,
      "time": 252.5,
      "duration": 1.25,
      "velocity": 1,
      "hand": "left"
    },
    {
      "midi": 62,
      "time": 253.125,
      "duration": 0.625,
      "velocity": 1,
      "hand": "right"
    },
    {
      "midi": 64,
      "time": 253.125,
      "duration": 0.625,
      "velocity": 1,
      "hand": "right"
    },
    {
      "midi": 70,
      "time": 253.125,
      "duration": 0.61,
      "velocity": 1,
      "hand": "right"
    },
    {
      "midi": 70,
      "time": 253.75,
      "duration": 0.61,
      "velocity": 1,
      "hand": "right"
    },
    {
      "midi": 74,
      "time": 253.75,
      "duration": 0.625,
      "velocity": 1,
      "hand": "right"
    },
    {
      "midi": 62,
      "time": 254.375,
      "duration": 0.625,
      "velocity": 1,
      "hand": "right"
    },
    {
      "midi": 64,
      "time": 254.375,
      "duration": 0.625,
      "velocity": 1,
      "hand": "right"
    },
    {
      "midi": 70,
      "time": 254.375,
      "duration": 0.625,
      "velocity": 1,
      "hand": "right"
    },
    {
      "midi": 41,
      "time": 255,
      "duration": 1.25,
      "velocity": 1,
      "hand": "left"
    },
    {
      "midi": 74,
      "time": 255,
      "duration": 1.235,
      "velocity": 1,
      "hand": "right"
    },
    {
      "midi": 62,
      "time": 255.625,
      "duration": 0.625,
      "velocity": 1,
      "hand": "right"
    },
    {
      "midi": 65,
      "time": 255.625,
      "duration": 0.625,
      "velocity": 1,
      "hand": "right"
    },
    {
      "midi": 70,
      "time": 255.625,
      "duration": 0.61,
      "velocity": 1,
      "hand": "right"
    },
    {
      "midi": 70,
      "time": 256.25,
      "duration": 0.61,
      "velocity": 1,
      "hand": "right"
    },
    {
      "midi": 74,
      "time": 256.25,
      "duration": 0.625,
      "velocity": 1,
      "hand": "right"
    },
    {
      "midi": 62,
      "time": 256.875,
      "duration": 0.625,
      "velocity": 1,
      "hand": "right"
    },
    {
      "midi": 65,
      "time": 256.875,
      "duration": 0.625,
      "velocity": 1,
      "hand": "right"
    },
    {
      "midi": 70,
      "time": 256.875,
      "duration": 0.625,
      "velocity": 1,
      "hand": "right"
    },
    {
      "midi": 41,
      "time": 257.5,
      "duration": 1.25,
      "velocity": 1,
      "hand": "left"
    },
    {
      "midi": 63,
      "time": 258.125,
      "duration": 0.625,
      "velocity": 1,
      "hand": "right"
    },
    {
      "midi": 65,
      "time": 258.125,
      "duration": 0.625,
      "velocity": 1,
      "hand": "right"
    },
    {
      "midi": 69,
      "time": 258.125,
      "duration": 0.61,
      "velocity": 1,
      "hand": "right"
    },
    {
      "midi": 69,
      "time": 258.75,
      "duration": 0.61,
      "velocity": 1,
      "hand": "right"
    },
    {
      "midi": 72,
      "time": 258.75,
      "duration": 0.61,
      "velocity": 1,
      "hand": "right"
    },
    {
      "midi": 63,
      "time": 259.375,
      "duration": 0.625,
      "velocity": 1,
      "hand": "right"
    },
    {
      "midi": 65,
      "time": 259.375,
      "duration": 0.625,
      "velocity": 1,
      "hand": "right"
    },
    {
      "midi": 69,
      "time": 259.375,
      "duration": 0.625,
      "velocity": 1,
      "hand": "right"
    },
    {
      "midi": 72,
      "time": 259.375,
      "duration": 0.625,
      "velocity": 1,
      "hand": "right"
    },
    {
      "midi": 46,
      "time": 260,
      "duration": 1.25,
      "velocity": 1,
      "hand": "left"
    },
    {
      "midi": 70,
      "time": 260,
      "duration": 0.61,
      "velocity": 1,
      "hand": "right"
    },
    {
      "midi": 62,
      "time": 260.625,
      "duration": 0.625,
      "velocity": 1,
      "hand": "right"
    },
    {
      "midi": 65,
      "time": 260.625,
      "duration": 0.625,
      "velocity": 1,
      "hand": "right"
    },
    {
      "midi": 70,
      "time": 260.625,
      "duration": 0.61,
      "velocity": 1,
      "hand": "right"
    },
    {
      "midi": 70,
      "time": 261.25,
      "duration": 0.61,
      "velocity": 1,
      "hand": "right"
    },
    {
      "midi": 74,
      "time": 261.25,
      "duration": 0.625,
      "velocity": 1,
      "hand": "right"
    },
    {
      "midi": 62,
      "time": 261.875,
      "duration": 0.625,
      "velocity": 1,
      "hand": "right"
    },
    {
      "midi": 65,
      "time": 261.875,
      "duration": 0.625,
      "velocity": 1,
      "hand": "right"
    },
    {
      "midi": 70,
      "time": 261.875,
      "duration": 0.625,
      "velocity": 1,
      "hand": "right"
    },
    {
      "midi": 46,
      "time": 262.5,
      "duration": 1.25,
      "velocity": 1,
      "hand": "left"
    },
    {
      "midi": 62,
      "time": 263.125,
      "duration": 0.625,
      "velocity": 1,
      "hand": "right"
    },
    {
      "midi": 65,
      "time": 263.125,
      "duration": 0.625,
      "velocity": 1,
      "hand": "right"
    },
    {
      "midi": 70,
      "time": 263.125,
      "duration": 0.61,
      "velocity": 1,
      "hand": "right"
    },
    {
      "midi": 70,
      "time": 263.75,
      "duration": 0.61,
      "velocity": 1,
      "hand": "right"
    },
    {
      "midi": 74,
      "time": 263.75,
      "duration": 0.625,
      "velocity": 1,
      "hand": "right"
    },
    {
      "midi": 62,
      "time": 264.375,
      "duration": 0.625,
      "velocity": 1,
      "hand": "right"
    },
    {
      "midi": 65,
      "time": 264.375,
      "duration": 0.625,
      "velocity": 1,
      "hand": "right"
    },
    {
      "midi": 70,
      "time": 264.375,
      "duration": 0.625,
      "velocity": 1,
      "hand": "right"
    },
    {
      "midi": 46,
      "time": 265,
      "duration": 1.25,
      "velocity": 1,
      "hand": "left"
    },
    {
      "midi": 65,
      "time": 265.625,
      "duration": 0.625,
      "velocity": 1,
      "hand": "right"
    },
    {
      "midi": 70,
      "time": 265.625,
      "duration": 0.625,
      "velocity": 1,
      "hand": "right"
    },
    {
      "midi": 74,
      "time": 265.625,
      "duration": 0.61,
      "velocity": 1,
      "hand": "right"
    },
    {
      "midi": 74,
      "time": 266.25,
      "duration": 0.61,
      "velocity": 1,
      "hand": "right"
    },
    {
      "midi": 77,
      "time": 266.25,
      "duration": 0.625,
      "velocity": 1,
      "hand": "right"
    },
    {
      "midi": 65,
      "time": 266.875,
      "duration": 0.625,
      "velocity": 1,
      "hand": "right"
    },
    {
      "midi": 70,
      "time": 266.875,
      "duration": 0.625,
      "velocity": 1,
      "hand": "right"
    },
    {
      "midi": 74,
      "time": 266.875,
      "duration": 0.625,
      "velocity": 1,
      "hand": "right"
    },
    {
      "midi": 46,
      "time": 267.5,
      "duration": 1.25,
      "velocity": 1,
      "hand": "left"
    },
    {
      "midi": 68,
      "time": 268.125,
      "duration": 0.625,
      "velocity": 1,
      "hand": "right"
    },
    {
      "midi": 74,
      "time": 268.125,
      "duration": 0.625,
      "velocity": 1,
      "hand": "right"
    },
    {
      "midi": 77,
      "time": 268.125,
      "duration": 0.61,
      "velocity": 1,
      "hand": "right"
    },
    {
      "midi": 77,
      "time": 268.75,
      "duration": 0.61,
      "velocity": 1,
      "hand": "right"
    },
    {
      "midi": 80,
      "time": 268.75,
      "duration": 0.625,
      "velocity": 1,
      "hand": "right"
    },
    {
      "midi": 68,
      "time": 269.375,
      "duration": 0.625,
      "velocity": 1,
      "hand": "right"
    },
    {
      "midi": 74,
      "time": 269.375,
      "duration": 0.625,
      "velocity": 1,
      "hand": "right"
    },
    {
      "midi": 77,
      "time": 269.375,
      "duration": 0.625,
      "velocity": 1,
      "hand": "right"
    },
    {
      "midi": 46,
      "time": 270,
      "duration": 1.25,
      "velocity": 1,
      "hand": "left"
    },
    {
      "midi": 67,
      "time": 270.625,
      "duration": 0.625,
      "velocity": 1,
      "hand": "right"
    },
    {
      "midi": 70,
      "time": 270.625,
      "duration": 0.625,
      "velocity": 1,
      "hand": "right"
    },
    {
      "midi": 75,
      "time": 270.625,
      "duration": 0.61,
      "velocity": 1,
      "hand": "right"
    },
    {
      "midi": 75,
      "time": 271.25,
      "duration": 0.61,
      "velocity": 1,
      "hand": "right"
    },
    {
      "midi": 79,
      "time": 271.25,
      "duration": 0.625,
      "velocity": 1,
      "hand": "right"
    },
    {
      "midi": 67,
      "time": 271.875,
      "duration": 0.625,
      "velocity": 1,
      "hand": "right"
    },
    {
      "midi": 70,
      "time": 271.875,
      "duration": 0.625,
      "velocity": 1,
      "hand": "right"
    },
    {
      "midi": 75,
      "time": 271.875,
      "duration": 0.625,
      "velocity": 1,
      "hand": "right"
    },
    {
      "midi": 46,
      "time": 272.5,
      "duration": 1.25,
      "velocity": 1,
      "hand": "left"
    },
    {
      "midi": 66,
      "time": 273.125,
      "duration": 0.625,
      "velocity": 1,
      "hand": "right"
    },
    {
      "midi": 69,
      "time": 273.125,
      "duration": 0.625,
      "velocity": 1,
      "hand": "right"
    },
    {
      "midi": 75,
      "time": 273.125,
      "duration": 0.61,
      "velocity": 1,
      "hand": "right"
    },
    {
      "midi": 75,
      "time": 273.75,
      "duration": 0.61,
      "velocity": 1,
      "hand": "right"
    },
    {
      "midi": 78,
      "time": 273.75,
      "duration": 0.625,
      "velocity": 1,
      "hand": "right"
    },
    {
      "midi": 66,
      "time": 274.375,
      "duration": 0.625,
      "velocity": 1,
      "hand": "right"
    },
    {
      "midi": 69,
      "time": 274.375,
      "duration": 0.625,
      "velocity": 1,
      "hand": "right"
    },
    {
      "midi": 75,
      "time": 274.375,
      "duration": 0.625,
      "velocity": 1,
      "hand": "right"
    },
    {
      "midi": 46,
      "time": 275,
      "duration": 1.25,
      "velocity": 1,
      "hand": "left"
    },
    {
      "midi": 65,
      "time": 275.625,
      "duration": 0.625,
      "velocity": 1,
      "hand": "right"
    },
    {
      "midi": 70,
      "time": 275.625,
      "duration": 0.625,
      "velocity": 1,
      "hand": "right"
    },
    {
      "midi": 74,
      "time": 275.625,
      "duration": 0.61,
      "velocity": 1,
      "hand": "right"
    },
    {
      "midi": 74,
      "time": 276.25,
      "duration": 0.61,
      "velocity": 1,
      "hand": "right"
    },
    {
      "midi": 77,
      "time": 276.25,
      "duration": 0.625,
      "velocity": 1,
      "hand": "right"
    },
    {
      "midi": 65,
      "time": 276.875,
      "duration": 0.625,
      "velocity": 1,
      "hand": "right"
    },
    {
      "midi": 70,
      "time": 276.875,
      "duration": 0.625,
      "velocity": 1,
      "hand": "right"
    },
    {
      "midi": 74,
      "time": 276.875,
      "duration": 0.625,
      "velocity": 1,
      "hand": "right"
    },
    {
      "midi": 46,
      "time": 277.5,
      "duration": 1.25,
      "velocity": 1,
      "hand": "left"
    },
    {
      "midi": 62,
      "time": 278.125,
      "duration": 0.625,
      "velocity": 1,
      "hand": "right"
    },
    {
      "midi": 65,
      "time": 278.125,
      "duration": 0.625,
      "velocity": 1,
      "hand": "right"
    },
    {
      "midi": 70,
      "time": 278.125,
      "duration": 0.61,
      "velocity": 1,
      "hand": "right"
    },
    {
      "midi": 70,
      "time": 278.75,
      "duration": 0.61,
      "velocity": 1,
      "hand": "right"
    },
    {
      "midi": 74,
      "time": 278.75,
      "duration": 0.625,
      "velocity": 1,
      "hand": "right"
    },
    {
      "midi": 62,
      "time": 279.375,
      "duration": 0.625,
      "velocity": 1,
      "hand": "right"
    },
    {
      "midi": 65,
      "time": 279.375,
      "duration": 0.625,
      "velocity": 1,
      "hand": "right"
    },
    {
      "midi": 70,
      "time": 279.375,
      "duration": 0.61,
      "velocity": 1,
      "hand": "right"
    },
    {
      "midi": 46,
      "time": 280,
      "duration": 1.25,
      "velocity": 1,
      "hand": "left"
    },
    {
      "midi": 70,
      "time": 280,
      "duration": 0.61,
      "velocity": 1,
      "hand": "right"
    },
    {
      "midi": 62,
      "time": 280.625,
      "duration": 0.625,
      "velocity": 1,
      "hand": "right"
    },
    {
      "midi": 65,
      "time": 280.625,
      "duration": 0.625,
      "velocity": 1,
      "hand": "right"
    },
    {
      "midi": 70,
      "time": 280.625,
      "duration": 0.61,
      "velocity": 1,
      "hand": "right"
    },
    {
      "midi": 70,
      "time": 281.25,
      "duration": 0.61,
      "velocity": 1,
      "hand": "right"
    },
    {
      "midi": 74,
      "time": 281.25,
      "duration": 0.625,
      "velocity": 1,
      "hand": "right"
    },
    {
      "midi": 62,
      "time": 281.875,
      "duration": 0.625,
      "velocity": 1,
      "hand": "right"
    },
    {
      "midi": 65,
      "time": 281.875,
      "duration": 0.625,
      "velocity": 1,
      "hand": "right"
    },
    {
      "midi": 70,
      "time": 281.875,
      "duration": 0.625,
      "velocity": 1,
      "hand": "right"
    },
    {
      "midi": 43,
      "time": 282.5,
      "duration": 1.25,
      "velocity": 1,
      "hand": "left"
    },
    {
      "midi": 62,
      "time": 283.125,
      "duration": 0.625,
      "velocity": 1,
      "hand": "right"
    },
    {
      "midi": 64,
      "time": 283.125,
      "duration": 0.625,
      "velocity": 1,
      "hand": "right"
    },
    {
      "midi": 70,
      "time": 283.125,
      "duration": 0.61,
      "velocity": 1,
      "hand": "right"
    },
    {
      "midi": 70,
      "time": 283.75,
      "duration": 0.61,
      "velocity": 1,
      "hand": "right"
    },
    {
      "midi": 74,
      "time": 283.75,
      "duration": 0.625,
      "velocity": 1,
      "hand": "right"
    },
    {
      "midi": 62,
      "time": 284.375,
      "duration": 0.625,
      "velocity": 1,
      "hand": "right"
    },
    {
      "midi": 64,
      "time": 284.375,
      "duration": 0.625,
      "velocity": 1,
      "hand": "right"
    },
    {
      "midi": 70,
      "time": 284.375,
      "duration": 0.625,
      "velocity": 1,
      "hand": "right"
    },
    {
      "midi": 41,
      "time": 285,
      "duration": 1.25,
      "velocity": 1,
      "hand": "left"
    },
    {
      "midi": 74,
      "time": 285,
      "duration": 1.235,
      "velocity": 1,
      "hand": "right"
    },
    {
      "midi": 62,
      "time": 285.625,
      "duration": 0.625,
      "velocity": 1,
      "hand": "right"
    },
    {
      "midi": 65,
      "time": 285.625,
      "duration": 0.625,
      "velocity": 1,
      "hand": "right"
    },
    {
      "midi": 70,
      "time": 285.625,
      "duration": 0.61,
      "velocity": 1,
      "hand": "right"
    },
    {
      "midi": 70,
      "time": 286.25,
      "duration": 0.61,
      "velocity": 1,
      "hand": "right"
    },
    {
      "midi": 74,
      "time": 286.25,
      "duration": 0.625,
      "velocity": 1,
      "hand": "right"
    },
    {
      "midi": 62,
      "time": 286.875,
      "duration": 0.625,
      "velocity": 1,
      "hand": "right"
    },
    {
      "midi": 65,
      "time": 286.875,
      "duration": 0.625,
      "velocity": 1,
      "hand": "right"
    },
    {
      "midi": 70,
      "time": 286.875,
      "duration": 0.625,
      "velocity": 1,
      "hand": "right"
    },
    {
      "midi": 41,
      "time": 287.5,
      "duration": 1.25,
      "velocity": 1,
      "hand": "left"
    },
    {
      "midi": 63,
      "time": 288.125,
      "duration": 0.625,
      "velocity": 1,
      "hand": "right"
    },
    {
      "midi": 69,
      "time": 288.125,
      "duration": 0.625,
      "velocity": 1,
      "hand": "right"
    },
    {
      "midi": 72,
      "time": 288.125,
      "duration": 0.61,
      "velocity": 1,
      "hand": "right"
    },
    {
      "midi": 72,
      "time": 288.75,
      "duration": 0.61,
      "velocity": 1,
      "hand": "right"
    },
    {
      "midi": 75,
      "time": 288.75,
      "duration": 0.625,
      "velocity": 1,
      "hand": "right"
    },
    {
      "midi": 63,
      "time": 289.375,
      "duration": 0.625,
      "velocity": 1,
      "hand": "right"
    },
    {
      "midi": 69,
      "time": 289.375,
      "duration": 0.625,
      "velocity": 1,
      "hand": "right"
    },
    {
      "midi": 72,
      "time": 289.375,
      "duration": 0.625,
      "velocity": 1,
      "hand": "right"
    },
    {
      "midi": 43,
      "time": 290,
      "duration": 1.25,
      "velocity": 1,
      "hand": "left"
    },
    {
      "midi": 70,
      "time": 290,
      "duration": 0.61,
      "velocity": 1,
      "hand": "right"
    },
    {
      "midi": 62,
      "time": 290.625,
      "duration": 0.625,
      "velocity": 1,
      "hand": "right"
    },
    {
      "midi": 67,
      "time": 290.625,
      "duration": 0.625,
      "velocity": 1,
      "hand": "right"
    },
    {
      "midi": 70,
      "time": 290.625,
      "duration": 0.61,
      "velocity": 1,
      "hand": "right"
    },
    {
      "midi": 70,
      "time": 291.25,
      "duration": 0.61,
      "velocity": 1,
      "hand": "right"
    },
    {
      "midi": 74,
      "time": 291.25,
      "duration": 0.625,
      "velocity": 1,
      "hand": "right"
    },
    {
      "midi": 62,
      "time": 291.875,
      "duration": 0.625,
      "velocity": 1,
      "hand": "right"
    },
    {
      "midi": 67,
      "time": 291.875,
      "duration": 0.625,
      "velocity": 1,
      "hand": "right"
    },
    {
      "midi": 70,
      "time": 291.875,
      "duration": 0.625,
      "velocity": 1,
      "hand": "right"
    },
    {
      "midi": 43,
      "time": 292.5,
      "duration": 1.25,
      "velocity": 1,
      "hand": "left"
    },
    {
      "midi": 62,
      "time": 293.125,
      "duration": 0.625,
      "velocity": 1,
      "hand": "right"
    },
    {
      "midi": 67,
      "time": 293.125,
      "duration": 0.625,
      "velocity": 1,
      "hand": "right"
    },
    {
      "midi": 70,
      "time": 293.125,
      "duration": 0.61,
      "velocity": 1,
      "hand": "right"
    },
    {
      "midi": 70,
      "time": 293.75,
      "duration": 0.61,
      "velocity": 1,
      "hand": "right"
    },
    {
      "midi": 74,
      "time": 293.75,
      "duration": 0.625,
      "velocity": 1,
      "hand": "right"
    },
    {
      "midi": 62,
      "time": 294.375,
      "duration": 0.625,
      "velocity": 1,
      "hand": "right"
    },
    {
      "midi": 67,
      "time": 294.375,
      "duration": 0.625,
      "velocity": 1,
      "hand": "right"
    },
    {
      "midi": 70,
      "time": 294.375,
      "duration": 0.625,
      "velocity": 1,
      "hand": "right"
    },
    {
      "midi": 39,
      "time": 295,
      "duration": 1.25,
      "velocity": 1,
      "hand": "left"
    },
    {
      "midi": 72,
      "time": 295,
      "duration": 0.61,
      "velocity": 1,
      "hand": "right"
    },
    {
      "midi": 63,
      "time": 295.625,
      "duration": 0.625,
      "velocity": 1,
      "hand": "right"
    },
    {
      "midi": 67,
      "time": 295.625,
      "duration": 0.625,
      "velocity": 1,
      "hand": "right"
    },
    {
      "midi": 72,
      "time": 295.625,
      "duration": 0.61,
      "velocity": 1,
      "hand": "right"
    },
    {
      "midi": 72,
      "time": 296.25,
      "duration": 0.61,
      "velocity": 1,
      "hand": "right"
    },
    {
      "midi": 75,
      "time": 296.25,
      "duration": 0.625,
      "velocity": 1,
      "hand": "right"
    },
    {
      "midi": 63,
      "time": 296.875,
      "duration": 0.625,
      "velocity": 1,
      "hand": "right"
    },
    {
      "midi": 67,
      "time": 296.875,
      "duration": 0.625,
      "velocity": 1,
      "hand": "right"
    },
    {
      "midi": 72,
      "time": 296.875,
      "duration": 0.61,
      "velocity": 1,
      "hand": "right"
    },
    {
      "midi": 41,
      "time": 297.5,
      "duration": 1.25,
      "velocity": 1,
      "hand": "left"
    },
    {
      "midi": 70,
      "time": 297.5,
      "duration": 0.625,
      "velocity": 1,
      "hand": "right"
    },
    {
      "midi": 72,
      "time": 297.5,
      "duration": 0.313,
      "velocity": 1,
      "hand": "right"
    },
    {
      "midi": 74,
      "time": 297.5,
      "duration": 0.313,
      "velocity": 1,
      "hand": "right"
    },
    {
      "midi": 63,
      "time": 298.125,
      "duration": 0.625,
      "velocity": 1,
      "hand": "right"
    },
    {
      "midi": 65,
      "time": 298.125,
      "duration": 0.625,
      "velocity": 1,
      "hand": "right"
    },
    {
      "midi": 69,
      "time": 298.125,
      "duration": 0.61,
      "velocity": 1,
      "hand": "right"
    },
    {
      "midi": 67,
      "time": 298.75,
      "duration": 0.625,
      "velocity": 1,
      "hand": "right"
    },
    {
      "midi": 69,
      "time": 298.75,
      "duration": 0.61,
      "velocity": 1,
      "hand": "right"
    },
    {
      "midi": 72,
      "time": 298.75,
      "duration": 0.625,
      "velocity": 1,
      "hand": "right"
    },
    {
      "midi": 63,
      "time": 299.375,
      "duration": 0.625,
      "velocity": 1,
      "hand": "right"
    },
    {
      "midi": 65,
      "time": 299.375,
      "duration": 0.625,
      "velocity": 1,
      "hand": "right"
    },
    {
      "midi": 69,
      "time": 299.375,
      "duration": 0.625,
      "velocity": 1,
      "hand": "right"
    },
    {
      "midi": 46,
      "time": 300,
      "duration": 1.25,
      "velocity": 1,
      "hand": "left"
    },
    {
      "midi": 70,
      "time": 300,
      "duration": 0.61,
      "velocity": 1,
      "hand": "right"
    },
    {
      "midi": 62,
      "time": 300.625,
      "duration": 0.625,
      "velocity": 1,
      "hand": "right"
    },
    {
      "midi": 65,
      "time": 300.625,
      "duration": 0.625,
      "velocity": 1,
      "hand": "right"
    },
    {
      "midi": 70,
      "time": 300.625,
      "duration": 0.61,
      "velocity": 1,
      "hand": "right"
    },
    {
      "midi": 70,
      "time": 301.25,
      "duration": 0.61,
      "velocity": 1,
      "hand": "right"
    },
    {
      "midi": 74,
      "time": 301.25,
      "duration": 0.625,
      "velocity": 1,
      "hand": "right"
    },
    {
      "midi": 62,
      "time": 301.875,
      "duration": 0.625,
      "velocity": 1,
      "hand": "right"
    },
    {
      "midi": 65,
      "time": 301.875,
      "duration": 0.625,
      "velocity": 1,
      "hand": "right"
    },
    {
      "midi": 70,
      "time": 301.875,
      "duration": 0.625,
      "velocity": 1,
      "hand": "right"
    },
    {
      "midi": 46,
      "time": 302.5,
      "duration": 1.25,
      "velocity": 1,
      "hand": "left"
    },
    {
      "midi": 62,
      "time": 303.125,
      "duration": 0.625,
      "velocity": 1,
      "hand": "right"
    },
    {
      "midi": 65,
      "time": 303.125,
      "duration": 0.625,
      "velocity": 1,
      "hand": "right"
    },
    {
      "midi": 70,
      "time": 303.125,
      "duration": 0.61,
      "velocity": 1,
      "hand": "right"
    },
    {
      "midi": 70,
      "time": 303.75,
      "duration": 0.61,
      "velocity": 1,
      "hand": "right"
    },
    {
      "midi": 74,
      "time": 303.75,
      "duration": 1.235,
      "velocity": 1,
      "hand": "right"
    },
    {
      "midi": 62,
      "time": 304.375,
      "duration": 0.625,
      "velocity": 1,
      "hand": "right"
    },
    {
      "midi": 65,
      "time": 304.375,
      "duration": 0.625,
      "velocity": 1,
      "hand": "right"
    },
    {
      "midi": 70,
      "time": 304.375,
      "duration": 0.625,
      "velocity": 1,
      "hand": "right"
    },
    {
      "midi": 46,
      "time": 305,
      "duration": 1.25,
      "velocity": 1,
      "hand": "left"
    },
    {
      "midi": 74,
      "time": 305,
      "duration": 1.235,
      "velocity": 1,
      "hand": "right"
    },
    {
      "midi": 62,
      "time": 305.625,
      "duration": 0.625,
      "velocity": 1,
      "hand": "right"
    },
    {
      "midi": 66,
      "time": 305.625,
      "duration": 0.625,
      "velocity": 1,
      "hand": "right"
    },
    {
      "midi": 70,
      "time": 305.625,
      "duration": 0.61,
      "velocity": 1,
      "hand": "right"
    },
    {
      "midi": 70,
      "time": 306.25,
      "duration": 0.61,
      "velocity": 1,
      "hand": "right"
    },
    {
      "midi": 74,
      "time": 306.25,
      "duration": 0.625,
      "velocity": 1,
      "hand": "right"
    },
    {
      "midi": 62,
      "time": 306.875,
      "duration": 0.625,
      "velocity": 1,
      "hand": "right"
    },
    {
      "midi": 66,
      "time": 306.875,
      "duration": 0.625,
      "velocity": 1,
      "hand": "right"
    },
    {
      "midi": 70,
      "time": 306.875,
      "duration": 0.61,
      "velocity": 1,
      "hand": "right"
    },
    {
      "midi": 72,
      "time": 306.875,
      "duration": 0.625,
      "velocity": 1,
      "hand": "right"
    },
    {
      "midi": 46,
      "time": 307.5,
      "duration": 1.25,
      "velocity": 1,
      "hand": "left"
    },
    {
      "midi": 70,
      "time": 307.5,
      "duration": 0.61,
      "velocity": 1,
      "hand": "right"
    },
    {
      "midi": 62,
      "time": 308.125,
      "duration": 0.625,
      "velocity": 1,
      "hand": "right"
    },
    {
      "midi": 67,
      "time": 308.125,
      "duration": 0.625,
      "velocity": 1,
      "hand": "right"
    },
    {
      "midi": 70,
      "time": 308.125,
      "duration": 0.61,
      "velocity": 1,
      "hand": "right"
    },
    {
      "midi": 70,
      "time": 308.75,
      "duration": 0.61,
      "velocity": 1,
      "hand": "right"
    },
    {
      "midi": 74,
      "time": 308.75,
      "duration": 0.625,
      "velocity": 1,
      "hand": "right"
    },
    {
      "midi": 62,
      "time": 309.375,
      "duration": 0.625,
      "velocity": 1,
      "hand": "right"
    },
    {
      "midi": 67,
      "time": 309.375,
      "duration": 0.625,
      "velocity": 1,
      "hand": "right"
    },
    {
      "midi": 70,
      "time": 309.375,
      "duration": 0.625,
      "velocity": 1,
      "hand": "right"
    },
    {
      "midi": 76,
      "time": 309.375,
      "duration": 0.625,
      "velocity": 1,
      "hand": "right"
    },
    {
      "midi": 45,
      "time": 310,
      "duration": 1.25,
      "velocity": 1,
      "hand": "left"
    },
    {
      "midi": 74,
      "time": 310,
      "duration": 1.235,
      "velocity": 1,
      "hand": "right"
    },
    {
      "midi": 64,
      "time": 310.625,
      "duration": 0.625,
      "velocity": 1,
      "hand": "right"
    },
    {
      "midi": 67,
      "time": 310.625,
      "duration": 0.625,
      "velocity": 1,
      "hand": "right"
    },
    {
      "midi": 70,
      "time": 310.625,
      "duration": 0.61,
      "velocity": 1,
      "hand": "right"
    },
    {
      "midi": 70,
      "time": 311.25,
      "duration": 0.61,
      "velocity": 1,
      "hand": "right"
    },
    {
      "midi": 74,
      "time": 311.25,
      "duration": 0.625,
      "velocity": 1,
      "hand": "right"
    },
    {
      "midi": 64,
      "time": 311.875,
      "duration": 0.625,
      "velocity": 1,
      "hand": "right"
    },
    {
      "midi": 67,
      "time": 311.875,
      "duration": 0.625,
      "velocity": 1,
      "hand": "right"
    },
    {
      "midi": 70,
      "time": 311.875,
      "duration": 0.625,
      "velocity": 1,
      "hand": "right"
    },
    {
      "midi": 45,
      "time": 312.5,
      "duration": 1.25,
      "velocity": 1,
      "hand": "left"
    },
    {
      "midi": 73,
      "time": 312.5,
      "duration": 1.235,
      "velocity": 1,
      "hand": "right"
    },
    {
      "midi": 64,
      "time": 313.125,
      "duration": 0.625,
      "velocity": 1,
      "hand": "right"
    },
    {
      "midi": 67,
      "time": 313.125,
      "duration": 0.625,
      "velocity": 1,
      "hand": "right"
    },
    {
      "midi": 69,
      "time": 313.125,
      "duration": 0.61,
      "velocity": 1,
      "hand": "right"
    },
    {
      "midi": 69,
      "time": 313.75,
      "duration": 0.61,
      "velocity": 1,
      "hand": "right"
    },
    {
      "midi": 73,
      "time": 313.75,
      "duration": 0.625,
      "velocity": 1,
      "hand": "right"
    },
    {
      "midi": 64,
      "time": 314.375,
      "duration": 0.625,
      "velocity": 1,
      "hand": "right"
    },
    {
      "midi": 67,
      "time": 314.375,
      "duration": 0.625,
      "velocity": 1,
      "hand": "right"
    },
    {
      "midi": 69,
      "time": 314.375,
      "duration": 0.625,
      "velocity": 1,
      "hand": "right"
    },
    {
      "midi": 42,
      "time": 315,
      "duration": 1.25,
      "velocity": 1,
      "hand": "left"
    },
    {
      "midi": 72,
      "time": 315,
      "duration": 0.61,
      "velocity": 1,
      "hand": "right"
    },
    {
      "midi": 63,
      "time": 315.625,
      "duration": 0.625,
      "velocity": 1,
      "hand": "right"
    },
    {
      "midi": 69,
      "time": 315.625,
      "duration": 0.625,
      "velocity": 1,
      "hand": "right"
    },
    {
      "midi": 72,
      "time": 315.625,
      "duration": 0.61,
      "velocity": 1,
      "hand": "right"
    },
    {
      "midi": 72,
      "time": 316.25,
      "duration": 0.61,
      "velocity": 1,
      "hand": "right"
    },
    {
      "midi": 75,
      "time": 316.25,
      "duration": 0.625,
      "velocity": 1,
      "hand": "right"
    },
    {
      "midi": 63,
      "time": 316.875,
      "duration": 0.625,
      "velocity": 1,
      "hand": "right"
    },
    {
      "midi": 70,
      "time": 316.875,
      "duration": 0.625,
      "velocity": 1,
      "hand": "right"
    },
    {
      "midi": 72,
      "time": 316.875,
      "duration": 0.625,
      "velocity": 1,
      "hand": "right"
    },
    {
      "midi": 42,
      "time": 317.5,
      "duration": 1.25,
      "velocity": 1,
      "hand": "left"
    },
    {
      "midi": 69,
      "time": 317.5,
      "duration": 0.61,
      "velocity": 1,
      "hand": "right"
    },
    {
      "midi": 63,
      "time": 318.125,
      "duration": 0.625,
      "velocity": 1,
      "hand": "right"
    },
    {
      "midi": 69,
      "time": 318.125,
      "duration": 0.625,
      "velocity": 1,
      "hand": "right"
    },
    {
      "midi": 72,
      "time": 318.125,
      "duration": 0.61,
      "velocity": 1,
      "hand": "right"
    },
    {
      "midi": 74,
      "time": 318.125,
      "duration": 0.625,
      "velocity": 1,
      "hand": "right"
    },
    {
      "midi": 72,
      "time": 318.75,
      "duration": 0.61,
      "velocity": 1,
      "hand": "right"
    },
    {
      "midi": 75,
      "time": 318.75,
      "duration": 0.625,
      "velocity": 1,
      "hand": "right"
    },
    {
      "midi": 63,
      "time": 319.375,
      "duration": 0.625,
      "velocity": 1,
      "hand": "right"
    },
    {
      "midi": 69,
      "time": 319.375,
      "duration": 0.625,
      "velocity": 1,
      "hand": "right"
    },
    {
      "midi": 72,
      "time": 319.375,
      "duration": 0.625,
      "velocity": 1,
      "hand": "right"
    },
    {
      "midi": 43,
      "time": 320,
      "duration": 1.25,
      "velocity": 1,
      "hand": "left"
    },
    {
      "midi": 70,
      "time": 320,
      "duration": 0.61,
      "velocity": 1,
      "hand": "right"
    },
    {
      "midi": 62,
      "time": 320.625,
      "duration": 0.625,
      "velocity": 1,
      "hand": "right"
    },
    {
      "midi": 67,
      "time": 320.625,
      "duration": 0.625,
      "velocity": 1,
      "hand": "right"
    },
    {
      "midi": 70,
      "time": 320.625,
      "duration": 0.61,
      "velocity": 1,
      "hand": "right"
    },
    {
      "midi": 70,
      "time": 321.25,
      "duration": 0.61,
      "velocity": 1,
      "hand": "right"
    },
    {
      "midi": 74,
      "time": 321.25,
      "duration": 0.625,
      "velocity": 1,
      "hand": "right"
    },
    {
      "midi": 62,
      "time": 321.875,
      "duration": 0.625,
      "velocity": 1,
      "hand": "right"
    },
    {
      "midi": 67,
      "time": 321.875,
      "duration": 0.625,
      "velocity": 1,
      "hand": "right"
    },
    {
      "midi": 70,
      "time": 321.875,
      "duration": 0.625,
      "velocity": 1,
      "hand": "right"
    },
    {
      "midi": 43,
      "time": 322.5,
      "duration": 1.25,
      "velocity": 1,
      "hand": "left"
    },
    {
      "midi": 62,
      "time": 323.125,
      "duration": 0.625,
      "velocity": 1,
      "hand": "right"
    },
    {
      "midi": 64,
      "time": 323.125,
      "duration": 0.625,
      "velocity": 1,
      "hand": "right"
    },
    {
      "midi": 70,
      "time": 323.125,
      "duration": 0.61,
      "velocity": 1,
      "hand": "right"
    },
    {
      "midi": 70,
      "time": 323.75,
      "duration": 0.61,
      "velocity": 1,
      "hand": "right"
    },
    {
      "midi": 74,
      "time": 323.75,
      "duration": 0.625,
      "velocity": 1,
      "hand": "right"
    },
    {
      "midi": 62,
      "time": 324.375,
      "duration": 0.625,
      "velocity": 1,
      "hand": "right"
    },
    {
      "midi": 64,
      "time": 324.375,
      "duration": 0.625,
      "velocity": 1,
      "hand": "right"
    },
    {
      "midi": 70,
      "time": 324.375,
      "duration": 0.625,
      "velocity": 1,
      "hand": "right"
    },
    {
      "midi": 72,
      "time": 324.375,
      "duration": 0.61,
      "velocity": 1,
      "hand": "right"
    },
    {
      "midi": 45,
      "time": 325,
      "duration": 1.25,
      "velocity": 1,
      "hand": "left"
    },
    {
      "midi": 72,
      "time": 325,
      "duration": 1.235,
      "velocity": 1,
      "hand": "right"
    },
    {
      "midi": 60,
      "time": 325.625,
      "duration": 0.625,
      "velocity": 1,
      "hand": "right"
    },
    {
      "midi": 65,
      "time": 325.625,
      "duration": 0.625,
      "velocity": 1,
      "hand": "right"
    },
    {
      "midi": 69,
      "time": 325.625,
      "duration": 0.61,
      "velocity": 1,
      "hand": "right"
    },
    {
      "midi": 69,
      "time": 326.25,
      "duration": 0.61,
      "velocity": 1,
      "hand": "right"
    },
    {
      "midi": 72,
      "time": 326.25,
      "duration": 0.625,
      "velocity": 1,
      "hand": "right"
    },
    {
      "midi": 60,
      "time": 326.875,
      "duration": 0.625,
      "velocity": 1,
      "hand": "right"
    },
    {
      "midi": 65,
      "time": 326.875,
      "duration": 0.625,
      "velocity": 1,
      "hand": "right"
    },
    {
      "midi": 69,
      "time": 326.875,
      "duration": 0.625,
      "velocity": 1,
      "hand": "right"
    },
    {
      "midi": 38,
      "time": 327.5,
      "duration": 1.25,
      "velocity": 1,
      "hand": "left"
    },
    {
      "midi": 50,
      "time": 327.5,
      "duration": 1.25,
      "velocity": 1,
      "hand": "left"
    },
    {
      "midi": 67,
      "time": 327.5,
      "duration": 0.61,
      "velocity": 1,
      "hand": "right"
    },
    {
      "midi": 65,
      "time": 328.125,
      "duration": 0.625,
      "velocity": 1,
      "hand": "right"
    },
    {
      "midi": 67,
      "time": 328.125,
      "duration": 0.625,
      "velocity": 1,
      "hand": "right"
    },
    {
      "midi": 71,
      "time": 328.125,
      "duration": 0.61,
      "velocity": 1,
      "hand": "right"
    },
    {
      "midi": 74,
      "time": 328.125,
      "duration": 0.625,
      "velocity": 1,
      "hand": "right"
    },
    {
      "midi": 71,
      "time": 328.75,
      "duration": 0.61,
      "velocity": 1,
      "hand": "right"
    },
    {
      "midi": 77,
      "time": 328.75,
      "duration": 0.625,
      "velocity": 1,
      "hand": "right"
    },
    {
      "midi": 65,
      "time": 329.375,
      "duration": 0.625,
      "velocity": 1,
      "hand": "right"
    },
    {
      "midi": 67,
      "time": 329.375,
      "duration": 0.625,
      "velocity": 1,
      "hand": "right"
    },
    {
      "midi": 71,
      "time": 329.375,
      "duration": 0.625,
      "velocity": 1,
      "hand": "right"
    },
    {
      "midi": 74,
      "time": 329.375,
      "duration": 0.625,
      "velocity": 1,
      "hand": "right"
    },
    {
      "midi": 36,
      "time": 330,
      "duration": 1.25,
      "velocity": 1,
      "hand": "left"
    },
    {
      "midi": 48,
      "time": 330,
      "duration": 1.25,
      "velocity": 1,
      "hand": "left"
    },
    {
      "midi": 72,
      "time": 330,
      "duration": 0.61,
      "velocity": 1,
      "hand": "right"
    },
    {
      "midi": 65,
      "time": 330.625,
      "duration": 0.625,
      "velocity": 1,
      "hand": "right"
    },
    {
      "midi": 69,
      "time": 330.625,
      "duration": 0.625,
      "velocity": 1,
      "hand": "right"
    },
    {
      "midi": 72,
      "time": 330.625,
      "duration": 0.61,
      "velocity": 1,
      "hand": "right"
    },
    {
      "midi": 72,
      "time": 331.25,
      "duration": 0.61,
      "velocity": 1,
      "hand": "right"
    },
    {
      "midi": 77,
      "time": 331.25,
      "duration": 0.625,
      "velocity": 1,
      "hand": "right"
    },
    {
      "midi": 65,
      "time": 331.875,
      "duration": 0.625,
      "velocity": 1,
      "hand": "right"
    },
    {
      "midi": 69,
      "time": 331.875,
      "duration": 0.625,
      "velocity": 1,
      "hand": "right"
    },
    {
      "midi": 72,
      "time": 331.875,
      "duration": 0.625,
      "velocity": 1,
      "hand": "right"
    },
    {
      "midi": 36,
      "time": 332.5,
      "duration": 1.25,
      "velocity": 1,
      "hand": "left"
    },
    {
      "midi": 48,
      "time": 332.5,
      "duration": 1.25,
      "velocity": 1,
      "hand": "left"
    },
    {
      "midi": 67,
      "time": 333.125,
      "duration": 0.625,
      "velocity": 1,
      "hand": "right"
    },
    {
      "midi": 70,
      "time": 333.125,
      "duration": 0.61,
      "velocity": 1,
      "hand": "right"
    },
    {
      "midi": 72,
      "time": 333.125,
      "duration": 0.61,
      "velocity": 1,
      "hand": "right"
    },
    {
      "midi": 70,
      "time": 333.75,
      "duration": 0.313,
      "velocity": 1,
      "hand": "right"
    },
    {
      "midi": 72,
      "time": 333.75,
      "duration": 0.61,
      "velocity": 1,
      "hand": "right"
    },
    {
      "midi": 76,
      "time": 333.75,
      "duration": 0.625,
      "velocity": 1,
      "hand": "right"
    },
    {
      "midi": 67,
      "time": 334.375,
      "duration": 0.625,
      "velocity": 1,
      "hand": "right"
    },
    {
      "midi": 70,
      "time": 334.375,
      "duration": 0.625,
      "velocity": 1,
      "hand": "right"
    },
    {
      "midi": 72,
      "time": 334.375,
      "duration": 0.625,
      "velocity": 1,
      "hand": "right"
    },
    {
      "midi": 41,
      "time": 335,
      "duration": 1.25,
      "velocity": 1,
      "hand": "left"
    },
    {
      "midi": 53,
      "time": 335,
      "duration": 1.25,
      "velocity": 1,
      "hand": "left"
    },
    {
      "midi": 65,
      "time": 335,
      "duration": 0.61,
      "velocity": 1,
      "hand": "right"
    },
    {
      "midi": 65,
      "time": 335.625,
      "duration": 0.625,
      "velocity": 1,
      "hand": "right"
    },
    {
      "midi": 69,
      "time": 335.625,
      "duration": 0.625,
      "velocity": 1,
      "hand": "right"
    },
    {
      "midi": 72,
      "time": 335.625,
      "duration": 0.61,
      "velocity": 1,
      "hand": "right"
    },
    {
      "midi": 72,
      "time": 336.25,
      "duration": 0.61,
      "velocity": 1,
      "hand": "right"
    },
    {
      "midi": 77,
      "time": 336.25,
      "duration": 0.625,
      "velocity": 1,
      "hand": "right"
    },
    {
      "midi": 65,
      "time": 336.875,
      "duration": 0.625,
      "velocity": 1,
      "hand": "right"
    },
    {
      "midi": 69,
      "time": 336.875,
      "duration": 0.625,
      "velocity": 1,
      "hand": "right"
    },
    {
      "midi": 72,
      "time": 336.875,
      "duration": 0.625,
      "velocity": 1,
      "hand": "right"
    },
    {
      "midi": 41,
      "time": 337.5,
      "duration": 1.25,
      "velocity": 1,
      "hand": "left"
    },
    {
      "midi": 53,
      "time": 337.5,
      "duration": 1.25,
      "velocity": 1,
      "hand": "left"
    },
    {
      "midi": 65,
      "time": 338.125,
      "duration": 0.61,
      "velocity": 1,
      "hand": "right"
    },
    {
      "midi": 69,
      "time": 338.125,
      "duration": 0.625,
      "velocity": 1,
      "hand": "right"
    },
    {
      "midi": 72,
      "time": 338.125,
      "duration": 0.61,
      "velocity": 1,
      "hand": "right"
    },
    {
      "midi": 65,
      "time": 338.75,
      "duration": 0.61,
      "velocity": 1,
      "hand": "right"
    },
    {
      "midi": 72,
      "time": 338.75,
      "duration": 0.61,
      "velocity": 1,
      "hand": "right"
    },
    {
      "midi": 77,
      "time": 338.75,
      "duration": 0.625,
      "velocity": 1,
      "hand": "right"
    },
    {
      "midi": 65,
      "time": 339.375,
      "duration": 0.625,
      "velocity": 1,
      "hand": "right"
    },
    {
      "midi": 69,
      "time": 339.375,
      "duration": 0.625,
      "velocity": 1,
      "hand": "right"
    },
    {
      "midi": 72,
      "time": 339.375,
      "duration": 0.61,
      "velocity": 1,
      "hand": "right"
    },
    {
      "midi": 41,
      "time": 340,
      "duration": 1.25,
      "velocity": 1,
      "hand": "left"
    },
    {
      "midi": 53,
      "time": 340,
      "duration": 1.25,
      "velocity": 1,
      "hand": "left"
    },
    {
      "midi": 72,
      "time": 340,
      "duration": 0.61,
      "velocity": 1,
      "hand": "right"
    },
    {
      "midi": 63,
      "time": 340.625,
      "duration": 0.625,
      "velocity": 1,
      "hand": "right"
    },
    {
      "midi": 69,
      "time": 340.625,
      "duration": 0.625,
      "velocity": 1,
      "hand": "right"
    },
    {
      "midi": 72,
      "time": 340.625,
      "duration": 0.61,
      "velocity": 1,
      "hand": "right"
    },
    {
      "midi": 72,
      "time": 341.25,
      "duration": 0.61,
      "velocity": 1,
      "hand": "right"
    },
    {
      "midi": 77,
      "time": 341.25,
      "duration": 0.625,
      "velocity": 1,
      "hand": "right"
    },
    {
      "midi": 63,
      "time": 341.875,
      "duration": 0.625,
      "velocity": 1,
      "hand": "right"
    },
    {
      "midi": 69,
      "time": 341.875,
      "duration": 0.625,
      "velocity": 1,
      "hand": "right"
    },
    {
      "midi": 72,
      "time": 341.875,
      "duration": 0.61,
      "velocity": 1,
      "hand": "right"
    },
    {
      "midi": 41,
      "time": 342.5,
      "duration": 1.25,
      "velocity": 1,
      "hand": "left"
    },
    {
      "midi": 53,
      "time": 342.5,
      "duration": 1.25,
      "velocity": 1,
      "hand": "left"
    },
    {
      "midi": 72,
      "time": 342.5,
      "duration": 0.61,
      "velocity": 1,
      "hand": "right"
    },
    {
      "midi": 63,
      "time": 343.125,
      "duration": 0.625,
      "velocity": 1,
      "hand": "right"
    },
    {
      "midi": 69,
      "time": 343.125,
      "duration": 0.625,
      "velocity": 1,
      "hand": "right"
    },
    {
      "midi": 72,
      "time": 343.125,
      "duration": 0.61,
      "velocity": 1,
      "hand": "right"
    },
    {
      "midi": 72,
      "time": 343.75,
      "duration": 0.61,
      "velocity": 1,
      "hand": "right"
    },
    {
      "midi": 77,
      "time": 343.75,
      "duration": 0.625,
      "velocity": 1,
      "hand": "right"
    },
    {
      "midi": 63,
      "time": 344.375,
      "duration": 0.625,
      "velocity": 1,
      "hand": "right"
    },
    {
      "midi": 69,
      "time": 344.375,
      "duration": 0.625,
      "velocity": 1,
      "hand": "right"
    },
    {
      "midi": 72,
      "time": 344.375,
      "duration": 0.61,
      "velocity": 1,
      "hand": "right"
    },
    {
      "midi": 41,
      "time": 345,
      "duration": 1.25,
      "velocity": 1,
      "hand": "left"
    },
    {
      "midi": 53,
      "time": 345,
      "duration": 1.25,
      "velocity": 1,
      "hand": "left"
    },
    {
      "midi": 72,
      "time": 345,
      "duration": 1.25,
      "velocity": 1,
      "hand": "right"
    },
    {
      "midi": 74,
      "time": 345,
      "duration": 0.61,
      "velocity": 1,
      "hand": "right"
    },
    {
      "midi": 62,
      "time": 345.625,
      "duration": 0.625,
      "velocity": 1,
      "hand": "right"
    },
    {
      "midi": 70,
      "time": 345.625,
      "duration": 0.61,
      "velocity": 1,
      "hand": "right"
    },
    {
      "midi": 74,
      "time": 345.625,
      "duration": 0.61,
      "velocity": 1,
      "hand": "right"
    },
    {
      "midi": 70,
      "time": 346.25,
      "duration": 0.61,
      "velocity": 1,
      "hand": "right"
    },
    {
      "midi": 74,
      "time": 346.25,
      "duration": 0.61,
      "velocity": 1,
      "hand": "right"
    },
    {
      "midi": 77,
      "time": 346.25,
      "duration": 0.625,
      "velocity": 1,
      "hand": "right"
    },
    {
      "midi": 62,
      "time": 346.875,
      "duration": 0.625,
      "velocity": 1,
      "hand": "right"
    },
    {
      "midi": 70,
      "time": 346.875,
      "duration": 0.625,
      "velocity": 1,
      "hand": "right"
    },
    {
      "midi": 74,
      "time": 346.875,
      "duration": 0.625,
      "velocity": 1,
      "hand": "right"
    },
    {
      "midi": 41,
      "time": 347.5,
      "duration": 1.25,
      "velocity": 1,
      "hand": "left"
    },
    {
      "midi": 53,
      "time": 347.5,
      "duration": 1.25,
      "velocity": 1,
      "hand": "left"
    },
    {
      "midi": 62,
      "time": 348.125,
      "duration": 0.625,
      "velocity": 1,
      "hand": "right"
    },
    {
      "midi": 70,
      "time": 348.125,
      "duration": 0.61,
      "velocity": 1,
      "hand": "right"
    },
    {
      "midi": 74,
      "time": 348.125,
      "duration": 0.61,
      "velocity": 1,
      "hand": "right"
    },
    {
      "midi": 70,
      "time": 348.75,
      "duration": 0.61,
      "velocity": 1,
      "hand": "right"
    },
    {
      "midi": 74,
      "time": 348.75,
      "duration": 0.61,
      "velocity": 1,
      "hand": "right"
    },
    {
      "midi": 77,
      "time": 348.75,
      "duration": 0.625,
      "velocity": 1,
      "hand": "right"
    },
    {
      "midi": 62,
      "time": 349.375,
      "duration": 0.625,
      "velocity": 1,
      "hand": "right"
    },
    {
      "midi": 70,
      "time": 349.375,
      "duration": 0.625,
      "velocity": 1,
      "hand": "right"
    },
    {
      "midi": 74,
      "time": 349.375,
      "duration": 0.625,
      "velocity": 1,
      "hand": "right"
    },
    {
      "midi": 41,
      "time": 350,
      "duration": 1.25,
      "velocity": 1,
      "hand": "left"
    },
    {
      "midi": 53,
      "time": 350,
      "duration": 1.25,
      "velocity": 1,
      "hand": "left"
    },
    {
      "midi": 72,
      "time": 350,
      "duration": 0.61,
      "velocity": 1,
      "hand": "right"
    },
    {
      "midi": 63,
      "time": 350.625,
      "duration": 0.625,
      "velocity": 1,
      "hand": "right"
    },
    {
      "midi": 69,
      "time": 350.625,
      "duration": 0.625,
      "velocity": 1,
      "hand": "right"
    },
    {
      "midi": 72,
      "time": 350.625,
      "duration": 0.61,
      "velocity": 1,
      "hand": "right"
    },
    {
      "midi": 72,
      "time": 351.25,
      "duration": 0.61,
      "velocity": 1,
      "hand": "right"
    },
    {
      "midi": 77,
      "time": 351.25,
      "duration": 0.625,
      "velocity": 1,
      "hand": "right"
    },
    {
      "midi": 63,
      "time": 351.875,
      "duration": 0.625,
      "velocity": 1,
      "hand": "right"
    },
    {
      "midi": 69,
      "time": 351.875,
      "duration": 0.625,
      "velocity": 1,
      "hand": "right"
    },
    {
      "midi": 72,
      "time": 351.875,
      "duration": 0.61,
      "velocity": 1,
      "hand": "right"
    },
    {
      "midi": 41,
      "time": 352.5,
      "duration": 1.25,
      "velocity": 1,
      "hand": "left"
    },
    {
      "midi": 53,
      "time": 352.5,
      "duration": 1.25,
      "velocity": 1,
      "hand": "left"
    },
    {
      "midi": 72,
      "time": 352.5,
      "duration": 0.61,
      "velocity": 1,
      "hand": "right"
    },
    {
      "midi": 63,
      "time": 353.125,
      "duration": 0.625,
      "velocity": 1,
      "hand": "right"
    },
    {
      "midi": 69,
      "time": 353.125,
      "duration": 0.625,
      "velocity": 1,
      "hand": "right"
    },
    {
      "midi": 72,
      "time": 353.125,
      "duration": 0.61,
      "velocity": 1,
      "hand": "right"
    },
    {
      "midi": 72,
      "time": 353.75,
      "duration": 0.61,
      "velocity": 1,
      "hand": "right"
    },
    {
      "midi": 75,
      "time": 353.75,
      "duration": 0.625,
      "velocity": 1,
      "hand": "right"
    },
    {
      "midi": 77,
      "time": 353.75,
      "duration": 0.625,
      "velocity": 1,
      "hand": "right"
    },
    {
      "midi": 63,
      "time": 354.375,
      "duration": 0.625,
      "velocity": 1,
      "hand": "right"
    },
    {
      "midi": 69,
      "time": 354.375,
      "duration": 0.625,
      "velocity": 1,
      "hand": "right"
    },
    {
      "midi": 72,
      "time": 354.375,
      "duration": 0.625,
      "velocity": 1,
      "hand": "right"
    },
    {
      "midi": 74,
      "time": 354.375,
      "duration": 0.625,
      "velocity": 1,
      "hand": "right"
    },
    {
      "midi": 43,
      "time": 355,
      "duration": 1.25,
      "velocity": 1,
      "hand": "left"
    },
    {
      "midi": 55,
      "time": 355,
      "duration": 1.25,
      "velocity": 1,
      "hand": "left"
    },
    {
      "midi": 70,
      "time": 355,
      "duration": 0.61,
      "velocity": 1,
      "hand": "right"
    },
    {
      "midi": 62,
      "time": 355.625,
      "duration": 0.625,
      "velocity": 1,
      "hand": "right"
    },
    {
      "midi": 67,
      "time": 355.625,
      "duration": 0.625,
      "velocity": 1,
      "hand": "right"
    },
    {
      "midi": 70,
      "time": 355.625,
      "duration": 0.61,
      "velocity": 1,
      "hand": "right"
    },
    {
      "midi": 70,
      "time": 356.25,
      "duration": 0.61,
      "velocity": 1,
      "hand": "right"
    },
    {
      "midi": 74,
      "time": 356.25,
      "duration": 0.625,
      "velocity": 1,
      "hand": "right"
    },
    {
      "midi": 62,
      "time": 356.875,
      "duration": 0.625,
      "velocity": 1,
      "hand": "right"
    },
    {
      "midi": 67,
      "time": 356.875,
      "duration": 0.625,
      "velocity": 1,
      "hand": "right"
    },
    {
      "midi": 70,
      "time": 356.875,
      "duration": 0.625,
      "velocity": 1,
      "hand": "right"
    },
    {
      "midi": 43,
      "time": 357.5,
      "duration": 1.25,
      "velocity": 1,
      "hand": "left"
    },
    {
      "midi": 55,
      "time": 357.5,
      "duration": 1.25,
      "velocity": 1,
      "hand": "left"
    },
    {
      "midi": 58,
      "time": 358.125,
      "duration": 0.625,
      "velocity": 1,
      "hand": "left"
    },
    {
      "midi": 62,
      "time": 358.125,
      "duration": 0.625,
      "velocity": 1,
      "hand": "right"
    },
    {
      "midi": 67,
      "time": 358.125,
      "duration": 0.61,
      "velocity": 1,
      "hand": "right"
    },
    {
      "midi": 67,
      "time": 358.75,
      "duration": 0.61,
      "velocity": 1,
      "hand": "right"
    },
    {
      "midi": 70,
      "time": 358.75,
      "duration": 1.25,
      "velocity": 1,
      "hand": "right"
    },
    {
      "midi": 58,
      "time": 359.375,
      "duration": 0.625,
      "velocity": 1,
      "hand": "left"
    },
    {
      "midi": 62,
      "time": 359.375,
      "duration": 0.625,
      "velocity": 1,
      "hand": "right"
    },
    {
      "midi": 67,
      "time": 359.375,
      "duration": 0.625,
      "velocity": 1,
      "hand": "right"
    },
    {
      "midi": 41,
      "time": 360,
      "duration": 1.25,
      "velocity": 1,
      "hand": "left"
    },
    {
      "midi": 53,
      "time": 360,
      "duration": 1.25,
      "velocity": 1,
      "hand": "left"
    },
    {
      "midi": 72,
      "time": 360,
      "duration": 1.235,
      "velocity": 1,
      "hand": "right"
    },
    {
      "midi": 60,
      "time": 360.625,
      "duration": 0.625,
      "velocity": 1,
      "hand": "right"
    },
    {
      "midi": 65,
      "time": 360.625,
      "duration": 0.625,
      "velocity": 1,
      "hand": "right"
    },
    {
      "midi": 69,
      "time": 360.625,
      "duration": 0.61,
      "velocity": 1,
      "hand": "right"
    },
    {
      "midi": 69,
      "time": 361.25,
      "duration": 0.61,
      "velocity": 1,
      "hand": "right"
    },
    {
      "midi": 72,
      "time": 361.25,
      "duration": 0.61,
      "velocity": 1,
      "hand": "right"
    },
    {
      "midi": 60,
      "time": 361.875,
      "duration": 0.625,
      "velocity": 1,
      "hand": "right"
    },
    {
      "midi": 65,
      "time": 361.875,
      "duration": 0.625,
      "velocity": 1,
      "hand": "right"
    },
    {
      "midi": 69,
      "time": 361.875,
      "duration": 0.625,
      "velocity": 1,
      "hand": "right"
    },
    {
      "midi": 72,
      "time": 361.875,
      "duration": 0.625,
      "velocity": 1,
      "hand": "right"
    },
    {
      "midi": 38,
      "time": 362.5,
      "duration": 1.25,
      "velocity": 1,
      "hand": "left"
    },
    {
      "midi": 50,
      "time": 362.5,
      "duration": 1.25,
      "velocity": 1,
      "hand": "left"
    },
    {
      "midi": 74,
      "time": 362.5,
      "duration": 1.235,
      "velocity": 1,
      "hand": "right"
    },
    {
      "midi": 62,
      "time": 363.125,
      "duration": 0.625,
      "velocity": 1,
      "hand": "right"
    },
    {
      "midi": 66,
      "time": 363.125,
      "duration": 0.625,
      "velocity": 1,
      "hand": "right"
    },
    {
      "midi": 69,
      "time": 363.125,
      "duration": 0.61,
      "velocity": 1,
      "hand": "right"
    },
    {
      "midi": 69,
      "time": 363.75,
      "duration": 0.61,
      "velocity": 1,
      "hand": "right"
    },
    {
      "midi": 75,
      "time": 363.75,
      "duration": 0.313,
      "velocity": 1,
      "hand": "right"
    },
    {
      "midi": 66,
      "time": 364.375,
      "duration": 0.625,
      "velocity": 1,
      "hand": "right"
    },
    {
      "midi": 69,
      "time": 364.375,
      "duration": 0.625,
      "velocity": 1,
      "hand": "right"
    },
    {
      "midi": 72,
      "time": 364.375,
      "duration": 0.625,
      "velocity": 1,
      "hand": "right"
    },
    {
      "midi": 74,
      "time": 364.375,
      "duration": 0.313,
      "velocity": 1,
      "hand": "right"
    },
    {
      "midi": 36,
      "time": 365,
      "duration": 1.25,
      "velocity": 1,
      "hand": "left"
    },
    {
      "midi": 48,
      "time": 365,
      "duration": 1.25,
      "velocity": 1,
      "hand": "left"
    },
    {
      "midi": 75,
      "time": 365,
      "duration": 1.235,
      "velocity": 1,
      "hand": "right"
    },
    {
      "midi": 77,
      "time": 365,
      "duration": 0.313,
      "velocity": 1,
      "hand": "right"
    },
    {
      "midi": 63,
      "time": 365.625,
      "duration": 0.625,
      "velocity": 1,
      "hand": "right"
    },
    {
      "midi": 67,
      "time": 365.625,
      "duration": 0.625,
      "velocity": 1,
      "hand": "right"
    },
    {
      "midi": 72,
      "time": 365.625,
      "duration": 0.61,
      "velocity": 1,
      "hand": "right"
    },
    {
      "midi": 72,
      "time": 366.25,
      "duration": 0.61,
      "velocity": 1,
      "hand": "right"
    },
    {
      "midi": 75,
      "time": 366.25,
      "duration": 1.25,
      "velocity": 1,
      "hand": "right"
    },
    {
      "midi": 63,
      "time": 366.875,
      "duration": 0.625,
      "velocity": 1,
      "hand": "right"
    },
    {
      "midi": 67,
      "time": 366.875,
      "duration": 0.625,
      "velocity": 1,
      "hand": "right"
    },
    {
      "midi": 72,
      "time": 366.875,
      "duration": 0.625,
      "velocity": 1,
      "hand": "right"
    },
    {
      "midi": 36,
      "time": 367.5,
      "duration": 1.25,
      "velocity": 1,
      "hand": "left"
    },
    {
      "midi": 48,
      "time": 367.5,
      "duration": 1.25,
      "velocity": 1,
      "hand": "left"
    },
    {
      "midi": 63,
      "time": 368.125,
      "duration": 0.625,
      "velocity": 1,
      "hand": "right"
    },
    {
      "midi": 67,
      "time": 368.125,
      "duration": 0.625,
      "velocity": 1,
      "hand": "right"
    },
    {
      "midi": 72,
      "time": 368.125,
      "duration": 0.61,
      "velocity": 1,
      "hand": "right"
    },
    {
      "midi": 72,
      "time": 368.75,
      "duration": 0.61,
      "velocity": 1,
      "hand": "right"
    },
    {
      "midi": 75,
      "time": 368.75,
      "duration": 0.625,
      "velocity": 1,
      "hand": "right"
    },
    {
      "midi": 63,
      "time": 369.375,
      "duration": 0.625,
      "velocity": 1,
      "hand": "right"
    },
    {
      "midi": 67,
      "time": 369.375,
      "duration": 0.625,
      "velocity": 1,
      "hand": "right"
    },
    {
      "midi": 72,
      "time": 369.375,
      "duration": 0.61,
      "velocity": 1,
      "hand": "right"
    },
    {
      "midi": 39,
      "time": 370,
      "duration": 1.25,
      "velocity": 1,
      "hand": "left"
    },
    {
      "midi": 51,
      "time": 370,
      "duration": 1.25,
      "velocity": 1,
      "hand": "left"
    },
    {
      "midi": 72,
      "time": 370,
      "duration": 1.235,
      "velocity": 1,
      "hand": "right"
    },
    {
      "midi": 74,
      "time": 370,
      "duration": 0.313,
      "velocity": 1,
      "hand": "right"
    },
    {
      "midi": 60,
      "time": 370.625,
      "duration": 0.625,
      "velocity": 1,
      "hand": "right"
    },
    {
      "midi": 63,
      "time": 370.625,
      "duration": 0.625,
      "velocity": 1,
      "hand": "right"
    },
    {
      "midi": 67,
      "time": 370.625,
      "duration": 0.61,
      "velocity": 1,
      "hand": "right"
    },
    {
      "midi": 67,
      "time": 371.25,
      "duration": 0.61,
      "velocity": 1,
      "hand": "right"
    },
    {
      "midi": 72,
      "time": 371.25,
      "duration": 0.61,
      "velocity": 1,
      "hand": "right"
    },
    {
      "midi": 60,
      "time": 371.875,
      "duration": 0.625,
      "velocity": 1,
      "hand": "right"
    },
    {
      "midi": 63,
      "time": 371.875,
      "duration": 0.625,
      "velocity": 1,
      "hand": "right"
    },
    {
      "midi": 67,
      "time": 371.875,
      "duration": 0.625,
      "velocity": 1,
      "hand": "right"
    },
    {
      "midi": 72,
      "time": 371.875,
      "duration": 0.625,
      "velocity": 1,
      "hand": "right"
    },
    {
      "midi": 43,
      "time": 372.5,
      "duration": 1.25,
      "velocity": 1,
      "hand": "left"
    },
    {
      "midi": 55,
      "time": 372.5,
      "duration": 1.25,
      "velocity": 1,
      "hand": "left"
    },
    {
      "midi": 70,
      "time": 372.5,
      "duration": 0.61,
      "velocity": 1,
      "hand": "right"
    },
    {
      "midi": 61,
      "time": 373.125,
      "duration": 0.625,
      "velocity": 1,
      "hand": "right"
    },
    {
      "midi": 64,
      "time": 373.125,
      "duration": 0.625,
      "velocity": 1,
      "hand": "right"
    },
    {
      "midi": 70,
      "time": 373.125,
      "duration": 0.61,
      "velocity": 1,
      "hand": "right"
    },
    {
      "midi": 70,
      "time": 373.75,
      "duration": 0.61,
      "velocity": 1,
      "hand": "right"
    },
    {
      "midi": 73,
      "time": 373.75,
      "duration": 0.625,
      "velocity": 1,
      "hand": "right"
    },
    {
      "midi": 61,
      "time": 374.375,
      "duration": 0.625,
      "velocity": 1,
      "hand": "right"
    },
    {
      "midi": 64,
      "time": 374.375,
      "duration": 0.625,
      "velocity": 1,
      "hand": "right"
    },
    {
      "midi": 70,
      "time": 374.375,
      "duration": 0.625,
      "velocity": 1,
      "hand": "right"
    },
    {
      "midi": 72,
      "time": 374.375,
      "duration": 0.61,
      "velocity": 1,
      "hand": "right"
    },
    {
      "midi": 41,
      "time": 375,
      "duration": 1.25,
      "velocity": 1,
      "hand": "left"
    },
    {
      "midi": 53,
      "time": 375,
      "duration": 1.25,
      "velocity": 1,
      "hand": "left"
    },
    {
      "midi": 72,
      "time": 375,
      "duration": 1.235,
      "velocity": 1,
      "hand": "right"
    },
    {
      "midi": 60,
      "time": 375.625,
      "duration": 0.625,
      "velocity": 1,
      "hand": "right"
    },
    {
      "midi": 65,
      "time": 375.625,
      "duration": 0.625,
      "velocity": 1,
      "hand": "right"
    },
    {
      "midi": 69,
      "time": 375.625,
      "duration": 0.61,
      "velocity": 1,
      "hand": "right"
    },
    {
      "midi": 69,
      "time": 376.25,
      "duration": 0.61,
      "velocity": 1,
      "hand": "right"
    },
    {
      "midi": 72,
      "time": 376.25,
      "duration": 0.625,
      "velocity": 1,
      "hand": "right"
    },
    {
      "midi": 60,
      "time": 376.875,
      "duration": 0.625,
      "velocity": 1,
      "hand": "right"
    },
    {
      "midi": 65,
      "time": 376.875,
      "duration": 0.625,
      "velocity": 1,
      "hand": "right"
    },
    {
      "midi": 69,
      "time": 376.875,
      "duration": 0.625,
      "velocity": 1,
      "hand": "right"
    },
    {
      "midi": 41,
      "time": 377.5,
      "duration": 1.25,
      "velocity": 1,
      "hand": "left"
    },
    {
      "midi": 53,
      "time": 377.5,
      "duration": 1.25,
      "velocity": 1,
      "hand": "left"
    },
    {
      "midi": 63,
      "time": 378.125,
      "duration": 0.625,
      "velocity": 1,
      "hand": "right"
    },
    {
      "midi": 65,
      "time": 378.125,
      "duration": 0.625,
      "velocity": 1,
      "hand": "right"
    },
    {
      "midi": 69,
      "time": 378.125,
      "duration": 0.61,
      "velocity": 1,
      "hand": "right"
    },
    {
      "midi": 69,
      "time": 378.75,
      "duration": 0.61,
      "velocity": 1,
      "hand": "right"
    },
    {
      "midi": 72,
      "time": 378.75,
      "duration": 0.625,
      "velocity": 1,
      "hand": "right"
    },
    {
      "midi": 63,
      "time": 379.375,
      "duration": 0.625,
      "velocity": 1,
      "hand": "right"
    },
    {
      "midi": 65,
      "time": 379.375,
      "duration": 0.625,
      "velocity": 1,
      "hand": "right"
    },
    {
      "midi": 69,
      "time": 379.375,
      "duration": 0.625,
      "velocity": 1,
      "hand": "right"
    },
    {
      "midi": 46,
      "time": 380,
      "duration": 1.25,
      "velocity": 1,
      "hand": "left"
    },
    {
      "midi": 70,
      "time": 380,
      "duration": 0.61,
      "velocity": 1,
      "hand": "right"
    },
    {
      "midi": 62,
      "time": 380.625,
      "duration": 0.625,
      "velocity": 1,
      "hand": "right"
    },
    {
      "midi": 65,
      "time": 380.625,
      "duration": 0.625,
      "velocity": 1,
      "hand": "right"
    },
    {
      "midi": 70,
      "time": 380.625,
      "duration": 0.61,
      "velocity": 1,
      "hand": "right"
    },
    {
      "midi": 70,
      "time": 381.25,
      "duration": 0.61,
      "velocity": 1,
      "hand": "right"
    },
    {
      "midi": 74,
      "time": 381.25,
      "duration": 0.625,
      "velocity": 1,
      "hand": "right"
    },
    {
      "midi": 62,
      "time": 381.875,
      "duration": 0.625,
      "velocity": 1,
      "hand": "right"
    },
    {
      "midi": 65,
      "time": 381.875,
      "duration": 0.625,
      "velocity": 1,
      "hand": "right"
    },
    {
      "midi": 70,
      "time": 381.875,
      "duration": 0.625,
      "velocity": 1,
      "hand": "right"
    },
    {
      "midi": 43,
      "time": 382.5,
      "duration": 1.25,
      "velocity": 1,
      "hand": "left"
    },
    {
      "midi": 62,
      "time": 383.125,
      "duration": 0.625,
      "velocity": 1,
      "hand": "right"
    },
    {
      "midi": 64,
      "time": 383.125,
      "duration": 0.625,
      "velocity": 1,
      "hand": "right"
    },
    {
      "midi": 70,
      "time": 383.125,
      "duration": 0.61,
      "velocity": 1,
      "hand": "right"
    },
    {
      "midi": 70,
      "time": 383.75,
      "duration": 0.61,
      "velocity": 1,
      "hand": "right"
    },
    {
      "midi": 74,
      "time": 383.75,
      "duration": 0.625,
      "velocity": 1,
      "hand": "right"
    },
    {
      "midi": 62,
      "time": 384.375,
      "duration": 0.625,
      "velocity": 1,
      "hand": "right"
    },
    {
      "midi": 64,
      "time": 384.375,
      "duration": 0.625,
      "velocity": 1,
      "hand": "right"
    },
    {
      "midi": 70,
      "time": 384.375,
      "duration": 0.625,
      "velocity": 1,
      "hand": "right"
    },
    {
      "midi": 41,
      "time": 385,
      "duration": 1.25,
      "velocity": 1,
      "hand": "left"
    },
    {
      "midi": 74,
      "time": 385,
      "duration": 1.235,
      "velocity": 1,
      "hand": "right"
    },
    {
      "midi": 62,
      "time": 385.625,
      "duration": 0.625,
      "velocity": 1,
      "hand": "right"
    },
    {
      "midi": 65,
      "time": 385.625,
      "duration": 0.625,
      "velocity": 1,
      "hand": "right"
    },
    {
      "midi": 70,
      "time": 385.625,
      "duration": 0.61,
      "velocity": 1,
      "hand": "right"
    },
    {
      "midi": 70,
      "time": 386.25,
      "duration": 0.61,
      "velocity": 1,
      "hand": "right"
    },
    {
      "midi": 74,
      "time": 386.25,
      "duration": 0.625,
      "velocity": 1,
      "hand": "right"
    },
    {
      "midi": 62,
      "time": 386.875,
      "duration": 0.625,
      "velocity": 1,
      "hand": "right"
    },
    {
      "midi": 65,
      "time": 386.875,
      "duration": 0.625,
      "velocity": 1,
      "hand": "right"
    },
    {
      "midi": 70,
      "time": 386.875,
      "duration": 0.625,
      "velocity": 1,
      "hand": "right"
    },
    {
      "midi": 41,
      "time": 387.5,
      "duration": 1.25,
      "velocity": 1,
      "hand": "left"
    },
    {
      "midi": 63,
      "time": 388.125,
      "duration": 0.625,
      "velocity": 1,
      "hand": "right"
    },
    {
      "midi": 65,
      "time": 388.125,
      "duration": 0.625,
      "velocity": 1,
      "hand": "right"
    },
    {
      "midi": 69,
      "time": 388.125,
      "duration": 0.61,
      "velocity": 1,
      "hand": "right"
    },
    {
      "midi": 69,
      "time": 388.75,
      "duration": 0.61,
      "velocity": 1,
      "hand": "right"
    },
    {
      "midi": 72,
      "time": 388.75,
      "duration": 0.61,
      "velocity": 1,
      "hand": "right"
    },
    {
      "midi": 63,
      "time": 389.375,
      "duration": 0.625,
      "velocity": 1,
      "hand": "right"
    },
    {
      "midi": 65,
      "time": 389.375,
      "duration": 0.625,
      "velocity": 1,
      "hand": "right"
    },
    {
      "midi": 69,
      "time": 389.375,
      "duration": 0.625,
      "velocity": 1,
      "hand": "right"
    },
    {
      "midi": 72,
      "time": 389.375,
      "duration": 0.625,
      "velocity": 1,
      "hand": "right"
    },
    {
      "midi": 46,
      "time": 390,
      "duration": 1.25,
      "velocity": 1,
      "hand": "left"
    },
    {
      "midi": 70,
      "time": 390,
      "duration": 0.61,
      "velocity": 1,
      "hand": "right"
    },
    {
      "midi": 62,
      "time": 390.625,
      "duration": 0.625,
      "velocity": 1,
      "hand": "right"
    },
    {
      "midi": 65,
      "time": 390.625,
      "duration": 0.625,
      "velocity": 1,
      "hand": "right"
    },
    {
      "midi": 70,
      "time": 390.625,
      "duration": 0.61,
      "velocity": 1,
      "hand": "right"
    },
    {
      "midi": 70,
      "time": 391.25,
      "duration": 0.61,
      "velocity": 1,
      "hand": "right"
    },
    {
      "midi": 74,
      "time": 391.25,
      "duration": 0.625,
      "velocity": 1,
      "hand": "right"
    },
    {
      "midi": 62,
      "time": 391.875,
      "duration": 0.625,
      "velocity": 1,
      "hand": "right"
    },
    {
      "midi": 65,
      "time": 391.875,
      "duration": 0.625,
      "velocity": 1,
      "hand": "right"
    },
    {
      "midi": 70,
      "time": 391.875,
      "duration": 0.625,
      "velocity": 1,
      "hand": "right"
    },
    {
      "midi": 46,
      "time": 392.5,
      "duration": 1.25,
      "velocity": 1,
      "hand": "left"
    },
    {
      "midi": 62,
      "time": 393.125,
      "duration": 0.625,
      "velocity": 1,
      "hand": "right"
    },
    {
      "midi": 65,
      "time": 393.125,
      "duration": 0.625,
      "velocity": 1,
      "hand": "right"
    },
    {
      "midi": 70,
      "time": 393.125,
      "duration": 0.61,
      "velocity": 1,
      "hand": "right"
    },
    {
      "midi": 70,
      "time": 393.75,
      "duration": 0.61,
      "velocity": 1,
      "hand": "right"
    },
    {
      "midi": 74,
      "time": 393.75,
      "duration": 0.625,
      "velocity": 1,
      "hand": "right"
    },
    {
      "midi": 62,
      "time": 394.375,
      "duration": 0.625,
      "velocity": 1,
      "hand": "right"
    },
    {
      "midi": 65,
      "time": 394.375,
      "duration": 0.625,
      "velocity": 1,
      "hand": "right"
    },
    {
      "midi": 70,
      "time": 394.375,
      "duration": 0.625,
      "velocity": 1,
      "hand": "right"
    },
    {
      "midi": 46,
      "time": 395,
      "duration": 1.25,
      "velocity": 1,
      "hand": "left"
    },
    {
      "midi": 65,
      "time": 395.625,
      "duration": 0.625,
      "velocity": 1,
      "hand": "right"
    },
    {
      "midi": 70,
      "time": 395.625,
      "duration": 0.625,
      "velocity": 1,
      "hand": "right"
    },
    {
      "midi": 74,
      "time": 395.625,
      "duration": 0.61,
      "velocity": 1,
      "hand": "right"
    },
    {
      "midi": 74,
      "time": 396.25,
      "duration": 0.61,
      "velocity": 1,
      "hand": "right"
    },
    {
      "midi": 77,
      "time": 396.25,
      "duration": 0.625,
      "velocity": 1,
      "hand": "right"
    },
    {
      "midi": 65,
      "time": 396.875,
      "duration": 0.625,
      "velocity": 1,
      "hand": "right"
    },
    {
      "midi": 70,
      "time": 396.875,
      "duration": 0.625,
      "velocity": 1,
      "hand": "right"
    },
    {
      "midi": 74,
      "time": 396.875,
      "duration": 0.625,
      "velocity": 1,
      "hand": "right"
    },
    {
      "midi": 46,
      "time": 397.5,
      "duration": 1.25,
      "velocity": 1,
      "hand": "left"
    },
    {
      "midi": 68,
      "time": 398.125,
      "duration": 0.625,
      "velocity": 1,
      "hand": "right"
    },
    {
      "midi": 74,
      "time": 398.125,
      "duration": 0.625,
      "velocity": 1,
      "hand": "right"
    },
    {
      "midi": 77,
      "time": 398.125,
      "duration": 0.61,
      "velocity": 1,
      "hand": "right"
    },
    {
      "midi": 77,
      "time": 398.75,
      "duration": 0.61,
      "velocity": 1,
      "hand": "right"
    },
    {
      "midi": 80,
      "time": 398.75,
      "duration": 0.625,
      "velocity": 1,
      "hand": "right"
    },
    {
      "midi": 68,
      "time": 399.375,
      "duration": 0.625,
      "velocity": 1,
      "hand": "right"
    },
    {
      "midi": 74,
      "time": 399.375,
      "duration": 0.625,
      "velocity": 1,
      "hand": "right"
    },
    {
      "midi": 77,
      "time": 399.375,
      "duration": 0.625,
      "velocity": 1,
      "hand": "right"
    },
    {
      "midi": 46,
      "time": 400,
      "duration": 1.25,
      "velocity": 1,
      "hand": "left"
    },
    {
      "midi": 67,
      "time": 400.625,
      "duration": 0.625,
      "velocity": 1,
      "hand": "right"
    },
    {
      "midi": 70,
      "time": 400.625,
      "duration": 0.625,
      "velocity": 1,
      "hand": "right"
    },
    {
      "midi": 75,
      "time": 400.625,
      "duration": 0.61,
      "velocity": 1,
      "hand": "right"
    },
    {
      "midi": 75,
      "time": 401.25,
      "duration": 0.61,
      "velocity": 1,
      "hand": "right"
    },
    {
      "midi": 79,
      "time": 401.25,
      "duration": 0.625,
      "velocity": 1,
      "hand": "right"
    },
    {
      "midi": 67,
      "time": 401.875,
      "duration": 0.625,
      "velocity": 1,
      "hand": "right"
    },
    {
      "midi": 70,
      "time": 401.875,
      "duration": 0.625,
      "velocity": 1,
      "hand": "right"
    },
    {
      "midi": 75,
      "time": 401.875,
      "duration": 0.625,
      "velocity": 1,
      "hand": "right"
    },
    {
      "midi": 46,
      "time": 402.5,
      "duration": 1.25,
      "velocity": 1,
      "hand": "left"
    },
    {
      "midi": 66,
      "time": 403.125,
      "duration": 0.625,
      "velocity": 1,
      "hand": "right"
    },
    {
      "midi": 69,
      "time": 403.125,
      "duration": 0.625,
      "velocity": 1,
      "hand": "right"
    },
    {
      "midi": 75,
      "time": 403.125,
      "duration": 0.61,
      "velocity": 1,
      "hand": "right"
    },
    {
      "midi": 75,
      "time": 403.75,
      "duration": 0.61,
      "velocity": 1,
      "hand": "right"
    },
    {
      "midi": 78,
      "time": 403.75,
      "duration": 0.625,
      "velocity": 1,
      "hand": "right"
    },
    {
      "midi": 66,
      "time": 404.375,
      "duration": 0.625,
      "velocity": 1,
      "hand": "right"
    },
    {
      "midi": 69,
      "time": 404.375,
      "duration": 0.625,
      "velocity": 1,
      "hand": "right"
    },
    {
      "midi": 75,
      "time": 404.375,
      "duration": 0.625,
      "velocity": 1,
      "hand": "right"
    },
    {
      "midi": 46,
      "time": 405,
      "duration": 1.25,
      "velocity": 1,
      "hand": "left"
    },
    {
      "midi": 65,
      "time": 405.625,
      "duration": 0.625,
      "velocity": 1,
      "hand": "right"
    },
    {
      "midi": 70,
      "time": 405.625,
      "duration": 0.625,
      "velocity": 1,
      "hand": "right"
    },
    {
      "midi": 74,
      "time": 405.625,
      "duration": 0.61,
      "velocity": 1,
      "hand": "right"
    },
    {
      "midi": 74,
      "time": 406.25,
      "duration": 0.61,
      "velocity": 1,
      "hand": "right"
    },
    {
      "midi": 77,
      "time": 406.25,
      "duration": 0.625,
      "velocity": 1,
      "hand": "right"
    },
    {
      "midi": 65,
      "time": 406.875,
      "duration": 0.625,
      "velocity": 1,
      "hand": "right"
    },
    {
      "midi": 70,
      "time": 406.875,
      "duration": 0.625,
      "velocity": 1,
      "hand": "right"
    },
    {
      "midi": 74,
      "time": 406.875,
      "duration": 0.625,
      "velocity": 1,
      "hand": "right"
    },
    {
      "midi": 46,
      "time": 407.5,
      "duration": 1.25,
      "velocity": 1,
      "hand": "left"
    },
    {
      "midi": 62,
      "time": 408.125,
      "duration": 0.625,
      "velocity": 1,
      "hand": "right"
    },
    {
      "midi": 65,
      "time": 408.125,
      "duration": 0.625,
      "velocity": 1,
      "hand": "right"
    },
    {
      "midi": 70,
      "time": 408.125,
      "duration": 0.61,
      "velocity": 1,
      "hand": "right"
    },
    {
      "midi": 70,
      "time": 408.75,
      "duration": 0.61,
      "velocity": 1,
      "hand": "right"
    },
    {
      "midi": 74,
      "time": 408.75,
      "duration": 0.625,
      "velocity": 1,
      "hand": "right"
    },
    {
      "midi": 62,
      "time": 409.375,
      "duration": 0.625,
      "velocity": 1,
      "hand": "right"
    },
    {
      "midi": 65,
      "time": 409.375,
      "duration": 0.625,
      "velocity": 1,
      "hand": "right"
    },
    {
      "midi": 70,
      "time": 409.375,
      "duration": 0.625,
      "velocity": 1,
      "hand": "right"
    },
    {
      "midi": 46,
      "time": 410,
      "duration": 1.25,
      "velocity": 1,
      "hand": "left"
    },
    {
      "midi": 58,
      "time": 410.625,
      "duration": 0.625,
      "velocity": 1,
      "hand": "left"
    },
    {
      "midi": 62,
      "time": 410.625,
      "duration": 0.625,
      "velocity": 1,
      "hand": "right"
    },
    {
      "midi": 65,
      "time": 410.625,
      "duration": 0.61,
      "velocity": 1,
      "hand": "right"
    },
    {
      "midi": 65,
      "time": 411.25,
      "duration": 0.61,
      "velocity": 1,
      "hand": "right"
    },
    {
      "midi": 70,
      "time": 411.25,
      "duration": 0.625,
      "velocity": 1,
      "hand": "right"
    },
    {
      "midi": 58,
      "time": 411.875,
      "duration": 0.625,
      "velocity": 1,
      "hand": "left"
    },
    {
      "midi": 62,
      "time": 411.875,
      "duration": 0.625,
      "velocity": 1,
      "hand": "right"
    },
    {
      "midi": 65,
      "time": 411.875,
      "duration": 0.625,
      "velocity": 1,
      "hand": "right"
    },
    {
      "midi": 46,
      "time": 412.5,
      "duration": 1.25,
      "velocity": 1,
      "hand": "left"
    },
    {
      "midi": 53,
      "time": 413.125,
      "duration": 0.625,
      "velocity": 1,
      "hand": "left"
    },
    {
      "midi": 58,
      "time": 413.125,
      "duration": 0.625,
      "velocity": 1,
      "hand": "left"
    },
    {
      "midi": 62,
      "time": 413.125,
      "duration": 0.61,
      "velocity": 1,
      "hand": "right"
    },
    {
      "midi": 62,
      "time": 413.75,
      "duration": 0.61,
      "velocity": 1,
      "hand": "right"
    },
    {
      "midi": 65,
      "time": 413.75,
      "duration": 0.625,
      "velocity": 1,
      "hand": "right"
    },
    {
      "midi": 53,
      "time": 414.375,
      "duration": 0.625,
      "velocity": 1,
      "hand": "left"
    },
    {
      "midi": 58,
      "time": 414.375,
      "duration": 0.625,
      "velocity": 1,
      "hand": "left"
    },
    {
      "midi": 62,
      "time": 414.375,
      "duration": 0.625,
      "velocity": 1,
      "hand": "right"
    },
    {
      "midi": 46,
      "time": 415,
      "duration": 1.25,
      "velocity": 1,
      "hand": "left"
    },
    {
      "midi": 50,
      "time": 415.625,
      "duration": 0.625,
      "velocity": 1,
      "hand": "left"
    },
    {
      "midi": 53,
      "time": 415.625,
      "duration": 0.625,
      "velocity": 1,
      "hand": "left"
    },
    {
      "midi": 58,
      "time": 416.25,
      "duration": 0.61,
      "velocity": 1,
      "hand": "left"
    },
    {
      "midi": 62,
      "time": 416.25,
      "duration": 0.625,
      "velocity": 1,
      "hand": "right"
    },
    {
      "midi": 50,
      "time": 416.875,
      "duration": 0.625,
      "velocity": 1,
      "hand": "left"
    },
    {
      "midi": 53,
      "time": 416.875,
      "duration": 0.625,
      "velocity": 1,
      "hand": "left"
    },
    {
      "midi": 46,
      "time": 417.5,
      "duration": 1.25,
      "velocity": 1,
      "hand": "left"
    },
    {
      "midi": 50,
      "time": 418.125,
      "duration": 0.625,
      "velocity": 1,
      "hand": "left"
    },
    {
      "midi": 53,
      "time": 418.125,
      "duration": 0.625,
      "velocity": 1,
      "hand": "left"
    },
    {
      "midi": 58,
      "time": 418.75,
      "duration": 0.61,
      "velocity": 1,
      "hand": "left"
    },
    {
      "midi": 62,
      "time": 418.75,
      "duration": 0.625,
      "velocity": 1,
      "hand": "right"
    },
    {
      "midi": 50,
      "time": 419.375,
      "duration": 0.61,
      "velocity": 1,
      "hand": "left"
    },
    {
      "midi": 53,
      "time": 419.375,
      "duration": 0.61,
      "velocity": 1,
      "hand": "left"
    },
    {
      "midi": 41,
      "time": 420,
      "duration": 10,
      "velocity": 1,
      "hand": "left"
    },
    {
      "midi": 46,
      "time": 420,
      "duration": 10,
      "velocity": 1,
      "hand": "left"
    },
    {
      "midi": 62,
      "time": 420,
      "duration": 10,
      "velocity": 1,
      "hand": "right"
    }
  ]
}
