{
  "id": "bach-prelude",
  "title": "Prelúdio em Dó Maior (BWV 846)",
  "artist": "Johann Sebastian Bach",
  "difficulty": "Difícil",
  "bpm": 117,
  "duration": 227,
  "category": "Clássicos",
  "isPremium": true,
  "coverUrl": "/images/covers/placeholder.png",
  "notes": [
    {
      "midi": 60,
      "time": 0,
      "duration": 1.523,
      "velocity": 0.61,
      "hand": "right"
    },
    {
      "midi": 64,
      "time": 0.128,
      "duration": 1.41,
      "velocity": 0.57,
      "hand": "right"
    },
    {
      "midi": 67,
      "time": 0.384,
      "duration": 0.256,
      "velocity": 0.56,
      "hand": "right"
    },
    {
      "midi": 72,
      "time": 0.641,
      "duration": 0.256,
      "velocity": 0.6,
      "hand": "right"
    },
    {
      "midi": 76,
      "time": 0.769,
      "duration": 0.128,
      "velocity": 0.62,
      "hand": "right"
    },
    {
      "midi": 67,
      "time": 1.025,
      "duration": 0.256,
      "velocity": 0.5,
      "hand": "right"
    },
    {
      "midi": 72,
      "time": 1.153,
      "duration": 0.256,
      "velocity": 0.46,
      "hand": "right"
    },
    {
      "midi": 76,
      "time": 1.41,
      "duration": 0.256,
      "velocity": 0.46,
      "hand": "right"
    },
    {
      "midi": 60,
      "time": 1.538,
      "duration": 1.652,
      "velocity": 0.61,
      "hand": "right"
    },
    {
      "midi": 64,
      "time": 1.795,
      "duration": 1.41,
      "velocity": 0.57,
      "hand": "right"
    },
    {
      "midi": 67,
      "time": 2.051,
      "duration": 0.256,
      "velocity": 0.56,
      "hand": "right"
    },
    {
      "midi": 72,
      "time": 2.179,
      "duration": 0.256,
      "velocity": 0.6,
      "hand": "right"
    },
    {
      "midi": 76,
      "time": 2.436,
      "duration": 0.128,
      "velocity": 0.61,
      "hand": "right"
    },
    {
      "midi": 67,
      "time": 2.564,
      "duration": 0.256,
      "velocity": 0.5,
      "hand": "right"
    },
    {
      "midi": 72,
      "time": 2.82,
      "duration": 0.256,
      "velocity": 0.47,
      "hand": "right"
    },
    {
      "midi": 76,
      "time": 2.948,
      "duration": 0.256,
      "velocity": 0.47,
      "hand": "right"
    },
    {
      "midi": 60,
      "time": 3.205,
      "duration": 1.523,
      "velocity": 0.65,
      "hand": "right"
    },
    {
      "midi": 62,
      "time": 3.461,
      "duration": 1.41,
      "velocity": 0.6,
      "hand": "right"
    },
    {
      "midi": 69,
      "time": 3.589,
      "duration": 0.256,
      "velocity": 0.56,
      "hand": "right"
    },
    {
      "midi": 74,
      "time": 3.846,
      "duration": 0.256,
      "velocity": 0.6,
      "hand": "right"
    },
    {
      "midi": 77,
      "time": 3.974,
      "duration": 0.128,
      "velocity": 0.65,
      "hand": "right"
    },
    {
      "midi": 69,
      "time": 4.23,
      "duration": 0.256,
      "velocity": 0.5,
      "hand": "right"
    },
    {
      "midi": 74,
      "time": 4.359,
      "duration": 0.256,
      "velocity": 0.5,
      "hand": "right"
    },
    {
      "midi": 77,
      "time": 4.615,
      "duration": 0.256,
      "velocity": 0.5,
      "hand": "right"
    },
    {
      "midi": 60,
      "time": 4.743,
      "duration": 1.538,
      "velocity": 0.65,
      "hand": "right"
    },
    {
      "midi": 62,
      "time": 5,
      "duration": 1.41,
      "velocity": 0.6,
      "hand": "right"
    },
    {
      "midi": 69,
      "time": 5.256,
      "duration": 0.256,
      "velocity": 0.57,
      "hand": "right"
    },
    {
      "midi": 74,
      "time": 5.384,
      "duration": 0.256,
      "velocity": 0.6,
      "hand": "right"
    },
    {
      "midi": 77,
      "time": 5.641,
      "duration": 0.128,
      "velocity": 0.65,
      "hand": "right"
    },
    {
      "midi": 69,
      "time": 5.769,
      "duration": 0.256,
      "velocity": 0.51,
      "hand": "right"
    },
    {
      "midi": 74,
      "time": 6.025,
      "duration": 0.256,
      "velocity": 0.5,
      "hand": "right"
    },
    {
      "midi": 77,
      "time": 6.153,
      "duration": 0.256,
      "velocity": 0.5,
      "hand": "right"
    },
    {
      "midi": 59,
      "time": 6.41,
      "duration": 1.523,
      "velocity": 0.65,
      "hand": "left"
    },
    {
      "midi": 62,
      "time": 6.538,
      "duration": 1.41,
      "velocity": 0.6,
      "hand": "right"
    },
    {
      "midi": 67,
      "time": 6.795,
      "duration": 0.256,
      "velocity": 0.56,
      "hand": "right"
    },
    {
      "midi": 74,
      "time": 6.923,
      "duration": 0.256,
      "velocity": 0.6,
      "hand": "right"
    },
    {
      "midi": 77,
      "time": 7.179,
      "duration": 0.128,
      "velocity": 0.65,
      "hand": "right"
    },
    {
      "midi": 67,
      "time": 7.307,
      "duration": 0.256,
      "velocity": 0.5,
      "hand": "right"
    },
    {
      "midi": 74,
      "time": 7.564,
      "duration": 0.256,
      "velocity": 0.5,
      "hand": "right"
    },
    {
      "midi": 77,
      "time": 7.692,
      "duration": 0.256,
      "velocity": 0.5,
      "hand": "right"
    },
    {
      "midi": 59,
      "time": 7.948,
      "duration": 1.538,
      "velocity": 0.65,
      "hand": "left"
    },
    {
      "midi": 62,
      "time": 8.205,
      "duration": 1.41,
      "velocity": 0.6,
      "hand": "right"
    },
    {
      "midi": 67,
      "time": 8.333,
      "duration": 0.256,
      "velocity": 0.56,
      "hand": "right"
    },
    {
      "midi": 74,
      "time": 8.589,
      "duration": 0.256,
      "velocity": 0.6,
      "hand": "right"
    },
    {
      "midi": 77,
      "time": 8.718,
      "duration": 0.128,
      "velocity": 0.65,
      "hand": "right"
    },
    {
      "midi": 67,
      "time": 8.974,
      "duration": 0.256,
      "velocity": 0.51,
      "hand": "right"
    },
    {
      "midi": 74,
      "time": 9.102,
      "duration": 0.256,
      "velocity": 0.5,
      "hand": "right"
    },
    {
      "midi": 77,
      "time": 9.359,
      "duration": 0.256,
      "velocity": 0.5,
      "hand": "right"
    },
    {
      "midi": 60,
      "time": 9.487,
      "duration": 1.538,
      "velocity": 0.61,
      "hand": "right"
    },
    {
      "midi": 64,
      "time": 9.743,
      "duration": 1.41,
      "velocity": 0.57,
      "hand": "right"
    },
    {
      "midi": 67,
      "time": 9.871,
      "duration": 0.256,
      "velocity": 0.53,
      "hand": "right"
    },
    {
      "midi": 72,
      "time": 10.128,
      "duration": 0.256,
      "velocity": 0.54,
      "hand": "right"
    },
    {
      "midi": 76,
      "time": 10.384,
      "duration": 0.128,
      "velocity": 0.6,
      "hand": "right"
    },
    {
      "midi": 67,
      "time": 10.512,
      "duration": 0.256,
      "velocity": 0.5,
      "hand": "right"
    },
    {
      "midi": 72,
      "time": 10.769,
      "duration": 0.256,
      "velocity": 0.46,
      "hand": "right"
    },
    {
      "midi": 76,
      "time": 10.897,
      "duration": 0.256,
      "velocity": 0.46,
      "hand": "right"
    },
    {
      "midi": 60,
      "time": 11.153,
      "duration": 1.524,
      "velocity": 0.61,
      "hand": "right"
    },
    {
      "midi": 64,
      "time": 11.282,
      "duration": 1.41,
      "velocity": 0.57,
      "hand": "right"
    },
    {
      "midi": 67,
      "time": 11.538,
      "duration": 0.256,
      "velocity": 0.54,
      "hand": "right"
    },
    {
      "midi": 72,
      "time": 11.666,
      "duration": 0.256,
      "velocity": 0.57,
      "hand": "right"
    },
    {
      "midi": 76,
      "time": 11.923,
      "duration": 0.128,
      "velocity": 0.61,
      "hand": "right"
    },
    {
      "midi": 67,
      "time": 12.051,
      "duration": 0.256,
      "velocity": 0.5,
      "hand": "right"
    },
    {
      "midi": 72,
      "time": 12.307,
      "duration": 0.256,
      "velocity": 0.47,
      "hand": "right"
    },
    {
      "midi": 76,
      "time": 12.436,
      "duration": 0.256,
      "velocity": 0.47,
      "hand": "right"
    },
    {
      "midi": 60,
      "time": 12.692,
      "duration": 1.523,
      "velocity": 0.67,
      "hand": "right"
    },
    {
      "midi": 64,
      "time": 12.948,
      "duration": 1.41,
      "velocity": 0.61,
      "hand": "right"
    },
    {
      "midi": 69,
      "time": 13.077,
      "duration": 0.256,
      "velocity": 0.61,
      "hand": "right"
    },
    {
      "midi": 76,
      "time": 13.333,
      "duration": 0.256,
      "velocity": 0.65,
      "hand": "right"
    },
    {
      "midi": 81,
      "time": 13.461,
      "duration": 0.128,
      "velocity": 0.69,
      "hand": "right"
    },
    {
      "midi": 69,
      "time": 13.718,
      "duration": 0.256,
      "velocity": 0.54,
      "hand": "right"
    },
    {
      "midi": 76,
      "time": 13.846,
      "duration": 0.256,
      "velocity": 0.5,
      "hand": "right"
    },
    {
      "midi": 81,
      "time": 14.102,
      "duration": 0.256,
      "velocity": 0.5,
      "hand": "right"
    },
    {
      "midi": 60,
      "time": 14.23,
      "duration": 1.538,
      "velocity": 0.68,
      "hand": "right"
    },
    {
      "midi": 64,
      "time": 14.487,
      "duration": 1.41,
      "velocity": 0.61,
      "hand": "right"
    },
    {
      "midi": 69,
      "time": 14.743,
      "duration": 0.256,
      "velocity": 0.61,
      "hand": "right"
    },
    {
      "midi": 76,
      "time": 14.871,
      "duration": 0.256,
      "velocity": 0.65,
      "hand": "right"
    },
    {
      "midi": 81,
      "time": 15.128,
      "duration": 0.128,
      "velocity": 0.68,
      "hand": "right"
    },
    {
      "midi": 69,
      "time": 15.256,
      "duration": 0.256,
      "velocity": 0.54,
      "hand": "right"
    },
    {
      "midi": 76,
      "time": 15.512,
      "duration": 0.256,
      "velocity": 0.51,
      "hand": "right"
    },
    {
      "midi": 81,
      "time": 15.641,
      "duration": 0.256,
      "velocity": 0.51,
      "hand": "right"
    },
    {
      "midi": 60,
      "time": 15.897,
      "duration": 1.524,
      "velocity": 0.61,
      "hand": "right"
    },
    {
      "midi": 62,
      "time": 16.025,
      "duration": 1.41,
      "velocity": 0.57,
      "hand": "right"
    },
    {
      "midi": 66,
      "time": 16.282,
      "duration": 0.256,
      "velocity": 0.56,
      "hand": "right"
    },
    {
      "midi": 69,
      "time": 16.41,
      "duration": 0.256,
      "velocity": 0.6,
      "hand": "right"
    },
    {
      "midi": 74,
      "time": 16.666,
      "duration": 0.128,
      "velocity": 0.62,
      "hand": "right"
    },
    {
      "midi": 66,
      "time": 16.795,
      "duration": 0.256,
      "velocity": 0.5,
      "hand": "right"
    },
    {
      "midi": 69,
      "time": 17.051,
      "duration": 0.256,
      "velocity": 0.46,
      "hand": "right"
    },
    {
      "midi": 74,
      "time": 17.179,
      "duration": 0.256,
      "velocity": 0.46,
      "hand": "right"
    },
    {
      "midi": 60,
      "time": 17.436,
      "duration": 1.538,
      "velocity": 0.61,
      "hand": "right"
    },
    {
      "midi": 62,
      "time": 17.564,
      "duration": 1.41,
      "velocity": 0.57,
      "hand": "right"
    },
    {
      "midi": 66,
      "time": 17.82,
      "duration": 0.256,
      "velocity": 0.56,
      "hand": "right"
    },
    {
      "midi": 69,
      "time": 18.077,
      "duration": 0.256,
      "velocity": 0.6,
      "hand": "right"
    },
    {
      "midi": 74,
      "time": 18.205,
      "duration": 0.128,
      "velocity": 0.61,
      "hand": "right"
    },
    {
      "midi": 66,
      "time": 18.461,
      "duration": 0.256,
      "velocity": 0.5,
      "hand": "right"
    },
    {
      "midi": 69,
      "time": 18.589,
      "duration": 0.256,
      "velocity": 0.47,
      "hand": "right"
    },
    {
      "midi": 74,
      "time": 18.846,
      "duration": 0.256,
      "velocity": 0.47,
      "hand": "right"
    },
    {
      "midi": 59,
      "time": 18.974,
      "duration": 1.538,
      "velocity": 0.65,
      "hand": "left"
    },
    {
      "midi": 62,
      "time": 19.23,
      "duration": 1.41,
      "velocity": 0.6,
      "hand": "right"
    },
    {
      "midi": 67,
      "time": 19.359,
      "duration": 0.256,
      "velocity": 0.57,
      "hand": "right"
    },
    {
      "midi": 74,
      "time": 19.615,
      "duration": 0.256,
      "velocity": 0.62,
      "hand": "right"
    },
    {
      "midi": 79,
      "time": 19.871,
      "duration": 0.128,
      "velocity": 0.65,
      "hand": "right"
    },
    {
      "midi": 67,
      "time": 20,
      "duration": 0.256,
      "velocity": 0.5,
      "hand": "right"
    },
    {
      "midi": 74,
      "time": 20.256,
      "duration": 0.256,
      "velocity": 0.5,
      "hand": "right"
    },
    {
      "midi": 79,
      "time": 20.384,
      "duration": 0.256,
      "velocity": 0.5,
      "hand": "right"
    },
    {
      "midi": 59,
      "time": 20.641,
      "duration": 1.523,
      "velocity": 0.65,
      "hand": "left"
    },
    {
      "midi": 62,
      "time": 20.769,
      "duration": 1.41,
      "velocity": 0.6,
      "hand": "right"
    },
    {
      "midi": 67,
      "time": 21.025,
      "duration": 0.256,
      "velocity": 0.57,
      "hand": "right"
    },
    {
      "midi": 74,
      "time": 21.153,
      "duration": 0.256,
      "velocity": 0.61,
      "hand": "right"
    },
    {
      "midi": 79,
      "time": 21.41,
      "duration": 0.128,
      "velocity": 0.65,
      "hand": "right"
    },
    {
      "midi": 67,
      "time": 21.538,
      "duration": 0.256,
      "velocity": 0.51,
      "hand": "right"
    },
    {
      "midi": 74,
      "time": 21.795,
      "duration": 0.256,
      "velocity": 0.5,
      "hand": "right"
    },
    {
      "midi": 79,
      "time": 21.923,
      "duration": 0.256,
      "velocity": 0.5,
      "hand": "right"
    },
    {
      "midi": 59,
      "time": 22.179,
      "duration": 1.524,
      "velocity": 0.61,
      "hand": "left"
    },
    {
      "midi": 60,
      "time": 22.436,
      "duration": 1.41,
      "velocity": 0.57,
      "hand": "right"
    },
    {
      "midi": 64,
      "time": 22.564,
      "duration": 0.256,
      "velocity": 0.56,
      "hand": "right"
    },
    {
      "midi": 67,
      "time": 22.82,
      "duration": 0.256,
      "velocity": 0.6,
      "hand": "right"
    },
    {
      "midi": 72,
      "time": 22.948,
      "duration": 0.128,
      "velocity": 0.62,
      "hand": "right"
    },
    {
      "midi": 64,
      "time": 23.205,
      "duration": 0.256,
      "velocity": 0.5,
      "hand": "right"
    },
    {
      "midi": 67,
      "time": 23.333,
      "duration": 0.256,
      "velocity": 0.46,
      "hand": "right"
    },
    {
      "midi": 72,
      "time": 23.589,
      "duration": 0.256,
      "velocity": 0.46,
      "hand": "right"
    },
    {
      "midi": 59,
      "time": 23.718,
      "duration": 1.538,
      "velocity": 0.61,
      "hand": "left"
    },
    {
      "midi": 60,
      "time": 23.974,
      "duration": 1.41,
      "velocity": 0.57,
      "hand": "right"
    },
    {
      "midi": 64,
      "time": 24.102,
      "duration": 0.256,
      "velocity": 0.56,
      "hand": "right"
    },
    {
      "midi": 67,
      "time": 24.359,
      "duration": 0.256,
      "velocity": 0.6,
      "hand": "right"
    },
    {
      "midi": 72,
      "time": 24.615,
      "duration": 0.128,
      "velocity": 0.61,
      "hand": "right"
    },
    {
      "midi": 64,
      "time": 24.743,
      "duration": 0.256,
      "velocity": 0.5,
      "hand": "right"
    },
    {
      "midi": 67,
      "time": 25,
      "duration": 0.256,
      "velocity": 0.47,
      "hand": "right"
    },
    {
      "midi": 72,
      "time": 25.128,
      "duration": 0.256,
      "velocity": 0.47,
      "hand": "right"
    },
    {
      "midi": 57,
      "time": 25.384,
      "duration": 1.524,
      "velocity": 0.61,
      "hand": "left"
    },
    {
      "midi": 60,
      "time": 25.512,
      "duration": 1.41,
      "velocity": 0.57,
      "hand": "right"
    },
    {
      "midi": 64,
      "time": 25.769,
      "duration": 0.256,
      "velocity": 0.56,
      "hand": "right"
    },
    {
      "midi": 67,
      "time": 25.897,
      "duration": 0.256,
      "velocity": 0.6,
      "hand": "right"
    },
    {
      "midi": 72,
      "time": 26.153,
      "duration": 0.128,
      "velocity": 0.62,
      "hand": "right"
    },
    {
      "midi": 64,
      "time": 26.282,
      "duration": 0.256,
      "velocity": 0.5,
      "hand": "right"
    },
    {
      "midi": 67,
      "time": 26.538,
      "duration": 0.256,
      "velocity": 0.46,
      "hand": "right"
    },
    {
      "midi": 72,
      "time": 26.795,
      "duration": 0.256,
      "velocity": 0.46,
      "hand": "right"
    },
    {
      "midi": 57,
      "time": 26.923,
      "duration": 1.667,
      "velocity": 0.61,
      "hand": "left"
    },
    {
      "midi": 60,
      "time": 27.179,
      "duration": 1.41,
      "velocity": 0.57,
      "hand": "right"
    },
    {
      "midi": 64,
      "time": 27.307,
      "duration": 0.256,
      "velocity": 0.56,
      "hand": "right"
    },
    {
      "midi": 67,
      "time": 27.564,
      "duration": 0.256,
      "velocity": 0.6,
      "hand": "right"
    },
    {
      "midi": 72,
      "time": 27.692,
      "duration": 0.128,
      "velocity": 0.61,
      "hand": "right"
    },
    {
      "midi": 64,
      "time": 27.948,
      "duration": 0.256,
      "velocity": 0.5,
      "hand": "right"
    },
    {
      "midi": 67,
      "time": 28.077,
      "duration": 0.256,
      "velocity": 0.47,
      "hand": "right"
    },
    {
      "midi": 72,
      "time": 28.333,
      "duration": 0.256,
      "velocity": 0.47,
      "hand": "right"
    },
    {
      "midi": 50,
      "time": 28.589,
      "duration": 1.524,
      "velocity": 0.61,
      "hand": "left"
    },
    {
      "midi": 57,
      "time": 28.718,
      "duration": 1.41,
      "velocity": 0.57,
      "hand": "left"
    },
    {
      "midi": 62,
      "time": 28.974,
      "duration": 0.256,
      "velocity": 0.56,
      "hand": "right"
    },
    {
      "midi": 66,
      "time": 29.23,
      "duration": 0.256,
      "velocity": 0.6,
      "hand": "right"
    },
    {
      "midi": 72,
      "time": 29.359,
      "duration": 0.128,
      "velocity": 0.62,
      "hand": "right"
    },
    {
      "midi": 62,
      "time": 29.615,
      "duration": 0.256,
      "velocity": 0.5,
      "hand": "right"
    },
    {
      "midi": 66,
      "time": 29.743,
      "duration": 0.256,
      "velocity": 0.46,
      "hand": "right"
    },
    {
      "midi": 72,
      "time": 30,
      "duration": 0.256,
      "velocity": 0.46,
      "hand": "right"
    },
    {
      "midi": 50,
      "time": 30.128,
      "duration": 1.667,
      "velocity": 0.61,
      "hand": "left"
    },
    {
      "midi": 57,
      "time": 30.384,
      "duration": 1.41,
      "velocity": 0.57,
      "hand": "left"
    },
    {
      "midi": 62,
      "time": 30.641,
      "duration": 0.256,
      "velocity": 0.56,
      "hand": "right"
    },
    {
      "midi": 66,
      "time": 30.769,
      "duration": 0.256,
      "velocity": 0.6,
      "hand": "right"
    },
    {
      "midi": 72,
      "time": 31.025,
      "duration": 0.128,
      "velocity": 0.61,
      "hand": "right"
    },
    {
      "midi": 62,
      "time": 31.153,
      "duration": 0.256,
      "velocity": 0.5,
      "hand": "right"
    },
    {
      "midi": 66,
      "time": 31.41,
      "duration": 0.256,
      "velocity": 0.47,
      "hand": "right"
    },
    {
      "midi": 72,
      "time": 31.538,
      "duration": 0.256,
      "velocity": 0.47,
      "hand": "right"
    },
    {
      "midi": 55,
      "time": 31.795,
      "duration": 1.523,
      "velocity": 0.57,
      "hand": "left"
    },
    {
      "midi": 59,
      "time": 31.923,
      "duration": 1.41,
      "velocity": 0.54,
      "hand": "left"
    },
    {
      "midi": 62,
      "time": 32.179,
      "duration": 0.256,
      "velocity": 0.53,
      "hand": "right"
    },
    {
      "midi": 67,
      "time": 32.436,
      "duration": 0.256,
      "velocity": 0.56,
      "hand": "right"
    },
    {
      "midi": 71,
      "time": 32.564,
      "duration": 0.128,
      "velocity": 0.6,
      "hand": "right"
    },
    {
      "midi": 62,
      "time": 32.82,
      "duration": 0.256,
      "velocity": 0.46,
      "hand": "right"
    },
    {
      "midi": 67,
      "time": 32.948,
      "duration": 0.256,
      "velocity": 0.44,
      "hand": "right"
    },
    {
      "midi": 71,
      "time": 33.205,
      "duration": 0.256,
      "velocity": 0.44,
      "hand": "right"
    },
    {
      "midi": 55,
      "time": 33.333,
      "duration": 1.538,
      "velocity": 0.57,
      "hand": "left"
    },
    {
      "midi": 59,
      "time": 33.589,
      "duration": 1.41,
      "velocity": 0.54,
      "hand": "left"
    },
    {
      "midi": 62,
      "time": 33.718,
      "duration": 0.256,
      "velocity": 0.53,
      "hand": "right"
    },
    {
      "midi": 67,
      "time": 33.974,
      "duration": 0.256,
      "velocity": 0.56,
      "hand": "right"
    },
    {
      "midi": 71,
      "time": 34.102,
      "duration": 0.128,
      "velocity": 0.57,
      "hand": "right"
    },
    {
      "midi": 62,
      "time": 34.359,
      "duration": 0.256,
      "velocity": 0.46,
      "hand": "right"
    },
    {
      "midi": 67,
      "time": 34.487,
      "duration": 0.256,
      "velocity": 0.44,
      "hand": "right"
    },
    {
      "midi": 71,
      "time": 34.743,
      "duration": 0.256,
      "velocity": 0.44,
      "hand": "right"
    },
    {
      "midi": 55,
      "time": 35,
      "duration": 1.523,
      "velocity": 0.57,
      "hand": "left"
    },
    {
      "midi": 58,
      "time": 35.128,
      "duration": 1.41,
      "velocity": 0.54,
      "hand": "left"
    },
    {
      "midi": 64,
      "time": 35.384,
      "duration": 0.256,
      "velocity": 0.53,
      "hand": "right"
    },
    {
      "midi": 67,
      "time": 35.512,
      "duration": 0.256,
      "velocity": 0.56,
      "hand": "right"
    },
    {
      "midi": 73,
      "time": 35.769,
      "duration": 0.128,
      "velocity": 0.6,
      "hand": "right"
    },
    {
      "midi": 64,
      "time": 35.897,
      "duration": 0.256,
      "velocity": 0.46,
      "hand": "right"
    },
    {
      "midi": 67,
      "time": 36.153,
      "duration": 0.256,
      "velocity": 0.44,
      "hand": "right"
    },
    {
      "midi": 73,
      "time": 36.282,
      "duration": 0.256,
      "velocity": 0.44,
      "hand": "right"
    },
    {
      "midi": 55,
      "time": 36.538,
      "duration": 1.538,
      "velocity": 0.57,
      "hand": "left"
    },
    {
      "midi": 58,
      "time": 36.666,
      "duration": 1.41,
      "velocity": 0.54,
      "hand": "left"
    },
    {
      "midi": 64,
      "time": 36.923,
      "duration": 0.256,
      "velocity": 0.53,
      "hand": "right"
    },
    {
      "midi": 67,
      "time": 37.179,
      "duration": 0.256,
      "velocity": 0.56,
      "hand": "right"
    },
    {
      "midi": 73,
      "time": 37.307,
      "duration": 0.128,
      "velocity": 0.57,
      "hand": "right"
    },
    {
      "midi": 64,
      "time": 37.564,
      "duration": 0.256,
      "velocity": 0.46,
      "hand": "right"
    },
    {
      "midi": 67,
      "time": 37.692,
      "duration": 0.256,
      "velocity": 0.44,
      "hand": "right"
    },
    {
      "midi": 73,
      "time": 37.948,
      "duration": 0.256,
      "velocity": 0.44,
      "hand": "right"
    },
    {
      "midi": 53,
      "time": 38.077,
      "duration": 1.538,
      "velocity": 0.61,
      "hand": "left"
    },
    {
      "midi": 57,
      "time": 38.333,
      "duration": 1.41,
      "velocity": 0.57,
      "hand": "left"
    },
    {
      "midi": 62,
      "time": 38.589,
      "duration": 0.256,
      "velocity": 0.56,
      "hand": "right"
    },
    {
      "midi": 69,
      "time": 38.718,
      "duration": 0.256,
      "velocity": 0.6,
      "hand": "right"
    },
    {
      "midi": 74,
      "time": 38.974,
      "duration": 0.128,
      "velocity": 0.62,
      "hand": "right"
    },
    {
      "midi": 62,
      "time": 39.102,
      "duration": 0.256,
      "velocity": 0.5,
      "hand": "right"
    },
    {
      "midi": 69,
      "time": 39.359,
      "duration": 0.256,
      "velocity": 0.46,
      "hand": "right"
    },
    {
      "midi": 74,
      "time": 39.487,
      "duration": 0.256,
      "velocity": 0.46,
      "hand": "right"
    },
    {
      "midi": 53,
      "time": 39.743,
      "duration": 1.524,
      "velocity": 0.61,
      "hand": "left"
    },
    {
      "midi": 57,
      "time": 39.871,
      "duration": 1.41,
      "velocity": 0.57,
      "hand": "left"
    },
    {
      "midi": 62,
      "time": 40.128,
      "duration": 0.256,
      "velocity": 0.56,
      "hand": "right"
    },
    {
      "midi": 69,
      "time": 40.256,
      "duration": 0.256,
      "velocity": 0.6,
      "hand": "right"
    },
    {
      "midi": 74,
      "time": 40.512,
      "duration": 0.128,
      "velocity": 0.61,
      "hand": "right"
    },
    {
      "midi": 62,
      "time": 40.641,
      "duration": 0.256,
      "velocity": 0.5,
      "hand": "right"
    },
    {
      "midi": 69,
      "time": 40.897,
      "duration": 0.256,
      "velocity": 0.47,
      "hand": "right"
    },
    {
      "midi": 74,
      "time": 41.153,
      "duration": 0.256,
      "velocity": 0.47,
      "hand": "right"
    },
    {
      "midi": 53,
      "time": 41.282,
      "duration": 1.538,
      "velocity": 0.57,
      "hand": "left"
    },
    {
      "midi": 56,
      "time": 41.538,
      "duration": 1.41,
      "velocity": 0.54,
      "hand": "left"
    },
    {
      "midi": 62,
      "time": 41.666,
      "duration": 0.256,
      "velocity": 0.53,
      "hand": "right"
    },
    {
      "midi": 65,
      "time": 41.923,
      "duration": 0.256,
      "velocity": 0.56,
      "hand": "right"
    },
    {
      "midi": 71,
      "time": 42.051,
      "duration": 0.128,
      "velocity": 0.6,
      "hand": "right"
    },
    {
      "midi": 62,
      "time": 42.307,
      "duration": 0.256,
      "velocity": 0.46,
      "hand": "right"
    },
    {
      "midi": 65,
      "time": 42.436,
      "duration": 0.256,
      "velocity": 0.44,
      "hand": "right"
    },
    {
      "midi": 71,
      "time": 42.692,
      "duration": 0.256,
      "velocity": 0.44,
      "hand": "right"
    },
    {
      "midi": 53,
      "time": 42.948,
      "duration": 1.538,
      "velocity": 0.57,
      "hand": "left"
    },
    {
      "midi": 56,
      "time": 43.077,
      "duration": 1.41,
      "velocity": 0.54,
      "hand": "left"
    },
    {
      "midi": 62,
      "time": 43.333,
      "duration": 0.256,
      "velocity": 0.53,
      "hand": "right"
    },
    {
      "midi": 65,
      "time": 43.461,
      "duration": 0.256,
      "velocity": 0.56,
      "hand": "right"
    },
    {
      "midi": 71,
      "time": 43.718,
      "duration": 0.128,
      "velocity": 0.57,
      "hand": "right"
    },
    {
      "midi": 62,
      "time": 43.846,
      "duration": 0.256,
      "velocity": 0.46,
      "hand": "right"
    },
    {
      "midi": 65,
      "time": 44.102,
      "duration": 0.256,
      "velocity": 0.44,
      "hand": "right"
    },
    {
      "midi": 71,
      "time": 44.23,
      "duration": 0.256,
      "velocity": 0.44,
      "hand": "right"
    },
    {
      "midi": 52,
      "time": 44.487,
      "duration": 1.523,
      "velocity": 0.57,
      "hand": "left"
    },
    {
      "midi": 55,
      "time": 44.615,
      "duration": 1.41,
      "velocity": 0.54,
      "hand": "left"
    },
    {
      "midi": 60,
      "time": 44.871,
      "duration": 0.256,
      "velocity": 0.53,
      "hand": "right"
    },
    {
      "midi": 67,
      "time": 45.128,
      "duration": 0.256,
      "velocity": 0.56,
      "hand": "right"
    },
    {
      "midi": 72,
      "time": 45.256,
      "duration": 0.128,
      "velocity": 0.6,
      "hand": "right"
    },
    {
      "midi": 60,
      "time": 45.512,
      "duration": 0.256,
      "velocity": 0.46,
      "hand": "right"
    },
    {
      "midi": 67,
      "time": 45.641,
      "duration": 0.256,
      "velocity": 0.44,
      "hand": "right"
    },
    {
      "midi": 72,
      "time": 45.897,
      "duration": 0.256,
      "velocity": 0.44,
      "hand": "right"
    },
    {
      "midi": 52,
      "time": 46.025,
      "duration": 1.538,
      "velocity": 0.57,
      "hand": "left"
    },
    {
      "midi": 55,
      "time": 46.282,
      "duration": 1.41,
      "velocity": 0.54,
      "hand": "left"
    },
    {
      "midi": 60,
      "time": 46.41,
      "duration": 0.256,
      "velocity": 0.53,
      "hand": "right"
    },
    {
      "midi": 67,
      "time": 46.666,
      "duration": 0.256,
      "velocity": 0.56,
      "hand": "right"
    },
    {
      "midi": 72,
      "time": 46.795,
      "duration": 0.128,
      "velocity": 0.57,
      "hand": "right"
    },
    {
      "midi": 60,
      "time": 47.051,
      "duration": 0.256,
      "velocity": 0.46,
      "hand": "right"
    },
    {
      "midi": 67,
      "time": 47.179,
      "duration": 0.256,
      "velocity": 0.44,
      "hand": "right"
    },
    {
      "midi": 72,
      "time": 47.436,
      "duration": 0.256,
      "velocity": 0.44,
      "hand": "right"
    },
    {
      "midi": 52,
      "time": 47.692,
      "duration": 1.523,
      "velocity": 0.54,
      "hand": "left"
    },
    {
      "midi": 53,
      "time": 47.82,
      "duration": 1.41,
      "velocity": 0.5,
      "hand": "left"
    },
    {
      "midi": 57,
      "time": 48.077,
      "duration": 0.256,
      "velocity": 0.5,
      "hand": "left"
    },
    {
      "midi": 60,
      "time": 48.205,
      "duration": 0.256,
      "velocity": 0.53,
      "hand": "right"
    },
    {
      "midi": 65,
      "time": 48.461,
      "duration": 0.128,
      "velocity": 0.56,
      "hand": "right"
    },
    {
      "midi": 57,
      "time": 48.589,
      "duration": 0.256,
      "velocity": 0.44,
      "hand": "left"
    },
    {
      "midi": 60,
      "time": 48.846,
      "duration": 0.256,
      "velocity": 0.42,
      "hand": "right"
    },
    {
      "midi": 65,
      "time": 48.974,
      "duration": 0.256,
      "velocity": 0.42,
      "hand": "right"
    },
    {
      "midi": 52,
      "time": 49.23,
      "duration": 1.667,
      "velocity": 0.54,
      "hand": "left"
    },
    {
      "midi": 53,
      "time": 49.487,
      "duration": 1.41,
      "velocity": 0.5,
      "hand": "left"
    },
    {
      "midi": 57,
      "time": 49.615,
      "duration": 0.256,
      "velocity": 0.5,
      "hand": "left"
    },
    {
      "midi": 60,
      "time": 49.871,
      "duration": 0.256,
      "velocity": 0.53,
      "hand": "right"
    },
    {
      "midi": 65,
      "time": 50,
      "duration": 0.128,
      "velocity": 0.54,
      "hand": "right"
    },
    {
      "midi": 57,
      "time": 50.256,
      "duration": 0.256,
      "velocity": 0.44,
      "hand": "left"
    },
    {
      "midi": 60,
      "time": 50.384,
      "duration": 0.256,
      "velocity": 0.43,
      "hand": "right"
    },
    {
      "midi": 65,
      "time": 50.641,
      "duration": 0.256,
      "velocity": 0.43,
      "hand": "right"
    },
    {
      "midi": 50,
      "time": 50.897,
      "duration": 1.524,
      "velocity": 0.54,
      "hand": "left"
    },
    {
      "midi": 53,
      "time": 51.025,
      "duration": 1.41,
      "velocity": 0.5,
      "hand": "left"
    },
    {
      "midi": 57,
      "time": 51.282,
      "duration": 0.256,
      "velocity": 0.5,
      "hand": "left"
    },
    {
      "midi": 60,
      "time": 51.41,
      "duration": 0.256,
      "velocity": 0.53,
      "hand": "right"
    },
    {
      "midi": 65,
      "time": 51.666,
      "duration": 0.128,
      "velocity": 0.56,
      "hand": "right"
    },
    {
      "midi": 57,
      "time": 51.795,
      "duration": 0.256,
      "velocity": 0.44,
      "hand": "left"
    },
    {
      "midi": 60,
      "time": 52.051,
      "duration": 0.256,
      "velocity": 0.42,
      "hand": "right"
    },
    {
      "midi": 65,
      "time": 52.179,
      "duration": 0.256,
      "velocity": 0.42,
      "hand": "right"
    },
    {
      "midi": 50,
      "time": 52.436,
      "duration": 1.667,
      "velocity": 0.54,
      "hand": "left"
    },
    {
      "midi": 53,
      "time": 52.692,
      "duration": 1.41,
      "velocity": 0.5,
      "hand": "left"
    },
    {
      "midi": 57,
      "time": 52.82,
      "duration": 0.256,
      "velocity": 0.5,
      "hand": "left"
    },
    {
      "midi": 60,
      "time": 53.077,
      "duration": 0.256,
      "velocity": 0.53,
      "hand": "right"
    },
    {
      "midi": 65,
      "time": 53.205,
      "duration": 0.128,
      "velocity": 0.54,
      "hand": "right"
    },
    {
      "midi": 57,
      "time": 53.461,
      "duration": 0.256,
      "velocity": 0.44,
      "hand": "left"
    },
    {
      "midi": 60,
      "time": 53.589,
      "duration": 0.256,
      "velocity": 0.43,
      "hand": "right"
    },
    {
      "midi": 65,
      "time": 53.846,
      "duration": 0.256,
      "velocity": 0.43,
      "hand": "right"
    },
    {
      "midi": 43,
      "time": 54.102,
      "duration": 1.524,
      "velocity": 0.54,
      "hand": "left"
    },
    {
      "midi": 50,
      "time": 54.23,
      "duration": 1.41,
      "velocity": 0.5,
      "hand": "left"
    },
    {
      "midi": 55,
      "time": 54.487,
      "duration": 0.256,
      "velocity": 0.5,
      "hand": "left"
    },
    {
      "midi": 59,
      "time": 54.615,
      "duration": 0.256,
      "velocity": 0.53,
      "hand": "left"
    },
    {
      "midi": 65,
      "time": 54.871,
      "duration": 0.128,
      "velocity": 0.56,
      "hand": "right"
    },
    {
      "midi": 55,
      "time": 55.128,
      "duration": 0.256,
      "velocity": 0.44,
      "hand": "left"
    },
    {
      "midi": 59,
      "time": 55.256,
      "duration": 0.256,
      "velocity": 0.42,
      "hand": "left"
    },
    {
      "midi": 65,
      "time": 55.512,
      "duration": 0.256,
      "velocity": 0.42,
      "hand": "right"
    },
    {
      "midi": 43,
      "time": 55.641,
      "duration": 1.667,
      "velocity": 0.54,
      "hand": "left"
    },
    {
      "midi": 50,
      "time": 55.897,
      "duration": 1.41,
      "velocity": 0.5,
      "hand": "left"
    },
    {
      "midi": 55,
      "time": 56.025,
      "duration": 0.256,
      "velocity": 0.5,
      "hand": "left"
    },
    {
      "midi": 59,
      "time": 56.282,
      "duration": 0.256,
      "velocity": 0.53,
      "hand": "left"
    },
    {
      "midi": 65,
      "time": 56.538,
      "duration": 0.128,
      "velocity": 0.54,
      "hand": "right"
    },
    {
      "midi": 55,
      "time": 56.666,
      "duration": 0.256,
      "velocity": 0.44,
      "hand": "left"
    },
    {
      "midi": 59,
      "time": 56.923,
      "duration": 0.256,
      "velocity": 0.43,
      "hand": "left"
    },
    {
      "midi": 65,
      "time": 57.051,
      "duration": 0.256,
      "velocity": 0.43,
      "hand": "right"
    },
    {
      "midi": 48,
      "time": 57.307,
      "duration": 1.652,
      "velocity": 0.54,
      "hand": "left"
    },
    {
      "midi": 52,
      "time": 57.436,
      "duration": 1.41,
      "velocity": 0.5,
      "hand": "left"
    },
    {
      "midi": 55,
      "time": 57.692,
      "duration": 0.256,
      "velocity": 0.5,
      "hand": "left"
    },
    {
      "midi": 60,
      "time": 57.948,
      "duration": 0.256,
      "velocity": 0.53,
      "hand": "right"
    },
    {
      "midi": 64,
      "time": 58.077,
      "duration": 0.128,
      "velocity": 0.56,
      "hand": "right"
    },
    {
      "midi": 55,
      "time": 58.333,
      "duration": 0.256,
      "velocity": 0.44,
      "hand": "left"
    },
    {
      "midi": 60,
      "time": 58.461,
      "duration": 0.256,
      "velocity": 0.42,
      "hand": "right"
    },
    {
      "midi": 64,
      "time": 58.718,
      "duration": 0.256,
      "velocity": 0.42,
      "hand": "right"
    },
    {
      "midi": 48,
      "time": 58.974,
      "duration": 1.523,
      "velocity": 0.54,
      "hand": "left"
    },
    {
      "midi": 52,
      "time": 59.102,
      "duration": 1.41,
      "velocity": 0.5,
      "hand": "left"
    },
    {
      "midi": 55,
      "time": 59.359,
      "duration": 0.256,
      "velocity": 0.5,
      "hand": "left"
    },
    {
      "midi": 60,
      "time": 59.487,
      "duration": 0.256,
      "velocity": 0.53,
      "hand": "right"
    },
    {
      "midi": 64,
      "time": 59.743,
      "duration": 0.128,
      "velocity": 0.54,
      "hand": "right"
    },
    {
      "midi": 55,
      "time": 59.871,
      "duration": 0.256,
      "velocity": 0.44,
      "hand": "left"
    },
    {
      "midi": 60,
      "time": 60.128,
      "duration": 0.256,
      "velocity": 0.43,
      "hand": "right"
    },
    {
      "midi": 64,
      "time": 60.384,
      "duration": 0.256,
      "velocity": 0.43,
      "hand": "right"
    },
    {
      "midi": 48,
      "time": 60.512,
      "duration": 1.538,
      "velocity": 0.5,
      "hand": "left"
    },
    {
      "midi": 55,
      "time": 60.769,
      "duration": 1.41,
      "velocity": 0.47,
      "hand": "left"
    },
    {
      "midi": 58,
      "time": 60.897,
      "duration": 0.256,
      "velocity": 0.46,
      "hand": "left"
    },
    {
      "midi": 60,
      "time": 61.153,
      "duration": 0.256,
      "velocity": 0.5,
      "hand": "right"
    },
    {
      "midi": 64,
      "time": 61.282,
      "duration": 0.128,
      "velocity": 0.53,
      "hand": "right"
    },
    {
      "midi": 58,
      "time": 61.538,
      "duration": 0.256,
      "velocity": 0.4,
      "hand": "left"
    },
    {
      "midi": 60,
      "time": 61.666,
      "duration": 0.256,
      "velocity": 0.39,
      "hand": "right"
    },
    {
      "midi": 64,
      "time": 61.923,
      "duration": 0.256,
      "velocity": 0.39,
      "hand": "right"
    },
    {
      "midi": 48,
      "time": 62.179,
      "duration": 1.667,
      "velocity": 0.51,
      "hand": "left"
    },
    {
      "midi": 55,
      "time": 62.307,
      "duration": 1.41,
      "velocity": 0.47,
      "hand": "left"
    },
    {
      "midi": 58,
      "time": 62.564,
      "duration": 0.256,
      "velocity": 0.46,
      "hand": "left"
    },
    {
      "midi": 60,
      "time": 62.692,
      "duration": 0.256,
      "velocity": 0.5,
      "hand": "right"
    },
    {
      "midi": 64,
      "time": 62.948,
      "duration": 0.128,
      "velocity": 0.51,
      "hand": "right"
    },
    {
      "midi": 58,
      "time": 63.077,
      "duration": 0.256,
      "velocity": 0.42,
      "hand": "left"
    },
    {
      "midi": 60,
      "time": 63.333,
      "duration": 0.256,
      "velocity": 0.39,
      "hand": "right"
    },
    {
      "midi": 64,
      "time": 63.461,
      "duration": 0.256,
      "velocity": 0.39,
      "hand": "right"
    },
    {
      "midi": 41,
      "time": 63.718,
      "duration": 1.538,
      "velocity": 0.5,
      "hand": "left"
    },
    {
      "midi": 53,
      "time": 63.974,
      "duration": 1.41,
      "velocity": 0.47,
      "hand": "left"
    },
    {
      "midi": 57,
      "time": 64.102,
      "duration": 0.256,
      "velocity": 0.46,
      "hand": "left"
    },
    {
      "midi": 60,
      "time": 64.359,
      "duration": 0.256,
      "velocity": 0.5,
      "hand": "right"
    },
    {
      "midi": 64,
      "time": 64.487,
      "duration": 0.128,
      "velocity": 0.53,
      "hand": "right"
    },
    {
      "midi": 57,
      "time": 64.743,
      "duration": 0.256,
      "velocity": 0.4,
      "hand": "left"
    },
    {
      "midi": 60,
      "time": 64.871,
      "duration": 0.256,
      "velocity": 0.39,
      "hand": "right"
    },
    {
      "midi": 64,
      "time": 65.128,
      "duration": 0.256,
      "velocity": 0.39,
      "hand": "right"
    },
    {
      "midi": 41,
      "time": 65.384,
      "duration": 1.667,
      "velocity": 0.51,
      "hand": "left"
    },
    {
      "midi": 53,
      "time": 65.512,
      "duration": 1.41,
      "velocity": 0.47,
      "hand": "left"
    },
    {
      "midi": 57,
      "time": 65.769,
      "duration": 0.256,
      "velocity": 0.46,
      "hand": "left"
    },
    {
      "midi": 60,
      "time": 65.897,
      "duration": 0.256,
      "velocity": 0.5,
      "hand": "right"
    },
    {
      "midi": 64,
      "time": 66.153,
      "duration": 0.128,
      "velocity": 0.51,
      "hand": "right"
    },
    {
      "midi": 57,
      "time": 66.282,
      "duration": 0.256,
      "velocity": 0.42,
      "hand": "left"
    },
    {
      "midi": 60,
      "time": 66.538,
      "duration": 0.256,
      "velocity": 0.39,
      "hand": "right"
    },
    {
      "midi": 64,
      "time": 66.666,
      "duration": 0.256,
      "velocity": 0.39,
      "hand": "right"
    },
    {
      "midi": 42,
      "time": 66.923,
      "duration": 1.651,
      "velocity": 0.54,
      "hand": "left"
    },
    {
      "midi": 48,
      "time": 67.179,
      "duration": 1.41,
      "velocity": 0.5,
      "hand": "left"
    },
    {
      "midi": 57,
      "time": 67.307,
      "duration": 0.256,
      "velocity": 0.5,
      "hand": "left"
    },
    {
      "midi": 60,
      "time": 67.564,
      "duration": 0.256,
      "velocity": 0.53,
      "hand": "right"
    },
    {
      "midi": 63,
      "time": 67.692,
      "duration": 0.128,
      "velocity": 0.56,
      "hand": "right"
    },
    {
      "midi": 57,
      "time": 67.948,
      "duration": 0.256,
      "velocity": 0.44,
      "hand": "left"
    },
    {
      "midi": 60,
      "time": 68.205,
      "duration": 0.256,
      "velocity": 0.42,
      "hand": "right"
    },
    {
      "midi": 63,
      "time": 68.333,
      "duration": 0.256,
      "velocity": 0.42,
      "hand": "right"
    },
    {
      "midi": 42,
      "time": 68.589,
      "duration": 1.667,
      "velocity": 0.54,
      "hand": "left"
    },
    {
      "midi": 48,
      "time": 68.718,
      "duration": 1.41,
      "velocity": 0.5,
      "hand": "left"
    },
    {
      "midi": 57,
      "time": 68.974,
      "duration": 0.256,
      "velocity": 0.5,
      "hand": "left"
    },
    {
      "midi": 60,
      "time": 69.102,
      "duration": 0.256,
      "velocity": 0.53,
      "hand": "right"
    },
    {
      "midi": 63,
      "time": 69.359,
      "duration": 0.128,
      "velocity": 0.54,
      "hand": "right"
    },
    {
      "midi": 57,
      "time": 69.615,
      "duration": 0.256,
      "velocity": 0.44,
      "hand": "left"
    },
    {
      "midi": 60,
      "time": 69.743,
      "duration": 0.256,
      "velocity": 0.43,
      "hand": "right"
    },
    {
      "midi": 63,
      "time": 70,
      "duration": 0.256,
      "velocity": 0.43,
      "hand": "right"
    },
    {
      "midi": 44,
      "time": 70.256,
      "duration": 1.524,
      "velocity": 0.5,
      "hand": "left"
    },
    {
      "midi": 53,
      "time": 70.384,
      "duration": 1.41,
      "velocity": 0.47,
      "hand": "left"
    },
    {
      "midi": 59,
      "time": 70.641,
      "duration": 0.256,
      "velocity": 0.46,
      "hand": "left"
    },
    {
      "midi": 60,
      "time": 70.769,
      "duration": 0.256,
      "velocity": 0.5,
      "hand": "right"
    },
    {
      "midi": 62,
      "time": 71.025,
      "duration": 0.128,
      "velocity": 0.53,
      "hand": "right"
    },
    {
      "midi": 59,
      "time": 71.153,
      "duration": 0.256,
      "velocity": 0.4,
      "hand": "left"
    },
    {
      "midi": 60,
      "time": 71.41,
      "duration": 0.256,
      "velocity": 0.39,
      "hand": "right"
    },
    {
      "midi": 62,
      "time": 71.538,
      "duration": 0.256,
      "velocity": 0.39,
      "hand": "right"
    },
    {
      "midi": 44,
      "time": 71.795,
      "duration": 1.538,
      "velocity": 0.51,
      "hand": "left"
    },
    {
      "midi": 53,
      "time": 71.923,
      "duration": 1.41,
      "velocity": 0.47,
      "hand": "left"
    },
    {
      "midi": 59,
      "time": 72.179,
      "duration": 0.256,
      "velocity": 0.46,
      "hand": "left"
    },
    {
      "midi": 60,
      "time": 72.307,
      "duration": 0.256,
      "velocity": 0.5,
      "hand": "right"
    },
    {
      "midi": 62,
      "time": 72.564,
      "duration": 0.128,
      "velocity": 0.51,
      "hand": "right"
    },
    {
      "midi": 59,
      "time": 72.82,
      "duration": 0.256,
      "velocity": 0.42,
      "hand": "left"
    },
    {
      "midi": 60,
      "time": 72.948,
      "duration": 0.256,
      "velocity": 0.39,
      "hand": "right"
    },
    {
      "midi": 62,
      "time": 73.205,
      "duration": 0.256,
      "velocity": 0.39,
      "hand": "right"
    },
    {
      "midi": 43,
      "time": 73.333,
      "duration": 1.538,
      "velocity": 0.54,
      "hand": "left"
    },
    {
      "midi": 53,
      "time": 73.589,
      "duration": 1.41,
      "velocity": 0.5,
      "hand": "left"
    },
    {
      "midi": 55,
      "time": 73.718,
      "duration": 0.256,
      "velocity": 0.5,
      "hand": "left"
    },
    {
      "midi": 59,
      "time": 73.974,
      "duration": 0.256,
      "velocity": 0.53,
      "hand": "left"
    },
    {
      "midi": 62,
      "time": 74.102,
      "duration": 0.128,
      "velocity": 0.56,
      "hand": "right"
    },
    {
      "midi": 55,
      "time": 74.359,
      "duration": 0.256,
      "velocity": 0.44,
      "hand": "left"
    },
    {
      "midi": 59,
      "time": 74.615,
      "duration": 0.256,
      "velocity": 0.42,
      "hand": "left"
    },
    {
      "midi": 62,
      "time": 74.743,
      "duration": 0.256,
      "velocity": 0.42,
      "hand": "right"
    },
    {
      "midi": 43,
      "time": 75,
      "duration": 1.523,
      "velocity": 0.54,
      "hand": "left"
    },
    {
      "midi": 53,
      "time": 75.128,
      "duration": 1.41,
      "velocity": 0.5,
      "hand": "left"
    },
    {
      "midi": 55,
      "time": 75.384,
      "duration": 0.256,
      "velocity": 0.5,
      "hand": "left"
    },
    {
      "midi": 59,
      "time": 75.512,
      "duration": 0.256,
      "velocity": 0.53,
      "hand": "left"
    },
    {
      "midi": 62,
      "time": 75.769,
      "duration": 0.128,
      "velocity": 0.54,
      "hand": "right"
    },
    {
      "midi": 55,
      "time": 75.897,
      "duration": 0.256,
      "velocity": 0.44,
      "hand": "left"
    },
    {
      "midi": 59,
      "time": 76.153,
      "duration": 0.256,
      "velocity": 0.43,
      "hand": "left"
    },
    {
      "midi": 62,
      "time": 76.41,
      "duration": 0.256,
      "velocity": 0.43,
      "hand": "right"
    },
    {
      "midi": 43,
      "time": 76.538,
      "duration": 1.538,
      "velocity": 0.54,
      "hand": "left"
    },
    {
      "midi": 52,
      "time": 76.795,
      "duration": 1.41,
      "velocity": 0.5,
      "hand": "left"
    },
    {
      "midi": 55,
      "time": 76.923,
      "duration": 0.256,
      "velocity": 0.5,
      "hand": "left"
    },
    {
      "midi": 60,
      "time": 77.179,
      "duration": 0.256,
      "velocity": 0.53,
      "hand": "right"
    },
    {
      "midi": 64,
      "time": 77.307,
      "duration": 0.128,
      "velocity": 0.56,
      "hand": "right"
    },
    {
      "midi": 55,
      "time": 77.564,
      "duration": 0.256,
      "velocity": 0.44,
      "hand": "left"
    },
    {
      "midi": 60,
      "time": 77.82,
      "duration": 0.256,
      "velocity": 0.42,
      "hand": "right"
    },
    {
      "midi": 64,
      "time": 77.948,
      "duration": 0.256,
      "velocity": 0.42,
      "hand": "right"
    },
    {
      "midi": 43,
      "time": 78.205,
      "duration": 1.523,
      "velocity": 0.54,
      "hand": "left"
    },
    {
      "midi": 52,
      "time": 78.333,
      "duration": 1.41,
      "velocity": 0.5,
      "hand": "left"
    },
    {
      "midi": 55,
      "time": 78.589,
      "duration": 0.256,
      "velocity": 0.5,
      "hand": "left"
    },
    {
      "midi": 60,
      "time": 78.718,
      "duration": 0.256,
      "velocity": 0.53,
      "hand": "right"
    },
    {
      "midi": 64,
      "time": 78.974,
      "duration": 0.128,
      "velocity": 0.54,
      "hand": "right"
    },
    {
      "midi": 55,
      "time": 79.102,
      "duration": 0.256,
      "velocity": 0.44,
      "hand": "left"
    },
    {
      "midi": 60,
      "time": 79.359,
      "duration": 0.256,
      "velocity": 0.43,
      "hand": "right"
    },
    {
      "midi": 64,
      "time": 79.487,
      "duration": 0.256,
      "velocity": 0.43,
      "hand": "right"
    },
    {
      "midi": 43,
      "time": 79.743,
      "duration": 1.524,
      "velocity": 0.57,
      "hand": "left"
    },
    {
      "midi": 50,
      "time": 80,
      "duration": 1.41,
      "velocity": 0.54,
      "hand": "left"
    },
    {
      "midi": 55,
      "time": 80.128,
      "duration": 0.256,
      "velocity": 0.53,
      "hand": "left"
    },
    {
      "midi": 60,
      "time": 80.384,
      "duration": 0.256,
      "velocity": 0.56,
      "hand": "right"
    },
    {
      "midi": 65,
      "time": 80.512,
      "duration": 0.128,
      "velocity": 0.6,
      "hand": "right"
    },
    {
      "midi": 55,
      "time": 80.769,
      "duration": 0.256,
      "velocity": 0.46,
      "hand": "left"
    },
    {
      "midi": 60,
      "time": 80.897,
      "duration": 0.256,
      "velocity": 0.44,
      "hand": "right"
    },
    {
      "midi": 65,
      "time": 81.153,
      "duration": 0.256,
      "velocity": 0.44,
      "hand": "right"
    },
    {
      "midi": 43,
      "time": 81.282,
      "duration": 1.538,
      "velocity": 0.57,
      "hand": "left"
    },
    {
      "midi": 50,
      "time": 81.538,
      "duration": 1.41,
      "velocity": 0.54,
      "hand": "left"
    },
    {
      "midi": 55,
      "time": 81.666,
      "duration": 0.256,
      "velocity": 0.53,
      "hand": "left"
    },
    {
      "midi": 60,
      "time": 81.923,
      "duration": 0.256,
      "velocity": 0.56,
      "hand": "right"
    },
    {
      "midi": 65,
      "time": 82.051,
      "duration": 0.128,
      "velocity": 0.57,
      "hand": "right"
    },
    {
      "midi": 55,
      "time": 82.307,
      "duration": 0.256,
      "velocity": 0.46,
      "hand": "left"
    },
    {
      "midi": 60,
      "time": 82.436,
      "duration": 0.256,
      "velocity": 0.44,
      "hand": "right"
    },
    {
      "midi": 65,
      "time": 82.692,
      "duration": 0.256,
      "velocity": 0.44,
      "hand": "right"
    },
    {
      "midi": 43,
      "time": 82.948,
      "duration": 1.524,
      "velocity": 0.57,
      "hand": "left"
    },
    {
      "midi": 50,
      "time": 83.077,
      "duration": 1.41,
      "velocity": 0.54,
      "hand": "left"
    },
    {
      "midi": 55,
      "time": 83.333,
      "duration": 0.256,
      "velocity": 0.53,
      "hand": "left"
    },
    {
      "midi": 59,
      "time": 83.461,
      "duration": 0.256,
      "velocity": 0.56,
      "hand": "left"
    },
    {
      "midi": 65,
      "time": 83.718,
      "duration": 0.128,
      "velocity": 0.6,
      "hand": "right"
    },
    {
      "midi": 55,
      "time": 83.846,
      "duration": 0.256,
      "velocity": 0.46,
      "hand": "left"
    },
    {
      "midi": 59,
      "time": 84.102,
      "duration": 0.256,
      "velocity": 0.44,
      "hand": "left"
    },
    {
      "midi": 65,
      "time": 84.23,
      "duration": 0.256,
      "velocity": 0.44,
      "hand": "right"
    },
    {
      "midi": 43,
      "time": 84.487,
      "duration": 1.523,
      "velocity": 0.57,
      "hand": "left"
    },
    {
      "midi": 50,
      "time": 84.615,
      "duration": 1.41,
      "velocity": 0.54,
      "hand": "left"
    },
    {
      "midi": 55,
      "time": 84.871,
      "duration": 0.256,
      "velocity": 0.53,
      "hand": "left"
    },
    {
      "midi": 59,
      "time": 85.128,
      "duration": 0.256,
      "velocity": 0.56,
      "hand": "left"
    },
    {
      "midi": 65,
      "time": 85.256,
      "duration": 0.128,
      "velocity": 0.57,
      "hand": "right"
    },
    {
      "midi": 55,
      "time": 85.512,
      "duration": 0.256,
      "velocity": 0.46,
      "hand": "left"
    },
    {
      "midi": 59,
      "time": 85.641,
      "duration": 0.256,
      "velocity": 0.44,
      "hand": "left"
    },
    {
      "midi": 65,
      "time": 85.897,
      "duration": 0.256,
      "velocity": 0.44,
      "hand": "right"
    },
    {
      "midi": 43,
      "time": 86.025,
      "duration": 1.652,
      "velocity": 0.61,
      "hand": "left"
    },
    {
      "midi": 51,
      "time": 86.282,
      "duration": 1.41,
      "velocity": 0.57,
      "hand": "left"
    },
    {
      "midi": 57,
      "time": 86.41,
      "duration": 0.256,
      "velocity": 0.56,
      "hand": "left"
    },
    {
      "midi": 60,
      "time": 86.666,
      "duration": 0.256,
      "velocity": 0.6,
      "hand": "right"
    },
    {
      "midi": 66,
      "time": 86.795,
      "duration": 0.128,
      "velocity": 0.62,
      "hand": "right"
    },
    {
      "midi": 57,
      "time": 87.051,
      "duration": 0.256,
      "velocity": 0.5,
      "hand": "left"
    },
    {
      "midi": 60,
      "time": 87.307,
      "duration": 0.256,
      "velocity": 0.46,
      "hand": "right"
    },
    {
      "midi": 66,
      "time": 87.436,
      "duration": 0.256,
      "velocity": 0.46,
      "hand": "right"
    },
    {
      "midi": 43,
      "time": 87.692,
      "duration": 1.523,
      "velocity": 0.61,
      "hand": "left"
    },
    {
      "midi": 51,
      "time": 87.82,
      "duration": 1.41,
      "velocity": 0.57,
      "hand": "left"
    },
    {
      "midi": 57,
      "time": 88.077,
      "duration": 0.256,
      "velocity": 0.56,
      "hand": "left"
    },
    {
      "midi": 60,
      "time": 88.205,
      "duration": 0.256,
      "velocity": 0.6,
      "hand": "right"
    },
    {
      "midi": 66,
      "time": 88.461,
      "duration": 0.128,
      "velocity": 0.61,
      "hand": "right"
    },
    {
      "midi": 57,
      "time": 88.589,
      "duration": 0.256,
      "velocity": 0.5,
      "hand": "left"
    },
    {
      "midi": 60,
      "time": 88.846,
      "duration": 0.256,
      "velocity": 0.47,
      "hand": "right"
    },
    {
      "midi": 66,
      "time": 89.102,
      "duration": 0.256,
      "velocity": 0.47,
      "hand": "right"
    },
    {
      "midi": 43,
      "time": 89.23,
      "duration": 1.652,
      "velocity": 0.65,
      "hand": "left"
    },
    {
      "midi": 52,
      "time": 89.487,
      "duration": 1.41,
      "velocity": 0.6,
      "hand": "left"
    },
    {
      "midi": 55,
      "time": 89.743,
      "duration": 0.256,
      "velocity": 0.57,
      "hand": "left"
    },
    {
      "midi": 60,
      "time": 89.871,
      "duration": 0.256,
      "velocity": 0.62,
      "hand": "right"
    },
    {
      "midi": 67,
      "time": 90.128,
      "duration": 0.128,
      "velocity": 0.65,
      "hand": "right"
    },
    {
      "midi": 55,
      "time": 90.384,
      "duration": 0.256,
      "velocity": 0.5,
      "hand": "left"
    },
    {
      "midi": 60,
      "time": 90.512,
      "duration": 0.256,
      "velocity": 0.5,
      "hand": "right"
    },
    {
      "midi": 67,
      "time": 90.769,
      "duration": 0.256,
      "velocity": 0.5,
      "hand": "right"
    },
    {
      "midi": 43,
      "time": 90.897,
      "duration": 1.652,
      "velocity": 0.65,
      "hand": "left"
    },
    {
      "midi": 52,
      "time": 91.153,
      "duration": 1.41,
      "velocity": 0.6,
      "hand": "left"
    },
    {
      "midi": 55,
      "time": 91.282,
      "duration": 0.256,
      "velocity": 0.57,
      "hand": "left"
    },
    {
      "midi": 60,
      "time": 91.538,
      "duration": 0.256,
      "velocity": 0.61,
      "hand": "right"
    },
    {
      "midi": 67,
      "time": 91.795,
      "duration": 0.128,
      "velocity": 0.65,
      "hand": "right"
    },
    {
      "midi": 55,
      "time": 91.923,
      "duration": 0.256,
      "velocity": 0.51,
      "hand": "left"
    },
    {
      "midi": 60,
      "time": 92.179,
      "duration": 0.256,
      "velocity": 0.5,
      "hand": "right"
    },
    {
      "midi": 67,
      "time": 92.307,
      "duration": 0.256,
      "velocity": 0.5,
      "hand": "right"
    },
    {
      "midi": 43,
      "time": 92.564,
      "duration": 1.523,
      "velocity": 0.54,
      "hand": "left"
    },
    {
      "midi": 50,
      "time": 92.82,
      "duration": 1.41,
      "velocity": 0.5,
      "hand": "left"
    },
    {
      "midi": 55,
      "time": 92.948,
      "duration": 0.256,
      "velocity": 0.5,
      "hand": "left"
    },
    {
      "midi": 60,
      "time": 93.205,
      "duration": 0.256,
      "velocity": 0.53,
      "hand": "right"
    },
    {
      "midi": 65,
      "time": 93.333,
      "duration": 0.128,
      "velocity": 0.56,
      "hand": "right"
    },
    {
      "midi": 55,
      "time": 93.589,
      "duration": 0.256,
      "velocity": 0.44,
      "hand": "left"
    },
    {
      "midi": 60,
      "time": 93.718,
      "duration": 0.256,
      "velocity": 0.42,
      "hand": "right"
    },
    {
      "midi": 65,
      "time": 93.974,
      "duration": 0.256,
      "velocity": 0.42,
      "hand": "right"
    },
    {
      "midi": 43,
      "time": 94.102,
      "duration": 1.538,
      "velocity": 0.54,
      "hand": "left"
    },
    {
      "midi": 50,
      "time": 94.359,
      "duration": 1.41,
      "velocity": 0.5,
      "hand": "left"
    },
    {
      "midi": 55,
      "time": 94.615,
      "duration": 0.256,
      "velocity": 0.5,
      "hand": "left"
    },
    {
      "midi": 60,
      "time": 94.743,
      "duration": 0.256,
      "velocity": 0.53,
      "hand": "right"
    },
    {
      "midi": 65,
      "time": 95,
      "duration": 0.128,
      "velocity": 0.54,
      "hand": "right"
    },
    {
      "midi": 55,
      "time": 95.128,
      "duration": 0.256,
      "velocity": 0.44,
      "hand": "left"
    },
    {
      "midi": 60,
      "time": 95.384,
      "duration": 0.256,
      "velocity": 0.43,
      "hand": "right"
    },
    {
      "midi": 65,
      "time": 95.512,
      "duration": 0.256,
      "velocity": 0.43,
      "hand": "right"
    },
    {
      "midi": 43,
      "time": 95.769,
      "duration": 1.523,
      "velocity": 0.54,
      "hand": "left"
    },
    {
      "midi": 50,
      "time": 95.897,
      "duration": 1.41,
      "velocity": 0.5,
      "hand": "left"
    },
    {
      "midi": 55,
      "time": 96.153,
      "duration": 0.256,
      "velocity": 0.5,
      "hand": "left"
    },
    {
      "midi": 59,
      "time": 96.41,
      "duration": 0.256,
      "velocity": 0.53,
      "hand": "left"
    },
    {
      "midi": 65,
      "time": 96.538,
      "duration": 0.128,
      "velocity": 0.56,
      "hand": "right"
    },
    {
      "midi": 55,
      "time": 96.795,
      "duration": 0.256,
      "velocity": 0.44,
      "hand": "left"
    },
    {
      "midi": 59,
      "time": 96.923,
      "duration": 0.256,
      "velocity": 0.42,
      "hand": "left"
    },
    {
      "midi": 65,
      "time": 97.179,
      "duration": 0.256,
      "velocity": 0.42,
      "hand": "right"
    },
    {
      "midi": 43,
      "time": 97.307,
      "duration": 1.667,
      "velocity": 0.54,
      "hand": "left"
    },
    {
      "midi": 50,
      "time": 97.564,
      "duration": 1.41,
      "velocity": 0.5,
      "hand": "left"
    },
    {
      "midi": 55,
      "time": 97.82,
      "duration": 0.256,
      "velocity": 0.5,
      "hand": "left"
    },
    {
      "midi": 59,
      "time": 97.948,
      "duration": 0.256,
      "velocity": 0.53,
      "hand": "left"
    },
    {
      "midi": 65,
      "time": 98.205,
      "duration": 0.128,
      "velocity": 0.54,
      "hand": "right"
    },
    {
      "midi": 55,
      "time": 98.333,
      "duration": 0.256,
      "velocity": 0.44,
      "hand": "left"
    },
    {
      "midi": 59,
      "time": 98.589,
      "duration": 0.256,
      "velocity": 0.43,
      "hand": "left"
    },
    {
      "midi": 65,
      "time": 98.718,
      "duration": 0.256,
      "velocity": 0.43,
      "hand": "right"
    },
    {
      "midi": 36,
      "time": 98.974,
      "duration": 1.652,
      "velocity": 0.57,
      "hand": "left"
    },
    {
      "midi": 48,
      "time": 99.23,
      "duration": 1.41,
      "velocity": 0.54,
      "hand": "left"
    },
    {
      "midi": 55,
      "time": 99.359,
      "duration": 0.256,
      "velocity": 0.53,
      "hand": "left"
    },
    {
      "midi": 58,
      "time": 99.615,
      "duration": 0.256,
      "velocity": 0.56,
      "hand": "left"
    },
    {
      "midi": 64,
      "time": 99.743,
      "duration": 0.128,
      "velocity": 0.6,
      "hand": "right"
    },
    {
      "midi": 55,
      "time": 100,
      "duration": 0.256,
      "velocity": 0.46,
      "hand": "left"
    },
    {
      "midi": 58,
      "time": 100.256,
      "duration": 0.256,
      "velocity": 0.44,
      "hand": "left"
    },
    {
      "midi": 64,
      "time": 100.384,
      "duration": 0.256,
      "velocity": 0.44,
      "hand": "right"
    },
    {
      "midi": 36,
      "time": 100.641,
      "duration": 1.523,
      "velocity": 0.57,
      "hand": "left"
    },
    {
      "midi": 48,
      "time": 100.769,
      "duration": 1.41,
      "velocity": 0.54,
      "hand": "left"
    },
    {
      "midi": 55,
      "time": 101.025,
      "duration": 0.256,
      "velocity": 0.53,
      "hand": "left"
    },
    {
      "midi": 58,
      "time": 101.282,
      "duration": 0.256,
      "velocity": 0.56,
      "hand": "left"
    },
    {
      "midi": 64,
      "time": 101.41,
      "duration": 0.128,
      "velocity": 0.57,
      "hand": "right"
    },
    {
      "midi": 55,
      "time": 101.666,
      "duration": 0.256,
      "velocity": 0.46,
      "hand": "left"
    },
    {
      "midi": 58,
      "time": 101.795,
      "duration": 0.256,
      "velocity": 0.44,
      "hand": "left"
    },
    {
      "midi": 64,
      "time": 102.051,
      "duration": 0.256,
      "velocity": 0.44,
      "hand": "right"
    },
    {
      "midi": 36,
      "time": 102.179,
      "duration": 3.318,
      "velocity": 0.54,
      "hand": "left"
    },
    {
      "midi": 48,
      "time": 102.436,
      "duration": 3.077,
      "velocity": 0.5,
      "hand": "left"
    },
    {
      "midi": 53,
      "time": 102.692,
      "duration": 0.256,
      "velocity": 0.5,
      "hand": "left"
    },
    {
      "midi": 57,
      "time": 102.82,
      "duration": 0.256,
      "velocity": 0.53,
      "hand": "left"
    },
    {
      "midi": 60,
      "time": 103.077,
      "duration": 0.256,
      "velocity": 0.54,
      "hand": "right"
    },
    {
      "midi": 65,
      "time": 103.205,
      "duration": 0.256,
      "velocity": 0.53,
      "hand": "right"
    },
    {
      "midi": 60,
      "time": 103.461,
      "duration": 0.256,
      "velocity": 0.53,
      "hand": "right"
    },
    {
      "midi": 57,
      "time": 103.718,
      "duration": 0.256,
      "velocity": 0.53,
      "hand": "left"
    },
    {
      "midi": 60,
      "time": 103.846,
      "duration": 0.256,
      "velocity": 0.54,
      "hand": "right"
    },
    {
      "midi": 57,
      "time": 104.102,
      "duration": 0.256,
      "velocity": 0.5,
      "hand": "left"
    },
    {
      "midi": 53,
      "time": 104.23,
      "duration": 0.256,
      "velocity": 0.46,
      "hand": "left"
    },
    {
      "midi": 57,
      "time": 104.487,
      "duration": 0.256,
      "velocity": 0.46,
      "hand": "left"
    },
    {
      "midi": 53,
      "time": 104.615,
      "duration": 0.256,
      "velocity": 0.46,
      "hand": "left"
    },
    {
      "midi": 50,
      "time": 104.871,
      "duration": 0.256,
      "velocity": 0.42,
      "hand": "left"
    },
    {
      "midi": 53,
      "time": 105.128,
      "duration": 0.256,
      "velocity": 0.43,
      "hand": "left"
    },
    {
      "midi": 50,
      "time": 105.256,
      "duration": 0.256,
      "velocity": 0.38,
      "hand": "left"
    },
    {
      "midi": 36,
      "time": 105.512,
      "duration": 4.088,
      "velocity": 0.54,
      "hand": "left"
    },
    {
      "midi": 50,
      "time": 105.769,
      "duration": 3.846,
      "velocity": 0.5,
      "hand": "left"
    },
    {
      "midi": 67,
      "time": 106.025,
      "duration": 0.256,
      "velocity": 0.5,
      "hand": "right"
    },
    {
      "midi": 71,
      "time": 106.153,
      "duration": 0.256,
      "velocity": 0.53,
      "hand": "right"
    },
    {
      "midi": 74,
      "time": 106.41,
      "duration": 0.256,
      "velocity": 0.54,
      "hand": "right"
    },
    {
      "midi": 77,
      "time": 106.666,
      "duration": 0.256,
      "velocity": 0.6,
      "hand": "right"
    },
    {
      "midi": 74,
      "time": 106.795,
      "duration": 0.256,
      "velocity": 0.54,
      "hand": "right"
    },
    {
      "midi": 71,
      "time": 107.051,
      "duration": 0.256,
      "velocity": 0.53,
      "hand": "right"
    },
    {
      "midi": 74,
      "time": 107.307,
      "duration": 0.256,
      "velocity": 0.56,
      "hand": "right"
    },
    {
      "midi": 71,
      "time": 107.436,
      "duration": 0.256,
      "velocity": 0.53,
      "hand": "right"
    },
    {
      "midi": 67,
      "time": 107.692,
      "duration": 0.256,
      "velocity": 0.56,
      "hand": "right"
    },
    {
      "midi": 71,
      "time": 107.948,
      "duration": 0.256,
      "velocity": 0.53,
      "hand": "right"
    },
    {
      "midi": 62,
      "time": 108.205,
      "duration": 0.256,
      "velocity": 0.54,
      "hand": "right"
    },
    {
      "midi": 65,
      "time": 108.461,
      "duration": 0.256,
      "velocity": 0.5,
      "hand": "right"
    },
    {
      "midi": 64,
      "time": 108.846,
      "duration": 0.385,
      "velocity": 0.5,
      "hand": "right"
    },
    {
      "midi": 62,
      "time": 109.102,
      "duration": 0.513,
      "velocity": 0.5,
      "hand": "right"
    },
    {
      "midi": 36,
      "time": 109.615,
      "duration": 5.769,
      "velocity": 0.53,
      "hand": "left"
    },
    {
      "midi": 48,
      "time": 109.615,
      "duration": 5.769,
      "velocity": 0.53,
      "hand": "left"
    },
    {
      "midi": 64,
      "time": 109.615,
      "duration": 5.769,
      "velocity": 0.5,
      "hand": "right"
    },
    {
      "midi": 67,
      "time": 109.615,
      "duration": 5.769,
      "velocity": 0.5,
      "hand": "right"
    },
    {
      "midi": 72,
      "time": 109.615,
      "duration": 5.769,
      "velocity": 0.5,
      "hand": "right"
    },
    {
      "midi": 60,
      "time": 117.692,
      "duration": 0.513,
      "velocity": 0.53,
      "hand": "right"
    },
    {
      "midi": 62,
      "time": 118.205,
      "duration": 0.513,
      "velocity": 0.54,
      "hand": "right"
    },
    {
      "midi": 64,
      "time": 118.718,
      "duration": 0.513,
      "velocity": 0.56,
      "hand": "right"
    },
    {
      "midi": 65,
      "time": 119.102,
      "duration": 0.769,
      "velocity": 0.6,
      "hand": "right"
    },
    {
      "midi": 67,
      "time": 119.871,
      "duration": 0.128,
      "velocity": 0.57,
      "hand": "right"
    },
    {
      "midi": 65,
      "time": 120,
      "duration": 0.128,
      "velocity": 0.57,
      "hand": "right"
    },
    {
      "midi": 64,
      "time": 120.128,
      "duration": 0.385,
      "velocity": 0.6,
      "hand": "right"
    },
    {
      "midi": 69,
      "time": 120.512,
      "duration": 0.513,
      "velocity": 0.6,
      "hand": "right"
    },
    {
      "midi": 62,
      "time": 121.025,
      "duration": 0.385,
      "velocity": 0.56,
      "hand": "right"
    },
    {
      "midi": 67,
      "time": 121.538,
      "duration": 0.769,
      "velocity": 0.6,
      "hand": "right"
    },
    {
      "midi": 69,
      "time": 122.307,
      "duration": 0.256,
      "velocity": 0.58,
      "hand": "right"
    },
    {
      "midi": 67,
      "time": 122.436,
      "duration": 0.256,
      "velocity": 0.58,
      "hand": "right"
    },
    {
      "midi": 65,
      "time": 122.692,
      "duration": 0.256,
      "velocity": 0.58,
      "hand": "right"
    },
    {
      "midi": 64,
      "time": 122.948,
      "duration": 0.256,
      "velocity": 0.57,
      "hand": "right"
    },
    {
      "midi": 65,
      "time": 123.205,
      "duration": 0.256,
      "velocity": 0.57,
      "hand": "right"
    },
    {
      "midi": 64,
      "time": 123.461,
      "duration": 0.256,
      "velocity": 0.57,
      "hand": "right"
    },
    {
      "midi": 67,
      "time": 123.461,
      "duration": 0.513,
      "velocity": 0.53,
      "hand": "right"
    },
    {
      "midi": 62,
      "time": 123.718,
      "duration": 0.256,
      "velocity": 0.57,
      "hand": "right"
    },
    {
      "midi": 60,
      "time": 123.846,
      "duration": 0.256,
      "velocity": 0.57,
      "hand": "right"
    },
    {
      "midi": 69,
      "time": 123.846,
      "duration": 0.513,
      "velocity": 0.54,
      "hand": "right"
    },
    {
      "midi": 62,
      "time": 124.102,
      "duration": 0.256,
      "velocity": 0.56,
      "hand": "right"
    },
    {
      "midi": 60,
      "time": 124.359,
      "duration": 0.256,
      "velocity": 0.56,
      "hand": "right"
    },
    {
      "midi": 71,
      "time": 124.359,
      "duration": 0.513,
      "velocity": 0.54,
      "hand": "right"
    },
    {
      "midi": 59,
      "time": 124.615,
      "duration": 0.256,
      "velocity": 0.56,
      "hand": "left"
    },
    {
      "midi": 57,
      "time": 124.871,
      "duration": 0.513,
      "velocity": 0.56,
      "hand": "left"
    },
    {
      "midi": 72,
      "time": 124.871,
      "duration": 0.755,
      "velocity": 0.6,
      "hand": "right"
    },
    {
      "midi": 66,
      "time": 125.384,
      "duration": 0.513,
      "velocity": 0.56,
      "hand": "right"
    },
    {
      "midi": 74,
      "time": 125.512,
      "duration": 0.128,
      "velocity": 0.57,
      "hand": "right"
    },
    {
      "midi": 72,
      "time": 125.641,
      "duration": 0.128,
      "velocity": 0.57,
      "hand": "right"
    },
    {
      "midi": 67,
      "time": 125.769,
      "duration": 1.41,
      "velocity": 0.6,
      "hand": "right"
    },
    {
      "midi": 71,
      "time": 125.769,
      "duration": 0.385,
      "velocity": 0.57,
      "hand": "right"
    },
    {
      "midi": 76,
      "time": 126.282,
      "duration": 0.513,
      "velocity": 0.6,
      "hand": "right"
    },
    {
      "midi": 69,
      "time": 126.795,
      "duration": 0.385,
      "velocity": 0.56,
      "hand": "right"
    },
    {
      "midi": 66,
      "time": 127.179,
      "duration": 0.256,
      "velocity": 0.57,
      "hand": "right"
    },
    {
      "midi": 74,
      "time": 127.179,
      "duration": 0.641,
      "velocity": 0.6,
      "hand": "right"
    },
    {
      "midi": 64,
      "time": 127.436,
      "duration": 0.256,
      "velocity": 0.57,
      "hand": "right"
    },
    {
      "midi": 66,
      "time": 127.692,
      "duration": 0.385,
      "velocity": 0.57,
      "hand": "right"
    },
    {
      "midi": 76,
      "time": 127.948,
      "duration": 0.256,
      "velocity": 0.57,
      "hand": "right"
    },
    {
      "midi": 62,
      "time": 128.205,
      "duration": 0.513,
      "velocity": 0.57,
      "hand": "right"
    },
    {
      "midi": 74,
      "time": 128.205,
      "duration": 0.256,
      "velocity": 0.57,
      "hand": "right"
    },
    {
      "midi": 72,
      "time": 128.461,
      "duration": 0.256,
      "velocity": 0.56,
      "hand": "right"
    },
    {
      "midi": 67,
      "time": 128.589,
      "duration": 0.242,
      "velocity": 0.58,
      "hand": "right"
    },
    {
      "midi": 71,
      "time": 128.589,
      "duration": 0.128,
      "velocity": 0.54,
      "hand": "right"
    },
    {
      "midi": 67,
      "time": 128.846,
      "duration": 0.256,
      "velocity": 0.54,
      "hand": "right"
    },
    {
      "midi": 55,
      "time": 129.102,
      "duration": 0.513,
      "velocity": 0.5,
      "hand": "left"
    },
    {
      "midi": 65,
      "time": 129.102,
      "duration": 0.513,
      "velocity": 0.57,
      "hand": "right"
    },
    {
      "midi": 69,
      "time": 129.102,
      "duration": 0.256,
      "velocity": 0.56,
      "hand": "right"
    },
    {
      "midi": 71,
      "time": 129.359,
      "duration": 0.256,
      "velocity": 0.57,
      "hand": "right"
    },
    {
      "midi": 57,
      "time": 129.615,
      "duration": 0.513,
      "velocity": 0.51,
      "hand": "left"
    },
    {
      "midi": 64,
      "time": 129.615,
      "duration": 0.513,
      "velocity": 0.57,
      "hand": "right"
    },
    {
      "midi": 72,
      "time": 129.615,
      "duration": 0.256,
      "velocity": 0.57,
      "hand": "right"
    },
    {
      "midi": 71,
      "time": 129.871,
      "duration": 0.256,
      "velocity": 0.53,
      "hand": "right"
    },
    {
      "midi": 59,
      "time": 130,
      "duration": 0.513,
      "velocity": 0.54,
      "hand": "left"
    },
    {
      "midi": 62,
      "time": 130,
      "duration": 0.513,
      "velocity": 0.56,
      "hand": "right"
    },
    {
      "midi": 72,
      "time": 130,
      "duration": 0.256,
      "velocity": 0.54,
      "hand": "right"
    },
    {
      "midi": 74,
      "time": 130.256,
      "duration": 0.256,
      "velocity": 0.54,
      "hand": "right"
    },
    {
      "midi": 60,
      "time": 130.512,
      "duration": 0.769,
      "velocity": 0.6,
      "hand": "right"
    },
    {
      "midi": 76,
      "time": 130.512,
      "duration": 0.256,
      "velocity": 0.56,
      "hand": "right"
    },
    {
      "midi": 74,
      "time": 130.769,
      "duration": 0.256,
      "velocity": 0.57,
      "hand": "right"
    },
    {
      "midi": 76,
      "time": 131.025,
      "duration": 0.256,
      "velocity": 0.57,
      "hand": "right"
    },
    {
      "midi": 62,
      "time": 131.282,
      "duration": 0.128,
      "velocity": 0.57,
      "hand": "right"
    },
    {
      "midi": 78,
      "time": 131.282,
      "duration": 0.256,
      "velocity": 0.58,
      "hand": "right"
    },
    {
      "midi": 60,
      "time": 131.41,
      "duration": 0.128,
      "velocity": 0.57,
      "hand": "right"
    },
    {
      "midi": 79,
      "time": 131.41,
      "duration": 0.513,
      "velocity": 0.6,
      "hand": "right"
    },
    {
      "midi": 64,
      "time": 131.923,
      "duration": 0.513,
      "velocity": 0.6,
      "hand": "right"
    },
    {
      "midi": 67,
      "time": 131.923,
      "duration": 0.897,
      "velocity": 0.6,
      "hand": "right"
    },
    {
      "midi": 71,
      "time": 131.923,
      "duration": 0.513,
      "velocity": 0.56,
      "hand": "right"
    },
    {
      "midi": 57,
      "time": 132.436,
      "duration": 0.385,
      "velocity": 0.56,
      "hand": "left"
    },
    {
      "midi": 72,
      "time": 132.436,
      "duration": 0.385,
      "velocity": 0.6,
      "hand": "right"
    },
    {
      "midi": 65,
      "time": 132.82,
      "duration": 0.256,
      "velocity": 0.57,
      "hand": "right"
    },
    {
      "midi": 69,
      "time": 132.82,
      "duration": 0.513,
      "velocity": 0.54,
      "hand": "right"
    },
    {
      "midi": 62,
      "time": 132.948,
      "duration": 0.641,
      "velocity": 0.6,
      "hand": "right"
    },
    {
      "midi": 64,
      "time": 133.077,
      "duration": 0.256,
      "velocity": 0.57,
      "hand": "right"
    },
    {
      "midi": 65,
      "time": 133.333,
      "duration": 1.139,
      "velocity": 0.57,
      "hand": "right"
    },
    {
      "midi": 74,
      "time": 133.333,
      "duration": 0.256,
      "velocity": 0.57,
      "hand": "right"
    },
    {
      "midi": 64,
      "time": 133.589,
      "duration": 0.256,
      "velocity": 0.57,
      "hand": "right"
    },
    {
      "midi": 72,
      "time": 133.589,
      "duration": 0.256,
      "velocity": 0.57,
      "hand": "right"
    },
    {
      "midi": 62,
      "time": 133.846,
      "duration": 0.256,
      "velocity": 0.57,
      "hand": "right"
    },
    {
      "midi": 71,
      "time": 133.846,
      "duration": 0.256,
      "velocity": 0.56,
      "hand": "right"
    },
    {
      "midi": 60,
      "time": 134.102,
      "duration": 0.256,
      "velocity": 0.56,
      "hand": "right"
    },
    {
      "midi": 69,
      "time": 134.102,
      "duration": 0.256,
      "velocity": 0.54,
      "hand": "right"
    },
    {
      "midi": 59,
      "time": 134.23,
      "duration": 0.385,
      "velocity": 0.54,
      "hand": "left"
    },
    {
      "midi": 67,
      "time": 134.23,
      "duration": 0.755,
      "velocity": 0.54,
      "hand": "right"
    },
    {
      "midi": 65,
      "time": 134.487,
      "duration": 0.256,
      "velocity": 0.57,
      "hand": "right"
    },
    {
      "midi": 48,
      "time": 134.743,
      "duration": 0.513,
      "velocity": 0.5,
      "hand": "left"
    },
    {
      "midi": 60,
      "time": 134.743,
      "duration": 0.897,
      "velocity": 0.6,
      "hand": "right"
    },
    {
      "midi": 64,
      "time": 134.743,
      "duration": 0.513,
      "velocity": 0.57,
      "hand": "right"
    },
    {
      "midi": 67,
      "time": 135,
      "duration": 0.256,
      "velocity": 0.56,
      "hand": "right"
    },
    {
      "midi": 50,
      "time": 135.256,
      "duration": 0.513,
      "velocity": 0.53,
      "hand": "left"
    },
    {
      "midi": 62,
      "time": 135.256,
      "duration": 0.897,
      "velocity": 0.57,
      "hand": "right"
    },
    {
      "midi": 65,
      "time": 135.256,
      "duration": 0.256,
      "velocity": 0.54,
      "hand": "right"
    },
    {
      "midi": 64,
      "time": 135.512,
      "duration": 0.256,
      "velocity": 0.54,
      "hand": "right"
    },
    {
      "midi": 52,
      "time": 135.769,
      "duration": 0.513,
      "velocity": 0.56,
      "hand": "left"
    },
    {
      "midi": 58,
      "time": 135.769,
      "duration": 0.513,
      "velocity": 0.57,
      "hand": "left"
    },
    {
      "midi": 65,
      "time": 135.769,
      "duration": 0.256,
      "velocity": 0.54,
      "hand": "right"
    },
    {
      "midi": 67,
      "time": 135.897,
      "duration": 0.256,
      "velocity": 0.54,
      "hand": "right"
    },
    {
      "midi": 53,
      "time": 136.153,
      "duration": 0.641,
      "velocity": 0.6,
      "hand": "left"
    },
    {
      "midi": 57,
      "time": 136.153,
      "duration": 0.385,
      "velocity": 0.56,
      "hand": "left"
    },
    {
      "midi": 60,
      "time": 136.153,
      "duration": 0.513,
      "velocity": 0.56,
      "hand": "right"
    },
    {
      "midi": 69,
      "time": 136.153,
      "duration": 0.256,
      "velocity": 0.54,
      "hand": "right"
    },
    {
      "midi": 67,
      "time": 136.41,
      "duration": 0.256,
      "velocity": 0.56,
      "hand": "right"
    },
    {
      "midi": 62,
      "time": 136.666,
      "duration": 0.513,
      "velocity": 0.6,
      "hand": "right"
    },
    {
      "midi": 65,
      "time": 136.666,
      "duration": 0.513,
      "velocity": 0.6,
      "hand": "right"
    },
    {
      "midi": 69,
      "time": 136.666,
      "duration": 0.256,
      "velocity": 0.54,
      "hand": "right"
    },
    {
      "midi": 55,
      "time": 136.923,
      "duration": 0.113,
      "velocity": 0.57,
      "hand": "left"
    },
    {
      "midi": 71,
      "time": 136.923,
      "duration": 0.256,
      "velocity": 0.57,
      "hand": "right"
    },
    {
      "midi": 53,
      "time": 137.051,
      "duration": 0.128,
      "velocity": 0.57,
      "hand": "left"
    },
    {
      "midi": 72,
      "time": 137.051,
      "duration": 1.923,
      "velocity": 0.58,
      "hand": "right"
    },
    {
      "midi": 67,
      "time": 137.307,
      "duration": 0.256,
      "velocity": 0.57,
      "hand": "right"
    },
    {
      "midi": 57,
      "time": 137.564,
      "duration": 0.513,
      "velocity": 0.6,
      "hand": "left"
    },
    {
      "midi": 60,
      "time": 137.564,
      "duration": 0.513,
      "velocity": 0.6,
      "hand": "right"
    },
    {
      "midi": 65,
      "time": 137.564,
      "duration": 0.256,
      "velocity": 0.57,
      "hand": "right"
    },
    {
      "midi": 64,
      "time": 137.82,
      "duration": 0.256,
      "velocity": 0.57,
      "hand": "right"
    },
    {
      "midi": 50,
      "time": 138.077,
      "duration": 0.385,
      "velocity": 0.54,
      "hand": "left"
    },
    {
      "midi": 65,
      "time": 138.077,
      "duration": 0.385,
      "velocity": 0.57,
      "hand": "right"
    },
    {
      "midi": 57,
      "time": 138.333,
      "duration": 0.256,
      "velocity": 0.54,
      "hand": "left"
    },
    {
      "midi": 55,
      "time": 138.589,
      "duration": 0.769,
      "velocity": 0.6,
      "hand": "left"
    },
    {
      "midi": 59,
      "time": 138.589,
      "duration": 0.256,
      "velocity": 0.56,
      "hand": "left"
    },
    {
      "midi": 62,
      "time": 138.589,
      "duration": 0.37,
      "velocity": 0.56,
      "hand": "right"
    },
    {
      "midi": 60,
      "time": 138.718,
      "duration": 0.256,
      "velocity": 0.57,
      "hand": "right"
    },
    {
      "midi": 62,
      "time": 138.974,
      "duration": 0.897,
      "velocity": 0.58,
      "hand": "right"
    },
    {
      "midi": 67,
      "time": 138.974,
      "duration": 1.923,
      "velocity": 0.61,
      "hand": "right"
    },
    {
      "midi": 71,
      "time": 138.974,
      "duration": 0.897,
      "velocity": 0.57,
      "hand": "right"
    },
    {
      "midi": 57,
      "time": 139.23,
      "duration": 0.256,
      "velocity": 0.58,
      "hand": "left"
    },
    {
      "midi": 55,
      "time": 139.487,
      "duration": 0.256,
      "velocity": 0.57,
      "hand": "left"
    },
    {
      "midi": 53,
      "time": 139.743,
      "duration": 0.256,
      "velocity": 0.57,
      "hand": "left"
    },
    {
      "midi": 52,
      "time": 139.871,
      "duration": 0.128,
      "velocity": 0.56,
      "hand": "left"
    },
    {
      "midi": 55,
      "time": 139.871,
      "duration": 0.897,
      "velocity": 0.6,
      "hand": "left"
    },
    {
      "midi": 53,
      "time": 140.128,
      "duration": 0.256,
      "velocity": 0.57,
      "hand": "left"
    },
    {
      "midi": 52,
      "time": 140.384,
      "duration": 0.256,
      "velocity": 0.56,
      "hand": "left"
    },
    {
      "midi": 72,
      "time": 140.384,
      "duration": 0.513,
      "velocity": 0.6,
      "hand": "right"
    },
    {
      "midi": 50,
      "time": 140.641,
      "duration": 0.256,
      "velocity": 0.54,
      "hand": "left"
    },
    {
      "midi": 48,
      "time": 140.897,
      "duration": 0.128,
      "velocity": 0.54,
      "hand": "left"
    },
    {
      "midi": 74,
      "time": 140.897,
      "duration": 0.513,
      "velocity": 0.62,
      "hand": "right"
    },
    {
      "midi": 50,
      "time": 141.153,
      "duration": 0.256,
      "velocity": 0.57,
      "hand": "left"
    },
    {
      "midi": 55,
      "time": 141.282,
      "duration": 0.513,
      "velocity": 0.53,
      "hand": "left"
    },
    {
      "midi": 76,
      "time": 141.282,
      "duration": 0.513,
      "velocity": 0.64,
      "hand": "right"
    },
    {
      "midi": 48,
      "time": 141.41,
      "duration": 0.256,
      "velocity": 0.56,
      "hand": "left"
    },
    {
      "midi": 47,
      "time": 141.538,
      "duration": 0.256,
      "velocity": 0.54,
      "hand": "left"
    },
    {
      "midi": 45,
      "time": 141.795,
      "duration": 0.385,
      "velocity": 0.54,
      "hand": "left"
    },
    {
      "midi": 57,
      "time": 141.795,
      "duration": 0.513,
      "velocity": 0.54,
      "hand": "left"
    },
    {
      "midi": 77,
      "time": 141.795,
      "duration": 0.769,
      "velocity": 0.69,
      "hand": "right"
    },
    {
      "midi": 50,
      "time": 142.307,
      "duration": 0.513,
      "velocity": 0.57,
      "hand": "left"
    },
    {
      "midi": 59,
      "time": 142.307,
      "duration": 0.513,
      "velocity": 0.54,
      "hand": "left"
    },
    {
      "midi": 79,
      "time": 142.564,
      "duration": 0.128,
      "velocity": 0.65,
      "hand": "right"
    },
    {
      "midi": 77,
      "time": 142.692,
      "duration": 0.128,
      "velocity": 0.65,
      "hand": "right"
    },
    {
      "midi": 57,
      "time": 142.82,
      "duration": 0.513,
      "velocity": 0.6,
      "hand": "left"
    },
    {
      "midi": 60,
      "time": 142.82,
      "duration": 0.641,
      "velocity": 0.6,
      "hand": "right"
    },
    {
      "midi": 76,
      "time": 142.82,
      "duration": 0.385,
      "velocity": 0.65,
      "hand": "right"
    },
    {
      "midi": 54,
      "time": 143.205,
      "duration": 0.513,
      "velocity": 0.57,
      "hand": "left"
    },
    {
      "midi": 81,
      "time": 143.205,
      "duration": 0.513,
      "velocity": 0.69,
      "hand": "right"
    },
    {
      "midi": 62,
      "time": 143.461,
      "duration": 0.128,
      "velocity": 0.57,
      "hand": "right"
    },
    {
      "midi": 60,
      "time": 143.589,
      "duration": 0.128,
      "velocity": 0.57,
      "hand": "right"
    },
    {
      "midi": 55,
      "time": 143.718,
      "duration": 0.256,
      "velocity": 0.57,
      "hand": "left"
    },
    {
      "midi": 59,
      "time": 143.718,
      "duration": 0.385,
      "velocity": 0.57,
      "hand": "left"
    },
    {
      "midi": 74,
      "time": 143.718,
      "duration": 0.385,
      "velocity": 0.64,
      "hand": "right"
    },
    {
      "midi": 57,
      "time": 143.974,
      "duration": 0.256,
      "velocity": 0.57,
      "hand": "left"
    },
    {
      "midi": 58,
      "time": 144.23,
      "duration": 0.256,
      "velocity": 0.6,
      "hand": "left"
    },
    {
      "midi": 64,
      "time": 144.23,
      "duration": 0.513,
      "velocity": 0.6,
      "hand": "right"
    },
    {
      "midi": 79,
      "time": 144.23,
      "duration": 0.769,
      "velocity": 0.69,
      "hand": "right"
    },
    {
      "midi": 55,
      "time": 144.359,
      "duration": 0.256,
      "velocity": 0.57,
      "hand": "left"
    },
    {
      "midi": 49,
      "time": 144.615,
      "duration": 0.513,
      "velocity": 0.56,
      "hand": "left"
    },
    {
      "midi": 57,
      "time": 144.615,
      "duration": 0.385,
      "velocity": 0.56,
      "hand": "left"
    },
    {
      "midi": 81,
      "time": 144.871,
      "duration": 0.256,
      "velocity": 0.67,
      "hand": "right"
    },
    {
      "midi": 50,
      "time": 145.128,
      "duration": 0.513,
      "velocity": 0.57,
      "hand": "left"
    },
    {
      "midi": 62,
      "time": 145.128,
      "duration": 0.641,
      "velocity": 0.6,
      "hand": "right"
    },
    {
      "midi": 79,
      "time": 145.128,
      "duration": 0.256,
      "velocity": 0.65,
      "hand": "right"
    },
    {
      "midi": 77,
      "time": 145.384,
      "duration": 0.256,
      "velocity": 0.64,
      "hand": "right"
    },
    {
      "midi": 57,
      "time": 145.641,
      "duration": 0.897,
      "velocity": 0.57,
      "hand": "left"
    },
    {
      "midi": 76,
      "time": 145.641,
      "duration": 0.385,
      "velocity": 0.62,
      "hand": "right"
    },
    {
      "midi": 64,
      "time": 145.769,
      "duration": 0.256,
      "velocity": 0.57,
      "hand": "right"
    },
    {
      "midi": 62,
      "time": 146.025,
      "duration": 0.256,
      "velocity": 0.56,
      "hand": "right"
    },
    {
      "midi": 81,
      "time": 146.025,
      "duration": 0.769,
      "velocity": 0.69,
      "hand": "right"
    },
    {
      "midi": 60,
      "time": 146.282,
      "duration": 0.256,
      "velocity": 0.56,
      "hand": "right"
    },
    {
      "midi": 52,
      "time": 146.538,
      "duration": 0.897,
      "velocity": 0.56,
      "hand": "left"
    },
    {
      "midi": 59,
      "time": 146.538,
      "duration": 0.513,
      "velocity": 0.54,
      "hand": "left"
    },
    {
      "midi": 83,
      "time": 146.795,
      "duration": 0.256,
      "velocity": 0.68,
      "hand": "right"
    },
    {
      "midi": 64,
      "time": 147.051,
      "duration": 1.41,
      "velocity": 0.6,
      "hand": "right"
    },
    {
      "midi": 81,
      "time": 147.051,
      "duration": 0.256,
      "velocity": 0.67,
      "hand": "right"
    },
    {
      "midi": 79,
      "time": 147.179,
      "duration": 0.256,
      "velocity": 0.65,
      "hand": "right"
    },
    {
      "midi": 57,
      "time": 147.436,
      "duration": 0.256,
      "velocity": 0.56,
      "hand": "left"
    },
    {
      "midi": 77,
      "time": 147.436,
      "duration": 1.923,
      "velocity": 0.65,
      "hand": "right"
    },
    {
      "midi": 59,
      "time": 147.692,
      "duration": 0.256,
      "velocity": 0.57,
      "hand": "left"
    },
    {
      "midi": 60,
      "time": 147.948,
      "duration": 0.256,
      "velocity": 0.57,
      "hand": "right"
    },
    {
      "midi": 67,
      "time": 147.948,
      "duration": 0.513,
      "velocity": 0.5,
      "hand": "right"
    },
    {
      "midi": 62,
      "time": 148.205,
      "duration": 0.241,
      "velocity": 0.58,
      "hand": "right"
    },
    {
      "midi": 60,
      "time": 148.461,
      "duration": 0.256,
      "velocity": 0.6,
      "hand": "right"
    },
    {
      "midi": 62,
      "time": 148.461,
      "duration": 0.897,
      "velocity": 0.6,
      "hand": "right"
    },
    {
      "midi": 69,
      "time": 148.461,
      "duration": 0.513,
      "velocity": 0.53,
      "hand": "right"
    },
    {
      "midi": 59,
      "time": 148.718,
      "duration": 0.256,
      "velocity": 0.57,
      "hand": "left"
    },
    {
      "midi": 57,
      "time": 148.846,
      "duration": 0.256,
      "velocity": 0.56,
      "hand": "left"
    },
    {
      "midi": 71,
      "time": 148.846,
      "duration": 0.513,
      "velocity": 0.56,
      "hand": "right"
    },
    {
      "midi": 55,
      "time": 149.102,
      "duration": 0.256,
      "velocity": 0.54,
      "hand": "left"
    },
    {
      "midi": 60,
      "time": 149.359,
      "duration": 0.497,
      "velocity": 0.6,
      "hand": "right"
    },
    {
      "midi": 72,
      "time": 149.359,
      "duration": 0.754,
      "velocity": 0.6,
      "hand": "right"
    },
    {
      "midi": 76,
      "time": 149.359,
      "duration": 0.769,
      "velocity": 0.6,
      "hand": "right"
    },
    {
      "midi": 59,
      "time": 149.615,
      "duration": 0.256,
      "velocity": 0.57,
      "hand": "left"
    },
    {
      "midi": 60,
      "time": 149.871,
      "duration": 0.256,
      "velocity": 0.6,
      "hand": "right"
    },
    {
      "midi": 57,
      "time": 150.128,
      "duration": 0.128,
      "velocity": 0.57,
      "hand": "left"
    },
    {
      "midi": 72,
      "time": 150.128,
      "duration": 0.128,
      "velocity": 0.57,
      "hand": "right"
    },
    {
      "midi": 74,
      "time": 150.128,
      "duration": 0.128,
      "velocity": 0.57,
      "hand": "right"
    },
    {
      "midi": 78,
      "time": 150.128,
      "duration": 0.256,
      "velocity": 0.57,
      "hand": "right"
    },
    {
      "midi": 64,
      "time": 150.256,
      "duration": 0.256,
      "velocity": 0.57,
      "hand": "right"
    },
    {
      "midi": 71,
      "time": 150.256,
      "duration": 0.385,
      "velocity": 0.57,
      "hand": "right"
    },
    {
      "midi": 79,
      "time": 150.256,
      "duration": 1.923,
      "velocity": 0.62,
      "hand": "right"
    },
    {
      "midi": 62,
      "time": 150.512,
      "duration": 0.256,
      "velocity": 0.57,
      "hand": "right"
    },
    {
      "midi": 60,
      "time": 150.769,
      "duration": 0.256,
      "velocity": 0.57,
      "hand": "right"
    },
    {
      "midi": 76,
      "time": 150.769,
      "duration": 0.513,
      "velocity": 0.6,
      "hand": "right"
    },
    {
      "midi": 59,
      "time": 151.025,
      "duration": 0.256,
      "velocity": 0.57,
      "hand": "left"
    },
    {
      "midi": 60,
      "time": 151.282,
      "duration": 0.128,
      "velocity": 0.6,
      "hand": "right"
    },
    {
      "midi": 69,
      "time": 151.282,
      "duration": 0.385,
      "velocity": 0.56,
      "hand": "right"
    },
    {
      "midi": 57,
      "time": 151.538,
      "duration": 0.256,
      "velocity": 0.54,
      "hand": "left"
    },
    {
      "midi": 59,
      "time": 151.795,
      "duration": 0.256,
      "velocity": 0.56,
      "hand": "left"
    },
    {
      "midi": 74,
      "time": 151.795,
      "duration": 0.641,
      "velocity": 0.6,
      "hand": "right"
    },
    {
      "midi": 60,
      "time": 151.923,
      "duration": 0.256,
      "velocity": 0.57,
      "hand": "right"
    },
    {
      "midi": 62,
      "time": 152.179,
      "duration": 0.256,
      "velocity": 0.6,
      "hand": "right"
    },
    {
      "midi": 78,
      "time": 152.179,
      "duration": 0.897,
      "velocity": 0.62,
      "hand": "right"
    },
    {
      "midi": 60,
      "time": 152.436,
      "duration": 0.256,
      "velocity": 0.58,
      "hand": "right"
    },
    {
      "midi": 76,
      "time": 152.436,
      "duration": 0.256,
      "velocity": 0.57,
      "hand": "right"
    },
    {
      "midi": 59,
      "time": 152.692,
      "duration": 0.256,
      "velocity": 0.57,
      "hand": "left"
    },
    {
      "midi": 74,
      "time": 152.692,
      "duration": 0.256,
      "velocity": 0.56,
      "hand": "right"
    },
    {
      "midi": 57,
      "time": 152.948,
      "duration": 0.256,
      "velocity": 0.57,
      "hand": "left"
    },
    {
      "midi": 72,
      "time": 152.948,
      "duration": 0.256,
      "velocity": 0.54,
      "hand": "right"
    },
    {
      "midi": 55,
      "time": 153.077,
      "duration": 0.897,
      "velocity": 0.56,
      "hand": "left"
    },
    {
      "midi": 71,
      "time": 153.077,
      "duration": 0.513,
      "velocity": 0.54,
      "hand": "right"
    },
    {
      "midi": 79,
      "time": 153.077,
      "duration": 0.256,
      "velocity": 0.6,
      "hand": "right"
    },
    {
      "midi": 77,
      "time": 153.333,
      "duration": 0.256,
      "velocity": 0.58,
      "hand": "right"
    },
    {
      "midi": 43,
      "time": 153.589,
      "duration": 0.513,
      "velocity": 0.54,
      "hand": "left"
    },
    {
      "midi": 76,
      "time": 153.589,
      "duration": 0.256,
      "velocity": 0.57,
      "hand": "right"
    },
    {
      "midi": 74,
      "time": 153.846,
      "duration": 0.256,
      "velocity": 0.57,
      "hand": "right"
    },
    {
      "midi": 45,
      "time": 154.102,
      "duration": 0.513,
      "velocity": 0.54,
      "hand": "left"
    },
    {
      "midi": 72,
      "time": 154.102,
      "duration": 0.256,
      "velocity": 0.56,
      "hand": "right"
    },
    {
      "midi": 74,
      "time": 154.23,
      "duration": 0.256,
      "velocity": 0.57,
      "hand": "right"
    },
    {
      "midi": 47,
      "time": 154.487,
      "duration": 0.513,
      "velocity": 0.54,
      "hand": "left"
    },
    {
      "midi": 62,
      "time": 154.487,
      "duration": 0.513,
      "velocity": 0.5,
      "hand": "right"
    },
    {
      "midi": 72,
      "time": 154.487,
      "duration": 0.256,
      "velocity": 0.57,
      "hand": "right"
    },
    {
      "midi": 71,
      "time": 154.743,
      "duration": 0.256,
      "velocity": 0.57,
      "hand": "right"
    },
    {
      "midi": 48,
      "time": 155,
      "duration": 0.641,
      "velocity": 0.6,
      "hand": "left"
    },
    {
      "midi": 64,
      "time": 155,
      "duration": 0.513,
      "velocity": 0.51,
      "hand": "right"
    },
    {
      "midi": 69,
      "time": 155,
      "duration": 0.256,
      "velocity": 0.57,
      "hand": "right"
    },
    {
      "midi": 72,
      "time": 155.256,
      "duration": 0.256,
      "velocity": 0.57,
      "hand": "right"
    },
    {
      "midi": 66,
      "time": 155.512,
      "duration": 0.513,
      "velocity": 0.54,
      "hand": "right"
    },
    {
      "midi": 71,
      "time": 155.512,
      "duration": 0.256,
      "velocity": 0.57,
      "hand": "right"
    },
    {
      "midi": 50,
      "time": 155.641,
      "duration": 0.128,
      "velocity": 0.57,
      "hand": "left"
    },
    {
      "midi": 69,
      "time": 155.641,
      "duration": 0.256,
      "velocity": 0.57,
      "hand": "right"
    },
    {
      "midi": 48,
      "time": 155.769,
      "duration": 0.128,
      "velocity": 0.57,
      "hand": "left"
    },
    {
      "midi": 47,
      "time": 155.897,
      "duration": 0.385,
      "velocity": 0.57,
      "hand": "left"
    },
    {
      "midi": 67,
      "time": 155.897,
      "duration": 0.641,
      "velocity": 0.6,
      "hand": "right"
    },
    {
      "midi": 52,
      "time": 156.41,
      "duration": 0.513,
      "velocity": 0.6,
      "hand": "left"
    },
    {
      "midi": 67,
      "time": 156.666,
      "duration": 0.128,
      "velocity": 0.57,
      "hand": "right"
    },
    {
      "midi": 69,
      "time": 156.666,
      "duration": 0.128,
      "velocity": 0.57,
      "hand": "right"
    },
    {
      "midi": 45,
      "time": 156.795,
      "duration": 0.385,
      "velocity": 0.54,
      "hand": "left"
    },
    {
      "midi": 66,
      "time": 156.795,
      "duration": 0.385,
      "velocity": 0.57,
      "hand": "right"
    },
    {
      "midi": 72,
      "time": 157.051,
      "duration": 0.256,
      "velocity": 0.57,
      "hand": "right"
    },
    {
      "midi": 50,
      "time": 157.307,
      "duration": 0.769,
      "velocity": 0.6,
      "hand": "left"
    },
    {
      "midi": 71,
      "time": 157.307,
      "duration": 0.513,
      "velocity": 0.6,
      "hand": "right"
    },
    {
      "midi": 69,
      "time": 157.564,
      "duration": 0.256,
      "velocity": 0.54,
      "hand": "right"
    },
    {
      "midi": 64,
      "time": 157.82,
      "duration": 0.385,
      "velocity": 0.57,
      "hand": "right"
    },
    {
      "midi": 68,
      "time": 157.82,
      "duration": 0.385,
      "velocity": 0.54,
      "hand": "right"
    },
    {
      "midi": 52,
      "time": 158.077,
      "duration": 0.256,
      "velocity": 0.6,
      "hand": "left"
    },
    {
      "midi": 69,
      "time": 158.205,
      "duration": 0.641,
      "velocity": 0.6,
      "hand": "right"
    },
    {
      "midi": 76,
      "time": 158.205,
      "duration": 0.513,
      "velocity": 0.6,
      "hand": "right"
    },
    {
      "midi": 50,
      "time": 158.333,
      "duration": 0.256,
      "velocity": 0.57,
      "hand": "left"
    },
    {
      "midi": 48,
      "time": 158.461,
      "duration": 0.256,
      "velocity": 0.57,
      "hand": "left"
    },
    {
      "midi": 47,
      "time": 158.718,
      "duration": 0.513,
      "velocity": 0.54,
      "hand": "left"
    },
    {
      "midi": 74,
      "time": 158.718,
      "duration": 0.513,
      "velocity": 0.57,
      "hand": "right"
    },
    {
      "midi": 71,
      "time": 158.974,
      "duration": 0.256,
      "velocity": 0.57,
      "hand": "right"
    },
    {
      "midi": 52,
      "time": 159.23,
      "duration": 0.513,
      "velocity": 0.51,
      "hand": "left"
    },
    {
      "midi": 69,
      "time": 159.23,
      "duration": 0.256,
      "velocity": 0.57,
      "hand": "right"
    },
    {
      "midi": 72,
      "time": 159.23,
      "duration": 0.256,
      "velocity": 0.56,
      "hand": "right"
    },
    {
      "midi": 67,
      "time": 159.487,
      "duration": 0.256,
      "velocity": 0.57,
      "hand": "right"
    },
    {
      "midi": 71,
      "time": 159.487,
      "duration": 0.256,
      "velocity": 0.56,
      "hand": "right"
    },
    {
      "midi": 54,
      "time": 159.743,
      "duration": 0.513,
      "velocity": 0.54,
      "hand": "left"
    },
    {
      "midi": 66,
      "time": 159.743,
      "duration": 0.513,
      "velocity": 0.57,
      "hand": "right"
    },
    {
      "midi": 69,
      "time": 159.743,
      "duration": 0.256,
      "velocity": 0.54,
      "hand": "right"
    },
    {
      "midi": 68,
      "time": 159.871,
      "duration": 0.256,
      "velocity": 0.54,
      "hand": "right"
    },
    {
      "midi": 50,
      "time": 160.128,
      "duration": 0.513,
      "velocity": 0.57,
      "hand": "left"
    },
    {
      "midi": 56,
      "time": 160.128,
      "duration": 0.513,
      "velocity": 0.56,
      "hand": "left"
    },
    {
      "midi": 65,
      "time": 160.128,
      "duration": 0.513,
      "velocity": 0.57,
      "hand": "right"
    },
    {
      "midi": 69,
      "time": 160.128,
      "duration": 0.256,
      "velocity": 0.54,
      "hand": "right"
    },
    {
      "midi": 71,
      "time": 160.384,
      "duration": 0.256,
      "velocity": 0.53,
      "hand": "right"
    },
    {
      "midi": 48,
      "time": 160.641,
      "duration": 0.513,
      "velocity": 0.57,
      "hand": "left"
    },
    {
      "midi": 57,
      "time": 160.641,
      "duration": 0.754,
      "velocity": 0.6,
      "hand": "left"
    },
    {
      "midi": 64,
      "time": 160.641,
      "duration": 0.513,
      "velocity": 0.54,
      "hand": "right"
    },
    {
      "midi": 72,
      "time": 160.641,
      "duration": 0.128,
      "velocity": 0.56,
      "hand": "right"
    },
    {
      "midi": 66,
      "time": 160.897,
      "duration": 0.256,
      "velocity": 0.54,
      "hand": "right"
    },
    {
      "midi": 53,
      "time": 161.153,
      "duration": 0.897,
      "velocity": 0.6,
      "hand": "left"
    },
    {
      "midi": 62,
      "time": 161.153,
      "duration": 0.641,
      "velocity": 0.54,
      "hand": "right"
    },
    {
      "midi": 69,
      "time": 161.153,
      "duration": 0.256,
      "velocity": 0.54,
      "hand": "right"
    },
    {
      "midi": 59,
      "time": 161.282,
      "duration": 0.128,
      "velocity": 0.57,
      "hand": "left"
    },
    {
      "midi": 68,
      "time": 161.282,
      "duration": 0.256,
      "velocity": 0.54,
      "hand": "right"
    },
    {
      "midi": 57,
      "time": 161.41,
      "duration": 0.128,
      "velocity": 0.57,
      "hand": "left"
    },
    {
      "midi": 56,
      "time": 161.538,
      "duration": 0.385,
      "velocity": 0.57,
      "hand": "left"
    },
    {
      "midi": 71,
      "time": 161.538,
      "duration": 0.513,
      "velocity": 0.57,
      "hand": "right"
    },
    {
      "midi": 64,
      "time": 161.795,
      "duration": 0.256,
      "velocity": 0.54,
      "hand": "right"
    },
    {
      "midi": 52,
      "time": 162.051,
      "duration": 0.897,
      "velocity": 0.57,
      "hand": "left"
    },
    {
      "midi": 60,
      "time": 162.051,
      "duration": 0.513,
      "velocity": 0.6,
      "hand": "right"
    },
    {
      "midi": 66,
      "time": 162.051,
      "duration": 0.256,
      "velocity": 0.54,
      "hand": "right"
    },
    {
      "midi": 69,
      "time": 162.051,
      "duration": 0.256,
      "velocity": 0.56,
      "hand": "right"
    },
    {
      "midi": 68,
      "time": 162.307,
      "duration": 0.256,
      "velocity": 0.54,
      "hand": "right"
    },
    {
      "midi": 71,
      "time": 162.307,
      "duration": 0.256,
      "velocity": 0.56,
      "hand": "right"
    },
    {
      "midi": 54,
      "time": 162.564,
      "duration": 0.385,
      "velocity": 0.56,
      "hand": "left"
    },
    {
      "midi": 69,
      "time": 162.564,
      "duration": 0.256,
      "velocity": 0.57,
      "hand": "right"
    },
    {
      "midi": 72,
      "time": 162.564,
      "duration": 0.385,
      "velocity": 0.57,
      "hand": "right"
    },
    {
      "midi": 68,
      "time": 162.692,
      "duration": 0.256,
      "velocity": 0.56,
      "hand": "right"
    },
    {
      "midi": 50,
      "time": 162.948,
      "duration": 0.897,
      "velocity": 0.57,
      "hand": "left"
    },
    {
      "midi": 59,
      "time": 162.948,
      "duration": 0.641,
      "velocity": 0.6,
      "hand": "left"
    },
    {
      "midi": 69,
      "time": 162.948,
      "duration": 0.256,
      "velocity": 0.56,
      "hand": "right"
    },
    {
      "midi": 77,
      "time": 162.948,
      "duration": 0.513,
      "velocity": 0.64,
      "hand": "right"
    },
    {
      "midi": 71,
      "time": 163.205,
      "duration": 0.256,
      "velocity": 0.56,
      "hand": "right"
    },
    {
      "midi": 68,
      "time": 163.461,
      "duration": 0.256,
      "velocity": 0.57,
      "hand": "right"
    },
    {
      "midi": 76,
      "time": 163.461,
      "duration": 0.513,
      "velocity": 0.61,
      "hand": "right"
    },
    {
      "midi": 60,
      "time": 163.718,
      "duration": 0.256,
      "velocity": 0.6,
      "hand": "right"
    },
    {
      "midi": 66,
      "time": 163.718,
      "duration": 0.256,
      "velocity": 0.54,
      "hand": "right"
    },
    {
      "midi": 52,
      "time": 163.974,
      "duration": 0.513,
      "velocity": 0.57,
      "hand": "left"
    },
    {
      "midi": 59,
      "time": 163.974,
      "duration": 0.256,
      "velocity": 0.58,
      "hand": "left"
    },
    {
      "midi": 68,
      "time": 163.974,
      "duration": 0.256,
      "velocity": 0.54,
      "hand": "right"
    },
    {
      "midi": 74,
      "time": 163.974,
      "duration": 0.897,
      "velocity": 0.6,
      "hand": "right"
    },
    {
      "midi": 57,
      "time": 164.102,
      "duration": 0.256,
      "velocity": 0.57,
      "hand": "left"
    },
    {
      "midi": 69,
      "time": 164.102,
      "duration": 0.256,
      "velocity": 0.54,
      "hand": "right"
    },
    {
      "midi": 53,
      "time": 164.359,
      "duration": 0.513,
      "velocity": 0.6,
      "hand": "left"
    },
    {
      "midi": 56,
      "time": 164.359,
      "duration": 0.385,
      "velocity": 0.56,
      "hand": "left"
    },
    {
      "midi": 71,
      "time": 164.359,
      "duration": 0.513,
      "velocity": 0.58,
      "hand": "right"
    },
    {
      "midi": 52,
      "time": 164.871,
      "duration": 0.256,
      "velocity": 0.54,
      "hand": "left"
    },
    {
      "midi": 57,
      "time": 164.871,
      "duration": 1.026,
      "velocity": 0.58,
      "hand": "left"
    },
    {
      "midi": 72,
      "time": 164.871,
      "duration": 0.256,
      "velocity": 0.57,
      "hand": "right"
    },
    {
      "midi": 50,
      "time": 165.128,
      "duration": 0.256,
      "velocity": 0.54,
      "hand": "left"
    },
    {
      "midi": 71,
      "time": 165.128,
      "duration": 0.241,
      "velocity": 0.57,
      "hand": "right"
    },
    {
      "midi": 52,
      "time": 165.384,
      "duration": 1.026,
      "velocity": 0.57,
      "hand": "left"
    },
    {
      "midi": 71,
      "time": 165.384,
      "duration": 0.113,
      "velocity": 0.6,
      "hand": "right"
    },
    {
      "midi": 72,
      "time": 165.512,
      "duration": 0.128,
      "velocity": 0.54,
      "hand": "right"
    },
    {
      "midi": 56,
      "time": 165.897,
      "duration": 0.513,
      "velocity": 0.57,
      "hand": "left"
    },
    {
      "midi": 69,
      "time": 166.153,
      "duration": 0.242,
      "velocity": 0.57,
      "hand": "right"
    },
    {
      "midi": 45,
      "time": 166.41,
      "duration": 1.026,
      "velocity": 0.61,
      "hand": "left"
    },
    {
      "midi": 57,
      "time": 166.41,
      "duration": 1.026,
      "velocity": 0.6,
      "hand": "left"
    },
    {
      "midi": 69,
      "time": 166.41,
      "duration": 1.026,
      "velocity": 0.6,
      "hand": "right"
    },
    {
      "midi": 60,
      "time": 166.923,
      "duration": 0.513,
      "velocity": 0.53,
      "hand": "right"
    },
    {
      "midi": 62,
      "time": 167.436,
      "duration": 0.513,
      "velocity": 0.54,
      "hand": "right"
    },
    {
      "midi": 55,
      "time": 167.82,
      "duration": 0.513,
      "velocity": 0.51,
      "hand": "left"
    },
    {
      "midi": 64,
      "time": 167.82,
      "duration": 0.513,
      "velocity": 0.54,
      "hand": "right"
    },
    {
      "midi": 57,
      "time": 168.333,
      "duration": 0.513,
      "velocity": 0.54,
      "hand": "left"
    },
    {
      "midi": 65,
      "time": 168.333,
      "duration": 0.769,
      "velocity": 0.6,
      "hand": "right"
    },
    {
      "midi": 59,
      "time": 168.846,
      "duration": 0.513,
      "velocity": 0.56,
      "hand": "left"
    },
    {
      "midi": 67,
      "time": 169.102,
      "duration": 0.128,
      "velocity": 0.57,
      "hand": "right"
    },
    {
      "midi": 65,
      "time": 169.23,
      "duration": 0.128,
      "velocity": 0.57,
      "hand": "right"
    },
    {
      "midi": 60,
      "time": 169.359,
      "duration": 0.754,
      "velocity": 0.6,
      "hand": "right"
    },
    {
      "midi": 64,
      "time": 169.359,
      "duration": 0.385,
      "velocity": 0.57,
      "hand": "right"
    },
    {
      "midi": 69,
      "time": 169.743,
      "duration": 0.513,
      "velocity": 0.6,
      "hand": "right"
    },
    {
      "midi": 62,
      "time": 170,
      "duration": 0.128,
      "velocity": 0.57,
      "hand": "right"
    },
    {
      "midi": 60,
      "time": 170.128,
      "duration": 0.128,
      "velocity": 0.57,
      "hand": "right"
    },
    {
      "midi": 59,
      "time": 170.256,
      "duration": 0.385,
      "velocity": 0.57,
      "hand": "left"
    },
    {
      "midi": 62,
      "time": 170.256,
      "duration": 0.385,
      "velocity": 0.56,
      "hand": "right"
    },
    {
      "midi": 43,
      "time": 170.769,
      "duration": 0.513,
      "velocity": 0.51,
      "hand": "left"
    },
    {
      "midi": 64,
      "time": 170.769,
      "duration": 0.513,
      "velocity": 0.6,
      "hand": "right"
    },
    {
      "midi": 67,
      "time": 170.769,
      "duration": 0.769,
      "velocity": 0.6,
      "hand": "right"
    },
    {
      "midi": 45,
      "time": 171.282,
      "duration": 0.513,
      "velocity": 0.53,
      "hand": "left"
    },
    {
      "midi": 57,
      "time": 171.282,
      "duration": 0.385,
      "velocity": 0.54,
      "hand": "left"
    },
    {
      "midi": 69,
      "time": 171.41,
      "duration": 0.256,
      "velocity": 0.57,
      "hand": "right"
    },
    {
      "midi": 47,
      "time": 171.666,
      "duration": 0.513,
      "velocity": 0.54,
      "hand": "left"
    },
    {
      "midi": 62,
      "time": 171.666,
      "duration": 0.897,
      "velocity": 0.6,
      "hand": "right"
    },
    {
      "midi": 67,
      "time": 171.666,
      "duration": 0.256,
      "velocity": 0.57,
      "hand": "right"
    },
    {
      "midi": 65,
      "time": 171.923,
      "duration": 0.256,
      "velocity": 0.57,
      "hand": "right"
    },
    {
      "midi": 48,
      "time": 172.179,
      "duration": 0.754,
      "velocity": 0.6,
      "hand": "left"
    },
    {
      "midi": 64,
      "time": 172.179,
      "duration": 0.385,
      "velocity": 0.57,
      "hand": "right"
    },
    {
      "midi": 55,
      "time": 172.692,
      "duration": 0.513,
      "velocity": 0.57,
      "hand": "left"
    },
    {
      "midi": 64,
      "time": 172.692,
      "duration": 0.513,
      "velocity": 0.56,
      "hand": "right"
    },
    {
      "midi": 67,
      "time": 172.692,
      "duration": 0.513,
      "velocity": 0.53,
      "hand": "right"
    },
    {
      "midi": 50,
      "time": 172.82,
      "duration": 0.128,
      "velocity": 0.57,
      "hand": "left"
    },
    {
      "midi": 48,
      "time": 172.948,
      "duration": 0.128,
      "velocity": 0.57,
      "hand": "left"
    },
    {
      "midi": 47,
      "time": 173.077,
      "duration": 0.385,
      "velocity": 0.57,
      "hand": "left"
    },
    {
      "midi": 62,
      "time": 173.077,
      "duration": 1.026,
      "velocity": 0.6,
      "hand": "right"
    },
    {
      "midi": 66,
      "time": 173.077,
      "duration": 0.513,
      "velocity": 0.56,
      "hand": "right"
    },
    {
      "midi": 69,
      "time": 173.077,
      "duration": 0.513,
      "velocity": 0.54,
      "hand": "right"
    },
    {
      "midi": 52,
      "time": 173.589,
      "duration": 0.513,
      "velocity": 0.6,
      "hand": "left"
    },
    {
      "midi": 67,
      "time": 173.589,
      "duration": 0.897,
      "velocity": 0.6,
      "hand": "right"
    },
    {
      "midi": 71,
      "time": 173.589,
      "duration": 0.513,
      "velocity": 0.54,
      "hand": "right"
    },
    {
      "midi": 45,
      "time": 174.102,
      "duration": 0.385,
      "velocity": 0.56,
      "hand": "left"
    },
    {
      "midi": 60,
      "time": 174.102,
      "duration": 0.385,
      "velocity": 0.57,
      "hand": "right"
    },
    {
      "midi": 72,
      "time": 174.102,
      "duration": 0.754,
      "velocity": 0.6,
      "hand": "right"
    },
    {
      "midi": 50,
      "time": 174.615,
      "duration": 0.769,
      "velocity": 0.6,
      "hand": "left"
    },
    {
      "midi": 57,
      "time": 174.615,
      "duration": 0.513,
      "velocity": 0.57,
      "hand": "left"
    },
    {
      "midi": 66,
      "time": 174.615,
      "duration": 0.513,
      "velocity": 0.57,
      "hand": "right"
    },
    {
      "midi": 74,
      "time": 174.743,
      "duration": 0.128,
      "velocity": 0.57,
      "hand": "right"
    },
    {
      "midi": 72,
      "time": 174.871,
      "duration": 0.128,
      "velocity": 0.57,
      "hand": "right"
    },
    {
      "midi": 64,
      "time": 175,
      "duration": 0.897,
      "velocity": 0.6,
      "hand": "right"
    },
    {
      "midi": 68,
      "time": 175,
      "duration": 0.513,
      "velocity": 0.57,
      "hand": "right"
    },
    {
      "midi": 71,
      "time": 175,
      "duration": 0.385,
      "velocity": 0.57,
      "hand": "right"
    },
    {
      "midi": 52,
      "time": 175.256,
      "duration": 0.256,
      "velocity": 0.61,
      "hand": "left"
    },
    {
      "midi": 50,
      "time": 175.512,
      "duration": 0.256,
      "velocity": 0.6,
      "hand": "left"
    },
    {
      "midi": 69,
      "time": 175.512,
      "duration": 0.897,
      "velocity": 0.61,
      "hand": "right"
    },
    {
      "midi": 72,
      "time": 175.512,
      "duration": 0.513,
      "velocity": 0.53,
      "hand": "right"
    },
    {
      "midi": 48,
      "time": 175.769,
      "duration": 0.256,
      "velocity": 0.58,
      "hand": "left"
    },
    {
      "midi": 47,
      "time": 176.025,
      "duration": 0.385,
      "velocity": 0.57,
      "hand": "left"
    },
    {
      "midi": 62,
      "time": 176.025,
      "duration": 0.513,
      "velocity": 0.57,
      "hand": "right"
    },
    {
      "midi": 74,
      "time": 176.025,
      "duration": 0.513,
      "velocity": 0.56,
      "hand": "right"
    },
    {
      "midi": 46,
      "time": 176.41,
      "duration": 0.513,
      "velocity": 0.57,
      "hand": "left"
    },
    {
      "midi": 67,
      "time": 176.41,
      "duration": 0.513,
      "velocity": 0.57,
      "hand": "right"
    },
    {
      "midi": 76,
      "time": 176.41,
      "duration": 0.513,
      "velocity": 0.58,
      "hand": "right"
    },
    {
      "midi": 45,
      "time": 176.923,
      "duration": 0.513,
      "velocity": 0.57,
      "hand": "left"
    },
    {
      "midi": 69,
      "time": 176.923,
      "duration": 0.513,
      "velocity": 0.57,
      "hand": "right"
    },
    {
      "midi": 77,
      "time": 176.923,
      "duration": 0.769,
      "velocity": 0.64,
      "hand": "right"
    },
    {
      "midi": 43,
      "time": 177.436,
      "duration": 0.513,
      "velocity": 0.56,
      "hand": "left"
    },
    {
      "midi": 71,
      "time": 177.436,
      "duration": 0.513,
      "velocity": 0.57,
      "hand": "right"
    },
    {
      "midi": 79,
      "time": 177.692,
      "duration": 0.128,
      "velocity": 0.6,
      "hand": "right"
    },
    {
      "midi": 77,
      "time": 177.82,
      "duration": 0.128,
      "velocity": 0.6,
      "hand": "right"
    },
    {
      "midi": 45,
      "time": 177.948,
      "duration": 0.385,
      "velocity": 0.56,
      "hand": "left"
    },
    {
      "midi": 72,
      "time": 177.948,
      "duration": 0.755,
      "velocity": 0.6,
      "hand": "right"
    },
    {
      "midi": 76,
      "time": 177.948,
      "duration": 0.385,
      "velocity": 0.6,
      "hand": "right"
    },
    {
      "midi": 54,
      "time": 178.333,
      "duration": 0.513,
      "velocity": 0.6,
      "hand": "left"
    },
    {
      "midi": 57,
      "time": 178.333,
      "duration": 0.513,
      "velocity": 0.5,
      "hand": "left"
    },
    {
      "midi": 81,
      "time": 178.333,
      "duration": 0.513,
      "velocity": 0.68,
      "hand": "right"
    },
    {
      "midi": 74,
      "time": 178.589,
      "duration": 0.128,
      "velocity": 0.57,
      "hand": "right"
    },
    {
      "midi": 72,
      "time": 178.718,
      "duration": 0.128,
      "velocity": 0.57,
      "hand": "right"
    },
    {
      "midi": 55,
      "time": 178.846,
      "duration": 0.513,
      "velocity": 0.6,
      "hand": "left"
    },
    {
      "midi": 59,
      "time": 178.846,
      "duration": 0.513,
      "velocity": 0.53,
      "hand": "left"
    },
    {
      "midi": 71,
      "time": 178.846,
      "duration": 0.385,
      "velocity": 0.57,
      "hand": "right"
    },
    {
      "midi": 74,
      "time": 178.846,
      "duration": 0.385,
      "velocity": 0.6,
      "hand": "right"
    },
    {
      "midi": 52,
      "time": 179.359,
      "duration": 0.513,
      "velocity": 0.57,
      "hand": "left"
    },
    {
      "midi": 61,
      "time": 179.359,
      "duration": 0.513,
      "velocity": 0.54,
      "hand": "right"
    },
    {
      "midi": 76,
      "time": 179.359,
      "duration": 0.513,
      "velocity": 0.6,
      "hand": "right"
    },
    {
      "midi": 79,
      "time": 179.359,
      "duration": 0.769,
      "velocity": 0.65,
      "hand": "right"
    },
    {
      "midi": 50,
      "time": 179.871,
      "duration": 0.897,
      "velocity": 0.57,
      "hand": "left"
    },
    {
      "midi": 62,
      "time": 179.871,
      "duration": 0.641,
      "velocity": 0.6,
      "hand": "right"
    },
    {
      "midi": 69,
      "time": 179.871,
      "duration": 0.385,
      "velocity": 0.57,
      "hand": "right"
    },
    {
      "midi": 81,
      "time": 180,
      "duration": 0.256,
      "velocity": 0.65,
      "hand": "right"
    },
    {
      "midi": 74,
      "time": 180.256,
      "duration": 0.641,
      "velocity": 0.6,
      "hand": "right"
    },
    {
      "midi": 79,
      "time": 180.256,
      "duration": 0.256,
      "velocity": 0.64,
      "hand": "right"
    },
    {
      "midi": 64,
      "time": 180.512,
      "duration": 0.128,
      "velocity": 0.57,
      "hand": "right"
    },
    {
      "midi": 77,
      "time": 180.512,
      "duration": 0.256,
      "velocity": 0.62,
      "hand": "right"
    },
    {
      "midi": 62,
      "time": 180.641,
      "duration": 0.128,
      "velocity": 0.57,
      "hand": "right"
    },
    {
      "midi": 52,
      "time": 180.769,
      "duration": 0.513,
      "velocity": 0.56,
      "hand": "left"
    },
    {
      "midi": 60,
      "time": 180.769,
      "duration": 0.385,
      "velocity": 0.57,
      "hand": "right"
    },
    {
      "midi": 76,
      "time": 180.769,
      "duration": 0.241,
      "velocity": 0.61,
      "hand": "right"
    },
    {
      "midi": 76,
      "time": 181.025,
      "duration": 0.256,
      "velocity": 0.57,
      "hand": "right"
    },
    {
      "midi": 53,
      "time": 181.282,
      "duration": 0.513,
      "velocity": 0.56,
      "hand": "left"
    },
    {
      "midi": 65,
      "time": 181.282,
      "duration": 0.513,
      "velocity": 0.6,
      "hand": "right"
    },
    {
      "midi": 74,
      "time": 181.282,
      "duration": 0.256,
      "velocity": 0.56,
      "hand": "right"
    },
    {
      "midi": 81,
      "time": 181.282,
      "duration": 0.513,
      "velocity": 0.67,
      "hand": "right"
    },
    {
      "midi": 72,
      "time": 181.41,
      "duration": 0.256,
      "velocity": 0.54,
      "hand": "right"
    },
    {
      "midi": 55,
      "time": 181.666,
      "duration": 0.769,
      "velocity": 0.6,
      "hand": "left"
    },
    {
      "midi": 59,
      "time": 181.666,
      "duration": 0.385,
      "velocity": 0.54,
      "hand": "left"
    },
    {
      "midi": 71,
      "time": 181.666,
      "duration": 0.385,
      "velocity": 0.54,
      "hand": "right"
    },
    {
      "midi": 74,
      "time": 181.666,
      "duration": 0.513,
      "velocity": 0.6,
      "hand": "right"
    },
    {
      "midi": 64,
      "time": 182.179,
      "duration": 0.769,
      "velocity": 0.6,
      "hand": "right"
    },
    {
      "midi": 79,
      "time": 182.179,
      "duration": 0.513,
      "velocity": 0.65,
      "hand": "right"
    },
    {
      "midi": 82,
      "time": 182.179,
      "duration": 0.513,
      "velocity": 0.67,
      "hand": "right"
    },
    {
      "midi": 57,
      "time": 182.436,
      "duration": 0.128,
      "velocity": 0.57,
      "hand": "left"
    },
    {
      "midi": 55,
      "time": 182.564,
      "duration": 0.128,
      "velocity": 0.57,
      "hand": "left"
    },
    {
      "midi": 53,
      "time": 182.692,
      "duration": 0.385,
      "velocity": 0.57,
      "hand": "left"
    },
    {
      "midi": 73,
      "time": 182.692,
      "duration": 0.513,
      "velocity": 0.57,
      "hand": "right"
    },
    {
      "midi": 81,
      "time": 182.692,
      "duration": 0.513,
      "velocity": 0.67,
      "hand": "right"
    },
    {
      "midi": 65,
      "time": 182.948,
      "duration": 0.256,
      "velocity": 0.61,
      "hand": "right"
    },
    {
      "midi": 58,
      "time": 183.205,
      "duration": 0.513,
      "velocity": 0.6,
      "hand": "left"
    },
    {
      "midi": 64,
      "time": 183.205,
      "duration": 0.256,
      "velocity": 0.58,
      "hand": "right"
    },
    {
      "midi": 74,
      "time": 183.205,
      "duration": 0.513,
      "velocity": 0.57,
      "hand": "right"
    },
    {
      "midi": 79,
      "time": 183.205,
      "duration": 0.256,
      "velocity": 0.64,
      "hand": "right"
    },
    {
      "midi": 62,
      "time": 183.333,
      "duration": 0.256,
      "velocity": 0.57,
      "hand": "right"
    },
    {
      "midi": 77,
      "time": 183.333,
      "duration": 0.256,
      "velocity": 0.61,
      "hand": "right"
    },
    {
      "midi": 52,
      "time": 183.589,
      "duration": 0.385,
      "velocity": 0.54,
      "hand": "left"
    },
    {
      "midi": 61,
      "time": 183.589,
      "duration": 0.513,
      "velocity": 0.56,
      "hand": "right"
    },
    {
      "midi": 76,
      "time": 183.589,
      "duration": 0.385,
      "velocity": 0.6,
      "hand": "right"
    },
    {
      "midi": 79,
      "time": 183.589,
      "duration": 0.256,
      "velocity": 0.64,
      "hand": "right"
    },
    {
      "midi": 77,
      "time": 183.846,
      "duration": 0.256,
      "velocity": 0.61,
      "hand": "right"
    },
    {
      "midi": 57,
      "time": 184.102,
      "duration": 0.769,
      "velocity": 0.6,
      "hand": "left"
    },
    {
      "midi": 73,
      "time": 184.102,
      "duration": 0.513,
      "velocity": 0.56,
      "hand": "right"
    },
    {
      "midi": 79,
      "time": 184.102,
      "duration": 0.256,
      "velocity": 0.64,
      "hand": "right"
    },
    {
      "midi": 76,
      "time": 184.359,
      "duration": 0.256,
      "velocity": 0.6,
      "hand": "right"
    },
    {
      "midi": 74,
      "time": 184.615,
      "duration": 0.513,
      "velocity": 0.56,
      "hand": "right"
    },
    {
      "midi": 77,
      "time": 184.615,
      "duration": 0.256,
      "velocity": 0.64,
      "hand": "right"
    },
    {
      "midi": 58,
      "time": 184.871,
      "duration": 0.256,
      "velocity": 0.57,
      "hand": "left"
    },
    {
      "midi": 79,
      "time": 184.871,
      "duration": 0.114,
      "velocity": 0.6,
      "hand": "right"
    },
    {
      "midi": 57,
      "time": 185,
      "duration": 0.256,
      "velocity": 0.57,
      "hand": "left"
    },
    {
      "midi": 76,
      "time": 185,
      "duration": 0.513,
      "velocity": 0.56,
      "hand": "right"
    },
    {
      "midi": 79,
      "time": 185,
      "duration": 0.064,
      "velocity": 0.64,
      "hand": "right"
    },
    {
      "midi": 79,
      "time": 185.128,
      "duration": 0.064,
      "velocity": 0.54,
      "hand": "right"
    },
    {
      "midi": 81,
      "time": 185.128,
      "duration": 0.064,
      "velocity": 0.54,
      "hand": "right"
    },
    {
      "midi": 55,
      "time": 185.256,
      "duration": 0.256,
      "velocity": 0.57,
      "hand": "left"
    },
    {
      "midi": 77,
      "time": 185.256,
      "duration": 0.128,
      "velocity": 0.6,
      "hand": "right"
    },
    {
      "midi": 79,
      "time": 185.384,
      "duration": 0.128,
      "velocity": 0.6,
      "hand": "right"
    },
    {
      "midi": 53,
      "time": 185.512,
      "duration": 0.256,
      "velocity": 0.57,
      "hand": "left"
    },
    {
      "midi": 69,
      "time": 185.512,
      "duration": 0.513,
      "velocity": 0.57,
      "hand": "right"
    },
    {
      "midi": 81,
      "time": 185.512,
      "duration": 0.128,
      "velocity": 0.67,
      "hand": "right"
    },
    {
      "midi": 52,
      "time": 185.769,
      "duration": 0.256,
      "velocity": 0.54,
      "hand": "left"
    },
    {
      "midi": 73,
      "time": 185.769,
      "duration": 0.256,
      "velocity": 0.6,
      "hand": "right"
    },
    {
      "midi": 53,
      "time": 186.025,
      "duration": 0.128,
      "velocity": 0.57,
      "hand": "left"
    },
    {
      "midi": 57,
      "time": 186.025,
      "duration": 0.513,
      "velocity": 0.53,
      "hand": "left"
    },
    {
      "midi": 74,
      "time": 186.025,
      "duration": 0.256,
      "velocity": 0.6,
      "hand": "right"
    },
    {
      "midi": 50,
      "time": 186.282,
      "duration": 0.256,
      "velocity": 0.54,
      "hand": "left"
    },
    {
      "midi": 79,
      "time": 186.282,
      "duration": 0.256,
      "velocity": 0.6,
      "hand": "right"
    },
    {
      "midi": 55,
      "time": 186.538,
      "duration": 0.513,
      "velocity": 0.58,
      "hand": "left"
    },
    {
      "midi": 59,
      "time": 186.538,
      "duration": 0.513,
      "velocity": 0.54,
      "hand": "left"
    },
    {
      "midi": 77,
      "time": 186.538,
      "duration": 0.128,
      "velocity": 0.54,
      "hand": "right"
    },
    {
      "midi": 76,
      "time": 186.666,
      "duration": 0.513,
      "velocity": 0.6,
      "hand": "right"
    },
    {
      "midi": 57,
      "time": 187.051,
      "duration": 0.513,
      "velocity": 0.58,
      "hand": "left"
    },
    {
      "midi": 61,
      "time": 187.051,
      "duration": 0.513,
      "velocity": 0.54,
      "hand": "right"
    },
    {
      "midi": 64,
      "time": 187.051,
      "duration": 0.513,
      "velocity": 0.51,
      "hand": "right"
    },
    {
      "midi": 74,
      "time": 187.307,
      "duration": 0.114,
      "velocity": 0.6,
      "hand": "right"
    },
    {
      "midi": 74,
      "time": 187.436,
      "duration": 0.513,
      "velocity": 0.61,
      "hand": "right"
    },
    {
      "midi": 50,
      "time": 187.564,
      "duration": 2.179,
      "velocity": 0.56,
      "hand": "left"
    },
    {
      "midi": 62,
      "time": 187.564,
      "duration": 0.754,
      "velocity": 0.6,
      "hand": "right"
    },
    {
      "midi": 66,
      "time": 187.564,
      "duration": 0.513,
      "velocity": 0.53,
      "hand": "right"
    },
    {
      "midi": 67,
      "time": 187.948,
      "duration": 0.513,
      "velocity": 0.54,
      "hand": "right"
    },
    {
      "midi": 64,
      "time": 188.205,
      "duration": 0.128,
      "velocity": 0.57,
      "hand": "right"
    },
    {
      "midi": 62,
      "time": 188.333,
      "duration": 0.128,
      "velocity": 0.57,
      "hand": "right"
    },
    {
      "midi": 60,
      "time": 188.461,
      "duration": 0.385,
      "velocity": 0.57,
      "hand": "right"
    },
    {
      "midi": 69,
      "time": 188.461,
      "duration": 0.769,
      "velocity": 0.6,
      "hand": "right"
    },
    {
      "midi": 66,
      "time": 188.974,
      "duration": 0.513,
      "velocity": 0.6,
      "hand": "right"
    },
    {
      "midi": 71,
      "time": 189.23,
      "duration": 0.128,
      "velocity": 0.57,
      "hand": "right"
    },
    {
      "midi": 69,
      "time": 189.359,
      "duration": 0.128,
      "velocity": 0.57,
      "hand": "right"
    },
    {
      "midi": 59,
      "time": 189.487,
      "duration": 0.385,
      "velocity": 0.54,
      "hand": "left"
    },
    {
      "midi": 67,
      "time": 189.487,
      "duration": 0.385,
      "velocity": 0.57,
      "hand": "right"
    },
    {
      "midi": 52,
      "time": 189.743,
      "duration": 0.256,
      "velocity": 0.57,
      "hand": "left"
    },
    {
      "midi": 50,
      "time": 189.871,
      "duration": 0.256,
      "velocity": 0.57,
      "hand": "left"
    },
    {
      "midi": 64,
      "time": 189.871,
      "duration": 0.769,
      "velocity": 0.6,
      "hand": "right"
    },
    {
      "midi": 72,
      "time": 189.871,
      "duration": 0.513,
      "velocity": 0.6,
      "hand": "right"
    },
    {
      "midi": 48,
      "time": 190.128,
      "duration": 0.256,
      "velocity": 0.56,
      "hand": "left"
    },
    {
      "midi": 47,
      "time": 190.384,
      "duration": 0.256,
      "velocity": 0.56,
      "hand": "left"
    },
    {
      "midi": 66,
      "time": 190.384,
      "duration": 0.242,
      "velocity": 0.54,
      "hand": "right"
    },
    {
      "midi": 45,
      "time": 190.641,
      "duration": 0.256,
      "velocity": 0.54,
      "hand": "left"
    },
    {
      "midi": 66,
      "time": 190.641,
      "duration": 0.256,
      "velocity": 0.62,
      "hand": "right"
    },
    {
      "midi": 43,
      "time": 190.897,
      "duration": 0.256,
      "velocity": 0.54,
      "hand": "left"
    },
    {
      "midi": 64,
      "time": 190.897,
      "duration": 0.256,
      "velocity": 0.62,
      "hand": "right"
    },
    {
      "midi": 71,
      "time": 190.897,
      "duration": 0.769,
      "velocity": 0.6,
      "hand": "right"
    },
    {
      "midi": 42,
      "time": 191.153,
      "duration": 0.256,
      "velocity": 0.54,
      "hand": "left"
    },
    {
      "midi": 62,
      "time": 191.153,
      "duration": 0.256,
      "velocity": 0.61,
      "hand": "right"
    },
    {
      "midi": 40,
      "time": 191.41,
      "duration": 0.385,
      "velocity": 0.54,
      "hand": "left"
    },
    {
      "midi": 60,
      "time": 191.41,
      "duration": 2.179,
      "velocity": 0.6,
      "hand": "right"
    },
    {
      "midi": 72,
      "time": 191.666,
      "duration": 0.256,
      "velocity": 0.57,
      "hand": "right"
    },
    {
      "midi": 52,
      "time": 191.923,
      "duration": 0.513,
      "velocity": 0.51,
      "hand": "left"
    },
    {
      "midi": 71,
      "time": 191.923,
      "duration": 0.256,
      "velocity": 0.57,
      "hand": "right"
    },
    {
      "midi": 69,
      "time": 192.051,
      "duration": 0.256,
      "velocity": 0.56,
      "hand": "right"
    },
    {
      "midi": 54,
      "time": 192.307,
      "duration": 0.513,
      "velocity": 0.54,
      "hand": "left"
    },
    {
      "midi": 67,
      "time": 192.307,
      "duration": 0.256,
      "velocity": 0.56,
      "hand": "right"
    },
    {
      "midi": 66,
      "time": 192.564,
      "duration": 0.256,
      "velocity": 0.54,
      "hand": "right"
    },
    {
      "midi": 55,
      "time": 192.82,
      "duration": 0.897,
      "velocity": 0.56,
      "hand": "left"
    },
    {
      "midi": 64,
      "time": 192.82,
      "duration": 0.256,
      "velocity": 0.54,
      "hand": "right"
    },
    {
      "midi": 67,
      "time": 192.82,
      "duration": 0.513,
      "velocity": 0.5,
      "hand": "right"
    },
    {
      "midi": 62,
      "time": 193.077,
      "duration": 0.256,
      "velocity": 0.54,
      "hand": "right"
    },
    {
      "midi": 64,
      "time": 193.333,
      "duration": 1.026,
      "velocity": 0.57,
      "hand": "right"
    },
    {
      "midi": 69,
      "time": 193.333,
      "duration": 0.513,
      "velocity": 0.53,
      "hand": "right"
    },
    {
      "midi": 62,
      "time": 193.589,
      "duration": 0.256,
      "velocity": 0.6,
      "hand": "right"
    },
    {
      "midi": 57,
      "time": 193.846,
      "duration": 0.256,
      "velocity": 0.6,
      "hand": "left"
    },
    {
      "midi": 60,
      "time": 193.846,
      "duration": 0.256,
      "velocity": 0.58,
      "hand": "right"
    },
    {
      "midi": 71,
      "time": 193.846,
      "duration": 0.513,
      "velocity": 0.54,
      "hand": "right"
    },
    {
      "midi": 55,
      "time": 193.974,
      "duration": 0.256,
      "velocity": 0.57,
      "hand": "left"
    },
    {
      "midi": 59,
      "time": 193.974,
      "duration": 0.256,
      "velocity": 0.57,
      "hand": "left"
    },
    {
      "midi": 54,
      "time": 194.23,
      "duration": 0.385,
      "velocity": 0.6,
      "hand": "left"
    },
    {
      "midi": 57,
      "time": 194.23,
      "duration": 0.256,
      "velocity": 0.57,
      "hand": "left"
    },
    {
      "midi": 62,
      "time": 194.23,
      "duration": 1.154,
      "velocity": 0.57,
      "hand": "right"
    },
    {
      "midi": 72,
      "time": 194.23,
      "duration": 0.769,
      "velocity": 0.6,
      "hand": "right"
    },
    {
      "midi": 55,
      "time": 194.487,
      "duration": 0.256,
      "velocity": 0.56,
      "hand": "left"
    },
    {
      "midi": 50,
      "time": 194.743,
      "duration": 0.513,
      "velocity": 0.57,
      "hand": "left"
    },
    {
      "midi": 57,
      "time": 194.743,
      "duration": 0.128,
      "velocity": 0.57,
      "hand": "left"
    },
    {
      "midi": 54,
      "time": 195,
      "duration": 0.256,
      "velocity": 0.54,
      "hand": "left"
    },
    {
      "midi": 74,
      "time": 195,
      "duration": 0.128,
      "velocity": 0.57,
      "hand": "right"
    },
    {
      "midi": 72,
      "time": 195.128,
      "duration": 0.128,
      "velocity": 0.57,
      "hand": "right"
    },
    {
      "midi": 55,
      "time": 195.256,
      "duration": 3.846,
      "velocity": 0.58,
      "hand": "left"
    },
    {
      "midi": 71,
      "time": 195.256,
      "duration": 0.513,
      "velocity": 0.57,
      "hand": "right"
    },
    {
      "midi": 69,
      "time": 195.512,
      "duration": 0.256,
      "velocity": 0.57,
      "hand": "right"
    },
    {
      "midi": 59,
      "time": 195.769,
      "duration": 0.513,
      "velocity": 0.57,
      "hand": "left"
    },
    {
      "midi": 67,
      "time": 195.769,
      "duration": 0.256,
      "velocity": 0.57,
      "hand": "right"
    },
    {
      "midi": 76,
      "time": 195.769,
      "duration": 0.513,
      "velocity": 0.6,
      "hand": "right"
    },
    {
      "midi": 65,
      "time": 196.025,
      "duration": 0.256,
      "velocity": 0.56,
      "hand": "right"
    },
    {
      "midi": 69,
      "time": 196.153,
      "duration": 0.385,
      "velocity": 0.57,
      "hand": "right"
    },
    {
      "midi": 60,
      "time": 196.282,
      "duration": 0.513,
      "velocity": 0.6,
      "hand": "right"
    },
    {
      "midi": 64,
      "time": 196.282,
      "duration": 0.256,
      "velocity": 0.56,
      "hand": "right"
    },
    {
      "midi": 67,
      "time": 196.41,
      "duration": 0.256,
      "velocity": 0.6,
      "hand": "right"
    },
    {
      "midi": 62,
      "time": 196.666,
      "duration": 0.513,
      "velocity": 0.62,
      "hand": "right"
    },
    {
      "midi": 65,
      "time": 196.666,
      "duration": 0.256,
      "velocity": 0.56,
      "hand": "right"
    },
    {
      "midi": 74,
      "time": 196.666,
      "duration": 0.769,
      "velocity": 0.6,
      "hand": "right"
    },
    {
      "midi": 69,
      "time": 196.923,
      "duration": 0.256,
      "velocity": 0.56,
      "hand": "right"
    },
    {
      "midi": 64,
      "time": 197.179,
      "duration": 0.641,
      "velocity": 0.65,
      "hand": "right"
    },
    {
      "midi": 67,
      "time": 197.179,
      "duration": 1.154,
      "velocity": 0.57,
      "hand": "right"
    },
    {
      "midi": 76,
      "time": 197.436,
      "duration": 0.256,
      "velocity": 0.6,
      "hand": "right"
    },
    {
      "midi": 74,
      "time": 197.692,
      "duration": 0.256,
      "velocity": 0.57,
      "hand": "right"
    },
    {
      "midi": 65,
      "time": 197.82,
      "duration": 0.128,
      "velocity": 0.6,
      "hand": "right"
    },
    {
      "midi": 72,
      "time": 197.82,
      "duration": 0.256,
      "velocity": 0.56,
      "hand": "right"
    },
    {
      "midi": 64,
      "time": 197.948,
      "duration": 0.128,
      "velocity": 0.6,
      "hand": "right"
    },
    {
      "midi": 62,
      "time": 198.077,
      "duration": 0.385,
      "velocity": 0.6,
      "hand": "right"
    },
    {
      "midi": 71,
      "time": 198.077,
      "duration": 0.256,
      "velocity": 0.54,
      "hand": "right"
    },
    {
      "midi": 69,
      "time": 198.333,
      "duration": 0.256,
      "velocity": 0.56,
      "hand": "right"
    },
    {
      "midi": 72,
      "time": 198.333,
      "duration": 0.256,
      "velocity": 0.54,
      "hand": "right"
    },
    {
      "midi": 67,
      "time": 198.589,
      "duration": 0.513,
      "velocity": 0.65,
      "hand": "right"
    },
    {
      "midi": 70,
      "time": 198.589,
      "duration": 0.513,
      "velocity": 0.56,
      "hand": "right"
    },
    {
      "midi": 74,
      "time": 198.589,
      "duration": 0.256,
      "velocity": 0.57,
      "hand": "right"
    },
    {
      "midi": 76,
      "time": 198.846,
      "duration": 0.256,
      "velocity": 0.58,
      "hand": "right"
    },
    {
      "midi": 57,
      "time": 199.102,
      "duration": 1.026,
      "velocity": 0.51,
      "hand": "left"
    },
    {
      "midi": 60,
      "time": 199.102,
      "duration": 0.385,
      "velocity": 0.57,
      "hand": "right"
    },
    {
      "midi": 72,
      "time": 199.102,
      "duration": 1.026,
      "velocity": 0.54,
      "hand": "right"
    },
    {
      "midi": 77,
      "time": 199.102,
      "duration": 0.256,
      "velocity": 0.61,
      "hand": "right"
    },
    {
      "midi": 79,
      "time": 199.359,
      "duration": 0.256,
      "velocity": 0.61,
      "hand": "right"
    },
    {
      "midi": 65,
      "time": 199.615,
      "duration": 0.769,
      "velocity": 0.65,
      "hand": "right"
    },
    {
      "midi": 81,
      "time": 199.615,
      "duration": 0.256,
      "velocity": 0.61,
      "hand": "right"
    },
    {
      "midi": 79,
      "time": 199.871,
      "duration": 0.256,
      "velocity": 0.6,
      "hand": "right"
    },
    {
      "midi": 59,
      "time": 200,
      "duration": 0.513,
      "velocity": 0.57,
      "hand": "left"
    },
    {
      "midi": 74,
      "time": 200,
      "duration": 0.385,
      "velocity": 0.6,
      "hand": "right"
    },
    {
      "midi": 77,
      "time": 200,
      "duration": 0.256,
      "velocity": 0.6,
      "hand": "right"
    },
    {
      "midi": 67,
      "time": 200.256,
      "duration": 0.241,
      "velocity": 0.61,
      "hand": "right"
    },
    {
      "midi": 76,
      "time": 200.256,
      "duration": 0.256,
      "velocity": 0.58,
      "hand": "right"
    },
    {
      "midi": 60,
      "time": 200.512,
      "duration": 0.513,
      "velocity": 0.57,
      "hand": "right"
    },
    {
      "midi": 65,
      "time": 200.512,
      "duration": 0.256,
      "velocity": 0.6,
      "hand": "right"
    },
    {
      "midi": 67,
      "time": 200.512,
      "duration": 0.498,
      "velocity": 0.57,
      "hand": "right"
    },
    {
      "midi": 74,
      "time": 200.512,
      "duration": 0.256,
      "velocity": 0.58,
      "hand": "right"
    },
    {
      "midi": 64,
      "time": 200.769,
      "duration": 0.256,
      "velocity": 0.57,
      "hand": "right"
    },
    {
      "midi": 72,
      "time": 200.769,
      "duration": 0.256,
      "velocity": 0.57,
      "hand": "right"
    },
    {
      "midi": 53,
      "time": 201.025,
      "duration": 0.128,
      "velocity": 0.57,
      "hand": "left"
    },
    {
      "midi": 62,
      "time": 201.025,
      "duration": 1.026,
      "velocity": 0.57,
      "hand": "right"
    },
    {
      "midi": 67,
      "time": 201.025,
      "duration": 1.41,
      "velocity": 0.6,
      "hand": "right"
    },
    {
      "midi": 71,
      "time": 201.025,
      "duration": 1.026,
      "velocity": 0.57,
      "hand": "right"
    },
    {
      "midi": 57,
      "time": 201.282,
      "duration": 0.256,
      "velocity": 0.6,
      "hand": "left"
    },
    {
      "midi": 55,
      "time": 201.538,
      "duration": 0.256,
      "velocity": 0.58,
      "hand": "left"
    },
    {
      "midi": 53,
      "time": 201.795,
      "duration": 0.256,
      "velocity": 0.57,
      "hand": "left"
    },
    {
      "midi": 52,
      "time": 202.051,
      "duration": 0.256,
      "velocity": 0.57,
      "hand": "left"
    },
    {
      "midi": 64,
      "time": 202.051,
      "duration": 0.513,
      "velocity": 0.6,
      "hand": "right"
    },
    {
      "midi": 72,
      "time": 202.051,
      "duration": 0.513,
      "velocity": 0.57,
      "hand": "right"
    },
    {
      "midi": 50,
      "time": 202.307,
      "duration": 0.256,
      "velocity": 0.56,
      "hand": "left"
    },
    {
      "midi": 48,
      "time": 202.436,
      "duration": 0.256,
      "velocity": 0.56,
      "hand": "left"
    },
    {
      "midi": 62,
      "time": 202.436,
      "duration": 1.026,
      "velocity": 0.6,
      "hand": "right"
    },
    {
      "midi": 65,
      "time": 202.436,
      "duration": 1.026,
      "velocity": 0.57,
      "hand": "right"
    },
    {
      "midi": 74,
      "time": 202.436,
      "duration": 0.513,
      "velocity": 0.57,
      "hand": "right"
    },
    {
      "midi": 47,
      "time": 202.692,
      "duration": 0.256,
      "velocity": 0.54,
      "hand": "left"
    },
    {
      "midi": 48,
      "time": 202.948,
      "duration": 0.256,
      "velocity": 0.5,
      "hand": "left"
    },
    {
      "midi": 67,
      "time": 202.948,
      "duration": 0.513,
      "velocity": 0.57,
      "hand": "right"
    },
    {
      "midi": 50,
      "time": 203.205,
      "duration": 0.256,
      "velocity": 0.53,
      "hand": "left"
    },
    {
      "midi": 52,
      "time": 203.461,
      "duration": 0.256,
      "velocity": 0.56,
      "hand": "left"
    },
    {
      "midi": 55,
      "time": 203.461,
      "duration": 0.513,
      "velocity": 0.57,
      "hand": "left"
    },
    {
      "midi": 64,
      "time": 203.461,
      "duration": 0.513,
      "velocity": 0.57,
      "hand": "right"
    },
    {
      "midi": 72,
      "time": 203.461,
      "duration": 1.154,
      "velocity": 0.6,
      "hand": "right"
    },
    {
      "midi": 53,
      "time": 203.718,
      "duration": 0.256,
      "velocity": 0.57,
      "hand": "left"
    },
    {
      "midi": 55,
      "time": 204.102,
      "duration": 1.538,
      "velocity": 0.61,
      "hand": "left"
    },
    {
      "midi": 62,
      "time": 204.102,
      "duration": 1.154,
      "velocity": 0.57,
      "hand": "right"
    },
    {
      "midi": 43,
      "time": 204.615,
      "duration": 0.513,
      "velocity": 0.57,
      "hand": "left"
    },
    {
      "midi": 71,
      "time": 204.615,
      "duration": 0.513,
      "velocity": 0.57,
      "hand": "right"
    },
    {
      "midi": 48,
      "time": 205.128,
      "duration": 0.498,
      "velocity": 0.6,
      "hand": "left"
    },
    {
      "midi": 64,
      "time": 205.128,
      "duration": 0.513,
      "velocity": 0.56,
      "hand": "right"
    },
    {
      "midi": 72,
      "time": 205.128,
      "duration": 1.026,
      "velocity": 0.6,
      "hand": "right"
    },
    {
      "midi": 48,
      "time": 205.641,
      "duration": 10,
      "velocity": 0.5,
      "hand": "left"
    },
    {
      "midi": 69,
      "time": 205.641,
      "duration": 1.026,
      "velocity": 0.68,
      "hand": "right"
    },
    {
      "midi": 71,
      "time": 206.153,
      "duration": 0.513,
      "velocity": 0.67,
      "hand": "right"
    },
    {
      "midi": 50,
      "time": 206.282,
      "duration": 0.513,
      "velocity": 0.53,
      "hand": "left"
    },
    {
      "midi": 52,
      "time": 206.795,
      "duration": 0.513,
      "velocity": 0.54,
      "hand": "left"
    },
    {
      "midi": 67,
      "time": 206.795,
      "duration": 1.026,
      "velocity": 0.56,
      "hand": "right"
    },
    {
      "midi": 70,
      "time": 206.795,
      "duration": 0.513,
      "velocity": 0.67,
      "hand": "right"
    },
    {
      "midi": 53,
      "time": 207.307,
      "duration": 0.769,
      "velocity": 0.6,
      "hand": "left"
    },
    {
      "midi": 69,
      "time": 207.307,
      "duration": 0.513,
      "velocity": 0.65,
      "hand": "right"
    },
    {
      "midi": 65,
      "time": 207.82,
      "duration": 0.513,
      "velocity": 0.56,
      "hand": "right"
    },
    {
      "midi": 74,
      "time": 207.82,
      "duration": 1.026,
      "velocity": 0.72,
      "hand": "right"
    },
    {
      "midi": 55,
      "time": 208.077,
      "duration": 0.128,
      "velocity": 0.56,
      "hand": "left"
    },
    {
      "midi": 53,
      "time": 208.205,
      "duration": 0.128,
      "velocity": 0.56,
      "hand": "left"
    },
    {
      "midi": 52,
      "time": 208.333,
      "duration": 0.513,
      "velocity": 0.57,
      "hand": "left"
    },
    {
      "midi": 67,
      "time": 208.333,
      "duration": 0.513,
      "velocity": 0.57,
      "hand": "right"
    },
    {
      "midi": 57,
      "time": 208.846,
      "duration": 0.513,
      "velocity": 0.6,
      "hand": "left"
    },
    {
      "midi": 69,
      "time": 208.846,
      "duration": 0.513,
      "velocity": 0.57,
      "hand": "right"
    },
    {
      "midi": 72,
      "time": 208.846,
      "duration": 0.513,
      "velocity": 0.67,
      "hand": "right"
    },
    {
      "midi": 50,
      "time": 209.359,
      "duration": 0.513,
      "velocity": 0.54,
      "hand": "left"
    },
    {
      "midi": 70,
      "time": 209.359,
      "duration": 0.769,
      "velocity": 0.6,
      "hand": "right"
    },
    {
      "midi": 74,
      "time": 209.359,
      "duration": 0.513,
      "velocity": 0.67,
      "hand": "right"
    },
    {
      "midi": 55,
      "time": 209.871,
      "duration": 0.769,
      "velocity": 0.6,
      "hand": "left"
    },
    {
      "midi": 76,
      "time": 209.871,
      "duration": 0.513,
      "velocity": 0.69,
      "hand": "right"
    },
    {
      "midi": 72,
      "time": 210.128,
      "duration": 0.128,
      "velocity": 0.57,
      "hand": "right"
    },
    {
      "midi": 70,
      "time": 210.256,
      "duration": 0.128,
      "velocity": 0.57,
      "hand": "right"
    },
    {
      "midi": 69,
      "time": 210.384,
      "duration": 0.513,
      "velocity": 0.57,
      "hand": "right"
    },
    {
      "midi": 77,
      "time": 210.384,
      "duration": 1.282,
      "velocity": 0.74,
      "hand": "right"
    },
    {
      "midi": 57,
      "time": 210.641,
      "duration": 0.256,
      "velocity": 0.57,
      "hand": "left"
    },
    {
      "midi": 55,
      "time": 210.897,
      "duration": 0.256,
      "velocity": 0.57,
      "hand": "left"
    },
    {
      "midi": 74,
      "time": 210.897,
      "duration": 0.513,
      "velocity": 0.6,
      "hand": "right"
    },
    {
      "midi": 53,
      "time": 211.282,
      "duration": 0.256,
      "velocity": 0.57,
      "hand": "left"
    },
    {
      "midi": 52,
      "time": 211.538,
      "duration": 0.256,
      "velocity": 0.57,
      "hand": "left"
    },
    {
      "midi": 67,
      "time": 211.538,
      "duration": 0.513,
      "velocity": 0.54,
      "hand": "right"
    },
    {
      "midi": 50,
      "time": 211.795,
      "duration": 0.256,
      "velocity": 0.56,
      "hand": "left"
    },
    {
      "midi": 81,
      "time": 211.795,
      "duration": 0.256,
      "velocity": 0.69,
      "hand": "right"
    },
    {
      "midi": 52,
      "time": 212.051,
      "duration": 0.256,
      "velocity": 0.56,
      "hand": "left"
    },
    {
      "midi": 72,
      "time": 212.051,
      "duration": 0.769,
      "velocity": 0.6,
      "hand": "right"
    },
    {
      "midi": 79,
      "time": 212.051,
      "duration": 0.256,
      "velocity": 0.69,
      "hand": "right"
    },
    {
      "midi": 53,
      "time": 212.307,
      "duration": 0.256,
      "velocity": 0.56,
      "hand": "left"
    },
    {
      "midi": 77,
      "time": 212.307,
      "duration": 0.256,
      "velocity": 0.68,
      "hand": "right"
    },
    {
      "midi": 55,
      "time": 212.564,
      "duration": 0.256,
      "velocity": 0.57,
      "hand": "left"
    },
    {
      "midi": 76,
      "time": 212.564,
      "duration": 0.256,
      "velocity": 0.67,
      "hand": "right"
    },
    {
      "midi": 57,
      "time": 212.82,
      "duration": 0.256,
      "velocity": 0.58,
      "hand": "left"
    },
    {
      "midi": 74,
      "time": 212.82,
      "duration": 0.256,
      "velocity": 0.61,
      "hand": "right"
    },
    {
      "midi": 77,
      "time": 212.82,
      "duration": 0.256,
      "velocity": 0.69,
      "hand": "right"
    },
    {
      "midi": 58,
      "time": 213.077,
      "duration": 0.256,
      "velocity": 0.62,
      "hand": "left"
    },
    {
      "midi": 72,
      "time": 213.077,
      "duration": 0.256,
      "velocity": 0.61,
      "hand": "right"
    },
    {
      "midi": 76,
      "time": 213.077,
      "duration": 0.256,
      "velocity": 0.68,
      "hand": "right"
    },
    {
      "midi": 55,
      "time": 213.333,
      "duration": 0.256,
      "velocity": 0.6,
      "hand": "left"
    },
    {
      "midi": 70,
      "time": 213.333,
      "duration": 0.256,
      "velocity": 0.61,
      "hand": "right"
    },
    {
      "midi": 74,
      "time": 213.333,
      "duration": 0.256,
      "velocity": 0.67,
      "hand": "right"
    },
    {
      "midi": 57,
      "time": 213.718,
      "duration": 0.256,
      "velocity": 0.6,
      "hand": "left"
    },
    {
      "midi": 69,
      "time": 213.718,
      "duration": 0.256,
      "velocity": 0.61,
      "hand": "right"
    },
    {
      "midi": 72,
      "time": 213.718,
      "duration": 2.179,
      "velocity": 0.69,
      "hand": "right"
    },
    {
      "midi": 52,
      "time": 213.974,
      "duration": 0.256,
      "velocity": 0.62,
      "hand": "left"
    },
    {
      "midi": 70,
      "time": 213.974,
      "duration": 0.256,
      "velocity": 0.61,
      "hand": "right"
    },
    {
      "midi": 53,
      "time": 214.23,
      "duration": 0.256,
      "velocity": 0.54,
      "hand": "left"
    },
    {
      "midi": 69,
      "time": 214.23,
      "duration": 0.256,
      "velocity": 0.61,
      "hand": "right"
    },
    {
      "midi": 55,
      "time": 214.487,
      "duration": 0.256,
      "velocity": 0.57,
      "hand": "left"
    },
    {
      "midi": 67,
      "time": 214.487,
      "duration": 0.256,
      "velocity": 0.6,
      "hand": "right"
    },
    {
      "midi": 57,
      "time": 214.743,
      "duration": 0.256,
      "velocity": 0.58,
      "hand": "left"
    },
    {
      "midi": 65,
      "time": 214.743,
      "duration": 0.256,
      "velocity": 0.6,
      "hand": "right"
    },
    {
      "midi": 59,
      "time": 215,
      "duration": 0.256,
      "velocity": 0.6,
      "hand": "left"
    },
    {
      "midi": 67,
      "time": 215,
      "duration": 0.256,
      "velocity": 0.6,
      "hand": "right"
    },
    {
      "midi": 65,
      "time": 215.256,
      "duration": 0.256,
      "velocity": 0.58,
      "hand": "right"
    },
    {
      "midi": 60,
      "time": 215.384,
      "duration": 0.256,
      "velocity": 0.61,
      "hand": "right"
    },
    {
      "midi": 57,
      "time": 215.641,
      "duration": 0.256,
      "velocity": 0.57,
      "hand": "left"
    },
    {
      "midi": 64,
      "time": 215.641,
      "duration": 0.256,
      "velocity": 0.58,
      "hand": "right"
    },
    {
      "midi": 59,
      "time": 215.897,
      "duration": 2.308,
      "velocity": 0.61,
      "hand": "left"
    },
    {
      "midi": 62,
      "time": 215.897,
      "duration": 2.051,
      "velocity": 0.58,
      "hand": "right"
    },
    {
      "midi": 67,
      "time": 216.153,
      "duration": 0.128,
      "velocity": 0.56,
      "hand": "right"
    },
    {
      "midi": 69,
      "time": 216.282,
      "duration": 0.128,
      "velocity": 0.57,
      "hand": "right"
    },
    {
      "midi": 71,
      "time": 216.41,
      "duration": 0.256,
      "velocity": 0.57,
      "hand": "right"
    },
    {
      "midi": 72,
      "time": 216.795,
      "duration": 0.256,
      "velocity": 0.58,
      "hand": "right"
    },
    {
      "midi": 74,
      "time": 217.051,
      "duration": 0.256,
      "velocity": 0.6,
      "hand": "right"
    },
    {
      "midi": 76,
      "time": 217.307,
      "duration": 0.256,
      "velocity": 0.61,
      "hand": "right"
    },
    {
      "midi": 77,
      "time": 217.564,
      "duration": 0.769,
      "velocity": 0.62,
      "hand": "right"
    },
    {
      "midi": 67,
      "time": 217.948,
      "duration": 0.256,
      "velocity": 0.57,
      "hand": "right"
    },
    {
      "midi": 60,
      "time": 218.205,
      "duration": 7.308,
      "velocity": 0.6,
      "hand": "right"
    },
    {
      "midi": 69,
      "time": 218.205,
      "duration": 1.154,
      "velocity": 0.6,
      "hand": "right"
    },
    {
      "midi": 72,
      "time": 218.333,
      "duration": 0.128,
      "velocity": 0.54,
      "hand": "right"
    },
    {
      "midi": 74,
      "time": 218.461,
      "duration": 0.128,
      "velocity": 0.57,
      "hand": "right"
    },
    {
      "midi": 76,
      "time": 218.589,
      "duration": 0.128,
      "velocity": 0.57,
      "hand": "right"
    },
    {
      "midi": 77,
      "time": 218.718,
      "duration": 0.256,
      "velocity": 0.58,
      "hand": "right"
    },
    {
      "midi": 79,
      "time": 218.974,
      "duration": 0.256,
      "velocity": 0.61,
      "hand": "right"
    },
    {
      "midi": 81,
      "time": 219.359,
      "duration": 1.154,
      "velocity": 0.65,
      "hand": "right"
    },
    {
      "midi": 77,
      "time": 219.615,
      "duration": 0.385,
      "velocity": 0.57,
      "hand": "right"
    },
    {
      "midi": 74,
      "time": 220,
      "duration": 1.026,
      "velocity": 0.57,
      "hand": "right"
    },
    {
      "midi": 83,
      "time": 220.384,
      "duration": 0.513,
      "velocity": 0.64,
      "hand": "right"
    },
    {
      "midi": 76,
      "time": 221.025,
      "duration": 4.487,
      "velocity": 0.47,
      "hand": "right"
    },
    {
      "midi": 79,
      "time": 221.025,
      "duration": 4.487,
      "velocity": 0.51,
      "hand": "right"
    },
    {
      "midi": 84,
      "time": 221.025,
      "duration": 4.487,
      "velocity": 0.56,
      "hand": "right"
    }
  ],
  "arrangements": {
    "easy": [
      {
        "midi": 60,
        "time": 0,
        "duration": 1.523,
        "velocity": 0.61,
        "hand": "right"
      },
      {
        "midi": 72,
        "time": 0.641,
        "duration": 0.308,
        "velocity": 0.6,
        "hand": "right"
      },
      {
        "midi": 76,
        "time": 1.41,
        "duration": 0.308,
        "velocity": 0.46,
        "hand": "right"
      },
      {
        "midi": 67,
        "time": 2.051,
        "duration": 0.308,
        "velocity": 0.56,
        "hand": "right"
      },
      {
        "midi": 72,
        "time": 2.82,
        "duration": 0.308,
        "velocity": 0.47,
        "hand": "right"
      },
      {
        "midi": 62,
        "time": 3.461,
        "duration": 1.41,
        "velocity": 0.6,
        "hand": "right"
      },
      {
        "midi": 69,
        "time": 4.23,
        "duration": 0.308,
        "velocity": 0.5,
        "hand": "right"
      },
      {
        "midi": 62,
        "time": 5,
        "duration": 1.41,
        "velocity": 0.6,
        "hand": "right"
      },
      {
        "midi": 77,
        "time": 5.641,
        "duration": 0.308,
        "velocity": 0.65,
        "hand": "right"
      },
      {
        "midi": 59,
        "time": 6.41,
        "duration": 1.523,
        "velocity": 0.65,
        "hand": "right"
      },
      {
        "midi": 77,
        "time": 7.179,
        "duration": 0.308,
        "velocity": 0.65,
        "hand": "right"
      },
      {
        "midi": 59,
        "time": 7.948,
        "duration": 1.538,
        "velocity": 0.65,
        "hand": "right"
      },
      {
        "midi": 74,
        "time": 8.589,
        "duration": 0.308,
        "velocity": 0.6,
        "hand": "right"
      },
      {
        "midi": 77,
        "time": 9.359,
        "duration": 0.308,
        "velocity": 0.5,
        "hand": "right"
      },
      {
        "midi": 72,
        "time": 10.128,
        "duration": 0.308,
        "velocity": 0.54,
        "hand": "right"
      },
      {
        "midi": 72,
        "time": 10.769,
        "duration": 0.308,
        "velocity": 0.46,
        "hand": "right"
      },
      {
        "midi": 67,
        "time": 11.538,
        "duration": 0.308,
        "velocity": 0.54,
        "hand": "right"
      },
      {
        "midi": 72,
        "time": 12.307,
        "duration": 0.308,
        "velocity": 0.47,
        "hand": "right"
      },
      {
        "midi": 64,
        "time": 12.948,
        "duration": 1.41,
        "velocity": 0.61,
        "hand": "right"
      },
      {
        "midi": 69,
        "time": 13.718,
        "duration": 0.308,
        "velocity": 0.54,
        "hand": "right"
      },
      {
        "midi": 64,
        "time": 14.487,
        "duration": 1.41,
        "velocity": 0.61,
        "hand": "right"
      },
      {
        "midi": 81,
        "time": 15.128,
        "duration": 0.308,
        "velocity": 0.68,
        "hand": "right"
      },
      {
        "midi": 60,
        "time": 15.897,
        "duration": 1.524,
        "velocity": 0.61,
        "hand": "right"
      },
      {
        "midi": 74,
        "time": 16.666,
        "duration": 0.308,
        "velocity": 0.62,
        "hand": "right"
      },
      {
        "midi": 60,
        "time": 17.436,
        "duration": 1.538,
        "velocity": 0.61,
        "hand": "right"
      },
      {
        "midi": 69,
        "time": 18.077,
        "duration": 0.308,
        "velocity": 0.6,
        "hand": "right"
      },
      {
        "midi": 74,
        "time": 18.846,
        "duration": 0.308,
        "velocity": 0.47,
        "hand": "right"
      },
      {
        "midi": 74,
        "time": 19.615,
        "duration": 0.308,
        "velocity": 0.62,
        "hand": "right"
      },
      {
        "midi": 74,
        "time": 20.256,
        "duration": 0.308,
        "velocity": 0.5,
        "hand": "right"
      },
      {
        "midi": 67,
        "time": 21.025,
        "duration": 0.308,
        "velocity": 0.57,
        "hand": "right"
      },
      {
        "midi": 74,
        "time": 21.795,
        "duration": 0.308,
        "velocity": 0.5,
        "hand": "right"
      },
      {
        "midi": 60,
        "time": 22.436,
        "duration": 1.41,
        "velocity": 0.57,
        "hand": "right"
      },
      {
        "midi": 64,
        "time": 23.205,
        "duration": 0.308,
        "velocity": 0.5,
        "hand": "right"
      },
      {
        "midi": 60,
        "time": 23.974,
        "duration": 1.41,
        "velocity": 0.57,
        "hand": "right"
      },
      {
        "midi": 72,
        "time": 24.615,
        "duration": 0.308,
        "velocity": 0.61,
        "hand": "right"
      },
      {
        "midi": 57,
        "time": 25.384,
        "duration": 1.524,
        "velocity": 0.61,
        "hand": "right"
      },
      {
        "midi": 72,
        "time": 26.153,
        "duration": 0.308,
        "velocity": 0.62,
        "hand": "right"
      },
      {
        "midi": 72,
        "time": 26.795,
        "duration": 0.308,
        "velocity": 0.46,
        "hand": "right"
      },
      {
        "midi": 67,
        "time": 27.564,
        "duration": 0.308,
        "velocity": 0.6,
        "hand": "right"
      },
      {
        "midi": 72,
        "time": 28.333,
        "duration": 0.308,
        "velocity": 0.47,
        "hand": "right"
      },
      {
        "midi": 62,
        "time": 28.974,
        "duration": 0.308,
        "velocity": 0.56,
        "hand": "right"
      },
      {
        "midi": 62,
        "time": 29.615,
        "duration": 0.308,
        "velocity": 0.5,
        "hand": "right"
      },
      {
        "midi": 57,
        "time": 30.384,
        "duration": 1.41,
        "velocity": 0.57,
        "hand": "right"
      },
      {
        "midi": 72,
        "time": 31.025,
        "duration": 0.308,
        "velocity": 0.61,
        "hand": "right"
      },
      {
        "midi": 55,
        "time": 31.795,
        "duration": 1.523,
        "velocity": 0.57,
        "hand": "right"
      },
      {
        "midi": 67,
        "time": 32.436,
        "duration": 0.308,
        "velocity": 0.56,
        "hand": "right"
      },
      {
        "midi": 71,
        "time": 33.205,
        "duration": 0.308,
        "velocity": 0.44,
        "hand": "right"
      },
      {
        "midi": 67,
        "time": 33.974,
        "duration": 0.308,
        "velocity": 0.56,
        "hand": "right"
      },
      {
        "midi": 71,
        "time": 34.743,
        "duration": 0.308,
        "velocity": 0.44,
        "hand": "right"
      },
      {
        "midi": 64,
        "time": 35.384,
        "duration": 0.308,
        "velocity": 0.53,
        "hand": "right"
      },
      {
        "midi": 67,
        "time": 36.153,
        "duration": 0.308,
        "velocity": 0.44,
        "hand": "right"
      },
      {
        "midi": 64,
        "time": 36.923,
        "duration": 0.308,
        "velocity": 0.53,
        "hand": "right"
      },
      {
        "midi": 64,
        "time": 37.564,
        "duration": 0.308,
        "velocity": 0.46,
        "hand": "right"
      },
      {
        "midi": 57,
        "time": 38.333,
        "duration": 1.41,
        "velocity": 0.57,
        "hand": "right"
      },
      {
        "midi": 74,
        "time": 38.974,
        "duration": 0.308,
        "velocity": 0.62,
        "hand": "right"
      },
      {
        "midi": 65,
        "time": 39.743,
        "duration": 1.524,
        "velocity": 0.61,
        "hand": "right"
      },
      {
        "midi": 74,
        "time": 40.512,
        "duration": 0.308,
        "velocity": 0.61,
        "hand": "right"
      },
      {
        "midi": 74,
        "time": 41.153,
        "duration": 0.308,
        "velocity": 0.47,
        "hand": "right"
      },
      {
        "midi": 65,
        "time": 41.923,
        "duration": 0.308,
        "velocity": 0.56,
        "hand": "right"
      },
      {
        "midi": 71,
        "time": 42.692,
        "duration": 0.308,
        "velocity": 0.44,
        "hand": "right"
      },
      {
        "midi": 62,
        "time": 43.333,
        "duration": 0.308,
        "velocity": 0.53,
        "hand": "right"
      },
      {
        "midi": 65,
        "time": 44.102,
        "duration": 0.308,
        "velocity": 0.44,
        "hand": "right"
      },
      {
        "midi": 60,
        "time": 44.871,
        "duration": 0.308,
        "velocity": 0.53,
        "hand": "right"
      },
      {
        "midi": 60,
        "time": 45.512,
        "duration": 0.308,
        "velocity": 0.46,
        "hand": "right"
      },
      {
        "midi": 55,
        "time": 46.282,
        "duration": 1.41,
        "velocity": 0.54,
        "hand": "right"
      },
      {
        "midi": 60,
        "time": 47.051,
        "duration": 0.308,
        "velocity": 0.46,
        "hand": "right"
      },
      {
        "midi": 64,
        "time": 47.692,
        "duration": 1.523,
        "velocity": 0.54,
        "hand": "right"
      },
      {
        "midi": 65,
        "time": 48.461,
        "duration": 0.308,
        "velocity": 0.56,
        "hand": "right"
      },
      {
        "midi": 64,
        "time": 49.23,
        "duration": 1.667,
        "velocity": 0.54,
        "hand": "right"
      },
      {
        "midi": 60,
        "time": 49.871,
        "duration": 0.308,
        "velocity": 0.53,
        "hand": "right"
      },
      {
        "midi": 65,
        "time": 50.641,
        "duration": 0.308,
        "velocity": 0.43,
        "hand": "right"
      },
      {
        "midi": 57,
        "time": 51.282,
        "duration": 0.308,
        "velocity": 0.5,
        "hand": "right"
      },
      {
        "midi": 60,
        "time": 52.051,
        "duration": 0.308,
        "velocity": 0.42,
        "hand": "right"
      },
      {
        "midi": 65,
        "time": 52.692,
        "duration": 1.41,
        "velocity": 0.5,
        "hand": "right"
      },
      {
        "midi": 57,
        "time": 53.461,
        "duration": 0.308,
        "velocity": 0.44,
        "hand": "right"
      },
      {
        "midi": 55,
        "time": 54.102,
        "duration": 1.524,
        "velocity": 0.54,
        "hand": "right"
      },
      {
        "midi": 65,
        "time": 54.871,
        "duration": 0.308,
        "velocity": 0.56,
        "hand": "right"
      },
      {
        "midi": 65,
        "time": 55.512,
        "duration": 0.308,
        "velocity": 0.42,
        "hand": "right"
      },
      {
        "midi": 59,
        "time": 56.282,
        "duration": 0.308,
        "velocity": 0.53,
        "hand": "right"
      },
      {
        "midi": 59,
        "time": 56.923,
        "duration": 0.308,
        "velocity": 0.43,
        "hand": "right"
      },
      {
        "midi": 55,
        "time": 57.692,
        "duration": 0.308,
        "velocity": 0.5,
        "hand": "right"
      },
      {
        "midi": 55,
        "time": 58.333,
        "duration": 0.308,
        "velocity": 0.44,
        "hand": "right"
      },
      {
        "midi": 60,
        "time": 58.974,
        "duration": 1.523,
        "velocity": 0.54,
        "hand": "right"
      },
      {
        "midi": 64,
        "time": 59.743,
        "duration": 0.308,
        "velocity": 0.54,
        "hand": "right"
      },
      {
        "midi": 64,
        "time": 60.384,
        "duration": 0.308,
        "velocity": 0.43,
        "hand": "right"
      },
      {
        "midi": 60,
        "time": 61.153,
        "duration": 0.308,
        "velocity": 0.5,
        "hand": "right"
      },
      {
        "midi": 64,
        "time": 61.923,
        "duration": 0.308,
        "velocity": 0.39,
        "hand": "right"
      },
      {
        "midi": 58,
        "time": 62.564,
        "duration": 0.308,
        "velocity": 0.46,
        "hand": "right"
      },
      {
        "midi": 60,
        "time": 63.333,
        "duration": 0.308,
        "velocity": 0.39,
        "hand": "right"
      },
      {
        "midi": 65,
        "time": 63.974,
        "duration": 1.395,
        "velocity": 0.47,
        "hand": "right"
      },
      {
        "midi": 57,
        "time": 64.743,
        "duration": 0.308,
        "velocity": 0.4,
        "hand": "right"
      },
      {
        "midi": 65,
        "time": 65.384,
        "duration": 1.667,
        "velocity": 0.51,
        "hand": "right"
      },
      {
        "midi": 64,
        "time": 66.153,
        "duration": 0.308,
        "velocity": 0.51,
        "hand": "right"
      },
      {
        "midi": 66,
        "time": 66.923,
        "duration": 1.651,
        "velocity": 0.54,
        "hand": "right"
      },
      {
        "midi": 60,
        "time": 67.564,
        "duration": 0.308,
        "velocity": 0.53,
        "hand": "right"
      },
      {
        "midi": 60,
        "time": 68.205,
        "duration": 0.308,
        "velocity": 0.42,
        "hand": "right"
      },
      {
        "midi": 57,
        "time": 68.974,
        "duration": 0.308,
        "velocity": 0.5,
        "hand": "right"
      },
      {
        "midi": 57,
        "time": 69.615,
        "duration": 0.308,
        "velocity": 0.44,
        "hand": "right"
      },
      {
        "midi": 56,
        "time": 70.256,
        "duration": 1.524,
        "velocity": 0.5,
        "hand": "right"
      },
      {
        "midi": 62,
        "time": 71.025,
        "duration": 0.308,
        "velocity": 0.53,
        "hand": "right"
      },
      {
        "midi": 56,
        "time": 71.795,
        "duration": 1.538,
        "velocity": 0.51,
        "hand": "right"
      },
      {
        "midi": 62,
        "time": 72.564,
        "duration": 0.308,
        "velocity": 0.51,
        "hand": "right"
      },
      {
        "midi": 62,
        "time": 73.205,
        "duration": 0.308,
        "velocity": 0.39,
        "hand": "right"
      },
      {
        "midi": 59,
        "time": 73.974,
        "duration": 0.308,
        "velocity": 0.53,
        "hand": "right"
      },
      {
        "midi": 59,
        "time": 74.615,
        "duration": 0.308,
        "velocity": 0.42,
        "hand": "right"
      },
      {
        "midi": 55,
        "time": 75.384,
        "duration": 0.308,
        "velocity": 0.5,
        "hand": "right"
      },
      {
        "midi": 59,
        "time": 76.153,
        "duration": 0.308,
        "velocity": 0.43,
        "hand": "right"
      },
      {
        "midi": 64,
        "time": 76.795,
        "duration": 1.41,
        "velocity": 0.5,
        "hand": "right"
      },
      {
        "midi": 55,
        "time": 77.564,
        "duration": 0.308,
        "velocity": 0.44,
        "hand": "right"
      },
      {
        "midi": 55,
        "time": 78.205,
        "duration": 1.523,
        "velocity": 0.54,
        "hand": "right"
      },
      {
        "midi": 64,
        "time": 78.974,
        "duration": 0.308,
        "velocity": 0.54,
        "hand": "right"
      },
      {
        "midi": 55,
        "time": 79.743,
        "duration": 1.524,
        "velocity": 0.57,
        "hand": "right"
      },
      {
        "midi": 60,
        "time": 80.384,
        "duration": 0.308,
        "velocity": 0.56,
        "hand": "right"
      },
      {
        "midi": 65,
        "time": 81.153,
        "duration": 0.308,
        "velocity": 0.44,
        "hand": "right"
      },
      {
        "midi": 60,
        "time": 81.923,
        "duration": 0.308,
        "velocity": 0.56,
        "hand": "right"
      },
      {
        "midi": 65,
        "time": 82.692,
        "duration": 0.308,
        "velocity": 0.44,
        "hand": "right"
      },
      {
        "midi": 55,
        "time": 83.333,
        "duration": 0.308,
        "velocity": 0.53,
        "hand": "right"
      },
      {
        "midi": 59,
        "time": 84.102,
        "duration": 0.308,
        "velocity": 0.44,
        "hand": "right"
      },
      {
        "midi": 55,
        "time": 84.871,
        "duration": 0.308,
        "velocity": 0.53,
        "hand": "right"
      },
      {
        "midi": 55,
        "time": 85.512,
        "duration": 0.308,
        "velocity": 0.46,
        "hand": "right"
      },
      {
        "midi": 63,
        "time": 86.282,
        "duration": 1.41,
        "velocity": 0.57,
        "hand": "right"
      },
      {
        "midi": 57,
        "time": 87.051,
        "duration": 0.308,
        "velocity": 0.5,
        "hand": "right"
      },
      {
        "midi": 55,
        "time": 87.692,
        "duration": 1.523,
        "velocity": 0.61,
        "hand": "right"
      },
      {
        "midi": 66,
        "time": 88.461,
        "duration": 0.308,
        "velocity": 0.61,
        "hand": "right"
      },
      {
        "midi": 66,
        "time": 89.102,
        "duration": 0.308,
        "velocity": 0.47,
        "hand": "right"
      },
      {
        "midi": 55,
        "time": 89.743,
        "duration": 0.308,
        "velocity": 0.57,
        "hand": "right"
      },
      {
        "midi": 55,
        "time": 90.384,
        "duration": 0.308,
        "velocity": 0.5,
        "hand": "right"
      },
      {
        "midi": 64,
        "time": 91.153,
        "duration": 1.41,
        "velocity": 0.6,
        "hand": "right"
      },
      {
        "midi": 67,
        "time": 91.795,
        "duration": 0.308,
        "velocity": 0.65,
        "hand": "right"
      },
      {
        "midi": 55,
        "time": 92.564,
        "duration": 1.523,
        "velocity": 0.54,
        "hand": "right"
      },
      {
        "midi": 60,
        "time": 93.205,
        "duration": 0.308,
        "velocity": 0.53,
        "hand": "right"
      },
      {
        "midi": 65,
        "time": 93.974,
        "duration": 0.308,
        "velocity": 0.42,
        "hand": "right"
      },
      {
        "midi": 55,
        "time": 94.615,
        "duration": 0.308,
        "velocity": 0.5,
        "hand": "right"
      },
      {
        "midi": 60,
        "time": 95.384,
        "duration": 0.308,
        "velocity": 0.43,
        "hand": "right"
      },
      {
        "midi": 55,
        "time": 96.153,
        "duration": 0.308,
        "velocity": 0.5,
        "hand": "right"
      },
      {
        "midi": 55,
        "time": 96.795,
        "duration": 0.308,
        "velocity": 0.44,
        "hand": "right"
      },
      {
        "midi": 62,
        "time": 97.564,
        "duration": 1.41,
        "velocity": 0.5,
        "hand": "right"
      },
      {
        "midi": 65,
        "time": 98.205,
        "duration": 0.308,
        "velocity": 0.54,
        "hand": "right"
      },
      {
        "midi": 60,
        "time": 98.974,
        "duration": 1.652,
        "velocity": 0.57,
        "hand": "right"
      },
      {
        "midi": 58,
        "time": 99.615,
        "duration": 0.308,
        "velocity": 0.56,
        "hand": "right"
      },
      {
        "midi": 58,
        "time": 100.256,
        "duration": 0.308,
        "velocity": 0.44,
        "hand": "right"
      },
      {
        "midi": 55,
        "time": 101.025,
        "duration": 0.308,
        "velocity": 0.53,
        "hand": "right"
      },
      {
        "midi": 55,
        "time": 101.666,
        "duration": 0.308,
        "velocity": 0.46,
        "hand": "right"
      },
      {
        "midi": 60,
        "time": 102.436,
        "duration": 0.626,
        "velocity": 0.5,
        "hand": "right"
      },
      {
        "midi": 60,
        "time": 103.077,
        "duration": 0.308,
        "velocity": 0.54,
        "hand": "right"
      },
      {
        "midi": 57,
        "time": 103.718,
        "duration": 0.308,
        "velocity": 0.53,
        "hand": "right"
      },
      {
        "midi": 57,
        "time": 104.487,
        "duration": 0.308,
        "velocity": 0.46,
        "hand": "right"
      },
      {
        "midi": 65,
        "time": 105.128,
        "duration": 0.308,
        "velocity": 0.43,
        "hand": "right"
      },
      {
        "midi": 62,
        "time": 105.769,
        "duration": 2.4,
        "velocity": 0.5,
        "hand": "right"
      },
      {
        "midi": 74,
        "time": 106.41,
        "duration": 0.308,
        "velocity": 0.54,
        "hand": "right"
      },
      {
        "midi": 71,
        "time": 107.051,
        "duration": 0.308,
        "velocity": 0.53,
        "hand": "right"
      },
      {
        "midi": 67,
        "time": 107.692,
        "duration": 0.308,
        "velocity": 0.56,
        "hand": "right"
      },
      {
        "midi": 65,
        "time": 108.461,
        "duration": 0.308,
        "velocity": 0.5,
        "hand": "right"
      },
      {
        "midi": 62,
        "time": 109.102,
        "duration": 0.513,
        "velocity": 0.5,
        "hand": "right"
      },
      {
        "midi": 60,
        "time": 117.692,
        "duration": 0.513,
        "velocity": 0.53,
        "hand": "right"
      },
      {
        "midi": 64,
        "time": 118.718,
        "duration": 0.513,
        "velocity": 0.56,
        "hand": "right"
      },
      {
        "midi": 67,
        "time": 119.871,
        "duration": 0.308,
        "velocity": 0.57,
        "hand": "right"
      },
      {
        "midi": 69,
        "time": 120.512,
        "duration": 0.513,
        "velocity": 0.6,
        "hand": "right"
      },
      {
        "midi": 67,
        "time": 121.538,
        "duration": 0.769,
        "velocity": 0.6,
        "hand": "right"
      },
      {
        "midi": 69,
        "time": 122.307,
        "duration": 0.308,
        "velocity": 0.58,
        "hand": "right"
      },
      {
        "midi": 64,
        "time": 122.948,
        "duration": 0.308,
        "velocity": 0.57,
        "hand": "right"
      },
      {
        "midi": 62,
        "time": 123.718,
        "duration": 0.308,
        "velocity": 0.57,
        "hand": "right"
      },
      {
        "midi": 71,
        "time": 124.359,
        "duration": 0.513,
        "velocity": 0.54,
        "hand": "right"
      },
      {
        "midi": 66,
        "time": 125.384,
        "duration": 0.513,
        "velocity": 0.56,
        "hand": "right"
      },
      {
        "midi": 76,
        "time": 126.282,
        "duration": 0.513,
        "velocity": 0.6,
        "hand": "right"
      },
      {
        "midi": 74,
        "time": 127.179,
        "duration": 0.641,
        "velocity": 0.6,
        "hand": "right"
      },
      {
        "midi": 76,
        "time": 127.948,
        "duration": 0.308,
        "velocity": 0.57,
        "hand": "right"
      },
      {
        "midi": 71,
        "time": 128.589,
        "duration": 0.308,
        "velocity": 0.54,
        "hand": "right"
      },
      {
        "midi": 71,
        "time": 129.359,
        "duration": 0.308,
        "velocity": 0.57,
        "hand": "right"
      },
      {
        "midi": 72,
        "time": 130,
        "duration": 0.308,
        "velocity": 0.54,
        "hand": "right"
      },
      {
        "midi": 74,
        "time": 130.769,
        "duration": 0.308,
        "velocity": 0.57,
        "hand": "right"
      },
      {
        "midi": 79,
        "time": 131.41,
        "duration": 0.513,
        "velocity": 0.6,
        "hand": "right"
      },
      {
        "midi": 72,
        "time": 132.436,
        "duration": 0.385,
        "velocity": 0.6,
        "hand": "right"
      },
      {
        "midi": 64,
        "time": 133.077,
        "duration": 0.308,
        "velocity": 0.57,
        "hand": "right"
      },
      {
        "midi": 71,
        "time": 133.846,
        "duration": 0.308,
        "velocity": 0.56,
        "hand": "right"
      },
      {
        "midi": 65,
        "time": 134.487,
        "duration": 0.308,
        "velocity": 0.57,
        "hand": "right"
      },
      {
        "midi": 65,
        "time": 135.256,
        "duration": 0.308,
        "velocity": 0.54,
        "hand": "right"
      },
      {
        "midi": 67,
        "time": 135.897,
        "duration": 0.308,
        "velocity": 0.54,
        "hand": "right"
      },
      {
        "midi": 69,
        "time": 136.666,
        "duration": 0.308,
        "velocity": 0.54,
        "hand": "right"
      },
      {
        "midi": 67,
        "time": 137.307,
        "duration": 0.308,
        "velocity": 0.57,
        "hand": "right"
      },
      {
        "midi": 65,
        "time": 138.077,
        "duration": 0.385,
        "velocity": 0.57,
        "hand": "right"
      },
      {
        "midi": 60,
        "time": 138.718,
        "duration": 0.308,
        "velocity": 0.57,
        "hand": "right"
      },
      {
        "midi": 55,
        "time": 139.487,
        "duration": 0.308,
        "velocity": 0.57,
        "hand": "right"
      },
      {
        "midi": 65,
        "time": 140.128,
        "duration": 0.308,
        "velocity": 0.57,
        "hand": "right"
      },
      {
        "midi": 74,
        "time": 140.897,
        "duration": 0.513,
        "velocity": 0.62,
        "hand": "right"
      },
      {
        "midi": 59,
        "time": 141.538,
        "duration": 0.308,
        "velocity": 0.54,
        "hand": "right"
      },
      {
        "midi": 59,
        "time": 142.307,
        "duration": 0.513,
        "velocity": 0.54,
        "hand": "right"
      },
      {
        "midi": 81,
        "time": 143.205,
        "duration": 0.513,
        "velocity": 0.69,
        "hand": "right"
      },
      {
        "midi": 57,
        "time": 143.974,
        "duration": 0.308,
        "velocity": 0.57,
        "hand": "right"
      },
      {
        "midi": 57,
        "time": 144.615,
        "duration": 0.385,
        "velocity": 0.56,
        "hand": "right"
      },
      {
        "midi": 77,
        "time": 145.384,
        "duration": 0.308,
        "velocity": 0.64,
        "hand": "right"
      },
      {
        "midi": 81,
        "time": 146.025,
        "duration": 0.769,
        "velocity": 0.69,
        "hand": "right"
      },
      {
        "midi": 83,
        "time": 146.795,
        "duration": 0.308,
        "velocity": 0.68,
        "hand": "right"
      },
      {
        "midi": 77,
        "time": 147.436,
        "duration": 1.923,
        "velocity": 0.65,
        "hand": "right"
      },
      {
        "midi": 62,
        "time": 148.205,
        "duration": 0.308,
        "velocity": 0.58,
        "hand": "right"
      },
      {
        "midi": 71,
        "time": 148.846,
        "duration": 0.513,
        "velocity": 0.56,
        "hand": "right"
      },
      {
        "midi": 59,
        "time": 149.615,
        "duration": 0.308,
        "velocity": 0.57,
        "hand": "right"
      },
      {
        "midi": 79,
        "time": 150.256,
        "duration": 1.923,
        "velocity": 0.62,
        "hand": "right"
      },
      {
        "midi": 59,
        "time": 151.025,
        "duration": 0.308,
        "velocity": 0.57,
        "hand": "right"
      },
      {
        "midi": 74,
        "time": 151.795,
        "duration": 0.641,
        "velocity": 0.6,
        "hand": "right"
      },
      {
        "midi": 76,
        "time": 152.436,
        "duration": 0.308,
        "velocity": 0.57,
        "hand": "right"
      },
      {
        "midi": 79,
        "time": 153.077,
        "duration": 0.308,
        "velocity": 0.6,
        "hand": "right"
      },
      {
        "midi": 74,
        "time": 153.846,
        "duration": 0.308,
        "velocity": 0.57,
        "hand": "right"
      },
      {
        "midi": 72,
        "time": 154.487,
        "duration": 0.308,
        "velocity": 0.57,
        "hand": "right"
      },
      {
        "midi": 72,
        "time": 155.256,
        "duration": 0.308,
        "velocity": 0.57,
        "hand": "right"
      },
      {
        "midi": 67,
        "time": 155.897,
        "duration": 0.641,
        "velocity": 0.6,
        "hand": "right"
      },
      {
        "midi": 69,
        "time": 156.666,
        "duration": 0.308,
        "velocity": 0.57,
        "hand": "right"
      },
      {
        "midi": 71,
        "time": 157.307,
        "duration": 0.513,
        "velocity": 0.6,
        "hand": "right"
      },
      {
        "midi": 64,
        "time": 158.077,
        "duration": 0.308,
        "velocity": 0.6,
        "hand": "right"
      },
      {
        "midi": 74,
        "time": 158.718,
        "duration": 0.513,
        "velocity": 0.57,
        "hand": "right"
      },
      {
        "midi": 71,
        "time": 159.487,
        "duration": 0.308,
        "velocity": 0.56,
        "hand": "right"
      },
      {
        "midi": 69,
        "time": 160.128,
        "duration": 0.308,
        "velocity": 0.54,
        "hand": "right"
      },
      {
        "midi": 66,
        "time": 160.897,
        "duration": 0.308,
        "velocity": 0.54,
        "hand": "right"
      },
      {
        "midi": 71,
        "time": 161.538,
        "duration": 0.513,
        "velocity": 0.57,
        "hand": "right"
      },
      {
        "midi": 71,
        "time": 162.307,
        "duration": 0.308,
        "velocity": 0.56,
        "hand": "right"
      },
      {
        "midi": 77,
        "time": 162.948,
        "duration": 0.513,
        "velocity": 0.64,
        "hand": "right"
      },
      {
        "midi": 66,
        "time": 163.718,
        "duration": 0.308,
        "velocity": 0.54,
        "hand": "right"
      },
      {
        "midi": 71,
        "time": 164.359,
        "duration": 0.513,
        "velocity": 0.58,
        "hand": "right"
      },
      {
        "midi": 71,
        "time": 165.128,
        "duration": 0.308,
        "velocity": 0.57,
        "hand": "right"
      },
      {
        "midi": 56,
        "time": 165.897,
        "duration": 0.513,
        "velocity": 0.57,
        "hand": "right"
      },
      {
        "midi": 60,
        "time": 166.923,
        "duration": 0.513,
        "velocity": 0.53,
        "hand": "right"
      },
      {
        "midi": 64,
        "time": 167.82,
        "duration": 0.513,
        "velocity": 0.54,
        "hand": "right"
      },
      {
        "midi": 59,
        "time": 168.846,
        "duration": 0.513,
        "velocity": 0.56,
        "hand": "right"
      },
      {
        "midi": 69,
        "time": 169.743,
        "duration": 0.513,
        "velocity": 0.6,
        "hand": "right"
      },
      {
        "midi": 67,
        "time": 170.769,
        "duration": 0.769,
        "velocity": 0.6,
        "hand": "right"
      },
      {
        "midi": 69,
        "time": 171.41,
        "duration": 0.308,
        "velocity": 0.57,
        "hand": "right"
      },
      {
        "midi": 64,
        "time": 172.179,
        "duration": 0.385,
        "velocity": 0.57,
        "hand": "right"
      },
      {
        "midi": 62,
        "time": 172.82,
        "duration": 0.308,
        "velocity": 0.57,
        "hand": "right"
      },
      {
        "midi": 71,
        "time": 173.589,
        "duration": 0.513,
        "velocity": 0.54,
        "hand": "right"
      },
      {
        "midi": 66,
        "time": 174.615,
        "duration": 0.513,
        "velocity": 0.57,
        "hand": "right"
      },
      {
        "midi": 64,
        "time": 175.256,
        "duration": 0.308,
        "velocity": 0.61,
        "hand": "right"
      },
      {
        "midi": 74,
        "time": 176.025,
        "duration": 0.513,
        "velocity": 0.56,
        "hand": "right"
      },
      {
        "midi": 77,
        "time": 176.923,
        "duration": 0.769,
        "velocity": 0.64,
        "hand": "right"
      },
      {
        "midi": 79,
        "time": 177.692,
        "duration": 0.308,
        "velocity": 0.6,
        "hand": "right"
      },
      {
        "midi": 81,
        "time": 178.333,
        "duration": 0.513,
        "velocity": 0.68,
        "hand": "right"
      },
      {
        "midi": 79,
        "time": 179.359,
        "duration": 0.769,
        "velocity": 0.65,
        "hand": "right"
      },
      {
        "midi": 81,
        "time": 180,
        "duration": 0.308,
        "velocity": 0.65,
        "hand": "right"
      },
      {
        "midi": 62,
        "time": 180.641,
        "duration": 0.308,
        "velocity": 0.57,
        "hand": "right"
      },
      {
        "midi": 81,
        "time": 181.282,
        "duration": 0.513,
        "velocity": 0.67,
        "hand": "right"
      },
      {
        "midi": 82,
        "time": 182.179,
        "duration": 0.513,
        "velocity": 0.67,
        "hand": "right"
      },
      {
        "midi": 65,
        "time": 182.948,
        "duration": 0.308,
        "velocity": 0.61,
        "hand": "right"
      },
      {
        "midi": 79,
        "time": 183.589,
        "duration": 0.308,
        "velocity": 0.64,
        "hand": "right"
      },
      {
        "midi": 76,
        "time": 184.359,
        "duration": 0.308,
        "velocity": 0.6,
        "hand": "right"
      },
      {
        "midi": 79,
        "time": 185,
        "duration": 0.308,
        "velocity": 0.64,
        "hand": "right"
      },
      {
        "midi": 73,
        "time": 185.769,
        "duration": 0.308,
        "velocity": 0.6,
        "hand": "right"
      },
      {
        "midi": 77,
        "time": 186.538,
        "duration": 0.308,
        "velocity": 0.54,
        "hand": "right"
      },
      {
        "midi": 74,
        "time": 187.307,
        "duration": 0.308,
        "velocity": 0.6,
        "hand": "right"
      },
      {
        "midi": 67,
        "time": 187.948,
        "duration": 0.513,
        "velocity": 0.54,
        "hand": "right"
      },
      {
        "midi": 66,
        "time": 188.974,
        "duration": 0.513,
        "velocity": 0.6,
        "hand": "right"
      },
      {
        "midi": 64,
        "time": 189.743,
        "duration": 0.308,
        "velocity": 0.57,
        "hand": "right"
      },
      {
        "midi": 66,
        "time": 190.384,
        "duration": 0.308,
        "velocity": 0.54,
        "hand": "right"
      },
      {
        "midi": 62,
        "time": 191.153,
        "duration": 0.308,
        "velocity": 0.61,
        "hand": "right"
      },
      {
        "midi": 71,
        "time": 191.923,
        "duration": 0.308,
        "velocity": 0.57,
        "hand": "right"
      },
      {
        "midi": 66,
        "time": 192.564,
        "duration": 0.308,
        "velocity": 0.54,
        "hand": "right"
      },
      {
        "midi": 69,
        "time": 193.333,
        "duration": 0.513,
        "velocity": 0.53,
        "hand": "right"
      },
      {
        "midi": 59,
        "time": 193.974,
        "duration": 0.308,
        "velocity": 0.57,
        "hand": "right"
      },
      {
        "midi": 57,
        "time": 194.743,
        "duration": 0.308,
        "velocity": 0.57,
        "hand": "right"
      },
      {
        "midi": 69,
        "time": 195.512,
        "duration": 0.308,
        "velocity": 0.57,
        "hand": "right"
      },
      {
        "midi": 69,
        "time": 196.153,
        "duration": 0.385,
        "velocity": 0.57,
        "hand": "right"
      },
      {
        "midi": 69,
        "time": 196.923,
        "duration": 0.308,
        "velocity": 0.56,
        "hand": "right"
      },
      {
        "midi": 74,
        "time": 197.692,
        "duration": 0.308,
        "velocity": 0.57,
        "hand": "right"
      },
      {
        "midi": 72,
        "time": 198.333,
        "duration": 0.308,
        "velocity": 0.54,
        "hand": "right"
      },
      {
        "midi": 77,
        "time": 199.102,
        "duration": 0.308,
        "velocity": 0.61,
        "hand": "right"
      },
      {
        "midi": 79,
        "time": 199.871,
        "duration": 0.308,
        "velocity": 0.6,
        "hand": "right"
      },
      {
        "midi": 74,
        "time": 200.512,
        "duration": 0.308,
        "velocity": 0.58,
        "hand": "right"
      },
      {
        "midi": 57,
        "time": 201.282,
        "duration": 0.308,
        "velocity": 0.6,
        "hand": "right"
      },
      {
        "midi": 72,
        "time": 202.051,
        "duration": 0.513,
        "velocity": 0.57,
        "hand": "right"
      },
      {
        "midi": 59,
        "time": 202.692,
        "duration": 0.308,
        "velocity": 0.54,
        "hand": "right"
      },
      {
        "midi": 72,
        "time": 203.461,
        "duration": 1.154,
        "velocity": 0.6,
        "hand": "right"
      },
      {
        "midi": 62,
        "time": 204.102,
        "duration": 1.154,
        "velocity": 0.57,
        "hand": "right"
      },
      {
        "midi": 72,
        "time": 205.128,
        "duration": 1.026,
        "velocity": 0.6,
        "hand": "right"
      },
      {
        "midi": 71,
        "time": 206.153,
        "duration": 0.513,
        "velocity": 0.67,
        "hand": "right"
      },
      {
        "midi": 70,
        "time": 206.795,
        "duration": 0.513,
        "velocity": 0.67,
        "hand": "right"
      },
      {
        "midi": 74,
        "time": 207.82,
        "duration": 1.026,
        "velocity": 0.72,
        "hand": "right"
      },
      {
        "midi": 72,
        "time": 208.846,
        "duration": 0.513,
        "velocity": 0.67,
        "hand": "right"
      },
      {
        "midi": 76,
        "time": 209.871,
        "duration": 0.513,
        "velocity": 0.69,
        "hand": "right"
      },
      {
        "midi": 57,
        "time": 210.641,
        "duration": 0.308,
        "velocity": 0.57,
        "hand": "right"
      },
      {
        "midi": 65,
        "time": 211.282,
        "duration": 0.308,
        "velocity": 0.57,
        "hand": "right"
      },
      {
        "midi": 79,
        "time": 212.051,
        "duration": 0.308,
        "velocity": 0.69,
        "hand": "right"
      },
      {
        "midi": 77,
        "time": 212.82,
        "duration": 0.308,
        "velocity": 0.69,
        "hand": "right"
      },
      {
        "midi": 72,
        "time": 213.718,
        "duration": 2.179,
        "velocity": 0.69,
        "hand": "right"
      },
      {
        "midi": 67,
        "time": 214.487,
        "duration": 0.308,
        "velocity": 0.6,
        "hand": "right"
      },
      {
        "midi": 65,
        "time": 215.256,
        "duration": 0.308,
        "velocity": 0.58,
        "hand": "right"
      },
      {
        "midi": 62,
        "time": 215.897,
        "duration": 2.051,
        "velocity": 0.58,
        "hand": "right"
      },
      {
        "midi": 72,
        "time": 216.795,
        "duration": 0.308,
        "velocity": 0.58,
        "hand": "right"
      },
      {
        "midi": 77,
        "time": 217.564,
        "duration": 0.769,
        "velocity": 0.62,
        "hand": "right"
      },
      {
        "midi": 69,
        "time": 218.205,
        "duration": 1.154,
        "velocity": 0.6,
        "hand": "right"
      },
      {
        "midi": 79,
        "time": 218.974,
        "duration": 0.308,
        "velocity": 0.61,
        "hand": "right"
      },
      {
        "midi": 77,
        "time": 219.615,
        "duration": 0.385,
        "velocity": 0.57,
        "hand": "right"
      },
      {
        "midi": 83,
        "time": 220.384,
        "duration": 0.513,
        "velocity": 0.64,
        "hand": "right"
      },
      {
        "midi": 84,
        "time": 221.025,
        "duration": 2.4,
        "velocity": 0.56,
        "hand": "right"
      }
    ],
    "medium": [
      {
        "midi": 60,
        "time": 0,
        "duration": 1.523,
        "velocity": 0.61,
        "hand": "right"
      },
      {
        "midi": 76,
        "time": 0.769,
        "duration": 0.179,
        "velocity": 0.62,
        "hand": "right"
      },
      {
        "midi": 60,
        "time": 1.538,
        "duration": 1.652,
        "velocity": 0.61,
        "hand": "right"
      },
      {
        "midi": 76,
        "time": 2.436,
        "duration": 0.179,
        "velocity": 0.61,
        "hand": "right"
      },
      {
        "midi": 60,
        "time": 3.205,
        "duration": 1.523,
        "velocity": 0.65,
        "hand": "right"
      },
      {
        "midi": 77,
        "time": 3.974,
        "duration": 0.179,
        "velocity": 0.65,
        "hand": "right"
      },
      {
        "midi": 60,
        "time": 4.743,
        "duration": 1.538,
        "velocity": 0.65,
        "hand": "right"
      },
      {
        "midi": 77,
        "time": 5.641,
        "duration": 0.179,
        "velocity": 0.65,
        "hand": "right"
      },
      {
        "midi": 59,
        "time": 6.41,
        "duration": 1.523,
        "velocity": 0.65,
        "hand": "left"
      },
      {
        "midi": 77,
        "time": 7.179,
        "duration": 0.179,
        "velocity": 0.65,
        "hand": "right"
      },
      {
        "midi": 59,
        "time": 7.948,
        "duration": 1.538,
        "velocity": 0.65,
        "hand": "left"
      },
      {
        "midi": 77,
        "time": 8.718,
        "duration": 0.179,
        "velocity": 0.65,
        "hand": "right"
      },
      {
        "midi": 60,
        "time": 9.487,
        "duration": 1.538,
        "velocity": 0.61,
        "hand": "right"
      },
      {
        "midi": 76,
        "time": 10.384,
        "duration": 0.179,
        "velocity": 0.6,
        "hand": "right"
      },
      {
        "midi": 60,
        "time": 11.153,
        "duration": 1.524,
        "velocity": 0.61,
        "hand": "right"
      },
      {
        "midi": 76,
        "time": 11.923,
        "duration": 0.179,
        "velocity": 0.61,
        "hand": "right"
      },
      {
        "midi": 60,
        "time": 12.692,
        "duration": 1.523,
        "velocity": 0.67,
        "hand": "right"
      },
      {
        "midi": 81,
        "time": 13.461,
        "duration": 0.179,
        "velocity": 0.69,
        "hand": "right"
      },
      {
        "midi": 60,
        "time": 14.23,
        "duration": 1.538,
        "velocity": 0.68,
        "hand": "right"
      },
      {
        "midi": 81,
        "time": 15.128,
        "duration": 0.179,
        "velocity": 0.68,
        "hand": "right"
      },
      {
        "midi": 60,
        "time": 15.897,
        "duration": 1.524,
        "velocity": 0.61,
        "hand": "right"
      },
      {
        "midi": 74,
        "time": 16.666,
        "duration": 0.179,
        "velocity": 0.62,
        "hand": "right"
      },
      {
        "midi": 60,
        "time": 17.436,
        "duration": 1.538,
        "velocity": 0.61,
        "hand": "right"
      },
      {
        "midi": 74,
        "time": 18.205,
        "duration": 0.179,
        "velocity": 0.61,
        "hand": "right"
      },
      {
        "midi": 59,
        "time": 18.974,
        "duration": 1.538,
        "velocity": 0.65,
        "hand": "left"
      },
      {
        "midi": 79,
        "time": 19.871,
        "duration": 0.179,
        "velocity": 0.65,
        "hand": "right"
      },
      {
        "midi": 59,
        "time": 20.641,
        "duration": 1.523,
        "velocity": 0.65,
        "hand": "left"
      },
      {
        "midi": 79,
        "time": 21.41,
        "duration": 0.179,
        "velocity": 0.65,
        "hand": "right"
      },
      {
        "midi": 59,
        "time": 22.179,
        "duration": 1.524,
        "velocity": 0.61,
        "hand": "left"
      },
      {
        "midi": 72,
        "time": 22.948,
        "duration": 0.179,
        "velocity": 0.62,
        "hand": "right"
      },
      {
        "midi": 59,
        "time": 23.718,
        "duration": 1.538,
        "velocity": 0.61,
        "hand": "left"
      },
      {
        "midi": 72,
        "time": 24.615,
        "duration": 0.179,
        "velocity": 0.61,
        "hand": "right"
      },
      {
        "midi": 57,
        "time": 25.384,
        "duration": 1.524,
        "velocity": 0.61,
        "hand": "left"
      },
      {
        "midi": 72,
        "time": 26.153,
        "duration": 0.179,
        "velocity": 0.62,
        "hand": "right"
      },
      {
        "midi": 57,
        "time": 26.923,
        "duration": 1.667,
        "velocity": 0.61,
        "hand": "left"
      },
      {
        "midi": 72,
        "time": 27.692,
        "duration": 0.179,
        "velocity": 0.61,
        "hand": "right"
      },
      {
        "midi": 50,
        "time": 28.589,
        "duration": 1.524,
        "velocity": 0.61,
        "hand": "left"
      },
      {
        "midi": 72,
        "time": 29.359,
        "duration": 0.179,
        "velocity": 0.62,
        "hand": "right"
      },
      {
        "midi": 50,
        "time": 30.128,
        "duration": 1.667,
        "velocity": 0.61,
        "hand": "left"
      },
      {
        "midi": 72,
        "time": 31.025,
        "duration": 0.179,
        "velocity": 0.61,
        "hand": "right"
      },
      {
        "midi": 55,
        "time": 31.795,
        "duration": 1.523,
        "velocity": 0.57,
        "hand": "left"
      },
      {
        "midi": 71,
        "time": 32.564,
        "duration": 0.179,
        "velocity": 0.6,
        "hand": "right"
      },
      {
        "midi": 55,
        "time": 33.333,
        "duration": 1.538,
        "velocity": 0.57,
        "hand": "left"
      },
      {
        "midi": 71,
        "time": 34.102,
        "duration": 0.179,
        "velocity": 0.57,
        "hand": "right"
      },
      {
        "midi": 55,
        "time": 35,
        "duration": 1.523,
        "velocity": 0.57,
        "hand": "left"
      },
      {
        "midi": 73,
        "time": 35.769,
        "duration": 0.179,
        "velocity": 0.6,
        "hand": "right"
      },
      {
        "midi": 55,
        "time": 36.538,
        "duration": 1.538,
        "velocity": 0.57,
        "hand": "left"
      },
      {
        "midi": 73,
        "time": 37.307,
        "duration": 0.179,
        "velocity": 0.57,
        "hand": "right"
      },
      {
        "midi": 53,
        "time": 38.077,
        "duration": 1.538,
        "velocity": 0.61,
        "hand": "left"
      },
      {
        "midi": 74,
        "time": 38.974,
        "duration": 0.179,
        "velocity": 0.62,
        "hand": "right"
      },
      {
        "midi": 53,
        "time": 39.743,
        "duration": 1.524,
        "velocity": 0.61,
        "hand": "left"
      },
      {
        "midi": 74,
        "time": 40.512,
        "duration": 0.179,
        "velocity": 0.61,
        "hand": "right"
      },
      {
        "midi": 53,
        "time": 41.282,
        "duration": 1.538,
        "velocity": 0.57,
        "hand": "left"
      },
      {
        "midi": 71,
        "time": 42.051,
        "duration": 0.179,
        "velocity": 0.6,
        "hand": "right"
      },
      {
        "midi": 53,
        "time": 42.948,
        "duration": 1.538,
        "velocity": 0.57,
        "hand": "left"
      },
      {
        "midi": 71,
        "time": 43.718,
        "duration": 0.179,
        "velocity": 0.57,
        "hand": "right"
      },
      {
        "midi": 52,
        "time": 44.487,
        "duration": 1.523,
        "velocity": 0.57,
        "hand": "left"
      },
      {
        "midi": 72,
        "time": 45.256,
        "duration": 0.179,
        "velocity": 0.6,
        "hand": "right"
      },
      {
        "midi": 52,
        "time": 46.025,
        "duration": 1.538,
        "velocity": 0.57,
        "hand": "left"
      },
      {
        "midi": 72,
        "time": 46.795,
        "duration": 0.179,
        "velocity": 0.57,
        "hand": "right"
      },
      {
        "midi": 52,
        "time": 47.692,
        "duration": 1.523,
        "velocity": 0.54,
        "hand": "left"
      },
      {
        "midi": 65,
        "time": 48.461,
        "duration": 0.179,
        "velocity": 0.56,
        "hand": "right"
      },
      {
        "midi": 52,
        "time": 49.23,
        "duration": 1.667,
        "velocity": 0.54,
        "hand": "left"
      },
      {
        "midi": 65,
        "time": 50,
        "duration": 0.179,
        "velocity": 0.54,
        "hand": "right"
      },
      {
        "midi": 50,
        "time": 50.897,
        "duration": 1.524,
        "velocity": 0.54,
        "hand": "left"
      },
      {
        "midi": 65,
        "time": 51.666,
        "duration": 0.179,
        "velocity": 0.56,
        "hand": "right"
      },
      {
        "midi": 50,
        "time": 52.436,
        "duration": 1.667,
        "velocity": 0.54,
        "hand": "left"
      },
      {
        "midi": 65,
        "time": 53.205,
        "duration": 0.179,
        "velocity": 0.54,
        "hand": "right"
      },
      {
        "midi": 43,
        "time": 54.102,
        "duration": 1.524,
        "velocity": 0.54,
        "hand": "left"
      },
      {
        "midi": 65,
        "time": 54.871,
        "duration": 0.179,
        "velocity": 0.56,
        "hand": "right"
      },
      {
        "midi": 43,
        "time": 55.641,
        "duration": 1.667,
        "velocity": 0.54,
        "hand": "left"
      },
      {
        "midi": 65,
        "time": 56.538,
        "duration": 0.179,
        "velocity": 0.54,
        "hand": "right"
      },
      {
        "midi": 48,
        "time": 57.307,
        "duration": 1.652,
        "velocity": 0.54,
        "hand": "left"
      },
      {
        "midi": 64,
        "time": 58.077,
        "duration": 0.179,
        "velocity": 0.56,
        "hand": "right"
      },
      {
        "midi": 48,
        "time": 58.974,
        "duration": 1.523,
        "velocity": 0.54,
        "hand": "left"
      },
      {
        "midi": 64,
        "time": 59.743,
        "duration": 0.179,
        "velocity": 0.54,
        "hand": "right"
      },
      {
        "midi": 48,
        "time": 60.512,
        "duration": 1.538,
        "velocity": 0.5,
        "hand": "left"
      },
      {
        "midi": 64,
        "time": 61.282,
        "duration": 0.179,
        "velocity": 0.53,
        "hand": "right"
      },
      {
        "midi": 48,
        "time": 62.179,
        "duration": 1.667,
        "velocity": 0.51,
        "hand": "left"
      },
      {
        "midi": 64,
        "time": 62.948,
        "duration": 0.179,
        "velocity": 0.51,
        "hand": "right"
      },
      {
        "midi": 41,
        "time": 63.718,
        "duration": 1.538,
        "velocity": 0.5,
        "hand": "left"
      },
      {
        "midi": 64,
        "time": 64.487,
        "duration": 0.179,
        "velocity": 0.53,
        "hand": "right"
      },
      {
        "midi": 41,
        "time": 65.384,
        "duration": 1.667,
        "velocity": 0.51,
        "hand": "left"
      },
      {
        "midi": 64,
        "time": 66.153,
        "duration": 0.179,
        "velocity": 0.51,
        "hand": "right"
      },
      {
        "midi": 42,
        "time": 66.923,
        "duration": 1.651,
        "velocity": 0.54,
        "hand": "left"
      },
      {
        "midi": 63,
        "time": 67.692,
        "duration": 0.179,
        "velocity": 0.56,
        "hand": "right"
      },
      {
        "midi": 42,
        "time": 68.589,
        "duration": 1.667,
        "velocity": 0.54,
        "hand": "left"
      },
      {
        "midi": 63,
        "time": 69.359,
        "duration": 0.179,
        "velocity": 0.54,
        "hand": "right"
      },
      {
        "midi": 44,
        "time": 70.256,
        "duration": 1.524,
        "velocity": 0.5,
        "hand": "left"
      },
      {
        "midi": 62,
        "time": 71.025,
        "duration": 0.179,
        "velocity": 0.53,
        "hand": "right"
      },
      {
        "midi": 44,
        "time": 71.795,
        "duration": 1.538,
        "velocity": 0.51,
        "hand": "left"
      },
      {
        "midi": 62,
        "time": 72.564,
        "duration": 0.179,
        "velocity": 0.51,
        "hand": "right"
      },
      {
        "midi": 43,
        "time": 73.333,
        "duration": 1.538,
        "velocity": 0.54,
        "hand": "left"
      },
      {
        "midi": 62,
        "time": 74.102,
        "duration": 0.179,
        "velocity": 0.56,
        "hand": "right"
      },
      {
        "midi": 43,
        "time": 75,
        "duration": 1.523,
        "velocity": 0.54,
        "hand": "left"
      },
      {
        "midi": 62,
        "time": 75.769,
        "duration": 0.179,
        "velocity": 0.54,
        "hand": "right"
      },
      {
        "midi": 43,
        "time": 76.538,
        "duration": 1.538,
        "velocity": 0.54,
        "hand": "left"
      },
      {
        "midi": 64,
        "time": 77.307,
        "duration": 0.179,
        "velocity": 0.56,
        "hand": "right"
      },
      {
        "midi": 43,
        "time": 78.205,
        "duration": 1.523,
        "velocity": 0.54,
        "hand": "left"
      },
      {
        "midi": 64,
        "time": 78.974,
        "duration": 0.179,
        "velocity": 0.54,
        "hand": "right"
      },
      {
        "midi": 43,
        "time": 79.743,
        "duration": 1.524,
        "velocity": 0.57,
        "hand": "left"
      },
      {
        "midi": 65,
        "time": 80.512,
        "duration": 0.179,
        "velocity": 0.6,
        "hand": "right"
      },
      {
        "midi": 43,
        "time": 81.282,
        "duration": 1.538,
        "velocity": 0.57,
        "hand": "left"
      },
      {
        "midi": 65,
        "time": 82.051,
        "duration": 0.179,
        "velocity": 0.57,
        "hand": "right"
      },
      {
        "midi": 43,
        "time": 82.948,
        "duration": 1.524,
        "velocity": 0.57,
        "hand": "left"
      },
      {
        "midi": 65,
        "time": 83.718,
        "duration": 0.179,
        "velocity": 0.6,
        "hand": "right"
      },
      {
        "midi": 43,
        "time": 84.487,
        "duration": 1.523,
        "velocity": 0.57,
        "hand": "left"
      },
      {
        "midi": 65,
        "time": 85.256,
        "duration": 0.179,
        "velocity": 0.57,
        "hand": "right"
      },
      {
        "midi": 43,
        "time": 86.025,
        "duration": 1.652,
        "velocity": 0.61,
        "hand": "left"
      },
      {
        "midi": 66,
        "time": 86.795,
        "duration": 0.179,
        "velocity": 0.62,
        "hand": "right"
      },
      {
        "midi": 43,
        "time": 87.692,
        "duration": 1.523,
        "velocity": 0.61,
        "hand": "left"
      },
      {
        "midi": 66,
        "time": 88.461,
        "duration": 0.179,
        "velocity": 0.61,
        "hand": "right"
      },
      {
        "midi": 43,
        "time": 89.23,
        "duration": 1.652,
        "velocity": 0.65,
        "hand": "left"
      },
      {
        "midi": 67,
        "time": 90.128,
        "duration": 0.179,
        "velocity": 0.65,
        "hand": "right"
      },
      {
        "midi": 43,
        "time": 90.897,
        "duration": 1.652,
        "velocity": 0.65,
        "hand": "left"
      },
      {
        "midi": 67,
        "time": 91.795,
        "duration": 0.179,
        "velocity": 0.65,
        "hand": "right"
      },
      {
        "midi": 43,
        "time": 92.564,
        "duration": 1.523,
        "velocity": 0.54,
        "hand": "left"
      },
      {
        "midi": 65,
        "time": 93.333,
        "duration": 0.179,
        "velocity": 0.56,
        "hand": "right"
      },
      {
        "midi": 43,
        "time": 94.102,
        "duration": 1.538,
        "velocity": 0.54,
        "hand": "left"
      },
      {
        "midi": 65,
        "time": 95,
        "duration": 0.179,
        "velocity": 0.54,
        "hand": "right"
      },
      {
        "midi": 43,
        "time": 95.769,
        "duration": 1.523,
        "velocity": 0.54,
        "hand": "left"
      },
      {
        "midi": 65,
        "time": 96.538,
        "duration": 0.179,
        "velocity": 0.56,
        "hand": "right"
      },
      {
        "midi": 43,
        "time": 97.307,
        "duration": 1.667,
        "velocity": 0.54,
        "hand": "left"
      },
      {
        "midi": 65,
        "time": 98.205,
        "duration": 0.179,
        "velocity": 0.54,
        "hand": "right"
      },
      {
        "midi": 36,
        "time": 98.974,
        "duration": 1.652,
        "velocity": 0.57,
        "hand": "left"
      },
      {
        "midi": 64,
        "time": 99.743,
        "duration": 0.179,
        "velocity": 0.6,
        "hand": "right"
      },
      {
        "midi": 36,
        "time": 100.641,
        "duration": 1.523,
        "velocity": 0.57,
        "hand": "left"
      },
      {
        "midi": 64,
        "time": 101.41,
        "duration": 0.179,
        "velocity": 0.57,
        "hand": "right"
      },
      {
        "midi": 36,
        "time": 102.179,
        "duration": 3.318,
        "velocity": 0.54,
        "hand": "left"
      },
      {
        "midi": 60,
        "time": 103.077,
        "duration": 0.256,
        "velocity": 0.54,
        "hand": "right"
      },
      {
        "midi": 60,
        "time": 103.846,
        "duration": 0.256,
        "velocity": 0.54,
        "hand": "right"
      },
      {
        "midi": 53,
        "time": 104.615,
        "duration": 0.256,
        "velocity": 0.46,
        "hand": "left"
      },
      {
        "midi": 36,
        "time": 105.512,
        "duration": 3.5,
        "velocity": 0.54,
        "hand": "left"
      },
      {
        "midi": 74,
        "time": 106.41,
        "duration": 0.256,
        "velocity": 0.54,
        "hand": "right"
      },
      {
        "midi": 74,
        "time": 107.307,
        "duration": 0.256,
        "velocity": 0.56,
        "hand": "right"
      },
      {
        "midi": 62,
        "time": 108.205,
        "duration": 0.256,
        "velocity": 0.54,
        "hand": "right"
      },
      {
        "midi": 62,
        "time": 109.102,
        "duration": 0.513,
        "velocity": 0.5,
        "hand": "right"
      },
      {
        "midi": 60,
        "time": 117.692,
        "duration": 0.513,
        "velocity": 0.53,
        "hand": "right"
      },
      {
        "midi": 64,
        "time": 118.718,
        "duration": 0.513,
        "velocity": 0.56,
        "hand": "right"
      },
      {
        "midi": 67,
        "time": 119.871,
        "duration": 0.179,
        "velocity": 0.57,
        "hand": "right"
      },
      {
        "midi": 62,
        "time": 121.025,
        "duration": 0.385,
        "velocity": 0.56,
        "hand": "right"
      },
      {
        "midi": 69,
        "time": 122.307,
        "duration": 0.256,
        "velocity": 0.58,
        "hand": "right"
      },
      {
        "midi": 65,
        "time": 123.205,
        "duration": 0.256,
        "velocity": 0.57,
        "hand": "right"
      },
      {
        "midi": 62,
        "time": 124.102,
        "duration": 0.256,
        "velocity": 0.56,
        "hand": "right"
      },
      {
        "midi": 57,
        "time": 124.871,
        "duration": 0.513,
        "velocity": 0.56,
        "hand": "left"
      },
      {
        "midi": 72,
        "time": 124.871,
        "duration": 0.755,
        "velocity": 0.6,
        "hand": "right"
      },
      {
        "midi": 72,
        "time": 125.641,
        "duration": 0.179,
        "velocity": 0.57,
        "hand": "right"
      },
      {
        "midi": 69,
        "time": 126.795,
        "duration": 0.385,
        "velocity": 0.56,
        "hand": "right"
      },
      {
        "midi": 66,
        "time": 127.692,
        "duration": 0.385,
        "velocity": 0.57,
        "hand": "right"
      },
      {
        "midi": 72,
        "time": 128.461,
        "duration": 0.256,
        "velocity": 0.56,
        "hand": "right"
      },
      {
        "midi": 71,
        "time": 129.359,
        "duration": 0.256,
        "velocity": 0.57,
        "hand": "right"
      },
      {
        "midi": 74,
        "time": 130.256,
        "duration": 0.256,
        "velocity": 0.54,
        "hand": "right"
      },
      {
        "midi": 76,
        "time": 131.025,
        "duration": 0.256,
        "velocity": 0.57,
        "hand": "right"
      },
      {
        "midi": 64,
        "time": 131.923,
        "duration": 0.513,
        "velocity": 0.6,
        "hand": "right"
      },
      {
        "midi": 71,
        "time": 131.923,
        "duration": 0.513,
        "velocity": 0.56,
        "hand": "right"
      },
      {
        "midi": 65,
        "time": 132.82,
        "duration": 0.256,
        "velocity": 0.57,
        "hand": "right"
      },
      {
        "midi": 69,
        "time": 132.82,
        "duration": 0.513,
        "velocity": 0.54,
        "hand": "right"
      },
      {
        "midi": 64,
        "time": 133.589,
        "duration": 0.256,
        "velocity": 0.57,
        "hand": "right"
      },
      {
        "midi": 72,
        "time": 133.589,
        "duration": 0.256,
        "velocity": 0.57,
        "hand": "right"
      },
      {
        "midi": 65,
        "time": 134.487,
        "duration": 0.256,
        "velocity": 0.57,
        "hand": "right"
      },
      {
        "midi": 50,
        "time": 135.256,
        "duration": 0.513,
        "velocity": 0.53,
        "hand": "left"
      },
      {
        "midi": 65,
        "time": 135.256,
        "duration": 0.256,
        "velocity": 0.54,
        "hand": "right"
      },
      {
        "midi": 53,
        "time": 136.153,
        "duration": 0.641,
        "velocity": 0.6,
        "hand": "left"
      },
      {
        "midi": 69,
        "time": 136.153,
        "duration": 0.256,
        "velocity": 0.54,
        "hand": "right"
      },
      {
        "midi": 55,
        "time": 136.923,
        "duration": 0.179,
        "velocity": 0.57,
        "hand": "left"
      },
      {
        "midi": 71,
        "time": 136.923,
        "duration": 0.256,
        "velocity": 0.57,
        "hand": "right"
      },
      {
        "midi": 64,
        "time": 137.82,
        "duration": 0.256,
        "velocity": 0.57,
        "hand": "right"
      },
      {
        "midi": 55,
        "time": 138.589,
        "duration": 0.769,
        "velocity": 0.6,
        "hand": "left"
      },
      {
        "midi": 62,
        "time": 138.589,
        "duration": 0.37,
        "velocity": 0.56,
        "hand": "right"
      },
      {
        "midi": 55,
        "time": 139.487,
        "duration": 0.256,
        "velocity": 0.57,
        "hand": "left"
      },
      {
        "midi": 72,
        "time": 140.384,
        "duration": 0.513,
        "velocity": 0.6,
        "hand": "right"
      },
      {
        "midi": 50,
        "time": 141.153,
        "duration": 0.256,
        "velocity": 0.57,
        "hand": "left"
      },
      {
        "midi": 50,
        "time": 142.307,
        "duration": 0.513,
        "velocity": 0.57,
        "hand": "left"
      },
      {
        "midi": 59,
        "time": 142.307,
        "duration": 0.513,
        "velocity": 0.54,
        "hand": "left"
      },
      {
        "midi": 81,
        "time": 143.205,
        "duration": 0.513,
        "velocity": 0.69,
        "hand": "right"
      },
      {
        "midi": 57,
        "time": 143.974,
        "duration": 0.256,
        "velocity": 0.57,
        "hand": "left"
      },
      {
        "midi": 81,
        "time": 144.871,
        "duration": 0.256,
        "velocity": 0.67,
        "hand": "right"
      },
      {
        "midi": 76,
        "time": 145.641,
        "duration": 0.385,
        "velocity": 0.62,
        "hand": "right"
      },
      {
        "midi": 52,
        "time": 146.538,
        "duration": 0.897,
        "velocity": 0.56,
        "hand": "left"
      },
      {
        "midi": 59,
        "time": 146.538,
        "duration": 0.513,
        "velocity": 0.54,
        "hand": "left"
      },
      {
        "midi": 77,
        "time": 147.436,
        "duration": 1.923,
        "velocity": 0.65,
        "hand": "right"
      },
      {
        "midi": 62,
        "time": 148.205,
        "duration": 0.241,
        "velocity": 0.58,
        "hand": "right"
      },
      {
        "midi": 55,
        "time": 149.102,
        "duration": 0.256,
        "velocity": 0.54,
        "hand": "left"
      },
      {
        "midi": 60,
        "time": 149.871,
        "duration": 0.256,
        "velocity": 0.6,
        "hand": "right"
      },
      {
        "midi": 60,
        "time": 150.769,
        "duration": 0.256,
        "velocity": 0.57,
        "hand": "right"
      },
      {
        "midi": 76,
        "time": 150.769,
        "duration": 0.513,
        "velocity": 0.6,
        "hand": "right"
      },
      {
        "midi": 57,
        "time": 151.538,
        "duration": 0.256,
        "velocity": 0.54,
        "hand": "left"
      },
      {
        "midi": 60,
        "time": 152.436,
        "duration": 0.256,
        "velocity": 0.58,
        "hand": "right"
      },
      {
        "midi": 76,
        "time": 152.436,
        "duration": 0.256,
        "velocity": 0.57,
        "hand": "right"
      },
      {
        "midi": 77,
        "time": 153.333,
        "duration": 0.256,
        "velocity": 0.58,
        "hand": "right"
      },
      {
        "midi": 57,
        "time": 154.102,
        "duration": 0.513,
        "velocity": 0.54,
        "hand": "left"
      },
      {
        "midi": 72,
        "time": 154.102,
        "duration": 0.256,
        "velocity": 0.56,
        "hand": "right"
      },
      {
        "midi": 69,
        "time": 155,
        "duration": 0.256,
        "velocity": 0.57,
        "hand": "right"
      },
      {
        "midi": 48,
        "time": 155.769,
        "duration": 0.179,
        "velocity": 0.57,
        "hand": "left"
      },
      {
        "midi": 67,
        "time": 156.666,
        "duration": 0.179,
        "velocity": 0.57,
        "hand": "right"
      },
      {
        "midi": 69,
        "time": 156.666,
        "duration": 0.179,
        "velocity": 0.57,
        "hand": "right"
      },
      {
        "midi": 69,
        "time": 157.564,
        "duration": 0.256,
        "velocity": 0.54,
        "hand": "right"
      },
      {
        "midi": 50,
        "time": 158.333,
        "duration": 0.256,
        "velocity": 0.57,
        "hand": "left"
      },
      {
        "midi": 72,
        "time": 159.23,
        "duration": 0.256,
        "velocity": 0.56,
        "hand": "right"
      },
      {
        "midi": 69,
        "time": 160.128,
        "duration": 0.256,
        "velocity": 0.54,
        "hand": "right"
      },
      {
        "midi": 66,
        "time": 160.897,
        "duration": 0.256,
        "velocity": 0.54,
        "hand": "right"
      },
      {
        "midi": 64,
        "time": 161.795,
        "duration": 0.256,
        "velocity": 0.54,
        "hand": "right"
      },
      {
        "midi": 72,
        "time": 162.564,
        "duration": 0.385,
        "velocity": 0.57,
        "hand": "right"
      },
      {
        "midi": 68,
        "time": 163.461,
        "duration": 0.256,
        "velocity": 0.57,
        "hand": "right"
      },
      {
        "midi": 76,
        "time": 163.461,
        "duration": 0.513,
        "velocity": 0.61,
        "hand": "right"
      },
      {
        "midi": 71,
        "time": 164.359,
        "duration": 0.513,
        "velocity": 0.58,
        "hand": "right"
      },
      {
        "midi": 71,
        "time": 165.128,
        "duration": 0.241,
        "velocity": 0.57,
        "hand": "right"
      },
      {
        "midi": 56,
        "time": 165.897,
        "duration": 0.513,
        "velocity": 0.57,
        "hand": "left"
      },
      {
        "midi": 60,
        "time": 166.923,
        "duration": 0.513,
        "velocity": 0.53,
        "hand": "right"
      },
      {
        "midi": 55,
        "time": 167.82,
        "duration": 0.513,
        "velocity": 0.51,
        "hand": "left"
      },
      {
        "midi": 64,
        "time": 167.82,
        "duration": 0.513,
        "velocity": 0.54,
        "hand": "right"
      },
      {
        "midi": 59,
        "time": 168.846,
        "duration": 0.513,
        "velocity": 0.56,
        "hand": "left"
      },
      {
        "midi": 69,
        "time": 169.743,
        "duration": 0.513,
        "velocity": 0.6,
        "hand": "right"
      },
      {
        "midi": 55,
        "time": 170.769,
        "duration": 0.513,
        "velocity": 0.51,
        "hand": "left"
      },
      {
        "midi": 67,
        "time": 170.769,
        "duration": 0.769,
        "velocity": 0.6,
        "hand": "right"
      },
      {
        "midi": 59,
        "time": 171.666,
        "duration": 0.513,
        "velocity": 0.54,
        "hand": "left"
      },
      {
        "midi": 67,
        "time": 171.666,
        "duration": 0.256,
        "velocity": 0.57,
        "hand": "right"
      },
      {
        "midi": 55,
        "time": 172.692,
        "duration": 0.513,
        "velocity": 0.57,
        "hand": "left"
      },
      {
        "midi": 67,
        "time": 172.692,
        "duration": 0.513,
        "velocity": 0.53,
        "hand": "right"
      },
      {
        "midi": 71,
        "time": 173.589,
        "duration": 0.513,
        "velocity": 0.54,
        "hand": "right"
      },
      {
        "midi": 50,
        "time": 174.615,
        "duration": 0.769,
        "velocity": 0.6,
        "hand": "left"
      },
      {
        "midi": 66,
        "time": 174.615,
        "duration": 0.513,
        "velocity": 0.57,
        "hand": "right"
      },
      {
        "midi": 72,
        "time": 175.512,
        "duration": 0.513,
        "velocity": 0.53,
        "hand": "right"
      },
      {
        "midi": 76,
        "time": 176.41,
        "duration": 0.513,
        "velocity": 0.58,
        "hand": "right"
      },
      {
        "midi": 55,
        "time": 177.436,
        "duration": 0.513,
        "velocity": 0.56,
        "hand": "left"
      },
      {
        "midi": 71,
        "time": 177.436,
        "duration": 0.513,
        "velocity": 0.57,
        "hand": "right"
      },
      {
        "midi": 81,
        "time": 178.333,
        "duration": 0.513,
        "velocity": 0.68,
        "hand": "right"
      },
      {
        "midi": 79,
        "time": 179.359,
        "duration": 0.769,
        "velocity": 0.65,
        "hand": "right"
      },
      {
        "midi": 74,
        "time": 180.256,
        "duration": 0.641,
        "velocity": 0.6,
        "hand": "right"
      },
      {
        "midi": 79,
        "time": 180.256,
        "duration": 0.256,
        "velocity": 0.64,
        "hand": "right"
      },
      {
        "midi": 76,
        "time": 181.025,
        "duration": 0.256,
        "velocity": 0.57,
        "hand": "right"
      },
      {
        "midi": 82,
        "time": 182.179,
        "duration": 0.513,
        "velocity": 0.67,
        "hand": "right"
      },
      {
        "midi": 65,
        "time": 182.948,
        "duration": 0.256,
        "velocity": 0.61,
        "hand": "right"
      },
      {
        "midi": 77,
        "time": 183.846,
        "duration": 0.256,
        "velocity": 0.61,
        "hand": "right"
      },
      {
        "midi": 74,
        "time": 184.615,
        "duration": 0.513,
        "velocity": 0.56,
        "hand": "right"
      },
      {
        "midi": 77,
        "time": 184.615,
        "duration": 0.256,
        "velocity": 0.64,
        "hand": "right"
      },
      {
        "midi": 79,
        "time": 185.384,
        "duration": 0.179,
        "velocity": 0.6,
        "hand": "right"
      },
      {
        "midi": 79,
        "time": 186.282,
        "duration": 0.256,
        "velocity": 0.6,
        "hand": "right"
      },
      {
        "midi": 57,
        "time": 187.051,
        "duration": 0.513,
        "velocity": 0.58,
        "hand": "left"
      },
      {
        "midi": 64,
        "time": 187.051,
        "duration": 0.513,
        "velocity": 0.51,
        "hand": "right"
      },
      {
        "midi": 67,
        "time": 187.948,
        "duration": 0.513,
        "velocity": 0.54,
        "hand": "right"
      },
      {
        "midi": 66,
        "time": 188.974,
        "duration": 0.513,
        "velocity": 0.6,
        "hand": "right"
      },
      {
        "midi": 52,
        "time": 189.743,
        "duration": 0.256,
        "velocity": 0.57,
        "hand": "left"
      },
      {
        "midi": 57,
        "time": 190.641,
        "duration": 0.256,
        "velocity": 0.54,
        "hand": "left"
      },
      {
        "midi": 66,
        "time": 190.641,
        "duration": 0.256,
        "velocity": 0.62,
        "hand": "right"
      },
      {
        "midi": 52,
        "time": 191.41,
        "duration": 0.385,
        "velocity": 0.54,
        "hand": "left"
      },
      {
        "midi": 60,
        "time": 191.41,
        "duration": 2.179,
        "velocity": 0.6,
        "hand": "right"
      },
      {
        "midi": 54,
        "time": 192.307,
        "duration": 0.513,
        "velocity": 0.54,
        "hand": "left"
      },
      {
        "midi": 67,
        "time": 192.307,
        "duration": 0.256,
        "velocity": 0.56,
        "hand": "right"
      },
      {
        "midi": 62,
        "time": 193.077,
        "duration": 0.256,
        "velocity": 0.54,
        "hand": "right"
      },
      {
        "midi": 57,
        "time": 193.846,
        "duration": 0.256,
        "velocity": 0.6,
        "hand": "left"
      },
      {
        "midi": 71,
        "time": 193.846,
        "duration": 0.513,
        "velocity": 0.54,
        "hand": "right"
      },
      {
        "midi": 50,
        "time": 194.743,
        "duration": 0.513,
        "velocity": 0.57,
        "hand": "left"
      },
      {
        "midi": 57,
        "time": 194.743,
        "duration": 0.179,
        "velocity": 0.57,
        "hand": "left"
      },
      {
        "midi": 69,
        "time": 195.512,
        "duration": 0.256,
        "velocity": 0.57,
        "hand": "right"
      },
      {
        "midi": 60,
        "time": 196.282,
        "duration": 0.513,
        "velocity": 0.6,
        "hand": "right"
      },
      {
        "midi": 64,
        "time": 196.282,
        "duration": 0.256,
        "velocity": 0.56,
        "hand": "right"
      },
      {
        "midi": 64,
        "time": 197.179,
        "duration": 0.641,
        "velocity": 0.65,
        "hand": "right"
      },
      {
        "midi": 67,
        "time": 197.179,
        "duration": 1.154,
        "velocity": 0.57,
        "hand": "right"
      },
      {
        "midi": 64,
        "time": 197.948,
        "duration": 0.179,
        "velocity": 0.6,
        "hand": "right"
      },
      {
        "midi": 76,
        "time": 198.846,
        "duration": 0.256,
        "velocity": 0.58,
        "hand": "right"
      },
      {
        "midi": 65,
        "time": 199.615,
        "duration": 0.769,
        "velocity": 0.65,
        "hand": "right"
      },
      {
        "midi": 81,
        "time": 199.615,
        "duration": 0.256,
        "velocity": 0.61,
        "hand": "right"
      },
      {
        "midi": 60,
        "time": 200.512,
        "duration": 0.513,
        "velocity": 0.57,
        "hand": "right"
      },
      {
        "midi": 74,
        "time": 200.512,
        "duration": 0.256,
        "velocity": 0.58,
        "hand": "right"
      },
      {
        "midi": 57,
        "time": 201.282,
        "duration": 0.256,
        "velocity": 0.6,
        "hand": "left"
      },
      {
        "midi": 72,
        "time": 202.051,
        "duration": 0.513,
        "velocity": 0.57,
        "hand": "right"
      },
      {
        "midi": 67,
        "time": 202.948,
        "duration": 0.513,
        "velocity": 0.57,
        "hand": "right"
      },
      {
        "midi": 53,
        "time": 203.718,
        "duration": 0.256,
        "velocity": 0.57,
        "hand": "left"
      },
      {
        "midi": 55,
        "time": 204.615,
        "duration": 0.513,
        "velocity": 0.57,
        "hand": "left"
      },
      {
        "midi": 71,
        "time": 204.615,
        "duration": 0.513,
        "velocity": 0.57,
        "hand": "right"
      },
      {
        "midi": 69,
        "time": 205.641,
        "duration": 1.026,
        "velocity": 0.68,
        "hand": "right"
      },
      {
        "midi": 70,
        "time": 206.795,
        "duration": 0.513,
        "velocity": 0.67,
        "hand": "right"
      },
      {
        "midi": 65,
        "time": 207.82,
        "duration": 0.513,
        "velocity": 0.56,
        "hand": "right"
      },
      {
        "midi": 74,
        "time": 207.82,
        "duration": 1.026,
        "velocity": 0.72,
        "hand": "right"
      },
      {
        "midi": 57,
        "time": 208.846,
        "duration": 0.513,
        "velocity": 0.6,
        "hand": "left"
      },
      {
        "midi": 72,
        "time": 208.846,
        "duration": 0.513,
        "velocity": 0.67,
        "hand": "right"
      },
      {
        "midi": 76,
        "time": 209.871,
        "duration": 0.513,
        "velocity": 0.69,
        "hand": "right"
      },
      {
        "midi": 57,
        "time": 210.641,
        "duration": 0.256,
        "velocity": 0.57,
        "hand": "left"
      },
      {
        "midi": 52,
        "time": 211.538,
        "duration": 0.256,
        "velocity": 0.57,
        "hand": "left"
      },
      {
        "midi": 67,
        "time": 211.538,
        "duration": 0.513,
        "velocity": 0.54,
        "hand": "right"
      },
      {
        "midi": 77,
        "time": 212.307,
        "duration": 0.256,
        "velocity": 0.68,
        "hand": "right"
      },
      {
        "midi": 76,
        "time": 213.077,
        "duration": 0.256,
        "velocity": 0.68,
        "hand": "right"
      },
      {
        "midi": 70,
        "time": 213.974,
        "duration": 0.256,
        "velocity": 0.61,
        "hand": "right"
      },
      {
        "midi": 57,
        "time": 214.743,
        "duration": 0.256,
        "velocity": 0.58,
        "hand": "left"
      },
      {
        "midi": 65,
        "time": 214.743,
        "duration": 0.256,
        "velocity": 0.6,
        "hand": "right"
      },
      {
        "midi": 57,
        "time": 215.641,
        "duration": 0.256,
        "velocity": 0.57,
        "hand": "left"
      },
      {
        "midi": 64,
        "time": 215.641,
        "duration": 0.256,
        "velocity": 0.58,
        "hand": "right"
      },
      {
        "midi": 71,
        "time": 216.41,
        "duration": 0.256,
        "velocity": 0.57,
        "hand": "right"
      },
      {
        "midi": 76,
        "time": 217.307,
        "duration": 0.256,
        "velocity": 0.61,
        "hand": "right"
      },
      {
        "midi": 60,
        "time": 218.205,
        "duration": 3.5,
        "velocity": 0.6,
        "hand": "right"
      },
      {
        "midi": 69,
        "time": 218.205,
        "duration": 1.154,
        "velocity": 0.6,
        "hand": "right"
      },
      {
        "midi": 79,
        "time": 218.974,
        "duration": 0.256,
        "velocity": 0.61,
        "hand": "right"
      },
      {
        "midi": 74,
        "time": 220,
        "duration": 1.026,
        "velocity": 0.57,
        "hand": "right"
      },
      {
        "midi": 76,
        "time": 221.025,
        "duration": 3.5,
        "velocity": 0.47,
        "hand": "right"
      },
      {
        "midi": 84,
        "time": 221.025,
        "duration": 3.5,
        "velocity": 0.56,
        "hand": "right"
      }
    ],
    "hard": [
      {
        "midi": 60,
        "time": 0,
        "duration": 1.523,
        "velocity": 0.61,
        "hand": "right"
      },
      {
        "midi": 64,
        "time": 0.128,
        "duration": 1.41,
        "velocity": 0.57,
        "hand": "right"
      },
      {
        "midi": 67,
        "time": 0.384,
        "duration": 0.256,
        "velocity": 0.56,
        "hand": "right"
      },
      {
        "midi": 72,
        "time": 0.641,
        "duration": 0.256,
        "velocity": 0.6,
        "hand": "right"
      },
      {
        "midi": 76,
        "time": 0.769,
        "duration": 0.128,
        "velocity": 0.62,
        "hand": "right"
      },
      {
        "midi": 67,
        "time": 1.025,
        "duration": 0.256,
        "velocity": 0.5,
        "hand": "right"
      },
      {
        "midi": 72,
        "time": 1.153,
        "duration": 0.256,
        "velocity": 0.46,
        "hand": "right"
      },
      {
        "midi": 76,
        "time": 1.41,
        "duration": 0.256,
        "velocity": 0.46,
        "hand": "right"
      },
      {
        "midi": 60,
        "time": 1.538,
        "duration": 1.652,
        "velocity": 0.61,
        "hand": "right"
      },
      {
        "midi": 64,
        "time": 1.795,
        "duration": 1.41,
        "velocity": 0.57,
        "hand": "right"
      },
      {
        "midi": 67,
        "time": 2.051,
        "duration": 0.256,
        "velocity": 0.56,
        "hand": "right"
      },
      {
        "midi": 72,
        "time": 2.179,
        "duration": 0.256,
        "velocity": 0.6,
        "hand": "right"
      },
      {
        "midi": 76,
        "time": 2.436,
        "duration": 0.128,
        "velocity": 0.61,
        "hand": "right"
      },
      {
        "midi": 67,
        "time": 2.564,
        "duration": 0.256,
        "velocity": 0.5,
        "hand": "right"
      },
      {
        "midi": 72,
        "time": 2.82,
        "duration": 0.256,
        "velocity": 0.47,
        "hand": "right"
      },
      {
        "midi": 76,
        "time": 2.948,
        "duration": 0.256,
        "velocity": 0.47,
        "hand": "right"
      },
      {
        "midi": 60,
        "time": 3.205,
        "duration": 1.523,
        "velocity": 0.65,
        "hand": "right"
      },
      {
        "midi": 62,
        "time": 3.461,
        "duration": 1.41,
        "velocity": 0.6,
        "hand": "right"
      },
      {
        "midi": 69,
        "time": 3.589,
        "duration": 0.256,
        "velocity": 0.56,
        "hand": "right"
      },
      {
        "midi": 74,
        "time": 3.846,
        "duration": 0.256,
        "velocity": 0.6,
        "hand": "right"
      },
      {
        "midi": 77,
        "time": 3.974,
        "duration": 0.128,
        "velocity": 0.65,
        "hand": "right"
      },
      {
        "midi": 69,
        "time": 4.23,
        "duration": 0.256,
        "velocity": 0.5,
        "hand": "right"
      },
      {
        "midi": 74,
        "time": 4.359,
        "duration": 0.256,
        "velocity": 0.5,
        "hand": "right"
      },
      {
        "midi": 77,
        "time": 4.615,
        "duration": 0.256,
        "velocity": 0.5,
        "hand": "right"
      },
      {
        "midi": 60,
        "time": 4.743,
        "duration": 1.538,
        "velocity": 0.65,
        "hand": "right"
      },
      {
        "midi": 62,
        "time": 5,
        "duration": 1.41,
        "velocity": 0.6,
        "hand": "right"
      },
      {
        "midi": 69,
        "time": 5.256,
        "duration": 0.256,
        "velocity": 0.57,
        "hand": "right"
      },
      {
        "midi": 74,
        "time": 5.384,
        "duration": 0.256,
        "velocity": 0.6,
        "hand": "right"
      },
      {
        "midi": 77,
        "time": 5.641,
        "duration": 0.128,
        "velocity": 0.65,
        "hand": "right"
      },
      {
        "midi": 69,
        "time": 5.769,
        "duration": 0.256,
        "velocity": 0.51,
        "hand": "right"
      },
      {
        "midi": 74,
        "time": 6.025,
        "duration": 0.256,
        "velocity": 0.5,
        "hand": "right"
      },
      {
        "midi": 77,
        "time": 6.153,
        "duration": 0.256,
        "velocity": 0.5,
        "hand": "right"
      },
      {
        "midi": 59,
        "time": 6.41,
        "duration": 1.523,
        "velocity": 0.65,
        "hand": "left"
      },
      {
        "midi": 62,
        "time": 6.538,
        "duration": 1.41,
        "velocity": 0.6,
        "hand": "right"
      },
      {
        "midi": 67,
        "time": 6.795,
        "duration": 0.256,
        "velocity": 0.56,
        "hand": "right"
      },
      {
        "midi": 74,
        "time": 6.923,
        "duration": 0.256,
        "velocity": 0.6,
        "hand": "right"
      },
      {
        "midi": 77,
        "time": 7.179,
        "duration": 0.128,
        "velocity": 0.65,
        "hand": "right"
      },
      {
        "midi": 67,
        "time": 7.307,
        "duration": 0.256,
        "velocity": 0.5,
        "hand": "right"
      },
      {
        "midi": 74,
        "time": 7.564,
        "duration": 0.256,
        "velocity": 0.5,
        "hand": "right"
      },
      {
        "midi": 77,
        "time": 7.692,
        "duration": 0.256,
        "velocity": 0.5,
        "hand": "right"
      },
      {
        "midi": 59,
        "time": 7.948,
        "duration": 1.538,
        "velocity": 0.65,
        "hand": "left"
      },
      {
        "midi": 62,
        "time": 8.205,
        "duration": 1.41,
        "velocity": 0.6,
        "hand": "right"
      },
      {
        "midi": 67,
        "time": 8.333,
        "duration": 0.256,
        "velocity": 0.56,
        "hand": "right"
      },
      {
        "midi": 74,
        "time": 8.589,
        "duration": 0.256,
        "velocity": 0.6,
        "hand": "right"
      },
      {
        "midi": 77,
        "time": 8.718,
        "duration": 0.128,
        "velocity": 0.65,
        "hand": "right"
      },
      {
        "midi": 67,
        "time": 8.974,
        "duration": 0.256,
        "velocity": 0.51,
        "hand": "right"
      },
      {
        "midi": 74,
        "time": 9.102,
        "duration": 0.256,
        "velocity": 0.5,
        "hand": "right"
      },
      {
        "midi": 77,
        "time": 9.359,
        "duration": 0.256,
        "velocity": 0.5,
        "hand": "right"
      },
      {
        "midi": 60,
        "time": 9.487,
        "duration": 1.538,
        "velocity": 0.61,
        "hand": "right"
      },
      {
        "midi": 64,
        "time": 9.743,
        "duration": 1.41,
        "velocity": 0.57,
        "hand": "right"
      },
      {
        "midi": 67,
        "time": 9.871,
        "duration": 0.256,
        "velocity": 0.53,
        "hand": "right"
      },
      {
        "midi": 72,
        "time": 10.128,
        "duration": 0.256,
        "velocity": 0.54,
        "hand": "right"
      },
      {
        "midi": 76,
        "time": 10.384,
        "duration": 0.128,
        "velocity": 0.6,
        "hand": "right"
      },
      {
        "midi": 67,
        "time": 10.512,
        "duration": 0.256,
        "velocity": 0.5,
        "hand": "right"
      },
      {
        "midi": 72,
        "time": 10.769,
        "duration": 0.256,
        "velocity": 0.46,
        "hand": "right"
      },
      {
        "midi": 76,
        "time": 10.897,
        "duration": 0.256,
        "velocity": 0.46,
        "hand": "right"
      },
      {
        "midi": 60,
        "time": 11.153,
        "duration": 1.524,
        "velocity": 0.61,
        "hand": "right"
      },
      {
        "midi": 64,
        "time": 11.282,
        "duration": 1.41,
        "velocity": 0.57,
        "hand": "right"
      },
      {
        "midi": 67,
        "time": 11.538,
        "duration": 0.256,
        "velocity": 0.54,
        "hand": "right"
      },
      {
        "midi": 72,
        "time": 11.666,
        "duration": 0.256,
        "velocity": 0.57,
        "hand": "right"
      },
      {
        "midi": 76,
        "time": 11.923,
        "duration": 0.128,
        "velocity": 0.61,
        "hand": "right"
      },
      {
        "midi": 67,
        "time": 12.051,
        "duration": 0.256,
        "velocity": 0.5,
        "hand": "right"
      },
      {
        "midi": 72,
        "time": 12.307,
        "duration": 0.256,
        "velocity": 0.47,
        "hand": "right"
      },
      {
        "midi": 76,
        "time": 12.436,
        "duration": 0.256,
        "velocity": 0.47,
        "hand": "right"
      },
      {
        "midi": 60,
        "time": 12.692,
        "duration": 1.523,
        "velocity": 0.67,
        "hand": "right"
      },
      {
        "midi": 64,
        "time": 12.948,
        "duration": 1.41,
        "velocity": 0.61,
        "hand": "right"
      },
      {
        "midi": 69,
        "time": 13.077,
        "duration": 0.256,
        "velocity": 0.61,
        "hand": "right"
      },
      {
        "midi": 76,
        "time": 13.333,
        "duration": 0.256,
        "velocity": 0.65,
        "hand": "right"
      },
      {
        "midi": 81,
        "time": 13.461,
        "duration": 0.128,
        "velocity": 0.69,
        "hand": "right"
      },
      {
        "midi": 69,
        "time": 13.718,
        "duration": 0.256,
        "velocity": 0.54,
        "hand": "right"
      },
      {
        "midi": 76,
        "time": 13.846,
        "duration": 0.256,
        "velocity": 0.5,
        "hand": "right"
      },
      {
        "midi": 81,
        "time": 14.102,
        "duration": 0.256,
        "velocity": 0.5,
        "hand": "right"
      },
      {
        "midi": 60,
        "time": 14.23,
        "duration": 1.538,
        "velocity": 0.68,
        "hand": "right"
      },
      {
        "midi": 64,
        "time": 14.487,
        "duration": 1.41,
        "velocity": 0.61,
        "hand": "right"
      },
      {
        "midi": 69,
        "time": 14.743,
        "duration": 0.256,
        "velocity": 0.61,
        "hand": "right"
      },
      {
        "midi": 76,
        "time": 14.871,
        "duration": 0.256,
        "velocity": 0.65,
        "hand": "right"
      },
      {
        "midi": 81,
        "time": 15.128,
        "duration": 0.128,
        "velocity": 0.68,
        "hand": "right"
      },
      {
        "midi": 69,
        "time": 15.256,
        "duration": 0.256,
        "velocity": 0.54,
        "hand": "right"
      },
      {
        "midi": 76,
        "time": 15.512,
        "duration": 0.256,
        "velocity": 0.51,
        "hand": "right"
      },
      {
        "midi": 81,
        "time": 15.641,
        "duration": 0.256,
        "velocity": 0.51,
        "hand": "right"
      },
      {
        "midi": 60,
        "time": 15.897,
        "duration": 1.524,
        "velocity": 0.61,
        "hand": "right"
      },
      {
        "midi": 62,
        "time": 16.025,
        "duration": 1.41,
        "velocity": 0.57,
        "hand": "right"
      },
      {
        "midi": 66,
        "time": 16.282,
        "duration": 0.256,
        "velocity": 0.56,
        "hand": "right"
      },
      {
        "midi": 69,
        "time": 16.41,
        "duration": 0.256,
        "velocity": 0.6,
        "hand": "right"
      },
      {
        "midi": 74,
        "time": 16.666,
        "duration": 0.128,
        "velocity": 0.62,
        "hand": "right"
      },
      {
        "midi": 66,
        "time": 16.795,
        "duration": 0.256,
        "velocity": 0.5,
        "hand": "right"
      },
      {
        "midi": 69,
        "time": 17.051,
        "duration": 0.256,
        "velocity": 0.46,
        "hand": "right"
      },
      {
        "midi": 74,
        "time": 17.179,
        "duration": 0.256,
        "velocity": 0.46,
        "hand": "right"
      },
      {
        "midi": 60,
        "time": 17.436,
        "duration": 1.538,
        "velocity": 0.61,
        "hand": "right"
      },
      {
        "midi": 62,
        "time": 17.564,
        "duration": 1.41,
        "velocity": 0.57,
        "hand": "right"
      },
      {
        "midi": 66,
        "time": 17.82,
        "duration": 0.256,
        "velocity": 0.56,
        "hand": "right"
      },
      {
        "midi": 69,
        "time": 18.077,
        "duration": 0.256,
        "velocity": 0.6,
        "hand": "right"
      },
      {
        "midi": 74,
        "time": 18.205,
        "duration": 0.128,
        "velocity": 0.61,
        "hand": "right"
      },
      {
        "midi": 66,
        "time": 18.461,
        "duration": 0.256,
        "velocity": 0.5,
        "hand": "right"
      },
      {
        "midi": 69,
        "time": 18.589,
        "duration": 0.256,
        "velocity": 0.47,
        "hand": "right"
      },
      {
        "midi": 74,
        "time": 18.846,
        "duration": 0.256,
        "velocity": 0.47,
        "hand": "right"
      },
      {
        "midi": 59,
        "time": 18.974,
        "duration": 1.538,
        "velocity": 0.65,
        "hand": "left"
      },
      {
        "midi": 62,
        "time": 19.23,
        "duration": 1.41,
        "velocity": 0.6,
        "hand": "right"
      },
      {
        "midi": 67,
        "time": 19.359,
        "duration": 0.256,
        "velocity": 0.57,
        "hand": "right"
      },
      {
        "midi": 74,
        "time": 19.615,
        "duration": 0.256,
        "velocity": 0.62,
        "hand": "right"
      },
      {
        "midi": 79,
        "time": 19.871,
        "duration": 0.128,
        "velocity": 0.65,
        "hand": "right"
      },
      {
        "midi": 67,
        "time": 20,
        "duration": 0.256,
        "velocity": 0.5,
        "hand": "right"
      },
      {
        "midi": 74,
        "time": 20.256,
        "duration": 0.256,
        "velocity": 0.5,
        "hand": "right"
      },
      {
        "midi": 79,
        "time": 20.384,
        "duration": 0.256,
        "velocity": 0.5,
        "hand": "right"
      },
      {
        "midi": 59,
        "time": 20.641,
        "duration": 1.523,
        "velocity": 0.65,
        "hand": "left"
      },
      {
        "midi": 62,
        "time": 20.769,
        "duration": 1.41,
        "velocity": 0.6,
        "hand": "right"
      },
      {
        "midi": 67,
        "time": 21.025,
        "duration": 0.256,
        "velocity": 0.57,
        "hand": "right"
      },
      {
        "midi": 74,
        "time": 21.153,
        "duration": 0.256,
        "velocity": 0.61,
        "hand": "right"
      },
      {
        "midi": 79,
        "time": 21.41,
        "duration": 0.128,
        "velocity": 0.65,
        "hand": "right"
      },
      {
        "midi": 67,
        "time": 21.538,
        "duration": 0.256,
        "velocity": 0.51,
        "hand": "right"
      },
      {
        "midi": 74,
        "time": 21.795,
        "duration": 0.256,
        "velocity": 0.5,
        "hand": "right"
      },
      {
        "midi": 79,
        "time": 21.923,
        "duration": 0.256,
        "velocity": 0.5,
        "hand": "right"
      },
      {
        "midi": 59,
        "time": 22.179,
        "duration": 1.524,
        "velocity": 0.61,
        "hand": "left"
      },
      {
        "midi": 60,
        "time": 22.436,
        "duration": 1.41,
        "velocity": 0.57,
        "hand": "right"
      },
      {
        "midi": 64,
        "time": 22.564,
        "duration": 0.256,
        "velocity": 0.56,
        "hand": "right"
      },
      {
        "midi": 67,
        "time": 22.82,
        "duration": 0.256,
        "velocity": 0.6,
        "hand": "right"
      },
      {
        "midi": 72,
        "time": 22.948,
        "duration": 0.128,
        "velocity": 0.62,
        "hand": "right"
      },
      {
        "midi": 64,
        "time": 23.205,
        "duration": 0.256,
        "velocity": 0.5,
        "hand": "right"
      },
      {
        "midi": 67,
        "time": 23.333,
        "duration": 0.256,
        "velocity": 0.46,
        "hand": "right"
      },
      {
        "midi": 72,
        "time": 23.589,
        "duration": 0.256,
        "velocity": 0.46,
        "hand": "right"
      },
      {
        "midi": 59,
        "time": 23.718,
        "duration": 1.538,
        "velocity": 0.61,
        "hand": "left"
      },
      {
        "midi": 60,
        "time": 23.974,
        "duration": 1.41,
        "velocity": 0.57,
        "hand": "right"
      },
      {
        "midi": 64,
        "time": 24.102,
        "duration": 0.256,
        "velocity": 0.56,
        "hand": "right"
      },
      {
        "midi": 67,
        "time": 24.359,
        "duration": 0.256,
        "velocity": 0.6,
        "hand": "right"
      },
      {
        "midi": 72,
        "time": 24.615,
        "duration": 0.128,
        "velocity": 0.61,
        "hand": "right"
      },
      {
        "midi": 64,
        "time": 24.743,
        "duration": 0.256,
        "velocity": 0.5,
        "hand": "right"
      },
      {
        "midi": 67,
        "time": 25,
        "duration": 0.256,
        "velocity": 0.47,
        "hand": "right"
      },
      {
        "midi": 72,
        "time": 25.128,
        "duration": 0.256,
        "velocity": 0.47,
        "hand": "right"
      },
      {
        "midi": 57,
        "time": 25.384,
        "duration": 1.524,
        "velocity": 0.61,
        "hand": "left"
      },
      {
        "midi": 60,
        "time": 25.512,
        "duration": 1.41,
        "velocity": 0.57,
        "hand": "right"
      },
      {
        "midi": 64,
        "time": 25.769,
        "duration": 0.256,
        "velocity": 0.56,
        "hand": "right"
      },
      {
        "midi": 67,
        "time": 25.897,
        "duration": 0.256,
        "velocity": 0.6,
        "hand": "right"
      },
      {
        "midi": 72,
        "time": 26.153,
        "duration": 0.128,
        "velocity": 0.62,
        "hand": "right"
      },
      {
        "midi": 64,
        "time": 26.282,
        "duration": 0.256,
        "velocity": 0.5,
        "hand": "right"
      },
      {
        "midi": 67,
        "time": 26.538,
        "duration": 0.256,
        "velocity": 0.46,
        "hand": "right"
      },
      {
        "midi": 72,
        "time": 26.795,
        "duration": 0.256,
        "velocity": 0.46,
        "hand": "right"
      },
      {
        "midi": 57,
        "time": 26.923,
        "duration": 1.667,
        "velocity": 0.61,
        "hand": "left"
      },
      {
        "midi": 60,
        "time": 27.179,
        "duration": 1.41,
        "velocity": 0.57,
        "hand": "right"
      },
      {
        "midi": 64,
        "time": 27.307,
        "duration": 0.256,
        "velocity": 0.56,
        "hand": "right"
      },
      {
        "midi": 67,
        "time": 27.564,
        "duration": 0.256,
        "velocity": 0.6,
        "hand": "right"
      },
      {
        "midi": 72,
        "time": 27.692,
        "duration": 0.128,
        "velocity": 0.61,
        "hand": "right"
      },
      {
        "midi": 64,
        "time": 27.948,
        "duration": 0.256,
        "velocity": 0.5,
        "hand": "right"
      },
      {
        "midi": 67,
        "time": 28.077,
        "duration": 0.256,
        "velocity": 0.47,
        "hand": "right"
      },
      {
        "midi": 72,
        "time": 28.333,
        "duration": 0.256,
        "velocity": 0.47,
        "hand": "right"
      },
      {
        "midi": 50,
        "time": 28.589,
        "duration": 1.524,
        "velocity": 0.61,
        "hand": "left"
      },
      {
        "midi": 57,
        "time": 28.718,
        "duration": 1.41,
        "velocity": 0.57,
        "hand": "left"
      },
      {
        "midi": 62,
        "time": 28.974,
        "duration": 0.256,
        "velocity": 0.56,
        "hand": "right"
      },
      {
        "midi": 66,
        "time": 29.23,
        "duration": 0.256,
        "velocity": 0.6,
        "hand": "right"
      },
      {
        "midi": 72,
        "time": 29.359,
        "duration": 0.128,
        "velocity": 0.62,
        "hand": "right"
      },
      {
        "midi": 62,
        "time": 29.615,
        "duration": 0.256,
        "velocity": 0.5,
        "hand": "right"
      },
      {
        "midi": 66,
        "time": 29.743,
        "duration": 0.256,
        "velocity": 0.46,
        "hand": "right"
      },
      {
        "midi": 72,
        "time": 30,
        "duration": 0.256,
        "velocity": 0.46,
        "hand": "right"
      },
      {
        "midi": 50,
        "time": 30.128,
        "duration": 1.667,
        "velocity": 0.61,
        "hand": "left"
      },
      {
        "midi": 57,
        "time": 30.384,
        "duration": 1.41,
        "velocity": 0.57,
        "hand": "left"
      },
      {
        "midi": 62,
        "time": 30.641,
        "duration": 0.256,
        "velocity": 0.56,
        "hand": "right"
      },
      {
        "midi": 66,
        "time": 30.769,
        "duration": 0.256,
        "velocity": 0.6,
        "hand": "right"
      },
      {
        "midi": 72,
        "time": 31.025,
        "duration": 0.128,
        "velocity": 0.61,
        "hand": "right"
      },
      {
        "midi": 62,
        "time": 31.153,
        "duration": 0.256,
        "velocity": 0.5,
        "hand": "right"
      },
      {
        "midi": 66,
        "time": 31.41,
        "duration": 0.256,
        "velocity": 0.47,
        "hand": "right"
      },
      {
        "midi": 72,
        "time": 31.538,
        "duration": 0.256,
        "velocity": 0.47,
        "hand": "right"
      },
      {
        "midi": 55,
        "time": 31.795,
        "duration": 1.523,
        "velocity": 0.57,
        "hand": "left"
      },
      {
        "midi": 59,
        "time": 31.923,
        "duration": 1.41,
        "velocity": 0.54,
        "hand": "left"
      },
      {
        "midi": 62,
        "time": 32.179,
        "duration": 0.256,
        "velocity": 0.53,
        "hand": "right"
      },
      {
        "midi": 67,
        "time": 32.436,
        "duration": 0.256,
        "velocity": 0.56,
        "hand": "right"
      },
      {
        "midi": 71,
        "time": 32.564,
        "duration": 0.128,
        "velocity": 0.6,
        "hand": "right"
      },
      {
        "midi": 62,
        "time": 32.82,
        "duration": 0.256,
        "velocity": 0.46,
        "hand": "right"
      },
      {
        "midi": 67,
        "time": 32.948,
        "duration": 0.256,
        "velocity": 0.44,
        "hand": "right"
      },
      {
        "midi": 71,
        "time": 33.205,
        "duration": 0.256,
        "velocity": 0.44,
        "hand": "right"
      },
      {
        "midi": 55,
        "time": 33.333,
        "duration": 1.538,
        "velocity": 0.57,
        "hand": "left"
      },
      {
        "midi": 59,
        "time": 33.589,
        "duration": 1.41,
        "velocity": 0.54,
        "hand": "left"
      },
      {
        "midi": 62,
        "time": 33.718,
        "duration": 0.256,
        "velocity": 0.53,
        "hand": "right"
      },
      {
        "midi": 67,
        "time": 33.974,
        "duration": 0.256,
        "velocity": 0.56,
        "hand": "right"
      },
      {
        "midi": 71,
        "time": 34.102,
        "duration": 0.128,
        "velocity": 0.57,
        "hand": "right"
      },
      {
        "midi": 62,
        "time": 34.359,
        "duration": 0.256,
        "velocity": 0.46,
        "hand": "right"
      },
      {
        "midi": 67,
        "time": 34.487,
        "duration": 0.256,
        "velocity": 0.44,
        "hand": "right"
      },
      {
        "midi": 71,
        "time": 34.743,
        "duration": 0.256,
        "velocity": 0.44,
        "hand": "right"
      },
      {
        "midi": 55,
        "time": 35,
        "duration": 1.523,
        "velocity": 0.57,
        "hand": "left"
      },
      {
        "midi": 58,
        "time": 35.128,
        "duration": 1.41,
        "velocity": 0.54,
        "hand": "left"
      },
      {
        "midi": 64,
        "time": 35.384,
        "duration": 0.256,
        "velocity": 0.53,
        "hand": "right"
      },
      {
        "midi": 67,
        "time": 35.512,
        "duration": 0.256,
        "velocity": 0.56,
        "hand": "right"
      },
      {
        "midi": 73,
        "time": 35.769,
        "duration": 0.128,
        "velocity": 0.6,
        "hand": "right"
      },
      {
        "midi": 64,
        "time": 35.897,
        "duration": 0.256,
        "velocity": 0.46,
        "hand": "right"
      },
      {
        "midi": 67,
        "time": 36.153,
        "duration": 0.256,
        "velocity": 0.44,
        "hand": "right"
      },
      {
        "midi": 73,
        "time": 36.282,
        "duration": 0.256,
        "velocity": 0.44,
        "hand": "right"
      },
      {
        "midi": 55,
        "time": 36.538,
        "duration": 1.538,
        "velocity": 0.57,
        "hand": "left"
      },
      {
        "midi": 58,
        "time": 36.666,
        "duration": 1.41,
        "velocity": 0.54,
        "hand": "left"
      },
      {
        "midi": 64,
        "time": 36.923,
        "duration": 0.256,
        "velocity": 0.53,
        "hand": "right"
      },
      {
        "midi": 67,
        "time": 37.179,
        "duration": 0.256,
        "velocity": 0.56,
        "hand": "right"
      },
      {
        "midi": 73,
        "time": 37.307,
        "duration": 0.128,
        "velocity": 0.57,
        "hand": "right"
      },
      {
        "midi": 64,
        "time": 37.564,
        "duration": 0.256,
        "velocity": 0.46,
        "hand": "right"
      },
      {
        "midi": 67,
        "time": 37.692,
        "duration": 0.256,
        "velocity": 0.44,
        "hand": "right"
      },
      {
        "midi": 73,
        "time": 37.948,
        "duration": 0.256,
        "velocity": 0.44,
        "hand": "right"
      },
      {
        "midi": 53,
        "time": 38.077,
        "duration": 1.538,
        "velocity": 0.61,
        "hand": "left"
      },
      {
        "midi": 57,
        "time": 38.333,
        "duration": 1.41,
        "velocity": 0.57,
        "hand": "left"
      },
      {
        "midi": 62,
        "time": 38.589,
        "duration": 0.256,
        "velocity": 0.56,
        "hand": "right"
      },
      {
        "midi": 69,
        "time": 38.718,
        "duration": 0.256,
        "velocity": 0.6,
        "hand": "right"
      },
      {
        "midi": 74,
        "time": 38.974,
        "duration": 0.128,
        "velocity": 0.62,
        "hand": "right"
      },
      {
        "midi": 62,
        "time": 39.102,
        "duration": 0.256,
        "velocity": 0.5,
        "hand": "right"
      },
      {
        "midi": 69,
        "time": 39.359,
        "duration": 0.256,
        "velocity": 0.46,
        "hand": "right"
      },
      {
        "midi": 74,
        "time": 39.487,
        "duration": 0.256,
        "velocity": 0.46,
        "hand": "right"
      },
      {
        "midi": 53,
        "time": 39.743,
        "duration": 1.524,
        "velocity": 0.61,
        "hand": "left"
      },
      {
        "midi": 57,
        "time": 39.871,
        "duration": 1.41,
        "velocity": 0.57,
        "hand": "left"
      },
      {
        "midi": 62,
        "time": 40.128,
        "duration": 0.256,
        "velocity": 0.56,
        "hand": "right"
      },
      {
        "midi": 69,
        "time": 40.256,
        "duration": 0.256,
        "velocity": 0.6,
        "hand": "right"
      },
      {
        "midi": 74,
        "time": 40.512,
        "duration": 0.128,
        "velocity": 0.61,
        "hand": "right"
      },
      {
        "midi": 62,
        "time": 40.641,
        "duration": 0.256,
        "velocity": 0.5,
        "hand": "right"
      },
      {
        "midi": 69,
        "time": 40.897,
        "duration": 0.256,
        "velocity": 0.47,
        "hand": "right"
      },
      {
        "midi": 74,
        "time": 41.153,
        "duration": 0.256,
        "velocity": 0.47,
        "hand": "right"
      },
      {
        "midi": 53,
        "time": 41.282,
        "duration": 1.538,
        "velocity": 0.57,
        "hand": "left"
      },
      {
        "midi": 56,
        "time": 41.538,
        "duration": 1.41,
        "velocity": 0.54,
        "hand": "left"
      },
      {
        "midi": 62,
        "time": 41.666,
        "duration": 0.256,
        "velocity": 0.53,
        "hand": "right"
      },
      {
        "midi": 65,
        "time": 41.923,
        "duration": 0.256,
        "velocity": 0.56,
        "hand": "right"
      },
      {
        "midi": 71,
        "time": 42.051,
        "duration": 0.128,
        "velocity": 0.6,
        "hand": "right"
      },
      {
        "midi": 62,
        "time": 42.307,
        "duration": 0.256,
        "velocity": 0.46,
        "hand": "right"
      },
      {
        "midi": 65,
        "time": 42.436,
        "duration": 0.256,
        "velocity": 0.44,
        "hand": "right"
      },
      {
        "midi": 71,
        "time": 42.692,
        "duration": 0.256,
        "velocity": 0.44,
        "hand": "right"
      },
      {
        "midi": 53,
        "time": 42.948,
        "duration": 1.538,
        "velocity": 0.57,
        "hand": "left"
      },
      {
        "midi": 56,
        "time": 43.077,
        "duration": 1.41,
        "velocity": 0.54,
        "hand": "left"
      },
      {
        "midi": 62,
        "time": 43.333,
        "duration": 0.256,
        "velocity": 0.53,
        "hand": "right"
      },
      {
        "midi": 65,
        "time": 43.461,
        "duration": 0.256,
        "velocity": 0.56,
        "hand": "right"
      },
      {
        "midi": 71,
        "time": 43.718,
        "duration": 0.128,
        "velocity": 0.57,
        "hand": "right"
      },
      {
        "midi": 62,
        "time": 43.846,
        "duration": 0.256,
        "velocity": 0.46,
        "hand": "right"
      },
      {
        "midi": 65,
        "time": 44.102,
        "duration": 0.256,
        "velocity": 0.44,
        "hand": "right"
      },
      {
        "midi": 71,
        "time": 44.23,
        "duration": 0.256,
        "velocity": 0.44,
        "hand": "right"
      },
      {
        "midi": 52,
        "time": 44.487,
        "duration": 1.523,
        "velocity": 0.57,
        "hand": "left"
      },
      {
        "midi": 55,
        "time": 44.615,
        "duration": 1.41,
        "velocity": 0.54,
        "hand": "left"
      },
      {
        "midi": 60,
        "time": 44.871,
        "duration": 0.256,
        "velocity": 0.53,
        "hand": "right"
      },
      {
        "midi": 67,
        "time": 45.128,
        "duration": 0.256,
        "velocity": 0.56,
        "hand": "right"
      },
      {
        "midi": 72,
        "time": 45.256,
        "duration": 0.128,
        "velocity": 0.6,
        "hand": "right"
      },
      {
        "midi": 60,
        "time": 45.512,
        "duration": 0.256,
        "velocity": 0.46,
        "hand": "right"
      },
      {
        "midi": 67,
        "time": 45.641,
        "duration": 0.256,
        "velocity": 0.44,
        "hand": "right"
      },
      {
        "midi": 72,
        "time": 45.897,
        "duration": 0.256,
        "velocity": 0.44,
        "hand": "right"
      },
      {
        "midi": 52,
        "time": 46.025,
        "duration": 1.538,
        "velocity": 0.57,
        "hand": "left"
      },
      {
        "midi": 55,
        "time": 46.282,
        "duration": 1.41,
        "velocity": 0.54,
        "hand": "left"
      },
      {
        "midi": 60,
        "time": 46.41,
        "duration": 0.256,
        "velocity": 0.53,
        "hand": "right"
      },
      {
        "midi": 67,
        "time": 46.666,
        "duration": 0.256,
        "velocity": 0.56,
        "hand": "right"
      },
      {
        "midi": 72,
        "time": 46.795,
        "duration": 0.128,
        "velocity": 0.57,
        "hand": "right"
      },
      {
        "midi": 60,
        "time": 47.051,
        "duration": 0.256,
        "velocity": 0.46,
        "hand": "right"
      },
      {
        "midi": 67,
        "time": 47.179,
        "duration": 0.256,
        "velocity": 0.44,
        "hand": "right"
      },
      {
        "midi": 72,
        "time": 47.436,
        "duration": 0.256,
        "velocity": 0.44,
        "hand": "right"
      },
      {
        "midi": 52,
        "time": 47.692,
        "duration": 1.523,
        "velocity": 0.54,
        "hand": "left"
      },
      {
        "midi": 53,
        "time": 47.82,
        "duration": 1.41,
        "velocity": 0.5,
        "hand": "left"
      },
      {
        "midi": 57,
        "time": 48.077,
        "duration": 0.256,
        "velocity": 0.5,
        "hand": "left"
      },
      {
        "midi": 60,
        "time": 48.205,
        "duration": 0.256,
        "velocity": 0.53,
        "hand": "right"
      },
      {
        "midi": 65,
        "time": 48.461,
        "duration": 0.128,
        "velocity": 0.56,
        "hand": "right"
      },
      {
        "midi": 57,
        "time": 48.589,
        "duration": 0.256,
        "velocity": 0.44,
        "hand": "left"
      },
      {
        "midi": 60,
        "time": 48.846,
        "duration": 0.256,
        "velocity": 0.42,
        "hand": "right"
      },
      {
        "midi": 65,
        "time": 48.974,
        "duration": 0.256,
        "velocity": 0.42,
        "hand": "right"
      },
      {
        "midi": 52,
        "time": 49.23,
        "duration": 1.667,
        "velocity": 0.54,
        "hand": "left"
      },
      {
        "midi": 53,
        "time": 49.487,
        "duration": 1.41,
        "velocity": 0.5,
        "hand": "left"
      },
      {
        "midi": 57,
        "time": 49.615,
        "duration": 0.256,
        "velocity": 0.5,
        "hand": "left"
      },
      {
        "midi": 60,
        "time": 49.871,
        "duration": 0.256,
        "velocity": 0.53,
        "hand": "right"
      },
      {
        "midi": 65,
        "time": 50,
        "duration": 0.128,
        "velocity": 0.54,
        "hand": "right"
      },
      {
        "midi": 57,
        "time": 50.256,
        "duration": 0.256,
        "velocity": 0.44,
        "hand": "left"
      },
      {
        "midi": 60,
        "time": 50.384,
        "duration": 0.256,
        "velocity": 0.43,
        "hand": "right"
      },
      {
        "midi": 65,
        "time": 50.641,
        "duration": 0.256,
        "velocity": 0.43,
        "hand": "right"
      },
      {
        "midi": 50,
        "time": 50.897,
        "duration": 1.524,
        "velocity": 0.54,
        "hand": "left"
      },
      {
        "midi": 53,
        "time": 51.025,
        "duration": 1.41,
        "velocity": 0.5,
        "hand": "left"
      },
      {
        "midi": 57,
        "time": 51.282,
        "duration": 0.256,
        "velocity": 0.5,
        "hand": "left"
      },
      {
        "midi": 60,
        "time": 51.41,
        "duration": 0.256,
        "velocity": 0.53,
        "hand": "right"
      },
      {
        "midi": 65,
        "time": 51.666,
        "duration": 0.128,
        "velocity": 0.56,
        "hand": "right"
      },
      {
        "midi": 57,
        "time": 51.795,
        "duration": 0.256,
        "velocity": 0.44,
        "hand": "left"
      },
      {
        "midi": 60,
        "time": 52.051,
        "duration": 0.256,
        "velocity": 0.42,
        "hand": "right"
      },
      {
        "midi": 65,
        "time": 52.179,
        "duration": 0.256,
        "velocity": 0.42,
        "hand": "right"
      },
      {
        "midi": 50,
        "time": 52.436,
        "duration": 1.667,
        "velocity": 0.54,
        "hand": "left"
      },
      {
        "midi": 53,
        "time": 52.692,
        "duration": 1.41,
        "velocity": 0.5,
        "hand": "left"
      },
      {
        "midi": 57,
        "time": 52.82,
        "duration": 0.256,
        "velocity": 0.5,
        "hand": "left"
      },
      {
        "midi": 60,
        "time": 53.077,
        "duration": 0.256,
        "velocity": 0.53,
        "hand": "right"
      },
      {
        "midi": 65,
        "time": 53.205,
        "duration": 0.128,
        "velocity": 0.54,
        "hand": "right"
      },
      {
        "midi": 57,
        "time": 53.461,
        "duration": 0.256,
        "velocity": 0.44,
        "hand": "left"
      },
      {
        "midi": 60,
        "time": 53.589,
        "duration": 0.256,
        "velocity": 0.43,
        "hand": "right"
      },
      {
        "midi": 65,
        "time": 53.846,
        "duration": 0.256,
        "velocity": 0.43,
        "hand": "right"
      },
      {
        "midi": 43,
        "time": 54.102,
        "duration": 1.524,
        "velocity": 0.54,
        "hand": "left"
      },
      {
        "midi": 50,
        "time": 54.23,
        "duration": 1.41,
        "velocity": 0.5,
        "hand": "left"
      },
      {
        "midi": 55,
        "time": 54.487,
        "duration": 0.256,
        "velocity": 0.5,
        "hand": "left"
      },
      {
        "midi": 59,
        "time": 54.615,
        "duration": 0.256,
        "velocity": 0.53,
        "hand": "left"
      },
      {
        "midi": 65,
        "time": 54.871,
        "duration": 0.128,
        "velocity": 0.56,
        "hand": "right"
      },
      {
        "midi": 55,
        "time": 55.128,
        "duration": 0.256,
        "velocity": 0.44,
        "hand": "left"
      },
      {
        "midi": 59,
        "time": 55.256,
        "duration": 0.256,
        "velocity": 0.42,
        "hand": "left"
      },
      {
        "midi": 65,
        "time": 55.512,
        "duration": 0.256,
        "velocity": 0.42,
        "hand": "right"
      },
      {
        "midi": 43,
        "time": 55.641,
        "duration": 1.667,
        "velocity": 0.54,
        "hand": "left"
      },
      {
        "midi": 50,
        "time": 55.897,
        "duration": 1.41,
        "velocity": 0.5,
        "hand": "left"
      },
      {
        "midi": 55,
        "time": 56.025,
        "duration": 0.256,
        "velocity": 0.5,
        "hand": "left"
      },
      {
        "midi": 59,
        "time": 56.282,
        "duration": 0.256,
        "velocity": 0.53,
        "hand": "left"
      },
      {
        "midi": 65,
        "time": 56.538,
        "duration": 0.128,
        "velocity": 0.54,
        "hand": "right"
      },
      {
        "midi": 55,
        "time": 56.666,
        "duration": 0.256,
        "velocity": 0.44,
        "hand": "left"
      },
      {
        "midi": 59,
        "time": 56.923,
        "duration": 0.256,
        "velocity": 0.43,
        "hand": "left"
      },
      {
        "midi": 65,
        "time": 57.051,
        "duration": 0.256,
        "velocity": 0.43,
        "hand": "right"
      },
      {
        "midi": 48,
        "time": 57.307,
        "duration": 1.652,
        "velocity": 0.54,
        "hand": "left"
      },
      {
        "midi": 52,
        "time": 57.436,
        "duration": 1.41,
        "velocity": 0.5,
        "hand": "left"
      },
      {
        "midi": 55,
        "time": 57.692,
        "duration": 0.256,
        "velocity": 0.5,
        "hand": "left"
      },
      {
        "midi": 60,
        "time": 57.948,
        "duration": 0.256,
        "velocity": 0.53,
        "hand": "right"
      },
      {
        "midi": 64,
        "time": 58.077,
        "duration": 0.128,
        "velocity": 0.56,
        "hand": "right"
      },
      {
        "midi": 55,
        "time": 58.333,
        "duration": 0.256,
        "velocity": 0.44,
        "hand": "left"
      },
      {
        "midi": 60,
        "time": 58.461,
        "duration": 0.256,
        "velocity": 0.42,
        "hand": "right"
      },
      {
        "midi": 64,
        "time": 58.718,
        "duration": 0.256,
        "velocity": 0.42,
        "hand": "right"
      },
      {
        "midi": 48,
        "time": 58.974,
        "duration": 1.523,
        "velocity": 0.54,
        "hand": "left"
      },
      {
        "midi": 52,
        "time": 59.102,
        "duration": 1.41,
        "velocity": 0.5,
        "hand": "left"
      },
      {
        "midi": 55,
        "time": 59.359,
        "duration": 0.256,
        "velocity": 0.5,
        "hand": "left"
      },
      {
        "midi": 60,
        "time": 59.487,
        "duration": 0.256,
        "velocity": 0.53,
        "hand": "right"
      },
      {
        "midi": 64,
        "time": 59.743,
        "duration": 0.128,
        "velocity": 0.54,
        "hand": "right"
      },
      {
        "midi": 55,
        "time": 59.871,
        "duration": 0.256,
        "velocity": 0.44,
        "hand": "left"
      },
      {
        "midi": 60,
        "time": 60.128,
        "duration": 0.256,
        "velocity": 0.43,
        "hand": "right"
      },
      {
        "midi": 64,
        "time": 60.384,
        "duration": 0.256,
        "velocity": 0.43,
        "hand": "right"
      },
      {
        "midi": 48,
        "time": 60.512,
        "duration": 1.538,
        "velocity": 0.5,
        "hand": "left"
      },
      {
        "midi": 55,
        "time": 60.769,
        "duration": 1.41,
        "velocity": 0.47,
        "hand": "left"
      },
      {
        "midi": 58,
        "time": 60.897,
        "duration": 0.256,
        "velocity": 0.46,
        "hand": "left"
      },
      {
        "midi": 60,
        "time": 61.153,
        "duration": 0.256,
        "velocity": 0.5,
        "hand": "right"
      },
      {
        "midi": 64,
        "time": 61.282,
        "duration": 0.128,
        "velocity": 0.53,
        "hand": "right"
      },
      {
        "midi": 58,
        "time": 61.538,
        "duration": 0.256,
        "velocity": 0.4,
        "hand": "left"
      },
      {
        "midi": 60,
        "time": 61.666,
        "duration": 0.256,
        "velocity": 0.39,
        "hand": "right"
      },
      {
        "midi": 64,
        "time": 61.923,
        "duration": 0.256,
        "velocity": 0.39,
        "hand": "right"
      },
      {
        "midi": 48,
        "time": 62.179,
        "duration": 1.667,
        "velocity": 0.51,
        "hand": "left"
      },
      {
        "midi": 55,
        "time": 62.307,
        "duration": 1.41,
        "velocity": 0.47,
        "hand": "left"
      },
      {
        "midi": 58,
        "time": 62.564,
        "duration": 0.256,
        "velocity": 0.46,
        "hand": "left"
      },
      {
        "midi": 60,
        "time": 62.692,
        "duration": 0.256,
        "velocity": 0.5,
        "hand": "right"
      },
      {
        "midi": 64,
        "time": 62.948,
        "duration": 0.128,
        "velocity": 0.51,
        "hand": "right"
      },
      {
        "midi": 58,
        "time": 63.077,
        "duration": 0.256,
        "velocity": 0.42,
        "hand": "left"
      },
      {
        "midi": 60,
        "time": 63.333,
        "duration": 0.256,
        "velocity": 0.39,
        "hand": "right"
      },
      {
        "midi": 64,
        "time": 63.461,
        "duration": 0.256,
        "velocity": 0.39,
        "hand": "right"
      },
      {
        "midi": 41,
        "time": 63.718,
        "duration": 1.538,
        "velocity": 0.5,
        "hand": "left"
      },
      {
        "midi": 53,
        "time": 63.974,
        "duration": 1.41,
        "velocity": 0.47,
        "hand": "left"
      },
      {
        "midi": 57,
        "time": 64.102,
        "duration": 0.256,
        "velocity": 0.46,
        "hand": "left"
      },
      {
        "midi": 60,
        "time": 64.359,
        "duration": 0.256,
        "velocity": 0.5,
        "hand": "right"
      },
      {
        "midi": 64,
        "time": 64.487,
        "duration": 0.128,
        "velocity": 0.53,
        "hand": "right"
      },
      {
        "midi": 57,
        "time": 64.743,
        "duration": 0.256,
        "velocity": 0.4,
        "hand": "left"
      },
      {
        "midi": 60,
        "time": 64.871,
        "duration": 0.256,
        "velocity": 0.39,
        "hand": "right"
      },
      {
        "midi": 64,
        "time": 65.128,
        "duration": 0.256,
        "velocity": 0.39,
        "hand": "right"
      },
      {
        "midi": 41,
        "time": 65.384,
        "duration": 1.667,
        "velocity": 0.51,
        "hand": "left"
      },
      {
        "midi": 53,
        "time": 65.512,
        "duration": 1.41,
        "velocity": 0.47,
        "hand": "left"
      },
      {
        "midi": 57,
        "time": 65.769,
        "duration": 0.256,
        "velocity": 0.46,
        "hand": "left"
      },
      {
        "midi": 60,
        "time": 65.897,
        "duration": 0.256,
        "velocity": 0.5,
        "hand": "right"
      },
      {
        "midi": 64,
        "time": 66.153,
        "duration": 0.128,
        "velocity": 0.51,
        "hand": "right"
      },
      {
        "midi": 57,
        "time": 66.282,
        "duration": 0.256,
        "velocity": 0.42,
        "hand": "left"
      },
      {
        "midi": 60,
        "time": 66.538,
        "duration": 0.256,
        "velocity": 0.39,
        "hand": "right"
      },
      {
        "midi": 64,
        "time": 66.666,
        "duration": 0.256,
        "velocity": 0.39,
        "hand": "right"
      },
      {
        "midi": 42,
        "time": 66.923,
        "duration": 1.651,
        "velocity": 0.54,
        "hand": "left"
      },
      {
        "midi": 48,
        "time": 67.179,
        "duration": 1.41,
        "velocity": 0.5,
        "hand": "left"
      },
      {
        "midi": 57,
        "time": 67.307,
        "duration": 0.256,
        "velocity": 0.5,
        "hand": "left"
      },
      {
        "midi": 60,
        "time": 67.564,
        "duration": 0.256,
        "velocity": 0.53,
        "hand": "right"
      },
      {
        "midi": 63,
        "time": 67.692,
        "duration": 0.128,
        "velocity": 0.56,
        "hand": "right"
      },
      {
        "midi": 57,
        "time": 67.948,
        "duration": 0.256,
        "velocity": 0.44,
        "hand": "left"
      },
      {
        "midi": 60,
        "time": 68.205,
        "duration": 0.256,
        "velocity": 0.42,
        "hand": "right"
      },
      {
        "midi": 63,
        "time": 68.333,
        "duration": 0.256,
        "velocity": 0.42,
        "hand": "right"
      },
      {
        "midi": 42,
        "time": 68.589,
        "duration": 1.667,
        "velocity": 0.54,
        "hand": "left"
      },
      {
        "midi": 48,
        "time": 68.718,
        "duration": 1.41,
        "velocity": 0.5,
        "hand": "left"
      },
      {
        "midi": 57,
        "time": 68.974,
        "duration": 0.256,
        "velocity": 0.5,
        "hand": "left"
      },
      {
        "midi": 60,
        "time": 69.102,
        "duration": 0.256,
        "velocity": 0.53,
        "hand": "right"
      },
      {
        "midi": 63,
        "time": 69.359,
        "duration": 0.128,
        "velocity": 0.54,
        "hand": "right"
      },
      {
        "midi": 57,
        "time": 69.615,
        "duration": 0.256,
        "velocity": 0.44,
        "hand": "left"
      },
      {
        "midi": 60,
        "time": 69.743,
        "duration": 0.256,
        "velocity": 0.43,
        "hand": "right"
      },
      {
        "midi": 63,
        "time": 70,
        "duration": 0.256,
        "velocity": 0.43,
        "hand": "right"
      },
      {
        "midi": 44,
        "time": 70.256,
        "duration": 1.524,
        "velocity": 0.5,
        "hand": "left"
      },
      {
        "midi": 53,
        "time": 70.384,
        "duration": 1.41,
        "velocity": 0.47,
        "hand": "left"
      },
      {
        "midi": 59,
        "time": 70.641,
        "duration": 0.256,
        "velocity": 0.46,
        "hand": "left"
      },
      {
        "midi": 60,
        "time": 70.769,
        "duration": 0.256,
        "velocity": 0.5,
        "hand": "right"
      },
      {
        "midi": 62,
        "time": 71.025,
        "duration": 0.128,
        "velocity": 0.53,
        "hand": "right"
      },
      {
        "midi": 59,
        "time": 71.153,
        "duration": 0.256,
        "velocity": 0.4,
        "hand": "left"
      },
      {
        "midi": 60,
        "time": 71.41,
        "duration": 0.256,
        "velocity": 0.39,
        "hand": "right"
      },
      {
        "midi": 62,
        "time": 71.538,
        "duration": 0.256,
        "velocity": 0.39,
        "hand": "right"
      },
      {
        "midi": 44,
        "time": 71.795,
        "duration": 1.538,
        "velocity": 0.51,
        "hand": "left"
      },
      {
        "midi": 53,
        "time": 71.923,
        "duration": 1.41,
        "velocity": 0.47,
        "hand": "left"
      },
      {
        "midi": 59,
        "time": 72.179,
        "duration": 0.256,
        "velocity": 0.46,
        "hand": "left"
      },
      {
        "midi": 60,
        "time": 72.307,
        "duration": 0.256,
        "velocity": 0.5,
        "hand": "right"
      },
      {
        "midi": 62,
        "time": 72.564,
        "duration": 0.128,
        "velocity": 0.51,
        "hand": "right"
      },
      {
        "midi": 59,
        "time": 72.82,
        "duration": 0.256,
        "velocity": 0.42,
        "hand": "left"
      },
      {
        "midi": 60,
        "time": 72.948,
        "duration": 0.256,
        "velocity": 0.39,
        "hand": "right"
      },
      {
        "midi": 62,
        "time": 73.205,
        "duration": 0.256,
        "velocity": 0.39,
        "hand": "right"
      },
      {
        "midi": 43,
        "time": 73.333,
        "duration": 1.538,
        "velocity": 0.54,
        "hand": "left"
      },
      {
        "midi": 53,
        "time": 73.589,
        "duration": 1.41,
        "velocity": 0.5,
        "hand": "left"
      },
      {
        "midi": 55,
        "time": 73.718,
        "duration": 0.256,
        "velocity": 0.5,
        "hand": "left"
      },
      {
        "midi": 59,
        "time": 73.974,
        "duration": 0.256,
        "velocity": 0.53,
        "hand": "left"
      },
      {
        "midi": 62,
        "time": 74.102,
        "duration": 0.128,
        "velocity": 0.56,
        "hand": "right"
      },
      {
        "midi": 55,
        "time": 74.359,
        "duration": 0.256,
        "velocity": 0.44,
        "hand": "left"
      },
      {
        "midi": 59,
        "time": 74.615,
        "duration": 0.256,
        "velocity": 0.42,
        "hand": "left"
      },
      {
        "midi": 62,
        "time": 74.743,
        "duration": 0.256,
        "velocity": 0.42,
        "hand": "right"
      },
      {
        "midi": 43,
        "time": 75,
        "duration": 1.523,
        "velocity": 0.54,
        "hand": "left"
      },
      {
        "midi": 53,
        "time": 75.128,
        "duration": 1.41,
        "velocity": 0.5,
        "hand": "left"
      },
      {
        "midi": 55,
        "time": 75.384,
        "duration": 0.256,
        "velocity": 0.5,
        "hand": "left"
      },
      {
        "midi": 59,
        "time": 75.512,
        "duration": 0.256,
        "velocity": 0.53,
        "hand": "left"
      },
      {
        "midi": 62,
        "time": 75.769,
        "duration": 0.128,
        "velocity": 0.54,
        "hand": "right"
      },
      {
        "midi": 55,
        "time": 75.897,
        "duration": 0.256,
        "velocity": 0.44,
        "hand": "left"
      },
      {
        "midi": 59,
        "time": 76.153,
        "duration": 0.256,
        "velocity": 0.43,
        "hand": "left"
      },
      {
        "midi": 62,
        "time": 76.41,
        "duration": 0.256,
        "velocity": 0.43,
        "hand": "right"
      },
      {
        "midi": 43,
        "time": 76.538,
        "duration": 1.538,
        "velocity": 0.54,
        "hand": "left"
      },
      {
        "midi": 52,
        "time": 76.795,
        "duration": 1.41,
        "velocity": 0.5,
        "hand": "left"
      },
      {
        "midi": 55,
        "time": 76.923,
        "duration": 0.256,
        "velocity": 0.5,
        "hand": "left"
      },
      {
        "midi": 60,
        "time": 77.179,
        "duration": 0.256,
        "velocity": 0.53,
        "hand": "right"
      },
      {
        "midi": 64,
        "time": 77.307,
        "duration": 0.128,
        "velocity": 0.56,
        "hand": "right"
      },
      {
        "midi": 55,
        "time": 77.564,
        "duration": 0.256,
        "velocity": 0.44,
        "hand": "left"
      },
      {
        "midi": 60,
        "time": 77.82,
        "duration": 0.256,
        "velocity": 0.42,
        "hand": "right"
      },
      {
        "midi": 64,
        "time": 77.948,
        "duration": 0.256,
        "velocity": 0.42,
        "hand": "right"
      },
      {
        "midi": 43,
        "time": 78.205,
        "duration": 1.523,
        "velocity": 0.54,
        "hand": "left"
      },
      {
        "midi": 52,
        "time": 78.333,
        "duration": 1.41,
        "velocity": 0.5,
        "hand": "left"
      },
      {
        "midi": 55,
        "time": 78.589,
        "duration": 0.256,
        "velocity": 0.5,
        "hand": "left"
      },
      {
        "midi": 60,
        "time": 78.718,
        "duration": 0.256,
        "velocity": 0.53,
        "hand": "right"
      },
      {
        "midi": 64,
        "time": 78.974,
        "duration": 0.128,
        "velocity": 0.54,
        "hand": "right"
      },
      {
        "midi": 55,
        "time": 79.102,
        "duration": 0.256,
        "velocity": 0.44,
        "hand": "left"
      },
      {
        "midi": 60,
        "time": 79.359,
        "duration": 0.256,
        "velocity": 0.43,
        "hand": "right"
      },
      {
        "midi": 64,
        "time": 79.487,
        "duration": 0.256,
        "velocity": 0.43,
        "hand": "right"
      },
      {
        "midi": 43,
        "time": 79.743,
        "duration": 1.524,
        "velocity": 0.57,
        "hand": "left"
      },
      {
        "midi": 50,
        "time": 80,
        "duration": 1.41,
        "velocity": 0.54,
        "hand": "left"
      },
      {
        "midi": 55,
        "time": 80.128,
        "duration": 0.256,
        "velocity": 0.53,
        "hand": "left"
      },
      {
        "midi": 60,
        "time": 80.384,
        "duration": 0.256,
        "velocity": 0.56,
        "hand": "right"
      },
      {
        "midi": 65,
        "time": 80.512,
        "duration": 0.128,
        "velocity": 0.6,
        "hand": "right"
      },
      {
        "midi": 55,
        "time": 80.769,
        "duration": 0.256,
        "velocity": 0.46,
        "hand": "left"
      },
      {
        "midi": 60,
        "time": 80.897,
        "duration": 0.256,
        "velocity": 0.44,
        "hand": "right"
      },
      {
        "midi": 65,
        "time": 81.153,
        "duration": 0.256,
        "velocity": 0.44,
        "hand": "right"
      },
      {
        "midi": 43,
        "time": 81.282,
        "duration": 1.538,
        "velocity": 0.57,
        "hand": "left"
      },
      {
        "midi": 50,
        "time": 81.538,
        "duration": 1.41,
        "velocity": 0.54,
        "hand": "left"
      },
      {
        "midi": 55,
        "time": 81.666,
        "duration": 0.256,
        "velocity": 0.53,
        "hand": "left"
      },
      {
        "midi": 60,
        "time": 81.923,
        "duration": 0.256,
        "velocity": 0.56,
        "hand": "right"
      },
      {
        "midi": 65,
        "time": 82.051,
        "duration": 0.128,
        "velocity": 0.57,
        "hand": "right"
      },
      {
        "midi": 55,
        "time": 82.307,
        "duration": 0.256,
        "velocity": 0.46,
        "hand": "left"
      },
      {
        "midi": 60,
        "time": 82.436,
        "duration": 0.256,
        "velocity": 0.44,
        "hand": "right"
      },
      {
        "midi": 65,
        "time": 82.692,
        "duration": 0.256,
        "velocity": 0.44,
        "hand": "right"
      },
      {
        "midi": 43,
        "time": 82.948,
        "duration": 1.524,
        "velocity": 0.57,
        "hand": "left"
      },
      {
        "midi": 50,
        "time": 83.077,
        "duration": 1.41,
        "velocity": 0.54,
        "hand": "left"
      },
      {
        "midi": 55,
        "time": 83.333,
        "duration": 0.256,
        "velocity": 0.53,
        "hand": "left"
      },
      {
        "midi": 59,
        "time": 83.461,
        "duration": 0.256,
        "velocity": 0.56,
        "hand": "left"
      },
      {
        "midi": 65,
        "time": 83.718,
        "duration": 0.128,
        "velocity": 0.6,
        "hand": "right"
      },
      {
        "midi": 55,
        "time": 83.846,
        "duration": 0.256,
        "velocity": 0.46,
        "hand": "left"
      },
      {
        "midi": 59,
        "time": 84.102,
        "duration": 0.256,
        "velocity": 0.44,
        "hand": "left"
      },
      {
        "midi": 65,
        "time": 84.23,
        "duration": 0.256,
        "velocity": 0.44,
        "hand": "right"
      },
      {
        "midi": 43,
        "time": 84.487,
        "duration": 1.523,
        "velocity": 0.57,
        "hand": "left"
      },
      {
        "midi": 50,
        "time": 84.615,
        "duration": 1.41,
        "velocity": 0.54,
        "hand": "left"
      },
      {
        "midi": 55,
        "time": 84.871,
        "duration": 0.256,
        "velocity": 0.53,
        "hand": "left"
      },
      {
        "midi": 59,
        "time": 85.128,
        "duration": 0.256,
        "velocity": 0.56,
        "hand": "left"
      },
      {
        "midi": 65,
        "time": 85.256,
        "duration": 0.128,
        "velocity": 0.57,
        "hand": "right"
      },
      {
        "midi": 55,
        "time": 85.512,
        "duration": 0.256,
        "velocity": 0.46,
        "hand": "left"
      },
      {
        "midi": 59,
        "time": 85.641,
        "duration": 0.256,
        "velocity": 0.44,
        "hand": "left"
      },
      {
        "midi": 65,
        "time": 85.897,
        "duration": 0.256,
        "velocity": 0.44,
        "hand": "right"
      },
      {
        "midi": 43,
        "time": 86.025,
        "duration": 1.652,
        "velocity": 0.61,
        "hand": "left"
      },
      {
        "midi": 51,
        "time": 86.282,
        "duration": 1.41,
        "velocity": 0.57,
        "hand": "left"
      },
      {
        "midi": 57,
        "time": 86.41,
        "duration": 0.256,
        "velocity": 0.56,
        "hand": "left"
      },
      {
        "midi": 60,
        "time": 86.666,
        "duration": 0.256,
        "velocity": 0.6,
        "hand": "right"
      },
      {
        "midi": 66,
        "time": 86.795,
        "duration": 0.128,
        "velocity": 0.62,
        "hand": "right"
      },
      {
        "midi": 57,
        "time": 87.051,
        "duration": 0.256,
        "velocity": 0.5,
        "hand": "left"
      },
      {
        "midi": 60,
        "time": 87.307,
        "duration": 0.256,
        "velocity": 0.46,
        "hand": "right"
      },
      {
        "midi": 66,
        "time": 87.436,
        "duration": 0.256,
        "velocity": 0.46,
        "hand": "right"
      },
      {
        "midi": 43,
        "time": 87.692,
        "duration": 1.523,
        "velocity": 0.61,
        "hand": "left"
      },
      {
        "midi": 51,
        "time": 87.82,
        "duration": 1.41,
        "velocity": 0.57,
        "hand": "left"
      },
      {
        "midi": 57,
        "time": 88.077,
        "duration": 0.256,
        "velocity": 0.56,
        "hand": "left"
      },
      {
        "midi": 60,
        "time": 88.205,
        "duration": 0.256,
        "velocity": 0.6,
        "hand": "right"
      },
      {
        "midi": 66,
        "time": 88.461,
        "duration": 0.128,
        "velocity": 0.61,
        "hand": "right"
      },
      {
        "midi": 57,
        "time": 88.589,
        "duration": 0.256,
        "velocity": 0.5,
        "hand": "left"
      },
      {
        "midi": 60,
        "time": 88.846,
        "duration": 0.256,
        "velocity": 0.47,
        "hand": "right"
      },
      {
        "midi": 66,
        "time": 89.102,
        "duration": 0.256,
        "velocity": 0.47,
        "hand": "right"
      },
      {
        "midi": 43,
        "time": 89.23,
        "duration": 1.652,
        "velocity": 0.65,
        "hand": "left"
      },
      {
        "midi": 52,
        "time": 89.487,
        "duration": 1.41,
        "velocity": 0.6,
        "hand": "left"
      },
      {
        "midi": 55,
        "time": 89.743,
        "duration": 0.256,
        "velocity": 0.57,
        "hand": "left"
      },
      {
        "midi": 60,
        "time": 89.871,
        "duration": 0.256,
        "velocity": 0.62,
        "hand": "right"
      },
      {
        "midi": 67,
        "time": 90.128,
        "duration": 0.128,
        "velocity": 0.65,
        "hand": "right"
      },
      {
        "midi": 55,
        "time": 90.384,
        "duration": 0.256,
        "velocity": 0.5,
        "hand": "left"
      },
      {
        "midi": 60,
        "time": 90.512,
        "duration": 0.256,
        "velocity": 0.5,
        "hand": "right"
      },
      {
        "midi": 67,
        "time": 90.769,
        "duration": 0.256,
        "velocity": 0.5,
        "hand": "right"
      },
      {
        "midi": 43,
        "time": 90.897,
        "duration": 1.652,
        "velocity": 0.65,
        "hand": "left"
      },
      {
        "midi": 52,
        "time": 91.153,
        "duration": 1.41,
        "velocity": 0.6,
        "hand": "left"
      },
      {
        "midi": 55,
        "time": 91.282,
        "duration": 0.256,
        "velocity": 0.57,
        "hand": "left"
      },
      {
        "midi": 60,
        "time": 91.538,
        "duration": 0.256,
        "velocity": 0.61,
        "hand": "right"
      },
      {
        "midi": 67,
        "time": 91.795,
        "duration": 0.128,
        "velocity": 0.65,
        "hand": "right"
      },
      {
        "midi": 55,
        "time": 91.923,
        "duration": 0.256,
        "velocity": 0.51,
        "hand": "left"
      },
      {
        "midi": 60,
        "time": 92.179,
        "duration": 0.256,
        "velocity": 0.5,
        "hand": "right"
      },
      {
        "midi": 67,
        "time": 92.307,
        "duration": 0.256,
        "velocity": 0.5,
        "hand": "right"
      },
      {
        "midi": 43,
        "time": 92.564,
        "duration": 1.523,
        "velocity": 0.54,
        "hand": "left"
      },
      {
        "midi": 50,
        "time": 92.82,
        "duration": 1.41,
        "velocity": 0.5,
        "hand": "left"
      },
      {
        "midi": 55,
        "time": 92.948,
        "duration": 0.256,
        "velocity": 0.5,
        "hand": "left"
      },
      {
        "midi": 60,
        "time": 93.205,
        "duration": 0.256,
        "velocity": 0.53,
        "hand": "right"
      },
      {
        "midi": 65,
        "time": 93.333,
        "duration": 0.128,
        "velocity": 0.56,
        "hand": "right"
      },
      {
        "midi": 55,
        "time": 93.589,
        "duration": 0.256,
        "velocity": 0.44,
        "hand": "left"
      },
      {
        "midi": 60,
        "time": 93.718,
        "duration": 0.256,
        "velocity": 0.42,
        "hand": "right"
      },
      {
        "midi": 65,
        "time": 93.974,
        "duration": 0.256,
        "velocity": 0.42,
        "hand": "right"
      },
      {
        "midi": 43,
        "time": 94.102,
        "duration": 1.538,
        "velocity": 0.54,
        "hand": "left"
      },
      {
        "midi": 50,
        "time": 94.359,
        "duration": 1.41,
        "velocity": 0.5,
        "hand": "left"
      },
      {
        "midi": 55,
        "time": 94.615,
        "duration": 0.256,
        "velocity": 0.5,
        "hand": "left"
      },
      {
        "midi": 60,
        "time": 94.743,
        "duration": 0.256,
        "velocity": 0.53,
        "hand": "right"
      },
      {
        "midi": 65,
        "time": 95,
        "duration": 0.128,
        "velocity": 0.54,
        "hand": "right"
      },
      {
        "midi": 55,
        "time": 95.128,
        "duration": 0.256,
        "velocity": 0.44,
        "hand": "left"
      },
      {
        "midi": 60,
        "time": 95.384,
        "duration": 0.256,
        "velocity": 0.43,
        "hand": "right"
      },
      {
        "midi": 65,
        "time": 95.512,
        "duration": 0.256,
        "velocity": 0.43,
        "hand": "right"
      },
      {
        "midi": 43,
        "time": 95.769,
        "duration": 1.523,
        "velocity": 0.54,
        "hand": "left"
      },
      {
        "midi": 50,
        "time": 95.897,
        "duration": 1.41,
        "velocity": 0.5,
        "hand": "left"
      },
      {
        "midi": 55,
        "time": 96.153,
        "duration": 0.256,
        "velocity": 0.5,
        "hand": "left"
      },
      {
        "midi": 59,
        "time": 96.41,
        "duration": 0.256,
        "velocity": 0.53,
        "hand": "left"
      },
      {
        "midi": 65,
        "time": 96.538,
        "duration": 0.128,
        "velocity": 0.56,
        "hand": "right"
      },
      {
        "midi": 55,
        "time": 96.795,
        "duration": 0.256,
        "velocity": 0.44,
        "hand": "left"
      },
      {
        "midi": 59,
        "time": 96.923,
        "duration": 0.256,
        "velocity": 0.42,
        "hand": "left"
      },
      {
        "midi": 65,
        "time": 97.179,
        "duration": 0.256,
        "velocity": 0.42,
        "hand": "right"
      },
      {
        "midi": 43,
        "time": 97.307,
        "duration": 1.667,
        "velocity": 0.54,
        "hand": "left"
      },
      {
        "midi": 50,
        "time": 97.564,
        "duration": 1.41,
        "velocity": 0.5,
        "hand": "left"
      },
      {
        "midi": 55,
        "time": 97.82,
        "duration": 0.256,
        "velocity": 0.5,
        "hand": "left"
      },
      {
        "midi": 59,
        "time": 97.948,
        "duration": 0.256,
        "velocity": 0.53,
        "hand": "left"
      },
      {
        "midi": 65,
        "time": 98.205,
        "duration": 0.128,
        "velocity": 0.54,
        "hand": "right"
      },
      {
        "midi": 55,
        "time": 98.333,
        "duration": 0.256,
        "velocity": 0.44,
        "hand": "left"
      },
      {
        "midi": 59,
        "time": 98.589,
        "duration": 0.256,
        "velocity": 0.43,
        "hand": "left"
      },
      {
        "midi": 65,
        "time": 98.718,
        "duration": 0.256,
        "velocity": 0.43,
        "hand": "right"
      },
      {
        "midi": 36,
        "time": 98.974,
        "duration": 1.652,
        "velocity": 0.57,
        "hand": "left"
      },
      {
        "midi": 48,
        "time": 99.23,
        "duration": 1.41,
        "velocity": 0.54,
        "hand": "left"
      },
      {
        "midi": 55,
        "time": 99.359,
        "duration": 0.256,
        "velocity": 0.53,
        "hand": "left"
      },
      {
        "midi": 58,
        "time": 99.615,
        "duration": 0.256,
        "velocity": 0.56,
        "hand": "left"
      },
      {
        "midi": 64,
        "time": 99.743,
        "duration": 0.128,
        "velocity": 0.6,
        "hand": "right"
      },
      {
        "midi": 55,
        "time": 100,
        "duration": 0.256,
        "velocity": 0.46,
        "hand": "left"
      },
      {
        "midi": 58,
        "time": 100.256,
        "duration": 0.256,
        "velocity": 0.44,
        "hand": "left"
      },
      {
        "midi": 64,
        "time": 100.384,
        "duration": 0.256,
        "velocity": 0.44,
        "hand": "right"
      },
      {
        "midi": 36,
        "time": 100.641,
        "duration": 1.523,
        "velocity": 0.57,
        "hand": "left"
      },
      {
        "midi": 48,
        "time": 100.769,
        "duration": 1.41,
        "velocity": 0.54,
        "hand": "left"
      },
      {
        "midi": 55,
        "time": 101.025,
        "duration": 0.256,
        "velocity": 0.53,
        "hand": "left"
      },
      {
        "midi": 58,
        "time": 101.282,
        "duration": 0.256,
        "velocity": 0.56,
        "hand": "left"
      },
      {
        "midi": 64,
        "time": 101.41,
        "duration": 0.128,
        "velocity": 0.57,
        "hand": "right"
      },
      {
        "midi": 55,
        "time": 101.666,
        "duration": 0.256,
        "velocity": 0.46,
        "hand": "left"
      },
      {
        "midi": 58,
        "time": 101.795,
        "duration": 0.256,
        "velocity": 0.44,
        "hand": "left"
      },
      {
        "midi": 64,
        "time": 102.051,
        "duration": 0.256,
        "velocity": 0.44,
        "hand": "right"
      },
      {
        "midi": 36,
        "time": 102.179,
        "duration": 3.318,
        "velocity": 0.54,
        "hand": "left"
      },
      {
        "midi": 48,
        "time": 102.436,
        "duration": 3.077,
        "velocity": 0.5,
        "hand": "left"
      },
      {
        "midi": 53,
        "time": 102.692,
        "duration": 0.256,
        "velocity": 0.5,
        "hand": "left"
      },
      {
        "midi": 57,
        "time": 102.82,
        "duration": 0.256,
        "velocity": 0.53,
        "hand": "left"
      },
      {
        "midi": 60,
        "time": 103.077,
        "duration": 0.256,
        "velocity": 0.54,
        "hand": "right"
      },
      {
        "midi": 65,
        "time": 103.205,
        "duration": 0.256,
        "velocity": 0.53,
        "hand": "right"
      },
      {
        "midi": 60,
        "time": 103.461,
        "duration": 0.256,
        "velocity": 0.53,
        "hand": "right"
      },
      {
        "midi": 57,
        "time": 103.718,
        "duration": 0.256,
        "velocity": 0.53,
        "hand": "left"
      },
      {
        "midi": 60,
        "time": 103.846,
        "duration": 0.256,
        "velocity": 0.54,
        "hand": "right"
      },
      {
        "midi": 57,
        "time": 104.102,
        "duration": 0.256,
        "velocity": 0.5,
        "hand": "left"
      },
      {
        "midi": 53,
        "time": 104.23,
        "duration": 0.256,
        "velocity": 0.46,
        "hand": "left"
      },
      {
        "midi": 57,
        "time": 104.487,
        "duration": 0.256,
        "velocity": 0.46,
        "hand": "left"
      },
      {
        "midi": 53,
        "time": 104.615,
        "duration": 0.256,
        "velocity": 0.46,
        "hand": "left"
      },
      {
        "midi": 50,
        "time": 104.871,
        "duration": 0.256,
        "velocity": 0.42,
        "hand": "left"
      },
      {
        "midi": 53,
        "time": 105.128,
        "duration": 0.256,
        "velocity": 0.43,
        "hand": "left"
      },
      {
        "midi": 50,
        "time": 105.256,
        "duration": 0.256,
        "velocity": 0.38,
        "hand": "left"
      },
      {
        "midi": 36,
        "time": 105.512,
        "duration": 4.088,
        "velocity": 0.54,
        "hand": "left"
      },
      {
        "midi": 50,
        "time": 105.769,
        "duration": 3.846,
        "velocity": 0.5,
        "hand": "left"
      },
      {
        "midi": 67,
        "time": 106.025,
        "duration": 0.256,
        "velocity": 0.5,
        "hand": "right"
      },
      {
        "midi": 71,
        "time": 106.153,
        "duration": 0.256,
        "velocity": 0.53,
        "hand": "right"
      },
      {
        "midi": 74,
        "time": 106.41,
        "duration": 0.256,
        "velocity": 0.54,
        "hand": "right"
      },
      {
        "midi": 77,
        "time": 106.666,
        "duration": 0.256,
        "velocity": 0.6,
        "hand": "right"
      },
      {
        "midi": 74,
        "time": 106.795,
        "duration": 0.256,
        "velocity": 0.54,
        "hand": "right"
      },
      {
        "midi": 71,
        "time": 107.051,
        "duration": 0.256,
        "velocity": 0.53,
        "hand": "right"
      },
      {
        "midi": 74,
        "time": 107.307,
        "duration": 0.256,
        "velocity": 0.56,
        "hand": "right"
      },
      {
        "midi": 71,
        "time": 107.436,
        "duration": 0.256,
        "velocity": 0.53,
        "hand": "right"
      },
      {
        "midi": 67,
        "time": 107.692,
        "duration": 0.256,
        "velocity": 0.56,
        "hand": "right"
      },
      {
        "midi": 71,
        "time": 107.948,
        "duration": 0.256,
        "velocity": 0.53,
        "hand": "right"
      },
      {
        "midi": 62,
        "time": 108.205,
        "duration": 0.256,
        "velocity": 0.54,
        "hand": "right"
      },
      {
        "midi": 65,
        "time": 108.461,
        "duration": 0.256,
        "velocity": 0.5,
        "hand": "right"
      },
      {
        "midi": 64,
        "time": 108.846,
        "duration": 0.385,
        "velocity": 0.5,
        "hand": "right"
      },
      {
        "midi": 62,
        "time": 109.102,
        "duration": 0.513,
        "velocity": 0.5,
        "hand": "right"
      },
      {
        "midi": 36,
        "time": 109.615,
        "duration": 5.769,
        "velocity": 0.53,
        "hand": "left"
      },
      {
        "midi": 48,
        "time": 109.615,
        "duration": 5.769,
        "velocity": 0.53,
        "hand": "left"
      },
      {
        "midi": 64,
        "time": 109.615,
        "duration": 5.769,
        "velocity": 0.5,
        "hand": "right"
      },
      {
        "midi": 67,
        "time": 109.615,
        "duration": 5.769,
        "velocity": 0.5,
        "hand": "right"
      },
      {
        "midi": 72,
        "time": 109.615,
        "duration": 5.769,
        "velocity": 0.5,
        "hand": "right"
      },
      {
        "midi": 60,
        "time": 117.692,
        "duration": 0.513,
        "velocity": 0.53,
        "hand": "right"
      },
      {
        "midi": 62,
        "time": 118.205,
        "duration": 0.513,
        "velocity": 0.54,
        "hand": "right"
      },
      {
        "midi": 64,
        "time": 118.718,
        "duration": 0.513,
        "velocity": 0.56,
        "hand": "right"
      },
      {
        "midi": 65,
        "time": 119.102,
        "duration": 0.769,
        "velocity": 0.6,
        "hand": "right"
      },
      {
        "midi": 67,
        "time": 119.871,
        "duration": 0.128,
        "velocity": 0.57,
        "hand": "right"
      },
      {
        "midi": 65,
        "time": 120,
        "duration": 0.128,
        "velocity": 0.57,
        "hand": "right"
      },
      {
        "midi": 64,
        "time": 120.128,
        "duration": 0.385,
        "velocity": 0.6,
        "hand": "right"
      },
      {
        "midi": 69,
        "time": 120.512,
        "duration": 0.513,
        "velocity": 0.6,
        "hand": "right"
      },
      {
        "midi": 62,
        "time": 121.025,
        "duration": 0.385,
        "velocity": 0.56,
        "hand": "right"
      },
      {
        "midi": 67,
        "time": 121.538,
        "duration": 0.769,
        "velocity": 0.6,
        "hand": "right"
      },
      {
        "midi": 69,
        "time": 122.307,
        "duration": 0.256,
        "velocity": 0.58,
        "hand": "right"
      },
      {
        "midi": 67,
        "time": 122.436,
        "duration": 0.256,
        "velocity": 0.58,
        "hand": "right"
      },
      {
        "midi": 65,
        "time": 122.692,
        "duration": 0.256,
        "velocity": 0.58,
        "hand": "right"
      },
      {
        "midi": 64,
        "time": 122.948,
        "duration": 0.256,
        "velocity": 0.57,
        "hand": "right"
      },
      {
        "midi": 65,
        "time": 123.205,
        "duration": 0.256,
        "velocity": 0.57,
        "hand": "right"
      },
      {
        "midi": 64,
        "time": 123.461,
        "duration": 0.256,
        "velocity": 0.57,
        "hand": "right"
      },
      {
        "midi": 67,
        "time": 123.461,
        "duration": 0.513,
        "velocity": 0.53,
        "hand": "right"
      },
      {
        "midi": 62,
        "time": 123.718,
        "duration": 0.256,
        "velocity": 0.57,
        "hand": "right"
      },
      {
        "midi": 60,
        "time": 123.846,
        "duration": 0.256,
        "velocity": 0.57,
        "hand": "right"
      },
      {
        "midi": 69,
        "time": 123.846,
        "duration": 0.513,
        "velocity": 0.54,
        "hand": "right"
      },
      {
        "midi": 62,
        "time": 124.102,
        "duration": 0.256,
        "velocity": 0.56,
        "hand": "right"
      },
      {
        "midi": 60,
        "time": 124.359,
        "duration": 0.256,
        "velocity": 0.56,
        "hand": "right"
      },
      {
        "midi": 71,
        "time": 124.359,
        "duration": 0.513,
        "velocity": 0.54,
        "hand": "right"
      },
      {
        "midi": 59,
        "time": 124.615,
        "duration": 0.256,
        "velocity": 0.56,
        "hand": "left"
      },
      {
        "midi": 57,
        "time": 124.871,
        "duration": 0.513,
        "velocity": 0.56,
        "hand": "left"
      },
      {
        "midi": 72,
        "time": 124.871,
        "duration": 0.755,
        "velocity": 0.6,
        "hand": "right"
      },
      {
        "midi": 66,
        "time": 125.384,
        "duration": 0.513,
        "velocity": 0.56,
        "hand": "right"
      },
      {
        "midi": 74,
        "time": 125.512,
        "duration": 0.128,
        "velocity": 0.57,
        "hand": "right"
      },
      {
        "midi": 72,
        "time": 125.641,
        "duration": 0.128,
        "velocity": 0.57,
        "hand": "right"
      },
      {
        "midi": 67,
        "time": 125.769,
        "duration": 1.41,
        "velocity": 0.6,
        "hand": "right"
      },
      {
        "midi": 71,
        "time": 125.769,
        "duration": 0.385,
        "velocity": 0.57,
        "hand": "right"
      },
      {
        "midi": 76,
        "time": 126.282,
        "duration": 0.513,
        "velocity": 0.6,
        "hand": "right"
      },
      {
        "midi": 69,
        "time": 126.795,
        "duration": 0.385,
        "velocity": 0.56,
        "hand": "right"
      },
      {
        "midi": 66,
        "time": 127.179,
        "duration": 0.256,
        "velocity": 0.57,
        "hand": "right"
      },
      {
        "midi": 74,
        "time": 127.179,
        "duration": 0.641,
        "velocity": 0.6,
        "hand": "right"
      },
      {
        "midi": 64,
        "time": 127.436,
        "duration": 0.256,
        "velocity": 0.57,
        "hand": "right"
      },
      {
        "midi": 66,
        "time": 127.692,
        "duration": 0.385,
        "velocity": 0.57,
        "hand": "right"
      },
      {
        "midi": 76,
        "time": 127.948,
        "duration": 0.256,
        "velocity": 0.57,
        "hand": "right"
      },
      {
        "midi": 62,
        "time": 128.205,
        "duration": 0.513,
        "velocity": 0.57,
        "hand": "right"
      },
      {
        "midi": 74,
        "time": 128.205,
        "duration": 0.256,
        "velocity": 0.57,
        "hand": "right"
      },
      {
        "midi": 72,
        "time": 128.461,
        "duration": 0.256,
        "velocity": 0.56,
        "hand": "right"
      },
      {
        "midi": 67,
        "time": 128.589,
        "duration": 0.242,
        "velocity": 0.58,
        "hand": "right"
      },
      {
        "midi": 71,
        "time": 128.589,
        "duration": 0.128,
        "velocity": 0.54,
        "hand": "right"
      },
      {
        "midi": 67,
        "time": 128.846,
        "duration": 0.256,
        "velocity": 0.54,
        "hand": "right"
      },
      {
        "midi": 55,
        "time": 129.102,
        "duration": 0.513,
        "velocity": 0.5,
        "hand": "left"
      },
      {
        "midi": 65,
        "time": 129.102,
        "duration": 0.513,
        "velocity": 0.57,
        "hand": "right"
      },
      {
        "midi": 69,
        "time": 129.102,
        "duration": 0.256,
        "velocity": 0.56,
        "hand": "right"
      },
      {
        "midi": 71,
        "time": 129.359,
        "duration": 0.256,
        "velocity": 0.57,
        "hand": "right"
      },
      {
        "midi": 57,
        "time": 129.615,
        "duration": 0.513,
        "velocity": 0.51,
        "hand": "left"
      },
      {
        "midi": 64,
        "time": 129.615,
        "duration": 0.513,
        "velocity": 0.57,
        "hand": "right"
      },
      {
        "midi": 72,
        "time": 129.615,
        "duration": 0.256,
        "velocity": 0.57,
        "hand": "right"
      },
      {
        "midi": 71,
        "time": 129.871,
        "duration": 0.256,
        "velocity": 0.53,
        "hand": "right"
      },
      {
        "midi": 59,
        "time": 130,
        "duration": 0.513,
        "velocity": 0.54,
        "hand": "left"
      },
      {
        "midi": 62,
        "time": 130,
        "duration": 0.513,
        "velocity": 0.56,
        "hand": "right"
      },
      {
        "midi": 72,
        "time": 130,
        "duration": 0.256,
        "velocity": 0.54,
        "hand": "right"
      },
      {
        "midi": 74,
        "time": 130.256,
        "duration": 0.256,
        "velocity": 0.54,
        "hand": "right"
      },
      {
        "midi": 60,
        "time": 130.512,
        "duration": 0.769,
        "velocity": 0.6,
        "hand": "right"
      },
      {
        "midi": 76,
        "time": 130.512,
        "duration": 0.256,
        "velocity": 0.56,
        "hand": "right"
      },
      {
        "midi": 74,
        "time": 130.769,
        "duration": 0.256,
        "velocity": 0.57,
        "hand": "right"
      },
      {
        "midi": 76,
        "time": 131.025,
        "duration": 0.256,
        "velocity": 0.57,
        "hand": "right"
      },
      {
        "midi": 62,
        "time": 131.282,
        "duration": 0.128,
        "velocity": 0.57,
        "hand": "right"
      },
      {
        "midi": 78,
        "time": 131.282,
        "duration": 0.256,
        "velocity": 0.58,
        "hand": "right"
      },
      {
        "midi": 60,
        "time": 131.41,
        "duration": 0.128,
        "velocity": 0.57,
        "hand": "right"
      },
      {
        "midi": 79,
        "time": 131.41,
        "duration": 0.513,
        "velocity": 0.6,
        "hand": "right"
      },
      {
        "midi": 64,
        "time": 131.923,
        "duration": 0.513,
        "velocity": 0.6,
        "hand": "right"
      },
      {
        "midi": 67,
        "time": 131.923,
        "duration": 0.897,
        "velocity": 0.6,
        "hand": "right"
      },
      {
        "midi": 71,
        "time": 131.923,
        "duration": 0.513,
        "velocity": 0.56,
        "hand": "right"
      },
      {
        "midi": 57,
        "time": 132.436,
        "duration": 0.385,
        "velocity": 0.56,
        "hand": "left"
      },
      {
        "midi": 72,
        "time": 132.436,
        "duration": 0.385,
        "velocity": 0.6,
        "hand": "right"
      },
      {
        "midi": 65,
        "time": 132.82,
        "duration": 0.256,
        "velocity": 0.57,
        "hand": "right"
      },
      {
        "midi": 69,
        "time": 132.82,
        "duration": 0.513,
        "velocity": 0.54,
        "hand": "right"
      },
      {
        "midi": 62,
        "time": 132.948,
        "duration": 0.641,
        "velocity": 0.6,
        "hand": "right"
      },
      {
        "midi": 64,
        "time": 133.077,
        "duration": 0.256,
        "velocity": 0.57,
        "hand": "right"
      },
      {
        "midi": 65,
        "time": 133.333,
        "duration": 1.139,
        "velocity": 0.57,
        "hand": "right"
      },
      {
        "midi": 74,
        "time": 133.333,
        "duration": 0.256,
        "velocity": 0.57,
        "hand": "right"
      },
      {
        "midi": 64,
        "time": 133.589,
        "duration": 0.256,
        "velocity": 0.57,
        "hand": "right"
      },
      {
        "midi": 72,
        "time": 133.589,
        "duration": 0.256,
        "velocity": 0.57,
        "hand": "right"
      },
      {
        "midi": 62,
        "time": 133.846,
        "duration": 0.256,
        "velocity": 0.57,
        "hand": "right"
      },
      {
        "midi": 71,
        "time": 133.846,
        "duration": 0.256,
        "velocity": 0.56,
        "hand": "right"
      },
      {
        "midi": 60,
        "time": 134.102,
        "duration": 0.256,
        "velocity": 0.56,
        "hand": "right"
      },
      {
        "midi": 69,
        "time": 134.102,
        "duration": 0.256,
        "velocity": 0.54,
        "hand": "right"
      },
      {
        "midi": 59,
        "time": 134.23,
        "duration": 0.385,
        "velocity": 0.54,
        "hand": "left"
      },
      {
        "midi": 67,
        "time": 134.23,
        "duration": 0.755,
        "velocity": 0.54,
        "hand": "right"
      },
      {
        "midi": 65,
        "time": 134.487,
        "duration": 0.256,
        "velocity": 0.57,
        "hand": "right"
      },
      {
        "midi": 48,
        "time": 134.743,
        "duration": 0.513,
        "velocity": 0.5,
        "hand": "left"
      },
      {
        "midi": 60,
        "time": 134.743,
        "duration": 0.897,
        "velocity": 0.6,
        "hand": "right"
      },
      {
        "midi": 64,
        "time": 134.743,
        "duration": 0.513,
        "velocity": 0.57,
        "hand": "right"
      },
      {
        "midi": 67,
        "time": 135,
        "duration": 0.256,
        "velocity": 0.56,
        "hand": "right"
      },
      {
        "midi": 50,
        "time": 135.256,
        "duration": 0.513,
        "velocity": 0.53,
        "hand": "left"
      },
      {
        "midi": 62,
        "time": 135.256,
        "duration": 0.897,
        "velocity": 0.57,
        "hand": "right"
      },
      {
        "midi": 65,
        "time": 135.256,
        "duration": 0.256,
        "velocity": 0.54,
        "hand": "right"
      },
      {
        "midi": 64,
        "time": 135.512,
        "duration": 0.256,
        "velocity": 0.54,
        "hand": "right"
      },
      {
        "midi": 52,
        "time": 135.769,
        "duration": 0.513,
        "velocity": 0.56,
        "hand": "left"
      },
      {
        "midi": 58,
        "time": 135.769,
        "duration": 0.513,
        "velocity": 0.57,
        "hand": "left"
      },
      {
        "midi": 65,
        "time": 135.769,
        "duration": 0.256,
        "velocity": 0.54,
        "hand": "right"
      },
      {
        "midi": 67,
        "time": 135.897,
        "duration": 0.256,
        "velocity": 0.54,
        "hand": "right"
      },
      {
        "midi": 53,
        "time": 136.153,
        "duration": 0.641,
        "velocity": 0.6,
        "hand": "left"
      },
      {
        "midi": 57,
        "time": 136.153,
        "duration": 0.385,
        "velocity": 0.56,
        "hand": "left"
      },
      {
        "midi": 60,
        "time": 136.153,
        "duration": 0.513,
        "velocity": 0.56,
        "hand": "right"
      },
      {
        "midi": 69,
        "time": 136.153,
        "duration": 0.256,
        "velocity": 0.54,
        "hand": "right"
      },
      {
        "midi": 67,
        "time": 136.41,
        "duration": 0.256,
        "velocity": 0.56,
        "hand": "right"
      },
      {
        "midi": 62,
        "time": 136.666,
        "duration": 0.513,
        "velocity": 0.6,
        "hand": "right"
      },
      {
        "midi": 65,
        "time": 136.666,
        "duration": 0.513,
        "velocity": 0.6,
        "hand": "right"
      },
      {
        "midi": 69,
        "time": 136.666,
        "duration": 0.256,
        "velocity": 0.54,
        "hand": "right"
      },
      {
        "midi": 55,
        "time": 136.923,
        "duration": 0.113,
        "velocity": 0.57,
        "hand": "left"
      },
      {
        "midi": 71,
        "time": 136.923,
        "duration": 0.256,
        "velocity": 0.57,
        "hand": "right"
      },
      {
        "midi": 53,
        "time": 137.051,
        "duration": 0.128,
        "velocity": 0.57,
        "hand": "left"
      },
      {
        "midi": 72,
        "time": 137.051,
        "duration": 1.923,
        "velocity": 0.58,
        "hand": "right"
      },
      {
        "midi": 67,
        "time": 137.307,
        "duration": 0.256,
        "velocity": 0.57,
        "hand": "right"
      },
      {
        "midi": 57,
        "time": 137.564,
        "duration": 0.513,
        "velocity": 0.6,
        "hand": "left"
      },
      {
        "midi": 60,
        "time": 137.564,
        "duration": 0.513,
        "velocity": 0.6,
        "hand": "right"
      },
      {
        "midi": 65,
        "time": 137.564,
        "duration": 0.256,
        "velocity": 0.57,
        "hand": "right"
      },
      {
        "midi": 64,
        "time": 137.82,
        "duration": 0.256,
        "velocity": 0.57,
        "hand": "right"
      },
      {
        "midi": 50,
        "time": 138.077,
        "duration": 0.385,
        "velocity": 0.54,
        "hand": "left"
      },
      {
        "midi": 65,
        "time": 138.077,
        "duration": 0.385,
        "velocity": 0.57,
        "hand": "right"
      },
      {
        "midi": 57,
        "time": 138.333,
        "duration": 0.256,
        "velocity": 0.54,
        "hand": "left"
      },
      {
        "midi": 55,
        "time": 138.589,
        "duration": 0.769,
        "velocity": 0.6,
        "hand": "left"
      },
      {
        "midi": 59,
        "time": 138.589,
        "duration": 0.256,
        "velocity": 0.56,
        "hand": "left"
      },
      {
        "midi": 62,
        "time": 138.589,
        "duration": 0.37,
        "velocity": 0.56,
        "hand": "right"
      },
      {
        "midi": 60,
        "time": 138.718,
        "duration": 0.256,
        "velocity": 0.57,
        "hand": "right"
      },
      {
        "midi": 62,
        "time": 138.974,
        "duration": 0.897,
        "velocity": 0.58,
        "hand": "right"
      },
      {
        "midi": 67,
        "time": 138.974,
        "duration": 1.923,
        "velocity": 0.61,
        "hand": "right"
      },
      {
        "midi": 71,
        "time": 138.974,
        "duration": 0.897,
        "velocity": 0.57,
        "hand": "right"
      },
      {
        "midi": 57,
        "time": 139.23,
        "duration": 0.256,
        "velocity": 0.58,
        "hand": "left"
      },
      {
        "midi": 55,
        "time": 139.487,
        "duration": 0.256,
        "velocity": 0.57,
        "hand": "left"
      },
      {
        "midi": 53,
        "time": 139.743,
        "duration": 0.256,
        "velocity": 0.57,
        "hand": "left"
      },
      {
        "midi": 52,
        "time": 139.871,
        "duration": 0.128,
        "velocity": 0.56,
        "hand": "left"
      },
      {
        "midi": 55,
        "time": 139.871,
        "duration": 0.897,
        "velocity": 0.6,
        "hand": "left"
      },
      {
        "midi": 53,
        "time": 140.128,
        "duration": 0.256,
        "velocity": 0.57,
        "hand": "left"
      },
      {
        "midi": 52,
        "time": 140.384,
        "duration": 0.256,
        "velocity": 0.56,
        "hand": "left"
      },
      {
        "midi": 72,
        "time": 140.384,
        "duration": 0.513,
        "velocity": 0.6,
        "hand": "right"
      },
      {
        "midi": 50,
        "time": 140.641,
        "duration": 0.256,
        "velocity": 0.54,
        "hand": "left"
      },
      {
        "midi": 48,
        "time": 140.897,
        "duration": 0.128,
        "velocity": 0.54,
        "hand": "left"
      },
      {
        "midi": 74,
        "time": 140.897,
        "duration": 0.513,
        "velocity": 0.62,
        "hand": "right"
      },
      {
        "midi": 50,
        "time": 141.153,
        "duration": 0.256,
        "velocity": 0.57,
        "hand": "left"
      },
      {
        "midi": 55,
        "time": 141.282,
        "duration": 0.513,
        "velocity": 0.53,
        "hand": "left"
      },
      {
        "midi": 76,
        "time": 141.282,
        "duration": 0.513,
        "velocity": 0.64,
        "hand": "right"
      },
      {
        "midi": 48,
        "time": 141.41,
        "duration": 0.256,
        "velocity": 0.56,
        "hand": "left"
      },
      {
        "midi": 47,
        "time": 141.538,
        "duration": 0.256,
        "velocity": 0.54,
        "hand": "left"
      },
      {
        "midi": 45,
        "time": 141.795,
        "duration": 0.385,
        "velocity": 0.54,
        "hand": "left"
      },
      {
        "midi": 57,
        "time": 141.795,
        "duration": 0.513,
        "velocity": 0.54,
        "hand": "left"
      },
      {
        "midi": 77,
        "time": 141.795,
        "duration": 0.769,
        "velocity": 0.69,
        "hand": "right"
      },
      {
        "midi": 50,
        "time": 142.307,
        "duration": 0.513,
        "velocity": 0.57,
        "hand": "left"
      },
      {
        "midi": 59,
        "time": 142.307,
        "duration": 0.513,
        "velocity": 0.54,
        "hand": "left"
      },
      {
        "midi": 79,
        "time": 142.564,
        "duration": 0.128,
        "velocity": 0.65,
        "hand": "right"
      },
      {
        "midi": 77,
        "time": 142.692,
        "duration": 0.128,
        "velocity": 0.65,
        "hand": "right"
      },
      {
        "midi": 57,
        "time": 142.82,
        "duration": 0.513,
        "velocity": 0.6,
        "hand": "left"
      },
      {
        "midi": 60,
        "time": 142.82,
        "duration": 0.641,
        "velocity": 0.6,
        "hand": "right"
      },
      {
        "midi": 76,
        "time": 142.82,
        "duration": 0.385,
        "velocity": 0.65,
        "hand": "right"
      },
      {
        "midi": 54,
        "time": 143.205,
        "duration": 0.513,
        "velocity": 0.57,
        "hand": "left"
      },
      {
        "midi": 81,
        "time": 143.205,
        "duration": 0.513,
        "velocity": 0.69,
        "hand": "right"
      },
      {
        "midi": 62,
        "time": 143.461,
        "duration": 0.128,
        "velocity": 0.57,
        "hand": "right"
      },
      {
        "midi": 60,
        "time": 143.589,
        "duration": 0.128,
        "velocity": 0.57,
        "hand": "right"
      },
      {
        "midi": 55,
        "time": 143.718,
        "duration": 0.256,
        "velocity": 0.57,
        "hand": "left"
      },
      {
        "midi": 59,
        "time": 143.718,
        "duration": 0.385,
        "velocity": 0.57,
        "hand": "left"
      },
      {
        "midi": 74,
        "time": 143.718,
        "duration": 0.385,
        "velocity": 0.64,
        "hand": "right"
      },
      {
        "midi": 57,
        "time": 143.974,
        "duration": 0.256,
        "velocity": 0.57,
        "hand": "left"
      },
      {
        "midi": 58,
        "time": 144.23,
        "duration": 0.256,
        "velocity": 0.6,
        "hand": "left"
      },
      {
        "midi": 64,
        "time": 144.23,
        "duration": 0.513,
        "velocity": 0.6,
        "hand": "right"
      },
      {
        "midi": 79,
        "time": 144.23,
        "duration": 0.769,
        "velocity": 0.69,
        "hand": "right"
      },
      {
        "midi": 55,
        "time": 144.359,
        "duration": 0.256,
        "velocity": 0.57,
        "hand": "left"
      },
      {
        "midi": 49,
        "time": 144.615,
        "duration": 0.513,
        "velocity": 0.56,
        "hand": "left"
      },
      {
        "midi": 57,
        "time": 144.615,
        "duration": 0.385,
        "velocity": 0.56,
        "hand": "left"
      },
      {
        "midi": 81,
        "time": 144.871,
        "duration": 0.256,
        "velocity": 0.67,
        "hand": "right"
      },
      {
        "midi": 50,
        "time": 145.128,
        "duration": 0.513,
        "velocity": 0.57,
        "hand": "left"
      },
      {
        "midi": 62,
        "time": 145.128,
        "duration": 0.641,
        "velocity": 0.6,
        "hand": "right"
      },
      {
        "midi": 79,
        "time": 145.128,
        "duration": 0.256,
        "velocity": 0.65,
        "hand": "right"
      },
      {
        "midi": 77,
        "time": 145.384,
        "duration": 0.256,
        "velocity": 0.64,
        "hand": "right"
      },
      {
        "midi": 57,
        "time": 145.641,
        "duration": 0.897,
        "velocity": 0.57,
        "hand": "left"
      },
      {
        "midi": 76,
        "time": 145.641,
        "duration": 0.385,
        "velocity": 0.62,
        "hand": "right"
      },
      {
        "midi": 64,
        "time": 145.769,
        "duration": 0.256,
        "velocity": 0.57,
        "hand": "right"
      },
      {
        "midi": 62,
        "time": 146.025,
        "duration": 0.256,
        "velocity": 0.56,
        "hand": "right"
      },
      {
        "midi": 81,
        "time": 146.025,
        "duration": 0.769,
        "velocity": 0.69,
        "hand": "right"
      },
      {
        "midi": 60,
        "time": 146.282,
        "duration": 0.256,
        "velocity": 0.56,
        "hand": "right"
      },
      {
        "midi": 52,
        "time": 146.538,
        "duration": 0.897,
        "velocity": 0.56,
        "hand": "left"
      },
      {
        "midi": 59,
        "time": 146.538,
        "duration": 0.513,
        "velocity": 0.54,
        "hand": "left"
      },
      {
        "midi": 83,
        "time": 146.795,
        "duration": 0.256,
        "velocity": 0.68,
        "hand": "right"
      },
      {
        "midi": 64,
        "time": 147.051,
        "duration": 1.41,
        "velocity": 0.6,
        "hand": "right"
      },
      {
        "midi": 81,
        "time": 147.051,
        "duration": 0.256,
        "velocity": 0.67,
        "hand": "right"
      },
      {
        "midi": 79,
        "time": 147.179,
        "duration": 0.256,
        "velocity": 0.65,
        "hand": "right"
      },
      {
        "midi": 57,
        "time": 147.436,
        "duration": 0.256,
        "velocity": 0.56,
        "hand": "left"
      },
      {
        "midi": 77,
        "time": 147.436,
        "duration": 1.923,
        "velocity": 0.65,
        "hand": "right"
      },
      {
        "midi": 59,
        "time": 147.692,
        "duration": 0.256,
        "velocity": 0.57,
        "hand": "left"
      },
      {
        "midi": 60,
        "time": 147.948,
        "duration": 0.256,
        "velocity": 0.57,
        "hand": "right"
      },
      {
        "midi": 67,
        "time": 147.948,
        "duration": 0.513,
        "velocity": 0.5,
        "hand": "right"
      },
      {
        "midi": 62,
        "time": 148.205,
        "duration": 0.241,
        "velocity": 0.58,
        "hand": "right"
      },
      {
        "midi": 60,
        "time": 148.461,
        "duration": 0.256,
        "velocity": 0.6,
        "hand": "right"
      },
      {
        "midi": 62,
        "time": 148.461,
        "duration": 0.897,
        "velocity": 0.6,
        "hand": "right"
      },
      {
        "midi": 69,
        "time": 148.461,
        "duration": 0.513,
        "velocity": 0.53,
        "hand": "right"
      },
      {
        "midi": 59,
        "time": 148.718,
        "duration": 0.256,
        "velocity": 0.57,
        "hand": "left"
      },
      {
        "midi": 57,
        "time": 148.846,
        "duration": 0.256,
        "velocity": 0.56,
        "hand": "left"
      },
      {
        "midi": 71,
        "time": 148.846,
        "duration": 0.513,
        "velocity": 0.56,
        "hand": "right"
      },
      {
        "midi": 55,
        "time": 149.102,
        "duration": 0.256,
        "velocity": 0.54,
        "hand": "left"
      },
      {
        "midi": 60,
        "time": 149.359,
        "duration": 0.497,
        "velocity": 0.6,
        "hand": "right"
      },
      {
        "midi": 72,
        "time": 149.359,
        "duration": 0.754,
        "velocity": 0.6,
        "hand": "right"
      },
      {
        "midi": 76,
        "time": 149.359,
        "duration": 0.769,
        "velocity": 0.6,
        "hand": "right"
      },
      {
        "midi": 59,
        "time": 149.615,
        "duration": 0.256,
        "velocity": 0.57,
        "hand": "left"
      },
      {
        "midi": 60,
        "time": 149.871,
        "duration": 0.256,
        "velocity": 0.6,
        "hand": "right"
      },
      {
        "midi": 57,
        "time": 150.128,
        "duration": 0.128,
        "velocity": 0.57,
        "hand": "left"
      },
      {
        "midi": 72,
        "time": 150.128,
        "duration": 0.128,
        "velocity": 0.57,
        "hand": "right"
      },
      {
        "midi": 74,
        "time": 150.128,
        "duration": 0.128,
        "velocity": 0.57,
        "hand": "right"
      },
      {
        "midi": 78,
        "time": 150.128,
        "duration": 0.256,
        "velocity": 0.57,
        "hand": "right"
      },
      {
        "midi": 64,
        "time": 150.256,
        "duration": 0.256,
        "velocity": 0.57,
        "hand": "right"
      },
      {
        "midi": 71,
        "time": 150.256,
        "duration": 0.385,
        "velocity": 0.57,
        "hand": "right"
      },
      {
        "midi": 79,
        "time": 150.256,
        "duration": 1.923,
        "velocity": 0.62,
        "hand": "right"
      },
      {
        "midi": 62,
        "time": 150.512,
        "duration": 0.256,
        "velocity": 0.57,
        "hand": "right"
      },
      {
        "midi": 60,
        "time": 150.769,
        "duration": 0.256,
        "velocity": 0.57,
        "hand": "right"
      },
      {
        "midi": 76,
        "time": 150.769,
        "duration": 0.513,
        "velocity": 0.6,
        "hand": "right"
      },
      {
        "midi": 59,
        "time": 151.025,
        "duration": 0.256,
        "velocity": 0.57,
        "hand": "left"
      },
      {
        "midi": 60,
        "time": 151.282,
        "duration": 0.128,
        "velocity": 0.6,
        "hand": "right"
      },
      {
        "midi": 69,
        "time": 151.282,
        "duration": 0.385,
        "velocity": 0.56,
        "hand": "right"
      },
      {
        "midi": 57,
        "time": 151.538,
        "duration": 0.256,
        "velocity": 0.54,
        "hand": "left"
      },
      {
        "midi": 59,
        "time": 151.795,
        "duration": 0.256,
        "velocity": 0.56,
        "hand": "left"
      },
      {
        "midi": 74,
        "time": 151.795,
        "duration": 0.641,
        "velocity": 0.6,
        "hand": "right"
      },
      {
        "midi": 60,
        "time": 151.923,
        "duration": 0.256,
        "velocity": 0.57,
        "hand": "right"
      },
      {
        "midi": 62,
        "time": 152.179,
        "duration": 0.256,
        "velocity": 0.6,
        "hand": "right"
      },
      {
        "midi": 78,
        "time": 152.179,
        "duration": 0.897,
        "velocity": 0.62,
        "hand": "right"
      },
      {
        "midi": 60,
        "time": 152.436,
        "duration": 0.256,
        "velocity": 0.58,
        "hand": "right"
      },
      {
        "midi": 76,
        "time": 152.436,
        "duration": 0.256,
        "velocity": 0.57,
        "hand": "right"
      },
      {
        "midi": 59,
        "time": 152.692,
        "duration": 0.256,
        "velocity": 0.57,
        "hand": "left"
      },
      {
        "midi": 74,
        "time": 152.692,
        "duration": 0.256,
        "velocity": 0.56,
        "hand": "right"
      },
      {
        "midi": 57,
        "time": 152.948,
        "duration": 0.256,
        "velocity": 0.57,
        "hand": "left"
      },
      {
        "midi": 72,
        "time": 152.948,
        "duration": 0.256,
        "velocity": 0.54,
        "hand": "right"
      },
      {
        "midi": 55,
        "time": 153.077,
        "duration": 0.897,
        "velocity": 0.56,
        "hand": "left"
      },
      {
        "midi": 71,
        "time": 153.077,
        "duration": 0.513,
        "velocity": 0.54,
        "hand": "right"
      },
      {
        "midi": 79,
        "time": 153.077,
        "duration": 0.256,
        "velocity": 0.6,
        "hand": "right"
      },
      {
        "midi": 77,
        "time": 153.333,
        "duration": 0.256,
        "velocity": 0.58,
        "hand": "right"
      },
      {
        "midi": 43,
        "time": 153.589,
        "duration": 0.513,
        "velocity": 0.54,
        "hand": "left"
      },
      {
        "midi": 76,
        "time": 153.589,
        "duration": 0.256,
        "velocity": 0.57,
        "hand": "right"
      },
      {
        "midi": 74,
        "time": 153.846,
        "duration": 0.256,
        "velocity": 0.57,
        "hand": "right"
      },
      {
        "midi": 45,
        "time": 154.102,
        "duration": 0.513,
        "velocity": 0.54,
        "hand": "left"
      },
      {
        "midi": 72,
        "time": 154.102,
        "duration": 0.256,
        "velocity": 0.56,
        "hand": "right"
      },
      {
        "midi": 74,
        "time": 154.23,
        "duration": 0.256,
        "velocity": 0.57,
        "hand": "right"
      },
      {
        "midi": 47,
        "time": 154.487,
        "duration": 0.513,
        "velocity": 0.54,
        "hand": "left"
      },
      {
        "midi": 62,
        "time": 154.487,
        "duration": 0.513,
        "velocity": 0.5,
        "hand": "right"
      },
      {
        "midi": 72,
        "time": 154.487,
        "duration": 0.256,
        "velocity": 0.57,
        "hand": "right"
      },
      {
        "midi": 71,
        "time": 154.743,
        "duration": 0.256,
        "velocity": 0.57,
        "hand": "right"
      },
      {
        "midi": 48,
        "time": 155,
        "duration": 0.641,
        "velocity": 0.6,
        "hand": "left"
      },
      {
        "midi": 64,
        "time": 155,
        "duration": 0.513,
        "velocity": 0.51,
        "hand": "right"
      },
      {
        "midi": 69,
        "time": 155,
        "duration": 0.256,
        "velocity": 0.57,
        "hand": "right"
      },
      {
        "midi": 72,
        "time": 155.256,
        "duration": 0.256,
        "velocity": 0.57,
        "hand": "right"
      },
      {
        "midi": 66,
        "time": 155.512,
        "duration": 0.513,
        "velocity": 0.54,
        "hand": "right"
      },
      {
        "midi": 71,
        "time": 155.512,
        "duration": 0.256,
        "velocity": 0.57,
        "hand": "right"
      },
      {
        "midi": 50,
        "time": 155.641,
        "duration": 0.128,
        "velocity": 0.57,
        "hand": "left"
      },
      {
        "midi": 69,
        "time": 155.641,
        "duration": 0.256,
        "velocity": 0.57,
        "hand": "right"
      },
      {
        "midi": 48,
        "time": 155.769,
        "duration": 0.128,
        "velocity": 0.57,
        "hand": "left"
      },
      {
        "midi": 47,
        "time": 155.897,
        "duration": 0.385,
        "velocity": 0.57,
        "hand": "left"
      },
      {
        "midi": 67,
        "time": 155.897,
        "duration": 0.641,
        "velocity": 0.6,
        "hand": "right"
      },
      {
        "midi": 52,
        "time": 156.41,
        "duration": 0.513,
        "velocity": 0.6,
        "hand": "left"
      },
      {
        "midi": 67,
        "time": 156.666,
        "duration": 0.128,
        "velocity": 0.57,
        "hand": "right"
      },
      {
        "midi": 69,
        "time": 156.666,
        "duration": 0.128,
        "velocity": 0.57,
        "hand": "right"
      },
      {
        "midi": 45,
        "time": 156.795,
        "duration": 0.385,
        "velocity": 0.54,
        "hand": "left"
      },
      {
        "midi": 66,
        "time": 156.795,
        "duration": 0.385,
        "velocity": 0.57,
        "hand": "right"
      },
      {
        "midi": 72,
        "time": 157.051,
        "duration": 0.256,
        "velocity": 0.57,
        "hand": "right"
      },
      {
        "midi": 50,
        "time": 157.307,
        "duration": 0.769,
        "velocity": 0.6,
        "hand": "left"
      },
      {
        "midi": 71,
        "time": 157.307,
        "duration": 0.513,
        "velocity": 0.6,
        "hand": "right"
      },
      {
        "midi": 69,
        "time": 157.564,
        "duration": 0.256,
        "velocity": 0.54,
        "hand": "right"
      },
      {
        "midi": 64,
        "time": 157.82,
        "duration": 0.385,
        "velocity": 0.57,
        "hand": "right"
      },
      {
        "midi": 68,
        "time": 157.82,
        "duration": 0.385,
        "velocity": 0.54,
        "hand": "right"
      },
      {
        "midi": 52,
        "time": 158.077,
        "duration": 0.256,
        "velocity": 0.6,
        "hand": "left"
      },
      {
        "midi": 69,
        "time": 158.205,
        "duration": 0.641,
        "velocity": 0.6,
        "hand": "right"
      },
      {
        "midi": 76,
        "time": 158.205,
        "duration": 0.513,
        "velocity": 0.6,
        "hand": "right"
      },
      {
        "midi": 50,
        "time": 158.333,
        "duration": 0.256,
        "velocity": 0.57,
        "hand": "left"
      },
      {
        "midi": 48,
        "time": 158.461,
        "duration": 0.256,
        "velocity": 0.57,
        "hand": "left"
      },
      {
        "midi": 47,
        "time": 158.718,
        "duration": 0.513,
        "velocity": 0.54,
        "hand": "left"
      },
      {
        "midi": 74,
        "time": 158.718,
        "duration": 0.513,
        "velocity": 0.57,
        "hand": "right"
      },
      {
        "midi": 71,
        "time": 158.974,
        "duration": 0.256,
        "velocity": 0.57,
        "hand": "right"
      },
      {
        "midi": 52,
        "time": 159.23,
        "duration": 0.513,
        "velocity": 0.51,
        "hand": "left"
      },
      {
        "midi": 69,
        "time": 159.23,
        "duration": 0.256,
        "velocity": 0.57,
        "hand": "right"
      },
      {
        "midi": 72,
        "time": 159.23,
        "duration": 0.256,
        "velocity": 0.56,
        "hand": "right"
      },
      {
        "midi": 67,
        "time": 159.487,
        "duration": 0.256,
        "velocity": 0.57,
        "hand": "right"
      },
      {
        "midi": 71,
        "time": 159.487,
        "duration": 0.256,
        "velocity": 0.56,
        "hand": "right"
      },
      {
        "midi": 54,
        "time": 159.743,
        "duration": 0.513,
        "velocity": 0.54,
        "hand": "left"
      },
      {
        "midi": 66,
        "time": 159.743,
        "duration": 0.513,
        "velocity": 0.57,
        "hand": "right"
      },
      {
        "midi": 69,
        "time": 159.743,
        "duration": 0.256,
        "velocity": 0.54,
        "hand": "right"
      },
      {
        "midi": 68,
        "time": 159.871,
        "duration": 0.256,
        "velocity": 0.54,
        "hand": "right"
      },
      {
        "midi": 50,
        "time": 160.128,
        "duration": 0.513,
        "velocity": 0.57,
        "hand": "left"
      },
      {
        "midi": 56,
        "time": 160.128,
        "duration": 0.513,
        "velocity": 0.56,
        "hand": "left"
      },
      {
        "midi": 65,
        "time": 160.128,
        "duration": 0.513,
        "velocity": 0.57,
        "hand": "right"
      },
      {
        "midi": 69,
        "time": 160.128,
        "duration": 0.256,
        "velocity": 0.54,
        "hand": "right"
      },
      {
        "midi": 71,
        "time": 160.384,
        "duration": 0.256,
        "velocity": 0.53,
        "hand": "right"
      },
      {
        "midi": 48,
        "time": 160.641,
        "duration": 0.513,
        "velocity": 0.57,
        "hand": "left"
      },
      {
        "midi": 57,
        "time": 160.641,
        "duration": 0.754,
        "velocity": 0.6,
        "hand": "left"
      },
      {
        "midi": 64,
        "time": 160.641,
        "duration": 0.513,
        "velocity": 0.54,
        "hand": "right"
      },
      {
        "midi": 72,
        "time": 160.641,
        "duration": 0.128,
        "velocity": 0.56,
        "hand": "right"
      },
      {
        "midi": 66,
        "time": 160.897,
        "duration": 0.256,
        "velocity": 0.54,
        "hand": "right"
      },
      {
        "midi": 53,
        "time": 161.153,
        "duration": 0.897,
        "velocity": 0.6,
        "hand": "left"
      },
      {
        "midi": 62,
        "time": 161.153,
        "duration": 0.641,
        "velocity": 0.54,
        "hand": "right"
      },
      {
        "midi": 69,
        "time": 161.153,
        "duration": 0.256,
        "velocity": 0.54,
        "hand": "right"
      },
      {
        "midi": 59,
        "time": 161.282,
        "duration": 0.128,
        "velocity": 0.57,
        "hand": "left"
      },
      {
        "midi": 68,
        "time": 161.282,
        "duration": 0.256,
        "velocity": 0.54,
        "hand": "right"
      },
      {
        "midi": 57,
        "time": 161.41,
        "duration": 0.128,
        "velocity": 0.57,
        "hand": "left"
      },
      {
        "midi": 56,
        "time": 161.538,
        "duration": 0.385,
        "velocity": 0.57,
        "hand": "left"
      },
      {
        "midi": 71,
        "time": 161.538,
        "duration": 0.513,
        "velocity": 0.57,
        "hand": "right"
      },
      {
        "midi": 64,
        "time": 161.795,
        "duration": 0.256,
        "velocity": 0.54,
        "hand": "right"
      },
      {
        "midi": 52,
        "time": 162.051,
        "duration": 0.897,
        "velocity": 0.57,
        "hand": "left"
      },
      {
        "midi": 60,
        "time": 162.051,
        "duration": 0.513,
        "velocity": 0.6,
        "hand": "right"
      },
      {
        "midi": 66,
        "time": 162.051,
        "duration": 0.256,
        "velocity": 0.54,
        "hand": "right"
      },
      {
        "midi": 69,
        "time": 162.051,
        "duration": 0.256,
        "velocity": 0.56,
        "hand": "right"
      },
      {
        "midi": 68,
        "time": 162.307,
        "duration": 0.256,
        "velocity": 0.54,
        "hand": "right"
      },
      {
        "midi": 71,
        "time": 162.307,
        "duration": 0.256,
        "velocity": 0.56,
        "hand": "right"
      },
      {
        "midi": 54,
        "time": 162.564,
        "duration": 0.385,
        "velocity": 0.56,
        "hand": "left"
      },
      {
        "midi": 69,
        "time": 162.564,
        "duration": 0.256,
        "velocity": 0.57,
        "hand": "right"
      },
      {
        "midi": 72,
        "time": 162.564,
        "duration": 0.385,
        "velocity": 0.57,
        "hand": "right"
      },
      {
        "midi": 68,
        "time": 162.692,
        "duration": 0.256,
        "velocity": 0.56,
        "hand": "right"
      },
      {
        "midi": 50,
        "time": 162.948,
        "duration": 0.897,
        "velocity": 0.57,
        "hand": "left"
      },
      {
        "midi": 59,
        "time": 162.948,
        "duration": 0.641,
        "velocity": 0.6,
        "hand": "left"
      },
      {
        "midi": 69,
        "time": 162.948,
        "duration": 0.256,
        "velocity": 0.56,
        "hand": "right"
      },
      {
        "midi": 77,
        "time": 162.948,
        "duration": 0.513,
        "velocity": 0.64,
        "hand": "right"
      },
      {
        "midi": 71,
        "time": 163.205,
        "duration": 0.256,
        "velocity": 0.56,
        "hand": "right"
      },
      {
        "midi": 68,
        "time": 163.461,
        "duration": 0.256,
        "velocity": 0.57,
        "hand": "right"
      },
      {
        "midi": 76,
        "time": 163.461,
        "duration": 0.513,
        "velocity": 0.61,
        "hand": "right"
      },
      {
        "midi": 60,
        "time": 163.718,
        "duration": 0.256,
        "velocity": 0.6,
        "hand": "right"
      },
      {
        "midi": 66,
        "time": 163.718,
        "duration": 0.256,
        "velocity": 0.54,
        "hand": "right"
      },
      {
        "midi": 52,
        "time": 163.974,
        "duration": 0.513,
        "velocity": 0.57,
        "hand": "left"
      },
      {
        "midi": 59,
        "time": 163.974,
        "duration": 0.256,
        "velocity": 0.58,
        "hand": "left"
      },
      {
        "midi": 68,
        "time": 163.974,
        "duration": 0.256,
        "velocity": 0.54,
        "hand": "right"
      },
      {
        "midi": 74,
        "time": 163.974,
        "duration": 0.897,
        "velocity": 0.6,
        "hand": "right"
      },
      {
        "midi": 57,
        "time": 164.102,
        "duration": 0.256,
        "velocity": 0.57,
        "hand": "left"
      },
      {
        "midi": 69,
        "time": 164.102,
        "duration": 0.256,
        "velocity": 0.54,
        "hand": "right"
      },
      {
        "midi": 53,
        "time": 164.359,
        "duration": 0.513,
        "velocity": 0.6,
        "hand": "left"
      },
      {
        "midi": 56,
        "time": 164.359,
        "duration": 0.385,
        "velocity": 0.56,
        "hand": "left"
      },
      {
        "midi": 71,
        "time": 164.359,
        "duration": 0.513,
        "velocity": 0.58,
        "hand": "right"
      },
      {
        "midi": 52,
        "time": 164.871,
        "duration": 0.256,
        "velocity": 0.54,
        "hand": "left"
      },
      {
        "midi": 57,
        "time": 164.871,
        "duration": 1.026,
        "velocity": 0.58,
        "hand": "left"
      },
      {
        "midi": 72,
        "time": 164.871,
        "duration": 0.256,
        "velocity": 0.57,
        "hand": "right"
      },
      {
        "midi": 50,
        "time": 165.128,
        "duration": 0.256,
        "velocity": 0.54,
        "hand": "left"
      },
      {
        "midi": 71,
        "time": 165.128,
        "duration": 0.241,
        "velocity": 0.57,
        "hand": "right"
      },
      {
        "midi": 52,
        "time": 165.384,
        "duration": 1.026,
        "velocity": 0.57,
        "hand": "left"
      },
      {
        "midi": 71,
        "time": 165.384,
        "duration": 0.113,
        "velocity": 0.6,
        "hand": "right"
      },
      {
        "midi": 72,
        "time": 165.512,
        "duration": 0.128,
        "velocity": 0.54,
        "hand": "right"
      },
      {
        "midi": 56,
        "time": 165.897,
        "duration": 0.513,
        "velocity": 0.57,
        "hand": "left"
      },
      {
        "midi": 69,
        "time": 166.153,
        "duration": 0.242,
        "velocity": 0.57,
        "hand": "right"
      },
      {
        "midi": 45,
        "time": 166.41,
        "duration": 1.026,
        "velocity": 0.61,
        "hand": "left"
      },
      {
        "midi": 57,
        "time": 166.41,
        "duration": 1.026,
        "velocity": 0.6,
        "hand": "left"
      },
      {
        "midi": 69,
        "time": 166.41,
        "duration": 1.026,
        "velocity": 0.6,
        "hand": "right"
      },
      {
        "midi": 60,
        "time": 166.923,
        "duration": 0.513,
        "velocity": 0.53,
        "hand": "right"
      },
      {
        "midi": 62,
        "time": 167.436,
        "duration": 0.513,
        "velocity": 0.54,
        "hand": "right"
      },
      {
        "midi": 55,
        "time": 167.82,
        "duration": 0.513,
        "velocity": 0.51,
        "hand": "left"
      },
      {
        "midi": 64,
        "time": 167.82,
        "duration": 0.513,
        "velocity": 0.54,
        "hand": "right"
      },
      {
        "midi": 57,
        "time": 168.333,
        "duration": 0.513,
        "velocity": 0.54,
        "hand": "left"
      },
      {
        "midi": 65,
        "time": 168.333,
        "duration": 0.769,
        "velocity": 0.6,
        "hand": "right"
      },
      {
        "midi": 59,
        "time": 168.846,
        "duration": 0.513,
        "velocity": 0.56,
        "hand": "left"
      },
      {
        "midi": 67,
        "time": 169.102,
        "duration": 0.128,
        "velocity": 0.57,
        "hand": "right"
      },
      {
        "midi": 65,
        "time": 169.23,
        "duration": 0.128,
        "velocity": 0.57,
        "hand": "right"
      },
      {
        "midi": 60,
        "time": 169.359,
        "duration": 0.754,
        "velocity": 0.6,
        "hand": "right"
      },
      {
        "midi": 64,
        "time": 169.359,
        "duration": 0.385,
        "velocity": 0.57,
        "hand": "right"
      },
      {
        "midi": 69,
        "time": 169.743,
        "duration": 0.513,
        "velocity": 0.6,
        "hand": "right"
      },
      {
        "midi": 62,
        "time": 170,
        "duration": 0.128,
        "velocity": 0.57,
        "hand": "right"
      },
      {
        "midi": 60,
        "time": 170.128,
        "duration": 0.128,
        "velocity": 0.57,
        "hand": "right"
      },
      {
        "midi": 59,
        "time": 170.256,
        "duration": 0.385,
        "velocity": 0.57,
        "hand": "left"
      },
      {
        "midi": 62,
        "time": 170.256,
        "duration": 0.385,
        "velocity": 0.56,
        "hand": "right"
      },
      {
        "midi": 43,
        "time": 170.769,
        "duration": 0.513,
        "velocity": 0.51,
        "hand": "left"
      },
      {
        "midi": 64,
        "time": 170.769,
        "duration": 0.513,
        "velocity": 0.6,
        "hand": "right"
      },
      {
        "midi": 67,
        "time": 170.769,
        "duration": 0.769,
        "velocity": 0.6,
        "hand": "right"
      },
      {
        "midi": 45,
        "time": 171.282,
        "duration": 0.513,
        "velocity": 0.53,
        "hand": "left"
      },
      {
        "midi": 57,
        "time": 171.282,
        "duration": 0.385,
        "velocity": 0.54,
        "hand": "left"
      },
      {
        "midi": 69,
        "time": 171.41,
        "duration": 0.256,
        "velocity": 0.57,
        "hand": "right"
      },
      {
        "midi": 47,
        "time": 171.666,
        "duration": 0.513,
        "velocity": 0.54,
        "hand": "left"
      },
      {
        "midi": 62,
        "time": 171.666,
        "duration": 0.897,
        "velocity": 0.6,
        "hand": "right"
      },
      {
        "midi": 67,
        "time": 171.666,
        "duration": 0.256,
        "velocity": 0.57,
        "hand": "right"
      },
      {
        "midi": 65,
        "time": 171.923,
        "duration": 0.256,
        "velocity": 0.57,
        "hand": "right"
      },
      {
        "midi": 48,
        "time": 172.179,
        "duration": 0.754,
        "velocity": 0.6,
        "hand": "left"
      },
      {
        "midi": 64,
        "time": 172.179,
        "duration": 0.385,
        "velocity": 0.57,
        "hand": "right"
      },
      {
        "midi": 55,
        "time": 172.692,
        "duration": 0.513,
        "velocity": 0.57,
        "hand": "left"
      },
      {
        "midi": 64,
        "time": 172.692,
        "duration": 0.513,
        "velocity": 0.56,
        "hand": "right"
      },
      {
        "midi": 67,
        "time": 172.692,
        "duration": 0.513,
        "velocity": 0.53,
        "hand": "right"
      },
      {
        "midi": 50,
        "time": 172.82,
        "duration": 0.128,
        "velocity": 0.57,
        "hand": "left"
      },
      {
        "midi": 48,
        "time": 172.948,
        "duration": 0.128,
        "velocity": 0.57,
        "hand": "left"
      },
      {
        "midi": 47,
        "time": 173.077,
        "duration": 0.385,
        "velocity": 0.57,
        "hand": "left"
      },
      {
        "midi": 62,
        "time": 173.077,
        "duration": 1.026,
        "velocity": 0.6,
        "hand": "right"
      },
      {
        "midi": 66,
        "time": 173.077,
        "duration": 0.513,
        "velocity": 0.56,
        "hand": "right"
      },
      {
        "midi": 69,
        "time": 173.077,
        "duration": 0.513,
        "velocity": 0.54,
        "hand": "right"
      },
      {
        "midi": 52,
        "time": 173.589,
        "duration": 0.513,
        "velocity": 0.6,
        "hand": "left"
      },
      {
        "midi": 67,
        "time": 173.589,
        "duration": 0.897,
        "velocity": 0.6,
        "hand": "right"
      },
      {
        "midi": 71,
        "time": 173.589,
        "duration": 0.513,
        "velocity": 0.54,
        "hand": "right"
      },
      {
        "midi": 45,
        "time": 174.102,
        "duration": 0.385,
        "velocity": 0.56,
        "hand": "left"
      },
      {
        "midi": 60,
        "time": 174.102,
        "duration": 0.385,
        "velocity": 0.57,
        "hand": "right"
      },
      {
        "midi": 72,
        "time": 174.102,
        "duration": 0.754,
        "velocity": 0.6,
        "hand": "right"
      },
      {
        "midi": 50,
        "time": 174.615,
        "duration": 0.769,
        "velocity": 0.6,
        "hand": "left"
      },
      {
        "midi": 57,
        "time": 174.615,
        "duration": 0.513,
        "velocity": 0.57,
        "hand": "left"
      },
      {
        "midi": 66,
        "time": 174.615,
        "duration": 0.513,
        "velocity": 0.57,
        "hand": "right"
      },
      {
        "midi": 74,
        "time": 174.743,
        "duration": 0.128,
        "velocity": 0.57,
        "hand": "right"
      },
      {
        "midi": 72,
        "time": 174.871,
        "duration": 0.128,
        "velocity": 0.57,
        "hand": "right"
      },
      {
        "midi": 64,
        "time": 175,
        "duration": 0.897,
        "velocity": 0.6,
        "hand": "right"
      },
      {
        "midi": 68,
        "time": 175,
        "duration": 0.513,
        "velocity": 0.57,
        "hand": "right"
      },
      {
        "midi": 71,
        "time": 175,
        "duration": 0.385,
        "velocity": 0.57,
        "hand": "right"
      },
      {
        "midi": 52,
        "time": 175.256,
        "duration": 0.256,
        "velocity": 0.61,
        "hand": "left"
      },
      {
        "midi": 50,
        "time": 175.512,
        "duration": 0.256,
        "velocity": 0.6,
        "hand": "left"
      },
      {
        "midi": 69,
        "time": 175.512,
        "duration": 0.897,
        "velocity": 0.61,
        "hand": "right"
      },
      {
        "midi": 72,
        "time": 175.512,
        "duration": 0.513,
        "velocity": 0.53,
        "hand": "right"
      },
      {
        "midi": 48,
        "time": 175.769,
        "duration": 0.256,
        "velocity": 0.58,
        "hand": "left"
      },
      {
        "midi": 47,
        "time": 176.025,
        "duration": 0.385,
        "velocity": 0.57,
        "hand": "left"
      },
      {
        "midi": 62,
        "time": 176.025,
        "duration": 0.513,
        "velocity": 0.57,
        "hand": "right"
      },
      {
        "midi": 74,
        "time": 176.025,
        "duration": 0.513,
        "velocity": 0.56,
        "hand": "right"
      },
      {
        "midi": 46,
        "time": 176.41,
        "duration": 0.513,
        "velocity": 0.57,
        "hand": "left"
      },
      {
        "midi": 67,
        "time": 176.41,
        "duration": 0.513,
        "velocity": 0.57,
        "hand": "right"
      },
      {
        "midi": 76,
        "time": 176.41,
        "duration": 0.513,
        "velocity": 0.58,
        "hand": "right"
      },
      {
        "midi": 45,
        "time": 176.923,
        "duration": 0.513,
        "velocity": 0.57,
        "hand": "left"
      },
      {
        "midi": 69,
        "time": 176.923,
        "duration": 0.513,
        "velocity": 0.57,
        "hand": "right"
      },
      {
        "midi": 77,
        "time": 176.923,
        "duration": 0.769,
        "velocity": 0.64,
        "hand": "right"
      },
      {
        "midi": 43,
        "time": 177.436,
        "duration": 0.513,
        "velocity": 0.56,
        "hand": "left"
      },
      {
        "midi": 71,
        "time": 177.436,
        "duration": 0.513,
        "velocity": 0.57,
        "hand": "right"
      },
      {
        "midi": 79,
        "time": 177.692,
        "duration": 0.128,
        "velocity": 0.6,
        "hand": "right"
      },
      {
        "midi": 77,
        "time": 177.82,
        "duration": 0.128,
        "velocity": 0.6,
        "hand": "right"
      },
      {
        "midi": 45,
        "time": 177.948,
        "duration": 0.385,
        "velocity": 0.56,
        "hand": "left"
      },
      {
        "midi": 72,
        "time": 177.948,
        "duration": 0.755,
        "velocity": 0.6,
        "hand": "right"
      },
      {
        "midi": 76,
        "time": 177.948,
        "duration": 0.385,
        "velocity": 0.6,
        "hand": "right"
      },
      {
        "midi": 54,
        "time": 178.333,
        "duration": 0.513,
        "velocity": 0.6,
        "hand": "left"
      },
      {
        "midi": 57,
        "time": 178.333,
        "duration": 0.513,
        "velocity": 0.5,
        "hand": "left"
      },
      {
        "midi": 81,
        "time": 178.333,
        "duration": 0.513,
        "velocity": 0.68,
        "hand": "right"
      },
      {
        "midi": 74,
        "time": 178.589,
        "duration": 0.128,
        "velocity": 0.57,
        "hand": "right"
      },
      {
        "midi": 72,
        "time": 178.718,
        "duration": 0.128,
        "velocity": 0.57,
        "hand": "right"
      },
      {
        "midi": 55,
        "time": 178.846,
        "duration": 0.513,
        "velocity": 0.6,
        "hand": "left"
      },
      {
        "midi": 59,
        "time": 178.846,
        "duration": 0.513,
        "velocity": 0.53,
        "hand": "left"
      },
      {
        "midi": 71,
        "time": 178.846,
        "duration": 0.385,
        "velocity": 0.57,
        "hand": "right"
      },
      {
        "midi": 74,
        "time": 178.846,
        "duration": 0.385,
        "velocity": 0.6,
        "hand": "right"
      },
      {
        "midi": 52,
        "time": 179.359,
        "duration": 0.513,
        "velocity": 0.57,
        "hand": "left"
      },
      {
        "midi": 61,
        "time": 179.359,
        "duration": 0.513,
        "velocity": 0.54,
        "hand": "right"
      },
      {
        "midi": 76,
        "time": 179.359,
        "duration": 0.513,
        "velocity": 0.6,
        "hand": "right"
      },
      {
        "midi": 79,
        "time": 179.359,
        "duration": 0.769,
        "velocity": 0.65,
        "hand": "right"
      },
      {
        "midi": 50,
        "time": 179.871,
        "duration": 0.897,
        "velocity": 0.57,
        "hand": "left"
      },
      {
        "midi": 62,
        "time": 179.871,
        "duration": 0.641,
        "velocity": 0.6,
        "hand": "right"
      },
      {
        "midi": 69,
        "time": 179.871,
        "duration": 0.385,
        "velocity": 0.57,
        "hand": "right"
      },
      {
        "midi": 81,
        "time": 180,
        "duration": 0.256,
        "velocity": 0.65,
        "hand": "right"
      },
      {
        "midi": 74,
        "time": 180.256,
        "duration": 0.641,
        "velocity": 0.6,
        "hand": "right"
      },
      {
        "midi": 79,
        "time": 180.256,
        "duration": 0.256,
        "velocity": 0.64,
        "hand": "right"
      },
      {
        "midi": 64,
        "time": 180.512,
        "duration": 0.128,
        "velocity": 0.57,
        "hand": "right"
      },
      {
        "midi": 77,
        "time": 180.512,
        "duration": 0.256,
        "velocity": 0.62,
        "hand": "right"
      },
      {
        "midi": 62,
        "time": 180.641,
        "duration": 0.128,
        "velocity": 0.57,
        "hand": "right"
      },
      {
        "midi": 52,
        "time": 180.769,
        "duration": 0.513,
        "velocity": 0.56,
        "hand": "left"
      },
      {
        "midi": 60,
        "time": 180.769,
        "duration": 0.385,
        "velocity": 0.57,
        "hand": "right"
      },
      {
        "midi": 76,
        "time": 180.769,
        "duration": 0.241,
        "velocity": 0.61,
        "hand": "right"
      },
      {
        "midi": 76,
        "time": 181.025,
        "duration": 0.256,
        "velocity": 0.57,
        "hand": "right"
      },
      {
        "midi": 53,
        "time": 181.282,
        "duration": 0.513,
        "velocity": 0.56,
        "hand": "left"
      },
      {
        "midi": 65,
        "time": 181.282,
        "duration": 0.513,
        "velocity": 0.6,
        "hand": "right"
      },
      {
        "midi": 74,
        "time": 181.282,
        "duration": 0.256,
        "velocity": 0.56,
        "hand": "right"
      },
      {
        "midi": 81,
        "time": 181.282,
        "duration": 0.513,
        "velocity": 0.67,
        "hand": "right"
      },
      {
        "midi": 72,
        "time": 181.41,
        "duration": 0.256,
        "velocity": 0.54,
        "hand": "right"
      },
      {
        "midi": 55,
        "time": 181.666,
        "duration": 0.769,
        "velocity": 0.6,
        "hand": "left"
      },
      {
        "midi": 59,
        "time": 181.666,
        "duration": 0.385,
        "velocity": 0.54,
        "hand": "left"
      },
      {
        "midi": 71,
        "time": 181.666,
        "duration": 0.385,
        "velocity": 0.54,
        "hand": "right"
      },
      {
        "midi": 74,
        "time": 181.666,
        "duration": 0.513,
        "velocity": 0.6,
        "hand": "right"
      },
      {
        "midi": 64,
        "time": 182.179,
        "duration": 0.769,
        "velocity": 0.6,
        "hand": "right"
      },
      {
        "midi": 79,
        "time": 182.179,
        "duration": 0.513,
        "velocity": 0.65,
        "hand": "right"
      },
      {
        "midi": 82,
        "time": 182.179,
        "duration": 0.513,
        "velocity": 0.67,
        "hand": "right"
      },
      {
        "midi": 57,
        "time": 182.436,
        "duration": 0.128,
        "velocity": 0.57,
        "hand": "left"
      },
      {
        "midi": 55,
        "time": 182.564,
        "duration": 0.128,
        "velocity": 0.57,
        "hand": "left"
      },
      {
        "midi": 53,
        "time": 182.692,
        "duration": 0.385,
        "velocity": 0.57,
        "hand": "left"
      },
      {
        "midi": 73,
        "time": 182.692,
        "duration": 0.513,
        "velocity": 0.57,
        "hand": "right"
      },
      {
        "midi": 81,
        "time": 182.692,
        "duration": 0.513,
        "velocity": 0.67,
        "hand": "right"
      },
      {
        "midi": 65,
        "time": 182.948,
        "duration": 0.256,
        "velocity": 0.61,
        "hand": "right"
      },
      {
        "midi": 58,
        "time": 183.205,
        "duration": 0.513,
        "velocity": 0.6,
        "hand": "left"
      },
      {
        "midi": 64,
        "time": 183.205,
        "duration": 0.256,
        "velocity": 0.58,
        "hand": "right"
      },
      {
        "midi": 74,
        "time": 183.205,
        "duration": 0.513,
        "velocity": 0.57,
        "hand": "right"
      },
      {
        "midi": 79,
        "time": 183.205,
        "duration": 0.256,
        "velocity": 0.64,
        "hand": "right"
      },
      {
        "midi": 62,
        "time": 183.333,
        "duration": 0.256,
        "velocity": 0.57,
        "hand": "right"
      },
      {
        "midi": 77,
        "time": 183.333,
        "duration": 0.256,
        "velocity": 0.61,
        "hand": "right"
      },
      {
        "midi": 52,
        "time": 183.589,
        "duration": 0.385,
        "velocity": 0.54,
        "hand": "left"
      },
      {
        "midi": 61,
        "time": 183.589,
        "duration": 0.513,
        "velocity": 0.56,
        "hand": "right"
      },
      {
        "midi": 76,
        "time": 183.589,
        "duration": 0.385,
        "velocity": 0.6,
        "hand": "right"
      },
      {
        "midi": 79,
        "time": 183.589,
        "duration": 0.256,
        "velocity": 0.64,
        "hand": "right"
      },
      {
        "midi": 77,
        "time": 183.846,
        "duration": 0.256,
        "velocity": 0.61,
        "hand": "right"
      },
      {
        "midi": 57,
        "time": 184.102,
        "duration": 0.769,
        "velocity": 0.6,
        "hand": "left"
      },
      {
        "midi": 73,
        "time": 184.102,
        "duration": 0.513,
        "velocity": 0.56,
        "hand": "right"
      },
      {
        "midi": 79,
        "time": 184.102,
        "duration": 0.256,
        "velocity": 0.64,
        "hand": "right"
      },
      {
        "midi": 76,
        "time": 184.359,
        "duration": 0.256,
        "velocity": 0.6,
        "hand": "right"
      },
      {
        "midi": 74,
        "time": 184.615,
        "duration": 0.513,
        "velocity": 0.56,
        "hand": "right"
      },
      {
        "midi": 77,
        "time": 184.615,
        "duration": 0.256,
        "velocity": 0.64,
        "hand": "right"
      },
      {
        "midi": 58,
        "time": 184.871,
        "duration": 0.256,
        "velocity": 0.57,
        "hand": "left"
      },
      {
        "midi": 79,
        "time": 184.871,
        "duration": 0.114,
        "velocity": 0.6,
        "hand": "right"
      },
      {
        "midi": 57,
        "time": 185,
        "duration": 0.256,
        "velocity": 0.57,
        "hand": "left"
      },
      {
        "midi": 76,
        "time": 185,
        "duration": 0.513,
        "velocity": 0.56,
        "hand": "right"
      },
      {
        "midi": 79,
        "time": 185,
        "duration": 0.064,
        "velocity": 0.64,
        "hand": "right"
      },
      {
        "midi": 79,
        "time": 185.128,
        "duration": 0.064,
        "velocity": 0.54,
        "hand": "right"
      },
      {
        "midi": 81,
        "time": 185.128,
        "duration": 0.064,
        "velocity": 0.54,
        "hand": "right"
      },
      {
        "midi": 55,
        "time": 185.256,
        "duration": 0.256,
        "velocity": 0.57,
        "hand": "left"
      },
      {
        "midi": 77,
        "time": 185.256,
        "duration": 0.128,
        "velocity": 0.6,
        "hand": "right"
      },
      {
        "midi": 79,
        "time": 185.384,
        "duration": 0.128,
        "velocity": 0.6,
        "hand": "right"
      },
      {
        "midi": 53,
        "time": 185.512,
        "duration": 0.256,
        "velocity": 0.57,
        "hand": "left"
      },
      {
        "midi": 69,
        "time": 185.512,
        "duration": 0.513,
        "velocity": 0.57,
        "hand": "right"
      },
      {
        "midi": 81,
        "time": 185.512,
        "duration": 0.128,
        "velocity": 0.67,
        "hand": "right"
      },
      {
        "midi": 52,
        "time": 185.769,
        "duration": 0.256,
        "velocity": 0.54,
        "hand": "left"
      },
      {
        "midi": 73,
        "time": 185.769,
        "duration": 0.256,
        "velocity": 0.6,
        "hand": "right"
      },
      {
        "midi": 53,
        "time": 186.025,
        "duration": 0.128,
        "velocity": 0.57,
        "hand": "left"
      },
      {
        "midi": 57,
        "time": 186.025,
        "duration": 0.513,
        "velocity": 0.53,
        "hand": "left"
      },
      {
        "midi": 74,
        "time": 186.025,
        "duration": 0.256,
        "velocity": 0.6,
        "hand": "right"
      },
      {
        "midi": 50,
        "time": 186.282,
        "duration": 0.256,
        "velocity": 0.54,
        "hand": "left"
      },
      {
        "midi": 79,
        "time": 186.282,
        "duration": 0.256,
        "velocity": 0.6,
        "hand": "right"
      },
      {
        "midi": 55,
        "time": 186.538,
        "duration": 0.513,
        "velocity": 0.58,
        "hand": "left"
      },
      {
        "midi": 59,
        "time": 186.538,
        "duration": 0.513,
        "velocity": 0.54,
        "hand": "left"
      },
      {
        "midi": 77,
        "time": 186.538,
        "duration": 0.128,
        "velocity": 0.54,
        "hand": "right"
      },
      {
        "midi": 76,
        "time": 186.666,
        "duration": 0.513,
        "velocity": 0.6,
        "hand": "right"
      },
      {
        "midi": 57,
        "time": 187.051,
        "duration": 0.513,
        "velocity": 0.58,
        "hand": "left"
      },
      {
        "midi": 61,
        "time": 187.051,
        "duration": 0.513,
        "velocity": 0.54,
        "hand": "right"
      },
      {
        "midi": 64,
        "time": 187.051,
        "duration": 0.513,
        "velocity": 0.51,
        "hand": "right"
      },
      {
        "midi": 74,
        "time": 187.307,
        "duration": 0.114,
        "velocity": 0.6,
        "hand": "right"
      },
      {
        "midi": 74,
        "time": 187.436,
        "duration": 0.513,
        "velocity": 0.61,
        "hand": "right"
      },
      {
        "midi": 50,
        "time": 187.564,
        "duration": 2.179,
        "velocity": 0.56,
        "hand": "left"
      },
      {
        "midi": 62,
        "time": 187.564,
        "duration": 0.754,
        "velocity": 0.6,
        "hand": "right"
      },
      {
        "midi": 66,
        "time": 187.564,
        "duration": 0.513,
        "velocity": 0.53,
        "hand": "right"
      },
      {
        "midi": 67,
        "time": 187.948,
        "duration": 0.513,
        "velocity": 0.54,
        "hand": "right"
      },
      {
        "midi": 64,
        "time": 188.205,
        "duration": 0.128,
        "velocity": 0.57,
        "hand": "right"
      },
      {
        "midi": 62,
        "time": 188.333,
        "duration": 0.128,
        "velocity": 0.57,
        "hand": "right"
      },
      {
        "midi": 60,
        "time": 188.461,
        "duration": 0.385,
        "velocity": 0.57,
        "hand": "right"
      },
      {
        "midi": 69,
        "time": 188.461,
        "duration": 0.769,
        "velocity": 0.6,
        "hand": "right"
      },
      {
        "midi": 66,
        "time": 188.974,
        "duration": 0.513,
        "velocity": 0.6,
        "hand": "right"
      },
      {
        "midi": 71,
        "time": 189.23,
        "duration": 0.128,
        "velocity": 0.57,
        "hand": "right"
      },
      {
        "midi": 69,
        "time": 189.359,
        "duration": 0.128,
        "velocity": 0.57,
        "hand": "right"
      },
      {
        "midi": 59,
        "time": 189.487,
        "duration": 0.385,
        "velocity": 0.54,
        "hand": "left"
      },
      {
        "midi": 67,
        "time": 189.487,
        "duration": 0.385,
        "velocity": 0.57,
        "hand": "right"
      },
      {
        "midi": 52,
        "time": 189.743,
        "duration": 0.256,
        "velocity": 0.57,
        "hand": "left"
      },
      {
        "midi": 50,
        "time": 189.871,
        "duration": 0.256,
        "velocity": 0.57,
        "hand": "left"
      },
      {
        "midi": 64,
        "time": 189.871,
        "duration": 0.769,
        "velocity": 0.6,
        "hand": "right"
      },
      {
        "midi": 72,
        "time": 189.871,
        "duration": 0.513,
        "velocity": 0.6,
        "hand": "right"
      },
      {
        "midi": 48,
        "time": 190.128,
        "duration": 0.256,
        "velocity": 0.56,
        "hand": "left"
      },
      {
        "midi": 47,
        "time": 190.384,
        "duration": 0.256,
        "velocity": 0.56,
        "hand": "left"
      },
      {
        "midi": 66,
        "time": 190.384,
        "duration": 0.242,
        "velocity": 0.54,
        "hand": "right"
      },
      {
        "midi": 45,
        "time": 190.641,
        "duration": 0.256,
        "velocity": 0.54,
        "hand": "left"
      },
      {
        "midi": 66,
        "time": 190.641,
        "duration": 0.256,
        "velocity": 0.62,
        "hand": "right"
      },
      {
        "midi": 43,
        "time": 190.897,
        "duration": 0.256,
        "velocity": 0.54,
        "hand": "left"
      },
      {
        "midi": 64,
        "time": 190.897,
        "duration": 0.256,
        "velocity": 0.62,
        "hand": "right"
      },
      {
        "midi": 71,
        "time": 190.897,
        "duration": 0.769,
        "velocity": 0.6,
        "hand": "right"
      },
      {
        "midi": 42,
        "time": 191.153,
        "duration": 0.256,
        "velocity": 0.54,
        "hand": "left"
      },
      {
        "midi": 62,
        "time": 191.153,
        "duration": 0.256,
        "velocity": 0.61,
        "hand": "right"
      },
      {
        "midi": 40,
        "time": 191.41,
        "duration": 0.385,
        "velocity": 0.54,
        "hand": "left"
      },
      {
        "midi": 60,
        "time": 191.41,
        "duration": 2.179,
        "velocity": 0.6,
        "hand": "right"
      },
      {
        "midi": 72,
        "time": 191.666,
        "duration": 0.256,
        "velocity": 0.57,
        "hand": "right"
      },
      {
        "midi": 52,
        "time": 191.923,
        "duration": 0.513,
        "velocity": 0.51,
        "hand": "left"
      },
      {
        "midi": 71,
        "time": 191.923,
        "duration": 0.256,
        "velocity": 0.57,
        "hand": "right"
      },
      {
        "midi": 69,
        "time": 192.051,
        "duration": 0.256,
        "velocity": 0.56,
        "hand": "right"
      },
      {
        "midi": 54,
        "time": 192.307,
        "duration": 0.513,
        "velocity": 0.54,
        "hand": "left"
      },
      {
        "midi": 67,
        "time": 192.307,
        "duration": 0.256,
        "velocity": 0.56,
        "hand": "right"
      },
      {
        "midi": 66,
        "time": 192.564,
        "duration": 0.256,
        "velocity": 0.54,
        "hand": "right"
      },
      {
        "midi": 55,
        "time": 192.82,
        "duration": 0.897,
        "velocity": 0.56,
        "hand": "left"
      },
      {
        "midi": 64,
        "time": 192.82,
        "duration": 0.256,
        "velocity": 0.54,
        "hand": "right"
      },
      {
        "midi": 67,
        "time": 192.82,
        "duration": 0.513,
        "velocity": 0.5,
        "hand": "right"
      },
      {
        "midi": 62,
        "time": 193.077,
        "duration": 0.256,
        "velocity": 0.54,
        "hand": "right"
      },
      {
        "midi": 64,
        "time": 193.333,
        "duration": 1.026,
        "velocity": 0.57,
        "hand": "right"
      },
      {
        "midi": 69,
        "time": 193.333,
        "duration": 0.513,
        "velocity": 0.53,
        "hand": "right"
      },
      {
        "midi": 62,
        "time": 193.589,
        "duration": 0.256,
        "velocity": 0.6,
        "hand": "right"
      },
      {
        "midi": 57,
        "time": 193.846,
        "duration": 0.256,
        "velocity": 0.6,
        "hand": "left"
      },
      {
        "midi": 60,
        "time": 193.846,
        "duration": 0.256,
        "velocity": 0.58,
        "hand": "right"
      },
      {
        "midi": 71,
        "time": 193.846,
        "duration": 0.513,
        "velocity": 0.54,
        "hand": "right"
      },
      {
        "midi": 55,
        "time": 193.974,
        "duration": 0.256,
        "velocity": 0.57,
        "hand": "left"
      },
      {
        "midi": 59,
        "time": 193.974,
        "duration": 0.256,
        "velocity": 0.57,
        "hand": "left"
      },
      {
        "midi": 54,
        "time": 194.23,
        "duration": 0.385,
        "velocity": 0.6,
        "hand": "left"
      },
      {
        "midi": 57,
        "time": 194.23,
        "duration": 0.256,
        "velocity": 0.57,
        "hand": "left"
      },
      {
        "midi": 62,
        "time": 194.23,
        "duration": 1.154,
        "velocity": 0.57,
        "hand": "right"
      },
      {
        "midi": 72,
        "time": 194.23,
        "duration": 0.769,
        "velocity": 0.6,
        "hand": "right"
      },
      {
        "midi": 55,
        "time": 194.487,
        "duration": 0.256,
        "velocity": 0.56,
        "hand": "left"
      },
      {
        "midi": 50,
        "time": 194.743,
        "duration": 0.513,
        "velocity": 0.57,
        "hand": "left"
      },
      {
        "midi": 57,
        "time": 194.743,
        "duration": 0.128,
        "velocity": 0.57,
        "hand": "left"
      },
      {
        "midi": 54,
        "time": 195,
        "duration": 0.256,
        "velocity": 0.54,
        "hand": "left"
      },
      {
        "midi": 74,
        "time": 195,
        "duration": 0.128,
        "velocity": 0.57,
        "hand": "right"
      },
      {
        "midi": 72,
        "time": 195.128,
        "duration": 0.128,
        "velocity": 0.57,
        "hand": "right"
      },
      {
        "midi": 55,
        "time": 195.256,
        "duration": 3.846,
        "velocity": 0.58,
        "hand": "left"
      },
      {
        "midi": 71,
        "time": 195.256,
        "duration": 0.513,
        "velocity": 0.57,
        "hand": "right"
      },
      {
        "midi": 69,
        "time": 195.512,
        "duration": 0.256,
        "velocity": 0.57,
        "hand": "right"
      },
      {
        "midi": 59,
        "time": 195.769,
        "duration": 0.513,
        "velocity": 0.57,
        "hand": "left"
      },
      {
        "midi": 67,
        "time": 195.769,
        "duration": 0.256,
        "velocity": 0.57,
        "hand": "right"
      },
      {
        "midi": 76,
        "time": 195.769,
        "duration": 0.513,
        "velocity": 0.6,
        "hand": "right"
      },
      {
        "midi": 65,
        "time": 196.025,
        "duration": 0.256,
        "velocity": 0.56,
        "hand": "right"
      },
      {
        "midi": 69,
        "time": 196.153,
        "duration": 0.385,
        "velocity": 0.57,
        "hand": "right"
      },
      {
        "midi": 60,
        "time": 196.282,
        "duration": 0.513,
        "velocity": 0.6,
        "hand": "right"
      },
      {
        "midi": 64,
        "time": 196.282,
        "duration": 0.256,
        "velocity": 0.56,
        "hand": "right"
      },
      {
        "midi": 67,
        "time": 196.41,
        "duration": 0.256,
        "velocity": 0.6,
        "hand": "right"
      },
      {
        "midi": 62,
        "time": 196.666,
        "duration": 0.513,
        "velocity": 0.62,
        "hand": "right"
      },
      {
        "midi": 65,
        "time": 196.666,
        "duration": 0.256,
        "velocity": 0.56,
        "hand": "right"
      },
      {
        "midi": 74,
        "time": 196.666,
        "duration": 0.769,
        "velocity": 0.6,
        "hand": "right"
      },
      {
        "midi": 69,
        "time": 196.923,
        "duration": 0.256,
        "velocity": 0.56,
        "hand": "right"
      },
      {
        "midi": 64,
        "time": 197.179,
        "duration": 0.641,
        "velocity": 0.65,
        "hand": "right"
      },
      {
        "midi": 67,
        "time": 197.179,
        "duration": 1.154,
        "velocity": 0.57,
        "hand": "right"
      },
      {
        "midi": 76,
        "time": 197.436,
        "duration": 0.256,
        "velocity": 0.6,
        "hand": "right"
      },
      {
        "midi": 74,
        "time": 197.692,
        "duration": 0.256,
        "velocity": 0.57,
        "hand": "right"
      },
      {
        "midi": 65,
        "time": 197.82,
        "duration": 0.128,
        "velocity": 0.6,
        "hand": "right"
      },
      {
        "midi": 72,
        "time": 197.82,
        "duration": 0.256,
        "velocity": 0.56,
        "hand": "right"
      },
      {
        "midi": 64,
        "time": 197.948,
        "duration": 0.128,
        "velocity": 0.6,
        "hand": "right"
      },
      {
        "midi": 62,
        "time": 198.077,
        "duration": 0.385,
        "velocity": 0.6,
        "hand": "right"
      },
      {
        "midi": 71,
        "time": 198.077,
        "duration": 0.256,
        "velocity": 0.54,
        "hand": "right"
      },
      {
        "midi": 69,
        "time": 198.333,
        "duration": 0.256,
        "velocity": 0.56,
        "hand": "right"
      },
      {
        "midi": 72,
        "time": 198.333,
        "duration": 0.256,
        "velocity": 0.54,
        "hand": "right"
      },
      {
        "midi": 67,
        "time": 198.589,
        "duration": 0.513,
        "velocity": 0.65,
        "hand": "right"
      },
      {
        "midi": 70,
        "time": 198.589,
        "duration": 0.513,
        "velocity": 0.56,
        "hand": "right"
      },
      {
        "midi": 74,
        "time": 198.589,
        "duration": 0.256,
        "velocity": 0.57,
        "hand": "right"
      },
      {
        "midi": 76,
        "time": 198.846,
        "duration": 0.256,
        "velocity": 0.58,
        "hand": "right"
      },
      {
        "midi": 57,
        "time": 199.102,
        "duration": 1.026,
        "velocity": 0.51,
        "hand": "left"
      },
      {
        "midi": 60,
        "time": 199.102,
        "duration": 0.385,
        "velocity": 0.57,
        "hand": "right"
      },
      {
        "midi": 72,
        "time": 199.102,
        "duration": 1.026,
        "velocity": 0.54,
        "hand": "right"
      },
      {
        "midi": 77,
        "time": 199.102,
        "duration": 0.256,
        "velocity": 0.61,
        "hand": "right"
      },
      {
        "midi": 79,
        "time": 199.359,
        "duration": 0.256,
        "velocity": 0.61,
        "hand": "right"
      },
      {
        "midi": 65,
        "time": 199.615,
        "duration": 0.769,
        "velocity": 0.65,
        "hand": "right"
      },
      {
        "midi": 81,
        "time": 199.615,
        "duration": 0.256,
        "velocity": 0.61,
        "hand": "right"
      },
      {
        "midi": 79,
        "time": 199.871,
        "duration": 0.256,
        "velocity": 0.6,
        "hand": "right"
      },
      {
        "midi": 59,
        "time": 200,
        "duration": 0.513,
        "velocity": 0.57,
        "hand": "left"
      },
      {
        "midi": 74,
        "time": 200,
        "duration": 0.385,
        "velocity": 0.6,
        "hand": "right"
      },
      {
        "midi": 77,
        "time": 200,
        "duration": 0.256,
        "velocity": 0.6,
        "hand": "right"
      },
      {
        "midi": 67,
        "time": 200.256,
        "duration": 0.241,
        "velocity": 0.61,
        "hand": "right"
      },
      {
        "midi": 76,
        "time": 200.256,
        "duration": 0.256,
        "velocity": 0.58,
        "hand": "right"
      },
      {
        "midi": 60,
        "time": 200.512,
        "duration": 0.513,
        "velocity": 0.57,
        "hand": "right"
      },
      {
        "midi": 65,
        "time": 200.512,
        "duration": 0.256,
        "velocity": 0.6,
        "hand": "right"
      },
      {
        "midi": 67,
        "time": 200.512,
        "duration": 0.498,
        "velocity": 0.57,
        "hand": "right"
      },
      {
        "midi": 74,
        "time": 200.512,
        "duration": 0.256,
        "velocity": 0.58,
        "hand": "right"
      },
      {
        "midi": 64,
        "time": 200.769,
        "duration": 0.256,
        "velocity": 0.57,
        "hand": "right"
      },
      {
        "midi": 72,
        "time": 200.769,
        "duration": 0.256,
        "velocity": 0.57,
        "hand": "right"
      },
      {
        "midi": 53,
        "time": 201.025,
        "duration": 0.128,
        "velocity": 0.57,
        "hand": "left"
      },
      {
        "midi": 62,
        "time": 201.025,
        "duration": 1.026,
        "velocity": 0.57,
        "hand": "right"
      },
      {
        "midi": 67,
        "time": 201.025,
        "duration": 1.41,
        "velocity": 0.6,
        "hand": "right"
      },
      {
        "midi": 71,
        "time": 201.025,
        "duration": 1.026,
        "velocity": 0.57,
        "hand": "right"
      },
      {
        "midi": 57,
        "time": 201.282,
        "duration": 0.256,
        "velocity": 0.6,
        "hand": "left"
      },
      {
        "midi": 55,
        "time": 201.538,
        "duration": 0.256,
        "velocity": 0.58,
        "hand": "left"
      },
      {
        "midi": 53,
        "time": 201.795,
        "duration": 0.256,
        "velocity": 0.57,
        "hand": "left"
      },
      {
        "midi": 52,
        "time": 202.051,
        "duration": 0.256,
        "velocity": 0.57,
        "hand": "left"
      },
      {
        "midi": 64,
        "time": 202.051,
        "duration": 0.513,
        "velocity": 0.6,
        "hand": "right"
      },
      {
        "midi": 72,
        "time": 202.051,
        "duration": 0.513,
        "velocity": 0.57,
        "hand": "right"
      },
      {
        "midi": 50,
        "time": 202.307,
        "duration": 0.256,
        "velocity": 0.56,
        "hand": "left"
      },
      {
        "midi": 48,
        "time": 202.436,
        "duration": 0.256,
        "velocity": 0.56,
        "hand": "left"
      },
      {
        "midi": 62,
        "time": 202.436,
        "duration": 1.026,
        "velocity": 0.6,
        "hand": "right"
      },
      {
        "midi": 65,
        "time": 202.436,
        "duration": 1.026,
        "velocity": 0.57,
        "hand": "right"
      },
      {
        "midi": 74,
        "time": 202.436,
        "duration": 0.513,
        "velocity": 0.57,
        "hand": "right"
      },
      {
        "midi": 47,
        "time": 202.692,
        "duration": 0.256,
        "velocity": 0.54,
        "hand": "left"
      },
      {
        "midi": 48,
        "time": 202.948,
        "duration": 0.256,
        "velocity": 0.5,
        "hand": "left"
      },
      {
        "midi": 67,
        "time": 202.948,
        "duration": 0.513,
        "velocity": 0.57,
        "hand": "right"
      },
      {
        "midi": 50,
        "time": 203.205,
        "duration": 0.256,
        "velocity": 0.53,
        "hand": "left"
      },
      {
        "midi": 52,
        "time": 203.461,
        "duration": 0.256,
        "velocity": 0.56,
        "hand": "left"
      },
      {
        "midi": 55,
        "time": 203.461,
        "duration": 0.513,
        "velocity": 0.57,
        "hand": "left"
      },
      {
        "midi": 64,
        "time": 203.461,
        "duration": 0.513,
        "velocity": 0.57,
        "hand": "right"
      },
      {
        "midi": 72,
        "time": 203.461,
        "duration": 1.154,
        "velocity": 0.6,
        "hand": "right"
      },
      {
        "midi": 53,
        "time": 203.718,
        "duration": 0.256,
        "velocity": 0.57,
        "hand": "left"
      },
      {
        "midi": 55,
        "time": 204.102,
        "duration": 1.538,
        "velocity": 0.61,
        "hand": "left"
      },
      {
        "midi": 62,
        "time": 204.102,
        "duration": 1.154,
        "velocity": 0.57,
        "hand": "right"
      },
      {
        "midi": 43,
        "time": 204.615,
        "duration": 0.513,
        "velocity": 0.57,
        "hand": "left"
      },
      {
        "midi": 71,
        "time": 204.615,
        "duration": 0.513,
        "velocity": 0.57,
        "hand": "right"
      },
      {
        "midi": 48,
        "time": 205.128,
        "duration": 0.498,
        "velocity": 0.6,
        "hand": "left"
      },
      {
        "midi": 64,
        "time": 205.128,
        "duration": 0.513,
        "velocity": 0.56,
        "hand": "right"
      },
      {
        "midi": 72,
        "time": 205.128,
        "duration": 1.026,
        "velocity": 0.6,
        "hand": "right"
      },
      {
        "midi": 48,
        "time": 205.641,
        "duration": 10,
        "velocity": 0.5,
        "hand": "left"
      },
      {
        "midi": 69,
        "time": 205.641,
        "duration": 1.026,
        "velocity": 0.68,
        "hand": "right"
      },
      {
        "midi": 71,
        "time": 206.153,
        "duration": 0.513,
        "velocity": 0.67,
        "hand": "right"
      },
      {
        "midi": 50,
        "time": 206.282,
        "duration": 0.513,
        "velocity": 0.53,
        "hand": "left"
      },
      {
        "midi": 52,
        "time": 206.795,
        "duration": 0.513,
        "velocity": 0.54,
        "hand": "left"
      },
      {
        "midi": 67,
        "time": 206.795,
        "duration": 1.026,
        "velocity": 0.56,
        "hand": "right"
      },
      {
        "midi": 70,
        "time": 206.795,
        "duration": 0.513,
        "velocity": 0.67,
        "hand": "right"
      },
      {
        "midi": 53,
        "time": 207.307,
        "duration": 0.769,
        "velocity": 0.6,
        "hand": "left"
      },
      {
        "midi": 69,
        "time": 207.307,
        "duration": 0.513,
        "velocity": 0.65,
        "hand": "right"
      },
      {
        "midi": 65,
        "time": 207.82,
        "duration": 0.513,
        "velocity": 0.56,
        "hand": "right"
      },
      {
        "midi": 74,
        "time": 207.82,
        "duration": 1.026,
        "velocity": 0.72,
        "hand": "right"
      },
      {
        "midi": 55,
        "time": 208.077,
        "duration": 0.128,
        "velocity": 0.56,
        "hand": "left"
      },
      {
        "midi": 53,
        "time": 208.205,
        "duration": 0.128,
        "velocity": 0.56,
        "hand": "left"
      },
      {
        "midi": 52,
        "time": 208.333,
        "duration": 0.513,
        "velocity": 0.57,
        "hand": "left"
      },
      {
        "midi": 67,
        "time": 208.333,
        "duration": 0.513,
        "velocity": 0.57,
        "hand": "right"
      },
      {
        "midi": 57,
        "time": 208.846,
        "duration": 0.513,
        "velocity": 0.6,
        "hand": "left"
      },
      {
        "midi": 69,
        "time": 208.846,
        "duration": 0.513,
        "velocity": 0.57,
        "hand": "right"
      },
      {
        "midi": 72,
        "time": 208.846,
        "duration": 0.513,
        "velocity": 0.67,
        "hand": "right"
      },
      {
        "midi": 50,
        "time": 209.359,
        "duration": 0.513,
        "velocity": 0.54,
        "hand": "left"
      },
      {
        "midi": 70,
        "time": 209.359,
        "duration": 0.769,
        "velocity": 0.6,
        "hand": "right"
      },
      {
        "midi": 74,
        "time": 209.359,
        "duration": 0.513,
        "velocity": 0.67,
        "hand": "right"
      },
      {
        "midi": 55,
        "time": 209.871,
        "duration": 0.769,
        "velocity": 0.6,
        "hand": "left"
      },
      {
        "midi": 76,
        "time": 209.871,
        "duration": 0.513,
        "velocity": 0.69,
        "hand": "right"
      },
      {
        "midi": 72,
        "time": 210.128,
        "duration": 0.128,
        "velocity": 0.57,
        "hand": "right"
      },
      {
        "midi": 70,
        "time": 210.256,
        "duration": 0.128,
        "velocity": 0.57,
        "hand": "right"
      },
      {
        "midi": 69,
        "time": 210.384,
        "duration": 0.513,
        "velocity": 0.57,
        "hand": "right"
      },
      {
        "midi": 77,
        "time": 210.384,
        "duration": 1.282,
        "velocity": 0.74,
        "hand": "right"
      },
      {
        "midi": 57,
        "time": 210.641,
        "duration": 0.256,
        "velocity": 0.57,
        "hand": "left"
      },
      {
        "midi": 55,
        "time": 210.897,
        "duration": 0.256,
        "velocity": 0.57,
        "hand": "left"
      },
      {
        "midi": 74,
        "time": 210.897,
        "duration": 0.513,
        "velocity": 0.6,
        "hand": "right"
      },
      {
        "midi": 53,
        "time": 211.282,
        "duration": 0.256,
        "velocity": 0.57,
        "hand": "left"
      },
      {
        "midi": 52,
        "time": 211.538,
        "duration": 0.256,
        "velocity": 0.57,
        "hand": "left"
      },
      {
        "midi": 67,
        "time": 211.538,
        "duration": 0.513,
        "velocity": 0.54,
        "hand": "right"
      },
      {
        "midi": 50,
        "time": 211.795,
        "duration": 0.256,
        "velocity": 0.56,
        "hand": "left"
      },
      {
        "midi": 81,
        "time": 211.795,
        "duration": 0.256,
        "velocity": 0.69,
        "hand": "right"
      },
      {
        "midi": 52,
        "time": 212.051,
        "duration": 0.256,
        "velocity": 0.56,
        "hand": "left"
      },
      {
        "midi": 72,
        "time": 212.051,
        "duration": 0.769,
        "velocity": 0.6,
        "hand": "right"
      },
      {
        "midi": 79,
        "time": 212.051,
        "duration": 0.256,
        "velocity": 0.69,
        "hand": "right"
      },
      {
        "midi": 53,
        "time": 212.307,
        "duration": 0.256,
        "velocity": 0.56,
        "hand": "left"
      },
      {
        "midi": 77,
        "time": 212.307,
        "duration": 0.256,
        "velocity": 0.68,
        "hand": "right"
      },
      {
        "midi": 55,
        "time": 212.564,
        "duration": 0.256,
        "velocity": 0.57,
        "hand": "left"
      },
      {
        "midi": 76,
        "time": 212.564,
        "duration": 0.256,
        "velocity": 0.67,
        "hand": "right"
      },
      {
        "midi": 57,
        "time": 212.82,
        "duration": 0.256,
        "velocity": 0.58,
        "hand": "left"
      },
      {
        "midi": 74,
        "time": 212.82,
        "duration": 0.256,
        "velocity": 0.61,
        "hand": "right"
      },
      {
        "midi": 77,
        "time": 212.82,
        "duration": 0.256,
        "velocity": 0.69,
        "hand": "right"
      },
      {
        "midi": 58,
        "time": 213.077,
        "duration": 0.256,
        "velocity": 0.62,
        "hand": "left"
      },
      {
        "midi": 72,
        "time": 213.077,
        "duration": 0.256,
        "velocity": 0.61,
        "hand": "right"
      },
      {
        "midi": 76,
        "time": 213.077,
        "duration": 0.256,
        "velocity": 0.68,
        "hand": "right"
      },
      {
        "midi": 55,
        "time": 213.333,
        "duration": 0.256,
        "velocity": 0.6,
        "hand": "left"
      },
      {
        "midi": 70,
        "time": 213.333,
        "duration": 0.256,
        "velocity": 0.61,
        "hand": "right"
      },
      {
        "midi": 74,
        "time": 213.333,
        "duration": 0.256,
        "velocity": 0.67,
        "hand": "right"
      },
      {
        "midi": 57,
        "time": 213.718,
        "duration": 0.256,
        "velocity": 0.6,
        "hand": "left"
      },
      {
        "midi": 69,
        "time": 213.718,
        "duration": 0.256,
        "velocity": 0.61,
        "hand": "right"
      },
      {
        "midi": 72,
        "time": 213.718,
        "duration": 2.179,
        "velocity": 0.69,
        "hand": "right"
      },
      {
        "midi": 52,
        "time": 213.974,
        "duration": 0.256,
        "velocity": 0.62,
        "hand": "left"
      },
      {
        "midi": 70,
        "time": 213.974,
        "duration": 0.256,
        "velocity": 0.61,
        "hand": "right"
      },
      {
        "midi": 53,
        "time": 214.23,
        "duration": 0.256,
        "velocity": 0.54,
        "hand": "left"
      },
      {
        "midi": 69,
        "time": 214.23,
        "duration": 0.256,
        "velocity": 0.61,
        "hand": "right"
      },
      {
        "midi": 55,
        "time": 214.487,
        "duration": 0.256,
        "velocity": 0.57,
        "hand": "left"
      },
      {
        "midi": 67,
        "time": 214.487,
        "duration": 0.256,
        "velocity": 0.6,
        "hand": "right"
      },
      {
        "midi": 57,
        "time": 214.743,
        "duration": 0.256,
        "velocity": 0.58,
        "hand": "left"
      },
      {
        "midi": 65,
        "time": 214.743,
        "duration": 0.256,
        "velocity": 0.6,
        "hand": "right"
      },
      {
        "midi": 59,
        "time": 215,
        "duration": 0.256,
        "velocity": 0.6,
        "hand": "left"
      },
      {
        "midi": 67,
        "time": 215,
        "duration": 0.256,
        "velocity": 0.6,
        "hand": "right"
      },
      {
        "midi": 65,
        "time": 215.256,
        "duration": 0.256,
        "velocity": 0.58,
        "hand": "right"
      },
      {
        "midi": 60,
        "time": 215.384,
        "duration": 0.256,
        "velocity": 0.61,
        "hand": "right"
      },
      {
        "midi": 57,
        "time": 215.641,
        "duration": 0.256,
        "velocity": 0.57,
        "hand": "left"
      },
      {
        "midi": 64,
        "time": 215.641,
        "duration": 0.256,
        "velocity": 0.58,
        "hand": "right"
      },
      {
        "midi": 59,
        "time": 215.897,
        "duration": 2.308,
        "velocity": 0.61,
        "hand": "left"
      },
      {
        "midi": 62,
        "time": 215.897,
        "duration": 2.051,
        "velocity": 0.58,
        "hand": "right"
      },
      {
        "midi": 67,
        "time": 216.153,
        "duration": 0.128,
        "velocity": 0.56,
        "hand": "right"
      },
      {
        "midi": 69,
        "time": 216.282,
        "duration": 0.128,
        "velocity": 0.57,
        "hand": "right"
      },
      {
        "midi": 71,
        "time": 216.41,
        "duration": 0.256,
        "velocity": 0.57,
        "hand": "right"
      },
      {
        "midi": 72,
        "time": 216.795,
        "duration": 0.256,
        "velocity": 0.58,
        "hand": "right"
      },
      {
        "midi": 74,
        "time": 217.051,
        "duration": 0.256,
        "velocity": 0.6,
        "hand": "right"
      },
      {
        "midi": 76,
        "time": 217.307,
        "duration": 0.256,
        "velocity": 0.61,
        "hand": "right"
      },
      {
        "midi": 77,
        "time": 217.564,
        "duration": 0.769,
        "velocity": 0.62,
        "hand": "right"
      },
      {
        "midi": 67,
        "time": 217.948,
        "duration": 0.256,
        "velocity": 0.57,
        "hand": "right"
      },
      {
        "midi": 60,
        "time": 218.205,
        "duration": 7.308,
        "velocity": 0.6,
        "hand": "right"
      },
      {
        "midi": 69,
        "time": 218.205,
        "duration": 1.154,
        "velocity": 0.6,
        "hand": "right"
      },
      {
        "midi": 72,
        "time": 218.333,
        "duration": 0.128,
        "velocity": 0.54,
        "hand": "right"
      },
      {
        "midi": 74,
        "time": 218.461,
        "duration": 0.128,
        "velocity": 0.57,
        "hand": "right"
      },
      {
        "midi": 76,
        "time": 218.589,
        "duration": 0.128,
        "velocity": 0.57,
        "hand": "right"
      },
      {
        "midi": 77,
        "time": 218.718,
        "duration": 0.256,
        "velocity": 0.58,
        "hand": "right"
      },
      {
        "midi": 79,
        "time": 218.974,
        "duration": 0.256,
        "velocity": 0.61,
        "hand": "right"
      },
      {
        "midi": 81,
        "time": 219.359,
        "duration": 1.154,
        "velocity": 0.65,
        "hand": "right"
      },
      {
        "midi": 77,
        "time": 219.615,
        "duration": 0.385,
        "velocity": 0.57,
        "hand": "right"
      },
      {
        "midi": 74,
        "time": 220,
        "duration": 1.026,
        "velocity": 0.57,
        "hand": "right"
      },
      {
        "midi": 83,
        "time": 220.384,
        "duration": 0.513,
        "velocity": 0.64,
        "hand": "right"
      },
      {
        "midi": 76,
        "time": 221.025,
        "duration": 4.487,
        "velocity": 0.47,
        "hand": "right"
      },
      {
        "midi": 79,
        "time": 221.025,
        "duration": 4.487,
        "velocity": 0.51,
        "hand": "right"
      },
      {
        "midi": 84,
        "time": 221.025,
        "duration": 4.487,
        "velocity": 0.56,
        "hand": "right"
      }
    ]
  },
  "notes1Hand": [
    {
      "midi": 60,
      "time": 0,
      "duration": 1.523,
      "velocity": 0.61,
      "hand": "right"
    },
    {
      "midi": 72,
      "time": 0.641,
      "duration": 0.308,
      "velocity": 0.6,
      "hand": "right"
    },
    {
      "midi": 76,
      "time": 1.41,
      "duration": 0.308,
      "velocity": 0.46,
      "hand": "right"
    },
    {
      "midi": 67,
      "time": 2.051,
      "duration": 0.308,
      "velocity": 0.56,
      "hand": "right"
    },
    {
      "midi": 72,
      "time": 2.82,
      "duration": 0.308,
      "velocity": 0.47,
      "hand": "right"
    },
    {
      "midi": 62,
      "time": 3.461,
      "duration": 1.41,
      "velocity": 0.6,
      "hand": "right"
    },
    {
      "midi": 69,
      "time": 4.23,
      "duration": 0.308,
      "velocity": 0.5,
      "hand": "right"
    },
    {
      "midi": 62,
      "time": 5,
      "duration": 1.41,
      "velocity": 0.6,
      "hand": "right"
    },
    {
      "midi": 77,
      "time": 5.641,
      "duration": 0.308,
      "velocity": 0.65,
      "hand": "right"
    },
    {
      "midi": 59,
      "time": 6.41,
      "duration": 1.523,
      "velocity": 0.65,
      "hand": "right"
    },
    {
      "midi": 77,
      "time": 7.179,
      "duration": 0.308,
      "velocity": 0.65,
      "hand": "right"
    },
    {
      "midi": 59,
      "time": 7.948,
      "duration": 1.538,
      "velocity": 0.65,
      "hand": "right"
    },
    {
      "midi": 74,
      "time": 8.589,
      "duration": 0.308,
      "velocity": 0.6,
      "hand": "right"
    },
    {
      "midi": 77,
      "time": 9.359,
      "duration": 0.308,
      "velocity": 0.5,
      "hand": "right"
    },
    {
      "midi": 72,
      "time": 10.128,
      "duration": 0.308,
      "velocity": 0.54,
      "hand": "right"
    },
    {
      "midi": 72,
      "time": 10.769,
      "duration": 0.308,
      "velocity": 0.46,
      "hand": "right"
    },
    {
      "midi": 67,
      "time": 11.538,
      "duration": 0.308,
      "velocity": 0.54,
      "hand": "right"
    },
    {
      "midi": 72,
      "time": 12.307,
      "duration": 0.308,
      "velocity": 0.47,
      "hand": "right"
    },
    {
      "midi": 64,
      "time": 12.948,
      "duration": 1.41,
      "velocity": 0.61,
      "hand": "right"
    },
    {
      "midi": 69,
      "time": 13.718,
      "duration": 0.308,
      "velocity": 0.54,
      "hand": "right"
    },
    {
      "midi": 64,
      "time": 14.487,
      "duration": 1.41,
      "velocity": 0.61,
      "hand": "right"
    },
    {
      "midi": 81,
      "time": 15.128,
      "duration": 0.308,
      "velocity": 0.68,
      "hand": "right"
    },
    {
      "midi": 60,
      "time": 15.897,
      "duration": 1.524,
      "velocity": 0.61,
      "hand": "right"
    },
    {
      "midi": 74,
      "time": 16.666,
      "duration": 0.308,
      "velocity": 0.62,
      "hand": "right"
    },
    {
      "midi": 60,
      "time": 17.436,
      "duration": 1.538,
      "velocity": 0.61,
      "hand": "right"
    },
    {
      "midi": 69,
      "time": 18.077,
      "duration": 0.308,
      "velocity": 0.6,
      "hand": "right"
    },
    {
      "midi": 74,
      "time": 18.846,
      "duration": 0.308,
      "velocity": 0.47,
      "hand": "right"
    },
    {
      "midi": 74,
      "time": 19.615,
      "duration": 0.308,
      "velocity": 0.62,
      "hand": "right"
    },
    {
      "midi": 74,
      "time": 20.256,
      "duration": 0.308,
      "velocity": 0.5,
      "hand": "right"
    },
    {
      "midi": 67,
      "time": 21.025,
      "duration": 0.308,
      "velocity": 0.57,
      "hand": "right"
    },
    {
      "midi": 74,
      "time": 21.795,
      "duration": 0.308,
      "velocity": 0.5,
      "hand": "right"
    },
    {
      "midi": 60,
      "time": 22.436,
      "duration": 1.41,
      "velocity": 0.57,
      "hand": "right"
    },
    {
      "midi": 64,
      "time": 23.205,
      "duration": 0.308,
      "velocity": 0.5,
      "hand": "right"
    },
    {
      "midi": 60,
      "time": 23.974,
      "duration": 1.41,
      "velocity": 0.57,
      "hand": "right"
    },
    {
      "midi": 72,
      "time": 24.615,
      "duration": 0.308,
      "velocity": 0.61,
      "hand": "right"
    },
    {
      "midi": 57,
      "time": 25.384,
      "duration": 1.524,
      "velocity": 0.61,
      "hand": "right"
    },
    {
      "midi": 72,
      "time": 26.153,
      "duration": 0.308,
      "velocity": 0.62,
      "hand": "right"
    },
    {
      "midi": 72,
      "time": 26.795,
      "duration": 0.308,
      "velocity": 0.46,
      "hand": "right"
    },
    {
      "midi": 67,
      "time": 27.564,
      "duration": 0.308,
      "velocity": 0.6,
      "hand": "right"
    },
    {
      "midi": 72,
      "time": 28.333,
      "duration": 0.308,
      "velocity": 0.47,
      "hand": "right"
    },
    {
      "midi": 62,
      "time": 28.974,
      "duration": 0.308,
      "velocity": 0.56,
      "hand": "right"
    },
    {
      "midi": 62,
      "time": 29.615,
      "duration": 0.308,
      "velocity": 0.5,
      "hand": "right"
    },
    {
      "midi": 57,
      "time": 30.384,
      "duration": 1.41,
      "velocity": 0.57,
      "hand": "right"
    },
    {
      "midi": 72,
      "time": 31.025,
      "duration": 0.308,
      "velocity": 0.61,
      "hand": "right"
    },
    {
      "midi": 55,
      "time": 31.795,
      "duration": 1.523,
      "velocity": 0.57,
      "hand": "right"
    },
    {
      "midi": 67,
      "time": 32.436,
      "duration": 0.308,
      "velocity": 0.56,
      "hand": "right"
    },
    {
      "midi": 71,
      "time": 33.205,
      "duration": 0.308,
      "velocity": 0.44,
      "hand": "right"
    },
    {
      "midi": 67,
      "time": 33.974,
      "duration": 0.308,
      "velocity": 0.56,
      "hand": "right"
    },
    {
      "midi": 71,
      "time": 34.743,
      "duration": 0.308,
      "velocity": 0.44,
      "hand": "right"
    },
    {
      "midi": 64,
      "time": 35.384,
      "duration": 0.308,
      "velocity": 0.53,
      "hand": "right"
    },
    {
      "midi": 67,
      "time": 36.153,
      "duration": 0.308,
      "velocity": 0.44,
      "hand": "right"
    },
    {
      "midi": 64,
      "time": 36.923,
      "duration": 0.308,
      "velocity": 0.53,
      "hand": "right"
    },
    {
      "midi": 64,
      "time": 37.564,
      "duration": 0.308,
      "velocity": 0.46,
      "hand": "right"
    },
    {
      "midi": 57,
      "time": 38.333,
      "duration": 1.41,
      "velocity": 0.57,
      "hand": "right"
    },
    {
      "midi": 74,
      "time": 38.974,
      "duration": 0.308,
      "velocity": 0.62,
      "hand": "right"
    },
    {
      "midi": 65,
      "time": 39.743,
      "duration": 1.524,
      "velocity": 0.61,
      "hand": "right"
    },
    {
      "midi": 74,
      "time": 40.512,
      "duration": 0.308,
      "velocity": 0.61,
      "hand": "right"
    },
    {
      "midi": 74,
      "time": 41.153,
      "duration": 0.308,
      "velocity": 0.47,
      "hand": "right"
    },
    {
      "midi": 65,
      "time": 41.923,
      "duration": 0.308,
      "velocity": 0.56,
      "hand": "right"
    },
    {
      "midi": 71,
      "time": 42.692,
      "duration": 0.308,
      "velocity": 0.44,
      "hand": "right"
    },
    {
      "midi": 62,
      "time": 43.333,
      "duration": 0.308,
      "velocity": 0.53,
      "hand": "right"
    },
    {
      "midi": 65,
      "time": 44.102,
      "duration": 0.308,
      "velocity": 0.44,
      "hand": "right"
    },
    {
      "midi": 60,
      "time": 44.871,
      "duration": 0.308,
      "velocity": 0.53,
      "hand": "right"
    },
    {
      "midi": 60,
      "time": 45.512,
      "duration": 0.308,
      "velocity": 0.46,
      "hand": "right"
    },
    {
      "midi": 55,
      "time": 46.282,
      "duration": 1.41,
      "velocity": 0.54,
      "hand": "right"
    },
    {
      "midi": 60,
      "time": 47.051,
      "duration": 0.308,
      "velocity": 0.46,
      "hand": "right"
    },
    {
      "midi": 64,
      "time": 47.692,
      "duration": 1.523,
      "velocity": 0.54,
      "hand": "right"
    },
    {
      "midi": 65,
      "time": 48.461,
      "duration": 0.308,
      "velocity": 0.56,
      "hand": "right"
    },
    {
      "midi": 64,
      "time": 49.23,
      "duration": 1.667,
      "velocity": 0.54,
      "hand": "right"
    },
    {
      "midi": 60,
      "time": 49.871,
      "duration": 0.308,
      "velocity": 0.53,
      "hand": "right"
    },
    {
      "midi": 65,
      "time": 50.641,
      "duration": 0.308,
      "velocity": 0.43,
      "hand": "right"
    },
    {
      "midi": 57,
      "time": 51.282,
      "duration": 0.308,
      "velocity": 0.5,
      "hand": "right"
    },
    {
      "midi": 60,
      "time": 52.051,
      "duration": 0.308,
      "velocity": 0.42,
      "hand": "right"
    },
    {
      "midi": 65,
      "time": 52.692,
      "duration": 1.41,
      "velocity": 0.5,
      "hand": "right"
    },
    {
      "midi": 57,
      "time": 53.461,
      "duration": 0.308,
      "velocity": 0.44,
      "hand": "right"
    },
    {
      "midi": 55,
      "time": 54.102,
      "duration": 1.524,
      "velocity": 0.54,
      "hand": "right"
    },
    {
      "midi": 65,
      "time": 54.871,
      "duration": 0.308,
      "velocity": 0.56,
      "hand": "right"
    },
    {
      "midi": 65,
      "time": 55.512,
      "duration": 0.308,
      "velocity": 0.42,
      "hand": "right"
    },
    {
      "midi": 59,
      "time": 56.282,
      "duration": 0.308,
      "velocity": 0.53,
      "hand": "right"
    },
    {
      "midi": 59,
      "time": 56.923,
      "duration": 0.308,
      "velocity": 0.43,
      "hand": "right"
    },
    {
      "midi": 55,
      "time": 57.692,
      "duration": 0.308,
      "velocity": 0.5,
      "hand": "right"
    },
    {
      "midi": 55,
      "time": 58.333,
      "duration": 0.308,
      "velocity": 0.44,
      "hand": "right"
    },
    {
      "midi": 60,
      "time": 58.974,
      "duration": 1.523,
      "velocity": 0.54,
      "hand": "right"
    },
    {
      "midi": 64,
      "time": 59.743,
      "duration": 0.308,
      "velocity": 0.54,
      "hand": "right"
    },
    {
      "midi": 64,
      "time": 60.384,
      "duration": 0.308,
      "velocity": 0.43,
      "hand": "right"
    },
    {
      "midi": 60,
      "time": 61.153,
      "duration": 0.308,
      "velocity": 0.5,
      "hand": "right"
    },
    {
      "midi": 64,
      "time": 61.923,
      "duration": 0.308,
      "velocity": 0.39,
      "hand": "right"
    },
    {
      "midi": 58,
      "time": 62.564,
      "duration": 0.308,
      "velocity": 0.46,
      "hand": "right"
    },
    {
      "midi": 60,
      "time": 63.333,
      "duration": 0.308,
      "velocity": 0.39,
      "hand": "right"
    },
    {
      "midi": 65,
      "time": 63.974,
      "duration": 1.395,
      "velocity": 0.47,
      "hand": "right"
    },
    {
      "midi": 57,
      "time": 64.743,
      "duration": 0.308,
      "velocity": 0.4,
      "hand": "right"
    },
    {
      "midi": 65,
      "time": 65.384,
      "duration": 1.667,
      "velocity": 0.51,
      "hand": "right"
    },
    {
      "midi": 64,
      "time": 66.153,
      "duration": 0.308,
      "velocity": 0.51,
      "hand": "right"
    },
    {
      "midi": 66,
      "time": 66.923,
      "duration": 1.651,
      "velocity": 0.54,
      "hand": "right"
    },
    {
      "midi": 60,
      "time": 67.564,
      "duration": 0.308,
      "velocity": 0.53,
      "hand": "right"
    },
    {
      "midi": 60,
      "time": 68.205,
      "duration": 0.308,
      "velocity": 0.42,
      "hand": "right"
    },
    {
      "midi": 57,
      "time": 68.974,
      "duration": 0.308,
      "velocity": 0.5,
      "hand": "right"
    },
    {
      "midi": 57,
      "time": 69.615,
      "duration": 0.308,
      "velocity": 0.44,
      "hand": "right"
    },
    {
      "midi": 56,
      "time": 70.256,
      "duration": 1.524,
      "velocity": 0.5,
      "hand": "right"
    },
    {
      "midi": 62,
      "time": 71.025,
      "duration": 0.308,
      "velocity": 0.53,
      "hand": "right"
    },
    {
      "midi": 56,
      "time": 71.795,
      "duration": 1.538,
      "velocity": 0.51,
      "hand": "right"
    },
    {
      "midi": 62,
      "time": 72.564,
      "duration": 0.308,
      "velocity": 0.51,
      "hand": "right"
    },
    {
      "midi": 62,
      "time": 73.205,
      "duration": 0.308,
      "velocity": 0.39,
      "hand": "right"
    },
    {
      "midi": 59,
      "time": 73.974,
      "duration": 0.308,
      "velocity": 0.53,
      "hand": "right"
    },
    {
      "midi": 59,
      "time": 74.615,
      "duration": 0.308,
      "velocity": 0.42,
      "hand": "right"
    },
    {
      "midi": 55,
      "time": 75.384,
      "duration": 0.308,
      "velocity": 0.5,
      "hand": "right"
    },
    {
      "midi": 59,
      "time": 76.153,
      "duration": 0.308,
      "velocity": 0.43,
      "hand": "right"
    },
    {
      "midi": 64,
      "time": 76.795,
      "duration": 1.41,
      "velocity": 0.5,
      "hand": "right"
    },
    {
      "midi": 55,
      "time": 77.564,
      "duration": 0.308,
      "velocity": 0.44,
      "hand": "right"
    },
    {
      "midi": 55,
      "time": 78.205,
      "duration": 1.523,
      "velocity": 0.54,
      "hand": "right"
    },
    {
      "midi": 64,
      "time": 78.974,
      "duration": 0.308,
      "velocity": 0.54,
      "hand": "right"
    },
    {
      "midi": 55,
      "time": 79.743,
      "duration": 1.524,
      "velocity": 0.57,
      "hand": "right"
    },
    {
      "midi": 60,
      "time": 80.384,
      "duration": 0.308,
      "velocity": 0.56,
      "hand": "right"
    },
    {
      "midi": 65,
      "time": 81.153,
      "duration": 0.308,
      "velocity": 0.44,
      "hand": "right"
    },
    {
      "midi": 60,
      "time": 81.923,
      "duration": 0.308,
      "velocity": 0.56,
      "hand": "right"
    },
    {
      "midi": 65,
      "time": 82.692,
      "duration": 0.308,
      "velocity": 0.44,
      "hand": "right"
    },
    {
      "midi": 55,
      "time": 83.333,
      "duration": 0.308,
      "velocity": 0.53,
      "hand": "right"
    },
    {
      "midi": 59,
      "time": 84.102,
      "duration": 0.308,
      "velocity": 0.44,
      "hand": "right"
    },
    {
      "midi": 55,
      "time": 84.871,
      "duration": 0.308,
      "velocity": 0.53,
      "hand": "right"
    },
    {
      "midi": 55,
      "time": 85.512,
      "duration": 0.308,
      "velocity": 0.46,
      "hand": "right"
    },
    {
      "midi": 63,
      "time": 86.282,
      "duration": 1.41,
      "velocity": 0.57,
      "hand": "right"
    },
    {
      "midi": 57,
      "time": 87.051,
      "duration": 0.308,
      "velocity": 0.5,
      "hand": "right"
    },
    {
      "midi": 55,
      "time": 87.692,
      "duration": 1.523,
      "velocity": 0.61,
      "hand": "right"
    },
    {
      "midi": 66,
      "time": 88.461,
      "duration": 0.308,
      "velocity": 0.61,
      "hand": "right"
    },
    {
      "midi": 66,
      "time": 89.102,
      "duration": 0.308,
      "velocity": 0.47,
      "hand": "right"
    },
    {
      "midi": 55,
      "time": 89.743,
      "duration": 0.308,
      "velocity": 0.57,
      "hand": "right"
    },
    {
      "midi": 55,
      "time": 90.384,
      "duration": 0.308,
      "velocity": 0.5,
      "hand": "right"
    },
    {
      "midi": 64,
      "time": 91.153,
      "duration": 1.41,
      "velocity": 0.6,
      "hand": "right"
    },
    {
      "midi": 67,
      "time": 91.795,
      "duration": 0.308,
      "velocity": 0.65,
      "hand": "right"
    },
    {
      "midi": 55,
      "time": 92.564,
      "duration": 1.523,
      "velocity": 0.54,
      "hand": "right"
    },
    {
      "midi": 60,
      "time": 93.205,
      "duration": 0.308,
      "velocity": 0.53,
      "hand": "right"
    },
    {
      "midi": 65,
      "time": 93.974,
      "duration": 0.308,
      "velocity": 0.42,
      "hand": "right"
    },
    {
      "midi": 55,
      "time": 94.615,
      "duration": 0.308,
      "velocity": 0.5,
      "hand": "right"
    },
    {
      "midi": 60,
      "time": 95.384,
      "duration": 0.308,
      "velocity": 0.43,
      "hand": "right"
    },
    {
      "midi": 55,
      "time": 96.153,
      "duration": 0.308,
      "velocity": 0.5,
      "hand": "right"
    },
    {
      "midi": 55,
      "time": 96.795,
      "duration": 0.308,
      "velocity": 0.44,
      "hand": "right"
    },
    {
      "midi": 62,
      "time": 97.564,
      "duration": 1.41,
      "velocity": 0.5,
      "hand": "right"
    },
    {
      "midi": 65,
      "time": 98.205,
      "duration": 0.308,
      "velocity": 0.54,
      "hand": "right"
    },
    {
      "midi": 60,
      "time": 98.974,
      "duration": 1.652,
      "velocity": 0.57,
      "hand": "right"
    },
    {
      "midi": 58,
      "time": 99.615,
      "duration": 0.308,
      "velocity": 0.56,
      "hand": "right"
    },
    {
      "midi": 58,
      "time": 100.256,
      "duration": 0.308,
      "velocity": 0.44,
      "hand": "right"
    },
    {
      "midi": 55,
      "time": 101.025,
      "duration": 0.308,
      "velocity": 0.53,
      "hand": "right"
    },
    {
      "midi": 55,
      "time": 101.666,
      "duration": 0.308,
      "velocity": 0.46,
      "hand": "right"
    },
    {
      "midi": 60,
      "time": 102.436,
      "duration": 0.626,
      "velocity": 0.5,
      "hand": "right"
    },
    {
      "midi": 60,
      "time": 103.077,
      "duration": 0.308,
      "velocity": 0.54,
      "hand": "right"
    },
    {
      "midi": 57,
      "time": 103.718,
      "duration": 0.308,
      "velocity": 0.53,
      "hand": "right"
    },
    {
      "midi": 57,
      "time": 104.487,
      "duration": 0.308,
      "velocity": 0.46,
      "hand": "right"
    },
    {
      "midi": 65,
      "time": 105.128,
      "duration": 0.308,
      "velocity": 0.43,
      "hand": "right"
    },
    {
      "midi": 62,
      "time": 105.769,
      "duration": 2.4,
      "velocity": 0.5,
      "hand": "right"
    },
    {
      "midi": 74,
      "time": 106.41,
      "duration": 0.308,
      "velocity": 0.54,
      "hand": "right"
    },
    {
      "midi": 71,
      "time": 107.051,
      "duration": 0.308,
      "velocity": 0.53,
      "hand": "right"
    },
    {
      "midi": 67,
      "time": 107.692,
      "duration": 0.308,
      "velocity": 0.56,
      "hand": "right"
    },
    {
      "midi": 65,
      "time": 108.461,
      "duration": 0.308,
      "velocity": 0.5,
      "hand": "right"
    },
    {
      "midi": 62,
      "time": 109.102,
      "duration": 0.513,
      "velocity": 0.5,
      "hand": "right"
    },
    {
      "midi": 60,
      "time": 117.692,
      "duration": 0.513,
      "velocity": 0.53,
      "hand": "right"
    },
    {
      "midi": 64,
      "time": 118.718,
      "duration": 0.513,
      "velocity": 0.56,
      "hand": "right"
    },
    {
      "midi": 67,
      "time": 119.871,
      "duration": 0.308,
      "velocity": 0.57,
      "hand": "right"
    },
    {
      "midi": 69,
      "time": 120.512,
      "duration": 0.513,
      "velocity": 0.6,
      "hand": "right"
    },
    {
      "midi": 67,
      "time": 121.538,
      "duration": 0.769,
      "velocity": 0.6,
      "hand": "right"
    },
    {
      "midi": 69,
      "time": 122.307,
      "duration": 0.308,
      "velocity": 0.58,
      "hand": "right"
    },
    {
      "midi": 64,
      "time": 122.948,
      "duration": 0.308,
      "velocity": 0.57,
      "hand": "right"
    },
    {
      "midi": 62,
      "time": 123.718,
      "duration": 0.308,
      "velocity": 0.57,
      "hand": "right"
    },
    {
      "midi": 71,
      "time": 124.359,
      "duration": 0.513,
      "velocity": 0.54,
      "hand": "right"
    },
    {
      "midi": 66,
      "time": 125.384,
      "duration": 0.513,
      "velocity": 0.56,
      "hand": "right"
    },
    {
      "midi": 76,
      "time": 126.282,
      "duration": 0.513,
      "velocity": 0.6,
      "hand": "right"
    },
    {
      "midi": 74,
      "time": 127.179,
      "duration": 0.641,
      "velocity": 0.6,
      "hand": "right"
    },
    {
      "midi": 76,
      "time": 127.948,
      "duration": 0.308,
      "velocity": 0.57,
      "hand": "right"
    },
    {
      "midi": 71,
      "time": 128.589,
      "duration": 0.308,
      "velocity": 0.54,
      "hand": "right"
    },
    {
      "midi": 71,
      "time": 129.359,
      "duration": 0.308,
      "velocity": 0.57,
      "hand": "right"
    },
    {
      "midi": 72,
      "time": 130,
      "duration": 0.308,
      "velocity": 0.54,
      "hand": "right"
    },
    {
      "midi": 74,
      "time": 130.769,
      "duration": 0.308,
      "velocity": 0.57,
      "hand": "right"
    },
    {
      "midi": 79,
      "time": 131.41,
      "duration": 0.513,
      "velocity": 0.6,
      "hand": "right"
    },
    {
      "midi": 72,
      "time": 132.436,
      "duration": 0.385,
      "velocity": 0.6,
      "hand": "right"
    },
    {
      "midi": 64,
      "time": 133.077,
      "duration": 0.308,
      "velocity": 0.57,
      "hand": "right"
    },
    {
      "midi": 71,
      "time": 133.846,
      "duration": 0.308,
      "velocity": 0.56,
      "hand": "right"
    },
    {
      "midi": 65,
      "time": 134.487,
      "duration": 0.308,
      "velocity": 0.57,
      "hand": "right"
    },
    {
      "midi": 65,
      "time": 135.256,
      "duration": 0.308,
      "velocity": 0.54,
      "hand": "right"
    },
    {
      "midi": 67,
      "time": 135.897,
      "duration": 0.308,
      "velocity": 0.54,
      "hand": "right"
    },
    {
      "midi": 69,
      "time": 136.666,
      "duration": 0.308,
      "velocity": 0.54,
      "hand": "right"
    },
    {
      "midi": 67,
      "time": 137.307,
      "duration": 0.308,
      "velocity": 0.57,
      "hand": "right"
    },
    {
      "midi": 65,
      "time": 138.077,
      "duration": 0.385,
      "velocity": 0.57,
      "hand": "right"
    },
    {
      "midi": 60,
      "time": 138.718,
      "duration": 0.308,
      "velocity": 0.57,
      "hand": "right"
    },
    {
      "midi": 55,
      "time": 139.487,
      "duration": 0.308,
      "velocity": 0.57,
      "hand": "right"
    },
    {
      "midi": 65,
      "time": 140.128,
      "duration": 0.308,
      "velocity": 0.57,
      "hand": "right"
    },
    {
      "midi": 74,
      "time": 140.897,
      "duration": 0.513,
      "velocity": 0.62,
      "hand": "right"
    },
    {
      "midi": 59,
      "time": 141.538,
      "duration": 0.308,
      "velocity": 0.54,
      "hand": "right"
    },
    {
      "midi": 59,
      "time": 142.307,
      "duration": 0.513,
      "velocity": 0.54,
      "hand": "right"
    },
    {
      "midi": 81,
      "time": 143.205,
      "duration": 0.513,
      "velocity": 0.69,
      "hand": "right"
    },
    {
      "midi": 57,
      "time": 143.974,
      "duration": 0.308,
      "velocity": 0.57,
      "hand": "right"
    },
    {
      "midi": 57,
      "time": 144.615,
      "duration": 0.385,
      "velocity": 0.56,
      "hand": "right"
    },
    {
      "midi": 77,
      "time": 145.384,
      "duration": 0.308,
      "velocity": 0.64,
      "hand": "right"
    },
    {
      "midi": 81,
      "time": 146.025,
      "duration": 0.769,
      "velocity": 0.69,
      "hand": "right"
    },
    {
      "midi": 83,
      "time": 146.795,
      "duration": 0.308,
      "velocity": 0.68,
      "hand": "right"
    },
    {
      "midi": 77,
      "time": 147.436,
      "duration": 1.923,
      "velocity": 0.65,
      "hand": "right"
    },
    {
      "midi": 62,
      "time": 148.205,
      "duration": 0.308,
      "velocity": 0.58,
      "hand": "right"
    },
    {
      "midi": 71,
      "time": 148.846,
      "duration": 0.513,
      "velocity": 0.56,
      "hand": "right"
    },
    {
      "midi": 59,
      "time": 149.615,
      "duration": 0.308,
      "velocity": 0.57,
      "hand": "right"
    },
    {
      "midi": 79,
      "time": 150.256,
      "duration": 1.923,
      "velocity": 0.62,
      "hand": "right"
    },
    {
      "midi": 59,
      "time": 151.025,
      "duration": 0.308,
      "velocity": 0.57,
      "hand": "right"
    },
    {
      "midi": 74,
      "time": 151.795,
      "duration": 0.641,
      "velocity": 0.6,
      "hand": "right"
    },
    {
      "midi": 76,
      "time": 152.436,
      "duration": 0.308,
      "velocity": 0.57,
      "hand": "right"
    },
    {
      "midi": 79,
      "time": 153.077,
      "duration": 0.308,
      "velocity": 0.6,
      "hand": "right"
    },
    {
      "midi": 74,
      "time": 153.846,
      "duration": 0.308,
      "velocity": 0.57,
      "hand": "right"
    },
    {
      "midi": 72,
      "time": 154.487,
      "duration": 0.308,
      "velocity": 0.57,
      "hand": "right"
    },
    {
      "midi": 72,
      "time": 155.256,
      "duration": 0.308,
      "velocity": 0.57,
      "hand": "right"
    },
    {
      "midi": 67,
      "time": 155.897,
      "duration": 0.641,
      "velocity": 0.6,
      "hand": "right"
    },
    {
      "midi": 69,
      "time": 156.666,
      "duration": 0.308,
      "velocity": 0.57,
      "hand": "right"
    },
    {
      "midi": 71,
      "time": 157.307,
      "duration": 0.513,
      "velocity": 0.6,
      "hand": "right"
    },
    {
      "midi": 64,
      "time": 158.077,
      "duration": 0.308,
      "velocity": 0.6,
      "hand": "right"
    },
    {
      "midi": 74,
      "time": 158.718,
      "duration": 0.513,
      "velocity": 0.57,
      "hand": "right"
    },
    {
      "midi": 71,
      "time": 159.487,
      "duration": 0.308,
      "velocity": 0.56,
      "hand": "right"
    },
    {
      "midi": 69,
      "time": 160.128,
      "duration": 0.308,
      "velocity": 0.54,
      "hand": "right"
    },
    {
      "midi": 66,
      "time": 160.897,
      "duration": 0.308,
      "velocity": 0.54,
      "hand": "right"
    },
    {
      "midi": 71,
      "time": 161.538,
      "duration": 0.513,
      "velocity": 0.57,
      "hand": "right"
    },
    {
      "midi": 71,
      "time": 162.307,
      "duration": 0.308,
      "velocity": 0.56,
      "hand": "right"
    },
    {
      "midi": 77,
      "time": 162.948,
      "duration": 0.513,
      "velocity": 0.64,
      "hand": "right"
    },
    {
      "midi": 66,
      "time": 163.718,
      "duration": 0.308,
      "velocity": 0.54,
      "hand": "right"
    },
    {
      "midi": 71,
      "time": 164.359,
      "duration": 0.513,
      "velocity": 0.58,
      "hand": "right"
    },
    {
      "midi": 71,
      "time": 165.128,
      "duration": 0.308,
      "velocity": 0.57,
      "hand": "right"
    },
    {
      "midi": 56,
      "time": 165.897,
      "duration": 0.513,
      "velocity": 0.57,
      "hand": "right"
    },
    {
      "midi": 60,
      "time": 166.923,
      "duration": 0.513,
      "velocity": 0.53,
      "hand": "right"
    },
    {
      "midi": 64,
      "time": 167.82,
      "duration": 0.513,
      "velocity": 0.54,
      "hand": "right"
    },
    {
      "midi": 59,
      "time": 168.846,
      "duration": 0.513,
      "velocity": 0.56,
      "hand": "right"
    },
    {
      "midi": 69,
      "time": 169.743,
      "duration": 0.513,
      "velocity": 0.6,
      "hand": "right"
    },
    {
      "midi": 67,
      "time": 170.769,
      "duration": 0.769,
      "velocity": 0.6,
      "hand": "right"
    },
    {
      "midi": 69,
      "time": 171.41,
      "duration": 0.308,
      "velocity": 0.57,
      "hand": "right"
    },
    {
      "midi": 64,
      "time": 172.179,
      "duration": 0.385,
      "velocity": 0.57,
      "hand": "right"
    },
    {
      "midi": 62,
      "time": 172.82,
      "duration": 0.308,
      "velocity": 0.57,
      "hand": "right"
    },
    {
      "midi": 71,
      "time": 173.589,
      "duration": 0.513,
      "velocity": 0.54,
      "hand": "right"
    },
    {
      "midi": 66,
      "time": 174.615,
      "duration": 0.513,
      "velocity": 0.57,
      "hand": "right"
    },
    {
      "midi": 64,
      "time": 175.256,
      "duration": 0.308,
      "velocity": 0.61,
      "hand": "right"
    },
    {
      "midi": 74,
      "time": 176.025,
      "duration": 0.513,
      "velocity": 0.56,
      "hand": "right"
    },
    {
      "midi": 77,
      "time": 176.923,
      "duration": 0.769,
      "velocity": 0.64,
      "hand": "right"
    },
    {
      "midi": 79,
      "time": 177.692,
      "duration": 0.308,
      "velocity": 0.6,
      "hand": "right"
    },
    {
      "midi": 81,
      "time": 178.333,
      "duration": 0.513,
      "velocity": 0.68,
      "hand": "right"
    },
    {
      "midi": 79,
      "time": 179.359,
      "duration": 0.769,
      "velocity": 0.65,
      "hand": "right"
    },
    {
      "midi": 81,
      "time": 180,
      "duration": 0.308,
      "velocity": 0.65,
      "hand": "right"
    },
    {
      "midi": 62,
      "time": 180.641,
      "duration": 0.308,
      "velocity": 0.57,
      "hand": "right"
    },
    {
      "midi": 81,
      "time": 181.282,
      "duration": 0.513,
      "velocity": 0.67,
      "hand": "right"
    },
    {
      "midi": 82,
      "time": 182.179,
      "duration": 0.513,
      "velocity": 0.67,
      "hand": "right"
    },
    {
      "midi": 65,
      "time": 182.948,
      "duration": 0.308,
      "velocity": 0.61,
      "hand": "right"
    },
    {
      "midi": 79,
      "time": 183.589,
      "duration": 0.308,
      "velocity": 0.64,
      "hand": "right"
    },
    {
      "midi": 76,
      "time": 184.359,
      "duration": 0.308,
      "velocity": 0.6,
      "hand": "right"
    },
    {
      "midi": 79,
      "time": 185,
      "duration": 0.308,
      "velocity": 0.64,
      "hand": "right"
    },
    {
      "midi": 73,
      "time": 185.769,
      "duration": 0.308,
      "velocity": 0.6,
      "hand": "right"
    },
    {
      "midi": 77,
      "time": 186.538,
      "duration": 0.308,
      "velocity": 0.54,
      "hand": "right"
    },
    {
      "midi": 74,
      "time": 187.307,
      "duration": 0.308,
      "velocity": 0.6,
      "hand": "right"
    },
    {
      "midi": 67,
      "time": 187.948,
      "duration": 0.513,
      "velocity": 0.54,
      "hand": "right"
    },
    {
      "midi": 66,
      "time": 188.974,
      "duration": 0.513,
      "velocity": 0.6,
      "hand": "right"
    },
    {
      "midi": 64,
      "time": 189.743,
      "duration": 0.308,
      "velocity": 0.57,
      "hand": "right"
    },
    {
      "midi": 66,
      "time": 190.384,
      "duration": 0.308,
      "velocity": 0.54,
      "hand": "right"
    },
    {
      "midi": 62,
      "time": 191.153,
      "duration": 0.308,
      "velocity": 0.61,
      "hand": "right"
    },
    {
      "midi": 71,
      "time": 191.923,
      "duration": 0.308,
      "velocity": 0.57,
      "hand": "right"
    },
    {
      "midi": 66,
      "time": 192.564,
      "duration": 0.308,
      "velocity": 0.54,
      "hand": "right"
    },
    {
      "midi": 69,
      "time": 193.333,
      "duration": 0.513,
      "velocity": 0.53,
      "hand": "right"
    },
    {
      "midi": 59,
      "time": 193.974,
      "duration": 0.308,
      "velocity": 0.57,
      "hand": "right"
    },
    {
      "midi": 57,
      "time": 194.743,
      "duration": 0.308,
      "velocity": 0.57,
      "hand": "right"
    },
    {
      "midi": 69,
      "time": 195.512,
      "duration": 0.308,
      "velocity": 0.57,
      "hand": "right"
    },
    {
      "midi": 69,
      "time": 196.153,
      "duration": 0.385,
      "velocity": 0.57,
      "hand": "right"
    },
    {
      "midi": 69,
      "time": 196.923,
      "duration": 0.308,
      "velocity": 0.56,
      "hand": "right"
    },
    {
      "midi": 74,
      "time": 197.692,
      "duration": 0.308,
      "velocity": 0.57,
      "hand": "right"
    },
    {
      "midi": 72,
      "time": 198.333,
      "duration": 0.308,
      "velocity": 0.54,
      "hand": "right"
    },
    {
      "midi": 77,
      "time": 199.102,
      "duration": 0.308,
      "velocity": 0.61,
      "hand": "right"
    },
    {
      "midi": 79,
      "time": 199.871,
      "duration": 0.308,
      "velocity": 0.6,
      "hand": "right"
    },
    {
      "midi": 74,
      "time": 200.512,
      "duration": 0.308,
      "velocity": 0.58,
      "hand": "right"
    },
    {
      "midi": 57,
      "time": 201.282,
      "duration": 0.308,
      "velocity": 0.6,
      "hand": "right"
    },
    {
      "midi": 72,
      "time": 202.051,
      "duration": 0.513,
      "velocity": 0.57,
      "hand": "right"
    },
    {
      "midi": 59,
      "time": 202.692,
      "duration": 0.308,
      "velocity": 0.54,
      "hand": "right"
    },
    {
      "midi": 72,
      "time": 203.461,
      "duration": 1.154,
      "velocity": 0.6,
      "hand": "right"
    },
    {
      "midi": 62,
      "time": 204.102,
      "duration": 1.154,
      "velocity": 0.57,
      "hand": "right"
    },
    {
      "midi": 72,
      "time": 205.128,
      "duration": 1.026,
      "velocity": 0.6,
      "hand": "right"
    },
    {
      "midi": 71,
      "time": 206.153,
      "duration": 0.513,
      "velocity": 0.67,
      "hand": "right"
    },
    {
      "midi": 70,
      "time": 206.795,
      "duration": 0.513,
      "velocity": 0.67,
      "hand": "right"
    },
    {
      "midi": 74,
      "time": 207.82,
      "duration": 1.026,
      "velocity": 0.72,
      "hand": "right"
    },
    {
      "midi": 72,
      "time": 208.846,
      "duration": 0.513,
      "velocity": 0.67,
      "hand": "right"
    },
    {
      "midi": 76,
      "time": 209.871,
      "duration": 0.513,
      "velocity": 0.69,
      "hand": "right"
    },
    {
      "midi": 57,
      "time": 210.641,
      "duration": 0.308,
      "velocity": 0.57,
      "hand": "right"
    },
    {
      "midi": 65,
      "time": 211.282,
      "duration": 0.308,
      "velocity": 0.57,
      "hand": "right"
    },
    {
      "midi": 79,
      "time": 212.051,
      "duration": 0.308,
      "velocity": 0.69,
      "hand": "right"
    },
    {
      "midi": 77,
      "time": 212.82,
      "duration": 0.308,
      "velocity": 0.69,
      "hand": "right"
    },
    {
      "midi": 72,
      "time": 213.718,
      "duration": 2.179,
      "velocity": 0.69,
      "hand": "right"
    },
    {
      "midi": 67,
      "time": 214.487,
      "duration": 0.308,
      "velocity": 0.6,
      "hand": "right"
    },
    {
      "midi": 65,
      "time": 215.256,
      "duration": 0.308,
      "velocity": 0.58,
      "hand": "right"
    },
    {
      "midi": 62,
      "time": 215.897,
      "duration": 2.051,
      "velocity": 0.58,
      "hand": "right"
    },
    {
      "midi": 72,
      "time": 216.795,
      "duration": 0.308,
      "velocity": 0.58,
      "hand": "right"
    },
    {
      "midi": 77,
      "time": 217.564,
      "duration": 0.769,
      "velocity": 0.62,
      "hand": "right"
    },
    {
      "midi": 69,
      "time": 218.205,
      "duration": 1.154,
      "velocity": 0.6,
      "hand": "right"
    },
    {
      "midi": 79,
      "time": 218.974,
      "duration": 0.308,
      "velocity": 0.61,
      "hand": "right"
    },
    {
      "midi": 77,
      "time": 219.615,
      "duration": 0.385,
      "velocity": 0.57,
      "hand": "right"
    },
    {
      "midi": 83,
      "time": 220.384,
      "duration": 0.513,
      "velocity": 0.64,
      "hand": "right"
    },
    {
      "midi": 84,
      "time": 221.025,
      "duration": 2.4,
      "velocity": 0.56,
      "hand": "right"
    }
  ],
  "notes2Hands": [
    {
      "midi": 60,
      "time": 0,
      "duration": 1.523,
      "velocity": 0.61,
      "hand": "right"
    },
    {
      "midi": 64,
      "time": 0.128,
      "duration": 1.41,
      "velocity": 0.57,
      "hand": "right"
    },
    {
      "midi": 67,
      "time": 0.384,
      "duration": 0.256,
      "velocity": 0.56,
      "hand": "right"
    },
    {
      "midi": 72,
      "time": 0.641,
      "duration": 0.256,
      "velocity": 0.6,
      "hand": "right"
    },
    {
      "midi": 76,
      "time": 0.769,
      "duration": 0.128,
      "velocity": 0.62,
      "hand": "right"
    },
    {
      "midi": 67,
      "time": 1.025,
      "duration": 0.256,
      "velocity": 0.5,
      "hand": "right"
    },
    {
      "midi": 72,
      "time": 1.153,
      "duration": 0.256,
      "velocity": 0.46,
      "hand": "right"
    },
    {
      "midi": 76,
      "time": 1.41,
      "duration": 0.256,
      "velocity": 0.46,
      "hand": "right"
    },
    {
      "midi": 60,
      "time": 1.538,
      "duration": 1.652,
      "velocity": 0.61,
      "hand": "right"
    },
    {
      "midi": 64,
      "time": 1.795,
      "duration": 1.41,
      "velocity": 0.57,
      "hand": "right"
    },
    {
      "midi": 67,
      "time": 2.051,
      "duration": 0.256,
      "velocity": 0.56,
      "hand": "right"
    },
    {
      "midi": 72,
      "time": 2.179,
      "duration": 0.256,
      "velocity": 0.6,
      "hand": "right"
    },
    {
      "midi": 76,
      "time": 2.436,
      "duration": 0.128,
      "velocity": 0.61,
      "hand": "right"
    },
    {
      "midi": 67,
      "time": 2.564,
      "duration": 0.256,
      "velocity": 0.5,
      "hand": "right"
    },
    {
      "midi": 72,
      "time": 2.82,
      "duration": 0.256,
      "velocity": 0.47,
      "hand": "right"
    },
    {
      "midi": 76,
      "time": 2.948,
      "duration": 0.256,
      "velocity": 0.47,
      "hand": "right"
    },
    {
      "midi": 60,
      "time": 3.205,
      "duration": 1.523,
      "velocity": 0.65,
      "hand": "right"
    },
    {
      "midi": 62,
      "time": 3.461,
      "duration": 1.41,
      "velocity": 0.6,
      "hand": "right"
    },
    {
      "midi": 69,
      "time": 3.589,
      "duration": 0.256,
      "velocity": 0.56,
      "hand": "right"
    },
    {
      "midi": 74,
      "time": 3.846,
      "duration": 0.256,
      "velocity": 0.6,
      "hand": "right"
    },
    {
      "midi": 77,
      "time": 3.974,
      "duration": 0.128,
      "velocity": 0.65,
      "hand": "right"
    },
    {
      "midi": 69,
      "time": 4.23,
      "duration": 0.256,
      "velocity": 0.5,
      "hand": "right"
    },
    {
      "midi": 74,
      "time": 4.359,
      "duration": 0.256,
      "velocity": 0.5,
      "hand": "right"
    },
    {
      "midi": 77,
      "time": 4.615,
      "duration": 0.256,
      "velocity": 0.5,
      "hand": "right"
    },
    {
      "midi": 60,
      "time": 4.743,
      "duration": 1.538,
      "velocity": 0.65,
      "hand": "right"
    },
    {
      "midi": 62,
      "time": 5,
      "duration": 1.41,
      "velocity": 0.6,
      "hand": "right"
    },
    {
      "midi": 69,
      "time": 5.256,
      "duration": 0.256,
      "velocity": 0.57,
      "hand": "right"
    },
    {
      "midi": 74,
      "time": 5.384,
      "duration": 0.256,
      "velocity": 0.6,
      "hand": "right"
    },
    {
      "midi": 77,
      "time": 5.641,
      "duration": 0.128,
      "velocity": 0.65,
      "hand": "right"
    },
    {
      "midi": 69,
      "time": 5.769,
      "duration": 0.256,
      "velocity": 0.51,
      "hand": "right"
    },
    {
      "midi": 74,
      "time": 6.025,
      "duration": 0.256,
      "velocity": 0.5,
      "hand": "right"
    },
    {
      "midi": 77,
      "time": 6.153,
      "duration": 0.256,
      "velocity": 0.5,
      "hand": "right"
    },
    {
      "midi": 59,
      "time": 6.41,
      "duration": 1.523,
      "velocity": 0.65,
      "hand": "left"
    },
    {
      "midi": 62,
      "time": 6.538,
      "duration": 1.41,
      "velocity": 0.6,
      "hand": "right"
    },
    {
      "midi": 67,
      "time": 6.795,
      "duration": 0.256,
      "velocity": 0.56,
      "hand": "right"
    },
    {
      "midi": 74,
      "time": 6.923,
      "duration": 0.256,
      "velocity": 0.6,
      "hand": "right"
    },
    {
      "midi": 77,
      "time": 7.179,
      "duration": 0.128,
      "velocity": 0.65,
      "hand": "right"
    },
    {
      "midi": 67,
      "time": 7.307,
      "duration": 0.256,
      "velocity": 0.5,
      "hand": "right"
    },
    {
      "midi": 74,
      "time": 7.564,
      "duration": 0.256,
      "velocity": 0.5,
      "hand": "right"
    },
    {
      "midi": 77,
      "time": 7.692,
      "duration": 0.256,
      "velocity": 0.5,
      "hand": "right"
    },
    {
      "midi": 59,
      "time": 7.948,
      "duration": 1.538,
      "velocity": 0.65,
      "hand": "left"
    },
    {
      "midi": 62,
      "time": 8.205,
      "duration": 1.41,
      "velocity": 0.6,
      "hand": "right"
    },
    {
      "midi": 67,
      "time": 8.333,
      "duration": 0.256,
      "velocity": 0.56,
      "hand": "right"
    },
    {
      "midi": 74,
      "time": 8.589,
      "duration": 0.256,
      "velocity": 0.6,
      "hand": "right"
    },
    {
      "midi": 77,
      "time": 8.718,
      "duration": 0.128,
      "velocity": 0.65,
      "hand": "right"
    },
    {
      "midi": 67,
      "time": 8.974,
      "duration": 0.256,
      "velocity": 0.51,
      "hand": "right"
    },
    {
      "midi": 74,
      "time": 9.102,
      "duration": 0.256,
      "velocity": 0.5,
      "hand": "right"
    },
    {
      "midi": 77,
      "time": 9.359,
      "duration": 0.256,
      "velocity": 0.5,
      "hand": "right"
    },
    {
      "midi": 60,
      "time": 9.487,
      "duration": 1.538,
      "velocity": 0.61,
      "hand": "right"
    },
    {
      "midi": 64,
      "time": 9.743,
      "duration": 1.41,
      "velocity": 0.57,
      "hand": "right"
    },
    {
      "midi": 67,
      "time": 9.871,
      "duration": 0.256,
      "velocity": 0.53,
      "hand": "right"
    },
    {
      "midi": 72,
      "time": 10.128,
      "duration": 0.256,
      "velocity": 0.54,
      "hand": "right"
    },
    {
      "midi": 76,
      "time": 10.384,
      "duration": 0.128,
      "velocity": 0.6,
      "hand": "right"
    },
    {
      "midi": 67,
      "time": 10.512,
      "duration": 0.256,
      "velocity": 0.5,
      "hand": "right"
    },
    {
      "midi": 72,
      "time": 10.769,
      "duration": 0.256,
      "velocity": 0.46,
      "hand": "right"
    },
    {
      "midi": 76,
      "time": 10.897,
      "duration": 0.256,
      "velocity": 0.46,
      "hand": "right"
    },
    {
      "midi": 60,
      "time": 11.153,
      "duration": 1.524,
      "velocity": 0.61,
      "hand": "right"
    },
    {
      "midi": 64,
      "time": 11.282,
      "duration": 1.41,
      "velocity": 0.57,
      "hand": "right"
    },
    {
      "midi": 67,
      "time": 11.538,
      "duration": 0.256,
      "velocity": 0.54,
      "hand": "right"
    },
    {
      "midi": 72,
      "time": 11.666,
      "duration": 0.256,
      "velocity": 0.57,
      "hand": "right"
    },
    {
      "midi": 76,
      "time": 11.923,
      "duration": 0.128,
      "velocity": 0.61,
      "hand": "right"
    },
    {
      "midi": 67,
      "time": 12.051,
      "duration": 0.256,
      "velocity": 0.5,
      "hand": "right"
    },
    {
      "midi": 72,
      "time": 12.307,
      "duration": 0.256,
      "velocity": 0.47,
      "hand": "right"
    },
    {
      "midi": 76,
      "time": 12.436,
      "duration": 0.256,
      "velocity": 0.47,
      "hand": "right"
    },
    {
      "midi": 60,
      "time": 12.692,
      "duration": 1.523,
      "velocity": 0.67,
      "hand": "right"
    },
    {
      "midi": 64,
      "time": 12.948,
      "duration": 1.41,
      "velocity": 0.61,
      "hand": "right"
    },
    {
      "midi": 69,
      "time": 13.077,
      "duration": 0.256,
      "velocity": 0.61,
      "hand": "right"
    },
    {
      "midi": 76,
      "time": 13.333,
      "duration": 0.256,
      "velocity": 0.65,
      "hand": "right"
    },
    {
      "midi": 81,
      "time": 13.461,
      "duration": 0.128,
      "velocity": 0.69,
      "hand": "right"
    },
    {
      "midi": 69,
      "time": 13.718,
      "duration": 0.256,
      "velocity": 0.54,
      "hand": "right"
    },
    {
      "midi": 76,
      "time": 13.846,
      "duration": 0.256,
      "velocity": 0.5,
      "hand": "right"
    },
    {
      "midi": 81,
      "time": 14.102,
      "duration": 0.256,
      "velocity": 0.5,
      "hand": "right"
    },
    {
      "midi": 60,
      "time": 14.23,
      "duration": 1.538,
      "velocity": 0.68,
      "hand": "right"
    },
    {
      "midi": 64,
      "time": 14.487,
      "duration": 1.41,
      "velocity": 0.61,
      "hand": "right"
    },
    {
      "midi": 69,
      "time": 14.743,
      "duration": 0.256,
      "velocity": 0.61,
      "hand": "right"
    },
    {
      "midi": 76,
      "time": 14.871,
      "duration": 0.256,
      "velocity": 0.65,
      "hand": "right"
    },
    {
      "midi": 81,
      "time": 15.128,
      "duration": 0.128,
      "velocity": 0.68,
      "hand": "right"
    },
    {
      "midi": 69,
      "time": 15.256,
      "duration": 0.256,
      "velocity": 0.54,
      "hand": "right"
    },
    {
      "midi": 76,
      "time": 15.512,
      "duration": 0.256,
      "velocity": 0.51,
      "hand": "right"
    },
    {
      "midi": 81,
      "time": 15.641,
      "duration": 0.256,
      "velocity": 0.51,
      "hand": "right"
    },
    {
      "midi": 60,
      "time": 15.897,
      "duration": 1.524,
      "velocity": 0.61,
      "hand": "right"
    },
    {
      "midi": 62,
      "time": 16.025,
      "duration": 1.41,
      "velocity": 0.57,
      "hand": "right"
    },
    {
      "midi": 66,
      "time": 16.282,
      "duration": 0.256,
      "velocity": 0.56,
      "hand": "right"
    },
    {
      "midi": 69,
      "time": 16.41,
      "duration": 0.256,
      "velocity": 0.6,
      "hand": "right"
    },
    {
      "midi": 74,
      "time": 16.666,
      "duration": 0.128,
      "velocity": 0.62,
      "hand": "right"
    },
    {
      "midi": 66,
      "time": 16.795,
      "duration": 0.256,
      "velocity": 0.5,
      "hand": "right"
    },
    {
      "midi": 69,
      "time": 17.051,
      "duration": 0.256,
      "velocity": 0.46,
      "hand": "right"
    },
    {
      "midi": 74,
      "time": 17.179,
      "duration": 0.256,
      "velocity": 0.46,
      "hand": "right"
    },
    {
      "midi": 60,
      "time": 17.436,
      "duration": 1.538,
      "velocity": 0.61,
      "hand": "right"
    },
    {
      "midi": 62,
      "time": 17.564,
      "duration": 1.41,
      "velocity": 0.57,
      "hand": "right"
    },
    {
      "midi": 66,
      "time": 17.82,
      "duration": 0.256,
      "velocity": 0.56,
      "hand": "right"
    },
    {
      "midi": 69,
      "time": 18.077,
      "duration": 0.256,
      "velocity": 0.6,
      "hand": "right"
    },
    {
      "midi": 74,
      "time": 18.205,
      "duration": 0.128,
      "velocity": 0.61,
      "hand": "right"
    },
    {
      "midi": 66,
      "time": 18.461,
      "duration": 0.256,
      "velocity": 0.5,
      "hand": "right"
    },
    {
      "midi": 69,
      "time": 18.589,
      "duration": 0.256,
      "velocity": 0.47,
      "hand": "right"
    },
    {
      "midi": 74,
      "time": 18.846,
      "duration": 0.256,
      "velocity": 0.47,
      "hand": "right"
    },
    {
      "midi": 59,
      "time": 18.974,
      "duration": 1.538,
      "velocity": 0.65,
      "hand": "left"
    },
    {
      "midi": 62,
      "time": 19.23,
      "duration": 1.41,
      "velocity": 0.6,
      "hand": "right"
    },
    {
      "midi": 67,
      "time": 19.359,
      "duration": 0.256,
      "velocity": 0.57,
      "hand": "right"
    },
    {
      "midi": 74,
      "time": 19.615,
      "duration": 0.256,
      "velocity": 0.62,
      "hand": "right"
    },
    {
      "midi": 79,
      "time": 19.871,
      "duration": 0.128,
      "velocity": 0.65,
      "hand": "right"
    },
    {
      "midi": 67,
      "time": 20,
      "duration": 0.256,
      "velocity": 0.5,
      "hand": "right"
    },
    {
      "midi": 74,
      "time": 20.256,
      "duration": 0.256,
      "velocity": 0.5,
      "hand": "right"
    },
    {
      "midi": 79,
      "time": 20.384,
      "duration": 0.256,
      "velocity": 0.5,
      "hand": "right"
    },
    {
      "midi": 59,
      "time": 20.641,
      "duration": 1.523,
      "velocity": 0.65,
      "hand": "left"
    },
    {
      "midi": 62,
      "time": 20.769,
      "duration": 1.41,
      "velocity": 0.6,
      "hand": "right"
    },
    {
      "midi": 67,
      "time": 21.025,
      "duration": 0.256,
      "velocity": 0.57,
      "hand": "right"
    },
    {
      "midi": 74,
      "time": 21.153,
      "duration": 0.256,
      "velocity": 0.61,
      "hand": "right"
    },
    {
      "midi": 79,
      "time": 21.41,
      "duration": 0.128,
      "velocity": 0.65,
      "hand": "right"
    },
    {
      "midi": 67,
      "time": 21.538,
      "duration": 0.256,
      "velocity": 0.51,
      "hand": "right"
    },
    {
      "midi": 74,
      "time": 21.795,
      "duration": 0.256,
      "velocity": 0.5,
      "hand": "right"
    },
    {
      "midi": 79,
      "time": 21.923,
      "duration": 0.256,
      "velocity": 0.5,
      "hand": "right"
    },
    {
      "midi": 59,
      "time": 22.179,
      "duration": 1.524,
      "velocity": 0.61,
      "hand": "left"
    },
    {
      "midi": 60,
      "time": 22.436,
      "duration": 1.41,
      "velocity": 0.57,
      "hand": "right"
    },
    {
      "midi": 64,
      "time": 22.564,
      "duration": 0.256,
      "velocity": 0.56,
      "hand": "right"
    },
    {
      "midi": 67,
      "time": 22.82,
      "duration": 0.256,
      "velocity": 0.6,
      "hand": "right"
    },
    {
      "midi": 72,
      "time": 22.948,
      "duration": 0.128,
      "velocity": 0.62,
      "hand": "right"
    },
    {
      "midi": 64,
      "time": 23.205,
      "duration": 0.256,
      "velocity": 0.5,
      "hand": "right"
    },
    {
      "midi": 67,
      "time": 23.333,
      "duration": 0.256,
      "velocity": 0.46,
      "hand": "right"
    },
    {
      "midi": 72,
      "time": 23.589,
      "duration": 0.256,
      "velocity": 0.46,
      "hand": "right"
    },
    {
      "midi": 59,
      "time": 23.718,
      "duration": 1.538,
      "velocity": 0.61,
      "hand": "left"
    },
    {
      "midi": 60,
      "time": 23.974,
      "duration": 1.41,
      "velocity": 0.57,
      "hand": "right"
    },
    {
      "midi": 64,
      "time": 24.102,
      "duration": 0.256,
      "velocity": 0.56,
      "hand": "right"
    },
    {
      "midi": 67,
      "time": 24.359,
      "duration": 0.256,
      "velocity": 0.6,
      "hand": "right"
    },
    {
      "midi": 72,
      "time": 24.615,
      "duration": 0.128,
      "velocity": 0.61,
      "hand": "right"
    },
    {
      "midi": 64,
      "time": 24.743,
      "duration": 0.256,
      "velocity": 0.5,
      "hand": "right"
    },
    {
      "midi": 67,
      "time": 25,
      "duration": 0.256,
      "velocity": 0.47,
      "hand": "right"
    },
    {
      "midi": 72,
      "time": 25.128,
      "duration": 0.256,
      "velocity": 0.47,
      "hand": "right"
    },
    {
      "midi": 57,
      "time": 25.384,
      "duration": 1.524,
      "velocity": 0.61,
      "hand": "left"
    },
    {
      "midi": 60,
      "time": 25.512,
      "duration": 1.41,
      "velocity": 0.57,
      "hand": "right"
    },
    {
      "midi": 64,
      "time": 25.769,
      "duration": 0.256,
      "velocity": 0.56,
      "hand": "right"
    },
    {
      "midi": 67,
      "time": 25.897,
      "duration": 0.256,
      "velocity": 0.6,
      "hand": "right"
    },
    {
      "midi": 72,
      "time": 26.153,
      "duration": 0.128,
      "velocity": 0.62,
      "hand": "right"
    },
    {
      "midi": 64,
      "time": 26.282,
      "duration": 0.256,
      "velocity": 0.5,
      "hand": "right"
    },
    {
      "midi": 67,
      "time": 26.538,
      "duration": 0.256,
      "velocity": 0.46,
      "hand": "right"
    },
    {
      "midi": 72,
      "time": 26.795,
      "duration": 0.256,
      "velocity": 0.46,
      "hand": "right"
    },
    {
      "midi": 57,
      "time": 26.923,
      "duration": 1.667,
      "velocity": 0.61,
      "hand": "left"
    },
    {
      "midi": 60,
      "time": 27.179,
      "duration": 1.41,
      "velocity": 0.57,
      "hand": "right"
    },
    {
      "midi": 64,
      "time": 27.307,
      "duration": 0.256,
      "velocity": 0.56,
      "hand": "right"
    },
    {
      "midi": 67,
      "time": 27.564,
      "duration": 0.256,
      "velocity": 0.6,
      "hand": "right"
    },
    {
      "midi": 72,
      "time": 27.692,
      "duration": 0.128,
      "velocity": 0.61,
      "hand": "right"
    },
    {
      "midi": 64,
      "time": 27.948,
      "duration": 0.256,
      "velocity": 0.5,
      "hand": "right"
    },
    {
      "midi": 67,
      "time": 28.077,
      "duration": 0.256,
      "velocity": 0.47,
      "hand": "right"
    },
    {
      "midi": 72,
      "time": 28.333,
      "duration": 0.256,
      "velocity": 0.47,
      "hand": "right"
    },
    {
      "midi": 50,
      "time": 28.589,
      "duration": 1.524,
      "velocity": 0.61,
      "hand": "left"
    },
    {
      "midi": 57,
      "time": 28.718,
      "duration": 1.41,
      "velocity": 0.57,
      "hand": "left"
    },
    {
      "midi": 62,
      "time": 28.974,
      "duration": 0.256,
      "velocity": 0.56,
      "hand": "right"
    },
    {
      "midi": 66,
      "time": 29.23,
      "duration": 0.256,
      "velocity": 0.6,
      "hand": "right"
    },
    {
      "midi": 72,
      "time": 29.359,
      "duration": 0.128,
      "velocity": 0.62,
      "hand": "right"
    },
    {
      "midi": 62,
      "time": 29.615,
      "duration": 0.256,
      "velocity": 0.5,
      "hand": "right"
    },
    {
      "midi": 66,
      "time": 29.743,
      "duration": 0.256,
      "velocity": 0.46,
      "hand": "right"
    },
    {
      "midi": 72,
      "time": 30,
      "duration": 0.256,
      "velocity": 0.46,
      "hand": "right"
    },
    {
      "midi": 50,
      "time": 30.128,
      "duration": 1.667,
      "velocity": 0.61,
      "hand": "left"
    },
    {
      "midi": 57,
      "time": 30.384,
      "duration": 1.41,
      "velocity": 0.57,
      "hand": "left"
    },
    {
      "midi": 62,
      "time": 30.641,
      "duration": 0.256,
      "velocity": 0.56,
      "hand": "right"
    },
    {
      "midi": 66,
      "time": 30.769,
      "duration": 0.256,
      "velocity": 0.6,
      "hand": "right"
    },
    {
      "midi": 72,
      "time": 31.025,
      "duration": 0.128,
      "velocity": 0.61,
      "hand": "right"
    },
    {
      "midi": 62,
      "time": 31.153,
      "duration": 0.256,
      "velocity": 0.5,
      "hand": "right"
    },
    {
      "midi": 66,
      "time": 31.41,
      "duration": 0.256,
      "velocity": 0.47,
      "hand": "right"
    },
    {
      "midi": 72,
      "time": 31.538,
      "duration": 0.256,
      "velocity": 0.47,
      "hand": "right"
    },
    {
      "midi": 55,
      "time": 31.795,
      "duration": 1.523,
      "velocity": 0.57,
      "hand": "left"
    },
    {
      "midi": 59,
      "time": 31.923,
      "duration": 1.41,
      "velocity": 0.54,
      "hand": "left"
    },
    {
      "midi": 62,
      "time": 32.179,
      "duration": 0.256,
      "velocity": 0.53,
      "hand": "right"
    },
    {
      "midi": 67,
      "time": 32.436,
      "duration": 0.256,
      "velocity": 0.56,
      "hand": "right"
    },
    {
      "midi": 71,
      "time": 32.564,
      "duration": 0.128,
      "velocity": 0.6,
      "hand": "right"
    },
    {
      "midi": 62,
      "time": 32.82,
      "duration": 0.256,
      "velocity": 0.46,
      "hand": "right"
    },
    {
      "midi": 67,
      "time": 32.948,
      "duration": 0.256,
      "velocity": 0.44,
      "hand": "right"
    },
    {
      "midi": 71,
      "time": 33.205,
      "duration": 0.256,
      "velocity": 0.44,
      "hand": "right"
    },
    {
      "midi": 55,
      "time": 33.333,
      "duration": 1.538,
      "velocity": 0.57,
      "hand": "left"
    },
    {
      "midi": 59,
      "time": 33.589,
      "duration": 1.41,
      "velocity": 0.54,
      "hand": "left"
    },
    {
      "midi": 62,
      "time": 33.718,
      "duration": 0.256,
      "velocity": 0.53,
      "hand": "right"
    },
    {
      "midi": 67,
      "time": 33.974,
      "duration": 0.256,
      "velocity": 0.56,
      "hand": "right"
    },
    {
      "midi": 71,
      "time": 34.102,
      "duration": 0.128,
      "velocity": 0.57,
      "hand": "right"
    },
    {
      "midi": 62,
      "time": 34.359,
      "duration": 0.256,
      "velocity": 0.46,
      "hand": "right"
    },
    {
      "midi": 67,
      "time": 34.487,
      "duration": 0.256,
      "velocity": 0.44,
      "hand": "right"
    },
    {
      "midi": 71,
      "time": 34.743,
      "duration": 0.256,
      "velocity": 0.44,
      "hand": "right"
    },
    {
      "midi": 55,
      "time": 35,
      "duration": 1.523,
      "velocity": 0.57,
      "hand": "left"
    },
    {
      "midi": 58,
      "time": 35.128,
      "duration": 1.41,
      "velocity": 0.54,
      "hand": "left"
    },
    {
      "midi": 64,
      "time": 35.384,
      "duration": 0.256,
      "velocity": 0.53,
      "hand": "right"
    },
    {
      "midi": 67,
      "time": 35.512,
      "duration": 0.256,
      "velocity": 0.56,
      "hand": "right"
    },
    {
      "midi": 73,
      "time": 35.769,
      "duration": 0.128,
      "velocity": 0.6,
      "hand": "right"
    },
    {
      "midi": 64,
      "time": 35.897,
      "duration": 0.256,
      "velocity": 0.46,
      "hand": "right"
    },
    {
      "midi": 67,
      "time": 36.153,
      "duration": 0.256,
      "velocity": 0.44,
      "hand": "right"
    },
    {
      "midi": 73,
      "time": 36.282,
      "duration": 0.256,
      "velocity": 0.44,
      "hand": "right"
    },
    {
      "midi": 55,
      "time": 36.538,
      "duration": 1.538,
      "velocity": 0.57,
      "hand": "left"
    },
    {
      "midi": 58,
      "time": 36.666,
      "duration": 1.41,
      "velocity": 0.54,
      "hand": "left"
    },
    {
      "midi": 64,
      "time": 36.923,
      "duration": 0.256,
      "velocity": 0.53,
      "hand": "right"
    },
    {
      "midi": 67,
      "time": 37.179,
      "duration": 0.256,
      "velocity": 0.56,
      "hand": "right"
    },
    {
      "midi": 73,
      "time": 37.307,
      "duration": 0.128,
      "velocity": 0.57,
      "hand": "right"
    },
    {
      "midi": 64,
      "time": 37.564,
      "duration": 0.256,
      "velocity": 0.46,
      "hand": "right"
    },
    {
      "midi": 67,
      "time": 37.692,
      "duration": 0.256,
      "velocity": 0.44,
      "hand": "right"
    },
    {
      "midi": 73,
      "time": 37.948,
      "duration": 0.256,
      "velocity": 0.44,
      "hand": "right"
    },
    {
      "midi": 53,
      "time": 38.077,
      "duration": 1.538,
      "velocity": 0.61,
      "hand": "left"
    },
    {
      "midi": 57,
      "time": 38.333,
      "duration": 1.41,
      "velocity": 0.57,
      "hand": "left"
    },
    {
      "midi": 62,
      "time": 38.589,
      "duration": 0.256,
      "velocity": 0.56,
      "hand": "right"
    },
    {
      "midi": 69,
      "time": 38.718,
      "duration": 0.256,
      "velocity": 0.6,
      "hand": "right"
    },
    {
      "midi": 74,
      "time": 38.974,
      "duration": 0.128,
      "velocity": 0.62,
      "hand": "right"
    },
    {
      "midi": 62,
      "time": 39.102,
      "duration": 0.256,
      "velocity": 0.5,
      "hand": "right"
    },
    {
      "midi": 69,
      "time": 39.359,
      "duration": 0.256,
      "velocity": 0.46,
      "hand": "right"
    },
    {
      "midi": 74,
      "time": 39.487,
      "duration": 0.256,
      "velocity": 0.46,
      "hand": "right"
    },
    {
      "midi": 53,
      "time": 39.743,
      "duration": 1.524,
      "velocity": 0.61,
      "hand": "left"
    },
    {
      "midi": 57,
      "time": 39.871,
      "duration": 1.41,
      "velocity": 0.57,
      "hand": "left"
    },
    {
      "midi": 62,
      "time": 40.128,
      "duration": 0.256,
      "velocity": 0.56,
      "hand": "right"
    },
    {
      "midi": 69,
      "time": 40.256,
      "duration": 0.256,
      "velocity": 0.6,
      "hand": "right"
    },
    {
      "midi": 74,
      "time": 40.512,
      "duration": 0.128,
      "velocity": 0.61,
      "hand": "right"
    },
    {
      "midi": 62,
      "time": 40.641,
      "duration": 0.256,
      "velocity": 0.5,
      "hand": "right"
    },
    {
      "midi": 69,
      "time": 40.897,
      "duration": 0.256,
      "velocity": 0.47,
      "hand": "right"
    },
    {
      "midi": 74,
      "time": 41.153,
      "duration": 0.256,
      "velocity": 0.47,
      "hand": "right"
    },
    {
      "midi": 53,
      "time": 41.282,
      "duration": 1.538,
      "velocity": 0.57,
      "hand": "left"
    },
    {
      "midi": 56,
      "time": 41.538,
      "duration": 1.41,
      "velocity": 0.54,
      "hand": "left"
    },
    {
      "midi": 62,
      "time": 41.666,
      "duration": 0.256,
      "velocity": 0.53,
      "hand": "right"
    },
    {
      "midi": 65,
      "time": 41.923,
      "duration": 0.256,
      "velocity": 0.56,
      "hand": "right"
    },
    {
      "midi": 71,
      "time": 42.051,
      "duration": 0.128,
      "velocity": 0.6,
      "hand": "right"
    },
    {
      "midi": 62,
      "time": 42.307,
      "duration": 0.256,
      "velocity": 0.46,
      "hand": "right"
    },
    {
      "midi": 65,
      "time": 42.436,
      "duration": 0.256,
      "velocity": 0.44,
      "hand": "right"
    },
    {
      "midi": 71,
      "time": 42.692,
      "duration": 0.256,
      "velocity": 0.44,
      "hand": "right"
    },
    {
      "midi": 53,
      "time": 42.948,
      "duration": 1.538,
      "velocity": 0.57,
      "hand": "left"
    },
    {
      "midi": 56,
      "time": 43.077,
      "duration": 1.41,
      "velocity": 0.54,
      "hand": "left"
    },
    {
      "midi": 62,
      "time": 43.333,
      "duration": 0.256,
      "velocity": 0.53,
      "hand": "right"
    },
    {
      "midi": 65,
      "time": 43.461,
      "duration": 0.256,
      "velocity": 0.56,
      "hand": "right"
    },
    {
      "midi": 71,
      "time": 43.718,
      "duration": 0.128,
      "velocity": 0.57,
      "hand": "right"
    },
    {
      "midi": 62,
      "time": 43.846,
      "duration": 0.256,
      "velocity": 0.46,
      "hand": "right"
    },
    {
      "midi": 65,
      "time": 44.102,
      "duration": 0.256,
      "velocity": 0.44,
      "hand": "right"
    },
    {
      "midi": 71,
      "time": 44.23,
      "duration": 0.256,
      "velocity": 0.44,
      "hand": "right"
    },
    {
      "midi": 52,
      "time": 44.487,
      "duration": 1.523,
      "velocity": 0.57,
      "hand": "left"
    },
    {
      "midi": 55,
      "time": 44.615,
      "duration": 1.41,
      "velocity": 0.54,
      "hand": "left"
    },
    {
      "midi": 60,
      "time": 44.871,
      "duration": 0.256,
      "velocity": 0.53,
      "hand": "right"
    },
    {
      "midi": 67,
      "time": 45.128,
      "duration": 0.256,
      "velocity": 0.56,
      "hand": "right"
    },
    {
      "midi": 72,
      "time": 45.256,
      "duration": 0.128,
      "velocity": 0.6,
      "hand": "right"
    },
    {
      "midi": 60,
      "time": 45.512,
      "duration": 0.256,
      "velocity": 0.46,
      "hand": "right"
    },
    {
      "midi": 67,
      "time": 45.641,
      "duration": 0.256,
      "velocity": 0.44,
      "hand": "right"
    },
    {
      "midi": 72,
      "time": 45.897,
      "duration": 0.256,
      "velocity": 0.44,
      "hand": "right"
    },
    {
      "midi": 52,
      "time": 46.025,
      "duration": 1.538,
      "velocity": 0.57,
      "hand": "left"
    },
    {
      "midi": 55,
      "time": 46.282,
      "duration": 1.41,
      "velocity": 0.54,
      "hand": "left"
    },
    {
      "midi": 60,
      "time": 46.41,
      "duration": 0.256,
      "velocity": 0.53,
      "hand": "right"
    },
    {
      "midi": 67,
      "time": 46.666,
      "duration": 0.256,
      "velocity": 0.56,
      "hand": "right"
    },
    {
      "midi": 72,
      "time": 46.795,
      "duration": 0.128,
      "velocity": 0.57,
      "hand": "right"
    },
    {
      "midi": 60,
      "time": 47.051,
      "duration": 0.256,
      "velocity": 0.46,
      "hand": "right"
    },
    {
      "midi": 67,
      "time": 47.179,
      "duration": 0.256,
      "velocity": 0.44,
      "hand": "right"
    },
    {
      "midi": 72,
      "time": 47.436,
      "duration": 0.256,
      "velocity": 0.44,
      "hand": "right"
    },
    {
      "midi": 52,
      "time": 47.692,
      "duration": 1.523,
      "velocity": 0.54,
      "hand": "left"
    },
    {
      "midi": 53,
      "time": 47.82,
      "duration": 1.41,
      "velocity": 0.5,
      "hand": "left"
    },
    {
      "midi": 57,
      "time": 48.077,
      "duration": 0.256,
      "velocity": 0.5,
      "hand": "left"
    },
    {
      "midi": 60,
      "time": 48.205,
      "duration": 0.256,
      "velocity": 0.53,
      "hand": "right"
    },
    {
      "midi": 65,
      "time": 48.461,
      "duration": 0.128,
      "velocity": 0.56,
      "hand": "right"
    },
    {
      "midi": 57,
      "time": 48.589,
      "duration": 0.256,
      "velocity": 0.44,
      "hand": "left"
    },
    {
      "midi": 60,
      "time": 48.846,
      "duration": 0.256,
      "velocity": 0.42,
      "hand": "right"
    },
    {
      "midi": 65,
      "time": 48.974,
      "duration": 0.256,
      "velocity": 0.42,
      "hand": "right"
    },
    {
      "midi": 52,
      "time": 49.23,
      "duration": 1.667,
      "velocity": 0.54,
      "hand": "left"
    },
    {
      "midi": 53,
      "time": 49.487,
      "duration": 1.41,
      "velocity": 0.5,
      "hand": "left"
    },
    {
      "midi": 57,
      "time": 49.615,
      "duration": 0.256,
      "velocity": 0.5,
      "hand": "left"
    },
    {
      "midi": 60,
      "time": 49.871,
      "duration": 0.256,
      "velocity": 0.53,
      "hand": "right"
    },
    {
      "midi": 65,
      "time": 50,
      "duration": 0.128,
      "velocity": 0.54,
      "hand": "right"
    },
    {
      "midi": 57,
      "time": 50.256,
      "duration": 0.256,
      "velocity": 0.44,
      "hand": "left"
    },
    {
      "midi": 60,
      "time": 50.384,
      "duration": 0.256,
      "velocity": 0.43,
      "hand": "right"
    },
    {
      "midi": 65,
      "time": 50.641,
      "duration": 0.256,
      "velocity": 0.43,
      "hand": "right"
    },
    {
      "midi": 50,
      "time": 50.897,
      "duration": 1.524,
      "velocity": 0.54,
      "hand": "left"
    },
    {
      "midi": 53,
      "time": 51.025,
      "duration": 1.41,
      "velocity": 0.5,
      "hand": "left"
    },
    {
      "midi": 57,
      "time": 51.282,
      "duration": 0.256,
      "velocity": 0.5,
      "hand": "left"
    },
    {
      "midi": 60,
      "time": 51.41,
      "duration": 0.256,
      "velocity": 0.53,
      "hand": "right"
    },
    {
      "midi": 65,
      "time": 51.666,
      "duration": 0.128,
      "velocity": 0.56,
      "hand": "right"
    },
    {
      "midi": 57,
      "time": 51.795,
      "duration": 0.256,
      "velocity": 0.44,
      "hand": "left"
    },
    {
      "midi": 60,
      "time": 52.051,
      "duration": 0.256,
      "velocity": 0.42,
      "hand": "right"
    },
    {
      "midi": 65,
      "time": 52.179,
      "duration": 0.256,
      "velocity": 0.42,
      "hand": "right"
    },
    {
      "midi": 50,
      "time": 52.436,
      "duration": 1.667,
      "velocity": 0.54,
      "hand": "left"
    },
    {
      "midi": 53,
      "time": 52.692,
      "duration": 1.41,
      "velocity": 0.5,
      "hand": "left"
    },
    {
      "midi": 57,
      "time": 52.82,
      "duration": 0.256,
      "velocity": 0.5,
      "hand": "left"
    },
    {
      "midi": 60,
      "time": 53.077,
      "duration": 0.256,
      "velocity": 0.53,
      "hand": "right"
    },
    {
      "midi": 65,
      "time": 53.205,
      "duration": 0.128,
      "velocity": 0.54,
      "hand": "right"
    },
    {
      "midi": 57,
      "time": 53.461,
      "duration": 0.256,
      "velocity": 0.44,
      "hand": "left"
    },
    {
      "midi": 60,
      "time": 53.589,
      "duration": 0.256,
      "velocity": 0.43,
      "hand": "right"
    },
    {
      "midi": 65,
      "time": 53.846,
      "duration": 0.256,
      "velocity": 0.43,
      "hand": "right"
    },
    {
      "midi": 43,
      "time": 54.102,
      "duration": 1.524,
      "velocity": 0.54,
      "hand": "left"
    },
    {
      "midi": 50,
      "time": 54.23,
      "duration": 1.41,
      "velocity": 0.5,
      "hand": "left"
    },
    {
      "midi": 55,
      "time": 54.487,
      "duration": 0.256,
      "velocity": 0.5,
      "hand": "left"
    },
    {
      "midi": 59,
      "time": 54.615,
      "duration": 0.256,
      "velocity": 0.53,
      "hand": "left"
    },
    {
      "midi": 65,
      "time": 54.871,
      "duration": 0.128,
      "velocity": 0.56,
      "hand": "right"
    },
    {
      "midi": 55,
      "time": 55.128,
      "duration": 0.256,
      "velocity": 0.44,
      "hand": "left"
    },
    {
      "midi": 59,
      "time": 55.256,
      "duration": 0.256,
      "velocity": 0.42,
      "hand": "left"
    },
    {
      "midi": 65,
      "time": 55.512,
      "duration": 0.256,
      "velocity": 0.42,
      "hand": "right"
    },
    {
      "midi": 43,
      "time": 55.641,
      "duration": 1.667,
      "velocity": 0.54,
      "hand": "left"
    },
    {
      "midi": 50,
      "time": 55.897,
      "duration": 1.41,
      "velocity": 0.5,
      "hand": "left"
    },
    {
      "midi": 55,
      "time": 56.025,
      "duration": 0.256,
      "velocity": 0.5,
      "hand": "left"
    },
    {
      "midi": 59,
      "time": 56.282,
      "duration": 0.256,
      "velocity": 0.53,
      "hand": "left"
    },
    {
      "midi": 65,
      "time": 56.538,
      "duration": 0.128,
      "velocity": 0.54,
      "hand": "right"
    },
    {
      "midi": 55,
      "time": 56.666,
      "duration": 0.256,
      "velocity": 0.44,
      "hand": "left"
    },
    {
      "midi": 59,
      "time": 56.923,
      "duration": 0.256,
      "velocity": 0.43,
      "hand": "left"
    },
    {
      "midi": 65,
      "time": 57.051,
      "duration": 0.256,
      "velocity": 0.43,
      "hand": "right"
    },
    {
      "midi": 48,
      "time": 57.307,
      "duration": 1.652,
      "velocity": 0.54,
      "hand": "left"
    },
    {
      "midi": 52,
      "time": 57.436,
      "duration": 1.41,
      "velocity": 0.5,
      "hand": "left"
    },
    {
      "midi": 55,
      "time": 57.692,
      "duration": 0.256,
      "velocity": 0.5,
      "hand": "left"
    },
    {
      "midi": 60,
      "time": 57.948,
      "duration": 0.256,
      "velocity": 0.53,
      "hand": "right"
    },
    {
      "midi": 64,
      "time": 58.077,
      "duration": 0.128,
      "velocity": 0.56,
      "hand": "right"
    },
    {
      "midi": 55,
      "time": 58.333,
      "duration": 0.256,
      "velocity": 0.44,
      "hand": "left"
    },
    {
      "midi": 60,
      "time": 58.461,
      "duration": 0.256,
      "velocity": 0.42,
      "hand": "right"
    },
    {
      "midi": 64,
      "time": 58.718,
      "duration": 0.256,
      "velocity": 0.42,
      "hand": "right"
    },
    {
      "midi": 48,
      "time": 58.974,
      "duration": 1.523,
      "velocity": 0.54,
      "hand": "left"
    },
    {
      "midi": 52,
      "time": 59.102,
      "duration": 1.41,
      "velocity": 0.5,
      "hand": "left"
    },
    {
      "midi": 55,
      "time": 59.359,
      "duration": 0.256,
      "velocity": 0.5,
      "hand": "left"
    },
    {
      "midi": 60,
      "time": 59.487,
      "duration": 0.256,
      "velocity": 0.53,
      "hand": "right"
    },
    {
      "midi": 64,
      "time": 59.743,
      "duration": 0.128,
      "velocity": 0.54,
      "hand": "right"
    },
    {
      "midi": 55,
      "time": 59.871,
      "duration": 0.256,
      "velocity": 0.44,
      "hand": "left"
    },
    {
      "midi": 60,
      "time": 60.128,
      "duration": 0.256,
      "velocity": 0.43,
      "hand": "right"
    },
    {
      "midi": 64,
      "time": 60.384,
      "duration": 0.256,
      "velocity": 0.43,
      "hand": "right"
    },
    {
      "midi": 48,
      "time": 60.512,
      "duration": 1.538,
      "velocity": 0.5,
      "hand": "left"
    },
    {
      "midi": 55,
      "time": 60.769,
      "duration": 1.41,
      "velocity": 0.47,
      "hand": "left"
    },
    {
      "midi": 58,
      "time": 60.897,
      "duration": 0.256,
      "velocity": 0.46,
      "hand": "left"
    },
    {
      "midi": 60,
      "time": 61.153,
      "duration": 0.256,
      "velocity": 0.5,
      "hand": "right"
    },
    {
      "midi": 64,
      "time": 61.282,
      "duration": 0.128,
      "velocity": 0.53,
      "hand": "right"
    },
    {
      "midi": 58,
      "time": 61.538,
      "duration": 0.256,
      "velocity": 0.4,
      "hand": "left"
    },
    {
      "midi": 60,
      "time": 61.666,
      "duration": 0.256,
      "velocity": 0.39,
      "hand": "right"
    },
    {
      "midi": 64,
      "time": 61.923,
      "duration": 0.256,
      "velocity": 0.39,
      "hand": "right"
    },
    {
      "midi": 48,
      "time": 62.179,
      "duration": 1.667,
      "velocity": 0.51,
      "hand": "left"
    },
    {
      "midi": 55,
      "time": 62.307,
      "duration": 1.41,
      "velocity": 0.47,
      "hand": "left"
    },
    {
      "midi": 58,
      "time": 62.564,
      "duration": 0.256,
      "velocity": 0.46,
      "hand": "left"
    },
    {
      "midi": 60,
      "time": 62.692,
      "duration": 0.256,
      "velocity": 0.5,
      "hand": "right"
    },
    {
      "midi": 64,
      "time": 62.948,
      "duration": 0.128,
      "velocity": 0.51,
      "hand": "right"
    },
    {
      "midi": 58,
      "time": 63.077,
      "duration": 0.256,
      "velocity": 0.42,
      "hand": "left"
    },
    {
      "midi": 60,
      "time": 63.333,
      "duration": 0.256,
      "velocity": 0.39,
      "hand": "right"
    },
    {
      "midi": 64,
      "time": 63.461,
      "duration": 0.256,
      "velocity": 0.39,
      "hand": "right"
    },
    {
      "midi": 41,
      "time": 63.718,
      "duration": 1.538,
      "velocity": 0.5,
      "hand": "left"
    },
    {
      "midi": 53,
      "time": 63.974,
      "duration": 1.41,
      "velocity": 0.47,
      "hand": "left"
    },
    {
      "midi": 57,
      "time": 64.102,
      "duration": 0.256,
      "velocity": 0.46,
      "hand": "left"
    },
    {
      "midi": 60,
      "time": 64.359,
      "duration": 0.256,
      "velocity": 0.5,
      "hand": "right"
    },
    {
      "midi": 64,
      "time": 64.487,
      "duration": 0.128,
      "velocity": 0.53,
      "hand": "right"
    },
    {
      "midi": 57,
      "time": 64.743,
      "duration": 0.256,
      "velocity": 0.4,
      "hand": "left"
    },
    {
      "midi": 60,
      "time": 64.871,
      "duration": 0.256,
      "velocity": 0.39,
      "hand": "right"
    },
    {
      "midi": 64,
      "time": 65.128,
      "duration": 0.256,
      "velocity": 0.39,
      "hand": "right"
    },
    {
      "midi": 41,
      "time": 65.384,
      "duration": 1.667,
      "velocity": 0.51,
      "hand": "left"
    },
    {
      "midi": 53,
      "time": 65.512,
      "duration": 1.41,
      "velocity": 0.47,
      "hand": "left"
    },
    {
      "midi": 57,
      "time": 65.769,
      "duration": 0.256,
      "velocity": 0.46,
      "hand": "left"
    },
    {
      "midi": 60,
      "time": 65.897,
      "duration": 0.256,
      "velocity": 0.5,
      "hand": "right"
    },
    {
      "midi": 64,
      "time": 66.153,
      "duration": 0.128,
      "velocity": 0.51,
      "hand": "right"
    },
    {
      "midi": 57,
      "time": 66.282,
      "duration": 0.256,
      "velocity": 0.42,
      "hand": "left"
    },
    {
      "midi": 60,
      "time": 66.538,
      "duration": 0.256,
      "velocity": 0.39,
      "hand": "right"
    },
    {
      "midi": 64,
      "time": 66.666,
      "duration": 0.256,
      "velocity": 0.39,
      "hand": "right"
    },
    {
      "midi": 42,
      "time": 66.923,
      "duration": 1.651,
      "velocity": 0.54,
      "hand": "left"
    },
    {
      "midi": 48,
      "time": 67.179,
      "duration": 1.41,
      "velocity": 0.5,
      "hand": "left"
    },
    {
      "midi": 57,
      "time": 67.307,
      "duration": 0.256,
      "velocity": 0.5,
      "hand": "left"
    },
    {
      "midi": 60,
      "time": 67.564,
      "duration": 0.256,
      "velocity": 0.53,
      "hand": "right"
    },
    {
      "midi": 63,
      "time": 67.692,
      "duration": 0.128,
      "velocity": 0.56,
      "hand": "right"
    },
    {
      "midi": 57,
      "time": 67.948,
      "duration": 0.256,
      "velocity": 0.44,
      "hand": "left"
    },
    {
      "midi": 60,
      "time": 68.205,
      "duration": 0.256,
      "velocity": 0.42,
      "hand": "right"
    },
    {
      "midi": 63,
      "time": 68.333,
      "duration": 0.256,
      "velocity": 0.42,
      "hand": "right"
    },
    {
      "midi": 42,
      "time": 68.589,
      "duration": 1.667,
      "velocity": 0.54,
      "hand": "left"
    },
    {
      "midi": 48,
      "time": 68.718,
      "duration": 1.41,
      "velocity": 0.5,
      "hand": "left"
    },
    {
      "midi": 57,
      "time": 68.974,
      "duration": 0.256,
      "velocity": 0.5,
      "hand": "left"
    },
    {
      "midi": 60,
      "time": 69.102,
      "duration": 0.256,
      "velocity": 0.53,
      "hand": "right"
    },
    {
      "midi": 63,
      "time": 69.359,
      "duration": 0.128,
      "velocity": 0.54,
      "hand": "right"
    },
    {
      "midi": 57,
      "time": 69.615,
      "duration": 0.256,
      "velocity": 0.44,
      "hand": "left"
    },
    {
      "midi": 60,
      "time": 69.743,
      "duration": 0.256,
      "velocity": 0.43,
      "hand": "right"
    },
    {
      "midi": 63,
      "time": 70,
      "duration": 0.256,
      "velocity": 0.43,
      "hand": "right"
    },
    {
      "midi": 44,
      "time": 70.256,
      "duration": 1.524,
      "velocity": 0.5,
      "hand": "left"
    },
    {
      "midi": 53,
      "time": 70.384,
      "duration": 1.41,
      "velocity": 0.47,
      "hand": "left"
    },
    {
      "midi": 59,
      "time": 70.641,
      "duration": 0.256,
      "velocity": 0.46,
      "hand": "left"
    },
    {
      "midi": 60,
      "time": 70.769,
      "duration": 0.256,
      "velocity": 0.5,
      "hand": "right"
    },
    {
      "midi": 62,
      "time": 71.025,
      "duration": 0.128,
      "velocity": 0.53,
      "hand": "right"
    },
    {
      "midi": 59,
      "time": 71.153,
      "duration": 0.256,
      "velocity": 0.4,
      "hand": "left"
    },
    {
      "midi": 60,
      "time": 71.41,
      "duration": 0.256,
      "velocity": 0.39,
      "hand": "right"
    },
    {
      "midi": 62,
      "time": 71.538,
      "duration": 0.256,
      "velocity": 0.39,
      "hand": "right"
    },
    {
      "midi": 44,
      "time": 71.795,
      "duration": 1.538,
      "velocity": 0.51,
      "hand": "left"
    },
    {
      "midi": 53,
      "time": 71.923,
      "duration": 1.41,
      "velocity": 0.47,
      "hand": "left"
    },
    {
      "midi": 59,
      "time": 72.179,
      "duration": 0.256,
      "velocity": 0.46,
      "hand": "left"
    },
    {
      "midi": 60,
      "time": 72.307,
      "duration": 0.256,
      "velocity": 0.5,
      "hand": "right"
    },
    {
      "midi": 62,
      "time": 72.564,
      "duration": 0.128,
      "velocity": 0.51,
      "hand": "right"
    },
    {
      "midi": 59,
      "time": 72.82,
      "duration": 0.256,
      "velocity": 0.42,
      "hand": "left"
    },
    {
      "midi": 60,
      "time": 72.948,
      "duration": 0.256,
      "velocity": 0.39,
      "hand": "right"
    },
    {
      "midi": 62,
      "time": 73.205,
      "duration": 0.256,
      "velocity": 0.39,
      "hand": "right"
    },
    {
      "midi": 43,
      "time": 73.333,
      "duration": 1.538,
      "velocity": 0.54,
      "hand": "left"
    },
    {
      "midi": 53,
      "time": 73.589,
      "duration": 1.41,
      "velocity": 0.5,
      "hand": "left"
    },
    {
      "midi": 55,
      "time": 73.718,
      "duration": 0.256,
      "velocity": 0.5,
      "hand": "left"
    },
    {
      "midi": 59,
      "time": 73.974,
      "duration": 0.256,
      "velocity": 0.53,
      "hand": "left"
    },
    {
      "midi": 62,
      "time": 74.102,
      "duration": 0.128,
      "velocity": 0.56,
      "hand": "right"
    },
    {
      "midi": 55,
      "time": 74.359,
      "duration": 0.256,
      "velocity": 0.44,
      "hand": "left"
    },
    {
      "midi": 59,
      "time": 74.615,
      "duration": 0.256,
      "velocity": 0.42,
      "hand": "left"
    },
    {
      "midi": 62,
      "time": 74.743,
      "duration": 0.256,
      "velocity": 0.42,
      "hand": "right"
    },
    {
      "midi": 43,
      "time": 75,
      "duration": 1.523,
      "velocity": 0.54,
      "hand": "left"
    },
    {
      "midi": 53,
      "time": 75.128,
      "duration": 1.41,
      "velocity": 0.5,
      "hand": "left"
    },
    {
      "midi": 55,
      "time": 75.384,
      "duration": 0.256,
      "velocity": 0.5,
      "hand": "left"
    },
    {
      "midi": 59,
      "time": 75.512,
      "duration": 0.256,
      "velocity": 0.53,
      "hand": "left"
    },
    {
      "midi": 62,
      "time": 75.769,
      "duration": 0.128,
      "velocity": 0.54,
      "hand": "right"
    },
    {
      "midi": 55,
      "time": 75.897,
      "duration": 0.256,
      "velocity": 0.44,
      "hand": "left"
    },
    {
      "midi": 59,
      "time": 76.153,
      "duration": 0.256,
      "velocity": 0.43,
      "hand": "left"
    },
    {
      "midi": 62,
      "time": 76.41,
      "duration": 0.256,
      "velocity": 0.43,
      "hand": "right"
    },
    {
      "midi": 43,
      "time": 76.538,
      "duration": 1.538,
      "velocity": 0.54,
      "hand": "left"
    },
    {
      "midi": 52,
      "time": 76.795,
      "duration": 1.41,
      "velocity": 0.5,
      "hand": "left"
    },
    {
      "midi": 55,
      "time": 76.923,
      "duration": 0.256,
      "velocity": 0.5,
      "hand": "left"
    },
    {
      "midi": 60,
      "time": 77.179,
      "duration": 0.256,
      "velocity": 0.53,
      "hand": "right"
    },
    {
      "midi": 64,
      "time": 77.307,
      "duration": 0.128,
      "velocity": 0.56,
      "hand": "right"
    },
    {
      "midi": 55,
      "time": 77.564,
      "duration": 0.256,
      "velocity": 0.44,
      "hand": "left"
    },
    {
      "midi": 60,
      "time": 77.82,
      "duration": 0.256,
      "velocity": 0.42,
      "hand": "right"
    },
    {
      "midi": 64,
      "time": 77.948,
      "duration": 0.256,
      "velocity": 0.42,
      "hand": "right"
    },
    {
      "midi": 43,
      "time": 78.205,
      "duration": 1.523,
      "velocity": 0.54,
      "hand": "left"
    },
    {
      "midi": 52,
      "time": 78.333,
      "duration": 1.41,
      "velocity": 0.5,
      "hand": "left"
    },
    {
      "midi": 55,
      "time": 78.589,
      "duration": 0.256,
      "velocity": 0.5,
      "hand": "left"
    },
    {
      "midi": 60,
      "time": 78.718,
      "duration": 0.256,
      "velocity": 0.53,
      "hand": "right"
    },
    {
      "midi": 64,
      "time": 78.974,
      "duration": 0.128,
      "velocity": 0.54,
      "hand": "right"
    },
    {
      "midi": 55,
      "time": 79.102,
      "duration": 0.256,
      "velocity": 0.44,
      "hand": "left"
    },
    {
      "midi": 60,
      "time": 79.359,
      "duration": 0.256,
      "velocity": 0.43,
      "hand": "right"
    },
    {
      "midi": 64,
      "time": 79.487,
      "duration": 0.256,
      "velocity": 0.43,
      "hand": "right"
    },
    {
      "midi": 43,
      "time": 79.743,
      "duration": 1.524,
      "velocity": 0.57,
      "hand": "left"
    },
    {
      "midi": 50,
      "time": 80,
      "duration": 1.41,
      "velocity": 0.54,
      "hand": "left"
    },
    {
      "midi": 55,
      "time": 80.128,
      "duration": 0.256,
      "velocity": 0.53,
      "hand": "left"
    },
    {
      "midi": 60,
      "time": 80.384,
      "duration": 0.256,
      "velocity": 0.56,
      "hand": "right"
    },
    {
      "midi": 65,
      "time": 80.512,
      "duration": 0.128,
      "velocity": 0.6,
      "hand": "right"
    },
    {
      "midi": 55,
      "time": 80.769,
      "duration": 0.256,
      "velocity": 0.46,
      "hand": "left"
    },
    {
      "midi": 60,
      "time": 80.897,
      "duration": 0.256,
      "velocity": 0.44,
      "hand": "right"
    },
    {
      "midi": 65,
      "time": 81.153,
      "duration": 0.256,
      "velocity": 0.44,
      "hand": "right"
    },
    {
      "midi": 43,
      "time": 81.282,
      "duration": 1.538,
      "velocity": 0.57,
      "hand": "left"
    },
    {
      "midi": 50,
      "time": 81.538,
      "duration": 1.41,
      "velocity": 0.54,
      "hand": "left"
    },
    {
      "midi": 55,
      "time": 81.666,
      "duration": 0.256,
      "velocity": 0.53,
      "hand": "left"
    },
    {
      "midi": 60,
      "time": 81.923,
      "duration": 0.256,
      "velocity": 0.56,
      "hand": "right"
    },
    {
      "midi": 65,
      "time": 82.051,
      "duration": 0.128,
      "velocity": 0.57,
      "hand": "right"
    },
    {
      "midi": 55,
      "time": 82.307,
      "duration": 0.256,
      "velocity": 0.46,
      "hand": "left"
    },
    {
      "midi": 60,
      "time": 82.436,
      "duration": 0.256,
      "velocity": 0.44,
      "hand": "right"
    },
    {
      "midi": 65,
      "time": 82.692,
      "duration": 0.256,
      "velocity": 0.44,
      "hand": "right"
    },
    {
      "midi": 43,
      "time": 82.948,
      "duration": 1.524,
      "velocity": 0.57,
      "hand": "left"
    },
    {
      "midi": 50,
      "time": 83.077,
      "duration": 1.41,
      "velocity": 0.54,
      "hand": "left"
    },
    {
      "midi": 55,
      "time": 83.333,
      "duration": 0.256,
      "velocity": 0.53,
      "hand": "left"
    },
    {
      "midi": 59,
      "time": 83.461,
      "duration": 0.256,
      "velocity": 0.56,
      "hand": "left"
    },
    {
      "midi": 65,
      "time": 83.718,
      "duration": 0.128,
      "velocity": 0.6,
      "hand": "right"
    },
    {
      "midi": 55,
      "time": 83.846,
      "duration": 0.256,
      "velocity": 0.46,
      "hand": "left"
    },
    {
      "midi": 59,
      "time": 84.102,
      "duration": 0.256,
      "velocity": 0.44,
      "hand": "left"
    },
    {
      "midi": 65,
      "time": 84.23,
      "duration": 0.256,
      "velocity": 0.44,
      "hand": "right"
    },
    {
      "midi": 43,
      "time": 84.487,
      "duration": 1.523,
      "velocity": 0.57,
      "hand": "left"
    },
    {
      "midi": 50,
      "time": 84.615,
      "duration": 1.41,
      "velocity": 0.54,
      "hand": "left"
    },
    {
      "midi": 55,
      "time": 84.871,
      "duration": 0.256,
      "velocity": 0.53,
      "hand": "left"
    },
    {
      "midi": 59,
      "time": 85.128,
      "duration": 0.256,
      "velocity": 0.56,
      "hand": "left"
    },
    {
      "midi": 65,
      "time": 85.256,
      "duration": 0.128,
      "velocity": 0.57,
      "hand": "right"
    },
    {
      "midi": 55,
      "time": 85.512,
      "duration": 0.256,
      "velocity": 0.46,
      "hand": "left"
    },
    {
      "midi": 59,
      "time": 85.641,
      "duration": 0.256,
      "velocity": 0.44,
      "hand": "left"
    },
    {
      "midi": 65,
      "time": 85.897,
      "duration": 0.256,
      "velocity": 0.44,
      "hand": "right"
    },
    {
      "midi": 43,
      "time": 86.025,
      "duration": 1.652,
      "velocity": 0.61,
      "hand": "left"
    },
    {
      "midi": 51,
      "time": 86.282,
      "duration": 1.41,
      "velocity": 0.57,
      "hand": "left"
    },
    {
      "midi": 57,
      "time": 86.41,
      "duration": 0.256,
      "velocity": 0.56,
      "hand": "left"
    },
    {
      "midi": 60,
      "time": 86.666,
      "duration": 0.256,
      "velocity": 0.6,
      "hand": "right"
    },
    {
      "midi": 66,
      "time": 86.795,
      "duration": 0.128,
      "velocity": 0.62,
      "hand": "right"
    },
    {
      "midi": 57,
      "time": 87.051,
      "duration": 0.256,
      "velocity": 0.5,
      "hand": "left"
    },
    {
      "midi": 60,
      "time": 87.307,
      "duration": 0.256,
      "velocity": 0.46,
      "hand": "right"
    },
    {
      "midi": 66,
      "time": 87.436,
      "duration": 0.256,
      "velocity": 0.46,
      "hand": "right"
    },
    {
      "midi": 43,
      "time": 87.692,
      "duration": 1.523,
      "velocity": 0.61,
      "hand": "left"
    },
    {
      "midi": 51,
      "time": 87.82,
      "duration": 1.41,
      "velocity": 0.57,
      "hand": "left"
    },
    {
      "midi": 57,
      "time": 88.077,
      "duration": 0.256,
      "velocity": 0.56,
      "hand": "left"
    },
    {
      "midi": 60,
      "time": 88.205,
      "duration": 0.256,
      "velocity": 0.6,
      "hand": "right"
    },
    {
      "midi": 66,
      "time": 88.461,
      "duration": 0.128,
      "velocity": 0.61,
      "hand": "right"
    },
    {
      "midi": 57,
      "time": 88.589,
      "duration": 0.256,
      "velocity": 0.5,
      "hand": "left"
    },
    {
      "midi": 60,
      "time": 88.846,
      "duration": 0.256,
      "velocity": 0.47,
      "hand": "right"
    },
    {
      "midi": 66,
      "time": 89.102,
      "duration": 0.256,
      "velocity": 0.47,
      "hand": "right"
    },
    {
      "midi": 43,
      "time": 89.23,
      "duration": 1.652,
      "velocity": 0.65,
      "hand": "left"
    },
    {
      "midi": 52,
      "time": 89.487,
      "duration": 1.41,
      "velocity": 0.6,
      "hand": "left"
    },
    {
      "midi": 55,
      "time": 89.743,
      "duration": 0.256,
      "velocity": 0.57,
      "hand": "left"
    },
    {
      "midi": 60,
      "time": 89.871,
      "duration": 0.256,
      "velocity": 0.62,
      "hand": "right"
    },
    {
      "midi": 67,
      "time": 90.128,
      "duration": 0.128,
      "velocity": 0.65,
      "hand": "right"
    },
    {
      "midi": 55,
      "time": 90.384,
      "duration": 0.256,
      "velocity": 0.5,
      "hand": "left"
    },
    {
      "midi": 60,
      "time": 90.512,
      "duration": 0.256,
      "velocity": 0.5,
      "hand": "right"
    },
    {
      "midi": 67,
      "time": 90.769,
      "duration": 0.256,
      "velocity": 0.5,
      "hand": "right"
    },
    {
      "midi": 43,
      "time": 90.897,
      "duration": 1.652,
      "velocity": 0.65,
      "hand": "left"
    },
    {
      "midi": 52,
      "time": 91.153,
      "duration": 1.41,
      "velocity": 0.6,
      "hand": "left"
    },
    {
      "midi": 55,
      "time": 91.282,
      "duration": 0.256,
      "velocity": 0.57,
      "hand": "left"
    },
    {
      "midi": 60,
      "time": 91.538,
      "duration": 0.256,
      "velocity": 0.61,
      "hand": "right"
    },
    {
      "midi": 67,
      "time": 91.795,
      "duration": 0.128,
      "velocity": 0.65,
      "hand": "right"
    },
    {
      "midi": 55,
      "time": 91.923,
      "duration": 0.256,
      "velocity": 0.51,
      "hand": "left"
    },
    {
      "midi": 60,
      "time": 92.179,
      "duration": 0.256,
      "velocity": 0.5,
      "hand": "right"
    },
    {
      "midi": 67,
      "time": 92.307,
      "duration": 0.256,
      "velocity": 0.5,
      "hand": "right"
    },
    {
      "midi": 43,
      "time": 92.564,
      "duration": 1.523,
      "velocity": 0.54,
      "hand": "left"
    },
    {
      "midi": 50,
      "time": 92.82,
      "duration": 1.41,
      "velocity": 0.5,
      "hand": "left"
    },
    {
      "midi": 55,
      "time": 92.948,
      "duration": 0.256,
      "velocity": 0.5,
      "hand": "left"
    },
    {
      "midi": 60,
      "time": 93.205,
      "duration": 0.256,
      "velocity": 0.53,
      "hand": "right"
    },
    {
      "midi": 65,
      "time": 93.333,
      "duration": 0.128,
      "velocity": 0.56,
      "hand": "right"
    },
    {
      "midi": 55,
      "time": 93.589,
      "duration": 0.256,
      "velocity": 0.44,
      "hand": "left"
    },
    {
      "midi": 60,
      "time": 93.718,
      "duration": 0.256,
      "velocity": 0.42,
      "hand": "right"
    },
    {
      "midi": 65,
      "time": 93.974,
      "duration": 0.256,
      "velocity": 0.42,
      "hand": "right"
    },
    {
      "midi": 43,
      "time": 94.102,
      "duration": 1.538,
      "velocity": 0.54,
      "hand": "left"
    },
    {
      "midi": 50,
      "time": 94.359,
      "duration": 1.41,
      "velocity": 0.5,
      "hand": "left"
    },
    {
      "midi": 55,
      "time": 94.615,
      "duration": 0.256,
      "velocity": 0.5,
      "hand": "left"
    },
    {
      "midi": 60,
      "time": 94.743,
      "duration": 0.256,
      "velocity": 0.53,
      "hand": "right"
    },
    {
      "midi": 65,
      "time": 95,
      "duration": 0.128,
      "velocity": 0.54,
      "hand": "right"
    },
    {
      "midi": 55,
      "time": 95.128,
      "duration": 0.256,
      "velocity": 0.44,
      "hand": "left"
    },
    {
      "midi": 60,
      "time": 95.384,
      "duration": 0.256,
      "velocity": 0.43,
      "hand": "right"
    },
    {
      "midi": 65,
      "time": 95.512,
      "duration": 0.256,
      "velocity": 0.43,
      "hand": "right"
    },
    {
      "midi": 43,
      "time": 95.769,
      "duration": 1.523,
      "velocity": 0.54,
      "hand": "left"
    },
    {
      "midi": 50,
      "time": 95.897,
      "duration": 1.41,
      "velocity": 0.5,
      "hand": "left"
    },
    {
      "midi": 55,
      "time": 96.153,
      "duration": 0.256,
      "velocity": 0.5,
      "hand": "left"
    },
    {
      "midi": 59,
      "time": 96.41,
      "duration": 0.256,
      "velocity": 0.53,
      "hand": "left"
    },
    {
      "midi": 65,
      "time": 96.538,
      "duration": 0.128,
      "velocity": 0.56,
      "hand": "right"
    },
    {
      "midi": 55,
      "time": 96.795,
      "duration": 0.256,
      "velocity": 0.44,
      "hand": "left"
    },
    {
      "midi": 59,
      "time": 96.923,
      "duration": 0.256,
      "velocity": 0.42,
      "hand": "left"
    },
    {
      "midi": 65,
      "time": 97.179,
      "duration": 0.256,
      "velocity": 0.42,
      "hand": "right"
    },
    {
      "midi": 43,
      "time": 97.307,
      "duration": 1.667,
      "velocity": 0.54,
      "hand": "left"
    },
    {
      "midi": 50,
      "time": 97.564,
      "duration": 1.41,
      "velocity": 0.5,
      "hand": "left"
    },
    {
      "midi": 55,
      "time": 97.82,
      "duration": 0.256,
      "velocity": 0.5,
      "hand": "left"
    },
    {
      "midi": 59,
      "time": 97.948,
      "duration": 0.256,
      "velocity": 0.53,
      "hand": "left"
    },
    {
      "midi": 65,
      "time": 98.205,
      "duration": 0.128,
      "velocity": 0.54,
      "hand": "right"
    },
    {
      "midi": 55,
      "time": 98.333,
      "duration": 0.256,
      "velocity": 0.44,
      "hand": "left"
    },
    {
      "midi": 59,
      "time": 98.589,
      "duration": 0.256,
      "velocity": 0.43,
      "hand": "left"
    },
    {
      "midi": 65,
      "time": 98.718,
      "duration": 0.256,
      "velocity": 0.43,
      "hand": "right"
    },
    {
      "midi": 36,
      "time": 98.974,
      "duration": 1.652,
      "velocity": 0.57,
      "hand": "left"
    },
    {
      "midi": 48,
      "time": 99.23,
      "duration": 1.41,
      "velocity": 0.54,
      "hand": "left"
    },
    {
      "midi": 55,
      "time": 99.359,
      "duration": 0.256,
      "velocity": 0.53,
      "hand": "left"
    },
    {
      "midi": 58,
      "time": 99.615,
      "duration": 0.256,
      "velocity": 0.56,
      "hand": "left"
    },
    {
      "midi": 64,
      "time": 99.743,
      "duration": 0.128,
      "velocity": 0.6,
      "hand": "right"
    },
    {
      "midi": 55,
      "time": 100,
      "duration": 0.256,
      "velocity": 0.46,
      "hand": "left"
    },
    {
      "midi": 58,
      "time": 100.256,
      "duration": 0.256,
      "velocity": 0.44,
      "hand": "left"
    },
    {
      "midi": 64,
      "time": 100.384,
      "duration": 0.256,
      "velocity": 0.44,
      "hand": "right"
    },
    {
      "midi": 36,
      "time": 100.641,
      "duration": 1.523,
      "velocity": 0.57,
      "hand": "left"
    },
    {
      "midi": 48,
      "time": 100.769,
      "duration": 1.41,
      "velocity": 0.54,
      "hand": "left"
    },
    {
      "midi": 55,
      "time": 101.025,
      "duration": 0.256,
      "velocity": 0.53,
      "hand": "left"
    },
    {
      "midi": 58,
      "time": 101.282,
      "duration": 0.256,
      "velocity": 0.56,
      "hand": "left"
    },
    {
      "midi": 64,
      "time": 101.41,
      "duration": 0.128,
      "velocity": 0.57,
      "hand": "right"
    },
    {
      "midi": 55,
      "time": 101.666,
      "duration": 0.256,
      "velocity": 0.46,
      "hand": "left"
    },
    {
      "midi": 58,
      "time": 101.795,
      "duration": 0.256,
      "velocity": 0.44,
      "hand": "left"
    },
    {
      "midi": 64,
      "time": 102.051,
      "duration": 0.256,
      "velocity": 0.44,
      "hand": "right"
    },
    {
      "midi": 36,
      "time": 102.179,
      "duration": 3.318,
      "velocity": 0.54,
      "hand": "left"
    },
    {
      "midi": 48,
      "time": 102.436,
      "duration": 3.077,
      "velocity": 0.5,
      "hand": "left"
    },
    {
      "midi": 53,
      "time": 102.692,
      "duration": 0.256,
      "velocity": 0.5,
      "hand": "left"
    },
    {
      "midi": 57,
      "time": 102.82,
      "duration": 0.256,
      "velocity": 0.53,
      "hand": "left"
    },
    {
      "midi": 60,
      "time": 103.077,
      "duration": 0.256,
      "velocity": 0.54,
      "hand": "right"
    },
    {
      "midi": 65,
      "time": 103.205,
      "duration": 0.256,
      "velocity": 0.53,
      "hand": "right"
    },
    {
      "midi": 60,
      "time": 103.461,
      "duration": 0.256,
      "velocity": 0.53,
      "hand": "right"
    },
    {
      "midi": 57,
      "time": 103.718,
      "duration": 0.256,
      "velocity": 0.53,
      "hand": "left"
    },
    {
      "midi": 60,
      "time": 103.846,
      "duration": 0.256,
      "velocity": 0.54,
      "hand": "right"
    },
    {
      "midi": 57,
      "time": 104.102,
      "duration": 0.256,
      "velocity": 0.5,
      "hand": "left"
    },
    {
      "midi": 53,
      "time": 104.23,
      "duration": 0.256,
      "velocity": 0.46,
      "hand": "left"
    },
    {
      "midi": 57,
      "time": 104.487,
      "duration": 0.256,
      "velocity": 0.46,
      "hand": "left"
    },
    {
      "midi": 53,
      "time": 104.615,
      "duration": 0.256,
      "velocity": 0.46,
      "hand": "left"
    },
    {
      "midi": 50,
      "time": 104.871,
      "duration": 0.256,
      "velocity": 0.42,
      "hand": "left"
    },
    {
      "midi": 53,
      "time": 105.128,
      "duration": 0.256,
      "velocity": 0.43,
      "hand": "left"
    },
    {
      "midi": 50,
      "time": 105.256,
      "duration": 0.256,
      "velocity": 0.38,
      "hand": "left"
    },
    {
      "midi": 36,
      "time": 105.512,
      "duration": 4.088,
      "velocity": 0.54,
      "hand": "left"
    },
    {
      "midi": 50,
      "time": 105.769,
      "duration": 3.846,
      "velocity": 0.5,
      "hand": "left"
    },
    {
      "midi": 67,
      "time": 106.025,
      "duration": 0.256,
      "velocity": 0.5,
      "hand": "right"
    },
    {
      "midi": 71,
      "time": 106.153,
      "duration": 0.256,
      "velocity": 0.53,
      "hand": "right"
    },
    {
      "midi": 74,
      "time": 106.41,
      "duration": 0.256,
      "velocity": 0.54,
      "hand": "right"
    },
    {
      "midi": 77,
      "time": 106.666,
      "duration": 0.256,
      "velocity": 0.6,
      "hand": "right"
    },
    {
      "midi": 74,
      "time": 106.795,
      "duration": 0.256,
      "velocity": 0.54,
      "hand": "right"
    },
    {
      "midi": 71,
      "time": 107.051,
      "duration": 0.256,
      "velocity": 0.53,
      "hand": "right"
    },
    {
      "midi": 74,
      "time": 107.307,
      "duration": 0.256,
      "velocity": 0.56,
      "hand": "right"
    },
    {
      "midi": 71,
      "time": 107.436,
      "duration": 0.256,
      "velocity": 0.53,
      "hand": "right"
    },
    {
      "midi": 67,
      "time": 107.692,
      "duration": 0.256,
      "velocity": 0.56,
      "hand": "right"
    },
    {
      "midi": 71,
      "time": 107.948,
      "duration": 0.256,
      "velocity": 0.53,
      "hand": "right"
    },
    {
      "midi": 62,
      "time": 108.205,
      "duration": 0.256,
      "velocity": 0.54,
      "hand": "right"
    },
    {
      "midi": 65,
      "time": 108.461,
      "duration": 0.256,
      "velocity": 0.5,
      "hand": "right"
    },
    {
      "midi": 64,
      "time": 108.846,
      "duration": 0.385,
      "velocity": 0.5,
      "hand": "right"
    },
    {
      "midi": 62,
      "time": 109.102,
      "duration": 0.513,
      "velocity": 0.5,
      "hand": "right"
    },
    {
      "midi": 36,
      "time": 109.615,
      "duration": 5.769,
      "velocity": 0.53,
      "hand": "left"
    },
    {
      "midi": 48,
      "time": 109.615,
      "duration": 5.769,
      "velocity": 0.53,
      "hand": "left"
    },
    {
      "midi": 64,
      "time": 109.615,
      "duration": 5.769,
      "velocity": 0.5,
      "hand": "right"
    },
    {
      "midi": 67,
      "time": 109.615,
      "duration": 5.769,
      "velocity": 0.5,
      "hand": "right"
    },
    {
      "midi": 72,
      "time": 109.615,
      "duration": 5.769,
      "velocity": 0.5,
      "hand": "right"
    },
    {
      "midi": 60,
      "time": 117.692,
      "duration": 0.513,
      "velocity": 0.53,
      "hand": "right"
    },
    {
      "midi": 62,
      "time": 118.205,
      "duration": 0.513,
      "velocity": 0.54,
      "hand": "right"
    },
    {
      "midi": 64,
      "time": 118.718,
      "duration": 0.513,
      "velocity": 0.56,
      "hand": "right"
    },
    {
      "midi": 65,
      "time": 119.102,
      "duration": 0.769,
      "velocity": 0.6,
      "hand": "right"
    },
    {
      "midi": 67,
      "time": 119.871,
      "duration": 0.128,
      "velocity": 0.57,
      "hand": "right"
    },
    {
      "midi": 65,
      "time": 120,
      "duration": 0.128,
      "velocity": 0.57,
      "hand": "right"
    },
    {
      "midi": 64,
      "time": 120.128,
      "duration": 0.385,
      "velocity": 0.6,
      "hand": "right"
    },
    {
      "midi": 69,
      "time": 120.512,
      "duration": 0.513,
      "velocity": 0.6,
      "hand": "right"
    },
    {
      "midi": 62,
      "time": 121.025,
      "duration": 0.385,
      "velocity": 0.56,
      "hand": "right"
    },
    {
      "midi": 67,
      "time": 121.538,
      "duration": 0.769,
      "velocity": 0.6,
      "hand": "right"
    },
    {
      "midi": 69,
      "time": 122.307,
      "duration": 0.256,
      "velocity": 0.58,
      "hand": "right"
    },
    {
      "midi": 67,
      "time": 122.436,
      "duration": 0.256,
      "velocity": 0.58,
      "hand": "right"
    },
    {
      "midi": 65,
      "time": 122.692,
      "duration": 0.256,
      "velocity": 0.58,
      "hand": "right"
    },
    {
      "midi": 64,
      "time": 122.948,
      "duration": 0.256,
      "velocity": 0.57,
      "hand": "right"
    },
    {
      "midi": 65,
      "time": 123.205,
      "duration": 0.256,
      "velocity": 0.57,
      "hand": "right"
    },
    {
      "midi": 64,
      "time": 123.461,
      "duration": 0.256,
      "velocity": 0.57,
      "hand": "right"
    },
    {
      "midi": 67,
      "time": 123.461,
      "duration": 0.513,
      "velocity": 0.53,
      "hand": "right"
    },
    {
      "midi": 62,
      "time": 123.718,
      "duration": 0.256,
      "velocity": 0.57,
      "hand": "right"
    },
    {
      "midi": 60,
      "time": 123.846,
      "duration": 0.256,
      "velocity": 0.57,
      "hand": "right"
    },
    {
      "midi": 69,
      "time": 123.846,
      "duration": 0.513,
      "velocity": 0.54,
      "hand": "right"
    },
    {
      "midi": 62,
      "time": 124.102,
      "duration": 0.256,
      "velocity": 0.56,
      "hand": "right"
    },
    {
      "midi": 60,
      "time": 124.359,
      "duration": 0.256,
      "velocity": 0.56,
      "hand": "right"
    },
    {
      "midi": 71,
      "time": 124.359,
      "duration": 0.513,
      "velocity": 0.54,
      "hand": "right"
    },
    {
      "midi": 59,
      "time": 124.615,
      "duration": 0.256,
      "velocity": 0.56,
      "hand": "left"
    },
    {
      "midi": 57,
      "time": 124.871,
      "duration": 0.513,
      "velocity": 0.56,
      "hand": "left"
    },
    {
      "midi": 72,
      "time": 124.871,
      "duration": 0.755,
      "velocity": 0.6,
      "hand": "right"
    },
    {
      "midi": 66,
      "time": 125.384,
      "duration": 0.513,
      "velocity": 0.56,
      "hand": "right"
    },
    {
      "midi": 74,
      "time": 125.512,
      "duration": 0.128,
      "velocity": 0.57,
      "hand": "right"
    },
    {
      "midi": 72,
      "time": 125.641,
      "duration": 0.128,
      "velocity": 0.57,
      "hand": "right"
    },
    {
      "midi": 67,
      "time": 125.769,
      "duration": 1.41,
      "velocity": 0.6,
      "hand": "right"
    },
    {
      "midi": 71,
      "time": 125.769,
      "duration": 0.385,
      "velocity": 0.57,
      "hand": "right"
    },
    {
      "midi": 76,
      "time": 126.282,
      "duration": 0.513,
      "velocity": 0.6,
      "hand": "right"
    },
    {
      "midi": 69,
      "time": 126.795,
      "duration": 0.385,
      "velocity": 0.56,
      "hand": "right"
    },
    {
      "midi": 66,
      "time": 127.179,
      "duration": 0.256,
      "velocity": 0.57,
      "hand": "right"
    },
    {
      "midi": 74,
      "time": 127.179,
      "duration": 0.641,
      "velocity": 0.6,
      "hand": "right"
    },
    {
      "midi": 64,
      "time": 127.436,
      "duration": 0.256,
      "velocity": 0.57,
      "hand": "right"
    },
    {
      "midi": 66,
      "time": 127.692,
      "duration": 0.385,
      "velocity": 0.57,
      "hand": "right"
    },
    {
      "midi": 76,
      "time": 127.948,
      "duration": 0.256,
      "velocity": 0.57,
      "hand": "right"
    },
    {
      "midi": 62,
      "time": 128.205,
      "duration": 0.513,
      "velocity": 0.57,
      "hand": "right"
    },
    {
      "midi": 74,
      "time": 128.205,
      "duration": 0.256,
      "velocity": 0.57,
      "hand": "right"
    },
    {
      "midi": 72,
      "time": 128.461,
      "duration": 0.256,
      "velocity": 0.56,
      "hand": "right"
    },
    {
      "midi": 67,
      "time": 128.589,
      "duration": 0.242,
      "velocity": 0.58,
      "hand": "right"
    },
    {
      "midi": 71,
      "time": 128.589,
      "duration": 0.128,
      "velocity": 0.54,
      "hand": "right"
    },
    {
      "midi": 67,
      "time": 128.846,
      "duration": 0.256,
      "velocity": 0.54,
      "hand": "right"
    },
    {
      "midi": 55,
      "time": 129.102,
      "duration": 0.513,
      "velocity": 0.5,
      "hand": "left"
    },
    {
      "midi": 65,
      "time": 129.102,
      "duration": 0.513,
      "velocity": 0.57,
      "hand": "right"
    },
    {
      "midi": 69,
      "time": 129.102,
      "duration": 0.256,
      "velocity": 0.56,
      "hand": "right"
    },
    {
      "midi": 71,
      "time": 129.359,
      "duration": 0.256,
      "velocity": 0.57,
      "hand": "right"
    },
    {
      "midi": 57,
      "time": 129.615,
      "duration": 0.513,
      "velocity": 0.51,
      "hand": "left"
    },
    {
      "midi": 64,
      "time": 129.615,
      "duration": 0.513,
      "velocity": 0.57,
      "hand": "right"
    },
    {
      "midi": 72,
      "time": 129.615,
      "duration": 0.256,
      "velocity": 0.57,
      "hand": "right"
    },
    {
      "midi": 71,
      "time": 129.871,
      "duration": 0.256,
      "velocity": 0.53,
      "hand": "right"
    },
    {
      "midi": 59,
      "time": 130,
      "duration": 0.513,
      "velocity": 0.54,
      "hand": "left"
    },
    {
      "midi": 62,
      "time": 130,
      "duration": 0.513,
      "velocity": 0.56,
      "hand": "right"
    },
    {
      "midi": 72,
      "time": 130,
      "duration": 0.256,
      "velocity": 0.54,
      "hand": "right"
    },
    {
      "midi": 74,
      "time": 130.256,
      "duration": 0.256,
      "velocity": 0.54,
      "hand": "right"
    },
    {
      "midi": 60,
      "time": 130.512,
      "duration": 0.769,
      "velocity": 0.6,
      "hand": "right"
    },
    {
      "midi": 76,
      "time": 130.512,
      "duration": 0.256,
      "velocity": 0.56,
      "hand": "right"
    },
    {
      "midi": 74,
      "time": 130.769,
      "duration": 0.256,
      "velocity": 0.57,
      "hand": "right"
    },
    {
      "midi": 76,
      "time": 131.025,
      "duration": 0.256,
      "velocity": 0.57,
      "hand": "right"
    },
    {
      "midi": 62,
      "time": 131.282,
      "duration": 0.128,
      "velocity": 0.57,
      "hand": "right"
    },
    {
      "midi": 78,
      "time": 131.282,
      "duration": 0.256,
      "velocity": 0.58,
      "hand": "right"
    },
    {
      "midi": 60,
      "time": 131.41,
      "duration": 0.128,
      "velocity": 0.57,
      "hand": "right"
    },
    {
      "midi": 79,
      "time": 131.41,
      "duration": 0.513,
      "velocity": 0.6,
      "hand": "right"
    },
    {
      "midi": 64,
      "time": 131.923,
      "duration": 0.513,
      "velocity": 0.6,
      "hand": "right"
    },
    {
      "midi": 67,
      "time": 131.923,
      "duration": 0.897,
      "velocity": 0.6,
      "hand": "right"
    },
    {
      "midi": 71,
      "time": 131.923,
      "duration": 0.513,
      "velocity": 0.56,
      "hand": "right"
    },
    {
      "midi": 57,
      "time": 132.436,
      "duration": 0.385,
      "velocity": 0.56,
      "hand": "left"
    },
    {
      "midi": 72,
      "time": 132.436,
      "duration": 0.385,
      "velocity": 0.6,
      "hand": "right"
    },
    {
      "midi": 65,
      "time": 132.82,
      "duration": 0.256,
      "velocity": 0.57,
      "hand": "right"
    },
    {
      "midi": 69,
      "time": 132.82,
      "duration": 0.513,
      "velocity": 0.54,
      "hand": "right"
    },
    {
      "midi": 62,
      "time": 132.948,
      "duration": 0.641,
      "velocity": 0.6,
      "hand": "right"
    },
    {
      "midi": 64,
      "time": 133.077,
      "duration": 0.256,
      "velocity": 0.57,
      "hand": "right"
    },
    {
      "midi": 65,
      "time": 133.333,
      "duration": 1.139,
      "velocity": 0.57,
      "hand": "right"
    },
    {
      "midi": 74,
      "time": 133.333,
      "duration": 0.256,
      "velocity": 0.57,
      "hand": "right"
    },
    {
      "midi": 64,
      "time": 133.589,
      "duration": 0.256,
      "velocity": 0.57,
      "hand": "right"
    },
    {
      "midi": 72,
      "time": 133.589,
      "duration": 0.256,
      "velocity": 0.57,
      "hand": "right"
    },
    {
      "midi": 62,
      "time": 133.846,
      "duration": 0.256,
      "velocity": 0.57,
      "hand": "right"
    },
    {
      "midi": 71,
      "time": 133.846,
      "duration": 0.256,
      "velocity": 0.56,
      "hand": "right"
    },
    {
      "midi": 60,
      "time": 134.102,
      "duration": 0.256,
      "velocity": 0.56,
      "hand": "right"
    },
    {
      "midi": 69,
      "time": 134.102,
      "duration": 0.256,
      "velocity": 0.54,
      "hand": "right"
    },
    {
      "midi": 59,
      "time": 134.23,
      "duration": 0.385,
      "velocity": 0.54,
      "hand": "left"
    },
    {
      "midi": 67,
      "time": 134.23,
      "duration": 0.755,
      "velocity": 0.54,
      "hand": "right"
    },
    {
      "midi": 65,
      "time": 134.487,
      "duration": 0.256,
      "velocity": 0.57,
      "hand": "right"
    },
    {
      "midi": 48,
      "time": 134.743,
      "duration": 0.513,
      "velocity": 0.5,
      "hand": "left"
    },
    {
      "midi": 60,
      "time": 134.743,
      "duration": 0.897,
      "velocity": 0.6,
      "hand": "right"
    },
    {
      "midi": 64,
      "time": 134.743,
      "duration": 0.513,
      "velocity": 0.57,
      "hand": "right"
    },
    {
      "midi": 67,
      "time": 135,
      "duration": 0.256,
      "velocity": 0.56,
      "hand": "right"
    },
    {
      "midi": 50,
      "time": 135.256,
      "duration": 0.513,
      "velocity": 0.53,
      "hand": "left"
    },
    {
      "midi": 62,
      "time": 135.256,
      "duration": 0.897,
      "velocity": 0.57,
      "hand": "right"
    },
    {
      "midi": 65,
      "time": 135.256,
      "duration": 0.256,
      "velocity": 0.54,
      "hand": "right"
    },
    {
      "midi": 64,
      "time": 135.512,
      "duration": 0.256,
      "velocity": 0.54,
      "hand": "right"
    },
    {
      "midi": 52,
      "time": 135.769,
      "duration": 0.513,
      "velocity": 0.56,
      "hand": "left"
    },
    {
      "midi": 58,
      "time": 135.769,
      "duration": 0.513,
      "velocity": 0.57,
      "hand": "left"
    },
    {
      "midi": 65,
      "time": 135.769,
      "duration": 0.256,
      "velocity": 0.54,
      "hand": "right"
    },
    {
      "midi": 67,
      "time": 135.897,
      "duration": 0.256,
      "velocity": 0.54,
      "hand": "right"
    },
    {
      "midi": 53,
      "time": 136.153,
      "duration": 0.641,
      "velocity": 0.6,
      "hand": "left"
    },
    {
      "midi": 57,
      "time": 136.153,
      "duration": 0.385,
      "velocity": 0.56,
      "hand": "left"
    },
    {
      "midi": 60,
      "time": 136.153,
      "duration": 0.513,
      "velocity": 0.56,
      "hand": "right"
    },
    {
      "midi": 69,
      "time": 136.153,
      "duration": 0.256,
      "velocity": 0.54,
      "hand": "right"
    },
    {
      "midi": 67,
      "time": 136.41,
      "duration": 0.256,
      "velocity": 0.56,
      "hand": "right"
    },
    {
      "midi": 62,
      "time": 136.666,
      "duration": 0.513,
      "velocity": 0.6,
      "hand": "right"
    },
    {
      "midi": 65,
      "time": 136.666,
      "duration": 0.513,
      "velocity": 0.6,
      "hand": "right"
    },
    {
      "midi": 69,
      "time": 136.666,
      "duration": 0.256,
      "velocity": 0.54,
      "hand": "right"
    },
    {
      "midi": 55,
      "time": 136.923,
      "duration": 0.113,
      "velocity": 0.57,
      "hand": "left"
    },
    {
      "midi": 71,
      "time": 136.923,
      "duration": 0.256,
      "velocity": 0.57,
      "hand": "right"
    },
    {
      "midi": 53,
      "time": 137.051,
      "duration": 0.128,
      "velocity": 0.57,
      "hand": "left"
    },
    {
      "midi": 72,
      "time": 137.051,
      "duration": 1.923,
      "velocity": 0.58,
      "hand": "right"
    },
    {
      "midi": 67,
      "time": 137.307,
      "duration": 0.256,
      "velocity": 0.57,
      "hand": "right"
    },
    {
      "midi": 57,
      "time": 137.564,
      "duration": 0.513,
      "velocity": 0.6,
      "hand": "left"
    },
    {
      "midi": 60,
      "time": 137.564,
      "duration": 0.513,
      "velocity": 0.6,
      "hand": "right"
    },
    {
      "midi": 65,
      "time": 137.564,
      "duration": 0.256,
      "velocity": 0.57,
      "hand": "right"
    },
    {
      "midi": 64,
      "time": 137.82,
      "duration": 0.256,
      "velocity": 0.57,
      "hand": "right"
    },
    {
      "midi": 50,
      "time": 138.077,
      "duration": 0.385,
      "velocity": 0.54,
      "hand": "left"
    },
    {
      "midi": 65,
      "time": 138.077,
      "duration": 0.385,
      "velocity": 0.57,
      "hand": "right"
    },
    {
      "midi": 57,
      "time": 138.333,
      "duration": 0.256,
      "velocity": 0.54,
      "hand": "left"
    },
    {
      "midi": 55,
      "time": 138.589,
      "duration": 0.769,
      "velocity": 0.6,
      "hand": "left"
    },
    {
      "midi": 59,
      "time": 138.589,
      "duration": 0.256,
      "velocity": 0.56,
      "hand": "left"
    },
    {
      "midi": 62,
      "time": 138.589,
      "duration": 0.37,
      "velocity": 0.56,
      "hand": "right"
    },
    {
      "midi": 60,
      "time": 138.718,
      "duration": 0.256,
      "velocity": 0.57,
      "hand": "right"
    },
    {
      "midi": 62,
      "time": 138.974,
      "duration": 0.897,
      "velocity": 0.58,
      "hand": "right"
    },
    {
      "midi": 67,
      "time": 138.974,
      "duration": 1.923,
      "velocity": 0.61,
      "hand": "right"
    },
    {
      "midi": 71,
      "time": 138.974,
      "duration": 0.897,
      "velocity": 0.57,
      "hand": "right"
    },
    {
      "midi": 57,
      "time": 139.23,
      "duration": 0.256,
      "velocity": 0.58,
      "hand": "left"
    },
    {
      "midi": 55,
      "time": 139.487,
      "duration": 0.256,
      "velocity": 0.57,
      "hand": "left"
    },
    {
      "midi": 53,
      "time": 139.743,
      "duration": 0.256,
      "velocity": 0.57,
      "hand": "left"
    },
    {
      "midi": 52,
      "time": 139.871,
      "duration": 0.128,
      "velocity": 0.56,
      "hand": "left"
    },
    {
      "midi": 55,
      "time": 139.871,
      "duration": 0.897,
      "velocity": 0.6,
      "hand": "left"
    },
    {
      "midi": 53,
      "time": 140.128,
      "duration": 0.256,
      "velocity": 0.57,
      "hand": "left"
    },
    {
      "midi": 52,
      "time": 140.384,
      "duration": 0.256,
      "velocity": 0.56,
      "hand": "left"
    },
    {
      "midi": 72,
      "time": 140.384,
      "duration": 0.513,
      "velocity": 0.6,
      "hand": "right"
    },
    {
      "midi": 50,
      "time": 140.641,
      "duration": 0.256,
      "velocity": 0.54,
      "hand": "left"
    },
    {
      "midi": 48,
      "time": 140.897,
      "duration": 0.128,
      "velocity": 0.54,
      "hand": "left"
    },
    {
      "midi": 74,
      "time": 140.897,
      "duration": 0.513,
      "velocity": 0.62,
      "hand": "right"
    },
    {
      "midi": 50,
      "time": 141.153,
      "duration": 0.256,
      "velocity": 0.57,
      "hand": "left"
    },
    {
      "midi": 55,
      "time": 141.282,
      "duration": 0.513,
      "velocity": 0.53,
      "hand": "left"
    },
    {
      "midi": 76,
      "time": 141.282,
      "duration": 0.513,
      "velocity": 0.64,
      "hand": "right"
    },
    {
      "midi": 48,
      "time": 141.41,
      "duration": 0.256,
      "velocity": 0.56,
      "hand": "left"
    },
    {
      "midi": 47,
      "time": 141.538,
      "duration": 0.256,
      "velocity": 0.54,
      "hand": "left"
    },
    {
      "midi": 45,
      "time": 141.795,
      "duration": 0.385,
      "velocity": 0.54,
      "hand": "left"
    },
    {
      "midi": 57,
      "time": 141.795,
      "duration": 0.513,
      "velocity": 0.54,
      "hand": "left"
    },
    {
      "midi": 77,
      "time": 141.795,
      "duration": 0.769,
      "velocity": 0.69,
      "hand": "right"
    },
    {
      "midi": 50,
      "time": 142.307,
      "duration": 0.513,
      "velocity": 0.57,
      "hand": "left"
    },
    {
      "midi": 59,
      "time": 142.307,
      "duration": 0.513,
      "velocity": 0.54,
      "hand": "left"
    },
    {
      "midi": 79,
      "time": 142.564,
      "duration": 0.128,
      "velocity": 0.65,
      "hand": "right"
    },
    {
      "midi": 77,
      "time": 142.692,
      "duration": 0.128,
      "velocity": 0.65,
      "hand": "right"
    },
    {
      "midi": 57,
      "time": 142.82,
      "duration": 0.513,
      "velocity": 0.6,
      "hand": "left"
    },
    {
      "midi": 60,
      "time": 142.82,
      "duration": 0.641,
      "velocity": 0.6,
      "hand": "right"
    },
    {
      "midi": 76,
      "time": 142.82,
      "duration": 0.385,
      "velocity": 0.65,
      "hand": "right"
    },
    {
      "midi": 54,
      "time": 143.205,
      "duration": 0.513,
      "velocity": 0.57,
      "hand": "left"
    },
    {
      "midi": 81,
      "time": 143.205,
      "duration": 0.513,
      "velocity": 0.69,
      "hand": "right"
    },
    {
      "midi": 62,
      "time": 143.461,
      "duration": 0.128,
      "velocity": 0.57,
      "hand": "right"
    },
    {
      "midi": 60,
      "time": 143.589,
      "duration": 0.128,
      "velocity": 0.57,
      "hand": "right"
    },
    {
      "midi": 55,
      "time": 143.718,
      "duration": 0.256,
      "velocity": 0.57,
      "hand": "left"
    },
    {
      "midi": 59,
      "time": 143.718,
      "duration": 0.385,
      "velocity": 0.57,
      "hand": "left"
    },
    {
      "midi": 74,
      "time": 143.718,
      "duration": 0.385,
      "velocity": 0.64,
      "hand": "right"
    },
    {
      "midi": 57,
      "time": 143.974,
      "duration": 0.256,
      "velocity": 0.57,
      "hand": "left"
    },
    {
      "midi": 58,
      "time": 144.23,
      "duration": 0.256,
      "velocity": 0.6,
      "hand": "left"
    },
    {
      "midi": 64,
      "time": 144.23,
      "duration": 0.513,
      "velocity": 0.6,
      "hand": "right"
    },
    {
      "midi": 79,
      "time": 144.23,
      "duration": 0.769,
      "velocity": 0.69,
      "hand": "right"
    },
    {
      "midi": 55,
      "time": 144.359,
      "duration": 0.256,
      "velocity": 0.57,
      "hand": "left"
    },
    {
      "midi": 49,
      "time": 144.615,
      "duration": 0.513,
      "velocity": 0.56,
      "hand": "left"
    },
    {
      "midi": 57,
      "time": 144.615,
      "duration": 0.385,
      "velocity": 0.56,
      "hand": "left"
    },
    {
      "midi": 81,
      "time": 144.871,
      "duration": 0.256,
      "velocity": 0.67,
      "hand": "right"
    },
    {
      "midi": 50,
      "time": 145.128,
      "duration": 0.513,
      "velocity": 0.57,
      "hand": "left"
    },
    {
      "midi": 62,
      "time": 145.128,
      "duration": 0.641,
      "velocity": 0.6,
      "hand": "right"
    },
    {
      "midi": 79,
      "time": 145.128,
      "duration": 0.256,
      "velocity": 0.65,
      "hand": "right"
    },
    {
      "midi": 77,
      "time": 145.384,
      "duration": 0.256,
      "velocity": 0.64,
      "hand": "right"
    },
    {
      "midi": 57,
      "time": 145.641,
      "duration": 0.897,
      "velocity": 0.57,
      "hand": "left"
    },
    {
      "midi": 76,
      "time": 145.641,
      "duration": 0.385,
      "velocity": 0.62,
      "hand": "right"
    },
    {
      "midi": 64,
      "time": 145.769,
      "duration": 0.256,
      "velocity": 0.57,
      "hand": "right"
    },
    {
      "midi": 62,
      "time": 146.025,
      "duration": 0.256,
      "velocity": 0.56,
      "hand": "right"
    },
    {
      "midi": 81,
      "time": 146.025,
      "duration": 0.769,
      "velocity": 0.69,
      "hand": "right"
    },
    {
      "midi": 60,
      "time": 146.282,
      "duration": 0.256,
      "velocity": 0.56,
      "hand": "right"
    },
    {
      "midi": 52,
      "time": 146.538,
      "duration": 0.897,
      "velocity": 0.56,
      "hand": "left"
    },
    {
      "midi": 59,
      "time": 146.538,
      "duration": 0.513,
      "velocity": 0.54,
      "hand": "left"
    },
    {
      "midi": 83,
      "time": 146.795,
      "duration": 0.256,
      "velocity": 0.68,
      "hand": "right"
    },
    {
      "midi": 64,
      "time": 147.051,
      "duration": 1.41,
      "velocity": 0.6,
      "hand": "right"
    },
    {
      "midi": 81,
      "time": 147.051,
      "duration": 0.256,
      "velocity": 0.67,
      "hand": "right"
    },
    {
      "midi": 79,
      "time": 147.179,
      "duration": 0.256,
      "velocity": 0.65,
      "hand": "right"
    },
    {
      "midi": 57,
      "time": 147.436,
      "duration": 0.256,
      "velocity": 0.56,
      "hand": "left"
    },
    {
      "midi": 77,
      "time": 147.436,
      "duration": 1.923,
      "velocity": 0.65,
      "hand": "right"
    },
    {
      "midi": 59,
      "time": 147.692,
      "duration": 0.256,
      "velocity": 0.57,
      "hand": "left"
    },
    {
      "midi": 60,
      "time": 147.948,
      "duration": 0.256,
      "velocity": 0.57,
      "hand": "right"
    },
    {
      "midi": 67,
      "time": 147.948,
      "duration": 0.513,
      "velocity": 0.5,
      "hand": "right"
    },
    {
      "midi": 62,
      "time": 148.205,
      "duration": 0.241,
      "velocity": 0.58,
      "hand": "right"
    },
    {
      "midi": 60,
      "time": 148.461,
      "duration": 0.256,
      "velocity": 0.6,
      "hand": "right"
    },
    {
      "midi": 62,
      "time": 148.461,
      "duration": 0.897,
      "velocity": 0.6,
      "hand": "right"
    },
    {
      "midi": 69,
      "time": 148.461,
      "duration": 0.513,
      "velocity": 0.53,
      "hand": "right"
    },
    {
      "midi": 59,
      "time": 148.718,
      "duration": 0.256,
      "velocity": 0.57,
      "hand": "left"
    },
    {
      "midi": 57,
      "time": 148.846,
      "duration": 0.256,
      "velocity": 0.56,
      "hand": "left"
    },
    {
      "midi": 71,
      "time": 148.846,
      "duration": 0.513,
      "velocity": 0.56,
      "hand": "right"
    },
    {
      "midi": 55,
      "time": 149.102,
      "duration": 0.256,
      "velocity": 0.54,
      "hand": "left"
    },
    {
      "midi": 60,
      "time": 149.359,
      "duration": 0.497,
      "velocity": 0.6,
      "hand": "right"
    },
    {
      "midi": 72,
      "time": 149.359,
      "duration": 0.754,
      "velocity": 0.6,
      "hand": "right"
    },
    {
      "midi": 76,
      "time": 149.359,
      "duration": 0.769,
      "velocity": 0.6,
      "hand": "right"
    },
    {
      "midi": 59,
      "time": 149.615,
      "duration": 0.256,
      "velocity": 0.57,
      "hand": "left"
    },
    {
      "midi": 60,
      "time": 149.871,
      "duration": 0.256,
      "velocity": 0.6,
      "hand": "right"
    },
    {
      "midi": 57,
      "time": 150.128,
      "duration": 0.128,
      "velocity": 0.57,
      "hand": "left"
    },
    {
      "midi": 72,
      "time": 150.128,
      "duration": 0.128,
      "velocity": 0.57,
      "hand": "right"
    },
    {
      "midi": 74,
      "time": 150.128,
      "duration": 0.128,
      "velocity": 0.57,
      "hand": "right"
    },
    {
      "midi": 78,
      "time": 150.128,
      "duration": 0.256,
      "velocity": 0.57,
      "hand": "right"
    },
    {
      "midi": 64,
      "time": 150.256,
      "duration": 0.256,
      "velocity": 0.57,
      "hand": "right"
    },
    {
      "midi": 71,
      "time": 150.256,
      "duration": 0.385,
      "velocity": 0.57,
      "hand": "right"
    },
    {
      "midi": 79,
      "time": 150.256,
      "duration": 1.923,
      "velocity": 0.62,
      "hand": "right"
    },
    {
      "midi": 62,
      "time": 150.512,
      "duration": 0.256,
      "velocity": 0.57,
      "hand": "right"
    },
    {
      "midi": 60,
      "time": 150.769,
      "duration": 0.256,
      "velocity": 0.57,
      "hand": "right"
    },
    {
      "midi": 76,
      "time": 150.769,
      "duration": 0.513,
      "velocity": 0.6,
      "hand": "right"
    },
    {
      "midi": 59,
      "time": 151.025,
      "duration": 0.256,
      "velocity": 0.57,
      "hand": "left"
    },
    {
      "midi": 60,
      "time": 151.282,
      "duration": 0.128,
      "velocity": 0.6,
      "hand": "right"
    },
    {
      "midi": 69,
      "time": 151.282,
      "duration": 0.385,
      "velocity": 0.56,
      "hand": "right"
    },
    {
      "midi": 57,
      "time": 151.538,
      "duration": 0.256,
      "velocity": 0.54,
      "hand": "left"
    },
    {
      "midi": 59,
      "time": 151.795,
      "duration": 0.256,
      "velocity": 0.56,
      "hand": "left"
    },
    {
      "midi": 74,
      "time": 151.795,
      "duration": 0.641,
      "velocity": 0.6,
      "hand": "right"
    },
    {
      "midi": 60,
      "time": 151.923,
      "duration": 0.256,
      "velocity": 0.57,
      "hand": "right"
    },
    {
      "midi": 62,
      "time": 152.179,
      "duration": 0.256,
      "velocity": 0.6,
      "hand": "right"
    },
    {
      "midi": 78,
      "time": 152.179,
      "duration": 0.897,
      "velocity": 0.62,
      "hand": "right"
    },
    {
      "midi": 60,
      "time": 152.436,
      "duration": 0.256,
      "velocity": 0.58,
      "hand": "right"
    },
    {
      "midi": 76,
      "time": 152.436,
      "duration": 0.256,
      "velocity": 0.57,
      "hand": "right"
    },
    {
      "midi": 59,
      "time": 152.692,
      "duration": 0.256,
      "velocity": 0.57,
      "hand": "left"
    },
    {
      "midi": 74,
      "time": 152.692,
      "duration": 0.256,
      "velocity": 0.56,
      "hand": "right"
    },
    {
      "midi": 57,
      "time": 152.948,
      "duration": 0.256,
      "velocity": 0.57,
      "hand": "left"
    },
    {
      "midi": 72,
      "time": 152.948,
      "duration": 0.256,
      "velocity": 0.54,
      "hand": "right"
    },
    {
      "midi": 55,
      "time": 153.077,
      "duration": 0.897,
      "velocity": 0.56,
      "hand": "left"
    },
    {
      "midi": 71,
      "time": 153.077,
      "duration": 0.513,
      "velocity": 0.54,
      "hand": "right"
    },
    {
      "midi": 79,
      "time": 153.077,
      "duration": 0.256,
      "velocity": 0.6,
      "hand": "right"
    },
    {
      "midi": 77,
      "time": 153.333,
      "duration": 0.256,
      "velocity": 0.58,
      "hand": "right"
    },
    {
      "midi": 43,
      "time": 153.589,
      "duration": 0.513,
      "velocity": 0.54,
      "hand": "left"
    },
    {
      "midi": 76,
      "time": 153.589,
      "duration": 0.256,
      "velocity": 0.57,
      "hand": "right"
    },
    {
      "midi": 74,
      "time": 153.846,
      "duration": 0.256,
      "velocity": 0.57,
      "hand": "right"
    },
    {
      "midi": 45,
      "time": 154.102,
      "duration": 0.513,
      "velocity": 0.54,
      "hand": "left"
    },
    {
      "midi": 72,
      "time": 154.102,
      "duration": 0.256,
      "velocity": 0.56,
      "hand": "right"
    },
    {
      "midi": 74,
      "time": 154.23,
      "duration": 0.256,
      "velocity": 0.57,
      "hand": "right"
    },
    {
      "midi": 47,
      "time": 154.487,
      "duration": 0.513,
      "velocity": 0.54,
      "hand": "left"
    },
    {
      "midi": 62,
      "time": 154.487,
      "duration": 0.513,
      "velocity": 0.5,
      "hand": "right"
    },
    {
      "midi": 72,
      "time": 154.487,
      "duration": 0.256,
      "velocity": 0.57,
      "hand": "right"
    },
    {
      "midi": 71,
      "time": 154.743,
      "duration": 0.256,
      "velocity": 0.57,
      "hand": "right"
    },
    {
      "midi": 48,
      "time": 155,
      "duration": 0.641,
      "velocity": 0.6,
      "hand": "left"
    },
    {
      "midi": 64,
      "time": 155,
      "duration": 0.513,
      "velocity": 0.51,
      "hand": "right"
    },
    {
      "midi": 69,
      "time": 155,
      "duration": 0.256,
      "velocity": 0.57,
      "hand": "right"
    },
    {
      "midi": 72,
      "time": 155.256,
      "duration": 0.256,
      "velocity": 0.57,
      "hand": "right"
    },
    {
      "midi": 66,
      "time": 155.512,
      "duration": 0.513,
      "velocity": 0.54,
      "hand": "right"
    },
    {
      "midi": 71,
      "time": 155.512,
      "duration": 0.256,
      "velocity": 0.57,
      "hand": "right"
    },
    {
      "midi": 50,
      "time": 155.641,
      "duration": 0.128,
      "velocity": 0.57,
      "hand": "left"
    },
    {
      "midi": 69,
      "time": 155.641,
      "duration": 0.256,
      "velocity": 0.57,
      "hand": "right"
    },
    {
      "midi": 48,
      "time": 155.769,
      "duration": 0.128,
      "velocity": 0.57,
      "hand": "left"
    },
    {
      "midi": 47,
      "time": 155.897,
      "duration": 0.385,
      "velocity": 0.57,
      "hand": "left"
    },
    {
      "midi": 67,
      "time": 155.897,
      "duration": 0.641,
      "velocity": 0.6,
      "hand": "right"
    },
    {
      "midi": 52,
      "time": 156.41,
      "duration": 0.513,
      "velocity": 0.6,
      "hand": "left"
    },
    {
      "midi": 67,
      "time": 156.666,
      "duration": 0.128,
      "velocity": 0.57,
      "hand": "right"
    },
    {
      "midi": 69,
      "time": 156.666,
      "duration": 0.128,
      "velocity": 0.57,
      "hand": "right"
    },
    {
      "midi": 45,
      "time": 156.795,
      "duration": 0.385,
      "velocity": 0.54,
      "hand": "left"
    },
    {
      "midi": 66,
      "time": 156.795,
      "duration": 0.385,
      "velocity": 0.57,
      "hand": "right"
    },
    {
      "midi": 72,
      "time": 157.051,
      "duration": 0.256,
      "velocity": 0.57,
      "hand": "right"
    },
    {
      "midi": 50,
      "time": 157.307,
      "duration": 0.769,
      "velocity": 0.6,
      "hand": "left"
    },
    {
      "midi": 71,
      "time": 157.307,
      "duration": 0.513,
      "velocity": 0.6,
      "hand": "right"
    },
    {
      "midi": 69,
      "time": 157.564,
      "duration": 0.256,
      "velocity": 0.54,
      "hand": "right"
    },
    {
      "midi": 64,
      "time": 157.82,
      "duration": 0.385,
      "velocity": 0.57,
      "hand": "right"
    },
    {
      "midi": 68,
      "time": 157.82,
      "duration": 0.385,
      "velocity": 0.54,
      "hand": "right"
    },
    {
      "midi": 52,
      "time": 158.077,
      "duration": 0.256,
      "velocity": 0.6,
      "hand": "left"
    },
    {
      "midi": 69,
      "time": 158.205,
      "duration": 0.641,
      "velocity": 0.6,
      "hand": "right"
    },
    {
      "midi": 76,
      "time": 158.205,
      "duration": 0.513,
      "velocity": 0.6,
      "hand": "right"
    },
    {
      "midi": 50,
      "time": 158.333,
      "duration": 0.256,
      "velocity": 0.57,
      "hand": "left"
    },
    {
      "midi": 48,
      "time": 158.461,
      "duration": 0.256,
      "velocity": 0.57,
      "hand": "left"
    },
    {
      "midi": 47,
      "time": 158.718,
      "duration": 0.513,
      "velocity": 0.54,
      "hand": "left"
    },
    {
      "midi": 74,
      "time": 158.718,
      "duration": 0.513,
      "velocity": 0.57,
      "hand": "right"
    },
    {
      "midi": 71,
      "time": 158.974,
      "duration": 0.256,
      "velocity": 0.57,
      "hand": "right"
    },
    {
      "midi": 52,
      "time": 159.23,
      "duration": 0.513,
      "velocity": 0.51,
      "hand": "left"
    },
    {
      "midi": 69,
      "time": 159.23,
      "duration": 0.256,
      "velocity": 0.57,
      "hand": "right"
    },
    {
      "midi": 72,
      "time": 159.23,
      "duration": 0.256,
      "velocity": 0.56,
      "hand": "right"
    },
    {
      "midi": 67,
      "time": 159.487,
      "duration": 0.256,
      "velocity": 0.57,
      "hand": "right"
    },
    {
      "midi": 71,
      "time": 159.487,
      "duration": 0.256,
      "velocity": 0.56,
      "hand": "right"
    },
    {
      "midi": 54,
      "time": 159.743,
      "duration": 0.513,
      "velocity": 0.54,
      "hand": "left"
    },
    {
      "midi": 66,
      "time": 159.743,
      "duration": 0.513,
      "velocity": 0.57,
      "hand": "right"
    },
    {
      "midi": 69,
      "time": 159.743,
      "duration": 0.256,
      "velocity": 0.54,
      "hand": "right"
    },
    {
      "midi": 68,
      "time": 159.871,
      "duration": 0.256,
      "velocity": 0.54,
      "hand": "right"
    },
    {
      "midi": 50,
      "time": 160.128,
      "duration": 0.513,
      "velocity": 0.57,
      "hand": "left"
    },
    {
      "midi": 56,
      "time": 160.128,
      "duration": 0.513,
      "velocity": 0.56,
      "hand": "left"
    },
    {
      "midi": 65,
      "time": 160.128,
      "duration": 0.513,
      "velocity": 0.57,
      "hand": "right"
    },
    {
      "midi": 69,
      "time": 160.128,
      "duration": 0.256,
      "velocity": 0.54,
      "hand": "right"
    },
    {
      "midi": 71,
      "time": 160.384,
      "duration": 0.256,
      "velocity": 0.53,
      "hand": "right"
    },
    {
      "midi": 48,
      "time": 160.641,
      "duration": 0.513,
      "velocity": 0.57,
      "hand": "left"
    },
    {
      "midi": 57,
      "time": 160.641,
      "duration": 0.754,
      "velocity": 0.6,
      "hand": "left"
    },
    {
      "midi": 64,
      "time": 160.641,
      "duration": 0.513,
      "velocity": 0.54,
      "hand": "right"
    },
    {
      "midi": 72,
      "time": 160.641,
      "duration": 0.128,
      "velocity": 0.56,
      "hand": "right"
    },
    {
      "midi": 66,
      "time": 160.897,
      "duration": 0.256,
      "velocity": 0.54,
      "hand": "right"
    },
    {
      "midi": 53,
      "time": 161.153,
      "duration": 0.897,
      "velocity": 0.6,
      "hand": "left"
    },
    {
      "midi": 62,
      "time": 161.153,
      "duration": 0.641,
      "velocity": 0.54,
      "hand": "right"
    },
    {
      "midi": 69,
      "time": 161.153,
      "duration": 0.256,
      "velocity": 0.54,
      "hand": "right"
    },
    {
      "midi": 59,
      "time": 161.282,
      "duration": 0.128,
      "velocity": 0.57,
      "hand": "left"
    },
    {
      "midi": 68,
      "time": 161.282,
      "duration": 0.256,
      "velocity": 0.54,
      "hand": "right"
    },
    {
      "midi": 57,
      "time": 161.41,
      "duration": 0.128,
      "velocity": 0.57,
      "hand": "left"
    },
    {
      "midi": 56,
      "time": 161.538,
      "duration": 0.385,
      "velocity": 0.57,
      "hand": "left"
    },
    {
      "midi": 71,
      "time": 161.538,
      "duration": 0.513,
      "velocity": 0.57,
      "hand": "right"
    },
    {
      "midi": 64,
      "time": 161.795,
      "duration": 0.256,
      "velocity": 0.54,
      "hand": "right"
    },
    {
      "midi": 52,
      "time": 162.051,
      "duration": 0.897,
      "velocity": 0.57,
      "hand": "left"
    },
    {
      "midi": 60,
      "time": 162.051,
      "duration": 0.513,
      "velocity": 0.6,
      "hand": "right"
    },
    {
      "midi": 66,
      "time": 162.051,
      "duration": 0.256,
      "velocity": 0.54,
      "hand": "right"
    },
    {
      "midi": 69,
      "time": 162.051,
      "duration": 0.256,
      "velocity": 0.56,
      "hand": "right"
    },
    {
      "midi": 68,
      "time": 162.307,
      "duration": 0.256,
      "velocity": 0.54,
      "hand": "right"
    },
    {
      "midi": 71,
      "time": 162.307,
      "duration": 0.256,
      "velocity": 0.56,
      "hand": "right"
    },
    {
      "midi": 54,
      "time": 162.564,
      "duration": 0.385,
      "velocity": 0.56,
      "hand": "left"
    },
    {
      "midi": 69,
      "time": 162.564,
      "duration": 0.256,
      "velocity": 0.57,
      "hand": "right"
    },
    {
      "midi": 72,
      "time": 162.564,
      "duration": 0.385,
      "velocity": 0.57,
      "hand": "right"
    },
    {
      "midi": 68,
      "time": 162.692,
      "duration": 0.256,
      "velocity": 0.56,
      "hand": "right"
    },
    {
      "midi": 50,
      "time": 162.948,
      "duration": 0.897,
      "velocity": 0.57,
      "hand": "left"
    },
    {
      "midi": 59,
      "time": 162.948,
      "duration": 0.641,
      "velocity": 0.6,
      "hand": "left"
    },
    {
      "midi": 69,
      "time": 162.948,
      "duration": 0.256,
      "velocity": 0.56,
      "hand": "right"
    },
    {
      "midi": 77,
      "time": 162.948,
      "duration": 0.513,
      "velocity": 0.64,
      "hand": "right"
    },
    {
      "midi": 71,
      "time": 163.205,
      "duration": 0.256,
      "velocity": 0.56,
      "hand": "right"
    },
    {
      "midi": 68,
      "time": 163.461,
      "duration": 0.256,
      "velocity": 0.57,
      "hand": "right"
    },
    {
      "midi": 76,
      "time": 163.461,
      "duration": 0.513,
      "velocity": 0.61,
      "hand": "right"
    },
    {
      "midi": 60,
      "time": 163.718,
      "duration": 0.256,
      "velocity": 0.6,
      "hand": "right"
    },
    {
      "midi": 66,
      "time": 163.718,
      "duration": 0.256,
      "velocity": 0.54,
      "hand": "right"
    },
    {
      "midi": 52,
      "time": 163.974,
      "duration": 0.513,
      "velocity": 0.57,
      "hand": "left"
    },
    {
      "midi": 59,
      "time": 163.974,
      "duration": 0.256,
      "velocity": 0.58,
      "hand": "left"
    },
    {
      "midi": 68,
      "time": 163.974,
      "duration": 0.256,
      "velocity": 0.54,
      "hand": "right"
    },
    {
      "midi": 74,
      "time": 163.974,
      "duration": 0.897,
      "velocity": 0.6,
      "hand": "right"
    },
    {
      "midi": 57,
      "time": 164.102,
      "duration": 0.256,
      "velocity": 0.57,
      "hand": "left"
    },
    {
      "midi": 69,
      "time": 164.102,
      "duration": 0.256,
      "velocity": 0.54,
      "hand": "right"
    },
    {
      "midi": 53,
      "time": 164.359,
      "duration": 0.513,
      "velocity": 0.6,
      "hand": "left"
    },
    {
      "midi": 56,
      "time": 164.359,
      "duration": 0.385,
      "velocity": 0.56,
      "hand": "left"
    },
    {
      "midi": 71,
      "time": 164.359,
      "duration": 0.513,
      "velocity": 0.58,
      "hand": "right"
    },
    {
      "midi": 52,
      "time": 164.871,
      "duration": 0.256,
      "velocity": 0.54,
      "hand": "left"
    },
    {
      "midi": 57,
      "time": 164.871,
      "duration": 1.026,
      "velocity": 0.58,
      "hand": "left"
    },
    {
      "midi": 72,
      "time": 164.871,
      "duration": 0.256,
      "velocity": 0.57,
      "hand": "right"
    },
    {
      "midi": 50,
      "time": 165.128,
      "duration": 0.256,
      "velocity": 0.54,
      "hand": "left"
    },
    {
      "midi": 71,
      "time": 165.128,
      "duration": 0.241,
      "velocity": 0.57,
      "hand": "right"
    },
    {
      "midi": 52,
      "time": 165.384,
      "duration": 1.026,
      "velocity": 0.57,
      "hand": "left"
    },
    {
      "midi": 71,
      "time": 165.384,
      "duration": 0.113,
      "velocity": 0.6,
      "hand": "right"
    },
    {
      "midi": 72,
      "time": 165.512,
      "duration": 0.128,
      "velocity": 0.54,
      "hand": "right"
    },
    {
      "midi": 56,
      "time": 165.897,
      "duration": 0.513,
      "velocity": 0.57,
      "hand": "left"
    },
    {
      "midi": 69,
      "time": 166.153,
      "duration": 0.242,
      "velocity": 0.57,
      "hand": "right"
    },
    {
      "midi": 45,
      "time": 166.41,
      "duration": 1.026,
      "velocity": 0.61,
      "hand": "left"
    },
    {
      "midi": 57,
      "time": 166.41,
      "duration": 1.026,
      "velocity": 0.6,
      "hand": "left"
    },
    {
      "midi": 69,
      "time": 166.41,
      "duration": 1.026,
      "velocity": 0.6,
      "hand": "right"
    },
    {
      "midi": 60,
      "time": 166.923,
      "duration": 0.513,
      "velocity": 0.53,
      "hand": "right"
    },
    {
      "midi": 62,
      "time": 167.436,
      "duration": 0.513,
      "velocity": 0.54,
      "hand": "right"
    },
    {
      "midi": 55,
      "time": 167.82,
      "duration": 0.513,
      "velocity": 0.51,
      "hand": "left"
    },
    {
      "midi": 64,
      "time": 167.82,
      "duration": 0.513,
      "velocity": 0.54,
      "hand": "right"
    },
    {
      "midi": 57,
      "time": 168.333,
      "duration": 0.513,
      "velocity": 0.54,
      "hand": "left"
    },
    {
      "midi": 65,
      "time": 168.333,
      "duration": 0.769,
      "velocity": 0.6,
      "hand": "right"
    },
    {
      "midi": 59,
      "time": 168.846,
      "duration": 0.513,
      "velocity": 0.56,
      "hand": "left"
    },
    {
      "midi": 67,
      "time": 169.102,
      "duration": 0.128,
      "velocity": 0.57,
      "hand": "right"
    },
    {
      "midi": 65,
      "time": 169.23,
      "duration": 0.128,
      "velocity": 0.57,
      "hand": "right"
    },
    {
      "midi": 60,
      "time": 169.359,
      "duration": 0.754,
      "velocity": 0.6,
      "hand": "right"
    },
    {
      "midi": 64,
      "time": 169.359,
      "duration": 0.385,
      "velocity": 0.57,
      "hand": "right"
    },
    {
      "midi": 69,
      "time": 169.743,
      "duration": 0.513,
      "velocity": 0.6,
      "hand": "right"
    },
    {
      "midi": 62,
      "time": 170,
      "duration": 0.128,
      "velocity": 0.57,
      "hand": "right"
    },
    {
      "midi": 60,
      "time": 170.128,
      "duration": 0.128,
      "velocity": 0.57,
      "hand": "right"
    },
    {
      "midi": 59,
      "time": 170.256,
      "duration": 0.385,
      "velocity": 0.57,
      "hand": "left"
    },
    {
      "midi": 62,
      "time": 170.256,
      "duration": 0.385,
      "velocity": 0.56,
      "hand": "right"
    },
    {
      "midi": 43,
      "time": 170.769,
      "duration": 0.513,
      "velocity": 0.51,
      "hand": "left"
    },
    {
      "midi": 64,
      "time": 170.769,
      "duration": 0.513,
      "velocity": 0.6,
      "hand": "right"
    },
    {
      "midi": 67,
      "time": 170.769,
      "duration": 0.769,
      "velocity": 0.6,
      "hand": "right"
    },
    {
      "midi": 45,
      "time": 171.282,
      "duration": 0.513,
      "velocity": 0.53,
      "hand": "left"
    },
    {
      "midi": 57,
      "time": 171.282,
      "duration": 0.385,
      "velocity": 0.54,
      "hand": "left"
    },
    {
      "midi": 69,
      "time": 171.41,
      "duration": 0.256,
      "velocity": 0.57,
      "hand": "right"
    },
    {
      "midi": 47,
      "time": 171.666,
      "duration": 0.513,
      "velocity": 0.54,
      "hand": "left"
    },
    {
      "midi": 62,
      "time": 171.666,
      "duration": 0.897,
      "velocity": 0.6,
      "hand": "right"
    },
    {
      "midi": 67,
      "time": 171.666,
      "duration": 0.256,
      "velocity": 0.57,
      "hand": "right"
    },
    {
      "midi": 65,
      "time": 171.923,
      "duration": 0.256,
      "velocity": 0.57,
      "hand": "right"
    },
    {
      "midi": 48,
      "time": 172.179,
      "duration": 0.754,
      "velocity": 0.6,
      "hand": "left"
    },
    {
      "midi": 64,
      "time": 172.179,
      "duration": 0.385,
      "velocity": 0.57,
      "hand": "right"
    },
    {
      "midi": 55,
      "time": 172.692,
      "duration": 0.513,
      "velocity": 0.57,
      "hand": "left"
    },
    {
      "midi": 64,
      "time": 172.692,
      "duration": 0.513,
      "velocity": 0.56,
      "hand": "right"
    },
    {
      "midi": 67,
      "time": 172.692,
      "duration": 0.513,
      "velocity": 0.53,
      "hand": "right"
    },
    {
      "midi": 50,
      "time": 172.82,
      "duration": 0.128,
      "velocity": 0.57,
      "hand": "left"
    },
    {
      "midi": 48,
      "time": 172.948,
      "duration": 0.128,
      "velocity": 0.57,
      "hand": "left"
    },
    {
      "midi": 47,
      "time": 173.077,
      "duration": 0.385,
      "velocity": 0.57,
      "hand": "left"
    },
    {
      "midi": 62,
      "time": 173.077,
      "duration": 1.026,
      "velocity": 0.6,
      "hand": "right"
    },
    {
      "midi": 66,
      "time": 173.077,
      "duration": 0.513,
      "velocity": 0.56,
      "hand": "right"
    },
    {
      "midi": 69,
      "time": 173.077,
      "duration": 0.513,
      "velocity": 0.54,
      "hand": "right"
    },
    {
      "midi": 52,
      "time": 173.589,
      "duration": 0.513,
      "velocity": 0.6,
      "hand": "left"
    },
    {
      "midi": 67,
      "time": 173.589,
      "duration": 0.897,
      "velocity": 0.6,
      "hand": "right"
    },
    {
      "midi": 71,
      "time": 173.589,
      "duration": 0.513,
      "velocity": 0.54,
      "hand": "right"
    },
    {
      "midi": 45,
      "time": 174.102,
      "duration": 0.385,
      "velocity": 0.56,
      "hand": "left"
    },
    {
      "midi": 60,
      "time": 174.102,
      "duration": 0.385,
      "velocity": 0.57,
      "hand": "right"
    },
    {
      "midi": 72,
      "time": 174.102,
      "duration": 0.754,
      "velocity": 0.6,
      "hand": "right"
    },
    {
      "midi": 50,
      "time": 174.615,
      "duration": 0.769,
      "velocity": 0.6,
      "hand": "left"
    },
    {
      "midi": 57,
      "time": 174.615,
      "duration": 0.513,
      "velocity": 0.57,
      "hand": "left"
    },
    {
      "midi": 66,
      "time": 174.615,
      "duration": 0.513,
      "velocity": 0.57,
      "hand": "right"
    },
    {
      "midi": 74,
      "time": 174.743,
      "duration": 0.128,
      "velocity": 0.57,
      "hand": "right"
    },
    {
      "midi": 72,
      "time": 174.871,
      "duration": 0.128,
      "velocity": 0.57,
      "hand": "right"
    },
    {
      "midi": 64,
      "time": 175,
      "duration": 0.897,
      "velocity": 0.6,
      "hand": "right"
    },
    {
      "midi": 68,
      "time": 175,
      "duration": 0.513,
      "velocity": 0.57,
      "hand": "right"
    },
    {
      "midi": 71,
      "time": 175,
      "duration": 0.385,
      "velocity": 0.57,
      "hand": "right"
    },
    {
      "midi": 52,
      "time": 175.256,
      "duration": 0.256,
      "velocity": 0.61,
      "hand": "left"
    },
    {
      "midi": 50,
      "time": 175.512,
      "duration": 0.256,
      "velocity": 0.6,
      "hand": "left"
    },
    {
      "midi": 69,
      "time": 175.512,
      "duration": 0.897,
      "velocity": 0.61,
      "hand": "right"
    },
    {
      "midi": 72,
      "time": 175.512,
      "duration": 0.513,
      "velocity": 0.53,
      "hand": "right"
    },
    {
      "midi": 48,
      "time": 175.769,
      "duration": 0.256,
      "velocity": 0.58,
      "hand": "left"
    },
    {
      "midi": 47,
      "time": 176.025,
      "duration": 0.385,
      "velocity": 0.57,
      "hand": "left"
    },
    {
      "midi": 62,
      "time": 176.025,
      "duration": 0.513,
      "velocity": 0.57,
      "hand": "right"
    },
    {
      "midi": 74,
      "time": 176.025,
      "duration": 0.513,
      "velocity": 0.56,
      "hand": "right"
    },
    {
      "midi": 46,
      "time": 176.41,
      "duration": 0.513,
      "velocity": 0.57,
      "hand": "left"
    },
    {
      "midi": 67,
      "time": 176.41,
      "duration": 0.513,
      "velocity": 0.57,
      "hand": "right"
    },
    {
      "midi": 76,
      "time": 176.41,
      "duration": 0.513,
      "velocity": 0.58,
      "hand": "right"
    },
    {
      "midi": 45,
      "time": 176.923,
      "duration": 0.513,
      "velocity": 0.57,
      "hand": "left"
    },
    {
      "midi": 69,
      "time": 176.923,
      "duration": 0.513,
      "velocity": 0.57,
      "hand": "right"
    },
    {
      "midi": 77,
      "time": 176.923,
      "duration": 0.769,
      "velocity": 0.64,
      "hand": "right"
    },
    {
      "midi": 43,
      "time": 177.436,
      "duration": 0.513,
      "velocity": 0.56,
      "hand": "left"
    },
    {
      "midi": 71,
      "time": 177.436,
      "duration": 0.513,
      "velocity": 0.57,
      "hand": "right"
    },
    {
      "midi": 79,
      "time": 177.692,
      "duration": 0.128,
      "velocity": 0.6,
      "hand": "right"
    },
    {
      "midi": 77,
      "time": 177.82,
      "duration": 0.128,
      "velocity": 0.6,
      "hand": "right"
    },
    {
      "midi": 45,
      "time": 177.948,
      "duration": 0.385,
      "velocity": 0.56,
      "hand": "left"
    },
    {
      "midi": 72,
      "time": 177.948,
      "duration": 0.755,
      "velocity": 0.6,
      "hand": "right"
    },
    {
      "midi": 76,
      "time": 177.948,
      "duration": 0.385,
      "velocity": 0.6,
      "hand": "right"
    },
    {
      "midi": 54,
      "time": 178.333,
      "duration": 0.513,
      "velocity": 0.6,
      "hand": "left"
    },
    {
      "midi": 57,
      "time": 178.333,
      "duration": 0.513,
      "velocity": 0.5,
      "hand": "left"
    },
    {
      "midi": 81,
      "time": 178.333,
      "duration": 0.513,
      "velocity": 0.68,
      "hand": "right"
    },
    {
      "midi": 74,
      "time": 178.589,
      "duration": 0.128,
      "velocity": 0.57,
      "hand": "right"
    },
    {
      "midi": 72,
      "time": 178.718,
      "duration": 0.128,
      "velocity": 0.57,
      "hand": "right"
    },
    {
      "midi": 55,
      "time": 178.846,
      "duration": 0.513,
      "velocity": 0.6,
      "hand": "left"
    },
    {
      "midi": 59,
      "time": 178.846,
      "duration": 0.513,
      "velocity": 0.53,
      "hand": "left"
    },
    {
      "midi": 71,
      "time": 178.846,
      "duration": 0.385,
      "velocity": 0.57,
      "hand": "right"
    },
    {
      "midi": 74,
      "time": 178.846,
      "duration": 0.385,
      "velocity": 0.6,
      "hand": "right"
    },
    {
      "midi": 52,
      "time": 179.359,
      "duration": 0.513,
      "velocity": 0.57,
      "hand": "left"
    },
    {
      "midi": 61,
      "time": 179.359,
      "duration": 0.513,
      "velocity": 0.54,
      "hand": "right"
    },
    {
      "midi": 76,
      "time": 179.359,
      "duration": 0.513,
      "velocity": 0.6,
      "hand": "right"
    },
    {
      "midi": 79,
      "time": 179.359,
      "duration": 0.769,
      "velocity": 0.65,
      "hand": "right"
    },
    {
      "midi": 50,
      "time": 179.871,
      "duration": 0.897,
      "velocity": 0.57,
      "hand": "left"
    },
    {
      "midi": 62,
      "time": 179.871,
      "duration": 0.641,
      "velocity": 0.6,
      "hand": "right"
    },
    {
      "midi": 69,
      "time": 179.871,
      "duration": 0.385,
      "velocity": 0.57,
      "hand": "right"
    },
    {
      "midi": 81,
      "time": 180,
      "duration": 0.256,
      "velocity": 0.65,
      "hand": "right"
    },
    {
      "midi": 74,
      "time": 180.256,
      "duration": 0.641,
      "velocity": 0.6,
      "hand": "right"
    },
    {
      "midi": 79,
      "time": 180.256,
      "duration": 0.256,
      "velocity": 0.64,
      "hand": "right"
    },
    {
      "midi": 64,
      "time": 180.512,
      "duration": 0.128,
      "velocity": 0.57,
      "hand": "right"
    },
    {
      "midi": 77,
      "time": 180.512,
      "duration": 0.256,
      "velocity": 0.62,
      "hand": "right"
    },
    {
      "midi": 62,
      "time": 180.641,
      "duration": 0.128,
      "velocity": 0.57,
      "hand": "right"
    },
    {
      "midi": 52,
      "time": 180.769,
      "duration": 0.513,
      "velocity": 0.56,
      "hand": "left"
    },
    {
      "midi": 60,
      "time": 180.769,
      "duration": 0.385,
      "velocity": 0.57,
      "hand": "right"
    },
    {
      "midi": 76,
      "time": 180.769,
      "duration": 0.241,
      "velocity": 0.61,
      "hand": "right"
    },
    {
      "midi": 76,
      "time": 181.025,
      "duration": 0.256,
      "velocity": 0.57,
      "hand": "right"
    },
    {
      "midi": 53,
      "time": 181.282,
      "duration": 0.513,
      "velocity": 0.56,
      "hand": "left"
    },
    {
      "midi": 65,
      "time": 181.282,
      "duration": 0.513,
      "velocity": 0.6,
      "hand": "right"
    },
    {
      "midi": 74,
      "time": 181.282,
      "duration": 0.256,
      "velocity": 0.56,
      "hand": "right"
    },
    {
      "midi": 81,
      "time": 181.282,
      "duration": 0.513,
      "velocity": 0.67,
      "hand": "right"
    },
    {
      "midi": 72,
      "time": 181.41,
      "duration": 0.256,
      "velocity": 0.54,
      "hand": "right"
    },
    {
      "midi": 55,
      "time": 181.666,
      "duration": 0.769,
      "velocity": 0.6,
      "hand": "left"
    },
    {
      "midi": 59,
      "time": 181.666,
      "duration": 0.385,
      "velocity": 0.54,
      "hand": "left"
    },
    {
      "midi": 71,
      "time": 181.666,
      "duration": 0.385,
      "velocity": 0.54,
      "hand": "right"
    },
    {
      "midi": 74,
      "time": 181.666,
      "duration": 0.513,
      "velocity": 0.6,
      "hand": "right"
    },
    {
      "midi": 64,
      "time": 182.179,
      "duration": 0.769,
      "velocity": 0.6,
      "hand": "right"
    },
    {
      "midi": 79,
      "time": 182.179,
      "duration": 0.513,
      "velocity": 0.65,
      "hand": "right"
    },
    {
      "midi": 82,
      "time": 182.179,
      "duration": 0.513,
      "velocity": 0.67,
      "hand": "right"
    },
    {
      "midi": 57,
      "time": 182.436,
      "duration": 0.128,
      "velocity": 0.57,
      "hand": "left"
    },
    {
      "midi": 55,
      "time": 182.564,
      "duration": 0.128,
      "velocity": 0.57,
      "hand": "left"
    },
    {
      "midi": 53,
      "time": 182.692,
      "duration": 0.385,
      "velocity": 0.57,
      "hand": "left"
    },
    {
      "midi": 73,
      "time": 182.692,
      "duration": 0.513,
      "velocity": 0.57,
      "hand": "right"
    },
    {
      "midi": 81,
      "time": 182.692,
      "duration": 0.513,
      "velocity": 0.67,
      "hand": "right"
    },
    {
      "midi": 65,
      "time": 182.948,
      "duration": 0.256,
      "velocity": 0.61,
      "hand": "right"
    },
    {
      "midi": 58,
      "time": 183.205,
      "duration": 0.513,
      "velocity": 0.6,
      "hand": "left"
    },
    {
      "midi": 64,
      "time": 183.205,
      "duration": 0.256,
      "velocity": 0.58,
      "hand": "right"
    },
    {
      "midi": 74,
      "time": 183.205,
      "duration": 0.513,
      "velocity": 0.57,
      "hand": "right"
    },
    {
      "midi": 79,
      "time": 183.205,
      "duration": 0.256,
      "velocity": 0.64,
      "hand": "right"
    },
    {
      "midi": 62,
      "time": 183.333,
      "duration": 0.256,
      "velocity": 0.57,
      "hand": "right"
    },
    {
      "midi": 77,
      "time": 183.333,
      "duration": 0.256,
      "velocity": 0.61,
      "hand": "right"
    },
    {
      "midi": 52,
      "time": 183.589,
      "duration": 0.385,
      "velocity": 0.54,
      "hand": "left"
    },
    {
      "midi": 61,
      "time": 183.589,
      "duration": 0.513,
      "velocity": 0.56,
      "hand": "right"
    },
    {
      "midi": 76,
      "time": 183.589,
      "duration": 0.385,
      "velocity": 0.6,
      "hand": "right"
    },
    {
      "midi": 79,
      "time": 183.589,
      "duration": 0.256,
      "velocity": 0.64,
      "hand": "right"
    },
    {
      "midi": 77,
      "time": 183.846,
      "duration": 0.256,
      "velocity": 0.61,
      "hand": "right"
    },
    {
      "midi": 57,
      "time": 184.102,
      "duration": 0.769,
      "velocity": 0.6,
      "hand": "left"
    },
    {
      "midi": 73,
      "time": 184.102,
      "duration": 0.513,
      "velocity": 0.56,
      "hand": "right"
    },
    {
      "midi": 79,
      "time": 184.102,
      "duration": 0.256,
      "velocity": 0.64,
      "hand": "right"
    },
    {
      "midi": 76,
      "time": 184.359,
      "duration": 0.256,
      "velocity": 0.6,
      "hand": "right"
    },
    {
      "midi": 74,
      "time": 184.615,
      "duration": 0.513,
      "velocity": 0.56,
      "hand": "right"
    },
    {
      "midi": 77,
      "time": 184.615,
      "duration": 0.256,
      "velocity": 0.64,
      "hand": "right"
    },
    {
      "midi": 58,
      "time": 184.871,
      "duration": 0.256,
      "velocity": 0.57,
      "hand": "left"
    },
    {
      "midi": 79,
      "time": 184.871,
      "duration": 0.114,
      "velocity": 0.6,
      "hand": "right"
    },
    {
      "midi": 57,
      "time": 185,
      "duration": 0.256,
      "velocity": 0.57,
      "hand": "left"
    },
    {
      "midi": 76,
      "time": 185,
      "duration": 0.513,
      "velocity": 0.56,
      "hand": "right"
    },
    {
      "midi": 79,
      "time": 185,
      "duration": 0.064,
      "velocity": 0.64,
      "hand": "right"
    },
    {
      "midi": 79,
      "time": 185.128,
      "duration": 0.064,
      "velocity": 0.54,
      "hand": "right"
    },
    {
      "midi": 81,
      "time": 185.128,
      "duration": 0.064,
      "velocity": 0.54,
      "hand": "right"
    },
    {
      "midi": 55,
      "time": 185.256,
      "duration": 0.256,
      "velocity": 0.57,
      "hand": "left"
    },
    {
      "midi": 77,
      "time": 185.256,
      "duration": 0.128,
      "velocity": 0.6,
      "hand": "right"
    },
    {
      "midi": 79,
      "time": 185.384,
      "duration": 0.128,
      "velocity": 0.6,
      "hand": "right"
    },
    {
      "midi": 53,
      "time": 185.512,
      "duration": 0.256,
      "velocity": 0.57,
      "hand": "left"
    },
    {
      "midi": 69,
      "time": 185.512,
      "duration": 0.513,
      "velocity": 0.57,
      "hand": "right"
    },
    {
      "midi": 81,
      "time": 185.512,
      "duration": 0.128,
      "velocity": 0.67,
      "hand": "right"
    },
    {
      "midi": 52,
      "time": 185.769,
      "duration": 0.256,
      "velocity": 0.54,
      "hand": "left"
    },
    {
      "midi": 73,
      "time": 185.769,
      "duration": 0.256,
      "velocity": 0.6,
      "hand": "right"
    },
    {
      "midi": 53,
      "time": 186.025,
      "duration": 0.128,
      "velocity": 0.57,
      "hand": "left"
    },
    {
      "midi": 57,
      "time": 186.025,
      "duration": 0.513,
      "velocity": 0.53,
      "hand": "left"
    },
    {
      "midi": 74,
      "time": 186.025,
      "duration": 0.256,
      "velocity": 0.6,
      "hand": "right"
    },
    {
      "midi": 50,
      "time": 186.282,
      "duration": 0.256,
      "velocity": 0.54,
      "hand": "left"
    },
    {
      "midi": 79,
      "time": 186.282,
      "duration": 0.256,
      "velocity": 0.6,
      "hand": "right"
    },
    {
      "midi": 55,
      "time": 186.538,
      "duration": 0.513,
      "velocity": 0.58,
      "hand": "left"
    },
    {
      "midi": 59,
      "time": 186.538,
      "duration": 0.513,
      "velocity": 0.54,
      "hand": "left"
    },
    {
      "midi": 77,
      "time": 186.538,
      "duration": 0.128,
      "velocity": 0.54,
      "hand": "right"
    },
    {
      "midi": 76,
      "time": 186.666,
      "duration": 0.513,
      "velocity": 0.6,
      "hand": "right"
    },
    {
      "midi": 57,
      "time": 187.051,
      "duration": 0.513,
      "velocity": 0.58,
      "hand": "left"
    },
    {
      "midi": 61,
      "time": 187.051,
      "duration": 0.513,
      "velocity": 0.54,
      "hand": "right"
    },
    {
      "midi": 64,
      "time": 187.051,
      "duration": 0.513,
      "velocity": 0.51,
      "hand": "right"
    },
    {
      "midi": 74,
      "time": 187.307,
      "duration": 0.114,
      "velocity": 0.6,
      "hand": "right"
    },
    {
      "midi": 74,
      "time": 187.436,
      "duration": 0.513,
      "velocity": 0.61,
      "hand": "right"
    },
    {
      "midi": 50,
      "time": 187.564,
      "duration": 2.179,
      "velocity": 0.56,
      "hand": "left"
    },
    {
      "midi": 62,
      "time": 187.564,
      "duration": 0.754,
      "velocity": 0.6,
      "hand": "right"
    },
    {
      "midi": 66,
      "time": 187.564,
      "duration": 0.513,
      "velocity": 0.53,
      "hand": "right"
    },
    {
      "midi": 67,
      "time": 187.948,
      "duration": 0.513,
      "velocity": 0.54,
      "hand": "right"
    },
    {
      "midi": 64,
      "time": 188.205,
      "duration": 0.128,
      "velocity": 0.57,
      "hand": "right"
    },
    {
      "midi": 62,
      "time": 188.333,
      "duration": 0.128,
      "velocity": 0.57,
      "hand": "right"
    },
    {
      "midi": 60,
      "time": 188.461,
      "duration": 0.385,
      "velocity": 0.57,
      "hand": "right"
    },
    {
      "midi": 69,
      "time": 188.461,
      "duration": 0.769,
      "velocity": 0.6,
      "hand": "right"
    },
    {
      "midi": 66,
      "time": 188.974,
      "duration": 0.513,
      "velocity": 0.6,
      "hand": "right"
    },
    {
      "midi": 71,
      "time": 189.23,
      "duration": 0.128,
      "velocity": 0.57,
      "hand": "right"
    },
    {
      "midi": 69,
      "time": 189.359,
      "duration": 0.128,
      "velocity": 0.57,
      "hand": "right"
    },
    {
      "midi": 59,
      "time": 189.487,
      "duration": 0.385,
      "velocity": 0.54,
      "hand": "left"
    },
    {
      "midi": 67,
      "time": 189.487,
      "duration": 0.385,
      "velocity": 0.57,
      "hand": "right"
    },
    {
      "midi": 52,
      "time": 189.743,
      "duration": 0.256,
      "velocity": 0.57,
      "hand": "left"
    },
    {
      "midi": 50,
      "time": 189.871,
      "duration": 0.256,
      "velocity": 0.57,
      "hand": "left"
    },
    {
      "midi": 64,
      "time": 189.871,
      "duration": 0.769,
      "velocity": 0.6,
      "hand": "right"
    },
    {
      "midi": 72,
      "time": 189.871,
      "duration": 0.513,
      "velocity": 0.6,
      "hand": "right"
    },
    {
      "midi": 48,
      "time": 190.128,
      "duration": 0.256,
      "velocity": 0.56,
      "hand": "left"
    },
    {
      "midi": 47,
      "time": 190.384,
      "duration": 0.256,
      "velocity": 0.56,
      "hand": "left"
    },
    {
      "midi": 66,
      "time": 190.384,
      "duration": 0.242,
      "velocity": 0.54,
      "hand": "right"
    },
    {
      "midi": 45,
      "time": 190.641,
      "duration": 0.256,
      "velocity": 0.54,
      "hand": "left"
    },
    {
      "midi": 66,
      "time": 190.641,
      "duration": 0.256,
      "velocity": 0.62,
      "hand": "right"
    },
    {
      "midi": 43,
      "time": 190.897,
      "duration": 0.256,
      "velocity": 0.54,
      "hand": "left"
    },
    {
      "midi": 64,
      "time": 190.897,
      "duration": 0.256,
      "velocity": 0.62,
      "hand": "right"
    },
    {
      "midi": 71,
      "time": 190.897,
      "duration": 0.769,
      "velocity": 0.6,
      "hand": "right"
    },
    {
      "midi": 42,
      "time": 191.153,
      "duration": 0.256,
      "velocity": 0.54,
      "hand": "left"
    },
    {
      "midi": 62,
      "time": 191.153,
      "duration": 0.256,
      "velocity": 0.61,
      "hand": "right"
    },
    {
      "midi": 40,
      "time": 191.41,
      "duration": 0.385,
      "velocity": 0.54,
      "hand": "left"
    },
    {
      "midi": 60,
      "time": 191.41,
      "duration": 2.179,
      "velocity": 0.6,
      "hand": "right"
    },
    {
      "midi": 72,
      "time": 191.666,
      "duration": 0.256,
      "velocity": 0.57,
      "hand": "right"
    },
    {
      "midi": 52,
      "time": 191.923,
      "duration": 0.513,
      "velocity": 0.51,
      "hand": "left"
    },
    {
      "midi": 71,
      "time": 191.923,
      "duration": 0.256,
      "velocity": 0.57,
      "hand": "right"
    },
    {
      "midi": 69,
      "time": 192.051,
      "duration": 0.256,
      "velocity": 0.56,
      "hand": "right"
    },
    {
      "midi": 54,
      "time": 192.307,
      "duration": 0.513,
      "velocity": 0.54,
      "hand": "left"
    },
    {
      "midi": 67,
      "time": 192.307,
      "duration": 0.256,
      "velocity": 0.56,
      "hand": "right"
    },
    {
      "midi": 66,
      "time": 192.564,
      "duration": 0.256,
      "velocity": 0.54,
      "hand": "right"
    },
    {
      "midi": 55,
      "time": 192.82,
      "duration": 0.897,
      "velocity": 0.56,
      "hand": "left"
    },
    {
      "midi": 64,
      "time": 192.82,
      "duration": 0.256,
      "velocity": 0.54,
      "hand": "right"
    },
    {
      "midi": 67,
      "time": 192.82,
      "duration": 0.513,
      "velocity": 0.5,
      "hand": "right"
    },
    {
      "midi": 62,
      "time": 193.077,
      "duration": 0.256,
      "velocity": 0.54,
      "hand": "right"
    },
    {
      "midi": 64,
      "time": 193.333,
      "duration": 1.026,
      "velocity": 0.57,
      "hand": "right"
    },
    {
      "midi": 69,
      "time": 193.333,
      "duration": 0.513,
      "velocity": 0.53,
      "hand": "right"
    },
    {
      "midi": 62,
      "time": 193.589,
      "duration": 0.256,
      "velocity": 0.6,
      "hand": "right"
    },
    {
      "midi": 57,
      "time": 193.846,
      "duration": 0.256,
      "velocity": 0.6,
      "hand": "left"
    },
    {
      "midi": 60,
      "time": 193.846,
      "duration": 0.256,
      "velocity": 0.58,
      "hand": "right"
    },
    {
      "midi": 71,
      "time": 193.846,
      "duration": 0.513,
      "velocity": 0.54,
      "hand": "right"
    },
    {
      "midi": 55,
      "time": 193.974,
      "duration": 0.256,
      "velocity": 0.57,
      "hand": "left"
    },
    {
      "midi": 59,
      "time": 193.974,
      "duration": 0.256,
      "velocity": 0.57,
      "hand": "left"
    },
    {
      "midi": 54,
      "time": 194.23,
      "duration": 0.385,
      "velocity": 0.6,
      "hand": "left"
    },
    {
      "midi": 57,
      "time": 194.23,
      "duration": 0.256,
      "velocity": 0.57,
      "hand": "left"
    },
    {
      "midi": 62,
      "time": 194.23,
      "duration": 1.154,
      "velocity": 0.57,
      "hand": "right"
    },
    {
      "midi": 72,
      "time": 194.23,
      "duration": 0.769,
      "velocity": 0.6,
      "hand": "right"
    },
    {
      "midi": 55,
      "time": 194.487,
      "duration": 0.256,
      "velocity": 0.56,
      "hand": "left"
    },
    {
      "midi": 50,
      "time": 194.743,
      "duration": 0.513,
      "velocity": 0.57,
      "hand": "left"
    },
    {
      "midi": 57,
      "time": 194.743,
      "duration": 0.128,
      "velocity": 0.57,
      "hand": "left"
    },
    {
      "midi": 54,
      "time": 195,
      "duration": 0.256,
      "velocity": 0.54,
      "hand": "left"
    },
    {
      "midi": 74,
      "time": 195,
      "duration": 0.128,
      "velocity": 0.57,
      "hand": "right"
    },
    {
      "midi": 72,
      "time": 195.128,
      "duration": 0.128,
      "velocity": 0.57,
      "hand": "right"
    },
    {
      "midi": 55,
      "time": 195.256,
      "duration": 3.846,
      "velocity": 0.58,
      "hand": "left"
    },
    {
      "midi": 71,
      "time": 195.256,
      "duration": 0.513,
      "velocity": 0.57,
      "hand": "right"
    },
    {
      "midi": 69,
      "time": 195.512,
      "duration": 0.256,
      "velocity": 0.57,
      "hand": "right"
    },
    {
      "midi": 59,
      "time": 195.769,
      "duration": 0.513,
      "velocity": 0.57,
      "hand": "left"
    },
    {
      "midi": 67,
      "time": 195.769,
      "duration": 0.256,
      "velocity": 0.57,
      "hand": "right"
    },
    {
      "midi": 76,
      "time": 195.769,
      "duration": 0.513,
      "velocity": 0.6,
      "hand": "right"
    },
    {
      "midi": 65,
      "time": 196.025,
      "duration": 0.256,
      "velocity": 0.56,
      "hand": "right"
    },
    {
      "midi": 69,
      "time": 196.153,
      "duration": 0.385,
      "velocity": 0.57,
      "hand": "right"
    },
    {
      "midi": 60,
      "time": 196.282,
      "duration": 0.513,
      "velocity": 0.6,
      "hand": "right"
    },
    {
      "midi": 64,
      "time": 196.282,
      "duration": 0.256,
      "velocity": 0.56,
      "hand": "right"
    },
    {
      "midi": 67,
      "time": 196.41,
      "duration": 0.256,
      "velocity": 0.6,
      "hand": "right"
    },
    {
      "midi": 62,
      "time": 196.666,
      "duration": 0.513,
      "velocity": 0.62,
      "hand": "right"
    },
    {
      "midi": 65,
      "time": 196.666,
      "duration": 0.256,
      "velocity": 0.56,
      "hand": "right"
    },
    {
      "midi": 74,
      "time": 196.666,
      "duration": 0.769,
      "velocity": 0.6,
      "hand": "right"
    },
    {
      "midi": 69,
      "time": 196.923,
      "duration": 0.256,
      "velocity": 0.56,
      "hand": "right"
    },
    {
      "midi": 64,
      "time": 197.179,
      "duration": 0.641,
      "velocity": 0.65,
      "hand": "right"
    },
    {
      "midi": 67,
      "time": 197.179,
      "duration": 1.154,
      "velocity": 0.57,
      "hand": "right"
    },
    {
      "midi": 76,
      "time": 197.436,
      "duration": 0.256,
      "velocity": 0.6,
      "hand": "right"
    },
    {
      "midi": 74,
      "time": 197.692,
      "duration": 0.256,
      "velocity": 0.57,
      "hand": "right"
    },
    {
      "midi": 65,
      "time": 197.82,
      "duration": 0.128,
      "velocity": 0.6,
      "hand": "right"
    },
    {
      "midi": 72,
      "time": 197.82,
      "duration": 0.256,
      "velocity": 0.56,
      "hand": "right"
    },
    {
      "midi": 64,
      "time": 197.948,
      "duration": 0.128,
      "velocity": 0.6,
      "hand": "right"
    },
    {
      "midi": 62,
      "time": 198.077,
      "duration": 0.385,
      "velocity": 0.6,
      "hand": "right"
    },
    {
      "midi": 71,
      "time": 198.077,
      "duration": 0.256,
      "velocity": 0.54,
      "hand": "right"
    },
    {
      "midi": 69,
      "time": 198.333,
      "duration": 0.256,
      "velocity": 0.56,
      "hand": "right"
    },
    {
      "midi": 72,
      "time": 198.333,
      "duration": 0.256,
      "velocity": 0.54,
      "hand": "right"
    },
    {
      "midi": 67,
      "time": 198.589,
      "duration": 0.513,
      "velocity": 0.65,
      "hand": "right"
    },
    {
      "midi": 70,
      "time": 198.589,
      "duration": 0.513,
      "velocity": 0.56,
      "hand": "right"
    },
    {
      "midi": 74,
      "time": 198.589,
      "duration": 0.256,
      "velocity": 0.57,
      "hand": "right"
    },
    {
      "midi": 76,
      "time": 198.846,
      "duration": 0.256,
      "velocity": 0.58,
      "hand": "right"
    },
    {
      "midi": 57,
      "time": 199.102,
      "duration": 1.026,
      "velocity": 0.51,
      "hand": "left"
    },
    {
      "midi": 60,
      "time": 199.102,
      "duration": 0.385,
      "velocity": 0.57,
      "hand": "right"
    },
    {
      "midi": 72,
      "time": 199.102,
      "duration": 1.026,
      "velocity": 0.54,
      "hand": "right"
    },
    {
      "midi": 77,
      "time": 199.102,
      "duration": 0.256,
      "velocity": 0.61,
      "hand": "right"
    },
    {
      "midi": 79,
      "time": 199.359,
      "duration": 0.256,
      "velocity": 0.61,
      "hand": "right"
    },
    {
      "midi": 65,
      "time": 199.615,
      "duration": 0.769,
      "velocity": 0.65,
      "hand": "right"
    },
    {
      "midi": 81,
      "time": 199.615,
      "duration": 0.256,
      "velocity": 0.61,
      "hand": "right"
    },
    {
      "midi": 79,
      "time": 199.871,
      "duration": 0.256,
      "velocity": 0.6,
      "hand": "right"
    },
    {
      "midi": 59,
      "time": 200,
      "duration": 0.513,
      "velocity": 0.57,
      "hand": "left"
    },
    {
      "midi": 74,
      "time": 200,
      "duration": 0.385,
      "velocity": 0.6,
      "hand": "right"
    },
    {
      "midi": 77,
      "time": 200,
      "duration": 0.256,
      "velocity": 0.6,
      "hand": "right"
    },
    {
      "midi": 67,
      "time": 200.256,
      "duration": 0.241,
      "velocity": 0.61,
      "hand": "right"
    },
    {
      "midi": 76,
      "time": 200.256,
      "duration": 0.256,
      "velocity": 0.58,
      "hand": "right"
    },
    {
      "midi": 60,
      "time": 200.512,
      "duration": 0.513,
      "velocity": 0.57,
      "hand": "right"
    },
    {
      "midi": 65,
      "time": 200.512,
      "duration": 0.256,
      "velocity": 0.6,
      "hand": "right"
    },
    {
      "midi": 67,
      "time": 200.512,
      "duration": 0.498,
      "velocity": 0.57,
      "hand": "right"
    },
    {
      "midi": 74,
      "time": 200.512,
      "duration": 0.256,
      "velocity": 0.58,
      "hand": "right"
    },
    {
      "midi": 64,
      "time": 200.769,
      "duration": 0.256,
      "velocity": 0.57,
      "hand": "right"
    },
    {
      "midi": 72,
      "time": 200.769,
      "duration": 0.256,
      "velocity": 0.57,
      "hand": "right"
    },
    {
      "midi": 53,
      "time": 201.025,
      "duration": 0.128,
      "velocity": 0.57,
      "hand": "left"
    },
    {
      "midi": 62,
      "time": 201.025,
      "duration": 1.026,
      "velocity": 0.57,
      "hand": "right"
    },
    {
      "midi": 67,
      "time": 201.025,
      "duration": 1.41,
      "velocity": 0.6,
      "hand": "right"
    },
    {
      "midi": 71,
      "time": 201.025,
      "duration": 1.026,
      "velocity": 0.57,
      "hand": "right"
    },
    {
      "midi": 57,
      "time": 201.282,
      "duration": 0.256,
      "velocity": 0.6,
      "hand": "left"
    },
    {
      "midi": 55,
      "time": 201.538,
      "duration": 0.256,
      "velocity": 0.58,
      "hand": "left"
    },
    {
      "midi": 53,
      "time": 201.795,
      "duration": 0.256,
      "velocity": 0.57,
      "hand": "left"
    },
    {
      "midi": 52,
      "time": 202.051,
      "duration": 0.256,
      "velocity": 0.57,
      "hand": "left"
    },
    {
      "midi": 64,
      "time": 202.051,
      "duration": 0.513,
      "velocity": 0.6,
      "hand": "right"
    },
    {
      "midi": 72,
      "time": 202.051,
      "duration": 0.513,
      "velocity": 0.57,
      "hand": "right"
    },
    {
      "midi": 50,
      "time": 202.307,
      "duration": 0.256,
      "velocity": 0.56,
      "hand": "left"
    },
    {
      "midi": 48,
      "time": 202.436,
      "duration": 0.256,
      "velocity": 0.56,
      "hand": "left"
    },
    {
      "midi": 62,
      "time": 202.436,
      "duration": 1.026,
      "velocity": 0.6,
      "hand": "right"
    },
    {
      "midi": 65,
      "time": 202.436,
      "duration": 1.026,
      "velocity": 0.57,
      "hand": "right"
    },
    {
      "midi": 74,
      "time": 202.436,
      "duration": 0.513,
      "velocity": 0.57,
      "hand": "right"
    },
    {
      "midi": 47,
      "time": 202.692,
      "duration": 0.256,
      "velocity": 0.54,
      "hand": "left"
    },
    {
      "midi": 48,
      "time": 202.948,
      "duration": 0.256,
      "velocity": 0.5,
      "hand": "left"
    },
    {
      "midi": 67,
      "time": 202.948,
      "duration": 0.513,
      "velocity": 0.57,
      "hand": "right"
    },
    {
      "midi": 50,
      "time": 203.205,
      "duration": 0.256,
      "velocity": 0.53,
      "hand": "left"
    },
    {
      "midi": 52,
      "time": 203.461,
      "duration": 0.256,
      "velocity": 0.56,
      "hand": "left"
    },
    {
      "midi": 55,
      "time": 203.461,
      "duration": 0.513,
      "velocity": 0.57,
      "hand": "left"
    },
    {
      "midi": 64,
      "time": 203.461,
      "duration": 0.513,
      "velocity": 0.57,
      "hand": "right"
    },
    {
      "midi": 72,
      "time": 203.461,
      "duration": 1.154,
      "velocity": 0.6,
      "hand": "right"
    },
    {
      "midi": 53,
      "time": 203.718,
      "duration": 0.256,
      "velocity": 0.57,
      "hand": "left"
    },
    {
      "midi": 55,
      "time": 204.102,
      "duration": 1.538,
      "velocity": 0.61,
      "hand": "left"
    },
    {
      "midi": 62,
      "time": 204.102,
      "duration": 1.154,
      "velocity": 0.57,
      "hand": "right"
    },
    {
      "midi": 43,
      "time": 204.615,
      "duration": 0.513,
      "velocity": 0.57,
      "hand": "left"
    },
    {
      "midi": 71,
      "time": 204.615,
      "duration": 0.513,
      "velocity": 0.57,
      "hand": "right"
    },
    {
      "midi": 48,
      "time": 205.128,
      "duration": 0.498,
      "velocity": 0.6,
      "hand": "left"
    },
    {
      "midi": 64,
      "time": 205.128,
      "duration": 0.513,
      "velocity": 0.56,
      "hand": "right"
    },
    {
      "midi": 72,
      "time": 205.128,
      "duration": 1.026,
      "velocity": 0.6,
      "hand": "right"
    },
    {
      "midi": 48,
      "time": 205.641,
      "duration": 10,
      "velocity": 0.5,
      "hand": "left"
    },
    {
      "midi": 69,
      "time": 205.641,
      "duration": 1.026,
      "velocity": 0.68,
      "hand": "right"
    },
    {
      "midi": 71,
      "time": 206.153,
      "duration": 0.513,
      "velocity": 0.67,
      "hand": "right"
    },
    {
      "midi": 50,
      "time": 206.282,
      "duration": 0.513,
      "velocity": 0.53,
      "hand": "left"
    },
    {
      "midi": 52,
      "time": 206.795,
      "duration": 0.513,
      "velocity": 0.54,
      "hand": "left"
    },
    {
      "midi": 67,
      "time": 206.795,
      "duration": 1.026,
      "velocity": 0.56,
      "hand": "right"
    },
    {
      "midi": 70,
      "time": 206.795,
      "duration": 0.513,
      "velocity": 0.67,
      "hand": "right"
    },
    {
      "midi": 53,
      "time": 207.307,
      "duration": 0.769,
      "velocity": 0.6,
      "hand": "left"
    },
    {
      "midi": 69,
      "time": 207.307,
      "duration": 0.513,
      "velocity": 0.65,
      "hand": "right"
    },
    {
      "midi": 65,
      "time": 207.82,
      "duration": 0.513,
      "velocity": 0.56,
      "hand": "right"
    },
    {
      "midi": 74,
      "time": 207.82,
      "duration": 1.026,
      "velocity": 0.72,
      "hand": "right"
    },
    {
      "midi": 55,
      "time": 208.077,
      "duration": 0.128,
      "velocity": 0.56,
      "hand": "left"
    },
    {
      "midi": 53,
      "time": 208.205,
      "duration": 0.128,
      "velocity": 0.56,
      "hand": "left"
    },
    {
      "midi": 52,
      "time": 208.333,
      "duration": 0.513,
      "velocity": 0.57,
      "hand": "left"
    },
    {
      "midi": 67,
      "time": 208.333,
      "duration": 0.513,
      "velocity": 0.57,
      "hand": "right"
    },
    {
      "midi": 57,
      "time": 208.846,
      "duration": 0.513,
      "velocity": 0.6,
      "hand": "left"
    },
    {
      "midi": 69,
      "time": 208.846,
      "duration": 0.513,
      "velocity": 0.57,
      "hand": "right"
    },
    {
      "midi": 72,
      "time": 208.846,
      "duration": 0.513,
      "velocity": 0.67,
      "hand": "right"
    },
    {
      "midi": 50,
      "time": 209.359,
      "duration": 0.513,
      "velocity": 0.54,
      "hand": "left"
    },
    {
      "midi": 70,
      "time": 209.359,
      "duration": 0.769,
      "velocity": 0.6,
      "hand": "right"
    },
    {
      "midi": 74,
      "time": 209.359,
      "duration": 0.513,
      "velocity": 0.67,
      "hand": "right"
    },
    {
      "midi": 55,
      "time": 209.871,
      "duration": 0.769,
      "velocity": 0.6,
      "hand": "left"
    },
    {
      "midi": 76,
      "time": 209.871,
      "duration": 0.513,
      "velocity": 0.69,
      "hand": "right"
    },
    {
      "midi": 72,
      "time": 210.128,
      "duration": 0.128,
      "velocity": 0.57,
      "hand": "right"
    },
    {
      "midi": 70,
      "time": 210.256,
      "duration": 0.128,
      "velocity": 0.57,
      "hand": "right"
    },
    {
      "midi": 69,
      "time": 210.384,
      "duration": 0.513,
      "velocity": 0.57,
      "hand": "right"
    },
    {
      "midi": 77,
      "time": 210.384,
      "duration": 1.282,
      "velocity": 0.74,
      "hand": "right"
    },
    {
      "midi": 57,
      "time": 210.641,
      "duration": 0.256,
      "velocity": 0.57,
      "hand": "left"
    },
    {
      "midi": 55,
      "time": 210.897,
      "duration": 0.256,
      "velocity": 0.57,
      "hand": "left"
    },
    {
      "midi": 74,
      "time": 210.897,
      "duration": 0.513,
      "velocity": 0.6,
      "hand": "right"
    },
    {
      "midi": 53,
      "time": 211.282,
      "duration": 0.256,
      "velocity": 0.57,
      "hand": "left"
    },
    {
      "midi": 52,
      "time": 211.538,
      "duration": 0.256,
      "velocity": 0.57,
      "hand": "left"
    },
    {
      "midi": 67,
      "time": 211.538,
      "duration": 0.513,
      "velocity": 0.54,
      "hand": "right"
    },
    {
      "midi": 50,
      "time": 211.795,
      "duration": 0.256,
      "velocity": 0.56,
      "hand": "left"
    },
    {
      "midi": 81,
      "time": 211.795,
      "duration": 0.256,
      "velocity": 0.69,
      "hand": "right"
    },
    {
      "midi": 52,
      "time": 212.051,
      "duration": 0.256,
      "velocity": 0.56,
      "hand": "left"
    },
    {
      "midi": 72,
      "time": 212.051,
      "duration": 0.769,
      "velocity": 0.6,
      "hand": "right"
    },
    {
      "midi": 79,
      "time": 212.051,
      "duration": 0.256,
      "velocity": 0.69,
      "hand": "right"
    },
    {
      "midi": 53,
      "time": 212.307,
      "duration": 0.256,
      "velocity": 0.56,
      "hand": "left"
    },
    {
      "midi": 77,
      "time": 212.307,
      "duration": 0.256,
      "velocity": 0.68,
      "hand": "right"
    },
    {
      "midi": 55,
      "time": 212.564,
      "duration": 0.256,
      "velocity": 0.57,
      "hand": "left"
    },
    {
      "midi": 76,
      "time": 212.564,
      "duration": 0.256,
      "velocity": 0.67,
      "hand": "right"
    },
    {
      "midi": 57,
      "time": 212.82,
      "duration": 0.256,
      "velocity": 0.58,
      "hand": "left"
    },
    {
      "midi": 74,
      "time": 212.82,
      "duration": 0.256,
      "velocity": 0.61,
      "hand": "right"
    },
    {
      "midi": 77,
      "time": 212.82,
      "duration": 0.256,
      "velocity": 0.69,
      "hand": "right"
    },
    {
      "midi": 58,
      "time": 213.077,
      "duration": 0.256,
      "velocity": 0.62,
      "hand": "left"
    },
    {
      "midi": 72,
      "time": 213.077,
      "duration": 0.256,
      "velocity": 0.61,
      "hand": "right"
    },
    {
      "midi": 76,
      "time": 213.077,
      "duration": 0.256,
      "velocity": 0.68,
      "hand": "right"
    },
    {
      "midi": 55,
      "time": 213.333,
      "duration": 0.256,
      "velocity": 0.6,
      "hand": "left"
    },
    {
      "midi": 70,
      "time": 213.333,
      "duration": 0.256,
      "velocity": 0.61,
      "hand": "right"
    },
    {
      "midi": 74,
      "time": 213.333,
      "duration": 0.256,
      "velocity": 0.67,
      "hand": "right"
    },
    {
      "midi": 57,
      "time": 213.718,
      "duration": 0.256,
      "velocity": 0.6,
      "hand": "left"
    },
    {
      "midi": 69,
      "time": 213.718,
      "duration": 0.256,
      "velocity": 0.61,
      "hand": "right"
    },
    {
      "midi": 72,
      "time": 213.718,
      "duration": 2.179,
      "velocity": 0.69,
      "hand": "right"
    },
    {
      "midi": 52,
      "time": 213.974,
      "duration": 0.256,
      "velocity": 0.62,
      "hand": "left"
    },
    {
      "midi": 70,
      "time": 213.974,
      "duration": 0.256,
      "velocity": 0.61,
      "hand": "right"
    },
    {
      "midi": 53,
      "time": 214.23,
      "duration": 0.256,
      "velocity": 0.54,
      "hand": "left"
    },
    {
      "midi": 69,
      "time": 214.23,
      "duration": 0.256,
      "velocity": 0.61,
      "hand": "right"
    },
    {
      "midi": 55,
      "time": 214.487,
      "duration": 0.256,
      "velocity": 0.57,
      "hand": "left"
    },
    {
      "midi": 67,
      "time": 214.487,
      "duration": 0.256,
      "velocity": 0.6,
      "hand": "right"
    },
    {
      "midi": 57,
      "time": 214.743,
      "duration": 0.256,
      "velocity": 0.58,
      "hand": "left"
    },
    {
      "midi": 65,
      "time": 214.743,
      "duration": 0.256,
      "velocity": 0.6,
      "hand": "right"
    },
    {
      "midi": 59,
      "time": 215,
      "duration": 0.256,
      "velocity": 0.6,
      "hand": "left"
    },
    {
      "midi": 67,
      "time": 215,
      "duration": 0.256,
      "velocity": 0.6,
      "hand": "right"
    },
    {
      "midi": 65,
      "time": 215.256,
      "duration": 0.256,
      "velocity": 0.58,
      "hand": "right"
    },
    {
      "midi": 60,
      "time": 215.384,
      "duration": 0.256,
      "velocity": 0.61,
      "hand": "right"
    },
    {
      "midi": 57,
      "time": 215.641,
      "duration": 0.256,
      "velocity": 0.57,
      "hand": "left"
    },
    {
      "midi": 64,
      "time": 215.641,
      "duration": 0.256,
      "velocity": 0.58,
      "hand": "right"
    },
    {
      "midi": 59,
      "time": 215.897,
      "duration": 2.308,
      "velocity": 0.61,
      "hand": "left"
    },
    {
      "midi": 62,
      "time": 215.897,
      "duration": 2.051,
      "velocity": 0.58,
      "hand": "right"
    },
    {
      "midi": 67,
      "time": 216.153,
      "duration": 0.128,
      "velocity": 0.56,
      "hand": "right"
    },
    {
      "midi": 69,
      "time": 216.282,
      "duration": 0.128,
      "velocity": 0.57,
      "hand": "right"
    },
    {
      "midi": 71,
      "time": 216.41,
      "duration": 0.256,
      "velocity": 0.57,
      "hand": "right"
    },
    {
      "midi": 72,
      "time": 216.795,
      "duration": 0.256,
      "velocity": 0.58,
      "hand": "right"
    },
    {
      "midi": 74,
      "time": 217.051,
      "duration": 0.256,
      "velocity": 0.6,
      "hand": "right"
    },
    {
      "midi": 76,
      "time": 217.307,
      "duration": 0.256,
      "velocity": 0.61,
      "hand": "right"
    },
    {
      "midi": 77,
      "time": 217.564,
      "duration": 0.769,
      "velocity": 0.62,
      "hand": "right"
    },
    {
      "midi": 67,
      "time": 217.948,
      "duration": 0.256,
      "velocity": 0.57,
      "hand": "right"
    },
    {
      "midi": 60,
      "time": 218.205,
      "duration": 7.308,
      "velocity": 0.6,
      "hand": "right"
    },
    {
      "midi": 69,
      "time": 218.205,
      "duration": 1.154,
      "velocity": 0.6,
      "hand": "right"
    },
    {
      "midi": 72,
      "time": 218.333,
      "duration": 0.128,
      "velocity": 0.54,
      "hand": "right"
    },
    {
      "midi": 74,
      "time": 218.461,
      "duration": 0.128,
      "velocity": 0.57,
      "hand": "right"
    },
    {
      "midi": 76,
      "time": 218.589,
      "duration": 0.128,
      "velocity": 0.57,
      "hand": "right"
    },
    {
      "midi": 77,
      "time": 218.718,
      "duration": 0.256,
      "velocity": 0.58,
      "hand": "right"
    },
    {
      "midi": 79,
      "time": 218.974,
      "duration": 0.256,
      "velocity": 0.61,
      "hand": "right"
    },
    {
      "midi": 81,
      "time": 219.359,
      "duration": 1.154,
      "velocity": 0.65,
      "hand": "right"
    },
    {
      "midi": 77,
      "time": 219.615,
      "duration": 0.385,
      "velocity": 0.57,
      "hand": "right"
    },
    {
      "midi": 74,
      "time": 220,
      "duration": 1.026,
      "velocity": 0.57,
      "hand": "right"
    },
    {
      "midi": 83,
      "time": 220.384,
      "duration": 0.513,
      "velocity": 0.64,
      "hand": "right"
    },
    {
      "midi": 76,
      "time": 221.025,
      "duration": 4.487,
      "velocity": 0.47,
      "hand": "right"
    },
    {
      "midi": 79,
      "time": 221.025,
      "duration": 4.487,
      "velocity": 0.51,
      "hand": "right"
    },
    {
      "midi": 84,
      "time": 221.025,
      "duration": 4.487,
      "velocity": 0.56,
      "hand": "right"
    }
  ]
}
