{
  "id": "bach-prelude-facil",
  "title": "Bach Prelude Facil",
  "artist": "MIDI Source",
  "difficulty": "Médio",
  "bpm": 80,
  "duration": 12,
  "category": "A revisar",
  "isPremium": true,
  "coverUrl": "/images/covers/placeholder.png",
  "notes": [
    {
      "midi": 55,
      "time": 0.375,
      "duration": 0.563,
      "velocity": 0.67,
      "hand": "right"
    },
    {
      "midi": 60,
      "time": 0.563,
      "duration": 0.563,
      "velocity": 0.67,
      "hand": "right"
    },
    {
      "midi": 64,
      "time": 0.75,
      "duration": 0.563,
      "velocity": 0.67,
      "hand": "right"
    },
    {
      "midi": 55,
      "time": 0.938,
      "duration": 1.5,
      "velocity": 0.67,
      "hand": "right"
    },
    {
      "midi": 60,
      "time": 1.125,
      "duration": 1.5,
      "velocity": 0.67,
      "hand": "right"
    },
    {
      "midi": 64,
      "time": 1.313,
      "duration": 1.5,
      "velocity": 0.67,
      "hand": "right"
    },
    {
      "midi": 55,
      "time": 1.875,
      "duration": 5.063,
      "velocity": 0.67,
      "hand": "right"
    },
    {
      "midi": 60,
      "time": 2.063,
      "duration": 8.063,
      "velocity": 0.67,
      "hand": "right"
    },
    {
      "midi": 64,
      "time": 2.25,
      "duration": 8.063,
      "velocity": 0.67,
      "hand": "right"
    },
    {
      "midi": 55,
      "time": 2.438,
      "duration": 6,
      "velocity": 0.67,
      "hand": "right"
    },
    {
      "midi": 60,
      "time": 2.625,
      "duration": 9,
      "velocity": 0.67,
      "hand": "right"
    },
    {
      "midi": 64,
      "time": 2.813,
      "duration": 9,
      "velocity": 0.67,
      "hand": "right"
    },
    {
      "midi": 57,
      "time": 3.375,
      "duration": 0.563,
      "velocity": 0.67,
      "hand": "right"
    },
    {
      "midi": 62,
      "time": 3.563,
      "duration": 0.563,
      "velocity": 0.67,
      "hand": "right"
    },
    {
      "midi": 65,
      "time": 3.75,
      "duration": 0.563,
      "velocity": 0.67,
      "hand": "right"
    },
    {
      "midi": 57,
      "time": 3.938,
      "duration": 1.5,
      "velocity": 0.67,
      "hand": "right"
    },
    {
      "midi": 62,
      "time": 4.125,
      "duration": 1.5,
      "velocity": 0.67,
      "hand": "right"
    },
    {
      "midi": 65,
      "time": 4.313,
      "duration": 1.5,
      "velocity": 0.67,
      "hand": "right"
    },
    {
      "midi": 62,
      "time": 5.063,
      "duration": 2.063,
      "velocity": 0.67,
      "hand": "right"
    },
    {
      "midi": 65,
      "time": 5.25,
      "duration": 2.063,
      "velocity": 0.67,
      "hand": "right"
    },
    {
      "midi": 62,
      "time": 5.625,
      "duration": 3,
      "velocity": 0.67,
      "hand": "right"
    },
    {
      "midi": 65,
      "time": 5.813,
      "duration": 3,
      "velocity": 0.67,
      "hand": "right"
    },
    {
      "midi": 55,
      "time": 6.375,
      "duration": 3.563,
      "velocity": 0.67,
      "hand": "right"
    },
    {
      "midi": 55,
      "time": 6.938,
      "duration": 4.5,
      "velocity": 0.67,
      "hand": "right"
    }
  ],
  "arrangements": {
    "easy": [
      {
        "midi": 55,
        "time": 0.375,
        "duration": 0.563,
        "velocity": 0.67,
        "hand": "right"
      },
      {
        "midi": 60,
        "time": 0.563,
        "duration": 0.563,
        "velocity": 0.67,
        "hand": "right"
      },
      {
        "midi": 64,
        "time": 0.75,
        "duration": 0.563,
        "velocity": 0.67,
        "hand": "right"
      },
      {
        "midi": 55,
        "time": 0.938,
        "duration": 1.5,
        "velocity": 0.67,
        "hand": "right"
      },
      {
        "midi": 60,
        "time": 1.125,
        "duration": 1.5,
        "velocity": 0.67,
        "hand": "right"
      },
      {
        "midi": 64,
        "time": 1.313,
        "duration": 1.5,
        "velocity": 0.67,
        "hand": "right"
      },
      {
        "midi": 55,
        "time": 1.875,
        "duration": 5.063,
        "velocity": 0.67,
        "hand": "right"
      },
      {
        "midi": 60,
        "time": 2.063,
        "duration": 8.063,
        "velocity": 0.67,
        "hand": "right"
      },
      {
        "midi": 64,
        "time": 2.25,
        "duration": 8.063,
        "velocity": 0.67,
        "hand": "right"
      },
      {
        "midi": 55,
        "time": 2.438,
        "duration": 6,
        "velocity": 0.67,
        "hand": "right"
      },
      {
        "midi": 60,
        "time": 2.625,
        "duration": 9,
        "velocity": 0.67,
        "hand": "right"
      },
      {
        "midi": 64,
        "time": 2.813,
        "duration": 9,
        "velocity": 0.67,
        "hand": "right"
      },
      {
        "midi": 57,
        "time": 3.375,
        "duration": 0.563,
        "velocity": 0.67,
        "hand": "right"
      },
      {
        "midi": 62,
        "time": 3.563,
        "duration": 0.563,
        "velocity": 0.67,
        "hand": "right"
      },
      {
        "midi": 65,
        "time": 3.75,
        "duration": 0.563,
        "velocity": 0.67,
        "hand": "right"
      },
      {
        "midi": 57,
        "time": 3.938,
        "duration": 1.5,
        "velocity": 0.67,
        "hand": "right"
      },
      {
        "midi": 62,
        "time": 4.125,
        "duration": 1.5,
        "velocity": 0.67,
        "hand": "right"
      },
      {
        "midi": 65,
        "time": 4.313,
        "duration": 1.5,
        "velocity": 0.67,
        "hand": "right"
      },
      {
        "midi": 62,
        "time": 5.063,
        "duration": 2.063,
        "velocity": 0.67,
        "hand": "right"
      },
      {
        "midi": 65,
        "time": 5.25,
        "duration": 2.063,
        "velocity": 0.67,
        "hand": "right"
      },
      {
        "midi": 62,
        "time": 5.625,
        "duration": 3,
        "velocity": 0.67,
        "hand": "right"
      },
      {
        "midi": 65,
        "time": 5.813,
        "duration": 3,
        "velocity": 0.67,
        "hand": "right"
      },
      {
        "midi": 55,
        "time": 6.375,
        "duration": 3.563,
        "velocity": 0.67,
        "hand": "right"
      },
      {
        "midi": 55,
        "time": 6.938,
        "duration": 4.5,
        "velocity": 0.67,
        "hand": "right"
      }
    ],
    "medium": [
      {
        "midi": 55,
        "time": 0.375,
        "duration": 0.563,
        "velocity": 0.67,
        "hand": "right"
      },
      {
        "midi": 60,
        "time": 0.563,
        "duration": 0.563,
        "velocity": 0.67,
        "hand": "right"
      },
      {
        "midi": 64,
        "time": 0.75,
        "duration": 0.563,
        "velocity": 0.67,
        "hand": "right"
      },
      {
        "midi": 55,
        "time": 0.938,
        "duration": 1.5,
        "velocity": 0.67,
        "hand": "right"
      },
      {
        "midi": 60,
        "time": 1.125,
        "duration": 1.5,
        "velocity": 0.67,
        "hand": "right"
      },
      {
        "midi": 64,
        "time": 1.313,
        "duration": 1.5,
        "velocity": 0.67,
        "hand": "right"
      },
      {
        "midi": 55,
        "time": 1.875,
        "duration": 5.063,
        "velocity": 0.67,
        "hand": "right"
      },
      {
        "midi": 60,
        "time": 2.063,
        "duration": 8.063,
        "velocity": 0.67,
        "hand": "right"
      },
      {
        "midi": 64,
        "time": 2.25,
        "duration": 8.063,
        "velocity": 0.67,
        "hand": "right"
      },
      {
        "midi": 55,
        "time": 2.438,
        "duration": 6,
        "velocity": 0.67,
        "hand": "right"
      },
      {
        "midi": 60,
        "time": 2.625,
        "duration": 9,
        "velocity": 0.67,
        "hand": "right"
      },
      {
        "midi": 64,
        "time": 2.813,
        "duration": 9,
        "velocity": 0.67,
        "hand": "right"
      },
      {
        "midi": 57,
        "time": 3.375,
        "duration": 0.563,
        "velocity": 0.67,
        "hand": "right"
      },
      {
        "midi": 62,
        "time": 3.563,
        "duration": 0.563,
        "velocity": 0.67,
        "hand": "right"
      },
      {
        "midi": 65,
        "time": 3.75,
        "duration": 0.563,
        "velocity": 0.67,
        "hand": "right"
      },
      {
        "midi": 57,
        "time": 3.938,
        "duration": 1.5,
        "velocity": 0.67,
        "hand": "right"
      },
      {
        "midi": 62,
        "time": 4.125,
        "duration": 1.5,
        "velocity": 0.67,
        "hand": "right"
      },
      {
        "midi": 65,
        "time": 4.313,
        "duration": 1.5,
        "velocity": 0.67,
        "hand": "right"
      },
      {
        "midi": 62,
        "time": 5.063,
        "duration": 2.063,
        "velocity": 0.67,
        "hand": "right"
      },
      {
        "midi": 65,
        "time": 5.25,
        "duration": 2.063,
        "velocity": 0.67,
        "hand": "right"
      },
      {
        "midi": 62,
        "time": 5.625,
        "duration": 3,
        "velocity": 0.67,
        "hand": "right"
      },
      {
        "midi": 65,
        "time": 5.813,
        "duration": 3,
        "velocity": 0.67,
        "hand": "right"
      },
      {
        "midi": 55,
        "time": 6.375,
        "duration": 3.563,
        "velocity": 0.67,
        "hand": "right"
      },
      {
        "midi": 55,
        "time": 6.938,
        "duration": 4.5,
        "velocity": 0.67,
        "hand": "right"
      }
    ],
    "hard": [
      {
        "midi": 55,
        "time": 0.375,
        "duration": 0.563,
        "velocity": 0.67,
        "hand": "right"
      },
      {
        "midi": 60,
        "time": 0.563,
        "duration": 0.563,
        "velocity": 0.67,
        "hand": "right"
      },
      {
        "midi": 64,
        "time": 0.75,
        "duration": 0.563,
        "velocity": 0.67,
        "hand": "right"
      },
      {
        "midi": 55,
        "time": 0.938,
        "duration": 1.5,
        "velocity": 0.67,
        "hand": "right"
      },
      {
        "midi": 60,
        "time": 1.125,
        "duration": 1.5,
        "velocity": 0.67,
        "hand": "right"
      },
      {
        "midi": 64,
        "time": 1.313,
        "duration": 1.5,
        "velocity": 0.67,
        "hand": "right"
      },
      {
        "midi": 55,
        "time": 1.875,
        "duration": 5.063,
        "velocity": 0.67,
        "hand": "right"
      },
      {
        "midi": 60,
        "time": 2.063,
        "duration": 8.063,
        "velocity": 0.67,
        "hand": "right"
      },
      {
        "midi": 64,
        "time": 2.25,
        "duration": 8.063,
        "velocity": 0.67,
        "hand": "right"
      },
      {
        "midi": 55,
        "time": 2.438,
        "duration": 6,
        "velocity": 0.67,
        "hand": "right"
      },
      {
        "midi": 60,
        "time": 2.625,
        "duration": 9,
        "velocity": 0.67,
        "hand": "right"
      },
      {
        "midi": 64,
        "time": 2.813,
        "duration": 9,
        "velocity": 0.67,
        "hand": "right"
      },
      {
        "midi": 57,
        "time": 3.375,
        "duration": 0.563,
        "velocity": 0.67,
        "hand": "right"
      },
      {
        "midi": 62,
        "time": 3.563,
        "duration": 0.563,
        "velocity": 0.67,
        "hand": "right"
      },
      {
        "midi": 65,
        "time": 3.75,
        "duration": 0.563,
        "velocity": 0.67,
        "hand": "right"
      },
      {
        "midi": 57,
        "time": 3.938,
        "duration": 1.5,
        "velocity": 0.67,
        "hand": "right"
      },
      {
        "midi": 62,
        "time": 4.125,
        "duration": 1.5,
        "velocity": 0.67,
        "hand": "right"
      },
      {
        "midi": 65,
        "time": 4.313,
        "duration": 1.5,
        "velocity": 0.67,
        "hand": "right"
      },
      {
        "midi": 62,
        "time": 5.063,
        "duration": 2.063,
        "velocity": 0.67,
        "hand": "right"
      },
      {
        "midi": 65,
        "time": 5.25,
        "duration": 2.063,
        "velocity": 0.67,
        "hand": "right"
      },
      {
        "midi": 62,
        "time": 5.625,
        "duration": 3,
        "velocity": 0.67,
        "hand": "right"
      },
      {
        "midi": 65,
        "time": 5.813,
        "duration": 3,
        "velocity": 0.67,
        "hand": "right"
      },
      {
        "midi": 55,
        "time": 6.375,
        "duration": 3.563,
        "velocity": 0.67,
        "hand": "right"
      },
      {
        "midi": 55,
        "time": 6.938,
        "duration": 4.5,
        "velocity": 0.67,
        "hand": "right"
      }
    ]
  },
  "notes1Hand": [
    {
      "midi": 55,
      "time": 0.375,
      "duration": 0.563,
      "velocity": 0.67,
      "hand": "right"
    },
    {
      "midi": 60,
      "time": 0.563,
      "duration": 0.563,
      "velocity": 0.67,
      "hand": "right"
    },
    {
      "midi": 64,
      "time": 0.75,
      "duration": 0.563,
      "velocity": 0.67,
      "hand": "right"
    },
    {
      "midi": 55,
      "time": 0.938,
      "duration": 1.5,
      "velocity": 0.67,
      "hand": "right"
    },
    {
      "midi": 60,
      "time": 1.125,
      "duration": 1.5,
      "velocity": 0.67,
      "hand": "right"
    },
    {
      "midi": 64,
      "time": 1.313,
      "duration": 1.5,
      "velocity": 0.67,
      "hand": "right"
    },
    {
      "midi": 55,
      "time": 1.875,
      "duration": 5.063,
      "velocity": 0.67,
      "hand": "right"
    },
    {
      "midi": 60,
      "time": 2.063,
      "duration": 8.063,
      "velocity": 0.67,
      "hand": "right"
    },
    {
      "midi": 64,
      "time": 2.25,
      "duration": 8.063,
      "velocity": 0.67,
      "hand": "right"
    },
    {
      "midi": 55,
      "time": 2.438,
      "duration": 6,
      "velocity": 0.67,
      "hand": "right"
    },
    {
      "midi": 60,
      "time": 2.625,
      "duration": 9,
      "velocity": 0.67,
      "hand": "right"
    },
    {
      "midi": 64,
      "time": 2.813,
      "duration": 9,
      "velocity": 0.67,
      "hand": "right"
    },
    {
      "midi": 57,
      "time": 3.375,
      "duration": 0.563,
      "velocity": 0.67,
      "hand": "right"
    },
    {
      "midi": 62,
      "time": 3.563,
      "duration": 0.563,
      "velocity": 0.67,
      "hand": "right"
    },
    {
      "midi": 65,
      "time": 3.75,
      "duration": 0.563,
      "velocity": 0.67,
      "hand": "right"
    },
    {
      "midi": 57,
      "time": 3.938,
      "duration": 1.5,
      "velocity": 0.67,
      "hand": "right"
    },
    {
      "midi": 62,
      "time": 4.125,
      "duration": 1.5,
      "velocity": 0.67,
      "hand": "right"
    },
    {
      "midi": 65,
      "time": 4.313,
      "duration": 1.5,
      "velocity": 0.67,
      "hand": "right"
    },
    {
      "midi": 62,
      "time": 5.063,
      "duration": 2.063,
      "velocity": 0.67,
      "hand": "right"
    },
    {
      "midi": 65,
      "time": 5.25,
      "duration": 2.063,
      "velocity": 0.67,
      "hand": "right"
    },
    {
      "midi": 62,
      "time": 5.625,
      "duration": 3,
      "velocity": 0.67,
      "hand": "right"
    },
    {
      "midi": 65,
      "time": 5.813,
      "duration": 3,
      "velocity": 0.67,
      "hand": "right"
    },
    {
      "midi": 55,
      "time": 6.375,
      "duration": 3.563,
      "velocity": 0.67,
      "hand": "right"
    },
    {
      "midi": 55,
      "time": 6.938,
      "duration": 4.5,
      "velocity": 0.67,
      "hand": "right"
    }
  ],
  "notes2Hands": [
    {
      "midi": 55,
      "time": 0.375,
      "duration": 0.563,
      "velocity": 0.67,
      "hand": "right"
    },
    {
      "midi": 60,
      "time": 0.563,
      "duration": 0.563,
      "velocity": 0.67,
      "hand": "right"
    },
    {
      "midi": 64,
      "time": 0.75,
      "duration": 0.563,
      "velocity": 0.67,
      "hand": "right"
    },
    {
      "midi": 55,
      "time": 0.938,
      "duration": 1.5,
      "velocity": 0.67,
      "hand": "right"
    },
    {
      "midi": 60,
      "time": 1.125,
      "duration": 1.5,
      "velocity": 0.67,
      "hand": "right"
    },
    {
      "midi": 64,
      "time": 1.313,
      "duration": 1.5,
      "velocity": 0.67,
      "hand": "right"
    },
    {
      "midi": 55,
      "time": 1.875,
      "duration": 5.063,
      "velocity": 0.67,
      "hand": "right"
    },
    {
      "midi": 60,
      "time": 2.063,
      "duration": 8.063,
      "velocity": 0.67,
      "hand": "right"
    },
    {
      "midi": 64,
      "time": 2.25,
      "duration": 8.063,
      "velocity": 0.67,
      "hand": "right"
    },
    {
      "midi": 55,
      "time": 2.438,
      "duration": 6,
      "velocity": 0.67,
      "hand": "right"
    },
    {
      "midi": 60,
      "time": 2.625,
      "duration": 9,
      "velocity": 0.67,
      "hand": "right"
    },
    {
      "midi": 64,
      "time": 2.813,
      "duration": 9,
      "velocity": 0.67,
      "hand": "right"
    },
    {
      "midi": 57,
      "time": 3.375,
      "duration": 0.563,
      "velocity": 0.67,
      "hand": "right"
    },
    {
      "midi": 62,
      "time": 3.563,
      "duration": 0.563,
      "velocity": 0.67,
      "hand": "right"
    },
    {
      "midi": 65,
      "time": 3.75,
      "duration": 0.563,
      "velocity": 0.67,
      "hand": "right"
    },
    {
      "midi": 57,
      "time": 3.938,
      "duration": 1.5,
      "velocity": 0.67,
      "hand": "right"
    },
    {
      "midi": 62,
      "time": 4.125,
      "duration": 1.5,
      "velocity": 0.67,
      "hand": "right"
    },
    {
      "midi": 65,
      "time": 4.313,
      "duration": 1.5,
      "velocity": 0.67,
      "hand": "right"
    },
    {
      "midi": 62,
      "time": 5.063,
      "duration": 2.063,
      "velocity": 0.67,
      "hand": "right"
    },
    {
      "midi": 65,
      "time": 5.25,
      "duration": 2.063,
      "velocity": 0.67,
      "hand": "right"
    },
    {
      "midi": 62,
      "time": 5.625,
      "duration": 3,
      "velocity": 0.67,
      "hand": "right"
    },
    {
      "midi": 65,
      "time": 5.813,
      "duration": 3,
      "velocity": 0.67,
      "hand": "right"
    },
    {
      "midi": 55,
      "time": 6.375,
      "duration": 3.563,
      "velocity": 0.67,
      "hand": "right"
    },
    {
      "midi": 55,
      "time": 6.938,
      "duration": 4.5,
      "velocity": 0.67,
      "hand": "right"
    }
  ]
}
