{
  "id": "ballade-4chopin",
  "title": "control track",
  "artist": "MIDI Source",
  "difficulty": "Médio",
  "bpm": 60,
  "duration": 717,
  "category": "A revisar",
  "isPremium": true,
  "coverUrl": "/images/covers/placeholder.png",
  "notes": [
    {
      "midi": 67,
      "time": 0,
      "duration": 0.5,
      "velocity": 0.71,
      "hand": "right"
    },
    {
      "midi": 79,
      "time": 0,
      "duration": 0.5,
      "velocity": 0.71,
      "hand": "right"
    },
    {
      "midi": 67,
      "time": 0.5,
      "duration": 0.5,
      "velocity": 0.71,
      "hand": "right"
    },
    {
      "midi": 79,
      "time": 0.5,
      "duration": 0.5,
      "velocity": 0.71,
      "hand": "right"
    },
    {
      "midi": 67,
      "time": 1,
      "duration": 0.5,
      "velocity": 0.71,
      "hand": "right"
    },
    {
      "midi": 79,
      "time": 1,
      "duration": 0.5,
      "velocity": 0.71,
      "hand": "right"
    },
    {
      "midi": 64,
      "time": 1.5,
      "duration": 0.5,
      "velocity": 0.71,
      "hand": "right"
    },
    {
      "midi": 67,
      "time": 1.5,
      "duration": 0.5,
      "velocity": 0.71,
      "hand": "right"
    },
    {
      "midi": 79,
      "time": 1.5,
      "duration": 0.5,
      "velocity": 0.71,
      "hand": "right"
    },
    {
      "midi": 72,
      "time": 1.75,
      "duration": 0.25,
      "velocity": 0.71,
      "hand": "right"
    },
    {
      "midi": 64,
      "time": 2,
      "duration": 0.5,
      "velocity": 0.65,
      "hand": "right"
    },
    {
      "midi": 67,
      "time": 2,
      "duration": 0.5,
      "velocity": 0.71,
      "hand": "right"
    },
    {
      "midi": 79,
      "time": 2,
      "duration": 0.5,
      "velocity": 0.71,
      "hand": "right"
    },
    {
      "midi": 72,
      "time": 2.25,
      "duration": 0.25,
      "velocity": 0.71,
      "hand": "right"
    },
    {
      "midi": 62,
      "time": 2.5,
      "duration": 0.5,
      "velocity": 0.59,
      "hand": "right"
    },
    {
      "midi": 67,
      "time": 2.5,
      "duration": 0.5,
      "velocity": 0.71,
      "hand": "right"
    },
    {
      "midi": 79,
      "time": 2.5,
      "duration": 0.5,
      "velocity": 0.71,
      "hand": "right"
    },
    {
      "midi": 72,
      "time": 2.75,
      "duration": 0.25,
      "velocity": 0.71,
      "hand": "right"
    },
    {
      "midi": 62,
      "time": 3,
      "duration": 0.5,
      "velocity": 0.54,
      "hand": "right"
    },
    {
      "midi": 67,
      "time": 3,
      "duration": 0.5,
      "velocity": 0.71,
      "hand": "right"
    },
    {
      "midi": 79,
      "time": 3,
      "duration": 0.5,
      "velocity": 0.71,
      "hand": "right"
    },
    {
      "midi": 70,
      "time": 3.25,
      "duration": 0.25,
      "velocity": 0.71,
      "hand": "right"
    },
    {
      "midi": 72,
      "time": 3.25,
      "duration": 0.25,
      "velocity": 0.71,
      "hand": "right"
    },
    {
      "midi": 60,
      "time": 3.5,
      "duration": 0.5,
      "velocity": 0.48,
      "hand": "right"
    },
    {
      "midi": 67,
      "time": 3.5,
      "duration": 0.5,
      "velocity": 0.82,
      "hand": "right"
    },
    {
      "midi": 79,
      "time": 3.5,
      "duration": 0.5,
      "velocity": 0.82,
      "hand": "right"
    },
    {
      "midi": 70,
      "time": 3.75,
      "duration": 0.25,
      "velocity": 0.71,
      "hand": "right"
    },
    {
      "midi": 72,
      "time": 3.75,
      "duration": 0.25,
      "velocity": 0.71,
      "hand": "right"
    },
    {
      "midi": 67,
      "time": 4,
      "duration": 0.5,
      "velocity": 0.93,
      "hand": "right"
    },
    {
      "midi": 79,
      "time": 4,
      "duration": 0.5,
      "velocity": 0.93,
      "hand": "right"
    },
    {
      "midi": 70,
      "time": 4.25,
      "duration": 0.25,
      "velocity": 0.71,
      "hand": "right"
    },
    {
      "midi": 72,
      "time": 4.25,
      "duration": 0.25,
      "velocity": 0.71,
      "hand": "right"
    },
    {
      "midi": 41,
      "time": 4.5,
      "duration": 0.25,
      "velocity": 0.48,
      "hand": "left"
    },
    {
      "midi": 67,
      "time": 4.5,
      "duration": 0.5,
      "velocity": 0.93,
      "hand": "right"
    },
    {
      "midi": 79,
      "time": 4.5,
      "duration": 0.5,
      "velocity": 0.93,
      "hand": "right"
    },
    {
      "midi": 60,
      "time": 4.75,
      "duration": 0.25,
      "velocity": 0.48,
      "hand": "right"
    },
    {
      "midi": 69,
      "time": 4.75,
      "duration": 0.25,
      "velocity": 0.71,
      "hand": "right"
    },
    {
      "midi": 72,
      "time": 4.75,
      "duration": 0.25,
      "velocity": 0.71,
      "hand": "right"
    },
    {
      "midi": 57,
      "time": 5,
      "duration": 0.25,
      "velocity": 0.48,
      "hand": "left"
    },
    {
      "midi": 65,
      "time": 5,
      "duration": 0.5,
      "velocity": 0.82,
      "hand": "right"
    },
    {
      "midi": 77,
      "time": 5,
      "duration": 0.5,
      "velocity": 0.82,
      "hand": "right"
    },
    {
      "midi": 60,
      "time": 5.25,
      "duration": 0.25,
      "velocity": 0.48,
      "hand": "right"
    },
    {
      "midi": 69,
      "time": 5.25,
      "duration": 0.25,
      "velocity": 0.71,
      "hand": "right"
    },
    {
      "midi": 72,
      "time": 5.25,
      "duration": 0.25,
      "velocity": 0.71,
      "hand": "right"
    },
    {
      "midi": 50,
      "time": 5.5,
      "duration": 0.25,
      "velocity": 0.48,
      "hand": "left"
    },
    {
      "midi": 64,
      "time": 5.5,
      "duration": 0.5,
      "velocity": 0.71,
      "hand": "right"
    },
    {
      "midi": 76,
      "time": 5.5,
      "duration": 0.5,
      "velocity": 0.71,
      "hand": "right"
    },
    {
      "midi": 60,
      "time": 5.75,
      "duration": 0.25,
      "velocity": 0.48,
      "hand": "right"
    },
    {
      "midi": 69,
      "time": 5.75,
      "duration": 0.25,
      "velocity": 0.71,
      "hand": "right"
    },
    {
      "midi": 72,
      "time": 5.75,
      "duration": 0.25,
      "velocity": 0.71,
      "hand": "right"
    },
    {
      "midi": 43,
      "time": 6,
      "duration": 0.25,
      "velocity": 0.48,
      "hand": "left"
    },
    {
      "midi": 64,
      "time": 6,
      "duration": 0.5,
      "velocity": 0.71,
      "hand": "right"
    },
    {
      "midi": 76,
      "time": 6,
      "duration": 0.5,
      "velocity": 0.71,
      "hand": "right"
    },
    {
      "midi": 55,
      "time": 6.25,
      "duration": 0.25,
      "velocity": 0.48,
      "hand": "left"
    },
    {
      "midi": 67,
      "time": 6.25,
      "duration": 0.25,
      "velocity": 0.71,
      "hand": "right"
    },
    {
      "midi": 71,
      "time": 6.25,
      "duration": 0.25,
      "velocity": 0.71,
      "hand": "right"
    },
    {
      "midi": 53,
      "time": 6.5,
      "duration": 0.25,
      "velocity": 0.48,
      "hand": "left"
    },
    {
      "midi": 59,
      "time": 6.5,
      "duration": 0.25,
      "velocity": 0.48,
      "hand": "left"
    },
    {
      "midi": 62,
      "time": 6.5,
      "duration": 0.5,
      "velocity": 0.71,
      "hand": "right"
    },
    {
      "midi": 74,
      "time": 6.5,
      "duration": 0.5,
      "velocity": 0.71,
      "hand": "right"
    },
    {
      "midi": 55,
      "time": 6.75,
      "duration": 0.25,
      "velocity": 0.48,
      "hand": "left"
    },
    {
      "midi": 67,
      "time": 6.75,
      "duration": 0.25,
      "velocity": 0.71,
      "hand": "right"
    },
    {
      "midi": 71,
      "time": 6.75,
      "duration": 0.25,
      "velocity": 0.71,
      "hand": "right"
    },
    {
      "midi": 52,
      "time": 7,
      "duration": 0.25,
      "velocity": 0.48,
      "hand": "left"
    },
    {
      "midi": 60,
      "time": 7,
      "duration": 0.5,
      "velocity": 0.71,
      "hand": "right"
    },
    {
      "midi": 72,
      "time": 7,
      "duration": 0.5,
      "velocity": 0.71,
      "hand": "right"
    },
    {
      "midi": 55,
      "time": 7.25,
      "duration": 0.25,
      "velocity": 0.48,
      "hand": "left"
    },
    {
      "midi": 67,
      "time": 7.25,
      "duration": 0.25,
      "velocity": 0.71,
      "hand": "right"
    },
    {
      "midi": 48,
      "time": 7.5,
      "duration": 0.25,
      "velocity": 0.48,
      "hand": "left"
    },
    {
      "midi": 64,
      "time": 7.5,
      "duration": 0.25,
      "velocity": 0.71,
      "hand": "right"
    },
    {
      "midi": 76,
      "time": 7.5,
      "duration": 1.5,
      "velocity": 0.71,
      "hand": "right"
    },
    {
      "midi": 55,
      "time": 7.75,
      "duration": 0.25,
      "velocity": 0.48,
      "hand": "left"
    },
    {
      "midi": 67,
      "time": 7.75,
      "duration": 0.25,
      "velocity": 0.71,
      "hand": "right"
    },
    {
      "midi": 72,
      "time": 7.75,
      "duration": 0.25,
      "velocity": 0.71,
      "hand": "right"
    },
    {
      "midi": 60,
      "time": 8,
      "duration": 0.25,
      "velocity": 0.48,
      "hand": "right"
    },
    {
      "midi": 64,
      "time": 8,
      "duration": 0.25,
      "velocity": 0.71,
      "hand": "right"
    },
    {
      "midi": 57,
      "time": 8.25,
      "duration": 0.25,
      "velocity": 0.48,
      "hand": "left"
    },
    {
      "midi": 65,
      "time": 8.25,
      "duration": 0.25,
      "velocity": 0.71,
      "hand": "right"
    },
    {
      "midi": 72,
      "time": 8.25,
      "duration": 0.25,
      "velocity": 0.71,
      "hand": "right"
    },
    {
      "midi": 55,
      "time": 8.5,
      "duration": 0.25,
      "velocity": 0.48,
      "hand": "left"
    },
    {
      "midi": 64,
      "time": 8.5,
      "duration": 0.25,
      "velocity": 0.71,
      "hand": "right"
    },
    {
      "midi": 67,
      "time": 8.75,
      "duration": 0.25,
      "velocity": 0.71,
      "hand": "right"
    },
    {
      "midi": 72,
      "time": 8.75,
      "duration": 0.25,
      "velocity": 0.71,
      "hand": "right"
    },
    {
      "midi": 36,
      "time": 9,
      "duration": 0.25,
      "velocity": 0.48,
      "hand": "left"
    },
    {
      "midi": 64,
      "time": 9,
      "duration": 0.5,
      "velocity": 0.71,
      "hand": "right"
    },
    {
      "midi": 79,
      "time": 9,
      "duration": 0.5,
      "velocity": 0.71,
      "hand": "right"
    },
    {
      "midi": 55,
      "time": 9.25,
      "duration": 0.25,
      "velocity": 0.48,
      "hand": "left"
    },
    {
      "midi": 72,
      "time": 9.25,
      "duration": 0.25,
      "velocity": 0.71,
      "hand": "right"
    },
    {
      "midi": 60,
      "time": 9.5,
      "duration": 0.25,
      "velocity": 0.48,
      "hand": "right"
    },
    {
      "midi": 67,
      "time": 9.5,
      "duration": 0.5,
      "velocity": 0.71,
      "hand": "right"
    },
    {
      "midi": 79,
      "time": 9.5,
      "duration": 0.5,
      "velocity": 0.71,
      "hand": "right"
    },
    {
      "midi": 62,
      "time": 9.75,
      "duration": 0.25,
      "velocity": 0.48,
      "hand": "right"
    },
    {
      "midi": 70,
      "time": 9.75,
      "duration": 0.25,
      "velocity": 0.71,
      "hand": "right"
    },
    {
      "midi": 72,
      "time": 9.75,
      "duration": 0.25,
      "velocity": 0.71,
      "hand": "right"
    },
    {
      "midi": 64,
      "time": 10,
      "duration": 0.5,
      "velocity": 0.48,
      "hand": "right"
    },
    {
      "midi": 67,
      "time": 10,
      "duration": 0.5,
      "velocity": 0.71,
      "hand": "right"
    },
    {
      "midi": 79,
      "time": 10,
      "duration": 0.5,
      "velocity": 0.71,
      "hand": "right"
    },
    {
      "midi": 70,
      "time": 10.25,
      "duration": 0.25,
      "velocity": 0.71,
      "hand": "right"
    },
    {
      "midi": 72,
      "time": 10.25,
      "duration": 0.25,
      "velocity": 0.71,
      "hand": "right"
    },
    {
      "midi": 41,
      "time": 10.5,
      "duration": 0.25,
      "velocity": 0.48,
      "hand": "left"
    },
    {
      "midi": 67,
      "time": 10.5,
      "duration": 0.5,
      "velocity": 0.71,
      "hand": "right"
    },
    {
      "midi": 79,
      "time": 10.5,
      "duration": 0.5,
      "velocity": 0.71,
      "hand": "right"
    },
    {
      "midi": 60,
      "time": 10.75,
      "duration": 0.25,
      "velocity": 0.48,
      "hand": "right"
    },
    {
      "midi": 69,
      "time": 10.75,
      "duration": 0.25,
      "velocity": 0.71,
      "hand": "right"
    },
    {
      "midi": 72,
      "time": 10.75,
      "duration": 0.25,
      "velocity": 0.71,
      "hand": "right"
    },
    {
      "midi": 57,
      "time": 11,
      "duration": 0.25,
      "velocity": 0.48,
      "hand": "left"
    },
    {
      "midi": 65,
      "time": 11,
      "duration": 0.5,
      "velocity": 0.71,
      "hand": "right"
    },
    {
      "midi": 77,
      "time": 11,
      "duration": 0.5,
      "velocity": 0.71,
      "hand": "right"
    },
    {
      "midi": 60,
      "time": 11.25,
      "duration": 0.25,
      "velocity": 0.48,
      "hand": "right"
    },
    {
      "midi": 69,
      "time": 11.25,
      "duration": 0.25,
      "velocity": 0.71,
      "hand": "right"
    },
    {
      "midi": 72,
      "time": 11.25,
      "duration": 0.25,
      "velocity": 0.71,
      "hand": "right"
    },
    {
      "midi": 50,
      "time": 11.5,
      "duration": 0.25,
      "velocity": 0.48,
      "hand": "left"
    },
    {
      "midi": 64,
      "time": 11.5,
      "duration": 0.5,
      "velocity": 0.71,
      "hand": "right"
    },
    {
      "midi": 76,
      "time": 11.5,
      "duration": 0.5,
      "velocity": 0.71,
      "hand": "right"
    },
    {
      "midi": 60,
      "time": 11.75,
      "duration": 0.25,
      "velocity": 0.48,
      "hand": "right"
    },
    {
      "midi": 69,
      "time": 11.75,
      "duration": 0.25,
      "velocity": 0.71,
      "hand": "right"
    },
    {
      "midi": 72,
      "time": 11.75,
      "duration": 0.25,
      "velocity": 0.71,
      "hand": "right"
    },
    {
      "midi": 43,
      "time": 12,
      "duration": 0.25,
      "velocity": 0.48,
      "hand": "left"
    },
    {
      "midi": 64,
      "time": 12,
      "duration": 0.5,
      "velocity": 0.71,
      "hand": "right"
    },
    {
      "midi": 76,
      "time": 12,
      "duration": 0.5,
      "velocity": 0.71,
      "hand": "right"
    },
    {
      "midi": 55,
      "time": 12.25,
      "duration": 0.25,
      "velocity": 0.48,
      "hand": "left"
    },
    {
      "midi": 67,
      "time": 12.25,
      "duration": 0.25,
      "velocity": 0.71,
      "hand": "right"
    },
    {
      "midi": 71,
      "time": 12.25,
      "duration": 0.25,
      "velocity": 0.71,
      "hand": "right"
    },
    {
      "midi": 53,
      "time": 12.5,
      "duration": 0.25,
      "velocity": 0.48,
      "hand": "left"
    },
    {
      "midi": 59,
      "time": 12.5,
      "duration": 0.25,
      "velocity": 0.48,
      "hand": "left"
    },
    {
      "midi": 62,
      "time": 12.5,
      "duration": 0.5,
      "velocity": 0.71,
      "hand": "right"
    },
    {
      "midi": 74,
      "time": 12.5,
      "duration": 0.5,
      "velocity": 0.71,
      "hand": "right"
    },
    {
      "midi": 55,
      "time": 12.75,
      "duration": 0.25,
      "velocity": 0.48,
      "hand": "left"
    },
    {
      "midi": 67,
      "time": 12.75,
      "duration": 0.25,
      "velocity": 0.71,
      "hand": "right"
    },
    {
      "midi": 71,
      "time": 12.75,
      "duration": 0.25,
      "velocity": 0.71,
      "hand": "right"
    },
    {
      "midi": 52,
      "time": 13,
      "duration": 0.25,
      "velocity": 0.48,
      "hand": "left"
    },
    {
      "midi": 60,
      "time": 13,
      "duration": 0.5,
      "velocity": 0.71,
      "hand": "right"
    },
    {
      "midi": 72,
      "time": 13,
      "duration": 0.5,
      "velocity": 0.71,
      "hand": "right"
    },
    {
      "midi": 55,
      "time": 13.25,
      "duration": 0.25,
      "velocity": 0.48,
      "hand": "left"
    },
    {
      "midi": 67,
      "time": 13.25,
      "duration": 0.25,
      "velocity": 0.71,
      "hand": "right"
    },
    {
      "midi": 48,
      "time": 13.5,
      "duration": 0.25,
      "velocity": 0.48,
      "hand": "left"
    },
    {
      "midi": 64,
      "time": 13.5,
      "duration": 0.25,
      "velocity": 0.71,
      "hand": "right"
    },
    {
      "midi": 76,
      "time": 13.5,
      "duration": 1.5,
      "velocity": 0.71,
      "hand": "right"
    },
    {
      "midi": 55,
      "time": 13.75,
      "duration": 0.25,
      "velocity": 0.48,
      "hand": "left"
    },
    {
      "midi": 67,
      "time": 13.75,
      "duration": 0.25,
      "velocity": 0.71,
      "hand": "right"
    },
    {
      "midi": 72,
      "time": 13.75,
      "duration": 0.25,
      "velocity": 0.71,
      "hand": "right"
    },
    {
      "midi": 60,
      "time": 14,
      "duration": 0.25,
      "velocity": 0.48,
      "hand": "right"
    },
    {
      "midi": 64,
      "time": 14,
      "duration": 0.25,
      "velocity": 0.71,
      "hand": "right"
    },
    {
      "midi": 57,
      "time": 14.25,
      "duration": 0.25,
      "velocity": 0.48,
      "hand": "left"
    },
    {
      "midi": 65,
      "time": 14.25,
      "duration": 0.25,
      "velocity": 0.71,
      "hand": "right"
    },
    {
      "midi": 72,
      "time": 14.25,
      "duration": 0.25,
      "velocity": 0.71,
      "hand": "right"
    },
    {
      "midi": 55,
      "time": 14.5,
      "duration": 0.25,
      "velocity": 0.48,
      "hand": "left"
    },
    {
      "midi": 64,
      "time": 14.5,
      "duration": 0.25,
      "velocity": 0.71,
      "hand": "right"
    },
    {
      "midi": 67,
      "time": 14.75,
      "duration": 0.25,
      "velocity": 0.71,
      "hand": "right"
    },
    {
      "midi": 72,
      "time": 14.75,
      "duration": 0.25,
      "velocity": 0.71,
      "hand": "right"
    },
    {
      "midi": 43,
      "time": 15,
      "duration": 0.25,
      "velocity": 0.71,
      "hand": "left"
    },
    {
      "midi": 64,
      "time": 15,
      "duration": 0.5,
      "velocity": 0.71,
      "hand": "right"
    },
    {
      "midi": 76,
      "time": 15,
      "duration": 0.5,
      "velocity": 0.71,
      "hand": "right"
    },
    {
      "midi": 55,
      "time": 15.25,
      "duration": 0.25,
      "velocity": 0.71,
      "hand": "left"
    },
    {
      "midi": 67,
      "time": 15.25,
      "duration": 0.25,
      "velocity": 0.71,
      "hand": "right"
    },
    {
      "midi": 71,
      "time": 15.25,
      "duration": 0.25,
      "velocity": 0.71,
      "hand": "right"
    },
    {
      "midi": 53,
      "time": 15.5,
      "duration": 0.25,
      "velocity": 0.71,
      "hand": "left"
    },
    {
      "midi": 59,
      "time": 15.5,
      "duration": 0.25,
      "velocity": 0.71,
      "hand": "left"
    },
    {
      "midi": 62,
      "time": 15.5,
      "duration": 0.5,
      "velocity": 0.71,
      "hand": "right"
    },
    {
      "midi": 74,
      "time": 15.5,
      "duration": 0.5,
      "velocity": 0.71,
      "hand": "right"
    },
    {
      "midi": 55,
      "time": 15.75,
      "duration": 0.25,
      "velocity": 0.71,
      "hand": "left"
    },
    {
      "midi": 67,
      "time": 15.75,
      "duration": 0.25,
      "velocity": 0.71,
      "hand": "right"
    },
    {
      "midi": 71,
      "time": 15.75,
      "duration": 0.25,
      "velocity": 0.71,
      "hand": "right"
    },
    {
      "midi": 52,
      "time": 16,
      "duration": 0.25,
      "velocity": 0.71,
      "hand": "left"
    },
    {
      "midi": 60,
      "time": 16,
      "duration": 0.5,
      "velocity": 0.71,
      "hand": "right"
    },
    {
      "midi": 72,
      "time": 16,
      "duration": 0.5,
      "velocity": 0.71,
      "hand": "right"
    },
    {
      "midi": 55,
      "time": 16.25,
      "duration": 0.25,
      "velocity": 0.71,
      "hand": "left"
    },
    {
      "midi": 67,
      "time": 16.25,
      "duration": 0.25,
      "velocity": 0.71,
      "hand": "right"
    },
    {
      "midi": 48,
      "time": 16.5,
      "duration": 0.25,
      "velocity": 0.71,
      "hand": "left"
    },
    {
      "midi": 64,
      "time": 16.5,
      "duration": 0.25,
      "velocity": 0.71,
      "hand": "right"
    },
    {
      "midi": 76,
      "time": 16.5,
      "duration": 4,
      "velocity": 0.71,
      "hand": "right"
    },
    {
      "midi": 55,
      "time": 16.75,
      "duration": 0.25,
      "velocity": 0.71,
      "hand": "left"
    },
    {
      "midi": 67,
      "time": 16.75,
      "duration": 0.25,
      "velocity": 0.71,
      "hand": "right"
    },
    {
      "midi": 72,
      "time": 16.75,
      "duration": 0.25,
      "velocity": 0.71,
      "hand": "right"
    },
    {
      "midi": 60,
      "time": 17,
      "duration": 0.25,
      "velocity": 0.71,
      "hand": "right"
    },
    {
      "midi": 64,
      "time": 17,
      "duration": 0.25,
      "velocity": 0.71,
      "hand": "right"
    },
    {
      "midi": 57,
      "time": 17.25,
      "duration": 0.25,
      "velocity": 0.71,
      "hand": "left"
    },
    {
      "midi": 65,
      "time": 17.25,
      "duration": 0.25,
      "velocity": 0.71,
      "hand": "right"
    },
    {
      "midi": 72,
      "time": 17.25,
      "duration": 0.25,
      "velocity": 0.71,
      "hand": "right"
    },
    {
      "midi": 55,
      "time": 17.5,
      "duration": 0.25,
      "velocity": 0.71,
      "hand": "left"
    },
    {
      "midi": 64,
      "time": 17.5,
      "duration": 0.25,
      "velocity": 0.71,
      "hand": "right"
    },
    {
      "midi": 48,
      "time": 17.75,
      "duration": 0.25,
      "velocity": 0.71,
      "hand": "left"
    },
    {
      "midi": 67,
      "time": 17.75,
      "duration": 0.25,
      "velocity": 0.71,
      "hand": "right"
    },
    {
      "midi": 72,
      "time": 17.75,
      "duration": 0.25,
      "velocity": 0.71,
      "hand": "right"
    },
    {
      "midi": 60,
      "time": 18,
      "duration": 0.25,
      "velocity": 0.71,
      "hand": "right"
    },
    {
      "midi": 64,
      "time": 18,
      "duration": 0.25,
      "velocity": 0.71,
      "hand": "right"
    },
    {
      "midi": 57,
      "time": 18.25,
      "duration": 0.25,
      "velocity": 0.71,
      "hand": "left"
    },
    {
      "midi": 65,
      "time": 18.25,
      "duration": 0.25,
      "velocity": 0.71,
      "hand": "right"
    },
    {
      "midi": 72,
      "time": 18.25,
      "duration": 0.25,
      "velocity": 0.71,
      "hand": "right"
    },
    {
      "midi": 55,
      "time": 18.5,
      "duration": 0.25,
      "velocity": 0.71,
      "hand": "left"
    },
    {
      "midi": 64,
      "time": 18.5,
      "duration": 0.25,
      "velocity": 0.71,
      "hand": "right"
    },
    {
      "midi": 48,
      "time": 18.75,
      "duration": 0.75,
      "velocity": 0.71,
      "hand": "left"
    },
    {
      "midi": 67,
      "time": 18.75,
      "duration": 0.25,
      "velocity": 0.71,
      "hand": "right"
    },
    {
      "midi": 72,
      "time": 18.75,
      "duration": 0.25,
      "velocity": 0.71,
      "hand": "right"
    },
    {
      "midi": 60,
      "time": 19,
      "duration": 0.25,
      "velocity": 0.71,
      "hand": "right"
    },
    {
      "midi": 64,
      "time": 19,
      "duration": 0.25,
      "velocity": 0.71,
      "hand": "right"
    },
    {
      "midi": 57,
      "time": 19.25,
      "duration": 0.25,
      "velocity": 0.71,
      "hand": "left"
    },
    {
      "midi": 65,
      "time": 19.25,
      "duration": 0.25,
      "velocity": 0.71,
      "hand": "right"
    },
    {
      "midi": 72,
      "time": 19.25,
      "duration": 1.25,
      "velocity": 0.71,
      "hand": "right"
    },
    {
      "midi": 48,
      "time": 19.5,
      "duration": 1,
      "velocity": 0.71,
      "hand": "left"
    },
    {
      "midi": 55,
      "time": 19.5,
      "duration": 1,
      "velocity": 0.71,
      "hand": "left"
    },
    {
      "midi": 64,
      "time": 19.5,
      "duration": 1,
      "velocity": 0.71,
      "hand": "right"
    },
    {
      "midi": 72,
      "time": 20.5,
      "duration": 1,
      "velocity": 0.71,
      "hand": "right"
    },
    {
      "midi": 73,
      "time": 21.5,
      "duration": 0.5,
      "velocity": 0.71,
      "hand": "right"
    },
    {
      "midi": 71,
      "time": 22,
      "duration": 1,
      "velocity": 0.71,
      "hand": "right"
    },
    {
      "midi": 41,
      "time": 22.5,
      "duration": 0.5,
      "velocity": 0.48,
      "hand": "left"
    },
    {
      "midi": 60,
      "time": 23,
      "duration": 0.5,
      "velocity": 0.48,
      "hand": "right"
    },
    {
      "midi": 65,
      "time": 23,
      "duration": 0.5,
      "velocity": 0.48,
      "hand": "right"
    },
    {
      "midi": 68,
      "time": 23,
      "duration": 0.5,
      "velocity": 0.48,
      "hand": "right"
    },
    {
      "midi": 72,
      "time": 23,
      "duration": 0.5,
      "velocity": 0.71,
      "hand": "right"
    },
    {
      "midi": 56,
      "time": 23.5,
      "duration": 0.5,
      "velocity": 0.48,
      "hand": "left"
    },
    {
      "midi": 60,
      "time": 23.5,
      "duration": 0.5,
      "velocity": 0.48,
      "hand": "right"
    },
    {
      "midi": 65,
      "time": 23.5,
      "duration": 0.5,
      "velocity": 0.48,
      "hand": "right"
    },
    {
      "midi": 77,
      "time": 23.5,
      "duration": 0.5,
      "velocity": 0.71,
      "hand": "right"
    },
    {
      "midi": 53,
      "time": 24,
      "duration": 0.5,
      "velocity": 0.48,
      "hand": "left"
    },
    {
      "midi": 76,
      "time": 24,
      "duration": 0.5,
      "velocity": 0.71,
      "hand": "right"
    },
    {
      "midi": 61,
      "time": 24.5,
      "duration": 0.5,
      "velocity": 0.48,
      "hand": "right"
    },
    {
      "midi": 64,
      "time": 24.5,
      "duration": 0.5,
      "velocity": 0.48,
      "hand": "right"
    },
    {
      "midi": 67,
      "time": 24.5,
      "duration": 0.5,
      "velocity": 0.48,
      "hand": "right"
    },
    {
      "midi": 70,
      "time": 24.5,
      "duration": 0.5,
      "velocity": 0.71,
      "hand": "right"
    },
    {
      "midi": 58,
      "time": 25,
      "duration": 0.5,
      "velocity": 0.48,
      "hand": "left"
    },
    {
      "midi": 61,
      "time": 25,
      "duration": 0.5,
      "velocity": 0.48,
      "hand": "right"
    },
    {
      "midi": 64,
      "time": 25,
      "duration": 0.5,
      "velocity": 0.48,
      "hand": "right"
    },
    {
      "midi": 73,
      "time": 25,
      "duration": 1,
      "velocity": 0.71,
      "hand": "right"
    },
    {
      "midi": 41,
      "time": 25.5,
      "duration": 0.5,
      "velocity": 0.48,
      "hand": "left"
    },
    {
      "midi": 60,
      "time": 26,
      "duration": 0.5,
      "velocity": 0.48,
      "hand": "right"
    },
    {
      "midi": 65,
      "time": 26,
      "duration": 0.5,
      "velocity": 0.48,
      "hand": "right"
    },
    {
      "midi": 68,
      "time": 26,
      "duration": 0.5,
      "velocity": 0.48,
      "hand": "right"
    },
    {
      "midi": 72,
      "time": 26,
      "duration": 0.5,
      "velocity": 0.71,
      "hand": "right"
    },
    {
      "midi": 56,
      "time": 26.5,
      "duration": 0.5,
      "velocity": 0.48,
      "hand": "left"
    },
    {
      "midi": 60,
      "time": 26.5,
      "duration": 0.5,
      "velocity": 0.48,
      "hand": "right"
    },
    {
      "midi": 65,
      "time": 26.5,
      "duration": 0.5,
      "velocity": 0.48,
      "hand": "right"
    },
    {
      "midi": 77,
      "time": 26.5,
      "duration": 0.5,
      "velocity": 0.71,
      "hand": "right"
    },
    {
      "midi": 53,
      "time": 27,
      "duration": 0.5,
      "velocity": 0.48,
      "hand": "left"
    },
    {
      "midi": 76,
      "time": 27,
      "duration": 0.5,
      "velocity": 0.71,
      "hand": "right"
    },
    {
      "midi": 61,
      "time": 27.5,
      "duration": 0.5,
      "velocity": 0.48,
      "hand": "right"
    },
    {
      "midi": 64,
      "time": 27.5,
      "duration": 0.5,
      "velocity": 0.48,
      "hand": "right"
    },
    {
      "midi": 67,
      "time": 27.5,
      "duration": 0.5,
      "velocity": 0.48,
      "hand": "right"
    },
    {
      "midi": 70,
      "time": 27.5,
      "duration": 0.5,
      "velocity": 0.71,
      "hand": "right"
    },
    {
      "midi": 58,
      "time": 28,
      "duration": 0.5,
      "velocity": 0.48,
      "hand": "left"
    },
    {
      "midi": 61,
      "time": 28,
      "duration": 0.5,
      "velocity": 0.48,
      "hand": "right"
    },
    {
      "midi": 64,
      "time": 28,
      "duration": 0.5,
      "velocity": 0.48,
      "hand": "right"
    },
    {
      "midi": 73,
      "time": 28,
      "duration": 0.5,
      "velocity": 0.71,
      "hand": "right"
    },
    {
      "midi": 53,
      "time": 28.5,
      "duration": 0.5,
      "velocity": 0.48,
      "hand": "left"
    },
    {
      "midi": 60,
      "time": 29,
      "duration": 0.5,
      "velocity": 0.48,
      "hand": "right"
    },
    {
      "midi": 65,
      "time": 29,
      "duration": 0.5,
      "velocity": 0.48,
      "hand": "right"
    },
    {
      "midi": 68,
      "time": 29,
      "duration": 0.5,
      "velocity": 0.48,
      "hand": "right"
    },
    {
      "midi": 72,
      "time": 29,
      "duration": 0.25,
      "velocity": 0.71,
      "hand": "right"
    },
    {
      "midi": 73,
      "time": 29.25,
      "duration": 0.25,
      "velocity": 0.71,
      "hand": "right"
    },
    {
      "midi": 56,
      "time": 29.5,
      "duration": 0.5,
      "velocity": 0.48,
      "hand": "left"
    },
    {
      "midi": 60,
      "time": 29.5,
      "duration": 0.5,
      "velocity": 0.48,
      "hand": "right"
    },
    {
      "midi": 65,
      "time": 29.5,
      "duration": 0.5,
      "velocity": 0.48,
      "hand": "right"
    },
    {
      "midi": 72,
      "time": 29.5,
      "duration": 0.25,
      "velocity": 0.71,
      "hand": "right"
    },
    {
      "midi": 73,
      "time": 29.75,
      "duration": 0.25,
      "velocity": 0.71,
      "hand": "right"
    },
    {
      "midi": 51,
      "time": 30,
      "duration": 0.5,
      "velocity": 0.48,
      "hand": "left"
    },
    {
      "midi": 75,
      "time": 30,
      "duration": 0.5,
      "velocity": 0.71,
      "hand": "right"
    },
    {
      "midi": 60,
      "time": 30.5,
      "duration": 0.5,
      "velocity": 0.48,
      "hand": "right"
    },
    {
      "midi": 68,
      "time": 30.5,
      "duration": 0.5,
      "velocity": 0.48,
      "hand": "right"
    },
    {
      "midi": 75,
      "time": 30.5,
      "duration": 0.5,
      "velocity": 0.71,
      "hand": "right"
    },
    {
      "midi": 51,
      "time": 31,
      "duration": 0.5,
      "velocity": 0.48,
      "hand": "left"
    },
    {
      "midi": 75,
      "time": 31,
      "duration": 0.5,
      "velocity": 0.71,
      "hand": "right"
    },
    {
      "midi": 39,
      "time": 31.5,
      "duration": 0.5,
      "velocity": 0.48,
      "hand": "left"
    },
    {
      "midi": 75,
      "time": 31.5,
      "duration": 0.5,
      "velocity": 0.71,
      "hand": "right"
    },
    {
      "midi": 61,
      "time": 32,
      "duration": 0.5,
      "velocity": 0.48,
      "hand": "right"
    },
    {
      "midi": 63,
      "time": 32,
      "duration": 0.5,
      "velocity": 0.48,
      "hand": "right"
    },
    {
      "midi": 67,
      "time": 32,
      "duration": 0.5,
      "velocity": 0.48,
      "hand": "right"
    },
    {
      "midi": 73,
      "time": 32,
      "duration": 0.25,
      "velocity": 0.71,
      "hand": "right"
    },
    {
      "midi": 72,
      "time": 32.25,
      "duration": 0.25,
      "velocity": 0.71,
      "hand": "right"
    },
    {
      "midi": 55,
      "time": 32.5,
      "duration": 0.5,
      "velocity": 0.48,
      "hand": "left"
    },
    {
      "midi": 61,
      "time": 32.5,
      "duration": 0.5,
      "velocity": 0.48,
      "hand": "right"
    },
    {
      "midi": 63,
      "time": 32.5,
      "duration": 0.5,
      "velocity": 0.48,
      "hand": "right"
    },
    {
      "midi": 70,
      "time": 32.5,
      "duration": 0.25,
      "velocity": 0.71,
      "hand": "right"
    },
    {
      "midi": 72,
      "time": 32.75,
      "duration": 0.25,
      "velocity": 0.71,
      "hand": "right"
    },
    {
      "midi": 44,
      "time": 33,
      "duration": 0.5,
      "velocity": 0.48,
      "hand": "left"
    },
    {
      "midi": 68,
      "time": 33,
      "duration": 0.5,
      "velocity": 0.71,
      "hand": "right"
    },
    {
      "midi": 56,
      "time": 33.5,
      "duration": 0.5,
      "velocity": 0.48,
      "hand": "left"
    },
    {
      "midi": 60,
      "time": 33.5,
      "duration": 0.5,
      "velocity": 0.48,
      "hand": "right"
    },
    {
      "midi": 63,
      "time": 33.5,
      "duration": 0.5,
      "velocity": 0.48,
      "hand": "right"
    },
    {
      "midi": 51,
      "time": 34,
      "duration": 0.5,
      "velocity": 0.48,
      "hand": "left"
    },
    {
      "midi": 56,
      "time": 34,
      "duration": 0.5,
      "velocity": 0.48,
      "hand": "left"
    },
    {
      "midi": 60,
      "time": 34,
      "duration": 0.5,
      "velocity": 0.48,
      "hand": "right"
    },
    {
      "midi": 56,
      "time": 34.5,
      "duration": 0.5,
      "velocity": 0.48,
      "hand": "left"
    },
    {
      "midi": 60,
      "time": 34.5,
      "duration": 0.5,
      "velocity": 0.48,
      "hand": "right"
    },
    {
      "midi": 65,
      "time": 34.5,
      "duration": 0.5,
      "velocity": 0.48,
      "hand": "right"
    },
    {
      "midi": 56,
      "time": 35,
      "duration": 0.5,
      "velocity": 0.48,
      "hand": "left"
    },
    {
      "midi": 60,
      "time": 35,
      "duration": 0.5,
      "velocity": 0.48,
      "hand": "right"
    },
    {
      "midi": 63,
      "time": 35,
      "duration": 0.5,
      "velocity": 0.48,
      "hand": "right"
    },
    {
      "midi": 51,
      "time": 35.5,
      "duration": 0.5,
      "velocity": 0.48,
      "hand": "left"
    },
    {
      "midi": 56,
      "time": 35.5,
      "duration": 0.5,
      "velocity": 0.48,
      "hand": "left"
    },
    {
      "midi": 60,
      "time": 35.5,
      "duration": 0.5,
      "velocity": 0.48,
      "hand": "right"
    },
    {
      "midi": 32,
      "time": 36,
      "duration": 0.5,
      "velocity": 0.48,
      "hand": "left"
    },
    {
      "midi": 63,
      "time": 36.5,
      "duration": 0.5,
      "velocity": 0.48,
      "hand": "right"
    },
    {
      "midi": 68,
      "time": 36.5,
      "duration": 0.5,
      "velocity": 0.48,
      "hand": "right"
    },
    {
      "midi": 72,
      "time": 36.5,
      "duration": 0.5,
      "velocity": 0.48,
      "hand": "right"
    },
    {
      "midi": 75,
      "time": 36.5,
      "duration": 0.5,
      "velocity": 0.71,
      "hand": "right"
    },
    {
      "midi": 60,
      "time": 37,
      "duration": 0.5,
      "velocity": 0.48,
      "hand": "right"
    },
    {
      "midi": 63,
      "time": 37,
      "duration": 0.5,
      "velocity": 0.48,
      "hand": "right"
    },
    {
      "midi": 68,
      "time": 37,
      "duration": 0.5,
      "velocity": 0.48,
      "hand": "right"
    },
    {
      "midi": 80,
      "time": 37,
      "duration": 0.5,
      "velocity": 0.71,
      "hand": "right"
    },
    {
      "midi": 56,
      "time": 37.5,
      "duration": 0.5,
      "velocity": 0.48,
      "hand": "left"
    },
    {
      "midi": 79,
      "time": 37.5,
      "duration": 0.5,
      "velocity": 0.71,
      "hand": "right"
    },
    {
      "midi": 64,
      "time": 38,
      "duration": 0.5,
      "velocity": 0.48,
      "hand": "right"
    },
    {
      "midi": 67,
      "time": 38,
      "duration": 0.5,
      "velocity": 0.48,
      "hand": "right"
    },
    {
      "midi": 70,
      "time": 38,
      "duration": 0.5,
      "velocity": 0.48,
      "hand": "right"
    },
    {
      "midi": 73,
      "time": 38,
      "duration": 0.5,
      "velocity": 0.71,
      "hand": "right"
    },
    {
      "midi": 61,
      "time": 38.5,
      "duration": 0.5,
      "velocity": 0.48,
      "hand": "right"
    },
    {
      "midi": 64,
      "time": 38.5,
      "duration": 0.5,
      "velocity": 0.48,
      "hand": "right"
    },
    {
      "midi": 67,
      "time": 38.5,
      "duration": 0.5,
      "velocity": 0.48,
      "hand": "right"
    },
    {
      "midi": 76,
      "time": 38.5,
      "duration": 1,
      "velocity": 0.71,
      "hand": "right"
    },
    {
      "midi": 44,
      "time": 39,
      "duration": 0.5,
      "velocity": 0.48,
      "hand": "left"
    },
    {
      "midi": 63,
      "time": 39.5,
      "duration": 0.5,
      "velocity": 0.48,
      "hand": "right"
    },
    {
      "midi": 68,
      "time": 39.5,
      "duration": 0.5,
      "velocity": 0.48,
      "hand": "right"
    },
    {
      "midi": 72,
      "time": 39.5,
      "duration": 0.5,
      "velocity": 0.48,
      "hand": "right"
    },
    {
      "midi": 75,
      "time": 39.5,
      "duration": 0.5,
      "velocity": 0.71,
      "hand": "right"
    },
    {
      "midi": 60,
      "time": 40,
      "duration": 0.5,
      "velocity": 0.48,
      "hand": "right"
    },
    {
      "midi": 63,
      "time": 40,
      "duration": 0.5,
      "velocity": 0.48,
      "hand": "right"
    },
    {
      "midi": 68,
      "time": 40,
      "duration": 0.5,
      "velocity": 0.48,
      "hand": "right"
    },
    {
      "midi": 80,
      "time": 40,
      "duration": 0.5,
      "velocity": 0.71,
      "hand": "right"
    },
    {
      "midi": 56,
      "time": 40.5,
      "duration": 0.5,
      "velocity": 0.48,
      "hand": "left"
    },
    {
      "midi": 79,
      "time": 40.5,
      "duration": 0.5,
      "velocity": 0.71,
      "hand": "right"
    },
    {
      "midi": 64,
      "time": 41,
      "duration": 0.5,
      "velocity": 0.48,
      "hand": "right"
    },
    {
      "midi": 67,
      "time": 41,
      "duration": 0.5,
      "velocity": 0.48,
      "hand": "right"
    },
    {
      "midi": 70,
      "time": 41,
      "duration": 0.5,
      "velocity": 0.48,
      "hand": "right"
    },
    {
      "midi": 73,
      "time": 41,
      "duration": 0.5,
      "velocity": 0.71,
      "hand": "right"
    },
    {
      "midi": 58,
      "time": 41.5,
      "duration": 0.5,
      "velocity": 0.48,
      "hand": "left"
    },
    {
      "midi": 61,
      "time": 41.5,
      "duration": 0.5,
      "velocity": 0.48,
      "hand": "right"
    },
    {
      "midi": 67,
      "time": 41.5,
      "duration": 0.5,
      "velocity": 0.48,
      "hand": "right"
    },
    {
      "midi": 76,
      "time": 41.5,
      "duration": 0.5,
      "velocity": 0.71,
      "hand": "right"
    },
    {
      "midi": 44,
      "time": 42,
      "duration": 0.5,
      "velocity": 0.48,
      "hand": "left"
    },
    {
      "midi": 63,
      "time": 42.5,
      "duration": 0.5,
      "velocity": 0.48,
      "hand": "right"
    },
    {
      "midi": 68,
      "time": 42.5,
      "duration": 0.5,
      "velocity": 0.48,
      "hand": "right"
    },
    {
      "midi": 72,
      "time": 42.5,
      "duration": 0.5,
      "velocity": 0.48,
      "hand": "right"
    },
    {
      "midi": 75,
      "time": 42.5,
      "duration": 0.25,
      "velocity": 0.71,
      "hand": "right"
    },
    {
      "midi": 77,
      "time": 42.75,
      "duration": 0.25,
      "velocity": 0.71,
      "hand": "right"
    },
    {
      "midi": 60,
      "time": 43,
      "duration": 0.5,
      "velocity": 0.48,
      "hand": "right"
    },
    {
      "midi": 63,
      "time": 43,
      "duration": 0.5,
      "velocity": 0.48,
      "hand": "right"
    },
    {
      "midi": 68,
      "time": 43,
      "duration": 0.5,
      "velocity": 0.48,
      "hand": "right"
    },
    {
      "midi": 75,
      "time": 43,
      "duration": 0.25,
      "velocity": 0.71,
      "hand": "right"
    },
    {
      "midi": 77,
      "time": 43.25,
      "duration": 0.25,
      "velocity": 0.71,
      "hand": "right"
    },
    {
      "midi": 39,
      "time": 43.5,
      "duration": 0.5,
      "velocity": 0.48,
      "hand": "left"
    },
    {
      "midi": 78,
      "time": 43.5,
      "duration": 0.5,
      "velocity": 0.71,
      "hand": "right"
    },
    {
      "midi": 63,
      "time": 44,
      "duration": 0.5,
      "velocity": 0.48,
      "hand": "right"
    },
    {
      "midi": 66,
      "time": 44,
      "duration": 0.5,
      "velocity": 0.48,
      "hand": "right"
    },
    {
      "midi": 70,
      "time": 44,
      "duration": 0.5,
      "velocity": 0.48,
      "hand": "right"
    },
    {
      "midi": 78,
      "time": 44,
      "duration": 0.5,
      "velocity": 0.71,
      "hand": "right"
    },
    {
      "midi": 58,
      "time": 44.5,
      "duration": 0.5,
      "velocity": 0.48,
      "hand": "left"
    },
    {
      "midi": 63,
      "time": 44.5,
      "duration": 0.5,
      "velocity": 0.48,
      "hand": "right"
    },
    {
      "midi": 66,
      "time": 44.5,
      "duration": 0.5,
      "velocity": 0.48,
      "hand": "right"
    },
    {
      "midi": 78,
      "time": 44.5,
      "duration": 0.5,
      "velocity": 0.71,
      "hand": "right"
    },
    {
      "midi": 41,
      "time": 45,
      "duration": 0.5,
      "velocity": 0.48,
      "hand": "left"
    },
    {
      "midi": 78,
      "time": 45,
      "duration": 0.5,
      "velocity": 0.71,
      "hand": "right"
    },
    {
      "midi": 63,
      "time": 45.5,
      "duration": 0.5,
      "velocity": 0.48,
      "hand": "right"
    },
    {
      "midi": 65,
      "time": 45.5,
      "duration": 0.5,
      "velocity": 0.48,
      "hand": "right"
    },
    {
      "midi": 69,
      "time": 45.5,
      "duration": 0.5,
      "velocity": 0.48,
      "hand": "right"
    },
    {
      "midi": 77,
      "time": 45.5,
      "duration": 0.25,
      "velocity": 0.71,
      "hand": "right"
    },
    {
      "midi": 72,
      "time": 45.75,
      "duration": 0.25,
      "velocity": 0.71,
      "hand": "right"
    },
    {
      "midi": 57,
      "time": 46,
      "duration": 0.5,
      "velocity": 0.48,
      "hand": "left"
    },
    {
      "midi": 63,
      "time": 46,
      "duration": 0.5,
      "velocity": 0.48,
      "hand": "right"
    },
    {
      "midi": 65,
      "time": 46,
      "duration": 0.5,
      "velocity": 0.48,
      "hand": "right"
    },
    {
      "midi": 75,
      "time": 46,
      "duration": 0.25,
      "velocity": 0.71,
      "hand": "right"
    },
    {
      "midi": 73,
      "time": 46.25,
      "duration": 0.25,
      "velocity": 0.71,
      "hand": "right"
    },
    {
      "midi": 46,
      "time": 46.5,
      "duration": 0.5,
      "velocity": 0.48,
      "hand": "left"
    },
    {
      "midi": 70,
      "time": 46.5,
      "duration": 0.5,
      "velocity": 0.71,
      "hand": "right"
    },
    {
      "midi": 58,
      "time": 47,
      "duration": 0.5,
      "velocity": 0.48,
      "hand": "left"
    },
    {
      "midi": 61,
      "time": 47,
      "duration": 0.5,
      "velocity": 0.48,
      "hand": "right"
    },
    {
      "midi": 65,
      "time": 47,
      "duration": 0.5,
      "velocity": 0.48,
      "hand": "right"
    },
    {
      "midi": 53,
      "time": 47.5,
      "duration": 0.5,
      "velocity": 0.48,
      "hand": "left"
    },
    {
      "midi": 58,
      "time": 47.5,
      "duration": 0.5,
      "velocity": 0.48,
      "hand": "left"
    },
    {
      "midi": 61,
      "time": 47.5,
      "duration": 0.5,
      "velocity": 0.48,
      "hand": "right"
    },
    {
      "midi": 42,
      "time": 48,
      "duration": 0.5,
      "velocity": 0.48,
      "hand": "left"
    },
    {
      "midi": 58,
      "time": 48.5,
      "duration": 0.5,
      "velocity": 0.48,
      "hand": "left"
    },
    {
      "midi": 61,
      "time": 48.5,
      "duration": 0.5,
      "velocity": 0.48,
      "hand": "right"
    },
    {
      "midi": 66,
      "time": 48.5,
      "duration": 0.5,
      "velocity": 0.48,
      "hand": "right"
    },
    {
      "midi": 73,
      "time": 48.5,
      "duration": 0.25,
      "velocity": 0.71,
      "hand": "right"
    },
    {
      "midi": 75,
      "time": 48.75,
      "duration": 0.25,
      "velocity": 0.71,
      "hand": "right"
    },
    {
      "midi": 54,
      "time": 49,
      "duration": 0.5,
      "velocity": 0.48,
      "hand": "left"
    },
    {
      "midi": 58,
      "time": 49,
      "duration": 0.5,
      "velocity": 0.48,
      "hand": "left"
    },
    {
      "midi": 61,
      "time": 49,
      "duration": 0.5,
      "velocity": 0.48,
      "hand": "right"
    },
    {
      "midi": 73,
      "time": 49,
      "duration": 0.25,
      "velocity": 0.71,
      "hand": "right"
    },
    {
      "midi": 75,
      "time": 49.25,
      "duration": 0.25,
      "velocity": 0.71,
      "hand": "right"
    },
    {
      "midi": 37,
      "time": 49.5,
      "duration": 0.5,
      "velocity": 0.48,
      "hand": "left"
    },
    {
      "midi": 77,
      "time": 49.5,
      "duration": 0.5,
      "velocity": 0.71,
      "hand": "right"
    },
    {
      "midi": 56,
      "time": 50,
      "duration": 0.5,
      "velocity": 0.48,
      "hand": "left"
    },
    {
      "midi": 61,
      "time": 50,
      "duration": 0.5,
      "velocity": 0.48,
      "hand": "right"
    },
    {
      "midi": 65,
      "time": 50,
      "duration": 0.5,
      "velocity": 0.48,
      "hand": "right"
    },
    {
      "midi": 77,
      "time": 50,
      "duration": 0.5,
      "velocity": 0.71,
      "hand": "right"
    },
    {
      "midi": 53,
      "time": 50.5,
      "duration": 0.5,
      "velocity": 0.48,
      "hand": "left"
    },
    {
      "midi": 56,
      "time": 50.5,
      "duration": 0.5,
      "velocity": 0.48,
      "hand": "left"
    },
    {
      "midi": 61,
      "time": 50.5,
      "duration": 0.5,
      "velocity": 0.48,
      "hand": "right"
    },
    {
      "midi": 77,
      "time": 50.5,
      "duration": 0.5,
      "velocity": 0.71,
      "hand": "right"
    },
    {
      "midi": 39,
      "time": 51,
      "duration": 0.5,
      "velocity": 0.48,
      "hand": "left"
    },
    {
      "midi": 77,
      "time": 51,
      "duration": 0.5,
      "velocity": 0.71,
      "hand": "right"
    },
    {
      "midi": 58,
      "time": 51.5,
      "duration": 0.5,
      "velocity": 0.48,
      "hand": "left"
    },
    {
      "midi": 60,
      "time": 51.5,
      "duration": 0.5,
      "velocity": 0.48,
      "hand": "right"
    },
    {
      "midi": 66,
      "time": 51.5,
      "duration": 0.5,
      "velocity": 0.48,
      "hand": "right"
    },
    {
      "midi": 75,
      "time": 51.5,
      "duration": 0.25,
      "velocity": 0.71,
      "hand": "right"
    },
    {
      "midi": 70,
      "time": 51.75,
      "duration": 0.25,
      "velocity": 0.71,
      "hand": "right"
    },
    {
      "midi": 54,
      "time": 52,
      "duration": 0.5,
      "velocity": 0.48,
      "hand": "left"
    },
    {
      "midi": 58,
      "time": 52,
      "duration": 0.5,
      "velocity": 0.48,
      "hand": "left"
    },
    {
      "midi": 63,
      "time": 52,
      "duration": 0.5,
      "velocity": 0.48,
      "hand": "right"
    },
    {
      "midi": 73,
      "time": 52,
      "duration": 0.25,
      "velocity": 0.71,
      "hand": "right"
    },
    {
      "midi": 72,
      "time": 52.25,
      "duration": 0.25,
      "velocity": 0.71,
      "hand": "right"
    },
    {
      "midi": 41,
      "time": 52.5,
      "duration": 0.5,
      "velocity": 0.48,
      "hand": "left"
    },
    {
      "midi": 69,
      "time": 52.5,
      "duration": 0.5,
      "velocity": 0.71,
      "hand": "right"
    },
    {
      "midi": 60,
      "time": 53,
      "duration": 0.5,
      "velocity": 0.48,
      "hand": "right"
    },
    {
      "midi": 65,
      "time": 53,
      "duration": 0.5,
      "velocity": 0.48,
      "hand": "right"
    },
    {
      "midi": 69,
      "time": 53,
      "duration": 0.5,
      "velocity": 0.48,
      "hand": "right"
    },
    {
      "midi": 72,
      "time": 53,
      "duration": 0.5,
      "velocity": 0.71,
      "hand": "right"
    },
    {
      "midi": 57,
      "time": 53.5,
      "duration": 0.5,
      "velocity": 0.48,
      "hand": "left"
    },
    {
      "midi": 60,
      "time": 53.5,
      "duration": 0.5,
      "velocity": 0.48,
      "hand": "right"
    },
    {
      "midi": 65,
      "time": 53.5,
      "duration": 0.5,
      "velocity": 0.48,
      "hand": "right"
    },
    {
      "midi": 77,
      "time": 53.5,
      "duration": 0.5,
      "velocity": 0.71,
      "hand": "right"
    },
    {
      "midi": 53,
      "time": 54,
      "duration": 0.5,
      "velocity": 0.48,
      "hand": "left"
    },
    {
      "midi": 76,
      "time": 54,
      "duration": 0.5,
      "velocity": 0.71,
      "hand": "right"
    },
    {
      "midi": 61,
      "time": 54.5,
      "duration": 0.5,
      "velocity": 0.48,
      "hand": "right"
    },
    {
      "midi": 64,
      "time": 54.5,
      "duration": 0.5,
      "velocity": 0.48,
      "hand": "right"
    },
    {
      "midi": 67,
      "time": 54.5,
      "duration": 0.5,
      "velocity": 0.48,
      "hand": "right"
    },
    {
      "midi": 70,
      "time": 54.5,
      "duration": 0.5,
      "velocity": 0.71,
      "hand": "right"
    },
    {
      "midi": 58,
      "time": 55,
      "duration": 0.5,
      "velocity": 0.48,
      "hand": "left"
    },
    {
      "midi": 61,
      "time": 55,
      "duration": 0.5,
      "velocity": 0.48,
      "hand": "right"
    },
    {
      "midi": 64,
      "time": 55,
      "duration": 0.5,
      "velocity": 0.48,
      "hand": "right"
    },
    {
      "midi": 73,
      "time": 55,
      "duration": 1,
      "velocity": 0.71,
      "hand": "right"
    },
    {
      "midi": 41,
      "time": 55.5,
      "duration": 0.5,
      "velocity": 0.48,
      "hand": "left"
    },
    {
      "midi": 60,
      "time": 56,
      "duration": 0.5,
      "velocity": 0.48,
      "hand": "right"
    },
    {
      "midi": 65,
      "time": 56,
      "duration": 0.5,
      "velocity": 0.48,
      "hand": "right"
    },
    {
      "midi": 69,
      "time": 56,
      "duration": 0.5,
      "velocity": 0.48,
      "hand": "right"
    },
    {
      "midi": 72,
      "time": 56,
      "duration": 0.5,
      "velocity": 0.71,
      "hand": "right"
    },
    {
      "midi": 57,
      "time": 56.5,
      "duration": 0.5,
      "velocity": 0.48,
      "hand": "left"
    },
    {
      "midi": 60,
      "time": 56.5,
      "duration": 0.5,
      "velocity": 0.48,
      "hand": "right"
    },
    {
      "midi": 65,
      "time": 56.5,
      "duration": 0.5,
      "velocity": 0.48,
      "hand": "right"
    },
    {
      "midi": 77,
      "time": 56.5,
      "duration": 0.5,
      "velocity": 0.71,
      "hand": "right"
    },
    {
      "midi": 53,
      "time": 57,
      "duration": 0.5,
      "velocity": 0.48,
      "hand": "left"
    },
    {
      "midi": 76,
      "time": 57,
      "duration": 0.5,
      "velocity": 0.71,
      "hand": "right"
    },
    {
      "midi": 61,
      "time": 57.5,
      "duration": 0.5,
      "velocity": 0.48,
      "hand": "right"
    },
    {
      "midi": 64,
      "time": 57.5,
      "duration": 0.5,
      "velocity": 0.48,
      "hand": "right"
    },
    {
      "midi": 67,
      "time": 57.5,
      "duration": 0.5,
      "velocity": 0.48,
      "hand": "right"
    },
    {
      "midi": 70,
      "time": 57.5,
      "duration": 0.5,
      "velocity": 0.71,
      "hand": "right"
    },
    {
      "midi": 58,
      "time": 58,
      "duration": 0.5,
      "velocity": 0.48,
      "hand": "left"
    },
    {
      "midi": 61,
      "time": 58,
      "duration": 0.5,
      "velocity": 0.48,
      "hand": "right"
    },
    {
      "midi": 64,
      "time": 58,
      "duration": 0.5,
      "velocity": 0.48,
      "hand": "right"
    },
    {
      "midi": 73,
      "time": 58,
      "duration": 0.5,
      "velocity": 0.71,
      "hand": "right"
    },
    {
      "midi": 41,
      "time": 58.5,
      "duration": 0.5,
      "velocity": 0.48,
      "hand": "left"
    },
    {
      "midi": 60,
      "time": 59,
      "duration": 0.5,
      "velocity": 0.48,
      "hand": "right"
    },
    {
      "midi": 63,
      "time": 59,
      "duration": 0.5,
      "velocity": 0.48,
      "hand": "right"
    },
    {
      "midi": 66,
      "time": 59,
      "duration": 0.5,
      "velocity": 0.48,
      "hand": "right"
    },
    {
      "midi": 72,
      "time": 59,
      "duration": 0.25,
      "velocity": 0.71,
      "hand": "right"
    },
    {
      "midi": 73,
      "time": 59.25,
      "duration": 0.25,
      "velocity": 0.71,
      "hand": "right"
    },
    {
      "midi": 54,
      "time": 59.5,
      "duration": 0.5,
      "velocity": 0.48,
      "hand": "left"
    },
    {
      "midi": 58,
      "time": 59.5,
      "duration": 0.5,
      "velocity": 0.48,
      "hand": "left"
    },
    {
      "midi": 63,
      "time": 59.5,
      "duration": 0.5,
      "velocity": 0.48,
      "hand": "right"
    },
    {
      "midi": 72,
      "time": 59.5,
      "duration": 0.25,
      "velocity": 0.71,
      "hand": "right"
    },
    {
      "midi": 73,
      "time": 59.75,
      "duration": 0.25,
      "velocity": 0.71,
      "hand": "right"
    },
    {
      "midi": 53,
      "time": 60,
      "duration": 0.5,
      "velocity": 0.48,
      "hand": "left"
    },
    {
      "midi": 75,
      "time": 60,
      "duration": 0.5,
      "velocity": 0.71,
      "hand": "right"
    },
    {
      "midi": 63,
      "time": 60.5,
      "duration": 0.5,
      "velocity": 0.48,
      "hand": "right"
    },
    {
      "midi": 66,
      "time": 60.5,
      "duration": 0.5,
      "velocity": 0.48,
      "hand": "right"
    },
    {
      "midi": 70,
      "time": 60.5,
      "duration": 0.5,
      "velocity": 0.48,
      "hand": "right"
    },
    {
      "midi": 75,
      "time": 60.5,
      "duration": 0.5,
      "velocity": 0.71,
      "hand": "right"
    },
    {
      "midi": 60,
      "time": 61,
      "duration": 0.5,
      "velocity": 0.48,
      "hand": "right"
    },
    {
      "midi": 63,
      "time": 61,
      "duration": 0.5,
      "velocity": 0.48,
      "hand": "right"
    },
    {
      "midi": 66,
      "time": 61,
      "duration": 0.5,
      "velocity": 0.48,
      "hand": "right"
    },
    {
      "midi": 75,
      "time": 61,
      "duration": 0.5,
      "velocity": 0.71,
      "hand": "right"
    },
    {
      "midi": 41,
      "time": 61.5,
      "duration": 0.5,
      "velocity": 0.48,
      "hand": "left"
    },
    {
      "midi": 75,
      "time": 61.5,
      "duration": 0.5,
      "velocity": 0.71,
      "hand": "right"
    },
    {
      "midi": 63,
      "time": 62,
      "duration": 0.5,
      "velocity": 0.48,
      "hand": "right"
    },
    {
      "midi": 69,
      "time": 62,
      "duration": 0.5,
      "velocity": 0.48,
      "hand": "right"
    },
    {
      "midi": 77,
      "time": 62,
      "duration": 0.25,
      "velocity": 0.71,
      "hand": "right"
    },
    {
      "midi": 72,
      "time": 62.25,
      "duration": 0.25,
      "velocity": 0.71,
      "hand": "right"
    },
    {
      "midi": 57,
      "time": 62.5,
      "duration": 0.5,
      "velocity": 0.48,
      "hand": "left"
    },
    {
      "midi": 63,
      "time": 62.5,
      "duration": 0.5,
      "velocity": 0.48,
      "hand": "right"
    },
    {
      "midi": 65,
      "time": 62.5,
      "duration": 0.5,
      "velocity": 0.48,
      "hand": "right"
    },
    {
      "midi": 75,
      "time": 62.5,
      "duration": 0.25,
      "velocity": 0.71,
      "hand": "right"
    },
    {
      "midi": 73,
      "time": 62.75,
      "duration": 0.25,
      "velocity": 0.71,
      "hand": "right"
    },
    {
      "midi": 46,
      "time": 63,
      "duration": 0.5,
      "velocity": 0.48,
      "hand": "left"
    },
    {
      "midi": 70,
      "time": 63,
      "duration": 1.5,
      "velocity": 0.71,
      "hand": "right"
    },
    {
      "midi": 58,
      "time": 63.5,
      "duration": 0.5,
      "velocity": 0.48,
      "hand": "left"
    },
    {
      "midi": 61,
      "time": 63.5,
      "duration": 0.5,
      "velocity": 0.48,
      "hand": "right"
    },
    {
      "midi": 65,
      "time": 63.5,
      "duration": 0.5,
      "velocity": 0.48,
      "hand": "right"
    },
    {
      "midi": 53,
      "time": 64,
      "duration": 0.5,
      "velocity": 0.48,
      "hand": "left"
    },
    {
      "midi": 58,
      "time": 64,
      "duration": 0.5,
      "velocity": 0.48,
      "hand": "left"
    },
    {
      "midi": 61,
      "time": 64,
      "duration": 0.5,
      "velocity": 0.48,
      "hand": "right"
    },
    {
      "midi": 48,
      "time": 64.5,
      "duration": 0.5,
      "velocity": 0.48,
      "hand": "left"
    },
    {
      "midi": 67,
      "time": 64.5,
      "duration": 1,
      "velocity": 0.71,
      "hand": "right"
    },
    {
      "midi": 58,
      "time": 65,
      "duration": 0.5,
      "velocity": 0.48,
      "hand": "left"
    },
    {
      "midi": 60,
      "time": 65,
      "duration": 0.5,
      "velocity": 0.48,
      "hand": "right"
    },
    {
      "midi": 64,
      "time": 65,
      "duration": 0.5,
      "velocity": 0.48,
      "hand": "right"
    },
    {
      "midi": 55,
      "time": 65.5,
      "duration": 0.5,
      "velocity": 0.48,
      "hand": "left"
    },
    {
      "midi": 58,
      "time": 65.5,
      "duration": 0.5,
      "velocity": 0.48,
      "hand": "left"
    },
    {
      "midi": 60,
      "time": 65.5,
      "duration": 0.5,
      "velocity": 0.48,
      "hand": "right"
    },
    {
      "midi": 41,
      "time": 66,
      "duration": 0.5,
      "velocity": 0.48,
      "hand": "left"
    },
    {
      "midi": 60,
      "time": 66.5,
      "duration": 0.5,
      "velocity": 0.48,
      "hand": "right"
    },
    {
      "midi": 65,
      "time": 66.5,
      "duration": 0.5,
      "velocity": 0.48,
      "hand": "right"
    },
    {
      "midi": 68,
      "time": 66.5,
      "duration": 0.5,
      "velocity": 0.48,
      "hand": "right"
    },
    {
      "midi": 72,
      "time": 66.5,
      "duration": 0.5,
      "velocity": 0.71,
      "hand": "right"
    },
    {
      "midi": 56,
      "time": 67,
      "duration": 0.5,
      "velocity": 0.48,
      "hand": "left"
    },
    {
      "midi": 60,
      "time": 67,
      "duration": 0.5,
      "velocity": 0.48,
      "hand": "right"
    },
    {
      "midi": 65,
      "time": 67,
      "duration": 0.5,
      "velocity": 0.48,
      "hand": "right"
    },
    {
      "midi": 77,
      "time": 67,
      "duration": 0.5,
      "velocity": 0.71,
      "hand": "right"
    },
    {
      "midi": 53,
      "time": 67.5,
      "duration": 0.5,
      "velocity": 0.48,
      "hand": "left"
    },
    {
      "midi": 76,
      "time": 67.5,
      "duration": 0.5,
      "velocity": 0.71,
      "hand": "right"
    },
    {
      "midi": 61,
      "time": 68,
      "duration": 0.5,
      "velocity": 0.48,
      "hand": "right"
    },
    {
      "midi": 64,
      "time": 68,
      "duration": 0.5,
      "velocity": 0.48,
      "hand": "right"
    },
    {
      "midi": 67,
      "time": 68,
      "duration": 0.5,
      "velocity": 0.48,
      "hand": "right"
    },
    {
      "midi": 70,
      "time": 68,
      "duration": 0.5,
      "velocity": 0.71,
      "hand": "right"
    },
    {
      "midi": 58,
      "time": 68.5,
      "duration": 0.5,
      "velocity": 0.48,
      "hand": "left"
    },
    {
      "midi": 61,
      "time": 68.5,
      "duration": 0.5,
      "velocity": 0.48,
      "hand": "right"
    },
    {
      "midi": 64,
      "time": 68.5,
      "duration": 0.5,
      "velocity": 0.48,
      "hand": "right"
    },
    {
      "midi": 73,
      "time": 68.5,
      "duration": 1,
      "velocity": 0.71,
      "hand": "right"
    },
    {
      "midi": 41,
      "time": 69,
      "duration": 0.5,
      "velocity": 0.48,
      "hand": "left"
    },
    {
      "midi": 60,
      "time": 69.5,
      "duration": 0.5,
      "velocity": 0.48,
      "hand": "right"
    },
    {
      "midi": 65,
      "time": 69.5,
      "duration": 0.5,
      "velocity": 0.48,
      "hand": "right"
    },
    {
      "midi": 68,
      "time": 69.5,
      "duration": 0.5,
      "velocity": 0.48,
      "hand": "right"
    },
    {
      "midi": 72,
      "time": 69.5,
      "duration": 0.5,
      "velocity": 0.71,
      "hand": "right"
    },
    {
      "midi": 56,
      "time": 70,
      "duration": 0.5,
      "velocity": 0.48,
      "hand": "left"
    },
    {
      "midi": 60,
      "time": 70,
      "duration": 0.5,
      "velocity": 0.48,
      "hand": "right"
    },
    {
      "midi": 65,
      "time": 70,
      "duration": 0.5,
      "velocity": 0.48,
      "hand": "right"
    },
    {
      "midi": 77,
      "time": 70,
      "duration": 0.75,
      "velocity": 0.71,
      "hand": "right"
    },
    {
      "midi": 53,
      "time": 70.5,
      "duration": 0.5,
      "velocity": 0.48,
      "hand": "left"
    },
    {
      "midi": 76,
      "time": 70.75,
      "duration": 0.25,
      "velocity": 0.71,
      "hand": "right"
    },
    {
      "midi": 61,
      "time": 71,
      "duration": 0.5,
      "velocity": 0.48,
      "hand": "right"
    },
    {
      "midi": 64,
      "time": 71,
      "duration": 0.5,
      "velocity": 0.48,
      "hand": "right"
    },
    {
      "midi": 67,
      "time": 71,
      "duration": 0.5,
      "velocity": 0.48,
      "hand": "right"
    },
    {
      "midi": 70,
      "time": 71,
      "duration": 0.25,
      "velocity": 0.71,
      "hand": "right"
    },
    {
      "midi": 72,
      "time": 71.25,
      "duration": 0.25,
      "velocity": 0.71,
      "hand": "right"
    },
    {
      "midi": 58,
      "time": 71.5,
      "duration": 0.5,
      "velocity": 0.48,
      "hand": "left"
    },
    {
      "midi": 61,
      "time": 71.5,
      "duration": 0.5,
      "velocity": 0.48,
      "hand": "right"
    },
    {
      "midi": 64,
      "time": 71.5,
      "duration": 0.5,
      "velocity": 0.48,
      "hand": "right"
    },
    {
      "midi": 75,
      "time": 71.5,
      "duration": 0.25,
      "velocity": 0.71,
      "hand": "right"
    },
    {
      "midi": 73,
      "time": 71.75,
      "duration": 0.25,
      "velocity": 0.71,
      "hand": "right"
    },
    {
      "midi": 53,
      "time": 72,
      "duration": 0.5,
      "velocity": 0.48,
      "hand": "left"
    },
    {
      "midi": 56,
      "time": 72.5,
      "duration": 0.5,
      "velocity": 0.48,
      "hand": "left"
    },
    {
      "midi": 60,
      "time": 72.5,
      "duration": 0.5,
      "velocity": 0.48,
      "hand": "right"
    },
    {
      "midi": 68,
      "time": 72.5,
      "duration": 0.5,
      "velocity": 0.48,
      "hand": "right"
    },
    {
      "midi": 72,
      "time": 72.5,
      "duration": 0.25,
      "velocity": 0.71,
      "hand": "right"
    },
    {
      "midi": 73,
      "time": 72.75,
      "duration": 0.25,
      "velocity": 0.71,
      "hand": "right"
    },
    {
      "midi": 52,
      "time": 73,
      "duration": 0.5,
      "velocity": 0.48,
      "hand": "left"
    },
    {
      "midi": 72,
      "time": 73,
      "duration": 0.25,
      "velocity": 0.71,
      "hand": "right"
    },
    {
      "midi": 73,
      "time": 73.25,
      "duration": 0.25,
      "velocity": 0.71,
      "hand": "right"
    },
    {
      "midi": 51,
      "time": 73.5,
      "duration": 0.5,
      "velocity": 0.48,
      "hand": "left"
    },
    {
      "midi": 75,
      "time": 73.5,
      "duration": 0.5,
      "velocity": 0.71,
      "hand": "right"
    },
    {
      "midi": 60,
      "time": 74,
      "duration": 0.5,
      "velocity": 0.48,
      "hand": "right"
    },
    {
      "midi": 68,
      "time": 74,
      "duration": 0.5,
      "velocity": 0.48,
      "hand": "right"
    },
    {
      "midi": 75,
      "time": 74,
      "duration": 0.5,
      "velocity": 0.71,
      "hand": "right"
    },
    {
      "midi": 51,
      "time": 74.5,
      "duration": 0.5,
      "velocity": 0.48,
      "hand": "left"
    },
    {
      "midi": 75,
      "time": 74.5,
      "duration": 0.5,
      "velocity": 0.71,
      "hand": "right"
    },
    {
      "midi": 39,
      "time": 75,
      "duration": 0.5,
      "velocity": 0.48,
      "hand": "left"
    },
    {
      "midi": 75,
      "time": 75,
      "duration": 0.5,
      "velocity": 0.71,
      "hand": "right"
    },
    {
      "midi": 61,
      "time": 75.5,
      "duration": 0.5,
      "velocity": 0.48,
      "hand": "right"
    },
    {
      "midi": 67,
      "time": 75.5,
      "duration": 0.5,
      "velocity": 0.48,
      "hand": "right"
    },
    {
      "midi": 73,
      "time": 75.5,
      "duration": 0.25,
      "velocity": 0.71,
      "hand": "right"
    },
    {
      "midi": 72,
      "time": 75.75,
      "duration": 0.25,
      "velocity": 0.71,
      "hand": "right"
    },
    {
      "midi": 51,
      "time": 76,
      "duration": 0.5,
      "velocity": 0.48,
      "hand": "left"
    },
    {
      "midi": 55,
      "time": 76,
      "duration": 0.5,
      "velocity": 0.48,
      "hand": "left"
    },
    {
      "midi": 61,
      "time": 76,
      "duration": 0.5,
      "velocity": 0.48,
      "hand": "right"
    },
    {
      "midi": 70,
      "time": 76,
      "duration": 0.25,
      "velocity": 0.71,
      "hand": "right"
    },
    {
      "midi": 72,
      "time": 76.25,
      "duration": 0.25,
      "velocity": 0.71,
      "hand": "right"
    },
    {
      "midi": 44,
      "time": 76.5,
      "duration": 0.5,
      "velocity": 0.48,
      "hand": "left"
    },
    {
      "midi": 68,
      "time": 76.5,
      "duration": 0.5,
      "velocity": 0.71,
      "hand": "right"
    },
    {
      "midi": 56,
      "time": 77,
      "duration": 0.5,
      "velocity": 0.48,
      "hand": "left"
    },
    {
      "midi": 60,
      "time": 77,
      "duration": 0.5,
      "velocity": 0.48,
      "hand": "right"
    },
    {
      "midi": 63,
      "time": 77,
      "duration": 0.5,
      "velocity": 0.48,
      "hand": "right"
    },
    {
      "midi": 51,
      "time": 77.5,
      "duration": 0.5,
      "velocity": 0.48,
      "hand": "left"
    },
    {
      "midi": 56,
      "time": 77.5,
      "duration": 0.5,
      "velocity": 0.48,
      "hand": "left"
    },
    {
      "midi": 60,
      "time": 77.5,
      "duration": 0.5,
      "velocity": 0.48,
      "hand": "right"
    },
    {
      "midi": 44,
      "time": 78,
      "duration": 0.5,
      "velocity": 0.48,
      "hand": "left"
    },
    {
      "midi": 56,
      "time": 78.5,
      "duration": 0.5,
      "velocity": 0.48,
      "hand": "left"
    },
    {
      "midi": 60,
      "time": 78.5,
      "duration": 0.5,
      "velocity": 0.48,
      "hand": "right"
    },
    {
      "midi": 64,
      "time": 78.5,
      "duration": 0.5,
      "velocity": 0.48,
      "hand": "right"
    },
    {
      "midi": 52,
      "time": 79,
      "duration": 0.5,
      "velocity": 0.48,
      "hand": "left"
    },
    {
      "midi": 56,
      "time": 79,
      "duration": 0.5,
      "velocity": 0.48,
      "hand": "left"
    },
    {
      "midi": 60,
      "time": 79,
      "duration": 0.5,
      "velocity": 0.48,
      "hand": "right"
    },
    {
      "midi": 32,
      "time": 79.5,
      "duration": 0.5,
      "velocity": 0.48,
      "hand": "left"
    },
    {
      "midi": 63,
      "time": 80,
      "duration": 0.5,
      "velocity": 0.48,
      "hand": "right"
    },
    {
      "midi": 68,
      "time": 80,
      "duration": 0.5,
      "velocity": 0.48,
      "hand": "right"
    },
    {
      "midi": 72,
      "time": 80,
      "duration": 0.5,
      "velocity": 0.48,
      "hand": "right"
    },
    {
      "midi": 75,
      "time": 80,
      "duration": 0.5,
      "velocity": 0.71,
      "hand": "right"
    },
    {
      "midi": 60,
      "time": 80.5,
      "duration": 0.5,
      "velocity": 0.48,
      "hand": "right"
    },
    {
      "midi": 63,
      "time": 80.5,
      "duration": 0.5,
      "velocity": 0.48,
      "hand": "right"
    },
    {
      "midi": 68,
      "time": 80.5,
      "duration": 0.5,
      "velocity": 0.48,
      "hand": "right"
    },
    {
      "midi": 80,
      "time": 80.5,
      "duration": 0.5,
      "velocity": 0.71,
      "hand": "right"
    },
    {
      "midi": 56,
      "time": 81,
      "duration": 0.5,
      "velocity": 0.48,
      "hand": "left"
    },
    {
      "midi": 79,
      "time": 81,
      "duration": 0.5,
      "velocity": 0.71,
      "hand": "right"
    },
    {
      "midi": 64,
      "time": 81.5,
      "duration": 0.5,
      "velocity": 0.48,
      "hand": "right"
    },
    {
      "midi": 67,
      "time": 81.5,
      "duration": 0.5,
      "velocity": 0.48,
      "hand": "right"
    },
    {
      "midi": 70,
      "time": 81.5,
      "duration": 0.5,
      "velocity": 0.48,
      "hand": "right"
    },
    {
      "midi": 73,
      "time": 81.5,
      "duration": 0.5,
      "velocity": 0.71,
      "hand": "right"
    },
    {
      "midi": 61,
      "time": 82,
      "duration": 0.5,
      "velocity": 0.48,
      "hand": "right"
    },
    {
      "midi": 64,
      "time": 82,
      "duration": 0.5,
      "velocity": 0.48,
      "hand": "right"
    },
    {
      "midi": 67,
      "time": 82,
      "duration": 0.5,
      "velocity": 0.48,
      "hand": "right"
    },
    {
      "midi": 76,
      "time": 82,
      "duration": 1,
      "velocity": 0.71,
      "hand": "right"
    },
    {
      "midi": 44,
      "time": 82.5,
      "duration": 0.5,
      "velocity": 0.48,
      "hand": "left"
    },
    {
      "midi": 63,
      "time": 83,
      "duration": 0.5,
      "velocity": 0.48,
      "hand": "right"
    },
    {
      "midi": 68,
      "time": 83,
      "duration": 0.5,
      "velocity": 0.48,
      "hand": "right"
    },
    {
      "midi": 72,
      "time": 83,
      "duration": 0.5,
      "velocity": 0.48,
      "hand": "right"
    },
    {
      "midi": 75,
      "time": 83,
      "duration": 0.5,
      "velocity": 0.71,
      "hand": "right"
    },
    {
      "midi": 60,
      "time": 83.5,
      "duration": 0.5,
      "velocity": 0.48,
      "hand": "right"
    },
    {
      "midi": 63,
      "time": 83.5,
      "duration": 0.5,
      "velocity": 0.48,
      "hand": "right"
    },
    {
      "midi": 68,
      "time": 83.5,
      "duration": 0.5,
      "velocity": 0.48,
      "hand": "right"
    },
    {
      "midi": 80,
      "time": 83.5,
      "duration": 0.75,
      "velocity": 0.71,
      "hand": "right"
    },
    {
      "midi": 56,
      "time": 84,
      "duration": 0.5,
      "velocity": 0.48,
      "hand": "left"
    },
    {
      "midi": 79,
      "time": 84.25,
      "duration": 0.25,
      "velocity": 0.71,
      "hand": "right"
    },
    {
      "midi": 64,
      "time": 84.5,
      "duration": 0.5,
      "velocity": 0.48,
      "hand": "right"
    },
    {
      "midi": 67,
      "time": 84.5,
      "duration": 0.5,
      "velocity": 0.48,
      "hand": "right"
    },
    {
      "midi": 70,
      "time": 84.5,
      "duration": 0.5,
      "velocity": 0.48,
      "hand": "right"
    },
    {
      "midi": 73,
      "time": 84.5,
      "duration": 0.25,
      "velocity": 0.71,
      "hand": "right"
    },
    {
      "midi": 75,
      "time": 84.75,
      "duration": 0.25,
      "velocity": 0.71,
      "hand": "right"
    },
    {
      "midi": 58,
      "time": 85,
      "duration": 0.5,
      "velocity": 0.48,
      "hand": "left"
    },
    {
      "midi": 61,
      "time": 85,
      "duration": 0.5,
      "velocity": 0.48,
      "hand": "right"
    },
    {
      "midi": 67,
      "time": 85,
      "duration": 0.5,
      "velocity": 0.48,
      "hand": "right"
    },
    {
      "midi": 78,
      "time": 85,
      "duration": 0.25,
      "velocity": 0.71,
      "hand": "right"
    },
    {
      "midi": 76,
      "time": 85.25,
      "duration": 0.25,
      "velocity": 0.71,
      "hand": "right"
    },
    {
      "midi": 44,
      "time": 85.5,
      "duration": 0.5,
      "velocity": 0.48,
      "hand": "left"
    },
    {
      "midi": 63,
      "time": 86,
      "duration": 0.5,
      "velocity": 0.48,
      "hand": "right"
    },
    {
      "midi": 68,
      "time": 86,
      "duration": 0.5,
      "velocity": 0.48,
      "hand": "right"
    },
    {
      "midi": 72,
      "time": 86,
      "duration": 0.5,
      "velocity": 0.48,
      "hand": "right"
    },
    {
      "midi": 75,
      "time": 86,
      "duration": 0.25,
      "velocity": 0.71,
      "hand": "right"
    },
    {
      "midi": 77,
      "time": 86.25,
      "duration": 0.25,
      "velocity": 0.71,
      "hand": "right"
    },
    {
      "midi": 60,
      "time": 86.5,
      "duration": 0.5,
      "velocity": 0.48,
      "hand": "right"
    },
    {
      "midi": 63,
      "time": 86.5,
      "duration": 0.5,
      "velocity": 0.48,
      "hand": "right"
    },
    {
      "midi": 68,
      "time": 86.5,
      "duration": 0.5,
      "velocity": 0.48,
      "hand": "right"
    },
    {
      "midi": 75,
      "time": 86.5,
      "duration": 0.25,
      "velocity": 0.71,
      "hand": "right"
    },
    {
      "midi": 77,
      "time": 86.75,
      "duration": 0.25,
      "velocity": 0.71,
      "hand": "right"
    },
    {
      "midi": 39,
      "time": 87,
      "duration": 0.5,
      "velocity": 0.48,
      "hand": "left"
    },
    {
      "midi": 78,
      "time": 87,
      "duration": 0.5,
      "velocity": 0.71,
      "hand": "right"
    },
    {
      "midi": 63,
      "time": 87.5,
      "duration": 0.5,
      "velocity": 0.48,
      "hand": "right"
    },
    {
      "midi": 66,
      "time": 87.5,
      "duration": 0.5,
      "velocity": 0.48,
      "hand": "right"
    },
    {
      "midi": 70,
      "time": 87.5,
      "duration": 0.5,
      "velocity": 0.48,
      "hand": "right"
    },
    {
      "midi": 78,
      "time": 87.5,
      "duration": 0.5,
      "velocity": 0.71,
      "hand": "right"
    },
    {
      "midi": 58,
      "time": 88,
      "duration": 0.5,
      "velocity": 0.48,
      "hand": "left"
    },
    {
      "midi": 63,
      "time": 88,
      "duration": 0.5,
      "velocity": 0.48,
      "hand": "right"
    },
    {
      "midi": 66,
      "time": 88,
      "duration": 0.5,
      "velocity": 0.48,
      "hand": "right"
    },
    {
      "midi": 78,
      "time": 88,
      "duration": 0.5,
      "velocity": 0.71,
      "hand": "right"
    },
    {
      "midi": 41,
      "time": 88.5,
      "duration": 0.5,
      "velocity": 0.48,
      "hand": "left"
    },
    {
      "midi": 78,
      "time": 88.5,
      "duration": 0.5,
      "velocity": 0.71,
      "hand": "right"
    },
    {
      "midi": 63,
      "time": 89,
      "duration": 0.5,
      "velocity": 0.48,
      "hand": "right"
    },
    {
      "midi": 69,
      "time": 89,
      "duration": 0.5,
      "velocity": 0.48,
      "hand": "right"
    },
    {
      "midi": 77,
      "time": 89,
      "duration": 0.25,
      "velocity": 0.71,
      "hand": "right"
    },
    {
      "midi": 72,
      "time": 89.25,
      "duration": 0.25,
      "velocity": 0.71,
      "hand": "right"
    },
    {
      "midi": 57,
      "time": 89.5,
      "duration": 0.5,
      "velocity": 0.48,
      "hand": "left"
    },
    {
      "midi": 63,
      "time": 89.5,
      "duration": 0.5,
      "velocity": 0.48,
      "hand": "right"
    },
    {
      "midi": 65,
      "time": 89.5,
      "duration": 0.5,
      "velocity": 0.48,
      "hand": "right"
    },
    {
      "midi": 75,
      "time": 89.5,
      "duration": 0.25,
      "velocity": 0.71,
      "hand": "right"
    },
    {
      "midi": 73,
      "time": 89.75,
      "duration": 0.25,
      "velocity": 0.71,
      "hand": "right"
    },
    {
      "midi": 46,
      "time": 90,
      "duration": 0.5,
      "velocity": 0.48,
      "hand": "left"
    },
    {
      "midi": 70,
      "time": 90,
      "duration": 0.5,
      "velocity": 0.71,
      "hand": "right"
    },
    {
      "midi": 58,
      "time": 90.5,
      "duration": 0.5,
      "velocity": 0.48,
      "hand": "left"
    },
    {
      "midi": 61,
      "time": 90.5,
      "duration": 0.5,
      "velocity": 0.48,
      "hand": "right"
    },
    {
      "midi": 65,
      "time": 90.5,
      "duration": 0.5,
      "velocity": 0.48,
      "hand": "right"
    },
    {
      "midi": 53,
      "time": 91,
      "duration": 0.5,
      "velocity": 0.48,
      "hand": "left"
    },
    {
      "midi": 58,
      "time": 91,
      "duration": 0.5,
      "velocity": 0.48,
      "hand": "left"
    },
    {
      "midi": 61,
      "time": 91,
      "duration": 0.5,
      "velocity": 0.48,
      "hand": "right"
    },
    {
      "midi": 42,
      "time": 91.5,
      "duration": 0.5,
      "velocity": 0.48,
      "hand": "left"
    },
    {
      "midi": 58,
      "time": 92,
      "duration": 0.5,
      "velocity": 0.48,
      "hand": "left"
    },
    {
      "midi": 61,
      "time": 92,
      "duration": 0.5,
      "velocity": 0.48,
      "hand": "right"
    },
    {
      "midi": 66,
      "time": 92,
      "duration": 0.5,
      "velocity": 0.48,
      "hand": "right"
    },
    {
      "midi": 73,
      "time": 92,
      "duration": 0.25,
      "velocity": 0.71,
      "hand": "right"
    },
    {
      "midi": 75,
      "time": 92.25,
      "duration": 0.25,
      "velocity": 0.71,
      "hand": "right"
    },
    {
      "midi": 54,
      "time": 92.5,
      "duration": 0.5,
      "velocity": 0.48,
      "hand": "left"
    },
    {
      "midi": 58,
      "time": 92.5,
      "duration": 0.5,
      "velocity": 0.48,
      "hand": "left"
    },
    {
      "midi": 61,
      "time": 92.5,
      "duration": 0.5,
      "velocity": 0.48,
      "hand": "right"
    },
    {
      "midi": 73,
      "time": 92.5,
      "duration": 0.25,
      "velocity": 0.71,
      "hand": "right"
    },
    {
      "midi": 75,
      "time": 92.75,
      "duration": 0.25,
      "velocity": 0.71,
      "hand": "right"
    },
    {
      "midi": 37,
      "time": 93,
      "duration": 0.5,
      "velocity": 0.48,
      "hand": "left"
    },
    {
      "midi": 77,
      "time": 93,
      "duration": 0.5,
      "velocity": 0.71,
      "hand": "right"
    },
    {
      "midi": 56,
      "time": 93.5,
      "duration": 0.5,
      "velocity": 0.48,
      "hand": "left"
    },
    {
      "midi": 61,
      "time": 93.5,
      "duration": 0.5,
      "velocity": 0.48,
      "hand": "right"
    },
    {
      "midi": 65,
      "time": 93.5,
      "duration": 0.5,
      "velocity": 0.48,
      "hand": "right"
    },
    {
      "midi": 77,
      "time": 93.5,
      "duration": 0.5,
      "velocity": 0.71,
      "hand": "right"
    },
    {
      "midi": 53,
      "time": 94,
      "duration": 0.5,
      "velocity": 0.48,
      "hand": "left"
    },
    {
      "midi": 56,
      "time": 94,
      "duration": 0.5,
      "velocity": 0.48,
      "hand": "left"
    },
    {
      "midi": 61,
      "time": 94,
      "duration": 0.5,
      "velocity": 0.48,
      "hand": "right"
    },
    {
      "midi": 77,
      "time": 94,
      "duration": 0.5,
      "velocity": 0.71,
      "hand": "right"
    },
    {
      "midi": 39,
      "time": 94.5,
      "duration": 0.5,
      "velocity": 0.48,
      "hand": "left"
    },
    {
      "midi": 77,
      "time": 94.5,
      "duration": 0.5,
      "velocity": 0.71,
      "hand": "right"
    },
    {
      "midi": 58,
      "time": 95,
      "duration": 0.5,
      "velocity": 0.48,
      "hand": "left"
    },
    {
      "midi": 60,
      "time": 95,
      "duration": 0.5,
      "velocity": 0.48,
      "hand": "right"
    },
    {
      "midi": 66,
      "time": 95,
      "duration": 0.5,
      "velocity": 0.48,
      "hand": "right"
    },
    {
      "midi": 75,
      "time": 95,
      "duration": 0.25,
      "velocity": 0.71,
      "hand": "right"
    },
    {
      "midi": 70,
      "time": 95.25,
      "duration": 0.25,
      "velocity": 0.71,
      "hand": "right"
    },
    {
      "midi": 54,
      "time": 95.5,
      "duration": 0.5,
      "velocity": 0.48,
      "hand": "left"
    },
    {
      "midi": 58,
      "time": 95.5,
      "duration": 0.5,
      "velocity": 0.48,
      "hand": "left"
    },
    {
      "midi": 63,
      "time": 95.5,
      "duration": 0.5,
      "velocity": 0.48,
      "hand": "right"
    },
    {
      "midi": 73,
      "time": 95.5,
      "duration": 0.25,
      "velocity": 0.71,
      "hand": "right"
    },
    {
      "midi": 72,
      "time": 95.75,
      "duration": 0.25,
      "velocity": 0.71,
      "hand": "right"
    },
    {
      "midi": 41,
      "time": 96,
      "duration": 0.5,
      "velocity": 0.48,
      "hand": "left"
    },
    {
      "midi": 69,
      "time": 96,
      "duration": 0.5,
      "velocity": 0.71,
      "hand": "right"
    },
    {
      "midi": 60,
      "time": 96.5,
      "duration": 0.5,
      "velocity": 0.48,
      "hand": "right"
    },
    {
      "midi": 65,
      "time": 96.5,
      "duration": 0.5,
      "velocity": 0.48,
      "hand": "right"
    },
    {
      "midi": 69,
      "time": 96.5,
      "duration": 0.5,
      "velocity": 0.48,
      "hand": "right"
    },
    {
      "midi": 72,
      "time": 96.5,
      "duration": 0.5,
      "velocity": 0.71,
      "hand": "right"
    },
    {
      "midi": 57,
      "time": 97,
      "duration": 0.5,
      "velocity": 0.48,
      "hand": "left"
    },
    {
      "midi": 60,
      "time": 97,
      "duration": 0.5,
      "velocity": 0.48,
      "hand": "right"
    },
    {
      "midi": 65,
      "time": 97,
      "duration": 0.5,
      "velocity": 0.48,
      "hand": "right"
    },
    {
      "midi": 77,
      "time": 97,
      "duration": 0.5,
      "velocity": 0.71,
      "hand": "right"
    },
    {
      "midi": 53,
      "time": 97.5,
      "duration": 0.5,
      "velocity": 0.48,
      "hand": "left"
    },
    {
      "midi": 76,
      "time": 97.5,
      "duration": 0.5,
      "velocity": 0.71,
      "hand": "right"
    },
    {
      "midi": 61,
      "time": 98,
      "duration": 0.5,
      "velocity": 0.48,
      "hand": "right"
    },
    {
      "midi": 64,
      "time": 98,
      "duration": 0.5,
      "velocity": 0.48,
      "hand": "right"
    },
    {
      "midi": 67,
      "time": 98,
      "duration": 0.5,
      "velocity": 0.48,
      "hand": "right"
    },
    {
      "midi": 70,
      "time": 98,
      "duration": 0.5,
      "velocity": 0.71,
      "hand": "right"
    },
    {
      "midi": 58,
      "time": 98.5,
      "duration": 0.5,
      "velocity": 0.48,
      "hand": "left"
    },
    {
      "midi": 61,
      "time": 98.5,
      "duration": 0.5,
      "velocity": 0.48,
      "hand": "right"
    },
    {
      "midi": 64,
      "time": 98.5,
      "duration": 0.5,
      "velocity": 0.48,
      "hand": "right"
    },
    {
      "midi": 73,
      "time": 98.5,
      "duration": 1,
      "velocity": 0.71,
      "hand": "right"
    },
    {
      "midi": 41,
      "time": 99,
      "duration": 0.5,
      "velocity": 0.48,
      "hand": "left"
    },
    {
      "midi": 60,
      "time": 99.5,
      "duration": 0.5,
      "velocity": 0.48,
      "hand": "right"
    },
    {
      "midi": 65,
      "time": 99.5,
      "duration": 0.5,
      "velocity": 0.48,
      "hand": "right"
    },
    {
      "midi": 69,
      "time": 99.5,
      "duration": 0.5,
      "velocity": 0.48,
      "hand": "right"
    },
    {
      "midi": 72,
      "time": 99.5,
      "duration": 0.5,
      "velocity": 0.71,
      "hand": "right"
    },
    {
      "midi": 57,
      "time": 100,
      "duration": 0.5,
      "velocity": 0.48,
      "hand": "left"
    },
    {
      "midi": 60,
      "time": 100,
      "duration": 0.5,
      "velocity": 0.48,
      "hand": "right"
    },
    {
      "midi": 65,
      "time": 100,
      "duration": 0.5,
      "velocity": 0.48,
      "hand": "right"
    },
    {
      "midi": 77,
      "time": 100,
      "duration": 0.75,
      "velocity": 0.71,
      "hand": "right"
    },
    {
      "midi": 53,
      "time": 100.5,
      "duration": 0.5,
      "velocity": 0.48,
      "hand": "left"
    },
    {
      "midi": 76,
      "time": 100.75,
      "duration": 0.25,
      "velocity": 0.71,
      "hand": "right"
    },
    {
      "midi": 61,
      "time": 101,
      "duration": 0.5,
      "velocity": 0.48,
      "hand": "right"
    },
    {
      "midi": 64,
      "time": 101,
      "duration": 0.5,
      "velocity": 0.48,
      "hand": "right"
    },
    {
      "midi": 67,
      "time": 101,
      "duration": 0.5,
      "velocity": 0.48,
      "hand": "right"
    },
    {
      "midi": 70,
      "time": 101,
      "duration": 0.25,
      "velocity": 0.71,
      "hand": "right"
    },
    {
      "midi": 72,
      "time": 101.25,
      "duration": 0.25,
      "velocity": 0.71,
      "hand": "right"
    },
    {
      "midi": 58,
      "time": 101.5,
      "duration": 0.5,
      "velocity": 0.48,
      "hand": "left"
    },
    {
      "midi": 61,
      "time": 101.5,
      "duration": 0.5,
      "velocity": 0.48,
      "hand": "right"
    },
    {
      "midi": 64,
      "time": 101.5,
      "duration": 0.5,
      "velocity": 0.48,
      "hand": "right"
    },
    {
      "midi": 75,
      "time": 101.5,
      "duration": 0.25,
      "velocity": 0.71,
      "hand": "right"
    },
    {
      "midi": 73,
      "time": 101.75,
      "duration": 0.25,
      "velocity": 0.71,
      "hand": "right"
    },
    {
      "midi": 41,
      "time": 102,
      "duration": 0.5,
      "velocity": 0.48,
      "hand": "left"
    },
    {
      "midi": 60,
      "time": 102.5,
      "duration": 0.5,
      "velocity": 0.48,
      "hand": "right"
    },
    {
      "midi": 63,
      "time": 102.5,
      "duration": 0.5,
      "velocity": 0.48,
      "hand": "right"
    },
    {
      "midi": 66,
      "time": 102.5,
      "duration": 0.5,
      "velocity": 0.48,
      "hand": "right"
    },
    {
      "midi": 72,
      "time": 102.5,
      "duration": 0.25,
      "velocity": 0.71,
      "hand": "right"
    },
    {
      "midi": 73,
      "time": 102.75,
      "duration": 0.25,
      "velocity": 0.71,
      "hand": "right"
    },
    {
      "midi": 54,
      "time": 103,
      "duration": 0.5,
      "velocity": 0.48,
      "hand": "left"
    },
    {
      "midi": 58,
      "time": 103,
      "duration": 0.5,
      "velocity": 0.48,
      "hand": "left"
    },
    {
      "midi": 63,
      "time": 103,
      "duration": 0.5,
      "velocity": 0.48,
      "hand": "right"
    },
    {
      "midi": 72,
      "time": 103,
      "duration": 0.25,
      "velocity": 0.71,
      "hand": "right"
    },
    {
      "midi": 73,
      "time": 103.25,
      "duration": 0.25,
      "velocity": 0.71,
      "hand": "right"
    },
    {
      "midi": 53,
      "time": 103.5,
      "duration": 0.5,
      "velocity": 0.48,
      "hand": "left"
    },
    {
      "midi": 75,
      "time": 103.5,
      "duration": 0.5,
      "velocity": 0.71,
      "hand": "right"
    },
    {
      "midi": 63,
      "time": 104,
      "duration": 0.5,
      "velocity": 0.48,
      "hand": "right"
    },
    {
      "midi": 66,
      "time": 104,
      "duration": 0.5,
      "velocity": 0.48,
      "hand": "right"
    },
    {
      "midi": 70,
      "time": 104,
      "duration": 0.5,
      "velocity": 0.48,
      "hand": "right"
    },
    {
      "midi": 75,
      "time": 104,
      "duration": 0.5,
      "velocity": 0.71,
      "hand": "right"
    },
    {
      "midi": 60,
      "time": 104.5,
      "duration": 0.5,
      "velocity": 0.48,
      "hand": "right"
    },
    {
      "midi": 63,
      "time": 104.5,
      "duration": 0.5,
      "velocity": 0.48,
      "hand": "right"
    },
    {
      "midi": 66,
      "time": 104.5,
      "duration": 0.5,
      "velocity": 0.48,
      "hand": "right"
    },
    {
      "midi": 75,
      "time": 104.5,
      "duration": 0.5,
      "velocity": 0.71,
      "hand": "right"
    },
    {
      "midi": 41,
      "time": 105,
      "duration": 0.5,
      "velocity": 0.48,
      "hand": "left"
    },
    {
      "midi": 75,
      "time": 105,
      "duration": 0.5,
      "velocity": 0.71,
      "hand": "right"
    },
    {
      "midi": 63,
      "time": 105.5,
      "duration": 0.5,
      "velocity": 0.48,
      "hand": "right"
    },
    {
      "midi": 69,
      "time": 105.5,
      "duration": 0.5,
      "velocity": 0.48,
      "hand": "right"
    },
    {
      "midi": 77,
      "time": 105.5,
      "duration": 0.25,
      "velocity": 0.71,
      "hand": "right"
    },
    {
      "midi": 72,
      "time": 105.75,
      "duration": 0.25,
      "velocity": 0.71,
      "hand": "right"
    },
    {
      "midi": 57,
      "time": 106,
      "duration": 0.5,
      "velocity": 0.48,
      "hand": "left"
    },
    {
      "midi": 63,
      "time": 106,
      "duration": 0.5,
      "velocity": 0.48,
      "hand": "right"
    },
    {
      "midi": 65,
      "time": 106,
      "duration": 0.5,
      "velocity": 0.48,
      "hand": "right"
    },
    {
      "midi": 75,
      "time": 106,
      "duration": 0.25,
      "velocity": 0.71,
      "hand": "right"
    },
    {
      "midi": 73,
      "time": 106.25,
      "duration": 0.25,
      "velocity": 0.71,
      "hand": "right"
    },
    {
      "midi": 46,
      "time": 106.5,
      "duration": 0.5,
      "velocity": 0.48,
      "hand": "left"
    },
    {
      "midi": 70,
      "time": 106.5,
      "duration": 1,
      "velocity": 0.71,
      "hand": "right"
    },
    {
      "midi": 58,
      "time": 107,
      "duration": 0.5,
      "velocity": 0.48,
      "hand": "left"
    },
    {
      "midi": 61,
      "time": 107,
      "duration": 0.5,
      "velocity": 0.48,
      "hand": "right"
    },
    {
      "midi": 65,
      "time": 107,
      "duration": 0.5,
      "velocity": 0.48,
      "hand": "right"
    },
    {
      "midi": 53,
      "time": 107.5,
      "duration": 0.5,
      "velocity": 0.48,
      "hand": "left"
    },
    {
      "midi": 58,
      "time": 107.5,
      "duration": 0.5,
      "velocity": 0.48,
      "hand": "left"
    },
    {
      "midi": 61,
      "time": 107.5,
      "duration": 0.5,
      "velocity": 0.48,
      "hand": "right"
    },
    {
      "midi": 58,
      "time": 108,
      "duration": 0.5,
      "velocity": 0.48,
      "hand": "left"
    },
    {
      "midi": 61,
      "time": 108,
      "duration": 0.5,
      "velocity": 0.48,
      "hand": "right"
    },
    {
      "midi": 66,
      "time": 108,
      "duration": 0.5,
      "velocity": 0.48,
      "hand": "right"
    },
    {
      "midi": 58,
      "time": 108.5,
      "duration": 0.5,
      "velocity": 0.26,
      "hand": "left"
    },
    {
      "midi": 61,
      "time": 108.5,
      "duration": 0.5,
      "velocity": 0.26,
      "hand": "right"
    },
    {
      "midi": 65,
      "time": 108.5,
      "duration": 0.5,
      "velocity": 0.26,
      "hand": "right"
    },
    {
      "midi": 53,
      "time": 109,
      "duration": 0.5,
      "velocity": 0.26,
      "hand": "left"
    },
    {
      "midi": 58,
      "time": 109,
      "duration": 0.5,
      "velocity": 0.26,
      "hand": "left"
    },
    {
      "midi": 61,
      "time": 109,
      "duration": 0.5,
      "velocity": 0.26,
      "hand": "right"
    },
    {
      "midi": 49,
      "time": 109.5,
      "duration": 0.5,
      "velocity": 0.26,
      "hand": "left"
    },
    {
      "midi": 53,
      "time": 109.5,
      "duration": 0.5,
      "velocity": 0.26,
      "hand": "left"
    },
    {
      "midi": 58,
      "time": 109.5,
      "duration": 0.5,
      "velocity": 0.26,
      "hand": "left"
    },
    {
      "midi": 34,
      "time": 110,
      "duration": 0.5,
      "velocity": 0.26,
      "hand": "left"
    },
    {
      "midi": 46,
      "time": 110,
      "duration": 0.5,
      "velocity": 0.26,
      "hand": "left"
    },
    {
      "midi": 32,
      "time": 110.5,
      "duration": 0.5,
      "velocity": 0.26,
      "hand": "left"
    },
    {
      "midi": 44,
      "time": 110.5,
      "duration": 0.5,
      "velocity": 0.26,
      "hand": "left"
    },
    {
      "midi": 30,
      "time": 111,
      "duration": 0.5,
      "velocity": 0.26,
      "hand": "left"
    },
    {
      "midi": 42,
      "time": 111,
      "duration": 0.5,
      "velocity": 0.26,
      "hand": "left"
    },
    {
      "midi": 37,
      "time": 111.5,
      "duration": 0.5,
      "velocity": 0.26,
      "hand": "left"
    },
    {
      "midi": 49,
      "time": 111.5,
      "duration": 0.5,
      "velocity": 0.26,
      "hand": "left"
    },
    {
      "midi": 42,
      "time": 112,
      "duration": 0.5,
      "velocity": 0.26,
      "hand": "left"
    },
    {
      "midi": 54,
      "time": 112,
      "duration": 0.5,
      "velocity": 0.26,
      "hand": "left"
    },
    {
      "midi": 46,
      "time": 112.5,
      "duration": 0.5,
      "velocity": 0.26,
      "hand": "left"
    },
    {
      "midi": 58,
      "time": 112.5,
      "duration": 0.5,
      "velocity": 0.26,
      "hand": "left"
    },
    {
      "midi": 66,
      "time": 112.5,
      "duration": 1,
      "velocity": 0.71,
      "hand": "right"
    },
    {
      "midi": 70,
      "time": 112.5,
      "duration": 1,
      "velocity": 0.71,
      "hand": "right"
    },
    {
      "midi": 78,
      "time": 112.5,
      "duration": 1,
      "velocity": 0.71,
      "hand": "right"
    },
    {
      "midi": 51,
      "time": 113,
      "duration": 0.5,
      "velocity": 0.26,
      "hand": "left"
    },
    {
      "midi": 63,
      "time": 113,
      "duration": 0.5,
      "velocity": 0.26,
      "hand": "right"
    },
    {
      "midi": 46,
      "time": 113.5,
      "duration": 0.5,
      "velocity": 0.26,
      "hand": "left"
    },
    {
      "midi": 58,
      "time": 113.5,
      "duration": 0.5,
      "velocity": 0.26,
      "hand": "left"
    },
    {
      "midi": 66,
      "time": 113.5,
      "duration": 0.5,
      "velocity": 0.71,
      "hand": "right"
    },
    {
      "midi": 70,
      "time": 113.5,
      "duration": 0.5,
      "velocity": 0.71,
      "hand": "right"
    },
    {
      "midi": 78,
      "time": 113.5,
      "duration": 0.5,
      "velocity": 0.71,
      "hand": "right"
    },
    {
      "midi": 49,
      "time": 114,
      "duration": 0.5,
      "velocity": 0.26,
      "hand": "left"
    },
    {
      "midi": 61,
      "time": 114,
      "duration": 0.5,
      "velocity": 0.26,
      "hand": "right"
    },
    {
      "midi": 66,
      "time": 114,
      "duration": 4.5,
      "velocity": 0.71,
      "hand": "right"
    },
    {
      "midi": 70,
      "time": 114,
      "duration": 4.5,
      "velocity": 0.71,
      "hand": "right"
    },
    {
      "midi": 78,
      "time": 114,
      "duration": 4.5,
      "velocity": 0.71,
      "hand": "right"
    },
    {
      "midi": 51,
      "time": 114.5,
      "duration": 0.5,
      "velocity": 0.26,
      "hand": "left"
    },
    {
      "midi": 63,
      "time": 114.5,
      "duration": 0.5,
      "velocity": 0.26,
      "hand": "right"
    },
    {
      "midi": 46,
      "time": 115,
      "duration": 0.5,
      "velocity": 0.26,
      "hand": "left"
    },
    {
      "midi": 58,
      "time": 115,
      "duration": 0.5,
      "velocity": 0.26,
      "hand": "left"
    },
    {
      "midi": 49,
      "time": 115.5,
      "duration": 0.5,
      "velocity": 0.26,
      "hand": "left"
    },
    {
      "midi": 61,
      "time": 115.5,
      "duration": 0.5,
      "velocity": 0.26,
      "hand": "right"
    },
    {
      "midi": 44,
      "time": 116,
      "duration": 0.5,
      "velocity": 0.26,
      "hand": "left"
    },
    {
      "midi": 56,
      "time": 116,
      "duration": 0.5,
      "velocity": 0.26,
      "hand": "left"
    },
    {
      "midi": 46,
      "time": 116.5,
      "duration": 0.5,
      "velocity": 0.26,
      "hand": "left"
    },
    {
      "midi": 58,
      "time": 116.5,
      "duration": 0.5,
      "velocity": 0.26,
      "hand": "left"
    },
    {
      "midi": 42,
      "time": 117,
      "duration": 0.5,
      "velocity": 0.26,
      "hand": "left"
    },
    {
      "midi": 54,
      "time": 117,
      "duration": 0.5,
      "velocity": 0.26,
      "hand": "left"
    },
    {
      "midi": 39,
      "time": 117.5,
      "duration": 0.5,
      "velocity": 0.26,
      "hand": "left"
    },
    {
      "midi": 51,
      "time": 117.5,
      "duration": 0.5,
      "velocity": 0.26,
      "hand": "left"
    },
    {
      "midi": 34,
      "time": 118,
      "duration": 0.5,
      "velocity": 0.26,
      "hand": "left"
    },
    {
      "midi": 46,
      "time": 118,
      "duration": 0.5,
      "velocity": 0.26,
      "hand": "left"
    },
    {
      "midi": 37,
      "time": 118.5,
      "duration": 0.5,
      "velocity": 0.26,
      "hand": "left"
    },
    {
      "midi": 49,
      "time": 118.5,
      "duration": 0.5,
      "velocity": 0.26,
      "hand": "left"
    },
    {
      "midi": 66,
      "time": 118.5,
      "duration": 1,
      "velocity": 0.71,
      "hand": "right"
    },
    {
      "midi": 70,
      "time": 118.5,
      "duration": 1,
      "velocity": 0.71,
      "hand": "right"
    },
    {
      "midi": 78,
      "time": 118.5,
      "duration": 1,
      "velocity": 0.71,
      "hand": "right"
    },
    {
      "midi": 32,
      "time": 119,
      "duration": 0.5,
      "velocity": 0.26,
      "hand": "left"
    },
    {
      "midi": 44,
      "time": 119,
      "duration": 0.5,
      "velocity": 0.26,
      "hand": "left"
    },
    {
      "midi": 34,
      "time": 119.5,
      "duration": 0.5,
      "velocity": 0.26,
      "hand": "left"
    },
    {
      "midi": 46,
      "time": 119.5,
      "duration": 0.5,
      "velocity": 0.26,
      "hand": "left"
    },
    {
      "midi": 66,
      "time": 119.5,
      "duration": 0.5,
      "velocity": 0.71,
      "hand": "right"
    },
    {
      "midi": 70,
      "time": 119.5,
      "duration": 0.5,
      "velocity": 0.71,
      "hand": "right"
    },
    {
      "midi": 78,
      "time": 119.5,
      "duration": 0.5,
      "velocity": 0.71,
      "hand": "right"
    },
    {
      "midi": 30,
      "time": 120,
      "duration": 0.5,
      "velocity": 0.26,
      "hand": "left"
    },
    {
      "midi": 42,
      "time": 120,
      "duration": 0.5,
      "velocity": 0.26,
      "hand": "left"
    },
    {
      "midi": 66,
      "time": 120,
      "duration": 1.5,
      "velocity": 0.71,
      "hand": "right"
    },
    {
      "midi": 70,
      "time": 120,
      "duration": 1.5,
      "velocity": 0.71,
      "hand": "right"
    },
    {
      "midi": 78,
      "time": 120,
      "duration": 1.5,
      "velocity": 0.71,
      "hand": "right"
    },
    {
      "midi": 51,
      "time": 120.5,
      "duration": 0.5,
      "velocity": 0.26,
      "hand": "left"
    },
    {
      "midi": 63,
      "time": 120.5,
      "duration": 0.5,
      "velocity": 0.26,
      "hand": "right"
    },
    {
      "midi": 46,
      "time": 121,
      "duration": 0.5,
      "velocity": 0.26,
      "hand": "left"
    },
    {
      "midi": 58,
      "time": 121,
      "duration": 0.5,
      "velocity": 0.26,
      "hand": "left"
    },
    {
      "midi": 49,
      "time": 121.5,
      "duration": 0.5,
      "velocity": 0.26,
      "hand": "left"
    },
    {
      "midi": 61,
      "time": 121.5,
      "duration": 0.5,
      "velocity": 0.26,
      "hand": "right"
    },
    {
      "midi": 65,
      "time": 121.5,
      "duration": 1.5,
      "velocity": 0.71,
      "hand": "right"
    },
    {
      "midi": 68,
      "time": 121.5,
      "duration": 1.5,
      "velocity": 0.71,
      "hand": "right"
    },
    {
      "midi": 77,
      "time": 121.5,
      "duration": 1.5,
      "velocity": 0.71,
      "hand": "right"
    },
    {
      "midi": 44,
      "time": 122,
      "duration": 0.5,
      "velocity": 0.26,
      "hand": "left"
    },
    {
      "midi": 56,
      "time": 122,
      "duration": 0.5,
      "velocity": 0.26,
      "hand": "left"
    },
    {
      "midi": 46,
      "time": 122.5,
      "duration": 0.5,
      "velocity": 0.26,
      "hand": "left"
    },
    {
      "midi": 58,
      "time": 122.5,
      "duration": 0.5,
      "velocity": 0.26,
      "hand": "left"
    },
    {
      "midi": 47,
      "time": 123,
      "duration": 0.5,
      "velocity": 0.26,
      "hand": "left"
    },
    {
      "midi": 59,
      "time": 123,
      "duration": 0.5,
      "velocity": 0.26,
      "hand": "left"
    },
    {
      "midi": 64,
      "time": 123,
      "duration": 1.5,
      "velocity": 0.71,
      "hand": "right"
    },
    {
      "midi": 68,
      "time": 123,
      "duration": 1.5,
      "velocity": 0.71,
      "hand": "right"
    },
    {
      "midi": 76,
      "time": 123,
      "duration": 1.5,
      "velocity": 0.71,
      "hand": "right"
    },
    {
      "midi": 35,
      "time": 123.5,
      "duration": 0.5,
      "velocity": 0.26,
      "hand": "left"
    },
    {
      "midi": 47,
      "time": 123.5,
      "duration": 0.5,
      "velocity": 0.26,
      "hand": "left"
    },
    {
      "midi": 40,
      "time": 124,
      "duration": 0.5,
      "velocity": 0.26,
      "hand": "left"
    },
    {
      "midi": 52,
      "time": 124,
      "duration": 0.5,
      "velocity": 0.26,
      "hand": "left"
    },
    {
      "midi": 44,
      "time": 124.5,
      "duration": 0.5,
      "velocity": 0.26,
      "hand": "left"
    },
    {
      "midi": 56,
      "time": 124.5,
      "duration": 0.5,
      "velocity": 0.26,
      "hand": "left"
    },
    {
      "midi": 64,
      "time": 124.5,
      "duration": 1,
      "velocity": 0.71,
      "hand": "right"
    },
    {
      "midi": 68,
      "time": 124.5,
      "duration": 1,
      "velocity": 0.71,
      "hand": "right"
    },
    {
      "midi": 76,
      "time": 124.5,
      "duration": 1,
      "velocity": 0.71,
      "hand": "right"
    },
    {
      "midi": 49,
      "time": 125,
      "duration": 0.5,
      "velocity": 0.26,
      "hand": "left"
    },
    {
      "midi": 61,
      "time": 125,
      "duration": 0.5,
      "velocity": 0.26,
      "hand": "right"
    },
    {
      "midi": 44,
      "time": 125.5,
      "duration": 0.5,
      "velocity": 0.26,
      "hand": "left"
    },
    {
      "midi": 56,
      "time": 125.5,
      "duration": 0.5,
      "velocity": 0.26,
      "hand": "left"
    },
    {
      "midi": 64,
      "time": 125.5,
      "duration": 0.5,
      "velocity": 0.71,
      "hand": "right"
    },
    {
      "midi": 68,
      "time": 125.5,
      "duration": 0.5,
      "velocity": 0.71,
      "hand": "right"
    },
    {
      "midi": 76,
      "time": 125.5,
      "duration": 0.5,
      "velocity": 0.71,
      "hand": "right"
    },
    {
      "midi": 47,
      "time": 126,
      "duration": 0.5,
      "velocity": 0.26,
      "hand": "left"
    },
    {
      "midi": 59,
      "time": 126,
      "duration": 0.5,
      "velocity": 0.26,
      "hand": "left"
    },
    {
      "midi": 64,
      "time": 126,
      "duration": 4.5,
      "velocity": 0.71,
      "hand": "right"
    },
    {
      "midi": 68,
      "time": 126,
      "duration": 4.5,
      "velocity": 0.71,
      "hand": "right"
    },
    {
      "midi": 76,
      "time": 126,
      "duration": 4.5,
      "velocity": 0.71,
      "hand": "right"
    },
    {
      "midi": 49,
      "time": 126.5,
      "duration": 0.5,
      "velocity": 0.26,
      "hand": "left"
    },
    {
      "midi": 61,
      "time": 126.5,
      "duration": 0.5,
      "velocity": 0.26,
      "hand": "right"
    },
    {
      "midi": 44,
      "time": 127,
      "duration": 0.5,
      "velocity": 0.26,
      "hand": "left"
    },
    {
      "midi": 56,
      "time": 127,
      "duration": 0.5,
      "velocity": 0.26,
      "hand": "left"
    },
    {
      "midi": 47,
      "time": 127.5,
      "duration": 0.5,
      "velocity": 0.26,
      "hand": "left"
    },
    {
      "midi": 59,
      "time": 127.5,
      "duration": 0.5,
      "velocity": 0.26,
      "hand": "left"
    },
    {
      "midi": 42,
      "time": 128,
      "duration": 0.5,
      "velocity": 0.26,
      "hand": "left"
    },
    {
      "midi": 54,
      "time": 128,
      "duration": 0.5,
      "velocity": 0.26,
      "hand": "left"
    },
    {
      "midi": 44,
      "time": 128.5,
      "duration": 0.5,
      "velocity": 0.26,
      "hand": "left"
    },
    {
      "midi": 56,
      "time": 128.5,
      "duration": 0.5,
      "velocity": 0.26,
      "hand": "left"
    },
    {
      "midi": 40,
      "time": 129,
      "duration": 0.5,
      "velocity": 0.26,
      "hand": "left"
    },
    {
      "midi": 52,
      "time": 129,
      "duration": 0.5,
      "velocity": 0.26,
      "hand": "left"
    },
    {
      "midi": 37,
      "time": 129.5,
      "duration": 0.5,
      "velocity": 0.26,
      "hand": "left"
    },
    {
      "midi": 49,
      "time": 129.5,
      "duration": 0.5,
      "velocity": 0.26,
      "hand": "left"
    },
    {
      "midi": 32,
      "time": 130,
      "duration": 0.5,
      "velocity": 0.26,
      "hand": "left"
    },
    {
      "midi": 44,
      "time": 130,
      "duration": 0.5,
      "velocity": 0.26,
      "hand": "left"
    },
    {
      "midi": 35,
      "time": 130.5,
      "duration": 0.5,
      "velocity": 0.26,
      "hand": "left"
    },
    {
      "midi": 47,
      "time": 130.5,
      "duration": 0.5,
      "velocity": 0.26,
      "hand": "left"
    },
    {
      "midi": 64,
      "time": 130.5,
      "duration": 1,
      "velocity": 0.71,
      "hand": "right"
    },
    {
      "midi": 68,
      "time": 130.5,
      "duration": 1,
      "velocity": 0.71,
      "hand": "right"
    },
    {
      "midi": 76,
      "time": 130.5,
      "duration": 1,
      "velocity": 0.71,
      "hand": "right"
    },
    {
      "midi": 30,
      "time": 131,
      "duration": 0.5,
      "velocity": 0.26,
      "hand": "left"
    },
    {
      "midi": 42,
      "time": 131,
      "duration": 0.5,
      "velocity": 0.26,
      "hand": "left"
    },
    {
      "midi": 32,
      "time": 131.5,
      "duration": 0.5,
      "velocity": 0.26,
      "hand": "left"
    },
    {
      "midi": 44,
      "time": 131.5,
      "duration": 0.5,
      "velocity": 0.26,
      "hand": "left"
    },
    {
      "midi": 64,
      "time": 131.5,
      "duration": 0.5,
      "velocity": 0.71,
      "hand": "right"
    },
    {
      "midi": 68,
      "time": 131.5,
      "duration": 0.5,
      "velocity": 0.71,
      "hand": "right"
    },
    {
      "midi": 76,
      "time": 131.5,
      "duration": 0.5,
      "velocity": 0.71,
      "hand": "right"
    },
    {
      "midi": 28,
      "time": 132,
      "duration": 0.5,
      "velocity": 0.26,
      "hand": "left"
    },
    {
      "midi": 40,
      "time": 132,
      "duration": 0.5,
      "velocity": 0.26,
      "hand": "left"
    },
    {
      "midi": 64,
      "time": 132,
      "duration": 1.5,
      "velocity": 0.71,
      "hand": "right"
    },
    {
      "midi": 68,
      "time": 132,
      "duration": 1.5,
      "velocity": 0.71,
      "hand": "right"
    },
    {
      "midi": 76,
      "time": 132,
      "duration": 1.5,
      "velocity": 0.71,
      "hand": "right"
    },
    {
      "midi": 49,
      "time": 132.5,
      "duration": 0.5,
      "velocity": 0.26,
      "hand": "left"
    },
    {
      "midi": 61,
      "time": 132.5,
      "duration": 0.5,
      "velocity": 0.26,
      "hand": "right"
    },
    {
      "midi": 44,
      "time": 133,
      "duration": 0.5,
      "velocity": 0.26,
      "hand": "left"
    },
    {
      "midi": 56,
      "time": 133,
      "duration": 0.5,
      "velocity": 0.26,
      "hand": "left"
    },
    {
      "midi": 47,
      "time": 133.5,
      "duration": 0.5,
      "velocity": 0.26,
      "hand": "left"
    },
    {
      "midi": 59,
      "time": 133.5,
      "duration": 0.5,
      "velocity": 0.26,
      "hand": "left"
    },
    {
      "midi": 63,
      "time": 133.5,
      "duration": 1.5,
      "velocity": 0.71,
      "hand": "right"
    },
    {
      "midi": 68,
      "time": 133.5,
      "duration": 0.5,
      "velocity": 0.71,
      "hand": "right"
    },
    {
      "midi": 75,
      "time": 133.5,
      "duration": 1.5,
      "velocity": 0.71,
      "hand": "right"
    },
    {
      "midi": 46,
      "time": 134,
      "duration": 0.5,
      "velocity": 0.26,
      "hand": "left"
    },
    {
      "midi": 58,
      "time": 134,
      "duration": 0.5,
      "velocity": 0.26,
      "hand": "left"
    },
    {
      "midi": 70,
      "time": 134,
      "duration": 0.5,
      "velocity": 0.71,
      "hand": "right"
    },
    {
      "midi": 44,
      "time": 134.5,
      "duration": 0.5,
      "velocity": 0.26,
      "hand": "left"
    },
    {
      "midi": 56,
      "time": 134.5,
      "duration": 0.5,
      "velocity": 0.26,
      "hand": "left"
    },
    {
      "midi": 71,
      "time": 134.5,
      "duration": 0.5,
      "velocity": 0.71,
      "hand": "right"
    },
    {
      "midi": 34,
      "time": 135,
      "duration": 0.5,
      "velocity": 0.26,
      "hand": "left"
    },
    {
      "midi": 46,
      "time": 135,
      "duration": 0.5,
      "velocity": 0.26,
      "hand": "left"
    },
    {
      "midi": 62,
      "time": 135,
      "duration": 0.5,
      "velocity": 0.71,
      "hand": "right"
    },
    {
      "midi": 56,
      "time": 135.5,
      "duration": 0.5,
      "velocity": 0.26,
      "hand": "left"
    },
    {
      "midi": 62,
      "time": 135.5,
      "duration": 0.5,
      "velocity": 0.26,
      "hand": "right"
    },
    {
      "midi": 74,
      "time": 135.5,
      "duration": 0.25,
      "velocity": 0.71,
      "hand": "right"
    },
    {
      "midi": 75,
      "time": 135.75,
      "duration": 0.25,
      "velocity": 0.71,
      "hand": "right"
    },
    {
      "midi": 62,
      "time": 136,
      "duration": 0.5,
      "velocity": 0.26,
      "hand": "right"
    },
    {
      "midi": 68,
      "time": 136,
      "duration": 0.5,
      "velocity": 0.26,
      "hand": "right"
    },
    {
      "midi": 74,
      "time": 136,
      "duration": 0.25,
      "velocity": 0.71,
      "hand": "right"
    },
    {
      "midi": 75,
      "time": 136.25,
      "duration": 0.25,
      "velocity": 0.71,
      "hand": "right"
    },
    {
      "midi": 77,
      "time": 136.5,
      "duration": 0.5,
      "velocity": 0.71,
      "hand": "right"
    },
    {
      "midi": 56,
      "time": 137,
      "duration": 0.5,
      "velocity": 0.26,
      "hand": "left"
    },
    {
      "midi": 62,
      "time": 137,
      "duration": 0.5,
      "velocity": 0.26,
      "hand": "right"
    },
    {
      "midi": 68,
      "time": 137,
      "duration": 0.5,
      "velocity": 0.26,
      "hand": "right"
    },
    {
      "midi": 77,
      "time": 137,
      "duration": 0.5,
      "velocity": 0.71,
      "hand": "right"
    },
    {
      "midi": 53,
      "time": 137.5,
      "duration": 0.5,
      "velocity": 0.26,
      "hand": "left"
    },
    {
      "midi": 56,
      "time": 137.5,
      "duration": 0.5,
      "velocity": 0.26,
      "hand": "left"
    },
    {
      "midi": 62,
      "time": 137.5,
      "duration": 0.5,
      "velocity": 0.26,
      "hand": "right"
    },
    {
      "midi": 77,
      "time": 137.5,
      "duration": 0.5,
      "velocity": 0.71,
      "hand": "right"
    },
    {
      "midi": 47,
      "time": 138,
      "duration": 0.5,
      "velocity": 0.26,
      "hand": "left"
    },
    {
      "midi": 77,
      "time": 138,
      "duration": 0.5,
      "velocity": 0.71,
      "hand": "right"
    },
    {
      "midi": 56,
      "time": 138.5,
      "duration": 0.5,
      "velocity": 0.26,
      "hand": "left"
    },
    {
      "midi": 63,
      "time": 138.5,
      "duration": 0.5,
      "velocity": 0.26,
      "hand": "right"
    },
    {
      "midi": 68,
      "time": 138.5,
      "duration": 0.5,
      "velocity": 0.26,
      "hand": "right"
    },
    {
      "midi": 78,
      "time": 138.5,
      "duration": 0.25,
      "velocity": 0.71,
      "hand": "right"
    },
    {
      "midi": 77,
      "time": 138.75,
      "duration": 0.25,
      "velocity": 0.71,
      "hand": "right"
    },
    {
      "midi": 53,
      "time": 139,
      "duration": 0.5,
      "velocity": 0.26,
      "hand": "left"
    },
    {
      "midi": 56,
      "time": 139,
      "duration": 0.5,
      "velocity": 0.26,
      "hand": "left"
    },
    {
      "midi": 63,
      "time": 139,
      "duration": 0.5,
      "velocity": 0.26,
      "hand": "right"
    },
    {
      "midi": 75,
      "time": 139,
      "duration": 0.25,
      "velocity": 0.71,
      "hand": "right"
    },
    {
      "midi": 68,
      "time": 139.25,
      "duration": 0.25,
      "velocity": 0.71,
      "hand": "right"
    },
    {
      "midi": 41,
      "time": 139.5,
      "duration": 0.5,
      "velocity": 0.26,
      "hand": "left"
    },
    {
      "midi": 83,
      "time": 139.5,
      "duration": 1.5,
      "velocity": 0.71,
      "hand": "right"
    },
    {
      "midi": 56,
      "time": 140,
      "duration": 0.5,
      "velocity": 0.26,
      "hand": "left"
    },
    {
      "midi": 63,
      "time": 140,
      "duration": 0.5,
      "velocity": 0.26,
      "hand": "right"
    },
    {
      "midi": 68,
      "time": 140,
      "duration": 0.5,
      "velocity": 0.26,
      "hand": "right"
    },
    {
      "midi": 53,
      "time": 140.5,
      "duration": 0.5,
      "velocity": 0.26,
      "hand": "left"
    },
    {
      "midi": 56,
      "time": 140.5,
      "duration": 0.5,
      "velocity": 0.26,
      "hand": "left"
    },
    {
      "midi": 63,
      "time": 140.5,
      "duration": 0.5,
      "velocity": 0.26,
      "hand": "right"
    },
    {
      "midi": 46,
      "time": 141,
      "duration": 0.5,
      "velocity": 0.26,
      "hand": "left"
    },
    {
      "midi": 56,
      "time": 141.5,
      "duration": 0.5,
      "velocity": 0.26,
      "hand": "left"
    },
    {
      "midi": 62,
      "time": 141.5,
      "duration": 0.5,
      "velocity": 0.26,
      "hand": "right"
    },
    {
      "midi": 74,
      "time": 141.5,
      "duration": 0.25,
      "velocity": 0.71,
      "hand": "right"
    },
    {
      "midi": 75,
      "time": 141.75,
      "duration": 0.25,
      "velocity": 0.71,
      "hand": "right"
    },
    {
      "midi": 62,
      "time": 142,
      "duration": 0.5,
      "velocity": 0.26,
      "hand": "right"
    },
    {
      "midi": 68,
      "time": 142,
      "duration": 0.5,
      "velocity": 0.26,
      "hand": "right"
    },
    {
      "midi": 74,
      "time": 142,
      "duration": 0.25,
      "velocity": 0.71,
      "hand": "right"
    },
    {
      "midi": 75,
      "time": 142.25,
      "duration": 0.25,
      "velocity": 0.71,
      "hand": "right"
    },
    {
      "midi": 47,
      "time": 142.5,
      "duration": 0.5,
      "velocity": 0.26,
      "hand": "left"
    },
    {
      "midi": 77,
      "time": 142.5,
      "duration": 0.5,
      "velocity": 0.71,
      "hand": "right"
    },
    {
      "midi": 56,
      "time": 143,
      "duration": 0.5,
      "velocity": 0.26,
      "hand": "left"
    },
    {
      "midi": 63,
      "time": 143,
      "duration": 0.5,
      "velocity": 0.26,
      "hand": "right"
    },
    {
      "midi": 68,
      "time": 143,
      "duration": 0.5,
      "velocity": 0.26,
      "hand": "right"
    },
    {
      "midi": 77,
      "time": 143,
      "duration": 0.5,
      "velocity": 0.71,
      "hand": "right"
    },
    {
      "midi": 53,
      "time": 143.5,
      "duration": 0.5,
      "velocity": 0.26,
      "hand": "left"
    },
    {
      "midi": 56,
      "time": 143.5,
      "duration": 0.5,
      "velocity": 0.26,
      "hand": "left"
    },
    {
      "midi": 63,
      "time": 143.5,
      "duration": 0.5,
      "velocity": 0.26,
      "hand": "right"
    },
    {
      "midi": 77,
      "time": 143.5,
      "duration": 0.5,
      "velocity": 0.71,
      "hand": "right"
    },
    {
      "midi": 48,
      "time": 144,
      "duration": 0.5,
      "velocity": 0.26,
      "hand": "left"
    },
    {
      "midi": 77,
      "time": 144,
      "duration": 0.5,
      "velocity": 0.71,
      "hand": "right"
    },
    {
      "midi": 57,
      "time": 144.5,
      "duration": 0.5,
      "velocity": 0.26,
      "hand": "left"
    },
    {
      "midi": 63,
      "time": 144.5,
      "duration": 0.5,
      "velocity": 0.26,
      "hand": "right"
    },
    {
      "midi": 69,
      "time": 144.5,
      "duration": 0.5,
      "velocity": 0.26,
      "hand": "right"
    },
    {
      "midi": 78,
      "time": 144.5,
      "duration": 0.25,
      "velocity": 0.71,
      "hand": "right"
    },
    {
      "midi": 77,
      "time": 144.75,
      "duration": 0.25,
      "velocity": 0.71,
      "hand": "right"
    },
    {
      "midi": 53,
      "time": 145,
      "duration": 0.5,
      "velocity": 0.26,
      "hand": "left"
    },
    {
      "midi": 57,
      "time": 145,
      "duration": 0.5,
      "velocity": 0.26,
      "hand": "left"
    },
    {
      "midi": 63,
      "time": 145,
      "duration": 0.5,
      "velocity": 0.26,
      "hand": "right"
    },
    {
      "midi": 75,
      "time": 145,
      "duration": 0.25,
      "velocity": 0.71,
      "hand": "right"
    },
    {
      "midi": 69,
      "time": 145.25,
      "duration": 0.25,
      "velocity": 0.71,
      "hand": "right"
    },
    {
      "midi": 41,
      "time": 145.5,
      "duration": 0.5,
      "velocity": 0.26,
      "hand": "left"
    },
    {
      "midi": 84,
      "time": 145.5,
      "duration": 1.5,
      "velocity": 0.71,
      "hand": "right"
    },
    {
      "midi": 57,
      "time": 146,
      "duration": 0.5,
      "velocity": 0.26,
      "hand": "left"
    },
    {
      "midi": 63,
      "time": 146,
      "duration": 0.5,
      "velocity": 0.26,
      "hand": "right"
    },
    {
      "midi": 69,
      "time": 146,
      "duration": 0.5,
      "velocity": 0.26,
      "hand": "right"
    },
    {
      "midi": 53,
      "time": 146.5,
      "duration": 0.5,
      "velocity": 0.26,
      "hand": "left"
    },
    {
      "midi": 57,
      "time": 146.5,
      "duration": 0.5,
      "velocity": 0.26,
      "hand": "left"
    },
    {
      "midi": 63,
      "time": 146.5,
      "duration": 0.5,
      "velocity": 0.26,
      "hand": "right"
    },
    {
      "midi": 46,
      "time": 147,
      "duration": 0.5,
      "velocity": 0.26,
      "hand": "left"
    },
    {
      "midi": 82,
      "time": 147,
      "duration": 1.5,
      "velocity": 0.71,
      "hand": "right"
    },
    {
      "midi": 58,
      "time": 147.5,
      "duration": 0.5,
      "velocity": 0.26,
      "hand": "left"
    },
    {
      "midi": 62,
      "time": 147.5,
      "duration": 0.5,
      "velocity": 0.26,
      "hand": "right"
    },
    {
      "midi": 68,
      "time": 147.5,
      "duration": 0.5,
      "velocity": 0.26,
      "hand": "right"
    },
    {
      "midi": 53,
      "time": 148,
      "duration": 0.5,
      "velocity": 0.26,
      "hand": "left"
    },
    {
      "midi": 58,
      "time": 148,
      "duration": 0.5,
      "velocity": 0.26,
      "hand": "left"
    },
    {
      "midi": 62,
      "time": 148,
      "duration": 0.5,
      "velocity": 0.26,
      "hand": "right"
    },
    {
      "midi": 39,
      "time": 148.5,
      "duration": 0.5,
      "velocity": 0.26,
      "hand": "left"
    },
    {
      "midi": 73,
      "time": 148.5,
      "duration": 1.5,
      "velocity": 0.71,
      "hand": "right"
    },
    {
      "midi": 79,
      "time": 148.5,
      "duration": 1.5,
      "velocity": 0.71,
      "hand": "right"
    },
    {
      "midi": 58,
      "time": 149,
      "duration": 0.5,
      "velocity": 0.26,
      "hand": "left"
    },
    {
      "midi": 61,
      "time": 149,
      "duration": 0.5,
      "velocity": 0.26,
      "hand": "right"
    },
    {
      "midi": 67,
      "time": 149,
      "duration": 0.5,
      "velocity": 0.26,
      "hand": "right"
    },
    {
      "midi": 51,
      "time": 149.5,
      "duration": 0.5,
      "velocity": 0.26,
      "hand": "left"
    },
    {
      "midi": 58,
      "time": 149.5,
      "duration": 0.5,
      "velocity": 0.26,
      "hand": "left"
    },
    {
      "midi": 61,
      "time": 149.5,
      "duration": 0.5,
      "velocity": 0.26,
      "hand": "right"
    },
    {
      "midi": 44,
      "time": 150,
      "duration": 0.5,
      "velocity": 0.26,
      "hand": "left"
    },
    {
      "midi": 73,
      "time": 150,
      "duration": 0.5,
      "velocity": 0.71,
      "hand": "right"
    },
    {
      "midi": 82,
      "time": 150,
      "duration": 0.5,
      "velocity": 0.71,
      "hand": "right"
    },
    {
      "midi": 56,
      "time": 150.5,
      "duration": 0.5,
      "velocity": 0.26,
      "hand": "left"
    },
    {
      "midi": 63,
      "time": 150.5,
      "duration": 0.5,
      "velocity": 0.26,
      "hand": "right"
    },
    {
      "midi": 66,
      "time": 150.5,
      "duration": 0.5,
      "velocity": 0.26,
      "hand": "right"
    },
    {
      "midi": 72,
      "time": 150.5,
      "duration": 1,
      "velocity": 0.71,
      "hand": "right"
    },
    {
      "midi": 80,
      "time": 150.5,
      "duration": 0.25,
      "velocity": 0.71,
      "hand": "right"
    },
    {
      "midi": 75,
      "time": 150.75,
      "duration": 0.25,
      "velocity": 0.71,
      "hand": "right"
    },
    {
      "midi": 51,
      "time": 151,
      "duration": 0.5,
      "velocity": 0.26,
      "hand": "left"
    },
    {
      "midi": 56,
      "time": 151,
      "duration": 0.5,
      "velocity": 0.26,
      "hand": "left"
    },
    {
      "midi": 60,
      "time": 151,
      "duration": 0.5,
      "velocity": 0.26,
      "hand": "right"
    },
    {
      "midi": 80,
      "time": 151,
      "duration": 0.25,
      "velocity": 0.71,
      "hand": "right"
    },
    {
      "midi": 78,
      "time": 151.25,
      "duration": 0.25,
      "velocity": 0.71,
      "hand": "right"
    },
    {
      "midi": 37,
      "time": 151.5,
      "duration": 0.5,
      "velocity": 0.26,
      "hand": "left"
    },
    {
      "midi": 75,
      "time": 151.5,
      "duration": 0.5,
      "velocity": 0.71,
      "hand": "right"
    },
    {
      "midi": 78,
      "time": 151.5,
      "duration": 0.5,
      "velocity": 0.71,
      "hand": "right"
    },
    {
      "midi": 56,
      "time": 152,
      "duration": 0.5,
      "velocity": 0.26,
      "hand": "left"
    },
    {
      "midi": 61,
      "time": 152,
      "duration": 0.5,
      "velocity": 0.26,
      "hand": "right"
    },
    {
      "midi": 65,
      "time": 152,
      "duration": 0.5,
      "velocity": 0.26,
      "hand": "right"
    },
    {
      "midi": 73,
      "time": 152,
      "duration": 0.25,
      "velocity": 0.71,
      "hand": "right"
    },
    {
      "midi": 77,
      "time": 152,
      "duration": 1,
      "velocity": 0.71,
      "hand": "right"
    },
    {
      "midi": 68,
      "time": 152.25,
      "duration": 0.25,
      "velocity": 0.71,
      "hand": "right"
    },
    {
      "midi": 53,
      "time": 152.5,
      "duration": 0.5,
      "velocity": 0.26,
      "hand": "left"
    },
    {
      "midi": 56,
      "time": 152.5,
      "duration": 0.5,
      "velocity": 0.26,
      "hand": "left"
    },
    {
      "midi": 61,
      "time": 152.5,
      "duration": 0.5,
      "velocity": 0.26,
      "hand": "right"
    },
    {
      "midi": 73,
      "time": 152.5,
      "duration": 0.25,
      "velocity": 0.71,
      "hand": "right"
    },
    {
      "midi": 72,
      "time": 152.75,
      "duration": 0.25,
      "velocity": 0.71,
      "hand": "right"
    },
    {
      "midi": 42,
      "time": 153,
      "duration": 0.5,
      "velocity": 0.26,
      "hand": "left"
    },
    {
      "midi": 72,
      "time": 153,
      "duration": 0.5,
      "velocity": 0.71,
      "hand": "right"
    },
    {
      "midi": 80,
      "time": 153,
      "duration": 0.5,
      "velocity": 0.71,
      "hand": "right"
    },
    {
      "midi": 58,
      "time": 153.5,
      "duration": 0.5,
      "velocity": 0.26,
      "hand": "left"
    },
    {
      "midi": 61,
      "time": 153.5,
      "duration": 0.5,
      "velocity": 0.26,
      "hand": "right"
    },
    {
      "midi": 65,
      "time": 153.5,
      "duration": 0.5,
      "velocity": 0.26,
      "hand": "right"
    },
    {
      "midi": 70,
      "time": 153.5,
      "duration": 1,
      "velocity": 0.71,
      "hand": "right"
    },
    {
      "midi": 78,
      "time": 153.5,
      "duration": 0.25,
      "velocity": 0.71,
      "hand": "right"
    },
    {
      "midi": 73,
      "time": 153.75,
      "duration": 0.25,
      "velocity": 0.71,
      "hand": "right"
    },
    {
      "midi": 54,
      "time": 154,
      "duration": 0.5,
      "velocity": 0.26,
      "hand": "left"
    },
    {
      "midi": 58,
      "time": 154,
      "duration": 0.5,
      "velocity": 0.26,
      "hand": "left"
    },
    {
      "midi": 61,
      "time": 154,
      "duration": 0.5,
      "velocity": 0.26,
      "hand": "right"
    },
    {
      "midi": 78,
      "time": 154,
      "duration": 0.25,
      "velocity": 0.71,
      "hand": "right"
    },
    {
      "midi": 77,
      "time": 154.25,
      "duration": 0.25,
      "velocity": 0.71,
      "hand": "right"
    },
    {
      "midi": 36,
      "time": 154.5,
      "duration": 0.5,
      "velocity": 0.26,
      "hand": "left"
    },
    {
      "midi": 70,
      "time": 154.5,
      "duration": 0.5,
      "velocity": 0.71,
      "hand": "right"
    },
    {
      "midi": 77,
      "time": 154.5,
      "duration": 0.5,
      "velocity": 0.71,
      "hand": "right"
    },
    {
      "midi": 54,
      "time": 155,
      "duration": 0.5,
      "velocity": 0.26,
      "hand": "left"
    },
    {
      "midi": 63,
      "time": 155,
      "duration": 0.5,
      "velocity": 0.26,
      "hand": "right"
    },
    {
      "midi": 72,
      "time": 155,
      "duration": 0.25,
      "velocity": 0.71,
      "hand": "right"
    },
    {
      "midi": 75,
      "time": 155,
      "duration": 0.25,
      "velocity": 0.71,
      "hand": "right"
    },
    {
      "midi": 73,
      "time": 155.25,
      "duration": 0.25,
      "velocity": 0.71,
      "hand": "right"
    },
    {
      "midi": 77,
      "time": 155.25,
      "duration": 0.25,
      "velocity": 0.71,
      "hand": "right"
    },
    {
      "midi": 70,
      "time": 155.5,
      "duration": 0.25,
      "velocity": 0.71,
      "hand": "right"
    },
    {
      "midi": 80,
      "time": 155.5,
      "duration": 0.25,
      "velocity": 0.71,
      "hand": "right"
    },
    {
      "midi": 72,
      "time": 155.75,
      "duration": 0.25,
      "velocity": 0.71,
      "hand": "right"
    },
    {
      "midi": 78,
      "time": 155.75,
      "duration": 0.25,
      "velocity": 0.71,
      "hand": "right"
    },
    {
      "midi": 41,
      "time": 156,
      "duration": 0.5,
      "velocity": 0.26,
      "hand": "left"
    },
    {
      "midi": 63,
      "time": 156,
      "duration": 0.5,
      "velocity": 0.71,
      "hand": "right"
    },
    {
      "midi": 69,
      "time": 156,
      "duration": 0.5,
      "velocity": 0.71,
      "hand": "right"
    },
    {
      "midi": 63,
      "time": 156.5,
      "duration": 0.25,
      "velocity": 0.26,
      "hand": "right"
    },
    {
      "midi": 66,
      "time": 156.5,
      "duration": 1.5,
      "velocity": 0.71,
      "hand": "right"
    },
    {
      "midi": 69,
      "time": 156.5,
      "duration": 2,
      "velocity": 0.71,
      "hand": "right"
    },
    {
      "midi": 72,
      "time": 156.5,
      "duration": 0.25,
      "velocity": 0.71,
      "hand": "right"
    },
    {
      "midi": 53,
      "time": 156.75,
      "duration": 0.25,
      "velocity": 0.26,
      "hand": "left"
    },
    {
      "midi": 73,
      "time": 156.75,
      "duration": 0.25,
      "velocity": 0.71,
      "hand": "right"
    },
    {
      "midi": 63,
      "time": 157,
      "duration": 0.25,
      "velocity": 0.26,
      "hand": "right"
    },
    {
      "midi": 72,
      "time": 157,
      "duration": 0.25,
      "velocity": 0.71,
      "hand": "right"
    },
    {
      "midi": 61,
      "time": 157.25,
      "duration": 0.25,
      "velocity": 0.26,
      "hand": "right"
    },
    {
      "midi": 73,
      "time": 157.25,
      "duration": 0.25,
      "velocity": 0.71,
      "hand": "right"
    },
    {
      "midi": 60,
      "time": 157.5,
      "duration": 1,
      "velocity": 0.26,
      "hand": "right"
    },
    {
      "midi": 75,
      "time": 157.5,
      "duration": 1,
      "velocity": 0.71,
      "hand": "right"
    },
    {
      "midi": 65,
      "time": 158,
      "duration": 1,
      "velocity": 0.71,
      "hand": "right"
    },
    {
      "midi": 58,
      "time": 158.5,
      "duration": 0.5,
      "velocity": 0.26,
      "hand": "left"
    },
    {
      "midi": 70,
      "time": 158.5,
      "duration": 0.5,
      "velocity": 0.71,
      "hand": "right"
    },
    {
      "midi": 73,
      "time": 158.5,
      "duration": 0.5,
      "velocity": 0.71,
      "hand": "right"
    },
    {
      "midi": 58,
      "time": 159,
      "duration": 0.5,
      "velocity": 0.26,
      "hand": "left"
    },
    {
      "midi": 65,
      "time": 159,
      "duration": 0.5,
      "velocity": 0.71,
      "hand": "right"
    },
    {
      "midi": 70,
      "time": 159,
      "duration": 0.5,
      "velocity": 0.71,
      "hand": "right"
    },
    {
      "midi": 73,
      "time": 159,
      "duration": 0.5,
      "velocity": 0.71,
      "hand": "right"
    },
    {
      "midi": 64,
      "time": 159.5,
      "duration": 0.25,
      "velocity": 0.26,
      "hand": "right"
    },
    {
      "midi": 67,
      "time": 159.5,
      "duration": 1.5,
      "velocity": 0.71,
      "hand": "right"
    },
    {
      "midi": 70,
      "time": 159.5,
      "duration": 0.25,
      "velocity": 0.71,
      "hand": "right"
    },
    {
      "midi": 73,
      "time": 159.5,
      "duration": 0.25,
      "velocity": 0.71,
      "hand": "right"
    },
    {
      "midi": 53,
      "time": 159.75,
      "duration": 0.25,
      "velocity": 0.26,
      "hand": "left"
    },
    {
      "midi": 72,
      "time": 159.75,
      "duration": 0.25,
      "velocity": 0.71,
      "hand": "right"
    },
    {
      "midi": 75,
      "time": 159.75,
      "duration": 0.25,
      "velocity": 0.71,
      "hand": "right"
    },
    {
      "midi": 64,
      "time": 160,
      "duration": 0.25,
      "velocity": 0.26,
      "hand": "right"
    },
    {
      "midi": 70,
      "time": 160,
      "duration": 0.25,
      "velocity": 0.71,
      "hand": "right"
    },
    {
      "midi": 73,
      "time": 160,
      "duration": 0.25,
      "velocity": 0.71,
      "hand": "right"
    },
    {
      "midi": 63,
      "time": 160.25,
      "duration": 0.25,
      "velocity": 0.26,
      "hand": "right"
    },
    {
      "midi": 72,
      "time": 160.25,
      "duration": 0.25,
      "velocity": 0.71,
      "hand": "right"
    },
    {
      "midi": 75,
      "time": 160.25,
      "duration": 0.25,
      "velocity": 0.71,
      "hand": "right"
    },
    {
      "midi": 61,
      "time": 160.5,
      "duration": 1,
      "velocity": 0.26,
      "hand": "right"
    },
    {
      "midi": 70,
      "time": 160.5,
      "duration": 1,
      "velocity": 0.71,
      "hand": "right"
    },
    {
      "midi": 76,
      "time": 160.5,
      "duration": 1,
      "velocity": 0.71,
      "hand": "right"
    },
    {
      "midi": 66,
      "time": 161,
      "duration": 1,
      "velocity": 0.71,
      "hand": "right"
    },
    {
      "midi": 60,
      "time": 161.5,
      "duration": 0.5,
      "velocity": 0.26,
      "hand": "right"
    },
    {
      "midi": 70,
      "time": 161.5,
      "duration": 0.5,
      "velocity": 0.71,
      "hand": "right"
    },
    {
      "midi": 75,
      "time": 161.5,
      "duration": 0.5,
      "velocity": 0.71,
      "hand": "right"
    },
    {
      "midi": 60,
      "time": 162,
      "duration": 0.5,
      "velocity": 0.26,
      "hand": "right"
    },
    {
      "midi": 66,
      "time": 162,
      "duration": 0.5,
      "velocity": 0.71,
      "hand": "right"
    },
    {
      "midi": 70,
      "time": 162,
      "duration": 0.5,
      "velocity": 0.71,
      "hand": "right"
    },
    {
      "midi": 75,
      "time": 162,
      "duration": 0.5,
      "velocity": 0.71,
      "hand": "right"
    },
    {
      "midi": 75,
      "time": 162.5,
      "duration": 0.25,
      "velocity": 0.71,
      "hand": "right"
    },
    {
      "midi": 77,
      "time": 162.75,
      "duration": 0.25,
      "velocity": 0.71,
      "hand": "right"
    },
    {
      "midi": 75,
      "time": 163,
      "duration": 0.25,
      "velocity": 0.71,
      "hand": "right"
    },
    {
      "midi": 77,
      "time": 163.25,
      "duration": 0.25,
      "velocity": 0.71,
      "hand": "right"
    },
    {
      "midi": 78,
      "time": 163.5,
      "duration": 0.5,
      "velocity": 0.71,
      "hand": "right"
    },
    {
      "midi": 78,
      "time": 164,
      "duration": 0.5,
      "velocity": 0.71,
      "hand": "right"
    },
    {
      "midi": 78,
      "time": 164.5,
      "duration": 0.5,
      "velocity": 0.71,
      "hand": "right"
    },
    {
      "midi": 78,
      "time": 165,
      "duration": 2,
      "velocity": 0.71,
      "hand": "right"
    },
    {
      "midi": 41,
      "time": 166.5,
      "duration": 0.5,
      "velocity": 0.26,
      "hand": "left"
    },
    {
      "midi": 63,
      "time": 167,
      "duration": 0.5,
      "velocity": 0.26,
      "hand": "right"
    },
    {
      "midi": 69,
      "time": 167,
      "duration": 0.5,
      "velocity": 0.26,
      "hand": "right"
    },
    {
      "midi": 77,
      "time": 167,
      "duration": 0.25,
      "velocity": 0.71,
      "hand": "right"
    },
    {
      "midi": 72,
      "time": 167.25,
      "duration": 0.25,
      "velocity": 0.71,
      "hand": "right"
    },
    {
      "midi": 57,
      "time": 167.5,
      "duration": 0.5,
      "velocity": 0.26,
      "hand": "left"
    },
    {
      "midi": 63,
      "time": 167.5,
      "duration": 0.5,
      "velocity": 0.26,
      "hand": "right"
    },
    {
      "midi": 65,
      "time": 167.5,
      "duration": 0.5,
      "velocity": 0.26,
      "hand": "right"
    },
    {
      "midi": 75,
      "time": 167.5,
      "duration": 0.25,
      "velocity": 0.71,
      "hand": "right"
    },
    {
      "midi": 73,
      "time": 167.75,
      "duration": 0.25,
      "velocity": 0.71,
      "hand": "right"
    },
    {
      "midi": 46,
      "time": 168,
      "duration": 0.5,
      "velocity": 0.26,
      "hand": "left"
    },
    {
      "midi": 70,
      "time": 168,
      "duration": 1.5,
      "velocity": 0.71,
      "hand": "right"
    },
    {
      "midi": 58,
      "time": 168.5,
      "duration": 0.5,
      "velocity": 0.26,
      "hand": "left"
    },
    {
      "midi": 61,
      "time": 168.5,
      "duration": 0.5,
      "velocity": 0.26,
      "hand": "right"
    },
    {
      "midi": 65,
      "time": 168.5,
      "duration": 0.5,
      "velocity": 0.26,
      "hand": "right"
    },
    {
      "midi": 53,
      "time": 169,
      "duration": 0.5,
      "velocity": 0.26,
      "hand": "left"
    },
    {
      "midi": 58,
      "time": 169,
      "duration": 0.5,
      "velocity": 0.26,
      "hand": "left"
    },
    {
      "midi": 61,
      "time": 169,
      "duration": 0.5,
      "velocity": 0.26,
      "hand": "right"
    },
    {
      "midi": 48,
      "time": 169.5,
      "duration": 0.5,
      "velocity": 0.26,
      "hand": "left"
    },
    {
      "midi": 67,
      "time": 169.5,
      "duration": 0.5,
      "velocity": 0.71,
      "hand": "right"
    },
    {
      "midi": 58,
      "time": 170,
      "duration": 0.5,
      "velocity": 0.26,
      "hand": "left"
    },
    {
      "midi": 60,
      "time": 170,
      "duration": 0.5,
      "velocity": 0.26,
      "hand": "right"
    },
    {
      "midi": 64,
      "time": 170,
      "duration": 0.5,
      "velocity": 0.26,
      "hand": "right"
    },
    {
      "midi": 52,
      "time": 170.5,
      "duration": 0.5,
      "velocity": 0.26,
      "hand": "left"
    },
    {
      "midi": 58,
      "time": 170.5,
      "duration": 0.5,
      "velocity": 0.26,
      "hand": "left"
    },
    {
      "midi": 60,
      "time": 170.5,
      "duration": 0.5,
      "velocity": 0.26,
      "hand": "right"
    },
    {
      "midi": 41,
      "time": 171,
      "duration": 0.5,
      "velocity": 0.26,
      "hand": "left"
    },
    {
      "midi": 68,
      "time": 171.25,
      "duration": 0.25,
      "velocity": 0.71,
      "hand": "right"
    },
    {
      "midi": 53,
      "time": 171.5,
      "duration": 0.5,
      "velocity": 0.26,
      "hand": "left"
    },
    {
      "midi": 56,
      "time": 171.5,
      "duration": 0.5,
      "velocity": 0.26,
      "hand": "left"
    },
    {
      "midi": 60,
      "time": 171.5,
      "duration": 0.5,
      "velocity": 0.26,
      "hand": "right"
    },
    {
      "midi": 68,
      "time": 171.5,
      "duration": 0.25,
      "velocity": 0.71,
      "hand": "right"
    },
    {
      "midi": 72,
      "time": 171.5,
      "duration": 0.5,
      "velocity": 0.71,
      "hand": "right"
    },
    {
      "midi": 67,
      "time": 171.75,
      "duration": 0.25,
      "velocity": 0.71,
      "hand": "right"
    },
    {
      "midi": 56,
      "time": 172,
      "duration": 0.5,
      "velocity": 0.26,
      "hand": "left"
    },
    {
      "midi": 60,
      "time": 172,
      "duration": 0.5,
      "velocity": 0.26,
      "hand": "right"
    },
    {
      "midi": 67,
      "time": 172,
      "duration": 0.25,
      "velocity": 0.71,
      "hand": "right"
    },
    {
      "midi": 68,
      "time": 172,
      "duration": 0.5,
      "velocity": 0.26,
      "hand": "right"
    },
    {
      "midi": 72,
      "time": 172,
      "duration": 0.5,
      "velocity": 0.71,
      "hand": "right"
    },
    {
      "midi": 77,
      "time": 172,
      "duration": 0.5,
      "velocity": 0.71,
      "hand": "right"
    },
    {
      "midi": 65,
      "time": 172.25,
      "duration": 0.25,
      "velocity": 0.71,
      "hand": "right"
    },
    {
      "midi": 41,
      "time": 172.5,
      "duration": 0.5,
      "velocity": 0.26,
      "hand": "left"
    },
    {
      "midi": 49,
      "time": 172.5,
      "duration": 0.5,
      "velocity": 0.26,
      "hand": "left"
    },
    {
      "midi": 55,
      "time": 172.5,
      "duration": 0.5,
      "velocity": 0.26,
      "hand": "left"
    },
    {
      "midi": 70,
      "time": 172.5,
      "duration": 0.25,
      "velocity": 0.71,
      "hand": "right"
    },
    {
      "midi": 73,
      "time": 172.5,
      "duration": 0.25,
      "velocity": 0.71,
      "hand": "right"
    },
    {
      "midi": 76,
      "time": 172.5,
      "duration": 0.5,
      "velocity": 0.71,
      "hand": "right"
    },
    {
      "midi": 68,
      "time": 172.75,
      "duration": 0.25,
      "velocity": 0.71,
      "hand": "right"
    },
    {
      "midi": 53,
      "time": 173,
      "duration": 0.5,
      "velocity": 0.26,
      "hand": "left"
    },
    {
      "midi": 58,
      "time": 173,
      "duration": 0.5,
      "velocity": 0.26,
      "hand": "left"
    },
    {
      "midi": 61,
      "time": 173,
      "duration": 0.5,
      "velocity": 0.26,
      "hand": "right"
    },
    {
      "midi": 67,
      "time": 173,
      "duration": 0.25,
      "velocity": 0.71,
      "hand": "right"
    },
    {
      "midi": 70,
      "time": 173,
      "duration": 0.5,
      "velocity": 0.71,
      "hand": "right"
    },
    {
      "midi": 65,
      "time": 173.25,
      "duration": 0.25,
      "velocity": 0.71,
      "hand": "right"
    },
    {
      "midi": 58,
      "time": 173.5,
      "duration": 0.5,
      "velocity": 0.26,
      "hand": "left"
    },
    {
      "midi": 61,
      "time": 173.5,
      "duration": 0.5,
      "velocity": 0.26,
      "hand": "right"
    },
    {
      "midi": 64,
      "time": 173.5,
      "duration": 0.25,
      "velocity": 0.71,
      "hand": "right"
    },
    {
      "midi": 67,
      "time": 173.5,
      "duration": 0.5,
      "velocity": 0.26,
      "hand": "right"
    },
    {
      "midi": 73,
      "time": 173.5,
      "duration": 1,
      "velocity": 0.71,
      "hand": "right"
    },
    {
      "midi": 70,
      "time": 173.75,
      "duration": 0.25,
      "velocity": 0.71,
      "hand": "right"
    },
    {
      "midi": 41,
      "time": 174,
      "duration": 0.5,
      "velocity": 0.26,
      "hand": "left"
    },
    {
      "midi": 53,
      "time": 174,
      "duration": 0.5,
      "velocity": 0.26,
      "hand": "left"
    },
    {
      "midi": 70,
      "time": 174,
      "duration": 0.25,
      "velocity": 0.71,
      "hand": "right"
    },
    {
      "midi": 68,
      "time": 174.25,
      "duration": 0.25,
      "velocity": 0.71,
      "hand": "right"
    },
    {
      "midi": 53,
      "time": 174.5,
      "duration": 0.5,
      "velocity": 0.26,
      "hand": "left"
    },
    {
      "midi": 56,
      "time": 174.5,
      "duration": 0.5,
      "velocity": 0.26,
      "hand": "left"
    },
    {
      "midi": 60,
      "time": 174.5,
      "duration": 0.5,
      "velocity": 0.26,
      "hand": "right"
    },
    {
      "midi": 68,
      "time": 174.5,
      "duration": 0.25,
      "velocity": 0.71,
      "hand": "right"
    },
    {
      "midi": 72,
      "time": 174.5,
      "duration": 0.5,
      "velocity": 0.71,
      "hand": "right"
    },
    {
      "midi": 67,
      "time": 174.75,
      "duration": 0.25,
      "velocity": 0.71,
      "hand": "right"
    },
    {
      "midi": 56,
      "time": 175,
      "duration": 0.5,
      "velocity": 0.26,
      "hand": "left"
    },
    {
      "midi": 60,
      "time": 175,
      "duration": 0.5,
      "velocity": 0.26,
      "hand": "right"
    },
    {
      "midi": 67,
      "time": 175,
      "duration": 0.25,
      "velocity": 0.71,
      "hand": "right"
    },
    {
      "midi": 68,
      "time": 175,
      "duration": 0.5,
      "velocity": 0.26,
      "hand": "right"
    },
    {
      "midi": 72,
      "time": 175,
      "duration": 0.5,
      "velocity": 0.71,
      "hand": "right"
    },
    {
      "midi": 77,
      "time": 175,
      "duration": 0.5,
      "velocity": 0.71,
      "hand": "right"
    },
    {
      "midi": 65,
      "time": 175.25,
      "duration": 0.25,
      "velocity": 0.71,
      "hand": "right"
    },
    {
      "midi": 41,
      "time": 175.5,
      "duration": 0.5,
      "velocity": 0.26,
      "hand": "left"
    },
    {
      "midi": 48,
      "time": 175.5,
      "duration": 0.5,
      "velocity": 0.26,
      "hand": "left"
    },
    {
      "midi": 55,
      "time": 175.5,
      "duration": 0.5,
      "velocity": 0.26,
      "hand": "left"
    },
    {
      "midi": 70,
      "time": 175.5,
      "duration": 0.25,
      "velocity": 0.71,
      "hand": "right"
    },
    {
      "midi": 73,
      "time": 175.5,
      "duration": 0.25,
      "velocity": 0.71,
      "hand": "right"
    },
    {
      "midi": 76,
      "time": 175.5,
      "duration": 0.5,
      "velocity": 0.71,
      "hand": "right"
    },
    {
      "midi": 68,
      "time": 175.75,
      "duration": 0.25,
      "velocity": 0.71,
      "hand": "right"
    },
    {
      "midi": 72,
      "time": 175.75,
      "duration": 0.25,
      "velocity": 0.71,
      "hand": "right"
    },
    {
      "midi": 53,
      "time": 176,
      "duration": 0.5,
      "velocity": 0.26,
      "hand": "left"
    },
    {
      "midi": 58,
      "time": 176,
      "duration": 0.5,
      "velocity": 0.26,
      "hand": "left"
    },
    {
      "midi": 61,
      "time": 176,
      "duration": 0.5,
      "velocity": 0.26,
      "hand": "right"
    },
    {
      "midi": 67,
      "time": 176,
      "duration": 0.25,
      "velocity": 0.71,
      "hand": "right"
    },
    {
      "midi": 70,
      "time": 176,
      "duration": 0.5,
      "velocity": 0.71,
      "hand": "right"
    },
    {
      "midi": 65,
      "time": 176.25,
      "duration": 0.25,
      "velocity": 0.71,
      "hand": "right"
    },
    {
      "midi": 68,
      "time": 176.25,
      "duration": 0.25,
      "velocity": 0.71,
      "hand": "right"
    },
    {
      "midi": 58,
      "time": 176.5,
      "duration": 0.5,
      "velocity": 0.26,
      "hand": "left"
    },
    {
      "midi": 61,
      "time": 176.5,
      "duration": 0.5,
      "velocity": 0.26,
      "hand": "right"
    },
    {
      "midi": 64,
      "time": 176.5,
      "duration": 0.25,
      "velocity": 0.71,
      "hand": "right"
    },
    {
      "midi": 67,
      "time": 176.5,
      "duration": 0.25,
      "velocity": 0.71,
      "hand": "right"
    },
    {
      "midi": 67,
      "time": 176.5,
      "duration": 0.5,
      "velocity": 0.26,
      "hand": "right"
    },
    {
      "midi": 73,
      "time": 176.5,
      "duration": 0.5,
      "velocity": 0.71,
      "hand": "right"
    },
    {
      "midi": 65,
      "time": 176.75,
      "duration": 0.25,
      "velocity": 0.71,
      "hand": "right"
    },
    {
      "midi": 70,
      "time": 176.75,
      "duration": 0.25,
      "velocity": 0.71,
      "hand": "right"
    },
    {
      "midi": 41,
      "time": 177,
      "duration": 0.5,
      "velocity": 0.71,
      "hand": "left"
    },
    {
      "midi": 48,
      "time": 177,
      "duration": 0.5,
      "velocity": 0.71,
      "hand": "left"
    },
    {
      "midi": 60,
      "time": 177,
      "duration": 0.5,
      "velocity": 0.71,
      "hand": "right"
    },
    {
      "midi": 67,
      "time": 177,
      "duration": 0.25,
      "velocity": 0.71,
      "hand": "right"
    },
    {
      "midi": 70,
      "time": 177,
      "duration": 0.25,
      "velocity": 0.71,
      "hand": "right"
    },
    {
      "midi": 72,
      "time": 177,
      "duration": 0.5,
      "velocity": 0.71,
      "hand": "right"
    },
    {
      "midi": 65,
      "time": 177.25,
      "duration": 0.25,
      "velocity": 0.71,
      "hand": "right"
    },
    {
      "midi": 68,
      "time": 177.25,
      "duration": 0.25,
      "velocity": 0.71,
      "hand": "right"
    },
    {
      "midi": 48,
      "time": 177.5,
      "duration": 0.5,
      "velocity": 0.71,
      "hand": "left"
    },
    {
      "midi": 53,
      "time": 177.5,
      "duration": 0.5,
      "velocity": 0.71,
      "hand": "left"
    },
    {
      "midi": 56,
      "time": 177.5,
      "duration": 0.5,
      "velocity": 0.71,
      "hand": "left"
    },
    {
      "midi": 60,
      "time": 177.5,
      "duration": 0.5,
      "velocity": 0.71,
      "hand": "right"
    },
    {
      "midi": 65,
      "time": 177.5,
      "duration": 0.5,
      "velocity": 0.71,
      "hand": "right"
    },
    {
      "midi": 68,
      "time": 177.5,
      "duration": 0.25,
      "velocity": 0.71,
      "hand": "right"
    },
    {
      "midi": 72,
      "time": 177.5,
      "duration": 0.25,
      "velocity": 0.71,
      "hand": "right"
    },
    {
      "midi": 70,
      "time": 177.75,
      "duration": 0.25,
      "velocity": 0.71,
      "hand": "right"
    },
    {
      "midi": 73,
      "time": 177.75,
      "duration": 0.25,
      "velocity": 0.71,
      "hand": "right"
    },
    {
      "midi": 40,
      "time": 178,
      "duration": 0.5,
      "velocity": 0.71,
      "hand": "left"
    },
    {
      "midi": 52,
      "time": 178,
      "duration": 0.5,
      "velocity": 0.71,
      "hand": "left"
    },
    {
      "midi": 64,
      "time": 178,
      "duration": 0.5,
      "velocity": 0.71,
      "hand": "right"
    },
    {
      "midi": 68,
      "time": 178,
      "duration": 0.25,
      "velocity": 0.71,
      "hand": "right"
    },
    {
      "midi": 72,
      "time": 178,
      "duration": 0.25,
      "velocity": 0.71,
      "hand": "right"
    },
    {
      "midi": 70,
      "time": 178.25,
      "duration": 0.25,
      "velocity": 0.71,
      "hand": "right"
    },
    {
      "midi": 73,
      "time": 178.25,
      "duration": 0.25,
      "velocity": 0.71,
      "hand": "right"
    },
    {
      "midi": 39,
      "time": 178.5,
      "duration": 0.5,
      "velocity": 0.71,
      "hand": "left"
    },
    {
      "midi": 51,
      "time": 178.5,
      "duration": 0.5,
      "velocity": 0.71,
      "hand": "left"
    },
    {
      "midi": 63,
      "time": 178.5,
      "duration": 0.5,
      "velocity": 0.71,
      "hand": "right"
    },
    {
      "midi": 68,
      "time": 178.5,
      "duration": 0.25,
      "velocity": 0.71,
      "hand": "right"
    },
    {
      "midi": 72,
      "time": 178.5,
      "duration": 0.25,
      "velocity": 0.71,
      "hand": "right"
    },
    {
      "midi": 75,
      "time": 178.5,
      "duration": 0.5,
      "velocity": 0.71,
      "hand": "right"
    },
    {
      "midi": 61,
      "time": 178.75,
      "duration": 0.25,
      "velocity": 0.71,
      "hand": "right"
    },
    {
      "midi": 70,
      "time": 178.75,
      "duration": 0.25,
      "velocity": 0.71,
      "hand": "right"
    },
    {
      "midi": 51,
      "time": 179,
      "duration": 0.5,
      "velocity": 0.71,
      "hand": "left"
    },
    {
      "midi": 61,
      "time": 179,
      "duration": 0.25,
      "velocity": 0.71,
      "hand": "right"
    },
    {
      "midi": 63,
      "time": 179,
      "duration": 0.5,
      "velocity": 0.71,
      "hand": "right"
    },
    {
      "midi": 70,
      "time": 179,
      "duration": 0.25,
      "velocity": 0.71,
      "hand": "right"
    },
    {
      "midi": 75,
      "time": 179,
      "duration": 0.5,
      "velocity": 0.71,
      "hand": "right"
    },
    {
      "midi": 60,
      "time": 179.25,
      "duration": 0.25,
      "velocity": 0.71,
      "hand": "right"
    },
    {
      "midi": 68,
      "time": 179.25,
      "duration": 0.25,
      "velocity": 0.71,
      "hand": "right"
    },
    {
      "midi": 51,
      "time": 179.5,
      "duration": 0.5,
      "velocity": 0.71,
      "hand": "left"
    },
    {
      "midi": 60,
      "time": 179.5,
      "duration": 0.25,
      "velocity": 0.71,
      "hand": "right"
    },
    {
      "midi": 63,
      "time": 179.5,
      "duration": 0.5,
      "velocity": 0.71,
      "hand": "right"
    },
    {
      "midi": 68,
      "time": 179.5,
      "duration": 0.25,
      "velocity": 0.71,
      "hand": "right"
    },
    {
      "midi": 75,
      "time": 179.5,
      "duration": 0.5,
      "velocity": 0.71,
      "hand": "right"
    },
    {
      "midi": 58,
      "time": 179.75,
      "duration": 0.25,
      "velocity": 0.71,
      "hand": "left"
    },
    {
      "midi": 67,
      "time": 179.75,
      "duration": 0.25,
      "velocity": 0.71,
      "hand": "right"
    },
    {
      "midi": 39,
      "time": 180,
      "duration": 0.5,
      "velocity": 0.71,
      "hand": "left"
    },
    {
      "midi": 61,
      "time": 180,
      "duration": 0.5,
      "velocity": 0.71,
      "hand": "right"
    },
    {
      "midi": 67,
      "time": 180,
      "duration": 0.25,
      "velocity": 0.71,
      "hand": "right"
    },
    {
      "midi": 75,
      "time": 180,
      "duration": 0.5,
      "velocity": 0.71,
      "hand": "right"
    },
    {
      "midi": 51,
      "time": 180.25,
      "duration": 0.25,
      "velocity": 0.71,
      "hand": "left"
    },
    {
      "midi": 65,
      "time": 180.25,
      "duration": 0.25,
      "velocity": 0.71,
      "hand": "right"
    },
    {
      "midi": 58,
      "time": 180.5,
      "duration": 0.25,
      "velocity": 0.71,
      "hand": "left"
    },
    {
      "midi": 65,
      "time": 180.5,
      "duration": 0.25,
      "velocity": 0.71,
      "hand": "right"
    },
    {
      "midi": 73,
      "time": 180.5,
      "duration": 0.25,
      "velocity": 0.71,
      "hand": "right"
    },
    {
      "midi": 63,
      "time": 180.75,
      "duration": 0.25,
      "velocity": 0.71,
      "hand": "right"
    },
    {
      "midi": 67,
      "time": 180.75,
      "duration": 0.25,
      "velocity": 0.71,
      "hand": "right"
    },
    {
      "midi": 72,
      "time": 180.75,
      "duration": 0.25,
      "velocity": 0.71,
      "hand": "right"
    },
    {
      "midi": 61,
      "time": 181,
      "duration": 0.25,
      "velocity": 0.71,
      "hand": "right"
    },
    {
      "midi": 65,
      "time": 181,
      "duration": 0.25,
      "velocity": 0.71,
      "hand": "right"
    },
    {
      "midi": 70,
      "time": 181,
      "duration": 0.25,
      "velocity": 0.71,
      "hand": "right"
    },
    {
      "midi": 63,
      "time": 181.25,
      "duration": 0.25,
      "velocity": 0.71,
      "hand": "right"
    },
    {
      "midi": 67,
      "time": 181.25,
      "duration": 0.25,
      "velocity": 0.71,
      "hand": "right"
    },
    {
      "midi": 72,
      "time": 181.25,
      "duration": 0.25,
      "velocity": 0.71,
      "hand": "right"
    },
    {
      "midi": 56,
      "time": 181.5,
      "duration": 0.75,
      "velocity": 0.71,
      "hand": "left"
    },
    {
      "midi": 61,
      "time": 181.5,
      "duration": 0.25,
      "velocity": 0.71,
      "hand": "right"
    },
    {
      "midi": 65,
      "time": 181.5,
      "duration": 0.25,
      "velocity": 0.71,
      "hand": "right"
    },
    {
      "midi": 68,
      "time": 181.5,
      "duration": 0.5,
      "velocity": 0.71,
      "hand": "right"
    },
    {
      "midi": 60,
      "time": 181.75,
      "duration": 0.25,
      "velocity": 0.71,
      "hand": "right"
    },
    {
      "midi": 63,
      "time": 181.75,
      "duration": 0.25,
      "velocity": 0.71,
      "hand": "right"
    },
    {
      "midi": 60,
      "time": 182,
      "duration": 0.25,
      "velocity": 0.71,
      "hand": "right"
    },
    {
      "midi": 63,
      "time": 182,
      "duration": 0.25,
      "velocity": 0.71,
      "hand": "right"
    },
    {
      "midi": 53,
      "time": 182.25,
      "duration": 0.25,
      "velocity": 0.71,
      "hand": "left"
    },
    {
      "midi": 59,
      "time": 182.25,
      "duration": 0.25,
      "velocity": 0.71,
      "hand": "left"
    },
    {
      "midi": 62,
      "time": 182.25,
      "duration": 0.25,
      "velocity": 0.71,
      "hand": "right"
    },
    {
      "midi": 53,
      "time": 182.5,
      "duration": 0.25,
      "velocity": 0.71,
      "hand": "left"
    },
    {
      "midi": 59,
      "time": 182.5,
      "duration": 0.25,
      "velocity": 0.71,
      "hand": "left"
    },
    {
      "midi": 62,
      "time": 182.5,
      "duration": 0.25,
      "velocity": 0.71,
      "hand": "right"
    },
    {
      "midi": 52,
      "time": 182.75,
      "duration": 0.25,
      "velocity": 0.71,
      "hand": "left"
    },
    {
      "midi": 56,
      "time": 182.75,
      "duration": 0.25,
      "velocity": 0.71,
      "hand": "left"
    },
    {
      "midi": 61,
      "time": 182.75,
      "duration": 0.25,
      "velocity": 0.71,
      "hand": "right"
    },
    {
      "midi": 52,
      "time": 183,
      "duration": 0.25,
      "velocity": 0.71,
      "hand": "left"
    },
    {
      "midi": 56,
      "time": 183,
      "duration": 0.75,
      "velocity": 0.71,
      "hand": "left"
    },
    {
      "midi": 61,
      "time": 183,
      "duration": 0.25,
      "velocity": 0.71,
      "hand": "right"
    },
    {
      "midi": 51,
      "time": 183.25,
      "duration": 0.25,
      "velocity": 0.71,
      "hand": "left"
    },
    {
      "midi": 60,
      "time": 183.25,
      "duration": 0.25,
      "velocity": 0.71,
      "hand": "right"
    },
    {
      "midi": 51,
      "time": 183.5,
      "duration": 0.25,
      "velocity": 0.71,
      "hand": "left"
    },
    {
      "midi": 60,
      "time": 183.5,
      "duration": 0.25,
      "velocity": 0.71,
      "hand": "right"
    },
    {
      "midi": 37,
      "time": 183.75,
      "duration": 0.25,
      "velocity": 0.71,
      "hand": "left"
    },
    {
      "midi": 49,
      "time": 183.75,
      "duration": 0.25,
      "velocity": 0.71,
      "hand": "left"
    },
    {
      "midi": 65,
      "time": 183.75,
      "duration": 0.25,
      "velocity": 0.71,
      "hand": "right"
    },
    {
      "midi": 36,
      "time": 184,
      "duration": 0.25,
      "velocity": 0.71,
      "hand": "left"
    },
    {
      "midi": 48,
      "time": 184,
      "duration": 0.25,
      "velocity": 0.71,
      "hand": "left"
    },
    {
      "midi": 63,
      "time": 184,
      "duration": 0.25,
      "velocity": 0.71,
      "hand": "right"
    },
    {
      "midi": 34,
      "time": 184.25,
      "duration": 0.25,
      "velocity": 0.71,
      "hand": "left"
    },
    {
      "midi": 46,
      "time": 184.25,
      "duration": 0.25,
      "velocity": 0.71,
      "hand": "left"
    },
    {
      "midi": 61,
      "time": 184.25,
      "duration": 0.25,
      "velocity": 0.71,
      "hand": "right"
    },
    {
      "midi": 67,
      "time": 184.25,
      "duration": 0.25,
      "velocity": 0.71,
      "hand": "right"
    },
    {
      "midi": 70,
      "time": 184.25,
      "duration": 0.25,
      "velocity": 0.71,
      "hand": "right"
    },
    {
      "midi": 32,
      "time": 184.5,
      "duration": 0.5,
      "velocity": 0.71,
      "hand": "left"
    },
    {
      "midi": 44,
      "time": 184.5,
      "duration": 0.5,
      "velocity": 0.71,
      "hand": "left"
    },
    {
      "midi": 60,
      "time": 184.5,
      "duration": 0.5,
      "velocity": 0.71,
      "hand": "right"
    },
    {
      "midi": 70,
      "time": 184.5,
      "duration": 0.25,
      "velocity": 0.71,
      "hand": "right"
    },
    {
      "midi": 72,
      "time": 184.5,
      "duration": 0.5,
      "velocity": 0.71,
      "hand": "right"
    },
    {
      "midi": 63,
      "time": 184.75,
      "duration": 0.25,
      "velocity": 0.71,
      "hand": "right"
    },
    {
      "midi": 51,
      "time": 185,
      "duration": 0.5,
      "velocity": 0.71,
      "hand": "left"
    },
    {
      "midi": 56,
      "time": 185,
      "duration": 0.5,
      "velocity": 0.71,
      "hand": "left"
    },
    {
      "midi": 60,
      "time": 185,
      "duration": 0.5,
      "velocity": 0.71,
      "hand": "right"
    },
    {
      "midi": 63,
      "time": 185,
      "duration": 0.25,
      "velocity": 0.71,
      "hand": "right"
    },
    {
      "midi": 72,
      "time": 185,
      "duration": 0.5,
      "velocity": 0.71,
      "hand": "right"
    },
    {
      "midi": 75,
      "time": 185,
      "duration": 0.5,
      "velocity": 0.71,
      "hand": "right"
    },
    {
      "midi": 70,
      "time": 185.25,
      "duration": 0.25,
      "velocity": 0.71,
      "hand": "right"
    },
    {
      "midi": 51,
      "time": 185.5,
      "duration": 0.5,
      "velocity": 0.71,
      "hand": "left"
    },
    {
      "midi": 56,
      "time": 185.5,
      "duration": 0.5,
      "velocity": 0.71,
      "hand": "left"
    },
    {
      "midi": 60,
      "time": 185.5,
      "duration": 0.5,
      "velocity": 0.71,
      "hand": "right"
    },
    {
      "midi": 63,
      "time": 185.5,
      "duration": 0.5,
      "velocity": 0.71,
      "hand": "right"
    },
    {
      "midi": 70,
      "time": 185.5,
      "duration": 0.25,
      "velocity": 0.71,
      "hand": "right"
    },
    {
      "midi": 72,
      "time": 185.5,
      "duration": 0.5,
      "velocity": 0.71,
      "hand": "right"
    },
    {
      "midi": 75,
      "time": 185.5,
      "duration": 0.5,
      "velocity": 0.71,
      "hand": "right"
    },
    {
      "midi": 80,
      "time": 185.5,
      "duration": 0.5,
      "velocity": 0.71,
      "hand": "right"
    },
    {
      "midi": 68,
      "time": 185.75,
      "duration": 0.25,
      "velocity": 0.71,
      "hand": "right"
    },
    {
      "midi": 44,
      "time": 186,
      "duration": 0.5,
      "velocity": 0.26,
      "hand": "left"
    },
    {
      "midi": 52,
      "time": 186,
      "duration": 0.5,
      "velocity": 0.26,
      "hand": "left"
    },
    {
      "midi": 58,
      "time": 186,
      "duration": 0.5,
      "velocity": 0.26,
      "hand": "left"
    },
    {
      "midi": 73,
      "time": 186,
      "duration": 0.25,
      "velocity": 0.71,
      "hand": "right"
    },
    {
      "midi": 76,
      "time": 186,
      "duration": 0.25,
      "velocity": 0.71,
      "hand": "right"
    },
    {
      "midi": 79,
      "time": 186,
      "duration": 0.5,
      "velocity": 0.71,
      "hand": "right"
    },
    {
      "midi": 72,
      "time": 186.25,
      "duration": 0.25,
      "velocity": 0.71,
      "hand": "right"
    },
    {
      "midi": 75,
      "time": 186.25,
      "duration": 0.25,
      "velocity": 0.71,
      "hand": "right"
    },
    {
      "midi": 52,
      "time": 186.5,
      "duration": 0.5,
      "velocity": 0.26,
      "hand": "left"
    },
    {
      "midi": 55,
      "time": 186.5,
      "duration": 0.5,
      "velocity": 0.26,
      "hand": "left"
    },
    {
      "midi": 58,
      "time": 186.5,
      "duration": 0.5,
      "velocity": 0.26,
      "hand": "left"
    },
    {
      "midi": 61,
      "time": 186.5,
      "duration": 0.5,
      "velocity": 0.26,
      "hand": "right"
    },
    {
      "midi": 70,
      "time": 186.5,
      "duration": 0.25,
      "velocity": 0.71,
      "hand": "right"
    },
    {
      "midi": 73,
      "time": 186.5,
      "duration": 0.5,
      "velocity": 0.71,
      "hand": "right"
    },
    {
      "midi": 68,
      "time": 186.75,
      "duration": 0.25,
      "velocity": 0.71,
      "hand": "right"
    },
    {
      "midi": 72,
      "time": 186.75,
      "duration": 0.25,
      "velocity": 0.71,
      "hand": "right"
    },
    {
      "midi": 55,
      "time": 187,
      "duration": 0.5,
      "velocity": 0.26,
      "hand": "left"
    },
    {
      "midi": 58,
      "time": 187,
      "duration": 0.5,
      "velocity": 0.26,
      "hand": "left"
    },
    {
      "midi": 61,
      "time": 187,
      "duration": 0.5,
      "velocity": 0.26,
      "hand": "right"
    },
    {
      "midi": 64,
      "time": 187,
      "duration": 0.5,
      "velocity": 0.26,
      "hand": "right"
    },
    {
      "midi": 67,
      "time": 187,
      "duration": 0.25,
      "velocity": 0.71,
      "hand": "right"
    },
    {
      "midi": 70,
      "time": 187,
      "duration": 0.25,
      "velocity": 0.71,
      "hand": "right"
    },
    {
      "midi": 76,
      "time": 187,
      "duration": 1,
      "velocity": 0.71,
      "hand": "right"
    },
    {
      "midi": 70,
      "time": 187.25,
      "duration": 0.25,
      "velocity": 0.71,
      "hand": "right"
    },
    {
      "midi": 73,
      "time": 187.25,
      "duration": 0.25,
      "velocity": 0.71,
      "hand": "right"
    },
    {
      "midi": 32,
      "time": 187.5,
      "duration": 0.5,
      "velocity": 0.26,
      "hand": "left"
    },
    {
      "midi": 44,
      "time": 187.5,
      "duration": 0.5,
      "velocity": 0.26,
      "hand": "left"
    },
    {
      "midi": 63,
      "time": 187.5,
      "duration": 0.5,
      "velocity": 0.71,
      "hand": "right"
    },
    {
      "midi": 73,
      "time": 187.5,
      "duration": 0.25,
      "velocity": 0.71,
      "hand": "right"
    },
    {
      "midi": 72,
      "time": 187.75,
      "duration": 0.25,
      "velocity": 0.71,
      "hand": "right"
    },
    {
      "midi": 51,
      "time": 188,
      "duration": 0.5,
      "velocity": 0.26,
      "hand": "left"
    },
    {
      "midi": 56,
      "time": 188,
      "duration": 0.5,
      "velocity": 0.26,
      "hand": "left"
    },
    {
      "midi": 60,
      "time": 188,
      "duration": 0.5,
      "velocity": 0.26,
      "hand": "right"
    },
    {
      "midi": 72,
      "time": 188,
      "duration": 0.25,
      "velocity": 0.71,
      "hand": "right"
    },
    {
      "midi": 75,
      "time": 188,
      "duration": 0.5,
      "velocity": 0.71,
      "hand": "right"
    },
    {
      "midi": 70,
      "time": 188.25,
      "duration": 0.25,
      "velocity": 0.71,
      "hand": "right"
    },
    {
      "midi": 73,
      "time": 188.25,
      "duration": 0.25,
      "velocity": 0.71,
      "hand": "right"
    },
    {
      "midi": 51,
      "time": 188.5,
      "duration": 0.5,
      "velocity": 0.26,
      "hand": "left"
    },
    {
      "midi": 56,
      "time": 188.5,
      "duration": 0.5,
      "velocity": 0.26,
      "hand": "left"
    },
    {
      "midi": 60,
      "time": 188.5,
      "duration": 0.5,
      "velocity": 0.26,
      "hand": "right"
    },
    {
      "midi": 63,
      "time": 188.5,
      "duration": 0.5,
      "velocity": 0.26,
      "hand": "right"
    },
    {
      "midi": 70,
      "time": 188.5,
      "duration": 0.25,
      "velocity": 0.71,
      "hand": "right"
    },
    {
      "midi": 73,
      "time": 188.5,
      "duration": 0.25,
      "velocity": 0.71,
      "hand": "right"
    },
    {
      "midi": 75,
      "time": 188.5,
      "duration": 0.5,
      "velocity": 0.71,
      "hand": "right"
    },
    {
      "midi": 80,
      "time": 188.5,
      "duration": 0.5,
      "velocity": 0.71,
      "hand": "right"
    },
    {
      "midi": 68,
      "time": 188.75,
      "duration": 0.25,
      "velocity": 0.71,
      "hand": "right"
    },
    {
      "midi": 72,
      "time": 188.75,
      "duration": 0.25,
      "velocity": 0.71,
      "hand": "right"
    },
    {
      "midi": 44,
      "time": 189,
      "duration": 0.5,
      "velocity": 0.26,
      "hand": "left"
    },
    {
      "midi": 52,
      "time": 189,
      "duration": 0.5,
      "velocity": 0.26,
      "hand": "left"
    },
    {
      "midi": 58,
      "time": 189,
      "duration": 0.5,
      "velocity": 0.26,
      "hand": "left"
    },
    {
      "midi": 73,
      "time": 189,
      "duration": 0.25,
      "velocity": 0.71,
      "hand": "right"
    },
    {
      "midi": 76,
      "time": 189,
      "duration": 0.25,
      "velocity": 0.71,
      "hand": "right"
    },
    {
      "midi": 79,
      "time": 189,
      "duration": 0.5,
      "velocity": 0.71,
      "hand": "right"
    },
    {
      "midi": 72,
      "time": 189.25,
      "duration": 0.25,
      "velocity": 0.71,
      "hand": "right"
    },
    {
      "midi": 75,
      "time": 189.25,
      "duration": 0.25,
      "velocity": 0.71,
      "hand": "right"
    },
    {
      "midi": 52,
      "time": 189.5,
      "duration": 0.5,
      "velocity": 0.26,
      "hand": "left"
    },
    {
      "midi": 55,
      "time": 189.5,
      "duration": 0.5,
      "velocity": 0.26,
      "hand": "left"
    },
    {
      "midi": 58,
      "time": 189.5,
      "duration": 0.5,
      "velocity": 0.26,
      "hand": "left"
    },
    {
      "midi": 61,
      "time": 189.5,
      "duration": 0.5,
      "velocity": 0.26,
      "hand": "right"
    },
    {
      "midi": 70,
      "time": 189.5,
      "duration": 0.25,
      "velocity": 0.71,
      "hand": "right"
    },
    {
      "midi": 73,
      "time": 189.5,
      "duration": 0.5,
      "velocity": 0.71,
      "hand": "right"
    },
    {
      "midi": 68,
      "time": 189.75,
      "duration": 0.25,
      "velocity": 0.71,
      "hand": "right"
    },
    {
      "midi": 72,
      "time": 189.75,
      "duration": 0.25,
      "velocity": 0.71,
      "hand": "right"
    },
    {
      "midi": 55,
      "time": 190,
      "duration": 0.5,
      "velocity": 0.26,
      "hand": "left"
    },
    {
      "midi": 58,
      "time": 190,
      "duration": 0.5,
      "velocity": 0.26,
      "hand": "left"
    },
    {
      "midi": 61,
      "time": 190,
      "duration": 0.5,
      "velocity": 0.26,
      "hand": "right"
    },
    {
      "midi": 64,
      "time": 190,
      "duration": 0.5,
      "velocity": 0.26,
      "hand": "right"
    },
    {
      "midi": 67,
      "time": 190,
      "duration": 0.25,
      "velocity": 0.71,
      "hand": "right"
    },
    {
      "midi": 70,
      "time": 190,
      "duration": 0.25,
      "velocity": 0.71,
      "hand": "right"
    },
    {
      "midi": 76,
      "time": 190,
      "duration": 0.5,
      "velocity": 0.71,
      "hand": "right"
    },
    {
      "midi": 70,
      "time": 190.25,
      "duration": 0.25,
      "velocity": 0.71,
      "hand": "right"
    },
    {
      "midi": 73,
      "time": 190.25,
      "duration": 0.25,
      "velocity": 0.71,
      "hand": "right"
    },
    {
      "midi": 32,
      "time": 190.5,
      "duration": 0.5,
      "velocity": 0.26,
      "hand": "left"
    },
    {
      "midi": 44,
      "time": 190.5,
      "duration": 0.5,
      "velocity": 0.26,
      "hand": "left"
    },
    {
      "midi": 63,
      "time": 190.5,
      "duration": 0.5,
      "velocity": 0.71,
      "hand": "right"
    },
    {
      "midi": 68,
      "time": 190.5,
      "duration": 0.25,
      "velocity": 0.71,
      "hand": "right"
    },
    {
      "midi": 72,
      "time": 190.5,
      "duration": 0.25,
      "velocity": 0.71,
      "hand": "right"
    },
    {
      "midi": 70,
      "time": 190.75,
      "duration": 0.25,
      "velocity": 0.71,
      "hand": "right"
    },
    {
      "midi": 73,
      "time": 190.75,
      "duration": 0.25,
      "velocity": 0.71,
      "hand": "right"
    },
    {
      "midi": 51,
      "time": 191,
      "duration": 0.5,
      "velocity": 0.26,
      "hand": "left"
    },
    {
      "midi": 56,
      "time": 191,
      "duration": 0.5,
      "velocity": 0.26,
      "hand": "left"
    },
    {
      "midi": 60,
      "time": 191,
      "duration": 0.5,
      "velocity": 0.26,
      "hand": "right"
    },
    {
      "midi": 63,
      "time": 191,
      "duration": 0.5,
      "velocity": 0.26,
      "hand": "right"
    },
    {
      "midi": 72,
      "time": 191,
      "duration": 0.25,
      "velocity": 0.71,
      "hand": "right"
    },
    {
      "midi": 75,
      "time": 191,
      "duration": 0.25,
      "velocity": 0.71,
      "hand": "right"
    },
    {
      "midi": 73,
      "time": 191.25,
      "duration": 0.25,
      "velocity": 0.71,
      "hand": "right"
    },
    {
      "midi": 77,
      "time": 191.25,
      "duration": 0.25,
      "velocity": 0.71,
      "hand": "right"
    },
    {
      "midi": 56,
      "time": 191.5,
      "duration": 0.5,
      "velocity": 0.26,
      "hand": "left"
    },
    {
      "midi": 60,
      "time": 191.5,
      "duration": 0.5,
      "velocity": 0.26,
      "hand": "right"
    },
    {
      "midi": 68,
      "time": 191.5,
      "duration": 0.5,
      "velocity": 0.26,
      "hand": "right"
    },
    {
      "midi": 72,
      "time": 191.5,
      "duration": 0.25,
      "velocity": 0.71,
      "hand": "right"
    },
    {
      "midi": 75,
      "time": 191.5,
      "duration": 0.25,
      "velocity": 0.71,
      "hand": "right"
    },
    {
      "midi": 73,
      "time": 191.75,
      "duration": 0.25,
      "velocity": 0.71,
      "hand": "right"
    },
    {
      "midi": 77,
      "time": 191.75,
      "duration": 0.25,
      "velocity": 0.71,
      "hand": "right"
    },
    {
      "midi": 39,
      "time": 192,
      "duration": 0.5,
      "velocity": 0.26,
      "hand": "left"
    },
    {
      "midi": 46,
      "time": 192,
      "duration": 0.5,
      "velocity": 0.26,
      "hand": "left"
    },
    {
      "midi": 51,
      "time": 192,
      "duration": 0.5,
      "velocity": 0.26,
      "hand": "left"
    },
    {
      "midi": 66,
      "time": 192,
      "duration": 0.5,
      "velocity": 0.71,
      "hand": "right"
    },
    {
      "midi": 75,
      "time": 192,
      "duration": 0.25,
      "velocity": 0.71,
      "hand": "right"
    },
    {
      "midi": 78,
      "time": 192,
      "duration": 0.5,
      "velocity": 0.71,
      "hand": "right"
    },
    {
      "midi": 77,
      "time": 192.25,
      "duration": 0.25,
      "velocity": 0.71,
      "hand": "right"
    },
    {
      "midi": 51,
      "time": 192.5,
      "duration": 0.5,
      "velocity": 0.26,
      "hand": "left"
    },
    {
      "midi": 54,
      "time": 192.5,
      "duration": 0.5,
      "velocity": 0.26,
      "hand": "left"
    },
    {
      "midi": 58,
      "time": 192.5,
      "duration": 0.5,
      "velocity": 0.26,
      "hand": "left"
    },
    {
      "midi": 60,
      "time": 192.5,
      "duration": 0.5,
      "velocity": 0.26,
      "hand": "right"
    },
    {
      "midi": 66,
      "time": 192.5,
      "duration": 0.5,
      "velocity": 0.71,
      "hand": "right"
    },
    {
      "midi": 75,
      "time": 192.5,
      "duration": 0.25,
      "velocity": 0.71,
      "hand": "right"
    },
    {
      "midi": 78,
      "time": 192.5,
      "duration": 0.5,
      "velocity": 0.71,
      "hand": "right"
    },
    {
      "midi": 73,
      "time": 192.75,
      "duration": 0.25,
      "velocity": 0.71,
      "hand": "right"
    },
    {
      "midi": 58,
      "time": 193,
      "duration": 0.5,
      "velocity": 0.26,
      "hand": "left"
    },
    {
      "midi": 60,
      "time": 193,
      "duration": 0.5,
      "velocity": 0.26,
      "hand": "right"
    },
    {
      "midi": 63,
      "time": 193,
      "duration": 0.5,
      "velocity": 0.26,
      "hand": "right"
    },
    {
      "midi": 66,
      "time": 193,
      "duration": 0.5,
      "velocity": 0.26,
      "hand": "right"
    },
    {
      "midi": 72,
      "time": 193,
      "duration": 0.25,
      "velocity": 0.71,
      "hand": "right"
    },
    {
      "midi": 75,
      "time": 193,
      "duration": 0.5,
      "velocity": 0.71,
      "hand": "right"
    },
    {
      "midi": 78,
      "time": 193,
      "duration": 0.5,
      "velocity": 0.71,
      "hand": "right"
    },
    {
      "midi": 70,
      "time": 193.25,
      "duration": 0.25,
      "velocity": 0.71,
      "hand": "right"
    },
    {
      "midi": 41,
      "time": 193.5,
      "duration": 0.25,
      "velocity": 0.26,
      "hand": "left"
    },
    {
      "midi": 63,
      "time": 193.5,
      "duration": 0.5,
      "velocity": 0.71,
      "hand": "right"
    },
    {
      "midi": 69,
      "time": 193.5,
      "duration": 1,
      "velocity": 0.71,
      "hand": "right"
    },
    {
      "midi": 78,
      "time": 193.5,
      "duration": 0.5,
      "velocity": 0.71,
      "hand": "right"
    },
    {
      "midi": 53,
      "time": 193.75,
      "duration": 0.25,
      "velocity": 0.71,
      "hand": "left"
    },
    {
      "midi": 60,
      "time": 194,
      "duration": 0.25,
      "velocity": 0.71,
      "hand": "right"
    },
    {
      "midi": 77,
      "time": 194,
      "duration": 0.25,
      "velocity": 0.48,
      "hand": "right"
    },
    {
      "midi": 63,
      "time": 194.25,
      "duration": 0.25,
      "velocity": 0.71,
      "hand": "right"
    },
    {
      "midi": 72,
      "time": 194.25,
      "duration": 0.25,
      "velocity": 0.48,
      "hand": "right"
    },
    {
      "midi": 53,
      "time": 194.5,
      "duration": 0.5,
      "velocity": 0.71,
      "hand": "left"
    },
    {
      "midi": 66,
      "time": 194.5,
      "duration": 0.25,
      "velocity": 0.71,
      "hand": "right"
    },
    {
      "midi": 69,
      "time": 194.5,
      "duration": 0.5,
      "velocity": 0.71,
      "hand": "right"
    },
    {
      "midi": 75,
      "time": 194.5,
      "duration": 0.25,
      "velocity": 0.48,
      "hand": "right"
    },
    {
      "midi": 65,
      "time": 194.75,
      "duration": 0.25,
      "velocity": 0.71,
      "hand": "right"
    },
    {
      "midi": 73,
      "time": 194.75,
      "duration": 0.25,
      "velocity": 0.48,
      "hand": "right"
    },
    {
      "midi": 58,
      "time": 195,
      "duration": 0.25,
      "velocity": 0.71,
      "hand": "left"
    },
    {
      "midi": 61,
      "time": 195,
      "duration": 0.25,
      "velocity": 0.71,
      "hand": "right"
    },
    {
      "midi": 65,
      "time": 195,
      "duration": 0.25,
      "velocity": 0.71,
      "hand": "right"
    },
    {
      "midi": 70,
      "time": 195,
      "duration": 1.25,
      "velocity": 0.48,
      "hand": "right"
    },
    {
      "midi": 54,
      "time": 195.25,
      "duration": 0.25,
      "velocity": 0.26,
      "hand": "left"
    },
    {
      "midi": 63,
      "time": 195.25,
      "duration": 0.25,
      "velocity": 0.71,
      "hand": "right"
    },
    {
      "midi": 53,
      "time": 195.5,
      "duration": 0.25,
      "velocity": 0.26,
      "hand": "left"
    },
    {
      "midi": 61,
      "time": 195.5,
      "duration": 0.25,
      "velocity": 0.71,
      "hand": "right"
    },
    {
      "midi": 39,
      "time": 195.75,
      "duration": 0.25,
      "velocity": 0.26,
      "hand": "left"
    },
    {
      "midi": 51,
      "time": 195.75,
      "duration": 0.25,
      "velocity": 0.26,
      "hand": "left"
    },
    {
      "midi": 58,
      "time": 195.75,
      "duration": 0.5,
      "velocity": 0.71,
      "hand": "left"
    },
    {
      "midi": 66,
      "time": 195.75,
      "duration": 0.25,
      "velocity": 0.71,
      "hand": "right"
    },
    {
      "midi": 37,
      "time": 196,
      "duration": 0.25,
      "velocity": 0.26,
      "hand": "left"
    },
    {
      "midi": 49,
      "time": 196,
      "duration": 0.25,
      "velocity": 0.26,
      "hand": "left"
    },
    {
      "midi": 65,
      "time": 196,
      "duration": 0.25,
      "velocity": 0.71,
      "hand": "right"
    },
    {
      "midi": 36,
      "time": 196.25,
      "duration": 0.25,
      "velocity": 0.26,
      "hand": "left"
    },
    {
      "midi": 48,
      "time": 196.25,
      "duration": 0.25,
      "velocity": 0.26,
      "hand": "left"
    },
    {
      "midi": 63,
      "time": 196.25,
      "duration": 0.25,
      "velocity": 0.71,
      "hand": "right"
    },
    {
      "midi": 69,
      "time": 196.25,
      "duration": 0.25,
      "velocity": 0.48,
      "hand": "right"
    },
    {
      "midi": 72,
      "time": 196.25,
      "duration": 0.25,
      "velocity": 0.48,
      "hand": "right"
    },
    {
      "midi": 34,
      "time": 196.5,
      "duration": 0.5,
      "velocity": 0.26,
      "hand": "left"
    },
    {
      "midi": 46,
      "time": 196.5,
      "duration": 0.5,
      "velocity": 0.26,
      "hand": "left"
    },
    {
      "midi": 61,
      "time": 196.5,
      "duration": 0.25,
      "velocity": 0.71,
      "hand": "right"
    },
    {
      "midi": 70,
      "time": 196.5,
      "duration": 0.5,
      "velocity": 0.48,
      "hand": "right"
    },
    {
      "midi": 73,
      "time": 196.5,
      "duration": 0.5,
      "velocity": 0.48,
      "hand": "right"
    },
    {
      "midi": 65,
      "time": 196.75,
      "duration": 0.25,
      "velocity": 0.71,
      "hand": "right"
    },
    {
      "midi": 53,
      "time": 197,
      "duration": 0.5,
      "velocity": 0.26,
      "hand": "left"
    },
    {
      "midi": 58,
      "time": 197,
      "duration": 0.5,
      "velocity": 0.26,
      "hand": "left"
    },
    {
      "midi": 61,
      "time": 197,
      "duration": 0.5,
      "velocity": 0.26,
      "hand": "right"
    },
    {
      "midi": 70,
      "time": 197,
      "duration": 0.25,
      "velocity": 0.71,
      "hand": "right"
    },
    {
      "midi": 73,
      "time": 197,
      "duration": 0.25,
      "velocity": 0.48,
      "hand": "right"
    },
    {
      "midi": 72,
      "time": 197.25,
      "duration": 0.25,
      "velocity": 0.71,
      "hand": "right"
    },
    {
      "midi": 75,
      "time": 197.25,
      "duration": 0.25,
      "velocity": 0.48,
      "hand": "right"
    },
    {
      "midi": 58,
      "time": 197.5,
      "duration": 0.5,
      "velocity": 0.26,
      "hand": "left"
    },
    {
      "midi": 61,
      "time": 197.5,
      "duration": 0.5,
      "velocity": 0.26,
      "hand": "right"
    },
    {
      "midi": 65,
      "time": 197.5,
      "duration": 0.5,
      "velocity": 0.26,
      "hand": "right"
    },
    {
      "midi": 70,
      "time": 197.5,
      "duration": 0.25,
      "velocity": 0.71,
      "hand": "right"
    },
    {
      "midi": 73,
      "time": 197.5,
      "duration": 0.25,
      "velocity": 0.48,
      "hand": "right"
    },
    {
      "midi": 72,
      "time": 197.75,
      "duration": 0.25,
      "velocity": 0.71,
      "hand": "right"
    },
    {
      "midi": 75,
      "time": 197.75,
      "duration": 0.25,
      "velocity": 0.48,
      "hand": "right"
    },
    {
      "midi": 37,
      "time": 198,
      "duration": 0.5,
      "velocity": 0.26,
      "hand": "left"
    },
    {
      "midi": 44,
      "time": 198,
      "duration": 0.5,
      "velocity": 0.26,
      "hand": "left"
    },
    {
      "midi": 49,
      "time": 198,
      "duration": 0.5,
      "velocity": 0.26,
      "hand": "left"
    },
    {
      "midi": 65,
      "time": 198,
      "duration": 0.5,
      "velocity": 0.48,
      "hand": "right"
    },
    {
      "midi": 73,
      "time": 198,
      "duration": 0.25,
      "velocity": 0.71,
      "hand": "right"
    },
    {
      "midi": 77,
      "time": 198,
      "duration": 0.5,
      "velocity": 0.48,
      "hand": "right"
    },
    {
      "midi": 72,
      "time": 198.25,
      "duration": 0.25,
      "velocity": 0.71,
      "hand": "right"
    },
    {
      "midi": 53,
      "time": 198.5,
      "duration": 0.5,
      "velocity": 0.26,
      "hand": "left"
    },
    {
      "midi": 56,
      "time": 198.5,
      "duration": 0.5,
      "velocity": 0.26,
      "hand": "left"
    },
    {
      "midi": 61,
      "time": 198.5,
      "duration": 0.5,
      "velocity": 0.26,
      "hand": "right"
    },
    {
      "midi": 70,
      "time": 198.5,
      "duration": 0.25,
      "velocity": 0.71,
      "hand": "right"
    },
    {
      "midi": 73,
      "time": 198.5,
      "duration": 0.5,
      "velocity": 0.48,
      "hand": "right"
    },
    {
      "midi": 77,
      "time": 198.5,
      "duration": 0.5,
      "velocity": 0.48,
      "hand": "right"
    },
    {
      "midi": 68,
      "time": 198.75,
      "duration": 0.25,
      "velocity": 0.71,
      "hand": "right"
    },
    {
      "midi": 56,
      "time": 199,
      "duration": 0.5,
      "velocity": 0.26,
      "hand": "left"
    },
    {
      "midi": 61,
      "time": 199,
      "duration": 0.5,
      "velocity": 0.26,
      "hand": "right"
    },
    {
      "midi": 66,
      "time": 199,
      "duration": 0.25,
      "velocity": 0.71,
      "hand": "right"
    },
    {
      "midi": 68,
      "time": 199,
      "duration": 0.5,
      "velocity": 0.26,
      "hand": "right"
    },
    {
      "midi": 73,
      "time": 199,
      "duration": 0.5,
      "velocity": 0.48,
      "hand": "right"
    },
    {
      "midi": 77,
      "time": 199,
      "duration": 0.5,
      "velocity": 0.48,
      "hand": "right"
    },
    {
      "midi": 65,
      "time": 199.25,
      "duration": 0.25,
      "velocity": 0.71,
      "hand": "right"
    },
    {
      "midi": 39,
      "time": 199.5,
      "duration": 0.5,
      "velocity": 0.26,
      "hand": "left"
    },
    {
      "midi": 51,
      "time": 199.5,
      "duration": 0.5,
      "velocity": 0.26,
      "hand": "left"
    },
    {
      "midi": 66,
      "time": 199.5,
      "duration": 0.25,
      "velocity": 0.71,
      "hand": "right"
    },
    {
      "midi": 77,
      "time": 199.5,
      "duration": 0.5,
      "velocity": 0.48,
      "hand": "right"
    },
    {
      "midi": 73,
      "time": 199.75,
      "duration": 0.25,
      "velocity": 0.71,
      "hand": "right"
    },
    {
      "midi": 54,
      "time": 200,
      "duration": 0.5,
      "velocity": 0.26,
      "hand": "left"
    },
    {
      "midi": 58,
      "time": 200,
      "duration": 0.5,
      "velocity": 0.26,
      "hand": "left"
    },
    {
      "midi": 63,
      "time": 200,
      "duration": 0.5,
      "velocity": 0.26,
      "hand": "right"
    },
    {
      "midi": 72,
      "time": 200,
      "duration": 0.25,
      "velocity": 0.71,
      "hand": "right"
    },
    {
      "midi": 75,
      "time": 200,
      "duration": 0.25,
      "velocity": 0.48,
      "hand": "right"
    },
    {
      "midi": 66,
      "time": 200.25,
      "duration": 0.25,
      "velocity": 0.71,
      "hand": "right"
    },
    {
      "midi": 70,
      "time": 200.25,
      "duration": 0.25,
      "velocity": 0.48,
      "hand": "right"
    },
    {
      "midi": 42,
      "time": 200.5,
      "duration": 0.5,
      "velocity": 0.26,
      "hand": "left"
    },
    {
      "midi": 54,
      "time": 200.5,
      "duration": 0.5,
      "velocity": 0.26,
      "hand": "left"
    },
    {
      "midi": 63,
      "time": 200.5,
      "duration": 0.25,
      "velocity": 0.71,
      "hand": "right"
    },
    {
      "midi": 73,
      "time": 200.5,
      "duration": 0.25,
      "velocity": 0.48,
      "hand": "right"
    },
    {
      "midi": 64,
      "time": 200.75,
      "duration": 0.25,
      "velocity": 0.71,
      "hand": "right"
    },
    {
      "midi": 72,
      "time": 200.75,
      "duration": 0.25,
      "velocity": 0.48,
      "hand": "right"
    },
    {
      "midi": 41,
      "time": 201,
      "duration": 0.25,
      "velocity": 0.26,
      "hand": "left"
    },
    {
      "midi": 53,
      "time": 201,
      "duration": 0.25,
      "velocity": 0.26,
      "hand": "left"
    },
    {
      "midi": 65,
      "time": 201,
      "duration": 0.25,
      "velocity": 0.71,
      "hand": "right"
    },
    {
      "midi": 69,
      "time": 201,
      "duration": 0.25,
      "velocity": 0.48,
      "hand": "right"
    },
    {
      "midi": 54,
      "time": 201.25,
      "duration": 0.25,
      "velocity": 0.26,
      "hand": "left"
    },
    {
      "midi": 66,
      "time": 201.25,
      "duration": 0.25,
      "velocity": 0.26,
      "hand": "right"
    },
    {
      "midi": 53,
      "time": 201.5,
      "duration": 0.25,
      "velocity": 0.21,
      "hand": "left"
    },
    {
      "midi": 60,
      "time": 201.5,
      "duration": 0.5,
      "velocity": 0.48,
      "hand": "right"
    },
    {
      "midi": 65,
      "time": 201.5,
      "duration": 0.25,
      "velocity": 0.21,
      "hand": "right"
    },
    {
      "midi": 69,
      "time": 201.5,
      "duration": 0.5,
      "velocity": 0.48,
      "hand": "right"
    },
    {
      "midi": 72,
      "time": 201.5,
      "duration": 0.5,
      "velocity": 0.48,
      "hand": "right"
    },
    {
      "midi": 52,
      "time": 201.75,
      "duration": 0.25,
      "velocity": 0.17,
      "hand": "left"
    },
    {
      "midi": 64,
      "time": 201.75,
      "duration": 0.25,
      "velocity": 0.17,
      "hand": "right"
    },
    {
      "midi": 51,
      "time": 202,
      "duration": 0.25,
      "velocity": 0.13,
      "hand": "left"
    },
    {
      "midi": 63,
      "time": 202,
      "duration": 0.25,
      "velocity": 0.13,
      "hand": "right"
    },
    {
      "midi": 65,
      "time": 202,
      "duration": 0.5,
      "velocity": 0.48,
      "hand": "right"
    },
    {
      "midi": 69,
      "time": 202,
      "duration": 0.5,
      "velocity": 0.48,
      "hand": "right"
    },
    {
      "midi": 77,
      "time": 202,
      "duration": 0.5,
      "velocity": 0.48,
      "hand": "right"
    },
    {
      "midi": 48,
      "time": 202.25,
      "duration": 0.25,
      "velocity": 0.09,
      "hand": "left"
    },
    {
      "midi": 60,
      "time": 202.25,
      "duration": 0.25,
      "velocity": 0.09,
      "hand": "right"
    },
    {
      "midi": 49,
      "time": 202.5,
      "duration": 0.25,
      "velocity": 0.09,
      "hand": "left"
    },
    {
      "midi": 61,
      "time": 202.5,
      "duration": 0.25,
      "velocity": 0.09,
      "hand": "right"
    },
    {
      "midi": 64,
      "time": 202.5,
      "duration": 0.5,
      "velocity": 0.48,
      "hand": "right"
    },
    {
      "midi": 70,
      "time": 202.5,
      "duration": 0.5,
      "velocity": 0.48,
      "hand": "right"
    },
    {
      "midi": 76,
      "time": 202.5,
      "duration": 0.5,
      "velocity": 0.48,
      "hand": "right"
    },
    {
      "midi": 46,
      "time": 202.75,
      "duration": 0.25,
      "velocity": 0.09,
      "hand": "left"
    },
    {
      "midi": 58,
      "time": 202.75,
      "duration": 0.25,
      "velocity": 0.09,
      "hand": "left"
    },
    {
      "midi": 43,
      "time": 203,
      "duration": 0.25,
      "velocity": 0.09,
      "hand": "left"
    },
    {
      "midi": 55,
      "time": 203,
      "duration": 0.25,
      "velocity": 0.09,
      "hand": "left"
    },
    {
      "midi": 58,
      "time": 203,
      "duration": 0.5,
      "velocity": 0.71,
      "hand": "left"
    },
    {
      "midi": 64,
      "time": 203,
      "duration": 0.5,
      "velocity": 0.48,
      "hand": "right"
    },
    {
      "midi": 70,
      "time": 203,
      "duration": 0.5,
      "velocity": 0.48,
      "hand": "right"
    },
    {
      "midi": 42,
      "time": 203.25,
      "duration": 0.25,
      "velocity": 0.09,
      "hand": "left"
    },
    {
      "midi": 54,
      "time": 203.25,
      "duration": 0.25,
      "velocity": 0.09,
      "hand": "left"
    },
    {
      "midi": 37,
      "time": 203.5,
      "duration": 0.25,
      "velocity": 0.09,
      "hand": "left"
    },
    {
      "midi": 49,
      "time": 203.5,
      "duration": 0.25,
      "velocity": 0.09,
      "hand": "left"
    },
    {
      "midi": 57,
      "time": 203.5,
      "duration": 0.25,
      "velocity": 0.71,
      "hand": "left"
    },
    {
      "midi": 64,
      "time": 203.5,
      "duration": 0.5,
      "velocity": 0.48,
      "hand": "right"
    },
    {
      "midi": 73,
      "time": 203.5,
      "duration": 0.5,
      "velocity": 0.48,
      "hand": "right"
    },
    {
      "midi": 30,
      "time": 203.75,
      "duration": 0.25,
      "velocity": 0.09,
      "hand": "left"
    },
    {
      "midi": 42,
      "time": 203.75,
      "duration": 0.25,
      "velocity": 0.09,
      "hand": "left"
    },
    {
      "midi": 58,
      "time": 203.75,
      "duration": 0.25,
      "velocity": 0.48,
      "hand": "left"
    },
    {
      "midi": 29,
      "time": 204,
      "duration": 0.25,
      "velocity": 0.09,
      "hand": "left"
    },
    {
      "midi": 41,
      "time": 204,
      "duration": 0.25,
      "velocity": 0.09,
      "hand": "left"
    },
    {
      "midi": 60,
      "time": 204,
      "duration": 0.25,
      "velocity": 0.48,
      "hand": "right"
    },
    {
      "midi": 65,
      "time": 204,
      "duration": 0.25,
      "velocity": 0.48,
      "hand": "right"
    },
    {
      "midi": 69,
      "time": 204,
      "duration": 0.25,
      "velocity": 0.48,
      "hand": "right"
    },
    {
      "midi": 54,
      "time": 204.25,
      "duration": 0.25,
      "velocity": 0.09,
      "hand": "left"
    },
    {
      "midi": 66,
      "time": 204.25,
      "duration": 0.25,
      "velocity": 0.09,
      "hand": "right"
    },
    {
      "midi": 53,
      "time": 204.5,
      "duration": 0.25,
      "velocity": 0.09,
      "hand": "left"
    },
    {
      "midi": 65,
      "time": 204.5,
      "duration": 0.25,
      "velocity": 0.09,
      "hand": "right"
    },
    {
      "midi": 72,
      "time": 204.5,
      "duration": 0.5,
      "velocity": 0.48,
      "hand": "right"
    },
    {
      "midi": 81,
      "time": 204.5,
      "duration": 0.5,
      "velocity": 0.48,
      "hand": "right"
    },
    {
      "midi": 84,
      "time": 204.5,
      "duration": 0.5,
      "velocity": 0.48,
      "hand": "right"
    },
    {
      "midi": 52,
      "time": 204.75,
      "duration": 0.25,
      "velocity": 0.09,
      "hand": "left"
    },
    {
      "midi": 64,
      "time": 204.75,
      "duration": 0.25,
      "velocity": 0.09,
      "hand": "right"
    },
    {
      "midi": 51,
      "time": 205,
      "duration": 0.25,
      "velocity": 0.09,
      "hand": "left"
    },
    {
      "midi": 63,
      "time": 205,
      "duration": 0.25,
      "velocity": 0.09,
      "hand": "right"
    },
    {
      "midi": 77,
      "time": 205,
      "duration": 0.5,
      "velocity": 0.48,
      "hand": "right"
    },
    {
      "midi": 81,
      "time": 205,
      "duration": 0.5,
      "velocity": 0.48,
      "hand": "right"
    },
    {
      "midi": 89,
      "time": 205,
      "duration": 0.5,
      "velocity": 0.48,
      "hand": "right"
    },
    {
      "midi": 48,
      "time": 205.25,
      "duration": 0.25,
      "velocity": 0.09,
      "hand": "left"
    },
    {
      "midi": 60,
      "time": 205.25,
      "duration": 0.25,
      "velocity": 0.09,
      "hand": "right"
    },
    {
      "midi": 49,
      "time": 205.5,
      "duration": 0.25,
      "velocity": 0.09,
      "hand": "left"
    },
    {
      "midi": 61,
      "time": 205.5,
      "duration": 0.25,
      "velocity": 0.09,
      "hand": "right"
    },
    {
      "midi": 76,
      "time": 205.5,
      "duration": 0.5,
      "velocity": 0.48,
      "hand": "right"
    },
    {
      "midi": 82,
      "time": 205.5,
      "duration": 0.5,
      "velocity": 0.48,
      "hand": "right"
    },
    {
      "midi": 88,
      "time": 205.5,
      "duration": 0.5,
      "velocity": 0.48,
      "hand": "right"
    },
    {
      "midi": 46,
      "time": 205.75,
      "duration": 0.25,
      "velocity": 0.09,
      "hand": "left"
    },
    {
      "midi": 58,
      "time": 205.75,
      "duration": 0.25,
      "velocity": 0.09,
      "hand": "left"
    },
    {
      "midi": 43,
      "time": 206,
      "duration": 0.25,
      "velocity": 0.09,
      "hand": "left"
    },
    {
      "midi": 55,
      "time": 206,
      "duration": 0.25,
      "velocity": 0.09,
      "hand": "left"
    },
    {
      "midi": 70,
      "time": 206,
      "duration": 0.25,
      "velocity": 0.48,
      "hand": "right"
    },
    {
      "midi": 76,
      "time": 206,
      "duration": 0.5,
      "velocity": 0.48,
      "hand": "right"
    },
    {
      "midi": 82,
      "time": 206,
      "duration": 0.5,
      "velocity": 0.48,
      "hand": "right"
    },
    {
      "midi": 42,
      "time": 206.25,
      "duration": 0.25,
      "velocity": 0.09,
      "hand": "left"
    },
    {
      "midi": 54,
      "time": 206.25,
      "duration": 0.25,
      "velocity": 0.09,
      "hand": "left"
    },
    {
      "midi": 69,
      "time": 206.25,
      "duration": 0.25,
      "velocity": 0.48,
      "hand": "right"
    },
    {
      "midi": 37,
      "time": 206.5,
      "duration": 0.25,
      "velocity": 0.09,
      "hand": "left"
    },
    {
      "midi": 49,
      "time": 206.5,
      "duration": 0.25,
      "velocity": 0.09,
      "hand": "left"
    },
    {
      "midi": 69,
      "time": 206.5,
      "duration": 0.25,
      "velocity": 0.48,
      "hand": "right"
    },
    {
      "midi": 76,
      "time": 206.5,
      "duration": 0.5,
      "velocity": 0.48,
      "hand": "right"
    },
    {
      "midi": 85,
      "time": 206.5,
      "duration": 0.5,
      "velocity": 0.48,
      "hand": "right"
    },
    {
      "midi": 30,
      "time": 206.75,
      "duration": 0.25,
      "velocity": 0.09,
      "hand": "left"
    },
    {
      "midi": 42,
      "time": 206.75,
      "duration": 0.25,
      "velocity": 0.09,
      "hand": "left"
    },
    {
      "midi": 70,
      "time": 206.75,
      "duration": 0.25,
      "velocity": 0.48,
      "hand": "right"
    },
    {
      "midi": 28,
      "time": 207,
      "duration": 0.25,
      "velocity": 0.09,
      "hand": "left"
    },
    {
      "midi": 40,
      "time": 207,
      "duration": 0.25,
      "velocity": 0.09,
      "hand": "left"
    },
    {
      "midi": 73,
      "time": 207,
      "duration": 0.25,
      "velocity": 0.71,
      "hand": "right"
    },
    {
      "midi": 82,
      "time": 207,
      "duration": 0.25,
      "velocity": 0.71,
      "hand": "right"
    },
    {
      "midi": 85,
      "time": 207,
      "duration": 0.25,
      "velocity": 0.71,
      "hand": "right"
    },
    {
      "midi": 29,
      "time": 207.25,
      "duration": 0.25,
      "velocity": 0.09,
      "hand": "left"
    },
    {
      "midi": 41,
      "time": 207.25,
      "duration": 0.25,
      "velocity": 0.09,
      "hand": "left"
    },
    {
      "midi": 72,
      "time": 207.25,
      "duration": 0.25,
      "velocity": 0.71,
      "hand": "right"
    },
    {
      "midi": 81,
      "time": 207.25,
      "duration": 0.25,
      "velocity": 0.71,
      "hand": "right"
    },
    {
      "midi": 84,
      "time": 207.25,
      "duration": 0.25,
      "velocity": 0.71,
      "hand": "right"
    },
    {
      "midi": 54,
      "time": 207.5,
      "duration": 0.25,
      "velocity": 0.09,
      "hand": "left"
    },
    {
      "midi": 66,
      "time": 207.5,
      "duration": 0.25,
      "velocity": 0.09,
      "hand": "right"
    },
    {
      "midi": 72,
      "time": 207.5,
      "duration": 0.25,
      "velocity": 0.71,
      "hand": "right"
    },
    {
      "midi": 81,
      "time": 207.5,
      "duration": 0.25,
      "velocity": 0.71,
      "hand": "right"
    },
    {
      "midi": 84,
      "time": 207.5,
      "duration": 0.25,
      "velocity": 0.71,
      "hand": "right"
    },
    {
      "midi": 53,
      "time": 207.75,
      "duration": 0.25,
      "velocity": 0.09,
      "hand": "left"
    },
    {
      "midi": 65,
      "time": 207.75,
      "duration": 0.25,
      "velocity": 0.09,
      "hand": "right"
    },
    {
      "midi": 73,
      "time": 207.75,
      "duration": 0.25,
      "velocity": 0.73,
      "hand": "right"
    },
    {
      "midi": 82,
      "time": 207.75,
      "duration": 0.25,
      "velocity": 0.73,
      "hand": "right"
    },
    {
      "midi": 85,
      "time": 207.75,
      "duration": 0.25,
      "velocity": 0.73,
      "hand": "right"
    },
    {
      "midi": 51,
      "time": 208,
      "duration": 0.25,
      "velocity": 0.09,
      "hand": "left"
    },
    {
      "midi": 63,
      "time": 208,
      "duration": 0.25,
      "velocity": 0.09,
      "hand": "right"
    },
    {
      "midi": 75,
      "time": 208,
      "duration": 0.25,
      "velocity": 0.75,
      "hand": "right"
    },
    {
      "midi": 84,
      "time": 208,
      "duration": 0.25,
      "velocity": 0.75,
      "hand": "right"
    },
    {
      "midi": 87,
      "time": 208,
      "duration": 0.25,
      "velocity": 0.75,
      "hand": "right"
    },
    {
      "midi": 49,
      "time": 208.25,
      "duration": 0.25,
      "velocity": 0.09,
      "hand": "left"
    },
    {
      "midi": 61,
      "time": 208.25,
      "duration": 0.25,
      "velocity": 0.09,
      "hand": "right"
    },
    {
      "midi": 77,
      "time": 208.25,
      "duration": 0.25,
      "velocity": 0.77,
      "hand": "right"
    },
    {
      "midi": 85,
      "time": 208.25,
      "duration": 0.25,
      "velocity": 0.77,
      "hand": "right"
    },
    {
      "midi": 89,
      "time": 208.25,
      "duration": 0.25,
      "velocity": 0.77,
      "hand": "right"
    },
    {
      "midi": 48,
      "time": 208.5,
      "duration": 0.25,
      "velocity": 0.09,
      "hand": "left"
    },
    {
      "midi": 60,
      "time": 208.5,
      "duration": 0.25,
      "velocity": 0.09,
      "hand": "right"
    },
    {
      "midi": 78,
      "time": 208.5,
      "duration": 0.5,
      "velocity": 0.8,
      "hand": "right"
    },
    {
      "midi": 87,
      "time": 208.5,
      "duration": 0.5,
      "velocity": 0.8,
      "hand": "right"
    },
    {
      "midi": 90,
      "time": 208.5,
      "duration": 0.5,
      "velocity": 0.8,
      "hand": "right"
    },
    {
      "midi": 46,
      "time": 208.75,
      "duration": 0.25,
      "velocity": 0.09,
      "hand": "left"
    },
    {
      "midi": 58,
      "time": 208.75,
      "duration": 0.25,
      "velocity": 0.09,
      "hand": "left"
    },
    {
      "midi": 45,
      "time": 209,
      "duration": 0.25,
      "velocity": 0.09,
      "hand": "left"
    },
    {
      "midi": 57,
      "time": 209,
      "duration": 0.25,
      "velocity": 0.09,
      "hand": "left"
    },
    {
      "midi": 78,
      "time": 209,
      "duration": 0.5,
      "velocity": 0.84,
      "hand": "right"
    },
    {
      "midi": 87,
      "time": 209,
      "duration": 0.5,
      "velocity": 0.84,
      "hand": "right"
    },
    {
      "midi": 90,
      "time": 209,
      "duration": 0.5,
      "velocity": 0.84,
      "hand": "right"
    },
    {
      "midi": 42,
      "time": 209.25,
      "duration": 0.25,
      "velocity": 0.09,
      "hand": "left"
    },
    {
      "midi": 54,
      "time": 209.25,
      "duration": 0.25,
      "velocity": 0.09,
      "hand": "left"
    },
    {
      "midi": 39,
      "time": 209.5,
      "duration": 0.25,
      "velocity": 0.09,
      "hand": "left"
    },
    {
      "midi": 51,
      "time": 209.5,
      "duration": 0.25,
      "velocity": 0.09,
      "hand": "left"
    },
    {
      "midi": 78,
      "time": 209.5,
      "duration": 0.5,
      "velocity": 0.89,
      "hand": "right"
    },
    {
      "midi": 87,
      "time": 209.5,
      "duration": 0.5,
      "velocity": 0.89,
      "hand": "right"
    },
    {
      "midi": 90,
      "time": 209.5,
      "duration": 0.5,
      "velocity": 0.89,
      "hand": "right"
    },
    {
      "midi": 36,
      "time": 209.75,
      "duration": 0.25,
      "velocity": 0.09,
      "hand": "left"
    },
    {
      "midi": 48,
      "time": 209.75,
      "duration": 0.25,
      "velocity": 0.09,
      "hand": "left"
    },
    {
      "midi": 33,
      "time": 210,
      "duration": 0.5,
      "velocity": 0.09,
      "hand": "left"
    },
    {
      "midi": 45,
      "time": 210,
      "duration": 0.5,
      "velocity": 0.09,
      "hand": "left"
    },
    {
      "midi": 78,
      "time": 210,
      "duration": 0.5,
      "velocity": 0.93,
      "hand": "right"
    },
    {
      "midi": 87,
      "time": 210,
      "duration": 0.5,
      "velocity": 0.93,
      "hand": "right"
    },
    {
      "midi": 90,
      "time": 210,
      "duration": 0.5,
      "velocity": 0.93,
      "hand": "right"
    },
    {
      "midi": 33,
      "time": 210.5,
      "duration": 0.5,
      "velocity": 0.09,
      "hand": "left"
    },
    {
      "midi": 45,
      "time": 210.5,
      "duration": 0.5,
      "velocity": 0.09,
      "hand": "left"
    },
    {
      "midi": 54,
      "time": 210.5,
      "duration": 0.5,
      "velocity": 0.93,
      "hand": "left"
    },
    {
      "midi": 59,
      "time": 210.5,
      "duration": 0.5,
      "velocity": 0.93,
      "hand": "left"
    },
    {
      "midi": 63,
      "time": 210.5,
      "duration": 0.5,
      "velocity": 0.93,
      "hand": "right"
    },
    {
      "midi": 34,
      "time": 211,
      "duration": 0.5,
      "velocity": 0.09,
      "hand": "left"
    },
    {
      "midi": 46,
      "time": 211,
      "duration": 0.5,
      "velocity": 0.09,
      "hand": "left"
    },
    {
      "midi": 54,
      "time": 211,
      "duration": 0.5,
      "velocity": 0.93,
      "hand": "left"
    },
    {
      "midi": 58,
      "time": 211,
      "duration": 0.5,
      "velocity": 0.93,
      "hand": "left"
    },
    {
      "midi": 63,
      "time": 211,
      "duration": 0.5,
      "velocity": 0.93,
      "hand": "right"
    },
    {
      "midi": 34,
      "time": 211.5,
      "duration": 0.5,
      "velocity": 0.09,
      "hand": "left"
    },
    {
      "midi": 46,
      "time": 211.5,
      "duration": 0.5,
      "velocity": 0.09,
      "hand": "left"
    },
    {
      "midi": 54,
      "time": 211.5,
      "duration": 0.5,
      "velocity": 0.93,
      "hand": "left"
    },
    {
      "midi": 58,
      "time": 211.5,
      "duration": 0.5,
      "velocity": 0.93,
      "hand": "left"
    },
    {
      "midi": 63,
      "time": 211.5,
      "duration": 0.5,
      "velocity": 0.93,
      "hand": "right"
    },
    {
      "midi": 35,
      "time": 212,
      "duration": 0.5,
      "velocity": 0.09,
      "hand": "left"
    },
    {
      "midi": 47,
      "time": 212,
      "duration": 0.5,
      "velocity": 0.09,
      "hand": "left"
    },
    {
      "midi": 51,
      "time": 212,
      "duration": 0.5,
      "velocity": 0.93,
      "hand": "left"
    },
    {
      "midi": 57,
      "time": 212,
      "duration": 0.5,
      "velocity": 0.93,
      "hand": "left"
    },
    {
      "midi": 66,
      "time": 212,
      "duration": 0.5,
      "velocity": 0.93,
      "hand": "right"
    },
    {
      "midi": 27,
      "time": 212.5,
      "duration": 0.5,
      "velocity": 0.09,
      "hand": "left"
    },
    {
      "midi": 39,
      "time": 212.5,
      "duration": 0.5,
      "velocity": 0.09,
      "hand": "left"
    },
    {
      "midi": 54,
      "time": 212.5,
      "duration": 0.5,
      "velocity": 0.93,
      "hand": "left"
    },
    {
      "midi": 57,
      "time": 212.5,
      "duration": 0.5,
      "velocity": 0.93,
      "hand": "left"
    },
    {
      "midi": 66,
      "time": 212.5,
      "duration": 0.5,
      "velocity": 0.93,
      "hand": "right"
    },
    {
      "midi": 30,
      "time": 213,
      "duration": 0.5,
      "velocity": 0.09,
      "hand": "left"
    },
    {
      "midi": 42,
      "time": 213,
      "duration": 0.5,
      "velocity": 0.09,
      "hand": "left"
    },
    {
      "midi": 61,
      "time": 213,
      "duration": 0.5,
      "velocity": 0.93,
      "hand": "right"
    },
    {
      "midi": 51,
      "time": 213.5,
      "duration": 0.25,
      "velocity": 0.93,
      "hand": "left"
    },
    {
      "midi": 57,
      "time": 213.5,
      "duration": 0.25,
      "velocity": 0.93,
      "hand": "left"
    },
    {
      "midi": 59,
      "time": 213.5,
      "duration": 0.25,
      "velocity": 0.93,
      "hand": "left"
    },
    {
      "midi": 64,
      "time": 213.5,
      "duration": 0.25,
      "velocity": 0.93,
      "hand": "right"
    },
    {
      "midi": 54,
      "time": 213.75,
      "duration": 0.25,
      "velocity": 0.09,
      "hand": "left"
    },
    {
      "midi": 57,
      "time": 213.75,
      "duration": 0.25,
      "velocity": 0.93,
      "hand": "left"
    },
    {
      "midi": 59,
      "time": 213.75,
      "duration": 0.25,
      "velocity": 0.93,
      "hand": "left"
    },
    {
      "midi": 63,
      "time": 213.75,
      "duration": 0.25,
      "velocity": 0.93,
      "hand": "right"
    },
    {
      "midi": 59,
      "time": 214,
      "duration": 0.25,
      "velocity": 0.09,
      "hand": "left"
    },
    {
      "midi": 68,
      "time": 214,
      "duration": 0.25,
      "velocity": 0.93,
      "hand": "right"
    },
    {
      "midi": 57,
      "time": 214.25,
      "duration": 0.25,
      "velocity": 0.09,
      "hand": "left"
    },
    {
      "midi": 59,
      "time": 214.25,
      "duration": 0.25,
      "velocity": 0.93,
      "hand": "left"
    },
    {
      "midi": 63,
      "time": 214.25,
      "duration": 0.25,
      "velocity": 0.93,
      "hand": "right"
    },
    {
      "midi": 66,
      "time": 214.25,
      "duration": 0.25,
      "velocity": 0.93,
      "hand": "right"
    },
    {
      "midi": 32,
      "time": 214.5,
      "duration": 0.5,
      "velocity": 0.09,
      "hand": "left"
    },
    {
      "midi": 44,
      "time": 214.5,
      "duration": 0.5,
      "velocity": 0.09,
      "hand": "left"
    },
    {
      "midi": 71,
      "time": 214.5,
      "duration": 0.25,
      "velocity": 0.93,
      "hand": "right"
    },
    {
      "midi": 59,
      "time": 214.75,
      "duration": 0.25,
      "velocity": 0.93,
      "hand": "left"
    },
    {
      "midi": 62,
      "time": 214.75,
      "duration": 0.25,
      "velocity": 0.93,
      "hand": "right"
    },
    {
      "midi": 66,
      "time": 214.75,
      "duration": 0.25,
      "velocity": 0.93,
      "hand": "right"
    },
    {
      "midi": 66,
      "time": 215,
      "duration": 0.25,
      "velocity": 0.93,
      "hand": "right"
    },
    {
      "midi": 56,
      "time": 215.25,
      "duration": 0.25,
      "velocity": 0.09,
      "hand": "left"
    },
    {
      "midi": 59,
      "time": 215.25,
      "duration": 0.25,
      "velocity": 0.93,
      "hand": "left"
    },
    {
      "midi": 62,
      "time": 215.25,
      "duration": 0.25,
      "velocity": 0.93,
      "hand": "right"
    },
    {
      "midi": 65,
      "time": 215.25,
      "duration": 0.25,
      "velocity": 0.93,
      "hand": "right"
    },
    {
      "midi": 61,
      "time": 215.5,
      "duration": 0.25,
      "velocity": 0.09,
      "hand": "right"
    },
    {
      "midi": 69,
      "time": 215.5,
      "duration": 0.25,
      "velocity": 0.93,
      "hand": "right"
    },
    {
      "midi": 59,
      "time": 215.75,
      "duration": 0.25,
      "velocity": 0.09,
      "hand": "left"
    },
    {
      "midi": 61,
      "time": 215.75,
      "duration": 0.25,
      "velocity": 0.93,
      "hand": "right"
    },
    {
      "midi": 65,
      "time": 215.75,
      "duration": 0.25,
      "velocity": 0.93,
      "hand": "right"
    },
    {
      "midi": 68,
      "time": 215.75,
      "duration": 0.25,
      "velocity": 0.93,
      "hand": "right"
    },
    {
      "midi": 34,
      "time": 216,
      "duration": 0.5,
      "velocity": 0.09,
      "hand": "left"
    },
    {
      "midi": 46,
      "time": 216,
      "duration": 0.5,
      "velocity": 0.09,
      "hand": "left"
    },
    {
      "midi": 73,
      "time": 216,
      "duration": 0.25,
      "velocity": 0.93,
      "hand": "right"
    },
    {
      "midi": 61,
      "time": 216.25,
      "duration": 0.25,
      "velocity": 0.93,
      "hand": "right"
    },
    {
      "midi": 64,
      "time": 216.25,
      "duration": 0.25,
      "velocity": 0.93,
      "hand": "right"
    },
    {
      "midi": 68,
      "time": 216.25,
      "duration": 0.25,
      "velocity": 0.93,
      "hand": "right"
    },
    {
      "midi": 68,
      "time": 216.5,
      "duration": 0.25,
      "velocity": 0.93,
      "hand": "right"
    },
    {
      "midi": 58,
      "time": 216.75,
      "duration": 0.25,
      "velocity": 0.09,
      "hand": "left"
    },
    {
      "midi": 61,
      "time": 216.75,
      "duration": 0.25,
      "velocity": 0.93,
      "hand": "right"
    },
    {
      "midi": 63,
      "time": 216.75,
      "duration": 0.25,
      "velocity": 0.93,
      "hand": "right"
    },
    {
      "midi": 67,
      "time": 216.75,
      "duration": 0.25,
      "velocity": 0.93,
      "hand": "right"
    },
    {
      "midi": 63,
      "time": 217,
      "duration": 0.25,
      "velocity": 0.09,
      "hand": "right"
    },
    {
      "midi": 71,
      "time": 217,
      "duration": 0.25,
      "velocity": 0.93,
      "hand": "right"
    },
    {
      "midi": 61,
      "time": 217.25,
      "duration": 0.25,
      "velocity": 0.09,
      "hand": "right"
    },
    {
      "midi": 64,
      "time": 217.25,
      "duration": 0.25,
      "velocity": 0.93,
      "hand": "right"
    },
    {
      "midi": 67,
      "time": 217.25,
      "duration": 0.25,
      "velocity": 0.93,
      "hand": "right"
    },
    {
      "midi": 70,
      "time": 217.25,
      "duration": 0.25,
      "velocity": 0.93,
      "hand": "right"
    },
    {
      "midi": 36,
      "time": 217.5,
      "duration": 0.5,
      "velocity": 0.09,
      "hand": "left"
    },
    {
      "midi": 48,
      "time": 217.5,
      "duration": 0.5,
      "velocity": 0.09,
      "hand": "left"
    },
    {
      "midi": 75,
      "time": 217.5,
      "duration": 0.25,
      "velocity": 0.93,
      "hand": "right"
    },
    {
      "midi": 63,
      "time": 217.75,
      "duration": 0.25,
      "velocity": 0.93,
      "hand": "right"
    },
    {
      "midi": 66,
      "time": 217.75,
      "duration": 0.25,
      "velocity": 0.93,
      "hand": "right"
    },
    {
      "midi": 70,
      "time": 217.75,
      "duration": 0.25,
      "velocity": 0.93,
      "hand": "right"
    },
    {
      "midi": 70,
      "time": 218,
      "duration": 0.25,
      "velocity": 0.93,
      "hand": "right"
    },
    {
      "midi": 60,
      "time": 218.25,
      "duration": 0.25,
      "velocity": 0.09,
      "hand": "right"
    },
    {
      "midi": 63,
      "time": 218.25,
      "duration": 0.25,
      "velocity": 0.93,
      "hand": "right"
    },
    {
      "midi": 65,
      "time": 218.25,
      "duration": 0.25,
      "velocity": 0.93,
      "hand": "right"
    },
    {
      "midi": 69,
      "time": 218.25,
      "duration": 0.25,
      "velocity": 0.93,
      "hand": "right"
    },
    {
      "midi": 65,
      "time": 218.5,
      "duration": 0.25,
      "velocity": 0.09,
      "hand": "right"
    },
    {
      "midi": 73,
      "time": 218.5,
      "duration": 0.25,
      "velocity": 0.93,
      "hand": "right"
    },
    {
      "midi": 63,
      "time": 218.75,
      "duration": 0.25,
      "velocity": 0.09,
      "hand": "right"
    },
    {
      "midi": 66,
      "time": 218.75,
      "duration": 0.25,
      "velocity": 0.93,
      "hand": "right"
    },
    {
      "midi": 69,
      "time": 218.75,
      "duration": 0.25,
      "velocity": 0.93,
      "hand": "right"
    },
    {
      "midi": 72,
      "time": 218.75,
      "duration": 0.25,
      "velocity": 0.93,
      "hand": "right"
    },
    {
      "midi": 29,
      "time": 219,
      "duration": 0.5,
      "velocity": 0.09,
      "hand": "left"
    },
    {
      "midi": 41,
      "time": 219,
      "duration": 0.5,
      "velocity": 0.09,
      "hand": "left"
    },
    {
      "midi": 78,
      "time": 219,
      "duration": 0.25,
      "velocity": 0.93,
      "hand": "right"
    },
    {
      "midi": 69,
      "time": 219.25,
      "duration": 0.25,
      "velocity": 0.93,
      "hand": "right"
    },
    {
      "midi": 75,
      "time": 219.25,
      "duration": 0.25,
      "velocity": 0.93,
      "hand": "right"
    },
    {
      "midi": 77,
      "time": 219.25,
      "duration": 0.25,
      "velocity": 0.93,
      "hand": "right"
    },
    {
      "midi": 82,
      "time": 219.5,
      "duration": 0.25,
      "velocity": 0.93,
      "hand": "right"
    },
    {
      "midi": 72,
      "time": 219.75,
      "duration": 0.25,
      "velocity": 0.09,
      "hand": "right"
    },
    {
      "midi": 75,
      "time": 219.75,
      "duration": 0.25,
      "velocity": 0.93,
      "hand": "right"
    },
    {
      "midi": 77,
      "time": 219.75,
      "duration": 0.25,
      "velocity": 0.93,
      "hand": "right"
    },
    {
      "midi": 81,
      "time": 219.75,
      "duration": 0.25,
      "velocity": 0.93,
      "hand": "right"
    },
    {
      "midi": 77,
      "time": 220,
      "duration": 0.25,
      "velocity": 0.09,
      "hand": "right"
    },
    {
      "midi": 85,
      "time": 220,
      "duration": 0.25,
      "velocity": 0.93,
      "hand": "right"
    },
    {
      "midi": 75,
      "time": 220.25,
      "duration": 0.25,
      "velocity": 0.09,
      "hand": "right"
    },
    {
      "midi": 77,
      "time": 220.25,
      "duration": 0.25,
      "velocity": 0.93,
      "hand": "right"
    },
    {
      "midi": 81,
      "time": 220.25,
      "duration": 0.25,
      "velocity": 0.93,
      "hand": "right"
    },
    {
      "midi": 84,
      "time": 220.25,
      "duration": 0.25,
      "velocity": 0.93,
      "hand": "right"
    },
    {
      "midi": 65,
      "time": 220.5,
      "duration": 0.5,
      "velocity": 0.09,
      "hand": "right"
    },
    {
      "midi": 89,
      "time": 220.5,
      "duration": 0.25,
      "velocity": 0.93,
      "hand": "right"
    },
    {
      "midi": 81,
      "time": 220.75,
      "duration": 0.25,
      "velocity": 0.93,
      "hand": "right"
    },
    {
      "midi": 84,
      "time": 220.75,
      "duration": 0.25,
      "velocity": 0.93,
      "hand": "right"
    },
    {
      "midi": 87,
      "time": 220.75,
      "duration": 0.25,
      "velocity": 0.93,
      "hand": "right"
    },
    {
      "midi": 90,
      "time": 221,
      "duration": 0.25,
      "velocity": 0.93,
      "hand": "right"
    },
    {
      "midi": 81,
      "time": 221.25,
      "duration": 0.25,
      "velocity": 0.09,
      "hand": "right"
    },
    {
      "midi": 84,
      "time": 221.25,
      "duration": 0.25,
      "velocity": 0.93,
      "hand": "right"
    },
    {
      "midi": 87,
      "time": 221.25,
      "duration": 0.25,
      "velocity": 0.93,
      "hand": "right"
    },
    {
      "midi": 89,
      "time": 221.25,
      "duration": 0.25,
      "velocity": 0.93,
      "hand": "right"
    },
    {
      "midi": 72,
      "time": 221.5,
      "duration": 0.25,
      "velocity": 0.09,
      "hand": "right"
    },
    {
      "midi": 91,
      "time": 221.5,
      "duration": 0.25,
      "velocity": 0.93,
      "hand": "right"
    },
    {
      "midi": 81,
      "time": 221.75,
      "duration": 0.25,
      "velocity": 0.09,
      "hand": "right"
    },
    {
      "midi": 84,
      "time": 221.75,
      "duration": 0.25,
      "velocity": 0.93,
      "hand": "right"
    },
    {
      "midi": 87,
      "time": 221.75,
      "duration": 0.25,
      "velocity": 0.93,
      "hand": "right"
    },
    {
      "midi": 89,
      "time": 221.75,
      "duration": 0.25,
      "velocity": 0.93,
      "hand": "right"
    },
    {
      "midi": 65,
      "time": 222,
      "duration": 0.25,
      "velocity": 0.09,
      "hand": "right"
    },
    {
      "midi": 90,
      "time": 222,
      "duration": 0.25,
      "velocity": 0.93,
      "hand": "right"
    },
    {
      "midi": 81,
      "time": 222.25,
      "duration": 0.25,
      "velocity": 0.09,
      "hand": "right"
    },
    {
      "midi": 84,
      "time": 222.25,
      "duration": 0.25,
      "velocity": 0.93,
      "hand": "right"
    },
    {
      "midi": 87,
      "time": 222.25,
      "duration": 0.25,
      "velocity": 0.93,
      "hand": "right"
    },
    {
      "midi": 89,
      "time": 222.25,
      "duration": 0.25,
      "velocity": 0.93,
      "hand": "right"
    },
    {
      "midi": 72,
      "time": 222.5,
      "duration": 0.25,
      "velocity": 0.09,
      "hand": "right"
    },
    {
      "midi": 91,
      "time": 222.5,
      "duration": 0.25,
      "velocity": 0.93,
      "hand": "right"
    },
    {
      "midi": 81,
      "time": 222.75,
      "duration": 0.25,
      "velocity": 0.09,
      "hand": "right"
    },
    {
      "midi": 84,
      "time": 222.75,
      "duration": 0.25,
      "velocity": 0.93,
      "hand": "right"
    },
    {
      "midi": 87,
      "time": 222.75,
      "duration": 0.25,
      "velocity": 0.93,
      "hand": "right"
    },
    {
      "midi": 89,
      "time": 222.75,
      "duration": 0.25,
      "velocity": 0.93,
      "hand": "right"
    },
    {
      "midi": 65,
      "time": 223,
      "duration": 0.25,
      "velocity": 0.09,
      "hand": "right"
    },
    {
      "midi": 90,
      "time": 223,
      "duration": 0.25,
      "velocity": 0.93,
      "hand": "right"
    },
    {
      "midi": 81,
      "time": 223.25,
      "duration": 0.25,
      "velocity": 0.09,
      "hand": "right"
    },
    {
      "midi": 84,
      "time": 223.25,
      "duration": 0.25,
      "velocity": 0.93,
      "hand": "right"
    },
    {
      "midi": 87,
      "time": 223.25,
      "duration": 0.25,
      "velocity": 0.93,
      "hand": "right"
    },
    {
      "midi": 89,
      "time": 223.25,
      "duration": 0.25,
      "velocity": 0.93,
      "hand": "right"
    },
    {
      "midi": 72,
      "time": 223.5,
      "duration": 0.25,
      "velocity": 0.09,
      "hand": "right"
    },
    {
      "midi": 91,
      "time": 223.5,
      "duration": 0.25,
      "velocity": 0.93,
      "hand": "right"
    },
    {
      "midi": 81,
      "time": 223.75,
      "duration": 0.25,
      "velocity": 0.09,
      "hand": "right"
    },
    {
      "midi": 84,
      "time": 223.75,
      "duration": 0.25,
      "velocity": 0.93,
      "hand": "right"
    },
    {
      "midi": 87,
      "time": 223.75,
      "duration": 0.25,
      "velocity": 0.93,
      "hand": "right"
    },
    {
      "midi": 89,
      "time": 223.75,
      "duration": 0.25,
      "velocity": 0.93,
      "hand": "right"
    },
    {
      "midi": 65,
      "time": 224,
      "duration": 0.25,
      "velocity": 0.09,
      "hand": "right"
    },
    {
      "midi": 90,
      "time": 224,
      "duration": 0.25,
      "velocity": 0.93,
      "hand": "right"
    },
    {
      "midi": 81,
      "time": 224.25,
      "duration": 0.25,
      "velocity": 0.09,
      "hand": "right"
    },
    {
      "midi": 84,
      "time": 224.25,
      "duration": 0.25,
      "velocity": 0.93,
      "hand": "right"
    },
    {
      "midi": 87,
      "time": 224.25,
      "duration": 0.25,
      "velocity": 0.93,
      "hand": "right"
    },
    {
      "midi": 89,
      "time": 224.25,
      "duration": 0.25,
      "velocity": 0.93,
      "hand": "right"
    },
    {
      "midi": 72,
      "time": 224.5,
      "duration": 0.25,
      "velocity": 0.09,
      "hand": "right"
    },
    {
      "midi": 91,
      "time": 224.5,
      "duration": 0.25,
      "velocity": 0.93,
      "hand": "right"
    },
    {
      "midi": 81,
      "time": 224.75,
      "duration": 0.25,
      "velocity": 0.09,
      "hand": "right"
    },
    {
      "midi": 84,
      "time": 224.75,
      "duration": 0.25,
      "velocity": 0.93,
      "hand": "right"
    },
    {
      "midi": 87,
      "time": 224.75,
      "duration": 0.25,
      "velocity": 0.93,
      "hand": "right"
    },
    {
      "midi": 89,
      "time": 224.75,
      "duration": 0.25,
      "velocity": 0.93,
      "hand": "right"
    },
    {
      "midi": 75,
      "time": 225,
      "duration": 0.5,
      "velocity": 0.09,
      "hand": "right"
    },
    {
      "midi": 88,
      "time": 225,
      "duration": 0.25,
      "velocity": 0.93,
      "hand": "right"
    },
    {
      "midi": 89,
      "time": 225.25,
      "duration": 0.25,
      "velocity": 0.93,
      "hand": "right"
    },
    {
      "midi": 101,
      "time": 225.5,
      "duration": 0.25,
      "velocity": 0.93,
      "hand": "right"
    },
    {
      "midi": 90,
      "time": 225.75,
      "duration": 0.25,
      "velocity": 0.93,
      "hand": "right"
    },
    {
      "midi": 101,
      "time": 226,
      "duration": 0.25,
      "velocity": 0.93,
      "hand": "right"
    },
    {
      "midi": 91,
      "time": 226.25,
      "duration": 0.25,
      "velocity": 0.93,
      "hand": "right"
    },
    {
      "midi": 92,
      "time": 226.5,
      "duration": 0.25,
      "velocity": 0.93,
      "hand": "right"
    },
    {
      "midi": 93,
      "time": 226.75,
      "duration": 0.25,
      "velocity": 0.93,
      "hand": "right"
    },
    {
      "midi": 98,
      "time": 227,
      "duration": 0.25,
      "velocity": 0.93,
      "hand": "right"
    },
    {
      "midi": 96,
      "time": 227.25,
      "duration": 0.25,
      "velocity": 0.93,
      "hand": "right"
    },
    {
      "midi": 94,
      "time": 227.5,
      "duration": 0.25,
      "velocity": 0.93,
      "hand": "right"
    },
    {
      "midi": 91,
      "time": 227.75,
      "duration": 0.25,
      "velocity": 0.93,
      "hand": "right"
    },
    {
      "midi": 89,
      "time": 228,
      "duration": 0.25,
      "velocity": 0.93,
      "hand": "right"
    },
    {
      "midi": 86,
      "time": 228.25,
      "duration": 0.25,
      "velocity": 0.93,
      "hand": "right"
    },
    {
      "midi": 87,
      "time": 228.5,
      "duration": 0.25,
      "velocity": 0.93,
      "hand": "right"
    },
    {
      "midi": 91,
      "time": 228.75,
      "duration": 0.25,
      "velocity": 0.93,
      "hand": "right"
    },
    {
      "midi": 89,
      "time": 229,
      "duration": 0.25,
      "velocity": 0.93,
      "hand": "right"
    },
    {
      "midi": 87,
      "time": 229.25,
      "duration": 0.25,
      "velocity": 0.93,
      "hand": "right"
    },
    {
      "midi": 84,
      "time": 229.5,
      "duration": 0.25,
      "velocity": 0.93,
      "hand": "right"
    },
    {
      "midi": 81,
      "time": 229.75,
      "duration": 0.25,
      "velocity": 0.93,
      "hand": "right"
    },
    {
      "midi": 82,
      "time": 230,
      "duration": 0.25,
      "velocity": 0.93,
      "hand": "right"
    },
    {
      "midi": 86,
      "time": 230.25,
      "duration": 0.25,
      "velocity": 0.93,
      "hand": "right"
    },
    {
      "midi": 84,
      "time": 230.5,
      "duration": 0.25,
      "velocity": 0.93,
      "hand": "right"
    },
    {
      "midi": 82,
      "time": 230.75,
      "duration": 0.25,
      "velocity": 0.93,
      "hand": "right"
    },
    {
      "midi": 79,
      "time": 231,
      "duration": 0.25,
      "velocity": 0.93,
      "hand": "right"
    },
    {
      "midi": 77,
      "time": 231.25,
      "duration": 0.25,
      "velocity": 0.93,
      "hand": "right"
    },
    {
      "midi": 74,
      "time": 231.5,
      "duration": 0.25,
      "velocity": 0.93,
      "hand": "right"
    },
    {
      "midi": 75,
      "time": 231.75,
      "duration": 0.25,
      "velocity": 0.93,
      "hand": "right"
    },
    {
      "midi": 79,
      "time": 232,
      "duration": 0.25,
      "velocity": 0.93,
      "hand": "right"
    },
    {
      "midi": 77,
      "time": 232.25,
      "duration": 0.25,
      "velocity": 0.93,
      "hand": "right"
    },
    {
      "midi": 75,
      "time": 232.5,
      "duration": 0.25,
      "velocity": 0.93,
      "hand": "right"
    },
    {
      "midi": 72,
      "time": 232.75,
      "duration": 0.25,
      "velocity": 0.93,
      "hand": "right"
    },
    {
      "midi": 60,
      "time": 233,
      "duration": 0.25,
      "velocity": 0.09,
      "hand": "right"
    },
    {
      "midi": 69,
      "time": 233,
      "duration": 0.25,
      "velocity": 0.93,
      "hand": "right"
    },
    {
      "midi": 62,
      "time": 233.25,
      "duration": 0.25,
      "velocity": 0.09,
      "hand": "right"
    },
    {
      "midi": 70,
      "time": 233.25,
      "duration": 0.25,
      "velocity": 0.93,
      "hand": "right"
    },
    {
      "midi": 65,
      "time": 233.5,
      "duration": 0.25,
      "velocity": 0.09,
      "hand": "right"
    },
    {
      "midi": 74,
      "time": 233.5,
      "duration": 0.25,
      "velocity": 0.93,
      "hand": "right"
    },
    {
      "midi": 63,
      "time": 233.75,
      "duration": 0.25,
      "velocity": 0.09,
      "hand": "right"
    },
    {
      "midi": 72,
      "time": 233.75,
      "duration": 0.25,
      "velocity": 0.93,
      "hand": "right"
    },
    {
      "midi": 62,
      "time": 234,
      "duration": 0.25,
      "velocity": 0.09,
      "hand": "right"
    },
    {
      "midi": 70,
      "time": 234,
      "duration": 0.25,
      "velocity": 0.93,
      "hand": "right"
    },
    {
      "midi": 58,
      "time": 234.25,
      "duration": 0.25,
      "velocity": 0.09,
      "hand": "left"
    },
    {
      "midi": 67,
      "time": 234.25,
      "duration": 0.25,
      "velocity": 0.93,
      "hand": "right"
    },
    {
      "midi": 57,
      "time": 234.5,
      "duration": 0.25,
      "velocity": 0.09,
      "hand": "left"
    },
    {
      "midi": 65,
      "time": 234.5,
      "duration": 0.25,
      "velocity": 0.93,
      "hand": "right"
    },
    {
      "midi": 53,
      "time": 234.75,
      "duration": 0.25,
      "velocity": 0.09,
      "hand": "left"
    },
    {
      "midi": 62,
      "time": 234.75,
      "duration": 0.25,
      "velocity": 0.93,
      "hand": "right"
    },
    {
      "midi": 55,
      "time": 235,
      "duration": 0.25,
      "velocity": 0.09,
      "hand": "left"
    },
    {
      "midi": 63,
      "time": 235,
      "duration": 0.25,
      "velocity": 0.93,
      "hand": "right"
    },
    {
      "midi": 58,
      "time": 235.25,
      "duration": 0.25,
      "velocity": 0.09,
      "hand": "left"
    },
    {
      "midi": 67,
      "time": 235.25,
      "duration": 0.25,
      "velocity": 0.93,
      "hand": "right"
    },
    {
      "midi": 57,
      "time": 235.5,
      "duration": 0.25,
      "velocity": 0.09,
      "hand": "left"
    },
    {
      "midi": 65,
      "time": 235.5,
      "duration": 0.25,
      "velocity": 0.93,
      "hand": "right"
    },
    {
      "midi": 55,
      "time": 235.75,
      "duration": 0.25,
      "velocity": 0.09,
      "hand": "left"
    },
    {
      "midi": 63,
      "time": 235.75,
      "duration": 0.25,
      "velocity": 0.93,
      "hand": "right"
    },
    {
      "midi": 51,
      "time": 236,
      "duration": 0.25,
      "velocity": 0.09,
      "hand": "left"
    },
    {
      "midi": 60,
      "time": 236,
      "duration": 0.25,
      "velocity": 0.93,
      "hand": "right"
    },
    {
      "midi": 48,
      "time": 236.25,
      "duration": 0.25,
      "velocity": 0.09,
      "hand": "left"
    },
    {
      "midi": 57,
      "time": 236.25,
      "duration": 0.25,
      "velocity": 0.93,
      "hand": "left"
    },
    {
      "midi": 51,
      "time": 236.5,
      "duration": 0.75,
      "velocity": 0.09,
      "hand": "left"
    },
    {
      "midi": 60,
      "time": 236.5,
      "duration": 0.25,
      "velocity": 0.93,
      "hand": "right"
    },
    {
      "midi": 55,
      "time": 236.75,
      "duration": 0.25,
      "velocity": 0.93,
      "hand": "left"
    },
    {
      "midi": 53,
      "time": 237,
      "duration": 1.5,
      "velocity": 0.93,
      "hand": "left"
    },
    {
      "midi": 50,
      "time": 237.25,
      "duration": 0.25,
      "velocity": 0.09,
      "hand": "left"
    },
    {
      "midi": 48,
      "time": 237.5,
      "duration": 0.25,
      "velocity": 0.09,
      "hand": "left"
    },
    {
      "midi": 46,
      "time": 237.75,
      "duration": 0.25,
      "velocity": 0.09,
      "hand": "left"
    },
    {
      "midi": 41,
      "time": 238,
      "duration": 0.5,
      "velocity": 0.09,
      "hand": "left"
    },
    {
      "midi": 57,
      "time": 238,
      "duration": 0.5,
      "velocity": 0.93,
      "hand": "left"
    },
    {
      "midi": 62,
      "time": 238,
      "duration": 0.5,
      "velocity": 0.93,
      "hand": "right"
    },
    {
      "midi": 46,
      "time": 238.5,
      "duration": 1,
      "velocity": 0.09,
      "hand": "left"
    },
    {
      "midi": 53,
      "time": 238.5,
      "duration": 1,
      "velocity": 0.09,
      "hand": "left"
    },
    {
      "midi": 58,
      "time": 238.5,
      "duration": 1,
      "velocity": 0.93,
      "hand": "left"
    },
    {
      "midi": 62,
      "time": 238.5,
      "duration": 1,
      "velocity": 0.93,
      "hand": "right"
    },
    {
      "midi": 41,
      "time": 239.5,
      "duration": 0.5,
      "velocity": 0.09,
      "hand": "left"
    },
    {
      "midi": 53,
      "time": 239.5,
      "duration": 0.5,
      "velocity": 0.09,
      "hand": "left"
    },
    {
      "midi": 57,
      "time": 239.5,
      "duration": 0.5,
      "velocity": 0.93,
      "hand": "left"
    },
    {
      "midi": 62,
      "time": 239.5,
      "duration": 0.5,
      "velocity": 0.93,
      "hand": "right"
    },
    {
      "midi": 46,
      "time": 240,
      "duration": 1,
      "velocity": 0.09,
      "hand": "left"
    },
    {
      "midi": 53,
      "time": 240,
      "duration": 1,
      "velocity": 0.09,
      "hand": "left"
    },
    {
      "midi": 58,
      "time": 240,
      "duration": 1,
      "velocity": 0.93,
      "hand": "left"
    },
    {
      "midi": 62,
      "time": 240,
      "duration": 1,
      "velocity": 0.93,
      "hand": "right"
    },
    {
      "midi": 41,
      "time": 241,
      "duration": 0.5,
      "velocity": 0.09,
      "hand": "left"
    },
    {
      "midi": 53,
      "time": 241,
      "duration": 0.5,
      "velocity": 0.09,
      "hand": "left"
    },
    {
      "midi": 62,
      "time": 241,
      "duration": 0.5,
      "velocity": 0.93,
      "hand": "right"
    },
    {
      "midi": 70,
      "time": 241,
      "duration": 0.5,
      "velocity": 0.93,
      "hand": "right"
    },
    {
      "midi": 46,
      "time": 241.5,
      "duration": 1,
      "velocity": 0.09,
      "hand": "left"
    },
    {
      "midi": 53,
      "time": 241.5,
      "duration": 1,
      "velocity": 0.09,
      "hand": "left"
    },
    {
      "midi": 58,
      "time": 241.5,
      "duration": 1,
      "velocity": 0.71,
      "hand": "left"
    },
    {
      "midi": 62,
      "time": 241.5,
      "duration": 1.5,
      "velocity": 0.71,
      "hand": "right"
    },
    {
      "midi": 40,
      "time": 242.5,
      "duration": 0.5,
      "velocity": 0.09,
      "hand": "left"
    },
    {
      "midi": 52,
      "time": 242.5,
      "duration": 0.5,
      "velocity": 0.09,
      "hand": "left"
    },
    {
      "midi": 56,
      "time": 242.5,
      "duration": 0.5,
      "velocity": 0.71,
      "hand": "left"
    },
    {
      "midi": 45,
      "time": 243,
      "duration": 1,
      "velocity": 0.09,
      "hand": "left"
    },
    {
      "midi": 52,
      "time": 243,
      "duration": 1,
      "velocity": 0.09,
      "hand": "left"
    },
    {
      "midi": 57,
      "time": 243,
      "duration": 1,
      "velocity": 0.93,
      "hand": "left"
    },
    {
      "midi": 61,
      "time": 243,
      "duration": 1,
      "velocity": 0.93,
      "hand": "right"
    },
    {
      "midi": 40,
      "time": 244,
      "duration": 0.5,
      "velocity": 0.09,
      "hand": "left"
    },
    {
      "midi": 52,
      "time": 244,
      "duration": 0.5,
      "velocity": 0.09,
      "hand": "left"
    },
    {
      "midi": 61,
      "time": 244,
      "duration": 0.5,
      "velocity": 0.93,
      "hand": "right"
    },
    {
      "midi": 69,
      "time": 244,
      "duration": 0.5,
      "velocity": 0.93,
      "hand": "right"
    },
    {
      "midi": 45,
      "time": 244.5,
      "duration": 1,
      "velocity": 0.09,
      "hand": "left"
    },
    {
      "midi": 52,
      "time": 244.5,
      "duration": 1,
      "velocity": 0.09,
      "hand": "left"
    },
    {
      "midi": 57,
      "time": 244.5,
      "duration": 1,
      "velocity": 0.93,
      "hand": "left"
    },
    {
      "midi": 61,
      "time": 244.5,
      "duration": 1,
      "velocity": 0.93,
      "hand": "right"
    },
    {
      "midi": 38,
      "time": 245.5,
      "duration": 0.5,
      "velocity": 0.09,
      "hand": "left"
    },
    {
      "midi": 54,
      "time": 245.5,
      "duration": 0.5,
      "velocity": 0.93,
      "hand": "left"
    },
    {
      "midi": 60,
      "time": 245.5,
      "duration": 0.5,
      "velocity": 0.93,
      "hand": "right"
    },
    {
      "midi": 43,
      "time": 246,
      "duration": 1,
      "velocity": 0.09,
      "hand": "left"
    },
    {
      "midi": 50,
      "time": 246,
      "duration": 1,
      "velocity": 0.09,
      "hand": "left"
    },
    {
      "midi": 55,
      "time": 246,
      "duration": 1,
      "velocity": 0.93,
      "hand": "left"
    },
    {
      "midi": 58,
      "time": 246,
      "duration": 1,
      "velocity": 0.93,
      "hand": "left"
    },
    {
      "midi": 36,
      "time": 247,
      "duration": 0.5,
      "velocity": 0.09,
      "hand": "left"
    },
    {
      "midi": 55,
      "time": 247,
      "duration": 0.5,
      "velocity": 0.93,
      "hand": "left"
    },
    {
      "midi": 60,
      "time": 247,
      "duration": 0.5,
      "velocity": 0.93,
      "hand": "right"
    },
    {
      "midi": 63,
      "time": 247,
      "duration": 0.5,
      "velocity": 0.93,
      "hand": "right"
    },
    {
      "midi": 41,
      "time": 247.5,
      "duration": 1,
      "velocity": 0.09,
      "hand": "left"
    },
    {
      "midi": 53,
      "time": 247.5,
      "duration": 1,
      "velocity": 0.93,
      "hand": "left"
    },
    {
      "midi": 58,
      "time": 247.5,
      "duration": 1,
      "velocity": 0.93,
      "hand": "left"
    },
    {
      "midi": 62,
      "time": 247.5,
      "duration": 1,
      "velocity": 0.93,
      "hand": "right"
    },
    {
      "midi": 41,
      "time": 248.5,
      "duration": 0.5,
      "velocity": 0.09,
      "hand": "left"
    },
    {
      "midi": 53,
      "time": 248.5,
      "duration": 0.5,
      "velocity": 0.93,
      "hand": "left"
    },
    {
      "midi": 57,
      "time": 248.5,
      "duration": 0.5,
      "velocity": 0.93,
      "hand": "left"
    },
    {
      "midi": 60,
      "time": 248.5,
      "duration": 0.5,
      "velocity": 0.93,
      "hand": "right"
    },
    {
      "midi": 34,
      "time": 249,
      "duration": 0.5,
      "velocity": 0.09,
      "hand": "left"
    },
    {
      "midi": 46,
      "time": 249,
      "duration": 0.5,
      "velocity": 0.09,
      "hand": "left"
    },
    {
      "midi": 53,
      "time": 249,
      "duration": 0.5,
      "velocity": 0.93,
      "hand": "left"
    },
    {
      "midi": 58,
      "time": 249,
      "duration": 0.5,
      "velocity": 0.93,
      "hand": "left"
    },
    {
      "midi": 62,
      "time": 249,
      "duration": 0.5,
      "velocity": 0.93,
      "hand": "right"
    },
    {
      "midi": 46,
      "time": 250,
      "duration": 0.5,
      "velocity": 0.09,
      "hand": "left"
    },
    {
      "midi": 53,
      "time": 250,
      "duration": 0.5,
      "velocity": 0.09,
      "hand": "left"
    },
    {
      "midi": 58,
      "time": 250,
      "duration": 0.5,
      "velocity": 0.09,
      "hand": "left"
    },
    {
      "midi": 62,
      "time": 250,
      "duration": 0.5,
      "velocity": 0.93,
      "hand": "right"
    },
    {
      "midi": 65,
      "time": 250,
      "duration": 0.5,
      "velocity": 0.93,
      "hand": "right"
    },
    {
      "midi": 74,
      "time": 250,
      "duration": 0.5,
      "velocity": 0.93,
      "hand": "right"
    },
    {
      "midi": 45,
      "time": 250.5,
      "duration": 1.5,
      "velocity": 0.09,
      "hand": "left"
    },
    {
      "midi": 50,
      "time": 250.5,
      "duration": 2.5,
      "velocity": 0.09,
      "hand": "left"
    },
    {
      "midi": 57,
      "time": 250.5,
      "duration": 1.5,
      "velocity": 0.09,
      "hand": "left"
    },
    {
      "midi": 60,
      "time": 250.5,
      "duration": 1.5,
      "velocity": 0.93,
      "hand": "right"
    },
    {
      "midi": 62,
      "time": 250.5,
      "duration": 1.5,
      "velocity": 0.93,
      "hand": "right"
    },
    {
      "midi": 66,
      "time": 250.5,
      "duration": 1.5,
      "velocity": 0.93,
      "hand": "right"
    },
    {
      "midi": 74,
      "time": 250.5,
      "duration": 1.5,
      "velocity": 0.93,
      "hand": "right"
    },
    {
      "midi": 43,
      "time": 252,
      "duration": 1,
      "velocity": 0.09,
      "hand": "left"
    },
    {
      "midi": 58,
      "time": 252,
      "duration": 1,
      "velocity": 0.09,
      "hand": "left"
    },
    {
      "midi": 62,
      "time": 252,
      "duration": 1,
      "velocity": 0.93,
      "hand": "right"
    },
    {
      "midi": 67,
      "time": 252,
      "duration": 1,
      "velocity": 0.93,
      "hand": "right"
    },
    {
      "midi": 70,
      "time": 252,
      "duration": 1,
      "velocity": 0.93,
      "hand": "right"
    },
    {
      "midi": 48,
      "time": 253,
      "duration": 0.5,
      "velocity": 0.09,
      "hand": "left"
    },
    {
      "midi": 58,
      "time": 253,
      "duration": 0.25,
      "velocity": 0.93,
      "hand": "left"
    },
    {
      "midi": 63,
      "time": 253,
      "duration": 0.25,
      "velocity": 0.93,
      "hand": "right"
    },
    {
      "midi": 67,
      "time": 253,
      "duration": 0.25,
      "velocity": 0.93,
      "hand": "right"
    },
    {
      "midi": 58,
      "time": 253.25,
      "duration": 0.125,
      "velocity": 0.93,
      "hand": "left"
    },
    {
      "midi": 48,
      "time": 253.5,
      "duration": 1,
      "velocity": 0.09,
      "hand": "left"
    },
    {
      "midi": 58,
      "time": 253.5,
      "duration": 1,
      "velocity": 0.93,
      "hand": "left"
    },
    {
      "midi": 63,
      "time": 253.5,
      "duration": 1,
      "velocity": 0.93,
      "hand": "right"
    },
    {
      "midi": 67,
      "time": 253.5,
      "duration": 1,
      "velocity": 0.93,
      "hand": "right"
    },
    {
      "midi": 69,
      "time": 253.5,
      "duration": 0.125,
      "velocity": 0.93,
      "hand": "right"
    },
    {
      "midi": 41,
      "time": 254.5,
      "duration": 0.5,
      "velocity": 0.09,
      "hand": "left"
    },
    {
      "midi": 53,
      "time": 254.5,
      "duration": 0.5,
      "velocity": 0.09,
      "hand": "left"
    },
    {
      "midi": 57,
      "time": 254.5,
      "duration": 0.5,
      "velocity": 0.93,
      "hand": "left"
    },
    {
      "midi": 63,
      "time": 254.5,
      "duration": 0.5,
      "velocity": 0.93,
      "hand": "right"
    },
    {
      "midi": 65,
      "time": 254.5,
      "duration": 1,
      "velocity": 0.93,
      "hand": "right"
    },
    {
      "midi": 34,
      "time": 255,
      "duration": 0.5,
      "velocity": 0.09,
      "hand": "left"
    },
    {
      "midi": 46,
      "time": 255,
      "duration": 0.5,
      "velocity": 0.09,
      "hand": "left"
    },
    {
      "midi": 58,
      "time": 255,
      "duration": 0.5,
      "velocity": 0.93,
      "hand": "left"
    },
    {
      "midi": 62,
      "time": 255,
      "duration": 0.5,
      "velocity": 0.93,
      "hand": "right"
    },
    {
      "midi": 46,
      "time": 256,
      "duration": 0.5,
      "velocity": 0.09,
      "hand": "left"
    },
    {
      "midi": 53,
      "time": 256,
      "duration": 0.5,
      "velocity": 0.09,
      "hand": "left"
    },
    {
      "midi": 58,
      "time": 256,
      "duration": 0.5,
      "velocity": 0.09,
      "hand": "left"
    },
    {
      "midi": 62,
      "time": 256,
      "duration": 0.5,
      "velocity": 0.93,
      "hand": "right"
    },
    {
      "midi": 65,
      "time": 256,
      "duration": 0.5,
      "velocity": 0.93,
      "hand": "right"
    },
    {
      "midi": 74,
      "time": 256,
      "duration": 0.5,
      "velocity": 0.93,
      "hand": "right"
    },
    {
      "midi": 46,
      "time": 256.5,
      "duration": 1,
      "velocity": 0.09,
      "hand": "left"
    },
    {
      "midi": 53,
      "time": 256.5,
      "duration": 1,
      "velocity": 0.09,
      "hand": "left"
    },
    {
      "midi": 58,
      "time": 256.5,
      "duration": 1,
      "velocity": 0.09,
      "hand": "left"
    },
    {
      "midi": 62,
      "time": 256.5,
      "duration": 1,
      "velocity": 0.93,
      "hand": "right"
    },
    {
      "midi": 70,
      "time": 256.5,
      "duration": 1,
      "velocity": 0.93,
      "hand": "right"
    },
    {
      "midi": 58,
      "time": 257.5,
      "duration": 1,
      "velocity": 0.09,
      "hand": "left"
    },
    {
      "midi": 61,
      "time": 257.5,
      "duration": 1,
      "velocity": 0.09,
      "hand": "right"
    },
    {
      "midi": 64,
      "time": 257.5,
      "duration": 1,
      "velocity": 0.09,
      "hand": "right"
    },
    {
      "midi": 67,
      "time": 257.5,
      "duration": 1,
      "velocity": 0.93,
      "hand": "right"
    },
    {
      "midi": 70,
      "time": 257.5,
      "duration": 1,
      "velocity": 0.93,
      "hand": "right"
    },
    {
      "midi": 79,
      "time": 257.5,
      "duration": 1,
      "velocity": 0.93,
      "hand": "right"
    },
    {
      "midi": 58,
      "time": 258.5,
      "duration": 0.5,
      "velocity": 0.09,
      "hand": "left"
    },
    {
      "midi": 62,
      "time": 258.5,
      "duration": 0.5,
      "velocity": 0.09,
      "hand": "right"
    },
    {
      "midi": 65,
      "time": 258.5,
      "duration": 0.5,
      "velocity": 0.09,
      "hand": "right"
    },
    {
      "midi": 70,
      "time": 258.5,
      "duration": 0.5,
      "velocity": 0.93,
      "hand": "right"
    },
    {
      "midi": 77,
      "time": 258.5,
      "duration": 0.5,
      "velocity": 0.93,
      "hand": "right"
    },
    {
      "midi": 58,
      "time": 259,
      "duration": 0.5,
      "velocity": 0.09,
      "hand": "left"
    },
    {
      "midi": 61,
      "time": 259,
      "duration": 0.5,
      "velocity": 0.09,
      "hand": "right"
    },
    {
      "midi": 67,
      "time": 259,
      "duration": 0.5,
      "velocity": 0.09,
      "hand": "right"
    },
    {
      "midi": 70,
      "time": 259,
      "duration": 0.5,
      "velocity": 0.93,
      "hand": "right"
    },
    {
      "midi": 76,
      "time": 259,
      "duration": 0.5,
      "velocity": 0.93,
      "hand": "right"
    },
    {
      "midi": 58,
      "time": 259.5,
      "duration": 1,
      "velocity": 0.09,
      "hand": "left"
    },
    {
      "midi": 62,
      "time": 259.5,
      "duration": 1,
      "velocity": 0.09,
      "hand": "right"
    },
    {
      "midi": 65,
      "time": 259.5,
      "duration": 1,
      "velocity": 0.09,
      "hand": "right"
    },
    {
      "midi": 68,
      "time": 259.5,
      "duration": 2.5,
      "velocity": 0.93,
      "hand": "right"
    },
    {
      "midi": 70,
      "time": 259.5,
      "duration": 2.5,
      "velocity": 0.93,
      "hand": "right"
    },
    {
      "midi": 77,
      "time": 259.5,
      "duration": 2.5,
      "velocity": 0.93,
      "hand": "right"
    },
    {
      "midi": 34,
      "time": 260.5,
      "duration": 0.5,
      "velocity": 0.09,
      "hand": "left"
    },
    {
      "midi": 46,
      "time": 260.5,
      "duration": 0.5,
      "velocity": 0.09,
      "hand": "left"
    },
    {
      "midi": 34,
      "time": 261,
      "duration": 0.5,
      "velocity": 0.09,
      "hand": "left"
    },
    {
      "midi": 46,
      "time": 261,
      "duration": 0.5,
      "velocity": 0.09,
      "hand": "left"
    },
    {
      "midi": 46,
      "time": 262,
      "duration": 0.5,
      "velocity": 0.09,
      "hand": "left"
    },
    {
      "midi": 58,
      "time": 262,
      "duration": 0.5,
      "velocity": 0.09,
      "hand": "left"
    },
    {
      "midi": 62,
      "time": 262,
      "duration": 0.5,
      "velocity": 0.93,
      "hand": "right"
    },
    {
      "midi": 68,
      "time": 262,
      "duration": 0.5,
      "velocity": 0.93,
      "hand": "right"
    },
    {
      "midi": 70,
      "time": 262,
      "duration": 0.5,
      "velocity": 0.93,
      "hand": "right"
    },
    {
      "midi": 46,
      "time": 262.5,
      "duration": 1,
      "velocity": 0.09,
      "hand": "left"
    },
    {
      "midi": 58,
      "time": 262.5,
      "duration": 1,
      "velocity": 0.09,
      "hand": "left"
    },
    {
      "midi": 62,
      "time": 262.5,
      "duration": 1,
      "velocity": 0.71,
      "hand": "right"
    },
    {
      "midi": 68,
      "time": 262.5,
      "duration": 1,
      "velocity": 0.71,
      "hand": "right"
    },
    {
      "midi": 70,
      "time": 262.5,
      "duration": 1.5,
      "velocity": 0.71,
      "hand": "right"
    },
    {
      "midi": 51,
      "time": 263.5,
      "duration": 0.5,
      "velocity": 0.09,
      "hand": "left"
    },
    {
      "midi": 58,
      "time": 263.5,
      "duration": 0.5,
      "velocity": 0.09,
      "hand": "left"
    },
    {
      "midi": 63,
      "time": 263.5,
      "duration": 0.5,
      "velocity": 0.71,
      "hand": "right"
    },
    {
      "midi": 67,
      "time": 263.5,
      "duration": 0.5,
      "velocity": 0.71,
      "hand": "right"
    },
    {
      "midi": 51,
      "time": 264,
      "duration": 1,
      "velocity": 0.09,
      "hand": "left"
    },
    {
      "midi": 58,
      "time": 264,
      "duration": 1,
      "velocity": 0.09,
      "hand": "left"
    },
    {
      "midi": 63,
      "time": 264,
      "duration": 1,
      "velocity": 0.93,
      "hand": "right"
    },
    {
      "midi": 67,
      "time": 264,
      "duration": 1,
      "velocity": 0.93,
      "hand": "right"
    },
    {
      "midi": 70,
      "time": 264,
      "duration": 1,
      "velocity": 0.93,
      "hand": "right"
    },
    {
      "midi": 48,
      "time": 265,
      "duration": 0.5,
      "velocity": 0.09,
      "hand": "left"
    },
    {
      "midi": 60,
      "time": 265,
      "duration": 0.5,
      "velocity": 0.09,
      "hand": "right"
    },
    {
      "midi": 63,
      "time": 265,
      "duration": 0.5,
      "velocity": 0.93,
      "hand": "right"
    },
    {
      "midi": 67,
      "time": 265,
      "duration": 0.5,
      "velocity": 0.93,
      "hand": "right"
    },
    {
      "midi": 75,
      "time": 265,
      "duration": 0.5,
      "velocity": 0.93,
      "hand": "right"
    },
    {
      "midi": 48,
      "time": 265.5,
      "duration": 1,
      "velocity": 0.09,
      "hand": "left"
    },
    {
      "midi": 60,
      "time": 265.5,
      "duration": 1,
      "velocity": 0.09,
      "hand": "right"
    },
    {
      "midi": 63,
      "time": 265.5,
      "duration": 1,
      "velocity": 0.93,
      "hand": "right"
    },
    {
      "midi": 67,
      "time": 265.5,
      "duration": 1,
      "velocity": 0.93,
      "hand": "right"
    },
    {
      "midi": 75,
      "time": 265.5,
      "duration": 1,
      "velocity": 0.93,
      "hand": "right"
    },
    {
      "midi": 48,
      "time": 266.5,
      "duration": 0.5,
      "velocity": 0.09,
      "hand": "left"
    },
    {
      "midi": 55,
      "time": 266.5,
      "duration": 0.5,
      "velocity": 0.09,
      "hand": "left"
    },
    {
      "midi": 60,
      "time": 266.5,
      "duration": 0.5,
      "velocity": 0.93,
      "hand": "right"
    },
    {
      "midi": 63,
      "time": 266.5,
      "duration": 0.5,
      "velocity": 0.93,
      "hand": "right"
    },
    {
      "midi": 67,
      "time": 266.5,
      "duration": 0.5,
      "velocity": 0.93,
      "hand": "right"
    },
    {
      "midi": 48,
      "time": 267,
      "duration": 1,
      "velocity": 0.09,
      "hand": "left"
    },
    {
      "midi": 55,
      "time": 267,
      "duration": 1,
      "velocity": 0.09,
      "hand": "left"
    },
    {
      "midi": 60,
      "time": 267,
      "duration": 1,
      "velocity": 0.93,
      "hand": "right"
    },
    {
      "midi": 63,
      "time": 267,
      "duration": 1,
      "velocity": 0.93,
      "hand": "right"
    },
    {
      "midi": 67,
      "time": 267,
      "duration": 1,
      "velocity": 0.93,
      "hand": "right"
    },
    {
      "midi": 43,
      "time": 268,
      "duration": 0.5,
      "velocity": 0.09,
      "hand": "left"
    },
    {
      "midi": 55,
      "time": 268,
      "duration": 0.5,
      "velocity": 0.09,
      "hand": "left"
    },
    {
      "midi": 58,
      "time": 268,
      "duration": 0.5,
      "velocity": 0.93,
      "hand": "left"
    },
    {
      "midi": 62,
      "time": 268,
      "duration": 0.5,
      "velocity": 0.93,
      "hand": "right"
    },
    {
      "midi": 70,
      "time": 268,
      "duration": 0.5,
      "velocity": 0.93,
      "hand": "right"
    },
    {
      "midi": 43,
      "time": 268.5,
      "duration": 1,
      "velocity": 0.09,
      "hand": "left"
    },
    {
      "midi": 55,
      "time": 268.5,
      "duration": 1,
      "velocity": 0.09,
      "hand": "left"
    },
    {
      "midi": 58,
      "time": 268.5,
      "duration": 1,
      "velocity": 0.93,
      "hand": "left"
    },
    {
      "midi": 62,
      "time": 268.5,
      "duration": 1,
      "velocity": 0.93,
      "hand": "right"
    },
    {
      "midi": 70,
      "time": 268.5,
      "duration": 1,
      "velocity": 0.93,
      "hand": "right"
    },
    {
      "midi": 48,
      "time": 269.5,
      "duration": 0.5,
      "velocity": 0.09,
      "hand": "left"
    },
    {
      "midi": 58,
      "time": 269.5,
      "duration": 0.5,
      "velocity": 0.93,
      "hand": "left"
    },
    {
      "midi": 64,
      "time": 269.5,
      "duration": 0.5,
      "velocity": 0.93,
      "hand": "right"
    },
    {
      "midi": 72,
      "time": 269.5,
      "duration": 0.5,
      "velocity": 0.93,
      "hand": "right"
    },
    {
      "midi": 41,
      "time": 270,
      "duration": 3,
      "velocity": 0.09,
      "hand": "left"
    },
    {
      "midi": 48,
      "time": 270,
      "duration": 3,
      "velocity": 0.09,
      "hand": "left"
    },
    {
      "midi": 58,
      "time": 270,
      "duration": 0.5,
      "velocity": 0.71,
      "hand": "left"
    },
    {
      "midi": 63,
      "time": 270,
      "duration": 3,
      "velocity": 0.71,
      "hand": "right"
    },
    {
      "midi": 65,
      "time": 270,
      "duration": 4,
      "velocity": 0.71,
      "hand": "right"
    },
    {
      "midi": 57,
      "time": 270.5,
      "duration": 0.5,
      "velocity": 0.71,
      "hand": "left"
    },
    {
      "midi": 62,
      "time": 271,
      "duration": 0.5,
      "velocity": 0.71,
      "hand": "right"
    },
    {
      "midi": 60,
      "time": 271.5,
      "duration": 0.5,
      "velocity": 0.71,
      "hand": "right"
    },
    {
      "midi": 55,
      "time": 272,
      "duration": 0.5,
      "velocity": 0.71,
      "hand": "left"
    },
    {
      "midi": 57,
      "time": 272.5,
      "duration": 0.5,
      "velocity": 0.71,
      "hand": "left"
    },
    {
      "midi": 46,
      "time": 273,
      "duration": 1.5,
      "velocity": 0.09,
      "hand": "left"
    },
    {
      "midi": 55,
      "time": 273,
      "duration": 0.5,
      "velocity": 0.71,
      "hand": "left"
    },
    {
      "midi": 62,
      "time": 273,
      "duration": 1,
      "velocity": 0.71,
      "hand": "right"
    },
    {
      "midi": 53,
      "time": 273.5,
      "duration": 1,
      "velocity": 0.71,
      "hand": "left"
    },
    {
      "midi": 62,
      "time": 274,
      "duration": 0.5,
      "velocity": 0.71,
      "hand": "right"
    },
    {
      "midi": 74,
      "time": 274,
      "duration": 0.5,
      "velocity": 0.71,
      "hand": "right"
    },
    {
      "midi": 46,
      "time": 274.5,
      "duration": 1,
      "velocity": 0.09,
      "hand": "left"
    },
    {
      "midi": 53,
      "time": 274.5,
      "duration": 1,
      "velocity": 0.09,
      "hand": "left"
    },
    {
      "midi": 62,
      "time": 274.5,
      "duration": 1,
      "velocity": 0.93,
      "hand": "right"
    },
    {
      "midi": 74,
      "time": 274.5,
      "duration": 1,
      "velocity": 0.93,
      "hand": "right"
    },
    {
      "midi": 46,
      "time": 275.5,
      "duration": 0.5,
      "velocity": 0.09,
      "hand": "left"
    },
    {
      "midi": 54,
      "time": 275.5,
      "duration": 0.5,
      "velocity": 0.09,
      "hand": "left"
    },
    {
      "midi": 62,
      "time": 275.5,
      "duration": 0.5,
      "velocity": 0.93,
      "hand": "right"
    },
    {
      "midi": 70,
      "time": 275.5,
      "duration": 0.5,
      "velocity": 0.93,
      "hand": "right"
    },
    {
      "midi": 46,
      "time": 276,
      "duration": 1,
      "velocity": 0.09,
      "hand": "left"
    },
    {
      "midi": 54,
      "time": 276,
      "duration": 1,
      "velocity": 0.09,
      "hand": "left"
    },
    {
      "midi": 62,
      "time": 276,
      "duration": 1,
      "velocity": 0.93,
      "hand": "right"
    },
    {
      "midi": 70,
      "time": 276,
      "duration": 1,
      "velocity": 0.93,
      "hand": "right"
    },
    {
      "midi": 46,
      "time": 277,
      "duration": 0.5,
      "velocity": 0.09,
      "hand": "left"
    },
    {
      "midi": 55,
      "time": 277,
      "duration": 0.5,
      "velocity": 0.09,
      "hand": "left"
    },
    {
      "midi": 62,
      "time": 277,
      "duration": 0.25,
      "velocity": 0.93,
      "hand": "right"
    },
    {
      "midi": 67,
      "time": 277,
      "duration": 0.25,
      "velocity": 0.93,
      "hand": "right"
    },
    {
      "midi": 58,
      "time": 277.25,
      "duration": 0.125,
      "velocity": 0.93,
      "hand": "left"
    },
    {
      "midi": 48,
      "time": 277.5,
      "duration": 1,
      "velocity": 0.09,
      "hand": "left"
    },
    {
      "midi": 55,
      "time": 277.5,
      "duration": 1,
      "velocity": 0.09,
      "hand": "left"
    },
    {
      "midi": 58,
      "time": 277.5,
      "duration": 1,
      "velocity": 0.93,
      "hand": "left"
    },
    {
      "midi": 63,
      "time": 277.5,
      "duration": 1,
      "velocity": 0.93,
      "hand": "right"
    },
    {
      "midi": 67,
      "time": 277.5,
      "duration": 1,
      "velocity": 0.93,
      "hand": "right"
    },
    {
      "midi": 69,
      "time": 277.5,
      "duration": 0.125,
      "velocity": 0.93,
      "hand": "right"
    },
    {
      "midi": 48,
      "time": 278.5,
      "duration": 0.5,
      "velocity": 0.09,
      "hand": "left"
    },
    {
      "midi": 57,
      "time": 278.5,
      "duration": 0.5,
      "velocity": 0.09,
      "hand": "left"
    },
    {
      "midi": 63,
      "time": 278.5,
      "duration": 0.5,
      "velocity": 0.93,
      "hand": "right"
    },
    {
      "midi": 65,
      "time": 278.5,
      "duration": 0.5,
      "velocity": 0.93,
      "hand": "right"
    },
    {
      "midi": 50,
      "time": 279,
      "duration": 1,
      "velocity": 0.09,
      "hand": "left"
    },
    {
      "midi": 57,
      "time": 279,
      "duration": 1,
      "velocity": 0.09,
      "hand": "left"
    },
    {
      "midi": 62,
      "time": 279,
      "duration": 1,
      "velocity": 0.93,
      "hand": "right"
    },
    {
      "midi": 65,
      "time": 279,
      "duration": 1,
      "velocity": 0.93,
      "hand": "right"
    },
    {
      "midi": 50,
      "time": 280,
      "duration": 0.5,
      "velocity": 0.09,
      "hand": "left"
    },
    {
      "midi": 57,
      "time": 280,
      "duration": 0.5,
      "velocity": 0.09,
      "hand": "left"
    },
    {
      "midi": 60,
      "time": 280,
      "duration": 0.5,
      "velocity": 0.09,
      "hand": "right"
    },
    {
      "midi": 66,
      "time": 280,
      "duration": 0.5,
      "velocity": 0.93,
      "hand": "right"
    },
    {
      "midi": 74,
      "time": 280,
      "duration": 0.5,
      "velocity": 0.93,
      "hand": "right"
    },
    {
      "midi": 51,
      "time": 280.5,
      "duration": 1,
      "velocity": 0.09,
      "hand": "left"
    },
    {
      "midi": 55,
      "time": 280.5,
      "duration": 1,
      "velocity": 0.09,
      "hand": "left"
    },
    {
      "midi": 58,
      "time": 280.5,
      "duration": 1,
      "velocity": 0.09,
      "hand": "left"
    },
    {
      "midi": 67,
      "time": 280.5,
      "duration": 1,
      "velocity": 0.93,
      "hand": "right"
    },
    {
      "midi": 70,
      "time": 280.5,
      "duration": 1,
      "velocity": 0.93,
      "hand": "right"
    },
    {
      "midi": 52,
      "time": 281.5,
      "duration": 1,
      "velocity": 0.09,
      "hand": "left"
    },
    {
      "midi": 58,
      "time": 281.5,
      "duration": 1,
      "velocity": 0.09,
      "hand": "left"
    },
    {
      "midi": 61,
      "time": 281.5,
      "duration": 1,
      "velocity": 0.09,
      "hand": "right"
    },
    {
      "midi": 67,
      "time": 281.5,
      "duration": 1,
      "velocity": 0.93,
      "hand": "right"
    },
    {
      "midi": 70,
      "time": 281.5,
      "duration": 1,
      "velocity": 0.93,
      "hand": "right"
    },
    {
      "midi": 79,
      "time": 281.5,
      "duration": 1,
      "velocity": 0.93,
      "hand": "right"
    },
    {
      "midi": 53,
      "time": 282.5,
      "duration": 0.5,
      "velocity": 0.09,
      "hand": "left"
    },
    {
      "midi": 58,
      "time": 282.5,
      "duration": 0.5,
      "velocity": 0.09,
      "hand": "left"
    },
    {
      "midi": 62,
      "time": 282.5,
      "duration": 0.5,
      "velocity": 0.09,
      "hand": "right"
    },
    {
      "midi": 65,
      "time": 282.5,
      "duration": 0.5,
      "velocity": 0.93,
      "hand": "right"
    },
    {
      "midi": 70,
      "time": 282.5,
      "duration": 0.5,
      "velocity": 0.93,
      "hand": "right"
    },
    {
      "midi": 77,
      "time": 282.5,
      "duration": 0.5,
      "velocity": 0.93,
      "hand": "right"
    },
    {
      "midi": 55,
      "time": 283,
      "duration": 0.5,
      "velocity": 0.09,
      "hand": "left"
    },
    {
      "midi": 58,
      "time": 283,
      "duration": 0.5,
      "velocity": 0.09,
      "hand": "left"
    },
    {
      "midi": 61,
      "time": 283,
      "duration": 0.5,
      "velocity": 0.09,
      "hand": "right"
    },
    {
      "midi": 64,
      "time": 283,
      "duration": 0.5,
      "velocity": 0.93,
      "hand": "right"
    },
    {
      "midi": 70,
      "time": 283,
      "duration": 0.5,
      "velocity": 0.93,
      "hand": "right"
    },
    {
      "midi": 76,
      "time": 283,
      "duration": 0.5,
      "velocity": 0.93,
      "hand": "right"
    },
    {
      "midi": 56,
      "time": 283.5,
      "duration": 1,
      "velocity": 0.09,
      "hand": "left"
    },
    {
      "midi": 58,
      "time": 283.5,
      "duration": 1,
      "velocity": 0.09,
      "hand": "left"
    },
    {
      "midi": 62,
      "time": 283.5,
      "duration": 1,
      "velocity": 0.09,
      "hand": "right"
    },
    {
      "midi": 65,
      "time": 283.5,
      "duration": 2.5,
      "velocity": 0.93,
      "hand": "right"
    },
    {
      "midi": 70,
      "time": 283.5,
      "duration": 2.5,
      "velocity": 0.93,
      "hand": "right"
    },
    {
      "midi": 77,
      "time": 283.5,
      "duration": 2.5,
      "velocity": 0.93,
      "hand": "right"
    },
    {
      "midi": 34,
      "time": 284.5,
      "duration": 0.5,
      "velocity": 0.09,
      "hand": "left"
    },
    {
      "midi": 46,
      "time": 284.5,
      "duration": 0.5,
      "velocity": 0.09,
      "hand": "left"
    },
    {
      "midi": 34,
      "time": 285,
      "duration": 0.5,
      "velocity": 0.09,
      "hand": "left"
    },
    {
      "midi": 46,
      "time": 285,
      "duration": 0.5,
      "velocity": 0.09,
      "hand": "left"
    },
    {
      "midi": 46,
      "time": 286,
      "duration": 0.5,
      "velocity": 0.09,
      "hand": "left"
    },
    {
      "midi": 53,
      "time": 286,
      "duration": 0.5,
      "velocity": 0.09,
      "hand": "left"
    },
    {
      "midi": 58,
      "time": 286,
      "duration": 0.5,
      "velocity": 0.09,
      "hand": "left"
    },
    {
      "midi": 62,
      "time": 286,
      "duration": 0.5,
      "velocity": 0.71,
      "hand": "right"
    },
    {
      "midi": 68,
      "time": 286,
      "duration": 0.5,
      "velocity": 0.71,
      "hand": "right"
    },
    {
      "midi": 70,
      "time": 286,
      "duration": 0.5,
      "velocity": 0.71,
      "hand": "right"
    },
    {
      "midi": 46,
      "time": 286.5,
      "duration": 1,
      "velocity": 0.09,
      "hand": "left"
    },
    {
      "midi": 53,
      "time": 286.5,
      "duration": 1,
      "velocity": 0.09,
      "hand": "left"
    },
    {
      "midi": 58,
      "time": 286.5,
      "duration": 1,
      "velocity": 0.09,
      "hand": "left"
    },
    {
      "midi": 62,
      "time": 286.5,
      "duration": 1,
      "velocity": 0.71,
      "hand": "right"
    },
    {
      "midi": 68,
      "time": 286.5,
      "duration": 1,
      "velocity": 0.71,
      "hand": "right"
    },
    {
      "midi": 70,
      "time": 286.5,
      "duration": 2.5,
      "velocity": 0.71,
      "hand": "right"
    },
    {
      "midi": 51,
      "time": 287.5,
      "duration": 0.5,
      "velocity": 0.09,
      "hand": "left"
    },
    {
      "midi": 58,
      "time": 287.5,
      "duration": 0.5,
      "velocity": 0.09,
      "hand": "left"
    },
    {
      "midi": 63,
      "time": 287.5,
      "duration": 0.5,
      "velocity": 0.71,
      "hand": "right"
    },
    {
      "midi": 67,
      "time": 287.5,
      "duration": 0.5,
      "velocity": 0.71,
      "hand": "right"
    },
    {
      "midi": 51,
      "time": 288,
      "duration": 1,
      "velocity": 0.09,
      "hand": "left"
    },
    {
      "midi": 58,
      "time": 288,
      "duration": 1,
      "velocity": 0.09,
      "hand": "left"
    },
    {
      "midi": 63,
      "time": 288,
      "duration": 1,
      "velocity": 0.71,
      "hand": "right"
    },
    {
      "midi": 67,
      "time": 288,
      "duration": 1,
      "velocity": 0.71,
      "hand": "right"
    },
    {
      "midi": 51,
      "time": 289,
      "duration": 0.5,
      "velocity": 0.09,
      "hand": "left"
    },
    {
      "midi": 58,
      "time": 289,
      "duration": 0.5,
      "velocity": 0.09,
      "hand": "left"
    },
    {
      "midi": 67,
      "time": 289,
      "duration": 0.5,
      "velocity": 0.93,
      "hand": "right"
    },
    {
      "midi": 75,
      "time": 289,
      "duration": 0.5,
      "velocity": 0.93,
      "hand": "right"
    },
    {
      "midi": 51,
      "time": 289.5,
      "duration": 2.5,
      "velocity": 0.09,
      "hand": "left"
    },
    {
      "midi": 58,
      "time": 289.5,
      "duration": 2.5,
      "velocity": 0.09,
      "hand": "left"
    },
    {
      "midi": 67,
      "time": 289.5,
      "duration": 2.5,
      "velocity": 0.93,
      "hand": "right"
    },
    {
      "midi": 75,
      "time": 289.5,
      "duration": 2.5,
      "velocity": 0.93,
      "hand": "right"
    },
    {
      "midi": 51,
      "time": 292,
      "duration": 0.5,
      "velocity": 0.09,
      "hand": "left"
    },
    {
      "midi": 60,
      "time": 292,
      "duration": 0.5,
      "velocity": 0.93,
      "hand": "right"
    },
    {
      "midi": 67,
      "time": 292,
      "duration": 0.5,
      "velocity": 0.93,
      "hand": "right"
    },
    {
      "midi": 43,
      "time": 292.5,
      "duration": 1,
      "velocity": 0.09,
      "hand": "left"
    },
    {
      "midi": 55,
      "time": 292.5,
      "duration": 1,
      "velocity": 0.09,
      "hand": "left"
    },
    {
      "midi": 58,
      "time": 292.5,
      "duration": 1,
      "velocity": 0.93,
      "hand": "left"
    },
    {
      "midi": 62,
      "time": 292.5,
      "duration": 1,
      "velocity": 0.93,
      "hand": "right"
    },
    {
      "midi": 70,
      "time": 292.5,
      "duration": 1,
      "velocity": 0.93,
      "hand": "right"
    },
    {
      "midi": 48,
      "time": 293.5,
      "duration": 0.5,
      "velocity": 0.09,
      "hand": "left"
    },
    {
      "midi": 58,
      "time": 293.5,
      "duration": 0.5,
      "velocity": 0.93,
      "hand": "left"
    },
    {
      "midi": 64,
      "time": 293.5,
      "duration": 0.5,
      "velocity": 0.93,
      "hand": "right"
    },
    {
      "midi": 72,
      "time": 293.5,
      "duration": 0.5,
      "velocity": 0.93,
      "hand": "right"
    },
    {
      "midi": 41,
      "time": 294,
      "duration": 1,
      "velocity": 0.09,
      "hand": "left"
    },
    {
      "midi": 57,
      "time": 294,
      "duration": 1,
      "velocity": 0.93,
      "hand": "left"
    },
    {
      "midi": 63,
      "time": 294,
      "duration": 1,
      "velocity": 0.93,
      "hand": "right"
    },
    {
      "midi": 72,
      "time": 294,
      "duration": 1,
      "velocity": 0.93,
      "hand": "right"
    },
    {
      "midi": 34,
      "time": 295,
      "duration": 0.5,
      "velocity": 0.09,
      "hand": "left"
    },
    {
      "midi": 58,
      "time": 295,
      "duration": 0.5,
      "velocity": 0.93,
      "hand": "left"
    },
    {
      "midi": 62,
      "time": 295,
      "duration": 0.5,
      "velocity": 0.93,
      "hand": "right"
    },
    {
      "midi": 70,
      "time": 295,
      "duration": 0.5,
      "velocity": 0.93,
      "hand": "right"
    },
    {
      "midi": 46,
      "time": 295.5,
      "duration": 1,
      "velocity": 0.09,
      "hand": "left"
    },
    {
      "midi": 53,
      "time": 295.5,
      "duration": 1,
      "velocity": 0.09,
      "hand": "left"
    },
    {
      "midi": 58,
      "time": 295.5,
      "duration": 1,
      "velocity": 0.93,
      "hand": "left"
    },
    {
      "midi": 62,
      "time": 295.5,
      "duration": 1,
      "velocity": 0.93,
      "hand": "right"
    },
    {
      "midi": 70,
      "time": 295.5,
      "duration": 1,
      "velocity": 0.93,
      "hand": "right"
    },
    {
      "midi": 50,
      "time": 296.5,
      "duration": 0.75,
      "velocity": 0.71,
      "hand": "left"
    },
    {
      "midi": 62,
      "time": 296.5,
      "duration": 0.75,
      "velocity": 0.71,
      "hand": "right"
    },
    {
      "midi": 42,
      "time": 297,
      "duration": 1.5,
      "velocity": 0.71,
      "hand": "left"
    },
    {
      "midi": 60,
      "time": 297,
      "duration": 1.5,
      "velocity": 0.71,
      "hand": "right"
    },
    {
      "midi": 51,
      "time": 297.25,
      "duration": 0.25,
      "velocity": 0.71,
      "hand": "left"
    },
    {
      "midi": 63,
      "time": 297.25,
      "duration": 0.25,
      "velocity": 0.71,
      "hand": "right"
    },
    {
      "midi": 50,
      "time": 297.5,
      "duration": 1.25,
      "velocity": 0.71,
      "hand": "left"
    },
    {
      "midi": 62,
      "time": 297.5,
      "duration": 0.25,
      "velocity": 0.71,
      "hand": "right"
    },
    {
      "midi": 69,
      "time": 297.75,
      "duration": 0.25,
      "velocity": 0.71,
      "hand": "right"
    },
    {
      "midi": 66,
      "time": 298,
      "duration": 0.25,
      "velocity": 0.71,
      "hand": "right"
    },
    {
      "midi": 63,
      "time": 298.25,
      "duration": 0.25,
      "velocity": 0.71,
      "hand": "right"
    },
    {
      "midi": 43,
      "time": 298.5,
      "duration": 1.5,
      "velocity": 0.71,
      "hand": "left"
    },
    {
      "midi": 58,
      "time": 298.5,
      "duration": 1.5,
      "velocity": 0.71,
      "hand": "left"
    },
    {
      "midi": 62,
      "time": 298.5,
      "duration": 0.25,
      "velocity": 0.71,
      "hand": "right"
    },
    {
      "midi": 51,
      "time": 298.75,
      "duration": 0.25,
      "velocity": 0.71,
      "hand": "left"
    },
    {
      "midi": 63,
      "time": 298.75,
      "duration": 0.25,
      "velocity": 0.71,
      "hand": "right"
    },
    {
      "midi": 50,
      "time": 299,
      "duration": 1,
      "velocity": 0.71,
      "hand": "left"
    },
    {
      "midi": 62,
      "time": 299,
      "duration": 0.25,
      "velocity": 0.71,
      "hand": "right"
    },
    {
      "midi": 70,
      "time": 299.25,
      "duration": 0.25,
      "velocity": 0.71,
      "hand": "right"
    },
    {
      "midi": 67,
      "time": 299.5,
      "duration": 0.25,
      "velocity": 0.71,
      "hand": "right"
    },
    {
      "midi": 63,
      "time": 299.75,
      "duration": 0.25,
      "velocity": 0.71,
      "hand": "right"
    },
    {
      "midi": 45,
      "time": 300,
      "duration": 0.5,
      "velocity": 0.09,
      "hand": "left"
    },
    {
      "midi": 54,
      "time": 300,
      "duration": 0.25,
      "velocity": 0.93,
      "hand": "left"
    },
    {
      "midi": 63,
      "time": 300.25,
      "duration": 0.25,
      "velocity": 0.93,
      "hand": "right"
    },
    {
      "midi": 60,
      "time": 300.5,
      "duration": 0.5,
      "velocity": 0.09,
      "hand": "right"
    },
    {
      "midi": 62,
      "time": 300.5,
      "duration": 0.25,
      "velocity": 0.93,
      "hand": "right"
    },
    {
      "midi": 66,
      "time": 300.75,
      "duration": 0.25,
      "velocity": 0.93,
      "hand": "right"
    },
    {
      "midi": 72,
      "time": 301,
      "duration": 0.25,
      "velocity": 0.93,
      "hand": "right"
    },
    {
      "midi": 74,
      "time": 301.25,
      "duration": 0.25,
      "velocity": 0.93,
      "hand": "right"
    },
    {
      "midi": 78,
      "time": 301.5,
      "duration": 0.25,
      "velocity": 0.93,
      "hand": "right"
    },
    {
      "midi": 84,
      "time": 301.75,
      "duration": 0.25,
      "velocity": 0.93,
      "hand": "right"
    },
    {
      "midi": 84,
      "time": 302,
      "duration": 0.25,
      "velocity": 0.93,
      "hand": "right"
    },
    {
      "midi": 93,
      "time": 302.25,
      "duration": 0.25,
      "velocity": 0.93,
      "hand": "right"
    },
    {
      "midi": 82,
      "time": 302.75,
      "duration": 0.25,
      "velocity": 0.93,
      "hand": "right"
    },
    {
      "midi": 91,
      "time": 302.75,
      "duration": 0.25,
      "velocity": 0.93,
      "hand": "right"
    },
    {
      "midi": 38,
      "time": 303,
      "duration": 0.5,
      "velocity": 0.09,
      "hand": "left"
    },
    {
      "midi": 81,
      "time": 303,
      "duration": 0.25,
      "velocity": 0.93,
      "hand": "right"
    },
    {
      "midi": 90,
      "time": 303.25,
      "duration": 0.25,
      "velocity": 0.93,
      "hand": "right"
    },
    {
      "midi": 50,
      "time": 303.5,
      "duration": 0.5,
      "velocity": 0.09,
      "hand": "left"
    },
    {
      "midi": 79,
      "time": 303.5,
      "duration": 0.25,
      "velocity": 0.93,
      "hand": "right"
    },
    {
      "midi": 87,
      "time": 303.5,
      "duration": 0.25,
      "velocity": 0.93,
      "hand": "right"
    },
    {
      "midi": 78,
      "time": 303.75,
      "duration": 0.25,
      "velocity": 0.93,
      "hand": "right"
    },
    {
      "midi": 57,
      "time": 304,
      "duration": 0.5,
      "velocity": 0.09,
      "hand": "left"
    },
    {
      "midi": 86,
      "time": 304,
      "duration": 0.25,
      "velocity": 0.93,
      "hand": "right"
    },
    {
      "midi": 75,
      "time": 304.25,
      "duration": 0.25,
      "velocity": 0.93,
      "hand": "right"
    },
    {
      "midi": 84,
      "time": 304.25,
      "duration": 0.25,
      "velocity": 0.93,
      "hand": "right"
    },
    {
      "midi": 60,
      "time": 304.5,
      "duration": 0.5,
      "velocity": 0.09,
      "hand": "right"
    },
    {
      "midi": 74,
      "time": 304.5,
      "duration": 0.25,
      "velocity": 0.93,
      "hand": "right"
    },
    {
      "midi": 82,
      "time": 304.75,
      "duration": 0.25,
      "velocity": 0.93,
      "hand": "right"
    },
    {
      "midi": 66,
      "time": 305,
      "duration": 0.5,
      "velocity": 0.09,
      "hand": "right"
    },
    {
      "midi": 72,
      "time": 305,
      "duration": 0.25,
      "velocity": 0.93,
      "hand": "right"
    },
    {
      "midi": 81,
      "time": 305,
      "duration": 0.25,
      "velocity": 0.93,
      "hand": "right"
    },
    {
      "midi": 75,
      "time": 305.25,
      "duration": 0.25,
      "velocity": 0.93,
      "hand": "right"
    },
    {
      "midi": 84,
      "time": 305.5,
      "duration": 0.25,
      "velocity": 0.93,
      "hand": "right"
    },
    {
      "midi": 74,
      "time": 305.75,
      "duration": 0.25,
      "velocity": 0.93,
      "hand": "right"
    },
    {
      "midi": 82,
      "time": 305.75,
      "duration": 0.25,
      "velocity": 0.93,
      "hand": "right"
    },
    {
      "midi": 43,
      "time": 306,
      "duration": 0.5,
      "velocity": 0.09,
      "hand": "left"
    },
    {
      "midi": 72,
      "time": 306,
      "duration": 0.25,
      "velocity": 0.93,
      "hand": "right"
    },
    {
      "midi": 81,
      "time": 306.25,
      "duration": 0.25,
      "velocity": 0.93,
      "hand": "right"
    },
    {
      "midi": 50,
      "time": 306.5,
      "duration": 0.5,
      "velocity": 0.09,
      "hand": "left"
    },
    {
      "midi": 74,
      "time": 306.5,
      "duration": 0.25,
      "velocity": 0.93,
      "hand": "right"
    },
    {
      "midi": 82,
      "time": 306.5,
      "duration": 0.25,
      "velocity": 0.93,
      "hand": "right"
    },
    {
      "midi": 69,
      "time": 306.75,
      "duration": 0.25,
      "velocity": 0.93,
      "hand": "right"
    },
    {
      "midi": 78,
      "time": 306.75,
      "duration": 0.25,
      "velocity": 0.93,
      "hand": "right"
    },
    {
      "midi": 62,
      "time": 307,
      "duration": 0.25,
      "velocity": 0.09,
      "hand": "right"
    },
    {
      "midi": 72,
      "time": 307,
      "duration": 0.25,
      "velocity": 0.93,
      "hand": "right"
    },
    {
      "midi": 81,
      "time": 307,
      "duration": 0.25,
      "velocity": 0.93,
      "hand": "right"
    },
    {
      "midi": 66,
      "time": 307.25,
      "duration": 0.25,
      "velocity": 0.09,
      "hand": "right"
    },
    {
      "midi": 67,
      "time": 307.5,
      "duration": 0.25,
      "velocity": 0.09,
      "hand": "right"
    },
    {
      "midi": 70,
      "time": 307.5,
      "duration": 0.25,
      "velocity": 0.93,
      "hand": "right"
    },
    {
      "midi": 79,
      "time": 307.5,
      "duration": 0.25,
      "velocity": 0.93,
      "hand": "right"
    },
    {
      "midi": 54,
      "time": 307.75,
      "duration": 0.25,
      "velocity": 0.71,
      "hand": "left"
    },
    {
      "midi": 66,
      "time": 307.75,
      "duration": 0.25,
      "velocity": 0.71,
      "hand": "right"
    },
    {
      "midi": 54,
      "time": 308,
      "duration": 0.25,
      "velocity": 0.71,
      "hand": "left"
    },
    {
      "midi": 66,
      "time": 308,
      "duration": 0.25,
      "velocity": 0.71,
      "hand": "right"
    },
    {
      "midi": 53,
      "time": 308.25,
      "duration": 0.25,
      "velocity": 0.71,
      "hand": "left"
    },
    {
      "midi": 65,
      "time": 308.25,
      "duration": 0.25,
      "velocity": 0.71,
      "hand": "right"
    },
    {
      "midi": 53,
      "time": 308.5,
      "duration": 0.25,
      "velocity": 0.71,
      "hand": "left"
    },
    {
      "midi": 65,
      "time": 308.5,
      "duration": 0.25,
      "velocity": 0.71,
      "hand": "right"
    },
    {
      "midi": 52,
      "time": 308.75,
      "duration": 0.5,
      "velocity": 0.71,
      "hand": "left"
    },
    {
      "midi": 64,
      "time": 308.75,
      "duration": 0.5,
      "velocity": 0.71,
      "hand": "right"
    },
    {
      "midi": 44,
      "time": 309,
      "duration": 1.5,
      "velocity": 0.71,
      "hand": "left"
    },
    {
      "midi": 62,
      "time": 309,
      "duration": 1.5,
      "velocity": 0.71,
      "hand": "right"
    },
    {
      "midi": 53,
      "time": 309.25,
      "duration": 0.25,
      "velocity": 0.71,
      "hand": "left"
    },
    {
      "midi": 65,
      "time": 309.25,
      "duration": 0.25,
      "velocity": 0.71,
      "hand": "right"
    },
    {
      "midi": 52,
      "time": 309.5,
      "duration": 1.25,
      "velocity": 0.71,
      "hand": "left"
    },
    {
      "midi": 64,
      "time": 309.5,
      "duration": 0.25,
      "velocity": 0.71,
      "hand": "right"
    },
    {
      "midi": 71,
      "time": 309.75,
      "duration": 0.25,
      "velocity": 0.71,
      "hand": "right"
    },
    {
      "midi": 68,
      "time": 310,
      "duration": 0.25,
      "velocity": 0.71,
      "hand": "right"
    },
    {
      "midi": 65,
      "time": 310.25,
      "duration": 0.25,
      "velocity": 0.71,
      "hand": "right"
    },
    {
      "midi": 45,
      "time": 310.5,
      "duration": 1.5,
      "velocity": 0.71,
      "hand": "left"
    },
    {
      "midi": 60,
      "time": 310.5,
      "duration": 1.5,
      "velocity": 0.71,
      "hand": "right"
    },
    {
      "midi": 64,
      "time": 310.5,
      "duration": 0.25,
      "velocity": 0.71,
      "hand": "right"
    },
    {
      "midi": 53,
      "time": 310.75,
      "duration": 0.25,
      "velocity": 0.71,
      "hand": "left"
    },
    {
      "midi": 65,
      "time": 310.75,
      "duration": 0.25,
      "velocity": 0.71,
      "hand": "right"
    },
    {
      "midi": 52,
      "time": 311,
      "duration": 1,
      "velocity": 0.71,
      "hand": "left"
    },
    {
      "midi": 64,
      "time": 311,
      "duration": 0.25,
      "velocity": 0.71,
      "hand": "right"
    },
    {
      "midi": 72,
      "time": 311.25,
      "duration": 0.25,
      "velocity": 0.71,
      "hand": "right"
    },
    {
      "midi": 69,
      "time": 311.5,
      "duration": 0.25,
      "velocity": 0.71,
      "hand": "right"
    },
    {
      "midi": 65,
      "time": 311.75,
      "duration": 0.25,
      "velocity": 0.71,
      "hand": "right"
    },
    {
      "midi": 47,
      "time": 312,
      "duration": 0.5,
      "velocity": 0.09,
      "hand": "left"
    },
    {
      "midi": 56,
      "time": 312,
      "duration": 0.25,
      "velocity": 0.93,
      "hand": "left"
    },
    {
      "midi": 65,
      "time": 312.25,
      "duration": 0.25,
      "velocity": 0.93,
      "hand": "right"
    },
    {
      "midi": 62,
      "time": 312.5,
      "duration": 0.5,
      "velocity": 0.09,
      "hand": "right"
    },
    {
      "midi": 64,
      "time": 312.5,
      "duration": 0.25,
      "velocity": 0.93,
      "hand": "right"
    },
    {
      "midi": 68,
      "time": 312.75,
      "duration": 0.25,
      "velocity": 0.93,
      "hand": "right"
    },
    {
      "midi": 74,
      "time": 313,
      "duration": 0.25,
      "velocity": 0.93,
      "hand": "right"
    },
    {
      "midi": 76,
      "time": 313.25,
      "duration": 0.25,
      "velocity": 0.93,
      "hand": "right"
    },
    {
      "midi": 80,
      "time": 313.5,
      "duration": 0.25,
      "velocity": 0.93,
      "hand": "right"
    },
    {
      "midi": 86,
      "time": 313.75,
      "duration": 0.25,
      "velocity": 0.93,
      "hand": "right"
    },
    {
      "midi": 86,
      "time": 314,
      "duration": 0.25,
      "velocity": 0.93,
      "hand": "right"
    },
    {
      "midi": 95,
      "time": 314.25,
      "duration": 0.25,
      "velocity": 0.93,
      "hand": "right"
    },
    {
      "midi": 84,
      "time": 314.75,
      "duration": 0.25,
      "velocity": 0.93,
      "hand": "right"
    },
    {
      "midi": 93,
      "time": 314.75,
      "duration": 0.25,
      "velocity": 0.93,
      "hand": "right"
    },
    {
      "midi": 40,
      "time": 315,
      "duration": 0.5,
      "velocity": 0.09,
      "hand": "left"
    },
    {
      "midi": 84,
      "time": 315,
      "duration": 0.25,
      "velocity": 0.93,
      "hand": "right"
    },
    {
      "midi": 93,
      "time": 315.25,
      "duration": 0.25,
      "velocity": 0.93,
      "hand": "right"
    },
    {
      "midi": 52,
      "time": 315.5,
      "duration": 0.5,
      "velocity": 0.09,
      "hand": "left"
    },
    {
      "midi": 83,
      "time": 315.5,
      "duration": 0.25,
      "velocity": 0.93,
      "hand": "right"
    },
    {
      "midi": 92,
      "time": 315.5,
      "duration": 0.25,
      "velocity": 0.93,
      "hand": "right"
    },
    {
      "midi": 81,
      "time": 315.75,
      "duration": 0.25,
      "velocity": 0.93,
      "hand": "right"
    },
    {
      "midi": 59,
      "time": 316,
      "duration": 0.5,
      "velocity": 0.09,
      "hand": "left"
    },
    {
      "midi": 89,
      "time": 316,
      "duration": 0.25,
      "velocity": 0.93,
      "hand": "right"
    },
    {
      "midi": 80,
      "time": 316.25,
      "duration": 0.25,
      "velocity": 0.93,
      "hand": "right"
    },
    {
      "midi": 88,
      "time": 316.25,
      "duration": 0.25,
      "velocity": 0.93,
      "hand": "right"
    },
    {
      "midi": 62,
      "time": 316.5,
      "duration": 0.5,
      "velocity": 0.09,
      "hand": "right"
    },
    {
      "midi": 77,
      "time": 316.5,
      "duration": 0.25,
      "velocity": 0.93,
      "hand": "right"
    },
    {
      "midi": 86,
      "time": 316.75,
      "duration": 0.25,
      "velocity": 0.93,
      "hand": "right"
    },
    {
      "midi": 68,
      "time": 317,
      "duration": 0.5,
      "velocity": 0.09,
      "hand": "right"
    },
    {
      "midi": 76,
      "time": 317,
      "duration": 0.25,
      "velocity": 0.93,
      "hand": "right"
    },
    {
      "midi": 84,
      "time": 317,
      "duration": 0.25,
      "velocity": 0.93,
      "hand": "right"
    },
    {
      "midi": 74,
      "time": 317.25,
      "duration": 0.25,
      "velocity": 0.93,
      "hand": "right"
    },
    {
      "midi": 83,
      "time": 317.25,
      "duration": 0.25,
      "velocity": 0.93,
      "hand": "right"
    },
    {
      "midi": 77,
      "time": 317.5,
      "duration": 0.25,
      "velocity": 0.93,
      "hand": "right"
    },
    {
      "midi": 86,
      "time": 317.5,
      "duration": 0.25,
      "velocity": 0.93,
      "hand": "right"
    },
    {
      "midi": 76,
      "time": 317.75,
      "duration": 0.25,
      "velocity": 0.93,
      "hand": "right"
    },
    {
      "midi": 84,
      "time": 317.75,
      "duration": 0.25,
      "velocity": 0.93,
      "hand": "right"
    },
    {
      "midi": 33,
      "time": 318,
      "duration": 0.5,
      "velocity": 0.09,
      "hand": "left"
    },
    {
      "midi": 74,
      "time": 318,
      "duration": 0.25,
      "velocity": 0.93,
      "hand": "right"
    },
    {
      "midi": 83,
      "time": 318.25,
      "duration": 0.25,
      "velocity": 0.93,
      "hand": "right"
    },
    {
      "midi": 45,
      "time": 318.5,
      "duration": 0.25,
      "velocity": 0.09,
      "hand": "left"
    },
    {
      "midi": 76,
      "time": 318.5,
      "duration": 0.25,
      "velocity": 0.93,
      "hand": "right"
    },
    {
      "midi": 84,
      "time": 318.5,
      "duration": 0.25,
      "velocity": 0.93,
      "hand": "right"
    },
    {
      "midi": 52,
      "time": 318.75,
      "duration": 0.25,
      "velocity": 0.09,
      "hand": "left"
    },
    {
      "midi": 71,
      "time": 318.75,
      "duration": 0.25,
      "velocity": 0.93,
      "hand": "right"
    },
    {
      "midi": 80,
      "time": 318.75,
      "duration": 0.25,
      "velocity": 0.93,
      "hand": "right"
    },
    {
      "midi": 57,
      "time": 319,
      "duration": 0.25,
      "velocity": 0.09,
      "hand": "left"
    },
    {
      "midi": 74,
      "time": 319,
      "duration": 0.25,
      "velocity": 0.93,
      "hand": "right"
    },
    {
      "midi": 83,
      "time": 319,
      "duration": 0.25,
      "velocity": 0.93,
      "hand": "right"
    },
    {
      "midi": 64,
      "time": 319.25,
      "duration": 0.25,
      "velocity": 0.09,
      "hand": "right"
    },
    {
      "midi": 72,
      "time": 319.25,
      "duration": 0.5,
      "velocity": 0.93,
      "hand": "right"
    },
    {
      "midi": 81,
      "time": 319.25,
      "duration": 0.5,
      "velocity": 0.93,
      "hand": "right"
    },
    {
      "midi": 69,
      "time": 319.5,
      "duration": 0.5,
      "velocity": 0.09,
      "hand": "right"
    },
    {
      "midi": 72,
      "time": 319.75,
      "duration": 0.5,
      "velocity": 0.93,
      "hand": "right"
    },
    {
      "midi": 81,
      "time": 319.75,
      "duration": 0.5,
      "velocity": 0.93,
      "hand": "right"
    },
    {
      "midi": 64,
      "time": 320,
      "duration": 0.5,
      "velocity": 0.71,
      "hand": "right"
    },
    {
      "midi": 72,
      "time": 320.25,
      "duration": 0.5,
      "velocity": 0.93,
      "hand": "right"
    },
    {
      "midi": 81,
      "time": 320.25,
      "duration": 0.5,
      "velocity": 0.93,
      "hand": "right"
    },
    {
      "midi": 63,
      "time": 320.5,
      "duration": 0.5,
      "velocity": 0.71,
      "hand": "right"
    },
    {
      "midi": 72,
      "time": 320.75,
      "duration": 0.5,
      "velocity": 0.93,
      "hand": "right"
    },
    {
      "midi": 81,
      "time": 320.75,
      "duration": 0.5,
      "velocity": 0.93,
      "hand": "right"
    },
    {
      "midi": 62,
      "time": 321,
      "duration": 3,
      "velocity": 0.71,
      "hand": "right"
    },
    {
      "midi": 74,
      "time": 321.25,
      "duration": 0.5,
      "velocity": 0.93,
      "hand": "right"
    },
    {
      "midi": 82,
      "time": 321.25,
      "duration": 0.5,
      "velocity": 0.93,
      "hand": "right"
    },
    {
      "midi": 72,
      "time": 321.75,
      "duration": 0.5,
      "velocity": 0.93,
      "hand": "right"
    },
    {
      "midi": 81,
      "time": 321.75,
      "duration": 0.5,
      "velocity": 0.93,
      "hand": "right"
    },
    {
      "midi": 54,
      "time": 322,
      "duration": 0.5,
      "velocity": 0.71,
      "hand": "left"
    },
    {
      "midi": 75,
      "time": 322.25,
      "duration": 0.5,
      "velocity": 0.93,
      "hand": "right"
    },
    {
      "midi": 84,
      "time": 322.25,
      "duration": 0.5,
      "velocity": 0.93,
      "hand": "right"
    },
    {
      "midi": 55,
      "time": 322.5,
      "duration": 0.5,
      "velocity": 0.71,
      "hand": "left"
    },
    {
      "midi": 74,
      "time": 322.75,
      "duration": 0.5,
      "velocity": 0.93,
      "hand": "right"
    },
    {
      "midi": 82,
      "time": 322.75,
      "duration": 0.5,
      "velocity": 0.93,
      "hand": "right"
    },
    {
      "midi": 57,
      "time": 323,
      "duration": 0.5,
      "velocity": 0.71,
      "hand": "left"
    },
    {
      "midi": 72,
      "time": 323.25,
      "duration": 0.25,
      "velocity": 0.93,
      "hand": "right"
    },
    {
      "midi": 78,
      "time": 323.25,
      "duration": 0.25,
      "velocity": 0.93,
      "hand": "right"
    },
    {
      "midi": 58,
      "time": 323.5,
      "duration": 0.25,
      "velocity": 0.71,
      "hand": "left"
    },
    {
      "midi": 70,
      "time": 323.5,
      "duration": 0.25,
      "velocity": 0.93,
      "hand": "right"
    },
    {
      "midi": 79,
      "time": 323.5,
      "duration": 0.25,
      "velocity": 0.93,
      "hand": "right"
    },
    {
      "midi": 50,
      "time": 323.75,
      "duration": 0.25,
      "velocity": 0.71,
      "hand": "left"
    },
    {
      "midi": 74,
      "time": 323.75,
      "duration": 0.5,
      "velocity": 0.93,
      "hand": "right"
    },
    {
      "midi": 82,
      "time": 323.75,
      "duration": 0.5,
      "velocity": 0.93,
      "hand": "right"
    },
    {
      "midi": 38,
      "time": 324,
      "duration": 0.5,
      "velocity": 0.71,
      "hand": "left"
    },
    {
      "midi": 72,
      "time": 324.25,
      "duration": 0.5,
      "velocity": 0.93,
      "hand": "right"
    },
    {
      "midi": 81,
      "time": 324.25,
      "duration": 0.5,
      "velocity": 0.93,
      "hand": "right"
    },
    {
      "midi": 62,
      "time": 324.5,
      "duration": 1.5,
      "velocity": 0.71,
      "hand": "right"
    },
    {
      "midi": 74,
      "time": 324.75,
      "duration": 0.25,
      "velocity": 0.93,
      "hand": "right"
    },
    {
      "midi": 82,
      "time": 324.75,
      "duration": 0.25,
      "velocity": 0.93,
      "hand": "right"
    },
    {
      "midi": 60,
      "time": 325,
      "duration": 0.5,
      "velocity": 0.71,
      "hand": "right"
    },
    {
      "midi": 66,
      "time": 325,
      "duration": 0.5,
      "velocity": 0.71,
      "hand": "right"
    },
    {
      "midi": 69,
      "time": 325,
      "duration": 0.25,
      "velocity": 0.93,
      "hand": "right"
    },
    {
      "midi": 78,
      "time": 325,
      "duration": 0.25,
      "velocity": 0.93,
      "hand": "right"
    },
    {
      "midi": 72,
      "time": 325.25,
      "duration": 0.5,
      "velocity": 0.93,
      "hand": "right"
    },
    {
      "midi": 81,
      "time": 325.25,
      "duration": 0.5,
      "velocity": 0.93,
      "hand": "right"
    },
    {
      "midi": 55,
      "time": 325.5,
      "duration": 0.5,
      "velocity": 0.71,
      "hand": "left"
    },
    {
      "midi": 70,
      "time": 325.75,
      "duration": 0.25,
      "velocity": 0.93,
      "hand": "right"
    },
    {
      "midi": 79,
      "time": 325.75,
      "duration": 0.25,
      "velocity": 0.93,
      "hand": "right"
    },
    {
      "midi": 62,
      "time": 326,
      "duration": 0.5,
      "velocity": 0.71,
      "hand": "right"
    },
    {
      "midi": 70,
      "time": 326,
      "duration": 0.25,
      "velocity": 0.93,
      "hand": "right"
    },
    {
      "midi": 79,
      "time": 326,
      "duration": 0.25,
      "velocity": 0.93,
      "hand": "right"
    },
    {
      "midi": 81,
      "time": 326,
      "duration": 0.125,
      "velocity": 0.93,
      "hand": "right"
    },
    {
      "midi": 69,
      "time": 326.25,
      "duration": 0.5,
      "velocity": 0.93,
      "hand": "right"
    },
    {
      "midi": 78,
      "time": 326.25,
      "duration": 0.5,
      "velocity": 0.93,
      "hand": "right"
    },
    {
      "midi": 61,
      "time": 326.5,
      "duration": 0.5,
      "velocity": 0.82,
      "hand": "right"
    },
    {
      "midi": 70,
      "time": 326.75,
      "duration": 0.5,
      "velocity": 0.93,
      "hand": "right"
    },
    {
      "midi": 79,
      "time": 326.75,
      "duration": 0.5,
      "velocity": 0.93,
      "hand": "right"
    },
    {
      "midi": 60,
      "time": 327,
      "duration": 3,
      "velocity": 0.93,
      "hand": "right"
    },
    {
      "midi": 72,
      "time": 327.25,
      "duration": 0.5,
      "velocity": 0.93,
      "hand": "right"
    },
    {
      "midi": 80,
      "time": 327.25,
      "duration": 0.5,
      "velocity": 0.93,
      "hand": "right"
    },
    {
      "midi": 70,
      "time": 327.75,
      "duration": 0.5,
      "velocity": 0.93,
      "hand": "right"
    },
    {
      "midi": 79,
      "time": 327.75,
      "duration": 0.5,
      "velocity": 0.93,
      "hand": "right"
    },
    {
      "midi": 52,
      "time": 328,
      "duration": 0.5,
      "velocity": 0.93,
      "hand": "left"
    },
    {
      "midi": 73,
      "time": 328.25,
      "duration": 0.5,
      "velocity": 0.93,
      "hand": "right"
    },
    {
      "midi": 82,
      "time": 328.25,
      "duration": 0.5,
      "velocity": 0.93,
      "hand": "right"
    },
    {
      "midi": 53,
      "time": 328.5,
      "duration": 0.5,
      "velocity": 0.93,
      "hand": "left"
    },
    {
      "midi": 72,
      "time": 328.75,
      "duration": 0.5,
      "velocity": 0.93,
      "hand": "right"
    },
    {
      "midi": 80,
      "time": 328.75,
      "duration": 0.5,
      "velocity": 0.93,
      "hand": "right"
    },
    {
      "midi": 55,
      "time": 329,
      "duration": 0.5,
      "velocity": 0.93,
      "hand": "left"
    },
    {
      "midi": 70,
      "time": 329.25,
      "duration": 0.25,
      "velocity": 0.93,
      "hand": "right"
    },
    {
      "midi": 76,
      "time": 329.25,
      "duration": 0.25,
      "velocity": 0.93,
      "hand": "right"
    },
    {
      "midi": 56,
      "time": 329.5,
      "duration": 0.25,
      "velocity": 0.93,
      "hand": "left"
    },
    {
      "midi": 68,
      "time": 329.5,
      "duration": 0.25,
      "velocity": 0.93,
      "hand": "right"
    },
    {
      "midi": 77,
      "time": 329.5,
      "duration": 0.25,
      "velocity": 0.93,
      "hand": "right"
    },
    {
      "midi": 48,
      "time": 329.75,
      "duration": 0.25,
      "velocity": 0.93,
      "hand": "left"
    },
    {
      "midi": 72,
      "time": 329.75,
      "duration": 0.5,
      "velocity": 0.93,
      "hand": "right"
    },
    {
      "midi": 80,
      "time": 329.75,
      "duration": 0.5,
      "velocity": 0.93,
      "hand": "right"
    },
    {
      "midi": 36,
      "time": 330,
      "duration": 0.5,
      "velocity": 0.93,
      "hand": "left"
    },
    {
      "midi": 70,
      "time": 330.25,
      "duration": 0.5,
      "velocity": 0.93,
      "hand": "right"
    },
    {
      "midi": 79,
      "time": 330.25,
      "duration": 0.5,
      "velocity": 0.93,
      "hand": "right"
    },
    {
      "midi": 60,
      "time": 330.5,
      "duration": 1.5,
      "velocity": 0.71,
      "hand": "right"
    },
    {
      "midi": 72,
      "time": 330.75,
      "duration": 0.25,
      "velocity": 0.93,
      "hand": "right"
    },
    {
      "midi": 80,
      "time": 330.75,
      "duration": 0.25,
      "velocity": 0.93,
      "hand": "right"
    },
    {
      "midi": 58,
      "time": 331,
      "duration": 0.5,
      "velocity": 0.93,
      "hand": "left"
    },
    {
      "midi": 64,
      "time": 331,
      "duration": 0.5,
      "velocity": 0.93,
      "hand": "right"
    },
    {
      "midi": 67,
      "time": 331,
      "duration": 0.25,
      "velocity": 0.93,
      "hand": "right"
    },
    {
      "midi": 76,
      "time": 331,
      "duration": 0.25,
      "velocity": 0.93,
      "hand": "right"
    },
    {
      "midi": 70,
      "time": 331.25,
      "duration": 0.25,
      "velocity": 0.93,
      "hand": "right"
    },
    {
      "midi": 79,
      "time": 331.25,
      "duration": 0.25,
      "velocity": 0.93,
      "hand": "right"
    },
    {
      "midi": 53,
      "time": 331.5,
      "duration": 0.5,
      "velocity": 0.93,
      "hand": "left"
    },
    {
      "midi": 70,
      "time": 331.5,
      "duration": 0.25,
      "velocity": 0.93,
      "hand": "right"
    },
    {
      "midi": 79,
      "time": 331.5,
      "duration": 0.25,
      "velocity": 0.93,
      "hand": "right"
    },
    {
      "midi": 68,
      "time": 331.75,
      "duration": 0.25,
      "velocity": 0.93,
      "hand": "right"
    },
    {
      "midi": 77,
      "time": 331.75,
      "duration": 0.25,
      "velocity": 0.93,
      "hand": "right"
    },
    {
      "midi": 60,
      "time": 332,
      "duration": 0.5,
      "velocity": 0.93,
      "hand": "right"
    },
    {
      "midi": 68,
      "time": 332,
      "duration": 0.25,
      "velocity": 0.93,
      "hand": "right"
    },
    {
      "midi": 77,
      "time": 332,
      "duration": 0.25,
      "velocity": 0.93,
      "hand": "right"
    },
    {
      "midi": 79,
      "time": 332,
      "duration": 0.125,
      "velocity": 0.93,
      "hand": "right"
    },
    {
      "midi": 67,
      "time": 332.25,
      "duration": 0.5,
      "velocity": 0.93,
      "hand": "right"
    },
    {
      "midi": 76,
      "time": 332.25,
      "duration": 0.5,
      "velocity": 0.93,
      "hand": "right"
    },
    {
      "midi": 56,
      "time": 332.5,
      "duration": 0.5,
      "velocity": 0.93,
      "hand": "left"
    },
    {
      "midi": 65,
      "time": 332.5,
      "duration": 0.5,
      "velocity": 0.93,
      "hand": "right"
    },
    {
      "midi": 68,
      "time": 332.75,
      "duration": 0.25,
      "velocity": 0.93,
      "hand": "right"
    },
    {
      "midi": 77,
      "time": 332.75,
      "duration": 0.25,
      "velocity": 0.93,
      "hand": "right"
    },
    {
      "midi": 44,
      "time": 333,
      "duration": 0.5,
      "velocity": 0.09,
      "hand": "left"
    },
    {
      "midi": 68,
      "time": 333,
      "duration": 0.25,
      "velocity": 0.93,
      "hand": "right"
    },
    {
      "midi": 77,
      "time": 333,
      "duration": 0.25,
      "velocity": 0.93,
      "hand": "right"
    },
    {
      "midi": 70,
      "time": 333.25,
      "duration": 0.5,
      "velocity": 0.93,
      "hand": "right"
    },
    {
      "midi": 78,
      "time": 333.25,
      "duration": 0.5,
      "velocity": 0.93,
      "hand": "right"
    },
    {
      "midi": 56,
      "time": 333.5,
      "duration": 0.5,
      "velocity": 0.09,
      "hand": "left"
    },
    {
      "midi": 68,
      "time": 333.75,
      "duration": 0.25,
      "velocity": 0.93,
      "hand": "right"
    },
    {
      "midi": 77,
      "time": 333.75,
      "duration": 0.25,
      "velocity": 0.93,
      "hand": "right"
    },
    {
      "midi": 48,
      "time": 334,
      "duration": 0.5,
      "velocity": 0.09,
      "hand": "left"
    },
    {
      "midi": 66,
      "time": 334,
      "duration": 0.25,
      "velocity": 0.93,
      "hand": "right"
    },
    {
      "midi": 75,
      "time": 334,
      "duration": 0.25,
      "velocity": 0.93,
      "hand": "right"
    },
    {
      "midi": 70,
      "time": 334.25,
      "duration": 0.25,
      "velocity": 0.93,
      "hand": "right"
    },
    {
      "midi": 78,
      "time": 334.25,
      "duration": 0.25,
      "velocity": 0.93,
      "hand": "right"
    },
    {
      "midi": 49,
      "time": 334.5,
      "duration": 0.5,
      "velocity": 0.09,
      "hand": "left"
    },
    {
      "midi": 68,
      "time": 334.5,
      "duration": 0.25,
      "velocity": 0.93,
      "hand": "right"
    },
    {
      "midi": 77,
      "time": 334.5,
      "duration": 0.25,
      "velocity": 0.93,
      "hand": "right"
    },
    {
      "midi": 70,
      "time": 334.75,
      "duration": 0.25,
      "velocity": 0.93,
      "hand": "right"
    },
    {
      "midi": 78,
      "time": 334.75,
      "duration": 0.25,
      "velocity": 0.93,
      "hand": "right"
    },
    {
      "midi": 56,
      "time": 335,
      "duration": 0.5,
      "velocity": 0.09,
      "hand": "left"
    },
    {
      "midi": 68,
      "time": 335,
      "duration": 0.25,
      "velocity": 0.93,
      "hand": "right"
    },
    {
      "midi": 77,
      "time": 335,
      "duration": 0.25,
      "velocity": 0.93,
      "hand": "right"
    },
    {
      "midi": 66,
      "time": 335.25,
      "duration": 0.25,
      "velocity": 0.93,
      "hand": "right"
    },
    {
      "midi": 72,
      "time": 335.25,
      "duration": 0.25,
      "velocity": 0.93,
      "hand": "right"
    },
    {
      "midi": 55,
      "time": 335.5,
      "duration": 0.125,
      "velocity": 0.09,
      "hand": "left"
    },
    {
      "midi": 56,
      "time": 335.5,
      "duration": 0.125,
      "velocity": 0.09,
      "hand": "left"
    },
    {
      "midi": 61,
      "time": 335.5,
      "duration": 0.5,
      "velocity": 0.09,
      "hand": "right"
    },
    {
      "midi": 65,
      "time": 335.5,
      "duration": 0.25,
      "velocity": 0.93,
      "hand": "right"
    },
    {
      "midi": 73,
      "time": 335.5,
      "duration": 0.25,
      "velocity": 0.93,
      "hand": "right"
    },
    {
      "midi": 68,
      "time": 335.75,
      "duration": 0.25,
      "velocity": 0.93,
      "hand": "right"
    },
    {
      "midi": 77,
      "time": 335.75,
      "duration": 0.25,
      "velocity": 0.93,
      "hand": "right"
    },
    {
      "midi": 39,
      "time": 336,
      "duration": 0.5,
      "velocity": 0.09,
      "hand": "left"
    },
    {
      "midi": 67,
      "time": 336,
      "duration": 0.25,
      "velocity": 0.93,
      "hand": "right"
    },
    {
      "midi": 75,
      "time": 336,
      "duration": 0.25,
      "velocity": 0.93,
      "hand": "right"
    },
    {
      "midi": 68,
      "time": 336.25,
      "duration": 0.25,
      "velocity": 0.93,
      "hand": "right"
    },
    {
      "midi": 77,
      "time": 336.25,
      "duration": 0.25,
      "velocity": 0.93,
      "hand": "right"
    },
    {
      "midi": 51,
      "time": 336.5,
      "duration": 0.5,
      "velocity": 0.09,
      "hand": "left"
    },
    {
      "midi": 67,
      "time": 336.5,
      "duration": 0.25,
      "velocity": 0.93,
      "hand": "right"
    },
    {
      "midi": 75,
      "time": 336.5,
      "duration": 0.25,
      "velocity": 0.93,
      "hand": "right"
    },
    {
      "midi": 77,
      "time": 336.75,
      "duration": 0.25,
      "velocity": 0.93,
      "hand": "right"
    },
    {
      "midi": 55,
      "time": 337,
      "duration": 0.5,
      "velocity": 0.09,
      "hand": "left"
    },
    {
      "midi": 63,
      "time": 337,
      "duration": 0.5,
      "velocity": 0.09,
      "hand": "right"
    },
    {
      "midi": 65,
      "time": 337,
      "duration": 0.25,
      "velocity": 0.93,
      "hand": "right"
    },
    {
      "midi": 73,
      "time": 337,
      "duration": 0.25,
      "velocity": 0.93,
      "hand": "right"
    },
    {
      "midi": 75,
      "time": 337.25,
      "duration": 0.25,
      "velocity": 0.93,
      "hand": "right"
    },
    {
      "midi": 44,
      "time": 337.5,
      "duration": 0.5,
      "velocity": 0.09,
      "hand": "left"
    },
    {
      "midi": 63,
      "time": 337.5,
      "duration": 0.25,
      "velocity": 0.93,
      "hand": "right"
    },
    {
      "midi": 72,
      "time": 337.5,
      "duration": 0.25,
      "velocity": 0.93,
      "hand": "right"
    },
    {
      "midi": 73,
      "time": 337.75,
      "duration": 0.25,
      "velocity": 0.93,
      "hand": "right"
    },
    {
      "midi": 51,
      "time": 338,
      "duration": 0.5,
      "velocity": 0.09,
      "hand": "left"
    },
    {
      "midi": 61,
      "time": 338,
      "duration": 0.25,
      "velocity": 0.93,
      "hand": "right"
    },
    {
      "midi": 70,
      "time": 338,
      "duration": 0.25,
      "velocity": 0.93,
      "hand": "right"
    },
    {
      "midi": 72,
      "time": 338.25,
      "duration": 0.25,
      "velocity": 0.93,
      "hand": "right"
    },
    {
      "midi": 56,
      "time": 338.5,
      "duration": 0.25,
      "velocity": 0.09,
      "hand": "left"
    },
    {
      "midi": 60,
      "time": 338.5,
      "duration": 0.25,
      "velocity": 0.93,
      "hand": "right"
    },
    {
      "midi": 63,
      "time": 338.5,
      "duration": 0.25,
      "velocity": 0.09,
      "hand": "right"
    },
    {
      "midi": 68,
      "time": 338.5,
      "duration": 0.25,
      "velocity": 0.93,
      "hand": "right"
    },
    {
      "midi": 44,
      "time": 339,
      "duration": 0.5,
      "velocity": 0.09,
      "hand": "left"
    },
    {
      "midi": 80,
      "time": 339,
      "duration": 0.25,
      "velocity": 0.93,
      "hand": "right"
    },
    {
      "midi": 89,
      "time": 339,
      "duration": 0.25,
      "velocity": 0.93,
      "hand": "right"
    },
    {
      "midi": 82,
      "time": 339.25,
      "duration": 0.5,
      "velocity": 0.93,
      "hand": "right"
    },
    {
      "midi": 90,
      "time": 339.25,
      "duration": 0.5,
      "velocity": 0.93,
      "hand": "right"
    },
    {
      "midi": 68,
      "time": 339.5,
      "duration": 0.5,
      "velocity": 0.09,
      "hand": "right"
    },
    {
      "midi": 80,
      "time": 339.75,
      "duration": 0.25,
      "velocity": 0.93,
      "hand": "right"
    },
    {
      "midi": 89,
      "time": 339.75,
      "duration": 0.25,
      "velocity": 0.93,
      "hand": "right"
    },
    {
      "midi": 60,
      "time": 340,
      "duration": 0.5,
      "velocity": 0.09,
      "hand": "right"
    },
    {
      "midi": 78,
      "time": 340,
      "duration": 0.25,
      "velocity": 0.93,
      "hand": "right"
    },
    {
      "midi": 87,
      "time": 340,
      "duration": 0.25,
      "velocity": 0.93,
      "hand": "right"
    },
    {
      "midi": 82,
      "time": 340.25,
      "duration": 0.25,
      "velocity": 0.93,
      "hand": "right"
    },
    {
      "midi": 90,
      "time": 340.25,
      "duration": 0.25,
      "velocity": 0.93,
      "hand": "right"
    },
    {
      "midi": 61,
      "time": 340.5,
      "duration": 0.5,
      "velocity": 0.09,
      "hand": "right"
    },
    {
      "midi": 80,
      "time": 340.5,
      "duration": 0.25,
      "velocity": 0.93,
      "hand": "right"
    },
    {
      "midi": 89,
      "time": 340.5,
      "duration": 0.25,
      "velocity": 0.93,
      "hand": "right"
    },
    {
      "midi": 82,
      "time": 340.75,
      "duration": 0.25,
      "velocity": 0.93,
      "hand": "right"
    },
    {
      "midi": 90,
      "time": 340.75,
      "duration": 0.25,
      "velocity": 0.93,
      "hand": "right"
    },
    {
      "midi": 68,
      "time": 341,
      "duration": 0.5,
      "velocity": 0.09,
      "hand": "right"
    },
    {
      "midi": 80,
      "time": 341,
      "duration": 0.25,
      "velocity": 0.93,
      "hand": "right"
    },
    {
      "midi": 89,
      "time": 341,
      "duration": 0.25,
      "velocity": 0.93,
      "hand": "right"
    },
    {
      "midi": 78,
      "time": 341.25,
      "duration": 0.25,
      "velocity": 0.93,
      "hand": "right"
    },
    {
      "midi": 84,
      "time": 341.25,
      "duration": 0.25,
      "velocity": 0.93,
      "hand": "right"
    },
    {
      "midi": 67,
      "time": 341.5,
      "duration": 0.125,
      "velocity": 0.09,
      "hand": "right"
    },
    {
      "midi": 68,
      "time": 341.5,
      "duration": 0.125,
      "velocity": 0.09,
      "hand": "right"
    },
    {
      "midi": 73,
      "time": 341.5,
      "duration": 0.5,
      "velocity": 0.09,
      "hand": "right"
    },
    {
      "midi": 77,
      "time": 341.5,
      "duration": 0.25,
      "velocity": 0.93,
      "hand": "right"
    },
    {
      "midi": 85,
      "time": 341.5,
      "duration": 0.25,
      "velocity": 0.93,
      "hand": "right"
    },
    {
      "midi": 80,
      "time": 341.75,
      "duration": 0.25,
      "velocity": 0.93,
      "hand": "right"
    },
    {
      "midi": 89,
      "time": 341.75,
      "duration": 0.25,
      "velocity": 0.93,
      "hand": "right"
    },
    {
      "midi": 51,
      "time": 342,
      "duration": 0.5,
      "velocity": 0.09,
      "hand": "left"
    },
    {
      "midi": 79,
      "time": 342,
      "duration": 0.25,
      "velocity": 0.93,
      "hand": "right"
    },
    {
      "midi": 87,
      "time": 342,
      "duration": 0.25,
      "velocity": 0.93,
      "hand": "right"
    },
    {
      "midi": 80,
      "time": 342.25,
      "duration": 0.25,
      "velocity": 0.93,
      "hand": "right"
    },
    {
      "midi": 89,
      "time": 342.25,
      "duration": 0.25,
      "velocity": 0.93,
      "hand": "right"
    },
    {
      "midi": 63,
      "time": 342.5,
      "duration": 0.5,
      "velocity": 0.09,
      "hand": "right"
    },
    {
      "midi": 79,
      "time": 342.5,
      "duration": 0.25,
      "velocity": 0.93,
      "hand": "right"
    },
    {
      "midi": 87,
      "time": 342.5,
      "duration": 0.25,
      "velocity": 0.93,
      "hand": "right"
    },
    {
      "midi": 89,
      "time": 342.75,
      "duration": 0.25,
      "velocity": 0.93,
      "hand": "right"
    },
    {
      "midi": 67,
      "time": 343,
      "duration": 0.5,
      "velocity": 0.09,
      "hand": "right"
    },
    {
      "midi": 75,
      "time": 343,
      "duration": 0.5,
      "velocity": 0.09,
      "hand": "right"
    },
    {
      "midi": 77,
      "time": 343,
      "duration": 0.25,
      "velocity": 0.93,
      "hand": "right"
    },
    {
      "midi": 85,
      "time": 343,
      "duration": 0.25,
      "velocity": 0.93,
      "hand": "right"
    },
    {
      "midi": 87,
      "time": 343.25,
      "duration": 0.25,
      "velocity": 0.93,
      "hand": "right"
    },
    {
      "midi": 56,
      "time": 343.5,
      "duration": 0.5,
      "velocity": 0.09,
      "hand": "left"
    },
    {
      "midi": 75,
      "time": 343.5,
      "duration": 0.25,
      "velocity": 0.93,
      "hand": "right"
    },
    {
      "midi": 84,
      "time": 343.5,
      "duration": 0.25,
      "velocity": 0.93,
      "hand": "right"
    },
    {
      "midi": 85,
      "time": 343.75,
      "duration": 0.25,
      "velocity": 0.93,
      "hand": "right"
    },
    {
      "midi": 63,
      "time": 344,
      "duration": 0.5,
      "velocity": 0.09,
      "hand": "right"
    },
    {
      "midi": 73,
      "time": 344,
      "duration": 0.25,
      "velocity": 0.93,
      "hand": "right"
    },
    {
      "midi": 82,
      "time": 344,
      "duration": 0.25,
      "velocity": 0.93,
      "hand": "right"
    },
    {
      "midi": 84,
      "time": 344.25,
      "duration": 0.25,
      "velocity": 0.93,
      "hand": "right"
    },
    {
      "midi": 68,
      "time": 344.5,
      "duration": 0.5,
      "velocity": 0.09,
      "hand": "right"
    },
    {
      "midi": 72,
      "time": 344.5,
      "duration": 0.25,
      "velocity": 0.93,
      "hand": "right"
    },
    {
      "midi": 75,
      "time": 344.5,
      "duration": 0.5,
      "velocity": 0.09,
      "hand": "right"
    },
    {
      "midi": 80,
      "time": 344.5,
      "duration": 0.25,
      "velocity": 0.93,
      "hand": "right"
    },
    {
      "midi": 89,
      "time": 344.75,
      "duration": 0.25,
      "velocity": 0.93,
      "hand": "right"
    },
    {
      "midi": 51,
      "time": 345,
      "duration": 0.5,
      "velocity": 0.09,
      "hand": "left"
    },
    {
      "midi": 79,
      "time": 345,
      "duration": 0.25,
      "velocity": 0.93,
      "hand": "right"
    },
    {
      "midi": 87,
      "time": 345,
      "duration": 0.25,
      "velocity": 0.93,
      "hand": "right"
    },
    {
      "midi": 89,
      "time": 345.25,
      "duration": 0.25,
      "velocity": 0.93,
      "hand": "right"
    },
    {
      "midi": 63,
      "time": 345.5,
      "duration": 0.5,
      "velocity": 0.09,
      "hand": "right"
    },
    {
      "midi": 79,
      "time": 345.5,
      "duration": 0.25,
      "velocity": 0.93,
      "hand": "right"
    },
    {
      "midi": 87,
      "time": 345.5,
      "duration": 0.25,
      "velocity": 0.93,
      "hand": "right"
    },
    {
      "midi": 89,
      "time": 345.75,
      "duration": 0.25,
      "velocity": 0.93,
      "hand": "right"
    },
    {
      "midi": 67,
      "time": 346,
      "duration": 0.5,
      "velocity": 0.09,
      "hand": "right"
    },
    {
      "midi": 75,
      "time": 346,
      "duration": 0.5,
      "velocity": 0.09,
      "hand": "right"
    },
    {
      "midi": 77,
      "time": 346,
      "duration": 0.25,
      "velocity": 0.93,
      "hand": "right"
    },
    {
      "midi": 85,
      "time": 346,
      "duration": 0.25,
      "velocity": 0.93,
      "hand": "right"
    },
    {
      "midi": 87,
      "time": 346.25,
      "duration": 0.25,
      "velocity": 0.93,
      "hand": "right"
    },
    {
      "midi": 56,
      "time": 346.5,
      "duration": 0.5,
      "velocity": 0.09,
      "hand": "left"
    },
    {
      "midi": 75,
      "time": 346.5,
      "duration": 0.25,
      "velocity": 0.93,
      "hand": "right"
    },
    {
      "midi": 84,
      "time": 346.5,
      "duration": 0.25,
      "velocity": 0.93,
      "hand": "right"
    },
    {
      "midi": 85,
      "time": 346.75,
      "duration": 0.25,
      "velocity": 0.93,
      "hand": "right"
    },
    {
      "midi": 63,
      "time": 347,
      "duration": 0.5,
      "velocity": 0.09,
      "hand": "right"
    },
    {
      "midi": 73,
      "time": 347,
      "duration": 0.25,
      "velocity": 0.93,
      "hand": "right"
    },
    {
      "midi": 82,
      "time": 347,
      "duration": 0.25,
      "velocity": 0.93,
      "hand": "right"
    },
    {
      "midi": 84,
      "time": 347.25,
      "duration": 0.25,
      "velocity": 0.93,
      "hand": "right"
    },
    {
      "midi": 68,
      "time": 347.5,
      "duration": 0.25,
      "velocity": 0.09,
      "hand": "right"
    },
    {
      "midi": 72,
      "time": 347.5,
      "duration": 0.25,
      "velocity": 0.93,
      "hand": "right"
    },
    {
      "midi": 75,
      "time": 347.5,
      "duration": 0.25,
      "velocity": 0.09,
      "hand": "right"
    },
    {
      "midi": 80,
      "time": 347.5,
      "duration": 0.25,
      "velocity": 0.93,
      "hand": "right"
    },
    {
      "midi": 39,
      "time": 348,
      "duration": 0.5,
      "velocity": 0.09,
      "hand": "left"
    },
    {
      "midi": 91,
      "time": 348,
      "duration": 0.25,
      "velocity": 0.93,
      "hand": "right"
    },
    {
      "midi": 99,
      "time": 348,
      "duration": 0.25,
      "velocity": 0.93,
      "hand": "right"
    },
    {
      "midi": 101,
      "time": 348.25,
      "duration": 0.25,
      "velocity": 0.93,
      "hand": "right"
    },
    {
      "midi": 51,
      "time": 348.5,
      "duration": 0.5,
      "velocity": 0.09,
      "hand": "left"
    },
    {
      "midi": 91,
      "time": 348.5,
      "duration": 0.25,
      "velocity": 0.93,
      "hand": "right"
    },
    {
      "midi": 99,
      "time": 348.5,
      "duration": 0.25,
      "velocity": 0.93,
      "hand": "right"
    },
    {
      "midi": 101,
      "time": 348.75,
      "duration": 0.25,
      "velocity": 0.93,
      "hand": "right"
    },
    {
      "midi": 55,
      "time": 349,
      "duration": 0.5,
      "velocity": 0.09,
      "hand": "left"
    },
    {
      "midi": 61,
      "time": 349,
      "duration": 0.5,
      "velocity": 0.09,
      "hand": "right"
    },
    {
      "midi": 63,
      "time": 349,
      "duration": 0.5,
      "velocity": 0.09,
      "hand": "right"
    },
    {
      "midi": 89,
      "time": 349,
      "duration": 0.25,
      "velocity": 0.93,
      "hand": "right"
    },
    {
      "midi": 97,
      "time": 349,
      "duration": 0.25,
      "velocity": 0.93,
      "hand": "right"
    },
    {
      "midi": 99,
      "time": 349.25,
      "duration": 0.25,
      "velocity": 0.93,
      "hand": "right"
    },
    {
      "midi": 58,
      "time": 349.5,
      "duration": 0.5,
      "velocity": 0.09,
      "hand": "left"
    },
    {
      "midi": 61,
      "time": 349.5,
      "duration": 0.5,
      "velocity": 0.09,
      "hand": "right"
    },
    {
      "midi": 67,
      "time": 349.5,
      "duration": 0.5,
      "velocity": 0.09,
      "hand": "right"
    },
    {
      "midi": 87,
      "time": 349.5,
      "duration": 0.25,
      "velocity": 0.93,
      "hand": "right"
    },
    {
      "midi": 96,
      "time": 349.5,
      "duration": 0.25,
      "velocity": 0.93,
      "hand": "right"
    },
    {
      "midi": 97,
      "time": 349.75,
      "duration": 0.25,
      "velocity": 0.93,
      "hand": "right"
    },
    {
      "midi": 63,
      "time": 350,
      "duration": 0.5,
      "velocity": 0.09,
      "hand": "right"
    },
    {
      "midi": 67,
      "time": 350,
      "duration": 0.5,
      "velocity": 0.09,
      "hand": "right"
    },
    {
      "midi": 73,
      "time": 350,
      "duration": 0.5,
      "velocity": 0.09,
      "hand": "right"
    },
    {
      "midi": 85,
      "time": 350,
      "duration": 0.25,
      "velocity": 0.93,
      "hand": "right"
    },
    {
      "midi": 94,
      "time": 350,
      "duration": 0.25,
      "velocity": 0.93,
      "hand": "right"
    },
    {
      "midi": 96,
      "time": 350.25,
      "duration": 0.25,
      "velocity": 0.93,
      "hand": "right"
    },
    {
      "midi": 67,
      "time": 350.5,
      "duration": 0.5,
      "velocity": 0.09,
      "hand": "right"
    },
    {
      "midi": 73,
      "time": 350.5,
      "duration": 0.5,
      "velocity": 0.09,
      "hand": "right"
    },
    {
      "midi": 75,
      "time": 350.5,
      "duration": 0.5,
      "velocity": 0.09,
      "hand": "right"
    },
    {
      "midi": 84,
      "time": 350.5,
      "duration": 0.25,
      "velocity": 0.93,
      "hand": "right"
    },
    {
      "midi": 92,
      "time": 350.5,
      "duration": 0.25,
      "velocity": 0.93,
      "hand": "right"
    },
    {
      "midi": 94,
      "time": 350.75,
      "duration": 0.25,
      "velocity": 0.93,
      "hand": "right"
    },
    {
      "midi": 73,
      "time": 351,
      "duration": 0.5,
      "velocity": 0.09,
      "hand": "right"
    },
    {
      "midi": 79,
      "time": 351,
      "duration": 0.5,
      "velocity": 0.09,
      "hand": "right"
    },
    {
      "midi": 82,
      "time": 351,
      "duration": 0.25,
      "velocity": 0.93,
      "hand": "right"
    },
    {
      "midi": 91,
      "time": 351,
      "duration": 0.25,
      "velocity": 0.93,
      "hand": "right"
    },
    {
      "midi": 92,
      "time": 351.25,
      "duration": 0.25,
      "velocity": 0.93,
      "hand": "right"
    },
    {
      "midi": 80,
      "time": 351.5,
      "duration": 0.25,
      "velocity": 0.93,
      "hand": "right"
    },
    {
      "midi": 89,
      "time": 351.5,
      "duration": 0.25,
      "velocity": 0.93,
      "hand": "right"
    },
    {
      "midi": 91,
      "time": 351.75,
      "duration": 0.25,
      "velocity": 0.93,
      "hand": "right"
    },
    {
      "midi": 79,
      "time": 352,
      "duration": 0.25,
      "velocity": 0.93,
      "hand": "right"
    },
    {
      "midi": 87,
      "time": 352,
      "duration": 0.25,
      "velocity": 0.93,
      "hand": "right"
    },
    {
      "midi": 89,
      "time": 352.25,
      "duration": 0.25,
      "velocity": 0.93,
      "hand": "right"
    },
    {
      "midi": 77,
      "time": 352.5,
      "duration": 0.25,
      "velocity": 0.93,
      "hand": "right"
    },
    {
      "midi": 85,
      "time": 352.5,
      "duration": 0.25,
      "velocity": 0.93,
      "hand": "right"
    },
    {
      "midi": 87,
      "time": 352.75,
      "duration": 0.25,
      "velocity": 0.93,
      "hand": "right"
    },
    {
      "midi": 75,
      "time": 353,
      "duration": 0.25,
      "velocity": 0.93,
      "hand": "right"
    },
    {
      "midi": 84,
      "time": 353,
      "duration": 0.25,
      "velocity": 0.93,
      "hand": "right"
    },
    {
      "midi": 85,
      "time": 353.25,
      "duration": 0.25,
      "velocity": 0.93,
      "hand": "right"
    },
    {
      "midi": 73,
      "time": 353.5,
      "duration": 0.25,
      "velocity": 0.93,
      "hand": "right"
    },
    {
      "midi": 82,
      "time": 353.5,
      "duration": 0.25,
      "velocity": 0.93,
      "hand": "right"
    },
    {
      "midi": 84,
      "time": 353.75,
      "duration": 0.25,
      "velocity": 0.93,
      "hand": "right"
    },
    {
      "midi": 72,
      "time": 354,
      "duration": 0.25,
      "velocity": 0.93,
      "hand": "right"
    },
    {
      "midi": 80,
      "time": 354,
      "duration": 0.25,
      "velocity": 0.93,
      "hand": "right"
    },
    {
      "midi": 82,
      "time": 354.25,
      "duration": 0.25,
      "velocity": 0.93,
      "hand": "right"
    },
    {
      "midi": 61,
      "time": 354.5,
      "duration": 2,
      "velocity": 0.71,
      "hand": "right"
    },
    {
      "midi": 70,
      "time": 354.5,
      "duration": 0.25,
      "velocity": 0.93,
      "hand": "right"
    },
    {
      "midi": 79,
      "time": 354.5,
      "duration": 0.25,
      "velocity": 0.93,
      "hand": "right"
    },
    {
      "midi": 80,
      "time": 354.75,
      "duration": 0.25,
      "velocity": 0.93,
      "hand": "right"
    },
    {
      "midi": 68,
      "time": 355,
      "duration": 0.25,
      "velocity": 0.93,
      "hand": "right"
    },
    {
      "midi": 77,
      "time": 355,
      "duration": 0.25,
      "velocity": 0.93,
      "hand": "right"
    },
    {
      "midi": 79,
      "time": 355.25,
      "duration": 0.25,
      "velocity": 0.93,
      "hand": "right"
    },
    {
      "midi": 67,
      "time": 355.5,
      "duration": 0.25,
      "velocity": 0.93,
      "hand": "right"
    },
    {
      "midi": 75,
      "time": 355.5,
      "duration": 0.25,
      "velocity": 0.93,
      "hand": "right"
    },
    {
      "midi": 77,
      "time": 355.75,
      "duration": 0.25,
      "velocity": 0.93,
      "hand": "right"
    },
    {
      "midi": 65,
      "time": 356,
      "duration": 0.25,
      "velocity": 0.93,
      "hand": "right"
    },
    {
      "midi": 73,
      "time": 356,
      "duration": 0.25,
      "velocity": 0.93,
      "hand": "right"
    },
    {
      "midi": 75,
      "time": 356.25,
      "duration": 0.25,
      "velocity": 0.93,
      "hand": "right"
    },
    {
      "midi": 51,
      "time": 356.5,
      "duration": 1,
      "velocity": 0.71,
      "hand": "left"
    },
    {
      "midi": 63,
      "time": 356.5,
      "duration": 0.25,
      "velocity": 0.93,
      "hand": "right"
    },
    {
      "midi": 72,
      "time": 356.5,
      "duration": 0.25,
      "velocity": 0.93,
      "hand": "right"
    },
    {
      "midi": 73,
      "time": 356.75,
      "duration": 0.25,
      "velocity": 0.93,
      "hand": "right"
    },
    {
      "midi": 44,
      "time": 357,
      "duration": 3,
      "velocity": 0.71,
      "hand": "left"
    },
    {
      "midi": 61,
      "time": 357,
      "duration": 3,
      "velocity": 0.71,
      "hand": "right"
    },
    {
      "midi": 70,
      "time": 357,
      "duration": 1.5,
      "velocity": 0.71,
      "hand": "right"
    },
    {
      "midi": 52,
      "time": 357.5,
      "duration": 0.5,
      "velocity": 0.71,
      "hand": "left"
    },
    {
      "midi": 53,
      "time": 358,
      "duration": 0.5,
      "velocity": 0.71,
      "hand": "left"
    },
    {
      "midi": 54,
      "time": 358.5,
      "duration": 0.5,
      "velocity": 0.71,
      "hand": "left"
    },
    {
      "midi": 69,
      "time": 358.5,
      "duration": 0.25,
      "velocity": 0.71,
      "hand": "right"
    },
    {
      "midi": 70,
      "time": 358.75,
      "duration": 0.25,
      "velocity": 0.71,
      "hand": "right"
    },
    {
      "midi": 55,
      "time": 359,
      "duration": 0.5,
      "velocity": 0.71,
      "hand": "left"
    },
    {
      "midi": 72,
      "time": 359,
      "duration": 0.25,
      "velocity": 0.71,
      "hand": "right"
    },
    {
      "midi": 70,
      "time": 359.25,
      "duration": 0.25,
      "velocity": 0.71,
      "hand": "right"
    },
    {
      "midi": 51,
      "time": 359.5,
      "duration": 0.5,
      "velocity": 0.71,
      "hand": "left"
    },
    {
      "midi": 73,
      "time": 359.5,
      "duration": 0.25,
      "velocity": 0.71,
      "hand": "right"
    },
    {
      "midi": 67,
      "time": 359.75,
      "duration": 0.25,
      "velocity": 0.71,
      "hand": "right"
    },
    {
      "midi": 44,
      "time": 360,
      "duration": 1.5,
      "velocity": 0.71,
      "hand": "left"
    },
    {
      "midi": 56,
      "time": 360,
      "duration": 0.5,
      "velocity": 0.71,
      "hand": "left"
    },
    {
      "midi": 60,
      "time": 360,
      "duration": 0.25,
      "velocity": 0.71,
      "hand": "right"
    },
    {
      "midi": 68,
      "time": 360,
      "duration": 2,
      "velocity": 0.71,
      "hand": "right"
    },
    {
      "midi": 63,
      "time": 360.25,
      "duration": 0.25,
      "velocity": 0.71,
      "hand": "right"
    },
    {
      "midi": 51,
      "time": 360.5,
      "duration": 0.5,
      "velocity": 0.71,
      "hand": "left"
    },
    {
      "midi": 58,
      "time": 360.5,
      "duration": 0.25,
      "velocity": 0.71,
      "hand": "left"
    },
    {
      "midi": 63,
      "time": 360.75,
      "duration": 0.25,
      "velocity": 0.71,
      "hand": "right"
    },
    {
      "midi": 54,
      "time": 361,
      "duration": 0.5,
      "velocity": 0.71,
      "hand": "left"
    },
    {
      "midi": 60,
      "time": 361,
      "duration": 0.25,
      "velocity": 0.71,
      "hand": "right"
    },
    {
      "midi": 63,
      "time": 361.25,
      "duration": 0.25,
      "velocity": 0.71,
      "hand": "right"
    },
    {
      "midi": 52,
      "time": 361.5,
      "duration": 0.5,
      "velocity": 0.71,
      "hand": "left"
    },
    {
      "midi": 61,
      "time": 361.5,
      "duration": 0.25,
      "velocity": 0.71,
      "hand": "right"
    },
    {
      "midi": 64,
      "time": 361.75,
      "duration": 0.25,
      "velocity": 0.71,
      "hand": "right"
    },
    {
      "midi": 48,
      "time": 362,
      "duration": 0.5,
      "velocity": 0.71,
      "hand": "left"
    },
    {
      "midi": 63,
      "time": 362,
      "duration": 0.25,
      "velocity": 0.71,
      "hand": "right"
    },
    {
      "midi": 67,
      "time": 362,
      "duration": 0.25,
      "velocity": 0.71,
      "hand": "right"
    },
    {
      "midi": 66,
      "time": 362.25,
      "duration": 0.25,
      "velocity": 0.71,
      "hand": "right"
    },
    {
      "midi": 68,
      "time": 362.25,
      "duration": 0.25,
      "velocity": 0.71,
      "hand": "right"
    },
    {
      "midi": 49,
      "time": 362.5,
      "duration": 0.5,
      "velocity": 0.71,
      "hand": "left"
    },
    {
      "midi": 61,
      "time": 362.5,
      "duration": 0.25,
      "velocity": 0.71,
      "hand": "right"
    },
    {
      "midi": 67,
      "time": 362.5,
      "duration": 0.25,
      "velocity": 0.71,
      "hand": "right"
    },
    {
      "midi": 64,
      "time": 362.75,
      "duration": 0.25,
      "velocity": 0.71,
      "hand": "right"
    },
    {
      "midi": 68,
      "time": 362.75,
      "duration": 0.25,
      "velocity": 0.71,
      "hand": "right"
    },
    {
      "midi": 42,
      "time": 363,
      "duration": 0.5,
      "velocity": 0.71,
      "hand": "left"
    },
    {
      "midi": 61,
      "time": 363,
      "duration": 0.25,
      "velocity": 0.71,
      "hand": "right"
    },
    {
      "midi": 69,
      "time": 363,
      "duration": 0.5,
      "velocity": 0.71,
      "hand": "right"
    },
    {
      "midi": 63,
      "time": 363.25,
      "duration": 0.25,
      "velocity": 0.66,
      "hand": "right"
    },
    {
      "midi": 44,
      "time": 363.5,
      "duration": 0.5,
      "velocity": 0.71,
      "hand": "left"
    },
    {
      "midi": 61,
      "time": 363.5,
      "duration": 0.25,
      "velocity": 0.61,
      "hand": "right"
    },
    {
      "midi": 68,
      "time": 363.5,
      "duration": 0.5,
      "velocity": 0.71,
      "hand": "right"
    },
    {
      "midi": 64,
      "time": 363.75,
      "duration": 0.25,
      "velocity": 0.57,
      "hand": "right"
    },
    {
      "midi": 45,
      "time": 364,
      "duration": 0.5,
      "velocity": 0.71,
      "hand": "left"
    },
    {
      "midi": 54,
      "time": 364,
      "duration": 0.25,
      "velocity": 0.53,
      "hand": "left"
    },
    {
      "midi": 66,
      "time": 364,
      "duration": 0.5,
      "velocity": 0.71,
      "hand": "right"
    },
    {
      "midi": 61,
      "time": 364.25,
      "duration": 0.25,
      "velocity": 0.48,
      "hand": "right"
    },
    {
      "midi": 46,
      "time": 364.5,
      "duration": 0.5,
      "velocity": 0.71,
      "hand": "left"
    },
    {
      "midi": 55,
      "time": 364.5,
      "duration": 0.25,
      "velocity": 0.48,
      "hand": "left"
    },
    {
      "midi": 64,
      "time": 364.5,
      "duration": 0.75,
      "velocity": 0.71,
      "hand": "right"
    },
    {
      "midi": 61,
      "time": 364.75,
      "duration": 0.25,
      "velocity": 0.48,
      "hand": "right"
    },
    {
      "midi": 38,
      "time": 365,
      "duration": 0.25,
      "velocity": 0.71,
      "hand": "left"
    },
    {
      "midi": 55,
      "time": 365,
      "duration": 0.25,
      "velocity": 0.48,
      "hand": "left"
    },
    {
      "midi": 39,
      "time": 365.25,
      "duration": 0.25,
      "velocity": 0.71,
      "hand": "left"
    },
    {
      "midi": 61,
      "time": 365.25,
      "duration": 0.25,
      "velocity": 0.48,
      "hand": "right"
    },
    {
      "midi": 63,
      "time": 365.25,
      "duration": 0.25,
      "velocity": 0.71,
      "hand": "right"
    },
    {
      "midi": 38,
      "time": 365.5,
      "duration": 0.25,
      "velocity": 0.71,
      "hand": "left"
    },
    {
      "midi": 55,
      "time": 365.5,
      "duration": 0.25,
      "velocity": 0.48,
      "hand": "left"
    },
    {
      "midi": 64,
      "time": 365.5,
      "duration": 0.25,
      "velocity": 0.71,
      "hand": "right"
    },
    {
      "midi": 66,
      "time": 365.5,
      "duration": 0.125,
      "velocity": 0.71,
      "hand": "right"
    },
    {
      "midi": 39,
      "time": 365.75,
      "duration": 0.25,
      "velocity": 0.71,
      "hand": "left"
    },
    {
      "midi": 61,
      "time": 365.75,
      "duration": 0.25,
      "velocity": 0.48,
      "hand": "right"
    },
    {
      "midi": 63,
      "time": 365.75,
      "duration": 0.25,
      "velocity": 0.71,
      "hand": "right"
    },
    {
      "midi": 32,
      "time": 366,
      "duration": 0.5,
      "velocity": 0.71,
      "hand": "left"
    },
    {
      "midi": 44,
      "time": 366,
      "duration": 0.5,
      "velocity": 0.71,
      "hand": "left"
    },
    {
      "midi": 60,
      "time": 366,
      "duration": 0.25,
      "velocity": 0.48,
      "hand": "right"
    },
    {
      "midi": 68,
      "time": 366,
      "duration": 1,
      "velocity": 0.71,
      "hand": "right"
    },
    {
      "midi": 63,
      "time": 366.25,
      "duration": 0.25,
      "velocity": 0.48,
      "hand": "right"
    },
    {
      "midi": 39,
      "time": 366.5,
      "duration": 0.5,
      "velocity": 0.71,
      "hand": "left"
    },
    {
      "midi": 51,
      "time": 366.5,
      "duration": 0.5,
      "velocity": 0.71,
      "hand": "left"
    },
    {
      "midi": 58,
      "time": 366.5,
      "duration": 0.25,
      "velocity": 0.48,
      "hand": "left"
    },
    {
      "midi": 63,
      "time": 366.75,
      "duration": 0.25,
      "velocity": 0.48,
      "hand": "right"
    },
    {
      "midi": 42,
      "time": 367,
      "duration": 0.5,
      "velocity": 0.71,
      "hand": "left"
    },
    {
      "midi": 54,
      "time": 367,
      "duration": 0.5,
      "velocity": 0.71,
      "hand": "left"
    },
    {
      "midi": 60,
      "time": 367,
      "duration": 0.25,
      "velocity": 0.48,
      "hand": "right"
    },
    {
      "midi": 68,
      "time": 367,
      "duration": 1,
      "velocity": 0.71,
      "hand": "right"
    },
    {
      "midi": 63,
      "time": 367.25,
      "duration": 0.25,
      "velocity": 0.48,
      "hand": "right"
    },
    {
      "midi": 40,
      "time": 367.5,
      "duration": 0.5,
      "velocity": 0.71,
      "hand": "left"
    },
    {
      "midi": 52,
      "time": 367.5,
      "duration": 0.5,
      "velocity": 0.71,
      "hand": "left"
    },
    {
      "midi": 56,
      "time": 367.5,
      "duration": 0.25,
      "velocity": 0.48,
      "hand": "left"
    },
    {
      "midi": 61,
      "time": 367.75,
      "duration": 0.25,
      "velocity": 0.48,
      "hand": "right"
    },
    {
      "midi": 36,
      "time": 368,
      "duration": 0.5,
      "velocity": 0.71,
      "hand": "left"
    },
    {
      "midi": 48,
      "time": 368,
      "duration": 0.5,
      "velocity": 0.71,
      "hand": "left"
    },
    {
      "midi": 56,
      "time": 368,
      "duration": 0.25,
      "velocity": 0.48,
      "hand": "left"
    },
    {
      "midi": 67,
      "time": 368,
      "duration": 0.25,
      "velocity": 0.71,
      "hand": "right"
    },
    {
      "midi": 66,
      "time": 368.25,
      "duration": 0.25,
      "velocity": 0.48,
      "hand": "right"
    },
    {
      "midi": 68,
      "time": 368.25,
      "duration": 0.25,
      "velocity": 0.71,
      "hand": "right"
    },
    {
      "midi": 37,
      "time": 368.5,
      "duration": 0.5,
      "velocity": 0.71,
      "hand": "left"
    },
    {
      "midi": 49,
      "time": 368.5,
      "duration": 0.5,
      "velocity": 0.71,
      "hand": "left"
    },
    {
      "midi": 56,
      "time": 368.5,
      "duration": 0.25,
      "velocity": 0.48,
      "hand": "left"
    },
    {
      "midi": 67,
      "time": 368.5,
      "duration": 0.25,
      "velocity": 0.71,
      "hand": "right"
    },
    {
      "midi": 64,
      "time": 368.75,
      "duration": 0.25,
      "velocity": 0.48,
      "hand": "right"
    },
    {
      "midi": 68,
      "time": 368.75,
      "duration": 0.25,
      "velocity": 0.71,
      "hand": "right"
    },
    {
      "midi": 31,
      "time": 369,
      "duration": 0.5,
      "velocity": 0.71,
      "hand": "left"
    },
    {
      "midi": 43,
      "time": 369,
      "duration": 0.5,
      "velocity": 0.71,
      "hand": "left"
    },
    {
      "midi": 61,
      "time": 369,
      "duration": 0.25,
      "velocity": 0.48,
      "hand": "right"
    },
    {
      "midi": 71,
      "time": 369,
      "duration": 0.25,
      "velocity": 0.71,
      "hand": "right"
    },
    {
      "midi": 63,
      "time": 369.25,
      "duration": 0.25,
      "velocity": 0.48,
      "hand": "right"
    },
    {
      "midi": 69,
      "time": 369.25,
      "duration": 0.25,
      "velocity": 0.71,
      "hand": "right"
    },
    {
      "midi": 32,
      "time": 369.5,
      "duration": 0.5,
      "velocity": 0.71,
      "hand": "left"
    },
    {
      "midi": 44,
      "time": 369.5,
      "duration": 0.5,
      "velocity": 0.71,
      "hand": "left"
    },
    {
      "midi": 61,
      "time": 369.5,
      "duration": 0.25,
      "velocity": 0.48,
      "hand": "right"
    },
    {
      "midi": 69,
      "time": 369.5,
      "duration": 0.25,
      "velocity": 0.71,
      "hand": "right"
    },
    {
      "midi": 64,
      "time": 369.75,
      "duration": 0.25,
      "velocity": 0.48,
      "hand": "right"
    },
    {
      "midi": 68,
      "time": 369.75,
      "duration": 0.25,
      "velocity": 0.71,
      "hand": "right"
    },
    {
      "midi": 33,
      "time": 370,
      "duration": 0.5,
      "velocity": 0.71,
      "hand": "left"
    },
    {
      "midi": 45,
      "time": 370,
      "duration": 0.5,
      "velocity": 0.71,
      "hand": "left"
    },
    {
      "midi": 54,
      "time": 370,
      "duration": 0.25,
      "velocity": 0.48,
      "hand": "left"
    },
    {
      "midi": 68,
      "time": 370,
      "duration": 0.25,
      "velocity": 0.71,
      "hand": "right"
    },
    {
      "midi": 61,
      "time": 370.25,
      "duration": 0.25,
      "velocity": 0.48,
      "hand": "right"
    },
    {
      "midi": 66,
      "time": 370.25,
      "duration": 0.25,
      "velocity": 0.71,
      "hand": "right"
    },
    {
      "midi": 34,
      "time": 370.5,
      "duration": 0.5,
      "velocity": 0.71,
      "hand": "left"
    },
    {
      "midi": 46,
      "time": 370.5,
      "duration": 0.5,
      "velocity": 0.71,
      "hand": "left"
    },
    {
      "midi": 55,
      "time": 370.5,
      "duration": 0.25,
      "velocity": 0.48,
      "hand": "left"
    },
    {
      "midi": 64,
      "time": 370.5,
      "duration": 0.25,
      "velocity": 0.71,
      "hand": "right"
    },
    {
      "midi": 61,
      "time": 370.75,
      "duration": 0.25,
      "velocity": 0.48,
      "hand": "right"
    },
    {
      "midi": 63,
      "time": 370.75,
      "duration": 0.25,
      "velocity": 0.71,
      "hand": "right"
    },
    {
      "midi": 27,
      "time": 371,
      "duration": 0.5,
      "velocity": 0.71,
      "hand": "left"
    },
    {
      "midi": 39,
      "time": 371,
      "duration": 0.5,
      "velocity": 0.71,
      "hand": "left"
    },
    {
      "midi": 61,
      "time": 371,
      "duration": 0.25,
      "velocity": 0.48,
      "hand": "right"
    },
    {
      "midi": 71,
      "time": 371,
      "duration": 0.25,
      "velocity": 0.71,
      "hand": "right"
    },
    {
      "midi": 67,
      "time": 371.25,
      "duration": 0.25,
      "velocity": 0.48,
      "hand": "right"
    },
    {
      "midi": 70,
      "time": 371.25,
      "duration": 0.25,
      "velocity": 0.71,
      "hand": "right"
    },
    {
      "midi": 39,
      "time": 371.5,
      "duration": 0.5,
      "velocity": 0.71,
      "hand": "left"
    },
    {
      "midi": 51,
      "time": 371.5,
      "duration": 0.5,
      "velocity": 0.71,
      "hand": "left"
    },
    {
      "midi": 67,
      "time": 371.5,
      "duration": 0.25,
      "velocity": 0.48,
      "hand": "right"
    },
    {
      "midi": 76,
      "time": 371.5,
      "duration": 0.25,
      "velocity": 0.71,
      "hand": "right"
    },
    {
      "midi": 73,
      "time": 371.75,
      "duration": 0.25,
      "velocity": 0.48,
      "hand": "right"
    },
    {
      "midi": 75,
      "time": 371.75,
      "duration": 0.25,
      "velocity": 0.71,
      "hand": "right"
    },
    {
      "midi": 32,
      "time": 372,
      "duration": 0.5,
      "velocity": 0.71,
      "hand": "left"
    },
    {
      "midi": 44,
      "time": 372,
      "duration": 0.5,
      "velocity": 0.71,
      "hand": "left"
    },
    {
      "midi": 73,
      "time": 372,
      "duration": 0.25,
      "velocity": 0.48,
      "hand": "right"
    },
    {
      "midi": 75,
      "time": 372,
      "duration": 0.5,
      "velocity": 0.71,
      "hand": "right"
    },
    {
      "midi": 80,
      "time": 372,
      "duration": 0.5,
      "velocity": 0.71,
      "hand": "right"
    },
    {
      "midi": 72,
      "time": 372.25,
      "duration": 0.25,
      "velocity": 0.48,
      "hand": "right"
    },
    {
      "midi": 39,
      "time": 372.5,
      "duration": 0.5,
      "velocity": 0.71,
      "hand": "left"
    },
    {
      "midi": 51,
      "time": 372.5,
      "duration": 0.5,
      "velocity": 0.71,
      "hand": "left"
    },
    {
      "midi": 72,
      "time": 372.5,
      "duration": 0.25,
      "velocity": 0.48,
      "hand": "right"
    },
    {
      "midi": 75,
      "time": 372.5,
      "duration": 0.5,
      "velocity": 0.71,
      "hand": "right"
    },
    {
      "midi": 80,
      "time": 372.5,
      "duration": 0.5,
      "velocity": 0.71,
      "hand": "right"
    },
    {
      "midi": 70,
      "time": 372.75,
      "duration": 0.25,
      "velocity": 0.48,
      "hand": "right"
    },
    {
      "midi": 44,
      "time": 373,
      "duration": 3.5,
      "velocity": 0.71,
      "hand": "left"
    },
    {
      "midi": 51,
      "time": 373,
      "duration": 3.5,
      "velocity": 0.71,
      "hand": "left"
    },
    {
      "midi": 72,
      "time": 373,
      "duration": 0.25,
      "velocity": 0.48,
      "hand": "right"
    },
    {
      "midi": 75,
      "time": 373,
      "duration": 0.5,
      "velocity": 0.71,
      "hand": "right"
    },
    {
      "midi": 80,
      "time": 373,
      "duration": 0.5,
      "velocity": 0.71,
      "hand": "right"
    },
    {
      "midi": 68,
      "time": 373.25,
      "duration": 0.25,
      "velocity": 0.48,
      "hand": "right"
    },
    {
      "midi": 70,
      "time": 373.5,
      "duration": 0.25,
      "velocity": 0.48,
      "hand": "right"
    },
    {
      "midi": 75,
      "time": 373.5,
      "duration": 0.5,
      "velocity": 0.71,
      "hand": "right"
    },
    {
      "midi": 80,
      "time": 373.5,
      "duration": 0.5,
      "velocity": 0.71,
      "hand": "right"
    },
    {
      "midi": 68,
      "time": 373.75,
      "duration": 0.25,
      "velocity": 0.48,
      "hand": "right"
    },
    {
      "midi": 58,
      "time": 374,
      "duration": 0.5,
      "velocity": 0.71,
      "hand": "left"
    },
    {
      "midi": 70,
      "time": 374,
      "duration": 0.25,
      "velocity": 0.48,
      "hand": "right"
    },
    {
      "midi": 75,
      "time": 374,
      "duration": 0.5,
      "velocity": 0.71,
      "hand": "right"
    },
    {
      "midi": 79,
      "time": 374,
      "duration": 0.5,
      "velocity": 0.71,
      "hand": "right"
    },
    {
      "midi": 65,
      "time": 374.25,
      "duration": 0.25,
      "velocity": 0.48,
      "hand": "right"
    },
    {
      "midi": 58,
      "time": 374.5,
      "duration": 1,
      "velocity": 0.71,
      "hand": "left"
    },
    {
      "midi": 67,
      "time": 374.5,
      "duration": 0.25,
      "velocity": 0.48,
      "hand": "right"
    },
    {
      "midi": 70,
      "time": 374.5,
      "duration": 0.5,
      "velocity": 0.71,
      "hand": "right"
    },
    {
      "midi": 75,
      "time": 374.5,
      "duration": 0.5,
      "velocity": 0.71,
      "hand": "right"
    },
    {
      "midi": 63,
      "time": 374.75,
      "duration": 0.25,
      "velocity": 0.48,
      "hand": "right"
    },
    {
      "midi": 70,
      "time": 375,
      "duration": 0.25,
      "velocity": 0.48,
      "hand": "right"
    },
    {
      "midi": 75,
      "time": 375,
      "duration": 0.5,
      "velocity": 0.71,
      "hand": "right"
    },
    {
      "midi": 78,
      "time": 375,
      "duration": 0.5,
      "velocity": 0.71,
      "hand": "right"
    },
    {
      "midi": 69,
      "time": 375.25,
      "duration": 0.25,
      "velocity": 0.48,
      "hand": "right"
    },
    {
      "midi": 57,
      "time": 375.5,
      "duration": 0.25,
      "velocity": 0.71,
      "hand": "left"
    },
    {
      "midi": 72,
      "time": 375.5,
      "duration": 0.25,
      "velocity": 0.48,
      "hand": "right"
    },
    {
      "midi": 75,
      "time": 375.5,
      "duration": 0.5,
      "velocity": 0.71,
      "hand": "right"
    },
    {
      "midi": 78,
      "time": 375.5,
      "duration": 0.5,
      "velocity": 0.71,
      "hand": "right"
    },
    {
      "midi": 58,
      "time": 375.75,
      "duration": 0.25,
      "velocity": 0.78,
      "hand": "left"
    },
    {
      "midi": 66,
      "time": 375.75,
      "duration": 0.25,
      "velocity": 0.48,
      "hand": "right"
    },
    {
      "midi": 57,
      "time": 376,
      "duration": 0.25,
      "velocity": 0.86,
      "hand": "left"
    },
    {
      "midi": 70,
      "time": 376,
      "duration": 0.25,
      "velocity": 0.48,
      "hand": "right"
    },
    {
      "midi": 75,
      "time": 376,
      "duration": 0.5,
      "velocity": 0.71,
      "hand": "right"
    },
    {
      "midi": 78,
      "time": 376,
      "duration": 0.5,
      "velocity": 0.71,
      "hand": "right"
    },
    {
      "midi": 58,
      "time": 376.25,
      "duration": 0.25,
      "velocity": 0.93,
      "hand": "left"
    },
    {
      "midi": 66,
      "time": 376.25,
      "duration": 0.25,
      "velocity": 0.48,
      "hand": "right"
    },
    {
      "midi": 63,
      "time": 376.5,
      "duration": 1.5,
      "velocity": 0.93,
      "hand": "right"
    },
    {
      "midi": 70,
      "time": 376.5,
      "duration": 0.25,
      "velocity": 0.48,
      "hand": "right"
    },
    {
      "midi": 75,
      "time": 376.5,
      "duration": 0.5,
      "velocity": 0.71,
      "hand": "right"
    },
    {
      "midi": 78,
      "time": 376.5,
      "duration": 1.5,
      "velocity": 0.71,
      "hand": "right"
    },
    {
      "midi": 66,
      "time": 376.75,
      "duration": 0.25,
      "velocity": 0.48,
      "hand": "right"
    },
    {
      "midi": 70,
      "time": 377,
      "duration": 0.25,
      "velocity": 0.48,
      "hand": "right"
    },
    {
      "midi": 74,
      "time": 377,
      "duration": 0.5,
      "velocity": 0.71,
      "hand": "right"
    },
    {
      "midi": 66,
      "time": 377.25,
      "duration": 0.25,
      "velocity": 0.48,
      "hand": "right"
    },
    {
      "midi": 70,
      "time": 377.5,
      "duration": 0.25,
      "velocity": 0.48,
      "hand": "right"
    },
    {
      "midi": 73,
      "time": 377.5,
      "duration": 0.5,
      "velocity": 0.71,
      "hand": "right"
    },
    {
      "midi": 66,
      "time": 377.75,
      "duration": 0.25,
      "velocity": 0.48,
      "hand": "right"
    },
    {
      "midi": 32,
      "time": 378,
      "duration": 0.5,
      "velocity": 0.93,
      "hand": "left"
    },
    {
      "midi": 44,
      "time": 378,
      "duration": 0.5,
      "velocity": 0.93,
      "hand": "left"
    },
    {
      "midi": 69,
      "time": 378,
      "duration": 0.25,
      "velocity": 0.48,
      "hand": "right"
    },
    {
      "midi": 72,
      "time": 378,
      "duration": 0.5,
      "velocity": 0.71,
      "hand": "right"
    },
    {
      "midi": 78,
      "time": 378,
      "duration": 0.5,
      "velocity": 0.71,
      "hand": "right"
    },
    {
      "midi": 68,
      "time": 378.25,
      "duration": 0.25,
      "velocity": 0.48,
      "hand": "right"
    },
    {
      "midi": 39,
      "time": 378.5,
      "duration": 0.5,
      "velocity": 0.93,
      "hand": "left"
    },
    {
      "midi": 51,
      "time": 378.5,
      "duration": 0.5,
      "velocity": 0.93,
      "hand": "left"
    },
    {
      "midi": 68,
      "time": 378.5,
      "duration": 0.25,
      "velocity": 0.48,
      "hand": "right"
    },
    {
      "midi": 72,
      "time": 378.5,
      "duration": 0.5,
      "velocity": 0.71,
      "hand": "right"
    },
    {
      "midi": 78,
      "time": 378.5,
      "duration": 0.5,
      "velocity": 0.71,
      "hand": "right"
    },
    {
      "midi": 67,
      "time": 378.75,
      "duration": 0.25,
      "velocity": 0.48,
      "hand": "right"
    },
    {
      "midi": 44,
      "time": 379,
      "duration": 2,
      "velocity": 0.71,
      "hand": "left"
    },
    {
      "midi": 56,
      "time": 379,
      "duration": 1,
      "velocity": 0.93,
      "hand": "left"
    },
    {
      "midi": 68,
      "time": 379,
      "duration": 0.25,
      "velocity": 0.48,
      "hand": "right"
    },
    {
      "midi": 72,
      "time": 379,
      "duration": 0.5,
      "velocity": 0.71,
      "hand": "right"
    },
    {
      "midi": 78,
      "time": 379,
      "duration": 0.5,
      "velocity": 0.71,
      "hand": "right"
    },
    {
      "midi": 63,
      "time": 379.25,
      "duration": 0.25,
      "velocity": 0.48,
      "hand": "right"
    },
    {
      "midi": 68,
      "time": 379.5,
      "duration": 0.25,
      "velocity": 0.48,
      "hand": "right"
    },
    {
      "midi": 72,
      "time": 379.5,
      "duration": 0.5,
      "velocity": 0.71,
      "hand": "right"
    },
    {
      "midi": 78,
      "time": 379.5,
      "duration": 0.5,
      "velocity": 0.71,
      "hand": "right"
    },
    {
      "midi": 67,
      "time": 379.75,
      "duration": 0.25,
      "velocity": 0.48,
      "hand": "right"
    },
    {
      "midi": 56,
      "time": 380,
      "duration": 0.5,
      "velocity": 0.93,
      "hand": "left"
    },
    {
      "midi": 68,
      "time": 380,
      "duration": 0.25,
      "velocity": 0.48,
      "hand": "right"
    },
    {
      "midi": 72,
      "time": 380,
      "duration": 0.5,
      "velocity": 0.71,
      "hand": "right"
    },
    {
      "midi": 77,
      "time": 380,
      "duration": 0.5,
      "velocity": 0.71,
      "hand": "right"
    },
    {
      "midi": 64,
      "time": 380.25,
      "duration": 0.25,
      "velocity": 0.48,
      "hand": "right"
    },
    {
      "midi": 56,
      "time": 380.5,
      "duration": 0.5,
      "velocity": 0.93,
      "hand": "left"
    },
    {
      "midi": 65,
      "time": 380.5,
      "duration": 0.25,
      "velocity": 0.48,
      "hand": "right"
    },
    {
      "midi": 72,
      "time": 380.5,
      "duration": 0.5,
      "velocity": 0.71,
      "hand": "right"
    },
    {
      "midi": 60,
      "time": 380.75,
      "duration": 0.25,
      "velocity": 0.48,
      "hand": "right"
    },
    {
      "midi": 44,
      "time": 381,
      "duration": 1.5,
      "velocity": 0.71,
      "hand": "left"
    },
    {
      "midi": 56,
      "time": 381,
      "duration": 0.5,
      "velocity": 0.93,
      "hand": "left"
    },
    {
      "midi": 64,
      "time": 381,
      "duration": 0.25,
      "velocity": 0.48,
      "hand": "right"
    },
    {
      "midi": 71,
      "time": 381,
      "duration": 0.5,
      "velocity": 0.71,
      "hand": "right"
    },
    {
      "midi": 76,
      "time": 381,
      "duration": 0.5,
      "velocity": 0.71,
      "hand": "right"
    },
    {
      "midi": 63,
      "time": 381.25,
      "duration": 0.25,
      "velocity": 0.48,
      "hand": "right"
    },
    {
      "midi": 55,
      "time": 381.5,
      "duration": 0.25,
      "velocity": 0.93,
      "hand": "left"
    },
    {
      "midi": 66,
      "time": 381.5,
      "duration": 0.25,
      "velocity": 0.48,
      "hand": "right"
    },
    {
      "midi": 71,
      "time": 381.5,
      "duration": 0.5,
      "velocity": 0.71,
      "hand": "right"
    },
    {
      "midi": 76,
      "time": 381.5,
      "duration": 0.5,
      "velocity": 0.71,
      "hand": "right"
    },
    {
      "midi": 56,
      "time": 381.75,
      "duration": 0.25,
      "velocity": 0.93,
      "hand": "left"
    },
    {
      "midi": 59,
      "time": 381.75,
      "duration": 0.25,
      "velocity": 0.48,
      "hand": "left"
    },
    {
      "midi": 55,
      "time": 382,
      "duration": 0.25,
      "velocity": 0.93,
      "hand": "left"
    },
    {
      "midi": 64,
      "time": 382,
      "duration": 0.25,
      "velocity": 0.48,
      "hand": "right"
    },
    {
      "midi": 71,
      "time": 382,
      "duration": 0.5,
      "velocity": 0.71,
      "hand": "right"
    },
    {
      "midi": 76,
      "time": 382,
      "duration": 0.5,
      "velocity": 0.71,
      "hand": "right"
    },
    {
      "midi": 56,
      "time": 382.25,
      "duration": 0.25,
      "velocity": 0.93,
      "hand": "left"
    },
    {
      "midi": 59,
      "time": 382.25,
      "duration": 0.25,
      "velocity": 0.48,
      "hand": "left"
    },
    {
      "midi": 68,
      "time": 382.5,
      "duration": 1.5,
      "velocity": 0.93,
      "hand": "right"
    },
    {
      "midi": 71,
      "time": 382.5,
      "duration": 0.25,
      "velocity": 0.48,
      "hand": "right"
    },
    {
      "midi": 76,
      "time": 382.5,
      "duration": 1,
      "velocity": 0.71,
      "hand": "right"
    },
    {
      "midi": 64,
      "time": 382.75,
      "duration": 0.25,
      "velocity": 0.43,
      "hand": "right"
    },
    {
      "midi": 71,
      "time": 383,
      "duration": 0.25,
      "velocity": 0.39,
      "hand": "right"
    },
    {
      "midi": 63,
      "time": 383.25,
      "duration": 0.25,
      "velocity": 0.35,
      "hand": "right"
    },
    {
      "midi": 71,
      "time": 383.5,
      "duration": 0.75,
      "velocity": 0.71,
      "hand": "right"
    },
    {
      "midi": 62,
      "time": 383.75,
      "duration": 0.25,
      "velocity": 0.26,
      "hand": "right"
    },
    {
      "midi": 33,
      "time": 384,
      "duration": 0.25,
      "velocity": 0.09,
      "hand": "left"
    },
    {
      "midi": 61,
      "time": 384,
      "duration": 0.25,
      "velocity": 0.26,
      "hand": "right"
    },
    {
      "midi": 52,
      "time": 384.25,
      "duration": 0.25,
      "velocity": 0.09,
      "hand": "left"
    },
    {
      "midi": 67,
      "time": 384.25,
      "duration": 0.25,
      "velocity": 0.26,
      "hand": "right"
    },
    {
      "midi": 69,
      "time": 384.25,
      "duration": 0.25,
      "velocity": 0.71,
      "hand": "right"
    },
    {
      "midi": 57,
      "time": 384.5,
      "duration": 0.25,
      "velocity": 0.09,
      "hand": "left"
    },
    {
      "midi": 64,
      "time": 384.5,
      "duration": 0.5,
      "velocity": 0.71,
      "hand": "right"
    },
    {
      "midi": 76,
      "time": 384.5,
      "duration": 0.5,
      "velocity": 0.71,
      "hand": "right"
    },
    {
      "midi": 59,
      "time": 384.75,
      "duration": 0.25,
      "velocity": 0.09,
      "hand": "left"
    },
    {
      "midi": 67,
      "time": 384.75,
      "duration": 0.25,
      "velocity": 0.26,
      "hand": "right"
    },
    {
      "midi": 69,
      "time": 384.75,
      "duration": 0.25,
      "velocity": 0.26,
      "hand": "right"
    },
    {
      "midi": 61,
      "time": 385,
      "duration": 0.5,
      "velocity": 0.09,
      "hand": "right"
    },
    {
      "midi": 64,
      "time": 385,
      "duration": 0.5,
      "velocity": 0.71,
      "hand": "right"
    },
    {
      "midi": 76,
      "time": 385,
      "duration": 0.5,
      "velocity": 0.71,
      "hand": "right"
    },
    {
      "midi": 67,
      "time": 385.25,
      "duration": 0.25,
      "velocity": 0.26,
      "hand": "right"
    },
    {
      "midi": 69,
      "time": 385.25,
      "duration": 0.25,
      "velocity": 0.26,
      "hand": "right"
    },
    {
      "midi": 38,
      "time": 385.5,
      "duration": 0.25,
      "velocity": 0.09,
      "hand": "left"
    },
    {
      "midi": 64,
      "time": 385.5,
      "duration": 0.5,
      "velocity": 0.26,
      "hand": "right"
    },
    {
      "midi": 76,
      "time": 385.5,
      "duration": 0.5,
      "velocity": 0.71,
      "hand": "right"
    },
    {
      "midi": 57,
      "time": 385.75,
      "duration": 0.25,
      "velocity": 0.09,
      "hand": "left"
    },
    {
      "midi": 66,
      "time": 385.75,
      "duration": 0.25,
      "velocity": 0.26,
      "hand": "right"
    },
    {
      "midi": 69,
      "time": 385.75,
      "duration": 0.25,
      "velocity": 0.26,
      "hand": "right"
    },
    {
      "midi": 54,
      "time": 386,
      "duration": 0.25,
      "velocity": 0.09,
      "hand": "left"
    },
    {
      "midi": 62,
      "time": 386,
      "duration": 0.5,
      "velocity": 0.71,
      "hand": "right"
    },
    {
      "midi": 74,
      "time": 386,
      "duration": 0.5,
      "velocity": 0.71,
      "hand": "right"
    },
    {
      "midi": 57,
      "time": 386.25,
      "duration": 0.25,
      "velocity": 0.09,
      "hand": "left"
    },
    {
      "midi": 66,
      "time": 386.25,
      "duration": 0.25,
      "velocity": 0.26,
      "hand": "right"
    },
    {
      "midi": 69,
      "time": 386.25,
      "duration": 0.25,
      "velocity": 0.26,
      "hand": "right"
    },
    {
      "midi": 47,
      "time": 386.5,
      "duration": 0.25,
      "velocity": 0.09,
      "hand": "left"
    },
    {
      "midi": 61,
      "time": 386.5,
      "duration": 0.5,
      "velocity": 0.71,
      "hand": "right"
    },
    {
      "midi": 73,
      "time": 386.5,
      "duration": 0.5,
      "velocity": 0.71,
      "hand": "right"
    },
    {
      "midi": 57,
      "time": 386.75,
      "duration": 0.25,
      "velocity": 0.09,
      "hand": "left"
    },
    {
      "midi": 66,
      "time": 386.75,
      "duration": 0.25,
      "velocity": 0.26,
      "hand": "right"
    },
    {
      "midi": 69,
      "time": 386.75,
      "duration": 0.25,
      "velocity": 0.26,
      "hand": "right"
    },
    {
      "midi": 40,
      "time": 387,
      "duration": 0.25,
      "velocity": 0.09,
      "hand": "left"
    },
    {
      "midi": 61,
      "time": 387,
      "duration": 0.5,
      "velocity": 0.26,
      "hand": "right"
    },
    {
      "midi": 73,
      "time": 387,
      "duration": 0.5,
      "velocity": 0.71,
      "hand": "right"
    },
    {
      "midi": 52,
      "time": 387.25,
      "duration": 0.25,
      "velocity": 0.09,
      "hand": "left"
    },
    {
      "midi": 64,
      "time": 387.25,
      "duration": 0.25,
      "velocity": 0.26,
      "hand": "right"
    },
    {
      "midi": 68,
      "time": 387.25,
      "duration": 0.25,
      "velocity": 0.26,
      "hand": "right"
    },
    {
      "midi": 50,
      "time": 387.5,
      "duration": 0.25,
      "velocity": 0.09,
      "hand": "left"
    },
    {
      "midi": 56,
      "time": 387.5,
      "duration": 0.25,
      "velocity": 0.09,
      "hand": "left"
    },
    {
      "midi": 59,
      "time": 387.5,
      "duration": 0.5,
      "velocity": 0.71,
      "hand": "left"
    },
    {
      "midi": 71,
      "time": 387.5,
      "duration": 0.5,
      "velocity": 0.71,
      "hand": "right"
    },
    {
      "midi": 52,
      "time": 387.75,
      "duration": 0.25,
      "velocity": 0.09,
      "hand": "left"
    },
    {
      "midi": 64,
      "time": 387.75,
      "duration": 0.25,
      "velocity": 0.26,
      "hand": "right"
    },
    {
      "midi": 68,
      "time": 387.75,
      "duration": 0.25,
      "velocity": 0.26,
      "hand": "right"
    },
    {
      "midi": 49,
      "time": 388,
      "duration": 0.25,
      "velocity": 0.09,
      "hand": "left"
    },
    {
      "midi": 57,
      "time": 388,
      "duration": 0.5,
      "velocity": 0.71,
      "hand": "left"
    },
    {
      "midi": 69,
      "time": 388,
      "duration": 0.5,
      "velocity": 0.71,
      "hand": "right"
    },
    {
      "midi": 52,
      "time": 388.25,
      "duration": 0.25,
      "velocity": 0.09,
      "hand": "left"
    },
    {
      "midi": 64,
      "time": 388.25,
      "duration": 0.25,
      "velocity": 0.26,
      "hand": "right"
    },
    {
      "midi": 45,
      "time": 388.5,
      "duration": 1.5,
      "velocity": 0.71,
      "hand": "left"
    },
    {
      "midi": 61,
      "time": 388.5,
      "duration": 0.25,
      "velocity": 0.26,
      "hand": "right"
    },
    {
      "midi": 73,
      "time": 388.5,
      "duration": 1.5,
      "velocity": 0.71,
      "hand": "right"
    },
    {
      "midi": 52,
      "time": 388.75,
      "duration": 0.25,
      "velocity": 0.71,
      "hand": "left"
    },
    {
      "midi": 64,
      "time": 388.75,
      "duration": 0.25,
      "velocity": 0.26,
      "hand": "right"
    },
    {
      "midi": 69,
      "time": 388.75,
      "duration": 0.25,
      "velocity": 0.26,
      "hand": "right"
    },
    {
      "midi": 57,
      "time": 389,
      "duration": 0.25,
      "velocity": 0.71,
      "hand": "left"
    },
    {
      "midi": 61,
      "time": 389,
      "duration": 0.25,
      "velocity": 0.26,
      "hand": "right"
    },
    {
      "midi": 54,
      "time": 389.25,
      "duration": 0.25,
      "velocity": 0.71,
      "hand": "left"
    },
    {
      "midi": 62,
      "time": 389.25,
      "duration": 0.25,
      "velocity": 0.26,
      "hand": "right"
    },
    {
      "midi": 69,
      "time": 389.25,
      "duration": 0.25,
      "velocity": 0.26,
      "hand": "right"
    },
    {
      "midi": 52,
      "time": 389.5,
      "duration": 0.5,
      "velocity": 0.71,
      "hand": "left"
    },
    {
      "midi": 61,
      "time": 389.5,
      "duration": 0.25,
      "velocity": 0.26,
      "hand": "right"
    },
    {
      "midi": 64,
      "time": 389.75,
      "duration": 0.25,
      "velocity": 0.26,
      "hand": "right"
    },
    {
      "midi": 69,
      "time": 389.75,
      "duration": 0.25,
      "velocity": 0.26,
      "hand": "right"
    },
    {
      "midi": 33,
      "time": 390,
      "duration": 0.25,
      "velocity": 0.09,
      "hand": "left"
    },
    {
      "midi": 61,
      "time": 390,
      "duration": 0.25,
      "velocity": 0.26,
      "hand": "right"
    },
    {
      "midi": 76,
      "time": 390,
      "duration": 0.5,
      "velocity": 0.71,
      "hand": "right"
    },
    {
      "midi": 45,
      "time": 390.25,
      "duration": 0.25,
      "velocity": 0.09,
      "hand": "left"
    },
    {
      "midi": 67,
      "time": 390.25,
      "duration": 0.25,
      "velocity": 0.26,
      "hand": "right"
    },
    {
      "midi": 69,
      "time": 390.25,
      "duration": 0.25,
      "velocity": 0.26,
      "hand": "right"
    },
    {
      "midi": 52,
      "time": 390.5,
      "duration": 0.25,
      "velocity": 0.09,
      "hand": "left"
    },
    {
      "midi": 64,
      "time": 390.5,
      "duration": 0.5,
      "velocity": 0.26,
      "hand": "right"
    },
    {
      "midi": 76,
      "time": 390.5,
      "duration": 0.5,
      "velocity": 0.71,
      "hand": "right"
    },
    {
      "midi": 59,
      "time": 390.75,
      "duration": 0.25,
      "velocity": 0.09,
      "hand": "left"
    },
    {
      "midi": 67,
      "time": 390.75,
      "duration": 0.25,
      "velocity": 0.26,
      "hand": "right"
    },
    {
      "midi": 69,
      "time": 390.75,
      "duration": 0.25,
      "velocity": 0.26,
      "hand": "right"
    },
    {
      "midi": 61,
      "time": 391,
      "duration": 0.5,
      "velocity": 0.09,
      "hand": "right"
    },
    {
      "midi": 64,
      "time": 391,
      "duration": 0.5,
      "velocity": 0.71,
      "hand": "right"
    },
    {
      "midi": 76,
      "time": 391,
      "duration": 0.5,
      "velocity": 0.71,
      "hand": "right"
    },
    {
      "midi": 67,
      "time": 391.25,
      "duration": 0.25,
      "velocity": 0.26,
      "hand": "right"
    },
    {
      "midi": 69,
      "time": 391.25,
      "duration": 0.25,
      "velocity": 0.26,
      "hand": "right"
    },
    {
      "midi": 38,
      "time": 391.5,
      "duration": 0.25,
      "velocity": 0.09,
      "hand": "left"
    },
    {
      "midi": 64,
      "time": 391.5,
      "duration": 0.5,
      "velocity": 0.71,
      "hand": "right"
    },
    {
      "midi": 76,
      "time": 391.5,
      "duration": 0.5,
      "velocity": 0.71,
      "hand": "right"
    },
    {
      "midi": 57,
      "time": 391.75,
      "duration": 0.25,
      "velocity": 0.09,
      "hand": "left"
    },
    {
      "midi": 66,
      "time": 391.75,
      "duration": 0.25,
      "velocity": 0.26,
      "hand": "right"
    },
    {
      "midi": 69,
      "time": 391.75,
      "duration": 0.25,
      "velocity": 0.26,
      "hand": "right"
    },
    {
      "midi": 54,
      "time": 392,
      "duration": 0.25,
      "velocity": 0.09,
      "hand": "left"
    },
    {
      "midi": 62,
      "time": 392,
      "duration": 0.5,
      "velocity": 0.71,
      "hand": "right"
    },
    {
      "midi": 74,
      "time": 392,
      "duration": 0.5,
      "velocity": 0.71,
      "hand": "right"
    },
    {
      "midi": 57,
      "time": 392.25,
      "duration": 0.25,
      "velocity": 0.09,
      "hand": "left"
    },
    {
      "midi": 66,
      "time": 392.25,
      "duration": 0.25,
      "velocity": 0.26,
      "hand": "right"
    },
    {
      "midi": 69,
      "time": 392.25,
      "duration": 0.25,
      "velocity": 0.26,
      "hand": "right"
    },
    {
      "midi": 42,
      "time": 392.5,
      "duration": 0.25,
      "velocity": 0.09,
      "hand": "left"
    },
    {
      "midi": 61,
      "time": 392.5,
      "duration": 0.5,
      "velocity": 0.71,
      "hand": "right"
    },
    {
      "midi": 73,
      "time": 392.5,
      "duration": 0.5,
      "velocity": 0.71,
      "hand": "right"
    },
    {
      "midi": 49,
      "time": 392.75,
      "duration": 0.25,
      "velocity": 0.09,
      "hand": "left"
    },
    {
      "midi": 66,
      "time": 392.75,
      "duration": 0.25,
      "velocity": 0.26,
      "hand": "right"
    },
    {
      "midi": 69,
      "time": 392.75,
      "duration": 0.25,
      "velocity": 0.26,
      "hand": "right"
    },
    {
      "midi": 41,
      "time": 393,
      "duration": 0.25,
      "velocity": 0.09,
      "hand": "left"
    },
    {
      "midi": 61,
      "time": 393,
      "duration": 0.5,
      "velocity": 0.71,
      "hand": "right"
    },
    {
      "midi": 73,
      "time": 393,
      "duration": 0.5,
      "velocity": 0.71,
      "hand": "right"
    },
    {
      "midi": 49,
      "time": 393.25,
      "duration": 0.25,
      "velocity": 0.09,
      "hand": "left"
    },
    {
      "midi": 68,
      "time": 393.25,
      "duration": 0.25,
      "velocity": 0.26,
      "hand": "right"
    },
    {
      "midi": 56,
      "time": 393.5,
      "duration": 0.25,
      "velocity": 0.09,
      "hand": "left"
    },
    {
      "midi": 59,
      "time": 393.5,
      "duration": 0.5,
      "velocity": 0.71,
      "hand": "left"
    },
    {
      "midi": 71,
      "time": 393.5,
      "duration": 0.5,
      "velocity": 0.71,
      "hand": "right"
    },
    {
      "midi": 49,
      "time": 393.75,
      "duration": 0.25,
      "velocity": 0.09,
      "hand": "left"
    },
    {
      "midi": 61,
      "time": 393.75,
      "duration": 0.25,
      "velocity": 0.26,
      "hand": "right"
    },
    {
      "midi": 68,
      "time": 393.75,
      "duration": 0.25,
      "velocity": 0.26,
      "hand": "right"
    },
    {
      "midi": 42,
      "time": 394,
      "duration": 0.25,
      "velocity": 0.09,
      "hand": "left"
    },
    {
      "midi": 57,
      "time": 394,
      "duration": 0.5,
      "velocity": 0.71,
      "hand": "left"
    },
    {
      "midi": 69,
      "time": 394,
      "duration": 0.5,
      "velocity": 0.71,
      "hand": "right"
    },
    {
      "midi": 49,
      "time": 394.25,
      "duration": 0.25,
      "velocity": 0.09,
      "hand": "left"
    },
    {
      "midi": 61,
      "time": 394.25,
      "duration": 0.25,
      "velocity": 0.26,
      "hand": "right"
    },
    {
      "midi": 66,
      "time": 394.25,
      "duration": 0.25,
      "velocity": 0.26,
      "hand": "right"
    },
    {
      "midi": 37,
      "time": 394.5,
      "duration": 0.25,
      "velocity": 0.09,
      "hand": "left"
    },
    {
      "midi": 56,
      "time": 394.5,
      "duration": 0.25,
      "velocity": 0.26,
      "hand": "left"
    },
    {
      "midi": 73,
      "time": 394.5,
      "duration": 1.5,
      "velocity": 0.93,
      "hand": "right"
    },
    {
      "midi": 44,
      "time": 394.75,
      "duration": 0.25,
      "velocity": 0.09,
      "hand": "left"
    },
    {
      "midi": 65,
      "time": 394.75,
      "duration": 0.25,
      "velocity": 0.26,
      "hand": "right"
    },
    {
      "midi": 68,
      "time": 394.75,
      "duration": 0.25,
      "velocity": 0.26,
      "hand": "right"
    },
    {
      "midi": 56,
      "time": 395,
      "duration": 0.25,
      "velocity": 0.09,
      "hand": "left"
    },
    {
      "midi": 61,
      "time": 395,
      "duration": 0.25,
      "velocity": 0.26,
      "hand": "right"
    },
    {
      "midi": 49,
      "time": 395.25,
      "duration": 0.25,
      "velocity": 0.09,
      "hand": "left"
    },
    {
      "midi": 65,
      "time": 395.25,
      "duration": 0.25,
      "velocity": 0.26,
      "hand": "right"
    },
    {
      "midi": 68,
      "time": 395.25,
      "duration": 0.25,
      "velocity": 0.26,
      "hand": "right"
    },
    {
      "midi": 61,
      "time": 395.5,
      "duration": 0.25,
      "velocity": 0.26,
      "hand": "right"
    },
    {
      "midi": 61,
      "time": 395.5,
      "duration": 0.5,
      "velocity": 0.09,
      "hand": "right"
    },
    {
      "midi": 65,
      "time": 395.75,
      "duration": 0.25,
      "velocity": 0.26,
      "hand": "right"
    },
    {
      "midi": 68,
      "time": 395.75,
      "duration": 0.25,
      "velocity": 0.26,
      "hand": "right"
    },
    {
      "midi": 40,
      "time": 396,
      "duration": 0.25,
      "velocity": 0.09,
      "hand": "left"
    },
    {
      "midi": 61,
      "time": 396,
      "duration": 0.5,
      "velocity": 0.26,
      "hand": "right"
    },
    {
      "midi": 73,
      "time": 396,
      "duration": 0.5,
      "velocity": 0.93,
      "hand": "right"
    },
    {
      "midi": 52,
      "time": 396.25,
      "duration": 0.25,
      "velocity": 0.09,
      "hand": "left"
    },
    {
      "midi": 64,
      "time": 396.25,
      "duration": 0.25,
      "velocity": 0.26,
      "hand": "right"
    },
    {
      "midi": 68,
      "time": 396.25,
      "duration": 0.25,
      "velocity": 0.26,
      "hand": "right"
    },
    {
      "midi": 50,
      "time": 396.5,
      "duration": 0.25,
      "velocity": 0.09,
      "hand": "left"
    },
    {
      "midi": 56,
      "time": 396.5,
      "duration": 0.25,
      "velocity": 0.09,
      "hand": "left"
    },
    {
      "midi": 59,
      "time": 396.5,
      "duration": 0.5,
      "velocity": 0.93,
      "hand": "left"
    },
    {
      "midi": 71,
      "time": 396.5,
      "duration": 0.5,
      "velocity": 0.93,
      "hand": "right"
    },
    {
      "midi": 52,
      "time": 396.75,
      "duration": 0.25,
      "velocity": 0.09,
      "hand": "left"
    },
    {
      "midi": 64,
      "time": 396.75,
      "duration": 0.25,
      "velocity": 0.26,
      "hand": "right"
    },
    {
      "midi": 68,
      "time": 396.75,
      "duration": 0.25,
      "velocity": 0.26,
      "hand": "right"
    },
    {
      "midi": 49,
      "time": 397,
      "duration": 0.25,
      "velocity": 0.09,
      "hand": "left"
    },
    {
      "midi": 57,
      "time": 397,
      "duration": 0.5,
      "velocity": 0.93,
      "hand": "left"
    },
    {
      "midi": 69,
      "time": 397,
      "duration": 0.5,
      "velocity": 0.93,
      "hand": "right"
    },
    {
      "midi": 52,
      "time": 397.25,
      "duration": 0.25,
      "velocity": 0.09,
      "hand": "left"
    },
    {
      "midi": 64,
      "time": 397.25,
      "duration": 0.25,
      "velocity": 0.26,
      "hand": "right"
    },
    {
      "midi": 45,
      "time": 397.5,
      "duration": 0.25,
      "velocity": 0.09,
      "hand": "left"
    },
    {
      "midi": 61,
      "time": 397.5,
      "duration": 0.25,
      "velocity": 0.71,
      "hand": "right"
    },
    {
      "midi": 73,
      "time": 397.5,
      "duration": 1.5,
      "velocity": 0.93,
      "hand": "right"
    },
    {
      "midi": 52,
      "time": 397.75,
      "duration": 0.25,
      "velocity": 0.09,
      "hand": "left"
    },
    {
      "midi": 64,
      "time": 397.75,
      "duration": 0.25,
      "velocity": 0.71,
      "hand": "right"
    },
    {
      "midi": 69,
      "time": 397.75,
      "duration": 0.25,
      "velocity": 0.71,
      "hand": "right"
    },
    {
      "midi": 57,
      "time": 398,
      "duration": 0.25,
      "velocity": 0.09,
      "hand": "left"
    },
    {
      "midi": 61,
      "time": 398,
      "duration": 0.25,
      "velocity": 0.71,
      "hand": "right"
    },
    {
      "midi": 54,
      "time": 398.25,
      "duration": 0.25,
      "velocity": 0.09,
      "hand": "left"
    },
    {
      "midi": 62,
      "time": 398.25,
      "duration": 0.25,
      "velocity": 0.71,
      "hand": "right"
    },
    {
      "midi": 69,
      "time": 398.25,
      "duration": 0.25,
      "velocity": 0.71,
      "hand": "right"
    },
    {
      "midi": 52,
      "time": 398.5,
      "duration": 0.25,
      "velocity": 0.09,
      "hand": "left"
    },
    {
      "midi": 61,
      "time": 398.5,
      "duration": 0.25,
      "velocity": 0.71,
      "hand": "right"
    },
    {
      "midi": 45,
      "time": 398.75,
      "duration": 0.25,
      "velocity": 0.09,
      "hand": "left"
    },
    {
      "midi": 64,
      "time": 398.75,
      "duration": 0.25,
      "velocity": 0.71,
      "hand": "right"
    },
    {
      "midi": 69,
      "time": 398.75,
      "duration": 0.5,
      "velocity": 0.71,
      "hand": "right"
    },
    {
      "midi": 57,
      "time": 399,
      "duration": 0.25,
      "velocity": 0.71,
      "hand": "left"
    },
    {
      "midi": 61,
      "time": 399,
      "duration": 0.25,
      "velocity": 0.71,
      "hand": "right"
    },
    {
      "midi": 73,
      "time": 399,
      "duration": 2,
      "velocity": 0.93,
      "hand": "right"
    },
    {
      "midi": 54,
      "time": 399.25,
      "duration": 0.25,
      "velocity": 0.71,
      "hand": "left"
    },
    {
      "midi": 62,
      "time": 399.25,
      "duration": 0.25,
      "velocity": 0.71,
      "hand": "right"
    },
    {
      "midi": 69,
      "time": 399.25,
      "duration": 0.5,
      "velocity": 0.71,
      "hand": "right"
    },
    {
      "midi": 52,
      "time": 399.5,
      "duration": 0.25,
      "velocity": 0.71,
      "hand": "left"
    },
    {
      "midi": 61,
      "time": 399.5,
      "duration": 0.25,
      "velocity": 0.71,
      "hand": "right"
    },
    {
      "midi": 45,
      "time": 399.75,
      "duration": 1.75,
      "velocity": 0.71,
      "hand": "left"
    },
    {
      "midi": 64,
      "time": 399.75,
      "duration": 0.25,
      "velocity": 0.71,
      "hand": "right"
    },
    {
      "midi": 69,
      "time": 399.75,
      "duration": 0.5,
      "velocity": 0.71,
      "hand": "right"
    },
    {
      "midi": 57,
      "time": 400,
      "duration": 0.25,
      "velocity": 0.71,
      "hand": "left"
    },
    {
      "midi": 61,
      "time": 400,
      "duration": 0.25,
      "velocity": 0.71,
      "hand": "right"
    },
    {
      "midi": 54,
      "time": 400.25,
      "duration": 0.25,
      "velocity": 0.71,
      "hand": "left"
    },
    {
      "midi": 62,
      "time": 400.25,
      "duration": 0.25,
      "velocity": 0.71,
      "hand": "right"
    },
    {
      "midi": 69,
      "time": 400.25,
      "duration": 0.25,
      "velocity": 0.71,
      "hand": "right"
    },
    {
      "midi": 52,
      "time": 400.5,
      "duration": 1,
      "velocity": 0.71,
      "hand": "left"
    },
    {
      "midi": 61,
      "time": 400.5,
      "duration": 1.5,
      "velocity": 0.71,
      "hand": "right"
    },
    {
      "midi": 69,
      "time": 400.5,
      "duration": 0.5,
      "velocity": 0.71,
      "hand": "right"
    },
    {
      "midi": 57,
      "time": 401,
      "duration": 0.125,
      "velocity": 0.71,
      "hand": "left"
    },
    {
      "midi": 61,
      "time": 401,
      "duration": 0.125,
      "velocity": 0.71,
      "hand": "right"
    },
    {
      "midi": 64,
      "time": 401,
      "duration": 0.125,
      "velocity": 0.71,
      "hand": "right"
    },
    {
      "midi": 69,
      "time": 401,
      "duration": 0.5,
      "velocity": 0.71,
      "hand": "right"
    },
    {
      "midi": 69,
      "time": 401,
      "duration": 0.125,
      "velocity": 0.71,
      "hand": "right"
    },
    {
      "midi": 73,
      "time": 401,
      "duration": 0.25,
      "velocity": 0.71,
      "hand": "right"
    },
    {
      "midi": 76,
      "time": 401,
      "duration": 0.125,
      "velocity": 0.71,
      "hand": "right"
    },
    {
      "midi": 69,
      "time": 401.25,
      "duration": 0.125,
      "velocity": 0.71,
      "hand": "right"
    },
    {
      "midi": 73,
      "time": 401.25,
      "duration": 0.125,
      "velocity": 0.71,
      "hand": "right"
    },
    {
      "midi": 74,
      "time": 401.25,
      "duration": 0.125,
      "velocity": 0.71,
      "hand": "right"
    },
    {
      "midi": 76,
      "time": 401.25,
      "duration": 0.125,
      "velocity": 0.71,
      "hand": "right"
    },
    {
      "midi": 77,
      "time": 401.25,
      "duration": 0.125,
      "velocity": 0.71,
      "hand": "right"
    },
    {
      "midi": 79,
      "time": 401.25,
      "duration": 0.125,
      "velocity": 0.71,
      "hand": "right"
    },
    {
      "midi": 81,
      "time": 401.25,
      "duration": 0.125,
      "velocity": 0.71,
      "hand": "right"
    },
    {
      "midi": 85,
      "time": 401.25,
      "duration": 0.125,
      "velocity": 0.71,
      "hand": "right"
    },
    {
      "midi": 86,
      "time": 401.25,
      "duration": 0.125,
      "velocity": 0.71,
      "hand": "right"
    },
    {
      "midi": 88,
      "time": 401.25,
      "duration": 0.125,
      "velocity": 0.71,
      "hand": "right"
    },
    {
      "midi": 93,
      "time": 401.25,
      "duration": 0.125,
      "velocity": 0.71,
      "hand": "right"
    },
    {
      "midi": 45,
      "time": 401.5,
      "duration": 0.125,
      "velocity": 0.71,
      "hand": "left"
    },
    {
      "midi": 52,
      "time": 401.5,
      "duration": 0.125,
      "velocity": 0.71,
      "hand": "left"
    },
    {
      "midi": 57,
      "time": 401.5,
      "duration": 0.125,
      "velocity": 0.71,
      "hand": "left"
    },
    {
      "midi": 61,
      "time": 401.5,
      "duration": 0.125,
      "velocity": 0.71,
      "hand": "right"
    },
    {
      "midi": 62,
      "time": 401.5,
      "duration": 0.125,
      "velocity": 0.71,
      "hand": "right"
    },
    {
      "midi": 64,
      "time": 401.5,
      "duration": 0.125,
      "velocity": 0.71,
      "hand": "right"
    },
    {
      "midi": 65,
      "time": 401.5,
      "duration": 0.125,
      "velocity": 0.71,
      "hand": "right"
    },
    {
      "midi": 67,
      "time": 401.5,
      "duration": 0.125,
      "velocity": 0.71,
      "hand": "right"
    },
    {
      "midi": 69,
      "time": 401.5,
      "duration": 0.125,
      "velocity": 0.71,
      "hand": "right"
    },
    {
      "midi": 73,
      "time": 401.5,
      "duration": 0.125,
      "velocity": 0.71,
      "hand": "right"
    },
    {
      "midi": 73,
      "time": 401.5,
      "duration": 0.5,
      "velocity": 0.71,
      "hand": "right"
    },
    {
      "midi": 74,
      "time": 401.5,
      "duration": 0.125,
      "velocity": 0.71,
      "hand": "right"
    },
    {
      "midi": 76,
      "time": 401.5,
      "duration": 0.125,
      "velocity": 0.71,
      "hand": "right"
    },
    {
      "midi": 81,
      "time": 401.5,
      "duration": 0.125,
      "velocity": 0.71,
      "hand": "right"
    },
    {
      "midi": 45,
      "time": 401.75,
      "duration": 0.25,
      "velocity": 0.71,
      "hand": "left"
    },
    {
      "midi": 52,
      "time": 401.75,
      "duration": 0.25,
      "velocity": 0.71,
      "hand": "left"
    },
    {
      "midi": 61,
      "time": 401.75,
      "duration": 0.125,
      "velocity": 0.71,
      "hand": "right"
    },
    {
      "midi": 61,
      "time": 401.75,
      "duration": 0.25,
      "velocity": 0.71,
      "hand": "right"
    },
    {
      "midi": 62,
      "time": 401.75,
      "duration": 0.125,
      "velocity": 0.71,
      "hand": "right"
    },
    {
      "midi": 64,
      "time": 401.75,
      "duration": 0.125,
      "velocity": 0.71,
      "hand": "right"
    },
    {
      "midi": 65,
      "time": 401.75,
      "duration": 0.125,
      "velocity": 0.71,
      "hand": "right"
    },
    {
      "midi": 67,
      "time": 401.75,
      "duration": 0.125,
      "velocity": 0.71,
      "hand": "right"
    },
    {
      "midi": 69,
      "time": 401.75,
      "duration": 0.125,
      "velocity": 0.71,
      "hand": "right"
    },
    {
      "midi": 69,
      "time": 401.75,
      "duration": 0.25,
      "velocity": 0.71,
      "hand": "right"
    },
    {
      "midi": 68,
      "time": 402,
      "duration": 0.125,
      "velocity": 0.48,
      "hand": "right"
    },
    {
      "midi": 69,
      "time": 402,
      "duration": 0.125,
      "velocity": 0.48,
      "hand": "right"
    },
    {
      "midi": 70,
      "time": 402,
      "duration": 0.125,
      "velocity": 0.54,
      "hand": "right"
    },
    {
      "midi": 70,
      "time": 402.5,
      "duration": 0.5,
      "velocity": 0.48,
      "hand": "right"
    },
    {
      "midi": 74,
      "time": 403,
      "duration": 0.5,
      "velocity": 0.48,
      "hand": "right"
    },
    {
      "midi": 57,
      "time": 403.5,
      "duration": 0.5,
      "velocity": 0.71,
      "hand": "left"
    },
    {
      "midi": 73,
      "time": 403.5,
      "duration": 0.5,
      "velocity": 0.48,
      "hand": "right"
    },
    {
      "midi": 58,
      "time": 404,
      "duration": 0.5,
      "velocity": 0.71,
      "hand": "left"
    },
    {
      "midi": 67,
      "time": 404,
      "duration": 0.5,
      "velocity": 0.48,
      "hand": "right"
    },
    {
      "midi": 62,
      "time": 404.5,
      "duration": 0.5,
      "velocity": 0.71,
      "hand": "right"
    },
    {
      "midi": 70,
      "time": 404.5,
      "duration": 0.5,
      "velocity": 0.48,
      "hand": "right"
    },
    {
      "midi": 61,
      "time": 405,
      "duration": 0.5,
      "velocity": 0.71,
      "hand": "right"
    },
    {
      "midi": 69,
      "time": 405,
      "duration": 0.5,
      "velocity": 0.48,
      "hand": "right"
    },
    {
      "midi": 55,
      "time": 405.5,
      "duration": 0.5,
      "velocity": 0.71,
      "hand": "left"
    },
    {
      "midi": 70,
      "time": 405.5,
      "duration": 0.5,
      "velocity": 0.48,
      "hand": "right"
    },
    {
      "midi": 58,
      "time": 406,
      "duration": 0.5,
      "velocity": 0.71,
      "hand": "left"
    },
    {
      "midi": 74,
      "time": 406,
      "duration": 0.5,
      "velocity": 0.48,
      "hand": "right"
    },
    {
      "midi": 57,
      "time": 406.5,
      "duration": 0.5,
      "velocity": 0.71,
      "hand": "left"
    },
    {
      "midi": 73,
      "time": 406.5,
      "duration": 0.5,
      "velocity": 0.48,
      "hand": "right"
    },
    {
      "midi": 58,
      "time": 407,
      "duration": 0.5,
      "velocity": 0.71,
      "hand": "left"
    },
    {
      "midi": 67,
      "time": 407,
      "duration": 0.5,
      "velocity": 0.48,
      "hand": "right"
    },
    {
      "midi": 62,
      "time": 407.5,
      "duration": 0.5,
      "velocity": 0.71,
      "hand": "right"
    },
    {
      "midi": 70,
      "time": 407.5,
      "duration": 0.5,
      "velocity": 0.48,
      "hand": "right"
    },
    {
      "midi": 61,
      "time": 408,
      "duration": 0.5,
      "velocity": 0.71,
      "hand": "right"
    },
    {
      "midi": 60,
      "time": 408.5,
      "duration": 0.5,
      "velocity": 0.71,
      "hand": "right"
    },
    {
      "midi": 69,
      "time": 408.5,
      "duration": 0.25,
      "velocity": 0.71,
      "hand": "right"
    },
    {
      "midi": 70,
      "time": 408.75,
      "duration": 0.25,
      "velocity": 0.71,
      "hand": "right"
    },
    {
      "midi": 58,
      "time": 409,
      "duration": 1,
      "velocity": 0.71,
      "hand": "left"
    },
    {
      "midi": 67,
      "time": 409,
      "duration": 0.5,
      "velocity": 0.71,
      "hand": "right"
    },
    {
      "midi": 69,
      "time": 409,
      "duration": 0.25,
      "velocity": 0.71,
      "hand": "right"
    },
    {
      "midi": 70,
      "time": 409.25,
      "duration": 0.25,
      "velocity": 0.71,
      "hand": "right"
    },
    {
      "midi": 60,
      "time": 409.5,
      "duration": 0.5,
      "velocity": 0.71,
      "hand": "right"
    },
    {
      "midi": 72,
      "time": 409.5,
      "duration": 0.5,
      "velocity": 0.71,
      "hand": "right"
    },
    {
      "midi": 57,
      "time": 410,
      "duration": 0.5,
      "velocity": 0.71,
      "hand": "left"
    },
    {
      "midi": 62,
      "time": 410,
      "duration": 0.5,
      "velocity": 0.71,
      "hand": "right"
    },
    {
      "midi": 72,
      "time": 410,
      "duration": 0.5,
      "velocity": 0.71,
      "hand": "right"
    },
    {
      "midi": 50,
      "time": 410.5,
      "duration": 0.5,
      "velocity": 0.71,
      "hand": "left"
    },
    {
      "midi": 65,
      "time": 410.5,
      "duration": 0.5,
      "velocity": 0.71,
      "hand": "right"
    },
    {
      "midi": 72,
      "time": 410.5,
      "duration": 0.5,
      "velocity": 0.71,
      "hand": "right"
    },
    {
      "midi": 55,
      "time": 411,
      "duration": 0.5,
      "velocity": 0.71,
      "hand": "left"
    },
    {
      "midi": 58,
      "time": 411,
      "duration": 0.5,
      "velocity": 0.71,
      "hand": "left"
    },
    {
      "midi": 65,
      "time": 411,
      "duration": 1,
      "velocity": 0.71,
      "hand": "right"
    },
    {
      "midi": 72,
      "time": 411,
      "duration": 0.5,
      "velocity": 0.71,
      "hand": "right"
    },
    {
      "midi": 43,
      "time": 411.5,
      "duration": 0.5,
      "velocity": 0.71,
      "hand": "left"
    },
    {
      "midi": 62,
      "time": 411.5,
      "duration": 0.5,
      "velocity": 0.71,
      "hand": "right"
    },
    {
      "midi": 70,
      "time": 411.5,
      "duration": 0.25,
      "velocity": 0.71,
      "hand": "right"
    },
    {
      "midi": 69,
      "time": 411.75,
      "duration": 0.25,
      "velocity": 0.71,
      "hand": "right"
    },
    {
      "midi": 48,
      "time": 412,
      "duration": 1,
      "velocity": 0.71,
      "hand": "left"
    },
    {
      "midi": 58,
      "time": 412,
      "duration": 0.5,
      "velocity": 0.71,
      "hand": "left"
    },
    {
      "midi": 64,
      "time": 412,
      "duration": 0.5,
      "velocity": 0.71,
      "hand": "right"
    },
    {
      "midi": 67,
      "time": 412,
      "duration": 0.25,
      "velocity": 0.71,
      "hand": "right"
    },
    {
      "midi": 69,
      "time": 412.25,
      "duration": 0.25,
      "velocity": 0.71,
      "hand": "right"
    },
    {
      "midi": 41,
      "time": 412.5,
      "duration": 0.5,
      "velocity": 0.71,
      "hand": "left"
    },
    {
      "midi": 57,
      "time": 412.5,
      "duration": 0.5,
      "velocity": 0.71,
      "hand": "left"
    },
    {
      "midi": 65,
      "time": 412.5,
      "duration": 0.5,
      "velocity": 0.71,
      "hand": "right"
    },
    {
      "midi": 49,
      "time": 413,
      "duration": 0.5,
      "velocity": 0.71,
      "hand": "left"
    },
    {
      "midi": 53,
      "time": 413.5,
      "duration": 0.5,
      "velocity": 0.71,
      "hand": "left"
    },
    {
      "midi": 52,
      "time": 414,
      "duration": 0.5,
      "velocity": 0.71,
      "hand": "left"
    },
    {
      "midi": 60,
      "time": 414,
      "duration": 0.5,
      "velocity": 0.71,
      "hand": "right"
    },
    {
      "midi": 46,
      "time": 414.5,
      "duration": 0.5,
      "velocity": 0.71,
      "hand": "left"
    },
    {
      "midi": 61,
      "time": 414.5,
      "duration": 0.5,
      "velocity": 0.71,
      "hand": "right"
    },
    {
      "midi": 49,
      "time": 415,
      "duration": 0.5,
      "velocity": 0.71,
      "hand": "left"
    },
    {
      "midi": 65,
      "time": 415,
      "duration": 0.5,
      "velocity": 0.71,
      "hand": "right"
    },
    {
      "midi": 48,
      "time": 415.5,
      "duration": 0.5,
      "velocity": 0.71,
      "hand": "left"
    },
    {
      "midi": 64,
      "time": 415.5,
      "duration": 0.5,
      "velocity": 0.71,
      "hand": "right"
    },
    {
      "midi": 72,
      "time": 415.5,
      "duration": 0.5,
      "velocity": 0.71,
      "hand": "right"
    },
    {
      "midi": 58,
      "time": 416,
      "duration": 0.5,
      "velocity": 0.71,
      "hand": "left"
    },
    {
      "midi": 73,
      "time": 416,
      "duration": 0.5,
      "velocity": 0.71,
      "hand": "right"
    },
    {
      "midi": 61,
      "time": 416.5,
      "duration": 0.5,
      "velocity": 0.71,
      "hand": "right"
    },
    {
      "midi": 77,
      "time": 416.5,
      "duration": 0.5,
      "velocity": 0.71,
      "hand": "right"
    },
    {
      "midi": 60,
      "time": 417,
      "duration": 0.5,
      "velocity": 0.71,
      "hand": "right"
    },
    {
      "midi": 76,
      "time": 417,
      "duration": 0.5,
      "velocity": 0.71,
      "hand": "right"
    },
    {
      "midi": 61,
      "time": 417.5,
      "duration": 0.5,
      "velocity": 0.71,
      "hand": "right"
    },
    {
      "midi": 70,
      "time": 417.5,
      "duration": 0.5,
      "velocity": 0.71,
      "hand": "right"
    },
    {
      "midi": 65,
      "time": 418,
      "duration": 0.5,
      "velocity": 0.71,
      "hand": "right"
    },
    {
      "midi": 73,
      "time": 418,
      "duration": 0.5,
      "velocity": 0.71,
      "hand": "right"
    },
    {
      "midi": 64,
      "time": 418.5,
      "duration": 0.5,
      "velocity": 0.71,
      "hand": "right"
    },
    {
      "midi": 63,
      "time": 419,
      "duration": 0.5,
      "velocity": 0.71,
      "hand": "right"
    },
    {
      "midi": 72,
      "time": 419,
      "duration": 0.25,
      "velocity": 0.71,
      "hand": "right"
    },
    {
      "midi": 73,
      "time": 419.25,
      "duration": 0.25,
      "velocity": 0.71,
      "hand": "right"
    },
    {
      "midi": 61,
      "time": 419.5,
      "duration": 1,
      "velocity": 0.71,
      "hand": "right"
    },
    {
      "midi": 70,
      "time": 419.5,
      "duration": 0.5,
      "velocity": 0.71,
      "hand": "right"
    },
    {
      "midi": 72,
      "time": 419.5,
      "duration": 0.25,
      "velocity": 0.71,
      "hand": "right"
    },
    {
      "midi": 73,
      "time": 419.75,
      "duration": 0.25,
      "velocity": 0.71,
      "hand": "right"
    },
    {
      "midi": 63,
      "time": 420,
      "duration": 0.5,
      "velocity": 0.71,
      "hand": "right"
    },
    {
      "midi": 75,
      "time": 420,
      "duration": 0.5,
      "velocity": 0.71,
      "hand": "right"
    },
    {
      "midi": 60,
      "time": 420.5,
      "duration": 0.5,
      "velocity": 0.71,
      "hand": "right"
    },
    {
      "midi": 65,
      "time": 420.5,
      "duration": 0.5,
      "velocity": 0.71,
      "hand": "right"
    },
    {
      "midi": 75,
      "time": 420.5,
      "duration": 0.5,
      "velocity": 0.71,
      "hand": "right"
    },
    {
      "midi": 53,
      "time": 421,
      "duration": 0.5,
      "velocity": 0.71,
      "hand": "left"
    },
    {
      "midi": 68,
      "time": 421,
      "duration": 0.5,
      "velocity": 0.71,
      "hand": "right"
    },
    {
      "midi": 75,
      "time": 421,
      "duration": 0.5,
      "velocity": 0.71,
      "hand": "right"
    },
    {
      "midi": 58,
      "time": 421.5,
      "duration": 0.5,
      "velocity": 0.71,
      "hand": "left"
    },
    {
      "midi": 61,
      "time": 421.5,
      "duration": 0.5,
      "velocity": 0.71,
      "hand": "right"
    },
    {
      "midi": 68,
      "time": 421.5,
      "duration": 1,
      "velocity": 0.71,
      "hand": "right"
    },
    {
      "midi": 75,
      "time": 421.5,
      "duration": 0.5,
      "velocity": 0.71,
      "hand": "right"
    },
    {
      "midi": 46,
      "time": 422,
      "duration": 0.5,
      "velocity": 0.71,
      "hand": "left"
    },
    {
      "midi": 65,
      "time": 422,
      "duration": 0.5,
      "velocity": 0.71,
      "hand": "right"
    },
    {
      "midi": 73,
      "time": 422,
      "duration": 0.25,
      "velocity": 0.71,
      "hand": "right"
    },
    {
      "midi": 72,
      "time": 422.25,
      "duration": 0.25,
      "velocity": 0.71,
      "hand": "right"
    },
    {
      "midi": 51,
      "time": 422.5,
      "duration": 1,
      "velocity": 0.71,
      "hand": "left"
    },
    {
      "midi": 61,
      "time": 422.5,
      "duration": 0.5,
      "velocity": 0.71,
      "hand": "right"
    },
    {
      "midi": 67,
      "time": 422.5,
      "duration": 0.5,
      "velocity": 0.71,
      "hand": "right"
    },
    {
      "midi": 70,
      "time": 422.5,
      "duration": 0.25,
      "velocity": 0.71,
      "hand": "right"
    },
    {
      "midi": 72,
      "time": 422.75,
      "duration": 0.25,
      "velocity": 0.71,
      "hand": "right"
    },
    {
      "midi": 44,
      "time": 423,
      "duration": 0.5,
      "velocity": 0.71,
      "hand": "left"
    },
    {
      "midi": 60,
      "time": 423,
      "duration": 0.5,
      "velocity": 0.71,
      "hand": "right"
    },
    {
      "midi": 68,
      "time": 423,
      "duration": 0.5,
      "velocity": 0.71,
      "hand": "right"
    },
    {
      "midi": 52,
      "time": 423.5,
      "duration": 0.5,
      "velocity": 0.71,
      "hand": "left"
    },
    {
      "midi": 56,
      "time": 424,
      "duration": 0.5,
      "velocity": 0.71,
      "hand": "left"
    },
    {
      "midi": 55,
      "time": 424.5,
      "duration": 0.5,
      "velocity": 0.71,
      "hand": "left"
    },
    {
      "midi": 63,
      "time": 424.5,
      "duration": 0.5,
      "velocity": 0.71,
      "hand": "right"
    },
    {
      "midi": 49,
      "time": 425,
      "duration": 0.5,
      "velocity": 0.71,
      "hand": "left"
    },
    {
      "midi": 64,
      "time": 425,
      "duration": 0.5,
      "velocity": 0.71,
      "hand": "right"
    },
    {
      "midi": 52,
      "time": 425.5,
      "duration": 0.5,
      "velocity": 0.71,
      "hand": "left"
    },
    {
      "midi": 68,
      "time": 425.5,
      "duration": 0.5,
      "velocity": 0.71,
      "hand": "right"
    },
    {
      "midi": 51,
      "time": 426,
      "duration": 0.5,
      "velocity": 0.71,
      "hand": "left"
    },
    {
      "midi": 67,
      "time": 426,
      "duration": 0.5,
      "velocity": 0.71,
      "hand": "right"
    },
    {
      "midi": 75,
      "time": 426,
      "duration": 0.5,
      "velocity": 0.71,
      "hand": "right"
    },
    {
      "midi": 68,
      "time": 426.5,
      "duration": 0.5,
      "velocity": 0.71,
      "hand": "right"
    },
    {
      "midi": 76,
      "time": 426.5,
      "duration": 0.5,
      "velocity": 0.71,
      "hand": "right"
    },
    {
      "midi": 62,
      "time": 427,
      "duration": 0.5,
      "velocity": 0.71,
      "hand": "right"
    },
    {
      "midi": 71,
      "time": 427,
      "duration": 0.5,
      "velocity": 0.71,
      "hand": "right"
    },
    {
      "midi": 80,
      "time": 427,
      "duration": 0.5,
      "velocity": 0.71,
      "hand": "right"
    },
    {
      "midi": 63,
      "time": 427.5,
      "duration": 0.5,
      "velocity": 0.71,
      "hand": "right"
    },
    {
      "midi": 70,
      "time": 427.5,
      "duration": 0.5,
      "velocity": 0.71,
      "hand": "right"
    },
    {
      "midi": 79,
      "time": 427.5,
      "duration": 0.5,
      "velocity": 0.71,
      "hand": "right"
    },
    {
      "midi": 64,
      "time": 428,
      "duration": 0.5,
      "velocity": 0.71,
      "hand": "right"
    },
    {
      "midi": 69,
      "time": 428,
      "duration": 0.5,
      "velocity": 0.71,
      "hand": "right"
    },
    {
      "midi": 73,
      "time": 428,
      "duration": 0.5,
      "velocity": 0.71,
      "hand": "right"
    },
    {
      "midi": 68,
      "time": 428.5,
      "duration": 0.5,
      "velocity": 0.71,
      "hand": "right"
    },
    {
      "midi": 76,
      "time": 428.5,
      "duration": 0.5,
      "velocity": 0.71,
      "hand": "right"
    },
    {
      "midi": 67,
      "time": 429,
      "duration": 0.5,
      "velocity": 0.71,
      "hand": "right"
    },
    {
      "midi": 66,
      "time": 429.5,
      "duration": 0.5,
      "velocity": 0.71,
      "hand": "right"
    },
    {
      "midi": 75,
      "time": 429.5,
      "duration": 0.25,
      "velocity": 0.71,
      "hand": "right"
    },
    {
      "midi": 76,
      "time": 429.75,
      "duration": 0.25,
      "velocity": 0.71,
      "hand": "right"
    },
    {
      "midi": 64,
      "time": 430,
      "duration": 0.5,
      "velocity": 0.71,
      "hand": "right"
    },
    {
      "midi": 73,
      "time": 430,
      "duration": 0.5,
      "velocity": 0.71,
      "hand": "right"
    },
    {
      "midi": 75,
      "time": 430,
      "duration": 0.25,
      "velocity": 0.71,
      "hand": "right"
    },
    {
      "midi": 76,
      "time": 430.25,
      "duration": 0.25,
      "velocity": 0.71,
      "hand": "right"
    },
    {
      "midi": 63,
      "time": 430.5,
      "duration": 0.5,
      "velocity": 0.71,
      "hand": "right"
    },
    {
      "midi": 66,
      "time": 430.5,
      "duration": 0.5,
      "velocity": 0.71,
      "hand": "right"
    },
    {
      "midi": 78,
      "time": 430.5,
      "duration": 0.5,
      "velocity": 0.71,
      "hand": "right"
    },
    {
      "midi": 62,
      "time": 431,
      "duration": 0.5,
      "velocity": 0.71,
      "hand": "right"
    },
    {
      "midi": 66,
      "time": 431,
      "duration": 0.5,
      "velocity": 0.71,
      "hand": "right"
    },
    {
      "midi": 71,
      "time": 431,
      "duration": 0.5,
      "velocity": 0.71,
      "hand": "right"
    },
    {
      "midi": 78,
      "time": 431,
      "duration": 0.5,
      "velocity": 0.71,
      "hand": "right"
    },
    {
      "midi": 61,
      "time": 431.5,
      "duration": 0.5,
      "velocity": 0.71,
      "hand": "right"
    },
    {
      "midi": 64,
      "time": 431.5,
      "duration": 0.5,
      "velocity": 0.71,
      "hand": "right"
    },
    {
      "midi": 70,
      "time": 431.5,
      "duration": 0.5,
      "velocity": 0.71,
      "hand": "right"
    },
    {
      "midi": 78,
      "time": 431.5,
      "duration": 0.5,
      "velocity": 0.71,
      "hand": "right"
    },
    {
      "midi": 60,
      "time": 432,
      "duration": 0.5,
      "velocity": 0.71,
      "hand": "right"
    },
    {
      "midi": 63,
      "time": 432,
      "duration": 0.5,
      "velocity": 0.71,
      "hand": "right"
    },
    {
      "midi": 69,
      "time": 432,
      "duration": 1.5,
      "velocity": 0.71,
      "hand": "right"
    },
    {
      "midi": 78,
      "time": 432,
      "duration": 0.5,
      "velocity": 0.71,
      "hand": "right"
    },
    {
      "midi": 53,
      "time": 432.5,
      "duration": 0.5,
      "velocity": 0.71,
      "hand": "left"
    },
    {
      "midi": 77,
      "time": 432.5,
      "duration": 0.25,
      "velocity": 0.71,
      "hand": "right"
    },
    {
      "midi": 72,
      "time": 432.75,
      "duration": 0.25,
      "velocity": 0.71,
      "hand": "right"
    },
    {
      "midi": 65,
      "time": 433,
      "duration": 0.5,
      "velocity": 0.71,
      "hand": "right"
    },
    {
      "midi": 75,
      "time": 433,
      "duration": 0.25,
      "velocity": 0.71,
      "hand": "right"
    },
    {
      "midi": 73,
      "time": 433.25,
      "duration": 0.25,
      "velocity": 0.71,
      "hand": "right"
    },
    {
      "midi": 46,
      "time": 433.5,
      "duration": 0.5,
      "velocity": 0.71,
      "hand": "left"
    },
    {
      "midi": 70,
      "time": 433.5,
      "duration": 0.5,
      "velocity": 0.71,
      "hand": "right"
    },
    {
      "midi": 53,
      "time": 434,
      "duration": 0.5,
      "velocity": 0.71,
      "hand": "left"
    },
    {
      "midi": 61,
      "time": 434,
      "duration": 0.5,
      "velocity": 0.71,
      "hand": "right"
    },
    {
      "midi": 44,
      "time": 434.5,
      "duration": 0.5,
      "velocity": 0.71,
      "hand": "left"
    },
    {
      "midi": 42,
      "time": 435,
      "duration": 0.5,
      "velocity": 0.71,
      "hand": "left"
    },
    {
      "midi": 49,
      "time": 435.5,
      "duration": 0.5,
      "velocity": 0.71,
      "hand": "left"
    },
    {
      "midi": 54,
      "time": 435.5,
      "duration": 0.5,
      "velocity": 0.71,
      "hand": "left"
    },
    {
      "midi": 58,
      "time": 435.5,
      "duration": 0.5,
      "velocity": 0.71,
      "hand": "left"
    },
    {
      "midi": 73,
      "time": 435.5,
      "duration": 0.25,
      "velocity": 0.71,
      "hand": "right"
    },
    {
      "midi": 75,
      "time": 435.75,
      "duration": 0.25,
      "velocity": 0.71,
      "hand": "right"
    },
    {
      "midi": 54,
      "time": 436,
      "duration": 0.5,
      "velocity": 0.71,
      "hand": "left"
    },
    {
      "midi": 58,
      "time": 436,
      "duration": 0.5,
      "velocity": 0.71,
      "hand": "left"
    },
    {
      "midi": 61,
      "time": 436,
      "duration": 0.5,
      "velocity": 0.71,
      "hand": "right"
    },
    {
      "midi": 73,
      "time": 436,
      "duration": 0.25,
      "velocity": 0.71,
      "hand": "right"
    },
    {
      "midi": 75,
      "time": 436.25,
      "duration": 0.25,
      "velocity": 0.71,
      "hand": "right"
    },
    {
      "midi": 37,
      "time": 436.5,
      "duration": 0.5,
      "velocity": 0.71,
      "hand": "left"
    },
    {
      "midi": 77,
      "time": 436.5,
      "duration": 0.5,
      "velocity": 0.71,
      "hand": "right"
    },
    {
      "midi": 53,
      "time": 437,
      "duration": 0.5,
      "velocity": 0.71,
      "hand": "left"
    },
    {
      "midi": 56,
      "time": 437,
      "duration": 0.5,
      "velocity": 0.71,
      "hand": "left"
    },
    {
      "midi": 61,
      "time": 437,
      "duration": 0.5,
      "velocity": 0.71,
      "hand": "right"
    },
    {
      "midi": 77,
      "time": 437,
      "duration": 0.5,
      "velocity": 0.71,
      "hand": "right"
    },
    {
      "midi": 56,
      "time": 437.5,
      "duration": 0.5,
      "velocity": 0.71,
      "hand": "left"
    },
    {
      "midi": 61,
      "time": 437.5,
      "duration": 0.5,
      "velocity": 0.71,
      "hand": "right"
    },
    {
      "midi": 65,
      "time": 437.5,
      "duration": 0.5,
      "velocity": 0.71,
      "hand": "right"
    },
    {
      "midi": 77,
      "time": 437.5,
      "duration": 0.5,
      "velocity": 0.71,
      "hand": "right"
    },
    {
      "midi": 39,
      "time": 438,
      "duration": 0.5,
      "velocity": 0.71,
      "hand": "left"
    },
    {
      "midi": 77,
      "time": 438,
      "duration": 0.5,
      "velocity": 0.71,
      "hand": "right"
    },
    {
      "midi": 51,
      "time": 438.5,
      "duration": 0.5,
      "velocity": 0.71,
      "hand": "left"
    },
    {
      "midi": 58,
      "time": 438.5,
      "duration": 0.5,
      "velocity": 0.71,
      "hand": "left"
    },
    {
      "midi": 60,
      "time": 438.5,
      "duration": 0.5,
      "velocity": 0.71,
      "hand": "right"
    },
    {
      "midi": 75,
      "time": 438.5,
      "duration": 0.25,
      "velocity": 0.71,
      "hand": "right"
    },
    {
      "midi": 70,
      "time": 438.75,
      "duration": 0.25,
      "velocity": 0.71,
      "hand": "right"
    },
    {
      "midi": 58,
      "time": 439,
      "duration": 0.5,
      "velocity": 0.71,
      "hand": "left"
    },
    {
      "midi": 60,
      "time": 439,
      "duration": 0.5,
      "velocity": 0.71,
      "hand": "right"
    },
    {
      "midi": 66,
      "time": 439,
      "duration": 0.5,
      "velocity": 0.71,
      "hand": "right"
    },
    {
      "midi": 73,
      "time": 439,
      "duration": 0.25,
      "velocity": 0.71,
      "hand": "right"
    },
    {
      "midi": 72,
      "time": 439.25,
      "duration": 0.25,
      "velocity": 0.71,
      "hand": "right"
    },
    {
      "midi": 41,
      "time": 439.5,
      "duration": 0.5,
      "velocity": 0.71,
      "hand": "left"
    },
    {
      "midi": 69,
      "time": 439.5,
      "duration": 0.5,
      "velocity": 0.71,
      "hand": "right"
    },
    {
      "midi": 60,
      "time": 440,
      "duration": 0.5,
      "velocity": 0.71,
      "hand": "right"
    },
    {
      "midi": 65,
      "time": 440,
      "duration": 0.5,
      "velocity": 0.71,
      "hand": "right"
    },
    {
      "midi": 69,
      "time": 440,
      "duration": 0.5,
      "velocity": 0.71,
      "hand": "right"
    },
    {
      "midi": 72,
      "time": 440,
      "duration": 0.5,
      "velocity": 0.71,
      "hand": "right"
    },
    {
      "midi": 57,
      "time": 440.5,
      "duration": 0.5,
      "velocity": 0.71,
      "hand": "left"
    },
    {
      "midi": 60,
      "time": 440.5,
      "duration": 0.5,
      "velocity": 0.71,
      "hand": "right"
    },
    {
      "midi": 65,
      "time": 440.5,
      "duration": 0.5,
      "velocity": 0.71,
      "hand": "right"
    },
    {
      "midi": 77,
      "time": 440.5,
      "duration": 0.5,
      "velocity": 0.71,
      "hand": "right"
    },
    {
      "midi": 53,
      "time": 441,
      "duration": 0.5,
      "velocity": 0.71,
      "hand": "left"
    },
    {
      "midi": 76,
      "time": 441,
      "duration": 0.5,
      "velocity": 0.71,
      "hand": "right"
    },
    {
      "midi": 61,
      "time": 441.5,
      "duration": 0.5,
      "velocity": 0.71,
      "hand": "right"
    },
    {
      "midi": 64,
      "time": 441.5,
      "duration": 0.5,
      "velocity": 0.71,
      "hand": "right"
    },
    {
      "midi": 67,
      "time": 441.5,
      "duration": 0.5,
      "velocity": 0.71,
      "hand": "right"
    },
    {
      "midi": 70,
      "time": 441.5,
      "duration": 0.5,
      "velocity": 0.71,
      "hand": "right"
    },
    {
      "midi": 58,
      "time": 442,
      "duration": 0.5,
      "velocity": 0.71,
      "hand": "left"
    },
    {
      "midi": 61,
      "time": 442,
      "duration": 0.5,
      "velocity": 0.71,
      "hand": "right"
    },
    {
      "midi": 64,
      "time": 442,
      "duration": 0.5,
      "velocity": 0.71,
      "hand": "right"
    },
    {
      "midi": 73,
      "time": 442,
      "duration": 0.5,
      "velocity": 0.71,
      "hand": "right"
    },
    {
      "midi": 41,
      "time": 442.5,
      "duration": 0.5,
      "velocity": 0.71,
      "hand": "left"
    },
    {
      "midi": 60,
      "time": 443,
      "duration": 0.5,
      "velocity": 0.71,
      "hand": "right"
    },
    {
      "midi": 65,
      "time": 443,
      "duration": 0.5,
      "velocity": 0.71,
      "hand": "right"
    },
    {
      "midi": 69,
      "time": 443,
      "duration": 0.5,
      "velocity": 0.71,
      "hand": "right"
    },
    {
      "midi": 72,
      "time": 443,
      "duration": 0.5,
      "velocity": 0.71,
      "hand": "right"
    },
    {
      "midi": 57,
      "time": 443.5,
      "duration": 0.5,
      "velocity": 0.71,
      "hand": "left"
    },
    {
      "midi": 60,
      "time": 443.5,
      "duration": 0.5,
      "velocity": 0.71,
      "hand": "right"
    },
    {
      "midi": 65,
      "time": 443.5,
      "duration": 0.5,
      "velocity": 0.71,
      "hand": "right"
    },
    {
      "midi": 77,
      "time": 443.5,
      "duration": 0.75,
      "velocity": 0.71,
      "hand": "right"
    },
    {
      "midi": 53,
      "time": 444,
      "duration": 0.5,
      "velocity": 0.71,
      "hand": "left"
    },
    {
      "midi": 76,
      "time": 444.25,
      "duration": 0.25,
      "velocity": 0.71,
      "hand": "right"
    },
    {
      "midi": 61,
      "time": 444.5,
      "duration": 0.5,
      "velocity": 0.71,
      "hand": "right"
    },
    {
      "midi": 64,
      "time": 444.5,
      "duration": 0.5,
      "velocity": 0.71,
      "hand": "right"
    },
    {
      "midi": 67,
      "time": 444.5,
      "duration": 0.5,
      "velocity": 0.71,
      "hand": "right"
    },
    {
      "midi": 70,
      "time": 444.5,
      "duration": 0.25,
      "velocity": 0.71,
      "hand": "right"
    },
    {
      "midi": 72,
      "time": 444.75,
      "duration": 0.25,
      "velocity": 0.71,
      "hand": "right"
    },
    {
      "midi": 58,
      "time": 445,
      "duration": 0.5,
      "velocity": 0.71,
      "hand": "left"
    },
    {
      "midi": 61,
      "time": 445,
      "duration": 0.5,
      "velocity": 0.71,
      "hand": "right"
    },
    {
      "midi": 64,
      "time": 445,
      "duration": 0.5,
      "velocity": 0.71,
      "hand": "right"
    },
    {
      "midi": 75,
      "time": 445,
      "duration": 0.25,
      "velocity": 0.71,
      "hand": "right"
    },
    {
      "midi": 73,
      "time": 445.25,
      "duration": 0.25,
      "velocity": 0.71,
      "hand": "right"
    },
    {
      "midi": 41,
      "time": 445.5,
      "duration": 0.5,
      "velocity": 0.71,
      "hand": "left"
    },
    {
      "midi": 60,
      "time": 446,
      "duration": 0.5,
      "velocity": 0.71,
      "hand": "right"
    },
    {
      "midi": 63,
      "time": 446,
      "duration": 0.5,
      "velocity": 0.71,
      "hand": "right"
    },
    {
      "midi": 66,
      "time": 446,
      "duration": 0.5,
      "velocity": 0.71,
      "hand": "right"
    },
    {
      "midi": 72,
      "time": 446,
      "duration": 0.25,
      "velocity": 0.71,
      "hand": "right"
    },
    {
      "midi": 73,
      "time": 446.25,
      "duration": 0.25,
      "velocity": 0.71,
      "hand": "right"
    },
    {
      "midi": 54,
      "time": 446.5,
      "duration": 0.5,
      "velocity": 0.71,
      "hand": "left"
    },
    {
      "midi": 58,
      "time": 446.5,
      "duration": 0.5,
      "velocity": 0.71,
      "hand": "left"
    },
    {
      "midi": 63,
      "time": 446.5,
      "duration": 0.5,
      "velocity": 0.71,
      "hand": "right"
    },
    {
      "midi": 72,
      "time": 446.5,
      "duration": 0.25,
      "velocity": 0.71,
      "hand": "right"
    },
    {
      "midi": 73,
      "time": 446.75,
      "duration": 0.25,
      "velocity": 0.71,
      "hand": "right"
    },
    {
      "midi": 53,
      "time": 447,
      "duration": 0.5,
      "velocity": 0.71,
      "hand": "left"
    },
    {
      "midi": 75,
      "time": 447,
      "duration": 0.5,
      "velocity": 0.71,
      "hand": "right"
    },
    {
      "midi": 63,
      "time": 447.5,
      "duration": 0.5,
      "velocity": 0.71,
      "hand": "right"
    },
    {
      "midi": 66,
      "time": 447.5,
      "duration": 0.5,
      "velocity": 0.71,
      "hand": "right"
    },
    {
      "midi": 70,
      "time": 447.5,
      "duration": 0.5,
      "velocity": 0.71,
      "hand": "right"
    },
    {
      "midi": 75,
      "time": 447.5,
      "duration": 0.5,
      "velocity": 0.71,
      "hand": "right"
    },
    {
      "midi": 60,
      "time": 448,
      "duration": 0.5,
      "velocity": 0.71,
      "hand": "right"
    },
    {
      "midi": 63,
      "time": 448,
      "duration": 0.5,
      "velocity": 0.71,
      "hand": "right"
    },
    {
      "midi": 66,
      "time": 448,
      "duration": 0.5,
      "velocity": 0.71,
      "hand": "right"
    },
    {
      "midi": 75,
      "time": 448,
      "duration": 0.5,
      "velocity": 0.71,
      "hand": "right"
    },
    {
      "midi": 41,
      "time": 448.5,
      "duration": 0.5,
      "velocity": 0.71,
      "hand": "left"
    },
    {
      "midi": 75,
      "time": 448.5,
      "duration": 0.5,
      "velocity": 0.71,
      "hand": "right"
    },
    {
      "midi": 63,
      "time": 449,
      "duration": 0.5,
      "velocity": 0.71,
      "hand": "right"
    },
    {
      "midi": 69,
      "time": 449,
      "duration": 0.5,
      "velocity": 0.71,
      "hand": "right"
    },
    {
      "midi": 77,
      "time": 449,
      "duration": 0.25,
      "velocity": 0.71,
      "hand": "right"
    },
    {
      "midi": 72,
      "time": 449.25,
      "duration": 0.25,
      "velocity": 0.71,
      "hand": "right"
    },
    {
      "midi": 57,
      "time": 449.5,
      "duration": 0.5,
      "velocity": 0.71,
      "hand": "left"
    },
    {
      "midi": 63,
      "time": 449.5,
      "duration": 0.5,
      "velocity": 0.71,
      "hand": "right"
    },
    {
      "midi": 65,
      "time": 449.5,
      "duration": 0.5,
      "velocity": 0.71,
      "hand": "right"
    },
    {
      "midi": 75,
      "time": 449.5,
      "duration": 0.25,
      "velocity": 0.71,
      "hand": "right"
    },
    {
      "midi": 73,
      "time": 449.75,
      "duration": 0.25,
      "velocity": 0.71,
      "hand": "right"
    },
    {
      "midi": 46,
      "time": 450,
      "duration": 0.5,
      "velocity": 0.71,
      "hand": "left"
    },
    {
      "midi": 70,
      "time": 450,
      "duration": 1.5,
      "velocity": 0.71,
      "hand": "right"
    },
    {
      "midi": 58,
      "time": 450.5,
      "duration": 0.5,
      "velocity": 0.71,
      "hand": "left"
    },
    {
      "midi": 61,
      "time": 450.5,
      "duration": 0.5,
      "velocity": 0.71,
      "hand": "right"
    },
    {
      "midi": 65,
      "time": 450.5,
      "duration": 0.5,
      "velocity": 0.71,
      "hand": "right"
    },
    {
      "midi": 53,
      "time": 451,
      "duration": 0.5,
      "velocity": 0.71,
      "hand": "left"
    },
    {
      "midi": 58,
      "time": 451,
      "duration": 0.5,
      "velocity": 0.71,
      "hand": "left"
    },
    {
      "midi": 61,
      "time": 451,
      "duration": 0.5,
      "velocity": 0.71,
      "hand": "right"
    },
    {
      "midi": 48,
      "time": 451.5,
      "duration": 0.5,
      "velocity": 0.71,
      "hand": "left"
    },
    {
      "midi": 67,
      "time": 451.5,
      "duration": 1,
      "velocity": 0.71,
      "hand": "right"
    },
    {
      "midi": 58,
      "time": 452,
      "duration": 0.5,
      "velocity": 0.71,
      "hand": "left"
    },
    {
      "midi": 60,
      "time": 452,
      "duration": 0.5,
      "velocity": 0.71,
      "hand": "right"
    },
    {
      "midi": 64,
      "time": 452,
      "duration": 0.5,
      "velocity": 0.71,
      "hand": "right"
    },
    {
      "midi": 55,
      "time": 452.5,
      "duration": 0.5,
      "velocity": 0.71,
      "hand": "left"
    },
    {
      "midi": 58,
      "time": 452.5,
      "duration": 0.5,
      "velocity": 0.71,
      "hand": "left"
    },
    {
      "midi": 60,
      "time": 452.5,
      "duration": 0.5,
      "velocity": 0.71,
      "hand": "right"
    },
    {
      "midi": 41,
      "time": 453,
      "duration": 0.25,
      "velocity": 0.71,
      "hand": "left"
    },
    {
      "midi": 48,
      "time": 453.25,
      "duration": 0.25,
      "velocity": 0.71,
      "hand": "left"
    },
    {
      "midi": 56,
      "time": 453.5,
      "duration": 0.25,
      "velocity": 0.71,
      "hand": "left"
    },
    {
      "midi": 72,
      "time": 453.5,
      "duration": 0.5,
      "velocity": 0.71,
      "hand": "right"
    },
    {
      "midi": 53,
      "time": 453.75,
      "duration": 0.25,
      "velocity": 0.71,
      "hand": "left"
    },
    {
      "midi": 60,
      "time": 454,
      "duration": 0.25,
      "velocity": 0.71,
      "hand": "right"
    },
    {
      "midi": 77,
      "time": 454,
      "duration": 0.75,
      "velocity": 0.71,
      "hand": "right"
    },
    {
      "midi": 68,
      "time": 454.25,
      "duration": 0.25,
      "velocity": 0.71,
      "hand": "right"
    },
    {
      "midi": 41,
      "time": 454.5,
      "duration": 0.25,
      "velocity": 0.71,
      "hand": "left"
    },
    {
      "midi": 49,
      "time": 454.75,
      "duration": 0.25,
      "velocity": 0.71,
      "hand": "left"
    },
    {
      "midi": 76,
      "time": 454.75,
      "duration": 0.25,
      "velocity": 0.71,
      "hand": "right"
    },
    {
      "midi": 55,
      "time": 455,
      "duration": 0.25,
      "velocity": 0.71,
      "hand": "left"
    },
    {
      "midi": 69,
      "time": 455,
      "duration": 0.25,
      "velocity": 0.71,
      "hand": "right"
    },
    {
      "midi": 70,
      "time": 455,
      "duration": 0.25,
      "velocity": 0.71,
      "hand": "right"
    },
    {
      "midi": 52,
      "time": 455.25,
      "duration": 0.25,
      "velocity": 0.71,
      "hand": "left"
    },
    {
      "midi": 71,
      "time": 455.25,
      "duration": 0.25,
      "velocity": 0.71,
      "hand": "right"
    },
    {
      "midi": 58,
      "time": 455.5,
      "duration": 0.25,
      "velocity": 0.71,
      "hand": "left"
    },
    {
      "midi": 72,
      "time": 455.5,
      "duration": 0.25,
      "velocity": 0.71,
      "hand": "right"
    },
    {
      "midi": 67,
      "time": 455.75,
      "duration": 0.25,
      "velocity": 0.71,
      "hand": "right"
    },
    {
      "midi": 73,
      "time": 455.75,
      "duration": 0.25,
      "velocity": 0.71,
      "hand": "right"
    },
    {
      "midi": 75,
      "time": 455.75,
      "duration": 0.25,
      "velocity": 0.71,
      "hand": "right"
    },
    {
      "midi": 41,
      "time": 456,
      "duration": 0.25,
      "velocity": 0.71,
      "hand": "left"
    },
    {
      "midi": 48,
      "time": 456.25,
      "duration": 0.25,
      "velocity": 0.71,
      "hand": "left"
    },
    {
      "midi": 72,
      "time": 456.25,
      "duration": 0.25,
      "velocity": 0.71,
      "hand": "right"
    },
    {
      "midi": 56,
      "time": 456.5,
      "duration": 0.25,
      "velocity": 0.71,
      "hand": "left"
    },
    {
      "midi": 71,
      "time": 456.5,
      "duration": 0.25,
      "velocity": 0.71,
      "hand": "right"
    },
    {
      "midi": 73,
      "time": 456.5,
      "duration": 0.25,
      "velocity": 0.71,
      "hand": "right"
    },
    {
      "midi": 53,
      "time": 456.75,
      "duration": 0.25,
      "velocity": 0.71,
      "hand": "left"
    },
    {
      "midi": 72,
      "time": 456.75,
      "duration": 0.25,
      "velocity": 0.71,
      "hand": "right"
    },
    {
      "midi": 60,
      "time": 457,
      "duration": 0.25,
      "velocity": 0.71,
      "hand": "right"
    },
    {
      "midi": 80,
      "time": 457,
      "duration": 0.25,
      "velocity": 0.71,
      "hand": "right"
    },
    {
      "midi": 68,
      "time": 457.25,
      "duration": 0.25,
      "velocity": 0.71,
      "hand": "right"
    },
    {
      "midi": 77,
      "time": 457.25,
      "duration": 0.25,
      "velocity": 0.71,
      "hand": "right"
    },
    {
      "midi": 79,
      "time": 457.25,
      "duration": 0.25,
      "velocity": 0.71,
      "hand": "right"
    },
    {
      "midi": 41,
      "time": 457.5,
      "duration": 0.25,
      "velocity": 0.71,
      "hand": "left"
    },
    {
      "midi": 77,
      "time": 457.5,
      "duration": 0.25,
      "velocity": 0.71,
      "hand": "right"
    },
    {
      "midi": 49,
      "time": 457.75,
      "duration": 0.25,
      "velocity": 0.71,
      "hand": "left"
    },
    {
      "midi": 76,
      "time": 457.75,
      "duration": 0.25,
      "velocity": 0.71,
      "hand": "right"
    },
    {
      "midi": 55,
      "time": 458,
      "duration": 0.25,
      "velocity": 0.71,
      "hand": "left"
    },
    {
      "midi": 52,
      "time": 458.25,
      "duration": 0.25,
      "velocity": 0.71,
      "hand": "left"
    },
    {
      "midi": 69,
      "time": 458.25,
      "duration": 0.25,
      "velocity": 0.71,
      "hand": "right"
    },
    {
      "midi": 70,
      "time": 458.25,
      "duration": 0.25,
      "velocity": 0.71,
      "hand": "right"
    },
    {
      "midi": 58,
      "time": 458.5,
      "duration": 0.25,
      "velocity": 0.71,
      "hand": "left"
    },
    {
      "midi": 71,
      "time": 458.5,
      "duration": 0.25,
      "velocity": 0.71,
      "hand": "right"
    },
    {
      "midi": 72,
      "time": 458.5,
      "duration": 0.25,
      "velocity": 0.71,
      "hand": "right"
    },
    {
      "midi": 67,
      "time": 458.75,
      "duration": 0.25,
      "velocity": 0.71,
      "hand": "right"
    },
    {
      "midi": 73,
      "time": 458.75,
      "duration": 0.25,
      "velocity": 0.71,
      "hand": "right"
    },
    {
      "midi": 75,
      "time": 458.75,
      "duration": 0.25,
      "velocity": 0.71,
      "hand": "right"
    },
    {
      "midi": 41,
      "time": 459,
      "duration": 0.25,
      "velocity": 0.71,
      "hand": "left"
    },
    {
      "midi": 48,
      "time": 459.25,
      "duration": 0.25,
      "velocity": 0.71,
      "hand": "left"
    },
    {
      "midi": 56,
      "time": 459.5,
      "duration": 0.25,
      "velocity": 0.71,
      "hand": "left"
    },
    {
      "midi": 72,
      "time": 459.5,
      "duration": 0.25,
      "velocity": 0.71,
      "hand": "right"
    },
    {
      "midi": 40,
      "time": 459.75,
      "duration": 0.25,
      "velocity": 0.71,
      "hand": "left"
    },
    {
      "midi": 72,
      "time": 459.75,
      "duration": 0.25,
      "velocity": 0.71,
      "hand": "right"
    },
    {
      "midi": 73,
      "time": 459.75,
      "duration": 0.25,
      "velocity": 0.71,
      "hand": "right"
    },
    {
      "midi": 48,
      "time": 460,
      "duration": 0.25,
      "velocity": 0.71,
      "hand": "left"
    },
    {
      "midi": 71,
      "time": 460,
      "duration": 0.25,
      "velocity": 0.71,
      "hand": "right"
    },
    {
      "midi": 56,
      "time": 460.25,
      "duration": 0.25,
      "velocity": 0.71,
      "hand": "left"
    },
    {
      "midi": 72,
      "time": 460.25,
      "duration": 0.25,
      "velocity": 0.71,
      "hand": "right"
    },
    {
      "midi": 73,
      "time": 460.25,
      "duration": 0.25,
      "velocity": 0.71,
      "hand": "right"
    },
    {
      "midi": 39,
      "time": 460.5,
      "duration": 0.25,
      "velocity": 0.71,
      "hand": "left"
    },
    {
      "midi": 74,
      "time": 460.5,
      "duration": 0.25,
      "velocity": 0.71,
      "hand": "right"
    },
    {
      "midi": 48,
      "time": 460.75,
      "duration": 0.25,
      "velocity": 0.71,
      "hand": "left"
    },
    {
      "midi": 75,
      "time": 460.75,
      "duration": 0.25,
      "velocity": 0.71,
      "hand": "right"
    },
    {
      "midi": 84,
      "time": 460.75,
      "duration": 0.25,
      "velocity": 0.71,
      "hand": "right"
    },
    {
      "midi": 56,
      "time": 461,
      "duration": 0.25,
      "velocity": 0.71,
      "hand": "left"
    },
    {
      "midi": 79,
      "time": 461,
      "duration": 0.25,
      "velocity": 0.71,
      "hand": "right"
    },
    {
      "midi": 82,
      "time": 461,
      "duration": 0.25,
      "velocity": 0.71,
      "hand": "right"
    },
    {
      "midi": 51,
      "time": 461.25,
      "duration": 0.25,
      "velocity": 0.71,
      "hand": "left"
    },
    {
      "midi": 80,
      "time": 461.25,
      "duration": 0.25,
      "velocity": 0.71,
      "hand": "right"
    },
    {
      "midi": 60,
      "time": 461.5,
      "duration": 0.25,
      "velocity": 0.71,
      "hand": "right"
    },
    {
      "midi": 72,
      "time": 461.5,
      "duration": 0.25,
      "velocity": 0.71,
      "hand": "right"
    },
    {
      "midi": 73,
      "time": 461.5,
      "duration": 0.25,
      "velocity": 0.71,
      "hand": "right"
    },
    {
      "midi": 68,
      "time": 461.75,
      "duration": 0.25,
      "velocity": 0.71,
      "hand": "right"
    },
    {
      "midi": 74,
      "time": 461.75,
      "duration": 0.25,
      "velocity": 0.71,
      "hand": "right"
    },
    {
      "midi": 75,
      "time": 461.75,
      "duration": 0.25,
      "velocity": 0.71,
      "hand": "right"
    },
    {
      "midi": 39,
      "time": 462,
      "duration": 0.25,
      "velocity": 0.71,
      "hand": "left"
    },
    {
      "midi": 76,
      "time": 462,
      "duration": 0.25,
      "velocity": 0.71,
      "hand": "right"
    },
    {
      "midi": 49,
      "time": 462.25,
      "duration": 0.25,
      "velocity": 0.71,
      "hand": "left"
    },
    {
      "midi": 77,
      "time": 462.25,
      "duration": 0.25,
      "velocity": 0.71,
      "hand": "right"
    },
    {
      "midi": 79,
      "time": 462.25,
      "duration": 0.25,
      "velocity": 0.71,
      "hand": "right"
    },
    {
      "midi": 55,
      "time": 462.5,
      "duration": 0.25,
      "velocity": 0.71,
      "hand": "left"
    },
    {
      "midi": 72,
      "time": 462.5,
      "duration": 0.25,
      "velocity": 0.71,
      "hand": "right"
    },
    {
      "midi": 75,
      "time": 462.5,
      "duration": 0.25,
      "velocity": 0.71,
      "hand": "right"
    },
    {
      "midi": 51,
      "time": 462.75,
      "duration": 0.25,
      "velocity": 0.71,
      "hand": "left"
    },
    {
      "midi": 75,
      "time": 462.75,
      "duration": 0.25,
      "velocity": 0.71,
      "hand": "right"
    },
    {
      "midi": 61,
      "time": 463,
      "duration": 0.25,
      "velocity": 0.71,
      "hand": "right"
    },
    {
      "midi": 65,
      "time": 463,
      "duration": 0.25,
      "velocity": 0.71,
      "hand": "right"
    },
    {
      "midi": 73,
      "time": 463,
      "duration": 0.25,
      "velocity": 0.71,
      "hand": "right"
    },
    {
      "midi": 63,
      "time": 463.25,
      "duration": 0.25,
      "velocity": 0.71,
      "hand": "right"
    },
    {
      "midi": 67,
      "time": 463.25,
      "duration": 0.25,
      "velocity": 0.71,
      "hand": "right"
    },
    {
      "midi": 70,
      "time": 463.25,
      "duration": 0.25,
      "velocity": 0.71,
      "hand": "right"
    },
    {
      "midi": 44,
      "time": 463.5,
      "duration": 0.25,
      "velocity": 0.71,
      "hand": "left"
    },
    {
      "midi": 68,
      "time": 463.5,
      "duration": 0.5,
      "velocity": 0.71,
      "hand": "right"
    },
    {
      "midi": 51,
      "time": 463.75,
      "duration": 0.25,
      "velocity": 0.71,
      "hand": "left"
    },
    {
      "midi": 60,
      "time": 464,
      "duration": 0.25,
      "velocity": 0.71,
      "hand": "right"
    },
    {
      "midi": 51,
      "time": 464.25,
      "duration": 0.25,
      "velocity": 0.71,
      "hand": "left"
    },
    {
      "midi": 60,
      "time": 464.5,
      "duration": 0.25,
      "velocity": 0.71,
      "hand": "right"
    },
    {
      "midi": 68,
      "time": 464.75,
      "duration": 0.25,
      "velocity": 0.71,
      "hand": "right"
    },
    {
      "midi": 44,
      "time": 465,
      "duration": 0.25,
      "velocity": 0.71,
      "hand": "left"
    },
    {
      "midi": 52,
      "time": 465.25,
      "duration": 0.25,
      "velocity": 0.71,
      "hand": "left"
    },
    {
      "midi": 60,
      "time": 465.5,
      "duration": 0.25,
      "velocity": 0.71,
      "hand": "right"
    },
    {
      "midi": 52,
      "time": 465.75,
      "duration": 0.25,
      "velocity": 0.71,
      "hand": "left"
    },
    {
      "midi": 60,
      "time": 466,
      "duration": 0.25,
      "velocity": 0.71,
      "hand": "right"
    },
    {
      "midi": 68,
      "time": 466.25,
      "duration": 0.25,
      "velocity": 0.71,
      "hand": "right"
    },
    {
      "midi": 32,
      "time": 466.5,
      "duration": 0.25,
      "velocity": 0.71,
      "hand": "left"
    },
    {
      "midi": 51,
      "time": 466.75,
      "duration": 0.25,
      "velocity": 0.71,
      "hand": "left"
    },
    {
      "midi": 60,
      "time": 467,
      "duration": 0.25,
      "velocity": 0.71,
      "hand": "right"
    },
    {
      "midi": 75,
      "time": 467,
      "duration": 0.5,
      "velocity": 0.71,
      "hand": "right"
    },
    {
      "midi": 51,
      "time": 467.25,
      "duration": 0.25,
      "velocity": 0.71,
      "hand": "left"
    },
    {
      "midi": 60,
      "time": 467.5,
      "duration": 0.25,
      "velocity": 0.71,
      "hand": "right"
    },
    {
      "midi": 80,
      "time": 467.5,
      "duration": 0.75,
      "velocity": 0.71,
      "hand": "right"
    },
    {
      "midi": 68,
      "time": 467.75,
      "duration": 0.25,
      "velocity": 0.71,
      "hand": "right"
    },
    {
      "midi": 44,
      "time": 468,
      "duration": 0.25,
      "velocity": 0.71,
      "hand": "left"
    },
    {
      "midi": 52,
      "time": 468.25,
      "duration": 0.25,
      "velocity": 0.71,
      "hand": "left"
    },
    {
      "midi": 71,
      "time": 468.25,
      "duration": 0.25,
      "velocity": 0.71,
      "hand": "right"
    },
    {
      "midi": 79,
      "time": 468.25,
      "duration": 0.25,
      "velocity": 0.71,
      "hand": "right"
    },
    {
      "midi": 61,
      "time": 468.5,
      "duration": 0.25,
      "velocity": 0.71,
      "hand": "right"
    },
    {
      "midi": 72,
      "time": 468.5,
      "duration": 0.25,
      "velocity": 0.71,
      "hand": "right"
    },
    {
      "midi": 58,
      "time": 468.75,
      "duration": 0.25,
      "velocity": 0.71,
      "hand": "left"
    },
    {
      "midi": 73,
      "time": 468.75,
      "duration": 0.25,
      "velocity": 0.71,
      "hand": "right"
    },
    {
      "midi": 74,
      "time": 468.75,
      "duration": 0.25,
      "velocity": 0.71,
      "hand": "right"
    },
    {
      "midi": 67,
      "time": 469,
      "duration": 0.25,
      "velocity": 0.71,
      "hand": "right"
    },
    {
      "midi": 75,
      "time": 469,
      "duration": 0.25,
      "velocity": 0.71,
      "hand": "right"
    },
    {
      "midi": 73,
      "time": 469.25,
      "duration": 0.25,
      "velocity": 0.71,
      "hand": "right"
    },
    {
      "midi": 76,
      "time": 469.25,
      "duration": 0.25,
      "velocity": 0.71,
      "hand": "right"
    },
    {
      "midi": 78,
      "time": 469.25,
      "duration": 0.25,
      "velocity": 0.71,
      "hand": "right"
    },
    {
      "midi": 44,
      "time": 469.5,
      "duration": 0.25,
      "velocity": 0.71,
      "hand": "left"
    },
    {
      "midi": 51,
      "time": 469.75,
      "duration": 0.25,
      "velocity": 0.71,
      "hand": "left"
    },
    {
      "midi": 75,
      "time": 469.75,
      "duration": 0.25,
      "velocity": 0.71,
      "hand": "right"
    },
    {
      "midi": 60,
      "time": 470,
      "duration": 0.25,
      "velocity": 0.71,
      "hand": "right"
    },
    {
      "midi": 77,
      "time": 470,
      "duration": 0.25,
      "velocity": 0.71,
      "hand": "right"
    },
    {
      "midi": 56,
      "time": 470.25,
      "duration": 0.25,
      "velocity": 0.71,
      "hand": "left"
    },
    {
      "midi": 74,
      "time": 470.25,
      "duration": 0.25,
      "velocity": 0.71,
      "hand": "right"
    },
    {
      "midi": 75,
      "time": 470.25,
      "duration": 0.25,
      "velocity": 0.71,
      "hand": "right"
    },
    {
      "midi": 63,
      "time": 470.5,
      "duration": 0.25,
      "velocity": 0.71,
      "hand": "right"
    },
    {
      "midi": 84,
      "time": 470.5,
      "duration": 0.25,
      "velocity": 0.71,
      "hand": "right"
    },
    {
      "midi": 72,
      "time": 470.75,
      "duration": 0.25,
      "velocity": 0.71,
      "hand": "right"
    },
    {
      "midi": 81,
      "time": 470.75,
      "duration": 0.25,
      "velocity": 0.71,
      "hand": "right"
    },
    {
      "midi": 82,
      "time": 470.75,
      "duration": 0.25,
      "velocity": 0.71,
      "hand": "right"
    },
    {
      "midi": 44,
      "time": 471,
      "duration": 0.25,
      "velocity": 0.71,
      "hand": "left"
    },
    {
      "midi": 80,
      "time": 471,
      "duration": 0.25,
      "velocity": 0.71,
      "hand": "right"
    },
    {
      "midi": 52,
      "time": 471.25,
      "duration": 0.25,
      "velocity": 0.71,
      "hand": "left"
    },
    {
      "midi": 71,
      "time": 471.25,
      "duration": 0.25,
      "velocity": 0.71,
      "hand": "right"
    },
    {
      "midi": 79,
      "time": 471.25,
      "duration": 0.25,
      "velocity": 0.71,
      "hand": "right"
    },
    {
      "midi": 61,
      "time": 471.5,
      "duration": 0.25,
      "velocity": 0.71,
      "hand": "right"
    },
    {
      "midi": 72,
      "time": 471.5,
      "duration": 0.25,
      "velocity": 0.71,
      "hand": "right"
    },
    {
      "midi": 58,
      "time": 471.75,
      "duration": 0.25,
      "velocity": 0.71,
      "hand": "left"
    },
    {
      "midi": 73,
      "time": 471.75,
      "duration": 0.25,
      "velocity": 0.71,
      "hand": "right"
    },
    {
      "midi": 74,
      "time": 471.75,
      "duration": 0.25,
      "velocity": 0.71,
      "hand": "right"
    },
    {
      "midi": 67,
      "time": 472,
      "duration": 0.25,
      "velocity": 0.71,
      "hand": "right"
    },
    {
      "midi": 75,
      "time": 472,
      "duration": 0.25,
      "velocity": 0.71,
      "hand": "right"
    },
    {
      "midi": 73,
      "time": 472.25,
      "duration": 0.25,
      "velocity": 0.71,
      "hand": "right"
    },
    {
      "midi": 76,
      "time": 472.25,
      "duration": 0.25,
      "velocity": 0.71,
      "hand": "right"
    },
    {
      "midi": 78,
      "time": 472.25,
      "duration": 0.25,
      "velocity": 0.71,
      "hand": "right"
    },
    {
      "midi": 44,
      "time": 472.5,
      "duration": 0.25,
      "velocity": 0.71,
      "hand": "left"
    },
    {
      "midi": 51,
      "time": 472.75,
      "duration": 0.25,
      "velocity": 0.71,
      "hand": "left"
    },
    {
      "midi": 60,
      "time": 473,
      "duration": 0.25,
      "velocity": 0.71,
      "hand": "right"
    },
    {
      "midi": 75,
      "time": 473,
      "duration": 0.25,
      "velocity": 0.71,
      "hand": "right"
    },
    {
      "midi": 56,
      "time": 473.25,
      "duration": 0.25,
      "velocity": 0.71,
      "hand": "left"
    },
    {
      "midi": 75,
      "time": 473.25,
      "duration": 0.25,
      "velocity": 0.71,
      "hand": "right"
    },
    {
      "midi": 77,
      "time": 473.25,
      "duration": 0.25,
      "velocity": 0.71,
      "hand": "right"
    },
    {
      "midi": 63,
      "time": 473.5,
      "duration": 0.25,
      "velocity": 0.71,
      "hand": "right"
    },
    {
      "midi": 74,
      "time": 473.5,
      "duration": 0.25,
      "velocity": 0.71,
      "hand": "right"
    },
    {
      "midi": 72,
      "time": 473.75,
      "duration": 0.25,
      "velocity": 0.71,
      "hand": "right"
    },
    {
      "midi": 75,
      "time": 473.75,
      "duration": 0.25,
      "velocity": 0.71,
      "hand": "right"
    },
    {
      "midi": 77,
      "time": 473.75,
      "duration": 0.25,
      "velocity": 0.71,
      "hand": "right"
    },
    {
      "midi": 39,
      "time": 474,
      "duration": 0.25,
      "velocity": 0.71,
      "hand": "left"
    },
    {
      "midi": 78,
      "time": 474,
      "duration": 0.25,
      "velocity": 0.71,
      "hand": "right"
    },
    {
      "midi": 46,
      "time": 474.25,
      "duration": 0.25,
      "velocity": 0.71,
      "hand": "left"
    },
    {
      "midi": 89,
      "time": 474.25,
      "duration": 0.25,
      "velocity": 0.71,
      "hand": "right"
    },
    {
      "midi": 90,
      "time": 474.25,
      "duration": 0.25,
      "velocity": 0.71,
      "hand": "right"
    },
    {
      "midi": 54,
      "time": 474.5,
      "duration": 0.25,
      "velocity": 0.71,
      "hand": "left"
    },
    {
      "midi": 88,
      "time": 474.5,
      "duration": 0.25,
      "velocity": 0.71,
      "hand": "right"
    },
    {
      "midi": 51,
      "time": 474.75,
      "duration": 0.25,
      "velocity": 0.71,
      "hand": "left"
    },
    {
      "midi": 85,
      "time": 474.75,
      "duration": 0.25,
      "velocity": 0.71,
      "hand": "right"
    },
    {
      "midi": 87,
      "time": 474.75,
      "duration": 0.25,
      "velocity": 0.71,
      "hand": "right"
    },
    {
      "midi": 58,
      "time": 475,
      "duration": 0.25,
      "velocity": 0.71,
      "hand": "left"
    },
    {
      "midi": 84,
      "time": 475,
      "duration": 0.25,
      "velocity": 0.71,
      "hand": "right"
    },
    {
      "midi": 66,
      "time": 475.25,
      "duration": 0.25,
      "velocity": 0.71,
      "hand": "right"
    },
    {
      "midi": 81,
      "time": 475.25,
      "duration": 0.25,
      "velocity": 0.71,
      "hand": "right"
    },
    {
      "midi": 82,
      "time": 475.25,
      "duration": 0.25,
      "velocity": 0.71,
      "hand": "right"
    },
    {
      "midi": 41,
      "time": 475.5,
      "duration": 0.25,
      "velocity": 0.71,
      "hand": "left"
    },
    {
      "midi": 78,
      "time": 475.5,
      "duration": 0.25,
      "velocity": 0.71,
      "hand": "right"
    },
    {
      "midi": 48,
      "time": 475.75,
      "duration": 0.25,
      "velocity": 0.71,
      "hand": "left"
    },
    {
      "midi": 76,
      "time": 475.75,
      "duration": 0.25,
      "velocity": 0.71,
      "hand": "right"
    },
    {
      "midi": 77,
      "time": 475.75,
      "duration": 0.25,
      "velocity": 0.71,
      "hand": "right"
    },
    {
      "midi": 57,
      "time": 476,
      "duration": 0.25,
      "velocity": 0.71,
      "hand": "left"
    },
    {
      "midi": 75,
      "time": 476,
      "duration": 0.25,
      "velocity": 0.71,
      "hand": "right"
    },
    {
      "midi": 53,
      "time": 476.25,
      "duration": 0.25,
      "velocity": 0.71,
      "hand": "left"
    },
    {
      "midi": 71,
      "time": 476.25,
      "duration": 0.25,
      "velocity": 0.71,
      "hand": "right"
    },
    {
      "midi": 73,
      "time": 476.25,
      "duration": 0.25,
      "velocity": 0.71,
      "hand": "right"
    },
    {
      "midi": 63,
      "time": 476.5,
      "duration": 0.25,
      "velocity": 0.71,
      "hand": "right"
    },
    {
      "midi": 72,
      "time": 476.5,
      "duration": 0.25,
      "velocity": 0.71,
      "hand": "right"
    },
    {
      "midi": 69,
      "time": 476.75,
      "duration": 0.25,
      "velocity": 0.71,
      "hand": "right"
    },
    {
      "midi": 73,
      "time": 476.75,
      "duration": 0.25,
      "velocity": 0.71,
      "hand": "right"
    },
    {
      "midi": 75,
      "time": 476.75,
      "duration": 0.25,
      "velocity": 0.71,
      "hand": "right"
    },
    {
      "midi": 34,
      "time": 477,
      "duration": 0.25,
      "velocity": 0.71,
      "hand": "left"
    },
    {
      "midi": 72,
      "time": 477,
      "duration": 0.25,
      "velocity": 0.71,
      "hand": "right"
    },
    {
      "midi": 41,
      "time": 477.25,
      "duration": 0.25,
      "velocity": 0.71,
      "hand": "left"
    },
    {
      "midi": 70,
      "time": 477.25,
      "duration": 0.25,
      "velocity": 0.71,
      "hand": "right"
    },
    {
      "midi": 49,
      "time": 477.5,
      "duration": 0.25,
      "velocity": 0.71,
      "hand": "left"
    },
    {
      "midi": 46,
      "time": 477.75,
      "duration": 0.25,
      "velocity": 0.71,
      "hand": "left"
    },
    {
      "midi": 53,
      "time": 478,
      "duration": 0.25,
      "velocity": 0.71,
      "hand": "left"
    },
    {
      "midi": 61,
      "time": 478.25,
      "duration": 0.25,
      "velocity": 0.71,
      "hand": "right"
    },
    {
      "midi": 42,
      "time": 478.5,
      "duration": 0.25,
      "velocity": 0.71,
      "hand": "left"
    },
    {
      "midi": 49,
      "time": 478.75,
      "duration": 0.25,
      "velocity": 0.71,
      "hand": "left"
    },
    {
      "midi": 58,
      "time": 479,
      "duration": 0.25,
      "velocity": 0.71,
      "hand": "left"
    },
    {
      "midi": 73,
      "time": 479,
      "duration": 0.25,
      "velocity": 0.71,
      "hand": "right"
    },
    {
      "midi": 54,
      "time": 479.25,
      "duration": 0.25,
      "velocity": 0.71,
      "hand": "left"
    },
    {
      "midi": 73,
      "time": 479.25,
      "duration": 0.25,
      "velocity": 0.71,
      "hand": "right"
    },
    {
      "midi": 75,
      "time": 479.25,
      "duration": 0.25,
      "velocity": 0.71,
      "hand": "right"
    },
    {
      "midi": 61,
      "time": 479.5,
      "duration": 0.25,
      "velocity": 0.71,
      "hand": "right"
    },
    {
      "midi": 72,
      "time": 479.5,
      "duration": 0.25,
      "velocity": 0.71,
      "hand": "right"
    },
    {
      "midi": 70,
      "time": 479.75,
      "duration": 0.25,
      "velocity": 0.71,
      "hand": "right"
    },
    {
      "midi": 73,
      "time": 479.75,
      "duration": 0.25,
      "velocity": 0.71,
      "hand": "right"
    },
    {
      "midi": 75,
      "time": 479.75,
      "duration": 0.25,
      "velocity": 0.71,
      "hand": "right"
    },
    {
      "midi": 37,
      "time": 480,
      "duration": 0.25,
      "velocity": 0.71,
      "hand": "left"
    },
    {
      "midi": 77,
      "time": 480,
      "duration": 0.25,
      "velocity": 0.71,
      "hand": "right"
    },
    {
      "midi": 44,
      "time": 480.25,
      "duration": 0.25,
      "velocity": 0.71,
      "hand": "left"
    },
    {
      "midi": 84,
      "time": 480.25,
      "duration": 0.25,
      "velocity": 0.71,
      "hand": "right"
    },
    {
      "midi": 89,
      "time": 480.25,
      "duration": 0.25,
      "velocity": 0.71,
      "hand": "right"
    },
    {
      "midi": 53,
      "time": 480.5,
      "duration": 0.25,
      "velocity": 0.71,
      "hand": "left"
    },
    {
      "midi": 87,
      "time": 480.5,
      "duration": 0.25,
      "velocity": 0.71,
      "hand": "right"
    },
    {
      "midi": 49,
      "time": 480.75,
      "duration": 0.25,
      "velocity": 0.71,
      "hand": "left"
    },
    {
      "midi": 80,
      "time": 480.75,
      "duration": 0.25,
      "velocity": 0.71,
      "hand": "right"
    },
    {
      "midi": 85,
      "time": 480.75,
      "duration": 0.25,
      "velocity": 0.71,
      "hand": "right"
    },
    {
      "midi": 56,
      "time": 481,
      "duration": 0.25,
      "velocity": 0.71,
      "hand": "left"
    },
    {
      "midi": 77,
      "time": 481,
      "duration": 0.25,
      "velocity": 0.71,
      "hand": "right"
    },
    {
      "midi": 65,
      "time": 481.25,
      "duration": 0.25,
      "velocity": 0.71,
      "hand": "right"
    },
    {
      "midi": 73,
      "time": 481.25,
      "duration": 0.25,
      "velocity": 0.71,
      "hand": "right"
    },
    {
      "midi": 75,
      "time": 481.25,
      "duration": 0.25,
      "velocity": 0.71,
      "hand": "right"
    },
    {
      "midi": 39,
      "time": 481.5,
      "duration": 0.25,
      "velocity": 0.71,
      "hand": "left"
    },
    {
      "midi": 71,
      "time": 481.5,
      "duration": 0.5,
      "velocity": 0.71,
      "hand": "right"
    },
    {
      "midi": 47,
      "time": 481.75,
      "duration": 0.25,
      "velocity": 0.71,
      "hand": "left"
    },
    {
      "midi": 54,
      "time": 482,
      "duration": 0.25,
      "velocity": 0.71,
      "hand": "left"
    },
    {
      "midi": 70,
      "time": 482,
      "duration": 0.25,
      "velocity": 0.71,
      "hand": "right"
    },
    {
      "midi": 71,
      "time": 482,
      "duration": 0.25,
      "velocity": 0.71,
      "hand": "right"
    },
    {
      "midi": 40,
      "time": 482.25,
      "duration": 0.25,
      "velocity": 0.71,
      "hand": "left"
    },
    {
      "midi": 73,
      "time": 482.25,
      "duration": 0.25,
      "velocity": 0.71,
      "hand": "right"
    },
    {
      "midi": 75,
      "time": 482.25,
      "duration": 0.25,
      "velocity": 0.71,
      "hand": "right"
    },
    {
      "midi": 49,
      "time": 482.5,
      "duration": 0.25,
      "velocity": 0.71,
      "hand": "left"
    },
    {
      "midi": 69,
      "time": 482.5,
      "duration": 0.25,
      "velocity": 0.71,
      "hand": "right"
    },
    {
      "midi": 55,
      "time": 482.75,
      "duration": 0.25,
      "velocity": 0.71,
      "hand": "left"
    },
    {
      "midi": 70,
      "time": 482.75,
      "duration": 0.25,
      "velocity": 0.71,
      "hand": "right"
    },
    {
      "midi": 72,
      "time": 482.75,
      "duration": 0.25,
      "velocity": 0.71,
      "hand": "right"
    },
    {
      "midi": 41,
      "time": 483,
      "duration": 0.25,
      "velocity": 0.71,
      "hand": "left"
    },
    {
      "midi": 69,
      "time": 483,
      "duration": 0.25,
      "velocity": 0.71,
      "hand": "right"
    },
    {
      "midi": 48,
      "time": 483.25,
      "duration": 0.25,
      "velocity": 0.71,
      "hand": "left"
    },
    {
      "midi": 72,
      "time": 483.25,
      "duration": 0.25,
      "velocity": 0.71,
      "hand": "right"
    },
    {
      "midi": 76,
      "time": 483.25,
      "duration": 0.25,
      "velocity": 0.71,
      "hand": "right"
    },
    {
      "midi": 57,
      "time": 483.5,
      "duration": 0.25,
      "velocity": 0.71,
      "hand": "left"
    },
    {
      "midi": 78,
      "time": 483.5,
      "duration": 0.25,
      "velocity": 0.71,
      "hand": "right"
    },
    {
      "midi": 53,
      "time": 483.75,
      "duration": 0.25,
      "velocity": 0.71,
      "hand": "left"
    },
    {
      "midi": 77,
      "time": 483.75,
      "duration": 0.25,
      "velocity": 0.71,
      "hand": "right"
    },
    {
      "midi": 81,
      "time": 483.75,
      "duration": 0.25,
      "velocity": 0.71,
      "hand": "right"
    },
    {
      "midi": 60,
      "time": 484,
      "duration": 0.25,
      "velocity": 0.71,
      "hand": "right"
    },
    {
      "midi": 84,
      "time": 484,
      "duration": 0.25,
      "velocity": 0.71,
      "hand": "right"
    },
    {
      "midi": 69,
      "time": 484.25,
      "duration": 0.25,
      "velocity": 0.71,
      "hand": "right"
    },
    {
      "midi": 77,
      "time": 484.25,
      "duration": 0.25,
      "velocity": 0.71,
      "hand": "right"
    },
    {
      "midi": 89,
      "time": 484.25,
      "duration": 0.25,
      "velocity": 0.71,
      "hand": "right"
    },
    {
      "midi": 41,
      "time": 484.5,
      "duration": 0.25,
      "velocity": 0.71,
      "hand": "left"
    },
    {
      "midi": 88,
      "time": 484.5,
      "duration": 0.25,
      "velocity": 0.71,
      "hand": "right"
    },
    {
      "midi": 49,
      "time": 484.75,
      "duration": 0.25,
      "velocity": 0.71,
      "hand": "left"
    },
    {
      "midi": 84,
      "time": 484.75,
      "duration": 0.25,
      "velocity": 0.71,
      "hand": "right"
    },
    {
      "midi": 87,
      "time": 484.75,
      "duration": 0.25,
      "velocity": 0.71,
      "hand": "right"
    },
    {
      "midi": 58,
      "time": 485,
      "duration": 0.25,
      "velocity": 0.71,
      "hand": "left"
    },
    {
      "midi": 85,
      "time": 485,
      "duration": 0.25,
      "velocity": 0.71,
      "hand": "right"
    },
    {
      "midi": 52,
      "time": 485.25,
      "duration": 0.25,
      "velocity": 0.71,
      "hand": "left"
    },
    {
      "midi": 79,
      "time": 485.25,
      "duration": 0.25,
      "velocity": 0.71,
      "hand": "right"
    },
    {
      "midi": 82,
      "time": 485.25,
      "duration": 0.25,
      "velocity": 0.71,
      "hand": "right"
    },
    {
      "midi": 61,
      "time": 485.5,
      "duration": 0.25,
      "velocity": 0.71,
      "hand": "right"
    },
    {
      "midi": 76,
      "time": 485.5,
      "duration": 0.25,
      "velocity": 0.71,
      "hand": "right"
    },
    {
      "midi": 67,
      "time": 485.75,
      "duration": 0.25,
      "velocity": 0.71,
      "hand": "right"
    },
    {
      "midi": 70,
      "time": 485.75,
      "duration": 0.25,
      "velocity": 0.71,
      "hand": "right"
    },
    {
      "midi": 73,
      "time": 485.75,
      "duration": 0.25,
      "velocity": 0.71,
      "hand": "right"
    },
    {
      "midi": 41,
      "time": 486,
      "duration": 0.25,
      "velocity": 0.71,
      "hand": "left"
    },
    {
      "midi": 69,
      "time": 486,
      "duration": 0.25,
      "velocity": 0.71,
      "hand": "right"
    },
    {
      "midi": 48,
      "time": 486.25,
      "duration": 0.25,
      "velocity": 0.71,
      "hand": "left"
    },
    {
      "midi": 72,
      "time": 486.25,
      "duration": 0.25,
      "velocity": 0.71,
      "hand": "right"
    },
    {
      "midi": 76,
      "time": 486.25,
      "duration": 0.25,
      "velocity": 0.71,
      "hand": "right"
    },
    {
      "midi": 57,
      "time": 486.5,
      "duration": 0.25,
      "velocity": 0.71,
      "hand": "left"
    },
    {
      "midi": 78,
      "time": 486.5,
      "duration": 0.25,
      "velocity": 0.71,
      "hand": "right"
    },
    {
      "midi": 53,
      "time": 486.75,
      "duration": 0.25,
      "velocity": 0.71,
      "hand": "left"
    },
    {
      "midi": 77,
      "time": 486.75,
      "duration": 0.25,
      "velocity": 0.71,
      "hand": "right"
    },
    {
      "midi": 81,
      "time": 486.75,
      "duration": 0.25,
      "velocity": 0.71,
      "hand": "right"
    },
    {
      "midi": 60,
      "time": 487,
      "duration": 0.25,
      "velocity": 0.71,
      "hand": "right"
    },
    {
      "midi": 84,
      "time": 487,
      "duration": 0.25,
      "velocity": 0.71,
      "hand": "right"
    },
    {
      "midi": 69,
      "time": 487.25,
      "duration": 0.25,
      "velocity": 0.71,
      "hand": "right"
    },
    {
      "midi": 89,
      "time": 487.25,
      "duration": 0.25,
      "velocity": 0.71,
      "hand": "right"
    },
    {
      "midi": 101,
      "time": 487.25,
      "duration": 0.25,
      "velocity": 0.71,
      "hand": "right"
    },
    {
      "midi": 53,
      "time": 487.5,
      "duration": 0.25,
      "velocity": 0.71,
      "hand": "left"
    },
    {
      "midi": 100,
      "time": 487.5,
      "duration": 0.25,
      "velocity": 0.71,
      "hand": "right"
    },
    {
      "midi": 61,
      "time": 487.75,
      "duration": 0.25,
      "velocity": 0.71,
      "hand": "right"
    },
    {
      "midi": 96,
      "time": 487.75,
      "duration": 0.25,
      "velocity": 0.71,
      "hand": "right"
    },
    {
      "midi": 99,
      "time": 487.75,
      "duration": 0.25,
      "velocity": 0.71,
      "hand": "right"
    },
    {
      "midi": 70,
      "time": 488,
      "duration": 0.25,
      "velocity": 0.71,
      "hand": "right"
    },
    {
      "midi": 97,
      "time": 488,
      "duration": 0.25,
      "velocity": 0.71,
      "hand": "right"
    },
    {
      "midi": 64,
      "time": 488.25,
      "duration": 0.25,
      "velocity": 0.71,
      "hand": "right"
    },
    {
      "midi": 91,
      "time": 488.25,
      "duration": 0.25,
      "velocity": 0.71,
      "hand": "right"
    },
    {
      "midi": 94,
      "time": 488.25,
      "duration": 0.25,
      "velocity": 0.71,
      "hand": "right"
    },
    {
      "midi": 73,
      "time": 488.5,
      "duration": 0.25,
      "velocity": 0.71,
      "hand": "right"
    },
    {
      "midi": 88,
      "time": 488.5,
      "duration": 0.25,
      "velocity": 0.71,
      "hand": "right"
    },
    {
      "midi": 79,
      "time": 488.75,
      "duration": 0.25,
      "velocity": 0.71,
      "hand": "right"
    },
    {
      "midi": 82,
      "time": 488.75,
      "duration": 0.25,
      "velocity": 0.71,
      "hand": "right"
    },
    {
      "midi": 85,
      "time": 488.75,
      "duration": 0.25,
      "velocity": 0.71,
      "hand": "right"
    },
    {
      "midi": 65,
      "time": 489,
      "duration": 0.5,
      "velocity": 0.71,
      "hand": "right"
    },
    {
      "midi": 72,
      "time": 489,
      "duration": 0.5,
      "velocity": 0.71,
      "hand": "right"
    },
    {
      "midi": 81,
      "time": 489,
      "duration": 0.25,
      "velocity": 0.71,
      "hand": "right"
    },
    {
      "midi": 84,
      "time": 489.25,
      "duration": 0.25,
      "velocity": 0.71,
      "hand": "right"
    },
    {
      "midi": 87,
      "time": 489.25,
      "duration": 0.25,
      "velocity": 0.71,
      "hand": "right"
    },
    {
      "midi": 89,
      "time": 489.5,
      "duration": 0.25,
      "velocity": 0.71,
      "hand": "right"
    },
    {
      "midi": 90,
      "time": 489.75,
      "duration": 0.25,
      "velocity": 0.71,
      "hand": "right"
    },
    {
      "midi": 92,
      "time": 489.75,
      "duration": 0.25,
      "velocity": 0.71,
      "hand": "right"
    },
    {
      "midi": 87,
      "time": 490,
      "duration": 0.25,
      "velocity": 0.71,
      "hand": "right"
    },
    {
      "midi": 81,
      "time": 490.25,
      "duration": 0.25,
      "velocity": 0.71,
      "hand": "right"
    },
    {
      "midi": 84,
      "time": 490.25,
      "duration": 0.25,
      "velocity": 0.71,
      "hand": "right"
    },
    {
      "midi": 78,
      "time": 490.5,
      "duration": 0.25,
      "velocity": 0.71,
      "hand": "right"
    },
    {
      "midi": 72,
      "time": 490.75,
      "duration": 0.25,
      "velocity": 0.71,
      "hand": "right"
    },
    {
      "midi": 75,
      "time": 490.75,
      "duration": 0.25,
      "velocity": 0.71,
      "hand": "right"
    },
    {
      "midi": 60,
      "time": 491,
      "duration": 0.25,
      "velocity": 0.71,
      "hand": "right"
    },
    {
      "midi": 69,
      "time": 491,
      "duration": 0.25,
      "velocity": 0.71,
      "hand": "right"
    },
    {
      "midi": 61,
      "time": 491.25,
      "duration": 0.25,
      "velocity": 0.71,
      "hand": "right"
    },
    {
      "midi": 62,
      "time": 491.25,
      "duration": 0.25,
      "velocity": 0.71,
      "hand": "right"
    },
    {
      "midi": 70,
      "time": 491.25,
      "duration": 0.25,
      "velocity": 0.71,
      "hand": "right"
    },
    {
      "midi": 71,
      "time": 491.25,
      "duration": 0.25,
      "velocity": 0.71,
      "hand": "right"
    },
    {
      "midi": 63,
      "time": 491.5,
      "duration": 0.25,
      "velocity": 0.71,
      "hand": "right"
    },
    {
      "midi": 72,
      "time": 491.5,
      "duration": 0.25,
      "velocity": 0.71,
      "hand": "right"
    },
    {
      "midi": 61,
      "time": 491.75,
      "duration": 0.25,
      "velocity": 0.71,
      "hand": "right"
    },
    {
      "midi": 64,
      "time": 491.75,
      "duration": 0.25,
      "velocity": 0.71,
      "hand": "right"
    },
    {
      "midi": 70,
      "time": 491.75,
      "duration": 0.25,
      "velocity": 0.71,
      "hand": "right"
    },
    {
      "midi": 73,
      "time": 491.75,
      "duration": 0.25,
      "velocity": 0.71,
      "hand": "right"
    },
    {
      "midi": 60,
      "time": 492,
      "duration": 0.5,
      "velocity": 0.71,
      "hand": "right"
    },
    {
      "midi": 65,
      "time": 492,
      "duration": 0.5,
      "velocity": 0.71,
      "hand": "right"
    },
    {
      "midi": 69,
      "time": 492,
      "duration": 0.25,
      "velocity": 0.71,
      "hand": "right"
    },
    {
      "midi": 72,
      "time": 492.25,
      "duration": 0.25,
      "velocity": 0.71,
      "hand": "right"
    },
    {
      "midi": 75,
      "time": 492.25,
      "duration": 0.25,
      "velocity": 0.71,
      "hand": "right"
    },
    {
      "midi": 53,
      "time": 492.5,
      "duration": 0.5,
      "velocity": 0.71,
      "hand": "left"
    },
    {
      "midi": 63,
      "time": 492.5,
      "duration": 0.5,
      "velocity": 0.71,
      "hand": "right"
    },
    {
      "midi": 77,
      "time": 492.5,
      "duration": 0.25,
      "velocity": 0.71,
      "hand": "right"
    },
    {
      "midi": 78,
      "time": 492.75,
      "duration": 0.25,
      "velocity": 0.71,
      "hand": "right"
    },
    {
      "midi": 81,
      "time": 492.75,
      "duration": 0.25,
      "velocity": 0.71,
      "hand": "right"
    },
    {
      "midi": 75,
      "time": 493,
      "duration": 0.25,
      "velocity": 0.71,
      "hand": "right"
    },
    {
      "midi": 69,
      "time": 493.25,
      "duration": 0.25,
      "velocity": 0.71,
      "hand": "right"
    },
    {
      "midi": 72,
      "time": 493.25,
      "duration": 0.25,
      "velocity": 0.71,
      "hand": "right"
    },
    {
      "midi": 66,
      "time": 493.5,
      "duration": 0.25,
      "velocity": 0.71,
      "hand": "right"
    },
    {
      "midi": 60,
      "time": 493.75,
      "duration": 0.25,
      "velocity": 0.71,
      "hand": "right"
    },
    {
      "midi": 63,
      "time": 493.75,
      "duration": 0.25,
      "velocity": 0.71,
      "hand": "right"
    },
    {
      "midi": 48,
      "time": 494,
      "duration": 0.25,
      "velocity": 0.71,
      "hand": "left"
    },
    {
      "midi": 57,
      "time": 494,
      "duration": 0.25,
      "velocity": 0.71,
      "hand": "left"
    },
    {
      "midi": 49,
      "time": 494.25,
      "duration": 0.25,
      "velocity": 0.71,
      "hand": "left"
    },
    {
      "midi": 50,
      "time": 494.25,
      "duration": 0.25,
      "velocity": 0.71,
      "hand": "left"
    },
    {
      "midi": 58,
      "time": 494.25,
      "duration": 0.25,
      "velocity": 0.71,
      "hand": "left"
    },
    {
      "midi": 59,
      "time": 494.25,
      "duration": 0.25,
      "velocity": 0.71,
      "hand": "left"
    },
    {
      "midi": 51,
      "time": 494.5,
      "duration": 0.25,
      "velocity": 0.71,
      "hand": "left"
    },
    {
      "midi": 60,
      "time": 494.5,
      "duration": 0.25,
      "velocity": 0.71,
      "hand": "right"
    },
    {
      "midi": 49,
      "time": 494.75,
      "duration": 0.25,
      "velocity": 0.71,
      "hand": "left"
    },
    {
      "midi": 52,
      "time": 494.75,
      "duration": 0.25,
      "velocity": 0.71,
      "hand": "left"
    },
    {
      "midi": 58,
      "time": 494.75,
      "duration": 0.25,
      "velocity": 0.71,
      "hand": "left"
    },
    {
      "midi": 61,
      "time": 494.75,
      "duration": 0.25,
      "velocity": 0.71,
      "hand": "right"
    },
    {
      "midi": 41,
      "time": 495,
      "duration": 0.5,
      "velocity": 0.71,
      "hand": "left"
    },
    {
      "midi": 48,
      "time": 495,
      "duration": 0.5,
      "velocity": 0.71,
      "hand": "left"
    },
    {
      "midi": 53,
      "time": 495,
      "duration": 0.5,
      "velocity": 0.71,
      "hand": "left"
    },
    {
      "midi": 57,
      "time": 495,
      "duration": 0.25,
      "velocity": 0.71,
      "hand": "left"
    },
    {
      "midi": 58,
      "time": 495.25,
      "duration": 0.25,
      "velocity": 0.71,
      "hand": "left"
    },
    {
      "midi": 59,
      "time": 495.25,
      "duration": 0.25,
      "velocity": 0.71,
      "hand": "left"
    },
    {
      "midi": 49,
      "time": 495.5,
      "duration": 0.5,
      "velocity": 0.71,
      "hand": "left"
    },
    {
      "midi": 52,
      "time": 495.5,
      "duration": 0.5,
      "velocity": 0.71,
      "hand": "left"
    },
    {
      "midi": 60,
      "time": 495.5,
      "duration": 0.25,
      "velocity": 0.71,
      "hand": "right"
    },
    {
      "midi": 58,
      "time": 495.75,
      "duration": 0.25,
      "velocity": 0.71,
      "hand": "left"
    },
    {
      "midi": 61,
      "time": 495.75,
      "duration": 0.25,
      "velocity": 0.71,
      "hand": "right"
    },
    {
      "midi": 48,
      "time": 496,
      "duration": 0.5,
      "velocity": 0.71,
      "hand": "left"
    },
    {
      "midi": 53,
      "time": 496,
      "duration": 0.5,
      "velocity": 0.71,
      "hand": "left"
    },
    {
      "midi": 57,
      "time": 496,
      "duration": 0.25,
      "velocity": 0.71,
      "hand": "left"
    },
    {
      "midi": 58,
      "time": 496.25,
      "duration": 0.25,
      "velocity": 0.71,
      "hand": "left"
    },
    {
      "midi": 59,
      "time": 496.25,
      "duration": 0.25,
      "velocity": 0.71,
      "hand": "left"
    },
    {
      "midi": 49,
      "time": 496.5,
      "duration": 0.5,
      "velocity": 0.71,
      "hand": "left"
    },
    {
      "midi": 52,
      "time": 496.5,
      "duration": 0.5,
      "velocity": 0.71,
      "hand": "left"
    },
    {
      "midi": 60,
      "time": 496.5,
      "duration": 0.25,
      "velocity": 0.71,
      "hand": "right"
    },
    {
      "midi": 58,
      "time": 496.75,
      "duration": 0.25,
      "velocity": 0.71,
      "hand": "left"
    },
    {
      "midi": 61,
      "time": 496.75,
      "duration": 0.25,
      "velocity": 0.71,
      "hand": "right"
    },
    {
      "midi": 48,
      "time": 497,
      "duration": 0.5,
      "velocity": 0.71,
      "hand": "left"
    },
    {
      "midi": 53,
      "time": 497,
      "duration": 0.5,
      "velocity": 0.71,
      "hand": "left"
    },
    {
      "midi": 57,
      "time": 497,
      "duration": 0.25,
      "velocity": 0.71,
      "hand": "left"
    },
    {
      "midi": 58,
      "time": 497.25,
      "duration": 0.25,
      "velocity": 0.71,
      "hand": "left"
    },
    {
      "midi": 59,
      "time": 497.25,
      "duration": 0.25,
      "velocity": 0.71,
      "hand": "left"
    },
    {
      "midi": 49,
      "time": 497.5,
      "duration": 0.5,
      "velocity": 0.71,
      "hand": "left"
    },
    {
      "midi": 52,
      "time": 497.5,
      "duration": 0.5,
      "velocity": 0.71,
      "hand": "left"
    },
    {
      "midi": 60,
      "time": 497.5,
      "duration": 0.25,
      "velocity": 0.71,
      "hand": "right"
    },
    {
      "midi": 58,
      "time": 497.75,
      "duration": 0.25,
      "velocity": 0.71,
      "hand": "left"
    },
    {
      "midi": 61,
      "time": 497.75,
      "duration": 0.25,
      "velocity": 0.71,
      "hand": "right"
    },
    {
      "midi": 41,
      "time": 498,
      "duration": 0.5,
      "velocity": 0.71,
      "hand": "left"
    },
    {
      "midi": 48,
      "time": 498,
      "duration": 0.5,
      "velocity": 0.71,
      "hand": "left"
    },
    {
      "midi": 51,
      "time": 498,
      "duration": 0.5,
      "velocity": 0.71,
      "hand": "left"
    },
    {
      "midi": 57,
      "time": 498,
      "duration": 0.25,
      "velocity": 0.71,
      "hand": "left"
    },
    {
      "midi": 60,
      "time": 498.25,
      "duration": 0.25,
      "velocity": 0.71,
      "hand": "right"
    },
    {
      "midi": 63,
      "time": 498.25,
      "duration": 0.25,
      "velocity": 0.71,
      "hand": "right"
    },
    {
      "midi": 65,
      "time": 498.5,
      "duration": 0.25,
      "velocity": 0.71,
      "hand": "right"
    },
    {
      "midi": 68,
      "time": 498.75,
      "duration": 0.25,
      "velocity": 0.71,
      "hand": "right"
    },
    {
      "midi": 72,
      "time": 498.75,
      "duration": 0.25,
      "velocity": 0.71,
      "hand": "right"
    },
    {
      "midi": 67,
      "time": 499,
      "duration": 0.25,
      "velocity": 0.71,
      "hand": "right"
    },
    {
      "midi": 65,
      "time": 499.25,
      "duration": 0.25,
      "velocity": 0.71,
      "hand": "right"
    },
    {
      "midi": 66,
      "time": 499.25,
      "duration": 0.25,
      "velocity": 0.71,
      "hand": "right"
    },
    {
      "midi": 64,
      "time": 499.5,
      "duration": 0.25,
      "velocity": 0.71,
      "hand": "right"
    },
    {
      "midi": 62,
      "time": 499.75,
      "duration": 0.25,
      "velocity": 0.71,
      "hand": "right"
    },
    {
      "midi": 63,
      "time": 499.75,
      "duration": 0.25,
      "velocity": 0.71,
      "hand": "right"
    },
    {
      "midi": 61,
      "time": 500,
      "duration": 0.25,
      "velocity": 0.71,
      "hand": "right"
    },
    {
      "midi": 59,
      "time": 500.25,
      "duration": 0.25,
      "velocity": 0.71,
      "hand": "left"
    },
    {
      "midi": 60,
      "time": 500.25,
      "duration": 0.25,
      "velocity": 0.71,
      "hand": "right"
    },
    {
      "midi": 58,
      "time": 500.5,
      "duration": 0.25,
      "velocity": 0.71,
      "hand": "left"
    },
    {
      "midi": 56,
      "time": 500.75,
      "duration": 0.25,
      "velocity": 0.71,
      "hand": "left"
    },
    {
      "midi": 57,
      "time": 500.75,
      "duration": 0.25,
      "velocity": 0.71,
      "hand": "left"
    },
    {
      "midi": 55,
      "time": 501,
      "duration": 0.25,
      "velocity": 0.71,
      "hand": "left"
    },
    {
      "midi": 53,
      "time": 501.25,
      "duration": 0.25,
      "velocity": 0.71,
      "hand": "left"
    },
    {
      "midi": 54,
      "time": 501.25,
      "duration": 0.25,
      "velocity": 0.71,
      "hand": "left"
    },
    {
      "midi": 52,
      "time": 501.5,
      "duration": 0.25,
      "velocity": 0.71,
      "hand": "left"
    },
    {
      "midi": 50,
      "time": 501.75,
      "duration": 0.25,
      "velocity": 0.71,
      "hand": "left"
    },
    {
      "midi": 51,
      "time": 501.75,
      "duration": 0.25,
      "velocity": 0.71,
      "hand": "left"
    },
    {
      "midi": 49,
      "time": 502,
      "duration": 0.25,
      "velocity": 0.71,
      "hand": "left"
    },
    {
      "midi": 47,
      "time": 502.25,
      "duration": 0.25,
      "velocity": 0.71,
      "hand": "left"
    },
    {
      "midi": 48,
      "time": 502.25,
      "duration": 0.25,
      "velocity": 0.71,
      "hand": "left"
    },
    {
      "midi": 46,
      "time": 502.5,
      "duration": 0.25,
      "velocity": 0.71,
      "hand": "left"
    },
    {
      "midi": 44,
      "time": 502.75,
      "duration": 0.25,
      "velocity": 0.71,
      "hand": "left"
    },
    {
      "midi": 45,
      "time": 502.75,
      "duration": 0.25,
      "velocity": 0.71,
      "hand": "left"
    },
    {
      "midi": 43,
      "time": 503,
      "duration": 0.25,
      "velocity": 0.71,
      "hand": "left"
    },
    {
      "midi": 41,
      "time": 503.25,
      "duration": 0.25,
      "velocity": 0.71,
      "hand": "left"
    },
    {
      "midi": 42,
      "time": 503.25,
      "duration": 0.25,
      "velocity": 0.71,
      "hand": "left"
    },
    {
      "midi": 40,
      "time": 503.5,
      "duration": 0.25,
      "velocity": 0.71,
      "hand": "left"
    },
    {
      "midi": 38,
      "time": 503.75,
      "duration": 0.25,
      "velocity": 0.71,
      "hand": "left"
    },
    {
      "midi": 39,
      "time": 503.75,
      "duration": 0.25,
      "velocity": 0.71,
      "hand": "left"
    },
    {
      "midi": 37,
      "time": 504,
      "duration": 0.25,
      "velocity": 0.71,
      "hand": "left"
    },
    {
      "midi": 44,
      "time": 504.25,
      "duration": 0.25,
      "velocity": 0.71,
      "hand": "left"
    },
    {
      "midi": 46,
      "time": 504.25,
      "duration": 0.25,
      "velocity": 0.71,
      "hand": "left"
    },
    {
      "midi": 48,
      "time": 504.5,
      "duration": 0.25,
      "velocity": 0.71,
      "hand": "left"
    },
    {
      "midi": 49,
      "time": 504.75,
      "duration": 0.25,
      "velocity": 0.71,
      "hand": "left"
    },
    {
      "midi": 51,
      "time": 504.75,
      "duration": 0.25,
      "velocity": 0.71,
      "hand": "left"
    },
    {
      "midi": 53,
      "time": 505,
      "duration": 0.25,
      "velocity": 0.71,
      "hand": "left"
    },
    {
      "midi": 65,
      "time": 505,
      "duration": 0.5,
      "velocity": 0.71,
      "hand": "right"
    },
    {
      "midi": 68,
      "time": 505,
      "duration": 0.5,
      "velocity": 0.71,
      "hand": "right"
    },
    {
      "midi": 77,
      "time": 505,
      "duration": 0.5,
      "velocity": 0.71,
      "hand": "right"
    },
    {
      "midi": 54,
      "time": 505.25,
      "duration": 0.25,
      "velocity": 0.71,
      "hand": "left"
    },
    {
      "midi": 56,
      "time": 505.25,
      "duration": 0.25,
      "velocity": 0.71,
      "hand": "left"
    },
    {
      "midi": 58,
      "time": 505.5,
      "duration": 0.25,
      "velocity": 0.71,
      "hand": "left"
    },
    {
      "midi": 65,
      "time": 505.5,
      "duration": 1.5,
      "velocity": 0.71,
      "hand": "right"
    },
    {
      "midi": 68,
      "time": 505.5,
      "duration": 1.5,
      "velocity": 0.71,
      "hand": "right"
    },
    {
      "midi": 77,
      "time": 505.5,
      "duration": 1.5,
      "velocity": 0.71,
      "hand": "right"
    },
    {
      "midi": 56,
      "time": 505.75,
      "duration": 0.25,
      "velocity": 0.71,
      "hand": "left"
    },
    {
      "midi": 58,
      "time": 505.75,
      "duration": 0.25,
      "velocity": 0.71,
      "hand": "left"
    },
    {
      "midi": 60,
      "time": 506,
      "duration": 0.25,
      "velocity": 0.71,
      "hand": "right"
    },
    {
      "midi": 61,
      "time": 506.25,
      "duration": 0.25,
      "velocity": 0.71,
      "hand": "right"
    },
    {
      "midi": 63,
      "time": 506.25,
      "duration": 0.25,
      "velocity": 0.71,
      "hand": "right"
    },
    {
      "midi": 65,
      "time": 506.5,
      "duration": 0.5,
      "velocity": 0.71,
      "hand": "right"
    },
    {
      "midi": 37,
      "time": 507,
      "duration": 0.25,
      "velocity": 0.71,
      "hand": "left"
    },
    {
      "midi": 65,
      "time": 507,
      "duration": 1,
      "velocity": 0.71,
      "hand": "right"
    },
    {
      "midi": 73,
      "time": 507,
      "duration": 1,
      "velocity": 0.71,
      "hand": "right"
    },
    {
      "midi": 44,
      "time": 507.25,
      "duration": 0.25,
      "velocity": 0.71,
      "hand": "left"
    },
    {
      "midi": 46,
      "time": 507.25,
      "duration": 0.25,
      "velocity": 0.71,
      "hand": "left"
    },
    {
      "midi": 48,
      "time": 507.5,
      "duration": 0.25,
      "velocity": 0.71,
      "hand": "left"
    },
    {
      "midi": 49,
      "time": 507.75,
      "duration": 0.25,
      "velocity": 0.71,
      "hand": "left"
    },
    {
      "midi": 51,
      "time": 507.75,
      "duration": 0.25,
      "velocity": 0.71,
      "hand": "left"
    },
    {
      "midi": 53,
      "time": 508,
      "duration": 0.25,
      "velocity": 0.71,
      "hand": "left"
    },
    {
      "midi": 65,
      "time": 508,
      "duration": 0.5,
      "velocity": 0.71,
      "hand": "right"
    },
    {
      "midi": 70,
      "time": 508,
      "duration": 0.5,
      "velocity": 0.71,
      "hand": "right"
    },
    {
      "midi": 54,
      "time": 508.25,
      "duration": 0.25,
      "velocity": 0.71,
      "hand": "left"
    },
    {
      "midi": 56,
      "time": 508.25,
      "duration": 0.25,
      "velocity": 0.71,
      "hand": "left"
    },
    {
      "midi": 58,
      "time": 508.5,
      "duration": 0.25,
      "velocity": 0.71,
      "hand": "left"
    },
    {
      "midi": 60,
      "time": 508.5,
      "duration": 1,
      "velocity": 0.71,
      "hand": "right"
    },
    {
      "midi": 66,
      "time": 508.5,
      "duration": 1,
      "velocity": 0.71,
      "hand": "right"
    },
    {
      "midi": 70,
      "time": 508.5,
      "duration": 1,
      "velocity": 0.71,
      "hand": "right"
    },
    {
      "midi": 56,
      "time": 508.75,
      "duration": 0.25,
      "velocity": 0.71,
      "hand": "left"
    },
    {
      "midi": 60,
      "time": 508.75,
      "duration": 0.25,
      "velocity": 0.71,
      "hand": "right"
    },
    {
      "midi": 61,
      "time": 509,
      "duration": 0.25,
      "velocity": 0.71,
      "hand": "right"
    },
    {
      "midi": 63,
      "time": 509.25,
      "duration": 0.25,
      "velocity": 0.71,
      "hand": "right"
    },
    {
      "midi": 65,
      "time": 509.25,
      "duration": 0.25,
      "velocity": 0.71,
      "hand": "right"
    },
    {
      "midi": 66,
      "time": 509.5,
      "duration": 0.5,
      "velocity": 0.71,
      "hand": "right"
    },
    {
      "midi": 68,
      "time": 509.5,
      "duration": 0.5,
      "velocity": 0.71,
      "hand": "right"
    },
    {
      "midi": 37,
      "time": 510,
      "duration": 0.25,
      "velocity": 0.71,
      "hand": "left"
    },
    {
      "midi": 66,
      "time": 510,
      "duration": 0.5,
      "velocity": 0.71,
      "hand": "right"
    },
    {
      "midi": 68,
      "time": 510,
      "duration": 1,
      "velocity": 0.71,
      "hand": "right"
    },
    {
      "midi": 44,
      "time": 510.25,
      "duration": 0.25,
      "velocity": 0.71,
      "hand": "left"
    },
    {
      "midi": 46,
      "time": 510.25,
      "duration": 0.25,
      "velocity": 0.71,
      "hand": "left"
    },
    {
      "midi": 48,
      "time": 510.5,
      "duration": 0.25,
      "velocity": 0.71,
      "hand": "left"
    },
    {
      "midi": 65,
      "time": 510.5,
      "duration": 0.5,
      "velocity": 0.71,
      "hand": "right"
    },
    {
      "midi": 49,
      "time": 510.75,
      "duration": 0.25,
      "velocity": 0.71,
      "hand": "left"
    },
    {
      "midi": 51,
      "time": 510.75,
      "duration": 0.25,
      "velocity": 0.71,
      "hand": "left"
    },
    {
      "midi": 53,
      "time": 511,
      "duration": 0.25,
      "velocity": 0.71,
      "hand": "left"
    },
    {
      "midi": 63,
      "time": 511,
      "duration": 0.5,
      "velocity": 0.71,
      "hand": "right"
    },
    {
      "midi": 68,
      "time": 511,
      "duration": 0.5,
      "velocity": 0.71,
      "hand": "right"
    },
    {
      "midi": 77,
      "time": 511,
      "duration": 0.5,
      "velocity": 0.71,
      "hand": "right"
    },
    {
      "midi": 54,
      "time": 511.25,
      "duration": 0.25,
      "velocity": 0.71,
      "hand": "left"
    },
    {
      "midi": 56,
      "time": 511.25,
      "duration": 0.25,
      "velocity": 0.71,
      "hand": "left"
    },
    {
      "midi": 58,
      "time": 511.5,
      "duration": 0.25,
      "velocity": 0.71,
      "hand": "left"
    },
    {
      "midi": 61,
      "time": 511.5,
      "duration": 1,
      "velocity": 0.71,
      "hand": "right"
    },
    {
      "midi": 68,
      "time": 511.5,
      "duration": 1,
      "velocity": 0.71,
      "hand": "right"
    },
    {
      "midi": 73,
      "time": 511.5,
      "duration": 1,
      "velocity": 0.71,
      "hand": "right"
    },
    {
      "midi": 56,
      "time": 511.75,
      "duration": 0.25,
      "velocity": 0.71,
      "hand": "left"
    },
    {
      "midi": 58,
      "time": 511.75,
      "duration": 0.25,
      "velocity": 0.71,
      "hand": "left"
    },
    {
      "midi": 59,
      "time": 512,
      "duration": 0.25,
      "velocity": 0.71,
      "hand": "left"
    },
    {
      "midi": 61,
      "time": 512.25,
      "duration": 0.25,
      "velocity": 0.71,
      "hand": "right"
    },
    {
      "midi": 63,
      "time": 512.25,
      "duration": 0.25,
      "velocity": 0.71,
      "hand": "right"
    },
    {
      "midi": 65,
      "time": 512.5,
      "duration": 0.5,
      "velocity": 0.71,
      "hand": "right"
    },
    {
      "midi": 71,
      "time": 512.5,
      "duration": 0.5,
      "velocity": 0.71,
      "hand": "right"
    },
    {
      "midi": 73,
      "time": 512.5,
      "duration": 0.5,
      "velocity": 0.71,
      "hand": "right"
    },
    {
      "midi": 82,
      "time": 512.5,
      "duration": 0.5,
      "velocity": 0.71,
      "hand": "right"
    },
    {
      "midi": 37,
      "time": 513,
      "duration": 0.25,
      "velocity": 0.71,
      "hand": "left"
    },
    {
      "midi": 71,
      "time": 513,
      "duration": 0.5,
      "velocity": 0.71,
      "hand": "right"
    },
    {
      "midi": 73,
      "time": 513,
      "duration": 0.5,
      "velocity": 0.71,
      "hand": "right"
    },
    {
      "midi": 82,
      "time": 513,
      "duration": 0.5,
      "velocity": 0.71,
      "hand": "right"
    },
    {
      "midi": 44,
      "time": 513.25,
      "duration": 0.25,
      "velocity": 0.71,
      "hand": "left"
    },
    {
      "midi": 49,
      "time": 513.25,
      "duration": 0.25,
      "velocity": 0.71,
      "hand": "left"
    },
    {
      "midi": 53,
      "time": 513.5,
      "duration": 0.25,
      "velocity": 0.71,
      "hand": "left"
    },
    {
      "midi": 71,
      "time": 513.5,
      "duration": 0.5,
      "velocity": 0.71,
      "hand": "right"
    },
    {
      "midi": 73,
      "time": 513.5,
      "duration": 0.5,
      "velocity": 0.71,
      "hand": "right"
    },
    {
      "midi": 80,
      "time": 513.5,
      "duration": 0.5,
      "velocity": 0.71,
      "hand": "right"
    },
    {
      "midi": 56,
      "time": 513.75,
      "duration": 0.25,
      "velocity": 0.71,
      "hand": "left"
    },
    {
      "midi": 61,
      "time": 513.75,
      "duration": 0.25,
      "velocity": 0.71,
      "hand": "right"
    },
    {
      "midi": 56,
      "time": 514,
      "duration": 0.25,
      "velocity": 0.71,
      "hand": "left"
    },
    {
      "midi": 71,
      "time": 514,
      "duration": 0.5,
      "velocity": 0.71,
      "hand": "right"
    },
    {
      "midi": 73,
      "time": 514,
      "duration": 0.5,
      "velocity": 0.71,
      "hand": "right"
    },
    {
      "midi": 79,
      "time": 514,
      "duration": 0.5,
      "velocity": 0.71,
      "hand": "right"
    },
    {
      "midi": 61,
      "time": 514.25,
      "duration": 0.25,
      "velocity": 0.71,
      "hand": "right"
    },
    {
      "midi": 65,
      "time": 514.25,
      "duration": 0.25,
      "velocity": 0.71,
      "hand": "right"
    },
    {
      "midi": 56,
      "time": 514.5,
      "duration": 0.25,
      "velocity": 0.71,
      "hand": "left"
    },
    {
      "midi": 71,
      "time": 514.5,
      "duration": 1.5,
      "velocity": 0.71,
      "hand": "right"
    },
    {
      "midi": 73,
      "time": 514.5,
      "duration": 1.5,
      "velocity": 0.71,
      "hand": "right"
    },
    {
      "midi": 80,
      "time": 514.5,
      "duration": 1.5,
      "velocity": 0.71,
      "hand": "right"
    },
    {
      "midi": 65,
      "time": 514.75,
      "duration": 0.25,
      "velocity": 0.71,
      "hand": "right"
    },
    {
      "midi": 68,
      "time": 514.75,
      "duration": 0.25,
      "velocity": 0.71,
      "hand": "right"
    },
    {
      "midi": 61,
      "time": 515,
      "duration": 0.25,
      "velocity": 0.71,
      "hand": "right"
    },
    {
      "midi": 53,
      "time": 515.25,
      "duration": 0.25,
      "velocity": 0.71,
      "hand": "left"
    },
    {
      "midi": 56,
      "time": 515.25,
      "duration": 0.25,
      "velocity": 0.71,
      "hand": "left"
    },
    {
      "midi": 49,
      "time": 515.5,
      "duration": 0.25,
      "velocity": 0.71,
      "hand": "left"
    },
    {
      "midi": 44,
      "time": 515.75,
      "duration": 0.25,
      "velocity": 0.71,
      "hand": "left"
    },
    {
      "midi": 56,
      "time": 515.75,
      "duration": 0.25,
      "velocity": 0.71,
      "hand": "left"
    },
    {
      "midi": 37,
      "time": 516,
      "duration": 0.25,
      "velocity": 0.71,
      "hand": "left"
    },
    {
      "midi": 65,
      "time": 516,
      "duration": 0.125,
      "velocity": 0.71,
      "hand": "right"
    },
    {
      "midi": 65,
      "time": 516,
      "duration": 1,
      "velocity": 0.71,
      "hand": "right"
    },
    {
      "midi": 71,
      "time": 516,
      "duration": 1,
      "velocity": 0.71,
      "hand": "right"
    },
    {
      "midi": 80,
      "time": 516,
      "duration": 1,
      "velocity": 0.71,
      "hand": "right"
    },
    {
      "midi": 44,
      "time": 516.25,
      "duration": 0.25,
      "velocity": 0.71,
      "hand": "left"
    },
    {
      "midi": 49,
      "time": 516.25,
      "duration": 0.25,
      "velocity": 0.71,
      "hand": "left"
    },
    {
      "midi": 56,
      "time": 516.5,
      "duration": 0.25,
      "velocity": 0.71,
      "hand": "left"
    },
    {
      "midi": 44,
      "time": 516.75,
      "duration": 0.25,
      "velocity": 0.71,
      "hand": "left"
    },
    {
      "midi": 49,
      "time": 516.75,
      "duration": 0.25,
      "velocity": 0.71,
      "hand": "left"
    },
    {
      "midi": 49,
      "time": 517,
      "duration": 0.25,
      "velocity": 0.71,
      "hand": "left"
    },
    {
      "midi": 65,
      "time": 517,
      "duration": 0.5,
      "velocity": 0.71,
      "hand": "right"
    },
    {
      "midi": 71,
      "time": 517,
      "duration": 0.5,
      "velocity": 0.71,
      "hand": "right"
    },
    {
      "midi": 73,
      "time": 517,
      "duration": 0.5,
      "velocity": 0.71,
      "hand": "right"
    },
    {
      "midi": 56,
      "time": 517.25,
      "duration": 0.25,
      "velocity": 0.71,
      "hand": "left"
    },
    {
      "midi": 61,
      "time": 517.25,
      "duration": 0.25,
      "velocity": 0.71,
      "hand": "right"
    },
    {
      "midi": 56,
      "time": 517.5,
      "duration": 0.25,
      "velocity": 0.71,
      "hand": "left"
    },
    {
      "midi": 65,
      "time": 517.5,
      "duration": 3,
      "velocity": 0.71,
      "hand": "right"
    },
    {
      "midi": 71,
      "time": 517.5,
      "duration": 3,
      "velocity": 0.71,
      "hand": "right"
    },
    {
      "midi": 73,
      "time": 517.5,
      "duration": 3,
      "velocity": 0.71,
      "hand": "right"
    },
    {
      "midi": 49,
      "time": 517.75,
      "duration": 0.25,
      "velocity": 0.71,
      "hand": "left"
    },
    {
      "midi": 56,
      "time": 517.75,
      "duration": 0.25,
      "velocity": 0.71,
      "hand": "left"
    },
    {
      "midi": 61,
      "time": 518,
      "duration": 0.25,
      "velocity": 0.71,
      "hand": "right"
    },
    {
      "midi": 61,
      "time": 518.25,
      "duration": 0.25,
      "velocity": 0.71,
      "hand": "right"
    },
    {
      "midi": 68,
      "time": 518.25,
      "duration": 0.25,
      "velocity": 0.71,
      "hand": "right"
    },
    {
      "midi": 56,
      "time": 518.5,
      "duration": 0.25,
      "velocity": 0.71,
      "hand": "left"
    },
    {
      "midi": 49,
      "time": 518.75,
      "duration": 0.25,
      "velocity": 0.71,
      "hand": "left"
    },
    {
      "midi": 56,
      "time": 518.75,
      "duration": 0.25,
      "velocity": 0.71,
      "hand": "left"
    },
    {
      "midi": 61,
      "time": 519,
      "duration": 0.25,
      "velocity": 0.71,
      "hand": "right"
    },
    {
      "midi": 49,
      "time": 519.25,
      "duration": 0.25,
      "velocity": 0.71,
      "hand": "left"
    },
    {
      "midi": 56,
      "time": 519.25,
      "duration": 0.25,
      "velocity": 0.71,
      "hand": "left"
    },
    {
      "midi": 44,
      "time": 519.5,
      "duration": 0.25,
      "velocity": 0.71,
      "hand": "left"
    },
    {
      "midi": 49,
      "time": 519.75,
      "duration": 0.25,
      "velocity": 0.71,
      "hand": "left"
    },
    {
      "midi": 56,
      "time": 519.75,
      "duration": 0.25,
      "velocity": 0.71,
      "hand": "left"
    },
    {
      "midi": 49,
      "time": 520,
      "duration": 0.25,
      "velocity": 0.71,
      "hand": "left"
    },
    {
      "midi": 37,
      "time": 520.25,
      "duration": 0.25,
      "velocity": 0.71,
      "hand": "left"
    },
    {
      "midi": 44,
      "time": 520.25,
      "duration": 0.25,
      "velocity": 0.71,
      "hand": "left"
    },
    {
      "midi": 30,
      "time": 520.5,
      "duration": 0.25,
      "velocity": 0.71,
      "hand": "left"
    },
    {
      "midi": 66,
      "time": 520.5,
      "duration": 1,
      "velocity": 0.71,
      "hand": "right"
    },
    {
      "midi": 71,
      "time": 520.5,
      "duration": 1,
      "velocity": 0.71,
      "hand": "right"
    },
    {
      "midi": 73,
      "time": 520.5,
      "duration": 1,
      "velocity": 0.71,
      "hand": "right"
    },
    {
      "midi": 49,
      "time": 520.75,
      "duration": 0.25,
      "velocity": 0.71,
      "hand": "left"
    },
    {
      "midi": 61,
      "time": 521,
      "duration": 0.25,
      "velocity": 0.71,
      "hand": "right"
    },
    {
      "midi": 49,
      "time": 521.25,
      "duration": 0.25,
      "velocity": 0.71,
      "hand": "left"
    },
    {
      "midi": 54,
      "time": 521.25,
      "duration": 0.25,
      "velocity": 0.71,
      "hand": "left"
    },
    {
      "midi": 58,
      "time": 521.5,
      "duration": 0.25,
      "velocity": 0.71,
      "hand": "left"
    },
    {
      "midi": 66,
      "time": 521.5,
      "duration": 0.5,
      "velocity": 0.71,
      "hand": "right"
    },
    {
      "midi": 70,
      "time": 521.5,
      "duration": 0.5,
      "velocity": 0.71,
      "hand": "right"
    },
    {
      "midi": 78,
      "time": 521.5,
      "duration": 0.5,
      "velocity": 0.71,
      "hand": "right"
    },
    {
      "midi": 49,
      "time": 521.75,
      "duration": 0.25,
      "velocity": 0.71,
      "hand": "left"
    },
    {
      "midi": 54,
      "time": 521.75,
      "duration": 0.25,
      "velocity": 0.71,
      "hand": "left"
    },
    {
      "midi": 39,
      "time": 522,
      "duration": 0.25,
      "velocity": 0.71,
      "hand": "left"
    },
    {
      "midi": 78,
      "time": 522,
      "duration": 0.25,
      "velocity": 0.71,
      "hand": "right"
    },
    {
      "midi": 46,
      "time": 522.25,
      "duration": 0.25,
      "velocity": 0.71,
      "hand": "left"
    },
    {
      "midi": 66,
      "time": 522.25,
      "duration": 0.25,
      "velocity": 0.71,
      "hand": "right"
    },
    {
      "midi": 70,
      "time": 522.25,
      "duration": 0.25,
      "velocity": 0.71,
      "hand": "right"
    },
    {
      "midi": 51,
      "time": 522.5,
      "duration": 0.25,
      "velocity": 0.71,
      "hand": "left"
    },
    {
      "midi": 58,
      "time": 522.5,
      "duration": 0.25,
      "velocity": 0.71,
      "hand": "left"
    },
    {
      "midi": 54,
      "time": 522.75,
      "duration": 0.25,
      "velocity": 0.71,
      "hand": "left"
    },
    {
      "midi": 63,
      "time": 522.75,
      "duration": 0.25,
      "velocity": 0.71,
      "hand": "right"
    },
    {
      "midi": 70,
      "time": 522.75,
      "duration": 0.25,
      "velocity": 0.71,
      "hand": "right"
    },
    {
      "midi": 51,
      "time": 523,
      "duration": 0.25,
      "velocity": 0.71,
      "hand": "left"
    },
    {
      "midi": 66,
      "time": 523,
      "duration": 0.25,
      "velocity": 0.71,
      "hand": "right"
    },
    {
      "midi": 46,
      "time": 523.25,
      "duration": 0.25,
      "velocity": 0.71,
      "hand": "left"
    },
    {
      "midi": 58,
      "time": 523.25,
      "duration": 0.25,
      "velocity": 0.71,
      "hand": "left"
    },
    {
      "midi": 72,
      "time": 523.25,
      "duration": 0.25,
      "velocity": 0.71,
      "hand": "right"
    },
    {
      "midi": 39,
      "time": 523.5,
      "duration": 0.25,
      "velocity": 0.71,
      "hand": "left"
    },
    {
      "midi": 66,
      "time": 523.5,
      "duration": 0.25,
      "velocity": 0.71,
      "hand": "right"
    },
    {
      "midi": 46,
      "time": 523.75,
      "duration": 0.25,
      "velocity": 0.71,
      "hand": "left"
    },
    {
      "midi": 61,
      "time": 523.75,
      "duration": 0.25,
      "velocity": 0.71,
      "hand": "right"
    },
    {
      "midi": 70,
      "time": 523.75,
      "duration": 0.25,
      "velocity": 0.71,
      "hand": "right"
    },
    {
      "midi": 51,
      "time": 524,
      "duration": 0.25,
      "velocity": 0.71,
      "hand": "left"
    },
    {
      "midi": 73,
      "time": 524,
      "duration": 0.25,
      "velocity": 0.71,
      "hand": "right"
    },
    {
      "midi": 58,
      "time": 524.25,
      "duration": 0.25,
      "velocity": 0.71,
      "hand": "left"
    },
    {
      "midi": 66,
      "time": 524.25,
      "duration": 0.25,
      "velocity": 0.71,
      "hand": "right"
    },
    {
      "midi": 70,
      "time": 524.25,
      "duration": 0.25,
      "velocity": 0.71,
      "hand": "right"
    },
    {
      "midi": 51,
      "time": 524.5,
      "duration": 0.25,
      "velocity": 0.71,
      "hand": "left"
    },
    {
      "midi": 66,
      "time": 524.5,
      "duration": 0.25,
      "velocity": 0.71,
      "hand": "right"
    },
    {
      "midi": 46,
      "time": 524.75,
      "duration": 0.25,
      "velocity": 0.71,
      "hand": "left"
    },
    {
      "midi": 70,
      "time": 524.75,
      "duration": 0.25,
      "velocity": 0.71,
      "hand": "right"
    },
    {
      "midi": 78,
      "time": 524.75,
      "duration": 0.25,
      "velocity": 0.71,
      "hand": "right"
    },
    {
      "midi": 44,
      "time": 525,
      "duration": 0.25,
      "velocity": 0.71,
      "hand": "left"
    },
    {
      "midi": 73,
      "time": 525,
      "duration": 0.25,
      "velocity": 0.71,
      "hand": "right"
    },
    {
      "midi": 51,
      "time": 525.25,
      "duration": 0.25,
      "velocity": 0.71,
      "hand": "left"
    },
    {
      "midi": 66,
      "time": 525.25,
      "duration": 0.25,
      "velocity": 0.71,
      "hand": "right"
    },
    {
      "midi": 77,
      "time": 525.25,
      "duration": 0.25,
      "velocity": 0.71,
      "hand": "right"
    },
    {
      "midi": 54,
      "time": 525.5,
      "duration": 0.25,
      "velocity": 0.71,
      "hand": "left"
    },
    {
      "midi": 70,
      "time": 525.5,
      "duration": 0.25,
      "velocity": 0.71,
      "hand": "right"
    },
    {
      "midi": 61,
      "time": 525.75,
      "duration": 0.25,
      "velocity": 0.71,
      "hand": "right"
    },
    {
      "midi": 66,
      "time": 525.75,
      "duration": 0.25,
      "velocity": 0.71,
      "hand": "right"
    },
    {
      "midi": 73,
      "time": 525.75,
      "duration": 0.25,
      "velocity": 0.71,
      "hand": "right"
    },
    {
      "midi": 54,
      "time": 526,
      "duration": 0.25,
      "velocity": 0.71,
      "hand": "left"
    },
    {
      "midi": 77,
      "time": 526,
      "duration": 0.25,
      "velocity": 0.71,
      "hand": "right"
    },
    {
      "midi": 51,
      "time": 526.25,
      "duration": 0.25,
      "velocity": 0.71,
      "hand": "left"
    },
    {
      "midi": 68,
      "time": 526.25,
      "duration": 0.25,
      "velocity": 0.71,
      "hand": "right"
    },
    {
      "midi": 72,
      "time": 526.25,
      "duration": 0.25,
      "velocity": 0.71,
      "hand": "right"
    },
    {
      "midi": 44,
      "time": 526.5,
      "duration": 0.25,
      "velocity": 0.71,
      "hand": "left"
    },
    {
      "midi": 66,
      "time": 526.5,
      "duration": 0.25,
      "velocity": 0.71,
      "hand": "right"
    },
    {
      "midi": 51,
      "time": 526.75,
      "duration": 0.25,
      "velocity": 0.71,
      "hand": "left"
    },
    {
      "midi": 68,
      "time": 526.75,
      "duration": 0.25,
      "velocity": 0.71,
      "hand": "right"
    },
    {
      "midi": 75,
      "time": 526.75,
      "duration": 0.25,
      "velocity": 0.71,
      "hand": "right"
    },
    {
      "midi": 54,
      "time": 527,
      "duration": 0.25,
      "velocity": 0.71,
      "hand": "left"
    },
    {
      "midi": 72,
      "time": 527,
      "duration": 0.25,
      "velocity": 0.71,
      "hand": "right"
    },
    {
      "midi": 60,
      "time": 527.25,
      "duration": 0.25,
      "velocity": 0.71,
      "hand": "right"
    },
    {
      "midi": 63,
      "time": 527.25,
      "duration": 0.25,
      "velocity": 0.71,
      "hand": "right"
    },
    {
      "midi": 72,
      "time": 527.25,
      "duration": 0.25,
      "velocity": 0.71,
      "hand": "right"
    },
    {
      "midi": 54,
      "time": 527.5,
      "duration": 0.25,
      "velocity": 0.71,
      "hand": "left"
    },
    {
      "midi": 66,
      "time": 527.5,
      "duration": 0.25,
      "velocity": 0.71,
      "hand": "right"
    },
    {
      "midi": 44,
      "time": 527.75,
      "duration": 0.25,
      "velocity": 0.71,
      "hand": "left"
    },
    {
      "midi": 60,
      "time": 527.75,
      "duration": 0.25,
      "velocity": 0.71,
      "hand": "right"
    },
    {
      "midi": 70,
      "time": 527.75,
      "duration": 0.25,
      "velocity": 0.71,
      "hand": "right"
    },
    {
      "midi": 37,
      "time": 528,
      "duration": 0.25,
      "velocity": 0.5,
      "hand": "left"
    },
    {
      "midi": 58,
      "time": 528,
      "duration": 0.5,
      "velocity": 0.71,
      "hand": "left"
    },
    {
      "midi": 65,
      "time": 528,
      "duration": 1,
      "velocity": 0.71,
      "hand": "right"
    },
    {
      "midi": 70,
      "time": 528,
      "duration": 0.5,
      "velocity": 0.71,
      "hand": "right"
    },
    {
      "midi": 44,
      "time": 528.25,
      "duration": 0.25,
      "velocity": 0.51,
      "hand": "left"
    },
    {
      "midi": 46,
      "time": 528.25,
      "duration": 0.25,
      "velocity": 0.53,
      "hand": "left"
    },
    {
      "midi": 48,
      "time": 528.5,
      "duration": 0.25,
      "velocity": 0.54,
      "hand": "left"
    },
    {
      "midi": 56,
      "time": 528.5,
      "duration": 0.5,
      "velocity": 0.71,
      "hand": "left"
    },
    {
      "midi": 68,
      "time": 528.5,
      "duration": 0.5,
      "velocity": 0.71,
      "hand": "right"
    },
    {
      "midi": 49,
      "time": 528.75,
      "duration": 0.25,
      "velocity": 0.56,
      "hand": "left"
    },
    {
      "midi": 51,
      "time": 528.75,
      "duration": 0.25,
      "velocity": 0.57,
      "hand": "left"
    },
    {
      "midi": 53,
      "time": 529,
      "duration": 0.25,
      "velocity": 0.58,
      "hand": "left"
    },
    {
      "midi": 77,
      "time": 529,
      "duration": 0.5,
      "velocity": 0.71,
      "hand": "right"
    },
    {
      "midi": 80,
      "time": 529,
      "duration": 0.5,
      "velocity": 0.71,
      "hand": "right"
    },
    {
      "midi": 89,
      "time": 529,
      "duration": 0.5,
      "velocity": 0.71,
      "hand": "right"
    },
    {
      "midi": 54,
      "time": 529.25,
      "duration": 0.25,
      "velocity": 0.6,
      "hand": "left"
    },
    {
      "midi": 56,
      "time": 529.25,
      "duration": 0.25,
      "velocity": 0.61,
      "hand": "left"
    },
    {
      "midi": 58,
      "time": 529.5,
      "duration": 0.25,
      "velocity": 0.63,
      "hand": "left"
    },
    {
      "midi": 77,
      "time": 529.5,
      "duration": 1,
      "velocity": 0.71,
      "hand": "right"
    },
    {
      "midi": 80,
      "time": 529.5,
      "duration": 1,
      "velocity": 0.71,
      "hand": "right"
    },
    {
      "midi": 89,
      "time": 529.5,
      "duration": 1,
      "velocity": 0.71,
      "hand": "right"
    },
    {
      "midi": 56,
      "time": 529.75,
      "duration": 0.25,
      "velocity": 0.65,
      "hand": "left"
    },
    {
      "midi": 58,
      "time": 529.75,
      "duration": 0.25,
      "velocity": 0.66,
      "hand": "left"
    },
    {
      "midi": 60,
      "time": 530,
      "duration": 0.25,
      "velocity": 0.68,
      "hand": "right"
    },
    {
      "midi": 61,
      "time": 530.25,
      "duration": 0.25,
      "velocity": 0.69,
      "hand": "right"
    },
    {
      "midi": 63,
      "time": 530.25,
      "duration": 0.25,
      "velocity": 0.71,
      "hand": "right"
    },
    {
      "midi": 65,
      "time": 530.5,
      "duration": 0.5,
      "velocity": 0.72,
      "hand": "right"
    },
    {
      "midi": 73,
      "time": 530.5,
      "duration": 0.5,
      "velocity": 0.71,
      "hand": "right"
    },
    {
      "midi": 80,
      "time": 530.5,
      "duration": 0.5,
      "velocity": 0.71,
      "hand": "right"
    },
    {
      "midi": 85,
      "time": 530.5,
      "duration": 0.5,
      "velocity": 0.71,
      "hand": "right"
    },
    {
      "midi": 37,
      "time": 531,
      "duration": 0.25,
      "velocity": 0.72,
      "hand": "left"
    },
    {
      "midi": 73,
      "time": 531,
      "duration": 0.5,
      "velocity": 0.71,
      "hand": "right"
    },
    {
      "midi": 77,
      "time": 531,
      "duration": 0.5,
      "velocity": 0.71,
      "hand": "right"
    },
    {
      "midi": 85,
      "time": 531,
      "duration": 0.5,
      "velocity": 0.71,
      "hand": "right"
    },
    {
      "midi": 44,
      "time": 531.25,
      "duration": 0.25,
      "velocity": 0.73,
      "hand": "left"
    },
    {
      "midi": 46,
      "time": 531.25,
      "duration": 0.25,
      "velocity": 0.75,
      "hand": "left"
    },
    {
      "midi": 48,
      "time": 531.5,
      "duration": 0.25,
      "velocity": 0.76,
      "hand": "left"
    },
    {
      "midi": 65,
      "time": 531.5,
      "duration": 0.5,
      "velocity": 0.71,
      "hand": "right"
    },
    {
      "midi": 49,
      "time": 531.75,
      "duration": 0.25,
      "velocity": 0.78,
      "hand": "left"
    },
    {
      "midi": 51,
      "time": 531.75,
      "duration": 0.25,
      "velocity": 0.8,
      "hand": "left"
    },
    {
      "midi": 53,
      "time": 532,
      "duration": 0.25,
      "velocity": 0.81,
      "hand": "left"
    },
    {
      "midi": 73,
      "time": 532,
      "duration": 0.5,
      "velocity": 0.71,
      "hand": "right"
    },
    {
      "midi": 82,
      "time": 532,
      "duration": 0.5,
      "velocity": 0.71,
      "hand": "right"
    },
    {
      "midi": 54,
      "time": 532.25,
      "duration": 0.25,
      "velocity": 0.83,
      "hand": "left"
    },
    {
      "midi": 56,
      "time": 532.25,
      "duration": 0.25,
      "velocity": 0.84,
      "hand": "left"
    },
    {
      "midi": 58,
      "time": 532.5,
      "duration": 0.25,
      "velocity": 0.86,
      "hand": "left"
    },
    {
      "midi": 72,
      "time": 532.5,
      "duration": 0.5,
      "velocity": 0.71,
      "hand": "right"
    },
    {
      "midi": 78,
      "time": 532.5,
      "duration": 1,
      "velocity": 0.71,
      "hand": "right"
    },
    {
      "midi": 82,
      "time": 532.5,
      "duration": 1,
      "velocity": 0.71,
      "hand": "right"
    },
    {
      "midi": 56,
      "time": 532.75,
      "duration": 0.25,
      "velocity": 0.87,
      "hand": "left"
    },
    {
      "midi": 60,
      "time": 532.75,
      "duration": 0.25,
      "velocity": 0.89,
      "hand": "right"
    },
    {
      "midi": 61,
      "time": 533,
      "duration": 0.25,
      "velocity": 0.9,
      "hand": "right"
    },
    {
      "midi": 70,
      "time": 533,
      "duration": 0.5,
      "velocity": 0.71,
      "hand": "right"
    },
    {
      "midi": 63,
      "time": 533.25,
      "duration": 0.25,
      "velocity": 0.91,
      "hand": "right"
    },
    {
      "midi": 65,
      "time": 533.25,
      "duration": 0.25,
      "velocity": 0.93,
      "hand": "right"
    },
    {
      "midi": 66,
      "time": 533.5,
      "duration": 0.5,
      "velocity": 0.94,
      "hand": "right"
    },
    {
      "midi": 68,
      "time": 533.5,
      "duration": 0.5,
      "velocity": 0.71,
      "hand": "right"
    },
    {
      "midi": 75,
      "time": 533.5,
      "duration": 0.5,
      "velocity": 0.71,
      "hand": "right"
    },
    {
      "midi": 80,
      "time": 533.5,
      "duration": 0.5,
      "velocity": 0.71,
      "hand": "right"
    },
    {
      "midi": 37,
      "time": 534,
      "duration": 0.25,
      "velocity": 0.94,
      "hand": "left"
    },
    {
      "midi": 68,
      "time": 534,
      "duration": 1,
      "velocity": 0.71,
      "hand": "right"
    },
    {
      "midi": 75,
      "time": 534,
      "duration": 0.5,
      "velocity": 0.71,
      "hand": "right"
    },
    {
      "midi": 77,
      "time": 534,
      "duration": 1,
      "velocity": 0.71,
      "hand": "right"
    },
    {
      "midi": 80,
      "time": 534,
      "duration": 1,
      "velocity": 0.71,
      "hand": "right"
    },
    {
      "midi": 44,
      "time": 534.25,
      "duration": 0.25,
      "velocity": 0.94,
      "hand": "left"
    },
    {
      "midi": 46,
      "time": 534.25,
      "duration": 0.25,
      "velocity": 0.94,
      "hand": "left"
    },
    {
      "midi": 48,
      "time": 534.5,
      "duration": 0.25,
      "velocity": 0.94,
      "hand": "left"
    },
    {
      "midi": 73,
      "time": 534.5,
      "duration": 0.5,
      "velocity": 0.71,
      "hand": "right"
    },
    {
      "midi": 49,
      "time": 534.75,
      "duration": 0.25,
      "velocity": 0.94,
      "hand": "left"
    },
    {
      "midi": 51,
      "time": 534.75,
      "duration": 0.25,
      "velocity": 0.94,
      "hand": "left"
    },
    {
      "midi": 53,
      "time": 535,
      "duration": 0.25,
      "velocity": 0.94,
      "hand": "left"
    },
    {
      "midi": 77,
      "time": 535,
      "duration": 0.5,
      "velocity": 0.71,
      "hand": "right"
    },
    {
      "midi": 80,
      "time": 535,
      "duration": 0.5,
      "velocity": 0.71,
      "hand": "right"
    },
    {
      "midi": 89,
      "time": 535,
      "duration": 0.5,
      "velocity": 0.71,
      "hand": "right"
    },
    {
      "midi": 54,
      "time": 535.25,
      "duration": 0.25,
      "velocity": 0.94,
      "hand": "left"
    },
    {
      "midi": 56,
      "time": 535.25,
      "duration": 0.25,
      "velocity": 0.94,
      "hand": "left"
    },
    {
      "midi": 58,
      "time": 535.5,
      "duration": 0.25,
      "velocity": 0.94,
      "hand": "left"
    },
    {
      "midi": 73,
      "time": 535.5,
      "duration": 1,
      "velocity": 0.71,
      "hand": "right"
    },
    {
      "midi": 80,
      "time": 535.5,
      "duration": 1,
      "velocity": 0.71,
      "hand": "right"
    },
    {
      "midi": 85,
      "time": 535.5,
      "duration": 1,
      "velocity": 0.71,
      "hand": "right"
    },
    {
      "midi": 56,
      "time": 535.75,
      "duration": 0.25,
      "velocity": 0.94,
      "hand": "left"
    },
    {
      "midi": 58,
      "time": 535.75,
      "duration": 0.25,
      "velocity": 0.94,
      "hand": "left"
    },
    {
      "midi": 60,
      "time": 536,
      "duration": 0.25,
      "velocity": 0.94,
      "hand": "right"
    },
    {
      "midi": 61,
      "time": 536.25,
      "duration": 0.25,
      "velocity": 0.94,
      "hand": "right"
    },
    {
      "midi": 63,
      "time": 536.25,
      "duration": 0.25,
      "velocity": 0.94,
      "hand": "right"
    },
    {
      "midi": 64,
      "time": 536.5,
      "duration": 0.5,
      "velocity": 0.94,
      "hand": "right"
    },
    {
      "midi": 79,
      "time": 536.5,
      "duration": 0.5,
      "velocity": 0.71,
      "hand": "right"
    },
    {
      "midi": 85,
      "time": 536.5,
      "duration": 0.5,
      "velocity": 0.71,
      "hand": "right"
    },
    {
      "midi": 94,
      "time": 536.5,
      "duration": 0.5,
      "velocity": 0.71,
      "hand": "right"
    },
    {
      "midi": 36,
      "time": 537,
      "duration": 0.25,
      "velocity": 0.94,
      "hand": "left"
    },
    {
      "midi": 82,
      "time": 537,
      "duration": 0.5,
      "velocity": 0.71,
      "hand": "right"
    },
    {
      "midi": 87,
      "time": 537,
      "duration": 0.5,
      "velocity": 0.71,
      "hand": "right"
    },
    {
      "midi": 94,
      "time": 537,
      "duration": 0.5,
      "velocity": 0.71,
      "hand": "right"
    },
    {
      "midi": 48,
      "time": 537.25,
      "duration": 0.25,
      "velocity": 0.94,
      "hand": "left"
    },
    {
      "midi": 51,
      "time": 537.25,
      "duration": 0.25,
      "velocity": 0.94,
      "hand": "left"
    },
    {
      "midi": 56,
      "time": 537.5,
      "duration": 0.25,
      "velocity": 0.94,
      "hand": "left"
    },
    {
      "midi": 80,
      "time": 537.5,
      "duration": 0.5,
      "velocity": 0.71,
      "hand": "right"
    },
    {
      "midi": 87,
      "time": 537.5,
      "duration": 0.5,
      "velocity": 0.71,
      "hand": "right"
    },
    {
      "midi": 92,
      "time": 537.5,
      "duration": 0.5,
      "velocity": 0.71,
      "hand": "right"
    },
    {
      "midi": 51,
      "time": 537.75,
      "duration": 0.25,
      "velocity": 0.94,
      "hand": "left"
    },
    {
      "midi": 56,
      "time": 537.75,
      "duration": 0.25,
      "velocity": 0.94,
      "hand": "left"
    },
    {
      "midi": 60,
      "time": 538,
      "duration": 0.25,
      "velocity": 0.94,
      "hand": "right"
    },
    {
      "midi": 79,
      "time": 538,
      "duration": 0.5,
      "velocity": 0.71,
      "hand": "right"
    },
    {
      "midi": 87,
      "time": 538,
      "duration": 0.5,
      "velocity": 0.71,
      "hand": "right"
    },
    {
      "midi": 91,
      "time": 538,
      "duration": 0.5,
      "velocity": 0.71,
      "hand": "right"
    },
    {
      "midi": 63,
      "time": 538.25,
      "duration": 0.25,
      "velocity": 0.94,
      "hand": "right"
    },
    {
      "midi": 68,
      "time": 538.25,
      "duration": 0.25,
      "velocity": 0.94,
      "hand": "right"
    },
    {
      "midi": 63,
      "time": 538.5,
      "duration": 0.25,
      "velocity": 0.94,
      "hand": "right"
    },
    {
      "midi": 80,
      "time": 538.5,
      "duration": 1,
      "velocity": 0.71,
      "hand": "right"
    },
    {
      "midi": 87,
      "time": 538.5,
      "duration": 1,
      "velocity": 0.71,
      "hand": "right"
    },
    {
      "midi": 92,
      "time": 538.5,
      "duration": 1,
      "velocity": 0.71,
      "hand": "right"
    },
    {
      "midi": 68,
      "time": 538.75,
      "duration": 0.25,
      "velocity": 0.94,
      "hand": "right"
    },
    {
      "midi": 75,
      "time": 538.75,
      "duration": 0.25,
      "velocity": 0.94,
      "hand": "right"
    },
    {
      "midi": 63,
      "time": 539,
      "duration": 0.25,
      "velocity": 0.94,
      "hand": "right"
    },
    {
      "midi": 56,
      "time": 539.25,
      "duration": 0.25,
      "velocity": 0.94,
      "hand": "left"
    },
    {
      "midi": 60,
      "time": 539.25,
      "duration": 0.25,
      "velocity": 0.94,
      "hand": "right"
    },
    {
      "midi": 51,
      "time": 539.5,
      "duration": 0.25,
      "velocity": 0.94,
      "hand": "left"
    },
    {
      "midi": 68,
      "time": 539.5,
      "duration": 0.5,
      "velocity": 0.71,
      "hand": "right"
    },
    {
      "midi": 80,
      "time": 539.5,
      "duration": 0.5,
      "velocity": 0.71,
      "hand": "right"
    },
    {
      "midi": 44,
      "time": 539.75,
      "duration": 0.25,
      "velocity": 0.94,
      "hand": "left"
    },
    {
      "midi": 48,
      "time": 539.75,
      "duration": 0.25,
      "velocity": 0.94,
      "hand": "left"
    },
    {
      "midi": 35,
      "time": 540,
      "duration": 0.5,
      "velocity": 0.94,
      "hand": "left"
    },
    {
      "midi": 68,
      "time": 540,
      "duration": 1,
      "velocity": 0.71,
      "hand": "right"
    },
    {
      "midi": 75,
      "time": 540,
      "duration": 1,
      "velocity": 0.71,
      "hand": "right"
    },
    {
      "midi": 80,
      "time": 540,
      "duration": 1,
      "velocity": 0.71,
      "hand": "right"
    },
    {
      "midi": 47,
      "time": 540.5,
      "duration": 0.25,
      "velocity": 0.94,
      "hand": "left"
    },
    {
      "midi": 49,
      "time": 540.75,
      "duration": 0.25,
      "velocity": 0.94,
      "hand": "left"
    },
    {
      "midi": 53,
      "time": 540.75,
      "duration": 0.25,
      "velocity": 0.94,
      "hand": "left"
    },
    {
      "midi": 63,
      "time": 541,
      "duration": 0.25,
      "velocity": 0.94,
      "hand": "right"
    },
    {
      "midi": 68,
      "time": 541,
      "duration": 0.5,
      "velocity": 0.71,
      "hand": "right"
    },
    {
      "midi": 73,
      "time": 541,
      "duration": 0.5,
      "velocity": 0.71,
      "hand": "right"
    },
    {
      "midi": 49,
      "time": 541.25,
      "duration": 0.25,
      "velocity": 0.94,
      "hand": "left"
    },
    {
      "midi": 53,
      "time": 541.25,
      "duration": 0.25,
      "velocity": 0.94,
      "hand": "left"
    },
    {
      "midi": 46,
      "time": 541.5,
      "duration": 0.25,
      "velocity": 0.94,
      "hand": "left"
    },
    {
      "midi": 68,
      "time": 541.5,
      "duration": 0.5,
      "velocity": 0.71,
      "hand": "right"
    },
    {
      "midi": 73,
      "time": 541.5,
      "duration": 1,
      "velocity": 0.71,
      "hand": "right"
    },
    {
      "midi": 49,
      "time": 541.75,
      "duration": 0.25,
      "velocity": 0.94,
      "hand": "left"
    },
    {
      "midi": 54,
      "time": 541.75,
      "duration": 0.25,
      "velocity": 0.94,
      "hand": "left"
    },
    {
      "midi": 63,
      "time": 542,
      "duration": 0.25,
      "velocity": 0.94,
      "hand": "right"
    },
    {
      "midi": 67,
      "time": 542,
      "duration": 0.5,
      "velocity": 0.71,
      "hand": "right"
    },
    {
      "midi": 49,
      "time": 542.25,
      "duration": 0.25,
      "velocity": 0.94,
      "hand": "left"
    },
    {
      "midi": 54,
      "time": 542.25,
      "duration": 0.25,
      "velocity": 0.94,
      "hand": "left"
    },
    {
      "midi": 61,
      "time": 542.5,
      "duration": 0.25,
      "velocity": 0.94,
      "hand": "right"
    },
    {
      "midi": 66,
      "time": 542.5,
      "duration": 0.5,
      "velocity": 0.71,
      "hand": "right"
    },
    {
      "midi": 73,
      "time": 542.5,
      "duration": 0.5,
      "velocity": 0.71,
      "hand": "right"
    },
    {
      "midi": 78,
      "time": 542.5,
      "duration": 0.5,
      "velocity": 0.71,
      "hand": "right"
    },
    {
      "midi": 49,
      "time": 542.75,
      "duration": 0.25,
      "velocity": 0.94,
      "hand": "left"
    },
    {
      "midi": 54,
      "time": 542.75,
      "duration": 0.25,
      "velocity": 0.94,
      "hand": "left"
    },
    {
      "midi": 44,
      "time": 543,
      "duration": 0.25,
      "velocity": 0.94,
      "hand": "left"
    },
    {
      "midi": 65,
      "time": 543,
      "duration": 1,
      "velocity": 0.71,
      "hand": "right"
    },
    {
      "midi": 71,
      "time": 543,
      "duration": 1,
      "velocity": 0.71,
      "hand": "right"
    },
    {
      "midi": 73,
      "time": 543,
      "duration": 1,
      "velocity": 0.71,
      "hand": "right"
    },
    {
      "midi": 77,
      "time": 543,
      "duration": 1,
      "velocity": 0.71,
      "hand": "right"
    },
    {
      "midi": 49,
      "time": 543.25,
      "duration": 0.25,
      "velocity": 0.94,
      "hand": "left"
    },
    {
      "midi": 53,
      "time": 543.25,
      "duration": 0.25,
      "velocity": 0.94,
      "hand": "left"
    },
    {
      "midi": 60,
      "time": 543.5,
      "duration": 0.25,
      "velocity": 0.94,
      "hand": "right"
    },
    {
      "midi": 49,
      "time": 543.75,
      "duration": 0.25,
      "velocity": 0.94,
      "hand": "left"
    },
    {
      "midi": 53,
      "time": 543.75,
      "duration": 0.25,
      "velocity": 0.94,
      "hand": "left"
    },
    {
      "midi": 61,
      "time": 544,
      "duration": 0.25,
      "velocity": 0.94,
      "hand": "right"
    },
    {
      "midi": 71,
      "time": 544,
      "duration": 0.5,
      "velocity": 0.71,
      "hand": "right"
    },
    {
      "midi": 73,
      "time": 544,
      "duration": 0.5,
      "velocity": 0.71,
      "hand": "right"
    },
    {
      "midi": 77,
      "time": 544,
      "duration": 0.5,
      "velocity": 0.71,
      "hand": "right"
    },
    {
      "midi": 83,
      "time": 544,
      "duration": 0.5,
      "velocity": 0.71,
      "hand": "right"
    },
    {
      "midi": 49,
      "time": 544.25,
      "duration": 0.25,
      "velocity": 0.94,
      "hand": "left"
    },
    {
      "midi": 53,
      "time": 544.25,
      "duration": 0.25,
      "velocity": 0.94,
      "hand": "left"
    },
    {
      "midi": 42,
      "time": 544.5,
      "duration": 0.25,
      "velocity": 0.94,
      "hand": "left"
    },
    {
      "midi": 71,
      "time": 544.5,
      "duration": 1,
      "velocity": 0.71,
      "hand": "right"
    },
    {
      "midi": 73,
      "time": 544.5,
      "duration": 1,
      "velocity": 0.71,
      "hand": "right"
    },
    {
      "midi": 78,
      "time": 544.5,
      "duration": 1,
      "velocity": 0.71,
      "hand": "right"
    },
    {
      "midi": 83,
      "time": 544.5,
      "duration": 1,
      "velocity": 0.71,
      "hand": "right"
    },
    {
      "midi": 49,
      "time": 544.75,
      "duration": 0.25,
      "velocity": 0.94,
      "hand": "left"
    },
    {
      "midi": 54,
      "time": 544.75,
      "duration": 0.25,
      "velocity": 0.94,
      "hand": "left"
    },
    {
      "midi": 63,
      "time": 545,
      "duration": 0.25,
      "velocity": 0.94,
      "hand": "right"
    },
    {
      "midi": 49,
      "time": 545.25,
      "duration": 0.25,
      "velocity": 0.94,
      "hand": "left"
    },
    {
      "midi": 54,
      "time": 545.25,
      "duration": 0.25,
      "velocity": 0.94,
      "hand": "left"
    },
    {
      "midi": 64,
      "time": 545.5,
      "duration": 0.25,
      "velocity": 0.94,
      "hand": "right"
    },
    {
      "midi": 70,
      "time": 545.5,
      "duration": 0.5,
      "velocity": 0.71,
      "hand": "right"
    },
    {
      "midi": 73,
      "time": 545.5,
      "duration": 0.5,
      "velocity": 0.71,
      "hand": "right"
    },
    {
      "midi": 82,
      "time": 545.5,
      "duration": 0.5,
      "velocity": 0.71,
      "hand": "right"
    },
    {
      "midi": 49,
      "time": 545.75,
      "duration": 0.25,
      "velocity": 0.94,
      "hand": "left"
    },
    {
      "midi": 54,
      "time": 545.75,
      "duration": 0.25,
      "velocity": 0.94,
      "hand": "left"
    },
    {
      "midi": 43,
      "time": 546,
      "duration": 0.25,
      "velocity": 0.94,
      "hand": "left"
    },
    {
      "midi": 70,
      "time": 546,
      "duration": 1,
      "velocity": 0.71,
      "hand": "right"
    },
    {
      "midi": 73,
      "time": 546,
      "duration": 1,
      "velocity": 0.71,
      "hand": "right"
    },
    {
      "midi": 75,
      "time": 546,
      "duration": 1,
      "velocity": 0.71,
      "hand": "right"
    },
    {
      "midi": 82,
      "time": 546,
      "duration": 1,
      "velocity": 0.71,
      "hand": "right"
    },
    {
      "midi": 49,
      "time": 546.25,
      "duration": 0.25,
      "velocity": 0.94,
      "hand": "left"
    },
    {
      "midi": 51,
      "time": 546.25,
      "duration": 0.25,
      "velocity": 0.94,
      "hand": "left"
    },
    {
      "midi": 57,
      "time": 546.5,
      "duration": 0.25,
      "velocity": 0.94,
      "hand": "left"
    },
    {
      "midi": 49,
      "time": 546.75,
      "duration": 0.25,
      "velocity": 0.94,
      "hand": "left"
    },
    {
      "midi": 51,
      "time": 546.75,
      "duration": 0.25,
      "velocity": 0.94,
      "hand": "left"
    },
    {
      "midi": 58,
      "time": 547,
      "duration": 0.25,
      "velocity": 0.94,
      "hand": "left"
    },
    {
      "midi": 63,
      "time": 547,
      "duration": 0.5,
      "velocity": 0.71,
      "hand": "right"
    },
    {
      "midi": 70,
      "time": 547,
      "duration": 0.5,
      "velocity": 0.71,
      "hand": "right"
    },
    {
      "midi": 73,
      "time": 547,
      "duration": 0.5,
      "velocity": 0.71,
      "hand": "right"
    },
    {
      "midi": 75,
      "time": 547,
      "duration": 0.5,
      "velocity": 0.71,
      "hand": "right"
    },
    {
      "midi": 46,
      "time": 547.25,
      "duration": 0.25,
      "velocity": 0.94,
      "hand": "left"
    },
    {
      "midi": 51,
      "time": 547.25,
      "duration": 0.25,
      "velocity": 0.94,
      "hand": "left"
    },
    {
      "midi": 44,
      "time": 547.5,
      "duration": 0.25,
      "velocity": 0.94,
      "hand": "left"
    },
    {
      "midi": 63,
      "time": 547.5,
      "duration": 1,
      "velocity": 0.71,
      "hand": "right"
    },
    {
      "midi": 70,
      "time": 547.5,
      "duration": 0.5,
      "velocity": 0.71,
      "hand": "right"
    },
    {
      "midi": 72,
      "time": 547.5,
      "duration": 1,
      "velocity": 0.71,
      "hand": "right"
    },
    {
      "midi": 75,
      "time": 547.5,
      "duration": 1,
      "velocity": 0.71,
      "hand": "right"
    },
    {
      "midi": 51,
      "time": 547.75,
      "duration": 0.25,
      "velocity": 0.94,
      "hand": "left"
    },
    {
      "midi": 56,
      "time": 547.75,
      "duration": 0.25,
      "velocity": 0.94,
      "hand": "left"
    },
    {
      "midi": 65,
      "time": 548,
      "duration": 0.25,
      "velocity": 0.94,
      "hand": "right"
    },
    {
      "midi": 69,
      "time": 548,
      "duration": 0.5,
      "velocity": 0.71,
      "hand": "right"
    },
    {
      "midi": 51,
      "time": 548.25,
      "duration": 0.25,
      "velocity": 0.94,
      "hand": "left"
    },
    {
      "midi": 56,
      "time": 548.25,
      "duration": 0.25,
      "velocity": 0.94,
      "hand": "left"
    },
    {
      "midi": 63,
      "time": 548.5,
      "duration": 0.25,
      "velocity": 0.94,
      "hand": "right"
    },
    {
      "midi": 68,
      "time": 548.5,
      "duration": 0.5,
      "velocity": 0.71,
      "hand": "right"
    },
    {
      "midi": 75,
      "time": 548.5,
      "duration": 0.5,
      "velocity": 0.71,
      "hand": "right"
    },
    {
      "midi": 80,
      "time": 548.5,
      "duration": 0.5,
      "velocity": 0.71,
      "hand": "right"
    },
    {
      "midi": 51,
      "time": 548.75,
      "duration": 0.25,
      "velocity": 0.94,
      "hand": "left"
    },
    {
      "midi": 56,
      "time": 548.75,
      "duration": 0.25,
      "velocity": 0.94,
      "hand": "left"
    },
    {
      "midi": 46,
      "time": 549,
      "duration": 0.25,
      "velocity": 0.94,
      "hand": "left"
    },
    {
      "midi": 68,
      "time": 549,
      "duration": 0.5,
      "velocity": 0.71,
      "hand": "right"
    },
    {
      "midi": 73,
      "time": 549,
      "duration": 1,
      "velocity": 0.71,
      "hand": "right"
    },
    {
      "midi": 75,
      "time": 549,
      "duration": 1,
      "velocity": 0.71,
      "hand": "right"
    },
    {
      "midi": 80,
      "time": 549,
      "duration": 0.5,
      "velocity": 0.71,
      "hand": "right"
    },
    {
      "midi": 51,
      "time": 549.25,
      "duration": 0.25,
      "velocity": 0.94,
      "hand": "left"
    },
    {
      "midi": 55,
      "time": 549.25,
      "duration": 0.25,
      "velocity": 0.94,
      "hand": "left"
    },
    {
      "midi": 62,
      "time": 549.5,
      "duration": 0.25,
      "velocity": 0.94,
      "hand": "right"
    },
    {
      "midi": 67,
      "time": 549.5,
      "duration": 0.5,
      "velocity": 0.71,
      "hand": "right"
    },
    {
      "midi": 79,
      "time": 549.5,
      "duration": 0.5,
      "velocity": 0.71,
      "hand": "right"
    },
    {
      "midi": 51,
      "time": 549.75,
      "duration": 0.25,
      "velocity": 0.94,
      "hand": "left"
    },
    {
      "midi": 55,
      "time": 549.75,
      "duration": 0.25,
      "velocity": 0.94,
      "hand": "left"
    },
    {
      "midi": 63,
      "time": 550,
      "duration": 0.25,
      "velocity": 0.94,
      "hand": "right"
    },
    {
      "midi": 73,
      "time": 550,
      "duration": 0.5,
      "velocity": 0.71,
      "hand": "right"
    },
    {
      "midi": 75,
      "time": 550,
      "duration": 0.5,
      "velocity": 0.71,
      "hand": "right"
    },
    {
      "midi": 79,
      "time": 550,
      "duration": 0.5,
      "velocity": 0.71,
      "hand": "right"
    },
    {
      "midi": 85,
      "time": 550,
      "duration": 0.5,
      "velocity": 0.71,
      "hand": "right"
    },
    {
      "midi": 51,
      "time": 550.25,
      "duration": 0.25,
      "velocity": 0.94,
      "hand": "left"
    },
    {
      "midi": 55,
      "time": 550.25,
      "duration": 0.25,
      "velocity": 0.94,
      "hand": "left"
    },
    {
      "midi": 44,
      "time": 550.5,
      "duration": 0.25,
      "velocity": 0.94,
      "hand": "left"
    },
    {
      "midi": 73,
      "time": 550.5,
      "duration": 1,
      "velocity": 0.71,
      "hand": "right"
    },
    {
      "midi": 75,
      "time": 550.5,
      "duration": 1,
      "velocity": 0.71,
      "hand": "right"
    },
    {
      "midi": 80,
      "time": 550.5,
      "duration": 1,
      "velocity": 0.71,
      "hand": "right"
    },
    {
      "midi": 85,
      "time": 550.5,
      "duration": 1,
      "velocity": 0.71,
      "hand": "right"
    },
    {
      "midi": 51,
      "time": 550.75,
      "duration": 0.25,
      "velocity": 0.94,
      "hand": "left"
    },
    {
      "midi": 56,
      "time": 550.75,
      "duration": 0.25,
      "velocity": 0.94,
      "hand": "left"
    },
    {
      "midi": 63,
      "time": 551,
      "duration": 0.25,
      "velocity": 0.94,
      "hand": "right"
    },
    {
      "midi": 51,
      "time": 551.25,
      "duration": 0.25,
      "velocity": 0.94,
      "hand": "left"
    },
    {
      "midi": 56,
      "time": 551.25,
      "duration": 0.25,
      "velocity": 0.94,
      "hand": "left"
    },
    {
      "midi": 68,
      "time": 551.5,
      "duration": 0.25,
      "velocity": 0.94,
      "hand": "right"
    },
    {
      "midi": 72,
      "time": 551.5,
      "duration": 0.5,
      "velocity": 0.71,
      "hand": "right"
    },
    {
      "midi": 75,
      "time": 551.5,
      "duration": 0.5,
      "velocity": 0.71,
      "hand": "right"
    },
    {
      "midi": 80,
      "time": 551.5,
      "duration": 0.5,
      "velocity": 0.71,
      "hand": "right"
    },
    {
      "midi": 84,
      "time": 551.5,
      "duration": 0.5,
      "velocity": 0.71,
      "hand": "right"
    },
    {
      "midi": 56,
      "time": 551.75,
      "duration": 0.25,
      "velocity": 0.94,
      "hand": "left"
    },
    {
      "midi": 63,
      "time": 551.75,
      "duration": 0.25,
      "velocity": 0.94,
      "hand": "right"
    },
    {
      "midi": 46,
      "time": 552,
      "duration": 0.25,
      "velocity": 0.94,
      "hand": "left"
    },
    {
      "midi": 72,
      "time": 552,
      "duration": 0.5,
      "velocity": 0.71,
      "hand": "right"
    },
    {
      "midi": 78,
      "time": 552,
      "duration": 0.5,
      "velocity": 0.71,
      "hand": "right"
    },
    {
      "midi": 84,
      "time": 552,
      "duration": 0.5,
      "velocity": 0.71,
      "hand": "right"
    },
    {
      "midi": 49,
      "time": 552.25,
      "duration": 0.25,
      "velocity": 0.94,
      "hand": "left"
    },
    {
      "midi": 54,
      "time": 552.25,
      "duration": 0.25,
      "velocity": 0.94,
      "hand": "left"
    },
    {
      "midi": 58,
      "time": 552.5,
      "duration": 0.25,
      "velocity": 0.94,
      "hand": "left"
    },
    {
      "midi": 70,
      "time": 552.5,
      "duration": 0.5,
      "velocity": 0.71,
      "hand": "right"
    },
    {
      "midi": 73,
      "time": 552.5,
      "duration": 0.5,
      "velocity": 0.71,
      "hand": "right"
    },
    {
      "midi": 78,
      "time": 552.5,
      "duration": 0.5,
      "velocity": 0.71,
      "hand": "right"
    },
    {
      "midi": 82,
      "time": 552.5,
      "duration": 0.5,
      "velocity": 0.71,
      "hand": "right"
    },
    {
      "midi": 49,
      "time": 552.75,
      "duration": 0.25,
      "velocity": 0.94,
      "hand": "left"
    },
    {
      "midi": 54,
      "time": 552.75,
      "duration": 0.25,
      "velocity": 0.94,
      "hand": "left"
    },
    {
      "midi": 61,
      "time": 553,
      "duration": 0.25,
      "velocity": 0.94,
      "hand": "right"
    },
    {
      "midi": 66,
      "time": 553,
      "duration": 0.5,
      "velocity": 0.71,
      "hand": "right"
    },
    {
      "midi": 73,
      "time": 553,
      "duration": 0.5,
      "velocity": 0.71,
      "hand": "right"
    },
    {
      "midi": 78,
      "time": 553,
      "duration": 0.5,
      "velocity": 0.71,
      "hand": "right"
    },
    {
      "midi": 49,
      "time": 553.25,
      "duration": 0.25,
      "velocity": 0.94,
      "hand": "left"
    },
    {
      "midi": 54,
      "time": 553.25,
      "duration": 0.25,
      "velocity": 0.94,
      "hand": "left"
    },
    {
      "midi": 34,
      "time": 553.5,
      "duration": 0.25,
      "velocity": 0.94,
      "hand": "left"
    },
    {
      "midi": 61,
      "time": 553.5,
      "duration": 0.5,
      "velocity": 0.71,
      "hand": "right"
    },
    {
      "midi": 66,
      "time": 553.5,
      "duration": 0.5,
      "velocity": 0.71,
      "hand": "right"
    },
    {
      "midi": 73,
      "time": 553.5,
      "duration": 0.5,
      "velocity": 0.71,
      "hand": "right"
    },
    {
      "midi": 42,
      "time": 553.75,
      "duration": 0.25,
      "velocity": 0.94,
      "hand": "left"
    },
    {
      "midi": 49,
      "time": 554,
      "duration": 0.25,
      "velocity": 0.94,
      "hand": "left"
    },
    {
      "midi": 58,
      "time": 554,
      "duration": 0.75,
      "velocity": 0.71,
      "hand": "left"
    },
    {
      "midi": 61,
      "time": 554,
      "duration": 0.75,
      "velocity": 0.71,
      "hand": "right"
    },
    {
      "midi": 70,
      "time": 554,
      "duration": 0.75,
      "velocity": 0.71,
      "hand": "right"
    },
    {
      "midi": 42,
      "time": 554.25,
      "duration": 0.25,
      "velocity": 0.94,
      "hand": "left"
    },
    {
      "midi": 49,
      "time": 554.25,
      "duration": 0.25,
      "velocity": 0.94,
      "hand": "left"
    },
    {
      "midi": 42,
      "time": 554.5,
      "duration": 0.25,
      "velocity": 0.94,
      "hand": "left"
    },
    {
      "midi": 42,
      "time": 554.75,
      "duration": 0.25,
      "velocity": 0.94,
      "hand": "left"
    },
    {
      "midi": 49,
      "time": 554.75,
      "duration": 0.25,
      "velocity": 0.94,
      "hand": "left"
    },
    {
      "midi": 56,
      "time": 554.75,
      "duration": 0.25,
      "velocity": 0.71,
      "hand": "left"
    },
    {
      "midi": 61,
      "time": 554.75,
      "duration": 0.25,
      "velocity": 0.71,
      "hand": "right"
    },
    {
      "midi": 68,
      "time": 554.75,
      "duration": 0.25,
      "velocity": 0.71,
      "hand": "right"
    },
    {
      "midi": 34,
      "time": 555,
      "duration": 0.25,
      "velocity": 0.94,
      "hand": "left"
    },
    {
      "midi": 56,
      "time": 555,
      "duration": 1,
      "velocity": 0.71,
      "hand": "left"
    },
    {
      "midi": 61,
      "time": 555,
      "duration": 1,
      "velocity": 0.71,
      "hand": "right"
    },
    {
      "midi": 68,
      "time": 555,
      "duration": 1,
      "velocity": 0.71,
      "hand": "right"
    },
    {
      "midi": 42,
      "time": 555.25,
      "duration": 0.25,
      "velocity": 0.94,
      "hand": "left"
    },
    {
      "midi": 49,
      "time": 555.5,
      "duration": 0.25,
      "velocity": 0.94,
      "hand": "left"
    },
    {
      "midi": 42,
      "time": 555.75,
      "duration": 0.25,
      "velocity": 0.94,
      "hand": "left"
    },
    {
      "midi": 49,
      "time": 555.75,
      "duration": 0.25,
      "velocity": 0.94,
      "hand": "left"
    },
    {
      "midi": 42,
      "time": 556,
      "duration": 0.25,
      "velocity": 0.94,
      "hand": "left"
    },
    {
      "midi": 54,
      "time": 556,
      "duration": 1,
      "velocity": 0.71,
      "hand": "left"
    },
    {
      "midi": 61,
      "time": 556,
      "duration": 1,
      "velocity": 0.71,
      "hand": "right"
    },
    {
      "midi": 66,
      "time": 556,
      "duration": 1,
      "velocity": 0.71,
      "hand": "right"
    },
    {
      "midi": 42,
      "time": 556.25,
      "duration": 0.25,
      "velocity": 0.94,
      "hand": "left"
    },
    {
      "midi": 49,
      "time": 556.25,
      "duration": 0.25,
      "velocity": 0.94,
      "hand": "left"
    },
    {
      "midi": 34,
      "time": 556.5,
      "duration": 0.25,
      "velocity": 0.94,
      "hand": "left"
    },
    {
      "midi": 42,
      "time": 556.75,
      "duration": 0.25,
      "velocity": 0.94,
      "hand": "left"
    },
    {
      "midi": 49,
      "time": 557,
      "duration": 0.25,
      "velocity": 0.94,
      "hand": "left"
    },
    {
      "midi": 53,
      "time": 557,
      "duration": 0.75,
      "velocity": 0.71,
      "hand": "left"
    },
    {
      "midi": 61,
      "time": 557,
      "duration": 0.75,
      "velocity": 0.71,
      "hand": "right"
    },
    {
      "midi": 65,
      "time": 557,
      "duration": 0.75,
      "velocity": 0.71,
      "hand": "right"
    },
    {
      "midi": 42,
      "time": 557.25,
      "duration": 0.25,
      "velocity": 0.94,
      "hand": "left"
    },
    {
      "midi": 49,
      "time": 557.25,
      "duration": 0.25,
      "velocity": 0.94,
      "hand": "left"
    },
    {
      "midi": 42,
      "time": 557.5,
      "duration": 0.25,
      "velocity": 0.94,
      "hand": "left"
    },
    {
      "midi": 42,
      "time": 557.75,
      "duration": 0.25,
      "velocity": 0.94,
      "hand": "left"
    },
    {
      "midi": 49,
      "time": 557.75,
      "duration": 0.25,
      "velocity": 0.94,
      "hand": "left"
    },
    {
      "midi": 54,
      "time": 557.75,
      "duration": 0.25,
      "velocity": 0.71,
      "hand": "left"
    },
    {
      "midi": 61,
      "time": 557.75,
      "duration": 0.25,
      "velocity": 0.71,
      "hand": "right"
    },
    {
      "midi": 66,
      "time": 557.75,
      "duration": 0.25,
      "velocity": 0.71,
      "hand": "right"
    },
    {
      "midi": 34,
      "time": 558,
      "duration": 0.25,
      "velocity": 0.94,
      "hand": "left"
    },
    {
      "midi": 55,
      "time": 558,
      "duration": 1,
      "velocity": 0.71,
      "hand": "left"
    },
    {
      "midi": 61,
      "time": 558,
      "duration": 1,
      "velocity": 0.71,
      "hand": "right"
    },
    {
      "midi": 65,
      "time": 558,
      "duration": 1,
      "velocity": 0.71,
      "hand": "right"
    },
    {
      "midi": 67,
      "time": 558,
      "duration": 1,
      "velocity": 0.71,
      "hand": "right"
    },
    {
      "midi": 41,
      "time": 558.25,
      "duration": 0.25,
      "velocity": 0.94,
      "hand": "left"
    },
    {
      "midi": 49,
      "time": 558.5,
      "duration": 0.25,
      "velocity": 0.94,
      "hand": "left"
    },
    {
      "midi": 41,
      "time": 558.75,
      "duration": 0.25,
      "velocity": 0.94,
      "hand": "left"
    },
    {
      "midi": 49,
      "time": 558.75,
      "duration": 0.25,
      "velocity": 0.94,
      "hand": "left"
    },
    {
      "midi": 41,
      "time": 559,
      "duration": 0.25,
      "velocity": 0.94,
      "hand": "left"
    },
    {
      "midi": 55,
      "time": 559,
      "duration": 0.5,
      "velocity": 0.71,
      "hand": "left"
    },
    {
      "midi": 65,
      "time": 559,
      "duration": 0.5,
      "velocity": 0.71,
      "hand": "right"
    },
    {
      "midi": 67,
      "time": 559,
      "duration": 0.5,
      "velocity": 0.71,
      "hand": "right"
    },
    {
      "midi": 41,
      "time": 559.25,
      "duration": 0.25,
      "velocity": 0.94,
      "hand": "left"
    },
    {
      "midi": 49,
      "time": 559.25,
      "duration": 0.25,
      "velocity": 0.94,
      "hand": "left"
    },
    {
      "midi": 36,
      "time": 559.5,
      "duration": 0.5,
      "velocity": 0.71,
      "hand": "left"
    },
    {
      "midi": 56,
      "time": 559.5,
      "duration": 1,
      "velocity": 0.71,
      "hand": "left"
    },
    {
      "midi": 65,
      "time": 559.5,
      "duration": 1,
      "velocity": 0.71,
      "hand": "right"
    },
    {
      "midi": 68,
      "time": 559.5,
      "duration": 1,
      "velocity": 0.71,
      "hand": "right"
    },
    {
      "midi": 41,
      "time": 559.75,
      "duration": 0.25,
      "velocity": 0.71,
      "hand": "left"
    },
    {
      "midi": 48,
      "time": 560,
      "duration": 0.25,
      "velocity": 0.71,
      "hand": "left"
    },
    {
      "midi": 49,
      "time": 560.25,
      "duration": 0.25,
      "velocity": 0.75,
      "hand": "left"
    },
    {
      "midi": 50,
      "time": 560.25,
      "duration": 0.25,
      "velocity": 0.8,
      "hand": "left"
    },
    {
      "midi": 51,
      "time": 560.5,
      "duration": 0.25,
      "velocity": 0.84,
      "hand": "left"
    },
    {
      "midi": 57,
      "time": 560.5,
      "duration": 0.5,
      "velocity": 0.71,
      "hand": "left"
    },
    {
      "midi": 65,
      "time": 560.5,
      "duration": 0.5,
      "velocity": 0.71,
      "hand": "right"
    },
    {
      "midi": 69,
      "time": 560.5,
      "duration": 0.5,
      "velocity": 0.71,
      "hand": "right"
    },
    {
      "midi": 52,
      "time": 560.75,
      "duration": 0.25,
      "velocity": 0.89,
      "hand": "left"
    },
    {
      "midi": 53,
      "time": 560.75,
      "duration": 0.25,
      "velocity": 0.93,
      "hand": "left"
    },
    {
      "midi": 37,
      "time": 561,
      "duration": 0.5,
      "velocity": 0.71,
      "hand": "left"
    },
    {
      "midi": 60,
      "time": 561,
      "duration": 1,
      "velocity": 0.71,
      "hand": "right"
    },
    {
      "midi": 65,
      "time": 561,
      "duration": 1,
      "velocity": 0.71,
      "hand": "right"
    },
    {
      "midi": 72,
      "time": 561,
      "duration": 1,
      "velocity": 0.71,
      "hand": "right"
    },
    {
      "midi": 46,
      "time": 561.25,
      "duration": 0.25,
      "velocity": 0.93,
      "hand": "left"
    },
    {
      "midi": 48,
      "time": 561.5,
      "duration": 0.25,
      "velocity": 0.93,
      "hand": "left"
    },
    {
      "midi": 49,
      "time": 561.75,
      "duration": 0.25,
      "velocity": 0.94,
      "hand": "left"
    },
    {
      "midi": 50,
      "time": 561.75,
      "duration": 0.25,
      "velocity": 0.96,
      "hand": "left"
    },
    {
      "midi": 51,
      "time": 562,
      "duration": 0.25,
      "velocity": 0.97,
      "hand": "left"
    },
    {
      "midi": 58,
      "time": 562,
      "duration": 0.5,
      "velocity": 0.71,
      "hand": "left"
    },
    {
      "midi": 65,
      "time": 562,
      "duration": 0.5,
      "velocity": 0.71,
      "hand": "right"
    },
    {
      "midi": 70,
      "time": 562,
      "duration": 0.5,
      "velocity": 0.71,
      "hand": "right"
    },
    {
      "midi": 52,
      "time": 562.25,
      "duration": 0.25,
      "velocity": 0.98,
      "hand": "left"
    },
    {
      "midi": 53,
      "time": 562.25,
      "duration": 0.25,
      "velocity": 1,
      "hand": "left"
    },
    {
      "midi": 40,
      "time": 562.5,
      "duration": 0.5,
      "velocity": 1,
      "hand": "left"
    },
    {
      "midi": 61,
      "time": 562.5,
      "duration": 0.5,
      "velocity": 0.71,
      "hand": "right"
    },
    {
      "midi": 67,
      "time": 562.5,
      "duration": 0.5,
      "velocity": 0.71,
      "hand": "right"
    },
    {
      "midi": 73,
      "time": 562.5,
      "duration": 0.5,
      "velocity": 0.71,
      "hand": "right"
    },
    {
      "midi": 48,
      "time": 562.75,
      "duration": 0.25,
      "velocity": 1,
      "hand": "left"
    },
    {
      "midi": 50,
      "time": 563,
      "duration": 0.25,
      "velocity": 1,
      "hand": "left"
    },
    {
      "midi": 59,
      "time": 563,
      "duration": 0.5,
      "velocity": 0.71,
      "hand": "left"
    },
    {
      "midi": 67,
      "time": 563,
      "duration": 0.5,
      "velocity": 0.71,
      "hand": "right"
    },
    {
      "midi": 71,
      "time": 563,
      "duration": 0.5,
      "velocity": 0.71,
      "hand": "right"
    },
    {
      "midi": 51,
      "time": 563.25,
      "duration": 0.25,
      "velocity": 1,
      "hand": "left"
    },
    {
      "midi": 52,
      "time": 563.25,
      "duration": 0.25,
      "velocity": 1,
      "hand": "left"
    },
    {
      "midi": 53,
      "time": 563.5,
      "duration": 0.25,
      "velocity": 1,
      "hand": "left"
    },
    {
      "midi": 60,
      "time": 563.5,
      "duration": 0.5,
      "velocity": 0.71,
      "hand": "right"
    },
    {
      "midi": 67,
      "time": 563.5,
      "duration": 0.5,
      "velocity": 0.71,
      "hand": "right"
    },
    {
      "midi": 72,
      "time": 563.5,
      "duration": 0.5,
      "velocity": 0.71,
      "hand": "right"
    },
    {
      "midi": 54,
      "time": 563.75,
      "duration": 0.25,
      "velocity": 1,
      "hand": "left"
    },
    {
      "midi": 55,
      "time": 563.75,
      "duration": 0.25,
      "velocity": 1,
      "hand": "left"
    },
    {
      "midi": 41,
      "time": 564,
      "duration": 0.5,
      "velocity": 1,
      "hand": "left"
    },
    {
      "midi": 63,
      "time": 564,
      "duration": 1,
      "velocity": 0.71,
      "hand": "right"
    },
    {
      "midi": 68,
      "time": 564,
      "duration": 1,
      "velocity": 0.71,
      "hand": "right"
    },
    {
      "midi": 75,
      "time": 564,
      "duration": 1,
      "velocity": 0.71,
      "hand": "right"
    },
    {
      "midi": 49,
      "time": 564.25,
      "duration": 0.25,
      "velocity": 1,
      "hand": "left"
    },
    {
      "midi": 51,
      "time": 564.5,
      "duration": 0.25,
      "velocity": 1,
      "hand": "left"
    },
    {
      "midi": 52,
      "time": 564.75,
      "duration": 0.25,
      "velocity": 1,
      "hand": "left"
    },
    {
      "midi": 53,
      "time": 564.75,
      "duration": 0.25,
      "velocity": 1,
      "hand": "left"
    },
    {
      "midi": 54,
      "time": 565,
      "duration": 0.25,
      "velocity": 1,
      "hand": "left"
    },
    {
      "midi": 61,
      "time": 565,
      "duration": 0.5,
      "velocity": 0.71,
      "hand": "right"
    },
    {
      "midi": 68,
      "time": 565,
      "duration": 0.5,
      "velocity": 0.71,
      "hand": "right"
    },
    {
      "midi": 73,
      "time": 565,
      "duration": 0.5,
      "velocity": 0.71,
      "hand": "right"
    },
    {
      "midi": 55,
      "time": 565.25,
      "duration": 0.25,
      "velocity": 1,
      "hand": "left"
    },
    {
      "midi": 56,
      "time": 565.25,
      "duration": 0.25,
      "velocity": 1,
      "hand": "left"
    },
    {
      "midi": 43,
      "time": 565.5,
      "duration": 0.5,
      "velocity": 1,
      "hand": "left"
    },
    {
      "midi": 52,
      "time": 565.75,
      "duration": 0.25,
      "velocity": 1,
      "hand": "left"
    },
    {
      "midi": 53,
      "time": 566,
      "duration": 0.25,
      "velocity": 1,
      "hand": "left"
    },
    {
      "midi": 63,
      "time": 566,
      "duration": 0.5,
      "velocity": 0.71,
      "hand": "right"
    },
    {
      "midi": 72,
      "time": 566,
      "duration": 0.5,
      "velocity": 0.71,
      "hand": "right"
    },
    {
      "midi": 75,
      "time": 566,
      "duration": 0.5,
      "velocity": 0.71,
      "hand": "right"
    },
    {
      "midi": 54,
      "time": 566.25,
      "duration": 0.25,
      "velocity": 1,
      "hand": "left"
    },
    {
      "midi": 55,
      "time": 566.25,
      "duration": 0.25,
      "velocity": 1,
      "hand": "left"
    },
    {
      "midi": 56,
      "time": 566.5,
      "duration": 0.25,
      "velocity": 1,
      "hand": "left"
    },
    {
      "midi": 64,
      "time": 566.5,
      "duration": 0.5,
      "velocity": 0.71,
      "hand": "right"
    },
    {
      "midi": 72,
      "time": 566.5,
      "duration": 0.5,
      "velocity": 0.71,
      "hand": "right"
    },
    {
      "midi": 76,
      "time": 566.5,
      "duration": 0.5,
      "velocity": 0.71,
      "hand": "right"
    },
    {
      "midi": 57,
      "time": 566.75,
      "duration": 0.25,
      "velocity": 1,
      "hand": "left"
    },
    {
      "midi": 58,
      "time": 566.75,
      "duration": 0.25,
      "velocity": 1,
      "hand": "left"
    },
    {
      "midi": 44,
      "time": 567,
      "duration": 0.25,
      "velocity": 0.94,
      "hand": "left"
    },
    {
      "midi": 65,
      "time": 567,
      "duration": 0.5,
      "velocity": 0.71,
      "hand": "right"
    },
    {
      "midi": 72,
      "time": 567,
      "duration": 0.25,
      "velocity": 0.71,
      "hand": "right"
    },
    {
      "midi": 77,
      "time": 567,
      "duration": 0.5,
      "velocity": 0.71,
      "hand": "right"
    },
    {
      "midi": 53,
      "time": 567.25,
      "duration": 0.25,
      "velocity": 0.94,
      "hand": "left"
    },
    {
      "midi": 56,
      "time": 567.25,
      "duration": 0.25,
      "velocity": 0.94,
      "hand": "left"
    },
    {
      "midi": 73,
      "time": 567.25,
      "duration": 0.25,
      "velocity": 0.71,
      "hand": "right"
    },
    {
      "midi": 75,
      "time": 567.25,
      "duration": 0.25,
      "velocity": 0.71,
      "hand": "right"
    },
    {
      "midi": 61,
      "time": 567.5,
      "duration": 0.25,
      "velocity": 0.94,
      "hand": "right"
    },
    {
      "midi": 70,
      "time": 567.5,
      "duration": 0.5,
      "velocity": 0.71,
      "hand": "right"
    },
    {
      "midi": 73,
      "time": 567.5,
      "duration": 0.5,
      "velocity": 0.71,
      "hand": "right"
    },
    {
      "midi": 82,
      "time": 567.5,
      "duration": 0.5,
      "velocity": 0.71,
      "hand": "right"
    },
    {
      "midi": 56,
      "time": 567.75,
      "duration": 0.25,
      "velocity": 0.94,
      "hand": "left"
    },
    {
      "midi": 65,
      "time": 567.75,
      "duration": 0.25,
      "velocity": 0.94,
      "hand": "right"
    },
    {
      "midi": 61,
      "time": 568,
      "duration": 0.25,
      "velocity": 0.94,
      "hand": "right"
    },
    {
      "midi": 68,
      "time": 568,
      "duration": 0.5,
      "velocity": 0.71,
      "hand": "right"
    },
    {
      "midi": 77,
      "time": 568,
      "duration": 0.5,
      "velocity": 0.71,
      "hand": "right"
    },
    {
      "midi": 80,
      "time": 568,
      "duration": 0.5,
      "velocity": 0.71,
      "hand": "right"
    },
    {
      "midi": 53,
      "time": 568.25,
      "duration": 0.25,
      "velocity": 0.94,
      "hand": "left"
    },
    {
      "midi": 56,
      "time": 568.25,
      "duration": 0.25,
      "velocity": 0.94,
      "hand": "left"
    },
    {
      "midi": 32,
      "time": 568.5,
      "duration": 0.25,
      "velocity": 0.94,
      "hand": "left"
    },
    {
      "midi": 66,
      "time": 568.5,
      "duration": 1,
      "velocity": 0.71,
      "hand": "right"
    },
    {
      "midi": 72,
      "time": 568.5,
      "duration": 1,
      "velocity": 0.71,
      "hand": "right"
    },
    {
      "midi": 80,
      "time": 568.5,
      "duration": 1,
      "velocity": 0.71,
      "hand": "right"
    },
    {
      "midi": 44,
      "time": 568.75,
      "duration": 0.25,
      "velocity": 0.94,
      "hand": "left"
    },
    {
      "midi": 51,
      "time": 568.75,
      "duration": 0.25,
      "velocity": 0.94,
      "hand": "left"
    },
    {
      "midi": 60,
      "time": 569,
      "duration": 0.25,
      "velocity": 0.94,
      "hand": "right"
    },
    {
      "midi": 56,
      "time": 569.25,
      "duration": 0.25,
      "velocity": 0.94,
      "hand": "left"
    },
    {
      "midi": 66,
      "time": 569.25,
      "duration": 0.25,
      "velocity": 0.94,
      "hand": "right"
    },
    {
      "midi": 60,
      "time": 569.5,
      "duration": 0.25,
      "velocity": 0.94,
      "hand": "right"
    },
    {
      "midi": 66,
      "time": 569.5,
      "duration": 0.5,
      "velocity": 0.71,
      "hand": "right"
    },
    {
      "midi": 72,
      "time": 569.5,
      "duration": 0.5,
      "velocity": 0.71,
      "hand": "right"
    },
    {
      "midi": 78,
      "time": 569.5,
      "duration": 0.5,
      "velocity": 0.71,
      "hand": "right"
    },
    {
      "midi": 51,
      "time": 569.75,
      "duration": 0.25,
      "velocity": 0.94,
      "hand": "left"
    },
    {
      "midi": 56,
      "time": 569.75,
      "duration": 0.25,
      "velocity": 0.94,
      "hand": "left"
    },
    {
      "midi": 37,
      "time": 570,
      "duration": 0.5,
      "velocity": 0.94,
      "hand": "left"
    },
    {
      "midi": 65,
      "time": 570,
      "duration": 0.5,
      "velocity": 0.71,
      "hand": "right"
    },
    {
      "midi": 73,
      "time": 570,
      "duration": 0.5,
      "velocity": 0.71,
      "hand": "right"
    },
    {
      "midi": 77,
      "time": 570,
      "duration": 0.5,
      "velocity": 0.71,
      "hand": "right"
    },
    {
      "midi": 44,
      "time": 570.5,
      "duration": 0.25,
      "velocity": 0.94,
      "hand": "left"
    },
    {
      "midi": 49,
      "time": 570.5,
      "duration": 0.25,
      "velocity": 0.94,
      "hand": "left"
    },
    {
      "midi": 49,
      "time": 570.75,
      "duration": 0.25,
      "velocity": 0.94,
      "hand": "left"
    },
    {
      "midi": 56,
      "time": 570.75,
      "duration": 0.25,
      "velocity": 0.94,
      "hand": "left"
    },
    {
      "midi": 65,
      "time": 570.75,
      "duration": 0.25,
      "velocity": 0.71,
      "hand": "right"
    },
    {
      "midi": 68,
      "time": 570.75,
      "duration": 0.25,
      "velocity": 0.71,
      "hand": "right"
    },
    {
      "midi": 61,
      "time": 571,
      "duration": 0.25,
      "velocity": 0.94,
      "hand": "right"
    },
    {
      "midi": 77,
      "time": 571,
      "duration": 0.25,
      "velocity": 0.71,
      "hand": "right"
    },
    {
      "midi": 61,
      "time": 571.25,
      "duration": 0.25,
      "velocity": 0.94,
      "hand": "right"
    },
    {
      "midi": 68,
      "time": 571.25,
      "duration": 0.25,
      "velocity": 0.94,
      "hand": "right"
    },
    {
      "midi": 77,
      "time": 571.25,
      "duration": 0.25,
      "velocity": 0.71,
      "hand": "right"
    },
    {
      "midi": 80,
      "time": 571.25,
      "duration": 0.25,
      "velocity": 0.71,
      "hand": "right"
    },
    {
      "midi": 73,
      "time": 571.5,
      "duration": 0.25,
      "velocity": 0.94,
      "hand": "right"
    },
    {
      "midi": 89,
      "time": 571.5,
      "duration": 0.25,
      "velocity": 0.71,
      "hand": "right"
    },
    {
      "midi": 61,
      "time": 571.75,
      "duration": 0.25,
      "velocity": 0.94,
      "hand": "right"
    },
    {
      "midi": 68,
      "time": 571.75,
      "duration": 0.25,
      "velocity": 0.94,
      "hand": "right"
    },
    {
      "midi": 77,
      "time": 571.75,
      "duration": 0.25,
      "velocity": 0.71,
      "hand": "right"
    },
    {
      "midi": 80,
      "time": 571.75,
      "duration": 0.25,
      "velocity": 0.71,
      "hand": "right"
    },
    {
      "midi": 61,
      "time": 572,
      "duration": 0.25,
      "velocity": 0.94,
      "hand": "right"
    },
    {
      "midi": 77,
      "time": 572,
      "duration": 0.25,
      "velocity": 0.71,
      "hand": "right"
    },
    {
      "midi": 49,
      "time": 572.25,
      "duration": 0.25,
      "velocity": 0.94,
      "hand": "left"
    },
    {
      "midi": 56,
      "time": 572.25,
      "duration": 0.25,
      "velocity": 0.94,
      "hand": "left"
    },
    {
      "midi": 65,
      "time": 572.25,
      "duration": 0.25,
      "velocity": 0.71,
      "hand": "right"
    },
    {
      "midi": 68,
      "time": 572.25,
      "duration": 0.25,
      "velocity": 0.71,
      "hand": "right"
    },
    {
      "midi": 49,
      "time": 572.5,
      "duration": 0.25,
      "velocity": 0.94,
      "hand": "left"
    },
    {
      "midi": 65,
      "time": 572.5,
      "duration": 0.25,
      "velocity": 0.71,
      "hand": "right"
    },
    {
      "midi": 37,
      "time": 572.75,
      "duration": 0.25,
      "velocity": 0.94,
      "hand": "left"
    },
    {
      "midi": 44,
      "time": 572.75,
      "duration": 0.25,
      "velocity": 0.94,
      "hand": "left"
    },
    {
      "midi": 53,
      "time": 572.75,
      "duration": 0.25,
      "velocity": 0.71,
      "hand": "left"
    },
    {
      "midi": 56,
      "time": 572.75,
      "duration": 0.25,
      "velocity": 0.71,
      "hand": "left"
    },
    {
      "midi": 37,
      "time": 573,
      "duration": 0.5,
      "velocity": 0.94,
      "hand": "left"
    },
    {
      "midi": 65,
      "time": 573,
      "duration": 0.25,
      "velocity": 0.71,
      "hand": "right"
    },
    {
      "midi": 53,
      "time": 573.25,
      "duration": 0.25,
      "velocity": 0.71,
      "hand": "left"
    },
    {
      "midi": 57,
      "time": 573.25,
      "duration": 0.25,
      "velocity": 0.71,
      "hand": "left"
    },
    {
      "midi": 45,
      "time": 573.5,
      "duration": 0.25,
      "velocity": 0.94,
      "hand": "left"
    },
    {
      "midi": 49,
      "time": 573.5,
      "duration": 0.25,
      "velocity": 0.94,
      "hand": "left"
    },
    {
      "midi": 65,
      "time": 573.5,
      "duration": 0.25,
      "velocity": 0.71,
      "hand": "right"
    },
    {
      "midi": 49,
      "time": 573.75,
      "duration": 0.25,
      "velocity": 0.94,
      "hand": "left"
    },
    {
      "midi": 57,
      "time": 573.75,
      "duration": 0.25,
      "velocity": 0.94,
      "hand": "left"
    },
    {
      "midi": 65,
      "time": 573.75,
      "duration": 0.25,
      "velocity": 0.71,
      "hand": "right"
    },
    {
      "midi": 69,
      "time": 573.75,
      "duration": 0.25,
      "velocity": 0.71,
      "hand": "right"
    },
    {
      "midi": 61,
      "time": 574,
      "duration": 0.25,
      "velocity": 0.94,
      "hand": "right"
    },
    {
      "midi": 77,
      "time": 574,
      "duration": 0.25,
      "velocity": 0.71,
      "hand": "right"
    },
    {
      "midi": 61,
      "time": 574.25,
      "duration": 0.25,
      "velocity": 0.94,
      "hand": "right"
    },
    {
      "midi": 69,
      "time": 574.25,
      "duration": 0.25,
      "velocity": 0.94,
      "hand": "right"
    },
    {
      "midi": 77,
      "time": 574.25,
      "duration": 0.25,
      "velocity": 0.71,
      "hand": "right"
    },
    {
      "midi": 81,
      "time": 574.25,
      "duration": 0.25,
      "velocity": 0.71,
      "hand": "right"
    },
    {
      "midi": 73,
      "time": 574.5,
      "duration": 0.25,
      "velocity": 0.94,
      "hand": "right"
    },
    {
      "midi": 89,
      "time": 574.5,
      "duration": 0.25,
      "velocity": 0.71,
      "hand": "right"
    },
    {
      "midi": 61,
      "time": 574.75,
      "duration": 0.25,
      "velocity": 0.94,
      "hand": "right"
    },
    {
      "midi": 69,
      "time": 574.75,
      "duration": 0.25,
      "velocity": 0.94,
      "hand": "right"
    },
    {
      "midi": 77,
      "time": 574.75,
      "duration": 0.25,
      "velocity": 0.71,
      "hand": "right"
    },
    {
      "midi": 81,
      "time": 574.75,
      "duration": 0.25,
      "velocity": 0.71,
      "hand": "right"
    },
    {
      "midi": 61,
      "time": 575,
      "duration": 0.25,
      "velocity": 0.94,
      "hand": "right"
    },
    {
      "midi": 77,
      "time": 575,
      "duration": 0.25,
      "velocity": 0.71,
      "hand": "right"
    },
    {
      "midi": 49,
      "time": 575.25,
      "duration": 0.25,
      "velocity": 0.94,
      "hand": "left"
    },
    {
      "midi": 57,
      "time": 575.25,
      "duration": 0.25,
      "velocity": 0.94,
      "hand": "left"
    },
    {
      "midi": 65,
      "time": 575.25,
      "duration": 0.25,
      "velocity": 0.71,
      "hand": "right"
    },
    {
      "midi": 69,
      "time": 575.25,
      "duration": 0.25,
      "velocity": 0.71,
      "hand": "right"
    },
    {
      "midi": 49,
      "time": 575.5,
      "duration": 0.25,
      "velocity": 0.94,
      "hand": "left"
    },
    {
      "midi": 65,
      "time": 575.5,
      "duration": 0.25,
      "velocity": 0.71,
      "hand": "right"
    },
    {
      "midi": 37,
      "time": 575.75,
      "duration": 0.25,
      "velocity": 0.94,
      "hand": "left"
    },
    {
      "midi": 45,
      "time": 575.75,
      "duration": 0.25,
      "velocity": 0.94,
      "hand": "left"
    },
    {
      "midi": 53,
      "time": 575.75,
      "duration": 0.25,
      "velocity": 0.71,
      "hand": "left"
    },
    {
      "midi": 57,
      "time": 575.75,
      "duration": 0.25,
      "velocity": 0.71,
      "hand": "left"
    },
    {
      "midi": 37,
      "time": 576,
      "duration": 0.5,
      "velocity": 0.94,
      "hand": "left"
    },
    {
      "midi": 65,
      "time": 576,
      "duration": 0.25,
      "velocity": 0.71,
      "hand": "right"
    },
    {
      "midi": 53,
      "time": 576.25,
      "duration": 0.25,
      "velocity": 0.71,
      "hand": "left"
    },
    {
      "midi": 58,
      "time": 576.25,
      "duration": 0.25,
      "velocity": 0.71,
      "hand": "left"
    },
    {
      "midi": 46,
      "time": 576.5,
      "duration": 0.25,
      "velocity": 0.94,
      "hand": "left"
    },
    {
      "midi": 49,
      "time": 576.5,
      "duration": 0.25,
      "velocity": 0.94,
      "hand": "left"
    },
    {
      "midi": 65,
      "time": 576.5,
      "duration": 0.25,
      "velocity": 0.71,
      "hand": "right"
    },
    {
      "midi": 49,
      "time": 576.75,
      "duration": 0.25,
      "velocity": 0.94,
      "hand": "left"
    },
    {
      "midi": 58,
      "time": 576.75,
      "duration": 0.25,
      "velocity": 0.94,
      "hand": "left"
    },
    {
      "midi": 65,
      "time": 576.75,
      "duration": 0.25,
      "velocity": 0.71,
      "hand": "right"
    },
    {
      "midi": 70,
      "time": 576.75,
      "duration": 0.25,
      "velocity": 0.71,
      "hand": "right"
    },
    {
      "midi": 61,
      "time": 577,
      "duration": 0.25,
      "velocity": 0.94,
      "hand": "right"
    },
    {
      "midi": 77,
      "time": 577,
      "duration": 0.25,
      "velocity": 0.71,
      "hand": "right"
    },
    {
      "midi": 61,
      "time": 577.25,
      "duration": 0.25,
      "velocity": 0.94,
      "hand": "right"
    },
    {
      "midi": 70,
      "time": 577.25,
      "duration": 0.25,
      "velocity": 0.94,
      "hand": "right"
    },
    {
      "midi": 77,
      "time": 577.25,
      "duration": 0.25,
      "velocity": 0.71,
      "hand": "right"
    },
    {
      "midi": 82,
      "time": 577.25,
      "duration": 0.25,
      "velocity": 0.71,
      "hand": "right"
    },
    {
      "midi": 73,
      "time": 577.5,
      "duration": 0.25,
      "velocity": 0.94,
      "hand": "right"
    },
    {
      "midi": 89,
      "time": 577.5,
      "duration": 0.25,
      "velocity": 0.71,
      "hand": "right"
    },
    {
      "midi": 61,
      "time": 577.75,
      "duration": 0.25,
      "velocity": 0.94,
      "hand": "right"
    },
    {
      "midi": 70,
      "time": 577.75,
      "duration": 0.25,
      "velocity": 0.94,
      "hand": "right"
    },
    {
      "midi": 77,
      "time": 577.75,
      "duration": 0.25,
      "velocity": 0.71,
      "hand": "right"
    },
    {
      "midi": 82,
      "time": 577.75,
      "duration": 0.25,
      "velocity": 0.71,
      "hand": "right"
    },
    {
      "midi": 61,
      "time": 578,
      "duration": 0.25,
      "velocity": 0.94,
      "hand": "right"
    },
    {
      "midi": 77,
      "time": 578,
      "duration": 0.25,
      "velocity": 0.71,
      "hand": "right"
    },
    {
      "midi": 49,
      "time": 578.25,
      "duration": 0.25,
      "velocity": 0.94,
      "hand": "left"
    },
    {
      "midi": 58,
      "time": 578.25,
      "duration": 0.25,
      "velocity": 0.94,
      "hand": "left"
    },
    {
      "midi": 65,
      "time": 578.25,
      "duration": 0.25,
      "velocity": 0.71,
      "hand": "right"
    },
    {
      "midi": 70,
      "time": 578.25,
      "duration": 0.25,
      "velocity": 0.71,
      "hand": "right"
    },
    {
      "midi": 49,
      "time": 578.5,
      "duration": 0.25,
      "velocity": 0.94,
      "hand": "left"
    },
    {
      "midi": 65,
      "time": 578.5,
      "duration": 0.25,
      "velocity": 0.71,
      "hand": "right"
    },
    {
      "midi": 37,
      "time": 578.75,
      "duration": 0.25,
      "velocity": 0.94,
      "hand": "left"
    },
    {
      "midi": 46,
      "time": 578.75,
      "duration": 0.25,
      "velocity": 0.94,
      "hand": "left"
    },
    {
      "midi": 53,
      "time": 578.75,
      "duration": 0.25,
      "velocity": 0.71,
      "hand": "left"
    },
    {
      "midi": 58,
      "time": 578.75,
      "duration": 0.25,
      "velocity": 0.71,
      "hand": "left"
    },
    {
      "midi": 37,
      "time": 579,
      "duration": 0.5,
      "velocity": 0.94,
      "hand": "left"
    },
    {
      "midi": 67,
      "time": 579,
      "duration": 0.25,
      "velocity": 0.71,
      "hand": "right"
    },
    {
      "midi": 53,
      "time": 579.25,
      "duration": 0.25,
      "velocity": 0.71,
      "hand": "left"
    },
    {
      "midi": 59,
      "time": 579.25,
      "duration": 0.25,
      "velocity": 0.71,
      "hand": "left"
    },
    {
      "midi": 43,
      "time": 579.5,
      "duration": 0.25,
      "velocity": 0.94,
      "hand": "left"
    },
    {
      "midi": 49,
      "time": 579.5,
      "duration": 0.25,
      "velocity": 0.94,
      "hand": "left"
    },
    {
      "midi": 67,
      "time": 579.5,
      "duration": 0.25,
      "velocity": 0.71,
      "hand": "right"
    },
    {
      "midi": 49,
      "time": 579.75,
      "duration": 0.25,
      "velocity": 0.94,
      "hand": "left"
    },
    {
      "midi": 55,
      "time": 579.75,
      "duration": 0.25,
      "velocity": 0.94,
      "hand": "left"
    },
    {
      "midi": 65,
      "time": 579.75,
      "duration": 0.25,
      "velocity": 0.71,
      "hand": "right"
    },
    {
      "midi": 71,
      "time": 579.75,
      "duration": 0.25,
      "velocity": 0.71,
      "hand": "right"
    },
    {
      "midi": 61,
      "time": 580,
      "duration": 0.25,
      "velocity": 0.94,
      "hand": "right"
    },
    {
      "midi": 79,
      "time": 580,
      "duration": 0.25,
      "velocity": 0.71,
      "hand": "right"
    },
    {
      "midi": 61,
      "time": 580.25,
      "duration": 0.25,
      "velocity": 0.94,
      "hand": "right"
    },
    {
      "midi": 67,
      "time": 580.25,
      "duration": 0.25,
      "velocity": 0.94,
      "hand": "right"
    },
    {
      "midi": 77,
      "time": 580.25,
      "duration": 0.25,
      "velocity": 0.71,
      "hand": "right"
    },
    {
      "midi": 83,
      "time": 580.25,
      "duration": 0.25,
      "velocity": 0.71,
      "hand": "right"
    },
    {
      "midi": 73,
      "time": 580.5,
      "duration": 0.25,
      "velocity": 0.94,
      "hand": "right"
    },
    {
      "midi": 91,
      "time": 580.5,
      "duration": 0.25,
      "velocity": 0.71,
      "hand": "right"
    },
    {
      "midi": 61,
      "time": 580.75,
      "duration": 0.25,
      "velocity": 0.94,
      "hand": "right"
    },
    {
      "midi": 67,
      "time": 580.75,
      "duration": 0.25,
      "velocity": 0.94,
      "hand": "right"
    },
    {
      "midi": 77,
      "time": 580.75,
      "duration": 0.25,
      "velocity": 0.71,
      "hand": "right"
    },
    {
      "midi": 83,
      "time": 580.75,
      "duration": 0.25,
      "velocity": 0.71,
      "hand": "right"
    },
    {
      "midi": 61,
      "time": 581,
      "duration": 0.25,
      "velocity": 0.94,
      "hand": "right"
    },
    {
      "midi": 79,
      "time": 581,
      "duration": 0.25,
      "velocity": 0.71,
      "hand": "right"
    },
    {
      "midi": 49,
      "time": 581.25,
      "duration": 0.25,
      "velocity": 0.94,
      "hand": "left"
    },
    {
      "midi": 55,
      "time": 581.25,
      "duration": 0.25,
      "velocity": 0.94,
      "hand": "left"
    },
    {
      "midi": 65,
      "time": 581.25,
      "duration": 0.25,
      "velocity": 0.71,
      "hand": "right"
    },
    {
      "midi": 71,
      "time": 581.25,
      "duration": 0.25,
      "velocity": 0.71,
      "hand": "right"
    },
    {
      "midi": 49,
      "time": 581.5,
      "duration": 0.25,
      "velocity": 0.94,
      "hand": "left"
    },
    {
      "midi": 67,
      "time": 581.5,
      "duration": 0.25,
      "velocity": 0.71,
      "hand": "right"
    },
    {
      "midi": 37,
      "time": 581.75,
      "duration": 0.25,
      "velocity": 0.94,
      "hand": "left"
    },
    {
      "midi": 43,
      "time": 581.75,
      "duration": 0.25,
      "velocity": 0.94,
      "hand": "left"
    },
    {
      "midi": 53,
      "time": 581.75,
      "duration": 0.25,
      "velocity": 0.71,
      "hand": "left"
    },
    {
      "midi": 59,
      "time": 581.75,
      "duration": 0.25,
      "velocity": 0.71,
      "hand": "left"
    },
    {
      "midi": 36,
      "time": 582,
      "duration": 0.5,
      "velocity": 0.94,
      "hand": "left"
    },
    {
      "midi": 48,
      "time": 582,
      "duration": 0.5,
      "velocity": 0.94,
      "hand": "left"
    },
    {
      "midi": 56,
      "time": 582,
      "duration": 0.5,
      "velocity": 0.71,
      "hand": "left"
    },
    {
      "midi": 60,
      "time": 582,
      "duration": 0.5,
      "velocity": 0.71,
      "hand": "right"
    },
    {
      "midi": 65,
      "time": 582,
      "duration": 0.5,
      "velocity": 0.71,
      "hand": "right"
    },
    {
      "midi": 68,
      "time": 582,
      "duration": 0.5,
      "velocity": 0.71,
      "hand": "right"
    },
    {
      "midi": 36,
      "time": 582.5,
      "duration": 0.5,
      "velocity": 0.8,
      "hand": "left"
    },
    {
      "midi": 48,
      "time": 582.75,
      "duration": 0.25,
      "velocity": 0.8,
      "hand": "left"
    },
    {
      "midi": 53,
      "time": 582.75,
      "duration": 0.25,
      "velocity": 0.8,
      "hand": "left"
    },
    {
      "midi": 41,
      "time": 583,
      "duration": 0.25,
      "velocity": 0.8,
      "hand": "left"
    },
    {
      "midi": 44,
      "time": 583,
      "duration": 0.25,
      "velocity": 0.8,
      "hand": "left"
    },
    {
      "midi": 56,
      "time": 583,
      "duration": 0.25,
      "velocity": 0.8,
      "hand": "left"
    },
    {
      "midi": 47,
      "time": 583.25,
      "duration": 0.25,
      "velocity": 0.8,
      "hand": "left"
    },
    {
      "midi": 48,
      "time": 583.25,
      "duration": 0.25,
      "velocity": 0.8,
      "hand": "left"
    },
    {
      "midi": 59,
      "time": 583.25,
      "duration": 0.25,
      "velocity": 0.8,
      "hand": "left"
    },
    {
      "midi": 60,
      "time": 583.25,
      "duration": 0.25,
      "velocity": 0.8,
      "hand": "right"
    },
    {
      "midi": 53,
      "time": 583.5,
      "duration": 0.25,
      "velocity": 0.8,
      "hand": "left"
    },
    {
      "midi": 65,
      "time": 583.5,
      "duration": 0.25,
      "velocity": 0.71,
      "hand": "right"
    },
    {
      "midi": 56,
      "time": 583.75,
      "duration": 0.25,
      "velocity": 0.8,
      "hand": "left"
    },
    {
      "midi": 59,
      "time": 583.75,
      "duration": 0.25,
      "velocity": 0.8,
      "hand": "left"
    },
    {
      "midi": 68,
      "time": 583.75,
      "duration": 0.25,
      "velocity": 0.71,
      "hand": "right"
    },
    {
      "midi": 71,
      "time": 583.75,
      "duration": 0.25,
      "velocity": 0.71,
      "hand": "right"
    },
    {
      "midi": 60,
      "time": 584,
      "duration": 0.25,
      "velocity": 0.8,
      "hand": "right"
    },
    {
      "midi": 72,
      "time": 584,
      "duration": 0.25,
      "velocity": 0.71,
      "hand": "right"
    },
    {
      "midi": 65,
      "time": 584.25,
      "duration": 0.25,
      "velocity": 0.8,
      "hand": "right"
    },
    {
      "midi": 68,
      "time": 584.25,
      "duration": 0.25,
      "velocity": 0.8,
      "hand": "right"
    },
    {
      "midi": 77,
      "time": 584.25,
      "duration": 0.25,
      "velocity": 0.71,
      "hand": "right"
    },
    {
      "midi": 80,
      "time": 584.25,
      "duration": 0.25,
      "velocity": 0.71,
      "hand": "right"
    },
    {
      "midi": 71,
      "time": 584.5,
      "duration": 0.25,
      "velocity": 0.8,
      "hand": "right"
    },
    {
      "midi": 83,
      "time": 584.5,
      "duration": 0.25,
      "velocity": 0.71,
      "hand": "right"
    },
    {
      "midi": 72,
      "time": 584.75,
      "duration": 0.25,
      "velocity": 0.8,
      "hand": "right"
    },
    {
      "midi": 77,
      "time": 584.75,
      "duration": 0.25,
      "velocity": 0.8,
      "hand": "right"
    },
    {
      "midi": 84,
      "time": 584.75,
      "duration": 0.25,
      "velocity": 0.71,
      "hand": "right"
    },
    {
      "midi": 89,
      "time": 584.75,
      "duration": 0.25,
      "velocity": 0.71,
      "hand": "right"
    },
    {
      "midi": 80,
      "time": 585,
      "duration": 0.5,
      "velocity": 0.8,
      "hand": "right"
    },
    {
      "midi": 92,
      "time": 585,
      "duration": 0.5,
      "velocity": 0.71,
      "hand": "right"
    },
    {
      "midi": 49,
      "time": 585.5,
      "duration": 0.5,
      "velocity": 0.8,
      "hand": "left"
    },
    {
      "midi": 56,
      "time": 585.5,
      "duration": 0.5,
      "velocity": 0.8,
      "hand": "left"
    },
    {
      "midi": 61,
      "time": 585.5,
      "duration": 0.5,
      "velocity": 0.8,
      "hand": "right"
    },
    {
      "midi": 65,
      "time": 585.5,
      "duration": 0.5,
      "velocity": 0.71,
      "hand": "right"
    },
    {
      "midi": 68,
      "time": 585.5,
      "duration": 0.5,
      "velocity": 0.71,
      "hand": "right"
    },
    {
      "midi": 73,
      "time": 585.5,
      "duration": 0.5,
      "velocity": 0.71,
      "hand": "right"
    },
    {
      "midi": 77,
      "time": 585.5,
      "duration": 0.5,
      "velocity": 0.71,
      "hand": "right"
    },
    {
      "midi": 47,
      "time": 586,
      "duration": 0.5,
      "velocity": 0.8,
      "hand": "left"
    },
    {
      "midi": 53,
      "time": 586,
      "duration": 0.5,
      "velocity": 0.8,
      "hand": "left"
    },
    {
      "midi": 56,
      "time": 586,
      "duration": 0.5,
      "velocity": 0.8,
      "hand": "left"
    },
    {
      "midi": 59,
      "time": 586,
      "duration": 0.5,
      "velocity": 0.8,
      "hand": "left"
    },
    {
      "midi": 61,
      "time": 586,
      "duration": 0.5,
      "velocity": 0.71,
      "hand": "right"
    },
    {
      "midi": 68,
      "time": 586,
      "duration": 0.5,
      "velocity": 0.71,
      "hand": "right"
    },
    {
      "midi": 73,
      "time": 586,
      "duration": 0.5,
      "velocity": 0.71,
      "hand": "right"
    },
    {
      "midi": 46,
      "time": 586.5,
      "duration": 0.5,
      "velocity": 0.8,
      "hand": "left"
    },
    {
      "midi": 49,
      "time": 586.5,
      "duration": 0.5,
      "velocity": 0.8,
      "hand": "left"
    },
    {
      "midi": 54,
      "time": 586.5,
      "duration": 0.5,
      "velocity": 0.8,
      "hand": "left"
    },
    {
      "midi": 58,
      "time": 586.5,
      "duration": 0.5,
      "velocity": 0.8,
      "hand": "left"
    },
    {
      "midi": 66,
      "time": 586.5,
      "duration": 0.5,
      "velocity": 0.71,
      "hand": "right"
    },
    {
      "midi": 73,
      "time": 586.5,
      "duration": 0.5,
      "velocity": 0.71,
      "hand": "right"
    },
    {
      "midi": 78,
      "time": 586.5,
      "duration": 0.5,
      "velocity": 0.71,
      "hand": "right"
    },
    {
      "midi": 48,
      "time": 587,
      "duration": 0.5,
      "velocity": 0.8,
      "hand": "left"
    },
    {
      "midi": 55,
      "time": 587,
      "duration": 0.5,
      "velocity": 0.8,
      "hand": "left"
    },
    {
      "midi": 60,
      "time": 587,
      "duration": 0.5,
      "velocity": 0.8,
      "hand": "right"
    },
    {
      "midi": 64,
      "time": 587,
      "duration": 0.5,
      "velocity": 0.71,
      "hand": "right"
    },
    {
      "midi": 67,
      "time": 587,
      "duration": 0.5,
      "velocity": 0.71,
      "hand": "right"
    },
    {
      "midi": 72,
      "time": 587,
      "duration": 0.5,
      "velocity": 0.71,
      "hand": "right"
    },
    {
      "midi": 76,
      "time": 587,
      "duration": 0.5,
      "velocity": 0.71,
      "hand": "right"
    },
    {
      "midi": 46,
      "time": 587.5,
      "duration": 0.5,
      "velocity": 0.8,
      "hand": "left"
    },
    {
      "midi": 52,
      "time": 587.5,
      "duration": 0.5,
      "velocity": 0.8,
      "hand": "left"
    },
    {
      "midi": 55,
      "time": 587.5,
      "duration": 0.5,
      "velocity": 0.8,
      "hand": "left"
    },
    {
      "midi": 58,
      "time": 587.5,
      "duration": 0.5,
      "velocity": 0.8,
      "hand": "left"
    },
    {
      "midi": 72,
      "time": 587.5,
      "duration": 0.5,
      "velocity": 0.71,
      "hand": "right"
    },
    {
      "midi": 79,
      "time": 587.5,
      "duration": 0.5,
      "velocity": 0.71,
      "hand": "right"
    },
    {
      "midi": 84,
      "time": 587.5,
      "duration": 0.5,
      "velocity": 0.71,
      "hand": "right"
    },
    {
      "midi": 44,
      "time": 588,
      "duration": 0.5,
      "velocity": 0.8,
      "hand": "left"
    },
    {
      "midi": 53,
      "time": 588,
      "duration": 0.5,
      "velocity": 0.8,
      "hand": "left"
    },
    {
      "midi": 56,
      "time": 588,
      "duration": 0.5,
      "velocity": 0.8,
      "hand": "left"
    },
    {
      "midi": 72,
      "time": 588,
      "duration": 0.5,
      "velocity": 0.71,
      "hand": "right"
    },
    {
      "midi": 77,
      "time": 588,
      "duration": 0.5,
      "velocity": 0.71,
      "hand": "right"
    },
    {
      "midi": 84,
      "time": 588,
      "duration": 0.5,
      "velocity": 0.71,
      "hand": "right"
    },
    {
      "midi": 36,
      "time": 588.5,
      "duration": 0.5,
      "velocity": 0.8,
      "hand": "left"
    },
    {
      "midi": 48,
      "time": 588.75,
      "duration": 0.25,
      "velocity": 0.8,
      "hand": "left"
    },
    {
      "midi": 53,
      "time": 588.75,
      "duration": 0.25,
      "velocity": 0.8,
      "hand": "left"
    },
    {
      "midi": 41,
      "time": 589,
      "duration": 0.25,
      "velocity": 0.8,
      "hand": "left"
    },
    {
      "midi": 44,
      "time": 589,
      "duration": 0.25,
      "velocity": 0.8,
      "hand": "left"
    },
    {
      "midi": 56,
      "time": 589,
      "duration": 0.25,
      "velocity": 0.8,
      "hand": "left"
    },
    {
      "midi": 47,
      "time": 589.25,
      "duration": 0.25,
      "velocity": 0.8,
      "hand": "left"
    },
    {
      "midi": 48,
      "time": 589.25,
      "duration": 0.25,
      "velocity": 0.8,
      "hand": "left"
    },
    {
      "midi": 59,
      "time": 589.25,
      "duration": 0.25,
      "velocity": 0.8,
      "hand": "left"
    },
    {
      "midi": 60,
      "time": 589.25,
      "duration": 0.25,
      "velocity": 0.8,
      "hand": "right"
    },
    {
      "midi": 53,
      "time": 589.5,
      "duration": 0.25,
      "velocity": 0.8,
      "hand": "left"
    },
    {
      "midi": 65,
      "time": 589.5,
      "duration": 0.25,
      "velocity": 0.71,
      "hand": "right"
    },
    {
      "midi": 56,
      "time": 589.75,
      "duration": 0.25,
      "velocity": 0.8,
      "hand": "left"
    },
    {
      "midi": 59,
      "time": 589.75,
      "duration": 0.25,
      "velocity": 0.8,
      "hand": "left"
    },
    {
      "midi": 68,
      "time": 589.75,
      "duration": 0.25,
      "velocity": 0.71,
      "hand": "right"
    },
    {
      "midi": 71,
      "time": 589.75,
      "duration": 0.25,
      "velocity": 0.71,
      "hand": "right"
    },
    {
      "midi": 60,
      "time": 590,
      "duration": 0.25,
      "velocity": 0.8,
      "hand": "right"
    },
    {
      "midi": 72,
      "time": 590,
      "duration": 0.25,
      "velocity": 0.71,
      "hand": "right"
    },
    {
      "midi": 65,
      "time": 590.25,
      "duration": 0.25,
      "velocity": 0.8,
      "hand": "right"
    },
    {
      "midi": 68,
      "time": 590.25,
      "duration": 0.25,
      "velocity": 0.8,
      "hand": "right"
    },
    {
      "midi": 77,
      "time": 590.25,
      "duration": 0.25,
      "velocity": 0.71,
      "hand": "right"
    },
    {
      "midi": 80,
      "time": 590.25,
      "duration": 0.25,
      "velocity": 0.71,
      "hand": "right"
    },
    {
      "midi": 71,
      "time": 590.5,
      "duration": 0.25,
      "velocity": 0.8,
      "hand": "right"
    },
    {
      "midi": 83,
      "time": 590.5,
      "duration": 0.25,
      "velocity": 0.71,
      "hand": "right"
    },
    {
      "midi": 72,
      "time": 590.75,
      "duration": 0.25,
      "velocity": 0.8,
      "hand": "right"
    },
    {
      "midi": 77,
      "time": 590.75,
      "duration": 0.25,
      "velocity": 0.8,
      "hand": "right"
    },
    {
      "midi": 84,
      "time": 590.75,
      "duration": 0.25,
      "velocity": 0.71,
      "hand": "right"
    },
    {
      "midi": 89,
      "time": 590.75,
      "duration": 0.25,
      "velocity": 0.71,
      "hand": "right"
    },
    {
      "midi": 80,
      "time": 591,
      "duration": 0.5,
      "velocity": 0.8,
      "hand": "right"
    },
    {
      "midi": 92,
      "time": 591,
      "duration": 0.5,
      "velocity": 0.71,
      "hand": "right"
    },
    {
      "midi": 49,
      "time": 591.5,
      "duration": 0.5,
      "velocity": 0.8,
      "hand": "left"
    },
    {
      "midi": 56,
      "time": 591.5,
      "duration": 0.5,
      "velocity": 0.8,
      "hand": "left"
    },
    {
      "midi": 61,
      "time": 591.5,
      "duration": 0.5,
      "velocity": 0.8,
      "hand": "right"
    },
    {
      "midi": 65,
      "time": 591.5,
      "duration": 0.5,
      "velocity": 0.71,
      "hand": "right"
    },
    {
      "midi": 68,
      "time": 591.5,
      "duration": 0.5,
      "velocity": 0.71,
      "hand": "right"
    },
    {
      "midi": 73,
      "time": 591.5,
      "duration": 0.5,
      "velocity": 0.71,
      "hand": "right"
    },
    {
      "midi": 77,
      "time": 591.5,
      "duration": 0.5,
      "velocity": 0.71,
      "hand": "right"
    },
    {
      "midi": 35,
      "time": 592,
      "duration": 0.5,
      "velocity": 0.8,
      "hand": "left"
    },
    {
      "midi": 47,
      "time": 592,
      "duration": 0.5,
      "velocity": 0.8,
      "hand": "left"
    },
    {
      "midi": 53,
      "time": 592,
      "duration": 0.5,
      "velocity": 0.71,
      "hand": "left"
    },
    {
      "midi": 56,
      "time": 592,
      "duration": 0.5,
      "velocity": 0.71,
      "hand": "left"
    },
    {
      "midi": 61,
      "time": 592,
      "duration": 0.5,
      "velocity": 0.71,
      "hand": "right"
    },
    {
      "midi": 65,
      "time": 592,
      "duration": 0.5,
      "velocity": 0.71,
      "hand": "right"
    },
    {
      "midi": 34,
      "time": 592.5,
      "duration": 0.5,
      "velocity": 0.8,
      "hand": "left"
    },
    {
      "midi": 46,
      "time": 592.5,
      "duration": 0.5,
      "velocity": 0.8,
      "hand": "left"
    },
    {
      "midi": 54,
      "time": 592.5,
      "duration": 0.5,
      "velocity": 0.71,
      "hand": "left"
    },
    {
      "midi": 61,
      "time": 592.5,
      "duration": 0.5,
      "velocity": 0.71,
      "hand": "right"
    },
    {
      "midi": 66,
      "time": 592.5,
      "duration": 0.5,
      "velocity": 0.71,
      "hand": "right"
    },
    {
      "midi": 36,
      "time": 593,
      "duration": 0.5,
      "velocity": 0.8,
      "hand": "left"
    },
    {
      "midi": 48,
      "time": 593,
      "duration": 0.5,
      "velocity": 0.8,
      "hand": "left"
    },
    {
      "midi": 55,
      "time": 593,
      "duration": 0.5,
      "velocity": 0.71,
      "hand": "left"
    },
    {
      "midi": 60,
      "time": 593,
      "duration": 0.5,
      "velocity": 0.71,
      "hand": "right"
    },
    {
      "midi": 64,
      "time": 593,
      "duration": 0.5,
      "velocity": 0.71,
      "hand": "right"
    },
    {
      "midi": 34,
      "time": 593.5,
      "duration": 0.5,
      "velocity": 0.8,
      "hand": "left"
    },
    {
      "midi": 46,
      "time": 593.5,
      "duration": 0.5,
      "velocity": 0.8,
      "hand": "left"
    },
    {
      "midi": 60,
      "time": 593.5,
      "duration": 0.5,
      "velocity": 0.71,
      "hand": "right"
    },
    {
      "midi": 67,
      "time": 593.5,
      "duration": 0.5,
      "velocity": 0.71,
      "hand": "right"
    },
    {
      "midi": 72,
      "time": 593.5,
      "duration": 0.5,
      "velocity": 0.71,
      "hand": "right"
    },
    {
      "midi": 32,
      "time": 594,
      "duration": 0.5,
      "velocity": 0.8,
      "hand": "left"
    },
    {
      "midi": 44,
      "time": 594,
      "duration": 0.5,
      "velocity": 0.8,
      "hand": "left"
    },
    {
      "midi": 60,
      "time": 594,
      "duration": 0.5,
      "velocity": 0.71,
      "hand": "right"
    },
    {
      "midi": 65,
      "time": 594,
      "duration": 0.5,
      "velocity": 0.71,
      "hand": "right"
    },
    {
      "midi": 72,
      "time": 594,
      "duration": 0.5,
      "velocity": 0.71,
      "hand": "right"
    },
    {
      "midi": 31,
      "time": 594.5,
      "duration": 0.5,
      "velocity": 0.8,
      "hand": "left"
    },
    {
      "midi": 43,
      "time": 594.5,
      "duration": 0.5,
      "velocity": 0.8,
      "hand": "left"
    },
    {
      "midi": 62,
      "time": 594.5,
      "duration": 0.5,
      "velocity": 0.71,
      "hand": "right"
    },
    {
      "midi": 65,
      "time": 594.5,
      "duration": 0.5,
      "velocity": 0.71,
      "hand": "right"
    },
    {
      "midi": 71,
      "time": 594.5,
      "duration": 0.5,
      "velocity": 0.71,
      "hand": "right"
    },
    {
      "midi": 74,
      "time": 594.5,
      "duration": 0.5,
      "velocity": 0.71,
      "hand": "right"
    },
    {
      "midi": 30,
      "time": 595,
      "duration": 0.5,
      "velocity": 0.8,
      "hand": "left"
    },
    {
      "midi": 42,
      "time": 595,
      "duration": 0.5,
      "velocity": 0.8,
      "hand": "left"
    },
    {
      "midi": 63,
      "time": 595,
      "duration": 0.5,
      "velocity": 0.71,
      "hand": "right"
    },
    {
      "midi": 66,
      "time": 595,
      "duration": 0.5,
      "velocity": 0.71,
      "hand": "right"
    },
    {
      "midi": 71,
      "time": 595,
      "duration": 0.5,
      "velocity": 0.71,
      "hand": "right"
    },
    {
      "midi": 75,
      "time": 595,
      "duration": 0.5,
      "velocity": 0.71,
      "hand": "right"
    },
    {
      "midi": 28,
      "time": 595.5,
      "duration": 0.5,
      "velocity": 0.8,
      "hand": "left"
    },
    {
      "midi": 40,
      "time": 595.5,
      "duration": 0.5,
      "velocity": 0.8,
      "hand": "left"
    },
    {
      "midi": 66,
      "time": 595.5,
      "duration": 0.5,
      "velocity": 0.71,
      "hand": "right"
    },
    {
      "midi": 70,
      "time": 595.5,
      "duration": 0.5,
      "velocity": 0.71,
      "hand": "right"
    },
    {
      "midi": 73,
      "time": 595.5,
      "duration": 0.5,
      "velocity": 0.71,
      "hand": "right"
    },
    {
      "midi": 78,
      "time": 595.5,
      "duration": 0.5,
      "velocity": 0.71,
      "hand": "right"
    },
    {
      "midi": 27,
      "time": 596,
      "duration": 0.5,
      "velocity": 0.8,
      "hand": "left"
    },
    {
      "midi": 39,
      "time": 596,
      "duration": 0.5,
      "velocity": 0.8,
      "hand": "left"
    },
    {
      "midi": 71,
      "time": 596,
      "duration": 0.5,
      "velocity": 0.71,
      "hand": "right"
    },
    {
      "midi": 78,
      "time": 596,
      "duration": 0.5,
      "velocity": 0.71,
      "hand": "right"
    },
    {
      "midi": 83,
      "time": 596,
      "duration": 0.5,
      "velocity": 0.71,
      "hand": "right"
    },
    {
      "midi": 38,
      "time": 596.5,
      "duration": 0.5,
      "velocity": 0.8,
      "hand": "left"
    },
    {
      "midi": 50,
      "time": 596.5,
      "duration": 0.5,
      "velocity": 0.8,
      "hand": "left"
    },
    {
      "midi": 68,
      "time": 596.5,
      "duration": 0.5,
      "velocity": 0.71,
      "hand": "right"
    },
    {
      "midi": 71,
      "time": 596.5,
      "duration": 0.5,
      "velocity": 0.71,
      "hand": "right"
    },
    {
      "midi": 77,
      "time": 596.5,
      "duration": 0.5,
      "velocity": 0.71,
      "hand": "right"
    },
    {
      "midi": 80,
      "time": 596.5,
      "duration": 0.5,
      "velocity": 0.71,
      "hand": "right"
    },
    {
      "midi": 37,
      "time": 597,
      "duration": 0.5,
      "velocity": 0.8,
      "hand": "left"
    },
    {
      "midi": 49,
      "time": 597,
      "duration": 0.5,
      "velocity": 0.8,
      "hand": "left"
    },
    {
      "midi": 70,
      "time": 597,
      "duration": 0.5,
      "velocity": 0.71,
      "hand": "right"
    },
    {
      "midi": 73,
      "time": 597,
      "duration": 0.5,
      "velocity": 0.71,
      "hand": "right"
    },
    {
      "midi": 78,
      "time": 597,
      "duration": 0.5,
      "velocity": 0.71,
      "hand": "right"
    },
    {
      "midi": 82,
      "time": 597,
      "duration": 0.5,
      "velocity": 0.71,
      "hand": "right"
    },
    {
      "midi": 35,
      "time": 597.5,
      "duration": 0.5,
      "velocity": 0.8,
      "hand": "left"
    },
    {
      "midi": 47,
      "time": 597.5,
      "duration": 0.5,
      "velocity": 0.8,
      "hand": "left"
    },
    {
      "midi": 73,
      "time": 597.5,
      "duration": 0.5,
      "velocity": 0.71,
      "hand": "right"
    },
    {
      "midi": 77,
      "time": 597.5,
      "duration": 0.5,
      "velocity": 0.71,
      "hand": "right"
    },
    {
      "midi": 80,
      "time": 597.5,
      "duration": 0.5,
      "velocity": 0.71,
      "hand": "right"
    },
    {
      "midi": 85,
      "time": 597.5,
      "duration": 0.5,
      "velocity": 0.71,
      "hand": "right"
    },
    {
      "midi": 34,
      "time": 598,
      "duration": 0.5,
      "velocity": 0.8,
      "hand": "left"
    },
    {
      "midi": 46,
      "time": 598,
      "duration": 0.5,
      "velocity": 0.8,
      "hand": "left"
    },
    {
      "midi": 78,
      "time": 598,
      "duration": 0.5,
      "velocity": 0.71,
      "hand": "right"
    },
    {
      "midi": 85,
      "time": 598,
      "duration": 0.5,
      "velocity": 0.71,
      "hand": "right"
    },
    {
      "midi": 90,
      "time": 598,
      "duration": 0.5,
      "velocity": 0.71,
      "hand": "right"
    },
    {
      "midi": 33,
      "time": 598.5,
      "duration": 0.5,
      "velocity": 0.8,
      "hand": "left"
    },
    {
      "midi": 45,
      "time": 598.5,
      "duration": 0.5,
      "velocity": 0.8,
      "hand": "left"
    },
    {
      "midi": 76,
      "time": 598.5,
      "duration": 0.5,
      "velocity": 0.71,
      "hand": "right"
    },
    {
      "midi": 79,
      "time": 598.5,
      "duration": 0.5,
      "velocity": 0.71,
      "hand": "right"
    },
    {
      "midi": 85,
      "time": 598.5,
      "duration": 0.5,
      "velocity": 0.71,
      "hand": "right"
    },
    {
      "midi": 88,
      "time": 598.5,
      "duration": 0.5,
      "velocity": 0.71,
      "hand": "right"
    },
    {
      "midi": 32,
      "time": 599,
      "duration": 0.5,
      "velocity": 0.8,
      "hand": "left"
    },
    {
      "midi": 44,
      "time": 599,
      "duration": 0.5,
      "velocity": 0.8,
      "hand": "left"
    },
    {
      "midi": 77,
      "time": 599,
      "duration": 0.5,
      "velocity": 0.71,
      "hand": "right"
    },
    {
      "midi": 84,
      "time": 599,
      "duration": 0.5,
      "velocity": 0.71,
      "hand": "right"
    },
    {
      "midi": 89,
      "time": 599,
      "duration": 0.5,
      "velocity": 0.71,
      "hand": "right"
    },
    {
      "midi": 34,
      "time": 599.5,
      "duration": 0.5,
      "velocity": 0.8,
      "hand": "left"
    },
    {
      "midi": 46,
      "time": 599.5,
      "duration": 0.5,
      "velocity": 0.8,
      "hand": "left"
    },
    {
      "midi": 73,
      "time": 599.5,
      "duration": 0.5,
      "velocity": 0.71,
      "hand": "right"
    },
    {
      "midi": 77,
      "time": 599.5,
      "duration": 0.5,
      "velocity": 0.71,
      "hand": "right"
    },
    {
      "midi": 79,
      "time": 599.5,
      "duration": 0.5,
      "velocity": 0.71,
      "hand": "right"
    },
    {
      "midi": 85,
      "time": 599.5,
      "duration": 0.5,
      "velocity": 0.71,
      "hand": "right"
    },
    {
      "midi": 36,
      "time": 600,
      "duration": 0.5,
      "velocity": 0.8,
      "hand": "left"
    },
    {
      "midi": 48,
      "time": 600,
      "duration": 0.5,
      "velocity": 0.8,
      "hand": "left"
    },
    {
      "midi": 72,
      "time": 600,
      "duration": 0.5,
      "velocity": 0.71,
      "hand": "right"
    },
    {
      "midi": 77,
      "time": 600,
      "duration": 0.5,
      "velocity": 0.71,
      "hand": "right"
    },
    {
      "midi": 79,
      "time": 600,
      "duration": 0.5,
      "velocity": 0.71,
      "hand": "right"
    },
    {
      "midi": 84,
      "time": 600,
      "duration": 0.5,
      "velocity": 0.71,
      "hand": "right"
    },
    {
      "midi": 48,
      "time": 601.5,
      "duration": 0.5,
      "velocity": 0.8,
      "hand": "left"
    },
    {
      "midi": 60,
      "time": 601.5,
      "duration": 0.5,
      "velocity": 0.71,
      "hand": "right"
    },
    {
      "midi": 49,
      "time": 602,
      "duration": 0.5,
      "velocity": 0.8,
      "hand": "left"
    },
    {
      "midi": 61,
      "time": 602,
      "duration": 0.5,
      "velocity": 0.71,
      "hand": "right"
    },
    {
      "midi": 53,
      "time": 602.5,
      "duration": 0.5,
      "velocity": 0.8,
      "hand": "left"
    },
    {
      "midi": 65,
      "time": 602.5,
      "duration": 0.5,
      "velocity": 0.71,
      "hand": "right"
    },
    {
      "midi": 36,
      "time": 603,
      "duration": 0.5,
      "velocity": 0.8,
      "hand": "left"
    },
    {
      "midi": 48,
      "time": 603,
      "duration": 0.5,
      "velocity": 0.8,
      "hand": "left"
    },
    {
      "midi": 55,
      "time": 603,
      "duration": 0.5,
      "velocity": 0.71,
      "hand": "left"
    },
    {
      "midi": 60,
      "time": 603,
      "duration": 0.5,
      "velocity": 0.71,
      "hand": "right"
    },
    {
      "midi": 64,
      "time": 603,
      "duration": 0.5,
      "velocity": 0.71,
      "hand": "right"
    },
    {
      "midi": 67,
      "time": 603,
      "duration": 0.5,
      "velocity": 0.71,
      "hand": "right"
    },
    {
      "midi": 31,
      "time": 603.5,
      "duration": 0.5,
      "velocity": 0.8,
      "hand": "left"
    },
    {
      "midi": 43,
      "time": 603.5,
      "duration": 0.5,
      "velocity": 0.8,
      "hand": "left"
    },
    {
      "midi": 53,
      "time": 603.5,
      "duration": 0.5,
      "velocity": 0.71,
      "hand": "left"
    },
    {
      "midi": 55,
      "time": 603.5,
      "duration": 0.5,
      "velocity": 0.71,
      "hand": "left"
    },
    {
      "midi": 59,
      "time": 603.5,
      "duration": 0.5,
      "velocity": 0.71,
      "hand": "left"
    },
    {
      "midi": 62,
      "time": 603.5,
      "duration": 0.5,
      "velocity": 0.71,
      "hand": "right"
    },
    {
      "midi": 67,
      "time": 603.5,
      "duration": 0.5,
      "velocity": 0.71,
      "hand": "right"
    },
    {
      "midi": 24,
      "time": 604,
      "duration": 0.5,
      "velocity": 0.8,
      "hand": "left"
    },
    {
      "midi": 36,
      "time": 604,
      "duration": 0.5,
      "velocity": 0.8,
      "hand": "left"
    },
    {
      "midi": 55,
      "time": 604,
      "duration": 0.5,
      "velocity": 0.71,
      "hand": "left"
    },
    {
      "midi": 60,
      "time": 604,
      "duration": 0.5,
      "velocity": 0.71,
      "hand": "right"
    },
    {
      "midi": 64,
      "time": 604,
      "duration": 0.5,
      "velocity": 0.71,
      "hand": "right"
    },
    {
      "midi": 67,
      "time": 604,
      "duration": 0.5,
      "velocity": 0.71,
      "hand": "right"
    },
    {
      "midi": 48,
      "time": 606,
      "duration": 3,
      "velocity": 0.8,
      "hand": "left"
    },
    {
      "midi": 55,
      "time": 606,
      "duration": 3,
      "velocity": 0.8,
      "hand": "left"
    },
    {
      "midi": 64,
      "time": 606,
      "duration": 3,
      "velocity": 0.8,
      "hand": "right"
    },
    {
      "midi": 72,
      "time": 606,
      "duration": 3,
      "velocity": 0.71,
      "hand": "right"
    },
    {
      "midi": 79,
      "time": 606,
      "duration": 3,
      "velocity": 0.71,
      "hand": "right"
    },
    {
      "midi": 84,
      "time": 606,
      "duration": 3,
      "velocity": 0.71,
      "hand": "right"
    },
    {
      "midi": 48,
      "time": 609,
      "duration": 3,
      "velocity": 0.8,
      "hand": "left"
    },
    {
      "midi": 55,
      "time": 609,
      "duration": 3,
      "velocity": 0.8,
      "hand": "left"
    },
    {
      "midi": 62,
      "time": 609,
      "duration": 3,
      "velocity": 0.8,
      "hand": "right"
    },
    {
      "midi": 65,
      "time": 609,
      "duration": 3,
      "velocity": 0.71,
      "hand": "right"
    },
    {
      "midi": 67,
      "time": 609,
      "duration": 3,
      "velocity": 0.71,
      "hand": "right"
    },
    {
      "midi": 71,
      "time": 609,
      "duration": 3,
      "velocity": 0.71,
      "hand": "right"
    },
    {
      "midi": 74,
      "time": 609,
      "duration": 3,
      "velocity": 0.71,
      "hand": "right"
    },
    {
      "midi": 79,
      "time": 609,
      "duration": 3,
      "velocity": 0.71,
      "hand": "right"
    },
    {
      "midi": 48,
      "time": 612,
      "duration": 3,
      "velocity": 0.8,
      "hand": "left"
    },
    {
      "midi": 55,
      "time": 612,
      "duration": 3,
      "velocity": 0.8,
      "hand": "left"
    },
    {
      "midi": 60,
      "time": 612,
      "duration": 3,
      "velocity": 0.8,
      "hand": "right"
    },
    {
      "midi": 64,
      "time": 612,
      "duration": 3,
      "velocity": 0.71,
      "hand": "right"
    },
    {
      "midi": 67,
      "time": 612,
      "duration": 3,
      "velocity": 0.71,
      "hand": "right"
    },
    {
      "midi": 70,
      "time": 612,
      "duration": 3,
      "velocity": 0.71,
      "hand": "right"
    },
    {
      "midi": 76,
      "time": 612,
      "duration": 3,
      "velocity": 0.71,
      "hand": "right"
    },
    {
      "midi": 48,
      "time": 615,
      "duration": 3,
      "velocity": 0.8,
      "hand": "left"
    },
    {
      "midi": 55,
      "time": 615,
      "duration": 3,
      "velocity": 0.8,
      "hand": "left"
    },
    {
      "midi": 58,
      "time": 615,
      "duration": 3,
      "velocity": 0.8,
      "hand": "left"
    },
    {
      "midi": 62,
      "time": 615,
      "duration": 3,
      "velocity": 0.71,
      "hand": "right"
    },
    {
      "midi": 65,
      "time": 615,
      "duration": 3,
      "velocity": 0.71,
      "hand": "right"
    },
    {
      "midi": 74,
      "time": 615,
      "duration": 3,
      "velocity": 0.71,
      "hand": "right"
    },
    {
      "midi": 36,
      "time": 618,
      "duration": 10,
      "velocity": 0.8,
      "hand": "left"
    },
    {
      "midi": 48,
      "time": 618,
      "duration": 10,
      "velocity": 0.8,
      "hand": "left"
    },
    {
      "midi": 55,
      "time": 618,
      "duration": 10,
      "velocity": 0.71,
      "hand": "left"
    },
    {
      "midi": 60,
      "time": 618,
      "duration": 10,
      "velocity": 0.71,
      "hand": "right"
    },
    {
      "midi": 64,
      "time": 618,
      "duration": 10,
      "velocity": 0.71,
      "hand": "right"
    },
    {
      "midi": 29,
      "time": 630,
      "duration": 0.5,
      "velocity": 0.8,
      "hand": "left"
    },
    {
      "midi": 56,
      "time": 630,
      "duration": 0.25,
      "velocity": 0.71,
      "hand": "left"
    },
    {
      "midi": 60,
      "time": 630.25,
      "duration": 0.25,
      "velocity": 0.71,
      "hand": "right"
    },
    {
      "midi": 65,
      "time": 630.25,
      "duration": 0.25,
      "velocity": 0.71,
      "hand": "right"
    },
    {
      "midi": 68,
      "time": 630.25,
      "duration": 0.25,
      "velocity": 0.71,
      "hand": "right"
    },
    {
      "midi": 49,
      "time": 630.5,
      "duration": 0.25,
      "velocity": 0.8,
      "hand": "left"
    },
    {
      "midi": 55,
      "time": 630.5,
      "duration": 0.25,
      "velocity": 0.71,
      "hand": "left"
    },
    {
      "midi": 37,
      "time": 630.75,
      "duration": 0.25,
      "velocity": 0.8,
      "hand": "left"
    },
    {
      "midi": 43,
      "time": 630.75,
      "duration": 0.25,
      "velocity": 0.8,
      "hand": "left"
    },
    {
      "midi": 53,
      "time": 630.75,
      "duration": 0.25,
      "velocity": 0.71,
      "hand": "left"
    },
    {
      "midi": 56,
      "time": 630.75,
      "duration": 0.25,
      "velocity": 0.71,
      "hand": "left"
    },
    {
      "midi": 59,
      "time": 630.75,
      "duration": 0.25,
      "velocity": 0.71,
      "hand": "left"
    },
    {
      "midi": 36,
      "time": 631,
      "duration": 0.25,
      "velocity": 0.8,
      "hand": "left"
    },
    {
      "midi": 61,
      "time": 631,
      "duration": 0.25,
      "velocity": 0.71,
      "hand": "right"
    },
    {
      "midi": 48,
      "time": 631.25,
      "duration": 0.25,
      "velocity": 0.8,
      "hand": "left"
    },
    {
      "midi": 52,
      "time": 631.25,
      "duration": 0.25,
      "velocity": 0.8,
      "hand": "left"
    },
    {
      "midi": 58,
      "time": 631.25,
      "duration": 0.25,
      "velocity": 0.71,
      "hand": "left"
    },
    {
      "midi": 60,
      "time": 631.25,
      "duration": 0.25,
      "velocity": 0.71,
      "hand": "right"
    },
    {
      "midi": 67,
      "time": 631.25,
      "duration": 0.25,
      "velocity": 0.71,
      "hand": "right"
    },
    {
      "midi": 56,
      "time": 631.5,
      "duration": 0.25,
      "velocity": 0.8,
      "hand": "left"
    },
    {
      "midi": 60,
      "time": 631.5,
      "duration": 0.25,
      "velocity": 0.71,
      "hand": "right"
    },
    {
      "midi": 41,
      "time": 631.75,
      "duration": 0.25,
      "velocity": 0.8,
      "hand": "left"
    },
    {
      "midi": 48,
      "time": 631.75,
      "duration": 0.25,
      "velocity": 0.8,
      "hand": "left"
    },
    {
      "midi": 65,
      "time": 631.75,
      "duration": 0.25,
      "velocity": 0.71,
      "hand": "right"
    },
    {
      "midi": 68,
      "time": 631.75,
      "duration": 0.25,
      "velocity": 0.71,
      "hand": "right"
    },
    {
      "midi": 70,
      "time": 631.75,
      "duration": 0.25,
      "velocity": 0.71,
      "hand": "right"
    },
    {
      "midi": 49,
      "time": 632,
      "duration": 0.25,
      "velocity": 0.8,
      "hand": "left"
    },
    {
      "midi": 67,
      "time": 632,
      "duration": 0.25,
      "velocity": 0.71,
      "hand": "right"
    },
    {
      "midi": 37,
      "time": 632.25,
      "duration": 0.25,
      "velocity": 0.8,
      "hand": "left"
    },
    {
      "midi": 57,
      "time": 632.25,
      "duration": 0.25,
      "velocity": 0.71,
      "hand": "left"
    },
    {
      "midi": 58,
      "time": 632.25,
      "duration": 0.25,
      "velocity": 0.71,
      "hand": "left"
    },
    {
      "midi": 65,
      "time": 632.25,
      "duration": 0.25,
      "velocity": 0.71,
      "hand": "right"
    },
    {
      "midi": 36,
      "time": 632.5,
      "duration": 0.25,
      "velocity": 0.8,
      "hand": "left"
    },
    {
      "midi": 61,
      "time": 632.5,
      "duration": 0.25,
      "velocity": 0.71,
      "hand": "right"
    },
    {
      "midi": 48,
      "time": 632.75,
      "duration": 0.25,
      "velocity": 0.8,
      "hand": "left"
    },
    {
      "midi": 52,
      "time": 632.75,
      "duration": 0.25,
      "velocity": 0.8,
      "hand": "left"
    },
    {
      "midi": 58,
      "time": 632.75,
      "duration": 0.25,
      "velocity": 0.71,
      "hand": "left"
    },
    {
      "midi": 60,
      "time": 632.75,
      "duration": 0.25,
      "velocity": 0.71,
      "hand": "right"
    },
    {
      "midi": 67,
      "time": 632.75,
      "duration": 0.25,
      "velocity": 0.71,
      "hand": "right"
    },
    {
      "midi": 41,
      "time": 633,
      "duration": 0.25,
      "velocity": 0.8,
      "hand": "left"
    },
    {
      "midi": 56,
      "time": 633,
      "duration": 0.25,
      "velocity": 0.71,
      "hand": "left"
    },
    {
      "midi": 44,
      "time": 633.25,
      "duration": 0.25,
      "velocity": 0.8,
      "hand": "left"
    },
    {
      "midi": 53,
      "time": 633.25,
      "duration": 0.25,
      "velocity": 0.8,
      "hand": "left"
    },
    {
      "midi": 61,
      "time": 633.25,
      "duration": 0.25,
      "velocity": 0.71,
      "hand": "right"
    },
    {
      "midi": 63,
      "time": 633.25,
      "duration": 0.25,
      "velocity": 0.71,
      "hand": "right"
    },
    {
      "midi": 68,
      "time": 633.25,
      "duration": 0.75,
      "velocity": 0.71,
      "hand": "right"
    },
    {
      "midi": 39,
      "time": 633.5,
      "duration": 0.25,
      "velocity": 0.8,
      "hand": "left"
    },
    {
      "midi": 61,
      "time": 633.5,
      "duration": 0.25,
      "velocity": 0.72,
      "hand": "right"
    },
    {
      "midi": 63,
      "time": 633.5,
      "duration": 0.125,
      "velocity": 0.71,
      "hand": "right"
    },
    {
      "midi": 44,
      "time": 633.75,
      "duration": 0.25,
      "velocity": 0.8,
      "hand": "left"
    },
    {
      "midi": 54,
      "time": 633.75,
      "duration": 0.25,
      "velocity": 0.8,
      "hand": "left"
    },
    {
      "midi": 60,
      "time": 633.75,
      "duration": 0.25,
      "velocity": 0.76,
      "hand": "right"
    },
    {
      "midi": 66,
      "time": 633.75,
      "duration": 0.25,
      "velocity": 0.8,
      "hand": "right"
    },
    {
      "midi": 68,
      "time": 633.75,
      "duration": 0.25,
      "velocity": 0.8,
      "hand": "right"
    },
    {
      "midi": 37,
      "time": 634,
      "duration": 0.25,
      "velocity": 0.8,
      "hand": "left"
    },
    {
      "midi": 66,
      "time": 634,
      "duration": 0.25,
      "velocity": 0.84,
      "hand": "right"
    },
    {
      "midi": 68,
      "time": 634,
      "duration": 0.5,
      "velocity": 0.84,
      "hand": "right"
    },
    {
      "midi": 44,
      "time": 634.25,
      "duration": 0.25,
      "velocity": 0.8,
      "hand": "left"
    },
    {
      "midi": 53,
      "time": 634.25,
      "duration": 0.25,
      "velocity": 0.8,
      "hand": "left"
    },
    {
      "midi": 65,
      "time": 634.25,
      "duration": 0.25,
      "velocity": 0.89,
      "hand": "right"
    },
    {
      "midi": 43,
      "time": 634.5,
      "duration": 0.25,
      "velocity": 0.94,
      "hand": "left"
    },
    {
      "midi": 61,
      "time": 634.5,
      "duration": 0.25,
      "velocity": 0.93,
      "hand": "right"
    },
    {
      "midi": 73,
      "time": 634.5,
      "duration": 0.25,
      "velocity": 0.93,
      "hand": "right"
    },
    {
      "midi": 44,
      "time": 634.75,
      "duration": 0.25,
      "velocity": 0.94,
      "hand": "left"
    },
    {
      "midi": 45,
      "time": 634.75,
      "duration": 0.25,
      "velocity": 0.94,
      "hand": "left"
    },
    {
      "midi": 61,
      "time": 634.75,
      "duration": 0.25,
      "velocity": 0.87,
      "hand": "right"
    },
    {
      "midi": 65,
      "time": 634.75,
      "duration": 0.25,
      "velocity": 0.9,
      "hand": "right"
    },
    {
      "midi": 71,
      "time": 634.75,
      "duration": 0.25,
      "velocity": 0.87,
      "hand": "right"
    },
    {
      "midi": 72,
      "time": 634.75,
      "duration": 0.25,
      "velocity": 0.9,
      "hand": "right"
    },
    {
      "midi": 46,
      "time": 635,
      "duration": 0.25,
      "velocity": 0.94,
      "hand": "left"
    },
    {
      "midi": 65,
      "time": 635,
      "duration": 0.25,
      "velocity": 0.83,
      "hand": "right"
    },
    {
      "midi": 70,
      "time": 635,
      "duration": 0.25,
      "velocity": 0.83,
      "hand": "right"
    },
    {
      "midi": 47,
      "time": 635.25,
      "duration": 0.25,
      "velocity": 0.94,
      "hand": "left"
    },
    {
      "midi": 48,
      "time": 635.25,
      "duration": 0.25,
      "velocity": 0.94,
      "hand": "left"
    },
    {
      "midi": 61,
      "time": 635.25,
      "duration": 0.25,
      "velocity": 0.8,
      "hand": "right"
    },
    {
      "midi": 65,
      "time": 635.25,
      "duration": 0.25,
      "velocity": 0.77,
      "hand": "right"
    },
    {
      "midi": 68,
      "time": 635.25,
      "duration": 0.25,
      "velocity": 0.77,
      "hand": "right"
    },
    {
      "midi": 69,
      "time": 635.25,
      "duration": 0.25,
      "velocity": 0.8,
      "hand": "right"
    },
    {
      "midi": 49,
      "time": 635.5,
      "duration": 0.25,
      "velocity": 0.94,
      "hand": "left"
    },
    {
      "midi": 58,
      "time": 635.5,
      "duration": 0.25,
      "velocity": 0.74,
      "hand": "left"
    },
    {
      "midi": 48,
      "time": 635.75,
      "duration": 0.25,
      "velocity": 0.72,
      "hand": "left"
    },
    {
      "midi": 60,
      "time": 635.75,
      "duration": 0.25,
      "velocity": 0.71,
      "hand": "right"
    },
    {
      "midi": 64,
      "time": 635.75,
      "duration": 0.25,
      "velocity": 0.71,
      "hand": "right"
    },
    {
      "midi": 67,
      "time": 635.75,
      "duration": 0.25,
      "velocity": 0.71,
      "hand": "right"
    },
    {
      "midi": 72,
      "time": 635.75,
      "duration": 0.25,
      "velocity": 0.71,
      "hand": "right"
    },
    {
      "midi": 41,
      "time": 636,
      "duration": 0.5,
      "velocity": 0.72,
      "hand": "left"
    },
    {
      "midi": 68,
      "time": 636,
      "duration": 0.25,
      "velocity": 0.71,
      "hand": "right"
    },
    {
      "midi": 72,
      "time": 636.25,
      "duration": 0.25,
      "velocity": 0.71,
      "hand": "right"
    },
    {
      "midi": 77,
      "time": 636.25,
      "duration": 0.25,
      "velocity": 0.71,
      "hand": "right"
    },
    {
      "midi": 80,
      "time": 636.25,
      "duration": 0.25,
      "velocity": 0.71,
      "hand": "right"
    },
    {
      "midi": 61,
      "time": 636.5,
      "duration": 0.25,
      "velocity": 0.72,
      "hand": "right"
    },
    {
      "midi": 67,
      "time": 636.5,
      "duration": 0.25,
      "velocity": 0.71,
      "hand": "right"
    },
    {
      "midi": 49,
      "time": 636.75,
      "duration": 0.25,
      "velocity": 0.72,
      "hand": "left"
    },
    {
      "midi": 55,
      "time": 636.75,
      "duration": 0.25,
      "velocity": 0.72,
      "hand": "left"
    },
    {
      "midi": 65,
      "time": 636.75,
      "duration": 0.25,
      "velocity": 0.71,
      "hand": "right"
    },
    {
      "midi": 68,
      "time": 636.75,
      "duration": 0.25,
      "velocity": 0.71,
      "hand": "right"
    },
    {
      "midi": 71,
      "time": 636.75,
      "duration": 0.25,
      "velocity": 0.71,
      "hand": "right"
    },
    {
      "midi": 48,
      "time": 637,
      "duration": 0.25,
      "velocity": 0.72,
      "hand": "left"
    },
    {
      "midi": 73,
      "time": 637,
      "duration": 0.25,
      "velocity": 0.71,
      "hand": "right"
    },
    {
      "midi": 60,
      "time": 637.25,
      "duration": 0.25,
      "velocity": 0.72,
      "hand": "right"
    },
    {
      "midi": 64,
      "time": 637.25,
      "duration": 0.25,
      "velocity": 0.72,
      "hand": "right"
    },
    {
      "midi": 70,
      "time": 637.25,
      "duration": 0.25,
      "velocity": 0.71,
      "hand": "right"
    },
    {
      "midi": 72,
      "time": 637.25,
      "duration": 0.25,
      "velocity": 0.71,
      "hand": "right"
    },
    {
      "midi": 79,
      "time": 637.25,
      "duration": 0.25,
      "velocity": 0.71,
      "hand": "right"
    },
    {
      "midi": 68,
      "time": 637.5,
      "duration": 0.25,
      "velocity": 0.72,
      "hand": "right"
    },
    {
      "midi": 72,
      "time": 637.5,
      "duration": 0.25,
      "velocity": 0.71,
      "hand": "right"
    },
    {
      "midi": 53,
      "time": 637.75,
      "duration": 0.25,
      "velocity": 0.72,
      "hand": "left"
    },
    {
      "midi": 60,
      "time": 637.75,
      "duration": 0.25,
      "velocity": 0.72,
      "hand": "right"
    },
    {
      "midi": 77,
      "time": 637.75,
      "duration": 0.25,
      "velocity": 0.71,
      "hand": "right"
    },
    {
      "midi": 80,
      "time": 637.75,
      "duration": 0.25,
      "velocity": 0.71,
      "hand": "right"
    },
    {
      "midi": 82,
      "time": 637.75,
      "duration": 0.25,
      "velocity": 0.71,
      "hand": "right"
    },
    {
      "midi": 61,
      "time": 638,
      "duration": 0.25,
      "velocity": 0.72,
      "hand": "right"
    },
    {
      "midi": 79,
      "time": 638,
      "duration": 0.25,
      "velocity": 0.71,
      "hand": "right"
    },
    {
      "midi": 49,
      "time": 638.25,
      "duration": 0.25,
      "velocity": 0.72,
      "hand": "left"
    },
    {
      "midi": 69,
      "time": 638.25,
      "duration": 0.25,
      "velocity": 0.71,
      "hand": "right"
    },
    {
      "midi": 70,
      "time": 638.25,
      "duration": 0.25,
      "velocity": 0.71,
      "hand": "right"
    },
    {
      "midi": 77,
      "time": 638.25,
      "duration": 0.25,
      "velocity": 0.71,
      "hand": "right"
    },
    {
      "midi": 48,
      "time": 638.5,
      "duration": 0.25,
      "velocity": 0.72,
      "hand": "left"
    },
    {
      "midi": 73,
      "time": 638.5,
      "duration": 0.25,
      "velocity": 0.71,
      "hand": "right"
    },
    {
      "midi": 60,
      "time": 638.75,
      "duration": 0.25,
      "velocity": 0.72,
      "hand": "right"
    },
    {
      "midi": 64,
      "time": 638.75,
      "duration": 0.25,
      "velocity": 0.72,
      "hand": "right"
    },
    {
      "midi": 70,
      "time": 638.75,
      "duration": 0.25,
      "velocity": 0.71,
      "hand": "right"
    },
    {
      "midi": 72,
      "time": 638.75,
      "duration": 0.25,
      "velocity": 0.71,
      "hand": "right"
    },
    {
      "midi": 79,
      "time": 638.75,
      "duration": 0.25,
      "velocity": 0.71,
      "hand": "right"
    },
    {
      "midi": 53,
      "time": 639,
      "duration": 0.25,
      "velocity": 0.72,
      "hand": "left"
    },
    {
      "midi": 68,
      "time": 639,
      "duration": 0.25,
      "velocity": 0.71,
      "hand": "right"
    },
    {
      "midi": 56,
      "time": 639.25,
      "duration": 0.25,
      "velocity": 0.72,
      "hand": "left"
    },
    {
      "midi": 65,
      "time": 639.25,
      "duration": 0.25,
      "velocity": 0.72,
      "hand": "right"
    },
    {
      "midi": 73,
      "time": 639.25,
      "duration": 0.25,
      "velocity": 0.71,
      "hand": "right"
    },
    {
      "midi": 75,
      "time": 639.25,
      "duration": 0.25,
      "velocity": 0.71,
      "hand": "right"
    },
    {
      "midi": 80,
      "time": 639.25,
      "duration": 0.75,
      "velocity": 0.71,
      "hand": "right"
    },
    {
      "midi": 51,
      "time": 639.5,
      "duration": 0.25,
      "velocity": 0.72,
      "hand": "left"
    },
    {
      "midi": 73,
      "time": 639.5,
      "duration": 0.25,
      "velocity": 0.71,
      "hand": "right"
    },
    {
      "midi": 75,
      "time": 639.5,
      "duration": 0.125,
      "velocity": 0.71,
      "hand": "right"
    },
    {
      "midi": 56,
      "time": 639.75,
      "duration": 0.25,
      "velocity": 0.72,
      "hand": "left"
    },
    {
      "midi": 66,
      "time": 639.75,
      "duration": 0.25,
      "velocity": 0.72,
      "hand": "right"
    },
    {
      "midi": 72,
      "time": 639.75,
      "duration": 0.25,
      "velocity": 0.71,
      "hand": "right"
    },
    {
      "midi": 79,
      "time": 639.75,
      "duration": 0.25,
      "velocity": 0.71,
      "hand": "right"
    },
    {
      "midi": 80,
      "time": 639.75,
      "duration": 0.25,
      "velocity": 0.71,
      "hand": "right"
    },
    {
      "midi": 49,
      "time": 640,
      "duration": 0.25,
      "velocity": 0.72,
      "hand": "left"
    },
    {
      "midi": 79,
      "time": 640,
      "duration": 0.25,
      "velocity": 0.71,
      "hand": "right"
    },
    {
      "midi": 80,
      "time": 640,
      "duration": 0.5,
      "velocity": 0.71,
      "hand": "right"
    },
    {
      "midi": 56,
      "time": 640.25,
      "duration": 0.25,
      "velocity": 0.72,
      "hand": "left"
    },
    {
      "midi": 65,
      "time": 640.25,
      "duration": 0.25,
      "velocity": 0.72,
      "hand": "right"
    },
    {
      "midi": 77,
      "time": 640.25,
      "duration": 0.25,
      "velocity": 0.71,
      "hand": "right"
    },
    {
      "midi": 55,
      "time": 640.5,
      "duration": 0.25,
      "velocity": 0.72,
      "hand": "left"
    },
    {
      "midi": 73,
      "time": 640.5,
      "duration": 0.25,
      "velocity": 0.71,
      "hand": "right"
    },
    {
      "midi": 85,
      "time": 640.5,
      "duration": 0.25,
      "velocity": 0.71,
      "hand": "right"
    },
    {
      "midi": 56,
      "time": 640.75,
      "duration": 0.25,
      "velocity": 0.72,
      "hand": "left"
    },
    {
      "midi": 57,
      "time": 640.75,
      "duration": 0.25,
      "velocity": 0.72,
      "hand": "left"
    },
    {
      "midi": 73,
      "time": 640.75,
      "duration": 0.25,
      "velocity": 0.71,
      "hand": "right"
    },
    {
      "midi": 77,
      "time": 640.75,
      "duration": 0.25,
      "velocity": 0.71,
      "hand": "right"
    },
    {
      "midi": 83,
      "time": 640.75,
      "duration": 0.25,
      "velocity": 0.71,
      "hand": "right"
    },
    {
      "midi": 84,
      "time": 640.75,
      "duration": 0.25,
      "velocity": 0.71,
      "hand": "right"
    },
    {
      "midi": 58,
      "time": 641,
      "duration": 0.25,
      "velocity": 0.72,
      "hand": "left"
    },
    {
      "midi": 77,
      "time": 641,
      "duration": 0.25,
      "velocity": 0.71,
      "hand": "right"
    },
    {
      "midi": 82,
      "time": 641,
      "duration": 0.25,
      "velocity": 0.71,
      "hand": "right"
    },
    {
      "midi": 59,
      "time": 641.25,
      "duration": 0.25,
      "velocity": 0.72,
      "hand": "left"
    },
    {
      "midi": 60,
      "time": 641.25,
      "duration": 0.25,
      "velocity": 0.72,
      "hand": "right"
    },
    {
      "midi": 73,
      "time": 641.25,
      "duration": 0.25,
      "velocity": 0.71,
      "hand": "right"
    },
    {
      "midi": 77,
      "time": 641.25,
      "duration": 0.25,
      "velocity": 0.71,
      "hand": "right"
    },
    {
      "midi": 80,
      "time": 641.25,
      "duration": 0.25,
      "velocity": 0.71,
      "hand": "right"
    },
    {
      "midi": 81,
      "time": 641.25,
      "duration": 0.25,
      "velocity": 0.71,
      "hand": "right"
    },
    {
      "midi": 61,
      "time": 641.5,
      "duration": 0.25,
      "velocity": 0.72,
      "hand": "right"
    },
    {
      "midi": 70,
      "time": 641.5,
      "duration": 0.25,
      "velocity": 0.71,
      "hand": "right"
    },
    {
      "midi": 60,
      "time": 641.75,
      "duration": 0.25,
      "velocity": 0.5,
      "hand": "right"
    },
    {
      "midi": 72,
      "time": 641.75,
      "duration": 0.25,
      "velocity": 0.71,
      "hand": "right"
    },
    {
      "midi": 76,
      "time": 641.75,
      "duration": 0.25,
      "velocity": 0.71,
      "hand": "right"
    },
    {
      "midi": 79,
      "time": 641.75,
      "duration": 0.25,
      "velocity": 0.71,
      "hand": "right"
    },
    {
      "midi": 84,
      "time": 641.75,
      "duration": 0.25,
      "velocity": 0.71,
      "hand": "right"
    },
    {
      "midi": 53,
      "time": 642,
      "duration": 0.25,
      "velocity": 0.5,
      "hand": "left"
    },
    {
      "midi": 71,
      "time": 642,
      "duration": 0.25,
      "velocity": 0.71,
      "hand": "right"
    },
    {
      "midi": 74,
      "time": 642,
      "duration": 0.25,
      "velocity": 0.71,
      "hand": "right"
    },
    {
      "midi": 80,
      "time": 642,
      "duration": 0.5,
      "velocity": 0.71,
      "hand": "right"
    },
    {
      "midi": 62,
      "time": 642.25,
      "duration": 0.25,
      "velocity": 0.5,
      "hand": "right"
    },
    {
      "midi": 68,
      "time": 642.25,
      "duration": 0.25,
      "velocity": 0.5,
      "hand": "right"
    },
    {
      "midi": 72,
      "time": 642.25,
      "duration": 0.25,
      "velocity": 0.71,
      "hand": "right"
    },
    {
      "midi": 73,
      "time": 642.25,
      "duration": 0.25,
      "velocity": 0.71,
      "hand": "right"
    },
    {
      "midi": 75,
      "time": 642.25,
      "duration": 0.25,
      "velocity": 0.71,
      "hand": "right"
    },
    {
      "midi": 76,
      "time": 642.25,
      "duration": 0.25,
      "velocity": 0.71,
      "hand": "right"
    },
    {
      "midi": 59,
      "time": 642.5,
      "duration": 0.25,
      "velocity": 0.5,
      "hand": "left"
    },
    {
      "midi": 74,
      "time": 642.5,
      "duration": 0.25,
      "velocity": 0.71,
      "hand": "right"
    },
    {
      "midi": 77,
      "time": 642.5,
      "duration": 0.25,
      "velocity": 0.71,
      "hand": "right"
    },
    {
      "midi": 62,
      "time": 642.75,
      "duration": 0.25,
      "velocity": 0.5,
      "hand": "right"
    },
    {
      "midi": 68,
      "time": 642.75,
      "duration": 0.25,
      "velocity": 0.5,
      "hand": "right"
    },
    {
      "midi": 75,
      "time": 642.75,
      "duration": 0.25,
      "velocity": 0.71,
      "hand": "right"
    },
    {
      "midi": 76,
      "time": 642.75,
      "duration": 0.25,
      "velocity": 0.71,
      "hand": "right"
    },
    {
      "midi": 78,
      "time": 642.75,
      "duration": 0.25,
      "velocity": 0.71,
      "hand": "right"
    },
    {
      "midi": 79,
      "time": 642.75,
      "duration": 0.25,
      "velocity": 0.71,
      "hand": "right"
    },
    {
      "midi": 52,
      "time": 643,
      "duration": 0.25,
      "velocity": 0.5,
      "hand": "left"
    },
    {
      "midi": 77,
      "time": 643,
      "duration": 0.25,
      "velocity": 0.71,
      "hand": "right"
    },
    {
      "midi": 80,
      "time": 643,
      "duration": 0.25,
      "velocity": 0.71,
      "hand": "right"
    },
    {
      "midi": 61,
      "time": 643.25,
      "duration": 0.25,
      "velocity": 0.5,
      "hand": "right"
    },
    {
      "midi": 67,
      "time": 643.25,
      "duration": 0.25,
      "velocity": 0.5,
      "hand": "right"
    },
    {
      "midi": 76,
      "time": 643.25,
      "duration": 0.25,
      "velocity": 0.71,
      "hand": "right"
    },
    {
      "midi": 79,
      "time": 643.25,
      "duration": 0.25,
      "velocity": 0.71,
      "hand": "right"
    },
    {
      "midi": 82,
      "time": 643.25,
      "duration": 0.25,
      "velocity": 0.71,
      "hand": "right"
    },
    {
      "midi": 85,
      "time": 643.25,
      "duration": 0.25,
      "velocity": 0.71,
      "hand": "right"
    },
    {
      "midi": 51,
      "time": 643.5,
      "duration": 0.25,
      "velocity": 0.5,
      "hand": "left"
    },
    {
      "midi": 69,
      "time": 643.5,
      "duration": 0.25,
      "velocity": 0.71,
      "hand": "right"
    },
    {
      "midi": 72,
      "time": 643.5,
      "duration": 0.25,
      "velocity": 0.71,
      "hand": "right"
    },
    {
      "midi": 78,
      "time": 643.5,
      "duration": 0.5,
      "velocity": 0.71,
      "hand": "right"
    },
    {
      "midi": 60,
      "time": 643.75,
      "duration": 0.25,
      "velocity": 0.5,
      "hand": "right"
    },
    {
      "midi": 66,
      "time": 643.75,
      "duration": 0.25,
      "velocity": 0.5,
      "hand": "right"
    },
    {
      "midi": 70,
      "time": 643.75,
      "duration": 0.25,
      "velocity": 0.71,
      "hand": "right"
    },
    {
      "midi": 71,
      "time": 643.75,
      "duration": 0.25,
      "velocity": 0.71,
      "hand": "right"
    },
    {
      "midi": 73,
      "time": 643.75,
      "duration": 0.25,
      "velocity": 0.71,
      "hand": "right"
    },
    {
      "midi": 74,
      "time": 643.75,
      "duration": 0.25,
      "velocity": 0.71,
      "hand": "right"
    },
    {
      "midi": 57,
      "time": 644,
      "duration": 0.25,
      "velocity": 0.5,
      "hand": "left"
    },
    {
      "midi": 72,
      "time": 644,
      "duration": 0.25,
      "velocity": 0.71,
      "hand": "right"
    },
    {
      "midi": 75,
      "time": 644,
      "duration": 0.25,
      "velocity": 0.71,
      "hand": "right"
    },
    {
      "midi": 60,
      "time": 644.25,
      "duration": 0.25,
      "velocity": 0.5,
      "hand": "right"
    },
    {
      "midi": 66,
      "time": 644.25,
      "duration": 0.25,
      "velocity": 0.5,
      "hand": "right"
    },
    {
      "midi": 73,
      "time": 644.25,
      "duration": 0.25,
      "velocity": 0.71,
      "hand": "right"
    },
    {
      "midi": 74,
      "time": 644.25,
      "duration": 0.25,
      "velocity": 0.71,
      "hand": "right"
    },
    {
      "midi": 76,
      "time": 644.25,
      "duration": 0.25,
      "velocity": 0.71,
      "hand": "right"
    },
    {
      "midi": 77,
      "time": 644.25,
      "duration": 0.25,
      "velocity": 0.71,
      "hand": "right"
    },
    {
      "midi": 50,
      "time": 644.5,
      "duration": 0.25,
      "velocity": 0.5,
      "hand": "left"
    },
    {
      "midi": 75,
      "time": 644.5,
      "duration": 0.25,
      "velocity": 0.71,
      "hand": "right"
    },
    {
      "midi": 78,
      "time": 644.5,
      "duration": 0.25,
      "velocity": 0.71,
      "hand": "right"
    },
    {
      "midi": 59,
      "time": 644.75,
      "duration": 0.25,
      "velocity": 0.5,
      "hand": "left"
    },
    {
      "midi": 65,
      "time": 644.75,
      "duration": 0.25,
      "velocity": 0.5,
      "hand": "right"
    },
    {
      "midi": 74,
      "time": 644.75,
      "duration": 0.25,
      "velocity": 0.71,
      "hand": "right"
    },
    {
      "midi": 77,
      "time": 644.75,
      "duration": 0.25,
      "velocity": 0.71,
      "hand": "right"
    },
    {
      "midi": 80,
      "time": 644.75,
      "duration": 0.25,
      "velocity": 0.71,
      "hand": "right"
    },
    {
      "midi": 83,
      "time": 644.75,
      "duration": 0.25,
      "velocity": 0.71,
      "hand": "right"
    },
    {
      "midi": 49,
      "time": 645,
      "duration": 0.25,
      "velocity": 0.5,
      "hand": "left"
    },
    {
      "midi": 67,
      "time": 645,
      "duration": 0.25,
      "velocity": 0.71,
      "hand": "right"
    },
    {
      "midi": 70,
      "time": 645,
      "duration": 0.25,
      "velocity": 0.71,
      "hand": "right"
    },
    {
      "midi": 76,
      "time": 645,
      "duration": 0.5,
      "velocity": 0.71,
      "hand": "right"
    },
    {
      "midi": 58,
      "time": 645.25,
      "duration": 0.25,
      "velocity": 0.5,
      "hand": "left"
    },
    {
      "midi": 64,
      "time": 645.25,
      "duration": 0.25,
      "velocity": 0.5,
      "hand": "right"
    },
    {
      "midi": 68,
      "time": 645.25,
      "duration": 0.25,
      "velocity": 0.71,
      "hand": "right"
    },
    {
      "midi": 69,
      "time": 645.25,
      "duration": 0.25,
      "velocity": 0.71,
      "hand": "right"
    },
    {
      "midi": 71,
      "time": 645.25,
      "duration": 0.25,
      "velocity": 0.71,
      "hand": "right"
    },
    {
      "midi": 72,
      "time": 645.25,
      "duration": 0.25,
      "velocity": 0.71,
      "hand": "right"
    },
    {
      "midi": 55,
      "time": 645.5,
      "duration": 0.25,
      "velocity": 0.5,
      "hand": "left"
    },
    {
      "midi": 70,
      "time": 645.5,
      "duration": 0.25,
      "velocity": 0.71,
      "hand": "right"
    },
    {
      "midi": 73,
      "time": 645.5,
      "duration": 0.25,
      "velocity": 0.71,
      "hand": "right"
    },
    {
      "midi": 58,
      "time": 645.75,
      "duration": 0.25,
      "velocity": 0.5,
      "hand": "left"
    },
    {
      "midi": 64,
      "time": 645.75,
      "duration": 0.25,
      "velocity": 0.5,
      "hand": "right"
    },
    {
      "midi": 71,
      "time": 645.75,
      "duration": 0.25,
      "velocity": 0.71,
      "hand": "right"
    },
    {
      "midi": 72,
      "time": 645.75,
      "duration": 0.25,
      "velocity": 0.71,
      "hand": "right"
    },
    {
      "midi": 74,
      "time": 645.75,
      "duration": 0.25,
      "velocity": 0.71,
      "hand": "right"
    },
    {
      "midi": 75,
      "time": 645.75,
      "duration": 0.25,
      "velocity": 0.71,
      "hand": "right"
    },
    {
      "midi": 48,
      "time": 646,
      "duration": 0.25,
      "velocity": 0.5,
      "hand": "left"
    },
    {
      "midi": 73,
      "time": 646,
      "duration": 0.25,
      "velocity": 0.71,
      "hand": "right"
    },
    {
      "midi": 76,
      "time": 646,
      "duration": 0.25,
      "velocity": 0.71,
      "hand": "right"
    },
    {
      "midi": 58,
      "time": 646.25,
      "duration": 0.25,
      "velocity": 0.5,
      "hand": "left"
    },
    {
      "midi": 64,
      "time": 646.25,
      "duration": 0.25,
      "velocity": 0.5,
      "hand": "right"
    },
    {
      "midi": 74,
      "time": 646.25,
      "duration": 0.25,
      "velocity": 0.71,
      "hand": "right"
    },
    {
      "midi": 75,
      "time": 646.25,
      "duration": 0.25,
      "velocity": 0.71,
      "hand": "right"
    },
    {
      "midi": 77,
      "time": 646.25,
      "duration": 0.25,
      "velocity": 0.71,
      "hand": "right"
    },
    {
      "midi": 78,
      "time": 646.25,
      "duration": 0.25,
      "velocity": 0.71,
      "hand": "right"
    },
    {
      "midi": 47,
      "time": 646.5,
      "duration": 0.25,
      "velocity": 0.5,
      "hand": "left"
    },
    {
      "midi": 76,
      "time": 646.5,
      "duration": 0.25,
      "velocity": 0.71,
      "hand": "right"
    },
    {
      "midi": 79,
      "time": 646.5,
      "duration": 0.25,
      "velocity": 0.71,
      "hand": "right"
    },
    {
      "midi": 59,
      "time": 646.75,
      "duration": 0.25,
      "velocity": 0.5,
      "hand": "left"
    },
    {
      "midi": 64,
      "time": 646.75,
      "duration": 0.25,
      "velocity": 0.5,
      "hand": "right"
    },
    {
      "midi": 76,
      "time": 646.75,
      "duration": 0.25,
      "velocity": 0.71,
      "hand": "right"
    },
    {
      "midi": 78,
      "time": 646.75,
      "duration": 0.25,
      "velocity": 0.71,
      "hand": "right"
    },
    {
      "midi": 79,
      "time": 646.75,
      "duration": 0.25,
      "velocity": 0.71,
      "hand": "right"
    },
    {
      "midi": 81,
      "time": 646.75,
      "duration": 0.25,
      "velocity": 0.71,
      "hand": "right"
    },
    {
      "midi": 55,
      "time": 647,
      "duration": 0.25,
      "velocity": 0.5,
      "hand": "left"
    },
    {
      "midi": 75,
      "time": 647,
      "duration": 0.25,
      "velocity": 0.71,
      "hand": "right"
    },
    {
      "midi": 78,
      "time": 647,
      "duration": 0.25,
      "velocity": 0.71,
      "hand": "right"
    },
    {
      "midi": 59,
      "time": 647.25,
      "duration": 0.25,
      "velocity": 0.5,
      "hand": "left"
    },
    {
      "midi": 64,
      "time": 647.25,
      "duration": 0.25,
      "velocity": 0.5,
      "hand": "right"
    },
    {
      "midi": 76,
      "time": 647.25,
      "duration": 0.25,
      "velocity": 0.71,
      "hand": "right"
    },
    {
      "midi": 78,
      "time": 647.25,
      "duration": 0.25,
      "velocity": 0.71,
      "hand": "right"
    },
    {
      "midi": 79,
      "time": 647.25,
      "duration": 0.25,
      "velocity": 0.71,
      "hand": "right"
    },
    {
      "midi": 81,
      "time": 647.25,
      "duration": 0.25,
      "velocity": 0.71,
      "hand": "right"
    },
    {
      "midi": 46,
      "time": 647.5,
      "duration": 0.25,
      "velocity": 0.5,
      "hand": "left"
    },
    {
      "midi": 79,
      "time": 647.5,
      "duration": 0.25,
      "velocity": 0.71,
      "hand": "right"
    },
    {
      "midi": 82,
      "time": 647.5,
      "duration": 0.25,
      "velocity": 0.71,
      "hand": "right"
    },
    {
      "midi": 60,
      "time": 647.75,
      "duration": 0.25,
      "velocity": 0.5,
      "hand": "right"
    },
    {
      "midi": 64,
      "time": 647.75,
      "duration": 0.25,
      "velocity": 0.5,
      "hand": "right"
    },
    {
      "midi": 80,
      "time": 647.75,
      "duration": 0.25,
      "velocity": 0.71,
      "hand": "right"
    },
    {
      "midi": 82,
      "time": 647.75,
      "duration": 0.25,
      "velocity": 0.71,
      "hand": "right"
    },
    {
      "midi": 84,
      "time": 647.75,
      "duration": 0.25,
      "velocity": 0.71,
      "hand": "right"
    },
    {
      "midi": 85,
      "time": 647.75,
      "duration": 0.25,
      "velocity": 0.71,
      "hand": "right"
    },
    {
      "midi": 44,
      "time": 648,
      "duration": 0.25,
      "velocity": 0.5,
      "hand": "left"
    },
    {
      "midi": 80,
      "time": 648,
      "duration": 0.25,
      "velocity": 0.71,
      "hand": "right"
    },
    {
      "midi": 84,
      "time": 648,
      "duration": 0.25,
      "velocity": 0.71,
      "hand": "right"
    },
    {
      "midi": 60,
      "time": 648.25,
      "duration": 0.25,
      "velocity": 0.5,
      "hand": "right"
    },
    {
      "midi": 65,
      "time": 648.25,
      "duration": 0.25,
      "velocity": 0.5,
      "hand": "right"
    },
    {
      "midi": 85,
      "time": 648.25,
      "duration": 0.25,
      "velocity": 0.71,
      "hand": "right"
    },
    {
      "midi": 87,
      "time": 648.25,
      "duration": 0.25,
      "velocity": 0.71,
      "hand": "right"
    },
    {
      "midi": 89,
      "time": 648.25,
      "duration": 0.25,
      "velocity": 0.71,
      "hand": "right"
    },
    {
      "midi": 91,
      "time": 648.25,
      "duration": 0.25,
      "velocity": 0.71,
      "hand": "right"
    },
    {
      "midi": 56,
      "time": 648.5,
      "duration": 0.25,
      "velocity": 0.5,
      "hand": "left"
    },
    {
      "midi": 84,
      "time": 648.5,
      "duration": 0.25,
      "velocity": 0.71,
      "hand": "right"
    },
    {
      "midi": 60,
      "time": 648.75,
      "duration": 0.25,
      "velocity": 0.5,
      "hand": "right"
    },
    {
      "midi": 65,
      "time": 648.75,
      "duration": 0.25,
      "velocity": 0.5,
      "hand": "right"
    },
    {
      "midi": 82,
      "time": 648.75,
      "duration": 0.25,
      "velocity": 0.71,
      "hand": "right"
    },
    {
      "midi": 85,
      "time": 648.75,
      "duration": 0.25,
      "velocity": 0.71,
      "hand": "right"
    },
    {
      "midi": 87,
      "time": 648.75,
      "duration": 0.25,
      "velocity": 0.71,
      "hand": "right"
    },
    {
      "midi": 46,
      "time": 649,
      "duration": 0.25,
      "velocity": 0.5,
      "hand": "left"
    },
    {
      "midi": 80,
      "time": 649,
      "duration": 0.25,
      "velocity": 0.71,
      "hand": "right"
    },
    {
      "midi": 61,
      "time": 649.25,
      "duration": 0.25,
      "velocity": 0.5,
      "hand": "right"
    },
    {
      "midi": 65,
      "time": 649.25,
      "duration": 0.25,
      "velocity": 0.5,
      "hand": "right"
    },
    {
      "midi": 79,
      "time": 649.25,
      "duration": 0.25,
      "velocity": 0.71,
      "hand": "right"
    },
    {
      "midi": 82,
      "time": 649.25,
      "duration": 0.25,
      "velocity": 0.71,
      "hand": "right"
    },
    {
      "midi": 84,
      "time": 649.25,
      "duration": 0.25,
      "velocity": 0.71,
      "hand": "right"
    },
    {
      "midi": 48,
      "time": 649.5,
      "duration": 0.25,
      "velocity": 0.5,
      "hand": "left"
    },
    {
      "midi": 72,
      "time": 649.5,
      "duration": 0.25,
      "velocity": 0.71,
      "hand": "right"
    },
    {
      "midi": 60,
      "time": 649.75,
      "duration": 0.25,
      "velocity": 0.5,
      "hand": "right"
    },
    {
      "midi": 65,
      "time": 649.75,
      "duration": 0.25,
      "velocity": 0.5,
      "hand": "right"
    },
    {
      "midi": 77,
      "time": 649.75,
      "duration": 0.25,
      "velocity": 0.71,
      "hand": "right"
    },
    {
      "midi": 79,
      "time": 649.75,
      "duration": 0.25,
      "velocity": 0.71,
      "hand": "right"
    },
    {
      "midi": 80,
      "time": 649.75,
      "duration": 0.25,
      "velocity": 0.71,
      "hand": "right"
    },
    {
      "midi": 82,
      "time": 649.75,
      "duration": 0.25,
      "velocity": 0.71,
      "hand": "right"
    },
    {
      "midi": 56,
      "time": 650,
      "duration": 0.25,
      "velocity": 0.5,
      "hand": "left"
    },
    {
      "midi": 68,
      "time": 650,
      "duration": 0.25,
      "velocity": 0.71,
      "hand": "right"
    },
    {
      "midi": 60,
      "time": 650.25,
      "duration": 0.25,
      "velocity": 0.5,
      "hand": "right"
    },
    {
      "midi": 65,
      "time": 650.25,
      "duration": 0.25,
      "velocity": 0.5,
      "hand": "right"
    },
    {
      "midi": 73,
      "time": 650.25,
      "duration": 0.25,
      "velocity": 0.71,
      "hand": "right"
    },
    {
      "midi": 75,
      "time": 650.25,
      "duration": 0.25,
      "velocity": 0.71,
      "hand": "right"
    },
    {
      "midi": 77,
      "time": 650.25,
      "duration": 0.25,
      "velocity": 0.71,
      "hand": "right"
    },
    {
      "midi": 79,
      "time": 650.25,
      "duration": 0.25,
      "velocity": 0.71,
      "hand": "right"
    },
    {
      "midi": 48,
      "time": 650.5,
      "duration": 0.25,
      "velocity": 0.5,
      "hand": "left"
    },
    {
      "midi": 67,
      "time": 650.5,
      "duration": 0.25,
      "velocity": 0.71,
      "hand": "right"
    },
    {
      "midi": 60,
      "time": 650.75,
      "duration": 0.25,
      "velocity": 0.5,
      "hand": "right"
    },
    {
      "midi": 64,
      "time": 650.75,
      "duration": 0.25,
      "velocity": 0.5,
      "hand": "right"
    },
    {
      "midi": 70,
      "time": 650.75,
      "duration": 0.25,
      "velocity": 0.71,
      "hand": "right"
    },
    {
      "midi": 72,
      "time": 650.75,
      "duration": 0.25,
      "velocity": 0.71,
      "hand": "right"
    },
    {
      "midi": 76,
      "time": 650.75,
      "duration": 0.25,
      "velocity": 0.71,
      "hand": "right"
    },
    {
      "midi": 49,
      "time": 651,
      "duration": 1,
      "velocity": 0.71,
      "hand": "left"
    },
    {
      "midi": 70,
      "time": 651,
      "duration": 0.25,
      "velocity": 0.71,
      "hand": "right"
    },
    {
      "midi": 56,
      "time": 651.25,
      "duration": 0.25,
      "velocity": 0.71,
      "hand": "left"
    },
    {
      "midi": 61,
      "time": 651.25,
      "duration": 0.25,
      "velocity": 0.71,
      "hand": "right"
    },
    {
      "midi": 68,
      "time": 651.25,
      "duration": 0.25,
      "velocity": 0.71,
      "hand": "right"
    },
    {
      "midi": 76,
      "time": 651.25,
      "duration": 0.25,
      "velocity": 0.71,
      "hand": "right"
    },
    {
      "midi": 77,
      "time": 651.25,
      "duration": 0.25,
      "velocity": 0.71,
      "hand": "right"
    },
    {
      "midi": 79,
      "time": 651.25,
      "duration": 0.25,
      "velocity": 0.71,
      "hand": "right"
    },
    {
      "midi": 53,
      "time": 651.5,
      "duration": 0.25,
      "velocity": 0.71,
      "hand": "left"
    },
    {
      "midi": 77,
      "time": 651.5,
      "duration": 0.25,
      "velocity": 0.71,
      "hand": "right"
    },
    {
      "midi": 56,
      "time": 651.75,
      "duration": 0.25,
      "velocity": 0.71,
      "hand": "left"
    },
    {
      "midi": 61,
      "time": 651.75,
      "duration": 0.25,
      "velocity": 0.71,
      "hand": "right"
    },
    {
      "midi": 70,
      "time": 651.75,
      "duration": 0.25,
      "velocity": 0.71,
      "hand": "right"
    },
    {
      "midi": 73,
      "time": 651.75,
      "duration": 0.25,
      "velocity": 0.71,
      "hand": "right"
    },
    {
      "midi": 75,
      "time": 651.75,
      "duration": 0.25,
      "velocity": 0.71,
      "hand": "right"
    },
    {
      "midi": 46,
      "time": 652,
      "duration": 0.5,
      "velocity": 0.71,
      "hand": "left"
    },
    {
      "midi": 68,
      "time": 652,
      "duration": 0.25,
      "velocity": 0.71,
      "hand": "right"
    },
    {
      "midi": 55,
      "time": 652.25,
      "duration": 0.25,
      "velocity": 0.71,
      "hand": "left"
    },
    {
      "midi": 61,
      "time": 652.25,
      "duration": 0.25,
      "velocity": 0.71,
      "hand": "right"
    },
    {
      "midi": 67,
      "time": 652.25,
      "duration": 0.25,
      "velocity": 0.71,
      "hand": "right"
    },
    {
      "midi": 70,
      "time": 652.25,
      "duration": 0.25,
      "velocity": 0.71,
      "hand": "right"
    },
    {
      "midi": 72,
      "time": 652.25,
      "duration": 0.25,
      "velocity": 0.71,
      "hand": "right"
    },
    {
      "midi": 48,
      "time": 652.5,
      "duration": 0.25,
      "velocity": 0.71,
      "hand": "left"
    },
    {
      "midi": 65,
      "time": 652.5,
      "duration": 1,
      "velocity": 0.71,
      "hand": "right"
    },
    {
      "midi": 68,
      "time": 652.5,
      "duration": 0.5,
      "velocity": 0.71,
      "hand": "right"
    },
    {
      "midi": 60,
      "time": 652.75,
      "duration": 0.25,
      "velocity": 0.71,
      "hand": "right"
    },
    {
      "midi": 61,
      "time": 652.75,
      "duration": 0.25,
      "velocity": 0.71,
      "hand": "right"
    },
    {
      "midi": 60,
      "time": 653,
      "duration": 0.25,
      "velocity": 0.71,
      "hand": "right"
    },
    {
      "midi": 67,
      "time": 653,
      "duration": 1,
      "velocity": 0.71,
      "hand": "right"
    },
    {
      "midi": 59,
      "time": 653.25,
      "duration": 0.25,
      "velocity": 0.71,
      "hand": "left"
    },
    {
      "midi": 60,
      "time": 653.25,
      "duration": 0.25,
      "velocity": 0.71,
      "hand": "right"
    },
    {
      "midi": 55,
      "time": 653.5,
      "duration": 0.25,
      "velocity": 0.71,
      "hand": "left"
    },
    {
      "midi": 64,
      "time": 653.5,
      "duration": 0.5,
      "velocity": 0.71,
      "hand": "right"
    },
    {
      "midi": 57,
      "time": 653.75,
      "duration": 0.25,
      "velocity": 0.71,
      "hand": "left"
    },
    {
      "midi": 60,
      "time": 653.75,
      "duration": 0.25,
      "velocity": 0.71,
      "hand": "right"
    },
    {
      "midi": 58,
      "time": 654,
      "duration": 0.25,
      "velocity": 0.5,
      "hand": "left"
    },
    {
      "midi": 62,
      "time": 654,
      "duration": 0.5,
      "velocity": 0.71,
      "hand": "right"
    },
    {
      "midi": 63,
      "time": 654,
      "duration": 0.25,
      "velocity": 0.71,
      "hand": "right"
    },
    {
      "midi": 65,
      "time": 654,
      "duration": 0.5,
      "velocity": 0.71,
      "hand": "right"
    },
    {
      "midi": 72,
      "time": 654,
      "duration": 0.25,
      "velocity": 0.71,
      "hand": "right"
    },
    {
      "midi": 53,
      "time": 654.25,
      "duration": 0.25,
      "velocity": 0.5,
      "hand": "left"
    },
    {
      "midi": 55,
      "time": 654.25,
      "duration": 0.25,
      "velocity": 0.5,
      "hand": "left"
    },
    {
      "midi": 56,
      "time": 654.5,
      "duration": 0.25,
      "velocity": 0.5,
      "hand": "left"
    },
    {
      "midi": 60,
      "time": 654.5,
      "duration": 0.5,
      "velocity": 0.71,
      "hand": "right"
    },
    {
      "midi": 61,
      "time": 654.5,
      "duration": 0.25,
      "velocity": 0.71,
      "hand": "right"
    },
    {
      "midi": 63,
      "time": 654.5,
      "duration": 0.5,
      "velocity": 0.71,
      "hand": "right"
    },
    {
      "midi": 70,
      "time": 654.5,
      "duration": 0.25,
      "velocity": 0.71,
      "hand": "right"
    },
    {
      "midi": 51,
      "time": 654.75,
      "duration": 0.25,
      "velocity": 0.5,
      "hand": "left"
    },
    {
      "midi": 53,
      "time": 654.75,
      "duration": 0.25,
      "velocity": 0.5,
      "hand": "left"
    },
    {
      "midi": 55,
      "time": 655,
      "duration": 0.25,
      "velocity": 0.5,
      "hand": "left"
    },
    {
      "midi": 59,
      "time": 655,
      "duration": 0.5,
      "velocity": 0.71,
      "hand": "left"
    },
    {
      "midi": 60,
      "time": 655,
      "duration": 0.25,
      "velocity": 0.71,
      "hand": "right"
    },
    {
      "midi": 62,
      "time": 655,
      "duration": 0.5,
      "velocity": 0.71,
      "hand": "right"
    },
    {
      "midi": 68,
      "time": 655,
      "duration": 0.25,
      "velocity": 0.71,
      "hand": "right"
    },
    {
      "midi": 50,
      "time": 655.25,
      "duration": 0.25,
      "velocity": 0.5,
      "hand": "left"
    },
    {
      "midi": 52,
      "time": 655.25,
      "duration": 0.25,
      "velocity": 0.5,
      "hand": "left"
    },
    {
      "midi": 53,
      "time": 655.5,
      "duration": 0.25,
      "velocity": 0.5,
      "hand": "left"
    },
    {
      "midi": 57,
      "time": 655.5,
      "duration": 0.5,
      "velocity": 0.71,
      "hand": "left"
    },
    {
      "midi": 58,
      "time": 655.5,
      "duration": 0.25,
      "velocity": 0.71,
      "hand": "left"
    },
    {
      "midi": 60,
      "time": 655.5,
      "duration": 0.5,
      "velocity": 0.71,
      "hand": "right"
    },
    {
      "midi": 67,
      "time": 655.5,
      "duration": 0.25,
      "velocity": 0.71,
      "hand": "right"
    },
    {
      "midi": 48,
      "time": 655.75,
      "duration": 0.25,
      "velocity": 0.5,
      "hand": "left"
    },
    {
      "midi": 49,
      "time": 655.75,
      "duration": 0.25,
      "velocity": 0.5,
      "hand": "left"
    },
    {
      "midi": 46,
      "time": 656,
      "duration": 0.25,
      "velocity": 0.5,
      "hand": "left"
    },
    {
      "midi": 55,
      "time": 656,
      "duration": 0.5,
      "velocity": 0.71,
      "hand": "left"
    },
    {
      "midi": 56,
      "time": 656,
      "duration": 0.25,
      "velocity": 0.71,
      "hand": "left"
    },
    {
      "midi": 61,
      "time": 656,
      "duration": 0.5,
      "velocity": 0.71,
      "hand": "right"
    },
    {
      "midi": 65,
      "time": 656,
      "duration": 0.25,
      "velocity": 0.71,
      "hand": "right"
    },
    {
      "midi": 65,
      "time": 656,
      "duration": 0.5,
      "velocity": 0.71,
      "hand": "right"
    },
    {
      "midi": 45,
      "time": 656.25,
      "duration": 0.25,
      "velocity": 0.5,
      "hand": "left"
    },
    {
      "midi": 46,
      "time": 656.25,
      "duration": 0.25,
      "velocity": 0.5,
      "hand": "left"
    },
    {
      "midi": 48,
      "time": 656.5,
      "duration": 0.25,
      "velocity": 0.5,
      "hand": "left"
    },
    {
      "midi": 55,
      "time": 656.5,
      "duration": 0.5,
      "velocity": 0.71,
      "hand": "left"
    },
    {
      "midi": 60,
      "time": 656.5,
      "duration": 0.5,
      "velocity": 0.71,
      "hand": "right"
    },
    {
      "midi": 64,
      "time": 656.5,
      "duration": 0.5,
      "velocity": 0.71,
      "hand": "right"
    },
    {
      "midi": 47,
      "time": 656.75,
      "duration": 0.25,
      "velocity": 0.5,
      "hand": "left"
    },
    {
      "midi": 48,
      "time": 656.75,
      "duration": 0.25,
      "velocity": 0.5,
      "hand": "left"
    },
    {
      "midi": 45,
      "time": 657,
      "duration": 0.25,
      "velocity": 0.5,
      "hand": "left"
    },
    {
      "midi": 53,
      "time": 657,
      "duration": 1,
      "velocity": 0.71,
      "hand": "left"
    },
    {
      "midi": 60,
      "time": 657,
      "duration": 0.5,
      "velocity": 0.71,
      "hand": "right"
    },
    {
      "midi": 63,
      "time": 657,
      "duration": 0.5,
      "velocity": 0.71,
      "hand": "right"
    },
    {
      "midi": 44,
      "time": 657.25,
      "duration": 0.25,
      "velocity": 0.5,
      "hand": "left"
    },
    {
      "midi": 45,
      "time": 657.25,
      "duration": 0.25,
      "velocity": 0.5,
      "hand": "left"
    },
    {
      "midi": 46,
      "time": 657.5,
      "duration": 0.25,
      "velocity": 0.5,
      "hand": "left"
    },
    {
      "midi": 58,
      "time": 657.5,
      "duration": 1,
      "velocity": 0.71,
      "hand": "left"
    },
    {
      "midi": 61,
      "time": 657.5,
      "duration": 1,
      "velocity": 0.71,
      "hand": "right"
    },
    {
      "midi": 44,
      "time": 657.75,
      "duration": 0.25,
      "velocity": 0.5,
      "hand": "left"
    },
    {
      "midi": 48,
      "time": 657.75,
      "duration": 0.25,
      "velocity": 0.5,
      "hand": "left"
    },
    {
      "midi": 43,
      "time": 658,
      "duration": 0.25,
      "velocity": 0.5,
      "hand": "left"
    },
    {
      "midi": 52,
      "time": 658,
      "duration": 0.5,
      "velocity": 0.71,
      "hand": "left"
    },
    {
      "midi": 41,
      "time": 658.25,
      "duration": 0.25,
      "velocity": 0.5,
      "hand": "left"
    },
    {
      "midi": 44,
      "time": 658.25,
      "duration": 0.25,
      "velocity": 0.5,
      "hand": "left"
    },
    {
      "midi": 40,
      "time": 658.5,
      "duration": 0.25,
      "velocity": 0.5,
      "hand": "left"
    },
    {
      "midi": 53,
      "time": 658.5,
      "duration": 0.25,
      "velocity": 0.71,
      "hand": "left"
    },
    {
      "midi": 55,
      "time": 658.5,
      "duration": 0.5,
      "velocity": 0.71,
      "hand": "left"
    },
    {
      "midi": 58,
      "time": 658.5,
      "duration": 0.5,
      "velocity": 0.71,
      "hand": "left"
    },
    {
      "midi": 60,
      "time": 658.5,
      "duration": 1,
      "velocity": 0.71,
      "hand": "right"
    },
    {
      "midi": 41,
      "time": 658.75,
      "duration": 0.25,
      "velocity": 0.5,
      "hand": "left"
    },
    {
      "midi": 43,
      "time": 658.75,
      "duration": 0.25,
      "velocity": 0.5,
      "hand": "left"
    },
    {
      "midi": 41,
      "time": 659,
      "duration": 0.25,
      "velocity": 0.5,
      "hand": "left"
    },
    {
      "midi": 53,
      "time": 659,
      "duration": 0.5,
      "velocity": 0.71,
      "hand": "left"
    },
    {
      "midi": 56,
      "time": 659,
      "duration": 0.5,
      "velocity": 0.71,
      "hand": "left"
    },
    {
      "midi": 39,
      "time": 659.25,
      "duration": 0.25,
      "velocity": 0.5,
      "hand": "left"
    },
    {
      "midi": 43,
      "time": 659.25,
      "duration": 0.25,
      "velocity": 0.5,
      "hand": "left"
    },
    {
      "midi": 37,
      "time": 659.5,
      "duration": 0.25,
      "velocity": 0.5,
      "hand": "left"
    },
    {
      "midi": 53,
      "time": 659.5,
      "duration": 0.5,
      "velocity": 0.71,
      "hand": "left"
    },
    {
      "midi": 56,
      "time": 659.5,
      "duration": 0.5,
      "velocity": 0.71,
      "hand": "left"
    },
    {
      "midi": 65,
      "time": 659.5,
      "duration": 0.5,
      "velocity": 0.71,
      "hand": "right"
    },
    {
      "midi": 36,
      "time": 659.75,
      "duration": 0.25,
      "velocity": 0.5,
      "hand": "left"
    },
    {
      "midi": 39,
      "time": 659.75,
      "duration": 0.25,
      "velocity": 0.5,
      "hand": "left"
    },
    {
      "midi": 34,
      "time": 660,
      "duration": 0.25,
      "velocity": 0.5,
      "hand": "left"
    },
    {
      "midi": 53,
      "time": 660,
      "duration": 0.5,
      "velocity": 0.71,
      "hand": "left"
    },
    {
      "midi": 55,
      "time": 660,
      "duration": 0.5,
      "velocity": 0.71,
      "hand": "left"
    },
    {
      "midi": 65,
      "time": 660,
      "duration": 0.5,
      "velocity": 0.71,
      "hand": "right"
    },
    {
      "midi": 36,
      "time": 660.25,
      "duration": 0.25,
      "velocity": 0.5,
      "hand": "left"
    },
    {
      "midi": 37,
      "time": 660.25,
      "duration": 0.25,
      "velocity": 0.5,
      "hand": "left"
    },
    {
      "midi": 36,
      "time": 660.5,
      "duration": 0.25,
      "velocity": 0.5,
      "hand": "left"
    },
    {
      "midi": 51,
      "time": 660.5,
      "duration": 0.5,
      "velocity": 0.71,
      "hand": "left"
    },
    {
      "midi": 57,
      "time": 660.5,
      "duration": 0.5,
      "velocity": 0.71,
      "hand": "left"
    },
    {
      "midi": 39,
      "time": 660.75,
      "duration": 0.25,
      "velocity": 0.5,
      "hand": "left"
    },
    {
      "midi": 41,
      "time": 660.75,
      "duration": 0.25,
      "velocity": 0.5,
      "hand": "left"
    },
    {
      "midi": 37,
      "time": 661,
      "duration": 0.25,
      "velocity": 0.5,
      "hand": "left"
    },
    {
      "midi": 53,
      "time": 661,
      "duration": 0.5,
      "velocity": 0.71,
      "hand": "left"
    },
    {
      "midi": 58,
      "time": 661,
      "duration": 0.5,
      "velocity": 0.71,
      "hand": "left"
    },
    {
      "midi": 39,
      "time": 661.25,
      "duration": 0.25,
      "velocity": 0.5,
      "hand": "left"
    },
    {
      "midi": 41,
      "time": 661.25,
      "duration": 0.25,
      "velocity": 0.5,
      "hand": "left"
    },
    {
      "midi": 40,
      "time": 661.5,
      "duration": 0.25,
      "velocity": 0.5,
      "hand": "left"
    },
    {
      "midi": 55,
      "time": 661.5,
      "duration": 0.5,
      "velocity": 0.71,
      "hand": "left"
    },
    {
      "midi": 58,
      "time": 661.5,
      "duration": 0.5,
      "velocity": 0.71,
      "hand": "left"
    },
    {
      "midi": 60,
      "time": 661.5,
      "duration": 0.5,
      "velocity": 0.71,
      "hand": "right"
    },
    {
      "midi": 41,
      "time": 661.75,
      "duration": 0.25,
      "velocity": 0.5,
      "hand": "left"
    },
    {
      "midi": 43,
      "time": 661.75,
      "duration": 0.25,
      "velocity": 0.5,
      "hand": "left"
    },
    {
      "midi": 41,
      "time": 662,
      "duration": 0.25,
      "velocity": 0.5,
      "hand": "left"
    },
    {
      "midi": 56,
      "time": 662,
      "duration": 0.5,
      "velocity": 0.71,
      "hand": "left"
    },
    {
      "midi": 60,
      "time": 662,
      "duration": 0.5,
      "velocity": 0.71,
      "hand": "right"
    },
    {
      "midi": 68,
      "time": 662,
      "duration": 0.5,
      "velocity": 0.71,
      "hand": "right"
    },
    {
      "midi": 44,
      "time": 662.25,
      "duration": 0.25,
      "velocity": 0.5,
      "hand": "left"
    },
    {
      "midi": 46,
      "time": 662.25,
      "duration": 0.25,
      "velocity": 0.5,
      "hand": "left"
    },
    {
      "midi": 43,
      "time": 662.5,
      "duration": 0.25,
      "velocity": 0.5,
      "hand": "left"
    },
    {
      "midi": 58,
      "time": 662.5,
      "duration": 0.5,
      "velocity": 0.71,
      "hand": "left"
    },
    {
      "midi": 60,
      "time": 662.5,
      "duration": 0.5,
      "velocity": 0.71,
      "hand": "right"
    },
    {
      "midi": 64,
      "time": 662.5,
      "duration": 0.5,
      "velocity": 0.71,
      "hand": "right"
    },
    {
      "midi": 44,
      "time": 662.75,
      "duration": 0.25,
      "velocity": 0.5,
      "hand": "left"
    },
    {
      "midi": 46,
      "time": 662.75,
      "duration": 0.25,
      "velocity": 0.5,
      "hand": "left"
    },
    {
      "midi": 44,
      "time": 663,
      "duration": 0.25,
      "velocity": 0.5,
      "hand": "left"
    },
    {
      "midi": 56,
      "time": 663,
      "duration": 0.5,
      "velocity": 0.71,
      "hand": "left"
    },
    {
      "midi": 60,
      "time": 663,
      "duration": 0.5,
      "velocity": 0.71,
      "hand": "right"
    },
    {
      "midi": 65,
      "time": 663,
      "duration": 0.5,
      "velocity": 0.71,
      "hand": "right"
    },
    {
      "midi": 46,
      "time": 663.25,
      "duration": 0.25,
      "velocity": 0.5,
      "hand": "left"
    },
    {
      "midi": 48,
      "time": 663.25,
      "duration": 0.25,
      "velocity": 0.5,
      "hand": "left"
    },
    {
      "midi": 45,
      "time": 663.5,
      "duration": 0.25,
      "velocity": 0.5,
      "hand": "left"
    },
    {
      "midi": 54,
      "time": 663.5,
      "duration": 0.5,
      "velocity": 0.71,
      "hand": "left"
    },
    {
      "midi": 60,
      "time": 663.5,
      "duration": 0.5,
      "velocity": 0.71,
      "hand": "right"
    },
    {
      "midi": 63,
      "time": 663.5,
      "duration": 0.5,
      "velocity": 0.71,
      "hand": "right"
    },
    {
      "midi": 44,
      "time": 663.75,
      "duration": 0.25,
      "velocity": 0.5,
      "hand": "left"
    },
    {
      "midi": 45,
      "time": 663.75,
      "duration": 0.25,
      "velocity": 0.5,
      "hand": "left"
    },
    {
      "midi": 46,
      "time": 664,
      "duration": 0.25,
      "velocity": 0.5,
      "hand": "left"
    },
    {
      "midi": 53,
      "time": 664,
      "duration": 0.5,
      "velocity": 0.71,
      "hand": "left"
    },
    {
      "midi": 58,
      "time": 664,
      "duration": 0.5,
      "velocity": 0.71,
      "hand": "left"
    },
    {
      "midi": 61,
      "time": 664,
      "duration": 0.5,
      "velocity": 0.71,
      "hand": "right"
    },
    {
      "midi": 48,
      "time": 664.25,
      "duration": 0.25,
      "velocity": 0.5,
      "hand": "left"
    },
    {
      "midi": 49,
      "time": 664.25,
      "duration": 0.25,
      "velocity": 0.5,
      "hand": "left"
    },
    {
      "midi": 48,
      "time": 664.5,
      "duration": 0.25,
      "velocity": 0.5,
      "hand": "left"
    },
    {
      "midi": 53,
      "time": 664.5,
      "duration": 1,
      "velocity": 0.71,
      "hand": "left"
    },
    {
      "midi": 56,
      "time": 664.5,
      "duration": 1,
      "velocity": 0.71,
      "hand": "left"
    },
    {
      "midi": 60,
      "time": 664.5,
      "duration": 1,
      "velocity": 0.71,
      "hand": "right"
    },
    {
      "midi": 41,
      "time": 664.75,
      "duration": 0.25,
      "velocity": 0.5,
      "hand": "left"
    },
    {
      "midi": 44,
      "time": 664.75,
      "duration": 0.25,
      "velocity": 0.5,
      "hand": "left"
    },
    {
      "midi": 37,
      "time": 665,
      "duration": 0.25,
      "velocity": 0.5,
      "hand": "left"
    },
    {
      "midi": 36,
      "time": 665.25,
      "duration": 0.25,
      "velocity": 0.5,
      "hand": "left"
    },
    {
      "midi": 37,
      "time": 665.25,
      "duration": 0.25,
      "velocity": 0.5,
      "hand": "left"
    },
    {
      "midi": 36,
      "time": 665.5,
      "duration": 0.25,
      "velocity": 0.5,
      "hand": "left"
    },
    {
      "midi": 52,
      "time": 665.5,
      "duration": 0.5,
      "velocity": 0.71,
      "hand": "left"
    },
    {
      "midi": 58,
      "time": 665.5,
      "duration": 0.5,
      "velocity": 0.71,
      "hand": "left"
    },
    {
      "midi": 60,
      "time": 665.5,
      "duration": 0.5,
      "velocity": 0.71,
      "hand": "right"
    },
    {
      "midi": 43,
      "time": 665.75,
      "duration": 0.25,
      "velocity": 0.5,
      "hand": "left"
    },
    {
      "midi": 44,
      "time": 665.75,
      "duration": 0.25,
      "velocity": 0.5,
      "hand": "left"
    },
    {
      "midi": 41,
      "time": 666,
      "duration": 0.5,
      "velocity": 0.5,
      "hand": "left"
    },
    {
      "midi": 48,
      "time": 666,
      "duration": 0.5,
      "velocity": 0.5,
      "hand": "left"
    },
    {
      "midi": 56,
      "time": 666,
      "duration": 0.25,
      "velocity": 0.71,
      "hand": "left"
    },
    {
      "midi": 65,
      "time": 666,
      "duration": 0.25,
      "velocity": 0.71,
      "hand": "right"
    },
    {
      "midi": 57,
      "time": 666.25,
      "duration": 0.25,
      "velocity": 0.71,
      "hand": "left"
    },
    {
      "midi": 60,
      "time": 666.25,
      "duration": 0.25,
      "velocity": 0.71,
      "hand": "right"
    },
    {
      "midi": 66,
      "time": 666.25,
      "duration": 0.25,
      "velocity": 0.71,
      "hand": "right"
    },
    {
      "midi": 51,
      "time": 666.5,
      "duration": 0.25,
      "velocity": 0.5,
      "hand": "left"
    },
    {
      "midi": 54,
      "time": 666.5,
      "duration": 0.5,
      "velocity": 0.5,
      "hand": "left"
    },
    {
      "midi": 62,
      "time": 666.5,
      "duration": 0.25,
      "velocity": 0.71,
      "hand": "right"
    },
    {
      "midi": 69,
      "time": 666.5,
      "duration": 0.25,
      "velocity": 0.71,
      "hand": "right"
    },
    {
      "midi": 63,
      "time": 666.75,
      "duration": 0.25,
      "velocity": 0.71,
      "hand": "right"
    },
    {
      "midi": 66,
      "time": 666.75,
      "duration": 0.25,
      "velocity": 0.71,
      "hand": "right"
    },
    {
      "midi": 72,
      "time": 666.75,
      "duration": 0.25,
      "velocity": 0.71,
      "hand": "right"
    },
    {
      "midi": 57,
      "time": 667,
      "duration": 0.25,
      "velocity": 0.5,
      "hand": "left"
    },
    {
      "midi": 60,
      "time": 667,
      "duration": 0.5,
      "velocity": 0.5,
      "hand": "right"
    },
    {
      "midi": 68,
      "time": 667,
      "duration": 0.25,
      "velocity": 0.71,
      "hand": "right"
    },
    {
      "midi": 75,
      "time": 667,
      "duration": 0.25,
      "velocity": 0.71,
      "hand": "right"
    },
    {
      "midi": 69,
      "time": 667.25,
      "duration": 0.25,
      "velocity": 0.71,
      "hand": "right"
    },
    {
      "midi": 72,
      "time": 667.25,
      "duration": 0.25,
      "velocity": 0.71,
      "hand": "right"
    },
    {
      "midi": 78,
      "time": 667.25,
      "duration": 0.25,
      "velocity": 0.71,
      "hand": "right"
    },
    {
      "midi": 63,
      "time": 667.5,
      "duration": 0.25,
      "velocity": 0.5,
      "hand": "right"
    },
    {
      "midi": 66,
      "time": 667.5,
      "duration": 0.5,
      "velocity": 0.5,
      "hand": "right"
    },
    {
      "midi": 74,
      "time": 667.5,
      "duration": 0.25,
      "velocity": 0.71,
      "hand": "right"
    },
    {
      "midi": 81,
      "time": 667.5,
      "duration": 0.25,
      "velocity": 0.71,
      "hand": "right"
    },
    {
      "midi": 75,
      "time": 667.75,
      "duration": 0.25,
      "velocity": 0.71,
      "hand": "right"
    },
    {
      "midi": 78,
      "time": 667.75,
      "duration": 0.25,
      "velocity": 0.71,
      "hand": "right"
    },
    {
      "midi": 84,
      "time": 667.75,
      "duration": 0.25,
      "velocity": 0.71,
      "hand": "right"
    },
    {
      "midi": 69,
      "time": 668,
      "duration": 0.25,
      "velocity": 0.5,
      "hand": "right"
    },
    {
      "midi": 72,
      "time": 668,
      "duration": 0.5,
      "velocity": 0.5,
      "hand": "right"
    },
    {
      "midi": 80,
      "time": 668,
      "duration": 0.25,
      "velocity": 0.71,
      "hand": "right"
    },
    {
      "midi": 87,
      "time": 668,
      "duration": 0.25,
      "velocity": 0.71,
      "hand": "right"
    },
    {
      "midi": 81,
      "time": 668.25,
      "duration": 0.25,
      "velocity": 0.71,
      "hand": "right"
    },
    {
      "midi": 84,
      "time": 668.25,
      "duration": 0.25,
      "velocity": 0.71,
      "hand": "right"
    },
    {
      "midi": 90,
      "time": 668.25,
      "duration": 0.25,
      "velocity": 0.71,
      "hand": "right"
    },
    {
      "midi": 75,
      "time": 668.5,
      "duration": 0.25,
      "velocity": 0.5,
      "hand": "right"
    },
    {
      "midi": 78,
      "time": 668.5,
      "duration": 0.5,
      "velocity": 0.5,
      "hand": "right"
    },
    {
      "midi": 86,
      "time": 668.5,
      "duration": 0.25,
      "velocity": 0.71,
      "hand": "right"
    },
    {
      "midi": 93,
      "time": 668.5,
      "duration": 0.25,
      "velocity": 0.71,
      "hand": "right"
    },
    {
      "midi": 87,
      "time": 668.75,
      "duration": 0.25,
      "velocity": 0.71,
      "hand": "right"
    },
    {
      "midi": 90,
      "time": 668.75,
      "duration": 0.25,
      "velocity": 0.71,
      "hand": "right"
    },
    {
      "midi": 96,
      "time": 668.75,
      "duration": 0.25,
      "velocity": 0.71,
      "hand": "right"
    },
    {
      "midi": 81,
      "time": 669,
      "duration": 0.25,
      "velocity": 0.5,
      "hand": "right"
    },
    {
      "midi": 84,
      "time": 669,
      "duration": 0.5,
      "velocity": 0.5,
      "hand": "right"
    },
    {
      "midi": 93,
      "time": 669,
      "duration": 0.5,
      "velocity": 0.5,
      "hand": "right"
    },
    {
      "midi": 99,
      "time": 669,
      "duration": 0.5,
      "velocity": 0.5,
      "hand": "right"
    },
    {
      "midi": 42,
      "time": 669.5,
      "duration": 0.25,
      "velocity": 0.5,
      "hand": "left"
    },
    {
      "midi": 54,
      "time": 669.5,
      "duration": 0.25,
      "velocity": 0.5,
      "hand": "left"
    },
    {
      "midi": 57,
      "time": 669.5,
      "duration": 0.5,
      "velocity": 0.71,
      "hand": "left"
    },
    {
      "midi": 60,
      "time": 669.5,
      "duration": 0.5,
      "velocity": 0.71,
      "hand": "right"
    },
    {
      "midi": 63,
      "time": 669.5,
      "duration": 0.25,
      "velocity": 0.71,
      "hand": "right"
    },
    {
      "midi": 69,
      "time": 669.5,
      "duration": 0.5,
      "velocity": 0.71,
      "hand": "right"
    },
    {
      "midi": 39,
      "time": 669.75,
      "duration": 0.25,
      "velocity": 0.5,
      "hand": "left"
    },
    {
      "midi": 41,
      "time": 669.75,
      "duration": 0.25,
      "velocity": 0.5,
      "hand": "left"
    },
    {
      "midi": 51,
      "time": 669.75,
      "duration": 0.25,
      "velocity": 0.5,
      "hand": "left"
    },
    {
      "midi": 53,
      "time": 669.75,
      "duration": 0.25,
      "velocity": 0.5,
      "hand": "left"
    },
    {
      "midi": 65,
      "time": 669.75,
      "duration": 0.25,
      "velocity": 0.71,
      "hand": "right"
    },
    {
      "midi": 66,
      "time": 669.75,
      "duration": 0.25,
      "velocity": 0.71,
      "hand": "right"
    },
    {
      "midi": 37,
      "time": 670,
      "duration": 0.25,
      "velocity": 0.5,
      "hand": "left"
    },
    {
      "midi": 49,
      "time": 670,
      "duration": 0.25,
      "velocity": 0.5,
      "hand": "left"
    },
    {
      "midi": 58,
      "time": 670,
      "duration": 0.5,
      "velocity": 0.71,
      "hand": "left"
    },
    {
      "midi": 65,
      "time": 670,
      "duration": 0.5,
      "velocity": 0.71,
      "hand": "right"
    },
    {
      "midi": 70,
      "time": 670,
      "duration": 0.5,
      "velocity": 0.71,
      "hand": "right"
    },
    {
      "midi": 34,
      "time": 670.25,
      "duration": 0.25,
      "velocity": 0.5,
      "hand": "left"
    },
    {
      "midi": 36,
      "time": 670.25,
      "duration": 0.25,
      "velocity": 0.5,
      "hand": "left"
    },
    {
      "midi": 46,
      "time": 670.25,
      "duration": 0.25,
      "velocity": 0.5,
      "hand": "left"
    },
    {
      "midi": 48,
      "time": 670.25,
      "duration": 0.25,
      "velocity": 0.5,
      "hand": "left"
    },
    {
      "midi": 32,
      "time": 670.5,
      "duration": 0.25,
      "velocity": 0.5,
      "hand": "left"
    },
    {
      "midi": 44,
      "time": 670.5,
      "duration": 0.25,
      "velocity": 0.5,
      "hand": "left"
    },
    {
      "midi": 61,
      "time": 670.5,
      "duration": 0.5,
      "velocity": 0.71,
      "hand": "right"
    },
    {
      "midi": 65,
      "time": 670.5,
      "duration": 0.5,
      "velocity": 0.71,
      "hand": "right"
    },
    {
      "midi": 70,
      "time": 670.5,
      "duration": 0.5,
      "velocity": 0.71,
      "hand": "right"
    },
    {
      "midi": 73,
      "time": 670.5,
      "duration": 0.5,
      "velocity": 0.71,
      "hand": "right"
    },
    {
      "midi": 31,
      "time": 670.75,
      "duration": 0.25,
      "velocity": 0.5,
      "hand": "left"
    },
    {
      "midi": 43,
      "time": 670.75,
      "duration": 0.25,
      "velocity": 0.5,
      "hand": "left"
    },
    {
      "midi": 31,
      "time": 671,
      "duration": 0.25,
      "velocity": 0.5,
      "hand": "left"
    },
    {
      "midi": 43,
      "time": 671,
      "duration": 0.25,
      "velocity": 0.5,
      "hand": "left"
    },
    {
      "midi": 60,
      "time": 671,
      "duration": 0.5,
      "velocity": 0.71,
      "hand": "right"
    },
    {
      "midi": 64,
      "time": 671,
      "duration": 0.5,
      "velocity": 0.71,
      "hand": "right"
    },
    {
      "midi": 70,
      "time": 671,
      "duration": 0.5,
      "velocity": 0.71,
      "hand": "right"
    },
    {
      "midi": 72,
      "time": 671,
      "duration": 0.5,
      "velocity": 0.71,
      "hand": "right"
    },
    {
      "midi": 24,
      "time": 671.25,
      "duration": 0.25,
      "velocity": 0.5,
      "hand": "left"
    },
    {
      "midi": 36,
      "time": 671.25,
      "duration": 0.25,
      "velocity": 0.5,
      "hand": "left"
    },
    {
      "midi": 25,
      "time": 671.5,
      "duration": 0.25,
      "velocity": 0.5,
      "hand": "left"
    },
    {
      "midi": 37,
      "time": 671.5,
      "duration": 0.25,
      "velocity": 0.5,
      "hand": "left"
    },
    {
      "midi": 52,
      "time": 671.5,
      "duration": 0.5,
      "velocity": 0.71,
      "hand": "left"
    },
    {
      "midi": 58,
      "time": 671.5,
      "duration": 0.5,
      "velocity": 0.71,
      "hand": "left"
    },
    {
      "midi": 64,
      "time": 671.5,
      "duration": 0.5,
      "velocity": 0.71,
      "hand": "right"
    },
    {
      "midi": 24,
      "time": 671.75,
      "duration": 0.25,
      "velocity": 0.5,
      "hand": "left"
    },
    {
      "midi": 36,
      "time": 671.75,
      "duration": 0.25,
      "velocity": 0.5,
      "hand": "left"
    },
    {
      "midi": 29,
      "time": 672,
      "duration": 0.25,
      "velocity": 0.5,
      "hand": "left"
    },
    {
      "midi": 41,
      "time": 672,
      "duration": 0.25,
      "velocity": 0.5,
      "hand": "left"
    },
    {
      "midi": 56,
      "time": 672,
      "duration": 0.25,
      "velocity": 0.5,
      "hand": "left"
    },
    {
      "midi": 65,
      "time": 672,
      "duration": 0.25,
      "velocity": 0.5,
      "hand": "right"
    },
    {
      "midi": 51,
      "time": 672.25,
      "duration": 0.25,
      "velocity": 0.5,
      "hand": "left"
    },
    {
      "midi": 57,
      "time": 672.25,
      "duration": 0.25,
      "velocity": 0.5,
      "hand": "left"
    },
    {
      "midi": 60,
      "time": 672.25,
      "duration": 0.25,
      "velocity": 0.51,
      "hand": "right"
    },
    {
      "midi": 66,
      "time": 672.25,
      "duration": 0.25,
      "velocity": 0.51,
      "hand": "right"
    },
    {
      "midi": 54,
      "time": 672.5,
      "duration": 0.5,
      "velocity": 0.5,
      "hand": "left"
    },
    {
      "midi": 62,
      "time": 672.5,
      "duration": 0.25,
      "velocity": 0.53,
      "hand": "right"
    },
    {
      "midi": 69,
      "time": 672.5,
      "duration": 0.25,
      "velocity": 0.53,
      "hand": "right"
    },
    {
      "midi": 63,
      "time": 672.75,
      "duration": 0.25,
      "velocity": 0.54,
      "hand": "right"
    },
    {
      "midi": 67,
      "time": 672.75,
      "duration": 0.25,
      "velocity": 0.55,
      "hand": "right"
    },
    {
      "midi": 72,
      "time": 672.75,
      "duration": 0.25,
      "velocity": 0.55,
      "hand": "right"
    },
    {
      "midi": 57,
      "time": 673,
      "duration": 0.25,
      "velocity": 0.5,
      "hand": "left"
    },
    {
      "midi": 60,
      "time": 673,
      "duration": 0.5,
      "velocity": 0.5,
      "hand": "right"
    },
    {
      "midi": 68,
      "time": 673,
      "duration": 0.25,
      "velocity": 0.57,
      "hand": "right"
    },
    {
      "midi": 75,
      "time": 673,
      "duration": 0.25,
      "velocity": 0.57,
      "hand": "right"
    },
    {
      "midi": 69,
      "time": 673.25,
      "duration": 0.25,
      "velocity": 0.58,
      "hand": "right"
    },
    {
      "midi": 72,
      "time": 673.25,
      "duration": 0.25,
      "velocity": 0.6,
      "hand": "right"
    },
    {
      "midi": 78,
      "time": 673.25,
      "duration": 0.25,
      "velocity": 0.6,
      "hand": "right"
    },
    {
      "midi": 63,
      "time": 673.5,
      "duration": 0.25,
      "velocity": 0.5,
      "hand": "right"
    },
    {
      "midi": 66,
      "time": 673.5,
      "duration": 0.5,
      "velocity": 0.5,
      "hand": "right"
    },
    {
      "midi": 74,
      "time": 673.5,
      "duration": 0.25,
      "velocity": 0.61,
      "hand": "right"
    },
    {
      "midi": 81,
      "time": 673.5,
      "duration": 0.25,
      "velocity": 0.61,
      "hand": "right"
    },
    {
      "midi": 75,
      "time": 673.75,
      "duration": 0.25,
      "velocity": 0.62,
      "hand": "right"
    },
    {
      "midi": 78,
      "time": 673.75,
      "duration": 0.25,
      "velocity": 0.64,
      "hand": "right"
    },
    {
      "midi": 84,
      "time": 673.75,
      "duration": 0.25,
      "velocity": 0.64,
      "hand": "right"
    },
    {
      "midi": 69,
      "time": 674,
      "duration": 0.25,
      "velocity": 0.5,
      "hand": "right"
    },
    {
      "midi": 72,
      "time": 674,
      "duration": 0.5,
      "velocity": 0.5,
      "hand": "right"
    },
    {
      "midi": 80,
      "time": 674,
      "duration": 0.25,
      "velocity": 0.65,
      "hand": "right"
    },
    {
      "midi": 87,
      "time": 674,
      "duration": 0.25,
      "velocity": 0.65,
      "hand": "right"
    },
    {
      "midi": 81,
      "time": 674.25,
      "duration": 0.25,
      "velocity": 0.66,
      "hand": "right"
    },
    {
      "midi": 84,
      "time": 674.25,
      "duration": 0.25,
      "velocity": 0.68,
      "hand": "right"
    },
    {
      "midi": 90,
      "time": 674.25,
      "duration": 0.25,
      "velocity": 0.68,
      "hand": "right"
    },
    {
      "midi": 75,
      "time": 674.5,
      "duration": 0.25,
      "velocity": 0.5,
      "hand": "right"
    },
    {
      "midi": 78,
      "time": 674.5,
      "duration": 0.5,
      "velocity": 0.5,
      "hand": "right"
    },
    {
      "midi": 86,
      "time": 674.5,
      "duration": 0.25,
      "velocity": 0.69,
      "hand": "right"
    },
    {
      "midi": 93,
      "time": 674.5,
      "duration": 0.25,
      "velocity": 0.69,
      "hand": "right"
    },
    {
      "midi": 87,
      "time": 674.75,
      "duration": 0.25,
      "velocity": 0.71,
      "hand": "right"
    },
    {
      "midi": 90,
      "time": 674.75,
      "duration": 0.25,
      "velocity": 0.72,
      "hand": "right"
    },
    {
      "midi": 96,
      "time": 674.75,
      "duration": 0.25,
      "velocity": 0.72,
      "hand": "right"
    },
    {
      "midi": 81,
      "time": 675,
      "duration": 0.25,
      "velocity": 0.5,
      "hand": "right"
    },
    {
      "midi": 84,
      "time": 675,
      "duration": 0.5,
      "velocity": 0.5,
      "hand": "right"
    },
    {
      "midi": 93,
      "time": 675,
      "duration": 0.5,
      "velocity": 0.72,
      "hand": "right"
    },
    {
      "midi": 99,
      "time": 675,
      "duration": 0.5,
      "velocity": 0.72,
      "hand": "right"
    },
    {
      "midi": 101,
      "time": 675,
      "duration": 0.5,
      "velocity": 0.72,
      "hand": "right"
    },
    {
      "midi": 54,
      "time": 675.5,
      "duration": 0.25,
      "velocity": 0.5,
      "hand": "left"
    },
    {
      "midi": 66,
      "time": 675.5,
      "duration": 0.25,
      "velocity": 0.5,
      "hand": "right"
    },
    {
      "midi": 69,
      "time": 675.5,
      "duration": 0.5,
      "velocity": 0.71,
      "hand": "right"
    },
    {
      "midi": 72,
      "time": 675.5,
      "duration": 0.5,
      "velocity": 0.71,
      "hand": "right"
    },
    {
      "midi": 75,
      "time": 675.5,
      "duration": 0.25,
      "velocity": 0.71,
      "hand": "right"
    },
    {
      "midi": 81,
      "time": 675.5,
      "duration": 0.5,
      "velocity": 0.71,
      "hand": "right"
    },
    {
      "midi": 51,
      "time": 675.75,
      "duration": 0.25,
      "velocity": 0.5,
      "hand": "left"
    },
    {
      "midi": 53,
      "time": 675.75,
      "duration": 0.25,
      "velocity": 0.5,
      "hand": "left"
    },
    {
      "midi": 63,
      "time": 675.75,
      "duration": 0.25,
      "velocity": 0.5,
      "hand": "right"
    },
    {
      "midi": 65,
      "time": 675.75,
      "duration": 0.25,
      "velocity": 0.5,
      "hand": "right"
    },
    {
      "midi": 77,
      "time": 675.75,
      "duration": 0.25,
      "velocity": 0.71,
      "hand": "right"
    },
    {
      "midi": 78,
      "time": 675.75,
      "duration": 0.25,
      "velocity": 0.71,
      "hand": "right"
    },
    {
      "midi": 49,
      "time": 676,
      "duration": 0.25,
      "velocity": 0.5,
      "hand": "left"
    },
    {
      "midi": 61,
      "time": 676,
      "duration": 0.25,
      "velocity": 0.5,
      "hand": "right"
    },
    {
      "midi": 70,
      "time": 676,
      "duration": 0.5,
      "velocity": 0.71,
      "hand": "right"
    },
    {
      "midi": 77,
      "time": 676,
      "duration": 0.5,
      "velocity": 0.71,
      "hand": "right"
    },
    {
      "midi": 82,
      "time": 676,
      "duration": 0.5,
      "velocity": 0.71,
      "hand": "right"
    },
    {
      "midi": 46,
      "time": 676.25,
      "duration": 0.25,
      "velocity": 0.5,
      "hand": "left"
    },
    {
      "midi": 48,
      "time": 676.25,
      "duration": 0.25,
      "velocity": 0.5,
      "hand": "left"
    },
    {
      "midi": 58,
      "time": 676.25,
      "duration": 0.25,
      "velocity": 0.5,
      "hand": "left"
    },
    {
      "midi": 60,
      "time": 676.25,
      "duration": 0.25,
      "velocity": 0.5,
      "hand": "right"
    },
    {
      "midi": 44,
      "time": 676.5,
      "duration": 0.25,
      "velocity": 0.5,
      "hand": "left"
    },
    {
      "midi": 56,
      "time": 676.5,
      "duration": 0.25,
      "velocity": 0.5,
      "hand": "left"
    },
    {
      "midi": 73,
      "time": 676.5,
      "duration": 0.5,
      "velocity": 0.71,
      "hand": "right"
    },
    {
      "midi": 77,
      "time": 676.5,
      "duration": 0.5,
      "velocity": 0.71,
      "hand": "right"
    },
    {
      "midi": 82,
      "time": 676.5,
      "duration": 0.5,
      "velocity": 0.71,
      "hand": "right"
    },
    {
      "midi": 85,
      "time": 676.5,
      "duration": 0.5,
      "velocity": 0.71,
      "hand": "right"
    },
    {
      "midi": 43,
      "time": 676.75,
      "duration": 0.25,
      "velocity": 0.5,
      "hand": "left"
    },
    {
      "midi": 55,
      "time": 676.75,
      "duration": 0.25,
      "velocity": 0.5,
      "hand": "left"
    },
    {
      "midi": 43,
      "time": 677,
      "duration": 0.25,
      "velocity": 0.5,
      "hand": "left"
    },
    {
      "midi": 55,
      "time": 677,
      "duration": 0.25,
      "velocity": 0.5,
      "hand": "left"
    },
    {
      "midi": 72,
      "time": 677,
      "duration": 0.5,
      "velocity": 0.71,
      "hand": "right"
    },
    {
      "midi": 76,
      "time": 677,
      "duration": 0.5,
      "velocity": 0.71,
      "hand": "right"
    },
    {
      "midi": 82,
      "time": 677,
      "duration": 0.5,
      "velocity": 0.71,
      "hand": "right"
    },
    {
      "midi": 84,
      "time": 677,
      "duration": 0.5,
      "velocity": 0.71,
      "hand": "right"
    },
    {
      "midi": 36,
      "time": 677.25,
      "duration": 0.25,
      "velocity": 0.5,
      "hand": "left"
    },
    {
      "midi": 48,
      "time": 677.25,
      "duration": 0.25,
      "velocity": 0.5,
      "hand": "left"
    },
    {
      "midi": 37,
      "time": 677.5,
      "duration": 0.25,
      "velocity": 0.5,
      "hand": "left"
    },
    {
      "midi": 49,
      "time": 677.5,
      "duration": 0.25,
      "velocity": 0.5,
      "hand": "left"
    },
    {
      "midi": 64,
      "time": 677.5,
      "duration": 0.5,
      "velocity": 0.71,
      "hand": "right"
    },
    {
      "midi": 70,
      "time": 677.5,
      "duration": 0.5,
      "velocity": 0.71,
      "hand": "right"
    },
    {
      "midi": 76,
      "time": 677.5,
      "duration": 0.5,
      "velocity": 0.71,
      "hand": "right"
    },
    {
      "midi": 36,
      "time": 677.75,
      "duration": 0.25,
      "velocity": 0.5,
      "hand": "left"
    },
    {
      "midi": 48,
      "time": 677.75,
      "duration": 0.25,
      "velocity": 0.5,
      "hand": "left"
    },
    {
      "midi": 29,
      "time": 678,
      "duration": 0.25,
      "velocity": 0.5,
      "hand": "left"
    },
    {
      "midi": 65,
      "time": 678,
      "duration": 0.5,
      "velocity": 0.71,
      "hand": "right"
    },
    {
      "midi": 68,
      "time": 678,
      "duration": 0.5,
      "velocity": 0.71,
      "hand": "right"
    },
    {
      "midi": 77,
      "time": 678,
      "duration": 0.5,
      "velocity": 0.71,
      "hand": "right"
    },
    {
      "midi": 36,
      "time": 678.25,
      "duration": 0.25,
      "velocity": 0.54,
      "hand": "left"
    },
    {
      "midi": 44,
      "time": 678.25,
      "duration": 0.25,
      "velocity": 0.54,
      "hand": "left"
    },
    {
      "midi": 49,
      "time": 678.5,
      "duration": 0.25,
      "velocity": 0.71,
      "hand": "left"
    },
    {
      "midi": 48,
      "time": 678.75,
      "duration": 0.25,
      "velocity": 0.71,
      "hand": "left"
    },
    {
      "midi": 53,
      "time": 678.75,
      "duration": 0.25,
      "velocity": 0.71,
      "hand": "left"
    },
    {
      "midi": 56,
      "time": 679,
      "duration": 0.25,
      "velocity": 0.71,
      "hand": "left"
    },
    {
      "midi": 53,
      "time": 679.25,
      "duration": 0.25,
      "velocity": 0.71,
      "hand": "left"
    },
    {
      "midi": 58,
      "time": 679.25,
      "duration": 0.25,
      "velocity": 0.71,
      "hand": "left"
    },
    {
      "midi": 36,
      "time": 679.5,
      "duration": 0.25,
      "velocity": 0.54,
      "hand": "left"
    },
    {
      "midi": 56,
      "time": 679.5,
      "duration": 0.25,
      "velocity": 0.71,
      "hand": "left"
    },
    {
      "midi": 43,
      "time": 679.75,
      "duration": 0.25,
      "velocity": 0.54,
      "hand": "left"
    },
    {
      "midi": 52,
      "time": 679.75,
      "duration": 0.25,
      "velocity": 0.71,
      "hand": "left"
    },
    {
      "midi": 55,
      "time": 679.75,
      "duration": 0.25,
      "velocity": 0.71,
      "hand": "left"
    },
    {
      "midi": 52,
      "time": 680,
      "duration": 0.25,
      "velocity": 0.54,
      "hand": "left"
    },
    {
      "midi": 56,
      "time": 680,
      "duration": 0.25,
      "velocity": 0.71,
      "hand": "left"
    },
    {
      "midi": 40,
      "time": 680.25,
      "duration": 0.25,
      "velocity": 0.54,
      "hand": "left"
    },
    {
      "midi": 55,
      "time": 680.25,
      "duration": 0.25,
      "velocity": 0.71,
      "hand": "left"
    },
    {
      "midi": 60,
      "time": 680.25,
      "duration": 0.25,
      "velocity": 0.71,
      "hand": "right"
    },
    {
      "midi": 48,
      "time": 680.5,
      "duration": 0.25,
      "velocity": 0.54,
      "hand": "left"
    },
    {
      "midi": 61,
      "time": 680.5,
      "duration": 0.25,
      "velocity": 0.71,
      "hand": "right"
    },
    {
      "midi": 58,
      "time": 680.75,
      "duration": 0.25,
      "velocity": 0.54,
      "hand": "left"
    },
    {
      "midi": 60,
      "time": 680.75,
      "duration": 0.25,
      "velocity": 0.71,
      "hand": "right"
    },
    {
      "midi": 68,
      "time": 680.75,
      "duration": 0.25,
      "velocity": 0.71,
      "hand": "right"
    },
    {
      "midi": 41,
      "time": 681,
      "duration": 0.25,
      "velocity": 0.54,
      "hand": "left"
    },
    {
      "midi": 67,
      "time": 681,
      "duration": 0.25,
      "velocity": 0.71,
      "hand": "right"
    },
    {
      "midi": 48,
      "time": 681.25,
      "duration": 0.25,
      "velocity": 0.54,
      "hand": "left"
    },
    {
      "midi": 59,
      "time": 681.25,
      "duration": 0.25,
      "velocity": 0.71,
      "hand": "left"
    },
    {
      "midi": 60,
      "time": 681.25,
      "duration": 0.25,
      "velocity": 0.71,
      "hand": "right"
    },
    {
      "midi": 56,
      "time": 681.5,
      "duration": 0.25,
      "velocity": 0.54,
      "hand": "left"
    },
    {
      "midi": 61,
      "time": 681.5,
      "duration": 0.25,
      "velocity": 0.71,
      "hand": "right"
    },
    {
      "midi": 44,
      "time": 681.75,
      "duration": 0.25,
      "velocity": 0.54,
      "hand": "left"
    },
    {
      "midi": 60,
      "time": 681.75,
      "duration": 0.25,
      "velocity": 0.71,
      "hand": "right"
    },
    {
      "midi": 65,
      "time": 681.75,
      "duration": 0.25,
      "velocity": 0.71,
      "hand": "right"
    },
    {
      "midi": 53,
      "time": 682,
      "duration": 0.25,
      "velocity": 0.54,
      "hand": "left"
    },
    {
      "midi": 68,
      "time": 682,
      "duration": 0.25,
      "velocity": 0.71,
      "hand": "right"
    },
    {
      "midi": 60,
      "time": 682.25,
      "duration": 0.25,
      "velocity": 0.54,
      "hand": "right"
    },
    {
      "midi": 65,
      "time": 682.25,
      "duration": 0.25,
      "velocity": 0.71,
      "hand": "right"
    },
    {
      "midi": 70,
      "time": 682.25,
      "duration": 0.25,
      "velocity": 0.71,
      "hand": "right"
    },
    {
      "midi": 48,
      "time": 682.5,
      "duration": 0.25,
      "velocity": 0.54,
      "hand": "left"
    },
    {
      "midi": 68,
      "time": 682.5,
      "duration": 0.25,
      "velocity": 0.71,
      "hand": "right"
    },
    {
      "midi": 58,
      "time": 682.75,
      "duration": 0.25,
      "velocity": 0.54,
      "hand": "left"
    },
    {
      "midi": 64,
      "time": 682.75,
      "duration": 0.25,
      "velocity": 0.71,
      "hand": "right"
    },
    {
      "midi": 67,
      "time": 682.75,
      "duration": 0.25,
      "velocity": 0.71,
      "hand": "right"
    },
    {
      "midi": 64,
      "time": 683,
      "duration": 0.25,
      "velocity": 0.54,
      "hand": "right"
    },
    {
      "midi": 68,
      "time": 683,
      "duration": 0.25,
      "velocity": 0.71,
      "hand": "right"
    },
    {
      "midi": 52,
      "time": 683.25,
      "duration": 0.25,
      "velocity": 0.54,
      "hand": "left"
    },
    {
      "midi": 67,
      "time": 683.25,
      "duration": 0.25,
      "velocity": 0.71,
      "hand": "right"
    },
    {
      "midi": 72,
      "time": 683.25,
      "duration": 0.25,
      "velocity": 0.71,
      "hand": "right"
    },
    {
      "midi": 60,
      "time": 683.5,
      "duration": 0.25,
      "velocity": 0.54,
      "hand": "right"
    },
    {
      "midi": 73,
      "time": 683.5,
      "duration": 0.25,
      "velocity": 0.71,
      "hand": "right"
    },
    {
      "midi": 70,
      "time": 683.75,
      "duration": 0.25,
      "velocity": 0.54,
      "hand": "right"
    },
    {
      "midi": 72,
      "time": 683.75,
      "duration": 0.25,
      "velocity": 0.71,
      "hand": "right"
    },
    {
      "midi": 79,
      "time": 683.75,
      "duration": 0.25,
      "velocity": 0.71,
      "hand": "right"
    },
    {
      "midi": 41,
      "time": 684,
      "duration": 0.25,
      "velocity": 0.54,
      "hand": "left"
    },
    {
      "midi": 77,
      "time": 684,
      "duration": 0.25,
      "velocity": 0.71,
      "hand": "right"
    },
    {
      "midi": 48,
      "time": 684.25,
      "duration": 0.25,
      "velocity": 0.54,
      "hand": "left"
    },
    {
      "midi": 59,
      "time": 684.25,
      "duration": 0.25,
      "velocity": 0.71,
      "hand": "left"
    },
    {
      "midi": 60,
      "time": 684.25,
      "duration": 0.25,
      "velocity": 0.71,
      "hand": "right"
    },
    {
      "midi": 56,
      "time": 684.5,
      "duration": 0.25,
      "velocity": 0.54,
      "hand": "left"
    },
    {
      "midi": 61,
      "time": 684.5,
      "duration": 0.25,
      "velocity": 0.71,
      "hand": "right"
    },
    {
      "midi": 44,
      "time": 684.75,
      "duration": 0.25,
      "velocity": 0.54,
      "hand": "left"
    },
    {
      "midi": 60,
      "time": 684.75,
      "duration": 0.25,
      "velocity": 0.71,
      "hand": "right"
    },
    {
      "midi": 65,
      "time": 684.75,
      "duration": 0.25,
      "velocity": 0.71,
      "hand": "right"
    },
    {
      "midi": 53,
      "time": 685,
      "duration": 0.25,
      "velocity": 0.54,
      "hand": "left"
    },
    {
      "midi": 68,
      "time": 685,
      "duration": 0.25,
      "velocity": 0.71,
      "hand": "right"
    },
    {
      "midi": 60,
      "time": 685.25,
      "duration": 0.25,
      "velocity": 0.54,
      "hand": "right"
    },
    {
      "midi": 65,
      "time": 685.25,
      "duration": 0.25,
      "velocity": 0.71,
      "hand": "right"
    },
    {
      "midi": 70,
      "time": 685.25,
      "duration": 0.25,
      "velocity": 0.71,
      "hand": "right"
    },
    {
      "midi": 48,
      "time": 685.5,
      "duration": 0.25,
      "velocity": 0.54,
      "hand": "left"
    },
    {
      "midi": 68,
      "time": 685.5,
      "duration": 0.25,
      "velocity": 0.71,
      "hand": "right"
    },
    {
      "midi": 58,
      "time": 685.75,
      "duration": 0.25,
      "velocity": 0.54,
      "hand": "left"
    },
    {
      "midi": 64,
      "time": 685.75,
      "duration": 0.25,
      "velocity": 0.71,
      "hand": "right"
    },
    {
      "midi": 67,
      "time": 685.75,
      "duration": 0.25,
      "velocity": 0.71,
      "hand": "right"
    },
    {
      "midi": 64,
      "time": 686,
      "duration": 0.25,
      "velocity": 0.54,
      "hand": "right"
    },
    {
      "midi": 68,
      "time": 686,
      "duration": 0.25,
      "velocity": 0.71,
      "hand": "right"
    },
    {
      "midi": 52,
      "time": 686.25,
      "duration": 0.25,
      "velocity": 0.54,
      "hand": "left"
    },
    {
      "midi": 67,
      "time": 686.25,
      "duration": 0.25,
      "velocity": 0.71,
      "hand": "right"
    },
    {
      "midi": 72,
      "time": 686.25,
      "duration": 0.25,
      "velocity": 0.71,
      "hand": "right"
    },
    {
      "midi": 60,
      "time": 686.5,
      "duration": 0.25,
      "velocity": 0.54,
      "hand": "right"
    },
    {
      "midi": 73,
      "time": 686.5,
      "duration": 0.25,
      "velocity": 0.71,
      "hand": "right"
    },
    {
      "midi": 70,
      "time": 686.75,
      "duration": 0.25,
      "velocity": 0.54,
      "hand": "right"
    },
    {
      "midi": 72,
      "time": 686.75,
      "duration": 0.25,
      "velocity": 0.71,
      "hand": "right"
    },
    {
      "midi": 80,
      "time": 686.75,
      "duration": 0.25,
      "velocity": 0.71,
      "hand": "right"
    },
    {
      "midi": 53,
      "time": 687,
      "duration": 0.25,
      "velocity": 0.54,
      "hand": "left"
    },
    {
      "midi": 79,
      "time": 687,
      "duration": 0.25,
      "velocity": 0.71,
      "hand": "right"
    },
    {
      "midi": 60,
      "time": 687.25,
      "duration": 0.25,
      "velocity": 0.54,
      "hand": "right"
    },
    {
      "midi": 71,
      "time": 687.25,
      "duration": 0.25,
      "velocity": 0.71,
      "hand": "right"
    },
    {
      "midi": 72,
      "time": 687.25,
      "duration": 0.25,
      "velocity": 0.71,
      "hand": "right"
    },
    {
      "midi": 68,
      "time": 687.5,
      "duration": 0.25,
      "velocity": 0.54,
      "hand": "right"
    },
    {
      "midi": 73,
      "time": 687.5,
      "duration": 0.25,
      "velocity": 0.71,
      "hand": "right"
    },
    {
      "midi": 56,
      "time": 687.75,
      "duration": 0.25,
      "velocity": 0.54,
      "hand": "left"
    },
    {
      "midi": 72,
      "time": 687.75,
      "duration": 0.25,
      "velocity": 0.71,
      "hand": "right"
    },
    {
      "midi": 77,
      "time": 687.75,
      "duration": 0.25,
      "velocity": 0.71,
      "hand": "right"
    },
    {
      "midi": 65,
      "time": 688,
      "duration": 0.25,
      "velocity": 0.54,
      "hand": "right"
    },
    {
      "midi": 80,
      "time": 688,
      "duration": 0.25,
      "velocity": 0.71,
      "hand": "right"
    },
    {
      "midi": 72,
      "time": 688.25,
      "duration": 0.25,
      "velocity": 0.54,
      "hand": "right"
    },
    {
      "midi": 77,
      "time": 688.25,
      "duration": 0.25,
      "velocity": 0.71,
      "hand": "right"
    },
    {
      "midi": 82,
      "time": 688.25,
      "duration": 0.25,
      "velocity": 0.71,
      "hand": "right"
    },
    {
      "midi": 60,
      "time": 688.5,
      "duration": 0.25,
      "velocity": 0.54,
      "hand": "right"
    },
    {
      "midi": 80,
      "time": 688.5,
      "duration": 0.25,
      "velocity": 0.71,
      "hand": "right"
    },
    {
      "midi": 70,
      "time": 688.75,
      "duration": 0.25,
      "velocity": 0.54,
      "hand": "right"
    },
    {
      "midi": 76,
      "time": 688.75,
      "duration": 0.25,
      "velocity": 0.71,
      "hand": "right"
    },
    {
      "midi": 79,
      "time": 688.75,
      "duration": 0.25,
      "velocity": 0.71,
      "hand": "right"
    },
    {
      "midi": 76,
      "time": 689,
      "duration": 0.25,
      "velocity": 0.54,
      "hand": "right"
    },
    {
      "midi": 80,
      "time": 689,
      "duration": 0.25,
      "velocity": 0.71,
      "hand": "right"
    },
    {
      "midi": 64,
      "time": 689.25,
      "duration": 0.25,
      "velocity": 0.54,
      "hand": "right"
    },
    {
      "midi": 79,
      "time": 689.25,
      "duration": 0.25,
      "velocity": 0.71,
      "hand": "right"
    },
    {
      "midi": 84,
      "time": 689.25,
      "duration": 0.25,
      "velocity": 0.71,
      "hand": "right"
    },
    {
      "midi": 72,
      "time": 689.5,
      "duration": 0.25,
      "velocity": 0.54,
      "hand": "right"
    },
    {
      "midi": 85,
      "time": 689.5,
      "duration": 0.25,
      "velocity": 0.71,
      "hand": "right"
    },
    {
      "midi": 82,
      "time": 689.75,
      "duration": 0.25,
      "velocity": 0.54,
      "hand": "right"
    },
    {
      "midi": 84,
      "time": 689.75,
      "duration": 0.25,
      "velocity": 0.71,
      "hand": "right"
    },
    {
      "midi": 91,
      "time": 689.75,
      "duration": 0.25,
      "velocity": 0.71,
      "hand": "right"
    },
    {
      "midi": 65,
      "time": 690,
      "duration": 0.5,
      "velocity": 0.54,
      "hand": "right"
    },
    {
      "midi": 68,
      "time": 690,
      "duration": 0.5,
      "velocity": 0.54,
      "hand": "right"
    },
    {
      "midi": 72,
      "time": 690,
      "duration": 0.5,
      "velocity": 0.54,
      "hand": "right"
    },
    {
      "midi": 77,
      "time": 690,
      "duration": 0.5,
      "velocity": 0.54,
      "hand": "right"
    },
    {
      "midi": 89,
      "time": 690,
      "duration": 0.25,
      "velocity": 0.71,
      "hand": "right"
    },
    {
      "midi": 100,
      "time": 690.25,
      "duration": 0.25,
      "velocity": 0.71,
      "hand": "right"
    },
    {
      "midi": 101,
      "time": 690.25,
      "duration": 0.25,
      "velocity": 0.71,
      "hand": "right"
    },
    {
      "midi": 65,
      "time": 690.5,
      "duration": 1,
      "velocity": 0.54,
      "hand": "right"
    },
    {
      "midi": 68,
      "time": 690.5,
      "duration": 1,
      "velocity": 0.54,
      "hand": "right"
    },
    {
      "midi": 73,
      "time": 690.5,
      "duration": 1,
      "velocity": 0.54,
      "hand": "right"
    },
    {
      "midi": 77,
      "time": 690.5,
      "duration": 1,
      "velocity": 0.54,
      "hand": "right"
    },
    {
      "midi": 99,
      "time": 690.5,
      "duration": 0.25,
      "velocity": 0.71,
      "hand": "right"
    },
    {
      "midi": 96,
      "time": 690.75,
      "duration": 0.25,
      "velocity": 0.71,
      "hand": "right"
    },
    {
      "midi": 97,
      "time": 690.75,
      "duration": 0.25,
      "velocity": 0.71,
      "hand": "right"
    },
    {
      "midi": 94,
      "time": 691,
      "duration": 0.25,
      "velocity": 0.71,
      "hand": "right"
    },
    {
      "midi": 91,
      "time": 691.25,
      "duration": 0.25,
      "velocity": 0.71,
      "hand": "right"
    },
    {
      "midi": 92,
      "time": 691.25,
      "duration": 0.25,
      "velocity": 0.71,
      "hand": "right"
    },
    {
      "midi": 65,
      "time": 691.5,
      "duration": 0.5,
      "velocity": 0.54,
      "hand": "right"
    },
    {
      "midi": 68,
      "time": 691.5,
      "duration": 0.5,
      "velocity": 0.54,
      "hand": "right"
    },
    {
      "midi": 72,
      "time": 691.5,
      "duration": 0.5,
      "velocity": 0.54,
      "hand": "right"
    },
    {
      "midi": 77,
      "time": 691.5,
      "duration": 0.5,
      "velocity": 0.54,
      "hand": "right"
    },
    {
      "midi": 89,
      "time": 691.5,
      "duration": 0.25,
      "velocity": 0.71,
      "hand": "right"
    },
    {
      "midi": 87,
      "time": 691.75,
      "duration": 0.25,
      "velocity": 0.71,
      "hand": "right"
    },
    {
      "midi": 88,
      "time": 691.75,
      "duration": 0.25,
      "velocity": 0.71,
      "hand": "right"
    },
    {
      "midi": 65,
      "time": 692,
      "duration": 1,
      "velocity": 0.54,
      "hand": "right"
    },
    {
      "midi": 68,
      "time": 692,
      "duration": 1,
      "velocity": 0.54,
      "hand": "right"
    },
    {
      "midi": 73,
      "time": 692,
      "duration": 1,
      "velocity": 0.54,
      "hand": "right"
    },
    {
      "midi": 77,
      "time": 692,
      "duration": 1,
      "velocity": 0.54,
      "hand": "right"
    },
    {
      "midi": 85,
      "time": 692,
      "duration": 0.25,
      "velocity": 0.71,
      "hand": "right"
    },
    {
      "midi": 82,
      "time": 692.25,
      "duration": 0.25,
      "velocity": 0.71,
      "hand": "right"
    },
    {
      "midi": 84,
      "time": 692.25,
      "duration": 0.25,
      "velocity": 0.71,
      "hand": "right"
    },
    {
      "midi": 80,
      "time": 692.5,
      "duration": 0.25,
      "velocity": 0.71,
      "hand": "right"
    },
    {
      "midi": 77,
      "time": 692.75,
      "duration": 0.25,
      "velocity": 0.71,
      "hand": "right"
    },
    {
      "midi": 79,
      "time": 692.75,
      "duration": 0.25,
      "velocity": 0.71,
      "hand": "right"
    },
    {
      "midi": 53,
      "time": 693,
      "duration": 0.5,
      "velocity": 0.54,
      "hand": "left"
    },
    {
      "midi": 56,
      "time": 693,
      "duration": 0.5,
      "velocity": 0.54,
      "hand": "left"
    },
    {
      "midi": 60,
      "time": 693,
      "duration": 0.5,
      "velocity": 0.54,
      "hand": "right"
    },
    {
      "midi": 65,
      "time": 693,
      "duration": 0.5,
      "velocity": 0.54,
      "hand": "right"
    },
    {
      "midi": 92,
      "time": 693,
      "duration": 0.25,
      "velocity": 0.71,
      "hand": "right"
    },
    {
      "midi": 89,
      "time": 693.25,
      "duration": 0.25,
      "velocity": 0.71,
      "hand": "right"
    },
    {
      "midi": 91,
      "time": 693.25,
      "duration": 0.25,
      "velocity": 0.71,
      "hand": "right"
    },
    {
      "midi": 53,
      "time": 693.5,
      "duration": 1,
      "velocity": 0.54,
      "hand": "left"
    },
    {
      "midi": 56,
      "time": 693.5,
      "duration": 1,
      "velocity": 0.54,
      "hand": "left"
    },
    {
      "midi": 61,
      "time": 693.5,
      "duration": 1,
      "velocity": 0.54,
      "hand": "right"
    },
    {
      "midi": 65,
      "time": 693.5,
      "duration": 1,
      "velocity": 0.54,
      "hand": "right"
    },
    {
      "midi": 87,
      "time": 693.5,
      "duration": 0.25,
      "velocity": 0.71,
      "hand": "right"
    },
    {
      "midi": 84,
      "time": 693.75,
      "duration": 0.25,
      "velocity": 0.71,
      "hand": "right"
    },
    {
      "midi": 85,
      "time": 693.75,
      "duration": 0.25,
      "velocity": 0.71,
      "hand": "right"
    },
    {
      "midi": 82,
      "time": 694,
      "duration": 0.25,
      "velocity": 0.71,
      "hand": "right"
    },
    {
      "midi": 79,
      "time": 694.25,
      "duration": 0.25,
      "velocity": 0.71,
      "hand": "right"
    },
    {
      "midi": 80,
      "time": 694.25,
      "duration": 0.25,
      "velocity": 0.71,
      "hand": "right"
    },
    {
      "midi": 53,
      "time": 694.5,
      "duration": 0.5,
      "velocity": 0.54,
      "hand": "left"
    },
    {
      "midi": 56,
      "time": 694.5,
      "duration": 0.5,
      "velocity": 0.54,
      "hand": "left"
    },
    {
      "midi": 60,
      "time": 694.5,
      "duration": 0.5,
      "velocity": 0.54,
      "hand": "right"
    },
    {
      "midi": 65,
      "time": 694.5,
      "duration": 0.5,
      "velocity": 0.54,
      "hand": "right"
    },
    {
      "midi": 77,
      "time": 694.5,
      "duration": 0.25,
      "velocity": 0.71,
      "hand": "right"
    },
    {
      "midi": 73,
      "time": 694.75,
      "duration": 0.25,
      "velocity": 0.71,
      "hand": "right"
    },
    {
      "midi": 75,
      "time": 694.75,
      "duration": 0.25,
      "velocity": 0.71,
      "hand": "right"
    },
    {
      "midi": 53,
      "time": 695,
      "duration": 1,
      "velocity": 0.54,
      "hand": "left"
    },
    {
      "midi": 56,
      "time": 695,
      "duration": 1,
      "velocity": 0.54,
      "hand": "left"
    },
    {
      "midi": 61,
      "time": 695,
      "duration": 1,
      "velocity": 0.54,
      "hand": "right"
    },
    {
      "midi": 65,
      "time": 695,
      "duration": 1,
      "velocity": 0.54,
      "hand": "right"
    },
    {
      "midi": 72,
      "time": 695,
      "duration": 0.25,
      "velocity": 0.71,
      "hand": "right"
    },
    {
      "midi": 68,
      "time": 695.25,
      "duration": 0.25,
      "velocity": 0.71,
      "hand": "right"
    },
    {
      "midi": 70,
      "time": 695.25,
      "duration": 0.25,
      "velocity": 0.71,
      "hand": "right"
    },
    {
      "midi": 67,
      "time": 695.5,
      "duration": 0.25,
      "velocity": 0.71,
      "hand": "right"
    },
    {
      "midi": 61,
      "time": 695.75,
      "duration": 0.25,
      "velocity": 0.71,
      "hand": "right"
    },
    {
      "midi": 65,
      "time": 695.75,
      "duration": 0.25,
      "velocity": 0.71,
      "hand": "right"
    },
    {
      "midi": 41,
      "time": 696,
      "duration": 0.5,
      "velocity": 0.54,
      "hand": "left"
    },
    {
      "midi": 48,
      "time": 696,
      "duration": 0.5,
      "velocity": 0.54,
      "hand": "left"
    },
    {
      "midi": 56,
      "time": 696,
      "duration": 0.5,
      "velocity": 0.54,
      "hand": "left"
    },
    {
      "midi": 60,
      "time": 696,
      "duration": 0.25,
      "velocity": 0.71,
      "hand": "right"
    },
    {
      "midi": 65,
      "time": 696.25,
      "duration": 0.25,
      "velocity": 0.71,
      "hand": "right"
    },
    {
      "midi": 68,
      "time": 696.25,
      "duration": 0.25,
      "velocity": 0.71,
      "hand": "right"
    },
    {
      "midi": 72,
      "time": 696.5,
      "duration": 0.25,
      "velocity": 0.71,
      "hand": "right"
    },
    {
      "midi": 77,
      "time": 696.75,
      "duration": 0.25,
      "velocity": 0.71,
      "hand": "right"
    },
    {
      "midi": 80,
      "time": 696.75,
      "duration": 0.25,
      "velocity": 0.71,
      "hand": "right"
    },
    {
      "midi": 84,
      "time": 697,
      "duration": 0.25,
      "velocity": 0.71,
      "hand": "right"
    },
    {
      "midi": 89,
      "time": 697.25,
      "duration": 0.25,
      "velocity": 0.71,
      "hand": "right"
    },
    {
      "midi": 92,
      "time": 697.25,
      "duration": 0.25,
      "velocity": 0.71,
      "hand": "right"
    },
    {
      "midi": 85,
      "time": 697.5,
      "duration": 0.25,
      "velocity": 0.54,
      "hand": "right"
    },
    {
      "midi": 97,
      "time": 697.5,
      "duration": 0.25,
      "velocity": 0.71,
      "hand": "right"
    },
    {
      "midi": 80,
      "time": 697.75,
      "duration": 0.25,
      "velocity": 0.54,
      "hand": "right"
    },
    {
      "midi": 84,
      "time": 697.75,
      "duration": 0.25,
      "velocity": 0.54,
      "hand": "right"
    },
    {
      "midi": 92,
      "time": 697.75,
      "duration": 0.25,
      "velocity": 0.71,
      "hand": "right"
    },
    {
      "midi": 96,
      "time": 697.75,
      "duration": 0.25,
      "velocity": 0.71,
      "hand": "right"
    },
    {
      "midi": 77,
      "time": 698,
      "duration": 0.25,
      "velocity": 0.54,
      "hand": "right"
    },
    {
      "midi": 89,
      "time": 698,
      "duration": 0.25,
      "velocity": 0.71,
      "hand": "right"
    },
    {
      "midi": 80,
      "time": 698.25,
      "duration": 0.25,
      "velocity": 0.54,
      "hand": "right"
    },
    {
      "midi": 82,
      "time": 698.25,
      "duration": 0.25,
      "velocity": 0.54,
      "hand": "right"
    },
    {
      "midi": 92,
      "time": 698.25,
      "duration": 0.25,
      "velocity": 0.71,
      "hand": "right"
    },
    {
      "midi": 94,
      "time": 698.25,
      "duration": 0.25,
      "velocity": 0.71,
      "hand": "right"
    },
    {
      "midi": 77,
      "time": 698.5,
      "duration": 0.25,
      "velocity": 0.54,
      "hand": "right"
    },
    {
      "midi": 89,
      "time": 698.5,
      "duration": 0.25,
      "velocity": 0.71,
      "hand": "right"
    },
    {
      "midi": 72,
      "time": 698.75,
      "duration": 0.25,
      "velocity": 0.54,
      "hand": "right"
    },
    {
      "midi": 79,
      "time": 698.75,
      "duration": 0.25,
      "velocity": 0.54,
      "hand": "right"
    },
    {
      "midi": 84,
      "time": 698.75,
      "duration": 0.25,
      "velocity": 0.71,
      "hand": "right"
    },
    {
      "midi": 91,
      "time": 698.75,
      "duration": 0.25,
      "velocity": 0.71,
      "hand": "right"
    },
    {
      "midi": 77,
      "time": 699,
      "duration": 0.25,
      "velocity": 0.54,
      "hand": "right"
    },
    {
      "midi": 89,
      "time": 699,
      "duration": 0.25,
      "velocity": 0.71,
      "hand": "right"
    },
    {
      "midi": 68,
      "time": 699.25,
      "duration": 0.25,
      "velocity": 0.54,
      "hand": "right"
    },
    {
      "midi": 72,
      "time": 699.25,
      "duration": 0.25,
      "velocity": 0.54,
      "hand": "right"
    },
    {
      "midi": 80,
      "time": 699.25,
      "duration": 0.25,
      "velocity": 0.71,
      "hand": "right"
    },
    {
      "midi": 84,
      "time": 699.25,
      "duration": 0.25,
      "velocity": 0.71,
      "hand": "right"
    },
    {
      "midi": 73,
      "time": 699.5,
      "duration": 0.25,
      "velocity": 0.54,
      "hand": "right"
    },
    {
      "midi": 85,
      "time": 699.5,
      "duration": 0.25,
      "velocity": 0.71,
      "hand": "right"
    },
    {
      "midi": 68,
      "time": 699.75,
      "duration": 0.25,
      "velocity": 0.54,
      "hand": "right"
    },
    {
      "midi": 72,
      "time": 699.75,
      "duration": 0.25,
      "velocity": 0.54,
      "hand": "right"
    },
    {
      "midi": 80,
      "time": 699.75,
      "duration": 0.25,
      "velocity": 0.71,
      "hand": "right"
    },
    {
      "midi": 84,
      "time": 699.75,
      "duration": 0.25,
      "velocity": 0.71,
      "hand": "right"
    },
    {
      "midi": 65,
      "time": 700,
      "duration": 0.25,
      "velocity": 0.54,
      "hand": "right"
    },
    {
      "midi": 77,
      "time": 700,
      "duration": 0.25,
      "velocity": 0.71,
      "hand": "right"
    },
    {
      "midi": 68,
      "time": 700.25,
      "duration": 0.25,
      "velocity": 0.54,
      "hand": "right"
    },
    {
      "midi": 70,
      "time": 700.25,
      "duration": 0.25,
      "velocity": 0.54,
      "hand": "right"
    },
    {
      "midi": 80,
      "time": 700.25,
      "duration": 0.25,
      "velocity": 0.71,
      "hand": "right"
    },
    {
      "midi": 82,
      "time": 700.25,
      "duration": 0.25,
      "velocity": 0.71,
      "hand": "right"
    },
    {
      "midi": 65,
      "time": 700.5,
      "duration": 0.25,
      "velocity": 0.54,
      "hand": "right"
    },
    {
      "midi": 77,
      "time": 700.5,
      "duration": 0.25,
      "velocity": 0.71,
      "hand": "right"
    },
    {
      "midi": 60,
      "time": 700.75,
      "duration": 0.25,
      "velocity": 0.54,
      "hand": "right"
    },
    {
      "midi": 67,
      "time": 700.75,
      "duration": 0.25,
      "velocity": 0.54,
      "hand": "right"
    },
    {
      "midi": 72,
      "time": 700.75,
      "duration": 0.25,
      "velocity": 0.71,
      "hand": "right"
    },
    {
      "midi": 79,
      "time": 700.75,
      "duration": 0.25,
      "velocity": 0.71,
      "hand": "right"
    },
    {
      "midi": 65,
      "time": 701,
      "duration": 0.25,
      "velocity": 0.54,
      "hand": "right"
    },
    {
      "midi": 77,
      "time": 701,
      "duration": 0.25,
      "velocity": 0.71,
      "hand": "right"
    },
    {
      "midi": 56,
      "time": 701.25,
      "duration": 0.25,
      "velocity": 0.54,
      "hand": "left"
    },
    {
      "midi": 60,
      "time": 701.25,
      "duration": 0.25,
      "velocity": 0.54,
      "hand": "right"
    },
    {
      "midi": 68,
      "time": 701.25,
      "duration": 0.25,
      "velocity": 0.71,
      "hand": "right"
    },
    {
      "midi": 72,
      "time": 701.25,
      "duration": 0.25,
      "velocity": 0.71,
      "hand": "right"
    },
    {
      "midi": 61,
      "time": 701.5,
      "duration": 0.25,
      "velocity": 0.54,
      "hand": "right"
    },
    {
      "midi": 73,
      "time": 701.5,
      "duration": 0.25,
      "velocity": 0.71,
      "hand": "right"
    },
    {
      "midi": 56,
      "time": 701.75,
      "duration": 0.25,
      "velocity": 0.54,
      "hand": "left"
    },
    {
      "midi": 60,
      "time": 701.75,
      "duration": 0.25,
      "velocity": 0.54,
      "hand": "right"
    },
    {
      "midi": 68,
      "time": 701.75,
      "duration": 0.25,
      "velocity": 0.71,
      "hand": "right"
    },
    {
      "midi": 72,
      "time": 701.75,
      "duration": 0.25,
      "velocity": 0.71,
      "hand": "right"
    },
    {
      "midi": 53,
      "time": 702,
      "duration": 0.25,
      "velocity": 0.54,
      "hand": "left"
    },
    {
      "midi": 65,
      "time": 702,
      "duration": 0.25,
      "velocity": 0.71,
      "hand": "right"
    },
    {
      "midi": 56,
      "time": 702.25,
      "duration": 0.25,
      "velocity": 0.54,
      "hand": "left"
    },
    {
      "midi": 58,
      "time": 702.25,
      "duration": 0.25,
      "velocity": 0.54,
      "hand": "left"
    },
    {
      "midi": 68,
      "time": 702.25,
      "duration": 0.25,
      "velocity": 0.71,
      "hand": "right"
    },
    {
      "midi": 70,
      "time": 702.25,
      "duration": 0.25,
      "velocity": 0.71,
      "hand": "right"
    },
    {
      "midi": 53,
      "time": 702.5,
      "duration": 0.25,
      "velocity": 0.54,
      "hand": "left"
    },
    {
      "midi": 65,
      "time": 702.5,
      "duration": 0.25,
      "velocity": 0.71,
      "hand": "right"
    },
    {
      "midi": 48,
      "time": 702.75,
      "duration": 0.25,
      "velocity": 0.54,
      "hand": "left"
    },
    {
      "midi": 55,
      "time": 702.75,
      "duration": 0.25,
      "velocity": 0.54,
      "hand": "left"
    },
    {
      "midi": 60,
      "time": 702.75,
      "duration": 0.25,
      "velocity": 0.71,
      "hand": "right"
    },
    {
      "midi": 67,
      "time": 702.75,
      "duration": 0.25,
      "velocity": 0.71,
      "hand": "right"
    },
    {
      "midi": 53,
      "time": 703,
      "duration": 0.25,
      "velocity": 0.54,
      "hand": "left"
    },
    {
      "midi": 65,
      "time": 703,
      "duration": 0.25,
      "velocity": 0.71,
      "hand": "right"
    },
    {
      "midi": 44,
      "time": 703.25,
      "duration": 0.25,
      "velocity": 0.54,
      "hand": "left"
    },
    {
      "midi": 48,
      "time": 703.25,
      "duration": 0.25,
      "velocity": 0.54,
      "hand": "left"
    },
    {
      "midi": 56,
      "time": 703.25,
      "duration": 0.25,
      "velocity": 0.71,
      "hand": "left"
    },
    {
      "midi": 60,
      "time": 703.25,
      "duration": 0.25,
      "velocity": 0.71,
      "hand": "right"
    },
    {
      "midi": 49,
      "time": 703.5,
      "duration": 0.25,
      "velocity": 0.54,
      "hand": "left"
    },
    {
      "midi": 61,
      "time": 703.5,
      "duration": 0.25,
      "velocity": 0.71,
      "hand": "right"
    },
    {
      "midi": 44,
      "time": 703.75,
      "duration": 0.25,
      "velocity": 0.54,
      "hand": "left"
    },
    {
      "midi": 48,
      "time": 703.75,
      "duration": 0.25,
      "velocity": 0.54,
      "hand": "left"
    },
    {
      "midi": 56,
      "time": 703.75,
      "duration": 0.25,
      "velocity": 0.71,
      "hand": "left"
    },
    {
      "midi": 60,
      "time": 703.75,
      "duration": 0.25,
      "velocity": 0.71,
      "hand": "right"
    },
    {
      "midi": 41,
      "time": 704,
      "duration": 0.25,
      "velocity": 0.54,
      "hand": "left"
    },
    {
      "midi": 53,
      "time": 704,
      "duration": 0.25,
      "velocity": 0.71,
      "hand": "left"
    },
    {
      "midi": 44,
      "time": 704.25,
      "duration": 0.25,
      "velocity": 0.54,
      "hand": "left"
    },
    {
      "midi": 46,
      "time": 704.25,
      "duration": 0.25,
      "velocity": 0.54,
      "hand": "left"
    },
    {
      "midi": 56,
      "time": 704.25,
      "duration": 0.25,
      "velocity": 0.71,
      "hand": "left"
    },
    {
      "midi": 58,
      "time": 704.25,
      "duration": 0.25,
      "velocity": 0.71,
      "hand": "left"
    },
    {
      "midi": 41,
      "time": 704.5,
      "duration": 0.25,
      "velocity": 0.54,
      "hand": "left"
    },
    {
      "midi": 53,
      "time": 704.5,
      "duration": 0.25,
      "velocity": 0.71,
      "hand": "left"
    },
    {
      "midi": 36,
      "time": 704.75,
      "duration": 0.25,
      "velocity": 0.54,
      "hand": "left"
    },
    {
      "midi": 43,
      "time": 704.75,
      "duration": 0.25,
      "velocity": 0.54,
      "hand": "left"
    },
    {
      "midi": 48,
      "time": 704.75,
      "duration": 0.25,
      "velocity": 0.71,
      "hand": "left"
    },
    {
      "midi": 55,
      "time": 704.75,
      "duration": 0.25,
      "velocity": 0.71,
      "hand": "left"
    },
    {
      "midi": 41,
      "time": 705,
      "duration": 0.25,
      "velocity": 0.54,
      "hand": "left"
    },
    {
      "midi": 53,
      "time": 705,
      "duration": 0.25,
      "velocity": 0.71,
      "hand": "left"
    },
    {
      "midi": 32,
      "time": 705.25,
      "duration": 0.25,
      "velocity": 0.54,
      "hand": "left"
    },
    {
      "midi": 36,
      "time": 705.25,
      "duration": 0.25,
      "velocity": 0.54,
      "hand": "left"
    },
    {
      "midi": 44,
      "time": 705.25,
      "duration": 0.25,
      "velocity": 0.71,
      "hand": "left"
    },
    {
      "midi": 48,
      "time": 705.25,
      "duration": 0.25,
      "velocity": 0.71,
      "hand": "left"
    },
    {
      "midi": 37,
      "time": 705.5,
      "duration": 0.25,
      "velocity": 0.54,
      "hand": "left"
    },
    {
      "midi": 49,
      "time": 705.5,
      "duration": 0.25,
      "velocity": 0.71,
      "hand": "left"
    },
    {
      "midi": 32,
      "time": 705.75,
      "duration": 0.25,
      "velocity": 0.54,
      "hand": "left"
    },
    {
      "midi": 36,
      "time": 705.75,
      "duration": 0.25,
      "velocity": 0.54,
      "hand": "left"
    },
    {
      "midi": 44,
      "time": 705.75,
      "duration": 0.25,
      "velocity": 0.71,
      "hand": "left"
    },
    {
      "midi": 48,
      "time": 705.75,
      "duration": 0.25,
      "velocity": 0.71,
      "hand": "left"
    },
    {
      "midi": 29,
      "time": 706,
      "duration": 0.25,
      "velocity": 0.54,
      "hand": "left"
    },
    {
      "midi": 41,
      "time": 706,
      "duration": 0.25,
      "velocity": 0.71,
      "hand": "left"
    },
    {
      "midi": 36,
      "time": 706.25,
      "duration": 0.25,
      "velocity": 0.54,
      "hand": "left"
    },
    {
      "midi": 37,
      "time": 706.25,
      "duration": 0.25,
      "velocity": 0.54,
      "hand": "left"
    },
    {
      "midi": 48,
      "time": 706.25,
      "duration": 0.25,
      "velocity": 0.71,
      "hand": "left"
    },
    {
      "midi": 49,
      "time": 706.25,
      "duration": 0.25,
      "velocity": 0.71,
      "hand": "left"
    },
    {
      "midi": 32,
      "time": 706.5,
      "duration": 0.25,
      "velocity": 0.54,
      "hand": "left"
    },
    {
      "midi": 44,
      "time": 706.5,
      "duration": 0.25,
      "velocity": 0.71,
      "hand": "left"
    },
    {
      "midi": 29,
      "time": 706.75,
      "duration": 0.25,
      "velocity": 0.54,
      "hand": "left"
    },
    {
      "midi": 37,
      "time": 706.75,
      "duration": 0.25,
      "velocity": 0.54,
      "hand": "left"
    },
    {
      "midi": 41,
      "time": 706.75,
      "duration": 0.25,
      "velocity": 0.71,
      "hand": "left"
    },
    {
      "midi": 49,
      "time": 706.75,
      "duration": 0.25,
      "velocity": 0.71,
      "hand": "left"
    },
    {
      "midi": 36,
      "time": 707,
      "duration": 0.25,
      "velocity": 0.54,
      "hand": "left"
    },
    {
      "midi": 48,
      "time": 707,
      "duration": 0.25,
      "velocity": 0.71,
      "hand": "left"
    },
    {
      "midi": 29,
      "time": 707.25,
      "duration": 0.25,
      "velocity": 0.54,
      "hand": "left"
    },
    {
      "midi": 32,
      "time": 707.25,
      "duration": 0.25,
      "velocity": 0.54,
      "hand": "left"
    },
    {
      "midi": 41,
      "time": 707.25,
      "duration": 0.25,
      "velocity": 0.71,
      "hand": "left"
    },
    {
      "midi": 44,
      "time": 707.25,
      "duration": 0.25,
      "velocity": 0.71,
      "hand": "left"
    },
    {
      "midi": 37,
      "time": 707.5,
      "duration": 0.25,
      "velocity": 0.54,
      "hand": "left"
    },
    {
      "midi": 49,
      "time": 707.5,
      "duration": 0.25,
      "velocity": 0.71,
      "hand": "left"
    },
    {
      "midi": 32,
      "time": 707.75,
      "duration": 0.25,
      "velocity": 0.54,
      "hand": "left"
    },
    {
      "midi": 36,
      "time": 707.75,
      "duration": 0.25,
      "velocity": 0.54,
      "hand": "left"
    },
    {
      "midi": 44,
      "time": 707.75,
      "duration": 0.25,
      "velocity": 0.71,
      "hand": "left"
    },
    {
      "midi": 48,
      "time": 707.75,
      "duration": 0.25,
      "velocity": 0.71,
      "hand": "left"
    },
    {
      "midi": 29,
      "time": 708,
      "duration": 0.5,
      "velocity": 0.54,
      "hand": "left"
    },
    {
      "midi": 41,
      "time": 708,
      "duration": 0.5,
      "velocity": 0.71,
      "hand": "left"
    },
    {
      "midi": 37,
      "time": 709.5,
      "duration": 0.5,
      "velocity": 0.54,
      "hand": "left"
    },
    {
      "midi": 49,
      "time": 709.5,
      "duration": 0.5,
      "velocity": 0.54,
      "hand": "left"
    },
    {
      "midi": 65,
      "time": 709.5,
      "duration": 0.5,
      "velocity": 0.71,
      "hand": "right"
    },
    {
      "midi": 68,
      "time": 709.5,
      "duration": 0.5,
      "velocity": 0.71,
      "hand": "right"
    },
    {
      "midi": 73,
      "time": 709.5,
      "duration": 0.5,
      "velocity": 0.71,
      "hand": "right"
    },
    {
      "midi": 77,
      "time": 709.5,
      "duration": 0.5,
      "velocity": 0.71,
      "hand": "right"
    },
    {
      "midi": 34,
      "time": 711,
      "duration": 0.5,
      "velocity": 0.54,
      "hand": "left"
    },
    {
      "midi": 46,
      "time": 711,
      "duration": 0.5,
      "velocity": 0.54,
      "hand": "left"
    },
    {
      "midi": 73,
      "time": 711,
      "duration": 0.5,
      "velocity": 0.71,
      "hand": "right"
    },
    {
      "midi": 77,
      "time": 711,
      "duration": 0.5,
      "velocity": 0.71,
      "hand": "right"
    },
    {
      "midi": 79,
      "time": 711,
      "duration": 0.5,
      "velocity": 0.71,
      "hand": "right"
    },
    {
      "midi": 85,
      "time": 711,
      "duration": 0.5,
      "velocity": 0.71,
      "hand": "right"
    },
    {
      "midi": 36,
      "time": 712.5,
      "duration": 0.5,
      "velocity": 0.54,
      "hand": "left"
    },
    {
      "midi": 48,
      "time": 712.5,
      "duration": 0.5,
      "velocity": 0.54,
      "hand": "left"
    },
    {
      "midi": 55,
      "time": 712.5,
      "duration": 0.5,
      "velocity": 0.71,
      "hand": "left"
    },
    {
      "midi": 58,
      "time": 712.5,
      "duration": 0.5,
      "velocity": 0.71,
      "hand": "left"
    },
    {
      "midi": 60,
      "time": 712.5,
      "duration": 0.5,
      "velocity": 0.71,
      "hand": "right"
    },
    {
      "midi": 64,
      "time": 712.5,
      "duration": 0.5,
      "velocity": 0.71,
      "hand": "right"
    },
    {
      "midi": 29,
      "time": 714,
      "duration": 3,
      "velocity": 0.54,
      "hand": "left"
    },
    {
      "midi": 41,
      "time": 714,
      "duration": 3,
      "velocity": 0.54,
      "hand": "left"
    },
    {
      "midi": 53,
      "time": 714,
      "duration": 3,
      "velocity": 0.71,
      "hand": "left"
    },
    {
      "midi": 56,
      "time": 714,
      "duration": 3,
      "velocity": 0.71,
      "hand": "left"
    },
    {
      "midi": 60,
      "time": 714,
      "duration": 3,
      "velocity": 0.71,
      "hand": "right"
    },
    {
      "midi": 65,
      "time": 714,
      "duration": 3,
      "velocity": 0.71,
      "hand": "right"
    }
  ],
  "arrangements": {
    "easy": [
      {
        "midi": 79,
        "time": 0,
        "duration": 0.5,
        "velocity": 0.71,
        "hand": "right"
      },
      {
        "midi": 79,
        "time": 0.5,
        "duration": 0.5,
        "velocity": 0.71,
        "hand": "right"
      },
      {
        "midi": 79,
        "time": 1,
        "duration": 0.5,
        "velocity": 0.71,
        "hand": "right"
      },
      {
        "midi": 79,
        "time": 1.5,
        "duration": 0.5,
        "velocity": 0.71,
        "hand": "right"
      },
      {
        "midi": 72,
        "time": 1.75,
        "duration": 0.333,
        "velocity": 0.71,
        "hand": "right"
      },
      {
        "midi": 79,
        "time": 2,
        "duration": 0.5,
        "velocity": 0.71,
        "hand": "right"
      },
      {
        "midi": 72,
        "time": 2.25,
        "duration": 0.333,
        "velocity": 0.71,
        "hand": "right"
      },
      {
        "midi": 79,
        "time": 2.5,
        "duration": 0.5,
        "velocity": 0.71,
        "hand": "right"
      },
      {
        "midi": 72,
        "time": 2.75,
        "duration": 0.333,
        "velocity": 0.71,
        "hand": "right"
      },
      {
        "midi": 79,
        "time": 3,
        "duration": 0.5,
        "velocity": 0.71,
        "hand": "right"
      },
      {
        "midi": 72,
        "time": 3.25,
        "duration": 0.333,
        "velocity": 0.71,
        "hand": "right"
      },
      {
        "midi": 79,
        "time": 3.5,
        "duration": 0.5,
        "velocity": 0.82,
        "hand": "right"
      },
      {
        "midi": 72,
        "time": 3.75,
        "duration": 0.333,
        "velocity": 0.71,
        "hand": "right"
      },
      {
        "midi": 79,
        "time": 4,
        "duration": 0.5,
        "velocity": 0.93,
        "hand": "right"
      },
      {
        "midi": 72,
        "time": 4.25,
        "duration": 0.333,
        "velocity": 0.71,
        "hand": "right"
      },
      {
        "midi": 79,
        "time": 4.5,
        "duration": 0.5,
        "velocity": 0.93,
        "hand": "right"
      },
      {
        "midi": 72,
        "time": 4.75,
        "duration": 0.333,
        "velocity": 0.71,
        "hand": "right"
      },
      {
        "midi": 77,
        "time": 5,
        "duration": 0.5,
        "velocity": 0.82,
        "hand": "right"
      },
      {
        "midi": 72,
        "time": 5.25,
        "duration": 0.333,
        "velocity": 0.71,
        "hand": "right"
      },
      {
        "midi": 76,
        "time": 5.5,
        "duration": 0.5,
        "velocity": 0.71,
        "hand": "right"
      },
      {
        "midi": 72,
        "time": 5.75,
        "duration": 0.333,
        "velocity": 0.71,
        "hand": "right"
      },
      {
        "midi": 76,
        "time": 6,
        "duration": 0.5,
        "velocity": 0.71,
        "hand": "right"
      },
      {
        "midi": 71,
        "time": 6.25,
        "duration": 0.333,
        "velocity": 0.71,
        "hand": "right"
      },
      {
        "midi": 74,
        "time": 6.5,
        "duration": 0.5,
        "velocity": 0.71,
        "hand": "right"
      },
      {
        "midi": 71,
        "time": 6.75,
        "duration": 0.333,
        "velocity": 0.71,
        "hand": "right"
      },
      {
        "midi": 72,
        "time": 7,
        "duration": 0.5,
        "velocity": 0.71,
        "hand": "right"
      },
      {
        "midi": 67,
        "time": 7.25,
        "duration": 0.333,
        "velocity": 0.71,
        "hand": "right"
      },
      {
        "midi": 76,
        "time": 7.5,
        "duration": 1.5,
        "velocity": 0.71,
        "hand": "right"
      },
      {
        "midi": 72,
        "time": 7.75,
        "duration": 0.333,
        "velocity": 0.71,
        "hand": "right"
      },
      {
        "midi": 64,
        "time": 8,
        "duration": 0.333,
        "velocity": 0.71,
        "hand": "right"
      },
      {
        "midi": 72,
        "time": 8.25,
        "duration": 0.333,
        "velocity": 0.71,
        "hand": "right"
      },
      {
        "midi": 64,
        "time": 8.5,
        "duration": 0.333,
        "velocity": 0.71,
        "hand": "right"
      },
      {
        "midi": 72,
        "time": 8.75,
        "duration": 0.333,
        "velocity": 0.71,
        "hand": "right"
      },
      {
        "midi": 79,
        "time": 9,
        "duration": 0.5,
        "velocity": 0.71,
        "hand": "right"
      },
      {
        "midi": 72,
        "time": 9.25,
        "duration": 0.333,
        "velocity": 0.71,
        "hand": "right"
      },
      {
        "midi": 79,
        "time": 9.5,
        "duration": 0.5,
        "velocity": 0.71,
        "hand": "right"
      },
      {
        "midi": 72,
        "time": 9.75,
        "duration": 0.333,
        "velocity": 0.71,
        "hand": "right"
      },
      {
        "midi": 79,
        "time": 10,
        "duration": 0.5,
        "velocity": 0.71,
        "hand": "right"
      },
      {
        "midi": 72,
        "time": 10.25,
        "duration": 0.333,
        "velocity": 0.71,
        "hand": "right"
      },
      {
        "midi": 79,
        "time": 10.5,
        "duration": 0.5,
        "velocity": 0.71,
        "hand": "right"
      },
      {
        "midi": 72,
        "time": 10.75,
        "duration": 0.333,
        "velocity": 0.71,
        "hand": "right"
      },
      {
        "midi": 77,
        "time": 11,
        "duration": 0.5,
        "velocity": 0.71,
        "hand": "right"
      },
      {
        "midi": 72,
        "time": 11.25,
        "duration": 0.333,
        "velocity": 0.71,
        "hand": "right"
      },
      {
        "midi": 76,
        "time": 11.5,
        "duration": 0.5,
        "velocity": 0.71,
        "hand": "right"
      },
      {
        "midi": 72,
        "time": 11.75,
        "duration": 0.333,
        "velocity": 0.71,
        "hand": "right"
      },
      {
        "midi": 76,
        "time": 12,
        "duration": 0.5,
        "velocity": 0.71,
        "hand": "right"
      },
      {
        "midi": 71,
        "time": 12.25,
        "duration": 0.333,
        "velocity": 0.71,
        "hand": "right"
      },
      {
        "midi": 74,
        "time": 12.5,
        "duration": 0.5,
        "velocity": 0.71,
        "hand": "right"
      },
      {
        "midi": 71,
        "time": 12.75,
        "duration": 0.333,
        "velocity": 0.71,
        "hand": "right"
      },
      {
        "midi": 72,
        "time": 13,
        "duration": 0.5,
        "velocity": 0.71,
        "hand": "right"
      },
      {
        "midi": 67,
        "time": 13.25,
        "duration": 0.333,
        "velocity": 0.71,
        "hand": "right"
      },
      {
        "midi": 76,
        "time": 13.5,
        "duration": 1.5,
        "velocity": 0.71,
        "hand": "right"
      },
      {
        "midi": 72,
        "time": 13.75,
        "duration": 0.333,
        "velocity": 0.71,
        "hand": "right"
      },
      {
        "midi": 64,
        "time": 14,
        "duration": 0.333,
        "velocity": 0.71,
        "hand": "right"
      },
      {
        "midi": 72,
        "time": 14.25,
        "duration": 0.333,
        "velocity": 0.71,
        "hand": "right"
      },
      {
        "midi": 64,
        "time": 14.5,
        "duration": 0.333,
        "velocity": 0.71,
        "hand": "right"
      },
      {
        "midi": 72,
        "time": 14.75,
        "duration": 0.333,
        "velocity": 0.71,
        "hand": "right"
      },
      {
        "midi": 76,
        "time": 15,
        "duration": 0.5,
        "velocity": 0.71,
        "hand": "right"
      },
      {
        "midi": 71,
        "time": 15.25,
        "duration": 0.333,
        "velocity": 0.71,
        "hand": "right"
      },
      {
        "midi": 74,
        "time": 15.5,
        "duration": 0.5,
        "velocity": 0.71,
        "hand": "right"
      },
      {
        "midi": 71,
        "time": 15.75,
        "duration": 0.333,
        "velocity": 0.71,
        "hand": "right"
      },
      {
        "midi": 72,
        "time": 16,
        "duration": 0.5,
        "velocity": 0.71,
        "hand": "right"
      },
      {
        "midi": 67,
        "time": 16.25,
        "duration": 0.333,
        "velocity": 0.71,
        "hand": "right"
      },
      {
        "midi": 76,
        "time": 16.5,
        "duration": 4,
        "velocity": 0.71,
        "hand": "right"
      },
      {
        "midi": 72,
        "time": 16.75,
        "duration": 0.333,
        "velocity": 0.71,
        "hand": "right"
      },
      {
        "midi": 64,
        "time": 17,
        "duration": 0.333,
        "velocity": 0.71,
        "hand": "right"
      },
      {
        "midi": 72,
        "time": 17.25,
        "duration": 0.333,
        "velocity": 0.71,
        "hand": "right"
      },
      {
        "midi": 64,
        "time": 17.5,
        "duration": 0.333,
        "velocity": 0.71,
        "hand": "right"
      },
      {
        "midi": 72,
        "time": 17.75,
        "duration": 0.333,
        "velocity": 0.71,
        "hand": "right"
      },
      {
        "midi": 64,
        "time": 18,
        "duration": 0.333,
        "velocity": 0.71,
        "hand": "right"
      },
      {
        "midi": 72,
        "time": 18.25,
        "duration": 0.333,
        "velocity": 0.71,
        "hand": "right"
      },
      {
        "midi": 64,
        "time": 18.5,
        "duration": 0.333,
        "velocity": 0.71,
        "hand": "right"
      },
      {
        "midi": 72,
        "time": 18.75,
        "duration": 0.333,
        "velocity": 0.71,
        "hand": "right"
      },
      {
        "midi": 64,
        "time": 19,
        "duration": 0.333,
        "velocity": 0.71,
        "hand": "right"
      },
      {
        "midi": 72,
        "time": 19.25,
        "duration": 1.25,
        "velocity": 0.71,
        "hand": "right"
      },
      {
        "midi": 64,
        "time": 19.5,
        "duration": 1,
        "velocity": 0.71,
        "hand": "right"
      },
      {
        "midi": 72,
        "time": 20.5,
        "duration": 1,
        "velocity": 0.71,
        "hand": "right"
      },
      {
        "midi": 73,
        "time": 21.5,
        "duration": 0.5,
        "velocity": 0.71,
        "hand": "right"
      },
      {
        "midi": 71,
        "time": 22,
        "duration": 1,
        "velocity": 0.71,
        "hand": "right"
      },
      {
        "midi": 41,
        "time": 22.5,
        "duration": 0.5,
        "velocity": 0.48,
        "hand": "right"
      },
      {
        "midi": 72,
        "time": 23,
        "duration": 0.5,
        "velocity": 0.71,
        "hand": "right"
      },
      {
        "midi": 77,
        "time": 23.5,
        "duration": 0.5,
        "velocity": 0.71,
        "hand": "right"
      },
      {
        "midi": 76,
        "time": 24,
        "duration": 0.5,
        "velocity": 0.71,
        "hand": "right"
      },
      {
        "midi": 70,
        "time": 24.5,
        "duration": 0.5,
        "velocity": 0.71,
        "hand": "right"
      },
      {
        "midi": 73,
        "time": 25,
        "duration": 1,
        "velocity": 0.71,
        "hand": "right"
      },
      {
        "midi": 41,
        "time": 25.5,
        "duration": 0.5,
        "velocity": 0.48,
        "hand": "right"
      },
      {
        "midi": 72,
        "time": 26,
        "duration": 0.5,
        "velocity": 0.71,
        "hand": "right"
      },
      {
        "midi": 77,
        "time": 26.5,
        "duration": 0.5,
        "velocity": 0.71,
        "hand": "right"
      },
      {
        "midi": 76,
        "time": 27,
        "duration": 0.5,
        "velocity": 0.71,
        "hand": "right"
      },
      {
        "midi": 70,
        "time": 27.5,
        "duration": 0.5,
        "velocity": 0.71,
        "hand": "right"
      },
      {
        "midi": 73,
        "time": 28,
        "duration": 0.5,
        "velocity": 0.71,
        "hand": "right"
      },
      {
        "midi": 53,
        "time": 28.5,
        "duration": 0.5,
        "velocity": 0.48,
        "hand": "right"
      },
      {
        "midi": 72,
        "time": 29,
        "duration": 0.333,
        "velocity": 0.71,
        "hand": "right"
      },
      {
        "midi": 73,
        "time": 29.25,
        "duration": 0.333,
        "velocity": 0.71,
        "hand": "right"
      },
      {
        "midi": 72,
        "time": 29.5,
        "duration": 0.333,
        "velocity": 0.71,
        "hand": "right"
      },
      {
        "midi": 73,
        "time": 29.75,
        "duration": 0.333,
        "velocity": 0.71,
        "hand": "right"
      },
      {
        "midi": 75,
        "time": 30,
        "duration": 0.5,
        "velocity": 0.71,
        "hand": "right"
      },
      {
        "midi": 75,
        "time": 30.5,
        "duration": 0.5,
        "velocity": 0.71,
        "hand": "right"
      },
      {
        "midi": 75,
        "time": 31,
        "duration": 0.5,
        "velocity": 0.71,
        "hand": "right"
      },
      {
        "midi": 75,
        "time": 31.5,
        "duration": 0.5,
        "velocity": 0.71,
        "hand": "right"
      },
      {
        "midi": 73,
        "time": 32,
        "duration": 0.333,
        "velocity": 0.71,
        "hand": "right"
      },
      {
        "midi": 72,
        "time": 32.25,
        "duration": 0.333,
        "velocity": 0.71,
        "hand": "right"
      },
      {
        "midi": 70,
        "time": 32.5,
        "duration": 0.333,
        "velocity": 0.71,
        "hand": "right"
      },
      {
        "midi": 72,
        "time": 32.75,
        "duration": 0.333,
        "velocity": 0.71,
        "hand": "right"
      },
      {
        "midi": 68,
        "time": 33,
        "duration": 0.5,
        "velocity": 0.71,
        "hand": "right"
      },
      {
        "midi": 63,
        "time": 33.5,
        "duration": 0.5,
        "velocity": 0.48,
        "hand": "right"
      },
      {
        "midi": 60,
        "time": 34,
        "duration": 0.5,
        "velocity": 0.48,
        "hand": "right"
      },
      {
        "midi": 65,
        "time": 34.5,
        "duration": 0.5,
        "velocity": 0.48,
        "hand": "right"
      },
      {
        "midi": 63,
        "time": 35,
        "duration": 0.5,
        "velocity": 0.48,
        "hand": "right"
      },
      {
        "midi": 60,
        "time": 35.5,
        "duration": 0.5,
        "velocity": 0.48,
        "hand": "right"
      },
      {
        "midi": 32,
        "time": 36,
        "duration": 0.5,
        "velocity": 0.48,
        "hand": "right"
      },
      {
        "midi": 75,
        "time": 36.5,
        "duration": 0.5,
        "velocity": 0.71,
        "hand": "right"
      },
      {
        "midi": 80,
        "time": 37,
        "duration": 0.5,
        "velocity": 0.71,
        "hand": "right"
      },
      {
        "midi": 79,
        "time": 37.5,
        "duration": 0.5,
        "velocity": 0.71,
        "hand": "right"
      },
      {
        "midi": 73,
        "time": 38,
        "duration": 0.5,
        "velocity": 0.71,
        "hand": "right"
      },
      {
        "midi": 76,
        "time": 38.5,
        "duration": 1,
        "velocity": 0.71,
        "hand": "right"
      },
      {
        "midi": 44,
        "time": 39,
        "duration": 0.5,
        "velocity": 0.48,
        "hand": "right"
      },
      {
        "midi": 75,
        "time": 39.5,
        "duration": 0.5,
        "velocity": 0.71,
        "hand": "right"
      },
      {
        "midi": 80,
        "time": 40,
        "duration": 0.5,
        "velocity": 0.71,
        "hand": "right"
      },
      {
        "midi": 79,
        "time": 40.5,
        "duration": 0.5,
        "velocity": 0.71,
        "hand": "right"
      },
      {
        "midi": 73,
        "time": 41,
        "duration": 0.5,
        "velocity": 0.71,
        "hand": "right"
      },
      {
        "midi": 76,
        "time": 41.5,
        "duration": 0.5,
        "velocity": 0.71,
        "hand": "right"
      },
      {
        "midi": 44,
        "time": 42,
        "duration": 0.5,
        "velocity": 0.48,
        "hand": "right"
      },
      {
        "midi": 75,
        "time": 42.5,
        "duration": 0.333,
        "velocity": 0.71,
        "hand": "right"
      },
      {
        "midi": 77,
        "time": 42.75,
        "duration": 0.333,
        "velocity": 0.71,
        "hand": "right"
      },
      {
        "midi": 75,
        "time": 43,
        "duration": 0.333,
        "velocity": 0.71,
        "hand": "right"
      },
      {
        "midi": 77,
        "time": 43.25,
        "duration": 0.333,
        "velocity": 0.71,
        "hand": "right"
      },
      {
        "midi": 78,
        "time": 43.5,
        "duration": 0.5,
        "velocity": 0.71,
        "hand": "right"
      },
      {
        "midi": 78,
        "time": 44,
        "duration": 0.5,
        "velocity": 0.71,
        "hand": "right"
      },
      {
        "midi": 78,
        "time": 44.5,
        "duration": 0.5,
        "velocity": 0.71,
        "hand": "right"
      },
      {
        "midi": 78,
        "time": 45,
        "duration": 0.5,
        "velocity": 0.71,
        "hand": "right"
      },
      {
        "midi": 77,
        "time": 45.5,
        "duration": 0.333,
        "velocity": 0.71,
        "hand": "right"
      },
      {
        "midi": 72,
        "time": 45.75,
        "duration": 0.333,
        "velocity": 0.71,
        "hand": "right"
      },
      {
        "midi": 75,
        "time": 46,
        "duration": 0.333,
        "velocity": 0.71,
        "hand": "right"
      },
      {
        "midi": 73,
        "time": 46.25,
        "duration": 0.333,
        "velocity": 0.71,
        "hand": "right"
      },
      {
        "midi": 70,
        "time": 46.5,
        "duration": 0.5,
        "velocity": 0.71,
        "hand": "right"
      },
      {
        "midi": 65,
        "time": 47,
        "duration": 0.5,
        "velocity": 0.48,
        "hand": "right"
      },
      {
        "midi": 61,
        "time": 47.5,
        "duration": 0.5,
        "velocity": 0.48,
        "hand": "right"
      },
      {
        "midi": 42,
        "time": 48,
        "duration": 0.5,
        "velocity": 0.48,
        "hand": "right"
      },
      {
        "midi": 73,
        "time": 48.5,
        "duration": 0.333,
        "velocity": 0.71,
        "hand": "right"
      },
      {
        "midi": 75,
        "time": 48.75,
        "duration": 0.333,
        "velocity": 0.71,
        "hand": "right"
      },
      {
        "midi": 73,
        "time": 49,
        "duration": 0.333,
        "velocity": 0.71,
        "hand": "right"
      },
      {
        "midi": 75,
        "time": 49.25,
        "duration": 0.333,
        "velocity": 0.71,
        "hand": "right"
      },
      {
        "midi": 77,
        "time": 49.5,
        "duration": 0.5,
        "velocity": 0.71,
        "hand": "right"
      },
      {
        "midi": 77,
        "time": 50,
        "duration": 0.5,
        "velocity": 0.71,
        "hand": "right"
      },
      {
        "midi": 77,
        "time": 50.5,
        "duration": 0.5,
        "velocity": 0.71,
        "hand": "right"
      },
      {
        "midi": 77,
        "time": 51,
        "duration": 0.5,
        "velocity": 0.71,
        "hand": "right"
      },
      {
        "midi": 75,
        "time": 51.5,
        "duration": 0.333,
        "velocity": 0.71,
        "hand": "right"
      },
      {
        "midi": 70,
        "time": 51.75,
        "duration": 0.333,
        "velocity": 0.71,
        "hand": "right"
      },
      {
        "midi": 73,
        "time": 52,
        "duration": 0.333,
        "velocity": 0.71,
        "hand": "right"
      },
      {
        "midi": 72,
        "time": 52.25,
        "duration": 0.333,
        "velocity": 0.71,
        "hand": "right"
      },
      {
        "midi": 69,
        "time": 52.5,
        "duration": 0.5,
        "velocity": 0.71,
        "hand": "right"
      },
      {
        "midi": 72,
        "time": 53,
        "duration": 0.5,
        "velocity": 0.71,
        "hand": "right"
      },
      {
        "midi": 77,
        "time": 53.5,
        "duration": 0.5,
        "velocity": 0.71,
        "hand": "right"
      },
      {
        "midi": 76,
        "time": 54,
        "duration": 0.5,
        "velocity": 0.71,
        "hand": "right"
      },
      {
        "midi": 70,
        "time": 54.5,
        "duration": 0.5,
        "velocity": 0.71,
        "hand": "right"
      },
      {
        "midi": 73,
        "time": 55,
        "duration": 1,
        "velocity": 0.71,
        "hand": "right"
      },
      {
        "midi": 41,
        "time": 55.5,
        "duration": 0.5,
        "velocity": 0.48,
        "hand": "right"
      },
      {
        "midi": 72,
        "time": 56,
        "duration": 0.5,
        "velocity": 0.71,
        "hand": "right"
      },
      {
        "midi": 77,
        "time": 56.5,
        "duration": 0.5,
        "velocity": 0.71,
        "hand": "right"
      },
      {
        "midi": 76,
        "time": 57,
        "duration": 0.5,
        "velocity": 0.71,
        "hand": "right"
      },
      {
        "midi": 70,
        "time": 57.5,
        "duration": 0.5,
        "velocity": 0.71,
        "hand": "right"
      },
      {
        "midi": 73,
        "time": 58,
        "duration": 0.5,
        "velocity": 0.71,
        "hand": "right"
      },
      {
        "midi": 41,
        "time": 58.5,
        "duration": 0.5,
        "velocity": 0.48,
        "hand": "right"
      },
      {
        "midi": 72,
        "time": 59,
        "duration": 0.333,
        "velocity": 0.71,
        "hand": "right"
      },
      {
        "midi": 73,
        "time": 59.25,
        "duration": 0.333,
        "velocity": 0.71,
        "hand": "right"
      },
      {
        "midi": 72,
        "time": 59.5,
        "duration": 0.333,
        "velocity": 0.71,
        "hand": "right"
      },
      {
        "midi": 73,
        "time": 59.75,
        "duration": 0.333,
        "velocity": 0.71,
        "hand": "right"
      },
      {
        "midi": 75,
        "time": 60,
        "duration": 0.5,
        "velocity": 0.71,
        "hand": "right"
      },
      {
        "midi": 75,
        "time": 60.5,
        "duration": 0.5,
        "velocity": 0.71,
        "hand": "right"
      },
      {
        "midi": 75,
        "time": 61,
        "duration": 0.5,
        "velocity": 0.71,
        "hand": "right"
      },
      {
        "midi": 75,
        "time": 61.5,
        "duration": 0.5,
        "velocity": 0.71,
        "hand": "right"
      },
      {
        "midi": 77,
        "time": 62,
        "duration": 0.333,
        "velocity": 0.71,
        "hand": "right"
      },
      {
        "midi": 72,
        "time": 62.25,
        "duration": 0.333,
        "velocity": 0.71,
        "hand": "right"
      },
      {
        "midi": 75,
        "time": 62.5,
        "duration": 0.333,
        "velocity": 0.71,
        "hand": "right"
      },
      {
        "midi": 73,
        "time": 62.75,
        "duration": 0.333,
        "velocity": 0.71,
        "hand": "right"
      },
      {
        "midi": 70,
        "time": 63,
        "duration": 1.5,
        "velocity": 0.71,
        "hand": "right"
      },
      {
        "midi": 65,
        "time": 63.5,
        "duration": 0.5,
        "velocity": 0.48,
        "hand": "right"
      },
      {
        "midi": 61,
        "time": 64,
        "duration": 0.5,
        "velocity": 0.48,
        "hand": "right"
      },
      {
        "midi": 67,
        "time": 64.5,
        "duration": 1,
        "velocity": 0.71,
        "hand": "right"
      },
      {
        "midi": 64,
        "time": 65,
        "duration": 0.5,
        "velocity": 0.48,
        "hand": "right"
      },
      {
        "midi": 60,
        "time": 65.5,
        "duration": 0.5,
        "velocity": 0.48,
        "hand": "right"
      },
      {
        "midi": 41,
        "time": 66,
        "duration": 0.5,
        "velocity": 0.48,
        "hand": "right"
      },
      {
        "midi": 72,
        "time": 66.5,
        "duration": 0.5,
        "velocity": 0.71,
        "hand": "right"
      },
      {
        "midi": 77,
        "time": 67,
        "duration": 0.5,
        "velocity": 0.71,
        "hand": "right"
      },
      {
        "midi": 76,
        "time": 67.5,
        "duration": 0.5,
        "velocity": 0.71,
        "hand": "right"
      },
      {
        "midi": 70,
        "time": 68,
        "duration": 0.5,
        "velocity": 0.71,
        "hand": "right"
      },
      {
        "midi": 73,
        "time": 68.5,
        "duration": 1,
        "velocity": 0.71,
        "hand": "right"
      },
      {
        "midi": 41,
        "time": 69,
        "duration": 0.5,
        "velocity": 0.48,
        "hand": "right"
      },
      {
        "midi": 72,
        "time": 69.5,
        "duration": 0.5,
        "velocity": 0.71,
        "hand": "right"
      },
      {
        "midi": 77,
        "time": 70,
        "duration": 0.75,
        "velocity": 0.71,
        "hand": "right"
      },
      {
        "midi": 53,
        "time": 70.5,
        "duration": 0.5,
        "velocity": 0.48,
        "hand": "right"
      },
      {
        "midi": 76,
        "time": 70.75,
        "duration": 0.333,
        "velocity": 0.71,
        "hand": "right"
      },
      {
        "midi": 70,
        "time": 71,
        "duration": 0.333,
        "velocity": 0.71,
        "hand": "right"
      },
      {
        "midi": 72,
        "time": 71.25,
        "duration": 0.333,
        "velocity": 0.71,
        "hand": "right"
      },
      {
        "midi": 75,
        "time": 71.5,
        "duration": 0.333,
        "velocity": 0.71,
        "hand": "right"
      },
      {
        "midi": 73,
        "time": 71.75,
        "duration": 0.333,
        "velocity": 0.71,
        "hand": "right"
      },
      {
        "midi": 53,
        "time": 72,
        "duration": 0.5,
        "velocity": 0.48,
        "hand": "right"
      },
      {
        "midi": 72,
        "time": 72.5,
        "duration": 0.333,
        "velocity": 0.71,
        "hand": "right"
      },
      {
        "midi": 73,
        "time": 72.75,
        "duration": 0.333,
        "velocity": 0.71,
        "hand": "right"
      },
      {
        "midi": 72,
        "time": 73,
        "duration": 0.333,
        "velocity": 0.71,
        "hand": "right"
      },
      {
        "midi": 73,
        "time": 73.25,
        "duration": 0.333,
        "velocity": 0.71,
        "hand": "right"
      },
      {
        "midi": 75,
        "time": 73.5,
        "duration": 0.5,
        "velocity": 0.71,
        "hand": "right"
      },
      {
        "midi": 75,
        "time": 74,
        "duration": 0.5,
        "velocity": 0.71,
        "hand": "right"
      },
      {
        "midi": 75,
        "time": 74.5,
        "duration": 0.5,
        "velocity": 0.71,
        "hand": "right"
      },
      {
        "midi": 75,
        "time": 75,
        "duration": 0.5,
        "velocity": 0.71,
        "hand": "right"
      },
      {
        "midi": 73,
        "time": 75.5,
        "duration": 0.333,
        "velocity": 0.71,
        "hand": "right"
      },
      {
        "midi": 72,
        "time": 75.75,
        "duration": 0.333,
        "velocity": 0.71,
        "hand": "right"
      },
      {
        "midi": 70,
        "time": 76,
        "duration": 0.333,
        "velocity": 0.71,
        "hand": "right"
      },
      {
        "midi": 72,
        "time": 76.25,
        "duration": 0.333,
        "velocity": 0.71,
        "hand": "right"
      },
      {
        "midi": 68,
        "time": 76.5,
        "duration": 0.5,
        "velocity": 0.71,
        "hand": "right"
      },
      {
        "midi": 63,
        "time": 77,
        "duration": 0.5,
        "velocity": 0.48,
        "hand": "right"
      },
      {
        "midi": 60,
        "time": 77.5,
        "duration": 0.5,
        "velocity": 0.48,
        "hand": "right"
      },
      {
        "midi": 44,
        "time": 78,
        "duration": 0.5,
        "velocity": 0.48,
        "hand": "right"
      },
      {
        "midi": 64,
        "time": 78.5,
        "duration": 0.5,
        "velocity": 0.48,
        "hand": "right"
      },
      {
        "midi": 60,
        "time": 79,
        "duration": 0.5,
        "velocity": 0.48,
        "hand": "right"
      },
      {
        "midi": 32,
        "time": 79.5,
        "duration": 0.5,
        "velocity": 0.48,
        "hand": "right"
      },
      {
        "midi": 75,
        "time": 80,
        "duration": 0.5,
        "velocity": 0.71,
        "hand": "right"
      },
      {
        "midi": 80,
        "time": 80.5,
        "duration": 0.5,
        "velocity": 0.71,
        "hand": "right"
      },
      {
        "midi": 79,
        "time": 81,
        "duration": 0.5,
        "velocity": 0.71,
        "hand": "right"
      },
      {
        "midi": 73,
        "time": 81.5,
        "duration": 0.5,
        "velocity": 0.71,
        "hand": "right"
      },
      {
        "midi": 76,
        "time": 82,
        "duration": 1,
        "velocity": 0.71,
        "hand": "right"
      },
      {
        "midi": 44,
        "time": 82.5,
        "duration": 0.5,
        "velocity": 0.48,
        "hand": "right"
      },
      {
        "midi": 75,
        "time": 83,
        "duration": 0.5,
        "velocity": 0.71,
        "hand": "right"
      },
      {
        "midi": 80,
        "time": 83.5,
        "duration": 0.75,
        "velocity": 0.71,
        "hand": "right"
      },
      {
        "midi": 56,
        "time": 84,
        "duration": 0.5,
        "velocity": 0.48,
        "hand": "right"
      },
      {
        "midi": 79,
        "time": 84.25,
        "duration": 0.333,
        "velocity": 0.71,
        "hand": "right"
      },
      {
        "midi": 73,
        "time": 84.5,
        "duration": 0.333,
        "velocity": 0.71,
        "hand": "right"
      },
      {
        "midi": 75,
        "time": 84.75,
        "duration": 0.333,
        "velocity": 0.71,
        "hand": "right"
      },
      {
        "midi": 78,
        "time": 85,
        "duration": 0.333,
        "velocity": 0.71,
        "hand": "right"
      },
      {
        "midi": 76,
        "time": 85.25,
        "duration": 0.333,
        "velocity": 0.71,
        "hand": "right"
      },
      {
        "midi": 44,
        "time": 85.5,
        "duration": 0.5,
        "velocity": 0.48,
        "hand": "right"
      },
      {
        "midi": 75,
        "time": 86,
        "duration": 0.333,
        "velocity": 0.71,
        "hand": "right"
      },
      {
        "midi": 77,
        "time": 86.25,
        "duration": 0.333,
        "velocity": 0.71,
        "hand": "right"
      },
      {
        "midi": 75,
        "time": 86.5,
        "duration": 0.333,
        "velocity": 0.71,
        "hand": "right"
      },
      {
        "midi": 77,
        "time": 86.75,
        "duration": 0.333,
        "velocity": 0.71,
        "hand": "right"
      },
      {
        "midi": 78,
        "time": 87,
        "duration": 0.5,
        "velocity": 0.71,
        "hand": "right"
      },
      {
        "midi": 78,
        "time": 87.5,
        "duration": 0.5,
        "velocity": 0.71,
        "hand": "right"
      },
      {
        "midi": 78,
        "time": 88,
        "duration": 0.5,
        "velocity": 0.71,
        "hand": "right"
      },
      {
        "midi": 78,
        "time": 88.5,
        "duration": 0.5,
        "velocity": 0.71,
        "hand": "right"
      },
      {
        "midi": 77,
        "time": 89,
        "duration": 0.333,
        "velocity": 0.71,
        "hand": "right"
      },
      {
        "midi": 72,
        "time": 89.25,
        "duration": 0.333,
        "velocity": 0.71,
        "hand": "right"
      },
      {
        "midi": 75,
        "time": 89.5,
        "duration": 0.333,
        "velocity": 0.71,
        "hand": "right"
      },
      {
        "midi": 73,
        "time": 89.75,
        "duration": 0.333,
        "velocity": 0.71,
        "hand": "right"
      },
      {
        "midi": 70,
        "time": 90,
        "duration": 0.5,
        "velocity": 0.71,
        "hand": "right"
      },
      {
        "midi": 65,
        "time": 90.5,
        "duration": 0.5,
        "velocity": 0.48,
        "hand": "right"
      },
      {
        "midi": 61,
        "time": 91,
        "duration": 0.5,
        "velocity": 0.48,
        "hand": "right"
      },
      {
        "midi": 42,
        "time": 91.5,
        "duration": 0.5,
        "velocity": 0.48,
        "hand": "right"
      },
      {
        "midi": 73,
        "time": 92,
        "duration": 0.333,
        "velocity": 0.71,
        "hand": "right"
      },
      {
        "midi": 75,
        "time": 92.25,
        "duration": 0.333,
        "velocity": 0.71,
        "hand": "right"
      },
      {
        "midi": 73,
        "time": 92.5,
        "duration": 0.333,
        "velocity": 0.71,
        "hand": "right"
      },
      {
        "midi": 75,
        "time": 92.75,
        "duration": 0.333,
        "velocity": 0.71,
        "hand": "right"
      },
      {
        "midi": 77,
        "time": 93,
        "duration": 0.5,
        "velocity": 0.71,
        "hand": "right"
      },
      {
        "midi": 77,
        "time": 93.5,
        "duration": 0.5,
        "velocity": 0.71,
        "hand": "right"
      },
      {
        "midi": 77,
        "time": 94,
        "duration": 0.5,
        "velocity": 0.71,
        "hand": "right"
      },
      {
        "midi": 77,
        "time": 94.5,
        "duration": 0.5,
        "velocity": 0.71,
        "hand": "right"
      },
      {
        "midi": 75,
        "time": 95,
        "duration": 0.333,
        "velocity": 0.71,
        "hand": "right"
      },
      {
        "midi": 70,
        "time": 95.25,
        "duration": 0.333,
        "velocity": 0.71,
        "hand": "right"
      },
      {
        "midi": 73,
        "time": 95.5,
        "duration": 0.333,
        "velocity": 0.71,
        "hand": "right"
      },
      {
        "midi": 72,
        "time": 95.75,
        "duration": 0.333,
        "velocity": 0.71,
        "hand": "right"
      },
      {
        "midi": 69,
        "time": 96,
        "duration": 0.5,
        "velocity": 0.71,
        "hand": "right"
      },
      {
        "midi": 72,
        "time": 96.5,
        "duration": 0.5,
        "velocity": 0.71,
        "hand": "right"
      },
      {
        "midi": 77,
        "time": 97,
        "duration": 0.5,
        "velocity": 0.71,
        "hand": "right"
      },
      {
        "midi": 76,
        "time": 97.5,
        "duration": 0.5,
        "velocity": 0.71,
        "hand": "right"
      },
      {
        "midi": 70,
        "time": 98,
        "duration": 0.5,
        "velocity": 0.71,
        "hand": "right"
      },
      {
        "midi": 73,
        "time": 98.5,
        "duration": 1,
        "velocity": 0.71,
        "hand": "right"
      },
      {
        "midi": 41,
        "time": 99,
        "duration": 0.5,
        "velocity": 0.48,
        "hand": "right"
      },
      {
        "midi": 72,
        "time": 99.5,
        "duration": 0.5,
        "velocity": 0.71,
        "hand": "right"
      },
      {
        "midi": 77,
        "time": 100,
        "duration": 0.75,
        "velocity": 0.71,
        "hand": "right"
      },
      {
        "midi": 53,
        "time": 100.5,
        "duration": 0.5,
        "velocity": 0.48,
        "hand": "right"
      },
      {
        "midi": 76,
        "time": 100.75,
        "duration": 0.333,
        "velocity": 0.71,
        "hand": "right"
      },
      {
        "midi": 70,
        "time": 101,
        "duration": 0.333,
        "velocity": 0.71,
        "hand": "right"
      },
      {
        "midi": 72,
        "time": 101.25,
        "duration": 0.333,
        "velocity": 0.71,
        "hand": "right"
      },
      {
        "midi": 75,
        "time": 101.5,
        "duration": 0.333,
        "velocity": 0.71,
        "hand": "right"
      },
      {
        "midi": 73,
        "time": 101.75,
        "duration": 0.333,
        "velocity": 0.71,
        "hand": "right"
      },
      {
        "midi": 41,
        "time": 102,
        "duration": 0.5,
        "velocity": 0.48,
        "hand": "right"
      },
      {
        "midi": 72,
        "time": 102.5,
        "duration": 0.333,
        "velocity": 0.71,
        "hand": "right"
      },
      {
        "midi": 73,
        "time": 102.75,
        "duration": 0.333,
        "velocity": 0.71,
        "hand": "right"
      },
      {
        "midi": 72,
        "time": 103,
        "duration": 0.333,
        "velocity": 0.71,
        "hand": "right"
      },
      {
        "midi": 73,
        "time": 103.25,
        "duration": 0.333,
        "velocity": 0.71,
        "hand": "right"
      },
      {
        "midi": 75,
        "time": 103.5,
        "duration": 0.5,
        "velocity": 0.71,
        "hand": "right"
      },
      {
        "midi": 75,
        "time": 104,
        "duration": 0.5,
        "velocity": 0.71,
        "hand": "right"
      },
      {
        "midi": 75,
        "time": 104.5,
        "duration": 0.5,
        "velocity": 0.71,
        "hand": "right"
      },
      {
        "midi": 75,
        "time": 105,
        "duration": 0.5,
        "velocity": 0.71,
        "hand": "right"
      },
      {
        "midi": 77,
        "time": 105.5,
        "duration": 0.333,
        "velocity": 0.71,
        "hand": "right"
      },
      {
        "midi": 72,
        "time": 105.75,
        "duration": 0.333,
        "velocity": 0.71,
        "hand": "right"
      },
      {
        "midi": 75,
        "time": 106,
        "duration": 0.333,
        "velocity": 0.71,
        "hand": "right"
      },
      {
        "midi": 73,
        "time": 106.25,
        "duration": 0.333,
        "velocity": 0.71,
        "hand": "right"
      },
      {
        "midi": 70,
        "time": 106.5,
        "duration": 1,
        "velocity": 0.71,
        "hand": "right"
      },
      {
        "midi": 65,
        "time": 107,
        "duration": 0.5,
        "velocity": 0.48,
        "hand": "right"
      },
      {
        "midi": 61,
        "time": 107.5,
        "duration": 0.5,
        "velocity": 0.48,
        "hand": "right"
      },
      {
        "midi": 66,
        "time": 108,
        "duration": 0.5,
        "velocity": 0.48,
        "hand": "right"
      },
      {
        "midi": 65,
        "time": 108.5,
        "duration": 0.5,
        "velocity": 0.26,
        "hand": "right"
      },
      {
        "midi": 61,
        "time": 109,
        "duration": 0.5,
        "velocity": 0.26,
        "hand": "right"
      },
      {
        "midi": 58,
        "time": 109.5,
        "duration": 0.5,
        "velocity": 0.26,
        "hand": "right"
      },
      {
        "midi": 46,
        "time": 110,
        "duration": 0.5,
        "velocity": 0.26,
        "hand": "right"
      },
      {
        "midi": 44,
        "time": 110.5,
        "duration": 0.5,
        "velocity": 0.26,
        "hand": "right"
      },
      {
        "midi": 42,
        "time": 111,
        "duration": 0.5,
        "velocity": 0.26,
        "hand": "right"
      },
      {
        "midi": 49,
        "time": 111.5,
        "duration": 0.5,
        "velocity": 0.26,
        "hand": "right"
      },
      {
        "midi": 54,
        "time": 112,
        "duration": 0.5,
        "velocity": 0.26,
        "hand": "right"
      },
      {
        "midi": 78,
        "time": 112.5,
        "duration": 1,
        "velocity": 0.71,
        "hand": "right"
      },
      {
        "midi": 63,
        "time": 113,
        "duration": 0.5,
        "velocity": 0.26,
        "hand": "right"
      },
      {
        "midi": 78,
        "time": 113.5,
        "duration": 0.5,
        "velocity": 0.71,
        "hand": "right"
      },
      {
        "midi": 78,
        "time": 114,
        "duration": 4.5,
        "velocity": 0.71,
        "hand": "right"
      },
      {
        "midi": 63,
        "time": 114.5,
        "duration": 0.5,
        "velocity": 0.26,
        "hand": "right"
      },
      {
        "midi": 58,
        "time": 115,
        "duration": 0.5,
        "velocity": 0.26,
        "hand": "right"
      },
      {
        "midi": 61,
        "time": 115.5,
        "duration": 0.5,
        "velocity": 0.26,
        "hand": "right"
      },
      {
        "midi": 56,
        "time": 116,
        "duration": 0.5,
        "velocity": 0.26,
        "hand": "right"
      },
      {
        "midi": 58,
        "time": 116.5,
        "duration": 0.5,
        "velocity": 0.26,
        "hand": "right"
      },
      {
        "midi": 54,
        "time": 117,
        "duration": 0.5,
        "velocity": 0.26,
        "hand": "right"
      },
      {
        "midi": 51,
        "time": 117.5,
        "duration": 0.5,
        "velocity": 0.26,
        "hand": "right"
      },
      {
        "midi": 46,
        "time": 118,
        "duration": 0.5,
        "velocity": 0.26,
        "hand": "right"
      },
      {
        "midi": 78,
        "time": 118.5,
        "duration": 1,
        "velocity": 0.71,
        "hand": "right"
      },
      {
        "midi": 44,
        "time": 119,
        "duration": 0.5,
        "velocity": 0.26,
        "hand": "right"
      },
      {
        "midi": 78,
        "time": 119.5,
        "duration": 0.5,
        "velocity": 0.71,
        "hand": "right"
      },
      {
        "midi": 78,
        "time": 120,
        "duration": 1.5,
        "velocity": 0.71,
        "hand": "right"
      },
      {
        "midi": 63,
        "time": 120.5,
        "duration": 0.5,
        "velocity": 0.26,
        "hand": "right"
      },
      {
        "midi": 58,
        "time": 121,
        "duration": 0.5,
        "velocity": 0.26,
        "hand": "right"
      },
      {
        "midi": 77,
        "time": 121.5,
        "duration": 1.5,
        "velocity": 0.71,
        "hand": "right"
      },
      {
        "midi": 56,
        "time": 122,
        "duration": 0.5,
        "velocity": 0.26,
        "hand": "right"
      },
      {
        "midi": 58,
        "time": 122.5,
        "duration": 0.5,
        "velocity": 0.26,
        "hand": "right"
      },
      {
        "midi": 76,
        "time": 123,
        "duration": 1.5,
        "velocity": 0.71,
        "hand": "right"
      },
      {
        "midi": 47,
        "time": 123.5,
        "duration": 0.5,
        "velocity": 0.26,
        "hand": "right"
      },
      {
        "midi": 52,
        "time": 124,
        "duration": 0.5,
        "velocity": 0.26,
        "hand": "right"
      },
      {
        "midi": 76,
        "time": 124.5,
        "duration": 1,
        "velocity": 0.71,
        "hand": "right"
      },
      {
        "midi": 61,
        "time": 125,
        "duration": 0.5,
        "velocity": 0.26,
        "hand": "right"
      },
      {
        "midi": 76,
        "time": 125.5,
        "duration": 0.5,
        "velocity": 0.71,
        "hand": "right"
      },
      {
        "midi": 76,
        "time": 126,
        "duration": 4.5,
        "velocity": 0.71,
        "hand": "right"
      },
      {
        "midi": 61,
        "time": 126.5,
        "duration": 0.5,
        "velocity": 0.26,
        "hand": "right"
      },
      {
        "midi": 56,
        "time": 127,
        "duration": 0.5,
        "velocity": 0.26,
        "hand": "right"
      },
      {
        "midi": 59,
        "time": 127.5,
        "duration": 0.5,
        "velocity": 0.26,
        "hand": "right"
      },
      {
        "midi": 54,
        "time": 128,
        "duration": 0.5,
        "velocity": 0.26,
        "hand": "right"
      },
      {
        "midi": 56,
        "time": 128.5,
        "duration": 0.5,
        "velocity": 0.26,
        "hand": "right"
      },
      {
        "midi": 52,
        "time": 129,
        "duration": 0.5,
        "velocity": 0.26,
        "hand": "right"
      },
      {
        "midi": 49,
        "time": 129.5,
        "duration": 0.5,
        "velocity": 0.26,
        "hand": "right"
      },
      {
        "midi": 44,
        "time": 130,
        "duration": 0.5,
        "velocity": 0.26,
        "hand": "right"
      },
      {
        "midi": 76,
        "time": 130.5,
        "duration": 1,
        "velocity": 0.71,
        "hand": "right"
      },
      {
        "midi": 42,
        "time": 131,
        "duration": 0.5,
        "velocity": 0.26,
        "hand": "right"
      },
      {
        "midi": 76,
        "time": 131.5,
        "duration": 0.5,
        "velocity": 0.71,
        "hand": "right"
      },
      {
        "midi": 76,
        "time": 132,
        "duration": 1.5,
        "velocity": 0.71,
        "hand": "right"
      },
      {
        "midi": 61,
        "time": 132.5,
        "duration": 0.5,
        "velocity": 0.26,
        "hand": "right"
      },
      {
        "midi": 56,
        "time": 133,
        "duration": 0.5,
        "velocity": 0.26,
        "hand": "right"
      },
      {
        "midi": 75,
        "time": 133.5,
        "duration": 1.5,
        "velocity": 0.71,
        "hand": "right"
      },
      {
        "midi": 70,
        "time": 134,
        "duration": 0.5,
        "velocity": 0.71,
        "hand": "right"
      },
      {
        "midi": 71,
        "time": 134.5,
        "duration": 0.5,
        "velocity": 0.71,
        "hand": "right"
      },
      {
        "midi": 62,
        "time": 135,
        "duration": 0.5,
        "velocity": 0.71,
        "hand": "right"
      },
      {
        "midi": 74,
        "time": 135.5,
        "duration": 0.333,
        "velocity": 0.71,
        "hand": "right"
      },
      {
        "midi": 75,
        "time": 135.75,
        "duration": 0.333,
        "velocity": 0.71,
        "hand": "right"
      },
      {
        "midi": 74,
        "time": 136,
        "duration": 0.333,
        "velocity": 0.71,
        "hand": "right"
      },
      {
        "midi": 75,
        "time": 136.25,
        "duration": 0.333,
        "velocity": 0.71,
        "hand": "right"
      },
      {
        "midi": 77,
        "time": 136.5,
        "duration": 0.5,
        "velocity": 0.71,
        "hand": "right"
      },
      {
        "midi": 77,
        "time": 137,
        "duration": 0.5,
        "velocity": 0.71,
        "hand": "right"
      },
      {
        "midi": 77,
        "time": 137.5,
        "duration": 0.5,
        "velocity": 0.71,
        "hand": "right"
      },
      {
        "midi": 77,
        "time": 138,
        "duration": 0.5,
        "velocity": 0.71,
        "hand": "right"
      },
      {
        "midi": 78,
        "time": 138.5,
        "duration": 0.333,
        "velocity": 0.71,
        "hand": "right"
      },
      {
        "midi": 77,
        "time": 138.75,
        "duration": 0.333,
        "velocity": 0.71,
        "hand": "right"
      },
      {
        "midi": 75,
        "time": 139,
        "duration": 0.333,
        "velocity": 0.71,
        "hand": "right"
      },
      {
        "midi": 68,
        "time": 139.25,
        "duration": 0.333,
        "velocity": 0.71,
        "hand": "right"
      },
      {
        "midi": 83,
        "time": 139.5,
        "duration": 1.5,
        "velocity": 0.71,
        "hand": "right"
      },
      {
        "midi": 68,
        "time": 140,
        "duration": 0.5,
        "velocity": 0.26,
        "hand": "right"
      },
      {
        "midi": 63,
        "time": 140.5,
        "duration": 0.5,
        "velocity": 0.26,
        "hand": "right"
      },
      {
        "midi": 46,
        "time": 141,
        "duration": 0.5,
        "velocity": 0.26,
        "hand": "right"
      },
      {
        "midi": 74,
        "time": 141.5,
        "duration": 0.333,
        "velocity": 0.71,
        "hand": "right"
      },
      {
        "midi": 75,
        "time": 141.75,
        "duration": 0.333,
        "velocity": 0.71,
        "hand": "right"
      },
      {
        "midi": 74,
        "time": 142,
        "duration": 0.333,
        "velocity": 0.71,
        "hand": "right"
      },
      {
        "midi": 75,
        "time": 142.25,
        "duration": 0.333,
        "velocity": 0.71,
        "hand": "right"
      },
      {
        "midi": 77,
        "time": 142.5,
        "duration": 0.5,
        "velocity": 0.71,
        "hand": "right"
      },
      {
        "midi": 77,
        "time": 143,
        "duration": 0.5,
        "velocity": 0.71,
        "hand": "right"
      },
      {
        "midi": 77,
        "time": 143.5,
        "duration": 0.5,
        "velocity": 0.71,
        "hand": "right"
      },
      {
        "midi": 77,
        "time": 144,
        "duration": 0.5,
        "velocity": 0.71,
        "hand": "right"
      },
      {
        "midi": 78,
        "time": 144.5,
        "duration": 0.333,
        "velocity": 0.71,
        "hand": "right"
      },
      {
        "midi": 77,
        "time": 144.75,
        "duration": 0.333,
        "velocity": 0.71,
        "hand": "right"
      },
      {
        "midi": 75,
        "time": 145,
        "duration": 0.333,
        "velocity": 0.71,
        "hand": "right"
      },
      {
        "midi": 69,
        "time": 145.25,
        "duration": 0.333,
        "velocity": 0.71,
        "hand": "right"
      },
      {
        "midi": 84,
        "time": 145.5,
        "duration": 1.5,
        "velocity": 0.71,
        "hand": "right"
      },
      {
        "midi": 69,
        "time": 146,
        "duration": 0.5,
        "velocity": 0.26,
        "hand": "right"
      },
      {
        "midi": 63,
        "time": 146.5,
        "duration": 0.5,
        "velocity": 0.26,
        "hand": "right"
      },
      {
        "midi": 82,
        "time": 147,
        "duration": 1.5,
        "velocity": 0.71,
        "hand": "right"
      },
      {
        "midi": 68,
        "time": 147.5,
        "duration": 0.5,
        "velocity": 0.26,
        "hand": "right"
      },
      {
        "midi": 62,
        "time": 148,
        "duration": 0.5,
        "velocity": 0.26,
        "hand": "right"
      },
      {
        "midi": 79,
        "time": 148.5,
        "duration": 1.5,
        "velocity": 0.71,
        "hand": "right"
      },
      {
        "midi": 67,
        "time": 149,
        "duration": 0.5,
        "velocity": 0.26,
        "hand": "right"
      },
      {
        "midi": 61,
        "time": 149.5,
        "duration": 0.5,
        "velocity": 0.26,
        "hand": "right"
      },
      {
        "midi": 82,
        "time": 150,
        "duration": 0.5,
        "velocity": 0.71,
        "hand": "right"
      },
      {
        "midi": 80,
        "time": 150.5,
        "duration": 0.333,
        "velocity": 0.71,
        "hand": "right"
      },
      {
        "midi": 75,
        "time": 150.75,
        "duration": 0.333,
        "velocity": 0.71,
        "hand": "right"
      },
      {
        "midi": 80,
        "time": 151,
        "duration": 0.333,
        "velocity": 0.71,
        "hand": "right"
      },
      {
        "midi": 78,
        "time": 151.25,
        "duration": 0.333,
        "velocity": 0.71,
        "hand": "right"
      },
      {
        "midi": 78,
        "time": 151.5,
        "duration": 0.5,
        "velocity": 0.71,
        "hand": "right"
      },
      {
        "midi": 77,
        "time": 152,
        "duration": 1,
        "velocity": 0.71,
        "hand": "right"
      },
      {
        "midi": 68,
        "time": 152.25,
        "duration": 0.333,
        "velocity": 0.71,
        "hand": "right"
      },
      {
        "midi": 73,
        "time": 152.5,
        "duration": 0.333,
        "velocity": 0.71,
        "hand": "right"
      },
      {
        "midi": 72,
        "time": 152.75,
        "duration": 0.333,
        "velocity": 0.71,
        "hand": "right"
      },
      {
        "midi": 80,
        "time": 153,
        "duration": 0.5,
        "velocity": 0.71,
        "hand": "right"
      },
      {
        "midi": 78,
        "time": 153.5,
        "duration": 0.333,
        "velocity": 0.71,
        "hand": "right"
      },
      {
        "midi": 73,
        "time": 153.75,
        "duration": 0.333,
        "velocity": 0.71,
        "hand": "right"
      },
      {
        "midi": 78,
        "time": 154,
        "duration": 0.333,
        "velocity": 0.71,
        "hand": "right"
      },
      {
        "midi": 77,
        "time": 154.25,
        "duration": 0.333,
        "velocity": 0.71,
        "hand": "right"
      },
      {
        "midi": 77,
        "time": 154.5,
        "duration": 0.5,
        "velocity": 0.71,
        "hand": "right"
      },
      {
        "midi": 75,
        "time": 155,
        "duration": 0.333,
        "velocity": 0.71,
        "hand": "right"
      },
      {
        "midi": 77,
        "time": 155.25,
        "duration": 0.333,
        "velocity": 0.71,
        "hand": "right"
      },
      {
        "midi": 80,
        "time": 155.5,
        "duration": 0.333,
        "velocity": 0.71,
        "hand": "right"
      },
      {
        "midi": 78,
        "time": 155.75,
        "duration": 0.333,
        "velocity": 0.71,
        "hand": "right"
      },
      {
        "midi": 69,
        "time": 156,
        "duration": 0.5,
        "velocity": 0.71,
        "hand": "right"
      },
      {
        "midi": 72,
        "time": 156.5,
        "duration": 0.333,
        "velocity": 0.71,
        "hand": "right"
      },
      {
        "midi": 73,
        "time": 156.75,
        "duration": 0.333,
        "velocity": 0.71,
        "hand": "right"
      },
      {
        "midi": 72,
        "time": 157,
        "duration": 0.333,
        "velocity": 0.71,
        "hand": "right"
      },
      {
        "midi": 73,
        "time": 157.25,
        "duration": 0.333,
        "velocity": 0.71,
        "hand": "right"
      },
      {
        "midi": 75,
        "time": 157.5,
        "duration": 1,
        "velocity": 0.71,
        "hand": "right"
      },
      {
        "midi": 65,
        "time": 158,
        "duration": 1,
        "velocity": 0.71,
        "hand": "right"
      },
      {
        "midi": 73,
        "time": 158.5,
        "duration": 0.5,
        "velocity": 0.71,
        "hand": "right"
      },
      {
        "midi": 73,
        "time": 159,
        "duration": 0.5,
        "velocity": 0.71,
        "hand": "right"
      },
      {
        "midi": 73,
        "time": 159.5,
        "duration": 0.333,
        "velocity": 0.71,
        "hand": "right"
      },
      {
        "midi": 75,
        "time": 159.75,
        "duration": 0.333,
        "velocity": 0.71,
        "hand": "right"
      },
      {
        "midi": 73,
        "time": 160,
        "duration": 0.333,
        "velocity": 0.71,
        "hand": "right"
      },
      {
        "midi": 75,
        "time": 160.25,
        "duration": 0.333,
        "velocity": 0.71,
        "hand": "right"
      },
      {
        "midi": 76,
        "time": 160.5,
        "duration": 1,
        "velocity": 0.71,
        "hand": "right"
      },
      {
        "midi": 66,
        "time": 161,
        "duration": 1,
        "velocity": 0.71,
        "hand": "right"
      },
      {
        "midi": 75,
        "time": 161.5,
        "duration": 0.5,
        "velocity": 0.71,
        "hand": "right"
      },
      {
        "midi": 75,
        "time": 162,
        "duration": 0.5,
        "velocity": 0.71,
        "hand": "right"
      },
      {
        "midi": 75,
        "time": 162.5,
        "duration": 0.333,
        "velocity": 0.71,
        "hand": "right"
      },
      {
        "midi": 77,
        "time": 162.75,
        "duration": 0.333,
        "velocity": 0.71,
        "hand": "right"
      },
      {
        "midi": 75,
        "time": 163,
        "duration": 0.333,
        "velocity": 0.71,
        "hand": "right"
      },
      {
        "midi": 77,
        "time": 163.25,
        "duration": 0.333,
        "velocity": 0.71,
        "hand": "right"
      },
      {
        "midi": 78,
        "time": 163.5,
        "duration": 0.5,
        "velocity": 0.71,
        "hand": "right"
      },
      {
        "midi": 78,
        "time": 164,
        "duration": 0.5,
        "velocity": 0.71,
        "hand": "right"
      },
      {
        "midi": 78,
        "time": 164.5,
        "duration": 0.5,
        "velocity": 0.71,
        "hand": "right"
      },
      {
        "midi": 78,
        "time": 165,
        "duration": 2,
        "velocity": 0.71,
        "hand": "right"
      },
      {
        "midi": 41,
        "time": 166.5,
        "duration": 0.5,
        "velocity": 0.26,
        "hand": "right"
      },
      {
        "midi": 77,
        "time": 167,
        "duration": 0.333,
        "velocity": 0.71,
        "hand": "right"
      },
      {
        "midi": 72,
        "time": 167.25,
        "duration": 0.333,
        "velocity": 0.71,
        "hand": "right"
      },
      {
        "midi": 75,
        "time": 167.5,
        "duration": 0.333,
        "velocity": 0.71,
        "hand": "right"
      },
      {
        "midi": 73,
        "time": 167.75,
        "duration": 0.333,
        "velocity": 0.71,
        "hand": "right"
      },
      {
        "midi": 70,
        "time": 168,
        "duration": 1.5,
        "velocity": 0.71,
        "hand": "right"
      },
      {
        "midi": 65,
        "time": 168.5,
        "duration": 0.5,
        "velocity": 0.26,
        "hand": "right"
      },
      {
        "midi": 61,
        "time": 169,
        "duration": 0.5,
        "velocity": 0.26,
        "hand": "right"
      },
      {
        "midi": 67,
        "time": 169.5,
        "duration": 0.5,
        "velocity": 0.71,
        "hand": "right"
      },
      {
        "midi": 64,
        "time": 170,
        "duration": 0.5,
        "velocity": 0.26,
        "hand": "right"
      },
      {
        "midi": 60,
        "time": 170.5,
        "duration": 0.5,
        "velocity": 0.26,
        "hand": "right"
      },
      {
        "midi": 41,
        "time": 171,
        "duration": 0.5,
        "velocity": 0.26,
        "hand": "right"
      },
      {
        "midi": 68,
        "time": 171.25,
        "duration": 0.333,
        "velocity": 0.71,
        "hand": "right"
      },
      {
        "midi": 72,
        "time": 171.5,
        "duration": 0.5,
        "velocity": 0.71,
        "hand": "right"
      },
      {
        "midi": 67,
        "time": 171.75,
        "duration": 0.333,
        "velocity": 0.71,
        "hand": "right"
      },
      {
        "midi": 77,
        "time": 172,
        "duration": 0.5,
        "velocity": 0.71,
        "hand": "right"
      },
      {
        "midi": 65,
        "time": 172.25,
        "duration": 0.333,
        "velocity": 0.71,
        "hand": "right"
      },
      {
        "midi": 76,
        "time": 172.5,
        "duration": 0.5,
        "velocity": 0.71,
        "hand": "right"
      },
      {
        "midi": 68,
        "time": 172.75,
        "duration": 0.333,
        "velocity": 0.71,
        "hand": "right"
      },
      {
        "midi": 70,
        "time": 173,
        "duration": 0.5,
        "velocity": 0.71,
        "hand": "right"
      },
      {
        "midi": 65,
        "time": 173.25,
        "duration": 0.333,
        "velocity": 0.71,
        "hand": "right"
      },
      {
        "midi": 73,
        "time": 173.5,
        "duration": 1,
        "velocity": 0.71,
        "hand": "right"
      },
      {
        "midi": 70,
        "time": 173.75,
        "duration": 0.333,
        "velocity": 0.71,
        "hand": "right"
      },
      {
        "midi": 70,
        "time": 174,
        "duration": 0.333,
        "velocity": 0.71,
        "hand": "right"
      },
      {
        "midi": 68,
        "time": 174.25,
        "duration": 0.333,
        "velocity": 0.71,
        "hand": "right"
      },
      {
        "midi": 72,
        "time": 174.5,
        "duration": 0.5,
        "velocity": 0.71,
        "hand": "right"
      },
      {
        "midi": 67,
        "time": 174.75,
        "duration": 0.333,
        "velocity": 0.71,
        "hand": "right"
      },
      {
        "midi": 77,
        "time": 175,
        "duration": 0.5,
        "velocity": 0.71,
        "hand": "right"
      },
      {
        "midi": 65,
        "time": 175.25,
        "duration": 0.333,
        "velocity": 0.71,
        "hand": "right"
      },
      {
        "midi": 76,
        "time": 175.5,
        "duration": 0.5,
        "velocity": 0.71,
        "hand": "right"
      },
      {
        "midi": 72,
        "time": 175.75,
        "duration": 0.333,
        "velocity": 0.71,
        "hand": "right"
      },
      {
        "midi": 70,
        "time": 176,
        "duration": 0.5,
        "velocity": 0.71,
        "hand": "right"
      },
      {
        "midi": 68,
        "time": 176.25,
        "duration": 0.333,
        "velocity": 0.71,
        "hand": "right"
      },
      {
        "midi": 73,
        "time": 176.5,
        "duration": 0.5,
        "velocity": 0.71,
        "hand": "right"
      },
      {
        "midi": 70,
        "time": 176.75,
        "duration": 0.333,
        "velocity": 0.71,
        "hand": "right"
      },
      {
        "midi": 72,
        "time": 177,
        "duration": 0.5,
        "velocity": 0.71,
        "hand": "right"
      },
      {
        "midi": 68,
        "time": 177.25,
        "duration": 0.333,
        "velocity": 0.71,
        "hand": "right"
      },
      {
        "midi": 72,
        "time": 177.5,
        "duration": 0.333,
        "velocity": 0.71,
        "hand": "right"
      },
      {
        "midi": 73,
        "time": 177.75,
        "duration": 0.333,
        "velocity": 0.71,
        "hand": "right"
      },
      {
        "midi": 72,
        "time": 178,
        "duration": 0.333,
        "velocity": 0.71,
        "hand": "right"
      },
      {
        "midi": 73,
        "time": 178.25,
        "duration": 0.333,
        "velocity": 0.71,
        "hand": "right"
      },
      {
        "midi": 75,
        "time": 178.5,
        "duration": 0.5,
        "velocity": 0.71,
        "hand": "right"
      },
      {
        "midi": 70,
        "time": 178.75,
        "duration": 0.333,
        "velocity": 0.71,
        "hand": "right"
      },
      {
        "midi": 75,
        "time": 179,
        "duration": 0.5,
        "velocity": 0.71,
        "hand": "right"
      },
      {
        "midi": 68,
        "time": 179.25,
        "duration": 0.333,
        "velocity": 0.71,
        "hand": "right"
      },
      {
        "midi": 75,
        "time": 179.5,
        "duration": 0.5,
        "velocity": 0.71,
        "hand": "right"
      },
      {
        "midi": 67,
        "time": 179.75,
        "duration": 0.333,
        "velocity": 0.71,
        "hand": "right"
      },
      {
        "midi": 75,
        "time": 180,
        "duration": 0.5,
        "velocity": 0.71,
        "hand": "right"
      },
      {
        "midi": 65,
        "time": 180.25,
        "duration": 0.333,
        "velocity": 0.71,
        "hand": "right"
      },
      {
        "midi": 73,
        "time": 180.5,
        "duration": 0.333,
        "velocity": 0.71,
        "hand": "right"
      },
      {
        "midi": 72,
        "time": 180.75,
        "duration": 0.333,
        "velocity": 0.71,
        "hand": "right"
      },
      {
        "midi": 70,
        "time": 181,
        "duration": 0.333,
        "velocity": 0.71,
        "hand": "right"
      },
      {
        "midi": 72,
        "time": 181.25,
        "duration": 0.333,
        "velocity": 0.71,
        "hand": "right"
      },
      {
        "midi": 68,
        "time": 181.5,
        "duration": 0.5,
        "velocity": 0.71,
        "hand": "right"
      },
      {
        "midi": 63,
        "time": 181.75,
        "duration": 0.333,
        "velocity": 0.71,
        "hand": "right"
      },
      {
        "midi": 63,
        "time": 182,
        "duration": 0.333,
        "velocity": 0.71,
        "hand": "right"
      },
      {
        "midi": 62,
        "time": 182.25,
        "duration": 0.333,
        "velocity": 0.71,
        "hand": "right"
      },
      {
        "midi": 62,
        "time": 182.5,
        "duration": 0.333,
        "velocity": 0.71,
        "hand": "right"
      },
      {
        "midi": 61,
        "time": 182.75,
        "duration": 0.333,
        "velocity": 0.71,
        "hand": "right"
      },
      {
        "midi": 61,
        "time": 183,
        "duration": 0.333,
        "velocity": 0.71,
        "hand": "right"
      },
      {
        "midi": 60,
        "time": 183.25,
        "duration": 0.333,
        "velocity": 0.71,
        "hand": "right"
      },
      {
        "midi": 60,
        "time": 183.5,
        "duration": 0.333,
        "velocity": 0.71,
        "hand": "right"
      },
      {
        "midi": 65,
        "time": 183.75,
        "duration": 0.333,
        "velocity": 0.71,
        "hand": "right"
      },
      {
        "midi": 63,
        "time": 184,
        "duration": 0.333,
        "velocity": 0.71,
        "hand": "right"
      },
      {
        "midi": 70,
        "time": 184.25,
        "duration": 0.333,
        "velocity": 0.71,
        "hand": "right"
      },
      {
        "midi": 72,
        "time": 184.5,
        "duration": 0.5,
        "velocity": 0.71,
        "hand": "right"
      },
      {
        "midi": 63,
        "time": 184.75,
        "duration": 0.333,
        "velocity": 0.71,
        "hand": "right"
      },
      {
        "midi": 75,
        "time": 185,
        "duration": 0.5,
        "velocity": 0.71,
        "hand": "right"
      },
      {
        "midi": 70,
        "time": 185.25,
        "duration": 0.333,
        "velocity": 0.71,
        "hand": "right"
      },
      {
        "midi": 80,
        "time": 185.5,
        "duration": 0.5,
        "velocity": 0.71,
        "hand": "right"
      },
      {
        "midi": 68,
        "time": 185.75,
        "duration": 0.333,
        "velocity": 0.71,
        "hand": "right"
      },
      {
        "midi": 79,
        "time": 186,
        "duration": 0.5,
        "velocity": 0.71,
        "hand": "right"
      },
      {
        "midi": 75,
        "time": 186.25,
        "duration": 0.333,
        "velocity": 0.71,
        "hand": "right"
      },
      {
        "midi": 73,
        "time": 186.5,
        "duration": 0.5,
        "velocity": 0.71,
        "hand": "right"
      },
      {
        "midi": 72,
        "time": 186.75,
        "duration": 0.333,
        "velocity": 0.71,
        "hand": "right"
      },
      {
        "midi": 76,
        "time": 187,
        "duration": 1,
        "velocity": 0.71,
        "hand": "right"
      },
      {
        "midi": 73,
        "time": 187.25,
        "duration": 0.333,
        "velocity": 0.71,
        "hand": "right"
      },
      {
        "midi": 73,
        "time": 187.5,
        "duration": 0.333,
        "velocity": 0.71,
        "hand": "right"
      },
      {
        "midi": 72,
        "time": 187.75,
        "duration": 0.333,
        "velocity": 0.71,
        "hand": "right"
      },
      {
        "midi": 75,
        "time": 188,
        "duration": 0.5,
        "velocity": 0.71,
        "hand": "right"
      },
      {
        "midi": 73,
        "time": 188.25,
        "duration": 0.333,
        "velocity": 0.71,
        "hand": "right"
      },
      {
        "midi": 80,
        "time": 188.5,
        "duration": 0.5,
        "velocity": 0.71,
        "hand": "right"
      },
      {
        "midi": 72,
        "time": 188.75,
        "duration": 0.333,
        "velocity": 0.71,
        "hand": "right"
      },
      {
        "midi": 79,
        "time": 189,
        "duration": 0.5,
        "velocity": 0.71,
        "hand": "right"
      },
      {
        "midi": 75,
        "time": 189.25,
        "duration": 0.333,
        "velocity": 0.71,
        "hand": "right"
      },
      {
        "midi": 73,
        "time": 189.5,
        "duration": 0.5,
        "velocity": 0.71,
        "hand": "right"
      },
      {
        "midi": 72,
        "time": 189.75,
        "duration": 0.333,
        "velocity": 0.71,
        "hand": "right"
      },
      {
        "midi": 76,
        "time": 190,
        "duration": 0.5,
        "velocity": 0.71,
        "hand": "right"
      },
      {
        "midi": 73,
        "time": 190.25,
        "duration": 0.333,
        "velocity": 0.71,
        "hand": "right"
      },
      {
        "midi": 72,
        "time": 190.5,
        "duration": 0.333,
        "velocity": 0.71,
        "hand": "right"
      },
      {
        "midi": 73,
        "time": 190.75,
        "duration": 0.333,
        "velocity": 0.71,
        "hand": "right"
      },
      {
        "midi": 75,
        "time": 191,
        "duration": 0.333,
        "velocity": 0.71,
        "hand": "right"
      },
      {
        "midi": 77,
        "time": 191.25,
        "duration": 0.333,
        "velocity": 0.71,
        "hand": "right"
      },
      {
        "midi": 75,
        "time": 191.5,
        "duration": 0.333,
        "velocity": 0.71,
        "hand": "right"
      },
      {
        "midi": 77,
        "time": 191.75,
        "duration": 0.333,
        "velocity": 0.71,
        "hand": "right"
      },
      {
        "midi": 78,
        "time": 192,
        "duration": 0.5,
        "velocity": 0.71,
        "hand": "right"
      },
      {
        "midi": 77,
        "time": 192.25,
        "duration": 0.333,
        "velocity": 0.71,
        "hand": "right"
      },
      {
        "midi": 78,
        "time": 192.5,
        "duration": 0.5,
        "velocity": 0.71,
        "hand": "right"
      },
      {
        "midi": 73,
        "time": 192.75,
        "duration": 0.333,
        "velocity": 0.71,
        "hand": "right"
      },
      {
        "midi": 78,
        "time": 193,
        "duration": 0.5,
        "velocity": 0.71,
        "hand": "right"
      },
      {
        "midi": 70,
        "time": 193.25,
        "duration": 0.333,
        "velocity": 0.71,
        "hand": "right"
      },
      {
        "midi": 78,
        "time": 193.5,
        "duration": 0.5,
        "velocity": 0.71,
        "hand": "right"
      },
      {
        "midi": 53,
        "time": 193.75,
        "duration": 0.333,
        "velocity": 0.71,
        "hand": "right"
      },
      {
        "midi": 77,
        "time": 194,
        "duration": 0.333,
        "velocity": 0.48,
        "hand": "right"
      },
      {
        "midi": 72,
        "time": 194.25,
        "duration": 0.333,
        "velocity": 0.48,
        "hand": "right"
      },
      {
        "midi": 75,
        "time": 194.5,
        "duration": 0.333,
        "velocity": 0.48,
        "hand": "right"
      },
      {
        "midi": 73,
        "time": 194.75,
        "duration": 0.333,
        "velocity": 0.48,
        "hand": "right"
      },
      {
        "midi": 70,
        "time": 195,
        "duration": 1.25,
        "velocity": 0.48,
        "hand": "right"
      },
      {
        "midi": 63,
        "time": 195.25,
        "duration": 0.333,
        "velocity": 0.71,
        "hand": "right"
      },
      {
        "midi": 61,
        "time": 195.5,
        "duration": 0.333,
        "velocity": 0.71,
        "hand": "right"
      },
      {
        "midi": 66,
        "time": 195.75,
        "duration": 0.333,
        "velocity": 0.71,
        "hand": "right"
      },
      {
        "midi": 65,
        "time": 196,
        "duration": 0.333,
        "velocity": 0.71,
        "hand": "right"
      },
      {
        "midi": 72,
        "time": 196.25,
        "duration": 0.333,
        "velocity": 0.48,
        "hand": "right"
      },
      {
        "midi": 73,
        "time": 196.5,
        "duration": 0.5,
        "velocity": 0.48,
        "hand": "right"
      },
      {
        "midi": 65,
        "time": 196.75,
        "duration": 0.333,
        "velocity": 0.71,
        "hand": "right"
      },
      {
        "midi": 73,
        "time": 197,
        "duration": 0.333,
        "velocity": 0.48,
        "hand": "right"
      },
      {
        "midi": 75,
        "time": 197.25,
        "duration": 0.333,
        "velocity": 0.48,
        "hand": "right"
      },
      {
        "midi": 73,
        "time": 197.5,
        "duration": 0.333,
        "velocity": 0.48,
        "hand": "right"
      },
      {
        "midi": 75,
        "time": 197.75,
        "duration": 0.333,
        "velocity": 0.48,
        "hand": "right"
      },
      {
        "midi": 77,
        "time": 198,
        "duration": 0.5,
        "velocity": 0.48,
        "hand": "right"
      },
      {
        "midi": 72,
        "time": 198.25,
        "duration": 0.333,
        "velocity": 0.71,
        "hand": "right"
      },
      {
        "midi": 77,
        "time": 198.5,
        "duration": 0.5,
        "velocity": 0.48,
        "hand": "right"
      },
      {
        "midi": 68,
        "time": 198.75,
        "duration": 0.333,
        "velocity": 0.71,
        "hand": "right"
      },
      {
        "midi": 77,
        "time": 199,
        "duration": 0.5,
        "velocity": 0.48,
        "hand": "right"
      },
      {
        "midi": 65,
        "time": 199.25,
        "duration": 0.333,
        "velocity": 0.71,
        "hand": "right"
      },
      {
        "midi": 77,
        "time": 199.5,
        "duration": 0.5,
        "velocity": 0.48,
        "hand": "right"
      },
      {
        "midi": 73,
        "time": 199.75,
        "duration": 0.333,
        "velocity": 0.71,
        "hand": "right"
      },
      {
        "midi": 75,
        "time": 200,
        "duration": 0.333,
        "velocity": 0.48,
        "hand": "right"
      },
      {
        "midi": 70,
        "time": 200.25,
        "duration": 0.333,
        "velocity": 0.48,
        "hand": "right"
      },
      {
        "midi": 73,
        "time": 200.5,
        "duration": 0.333,
        "velocity": 0.48,
        "hand": "right"
      },
      {
        "midi": 72,
        "time": 200.75,
        "duration": 0.333,
        "velocity": 0.48,
        "hand": "right"
      },
      {
        "midi": 69,
        "time": 201,
        "duration": 0.333,
        "velocity": 0.48,
        "hand": "right"
      },
      {
        "midi": 66,
        "time": 201.25,
        "duration": 0.333,
        "velocity": 0.26,
        "hand": "right"
      },
      {
        "midi": 72,
        "time": 201.5,
        "duration": 0.5,
        "velocity": 0.48,
        "hand": "right"
      },
      {
        "midi": 64,
        "time": 201.75,
        "duration": 0.333,
        "velocity": 0.17,
        "hand": "right"
      },
      {
        "midi": 77,
        "time": 202,
        "duration": 0.5,
        "velocity": 0.48,
        "hand": "right"
      },
      {
        "midi": 60,
        "time": 202.25,
        "duration": 0.333,
        "velocity": 0.09,
        "hand": "right"
      },
      {
        "midi": 76,
        "time": 202.5,
        "duration": 0.5,
        "velocity": 0.48,
        "hand": "right"
      },
      {
        "midi": 58,
        "time": 202.75,
        "duration": 0.333,
        "velocity": 0.09,
        "hand": "right"
      },
      {
        "midi": 70,
        "time": 203,
        "duration": 0.5,
        "velocity": 0.48,
        "hand": "right"
      },
      {
        "midi": 54,
        "time": 203.25,
        "duration": 0.333,
        "velocity": 0.09,
        "hand": "right"
      },
      {
        "midi": 73,
        "time": 203.5,
        "duration": 0.5,
        "velocity": 0.48,
        "hand": "right"
      },
      {
        "midi": 58,
        "time": 203.75,
        "duration": 0.333,
        "velocity": 0.48,
        "hand": "right"
      },
      {
        "midi": 69,
        "time": 204,
        "duration": 0.333,
        "velocity": 0.48,
        "hand": "right"
      },
      {
        "midi": 66,
        "time": 204.25,
        "duration": 0.333,
        "velocity": 0.09,
        "hand": "right"
      },
      {
        "midi": 84,
        "time": 204.5,
        "duration": 0.5,
        "velocity": 0.48,
        "hand": "right"
      },
      {
        "midi": 64,
        "time": 204.75,
        "duration": 0.333,
        "velocity": 0.09,
        "hand": "right"
      },
      {
        "midi": 89,
        "time": 205,
        "duration": 0.5,
        "velocity": 0.48,
        "hand": "right"
      },
      {
        "midi": 60,
        "time": 205.25,
        "duration": 0.333,
        "velocity": 0.09,
        "hand": "right"
      },
      {
        "midi": 88,
        "time": 205.5,
        "duration": 0.5,
        "velocity": 0.48,
        "hand": "right"
      },
      {
        "midi": 58,
        "time": 205.75,
        "duration": 0.333,
        "velocity": 0.09,
        "hand": "right"
      },
      {
        "midi": 82,
        "time": 206,
        "duration": 0.5,
        "velocity": 0.48,
        "hand": "right"
      },
      {
        "midi": 69,
        "time": 206.25,
        "duration": 0.333,
        "velocity": 0.48,
        "hand": "right"
      },
      {
        "midi": 85,
        "time": 206.5,
        "duration": 0.5,
        "velocity": 0.48,
        "hand": "right"
      },
      {
        "midi": 70,
        "time": 206.75,
        "duration": 0.333,
        "velocity": 0.48,
        "hand": "right"
      },
      {
        "midi": 85,
        "time": 207,
        "duration": 0.333,
        "velocity": 0.71,
        "hand": "right"
      },
      {
        "midi": 84,
        "time": 207.25,
        "duration": 0.333,
        "velocity": 0.71,
        "hand": "right"
      },
      {
        "midi": 84,
        "time": 207.5,
        "duration": 0.333,
        "velocity": 0.71,
        "hand": "right"
      },
      {
        "midi": 85,
        "time": 207.75,
        "duration": 0.333,
        "velocity": 0.73,
        "hand": "right"
      },
      {
        "midi": 87,
        "time": 208,
        "duration": 0.333,
        "velocity": 0.75,
        "hand": "right"
      },
      {
        "midi": 89,
        "time": 208.25,
        "duration": 0.333,
        "velocity": 0.77,
        "hand": "right"
      },
      {
        "midi": 90,
        "time": 208.5,
        "duration": 0.5,
        "velocity": 0.8,
        "hand": "right"
      },
      {
        "midi": 58,
        "time": 208.75,
        "duration": 0.333,
        "velocity": 0.09,
        "hand": "right"
      },
      {
        "midi": 90,
        "time": 209,
        "duration": 0.5,
        "velocity": 0.84,
        "hand": "right"
      },
      {
        "midi": 54,
        "time": 209.25,
        "duration": 0.333,
        "velocity": 0.09,
        "hand": "right"
      },
      {
        "midi": 90,
        "time": 209.5,
        "duration": 0.5,
        "velocity": 0.89,
        "hand": "right"
      },
      {
        "midi": 48,
        "time": 209.75,
        "duration": 0.333,
        "velocity": 0.09,
        "hand": "right"
      },
      {
        "midi": 90,
        "time": 210,
        "duration": 0.5,
        "velocity": 0.93,
        "hand": "right"
      },
      {
        "midi": 63,
        "time": 210.5,
        "duration": 0.5,
        "velocity": 0.93,
        "hand": "right"
      },
      {
        "midi": 63,
        "time": 211,
        "duration": 0.5,
        "velocity": 0.93,
        "hand": "right"
      },
      {
        "midi": 63,
        "time": 211.5,
        "duration": 0.5,
        "velocity": 0.93,
        "hand": "right"
      },
      {
        "midi": 66,
        "time": 212,
        "duration": 0.5,
        "velocity": 0.93,
        "hand": "right"
      },
      {
        "midi": 66,
        "time": 212.5,
        "duration": 0.5,
        "velocity": 0.93,
        "hand": "right"
      },
      {
        "midi": 61,
        "time": 213,
        "duration": 0.5,
        "velocity": 0.93,
        "hand": "right"
      },
      {
        "midi": 64,
        "time": 213.5,
        "duration": 0.333,
        "velocity": 0.93,
        "hand": "right"
      },
      {
        "midi": 63,
        "time": 213.75,
        "duration": 0.333,
        "velocity": 0.93,
        "hand": "right"
      },
      {
        "midi": 68,
        "time": 214,
        "duration": 0.333,
        "velocity": 0.93,
        "hand": "right"
      },
      {
        "midi": 66,
        "time": 214.25,
        "duration": 0.333,
        "velocity": 0.93,
        "hand": "right"
      },
      {
        "midi": 71,
        "time": 214.5,
        "duration": 0.333,
        "velocity": 0.93,
        "hand": "right"
      },
      {
        "midi": 66,
        "time": 214.75,
        "duration": 0.333,
        "velocity": 0.93,
        "hand": "right"
      },
      {
        "midi": 66,
        "time": 215,
        "duration": 0.333,
        "velocity": 0.93,
        "hand": "right"
      },
      {
        "midi": 65,
        "time": 215.25,
        "duration": 0.333,
        "velocity": 0.93,
        "hand": "right"
      },
      {
        "midi": 69,
        "time": 215.5,
        "duration": 0.333,
        "velocity": 0.93,
        "hand": "right"
      },
      {
        "midi": 68,
        "time": 215.75,
        "duration": 0.333,
        "velocity": 0.93,
        "hand": "right"
      },
      {
        "midi": 73,
        "time": 216,
        "duration": 0.333,
        "velocity": 0.93,
        "hand": "right"
      },
      {
        "midi": 68,
        "time": 216.25,
        "duration": 0.333,
        "velocity": 0.93,
        "hand": "right"
      },
      {
        "midi": 68,
        "time": 216.5,
        "duration": 0.333,
        "velocity": 0.93,
        "hand": "right"
      },
      {
        "midi": 67,
        "time": 216.75,
        "duration": 0.333,
        "velocity": 0.93,
        "hand": "right"
      },
      {
        "midi": 71,
        "time": 217,
        "duration": 0.333,
        "velocity": 0.93,
        "hand": "right"
      },
      {
        "midi": 70,
        "time": 217.25,
        "duration": 0.333,
        "velocity": 0.93,
        "hand": "right"
      },
      {
        "midi": 75,
        "time": 217.5,
        "duration": 0.333,
        "velocity": 0.93,
        "hand": "right"
      },
      {
        "midi": 70,
        "time": 217.75,
        "duration": 0.333,
        "velocity": 0.93,
        "hand": "right"
      },
      {
        "midi": 70,
        "time": 218,
        "duration": 0.333,
        "velocity": 0.93,
        "hand": "right"
      },
      {
        "midi": 69,
        "time": 218.25,
        "duration": 0.333,
        "velocity": 0.93,
        "hand": "right"
      },
      {
        "midi": 73,
        "time": 218.5,
        "duration": 0.333,
        "velocity": 0.93,
        "hand": "right"
      },
      {
        "midi": 72,
        "time": 218.75,
        "duration": 0.333,
        "velocity": 0.93,
        "hand": "right"
      },
      {
        "midi": 78,
        "time": 219,
        "duration": 0.333,
        "velocity": 0.93,
        "hand": "right"
      },
      {
        "midi": 77,
        "time": 219.25,
        "duration": 0.333,
        "velocity": 0.93,
        "hand": "right"
      },
      {
        "midi": 82,
        "time": 219.5,
        "duration": 0.333,
        "velocity": 0.93,
        "hand": "right"
      },
      {
        "midi": 81,
        "time": 219.75,
        "duration": 0.333,
        "velocity": 0.93,
        "hand": "right"
      },
      {
        "midi": 85,
        "time": 220,
        "duration": 0.333,
        "velocity": 0.93,
        "hand": "right"
      },
      {
        "midi": 84,
        "time": 220.25,
        "duration": 0.333,
        "velocity": 0.93,
        "hand": "right"
      },
      {
        "midi": 89,
        "time": 220.5,
        "duration": 0.333,
        "velocity": 0.93,
        "hand": "right"
      },
      {
        "midi": 87,
        "time": 220.75,
        "duration": 0.333,
        "velocity": 0.93,
        "hand": "right"
      },
      {
        "midi": 90,
        "time": 221,
        "duration": 0.333,
        "velocity": 0.93,
        "hand": "right"
      },
      {
        "midi": 89,
        "time": 221.25,
        "duration": 0.333,
        "velocity": 0.93,
        "hand": "right"
      },
      {
        "midi": 91,
        "time": 221.5,
        "duration": 0.333,
        "velocity": 0.93,
        "hand": "right"
      },
      {
        "midi": 89,
        "time": 221.75,
        "duration": 0.333,
        "velocity": 0.93,
        "hand": "right"
      },
      {
        "midi": 90,
        "time": 222,
        "duration": 0.333,
        "velocity": 0.93,
        "hand": "right"
      },
      {
        "midi": 89,
        "time": 222.25,
        "duration": 0.333,
        "velocity": 0.93,
        "hand": "right"
      },
      {
        "midi": 91,
        "time": 222.5,
        "duration": 0.333,
        "velocity": 0.93,
        "hand": "right"
      },
      {
        "midi": 89,
        "time": 222.75,
        "duration": 0.333,
        "velocity": 0.93,
        "hand": "right"
      },
      {
        "midi": 90,
        "time": 223,
        "duration": 0.333,
        "velocity": 0.93,
        "hand": "right"
      },
      {
        "midi": 89,
        "time": 223.25,
        "duration": 0.333,
        "velocity": 0.93,
        "hand": "right"
      },
      {
        "midi": 91,
        "time": 223.5,
        "duration": 0.333,
        "velocity": 0.93,
        "hand": "right"
      },
      {
        "midi": 89,
        "time": 223.75,
        "duration": 0.333,
        "velocity": 0.93,
        "hand": "right"
      },
      {
        "midi": 90,
        "time": 224,
        "duration": 0.333,
        "velocity": 0.93,
        "hand": "right"
      },
      {
        "midi": 89,
        "time": 224.25,
        "duration": 0.333,
        "velocity": 0.93,
        "hand": "right"
      },
      {
        "midi": 91,
        "time": 224.5,
        "duration": 0.333,
        "velocity": 0.93,
        "hand": "right"
      },
      {
        "midi": 89,
        "time": 224.75,
        "duration": 0.333,
        "velocity": 0.93,
        "hand": "right"
      },
      {
        "midi": 88,
        "time": 225,
        "duration": 0.333,
        "velocity": 0.93,
        "hand": "right"
      },
      {
        "midi": 89,
        "time": 225.25,
        "duration": 0.333,
        "velocity": 0.93,
        "hand": "right"
      },
      {
        "midi": 101,
        "time": 225.5,
        "duration": 0.333,
        "velocity": 0.93,
        "hand": "right"
      },
      {
        "midi": 90,
        "time": 225.75,
        "duration": 0.333,
        "velocity": 0.93,
        "hand": "right"
      },
      {
        "midi": 101,
        "time": 226,
        "duration": 0.333,
        "velocity": 0.93,
        "hand": "right"
      },
      {
        "midi": 91,
        "time": 226.25,
        "duration": 0.333,
        "velocity": 0.93,
        "hand": "right"
      },
      {
        "midi": 92,
        "time": 226.5,
        "duration": 0.333,
        "velocity": 0.93,
        "hand": "right"
      },
      {
        "midi": 93,
        "time": 226.75,
        "duration": 0.333,
        "velocity": 0.93,
        "hand": "right"
      },
      {
        "midi": 98,
        "time": 227,
        "duration": 0.333,
        "velocity": 0.93,
        "hand": "right"
      },
      {
        "midi": 96,
        "time": 227.25,
        "duration": 0.333,
        "velocity": 0.93,
        "hand": "right"
      },
      {
        "midi": 94,
        "time": 227.5,
        "duration": 0.333,
        "velocity": 0.93,
        "hand": "right"
      },
      {
        "midi": 91,
        "time": 227.75,
        "duration": 0.333,
        "velocity": 0.93,
        "hand": "right"
      },
      {
        "midi": 89,
        "time": 228,
        "duration": 0.333,
        "velocity": 0.93,
        "hand": "right"
      },
      {
        "midi": 86,
        "time": 228.25,
        "duration": 0.333,
        "velocity": 0.93,
        "hand": "right"
      },
      {
        "midi": 87,
        "time": 228.5,
        "duration": 0.333,
        "velocity": 0.93,
        "hand": "right"
      },
      {
        "midi": 91,
        "time": 228.75,
        "duration": 0.333,
        "velocity": 0.93,
        "hand": "right"
      },
      {
        "midi": 89,
        "time": 229,
        "duration": 0.333,
        "velocity": 0.93,
        "hand": "right"
      },
      {
        "midi": 87,
        "time": 229.25,
        "duration": 0.333,
        "velocity": 0.93,
        "hand": "right"
      },
      {
        "midi": 84,
        "time": 229.5,
        "duration": 0.333,
        "velocity": 0.93,
        "hand": "right"
      },
      {
        "midi": 81,
        "time": 229.75,
        "duration": 0.333,
        "velocity": 0.93,
        "hand": "right"
      },
      {
        "midi": 82,
        "time": 230,
        "duration": 0.333,
        "velocity": 0.93,
        "hand": "right"
      },
      {
        "midi": 86,
        "time": 230.25,
        "duration": 0.333,
        "velocity": 0.93,
        "hand": "right"
      },
      {
        "midi": 84,
        "time": 230.5,
        "duration": 0.333,
        "velocity": 0.93,
        "hand": "right"
      },
      {
        "midi": 82,
        "time": 230.75,
        "duration": 0.333,
        "velocity": 0.93,
        "hand": "right"
      },
      {
        "midi": 79,
        "time": 231,
        "duration": 0.333,
        "velocity": 0.93,
        "hand": "right"
      },
      {
        "midi": 77,
        "time": 231.25,
        "duration": 0.333,
        "velocity": 0.93,
        "hand": "right"
      },
      {
        "midi": 74,
        "time": 231.5,
        "duration": 0.333,
        "velocity": 0.93,
        "hand": "right"
      },
      {
        "midi": 75,
        "time": 231.75,
        "duration": 0.333,
        "velocity": 0.93,
        "hand": "right"
      },
      {
        "midi": 79,
        "time": 232,
        "duration": 0.333,
        "velocity": 0.93,
        "hand": "right"
      },
      {
        "midi": 77,
        "time": 232.25,
        "duration": 0.333,
        "velocity": 0.93,
        "hand": "right"
      },
      {
        "midi": 75,
        "time": 232.5,
        "duration": 0.333,
        "velocity": 0.93,
        "hand": "right"
      },
      {
        "midi": 72,
        "time": 232.75,
        "duration": 0.333,
        "velocity": 0.93,
        "hand": "right"
      },
      {
        "midi": 69,
        "time": 233,
        "duration": 0.333,
        "velocity": 0.93,
        "hand": "right"
      },
      {
        "midi": 70,
        "time": 233.25,
        "duration": 0.333,
        "velocity": 0.93,
        "hand": "right"
      },
      {
        "midi": 74,
        "time": 233.5,
        "duration": 0.333,
        "velocity": 0.93,
        "hand": "right"
      },
      {
        "midi": 72,
        "time": 233.75,
        "duration": 0.333,
        "velocity": 0.93,
        "hand": "right"
      },
      {
        "midi": 70,
        "time": 234,
        "duration": 0.333,
        "velocity": 0.93,
        "hand": "right"
      },
      {
        "midi": 67,
        "time": 234.25,
        "duration": 0.333,
        "velocity": 0.93,
        "hand": "right"
      },
      {
        "midi": 65,
        "time": 234.5,
        "duration": 0.333,
        "velocity": 0.93,
        "hand": "right"
      },
      {
        "midi": 62,
        "time": 234.75,
        "duration": 0.333,
        "velocity": 0.93,
        "hand": "right"
      },
      {
        "midi": 63,
        "time": 235,
        "duration": 0.333,
        "velocity": 0.93,
        "hand": "right"
      },
      {
        "midi": 67,
        "time": 235.25,
        "duration": 0.333,
        "velocity": 0.93,
        "hand": "right"
      },
      {
        "midi": 65,
        "time": 235.5,
        "duration": 0.333,
        "velocity": 0.93,
        "hand": "right"
      },
      {
        "midi": 63,
        "time": 235.75,
        "duration": 0.333,
        "velocity": 0.93,
        "hand": "right"
      },
      {
        "midi": 60,
        "time": 236,
        "duration": 0.333,
        "velocity": 0.93,
        "hand": "right"
      },
      {
        "midi": 57,
        "time": 236.25,
        "duration": 0.333,
        "velocity": 0.93,
        "hand": "right"
      },
      {
        "midi": 60,
        "time": 236.5,
        "duration": 0.333,
        "velocity": 0.93,
        "hand": "right"
      },
      {
        "midi": 55,
        "time": 236.75,
        "duration": 0.333,
        "velocity": 0.93,
        "hand": "right"
      },
      {
        "midi": 53,
        "time": 237,
        "duration": 1.5,
        "velocity": 0.93,
        "hand": "right"
      },
      {
        "midi": 50,
        "time": 237.25,
        "duration": 0.333,
        "velocity": 0.09,
        "hand": "right"
      },
      {
        "midi": 48,
        "time": 237.5,
        "duration": 0.333,
        "velocity": 0.09,
        "hand": "right"
      },
      {
        "midi": 46,
        "time": 237.75,
        "duration": 0.333,
        "velocity": 0.09,
        "hand": "right"
      },
      {
        "midi": 62,
        "time": 238,
        "duration": 0.5,
        "velocity": 0.93,
        "hand": "right"
      },
      {
        "midi": 62,
        "time": 238.5,
        "duration": 1,
        "velocity": 0.93,
        "hand": "right"
      },
      {
        "midi": 62,
        "time": 239.5,
        "duration": 0.5,
        "velocity": 0.93,
        "hand": "right"
      },
      {
        "midi": 62,
        "time": 240,
        "duration": 1,
        "velocity": 0.93,
        "hand": "right"
      },
      {
        "midi": 70,
        "time": 241,
        "duration": 0.5,
        "velocity": 0.93,
        "hand": "right"
      },
      {
        "midi": 62,
        "time": 241.5,
        "duration": 1.5,
        "velocity": 0.71,
        "hand": "right"
      },
      {
        "midi": 56,
        "time": 242.5,
        "duration": 0.5,
        "velocity": 0.71,
        "hand": "right"
      },
      {
        "midi": 61,
        "time": 243,
        "duration": 1,
        "velocity": 0.93,
        "hand": "right"
      },
      {
        "midi": 69,
        "time": 244,
        "duration": 0.5,
        "velocity": 0.93,
        "hand": "right"
      },
      {
        "midi": 61,
        "time": 244.5,
        "duration": 1,
        "velocity": 0.93,
        "hand": "right"
      },
      {
        "midi": 60,
        "time": 245.5,
        "duration": 0.5,
        "velocity": 0.93,
        "hand": "right"
      },
      {
        "midi": 58,
        "time": 246,
        "duration": 1,
        "velocity": 0.93,
        "hand": "right"
      },
      {
        "midi": 63,
        "time": 247,
        "duration": 0.5,
        "velocity": 0.93,
        "hand": "right"
      },
      {
        "midi": 62,
        "time": 247.5,
        "duration": 1,
        "velocity": 0.93,
        "hand": "right"
      },
      {
        "midi": 60,
        "time": 248.5,
        "duration": 0.5,
        "velocity": 0.93,
        "hand": "right"
      },
      {
        "midi": 62,
        "time": 249,
        "duration": 0.5,
        "velocity": 0.93,
        "hand": "right"
      },
      {
        "midi": 74,
        "time": 250,
        "duration": 0.5,
        "velocity": 0.93,
        "hand": "right"
      },
      {
        "midi": 74,
        "time": 250.5,
        "duration": 1.5,
        "velocity": 0.93,
        "hand": "right"
      },
      {
        "midi": 70,
        "time": 252,
        "duration": 1,
        "velocity": 0.93,
        "hand": "right"
      },
      {
        "midi": 67,
        "time": 253,
        "duration": 0.333,
        "velocity": 0.93,
        "hand": "right"
      },
      {
        "midi": 58,
        "time": 253.25,
        "duration": 0.333,
        "velocity": 0.93,
        "hand": "right"
      },
      {
        "midi": 69,
        "time": 253.5,
        "duration": 0.333,
        "velocity": 0.93,
        "hand": "right"
      },
      {
        "midi": 65,
        "time": 254.5,
        "duration": 1,
        "velocity": 0.93,
        "hand": "right"
      },
      {
        "midi": 62,
        "time": 255,
        "duration": 0.5,
        "velocity": 0.93,
        "hand": "right"
      },
      {
        "midi": 74,
        "time": 256,
        "duration": 0.5,
        "velocity": 0.93,
        "hand": "right"
      },
      {
        "midi": 70,
        "time": 256.5,
        "duration": 1,
        "velocity": 0.93,
        "hand": "right"
      },
      {
        "midi": 79,
        "time": 257.5,
        "duration": 1,
        "velocity": 0.93,
        "hand": "right"
      },
      {
        "midi": 77,
        "time": 258.5,
        "duration": 0.5,
        "velocity": 0.93,
        "hand": "right"
      },
      {
        "midi": 76,
        "time": 259,
        "duration": 0.5,
        "velocity": 0.93,
        "hand": "right"
      },
      {
        "midi": 77,
        "time": 259.5,
        "duration": 2.5,
        "velocity": 0.93,
        "hand": "right"
      },
      {
        "midi": 46,
        "time": 260.5,
        "duration": 0.5,
        "velocity": 0.09,
        "hand": "right"
      },
      {
        "midi": 46,
        "time": 261,
        "duration": 0.5,
        "velocity": 0.09,
        "hand": "right"
      },
      {
        "midi": 70,
        "time": 262,
        "duration": 0.5,
        "velocity": 0.93,
        "hand": "right"
      },
      {
        "midi": 70,
        "time": 262.5,
        "duration": 1.5,
        "velocity": 0.71,
        "hand": "right"
      },
      {
        "midi": 67,
        "time": 263.5,
        "duration": 0.5,
        "velocity": 0.71,
        "hand": "right"
      },
      {
        "midi": 70,
        "time": 264,
        "duration": 1,
        "velocity": 0.93,
        "hand": "right"
      },
      {
        "midi": 75,
        "time": 265,
        "duration": 0.5,
        "velocity": 0.93,
        "hand": "right"
      },
      {
        "midi": 75,
        "time": 265.5,
        "duration": 1,
        "velocity": 0.93,
        "hand": "right"
      },
      {
        "midi": 67,
        "time": 266.5,
        "duration": 0.5,
        "velocity": 0.93,
        "hand": "right"
      },
      {
        "midi": 67,
        "time": 267,
        "duration": 1,
        "velocity": 0.93,
        "hand": "right"
      },
      {
        "midi": 70,
        "time": 268,
        "duration": 0.5,
        "velocity": 0.93,
        "hand": "right"
      },
      {
        "midi": 70,
        "time": 268.5,
        "duration": 1,
        "velocity": 0.93,
        "hand": "right"
      },
      {
        "midi": 72,
        "time": 269.5,
        "duration": 0.5,
        "velocity": 0.93,
        "hand": "right"
      },
      {
        "midi": 65,
        "time": 270,
        "duration": 4,
        "velocity": 0.71,
        "hand": "right"
      },
      {
        "midi": 57,
        "time": 270.5,
        "duration": 0.5,
        "velocity": 0.71,
        "hand": "right"
      },
      {
        "midi": 62,
        "time": 271,
        "duration": 0.5,
        "velocity": 0.71,
        "hand": "right"
      },
      {
        "midi": 60,
        "time": 271.5,
        "duration": 0.5,
        "velocity": 0.71,
        "hand": "right"
      },
      {
        "midi": 55,
        "time": 272,
        "duration": 0.5,
        "velocity": 0.71,
        "hand": "right"
      },
      {
        "midi": 57,
        "time": 272.5,
        "duration": 0.5,
        "velocity": 0.71,
        "hand": "right"
      },
      {
        "midi": 62,
        "time": 273,
        "duration": 1,
        "velocity": 0.71,
        "hand": "right"
      },
      {
        "midi": 53,
        "time": 273.5,
        "duration": 1,
        "velocity": 0.71,
        "hand": "right"
      },
      {
        "midi": 74,
        "time": 274,
        "duration": 0.5,
        "velocity": 0.71,
        "hand": "right"
      },
      {
        "midi": 74,
        "time": 274.5,
        "duration": 1,
        "velocity": 0.93,
        "hand": "right"
      },
      {
        "midi": 70,
        "time": 275.5,
        "duration": 0.5,
        "velocity": 0.93,
        "hand": "right"
      },
      {
        "midi": 70,
        "time": 276,
        "duration": 1,
        "velocity": 0.93,
        "hand": "right"
      },
      {
        "midi": 67,
        "time": 277,
        "duration": 0.333,
        "velocity": 0.93,
        "hand": "right"
      },
      {
        "midi": 58,
        "time": 277.25,
        "duration": 0.333,
        "velocity": 0.93,
        "hand": "right"
      },
      {
        "midi": 69,
        "time": 277.5,
        "duration": 0.333,
        "velocity": 0.93,
        "hand": "right"
      },
      {
        "midi": 65,
        "time": 278.5,
        "duration": 0.5,
        "velocity": 0.93,
        "hand": "right"
      },
      {
        "midi": 65,
        "time": 279,
        "duration": 1,
        "velocity": 0.93,
        "hand": "right"
      },
      {
        "midi": 74,
        "time": 280,
        "duration": 0.5,
        "velocity": 0.93,
        "hand": "right"
      },
      {
        "midi": 70,
        "time": 280.5,
        "duration": 1,
        "velocity": 0.93,
        "hand": "right"
      },
      {
        "midi": 79,
        "time": 281.5,
        "duration": 1,
        "velocity": 0.93,
        "hand": "right"
      },
      {
        "midi": 77,
        "time": 282.5,
        "duration": 0.5,
        "velocity": 0.93,
        "hand": "right"
      },
      {
        "midi": 76,
        "time": 283,
        "duration": 0.5,
        "velocity": 0.93,
        "hand": "right"
      },
      {
        "midi": 77,
        "time": 283.5,
        "duration": 2.5,
        "velocity": 0.93,
        "hand": "right"
      },
      {
        "midi": 46,
        "time": 284.5,
        "duration": 0.5,
        "velocity": 0.09,
        "hand": "right"
      },
      {
        "midi": 46,
        "time": 285,
        "duration": 0.5,
        "velocity": 0.09,
        "hand": "right"
      },
      {
        "midi": 70,
        "time": 286,
        "duration": 0.5,
        "velocity": 0.71,
        "hand": "right"
      },
      {
        "midi": 70,
        "time": 286.5,
        "duration": 2.5,
        "velocity": 0.71,
        "hand": "right"
      },
      {
        "midi": 67,
        "time": 287.5,
        "duration": 0.5,
        "velocity": 0.71,
        "hand": "right"
      },
      {
        "midi": 67,
        "time": 288,
        "duration": 1,
        "velocity": 0.71,
        "hand": "right"
      },
      {
        "midi": 75,
        "time": 289,
        "duration": 0.5,
        "velocity": 0.93,
        "hand": "right"
      },
      {
        "midi": 75,
        "time": 289.5,
        "duration": 2.5,
        "velocity": 0.93,
        "hand": "right"
      },
      {
        "midi": 67,
        "time": 292,
        "duration": 0.5,
        "velocity": 0.93,
        "hand": "right"
      },
      {
        "midi": 70,
        "time": 292.5,
        "duration": 1,
        "velocity": 0.93,
        "hand": "right"
      },
      {
        "midi": 72,
        "time": 293.5,
        "duration": 0.5,
        "velocity": 0.93,
        "hand": "right"
      },
      {
        "midi": 72,
        "time": 294,
        "duration": 1,
        "velocity": 0.93,
        "hand": "right"
      },
      {
        "midi": 70,
        "time": 295,
        "duration": 0.5,
        "velocity": 0.93,
        "hand": "right"
      },
      {
        "midi": 70,
        "time": 295.5,
        "duration": 1,
        "velocity": 0.93,
        "hand": "right"
      },
      {
        "midi": 62,
        "time": 296.5,
        "duration": 0.75,
        "velocity": 0.71,
        "hand": "right"
      },
      {
        "midi": 60,
        "time": 297,
        "duration": 1.5,
        "velocity": 0.71,
        "hand": "right"
      },
      {
        "midi": 63,
        "time": 297.25,
        "duration": 0.333,
        "velocity": 0.71,
        "hand": "right"
      },
      {
        "midi": 62,
        "time": 297.5,
        "duration": 0.333,
        "velocity": 0.71,
        "hand": "right"
      },
      {
        "midi": 69,
        "time": 297.75,
        "duration": 0.333,
        "velocity": 0.71,
        "hand": "right"
      },
      {
        "midi": 66,
        "time": 298,
        "duration": 0.333,
        "velocity": 0.71,
        "hand": "right"
      },
      {
        "midi": 63,
        "time": 298.25,
        "duration": 0.333,
        "velocity": 0.71,
        "hand": "right"
      },
      {
        "midi": 62,
        "time": 298.5,
        "duration": 0.333,
        "velocity": 0.71,
        "hand": "right"
      },
      {
        "midi": 63,
        "time": 298.75,
        "duration": 0.333,
        "velocity": 0.71,
        "hand": "right"
      },
      {
        "midi": 62,
        "time": 299,
        "duration": 0.333,
        "velocity": 0.71,
        "hand": "right"
      },
      {
        "midi": 70,
        "time": 299.25,
        "duration": 0.333,
        "velocity": 0.71,
        "hand": "right"
      },
      {
        "midi": 67,
        "time": 299.5,
        "duration": 0.333,
        "velocity": 0.71,
        "hand": "right"
      },
      {
        "midi": 63,
        "time": 299.75,
        "duration": 0.333,
        "velocity": 0.71,
        "hand": "right"
      },
      {
        "midi": 54,
        "time": 300,
        "duration": 0.333,
        "velocity": 0.93,
        "hand": "right"
      },
      {
        "midi": 63,
        "time": 300.25,
        "duration": 0.333,
        "velocity": 0.93,
        "hand": "right"
      },
      {
        "midi": 62,
        "time": 300.5,
        "duration": 0.333,
        "velocity": 0.93,
        "hand": "right"
      },
      {
        "midi": 66,
        "time": 300.75,
        "duration": 0.333,
        "velocity": 0.93,
        "hand": "right"
      },
      {
        "midi": 72,
        "time": 301,
        "duration": 0.333,
        "velocity": 0.93,
        "hand": "right"
      },
      {
        "midi": 74,
        "time": 301.25,
        "duration": 0.333,
        "velocity": 0.93,
        "hand": "right"
      },
      {
        "midi": 78,
        "time": 301.5,
        "duration": 0.333,
        "velocity": 0.93,
        "hand": "right"
      },
      {
        "midi": 84,
        "time": 301.75,
        "duration": 0.333,
        "velocity": 0.93,
        "hand": "right"
      },
      {
        "midi": 84,
        "time": 302,
        "duration": 0.333,
        "velocity": 0.93,
        "hand": "right"
      },
      {
        "midi": 93,
        "time": 302.25,
        "duration": 0.333,
        "velocity": 0.93,
        "hand": "right"
      },
      {
        "midi": 91,
        "time": 302.75,
        "duration": 0.333,
        "velocity": 0.93,
        "hand": "right"
      },
      {
        "midi": 81,
        "time": 303,
        "duration": 0.333,
        "velocity": 0.93,
        "hand": "right"
      },
      {
        "midi": 90,
        "time": 303.25,
        "duration": 0.333,
        "velocity": 0.93,
        "hand": "right"
      },
      {
        "midi": 87,
        "time": 303.5,
        "duration": 0.333,
        "velocity": 0.93,
        "hand": "right"
      },
      {
        "midi": 78,
        "time": 303.75,
        "duration": 0.333,
        "velocity": 0.93,
        "hand": "right"
      },
      {
        "midi": 86,
        "time": 304,
        "duration": 0.333,
        "velocity": 0.93,
        "hand": "right"
      },
      {
        "midi": 84,
        "time": 304.25,
        "duration": 0.333,
        "velocity": 0.93,
        "hand": "right"
      },
      {
        "midi": 74,
        "time": 304.5,
        "duration": 0.333,
        "velocity": 0.93,
        "hand": "right"
      },
      {
        "midi": 82,
        "time": 304.75,
        "duration": 0.333,
        "velocity": 0.93,
        "hand": "right"
      },
      {
        "midi": 81,
        "time": 305,
        "duration": 0.333,
        "velocity": 0.93,
        "hand": "right"
      },
      {
        "midi": 75,
        "time": 305.25,
        "duration": 0.333,
        "velocity": 0.93,
        "hand": "right"
      },
      {
        "midi": 84,
        "time": 305.5,
        "duration": 0.333,
        "velocity": 0.93,
        "hand": "right"
      },
      {
        "midi": 82,
        "time": 305.75,
        "duration": 0.333,
        "velocity": 0.93,
        "hand": "right"
      },
      {
        "midi": 72,
        "time": 306,
        "duration": 0.333,
        "velocity": 0.93,
        "hand": "right"
      },
      {
        "midi": 81,
        "time": 306.25,
        "duration": 0.333,
        "velocity": 0.93,
        "hand": "right"
      },
      {
        "midi": 82,
        "time": 306.5,
        "duration": 0.333,
        "velocity": 0.93,
        "hand": "right"
      },
      {
        "midi": 78,
        "time": 306.75,
        "duration": 0.333,
        "velocity": 0.93,
        "hand": "right"
      },
      {
        "midi": 81,
        "time": 307,
        "duration": 0.333,
        "velocity": 0.93,
        "hand": "right"
      },
      {
        "midi": 66,
        "time": 307.25,
        "duration": 0.333,
        "velocity": 0.09,
        "hand": "right"
      },
      {
        "midi": 79,
        "time": 307.5,
        "duration": 0.333,
        "velocity": 0.93,
        "hand": "right"
      },
      {
        "midi": 66,
        "time": 307.75,
        "duration": 0.333,
        "velocity": 0.71,
        "hand": "right"
      },
      {
        "midi": 66,
        "time": 308,
        "duration": 0.333,
        "velocity": 0.71,
        "hand": "right"
      },
      {
        "midi": 65,
        "time": 308.25,
        "duration": 0.333,
        "velocity": 0.71,
        "hand": "right"
      },
      {
        "midi": 65,
        "time": 308.5,
        "duration": 0.333,
        "velocity": 0.71,
        "hand": "right"
      },
      {
        "midi": 64,
        "time": 308.75,
        "duration": 0.5,
        "velocity": 0.71,
        "hand": "right"
      },
      {
        "midi": 62,
        "time": 309,
        "duration": 1.5,
        "velocity": 0.71,
        "hand": "right"
      },
      {
        "midi": 65,
        "time": 309.25,
        "duration": 0.333,
        "velocity": 0.71,
        "hand": "right"
      },
      {
        "midi": 64,
        "time": 309.5,
        "duration": 0.333,
        "velocity": 0.71,
        "hand": "right"
      },
      {
        "midi": 71,
        "time": 309.75,
        "duration": 0.333,
        "velocity": 0.71,
        "hand": "right"
      },
      {
        "midi": 68,
        "time": 310,
        "duration": 0.333,
        "velocity": 0.71,
        "hand": "right"
      },
      {
        "midi": 65,
        "time": 310.25,
        "duration": 0.333,
        "velocity": 0.71,
        "hand": "right"
      },
      {
        "midi": 64,
        "time": 310.5,
        "duration": 0.333,
        "velocity": 0.71,
        "hand": "right"
      },
      {
        "midi": 65,
        "time": 310.75,
        "duration": 0.333,
        "velocity": 0.71,
        "hand": "right"
      },
      {
        "midi": 64,
        "time": 311,
        "duration": 0.333,
        "velocity": 0.71,
        "hand": "right"
      },
      {
        "midi": 72,
        "time": 311.25,
        "duration": 0.333,
        "velocity": 0.71,
        "hand": "right"
      },
      {
        "midi": 69,
        "time": 311.5,
        "duration": 0.333,
        "velocity": 0.71,
        "hand": "right"
      },
      {
        "midi": 65,
        "time": 311.75,
        "duration": 0.333,
        "velocity": 0.71,
        "hand": "right"
      },
      {
        "midi": 56,
        "time": 312,
        "duration": 0.333,
        "velocity": 0.93,
        "hand": "right"
      },
      {
        "midi": 65,
        "time": 312.25,
        "duration": 0.333,
        "velocity": 0.93,
        "hand": "right"
      },
      {
        "midi": 64,
        "time": 312.5,
        "duration": 0.333,
        "velocity": 0.93,
        "hand": "right"
      },
      {
        "midi": 68,
        "time": 312.75,
        "duration": 0.333,
        "velocity": 0.93,
        "hand": "right"
      },
      {
        "midi": 74,
        "time": 313,
        "duration": 0.333,
        "velocity": 0.93,
        "hand": "right"
      },
      {
        "midi": 76,
        "time": 313.25,
        "duration": 0.333,
        "velocity": 0.93,
        "hand": "right"
      },
      {
        "midi": 80,
        "time": 313.5,
        "duration": 0.333,
        "velocity": 0.93,
        "hand": "right"
      },
      {
        "midi": 86,
        "time": 313.75,
        "duration": 0.333,
        "velocity": 0.93,
        "hand": "right"
      },
      {
        "midi": 86,
        "time": 314,
        "duration": 0.333,
        "velocity": 0.93,
        "hand": "right"
      },
      {
        "midi": 95,
        "time": 314.25,
        "duration": 0.333,
        "velocity": 0.93,
        "hand": "right"
      },
      {
        "midi": 93,
        "time": 314.75,
        "duration": 0.333,
        "velocity": 0.93,
        "hand": "right"
      },
      {
        "midi": 84,
        "time": 315,
        "duration": 0.333,
        "velocity": 0.93,
        "hand": "right"
      },
      {
        "midi": 93,
        "time": 315.25,
        "duration": 0.333,
        "velocity": 0.93,
        "hand": "right"
      },
      {
        "midi": 92,
        "time": 315.5,
        "duration": 0.333,
        "velocity": 0.93,
        "hand": "right"
      },
      {
        "midi": 81,
        "time": 315.75,
        "duration": 0.333,
        "velocity": 0.93,
        "hand": "right"
      },
      {
        "midi": 89,
        "time": 316,
        "duration": 0.333,
        "velocity": 0.93,
        "hand": "right"
      },
      {
        "midi": 88,
        "time": 316.25,
        "duration": 0.333,
        "velocity": 0.93,
        "hand": "right"
      },
      {
        "midi": 77,
        "time": 316.5,
        "duration": 0.333,
        "velocity": 0.93,
        "hand": "right"
      },
      {
        "midi": 86,
        "time": 316.75,
        "duration": 0.333,
        "velocity": 0.93,
        "hand": "right"
      },
      {
        "midi": 84,
        "time": 317,
        "duration": 0.333,
        "velocity": 0.93,
        "hand": "right"
      },
      {
        "midi": 83,
        "time": 317.25,
        "duration": 0.333,
        "velocity": 0.93,
        "hand": "right"
      },
      {
        "midi": 86,
        "time": 317.5,
        "duration": 0.333,
        "velocity": 0.93,
        "hand": "right"
      },
      {
        "midi": 84,
        "time": 317.75,
        "duration": 0.333,
        "velocity": 0.93,
        "hand": "right"
      },
      {
        "midi": 74,
        "time": 318,
        "duration": 0.333,
        "velocity": 0.93,
        "hand": "right"
      },
      {
        "midi": 83,
        "time": 318.25,
        "duration": 0.333,
        "velocity": 0.93,
        "hand": "right"
      },
      {
        "midi": 84,
        "time": 318.5,
        "duration": 0.333,
        "velocity": 0.93,
        "hand": "right"
      },
      {
        "midi": 80,
        "time": 318.75,
        "duration": 0.333,
        "velocity": 0.93,
        "hand": "right"
      },
      {
        "midi": 83,
        "time": 319,
        "duration": 0.333,
        "velocity": 0.93,
        "hand": "right"
      },
      {
        "midi": 81,
        "time": 319.25,
        "duration": 0.5,
        "velocity": 0.93,
        "hand": "right"
      },
      {
        "midi": 69,
        "time": 319.5,
        "duration": 0.5,
        "velocity": 0.09,
        "hand": "right"
      },
      {
        "midi": 81,
        "time": 319.75,
        "duration": 0.5,
        "velocity": 0.93,
        "hand": "right"
      },
      {
        "midi": 64,
        "time": 320,
        "duration": 0.5,
        "velocity": 0.71,
        "hand": "right"
      },
      {
        "midi": 81,
        "time": 320.25,
        "duration": 0.5,
        "velocity": 0.93,
        "hand": "right"
      },
      {
        "midi": 63,
        "time": 320.5,
        "duration": 0.5,
        "velocity": 0.71,
        "hand": "right"
      },
      {
        "midi": 81,
        "time": 320.75,
        "duration": 0.5,
        "velocity": 0.93,
        "hand": "right"
      },
      {
        "midi": 62,
        "time": 321,
        "duration": 3,
        "velocity": 0.71,
        "hand": "right"
      },
      {
        "midi": 82,
        "time": 321.25,
        "duration": 0.5,
        "velocity": 0.93,
        "hand": "right"
      },
      {
        "midi": 81,
        "time": 321.75,
        "duration": 0.5,
        "velocity": 0.93,
        "hand": "right"
      },
      {
        "midi": 54,
        "time": 322,
        "duration": 0.5,
        "velocity": 0.71,
        "hand": "right"
      },
      {
        "midi": 84,
        "time": 322.25,
        "duration": 0.5,
        "velocity": 0.93,
        "hand": "right"
      },
      {
        "midi": 55,
        "time": 322.5,
        "duration": 0.5,
        "velocity": 0.71,
        "hand": "right"
      },
      {
        "midi": 82,
        "time": 322.75,
        "duration": 0.5,
        "velocity": 0.93,
        "hand": "right"
      },
      {
        "midi": 57,
        "time": 323,
        "duration": 0.5,
        "velocity": 0.71,
        "hand": "right"
      },
      {
        "midi": 78,
        "time": 323.25,
        "duration": 0.333,
        "velocity": 0.93,
        "hand": "right"
      },
      {
        "midi": 79,
        "time": 323.5,
        "duration": 0.333,
        "velocity": 0.93,
        "hand": "right"
      },
      {
        "midi": 82,
        "time": 323.75,
        "duration": 0.5,
        "velocity": 0.93,
        "hand": "right"
      },
      {
        "midi": 38,
        "time": 324,
        "duration": 0.5,
        "velocity": 0.71,
        "hand": "right"
      },
      {
        "midi": 81,
        "time": 324.25,
        "duration": 0.5,
        "velocity": 0.93,
        "hand": "right"
      },
      {
        "midi": 62,
        "time": 324.5,
        "duration": 1.5,
        "velocity": 0.71,
        "hand": "right"
      },
      {
        "midi": 82,
        "time": 324.75,
        "duration": 0.333,
        "velocity": 0.93,
        "hand": "right"
      },
      {
        "midi": 78,
        "time": 325,
        "duration": 0.333,
        "velocity": 0.93,
        "hand": "right"
      },
      {
        "midi": 81,
        "time": 325.25,
        "duration": 0.5,
        "velocity": 0.93,
        "hand": "right"
      },
      {
        "midi": 55,
        "time": 325.5,
        "duration": 0.5,
        "velocity": 0.71,
        "hand": "right"
      },
      {
        "midi": 79,
        "time": 325.75,
        "duration": 0.333,
        "velocity": 0.93,
        "hand": "right"
      },
      {
        "midi": 81,
        "time": 326,
        "duration": 0.333,
        "velocity": 0.93,
        "hand": "right"
      },
      {
        "midi": 78,
        "time": 326.25,
        "duration": 0.5,
        "velocity": 0.93,
        "hand": "right"
      },
      {
        "midi": 61,
        "time": 326.5,
        "duration": 0.5,
        "velocity": 0.82,
        "hand": "right"
      },
      {
        "midi": 79,
        "time": 326.75,
        "duration": 0.5,
        "velocity": 0.93,
        "hand": "right"
      },
      {
        "midi": 60,
        "time": 327,
        "duration": 3,
        "velocity": 0.93,
        "hand": "right"
      },
      {
        "midi": 80,
        "time": 327.25,
        "duration": 0.5,
        "velocity": 0.93,
        "hand": "right"
      },
      {
        "midi": 79,
        "time": 327.75,
        "duration": 0.5,
        "velocity": 0.93,
        "hand": "right"
      },
      {
        "midi": 52,
        "time": 328,
        "duration": 0.5,
        "velocity": 0.93,
        "hand": "right"
      },
      {
        "midi": 82,
        "time": 328.25,
        "duration": 0.5,
        "velocity": 0.93,
        "hand": "right"
      },
      {
        "midi": 53,
        "time": 328.5,
        "duration": 0.5,
        "velocity": 0.93,
        "hand": "right"
      },
      {
        "midi": 80,
        "time": 328.75,
        "duration": 0.5,
        "velocity": 0.93,
        "hand": "right"
      },
      {
        "midi": 55,
        "time": 329,
        "duration": 0.5,
        "velocity": 0.93,
        "hand": "right"
      },
      {
        "midi": 76,
        "time": 329.25,
        "duration": 0.333,
        "velocity": 0.93,
        "hand": "right"
      },
      {
        "midi": 77,
        "time": 329.5,
        "duration": 0.333,
        "velocity": 0.93,
        "hand": "right"
      },
      {
        "midi": 80,
        "time": 329.75,
        "duration": 0.5,
        "velocity": 0.93,
        "hand": "right"
      },
      {
        "midi": 36,
        "time": 330,
        "duration": 0.5,
        "velocity": 0.93,
        "hand": "right"
      },
      {
        "midi": 79,
        "time": 330.25,
        "duration": 0.5,
        "velocity": 0.93,
        "hand": "right"
      },
      {
        "midi": 60,
        "time": 330.5,
        "duration": 1.5,
        "velocity": 0.71,
        "hand": "right"
      },
      {
        "midi": 80,
        "time": 330.75,
        "duration": 0.333,
        "velocity": 0.93,
        "hand": "right"
      },
      {
        "midi": 76,
        "time": 331,
        "duration": 0.333,
        "velocity": 0.93,
        "hand": "right"
      },
      {
        "midi": 79,
        "time": 331.25,
        "duration": 0.333,
        "velocity": 0.93,
        "hand": "right"
      },
      {
        "midi": 79,
        "time": 331.5,
        "duration": 0.333,
        "velocity": 0.93,
        "hand": "right"
      },
      {
        "midi": 77,
        "time": 331.75,
        "duration": 0.333,
        "velocity": 0.93,
        "hand": "right"
      },
      {
        "midi": 79,
        "time": 332,
        "duration": 0.333,
        "velocity": 0.93,
        "hand": "right"
      },
      {
        "midi": 76,
        "time": 332.25,
        "duration": 0.5,
        "velocity": 0.93,
        "hand": "right"
      },
      {
        "midi": 65,
        "time": 332.5,
        "duration": 0.5,
        "velocity": 0.93,
        "hand": "right"
      },
      {
        "midi": 77,
        "time": 332.75,
        "duration": 0.333,
        "velocity": 0.93,
        "hand": "right"
      },
      {
        "midi": 77,
        "time": 333,
        "duration": 0.333,
        "velocity": 0.93,
        "hand": "right"
      },
      {
        "midi": 78,
        "time": 333.25,
        "duration": 0.5,
        "velocity": 0.93,
        "hand": "right"
      },
      {
        "midi": 56,
        "time": 333.5,
        "duration": 0.5,
        "velocity": 0.09,
        "hand": "right"
      },
      {
        "midi": 77,
        "time": 333.75,
        "duration": 0.333,
        "velocity": 0.93,
        "hand": "right"
      },
      {
        "midi": 75,
        "time": 334,
        "duration": 0.333,
        "velocity": 0.93,
        "hand": "right"
      },
      {
        "midi": 78,
        "time": 334.25,
        "duration": 0.333,
        "velocity": 0.93,
        "hand": "right"
      },
      {
        "midi": 77,
        "time": 334.5,
        "duration": 0.333,
        "velocity": 0.93,
        "hand": "right"
      },
      {
        "midi": 78,
        "time": 334.75,
        "duration": 0.333,
        "velocity": 0.93,
        "hand": "right"
      },
      {
        "midi": 77,
        "time": 335,
        "duration": 0.333,
        "velocity": 0.93,
        "hand": "right"
      },
      {
        "midi": 72,
        "time": 335.25,
        "duration": 0.333,
        "velocity": 0.93,
        "hand": "right"
      },
      {
        "midi": 73,
        "time": 335.5,
        "duration": 0.333,
        "velocity": 0.93,
        "hand": "right"
      },
      {
        "midi": 77,
        "time": 335.75,
        "duration": 0.333,
        "velocity": 0.93,
        "hand": "right"
      },
      {
        "midi": 75,
        "time": 336,
        "duration": 0.333,
        "velocity": 0.93,
        "hand": "right"
      },
      {
        "midi": 77,
        "time": 336.25,
        "duration": 0.333,
        "velocity": 0.93,
        "hand": "right"
      },
      {
        "midi": 75,
        "time": 336.5,
        "duration": 0.333,
        "velocity": 0.93,
        "hand": "right"
      },
      {
        "midi": 77,
        "time": 336.75,
        "duration": 0.333,
        "velocity": 0.93,
        "hand": "right"
      },
      {
        "midi": 73,
        "time": 337,
        "duration": 0.333,
        "velocity": 0.93,
        "hand": "right"
      },
      {
        "midi": 75,
        "time": 337.25,
        "duration": 0.333,
        "velocity": 0.93,
        "hand": "right"
      },
      {
        "midi": 72,
        "time": 337.5,
        "duration": 0.333,
        "velocity": 0.93,
        "hand": "right"
      },
      {
        "midi": 73,
        "time": 337.75,
        "duration": 0.333,
        "velocity": 0.93,
        "hand": "right"
      },
      {
        "midi": 70,
        "time": 338,
        "duration": 0.333,
        "velocity": 0.93,
        "hand": "right"
      },
      {
        "midi": 72,
        "time": 338.25,
        "duration": 0.333,
        "velocity": 0.93,
        "hand": "right"
      },
      {
        "midi": 68,
        "time": 338.5,
        "duration": 0.333,
        "velocity": 0.93,
        "hand": "right"
      },
      {
        "midi": 89,
        "time": 339,
        "duration": 0.333,
        "velocity": 0.93,
        "hand": "right"
      },
      {
        "midi": 90,
        "time": 339.25,
        "duration": 0.5,
        "velocity": 0.93,
        "hand": "right"
      },
      {
        "midi": 68,
        "time": 339.5,
        "duration": 0.5,
        "velocity": 0.09,
        "hand": "right"
      },
      {
        "midi": 89,
        "time": 339.75,
        "duration": 0.333,
        "velocity": 0.93,
        "hand": "right"
      },
      {
        "midi": 87,
        "time": 340,
        "duration": 0.333,
        "velocity": 0.93,
        "hand": "right"
      },
      {
        "midi": 90,
        "time": 340.25,
        "duration": 0.333,
        "velocity": 0.93,
        "hand": "right"
      },
      {
        "midi": 89,
        "time": 340.5,
        "duration": 0.333,
        "velocity": 0.93,
        "hand": "right"
      },
      {
        "midi": 90,
        "time": 340.75,
        "duration": 0.333,
        "velocity": 0.93,
        "hand": "right"
      },
      {
        "midi": 89,
        "time": 341,
        "duration": 0.333,
        "velocity": 0.93,
        "hand": "right"
      },
      {
        "midi": 84,
        "time": 341.25,
        "duration": 0.333,
        "velocity": 0.93,
        "hand": "right"
      },
      {
        "midi": 85,
        "time": 341.5,
        "duration": 0.333,
        "velocity": 0.93,
        "hand": "right"
      },
      {
        "midi": 89,
        "time": 341.75,
        "duration": 0.333,
        "velocity": 0.93,
        "hand": "right"
      },
      {
        "midi": 87,
        "time": 342,
        "duration": 0.333,
        "velocity": 0.93,
        "hand": "right"
      },
      {
        "midi": 89,
        "time": 342.25,
        "duration": 0.333,
        "velocity": 0.93,
        "hand": "right"
      },
      {
        "midi": 87,
        "time": 342.5,
        "duration": 0.333,
        "velocity": 0.93,
        "hand": "right"
      },
      {
        "midi": 89,
        "time": 342.75,
        "duration": 0.333,
        "velocity": 0.93,
        "hand": "right"
      },
      {
        "midi": 85,
        "time": 343,
        "duration": 0.333,
        "velocity": 0.93,
        "hand": "right"
      },
      {
        "midi": 87,
        "time": 343.25,
        "duration": 0.333,
        "velocity": 0.93,
        "hand": "right"
      },
      {
        "midi": 84,
        "time": 343.5,
        "duration": 0.333,
        "velocity": 0.93,
        "hand": "right"
      },
      {
        "midi": 85,
        "time": 343.75,
        "duration": 0.333,
        "velocity": 0.93,
        "hand": "right"
      },
      {
        "midi": 82,
        "time": 344,
        "duration": 0.333,
        "velocity": 0.93,
        "hand": "right"
      },
      {
        "midi": 84,
        "time": 344.25,
        "duration": 0.333,
        "velocity": 0.93,
        "hand": "right"
      },
      {
        "midi": 80,
        "time": 344.5,
        "duration": 0.333,
        "velocity": 0.93,
        "hand": "right"
      },
      {
        "midi": 89,
        "time": 344.75,
        "duration": 0.333,
        "velocity": 0.93,
        "hand": "right"
      },
      {
        "midi": 87,
        "time": 345,
        "duration": 0.333,
        "velocity": 0.93,
        "hand": "right"
      },
      {
        "midi": 89,
        "time": 345.25,
        "duration": 0.333,
        "velocity": 0.93,
        "hand": "right"
      },
      {
        "midi": 87,
        "time": 345.5,
        "duration": 0.333,
        "velocity": 0.93,
        "hand": "right"
      },
      {
        "midi": 89,
        "time": 345.75,
        "duration": 0.333,
        "velocity": 0.93,
        "hand": "right"
      },
      {
        "midi": 85,
        "time": 346,
        "duration": 0.333,
        "velocity": 0.93,
        "hand": "right"
      },
      {
        "midi": 87,
        "time": 346.25,
        "duration": 0.333,
        "velocity": 0.93,
        "hand": "right"
      },
      {
        "midi": 84,
        "time": 346.5,
        "duration": 0.333,
        "velocity": 0.93,
        "hand": "right"
      },
      {
        "midi": 85,
        "time": 346.75,
        "duration": 0.333,
        "velocity": 0.93,
        "hand": "right"
      },
      {
        "midi": 82,
        "time": 347,
        "duration": 0.333,
        "velocity": 0.93,
        "hand": "right"
      },
      {
        "midi": 84,
        "time": 347.25,
        "duration": 0.333,
        "velocity": 0.93,
        "hand": "right"
      },
      {
        "midi": 80,
        "time": 347.5,
        "duration": 0.333,
        "velocity": 0.93,
        "hand": "right"
      },
      {
        "midi": 99,
        "time": 348,
        "duration": 0.333,
        "velocity": 0.93,
        "hand": "right"
      },
      {
        "midi": 101,
        "time": 348.25,
        "duration": 0.333,
        "velocity": 0.93,
        "hand": "right"
      },
      {
        "midi": 99,
        "time": 348.5,
        "duration": 0.333,
        "velocity": 0.93,
        "hand": "right"
      },
      {
        "midi": 101,
        "time": 348.75,
        "duration": 0.333,
        "velocity": 0.93,
        "hand": "right"
      },
      {
        "midi": 97,
        "time": 349,
        "duration": 0.333,
        "velocity": 0.93,
        "hand": "right"
      },
      {
        "midi": 99,
        "time": 349.25,
        "duration": 0.333,
        "velocity": 0.93,
        "hand": "right"
      },
      {
        "midi": 96,
        "time": 349.5,
        "duration": 0.333,
        "velocity": 0.93,
        "hand": "right"
      },
      {
        "midi": 97,
        "time": 349.75,
        "duration": 0.333,
        "velocity": 0.93,
        "hand": "right"
      },
      {
        "midi": 94,
        "time": 350,
        "duration": 0.333,
        "velocity": 0.93,
        "hand": "right"
      },
      {
        "midi": 96,
        "time": 350.25,
        "duration": 0.333,
        "velocity": 0.93,
        "hand": "right"
      },
      {
        "midi": 92,
        "time": 350.5,
        "duration": 0.333,
        "velocity": 0.93,
        "hand": "right"
      },
      {
        "midi": 94,
        "time": 350.75,
        "duration": 0.333,
        "velocity": 0.93,
        "hand": "right"
      },
      {
        "midi": 91,
        "time": 351,
        "duration": 0.333,
        "velocity": 0.93,
        "hand": "right"
      },
      {
        "midi": 92,
        "time": 351.25,
        "duration": 0.333,
        "velocity": 0.93,
        "hand": "right"
      },
      {
        "midi": 89,
        "time": 351.5,
        "duration": 0.333,
        "velocity": 0.93,
        "hand": "right"
      },
      {
        "midi": 91,
        "time": 351.75,
        "duration": 0.333,
        "velocity": 0.93,
        "hand": "right"
      },
      {
        "midi": 87,
        "time": 352,
        "duration": 0.333,
        "velocity": 0.93,
        "hand": "right"
      },
      {
        "midi": 89,
        "time": 352.25,
        "duration": 0.333,
        "velocity": 0.93,
        "hand": "right"
      },
      {
        "midi": 85,
        "time": 352.5,
        "duration": 0.333,
        "velocity": 0.93,
        "hand": "right"
      },
      {
        "midi": 87,
        "time": 352.75,
        "duration": 0.333,
        "velocity": 0.93,
        "hand": "right"
      },
      {
        "midi": 84,
        "time": 353,
        "duration": 0.333,
        "velocity": 0.93,
        "hand": "right"
      },
      {
        "midi": 85,
        "time": 353.25,
        "duration": 0.333,
        "velocity": 0.93,
        "hand": "right"
      },
      {
        "midi": 82,
        "time": 353.5,
        "duration": 0.333,
        "velocity": 0.93,
        "hand": "right"
      },
      {
        "midi": 84,
        "time": 353.75,
        "duration": 0.333,
        "velocity": 0.93,
        "hand": "right"
      },
      {
        "midi": 80,
        "time": 354,
        "duration": 0.333,
        "velocity": 0.93,
        "hand": "right"
      },
      {
        "midi": 82,
        "time": 354.25,
        "duration": 0.333,
        "velocity": 0.93,
        "hand": "right"
      },
      {
        "midi": 79,
        "time": 354.5,
        "duration": 0.333,
        "velocity": 0.93,
        "hand": "right"
      },
      {
        "midi": 80,
        "time": 354.75,
        "duration": 0.333,
        "velocity": 0.93,
        "hand": "right"
      },
      {
        "midi": 77,
        "time": 355,
        "duration": 0.333,
        "velocity": 0.93,
        "hand": "right"
      },
      {
        "midi": 79,
        "time": 355.25,
        "duration": 0.333,
        "velocity": 0.93,
        "hand": "right"
      },
      {
        "midi": 75,
        "time": 355.5,
        "duration": 0.333,
        "velocity": 0.93,
        "hand": "right"
      },
      {
        "midi": 77,
        "time": 355.75,
        "duration": 0.333,
        "velocity": 0.93,
        "hand": "right"
      },
      {
        "midi": 73,
        "time": 356,
        "duration": 0.333,
        "velocity": 0.93,
        "hand": "right"
      },
      {
        "midi": 75,
        "time": 356.25,
        "duration": 0.333,
        "velocity": 0.93,
        "hand": "right"
      },
      {
        "midi": 72,
        "time": 356.5,
        "duration": 0.333,
        "velocity": 0.93,
        "hand": "right"
      },
      {
        "midi": 73,
        "time": 356.75,
        "duration": 0.333,
        "velocity": 0.93,
        "hand": "right"
      },
      {
        "midi": 70,
        "time": 357,
        "duration": 1.5,
        "velocity": 0.71,
        "hand": "right"
      },
      {
        "midi": 52,
        "time": 357.5,
        "duration": 0.5,
        "velocity": 0.71,
        "hand": "right"
      },
      {
        "midi": 53,
        "time": 358,
        "duration": 0.5,
        "velocity": 0.71,
        "hand": "right"
      },
      {
        "midi": 69,
        "time": 358.5,
        "duration": 0.333,
        "velocity": 0.71,
        "hand": "right"
      },
      {
        "midi": 70,
        "time": 358.75,
        "duration": 0.333,
        "velocity": 0.71,
        "hand": "right"
      },
      {
        "midi": 72,
        "time": 359,
        "duration": 0.333,
        "velocity": 0.71,
        "hand": "right"
      },
      {
        "midi": 70,
        "time": 359.25,
        "duration": 0.333,
        "velocity": 0.71,
        "hand": "right"
      },
      {
        "midi": 73,
        "time": 359.5,
        "duration": 0.333,
        "velocity": 0.71,
        "hand": "right"
      },
      {
        "midi": 67,
        "time": 359.75,
        "duration": 0.333,
        "velocity": 0.71,
        "hand": "right"
      },
      {
        "midi": 68,
        "time": 360,
        "duration": 2,
        "velocity": 0.71,
        "hand": "right"
      },
      {
        "midi": 63,
        "time": 360.25,
        "duration": 0.333,
        "velocity": 0.71,
        "hand": "right"
      },
      {
        "midi": 58,
        "time": 360.5,
        "duration": 0.333,
        "velocity": 0.71,
        "hand": "right"
      },
      {
        "midi": 63,
        "time": 360.75,
        "duration": 0.333,
        "velocity": 0.71,
        "hand": "right"
      },
      {
        "midi": 60,
        "time": 361,
        "duration": 0.333,
        "velocity": 0.71,
        "hand": "right"
      },
      {
        "midi": 63,
        "time": 361.25,
        "duration": 0.333,
        "velocity": 0.71,
        "hand": "right"
      },
      {
        "midi": 61,
        "time": 361.5,
        "duration": 0.333,
        "velocity": 0.71,
        "hand": "right"
      },
      {
        "midi": 64,
        "time": 361.75,
        "duration": 0.333,
        "velocity": 0.71,
        "hand": "right"
      },
      {
        "midi": 67,
        "time": 362,
        "duration": 0.333,
        "velocity": 0.71,
        "hand": "right"
      },
      {
        "midi": 68,
        "time": 362.25,
        "duration": 0.333,
        "velocity": 0.71,
        "hand": "right"
      },
      {
        "midi": 67,
        "time": 362.5,
        "duration": 0.333,
        "velocity": 0.71,
        "hand": "right"
      },
      {
        "midi": 68,
        "time": 362.75,
        "duration": 0.333,
        "velocity": 0.71,
        "hand": "right"
      },
      {
        "midi": 69,
        "time": 363,
        "duration": 0.5,
        "velocity": 0.71,
        "hand": "right"
      },
      {
        "midi": 63,
        "time": 363.25,
        "duration": 0.333,
        "velocity": 0.66,
        "hand": "right"
      },
      {
        "midi": 68,
        "time": 363.5,
        "duration": 0.5,
        "velocity": 0.71,
        "hand": "right"
      },
      {
        "midi": 64,
        "time": 363.75,
        "duration": 0.333,
        "velocity": 0.57,
        "hand": "right"
      },
      {
        "midi": 66,
        "time": 364,
        "duration": 0.5,
        "velocity": 0.71,
        "hand": "right"
      },
      {
        "midi": 61,
        "time": 364.25,
        "duration": 0.333,
        "velocity": 0.48,
        "hand": "right"
      },
      {
        "midi": 64,
        "time": 364.5,
        "duration": 0.75,
        "velocity": 0.71,
        "hand": "right"
      },
      {
        "midi": 61,
        "time": 364.75,
        "duration": 0.333,
        "velocity": 0.48,
        "hand": "right"
      },
      {
        "midi": 55,
        "time": 365,
        "duration": 0.333,
        "velocity": 0.48,
        "hand": "right"
      },
      {
        "midi": 63,
        "time": 365.25,
        "duration": 0.333,
        "velocity": 0.71,
        "hand": "right"
      },
      {
        "midi": 66,
        "time": 365.5,
        "duration": 0.333,
        "velocity": 0.71,
        "hand": "right"
      },
      {
        "midi": 63,
        "time": 365.75,
        "duration": 0.333,
        "velocity": 0.71,
        "hand": "right"
      },
      {
        "midi": 68,
        "time": 366,
        "duration": 1,
        "velocity": 0.71,
        "hand": "right"
      },
      {
        "midi": 63,
        "time": 366.25,
        "duration": 0.333,
        "velocity": 0.48,
        "hand": "right"
      },
      {
        "midi": 58,
        "time": 366.5,
        "duration": 0.333,
        "velocity": 0.48,
        "hand": "right"
      },
      {
        "midi": 63,
        "time": 366.75,
        "duration": 0.333,
        "velocity": 0.48,
        "hand": "right"
      },
      {
        "midi": 68,
        "time": 367,
        "duration": 1,
        "velocity": 0.71,
        "hand": "right"
      },
      {
        "midi": 63,
        "time": 367.25,
        "duration": 0.333,
        "velocity": 0.48,
        "hand": "right"
      },
      {
        "midi": 56,
        "time": 367.5,
        "duration": 0.333,
        "velocity": 0.48,
        "hand": "right"
      },
      {
        "midi": 61,
        "time": 367.75,
        "duration": 0.333,
        "velocity": 0.48,
        "hand": "right"
      },
      {
        "midi": 67,
        "time": 368,
        "duration": 0.333,
        "velocity": 0.71,
        "hand": "right"
      },
      {
        "midi": 68,
        "time": 368.25,
        "duration": 0.333,
        "velocity": 0.71,
        "hand": "right"
      },
      {
        "midi": 67,
        "time": 368.5,
        "duration": 0.333,
        "velocity": 0.71,
        "hand": "right"
      },
      {
        "midi": 68,
        "time": 368.75,
        "duration": 0.333,
        "velocity": 0.71,
        "hand": "right"
      },
      {
        "midi": 71,
        "time": 369,
        "duration": 0.333,
        "velocity": 0.71,
        "hand": "right"
      },
      {
        "midi": 69,
        "time": 369.25,
        "duration": 0.333,
        "velocity": 0.71,
        "hand": "right"
      },
      {
        "midi": 69,
        "time": 369.5,
        "duration": 0.333,
        "velocity": 0.71,
        "hand": "right"
      },
      {
        "midi": 68,
        "time": 369.75,
        "duration": 0.333,
        "velocity": 0.71,
        "hand": "right"
      },
      {
        "midi": 68,
        "time": 370,
        "duration": 0.333,
        "velocity": 0.71,
        "hand": "right"
      },
      {
        "midi": 66,
        "time": 370.25,
        "duration": 0.333,
        "velocity": 0.71,
        "hand": "right"
      },
      {
        "midi": 64,
        "time": 370.5,
        "duration": 0.333,
        "velocity": 0.71,
        "hand": "right"
      },
      {
        "midi": 63,
        "time": 370.75,
        "duration": 0.333,
        "velocity": 0.71,
        "hand": "right"
      },
      {
        "midi": 71,
        "time": 371,
        "duration": 0.333,
        "velocity": 0.71,
        "hand": "right"
      },
      {
        "midi": 70,
        "time": 371.25,
        "duration": 0.333,
        "velocity": 0.71,
        "hand": "right"
      },
      {
        "midi": 76,
        "time": 371.5,
        "duration": 0.333,
        "velocity": 0.71,
        "hand": "right"
      },
      {
        "midi": 75,
        "time": 371.75,
        "duration": 0.333,
        "velocity": 0.71,
        "hand": "right"
      },
      {
        "midi": 80,
        "time": 372,
        "duration": 0.5,
        "velocity": 0.71,
        "hand": "right"
      },
      {
        "midi": 72,
        "time": 372.25,
        "duration": 0.333,
        "velocity": 0.48,
        "hand": "right"
      },
      {
        "midi": 80,
        "time": 372.5,
        "duration": 0.5,
        "velocity": 0.71,
        "hand": "right"
      },
      {
        "midi": 70,
        "time": 372.75,
        "duration": 0.333,
        "velocity": 0.48,
        "hand": "right"
      },
      {
        "midi": 80,
        "time": 373,
        "duration": 0.5,
        "velocity": 0.71,
        "hand": "right"
      },
      {
        "midi": 68,
        "time": 373.25,
        "duration": 0.333,
        "velocity": 0.48,
        "hand": "right"
      },
      {
        "midi": 80,
        "time": 373.5,
        "duration": 0.5,
        "velocity": 0.71,
        "hand": "right"
      },
      {
        "midi": 68,
        "time": 373.75,
        "duration": 0.333,
        "velocity": 0.48,
        "hand": "right"
      },
      {
        "midi": 79,
        "time": 374,
        "duration": 0.5,
        "velocity": 0.71,
        "hand": "right"
      },
      {
        "midi": 65,
        "time": 374.25,
        "duration": 0.333,
        "velocity": 0.48,
        "hand": "right"
      },
      {
        "midi": 75,
        "time": 374.5,
        "duration": 0.5,
        "velocity": 0.71,
        "hand": "right"
      },
      {
        "midi": 63,
        "time": 374.75,
        "duration": 0.333,
        "velocity": 0.48,
        "hand": "right"
      },
      {
        "midi": 78,
        "time": 375,
        "duration": 0.5,
        "velocity": 0.71,
        "hand": "right"
      },
      {
        "midi": 69,
        "time": 375.25,
        "duration": 0.333,
        "velocity": 0.48,
        "hand": "right"
      },
      {
        "midi": 78,
        "time": 375.5,
        "duration": 0.5,
        "velocity": 0.71,
        "hand": "right"
      },
      {
        "midi": 66,
        "time": 375.75,
        "duration": 0.333,
        "velocity": 0.48,
        "hand": "right"
      },
      {
        "midi": 78,
        "time": 376,
        "duration": 0.5,
        "velocity": 0.71,
        "hand": "right"
      },
      {
        "midi": 66,
        "time": 376.25,
        "duration": 0.333,
        "velocity": 0.48,
        "hand": "right"
      },
      {
        "midi": 78,
        "time": 376.5,
        "duration": 1.5,
        "velocity": 0.71,
        "hand": "right"
      },
      {
        "midi": 66,
        "time": 376.75,
        "duration": 0.333,
        "velocity": 0.48,
        "hand": "right"
      },
      {
        "midi": 74,
        "time": 377,
        "duration": 0.5,
        "velocity": 0.71,
        "hand": "right"
      },
      {
        "midi": 66,
        "time": 377.25,
        "duration": 0.333,
        "velocity": 0.48,
        "hand": "right"
      },
      {
        "midi": 73,
        "time": 377.5,
        "duration": 0.5,
        "velocity": 0.71,
        "hand": "right"
      },
      {
        "midi": 66,
        "time": 377.75,
        "duration": 0.333,
        "velocity": 0.48,
        "hand": "right"
      },
      {
        "midi": 78,
        "time": 378,
        "duration": 0.5,
        "velocity": 0.71,
        "hand": "right"
      },
      {
        "midi": 68,
        "time": 378.25,
        "duration": 0.333,
        "velocity": 0.48,
        "hand": "right"
      },
      {
        "midi": 78,
        "time": 378.5,
        "duration": 0.5,
        "velocity": 0.71,
        "hand": "right"
      },
      {
        "midi": 67,
        "time": 378.75,
        "duration": 0.333,
        "velocity": 0.48,
        "hand": "right"
      },
      {
        "midi": 78,
        "time": 379,
        "duration": 0.5,
        "velocity": 0.71,
        "hand": "right"
      },
      {
        "midi": 63,
        "time": 379.25,
        "duration": 0.333,
        "velocity": 0.48,
        "hand": "right"
      },
      {
        "midi": 78,
        "time": 379.5,
        "duration": 0.5,
        "velocity": 0.71,
        "hand": "right"
      },
      {
        "midi": 67,
        "time": 379.75,
        "duration": 0.333,
        "velocity": 0.48,
        "hand": "right"
      },
      {
        "midi": 77,
        "time": 380,
        "duration": 0.5,
        "velocity": 0.71,
        "hand": "right"
      },
      {
        "midi": 64,
        "time": 380.25,
        "duration": 0.333,
        "velocity": 0.48,
        "hand": "right"
      },
      {
        "midi": 72,
        "time": 380.5,
        "duration": 0.5,
        "velocity": 0.71,
        "hand": "right"
      },
      {
        "midi": 60,
        "time": 380.75,
        "duration": 0.333,
        "velocity": 0.48,
        "hand": "right"
      },
      {
        "midi": 76,
        "time": 381,
        "duration": 0.5,
        "velocity": 0.71,
        "hand": "right"
      },
      {
        "midi": 63,
        "time": 381.25,
        "duration": 0.333,
        "velocity": 0.48,
        "hand": "right"
      },
      {
        "midi": 76,
        "time": 381.5,
        "duration": 0.5,
        "velocity": 0.71,
        "hand": "right"
      },
      {
        "midi": 59,
        "time": 381.75,
        "duration": 0.333,
        "velocity": 0.48,
        "hand": "right"
      },
      {
        "midi": 76,
        "time": 382,
        "duration": 0.5,
        "velocity": 0.71,
        "hand": "right"
      },
      {
        "midi": 59,
        "time": 382.25,
        "duration": 0.333,
        "velocity": 0.48,
        "hand": "right"
      },
      {
        "midi": 76,
        "time": 382.5,
        "duration": 1,
        "velocity": 0.71,
        "hand": "right"
      },
      {
        "midi": 64,
        "time": 382.75,
        "duration": 0.333,
        "velocity": 0.43,
        "hand": "right"
      },
      {
        "midi": 71,
        "time": 383,
        "duration": 0.333,
        "velocity": 0.39,
        "hand": "right"
      },
      {
        "midi": 63,
        "time": 383.25,
        "duration": 0.333,
        "velocity": 0.35,
        "hand": "right"
      },
      {
        "midi": 71,
        "time": 383.5,
        "duration": 0.75,
        "velocity": 0.71,
        "hand": "right"
      },
      {
        "midi": 62,
        "time": 383.75,
        "duration": 0.333,
        "velocity": 0.26,
        "hand": "right"
      },
      {
        "midi": 61,
        "time": 384,
        "duration": 0.333,
        "velocity": 0.26,
        "hand": "right"
      },
      {
        "midi": 69,
        "time": 384.25,
        "duration": 0.333,
        "velocity": 0.71,
        "hand": "right"
      },
      {
        "midi": 76,
        "time": 384.5,
        "duration": 0.5,
        "velocity": 0.71,
        "hand": "right"
      },
      {
        "midi": 69,
        "time": 384.75,
        "duration": 0.333,
        "velocity": 0.26,
        "hand": "right"
      },
      {
        "midi": 76,
        "time": 385,
        "duration": 0.5,
        "velocity": 0.71,
        "hand": "right"
      },
      {
        "midi": 69,
        "time": 385.25,
        "duration": 0.333,
        "velocity": 0.26,
        "hand": "right"
      },
      {
        "midi": 76,
        "time": 385.5,
        "duration": 0.5,
        "velocity": 0.71,
        "hand": "right"
      },
      {
        "midi": 69,
        "time": 385.75,
        "duration": 0.333,
        "velocity": 0.26,
        "hand": "right"
      },
      {
        "midi": 74,
        "time": 386,
        "duration": 0.5,
        "velocity": 0.71,
        "hand": "right"
      },
      {
        "midi": 69,
        "time": 386.25,
        "duration": 0.333,
        "velocity": 0.26,
        "hand": "right"
      },
      {
        "midi": 73,
        "time": 386.5,
        "duration": 0.5,
        "velocity": 0.71,
        "hand": "right"
      },
      {
        "midi": 69,
        "time": 386.75,
        "duration": 0.333,
        "velocity": 0.26,
        "hand": "right"
      },
      {
        "midi": 73,
        "time": 387,
        "duration": 0.5,
        "velocity": 0.71,
        "hand": "right"
      },
      {
        "midi": 68,
        "time": 387.25,
        "duration": 0.333,
        "velocity": 0.26,
        "hand": "right"
      },
      {
        "midi": 71,
        "time": 387.5,
        "duration": 0.5,
        "velocity": 0.71,
        "hand": "right"
      },
      {
        "midi": 68,
        "time": 387.75,
        "duration": 0.333,
        "velocity": 0.26,
        "hand": "right"
      },
      {
        "midi": 69,
        "time": 388,
        "duration": 0.5,
        "velocity": 0.71,
        "hand": "right"
      },
      {
        "midi": 64,
        "time": 388.25,
        "duration": 0.333,
        "velocity": 0.26,
        "hand": "right"
      },
      {
        "midi": 73,
        "time": 388.5,
        "duration": 1.5,
        "velocity": 0.71,
        "hand": "right"
      },
      {
        "midi": 69,
        "time": 388.75,
        "duration": 0.333,
        "velocity": 0.26,
        "hand": "right"
      },
      {
        "midi": 61,
        "time": 389,
        "duration": 0.333,
        "velocity": 0.26,
        "hand": "right"
      },
      {
        "midi": 69,
        "time": 389.25,
        "duration": 0.333,
        "velocity": 0.26,
        "hand": "right"
      },
      {
        "midi": 61,
        "time": 389.5,
        "duration": 0.333,
        "velocity": 0.26,
        "hand": "right"
      },
      {
        "midi": 69,
        "time": 389.75,
        "duration": 0.333,
        "velocity": 0.26,
        "hand": "right"
      },
      {
        "midi": 76,
        "time": 390,
        "duration": 0.5,
        "velocity": 0.71,
        "hand": "right"
      },
      {
        "midi": 69,
        "time": 390.25,
        "duration": 0.333,
        "velocity": 0.26,
        "hand": "right"
      },
      {
        "midi": 76,
        "time": 390.5,
        "duration": 0.5,
        "velocity": 0.71,
        "hand": "right"
      },
      {
        "midi": 69,
        "time": 390.75,
        "duration": 0.333,
        "velocity": 0.26,
        "hand": "right"
      },
      {
        "midi": 76,
        "time": 391,
        "duration": 0.5,
        "velocity": 0.71,
        "hand": "right"
      },
      {
        "midi": 69,
        "time": 391.25,
        "duration": 0.333,
        "velocity": 0.26,
        "hand": "right"
      },
      {
        "midi": 76,
        "time": 391.5,
        "duration": 0.5,
        "velocity": 0.71,
        "hand": "right"
      },
      {
        "midi": 69,
        "time": 391.75,
        "duration": 0.333,
        "velocity": 0.26,
        "hand": "right"
      },
      {
        "midi": 74,
        "time": 392,
        "duration": 0.5,
        "velocity": 0.71,
        "hand": "right"
      },
      {
        "midi": 69,
        "time": 392.25,
        "duration": 0.333,
        "velocity": 0.26,
        "hand": "right"
      },
      {
        "midi": 73,
        "time": 392.5,
        "duration": 0.5,
        "velocity": 0.71,
        "hand": "right"
      },
      {
        "midi": 69,
        "time": 392.75,
        "duration": 0.333,
        "velocity": 0.26,
        "hand": "right"
      },
      {
        "midi": 73,
        "time": 393,
        "duration": 0.5,
        "velocity": 0.71,
        "hand": "right"
      },
      {
        "midi": 68,
        "time": 393.25,
        "duration": 0.333,
        "velocity": 0.26,
        "hand": "right"
      },
      {
        "midi": 71,
        "time": 393.5,
        "duration": 0.5,
        "velocity": 0.71,
        "hand": "right"
      },
      {
        "midi": 68,
        "time": 393.75,
        "duration": 0.333,
        "velocity": 0.26,
        "hand": "right"
      },
      {
        "midi": 69,
        "time": 394,
        "duration": 0.5,
        "velocity": 0.71,
        "hand": "right"
      },
      {
        "midi": 66,
        "time": 394.25,
        "duration": 0.333,
        "velocity": 0.26,
        "hand": "right"
      },
      {
        "midi": 73,
        "time": 394.5,
        "duration": 1.5,
        "velocity": 0.93,
        "hand": "right"
      },
      {
        "midi": 68,
        "time": 394.75,
        "duration": 0.333,
        "velocity": 0.26,
        "hand": "right"
      },
      {
        "midi": 61,
        "time": 395,
        "duration": 0.333,
        "velocity": 0.26,
        "hand": "right"
      },
      {
        "midi": 68,
        "time": 395.25,
        "duration": 0.333,
        "velocity": 0.26,
        "hand": "right"
      },
      {
        "midi": 61,
        "time": 395.5,
        "duration": 0.333,
        "velocity": 0.26,
        "hand": "right"
      },
      {
        "midi": 68,
        "time": 395.75,
        "duration": 0.333,
        "velocity": 0.26,
        "hand": "right"
      },
      {
        "midi": 73,
        "time": 396,
        "duration": 0.5,
        "velocity": 0.93,
        "hand": "right"
      },
      {
        "midi": 68,
        "time": 396.25,
        "duration": 0.333,
        "velocity": 0.26,
        "hand": "right"
      },
      {
        "midi": 71,
        "time": 396.5,
        "duration": 0.5,
        "velocity": 0.93,
        "hand": "right"
      },
      {
        "midi": 68,
        "time": 396.75,
        "duration": 0.333,
        "velocity": 0.26,
        "hand": "right"
      },
      {
        "midi": 69,
        "time": 397,
        "duration": 0.5,
        "velocity": 0.93,
        "hand": "right"
      },
      {
        "midi": 64,
        "time": 397.25,
        "duration": 0.333,
        "velocity": 0.26,
        "hand": "right"
      },
      {
        "midi": 73,
        "time": 397.5,
        "duration": 1.5,
        "velocity": 0.93,
        "hand": "right"
      },
      {
        "midi": 69,
        "time": 397.75,
        "duration": 0.333,
        "velocity": 0.71,
        "hand": "right"
      },
      {
        "midi": 61,
        "time": 398,
        "duration": 0.333,
        "velocity": 0.71,
        "hand": "right"
      },
      {
        "midi": 69,
        "time": 398.25,
        "duration": 0.333,
        "velocity": 0.71,
        "hand": "right"
      },
      {
        "midi": 61,
        "time": 398.5,
        "duration": 0.333,
        "velocity": 0.71,
        "hand": "right"
      },
      {
        "midi": 69,
        "time": 398.75,
        "duration": 0.5,
        "velocity": 0.71,
        "hand": "right"
      },
      {
        "midi": 73,
        "time": 399,
        "duration": 2,
        "velocity": 0.93,
        "hand": "right"
      },
      {
        "midi": 69,
        "time": 399.25,
        "duration": 0.5,
        "velocity": 0.71,
        "hand": "right"
      },
      {
        "midi": 61,
        "time": 399.5,
        "duration": 0.333,
        "velocity": 0.71,
        "hand": "right"
      },
      {
        "midi": 69,
        "time": 399.75,
        "duration": 0.5,
        "velocity": 0.71,
        "hand": "right"
      },
      {
        "midi": 61,
        "time": 400,
        "duration": 0.333,
        "velocity": 0.71,
        "hand": "right"
      },
      {
        "midi": 69,
        "time": 400.25,
        "duration": 0.333,
        "velocity": 0.71,
        "hand": "right"
      },
      {
        "midi": 69,
        "time": 400.5,
        "duration": 0.5,
        "velocity": 0.71,
        "hand": "right"
      },
      {
        "midi": 76,
        "time": 401,
        "duration": 0.333,
        "velocity": 0.71,
        "hand": "right"
      },
      {
        "midi": 93,
        "time": 401.25,
        "duration": 0.333,
        "velocity": 0.71,
        "hand": "right"
      },
      {
        "midi": 81,
        "time": 401.5,
        "duration": 0.333,
        "velocity": 0.71,
        "hand": "right"
      },
      {
        "midi": 69,
        "time": 401.75,
        "duration": 0.333,
        "velocity": 0.71,
        "hand": "right"
      },
      {
        "midi": 70,
        "time": 402,
        "duration": 0.333,
        "velocity": 0.54,
        "hand": "right"
      },
      {
        "midi": 70,
        "time": 402.5,
        "duration": 0.5,
        "velocity": 0.48,
        "hand": "right"
      },
      {
        "midi": 74,
        "time": 403,
        "duration": 0.5,
        "velocity": 0.48,
        "hand": "right"
      },
      {
        "midi": 73,
        "time": 403.5,
        "duration": 0.5,
        "velocity": 0.48,
        "hand": "right"
      },
      {
        "midi": 67,
        "time": 404,
        "duration": 0.5,
        "velocity": 0.48,
        "hand": "right"
      },
      {
        "midi": 70,
        "time": 404.5,
        "duration": 0.5,
        "velocity": 0.48,
        "hand": "right"
      },
      {
        "midi": 69,
        "time": 405,
        "duration": 0.5,
        "velocity": 0.48,
        "hand": "right"
      },
      {
        "midi": 70,
        "time": 405.5,
        "duration": 0.5,
        "velocity": 0.48,
        "hand": "right"
      },
      {
        "midi": 74,
        "time": 406,
        "duration": 0.5,
        "velocity": 0.48,
        "hand": "right"
      },
      {
        "midi": 73,
        "time": 406.5,
        "duration": 0.5,
        "velocity": 0.48,
        "hand": "right"
      },
      {
        "midi": 67,
        "time": 407,
        "duration": 0.5,
        "velocity": 0.48,
        "hand": "right"
      },
      {
        "midi": 70,
        "time": 407.5,
        "duration": 0.5,
        "velocity": 0.48,
        "hand": "right"
      },
      {
        "midi": 61,
        "time": 408,
        "duration": 0.5,
        "velocity": 0.71,
        "hand": "right"
      },
      {
        "midi": 69,
        "time": 408.5,
        "duration": 0.333,
        "velocity": 0.71,
        "hand": "right"
      },
      {
        "midi": 70,
        "time": 408.75,
        "duration": 0.333,
        "velocity": 0.71,
        "hand": "right"
      },
      {
        "midi": 69,
        "time": 409,
        "duration": 0.333,
        "velocity": 0.71,
        "hand": "right"
      },
      {
        "midi": 70,
        "time": 409.25,
        "duration": 0.333,
        "velocity": 0.71,
        "hand": "right"
      },
      {
        "midi": 72,
        "time": 409.5,
        "duration": 0.5,
        "velocity": 0.71,
        "hand": "right"
      },
      {
        "midi": 72,
        "time": 410,
        "duration": 0.5,
        "velocity": 0.71,
        "hand": "right"
      },
      {
        "midi": 72,
        "time": 410.5,
        "duration": 0.5,
        "velocity": 0.71,
        "hand": "right"
      },
      {
        "midi": 72,
        "time": 411,
        "duration": 0.5,
        "velocity": 0.71,
        "hand": "right"
      },
      {
        "midi": 70,
        "time": 411.5,
        "duration": 0.333,
        "velocity": 0.71,
        "hand": "right"
      },
      {
        "midi": 69,
        "time": 411.75,
        "duration": 0.333,
        "velocity": 0.71,
        "hand": "right"
      },
      {
        "midi": 67,
        "time": 412,
        "duration": 0.333,
        "velocity": 0.71,
        "hand": "right"
      },
      {
        "midi": 69,
        "time": 412.25,
        "duration": 0.333,
        "velocity": 0.71,
        "hand": "right"
      },
      {
        "midi": 65,
        "time": 412.5,
        "duration": 0.5,
        "velocity": 0.71,
        "hand": "right"
      },
      {
        "midi": 49,
        "time": 413,
        "duration": 0.5,
        "velocity": 0.71,
        "hand": "right"
      },
      {
        "midi": 53,
        "time": 413.5,
        "duration": 0.5,
        "velocity": 0.71,
        "hand": "right"
      },
      {
        "midi": 60,
        "time": 414,
        "duration": 0.5,
        "velocity": 0.71,
        "hand": "right"
      },
      {
        "midi": 61,
        "time": 414.5,
        "duration": 0.5,
        "velocity": 0.71,
        "hand": "right"
      },
      {
        "midi": 65,
        "time": 415,
        "duration": 0.5,
        "velocity": 0.71,
        "hand": "right"
      },
      {
        "midi": 72,
        "time": 415.5,
        "duration": 0.5,
        "velocity": 0.71,
        "hand": "right"
      },
      {
        "midi": 73,
        "time": 416,
        "duration": 0.5,
        "velocity": 0.71,
        "hand": "right"
      },
      {
        "midi": 77,
        "time": 416.5,
        "duration": 0.5,
        "velocity": 0.71,
        "hand": "right"
      },
      {
        "midi": 76,
        "time": 417,
        "duration": 0.5,
        "velocity": 0.71,
        "hand": "right"
      },
      {
        "midi": 70,
        "time": 417.5,
        "duration": 0.5,
        "velocity": 0.71,
        "hand": "right"
      },
      {
        "midi": 73,
        "time": 418,
        "duration": 0.5,
        "velocity": 0.71,
        "hand": "right"
      },
      {
        "midi": 64,
        "time": 418.5,
        "duration": 0.5,
        "velocity": 0.71,
        "hand": "right"
      },
      {
        "midi": 72,
        "time": 419,
        "duration": 0.333,
        "velocity": 0.71,
        "hand": "right"
      },
      {
        "midi": 73,
        "time": 419.25,
        "duration": 0.333,
        "velocity": 0.71,
        "hand": "right"
      },
      {
        "midi": 72,
        "time": 419.5,
        "duration": 0.333,
        "velocity": 0.71,
        "hand": "right"
      },
      {
        "midi": 73,
        "time": 419.75,
        "duration": 0.333,
        "velocity": 0.71,
        "hand": "right"
      },
      {
        "midi": 75,
        "time": 420,
        "duration": 0.5,
        "velocity": 0.71,
        "hand": "right"
      },
      {
        "midi": 75,
        "time": 420.5,
        "duration": 0.5,
        "velocity": 0.71,
        "hand": "right"
      },
      {
        "midi": 75,
        "time": 421,
        "duration": 0.5,
        "velocity": 0.71,
        "hand": "right"
      },
      {
        "midi": 75,
        "time": 421.5,
        "duration": 0.5,
        "velocity": 0.71,
        "hand": "right"
      },
      {
        "midi": 73,
        "time": 422,
        "duration": 0.333,
        "velocity": 0.71,
        "hand": "right"
      },
      {
        "midi": 72,
        "time": 422.25,
        "duration": 0.333,
        "velocity": 0.71,
        "hand": "right"
      },
      {
        "midi": 70,
        "time": 422.5,
        "duration": 0.333,
        "velocity": 0.71,
        "hand": "right"
      },
      {
        "midi": 72,
        "time": 422.75,
        "duration": 0.333,
        "velocity": 0.71,
        "hand": "right"
      },
      {
        "midi": 68,
        "time": 423,
        "duration": 0.5,
        "velocity": 0.71,
        "hand": "right"
      },
      {
        "midi": 52,
        "time": 423.5,
        "duration": 0.5,
        "velocity": 0.71,
        "hand": "right"
      },
      {
        "midi": 56,
        "time": 424,
        "duration": 0.5,
        "velocity": 0.71,
        "hand": "right"
      },
      {
        "midi": 63,
        "time": 424.5,
        "duration": 0.5,
        "velocity": 0.71,
        "hand": "right"
      },
      {
        "midi": 64,
        "time": 425,
        "duration": 0.5,
        "velocity": 0.71,
        "hand": "right"
      },
      {
        "midi": 68,
        "time": 425.5,
        "duration": 0.5,
        "velocity": 0.71,
        "hand": "right"
      },
      {
        "midi": 75,
        "time": 426,
        "duration": 0.5,
        "velocity": 0.71,
        "hand": "right"
      },
      {
        "midi": 76,
        "time": 426.5,
        "duration": 0.5,
        "velocity": 0.71,
        "hand": "right"
      },
      {
        "midi": 80,
        "time": 427,
        "duration": 0.5,
        "velocity": 0.71,
        "hand": "right"
      },
      {
        "midi": 79,
        "time": 427.5,
        "duration": 0.5,
        "velocity": 0.71,
        "hand": "right"
      },
      {
        "midi": 73,
        "time": 428,
        "duration": 0.5,
        "velocity": 0.71,
        "hand": "right"
      },
      {
        "midi": 76,
        "time": 428.5,
        "duration": 0.5,
        "velocity": 0.71,
        "hand": "right"
      },
      {
        "midi": 67,
        "time": 429,
        "duration": 0.5,
        "velocity": 0.71,
        "hand": "right"
      },
      {
        "midi": 75,
        "time": 429.5,
        "duration": 0.333,
        "velocity": 0.71,
        "hand": "right"
      },
      {
        "midi": 76,
        "time": 429.75,
        "duration": 0.333,
        "velocity": 0.71,
        "hand": "right"
      },
      {
        "midi": 75,
        "time": 430,
        "duration": 0.333,
        "velocity": 0.71,
        "hand": "right"
      },
      {
        "midi": 76,
        "time": 430.25,
        "duration": 0.333,
        "velocity": 0.71,
        "hand": "right"
      },
      {
        "midi": 78,
        "time": 430.5,
        "duration": 0.5,
        "velocity": 0.71,
        "hand": "right"
      },
      {
        "midi": 78,
        "time": 431,
        "duration": 0.5,
        "velocity": 0.71,
        "hand": "right"
      },
      {
        "midi": 78,
        "time": 431.5,
        "duration": 0.5,
        "velocity": 0.71,
        "hand": "right"
      },
      {
        "midi": 78,
        "time": 432,
        "duration": 0.5,
        "velocity": 0.71,
        "hand": "right"
      },
      {
        "midi": 77,
        "time": 432.5,
        "duration": 0.333,
        "velocity": 0.71,
        "hand": "right"
      },
      {
        "midi": 72,
        "time": 432.75,
        "duration": 0.333,
        "velocity": 0.71,
        "hand": "right"
      },
      {
        "midi": 75,
        "time": 433,
        "duration": 0.333,
        "velocity": 0.71,
        "hand": "right"
      },
      {
        "midi": 73,
        "time": 433.25,
        "duration": 0.333,
        "velocity": 0.71,
        "hand": "right"
      },
      {
        "midi": 70,
        "time": 433.5,
        "duration": 0.5,
        "velocity": 0.71,
        "hand": "right"
      },
      {
        "midi": 61,
        "time": 434,
        "duration": 0.5,
        "velocity": 0.71,
        "hand": "right"
      },
      {
        "midi": 44,
        "time": 434.5,
        "duration": 0.5,
        "velocity": 0.71,
        "hand": "right"
      },
      {
        "midi": 42,
        "time": 435,
        "duration": 0.5,
        "velocity": 0.71,
        "hand": "right"
      },
      {
        "midi": 73,
        "time": 435.5,
        "duration": 0.333,
        "velocity": 0.71,
        "hand": "right"
      },
      {
        "midi": 75,
        "time": 435.75,
        "duration": 0.333,
        "velocity": 0.71,
        "hand": "right"
      },
      {
        "midi": 73,
        "time": 436,
        "duration": 0.333,
        "velocity": 0.71,
        "hand": "right"
      },
      {
        "midi": 75,
        "time": 436.25,
        "duration": 0.333,
        "velocity": 0.71,
        "hand": "right"
      },
      {
        "midi": 77,
        "time": 436.5,
        "duration": 0.5,
        "velocity": 0.71,
        "hand": "right"
      },
      {
        "midi": 77,
        "time": 437,
        "duration": 0.5,
        "velocity": 0.71,
        "hand": "right"
      },
      {
        "midi": 77,
        "time": 437.5,
        "duration": 0.5,
        "velocity": 0.71,
        "hand": "right"
      },
      {
        "midi": 77,
        "time": 438,
        "duration": 0.5,
        "velocity": 0.71,
        "hand": "right"
      },
      {
        "midi": 75,
        "time": 438.5,
        "duration": 0.333,
        "velocity": 0.71,
        "hand": "right"
      },
      {
        "midi": 70,
        "time": 438.75,
        "duration": 0.333,
        "velocity": 0.71,
        "hand": "right"
      },
      {
        "midi": 73,
        "time": 439,
        "duration": 0.333,
        "velocity": 0.71,
        "hand": "right"
      },
      {
        "midi": 72,
        "time": 439.25,
        "duration": 0.333,
        "velocity": 0.71,
        "hand": "right"
      },
      {
        "midi": 69,
        "time": 439.5,
        "duration": 0.5,
        "velocity": 0.71,
        "hand": "right"
      },
      {
        "midi": 72,
        "time": 440,
        "duration": 0.5,
        "velocity": 0.71,
        "hand": "right"
      },
      {
        "midi": 77,
        "time": 440.5,
        "duration": 0.5,
        "velocity": 0.71,
        "hand": "right"
      },
      {
        "midi": 76,
        "time": 441,
        "duration": 0.5,
        "velocity": 0.71,
        "hand": "right"
      },
      {
        "midi": 70,
        "time": 441.5,
        "duration": 0.5,
        "velocity": 0.71,
        "hand": "right"
      },
      {
        "midi": 73,
        "time": 442,
        "duration": 0.5,
        "velocity": 0.71,
        "hand": "right"
      },
      {
        "midi": 41,
        "time": 442.5,
        "duration": 0.5,
        "velocity": 0.71,
        "hand": "right"
      },
      {
        "midi": 72,
        "time": 443,
        "duration": 0.5,
        "velocity": 0.71,
        "hand": "right"
      },
      {
        "midi": 77,
        "time": 443.5,
        "duration": 0.75,
        "velocity": 0.71,
        "hand": "right"
      },
      {
        "midi": 53,
        "time": 444,
        "duration": 0.5,
        "velocity": 0.71,
        "hand": "right"
      },
      {
        "midi": 76,
        "time": 444.25,
        "duration": 0.333,
        "velocity": 0.71,
        "hand": "right"
      },
      {
        "midi": 70,
        "time": 444.5,
        "duration": 0.333,
        "velocity": 0.71,
        "hand": "right"
      },
      {
        "midi": 72,
        "time": 444.75,
        "duration": 0.333,
        "velocity": 0.71,
        "hand": "right"
      },
      {
        "midi": 75,
        "time": 445,
        "duration": 0.333,
        "velocity": 0.71,
        "hand": "right"
      },
      {
        "midi": 73,
        "time": 445.25,
        "duration": 0.333,
        "velocity": 0.71,
        "hand": "right"
      },
      {
        "midi": 41,
        "time": 445.5,
        "duration": 0.5,
        "velocity": 0.71,
        "hand": "right"
      },
      {
        "midi": 72,
        "time": 446,
        "duration": 0.333,
        "velocity": 0.71,
        "hand": "right"
      },
      {
        "midi": 73,
        "time": 446.25,
        "duration": 0.333,
        "velocity": 0.71,
        "hand": "right"
      },
      {
        "midi": 72,
        "time": 446.5,
        "duration": 0.333,
        "velocity": 0.71,
        "hand": "right"
      },
      {
        "midi": 73,
        "time": 446.75,
        "duration": 0.333,
        "velocity": 0.71,
        "hand": "right"
      },
      {
        "midi": 75,
        "time": 447,
        "duration": 0.5,
        "velocity": 0.71,
        "hand": "right"
      },
      {
        "midi": 75,
        "time": 447.5,
        "duration": 0.5,
        "velocity": 0.71,
        "hand": "right"
      },
      {
        "midi": 75,
        "time": 448,
        "duration": 0.5,
        "velocity": 0.71,
        "hand": "right"
      },
      {
        "midi": 75,
        "time": 448.5,
        "duration": 0.5,
        "velocity": 0.71,
        "hand": "right"
      },
      {
        "midi": 77,
        "time": 449,
        "duration": 0.333,
        "velocity": 0.71,
        "hand": "right"
      },
      {
        "midi": 72,
        "time": 449.25,
        "duration": 0.333,
        "velocity": 0.71,
        "hand": "right"
      },
      {
        "midi": 75,
        "time": 449.5,
        "duration": 0.333,
        "velocity": 0.71,
        "hand": "right"
      },
      {
        "midi": 73,
        "time": 449.75,
        "duration": 0.333,
        "velocity": 0.71,
        "hand": "right"
      },
      {
        "midi": 70,
        "time": 450,
        "duration": 1.5,
        "velocity": 0.71,
        "hand": "right"
      },
      {
        "midi": 65,
        "time": 450.5,
        "duration": 0.5,
        "velocity": 0.71,
        "hand": "right"
      },
      {
        "midi": 61,
        "time": 451,
        "duration": 0.5,
        "velocity": 0.71,
        "hand": "right"
      },
      {
        "midi": 67,
        "time": 451.5,
        "duration": 1,
        "velocity": 0.71,
        "hand": "right"
      },
      {
        "midi": 64,
        "time": 452,
        "duration": 0.5,
        "velocity": 0.71,
        "hand": "right"
      },
      {
        "midi": 60,
        "time": 452.5,
        "duration": 0.5,
        "velocity": 0.71,
        "hand": "right"
      },
      {
        "midi": 41,
        "time": 453,
        "duration": 0.333,
        "velocity": 0.71,
        "hand": "right"
      },
      {
        "midi": 48,
        "time": 453.25,
        "duration": 0.333,
        "velocity": 0.71,
        "hand": "right"
      },
      {
        "midi": 72,
        "time": 453.5,
        "duration": 0.5,
        "velocity": 0.71,
        "hand": "right"
      },
      {
        "midi": 53,
        "time": 453.75,
        "duration": 0.333,
        "velocity": 0.71,
        "hand": "right"
      },
      {
        "midi": 77,
        "time": 454,
        "duration": 0.75,
        "velocity": 0.71,
        "hand": "right"
      },
      {
        "midi": 68,
        "time": 454.25,
        "duration": 0.333,
        "velocity": 0.71,
        "hand": "right"
      },
      {
        "midi": 41,
        "time": 454.5,
        "duration": 0.333,
        "velocity": 0.71,
        "hand": "right"
      },
      {
        "midi": 76,
        "time": 454.75,
        "duration": 0.333,
        "velocity": 0.71,
        "hand": "right"
      },
      {
        "midi": 70,
        "time": 455,
        "duration": 0.333,
        "velocity": 0.71,
        "hand": "right"
      },
      {
        "midi": 71,
        "time": 455.25,
        "duration": 0.333,
        "velocity": 0.71,
        "hand": "right"
      },
      {
        "midi": 72,
        "time": 455.5,
        "duration": 0.333,
        "velocity": 0.71,
        "hand": "right"
      },
      {
        "midi": 75,
        "time": 455.75,
        "duration": 0.333,
        "velocity": 0.71,
        "hand": "right"
      },
      {
        "midi": 41,
        "time": 456,
        "duration": 0.333,
        "velocity": 0.71,
        "hand": "right"
      },
      {
        "midi": 72,
        "time": 456.25,
        "duration": 0.333,
        "velocity": 0.71,
        "hand": "right"
      },
      {
        "midi": 73,
        "time": 456.5,
        "duration": 0.333,
        "velocity": 0.71,
        "hand": "right"
      },
      {
        "midi": 72,
        "time": 456.75,
        "duration": 0.333,
        "velocity": 0.71,
        "hand": "right"
      },
      {
        "midi": 80,
        "time": 457,
        "duration": 0.333,
        "velocity": 0.71,
        "hand": "right"
      },
      {
        "midi": 79,
        "time": 457.25,
        "duration": 0.333,
        "velocity": 0.71,
        "hand": "right"
      },
      {
        "midi": 77,
        "time": 457.5,
        "duration": 0.333,
        "velocity": 0.71,
        "hand": "right"
      },
      {
        "midi": 76,
        "time": 457.75,
        "duration": 0.333,
        "velocity": 0.71,
        "hand": "right"
      },
      {
        "midi": 55,
        "time": 458,
        "duration": 0.333,
        "velocity": 0.71,
        "hand": "right"
      },
      {
        "midi": 70,
        "time": 458.25,
        "duration": 0.333,
        "velocity": 0.71,
        "hand": "right"
      },
      {
        "midi": 72,
        "time": 458.5,
        "duration": 0.333,
        "velocity": 0.71,
        "hand": "right"
      },
      {
        "midi": 75,
        "time": 458.75,
        "duration": 0.333,
        "velocity": 0.71,
        "hand": "right"
      },
      {
        "midi": 41,
        "time": 459,
        "duration": 0.333,
        "velocity": 0.71,
        "hand": "right"
      },
      {
        "midi": 48,
        "time": 459.25,
        "duration": 0.333,
        "velocity": 0.71,
        "hand": "right"
      },
      {
        "midi": 72,
        "time": 459.5,
        "duration": 0.333,
        "velocity": 0.71,
        "hand": "right"
      },
      {
        "midi": 73,
        "time": 459.75,
        "duration": 0.333,
        "velocity": 0.71,
        "hand": "right"
      },
      {
        "midi": 71,
        "time": 460,
        "duration": 0.333,
        "velocity": 0.71,
        "hand": "right"
      },
      {
        "midi": 73,
        "time": 460.25,
        "duration": 0.333,
        "velocity": 0.71,
        "hand": "right"
      },
      {
        "midi": 74,
        "time": 460.5,
        "duration": 0.333,
        "velocity": 0.71,
        "hand": "right"
      },
      {
        "midi": 84,
        "time": 460.75,
        "duration": 0.333,
        "velocity": 0.71,
        "hand": "right"
      },
      {
        "midi": 82,
        "time": 461,
        "duration": 0.333,
        "velocity": 0.71,
        "hand": "right"
      },
      {
        "midi": 80,
        "time": 461.25,
        "duration": 0.333,
        "velocity": 0.71,
        "hand": "right"
      },
      {
        "midi": 73,
        "time": 461.5,
        "duration": 0.333,
        "velocity": 0.71,
        "hand": "right"
      },
      {
        "midi": 75,
        "time": 461.75,
        "duration": 0.333,
        "velocity": 0.71,
        "hand": "right"
      },
      {
        "midi": 76,
        "time": 462,
        "duration": 0.333,
        "velocity": 0.71,
        "hand": "right"
      },
      {
        "midi": 79,
        "time": 462.25,
        "duration": 0.333,
        "velocity": 0.71,
        "hand": "right"
      },
      {
        "midi": 75,
        "time": 462.5,
        "duration": 0.333,
        "velocity": 0.71,
        "hand": "right"
      },
      {
        "midi": 75,
        "time": 462.75,
        "duration": 0.333,
        "velocity": 0.71,
        "hand": "right"
      },
      {
        "midi": 73,
        "time": 463,
        "duration": 0.333,
        "velocity": 0.71,
        "hand": "right"
      },
      {
        "midi": 70,
        "time": 463.25,
        "duration": 0.333,
        "velocity": 0.71,
        "hand": "right"
      },
      {
        "midi": 68,
        "time": 463.5,
        "duration": 0.5,
        "velocity": 0.71,
        "hand": "right"
      },
      {
        "midi": 51,
        "time": 463.75,
        "duration": 0.333,
        "velocity": 0.71,
        "hand": "right"
      },
      {
        "midi": 60,
        "time": 464,
        "duration": 0.333,
        "velocity": 0.71,
        "hand": "right"
      },
      {
        "midi": 51,
        "time": 464.25,
        "duration": 0.333,
        "velocity": 0.71,
        "hand": "right"
      },
      {
        "midi": 60,
        "time": 464.5,
        "duration": 0.333,
        "velocity": 0.71,
        "hand": "right"
      },
      {
        "midi": 68,
        "time": 464.75,
        "duration": 0.333,
        "velocity": 0.71,
        "hand": "right"
      },
      {
        "midi": 44,
        "time": 465,
        "duration": 0.333,
        "velocity": 0.71,
        "hand": "right"
      },
      {
        "midi": 52,
        "time": 465.25,
        "duration": 0.333,
        "velocity": 0.71,
        "hand": "right"
      },
      {
        "midi": 60,
        "time": 465.5,
        "duration": 0.333,
        "velocity": 0.71,
        "hand": "right"
      },
      {
        "midi": 52,
        "time": 465.75,
        "duration": 0.333,
        "velocity": 0.71,
        "hand": "right"
      },
      {
        "midi": 60,
        "time": 466,
        "duration": 0.333,
        "velocity": 0.71,
        "hand": "right"
      },
      {
        "midi": 68,
        "time": 466.25,
        "duration": 0.333,
        "velocity": 0.71,
        "hand": "right"
      },
      {
        "midi": 32,
        "time": 466.5,
        "duration": 0.333,
        "velocity": 0.71,
        "hand": "right"
      },
      {
        "midi": 51,
        "time": 466.75,
        "duration": 0.333,
        "velocity": 0.71,
        "hand": "right"
      },
      {
        "midi": 75,
        "time": 467,
        "duration": 0.5,
        "velocity": 0.71,
        "hand": "right"
      },
      {
        "midi": 51,
        "time": 467.25,
        "duration": 0.333,
        "velocity": 0.71,
        "hand": "right"
      },
      {
        "midi": 80,
        "time": 467.5,
        "duration": 0.75,
        "velocity": 0.71,
        "hand": "right"
      },
      {
        "midi": 68,
        "time": 467.75,
        "duration": 0.333,
        "velocity": 0.71,
        "hand": "right"
      },
      {
        "midi": 44,
        "time": 468,
        "duration": 0.333,
        "velocity": 0.71,
        "hand": "right"
      },
      {
        "midi": 79,
        "time": 468.25,
        "duration": 0.333,
        "velocity": 0.71,
        "hand": "right"
      },
      {
        "midi": 72,
        "time": 468.5,
        "duration": 0.333,
        "velocity": 0.71,
        "hand": "right"
      },
      {
        "midi": 74,
        "time": 468.75,
        "duration": 0.333,
        "velocity": 0.71,
        "hand": "right"
      },
      {
        "midi": 75,
        "time": 469,
        "duration": 0.333,
        "velocity": 0.71,
        "hand": "right"
      },
      {
        "midi": 78,
        "time": 469.25,
        "duration": 0.333,
        "velocity": 0.71,
        "hand": "right"
      },
      {
        "midi": 44,
        "time": 469.5,
        "duration": 0.333,
        "velocity": 0.71,
        "hand": "right"
      },
      {
        "midi": 75,
        "time": 469.75,
        "duration": 0.333,
        "velocity": 0.71,
        "hand": "right"
      },
      {
        "midi": 77,
        "time": 470,
        "duration": 0.333,
        "velocity": 0.71,
        "hand": "right"
      },
      {
        "midi": 75,
        "time": 470.25,
        "duration": 0.333,
        "velocity": 0.71,
        "hand": "right"
      },
      {
        "midi": 84,
        "time": 470.5,
        "duration": 0.333,
        "velocity": 0.71,
        "hand": "right"
      },
      {
        "midi": 82,
        "time": 470.75,
        "duration": 0.333,
        "velocity": 0.71,
        "hand": "right"
      },
      {
        "midi": 80,
        "time": 471,
        "duration": 0.333,
        "velocity": 0.71,
        "hand": "right"
      },
      {
        "midi": 79,
        "time": 471.25,
        "duration": 0.333,
        "velocity": 0.71,
        "hand": "right"
      },
      {
        "midi": 72,
        "time": 471.5,
        "duration": 0.333,
        "velocity": 0.71,
        "hand": "right"
      },
      {
        "midi": 74,
        "time": 471.75,
        "duration": 0.333,
        "velocity": 0.71,
        "hand": "right"
      },
      {
        "midi": 75,
        "time": 472,
        "duration": 0.333,
        "velocity": 0.71,
        "hand": "right"
      },
      {
        "midi": 78,
        "time": 472.25,
        "duration": 0.333,
        "velocity": 0.71,
        "hand": "right"
      },
      {
        "midi": 44,
        "time": 472.5,
        "duration": 0.333,
        "velocity": 0.71,
        "hand": "right"
      },
      {
        "midi": 51,
        "time": 472.75,
        "duration": 0.333,
        "velocity": 0.71,
        "hand": "right"
      },
      {
        "midi": 75,
        "time": 473,
        "duration": 0.333,
        "velocity": 0.71,
        "hand": "right"
      },
      {
        "midi": 77,
        "time": 473.25,
        "duration": 0.333,
        "velocity": 0.71,
        "hand": "right"
      },
      {
        "midi": 74,
        "time": 473.5,
        "duration": 0.333,
        "velocity": 0.71,
        "hand": "right"
      },
      {
        "midi": 77,
        "time": 473.75,
        "duration": 0.333,
        "velocity": 0.71,
        "hand": "right"
      },
      {
        "midi": 78,
        "time": 474,
        "duration": 0.333,
        "velocity": 0.71,
        "hand": "right"
      },
      {
        "midi": 90,
        "time": 474.25,
        "duration": 0.333,
        "velocity": 0.71,
        "hand": "right"
      },
      {
        "midi": 88,
        "time": 474.5,
        "duration": 0.333,
        "velocity": 0.71,
        "hand": "right"
      },
      {
        "midi": 87,
        "time": 474.75,
        "duration": 0.333,
        "velocity": 0.71,
        "hand": "right"
      },
      {
        "midi": 84,
        "time": 475,
        "duration": 0.333,
        "velocity": 0.71,
        "hand": "right"
      },
      {
        "midi": 82,
        "time": 475.25,
        "duration": 0.333,
        "velocity": 0.71,
        "hand": "right"
      },
      {
        "midi": 78,
        "time": 475.5,
        "duration": 0.333,
        "velocity": 0.71,
        "hand": "right"
      },
      {
        "midi": 77,
        "time": 475.75,
        "duration": 0.333,
        "velocity": 0.71,
        "hand": "right"
      },
      {
        "midi": 75,
        "time": 476,
        "duration": 0.333,
        "velocity": 0.71,
        "hand": "right"
      },
      {
        "midi": 73,
        "time": 476.25,
        "duration": 0.333,
        "velocity": 0.71,
        "hand": "right"
      },
      {
        "midi": 72,
        "time": 476.5,
        "duration": 0.333,
        "velocity": 0.71,
        "hand": "right"
      },
      {
        "midi": 75,
        "time": 476.75,
        "duration": 0.333,
        "velocity": 0.71,
        "hand": "right"
      },
      {
        "midi": 72,
        "time": 477,
        "duration": 0.333,
        "velocity": 0.71,
        "hand": "right"
      },
      {
        "midi": 70,
        "time": 477.25,
        "duration": 0.333,
        "velocity": 0.71,
        "hand": "right"
      },
      {
        "midi": 49,
        "time": 477.5,
        "duration": 0.333,
        "velocity": 0.71,
        "hand": "right"
      },
      {
        "midi": 46,
        "time": 477.75,
        "duration": 0.333,
        "velocity": 0.71,
        "hand": "right"
      },
      {
        "midi": 53,
        "time": 478,
        "duration": 0.333,
        "velocity": 0.71,
        "hand": "right"
      },
      {
        "midi": 61,
        "time": 478.25,
        "duration": 0.333,
        "velocity": 0.71,
        "hand": "right"
      },
      {
        "midi": 42,
        "time": 478.5,
        "duration": 0.333,
        "velocity": 0.71,
        "hand": "right"
      },
      {
        "midi": 49,
        "time": 478.75,
        "duration": 0.333,
        "velocity": 0.71,
        "hand": "right"
      },
      {
        "midi": 73,
        "time": 479,
        "duration": 0.333,
        "velocity": 0.71,
        "hand": "right"
      },
      {
        "midi": 75,
        "time": 479.25,
        "duration": 0.333,
        "velocity": 0.71,
        "hand": "right"
      },
      {
        "midi": 72,
        "time": 479.5,
        "duration": 0.333,
        "velocity": 0.71,
        "hand": "right"
      },
      {
        "midi": 75,
        "time": 479.75,
        "duration": 0.333,
        "velocity": 0.71,
        "hand": "right"
      },
      {
        "midi": 77,
        "time": 480,
        "duration": 0.333,
        "velocity": 0.71,
        "hand": "right"
      },
      {
        "midi": 89,
        "time": 480.25,
        "duration": 0.333,
        "velocity": 0.71,
        "hand": "right"
      },
      {
        "midi": 87,
        "time": 480.5,
        "duration": 0.333,
        "velocity": 0.71,
        "hand": "right"
      },
      {
        "midi": 85,
        "time": 480.75,
        "duration": 0.333,
        "velocity": 0.71,
        "hand": "right"
      },
      {
        "midi": 77,
        "time": 481,
        "duration": 0.333,
        "velocity": 0.71,
        "hand": "right"
      },
      {
        "midi": 75,
        "time": 481.25,
        "duration": 0.333,
        "velocity": 0.71,
        "hand": "right"
      },
      {
        "midi": 71,
        "time": 481.5,
        "duration": 0.5,
        "velocity": 0.71,
        "hand": "right"
      },
      {
        "midi": 47,
        "time": 481.75,
        "duration": 0.333,
        "velocity": 0.71,
        "hand": "right"
      },
      {
        "midi": 71,
        "time": 482,
        "duration": 0.333,
        "velocity": 0.71,
        "hand": "right"
      },
      {
        "midi": 75,
        "time": 482.25,
        "duration": 0.333,
        "velocity": 0.71,
        "hand": "right"
      },
      {
        "midi": 69,
        "time": 482.5,
        "duration": 0.333,
        "velocity": 0.71,
        "hand": "right"
      },
      {
        "midi": 72,
        "time": 482.75,
        "duration": 0.333,
        "velocity": 0.71,
        "hand": "right"
      },
      {
        "midi": 69,
        "time": 483,
        "duration": 0.333,
        "velocity": 0.71,
        "hand": "right"
      },
      {
        "midi": 76,
        "time": 483.25,
        "duration": 0.333,
        "velocity": 0.71,
        "hand": "right"
      },
      {
        "midi": 78,
        "time": 483.5,
        "duration": 0.333,
        "velocity": 0.71,
        "hand": "right"
      },
      {
        "midi": 81,
        "time": 483.75,
        "duration": 0.333,
        "velocity": 0.71,
        "hand": "right"
      },
      {
        "midi": 84,
        "time": 484,
        "duration": 0.333,
        "velocity": 0.71,
        "hand": "right"
      },
      {
        "midi": 89,
        "time": 484.25,
        "duration": 0.333,
        "velocity": 0.71,
        "hand": "right"
      },
      {
        "midi": 88,
        "time": 484.5,
        "duration": 0.333,
        "velocity": 0.71,
        "hand": "right"
      },
      {
        "midi": 87,
        "time": 484.75,
        "duration": 0.333,
        "velocity": 0.71,
        "hand": "right"
      },
      {
        "midi": 85,
        "time": 485,
        "duration": 0.333,
        "velocity": 0.71,
        "hand": "right"
      },
      {
        "midi": 82,
        "time": 485.25,
        "duration": 0.333,
        "velocity": 0.71,
        "hand": "right"
      },
      {
        "midi": 76,
        "time": 485.5,
        "duration": 0.333,
        "velocity": 0.71,
        "hand": "right"
      },
      {
        "midi": 73,
        "time": 485.75,
        "duration": 0.333,
        "velocity": 0.71,
        "hand": "right"
      },
      {
        "midi": 69,
        "time": 486,
        "duration": 0.333,
        "velocity": 0.71,
        "hand": "right"
      },
      {
        "midi": 76,
        "time": 486.25,
        "duration": 0.333,
        "velocity": 0.71,
        "hand": "right"
      },
      {
        "midi": 78,
        "time": 486.5,
        "duration": 0.333,
        "velocity": 0.71,
        "hand": "right"
      },
      {
        "midi": 81,
        "time": 486.75,
        "duration": 0.333,
        "velocity": 0.71,
        "hand": "right"
      },
      {
        "midi": 84,
        "time": 487,
        "duration": 0.333,
        "velocity": 0.71,
        "hand": "right"
      },
      {
        "midi": 101,
        "time": 487.25,
        "duration": 0.333,
        "velocity": 0.71,
        "hand": "right"
      },
      {
        "midi": 100,
        "time": 487.5,
        "duration": 0.333,
        "velocity": 0.71,
        "hand": "right"
      },
      {
        "midi": 99,
        "time": 487.75,
        "duration": 0.333,
        "velocity": 0.71,
        "hand": "right"
      },
      {
        "midi": 97,
        "time": 488,
        "duration": 0.333,
        "velocity": 0.71,
        "hand": "right"
      },
      {
        "midi": 94,
        "time": 488.25,
        "duration": 0.333,
        "velocity": 0.71,
        "hand": "right"
      },
      {
        "midi": 88,
        "time": 488.5,
        "duration": 0.333,
        "velocity": 0.71,
        "hand": "right"
      },
      {
        "midi": 85,
        "time": 488.75,
        "duration": 0.333,
        "velocity": 0.71,
        "hand": "right"
      },
      {
        "midi": 81,
        "time": 489,
        "duration": 0.333,
        "velocity": 0.71,
        "hand": "right"
      },
      {
        "midi": 87,
        "time": 489.25,
        "duration": 0.333,
        "velocity": 0.71,
        "hand": "right"
      },
      {
        "midi": 89,
        "time": 489.5,
        "duration": 0.333,
        "velocity": 0.71,
        "hand": "right"
      },
      {
        "midi": 92,
        "time": 489.75,
        "duration": 0.333,
        "velocity": 0.71,
        "hand": "right"
      },
      {
        "midi": 87,
        "time": 490,
        "duration": 0.333,
        "velocity": 0.71,
        "hand": "right"
      },
      {
        "midi": 84,
        "time": 490.25,
        "duration": 0.333,
        "velocity": 0.71,
        "hand": "right"
      },
      {
        "midi": 78,
        "time": 490.5,
        "duration": 0.333,
        "velocity": 0.71,
        "hand": "right"
      },
      {
        "midi": 75,
        "time": 490.75,
        "duration": 0.333,
        "velocity": 0.71,
        "hand": "right"
      },
      {
        "midi": 69,
        "time": 491,
        "duration": 0.333,
        "velocity": 0.71,
        "hand": "right"
      },
      {
        "midi": 71,
        "time": 491.25,
        "duration": 0.333,
        "velocity": 0.71,
        "hand": "right"
      },
      {
        "midi": 72,
        "time": 491.5,
        "duration": 0.333,
        "velocity": 0.71,
        "hand": "right"
      },
      {
        "midi": 73,
        "time": 491.75,
        "duration": 0.333,
        "velocity": 0.71,
        "hand": "right"
      },
      {
        "midi": 69,
        "time": 492,
        "duration": 0.333,
        "velocity": 0.71,
        "hand": "right"
      },
      {
        "midi": 75,
        "time": 492.25,
        "duration": 0.333,
        "velocity": 0.71,
        "hand": "right"
      },
      {
        "midi": 77,
        "time": 492.5,
        "duration": 0.333,
        "velocity": 0.71,
        "hand": "right"
      },
      {
        "midi": 81,
        "time": 492.75,
        "duration": 0.333,
        "velocity": 0.71,
        "hand": "right"
      },
      {
        "midi": 75,
        "time": 493,
        "duration": 0.333,
        "velocity": 0.71,
        "hand": "right"
      },
      {
        "midi": 72,
        "time": 493.25,
        "duration": 0.333,
        "velocity": 0.71,
        "hand": "right"
      },
      {
        "midi": 66,
        "time": 493.5,
        "duration": 0.333,
        "velocity": 0.71,
        "hand": "right"
      },
      {
        "midi": 63,
        "time": 493.75,
        "duration": 0.333,
        "velocity": 0.71,
        "hand": "right"
      },
      {
        "midi": 57,
        "time": 494,
        "duration": 0.333,
        "velocity": 0.71,
        "hand": "right"
      },
      {
        "midi": 59,
        "time": 494.25,
        "duration": 0.333,
        "velocity": 0.71,
        "hand": "right"
      },
      {
        "midi": 60,
        "time": 494.5,
        "duration": 0.333,
        "velocity": 0.71,
        "hand": "right"
      },
      {
        "midi": 61,
        "time": 494.75,
        "duration": 0.333,
        "velocity": 0.71,
        "hand": "right"
      },
      {
        "midi": 57,
        "time": 495,
        "duration": 0.333,
        "velocity": 0.71,
        "hand": "right"
      },
      {
        "midi": 59,
        "time": 495.25,
        "duration": 0.333,
        "velocity": 0.71,
        "hand": "right"
      },
      {
        "midi": 60,
        "time": 495.5,
        "duration": 0.333,
        "velocity": 0.71,
        "hand": "right"
      },
      {
        "midi": 61,
        "time": 495.75,
        "duration": 0.333,
        "velocity": 0.71,
        "hand": "right"
      },
      {
        "midi": 57,
        "time": 496,
        "duration": 0.333,
        "velocity": 0.71,
        "hand": "right"
      },
      {
        "midi": 59,
        "time": 496.25,
        "duration": 0.333,
        "velocity": 0.71,
        "hand": "right"
      },
      {
        "midi": 60,
        "time": 496.5,
        "duration": 0.333,
        "velocity": 0.71,
        "hand": "right"
      },
      {
        "midi": 61,
        "time": 496.75,
        "duration": 0.333,
        "velocity": 0.71,
        "hand": "right"
      },
      {
        "midi": 57,
        "time": 497,
        "duration": 0.333,
        "velocity": 0.71,
        "hand": "right"
      },
      {
        "midi": 59,
        "time": 497.25,
        "duration": 0.333,
        "velocity": 0.71,
        "hand": "right"
      },
      {
        "midi": 60,
        "time": 497.5,
        "duration": 0.333,
        "velocity": 0.71,
        "hand": "right"
      },
      {
        "midi": 61,
        "time": 497.75,
        "duration": 0.333,
        "velocity": 0.71,
        "hand": "right"
      },
      {
        "midi": 57,
        "time": 498,
        "duration": 0.333,
        "velocity": 0.71,
        "hand": "right"
      },
      {
        "midi": 63,
        "time": 498.25,
        "duration": 0.333,
        "velocity": 0.71,
        "hand": "right"
      },
      {
        "midi": 65,
        "time": 498.5,
        "duration": 0.333,
        "velocity": 0.71,
        "hand": "right"
      },
      {
        "midi": 72,
        "time": 498.75,
        "duration": 0.333,
        "velocity": 0.71,
        "hand": "right"
      },
      {
        "midi": 67,
        "time": 499,
        "duration": 0.333,
        "velocity": 0.71,
        "hand": "right"
      },
      {
        "midi": 66,
        "time": 499.25,
        "duration": 0.333,
        "velocity": 0.71,
        "hand": "right"
      },
      {
        "midi": 64,
        "time": 499.5,
        "duration": 0.333,
        "velocity": 0.71,
        "hand": "right"
      },
      {
        "midi": 63,
        "time": 499.75,
        "duration": 0.333,
        "velocity": 0.71,
        "hand": "right"
      },
      {
        "midi": 61,
        "time": 500,
        "duration": 0.333,
        "velocity": 0.71,
        "hand": "right"
      },
      {
        "midi": 60,
        "time": 500.25,
        "duration": 0.333,
        "velocity": 0.71,
        "hand": "right"
      },
      {
        "midi": 58,
        "time": 500.5,
        "duration": 0.333,
        "velocity": 0.71,
        "hand": "right"
      },
      {
        "midi": 57,
        "time": 500.75,
        "duration": 0.333,
        "velocity": 0.71,
        "hand": "right"
      },
      {
        "midi": 55,
        "time": 501,
        "duration": 0.333,
        "velocity": 0.71,
        "hand": "right"
      },
      {
        "midi": 54,
        "time": 501.25,
        "duration": 0.333,
        "velocity": 0.71,
        "hand": "right"
      },
      {
        "midi": 52,
        "time": 501.5,
        "duration": 0.333,
        "velocity": 0.71,
        "hand": "right"
      },
      {
        "midi": 51,
        "time": 501.75,
        "duration": 0.333,
        "velocity": 0.71,
        "hand": "right"
      },
      {
        "midi": 49,
        "time": 502,
        "duration": 0.333,
        "velocity": 0.71,
        "hand": "right"
      },
      {
        "midi": 48,
        "time": 502.25,
        "duration": 0.333,
        "velocity": 0.71,
        "hand": "right"
      },
      {
        "midi": 46,
        "time": 502.5,
        "duration": 0.333,
        "velocity": 0.71,
        "hand": "right"
      },
      {
        "midi": 45,
        "time": 502.75,
        "duration": 0.333,
        "velocity": 0.71,
        "hand": "right"
      },
      {
        "midi": 43,
        "time": 503,
        "duration": 0.333,
        "velocity": 0.71,
        "hand": "right"
      },
      {
        "midi": 42,
        "time": 503.25,
        "duration": 0.333,
        "velocity": 0.71,
        "hand": "right"
      },
      {
        "midi": 40,
        "time": 503.5,
        "duration": 0.333,
        "velocity": 0.71,
        "hand": "right"
      },
      {
        "midi": 39,
        "time": 503.75,
        "duration": 0.333,
        "velocity": 0.71,
        "hand": "right"
      },
      {
        "midi": 37,
        "time": 504,
        "duration": 0.333,
        "velocity": 0.71,
        "hand": "right"
      },
      {
        "midi": 46,
        "time": 504.25,
        "duration": 0.333,
        "velocity": 0.71,
        "hand": "right"
      },
      {
        "midi": 48,
        "time": 504.5,
        "duration": 0.333,
        "velocity": 0.71,
        "hand": "right"
      },
      {
        "midi": 51,
        "time": 504.75,
        "duration": 0.333,
        "velocity": 0.71,
        "hand": "right"
      },
      {
        "midi": 77,
        "time": 505,
        "duration": 0.5,
        "velocity": 0.71,
        "hand": "right"
      },
      {
        "midi": 56,
        "time": 505.25,
        "duration": 0.333,
        "velocity": 0.71,
        "hand": "right"
      },
      {
        "midi": 77,
        "time": 505.5,
        "duration": 1.5,
        "velocity": 0.71,
        "hand": "right"
      },
      {
        "midi": 58,
        "time": 505.75,
        "duration": 0.333,
        "velocity": 0.71,
        "hand": "right"
      },
      {
        "midi": 60,
        "time": 506,
        "duration": 0.333,
        "velocity": 0.71,
        "hand": "right"
      },
      {
        "midi": 63,
        "time": 506.25,
        "duration": 0.333,
        "velocity": 0.71,
        "hand": "right"
      },
      {
        "midi": 65,
        "time": 506.5,
        "duration": 0.5,
        "velocity": 0.71,
        "hand": "right"
      },
      {
        "midi": 73,
        "time": 507,
        "duration": 1,
        "velocity": 0.71,
        "hand": "right"
      },
      {
        "midi": 46,
        "time": 507.25,
        "duration": 0.333,
        "velocity": 0.71,
        "hand": "right"
      },
      {
        "midi": 48,
        "time": 507.5,
        "duration": 0.333,
        "velocity": 0.71,
        "hand": "right"
      },
      {
        "midi": 51,
        "time": 507.75,
        "duration": 0.333,
        "velocity": 0.71,
        "hand": "right"
      },
      {
        "midi": 70,
        "time": 508,
        "duration": 0.5,
        "velocity": 0.71,
        "hand": "right"
      },
      {
        "midi": 56,
        "time": 508.25,
        "duration": 0.333,
        "velocity": 0.71,
        "hand": "right"
      },
      {
        "midi": 70,
        "time": 508.5,
        "duration": 1,
        "velocity": 0.71,
        "hand": "right"
      },
      {
        "midi": 60,
        "time": 508.75,
        "duration": 0.333,
        "velocity": 0.71,
        "hand": "right"
      },
      {
        "midi": 61,
        "time": 509,
        "duration": 0.333,
        "velocity": 0.71,
        "hand": "right"
      },
      {
        "midi": 65,
        "time": 509.25,
        "duration": 0.333,
        "velocity": 0.71,
        "hand": "right"
      },
      {
        "midi": 68,
        "time": 509.5,
        "duration": 0.5,
        "velocity": 0.71,
        "hand": "right"
      },
      {
        "midi": 68,
        "time": 510,
        "duration": 1,
        "velocity": 0.71,
        "hand": "right"
      },
      {
        "midi": 46,
        "time": 510.25,
        "duration": 0.333,
        "velocity": 0.71,
        "hand": "right"
      },
      {
        "midi": 65,
        "time": 510.5,
        "duration": 0.5,
        "velocity": 0.71,
        "hand": "right"
      },
      {
        "midi": 51,
        "time": 510.75,
        "duration": 0.333,
        "velocity": 0.71,
        "hand": "right"
      },
      {
        "midi": 77,
        "time": 511,
        "duration": 0.5,
        "velocity": 0.71,
        "hand": "right"
      },
      {
        "midi": 56,
        "time": 511.25,
        "duration": 0.333,
        "velocity": 0.71,
        "hand": "right"
      },
      {
        "midi": 73,
        "time": 511.5,
        "duration": 1,
        "velocity": 0.71,
        "hand": "right"
      },
      {
        "midi": 58,
        "time": 511.75,
        "duration": 0.333,
        "velocity": 0.71,
        "hand": "right"
      },
      {
        "midi": 59,
        "time": 512,
        "duration": 0.333,
        "velocity": 0.71,
        "hand": "right"
      },
      {
        "midi": 63,
        "time": 512.25,
        "duration": 0.333,
        "velocity": 0.71,
        "hand": "right"
      },
      {
        "midi": 82,
        "time": 512.5,
        "duration": 0.5,
        "velocity": 0.71,
        "hand": "right"
      },
      {
        "midi": 82,
        "time": 513,
        "duration": 0.5,
        "velocity": 0.71,
        "hand": "right"
      },
      {
        "midi": 49,
        "time": 513.25,
        "duration": 0.333,
        "velocity": 0.71,
        "hand": "right"
      },
      {
        "midi": 80,
        "time": 513.5,
        "duration": 0.5,
        "velocity": 0.71,
        "hand": "right"
      },
      {
        "midi": 61,
        "time": 513.75,
        "duration": 0.333,
        "velocity": 0.71,
        "hand": "right"
      },
      {
        "midi": 79,
        "time": 514,
        "duration": 0.5,
        "velocity": 0.71,
        "hand": "right"
      },
      {
        "midi": 65,
        "time": 514.25,
        "duration": 0.333,
        "velocity": 0.71,
        "hand": "right"
      },
      {
        "midi": 80,
        "time": 514.5,
        "duration": 1.5,
        "velocity": 0.71,
        "hand": "right"
      },
      {
        "midi": 68,
        "time": 514.75,
        "duration": 0.333,
        "velocity": 0.71,
        "hand": "right"
      },
      {
        "midi": 61,
        "time": 515,
        "duration": 0.333,
        "velocity": 0.71,
        "hand": "right"
      },
      {
        "midi": 56,
        "time": 515.25,
        "duration": 0.333,
        "velocity": 0.71,
        "hand": "right"
      },
      {
        "midi": 49,
        "time": 515.5,
        "duration": 0.333,
        "velocity": 0.71,
        "hand": "right"
      },
      {
        "midi": 56,
        "time": 515.75,
        "duration": 0.333,
        "velocity": 0.71,
        "hand": "right"
      },
      {
        "midi": 80,
        "time": 516,
        "duration": 1,
        "velocity": 0.71,
        "hand": "right"
      },
      {
        "midi": 49,
        "time": 516.25,
        "duration": 0.333,
        "velocity": 0.71,
        "hand": "right"
      },
      {
        "midi": 56,
        "time": 516.5,
        "duration": 0.333,
        "velocity": 0.71,
        "hand": "right"
      },
      {
        "midi": 49,
        "time": 516.75,
        "duration": 0.333,
        "velocity": 0.71,
        "hand": "right"
      },
      {
        "midi": 73,
        "time": 517,
        "duration": 0.5,
        "velocity": 0.71,
        "hand": "right"
      },
      {
        "midi": 61,
        "time": 517.25,
        "duration": 0.333,
        "velocity": 0.71,
        "hand": "right"
      },
      {
        "midi": 73,
        "time": 517.5,
        "duration": 3,
        "velocity": 0.71,
        "hand": "right"
      },
      {
        "midi": 56,
        "time": 517.75,
        "duration": 0.333,
        "velocity": 0.71,
        "hand": "right"
      },
      {
        "midi": 61,
        "time": 518,
        "duration": 0.333,
        "velocity": 0.71,
        "hand": "right"
      },
      {
        "midi": 68,
        "time": 518.25,
        "duration": 0.333,
        "velocity": 0.71,
        "hand": "right"
      },
      {
        "midi": 56,
        "time": 518.5,
        "duration": 0.333,
        "velocity": 0.71,
        "hand": "right"
      },
      {
        "midi": 56,
        "time": 518.75,
        "duration": 0.333,
        "velocity": 0.71,
        "hand": "right"
      },
      {
        "midi": 61,
        "time": 519,
        "duration": 0.333,
        "velocity": 0.71,
        "hand": "right"
      },
      {
        "midi": 56,
        "time": 519.25,
        "duration": 0.333,
        "velocity": 0.71,
        "hand": "right"
      },
      {
        "midi": 44,
        "time": 519.5,
        "duration": 0.333,
        "velocity": 0.71,
        "hand": "right"
      },
      {
        "midi": 56,
        "time": 519.75,
        "duration": 0.333,
        "velocity": 0.71,
        "hand": "right"
      },
      {
        "midi": 49,
        "time": 520,
        "duration": 0.333,
        "velocity": 0.71,
        "hand": "right"
      },
      {
        "midi": 44,
        "time": 520.25,
        "duration": 0.333,
        "velocity": 0.71,
        "hand": "right"
      },
      {
        "midi": 73,
        "time": 520.5,
        "duration": 1,
        "velocity": 0.71,
        "hand": "right"
      },
      {
        "midi": 49,
        "time": 520.75,
        "duration": 0.333,
        "velocity": 0.71,
        "hand": "right"
      },
      {
        "midi": 61,
        "time": 521,
        "duration": 0.333,
        "velocity": 0.71,
        "hand": "right"
      },
      {
        "midi": 54,
        "time": 521.25,
        "duration": 0.333,
        "velocity": 0.71,
        "hand": "right"
      },
      {
        "midi": 78,
        "time": 521.5,
        "duration": 0.5,
        "velocity": 0.71,
        "hand": "right"
      },
      {
        "midi": 54,
        "time": 521.75,
        "duration": 0.333,
        "velocity": 0.71,
        "hand": "right"
      },
      {
        "midi": 78,
        "time": 522,
        "duration": 0.333,
        "velocity": 0.71,
        "hand": "right"
      },
      {
        "midi": 70,
        "time": 522.25,
        "duration": 0.333,
        "velocity": 0.71,
        "hand": "right"
      },
      {
        "midi": 58,
        "time": 522.5,
        "duration": 0.333,
        "velocity": 0.71,
        "hand": "right"
      },
      {
        "midi": 70,
        "time": 522.75,
        "duration": 0.333,
        "velocity": 0.71,
        "hand": "right"
      },
      {
        "midi": 66,
        "time": 523,
        "duration": 0.333,
        "velocity": 0.71,
        "hand": "right"
      },
      {
        "midi": 72,
        "time": 523.25,
        "duration": 0.333,
        "velocity": 0.71,
        "hand": "right"
      },
      {
        "midi": 66,
        "time": 523.5,
        "duration": 0.333,
        "velocity": 0.71,
        "hand": "right"
      },
      {
        "midi": 70,
        "time": 523.75,
        "duration": 0.333,
        "velocity": 0.71,
        "hand": "right"
      },
      {
        "midi": 73,
        "time": 524,
        "duration": 0.333,
        "velocity": 0.71,
        "hand": "right"
      },
      {
        "midi": 70,
        "time": 524.25,
        "duration": 0.333,
        "velocity": 0.71,
        "hand": "right"
      },
      {
        "midi": 66,
        "time": 524.5,
        "duration": 0.333,
        "velocity": 0.71,
        "hand": "right"
      },
      {
        "midi": 78,
        "time": 524.75,
        "duration": 0.333,
        "velocity": 0.71,
        "hand": "right"
      },
      {
        "midi": 73,
        "time": 525,
        "duration": 0.333,
        "velocity": 0.71,
        "hand": "right"
      },
      {
        "midi": 77,
        "time": 525.25,
        "duration": 0.333,
        "velocity": 0.71,
        "hand": "right"
      },
      {
        "midi": 70,
        "time": 525.5,
        "duration": 0.333,
        "velocity": 0.71,
        "hand": "right"
      },
      {
        "midi": 73,
        "time": 525.75,
        "duration": 0.333,
        "velocity": 0.71,
        "hand": "right"
      },
      {
        "midi": 77,
        "time": 526,
        "duration": 0.333,
        "velocity": 0.71,
        "hand": "right"
      },
      {
        "midi": 72,
        "time": 526.25,
        "duration": 0.333,
        "velocity": 0.71,
        "hand": "right"
      },
      {
        "midi": 66,
        "time": 526.5,
        "duration": 0.333,
        "velocity": 0.71,
        "hand": "right"
      },
      {
        "midi": 75,
        "time": 526.75,
        "duration": 0.333,
        "velocity": 0.71,
        "hand": "right"
      },
      {
        "midi": 72,
        "time": 527,
        "duration": 0.333,
        "velocity": 0.71,
        "hand": "right"
      },
      {
        "midi": 72,
        "time": 527.25,
        "duration": 0.333,
        "velocity": 0.71,
        "hand": "right"
      },
      {
        "midi": 66,
        "time": 527.5,
        "duration": 0.333,
        "velocity": 0.71,
        "hand": "right"
      },
      {
        "midi": 70,
        "time": 527.75,
        "duration": 0.333,
        "velocity": 0.71,
        "hand": "right"
      },
      {
        "midi": 70,
        "time": 528,
        "duration": 0.5,
        "velocity": 0.71,
        "hand": "right"
      },
      {
        "midi": 46,
        "time": 528.25,
        "duration": 0.333,
        "velocity": 0.53,
        "hand": "right"
      },
      {
        "midi": 68,
        "time": 528.5,
        "duration": 0.5,
        "velocity": 0.71,
        "hand": "right"
      },
      {
        "midi": 51,
        "time": 528.75,
        "duration": 0.333,
        "velocity": 0.57,
        "hand": "right"
      },
      {
        "midi": 89,
        "time": 529,
        "duration": 0.5,
        "velocity": 0.71,
        "hand": "right"
      },
      {
        "midi": 56,
        "time": 529.25,
        "duration": 0.333,
        "velocity": 0.61,
        "hand": "right"
      },
      {
        "midi": 89,
        "time": 529.5,
        "duration": 1,
        "velocity": 0.71,
        "hand": "right"
      },
      {
        "midi": 58,
        "time": 529.75,
        "duration": 0.333,
        "velocity": 0.66,
        "hand": "right"
      },
      {
        "midi": 60,
        "time": 530,
        "duration": 0.333,
        "velocity": 0.68,
        "hand": "right"
      },
      {
        "midi": 63,
        "time": 530.25,
        "duration": 0.333,
        "velocity": 0.71,
        "hand": "right"
      },
      {
        "midi": 85,
        "time": 530.5,
        "duration": 0.5,
        "velocity": 0.71,
        "hand": "right"
      },
      {
        "midi": 85,
        "time": 531,
        "duration": 0.5,
        "velocity": 0.71,
        "hand": "right"
      },
      {
        "midi": 46,
        "time": 531.25,
        "duration": 0.333,
        "velocity": 0.75,
        "hand": "right"
      },
      {
        "midi": 65,
        "time": 531.5,
        "duration": 0.5,
        "velocity": 0.71,
        "hand": "right"
      },
      {
        "midi": 51,
        "time": 531.75,
        "duration": 0.333,
        "velocity": 0.8,
        "hand": "right"
      },
      {
        "midi": 82,
        "time": 532,
        "duration": 0.5,
        "velocity": 0.71,
        "hand": "right"
      },
      {
        "midi": 56,
        "time": 532.25,
        "duration": 0.333,
        "velocity": 0.84,
        "hand": "right"
      },
      {
        "midi": 82,
        "time": 532.5,
        "duration": 1,
        "velocity": 0.71,
        "hand": "right"
      },
      {
        "midi": 60,
        "time": 532.75,
        "duration": 0.333,
        "velocity": 0.89,
        "hand": "right"
      },
      {
        "midi": 70,
        "time": 533,
        "duration": 0.5,
        "velocity": 0.71,
        "hand": "right"
      },
      {
        "midi": 65,
        "time": 533.25,
        "duration": 0.333,
        "velocity": 0.93,
        "hand": "right"
      },
      {
        "midi": 80,
        "time": 533.5,
        "duration": 0.5,
        "velocity": 0.71,
        "hand": "right"
      },
      {
        "midi": 80,
        "time": 534,
        "duration": 1,
        "velocity": 0.71,
        "hand": "right"
      },
      {
        "midi": 46,
        "time": 534.25,
        "duration": 0.333,
        "velocity": 0.94,
        "hand": "right"
      },
      {
        "midi": 73,
        "time": 534.5,
        "duration": 0.5,
        "velocity": 0.71,
        "hand": "right"
      },
      {
        "midi": 51,
        "time": 534.75,
        "duration": 0.333,
        "velocity": 0.94,
        "hand": "right"
      },
      {
        "midi": 89,
        "time": 535,
        "duration": 0.5,
        "velocity": 0.71,
        "hand": "right"
      },
      {
        "midi": 56,
        "time": 535.25,
        "duration": 0.333,
        "velocity": 0.94,
        "hand": "right"
      },
      {
        "midi": 85,
        "time": 535.5,
        "duration": 1,
        "velocity": 0.71,
        "hand": "right"
      },
      {
        "midi": 58,
        "time": 535.75,
        "duration": 0.333,
        "velocity": 0.94,
        "hand": "right"
      },
      {
        "midi": 60,
        "time": 536,
        "duration": 0.333,
        "velocity": 0.94,
        "hand": "right"
      },
      {
        "midi": 63,
        "time": 536.25,
        "duration": 0.333,
        "velocity": 0.94,
        "hand": "right"
      },
      {
        "midi": 94,
        "time": 536.5,
        "duration": 0.5,
        "velocity": 0.71,
        "hand": "right"
      },
      {
        "midi": 94,
        "time": 537,
        "duration": 0.5,
        "velocity": 0.71,
        "hand": "right"
      },
      {
        "midi": 51,
        "time": 537.25,
        "duration": 0.333,
        "velocity": 0.94,
        "hand": "right"
      },
      {
        "midi": 92,
        "time": 537.5,
        "duration": 0.5,
        "velocity": 0.71,
        "hand": "right"
      },
      {
        "midi": 56,
        "time": 537.75,
        "duration": 0.333,
        "velocity": 0.94,
        "hand": "right"
      },
      {
        "midi": 91,
        "time": 538,
        "duration": 0.5,
        "velocity": 0.71,
        "hand": "right"
      },
      {
        "midi": 68,
        "time": 538.25,
        "duration": 0.333,
        "velocity": 0.94,
        "hand": "right"
      },
      {
        "midi": 92,
        "time": 538.5,
        "duration": 1,
        "velocity": 0.71,
        "hand": "right"
      },
      {
        "midi": 75,
        "time": 538.75,
        "duration": 0.333,
        "velocity": 0.94,
        "hand": "right"
      },
      {
        "midi": 63,
        "time": 539,
        "duration": 0.333,
        "velocity": 0.94,
        "hand": "right"
      },
      {
        "midi": 60,
        "time": 539.25,
        "duration": 0.333,
        "velocity": 0.94,
        "hand": "right"
      },
      {
        "midi": 80,
        "time": 539.5,
        "duration": 0.5,
        "velocity": 0.71,
        "hand": "right"
      },
      {
        "midi": 48,
        "time": 539.75,
        "duration": 0.333,
        "velocity": 0.94,
        "hand": "right"
      },
      {
        "midi": 80,
        "time": 540,
        "duration": 1,
        "velocity": 0.71,
        "hand": "right"
      },
      {
        "midi": 47,
        "time": 540.5,
        "duration": 0.333,
        "velocity": 0.94,
        "hand": "right"
      },
      {
        "midi": 53,
        "time": 540.75,
        "duration": 0.333,
        "velocity": 0.94,
        "hand": "right"
      },
      {
        "midi": 73,
        "time": 541,
        "duration": 0.5,
        "velocity": 0.71,
        "hand": "right"
      },
      {
        "midi": 53,
        "time": 541.25,
        "duration": 0.333,
        "velocity": 0.94,
        "hand": "right"
      },
      {
        "midi": 73,
        "time": 541.5,
        "duration": 1,
        "velocity": 0.71,
        "hand": "right"
      },
      {
        "midi": 54,
        "time": 541.75,
        "duration": 0.333,
        "velocity": 0.94,
        "hand": "right"
      },
      {
        "midi": 67,
        "time": 542,
        "duration": 0.5,
        "velocity": 0.71,
        "hand": "right"
      },
      {
        "midi": 54,
        "time": 542.25,
        "duration": 0.333,
        "velocity": 0.94,
        "hand": "right"
      },
      {
        "midi": 78,
        "time": 542.5,
        "duration": 0.5,
        "velocity": 0.71,
        "hand": "right"
      },
      {
        "midi": 54,
        "time": 542.75,
        "duration": 0.333,
        "velocity": 0.94,
        "hand": "right"
      },
      {
        "midi": 77,
        "time": 543,
        "duration": 1,
        "velocity": 0.71,
        "hand": "right"
      },
      {
        "midi": 53,
        "time": 543.25,
        "duration": 0.333,
        "velocity": 0.94,
        "hand": "right"
      },
      {
        "midi": 60,
        "time": 543.5,
        "duration": 0.333,
        "velocity": 0.94,
        "hand": "right"
      },
      {
        "midi": 53,
        "time": 543.75,
        "duration": 0.333,
        "velocity": 0.94,
        "hand": "right"
      },
      {
        "midi": 83,
        "time": 544,
        "duration": 0.5,
        "velocity": 0.71,
        "hand": "right"
      },
      {
        "midi": 53,
        "time": 544.25,
        "duration": 0.333,
        "velocity": 0.94,
        "hand": "right"
      },
      {
        "midi": 83,
        "time": 544.5,
        "duration": 1,
        "velocity": 0.71,
        "hand": "right"
      },
      {
        "midi": 54,
        "time": 544.75,
        "duration": 0.333,
        "velocity": 0.94,
        "hand": "right"
      },
      {
        "midi": 63,
        "time": 545,
        "duration": 0.333,
        "velocity": 0.94,
        "hand": "right"
      },
      {
        "midi": 54,
        "time": 545.25,
        "duration": 0.333,
        "velocity": 0.94,
        "hand": "right"
      },
      {
        "midi": 82,
        "time": 545.5,
        "duration": 0.5,
        "velocity": 0.71,
        "hand": "right"
      },
      {
        "midi": 54,
        "time": 545.75,
        "duration": 0.333,
        "velocity": 0.94,
        "hand": "right"
      },
      {
        "midi": 82,
        "time": 546,
        "duration": 1,
        "velocity": 0.71,
        "hand": "right"
      },
      {
        "midi": 51,
        "time": 546.25,
        "duration": 0.333,
        "velocity": 0.94,
        "hand": "right"
      },
      {
        "midi": 57,
        "time": 546.5,
        "duration": 0.333,
        "velocity": 0.94,
        "hand": "right"
      },
      {
        "midi": 51,
        "time": 546.75,
        "duration": 0.333,
        "velocity": 0.94,
        "hand": "right"
      },
      {
        "midi": 75,
        "time": 547,
        "duration": 0.5,
        "velocity": 0.71,
        "hand": "right"
      },
      {
        "midi": 51,
        "time": 547.25,
        "duration": 0.333,
        "velocity": 0.94,
        "hand": "right"
      },
      {
        "midi": 75,
        "time": 547.5,
        "duration": 1,
        "velocity": 0.71,
        "hand": "right"
      },
      {
        "midi": 56,
        "time": 547.75,
        "duration": 0.333,
        "velocity": 0.94,
        "hand": "right"
      },
      {
        "midi": 69,
        "time": 548,
        "duration": 0.5,
        "velocity": 0.71,
        "hand": "right"
      },
      {
        "midi": 56,
        "time": 548.25,
        "duration": 0.333,
        "velocity": 0.94,
        "hand": "right"
      },
      {
        "midi": 80,
        "time": 548.5,
        "duration": 0.5,
        "velocity": 0.71,
        "hand": "right"
      },
      {
        "midi": 56,
        "time": 548.75,
        "duration": 0.333,
        "velocity": 0.94,
        "hand": "right"
      },
      {
        "midi": 80,
        "time": 549,
        "duration": 0.5,
        "velocity": 0.71,
        "hand": "right"
      },
      {
        "midi": 55,
        "time": 549.25,
        "duration": 0.333,
        "velocity": 0.94,
        "hand": "right"
      },
      {
        "midi": 79,
        "time": 549.5,
        "duration": 0.5,
        "velocity": 0.71,
        "hand": "right"
      },
      {
        "midi": 55,
        "time": 549.75,
        "duration": 0.333,
        "velocity": 0.94,
        "hand": "right"
      },
      {
        "midi": 85,
        "time": 550,
        "duration": 0.5,
        "velocity": 0.71,
        "hand": "right"
      },
      {
        "midi": 55,
        "time": 550.25,
        "duration": 0.333,
        "velocity": 0.94,
        "hand": "right"
      },
      {
        "midi": 85,
        "time": 550.5,
        "duration": 1,
        "velocity": 0.71,
        "hand": "right"
      },
      {
        "midi": 56,
        "time": 550.75,
        "duration": 0.333,
        "velocity": 0.94,
        "hand": "right"
      },
      {
        "midi": 63,
        "time": 551,
        "duration": 0.333,
        "velocity": 0.94,
        "hand": "right"
      },
      {
        "midi": 56,
        "time": 551.25,
        "duration": 0.333,
        "velocity": 0.94,
        "hand": "right"
      },
      {
        "midi": 84,
        "time": 551.5,
        "duration": 0.5,
        "velocity": 0.71,
        "hand": "right"
      },
      {
        "midi": 63,
        "time": 551.75,
        "duration": 0.333,
        "velocity": 0.94,
        "hand": "right"
      },
      {
        "midi": 84,
        "time": 552,
        "duration": 0.5,
        "velocity": 0.71,
        "hand": "right"
      },
      {
        "midi": 54,
        "time": 552.25,
        "duration": 0.333,
        "velocity": 0.94,
        "hand": "right"
      },
      {
        "midi": 82,
        "time": 552.5,
        "duration": 0.5,
        "velocity": 0.71,
        "hand": "right"
      },
      {
        "midi": 54,
        "time": 552.75,
        "duration": 0.333,
        "velocity": 0.94,
        "hand": "right"
      },
      {
        "midi": 78,
        "time": 553,
        "duration": 0.5,
        "velocity": 0.71,
        "hand": "right"
      },
      {
        "midi": 54,
        "time": 553.25,
        "duration": 0.333,
        "velocity": 0.94,
        "hand": "right"
      },
      {
        "midi": 73,
        "time": 553.5,
        "duration": 0.5,
        "velocity": 0.71,
        "hand": "right"
      },
      {
        "midi": 42,
        "time": 553.75,
        "duration": 0.333,
        "velocity": 0.94,
        "hand": "right"
      },
      {
        "midi": 70,
        "time": 554,
        "duration": 0.75,
        "velocity": 0.71,
        "hand": "right"
      },
      {
        "midi": 49,
        "time": 554.25,
        "duration": 0.333,
        "velocity": 0.94,
        "hand": "right"
      },
      {
        "midi": 42,
        "time": 554.5,
        "duration": 0.333,
        "velocity": 0.94,
        "hand": "right"
      },
      {
        "midi": 68,
        "time": 554.75,
        "duration": 0.333,
        "velocity": 0.71,
        "hand": "right"
      },
      {
        "midi": 68,
        "time": 555,
        "duration": 1,
        "velocity": 0.71,
        "hand": "right"
      },
      {
        "midi": 42,
        "time": 555.25,
        "duration": 0.333,
        "velocity": 0.94,
        "hand": "right"
      },
      {
        "midi": 49,
        "time": 555.5,
        "duration": 0.333,
        "velocity": 0.94,
        "hand": "right"
      },
      {
        "midi": 49,
        "time": 555.75,
        "duration": 0.333,
        "velocity": 0.94,
        "hand": "right"
      },
      {
        "midi": 66,
        "time": 556,
        "duration": 1,
        "velocity": 0.71,
        "hand": "right"
      },
      {
        "midi": 49,
        "time": 556.25,
        "duration": 0.333,
        "velocity": 0.94,
        "hand": "right"
      },
      {
        "midi": 34,
        "time": 556.5,
        "duration": 0.333,
        "velocity": 0.94,
        "hand": "right"
      },
      {
        "midi": 42,
        "time": 556.75,
        "duration": 0.333,
        "velocity": 0.94,
        "hand": "right"
      },
      {
        "midi": 65,
        "time": 557,
        "duration": 0.75,
        "velocity": 0.71,
        "hand": "right"
      },
      {
        "midi": 49,
        "time": 557.25,
        "duration": 0.333,
        "velocity": 0.94,
        "hand": "right"
      },
      {
        "midi": 42,
        "time": 557.5,
        "duration": 0.333,
        "velocity": 0.94,
        "hand": "right"
      },
      {
        "midi": 66,
        "time": 557.75,
        "duration": 0.333,
        "velocity": 0.71,
        "hand": "right"
      },
      {
        "midi": 67,
        "time": 558,
        "duration": 1,
        "velocity": 0.71,
        "hand": "right"
      },
      {
        "midi": 41,
        "time": 558.25,
        "duration": 0.333,
        "velocity": 0.94,
        "hand": "right"
      },
      {
        "midi": 49,
        "time": 558.5,
        "duration": 0.333,
        "velocity": 0.94,
        "hand": "right"
      },
      {
        "midi": 49,
        "time": 558.75,
        "duration": 0.333,
        "velocity": 0.94,
        "hand": "right"
      },
      {
        "midi": 67,
        "time": 559,
        "duration": 0.5,
        "velocity": 0.71,
        "hand": "right"
      },
      {
        "midi": 49,
        "time": 559.25,
        "duration": 0.333,
        "velocity": 0.94,
        "hand": "right"
      },
      {
        "midi": 68,
        "time": 559.5,
        "duration": 1,
        "velocity": 0.71,
        "hand": "right"
      },
      {
        "midi": 41,
        "time": 559.75,
        "duration": 0.333,
        "velocity": 0.71,
        "hand": "right"
      },
      {
        "midi": 48,
        "time": 560,
        "duration": 0.333,
        "velocity": 0.71,
        "hand": "right"
      },
      {
        "midi": 50,
        "time": 560.25,
        "duration": 0.333,
        "velocity": 0.8,
        "hand": "right"
      },
      {
        "midi": 69,
        "time": 560.5,
        "duration": 0.5,
        "velocity": 0.71,
        "hand": "right"
      },
      {
        "midi": 53,
        "time": 560.75,
        "duration": 0.333,
        "velocity": 0.93,
        "hand": "right"
      },
      {
        "midi": 72,
        "time": 561,
        "duration": 1,
        "velocity": 0.71,
        "hand": "right"
      },
      {
        "midi": 46,
        "time": 561.25,
        "duration": 0.333,
        "velocity": 0.93,
        "hand": "right"
      },
      {
        "midi": 48,
        "time": 561.5,
        "duration": 0.333,
        "velocity": 0.93,
        "hand": "right"
      },
      {
        "midi": 50,
        "time": 561.75,
        "duration": 0.333,
        "velocity": 0.96,
        "hand": "right"
      },
      {
        "midi": 70,
        "time": 562,
        "duration": 0.5,
        "velocity": 0.71,
        "hand": "right"
      },
      {
        "midi": 53,
        "time": 562.25,
        "duration": 0.333,
        "velocity": 1,
        "hand": "right"
      },
      {
        "midi": 73,
        "time": 562.5,
        "duration": 0.5,
        "velocity": 0.71,
        "hand": "right"
      },
      {
        "midi": 48,
        "time": 562.75,
        "duration": 0.333,
        "velocity": 1,
        "hand": "right"
      },
      {
        "midi": 71,
        "time": 563,
        "duration": 0.5,
        "velocity": 0.71,
        "hand": "right"
      },
      {
        "midi": 52,
        "time": 563.25,
        "duration": 0.333,
        "velocity": 1,
        "hand": "right"
      },
      {
        "midi": 72,
        "time": 563.5,
        "duration": 0.5,
        "velocity": 0.71,
        "hand": "right"
      },
      {
        "midi": 55,
        "time": 563.75,
        "duration": 0.333,
        "velocity": 1,
        "hand": "right"
      },
      {
        "midi": 75,
        "time": 564,
        "duration": 1,
        "velocity": 0.71,
        "hand": "right"
      },
      {
        "midi": 49,
        "time": 564.25,
        "duration": 0.333,
        "velocity": 1,
        "hand": "right"
      },
      {
        "midi": 51,
        "time": 564.5,
        "duration": 0.333,
        "velocity": 1,
        "hand": "right"
      },
      {
        "midi": 53,
        "time": 564.75,
        "duration": 0.333,
        "velocity": 1,
        "hand": "right"
      },
      {
        "midi": 73,
        "time": 565,
        "duration": 0.5,
        "velocity": 0.71,
        "hand": "right"
      },
      {
        "midi": 56,
        "time": 565.25,
        "duration": 0.333,
        "velocity": 1,
        "hand": "right"
      },
      {
        "midi": 43,
        "time": 565.5,
        "duration": 0.5,
        "velocity": 1,
        "hand": "right"
      },
      {
        "midi": 52,
        "time": 565.75,
        "duration": 0.333,
        "velocity": 1,
        "hand": "right"
      },
      {
        "midi": 75,
        "time": 566,
        "duration": 0.5,
        "velocity": 0.71,
        "hand": "right"
      },
      {
        "midi": 55,
        "time": 566.25,
        "duration": 0.333,
        "velocity": 1,
        "hand": "right"
      },
      {
        "midi": 76,
        "time": 566.5,
        "duration": 0.5,
        "velocity": 0.71,
        "hand": "right"
      },
      {
        "midi": 58,
        "time": 566.75,
        "duration": 0.333,
        "velocity": 1,
        "hand": "right"
      },
      {
        "midi": 77,
        "time": 567,
        "duration": 0.5,
        "velocity": 0.71,
        "hand": "right"
      },
      {
        "midi": 75,
        "time": 567.25,
        "duration": 0.333,
        "velocity": 0.71,
        "hand": "right"
      },
      {
        "midi": 82,
        "time": 567.5,
        "duration": 0.5,
        "velocity": 0.71,
        "hand": "right"
      },
      {
        "midi": 65,
        "time": 567.75,
        "duration": 0.333,
        "velocity": 0.94,
        "hand": "right"
      },
      {
        "midi": 80,
        "time": 568,
        "duration": 0.5,
        "velocity": 0.71,
        "hand": "right"
      },
      {
        "midi": 56,
        "time": 568.25,
        "duration": 0.333,
        "velocity": 0.94,
        "hand": "right"
      },
      {
        "midi": 80,
        "time": 568.5,
        "duration": 1,
        "velocity": 0.71,
        "hand": "right"
      },
      {
        "midi": 51,
        "time": 568.75,
        "duration": 0.333,
        "velocity": 0.94,
        "hand": "right"
      },
      {
        "midi": 60,
        "time": 569,
        "duration": 0.333,
        "velocity": 0.94,
        "hand": "right"
      },
      {
        "midi": 66,
        "time": 569.25,
        "duration": 0.333,
        "velocity": 0.94,
        "hand": "right"
      },
      {
        "midi": 78,
        "time": 569.5,
        "duration": 0.5,
        "velocity": 0.71,
        "hand": "right"
      },
      {
        "midi": 56,
        "time": 569.75,
        "duration": 0.333,
        "velocity": 0.94,
        "hand": "right"
      },
      {
        "midi": 77,
        "time": 570,
        "duration": 0.5,
        "velocity": 0.71,
        "hand": "right"
      },
      {
        "midi": 49,
        "time": 570.5,
        "duration": 0.333,
        "velocity": 0.94,
        "hand": "right"
      },
      {
        "midi": 68,
        "time": 570.75,
        "duration": 0.333,
        "velocity": 0.71,
        "hand": "right"
      },
      {
        "midi": 77,
        "time": 571,
        "duration": 0.333,
        "velocity": 0.71,
        "hand": "right"
      },
      {
        "midi": 80,
        "time": 571.25,
        "duration": 0.333,
        "velocity": 0.71,
        "hand": "right"
      },
      {
        "midi": 89,
        "time": 571.5,
        "duration": 0.333,
        "velocity": 0.71,
        "hand": "right"
      },
      {
        "midi": 80,
        "time": 571.75,
        "duration": 0.333,
        "velocity": 0.71,
        "hand": "right"
      },
      {
        "midi": 77,
        "time": 572,
        "duration": 0.333,
        "velocity": 0.71,
        "hand": "right"
      },
      {
        "midi": 68,
        "time": 572.25,
        "duration": 0.333,
        "velocity": 0.71,
        "hand": "right"
      },
      {
        "midi": 65,
        "time": 572.5,
        "duration": 0.333,
        "velocity": 0.71,
        "hand": "right"
      },
      {
        "midi": 56,
        "time": 572.75,
        "duration": 0.333,
        "velocity": 0.71,
        "hand": "right"
      },
      {
        "midi": 65,
        "time": 573,
        "duration": 0.333,
        "velocity": 0.71,
        "hand": "right"
      },
      {
        "midi": 57,
        "time": 573.25,
        "duration": 0.333,
        "velocity": 0.71,
        "hand": "right"
      },
      {
        "midi": 65,
        "time": 573.5,
        "duration": 0.333,
        "velocity": 0.71,
        "hand": "right"
      },
      {
        "midi": 69,
        "time": 573.75,
        "duration": 0.333,
        "velocity": 0.71,
        "hand": "right"
      },
      {
        "midi": 77,
        "time": 574,
        "duration": 0.333,
        "velocity": 0.71,
        "hand": "right"
      },
      {
        "midi": 81,
        "time": 574.25,
        "duration": 0.333,
        "velocity": 0.71,
        "hand": "right"
      },
      {
        "midi": 89,
        "time": 574.5,
        "duration": 0.333,
        "velocity": 0.71,
        "hand": "right"
      },
      {
        "midi": 81,
        "time": 574.75,
        "duration": 0.333,
        "velocity": 0.71,
        "hand": "right"
      },
      {
        "midi": 77,
        "time": 575,
        "duration": 0.333,
        "velocity": 0.71,
        "hand": "right"
      },
      {
        "midi": 69,
        "time": 575.25,
        "duration": 0.333,
        "velocity": 0.71,
        "hand": "right"
      },
      {
        "midi": 65,
        "time": 575.5,
        "duration": 0.333,
        "velocity": 0.71,
        "hand": "right"
      },
      {
        "midi": 57,
        "time": 575.75,
        "duration": 0.333,
        "velocity": 0.71,
        "hand": "right"
      },
      {
        "midi": 65,
        "time": 576,
        "duration": 0.333,
        "velocity": 0.71,
        "hand": "right"
      },
      {
        "midi": 58,
        "time": 576.25,
        "duration": 0.333,
        "velocity": 0.71,
        "hand": "right"
      },
      {
        "midi": 65,
        "time": 576.5,
        "duration": 0.333,
        "velocity": 0.71,
        "hand": "right"
      },
      {
        "midi": 70,
        "time": 576.75,
        "duration": 0.333,
        "velocity": 0.71,
        "hand": "right"
      },
      {
        "midi": 77,
        "time": 577,
        "duration": 0.333,
        "velocity": 0.71,
        "hand": "right"
      },
      {
        "midi": 82,
        "time": 577.25,
        "duration": 0.333,
        "velocity": 0.71,
        "hand": "right"
      },
      {
        "midi": 89,
        "time": 577.5,
        "duration": 0.333,
        "velocity": 0.71,
        "hand": "right"
      },
      {
        "midi": 82,
        "time": 577.75,
        "duration": 0.333,
        "velocity": 0.71,
        "hand": "right"
      },
      {
        "midi": 77,
        "time": 578,
        "duration": 0.333,
        "velocity": 0.71,
        "hand": "right"
      },
      {
        "midi": 70,
        "time": 578.25,
        "duration": 0.333,
        "velocity": 0.71,
        "hand": "right"
      },
      {
        "midi": 65,
        "time": 578.5,
        "duration": 0.333,
        "velocity": 0.71,
        "hand": "right"
      },
      {
        "midi": 58,
        "time": 578.75,
        "duration": 0.333,
        "velocity": 0.71,
        "hand": "right"
      },
      {
        "midi": 67,
        "time": 579,
        "duration": 0.333,
        "velocity": 0.71,
        "hand": "right"
      },
      {
        "midi": 59,
        "time": 579.25,
        "duration": 0.333,
        "velocity": 0.71,
        "hand": "right"
      },
      {
        "midi": 67,
        "time": 579.5,
        "duration": 0.333,
        "velocity": 0.71,
        "hand": "right"
      },
      {
        "midi": 71,
        "time": 579.75,
        "duration": 0.333,
        "velocity": 0.71,
        "hand": "right"
      },
      {
        "midi": 79,
        "time": 580,
        "duration": 0.333,
        "velocity": 0.71,
        "hand": "right"
      },
      {
        "midi": 83,
        "time": 580.25,
        "duration": 0.333,
        "velocity": 0.71,
        "hand": "right"
      },
      {
        "midi": 91,
        "time": 580.5,
        "duration": 0.333,
        "velocity": 0.71,
        "hand": "right"
      },
      {
        "midi": 83,
        "time": 580.75,
        "duration": 0.333,
        "velocity": 0.71,
        "hand": "right"
      },
      {
        "midi": 79,
        "time": 581,
        "duration": 0.333,
        "velocity": 0.71,
        "hand": "right"
      },
      {
        "midi": 71,
        "time": 581.25,
        "duration": 0.333,
        "velocity": 0.71,
        "hand": "right"
      },
      {
        "midi": 67,
        "time": 581.5,
        "duration": 0.333,
        "velocity": 0.71,
        "hand": "right"
      },
      {
        "midi": 59,
        "time": 581.75,
        "duration": 0.333,
        "velocity": 0.71,
        "hand": "right"
      },
      {
        "midi": 68,
        "time": 582,
        "duration": 0.5,
        "velocity": 0.71,
        "hand": "right"
      },
      {
        "midi": 36,
        "time": 582.5,
        "duration": 0.5,
        "velocity": 0.8,
        "hand": "right"
      },
      {
        "midi": 53,
        "time": 582.75,
        "duration": 0.333,
        "velocity": 0.8,
        "hand": "right"
      },
      {
        "midi": 56,
        "time": 583,
        "duration": 0.333,
        "velocity": 0.8,
        "hand": "right"
      },
      {
        "midi": 60,
        "time": 583.25,
        "duration": 0.333,
        "velocity": 0.8,
        "hand": "right"
      },
      {
        "midi": 65,
        "time": 583.5,
        "duration": 0.333,
        "velocity": 0.71,
        "hand": "right"
      },
      {
        "midi": 71,
        "time": 583.75,
        "duration": 0.333,
        "velocity": 0.71,
        "hand": "right"
      },
      {
        "midi": 72,
        "time": 584,
        "duration": 0.333,
        "velocity": 0.71,
        "hand": "right"
      },
      {
        "midi": 80,
        "time": 584.25,
        "duration": 0.333,
        "velocity": 0.71,
        "hand": "right"
      },
      {
        "midi": 83,
        "time": 584.5,
        "duration": 0.333,
        "velocity": 0.71,
        "hand": "right"
      },
      {
        "midi": 89,
        "time": 584.75,
        "duration": 0.333,
        "velocity": 0.71,
        "hand": "right"
      },
      {
        "midi": 92,
        "time": 585,
        "duration": 0.5,
        "velocity": 0.71,
        "hand": "right"
      },
      {
        "midi": 77,
        "time": 585.5,
        "duration": 0.5,
        "velocity": 0.71,
        "hand": "right"
      },
      {
        "midi": 73,
        "time": 586,
        "duration": 0.5,
        "velocity": 0.71,
        "hand": "right"
      },
      {
        "midi": 78,
        "time": 586.5,
        "duration": 0.5,
        "velocity": 0.71,
        "hand": "right"
      },
      {
        "midi": 76,
        "time": 587,
        "duration": 0.5,
        "velocity": 0.71,
        "hand": "right"
      },
      {
        "midi": 84,
        "time": 587.5,
        "duration": 0.5,
        "velocity": 0.71,
        "hand": "right"
      },
      {
        "midi": 84,
        "time": 588,
        "duration": 0.5,
        "velocity": 0.71,
        "hand": "right"
      },
      {
        "midi": 36,
        "time": 588.5,
        "duration": 0.5,
        "velocity": 0.8,
        "hand": "right"
      },
      {
        "midi": 53,
        "time": 588.75,
        "duration": 0.333,
        "velocity": 0.8,
        "hand": "right"
      },
      {
        "midi": 56,
        "time": 589,
        "duration": 0.333,
        "velocity": 0.8,
        "hand": "right"
      },
      {
        "midi": 60,
        "time": 589.25,
        "duration": 0.333,
        "velocity": 0.8,
        "hand": "right"
      },
      {
        "midi": 65,
        "time": 589.5,
        "duration": 0.333,
        "velocity": 0.71,
        "hand": "right"
      },
      {
        "midi": 71,
        "time": 589.75,
        "duration": 0.333,
        "velocity": 0.71,
        "hand": "right"
      },
      {
        "midi": 72,
        "time": 590,
        "duration": 0.333,
        "velocity": 0.71,
        "hand": "right"
      },
      {
        "midi": 80,
        "time": 590.25,
        "duration": 0.333,
        "velocity": 0.71,
        "hand": "right"
      },
      {
        "midi": 83,
        "time": 590.5,
        "duration": 0.333,
        "velocity": 0.71,
        "hand": "right"
      },
      {
        "midi": 89,
        "time": 590.75,
        "duration": 0.333,
        "velocity": 0.71,
        "hand": "right"
      },
      {
        "midi": 92,
        "time": 591,
        "duration": 0.5,
        "velocity": 0.71,
        "hand": "right"
      },
      {
        "midi": 77,
        "time": 591.5,
        "duration": 0.5,
        "velocity": 0.71,
        "hand": "right"
      },
      {
        "midi": 65,
        "time": 592,
        "duration": 0.5,
        "velocity": 0.71,
        "hand": "right"
      },
      {
        "midi": 66,
        "time": 592.5,
        "duration": 0.5,
        "velocity": 0.71,
        "hand": "right"
      },
      {
        "midi": 64,
        "time": 593,
        "duration": 0.5,
        "velocity": 0.71,
        "hand": "right"
      },
      {
        "midi": 72,
        "time": 593.5,
        "duration": 0.5,
        "velocity": 0.71,
        "hand": "right"
      },
      {
        "midi": 72,
        "time": 594,
        "duration": 0.5,
        "velocity": 0.71,
        "hand": "right"
      },
      {
        "midi": 74,
        "time": 594.5,
        "duration": 0.5,
        "velocity": 0.71,
        "hand": "right"
      },
      {
        "midi": 75,
        "time": 595,
        "duration": 0.5,
        "velocity": 0.71,
        "hand": "right"
      },
      {
        "midi": 78,
        "time": 595.5,
        "duration": 0.5,
        "velocity": 0.71,
        "hand": "right"
      },
      {
        "midi": 83,
        "time": 596,
        "duration": 0.5,
        "velocity": 0.71,
        "hand": "right"
      },
      {
        "midi": 80,
        "time": 596.5,
        "duration": 0.5,
        "velocity": 0.71,
        "hand": "right"
      },
      {
        "midi": 82,
        "time": 597,
        "duration": 0.5,
        "velocity": 0.71,
        "hand": "right"
      },
      {
        "midi": 85,
        "time": 597.5,
        "duration": 0.5,
        "velocity": 0.71,
        "hand": "right"
      },
      {
        "midi": 90,
        "time": 598,
        "duration": 0.5,
        "velocity": 0.71,
        "hand": "right"
      },
      {
        "midi": 88,
        "time": 598.5,
        "duration": 0.5,
        "velocity": 0.71,
        "hand": "right"
      },
      {
        "midi": 89,
        "time": 599,
        "duration": 0.5,
        "velocity": 0.71,
        "hand": "right"
      },
      {
        "midi": 85,
        "time": 599.5,
        "duration": 0.5,
        "velocity": 0.71,
        "hand": "right"
      },
      {
        "midi": 84,
        "time": 600,
        "duration": 0.5,
        "velocity": 0.71,
        "hand": "right"
      },
      {
        "midi": 60,
        "time": 601.5,
        "duration": 0.5,
        "velocity": 0.71,
        "hand": "right"
      },
      {
        "midi": 61,
        "time": 602,
        "duration": 0.5,
        "velocity": 0.71,
        "hand": "right"
      },
      {
        "midi": 65,
        "time": 602.5,
        "duration": 0.5,
        "velocity": 0.71,
        "hand": "right"
      },
      {
        "midi": 67,
        "time": 603,
        "duration": 0.5,
        "velocity": 0.71,
        "hand": "right"
      },
      {
        "midi": 67,
        "time": 603.5,
        "duration": 0.5,
        "velocity": 0.71,
        "hand": "right"
      },
      {
        "midi": 67,
        "time": 604,
        "duration": 0.5,
        "velocity": 0.71,
        "hand": "right"
      },
      {
        "midi": 84,
        "time": 606,
        "duration": 3,
        "velocity": 0.71,
        "hand": "right"
      },
      {
        "midi": 79,
        "time": 609,
        "duration": 3,
        "velocity": 0.71,
        "hand": "right"
      },
      {
        "midi": 76,
        "time": 612,
        "duration": 3,
        "velocity": 0.71,
        "hand": "right"
      },
      {
        "midi": 74,
        "time": 615,
        "duration": 3,
        "velocity": 0.71,
        "hand": "right"
      },
      {
        "midi": 64,
        "time": 618,
        "duration": 10,
        "velocity": 0.71,
        "hand": "right"
      },
      {
        "midi": 56,
        "time": 630,
        "duration": 0.333,
        "velocity": 0.71,
        "hand": "right"
      },
      {
        "midi": 68,
        "time": 630.25,
        "duration": 0.333,
        "velocity": 0.71,
        "hand": "right"
      },
      {
        "midi": 55,
        "time": 630.5,
        "duration": 0.333,
        "velocity": 0.71,
        "hand": "right"
      },
      {
        "midi": 59,
        "time": 630.75,
        "duration": 0.333,
        "velocity": 0.71,
        "hand": "right"
      },
      {
        "midi": 61,
        "time": 631,
        "duration": 0.333,
        "velocity": 0.71,
        "hand": "right"
      },
      {
        "midi": 67,
        "time": 631.25,
        "duration": 0.333,
        "velocity": 0.71,
        "hand": "right"
      },
      {
        "midi": 60,
        "time": 631.5,
        "duration": 0.333,
        "velocity": 0.71,
        "hand": "right"
      },
      {
        "midi": 70,
        "time": 631.75,
        "duration": 0.333,
        "velocity": 0.71,
        "hand": "right"
      },
      {
        "midi": 67,
        "time": 632,
        "duration": 0.333,
        "velocity": 0.71,
        "hand": "right"
      },
      {
        "midi": 65,
        "time": 632.25,
        "duration": 0.333,
        "velocity": 0.71,
        "hand": "right"
      },
      {
        "midi": 61,
        "time": 632.5,
        "duration": 0.333,
        "velocity": 0.71,
        "hand": "right"
      },
      {
        "midi": 67,
        "time": 632.75,
        "duration": 0.333,
        "velocity": 0.71,
        "hand": "right"
      },
      {
        "midi": 56,
        "time": 633,
        "duration": 0.333,
        "velocity": 0.71,
        "hand": "right"
      },
      {
        "midi": 68,
        "time": 633.25,
        "duration": 0.75,
        "velocity": 0.71,
        "hand": "right"
      },
      {
        "midi": 63,
        "time": 633.5,
        "duration": 0.333,
        "velocity": 0.71,
        "hand": "right"
      },
      {
        "midi": 68,
        "time": 633.75,
        "duration": 0.333,
        "velocity": 0.8,
        "hand": "right"
      },
      {
        "midi": 68,
        "time": 634,
        "duration": 0.5,
        "velocity": 0.84,
        "hand": "right"
      },
      {
        "midi": 65,
        "time": 634.25,
        "duration": 0.333,
        "velocity": 0.89,
        "hand": "right"
      },
      {
        "midi": 73,
        "time": 634.5,
        "duration": 0.333,
        "velocity": 0.93,
        "hand": "right"
      },
      {
        "midi": 72,
        "time": 634.75,
        "duration": 0.333,
        "velocity": 0.9,
        "hand": "right"
      },
      {
        "midi": 70,
        "time": 635,
        "duration": 0.333,
        "velocity": 0.83,
        "hand": "right"
      },
      {
        "midi": 69,
        "time": 635.25,
        "duration": 0.333,
        "velocity": 0.8,
        "hand": "right"
      },
      {
        "midi": 58,
        "time": 635.5,
        "duration": 0.333,
        "velocity": 0.74,
        "hand": "right"
      },
      {
        "midi": 72,
        "time": 635.75,
        "duration": 0.333,
        "velocity": 0.71,
        "hand": "right"
      },
      {
        "midi": 68,
        "time": 636,
        "duration": 0.333,
        "velocity": 0.71,
        "hand": "right"
      },
      {
        "midi": 80,
        "time": 636.25,
        "duration": 0.333,
        "velocity": 0.71,
        "hand": "right"
      },
      {
        "midi": 67,
        "time": 636.5,
        "duration": 0.333,
        "velocity": 0.71,
        "hand": "right"
      },
      {
        "midi": 71,
        "time": 636.75,
        "duration": 0.333,
        "velocity": 0.71,
        "hand": "right"
      },
      {
        "midi": 73,
        "time": 637,
        "duration": 0.333,
        "velocity": 0.71,
        "hand": "right"
      },
      {
        "midi": 79,
        "time": 637.25,
        "duration": 0.333,
        "velocity": 0.71,
        "hand": "right"
      },
      {
        "midi": 72,
        "time": 637.5,
        "duration": 0.333,
        "velocity": 0.71,
        "hand": "right"
      },
      {
        "midi": 82,
        "time": 637.75,
        "duration": 0.333,
        "velocity": 0.71,
        "hand": "right"
      },
      {
        "midi": 79,
        "time": 638,
        "duration": 0.333,
        "velocity": 0.71,
        "hand": "right"
      },
      {
        "midi": 77,
        "time": 638.25,
        "duration": 0.333,
        "velocity": 0.71,
        "hand": "right"
      },
      {
        "midi": 73,
        "time": 638.5,
        "duration": 0.333,
        "velocity": 0.71,
        "hand": "right"
      },
      {
        "midi": 79,
        "time": 638.75,
        "duration": 0.333,
        "velocity": 0.71,
        "hand": "right"
      },
      {
        "midi": 68,
        "time": 639,
        "duration": 0.333,
        "velocity": 0.71,
        "hand": "right"
      },
      {
        "midi": 80,
        "time": 639.25,
        "duration": 0.75,
        "velocity": 0.71,
        "hand": "right"
      },
      {
        "midi": 75,
        "time": 639.5,
        "duration": 0.333,
        "velocity": 0.71,
        "hand": "right"
      },
      {
        "midi": 80,
        "time": 639.75,
        "duration": 0.333,
        "velocity": 0.71,
        "hand": "right"
      },
      {
        "midi": 80,
        "time": 640,
        "duration": 0.5,
        "velocity": 0.71,
        "hand": "right"
      },
      {
        "midi": 77,
        "time": 640.25,
        "duration": 0.333,
        "velocity": 0.71,
        "hand": "right"
      },
      {
        "midi": 85,
        "time": 640.5,
        "duration": 0.333,
        "velocity": 0.71,
        "hand": "right"
      },
      {
        "midi": 84,
        "time": 640.75,
        "duration": 0.333,
        "velocity": 0.71,
        "hand": "right"
      },
      {
        "midi": 82,
        "time": 641,
        "duration": 0.333,
        "velocity": 0.71,
        "hand": "right"
      },
      {
        "midi": 81,
        "time": 641.25,
        "duration": 0.333,
        "velocity": 0.71,
        "hand": "right"
      },
      {
        "midi": 70,
        "time": 641.5,
        "duration": 0.333,
        "velocity": 0.71,
        "hand": "right"
      },
      {
        "midi": 84,
        "time": 641.75,
        "duration": 0.333,
        "velocity": 0.71,
        "hand": "right"
      },
      {
        "midi": 80,
        "time": 642,
        "duration": 0.5,
        "velocity": 0.71,
        "hand": "right"
      },
      {
        "midi": 76,
        "time": 642.25,
        "duration": 0.333,
        "velocity": 0.71,
        "hand": "right"
      },
      {
        "midi": 77,
        "time": 642.5,
        "duration": 0.333,
        "velocity": 0.71,
        "hand": "right"
      },
      {
        "midi": 79,
        "time": 642.75,
        "duration": 0.333,
        "velocity": 0.71,
        "hand": "right"
      },
      {
        "midi": 80,
        "time": 643,
        "duration": 0.333,
        "velocity": 0.71,
        "hand": "right"
      },
      {
        "midi": 85,
        "time": 643.25,
        "duration": 0.333,
        "velocity": 0.71,
        "hand": "right"
      },
      {
        "midi": 78,
        "time": 643.5,
        "duration": 0.5,
        "velocity": 0.71,
        "hand": "right"
      },
      {
        "midi": 74,
        "time": 643.75,
        "duration": 0.333,
        "velocity": 0.71,
        "hand": "right"
      },
      {
        "midi": 75,
        "time": 644,
        "duration": 0.333,
        "velocity": 0.71,
        "hand": "right"
      },
      {
        "midi": 77,
        "time": 644.25,
        "duration": 0.333,
        "velocity": 0.71,
        "hand": "right"
      },
      {
        "midi": 78,
        "time": 644.5,
        "duration": 0.333,
        "velocity": 0.71,
        "hand": "right"
      },
      {
        "midi": 83,
        "time": 644.75,
        "duration": 0.333,
        "velocity": 0.71,
        "hand": "right"
      },
      {
        "midi": 76,
        "time": 645,
        "duration": 0.5,
        "velocity": 0.71,
        "hand": "right"
      },
      {
        "midi": 72,
        "time": 645.25,
        "duration": 0.333,
        "velocity": 0.71,
        "hand": "right"
      },
      {
        "midi": 73,
        "time": 645.5,
        "duration": 0.333,
        "velocity": 0.71,
        "hand": "right"
      },
      {
        "midi": 75,
        "time": 645.75,
        "duration": 0.333,
        "velocity": 0.71,
        "hand": "right"
      },
      {
        "midi": 76,
        "time": 646,
        "duration": 0.333,
        "velocity": 0.71,
        "hand": "right"
      },
      {
        "midi": 78,
        "time": 646.25,
        "duration": 0.333,
        "velocity": 0.71,
        "hand": "right"
      },
      {
        "midi": 79,
        "time": 646.5,
        "duration": 0.333,
        "velocity": 0.71,
        "hand": "right"
      },
      {
        "midi": 81,
        "time": 646.75,
        "duration": 0.333,
        "velocity": 0.71,
        "hand": "right"
      },
      {
        "midi": 78,
        "time": 647,
        "duration": 0.333,
        "velocity": 0.71,
        "hand": "right"
      },
      {
        "midi": 81,
        "time": 647.25,
        "duration": 0.333,
        "velocity": 0.71,
        "hand": "right"
      },
      {
        "midi": 82,
        "time": 647.5,
        "duration": 0.333,
        "velocity": 0.71,
        "hand": "right"
      },
      {
        "midi": 85,
        "time": 647.75,
        "duration": 0.333,
        "velocity": 0.71,
        "hand": "right"
      },
      {
        "midi": 84,
        "time": 648,
        "duration": 0.333,
        "velocity": 0.71,
        "hand": "right"
      },
      {
        "midi": 91,
        "time": 648.25,
        "duration": 0.333,
        "velocity": 0.71,
        "hand": "right"
      },
      {
        "midi": 84,
        "time": 648.5,
        "duration": 0.333,
        "velocity": 0.71,
        "hand": "right"
      },
      {
        "midi": 87,
        "time": 648.75,
        "duration": 0.333,
        "velocity": 0.71,
        "hand": "right"
      },
      {
        "midi": 80,
        "time": 649,
        "duration": 0.333,
        "velocity": 0.71,
        "hand": "right"
      },
      {
        "midi": 84,
        "time": 649.25,
        "duration": 0.333,
        "velocity": 0.71,
        "hand": "right"
      },
      {
        "midi": 72,
        "time": 649.5,
        "duration": 0.333,
        "velocity": 0.71,
        "hand": "right"
      },
      {
        "midi": 82,
        "time": 649.75,
        "duration": 0.333,
        "velocity": 0.71,
        "hand": "right"
      },
      {
        "midi": 68,
        "time": 650,
        "duration": 0.333,
        "velocity": 0.71,
        "hand": "right"
      },
      {
        "midi": 79,
        "time": 650.25,
        "duration": 0.333,
        "velocity": 0.71,
        "hand": "right"
      },
      {
        "midi": 67,
        "time": 650.5,
        "duration": 0.333,
        "velocity": 0.71,
        "hand": "right"
      },
      {
        "midi": 76,
        "time": 650.75,
        "duration": 0.333,
        "velocity": 0.71,
        "hand": "right"
      },
      {
        "midi": 70,
        "time": 651,
        "duration": 0.333,
        "velocity": 0.71,
        "hand": "right"
      },
      {
        "midi": 79,
        "time": 651.25,
        "duration": 0.333,
        "velocity": 0.71,
        "hand": "right"
      },
      {
        "midi": 77,
        "time": 651.5,
        "duration": 0.333,
        "velocity": 0.71,
        "hand": "right"
      },
      {
        "midi": 75,
        "time": 651.75,
        "duration": 0.333,
        "velocity": 0.71,
        "hand": "right"
      },
      {
        "midi": 68,
        "time": 652,
        "duration": 0.333,
        "velocity": 0.71,
        "hand": "right"
      },
      {
        "midi": 72,
        "time": 652.25,
        "duration": 0.333,
        "velocity": 0.71,
        "hand": "right"
      },
      {
        "midi": 68,
        "time": 652.5,
        "duration": 0.5,
        "velocity": 0.71,
        "hand": "right"
      },
      {
        "midi": 61,
        "time": 652.75,
        "duration": 0.333,
        "velocity": 0.71,
        "hand": "right"
      },
      {
        "midi": 67,
        "time": 653,
        "duration": 1,
        "velocity": 0.71,
        "hand": "right"
      },
      {
        "midi": 60,
        "time": 653.25,
        "duration": 0.333,
        "velocity": 0.71,
        "hand": "right"
      },
      {
        "midi": 64,
        "time": 653.5,
        "duration": 0.5,
        "velocity": 0.71,
        "hand": "right"
      },
      {
        "midi": 60,
        "time": 653.75,
        "duration": 0.333,
        "velocity": 0.71,
        "hand": "right"
      },
      {
        "midi": 72,
        "time": 654,
        "duration": 0.333,
        "velocity": 0.71,
        "hand": "right"
      },
      {
        "midi": 55,
        "time": 654.25,
        "duration": 0.333,
        "velocity": 0.5,
        "hand": "right"
      },
      {
        "midi": 70,
        "time": 654.5,
        "duration": 0.333,
        "velocity": 0.71,
        "hand": "right"
      },
      {
        "midi": 53,
        "time": 654.75,
        "duration": 0.333,
        "velocity": 0.5,
        "hand": "right"
      },
      {
        "midi": 68,
        "time": 655,
        "duration": 0.333,
        "velocity": 0.71,
        "hand": "right"
      },
      {
        "midi": 52,
        "time": 655.25,
        "duration": 0.333,
        "velocity": 0.5,
        "hand": "right"
      },
      {
        "midi": 67,
        "time": 655.5,
        "duration": 0.333,
        "velocity": 0.71,
        "hand": "right"
      },
      {
        "midi": 49,
        "time": 655.75,
        "duration": 0.333,
        "velocity": 0.5,
        "hand": "right"
      },
      {
        "midi": 65,
        "time": 656,
        "duration": 0.333,
        "velocity": 0.71,
        "hand": "right"
      },
      {
        "midi": 46,
        "time": 656.25,
        "duration": 0.333,
        "velocity": 0.5,
        "hand": "right"
      },
      {
        "midi": 64,
        "time": 656.5,
        "duration": 0.5,
        "velocity": 0.71,
        "hand": "right"
      },
      {
        "midi": 48,
        "time": 656.75,
        "duration": 0.333,
        "velocity": 0.5,
        "hand": "right"
      },
      {
        "midi": 63,
        "time": 657,
        "duration": 0.5,
        "velocity": 0.71,
        "hand": "right"
      },
      {
        "midi": 45,
        "time": 657.25,
        "duration": 0.333,
        "velocity": 0.5,
        "hand": "right"
      },
      {
        "midi": 61,
        "time": 657.5,
        "duration": 1,
        "velocity": 0.71,
        "hand": "right"
      },
      {
        "midi": 48,
        "time": 657.75,
        "duration": 0.333,
        "velocity": 0.5,
        "hand": "right"
      },
      {
        "midi": 52,
        "time": 658,
        "duration": 0.5,
        "velocity": 0.71,
        "hand": "right"
      },
      {
        "midi": 44,
        "time": 658.25,
        "duration": 0.333,
        "velocity": 0.5,
        "hand": "right"
      },
      {
        "midi": 60,
        "time": 658.5,
        "duration": 1,
        "velocity": 0.71,
        "hand": "right"
      },
      {
        "midi": 43,
        "time": 658.75,
        "duration": 0.333,
        "velocity": 0.5,
        "hand": "right"
      },
      {
        "midi": 56,
        "time": 659,
        "duration": 0.5,
        "velocity": 0.71,
        "hand": "right"
      },
      {
        "midi": 43,
        "time": 659.25,
        "duration": 0.333,
        "velocity": 0.5,
        "hand": "right"
      },
      {
        "midi": 65,
        "time": 659.5,
        "duration": 0.5,
        "velocity": 0.71,
        "hand": "right"
      },
      {
        "midi": 39,
        "time": 659.75,
        "duration": 0.333,
        "velocity": 0.5,
        "hand": "right"
      },
      {
        "midi": 65,
        "time": 660,
        "duration": 0.5,
        "velocity": 0.71,
        "hand": "right"
      },
      {
        "midi": 37,
        "time": 660.25,
        "duration": 0.333,
        "velocity": 0.5,
        "hand": "right"
      },
      {
        "midi": 57,
        "time": 660.5,
        "duration": 0.5,
        "velocity": 0.71,
        "hand": "right"
      },
      {
        "midi": 41,
        "time": 660.75,
        "duration": 0.333,
        "velocity": 0.5,
        "hand": "right"
      },
      {
        "midi": 58,
        "time": 661,
        "duration": 0.5,
        "velocity": 0.71,
        "hand": "right"
      },
      {
        "midi": 41,
        "time": 661.25,
        "duration": 0.333,
        "velocity": 0.5,
        "hand": "right"
      },
      {
        "midi": 60,
        "time": 661.5,
        "duration": 0.5,
        "velocity": 0.71,
        "hand": "right"
      },
      {
        "midi": 43,
        "time": 661.75,
        "duration": 0.333,
        "velocity": 0.5,
        "hand": "right"
      },
      {
        "midi": 68,
        "time": 662,
        "duration": 0.5,
        "velocity": 0.71,
        "hand": "right"
      },
      {
        "midi": 46,
        "time": 662.25,
        "duration": 0.333,
        "velocity": 0.5,
        "hand": "right"
      },
      {
        "midi": 64,
        "time": 662.5,
        "duration": 0.5,
        "velocity": 0.71,
        "hand": "right"
      },
      {
        "midi": 46,
        "time": 662.75,
        "duration": 0.333,
        "velocity": 0.5,
        "hand": "right"
      },
      {
        "midi": 65,
        "time": 663,
        "duration": 0.5,
        "velocity": 0.71,
        "hand": "right"
      },
      {
        "midi": 48,
        "time": 663.25,
        "duration": 0.333,
        "velocity": 0.5,
        "hand": "right"
      },
      {
        "midi": 63,
        "time": 663.5,
        "duration": 0.5,
        "velocity": 0.71,
        "hand": "right"
      },
      {
        "midi": 45,
        "time": 663.75,
        "duration": 0.333,
        "velocity": 0.5,
        "hand": "right"
      },
      {
        "midi": 61,
        "time": 664,
        "duration": 0.5,
        "velocity": 0.71,
        "hand": "right"
      },
      {
        "midi": 49,
        "time": 664.25,
        "duration": 0.333,
        "velocity": 0.5,
        "hand": "right"
      },
      {
        "midi": 60,
        "time": 664.5,
        "duration": 1,
        "velocity": 0.71,
        "hand": "right"
      },
      {
        "midi": 44,
        "time": 664.75,
        "duration": 0.333,
        "velocity": 0.5,
        "hand": "right"
      },
      {
        "midi": 37,
        "time": 665,
        "duration": 0.333,
        "velocity": 0.5,
        "hand": "right"
      },
      {
        "midi": 37,
        "time": 665.25,
        "duration": 0.333,
        "velocity": 0.5,
        "hand": "right"
      },
      {
        "midi": 60,
        "time": 665.5,
        "duration": 0.5,
        "velocity": 0.71,
        "hand": "right"
      },
      {
        "midi": 44,
        "time": 665.75,
        "duration": 0.333,
        "velocity": 0.5,
        "hand": "right"
      },
      {
        "midi": 65,
        "time": 666,
        "duration": 0.333,
        "velocity": 0.71,
        "hand": "right"
      },
      {
        "midi": 66,
        "time": 666.25,
        "duration": 0.333,
        "velocity": 0.71,
        "hand": "right"
      },
      {
        "midi": 69,
        "time": 666.5,
        "duration": 0.333,
        "velocity": 0.71,
        "hand": "right"
      },
      {
        "midi": 72,
        "time": 666.75,
        "duration": 0.333,
        "velocity": 0.71,
        "hand": "right"
      },
      {
        "midi": 75,
        "time": 667,
        "duration": 0.333,
        "velocity": 0.71,
        "hand": "right"
      },
      {
        "midi": 78,
        "time": 667.25,
        "duration": 0.333,
        "velocity": 0.71,
        "hand": "right"
      },
      {
        "midi": 81,
        "time": 667.5,
        "duration": 0.333,
        "velocity": 0.71,
        "hand": "right"
      },
      {
        "midi": 84,
        "time": 667.75,
        "duration": 0.333,
        "velocity": 0.71,
        "hand": "right"
      },
      {
        "midi": 87,
        "time": 668,
        "duration": 0.333,
        "velocity": 0.71,
        "hand": "right"
      },
      {
        "midi": 90,
        "time": 668.25,
        "duration": 0.333,
        "velocity": 0.71,
        "hand": "right"
      },
      {
        "midi": 93,
        "time": 668.5,
        "duration": 0.333,
        "velocity": 0.71,
        "hand": "right"
      },
      {
        "midi": 96,
        "time": 668.75,
        "duration": 0.333,
        "velocity": 0.71,
        "hand": "right"
      },
      {
        "midi": 99,
        "time": 669,
        "duration": 0.5,
        "velocity": 0.5,
        "hand": "right"
      },
      {
        "midi": 69,
        "time": 669.5,
        "duration": 0.5,
        "velocity": 0.71,
        "hand": "right"
      },
      {
        "midi": 66,
        "time": 669.75,
        "duration": 0.333,
        "velocity": 0.71,
        "hand": "right"
      },
      {
        "midi": 70,
        "time": 670,
        "duration": 0.5,
        "velocity": 0.71,
        "hand": "right"
      },
      {
        "midi": 48,
        "time": 670.25,
        "duration": 0.333,
        "velocity": 0.5,
        "hand": "right"
      },
      {
        "midi": 73,
        "time": 670.5,
        "duration": 0.5,
        "velocity": 0.71,
        "hand": "right"
      },
      {
        "midi": 43,
        "time": 670.75,
        "duration": 0.333,
        "velocity": 0.5,
        "hand": "right"
      },
      {
        "midi": 72,
        "time": 671,
        "duration": 0.5,
        "velocity": 0.71,
        "hand": "right"
      },
      {
        "midi": 36,
        "time": 671.25,
        "duration": 0.333,
        "velocity": 0.5,
        "hand": "right"
      },
      {
        "midi": 64,
        "time": 671.5,
        "duration": 0.5,
        "velocity": 0.71,
        "hand": "right"
      },
      {
        "midi": 36,
        "time": 671.75,
        "duration": 0.333,
        "velocity": 0.5,
        "hand": "right"
      },
      {
        "midi": 65,
        "time": 672,
        "duration": 0.333,
        "velocity": 0.5,
        "hand": "right"
      },
      {
        "midi": 66,
        "time": 672.25,
        "duration": 0.333,
        "velocity": 0.51,
        "hand": "right"
      },
      {
        "midi": 69,
        "time": 672.5,
        "duration": 0.333,
        "velocity": 0.53,
        "hand": "right"
      },
      {
        "midi": 72,
        "time": 672.75,
        "duration": 0.333,
        "velocity": 0.55,
        "hand": "right"
      },
      {
        "midi": 75,
        "time": 673,
        "duration": 0.333,
        "velocity": 0.57,
        "hand": "right"
      },
      {
        "midi": 78,
        "time": 673.25,
        "duration": 0.333,
        "velocity": 0.6,
        "hand": "right"
      },
      {
        "midi": 81,
        "time": 673.5,
        "duration": 0.333,
        "velocity": 0.61,
        "hand": "right"
      },
      {
        "midi": 84,
        "time": 673.75,
        "duration": 0.333,
        "velocity": 0.64,
        "hand": "right"
      },
      {
        "midi": 87,
        "time": 674,
        "duration": 0.333,
        "velocity": 0.65,
        "hand": "right"
      },
      {
        "midi": 90,
        "time": 674.25,
        "duration": 0.333,
        "velocity": 0.68,
        "hand": "right"
      },
      {
        "midi": 93,
        "time": 674.5,
        "duration": 0.333,
        "velocity": 0.69,
        "hand": "right"
      },
      {
        "midi": 96,
        "time": 674.75,
        "duration": 0.333,
        "velocity": 0.72,
        "hand": "right"
      },
      {
        "midi": 101,
        "time": 675,
        "duration": 0.5,
        "velocity": 0.72,
        "hand": "right"
      },
      {
        "midi": 81,
        "time": 675.5,
        "duration": 0.5,
        "velocity": 0.71,
        "hand": "right"
      },
      {
        "midi": 78,
        "time": 675.75,
        "duration": 0.333,
        "velocity": 0.71,
        "hand": "right"
      },
      {
        "midi": 82,
        "time": 676,
        "duration": 0.5,
        "velocity": 0.71,
        "hand": "right"
      },
      {
        "midi": 60,
        "time": 676.25,
        "duration": 0.333,
        "velocity": 0.5,
        "hand": "right"
      },
      {
        "midi": 85,
        "time": 676.5,
        "duration": 0.5,
        "velocity": 0.71,
        "hand": "right"
      },
      {
        "midi": 55,
        "time": 676.75,
        "duration": 0.333,
        "velocity": 0.5,
        "hand": "right"
      },
      {
        "midi": 84,
        "time": 677,
        "duration": 0.5,
        "velocity": 0.71,
        "hand": "right"
      },
      {
        "midi": 48,
        "time": 677.25,
        "duration": 0.333,
        "velocity": 0.5,
        "hand": "right"
      },
      {
        "midi": 76,
        "time": 677.5,
        "duration": 0.5,
        "velocity": 0.71,
        "hand": "right"
      },
      {
        "midi": 48,
        "time": 677.75,
        "duration": 0.333,
        "velocity": 0.5,
        "hand": "right"
      },
      {
        "midi": 77,
        "time": 678,
        "duration": 0.5,
        "velocity": 0.71,
        "hand": "right"
      },
      {
        "midi": 44,
        "time": 678.25,
        "duration": 0.333,
        "velocity": 0.54,
        "hand": "right"
      },
      {
        "midi": 49,
        "time": 678.5,
        "duration": 0.333,
        "velocity": 0.71,
        "hand": "right"
      },
      {
        "midi": 53,
        "time": 678.75,
        "duration": 0.333,
        "velocity": 0.71,
        "hand": "right"
      },
      {
        "midi": 56,
        "time": 679,
        "duration": 0.333,
        "velocity": 0.71,
        "hand": "right"
      },
      {
        "midi": 58,
        "time": 679.25,
        "duration": 0.333,
        "velocity": 0.71,
        "hand": "right"
      },
      {
        "midi": 56,
        "time": 679.5,
        "duration": 0.333,
        "velocity": 0.71,
        "hand": "right"
      },
      {
        "midi": 55,
        "time": 679.75,
        "duration": 0.333,
        "velocity": 0.71,
        "hand": "right"
      },
      {
        "midi": 56,
        "time": 680,
        "duration": 0.333,
        "velocity": 0.71,
        "hand": "right"
      },
      {
        "midi": 60,
        "time": 680.25,
        "duration": 0.333,
        "velocity": 0.71,
        "hand": "right"
      },
      {
        "midi": 61,
        "time": 680.5,
        "duration": 0.333,
        "velocity": 0.71,
        "hand": "right"
      },
      {
        "midi": 68,
        "time": 680.75,
        "duration": 0.333,
        "velocity": 0.71,
        "hand": "right"
      },
      {
        "midi": 67,
        "time": 681,
        "duration": 0.333,
        "velocity": 0.71,
        "hand": "right"
      },
      {
        "midi": 60,
        "time": 681.25,
        "duration": 0.333,
        "velocity": 0.71,
        "hand": "right"
      },
      {
        "midi": 61,
        "time": 681.5,
        "duration": 0.333,
        "velocity": 0.71,
        "hand": "right"
      },
      {
        "midi": 65,
        "time": 681.75,
        "duration": 0.333,
        "velocity": 0.71,
        "hand": "right"
      },
      {
        "midi": 68,
        "time": 682,
        "duration": 0.333,
        "velocity": 0.71,
        "hand": "right"
      },
      {
        "midi": 70,
        "time": 682.25,
        "duration": 0.333,
        "velocity": 0.71,
        "hand": "right"
      },
      {
        "midi": 68,
        "time": 682.5,
        "duration": 0.333,
        "velocity": 0.71,
        "hand": "right"
      },
      {
        "midi": 67,
        "time": 682.75,
        "duration": 0.333,
        "velocity": 0.71,
        "hand": "right"
      },
      {
        "midi": 68,
        "time": 683,
        "duration": 0.333,
        "velocity": 0.71,
        "hand": "right"
      },
      {
        "midi": 72,
        "time": 683.25,
        "duration": 0.333,
        "velocity": 0.71,
        "hand": "right"
      },
      {
        "midi": 73,
        "time": 683.5,
        "duration": 0.333,
        "velocity": 0.71,
        "hand": "right"
      },
      {
        "midi": 79,
        "time": 683.75,
        "duration": 0.333,
        "velocity": 0.71,
        "hand": "right"
      },
      {
        "midi": 77,
        "time": 684,
        "duration": 0.333,
        "velocity": 0.71,
        "hand": "right"
      },
      {
        "midi": 60,
        "time": 684.25,
        "duration": 0.333,
        "velocity": 0.71,
        "hand": "right"
      },
      {
        "midi": 61,
        "time": 684.5,
        "duration": 0.333,
        "velocity": 0.71,
        "hand": "right"
      },
      {
        "midi": 65,
        "time": 684.75,
        "duration": 0.333,
        "velocity": 0.71,
        "hand": "right"
      },
      {
        "midi": 68,
        "time": 685,
        "duration": 0.333,
        "velocity": 0.71,
        "hand": "right"
      },
      {
        "midi": 70,
        "time": 685.25,
        "duration": 0.333,
        "velocity": 0.71,
        "hand": "right"
      },
      {
        "midi": 68,
        "time": 685.5,
        "duration": 0.333,
        "velocity": 0.71,
        "hand": "right"
      },
      {
        "midi": 67,
        "time": 685.75,
        "duration": 0.333,
        "velocity": 0.71,
        "hand": "right"
      },
      {
        "midi": 68,
        "time": 686,
        "duration": 0.333,
        "velocity": 0.71,
        "hand": "right"
      },
      {
        "midi": 72,
        "time": 686.25,
        "duration": 0.333,
        "velocity": 0.71,
        "hand": "right"
      },
      {
        "midi": 73,
        "time": 686.5,
        "duration": 0.333,
        "velocity": 0.71,
        "hand": "right"
      },
      {
        "midi": 80,
        "time": 686.75,
        "duration": 0.333,
        "velocity": 0.71,
        "hand": "right"
      },
      {
        "midi": 79,
        "time": 687,
        "duration": 0.333,
        "velocity": 0.71,
        "hand": "right"
      },
      {
        "midi": 72,
        "time": 687.25,
        "duration": 0.333,
        "velocity": 0.71,
        "hand": "right"
      },
      {
        "midi": 73,
        "time": 687.5,
        "duration": 0.333,
        "velocity": 0.71,
        "hand": "right"
      },
      {
        "midi": 77,
        "time": 687.75,
        "duration": 0.333,
        "velocity": 0.71,
        "hand": "right"
      },
      {
        "midi": 80,
        "time": 688,
        "duration": 0.333,
        "velocity": 0.71,
        "hand": "right"
      },
      {
        "midi": 82,
        "time": 688.25,
        "duration": 0.333,
        "velocity": 0.71,
        "hand": "right"
      },
      {
        "midi": 80,
        "time": 688.5,
        "duration": 0.333,
        "velocity": 0.71,
        "hand": "right"
      },
      {
        "midi": 79,
        "time": 688.75,
        "duration": 0.333,
        "velocity": 0.71,
        "hand": "right"
      },
      {
        "midi": 80,
        "time": 689,
        "duration": 0.333,
        "velocity": 0.71,
        "hand": "right"
      },
      {
        "midi": 84,
        "time": 689.25,
        "duration": 0.333,
        "velocity": 0.71,
        "hand": "right"
      },
      {
        "midi": 85,
        "time": 689.5,
        "duration": 0.333,
        "velocity": 0.71,
        "hand": "right"
      },
      {
        "midi": 91,
        "time": 689.75,
        "duration": 0.333,
        "velocity": 0.71,
        "hand": "right"
      },
      {
        "midi": 89,
        "time": 690,
        "duration": 0.333,
        "velocity": 0.71,
        "hand": "right"
      },
      {
        "midi": 101,
        "time": 690.25,
        "duration": 0.333,
        "velocity": 0.71,
        "hand": "right"
      },
      {
        "midi": 99,
        "time": 690.5,
        "duration": 0.333,
        "velocity": 0.71,
        "hand": "right"
      },
      {
        "midi": 97,
        "time": 690.75,
        "duration": 0.333,
        "velocity": 0.71,
        "hand": "right"
      },
      {
        "midi": 94,
        "time": 691,
        "duration": 0.333,
        "velocity": 0.71,
        "hand": "right"
      },
      {
        "midi": 92,
        "time": 691.25,
        "duration": 0.333,
        "velocity": 0.71,
        "hand": "right"
      },
      {
        "midi": 89,
        "time": 691.5,
        "duration": 0.333,
        "velocity": 0.71,
        "hand": "right"
      },
      {
        "midi": 88,
        "time": 691.75,
        "duration": 0.333,
        "velocity": 0.71,
        "hand": "right"
      },
      {
        "midi": 85,
        "time": 692,
        "duration": 0.333,
        "velocity": 0.71,
        "hand": "right"
      },
      {
        "midi": 84,
        "time": 692.25,
        "duration": 0.333,
        "velocity": 0.71,
        "hand": "right"
      },
      {
        "midi": 80,
        "time": 692.5,
        "duration": 0.333,
        "velocity": 0.71,
        "hand": "right"
      },
      {
        "midi": 79,
        "time": 692.75,
        "duration": 0.333,
        "velocity": 0.71,
        "hand": "right"
      },
      {
        "midi": 92,
        "time": 693,
        "duration": 0.333,
        "velocity": 0.71,
        "hand": "right"
      },
      {
        "midi": 91,
        "time": 693.25,
        "duration": 0.333,
        "velocity": 0.71,
        "hand": "right"
      },
      {
        "midi": 87,
        "time": 693.5,
        "duration": 0.333,
        "velocity": 0.71,
        "hand": "right"
      },
      {
        "midi": 85,
        "time": 693.75,
        "duration": 0.333,
        "velocity": 0.71,
        "hand": "right"
      },
      {
        "midi": 82,
        "time": 694,
        "duration": 0.333,
        "velocity": 0.71,
        "hand": "right"
      },
      {
        "midi": 80,
        "time": 694.25,
        "duration": 0.333,
        "velocity": 0.71,
        "hand": "right"
      },
      {
        "midi": 77,
        "time": 694.5,
        "duration": 0.333,
        "velocity": 0.71,
        "hand": "right"
      },
      {
        "midi": 75,
        "time": 694.75,
        "duration": 0.333,
        "velocity": 0.71,
        "hand": "right"
      },
      {
        "midi": 72,
        "time": 695,
        "duration": 0.333,
        "velocity": 0.71,
        "hand": "right"
      },
      {
        "midi": 70,
        "time": 695.25,
        "duration": 0.333,
        "velocity": 0.71,
        "hand": "right"
      },
      {
        "midi": 67,
        "time": 695.5,
        "duration": 0.333,
        "velocity": 0.71,
        "hand": "right"
      },
      {
        "midi": 65,
        "time": 695.75,
        "duration": 0.333,
        "velocity": 0.71,
        "hand": "right"
      },
      {
        "midi": 60,
        "time": 696,
        "duration": 0.333,
        "velocity": 0.71,
        "hand": "right"
      },
      {
        "midi": 68,
        "time": 696.25,
        "duration": 0.333,
        "velocity": 0.71,
        "hand": "right"
      },
      {
        "midi": 72,
        "time": 696.5,
        "duration": 0.333,
        "velocity": 0.71,
        "hand": "right"
      },
      {
        "midi": 80,
        "time": 696.75,
        "duration": 0.333,
        "velocity": 0.71,
        "hand": "right"
      },
      {
        "midi": 84,
        "time": 697,
        "duration": 0.333,
        "velocity": 0.71,
        "hand": "right"
      },
      {
        "midi": 92,
        "time": 697.25,
        "duration": 0.333,
        "velocity": 0.71,
        "hand": "right"
      },
      {
        "midi": 97,
        "time": 697.5,
        "duration": 0.333,
        "velocity": 0.71,
        "hand": "right"
      },
      {
        "midi": 96,
        "time": 697.75,
        "duration": 0.333,
        "velocity": 0.71,
        "hand": "right"
      },
      {
        "midi": 89,
        "time": 698,
        "duration": 0.333,
        "velocity": 0.71,
        "hand": "right"
      },
      {
        "midi": 94,
        "time": 698.25,
        "duration": 0.333,
        "velocity": 0.71,
        "hand": "right"
      },
      {
        "midi": 89,
        "time": 698.5,
        "duration": 0.333,
        "velocity": 0.71,
        "hand": "right"
      },
      {
        "midi": 91,
        "time": 698.75,
        "duration": 0.333,
        "velocity": 0.71,
        "hand": "right"
      },
      {
        "midi": 89,
        "time": 699,
        "duration": 0.333,
        "velocity": 0.71,
        "hand": "right"
      },
      {
        "midi": 84,
        "time": 699.25,
        "duration": 0.333,
        "velocity": 0.71,
        "hand": "right"
      },
      {
        "midi": 85,
        "time": 699.5,
        "duration": 0.333,
        "velocity": 0.71,
        "hand": "right"
      },
      {
        "midi": 84,
        "time": 699.75,
        "duration": 0.333,
        "velocity": 0.71,
        "hand": "right"
      },
      {
        "midi": 77,
        "time": 700,
        "duration": 0.333,
        "velocity": 0.71,
        "hand": "right"
      },
      {
        "midi": 82,
        "time": 700.25,
        "duration": 0.333,
        "velocity": 0.71,
        "hand": "right"
      },
      {
        "midi": 77,
        "time": 700.5,
        "duration": 0.333,
        "velocity": 0.71,
        "hand": "right"
      },
      {
        "midi": 79,
        "time": 700.75,
        "duration": 0.333,
        "velocity": 0.71,
        "hand": "right"
      },
      {
        "midi": 77,
        "time": 701,
        "duration": 0.333,
        "velocity": 0.71,
        "hand": "right"
      },
      {
        "midi": 72,
        "time": 701.25,
        "duration": 0.333,
        "velocity": 0.71,
        "hand": "right"
      },
      {
        "midi": 73,
        "time": 701.5,
        "duration": 0.333,
        "velocity": 0.71,
        "hand": "right"
      },
      {
        "midi": 72,
        "time": 701.75,
        "duration": 0.333,
        "velocity": 0.71,
        "hand": "right"
      },
      {
        "midi": 65,
        "time": 702,
        "duration": 0.333,
        "velocity": 0.71,
        "hand": "right"
      },
      {
        "midi": 70,
        "time": 702.25,
        "duration": 0.333,
        "velocity": 0.71,
        "hand": "right"
      },
      {
        "midi": 65,
        "time": 702.5,
        "duration": 0.333,
        "velocity": 0.71,
        "hand": "right"
      },
      {
        "midi": 67,
        "time": 702.75,
        "duration": 0.333,
        "velocity": 0.71,
        "hand": "right"
      },
      {
        "midi": 65,
        "time": 703,
        "duration": 0.333,
        "velocity": 0.71,
        "hand": "right"
      },
      {
        "midi": 60,
        "time": 703.25,
        "duration": 0.333,
        "velocity": 0.71,
        "hand": "right"
      },
      {
        "midi": 61,
        "time": 703.5,
        "duration": 0.333,
        "velocity": 0.71,
        "hand": "right"
      },
      {
        "midi": 60,
        "time": 703.75,
        "duration": 0.333,
        "velocity": 0.71,
        "hand": "right"
      },
      {
        "midi": 53,
        "time": 704,
        "duration": 0.333,
        "velocity": 0.71,
        "hand": "right"
      },
      {
        "midi": 58,
        "time": 704.25,
        "duration": 0.333,
        "velocity": 0.71,
        "hand": "right"
      },
      {
        "midi": 53,
        "time": 704.5,
        "duration": 0.333,
        "velocity": 0.71,
        "hand": "right"
      },
      {
        "midi": 55,
        "time": 704.75,
        "duration": 0.333,
        "velocity": 0.71,
        "hand": "right"
      },
      {
        "midi": 53,
        "time": 705,
        "duration": 0.333,
        "velocity": 0.71,
        "hand": "right"
      },
      {
        "midi": 48,
        "time": 705.25,
        "duration": 0.333,
        "velocity": 0.71,
        "hand": "right"
      },
      {
        "midi": 49,
        "time": 705.5,
        "duration": 0.333,
        "velocity": 0.71,
        "hand": "right"
      },
      {
        "midi": 48,
        "time": 705.75,
        "duration": 0.333,
        "velocity": 0.71,
        "hand": "right"
      },
      {
        "midi": 41,
        "time": 706,
        "duration": 0.333,
        "velocity": 0.71,
        "hand": "right"
      },
      {
        "midi": 49,
        "time": 706.25,
        "duration": 0.333,
        "velocity": 0.71,
        "hand": "right"
      },
      {
        "midi": 44,
        "time": 706.5,
        "duration": 0.333,
        "velocity": 0.71,
        "hand": "right"
      },
      {
        "midi": 49,
        "time": 706.75,
        "duration": 0.333,
        "velocity": 0.71,
        "hand": "right"
      },
      {
        "midi": 48,
        "time": 707,
        "duration": 0.333,
        "velocity": 0.71,
        "hand": "right"
      },
      {
        "midi": 44,
        "time": 707.25,
        "duration": 0.333,
        "velocity": 0.71,
        "hand": "right"
      },
      {
        "midi": 49,
        "time": 707.5,
        "duration": 0.333,
        "velocity": 0.71,
        "hand": "right"
      },
      {
        "midi": 48,
        "time": 707.75,
        "duration": 0.333,
        "velocity": 0.71,
        "hand": "right"
      },
      {
        "midi": 41,
        "time": 708,
        "duration": 0.5,
        "velocity": 0.71,
        "hand": "right"
      },
      {
        "midi": 77,
        "time": 709.5,
        "duration": 0.5,
        "velocity": 0.71,
        "hand": "right"
      },
      {
        "midi": 85,
        "time": 711,
        "duration": 0.5,
        "velocity": 0.71,
        "hand": "right"
      },
      {
        "midi": 64,
        "time": 712.5,
        "duration": 0.5,
        "velocity": 0.71,
        "hand": "right"
      },
      {
        "midi": 65,
        "time": 714,
        "duration": 3,
        "velocity": 0.71,
        "hand": "right"
      }
    ],
    "medium": [
      {
        "midi": 67,
        "time": 0,
        "duration": 0.5,
        "velocity": 0.71,
        "hand": "right"
      },
      {
        "midi": 79,
        "time": 0,
        "duration": 0.5,
        "velocity": 0.71,
        "hand": "right"
      },
      {
        "midi": 67,
        "time": 0.5,
        "duration": 0.5,
        "velocity": 0.71,
        "hand": "right"
      },
      {
        "midi": 79,
        "time": 0.5,
        "duration": 0.5,
        "velocity": 0.71,
        "hand": "right"
      },
      {
        "midi": 67,
        "time": 1,
        "duration": 0.5,
        "velocity": 0.71,
        "hand": "right"
      },
      {
        "midi": 79,
        "time": 1,
        "duration": 0.5,
        "velocity": 0.71,
        "hand": "right"
      },
      {
        "midi": 64,
        "time": 1.5,
        "duration": 0.5,
        "velocity": 0.71,
        "hand": "right"
      },
      {
        "midi": 67,
        "time": 1.5,
        "duration": 0.5,
        "velocity": 0.71,
        "hand": "right"
      },
      {
        "midi": 79,
        "time": 1.5,
        "duration": 0.5,
        "velocity": 0.71,
        "hand": "right"
      },
      {
        "midi": 72,
        "time": 1.75,
        "duration": 0.25,
        "velocity": 0.71,
        "hand": "right"
      },
      {
        "midi": 64,
        "time": 2,
        "duration": 0.5,
        "velocity": 0.65,
        "hand": "right"
      },
      {
        "midi": 67,
        "time": 2,
        "duration": 0.5,
        "velocity": 0.71,
        "hand": "right"
      },
      {
        "midi": 79,
        "time": 2,
        "duration": 0.5,
        "velocity": 0.71,
        "hand": "right"
      },
      {
        "midi": 72,
        "time": 2.25,
        "duration": 0.25,
        "velocity": 0.71,
        "hand": "right"
      },
      {
        "midi": 62,
        "time": 2.5,
        "duration": 0.5,
        "velocity": 0.59,
        "hand": "right"
      },
      {
        "midi": 67,
        "time": 2.5,
        "duration": 0.5,
        "velocity": 0.71,
        "hand": "right"
      },
      {
        "midi": 79,
        "time": 2.5,
        "duration": 0.5,
        "velocity": 0.71,
        "hand": "right"
      },
      {
        "midi": 72,
        "time": 2.75,
        "duration": 0.25,
        "velocity": 0.71,
        "hand": "right"
      },
      {
        "midi": 62,
        "time": 3,
        "duration": 0.5,
        "velocity": 0.54,
        "hand": "right"
      },
      {
        "midi": 67,
        "time": 3,
        "duration": 0.5,
        "velocity": 0.71,
        "hand": "right"
      },
      {
        "midi": 79,
        "time": 3,
        "duration": 0.5,
        "velocity": 0.71,
        "hand": "right"
      },
      {
        "midi": 70,
        "time": 3.25,
        "duration": 0.25,
        "velocity": 0.71,
        "hand": "right"
      },
      {
        "midi": 72,
        "time": 3.25,
        "duration": 0.25,
        "velocity": 0.71,
        "hand": "right"
      },
      {
        "midi": 60,
        "time": 3.5,
        "duration": 0.5,
        "velocity": 0.48,
        "hand": "right"
      },
      {
        "midi": 67,
        "time": 3.5,
        "duration": 0.5,
        "velocity": 0.82,
        "hand": "right"
      },
      {
        "midi": 79,
        "time": 3.5,
        "duration": 0.5,
        "velocity": 0.82,
        "hand": "right"
      },
      {
        "midi": 70,
        "time": 3.75,
        "duration": 0.25,
        "velocity": 0.71,
        "hand": "right"
      },
      {
        "midi": 72,
        "time": 3.75,
        "duration": 0.25,
        "velocity": 0.71,
        "hand": "right"
      },
      {
        "midi": 67,
        "time": 4,
        "duration": 0.5,
        "velocity": 0.93,
        "hand": "right"
      },
      {
        "midi": 79,
        "time": 4,
        "duration": 0.5,
        "velocity": 0.93,
        "hand": "right"
      },
      {
        "midi": 70,
        "time": 4.25,
        "duration": 0.25,
        "velocity": 0.71,
        "hand": "right"
      },
      {
        "midi": 72,
        "time": 4.25,
        "duration": 0.25,
        "velocity": 0.71,
        "hand": "right"
      },
      {
        "midi": 41,
        "time": 4.5,
        "duration": 0.25,
        "velocity": 0.48,
        "hand": "left"
      },
      {
        "midi": 67,
        "time": 4.5,
        "duration": 0.5,
        "velocity": 0.93,
        "hand": "right"
      },
      {
        "midi": 79,
        "time": 4.5,
        "duration": 0.5,
        "velocity": 0.93,
        "hand": "right"
      },
      {
        "midi": 60,
        "time": 4.75,
        "duration": 0.25,
        "velocity": 0.48,
        "hand": "right"
      },
      {
        "midi": 69,
        "time": 4.75,
        "duration": 0.25,
        "velocity": 0.71,
        "hand": "right"
      },
      {
        "midi": 72,
        "time": 4.75,
        "duration": 0.25,
        "velocity": 0.71,
        "hand": "right"
      },
      {
        "midi": 57,
        "time": 5,
        "duration": 0.25,
        "velocity": 0.48,
        "hand": "left"
      },
      {
        "midi": 65,
        "time": 5,
        "duration": 0.5,
        "velocity": 0.82,
        "hand": "right"
      },
      {
        "midi": 77,
        "time": 5,
        "duration": 0.5,
        "velocity": 0.82,
        "hand": "right"
      },
      {
        "midi": 60,
        "time": 5.25,
        "duration": 0.25,
        "velocity": 0.48,
        "hand": "right"
      },
      {
        "midi": 69,
        "time": 5.25,
        "duration": 0.25,
        "velocity": 0.71,
        "hand": "right"
      },
      {
        "midi": 72,
        "time": 5.25,
        "duration": 0.25,
        "velocity": 0.71,
        "hand": "right"
      },
      {
        "midi": 50,
        "time": 5.5,
        "duration": 0.25,
        "velocity": 0.48,
        "hand": "left"
      },
      {
        "midi": 64,
        "time": 5.5,
        "duration": 0.5,
        "velocity": 0.71,
        "hand": "right"
      },
      {
        "midi": 76,
        "time": 5.5,
        "duration": 0.5,
        "velocity": 0.71,
        "hand": "right"
      },
      {
        "midi": 60,
        "time": 5.75,
        "duration": 0.25,
        "velocity": 0.48,
        "hand": "right"
      },
      {
        "midi": 69,
        "time": 5.75,
        "duration": 0.25,
        "velocity": 0.71,
        "hand": "right"
      },
      {
        "midi": 72,
        "time": 5.75,
        "duration": 0.25,
        "velocity": 0.71,
        "hand": "right"
      },
      {
        "midi": 43,
        "time": 6,
        "duration": 0.25,
        "velocity": 0.48,
        "hand": "left"
      },
      {
        "midi": 64,
        "time": 6,
        "duration": 0.5,
        "velocity": 0.71,
        "hand": "right"
      },
      {
        "midi": 76,
        "time": 6,
        "duration": 0.5,
        "velocity": 0.71,
        "hand": "right"
      },
      {
        "midi": 55,
        "time": 6.25,
        "duration": 0.25,
        "velocity": 0.48,
        "hand": "left"
      },
      {
        "midi": 67,
        "time": 6.25,
        "duration": 0.25,
        "velocity": 0.71,
        "hand": "right"
      },
      {
        "midi": 71,
        "time": 6.25,
        "duration": 0.25,
        "velocity": 0.71,
        "hand": "right"
      },
      {
        "midi": 53,
        "time": 6.5,
        "duration": 0.25,
        "velocity": 0.48,
        "hand": "left"
      },
      {
        "midi": 62,
        "time": 6.5,
        "duration": 0.5,
        "velocity": 0.71,
        "hand": "right"
      },
      {
        "midi": 74,
        "time": 6.5,
        "duration": 0.5,
        "velocity": 0.71,
        "hand": "right"
      },
      {
        "midi": 55,
        "time": 6.75,
        "duration": 0.25,
        "velocity": 0.48,
        "hand": "left"
      },
      {
        "midi": 67,
        "time": 6.75,
        "duration": 0.25,
        "velocity": 0.71,
        "hand": "right"
      },
      {
        "midi": 71,
        "time": 6.75,
        "duration": 0.25,
        "velocity": 0.71,
        "hand": "right"
      },
      {
        "midi": 52,
        "time": 7,
        "duration": 0.25,
        "velocity": 0.48,
        "hand": "left"
      },
      {
        "midi": 60,
        "time": 7,
        "duration": 0.5,
        "velocity": 0.71,
        "hand": "right"
      },
      {
        "midi": 72,
        "time": 7,
        "duration": 0.5,
        "velocity": 0.71,
        "hand": "right"
      },
      {
        "midi": 55,
        "time": 7.25,
        "duration": 0.25,
        "velocity": 0.48,
        "hand": "left"
      },
      {
        "midi": 67,
        "time": 7.25,
        "duration": 0.25,
        "velocity": 0.71,
        "hand": "right"
      },
      {
        "midi": 48,
        "time": 7.5,
        "duration": 0.25,
        "velocity": 0.48,
        "hand": "left"
      },
      {
        "midi": 64,
        "time": 7.5,
        "duration": 0.25,
        "velocity": 0.71,
        "hand": "right"
      },
      {
        "midi": 76,
        "time": 7.5,
        "duration": 1.5,
        "velocity": 0.71,
        "hand": "right"
      },
      {
        "midi": 55,
        "time": 7.75,
        "duration": 0.25,
        "velocity": 0.48,
        "hand": "left"
      },
      {
        "midi": 67,
        "time": 7.75,
        "duration": 0.25,
        "velocity": 0.71,
        "hand": "right"
      },
      {
        "midi": 72,
        "time": 7.75,
        "duration": 0.25,
        "velocity": 0.71,
        "hand": "right"
      },
      {
        "midi": 60,
        "time": 8,
        "duration": 0.25,
        "velocity": 0.48,
        "hand": "right"
      },
      {
        "midi": 64,
        "time": 8,
        "duration": 0.25,
        "velocity": 0.71,
        "hand": "right"
      },
      {
        "midi": 57,
        "time": 8.25,
        "duration": 0.25,
        "velocity": 0.48,
        "hand": "left"
      },
      {
        "midi": 65,
        "time": 8.25,
        "duration": 0.25,
        "velocity": 0.71,
        "hand": "right"
      },
      {
        "midi": 72,
        "time": 8.25,
        "duration": 0.25,
        "velocity": 0.71,
        "hand": "right"
      },
      {
        "midi": 55,
        "time": 8.5,
        "duration": 0.25,
        "velocity": 0.48,
        "hand": "left"
      },
      {
        "midi": 64,
        "time": 8.5,
        "duration": 0.25,
        "velocity": 0.71,
        "hand": "right"
      },
      {
        "midi": 67,
        "time": 8.75,
        "duration": 0.25,
        "velocity": 0.71,
        "hand": "right"
      },
      {
        "midi": 72,
        "time": 8.75,
        "duration": 0.25,
        "velocity": 0.71,
        "hand": "right"
      },
      {
        "midi": 36,
        "time": 9,
        "duration": 0.25,
        "velocity": 0.48,
        "hand": "left"
      },
      {
        "midi": 64,
        "time": 9,
        "duration": 0.5,
        "velocity": 0.71,
        "hand": "right"
      },
      {
        "midi": 79,
        "time": 9,
        "duration": 0.5,
        "velocity": 0.71,
        "hand": "right"
      },
      {
        "midi": 55,
        "time": 9.25,
        "duration": 0.25,
        "velocity": 0.48,
        "hand": "left"
      },
      {
        "midi": 72,
        "time": 9.25,
        "duration": 0.25,
        "velocity": 0.71,
        "hand": "right"
      },
      {
        "midi": 60,
        "time": 9.5,
        "duration": 0.25,
        "velocity": 0.48,
        "hand": "right"
      },
      {
        "midi": 67,
        "time": 9.5,
        "duration": 0.5,
        "velocity": 0.71,
        "hand": "right"
      },
      {
        "midi": 79,
        "time": 9.5,
        "duration": 0.5,
        "velocity": 0.71,
        "hand": "right"
      },
      {
        "midi": 62,
        "time": 9.75,
        "duration": 0.25,
        "velocity": 0.48,
        "hand": "right"
      },
      {
        "midi": 70,
        "time": 9.75,
        "duration": 0.25,
        "velocity": 0.71,
        "hand": "right"
      },
      {
        "midi": 72,
        "time": 9.75,
        "duration": 0.25,
        "velocity": 0.71,
        "hand": "right"
      },
      {
        "midi": 64,
        "time": 10,
        "duration": 0.5,
        "velocity": 0.48,
        "hand": "right"
      },
      {
        "midi": 67,
        "time": 10,
        "duration": 0.5,
        "velocity": 0.71,
        "hand": "right"
      },
      {
        "midi": 79,
        "time": 10,
        "duration": 0.5,
        "velocity": 0.71,
        "hand": "right"
      },
      {
        "midi": 70,
        "time": 10.25,
        "duration": 0.25,
        "velocity": 0.71,
        "hand": "right"
      },
      {
        "midi": 72,
        "time": 10.25,
        "duration": 0.25,
        "velocity": 0.71,
        "hand": "right"
      },
      {
        "midi": 41,
        "time": 10.5,
        "duration": 0.25,
        "velocity": 0.48,
        "hand": "left"
      },
      {
        "midi": 67,
        "time": 10.5,
        "duration": 0.5,
        "velocity": 0.71,
        "hand": "right"
      },
      {
        "midi": 79,
        "time": 10.5,
        "duration": 0.5,
        "velocity": 0.71,
        "hand": "right"
      },
      {
        "midi": 60,
        "time": 10.75,
        "duration": 0.25,
        "velocity": 0.48,
        "hand": "right"
      },
      {
        "midi": 69,
        "time": 10.75,
        "duration": 0.25,
        "velocity": 0.71,
        "hand": "right"
      },
      {
        "midi": 72,
        "time": 10.75,
        "duration": 0.25,
        "velocity": 0.71,
        "hand": "right"
      },
      {
        "midi": 57,
        "time": 11,
        "duration": 0.25,
        "velocity": 0.48,
        "hand": "left"
      },
      {
        "midi": 65,
        "time": 11,
        "duration": 0.5,
        "velocity": 0.71,
        "hand": "right"
      },
      {
        "midi": 77,
        "time": 11,
        "duration": 0.5,
        "velocity": 0.71,
        "hand": "right"
      },
      {
        "midi": 60,
        "time": 11.25,
        "duration": 0.25,
        "velocity": 0.48,
        "hand": "right"
      },
      {
        "midi": 69,
        "time": 11.25,
        "duration": 0.25,
        "velocity": 0.71,
        "hand": "right"
      },
      {
        "midi": 72,
        "time": 11.25,
        "duration": 0.25,
        "velocity": 0.71,
        "hand": "right"
      },
      {
        "midi": 50,
        "time": 11.5,
        "duration": 0.25,
        "velocity": 0.48,
        "hand": "left"
      },
      {
        "midi": 64,
        "time": 11.5,
        "duration": 0.5,
        "velocity": 0.71,
        "hand": "right"
      },
      {
        "midi": 76,
        "time": 11.5,
        "duration": 0.5,
        "velocity": 0.71,
        "hand": "right"
      },
      {
        "midi": 60,
        "time": 11.75,
        "duration": 0.25,
        "velocity": 0.48,
        "hand": "right"
      },
      {
        "midi": 69,
        "time": 11.75,
        "duration": 0.25,
        "velocity": 0.71,
        "hand": "right"
      },
      {
        "midi": 72,
        "time": 11.75,
        "duration": 0.25,
        "velocity": 0.71,
        "hand": "right"
      },
      {
        "midi": 43,
        "time": 12,
        "duration": 0.25,
        "velocity": 0.48,
        "hand": "left"
      },
      {
        "midi": 64,
        "time": 12,
        "duration": 0.5,
        "velocity": 0.71,
        "hand": "right"
      },
      {
        "midi": 76,
        "time": 12,
        "duration": 0.5,
        "velocity": 0.71,
        "hand": "right"
      },
      {
        "midi": 55,
        "time": 12.25,
        "duration": 0.25,
        "velocity": 0.48,
        "hand": "left"
      },
      {
        "midi": 67,
        "time": 12.25,
        "duration": 0.25,
        "velocity": 0.71,
        "hand": "right"
      },
      {
        "midi": 71,
        "time": 12.25,
        "duration": 0.25,
        "velocity": 0.71,
        "hand": "right"
      },
      {
        "midi": 53,
        "time": 12.5,
        "duration": 0.25,
        "velocity": 0.48,
        "hand": "left"
      },
      {
        "midi": 62,
        "time": 12.5,
        "duration": 0.5,
        "velocity": 0.71,
        "hand": "right"
      },
      {
        "midi": 74,
        "time": 12.5,
        "duration": 0.5,
        "velocity": 0.71,
        "hand": "right"
      },
      {
        "midi": 55,
        "time": 12.75,
        "duration": 0.25,
        "velocity": 0.48,
        "hand": "left"
      },
      {
        "midi": 67,
        "time": 12.75,
        "duration": 0.25,
        "velocity": 0.71,
        "hand": "right"
      },
      {
        "midi": 71,
        "time": 12.75,
        "duration": 0.25,
        "velocity": 0.71,
        "hand": "right"
      },
      {
        "midi": 52,
        "time": 13,
        "duration": 0.25,
        "velocity": 0.48,
        "hand": "left"
      },
      {
        "midi": 60,
        "time": 13,
        "duration": 0.5,
        "velocity": 0.71,
        "hand": "right"
      },
      {
        "midi": 72,
        "time": 13,
        "duration": 0.5,
        "velocity": 0.71,
        "hand": "right"
      },
      {
        "midi": 55,
        "time": 13.25,
        "duration": 0.25,
        "velocity": 0.48,
        "hand": "left"
      },
      {
        "midi": 67,
        "time": 13.25,
        "duration": 0.25,
        "velocity": 0.71,
        "hand": "right"
      },
      {
        "midi": 48,
        "time": 13.5,
        "duration": 0.25,
        "velocity": 0.48,
        "hand": "left"
      },
      {
        "midi": 64,
        "time": 13.5,
        "duration": 0.25,
        "velocity": 0.71,
        "hand": "right"
      },
      {
        "midi": 76,
        "time": 13.5,
        "duration": 1.5,
        "velocity": 0.71,
        "hand": "right"
      },
      {
        "midi": 55,
        "time": 13.75,
        "duration": 0.25,
        "velocity": 0.48,
        "hand": "left"
      },
      {
        "midi": 67,
        "time": 13.75,
        "duration": 0.25,
        "velocity": 0.71,
        "hand": "right"
      },
      {
        "midi": 72,
        "time": 13.75,
        "duration": 0.25,
        "velocity": 0.71,
        "hand": "right"
      },
      {
        "midi": 60,
        "time": 14,
        "duration": 0.25,
        "velocity": 0.48,
        "hand": "right"
      },
      {
        "midi": 64,
        "time": 14,
        "duration": 0.25,
        "velocity": 0.71,
        "hand": "right"
      },
      {
        "midi": 57,
        "time": 14.25,
        "duration": 0.25,
        "velocity": 0.48,
        "hand": "left"
      },
      {
        "midi": 65,
        "time": 14.25,
        "duration": 0.25,
        "velocity": 0.71,
        "hand": "right"
      },
      {
        "midi": 72,
        "time": 14.25,
        "duration": 0.25,
        "velocity": 0.71,
        "hand": "right"
      },
      {
        "midi": 55,
        "time": 14.5,
        "duration": 0.25,
        "velocity": 0.48,
        "hand": "left"
      },
      {
        "midi": 64,
        "time": 14.5,
        "duration": 0.25,
        "velocity": 0.71,
        "hand": "right"
      },
      {
        "midi": 67,
        "time": 14.75,
        "duration": 0.25,
        "velocity": 0.71,
        "hand": "right"
      },
      {
        "midi": 72,
        "time": 14.75,
        "duration": 0.25,
        "velocity": 0.71,
        "hand": "right"
      },
      {
        "midi": 43,
        "time": 15,
        "duration": 0.25,
        "velocity": 0.71,
        "hand": "left"
      },
      {
        "midi": 64,
        "time": 15,
        "duration": 0.5,
        "velocity": 0.71,
        "hand": "right"
      },
      {
        "midi": 76,
        "time": 15,
        "duration": 0.5,
        "velocity": 0.71,
        "hand": "right"
      },
      {
        "midi": 55,
        "time": 15.25,
        "duration": 0.25,
        "velocity": 0.71,
        "hand": "left"
      },
      {
        "midi": 67,
        "time": 15.25,
        "duration": 0.25,
        "velocity": 0.71,
        "hand": "right"
      },
      {
        "midi": 71,
        "time": 15.25,
        "duration": 0.25,
        "velocity": 0.71,
        "hand": "right"
      },
      {
        "midi": 53,
        "time": 15.5,
        "duration": 0.25,
        "velocity": 0.71,
        "hand": "left"
      },
      {
        "midi": 62,
        "time": 15.5,
        "duration": 0.5,
        "velocity": 0.71,
        "hand": "right"
      },
      {
        "midi": 74,
        "time": 15.5,
        "duration": 0.5,
        "velocity": 0.71,
        "hand": "right"
      },
      {
        "midi": 55,
        "time": 15.75,
        "duration": 0.25,
        "velocity": 0.71,
        "hand": "left"
      },
      {
        "midi": 67,
        "time": 15.75,
        "duration": 0.25,
        "velocity": 0.71,
        "hand": "right"
      },
      {
        "midi": 71,
        "time": 15.75,
        "duration": 0.25,
        "velocity": 0.71,
        "hand": "right"
      },
      {
        "midi": 52,
        "time": 16,
        "duration": 0.25,
        "velocity": 0.71,
        "hand": "left"
      },
      {
        "midi": 60,
        "time": 16,
        "duration": 0.5,
        "velocity": 0.71,
        "hand": "right"
      },
      {
        "midi": 72,
        "time": 16,
        "duration": 0.5,
        "velocity": 0.71,
        "hand": "right"
      },
      {
        "midi": 55,
        "time": 16.25,
        "duration": 0.25,
        "velocity": 0.71,
        "hand": "left"
      },
      {
        "midi": 67,
        "time": 16.25,
        "duration": 0.25,
        "velocity": 0.71,
        "hand": "right"
      },
      {
        "midi": 48,
        "time": 16.5,
        "duration": 0.25,
        "velocity": 0.71,
        "hand": "left"
      },
      {
        "midi": 64,
        "time": 16.5,
        "duration": 0.25,
        "velocity": 0.71,
        "hand": "right"
      },
      {
        "midi": 76,
        "time": 16.5,
        "duration": 4,
        "velocity": 0.71,
        "hand": "right"
      },
      {
        "midi": 55,
        "time": 16.75,
        "duration": 0.25,
        "velocity": 0.71,
        "hand": "left"
      },
      {
        "midi": 67,
        "time": 16.75,
        "duration": 0.25,
        "velocity": 0.71,
        "hand": "right"
      },
      {
        "midi": 72,
        "time": 16.75,
        "duration": 0.25,
        "velocity": 0.71,
        "hand": "right"
      },
      {
        "midi": 60,
        "time": 17,
        "duration": 0.25,
        "velocity": 0.71,
        "hand": "right"
      },
      {
        "midi": 64,
        "time": 17,
        "duration": 0.25,
        "velocity": 0.71,
        "hand": "right"
      },
      {
        "midi": 57,
        "time": 17.25,
        "duration": 0.25,
        "velocity": 0.71,
        "hand": "left"
      },
      {
        "midi": 65,
        "time": 17.25,
        "duration": 0.25,
        "velocity": 0.71,
        "hand": "right"
      },
      {
        "midi": 72,
        "time": 17.25,
        "duration": 0.25,
        "velocity": 0.71,
        "hand": "right"
      },
      {
        "midi": 55,
        "time": 17.5,
        "duration": 0.25,
        "velocity": 0.71,
        "hand": "left"
      },
      {
        "midi": 64,
        "time": 17.5,
        "duration": 0.25,
        "velocity": 0.71,
        "hand": "right"
      },
      {
        "midi": 48,
        "time": 17.75,
        "duration": 0.25,
        "velocity": 0.71,
        "hand": "left"
      },
      {
        "midi": 67,
        "time": 17.75,
        "duration": 0.25,
        "velocity": 0.71,
        "hand": "right"
      },
      {
        "midi": 72,
        "time": 17.75,
        "duration": 0.25,
        "velocity": 0.71,
        "hand": "right"
      },
      {
        "midi": 60,
        "time": 18,
        "duration": 0.25,
        "velocity": 0.71,
        "hand": "right"
      },
      {
        "midi": 64,
        "time": 18,
        "duration": 0.25,
        "velocity": 0.71,
        "hand": "right"
      },
      {
        "midi": 57,
        "time": 18.25,
        "duration": 0.25,
        "velocity": 0.71,
        "hand": "left"
      },
      {
        "midi": 65,
        "time": 18.25,
        "duration": 0.25,
        "velocity": 0.71,
        "hand": "right"
      },
      {
        "midi": 72,
        "time": 18.25,
        "duration": 0.25,
        "velocity": 0.71,
        "hand": "right"
      },
      {
        "midi": 55,
        "time": 18.5,
        "duration": 0.25,
        "velocity": 0.71,
        "hand": "left"
      },
      {
        "midi": 64,
        "time": 18.5,
        "duration": 0.25,
        "velocity": 0.71,
        "hand": "right"
      },
      {
        "midi": 48,
        "time": 18.75,
        "duration": 0.75,
        "velocity": 0.71,
        "hand": "left"
      },
      {
        "midi": 67,
        "time": 18.75,
        "duration": 0.25,
        "velocity": 0.71,
        "hand": "right"
      },
      {
        "midi": 72,
        "time": 18.75,
        "duration": 0.25,
        "velocity": 0.71,
        "hand": "right"
      },
      {
        "midi": 60,
        "time": 19,
        "duration": 0.25,
        "velocity": 0.71,
        "hand": "right"
      },
      {
        "midi": 64,
        "time": 19,
        "duration": 0.25,
        "velocity": 0.71,
        "hand": "right"
      },
      {
        "midi": 57,
        "time": 19.25,
        "duration": 0.25,
        "velocity": 0.71,
        "hand": "left"
      },
      {
        "midi": 65,
        "time": 19.25,
        "duration": 0.25,
        "velocity": 0.71,
        "hand": "right"
      },
      {
        "midi": 72,
        "time": 19.25,
        "duration": 1.25,
        "velocity": 0.71,
        "hand": "right"
      },
      {
        "midi": 48,
        "time": 19.5,
        "duration": 1,
        "velocity": 0.71,
        "hand": "left"
      },
      {
        "midi": 55,
        "time": 19.5,
        "duration": 1,
        "velocity": 0.71,
        "hand": "left"
      },
      {
        "midi": 64,
        "time": 19.5,
        "duration": 1,
        "velocity": 0.71,
        "hand": "right"
      },
      {
        "midi": 72,
        "time": 20.5,
        "duration": 1,
        "velocity": 0.71,
        "hand": "right"
      },
      {
        "midi": 73,
        "time": 21.5,
        "duration": 0.5,
        "velocity": 0.71,
        "hand": "right"
      },
      {
        "midi": 71,
        "time": 22,
        "duration": 1,
        "velocity": 0.71,
        "hand": "right"
      },
      {
        "midi": 41,
        "time": 22.5,
        "duration": 0.5,
        "velocity": 0.48,
        "hand": "left"
      },
      {
        "midi": 60,
        "time": 23,
        "duration": 0.5,
        "velocity": 0.48,
        "hand": "right"
      },
      {
        "midi": 68,
        "time": 23,
        "duration": 0.5,
        "velocity": 0.48,
        "hand": "right"
      },
      {
        "midi": 72,
        "time": 23,
        "duration": 0.5,
        "velocity": 0.71,
        "hand": "right"
      },
      {
        "midi": 56,
        "time": 23.5,
        "duration": 0.5,
        "velocity": 0.48,
        "hand": "left"
      },
      {
        "midi": 65,
        "time": 23.5,
        "duration": 0.5,
        "velocity": 0.48,
        "hand": "right"
      },
      {
        "midi": 77,
        "time": 23.5,
        "duration": 0.5,
        "velocity": 0.71,
        "hand": "right"
      },
      {
        "midi": 53,
        "time": 24,
        "duration": 0.5,
        "velocity": 0.48,
        "hand": "left"
      },
      {
        "midi": 76,
        "time": 24,
        "duration": 0.5,
        "velocity": 0.71,
        "hand": "right"
      },
      {
        "midi": 61,
        "time": 24.5,
        "duration": 0.5,
        "velocity": 0.48,
        "hand": "right"
      },
      {
        "midi": 67,
        "time": 24.5,
        "duration": 0.5,
        "velocity": 0.48,
        "hand": "right"
      },
      {
        "midi": 70,
        "time": 24.5,
        "duration": 0.5,
        "velocity": 0.71,
        "hand": "right"
      },
      {
        "midi": 58,
        "time": 25,
        "duration": 0.5,
        "velocity": 0.48,
        "hand": "left"
      },
      {
        "midi": 64,
        "time": 25,
        "duration": 0.5,
        "velocity": 0.48,
        "hand": "right"
      },
      {
        "midi": 73,
        "time": 25,
        "duration": 1,
        "velocity": 0.71,
        "hand": "right"
      },
      {
        "midi": 41,
        "time": 25.5,
        "duration": 0.5,
        "velocity": 0.48,
        "hand": "left"
      },
      {
        "midi": 60,
        "time": 26,
        "duration": 0.5,
        "velocity": 0.48,
        "hand": "right"
      },
      {
        "midi": 68,
        "time": 26,
        "duration": 0.5,
        "velocity": 0.48,
        "hand": "right"
      },
      {
        "midi": 72,
        "time": 26,
        "duration": 0.5,
        "velocity": 0.71,
        "hand": "right"
      },
      {
        "midi": 56,
        "time": 26.5,
        "duration": 0.5,
        "velocity": 0.48,
        "hand": "left"
      },
      {
        "midi": 65,
        "time": 26.5,
        "duration": 0.5,
        "velocity": 0.48,
        "hand": "right"
      },
      {
        "midi": 77,
        "time": 26.5,
        "duration": 0.5,
        "velocity": 0.71,
        "hand": "right"
      },
      {
        "midi": 53,
        "time": 27,
        "duration": 0.5,
        "velocity": 0.48,
        "hand": "left"
      },
      {
        "midi": 76,
        "time": 27,
        "duration": 0.5,
        "velocity": 0.71,
        "hand": "right"
      },
      {
        "midi": 61,
        "time": 27.5,
        "duration": 0.5,
        "velocity": 0.48,
        "hand": "right"
      },
      {
        "midi": 67,
        "time": 27.5,
        "duration": 0.5,
        "velocity": 0.48,
        "hand": "right"
      },
      {
        "midi": 70,
        "time": 27.5,
        "duration": 0.5,
        "velocity": 0.71,
        "hand": "right"
      },
      {
        "midi": 58,
        "time": 28,
        "duration": 0.5,
        "velocity": 0.48,
        "hand": "left"
      },
      {
        "midi": 64,
        "time": 28,
        "duration": 0.5,
        "velocity": 0.48,
        "hand": "right"
      },
      {
        "midi": 73,
        "time": 28,
        "duration": 0.5,
        "velocity": 0.71,
        "hand": "right"
      },
      {
        "midi": 53,
        "time": 28.5,
        "duration": 0.5,
        "velocity": 0.48,
        "hand": "left"
      },
      {
        "midi": 60,
        "time": 29,
        "duration": 0.5,
        "velocity": 0.48,
        "hand": "right"
      },
      {
        "midi": 68,
        "time": 29,
        "duration": 0.5,
        "velocity": 0.48,
        "hand": "right"
      },
      {
        "midi": 72,
        "time": 29,
        "duration": 0.25,
        "velocity": 0.71,
        "hand": "right"
      },
      {
        "midi": 73,
        "time": 29.25,
        "duration": 0.25,
        "velocity": 0.71,
        "hand": "right"
      },
      {
        "midi": 56,
        "time": 29.5,
        "duration": 0.5,
        "velocity": 0.48,
        "hand": "left"
      },
      {
        "midi": 65,
        "time": 29.5,
        "duration": 0.5,
        "velocity": 0.48,
        "hand": "right"
      },
      {
        "midi": 72,
        "time": 29.5,
        "duration": 0.25,
        "velocity": 0.71,
        "hand": "right"
      },
      {
        "midi": 73,
        "time": 29.75,
        "duration": 0.25,
        "velocity": 0.71,
        "hand": "right"
      },
      {
        "midi": 51,
        "time": 30,
        "duration": 0.5,
        "velocity": 0.48,
        "hand": "left"
      },
      {
        "midi": 75,
        "time": 30,
        "duration": 0.5,
        "velocity": 0.71,
        "hand": "right"
      },
      {
        "midi": 60,
        "time": 30.5,
        "duration": 0.5,
        "velocity": 0.48,
        "hand": "right"
      },
      {
        "midi": 68,
        "time": 30.5,
        "duration": 0.5,
        "velocity": 0.48,
        "hand": "right"
      },
      {
        "midi": 75,
        "time": 30.5,
        "duration": 0.5,
        "velocity": 0.71,
        "hand": "right"
      },
      {
        "midi": 51,
        "time": 31,
        "duration": 0.5,
        "velocity": 0.48,
        "hand": "left"
      },
      {
        "midi": 75,
        "time": 31,
        "duration": 0.5,
        "velocity": 0.71,
        "hand": "right"
      },
      {
        "midi": 39,
        "time": 31.5,
        "duration": 0.5,
        "velocity": 0.48,
        "hand": "left"
      },
      {
        "midi": 75,
        "time": 31.5,
        "duration": 0.5,
        "velocity": 0.71,
        "hand": "right"
      },
      {
        "midi": 61,
        "time": 32,
        "duration": 0.5,
        "velocity": 0.48,
        "hand": "right"
      },
      {
        "midi": 67,
        "time": 32,
        "duration": 0.5,
        "velocity": 0.48,
        "hand": "right"
      },
      {
        "midi": 73,
        "time": 32,
        "duration": 0.25,
        "velocity": 0.71,
        "hand": "right"
      },
      {
        "midi": 72,
        "time": 32.25,
        "duration": 0.25,
        "velocity": 0.71,
        "hand": "right"
      },
      {
        "midi": 55,
        "time": 32.5,
        "duration": 0.5,
        "velocity": 0.48,
        "hand": "left"
      },
      {
        "midi": 63,
        "time": 32.5,
        "duration": 0.5,
        "velocity": 0.48,
        "hand": "right"
      },
      {
        "midi": 70,
        "time": 32.5,
        "duration": 0.25,
        "velocity": 0.71,
        "hand": "right"
      },
      {
        "midi": 72,
        "time": 32.75,
        "duration": 0.25,
        "velocity": 0.71,
        "hand": "right"
      },
      {
        "midi": 44,
        "time": 33,
        "duration": 0.5,
        "velocity": 0.48,
        "hand": "left"
      },
      {
        "midi": 68,
        "time": 33,
        "duration": 0.5,
        "velocity": 0.71,
        "hand": "right"
      },
      {
        "midi": 56,
        "time": 33.5,
        "duration": 0.5,
        "velocity": 0.48,
        "hand": "left"
      },
      {
        "midi": 60,
        "time": 33.5,
        "duration": 0.5,
        "velocity": 0.48,
        "hand": "right"
      },
      {
        "midi": 63,
        "time": 33.5,
        "duration": 0.5,
        "velocity": 0.48,
        "hand": "right"
      },
      {
        "midi": 51,
        "time": 34,
        "duration": 0.5,
        "velocity": 0.48,
        "hand": "left"
      },
      {
        "midi": 56,
        "time": 34,
        "duration": 0.5,
        "velocity": 0.48,
        "hand": "left"
      },
      {
        "midi": 60,
        "time": 34,
        "duration": 0.5,
        "velocity": 0.48,
        "hand": "right"
      },
      {
        "midi": 56,
        "time": 34.5,
        "duration": 0.5,
        "velocity": 0.48,
        "hand": "left"
      },
      {
        "midi": 60,
        "time": 34.5,
        "duration": 0.5,
        "velocity": 0.48,
        "hand": "right"
      },
      {
        "midi": 65,
        "time": 34.5,
        "duration": 0.5,
        "velocity": 0.48,
        "hand": "right"
      },
      {
        "midi": 56,
        "time": 35,
        "duration": 0.5,
        "velocity": 0.48,
        "hand": "left"
      },
      {
        "midi": 60,
        "time": 35,
        "duration": 0.5,
        "velocity": 0.48,
        "hand": "right"
      },
      {
        "midi": 63,
        "time": 35,
        "duration": 0.5,
        "velocity": 0.48,
        "hand": "right"
      },
      {
        "midi": 51,
        "time": 35.5,
        "duration": 0.5,
        "velocity": 0.48,
        "hand": "left"
      },
      {
        "midi": 56,
        "time": 35.5,
        "duration": 0.5,
        "velocity": 0.48,
        "hand": "left"
      },
      {
        "midi": 60,
        "time": 35.5,
        "duration": 0.5,
        "velocity": 0.48,
        "hand": "right"
      },
      {
        "midi": 32,
        "time": 36,
        "duration": 0.5,
        "velocity": 0.48,
        "hand": "left"
      },
      {
        "midi": 63,
        "time": 36.5,
        "duration": 0.5,
        "velocity": 0.48,
        "hand": "right"
      },
      {
        "midi": 72,
        "time": 36.5,
        "duration": 0.5,
        "velocity": 0.48,
        "hand": "right"
      },
      {
        "midi": 75,
        "time": 36.5,
        "duration": 0.5,
        "velocity": 0.71,
        "hand": "right"
      },
      {
        "midi": 60,
        "time": 37,
        "duration": 0.5,
        "velocity": 0.48,
        "hand": "right"
      },
      {
        "midi": 68,
        "time": 37,
        "duration": 0.5,
        "velocity": 0.48,
        "hand": "right"
      },
      {
        "midi": 80,
        "time": 37,
        "duration": 0.5,
        "velocity": 0.71,
        "hand": "right"
      },
      {
        "midi": 56,
        "time": 37.5,
        "duration": 0.5,
        "velocity": 0.48,
        "hand": "left"
      },
      {
        "midi": 79,
        "time": 37.5,
        "duration": 0.5,
        "velocity": 0.71,
        "hand": "right"
      },
      {
        "midi": 64,
        "time": 38,
        "duration": 0.5,
        "velocity": 0.48,
        "hand": "right"
      },
      {
        "midi": 70,
        "time": 38,
        "duration": 0.5,
        "velocity": 0.48,
        "hand": "right"
      },
      {
        "midi": 73,
        "time": 38,
        "duration": 0.5,
        "velocity": 0.71,
        "hand": "right"
      },
      {
        "midi": 61,
        "time": 38.5,
        "duration": 0.5,
        "velocity": 0.48,
        "hand": "right"
      },
      {
        "midi": 67,
        "time": 38.5,
        "duration": 0.5,
        "velocity": 0.48,
        "hand": "right"
      },
      {
        "midi": 76,
        "time": 38.5,
        "duration": 1,
        "velocity": 0.71,
        "hand": "right"
      },
      {
        "midi": 44,
        "time": 39,
        "duration": 0.5,
        "velocity": 0.48,
        "hand": "left"
      },
      {
        "midi": 63,
        "time": 39.5,
        "duration": 0.5,
        "velocity": 0.48,
        "hand": "right"
      },
      {
        "midi": 72,
        "time": 39.5,
        "duration": 0.5,
        "velocity": 0.48,
        "hand": "right"
      },
      {
        "midi": 75,
        "time": 39.5,
        "duration": 0.5,
        "velocity": 0.71,
        "hand": "right"
      },
      {
        "midi": 60,
        "time": 40,
        "duration": 0.5,
        "velocity": 0.48,
        "hand": "right"
      },
      {
        "midi": 68,
        "time": 40,
        "duration": 0.5,
        "velocity": 0.48,
        "hand": "right"
      },
      {
        "midi": 80,
        "time": 40,
        "duration": 0.5,
        "velocity": 0.71,
        "hand": "right"
      },
      {
        "midi": 56,
        "time": 40.5,
        "duration": 0.5,
        "velocity": 0.48,
        "hand": "left"
      },
      {
        "midi": 79,
        "time": 40.5,
        "duration": 0.5,
        "velocity": 0.71,
        "hand": "right"
      },
      {
        "midi": 64,
        "time": 41,
        "duration": 0.5,
        "velocity": 0.48,
        "hand": "right"
      },
      {
        "midi": 70,
        "time": 41,
        "duration": 0.5,
        "velocity": 0.48,
        "hand": "right"
      },
      {
        "midi": 73,
        "time": 41,
        "duration": 0.5,
        "velocity": 0.71,
        "hand": "right"
      },
      {
        "midi": 58,
        "time": 41.5,
        "duration": 0.5,
        "velocity": 0.48,
        "hand": "left"
      },
      {
        "midi": 67,
        "time": 41.5,
        "duration": 0.5,
        "velocity": 0.48,
        "hand": "right"
      },
      {
        "midi": 76,
        "time": 41.5,
        "duration": 0.5,
        "velocity": 0.71,
        "hand": "right"
      },
      {
        "midi": 44,
        "time": 42,
        "duration": 0.5,
        "velocity": 0.48,
        "hand": "left"
      },
      {
        "midi": 63,
        "time": 42.5,
        "duration": 0.5,
        "velocity": 0.48,
        "hand": "right"
      },
      {
        "midi": 72,
        "time": 42.5,
        "duration": 0.5,
        "velocity": 0.48,
        "hand": "right"
      },
      {
        "midi": 75,
        "time": 42.5,
        "duration": 0.25,
        "velocity": 0.71,
        "hand": "right"
      },
      {
        "midi": 77,
        "time": 42.75,
        "duration": 0.25,
        "velocity": 0.71,
        "hand": "right"
      },
      {
        "midi": 60,
        "time": 43,
        "duration": 0.5,
        "velocity": 0.48,
        "hand": "right"
      },
      {
        "midi": 68,
        "time": 43,
        "duration": 0.5,
        "velocity": 0.48,
        "hand": "right"
      },
      {
        "midi": 75,
        "time": 43,
        "duration": 0.25,
        "velocity": 0.71,
        "hand": "right"
      },
      {
        "midi": 77,
        "time": 43.25,
        "duration": 0.25,
        "velocity": 0.71,
        "hand": "right"
      },
      {
        "midi": 39,
        "time": 43.5,
        "duration": 0.5,
        "velocity": 0.48,
        "hand": "left"
      },
      {
        "midi": 78,
        "time": 43.5,
        "duration": 0.5,
        "velocity": 0.71,
        "hand": "right"
      },
      {
        "midi": 63,
        "time": 44,
        "duration": 0.5,
        "velocity": 0.48,
        "hand": "right"
      },
      {
        "midi": 70,
        "time": 44,
        "duration": 0.5,
        "velocity": 0.48,
        "hand": "right"
      },
      {
        "midi": 78,
        "time": 44,
        "duration": 0.5,
        "velocity": 0.71,
        "hand": "right"
      },
      {
        "midi": 58,
        "time": 44.5,
        "duration": 0.5,
        "velocity": 0.48,
        "hand": "left"
      },
      {
        "midi": 66,
        "time": 44.5,
        "duration": 0.5,
        "velocity": 0.48,
        "hand": "right"
      },
      {
        "midi": 78,
        "time": 44.5,
        "duration": 0.5,
        "velocity": 0.71,
        "hand": "right"
      },
      {
        "midi": 41,
        "time": 45,
        "duration": 0.5,
        "velocity": 0.48,
        "hand": "left"
      },
      {
        "midi": 78,
        "time": 45,
        "duration": 0.5,
        "velocity": 0.71,
        "hand": "right"
      },
      {
        "midi": 63,
        "time": 45.5,
        "duration": 0.5,
        "velocity": 0.48,
        "hand": "right"
      },
      {
        "midi": 69,
        "time": 45.5,
        "duration": 0.5,
        "velocity": 0.48,
        "hand": "right"
      },
      {
        "midi": 77,
        "time": 45.5,
        "duration": 0.25,
        "velocity": 0.71,
        "hand": "right"
      },
      {
        "midi": 72,
        "time": 45.75,
        "duration": 0.25,
        "velocity": 0.71,
        "hand": "right"
      },
      {
        "midi": 57,
        "time": 46,
        "duration": 0.5,
        "velocity": 0.48,
        "hand": "left"
      },
      {
        "midi": 65,
        "time": 46,
        "duration": 0.5,
        "velocity": 0.48,
        "hand": "right"
      },
      {
        "midi": 75,
        "time": 46,
        "duration": 0.25,
        "velocity": 0.71,
        "hand": "right"
      },
      {
        "midi": 73,
        "time": 46.25,
        "duration": 0.25,
        "velocity": 0.71,
        "hand": "right"
      },
      {
        "midi": 46,
        "time": 46.5,
        "duration": 0.5,
        "velocity": 0.48,
        "hand": "left"
      },
      {
        "midi": 70,
        "time": 46.5,
        "duration": 0.5,
        "velocity": 0.71,
        "hand": "right"
      },
      {
        "midi": 58,
        "time": 47,
        "duration": 0.5,
        "velocity": 0.48,
        "hand": "left"
      },
      {
        "midi": 61,
        "time": 47,
        "duration": 0.5,
        "velocity": 0.48,
        "hand": "right"
      },
      {
        "midi": 65,
        "time": 47,
        "duration": 0.5,
        "velocity": 0.48,
        "hand": "right"
      },
      {
        "midi": 53,
        "time": 47.5,
        "duration": 0.5,
        "velocity": 0.48,
        "hand": "left"
      },
      {
        "midi": 58,
        "time": 47.5,
        "duration": 0.5,
        "velocity": 0.48,
        "hand": "left"
      },
      {
        "midi": 61,
        "time": 47.5,
        "duration": 0.5,
        "velocity": 0.48,
        "hand": "right"
      },
      {
        "midi": 42,
        "time": 48,
        "duration": 0.5,
        "velocity": 0.48,
        "hand": "left"
      },
      {
        "midi": 58,
        "time": 48.5,
        "duration": 0.5,
        "velocity": 0.48,
        "hand": "left"
      },
      {
        "midi": 66,
        "time": 48.5,
        "duration": 0.5,
        "velocity": 0.48,
        "hand": "right"
      },
      {
        "midi": 73,
        "time": 48.5,
        "duration": 0.25,
        "velocity": 0.71,
        "hand": "right"
      },
      {
        "midi": 75,
        "time": 48.75,
        "duration": 0.25,
        "velocity": 0.71,
        "hand": "right"
      },
      {
        "midi": 54,
        "time": 49,
        "duration": 0.5,
        "velocity": 0.48,
        "hand": "left"
      },
      {
        "midi": 61,
        "time": 49,
        "duration": 0.5,
        "velocity": 0.48,
        "hand": "right"
      },
      {
        "midi": 73,
        "time": 49,
        "duration": 0.25,
        "velocity": 0.71,
        "hand": "right"
      },
      {
        "midi": 75,
        "time": 49.25,
        "duration": 0.25,
        "velocity": 0.71,
        "hand": "right"
      },
      {
        "midi": 37,
        "time": 49.5,
        "duration": 0.5,
        "velocity": 0.48,
        "hand": "left"
      },
      {
        "midi": 77,
        "time": 49.5,
        "duration": 0.5,
        "velocity": 0.71,
        "hand": "right"
      },
      {
        "midi": 56,
        "time": 50,
        "duration": 0.5,
        "velocity": 0.48,
        "hand": "left"
      },
      {
        "midi": 65,
        "time": 50,
        "duration": 0.5,
        "velocity": 0.48,
        "hand": "right"
      },
      {
        "midi": 77,
        "time": 50,
        "duration": 0.5,
        "velocity": 0.71,
        "hand": "right"
      },
      {
        "midi": 53,
        "time": 50.5,
        "duration": 0.5,
        "velocity": 0.48,
        "hand": "left"
      },
      {
        "midi": 61,
        "time": 50.5,
        "duration": 0.5,
        "velocity": 0.48,
        "hand": "right"
      },
      {
        "midi": 77,
        "time": 50.5,
        "duration": 0.5,
        "velocity": 0.71,
        "hand": "right"
      },
      {
        "midi": 39,
        "time": 51,
        "duration": 0.5,
        "velocity": 0.48,
        "hand": "left"
      },
      {
        "midi": 77,
        "time": 51,
        "duration": 0.5,
        "velocity": 0.71,
        "hand": "right"
      },
      {
        "midi": 58,
        "time": 51.5,
        "duration": 0.5,
        "velocity": 0.48,
        "hand": "left"
      },
      {
        "midi": 66,
        "time": 51.5,
        "duration": 0.5,
        "velocity": 0.48,
        "hand": "right"
      },
      {
        "midi": 75,
        "time": 51.5,
        "duration": 0.25,
        "velocity": 0.71,
        "hand": "right"
      },
      {
        "midi": 70,
        "time": 51.75,
        "duration": 0.25,
        "velocity": 0.71,
        "hand": "right"
      },
      {
        "midi": 54,
        "time": 52,
        "duration": 0.5,
        "velocity": 0.48,
        "hand": "left"
      },
      {
        "midi": 63,
        "time": 52,
        "duration": 0.5,
        "velocity": 0.48,
        "hand": "right"
      },
      {
        "midi": 73,
        "time": 52,
        "duration": 0.25,
        "velocity": 0.71,
        "hand": "right"
      },
      {
        "midi": 72,
        "time": 52.25,
        "duration": 0.25,
        "velocity": 0.71,
        "hand": "right"
      },
      {
        "midi": 41,
        "time": 52.5,
        "duration": 0.5,
        "velocity": 0.48,
        "hand": "left"
      },
      {
        "midi": 69,
        "time": 52.5,
        "duration": 0.5,
        "velocity": 0.71,
        "hand": "right"
      },
      {
        "midi": 60,
        "time": 53,
        "duration": 0.5,
        "velocity": 0.48,
        "hand": "right"
      },
      {
        "midi": 69,
        "time": 53,
        "duration": 0.5,
        "velocity": 0.48,
        "hand": "right"
      },
      {
        "midi": 72,
        "time": 53,
        "duration": 0.5,
        "velocity": 0.71,
        "hand": "right"
      },
      {
        "midi": 57,
        "time": 53.5,
        "duration": 0.5,
        "velocity": 0.48,
        "hand": "left"
      },
      {
        "midi": 65,
        "time": 53.5,
        "duration": 0.5,
        "velocity": 0.48,
        "hand": "right"
      },
      {
        "midi": 77,
        "time": 53.5,
        "duration": 0.5,
        "velocity": 0.71,
        "hand": "right"
      },
      {
        "midi": 53,
        "time": 54,
        "duration": 0.5,
        "velocity": 0.48,
        "hand": "left"
      },
      {
        "midi": 76,
        "time": 54,
        "duration": 0.5,
        "velocity": 0.71,
        "hand": "right"
      },
      {
        "midi": 61,
        "time": 54.5,
        "duration": 0.5,
        "velocity": 0.48,
        "hand": "right"
      },
      {
        "midi": 67,
        "time": 54.5,
        "duration": 0.5,
        "velocity": 0.48,
        "hand": "right"
      },
      {
        "midi": 70,
        "time": 54.5,
        "duration": 0.5,
        "velocity": 0.71,
        "hand": "right"
      },
      {
        "midi": 58,
        "time": 55,
        "duration": 0.5,
        "velocity": 0.48,
        "hand": "left"
      },
      {
        "midi": 64,
        "time": 55,
        "duration": 0.5,
        "velocity": 0.48,
        "hand": "right"
      },
      {
        "midi": 73,
        "time": 55,
        "duration": 1,
        "velocity": 0.71,
        "hand": "right"
      },
      {
        "midi": 41,
        "time": 55.5,
        "duration": 0.5,
        "velocity": 0.48,
        "hand": "left"
      },
      {
        "midi": 60,
        "time": 56,
        "duration": 0.5,
        "velocity": 0.48,
        "hand": "right"
      },
      {
        "midi": 69,
        "time": 56,
        "duration": 0.5,
        "velocity": 0.48,
        "hand": "right"
      },
      {
        "midi": 72,
        "time": 56,
        "duration": 0.5,
        "velocity": 0.71,
        "hand": "right"
      },
      {
        "midi": 57,
        "time": 56.5,
        "duration": 0.5,
        "velocity": 0.48,
        "hand": "left"
      },
      {
        "midi": 65,
        "time": 56.5,
        "duration": 0.5,
        "velocity": 0.48,
        "hand": "right"
      },
      {
        "midi": 77,
        "time": 56.5,
        "duration": 0.5,
        "velocity": 0.71,
        "hand": "right"
      },
      {
        "midi": 53,
        "time": 57,
        "duration": 0.5,
        "velocity": 0.48,
        "hand": "left"
      },
      {
        "midi": 76,
        "time": 57,
        "duration": 0.5,
        "velocity": 0.71,
        "hand": "right"
      },
      {
        "midi": 61,
        "time": 57.5,
        "duration": 0.5,
        "velocity": 0.48,
        "hand": "right"
      },
      {
        "midi": 67,
        "time": 57.5,
        "duration": 0.5,
        "velocity": 0.48,
        "hand": "right"
      },
      {
        "midi": 70,
        "time": 57.5,
        "duration": 0.5,
        "velocity": 0.71,
        "hand": "right"
      },
      {
        "midi": 58,
        "time": 58,
        "duration": 0.5,
        "velocity": 0.48,
        "hand": "left"
      },
      {
        "midi": 64,
        "time": 58,
        "duration": 0.5,
        "velocity": 0.48,
        "hand": "right"
      },
      {
        "midi": 73,
        "time": 58,
        "duration": 0.5,
        "velocity": 0.71,
        "hand": "right"
      },
      {
        "midi": 41,
        "time": 58.5,
        "duration": 0.5,
        "velocity": 0.48,
        "hand": "left"
      },
      {
        "midi": 60,
        "time": 59,
        "duration": 0.5,
        "velocity": 0.48,
        "hand": "right"
      },
      {
        "midi": 66,
        "time": 59,
        "duration": 0.5,
        "velocity": 0.48,
        "hand": "right"
      },
      {
        "midi": 72,
        "time": 59,
        "duration": 0.25,
        "velocity": 0.71,
        "hand": "right"
      },
      {
        "midi": 73,
        "time": 59.25,
        "duration": 0.25,
        "velocity": 0.71,
        "hand": "right"
      },
      {
        "midi": 54,
        "time": 59.5,
        "duration": 0.5,
        "velocity": 0.48,
        "hand": "left"
      },
      {
        "midi": 63,
        "time": 59.5,
        "duration": 0.5,
        "velocity": 0.48,
        "hand": "right"
      },
      {
        "midi": 72,
        "time": 59.5,
        "duration": 0.25,
        "velocity": 0.71,
        "hand": "right"
      },
      {
        "midi": 73,
        "time": 59.75,
        "duration": 0.25,
        "velocity": 0.71,
        "hand": "right"
      },
      {
        "midi": 53,
        "time": 60,
        "duration": 0.5,
        "velocity": 0.48,
        "hand": "left"
      },
      {
        "midi": 75,
        "time": 60,
        "duration": 0.5,
        "velocity": 0.71,
        "hand": "right"
      },
      {
        "midi": 63,
        "time": 60.5,
        "duration": 0.5,
        "velocity": 0.48,
        "hand": "right"
      },
      {
        "midi": 70,
        "time": 60.5,
        "duration": 0.5,
        "velocity": 0.48,
        "hand": "right"
      },
      {
        "midi": 75,
        "time": 60.5,
        "duration": 0.5,
        "velocity": 0.71,
        "hand": "right"
      },
      {
        "midi": 60,
        "time": 61,
        "duration": 0.5,
        "velocity": 0.48,
        "hand": "right"
      },
      {
        "midi": 66,
        "time": 61,
        "duration": 0.5,
        "velocity": 0.48,
        "hand": "right"
      },
      {
        "midi": 75,
        "time": 61,
        "duration": 0.5,
        "velocity": 0.71,
        "hand": "right"
      },
      {
        "midi": 41,
        "time": 61.5,
        "duration": 0.5,
        "velocity": 0.48,
        "hand": "left"
      },
      {
        "midi": 75,
        "time": 61.5,
        "duration": 0.5,
        "velocity": 0.71,
        "hand": "right"
      },
      {
        "midi": 63,
        "time": 62,
        "duration": 0.5,
        "velocity": 0.48,
        "hand": "right"
      },
      {
        "midi": 69,
        "time": 62,
        "duration": 0.5,
        "velocity": 0.48,
        "hand": "right"
      },
      {
        "midi": 77,
        "time": 62,
        "duration": 0.25,
        "velocity": 0.71,
        "hand": "right"
      },
      {
        "midi": 72,
        "time": 62.25,
        "duration": 0.25,
        "velocity": 0.71,
        "hand": "right"
      },
      {
        "midi": 57,
        "time": 62.5,
        "duration": 0.5,
        "velocity": 0.48,
        "hand": "left"
      },
      {
        "midi": 65,
        "time": 62.5,
        "duration": 0.5,
        "velocity": 0.48,
        "hand": "right"
      },
      {
        "midi": 75,
        "time": 62.5,
        "duration": 0.25,
        "velocity": 0.71,
        "hand": "right"
      },
      {
        "midi": 73,
        "time": 62.75,
        "duration": 0.25,
        "velocity": 0.71,
        "hand": "right"
      },
      {
        "midi": 46,
        "time": 63,
        "duration": 0.5,
        "velocity": 0.48,
        "hand": "left"
      },
      {
        "midi": 70,
        "time": 63,
        "duration": 1.5,
        "velocity": 0.71,
        "hand": "right"
      },
      {
        "midi": 58,
        "time": 63.5,
        "duration": 0.5,
        "velocity": 0.48,
        "hand": "left"
      },
      {
        "midi": 61,
        "time": 63.5,
        "duration": 0.5,
        "velocity": 0.48,
        "hand": "right"
      },
      {
        "midi": 65,
        "time": 63.5,
        "duration": 0.5,
        "velocity": 0.48,
        "hand": "right"
      },
      {
        "midi": 53,
        "time": 64,
        "duration": 0.5,
        "velocity": 0.48,
        "hand": "left"
      },
      {
        "midi": 58,
        "time": 64,
        "duration": 0.5,
        "velocity": 0.48,
        "hand": "left"
      },
      {
        "midi": 61,
        "time": 64,
        "duration": 0.5,
        "velocity": 0.48,
        "hand": "right"
      },
      {
        "midi": 48,
        "time": 64.5,
        "duration": 0.5,
        "velocity": 0.48,
        "hand": "left"
      },
      {
        "midi": 67,
        "time": 64.5,
        "duration": 1,
        "velocity": 0.71,
        "hand": "right"
      },
      {
        "midi": 58,
        "time": 65,
        "duration": 0.5,
        "velocity": 0.48,
        "hand": "left"
      },
      {
        "midi": 60,
        "time": 65,
        "duration": 0.5,
        "velocity": 0.48,
        "hand": "right"
      },
      {
        "midi": 64,
        "time": 65,
        "duration": 0.5,
        "velocity": 0.48,
        "hand": "right"
      },
      {
        "midi": 55,
        "time": 65.5,
        "duration": 0.5,
        "velocity": 0.48,
        "hand": "left"
      },
      {
        "midi": 58,
        "time": 65.5,
        "duration": 0.5,
        "velocity": 0.48,
        "hand": "left"
      },
      {
        "midi": 60,
        "time": 65.5,
        "duration": 0.5,
        "velocity": 0.48,
        "hand": "right"
      },
      {
        "midi": 41,
        "time": 66,
        "duration": 0.5,
        "velocity": 0.48,
        "hand": "left"
      },
      {
        "midi": 60,
        "time": 66.5,
        "duration": 0.5,
        "velocity": 0.48,
        "hand": "right"
      },
      {
        "midi": 68,
        "time": 66.5,
        "duration": 0.5,
        "velocity": 0.48,
        "hand": "right"
      },
      {
        "midi": 72,
        "time": 66.5,
        "duration": 0.5,
        "velocity": 0.71,
        "hand": "right"
      },
      {
        "midi": 56,
        "time": 67,
        "duration": 0.5,
        "velocity": 0.48,
        "hand": "left"
      },
      {
        "midi": 65,
        "time": 67,
        "duration": 0.5,
        "velocity": 0.48,
        "hand": "right"
      },
      {
        "midi": 77,
        "time": 67,
        "duration": 0.5,
        "velocity": 0.71,
        "hand": "right"
      },
      {
        "midi": 53,
        "time": 67.5,
        "duration": 0.5,
        "velocity": 0.48,
        "hand": "left"
      },
      {
        "midi": 76,
        "time": 67.5,
        "duration": 0.5,
        "velocity": 0.71,
        "hand": "right"
      },
      {
        "midi": 61,
        "time": 68,
        "duration": 0.5,
        "velocity": 0.48,
        "hand": "right"
      },
      {
        "midi": 67,
        "time": 68,
        "duration": 0.5,
        "velocity": 0.48,
        "hand": "right"
      },
      {
        "midi": 70,
        "time": 68,
        "duration": 0.5,
        "velocity": 0.71,
        "hand": "right"
      },
      {
        "midi": 58,
        "time": 68.5,
        "duration": 0.5,
        "velocity": 0.48,
        "hand": "left"
      },
      {
        "midi": 64,
        "time": 68.5,
        "duration": 0.5,
        "velocity": 0.48,
        "hand": "right"
      },
      {
        "midi": 73,
        "time": 68.5,
        "duration": 1,
        "velocity": 0.71,
        "hand": "right"
      },
      {
        "midi": 41,
        "time": 69,
        "duration": 0.5,
        "velocity": 0.48,
        "hand": "left"
      },
      {
        "midi": 60,
        "time": 69.5,
        "duration": 0.5,
        "velocity": 0.48,
        "hand": "right"
      },
      {
        "midi": 68,
        "time": 69.5,
        "duration": 0.5,
        "velocity": 0.48,
        "hand": "right"
      },
      {
        "midi": 72,
        "time": 69.5,
        "duration": 0.5,
        "velocity": 0.71,
        "hand": "right"
      },
      {
        "midi": 56,
        "time": 70,
        "duration": 0.5,
        "velocity": 0.48,
        "hand": "left"
      },
      {
        "midi": 65,
        "time": 70,
        "duration": 0.5,
        "velocity": 0.48,
        "hand": "right"
      },
      {
        "midi": 77,
        "time": 70,
        "duration": 0.75,
        "velocity": 0.71,
        "hand": "right"
      },
      {
        "midi": 53,
        "time": 70.5,
        "duration": 0.5,
        "velocity": 0.48,
        "hand": "left"
      },
      {
        "midi": 76,
        "time": 70.75,
        "duration": 0.25,
        "velocity": 0.71,
        "hand": "right"
      },
      {
        "midi": 61,
        "time": 71,
        "duration": 0.5,
        "velocity": 0.48,
        "hand": "right"
      },
      {
        "midi": 67,
        "time": 71,
        "duration": 0.5,
        "velocity": 0.48,
        "hand": "right"
      },
      {
        "midi": 70,
        "time": 71,
        "duration": 0.25,
        "velocity": 0.71,
        "hand": "right"
      },
      {
        "midi": 72,
        "time": 71.25,
        "duration": 0.25,
        "velocity": 0.71,
        "hand": "right"
      },
      {
        "midi": 58,
        "time": 71.5,
        "duration": 0.5,
        "velocity": 0.48,
        "hand": "left"
      },
      {
        "midi": 64,
        "time": 71.5,
        "duration": 0.5,
        "velocity": 0.48,
        "hand": "right"
      },
      {
        "midi": 75,
        "time": 71.5,
        "duration": 0.25,
        "velocity": 0.71,
        "hand": "right"
      },
      {
        "midi": 73,
        "time": 71.75,
        "duration": 0.25,
        "velocity": 0.71,
        "hand": "right"
      },
      {
        "midi": 53,
        "time": 72,
        "duration": 0.5,
        "velocity": 0.48,
        "hand": "left"
      },
      {
        "midi": 56,
        "time": 72.5,
        "duration": 0.5,
        "velocity": 0.48,
        "hand": "left"
      },
      {
        "midi": 68,
        "time": 72.5,
        "duration": 0.5,
        "velocity": 0.48,
        "hand": "right"
      },
      {
        "midi": 72,
        "time": 72.5,
        "duration": 0.25,
        "velocity": 0.71,
        "hand": "right"
      },
      {
        "midi": 73,
        "time": 72.75,
        "duration": 0.25,
        "velocity": 0.71,
        "hand": "right"
      },
      {
        "midi": 52,
        "time": 73,
        "duration": 0.5,
        "velocity": 0.48,
        "hand": "left"
      },
      {
        "midi": 72,
        "time": 73,
        "duration": 0.25,
        "velocity": 0.71,
        "hand": "right"
      },
      {
        "midi": 73,
        "time": 73.25,
        "duration": 0.25,
        "velocity": 0.71,
        "hand": "right"
      },
      {
        "midi": 51,
        "time": 73.5,
        "duration": 0.5,
        "velocity": 0.48,
        "hand": "left"
      },
      {
        "midi": 75,
        "time": 73.5,
        "duration": 0.5,
        "velocity": 0.71,
        "hand": "right"
      },
      {
        "midi": 60,
        "time": 74,
        "duration": 0.5,
        "velocity": 0.48,
        "hand": "right"
      },
      {
        "midi": 68,
        "time": 74,
        "duration": 0.5,
        "velocity": 0.48,
        "hand": "right"
      },
      {
        "midi": 75,
        "time": 74,
        "duration": 0.5,
        "velocity": 0.71,
        "hand": "right"
      },
      {
        "midi": 51,
        "time": 74.5,
        "duration": 0.5,
        "velocity": 0.48,
        "hand": "left"
      },
      {
        "midi": 75,
        "time": 74.5,
        "duration": 0.5,
        "velocity": 0.71,
        "hand": "right"
      },
      {
        "midi": 39,
        "time": 75,
        "duration": 0.5,
        "velocity": 0.48,
        "hand": "left"
      },
      {
        "midi": 75,
        "time": 75,
        "duration": 0.5,
        "velocity": 0.71,
        "hand": "right"
      },
      {
        "midi": 61,
        "time": 75.5,
        "duration": 0.5,
        "velocity": 0.48,
        "hand": "right"
      },
      {
        "midi": 67,
        "time": 75.5,
        "duration": 0.5,
        "velocity": 0.48,
        "hand": "right"
      },
      {
        "midi": 73,
        "time": 75.5,
        "duration": 0.25,
        "velocity": 0.71,
        "hand": "right"
      },
      {
        "midi": 72,
        "time": 75.75,
        "duration": 0.25,
        "velocity": 0.71,
        "hand": "right"
      },
      {
        "midi": 51,
        "time": 76,
        "duration": 0.5,
        "velocity": 0.48,
        "hand": "left"
      },
      {
        "midi": 61,
        "time": 76,
        "duration": 0.5,
        "velocity": 0.48,
        "hand": "right"
      },
      {
        "midi": 70,
        "time": 76,
        "duration": 0.25,
        "velocity": 0.71,
        "hand": "right"
      },
      {
        "midi": 72,
        "time": 76.25,
        "duration": 0.25,
        "velocity": 0.71,
        "hand": "right"
      },
      {
        "midi": 44,
        "time": 76.5,
        "duration": 0.5,
        "velocity": 0.48,
        "hand": "left"
      },
      {
        "midi": 68,
        "time": 76.5,
        "duration": 0.5,
        "velocity": 0.71,
        "hand": "right"
      },
      {
        "midi": 56,
        "time": 77,
        "duration": 0.5,
        "velocity": 0.48,
        "hand": "left"
      },
      {
        "midi": 60,
        "time": 77,
        "duration": 0.5,
        "velocity": 0.48,
        "hand": "right"
      },
      {
        "midi": 63,
        "time": 77,
        "duration": 0.5,
        "velocity": 0.48,
        "hand": "right"
      },
      {
        "midi": 51,
        "time": 77.5,
        "duration": 0.5,
        "velocity": 0.48,
        "hand": "left"
      },
      {
        "midi": 56,
        "time": 77.5,
        "duration": 0.5,
        "velocity": 0.48,
        "hand": "left"
      },
      {
        "midi": 60,
        "time": 77.5,
        "duration": 0.5,
        "velocity": 0.48,
        "hand": "right"
      },
      {
        "midi": 44,
        "time": 78,
        "duration": 0.5,
        "velocity": 0.48,
        "hand": "left"
      },
      {
        "midi": 56,
        "time": 78.5,
        "duration": 0.5,
        "velocity": 0.48,
        "hand": "left"
      },
      {
        "midi": 60,
        "time": 78.5,
        "duration": 0.5,
        "velocity": 0.48,
        "hand": "right"
      },
      {
        "midi": 64,
        "time": 78.5,
        "duration": 0.5,
        "velocity": 0.48,
        "hand": "right"
      },
      {
        "midi": 52,
        "time": 79,
        "duration": 0.5,
        "velocity": 0.48,
        "hand": "left"
      },
      {
        "midi": 56,
        "time": 79,
        "duration": 0.5,
        "velocity": 0.48,
        "hand": "left"
      },
      {
        "midi": 60,
        "time": 79,
        "duration": 0.5,
        "velocity": 0.48,
        "hand": "right"
      },
      {
        "midi": 32,
        "time": 79.5,
        "duration": 0.5,
        "velocity": 0.48,
        "hand": "left"
      },
      {
        "midi": 63,
        "time": 80,
        "duration": 0.5,
        "velocity": 0.48,
        "hand": "right"
      },
      {
        "midi": 72,
        "time": 80,
        "duration": 0.5,
        "velocity": 0.48,
        "hand": "right"
      },
      {
        "midi": 75,
        "time": 80,
        "duration": 0.5,
        "velocity": 0.71,
        "hand": "right"
      },
      {
        "midi": 60,
        "time": 80.5,
        "duration": 0.5,
        "velocity": 0.48,
        "hand": "right"
      },
      {
        "midi": 68,
        "time": 80.5,
        "duration": 0.5,
        "velocity": 0.48,
        "hand": "right"
      },
      {
        "midi": 80,
        "time": 80.5,
        "duration": 0.5,
        "velocity": 0.71,
        "hand": "right"
      },
      {
        "midi": 56,
        "time": 81,
        "duration": 0.5,
        "velocity": 0.48,
        "hand": "left"
      },
      {
        "midi": 79,
        "time": 81,
        "duration": 0.5,
        "velocity": 0.71,
        "hand": "right"
      },
      {
        "midi": 64,
        "time": 81.5,
        "duration": 0.5,
        "velocity": 0.48,
        "hand": "right"
      },
      {
        "midi": 70,
        "time": 81.5,
        "duration": 0.5,
        "velocity": 0.48,
        "hand": "right"
      },
      {
        "midi": 73,
        "time": 81.5,
        "duration": 0.5,
        "velocity": 0.71,
        "hand": "right"
      },
      {
        "midi": 61,
        "time": 82,
        "duration": 0.5,
        "velocity": 0.48,
        "hand": "right"
      },
      {
        "midi": 67,
        "time": 82,
        "duration": 0.5,
        "velocity": 0.48,
        "hand": "right"
      },
      {
        "midi": 76,
        "time": 82,
        "duration": 1,
        "velocity": 0.71,
        "hand": "right"
      },
      {
        "midi": 44,
        "time": 82.5,
        "duration": 0.5,
        "velocity": 0.48,
        "hand": "left"
      },
      {
        "midi": 63,
        "time": 83,
        "duration": 0.5,
        "velocity": 0.48,
        "hand": "right"
      },
      {
        "midi": 72,
        "time": 83,
        "duration": 0.5,
        "velocity": 0.48,
        "hand": "right"
      },
      {
        "midi": 75,
        "time": 83,
        "duration": 0.5,
        "velocity": 0.71,
        "hand": "right"
      },
      {
        "midi": 60,
        "time": 83.5,
        "duration": 0.5,
        "velocity": 0.48,
        "hand": "right"
      },
      {
        "midi": 68,
        "time": 83.5,
        "duration": 0.5,
        "velocity": 0.48,
        "hand": "right"
      },
      {
        "midi": 80,
        "time": 83.5,
        "duration": 0.75,
        "velocity": 0.71,
        "hand": "right"
      },
      {
        "midi": 56,
        "time": 84,
        "duration": 0.5,
        "velocity": 0.48,
        "hand": "left"
      },
      {
        "midi": 79,
        "time": 84.25,
        "duration": 0.25,
        "velocity": 0.71,
        "hand": "right"
      },
      {
        "midi": 64,
        "time": 84.5,
        "duration": 0.5,
        "velocity": 0.48,
        "hand": "right"
      },
      {
        "midi": 70,
        "time": 84.5,
        "duration": 0.5,
        "velocity": 0.48,
        "hand": "right"
      },
      {
        "midi": 73,
        "time": 84.5,
        "duration": 0.25,
        "velocity": 0.71,
        "hand": "right"
      },
      {
        "midi": 75,
        "time": 84.75,
        "duration": 0.25,
        "velocity": 0.71,
        "hand": "right"
      },
      {
        "midi": 58,
        "time": 85,
        "duration": 0.5,
        "velocity": 0.48,
        "hand": "left"
      },
      {
        "midi": 67,
        "time": 85,
        "duration": 0.5,
        "velocity": 0.48,
        "hand": "right"
      },
      {
        "midi": 78,
        "time": 85,
        "duration": 0.25,
        "velocity": 0.71,
        "hand": "right"
      },
      {
        "midi": 76,
        "time": 85.25,
        "duration": 0.25,
        "velocity": 0.71,
        "hand": "right"
      },
      {
        "midi": 44,
        "time": 85.5,
        "duration": 0.5,
        "velocity": 0.48,
        "hand": "left"
      },
      {
        "midi": 63,
        "time": 86,
        "duration": 0.5,
        "velocity": 0.48,
        "hand": "right"
      },
      {
        "midi": 72,
        "time": 86,
        "duration": 0.5,
        "velocity": 0.48,
        "hand": "right"
      },
      {
        "midi": 75,
        "time": 86,
        "duration": 0.25,
        "velocity": 0.71,
        "hand": "right"
      },
      {
        "midi": 77,
        "time": 86.25,
        "duration": 0.25,
        "velocity": 0.71,
        "hand": "right"
      },
      {
        "midi": 60,
        "time": 86.5,
        "duration": 0.5,
        "velocity": 0.48,
        "hand": "right"
      },
      {
        "midi": 68,
        "time": 86.5,
        "duration": 0.5,
        "velocity": 0.48,
        "hand": "right"
      },
      {
        "midi": 75,
        "time": 86.5,
        "duration": 0.25,
        "velocity": 0.71,
        "hand": "right"
      },
      {
        "midi": 77,
        "time": 86.75,
        "duration": 0.25,
        "velocity": 0.71,
        "hand": "right"
      },
      {
        "midi": 39,
        "time": 87,
        "duration": 0.5,
        "velocity": 0.48,
        "hand": "left"
      },
      {
        "midi": 78,
        "time": 87,
        "duration": 0.5,
        "velocity": 0.71,
        "hand": "right"
      },
      {
        "midi": 63,
        "time": 87.5,
        "duration": 0.5,
        "velocity": 0.48,
        "hand": "right"
      },
      {
        "midi": 70,
        "time": 87.5,
        "duration": 0.5,
        "velocity": 0.48,
        "hand": "right"
      },
      {
        "midi": 78,
        "time": 87.5,
        "duration": 0.5,
        "velocity": 0.71,
        "hand": "right"
      },
      {
        "midi": 58,
        "time": 88,
        "duration": 0.5,
        "velocity": 0.48,
        "hand": "left"
      },
      {
        "midi": 66,
        "time": 88,
        "duration": 0.5,
        "velocity": 0.48,
        "hand": "right"
      },
      {
        "midi": 78,
        "time": 88,
        "duration": 0.5,
        "velocity": 0.71,
        "hand": "right"
      },
      {
        "midi": 41,
        "time": 88.5,
        "duration": 0.5,
        "velocity": 0.48,
        "hand": "left"
      },
      {
        "midi": 78,
        "time": 88.5,
        "duration": 0.5,
        "velocity": 0.71,
        "hand": "right"
      },
      {
        "midi": 63,
        "time": 89,
        "duration": 0.5,
        "velocity": 0.48,
        "hand": "right"
      },
      {
        "midi": 69,
        "time": 89,
        "duration": 0.5,
        "velocity": 0.48,
        "hand": "right"
      },
      {
        "midi": 77,
        "time": 89,
        "duration": 0.25,
        "velocity": 0.71,
        "hand": "right"
      },
      {
        "midi": 72,
        "time": 89.25,
        "duration": 0.25,
        "velocity": 0.71,
        "hand": "right"
      },
      {
        "midi": 57,
        "time": 89.5,
        "duration": 0.5,
        "velocity": 0.48,
        "hand": "left"
      },
      {
        "midi": 65,
        "time": 89.5,
        "duration": 0.5,
        "velocity": 0.48,
        "hand": "right"
      },
      {
        "midi": 75,
        "time": 89.5,
        "duration": 0.25,
        "velocity": 0.71,
        "hand": "right"
      },
      {
        "midi": 73,
        "time": 89.75,
        "duration": 0.25,
        "velocity": 0.71,
        "hand": "right"
      },
      {
        "midi": 46,
        "time": 90,
        "duration": 0.5,
        "velocity": 0.48,
        "hand": "left"
      },
      {
        "midi": 70,
        "time": 90,
        "duration": 0.5,
        "velocity": 0.71,
        "hand": "right"
      },
      {
        "midi": 58,
        "time": 90.5,
        "duration": 0.5,
        "velocity": 0.48,
        "hand": "left"
      },
      {
        "midi": 61,
        "time": 90.5,
        "duration": 0.5,
        "velocity": 0.48,
        "hand": "right"
      },
      {
        "midi": 65,
        "time": 90.5,
        "duration": 0.5,
        "velocity": 0.48,
        "hand": "right"
      },
      {
        "midi": 53,
        "time": 91,
        "duration": 0.5,
        "velocity": 0.48,
        "hand": "left"
      },
      {
        "midi": 58,
        "time": 91,
        "duration": 0.5,
        "velocity": 0.48,
        "hand": "left"
      },
      {
        "midi": 61,
        "time": 91,
        "duration": 0.5,
        "velocity": 0.48,
        "hand": "right"
      },
      {
        "midi": 42,
        "time": 91.5,
        "duration": 0.5,
        "velocity": 0.48,
        "hand": "left"
      },
      {
        "midi": 58,
        "time": 92,
        "duration": 0.5,
        "velocity": 0.48,
        "hand": "left"
      },
      {
        "midi": 66,
        "time": 92,
        "duration": 0.5,
        "velocity": 0.48,
        "hand": "right"
      },
      {
        "midi": 73,
        "time": 92,
        "duration": 0.25,
        "velocity": 0.71,
        "hand": "right"
      },
      {
        "midi": 75,
        "time": 92.25,
        "duration": 0.25,
        "velocity": 0.71,
        "hand": "right"
      },
      {
        "midi": 54,
        "time": 92.5,
        "duration": 0.5,
        "velocity": 0.48,
        "hand": "left"
      },
      {
        "midi": 61,
        "time": 92.5,
        "duration": 0.5,
        "velocity": 0.48,
        "hand": "right"
      },
      {
        "midi": 73,
        "time": 92.5,
        "duration": 0.25,
        "velocity": 0.71,
        "hand": "right"
      },
      {
        "midi": 75,
        "time": 92.75,
        "duration": 0.25,
        "velocity": 0.71,
        "hand": "right"
      },
      {
        "midi": 37,
        "time": 93,
        "duration": 0.5,
        "velocity": 0.48,
        "hand": "left"
      },
      {
        "midi": 77,
        "time": 93,
        "duration": 0.5,
        "velocity": 0.71,
        "hand": "right"
      },
      {
        "midi": 56,
        "time": 93.5,
        "duration": 0.5,
        "velocity": 0.48,
        "hand": "left"
      },
      {
        "midi": 65,
        "time": 93.5,
        "duration": 0.5,
        "velocity": 0.48,
        "hand": "right"
      },
      {
        "midi": 77,
        "time": 93.5,
        "duration": 0.5,
        "velocity": 0.71,
        "hand": "right"
      },
      {
        "midi": 53,
        "time": 94,
        "duration": 0.5,
        "velocity": 0.48,
        "hand": "left"
      },
      {
        "midi": 61,
        "time": 94,
        "duration": 0.5,
        "velocity": 0.48,
        "hand": "right"
      },
      {
        "midi": 77,
        "time": 94,
        "duration": 0.5,
        "velocity": 0.71,
        "hand": "right"
      },
      {
        "midi": 39,
        "time": 94.5,
        "duration": 0.5,
        "velocity": 0.48,
        "hand": "left"
      },
      {
        "midi": 77,
        "time": 94.5,
        "duration": 0.5,
        "velocity": 0.71,
        "hand": "right"
      },
      {
        "midi": 58,
        "time": 95,
        "duration": 0.5,
        "velocity": 0.48,
        "hand": "left"
      },
      {
        "midi": 66,
        "time": 95,
        "duration": 0.5,
        "velocity": 0.48,
        "hand": "right"
      },
      {
        "midi": 75,
        "time": 95,
        "duration": 0.25,
        "velocity": 0.71,
        "hand": "right"
      },
      {
        "midi": 70,
        "time": 95.25,
        "duration": 0.25,
        "velocity": 0.71,
        "hand": "right"
      },
      {
        "midi": 54,
        "time": 95.5,
        "duration": 0.5,
        "velocity": 0.48,
        "hand": "left"
      },
      {
        "midi": 63,
        "time": 95.5,
        "duration": 0.5,
        "velocity": 0.48,
        "hand": "right"
      },
      {
        "midi": 73,
        "time": 95.5,
        "duration": 0.25,
        "velocity": 0.71,
        "hand": "right"
      },
      {
        "midi": 72,
        "time": 95.75,
        "duration": 0.25,
        "velocity": 0.71,
        "hand": "right"
      },
      {
        "midi": 41,
        "time": 96,
        "duration": 0.5,
        "velocity": 0.48,
        "hand": "left"
      },
      {
        "midi": 69,
        "time": 96,
        "duration": 0.5,
        "velocity": 0.71,
        "hand": "right"
      },
      {
        "midi": 60,
        "time": 96.5,
        "duration": 0.5,
        "velocity": 0.48,
        "hand": "right"
      },
      {
        "midi": 69,
        "time": 96.5,
        "duration": 0.5,
        "velocity": 0.48,
        "hand": "right"
      },
      {
        "midi": 72,
        "time": 96.5,
        "duration": 0.5,
        "velocity": 0.71,
        "hand": "right"
      },
      {
        "midi": 57,
        "time": 97,
        "duration": 0.5,
        "velocity": 0.48,
        "hand": "left"
      },
      {
        "midi": 65,
        "time": 97,
        "duration": 0.5,
        "velocity": 0.48,
        "hand": "right"
      },
      {
        "midi": 77,
        "time": 97,
        "duration": 0.5,
        "velocity": 0.71,
        "hand": "right"
      },
      {
        "midi": 53,
        "time": 97.5,
        "duration": 0.5,
        "velocity": 0.48,
        "hand": "left"
      },
      {
        "midi": 76,
        "time": 97.5,
        "duration": 0.5,
        "velocity": 0.71,
        "hand": "right"
      },
      {
        "midi": 61,
        "time": 98,
        "duration": 0.5,
        "velocity": 0.48,
        "hand": "right"
      },
      {
        "midi": 67,
        "time": 98,
        "duration": 0.5,
        "velocity": 0.48,
        "hand": "right"
      },
      {
        "midi": 70,
        "time": 98,
        "duration": 0.5,
        "velocity": 0.71,
        "hand": "right"
      },
      {
        "midi": 58,
        "time": 98.5,
        "duration": 0.5,
        "velocity": 0.48,
        "hand": "left"
      },
      {
        "midi": 64,
        "time": 98.5,
        "duration": 0.5,
        "velocity": 0.48,
        "hand": "right"
      },
      {
        "midi": 73,
        "time": 98.5,
        "duration": 1,
        "velocity": 0.71,
        "hand": "right"
      },
      {
        "midi": 41,
        "time": 99,
        "duration": 0.5,
        "velocity": 0.48,
        "hand": "left"
      },
      {
        "midi": 60,
        "time": 99.5,
        "duration": 0.5,
        "velocity": 0.48,
        "hand": "right"
      },
      {
        "midi": 69,
        "time": 99.5,
        "duration": 0.5,
        "velocity": 0.48,
        "hand": "right"
      },
      {
        "midi": 72,
        "time": 99.5,
        "duration": 0.5,
        "velocity": 0.71,
        "hand": "right"
      },
      {
        "midi": 57,
        "time": 100,
        "duration": 0.5,
        "velocity": 0.48,
        "hand": "left"
      },
      {
        "midi": 65,
        "time": 100,
        "duration": 0.5,
        "velocity": 0.48,
        "hand": "right"
      },
      {
        "midi": 77,
        "time": 100,
        "duration": 0.75,
        "velocity": 0.71,
        "hand": "right"
      },
      {
        "midi": 53,
        "time": 100.5,
        "duration": 0.5,
        "velocity": 0.48,
        "hand": "left"
      },
      {
        "midi": 76,
        "time": 100.75,
        "duration": 0.25,
        "velocity": 0.71,
        "hand": "right"
      },
      {
        "midi": 61,
        "time": 101,
        "duration": 0.5,
        "velocity": 0.48,
        "hand": "right"
      },
      {
        "midi": 67,
        "time": 101,
        "duration": 0.5,
        "velocity": 0.48,
        "hand": "right"
      },
      {
        "midi": 70,
        "time": 101,
        "duration": 0.25,
        "velocity": 0.71,
        "hand": "right"
      },
      {
        "midi": 72,
        "time": 101.25,
        "duration": 0.25,
        "velocity": 0.71,
        "hand": "right"
      },
      {
        "midi": 58,
        "time": 101.5,
        "duration": 0.5,
        "velocity": 0.48,
        "hand": "left"
      },
      {
        "midi": 64,
        "time": 101.5,
        "duration": 0.5,
        "velocity": 0.48,
        "hand": "right"
      },
      {
        "midi": 75,
        "time": 101.5,
        "duration": 0.25,
        "velocity": 0.71,
        "hand": "right"
      },
      {
        "midi": 73,
        "time": 101.75,
        "duration": 0.25,
        "velocity": 0.71,
        "hand": "right"
      },
      {
        "midi": 41,
        "time": 102,
        "duration": 0.5,
        "velocity": 0.48,
        "hand": "left"
      },
      {
        "midi": 60,
        "time": 102.5,
        "duration": 0.5,
        "velocity": 0.48,
        "hand": "right"
      },
      {
        "midi": 66,
        "time": 102.5,
        "duration": 0.5,
        "velocity": 0.48,
        "hand": "right"
      },
      {
        "midi": 72,
        "time": 102.5,
        "duration": 0.25,
        "velocity": 0.71,
        "hand": "right"
      },
      {
        "midi": 73,
        "time": 102.75,
        "duration": 0.25,
        "velocity": 0.71,
        "hand": "right"
      },
      {
        "midi": 54,
        "time": 103,
        "duration": 0.5,
        "velocity": 0.48,
        "hand": "left"
      },
      {
        "midi": 63,
        "time": 103,
        "duration": 0.5,
        "velocity": 0.48,
        "hand": "right"
      },
      {
        "midi": 72,
        "time": 103,
        "duration": 0.25,
        "velocity": 0.71,
        "hand": "right"
      },
      {
        "midi": 73,
        "time": 103.25,
        "duration": 0.25,
        "velocity": 0.71,
        "hand": "right"
      },
      {
        "midi": 53,
        "time": 103.5,
        "duration": 0.5,
        "velocity": 0.48,
        "hand": "left"
      },
      {
        "midi": 75,
        "time": 103.5,
        "duration": 0.5,
        "velocity": 0.71,
        "hand": "right"
      },
      {
        "midi": 63,
        "time": 104,
        "duration": 0.5,
        "velocity": 0.48,
        "hand": "right"
      },
      {
        "midi": 70,
        "time": 104,
        "duration": 0.5,
        "velocity": 0.48,
        "hand": "right"
      },
      {
        "midi": 75,
        "time": 104,
        "duration": 0.5,
        "velocity": 0.71,
        "hand": "right"
      },
      {
        "midi": 60,
        "time": 104.5,
        "duration": 0.5,
        "velocity": 0.48,
        "hand": "right"
      },
      {
        "midi": 66,
        "time": 104.5,
        "duration": 0.5,
        "velocity": 0.48,
        "hand": "right"
      },
      {
        "midi": 75,
        "time": 104.5,
        "duration": 0.5,
        "velocity": 0.71,
        "hand": "right"
      },
      {
        "midi": 41,
        "time": 105,
        "duration": 0.5,
        "velocity": 0.48,
        "hand": "left"
      },
      {
        "midi": 75,
        "time": 105,
        "duration": 0.5,
        "velocity": 0.71,
        "hand": "right"
      },
      {
        "midi": 63,
        "time": 105.5,
        "duration": 0.5,
        "velocity": 0.48,
        "hand": "right"
      },
      {
        "midi": 69,
        "time": 105.5,
        "duration": 0.5,
        "velocity": 0.48,
        "hand": "right"
      },
      {
        "midi": 77,
        "time": 105.5,
        "duration": 0.25,
        "velocity": 0.71,
        "hand": "right"
      },
      {
        "midi": 72,
        "time": 105.75,
        "duration": 0.25,
        "velocity": 0.71,
        "hand": "right"
      },
      {
        "midi": 57,
        "time": 106,
        "duration": 0.5,
        "velocity": 0.48,
        "hand": "left"
      },
      {
        "midi": 65,
        "time": 106,
        "duration": 0.5,
        "velocity": 0.48,
        "hand": "right"
      },
      {
        "midi": 75,
        "time": 106,
        "duration": 0.25,
        "velocity": 0.71,
        "hand": "right"
      },
      {
        "midi": 73,
        "time": 106.25,
        "duration": 0.25,
        "velocity": 0.71,
        "hand": "right"
      },
      {
        "midi": 46,
        "time": 106.5,
        "duration": 0.5,
        "velocity": 0.48,
        "hand": "left"
      },
      {
        "midi": 70,
        "time": 106.5,
        "duration": 1,
        "velocity": 0.71,
        "hand": "right"
      },
      {
        "midi": 58,
        "time": 107,
        "duration": 0.5,
        "velocity": 0.48,
        "hand": "left"
      },
      {
        "midi": 61,
        "time": 107,
        "duration": 0.5,
        "velocity": 0.48,
        "hand": "right"
      },
      {
        "midi": 65,
        "time": 107,
        "duration": 0.5,
        "velocity": 0.48,
        "hand": "right"
      },
      {
        "midi": 53,
        "time": 107.5,
        "duration": 0.5,
        "velocity": 0.48,
        "hand": "left"
      },
      {
        "midi": 58,
        "time": 107.5,
        "duration": 0.5,
        "velocity": 0.48,
        "hand": "left"
      },
      {
        "midi": 61,
        "time": 107.5,
        "duration": 0.5,
        "velocity": 0.48,
        "hand": "right"
      },
      {
        "midi": 58,
        "time": 108,
        "duration": 0.5,
        "velocity": 0.48,
        "hand": "left"
      },
      {
        "midi": 61,
        "time": 108,
        "duration": 0.5,
        "velocity": 0.48,
        "hand": "right"
      },
      {
        "midi": 66,
        "time": 108,
        "duration": 0.5,
        "velocity": 0.48,
        "hand": "right"
      },
      {
        "midi": 58,
        "time": 108.5,
        "duration": 0.5,
        "velocity": 0.26,
        "hand": "left"
      },
      {
        "midi": 61,
        "time": 108.5,
        "duration": 0.5,
        "velocity": 0.26,
        "hand": "right"
      },
      {
        "midi": 65,
        "time": 108.5,
        "duration": 0.5,
        "velocity": 0.26,
        "hand": "right"
      },
      {
        "midi": 53,
        "time": 109,
        "duration": 0.5,
        "velocity": 0.26,
        "hand": "left"
      },
      {
        "midi": 58,
        "time": 109,
        "duration": 0.5,
        "velocity": 0.26,
        "hand": "left"
      },
      {
        "midi": 61,
        "time": 109,
        "duration": 0.5,
        "velocity": 0.26,
        "hand": "right"
      },
      {
        "midi": 49,
        "time": 109.5,
        "duration": 0.5,
        "velocity": 0.26,
        "hand": "left"
      },
      {
        "midi": 53,
        "time": 109.5,
        "duration": 0.5,
        "velocity": 0.26,
        "hand": "left"
      },
      {
        "midi": 58,
        "time": 109.5,
        "duration": 0.5,
        "velocity": 0.26,
        "hand": "left"
      },
      {
        "midi": 34,
        "time": 110,
        "duration": 0.5,
        "velocity": 0.26,
        "hand": "left"
      },
      {
        "midi": 46,
        "time": 110,
        "duration": 0.5,
        "velocity": 0.26,
        "hand": "left"
      },
      {
        "midi": 32,
        "time": 110.5,
        "duration": 0.5,
        "velocity": 0.26,
        "hand": "left"
      },
      {
        "midi": 44,
        "time": 110.5,
        "duration": 0.5,
        "velocity": 0.26,
        "hand": "left"
      },
      {
        "midi": 30,
        "time": 111,
        "duration": 0.5,
        "velocity": 0.26,
        "hand": "left"
      },
      {
        "midi": 42,
        "time": 111,
        "duration": 0.5,
        "velocity": 0.26,
        "hand": "left"
      },
      {
        "midi": 37,
        "time": 111.5,
        "duration": 0.5,
        "velocity": 0.26,
        "hand": "left"
      },
      {
        "midi": 49,
        "time": 111.5,
        "duration": 0.5,
        "velocity": 0.26,
        "hand": "left"
      },
      {
        "midi": 42,
        "time": 112,
        "duration": 0.5,
        "velocity": 0.26,
        "hand": "left"
      },
      {
        "midi": 54,
        "time": 112,
        "duration": 0.5,
        "velocity": 0.26,
        "hand": "left"
      },
      {
        "midi": 46,
        "time": 112.5,
        "duration": 0.5,
        "velocity": 0.26,
        "hand": "left"
      },
      {
        "midi": 66,
        "time": 112.5,
        "duration": 1,
        "velocity": 0.71,
        "hand": "right"
      },
      {
        "midi": 78,
        "time": 112.5,
        "duration": 1,
        "velocity": 0.71,
        "hand": "right"
      },
      {
        "midi": 51,
        "time": 113,
        "duration": 0.5,
        "velocity": 0.26,
        "hand": "left"
      },
      {
        "midi": 63,
        "time": 113,
        "duration": 0.5,
        "velocity": 0.26,
        "hand": "right"
      },
      {
        "midi": 46,
        "time": 113.5,
        "duration": 0.5,
        "velocity": 0.26,
        "hand": "left"
      },
      {
        "midi": 66,
        "time": 113.5,
        "duration": 0.5,
        "velocity": 0.71,
        "hand": "right"
      },
      {
        "midi": 78,
        "time": 113.5,
        "duration": 0.5,
        "velocity": 0.71,
        "hand": "right"
      },
      {
        "midi": 49,
        "time": 114,
        "duration": 0.5,
        "velocity": 0.26,
        "hand": "left"
      },
      {
        "midi": 66,
        "time": 114,
        "duration": 4.5,
        "velocity": 0.71,
        "hand": "right"
      },
      {
        "midi": 78,
        "time": 114,
        "duration": 4.5,
        "velocity": 0.71,
        "hand": "right"
      },
      {
        "midi": 51,
        "time": 114.5,
        "duration": 0.5,
        "velocity": 0.26,
        "hand": "left"
      },
      {
        "midi": 63,
        "time": 114.5,
        "duration": 0.5,
        "velocity": 0.26,
        "hand": "right"
      },
      {
        "midi": 46,
        "time": 115,
        "duration": 0.5,
        "velocity": 0.26,
        "hand": "left"
      },
      {
        "midi": 58,
        "time": 115,
        "duration": 0.5,
        "velocity": 0.26,
        "hand": "left"
      },
      {
        "midi": 49,
        "time": 115.5,
        "duration": 0.5,
        "velocity": 0.26,
        "hand": "left"
      },
      {
        "midi": 61,
        "time": 115.5,
        "duration": 0.5,
        "velocity": 0.26,
        "hand": "right"
      },
      {
        "midi": 44,
        "time": 116,
        "duration": 0.5,
        "velocity": 0.26,
        "hand": "left"
      },
      {
        "midi": 56,
        "time": 116,
        "duration": 0.5,
        "velocity": 0.26,
        "hand": "left"
      },
      {
        "midi": 46,
        "time": 116.5,
        "duration": 0.5,
        "velocity": 0.26,
        "hand": "left"
      },
      {
        "midi": 58,
        "time": 116.5,
        "duration": 0.5,
        "velocity": 0.26,
        "hand": "left"
      },
      {
        "midi": 42,
        "time": 117,
        "duration": 0.5,
        "velocity": 0.26,
        "hand": "left"
      },
      {
        "midi": 54,
        "time": 117,
        "duration": 0.5,
        "velocity": 0.26,
        "hand": "left"
      },
      {
        "midi": 39,
        "time": 117.5,
        "duration": 0.5,
        "velocity": 0.26,
        "hand": "left"
      },
      {
        "midi": 51,
        "time": 117.5,
        "duration": 0.5,
        "velocity": 0.26,
        "hand": "left"
      },
      {
        "midi": 34,
        "time": 118,
        "duration": 0.5,
        "velocity": 0.26,
        "hand": "left"
      },
      {
        "midi": 46,
        "time": 118,
        "duration": 0.5,
        "velocity": 0.26,
        "hand": "left"
      },
      {
        "midi": 37,
        "time": 118.5,
        "duration": 0.5,
        "velocity": 0.26,
        "hand": "left"
      },
      {
        "midi": 66,
        "time": 118.5,
        "duration": 1,
        "velocity": 0.71,
        "hand": "right"
      },
      {
        "midi": 78,
        "time": 118.5,
        "duration": 1,
        "velocity": 0.71,
        "hand": "right"
      },
      {
        "midi": 32,
        "time": 119,
        "duration": 0.5,
        "velocity": 0.26,
        "hand": "left"
      },
      {
        "midi": 44,
        "time": 119,
        "duration": 0.5,
        "velocity": 0.26,
        "hand": "left"
      },
      {
        "midi": 34,
        "time": 119.5,
        "duration": 0.5,
        "velocity": 0.26,
        "hand": "left"
      },
      {
        "midi": 66,
        "time": 119.5,
        "duration": 0.5,
        "velocity": 0.71,
        "hand": "right"
      },
      {
        "midi": 78,
        "time": 119.5,
        "duration": 0.5,
        "velocity": 0.71,
        "hand": "right"
      },
      {
        "midi": 30,
        "time": 120,
        "duration": 0.5,
        "velocity": 0.26,
        "hand": "left"
      },
      {
        "midi": 66,
        "time": 120,
        "duration": 1.5,
        "velocity": 0.71,
        "hand": "right"
      },
      {
        "midi": 78,
        "time": 120,
        "duration": 1.5,
        "velocity": 0.71,
        "hand": "right"
      },
      {
        "midi": 51,
        "time": 120.5,
        "duration": 0.5,
        "velocity": 0.26,
        "hand": "left"
      },
      {
        "midi": 63,
        "time": 120.5,
        "duration": 0.5,
        "velocity": 0.26,
        "hand": "right"
      },
      {
        "midi": 46,
        "time": 121,
        "duration": 0.5,
        "velocity": 0.26,
        "hand": "left"
      },
      {
        "midi": 58,
        "time": 121,
        "duration": 0.5,
        "velocity": 0.26,
        "hand": "left"
      },
      {
        "midi": 49,
        "time": 121.5,
        "duration": 0.5,
        "velocity": 0.26,
        "hand": "left"
      },
      {
        "midi": 65,
        "time": 121.5,
        "duration": 1.5,
        "velocity": 0.71,
        "hand": "right"
      },
      {
        "midi": 77,
        "time": 121.5,
        "duration": 1.5,
        "velocity": 0.71,
        "hand": "right"
      },
      {
        "midi": 44,
        "time": 122,
        "duration": 0.5,
        "velocity": 0.26,
        "hand": "left"
      },
      {
        "midi": 56,
        "time": 122,
        "duration": 0.5,
        "velocity": 0.26,
        "hand": "left"
      },
      {
        "midi": 46,
        "time": 122.5,
        "duration": 0.5,
        "velocity": 0.26,
        "hand": "left"
      },
      {
        "midi": 58,
        "time": 122.5,
        "duration": 0.5,
        "velocity": 0.26,
        "hand": "left"
      },
      {
        "midi": 47,
        "time": 123,
        "duration": 0.5,
        "velocity": 0.26,
        "hand": "left"
      },
      {
        "midi": 64,
        "time": 123,
        "duration": 1.5,
        "velocity": 0.71,
        "hand": "right"
      },
      {
        "midi": 76,
        "time": 123,
        "duration": 1.5,
        "velocity": 0.71,
        "hand": "right"
      },
      {
        "midi": 35,
        "time": 123.5,
        "duration": 0.5,
        "velocity": 0.26,
        "hand": "left"
      },
      {
        "midi": 47,
        "time": 123.5,
        "duration": 0.5,
        "velocity": 0.26,
        "hand": "left"
      },
      {
        "midi": 40,
        "time": 124,
        "duration": 0.5,
        "velocity": 0.26,
        "hand": "left"
      },
      {
        "midi": 52,
        "time": 124,
        "duration": 0.5,
        "velocity": 0.26,
        "hand": "left"
      },
      {
        "midi": 44,
        "time": 124.5,
        "duration": 0.5,
        "velocity": 0.26,
        "hand": "left"
      },
      {
        "midi": 64,
        "time": 124.5,
        "duration": 1,
        "velocity": 0.71,
        "hand": "right"
      },
      {
        "midi": 76,
        "time": 124.5,
        "duration": 1,
        "velocity": 0.71,
        "hand": "right"
      },
      {
        "midi": 49,
        "time": 125,
        "duration": 0.5,
        "velocity": 0.26,
        "hand": "left"
      },
      {
        "midi": 61,
        "time": 125,
        "duration": 0.5,
        "velocity": 0.26,
        "hand": "right"
      },
      {
        "midi": 44,
        "time": 125.5,
        "duration": 0.5,
        "velocity": 0.26,
        "hand": "left"
      },
      {
        "midi": 64,
        "time": 125.5,
        "duration": 0.5,
        "velocity": 0.71,
        "hand": "right"
      },
      {
        "midi": 76,
        "time": 125.5,
        "duration": 0.5,
        "velocity": 0.71,
        "hand": "right"
      },
      {
        "midi": 47,
        "time": 126,
        "duration": 0.5,
        "velocity": 0.26,
        "hand": "left"
      },
      {
        "midi": 64,
        "time": 126,
        "duration": 4.5,
        "velocity": 0.71,
        "hand": "right"
      },
      {
        "midi": 76,
        "time": 126,
        "duration": 4.5,
        "velocity": 0.71,
        "hand": "right"
      },
      {
        "midi": 49,
        "time": 126.5,
        "duration": 0.5,
        "velocity": 0.26,
        "hand": "left"
      },
      {
        "midi": 61,
        "time": 126.5,
        "duration": 0.5,
        "velocity": 0.26,
        "hand": "right"
      },
      {
        "midi": 44,
        "time": 127,
        "duration": 0.5,
        "velocity": 0.26,
        "hand": "left"
      },
      {
        "midi": 56,
        "time": 127,
        "duration": 0.5,
        "velocity": 0.26,
        "hand": "left"
      },
      {
        "midi": 47,
        "time": 127.5,
        "duration": 0.5,
        "velocity": 0.26,
        "hand": "left"
      },
      {
        "midi": 59,
        "time": 127.5,
        "duration": 0.5,
        "velocity": 0.26,
        "hand": "left"
      },
      {
        "midi": 42,
        "time": 128,
        "duration": 0.5,
        "velocity": 0.26,
        "hand": "left"
      },
      {
        "midi": 54,
        "time": 128,
        "duration": 0.5,
        "velocity": 0.26,
        "hand": "left"
      },
      {
        "midi": 44,
        "time": 128.5,
        "duration": 0.5,
        "velocity": 0.26,
        "hand": "left"
      },
      {
        "midi": 56,
        "time": 128.5,
        "duration": 0.5,
        "velocity": 0.26,
        "hand": "left"
      },
      {
        "midi": 40,
        "time": 129,
        "duration": 0.5,
        "velocity": 0.26,
        "hand": "left"
      },
      {
        "midi": 52,
        "time": 129,
        "duration": 0.5,
        "velocity": 0.26,
        "hand": "left"
      },
      {
        "midi": 37,
        "time": 129.5,
        "duration": 0.5,
        "velocity": 0.26,
        "hand": "left"
      },
      {
        "midi": 49,
        "time": 129.5,
        "duration": 0.5,
        "velocity": 0.26,
        "hand": "left"
      },
      {
        "midi": 32,
        "time": 130,
        "duration": 0.5,
        "velocity": 0.26,
        "hand": "left"
      },
      {
        "midi": 44,
        "time": 130,
        "duration": 0.5,
        "velocity": 0.26,
        "hand": "left"
      },
      {
        "midi": 35,
        "time": 130.5,
        "duration": 0.5,
        "velocity": 0.26,
        "hand": "left"
      },
      {
        "midi": 64,
        "time": 130.5,
        "duration": 1,
        "velocity": 0.71,
        "hand": "right"
      },
      {
        "midi": 76,
        "time": 130.5,
        "duration": 1,
        "velocity": 0.71,
        "hand": "right"
      },
      {
        "midi": 30,
        "time": 131,
        "duration": 0.5,
        "velocity": 0.26,
        "hand": "left"
      },
      {
        "midi": 42,
        "time": 131,
        "duration": 0.5,
        "velocity": 0.26,
        "hand": "left"
      },
      {
        "midi": 32,
        "time": 131.5,
        "duration": 0.5,
        "velocity": 0.26,
        "hand": "left"
      },
      {
        "midi": 64,
        "time": 131.5,
        "duration": 0.5,
        "velocity": 0.71,
        "hand": "right"
      },
      {
        "midi": 76,
        "time": 131.5,
        "duration": 0.5,
        "velocity": 0.71,
        "hand": "right"
      },
      {
        "midi": 28,
        "time": 132,
        "duration": 0.5,
        "velocity": 0.26,
        "hand": "left"
      },
      {
        "midi": 64,
        "time": 132,
        "duration": 1.5,
        "velocity": 0.71,
        "hand": "right"
      },
      {
        "midi": 76,
        "time": 132,
        "duration": 1.5,
        "velocity": 0.71,
        "hand": "right"
      },
      {
        "midi": 49,
        "time": 132.5,
        "duration": 0.5,
        "velocity": 0.26,
        "hand": "left"
      },
      {
        "midi": 61,
        "time": 132.5,
        "duration": 0.5,
        "velocity": 0.26,
        "hand": "right"
      },
      {
        "midi": 44,
        "time": 133,
        "duration": 0.5,
        "velocity": 0.26,
        "hand": "left"
      },
      {
        "midi": 56,
        "time": 133,
        "duration": 0.5,
        "velocity": 0.26,
        "hand": "left"
      },
      {
        "midi": 47,
        "time": 133.5,
        "duration": 0.5,
        "velocity": 0.26,
        "hand": "left"
      },
      {
        "midi": 63,
        "time": 133.5,
        "duration": 1.5,
        "velocity": 0.71,
        "hand": "right"
      },
      {
        "midi": 75,
        "time": 133.5,
        "duration": 1.5,
        "velocity": 0.71,
        "hand": "right"
      },
      {
        "midi": 46,
        "time": 134,
        "duration": 0.5,
        "velocity": 0.26,
        "hand": "left"
      },
      {
        "midi": 58,
        "time": 134,
        "duration": 0.5,
        "velocity": 0.26,
        "hand": "left"
      },
      {
        "midi": 70,
        "time": 134,
        "duration": 0.5,
        "velocity": 0.71,
        "hand": "right"
      },
      {
        "midi": 44,
        "time": 134.5,
        "duration": 0.5,
        "velocity": 0.26,
        "hand": "left"
      },
      {
        "midi": 56,
        "time": 134.5,
        "duration": 0.5,
        "velocity": 0.26,
        "hand": "left"
      },
      {
        "midi": 71,
        "time": 134.5,
        "duration": 0.5,
        "velocity": 0.71,
        "hand": "right"
      },
      {
        "midi": 34,
        "time": 135,
        "duration": 0.5,
        "velocity": 0.26,
        "hand": "left"
      },
      {
        "midi": 46,
        "time": 135,
        "duration": 0.5,
        "velocity": 0.26,
        "hand": "left"
      },
      {
        "midi": 62,
        "time": 135,
        "duration": 0.5,
        "velocity": 0.71,
        "hand": "right"
      },
      {
        "midi": 56,
        "time": 135.5,
        "duration": 0.5,
        "velocity": 0.26,
        "hand": "left"
      },
      {
        "midi": 62,
        "time": 135.5,
        "duration": 0.5,
        "velocity": 0.26,
        "hand": "right"
      },
      {
        "midi": 74,
        "time": 135.5,
        "duration": 0.25,
        "velocity": 0.71,
        "hand": "right"
      },
      {
        "midi": 75,
        "time": 135.75,
        "duration": 0.25,
        "velocity": 0.71,
        "hand": "right"
      },
      {
        "midi": 62,
        "time": 136,
        "duration": 0.5,
        "velocity": 0.26,
        "hand": "right"
      },
      {
        "midi": 68,
        "time": 136,
        "duration": 0.5,
        "velocity": 0.26,
        "hand": "right"
      },
      {
        "midi": 74,
        "time": 136,
        "duration": 0.25,
        "velocity": 0.71,
        "hand": "right"
      },
      {
        "midi": 75,
        "time": 136.25,
        "duration": 0.25,
        "velocity": 0.71,
        "hand": "right"
      },
      {
        "midi": 77,
        "time": 136.5,
        "duration": 0.5,
        "velocity": 0.71,
        "hand": "right"
      },
      {
        "midi": 56,
        "time": 137,
        "duration": 0.5,
        "velocity": 0.26,
        "hand": "left"
      },
      {
        "midi": 68,
        "time": 137,
        "duration": 0.5,
        "velocity": 0.26,
        "hand": "right"
      },
      {
        "midi": 77,
        "time": 137,
        "duration": 0.5,
        "velocity": 0.71,
        "hand": "right"
      },
      {
        "midi": 53,
        "time": 137.5,
        "duration": 0.5,
        "velocity": 0.26,
        "hand": "left"
      },
      {
        "midi": 62,
        "time": 137.5,
        "duration": 0.5,
        "velocity": 0.26,
        "hand": "right"
      },
      {
        "midi": 77,
        "time": 137.5,
        "duration": 0.5,
        "velocity": 0.71,
        "hand": "right"
      },
      {
        "midi": 47,
        "time": 138,
        "duration": 0.5,
        "velocity": 0.26,
        "hand": "left"
      },
      {
        "midi": 77,
        "time": 138,
        "duration": 0.5,
        "velocity": 0.71,
        "hand": "right"
      },
      {
        "midi": 56,
        "time": 138.5,
        "duration": 0.5,
        "velocity": 0.26,
        "hand": "left"
      },
      {
        "midi": 68,
        "time": 138.5,
        "duration": 0.5,
        "velocity": 0.26,
        "hand": "right"
      },
      {
        "midi": 78,
        "time": 138.5,
        "duration": 0.25,
        "velocity": 0.71,
        "hand": "right"
      },
      {
        "midi": 77,
        "time": 138.75,
        "duration": 0.25,
        "velocity": 0.71,
        "hand": "right"
      },
      {
        "midi": 53,
        "time": 139,
        "duration": 0.5,
        "velocity": 0.26,
        "hand": "left"
      },
      {
        "midi": 63,
        "time": 139,
        "duration": 0.5,
        "velocity": 0.26,
        "hand": "right"
      },
      {
        "midi": 75,
        "time": 139,
        "duration": 0.25,
        "velocity": 0.71,
        "hand": "right"
      },
      {
        "midi": 68,
        "time": 139.25,
        "duration": 0.25,
        "velocity": 0.71,
        "hand": "right"
      },
      {
        "midi": 41,
        "time": 139.5,
        "duration": 0.5,
        "velocity": 0.26,
        "hand": "left"
      },
      {
        "midi": 83,
        "time": 139.5,
        "duration": 1.5,
        "velocity": 0.71,
        "hand": "right"
      },
      {
        "midi": 56,
        "time": 140,
        "duration": 0.5,
        "velocity": 0.26,
        "hand": "left"
      },
      {
        "midi": 63,
        "time": 140,
        "duration": 0.5,
        "velocity": 0.26,
        "hand": "right"
      },
      {
        "midi": 68,
        "time": 140,
        "duration": 0.5,
        "velocity": 0.26,
        "hand": "right"
      },
      {
        "midi": 53,
        "time": 140.5,
        "duration": 0.5,
        "velocity": 0.26,
        "hand": "left"
      },
      {
        "midi": 56,
        "time": 140.5,
        "duration": 0.5,
        "velocity": 0.26,
        "hand": "left"
      },
      {
        "midi": 63,
        "time": 140.5,
        "duration": 0.5,
        "velocity": 0.26,
        "hand": "right"
      },
      {
        "midi": 46,
        "time": 141,
        "duration": 0.5,
        "velocity": 0.26,
        "hand": "left"
      },
      {
        "midi": 56,
        "time": 141.5,
        "duration": 0.5,
        "velocity": 0.26,
        "hand": "left"
      },
      {
        "midi": 62,
        "time": 141.5,
        "duration": 0.5,
        "velocity": 0.26,
        "hand": "right"
      },
      {
        "midi": 74,
        "time": 141.5,
        "duration": 0.25,
        "velocity": 0.71,
        "hand": "right"
      },
      {
        "midi": 75,
        "time": 141.75,
        "duration": 0.25,
        "velocity": 0.71,
        "hand": "right"
      },
      {
        "midi": 62,
        "time": 142,
        "duration": 0.5,
        "velocity": 0.26,
        "hand": "right"
      },
      {
        "midi": 68,
        "time": 142,
        "duration": 0.5,
        "velocity": 0.26,
        "hand": "right"
      },
      {
        "midi": 74,
        "time": 142,
        "duration": 0.25,
        "velocity": 0.71,
        "hand": "right"
      },
      {
        "midi": 75,
        "time": 142.25,
        "duration": 0.25,
        "velocity": 0.71,
        "hand": "right"
      },
      {
        "midi": 47,
        "time": 142.5,
        "duration": 0.5,
        "velocity": 0.26,
        "hand": "left"
      },
      {
        "midi": 77,
        "time": 142.5,
        "duration": 0.5,
        "velocity": 0.71,
        "hand": "right"
      },
      {
        "midi": 56,
        "time": 143,
        "duration": 0.5,
        "velocity": 0.26,
        "hand": "left"
      },
      {
        "midi": 68,
        "time": 143,
        "duration": 0.5,
        "velocity": 0.26,
        "hand": "right"
      },
      {
        "midi": 77,
        "time": 143,
        "duration": 0.5,
        "velocity": 0.71,
        "hand": "right"
      },
      {
        "midi": 53,
        "time": 143.5,
        "duration": 0.5,
        "velocity": 0.26,
        "hand": "left"
      },
      {
        "midi": 63,
        "time": 143.5,
        "duration": 0.5,
        "velocity": 0.26,
        "hand": "right"
      },
      {
        "midi": 77,
        "time": 143.5,
        "duration": 0.5,
        "velocity": 0.71,
        "hand": "right"
      },
      {
        "midi": 48,
        "time": 144,
        "duration": 0.5,
        "velocity": 0.26,
        "hand": "left"
      },
      {
        "midi": 77,
        "time": 144,
        "duration": 0.5,
        "velocity": 0.71,
        "hand": "right"
      },
      {
        "midi": 57,
        "time": 144.5,
        "duration": 0.5,
        "velocity": 0.26,
        "hand": "left"
      },
      {
        "midi": 69,
        "time": 144.5,
        "duration": 0.5,
        "velocity": 0.26,
        "hand": "right"
      },
      {
        "midi": 78,
        "time": 144.5,
        "duration": 0.25,
        "velocity": 0.71,
        "hand": "right"
      },
      {
        "midi": 77,
        "time": 144.75,
        "duration": 0.25,
        "velocity": 0.71,
        "hand": "right"
      },
      {
        "midi": 53,
        "time": 145,
        "duration": 0.5,
        "velocity": 0.26,
        "hand": "left"
      },
      {
        "midi": 63,
        "time": 145,
        "duration": 0.5,
        "velocity": 0.26,
        "hand": "right"
      },
      {
        "midi": 75,
        "time": 145,
        "duration": 0.25,
        "velocity": 0.71,
        "hand": "right"
      },
      {
        "midi": 69,
        "time": 145.25,
        "duration": 0.25,
        "velocity": 0.71,
        "hand": "right"
      },
      {
        "midi": 41,
        "time": 145.5,
        "duration": 0.5,
        "velocity": 0.26,
        "hand": "left"
      },
      {
        "midi": 84,
        "time": 145.5,
        "duration": 1.5,
        "velocity": 0.71,
        "hand": "right"
      },
      {
        "midi": 57,
        "time": 146,
        "duration": 0.5,
        "velocity": 0.26,
        "hand": "left"
      },
      {
        "midi": 63,
        "time": 146,
        "duration": 0.5,
        "velocity": 0.26,
        "hand": "right"
      },
      {
        "midi": 69,
        "time": 146,
        "duration": 0.5,
        "velocity": 0.26,
        "hand": "right"
      },
      {
        "midi": 53,
        "time": 146.5,
        "duration": 0.5,
        "velocity": 0.26,
        "hand": "left"
      },
      {
        "midi": 57,
        "time": 146.5,
        "duration": 0.5,
        "velocity": 0.26,
        "hand": "left"
      },
      {
        "midi": 63,
        "time": 146.5,
        "duration": 0.5,
        "velocity": 0.26,
        "hand": "right"
      },
      {
        "midi": 46,
        "time": 147,
        "duration": 0.5,
        "velocity": 0.26,
        "hand": "left"
      },
      {
        "midi": 82,
        "time": 147,
        "duration": 1.5,
        "velocity": 0.71,
        "hand": "right"
      },
      {
        "midi": 58,
        "time": 147.5,
        "duration": 0.5,
        "velocity": 0.26,
        "hand": "left"
      },
      {
        "midi": 62,
        "time": 147.5,
        "duration": 0.5,
        "velocity": 0.26,
        "hand": "right"
      },
      {
        "midi": 68,
        "time": 147.5,
        "duration": 0.5,
        "velocity": 0.26,
        "hand": "right"
      },
      {
        "midi": 53,
        "time": 148,
        "duration": 0.5,
        "velocity": 0.26,
        "hand": "left"
      },
      {
        "midi": 58,
        "time": 148,
        "duration": 0.5,
        "velocity": 0.26,
        "hand": "left"
      },
      {
        "midi": 62,
        "time": 148,
        "duration": 0.5,
        "velocity": 0.26,
        "hand": "right"
      },
      {
        "midi": 39,
        "time": 148.5,
        "duration": 0.5,
        "velocity": 0.26,
        "hand": "left"
      },
      {
        "midi": 73,
        "time": 148.5,
        "duration": 1.5,
        "velocity": 0.71,
        "hand": "right"
      },
      {
        "midi": 79,
        "time": 148.5,
        "duration": 1.5,
        "velocity": 0.71,
        "hand": "right"
      },
      {
        "midi": 58,
        "time": 149,
        "duration": 0.5,
        "velocity": 0.26,
        "hand": "left"
      },
      {
        "midi": 61,
        "time": 149,
        "duration": 0.5,
        "velocity": 0.26,
        "hand": "right"
      },
      {
        "midi": 67,
        "time": 149,
        "duration": 0.5,
        "velocity": 0.26,
        "hand": "right"
      },
      {
        "midi": 51,
        "time": 149.5,
        "duration": 0.5,
        "velocity": 0.26,
        "hand": "left"
      },
      {
        "midi": 58,
        "time": 149.5,
        "duration": 0.5,
        "velocity": 0.26,
        "hand": "left"
      },
      {
        "midi": 61,
        "time": 149.5,
        "duration": 0.5,
        "velocity": 0.26,
        "hand": "right"
      },
      {
        "midi": 44,
        "time": 150,
        "duration": 0.5,
        "velocity": 0.26,
        "hand": "left"
      },
      {
        "midi": 73,
        "time": 150,
        "duration": 0.5,
        "velocity": 0.71,
        "hand": "right"
      },
      {
        "midi": 82,
        "time": 150,
        "duration": 0.5,
        "velocity": 0.71,
        "hand": "right"
      },
      {
        "midi": 56,
        "time": 150.5,
        "duration": 0.5,
        "velocity": 0.26,
        "hand": "left"
      },
      {
        "midi": 66,
        "time": 150.5,
        "duration": 0.5,
        "velocity": 0.26,
        "hand": "right"
      },
      {
        "midi": 80,
        "time": 150.5,
        "duration": 0.25,
        "velocity": 0.71,
        "hand": "right"
      },
      {
        "midi": 75,
        "time": 150.75,
        "duration": 0.25,
        "velocity": 0.71,
        "hand": "right"
      },
      {
        "midi": 51,
        "time": 151,
        "duration": 0.5,
        "velocity": 0.26,
        "hand": "left"
      },
      {
        "midi": 60,
        "time": 151,
        "duration": 0.5,
        "velocity": 0.26,
        "hand": "right"
      },
      {
        "midi": 80,
        "time": 151,
        "duration": 0.25,
        "velocity": 0.71,
        "hand": "right"
      },
      {
        "midi": 78,
        "time": 151.25,
        "duration": 0.25,
        "velocity": 0.71,
        "hand": "right"
      },
      {
        "midi": 37,
        "time": 151.5,
        "duration": 0.5,
        "velocity": 0.26,
        "hand": "left"
      },
      {
        "midi": 75,
        "time": 151.5,
        "duration": 0.5,
        "velocity": 0.71,
        "hand": "right"
      },
      {
        "midi": 78,
        "time": 151.5,
        "duration": 0.5,
        "velocity": 0.71,
        "hand": "right"
      },
      {
        "midi": 56,
        "time": 152,
        "duration": 0.5,
        "velocity": 0.26,
        "hand": "left"
      },
      {
        "midi": 65,
        "time": 152,
        "duration": 0.5,
        "velocity": 0.26,
        "hand": "right"
      },
      {
        "midi": 77,
        "time": 152,
        "duration": 1,
        "velocity": 0.71,
        "hand": "right"
      },
      {
        "midi": 68,
        "time": 152.25,
        "duration": 0.25,
        "velocity": 0.71,
        "hand": "right"
      },
      {
        "midi": 53,
        "time": 152.5,
        "duration": 0.5,
        "velocity": 0.26,
        "hand": "left"
      },
      {
        "midi": 61,
        "time": 152.5,
        "duration": 0.5,
        "velocity": 0.26,
        "hand": "right"
      },
      {
        "midi": 73,
        "time": 152.5,
        "duration": 0.25,
        "velocity": 0.71,
        "hand": "right"
      },
      {
        "midi": 72,
        "time": 152.75,
        "duration": 0.25,
        "velocity": 0.71,
        "hand": "right"
      },
      {
        "midi": 42,
        "time": 153,
        "duration": 0.5,
        "velocity": 0.26,
        "hand": "left"
      },
      {
        "midi": 72,
        "time": 153,
        "duration": 0.5,
        "velocity": 0.71,
        "hand": "right"
      },
      {
        "midi": 80,
        "time": 153,
        "duration": 0.5,
        "velocity": 0.71,
        "hand": "right"
      },
      {
        "midi": 58,
        "time": 153.5,
        "duration": 0.5,
        "velocity": 0.26,
        "hand": "left"
      },
      {
        "midi": 65,
        "time": 153.5,
        "duration": 0.5,
        "velocity": 0.26,
        "hand": "right"
      },
      {
        "midi": 78,
        "time": 153.5,
        "duration": 0.25,
        "velocity": 0.71,
        "hand": "right"
      },
      {
        "midi": 73,
        "time": 153.75,
        "duration": 0.25,
        "velocity": 0.71,
        "hand": "right"
      },
      {
        "midi": 54,
        "time": 154,
        "duration": 0.5,
        "velocity": 0.26,
        "hand": "left"
      },
      {
        "midi": 61,
        "time": 154,
        "duration": 0.5,
        "velocity": 0.26,
        "hand": "right"
      },
      {
        "midi": 78,
        "time": 154,
        "duration": 0.25,
        "velocity": 0.71,
        "hand": "right"
      },
      {
        "midi": 77,
        "time": 154.25,
        "duration": 0.25,
        "velocity": 0.71,
        "hand": "right"
      },
      {
        "midi": 36,
        "time": 154.5,
        "duration": 0.5,
        "velocity": 0.26,
        "hand": "left"
      },
      {
        "midi": 70,
        "time": 154.5,
        "duration": 0.5,
        "velocity": 0.71,
        "hand": "right"
      },
      {
        "midi": 77,
        "time": 154.5,
        "duration": 0.5,
        "velocity": 0.71,
        "hand": "right"
      },
      {
        "midi": 54,
        "time": 155,
        "duration": 0.5,
        "velocity": 0.26,
        "hand": "left"
      },
      {
        "midi": 72,
        "time": 155,
        "duration": 0.25,
        "velocity": 0.71,
        "hand": "right"
      },
      {
        "midi": 75,
        "time": 155,
        "duration": 0.25,
        "velocity": 0.71,
        "hand": "right"
      },
      {
        "midi": 73,
        "time": 155.25,
        "duration": 0.25,
        "velocity": 0.71,
        "hand": "right"
      },
      {
        "midi": 77,
        "time": 155.25,
        "duration": 0.25,
        "velocity": 0.71,
        "hand": "right"
      },
      {
        "midi": 70,
        "time": 155.5,
        "duration": 0.25,
        "velocity": 0.71,
        "hand": "right"
      },
      {
        "midi": 80,
        "time": 155.5,
        "duration": 0.25,
        "velocity": 0.71,
        "hand": "right"
      },
      {
        "midi": 72,
        "time": 155.75,
        "duration": 0.25,
        "velocity": 0.71,
        "hand": "right"
      },
      {
        "midi": 78,
        "time": 155.75,
        "duration": 0.25,
        "velocity": 0.71,
        "hand": "right"
      },
      {
        "midi": 41,
        "time": 156,
        "duration": 0.5,
        "velocity": 0.26,
        "hand": "left"
      },
      {
        "midi": 63,
        "time": 156,
        "duration": 0.5,
        "velocity": 0.71,
        "hand": "right"
      },
      {
        "midi": 69,
        "time": 156,
        "duration": 0.5,
        "velocity": 0.71,
        "hand": "right"
      },
      {
        "midi": 63,
        "time": 156.5,
        "duration": 0.25,
        "velocity": 0.26,
        "hand": "right"
      },
      {
        "midi": 69,
        "time": 156.5,
        "duration": 2,
        "velocity": 0.71,
        "hand": "right"
      },
      {
        "midi": 72,
        "time": 156.5,
        "duration": 0.25,
        "velocity": 0.71,
        "hand": "right"
      },
      {
        "midi": 53,
        "time": 156.75,
        "duration": 0.25,
        "velocity": 0.26,
        "hand": "left"
      },
      {
        "midi": 73,
        "time": 156.75,
        "duration": 0.25,
        "velocity": 0.71,
        "hand": "right"
      },
      {
        "midi": 63,
        "time": 157,
        "duration": 0.25,
        "velocity": 0.26,
        "hand": "right"
      },
      {
        "midi": 72,
        "time": 157,
        "duration": 0.25,
        "velocity": 0.71,
        "hand": "right"
      },
      {
        "midi": 61,
        "time": 157.25,
        "duration": 0.25,
        "velocity": 0.26,
        "hand": "right"
      },
      {
        "midi": 73,
        "time": 157.25,
        "duration": 0.25,
        "velocity": 0.71,
        "hand": "right"
      },
      {
        "midi": 60,
        "time": 157.5,
        "duration": 1,
        "velocity": 0.26,
        "hand": "right"
      },
      {
        "midi": 75,
        "time": 157.5,
        "duration": 1,
        "velocity": 0.71,
        "hand": "right"
      },
      {
        "midi": 65,
        "time": 158,
        "duration": 1,
        "velocity": 0.71,
        "hand": "right"
      },
      {
        "midi": 58,
        "time": 158.5,
        "duration": 0.5,
        "velocity": 0.26,
        "hand": "left"
      },
      {
        "midi": 70,
        "time": 158.5,
        "duration": 0.5,
        "velocity": 0.71,
        "hand": "right"
      },
      {
        "midi": 73,
        "time": 158.5,
        "duration": 0.5,
        "velocity": 0.71,
        "hand": "right"
      },
      {
        "midi": 58,
        "time": 159,
        "duration": 0.5,
        "velocity": 0.26,
        "hand": "left"
      },
      {
        "midi": 70,
        "time": 159,
        "duration": 0.5,
        "velocity": 0.71,
        "hand": "right"
      },
      {
        "midi": 73,
        "time": 159,
        "duration": 0.5,
        "velocity": 0.71,
        "hand": "right"
      },
      {
        "midi": 64,
        "time": 159.5,
        "duration": 0.25,
        "velocity": 0.26,
        "hand": "right"
      },
      {
        "midi": 70,
        "time": 159.5,
        "duration": 0.25,
        "velocity": 0.71,
        "hand": "right"
      },
      {
        "midi": 73,
        "time": 159.5,
        "duration": 0.25,
        "velocity": 0.71,
        "hand": "right"
      },
      {
        "midi": 53,
        "time": 159.75,
        "duration": 0.25,
        "velocity": 0.26,
        "hand": "left"
      },
      {
        "midi": 72,
        "time": 159.75,
        "duration": 0.25,
        "velocity": 0.71,
        "hand": "right"
      },
      {
        "midi": 75,
        "time": 159.75,
        "duration": 0.25,
        "velocity": 0.71,
        "hand": "right"
      },
      {
        "midi": 64,
        "time": 160,
        "duration": 0.25,
        "velocity": 0.26,
        "hand": "right"
      },
      {
        "midi": 70,
        "time": 160,
        "duration": 0.25,
        "velocity": 0.71,
        "hand": "right"
      },
      {
        "midi": 73,
        "time": 160,
        "duration": 0.25,
        "velocity": 0.71,
        "hand": "right"
      },
      {
        "midi": 63,
        "time": 160.25,
        "duration": 0.25,
        "velocity": 0.26,
        "hand": "right"
      },
      {
        "midi": 72,
        "time": 160.25,
        "duration": 0.25,
        "velocity": 0.71,
        "hand": "right"
      },
      {
        "midi": 75,
        "time": 160.25,
        "duration": 0.25,
        "velocity": 0.71,
        "hand": "right"
      },
      {
        "midi": 61,
        "time": 160.5,
        "duration": 1,
        "velocity": 0.26,
        "hand": "right"
      },
      {
        "midi": 70,
        "time": 160.5,
        "duration": 1,
        "velocity": 0.71,
        "hand": "right"
      },
      {
        "midi": 76,
        "time": 160.5,
        "duration": 1,
        "velocity": 0.71,
        "hand": "right"
      },
      {
        "midi": 66,
        "time": 161,
        "duration": 1,
        "velocity": 0.71,
        "hand": "right"
      },
      {
        "midi": 60,
        "time": 161.5,
        "duration": 0.5,
        "velocity": 0.26,
        "hand": "right"
      },
      {
        "midi": 70,
        "time": 161.5,
        "duration": 0.5,
        "velocity": 0.71,
        "hand": "right"
      },
      {
        "midi": 75,
        "time": 161.5,
        "duration": 0.5,
        "velocity": 0.71,
        "hand": "right"
      },
      {
        "midi": 60,
        "time": 162,
        "duration": 0.5,
        "velocity": 0.26,
        "hand": "right"
      },
      {
        "midi": 70,
        "time": 162,
        "duration": 0.5,
        "velocity": 0.71,
        "hand": "right"
      },
      {
        "midi": 75,
        "time": 162,
        "duration": 0.5,
        "velocity": 0.71,
        "hand": "right"
      },
      {
        "midi": 75,
        "time": 162.5,
        "duration": 0.25,
        "velocity": 0.71,
        "hand": "right"
      },
      {
        "midi": 77,
        "time": 162.75,
        "duration": 0.25,
        "velocity": 0.71,
        "hand": "right"
      },
      {
        "midi": 75,
        "time": 163,
        "duration": 0.25,
        "velocity": 0.71,
        "hand": "right"
      },
      {
        "midi": 77,
        "time": 163.25,
        "duration": 0.25,
        "velocity": 0.71,
        "hand": "right"
      },
      {
        "midi": 78,
        "time": 163.5,
        "duration": 0.5,
        "velocity": 0.71,
        "hand": "right"
      },
      {
        "midi": 78,
        "time": 164,
        "duration": 0.5,
        "velocity": 0.71,
        "hand": "right"
      },
      {
        "midi": 78,
        "time": 164.5,
        "duration": 0.5,
        "velocity": 0.71,
        "hand": "right"
      },
      {
        "midi": 78,
        "time": 165,
        "duration": 2,
        "velocity": 0.71,
        "hand": "right"
      },
      {
        "midi": 41,
        "time": 166.5,
        "duration": 0.5,
        "velocity": 0.26,
        "hand": "left"
      },
      {
        "midi": 63,
        "time": 167,
        "duration": 0.5,
        "velocity": 0.26,
        "hand": "right"
      },
      {
        "midi": 69,
        "time": 167,
        "duration": 0.5,
        "velocity": 0.26,
        "hand": "right"
      },
      {
        "midi": 77,
        "time": 167,
        "duration": 0.25,
        "velocity": 0.71,
        "hand": "right"
      },
      {
        "midi": 72,
        "time": 167.25,
        "duration": 0.25,
        "velocity": 0.71,
        "hand": "right"
      },
      {
        "midi": 57,
        "time": 167.5,
        "duration": 0.5,
        "velocity": 0.26,
        "hand": "left"
      },
      {
        "midi": 65,
        "time": 167.5,
        "duration": 0.5,
        "velocity": 0.26,
        "hand": "right"
      },
      {
        "midi": 75,
        "time": 167.5,
        "duration": 0.25,
        "velocity": 0.71,
        "hand": "right"
      },
      {
        "midi": 73,
        "time": 167.75,
        "duration": 0.25,
        "velocity": 0.71,
        "hand": "right"
      },
      {
        "midi": 46,
        "time": 168,
        "duration": 0.5,
        "velocity": 0.26,
        "hand": "left"
      },
      {
        "midi": 70,
        "time": 168,
        "duration": 1.5,
        "velocity": 0.71,
        "hand": "right"
      },
      {
        "midi": 58,
        "time": 168.5,
        "duration": 0.5,
        "velocity": 0.26,
        "hand": "left"
      },
      {
        "midi": 61,
        "time": 168.5,
        "duration": 0.5,
        "velocity": 0.26,
        "hand": "right"
      },
      {
        "midi": 65,
        "time": 168.5,
        "duration": 0.5,
        "velocity": 0.26,
        "hand": "right"
      },
      {
        "midi": 53,
        "time": 169,
        "duration": 0.5,
        "velocity": 0.26,
        "hand": "left"
      },
      {
        "midi": 58,
        "time": 169,
        "duration": 0.5,
        "velocity": 0.26,
        "hand": "left"
      },
      {
        "midi": 61,
        "time": 169,
        "duration": 0.5,
        "velocity": 0.26,
        "hand": "right"
      },
      {
        "midi": 48,
        "time": 169.5,
        "duration": 0.5,
        "velocity": 0.26,
        "hand": "left"
      },
      {
        "midi": 67,
        "time": 169.5,
        "duration": 0.5,
        "velocity": 0.71,
        "hand": "right"
      },
      {
        "midi": 58,
        "time": 170,
        "duration": 0.5,
        "velocity": 0.26,
        "hand": "left"
      },
      {
        "midi": 60,
        "time": 170,
        "duration": 0.5,
        "velocity": 0.26,
        "hand": "right"
      },
      {
        "midi": 64,
        "time": 170,
        "duration": 0.5,
        "velocity": 0.26,
        "hand": "right"
      },
      {
        "midi": 52,
        "time": 170.5,
        "duration": 0.5,
        "velocity": 0.26,
        "hand": "left"
      },
      {
        "midi": 58,
        "time": 170.5,
        "duration": 0.5,
        "velocity": 0.26,
        "hand": "left"
      },
      {
        "midi": 60,
        "time": 170.5,
        "duration": 0.5,
        "velocity": 0.26,
        "hand": "right"
      },
      {
        "midi": 41,
        "time": 171,
        "duration": 0.5,
        "velocity": 0.26,
        "hand": "left"
      },
      {
        "midi": 68,
        "time": 171.25,
        "duration": 0.25,
        "velocity": 0.71,
        "hand": "right"
      },
      {
        "midi": 53,
        "time": 171.5,
        "duration": 0.5,
        "velocity": 0.26,
        "hand": "left"
      },
      {
        "midi": 60,
        "time": 171.5,
        "duration": 0.5,
        "velocity": 0.26,
        "hand": "right"
      },
      {
        "midi": 72,
        "time": 171.5,
        "duration": 0.5,
        "velocity": 0.71,
        "hand": "right"
      },
      {
        "midi": 67,
        "time": 171.75,
        "duration": 0.25,
        "velocity": 0.71,
        "hand": "right"
      },
      {
        "midi": 56,
        "time": 172,
        "duration": 0.5,
        "velocity": 0.26,
        "hand": "left"
      },
      {
        "midi": 68,
        "time": 172,
        "duration": 0.5,
        "velocity": 0.26,
        "hand": "right"
      },
      {
        "midi": 77,
        "time": 172,
        "duration": 0.5,
        "velocity": 0.71,
        "hand": "right"
      },
      {
        "midi": 65,
        "time": 172.25,
        "duration": 0.25,
        "velocity": 0.71,
        "hand": "right"
      },
      {
        "midi": 41,
        "time": 172.5,
        "duration": 0.5,
        "velocity": 0.26,
        "hand": "left"
      },
      {
        "midi": 70,
        "time": 172.5,
        "duration": 0.25,
        "velocity": 0.71,
        "hand": "right"
      },
      {
        "midi": 76,
        "time": 172.5,
        "duration": 0.5,
        "velocity": 0.71,
        "hand": "right"
      },
      {
        "midi": 68,
        "time": 172.75,
        "duration": 0.25,
        "velocity": 0.71,
        "hand": "right"
      },
      {
        "midi": 53,
        "time": 173,
        "duration": 0.5,
        "velocity": 0.26,
        "hand": "left"
      },
      {
        "midi": 61,
        "time": 173,
        "duration": 0.5,
        "velocity": 0.26,
        "hand": "right"
      },
      {
        "midi": 70,
        "time": 173,
        "duration": 0.5,
        "velocity": 0.71,
        "hand": "right"
      },
      {
        "midi": 65,
        "time": 173.25,
        "duration": 0.25,
        "velocity": 0.71,
        "hand": "right"
      },
      {
        "midi": 58,
        "time": 173.5,
        "duration": 0.5,
        "velocity": 0.26,
        "hand": "left"
      },
      {
        "midi": 64,
        "time": 173.5,
        "duration": 0.25,
        "velocity": 0.71,
        "hand": "right"
      },
      {
        "midi": 73,
        "time": 173.5,
        "duration": 1,
        "velocity": 0.71,
        "hand": "right"
      },
      {
        "midi": 70,
        "time": 173.75,
        "duration": 0.25,
        "velocity": 0.71,
        "hand": "right"
      },
      {
        "midi": 41,
        "time": 174,
        "duration": 0.5,
        "velocity": 0.26,
        "hand": "left"
      },
      {
        "midi": 53,
        "time": 174,
        "duration": 0.5,
        "velocity": 0.26,
        "hand": "left"
      },
      {
        "midi": 70,
        "time": 174,
        "duration": 0.25,
        "velocity": 0.71,
        "hand": "right"
      },
      {
        "midi": 68,
        "time": 174.25,
        "duration": 0.25,
        "velocity": 0.71,
        "hand": "right"
      },
      {
        "midi": 53,
        "time": 174.5,
        "duration": 0.5,
        "velocity": 0.26,
        "hand": "left"
      },
      {
        "midi": 60,
        "time": 174.5,
        "duration": 0.5,
        "velocity": 0.26,
        "hand": "right"
      },
      {
        "midi": 72,
        "time": 174.5,
        "duration": 0.5,
        "velocity": 0.71,
        "hand": "right"
      },
      {
        "midi": 67,
        "time": 174.75,
        "duration": 0.25,
        "velocity": 0.71,
        "hand": "right"
      },
      {
        "midi": 56,
        "time": 175,
        "duration": 0.5,
        "velocity": 0.26,
        "hand": "left"
      },
      {
        "midi": 68,
        "time": 175,
        "duration": 0.5,
        "velocity": 0.26,
        "hand": "right"
      },
      {
        "midi": 77,
        "time": 175,
        "duration": 0.5,
        "velocity": 0.71,
        "hand": "right"
      },
      {
        "midi": 65,
        "time": 175.25,
        "duration": 0.25,
        "velocity": 0.71,
        "hand": "right"
      },
      {
        "midi": 41,
        "time": 175.5,
        "duration": 0.5,
        "velocity": 0.26,
        "hand": "left"
      },
      {
        "midi": 70,
        "time": 175.5,
        "duration": 0.25,
        "velocity": 0.71,
        "hand": "right"
      },
      {
        "midi": 76,
        "time": 175.5,
        "duration": 0.5,
        "velocity": 0.71,
        "hand": "right"
      },
      {
        "midi": 68,
        "time": 175.75,
        "duration": 0.25,
        "velocity": 0.71,
        "hand": "right"
      },
      {
        "midi": 72,
        "time": 175.75,
        "duration": 0.25,
        "velocity": 0.71,
        "hand": "right"
      },
      {
        "midi": 53,
        "time": 176,
        "duration": 0.5,
        "velocity": 0.26,
        "hand": "left"
      },
      {
        "midi": 61,
        "time": 176,
        "duration": 0.5,
        "velocity": 0.26,
        "hand": "right"
      },
      {
        "midi": 70,
        "time": 176,
        "duration": 0.5,
        "velocity": 0.71,
        "hand": "right"
      },
      {
        "midi": 65,
        "time": 176.25,
        "duration": 0.25,
        "velocity": 0.71,
        "hand": "right"
      },
      {
        "midi": 68,
        "time": 176.25,
        "duration": 0.25,
        "velocity": 0.71,
        "hand": "right"
      },
      {
        "midi": 58,
        "time": 176.5,
        "duration": 0.5,
        "velocity": 0.26,
        "hand": "left"
      },
      {
        "midi": 67,
        "time": 176.5,
        "duration": 0.25,
        "velocity": 0.71,
        "hand": "right"
      },
      {
        "midi": 73,
        "time": 176.5,
        "duration": 0.5,
        "velocity": 0.71,
        "hand": "right"
      },
      {
        "midi": 65,
        "time": 176.75,
        "duration": 0.25,
        "velocity": 0.71,
        "hand": "right"
      },
      {
        "midi": 70,
        "time": 176.75,
        "duration": 0.25,
        "velocity": 0.71,
        "hand": "right"
      },
      {
        "midi": 41,
        "time": 177,
        "duration": 0.5,
        "velocity": 0.71,
        "hand": "left"
      },
      {
        "midi": 67,
        "time": 177,
        "duration": 0.25,
        "velocity": 0.71,
        "hand": "right"
      },
      {
        "midi": 72,
        "time": 177,
        "duration": 0.5,
        "velocity": 0.71,
        "hand": "right"
      },
      {
        "midi": 65,
        "time": 177.25,
        "duration": 0.25,
        "velocity": 0.71,
        "hand": "right"
      },
      {
        "midi": 68,
        "time": 177.25,
        "duration": 0.25,
        "velocity": 0.71,
        "hand": "right"
      },
      {
        "midi": 48,
        "time": 177.5,
        "duration": 0.5,
        "velocity": 0.71,
        "hand": "left"
      },
      {
        "midi": 60,
        "time": 177.5,
        "duration": 0.5,
        "velocity": 0.71,
        "hand": "right"
      },
      {
        "midi": 72,
        "time": 177.5,
        "duration": 0.25,
        "velocity": 0.71,
        "hand": "right"
      },
      {
        "midi": 70,
        "time": 177.75,
        "duration": 0.25,
        "velocity": 0.71,
        "hand": "right"
      },
      {
        "midi": 73,
        "time": 177.75,
        "duration": 0.25,
        "velocity": 0.71,
        "hand": "right"
      },
      {
        "midi": 40,
        "time": 178,
        "duration": 0.5,
        "velocity": 0.71,
        "hand": "left"
      },
      {
        "midi": 64,
        "time": 178,
        "duration": 0.5,
        "velocity": 0.71,
        "hand": "right"
      },
      {
        "midi": 72,
        "time": 178,
        "duration": 0.25,
        "velocity": 0.71,
        "hand": "right"
      },
      {
        "midi": 70,
        "time": 178.25,
        "duration": 0.25,
        "velocity": 0.71,
        "hand": "right"
      },
      {
        "midi": 73,
        "time": 178.25,
        "duration": 0.25,
        "velocity": 0.71,
        "hand": "right"
      },
      {
        "midi": 39,
        "time": 178.5,
        "duration": 0.5,
        "velocity": 0.71,
        "hand": "left"
      },
      {
        "midi": 68,
        "time": 178.5,
        "duration": 0.25,
        "velocity": 0.71,
        "hand": "right"
      },
      {
        "midi": 75,
        "time": 178.5,
        "duration": 0.5,
        "velocity": 0.71,
        "hand": "right"
      },
      {
        "midi": 61,
        "time": 178.75,
        "duration": 0.25,
        "velocity": 0.71,
        "hand": "right"
      },
      {
        "midi": 70,
        "time": 178.75,
        "duration": 0.25,
        "velocity": 0.71,
        "hand": "right"
      },
      {
        "midi": 51,
        "time": 179,
        "duration": 0.5,
        "velocity": 0.71,
        "hand": "left"
      },
      {
        "midi": 63,
        "time": 179,
        "duration": 0.5,
        "velocity": 0.71,
        "hand": "right"
      },
      {
        "midi": 75,
        "time": 179,
        "duration": 0.5,
        "velocity": 0.71,
        "hand": "right"
      },
      {
        "midi": 60,
        "time": 179.25,
        "duration": 0.25,
        "velocity": 0.71,
        "hand": "right"
      },
      {
        "midi": 68,
        "time": 179.25,
        "duration": 0.25,
        "velocity": 0.71,
        "hand": "right"
      },
      {
        "midi": 51,
        "time": 179.5,
        "duration": 0.5,
        "velocity": 0.71,
        "hand": "left"
      },
      {
        "midi": 63,
        "time": 179.5,
        "duration": 0.5,
        "velocity": 0.71,
        "hand": "right"
      },
      {
        "midi": 75,
        "time": 179.5,
        "duration": 0.5,
        "velocity": 0.71,
        "hand": "right"
      },
      {
        "midi": 58,
        "time": 179.75,
        "duration": 0.25,
        "velocity": 0.71,
        "hand": "left"
      },
      {
        "midi": 67,
        "time": 179.75,
        "duration": 0.25,
        "velocity": 0.71,
        "hand": "right"
      },
      {
        "midi": 39,
        "time": 180,
        "duration": 0.5,
        "velocity": 0.71,
        "hand": "left"
      },
      {
        "midi": 67,
        "time": 180,
        "duration": 0.25,
        "velocity": 0.71,
        "hand": "right"
      },
      {
        "midi": 75,
        "time": 180,
        "duration": 0.5,
        "velocity": 0.71,
        "hand": "right"
      },
      {
        "midi": 51,
        "time": 180.25,
        "duration": 0.25,
        "velocity": 0.71,
        "hand": "left"
      },
      {
        "midi": 65,
        "time": 180.25,
        "duration": 0.25,
        "velocity": 0.71,
        "hand": "right"
      },
      {
        "midi": 58,
        "time": 180.5,
        "duration": 0.25,
        "velocity": 0.71,
        "hand": "left"
      },
      {
        "midi": 65,
        "time": 180.5,
        "duration": 0.25,
        "velocity": 0.71,
        "hand": "right"
      },
      {
        "midi": 73,
        "time": 180.5,
        "duration": 0.25,
        "velocity": 0.71,
        "hand": "right"
      },
      {
        "midi": 63,
        "time": 180.75,
        "duration": 0.25,
        "velocity": 0.71,
        "hand": "right"
      },
      {
        "midi": 67,
        "time": 180.75,
        "duration": 0.25,
        "velocity": 0.71,
        "hand": "right"
      },
      {
        "midi": 72,
        "time": 180.75,
        "duration": 0.25,
        "velocity": 0.71,
        "hand": "right"
      },
      {
        "midi": 61,
        "time": 181,
        "duration": 0.25,
        "velocity": 0.71,
        "hand": "right"
      },
      {
        "midi": 65,
        "time": 181,
        "duration": 0.25,
        "velocity": 0.71,
        "hand": "right"
      },
      {
        "midi": 70,
        "time": 181,
        "duration": 0.25,
        "velocity": 0.71,
        "hand": "right"
      },
      {
        "midi": 63,
        "time": 181.25,
        "duration": 0.25,
        "velocity": 0.71,
        "hand": "right"
      },
      {
        "midi": 67,
        "time": 181.25,
        "duration": 0.25,
        "velocity": 0.71,
        "hand": "right"
      },
      {
        "midi": 72,
        "time": 181.25,
        "duration": 0.25,
        "velocity": 0.71,
        "hand": "right"
      },
      {
        "midi": 56,
        "time": 181.5,
        "duration": 0.75,
        "velocity": 0.71,
        "hand": "left"
      },
      {
        "midi": 65,
        "time": 181.5,
        "duration": 0.25,
        "velocity": 0.71,
        "hand": "right"
      },
      {
        "midi": 68,
        "time": 181.5,
        "duration": 0.5,
        "velocity": 0.71,
        "hand": "right"
      },
      {
        "midi": 60,
        "time": 181.75,
        "duration": 0.25,
        "velocity": 0.71,
        "hand": "right"
      },
      {
        "midi": 63,
        "time": 181.75,
        "duration": 0.25,
        "velocity": 0.71,
        "hand": "right"
      },
      {
        "midi": 60,
        "time": 182,
        "duration": 0.25,
        "velocity": 0.71,
        "hand": "right"
      },
      {
        "midi": 63,
        "time": 182,
        "duration": 0.25,
        "velocity": 0.71,
        "hand": "right"
      },
      {
        "midi": 53,
        "time": 182.25,
        "duration": 0.25,
        "velocity": 0.71,
        "hand": "left"
      },
      {
        "midi": 59,
        "time": 182.25,
        "duration": 0.25,
        "velocity": 0.71,
        "hand": "left"
      },
      {
        "midi": 62,
        "time": 182.25,
        "duration": 0.25,
        "velocity": 0.71,
        "hand": "right"
      },
      {
        "midi": 53,
        "time": 182.5,
        "duration": 0.25,
        "velocity": 0.71,
        "hand": "left"
      },
      {
        "midi": 59,
        "time": 182.5,
        "duration": 0.25,
        "velocity": 0.71,
        "hand": "left"
      },
      {
        "midi": 62,
        "time": 182.5,
        "duration": 0.25,
        "velocity": 0.71,
        "hand": "right"
      },
      {
        "midi": 52,
        "time": 182.75,
        "duration": 0.25,
        "velocity": 0.71,
        "hand": "left"
      },
      {
        "midi": 56,
        "time": 182.75,
        "duration": 0.25,
        "velocity": 0.71,
        "hand": "left"
      },
      {
        "midi": 61,
        "time": 182.75,
        "duration": 0.25,
        "velocity": 0.71,
        "hand": "right"
      },
      {
        "midi": 52,
        "time": 183,
        "duration": 0.25,
        "velocity": 0.71,
        "hand": "left"
      },
      {
        "midi": 56,
        "time": 183,
        "duration": 0.75,
        "velocity": 0.71,
        "hand": "left"
      },
      {
        "midi": 61,
        "time": 183,
        "duration": 0.25,
        "velocity": 0.71,
        "hand": "right"
      },
      {
        "midi": 51,
        "time": 183.25,
        "duration": 0.25,
        "velocity": 0.71,
        "hand": "left"
      },
      {
        "midi": 60,
        "time": 183.25,
        "duration": 0.25,
        "velocity": 0.71,
        "hand": "right"
      },
      {
        "midi": 51,
        "time": 183.5,
        "duration": 0.25,
        "velocity": 0.71,
        "hand": "left"
      },
      {
        "midi": 60,
        "time": 183.5,
        "duration": 0.25,
        "velocity": 0.71,
        "hand": "right"
      },
      {
        "midi": 37,
        "time": 183.75,
        "duration": 0.25,
        "velocity": 0.71,
        "hand": "left"
      },
      {
        "midi": 49,
        "time": 183.75,
        "duration": 0.25,
        "velocity": 0.71,
        "hand": "left"
      },
      {
        "midi": 65,
        "time": 183.75,
        "duration": 0.25,
        "velocity": 0.71,
        "hand": "right"
      },
      {
        "midi": 36,
        "time": 184,
        "duration": 0.25,
        "velocity": 0.71,
        "hand": "left"
      },
      {
        "midi": 48,
        "time": 184,
        "duration": 0.25,
        "velocity": 0.71,
        "hand": "left"
      },
      {
        "midi": 63,
        "time": 184,
        "duration": 0.25,
        "velocity": 0.71,
        "hand": "right"
      },
      {
        "midi": 34,
        "time": 184.25,
        "duration": 0.25,
        "velocity": 0.71,
        "hand": "left"
      },
      {
        "midi": 61,
        "time": 184.25,
        "duration": 0.25,
        "velocity": 0.71,
        "hand": "right"
      },
      {
        "midi": 70,
        "time": 184.25,
        "duration": 0.25,
        "velocity": 0.71,
        "hand": "right"
      },
      {
        "midi": 32,
        "time": 184.5,
        "duration": 0.5,
        "velocity": 0.71,
        "hand": "left"
      },
      {
        "midi": 60,
        "time": 184.5,
        "duration": 0.5,
        "velocity": 0.71,
        "hand": "right"
      },
      {
        "midi": 72,
        "time": 184.5,
        "duration": 0.5,
        "velocity": 0.71,
        "hand": "right"
      },
      {
        "midi": 63,
        "time": 184.75,
        "duration": 0.25,
        "velocity": 0.71,
        "hand": "right"
      },
      {
        "midi": 51,
        "time": 185,
        "duration": 0.5,
        "velocity": 0.71,
        "hand": "left"
      },
      {
        "midi": 63,
        "time": 185,
        "duration": 0.25,
        "velocity": 0.71,
        "hand": "right"
      },
      {
        "midi": 75,
        "time": 185,
        "duration": 0.5,
        "velocity": 0.71,
        "hand": "right"
      },
      {
        "midi": 70,
        "time": 185.25,
        "duration": 0.25,
        "velocity": 0.71,
        "hand": "right"
      },
      {
        "midi": 51,
        "time": 185.5,
        "duration": 0.5,
        "velocity": 0.71,
        "hand": "left"
      },
      {
        "midi": 70,
        "time": 185.5,
        "duration": 0.25,
        "velocity": 0.71,
        "hand": "right"
      },
      {
        "midi": 80,
        "time": 185.5,
        "duration": 0.5,
        "velocity": 0.71,
        "hand": "right"
      },
      {
        "midi": 68,
        "time": 185.75,
        "duration": 0.25,
        "velocity": 0.71,
        "hand": "right"
      },
      {
        "midi": 44,
        "time": 186,
        "duration": 0.5,
        "velocity": 0.26,
        "hand": "left"
      },
      {
        "midi": 73,
        "time": 186,
        "duration": 0.25,
        "velocity": 0.71,
        "hand": "right"
      },
      {
        "midi": 79,
        "time": 186,
        "duration": 0.5,
        "velocity": 0.71,
        "hand": "right"
      },
      {
        "midi": 72,
        "time": 186.25,
        "duration": 0.25,
        "velocity": 0.71,
        "hand": "right"
      },
      {
        "midi": 75,
        "time": 186.25,
        "duration": 0.25,
        "velocity": 0.71,
        "hand": "right"
      },
      {
        "midi": 52,
        "time": 186.5,
        "duration": 0.5,
        "velocity": 0.26,
        "hand": "left"
      },
      {
        "midi": 61,
        "time": 186.5,
        "duration": 0.5,
        "velocity": 0.26,
        "hand": "right"
      },
      {
        "midi": 73,
        "time": 186.5,
        "duration": 0.5,
        "velocity": 0.71,
        "hand": "right"
      },
      {
        "midi": 68,
        "time": 186.75,
        "duration": 0.25,
        "velocity": 0.71,
        "hand": "right"
      },
      {
        "midi": 72,
        "time": 186.75,
        "duration": 0.25,
        "velocity": 0.71,
        "hand": "right"
      },
      {
        "midi": 55,
        "time": 187,
        "duration": 0.5,
        "velocity": 0.26,
        "hand": "left"
      },
      {
        "midi": 64,
        "time": 187,
        "duration": 0.5,
        "velocity": 0.26,
        "hand": "right"
      },
      {
        "midi": 76,
        "time": 187,
        "duration": 1,
        "velocity": 0.71,
        "hand": "right"
      },
      {
        "midi": 70,
        "time": 187.25,
        "duration": 0.25,
        "velocity": 0.71,
        "hand": "right"
      },
      {
        "midi": 73,
        "time": 187.25,
        "duration": 0.25,
        "velocity": 0.71,
        "hand": "right"
      },
      {
        "midi": 32,
        "time": 187.5,
        "duration": 0.5,
        "velocity": 0.26,
        "hand": "left"
      },
      {
        "midi": 63,
        "time": 187.5,
        "duration": 0.5,
        "velocity": 0.71,
        "hand": "right"
      },
      {
        "midi": 73,
        "time": 187.5,
        "duration": 0.25,
        "velocity": 0.71,
        "hand": "right"
      },
      {
        "midi": 72,
        "time": 187.75,
        "duration": 0.25,
        "velocity": 0.71,
        "hand": "right"
      },
      {
        "midi": 51,
        "time": 188,
        "duration": 0.5,
        "velocity": 0.26,
        "hand": "left"
      },
      {
        "midi": 60,
        "time": 188,
        "duration": 0.5,
        "velocity": 0.26,
        "hand": "right"
      },
      {
        "midi": 75,
        "time": 188,
        "duration": 0.5,
        "velocity": 0.71,
        "hand": "right"
      },
      {
        "midi": 70,
        "time": 188.25,
        "duration": 0.25,
        "velocity": 0.71,
        "hand": "right"
      },
      {
        "midi": 73,
        "time": 188.25,
        "duration": 0.25,
        "velocity": 0.71,
        "hand": "right"
      },
      {
        "midi": 51,
        "time": 188.5,
        "duration": 0.5,
        "velocity": 0.26,
        "hand": "left"
      },
      {
        "midi": 70,
        "time": 188.5,
        "duration": 0.25,
        "velocity": 0.71,
        "hand": "right"
      },
      {
        "midi": 80,
        "time": 188.5,
        "duration": 0.5,
        "velocity": 0.71,
        "hand": "right"
      },
      {
        "midi": 68,
        "time": 188.75,
        "duration": 0.25,
        "velocity": 0.71,
        "hand": "right"
      },
      {
        "midi": 72,
        "time": 188.75,
        "duration": 0.25,
        "velocity": 0.71,
        "hand": "right"
      },
      {
        "midi": 44,
        "time": 189,
        "duration": 0.5,
        "velocity": 0.26,
        "hand": "left"
      },
      {
        "midi": 73,
        "time": 189,
        "duration": 0.25,
        "velocity": 0.71,
        "hand": "right"
      },
      {
        "midi": 79,
        "time": 189,
        "duration": 0.5,
        "velocity": 0.71,
        "hand": "right"
      },
      {
        "midi": 72,
        "time": 189.25,
        "duration": 0.25,
        "velocity": 0.71,
        "hand": "right"
      },
      {
        "midi": 75,
        "time": 189.25,
        "duration": 0.25,
        "velocity": 0.71,
        "hand": "right"
      },
      {
        "midi": 52,
        "time": 189.5,
        "duration": 0.5,
        "velocity": 0.26,
        "hand": "left"
      },
      {
        "midi": 61,
        "time": 189.5,
        "duration": 0.5,
        "velocity": 0.26,
        "hand": "right"
      },
      {
        "midi": 73,
        "time": 189.5,
        "duration": 0.5,
        "velocity": 0.71,
        "hand": "right"
      },
      {
        "midi": 68,
        "time": 189.75,
        "duration": 0.25,
        "velocity": 0.71,
        "hand": "right"
      },
      {
        "midi": 72,
        "time": 189.75,
        "duration": 0.25,
        "velocity": 0.71,
        "hand": "right"
      },
      {
        "midi": 55,
        "time": 190,
        "duration": 0.5,
        "velocity": 0.26,
        "hand": "left"
      },
      {
        "midi": 64,
        "time": 190,
        "duration": 0.5,
        "velocity": 0.26,
        "hand": "right"
      },
      {
        "midi": 76,
        "time": 190,
        "duration": 0.5,
        "velocity": 0.71,
        "hand": "right"
      },
      {
        "midi": 70,
        "time": 190.25,
        "duration": 0.25,
        "velocity": 0.71,
        "hand": "right"
      },
      {
        "midi": 73,
        "time": 190.25,
        "duration": 0.25,
        "velocity": 0.71,
        "hand": "right"
      },
      {
        "midi": 32,
        "time": 190.5,
        "duration": 0.5,
        "velocity": 0.26,
        "hand": "left"
      },
      {
        "midi": 63,
        "time": 190.5,
        "duration": 0.5,
        "velocity": 0.71,
        "hand": "right"
      },
      {
        "midi": 72,
        "time": 190.5,
        "duration": 0.25,
        "velocity": 0.71,
        "hand": "right"
      },
      {
        "midi": 70,
        "time": 190.75,
        "duration": 0.25,
        "velocity": 0.71,
        "hand": "right"
      },
      {
        "midi": 73,
        "time": 190.75,
        "duration": 0.25,
        "velocity": 0.71,
        "hand": "right"
      },
      {
        "midi": 51,
        "time": 191,
        "duration": 0.5,
        "velocity": 0.26,
        "hand": "left"
      },
      {
        "midi": 63,
        "time": 191,
        "duration": 0.5,
        "velocity": 0.26,
        "hand": "right"
      },
      {
        "midi": 75,
        "time": 191,
        "duration": 0.25,
        "velocity": 0.71,
        "hand": "right"
      },
      {
        "midi": 73,
        "time": 191.25,
        "duration": 0.25,
        "velocity": 0.71,
        "hand": "right"
      },
      {
        "midi": 77,
        "time": 191.25,
        "duration": 0.25,
        "velocity": 0.71,
        "hand": "right"
      },
      {
        "midi": 56,
        "time": 191.5,
        "duration": 0.5,
        "velocity": 0.26,
        "hand": "left"
      },
      {
        "midi": 68,
        "time": 191.5,
        "duration": 0.5,
        "velocity": 0.26,
        "hand": "right"
      },
      {
        "midi": 75,
        "time": 191.5,
        "duration": 0.25,
        "velocity": 0.71,
        "hand": "right"
      },
      {
        "midi": 73,
        "time": 191.75,
        "duration": 0.25,
        "velocity": 0.71,
        "hand": "right"
      },
      {
        "midi": 77,
        "time": 191.75,
        "duration": 0.25,
        "velocity": 0.71,
        "hand": "right"
      },
      {
        "midi": 39,
        "time": 192,
        "duration": 0.5,
        "velocity": 0.26,
        "hand": "left"
      },
      {
        "midi": 66,
        "time": 192,
        "duration": 0.5,
        "velocity": 0.71,
        "hand": "right"
      },
      {
        "midi": 78,
        "time": 192,
        "duration": 0.5,
        "velocity": 0.71,
        "hand": "right"
      },
      {
        "midi": 77,
        "time": 192.25,
        "duration": 0.25,
        "velocity": 0.71,
        "hand": "right"
      },
      {
        "midi": 51,
        "time": 192.5,
        "duration": 0.5,
        "velocity": 0.26,
        "hand": "left"
      },
      {
        "midi": 60,
        "time": 192.5,
        "duration": 0.5,
        "velocity": 0.26,
        "hand": "right"
      },
      {
        "midi": 78,
        "time": 192.5,
        "duration": 0.5,
        "velocity": 0.71,
        "hand": "right"
      },
      {
        "midi": 73,
        "time": 192.75,
        "duration": 0.25,
        "velocity": 0.71,
        "hand": "right"
      },
      {
        "midi": 58,
        "time": 193,
        "duration": 0.5,
        "velocity": 0.26,
        "hand": "left"
      },
      {
        "midi": 66,
        "time": 193,
        "duration": 0.5,
        "velocity": 0.26,
        "hand": "right"
      },
      {
        "midi": 78,
        "time": 193,
        "duration": 0.5,
        "velocity": 0.71,
        "hand": "right"
      },
      {
        "midi": 70,
        "time": 193.25,
        "duration": 0.25,
        "velocity": 0.71,
        "hand": "right"
      },
      {
        "midi": 41,
        "time": 193.5,
        "duration": 0.25,
        "velocity": 0.26,
        "hand": "left"
      },
      {
        "midi": 69,
        "time": 193.5,
        "duration": 1,
        "velocity": 0.71,
        "hand": "right"
      },
      {
        "midi": 78,
        "time": 193.5,
        "duration": 0.5,
        "velocity": 0.71,
        "hand": "right"
      },
      {
        "midi": 53,
        "time": 193.75,
        "duration": 0.25,
        "velocity": 0.71,
        "hand": "left"
      },
      {
        "midi": 60,
        "time": 194,
        "duration": 0.25,
        "velocity": 0.71,
        "hand": "right"
      },
      {
        "midi": 77,
        "time": 194,
        "duration": 0.25,
        "velocity": 0.48,
        "hand": "right"
      },
      {
        "midi": 63,
        "time": 194.25,
        "duration": 0.25,
        "velocity": 0.71,
        "hand": "right"
      },
      {
        "midi": 72,
        "time": 194.25,
        "duration": 0.25,
        "velocity": 0.48,
        "hand": "right"
      },
      {
        "midi": 53,
        "time": 194.5,
        "duration": 0.5,
        "velocity": 0.71,
        "hand": "left"
      },
      {
        "midi": 69,
        "time": 194.5,
        "duration": 0.5,
        "velocity": 0.71,
        "hand": "right"
      },
      {
        "midi": 75,
        "time": 194.5,
        "duration": 0.25,
        "velocity": 0.48,
        "hand": "right"
      },
      {
        "midi": 65,
        "time": 194.75,
        "duration": 0.25,
        "velocity": 0.71,
        "hand": "right"
      },
      {
        "midi": 73,
        "time": 194.75,
        "duration": 0.25,
        "velocity": 0.48,
        "hand": "right"
      },
      {
        "midi": 58,
        "time": 195,
        "duration": 0.25,
        "velocity": 0.71,
        "hand": "left"
      },
      {
        "midi": 65,
        "time": 195,
        "duration": 0.25,
        "velocity": 0.71,
        "hand": "right"
      },
      {
        "midi": 70,
        "time": 195,
        "duration": 1.25,
        "velocity": 0.48,
        "hand": "right"
      },
      {
        "midi": 54,
        "time": 195.25,
        "duration": 0.25,
        "velocity": 0.26,
        "hand": "left"
      },
      {
        "midi": 63,
        "time": 195.25,
        "duration": 0.25,
        "velocity": 0.71,
        "hand": "right"
      },
      {
        "midi": 53,
        "time": 195.5,
        "duration": 0.25,
        "velocity": 0.26,
        "hand": "left"
      },
      {
        "midi": 61,
        "time": 195.5,
        "duration": 0.25,
        "velocity": 0.71,
        "hand": "right"
      },
      {
        "midi": 39,
        "time": 195.75,
        "duration": 0.25,
        "velocity": 0.26,
        "hand": "left"
      },
      {
        "midi": 58,
        "time": 195.75,
        "duration": 0.5,
        "velocity": 0.71,
        "hand": "left"
      },
      {
        "midi": 66,
        "time": 195.75,
        "duration": 0.25,
        "velocity": 0.71,
        "hand": "right"
      },
      {
        "midi": 37,
        "time": 196,
        "duration": 0.25,
        "velocity": 0.26,
        "hand": "left"
      },
      {
        "midi": 49,
        "time": 196,
        "duration": 0.25,
        "velocity": 0.26,
        "hand": "left"
      },
      {
        "midi": 65,
        "time": 196,
        "duration": 0.25,
        "velocity": 0.71,
        "hand": "right"
      },
      {
        "midi": 36,
        "time": 196.25,
        "duration": 0.25,
        "velocity": 0.26,
        "hand": "left"
      },
      {
        "midi": 63,
        "time": 196.25,
        "duration": 0.25,
        "velocity": 0.71,
        "hand": "right"
      },
      {
        "midi": 72,
        "time": 196.25,
        "duration": 0.25,
        "velocity": 0.48,
        "hand": "right"
      },
      {
        "midi": 34,
        "time": 196.5,
        "duration": 0.5,
        "velocity": 0.26,
        "hand": "left"
      },
      {
        "midi": 61,
        "time": 196.5,
        "duration": 0.25,
        "velocity": 0.71,
        "hand": "right"
      },
      {
        "midi": 73,
        "time": 196.5,
        "duration": 0.5,
        "velocity": 0.48,
        "hand": "right"
      },
      {
        "midi": 65,
        "time": 196.75,
        "duration": 0.25,
        "velocity": 0.71,
        "hand": "right"
      },
      {
        "midi": 53,
        "time": 197,
        "duration": 0.5,
        "velocity": 0.26,
        "hand": "left"
      },
      {
        "midi": 61,
        "time": 197,
        "duration": 0.5,
        "velocity": 0.26,
        "hand": "right"
      },
      {
        "midi": 73,
        "time": 197,
        "duration": 0.25,
        "velocity": 0.48,
        "hand": "right"
      },
      {
        "midi": 72,
        "time": 197.25,
        "duration": 0.25,
        "velocity": 0.71,
        "hand": "right"
      },
      {
        "midi": 75,
        "time": 197.25,
        "duration": 0.25,
        "velocity": 0.48,
        "hand": "right"
      },
      {
        "midi": 58,
        "time": 197.5,
        "duration": 0.5,
        "velocity": 0.26,
        "hand": "left"
      },
      {
        "midi": 65,
        "time": 197.5,
        "duration": 0.5,
        "velocity": 0.26,
        "hand": "right"
      },
      {
        "midi": 73,
        "time": 197.5,
        "duration": 0.25,
        "velocity": 0.48,
        "hand": "right"
      },
      {
        "midi": 72,
        "time": 197.75,
        "duration": 0.25,
        "velocity": 0.71,
        "hand": "right"
      },
      {
        "midi": 75,
        "time": 197.75,
        "duration": 0.25,
        "velocity": 0.48,
        "hand": "right"
      },
      {
        "midi": 37,
        "time": 198,
        "duration": 0.5,
        "velocity": 0.26,
        "hand": "left"
      },
      {
        "midi": 65,
        "time": 198,
        "duration": 0.5,
        "velocity": 0.48,
        "hand": "right"
      },
      {
        "midi": 77,
        "time": 198,
        "duration": 0.5,
        "velocity": 0.48,
        "hand": "right"
      },
      {
        "midi": 72,
        "time": 198.25,
        "duration": 0.25,
        "velocity": 0.71,
        "hand": "right"
      },
      {
        "midi": 53,
        "time": 198.5,
        "duration": 0.5,
        "velocity": 0.26,
        "hand": "left"
      },
      {
        "midi": 70,
        "time": 198.5,
        "duration": 0.25,
        "velocity": 0.71,
        "hand": "right"
      },
      {
        "midi": 77,
        "time": 198.5,
        "duration": 0.5,
        "velocity": 0.48,
        "hand": "right"
      },
      {
        "midi": 68,
        "time": 198.75,
        "duration": 0.25,
        "velocity": 0.71,
        "hand": "right"
      },
      {
        "midi": 56,
        "time": 199,
        "duration": 0.5,
        "velocity": 0.26,
        "hand": "left"
      },
      {
        "midi": 68,
        "time": 199,
        "duration": 0.5,
        "velocity": 0.26,
        "hand": "right"
      },
      {
        "midi": 77,
        "time": 199,
        "duration": 0.5,
        "velocity": 0.48,
        "hand": "right"
      },
      {
        "midi": 65,
        "time": 199.25,
        "duration": 0.25,
        "velocity": 0.71,
        "hand": "right"
      },
      {
        "midi": 39,
        "time": 199.5,
        "duration": 0.5,
        "velocity": 0.26,
        "hand": "left"
      },
      {
        "midi": 66,
        "time": 199.5,
        "duration": 0.25,
        "velocity": 0.71,
        "hand": "right"
      },
      {
        "midi": 77,
        "time": 199.5,
        "duration": 0.5,
        "velocity": 0.48,
        "hand": "right"
      },
      {
        "midi": 73,
        "time": 199.75,
        "duration": 0.25,
        "velocity": 0.71,
        "hand": "right"
      },
      {
        "midi": 54,
        "time": 200,
        "duration": 0.5,
        "velocity": 0.26,
        "hand": "left"
      },
      {
        "midi": 63,
        "time": 200,
        "duration": 0.5,
        "velocity": 0.26,
        "hand": "right"
      },
      {
        "midi": 75,
        "time": 200,
        "duration": 0.25,
        "velocity": 0.48,
        "hand": "right"
      },
      {
        "midi": 66,
        "time": 200.25,
        "duration": 0.25,
        "velocity": 0.71,
        "hand": "right"
      },
      {
        "midi": 70,
        "time": 200.25,
        "duration": 0.25,
        "velocity": 0.48,
        "hand": "right"
      },
      {
        "midi": 42,
        "time": 200.5,
        "duration": 0.5,
        "velocity": 0.26,
        "hand": "left"
      },
      {
        "midi": 63,
        "time": 200.5,
        "duration": 0.25,
        "velocity": 0.71,
        "hand": "right"
      },
      {
        "midi": 73,
        "time": 200.5,
        "duration": 0.25,
        "velocity": 0.48,
        "hand": "right"
      },
      {
        "midi": 64,
        "time": 200.75,
        "duration": 0.25,
        "velocity": 0.71,
        "hand": "right"
      },
      {
        "midi": 72,
        "time": 200.75,
        "duration": 0.25,
        "velocity": 0.48,
        "hand": "right"
      },
      {
        "midi": 41,
        "time": 201,
        "duration": 0.25,
        "velocity": 0.26,
        "hand": "left"
      },
      {
        "midi": 65,
        "time": 201,
        "duration": 0.25,
        "velocity": 0.71,
        "hand": "right"
      },
      {
        "midi": 69,
        "time": 201,
        "duration": 0.25,
        "velocity": 0.48,
        "hand": "right"
      },
      {
        "midi": 54,
        "time": 201.25,
        "duration": 0.25,
        "velocity": 0.26,
        "hand": "left"
      },
      {
        "midi": 66,
        "time": 201.25,
        "duration": 0.25,
        "velocity": 0.26,
        "hand": "right"
      },
      {
        "midi": 53,
        "time": 201.5,
        "duration": 0.25,
        "velocity": 0.21,
        "hand": "left"
      },
      {
        "midi": 65,
        "time": 201.5,
        "duration": 0.25,
        "velocity": 0.21,
        "hand": "right"
      },
      {
        "midi": 72,
        "time": 201.5,
        "duration": 0.5,
        "velocity": 0.48,
        "hand": "right"
      },
      {
        "midi": 52,
        "time": 201.75,
        "duration": 0.25,
        "velocity": 0.17,
        "hand": "left"
      },
      {
        "midi": 64,
        "time": 201.75,
        "duration": 0.25,
        "velocity": 0.17,
        "hand": "right"
      },
      {
        "midi": 51,
        "time": 202,
        "duration": 0.25,
        "velocity": 0.13,
        "hand": "left"
      },
      {
        "midi": 65,
        "time": 202,
        "duration": 0.5,
        "velocity": 0.48,
        "hand": "right"
      },
      {
        "midi": 77,
        "time": 202,
        "duration": 0.5,
        "velocity": 0.48,
        "hand": "right"
      },
      {
        "midi": 48,
        "time": 202.25,
        "duration": 0.25,
        "velocity": 0.09,
        "hand": "left"
      },
      {
        "midi": 60,
        "time": 202.25,
        "duration": 0.25,
        "velocity": 0.09,
        "hand": "right"
      },
      {
        "midi": 49,
        "time": 202.5,
        "duration": 0.25,
        "velocity": 0.09,
        "hand": "left"
      },
      {
        "midi": 64,
        "time": 202.5,
        "duration": 0.5,
        "velocity": 0.48,
        "hand": "right"
      },
      {
        "midi": 76,
        "time": 202.5,
        "duration": 0.5,
        "velocity": 0.48,
        "hand": "right"
      },
      {
        "midi": 46,
        "time": 202.75,
        "duration": 0.25,
        "velocity": 0.09,
        "hand": "left"
      },
      {
        "midi": 58,
        "time": 202.75,
        "duration": 0.25,
        "velocity": 0.09,
        "hand": "left"
      },
      {
        "midi": 43,
        "time": 203,
        "duration": 0.25,
        "velocity": 0.09,
        "hand": "left"
      },
      {
        "midi": 58,
        "time": 203,
        "duration": 0.5,
        "velocity": 0.71,
        "hand": "left"
      },
      {
        "midi": 70,
        "time": 203,
        "duration": 0.5,
        "velocity": 0.48,
        "hand": "right"
      },
      {
        "midi": 42,
        "time": 203.25,
        "duration": 0.25,
        "velocity": 0.09,
        "hand": "left"
      },
      {
        "midi": 54,
        "time": 203.25,
        "duration": 0.25,
        "velocity": 0.09,
        "hand": "left"
      },
      {
        "midi": 37,
        "time": 203.5,
        "duration": 0.25,
        "velocity": 0.09,
        "hand": "left"
      },
      {
        "midi": 57,
        "time": 203.5,
        "duration": 0.25,
        "velocity": 0.71,
        "hand": "left"
      },
      {
        "midi": 73,
        "time": 203.5,
        "duration": 0.5,
        "velocity": 0.48,
        "hand": "right"
      },
      {
        "midi": 30,
        "time": 203.75,
        "duration": 0.25,
        "velocity": 0.09,
        "hand": "left"
      },
      {
        "midi": 42,
        "time": 203.75,
        "duration": 0.25,
        "velocity": 0.09,
        "hand": "left"
      },
      {
        "midi": 58,
        "time": 203.75,
        "duration": 0.25,
        "velocity": 0.48,
        "hand": "left"
      },
      {
        "midi": 29,
        "time": 204,
        "duration": 0.25,
        "velocity": 0.09,
        "hand": "left"
      },
      {
        "midi": 60,
        "time": 204,
        "duration": 0.25,
        "velocity": 0.48,
        "hand": "right"
      },
      {
        "midi": 69,
        "time": 204,
        "duration": 0.25,
        "velocity": 0.48,
        "hand": "right"
      },
      {
        "midi": 54,
        "time": 204.25,
        "duration": 0.25,
        "velocity": 0.09,
        "hand": "left"
      },
      {
        "midi": 66,
        "time": 204.25,
        "duration": 0.25,
        "velocity": 0.09,
        "hand": "right"
      },
      {
        "midi": 53,
        "time": 204.5,
        "duration": 0.25,
        "velocity": 0.09,
        "hand": "left"
      },
      {
        "midi": 72,
        "time": 204.5,
        "duration": 0.5,
        "velocity": 0.48,
        "hand": "right"
      },
      {
        "midi": 84,
        "time": 204.5,
        "duration": 0.5,
        "velocity": 0.48,
        "hand": "right"
      },
      {
        "midi": 52,
        "time": 204.75,
        "duration": 0.25,
        "velocity": 0.09,
        "hand": "left"
      },
      {
        "midi": 64,
        "time": 204.75,
        "duration": 0.25,
        "velocity": 0.09,
        "hand": "right"
      },
      {
        "midi": 51,
        "time": 205,
        "duration": 0.25,
        "velocity": 0.09,
        "hand": "left"
      },
      {
        "midi": 77,
        "time": 205,
        "duration": 0.5,
        "velocity": 0.48,
        "hand": "right"
      },
      {
        "midi": 89,
        "time": 205,
        "duration": 0.5,
        "velocity": 0.48,
        "hand": "right"
      },
      {
        "midi": 48,
        "time": 205.25,
        "duration": 0.25,
        "velocity": 0.09,
        "hand": "left"
      },
      {
        "midi": 60,
        "time": 205.25,
        "duration": 0.25,
        "velocity": 0.09,
        "hand": "right"
      },
      {
        "midi": 49,
        "time": 205.5,
        "duration": 0.25,
        "velocity": 0.09,
        "hand": "left"
      },
      {
        "midi": 76,
        "time": 205.5,
        "duration": 0.5,
        "velocity": 0.48,
        "hand": "right"
      },
      {
        "midi": 88,
        "time": 205.5,
        "duration": 0.5,
        "velocity": 0.48,
        "hand": "right"
      },
      {
        "midi": 46,
        "time": 205.75,
        "duration": 0.25,
        "velocity": 0.09,
        "hand": "left"
      },
      {
        "midi": 58,
        "time": 205.75,
        "duration": 0.25,
        "velocity": 0.09,
        "hand": "left"
      },
      {
        "midi": 43,
        "time": 206,
        "duration": 0.25,
        "velocity": 0.09,
        "hand": "left"
      },
      {
        "midi": 70,
        "time": 206,
        "duration": 0.25,
        "velocity": 0.48,
        "hand": "right"
      },
      {
        "midi": 82,
        "time": 206,
        "duration": 0.5,
        "velocity": 0.48,
        "hand": "right"
      },
      {
        "midi": 42,
        "time": 206.25,
        "duration": 0.25,
        "velocity": 0.09,
        "hand": "left"
      },
      {
        "midi": 54,
        "time": 206.25,
        "duration": 0.25,
        "velocity": 0.09,
        "hand": "left"
      },
      {
        "midi": 69,
        "time": 206.25,
        "duration": 0.25,
        "velocity": 0.48,
        "hand": "right"
      },
      {
        "midi": 37,
        "time": 206.5,
        "duration": 0.25,
        "velocity": 0.09,
        "hand": "left"
      },
      {
        "midi": 69,
        "time": 206.5,
        "duration": 0.25,
        "velocity": 0.48,
        "hand": "right"
      },
      {
        "midi": 85,
        "time": 206.5,
        "duration": 0.5,
        "velocity": 0.48,
        "hand": "right"
      },
      {
        "midi": 30,
        "time": 206.75,
        "duration": 0.25,
        "velocity": 0.09,
        "hand": "left"
      },
      {
        "midi": 42,
        "time": 206.75,
        "duration": 0.25,
        "velocity": 0.09,
        "hand": "left"
      },
      {
        "midi": 70,
        "time": 206.75,
        "duration": 0.25,
        "velocity": 0.48,
        "hand": "right"
      },
      {
        "midi": 28,
        "time": 207,
        "duration": 0.25,
        "velocity": 0.09,
        "hand": "left"
      },
      {
        "midi": 73,
        "time": 207,
        "duration": 0.25,
        "velocity": 0.71,
        "hand": "right"
      },
      {
        "midi": 85,
        "time": 207,
        "duration": 0.25,
        "velocity": 0.71,
        "hand": "right"
      },
      {
        "midi": 29,
        "time": 207.25,
        "duration": 0.25,
        "velocity": 0.09,
        "hand": "left"
      },
      {
        "midi": 72,
        "time": 207.25,
        "duration": 0.25,
        "velocity": 0.71,
        "hand": "right"
      },
      {
        "midi": 84,
        "time": 207.25,
        "duration": 0.25,
        "velocity": 0.71,
        "hand": "right"
      },
      {
        "midi": 54,
        "time": 207.5,
        "duration": 0.25,
        "velocity": 0.09,
        "hand": "left"
      },
      {
        "midi": 72,
        "time": 207.5,
        "duration": 0.25,
        "velocity": 0.71,
        "hand": "right"
      },
      {
        "midi": 84,
        "time": 207.5,
        "duration": 0.25,
        "velocity": 0.71,
        "hand": "right"
      },
      {
        "midi": 53,
        "time": 207.75,
        "duration": 0.25,
        "velocity": 0.09,
        "hand": "left"
      },
      {
        "midi": 73,
        "time": 207.75,
        "duration": 0.25,
        "velocity": 0.73,
        "hand": "right"
      },
      {
        "midi": 85,
        "time": 207.75,
        "duration": 0.25,
        "velocity": 0.73,
        "hand": "right"
      },
      {
        "midi": 51,
        "time": 208,
        "duration": 0.25,
        "velocity": 0.09,
        "hand": "left"
      },
      {
        "midi": 75,
        "time": 208,
        "duration": 0.25,
        "velocity": 0.75,
        "hand": "right"
      },
      {
        "midi": 87,
        "time": 208,
        "duration": 0.25,
        "velocity": 0.75,
        "hand": "right"
      },
      {
        "midi": 49,
        "time": 208.25,
        "duration": 0.25,
        "velocity": 0.09,
        "hand": "left"
      },
      {
        "midi": 77,
        "time": 208.25,
        "duration": 0.25,
        "velocity": 0.77,
        "hand": "right"
      },
      {
        "midi": 89,
        "time": 208.25,
        "duration": 0.25,
        "velocity": 0.77,
        "hand": "right"
      },
      {
        "midi": 48,
        "time": 208.5,
        "duration": 0.25,
        "velocity": 0.09,
        "hand": "left"
      },
      {
        "midi": 78,
        "time": 208.5,
        "duration": 0.5,
        "velocity": 0.8,
        "hand": "right"
      },
      {
        "midi": 90,
        "time": 208.5,
        "duration": 0.5,
        "velocity": 0.8,
        "hand": "right"
      },
      {
        "midi": 46,
        "time": 208.75,
        "duration": 0.25,
        "velocity": 0.09,
        "hand": "left"
      },
      {
        "midi": 58,
        "time": 208.75,
        "duration": 0.25,
        "velocity": 0.09,
        "hand": "left"
      },
      {
        "midi": 45,
        "time": 209,
        "duration": 0.25,
        "velocity": 0.09,
        "hand": "left"
      },
      {
        "midi": 78,
        "time": 209,
        "duration": 0.5,
        "velocity": 0.84,
        "hand": "right"
      },
      {
        "midi": 90,
        "time": 209,
        "duration": 0.5,
        "velocity": 0.84,
        "hand": "right"
      },
      {
        "midi": 42,
        "time": 209.25,
        "duration": 0.25,
        "velocity": 0.09,
        "hand": "left"
      },
      {
        "midi": 54,
        "time": 209.25,
        "duration": 0.25,
        "velocity": 0.09,
        "hand": "left"
      },
      {
        "midi": 39,
        "time": 209.5,
        "duration": 0.25,
        "velocity": 0.09,
        "hand": "left"
      },
      {
        "midi": 78,
        "time": 209.5,
        "duration": 0.5,
        "velocity": 0.89,
        "hand": "right"
      },
      {
        "midi": 90,
        "time": 209.5,
        "duration": 0.5,
        "velocity": 0.89,
        "hand": "right"
      },
      {
        "midi": 36,
        "time": 209.75,
        "duration": 0.25,
        "velocity": 0.09,
        "hand": "left"
      },
      {
        "midi": 48,
        "time": 209.75,
        "duration": 0.25,
        "velocity": 0.09,
        "hand": "left"
      },
      {
        "midi": 33,
        "time": 210,
        "duration": 0.5,
        "velocity": 0.09,
        "hand": "left"
      },
      {
        "midi": 78,
        "time": 210,
        "duration": 0.5,
        "velocity": 0.93,
        "hand": "right"
      },
      {
        "midi": 90,
        "time": 210,
        "duration": 0.5,
        "velocity": 0.93,
        "hand": "right"
      },
      {
        "midi": 33,
        "time": 210.5,
        "duration": 0.5,
        "velocity": 0.09,
        "hand": "left"
      },
      {
        "midi": 54,
        "time": 210.5,
        "duration": 0.5,
        "velocity": 0.93,
        "hand": "left"
      },
      {
        "midi": 63,
        "time": 210.5,
        "duration": 0.5,
        "velocity": 0.93,
        "hand": "right"
      },
      {
        "midi": 34,
        "time": 211,
        "duration": 0.5,
        "velocity": 0.09,
        "hand": "left"
      },
      {
        "midi": 54,
        "time": 211,
        "duration": 0.5,
        "velocity": 0.93,
        "hand": "left"
      },
      {
        "midi": 63,
        "time": 211,
        "duration": 0.5,
        "velocity": 0.93,
        "hand": "right"
      },
      {
        "midi": 34,
        "time": 211.5,
        "duration": 0.5,
        "velocity": 0.09,
        "hand": "left"
      },
      {
        "midi": 54,
        "time": 211.5,
        "duration": 0.5,
        "velocity": 0.93,
        "hand": "left"
      },
      {
        "midi": 63,
        "time": 211.5,
        "duration": 0.5,
        "velocity": 0.93,
        "hand": "right"
      },
      {
        "midi": 35,
        "time": 212,
        "duration": 0.5,
        "velocity": 0.09,
        "hand": "left"
      },
      {
        "midi": 51,
        "time": 212,
        "duration": 0.5,
        "velocity": 0.93,
        "hand": "left"
      },
      {
        "midi": 66,
        "time": 212,
        "duration": 0.5,
        "velocity": 0.93,
        "hand": "right"
      },
      {
        "midi": 27,
        "time": 212.5,
        "duration": 0.5,
        "velocity": 0.09,
        "hand": "left"
      },
      {
        "midi": 54,
        "time": 212.5,
        "duration": 0.5,
        "velocity": 0.93,
        "hand": "left"
      },
      {
        "midi": 66,
        "time": 212.5,
        "duration": 0.5,
        "velocity": 0.93,
        "hand": "right"
      },
      {
        "midi": 30,
        "time": 213,
        "duration": 0.5,
        "velocity": 0.09,
        "hand": "left"
      },
      {
        "midi": 42,
        "time": 213,
        "duration": 0.5,
        "velocity": 0.09,
        "hand": "left"
      },
      {
        "midi": 61,
        "time": 213,
        "duration": 0.5,
        "velocity": 0.93,
        "hand": "right"
      },
      {
        "midi": 51,
        "time": 213.5,
        "duration": 0.25,
        "velocity": 0.93,
        "hand": "left"
      },
      {
        "midi": 59,
        "time": 213.5,
        "duration": 0.25,
        "velocity": 0.93,
        "hand": "left"
      },
      {
        "midi": 64,
        "time": 213.5,
        "duration": 0.25,
        "velocity": 0.93,
        "hand": "right"
      },
      {
        "midi": 54,
        "time": 213.75,
        "duration": 0.25,
        "velocity": 0.09,
        "hand": "left"
      },
      {
        "midi": 59,
        "time": 213.75,
        "duration": 0.25,
        "velocity": 0.93,
        "hand": "left"
      },
      {
        "midi": 63,
        "time": 213.75,
        "duration": 0.25,
        "velocity": 0.93,
        "hand": "right"
      },
      {
        "midi": 59,
        "time": 214,
        "duration": 0.25,
        "velocity": 0.09,
        "hand": "left"
      },
      {
        "midi": 68,
        "time": 214,
        "duration": 0.25,
        "velocity": 0.93,
        "hand": "right"
      },
      {
        "midi": 57,
        "time": 214.25,
        "duration": 0.25,
        "velocity": 0.09,
        "hand": "left"
      },
      {
        "midi": 63,
        "time": 214.25,
        "duration": 0.25,
        "velocity": 0.93,
        "hand": "right"
      },
      {
        "midi": 66,
        "time": 214.25,
        "duration": 0.25,
        "velocity": 0.93,
        "hand": "right"
      },
      {
        "midi": 32,
        "time": 214.5,
        "duration": 0.5,
        "velocity": 0.09,
        "hand": "left"
      },
      {
        "midi": 44,
        "time": 214.5,
        "duration": 0.5,
        "velocity": 0.09,
        "hand": "left"
      },
      {
        "midi": 71,
        "time": 214.5,
        "duration": 0.25,
        "velocity": 0.93,
        "hand": "right"
      },
      {
        "midi": 59,
        "time": 214.75,
        "duration": 0.25,
        "velocity": 0.93,
        "hand": "left"
      },
      {
        "midi": 62,
        "time": 214.75,
        "duration": 0.25,
        "velocity": 0.93,
        "hand": "right"
      },
      {
        "midi": 66,
        "time": 214.75,
        "duration": 0.25,
        "velocity": 0.93,
        "hand": "right"
      },
      {
        "midi": 66,
        "time": 215,
        "duration": 0.25,
        "velocity": 0.93,
        "hand": "right"
      },
      {
        "midi": 56,
        "time": 215.25,
        "duration": 0.25,
        "velocity": 0.09,
        "hand": "left"
      },
      {
        "midi": 62,
        "time": 215.25,
        "duration": 0.25,
        "velocity": 0.93,
        "hand": "right"
      },
      {
        "midi": 65,
        "time": 215.25,
        "duration": 0.25,
        "velocity": 0.93,
        "hand": "right"
      },
      {
        "midi": 61,
        "time": 215.5,
        "duration": 0.25,
        "velocity": 0.09,
        "hand": "right"
      },
      {
        "midi": 69,
        "time": 215.5,
        "duration": 0.25,
        "velocity": 0.93,
        "hand": "right"
      },
      {
        "midi": 59,
        "time": 215.75,
        "duration": 0.25,
        "velocity": 0.09,
        "hand": "left"
      },
      {
        "midi": 65,
        "time": 215.75,
        "duration": 0.25,
        "velocity": 0.93,
        "hand": "right"
      },
      {
        "midi": 68,
        "time": 215.75,
        "duration": 0.25,
        "velocity": 0.93,
        "hand": "right"
      },
      {
        "midi": 34,
        "time": 216,
        "duration": 0.5,
        "velocity": 0.09,
        "hand": "left"
      },
      {
        "midi": 46,
        "time": 216,
        "duration": 0.5,
        "velocity": 0.09,
        "hand": "left"
      },
      {
        "midi": 73,
        "time": 216,
        "duration": 0.25,
        "velocity": 0.93,
        "hand": "right"
      },
      {
        "midi": 61,
        "time": 216.25,
        "duration": 0.25,
        "velocity": 0.93,
        "hand": "right"
      },
      {
        "midi": 64,
        "time": 216.25,
        "duration": 0.25,
        "velocity": 0.93,
        "hand": "right"
      },
      {
        "midi": 68,
        "time": 216.25,
        "duration": 0.25,
        "velocity": 0.93,
        "hand": "right"
      },
      {
        "midi": 68,
        "time": 216.5,
        "duration": 0.25,
        "velocity": 0.93,
        "hand": "right"
      },
      {
        "midi": 58,
        "time": 216.75,
        "duration": 0.25,
        "velocity": 0.09,
        "hand": "left"
      },
      {
        "midi": 63,
        "time": 216.75,
        "duration": 0.25,
        "velocity": 0.93,
        "hand": "right"
      },
      {
        "midi": 67,
        "time": 216.75,
        "duration": 0.25,
        "velocity": 0.93,
        "hand": "right"
      },
      {
        "midi": 63,
        "time": 217,
        "duration": 0.25,
        "velocity": 0.09,
        "hand": "right"
      },
      {
        "midi": 71,
        "time": 217,
        "duration": 0.25,
        "velocity": 0.93,
        "hand": "right"
      },
      {
        "midi": 61,
        "time": 217.25,
        "duration": 0.25,
        "velocity": 0.09,
        "hand": "right"
      },
      {
        "midi": 67,
        "time": 217.25,
        "duration": 0.25,
        "velocity": 0.93,
        "hand": "right"
      },
      {
        "midi": 70,
        "time": 217.25,
        "duration": 0.25,
        "velocity": 0.93,
        "hand": "right"
      },
      {
        "midi": 36,
        "time": 217.5,
        "duration": 0.5,
        "velocity": 0.09,
        "hand": "left"
      },
      {
        "midi": 48,
        "time": 217.5,
        "duration": 0.5,
        "velocity": 0.09,
        "hand": "left"
      },
      {
        "midi": 75,
        "time": 217.5,
        "duration": 0.25,
        "velocity": 0.93,
        "hand": "right"
      },
      {
        "midi": 63,
        "time": 217.75,
        "duration": 0.25,
        "velocity": 0.93,
        "hand": "right"
      },
      {
        "midi": 66,
        "time": 217.75,
        "duration": 0.25,
        "velocity": 0.93,
        "hand": "right"
      },
      {
        "midi": 70,
        "time": 217.75,
        "duration": 0.25,
        "velocity": 0.93,
        "hand": "right"
      },
      {
        "midi": 70,
        "time": 218,
        "duration": 0.25,
        "velocity": 0.93,
        "hand": "right"
      },
      {
        "midi": 60,
        "time": 218.25,
        "duration": 0.25,
        "velocity": 0.09,
        "hand": "right"
      },
      {
        "midi": 65,
        "time": 218.25,
        "duration": 0.25,
        "velocity": 0.93,
        "hand": "right"
      },
      {
        "midi": 69,
        "time": 218.25,
        "duration": 0.25,
        "velocity": 0.93,
        "hand": "right"
      },
      {
        "midi": 65,
        "time": 218.5,
        "duration": 0.25,
        "velocity": 0.09,
        "hand": "right"
      },
      {
        "midi": 73,
        "time": 218.5,
        "duration": 0.25,
        "velocity": 0.93,
        "hand": "right"
      },
      {
        "midi": 63,
        "time": 218.75,
        "duration": 0.25,
        "velocity": 0.09,
        "hand": "right"
      },
      {
        "midi": 69,
        "time": 218.75,
        "duration": 0.25,
        "velocity": 0.93,
        "hand": "right"
      },
      {
        "midi": 72,
        "time": 218.75,
        "duration": 0.25,
        "velocity": 0.93,
        "hand": "right"
      },
      {
        "midi": 29,
        "time": 219,
        "duration": 0.5,
        "velocity": 0.09,
        "hand": "left"
      },
      {
        "midi": 41,
        "time": 219,
        "duration": 0.5,
        "velocity": 0.09,
        "hand": "left"
      },
      {
        "midi": 78,
        "time": 219,
        "duration": 0.25,
        "velocity": 0.93,
        "hand": "right"
      },
      {
        "midi": 69,
        "time": 219.25,
        "duration": 0.25,
        "velocity": 0.93,
        "hand": "right"
      },
      {
        "midi": 75,
        "time": 219.25,
        "duration": 0.25,
        "velocity": 0.93,
        "hand": "right"
      },
      {
        "midi": 77,
        "time": 219.25,
        "duration": 0.25,
        "velocity": 0.93,
        "hand": "right"
      },
      {
        "midi": 82,
        "time": 219.5,
        "duration": 0.25,
        "velocity": 0.93,
        "hand": "right"
      },
      {
        "midi": 72,
        "time": 219.75,
        "duration": 0.25,
        "velocity": 0.09,
        "hand": "right"
      },
      {
        "midi": 77,
        "time": 219.75,
        "duration": 0.25,
        "velocity": 0.93,
        "hand": "right"
      },
      {
        "midi": 81,
        "time": 219.75,
        "duration": 0.25,
        "velocity": 0.93,
        "hand": "right"
      },
      {
        "midi": 77,
        "time": 220,
        "duration": 0.25,
        "velocity": 0.09,
        "hand": "right"
      },
      {
        "midi": 85,
        "time": 220,
        "duration": 0.25,
        "velocity": 0.93,
        "hand": "right"
      },
      {
        "midi": 75,
        "time": 220.25,
        "duration": 0.25,
        "velocity": 0.09,
        "hand": "right"
      },
      {
        "midi": 81,
        "time": 220.25,
        "duration": 0.25,
        "velocity": 0.93,
        "hand": "right"
      },
      {
        "midi": 84,
        "time": 220.25,
        "duration": 0.25,
        "velocity": 0.93,
        "hand": "right"
      },
      {
        "midi": 65,
        "time": 220.5,
        "duration": 0.5,
        "velocity": 0.09,
        "hand": "right"
      },
      {
        "midi": 89,
        "time": 220.5,
        "duration": 0.25,
        "velocity": 0.93,
        "hand": "right"
      },
      {
        "midi": 81,
        "time": 220.75,
        "duration": 0.25,
        "velocity": 0.93,
        "hand": "right"
      },
      {
        "midi": 84,
        "time": 220.75,
        "duration": 0.25,
        "velocity": 0.93,
        "hand": "right"
      },
      {
        "midi": 87,
        "time": 220.75,
        "duration": 0.25,
        "velocity": 0.93,
        "hand": "right"
      },
      {
        "midi": 90,
        "time": 221,
        "duration": 0.25,
        "velocity": 0.93,
        "hand": "right"
      },
      {
        "midi": 81,
        "time": 221.25,
        "duration": 0.25,
        "velocity": 0.09,
        "hand": "right"
      },
      {
        "midi": 87,
        "time": 221.25,
        "duration": 0.25,
        "velocity": 0.93,
        "hand": "right"
      },
      {
        "midi": 89,
        "time": 221.25,
        "duration": 0.25,
        "velocity": 0.93,
        "hand": "right"
      },
      {
        "midi": 72,
        "time": 221.5,
        "duration": 0.25,
        "velocity": 0.09,
        "hand": "right"
      },
      {
        "midi": 91,
        "time": 221.5,
        "duration": 0.25,
        "velocity": 0.93,
        "hand": "right"
      },
      {
        "midi": 81,
        "time": 221.75,
        "duration": 0.25,
        "velocity": 0.09,
        "hand": "right"
      },
      {
        "midi": 87,
        "time": 221.75,
        "duration": 0.25,
        "velocity": 0.93,
        "hand": "right"
      },
      {
        "midi": 89,
        "time": 221.75,
        "duration": 0.25,
        "velocity": 0.93,
        "hand": "right"
      },
      {
        "midi": 65,
        "time": 222,
        "duration": 0.25,
        "velocity": 0.09,
        "hand": "right"
      },
      {
        "midi": 90,
        "time": 222,
        "duration": 0.25,
        "velocity": 0.93,
        "hand": "right"
      },
      {
        "midi": 81,
        "time": 222.25,
        "duration": 0.25,
        "velocity": 0.09,
        "hand": "right"
      },
      {
        "midi": 87,
        "time": 222.25,
        "duration": 0.25,
        "velocity": 0.93,
        "hand": "right"
      },
      {
        "midi": 89,
        "time": 222.25,
        "duration": 0.25,
        "velocity": 0.93,
        "hand": "right"
      },
      {
        "midi": 72,
        "time": 222.5,
        "duration": 0.25,
        "velocity": 0.09,
        "hand": "right"
      },
      {
        "midi": 91,
        "time": 222.5,
        "duration": 0.25,
        "velocity": 0.93,
        "hand": "right"
      },
      {
        "midi": 81,
        "time": 222.75,
        "duration": 0.25,
        "velocity": 0.09,
        "hand": "right"
      },
      {
        "midi": 87,
        "time": 222.75,
        "duration": 0.25,
        "velocity": 0.93,
        "hand": "right"
      },
      {
        "midi": 89,
        "time": 222.75,
        "duration": 0.25,
        "velocity": 0.93,
        "hand": "right"
      },
      {
        "midi": 65,
        "time": 223,
        "duration": 0.25,
        "velocity": 0.09,
        "hand": "right"
      },
      {
        "midi": 90,
        "time": 223,
        "duration": 0.25,
        "velocity": 0.93,
        "hand": "right"
      },
      {
        "midi": 81,
        "time": 223.25,
        "duration": 0.25,
        "velocity": 0.09,
        "hand": "right"
      },
      {
        "midi": 87,
        "time": 223.25,
        "duration": 0.25,
        "velocity": 0.93,
        "hand": "right"
      },
      {
        "midi": 89,
        "time": 223.25,
        "duration": 0.25,
        "velocity": 0.93,
        "hand": "right"
      },
      {
        "midi": 72,
        "time": 223.5,
        "duration": 0.25,
        "velocity": 0.09,
        "hand": "right"
      },
      {
        "midi": 91,
        "time": 223.5,
        "duration": 0.25,
        "velocity": 0.93,
        "hand": "right"
      },
      {
        "midi": 81,
        "time": 223.75,
        "duration": 0.25,
        "velocity": 0.09,
        "hand": "right"
      },
      {
        "midi": 87,
        "time": 223.75,
        "duration": 0.25,
        "velocity": 0.93,
        "hand": "right"
      },
      {
        "midi": 89,
        "time": 223.75,
        "duration": 0.25,
        "velocity": 0.93,
        "hand": "right"
      },
      {
        "midi": 65,
        "time": 224,
        "duration": 0.25,
        "velocity": 0.09,
        "hand": "right"
      },
      {
        "midi": 90,
        "time": 224,
        "duration": 0.25,
        "velocity": 0.93,
        "hand": "right"
      },
      {
        "midi": 81,
        "time": 224.25,
        "duration": 0.25,
        "velocity": 0.09,
        "hand": "right"
      },
      {
        "midi": 87,
        "time": 224.25,
        "duration": 0.25,
        "velocity": 0.93,
        "hand": "right"
      },
      {
        "midi": 89,
        "time": 224.25,
        "duration": 0.25,
        "velocity": 0.93,
        "hand": "right"
      },
      {
        "midi": 72,
        "time": 224.5,
        "duration": 0.25,
        "velocity": 0.09,
        "hand": "right"
      },
      {
        "midi": 91,
        "time": 224.5,
        "duration": 0.25,
        "velocity": 0.93,
        "hand": "right"
      },
      {
        "midi": 81,
        "time": 224.75,
        "duration": 0.25,
        "velocity": 0.09,
        "hand": "right"
      },
      {
        "midi": 87,
        "time": 224.75,
        "duration": 0.25,
        "velocity": 0.93,
        "hand": "right"
      },
      {
        "midi": 89,
        "time": 224.75,
        "duration": 0.25,
        "velocity": 0.93,
        "hand": "right"
      },
      {
        "midi": 75,
        "time": 225,
        "duration": 0.5,
        "velocity": 0.09,
        "hand": "right"
      },
      {
        "midi": 88,
        "time": 225,
        "duration": 0.25,
        "velocity": 0.93,
        "hand": "right"
      },
      {
        "midi": 89,
        "time": 225.25,
        "duration": 0.25,
        "velocity": 0.93,
        "hand": "right"
      },
      {
        "midi": 101,
        "time": 225.5,
        "duration": 0.25,
        "velocity": 0.93,
        "hand": "right"
      },
      {
        "midi": 90,
        "time": 225.75,
        "duration": 0.25,
        "velocity": 0.93,
        "hand": "right"
      },
      {
        "midi": 101,
        "time": 226,
        "duration": 0.25,
        "velocity": 0.93,
        "hand": "right"
      },
      {
        "midi": 91,
        "time": 226.25,
        "duration": 0.25,
        "velocity": 0.93,
        "hand": "right"
      },
      {
        "midi": 92,
        "time": 226.5,
        "duration": 0.25,
        "velocity": 0.93,
        "hand": "right"
      },
      {
        "midi": 93,
        "time": 226.75,
        "duration": 0.25,
        "velocity": 0.93,
        "hand": "right"
      },
      {
        "midi": 98,
        "time": 227,
        "duration": 0.25,
        "velocity": 0.93,
        "hand": "right"
      },
      {
        "midi": 96,
        "time": 227.25,
        "duration": 0.25,
        "velocity": 0.93,
        "hand": "right"
      },
      {
        "midi": 94,
        "time": 227.5,
        "duration": 0.25,
        "velocity": 0.93,
        "hand": "right"
      },
      {
        "midi": 91,
        "time": 227.75,
        "duration": 0.25,
        "velocity": 0.93,
        "hand": "right"
      },
      {
        "midi": 89,
        "time": 228,
        "duration": 0.25,
        "velocity": 0.93,
        "hand": "right"
      },
      {
        "midi": 86,
        "time": 228.25,
        "duration": 0.25,
        "velocity": 0.93,
        "hand": "right"
      },
      {
        "midi": 87,
        "time": 228.5,
        "duration": 0.25,
        "velocity": 0.93,
        "hand": "right"
      },
      {
        "midi": 91,
        "time": 228.75,
        "duration": 0.25,
        "velocity": 0.93,
        "hand": "right"
      },
      {
        "midi": 89,
        "time": 229,
        "duration": 0.25,
        "velocity": 0.93,
        "hand": "right"
      },
      {
        "midi": 87,
        "time": 229.25,
        "duration": 0.25,
        "velocity": 0.93,
        "hand": "right"
      },
      {
        "midi": 84,
        "time": 229.5,
        "duration": 0.25,
        "velocity": 0.93,
        "hand": "right"
      },
      {
        "midi": 81,
        "time": 229.75,
        "duration": 0.25,
        "velocity": 0.93,
        "hand": "right"
      },
      {
        "midi": 82,
        "time": 230,
        "duration": 0.25,
        "velocity": 0.93,
        "hand": "right"
      },
      {
        "midi": 86,
        "time": 230.25,
        "duration": 0.25,
        "velocity": 0.93,
        "hand": "right"
      },
      {
        "midi": 84,
        "time": 230.5,
        "duration": 0.25,
        "velocity": 0.93,
        "hand": "right"
      },
      {
        "midi": 82,
        "time": 230.75,
        "duration": 0.25,
        "velocity": 0.93,
        "hand": "right"
      },
      {
        "midi": 79,
        "time": 231,
        "duration": 0.25,
        "velocity": 0.93,
        "hand": "right"
      },
      {
        "midi": 77,
        "time": 231.25,
        "duration": 0.25,
        "velocity": 0.93,
        "hand": "right"
      },
      {
        "midi": 74,
        "time": 231.5,
        "duration": 0.25,
        "velocity": 0.93,
        "hand": "right"
      },
      {
        "midi": 75,
        "time": 231.75,
        "duration": 0.25,
        "velocity": 0.93,
        "hand": "right"
      },
      {
        "midi": 79,
        "time": 232,
        "duration": 0.25,
        "velocity": 0.93,
        "hand": "right"
      },
      {
        "midi": 77,
        "time": 232.25,
        "duration": 0.25,
        "velocity": 0.93,
        "hand": "right"
      },
      {
        "midi": 75,
        "time": 232.5,
        "duration": 0.25,
        "velocity": 0.93,
        "hand": "right"
      },
      {
        "midi": 72,
        "time": 232.75,
        "duration": 0.25,
        "velocity": 0.93,
        "hand": "right"
      },
      {
        "midi": 60,
        "time": 233,
        "duration": 0.25,
        "velocity": 0.09,
        "hand": "right"
      },
      {
        "midi": 69,
        "time": 233,
        "duration": 0.25,
        "velocity": 0.93,
        "hand": "right"
      },
      {
        "midi": 62,
        "time": 233.25,
        "duration": 0.25,
        "velocity": 0.09,
        "hand": "right"
      },
      {
        "midi": 70,
        "time": 233.25,
        "duration": 0.25,
        "velocity": 0.93,
        "hand": "right"
      },
      {
        "midi": 65,
        "time": 233.5,
        "duration": 0.25,
        "velocity": 0.09,
        "hand": "right"
      },
      {
        "midi": 74,
        "time": 233.5,
        "duration": 0.25,
        "velocity": 0.93,
        "hand": "right"
      },
      {
        "midi": 63,
        "time": 233.75,
        "duration": 0.25,
        "velocity": 0.09,
        "hand": "right"
      },
      {
        "midi": 72,
        "time": 233.75,
        "duration": 0.25,
        "velocity": 0.93,
        "hand": "right"
      },
      {
        "midi": 62,
        "time": 234,
        "duration": 0.25,
        "velocity": 0.09,
        "hand": "right"
      },
      {
        "midi": 70,
        "time": 234,
        "duration": 0.25,
        "velocity": 0.93,
        "hand": "right"
      },
      {
        "midi": 58,
        "time": 234.25,
        "duration": 0.25,
        "velocity": 0.09,
        "hand": "left"
      },
      {
        "midi": 67,
        "time": 234.25,
        "duration": 0.25,
        "velocity": 0.93,
        "hand": "right"
      },
      {
        "midi": 57,
        "time": 234.5,
        "duration": 0.25,
        "velocity": 0.09,
        "hand": "left"
      },
      {
        "midi": 65,
        "time": 234.5,
        "duration": 0.25,
        "velocity": 0.93,
        "hand": "right"
      },
      {
        "midi": 53,
        "time": 234.75,
        "duration": 0.25,
        "velocity": 0.09,
        "hand": "left"
      },
      {
        "midi": 62,
        "time": 234.75,
        "duration": 0.25,
        "velocity": 0.93,
        "hand": "right"
      },
      {
        "midi": 55,
        "time": 235,
        "duration": 0.25,
        "velocity": 0.09,
        "hand": "left"
      },
      {
        "midi": 63,
        "time": 235,
        "duration": 0.25,
        "velocity": 0.93,
        "hand": "right"
      },
      {
        "midi": 58,
        "time": 235.25,
        "duration": 0.25,
        "velocity": 0.09,
        "hand": "left"
      },
      {
        "midi": 67,
        "time": 235.25,
        "duration": 0.25,
        "velocity": 0.93,
        "hand": "right"
      },
      {
        "midi": 57,
        "time": 235.5,
        "duration": 0.25,
        "velocity": 0.09,
        "hand": "left"
      },
      {
        "midi": 65,
        "time": 235.5,
        "duration": 0.25,
        "velocity": 0.93,
        "hand": "right"
      },
      {
        "midi": 55,
        "time": 235.75,
        "duration": 0.25,
        "velocity": 0.09,
        "hand": "left"
      },
      {
        "midi": 63,
        "time": 235.75,
        "duration": 0.25,
        "velocity": 0.93,
        "hand": "right"
      },
      {
        "midi": 51,
        "time": 236,
        "duration": 0.25,
        "velocity": 0.09,
        "hand": "left"
      },
      {
        "midi": 60,
        "time": 236,
        "duration": 0.25,
        "velocity": 0.93,
        "hand": "right"
      },
      {
        "midi": 48,
        "time": 236.25,
        "duration": 0.25,
        "velocity": 0.09,
        "hand": "left"
      },
      {
        "midi": 57,
        "time": 236.25,
        "duration": 0.25,
        "velocity": 0.93,
        "hand": "left"
      },
      {
        "midi": 51,
        "time": 236.5,
        "duration": 0.75,
        "velocity": 0.09,
        "hand": "left"
      },
      {
        "midi": 60,
        "time": 236.5,
        "duration": 0.25,
        "velocity": 0.93,
        "hand": "right"
      },
      {
        "midi": 55,
        "time": 236.75,
        "duration": 0.25,
        "velocity": 0.93,
        "hand": "left"
      },
      {
        "midi": 53,
        "time": 237,
        "duration": 1.5,
        "velocity": 0.93,
        "hand": "left"
      },
      {
        "midi": 50,
        "time": 237.25,
        "duration": 0.25,
        "velocity": 0.09,
        "hand": "left"
      },
      {
        "midi": 48,
        "time": 237.5,
        "duration": 0.25,
        "velocity": 0.09,
        "hand": "left"
      },
      {
        "midi": 46,
        "time": 237.75,
        "duration": 0.25,
        "velocity": 0.09,
        "hand": "left"
      },
      {
        "midi": 41,
        "time": 238,
        "duration": 0.5,
        "velocity": 0.09,
        "hand": "left"
      },
      {
        "midi": 57,
        "time": 238,
        "duration": 0.5,
        "velocity": 0.93,
        "hand": "left"
      },
      {
        "midi": 62,
        "time": 238,
        "duration": 0.5,
        "velocity": 0.93,
        "hand": "right"
      },
      {
        "midi": 46,
        "time": 238.5,
        "duration": 1,
        "velocity": 0.09,
        "hand": "left"
      },
      {
        "midi": 58,
        "time": 238.5,
        "duration": 1,
        "velocity": 0.93,
        "hand": "left"
      },
      {
        "midi": 62,
        "time": 238.5,
        "duration": 1,
        "velocity": 0.93,
        "hand": "right"
      },
      {
        "midi": 41,
        "time": 239.5,
        "duration": 0.5,
        "velocity": 0.09,
        "hand": "left"
      },
      {
        "midi": 57,
        "time": 239.5,
        "duration": 0.5,
        "velocity": 0.93,
        "hand": "left"
      },
      {
        "midi": 62,
        "time": 239.5,
        "duration": 0.5,
        "velocity": 0.93,
        "hand": "right"
      },
      {
        "midi": 46,
        "time": 240,
        "duration": 1,
        "velocity": 0.09,
        "hand": "left"
      },
      {
        "midi": 58,
        "time": 240,
        "duration": 1,
        "velocity": 0.93,
        "hand": "left"
      },
      {
        "midi": 62,
        "time": 240,
        "duration": 1,
        "velocity": 0.93,
        "hand": "right"
      },
      {
        "midi": 41,
        "time": 241,
        "duration": 0.5,
        "velocity": 0.09,
        "hand": "left"
      },
      {
        "midi": 62,
        "time": 241,
        "duration": 0.5,
        "velocity": 0.93,
        "hand": "right"
      },
      {
        "midi": 70,
        "time": 241,
        "duration": 0.5,
        "velocity": 0.93,
        "hand": "right"
      },
      {
        "midi": 46,
        "time": 241.5,
        "duration": 1,
        "velocity": 0.09,
        "hand": "left"
      },
      {
        "midi": 58,
        "time": 241.5,
        "duration": 1,
        "velocity": 0.71,
        "hand": "left"
      },
      {
        "midi": 62,
        "time": 241.5,
        "duration": 1.5,
        "velocity": 0.71,
        "hand": "right"
      },
      {
        "midi": 40,
        "time": 242.5,
        "duration": 0.5,
        "velocity": 0.09,
        "hand": "left"
      },
      {
        "midi": 52,
        "time": 242.5,
        "duration": 0.5,
        "velocity": 0.09,
        "hand": "left"
      },
      {
        "midi": 56,
        "time": 242.5,
        "duration": 0.5,
        "velocity": 0.71,
        "hand": "left"
      },
      {
        "midi": 45,
        "time": 243,
        "duration": 1,
        "velocity": 0.09,
        "hand": "left"
      },
      {
        "midi": 57,
        "time": 243,
        "duration": 1,
        "velocity": 0.93,
        "hand": "left"
      },
      {
        "midi": 61,
        "time": 243,
        "duration": 1,
        "velocity": 0.93,
        "hand": "right"
      },
      {
        "midi": 40,
        "time": 244,
        "duration": 0.5,
        "velocity": 0.09,
        "hand": "left"
      },
      {
        "midi": 61,
        "time": 244,
        "duration": 0.5,
        "velocity": 0.93,
        "hand": "right"
      },
      {
        "midi": 69,
        "time": 244,
        "duration": 0.5,
        "velocity": 0.93,
        "hand": "right"
      },
      {
        "midi": 45,
        "time": 244.5,
        "duration": 1,
        "velocity": 0.09,
        "hand": "left"
      },
      {
        "midi": 57,
        "time": 244.5,
        "duration": 1,
        "velocity": 0.93,
        "hand": "left"
      },
      {
        "midi": 61,
        "time": 244.5,
        "duration": 1,
        "velocity": 0.93,
        "hand": "right"
      },
      {
        "midi": 38,
        "time": 245.5,
        "duration": 0.5,
        "velocity": 0.09,
        "hand": "left"
      },
      {
        "midi": 54,
        "time": 245.5,
        "duration": 0.5,
        "velocity": 0.93,
        "hand": "left"
      },
      {
        "midi": 60,
        "time": 245.5,
        "duration": 0.5,
        "velocity": 0.93,
        "hand": "right"
      },
      {
        "midi": 43,
        "time": 246,
        "duration": 1,
        "velocity": 0.09,
        "hand": "left"
      },
      {
        "midi": 55,
        "time": 246,
        "duration": 1,
        "velocity": 0.93,
        "hand": "left"
      },
      {
        "midi": 58,
        "time": 246,
        "duration": 1,
        "velocity": 0.93,
        "hand": "left"
      },
      {
        "midi": 36,
        "time": 247,
        "duration": 0.5,
        "velocity": 0.09,
        "hand": "left"
      },
      {
        "midi": 60,
        "time": 247,
        "duration": 0.5,
        "velocity": 0.93,
        "hand": "right"
      },
      {
        "midi": 63,
        "time": 247,
        "duration": 0.5,
        "velocity": 0.93,
        "hand": "right"
      },
      {
        "midi": 41,
        "time": 247.5,
        "duration": 1,
        "velocity": 0.09,
        "hand": "left"
      },
      {
        "midi": 58,
        "time": 247.5,
        "duration": 1,
        "velocity": 0.93,
        "hand": "left"
      },
      {
        "midi": 62,
        "time": 247.5,
        "duration": 1,
        "velocity": 0.93,
        "hand": "right"
      },
      {
        "midi": 41,
        "time": 248.5,
        "duration": 0.5,
        "velocity": 0.09,
        "hand": "left"
      },
      {
        "midi": 57,
        "time": 248.5,
        "duration": 0.5,
        "velocity": 0.93,
        "hand": "left"
      },
      {
        "midi": 60,
        "time": 248.5,
        "duration": 0.5,
        "velocity": 0.93,
        "hand": "right"
      },
      {
        "midi": 34,
        "time": 249,
        "duration": 0.5,
        "velocity": 0.09,
        "hand": "left"
      },
      {
        "midi": 53,
        "time": 249,
        "duration": 0.5,
        "velocity": 0.93,
        "hand": "left"
      },
      {
        "midi": 62,
        "time": 249,
        "duration": 0.5,
        "velocity": 0.93,
        "hand": "right"
      },
      {
        "midi": 46,
        "time": 250,
        "duration": 0.5,
        "velocity": 0.09,
        "hand": "left"
      },
      {
        "midi": 62,
        "time": 250,
        "duration": 0.5,
        "velocity": 0.93,
        "hand": "right"
      },
      {
        "midi": 74,
        "time": 250,
        "duration": 0.5,
        "velocity": 0.93,
        "hand": "right"
      },
      {
        "midi": 45,
        "time": 250.5,
        "duration": 1.5,
        "velocity": 0.09,
        "hand": "left"
      },
      {
        "midi": 60,
        "time": 250.5,
        "duration": 1.5,
        "velocity": 0.93,
        "hand": "right"
      },
      {
        "midi": 74,
        "time": 250.5,
        "duration": 1.5,
        "velocity": 0.93,
        "hand": "right"
      },
      {
        "midi": 43,
        "time": 252,
        "duration": 1,
        "velocity": 0.09,
        "hand": "left"
      },
      {
        "midi": 62,
        "time": 252,
        "duration": 1,
        "velocity": 0.93,
        "hand": "right"
      },
      {
        "midi": 70,
        "time": 252,
        "duration": 1,
        "velocity": 0.93,
        "hand": "right"
      },
      {
        "midi": 48,
        "time": 253,
        "duration": 0.5,
        "velocity": 0.09,
        "hand": "left"
      },
      {
        "midi": 63,
        "time": 253,
        "duration": 0.25,
        "velocity": 0.93,
        "hand": "right"
      },
      {
        "midi": 67,
        "time": 253,
        "duration": 0.25,
        "velocity": 0.93,
        "hand": "right"
      },
      {
        "midi": 58,
        "time": 253.25,
        "duration": 0.25,
        "velocity": 0.93,
        "hand": "left"
      },
      {
        "midi": 48,
        "time": 253.5,
        "duration": 1,
        "velocity": 0.09,
        "hand": "left"
      },
      {
        "midi": 63,
        "time": 253.5,
        "duration": 1,
        "velocity": 0.93,
        "hand": "right"
      },
      {
        "midi": 69,
        "time": 253.5,
        "duration": 0.25,
        "velocity": 0.93,
        "hand": "right"
      },
      {
        "midi": 41,
        "time": 254.5,
        "duration": 0.5,
        "velocity": 0.09,
        "hand": "left"
      },
      {
        "midi": 57,
        "time": 254.5,
        "duration": 0.5,
        "velocity": 0.93,
        "hand": "left"
      },
      {
        "midi": 65,
        "time": 254.5,
        "duration": 1,
        "velocity": 0.93,
        "hand": "right"
      },
      {
        "midi": 34,
        "time": 255,
        "duration": 0.5,
        "velocity": 0.09,
        "hand": "left"
      },
      {
        "midi": 58,
        "time": 255,
        "duration": 0.5,
        "velocity": 0.93,
        "hand": "left"
      },
      {
        "midi": 62,
        "time": 255,
        "duration": 0.5,
        "velocity": 0.93,
        "hand": "right"
      },
      {
        "midi": 46,
        "time": 256,
        "duration": 0.5,
        "velocity": 0.09,
        "hand": "left"
      },
      {
        "midi": 62,
        "time": 256,
        "duration": 0.5,
        "velocity": 0.93,
        "hand": "right"
      },
      {
        "midi": 74,
        "time": 256,
        "duration": 0.5,
        "velocity": 0.93,
        "hand": "right"
      },
      {
        "midi": 46,
        "time": 256.5,
        "duration": 1,
        "velocity": 0.09,
        "hand": "left"
      },
      {
        "midi": 58,
        "time": 256.5,
        "duration": 1,
        "velocity": 0.09,
        "hand": "left"
      },
      {
        "midi": 70,
        "time": 256.5,
        "duration": 1,
        "velocity": 0.93,
        "hand": "right"
      },
      {
        "midi": 58,
        "time": 257.5,
        "duration": 1,
        "velocity": 0.09,
        "hand": "left"
      },
      {
        "midi": 67,
        "time": 257.5,
        "duration": 1,
        "velocity": 0.93,
        "hand": "right"
      },
      {
        "midi": 79,
        "time": 257.5,
        "duration": 1,
        "velocity": 0.93,
        "hand": "right"
      },
      {
        "midi": 58,
        "time": 258.5,
        "duration": 0.5,
        "velocity": 0.09,
        "hand": "left"
      },
      {
        "midi": 65,
        "time": 258.5,
        "duration": 0.5,
        "velocity": 0.09,
        "hand": "right"
      },
      {
        "midi": 77,
        "time": 258.5,
        "duration": 0.5,
        "velocity": 0.93,
        "hand": "right"
      },
      {
        "midi": 58,
        "time": 259,
        "duration": 0.5,
        "velocity": 0.09,
        "hand": "left"
      },
      {
        "midi": 67,
        "time": 259,
        "duration": 0.5,
        "velocity": 0.09,
        "hand": "right"
      },
      {
        "midi": 76,
        "time": 259,
        "duration": 0.5,
        "velocity": 0.93,
        "hand": "right"
      },
      {
        "midi": 58,
        "time": 259.5,
        "duration": 1,
        "velocity": 0.09,
        "hand": "left"
      },
      {
        "midi": 68,
        "time": 259.5,
        "duration": 2.5,
        "velocity": 0.93,
        "hand": "right"
      },
      {
        "midi": 77,
        "time": 259.5,
        "duration": 2.5,
        "velocity": 0.93,
        "hand": "right"
      },
      {
        "midi": 34,
        "time": 260.5,
        "duration": 0.5,
        "velocity": 0.09,
        "hand": "left"
      },
      {
        "midi": 46,
        "time": 260.5,
        "duration": 0.5,
        "velocity": 0.09,
        "hand": "left"
      },
      {
        "midi": 34,
        "time": 261,
        "duration": 0.5,
        "velocity": 0.09,
        "hand": "left"
      },
      {
        "midi": 46,
        "time": 261,
        "duration": 0.5,
        "velocity": 0.09,
        "hand": "left"
      },
      {
        "midi": 46,
        "time": 262,
        "duration": 0.5,
        "velocity": 0.09,
        "hand": "left"
      },
      {
        "midi": 62,
        "time": 262,
        "duration": 0.5,
        "velocity": 0.93,
        "hand": "right"
      },
      {
        "midi": 70,
        "time": 262,
        "duration": 0.5,
        "velocity": 0.93,
        "hand": "right"
      },
      {
        "midi": 46,
        "time": 262.5,
        "duration": 1,
        "velocity": 0.09,
        "hand": "left"
      },
      {
        "midi": 62,
        "time": 262.5,
        "duration": 1,
        "velocity": 0.71,
        "hand": "right"
      },
      {
        "midi": 70,
        "time": 262.5,
        "duration": 1.5,
        "velocity": 0.71,
        "hand": "right"
      },
      {
        "midi": 51,
        "time": 263.5,
        "duration": 0.5,
        "velocity": 0.09,
        "hand": "left"
      },
      {
        "midi": 63,
        "time": 263.5,
        "duration": 0.5,
        "velocity": 0.71,
        "hand": "right"
      },
      {
        "midi": 67,
        "time": 263.5,
        "duration": 0.5,
        "velocity": 0.71,
        "hand": "right"
      },
      {
        "midi": 51,
        "time": 264,
        "duration": 1,
        "velocity": 0.09,
        "hand": "left"
      },
      {
        "midi": 63,
        "time": 264,
        "duration": 1,
        "velocity": 0.93,
        "hand": "right"
      },
      {
        "midi": 70,
        "time": 264,
        "duration": 1,
        "velocity": 0.93,
        "hand": "right"
      },
      {
        "midi": 48,
        "time": 265,
        "duration": 0.5,
        "velocity": 0.09,
        "hand": "left"
      },
      {
        "midi": 63,
        "time": 265,
        "duration": 0.5,
        "velocity": 0.93,
        "hand": "right"
      },
      {
        "midi": 75,
        "time": 265,
        "duration": 0.5,
        "velocity": 0.93,
        "hand": "right"
      },
      {
        "midi": 48,
        "time": 265.5,
        "duration": 1,
        "velocity": 0.09,
        "hand": "left"
      },
      {
        "midi": 63,
        "time": 265.5,
        "duration": 1,
        "velocity": 0.93,
        "hand": "right"
      },
      {
        "midi": 75,
        "time": 265.5,
        "duration": 1,
        "velocity": 0.93,
        "hand": "right"
      },
      {
        "midi": 48,
        "time": 266.5,
        "duration": 0.5,
        "velocity": 0.09,
        "hand": "left"
      },
      {
        "midi": 60,
        "time": 266.5,
        "duration": 0.5,
        "velocity": 0.93,
        "hand": "right"
      },
      {
        "midi": 67,
        "time": 266.5,
        "duration": 0.5,
        "velocity": 0.93,
        "hand": "right"
      },
      {
        "midi": 48,
        "time": 267,
        "duration": 1,
        "velocity": 0.09,
        "hand": "left"
      },
      {
        "midi": 60,
        "time": 267,
        "duration": 1,
        "velocity": 0.93,
        "hand": "right"
      },
      {
        "midi": 67,
        "time": 267,
        "duration": 1,
        "velocity": 0.93,
        "hand": "right"
      },
      {
        "midi": 43,
        "time": 268,
        "duration": 0.5,
        "velocity": 0.09,
        "hand": "left"
      },
      {
        "midi": 58,
        "time": 268,
        "duration": 0.5,
        "velocity": 0.93,
        "hand": "left"
      },
      {
        "midi": 70,
        "time": 268,
        "duration": 0.5,
        "velocity": 0.93,
        "hand": "right"
      },
      {
        "midi": 43,
        "time": 268.5,
        "duration": 1,
        "velocity": 0.09,
        "hand": "left"
      },
      {
        "midi": 58,
        "time": 268.5,
        "duration": 1,
        "velocity": 0.93,
        "hand": "left"
      },
      {
        "midi": 70,
        "time": 268.5,
        "duration": 1,
        "velocity": 0.93,
        "hand": "right"
      },
      {
        "midi": 48,
        "time": 269.5,
        "duration": 0.5,
        "velocity": 0.09,
        "hand": "left"
      },
      {
        "midi": 64,
        "time": 269.5,
        "duration": 0.5,
        "velocity": 0.93,
        "hand": "right"
      },
      {
        "midi": 72,
        "time": 269.5,
        "duration": 0.5,
        "velocity": 0.93,
        "hand": "right"
      },
      {
        "midi": 41,
        "time": 270,
        "duration": 3,
        "velocity": 0.09,
        "hand": "left"
      },
      {
        "midi": 58,
        "time": 270,
        "duration": 0.5,
        "velocity": 0.71,
        "hand": "left"
      },
      {
        "midi": 65,
        "time": 270,
        "duration": 4,
        "velocity": 0.71,
        "hand": "right"
      },
      {
        "midi": 57,
        "time": 270.5,
        "duration": 0.5,
        "velocity": 0.71,
        "hand": "left"
      },
      {
        "midi": 62,
        "time": 271,
        "duration": 0.5,
        "velocity": 0.71,
        "hand": "right"
      },
      {
        "midi": 60,
        "time": 271.5,
        "duration": 0.5,
        "velocity": 0.71,
        "hand": "right"
      },
      {
        "midi": 55,
        "time": 272,
        "duration": 0.5,
        "velocity": 0.71,
        "hand": "left"
      },
      {
        "midi": 57,
        "time": 272.5,
        "duration": 0.5,
        "velocity": 0.71,
        "hand": "left"
      },
      {
        "midi": 46,
        "time": 273,
        "duration": 1.5,
        "velocity": 0.09,
        "hand": "left"
      },
      {
        "midi": 55,
        "time": 273,
        "duration": 0.5,
        "velocity": 0.71,
        "hand": "left"
      },
      {
        "midi": 62,
        "time": 273,
        "duration": 1,
        "velocity": 0.71,
        "hand": "right"
      },
      {
        "midi": 53,
        "time": 273.5,
        "duration": 1,
        "velocity": 0.71,
        "hand": "left"
      },
      {
        "midi": 62,
        "time": 274,
        "duration": 0.5,
        "velocity": 0.71,
        "hand": "right"
      },
      {
        "midi": 74,
        "time": 274,
        "duration": 0.5,
        "velocity": 0.71,
        "hand": "right"
      },
      {
        "midi": 46,
        "time": 274.5,
        "duration": 1,
        "velocity": 0.09,
        "hand": "left"
      },
      {
        "midi": 62,
        "time": 274.5,
        "duration": 1,
        "velocity": 0.93,
        "hand": "right"
      },
      {
        "midi": 74,
        "time": 274.5,
        "duration": 1,
        "velocity": 0.93,
        "hand": "right"
      },
      {
        "midi": 46,
        "time": 275.5,
        "duration": 0.5,
        "velocity": 0.09,
        "hand": "left"
      },
      {
        "midi": 62,
        "time": 275.5,
        "duration": 0.5,
        "velocity": 0.93,
        "hand": "right"
      },
      {
        "midi": 70,
        "time": 275.5,
        "duration": 0.5,
        "velocity": 0.93,
        "hand": "right"
      },
      {
        "midi": 46,
        "time": 276,
        "duration": 1,
        "velocity": 0.09,
        "hand": "left"
      },
      {
        "midi": 62,
        "time": 276,
        "duration": 1,
        "velocity": 0.93,
        "hand": "right"
      },
      {
        "midi": 70,
        "time": 276,
        "duration": 1,
        "velocity": 0.93,
        "hand": "right"
      },
      {
        "midi": 46,
        "time": 277,
        "duration": 0.5,
        "velocity": 0.09,
        "hand": "left"
      },
      {
        "midi": 62,
        "time": 277,
        "duration": 0.25,
        "velocity": 0.93,
        "hand": "right"
      },
      {
        "midi": 67,
        "time": 277,
        "duration": 0.25,
        "velocity": 0.93,
        "hand": "right"
      },
      {
        "midi": 58,
        "time": 277.25,
        "duration": 0.25,
        "velocity": 0.93,
        "hand": "left"
      },
      {
        "midi": 48,
        "time": 277.5,
        "duration": 1,
        "velocity": 0.09,
        "hand": "left"
      },
      {
        "midi": 63,
        "time": 277.5,
        "duration": 1,
        "velocity": 0.93,
        "hand": "right"
      },
      {
        "midi": 69,
        "time": 277.5,
        "duration": 0.25,
        "velocity": 0.93,
        "hand": "right"
      },
      {
        "midi": 48,
        "time": 278.5,
        "duration": 0.5,
        "velocity": 0.09,
        "hand": "left"
      },
      {
        "midi": 63,
        "time": 278.5,
        "duration": 0.5,
        "velocity": 0.93,
        "hand": "right"
      },
      {
        "midi": 65,
        "time": 278.5,
        "duration": 0.5,
        "velocity": 0.93,
        "hand": "right"
      },
      {
        "midi": 50,
        "time": 279,
        "duration": 1,
        "velocity": 0.09,
        "hand": "left"
      },
      {
        "midi": 62,
        "time": 279,
        "duration": 1,
        "velocity": 0.93,
        "hand": "right"
      },
      {
        "midi": 65,
        "time": 279,
        "duration": 1,
        "velocity": 0.93,
        "hand": "right"
      },
      {
        "midi": 50,
        "time": 280,
        "duration": 0.5,
        "velocity": 0.09,
        "hand": "left"
      },
      {
        "midi": 60,
        "time": 280,
        "duration": 0.5,
        "velocity": 0.09,
        "hand": "right"
      },
      {
        "midi": 74,
        "time": 280,
        "duration": 0.5,
        "velocity": 0.93,
        "hand": "right"
      },
      {
        "midi": 51,
        "time": 280.5,
        "duration": 1,
        "velocity": 0.09,
        "hand": "left"
      },
      {
        "midi": 58,
        "time": 280.5,
        "duration": 1,
        "velocity": 0.09,
        "hand": "left"
      },
      {
        "midi": 70,
        "time": 280.5,
        "duration": 1,
        "velocity": 0.93,
        "hand": "right"
      },
      {
        "midi": 52,
        "time": 281.5,
        "duration": 1,
        "velocity": 0.09,
        "hand": "left"
      },
      {
        "midi": 67,
        "time": 281.5,
        "duration": 1,
        "velocity": 0.93,
        "hand": "right"
      },
      {
        "midi": 79,
        "time": 281.5,
        "duration": 1,
        "velocity": 0.93,
        "hand": "right"
      },
      {
        "midi": 53,
        "time": 282.5,
        "duration": 0.5,
        "velocity": 0.09,
        "hand": "left"
      },
      {
        "midi": 65,
        "time": 282.5,
        "duration": 0.5,
        "velocity": 0.93,
        "hand": "right"
      },
      {
        "midi": 77,
        "time": 282.5,
        "duration": 0.5,
        "velocity": 0.93,
        "hand": "right"
      },
      {
        "midi": 55,
        "time": 283,
        "duration": 0.5,
        "velocity": 0.09,
        "hand": "left"
      },
      {
        "midi": 64,
        "time": 283,
        "duration": 0.5,
        "velocity": 0.93,
        "hand": "right"
      },
      {
        "midi": 76,
        "time": 283,
        "duration": 0.5,
        "velocity": 0.93,
        "hand": "right"
      },
      {
        "midi": 56,
        "time": 283.5,
        "duration": 1,
        "velocity": 0.09,
        "hand": "left"
      },
      {
        "midi": 65,
        "time": 283.5,
        "duration": 2.5,
        "velocity": 0.93,
        "hand": "right"
      },
      {
        "midi": 77,
        "time": 283.5,
        "duration": 2.5,
        "velocity": 0.93,
        "hand": "right"
      },
      {
        "midi": 34,
        "time": 284.5,
        "duration": 0.5,
        "velocity": 0.09,
        "hand": "left"
      },
      {
        "midi": 46,
        "time": 284.5,
        "duration": 0.5,
        "velocity": 0.09,
        "hand": "left"
      },
      {
        "midi": 34,
        "time": 285,
        "duration": 0.5,
        "velocity": 0.09,
        "hand": "left"
      },
      {
        "midi": 46,
        "time": 285,
        "duration": 0.5,
        "velocity": 0.09,
        "hand": "left"
      },
      {
        "midi": 46,
        "time": 286,
        "duration": 0.5,
        "velocity": 0.09,
        "hand": "left"
      },
      {
        "midi": 62,
        "time": 286,
        "duration": 0.5,
        "velocity": 0.71,
        "hand": "right"
      },
      {
        "midi": 70,
        "time": 286,
        "duration": 0.5,
        "velocity": 0.71,
        "hand": "right"
      },
      {
        "midi": 46,
        "time": 286.5,
        "duration": 1,
        "velocity": 0.09,
        "hand": "left"
      },
      {
        "midi": 62,
        "time": 286.5,
        "duration": 1,
        "velocity": 0.71,
        "hand": "right"
      },
      {
        "midi": 70,
        "time": 286.5,
        "duration": 2.5,
        "velocity": 0.71,
        "hand": "right"
      },
      {
        "midi": 51,
        "time": 287.5,
        "duration": 0.5,
        "velocity": 0.09,
        "hand": "left"
      },
      {
        "midi": 63,
        "time": 287.5,
        "duration": 0.5,
        "velocity": 0.71,
        "hand": "right"
      },
      {
        "midi": 67,
        "time": 287.5,
        "duration": 0.5,
        "velocity": 0.71,
        "hand": "right"
      },
      {
        "midi": 51,
        "time": 288,
        "duration": 1,
        "velocity": 0.09,
        "hand": "left"
      },
      {
        "midi": 63,
        "time": 288,
        "duration": 1,
        "velocity": 0.71,
        "hand": "right"
      },
      {
        "midi": 67,
        "time": 288,
        "duration": 1,
        "velocity": 0.71,
        "hand": "right"
      },
      {
        "midi": 51,
        "time": 289,
        "duration": 0.5,
        "velocity": 0.09,
        "hand": "left"
      },
      {
        "midi": 67,
        "time": 289,
        "duration": 0.5,
        "velocity": 0.93,
        "hand": "right"
      },
      {
        "midi": 75,
        "time": 289,
        "duration": 0.5,
        "velocity": 0.93,
        "hand": "right"
      },
      {
        "midi": 51,
        "time": 289.5,
        "duration": 2.5,
        "velocity": 0.09,
        "hand": "left"
      },
      {
        "midi": 67,
        "time": 289.5,
        "duration": 2.5,
        "velocity": 0.93,
        "hand": "right"
      },
      {
        "midi": 75,
        "time": 289.5,
        "duration": 2.5,
        "velocity": 0.93,
        "hand": "right"
      },
      {
        "midi": 51,
        "time": 292,
        "duration": 0.5,
        "velocity": 0.09,
        "hand": "left"
      },
      {
        "midi": 60,
        "time": 292,
        "duration": 0.5,
        "velocity": 0.93,
        "hand": "right"
      },
      {
        "midi": 67,
        "time": 292,
        "duration": 0.5,
        "velocity": 0.93,
        "hand": "right"
      },
      {
        "midi": 43,
        "time": 292.5,
        "duration": 1,
        "velocity": 0.09,
        "hand": "left"
      },
      {
        "midi": 58,
        "time": 292.5,
        "duration": 1,
        "velocity": 0.93,
        "hand": "left"
      },
      {
        "midi": 70,
        "time": 292.5,
        "duration": 1,
        "velocity": 0.93,
        "hand": "right"
      },
      {
        "midi": 48,
        "time": 293.5,
        "duration": 0.5,
        "velocity": 0.09,
        "hand": "left"
      },
      {
        "midi": 64,
        "time": 293.5,
        "duration": 0.5,
        "velocity": 0.93,
        "hand": "right"
      },
      {
        "midi": 72,
        "time": 293.5,
        "duration": 0.5,
        "velocity": 0.93,
        "hand": "right"
      },
      {
        "midi": 41,
        "time": 294,
        "duration": 1,
        "velocity": 0.09,
        "hand": "left"
      },
      {
        "midi": 63,
        "time": 294,
        "duration": 1,
        "velocity": 0.93,
        "hand": "right"
      },
      {
        "midi": 72,
        "time": 294,
        "duration": 1,
        "velocity": 0.93,
        "hand": "right"
      },
      {
        "midi": 34,
        "time": 295,
        "duration": 0.5,
        "velocity": 0.09,
        "hand": "left"
      },
      {
        "midi": 62,
        "time": 295,
        "duration": 0.5,
        "velocity": 0.93,
        "hand": "right"
      },
      {
        "midi": 70,
        "time": 295,
        "duration": 0.5,
        "velocity": 0.93,
        "hand": "right"
      },
      {
        "midi": 46,
        "time": 295.5,
        "duration": 1,
        "velocity": 0.09,
        "hand": "left"
      },
      {
        "midi": 58,
        "time": 295.5,
        "duration": 1,
        "velocity": 0.93,
        "hand": "left"
      },
      {
        "midi": 70,
        "time": 295.5,
        "duration": 1,
        "velocity": 0.93,
        "hand": "right"
      },
      {
        "midi": 50,
        "time": 296.5,
        "duration": 0.75,
        "velocity": 0.71,
        "hand": "left"
      },
      {
        "midi": 62,
        "time": 296.5,
        "duration": 0.75,
        "velocity": 0.71,
        "hand": "right"
      },
      {
        "midi": 42,
        "time": 297,
        "duration": 1.5,
        "velocity": 0.71,
        "hand": "left"
      },
      {
        "midi": 60,
        "time": 297,
        "duration": 1.5,
        "velocity": 0.71,
        "hand": "right"
      },
      {
        "midi": 51,
        "time": 297.25,
        "duration": 0.25,
        "velocity": 0.71,
        "hand": "left"
      },
      {
        "midi": 63,
        "time": 297.25,
        "duration": 0.25,
        "velocity": 0.71,
        "hand": "right"
      },
      {
        "midi": 50,
        "time": 297.5,
        "duration": 1.25,
        "velocity": 0.71,
        "hand": "left"
      },
      {
        "midi": 62,
        "time": 297.5,
        "duration": 0.25,
        "velocity": 0.71,
        "hand": "right"
      },
      {
        "midi": 69,
        "time": 297.75,
        "duration": 0.25,
        "velocity": 0.71,
        "hand": "right"
      },
      {
        "midi": 66,
        "time": 298,
        "duration": 0.25,
        "velocity": 0.71,
        "hand": "right"
      },
      {
        "midi": 63,
        "time": 298.25,
        "duration": 0.25,
        "velocity": 0.71,
        "hand": "right"
      },
      {
        "midi": 43,
        "time": 298.5,
        "duration": 1.5,
        "velocity": 0.71,
        "hand": "left"
      },
      {
        "midi": 58,
        "time": 298.5,
        "duration": 1.5,
        "velocity": 0.71,
        "hand": "left"
      },
      {
        "midi": 62,
        "time": 298.5,
        "duration": 0.25,
        "velocity": 0.71,
        "hand": "right"
      },
      {
        "midi": 51,
        "time": 298.75,
        "duration": 0.25,
        "velocity": 0.71,
        "hand": "left"
      },
      {
        "midi": 63,
        "time": 298.75,
        "duration": 0.25,
        "velocity": 0.71,
        "hand": "right"
      },
      {
        "midi": 50,
        "time": 299,
        "duration": 1,
        "velocity": 0.71,
        "hand": "left"
      },
      {
        "midi": 62,
        "time": 299,
        "duration": 0.25,
        "velocity": 0.71,
        "hand": "right"
      },
      {
        "midi": 70,
        "time": 299.25,
        "duration": 0.25,
        "velocity": 0.71,
        "hand": "right"
      },
      {
        "midi": 67,
        "time": 299.5,
        "duration": 0.25,
        "velocity": 0.71,
        "hand": "right"
      },
      {
        "midi": 63,
        "time": 299.75,
        "duration": 0.25,
        "velocity": 0.71,
        "hand": "right"
      },
      {
        "midi": 45,
        "time": 300,
        "duration": 0.5,
        "velocity": 0.09,
        "hand": "left"
      },
      {
        "midi": 54,
        "time": 300,
        "duration": 0.25,
        "velocity": 0.93,
        "hand": "left"
      },
      {
        "midi": 63,
        "time": 300.25,
        "duration": 0.25,
        "velocity": 0.93,
        "hand": "right"
      },
      {
        "midi": 60,
        "time": 300.5,
        "duration": 0.5,
        "velocity": 0.09,
        "hand": "right"
      },
      {
        "midi": 62,
        "time": 300.5,
        "duration": 0.25,
        "velocity": 0.93,
        "hand": "right"
      },
      {
        "midi": 66,
        "time": 300.75,
        "duration": 0.25,
        "velocity": 0.93,
        "hand": "right"
      },
      {
        "midi": 72,
        "time": 301,
        "duration": 0.25,
        "velocity": 0.93,
        "hand": "right"
      },
      {
        "midi": 74,
        "time": 301.25,
        "duration": 0.25,
        "velocity": 0.93,
        "hand": "right"
      },
      {
        "midi": 78,
        "time": 301.5,
        "duration": 0.25,
        "velocity": 0.93,
        "hand": "right"
      },
      {
        "midi": 84,
        "time": 301.75,
        "duration": 0.25,
        "velocity": 0.93,
        "hand": "right"
      },
      {
        "midi": 84,
        "time": 302,
        "duration": 0.25,
        "velocity": 0.93,
        "hand": "right"
      },
      {
        "midi": 93,
        "time": 302.25,
        "duration": 0.25,
        "velocity": 0.93,
        "hand": "right"
      },
      {
        "midi": 82,
        "time": 302.75,
        "duration": 0.25,
        "velocity": 0.93,
        "hand": "right"
      },
      {
        "midi": 91,
        "time": 302.75,
        "duration": 0.25,
        "velocity": 0.93,
        "hand": "right"
      },
      {
        "midi": 38,
        "time": 303,
        "duration": 0.5,
        "velocity": 0.09,
        "hand": "left"
      },
      {
        "midi": 81,
        "time": 303,
        "duration": 0.25,
        "velocity": 0.93,
        "hand": "right"
      },
      {
        "midi": 90,
        "time": 303.25,
        "duration": 0.25,
        "velocity": 0.93,
        "hand": "right"
      },
      {
        "midi": 50,
        "time": 303.5,
        "duration": 0.5,
        "velocity": 0.09,
        "hand": "left"
      },
      {
        "midi": 79,
        "time": 303.5,
        "duration": 0.25,
        "velocity": 0.93,
        "hand": "right"
      },
      {
        "midi": 87,
        "time": 303.5,
        "duration": 0.25,
        "velocity": 0.93,
        "hand": "right"
      },
      {
        "midi": 78,
        "time": 303.75,
        "duration": 0.25,
        "velocity": 0.93,
        "hand": "right"
      },
      {
        "midi": 57,
        "time": 304,
        "duration": 0.5,
        "velocity": 0.09,
        "hand": "left"
      },
      {
        "midi": 86,
        "time": 304,
        "duration": 0.25,
        "velocity": 0.93,
        "hand": "right"
      },
      {
        "midi": 75,
        "time": 304.25,
        "duration": 0.25,
        "velocity": 0.93,
        "hand": "right"
      },
      {
        "midi": 84,
        "time": 304.25,
        "duration": 0.25,
        "velocity": 0.93,
        "hand": "right"
      },
      {
        "midi": 60,
        "time": 304.5,
        "duration": 0.5,
        "velocity": 0.09,
        "hand": "right"
      },
      {
        "midi": 74,
        "time": 304.5,
        "duration": 0.25,
        "velocity": 0.93,
        "hand": "right"
      },
      {
        "midi": 82,
        "time": 304.75,
        "duration": 0.25,
        "velocity": 0.93,
        "hand": "right"
      },
      {
        "midi": 66,
        "time": 305,
        "duration": 0.5,
        "velocity": 0.09,
        "hand": "right"
      },
      {
        "midi": 72,
        "time": 305,
        "duration": 0.25,
        "velocity": 0.93,
        "hand": "right"
      },
      {
        "midi": 81,
        "time": 305,
        "duration": 0.25,
        "velocity": 0.93,
        "hand": "right"
      },
      {
        "midi": 75,
        "time": 305.25,
        "duration": 0.25,
        "velocity": 0.93,
        "hand": "right"
      },
      {
        "midi": 84,
        "time": 305.5,
        "duration": 0.25,
        "velocity": 0.93,
        "hand": "right"
      },
      {
        "midi": 74,
        "time": 305.75,
        "duration": 0.25,
        "velocity": 0.93,
        "hand": "right"
      },
      {
        "midi": 82,
        "time": 305.75,
        "duration": 0.25,
        "velocity": 0.93,
        "hand": "right"
      },
      {
        "midi": 43,
        "time": 306,
        "duration": 0.5,
        "velocity": 0.09,
        "hand": "left"
      },
      {
        "midi": 72,
        "time": 306,
        "duration": 0.25,
        "velocity": 0.93,
        "hand": "right"
      },
      {
        "midi": 81,
        "time": 306.25,
        "duration": 0.25,
        "velocity": 0.93,
        "hand": "right"
      },
      {
        "midi": 50,
        "time": 306.5,
        "duration": 0.5,
        "velocity": 0.09,
        "hand": "left"
      },
      {
        "midi": 74,
        "time": 306.5,
        "duration": 0.25,
        "velocity": 0.93,
        "hand": "right"
      },
      {
        "midi": 82,
        "time": 306.5,
        "duration": 0.25,
        "velocity": 0.93,
        "hand": "right"
      },
      {
        "midi": 69,
        "time": 306.75,
        "duration": 0.25,
        "velocity": 0.93,
        "hand": "right"
      },
      {
        "midi": 78,
        "time": 306.75,
        "duration": 0.25,
        "velocity": 0.93,
        "hand": "right"
      },
      {
        "midi": 62,
        "time": 307,
        "duration": 0.25,
        "velocity": 0.09,
        "hand": "right"
      },
      {
        "midi": 72,
        "time": 307,
        "duration": 0.25,
        "velocity": 0.93,
        "hand": "right"
      },
      {
        "midi": 81,
        "time": 307,
        "duration": 0.25,
        "velocity": 0.93,
        "hand": "right"
      },
      {
        "midi": 66,
        "time": 307.25,
        "duration": 0.25,
        "velocity": 0.09,
        "hand": "right"
      },
      {
        "midi": 67,
        "time": 307.5,
        "duration": 0.25,
        "velocity": 0.09,
        "hand": "right"
      },
      {
        "midi": 70,
        "time": 307.5,
        "duration": 0.25,
        "velocity": 0.93,
        "hand": "right"
      },
      {
        "midi": 79,
        "time": 307.5,
        "duration": 0.25,
        "velocity": 0.93,
        "hand": "right"
      },
      {
        "midi": 54,
        "time": 307.75,
        "duration": 0.25,
        "velocity": 0.71,
        "hand": "left"
      },
      {
        "midi": 66,
        "time": 307.75,
        "duration": 0.25,
        "velocity": 0.71,
        "hand": "right"
      },
      {
        "midi": 54,
        "time": 308,
        "duration": 0.25,
        "velocity": 0.71,
        "hand": "left"
      },
      {
        "midi": 66,
        "time": 308,
        "duration": 0.25,
        "velocity": 0.71,
        "hand": "right"
      },
      {
        "midi": 53,
        "time": 308.25,
        "duration": 0.25,
        "velocity": 0.71,
        "hand": "left"
      },
      {
        "midi": 65,
        "time": 308.25,
        "duration": 0.25,
        "velocity": 0.71,
        "hand": "right"
      },
      {
        "midi": 53,
        "time": 308.5,
        "duration": 0.25,
        "velocity": 0.71,
        "hand": "left"
      },
      {
        "midi": 65,
        "time": 308.5,
        "duration": 0.25,
        "velocity": 0.71,
        "hand": "right"
      },
      {
        "midi": 52,
        "time": 308.75,
        "duration": 0.5,
        "velocity": 0.71,
        "hand": "left"
      },
      {
        "midi": 64,
        "time": 308.75,
        "duration": 0.5,
        "velocity": 0.71,
        "hand": "right"
      },
      {
        "midi": 44,
        "time": 309,
        "duration": 1.5,
        "velocity": 0.71,
        "hand": "left"
      },
      {
        "midi": 62,
        "time": 309,
        "duration": 1.5,
        "velocity": 0.71,
        "hand": "right"
      },
      {
        "midi": 53,
        "time": 309.25,
        "duration": 0.25,
        "velocity": 0.71,
        "hand": "left"
      },
      {
        "midi": 65,
        "time": 309.25,
        "duration": 0.25,
        "velocity": 0.71,
        "hand": "right"
      },
      {
        "midi": 52,
        "time": 309.5,
        "duration": 1.25,
        "velocity": 0.71,
        "hand": "left"
      },
      {
        "midi": 64,
        "time": 309.5,
        "duration": 0.25,
        "velocity": 0.71,
        "hand": "right"
      },
      {
        "midi": 71,
        "time": 309.75,
        "duration": 0.25,
        "velocity": 0.71,
        "hand": "right"
      },
      {
        "midi": 68,
        "time": 310,
        "duration": 0.25,
        "velocity": 0.71,
        "hand": "right"
      },
      {
        "midi": 65,
        "time": 310.25,
        "duration": 0.25,
        "velocity": 0.71,
        "hand": "right"
      },
      {
        "midi": 45,
        "time": 310.5,
        "duration": 1.5,
        "velocity": 0.71,
        "hand": "left"
      },
      {
        "midi": 60,
        "time": 310.5,
        "duration": 1.5,
        "velocity": 0.71,
        "hand": "right"
      },
      {
        "midi": 64,
        "time": 310.5,
        "duration": 0.25,
        "velocity": 0.71,
        "hand": "right"
      },
      {
        "midi": 53,
        "time": 310.75,
        "duration": 0.25,
        "velocity": 0.71,
        "hand": "left"
      },
      {
        "midi": 65,
        "time": 310.75,
        "duration": 0.25,
        "velocity": 0.71,
        "hand": "right"
      },
      {
        "midi": 52,
        "time": 311,
        "duration": 1,
        "velocity": 0.71,
        "hand": "left"
      },
      {
        "midi": 64,
        "time": 311,
        "duration": 0.25,
        "velocity": 0.71,
        "hand": "right"
      },
      {
        "midi": 72,
        "time": 311.25,
        "duration": 0.25,
        "velocity": 0.71,
        "hand": "right"
      },
      {
        "midi": 69,
        "time": 311.5,
        "duration": 0.25,
        "velocity": 0.71,
        "hand": "right"
      },
      {
        "midi": 65,
        "time": 311.75,
        "duration": 0.25,
        "velocity": 0.71,
        "hand": "right"
      },
      {
        "midi": 47,
        "time": 312,
        "duration": 0.5,
        "velocity": 0.09,
        "hand": "left"
      },
      {
        "midi": 56,
        "time": 312,
        "duration": 0.25,
        "velocity": 0.93,
        "hand": "left"
      },
      {
        "midi": 65,
        "time": 312.25,
        "duration": 0.25,
        "velocity": 0.93,
        "hand": "right"
      },
      {
        "midi": 62,
        "time": 312.5,
        "duration": 0.5,
        "velocity": 0.09,
        "hand": "right"
      },
      {
        "midi": 64,
        "time": 312.5,
        "duration": 0.25,
        "velocity": 0.93,
        "hand": "right"
      },
      {
        "midi": 68,
        "time": 312.75,
        "duration": 0.25,
        "velocity": 0.93,
        "hand": "right"
      },
      {
        "midi": 74,
        "time": 313,
        "duration": 0.25,
        "velocity": 0.93,
        "hand": "right"
      },
      {
        "midi": 76,
        "time": 313.25,
        "duration": 0.25,
        "velocity": 0.93,
        "hand": "right"
      },
      {
        "midi": 80,
        "time": 313.5,
        "duration": 0.25,
        "velocity": 0.93,
        "hand": "right"
      },
      {
        "midi": 86,
        "time": 313.75,
        "duration": 0.25,
        "velocity": 0.93,
        "hand": "right"
      },
      {
        "midi": 86,
        "time": 314,
        "duration": 0.25,
        "velocity": 0.93,
        "hand": "right"
      },
      {
        "midi": 95,
        "time": 314.25,
        "duration": 0.25,
        "velocity": 0.93,
        "hand": "right"
      },
      {
        "midi": 84,
        "time": 314.75,
        "duration": 0.25,
        "velocity": 0.93,
        "hand": "right"
      },
      {
        "midi": 93,
        "time": 314.75,
        "duration": 0.25,
        "velocity": 0.93,
        "hand": "right"
      },
      {
        "midi": 40,
        "time": 315,
        "duration": 0.5,
        "velocity": 0.09,
        "hand": "left"
      },
      {
        "midi": 84,
        "time": 315,
        "duration": 0.25,
        "velocity": 0.93,
        "hand": "right"
      },
      {
        "midi": 93,
        "time": 315.25,
        "duration": 0.25,
        "velocity": 0.93,
        "hand": "right"
      },
      {
        "midi": 52,
        "time": 315.5,
        "duration": 0.5,
        "velocity": 0.09,
        "hand": "left"
      },
      {
        "midi": 83,
        "time": 315.5,
        "duration": 0.25,
        "velocity": 0.93,
        "hand": "right"
      },
      {
        "midi": 92,
        "time": 315.5,
        "duration": 0.25,
        "velocity": 0.93,
        "hand": "right"
      },
      {
        "midi": 81,
        "time": 315.75,
        "duration": 0.25,
        "velocity": 0.93,
        "hand": "right"
      },
      {
        "midi": 59,
        "time": 316,
        "duration": 0.5,
        "velocity": 0.09,
        "hand": "left"
      },
      {
        "midi": 89,
        "time": 316,
        "duration": 0.25,
        "velocity": 0.93,
        "hand": "right"
      },
      {
        "midi": 80,
        "time": 316.25,
        "duration": 0.25,
        "velocity": 0.93,
        "hand": "right"
      },
      {
        "midi": 88,
        "time": 316.25,
        "duration": 0.25,
        "velocity": 0.93,
        "hand": "right"
      },
      {
        "midi": 62,
        "time": 316.5,
        "duration": 0.5,
        "velocity": 0.09,
        "hand": "right"
      },
      {
        "midi": 77,
        "time": 316.5,
        "duration": 0.25,
        "velocity": 0.93,
        "hand": "right"
      },
      {
        "midi": 86,
        "time": 316.75,
        "duration": 0.25,
        "velocity": 0.93,
        "hand": "right"
      },
      {
        "midi": 68,
        "time": 317,
        "duration": 0.5,
        "velocity": 0.09,
        "hand": "right"
      },
      {
        "midi": 76,
        "time": 317,
        "duration": 0.25,
        "velocity": 0.93,
        "hand": "right"
      },
      {
        "midi": 84,
        "time": 317,
        "duration": 0.25,
        "velocity": 0.93,
        "hand": "right"
      },
      {
        "midi": 74,
        "time": 317.25,
        "duration": 0.25,
        "velocity": 0.93,
        "hand": "right"
      },
      {
        "midi": 83,
        "time": 317.25,
        "duration": 0.25,
        "velocity": 0.93,
        "hand": "right"
      },
      {
        "midi": 77,
        "time": 317.5,
        "duration": 0.25,
        "velocity": 0.93,
        "hand": "right"
      },
      {
        "midi": 86,
        "time": 317.5,
        "duration": 0.25,
        "velocity": 0.93,
        "hand": "right"
      },
      {
        "midi": 76,
        "time": 317.75,
        "duration": 0.25,
        "velocity": 0.93,
        "hand": "right"
      },
      {
        "midi": 84,
        "time": 317.75,
        "duration": 0.25,
        "velocity": 0.93,
        "hand": "right"
      },
      {
        "midi": 33,
        "time": 318,
        "duration": 0.5,
        "velocity": 0.09,
        "hand": "left"
      },
      {
        "midi": 74,
        "time": 318,
        "duration": 0.25,
        "velocity": 0.93,
        "hand": "right"
      },
      {
        "midi": 83,
        "time": 318.25,
        "duration": 0.25,
        "velocity": 0.93,
        "hand": "right"
      },
      {
        "midi": 45,
        "time": 318.5,
        "duration": 0.25,
        "velocity": 0.09,
        "hand": "left"
      },
      {
        "midi": 76,
        "time": 318.5,
        "duration": 0.25,
        "velocity": 0.93,
        "hand": "right"
      },
      {
        "midi": 84,
        "time": 318.5,
        "duration": 0.25,
        "velocity": 0.93,
        "hand": "right"
      },
      {
        "midi": 52,
        "time": 318.75,
        "duration": 0.25,
        "velocity": 0.09,
        "hand": "left"
      },
      {
        "midi": 71,
        "time": 318.75,
        "duration": 0.25,
        "velocity": 0.93,
        "hand": "right"
      },
      {
        "midi": 80,
        "time": 318.75,
        "duration": 0.25,
        "velocity": 0.93,
        "hand": "right"
      },
      {
        "midi": 57,
        "time": 319,
        "duration": 0.25,
        "velocity": 0.09,
        "hand": "left"
      },
      {
        "midi": 74,
        "time": 319,
        "duration": 0.25,
        "velocity": 0.93,
        "hand": "right"
      },
      {
        "midi": 83,
        "time": 319,
        "duration": 0.25,
        "velocity": 0.93,
        "hand": "right"
      },
      {
        "midi": 64,
        "time": 319.25,
        "duration": 0.25,
        "velocity": 0.09,
        "hand": "right"
      },
      {
        "midi": 72,
        "time": 319.25,
        "duration": 0.5,
        "velocity": 0.93,
        "hand": "right"
      },
      {
        "midi": 81,
        "time": 319.25,
        "duration": 0.5,
        "velocity": 0.93,
        "hand": "right"
      },
      {
        "midi": 69,
        "time": 319.5,
        "duration": 0.5,
        "velocity": 0.09,
        "hand": "right"
      },
      {
        "midi": 72,
        "time": 319.75,
        "duration": 0.5,
        "velocity": 0.93,
        "hand": "right"
      },
      {
        "midi": 81,
        "time": 319.75,
        "duration": 0.5,
        "velocity": 0.93,
        "hand": "right"
      },
      {
        "midi": 64,
        "time": 320,
        "duration": 0.5,
        "velocity": 0.71,
        "hand": "right"
      },
      {
        "midi": 72,
        "time": 320.25,
        "duration": 0.5,
        "velocity": 0.93,
        "hand": "right"
      },
      {
        "midi": 81,
        "time": 320.25,
        "duration": 0.5,
        "velocity": 0.93,
        "hand": "right"
      },
      {
        "midi": 63,
        "time": 320.5,
        "duration": 0.5,
        "velocity": 0.71,
        "hand": "right"
      },
      {
        "midi": 72,
        "time": 320.75,
        "duration": 0.5,
        "velocity": 0.93,
        "hand": "right"
      },
      {
        "midi": 81,
        "time": 320.75,
        "duration": 0.5,
        "velocity": 0.93,
        "hand": "right"
      },
      {
        "midi": 62,
        "time": 321,
        "duration": 3,
        "velocity": 0.71,
        "hand": "right"
      },
      {
        "midi": 74,
        "time": 321.25,
        "duration": 0.5,
        "velocity": 0.93,
        "hand": "right"
      },
      {
        "midi": 82,
        "time": 321.25,
        "duration": 0.5,
        "velocity": 0.93,
        "hand": "right"
      },
      {
        "midi": 72,
        "time": 321.75,
        "duration": 0.5,
        "velocity": 0.93,
        "hand": "right"
      },
      {
        "midi": 81,
        "time": 321.75,
        "duration": 0.5,
        "velocity": 0.93,
        "hand": "right"
      },
      {
        "midi": 54,
        "time": 322,
        "duration": 0.5,
        "velocity": 0.71,
        "hand": "left"
      },
      {
        "midi": 75,
        "time": 322.25,
        "duration": 0.5,
        "velocity": 0.93,
        "hand": "right"
      },
      {
        "midi": 84,
        "time": 322.25,
        "duration": 0.5,
        "velocity": 0.93,
        "hand": "right"
      },
      {
        "midi": 55,
        "time": 322.5,
        "duration": 0.5,
        "velocity": 0.71,
        "hand": "left"
      },
      {
        "midi": 74,
        "time": 322.75,
        "duration": 0.5,
        "velocity": 0.93,
        "hand": "right"
      },
      {
        "midi": 82,
        "time": 322.75,
        "duration": 0.5,
        "velocity": 0.93,
        "hand": "right"
      },
      {
        "midi": 57,
        "time": 323,
        "duration": 0.5,
        "velocity": 0.71,
        "hand": "left"
      },
      {
        "midi": 72,
        "time": 323.25,
        "duration": 0.25,
        "velocity": 0.93,
        "hand": "right"
      },
      {
        "midi": 78,
        "time": 323.25,
        "duration": 0.25,
        "velocity": 0.93,
        "hand": "right"
      },
      {
        "midi": 58,
        "time": 323.5,
        "duration": 0.25,
        "velocity": 0.71,
        "hand": "left"
      },
      {
        "midi": 70,
        "time": 323.5,
        "duration": 0.25,
        "velocity": 0.93,
        "hand": "right"
      },
      {
        "midi": 79,
        "time": 323.5,
        "duration": 0.25,
        "velocity": 0.93,
        "hand": "right"
      },
      {
        "midi": 50,
        "time": 323.75,
        "duration": 0.25,
        "velocity": 0.71,
        "hand": "left"
      },
      {
        "midi": 74,
        "time": 323.75,
        "duration": 0.5,
        "velocity": 0.93,
        "hand": "right"
      },
      {
        "midi": 82,
        "time": 323.75,
        "duration": 0.5,
        "velocity": 0.93,
        "hand": "right"
      },
      {
        "midi": 38,
        "time": 324,
        "duration": 0.5,
        "velocity": 0.71,
        "hand": "left"
      },
      {
        "midi": 72,
        "time": 324.25,
        "duration": 0.5,
        "velocity": 0.93,
        "hand": "right"
      },
      {
        "midi": 81,
        "time": 324.25,
        "duration": 0.5,
        "velocity": 0.93,
        "hand": "right"
      },
      {
        "midi": 62,
        "time": 324.5,
        "duration": 1.5,
        "velocity": 0.71,
        "hand": "right"
      },
      {
        "midi": 74,
        "time": 324.75,
        "duration": 0.25,
        "velocity": 0.93,
        "hand": "right"
      },
      {
        "midi": 82,
        "time": 324.75,
        "duration": 0.25,
        "velocity": 0.93,
        "hand": "right"
      },
      {
        "midi": 60,
        "time": 325,
        "duration": 0.5,
        "velocity": 0.71,
        "hand": "right"
      },
      {
        "midi": 69,
        "time": 325,
        "duration": 0.25,
        "velocity": 0.93,
        "hand": "right"
      },
      {
        "midi": 78,
        "time": 325,
        "duration": 0.25,
        "velocity": 0.93,
        "hand": "right"
      },
      {
        "midi": 72,
        "time": 325.25,
        "duration": 0.5,
        "velocity": 0.93,
        "hand": "right"
      },
      {
        "midi": 81,
        "time": 325.25,
        "duration": 0.5,
        "velocity": 0.93,
        "hand": "right"
      },
      {
        "midi": 55,
        "time": 325.5,
        "duration": 0.5,
        "velocity": 0.71,
        "hand": "left"
      },
      {
        "midi": 70,
        "time": 325.75,
        "duration": 0.25,
        "velocity": 0.93,
        "hand": "right"
      },
      {
        "midi": 79,
        "time": 325.75,
        "duration": 0.25,
        "velocity": 0.93,
        "hand": "right"
      },
      {
        "midi": 62,
        "time": 326,
        "duration": 0.5,
        "velocity": 0.71,
        "hand": "right"
      },
      {
        "midi": 79,
        "time": 326,
        "duration": 0.25,
        "velocity": 0.93,
        "hand": "right"
      },
      {
        "midi": 81,
        "time": 326,
        "duration": 0.25,
        "velocity": 0.93,
        "hand": "right"
      },
      {
        "midi": 69,
        "time": 326.25,
        "duration": 0.5,
        "velocity": 0.93,
        "hand": "right"
      },
      {
        "midi": 78,
        "time": 326.25,
        "duration": 0.5,
        "velocity": 0.93,
        "hand": "right"
      },
      {
        "midi": 61,
        "time": 326.5,
        "duration": 0.5,
        "velocity": 0.82,
        "hand": "right"
      },
      {
        "midi": 70,
        "time": 326.75,
        "duration": 0.5,
        "velocity": 0.93,
        "hand": "right"
      },
      {
        "midi": 79,
        "time": 326.75,
        "duration": 0.5,
        "velocity": 0.93,
        "hand": "right"
      },
      {
        "midi": 60,
        "time": 327,
        "duration": 3,
        "velocity": 0.93,
        "hand": "right"
      },
      {
        "midi": 72,
        "time": 327.25,
        "duration": 0.5,
        "velocity": 0.93,
        "hand": "right"
      },
      {
        "midi": 80,
        "time": 327.25,
        "duration": 0.5,
        "velocity": 0.93,
        "hand": "right"
      },
      {
        "midi": 70,
        "time": 327.75,
        "duration": 0.5,
        "velocity": 0.93,
        "hand": "right"
      },
      {
        "midi": 79,
        "time": 327.75,
        "duration": 0.5,
        "velocity": 0.93,
        "hand": "right"
      },
      {
        "midi": 52,
        "time": 328,
        "duration": 0.5,
        "velocity": 0.93,
        "hand": "left"
      },
      {
        "midi": 73,
        "time": 328.25,
        "duration": 0.5,
        "velocity": 0.93,
        "hand": "right"
      },
      {
        "midi": 82,
        "time": 328.25,
        "duration": 0.5,
        "velocity": 0.93,
        "hand": "right"
      },
      {
        "midi": 53,
        "time": 328.5,
        "duration": 0.5,
        "velocity": 0.93,
        "hand": "left"
      },
      {
        "midi": 72,
        "time": 328.75,
        "duration": 0.5,
        "velocity": 0.93,
        "hand": "right"
      },
      {
        "midi": 80,
        "time": 328.75,
        "duration": 0.5,
        "velocity": 0.93,
        "hand": "right"
      },
      {
        "midi": 55,
        "time": 329,
        "duration": 0.5,
        "velocity": 0.93,
        "hand": "left"
      },
      {
        "midi": 70,
        "time": 329.25,
        "duration": 0.25,
        "velocity": 0.93,
        "hand": "right"
      },
      {
        "midi": 76,
        "time": 329.25,
        "duration": 0.25,
        "velocity": 0.93,
        "hand": "right"
      },
      {
        "midi": 56,
        "time": 329.5,
        "duration": 0.25,
        "velocity": 0.93,
        "hand": "left"
      },
      {
        "midi": 68,
        "time": 329.5,
        "duration": 0.25,
        "velocity": 0.93,
        "hand": "right"
      },
      {
        "midi": 77,
        "time": 329.5,
        "duration": 0.25,
        "velocity": 0.93,
        "hand": "right"
      },
      {
        "midi": 48,
        "time": 329.75,
        "duration": 0.25,
        "velocity": 0.93,
        "hand": "left"
      },
      {
        "midi": 72,
        "time": 329.75,
        "duration": 0.5,
        "velocity": 0.93,
        "hand": "right"
      },
      {
        "midi": 80,
        "time": 329.75,
        "duration": 0.5,
        "velocity": 0.93,
        "hand": "right"
      },
      {
        "midi": 36,
        "time": 330,
        "duration": 0.5,
        "velocity": 0.93,
        "hand": "left"
      },
      {
        "midi": 70,
        "time": 330.25,
        "duration": 0.5,
        "velocity": 0.93,
        "hand": "right"
      },
      {
        "midi": 79,
        "time": 330.25,
        "duration": 0.5,
        "velocity": 0.93,
        "hand": "right"
      },
      {
        "midi": 60,
        "time": 330.5,
        "duration": 1.5,
        "velocity": 0.71,
        "hand": "right"
      },
      {
        "midi": 72,
        "time": 330.75,
        "duration": 0.25,
        "velocity": 0.93,
        "hand": "right"
      },
      {
        "midi": 80,
        "time": 330.75,
        "duration": 0.25,
        "velocity": 0.93,
        "hand": "right"
      },
      {
        "midi": 58,
        "time": 331,
        "duration": 0.5,
        "velocity": 0.93,
        "hand": "left"
      },
      {
        "midi": 67,
        "time": 331,
        "duration": 0.25,
        "velocity": 0.93,
        "hand": "right"
      },
      {
        "midi": 76,
        "time": 331,
        "duration": 0.25,
        "velocity": 0.93,
        "hand": "right"
      },
      {
        "midi": 70,
        "time": 331.25,
        "duration": 0.25,
        "velocity": 0.93,
        "hand": "right"
      },
      {
        "midi": 79,
        "time": 331.25,
        "duration": 0.25,
        "velocity": 0.93,
        "hand": "right"
      },
      {
        "midi": 53,
        "time": 331.5,
        "duration": 0.5,
        "velocity": 0.93,
        "hand": "left"
      },
      {
        "midi": 70,
        "time": 331.5,
        "duration": 0.25,
        "velocity": 0.93,
        "hand": "right"
      },
      {
        "midi": 79,
        "time": 331.5,
        "duration": 0.25,
        "velocity": 0.93,
        "hand": "right"
      },
      {
        "midi": 68,
        "time": 331.75,
        "duration": 0.25,
        "velocity": 0.93,
        "hand": "right"
      },
      {
        "midi": 77,
        "time": 331.75,
        "duration": 0.25,
        "velocity": 0.93,
        "hand": "right"
      },
      {
        "midi": 60,
        "time": 332,
        "duration": 0.5,
        "velocity": 0.93,
        "hand": "right"
      },
      {
        "midi": 77,
        "time": 332,
        "duration": 0.25,
        "velocity": 0.93,
        "hand": "right"
      },
      {
        "midi": 79,
        "time": 332,
        "duration": 0.25,
        "velocity": 0.93,
        "hand": "right"
      },
      {
        "midi": 67,
        "time": 332.25,
        "duration": 0.5,
        "velocity": 0.93,
        "hand": "right"
      },
      {
        "midi": 76,
        "time": 332.25,
        "duration": 0.5,
        "velocity": 0.93,
        "hand": "right"
      },
      {
        "midi": 56,
        "time": 332.5,
        "duration": 0.5,
        "velocity": 0.93,
        "hand": "left"
      },
      {
        "midi": 65,
        "time": 332.5,
        "duration": 0.5,
        "velocity": 0.93,
        "hand": "right"
      },
      {
        "midi": 68,
        "time": 332.75,
        "duration": 0.25,
        "velocity": 0.93,
        "hand": "right"
      },
      {
        "midi": 77,
        "time": 332.75,
        "duration": 0.25,
        "velocity": 0.93,
        "hand": "right"
      },
      {
        "midi": 44,
        "time": 333,
        "duration": 0.5,
        "velocity": 0.09,
        "hand": "left"
      },
      {
        "midi": 68,
        "time": 333,
        "duration": 0.25,
        "velocity": 0.93,
        "hand": "right"
      },
      {
        "midi": 77,
        "time": 333,
        "duration": 0.25,
        "velocity": 0.93,
        "hand": "right"
      },
      {
        "midi": 70,
        "time": 333.25,
        "duration": 0.5,
        "velocity": 0.93,
        "hand": "right"
      },
      {
        "midi": 78,
        "time": 333.25,
        "duration": 0.5,
        "velocity": 0.93,
        "hand": "right"
      },
      {
        "midi": 56,
        "time": 333.5,
        "duration": 0.5,
        "velocity": 0.09,
        "hand": "left"
      },
      {
        "midi": 68,
        "time": 333.75,
        "duration": 0.25,
        "velocity": 0.93,
        "hand": "right"
      },
      {
        "midi": 77,
        "time": 333.75,
        "duration": 0.25,
        "velocity": 0.93,
        "hand": "right"
      },
      {
        "midi": 48,
        "time": 334,
        "duration": 0.5,
        "velocity": 0.09,
        "hand": "left"
      },
      {
        "midi": 66,
        "time": 334,
        "duration": 0.25,
        "velocity": 0.93,
        "hand": "right"
      },
      {
        "midi": 75,
        "time": 334,
        "duration": 0.25,
        "velocity": 0.93,
        "hand": "right"
      },
      {
        "midi": 70,
        "time": 334.25,
        "duration": 0.25,
        "velocity": 0.93,
        "hand": "right"
      },
      {
        "midi": 78,
        "time": 334.25,
        "duration": 0.25,
        "velocity": 0.93,
        "hand": "right"
      },
      {
        "midi": 49,
        "time": 334.5,
        "duration": 0.5,
        "velocity": 0.09,
        "hand": "left"
      },
      {
        "midi": 68,
        "time": 334.5,
        "duration": 0.25,
        "velocity": 0.93,
        "hand": "right"
      },
      {
        "midi": 77,
        "time": 334.5,
        "duration": 0.25,
        "velocity": 0.93,
        "hand": "right"
      },
      {
        "midi": 70,
        "time": 334.75,
        "duration": 0.25,
        "velocity": 0.93,
        "hand": "right"
      },
      {
        "midi": 78,
        "time": 334.75,
        "duration": 0.25,
        "velocity": 0.93,
        "hand": "right"
      },
      {
        "midi": 56,
        "time": 335,
        "duration": 0.5,
        "velocity": 0.09,
        "hand": "left"
      },
      {
        "midi": 68,
        "time": 335,
        "duration": 0.25,
        "velocity": 0.93,
        "hand": "right"
      },
      {
        "midi": 77,
        "time": 335,
        "duration": 0.25,
        "velocity": 0.93,
        "hand": "right"
      },
      {
        "midi": 66,
        "time": 335.25,
        "duration": 0.25,
        "velocity": 0.93,
        "hand": "right"
      },
      {
        "midi": 72,
        "time": 335.25,
        "duration": 0.25,
        "velocity": 0.93,
        "hand": "right"
      },
      {
        "midi": 55,
        "time": 335.5,
        "duration": 0.25,
        "velocity": 0.09,
        "hand": "left"
      },
      {
        "midi": 61,
        "time": 335.5,
        "duration": 0.5,
        "velocity": 0.09,
        "hand": "right"
      },
      {
        "midi": 73,
        "time": 335.5,
        "duration": 0.25,
        "velocity": 0.93,
        "hand": "right"
      },
      {
        "midi": 68,
        "time": 335.75,
        "duration": 0.25,
        "velocity": 0.93,
        "hand": "right"
      },
      {
        "midi": 77,
        "time": 335.75,
        "duration": 0.25,
        "velocity": 0.93,
        "hand": "right"
      },
      {
        "midi": 39,
        "time": 336,
        "duration": 0.5,
        "velocity": 0.09,
        "hand": "left"
      },
      {
        "midi": 67,
        "time": 336,
        "duration": 0.25,
        "velocity": 0.93,
        "hand": "right"
      },
      {
        "midi": 75,
        "time": 336,
        "duration": 0.25,
        "velocity": 0.93,
        "hand": "right"
      },
      {
        "midi": 68,
        "time": 336.25,
        "duration": 0.25,
        "velocity": 0.93,
        "hand": "right"
      },
      {
        "midi": 77,
        "time": 336.25,
        "duration": 0.25,
        "velocity": 0.93,
        "hand": "right"
      },
      {
        "midi": 51,
        "time": 336.5,
        "duration": 0.5,
        "velocity": 0.09,
        "hand": "left"
      },
      {
        "midi": 67,
        "time": 336.5,
        "duration": 0.25,
        "velocity": 0.93,
        "hand": "right"
      },
      {
        "midi": 75,
        "time": 336.5,
        "duration": 0.25,
        "velocity": 0.93,
        "hand": "right"
      },
      {
        "midi": 77,
        "time": 336.75,
        "duration": 0.25,
        "velocity": 0.93,
        "hand": "right"
      },
      {
        "midi": 55,
        "time": 337,
        "duration": 0.5,
        "velocity": 0.09,
        "hand": "left"
      },
      {
        "midi": 65,
        "time": 337,
        "duration": 0.25,
        "velocity": 0.93,
        "hand": "right"
      },
      {
        "midi": 73,
        "time": 337,
        "duration": 0.25,
        "velocity": 0.93,
        "hand": "right"
      },
      {
        "midi": 75,
        "time": 337.25,
        "duration": 0.25,
        "velocity": 0.93,
        "hand": "right"
      },
      {
        "midi": 44,
        "time": 337.5,
        "duration": 0.5,
        "velocity": 0.09,
        "hand": "left"
      },
      {
        "midi": 63,
        "time": 337.5,
        "duration": 0.25,
        "velocity": 0.93,
        "hand": "right"
      },
      {
        "midi": 72,
        "time": 337.5,
        "duration": 0.25,
        "velocity": 0.93,
        "hand": "right"
      },
      {
        "midi": 73,
        "time": 337.75,
        "duration": 0.25,
        "velocity": 0.93,
        "hand": "right"
      },
      {
        "midi": 51,
        "time": 338,
        "duration": 0.5,
        "velocity": 0.09,
        "hand": "left"
      },
      {
        "midi": 61,
        "time": 338,
        "duration": 0.25,
        "velocity": 0.93,
        "hand": "right"
      },
      {
        "midi": 70,
        "time": 338,
        "duration": 0.25,
        "velocity": 0.93,
        "hand": "right"
      },
      {
        "midi": 72,
        "time": 338.25,
        "duration": 0.25,
        "velocity": 0.93,
        "hand": "right"
      },
      {
        "midi": 56,
        "time": 338.5,
        "duration": 0.25,
        "velocity": 0.09,
        "hand": "left"
      },
      {
        "midi": 63,
        "time": 338.5,
        "duration": 0.25,
        "velocity": 0.09,
        "hand": "right"
      },
      {
        "midi": 68,
        "time": 338.5,
        "duration": 0.25,
        "velocity": 0.93,
        "hand": "right"
      },
      {
        "midi": 44,
        "time": 339,
        "duration": 0.5,
        "velocity": 0.09,
        "hand": "left"
      },
      {
        "midi": 80,
        "time": 339,
        "duration": 0.25,
        "velocity": 0.93,
        "hand": "right"
      },
      {
        "midi": 89,
        "time": 339,
        "duration": 0.25,
        "velocity": 0.93,
        "hand": "right"
      },
      {
        "midi": 82,
        "time": 339.25,
        "duration": 0.5,
        "velocity": 0.93,
        "hand": "right"
      },
      {
        "midi": 90,
        "time": 339.25,
        "duration": 0.5,
        "velocity": 0.93,
        "hand": "right"
      },
      {
        "midi": 68,
        "time": 339.5,
        "duration": 0.5,
        "velocity": 0.09,
        "hand": "right"
      },
      {
        "midi": 80,
        "time": 339.75,
        "duration": 0.25,
        "velocity": 0.93,
        "hand": "right"
      },
      {
        "midi": 89,
        "time": 339.75,
        "duration": 0.25,
        "velocity": 0.93,
        "hand": "right"
      },
      {
        "midi": 60,
        "time": 340,
        "duration": 0.5,
        "velocity": 0.09,
        "hand": "right"
      },
      {
        "midi": 78,
        "time": 340,
        "duration": 0.25,
        "velocity": 0.93,
        "hand": "right"
      },
      {
        "midi": 87,
        "time": 340,
        "duration": 0.25,
        "velocity": 0.93,
        "hand": "right"
      },
      {
        "midi": 82,
        "time": 340.25,
        "duration": 0.25,
        "velocity": 0.93,
        "hand": "right"
      },
      {
        "midi": 90,
        "time": 340.25,
        "duration": 0.25,
        "velocity": 0.93,
        "hand": "right"
      },
      {
        "midi": 61,
        "time": 340.5,
        "duration": 0.5,
        "velocity": 0.09,
        "hand": "right"
      },
      {
        "midi": 80,
        "time": 340.5,
        "duration": 0.25,
        "velocity": 0.93,
        "hand": "right"
      },
      {
        "midi": 89,
        "time": 340.5,
        "duration": 0.25,
        "velocity": 0.93,
        "hand": "right"
      },
      {
        "midi": 82,
        "time": 340.75,
        "duration": 0.25,
        "velocity": 0.93,
        "hand": "right"
      },
      {
        "midi": 90,
        "time": 340.75,
        "duration": 0.25,
        "velocity": 0.93,
        "hand": "right"
      },
      {
        "midi": 68,
        "time": 341,
        "duration": 0.5,
        "velocity": 0.09,
        "hand": "right"
      },
      {
        "midi": 80,
        "time": 341,
        "duration": 0.25,
        "velocity": 0.93,
        "hand": "right"
      },
      {
        "midi": 89,
        "time": 341,
        "duration": 0.25,
        "velocity": 0.93,
        "hand": "right"
      },
      {
        "midi": 78,
        "time": 341.25,
        "duration": 0.25,
        "velocity": 0.93,
        "hand": "right"
      },
      {
        "midi": 84,
        "time": 341.25,
        "duration": 0.25,
        "velocity": 0.93,
        "hand": "right"
      },
      {
        "midi": 67,
        "time": 341.5,
        "duration": 0.25,
        "velocity": 0.09,
        "hand": "right"
      },
      {
        "midi": 73,
        "time": 341.5,
        "duration": 0.5,
        "velocity": 0.09,
        "hand": "right"
      },
      {
        "midi": 85,
        "time": 341.5,
        "duration": 0.25,
        "velocity": 0.93,
        "hand": "right"
      },
      {
        "midi": 80,
        "time": 341.75,
        "duration": 0.25,
        "velocity": 0.93,
        "hand": "right"
      },
      {
        "midi": 89,
        "time": 341.75,
        "duration": 0.25,
        "velocity": 0.93,
        "hand": "right"
      },
      {
        "midi": 51,
        "time": 342,
        "duration": 0.5,
        "velocity": 0.09,
        "hand": "left"
      },
      {
        "midi": 79,
        "time": 342,
        "duration": 0.25,
        "velocity": 0.93,
        "hand": "right"
      },
      {
        "midi": 87,
        "time": 342,
        "duration": 0.25,
        "velocity": 0.93,
        "hand": "right"
      },
      {
        "midi": 80,
        "time": 342.25,
        "duration": 0.25,
        "velocity": 0.93,
        "hand": "right"
      },
      {
        "midi": 89,
        "time": 342.25,
        "duration": 0.25,
        "velocity": 0.93,
        "hand": "right"
      },
      {
        "midi": 63,
        "time": 342.5,
        "duration": 0.5,
        "velocity": 0.09,
        "hand": "right"
      },
      {
        "midi": 79,
        "time": 342.5,
        "duration": 0.25,
        "velocity": 0.93,
        "hand": "right"
      },
      {
        "midi": 87,
        "time": 342.5,
        "duration": 0.25,
        "velocity": 0.93,
        "hand": "right"
      },
      {
        "midi": 89,
        "time": 342.75,
        "duration": 0.25,
        "velocity": 0.93,
        "hand": "right"
      },
      {
        "midi": 67,
        "time": 343,
        "duration": 0.5,
        "velocity": 0.09,
        "hand": "right"
      },
      {
        "midi": 77,
        "time": 343,
        "duration": 0.25,
        "velocity": 0.93,
        "hand": "right"
      },
      {
        "midi": 85,
        "time": 343,
        "duration": 0.25,
        "velocity": 0.93,
        "hand": "right"
      },
      {
        "midi": 87,
        "time": 343.25,
        "duration": 0.25,
        "velocity": 0.93,
        "hand": "right"
      },
      {
        "midi": 56,
        "time": 343.5,
        "duration": 0.5,
        "velocity": 0.09,
        "hand": "left"
      },
      {
        "midi": 75,
        "time": 343.5,
        "duration": 0.25,
        "velocity": 0.93,
        "hand": "right"
      },
      {
        "midi": 84,
        "time": 343.5,
        "duration": 0.25,
        "velocity": 0.93,
        "hand": "right"
      },
      {
        "midi": 85,
        "time": 343.75,
        "duration": 0.25,
        "velocity": 0.93,
        "hand": "right"
      },
      {
        "midi": 63,
        "time": 344,
        "duration": 0.5,
        "velocity": 0.09,
        "hand": "right"
      },
      {
        "midi": 73,
        "time": 344,
        "duration": 0.25,
        "velocity": 0.93,
        "hand": "right"
      },
      {
        "midi": 82,
        "time": 344,
        "duration": 0.25,
        "velocity": 0.93,
        "hand": "right"
      },
      {
        "midi": 84,
        "time": 344.25,
        "duration": 0.25,
        "velocity": 0.93,
        "hand": "right"
      },
      {
        "midi": 68,
        "time": 344.5,
        "duration": 0.5,
        "velocity": 0.09,
        "hand": "right"
      },
      {
        "midi": 75,
        "time": 344.5,
        "duration": 0.5,
        "velocity": 0.09,
        "hand": "right"
      },
      {
        "midi": 80,
        "time": 344.5,
        "duration": 0.25,
        "velocity": 0.93,
        "hand": "right"
      },
      {
        "midi": 89,
        "time": 344.75,
        "duration": 0.25,
        "velocity": 0.93,
        "hand": "right"
      },
      {
        "midi": 51,
        "time": 345,
        "duration": 0.5,
        "velocity": 0.09,
        "hand": "left"
      },
      {
        "midi": 79,
        "time": 345,
        "duration": 0.25,
        "velocity": 0.93,
        "hand": "right"
      },
      {
        "midi": 87,
        "time": 345,
        "duration": 0.25,
        "velocity": 0.93,
        "hand": "right"
      },
      {
        "midi": 89,
        "time": 345.25,
        "duration": 0.25,
        "velocity": 0.93,
        "hand": "right"
      },
      {
        "midi": 63,
        "time": 345.5,
        "duration": 0.5,
        "velocity": 0.09,
        "hand": "right"
      },
      {
        "midi": 79,
        "time": 345.5,
        "duration": 0.25,
        "velocity": 0.93,
        "hand": "right"
      },
      {
        "midi": 87,
        "time": 345.5,
        "duration": 0.25,
        "velocity": 0.93,
        "hand": "right"
      },
      {
        "midi": 89,
        "time": 345.75,
        "duration": 0.25,
        "velocity": 0.93,
        "hand": "right"
      },
      {
        "midi": 67,
        "time": 346,
        "duration": 0.5,
        "velocity": 0.09,
        "hand": "right"
      },
      {
        "midi": 77,
        "time": 346,
        "duration": 0.25,
        "velocity": 0.93,
        "hand": "right"
      },
      {
        "midi": 85,
        "time": 346,
        "duration": 0.25,
        "velocity": 0.93,
        "hand": "right"
      },
      {
        "midi": 87,
        "time": 346.25,
        "duration": 0.25,
        "velocity": 0.93,
        "hand": "right"
      },
      {
        "midi": 56,
        "time": 346.5,
        "duration": 0.5,
        "velocity": 0.09,
        "hand": "left"
      },
      {
        "midi": 75,
        "time": 346.5,
        "duration": 0.25,
        "velocity": 0.93,
        "hand": "right"
      },
      {
        "midi": 84,
        "time": 346.5,
        "duration": 0.25,
        "velocity": 0.93,
        "hand": "right"
      },
      {
        "midi": 85,
        "time": 346.75,
        "duration": 0.25,
        "velocity": 0.93,
        "hand": "right"
      },
      {
        "midi": 63,
        "time": 347,
        "duration": 0.5,
        "velocity": 0.09,
        "hand": "right"
      },
      {
        "midi": 73,
        "time": 347,
        "duration": 0.25,
        "velocity": 0.93,
        "hand": "right"
      },
      {
        "midi": 82,
        "time": 347,
        "duration": 0.25,
        "velocity": 0.93,
        "hand": "right"
      },
      {
        "midi": 84,
        "time": 347.25,
        "duration": 0.25,
        "velocity": 0.93,
        "hand": "right"
      },
      {
        "midi": 68,
        "time": 347.5,
        "duration": 0.25,
        "velocity": 0.09,
        "hand": "right"
      },
      {
        "midi": 75,
        "time": 347.5,
        "duration": 0.25,
        "velocity": 0.09,
        "hand": "right"
      },
      {
        "midi": 80,
        "time": 347.5,
        "duration": 0.25,
        "velocity": 0.93,
        "hand": "right"
      },
      {
        "midi": 39,
        "time": 348,
        "duration": 0.5,
        "velocity": 0.09,
        "hand": "left"
      },
      {
        "midi": 91,
        "time": 348,
        "duration": 0.25,
        "velocity": 0.93,
        "hand": "right"
      },
      {
        "midi": 99,
        "time": 348,
        "duration": 0.25,
        "velocity": 0.93,
        "hand": "right"
      },
      {
        "midi": 101,
        "time": 348.25,
        "duration": 0.25,
        "velocity": 0.93,
        "hand": "right"
      },
      {
        "midi": 51,
        "time": 348.5,
        "duration": 0.5,
        "velocity": 0.09,
        "hand": "left"
      },
      {
        "midi": 91,
        "time": 348.5,
        "duration": 0.25,
        "velocity": 0.93,
        "hand": "right"
      },
      {
        "midi": 99,
        "time": 348.5,
        "duration": 0.25,
        "velocity": 0.93,
        "hand": "right"
      },
      {
        "midi": 101,
        "time": 348.75,
        "duration": 0.25,
        "velocity": 0.93,
        "hand": "right"
      },
      {
        "midi": 55,
        "time": 349,
        "duration": 0.5,
        "velocity": 0.09,
        "hand": "left"
      },
      {
        "midi": 63,
        "time": 349,
        "duration": 0.5,
        "velocity": 0.09,
        "hand": "right"
      },
      {
        "midi": 97,
        "time": 349,
        "duration": 0.25,
        "velocity": 0.93,
        "hand": "right"
      },
      {
        "midi": 99,
        "time": 349.25,
        "duration": 0.25,
        "velocity": 0.93,
        "hand": "right"
      },
      {
        "midi": 58,
        "time": 349.5,
        "duration": 0.5,
        "velocity": 0.09,
        "hand": "left"
      },
      {
        "midi": 67,
        "time": 349.5,
        "duration": 0.5,
        "velocity": 0.09,
        "hand": "right"
      },
      {
        "midi": 96,
        "time": 349.5,
        "duration": 0.25,
        "velocity": 0.93,
        "hand": "right"
      },
      {
        "midi": 97,
        "time": 349.75,
        "duration": 0.25,
        "velocity": 0.93,
        "hand": "right"
      },
      {
        "midi": 63,
        "time": 350,
        "duration": 0.5,
        "velocity": 0.09,
        "hand": "right"
      },
      {
        "midi": 73,
        "time": 350,
        "duration": 0.5,
        "velocity": 0.09,
        "hand": "right"
      },
      {
        "midi": 94,
        "time": 350,
        "duration": 0.25,
        "velocity": 0.93,
        "hand": "right"
      },
      {
        "midi": 96,
        "time": 350.25,
        "duration": 0.25,
        "velocity": 0.93,
        "hand": "right"
      },
      {
        "midi": 67,
        "time": 350.5,
        "duration": 0.5,
        "velocity": 0.09,
        "hand": "right"
      },
      {
        "midi": 75,
        "time": 350.5,
        "duration": 0.5,
        "velocity": 0.09,
        "hand": "right"
      },
      {
        "midi": 92,
        "time": 350.5,
        "duration": 0.25,
        "velocity": 0.93,
        "hand": "right"
      },
      {
        "midi": 94,
        "time": 350.75,
        "duration": 0.25,
        "velocity": 0.93,
        "hand": "right"
      },
      {
        "midi": 73,
        "time": 351,
        "duration": 0.5,
        "velocity": 0.09,
        "hand": "right"
      },
      {
        "midi": 82,
        "time": 351,
        "duration": 0.25,
        "velocity": 0.93,
        "hand": "right"
      },
      {
        "midi": 91,
        "time": 351,
        "duration": 0.25,
        "velocity": 0.93,
        "hand": "right"
      },
      {
        "midi": 92,
        "time": 351.25,
        "duration": 0.25,
        "velocity": 0.93,
        "hand": "right"
      },
      {
        "midi": 80,
        "time": 351.5,
        "duration": 0.25,
        "velocity": 0.93,
        "hand": "right"
      },
      {
        "midi": 89,
        "time": 351.5,
        "duration": 0.25,
        "velocity": 0.93,
        "hand": "right"
      },
      {
        "midi": 91,
        "time": 351.75,
        "duration": 0.25,
        "velocity": 0.93,
        "hand": "right"
      },
      {
        "midi": 79,
        "time": 352,
        "duration": 0.25,
        "velocity": 0.93,
        "hand": "right"
      },
      {
        "midi": 87,
        "time": 352,
        "duration": 0.25,
        "velocity": 0.93,
        "hand": "right"
      },
      {
        "midi": 89,
        "time": 352.25,
        "duration": 0.25,
        "velocity": 0.93,
        "hand": "right"
      },
      {
        "midi": 77,
        "time": 352.5,
        "duration": 0.25,
        "velocity": 0.93,
        "hand": "right"
      },
      {
        "midi": 85,
        "time": 352.5,
        "duration": 0.25,
        "velocity": 0.93,
        "hand": "right"
      },
      {
        "midi": 87,
        "time": 352.75,
        "duration": 0.25,
        "velocity": 0.93,
        "hand": "right"
      },
      {
        "midi": 75,
        "time": 353,
        "duration": 0.25,
        "velocity": 0.93,
        "hand": "right"
      },
      {
        "midi": 84,
        "time": 353,
        "duration": 0.25,
        "velocity": 0.93,
        "hand": "right"
      },
      {
        "midi": 85,
        "time": 353.25,
        "duration": 0.25,
        "velocity": 0.93,
        "hand": "right"
      },
      {
        "midi": 73,
        "time": 353.5,
        "duration": 0.25,
        "velocity": 0.93,
        "hand": "right"
      },
      {
        "midi": 82,
        "time": 353.5,
        "duration": 0.25,
        "velocity": 0.93,
        "hand": "right"
      },
      {
        "midi": 84,
        "time": 353.75,
        "duration": 0.25,
        "velocity": 0.93,
        "hand": "right"
      },
      {
        "midi": 72,
        "time": 354,
        "duration": 0.25,
        "velocity": 0.93,
        "hand": "right"
      },
      {
        "midi": 80,
        "time": 354,
        "duration": 0.25,
        "velocity": 0.93,
        "hand": "right"
      },
      {
        "midi": 82,
        "time": 354.25,
        "duration": 0.25,
        "velocity": 0.93,
        "hand": "right"
      },
      {
        "midi": 61,
        "time": 354.5,
        "duration": 2,
        "velocity": 0.71,
        "hand": "right"
      },
      {
        "midi": 70,
        "time": 354.5,
        "duration": 0.25,
        "velocity": 0.93,
        "hand": "right"
      },
      {
        "midi": 79,
        "time": 354.5,
        "duration": 0.25,
        "velocity": 0.93,
        "hand": "right"
      },
      {
        "midi": 80,
        "time": 354.75,
        "duration": 0.25,
        "velocity": 0.93,
        "hand": "right"
      },
      {
        "midi": 68,
        "time": 355,
        "duration": 0.25,
        "velocity": 0.93,
        "hand": "right"
      },
      {
        "midi": 77,
        "time": 355,
        "duration": 0.25,
        "velocity": 0.93,
        "hand": "right"
      },
      {
        "midi": 79,
        "time": 355.25,
        "duration": 0.25,
        "velocity": 0.93,
        "hand": "right"
      },
      {
        "midi": 67,
        "time": 355.5,
        "duration": 0.25,
        "velocity": 0.93,
        "hand": "right"
      },
      {
        "midi": 75,
        "time": 355.5,
        "duration": 0.25,
        "velocity": 0.93,
        "hand": "right"
      },
      {
        "midi": 77,
        "time": 355.75,
        "duration": 0.25,
        "velocity": 0.93,
        "hand": "right"
      },
      {
        "midi": 65,
        "time": 356,
        "duration": 0.25,
        "velocity": 0.93,
        "hand": "right"
      },
      {
        "midi": 73,
        "time": 356,
        "duration": 0.25,
        "velocity": 0.93,
        "hand": "right"
      },
      {
        "midi": 75,
        "time": 356.25,
        "duration": 0.25,
        "velocity": 0.93,
        "hand": "right"
      },
      {
        "midi": 51,
        "time": 356.5,
        "duration": 1,
        "velocity": 0.71,
        "hand": "left"
      },
      {
        "midi": 63,
        "time": 356.5,
        "duration": 0.25,
        "velocity": 0.93,
        "hand": "right"
      },
      {
        "midi": 72,
        "time": 356.5,
        "duration": 0.25,
        "velocity": 0.93,
        "hand": "right"
      },
      {
        "midi": 73,
        "time": 356.75,
        "duration": 0.25,
        "velocity": 0.93,
        "hand": "right"
      },
      {
        "midi": 44,
        "time": 357,
        "duration": 3,
        "velocity": 0.71,
        "hand": "left"
      },
      {
        "midi": 61,
        "time": 357,
        "duration": 3,
        "velocity": 0.71,
        "hand": "right"
      },
      {
        "midi": 70,
        "time": 357,
        "duration": 1.5,
        "velocity": 0.71,
        "hand": "right"
      },
      {
        "midi": 52,
        "time": 357.5,
        "duration": 0.5,
        "velocity": 0.71,
        "hand": "left"
      },
      {
        "midi": 53,
        "time": 358,
        "duration": 0.5,
        "velocity": 0.71,
        "hand": "left"
      },
      {
        "midi": 54,
        "time": 358.5,
        "duration": 0.5,
        "velocity": 0.71,
        "hand": "left"
      },
      {
        "midi": 69,
        "time": 358.5,
        "duration": 0.25,
        "velocity": 0.71,
        "hand": "right"
      },
      {
        "midi": 70,
        "time": 358.75,
        "duration": 0.25,
        "velocity": 0.71,
        "hand": "right"
      },
      {
        "midi": 55,
        "time": 359,
        "duration": 0.5,
        "velocity": 0.71,
        "hand": "left"
      },
      {
        "midi": 72,
        "time": 359,
        "duration": 0.25,
        "velocity": 0.71,
        "hand": "right"
      },
      {
        "midi": 70,
        "time": 359.25,
        "duration": 0.25,
        "velocity": 0.71,
        "hand": "right"
      },
      {
        "midi": 51,
        "time": 359.5,
        "duration": 0.5,
        "velocity": 0.71,
        "hand": "left"
      },
      {
        "midi": 73,
        "time": 359.5,
        "duration": 0.25,
        "velocity": 0.71,
        "hand": "right"
      },
      {
        "midi": 67,
        "time": 359.75,
        "duration": 0.25,
        "velocity": 0.71,
        "hand": "right"
      },
      {
        "midi": 44,
        "time": 360,
        "duration": 1.5,
        "velocity": 0.71,
        "hand": "left"
      },
      {
        "midi": 60,
        "time": 360,
        "duration": 0.25,
        "velocity": 0.71,
        "hand": "right"
      },
      {
        "midi": 68,
        "time": 360,
        "duration": 2,
        "velocity": 0.71,
        "hand": "right"
      },
      {
        "midi": 63,
        "time": 360.25,
        "duration": 0.25,
        "velocity": 0.71,
        "hand": "right"
      },
      {
        "midi": 51,
        "time": 360.5,
        "duration": 0.5,
        "velocity": 0.71,
        "hand": "left"
      },
      {
        "midi": 58,
        "time": 360.5,
        "duration": 0.25,
        "velocity": 0.71,
        "hand": "left"
      },
      {
        "midi": 63,
        "time": 360.75,
        "duration": 0.25,
        "velocity": 0.71,
        "hand": "right"
      },
      {
        "midi": 54,
        "time": 361,
        "duration": 0.5,
        "velocity": 0.71,
        "hand": "left"
      },
      {
        "midi": 60,
        "time": 361,
        "duration": 0.25,
        "velocity": 0.71,
        "hand": "right"
      },
      {
        "midi": 63,
        "time": 361.25,
        "duration": 0.25,
        "velocity": 0.71,
        "hand": "right"
      },
      {
        "midi": 52,
        "time": 361.5,
        "duration": 0.5,
        "velocity": 0.71,
        "hand": "left"
      },
      {
        "midi": 61,
        "time": 361.5,
        "duration": 0.25,
        "velocity": 0.71,
        "hand": "right"
      },
      {
        "midi": 64,
        "time": 361.75,
        "duration": 0.25,
        "velocity": 0.71,
        "hand": "right"
      },
      {
        "midi": 48,
        "time": 362,
        "duration": 0.5,
        "velocity": 0.71,
        "hand": "left"
      },
      {
        "midi": 63,
        "time": 362,
        "duration": 0.25,
        "velocity": 0.71,
        "hand": "right"
      },
      {
        "midi": 67,
        "time": 362,
        "duration": 0.25,
        "velocity": 0.71,
        "hand": "right"
      },
      {
        "midi": 66,
        "time": 362.25,
        "duration": 0.25,
        "velocity": 0.71,
        "hand": "right"
      },
      {
        "midi": 68,
        "time": 362.25,
        "duration": 0.25,
        "velocity": 0.71,
        "hand": "right"
      },
      {
        "midi": 49,
        "time": 362.5,
        "duration": 0.5,
        "velocity": 0.71,
        "hand": "left"
      },
      {
        "midi": 61,
        "time": 362.5,
        "duration": 0.25,
        "velocity": 0.71,
        "hand": "right"
      },
      {
        "midi": 67,
        "time": 362.5,
        "duration": 0.25,
        "velocity": 0.71,
        "hand": "right"
      },
      {
        "midi": 64,
        "time": 362.75,
        "duration": 0.25,
        "velocity": 0.71,
        "hand": "right"
      },
      {
        "midi": 68,
        "time": 362.75,
        "duration": 0.25,
        "velocity": 0.71,
        "hand": "right"
      },
      {
        "midi": 42,
        "time": 363,
        "duration": 0.5,
        "velocity": 0.71,
        "hand": "left"
      },
      {
        "midi": 61,
        "time": 363,
        "duration": 0.25,
        "velocity": 0.71,
        "hand": "right"
      },
      {
        "midi": 69,
        "time": 363,
        "duration": 0.5,
        "velocity": 0.71,
        "hand": "right"
      },
      {
        "midi": 63,
        "time": 363.25,
        "duration": 0.25,
        "velocity": 0.66,
        "hand": "right"
      },
      {
        "midi": 44,
        "time": 363.5,
        "duration": 0.5,
        "velocity": 0.71,
        "hand": "left"
      },
      {
        "midi": 61,
        "time": 363.5,
        "duration": 0.25,
        "velocity": 0.61,
        "hand": "right"
      },
      {
        "midi": 68,
        "time": 363.5,
        "duration": 0.5,
        "velocity": 0.71,
        "hand": "right"
      },
      {
        "midi": 64,
        "time": 363.75,
        "duration": 0.25,
        "velocity": 0.57,
        "hand": "right"
      },
      {
        "midi": 45,
        "time": 364,
        "duration": 0.5,
        "velocity": 0.71,
        "hand": "left"
      },
      {
        "midi": 54,
        "time": 364,
        "duration": 0.25,
        "velocity": 0.53,
        "hand": "left"
      },
      {
        "midi": 66,
        "time": 364,
        "duration": 0.5,
        "velocity": 0.71,
        "hand": "right"
      },
      {
        "midi": 61,
        "time": 364.25,
        "duration": 0.25,
        "velocity": 0.48,
        "hand": "right"
      },
      {
        "midi": 46,
        "time": 364.5,
        "duration": 0.5,
        "velocity": 0.71,
        "hand": "left"
      },
      {
        "midi": 55,
        "time": 364.5,
        "duration": 0.25,
        "velocity": 0.48,
        "hand": "left"
      },
      {
        "midi": 64,
        "time": 364.5,
        "duration": 0.75,
        "velocity": 0.71,
        "hand": "right"
      },
      {
        "midi": 61,
        "time": 364.75,
        "duration": 0.25,
        "velocity": 0.48,
        "hand": "right"
      },
      {
        "midi": 38,
        "time": 365,
        "duration": 0.25,
        "velocity": 0.71,
        "hand": "left"
      },
      {
        "midi": 55,
        "time": 365,
        "duration": 0.25,
        "velocity": 0.48,
        "hand": "left"
      },
      {
        "midi": 39,
        "time": 365.25,
        "duration": 0.25,
        "velocity": 0.71,
        "hand": "left"
      },
      {
        "midi": 61,
        "time": 365.25,
        "duration": 0.25,
        "velocity": 0.48,
        "hand": "right"
      },
      {
        "midi": 63,
        "time": 365.25,
        "duration": 0.25,
        "velocity": 0.71,
        "hand": "right"
      },
      {
        "midi": 38,
        "time": 365.5,
        "duration": 0.25,
        "velocity": 0.71,
        "hand": "left"
      },
      {
        "midi": 64,
        "time": 365.5,
        "duration": 0.25,
        "velocity": 0.71,
        "hand": "right"
      },
      {
        "midi": 66,
        "time": 365.5,
        "duration": 0.25,
        "velocity": 0.71,
        "hand": "right"
      },
      {
        "midi": 39,
        "time": 365.75,
        "duration": 0.25,
        "velocity": 0.71,
        "hand": "left"
      },
      {
        "midi": 61,
        "time": 365.75,
        "duration": 0.25,
        "velocity": 0.48,
        "hand": "right"
      },
      {
        "midi": 63,
        "time": 365.75,
        "duration": 0.25,
        "velocity": 0.71,
        "hand": "right"
      },
      {
        "midi": 32,
        "time": 366,
        "duration": 0.5,
        "velocity": 0.71,
        "hand": "left"
      },
      {
        "midi": 60,
        "time": 366,
        "duration": 0.25,
        "velocity": 0.48,
        "hand": "right"
      },
      {
        "midi": 68,
        "time": 366,
        "duration": 1,
        "velocity": 0.71,
        "hand": "right"
      },
      {
        "midi": 63,
        "time": 366.25,
        "duration": 0.25,
        "velocity": 0.48,
        "hand": "right"
      },
      {
        "midi": 39,
        "time": 366.5,
        "duration": 0.5,
        "velocity": 0.71,
        "hand": "left"
      },
      {
        "midi": 51,
        "time": 366.5,
        "duration": 0.5,
        "velocity": 0.71,
        "hand": "left"
      },
      {
        "midi": 58,
        "time": 366.5,
        "duration": 0.25,
        "velocity": 0.48,
        "hand": "left"
      },
      {
        "midi": 63,
        "time": 366.75,
        "duration": 0.25,
        "velocity": 0.48,
        "hand": "right"
      },
      {
        "midi": 42,
        "time": 367,
        "duration": 0.5,
        "velocity": 0.71,
        "hand": "left"
      },
      {
        "midi": 60,
        "time": 367,
        "duration": 0.25,
        "velocity": 0.48,
        "hand": "right"
      },
      {
        "midi": 68,
        "time": 367,
        "duration": 1,
        "velocity": 0.71,
        "hand": "right"
      },
      {
        "midi": 63,
        "time": 367.25,
        "duration": 0.25,
        "velocity": 0.48,
        "hand": "right"
      },
      {
        "midi": 40,
        "time": 367.5,
        "duration": 0.5,
        "velocity": 0.71,
        "hand": "left"
      },
      {
        "midi": 52,
        "time": 367.5,
        "duration": 0.5,
        "velocity": 0.71,
        "hand": "left"
      },
      {
        "midi": 56,
        "time": 367.5,
        "duration": 0.25,
        "velocity": 0.48,
        "hand": "left"
      },
      {
        "midi": 61,
        "time": 367.75,
        "duration": 0.25,
        "velocity": 0.48,
        "hand": "right"
      },
      {
        "midi": 36,
        "time": 368,
        "duration": 0.5,
        "velocity": 0.71,
        "hand": "left"
      },
      {
        "midi": 56,
        "time": 368,
        "duration": 0.25,
        "velocity": 0.48,
        "hand": "left"
      },
      {
        "midi": 67,
        "time": 368,
        "duration": 0.25,
        "velocity": 0.71,
        "hand": "right"
      },
      {
        "midi": 66,
        "time": 368.25,
        "duration": 0.25,
        "velocity": 0.48,
        "hand": "right"
      },
      {
        "midi": 68,
        "time": 368.25,
        "duration": 0.25,
        "velocity": 0.71,
        "hand": "right"
      },
      {
        "midi": 37,
        "time": 368.5,
        "duration": 0.5,
        "velocity": 0.71,
        "hand": "left"
      },
      {
        "midi": 56,
        "time": 368.5,
        "duration": 0.25,
        "velocity": 0.48,
        "hand": "left"
      },
      {
        "midi": 67,
        "time": 368.5,
        "duration": 0.25,
        "velocity": 0.71,
        "hand": "right"
      },
      {
        "midi": 64,
        "time": 368.75,
        "duration": 0.25,
        "velocity": 0.48,
        "hand": "right"
      },
      {
        "midi": 68,
        "time": 368.75,
        "duration": 0.25,
        "velocity": 0.71,
        "hand": "right"
      },
      {
        "midi": 31,
        "time": 369,
        "duration": 0.5,
        "velocity": 0.71,
        "hand": "left"
      },
      {
        "midi": 61,
        "time": 369,
        "duration": 0.25,
        "velocity": 0.48,
        "hand": "right"
      },
      {
        "midi": 71,
        "time": 369,
        "duration": 0.25,
        "velocity": 0.71,
        "hand": "right"
      },
      {
        "midi": 63,
        "time": 369.25,
        "duration": 0.25,
        "velocity": 0.48,
        "hand": "right"
      },
      {
        "midi": 69,
        "time": 369.25,
        "duration": 0.25,
        "velocity": 0.71,
        "hand": "right"
      },
      {
        "midi": 32,
        "time": 369.5,
        "duration": 0.5,
        "velocity": 0.71,
        "hand": "left"
      },
      {
        "midi": 61,
        "time": 369.5,
        "duration": 0.25,
        "velocity": 0.48,
        "hand": "right"
      },
      {
        "midi": 69,
        "time": 369.5,
        "duration": 0.25,
        "velocity": 0.71,
        "hand": "right"
      },
      {
        "midi": 64,
        "time": 369.75,
        "duration": 0.25,
        "velocity": 0.48,
        "hand": "right"
      },
      {
        "midi": 68,
        "time": 369.75,
        "duration": 0.25,
        "velocity": 0.71,
        "hand": "right"
      },
      {
        "midi": 33,
        "time": 370,
        "duration": 0.5,
        "velocity": 0.71,
        "hand": "left"
      },
      {
        "midi": 54,
        "time": 370,
        "duration": 0.25,
        "velocity": 0.48,
        "hand": "left"
      },
      {
        "midi": 68,
        "time": 370,
        "duration": 0.25,
        "velocity": 0.71,
        "hand": "right"
      },
      {
        "midi": 61,
        "time": 370.25,
        "duration": 0.25,
        "velocity": 0.48,
        "hand": "right"
      },
      {
        "midi": 66,
        "time": 370.25,
        "duration": 0.25,
        "velocity": 0.71,
        "hand": "right"
      },
      {
        "midi": 34,
        "time": 370.5,
        "duration": 0.5,
        "velocity": 0.71,
        "hand": "left"
      },
      {
        "midi": 55,
        "time": 370.5,
        "duration": 0.25,
        "velocity": 0.48,
        "hand": "left"
      },
      {
        "midi": 64,
        "time": 370.5,
        "duration": 0.25,
        "velocity": 0.71,
        "hand": "right"
      },
      {
        "midi": 61,
        "time": 370.75,
        "duration": 0.25,
        "velocity": 0.48,
        "hand": "right"
      },
      {
        "midi": 63,
        "time": 370.75,
        "duration": 0.25,
        "velocity": 0.71,
        "hand": "right"
      },
      {
        "midi": 27,
        "time": 371,
        "duration": 0.5,
        "velocity": 0.71,
        "hand": "left"
      },
      {
        "midi": 61,
        "time": 371,
        "duration": 0.25,
        "velocity": 0.48,
        "hand": "right"
      },
      {
        "midi": 71,
        "time": 371,
        "duration": 0.25,
        "velocity": 0.71,
        "hand": "right"
      },
      {
        "midi": 67,
        "time": 371.25,
        "duration": 0.25,
        "velocity": 0.48,
        "hand": "right"
      },
      {
        "midi": 70,
        "time": 371.25,
        "duration": 0.25,
        "velocity": 0.71,
        "hand": "right"
      },
      {
        "midi": 39,
        "time": 371.5,
        "duration": 0.5,
        "velocity": 0.71,
        "hand": "left"
      },
      {
        "midi": 67,
        "time": 371.5,
        "duration": 0.25,
        "velocity": 0.48,
        "hand": "right"
      },
      {
        "midi": 76,
        "time": 371.5,
        "duration": 0.25,
        "velocity": 0.71,
        "hand": "right"
      },
      {
        "midi": 73,
        "time": 371.75,
        "duration": 0.25,
        "velocity": 0.48,
        "hand": "right"
      },
      {
        "midi": 75,
        "time": 371.75,
        "duration": 0.25,
        "velocity": 0.71,
        "hand": "right"
      },
      {
        "midi": 32,
        "time": 372,
        "duration": 0.5,
        "velocity": 0.71,
        "hand": "left"
      },
      {
        "midi": 73,
        "time": 372,
        "duration": 0.25,
        "velocity": 0.48,
        "hand": "right"
      },
      {
        "midi": 80,
        "time": 372,
        "duration": 0.5,
        "velocity": 0.71,
        "hand": "right"
      },
      {
        "midi": 72,
        "time": 372.25,
        "duration": 0.25,
        "velocity": 0.48,
        "hand": "right"
      },
      {
        "midi": 39,
        "time": 372.5,
        "duration": 0.5,
        "velocity": 0.71,
        "hand": "left"
      },
      {
        "midi": 72,
        "time": 372.5,
        "duration": 0.25,
        "velocity": 0.48,
        "hand": "right"
      },
      {
        "midi": 80,
        "time": 372.5,
        "duration": 0.5,
        "velocity": 0.71,
        "hand": "right"
      },
      {
        "midi": 70,
        "time": 372.75,
        "duration": 0.25,
        "velocity": 0.48,
        "hand": "right"
      },
      {
        "midi": 44,
        "time": 373,
        "duration": 3.5,
        "velocity": 0.71,
        "hand": "left"
      },
      {
        "midi": 72,
        "time": 373,
        "duration": 0.25,
        "velocity": 0.48,
        "hand": "right"
      },
      {
        "midi": 80,
        "time": 373,
        "duration": 0.5,
        "velocity": 0.71,
        "hand": "right"
      },
      {
        "midi": 68,
        "time": 373.25,
        "duration": 0.25,
        "velocity": 0.48,
        "hand": "right"
      },
      {
        "midi": 70,
        "time": 373.5,
        "duration": 0.25,
        "velocity": 0.48,
        "hand": "right"
      },
      {
        "midi": 75,
        "time": 373.5,
        "duration": 0.5,
        "velocity": 0.71,
        "hand": "right"
      },
      {
        "midi": 80,
        "time": 373.5,
        "duration": 0.5,
        "velocity": 0.71,
        "hand": "right"
      },
      {
        "midi": 68,
        "time": 373.75,
        "duration": 0.25,
        "velocity": 0.48,
        "hand": "right"
      },
      {
        "midi": 58,
        "time": 374,
        "duration": 0.5,
        "velocity": 0.71,
        "hand": "left"
      },
      {
        "midi": 75,
        "time": 374,
        "duration": 0.5,
        "velocity": 0.71,
        "hand": "right"
      },
      {
        "midi": 79,
        "time": 374,
        "duration": 0.5,
        "velocity": 0.71,
        "hand": "right"
      },
      {
        "midi": 65,
        "time": 374.25,
        "duration": 0.25,
        "velocity": 0.48,
        "hand": "right"
      },
      {
        "midi": 58,
        "time": 374.5,
        "duration": 1,
        "velocity": 0.71,
        "hand": "left"
      },
      {
        "midi": 70,
        "time": 374.5,
        "duration": 0.5,
        "velocity": 0.71,
        "hand": "right"
      },
      {
        "midi": 75,
        "time": 374.5,
        "duration": 0.5,
        "velocity": 0.71,
        "hand": "right"
      },
      {
        "midi": 63,
        "time": 374.75,
        "duration": 0.25,
        "velocity": 0.48,
        "hand": "right"
      },
      {
        "midi": 70,
        "time": 375,
        "duration": 0.25,
        "velocity": 0.48,
        "hand": "right"
      },
      {
        "midi": 75,
        "time": 375,
        "duration": 0.5,
        "velocity": 0.71,
        "hand": "right"
      },
      {
        "midi": 78,
        "time": 375,
        "duration": 0.5,
        "velocity": 0.71,
        "hand": "right"
      },
      {
        "midi": 69,
        "time": 375.25,
        "duration": 0.25,
        "velocity": 0.48,
        "hand": "right"
      },
      {
        "midi": 57,
        "time": 375.5,
        "duration": 0.25,
        "velocity": 0.71,
        "hand": "left"
      },
      {
        "midi": 75,
        "time": 375.5,
        "duration": 0.5,
        "velocity": 0.71,
        "hand": "right"
      },
      {
        "midi": 78,
        "time": 375.5,
        "duration": 0.5,
        "velocity": 0.71,
        "hand": "right"
      },
      {
        "midi": 58,
        "time": 375.75,
        "duration": 0.25,
        "velocity": 0.78,
        "hand": "left"
      },
      {
        "midi": 66,
        "time": 375.75,
        "duration": 0.25,
        "velocity": 0.48,
        "hand": "right"
      },
      {
        "midi": 57,
        "time": 376,
        "duration": 0.25,
        "velocity": 0.86,
        "hand": "left"
      },
      {
        "midi": 75,
        "time": 376,
        "duration": 0.5,
        "velocity": 0.71,
        "hand": "right"
      },
      {
        "midi": 78,
        "time": 376,
        "duration": 0.5,
        "velocity": 0.71,
        "hand": "right"
      },
      {
        "midi": 58,
        "time": 376.25,
        "duration": 0.25,
        "velocity": 0.93,
        "hand": "left"
      },
      {
        "midi": 66,
        "time": 376.25,
        "duration": 0.25,
        "velocity": 0.48,
        "hand": "right"
      },
      {
        "midi": 63,
        "time": 376.5,
        "duration": 1.5,
        "velocity": 0.93,
        "hand": "right"
      },
      {
        "midi": 75,
        "time": 376.5,
        "duration": 0.5,
        "velocity": 0.71,
        "hand": "right"
      },
      {
        "midi": 78,
        "time": 376.5,
        "duration": 1.5,
        "velocity": 0.71,
        "hand": "right"
      },
      {
        "midi": 66,
        "time": 376.75,
        "duration": 0.25,
        "velocity": 0.48,
        "hand": "right"
      },
      {
        "midi": 70,
        "time": 377,
        "duration": 0.25,
        "velocity": 0.48,
        "hand": "right"
      },
      {
        "midi": 74,
        "time": 377,
        "duration": 0.5,
        "velocity": 0.71,
        "hand": "right"
      },
      {
        "midi": 66,
        "time": 377.25,
        "duration": 0.25,
        "velocity": 0.48,
        "hand": "right"
      },
      {
        "midi": 70,
        "time": 377.5,
        "duration": 0.25,
        "velocity": 0.48,
        "hand": "right"
      },
      {
        "midi": 73,
        "time": 377.5,
        "duration": 0.5,
        "velocity": 0.71,
        "hand": "right"
      },
      {
        "midi": 66,
        "time": 377.75,
        "duration": 0.25,
        "velocity": 0.48,
        "hand": "right"
      },
      {
        "midi": 32,
        "time": 378,
        "duration": 0.5,
        "velocity": 0.93,
        "hand": "left"
      },
      {
        "midi": 69,
        "time": 378,
        "duration": 0.25,
        "velocity": 0.48,
        "hand": "right"
      },
      {
        "midi": 78,
        "time": 378,
        "duration": 0.5,
        "velocity": 0.71,
        "hand": "right"
      },
      {
        "midi": 68,
        "time": 378.25,
        "duration": 0.25,
        "velocity": 0.48,
        "hand": "right"
      },
      {
        "midi": 39,
        "time": 378.5,
        "duration": 0.5,
        "velocity": 0.93,
        "hand": "left"
      },
      {
        "midi": 68,
        "time": 378.5,
        "duration": 0.25,
        "velocity": 0.48,
        "hand": "right"
      },
      {
        "midi": 78,
        "time": 378.5,
        "duration": 0.5,
        "velocity": 0.71,
        "hand": "right"
      },
      {
        "midi": 67,
        "time": 378.75,
        "duration": 0.25,
        "velocity": 0.48,
        "hand": "right"
      },
      {
        "midi": 44,
        "time": 379,
        "duration": 2,
        "velocity": 0.71,
        "hand": "left"
      },
      {
        "midi": 68,
        "time": 379,
        "duration": 0.25,
        "velocity": 0.48,
        "hand": "right"
      },
      {
        "midi": 78,
        "time": 379,
        "duration": 0.5,
        "velocity": 0.71,
        "hand": "right"
      },
      {
        "midi": 63,
        "time": 379.25,
        "duration": 0.25,
        "velocity": 0.48,
        "hand": "right"
      },
      {
        "midi": 68,
        "time": 379.5,
        "duration": 0.25,
        "velocity": 0.48,
        "hand": "right"
      },
      {
        "midi": 72,
        "time": 379.5,
        "duration": 0.5,
        "velocity": 0.71,
        "hand": "right"
      },
      {
        "midi": 78,
        "time": 379.5,
        "duration": 0.5,
        "velocity": 0.71,
        "hand": "right"
      },
      {
        "midi": 67,
        "time": 379.75,
        "duration": 0.25,
        "velocity": 0.48,
        "hand": "right"
      },
      {
        "midi": 56,
        "time": 380,
        "duration": 0.5,
        "velocity": 0.93,
        "hand": "left"
      },
      {
        "midi": 72,
        "time": 380,
        "duration": 0.5,
        "velocity": 0.71,
        "hand": "right"
      },
      {
        "midi": 77,
        "time": 380,
        "duration": 0.5,
        "velocity": 0.71,
        "hand": "right"
      },
      {
        "midi": 64,
        "time": 380.25,
        "duration": 0.25,
        "velocity": 0.48,
        "hand": "right"
      },
      {
        "midi": 56,
        "time": 380.5,
        "duration": 0.5,
        "velocity": 0.93,
        "hand": "left"
      },
      {
        "midi": 65,
        "time": 380.5,
        "duration": 0.25,
        "velocity": 0.48,
        "hand": "right"
      },
      {
        "midi": 72,
        "time": 380.5,
        "duration": 0.5,
        "velocity": 0.71,
        "hand": "right"
      },
      {
        "midi": 60,
        "time": 380.75,
        "duration": 0.25,
        "velocity": 0.48,
        "hand": "right"
      },
      {
        "midi": 44,
        "time": 381,
        "duration": 1.5,
        "velocity": 0.71,
        "hand": "left"
      },
      {
        "midi": 64,
        "time": 381,
        "duration": 0.25,
        "velocity": 0.48,
        "hand": "right"
      },
      {
        "midi": 76,
        "time": 381,
        "duration": 0.5,
        "velocity": 0.71,
        "hand": "right"
      },
      {
        "midi": 63,
        "time": 381.25,
        "duration": 0.25,
        "velocity": 0.48,
        "hand": "right"
      },
      {
        "midi": 55,
        "time": 381.5,
        "duration": 0.25,
        "velocity": 0.93,
        "hand": "left"
      },
      {
        "midi": 71,
        "time": 381.5,
        "duration": 0.5,
        "velocity": 0.71,
        "hand": "right"
      },
      {
        "midi": 76,
        "time": 381.5,
        "duration": 0.5,
        "velocity": 0.71,
        "hand": "right"
      },
      {
        "midi": 56,
        "time": 381.75,
        "duration": 0.25,
        "velocity": 0.93,
        "hand": "left"
      },
      {
        "midi": 59,
        "time": 381.75,
        "duration": 0.25,
        "velocity": 0.48,
        "hand": "left"
      },
      {
        "midi": 55,
        "time": 382,
        "duration": 0.25,
        "velocity": 0.93,
        "hand": "left"
      },
      {
        "midi": 71,
        "time": 382,
        "duration": 0.5,
        "velocity": 0.71,
        "hand": "right"
      },
      {
        "midi": 76,
        "time": 382,
        "duration": 0.5,
        "velocity": 0.71,
        "hand": "right"
      },
      {
        "midi": 56,
        "time": 382.25,
        "duration": 0.25,
        "velocity": 0.93,
        "hand": "left"
      },
      {
        "midi": 59,
        "time": 382.25,
        "duration": 0.25,
        "velocity": 0.48,
        "hand": "left"
      },
      {
        "midi": 68,
        "time": 382.5,
        "duration": 1.5,
        "velocity": 0.93,
        "hand": "right"
      },
      {
        "midi": 71,
        "time": 382.5,
        "duration": 0.25,
        "velocity": 0.48,
        "hand": "right"
      },
      {
        "midi": 76,
        "time": 382.5,
        "duration": 1,
        "velocity": 0.71,
        "hand": "right"
      },
      {
        "midi": 64,
        "time": 382.75,
        "duration": 0.25,
        "velocity": 0.43,
        "hand": "right"
      },
      {
        "midi": 71,
        "time": 383,
        "duration": 0.25,
        "velocity": 0.39,
        "hand": "right"
      },
      {
        "midi": 63,
        "time": 383.25,
        "duration": 0.25,
        "velocity": 0.35,
        "hand": "right"
      },
      {
        "midi": 71,
        "time": 383.5,
        "duration": 0.75,
        "velocity": 0.71,
        "hand": "right"
      },
      {
        "midi": 62,
        "time": 383.75,
        "duration": 0.25,
        "velocity": 0.26,
        "hand": "right"
      },
      {
        "midi": 33,
        "time": 384,
        "duration": 0.25,
        "velocity": 0.09,
        "hand": "left"
      },
      {
        "midi": 61,
        "time": 384,
        "duration": 0.25,
        "velocity": 0.26,
        "hand": "right"
      },
      {
        "midi": 52,
        "time": 384.25,
        "duration": 0.25,
        "velocity": 0.09,
        "hand": "left"
      },
      {
        "midi": 67,
        "time": 384.25,
        "duration": 0.25,
        "velocity": 0.26,
        "hand": "right"
      },
      {
        "midi": 69,
        "time": 384.25,
        "duration": 0.25,
        "velocity": 0.71,
        "hand": "right"
      },
      {
        "midi": 57,
        "time": 384.5,
        "duration": 0.25,
        "velocity": 0.09,
        "hand": "left"
      },
      {
        "midi": 64,
        "time": 384.5,
        "duration": 0.5,
        "velocity": 0.71,
        "hand": "right"
      },
      {
        "midi": 76,
        "time": 384.5,
        "duration": 0.5,
        "velocity": 0.71,
        "hand": "right"
      },
      {
        "midi": 59,
        "time": 384.75,
        "duration": 0.25,
        "velocity": 0.09,
        "hand": "left"
      },
      {
        "midi": 67,
        "time": 384.75,
        "duration": 0.25,
        "velocity": 0.26,
        "hand": "right"
      },
      {
        "midi": 69,
        "time": 384.75,
        "duration": 0.25,
        "velocity": 0.26,
        "hand": "right"
      },
      {
        "midi": 61,
        "time": 385,
        "duration": 0.5,
        "velocity": 0.09,
        "hand": "right"
      },
      {
        "midi": 64,
        "time": 385,
        "duration": 0.5,
        "velocity": 0.71,
        "hand": "right"
      },
      {
        "midi": 76,
        "time": 385,
        "duration": 0.5,
        "velocity": 0.71,
        "hand": "right"
      },
      {
        "midi": 67,
        "time": 385.25,
        "duration": 0.25,
        "velocity": 0.26,
        "hand": "right"
      },
      {
        "midi": 69,
        "time": 385.25,
        "duration": 0.25,
        "velocity": 0.26,
        "hand": "right"
      },
      {
        "midi": 38,
        "time": 385.5,
        "duration": 0.25,
        "velocity": 0.09,
        "hand": "left"
      },
      {
        "midi": 64,
        "time": 385.5,
        "duration": 0.5,
        "velocity": 0.26,
        "hand": "right"
      },
      {
        "midi": 76,
        "time": 385.5,
        "duration": 0.5,
        "velocity": 0.71,
        "hand": "right"
      },
      {
        "midi": 57,
        "time": 385.75,
        "duration": 0.25,
        "velocity": 0.09,
        "hand": "left"
      },
      {
        "midi": 66,
        "time": 385.75,
        "duration": 0.25,
        "velocity": 0.26,
        "hand": "right"
      },
      {
        "midi": 69,
        "time": 385.75,
        "duration": 0.25,
        "velocity": 0.26,
        "hand": "right"
      },
      {
        "midi": 54,
        "time": 386,
        "duration": 0.25,
        "velocity": 0.09,
        "hand": "left"
      },
      {
        "midi": 62,
        "time": 386,
        "duration": 0.5,
        "velocity": 0.71,
        "hand": "right"
      },
      {
        "midi": 74,
        "time": 386,
        "duration": 0.5,
        "velocity": 0.71,
        "hand": "right"
      },
      {
        "midi": 57,
        "time": 386.25,
        "duration": 0.25,
        "velocity": 0.09,
        "hand": "left"
      },
      {
        "midi": 66,
        "time": 386.25,
        "duration": 0.25,
        "velocity": 0.26,
        "hand": "right"
      },
      {
        "midi": 69,
        "time": 386.25,
        "duration": 0.25,
        "velocity": 0.26,
        "hand": "right"
      },
      {
        "midi": 47,
        "time": 386.5,
        "duration": 0.25,
        "velocity": 0.09,
        "hand": "left"
      },
      {
        "midi": 61,
        "time": 386.5,
        "duration": 0.5,
        "velocity": 0.71,
        "hand": "right"
      },
      {
        "midi": 73,
        "time": 386.5,
        "duration": 0.5,
        "velocity": 0.71,
        "hand": "right"
      },
      {
        "midi": 57,
        "time": 386.75,
        "duration": 0.25,
        "velocity": 0.09,
        "hand": "left"
      },
      {
        "midi": 66,
        "time": 386.75,
        "duration": 0.25,
        "velocity": 0.26,
        "hand": "right"
      },
      {
        "midi": 69,
        "time": 386.75,
        "duration": 0.25,
        "velocity": 0.26,
        "hand": "right"
      },
      {
        "midi": 40,
        "time": 387,
        "duration": 0.25,
        "velocity": 0.09,
        "hand": "left"
      },
      {
        "midi": 61,
        "time": 387,
        "duration": 0.5,
        "velocity": 0.26,
        "hand": "right"
      },
      {
        "midi": 73,
        "time": 387,
        "duration": 0.5,
        "velocity": 0.71,
        "hand": "right"
      },
      {
        "midi": 52,
        "time": 387.25,
        "duration": 0.25,
        "velocity": 0.09,
        "hand": "left"
      },
      {
        "midi": 64,
        "time": 387.25,
        "duration": 0.25,
        "velocity": 0.26,
        "hand": "right"
      },
      {
        "midi": 68,
        "time": 387.25,
        "duration": 0.25,
        "velocity": 0.26,
        "hand": "right"
      },
      {
        "midi": 50,
        "time": 387.5,
        "duration": 0.25,
        "velocity": 0.09,
        "hand": "left"
      },
      {
        "midi": 59,
        "time": 387.5,
        "duration": 0.5,
        "velocity": 0.71,
        "hand": "left"
      },
      {
        "midi": 71,
        "time": 387.5,
        "duration": 0.5,
        "velocity": 0.71,
        "hand": "right"
      },
      {
        "midi": 52,
        "time": 387.75,
        "duration": 0.25,
        "velocity": 0.09,
        "hand": "left"
      },
      {
        "midi": 64,
        "time": 387.75,
        "duration": 0.25,
        "velocity": 0.26,
        "hand": "right"
      },
      {
        "midi": 68,
        "time": 387.75,
        "duration": 0.25,
        "velocity": 0.26,
        "hand": "right"
      },
      {
        "midi": 49,
        "time": 388,
        "duration": 0.25,
        "velocity": 0.09,
        "hand": "left"
      },
      {
        "midi": 57,
        "time": 388,
        "duration": 0.5,
        "velocity": 0.71,
        "hand": "left"
      },
      {
        "midi": 69,
        "time": 388,
        "duration": 0.5,
        "velocity": 0.71,
        "hand": "right"
      },
      {
        "midi": 52,
        "time": 388.25,
        "duration": 0.25,
        "velocity": 0.09,
        "hand": "left"
      },
      {
        "midi": 64,
        "time": 388.25,
        "duration": 0.25,
        "velocity": 0.26,
        "hand": "right"
      },
      {
        "midi": 45,
        "time": 388.5,
        "duration": 1.5,
        "velocity": 0.71,
        "hand": "left"
      },
      {
        "midi": 61,
        "time": 388.5,
        "duration": 0.25,
        "velocity": 0.26,
        "hand": "right"
      },
      {
        "midi": 73,
        "time": 388.5,
        "duration": 1.5,
        "velocity": 0.71,
        "hand": "right"
      },
      {
        "midi": 52,
        "time": 388.75,
        "duration": 0.25,
        "velocity": 0.71,
        "hand": "left"
      },
      {
        "midi": 64,
        "time": 388.75,
        "duration": 0.25,
        "velocity": 0.26,
        "hand": "right"
      },
      {
        "midi": 69,
        "time": 388.75,
        "duration": 0.25,
        "velocity": 0.26,
        "hand": "right"
      },
      {
        "midi": 57,
        "time": 389,
        "duration": 0.25,
        "velocity": 0.71,
        "hand": "left"
      },
      {
        "midi": 61,
        "time": 389,
        "duration": 0.25,
        "velocity": 0.26,
        "hand": "right"
      },
      {
        "midi": 54,
        "time": 389.25,
        "duration": 0.25,
        "velocity": 0.71,
        "hand": "left"
      },
      {
        "midi": 62,
        "time": 389.25,
        "duration": 0.25,
        "velocity": 0.26,
        "hand": "right"
      },
      {
        "midi": 69,
        "time": 389.25,
        "duration": 0.25,
        "velocity": 0.26,
        "hand": "right"
      },
      {
        "midi": 52,
        "time": 389.5,
        "duration": 0.5,
        "velocity": 0.71,
        "hand": "left"
      },
      {
        "midi": 61,
        "time": 389.5,
        "duration": 0.25,
        "velocity": 0.26,
        "hand": "right"
      },
      {
        "midi": 64,
        "time": 389.75,
        "duration": 0.25,
        "velocity": 0.26,
        "hand": "right"
      },
      {
        "midi": 69,
        "time": 389.75,
        "duration": 0.25,
        "velocity": 0.26,
        "hand": "right"
      },
      {
        "midi": 33,
        "time": 390,
        "duration": 0.25,
        "velocity": 0.09,
        "hand": "left"
      },
      {
        "midi": 61,
        "time": 390,
        "duration": 0.25,
        "velocity": 0.26,
        "hand": "right"
      },
      {
        "midi": 76,
        "time": 390,
        "duration": 0.5,
        "velocity": 0.71,
        "hand": "right"
      },
      {
        "midi": 45,
        "time": 390.25,
        "duration": 0.25,
        "velocity": 0.09,
        "hand": "left"
      },
      {
        "midi": 67,
        "time": 390.25,
        "duration": 0.25,
        "velocity": 0.26,
        "hand": "right"
      },
      {
        "midi": 69,
        "time": 390.25,
        "duration": 0.25,
        "velocity": 0.26,
        "hand": "right"
      },
      {
        "midi": 52,
        "time": 390.5,
        "duration": 0.25,
        "velocity": 0.09,
        "hand": "left"
      },
      {
        "midi": 64,
        "time": 390.5,
        "duration": 0.5,
        "velocity": 0.26,
        "hand": "right"
      },
      {
        "midi": 76,
        "time": 390.5,
        "duration": 0.5,
        "velocity": 0.71,
        "hand": "right"
      },
      {
        "midi": 59,
        "time": 390.75,
        "duration": 0.25,
        "velocity": 0.09,
        "hand": "left"
      },
      {
        "midi": 67,
        "time": 390.75,
        "duration": 0.25,
        "velocity": 0.26,
        "hand": "right"
      },
      {
        "midi": 69,
        "time": 390.75,
        "duration": 0.25,
        "velocity": 0.26,
        "hand": "right"
      },
      {
        "midi": 61,
        "time": 391,
        "duration": 0.5,
        "velocity": 0.09,
        "hand": "right"
      },
      {
        "midi": 64,
        "time": 391,
        "duration": 0.5,
        "velocity": 0.71,
        "hand": "right"
      },
      {
        "midi": 76,
        "time": 391,
        "duration": 0.5,
        "velocity": 0.71,
        "hand": "right"
      },
      {
        "midi": 67,
        "time": 391.25,
        "duration": 0.25,
        "velocity": 0.26,
        "hand": "right"
      },
      {
        "midi": 69,
        "time": 391.25,
        "duration": 0.25,
        "velocity": 0.26,
        "hand": "right"
      },
      {
        "midi": 38,
        "time": 391.5,
        "duration": 0.25,
        "velocity": 0.09,
        "hand": "left"
      },
      {
        "midi": 64,
        "time": 391.5,
        "duration": 0.5,
        "velocity": 0.71,
        "hand": "right"
      },
      {
        "midi": 76,
        "time": 391.5,
        "duration": 0.5,
        "velocity": 0.71,
        "hand": "right"
      },
      {
        "midi": 57,
        "time": 391.75,
        "duration": 0.25,
        "velocity": 0.09,
        "hand": "left"
      },
      {
        "midi": 66,
        "time": 391.75,
        "duration": 0.25,
        "velocity": 0.26,
        "hand": "right"
      },
      {
        "midi": 69,
        "time": 391.75,
        "duration": 0.25,
        "velocity": 0.26,
        "hand": "right"
      },
      {
        "midi": 54,
        "time": 392,
        "duration": 0.25,
        "velocity": 0.09,
        "hand": "left"
      },
      {
        "midi": 62,
        "time": 392,
        "duration": 0.5,
        "velocity": 0.71,
        "hand": "right"
      },
      {
        "midi": 74,
        "time": 392,
        "duration": 0.5,
        "velocity": 0.71,
        "hand": "right"
      },
      {
        "midi": 57,
        "time": 392.25,
        "duration": 0.25,
        "velocity": 0.09,
        "hand": "left"
      },
      {
        "midi": 66,
        "time": 392.25,
        "duration": 0.25,
        "velocity": 0.26,
        "hand": "right"
      },
      {
        "midi": 69,
        "time": 392.25,
        "duration": 0.25,
        "velocity": 0.26,
        "hand": "right"
      },
      {
        "midi": 42,
        "time": 392.5,
        "duration": 0.25,
        "velocity": 0.09,
        "hand": "left"
      },
      {
        "midi": 61,
        "time": 392.5,
        "duration": 0.5,
        "velocity": 0.71,
        "hand": "right"
      },
      {
        "midi": 73,
        "time": 392.5,
        "duration": 0.5,
        "velocity": 0.71,
        "hand": "right"
      },
      {
        "midi": 49,
        "time": 392.75,
        "duration": 0.25,
        "velocity": 0.09,
        "hand": "left"
      },
      {
        "midi": 66,
        "time": 392.75,
        "duration": 0.25,
        "velocity": 0.26,
        "hand": "right"
      },
      {
        "midi": 69,
        "time": 392.75,
        "duration": 0.25,
        "velocity": 0.26,
        "hand": "right"
      },
      {
        "midi": 41,
        "time": 393,
        "duration": 0.25,
        "velocity": 0.09,
        "hand": "left"
      },
      {
        "midi": 61,
        "time": 393,
        "duration": 0.5,
        "velocity": 0.71,
        "hand": "right"
      },
      {
        "midi": 73,
        "time": 393,
        "duration": 0.5,
        "velocity": 0.71,
        "hand": "right"
      },
      {
        "midi": 49,
        "time": 393.25,
        "duration": 0.25,
        "velocity": 0.09,
        "hand": "left"
      },
      {
        "midi": 68,
        "time": 393.25,
        "duration": 0.25,
        "velocity": 0.26,
        "hand": "right"
      },
      {
        "midi": 56,
        "time": 393.5,
        "duration": 0.25,
        "velocity": 0.09,
        "hand": "left"
      },
      {
        "midi": 59,
        "time": 393.5,
        "duration": 0.5,
        "velocity": 0.71,
        "hand": "left"
      },
      {
        "midi": 71,
        "time": 393.5,
        "duration": 0.5,
        "velocity": 0.71,
        "hand": "right"
      },
      {
        "midi": 49,
        "time": 393.75,
        "duration": 0.25,
        "velocity": 0.09,
        "hand": "left"
      },
      {
        "midi": 61,
        "time": 393.75,
        "duration": 0.25,
        "velocity": 0.26,
        "hand": "right"
      },
      {
        "midi": 68,
        "time": 393.75,
        "duration": 0.25,
        "velocity": 0.26,
        "hand": "right"
      },
      {
        "midi": 42,
        "time": 394,
        "duration": 0.25,
        "velocity": 0.09,
        "hand": "left"
      },
      {
        "midi": 57,
        "time": 394,
        "duration": 0.5,
        "velocity": 0.71,
        "hand": "left"
      },
      {
        "midi": 69,
        "time": 394,
        "duration": 0.5,
        "velocity": 0.71,
        "hand": "right"
      },
      {
        "midi": 49,
        "time": 394.25,
        "duration": 0.25,
        "velocity": 0.09,
        "hand": "left"
      },
      {
        "midi": 61,
        "time": 394.25,
        "duration": 0.25,
        "velocity": 0.26,
        "hand": "right"
      },
      {
        "midi": 66,
        "time": 394.25,
        "duration": 0.25,
        "velocity": 0.26,
        "hand": "right"
      },
      {
        "midi": 37,
        "time": 394.5,
        "duration": 0.25,
        "velocity": 0.09,
        "hand": "left"
      },
      {
        "midi": 56,
        "time": 394.5,
        "duration": 0.25,
        "velocity": 0.26,
        "hand": "left"
      },
      {
        "midi": 73,
        "time": 394.5,
        "duration": 1.5,
        "velocity": 0.93,
        "hand": "right"
      },
      {
        "midi": 44,
        "time": 394.75,
        "duration": 0.25,
        "velocity": 0.09,
        "hand": "left"
      },
      {
        "midi": 65,
        "time": 394.75,
        "duration": 0.25,
        "velocity": 0.26,
        "hand": "right"
      },
      {
        "midi": 68,
        "time": 394.75,
        "duration": 0.25,
        "velocity": 0.26,
        "hand": "right"
      },
      {
        "midi": 56,
        "time": 395,
        "duration": 0.25,
        "velocity": 0.09,
        "hand": "left"
      },
      {
        "midi": 61,
        "time": 395,
        "duration": 0.25,
        "velocity": 0.26,
        "hand": "right"
      },
      {
        "midi": 49,
        "time": 395.25,
        "duration": 0.25,
        "velocity": 0.09,
        "hand": "left"
      },
      {
        "midi": 65,
        "time": 395.25,
        "duration": 0.25,
        "velocity": 0.26,
        "hand": "right"
      },
      {
        "midi": 68,
        "time": 395.25,
        "duration": 0.25,
        "velocity": 0.26,
        "hand": "right"
      },
      {
        "midi": 61,
        "time": 395.5,
        "duration": 0.5,
        "velocity": 0.09,
        "hand": "right"
      },
      {
        "midi": 65,
        "time": 395.75,
        "duration": 0.25,
        "velocity": 0.26,
        "hand": "right"
      },
      {
        "midi": 68,
        "time": 395.75,
        "duration": 0.25,
        "velocity": 0.26,
        "hand": "right"
      },
      {
        "midi": 40,
        "time": 396,
        "duration": 0.25,
        "velocity": 0.09,
        "hand": "left"
      },
      {
        "midi": 61,
        "time": 396,
        "duration": 0.5,
        "velocity": 0.26,
        "hand": "right"
      },
      {
        "midi": 73,
        "time": 396,
        "duration": 0.5,
        "velocity": 0.93,
        "hand": "right"
      },
      {
        "midi": 52,
        "time": 396.25,
        "duration": 0.25,
        "velocity": 0.09,
        "hand": "left"
      },
      {
        "midi": 64,
        "time": 396.25,
        "duration": 0.25,
        "velocity": 0.26,
        "hand": "right"
      },
      {
        "midi": 68,
        "time": 396.25,
        "duration": 0.25,
        "velocity": 0.26,
        "hand": "right"
      },
      {
        "midi": 50,
        "time": 396.5,
        "duration": 0.25,
        "velocity": 0.09,
        "hand": "left"
      },
      {
        "midi": 59,
        "time": 396.5,
        "duration": 0.5,
        "velocity": 0.93,
        "hand": "left"
      },
      {
        "midi": 71,
        "time": 396.5,
        "duration": 0.5,
        "velocity": 0.93,
        "hand": "right"
      },
      {
        "midi": 52,
        "time": 396.75,
        "duration": 0.25,
        "velocity": 0.09,
        "hand": "left"
      },
      {
        "midi": 64,
        "time": 396.75,
        "duration": 0.25,
        "velocity": 0.26,
        "hand": "right"
      },
      {
        "midi": 68,
        "time": 396.75,
        "duration": 0.25,
        "velocity": 0.26,
        "hand": "right"
      },
      {
        "midi": 49,
        "time": 397,
        "duration": 0.25,
        "velocity": 0.09,
        "hand": "left"
      },
      {
        "midi": 57,
        "time": 397,
        "duration": 0.5,
        "velocity": 0.93,
        "hand": "left"
      },
      {
        "midi": 69,
        "time": 397,
        "duration": 0.5,
        "velocity": 0.93,
        "hand": "right"
      },
      {
        "midi": 52,
        "time": 397.25,
        "duration": 0.25,
        "velocity": 0.09,
        "hand": "left"
      },
      {
        "midi": 64,
        "time": 397.25,
        "duration": 0.25,
        "velocity": 0.26,
        "hand": "right"
      },
      {
        "midi": 45,
        "time": 397.5,
        "duration": 0.25,
        "velocity": 0.09,
        "hand": "left"
      },
      {
        "midi": 61,
        "time": 397.5,
        "duration": 0.25,
        "velocity": 0.71,
        "hand": "right"
      },
      {
        "midi": 73,
        "time": 397.5,
        "duration": 1.5,
        "velocity": 0.93,
        "hand": "right"
      },
      {
        "midi": 52,
        "time": 397.75,
        "duration": 0.25,
        "velocity": 0.09,
        "hand": "left"
      },
      {
        "midi": 64,
        "time": 397.75,
        "duration": 0.25,
        "velocity": 0.71,
        "hand": "right"
      },
      {
        "midi": 69,
        "time": 397.75,
        "duration": 0.25,
        "velocity": 0.71,
        "hand": "right"
      },
      {
        "midi": 57,
        "time": 398,
        "duration": 0.25,
        "velocity": 0.09,
        "hand": "left"
      },
      {
        "midi": 61,
        "time": 398,
        "duration": 0.25,
        "velocity": 0.71,
        "hand": "right"
      },
      {
        "midi": 54,
        "time": 398.25,
        "duration": 0.25,
        "velocity": 0.09,
        "hand": "left"
      },
      {
        "midi": 62,
        "time": 398.25,
        "duration": 0.25,
        "velocity": 0.71,
        "hand": "right"
      },
      {
        "midi": 69,
        "time": 398.25,
        "duration": 0.25,
        "velocity": 0.71,
        "hand": "right"
      },
      {
        "midi": 52,
        "time": 398.5,
        "duration": 0.25,
        "velocity": 0.09,
        "hand": "left"
      },
      {
        "midi": 61,
        "time": 398.5,
        "duration": 0.25,
        "velocity": 0.71,
        "hand": "right"
      },
      {
        "midi": 45,
        "time": 398.75,
        "duration": 0.25,
        "velocity": 0.09,
        "hand": "left"
      },
      {
        "midi": 64,
        "time": 398.75,
        "duration": 0.25,
        "velocity": 0.71,
        "hand": "right"
      },
      {
        "midi": 69,
        "time": 398.75,
        "duration": 0.5,
        "velocity": 0.71,
        "hand": "right"
      },
      {
        "midi": 57,
        "time": 399,
        "duration": 0.25,
        "velocity": 0.71,
        "hand": "left"
      },
      {
        "midi": 61,
        "time": 399,
        "duration": 0.25,
        "velocity": 0.71,
        "hand": "right"
      },
      {
        "midi": 73,
        "time": 399,
        "duration": 2,
        "velocity": 0.93,
        "hand": "right"
      },
      {
        "midi": 54,
        "time": 399.25,
        "duration": 0.25,
        "velocity": 0.71,
        "hand": "left"
      },
      {
        "midi": 62,
        "time": 399.25,
        "duration": 0.25,
        "velocity": 0.71,
        "hand": "right"
      },
      {
        "midi": 69,
        "time": 399.25,
        "duration": 0.5,
        "velocity": 0.71,
        "hand": "right"
      },
      {
        "midi": 52,
        "time": 399.5,
        "duration": 0.25,
        "velocity": 0.71,
        "hand": "left"
      },
      {
        "midi": 61,
        "time": 399.5,
        "duration": 0.25,
        "velocity": 0.71,
        "hand": "right"
      },
      {
        "midi": 45,
        "time": 399.75,
        "duration": 1.75,
        "velocity": 0.71,
        "hand": "left"
      },
      {
        "midi": 64,
        "time": 399.75,
        "duration": 0.25,
        "velocity": 0.71,
        "hand": "right"
      },
      {
        "midi": 69,
        "time": 399.75,
        "duration": 0.5,
        "velocity": 0.71,
        "hand": "right"
      },
      {
        "midi": 57,
        "time": 400,
        "duration": 0.25,
        "velocity": 0.71,
        "hand": "left"
      },
      {
        "midi": 61,
        "time": 400,
        "duration": 0.25,
        "velocity": 0.71,
        "hand": "right"
      },
      {
        "midi": 54,
        "time": 400.25,
        "duration": 0.25,
        "velocity": 0.71,
        "hand": "left"
      },
      {
        "midi": 62,
        "time": 400.25,
        "duration": 0.25,
        "velocity": 0.71,
        "hand": "right"
      },
      {
        "midi": 69,
        "time": 400.25,
        "duration": 0.25,
        "velocity": 0.71,
        "hand": "right"
      },
      {
        "midi": 52,
        "time": 400.5,
        "duration": 1,
        "velocity": 0.71,
        "hand": "left"
      },
      {
        "midi": 61,
        "time": 400.5,
        "duration": 1.5,
        "velocity": 0.71,
        "hand": "right"
      },
      {
        "midi": 69,
        "time": 400.5,
        "duration": 0.5,
        "velocity": 0.71,
        "hand": "right"
      },
      {
        "midi": 57,
        "time": 401,
        "duration": 0.25,
        "velocity": 0.71,
        "hand": "left"
      },
      {
        "midi": 69,
        "time": 401,
        "duration": 0.5,
        "velocity": 0.71,
        "hand": "right"
      },
      {
        "midi": 76,
        "time": 401,
        "duration": 0.25,
        "velocity": 0.71,
        "hand": "right"
      },
      {
        "midi": 69,
        "time": 401.25,
        "duration": 0.25,
        "velocity": 0.71,
        "hand": "right"
      },
      {
        "midi": 79,
        "time": 401.25,
        "duration": 0.25,
        "velocity": 0.71,
        "hand": "right"
      },
      {
        "midi": 93,
        "time": 401.25,
        "duration": 0.25,
        "velocity": 0.71,
        "hand": "right"
      },
      {
        "midi": 45,
        "time": 401.5,
        "duration": 0.25,
        "velocity": 0.71,
        "hand": "left"
      },
      {
        "midi": 67,
        "time": 401.5,
        "duration": 0.25,
        "velocity": 0.71,
        "hand": "right"
      },
      {
        "midi": 81,
        "time": 401.5,
        "duration": 0.25,
        "velocity": 0.71,
        "hand": "right"
      },
      {
        "midi": 45,
        "time": 401.75,
        "duration": 0.25,
        "velocity": 0.71,
        "hand": "left"
      },
      {
        "midi": 64,
        "time": 401.75,
        "duration": 0.25,
        "velocity": 0.71,
        "hand": "right"
      },
      {
        "midi": 69,
        "time": 401.75,
        "duration": 0.25,
        "velocity": 0.71,
        "hand": "right"
      },
      {
        "midi": 68,
        "time": 402,
        "duration": 0.25,
        "velocity": 0.48,
        "hand": "right"
      },
      {
        "midi": 69,
        "time": 402,
        "duration": 0.25,
        "velocity": 0.48,
        "hand": "right"
      },
      {
        "midi": 70,
        "time": 402,
        "duration": 0.25,
        "velocity": 0.54,
        "hand": "right"
      },
      {
        "midi": 70,
        "time": 402.5,
        "duration": 0.5,
        "velocity": 0.48,
        "hand": "right"
      },
      {
        "midi": 74,
        "time": 403,
        "duration": 0.5,
        "velocity": 0.48,
        "hand": "right"
      },
      {
        "midi": 57,
        "time": 403.5,
        "duration": 0.5,
        "velocity": 0.71,
        "hand": "left"
      },
      {
        "midi": 73,
        "time": 403.5,
        "duration": 0.5,
        "velocity": 0.48,
        "hand": "right"
      },
      {
        "midi": 58,
        "time": 404,
        "duration": 0.5,
        "velocity": 0.71,
        "hand": "left"
      },
      {
        "midi": 67,
        "time": 404,
        "duration": 0.5,
        "velocity": 0.48,
        "hand": "right"
      },
      {
        "midi": 62,
        "time": 404.5,
        "duration": 0.5,
        "velocity": 0.71,
        "hand": "right"
      },
      {
        "midi": 70,
        "time": 404.5,
        "duration": 0.5,
        "velocity": 0.48,
        "hand": "right"
      },
      {
        "midi": 61,
        "time": 405,
        "duration": 0.5,
        "velocity": 0.71,
        "hand": "right"
      },
      {
        "midi": 69,
        "time": 405,
        "duration": 0.5,
        "velocity": 0.48,
        "hand": "right"
      },
      {
        "midi": 55,
        "time": 405.5,
        "duration": 0.5,
        "velocity": 0.71,
        "hand": "left"
      },
      {
        "midi": 70,
        "time": 405.5,
        "duration": 0.5,
        "velocity": 0.48,
        "hand": "right"
      },
      {
        "midi": 58,
        "time": 406,
        "duration": 0.5,
        "velocity": 0.71,
        "hand": "left"
      },
      {
        "midi": 74,
        "time": 406,
        "duration": 0.5,
        "velocity": 0.48,
        "hand": "right"
      },
      {
        "midi": 57,
        "time": 406.5,
        "duration": 0.5,
        "velocity": 0.71,
        "hand": "left"
      },
      {
        "midi": 73,
        "time": 406.5,
        "duration": 0.5,
        "velocity": 0.48,
        "hand": "right"
      },
      {
        "midi": 58,
        "time": 407,
        "duration": 0.5,
        "velocity": 0.71,
        "hand": "left"
      },
      {
        "midi": 67,
        "time": 407,
        "duration": 0.5,
        "velocity": 0.48,
        "hand": "right"
      },
      {
        "midi": 62,
        "time": 407.5,
        "duration": 0.5,
        "velocity": 0.71,
        "hand": "right"
      },
      {
        "midi": 70,
        "time": 407.5,
        "duration": 0.5,
        "velocity": 0.48,
        "hand": "right"
      },
      {
        "midi": 61,
        "time": 408,
        "duration": 0.5,
        "velocity": 0.71,
        "hand": "right"
      },
      {
        "midi": 60,
        "time": 408.5,
        "duration": 0.5,
        "velocity": 0.71,
        "hand": "right"
      },
      {
        "midi": 69,
        "time": 408.5,
        "duration": 0.25,
        "velocity": 0.71,
        "hand": "right"
      },
      {
        "midi": 70,
        "time": 408.75,
        "duration": 0.25,
        "velocity": 0.71,
        "hand": "right"
      },
      {
        "midi": 58,
        "time": 409,
        "duration": 1,
        "velocity": 0.71,
        "hand": "left"
      },
      {
        "midi": 67,
        "time": 409,
        "duration": 0.5,
        "velocity": 0.71,
        "hand": "right"
      },
      {
        "midi": 69,
        "time": 409,
        "duration": 0.25,
        "velocity": 0.71,
        "hand": "right"
      },
      {
        "midi": 70,
        "time": 409.25,
        "duration": 0.25,
        "velocity": 0.71,
        "hand": "right"
      },
      {
        "midi": 60,
        "time": 409.5,
        "duration": 0.5,
        "velocity": 0.71,
        "hand": "right"
      },
      {
        "midi": 72,
        "time": 409.5,
        "duration": 0.5,
        "velocity": 0.71,
        "hand": "right"
      },
      {
        "midi": 57,
        "time": 410,
        "duration": 0.5,
        "velocity": 0.71,
        "hand": "left"
      },
      {
        "midi": 62,
        "time": 410,
        "duration": 0.5,
        "velocity": 0.71,
        "hand": "right"
      },
      {
        "midi": 72,
        "time": 410,
        "duration": 0.5,
        "velocity": 0.71,
        "hand": "right"
      },
      {
        "midi": 50,
        "time": 410.5,
        "duration": 0.5,
        "velocity": 0.71,
        "hand": "left"
      },
      {
        "midi": 65,
        "time": 410.5,
        "duration": 0.5,
        "velocity": 0.71,
        "hand": "right"
      },
      {
        "midi": 72,
        "time": 410.5,
        "duration": 0.5,
        "velocity": 0.71,
        "hand": "right"
      },
      {
        "midi": 55,
        "time": 411,
        "duration": 0.5,
        "velocity": 0.71,
        "hand": "left"
      },
      {
        "midi": 65,
        "time": 411,
        "duration": 1,
        "velocity": 0.71,
        "hand": "right"
      },
      {
        "midi": 72,
        "time": 411,
        "duration": 0.5,
        "velocity": 0.71,
        "hand": "right"
      },
      {
        "midi": 43,
        "time": 411.5,
        "duration": 0.5,
        "velocity": 0.71,
        "hand": "left"
      },
      {
        "midi": 62,
        "time": 411.5,
        "duration": 0.5,
        "velocity": 0.71,
        "hand": "right"
      },
      {
        "midi": 70,
        "time": 411.5,
        "duration": 0.25,
        "velocity": 0.71,
        "hand": "right"
      },
      {
        "midi": 69,
        "time": 411.75,
        "duration": 0.25,
        "velocity": 0.71,
        "hand": "right"
      },
      {
        "midi": 48,
        "time": 412,
        "duration": 1,
        "velocity": 0.71,
        "hand": "left"
      },
      {
        "midi": 64,
        "time": 412,
        "duration": 0.5,
        "velocity": 0.71,
        "hand": "right"
      },
      {
        "midi": 67,
        "time": 412,
        "duration": 0.25,
        "velocity": 0.71,
        "hand": "right"
      },
      {
        "midi": 69,
        "time": 412.25,
        "duration": 0.25,
        "velocity": 0.71,
        "hand": "right"
      },
      {
        "midi": 41,
        "time": 412.5,
        "duration": 0.5,
        "velocity": 0.71,
        "hand": "left"
      },
      {
        "midi": 57,
        "time": 412.5,
        "duration": 0.5,
        "velocity": 0.71,
        "hand": "left"
      },
      {
        "midi": 65,
        "time": 412.5,
        "duration": 0.5,
        "velocity": 0.71,
        "hand": "right"
      },
      {
        "midi": 49,
        "time": 413,
        "duration": 0.5,
        "velocity": 0.71,
        "hand": "left"
      },
      {
        "midi": 53,
        "time": 413.5,
        "duration": 0.5,
        "velocity": 0.71,
        "hand": "left"
      },
      {
        "midi": 52,
        "time": 414,
        "duration": 0.5,
        "velocity": 0.71,
        "hand": "left"
      },
      {
        "midi": 60,
        "time": 414,
        "duration": 0.5,
        "velocity": 0.71,
        "hand": "right"
      },
      {
        "midi": 46,
        "time": 414.5,
        "duration": 0.5,
        "velocity": 0.71,
        "hand": "left"
      },
      {
        "midi": 61,
        "time": 414.5,
        "duration": 0.5,
        "velocity": 0.71,
        "hand": "right"
      },
      {
        "midi": 49,
        "time": 415,
        "duration": 0.5,
        "velocity": 0.71,
        "hand": "left"
      },
      {
        "midi": 65,
        "time": 415,
        "duration": 0.5,
        "velocity": 0.71,
        "hand": "right"
      },
      {
        "midi": 48,
        "time": 415.5,
        "duration": 0.5,
        "velocity": 0.71,
        "hand": "left"
      },
      {
        "midi": 64,
        "time": 415.5,
        "duration": 0.5,
        "velocity": 0.71,
        "hand": "right"
      },
      {
        "midi": 72,
        "time": 415.5,
        "duration": 0.5,
        "velocity": 0.71,
        "hand": "right"
      },
      {
        "midi": 58,
        "time": 416,
        "duration": 0.5,
        "velocity": 0.71,
        "hand": "left"
      },
      {
        "midi": 73,
        "time": 416,
        "duration": 0.5,
        "velocity": 0.71,
        "hand": "right"
      },
      {
        "midi": 61,
        "time": 416.5,
        "duration": 0.5,
        "velocity": 0.71,
        "hand": "right"
      },
      {
        "midi": 77,
        "time": 416.5,
        "duration": 0.5,
        "velocity": 0.71,
        "hand": "right"
      },
      {
        "midi": 60,
        "time": 417,
        "duration": 0.5,
        "velocity": 0.71,
        "hand": "right"
      },
      {
        "midi": 76,
        "time": 417,
        "duration": 0.5,
        "velocity": 0.71,
        "hand": "right"
      },
      {
        "midi": 61,
        "time": 417.5,
        "duration": 0.5,
        "velocity": 0.71,
        "hand": "right"
      },
      {
        "midi": 70,
        "time": 417.5,
        "duration": 0.5,
        "velocity": 0.71,
        "hand": "right"
      },
      {
        "midi": 65,
        "time": 418,
        "duration": 0.5,
        "velocity": 0.71,
        "hand": "right"
      },
      {
        "midi": 73,
        "time": 418,
        "duration": 0.5,
        "velocity": 0.71,
        "hand": "right"
      },
      {
        "midi": 64,
        "time": 418.5,
        "duration": 0.5,
        "velocity": 0.71,
        "hand": "right"
      },
      {
        "midi": 63,
        "time": 419,
        "duration": 0.5,
        "velocity": 0.71,
        "hand": "right"
      },
      {
        "midi": 72,
        "time": 419,
        "duration": 0.25,
        "velocity": 0.71,
        "hand": "right"
      },
      {
        "midi": 73,
        "time": 419.25,
        "duration": 0.25,
        "velocity": 0.71,
        "hand": "right"
      },
      {
        "midi": 61,
        "time": 419.5,
        "duration": 1,
        "velocity": 0.71,
        "hand": "right"
      },
      {
        "midi": 70,
        "time": 419.5,
        "duration": 0.5,
        "velocity": 0.71,
        "hand": "right"
      },
      {
        "midi": 72,
        "time": 419.5,
        "duration": 0.25,
        "velocity": 0.71,
        "hand": "right"
      },
      {
        "midi": 73,
        "time": 419.75,
        "duration": 0.25,
        "velocity": 0.71,
        "hand": "right"
      },
      {
        "midi": 63,
        "time": 420,
        "duration": 0.5,
        "velocity": 0.71,
        "hand": "right"
      },
      {
        "midi": 75,
        "time": 420,
        "duration": 0.5,
        "velocity": 0.71,
        "hand": "right"
      },
      {
        "midi": 60,
        "time": 420.5,
        "duration": 0.5,
        "velocity": 0.71,
        "hand": "right"
      },
      {
        "midi": 65,
        "time": 420.5,
        "duration": 0.5,
        "velocity": 0.71,
        "hand": "right"
      },
      {
        "midi": 75,
        "time": 420.5,
        "duration": 0.5,
        "velocity": 0.71,
        "hand": "right"
      },
      {
        "midi": 53,
        "time": 421,
        "duration": 0.5,
        "velocity": 0.71,
        "hand": "left"
      },
      {
        "midi": 68,
        "time": 421,
        "duration": 0.5,
        "velocity": 0.71,
        "hand": "right"
      },
      {
        "midi": 75,
        "time": 421,
        "duration": 0.5,
        "velocity": 0.71,
        "hand": "right"
      },
      {
        "midi": 58,
        "time": 421.5,
        "duration": 0.5,
        "velocity": 0.71,
        "hand": "left"
      },
      {
        "midi": 68,
        "time": 421.5,
        "duration": 1,
        "velocity": 0.71,
        "hand": "right"
      },
      {
        "midi": 75,
        "time": 421.5,
        "duration": 0.5,
        "velocity": 0.71,
        "hand": "right"
      },
      {
        "midi": 46,
        "time": 422,
        "duration": 0.5,
        "velocity": 0.71,
        "hand": "left"
      },
      {
        "midi": 65,
        "time": 422,
        "duration": 0.5,
        "velocity": 0.71,
        "hand": "right"
      },
      {
        "midi": 73,
        "time": 422,
        "duration": 0.25,
        "velocity": 0.71,
        "hand": "right"
      },
      {
        "midi": 72,
        "time": 422.25,
        "duration": 0.25,
        "velocity": 0.71,
        "hand": "right"
      },
      {
        "midi": 51,
        "time": 422.5,
        "duration": 1,
        "velocity": 0.71,
        "hand": "left"
      },
      {
        "midi": 67,
        "time": 422.5,
        "duration": 0.5,
        "velocity": 0.71,
        "hand": "right"
      },
      {
        "midi": 70,
        "time": 422.5,
        "duration": 0.25,
        "velocity": 0.71,
        "hand": "right"
      },
      {
        "midi": 72,
        "time": 422.75,
        "duration": 0.25,
        "velocity": 0.71,
        "hand": "right"
      },
      {
        "midi": 44,
        "time": 423,
        "duration": 0.5,
        "velocity": 0.71,
        "hand": "left"
      },
      {
        "midi": 60,
        "time": 423,
        "duration": 0.5,
        "velocity": 0.71,
        "hand": "right"
      },
      {
        "midi": 68,
        "time": 423,
        "duration": 0.5,
        "velocity": 0.71,
        "hand": "right"
      },
      {
        "midi": 52,
        "time": 423.5,
        "duration": 0.5,
        "velocity": 0.71,
        "hand": "left"
      },
      {
        "midi": 56,
        "time": 424,
        "duration": 0.5,
        "velocity": 0.71,
        "hand": "left"
      },
      {
        "midi": 55,
        "time": 424.5,
        "duration": 0.5,
        "velocity": 0.71,
        "hand": "left"
      },
      {
        "midi": 63,
        "time": 424.5,
        "duration": 0.5,
        "velocity": 0.71,
        "hand": "right"
      },
      {
        "midi": 49,
        "time": 425,
        "duration": 0.5,
        "velocity": 0.71,
        "hand": "left"
      },
      {
        "midi": 64,
        "time": 425,
        "duration": 0.5,
        "velocity": 0.71,
        "hand": "right"
      },
      {
        "midi": 52,
        "time": 425.5,
        "duration": 0.5,
        "velocity": 0.71,
        "hand": "left"
      },
      {
        "midi": 68,
        "time": 425.5,
        "duration": 0.5,
        "velocity": 0.71,
        "hand": "right"
      },
      {
        "midi": 51,
        "time": 426,
        "duration": 0.5,
        "velocity": 0.71,
        "hand": "left"
      },
      {
        "midi": 67,
        "time": 426,
        "duration": 0.5,
        "velocity": 0.71,
        "hand": "right"
      },
      {
        "midi": 75,
        "time": 426,
        "duration": 0.5,
        "velocity": 0.71,
        "hand": "right"
      },
      {
        "midi": 68,
        "time": 426.5,
        "duration": 0.5,
        "velocity": 0.71,
        "hand": "right"
      },
      {
        "midi": 76,
        "time": 426.5,
        "duration": 0.5,
        "velocity": 0.71,
        "hand": "right"
      },
      {
        "midi": 62,
        "time": 427,
        "duration": 0.5,
        "velocity": 0.71,
        "hand": "right"
      },
      {
        "midi": 71,
        "time": 427,
        "duration": 0.5,
        "velocity": 0.71,
        "hand": "right"
      },
      {
        "midi": 80,
        "time": 427,
        "duration": 0.5,
        "velocity": 0.71,
        "hand": "right"
      },
      {
        "midi": 63,
        "time": 427.5,
        "duration": 0.5,
        "velocity": 0.71,
        "hand": "right"
      },
      {
        "midi": 70,
        "time": 427.5,
        "duration": 0.5,
        "velocity": 0.71,
        "hand": "right"
      },
      {
        "midi": 79,
        "time": 427.5,
        "duration": 0.5,
        "velocity": 0.71,
        "hand": "right"
      },
      {
        "midi": 64,
        "time": 428,
        "duration": 0.5,
        "velocity": 0.71,
        "hand": "right"
      },
      {
        "midi": 69,
        "time": 428,
        "duration": 0.5,
        "velocity": 0.71,
        "hand": "right"
      },
      {
        "midi": 73,
        "time": 428,
        "duration": 0.5,
        "velocity": 0.71,
        "hand": "right"
      },
      {
        "midi": 68,
        "time": 428.5,
        "duration": 0.5,
        "velocity": 0.71,
        "hand": "right"
      },
      {
        "midi": 76,
        "time": 428.5,
        "duration": 0.5,
        "velocity": 0.71,
        "hand": "right"
      },
      {
        "midi": 67,
        "time": 429,
        "duration": 0.5,
        "velocity": 0.71,
        "hand": "right"
      },
      {
        "midi": 66,
        "time": 429.5,
        "duration": 0.5,
        "velocity": 0.71,
        "hand": "right"
      },
      {
        "midi": 75,
        "time": 429.5,
        "duration": 0.25,
        "velocity": 0.71,
        "hand": "right"
      },
      {
        "midi": 76,
        "time": 429.75,
        "duration": 0.25,
        "velocity": 0.71,
        "hand": "right"
      },
      {
        "midi": 64,
        "time": 430,
        "duration": 0.5,
        "velocity": 0.71,
        "hand": "right"
      },
      {
        "midi": 73,
        "time": 430,
        "duration": 0.5,
        "velocity": 0.71,
        "hand": "right"
      },
      {
        "midi": 75,
        "time": 430,
        "duration": 0.25,
        "velocity": 0.71,
        "hand": "right"
      },
      {
        "midi": 76,
        "time": 430.25,
        "duration": 0.25,
        "velocity": 0.71,
        "hand": "right"
      },
      {
        "midi": 63,
        "time": 430.5,
        "duration": 0.5,
        "velocity": 0.71,
        "hand": "right"
      },
      {
        "midi": 66,
        "time": 430.5,
        "duration": 0.5,
        "velocity": 0.71,
        "hand": "right"
      },
      {
        "midi": 78,
        "time": 430.5,
        "duration": 0.5,
        "velocity": 0.71,
        "hand": "right"
      },
      {
        "midi": 62,
        "time": 431,
        "duration": 0.5,
        "velocity": 0.71,
        "hand": "right"
      },
      {
        "midi": 71,
        "time": 431,
        "duration": 0.5,
        "velocity": 0.71,
        "hand": "right"
      },
      {
        "midi": 78,
        "time": 431,
        "duration": 0.5,
        "velocity": 0.71,
        "hand": "right"
      },
      {
        "midi": 61,
        "time": 431.5,
        "duration": 0.5,
        "velocity": 0.71,
        "hand": "right"
      },
      {
        "midi": 70,
        "time": 431.5,
        "duration": 0.5,
        "velocity": 0.71,
        "hand": "right"
      },
      {
        "midi": 78,
        "time": 431.5,
        "duration": 0.5,
        "velocity": 0.71,
        "hand": "right"
      },
      {
        "midi": 60,
        "time": 432,
        "duration": 0.5,
        "velocity": 0.71,
        "hand": "right"
      },
      {
        "midi": 69,
        "time": 432,
        "duration": 1.5,
        "velocity": 0.71,
        "hand": "right"
      },
      {
        "midi": 78,
        "time": 432,
        "duration": 0.5,
        "velocity": 0.71,
        "hand": "right"
      },
      {
        "midi": 53,
        "time": 432.5,
        "duration": 0.5,
        "velocity": 0.71,
        "hand": "left"
      },
      {
        "midi": 77,
        "time": 432.5,
        "duration": 0.25,
        "velocity": 0.71,
        "hand": "right"
      },
      {
        "midi": 72,
        "time": 432.75,
        "duration": 0.25,
        "velocity": 0.71,
        "hand": "right"
      },
      {
        "midi": 65,
        "time": 433,
        "duration": 0.5,
        "velocity": 0.71,
        "hand": "right"
      },
      {
        "midi": 75,
        "time": 433,
        "duration": 0.25,
        "velocity": 0.71,
        "hand": "right"
      },
      {
        "midi": 73,
        "time": 433.25,
        "duration": 0.25,
        "velocity": 0.71,
        "hand": "right"
      },
      {
        "midi": 46,
        "time": 433.5,
        "duration": 0.5,
        "velocity": 0.71,
        "hand": "left"
      },
      {
        "midi": 70,
        "time": 433.5,
        "duration": 0.5,
        "velocity": 0.71,
        "hand": "right"
      },
      {
        "midi": 53,
        "time": 434,
        "duration": 0.5,
        "velocity": 0.71,
        "hand": "left"
      },
      {
        "midi": 61,
        "time": 434,
        "duration": 0.5,
        "velocity": 0.71,
        "hand": "right"
      },
      {
        "midi": 44,
        "time": 434.5,
        "duration": 0.5,
        "velocity": 0.71,
        "hand": "left"
      },
      {
        "midi": 42,
        "time": 435,
        "duration": 0.5,
        "velocity": 0.71,
        "hand": "left"
      },
      {
        "midi": 49,
        "time": 435.5,
        "duration": 0.5,
        "velocity": 0.71,
        "hand": "left"
      },
      {
        "midi": 58,
        "time": 435.5,
        "duration": 0.5,
        "velocity": 0.71,
        "hand": "left"
      },
      {
        "midi": 73,
        "time": 435.5,
        "duration": 0.25,
        "velocity": 0.71,
        "hand": "right"
      },
      {
        "midi": 75,
        "time": 435.75,
        "duration": 0.25,
        "velocity": 0.71,
        "hand": "right"
      },
      {
        "midi": 54,
        "time": 436,
        "duration": 0.5,
        "velocity": 0.71,
        "hand": "left"
      },
      {
        "midi": 61,
        "time": 436,
        "duration": 0.5,
        "velocity": 0.71,
        "hand": "right"
      },
      {
        "midi": 73,
        "time": 436,
        "duration": 0.25,
        "velocity": 0.71,
        "hand": "right"
      },
      {
        "midi": 75,
        "time": 436.25,
        "duration": 0.25,
        "velocity": 0.71,
        "hand": "right"
      },
      {
        "midi": 37,
        "time": 436.5,
        "duration": 0.5,
        "velocity": 0.71,
        "hand": "left"
      },
      {
        "midi": 77,
        "time": 436.5,
        "duration": 0.5,
        "velocity": 0.71,
        "hand": "right"
      },
      {
        "midi": 53,
        "time": 437,
        "duration": 0.5,
        "velocity": 0.71,
        "hand": "left"
      },
      {
        "midi": 61,
        "time": 437,
        "duration": 0.5,
        "velocity": 0.71,
        "hand": "right"
      },
      {
        "midi": 77,
        "time": 437,
        "duration": 0.5,
        "velocity": 0.71,
        "hand": "right"
      },
      {
        "midi": 56,
        "time": 437.5,
        "duration": 0.5,
        "velocity": 0.71,
        "hand": "left"
      },
      {
        "midi": 65,
        "time": 437.5,
        "duration": 0.5,
        "velocity": 0.71,
        "hand": "right"
      },
      {
        "midi": 77,
        "time": 437.5,
        "duration": 0.5,
        "velocity": 0.71,
        "hand": "right"
      },
      {
        "midi": 39,
        "time": 438,
        "duration": 0.5,
        "velocity": 0.71,
        "hand": "left"
      },
      {
        "midi": 77,
        "time": 438,
        "duration": 0.5,
        "velocity": 0.71,
        "hand": "right"
      },
      {
        "midi": 51,
        "time": 438.5,
        "duration": 0.5,
        "velocity": 0.71,
        "hand": "left"
      },
      {
        "midi": 60,
        "time": 438.5,
        "duration": 0.5,
        "velocity": 0.71,
        "hand": "right"
      },
      {
        "midi": 75,
        "time": 438.5,
        "duration": 0.25,
        "velocity": 0.71,
        "hand": "right"
      },
      {
        "midi": 70,
        "time": 438.75,
        "duration": 0.25,
        "velocity": 0.71,
        "hand": "right"
      },
      {
        "midi": 58,
        "time": 439,
        "duration": 0.5,
        "velocity": 0.71,
        "hand": "left"
      },
      {
        "midi": 66,
        "time": 439,
        "duration": 0.5,
        "velocity": 0.71,
        "hand": "right"
      },
      {
        "midi": 73,
        "time": 439,
        "duration": 0.25,
        "velocity": 0.71,
        "hand": "right"
      },
      {
        "midi": 72,
        "time": 439.25,
        "duration": 0.25,
        "velocity": 0.71,
        "hand": "right"
      },
      {
        "midi": 41,
        "time": 439.5,
        "duration": 0.5,
        "velocity": 0.71,
        "hand": "left"
      },
      {
        "midi": 69,
        "time": 439.5,
        "duration": 0.5,
        "velocity": 0.71,
        "hand": "right"
      },
      {
        "midi": 60,
        "time": 440,
        "duration": 0.5,
        "velocity": 0.71,
        "hand": "right"
      },
      {
        "midi": 69,
        "time": 440,
        "duration": 0.5,
        "velocity": 0.71,
        "hand": "right"
      },
      {
        "midi": 72,
        "time": 440,
        "duration": 0.5,
        "velocity": 0.71,
        "hand": "right"
      },
      {
        "midi": 57,
        "time": 440.5,
        "duration": 0.5,
        "velocity": 0.71,
        "hand": "left"
      },
      {
        "midi": 65,
        "time": 440.5,
        "duration": 0.5,
        "velocity": 0.71,
        "hand": "right"
      },
      {
        "midi": 77,
        "time": 440.5,
        "duration": 0.5,
        "velocity": 0.71,
        "hand": "right"
      },
      {
        "midi": 53,
        "time": 441,
        "duration": 0.5,
        "velocity": 0.71,
        "hand": "left"
      },
      {
        "midi": 76,
        "time": 441,
        "duration": 0.5,
        "velocity": 0.71,
        "hand": "right"
      },
      {
        "midi": 61,
        "time": 441.5,
        "duration": 0.5,
        "velocity": 0.71,
        "hand": "right"
      },
      {
        "midi": 67,
        "time": 441.5,
        "duration": 0.5,
        "velocity": 0.71,
        "hand": "right"
      },
      {
        "midi": 70,
        "time": 441.5,
        "duration": 0.5,
        "velocity": 0.71,
        "hand": "right"
      },
      {
        "midi": 58,
        "time": 442,
        "duration": 0.5,
        "velocity": 0.71,
        "hand": "left"
      },
      {
        "midi": 64,
        "time": 442,
        "duration": 0.5,
        "velocity": 0.71,
        "hand": "right"
      },
      {
        "midi": 73,
        "time": 442,
        "duration": 0.5,
        "velocity": 0.71,
        "hand": "right"
      },
      {
        "midi": 41,
        "time": 442.5,
        "duration": 0.5,
        "velocity": 0.71,
        "hand": "left"
      },
      {
        "midi": 60,
        "time": 443,
        "duration": 0.5,
        "velocity": 0.71,
        "hand": "right"
      },
      {
        "midi": 69,
        "time": 443,
        "duration": 0.5,
        "velocity": 0.71,
        "hand": "right"
      },
      {
        "midi": 72,
        "time": 443,
        "duration": 0.5,
        "velocity": 0.71,
        "hand": "right"
      },
      {
        "midi": 57,
        "time": 443.5,
        "duration": 0.5,
        "velocity": 0.71,
        "hand": "left"
      },
      {
        "midi": 65,
        "time": 443.5,
        "duration": 0.5,
        "velocity": 0.71,
        "hand": "right"
      },
      {
        "midi": 77,
        "time": 443.5,
        "duration": 0.75,
        "velocity": 0.71,
        "hand": "right"
      },
      {
        "midi": 53,
        "time": 444,
        "duration": 0.5,
        "velocity": 0.71,
        "hand": "left"
      },
      {
        "midi": 76,
        "time": 444.25,
        "duration": 0.25,
        "velocity": 0.71,
        "hand": "right"
      },
      {
        "midi": 61,
        "time": 444.5,
        "duration": 0.5,
        "velocity": 0.71,
        "hand": "right"
      },
      {
        "midi": 67,
        "time": 444.5,
        "duration": 0.5,
        "velocity": 0.71,
        "hand": "right"
      },
      {
        "midi": 70,
        "time": 444.5,
        "duration": 0.25,
        "velocity": 0.71,
        "hand": "right"
      },
      {
        "midi": 72,
        "time": 444.75,
        "duration": 0.25,
        "velocity": 0.71,
        "hand": "right"
      },
      {
        "midi": 58,
        "time": 445,
        "duration": 0.5,
        "velocity": 0.71,
        "hand": "left"
      },
      {
        "midi": 64,
        "time": 445,
        "duration": 0.5,
        "velocity": 0.71,
        "hand": "right"
      },
      {
        "midi": 75,
        "time": 445,
        "duration": 0.25,
        "velocity": 0.71,
        "hand": "right"
      },
      {
        "midi": 73,
        "time": 445.25,
        "duration": 0.25,
        "velocity": 0.71,
        "hand": "right"
      },
      {
        "midi": 41,
        "time": 445.5,
        "duration": 0.5,
        "velocity": 0.71,
        "hand": "left"
      },
      {
        "midi": 60,
        "time": 446,
        "duration": 0.5,
        "velocity": 0.71,
        "hand": "right"
      },
      {
        "midi": 66,
        "time": 446,
        "duration": 0.5,
        "velocity": 0.71,
        "hand": "right"
      },
      {
        "midi": 72,
        "time": 446,
        "duration": 0.25,
        "velocity": 0.71,
        "hand": "right"
      },
      {
        "midi": 73,
        "time": 446.25,
        "duration": 0.25,
        "velocity": 0.71,
        "hand": "right"
      },
      {
        "midi": 54,
        "time": 446.5,
        "duration": 0.5,
        "velocity": 0.71,
        "hand": "left"
      },
      {
        "midi": 63,
        "time": 446.5,
        "duration": 0.5,
        "velocity": 0.71,
        "hand": "right"
      },
      {
        "midi": 72,
        "time": 446.5,
        "duration": 0.25,
        "velocity": 0.71,
        "hand": "right"
      },
      {
        "midi": 73,
        "time": 446.75,
        "duration": 0.25,
        "velocity": 0.71,
        "hand": "right"
      },
      {
        "midi": 53,
        "time": 447,
        "duration": 0.5,
        "velocity": 0.71,
        "hand": "left"
      },
      {
        "midi": 75,
        "time": 447,
        "duration": 0.5,
        "velocity": 0.71,
        "hand": "right"
      },
      {
        "midi": 63,
        "time": 447.5,
        "duration": 0.5,
        "velocity": 0.71,
        "hand": "right"
      },
      {
        "midi": 70,
        "time": 447.5,
        "duration": 0.5,
        "velocity": 0.71,
        "hand": "right"
      },
      {
        "midi": 75,
        "time": 447.5,
        "duration": 0.5,
        "velocity": 0.71,
        "hand": "right"
      },
      {
        "midi": 60,
        "time": 448,
        "duration": 0.5,
        "velocity": 0.71,
        "hand": "right"
      },
      {
        "midi": 66,
        "time": 448,
        "duration": 0.5,
        "velocity": 0.71,
        "hand": "right"
      },
      {
        "midi": 75,
        "time": 448,
        "duration": 0.5,
        "velocity": 0.71,
        "hand": "right"
      },
      {
        "midi": 41,
        "time": 448.5,
        "duration": 0.5,
        "velocity": 0.71,
        "hand": "left"
      },
      {
        "midi": 75,
        "time": 448.5,
        "duration": 0.5,
        "velocity": 0.71,
        "hand": "right"
      },
      {
        "midi": 63,
        "time": 449,
        "duration": 0.5,
        "velocity": 0.71,
        "hand": "right"
      },
      {
        "midi": 69,
        "time": 449,
        "duration": 0.5,
        "velocity": 0.71,
        "hand": "right"
      },
      {
        "midi": 77,
        "time": 449,
        "duration": 0.25,
        "velocity": 0.71,
        "hand": "right"
      },
      {
        "midi": 72,
        "time": 449.25,
        "duration": 0.25,
        "velocity": 0.71,
        "hand": "right"
      },
      {
        "midi": 57,
        "time": 449.5,
        "duration": 0.5,
        "velocity": 0.71,
        "hand": "left"
      },
      {
        "midi": 65,
        "time": 449.5,
        "duration": 0.5,
        "velocity": 0.71,
        "hand": "right"
      },
      {
        "midi": 75,
        "time": 449.5,
        "duration": 0.25,
        "velocity": 0.71,
        "hand": "right"
      },
      {
        "midi": 73,
        "time": 449.75,
        "duration": 0.25,
        "velocity": 0.71,
        "hand": "right"
      },
      {
        "midi": 46,
        "time": 450,
        "duration": 0.5,
        "velocity": 0.71,
        "hand": "left"
      },
      {
        "midi": 70,
        "time": 450,
        "duration": 1.5,
        "velocity": 0.71,
        "hand": "right"
      },
      {
        "midi": 58,
        "time": 450.5,
        "duration": 0.5,
        "velocity": 0.71,
        "hand": "left"
      },
      {
        "midi": 61,
        "time": 450.5,
        "duration": 0.5,
        "velocity": 0.71,
        "hand": "right"
      },
      {
        "midi": 65,
        "time": 450.5,
        "duration": 0.5,
        "velocity": 0.71,
        "hand": "right"
      },
      {
        "midi": 53,
        "time": 451,
        "duration": 0.5,
        "velocity": 0.71,
        "hand": "left"
      },
      {
        "midi": 58,
        "time": 451,
        "duration": 0.5,
        "velocity": 0.71,
        "hand": "left"
      },
      {
        "midi": 61,
        "time": 451,
        "duration": 0.5,
        "velocity": 0.71,
        "hand": "right"
      },
      {
        "midi": 48,
        "time": 451.5,
        "duration": 0.5,
        "velocity": 0.71,
        "hand": "left"
      },
      {
        "midi": 67,
        "time": 451.5,
        "duration": 1,
        "velocity": 0.71,
        "hand": "right"
      },
      {
        "midi": 58,
        "time": 452,
        "duration": 0.5,
        "velocity": 0.71,
        "hand": "left"
      },
      {
        "midi": 60,
        "time": 452,
        "duration": 0.5,
        "velocity": 0.71,
        "hand": "right"
      },
      {
        "midi": 64,
        "time": 452,
        "duration": 0.5,
        "velocity": 0.71,
        "hand": "right"
      },
      {
        "midi": 55,
        "time": 452.5,
        "duration": 0.5,
        "velocity": 0.71,
        "hand": "left"
      },
      {
        "midi": 58,
        "time": 452.5,
        "duration": 0.5,
        "velocity": 0.71,
        "hand": "left"
      },
      {
        "midi": 60,
        "time": 452.5,
        "duration": 0.5,
        "velocity": 0.71,
        "hand": "right"
      },
      {
        "midi": 41,
        "time": 453,
        "duration": 0.25,
        "velocity": 0.71,
        "hand": "left"
      },
      {
        "midi": 48,
        "time": 453.25,
        "duration": 0.25,
        "velocity": 0.71,
        "hand": "left"
      },
      {
        "midi": 56,
        "time": 453.5,
        "duration": 0.25,
        "velocity": 0.71,
        "hand": "left"
      },
      {
        "midi": 72,
        "time": 453.5,
        "duration": 0.5,
        "velocity": 0.71,
        "hand": "right"
      },
      {
        "midi": 53,
        "time": 453.75,
        "duration": 0.25,
        "velocity": 0.71,
        "hand": "left"
      },
      {
        "midi": 60,
        "time": 454,
        "duration": 0.25,
        "velocity": 0.71,
        "hand": "right"
      },
      {
        "midi": 77,
        "time": 454,
        "duration": 0.75,
        "velocity": 0.71,
        "hand": "right"
      },
      {
        "midi": 68,
        "time": 454.25,
        "duration": 0.25,
        "velocity": 0.71,
        "hand": "right"
      },
      {
        "midi": 41,
        "time": 454.5,
        "duration": 0.25,
        "velocity": 0.71,
        "hand": "left"
      },
      {
        "midi": 49,
        "time": 454.75,
        "duration": 0.25,
        "velocity": 0.71,
        "hand": "left"
      },
      {
        "midi": 76,
        "time": 454.75,
        "duration": 0.25,
        "velocity": 0.71,
        "hand": "right"
      },
      {
        "midi": 55,
        "time": 455,
        "duration": 0.25,
        "velocity": 0.71,
        "hand": "left"
      },
      {
        "midi": 69,
        "time": 455,
        "duration": 0.25,
        "velocity": 0.71,
        "hand": "right"
      },
      {
        "midi": 70,
        "time": 455,
        "duration": 0.25,
        "velocity": 0.71,
        "hand": "right"
      },
      {
        "midi": 52,
        "time": 455.25,
        "duration": 0.25,
        "velocity": 0.71,
        "hand": "left"
      },
      {
        "midi": 71,
        "time": 455.25,
        "duration": 0.25,
        "velocity": 0.71,
        "hand": "right"
      },
      {
        "midi": 58,
        "time": 455.5,
        "duration": 0.25,
        "velocity": 0.71,
        "hand": "left"
      },
      {
        "midi": 72,
        "time": 455.5,
        "duration": 0.25,
        "velocity": 0.71,
        "hand": "right"
      },
      {
        "midi": 67,
        "time": 455.75,
        "duration": 0.25,
        "velocity": 0.71,
        "hand": "right"
      },
      {
        "midi": 73,
        "time": 455.75,
        "duration": 0.25,
        "velocity": 0.71,
        "hand": "right"
      },
      {
        "midi": 75,
        "time": 455.75,
        "duration": 0.25,
        "velocity": 0.71,
        "hand": "right"
      },
      {
        "midi": 41,
        "time": 456,
        "duration": 0.25,
        "velocity": 0.71,
        "hand": "left"
      },
      {
        "midi": 48,
        "time": 456.25,
        "duration": 0.25,
        "velocity": 0.71,
        "hand": "left"
      },
      {
        "midi": 72,
        "time": 456.25,
        "duration": 0.25,
        "velocity": 0.71,
        "hand": "right"
      },
      {
        "midi": 56,
        "time": 456.5,
        "duration": 0.25,
        "velocity": 0.71,
        "hand": "left"
      },
      {
        "midi": 71,
        "time": 456.5,
        "duration": 0.25,
        "velocity": 0.71,
        "hand": "right"
      },
      {
        "midi": 73,
        "time": 456.5,
        "duration": 0.25,
        "velocity": 0.71,
        "hand": "right"
      },
      {
        "midi": 53,
        "time": 456.75,
        "duration": 0.25,
        "velocity": 0.71,
        "hand": "left"
      },
      {
        "midi": 72,
        "time": 456.75,
        "duration": 0.25,
        "velocity": 0.71,
        "hand": "right"
      },
      {
        "midi": 60,
        "time": 457,
        "duration": 0.25,
        "velocity": 0.71,
        "hand": "right"
      },
      {
        "midi": 80,
        "time": 457,
        "duration": 0.25,
        "velocity": 0.71,
        "hand": "right"
      },
      {
        "midi": 68,
        "time": 457.25,
        "duration": 0.25,
        "velocity": 0.71,
        "hand": "right"
      },
      {
        "midi": 77,
        "time": 457.25,
        "duration": 0.25,
        "velocity": 0.71,
        "hand": "right"
      },
      {
        "midi": 79,
        "time": 457.25,
        "duration": 0.25,
        "velocity": 0.71,
        "hand": "right"
      },
      {
        "midi": 41,
        "time": 457.5,
        "duration": 0.25,
        "velocity": 0.71,
        "hand": "left"
      },
      {
        "midi": 77,
        "time": 457.5,
        "duration": 0.25,
        "velocity": 0.71,
        "hand": "right"
      },
      {
        "midi": 49,
        "time": 457.75,
        "duration": 0.25,
        "velocity": 0.71,
        "hand": "left"
      },
      {
        "midi": 76,
        "time": 457.75,
        "duration": 0.25,
        "velocity": 0.71,
        "hand": "right"
      },
      {
        "midi": 55,
        "time": 458,
        "duration": 0.25,
        "velocity": 0.71,
        "hand": "left"
      },
      {
        "midi": 52,
        "time": 458.25,
        "duration": 0.25,
        "velocity": 0.71,
        "hand": "left"
      },
      {
        "midi": 69,
        "time": 458.25,
        "duration": 0.25,
        "velocity": 0.71,
        "hand": "right"
      },
      {
        "midi": 70,
        "time": 458.25,
        "duration": 0.25,
        "velocity": 0.71,
        "hand": "right"
      },
      {
        "midi": 58,
        "time": 458.5,
        "duration": 0.25,
        "velocity": 0.71,
        "hand": "left"
      },
      {
        "midi": 71,
        "time": 458.5,
        "duration": 0.25,
        "velocity": 0.71,
        "hand": "right"
      },
      {
        "midi": 72,
        "time": 458.5,
        "duration": 0.25,
        "velocity": 0.71,
        "hand": "right"
      },
      {
        "midi": 67,
        "time": 458.75,
        "duration": 0.25,
        "velocity": 0.71,
        "hand": "right"
      },
      {
        "midi": 73,
        "time": 458.75,
        "duration": 0.25,
        "velocity": 0.71,
        "hand": "right"
      },
      {
        "midi": 75,
        "time": 458.75,
        "duration": 0.25,
        "velocity": 0.71,
        "hand": "right"
      },
      {
        "midi": 41,
        "time": 459,
        "duration": 0.25,
        "velocity": 0.71,
        "hand": "left"
      },
      {
        "midi": 48,
        "time": 459.25,
        "duration": 0.25,
        "velocity": 0.71,
        "hand": "left"
      },
      {
        "midi": 56,
        "time": 459.5,
        "duration": 0.25,
        "velocity": 0.71,
        "hand": "left"
      },
      {
        "midi": 72,
        "time": 459.5,
        "duration": 0.25,
        "velocity": 0.71,
        "hand": "right"
      },
      {
        "midi": 40,
        "time": 459.75,
        "duration": 0.25,
        "velocity": 0.71,
        "hand": "left"
      },
      {
        "midi": 72,
        "time": 459.75,
        "duration": 0.25,
        "velocity": 0.71,
        "hand": "right"
      },
      {
        "midi": 73,
        "time": 459.75,
        "duration": 0.25,
        "velocity": 0.71,
        "hand": "right"
      },
      {
        "midi": 48,
        "time": 460,
        "duration": 0.25,
        "velocity": 0.71,
        "hand": "left"
      },
      {
        "midi": 71,
        "time": 460,
        "duration": 0.25,
        "velocity": 0.71,
        "hand": "right"
      },
      {
        "midi": 56,
        "time": 460.25,
        "duration": 0.25,
        "velocity": 0.71,
        "hand": "left"
      },
      {
        "midi": 72,
        "time": 460.25,
        "duration": 0.25,
        "velocity": 0.71,
        "hand": "right"
      },
      {
        "midi": 73,
        "time": 460.25,
        "duration": 0.25,
        "velocity": 0.71,
        "hand": "right"
      },
      {
        "midi": 39,
        "time": 460.5,
        "duration": 0.25,
        "velocity": 0.71,
        "hand": "left"
      },
      {
        "midi": 74,
        "time": 460.5,
        "duration": 0.25,
        "velocity": 0.71,
        "hand": "right"
      },
      {
        "midi": 48,
        "time": 460.75,
        "duration": 0.25,
        "velocity": 0.71,
        "hand": "left"
      },
      {
        "midi": 75,
        "time": 460.75,
        "duration": 0.25,
        "velocity": 0.71,
        "hand": "right"
      },
      {
        "midi": 84,
        "time": 460.75,
        "duration": 0.25,
        "velocity": 0.71,
        "hand": "right"
      },
      {
        "midi": 56,
        "time": 461,
        "duration": 0.25,
        "velocity": 0.71,
        "hand": "left"
      },
      {
        "midi": 79,
        "time": 461,
        "duration": 0.25,
        "velocity": 0.71,
        "hand": "right"
      },
      {
        "midi": 82,
        "time": 461,
        "duration": 0.25,
        "velocity": 0.71,
        "hand": "right"
      },
      {
        "midi": 51,
        "time": 461.25,
        "duration": 0.25,
        "velocity": 0.71,
        "hand": "left"
      },
      {
        "midi": 80,
        "time": 461.25,
        "duration": 0.25,
        "velocity": 0.71,
        "hand": "right"
      },
      {
        "midi": 60,
        "time": 461.5,
        "duration": 0.25,
        "velocity": 0.71,
        "hand": "right"
      },
      {
        "midi": 72,
        "time": 461.5,
        "duration": 0.25,
        "velocity": 0.71,
        "hand": "right"
      },
      {
        "midi": 73,
        "time": 461.5,
        "duration": 0.25,
        "velocity": 0.71,
        "hand": "right"
      },
      {
        "midi": 68,
        "time": 461.75,
        "duration": 0.25,
        "velocity": 0.71,
        "hand": "right"
      },
      {
        "midi": 74,
        "time": 461.75,
        "duration": 0.25,
        "velocity": 0.71,
        "hand": "right"
      },
      {
        "midi": 75,
        "time": 461.75,
        "duration": 0.25,
        "velocity": 0.71,
        "hand": "right"
      },
      {
        "midi": 39,
        "time": 462,
        "duration": 0.25,
        "velocity": 0.71,
        "hand": "left"
      },
      {
        "midi": 76,
        "time": 462,
        "duration": 0.25,
        "velocity": 0.71,
        "hand": "right"
      },
      {
        "midi": 49,
        "time": 462.25,
        "duration": 0.25,
        "velocity": 0.71,
        "hand": "left"
      },
      {
        "midi": 77,
        "time": 462.25,
        "duration": 0.25,
        "velocity": 0.71,
        "hand": "right"
      },
      {
        "midi": 79,
        "time": 462.25,
        "duration": 0.25,
        "velocity": 0.71,
        "hand": "right"
      },
      {
        "midi": 55,
        "time": 462.5,
        "duration": 0.25,
        "velocity": 0.71,
        "hand": "left"
      },
      {
        "midi": 72,
        "time": 462.5,
        "duration": 0.25,
        "velocity": 0.71,
        "hand": "right"
      },
      {
        "midi": 75,
        "time": 462.5,
        "duration": 0.25,
        "velocity": 0.71,
        "hand": "right"
      },
      {
        "midi": 51,
        "time": 462.75,
        "duration": 0.25,
        "velocity": 0.71,
        "hand": "left"
      },
      {
        "midi": 75,
        "time": 462.75,
        "duration": 0.25,
        "velocity": 0.71,
        "hand": "right"
      },
      {
        "midi": 61,
        "time": 463,
        "duration": 0.25,
        "velocity": 0.71,
        "hand": "right"
      },
      {
        "midi": 65,
        "time": 463,
        "duration": 0.25,
        "velocity": 0.71,
        "hand": "right"
      },
      {
        "midi": 73,
        "time": 463,
        "duration": 0.25,
        "velocity": 0.71,
        "hand": "right"
      },
      {
        "midi": 63,
        "time": 463.25,
        "duration": 0.25,
        "velocity": 0.71,
        "hand": "right"
      },
      {
        "midi": 67,
        "time": 463.25,
        "duration": 0.25,
        "velocity": 0.71,
        "hand": "right"
      },
      {
        "midi": 70,
        "time": 463.25,
        "duration": 0.25,
        "velocity": 0.71,
        "hand": "right"
      },
      {
        "midi": 44,
        "time": 463.5,
        "duration": 0.25,
        "velocity": 0.71,
        "hand": "left"
      },
      {
        "midi": 68,
        "time": 463.5,
        "duration": 0.5,
        "velocity": 0.71,
        "hand": "right"
      },
      {
        "midi": 51,
        "time": 463.75,
        "duration": 0.25,
        "velocity": 0.71,
        "hand": "left"
      },
      {
        "midi": 60,
        "time": 464,
        "duration": 0.25,
        "velocity": 0.71,
        "hand": "right"
      },
      {
        "midi": 51,
        "time": 464.25,
        "duration": 0.25,
        "velocity": 0.71,
        "hand": "left"
      },
      {
        "midi": 60,
        "time": 464.5,
        "duration": 0.25,
        "velocity": 0.71,
        "hand": "right"
      },
      {
        "midi": 68,
        "time": 464.75,
        "duration": 0.25,
        "velocity": 0.71,
        "hand": "right"
      },
      {
        "midi": 44,
        "time": 465,
        "duration": 0.25,
        "velocity": 0.71,
        "hand": "left"
      },
      {
        "midi": 52,
        "time": 465.25,
        "duration": 0.25,
        "velocity": 0.71,
        "hand": "left"
      },
      {
        "midi": 60,
        "time": 465.5,
        "duration": 0.25,
        "velocity": 0.71,
        "hand": "right"
      },
      {
        "midi": 52,
        "time": 465.75,
        "duration": 0.25,
        "velocity": 0.71,
        "hand": "left"
      },
      {
        "midi": 60,
        "time": 466,
        "duration": 0.25,
        "velocity": 0.71,
        "hand": "right"
      },
      {
        "midi": 68,
        "time": 466.25,
        "duration": 0.25,
        "velocity": 0.71,
        "hand": "right"
      },
      {
        "midi": 32,
        "time": 466.5,
        "duration": 0.25,
        "velocity": 0.71,
        "hand": "left"
      },
      {
        "midi": 51,
        "time": 466.75,
        "duration": 0.25,
        "velocity": 0.71,
        "hand": "left"
      },
      {
        "midi": 60,
        "time": 467,
        "duration": 0.25,
        "velocity": 0.71,
        "hand": "right"
      },
      {
        "midi": 75,
        "time": 467,
        "duration": 0.5,
        "velocity": 0.71,
        "hand": "right"
      },
      {
        "midi": 51,
        "time": 467.25,
        "duration": 0.25,
        "velocity": 0.71,
        "hand": "left"
      },
      {
        "midi": 60,
        "time": 467.5,
        "duration": 0.25,
        "velocity": 0.71,
        "hand": "right"
      },
      {
        "midi": 80,
        "time": 467.5,
        "duration": 0.75,
        "velocity": 0.71,
        "hand": "right"
      },
      {
        "midi": 68,
        "time": 467.75,
        "duration": 0.25,
        "velocity": 0.71,
        "hand": "right"
      },
      {
        "midi": 44,
        "time": 468,
        "duration": 0.25,
        "velocity": 0.71,
        "hand": "left"
      },
      {
        "midi": 52,
        "time": 468.25,
        "duration": 0.25,
        "velocity": 0.71,
        "hand": "left"
      },
      {
        "midi": 71,
        "time": 468.25,
        "duration": 0.25,
        "velocity": 0.71,
        "hand": "right"
      },
      {
        "midi": 79,
        "time": 468.25,
        "duration": 0.25,
        "velocity": 0.71,
        "hand": "right"
      },
      {
        "midi": 61,
        "time": 468.5,
        "duration": 0.25,
        "velocity": 0.71,
        "hand": "right"
      },
      {
        "midi": 72,
        "time": 468.5,
        "duration": 0.25,
        "velocity": 0.71,
        "hand": "right"
      },
      {
        "midi": 58,
        "time": 468.75,
        "duration": 0.25,
        "velocity": 0.71,
        "hand": "left"
      },
      {
        "midi": 73,
        "time": 468.75,
        "duration": 0.25,
        "velocity": 0.71,
        "hand": "right"
      },
      {
        "midi": 74,
        "time": 468.75,
        "duration": 0.25,
        "velocity": 0.71,
        "hand": "right"
      },
      {
        "midi": 67,
        "time": 469,
        "duration": 0.25,
        "velocity": 0.71,
        "hand": "right"
      },
      {
        "midi": 75,
        "time": 469,
        "duration": 0.25,
        "velocity": 0.71,
        "hand": "right"
      },
      {
        "midi": 73,
        "time": 469.25,
        "duration": 0.25,
        "velocity": 0.71,
        "hand": "right"
      },
      {
        "midi": 76,
        "time": 469.25,
        "duration": 0.25,
        "velocity": 0.71,
        "hand": "right"
      },
      {
        "midi": 78,
        "time": 469.25,
        "duration": 0.25,
        "velocity": 0.71,
        "hand": "right"
      },
      {
        "midi": 44,
        "time": 469.5,
        "duration": 0.25,
        "velocity": 0.71,
        "hand": "left"
      },
      {
        "midi": 51,
        "time": 469.75,
        "duration": 0.25,
        "velocity": 0.71,
        "hand": "left"
      },
      {
        "midi": 75,
        "time": 469.75,
        "duration": 0.25,
        "velocity": 0.71,
        "hand": "right"
      },
      {
        "midi": 60,
        "time": 470,
        "duration": 0.25,
        "velocity": 0.71,
        "hand": "right"
      },
      {
        "midi": 77,
        "time": 470,
        "duration": 0.25,
        "velocity": 0.71,
        "hand": "right"
      },
      {
        "midi": 56,
        "time": 470.25,
        "duration": 0.25,
        "velocity": 0.71,
        "hand": "left"
      },
      {
        "midi": 74,
        "time": 470.25,
        "duration": 0.25,
        "velocity": 0.71,
        "hand": "right"
      },
      {
        "midi": 75,
        "time": 470.25,
        "duration": 0.25,
        "velocity": 0.71,
        "hand": "right"
      },
      {
        "midi": 63,
        "time": 470.5,
        "duration": 0.25,
        "velocity": 0.71,
        "hand": "right"
      },
      {
        "midi": 84,
        "time": 470.5,
        "duration": 0.25,
        "velocity": 0.71,
        "hand": "right"
      },
      {
        "midi": 72,
        "time": 470.75,
        "duration": 0.25,
        "velocity": 0.71,
        "hand": "right"
      },
      {
        "midi": 81,
        "time": 470.75,
        "duration": 0.25,
        "velocity": 0.71,
        "hand": "right"
      },
      {
        "midi": 82,
        "time": 470.75,
        "duration": 0.25,
        "velocity": 0.71,
        "hand": "right"
      },
      {
        "midi": 44,
        "time": 471,
        "duration": 0.25,
        "velocity": 0.71,
        "hand": "left"
      },
      {
        "midi": 80,
        "time": 471,
        "duration": 0.25,
        "velocity": 0.71,
        "hand": "right"
      },
      {
        "midi": 52,
        "time": 471.25,
        "duration": 0.25,
        "velocity": 0.71,
        "hand": "left"
      },
      {
        "midi": 71,
        "time": 471.25,
        "duration": 0.25,
        "velocity": 0.71,
        "hand": "right"
      },
      {
        "midi": 79,
        "time": 471.25,
        "duration": 0.25,
        "velocity": 0.71,
        "hand": "right"
      },
      {
        "midi": 61,
        "time": 471.5,
        "duration": 0.25,
        "velocity": 0.71,
        "hand": "right"
      },
      {
        "midi": 72,
        "time": 471.5,
        "duration": 0.25,
        "velocity": 0.71,
        "hand": "right"
      },
      {
        "midi": 58,
        "time": 471.75,
        "duration": 0.25,
        "velocity": 0.71,
        "hand": "left"
      },
      {
        "midi": 73,
        "time": 471.75,
        "duration": 0.25,
        "velocity": 0.71,
        "hand": "right"
      },
      {
        "midi": 74,
        "time": 471.75,
        "duration": 0.25,
        "velocity": 0.71,
        "hand": "right"
      },
      {
        "midi": 67,
        "time": 472,
        "duration": 0.25,
        "velocity": 0.71,
        "hand": "right"
      },
      {
        "midi": 75,
        "time": 472,
        "duration": 0.25,
        "velocity": 0.71,
        "hand": "right"
      },
      {
        "midi": 73,
        "time": 472.25,
        "duration": 0.25,
        "velocity": 0.71,
        "hand": "right"
      },
      {
        "midi": 76,
        "time": 472.25,
        "duration": 0.25,
        "velocity": 0.71,
        "hand": "right"
      },
      {
        "midi": 78,
        "time": 472.25,
        "duration": 0.25,
        "velocity": 0.71,
        "hand": "right"
      },
      {
        "midi": 44,
        "time": 472.5,
        "duration": 0.25,
        "velocity": 0.71,
        "hand": "left"
      },
      {
        "midi": 51,
        "time": 472.75,
        "duration": 0.25,
        "velocity": 0.71,
        "hand": "left"
      },
      {
        "midi": 60,
        "time": 473,
        "duration": 0.25,
        "velocity": 0.71,
        "hand": "right"
      },
      {
        "midi": 75,
        "time": 473,
        "duration": 0.25,
        "velocity": 0.71,
        "hand": "right"
      },
      {
        "midi": 56,
        "time": 473.25,
        "duration": 0.25,
        "velocity": 0.71,
        "hand": "left"
      },
      {
        "midi": 75,
        "time": 473.25,
        "duration": 0.25,
        "velocity": 0.71,
        "hand": "right"
      },
      {
        "midi": 77,
        "time": 473.25,
        "duration": 0.25,
        "velocity": 0.71,
        "hand": "right"
      },
      {
        "midi": 63,
        "time": 473.5,
        "duration": 0.25,
        "velocity": 0.71,
        "hand": "right"
      },
      {
        "midi": 74,
        "time": 473.5,
        "duration": 0.25,
        "velocity": 0.71,
        "hand": "right"
      },
      {
        "midi": 72,
        "time": 473.75,
        "duration": 0.25,
        "velocity": 0.71,
        "hand": "right"
      },
      {
        "midi": 75,
        "time": 473.75,
        "duration": 0.25,
        "velocity": 0.71,
        "hand": "right"
      },
      {
        "midi": 77,
        "time": 473.75,
        "duration": 0.25,
        "velocity": 0.71,
        "hand": "right"
      },
      {
        "midi": 39,
        "time": 474,
        "duration": 0.25,
        "velocity": 0.71,
        "hand": "left"
      },
      {
        "midi": 78,
        "time": 474,
        "duration": 0.25,
        "velocity": 0.71,
        "hand": "right"
      },
      {
        "midi": 46,
        "time": 474.25,
        "duration": 0.25,
        "velocity": 0.71,
        "hand": "left"
      },
      {
        "midi": 89,
        "time": 474.25,
        "duration": 0.25,
        "velocity": 0.71,
        "hand": "right"
      },
      {
        "midi": 90,
        "time": 474.25,
        "duration": 0.25,
        "velocity": 0.71,
        "hand": "right"
      },
      {
        "midi": 54,
        "time": 474.5,
        "duration": 0.25,
        "velocity": 0.71,
        "hand": "left"
      },
      {
        "midi": 88,
        "time": 474.5,
        "duration": 0.25,
        "velocity": 0.71,
        "hand": "right"
      },
      {
        "midi": 51,
        "time": 474.75,
        "duration": 0.25,
        "velocity": 0.71,
        "hand": "left"
      },
      {
        "midi": 85,
        "time": 474.75,
        "duration": 0.25,
        "velocity": 0.71,
        "hand": "right"
      },
      {
        "midi": 87,
        "time": 474.75,
        "duration": 0.25,
        "velocity": 0.71,
        "hand": "right"
      },
      {
        "midi": 58,
        "time": 475,
        "duration": 0.25,
        "velocity": 0.71,
        "hand": "left"
      },
      {
        "midi": 84,
        "time": 475,
        "duration": 0.25,
        "velocity": 0.71,
        "hand": "right"
      },
      {
        "midi": 66,
        "time": 475.25,
        "duration": 0.25,
        "velocity": 0.71,
        "hand": "right"
      },
      {
        "midi": 81,
        "time": 475.25,
        "duration": 0.25,
        "velocity": 0.71,
        "hand": "right"
      },
      {
        "midi": 82,
        "time": 475.25,
        "duration": 0.25,
        "velocity": 0.71,
        "hand": "right"
      },
      {
        "midi": 41,
        "time": 475.5,
        "duration": 0.25,
        "velocity": 0.71,
        "hand": "left"
      },
      {
        "midi": 78,
        "time": 475.5,
        "duration": 0.25,
        "velocity": 0.71,
        "hand": "right"
      },
      {
        "midi": 48,
        "time": 475.75,
        "duration": 0.25,
        "velocity": 0.71,
        "hand": "left"
      },
      {
        "midi": 76,
        "time": 475.75,
        "duration": 0.25,
        "velocity": 0.71,
        "hand": "right"
      },
      {
        "midi": 77,
        "time": 475.75,
        "duration": 0.25,
        "velocity": 0.71,
        "hand": "right"
      },
      {
        "midi": 57,
        "time": 476,
        "duration": 0.25,
        "velocity": 0.71,
        "hand": "left"
      },
      {
        "midi": 75,
        "time": 476,
        "duration": 0.25,
        "velocity": 0.71,
        "hand": "right"
      },
      {
        "midi": 53,
        "time": 476.25,
        "duration": 0.25,
        "velocity": 0.71,
        "hand": "left"
      },
      {
        "midi": 71,
        "time": 476.25,
        "duration": 0.25,
        "velocity": 0.71,
        "hand": "right"
      },
      {
        "midi": 73,
        "time": 476.25,
        "duration": 0.25,
        "velocity": 0.71,
        "hand": "right"
      },
      {
        "midi": 63,
        "time": 476.5,
        "duration": 0.25,
        "velocity": 0.71,
        "hand": "right"
      },
      {
        "midi": 72,
        "time": 476.5,
        "duration": 0.25,
        "velocity": 0.71,
        "hand": "right"
      },
      {
        "midi": 69,
        "time": 476.75,
        "duration": 0.25,
        "velocity": 0.71,
        "hand": "right"
      },
      {
        "midi": 73,
        "time": 476.75,
        "duration": 0.25,
        "velocity": 0.71,
        "hand": "right"
      },
      {
        "midi": 75,
        "time": 476.75,
        "duration": 0.25,
        "velocity": 0.71,
        "hand": "right"
      },
      {
        "midi": 34,
        "time": 477,
        "duration": 0.25,
        "velocity": 0.71,
        "hand": "left"
      },
      {
        "midi": 72,
        "time": 477,
        "duration": 0.25,
        "velocity": 0.71,
        "hand": "right"
      },
      {
        "midi": 41,
        "time": 477.25,
        "duration": 0.25,
        "velocity": 0.71,
        "hand": "left"
      },
      {
        "midi": 70,
        "time": 477.25,
        "duration": 0.25,
        "velocity": 0.71,
        "hand": "right"
      },
      {
        "midi": 49,
        "time": 477.5,
        "duration": 0.25,
        "velocity": 0.71,
        "hand": "left"
      },
      {
        "midi": 46,
        "time": 477.75,
        "duration": 0.25,
        "velocity": 0.71,
        "hand": "left"
      },
      {
        "midi": 53,
        "time": 478,
        "duration": 0.25,
        "velocity": 0.71,
        "hand": "left"
      },
      {
        "midi": 61,
        "time": 478.25,
        "duration": 0.25,
        "velocity": 0.71,
        "hand": "right"
      },
      {
        "midi": 42,
        "time": 478.5,
        "duration": 0.25,
        "velocity": 0.71,
        "hand": "left"
      },
      {
        "midi": 49,
        "time": 478.75,
        "duration": 0.25,
        "velocity": 0.71,
        "hand": "left"
      },
      {
        "midi": 58,
        "time": 479,
        "duration": 0.25,
        "velocity": 0.71,
        "hand": "left"
      },
      {
        "midi": 73,
        "time": 479,
        "duration": 0.25,
        "velocity": 0.71,
        "hand": "right"
      },
      {
        "midi": 54,
        "time": 479.25,
        "duration": 0.25,
        "velocity": 0.71,
        "hand": "left"
      },
      {
        "midi": 73,
        "time": 479.25,
        "duration": 0.25,
        "velocity": 0.71,
        "hand": "right"
      },
      {
        "midi": 75,
        "time": 479.25,
        "duration": 0.25,
        "velocity": 0.71,
        "hand": "right"
      },
      {
        "midi": 61,
        "time": 479.5,
        "duration": 0.25,
        "velocity": 0.71,
        "hand": "right"
      },
      {
        "midi": 72,
        "time": 479.5,
        "duration": 0.25,
        "velocity": 0.71,
        "hand": "right"
      },
      {
        "midi": 70,
        "time": 479.75,
        "duration": 0.25,
        "velocity": 0.71,
        "hand": "right"
      },
      {
        "midi": 73,
        "time": 479.75,
        "duration": 0.25,
        "velocity": 0.71,
        "hand": "right"
      },
      {
        "midi": 75,
        "time": 479.75,
        "duration": 0.25,
        "velocity": 0.71,
        "hand": "right"
      },
      {
        "midi": 37,
        "time": 480,
        "duration": 0.25,
        "velocity": 0.71,
        "hand": "left"
      },
      {
        "midi": 77,
        "time": 480,
        "duration": 0.25,
        "velocity": 0.71,
        "hand": "right"
      },
      {
        "midi": 44,
        "time": 480.25,
        "duration": 0.25,
        "velocity": 0.71,
        "hand": "left"
      },
      {
        "midi": 84,
        "time": 480.25,
        "duration": 0.25,
        "velocity": 0.71,
        "hand": "right"
      },
      {
        "midi": 89,
        "time": 480.25,
        "duration": 0.25,
        "velocity": 0.71,
        "hand": "right"
      },
      {
        "midi": 53,
        "time": 480.5,
        "duration": 0.25,
        "velocity": 0.71,
        "hand": "left"
      },
      {
        "midi": 87,
        "time": 480.5,
        "duration": 0.25,
        "velocity": 0.71,
        "hand": "right"
      },
      {
        "midi": 49,
        "time": 480.75,
        "duration": 0.25,
        "velocity": 0.71,
        "hand": "left"
      },
      {
        "midi": 80,
        "time": 480.75,
        "duration": 0.25,
        "velocity": 0.71,
        "hand": "right"
      },
      {
        "midi": 85,
        "time": 480.75,
        "duration": 0.25,
        "velocity": 0.71,
        "hand": "right"
      },
      {
        "midi": 56,
        "time": 481,
        "duration": 0.25,
        "velocity": 0.71,
        "hand": "left"
      },
      {
        "midi": 77,
        "time": 481,
        "duration": 0.25,
        "velocity": 0.71,
        "hand": "right"
      },
      {
        "midi": 65,
        "time": 481.25,
        "duration": 0.25,
        "velocity": 0.71,
        "hand": "right"
      },
      {
        "midi": 73,
        "time": 481.25,
        "duration": 0.25,
        "velocity": 0.71,
        "hand": "right"
      },
      {
        "midi": 75,
        "time": 481.25,
        "duration": 0.25,
        "velocity": 0.71,
        "hand": "right"
      },
      {
        "midi": 39,
        "time": 481.5,
        "duration": 0.25,
        "velocity": 0.71,
        "hand": "left"
      },
      {
        "midi": 71,
        "time": 481.5,
        "duration": 0.5,
        "velocity": 0.71,
        "hand": "right"
      },
      {
        "midi": 47,
        "time": 481.75,
        "duration": 0.25,
        "velocity": 0.71,
        "hand": "left"
      },
      {
        "midi": 54,
        "time": 482,
        "duration": 0.25,
        "velocity": 0.71,
        "hand": "left"
      },
      {
        "midi": 70,
        "time": 482,
        "duration": 0.25,
        "velocity": 0.71,
        "hand": "right"
      },
      {
        "midi": 71,
        "time": 482,
        "duration": 0.25,
        "velocity": 0.71,
        "hand": "right"
      },
      {
        "midi": 40,
        "time": 482.25,
        "duration": 0.25,
        "velocity": 0.71,
        "hand": "left"
      },
      {
        "midi": 73,
        "time": 482.25,
        "duration": 0.25,
        "velocity": 0.71,
        "hand": "right"
      },
      {
        "midi": 75,
        "time": 482.25,
        "duration": 0.25,
        "velocity": 0.71,
        "hand": "right"
      },
      {
        "midi": 49,
        "time": 482.5,
        "duration": 0.25,
        "velocity": 0.71,
        "hand": "left"
      },
      {
        "midi": 69,
        "time": 482.5,
        "duration": 0.25,
        "velocity": 0.71,
        "hand": "right"
      },
      {
        "midi": 55,
        "time": 482.75,
        "duration": 0.25,
        "velocity": 0.71,
        "hand": "left"
      },
      {
        "midi": 70,
        "time": 482.75,
        "duration": 0.25,
        "velocity": 0.71,
        "hand": "right"
      },
      {
        "midi": 72,
        "time": 482.75,
        "duration": 0.25,
        "velocity": 0.71,
        "hand": "right"
      },
      {
        "midi": 41,
        "time": 483,
        "duration": 0.25,
        "velocity": 0.71,
        "hand": "left"
      },
      {
        "midi": 69,
        "time": 483,
        "duration": 0.25,
        "velocity": 0.71,
        "hand": "right"
      },
      {
        "midi": 48,
        "time": 483.25,
        "duration": 0.25,
        "velocity": 0.71,
        "hand": "left"
      },
      {
        "midi": 72,
        "time": 483.25,
        "duration": 0.25,
        "velocity": 0.71,
        "hand": "right"
      },
      {
        "midi": 76,
        "time": 483.25,
        "duration": 0.25,
        "velocity": 0.71,
        "hand": "right"
      },
      {
        "midi": 57,
        "time": 483.5,
        "duration": 0.25,
        "velocity": 0.71,
        "hand": "left"
      },
      {
        "midi": 78,
        "time": 483.5,
        "duration": 0.25,
        "velocity": 0.71,
        "hand": "right"
      },
      {
        "midi": 53,
        "time": 483.75,
        "duration": 0.25,
        "velocity": 0.71,
        "hand": "left"
      },
      {
        "midi": 77,
        "time": 483.75,
        "duration": 0.25,
        "velocity": 0.71,
        "hand": "right"
      },
      {
        "midi": 81,
        "time": 483.75,
        "duration": 0.25,
        "velocity": 0.71,
        "hand": "right"
      },
      {
        "midi": 60,
        "time": 484,
        "duration": 0.25,
        "velocity": 0.71,
        "hand": "right"
      },
      {
        "midi": 84,
        "time": 484,
        "duration": 0.25,
        "velocity": 0.71,
        "hand": "right"
      },
      {
        "midi": 69,
        "time": 484.25,
        "duration": 0.25,
        "velocity": 0.71,
        "hand": "right"
      },
      {
        "midi": 77,
        "time": 484.25,
        "duration": 0.25,
        "velocity": 0.71,
        "hand": "right"
      },
      {
        "midi": 89,
        "time": 484.25,
        "duration": 0.25,
        "velocity": 0.71,
        "hand": "right"
      },
      {
        "midi": 41,
        "time": 484.5,
        "duration": 0.25,
        "velocity": 0.71,
        "hand": "left"
      },
      {
        "midi": 88,
        "time": 484.5,
        "duration": 0.25,
        "velocity": 0.71,
        "hand": "right"
      },
      {
        "midi": 49,
        "time": 484.75,
        "duration": 0.25,
        "velocity": 0.71,
        "hand": "left"
      },
      {
        "midi": 84,
        "time": 484.75,
        "duration": 0.25,
        "velocity": 0.71,
        "hand": "right"
      },
      {
        "midi": 87,
        "time": 484.75,
        "duration": 0.25,
        "velocity": 0.71,
        "hand": "right"
      },
      {
        "midi": 58,
        "time": 485,
        "duration": 0.25,
        "velocity": 0.71,
        "hand": "left"
      },
      {
        "midi": 85,
        "time": 485,
        "duration": 0.25,
        "velocity": 0.71,
        "hand": "right"
      },
      {
        "midi": 52,
        "time": 485.25,
        "duration": 0.25,
        "velocity": 0.71,
        "hand": "left"
      },
      {
        "midi": 79,
        "time": 485.25,
        "duration": 0.25,
        "velocity": 0.71,
        "hand": "right"
      },
      {
        "midi": 82,
        "time": 485.25,
        "duration": 0.25,
        "velocity": 0.71,
        "hand": "right"
      },
      {
        "midi": 61,
        "time": 485.5,
        "duration": 0.25,
        "velocity": 0.71,
        "hand": "right"
      },
      {
        "midi": 76,
        "time": 485.5,
        "duration": 0.25,
        "velocity": 0.71,
        "hand": "right"
      },
      {
        "midi": 67,
        "time": 485.75,
        "duration": 0.25,
        "velocity": 0.71,
        "hand": "right"
      },
      {
        "midi": 70,
        "time": 485.75,
        "duration": 0.25,
        "velocity": 0.71,
        "hand": "right"
      },
      {
        "midi": 73,
        "time": 485.75,
        "duration": 0.25,
        "velocity": 0.71,
        "hand": "right"
      },
      {
        "midi": 41,
        "time": 486,
        "duration": 0.25,
        "velocity": 0.71,
        "hand": "left"
      },
      {
        "midi": 69,
        "time": 486,
        "duration": 0.25,
        "velocity": 0.71,
        "hand": "right"
      },
      {
        "midi": 48,
        "time": 486.25,
        "duration": 0.25,
        "velocity": 0.71,
        "hand": "left"
      },
      {
        "midi": 72,
        "time": 486.25,
        "duration": 0.25,
        "velocity": 0.71,
        "hand": "right"
      },
      {
        "midi": 76,
        "time": 486.25,
        "duration": 0.25,
        "velocity": 0.71,
        "hand": "right"
      },
      {
        "midi": 57,
        "time": 486.5,
        "duration": 0.25,
        "velocity": 0.71,
        "hand": "left"
      },
      {
        "midi": 78,
        "time": 486.5,
        "duration": 0.25,
        "velocity": 0.71,
        "hand": "right"
      },
      {
        "midi": 53,
        "time": 486.75,
        "duration": 0.25,
        "velocity": 0.71,
        "hand": "left"
      },
      {
        "midi": 77,
        "time": 486.75,
        "duration": 0.25,
        "velocity": 0.71,
        "hand": "right"
      },
      {
        "midi": 81,
        "time": 486.75,
        "duration": 0.25,
        "velocity": 0.71,
        "hand": "right"
      },
      {
        "midi": 60,
        "time": 487,
        "duration": 0.25,
        "velocity": 0.71,
        "hand": "right"
      },
      {
        "midi": 84,
        "time": 487,
        "duration": 0.25,
        "velocity": 0.71,
        "hand": "right"
      },
      {
        "midi": 69,
        "time": 487.25,
        "duration": 0.25,
        "velocity": 0.71,
        "hand": "right"
      },
      {
        "midi": 89,
        "time": 487.25,
        "duration": 0.25,
        "velocity": 0.71,
        "hand": "right"
      },
      {
        "midi": 101,
        "time": 487.25,
        "duration": 0.25,
        "velocity": 0.71,
        "hand": "right"
      },
      {
        "midi": 53,
        "time": 487.5,
        "duration": 0.25,
        "velocity": 0.71,
        "hand": "left"
      },
      {
        "midi": 100,
        "time": 487.5,
        "duration": 0.25,
        "velocity": 0.71,
        "hand": "right"
      },
      {
        "midi": 61,
        "time": 487.75,
        "duration": 0.25,
        "velocity": 0.71,
        "hand": "right"
      },
      {
        "midi": 96,
        "time": 487.75,
        "duration": 0.25,
        "velocity": 0.71,
        "hand": "right"
      },
      {
        "midi": 99,
        "time": 487.75,
        "duration": 0.25,
        "velocity": 0.71,
        "hand": "right"
      },
      {
        "midi": 70,
        "time": 488,
        "duration": 0.25,
        "velocity": 0.71,
        "hand": "right"
      },
      {
        "midi": 97,
        "time": 488,
        "duration": 0.25,
        "velocity": 0.71,
        "hand": "right"
      },
      {
        "midi": 64,
        "time": 488.25,
        "duration": 0.25,
        "velocity": 0.71,
        "hand": "right"
      },
      {
        "midi": 91,
        "time": 488.25,
        "duration": 0.25,
        "velocity": 0.71,
        "hand": "right"
      },
      {
        "midi": 94,
        "time": 488.25,
        "duration": 0.25,
        "velocity": 0.71,
        "hand": "right"
      },
      {
        "midi": 73,
        "time": 488.5,
        "duration": 0.25,
        "velocity": 0.71,
        "hand": "right"
      },
      {
        "midi": 88,
        "time": 488.5,
        "duration": 0.25,
        "velocity": 0.71,
        "hand": "right"
      },
      {
        "midi": 79,
        "time": 488.75,
        "duration": 0.25,
        "velocity": 0.71,
        "hand": "right"
      },
      {
        "midi": 82,
        "time": 488.75,
        "duration": 0.25,
        "velocity": 0.71,
        "hand": "right"
      },
      {
        "midi": 85,
        "time": 488.75,
        "duration": 0.25,
        "velocity": 0.71,
        "hand": "right"
      },
      {
        "midi": 65,
        "time": 489,
        "duration": 0.5,
        "velocity": 0.71,
        "hand": "right"
      },
      {
        "midi": 72,
        "time": 489,
        "duration": 0.5,
        "velocity": 0.71,
        "hand": "right"
      },
      {
        "midi": 81,
        "time": 489,
        "duration": 0.25,
        "velocity": 0.71,
        "hand": "right"
      },
      {
        "midi": 84,
        "time": 489.25,
        "duration": 0.25,
        "velocity": 0.71,
        "hand": "right"
      },
      {
        "midi": 87,
        "time": 489.25,
        "duration": 0.25,
        "velocity": 0.71,
        "hand": "right"
      },
      {
        "midi": 89,
        "time": 489.5,
        "duration": 0.25,
        "velocity": 0.71,
        "hand": "right"
      },
      {
        "midi": 90,
        "time": 489.75,
        "duration": 0.25,
        "velocity": 0.71,
        "hand": "right"
      },
      {
        "midi": 92,
        "time": 489.75,
        "duration": 0.25,
        "velocity": 0.71,
        "hand": "right"
      },
      {
        "midi": 87,
        "time": 490,
        "duration": 0.25,
        "velocity": 0.71,
        "hand": "right"
      },
      {
        "midi": 81,
        "time": 490.25,
        "duration": 0.25,
        "velocity": 0.71,
        "hand": "right"
      },
      {
        "midi": 84,
        "time": 490.25,
        "duration": 0.25,
        "velocity": 0.71,
        "hand": "right"
      },
      {
        "midi": 78,
        "time": 490.5,
        "duration": 0.25,
        "velocity": 0.71,
        "hand": "right"
      },
      {
        "midi": 72,
        "time": 490.75,
        "duration": 0.25,
        "velocity": 0.71,
        "hand": "right"
      },
      {
        "midi": 75,
        "time": 490.75,
        "duration": 0.25,
        "velocity": 0.71,
        "hand": "right"
      },
      {
        "midi": 60,
        "time": 491,
        "duration": 0.25,
        "velocity": 0.71,
        "hand": "right"
      },
      {
        "midi": 69,
        "time": 491,
        "duration": 0.25,
        "velocity": 0.71,
        "hand": "right"
      },
      {
        "midi": 61,
        "time": 491.25,
        "duration": 0.25,
        "velocity": 0.71,
        "hand": "right"
      },
      {
        "midi": 70,
        "time": 491.25,
        "duration": 0.25,
        "velocity": 0.71,
        "hand": "right"
      },
      {
        "midi": 71,
        "time": 491.25,
        "duration": 0.25,
        "velocity": 0.71,
        "hand": "right"
      },
      {
        "midi": 63,
        "time": 491.5,
        "duration": 0.25,
        "velocity": 0.71,
        "hand": "right"
      },
      {
        "midi": 72,
        "time": 491.5,
        "duration": 0.25,
        "velocity": 0.71,
        "hand": "right"
      },
      {
        "midi": 61,
        "time": 491.75,
        "duration": 0.25,
        "velocity": 0.71,
        "hand": "right"
      },
      {
        "midi": 70,
        "time": 491.75,
        "duration": 0.25,
        "velocity": 0.71,
        "hand": "right"
      },
      {
        "midi": 73,
        "time": 491.75,
        "duration": 0.25,
        "velocity": 0.71,
        "hand": "right"
      },
      {
        "midi": 60,
        "time": 492,
        "duration": 0.5,
        "velocity": 0.71,
        "hand": "right"
      },
      {
        "midi": 65,
        "time": 492,
        "duration": 0.5,
        "velocity": 0.71,
        "hand": "right"
      },
      {
        "midi": 69,
        "time": 492,
        "duration": 0.25,
        "velocity": 0.71,
        "hand": "right"
      },
      {
        "midi": 72,
        "time": 492.25,
        "duration": 0.25,
        "velocity": 0.71,
        "hand": "right"
      },
      {
        "midi": 75,
        "time": 492.25,
        "duration": 0.25,
        "velocity": 0.71,
        "hand": "right"
      },
      {
        "midi": 53,
        "time": 492.5,
        "duration": 0.5,
        "velocity": 0.71,
        "hand": "left"
      },
      {
        "midi": 63,
        "time": 492.5,
        "duration": 0.5,
        "velocity": 0.71,
        "hand": "right"
      },
      {
        "midi": 77,
        "time": 492.5,
        "duration": 0.25,
        "velocity": 0.71,
        "hand": "right"
      },
      {
        "midi": 78,
        "time": 492.75,
        "duration": 0.25,
        "velocity": 0.71,
        "hand": "right"
      },
      {
        "midi": 81,
        "time": 492.75,
        "duration": 0.25,
        "velocity": 0.71,
        "hand": "right"
      },
      {
        "midi": 75,
        "time": 493,
        "duration": 0.25,
        "velocity": 0.71,
        "hand": "right"
      },
      {
        "midi": 69,
        "time": 493.25,
        "duration": 0.25,
        "velocity": 0.71,
        "hand": "right"
      },
      {
        "midi": 72,
        "time": 493.25,
        "duration": 0.25,
        "velocity": 0.71,
        "hand": "right"
      },
      {
        "midi": 66,
        "time": 493.5,
        "duration": 0.25,
        "velocity": 0.71,
        "hand": "right"
      },
      {
        "midi": 60,
        "time": 493.75,
        "duration": 0.25,
        "velocity": 0.71,
        "hand": "right"
      },
      {
        "midi": 63,
        "time": 493.75,
        "duration": 0.25,
        "velocity": 0.71,
        "hand": "right"
      },
      {
        "midi": 48,
        "time": 494,
        "duration": 0.25,
        "velocity": 0.71,
        "hand": "left"
      },
      {
        "midi": 57,
        "time": 494,
        "duration": 0.25,
        "velocity": 0.71,
        "hand": "left"
      },
      {
        "midi": 49,
        "time": 494.25,
        "duration": 0.25,
        "velocity": 0.71,
        "hand": "left"
      },
      {
        "midi": 58,
        "time": 494.25,
        "duration": 0.25,
        "velocity": 0.71,
        "hand": "left"
      },
      {
        "midi": 59,
        "time": 494.25,
        "duration": 0.25,
        "velocity": 0.71,
        "hand": "left"
      },
      {
        "midi": 51,
        "time": 494.5,
        "duration": 0.25,
        "velocity": 0.71,
        "hand": "left"
      },
      {
        "midi": 60,
        "time": 494.5,
        "duration": 0.25,
        "velocity": 0.71,
        "hand": "right"
      },
      {
        "midi": 49,
        "time": 494.75,
        "duration": 0.25,
        "velocity": 0.71,
        "hand": "left"
      },
      {
        "midi": 58,
        "time": 494.75,
        "duration": 0.25,
        "velocity": 0.71,
        "hand": "left"
      },
      {
        "midi": 61,
        "time": 494.75,
        "duration": 0.25,
        "velocity": 0.71,
        "hand": "right"
      },
      {
        "midi": 41,
        "time": 495,
        "duration": 0.5,
        "velocity": 0.71,
        "hand": "left"
      },
      {
        "midi": 53,
        "time": 495,
        "duration": 0.5,
        "velocity": 0.71,
        "hand": "left"
      },
      {
        "midi": 57,
        "time": 495,
        "duration": 0.25,
        "velocity": 0.71,
        "hand": "left"
      },
      {
        "midi": 58,
        "time": 495.25,
        "duration": 0.25,
        "velocity": 0.71,
        "hand": "left"
      },
      {
        "midi": 59,
        "time": 495.25,
        "duration": 0.25,
        "velocity": 0.71,
        "hand": "left"
      },
      {
        "midi": 49,
        "time": 495.5,
        "duration": 0.5,
        "velocity": 0.71,
        "hand": "left"
      },
      {
        "midi": 52,
        "time": 495.5,
        "duration": 0.5,
        "velocity": 0.71,
        "hand": "left"
      },
      {
        "midi": 60,
        "time": 495.5,
        "duration": 0.25,
        "velocity": 0.71,
        "hand": "right"
      },
      {
        "midi": 58,
        "time": 495.75,
        "duration": 0.25,
        "velocity": 0.71,
        "hand": "left"
      },
      {
        "midi": 61,
        "time": 495.75,
        "duration": 0.25,
        "velocity": 0.71,
        "hand": "right"
      },
      {
        "midi": 48,
        "time": 496,
        "duration": 0.5,
        "velocity": 0.71,
        "hand": "left"
      },
      {
        "midi": 53,
        "time": 496,
        "duration": 0.5,
        "velocity": 0.71,
        "hand": "left"
      },
      {
        "midi": 57,
        "time": 496,
        "duration": 0.25,
        "velocity": 0.71,
        "hand": "left"
      },
      {
        "midi": 58,
        "time": 496.25,
        "duration": 0.25,
        "velocity": 0.71,
        "hand": "left"
      },
      {
        "midi": 59,
        "time": 496.25,
        "duration": 0.25,
        "velocity": 0.71,
        "hand": "left"
      },
      {
        "midi": 49,
        "time": 496.5,
        "duration": 0.5,
        "velocity": 0.71,
        "hand": "left"
      },
      {
        "midi": 52,
        "time": 496.5,
        "duration": 0.5,
        "velocity": 0.71,
        "hand": "left"
      },
      {
        "midi": 60,
        "time": 496.5,
        "duration": 0.25,
        "velocity": 0.71,
        "hand": "right"
      },
      {
        "midi": 58,
        "time": 496.75,
        "duration": 0.25,
        "velocity": 0.71,
        "hand": "left"
      },
      {
        "midi": 61,
        "time": 496.75,
        "duration": 0.25,
        "velocity": 0.71,
        "hand": "right"
      },
      {
        "midi": 48,
        "time": 497,
        "duration": 0.5,
        "velocity": 0.71,
        "hand": "left"
      },
      {
        "midi": 53,
        "time": 497,
        "duration": 0.5,
        "velocity": 0.71,
        "hand": "left"
      },
      {
        "midi": 57,
        "time": 497,
        "duration": 0.25,
        "velocity": 0.71,
        "hand": "left"
      },
      {
        "midi": 58,
        "time": 497.25,
        "duration": 0.25,
        "velocity": 0.71,
        "hand": "left"
      },
      {
        "midi": 59,
        "time": 497.25,
        "duration": 0.25,
        "velocity": 0.71,
        "hand": "left"
      },
      {
        "midi": 49,
        "time": 497.5,
        "duration": 0.5,
        "velocity": 0.71,
        "hand": "left"
      },
      {
        "midi": 52,
        "time": 497.5,
        "duration": 0.5,
        "velocity": 0.71,
        "hand": "left"
      },
      {
        "midi": 60,
        "time": 497.5,
        "duration": 0.25,
        "velocity": 0.71,
        "hand": "right"
      },
      {
        "midi": 58,
        "time": 497.75,
        "duration": 0.25,
        "velocity": 0.71,
        "hand": "left"
      },
      {
        "midi": 61,
        "time": 497.75,
        "duration": 0.25,
        "velocity": 0.71,
        "hand": "right"
      },
      {
        "midi": 41,
        "time": 498,
        "duration": 0.5,
        "velocity": 0.71,
        "hand": "left"
      },
      {
        "midi": 51,
        "time": 498,
        "duration": 0.5,
        "velocity": 0.71,
        "hand": "left"
      },
      {
        "midi": 57,
        "time": 498,
        "duration": 0.25,
        "velocity": 0.71,
        "hand": "left"
      },
      {
        "midi": 60,
        "time": 498.25,
        "duration": 0.25,
        "velocity": 0.71,
        "hand": "right"
      },
      {
        "midi": 63,
        "time": 498.25,
        "duration": 0.25,
        "velocity": 0.71,
        "hand": "right"
      },
      {
        "midi": 65,
        "time": 498.5,
        "duration": 0.25,
        "velocity": 0.71,
        "hand": "right"
      },
      {
        "midi": 68,
        "time": 498.75,
        "duration": 0.25,
        "velocity": 0.71,
        "hand": "right"
      },
      {
        "midi": 72,
        "time": 498.75,
        "duration": 0.25,
        "velocity": 0.71,
        "hand": "right"
      },
      {
        "midi": 67,
        "time": 499,
        "duration": 0.25,
        "velocity": 0.71,
        "hand": "right"
      },
      {
        "midi": 65,
        "time": 499.25,
        "duration": 0.25,
        "velocity": 0.71,
        "hand": "right"
      },
      {
        "midi": 66,
        "time": 499.25,
        "duration": 0.25,
        "velocity": 0.71,
        "hand": "right"
      },
      {
        "midi": 64,
        "time": 499.5,
        "duration": 0.25,
        "velocity": 0.71,
        "hand": "right"
      },
      {
        "midi": 62,
        "time": 499.75,
        "duration": 0.25,
        "velocity": 0.71,
        "hand": "right"
      },
      {
        "midi": 63,
        "time": 499.75,
        "duration": 0.25,
        "velocity": 0.71,
        "hand": "right"
      },
      {
        "midi": 61,
        "time": 500,
        "duration": 0.25,
        "velocity": 0.71,
        "hand": "right"
      },
      {
        "midi": 59,
        "time": 500.25,
        "duration": 0.25,
        "velocity": 0.71,
        "hand": "left"
      },
      {
        "midi": 60,
        "time": 500.25,
        "duration": 0.25,
        "velocity": 0.71,
        "hand": "right"
      },
      {
        "midi": 58,
        "time": 500.5,
        "duration": 0.25,
        "velocity": 0.71,
        "hand": "left"
      },
      {
        "midi": 56,
        "time": 500.75,
        "duration": 0.25,
        "velocity": 0.71,
        "hand": "left"
      },
      {
        "midi": 57,
        "time": 500.75,
        "duration": 0.25,
        "velocity": 0.71,
        "hand": "left"
      },
      {
        "midi": 55,
        "time": 501,
        "duration": 0.25,
        "velocity": 0.71,
        "hand": "left"
      },
      {
        "midi": 53,
        "time": 501.25,
        "duration": 0.25,
        "velocity": 0.71,
        "hand": "left"
      },
      {
        "midi": 54,
        "time": 501.25,
        "duration": 0.25,
        "velocity": 0.71,
        "hand": "left"
      },
      {
        "midi": 52,
        "time": 501.5,
        "duration": 0.25,
        "velocity": 0.71,
        "hand": "left"
      },
      {
        "midi": 50,
        "time": 501.75,
        "duration": 0.25,
        "velocity": 0.71,
        "hand": "left"
      },
      {
        "midi": 51,
        "time": 501.75,
        "duration": 0.25,
        "velocity": 0.71,
        "hand": "left"
      },
      {
        "midi": 49,
        "time": 502,
        "duration": 0.25,
        "velocity": 0.71,
        "hand": "left"
      },
      {
        "midi": 47,
        "time": 502.25,
        "duration": 0.25,
        "velocity": 0.71,
        "hand": "left"
      },
      {
        "midi": 48,
        "time": 502.25,
        "duration": 0.25,
        "velocity": 0.71,
        "hand": "left"
      },
      {
        "midi": 46,
        "time": 502.5,
        "duration": 0.25,
        "velocity": 0.71,
        "hand": "left"
      },
      {
        "midi": 44,
        "time": 502.75,
        "duration": 0.25,
        "velocity": 0.71,
        "hand": "left"
      },
      {
        "midi": 45,
        "time": 502.75,
        "duration": 0.25,
        "velocity": 0.71,
        "hand": "left"
      },
      {
        "midi": 43,
        "time": 503,
        "duration": 0.25,
        "velocity": 0.71,
        "hand": "left"
      },
      {
        "midi": 41,
        "time": 503.25,
        "duration": 0.25,
        "velocity": 0.71,
        "hand": "left"
      },
      {
        "midi": 42,
        "time": 503.25,
        "duration": 0.25,
        "velocity": 0.71,
        "hand": "left"
      },
      {
        "midi": 40,
        "time": 503.5,
        "duration": 0.25,
        "velocity": 0.71,
        "hand": "left"
      },
      {
        "midi": 38,
        "time": 503.75,
        "duration": 0.25,
        "velocity": 0.71,
        "hand": "left"
      },
      {
        "midi": 39,
        "time": 503.75,
        "duration": 0.25,
        "velocity": 0.71,
        "hand": "left"
      },
      {
        "midi": 37,
        "time": 504,
        "duration": 0.25,
        "velocity": 0.71,
        "hand": "left"
      },
      {
        "midi": 44,
        "time": 504.25,
        "duration": 0.25,
        "velocity": 0.71,
        "hand": "left"
      },
      {
        "midi": 46,
        "time": 504.25,
        "duration": 0.25,
        "velocity": 0.71,
        "hand": "left"
      },
      {
        "midi": 48,
        "time": 504.5,
        "duration": 0.25,
        "velocity": 0.71,
        "hand": "left"
      },
      {
        "midi": 49,
        "time": 504.75,
        "duration": 0.25,
        "velocity": 0.71,
        "hand": "left"
      },
      {
        "midi": 51,
        "time": 504.75,
        "duration": 0.25,
        "velocity": 0.71,
        "hand": "left"
      },
      {
        "midi": 53,
        "time": 505,
        "duration": 0.25,
        "velocity": 0.71,
        "hand": "left"
      },
      {
        "midi": 68,
        "time": 505,
        "duration": 0.5,
        "velocity": 0.71,
        "hand": "right"
      },
      {
        "midi": 77,
        "time": 505,
        "duration": 0.5,
        "velocity": 0.71,
        "hand": "right"
      },
      {
        "midi": 54,
        "time": 505.25,
        "duration": 0.25,
        "velocity": 0.71,
        "hand": "left"
      },
      {
        "midi": 56,
        "time": 505.25,
        "duration": 0.25,
        "velocity": 0.71,
        "hand": "left"
      },
      {
        "midi": 58,
        "time": 505.5,
        "duration": 0.25,
        "velocity": 0.71,
        "hand": "left"
      },
      {
        "midi": 68,
        "time": 505.5,
        "duration": 1.5,
        "velocity": 0.71,
        "hand": "right"
      },
      {
        "midi": 77,
        "time": 505.5,
        "duration": 1.5,
        "velocity": 0.71,
        "hand": "right"
      },
      {
        "midi": 56,
        "time": 505.75,
        "duration": 0.25,
        "velocity": 0.71,
        "hand": "left"
      },
      {
        "midi": 58,
        "time": 505.75,
        "duration": 0.25,
        "velocity": 0.71,
        "hand": "left"
      },
      {
        "midi": 60,
        "time": 506,
        "duration": 0.25,
        "velocity": 0.71,
        "hand": "right"
      },
      {
        "midi": 61,
        "time": 506.25,
        "duration": 0.25,
        "velocity": 0.71,
        "hand": "right"
      },
      {
        "midi": 63,
        "time": 506.25,
        "duration": 0.25,
        "velocity": 0.71,
        "hand": "right"
      },
      {
        "midi": 65,
        "time": 506.5,
        "duration": 0.5,
        "velocity": 0.71,
        "hand": "right"
      },
      {
        "midi": 37,
        "time": 507,
        "duration": 0.25,
        "velocity": 0.71,
        "hand": "left"
      },
      {
        "midi": 65,
        "time": 507,
        "duration": 1,
        "velocity": 0.71,
        "hand": "right"
      },
      {
        "midi": 73,
        "time": 507,
        "duration": 1,
        "velocity": 0.71,
        "hand": "right"
      },
      {
        "midi": 44,
        "time": 507.25,
        "duration": 0.25,
        "velocity": 0.71,
        "hand": "left"
      },
      {
        "midi": 46,
        "time": 507.25,
        "duration": 0.25,
        "velocity": 0.71,
        "hand": "left"
      },
      {
        "midi": 48,
        "time": 507.5,
        "duration": 0.25,
        "velocity": 0.71,
        "hand": "left"
      },
      {
        "midi": 49,
        "time": 507.75,
        "duration": 0.25,
        "velocity": 0.71,
        "hand": "left"
      },
      {
        "midi": 51,
        "time": 507.75,
        "duration": 0.25,
        "velocity": 0.71,
        "hand": "left"
      },
      {
        "midi": 53,
        "time": 508,
        "duration": 0.25,
        "velocity": 0.71,
        "hand": "left"
      },
      {
        "midi": 65,
        "time": 508,
        "duration": 0.5,
        "velocity": 0.71,
        "hand": "right"
      },
      {
        "midi": 70,
        "time": 508,
        "duration": 0.5,
        "velocity": 0.71,
        "hand": "right"
      },
      {
        "midi": 54,
        "time": 508.25,
        "duration": 0.25,
        "velocity": 0.71,
        "hand": "left"
      },
      {
        "midi": 56,
        "time": 508.25,
        "duration": 0.25,
        "velocity": 0.71,
        "hand": "left"
      },
      {
        "midi": 58,
        "time": 508.5,
        "duration": 0.25,
        "velocity": 0.71,
        "hand": "left"
      },
      {
        "midi": 66,
        "time": 508.5,
        "duration": 1,
        "velocity": 0.71,
        "hand": "right"
      },
      {
        "midi": 70,
        "time": 508.5,
        "duration": 1,
        "velocity": 0.71,
        "hand": "right"
      },
      {
        "midi": 56,
        "time": 508.75,
        "duration": 0.25,
        "velocity": 0.71,
        "hand": "left"
      },
      {
        "midi": 60,
        "time": 508.75,
        "duration": 0.25,
        "velocity": 0.71,
        "hand": "right"
      },
      {
        "midi": 61,
        "time": 509,
        "duration": 0.25,
        "velocity": 0.71,
        "hand": "right"
      },
      {
        "midi": 63,
        "time": 509.25,
        "duration": 0.25,
        "velocity": 0.71,
        "hand": "right"
      },
      {
        "midi": 65,
        "time": 509.25,
        "duration": 0.25,
        "velocity": 0.71,
        "hand": "right"
      },
      {
        "midi": 66,
        "time": 509.5,
        "duration": 0.5,
        "velocity": 0.71,
        "hand": "right"
      },
      {
        "midi": 68,
        "time": 509.5,
        "duration": 0.5,
        "velocity": 0.71,
        "hand": "right"
      },
      {
        "midi": 37,
        "time": 510,
        "duration": 0.25,
        "velocity": 0.71,
        "hand": "left"
      },
      {
        "midi": 66,
        "time": 510,
        "duration": 0.5,
        "velocity": 0.71,
        "hand": "right"
      },
      {
        "midi": 68,
        "time": 510,
        "duration": 1,
        "velocity": 0.71,
        "hand": "right"
      },
      {
        "midi": 44,
        "time": 510.25,
        "duration": 0.25,
        "velocity": 0.71,
        "hand": "left"
      },
      {
        "midi": 46,
        "time": 510.25,
        "duration": 0.25,
        "velocity": 0.71,
        "hand": "left"
      },
      {
        "midi": 48,
        "time": 510.5,
        "duration": 0.25,
        "velocity": 0.71,
        "hand": "left"
      },
      {
        "midi": 65,
        "time": 510.5,
        "duration": 0.5,
        "velocity": 0.71,
        "hand": "right"
      },
      {
        "midi": 49,
        "time": 510.75,
        "duration": 0.25,
        "velocity": 0.71,
        "hand": "left"
      },
      {
        "midi": 51,
        "time": 510.75,
        "duration": 0.25,
        "velocity": 0.71,
        "hand": "left"
      },
      {
        "midi": 53,
        "time": 511,
        "duration": 0.25,
        "velocity": 0.71,
        "hand": "left"
      },
      {
        "midi": 68,
        "time": 511,
        "duration": 0.5,
        "velocity": 0.71,
        "hand": "right"
      },
      {
        "midi": 77,
        "time": 511,
        "duration": 0.5,
        "velocity": 0.71,
        "hand": "right"
      },
      {
        "midi": 54,
        "time": 511.25,
        "duration": 0.25,
        "velocity": 0.71,
        "hand": "left"
      },
      {
        "midi": 56,
        "time": 511.25,
        "duration": 0.25,
        "velocity": 0.71,
        "hand": "left"
      },
      {
        "midi": 58,
        "time": 511.5,
        "duration": 0.25,
        "velocity": 0.71,
        "hand": "left"
      },
      {
        "midi": 68,
        "time": 511.5,
        "duration": 1,
        "velocity": 0.71,
        "hand": "right"
      },
      {
        "midi": 73,
        "time": 511.5,
        "duration": 1,
        "velocity": 0.71,
        "hand": "right"
      },
      {
        "midi": 56,
        "time": 511.75,
        "duration": 0.25,
        "velocity": 0.71,
        "hand": "left"
      },
      {
        "midi": 58,
        "time": 511.75,
        "duration": 0.25,
        "velocity": 0.71,
        "hand": "left"
      },
      {
        "midi": 59,
        "time": 512,
        "duration": 0.25,
        "velocity": 0.71,
        "hand": "left"
      },
      {
        "midi": 61,
        "time": 512.25,
        "duration": 0.25,
        "velocity": 0.71,
        "hand": "right"
      },
      {
        "midi": 63,
        "time": 512.25,
        "duration": 0.25,
        "velocity": 0.71,
        "hand": "right"
      },
      {
        "midi": 65,
        "time": 512.5,
        "duration": 0.5,
        "velocity": 0.71,
        "hand": "right"
      },
      {
        "midi": 73,
        "time": 512.5,
        "duration": 0.5,
        "velocity": 0.71,
        "hand": "right"
      },
      {
        "midi": 82,
        "time": 512.5,
        "duration": 0.5,
        "velocity": 0.71,
        "hand": "right"
      },
      {
        "midi": 37,
        "time": 513,
        "duration": 0.25,
        "velocity": 0.71,
        "hand": "left"
      },
      {
        "midi": 73,
        "time": 513,
        "duration": 0.5,
        "velocity": 0.71,
        "hand": "right"
      },
      {
        "midi": 82,
        "time": 513,
        "duration": 0.5,
        "velocity": 0.71,
        "hand": "right"
      },
      {
        "midi": 44,
        "time": 513.25,
        "duration": 0.25,
        "velocity": 0.71,
        "hand": "left"
      },
      {
        "midi": 49,
        "time": 513.25,
        "duration": 0.25,
        "velocity": 0.71,
        "hand": "left"
      },
      {
        "midi": 53,
        "time": 513.5,
        "duration": 0.25,
        "velocity": 0.71,
        "hand": "left"
      },
      {
        "midi": 73,
        "time": 513.5,
        "duration": 0.5,
        "velocity": 0.71,
        "hand": "right"
      },
      {
        "midi": 80,
        "time": 513.5,
        "duration": 0.5,
        "velocity": 0.71,
        "hand": "right"
      },
      {
        "midi": 56,
        "time": 513.75,
        "duration": 0.25,
        "velocity": 0.71,
        "hand": "left"
      },
      {
        "midi": 61,
        "time": 513.75,
        "duration": 0.25,
        "velocity": 0.71,
        "hand": "right"
      },
      {
        "midi": 56,
        "time": 514,
        "duration": 0.25,
        "velocity": 0.71,
        "hand": "left"
      },
      {
        "midi": 73,
        "time": 514,
        "duration": 0.5,
        "velocity": 0.71,
        "hand": "right"
      },
      {
        "midi": 79,
        "time": 514,
        "duration": 0.5,
        "velocity": 0.71,
        "hand": "right"
      },
      {
        "midi": 61,
        "time": 514.25,
        "duration": 0.25,
        "velocity": 0.71,
        "hand": "right"
      },
      {
        "midi": 65,
        "time": 514.25,
        "duration": 0.25,
        "velocity": 0.71,
        "hand": "right"
      },
      {
        "midi": 56,
        "time": 514.5,
        "duration": 0.25,
        "velocity": 0.71,
        "hand": "left"
      },
      {
        "midi": 73,
        "time": 514.5,
        "duration": 1.5,
        "velocity": 0.71,
        "hand": "right"
      },
      {
        "midi": 80,
        "time": 514.5,
        "duration": 1.5,
        "velocity": 0.71,
        "hand": "right"
      },
      {
        "midi": 65,
        "time": 514.75,
        "duration": 0.25,
        "velocity": 0.71,
        "hand": "right"
      },
      {
        "midi": 68,
        "time": 514.75,
        "duration": 0.25,
        "velocity": 0.71,
        "hand": "right"
      },
      {
        "midi": 61,
        "time": 515,
        "duration": 0.25,
        "velocity": 0.71,
        "hand": "right"
      },
      {
        "midi": 53,
        "time": 515.25,
        "duration": 0.25,
        "velocity": 0.71,
        "hand": "left"
      },
      {
        "midi": 56,
        "time": 515.25,
        "duration": 0.25,
        "velocity": 0.71,
        "hand": "left"
      },
      {
        "midi": 49,
        "time": 515.5,
        "duration": 0.25,
        "velocity": 0.71,
        "hand": "left"
      },
      {
        "midi": 44,
        "time": 515.75,
        "duration": 0.25,
        "velocity": 0.71,
        "hand": "left"
      },
      {
        "midi": 56,
        "time": 515.75,
        "duration": 0.25,
        "velocity": 0.71,
        "hand": "left"
      },
      {
        "midi": 37,
        "time": 516,
        "duration": 0.25,
        "velocity": 0.71,
        "hand": "left"
      },
      {
        "midi": 65,
        "time": 516,
        "duration": 1,
        "velocity": 0.71,
        "hand": "right"
      },
      {
        "midi": 80,
        "time": 516,
        "duration": 1,
        "velocity": 0.71,
        "hand": "right"
      },
      {
        "midi": 44,
        "time": 516.25,
        "duration": 0.25,
        "velocity": 0.71,
        "hand": "left"
      },
      {
        "midi": 49,
        "time": 516.25,
        "duration": 0.25,
        "velocity": 0.71,
        "hand": "left"
      },
      {
        "midi": 56,
        "time": 516.5,
        "duration": 0.25,
        "velocity": 0.71,
        "hand": "left"
      },
      {
        "midi": 44,
        "time": 516.75,
        "duration": 0.25,
        "velocity": 0.71,
        "hand": "left"
      },
      {
        "midi": 49,
        "time": 516.75,
        "duration": 0.25,
        "velocity": 0.71,
        "hand": "left"
      },
      {
        "midi": 49,
        "time": 517,
        "duration": 0.25,
        "velocity": 0.71,
        "hand": "left"
      },
      {
        "midi": 71,
        "time": 517,
        "duration": 0.5,
        "velocity": 0.71,
        "hand": "right"
      },
      {
        "midi": 73,
        "time": 517,
        "duration": 0.5,
        "velocity": 0.71,
        "hand": "right"
      },
      {
        "midi": 56,
        "time": 517.25,
        "duration": 0.25,
        "velocity": 0.71,
        "hand": "left"
      },
      {
        "midi": 61,
        "time": 517.25,
        "duration": 0.25,
        "velocity": 0.71,
        "hand": "right"
      },
      {
        "midi": 56,
        "time": 517.5,
        "duration": 0.25,
        "velocity": 0.71,
        "hand": "left"
      },
      {
        "midi": 71,
        "time": 517.5,
        "duration": 3,
        "velocity": 0.71,
        "hand": "right"
      },
      {
        "midi": 73,
        "time": 517.5,
        "duration": 3,
        "velocity": 0.71,
        "hand": "right"
      },
      {
        "midi": 49,
        "time": 517.75,
        "duration": 0.25,
        "velocity": 0.71,
        "hand": "left"
      },
      {
        "midi": 56,
        "time": 517.75,
        "duration": 0.25,
        "velocity": 0.71,
        "hand": "left"
      },
      {
        "midi": 61,
        "time": 518,
        "duration": 0.25,
        "velocity": 0.71,
        "hand": "right"
      },
      {
        "midi": 61,
        "time": 518.25,
        "duration": 0.25,
        "velocity": 0.71,
        "hand": "right"
      },
      {
        "midi": 68,
        "time": 518.25,
        "duration": 0.25,
        "velocity": 0.71,
        "hand": "right"
      },
      {
        "midi": 56,
        "time": 518.5,
        "duration": 0.25,
        "velocity": 0.71,
        "hand": "left"
      },
      {
        "midi": 49,
        "time": 518.75,
        "duration": 0.25,
        "velocity": 0.71,
        "hand": "left"
      },
      {
        "midi": 56,
        "time": 518.75,
        "duration": 0.25,
        "velocity": 0.71,
        "hand": "left"
      },
      {
        "midi": 61,
        "time": 519,
        "duration": 0.25,
        "velocity": 0.71,
        "hand": "right"
      },
      {
        "midi": 49,
        "time": 519.25,
        "duration": 0.25,
        "velocity": 0.71,
        "hand": "left"
      },
      {
        "midi": 56,
        "time": 519.25,
        "duration": 0.25,
        "velocity": 0.71,
        "hand": "left"
      },
      {
        "midi": 44,
        "time": 519.5,
        "duration": 0.25,
        "velocity": 0.71,
        "hand": "left"
      },
      {
        "midi": 49,
        "time": 519.75,
        "duration": 0.25,
        "velocity": 0.71,
        "hand": "left"
      },
      {
        "midi": 56,
        "time": 519.75,
        "duration": 0.25,
        "velocity": 0.71,
        "hand": "left"
      },
      {
        "midi": 49,
        "time": 520,
        "duration": 0.25,
        "velocity": 0.71,
        "hand": "left"
      },
      {
        "midi": 37,
        "time": 520.25,
        "duration": 0.25,
        "velocity": 0.71,
        "hand": "left"
      },
      {
        "midi": 44,
        "time": 520.25,
        "duration": 0.25,
        "velocity": 0.71,
        "hand": "left"
      },
      {
        "midi": 30,
        "time": 520.5,
        "duration": 0.25,
        "velocity": 0.71,
        "hand": "left"
      },
      {
        "midi": 71,
        "time": 520.5,
        "duration": 1,
        "velocity": 0.71,
        "hand": "right"
      },
      {
        "midi": 73,
        "time": 520.5,
        "duration": 1,
        "velocity": 0.71,
        "hand": "right"
      },
      {
        "midi": 49,
        "time": 520.75,
        "duration": 0.25,
        "velocity": 0.71,
        "hand": "left"
      },
      {
        "midi": 61,
        "time": 521,
        "duration": 0.25,
        "velocity": 0.71,
        "hand": "right"
      },
      {
        "midi": 49,
        "time": 521.25,
        "duration": 0.25,
        "velocity": 0.71,
        "hand": "left"
      },
      {
        "midi": 54,
        "time": 521.25,
        "duration": 0.25,
        "velocity": 0.71,
        "hand": "left"
      },
      {
        "midi": 58,
        "time": 521.5,
        "duration": 0.25,
        "velocity": 0.71,
        "hand": "left"
      },
      {
        "midi": 70,
        "time": 521.5,
        "duration": 0.5,
        "velocity": 0.71,
        "hand": "right"
      },
      {
        "midi": 78,
        "time": 521.5,
        "duration": 0.5,
        "velocity": 0.71,
        "hand": "right"
      },
      {
        "midi": 49,
        "time": 521.75,
        "duration": 0.25,
        "velocity": 0.71,
        "hand": "left"
      },
      {
        "midi": 54,
        "time": 521.75,
        "duration": 0.25,
        "velocity": 0.71,
        "hand": "left"
      },
      {
        "midi": 39,
        "time": 522,
        "duration": 0.25,
        "velocity": 0.71,
        "hand": "left"
      },
      {
        "midi": 78,
        "time": 522,
        "duration": 0.25,
        "velocity": 0.71,
        "hand": "right"
      },
      {
        "midi": 46,
        "time": 522.25,
        "duration": 0.25,
        "velocity": 0.71,
        "hand": "left"
      },
      {
        "midi": 66,
        "time": 522.25,
        "duration": 0.25,
        "velocity": 0.71,
        "hand": "right"
      },
      {
        "midi": 70,
        "time": 522.25,
        "duration": 0.25,
        "velocity": 0.71,
        "hand": "right"
      },
      {
        "midi": 51,
        "time": 522.5,
        "duration": 0.25,
        "velocity": 0.71,
        "hand": "left"
      },
      {
        "midi": 58,
        "time": 522.5,
        "duration": 0.25,
        "velocity": 0.71,
        "hand": "left"
      },
      {
        "midi": 54,
        "time": 522.75,
        "duration": 0.25,
        "velocity": 0.71,
        "hand": "left"
      },
      {
        "midi": 63,
        "time": 522.75,
        "duration": 0.25,
        "velocity": 0.71,
        "hand": "right"
      },
      {
        "midi": 70,
        "time": 522.75,
        "duration": 0.25,
        "velocity": 0.71,
        "hand": "right"
      },
      {
        "midi": 51,
        "time": 523,
        "duration": 0.25,
        "velocity": 0.71,
        "hand": "left"
      },
      {
        "midi": 66,
        "time": 523,
        "duration": 0.25,
        "velocity": 0.71,
        "hand": "right"
      },
      {
        "midi": 46,
        "time": 523.25,
        "duration": 0.25,
        "velocity": 0.71,
        "hand": "left"
      },
      {
        "midi": 58,
        "time": 523.25,
        "duration": 0.25,
        "velocity": 0.71,
        "hand": "left"
      },
      {
        "midi": 72,
        "time": 523.25,
        "duration": 0.25,
        "velocity": 0.71,
        "hand": "right"
      },
      {
        "midi": 39,
        "time": 523.5,
        "duration": 0.25,
        "velocity": 0.71,
        "hand": "left"
      },
      {
        "midi": 66,
        "time": 523.5,
        "duration": 0.25,
        "velocity": 0.71,
        "hand": "right"
      },
      {
        "midi": 46,
        "time": 523.75,
        "duration": 0.25,
        "velocity": 0.71,
        "hand": "left"
      },
      {
        "midi": 61,
        "time": 523.75,
        "duration": 0.25,
        "velocity": 0.71,
        "hand": "right"
      },
      {
        "midi": 70,
        "time": 523.75,
        "duration": 0.25,
        "velocity": 0.71,
        "hand": "right"
      },
      {
        "midi": 51,
        "time": 524,
        "duration": 0.25,
        "velocity": 0.71,
        "hand": "left"
      },
      {
        "midi": 73,
        "time": 524,
        "duration": 0.25,
        "velocity": 0.71,
        "hand": "right"
      },
      {
        "midi": 58,
        "time": 524.25,
        "duration": 0.25,
        "velocity": 0.71,
        "hand": "left"
      },
      {
        "midi": 66,
        "time": 524.25,
        "duration": 0.25,
        "velocity": 0.71,
        "hand": "right"
      },
      {
        "midi": 70,
        "time": 524.25,
        "duration": 0.25,
        "velocity": 0.71,
        "hand": "right"
      },
      {
        "midi": 51,
        "time": 524.5,
        "duration": 0.25,
        "velocity": 0.71,
        "hand": "left"
      },
      {
        "midi": 66,
        "time": 524.5,
        "duration": 0.25,
        "velocity": 0.71,
        "hand": "right"
      },
      {
        "midi": 46,
        "time": 524.75,
        "duration": 0.25,
        "velocity": 0.71,
        "hand": "left"
      },
      {
        "midi": 70,
        "time": 524.75,
        "duration": 0.25,
        "velocity": 0.71,
        "hand": "right"
      },
      {
        "midi": 78,
        "time": 524.75,
        "duration": 0.25,
        "velocity": 0.71,
        "hand": "right"
      },
      {
        "midi": 44,
        "time": 525,
        "duration": 0.25,
        "velocity": 0.71,
        "hand": "left"
      },
      {
        "midi": 73,
        "time": 525,
        "duration": 0.25,
        "velocity": 0.71,
        "hand": "right"
      },
      {
        "midi": 51,
        "time": 525.25,
        "duration": 0.25,
        "velocity": 0.71,
        "hand": "left"
      },
      {
        "midi": 66,
        "time": 525.25,
        "duration": 0.25,
        "velocity": 0.71,
        "hand": "right"
      },
      {
        "midi": 77,
        "time": 525.25,
        "duration": 0.25,
        "velocity": 0.71,
        "hand": "right"
      },
      {
        "midi": 54,
        "time": 525.5,
        "duration": 0.25,
        "velocity": 0.71,
        "hand": "left"
      },
      {
        "midi": 70,
        "time": 525.5,
        "duration": 0.25,
        "velocity": 0.71,
        "hand": "right"
      },
      {
        "midi": 61,
        "time": 525.75,
        "duration": 0.25,
        "velocity": 0.71,
        "hand": "right"
      },
      {
        "midi": 66,
        "time": 525.75,
        "duration": 0.25,
        "velocity": 0.71,
        "hand": "right"
      },
      {
        "midi": 73,
        "time": 525.75,
        "duration": 0.25,
        "velocity": 0.71,
        "hand": "right"
      },
      {
        "midi": 54,
        "time": 526,
        "duration": 0.25,
        "velocity": 0.71,
        "hand": "left"
      },
      {
        "midi": 77,
        "time": 526,
        "duration": 0.25,
        "velocity": 0.71,
        "hand": "right"
      },
      {
        "midi": 51,
        "time": 526.25,
        "duration": 0.25,
        "velocity": 0.71,
        "hand": "left"
      },
      {
        "midi": 68,
        "time": 526.25,
        "duration": 0.25,
        "velocity": 0.71,
        "hand": "right"
      },
      {
        "midi": 72,
        "time": 526.25,
        "duration": 0.25,
        "velocity": 0.71,
        "hand": "right"
      },
      {
        "midi": 44,
        "time": 526.5,
        "duration": 0.25,
        "velocity": 0.71,
        "hand": "left"
      },
      {
        "midi": 66,
        "time": 526.5,
        "duration": 0.25,
        "velocity": 0.71,
        "hand": "right"
      },
      {
        "midi": 51,
        "time": 526.75,
        "duration": 0.25,
        "velocity": 0.71,
        "hand": "left"
      },
      {
        "midi": 68,
        "time": 526.75,
        "duration": 0.25,
        "velocity": 0.71,
        "hand": "right"
      },
      {
        "midi": 75,
        "time": 526.75,
        "duration": 0.25,
        "velocity": 0.71,
        "hand": "right"
      },
      {
        "midi": 54,
        "time": 527,
        "duration": 0.25,
        "velocity": 0.71,
        "hand": "left"
      },
      {
        "midi": 72,
        "time": 527,
        "duration": 0.25,
        "velocity": 0.71,
        "hand": "right"
      },
      {
        "midi": 60,
        "time": 527.25,
        "duration": 0.25,
        "velocity": 0.71,
        "hand": "right"
      },
      {
        "midi": 63,
        "time": 527.25,
        "duration": 0.25,
        "velocity": 0.71,
        "hand": "right"
      },
      {
        "midi": 72,
        "time": 527.25,
        "duration": 0.25,
        "velocity": 0.71,
        "hand": "right"
      },
      {
        "midi": 54,
        "time": 527.5,
        "duration": 0.25,
        "velocity": 0.71,
        "hand": "left"
      },
      {
        "midi": 66,
        "time": 527.5,
        "duration": 0.25,
        "velocity": 0.71,
        "hand": "right"
      },
      {
        "midi": 44,
        "time": 527.75,
        "duration": 0.25,
        "velocity": 0.71,
        "hand": "left"
      },
      {
        "midi": 60,
        "time": 527.75,
        "duration": 0.25,
        "velocity": 0.71,
        "hand": "right"
      },
      {
        "midi": 70,
        "time": 527.75,
        "duration": 0.25,
        "velocity": 0.71,
        "hand": "right"
      },
      {
        "midi": 37,
        "time": 528,
        "duration": 0.25,
        "velocity": 0.5,
        "hand": "left"
      },
      {
        "midi": 65,
        "time": 528,
        "duration": 1,
        "velocity": 0.71,
        "hand": "right"
      },
      {
        "midi": 70,
        "time": 528,
        "duration": 0.5,
        "velocity": 0.71,
        "hand": "right"
      },
      {
        "midi": 44,
        "time": 528.25,
        "duration": 0.25,
        "velocity": 0.51,
        "hand": "left"
      },
      {
        "midi": 46,
        "time": 528.25,
        "duration": 0.25,
        "velocity": 0.53,
        "hand": "left"
      },
      {
        "midi": 48,
        "time": 528.5,
        "duration": 0.25,
        "velocity": 0.54,
        "hand": "left"
      },
      {
        "midi": 56,
        "time": 528.5,
        "duration": 0.5,
        "velocity": 0.71,
        "hand": "left"
      },
      {
        "midi": 68,
        "time": 528.5,
        "duration": 0.5,
        "velocity": 0.71,
        "hand": "right"
      },
      {
        "midi": 49,
        "time": 528.75,
        "duration": 0.25,
        "velocity": 0.56,
        "hand": "left"
      },
      {
        "midi": 51,
        "time": 528.75,
        "duration": 0.25,
        "velocity": 0.57,
        "hand": "left"
      },
      {
        "midi": 53,
        "time": 529,
        "duration": 0.25,
        "velocity": 0.58,
        "hand": "left"
      },
      {
        "midi": 80,
        "time": 529,
        "duration": 0.5,
        "velocity": 0.71,
        "hand": "right"
      },
      {
        "midi": 89,
        "time": 529,
        "duration": 0.5,
        "velocity": 0.71,
        "hand": "right"
      },
      {
        "midi": 54,
        "time": 529.25,
        "duration": 0.25,
        "velocity": 0.6,
        "hand": "left"
      },
      {
        "midi": 56,
        "time": 529.25,
        "duration": 0.25,
        "velocity": 0.61,
        "hand": "left"
      },
      {
        "midi": 58,
        "time": 529.5,
        "duration": 0.25,
        "velocity": 0.63,
        "hand": "left"
      },
      {
        "midi": 80,
        "time": 529.5,
        "duration": 1,
        "velocity": 0.71,
        "hand": "right"
      },
      {
        "midi": 89,
        "time": 529.5,
        "duration": 1,
        "velocity": 0.71,
        "hand": "right"
      },
      {
        "midi": 56,
        "time": 529.75,
        "duration": 0.25,
        "velocity": 0.65,
        "hand": "left"
      },
      {
        "midi": 58,
        "time": 529.75,
        "duration": 0.25,
        "velocity": 0.66,
        "hand": "left"
      },
      {
        "midi": 60,
        "time": 530,
        "duration": 0.25,
        "velocity": 0.68,
        "hand": "right"
      },
      {
        "midi": 61,
        "time": 530.25,
        "duration": 0.25,
        "velocity": 0.69,
        "hand": "right"
      },
      {
        "midi": 63,
        "time": 530.25,
        "duration": 0.25,
        "velocity": 0.71,
        "hand": "right"
      },
      {
        "midi": 65,
        "time": 530.5,
        "duration": 0.5,
        "velocity": 0.72,
        "hand": "right"
      },
      {
        "midi": 80,
        "time": 530.5,
        "duration": 0.5,
        "velocity": 0.71,
        "hand": "right"
      },
      {
        "midi": 85,
        "time": 530.5,
        "duration": 0.5,
        "velocity": 0.71,
        "hand": "right"
      },
      {
        "midi": 37,
        "time": 531,
        "duration": 0.25,
        "velocity": 0.72,
        "hand": "left"
      },
      {
        "midi": 77,
        "time": 531,
        "duration": 0.5,
        "velocity": 0.71,
        "hand": "right"
      },
      {
        "midi": 85,
        "time": 531,
        "duration": 0.5,
        "velocity": 0.71,
        "hand": "right"
      },
      {
        "midi": 44,
        "time": 531.25,
        "duration": 0.25,
        "velocity": 0.73,
        "hand": "left"
      },
      {
        "midi": 46,
        "time": 531.25,
        "duration": 0.25,
        "velocity": 0.75,
        "hand": "left"
      },
      {
        "midi": 48,
        "time": 531.5,
        "duration": 0.25,
        "velocity": 0.76,
        "hand": "left"
      },
      {
        "midi": 65,
        "time": 531.5,
        "duration": 0.5,
        "velocity": 0.71,
        "hand": "right"
      },
      {
        "midi": 49,
        "time": 531.75,
        "duration": 0.25,
        "velocity": 0.78,
        "hand": "left"
      },
      {
        "midi": 51,
        "time": 531.75,
        "duration": 0.25,
        "velocity": 0.8,
        "hand": "left"
      },
      {
        "midi": 53,
        "time": 532,
        "duration": 0.25,
        "velocity": 0.81,
        "hand": "left"
      },
      {
        "midi": 73,
        "time": 532,
        "duration": 0.5,
        "velocity": 0.71,
        "hand": "right"
      },
      {
        "midi": 82,
        "time": 532,
        "duration": 0.5,
        "velocity": 0.71,
        "hand": "right"
      },
      {
        "midi": 54,
        "time": 532.25,
        "duration": 0.25,
        "velocity": 0.83,
        "hand": "left"
      },
      {
        "midi": 56,
        "time": 532.25,
        "duration": 0.25,
        "velocity": 0.84,
        "hand": "left"
      },
      {
        "midi": 58,
        "time": 532.5,
        "duration": 0.25,
        "velocity": 0.86,
        "hand": "left"
      },
      {
        "midi": 78,
        "time": 532.5,
        "duration": 1,
        "velocity": 0.71,
        "hand": "right"
      },
      {
        "midi": 82,
        "time": 532.5,
        "duration": 1,
        "velocity": 0.71,
        "hand": "right"
      },
      {
        "midi": 56,
        "time": 532.75,
        "duration": 0.25,
        "velocity": 0.87,
        "hand": "left"
      },
      {
        "midi": 60,
        "time": 532.75,
        "duration": 0.25,
        "velocity": 0.89,
        "hand": "right"
      },
      {
        "midi": 61,
        "time": 533,
        "duration": 0.25,
        "velocity": 0.9,
        "hand": "right"
      },
      {
        "midi": 70,
        "time": 533,
        "duration": 0.5,
        "velocity": 0.71,
        "hand": "right"
      },
      {
        "midi": 63,
        "time": 533.25,
        "duration": 0.25,
        "velocity": 0.91,
        "hand": "right"
      },
      {
        "midi": 65,
        "time": 533.25,
        "duration": 0.25,
        "velocity": 0.93,
        "hand": "right"
      },
      {
        "midi": 66,
        "time": 533.5,
        "duration": 0.5,
        "velocity": 0.94,
        "hand": "right"
      },
      {
        "midi": 75,
        "time": 533.5,
        "duration": 0.5,
        "velocity": 0.71,
        "hand": "right"
      },
      {
        "midi": 80,
        "time": 533.5,
        "duration": 0.5,
        "velocity": 0.71,
        "hand": "right"
      },
      {
        "midi": 37,
        "time": 534,
        "duration": 0.25,
        "velocity": 0.94,
        "hand": "left"
      },
      {
        "midi": 75,
        "time": 534,
        "duration": 0.5,
        "velocity": 0.71,
        "hand": "right"
      },
      {
        "midi": 80,
        "time": 534,
        "duration": 1,
        "velocity": 0.71,
        "hand": "right"
      },
      {
        "midi": 44,
        "time": 534.25,
        "duration": 0.25,
        "velocity": 0.94,
        "hand": "left"
      },
      {
        "midi": 46,
        "time": 534.25,
        "duration": 0.25,
        "velocity": 0.94,
        "hand": "left"
      },
      {
        "midi": 48,
        "time": 534.5,
        "duration": 0.25,
        "velocity": 0.94,
        "hand": "left"
      },
      {
        "midi": 73,
        "time": 534.5,
        "duration": 0.5,
        "velocity": 0.71,
        "hand": "right"
      },
      {
        "midi": 49,
        "time": 534.75,
        "duration": 0.25,
        "velocity": 0.94,
        "hand": "left"
      },
      {
        "midi": 51,
        "time": 534.75,
        "duration": 0.25,
        "velocity": 0.94,
        "hand": "left"
      },
      {
        "midi": 53,
        "time": 535,
        "duration": 0.25,
        "velocity": 0.94,
        "hand": "left"
      },
      {
        "midi": 80,
        "time": 535,
        "duration": 0.5,
        "velocity": 0.71,
        "hand": "right"
      },
      {
        "midi": 89,
        "time": 535,
        "duration": 0.5,
        "velocity": 0.71,
        "hand": "right"
      },
      {
        "midi": 54,
        "time": 535.25,
        "duration": 0.25,
        "velocity": 0.94,
        "hand": "left"
      },
      {
        "midi": 56,
        "time": 535.25,
        "duration": 0.25,
        "velocity": 0.94,
        "hand": "left"
      },
      {
        "midi": 58,
        "time": 535.5,
        "duration": 0.25,
        "velocity": 0.94,
        "hand": "left"
      },
      {
        "midi": 80,
        "time": 535.5,
        "duration": 1,
        "velocity": 0.71,
        "hand": "right"
      },
      {
        "midi": 85,
        "time": 535.5,
        "duration": 1,
        "velocity": 0.71,
        "hand": "right"
      },
      {
        "midi": 56,
        "time": 535.75,
        "duration": 0.25,
        "velocity": 0.94,
        "hand": "left"
      },
      {
        "midi": 58,
        "time": 535.75,
        "duration": 0.25,
        "velocity": 0.94,
        "hand": "left"
      },
      {
        "midi": 60,
        "time": 536,
        "duration": 0.25,
        "velocity": 0.94,
        "hand": "right"
      },
      {
        "midi": 61,
        "time": 536.25,
        "duration": 0.25,
        "velocity": 0.94,
        "hand": "right"
      },
      {
        "midi": 63,
        "time": 536.25,
        "duration": 0.25,
        "velocity": 0.94,
        "hand": "right"
      },
      {
        "midi": 64,
        "time": 536.5,
        "duration": 0.5,
        "velocity": 0.94,
        "hand": "right"
      },
      {
        "midi": 85,
        "time": 536.5,
        "duration": 0.5,
        "velocity": 0.71,
        "hand": "right"
      },
      {
        "midi": 94,
        "time": 536.5,
        "duration": 0.5,
        "velocity": 0.71,
        "hand": "right"
      },
      {
        "midi": 36,
        "time": 537,
        "duration": 0.25,
        "velocity": 0.94,
        "hand": "left"
      },
      {
        "midi": 87,
        "time": 537,
        "duration": 0.5,
        "velocity": 0.71,
        "hand": "right"
      },
      {
        "midi": 94,
        "time": 537,
        "duration": 0.5,
        "velocity": 0.71,
        "hand": "right"
      },
      {
        "midi": 48,
        "time": 537.25,
        "duration": 0.25,
        "velocity": 0.94,
        "hand": "left"
      },
      {
        "midi": 51,
        "time": 537.25,
        "duration": 0.25,
        "velocity": 0.94,
        "hand": "left"
      },
      {
        "midi": 56,
        "time": 537.5,
        "duration": 0.25,
        "velocity": 0.94,
        "hand": "left"
      },
      {
        "midi": 87,
        "time": 537.5,
        "duration": 0.5,
        "velocity": 0.71,
        "hand": "right"
      },
      {
        "midi": 92,
        "time": 537.5,
        "duration": 0.5,
        "velocity": 0.71,
        "hand": "right"
      },
      {
        "midi": 51,
        "time": 537.75,
        "duration": 0.25,
        "velocity": 0.94,
        "hand": "left"
      },
      {
        "midi": 56,
        "time": 537.75,
        "duration": 0.25,
        "velocity": 0.94,
        "hand": "left"
      },
      {
        "midi": 60,
        "time": 538,
        "duration": 0.25,
        "velocity": 0.94,
        "hand": "right"
      },
      {
        "midi": 87,
        "time": 538,
        "duration": 0.5,
        "velocity": 0.71,
        "hand": "right"
      },
      {
        "midi": 91,
        "time": 538,
        "duration": 0.5,
        "velocity": 0.71,
        "hand": "right"
      },
      {
        "midi": 63,
        "time": 538.25,
        "duration": 0.25,
        "velocity": 0.94,
        "hand": "right"
      },
      {
        "midi": 68,
        "time": 538.25,
        "duration": 0.25,
        "velocity": 0.94,
        "hand": "right"
      },
      {
        "midi": 63,
        "time": 538.5,
        "duration": 0.25,
        "velocity": 0.94,
        "hand": "right"
      },
      {
        "midi": 87,
        "time": 538.5,
        "duration": 1,
        "velocity": 0.71,
        "hand": "right"
      },
      {
        "midi": 92,
        "time": 538.5,
        "duration": 1,
        "velocity": 0.71,
        "hand": "right"
      },
      {
        "midi": 68,
        "time": 538.75,
        "duration": 0.25,
        "velocity": 0.94,
        "hand": "right"
      },
      {
        "midi": 75,
        "time": 538.75,
        "duration": 0.25,
        "velocity": 0.94,
        "hand": "right"
      },
      {
        "midi": 63,
        "time": 539,
        "duration": 0.25,
        "velocity": 0.94,
        "hand": "right"
      },
      {
        "midi": 56,
        "time": 539.25,
        "duration": 0.25,
        "velocity": 0.94,
        "hand": "left"
      },
      {
        "midi": 60,
        "time": 539.25,
        "duration": 0.25,
        "velocity": 0.94,
        "hand": "right"
      },
      {
        "midi": 51,
        "time": 539.5,
        "duration": 0.25,
        "velocity": 0.94,
        "hand": "left"
      },
      {
        "midi": 68,
        "time": 539.5,
        "duration": 0.5,
        "velocity": 0.71,
        "hand": "right"
      },
      {
        "midi": 80,
        "time": 539.5,
        "duration": 0.5,
        "velocity": 0.71,
        "hand": "right"
      },
      {
        "midi": 44,
        "time": 539.75,
        "duration": 0.25,
        "velocity": 0.94,
        "hand": "left"
      },
      {
        "midi": 48,
        "time": 539.75,
        "duration": 0.25,
        "velocity": 0.94,
        "hand": "left"
      },
      {
        "midi": 35,
        "time": 540,
        "duration": 0.5,
        "velocity": 0.94,
        "hand": "left"
      },
      {
        "midi": 75,
        "time": 540,
        "duration": 1,
        "velocity": 0.71,
        "hand": "right"
      },
      {
        "midi": 80,
        "time": 540,
        "duration": 1,
        "velocity": 0.71,
        "hand": "right"
      },
      {
        "midi": 47,
        "time": 540.5,
        "duration": 0.25,
        "velocity": 0.94,
        "hand": "left"
      },
      {
        "midi": 49,
        "time": 540.75,
        "duration": 0.25,
        "velocity": 0.94,
        "hand": "left"
      },
      {
        "midi": 53,
        "time": 540.75,
        "duration": 0.25,
        "velocity": 0.94,
        "hand": "left"
      },
      {
        "midi": 63,
        "time": 541,
        "duration": 0.25,
        "velocity": 0.94,
        "hand": "right"
      },
      {
        "midi": 68,
        "time": 541,
        "duration": 0.5,
        "velocity": 0.71,
        "hand": "right"
      },
      {
        "midi": 73,
        "time": 541,
        "duration": 0.5,
        "velocity": 0.71,
        "hand": "right"
      },
      {
        "midi": 49,
        "time": 541.25,
        "duration": 0.25,
        "velocity": 0.94,
        "hand": "left"
      },
      {
        "midi": 53,
        "time": 541.25,
        "duration": 0.25,
        "velocity": 0.94,
        "hand": "left"
      },
      {
        "midi": 46,
        "time": 541.5,
        "duration": 0.25,
        "velocity": 0.94,
        "hand": "left"
      },
      {
        "midi": 68,
        "time": 541.5,
        "duration": 0.5,
        "velocity": 0.71,
        "hand": "right"
      },
      {
        "midi": 73,
        "time": 541.5,
        "duration": 1,
        "velocity": 0.71,
        "hand": "right"
      },
      {
        "midi": 49,
        "time": 541.75,
        "duration": 0.25,
        "velocity": 0.94,
        "hand": "left"
      },
      {
        "midi": 54,
        "time": 541.75,
        "duration": 0.25,
        "velocity": 0.94,
        "hand": "left"
      },
      {
        "midi": 63,
        "time": 542,
        "duration": 0.25,
        "velocity": 0.94,
        "hand": "right"
      },
      {
        "midi": 67,
        "time": 542,
        "duration": 0.5,
        "velocity": 0.71,
        "hand": "right"
      },
      {
        "midi": 49,
        "time": 542.25,
        "duration": 0.25,
        "velocity": 0.94,
        "hand": "left"
      },
      {
        "midi": 54,
        "time": 542.25,
        "duration": 0.25,
        "velocity": 0.94,
        "hand": "left"
      },
      {
        "midi": 61,
        "time": 542.5,
        "duration": 0.25,
        "velocity": 0.94,
        "hand": "right"
      },
      {
        "midi": 73,
        "time": 542.5,
        "duration": 0.5,
        "velocity": 0.71,
        "hand": "right"
      },
      {
        "midi": 78,
        "time": 542.5,
        "duration": 0.5,
        "velocity": 0.71,
        "hand": "right"
      },
      {
        "midi": 49,
        "time": 542.75,
        "duration": 0.25,
        "velocity": 0.94,
        "hand": "left"
      },
      {
        "midi": 54,
        "time": 542.75,
        "duration": 0.25,
        "velocity": 0.94,
        "hand": "left"
      },
      {
        "midi": 44,
        "time": 543,
        "duration": 0.25,
        "velocity": 0.94,
        "hand": "left"
      },
      {
        "midi": 71,
        "time": 543,
        "duration": 1,
        "velocity": 0.71,
        "hand": "right"
      },
      {
        "midi": 77,
        "time": 543,
        "duration": 1,
        "velocity": 0.71,
        "hand": "right"
      },
      {
        "midi": 49,
        "time": 543.25,
        "duration": 0.25,
        "velocity": 0.94,
        "hand": "left"
      },
      {
        "midi": 53,
        "time": 543.25,
        "duration": 0.25,
        "velocity": 0.94,
        "hand": "left"
      },
      {
        "midi": 60,
        "time": 543.5,
        "duration": 0.25,
        "velocity": 0.94,
        "hand": "right"
      },
      {
        "midi": 49,
        "time": 543.75,
        "duration": 0.25,
        "velocity": 0.94,
        "hand": "left"
      },
      {
        "midi": 53,
        "time": 543.75,
        "duration": 0.25,
        "velocity": 0.94,
        "hand": "left"
      },
      {
        "midi": 61,
        "time": 544,
        "duration": 0.25,
        "velocity": 0.94,
        "hand": "right"
      },
      {
        "midi": 73,
        "time": 544,
        "duration": 0.5,
        "velocity": 0.71,
        "hand": "right"
      },
      {
        "midi": 83,
        "time": 544,
        "duration": 0.5,
        "velocity": 0.71,
        "hand": "right"
      },
      {
        "midi": 49,
        "time": 544.25,
        "duration": 0.25,
        "velocity": 0.94,
        "hand": "left"
      },
      {
        "midi": 53,
        "time": 544.25,
        "duration": 0.25,
        "velocity": 0.94,
        "hand": "left"
      },
      {
        "midi": 42,
        "time": 544.5,
        "duration": 0.25,
        "velocity": 0.94,
        "hand": "left"
      },
      {
        "midi": 73,
        "time": 544.5,
        "duration": 1,
        "velocity": 0.71,
        "hand": "right"
      },
      {
        "midi": 83,
        "time": 544.5,
        "duration": 1,
        "velocity": 0.71,
        "hand": "right"
      },
      {
        "midi": 49,
        "time": 544.75,
        "duration": 0.25,
        "velocity": 0.94,
        "hand": "left"
      },
      {
        "midi": 54,
        "time": 544.75,
        "duration": 0.25,
        "velocity": 0.94,
        "hand": "left"
      },
      {
        "midi": 63,
        "time": 545,
        "duration": 0.25,
        "velocity": 0.94,
        "hand": "right"
      },
      {
        "midi": 49,
        "time": 545.25,
        "duration": 0.25,
        "velocity": 0.94,
        "hand": "left"
      },
      {
        "midi": 54,
        "time": 545.25,
        "duration": 0.25,
        "velocity": 0.94,
        "hand": "left"
      },
      {
        "midi": 64,
        "time": 545.5,
        "duration": 0.25,
        "velocity": 0.94,
        "hand": "right"
      },
      {
        "midi": 73,
        "time": 545.5,
        "duration": 0.5,
        "velocity": 0.71,
        "hand": "right"
      },
      {
        "midi": 82,
        "time": 545.5,
        "duration": 0.5,
        "velocity": 0.71,
        "hand": "right"
      },
      {
        "midi": 49,
        "time": 545.75,
        "duration": 0.25,
        "velocity": 0.94,
        "hand": "left"
      },
      {
        "midi": 54,
        "time": 545.75,
        "duration": 0.25,
        "velocity": 0.94,
        "hand": "left"
      },
      {
        "midi": 43,
        "time": 546,
        "duration": 0.25,
        "velocity": 0.94,
        "hand": "left"
      },
      {
        "midi": 73,
        "time": 546,
        "duration": 1,
        "velocity": 0.71,
        "hand": "right"
      },
      {
        "midi": 82,
        "time": 546,
        "duration": 1,
        "velocity": 0.71,
        "hand": "right"
      },
      {
        "midi": 49,
        "time": 546.25,
        "duration": 0.25,
        "velocity": 0.94,
        "hand": "left"
      },
      {
        "midi": 51,
        "time": 546.25,
        "duration": 0.25,
        "velocity": 0.94,
        "hand": "left"
      },
      {
        "midi": 57,
        "time": 546.5,
        "duration": 0.25,
        "velocity": 0.94,
        "hand": "left"
      },
      {
        "midi": 49,
        "time": 546.75,
        "duration": 0.25,
        "velocity": 0.94,
        "hand": "left"
      },
      {
        "midi": 51,
        "time": 546.75,
        "duration": 0.25,
        "velocity": 0.94,
        "hand": "left"
      },
      {
        "midi": 58,
        "time": 547,
        "duration": 0.25,
        "velocity": 0.94,
        "hand": "left"
      },
      {
        "midi": 70,
        "time": 547,
        "duration": 0.5,
        "velocity": 0.71,
        "hand": "right"
      },
      {
        "midi": 75,
        "time": 547,
        "duration": 0.5,
        "velocity": 0.71,
        "hand": "right"
      },
      {
        "midi": 46,
        "time": 547.25,
        "duration": 0.25,
        "velocity": 0.94,
        "hand": "left"
      },
      {
        "midi": 51,
        "time": 547.25,
        "duration": 0.25,
        "velocity": 0.94,
        "hand": "left"
      },
      {
        "midi": 44,
        "time": 547.5,
        "duration": 0.25,
        "velocity": 0.94,
        "hand": "left"
      },
      {
        "midi": 70,
        "time": 547.5,
        "duration": 0.5,
        "velocity": 0.71,
        "hand": "right"
      },
      {
        "midi": 75,
        "time": 547.5,
        "duration": 1,
        "velocity": 0.71,
        "hand": "right"
      },
      {
        "midi": 51,
        "time": 547.75,
        "duration": 0.25,
        "velocity": 0.94,
        "hand": "left"
      },
      {
        "midi": 56,
        "time": 547.75,
        "duration": 0.25,
        "velocity": 0.94,
        "hand": "left"
      },
      {
        "midi": 65,
        "time": 548,
        "duration": 0.25,
        "velocity": 0.94,
        "hand": "right"
      },
      {
        "midi": 69,
        "time": 548,
        "duration": 0.5,
        "velocity": 0.71,
        "hand": "right"
      },
      {
        "midi": 51,
        "time": 548.25,
        "duration": 0.25,
        "velocity": 0.94,
        "hand": "left"
      },
      {
        "midi": 56,
        "time": 548.25,
        "duration": 0.25,
        "velocity": 0.94,
        "hand": "left"
      },
      {
        "midi": 63,
        "time": 548.5,
        "duration": 0.25,
        "velocity": 0.94,
        "hand": "right"
      },
      {
        "midi": 75,
        "time": 548.5,
        "duration": 0.5,
        "velocity": 0.71,
        "hand": "right"
      },
      {
        "midi": 80,
        "time": 548.5,
        "duration": 0.5,
        "velocity": 0.71,
        "hand": "right"
      },
      {
        "midi": 51,
        "time": 548.75,
        "duration": 0.25,
        "velocity": 0.94,
        "hand": "left"
      },
      {
        "midi": 56,
        "time": 548.75,
        "duration": 0.25,
        "velocity": 0.94,
        "hand": "left"
      },
      {
        "midi": 46,
        "time": 549,
        "duration": 0.25,
        "velocity": 0.94,
        "hand": "left"
      },
      {
        "midi": 73,
        "time": 549,
        "duration": 1,
        "velocity": 0.71,
        "hand": "right"
      },
      {
        "midi": 80,
        "time": 549,
        "duration": 0.5,
        "velocity": 0.71,
        "hand": "right"
      },
      {
        "midi": 51,
        "time": 549.25,
        "duration": 0.25,
        "velocity": 0.94,
        "hand": "left"
      },
      {
        "midi": 55,
        "time": 549.25,
        "duration": 0.25,
        "velocity": 0.94,
        "hand": "left"
      },
      {
        "midi": 62,
        "time": 549.5,
        "duration": 0.25,
        "velocity": 0.94,
        "hand": "right"
      },
      {
        "midi": 67,
        "time": 549.5,
        "duration": 0.5,
        "velocity": 0.71,
        "hand": "right"
      },
      {
        "midi": 79,
        "time": 549.5,
        "duration": 0.5,
        "velocity": 0.71,
        "hand": "right"
      },
      {
        "midi": 51,
        "time": 549.75,
        "duration": 0.25,
        "velocity": 0.94,
        "hand": "left"
      },
      {
        "midi": 55,
        "time": 549.75,
        "duration": 0.25,
        "velocity": 0.94,
        "hand": "left"
      },
      {
        "midi": 63,
        "time": 550,
        "duration": 0.25,
        "velocity": 0.94,
        "hand": "right"
      },
      {
        "midi": 75,
        "time": 550,
        "duration": 0.5,
        "velocity": 0.71,
        "hand": "right"
      },
      {
        "midi": 85,
        "time": 550,
        "duration": 0.5,
        "velocity": 0.71,
        "hand": "right"
      },
      {
        "midi": 51,
        "time": 550.25,
        "duration": 0.25,
        "velocity": 0.94,
        "hand": "left"
      },
      {
        "midi": 55,
        "time": 550.25,
        "duration": 0.25,
        "velocity": 0.94,
        "hand": "left"
      },
      {
        "midi": 44,
        "time": 550.5,
        "duration": 0.25,
        "velocity": 0.94,
        "hand": "left"
      },
      {
        "midi": 75,
        "time": 550.5,
        "duration": 1,
        "velocity": 0.71,
        "hand": "right"
      },
      {
        "midi": 85,
        "time": 550.5,
        "duration": 1,
        "velocity": 0.71,
        "hand": "right"
      },
      {
        "midi": 51,
        "time": 550.75,
        "duration": 0.25,
        "velocity": 0.94,
        "hand": "left"
      },
      {
        "midi": 56,
        "time": 550.75,
        "duration": 0.25,
        "velocity": 0.94,
        "hand": "left"
      },
      {
        "midi": 63,
        "time": 551,
        "duration": 0.25,
        "velocity": 0.94,
        "hand": "right"
      },
      {
        "midi": 51,
        "time": 551.25,
        "duration": 0.25,
        "velocity": 0.94,
        "hand": "left"
      },
      {
        "midi": 56,
        "time": 551.25,
        "duration": 0.25,
        "velocity": 0.94,
        "hand": "left"
      },
      {
        "midi": 68,
        "time": 551.5,
        "duration": 0.25,
        "velocity": 0.94,
        "hand": "right"
      },
      {
        "midi": 75,
        "time": 551.5,
        "duration": 0.5,
        "velocity": 0.71,
        "hand": "right"
      },
      {
        "midi": 84,
        "time": 551.5,
        "duration": 0.5,
        "velocity": 0.71,
        "hand": "right"
      },
      {
        "midi": 56,
        "time": 551.75,
        "duration": 0.25,
        "velocity": 0.94,
        "hand": "left"
      },
      {
        "midi": 63,
        "time": 551.75,
        "duration": 0.25,
        "velocity": 0.94,
        "hand": "right"
      },
      {
        "midi": 46,
        "time": 552,
        "duration": 0.25,
        "velocity": 0.94,
        "hand": "left"
      },
      {
        "midi": 78,
        "time": 552,
        "duration": 0.5,
        "velocity": 0.71,
        "hand": "right"
      },
      {
        "midi": 84,
        "time": 552,
        "duration": 0.5,
        "velocity": 0.71,
        "hand": "right"
      },
      {
        "midi": 49,
        "time": 552.25,
        "duration": 0.25,
        "velocity": 0.94,
        "hand": "left"
      },
      {
        "midi": 54,
        "time": 552.25,
        "duration": 0.25,
        "velocity": 0.94,
        "hand": "left"
      },
      {
        "midi": 58,
        "time": 552.5,
        "duration": 0.25,
        "velocity": 0.94,
        "hand": "left"
      },
      {
        "midi": 73,
        "time": 552.5,
        "duration": 0.5,
        "velocity": 0.71,
        "hand": "right"
      },
      {
        "midi": 82,
        "time": 552.5,
        "duration": 0.5,
        "velocity": 0.71,
        "hand": "right"
      },
      {
        "midi": 49,
        "time": 552.75,
        "duration": 0.25,
        "velocity": 0.94,
        "hand": "left"
      },
      {
        "midi": 54,
        "time": 552.75,
        "duration": 0.25,
        "velocity": 0.94,
        "hand": "left"
      },
      {
        "midi": 61,
        "time": 553,
        "duration": 0.25,
        "velocity": 0.94,
        "hand": "right"
      },
      {
        "midi": 73,
        "time": 553,
        "duration": 0.5,
        "velocity": 0.71,
        "hand": "right"
      },
      {
        "midi": 78,
        "time": 553,
        "duration": 0.5,
        "velocity": 0.71,
        "hand": "right"
      },
      {
        "midi": 49,
        "time": 553.25,
        "duration": 0.25,
        "velocity": 0.94,
        "hand": "left"
      },
      {
        "midi": 54,
        "time": 553.25,
        "duration": 0.25,
        "velocity": 0.94,
        "hand": "left"
      },
      {
        "midi": 34,
        "time": 553.5,
        "duration": 0.25,
        "velocity": 0.94,
        "hand": "left"
      },
      {
        "midi": 66,
        "time": 553.5,
        "duration": 0.5,
        "velocity": 0.71,
        "hand": "right"
      },
      {
        "midi": 73,
        "time": 553.5,
        "duration": 0.5,
        "velocity": 0.71,
        "hand": "right"
      },
      {
        "midi": 42,
        "time": 553.75,
        "duration": 0.25,
        "velocity": 0.94,
        "hand": "left"
      },
      {
        "midi": 49,
        "time": 554,
        "duration": 0.25,
        "velocity": 0.94,
        "hand": "left"
      },
      {
        "midi": 61,
        "time": 554,
        "duration": 0.75,
        "velocity": 0.71,
        "hand": "right"
      },
      {
        "midi": 70,
        "time": 554,
        "duration": 0.75,
        "velocity": 0.71,
        "hand": "right"
      },
      {
        "midi": 42,
        "time": 554.25,
        "duration": 0.25,
        "velocity": 0.94,
        "hand": "left"
      },
      {
        "midi": 49,
        "time": 554.25,
        "duration": 0.25,
        "velocity": 0.94,
        "hand": "left"
      },
      {
        "midi": 42,
        "time": 554.5,
        "duration": 0.25,
        "velocity": 0.94,
        "hand": "left"
      },
      {
        "midi": 42,
        "time": 554.75,
        "duration": 0.25,
        "velocity": 0.94,
        "hand": "left"
      },
      {
        "midi": 56,
        "time": 554.75,
        "duration": 0.25,
        "velocity": 0.71,
        "hand": "left"
      },
      {
        "midi": 68,
        "time": 554.75,
        "duration": 0.25,
        "velocity": 0.71,
        "hand": "right"
      },
      {
        "midi": 34,
        "time": 555,
        "duration": 0.25,
        "velocity": 0.94,
        "hand": "left"
      },
      {
        "midi": 61,
        "time": 555,
        "duration": 1,
        "velocity": 0.71,
        "hand": "right"
      },
      {
        "midi": 68,
        "time": 555,
        "duration": 1,
        "velocity": 0.71,
        "hand": "right"
      },
      {
        "midi": 42,
        "time": 555.25,
        "duration": 0.25,
        "velocity": 0.94,
        "hand": "left"
      },
      {
        "midi": 49,
        "time": 555.5,
        "duration": 0.25,
        "velocity": 0.94,
        "hand": "left"
      },
      {
        "midi": 42,
        "time": 555.75,
        "duration": 0.25,
        "velocity": 0.94,
        "hand": "left"
      },
      {
        "midi": 49,
        "time": 555.75,
        "duration": 0.25,
        "velocity": 0.94,
        "hand": "left"
      },
      {
        "midi": 42,
        "time": 556,
        "duration": 0.25,
        "velocity": 0.94,
        "hand": "left"
      },
      {
        "midi": 61,
        "time": 556,
        "duration": 1,
        "velocity": 0.71,
        "hand": "right"
      },
      {
        "midi": 66,
        "time": 556,
        "duration": 1,
        "velocity": 0.71,
        "hand": "right"
      },
      {
        "midi": 42,
        "time": 556.25,
        "duration": 0.25,
        "velocity": 0.94,
        "hand": "left"
      },
      {
        "midi": 49,
        "time": 556.25,
        "duration": 0.25,
        "velocity": 0.94,
        "hand": "left"
      },
      {
        "midi": 34,
        "time": 556.5,
        "duration": 0.25,
        "velocity": 0.94,
        "hand": "left"
      },
      {
        "midi": 42,
        "time": 556.75,
        "duration": 0.25,
        "velocity": 0.94,
        "hand": "left"
      },
      {
        "midi": 49,
        "time": 557,
        "duration": 0.25,
        "velocity": 0.94,
        "hand": "left"
      },
      {
        "midi": 61,
        "time": 557,
        "duration": 0.75,
        "velocity": 0.71,
        "hand": "right"
      },
      {
        "midi": 65,
        "time": 557,
        "duration": 0.75,
        "velocity": 0.71,
        "hand": "right"
      },
      {
        "midi": 42,
        "time": 557.25,
        "duration": 0.25,
        "velocity": 0.94,
        "hand": "left"
      },
      {
        "midi": 49,
        "time": 557.25,
        "duration": 0.25,
        "velocity": 0.94,
        "hand": "left"
      },
      {
        "midi": 42,
        "time": 557.5,
        "duration": 0.25,
        "velocity": 0.94,
        "hand": "left"
      },
      {
        "midi": 42,
        "time": 557.75,
        "duration": 0.25,
        "velocity": 0.94,
        "hand": "left"
      },
      {
        "midi": 54,
        "time": 557.75,
        "duration": 0.25,
        "velocity": 0.71,
        "hand": "left"
      },
      {
        "midi": 66,
        "time": 557.75,
        "duration": 0.25,
        "velocity": 0.71,
        "hand": "right"
      },
      {
        "midi": 34,
        "time": 558,
        "duration": 0.25,
        "velocity": 0.94,
        "hand": "left"
      },
      {
        "midi": 61,
        "time": 558,
        "duration": 1,
        "velocity": 0.71,
        "hand": "right"
      },
      {
        "midi": 67,
        "time": 558,
        "duration": 1,
        "velocity": 0.71,
        "hand": "right"
      },
      {
        "midi": 41,
        "time": 558.25,
        "duration": 0.25,
        "velocity": 0.94,
        "hand": "left"
      },
      {
        "midi": 49,
        "time": 558.5,
        "duration": 0.25,
        "velocity": 0.94,
        "hand": "left"
      },
      {
        "midi": 41,
        "time": 558.75,
        "duration": 0.25,
        "velocity": 0.94,
        "hand": "left"
      },
      {
        "midi": 49,
        "time": 558.75,
        "duration": 0.25,
        "velocity": 0.94,
        "hand": "left"
      },
      {
        "midi": 41,
        "time": 559,
        "duration": 0.25,
        "velocity": 0.94,
        "hand": "left"
      },
      {
        "midi": 65,
        "time": 559,
        "duration": 0.5,
        "velocity": 0.71,
        "hand": "right"
      },
      {
        "midi": 67,
        "time": 559,
        "duration": 0.5,
        "velocity": 0.71,
        "hand": "right"
      },
      {
        "midi": 41,
        "time": 559.25,
        "duration": 0.25,
        "velocity": 0.94,
        "hand": "left"
      },
      {
        "midi": 49,
        "time": 559.25,
        "duration": 0.25,
        "velocity": 0.94,
        "hand": "left"
      },
      {
        "midi": 36,
        "time": 559.5,
        "duration": 0.5,
        "velocity": 0.71,
        "hand": "left"
      },
      {
        "midi": 65,
        "time": 559.5,
        "duration": 1,
        "velocity": 0.71,
        "hand": "right"
      },
      {
        "midi": 68,
        "time": 559.5,
        "duration": 1,
        "velocity": 0.71,
        "hand": "right"
      },
      {
        "midi": 41,
        "time": 559.75,
        "duration": 0.25,
        "velocity": 0.71,
        "hand": "left"
      },
      {
        "midi": 48,
        "time": 560,
        "duration": 0.25,
        "velocity": 0.71,
        "hand": "left"
      },
      {
        "midi": 49,
        "time": 560.25,
        "duration": 0.25,
        "velocity": 0.75,
        "hand": "left"
      },
      {
        "midi": 50,
        "time": 560.25,
        "duration": 0.25,
        "velocity": 0.8,
        "hand": "left"
      },
      {
        "midi": 51,
        "time": 560.5,
        "duration": 0.25,
        "velocity": 0.84,
        "hand": "left"
      },
      {
        "midi": 65,
        "time": 560.5,
        "duration": 0.5,
        "velocity": 0.71,
        "hand": "right"
      },
      {
        "midi": 69,
        "time": 560.5,
        "duration": 0.5,
        "velocity": 0.71,
        "hand": "right"
      },
      {
        "midi": 52,
        "time": 560.75,
        "duration": 0.25,
        "velocity": 0.89,
        "hand": "left"
      },
      {
        "midi": 53,
        "time": 560.75,
        "duration": 0.25,
        "velocity": 0.93,
        "hand": "left"
      },
      {
        "midi": 37,
        "time": 561,
        "duration": 0.5,
        "velocity": 0.71,
        "hand": "left"
      },
      {
        "midi": 65,
        "time": 561,
        "duration": 1,
        "velocity": 0.71,
        "hand": "right"
      },
      {
        "midi": 72,
        "time": 561,
        "duration": 1,
        "velocity": 0.71,
        "hand": "right"
      },
      {
        "midi": 46,
        "time": 561.25,
        "duration": 0.25,
        "velocity": 0.93,
        "hand": "left"
      },
      {
        "midi": 48,
        "time": 561.5,
        "duration": 0.25,
        "velocity": 0.93,
        "hand": "left"
      },
      {
        "midi": 49,
        "time": 561.75,
        "duration": 0.25,
        "velocity": 0.94,
        "hand": "left"
      },
      {
        "midi": 50,
        "time": 561.75,
        "duration": 0.25,
        "velocity": 0.96,
        "hand": "left"
      },
      {
        "midi": 51,
        "time": 562,
        "duration": 0.25,
        "velocity": 0.97,
        "hand": "left"
      },
      {
        "midi": 65,
        "time": 562,
        "duration": 0.5,
        "velocity": 0.71,
        "hand": "right"
      },
      {
        "midi": 70,
        "time": 562,
        "duration": 0.5,
        "velocity": 0.71,
        "hand": "right"
      },
      {
        "midi": 52,
        "time": 562.25,
        "duration": 0.25,
        "velocity": 0.98,
        "hand": "left"
      },
      {
        "midi": 53,
        "time": 562.25,
        "duration": 0.25,
        "velocity": 1,
        "hand": "left"
      },
      {
        "midi": 40,
        "time": 562.5,
        "duration": 0.5,
        "velocity": 1,
        "hand": "left"
      },
      {
        "midi": 67,
        "time": 562.5,
        "duration": 0.5,
        "velocity": 0.71,
        "hand": "right"
      },
      {
        "midi": 73,
        "time": 562.5,
        "duration": 0.5,
        "velocity": 0.71,
        "hand": "right"
      },
      {
        "midi": 48,
        "time": 562.75,
        "duration": 0.25,
        "velocity": 1,
        "hand": "left"
      },
      {
        "midi": 50,
        "time": 563,
        "duration": 0.25,
        "velocity": 1,
        "hand": "left"
      },
      {
        "midi": 67,
        "time": 563,
        "duration": 0.5,
        "velocity": 0.71,
        "hand": "right"
      },
      {
        "midi": 71,
        "time": 563,
        "duration": 0.5,
        "velocity": 0.71,
        "hand": "right"
      },
      {
        "midi": 51,
        "time": 563.25,
        "duration": 0.25,
        "velocity": 1,
        "hand": "left"
      },
      {
        "midi": 52,
        "time": 563.25,
        "duration": 0.25,
        "velocity": 1,
        "hand": "left"
      },
      {
        "midi": 53,
        "time": 563.5,
        "duration": 0.25,
        "velocity": 1,
        "hand": "left"
      },
      {
        "midi": 67,
        "time": 563.5,
        "duration": 0.5,
        "velocity": 0.71,
        "hand": "right"
      },
      {
        "midi": 72,
        "time": 563.5,
        "duration": 0.5,
        "velocity": 0.71,
        "hand": "right"
      },
      {
        "midi": 54,
        "time": 563.75,
        "duration": 0.25,
        "velocity": 1,
        "hand": "left"
      },
      {
        "midi": 55,
        "time": 563.75,
        "duration": 0.25,
        "velocity": 1,
        "hand": "left"
      },
      {
        "midi": 41,
        "time": 564,
        "duration": 0.5,
        "velocity": 1,
        "hand": "left"
      },
      {
        "midi": 68,
        "time": 564,
        "duration": 1,
        "velocity": 0.71,
        "hand": "right"
      },
      {
        "midi": 75,
        "time": 564,
        "duration": 1,
        "velocity": 0.71,
        "hand": "right"
      },
      {
        "midi": 49,
        "time": 564.25,
        "duration": 0.25,
        "velocity": 1,
        "hand": "left"
      },
      {
        "midi": 51,
        "time": 564.5,
        "duration": 0.25,
        "velocity": 1,
        "hand": "left"
      },
      {
        "midi": 52,
        "time": 564.75,
        "duration": 0.25,
        "velocity": 1,
        "hand": "left"
      },
      {
        "midi": 53,
        "time": 564.75,
        "duration": 0.25,
        "velocity": 1,
        "hand": "left"
      },
      {
        "midi": 54,
        "time": 565,
        "duration": 0.25,
        "velocity": 1,
        "hand": "left"
      },
      {
        "midi": 68,
        "time": 565,
        "duration": 0.5,
        "velocity": 0.71,
        "hand": "right"
      },
      {
        "midi": 73,
        "time": 565,
        "duration": 0.5,
        "velocity": 0.71,
        "hand": "right"
      },
      {
        "midi": 55,
        "time": 565.25,
        "duration": 0.25,
        "velocity": 1,
        "hand": "left"
      },
      {
        "midi": 56,
        "time": 565.25,
        "duration": 0.25,
        "velocity": 1,
        "hand": "left"
      },
      {
        "midi": 43,
        "time": 565.5,
        "duration": 0.5,
        "velocity": 1,
        "hand": "left"
      },
      {
        "midi": 52,
        "time": 565.75,
        "duration": 0.25,
        "velocity": 1,
        "hand": "left"
      },
      {
        "midi": 53,
        "time": 566,
        "duration": 0.25,
        "velocity": 1,
        "hand": "left"
      },
      {
        "midi": 72,
        "time": 566,
        "duration": 0.5,
        "velocity": 0.71,
        "hand": "right"
      },
      {
        "midi": 75,
        "time": 566,
        "duration": 0.5,
        "velocity": 0.71,
        "hand": "right"
      },
      {
        "midi": 54,
        "time": 566.25,
        "duration": 0.25,
        "velocity": 1,
        "hand": "left"
      },
      {
        "midi": 55,
        "time": 566.25,
        "duration": 0.25,
        "velocity": 1,
        "hand": "left"
      },
      {
        "midi": 56,
        "time": 566.5,
        "duration": 0.25,
        "velocity": 1,
        "hand": "left"
      },
      {
        "midi": 72,
        "time": 566.5,
        "duration": 0.5,
        "velocity": 0.71,
        "hand": "right"
      },
      {
        "midi": 76,
        "time": 566.5,
        "duration": 0.5,
        "velocity": 0.71,
        "hand": "right"
      },
      {
        "midi": 57,
        "time": 566.75,
        "duration": 0.25,
        "velocity": 1,
        "hand": "left"
      },
      {
        "midi": 58,
        "time": 566.75,
        "duration": 0.25,
        "velocity": 1,
        "hand": "left"
      },
      {
        "midi": 44,
        "time": 567,
        "duration": 0.25,
        "velocity": 0.94,
        "hand": "left"
      },
      {
        "midi": 72,
        "time": 567,
        "duration": 0.25,
        "velocity": 0.71,
        "hand": "right"
      },
      {
        "midi": 77,
        "time": 567,
        "duration": 0.5,
        "velocity": 0.71,
        "hand": "right"
      },
      {
        "midi": 53,
        "time": 567.25,
        "duration": 0.25,
        "velocity": 0.94,
        "hand": "left"
      },
      {
        "midi": 73,
        "time": 567.25,
        "duration": 0.25,
        "velocity": 0.71,
        "hand": "right"
      },
      {
        "midi": 75,
        "time": 567.25,
        "duration": 0.25,
        "velocity": 0.71,
        "hand": "right"
      },
      {
        "midi": 61,
        "time": 567.5,
        "duration": 0.25,
        "velocity": 0.94,
        "hand": "right"
      },
      {
        "midi": 73,
        "time": 567.5,
        "duration": 0.5,
        "velocity": 0.71,
        "hand": "right"
      },
      {
        "midi": 82,
        "time": 567.5,
        "duration": 0.5,
        "velocity": 0.71,
        "hand": "right"
      },
      {
        "midi": 56,
        "time": 567.75,
        "duration": 0.25,
        "velocity": 0.94,
        "hand": "left"
      },
      {
        "midi": 65,
        "time": 567.75,
        "duration": 0.25,
        "velocity": 0.94,
        "hand": "right"
      },
      {
        "midi": 61,
        "time": 568,
        "duration": 0.25,
        "velocity": 0.94,
        "hand": "right"
      },
      {
        "midi": 77,
        "time": 568,
        "duration": 0.5,
        "velocity": 0.71,
        "hand": "right"
      },
      {
        "midi": 80,
        "time": 568,
        "duration": 0.5,
        "velocity": 0.71,
        "hand": "right"
      },
      {
        "midi": 53,
        "time": 568.25,
        "duration": 0.25,
        "velocity": 0.94,
        "hand": "left"
      },
      {
        "midi": 56,
        "time": 568.25,
        "duration": 0.25,
        "velocity": 0.94,
        "hand": "left"
      },
      {
        "midi": 32,
        "time": 568.5,
        "duration": 0.25,
        "velocity": 0.94,
        "hand": "left"
      },
      {
        "midi": 72,
        "time": 568.5,
        "duration": 1,
        "velocity": 0.71,
        "hand": "right"
      },
      {
        "midi": 80,
        "time": 568.5,
        "duration": 1,
        "velocity": 0.71,
        "hand": "right"
      },
      {
        "midi": 44,
        "time": 568.75,
        "duration": 0.25,
        "velocity": 0.94,
        "hand": "left"
      },
      {
        "midi": 51,
        "time": 568.75,
        "duration": 0.25,
        "velocity": 0.94,
        "hand": "left"
      },
      {
        "midi": 60,
        "time": 569,
        "duration": 0.25,
        "velocity": 0.94,
        "hand": "right"
      },
      {
        "midi": 56,
        "time": 569.25,
        "duration": 0.25,
        "velocity": 0.94,
        "hand": "left"
      },
      {
        "midi": 66,
        "time": 569.25,
        "duration": 0.25,
        "velocity": 0.94,
        "hand": "right"
      },
      {
        "midi": 60,
        "time": 569.5,
        "duration": 0.25,
        "velocity": 0.94,
        "hand": "right"
      },
      {
        "midi": 72,
        "time": 569.5,
        "duration": 0.5,
        "velocity": 0.71,
        "hand": "right"
      },
      {
        "midi": 78,
        "time": 569.5,
        "duration": 0.5,
        "velocity": 0.71,
        "hand": "right"
      },
      {
        "midi": 51,
        "time": 569.75,
        "duration": 0.25,
        "velocity": 0.94,
        "hand": "left"
      },
      {
        "midi": 56,
        "time": 569.75,
        "duration": 0.25,
        "velocity": 0.94,
        "hand": "left"
      },
      {
        "midi": 37,
        "time": 570,
        "duration": 0.5,
        "velocity": 0.94,
        "hand": "left"
      },
      {
        "midi": 73,
        "time": 570,
        "duration": 0.5,
        "velocity": 0.71,
        "hand": "right"
      },
      {
        "midi": 77,
        "time": 570,
        "duration": 0.5,
        "velocity": 0.71,
        "hand": "right"
      },
      {
        "midi": 44,
        "time": 570.5,
        "duration": 0.25,
        "velocity": 0.94,
        "hand": "left"
      },
      {
        "midi": 49,
        "time": 570.5,
        "duration": 0.25,
        "velocity": 0.94,
        "hand": "left"
      },
      {
        "midi": 49,
        "time": 570.75,
        "duration": 0.25,
        "velocity": 0.94,
        "hand": "left"
      },
      {
        "midi": 65,
        "time": 570.75,
        "duration": 0.25,
        "velocity": 0.71,
        "hand": "right"
      },
      {
        "midi": 68,
        "time": 570.75,
        "duration": 0.25,
        "velocity": 0.71,
        "hand": "right"
      },
      {
        "midi": 61,
        "time": 571,
        "duration": 0.25,
        "velocity": 0.94,
        "hand": "right"
      },
      {
        "midi": 77,
        "time": 571,
        "duration": 0.25,
        "velocity": 0.71,
        "hand": "right"
      },
      {
        "midi": 61,
        "time": 571.25,
        "duration": 0.25,
        "velocity": 0.94,
        "hand": "right"
      },
      {
        "midi": 77,
        "time": 571.25,
        "duration": 0.25,
        "velocity": 0.71,
        "hand": "right"
      },
      {
        "midi": 80,
        "time": 571.25,
        "duration": 0.25,
        "velocity": 0.71,
        "hand": "right"
      },
      {
        "midi": 73,
        "time": 571.5,
        "duration": 0.25,
        "velocity": 0.94,
        "hand": "right"
      },
      {
        "midi": 89,
        "time": 571.5,
        "duration": 0.25,
        "velocity": 0.71,
        "hand": "right"
      },
      {
        "midi": 61,
        "time": 571.75,
        "duration": 0.25,
        "velocity": 0.94,
        "hand": "right"
      },
      {
        "midi": 77,
        "time": 571.75,
        "duration": 0.25,
        "velocity": 0.71,
        "hand": "right"
      },
      {
        "midi": 80,
        "time": 571.75,
        "duration": 0.25,
        "velocity": 0.71,
        "hand": "right"
      },
      {
        "midi": 61,
        "time": 572,
        "duration": 0.25,
        "velocity": 0.94,
        "hand": "right"
      },
      {
        "midi": 77,
        "time": 572,
        "duration": 0.25,
        "velocity": 0.71,
        "hand": "right"
      },
      {
        "midi": 49,
        "time": 572.25,
        "duration": 0.25,
        "velocity": 0.94,
        "hand": "left"
      },
      {
        "midi": 65,
        "time": 572.25,
        "duration": 0.25,
        "velocity": 0.71,
        "hand": "right"
      },
      {
        "midi": 68,
        "time": 572.25,
        "duration": 0.25,
        "velocity": 0.71,
        "hand": "right"
      },
      {
        "midi": 49,
        "time": 572.5,
        "duration": 0.25,
        "velocity": 0.94,
        "hand": "left"
      },
      {
        "midi": 65,
        "time": 572.5,
        "duration": 0.25,
        "velocity": 0.71,
        "hand": "right"
      },
      {
        "midi": 37,
        "time": 572.75,
        "duration": 0.25,
        "velocity": 0.94,
        "hand": "left"
      },
      {
        "midi": 53,
        "time": 572.75,
        "duration": 0.25,
        "velocity": 0.71,
        "hand": "left"
      },
      {
        "midi": 56,
        "time": 572.75,
        "duration": 0.25,
        "velocity": 0.71,
        "hand": "left"
      },
      {
        "midi": 37,
        "time": 573,
        "duration": 0.5,
        "velocity": 0.94,
        "hand": "left"
      },
      {
        "midi": 65,
        "time": 573,
        "duration": 0.25,
        "velocity": 0.71,
        "hand": "right"
      },
      {
        "midi": 53,
        "time": 573.25,
        "duration": 0.25,
        "velocity": 0.71,
        "hand": "left"
      },
      {
        "midi": 57,
        "time": 573.25,
        "duration": 0.25,
        "velocity": 0.71,
        "hand": "left"
      },
      {
        "midi": 45,
        "time": 573.5,
        "duration": 0.25,
        "velocity": 0.94,
        "hand": "left"
      },
      {
        "midi": 49,
        "time": 573.5,
        "duration": 0.25,
        "velocity": 0.94,
        "hand": "left"
      },
      {
        "midi": 65,
        "time": 573.5,
        "duration": 0.25,
        "velocity": 0.71,
        "hand": "right"
      },
      {
        "midi": 49,
        "time": 573.75,
        "duration": 0.25,
        "velocity": 0.94,
        "hand": "left"
      },
      {
        "midi": 65,
        "time": 573.75,
        "duration": 0.25,
        "velocity": 0.71,
        "hand": "right"
      },
      {
        "midi": 69,
        "time": 573.75,
        "duration": 0.25,
        "velocity": 0.71,
        "hand": "right"
      },
      {
        "midi": 61,
        "time": 574,
        "duration": 0.25,
        "velocity": 0.94,
        "hand": "right"
      },
      {
        "midi": 77,
        "time": 574,
        "duration": 0.25,
        "velocity": 0.71,
        "hand": "right"
      },
      {
        "midi": 61,
        "time": 574.25,
        "duration": 0.25,
        "velocity": 0.94,
        "hand": "right"
      },
      {
        "midi": 77,
        "time": 574.25,
        "duration": 0.25,
        "velocity": 0.71,
        "hand": "right"
      },
      {
        "midi": 81,
        "time": 574.25,
        "duration": 0.25,
        "velocity": 0.71,
        "hand": "right"
      },
      {
        "midi": 73,
        "time": 574.5,
        "duration": 0.25,
        "velocity": 0.94,
        "hand": "right"
      },
      {
        "midi": 89,
        "time": 574.5,
        "duration": 0.25,
        "velocity": 0.71,
        "hand": "right"
      },
      {
        "midi": 61,
        "time": 574.75,
        "duration": 0.25,
        "velocity": 0.94,
        "hand": "right"
      },
      {
        "midi": 77,
        "time": 574.75,
        "duration": 0.25,
        "velocity": 0.71,
        "hand": "right"
      },
      {
        "midi": 81,
        "time": 574.75,
        "duration": 0.25,
        "velocity": 0.71,
        "hand": "right"
      },
      {
        "midi": 61,
        "time": 575,
        "duration": 0.25,
        "velocity": 0.94,
        "hand": "right"
      },
      {
        "midi": 77,
        "time": 575,
        "duration": 0.25,
        "velocity": 0.71,
        "hand": "right"
      },
      {
        "midi": 49,
        "time": 575.25,
        "duration": 0.25,
        "velocity": 0.94,
        "hand": "left"
      },
      {
        "midi": 65,
        "time": 575.25,
        "duration": 0.25,
        "velocity": 0.71,
        "hand": "right"
      },
      {
        "midi": 69,
        "time": 575.25,
        "duration": 0.25,
        "velocity": 0.71,
        "hand": "right"
      },
      {
        "midi": 49,
        "time": 575.5,
        "duration": 0.25,
        "velocity": 0.94,
        "hand": "left"
      },
      {
        "midi": 65,
        "time": 575.5,
        "duration": 0.25,
        "velocity": 0.71,
        "hand": "right"
      },
      {
        "midi": 37,
        "time": 575.75,
        "duration": 0.25,
        "velocity": 0.94,
        "hand": "left"
      },
      {
        "midi": 53,
        "time": 575.75,
        "duration": 0.25,
        "velocity": 0.71,
        "hand": "left"
      },
      {
        "midi": 57,
        "time": 575.75,
        "duration": 0.25,
        "velocity": 0.71,
        "hand": "left"
      },
      {
        "midi": 37,
        "time": 576,
        "duration": 0.5,
        "velocity": 0.94,
        "hand": "left"
      },
      {
        "midi": 65,
        "time": 576,
        "duration": 0.25,
        "velocity": 0.71,
        "hand": "right"
      },
      {
        "midi": 53,
        "time": 576.25,
        "duration": 0.25,
        "velocity": 0.71,
        "hand": "left"
      },
      {
        "midi": 58,
        "time": 576.25,
        "duration": 0.25,
        "velocity": 0.71,
        "hand": "left"
      },
      {
        "midi": 46,
        "time": 576.5,
        "duration": 0.25,
        "velocity": 0.94,
        "hand": "left"
      },
      {
        "midi": 49,
        "time": 576.5,
        "duration": 0.25,
        "velocity": 0.94,
        "hand": "left"
      },
      {
        "midi": 65,
        "time": 576.5,
        "duration": 0.25,
        "velocity": 0.71,
        "hand": "right"
      },
      {
        "midi": 49,
        "time": 576.75,
        "duration": 0.25,
        "velocity": 0.94,
        "hand": "left"
      },
      {
        "midi": 65,
        "time": 576.75,
        "duration": 0.25,
        "velocity": 0.71,
        "hand": "right"
      },
      {
        "midi": 70,
        "time": 576.75,
        "duration": 0.25,
        "velocity": 0.71,
        "hand": "right"
      },
      {
        "midi": 61,
        "time": 577,
        "duration": 0.25,
        "velocity": 0.94,
        "hand": "right"
      },
      {
        "midi": 77,
        "time": 577,
        "duration": 0.25,
        "velocity": 0.71,
        "hand": "right"
      },
      {
        "midi": 61,
        "time": 577.25,
        "duration": 0.25,
        "velocity": 0.94,
        "hand": "right"
      },
      {
        "midi": 77,
        "time": 577.25,
        "duration": 0.25,
        "velocity": 0.71,
        "hand": "right"
      },
      {
        "midi": 82,
        "time": 577.25,
        "duration": 0.25,
        "velocity": 0.71,
        "hand": "right"
      },
      {
        "midi": 73,
        "time": 577.5,
        "duration": 0.25,
        "velocity": 0.94,
        "hand": "right"
      },
      {
        "midi": 89,
        "time": 577.5,
        "duration": 0.25,
        "velocity": 0.71,
        "hand": "right"
      },
      {
        "midi": 61,
        "time": 577.75,
        "duration": 0.25,
        "velocity": 0.94,
        "hand": "right"
      },
      {
        "midi": 77,
        "time": 577.75,
        "duration": 0.25,
        "velocity": 0.71,
        "hand": "right"
      },
      {
        "midi": 82,
        "time": 577.75,
        "duration": 0.25,
        "velocity": 0.71,
        "hand": "right"
      },
      {
        "midi": 61,
        "time": 578,
        "duration": 0.25,
        "velocity": 0.94,
        "hand": "right"
      },
      {
        "midi": 77,
        "time": 578,
        "duration": 0.25,
        "velocity": 0.71,
        "hand": "right"
      },
      {
        "midi": 49,
        "time": 578.25,
        "duration": 0.25,
        "velocity": 0.94,
        "hand": "left"
      },
      {
        "midi": 65,
        "time": 578.25,
        "duration": 0.25,
        "velocity": 0.71,
        "hand": "right"
      },
      {
        "midi": 70,
        "time": 578.25,
        "duration": 0.25,
        "velocity": 0.71,
        "hand": "right"
      },
      {
        "midi": 49,
        "time": 578.5,
        "duration": 0.25,
        "velocity": 0.94,
        "hand": "left"
      },
      {
        "midi": 65,
        "time": 578.5,
        "duration": 0.25,
        "velocity": 0.71,
        "hand": "right"
      },
      {
        "midi": 37,
        "time": 578.75,
        "duration": 0.25,
        "velocity": 0.94,
        "hand": "left"
      },
      {
        "midi": 53,
        "time": 578.75,
        "duration": 0.25,
        "velocity": 0.71,
        "hand": "left"
      },
      {
        "midi": 58,
        "time": 578.75,
        "duration": 0.25,
        "velocity": 0.71,
        "hand": "left"
      },
      {
        "midi": 37,
        "time": 579,
        "duration": 0.5,
        "velocity": 0.94,
        "hand": "left"
      },
      {
        "midi": 67,
        "time": 579,
        "duration": 0.25,
        "velocity": 0.71,
        "hand": "right"
      },
      {
        "midi": 53,
        "time": 579.25,
        "duration": 0.25,
        "velocity": 0.71,
        "hand": "left"
      },
      {
        "midi": 59,
        "time": 579.25,
        "duration": 0.25,
        "velocity": 0.71,
        "hand": "left"
      },
      {
        "midi": 43,
        "time": 579.5,
        "duration": 0.25,
        "velocity": 0.94,
        "hand": "left"
      },
      {
        "midi": 49,
        "time": 579.5,
        "duration": 0.25,
        "velocity": 0.94,
        "hand": "left"
      },
      {
        "midi": 67,
        "time": 579.5,
        "duration": 0.25,
        "velocity": 0.71,
        "hand": "right"
      },
      {
        "midi": 49,
        "time": 579.75,
        "duration": 0.25,
        "velocity": 0.94,
        "hand": "left"
      },
      {
        "midi": 65,
        "time": 579.75,
        "duration": 0.25,
        "velocity": 0.71,
        "hand": "right"
      },
      {
        "midi": 71,
        "time": 579.75,
        "duration": 0.25,
        "velocity": 0.71,
        "hand": "right"
      },
      {
        "midi": 61,
        "time": 580,
        "duration": 0.25,
        "velocity": 0.94,
        "hand": "right"
      },
      {
        "midi": 79,
        "time": 580,
        "duration": 0.25,
        "velocity": 0.71,
        "hand": "right"
      },
      {
        "midi": 61,
        "time": 580.25,
        "duration": 0.25,
        "velocity": 0.94,
        "hand": "right"
      },
      {
        "midi": 77,
        "time": 580.25,
        "duration": 0.25,
        "velocity": 0.71,
        "hand": "right"
      },
      {
        "midi": 83,
        "time": 580.25,
        "duration": 0.25,
        "velocity": 0.71,
        "hand": "right"
      },
      {
        "midi": 73,
        "time": 580.5,
        "duration": 0.25,
        "velocity": 0.94,
        "hand": "right"
      },
      {
        "midi": 91,
        "time": 580.5,
        "duration": 0.25,
        "velocity": 0.71,
        "hand": "right"
      },
      {
        "midi": 61,
        "time": 580.75,
        "duration": 0.25,
        "velocity": 0.94,
        "hand": "right"
      },
      {
        "midi": 77,
        "time": 580.75,
        "duration": 0.25,
        "velocity": 0.71,
        "hand": "right"
      },
      {
        "midi": 83,
        "time": 580.75,
        "duration": 0.25,
        "velocity": 0.71,
        "hand": "right"
      },
      {
        "midi": 61,
        "time": 581,
        "duration": 0.25,
        "velocity": 0.94,
        "hand": "right"
      },
      {
        "midi": 79,
        "time": 581,
        "duration": 0.25,
        "velocity": 0.71,
        "hand": "right"
      },
      {
        "midi": 49,
        "time": 581.25,
        "duration": 0.25,
        "velocity": 0.94,
        "hand": "left"
      },
      {
        "midi": 65,
        "time": 581.25,
        "duration": 0.25,
        "velocity": 0.71,
        "hand": "right"
      },
      {
        "midi": 71,
        "time": 581.25,
        "duration": 0.25,
        "velocity": 0.71,
        "hand": "right"
      },
      {
        "midi": 49,
        "time": 581.5,
        "duration": 0.25,
        "velocity": 0.94,
        "hand": "left"
      },
      {
        "midi": 67,
        "time": 581.5,
        "duration": 0.25,
        "velocity": 0.71,
        "hand": "right"
      },
      {
        "midi": 37,
        "time": 581.75,
        "duration": 0.25,
        "velocity": 0.94,
        "hand": "left"
      },
      {
        "midi": 53,
        "time": 581.75,
        "duration": 0.25,
        "velocity": 0.71,
        "hand": "left"
      },
      {
        "midi": 59,
        "time": 581.75,
        "duration": 0.25,
        "velocity": 0.71,
        "hand": "left"
      },
      {
        "midi": 36,
        "time": 582,
        "duration": 0.5,
        "velocity": 0.94,
        "hand": "left"
      },
      {
        "midi": 60,
        "time": 582,
        "duration": 0.5,
        "velocity": 0.71,
        "hand": "right"
      },
      {
        "midi": 68,
        "time": 582,
        "duration": 0.5,
        "velocity": 0.71,
        "hand": "right"
      },
      {
        "midi": 36,
        "time": 582.5,
        "duration": 0.5,
        "velocity": 0.8,
        "hand": "left"
      },
      {
        "midi": 48,
        "time": 582.75,
        "duration": 0.25,
        "velocity": 0.8,
        "hand": "left"
      },
      {
        "midi": 53,
        "time": 582.75,
        "duration": 0.25,
        "velocity": 0.8,
        "hand": "left"
      },
      {
        "midi": 41,
        "time": 583,
        "duration": 0.25,
        "velocity": 0.8,
        "hand": "left"
      },
      {
        "midi": 44,
        "time": 583,
        "duration": 0.25,
        "velocity": 0.8,
        "hand": "left"
      },
      {
        "midi": 56,
        "time": 583,
        "duration": 0.25,
        "velocity": 0.8,
        "hand": "left"
      },
      {
        "midi": 47,
        "time": 583.25,
        "duration": 0.25,
        "velocity": 0.8,
        "hand": "left"
      },
      {
        "midi": 59,
        "time": 583.25,
        "duration": 0.25,
        "velocity": 0.8,
        "hand": "left"
      },
      {
        "midi": 60,
        "time": 583.25,
        "duration": 0.25,
        "velocity": 0.8,
        "hand": "right"
      },
      {
        "midi": 53,
        "time": 583.5,
        "duration": 0.25,
        "velocity": 0.8,
        "hand": "left"
      },
      {
        "midi": 65,
        "time": 583.5,
        "duration": 0.25,
        "velocity": 0.71,
        "hand": "right"
      },
      {
        "midi": 56,
        "time": 583.75,
        "duration": 0.25,
        "velocity": 0.8,
        "hand": "left"
      },
      {
        "midi": 68,
        "time": 583.75,
        "duration": 0.25,
        "velocity": 0.71,
        "hand": "right"
      },
      {
        "midi": 71,
        "time": 583.75,
        "duration": 0.25,
        "velocity": 0.71,
        "hand": "right"
      },
      {
        "midi": 60,
        "time": 584,
        "duration": 0.25,
        "velocity": 0.8,
        "hand": "right"
      },
      {
        "midi": 72,
        "time": 584,
        "duration": 0.25,
        "velocity": 0.71,
        "hand": "right"
      },
      {
        "midi": 65,
        "time": 584.25,
        "duration": 0.25,
        "velocity": 0.8,
        "hand": "right"
      },
      {
        "midi": 77,
        "time": 584.25,
        "duration": 0.25,
        "velocity": 0.71,
        "hand": "right"
      },
      {
        "midi": 80,
        "time": 584.25,
        "duration": 0.25,
        "velocity": 0.71,
        "hand": "right"
      },
      {
        "midi": 71,
        "time": 584.5,
        "duration": 0.25,
        "velocity": 0.8,
        "hand": "right"
      },
      {
        "midi": 83,
        "time": 584.5,
        "duration": 0.25,
        "velocity": 0.71,
        "hand": "right"
      },
      {
        "midi": 72,
        "time": 584.75,
        "duration": 0.25,
        "velocity": 0.8,
        "hand": "right"
      },
      {
        "midi": 84,
        "time": 584.75,
        "duration": 0.25,
        "velocity": 0.71,
        "hand": "right"
      },
      {
        "midi": 89,
        "time": 584.75,
        "duration": 0.25,
        "velocity": 0.71,
        "hand": "right"
      },
      {
        "midi": 80,
        "time": 585,
        "duration": 0.5,
        "velocity": 0.8,
        "hand": "right"
      },
      {
        "midi": 92,
        "time": 585,
        "duration": 0.5,
        "velocity": 0.71,
        "hand": "right"
      },
      {
        "midi": 49,
        "time": 585.5,
        "duration": 0.5,
        "velocity": 0.8,
        "hand": "left"
      },
      {
        "midi": 65,
        "time": 585.5,
        "duration": 0.5,
        "velocity": 0.71,
        "hand": "right"
      },
      {
        "midi": 77,
        "time": 585.5,
        "duration": 0.5,
        "velocity": 0.71,
        "hand": "right"
      },
      {
        "midi": 47,
        "time": 586,
        "duration": 0.5,
        "velocity": 0.8,
        "hand": "left"
      },
      {
        "midi": 59,
        "time": 586,
        "duration": 0.5,
        "velocity": 0.8,
        "hand": "left"
      },
      {
        "midi": 73,
        "time": 586,
        "duration": 0.5,
        "velocity": 0.71,
        "hand": "right"
      },
      {
        "midi": 46,
        "time": 586.5,
        "duration": 0.5,
        "velocity": 0.8,
        "hand": "left"
      },
      {
        "midi": 58,
        "time": 586.5,
        "duration": 0.5,
        "velocity": 0.8,
        "hand": "left"
      },
      {
        "midi": 78,
        "time": 586.5,
        "duration": 0.5,
        "velocity": 0.71,
        "hand": "right"
      },
      {
        "midi": 48,
        "time": 587,
        "duration": 0.5,
        "velocity": 0.8,
        "hand": "left"
      },
      {
        "midi": 64,
        "time": 587,
        "duration": 0.5,
        "velocity": 0.71,
        "hand": "right"
      },
      {
        "midi": 76,
        "time": 587,
        "duration": 0.5,
        "velocity": 0.71,
        "hand": "right"
      },
      {
        "midi": 46,
        "time": 587.5,
        "duration": 0.5,
        "velocity": 0.8,
        "hand": "left"
      },
      {
        "midi": 58,
        "time": 587.5,
        "duration": 0.5,
        "velocity": 0.8,
        "hand": "left"
      },
      {
        "midi": 84,
        "time": 587.5,
        "duration": 0.5,
        "velocity": 0.71,
        "hand": "right"
      },
      {
        "midi": 44,
        "time": 588,
        "duration": 0.5,
        "velocity": 0.8,
        "hand": "left"
      },
      {
        "midi": 72,
        "time": 588,
        "duration": 0.5,
        "velocity": 0.71,
        "hand": "right"
      },
      {
        "midi": 84,
        "time": 588,
        "duration": 0.5,
        "velocity": 0.71,
        "hand": "right"
      },
      {
        "midi": 36,
        "time": 588.5,
        "duration": 0.5,
        "velocity": 0.8,
        "hand": "left"
      },
      {
        "midi": 48,
        "time": 588.75,
        "duration": 0.25,
        "velocity": 0.8,
        "hand": "left"
      },
      {
        "midi": 53,
        "time": 588.75,
        "duration": 0.25,
        "velocity": 0.8,
        "hand": "left"
      },
      {
        "midi": 41,
        "time": 589,
        "duration": 0.25,
        "velocity": 0.8,
        "hand": "left"
      },
      {
        "midi": 44,
        "time": 589,
        "duration": 0.25,
        "velocity": 0.8,
        "hand": "left"
      },
      {
        "midi": 56,
        "time": 589,
        "duration": 0.25,
        "velocity": 0.8,
        "hand": "left"
      },
      {
        "midi": 47,
        "time": 589.25,
        "duration": 0.25,
        "velocity": 0.8,
        "hand": "left"
      },
      {
        "midi": 59,
        "time": 589.25,
        "duration": 0.25,
        "velocity": 0.8,
        "hand": "left"
      },
      {
        "midi": 60,
        "time": 589.25,
        "duration": 0.25,
        "velocity": 0.8,
        "hand": "right"
      },
      {
        "midi": 53,
        "time": 589.5,
        "duration": 0.25,
        "velocity": 0.8,
        "hand": "left"
      },
      {
        "midi": 65,
        "time": 589.5,
        "duration": 0.25,
        "velocity": 0.71,
        "hand": "right"
      },
      {
        "midi": 56,
        "time": 589.75,
        "duration": 0.25,
        "velocity": 0.8,
        "hand": "left"
      },
      {
        "midi": 68,
        "time": 589.75,
        "duration": 0.25,
        "velocity": 0.71,
        "hand": "right"
      },
      {
        "midi": 71,
        "time": 589.75,
        "duration": 0.25,
        "velocity": 0.71,
        "hand": "right"
      },
      {
        "midi": 60,
        "time": 590,
        "duration": 0.25,
        "velocity": 0.8,
        "hand": "right"
      },
      {
        "midi": 72,
        "time": 590,
        "duration": 0.25,
        "velocity": 0.71,
        "hand": "right"
      },
      {
        "midi": 65,
        "time": 590.25,
        "duration": 0.25,
        "velocity": 0.8,
        "hand": "right"
      },
      {
        "midi": 77,
        "time": 590.25,
        "duration": 0.25,
        "velocity": 0.71,
        "hand": "right"
      },
      {
        "midi": 80,
        "time": 590.25,
        "duration": 0.25,
        "velocity": 0.71,
        "hand": "right"
      },
      {
        "midi": 71,
        "time": 590.5,
        "duration": 0.25,
        "velocity": 0.8,
        "hand": "right"
      },
      {
        "midi": 83,
        "time": 590.5,
        "duration": 0.25,
        "velocity": 0.71,
        "hand": "right"
      },
      {
        "midi": 72,
        "time": 590.75,
        "duration": 0.25,
        "velocity": 0.8,
        "hand": "right"
      },
      {
        "midi": 84,
        "time": 590.75,
        "duration": 0.25,
        "velocity": 0.71,
        "hand": "right"
      },
      {
        "midi": 89,
        "time": 590.75,
        "duration": 0.25,
        "velocity": 0.71,
        "hand": "right"
      },
      {
        "midi": 80,
        "time": 591,
        "duration": 0.5,
        "velocity": 0.8,
        "hand": "right"
      },
      {
        "midi": 92,
        "time": 591,
        "duration": 0.5,
        "velocity": 0.71,
        "hand": "right"
      },
      {
        "midi": 49,
        "time": 591.5,
        "duration": 0.5,
        "velocity": 0.8,
        "hand": "left"
      },
      {
        "midi": 65,
        "time": 591.5,
        "duration": 0.5,
        "velocity": 0.71,
        "hand": "right"
      },
      {
        "midi": 77,
        "time": 591.5,
        "duration": 0.5,
        "velocity": 0.71,
        "hand": "right"
      },
      {
        "midi": 35,
        "time": 592,
        "duration": 0.5,
        "velocity": 0.8,
        "hand": "left"
      },
      {
        "midi": 56,
        "time": 592,
        "duration": 0.5,
        "velocity": 0.71,
        "hand": "left"
      },
      {
        "midi": 65,
        "time": 592,
        "duration": 0.5,
        "velocity": 0.71,
        "hand": "right"
      },
      {
        "midi": 34,
        "time": 592.5,
        "duration": 0.5,
        "velocity": 0.8,
        "hand": "left"
      },
      {
        "midi": 54,
        "time": 592.5,
        "duration": 0.5,
        "velocity": 0.71,
        "hand": "left"
      },
      {
        "midi": 66,
        "time": 592.5,
        "duration": 0.5,
        "velocity": 0.71,
        "hand": "right"
      },
      {
        "midi": 36,
        "time": 593,
        "duration": 0.5,
        "velocity": 0.8,
        "hand": "left"
      },
      {
        "midi": 55,
        "time": 593,
        "duration": 0.5,
        "velocity": 0.71,
        "hand": "left"
      },
      {
        "midi": 64,
        "time": 593,
        "duration": 0.5,
        "velocity": 0.71,
        "hand": "right"
      },
      {
        "midi": 34,
        "time": 593.5,
        "duration": 0.5,
        "velocity": 0.8,
        "hand": "left"
      },
      {
        "midi": 60,
        "time": 593.5,
        "duration": 0.5,
        "velocity": 0.71,
        "hand": "right"
      },
      {
        "midi": 72,
        "time": 593.5,
        "duration": 0.5,
        "velocity": 0.71,
        "hand": "right"
      },
      {
        "midi": 32,
        "time": 594,
        "duration": 0.5,
        "velocity": 0.8,
        "hand": "left"
      },
      {
        "midi": 60,
        "time": 594,
        "duration": 0.5,
        "velocity": 0.71,
        "hand": "right"
      },
      {
        "midi": 72,
        "time": 594,
        "duration": 0.5,
        "velocity": 0.71,
        "hand": "right"
      },
      {
        "midi": 31,
        "time": 594.5,
        "duration": 0.5,
        "velocity": 0.8,
        "hand": "left"
      },
      {
        "midi": 65,
        "time": 594.5,
        "duration": 0.5,
        "velocity": 0.71,
        "hand": "right"
      },
      {
        "midi": 74,
        "time": 594.5,
        "duration": 0.5,
        "velocity": 0.71,
        "hand": "right"
      },
      {
        "midi": 30,
        "time": 595,
        "duration": 0.5,
        "velocity": 0.8,
        "hand": "left"
      },
      {
        "midi": 66,
        "time": 595,
        "duration": 0.5,
        "velocity": 0.71,
        "hand": "right"
      },
      {
        "midi": 75,
        "time": 595,
        "duration": 0.5,
        "velocity": 0.71,
        "hand": "right"
      },
      {
        "midi": 28,
        "time": 595.5,
        "duration": 0.5,
        "velocity": 0.8,
        "hand": "left"
      },
      {
        "midi": 70,
        "time": 595.5,
        "duration": 0.5,
        "velocity": 0.71,
        "hand": "right"
      },
      {
        "midi": 78,
        "time": 595.5,
        "duration": 0.5,
        "velocity": 0.71,
        "hand": "right"
      },
      {
        "midi": 27,
        "time": 596,
        "duration": 0.5,
        "velocity": 0.8,
        "hand": "left"
      },
      {
        "midi": 71,
        "time": 596,
        "duration": 0.5,
        "velocity": 0.71,
        "hand": "right"
      },
      {
        "midi": 83,
        "time": 596,
        "duration": 0.5,
        "velocity": 0.71,
        "hand": "right"
      },
      {
        "midi": 38,
        "time": 596.5,
        "duration": 0.5,
        "velocity": 0.8,
        "hand": "left"
      },
      {
        "midi": 71,
        "time": 596.5,
        "duration": 0.5,
        "velocity": 0.71,
        "hand": "right"
      },
      {
        "midi": 80,
        "time": 596.5,
        "duration": 0.5,
        "velocity": 0.71,
        "hand": "right"
      },
      {
        "midi": 37,
        "time": 597,
        "duration": 0.5,
        "velocity": 0.8,
        "hand": "left"
      },
      {
        "midi": 73,
        "time": 597,
        "duration": 0.5,
        "velocity": 0.71,
        "hand": "right"
      },
      {
        "midi": 82,
        "time": 597,
        "duration": 0.5,
        "velocity": 0.71,
        "hand": "right"
      },
      {
        "midi": 35,
        "time": 597.5,
        "duration": 0.5,
        "velocity": 0.8,
        "hand": "left"
      },
      {
        "midi": 77,
        "time": 597.5,
        "duration": 0.5,
        "velocity": 0.71,
        "hand": "right"
      },
      {
        "midi": 85,
        "time": 597.5,
        "duration": 0.5,
        "velocity": 0.71,
        "hand": "right"
      },
      {
        "midi": 34,
        "time": 598,
        "duration": 0.5,
        "velocity": 0.8,
        "hand": "left"
      },
      {
        "midi": 78,
        "time": 598,
        "duration": 0.5,
        "velocity": 0.71,
        "hand": "right"
      },
      {
        "midi": 90,
        "time": 598,
        "duration": 0.5,
        "velocity": 0.71,
        "hand": "right"
      },
      {
        "midi": 33,
        "time": 598.5,
        "duration": 0.5,
        "velocity": 0.8,
        "hand": "left"
      },
      {
        "midi": 79,
        "time": 598.5,
        "duration": 0.5,
        "velocity": 0.71,
        "hand": "right"
      },
      {
        "midi": 88,
        "time": 598.5,
        "duration": 0.5,
        "velocity": 0.71,
        "hand": "right"
      },
      {
        "midi": 32,
        "time": 599,
        "duration": 0.5,
        "velocity": 0.8,
        "hand": "left"
      },
      {
        "midi": 77,
        "time": 599,
        "duration": 0.5,
        "velocity": 0.71,
        "hand": "right"
      },
      {
        "midi": 89,
        "time": 599,
        "duration": 0.5,
        "velocity": 0.71,
        "hand": "right"
      },
      {
        "midi": 34,
        "time": 599.5,
        "duration": 0.5,
        "velocity": 0.8,
        "hand": "left"
      },
      {
        "midi": 77,
        "time": 599.5,
        "duration": 0.5,
        "velocity": 0.71,
        "hand": "right"
      },
      {
        "midi": 85,
        "time": 599.5,
        "duration": 0.5,
        "velocity": 0.71,
        "hand": "right"
      },
      {
        "midi": 36,
        "time": 600,
        "duration": 0.5,
        "velocity": 0.8,
        "hand": "left"
      },
      {
        "midi": 77,
        "time": 600,
        "duration": 0.5,
        "velocity": 0.71,
        "hand": "right"
      },
      {
        "midi": 84,
        "time": 600,
        "duration": 0.5,
        "velocity": 0.71,
        "hand": "right"
      },
      {
        "midi": 48,
        "time": 601.5,
        "duration": 0.5,
        "velocity": 0.8,
        "hand": "left"
      },
      {
        "midi": 60,
        "time": 601.5,
        "duration": 0.5,
        "velocity": 0.71,
        "hand": "right"
      },
      {
        "midi": 49,
        "time": 602,
        "duration": 0.5,
        "velocity": 0.8,
        "hand": "left"
      },
      {
        "midi": 61,
        "time": 602,
        "duration": 0.5,
        "velocity": 0.71,
        "hand": "right"
      },
      {
        "midi": 53,
        "time": 602.5,
        "duration": 0.5,
        "velocity": 0.8,
        "hand": "left"
      },
      {
        "midi": 65,
        "time": 602.5,
        "duration": 0.5,
        "velocity": 0.71,
        "hand": "right"
      },
      {
        "midi": 36,
        "time": 603,
        "duration": 0.5,
        "velocity": 0.8,
        "hand": "left"
      },
      {
        "midi": 60,
        "time": 603,
        "duration": 0.5,
        "velocity": 0.71,
        "hand": "right"
      },
      {
        "midi": 67,
        "time": 603,
        "duration": 0.5,
        "velocity": 0.71,
        "hand": "right"
      },
      {
        "midi": 31,
        "time": 603.5,
        "duration": 0.5,
        "velocity": 0.8,
        "hand": "left"
      },
      {
        "midi": 55,
        "time": 603.5,
        "duration": 0.5,
        "velocity": 0.71,
        "hand": "left"
      },
      {
        "midi": 67,
        "time": 603.5,
        "duration": 0.5,
        "velocity": 0.71,
        "hand": "right"
      },
      {
        "midi": 24,
        "time": 604,
        "duration": 0.5,
        "velocity": 0.8,
        "hand": "left"
      },
      {
        "midi": 60,
        "time": 604,
        "duration": 0.5,
        "velocity": 0.71,
        "hand": "right"
      },
      {
        "midi": 67,
        "time": 604,
        "duration": 0.5,
        "velocity": 0.71,
        "hand": "right"
      },
      {
        "midi": 48,
        "time": 606,
        "duration": 3,
        "velocity": 0.8,
        "hand": "left"
      },
      {
        "midi": 72,
        "time": 606,
        "duration": 3,
        "velocity": 0.71,
        "hand": "right"
      },
      {
        "midi": 84,
        "time": 606,
        "duration": 3,
        "velocity": 0.71,
        "hand": "right"
      },
      {
        "midi": 48,
        "time": 609,
        "duration": 3,
        "velocity": 0.8,
        "hand": "left"
      },
      {
        "midi": 67,
        "time": 609,
        "duration": 3,
        "velocity": 0.71,
        "hand": "right"
      },
      {
        "midi": 79,
        "time": 609,
        "duration": 3,
        "velocity": 0.71,
        "hand": "right"
      },
      {
        "midi": 48,
        "time": 612,
        "duration": 3,
        "velocity": 0.8,
        "hand": "left"
      },
      {
        "midi": 64,
        "time": 612,
        "duration": 3,
        "velocity": 0.71,
        "hand": "right"
      },
      {
        "midi": 76,
        "time": 612,
        "duration": 3,
        "velocity": 0.71,
        "hand": "right"
      },
      {
        "midi": 48,
        "time": 615,
        "duration": 3,
        "velocity": 0.8,
        "hand": "left"
      },
      {
        "midi": 62,
        "time": 615,
        "duration": 3,
        "velocity": 0.71,
        "hand": "right"
      },
      {
        "midi": 74,
        "time": 615,
        "duration": 3,
        "velocity": 0.71,
        "hand": "right"
      },
      {
        "midi": 36,
        "time": 618,
        "duration": 10,
        "velocity": 0.8,
        "hand": "left"
      },
      {
        "midi": 55,
        "time": 618,
        "duration": 10,
        "velocity": 0.71,
        "hand": "left"
      },
      {
        "midi": 64,
        "time": 618,
        "duration": 10,
        "velocity": 0.71,
        "hand": "right"
      },
      {
        "midi": 29,
        "time": 630,
        "duration": 0.5,
        "velocity": 0.8,
        "hand": "left"
      },
      {
        "midi": 56,
        "time": 630,
        "duration": 0.25,
        "velocity": 0.71,
        "hand": "left"
      },
      {
        "midi": 60,
        "time": 630.25,
        "duration": 0.25,
        "velocity": 0.71,
        "hand": "right"
      },
      {
        "midi": 65,
        "time": 630.25,
        "duration": 0.25,
        "velocity": 0.71,
        "hand": "right"
      },
      {
        "midi": 68,
        "time": 630.25,
        "duration": 0.25,
        "velocity": 0.71,
        "hand": "right"
      },
      {
        "midi": 49,
        "time": 630.5,
        "duration": 0.25,
        "velocity": 0.8,
        "hand": "left"
      },
      {
        "midi": 55,
        "time": 630.5,
        "duration": 0.25,
        "velocity": 0.71,
        "hand": "left"
      },
      {
        "midi": 37,
        "time": 630.75,
        "duration": 0.25,
        "velocity": 0.8,
        "hand": "left"
      },
      {
        "midi": 53,
        "time": 630.75,
        "duration": 0.25,
        "velocity": 0.71,
        "hand": "left"
      },
      {
        "midi": 59,
        "time": 630.75,
        "duration": 0.25,
        "velocity": 0.71,
        "hand": "left"
      },
      {
        "midi": 36,
        "time": 631,
        "duration": 0.25,
        "velocity": 0.8,
        "hand": "left"
      },
      {
        "midi": 61,
        "time": 631,
        "duration": 0.25,
        "velocity": 0.71,
        "hand": "right"
      },
      {
        "midi": 48,
        "time": 631.25,
        "duration": 0.25,
        "velocity": 0.8,
        "hand": "left"
      },
      {
        "midi": 58,
        "time": 631.25,
        "duration": 0.25,
        "velocity": 0.71,
        "hand": "left"
      },
      {
        "midi": 67,
        "time": 631.25,
        "duration": 0.25,
        "velocity": 0.71,
        "hand": "right"
      },
      {
        "midi": 56,
        "time": 631.5,
        "duration": 0.25,
        "velocity": 0.8,
        "hand": "left"
      },
      {
        "midi": 60,
        "time": 631.5,
        "duration": 0.25,
        "velocity": 0.71,
        "hand": "right"
      },
      {
        "midi": 41,
        "time": 631.75,
        "duration": 0.25,
        "velocity": 0.8,
        "hand": "left"
      },
      {
        "midi": 65,
        "time": 631.75,
        "duration": 0.25,
        "velocity": 0.71,
        "hand": "right"
      },
      {
        "midi": 70,
        "time": 631.75,
        "duration": 0.25,
        "velocity": 0.71,
        "hand": "right"
      },
      {
        "midi": 49,
        "time": 632,
        "duration": 0.25,
        "velocity": 0.8,
        "hand": "left"
      },
      {
        "midi": 67,
        "time": 632,
        "duration": 0.25,
        "velocity": 0.71,
        "hand": "right"
      },
      {
        "midi": 37,
        "time": 632.25,
        "duration": 0.25,
        "velocity": 0.8,
        "hand": "left"
      },
      {
        "midi": 58,
        "time": 632.25,
        "duration": 0.25,
        "velocity": 0.71,
        "hand": "left"
      },
      {
        "midi": 65,
        "time": 632.25,
        "duration": 0.25,
        "velocity": 0.71,
        "hand": "right"
      },
      {
        "midi": 36,
        "time": 632.5,
        "duration": 0.25,
        "velocity": 0.8,
        "hand": "left"
      },
      {
        "midi": 61,
        "time": 632.5,
        "duration": 0.25,
        "velocity": 0.71,
        "hand": "right"
      },
      {
        "midi": 48,
        "time": 632.75,
        "duration": 0.25,
        "velocity": 0.8,
        "hand": "left"
      },
      {
        "midi": 58,
        "time": 632.75,
        "duration": 0.25,
        "velocity": 0.71,
        "hand": "left"
      },
      {
        "midi": 67,
        "time": 632.75,
        "duration": 0.25,
        "velocity": 0.71,
        "hand": "right"
      },
      {
        "midi": 41,
        "time": 633,
        "duration": 0.25,
        "velocity": 0.8,
        "hand": "left"
      },
      {
        "midi": 56,
        "time": 633,
        "duration": 0.25,
        "velocity": 0.71,
        "hand": "left"
      },
      {
        "midi": 44,
        "time": 633.25,
        "duration": 0.25,
        "velocity": 0.8,
        "hand": "left"
      },
      {
        "midi": 61,
        "time": 633.25,
        "duration": 0.25,
        "velocity": 0.71,
        "hand": "right"
      },
      {
        "midi": 68,
        "time": 633.25,
        "duration": 0.75,
        "velocity": 0.71,
        "hand": "right"
      },
      {
        "midi": 39,
        "time": 633.5,
        "duration": 0.25,
        "velocity": 0.8,
        "hand": "left"
      },
      {
        "midi": 61,
        "time": 633.5,
        "duration": 0.25,
        "velocity": 0.72,
        "hand": "right"
      },
      {
        "midi": 63,
        "time": 633.5,
        "duration": 0.25,
        "velocity": 0.71,
        "hand": "right"
      },
      {
        "midi": 44,
        "time": 633.75,
        "duration": 0.25,
        "velocity": 0.8,
        "hand": "left"
      },
      {
        "midi": 60,
        "time": 633.75,
        "duration": 0.25,
        "velocity": 0.76,
        "hand": "right"
      },
      {
        "midi": 68,
        "time": 633.75,
        "duration": 0.25,
        "velocity": 0.8,
        "hand": "right"
      },
      {
        "midi": 37,
        "time": 634,
        "duration": 0.25,
        "velocity": 0.8,
        "hand": "left"
      },
      {
        "midi": 66,
        "time": 634,
        "duration": 0.25,
        "velocity": 0.84,
        "hand": "right"
      },
      {
        "midi": 68,
        "time": 634,
        "duration": 0.5,
        "velocity": 0.84,
        "hand": "right"
      },
      {
        "midi": 44,
        "time": 634.25,
        "duration": 0.25,
        "velocity": 0.8,
        "hand": "left"
      },
      {
        "midi": 53,
        "time": 634.25,
        "duration": 0.25,
        "velocity": 0.8,
        "hand": "left"
      },
      {
        "midi": 65,
        "time": 634.25,
        "duration": 0.25,
        "velocity": 0.89,
        "hand": "right"
      },
      {
        "midi": 43,
        "time": 634.5,
        "duration": 0.25,
        "velocity": 0.94,
        "hand": "left"
      },
      {
        "midi": 61,
        "time": 634.5,
        "duration": 0.25,
        "velocity": 0.93,
        "hand": "right"
      },
      {
        "midi": 73,
        "time": 634.5,
        "duration": 0.25,
        "velocity": 0.93,
        "hand": "right"
      },
      {
        "midi": 44,
        "time": 634.75,
        "duration": 0.25,
        "velocity": 0.94,
        "hand": "left"
      },
      {
        "midi": 65,
        "time": 634.75,
        "duration": 0.25,
        "velocity": 0.9,
        "hand": "right"
      },
      {
        "midi": 72,
        "time": 634.75,
        "duration": 0.25,
        "velocity": 0.9,
        "hand": "right"
      },
      {
        "midi": 46,
        "time": 635,
        "duration": 0.25,
        "velocity": 0.94,
        "hand": "left"
      },
      {
        "midi": 65,
        "time": 635,
        "duration": 0.25,
        "velocity": 0.83,
        "hand": "right"
      },
      {
        "midi": 70,
        "time": 635,
        "duration": 0.25,
        "velocity": 0.83,
        "hand": "right"
      },
      {
        "midi": 47,
        "time": 635.25,
        "duration": 0.25,
        "velocity": 0.94,
        "hand": "left"
      },
      {
        "midi": 65,
        "time": 635.25,
        "duration": 0.25,
        "velocity": 0.77,
        "hand": "right"
      },
      {
        "midi": 69,
        "time": 635.25,
        "duration": 0.25,
        "velocity": 0.8,
        "hand": "right"
      },
      {
        "midi": 49,
        "time": 635.5,
        "duration": 0.25,
        "velocity": 0.94,
        "hand": "left"
      },
      {
        "midi": 58,
        "time": 635.5,
        "duration": 0.25,
        "velocity": 0.74,
        "hand": "left"
      },
      {
        "midi": 48,
        "time": 635.75,
        "duration": 0.25,
        "velocity": 0.72,
        "hand": "left"
      },
      {
        "midi": 64,
        "time": 635.75,
        "duration": 0.25,
        "velocity": 0.71,
        "hand": "right"
      },
      {
        "midi": 72,
        "time": 635.75,
        "duration": 0.25,
        "velocity": 0.71,
        "hand": "right"
      },
      {
        "midi": 41,
        "time": 636,
        "duration": 0.5,
        "velocity": 0.72,
        "hand": "left"
      },
      {
        "midi": 68,
        "time": 636,
        "duration": 0.25,
        "velocity": 0.71,
        "hand": "right"
      },
      {
        "midi": 72,
        "time": 636.25,
        "duration": 0.25,
        "velocity": 0.71,
        "hand": "right"
      },
      {
        "midi": 77,
        "time": 636.25,
        "duration": 0.25,
        "velocity": 0.71,
        "hand": "right"
      },
      {
        "midi": 80,
        "time": 636.25,
        "duration": 0.25,
        "velocity": 0.71,
        "hand": "right"
      },
      {
        "midi": 61,
        "time": 636.5,
        "duration": 0.25,
        "velocity": 0.72,
        "hand": "right"
      },
      {
        "midi": 67,
        "time": 636.5,
        "duration": 0.25,
        "velocity": 0.71,
        "hand": "right"
      },
      {
        "midi": 49,
        "time": 636.75,
        "duration": 0.25,
        "velocity": 0.72,
        "hand": "left"
      },
      {
        "midi": 65,
        "time": 636.75,
        "duration": 0.25,
        "velocity": 0.71,
        "hand": "right"
      },
      {
        "midi": 71,
        "time": 636.75,
        "duration": 0.25,
        "velocity": 0.71,
        "hand": "right"
      },
      {
        "midi": 48,
        "time": 637,
        "duration": 0.25,
        "velocity": 0.72,
        "hand": "left"
      },
      {
        "midi": 73,
        "time": 637,
        "duration": 0.25,
        "velocity": 0.71,
        "hand": "right"
      },
      {
        "midi": 60,
        "time": 637.25,
        "duration": 0.25,
        "velocity": 0.72,
        "hand": "right"
      },
      {
        "midi": 70,
        "time": 637.25,
        "duration": 0.25,
        "velocity": 0.71,
        "hand": "right"
      },
      {
        "midi": 79,
        "time": 637.25,
        "duration": 0.25,
        "velocity": 0.71,
        "hand": "right"
      },
      {
        "midi": 68,
        "time": 637.5,
        "duration": 0.25,
        "velocity": 0.72,
        "hand": "right"
      },
      {
        "midi": 72,
        "time": 637.5,
        "duration": 0.25,
        "velocity": 0.71,
        "hand": "right"
      },
      {
        "midi": 53,
        "time": 637.75,
        "duration": 0.25,
        "velocity": 0.72,
        "hand": "left"
      },
      {
        "midi": 77,
        "time": 637.75,
        "duration": 0.25,
        "velocity": 0.71,
        "hand": "right"
      },
      {
        "midi": 82,
        "time": 637.75,
        "duration": 0.25,
        "velocity": 0.71,
        "hand": "right"
      },
      {
        "midi": 61,
        "time": 638,
        "duration": 0.25,
        "velocity": 0.72,
        "hand": "right"
      },
      {
        "midi": 79,
        "time": 638,
        "duration": 0.25,
        "velocity": 0.71,
        "hand": "right"
      },
      {
        "midi": 49,
        "time": 638.25,
        "duration": 0.25,
        "velocity": 0.72,
        "hand": "left"
      },
      {
        "midi": 70,
        "time": 638.25,
        "duration": 0.25,
        "velocity": 0.71,
        "hand": "right"
      },
      {
        "midi": 77,
        "time": 638.25,
        "duration": 0.25,
        "velocity": 0.71,
        "hand": "right"
      },
      {
        "midi": 48,
        "time": 638.5,
        "duration": 0.25,
        "velocity": 0.72,
        "hand": "left"
      },
      {
        "midi": 73,
        "time": 638.5,
        "duration": 0.25,
        "velocity": 0.71,
        "hand": "right"
      },
      {
        "midi": 60,
        "time": 638.75,
        "duration": 0.25,
        "velocity": 0.72,
        "hand": "right"
      },
      {
        "midi": 70,
        "time": 638.75,
        "duration": 0.25,
        "velocity": 0.71,
        "hand": "right"
      },
      {
        "midi": 79,
        "time": 638.75,
        "duration": 0.25,
        "velocity": 0.71,
        "hand": "right"
      },
      {
        "midi": 53,
        "time": 639,
        "duration": 0.25,
        "velocity": 0.72,
        "hand": "left"
      },
      {
        "midi": 68,
        "time": 639,
        "duration": 0.25,
        "velocity": 0.71,
        "hand": "right"
      },
      {
        "midi": 56,
        "time": 639.25,
        "duration": 0.25,
        "velocity": 0.72,
        "hand": "left"
      },
      {
        "midi": 73,
        "time": 639.25,
        "duration": 0.25,
        "velocity": 0.71,
        "hand": "right"
      },
      {
        "midi": 80,
        "time": 639.25,
        "duration": 0.75,
        "velocity": 0.71,
        "hand": "right"
      },
      {
        "midi": 51,
        "time": 639.5,
        "duration": 0.25,
        "velocity": 0.72,
        "hand": "left"
      },
      {
        "midi": 73,
        "time": 639.5,
        "duration": 0.25,
        "velocity": 0.71,
        "hand": "right"
      },
      {
        "midi": 75,
        "time": 639.5,
        "duration": 0.25,
        "velocity": 0.71,
        "hand": "right"
      },
      {
        "midi": 56,
        "time": 639.75,
        "duration": 0.25,
        "velocity": 0.72,
        "hand": "left"
      },
      {
        "midi": 72,
        "time": 639.75,
        "duration": 0.25,
        "velocity": 0.71,
        "hand": "right"
      },
      {
        "midi": 80,
        "time": 639.75,
        "duration": 0.25,
        "velocity": 0.71,
        "hand": "right"
      },
      {
        "midi": 49,
        "time": 640,
        "duration": 0.25,
        "velocity": 0.72,
        "hand": "left"
      },
      {
        "midi": 79,
        "time": 640,
        "duration": 0.25,
        "velocity": 0.71,
        "hand": "right"
      },
      {
        "midi": 80,
        "time": 640,
        "duration": 0.5,
        "velocity": 0.71,
        "hand": "right"
      },
      {
        "midi": 56,
        "time": 640.25,
        "duration": 0.25,
        "velocity": 0.72,
        "hand": "left"
      },
      {
        "midi": 65,
        "time": 640.25,
        "duration": 0.25,
        "velocity": 0.72,
        "hand": "right"
      },
      {
        "midi": 77,
        "time": 640.25,
        "duration": 0.25,
        "velocity": 0.71,
        "hand": "right"
      },
      {
        "midi": 55,
        "time": 640.5,
        "duration": 0.25,
        "velocity": 0.72,
        "hand": "left"
      },
      {
        "midi": 73,
        "time": 640.5,
        "duration": 0.25,
        "velocity": 0.71,
        "hand": "right"
      },
      {
        "midi": 85,
        "time": 640.5,
        "duration": 0.25,
        "velocity": 0.71,
        "hand": "right"
      },
      {
        "midi": 56,
        "time": 640.75,
        "duration": 0.25,
        "velocity": 0.72,
        "hand": "left"
      },
      {
        "midi": 77,
        "time": 640.75,
        "duration": 0.25,
        "velocity": 0.71,
        "hand": "right"
      },
      {
        "midi": 84,
        "time": 640.75,
        "duration": 0.25,
        "velocity": 0.71,
        "hand": "right"
      },
      {
        "midi": 58,
        "time": 641,
        "duration": 0.25,
        "velocity": 0.72,
        "hand": "left"
      },
      {
        "midi": 77,
        "time": 641,
        "duration": 0.25,
        "velocity": 0.71,
        "hand": "right"
      },
      {
        "midi": 82,
        "time": 641,
        "duration": 0.25,
        "velocity": 0.71,
        "hand": "right"
      },
      {
        "midi": 59,
        "time": 641.25,
        "duration": 0.25,
        "velocity": 0.72,
        "hand": "left"
      },
      {
        "midi": 77,
        "time": 641.25,
        "duration": 0.25,
        "velocity": 0.71,
        "hand": "right"
      },
      {
        "midi": 81,
        "time": 641.25,
        "duration": 0.25,
        "velocity": 0.71,
        "hand": "right"
      },
      {
        "midi": 61,
        "time": 641.5,
        "duration": 0.25,
        "velocity": 0.72,
        "hand": "right"
      },
      {
        "midi": 70,
        "time": 641.5,
        "duration": 0.25,
        "velocity": 0.71,
        "hand": "right"
      },
      {
        "midi": 60,
        "time": 641.75,
        "duration": 0.25,
        "velocity": 0.5,
        "hand": "right"
      },
      {
        "midi": 76,
        "time": 641.75,
        "duration": 0.25,
        "velocity": 0.71,
        "hand": "right"
      },
      {
        "midi": 84,
        "time": 641.75,
        "duration": 0.25,
        "velocity": 0.71,
        "hand": "right"
      },
      {
        "midi": 53,
        "time": 642,
        "duration": 0.25,
        "velocity": 0.5,
        "hand": "left"
      },
      {
        "midi": 74,
        "time": 642,
        "duration": 0.25,
        "velocity": 0.71,
        "hand": "right"
      },
      {
        "midi": 80,
        "time": 642,
        "duration": 0.5,
        "velocity": 0.71,
        "hand": "right"
      },
      {
        "midi": 62,
        "time": 642.25,
        "duration": 0.25,
        "velocity": 0.5,
        "hand": "right"
      },
      {
        "midi": 73,
        "time": 642.25,
        "duration": 0.25,
        "velocity": 0.71,
        "hand": "right"
      },
      {
        "midi": 76,
        "time": 642.25,
        "duration": 0.25,
        "velocity": 0.71,
        "hand": "right"
      },
      {
        "midi": 59,
        "time": 642.5,
        "duration": 0.25,
        "velocity": 0.5,
        "hand": "left"
      },
      {
        "midi": 74,
        "time": 642.5,
        "duration": 0.25,
        "velocity": 0.71,
        "hand": "right"
      },
      {
        "midi": 77,
        "time": 642.5,
        "duration": 0.25,
        "velocity": 0.71,
        "hand": "right"
      },
      {
        "midi": 62,
        "time": 642.75,
        "duration": 0.25,
        "velocity": 0.5,
        "hand": "right"
      },
      {
        "midi": 76,
        "time": 642.75,
        "duration": 0.25,
        "velocity": 0.71,
        "hand": "right"
      },
      {
        "midi": 79,
        "time": 642.75,
        "duration": 0.25,
        "velocity": 0.71,
        "hand": "right"
      },
      {
        "midi": 52,
        "time": 643,
        "duration": 0.25,
        "velocity": 0.5,
        "hand": "left"
      },
      {
        "midi": 77,
        "time": 643,
        "duration": 0.25,
        "velocity": 0.71,
        "hand": "right"
      },
      {
        "midi": 80,
        "time": 643,
        "duration": 0.25,
        "velocity": 0.71,
        "hand": "right"
      },
      {
        "midi": 61,
        "time": 643.25,
        "duration": 0.25,
        "velocity": 0.5,
        "hand": "right"
      },
      {
        "midi": 79,
        "time": 643.25,
        "duration": 0.25,
        "velocity": 0.71,
        "hand": "right"
      },
      {
        "midi": 85,
        "time": 643.25,
        "duration": 0.25,
        "velocity": 0.71,
        "hand": "right"
      },
      {
        "midi": 51,
        "time": 643.5,
        "duration": 0.25,
        "velocity": 0.5,
        "hand": "left"
      },
      {
        "midi": 72,
        "time": 643.5,
        "duration": 0.25,
        "velocity": 0.71,
        "hand": "right"
      },
      {
        "midi": 78,
        "time": 643.5,
        "duration": 0.5,
        "velocity": 0.71,
        "hand": "right"
      },
      {
        "midi": 60,
        "time": 643.75,
        "duration": 0.25,
        "velocity": 0.5,
        "hand": "right"
      },
      {
        "midi": 71,
        "time": 643.75,
        "duration": 0.25,
        "velocity": 0.71,
        "hand": "right"
      },
      {
        "midi": 74,
        "time": 643.75,
        "duration": 0.25,
        "velocity": 0.71,
        "hand": "right"
      },
      {
        "midi": 57,
        "time": 644,
        "duration": 0.25,
        "velocity": 0.5,
        "hand": "left"
      },
      {
        "midi": 72,
        "time": 644,
        "duration": 0.25,
        "velocity": 0.71,
        "hand": "right"
      },
      {
        "midi": 75,
        "time": 644,
        "duration": 0.25,
        "velocity": 0.71,
        "hand": "right"
      },
      {
        "midi": 60,
        "time": 644.25,
        "duration": 0.25,
        "velocity": 0.5,
        "hand": "right"
      },
      {
        "midi": 74,
        "time": 644.25,
        "duration": 0.25,
        "velocity": 0.71,
        "hand": "right"
      },
      {
        "midi": 77,
        "time": 644.25,
        "duration": 0.25,
        "velocity": 0.71,
        "hand": "right"
      },
      {
        "midi": 50,
        "time": 644.5,
        "duration": 0.25,
        "velocity": 0.5,
        "hand": "left"
      },
      {
        "midi": 75,
        "time": 644.5,
        "duration": 0.25,
        "velocity": 0.71,
        "hand": "right"
      },
      {
        "midi": 78,
        "time": 644.5,
        "duration": 0.25,
        "velocity": 0.71,
        "hand": "right"
      },
      {
        "midi": 59,
        "time": 644.75,
        "duration": 0.25,
        "velocity": 0.5,
        "hand": "left"
      },
      {
        "midi": 77,
        "time": 644.75,
        "duration": 0.25,
        "velocity": 0.71,
        "hand": "right"
      },
      {
        "midi": 83,
        "time": 644.75,
        "duration": 0.25,
        "velocity": 0.71,
        "hand": "right"
      },
      {
        "midi": 49,
        "time": 645,
        "duration": 0.25,
        "velocity": 0.5,
        "hand": "left"
      },
      {
        "midi": 70,
        "time": 645,
        "duration": 0.25,
        "velocity": 0.71,
        "hand": "right"
      },
      {
        "midi": 76,
        "time": 645,
        "duration": 0.5,
        "velocity": 0.71,
        "hand": "right"
      },
      {
        "midi": 58,
        "time": 645.25,
        "duration": 0.25,
        "velocity": 0.5,
        "hand": "left"
      },
      {
        "midi": 69,
        "time": 645.25,
        "duration": 0.25,
        "velocity": 0.71,
        "hand": "right"
      },
      {
        "midi": 72,
        "time": 645.25,
        "duration": 0.25,
        "velocity": 0.71,
        "hand": "right"
      },
      {
        "midi": 55,
        "time": 645.5,
        "duration": 0.25,
        "velocity": 0.5,
        "hand": "left"
      },
      {
        "midi": 70,
        "time": 645.5,
        "duration": 0.25,
        "velocity": 0.71,
        "hand": "right"
      },
      {
        "midi": 73,
        "time": 645.5,
        "duration": 0.25,
        "velocity": 0.71,
        "hand": "right"
      },
      {
        "midi": 58,
        "time": 645.75,
        "duration": 0.25,
        "velocity": 0.5,
        "hand": "left"
      },
      {
        "midi": 72,
        "time": 645.75,
        "duration": 0.25,
        "velocity": 0.71,
        "hand": "right"
      },
      {
        "midi": 75,
        "time": 645.75,
        "duration": 0.25,
        "velocity": 0.71,
        "hand": "right"
      },
      {
        "midi": 48,
        "time": 646,
        "duration": 0.25,
        "velocity": 0.5,
        "hand": "left"
      },
      {
        "midi": 73,
        "time": 646,
        "duration": 0.25,
        "velocity": 0.71,
        "hand": "right"
      },
      {
        "midi": 76,
        "time": 646,
        "duration": 0.25,
        "velocity": 0.71,
        "hand": "right"
      },
      {
        "midi": 58,
        "time": 646.25,
        "duration": 0.25,
        "velocity": 0.5,
        "hand": "left"
      },
      {
        "midi": 75,
        "time": 646.25,
        "duration": 0.25,
        "velocity": 0.71,
        "hand": "right"
      },
      {
        "midi": 78,
        "time": 646.25,
        "duration": 0.25,
        "velocity": 0.71,
        "hand": "right"
      },
      {
        "midi": 47,
        "time": 646.5,
        "duration": 0.25,
        "velocity": 0.5,
        "hand": "left"
      },
      {
        "midi": 76,
        "time": 646.5,
        "duration": 0.25,
        "velocity": 0.71,
        "hand": "right"
      },
      {
        "midi": 79,
        "time": 646.5,
        "duration": 0.25,
        "velocity": 0.71,
        "hand": "right"
      },
      {
        "midi": 59,
        "time": 646.75,
        "duration": 0.25,
        "velocity": 0.5,
        "hand": "left"
      },
      {
        "midi": 78,
        "time": 646.75,
        "duration": 0.25,
        "velocity": 0.71,
        "hand": "right"
      },
      {
        "midi": 81,
        "time": 646.75,
        "duration": 0.25,
        "velocity": 0.71,
        "hand": "right"
      },
      {
        "midi": 55,
        "time": 647,
        "duration": 0.25,
        "velocity": 0.5,
        "hand": "left"
      },
      {
        "midi": 75,
        "time": 647,
        "duration": 0.25,
        "velocity": 0.71,
        "hand": "right"
      },
      {
        "midi": 78,
        "time": 647,
        "duration": 0.25,
        "velocity": 0.71,
        "hand": "right"
      },
      {
        "midi": 59,
        "time": 647.25,
        "duration": 0.25,
        "velocity": 0.5,
        "hand": "left"
      },
      {
        "midi": 78,
        "time": 647.25,
        "duration": 0.25,
        "velocity": 0.71,
        "hand": "right"
      },
      {
        "midi": 81,
        "time": 647.25,
        "duration": 0.25,
        "velocity": 0.71,
        "hand": "right"
      },
      {
        "midi": 46,
        "time": 647.5,
        "duration": 0.25,
        "velocity": 0.5,
        "hand": "left"
      },
      {
        "midi": 79,
        "time": 647.5,
        "duration": 0.25,
        "velocity": 0.71,
        "hand": "right"
      },
      {
        "midi": 82,
        "time": 647.5,
        "duration": 0.25,
        "velocity": 0.71,
        "hand": "right"
      },
      {
        "midi": 60,
        "time": 647.75,
        "duration": 0.25,
        "velocity": 0.5,
        "hand": "right"
      },
      {
        "midi": 82,
        "time": 647.75,
        "duration": 0.25,
        "velocity": 0.71,
        "hand": "right"
      },
      {
        "midi": 85,
        "time": 647.75,
        "duration": 0.25,
        "velocity": 0.71,
        "hand": "right"
      },
      {
        "midi": 44,
        "time": 648,
        "duration": 0.25,
        "velocity": 0.5,
        "hand": "left"
      },
      {
        "midi": 80,
        "time": 648,
        "duration": 0.25,
        "velocity": 0.71,
        "hand": "right"
      },
      {
        "midi": 84,
        "time": 648,
        "duration": 0.25,
        "velocity": 0.71,
        "hand": "right"
      },
      {
        "midi": 60,
        "time": 648.25,
        "duration": 0.25,
        "velocity": 0.5,
        "hand": "right"
      },
      {
        "midi": 87,
        "time": 648.25,
        "duration": 0.25,
        "velocity": 0.71,
        "hand": "right"
      },
      {
        "midi": 91,
        "time": 648.25,
        "duration": 0.25,
        "velocity": 0.71,
        "hand": "right"
      },
      {
        "midi": 56,
        "time": 648.5,
        "duration": 0.25,
        "velocity": 0.5,
        "hand": "left"
      },
      {
        "midi": 84,
        "time": 648.5,
        "duration": 0.25,
        "velocity": 0.71,
        "hand": "right"
      },
      {
        "midi": 60,
        "time": 648.75,
        "duration": 0.25,
        "velocity": 0.5,
        "hand": "right"
      },
      {
        "midi": 82,
        "time": 648.75,
        "duration": 0.25,
        "velocity": 0.71,
        "hand": "right"
      },
      {
        "midi": 87,
        "time": 648.75,
        "duration": 0.25,
        "velocity": 0.71,
        "hand": "right"
      },
      {
        "midi": 46,
        "time": 649,
        "duration": 0.25,
        "velocity": 0.5,
        "hand": "left"
      },
      {
        "midi": 80,
        "time": 649,
        "duration": 0.25,
        "velocity": 0.71,
        "hand": "right"
      },
      {
        "midi": 61,
        "time": 649.25,
        "duration": 0.25,
        "velocity": 0.5,
        "hand": "right"
      },
      {
        "midi": 79,
        "time": 649.25,
        "duration": 0.25,
        "velocity": 0.71,
        "hand": "right"
      },
      {
        "midi": 84,
        "time": 649.25,
        "duration": 0.25,
        "velocity": 0.71,
        "hand": "right"
      },
      {
        "midi": 48,
        "time": 649.5,
        "duration": 0.25,
        "velocity": 0.5,
        "hand": "left"
      },
      {
        "midi": 72,
        "time": 649.5,
        "duration": 0.25,
        "velocity": 0.71,
        "hand": "right"
      },
      {
        "midi": 60,
        "time": 649.75,
        "duration": 0.25,
        "velocity": 0.5,
        "hand": "right"
      },
      {
        "midi": 79,
        "time": 649.75,
        "duration": 0.25,
        "velocity": 0.71,
        "hand": "right"
      },
      {
        "midi": 82,
        "time": 649.75,
        "duration": 0.25,
        "velocity": 0.71,
        "hand": "right"
      },
      {
        "midi": 56,
        "time": 650,
        "duration": 0.25,
        "velocity": 0.5,
        "hand": "left"
      },
      {
        "midi": 68,
        "time": 650,
        "duration": 0.25,
        "velocity": 0.71,
        "hand": "right"
      },
      {
        "midi": 60,
        "time": 650.25,
        "duration": 0.25,
        "velocity": 0.5,
        "hand": "right"
      },
      {
        "midi": 75,
        "time": 650.25,
        "duration": 0.25,
        "velocity": 0.71,
        "hand": "right"
      },
      {
        "midi": 79,
        "time": 650.25,
        "duration": 0.25,
        "velocity": 0.71,
        "hand": "right"
      },
      {
        "midi": 48,
        "time": 650.5,
        "duration": 0.25,
        "velocity": 0.5,
        "hand": "left"
      },
      {
        "midi": 67,
        "time": 650.5,
        "duration": 0.25,
        "velocity": 0.71,
        "hand": "right"
      },
      {
        "midi": 60,
        "time": 650.75,
        "duration": 0.25,
        "velocity": 0.5,
        "hand": "right"
      },
      {
        "midi": 70,
        "time": 650.75,
        "duration": 0.25,
        "velocity": 0.71,
        "hand": "right"
      },
      {
        "midi": 76,
        "time": 650.75,
        "duration": 0.25,
        "velocity": 0.71,
        "hand": "right"
      },
      {
        "midi": 49,
        "time": 651,
        "duration": 1,
        "velocity": 0.71,
        "hand": "left"
      },
      {
        "midi": 70,
        "time": 651,
        "duration": 0.25,
        "velocity": 0.71,
        "hand": "right"
      },
      {
        "midi": 56,
        "time": 651.25,
        "duration": 0.25,
        "velocity": 0.71,
        "hand": "left"
      },
      {
        "midi": 76,
        "time": 651.25,
        "duration": 0.25,
        "velocity": 0.71,
        "hand": "right"
      },
      {
        "midi": 79,
        "time": 651.25,
        "duration": 0.25,
        "velocity": 0.71,
        "hand": "right"
      },
      {
        "midi": 53,
        "time": 651.5,
        "duration": 0.25,
        "velocity": 0.71,
        "hand": "left"
      },
      {
        "midi": 77,
        "time": 651.5,
        "duration": 0.25,
        "velocity": 0.71,
        "hand": "right"
      },
      {
        "midi": 56,
        "time": 651.75,
        "duration": 0.25,
        "velocity": 0.71,
        "hand": "left"
      },
      {
        "midi": 70,
        "time": 651.75,
        "duration": 0.25,
        "velocity": 0.71,
        "hand": "right"
      },
      {
        "midi": 75,
        "time": 651.75,
        "duration": 0.25,
        "velocity": 0.71,
        "hand": "right"
      },
      {
        "midi": 46,
        "time": 652,
        "duration": 0.5,
        "velocity": 0.71,
        "hand": "left"
      },
      {
        "midi": 68,
        "time": 652,
        "duration": 0.25,
        "velocity": 0.71,
        "hand": "right"
      },
      {
        "midi": 55,
        "time": 652.25,
        "duration": 0.25,
        "velocity": 0.71,
        "hand": "left"
      },
      {
        "midi": 67,
        "time": 652.25,
        "duration": 0.25,
        "velocity": 0.71,
        "hand": "right"
      },
      {
        "midi": 72,
        "time": 652.25,
        "duration": 0.25,
        "velocity": 0.71,
        "hand": "right"
      },
      {
        "midi": 48,
        "time": 652.5,
        "duration": 0.25,
        "velocity": 0.71,
        "hand": "left"
      },
      {
        "midi": 65,
        "time": 652.5,
        "duration": 1,
        "velocity": 0.71,
        "hand": "right"
      },
      {
        "midi": 68,
        "time": 652.5,
        "duration": 0.5,
        "velocity": 0.71,
        "hand": "right"
      },
      {
        "midi": 60,
        "time": 652.75,
        "duration": 0.25,
        "velocity": 0.71,
        "hand": "right"
      },
      {
        "midi": 61,
        "time": 652.75,
        "duration": 0.25,
        "velocity": 0.71,
        "hand": "right"
      },
      {
        "midi": 60,
        "time": 653,
        "duration": 0.25,
        "velocity": 0.71,
        "hand": "right"
      },
      {
        "midi": 67,
        "time": 653,
        "duration": 1,
        "velocity": 0.71,
        "hand": "right"
      },
      {
        "midi": 59,
        "time": 653.25,
        "duration": 0.25,
        "velocity": 0.71,
        "hand": "left"
      },
      {
        "midi": 60,
        "time": 653.25,
        "duration": 0.25,
        "velocity": 0.71,
        "hand": "right"
      },
      {
        "midi": 55,
        "time": 653.5,
        "duration": 0.25,
        "velocity": 0.71,
        "hand": "left"
      },
      {
        "midi": 64,
        "time": 653.5,
        "duration": 0.5,
        "velocity": 0.71,
        "hand": "right"
      },
      {
        "midi": 57,
        "time": 653.75,
        "duration": 0.25,
        "velocity": 0.71,
        "hand": "left"
      },
      {
        "midi": 60,
        "time": 653.75,
        "duration": 0.25,
        "velocity": 0.71,
        "hand": "right"
      },
      {
        "midi": 58,
        "time": 654,
        "duration": 0.25,
        "velocity": 0.5,
        "hand": "left"
      },
      {
        "midi": 63,
        "time": 654,
        "duration": 0.25,
        "velocity": 0.71,
        "hand": "right"
      },
      {
        "midi": 72,
        "time": 654,
        "duration": 0.25,
        "velocity": 0.71,
        "hand": "right"
      },
      {
        "midi": 53,
        "time": 654.25,
        "duration": 0.25,
        "velocity": 0.5,
        "hand": "left"
      },
      {
        "midi": 55,
        "time": 654.25,
        "duration": 0.25,
        "velocity": 0.5,
        "hand": "left"
      },
      {
        "midi": 56,
        "time": 654.5,
        "duration": 0.25,
        "velocity": 0.5,
        "hand": "left"
      },
      {
        "midi": 61,
        "time": 654.5,
        "duration": 0.25,
        "velocity": 0.71,
        "hand": "right"
      },
      {
        "midi": 70,
        "time": 654.5,
        "duration": 0.25,
        "velocity": 0.71,
        "hand": "right"
      },
      {
        "midi": 51,
        "time": 654.75,
        "duration": 0.25,
        "velocity": 0.5,
        "hand": "left"
      },
      {
        "midi": 53,
        "time": 654.75,
        "duration": 0.25,
        "velocity": 0.5,
        "hand": "left"
      },
      {
        "midi": 55,
        "time": 655,
        "duration": 0.25,
        "velocity": 0.5,
        "hand": "left"
      },
      {
        "midi": 60,
        "time": 655,
        "duration": 0.25,
        "velocity": 0.71,
        "hand": "right"
      },
      {
        "midi": 68,
        "time": 655,
        "duration": 0.25,
        "velocity": 0.71,
        "hand": "right"
      },
      {
        "midi": 50,
        "time": 655.25,
        "duration": 0.25,
        "velocity": 0.5,
        "hand": "left"
      },
      {
        "midi": 52,
        "time": 655.25,
        "duration": 0.25,
        "velocity": 0.5,
        "hand": "left"
      },
      {
        "midi": 53,
        "time": 655.5,
        "duration": 0.25,
        "velocity": 0.5,
        "hand": "left"
      },
      {
        "midi": 58,
        "time": 655.5,
        "duration": 0.25,
        "velocity": 0.71,
        "hand": "left"
      },
      {
        "midi": 67,
        "time": 655.5,
        "duration": 0.25,
        "velocity": 0.71,
        "hand": "right"
      },
      {
        "midi": 48,
        "time": 655.75,
        "duration": 0.25,
        "velocity": 0.5,
        "hand": "left"
      },
      {
        "midi": 49,
        "time": 655.75,
        "duration": 0.25,
        "velocity": 0.5,
        "hand": "left"
      },
      {
        "midi": 46,
        "time": 656,
        "duration": 0.25,
        "velocity": 0.5,
        "hand": "left"
      },
      {
        "midi": 61,
        "time": 656,
        "duration": 0.5,
        "velocity": 0.71,
        "hand": "right"
      },
      {
        "midi": 65,
        "time": 656,
        "duration": 0.5,
        "velocity": 0.71,
        "hand": "right"
      },
      {
        "midi": 45,
        "time": 656.25,
        "duration": 0.25,
        "velocity": 0.5,
        "hand": "left"
      },
      {
        "midi": 46,
        "time": 656.25,
        "duration": 0.25,
        "velocity": 0.5,
        "hand": "left"
      },
      {
        "midi": 48,
        "time": 656.5,
        "duration": 0.25,
        "velocity": 0.5,
        "hand": "left"
      },
      {
        "midi": 60,
        "time": 656.5,
        "duration": 0.5,
        "velocity": 0.71,
        "hand": "right"
      },
      {
        "midi": 64,
        "time": 656.5,
        "duration": 0.5,
        "velocity": 0.71,
        "hand": "right"
      },
      {
        "midi": 47,
        "time": 656.75,
        "duration": 0.25,
        "velocity": 0.5,
        "hand": "left"
      },
      {
        "midi": 48,
        "time": 656.75,
        "duration": 0.25,
        "velocity": 0.5,
        "hand": "left"
      },
      {
        "midi": 45,
        "time": 657,
        "duration": 0.25,
        "velocity": 0.5,
        "hand": "left"
      },
      {
        "midi": 60,
        "time": 657,
        "duration": 0.5,
        "velocity": 0.71,
        "hand": "right"
      },
      {
        "midi": 63,
        "time": 657,
        "duration": 0.5,
        "velocity": 0.71,
        "hand": "right"
      },
      {
        "midi": 44,
        "time": 657.25,
        "duration": 0.25,
        "velocity": 0.5,
        "hand": "left"
      },
      {
        "midi": 45,
        "time": 657.25,
        "duration": 0.25,
        "velocity": 0.5,
        "hand": "left"
      },
      {
        "midi": 46,
        "time": 657.5,
        "duration": 0.25,
        "velocity": 0.5,
        "hand": "left"
      },
      {
        "midi": 58,
        "time": 657.5,
        "duration": 1,
        "velocity": 0.71,
        "hand": "left"
      },
      {
        "midi": 61,
        "time": 657.5,
        "duration": 1,
        "velocity": 0.71,
        "hand": "right"
      },
      {
        "midi": 44,
        "time": 657.75,
        "duration": 0.25,
        "velocity": 0.5,
        "hand": "left"
      },
      {
        "midi": 48,
        "time": 657.75,
        "duration": 0.25,
        "velocity": 0.5,
        "hand": "left"
      },
      {
        "midi": 43,
        "time": 658,
        "duration": 0.25,
        "velocity": 0.5,
        "hand": "left"
      },
      {
        "midi": 52,
        "time": 658,
        "duration": 0.5,
        "velocity": 0.71,
        "hand": "left"
      },
      {
        "midi": 41,
        "time": 658.25,
        "duration": 0.25,
        "velocity": 0.5,
        "hand": "left"
      },
      {
        "midi": 44,
        "time": 658.25,
        "duration": 0.25,
        "velocity": 0.5,
        "hand": "left"
      },
      {
        "midi": 40,
        "time": 658.5,
        "duration": 0.25,
        "velocity": 0.5,
        "hand": "left"
      },
      {
        "midi": 55,
        "time": 658.5,
        "duration": 0.5,
        "velocity": 0.71,
        "hand": "left"
      },
      {
        "midi": 60,
        "time": 658.5,
        "duration": 1,
        "velocity": 0.71,
        "hand": "right"
      },
      {
        "midi": 41,
        "time": 658.75,
        "duration": 0.25,
        "velocity": 0.5,
        "hand": "left"
      },
      {
        "midi": 43,
        "time": 658.75,
        "duration": 0.25,
        "velocity": 0.5,
        "hand": "left"
      },
      {
        "midi": 41,
        "time": 659,
        "duration": 0.25,
        "velocity": 0.5,
        "hand": "left"
      },
      {
        "midi": 53,
        "time": 659,
        "duration": 0.5,
        "velocity": 0.71,
        "hand": "left"
      },
      {
        "midi": 56,
        "time": 659,
        "duration": 0.5,
        "velocity": 0.71,
        "hand": "left"
      },
      {
        "midi": 39,
        "time": 659.25,
        "duration": 0.25,
        "velocity": 0.5,
        "hand": "left"
      },
      {
        "midi": 43,
        "time": 659.25,
        "duration": 0.25,
        "velocity": 0.5,
        "hand": "left"
      },
      {
        "midi": 37,
        "time": 659.5,
        "duration": 0.25,
        "velocity": 0.5,
        "hand": "left"
      },
      {
        "midi": 56,
        "time": 659.5,
        "duration": 0.5,
        "velocity": 0.71,
        "hand": "left"
      },
      {
        "midi": 65,
        "time": 659.5,
        "duration": 0.5,
        "velocity": 0.71,
        "hand": "right"
      },
      {
        "midi": 36,
        "time": 659.75,
        "duration": 0.25,
        "velocity": 0.5,
        "hand": "left"
      },
      {
        "midi": 39,
        "time": 659.75,
        "duration": 0.25,
        "velocity": 0.5,
        "hand": "left"
      },
      {
        "midi": 34,
        "time": 660,
        "duration": 0.25,
        "velocity": 0.5,
        "hand": "left"
      },
      {
        "midi": 55,
        "time": 660,
        "duration": 0.5,
        "velocity": 0.71,
        "hand": "left"
      },
      {
        "midi": 65,
        "time": 660,
        "duration": 0.5,
        "velocity": 0.71,
        "hand": "right"
      },
      {
        "midi": 36,
        "time": 660.25,
        "duration": 0.25,
        "velocity": 0.5,
        "hand": "left"
      },
      {
        "midi": 37,
        "time": 660.25,
        "duration": 0.25,
        "velocity": 0.5,
        "hand": "left"
      },
      {
        "midi": 36,
        "time": 660.5,
        "duration": 0.25,
        "velocity": 0.5,
        "hand": "left"
      },
      {
        "midi": 51,
        "time": 660.5,
        "duration": 0.5,
        "velocity": 0.71,
        "hand": "left"
      },
      {
        "midi": 57,
        "time": 660.5,
        "duration": 0.5,
        "velocity": 0.71,
        "hand": "left"
      },
      {
        "midi": 39,
        "time": 660.75,
        "duration": 0.25,
        "velocity": 0.5,
        "hand": "left"
      },
      {
        "midi": 41,
        "time": 660.75,
        "duration": 0.25,
        "velocity": 0.5,
        "hand": "left"
      },
      {
        "midi": 37,
        "time": 661,
        "duration": 0.25,
        "velocity": 0.5,
        "hand": "left"
      },
      {
        "midi": 53,
        "time": 661,
        "duration": 0.5,
        "velocity": 0.71,
        "hand": "left"
      },
      {
        "midi": 58,
        "time": 661,
        "duration": 0.5,
        "velocity": 0.71,
        "hand": "left"
      },
      {
        "midi": 39,
        "time": 661.25,
        "duration": 0.25,
        "velocity": 0.5,
        "hand": "left"
      },
      {
        "midi": 41,
        "time": 661.25,
        "duration": 0.25,
        "velocity": 0.5,
        "hand": "left"
      },
      {
        "midi": 40,
        "time": 661.5,
        "duration": 0.25,
        "velocity": 0.5,
        "hand": "left"
      },
      {
        "midi": 58,
        "time": 661.5,
        "duration": 0.5,
        "velocity": 0.71,
        "hand": "left"
      },
      {
        "midi": 60,
        "time": 661.5,
        "duration": 0.5,
        "velocity": 0.71,
        "hand": "right"
      },
      {
        "midi": 41,
        "time": 661.75,
        "duration": 0.25,
        "velocity": 0.5,
        "hand": "left"
      },
      {
        "midi": 43,
        "time": 661.75,
        "duration": 0.25,
        "velocity": 0.5,
        "hand": "left"
      },
      {
        "midi": 41,
        "time": 662,
        "duration": 0.25,
        "velocity": 0.5,
        "hand": "left"
      },
      {
        "midi": 60,
        "time": 662,
        "duration": 0.5,
        "velocity": 0.71,
        "hand": "right"
      },
      {
        "midi": 68,
        "time": 662,
        "duration": 0.5,
        "velocity": 0.71,
        "hand": "right"
      },
      {
        "midi": 44,
        "time": 662.25,
        "duration": 0.25,
        "velocity": 0.5,
        "hand": "left"
      },
      {
        "midi": 46,
        "time": 662.25,
        "duration": 0.25,
        "velocity": 0.5,
        "hand": "left"
      },
      {
        "midi": 43,
        "time": 662.5,
        "duration": 0.25,
        "velocity": 0.5,
        "hand": "left"
      },
      {
        "midi": 60,
        "time": 662.5,
        "duration": 0.5,
        "velocity": 0.71,
        "hand": "right"
      },
      {
        "midi": 64,
        "time": 662.5,
        "duration": 0.5,
        "velocity": 0.71,
        "hand": "right"
      },
      {
        "midi": 44,
        "time": 662.75,
        "duration": 0.25,
        "velocity": 0.5,
        "hand": "left"
      },
      {
        "midi": 46,
        "time": 662.75,
        "duration": 0.25,
        "velocity": 0.5,
        "hand": "left"
      },
      {
        "midi": 44,
        "time": 663,
        "duration": 0.25,
        "velocity": 0.5,
        "hand": "left"
      },
      {
        "midi": 60,
        "time": 663,
        "duration": 0.5,
        "velocity": 0.71,
        "hand": "right"
      },
      {
        "midi": 65,
        "time": 663,
        "duration": 0.5,
        "velocity": 0.71,
        "hand": "right"
      },
      {
        "midi": 46,
        "time": 663.25,
        "duration": 0.25,
        "velocity": 0.5,
        "hand": "left"
      },
      {
        "midi": 48,
        "time": 663.25,
        "duration": 0.25,
        "velocity": 0.5,
        "hand": "left"
      },
      {
        "midi": 45,
        "time": 663.5,
        "duration": 0.25,
        "velocity": 0.5,
        "hand": "left"
      },
      {
        "midi": 60,
        "time": 663.5,
        "duration": 0.5,
        "velocity": 0.71,
        "hand": "right"
      },
      {
        "midi": 63,
        "time": 663.5,
        "duration": 0.5,
        "velocity": 0.71,
        "hand": "right"
      },
      {
        "midi": 44,
        "time": 663.75,
        "duration": 0.25,
        "velocity": 0.5,
        "hand": "left"
      },
      {
        "midi": 45,
        "time": 663.75,
        "duration": 0.25,
        "velocity": 0.5,
        "hand": "left"
      },
      {
        "midi": 46,
        "time": 664,
        "duration": 0.25,
        "velocity": 0.5,
        "hand": "left"
      },
      {
        "midi": 58,
        "time": 664,
        "duration": 0.5,
        "velocity": 0.71,
        "hand": "left"
      },
      {
        "midi": 61,
        "time": 664,
        "duration": 0.5,
        "velocity": 0.71,
        "hand": "right"
      },
      {
        "midi": 48,
        "time": 664.25,
        "duration": 0.25,
        "velocity": 0.5,
        "hand": "left"
      },
      {
        "midi": 49,
        "time": 664.25,
        "duration": 0.25,
        "velocity": 0.5,
        "hand": "left"
      },
      {
        "midi": 48,
        "time": 664.5,
        "duration": 0.25,
        "velocity": 0.5,
        "hand": "left"
      },
      {
        "midi": 56,
        "time": 664.5,
        "duration": 1,
        "velocity": 0.71,
        "hand": "left"
      },
      {
        "midi": 60,
        "time": 664.5,
        "duration": 1,
        "velocity": 0.71,
        "hand": "right"
      },
      {
        "midi": 41,
        "time": 664.75,
        "duration": 0.25,
        "velocity": 0.5,
        "hand": "left"
      },
      {
        "midi": 44,
        "time": 664.75,
        "duration": 0.25,
        "velocity": 0.5,
        "hand": "left"
      },
      {
        "midi": 37,
        "time": 665,
        "duration": 0.25,
        "velocity": 0.5,
        "hand": "left"
      },
      {
        "midi": 36,
        "time": 665.25,
        "duration": 0.25,
        "velocity": 0.5,
        "hand": "left"
      },
      {
        "midi": 37,
        "time": 665.25,
        "duration": 0.25,
        "velocity": 0.5,
        "hand": "left"
      },
      {
        "midi": 36,
        "time": 665.5,
        "duration": 0.25,
        "velocity": 0.5,
        "hand": "left"
      },
      {
        "midi": 58,
        "time": 665.5,
        "duration": 0.5,
        "velocity": 0.71,
        "hand": "left"
      },
      {
        "midi": 60,
        "time": 665.5,
        "duration": 0.5,
        "velocity": 0.71,
        "hand": "right"
      },
      {
        "midi": 43,
        "time": 665.75,
        "duration": 0.25,
        "velocity": 0.5,
        "hand": "left"
      },
      {
        "midi": 44,
        "time": 665.75,
        "duration": 0.25,
        "velocity": 0.5,
        "hand": "left"
      },
      {
        "midi": 41,
        "time": 666,
        "duration": 0.5,
        "velocity": 0.5,
        "hand": "left"
      },
      {
        "midi": 56,
        "time": 666,
        "duration": 0.25,
        "velocity": 0.71,
        "hand": "left"
      },
      {
        "midi": 65,
        "time": 666,
        "duration": 0.25,
        "velocity": 0.71,
        "hand": "right"
      },
      {
        "midi": 57,
        "time": 666.25,
        "duration": 0.25,
        "velocity": 0.71,
        "hand": "left"
      },
      {
        "midi": 60,
        "time": 666.25,
        "duration": 0.25,
        "velocity": 0.71,
        "hand": "right"
      },
      {
        "midi": 66,
        "time": 666.25,
        "duration": 0.25,
        "velocity": 0.71,
        "hand": "right"
      },
      {
        "midi": 51,
        "time": 666.5,
        "duration": 0.25,
        "velocity": 0.5,
        "hand": "left"
      },
      {
        "midi": 62,
        "time": 666.5,
        "duration": 0.25,
        "velocity": 0.71,
        "hand": "right"
      },
      {
        "midi": 69,
        "time": 666.5,
        "duration": 0.25,
        "velocity": 0.71,
        "hand": "right"
      },
      {
        "midi": 63,
        "time": 666.75,
        "duration": 0.25,
        "velocity": 0.71,
        "hand": "right"
      },
      {
        "midi": 66,
        "time": 666.75,
        "duration": 0.25,
        "velocity": 0.71,
        "hand": "right"
      },
      {
        "midi": 72,
        "time": 666.75,
        "duration": 0.25,
        "velocity": 0.71,
        "hand": "right"
      },
      {
        "midi": 57,
        "time": 667,
        "duration": 0.25,
        "velocity": 0.5,
        "hand": "left"
      },
      {
        "midi": 68,
        "time": 667,
        "duration": 0.25,
        "velocity": 0.71,
        "hand": "right"
      },
      {
        "midi": 75,
        "time": 667,
        "duration": 0.25,
        "velocity": 0.71,
        "hand": "right"
      },
      {
        "midi": 69,
        "time": 667.25,
        "duration": 0.25,
        "velocity": 0.71,
        "hand": "right"
      },
      {
        "midi": 72,
        "time": 667.25,
        "duration": 0.25,
        "velocity": 0.71,
        "hand": "right"
      },
      {
        "midi": 78,
        "time": 667.25,
        "duration": 0.25,
        "velocity": 0.71,
        "hand": "right"
      },
      {
        "midi": 63,
        "time": 667.5,
        "duration": 0.25,
        "velocity": 0.5,
        "hand": "right"
      },
      {
        "midi": 74,
        "time": 667.5,
        "duration": 0.25,
        "velocity": 0.71,
        "hand": "right"
      },
      {
        "midi": 81,
        "time": 667.5,
        "duration": 0.25,
        "velocity": 0.71,
        "hand": "right"
      },
      {
        "midi": 75,
        "time": 667.75,
        "duration": 0.25,
        "velocity": 0.71,
        "hand": "right"
      },
      {
        "midi": 78,
        "time": 667.75,
        "duration": 0.25,
        "velocity": 0.71,
        "hand": "right"
      },
      {
        "midi": 84,
        "time": 667.75,
        "duration": 0.25,
        "velocity": 0.71,
        "hand": "right"
      },
      {
        "midi": 69,
        "time": 668,
        "duration": 0.25,
        "velocity": 0.5,
        "hand": "right"
      },
      {
        "midi": 80,
        "time": 668,
        "duration": 0.25,
        "velocity": 0.71,
        "hand": "right"
      },
      {
        "midi": 87,
        "time": 668,
        "duration": 0.25,
        "velocity": 0.71,
        "hand": "right"
      },
      {
        "midi": 81,
        "time": 668.25,
        "duration": 0.25,
        "velocity": 0.71,
        "hand": "right"
      },
      {
        "midi": 84,
        "time": 668.25,
        "duration": 0.25,
        "velocity": 0.71,
        "hand": "right"
      },
      {
        "midi": 90,
        "time": 668.25,
        "duration": 0.25,
        "velocity": 0.71,
        "hand": "right"
      },
      {
        "midi": 75,
        "time": 668.5,
        "duration": 0.25,
        "velocity": 0.5,
        "hand": "right"
      },
      {
        "midi": 86,
        "time": 668.5,
        "duration": 0.25,
        "velocity": 0.71,
        "hand": "right"
      },
      {
        "midi": 93,
        "time": 668.5,
        "duration": 0.25,
        "velocity": 0.71,
        "hand": "right"
      },
      {
        "midi": 87,
        "time": 668.75,
        "duration": 0.25,
        "velocity": 0.71,
        "hand": "right"
      },
      {
        "midi": 90,
        "time": 668.75,
        "duration": 0.25,
        "velocity": 0.71,
        "hand": "right"
      },
      {
        "midi": 96,
        "time": 668.75,
        "duration": 0.25,
        "velocity": 0.71,
        "hand": "right"
      },
      {
        "midi": 81,
        "time": 669,
        "duration": 0.25,
        "velocity": 0.5,
        "hand": "right"
      },
      {
        "midi": 93,
        "time": 669,
        "duration": 0.5,
        "velocity": 0.5,
        "hand": "right"
      },
      {
        "midi": 99,
        "time": 669,
        "duration": 0.5,
        "velocity": 0.5,
        "hand": "right"
      },
      {
        "midi": 42,
        "time": 669.5,
        "duration": 0.25,
        "velocity": 0.5,
        "hand": "left"
      },
      {
        "midi": 60,
        "time": 669.5,
        "duration": 0.5,
        "velocity": 0.71,
        "hand": "right"
      },
      {
        "midi": 69,
        "time": 669.5,
        "duration": 0.5,
        "velocity": 0.71,
        "hand": "right"
      },
      {
        "midi": 39,
        "time": 669.75,
        "duration": 0.25,
        "velocity": 0.5,
        "hand": "left"
      },
      {
        "midi": 53,
        "time": 669.75,
        "duration": 0.25,
        "velocity": 0.5,
        "hand": "left"
      },
      {
        "midi": 66,
        "time": 669.75,
        "duration": 0.25,
        "velocity": 0.71,
        "hand": "right"
      },
      {
        "midi": 37,
        "time": 670,
        "duration": 0.25,
        "velocity": 0.5,
        "hand": "left"
      },
      {
        "midi": 58,
        "time": 670,
        "duration": 0.5,
        "velocity": 0.71,
        "hand": "left"
      },
      {
        "midi": 70,
        "time": 670,
        "duration": 0.5,
        "velocity": 0.71,
        "hand": "right"
      },
      {
        "midi": 34,
        "time": 670.25,
        "duration": 0.25,
        "velocity": 0.5,
        "hand": "left"
      },
      {
        "midi": 46,
        "time": 670.25,
        "duration": 0.25,
        "velocity": 0.5,
        "hand": "left"
      },
      {
        "midi": 48,
        "time": 670.25,
        "duration": 0.25,
        "velocity": 0.5,
        "hand": "left"
      },
      {
        "midi": 32,
        "time": 670.5,
        "duration": 0.25,
        "velocity": 0.5,
        "hand": "left"
      },
      {
        "midi": 65,
        "time": 670.5,
        "duration": 0.5,
        "velocity": 0.71,
        "hand": "right"
      },
      {
        "midi": 73,
        "time": 670.5,
        "duration": 0.5,
        "velocity": 0.71,
        "hand": "right"
      },
      {
        "midi": 31,
        "time": 670.75,
        "duration": 0.25,
        "velocity": 0.5,
        "hand": "left"
      },
      {
        "midi": 43,
        "time": 670.75,
        "duration": 0.25,
        "velocity": 0.5,
        "hand": "left"
      },
      {
        "midi": 31,
        "time": 671,
        "duration": 0.25,
        "velocity": 0.5,
        "hand": "left"
      },
      {
        "midi": 64,
        "time": 671,
        "duration": 0.5,
        "velocity": 0.71,
        "hand": "right"
      },
      {
        "midi": 72,
        "time": 671,
        "duration": 0.5,
        "velocity": 0.71,
        "hand": "right"
      },
      {
        "midi": 24,
        "time": 671.25,
        "duration": 0.25,
        "velocity": 0.5,
        "hand": "left"
      },
      {
        "midi": 36,
        "time": 671.25,
        "duration": 0.25,
        "velocity": 0.5,
        "hand": "left"
      },
      {
        "midi": 25,
        "time": 671.5,
        "duration": 0.25,
        "velocity": 0.5,
        "hand": "left"
      },
      {
        "midi": 52,
        "time": 671.5,
        "duration": 0.5,
        "velocity": 0.71,
        "hand": "left"
      },
      {
        "midi": 64,
        "time": 671.5,
        "duration": 0.5,
        "velocity": 0.71,
        "hand": "right"
      },
      {
        "midi": 24,
        "time": 671.75,
        "duration": 0.25,
        "velocity": 0.5,
        "hand": "left"
      },
      {
        "midi": 36,
        "time": 671.75,
        "duration": 0.25,
        "velocity": 0.5,
        "hand": "left"
      },
      {
        "midi": 29,
        "time": 672,
        "duration": 0.25,
        "velocity": 0.5,
        "hand": "left"
      },
      {
        "midi": 56,
        "time": 672,
        "duration": 0.25,
        "velocity": 0.5,
        "hand": "left"
      },
      {
        "midi": 65,
        "time": 672,
        "duration": 0.25,
        "velocity": 0.5,
        "hand": "right"
      },
      {
        "midi": 51,
        "time": 672.25,
        "duration": 0.25,
        "velocity": 0.5,
        "hand": "left"
      },
      {
        "midi": 60,
        "time": 672.25,
        "duration": 0.25,
        "velocity": 0.51,
        "hand": "right"
      },
      {
        "midi": 66,
        "time": 672.25,
        "duration": 0.25,
        "velocity": 0.51,
        "hand": "right"
      },
      {
        "midi": 54,
        "time": 672.5,
        "duration": 0.5,
        "velocity": 0.5,
        "hand": "left"
      },
      {
        "midi": 62,
        "time": 672.5,
        "duration": 0.25,
        "velocity": 0.53,
        "hand": "right"
      },
      {
        "midi": 69,
        "time": 672.5,
        "duration": 0.25,
        "velocity": 0.53,
        "hand": "right"
      },
      {
        "midi": 63,
        "time": 672.75,
        "duration": 0.25,
        "velocity": 0.54,
        "hand": "right"
      },
      {
        "midi": 67,
        "time": 672.75,
        "duration": 0.25,
        "velocity": 0.55,
        "hand": "right"
      },
      {
        "midi": 72,
        "time": 672.75,
        "duration": 0.25,
        "velocity": 0.55,
        "hand": "right"
      },
      {
        "midi": 57,
        "time": 673,
        "duration": 0.25,
        "velocity": 0.5,
        "hand": "left"
      },
      {
        "midi": 68,
        "time": 673,
        "duration": 0.25,
        "velocity": 0.57,
        "hand": "right"
      },
      {
        "midi": 75,
        "time": 673,
        "duration": 0.25,
        "velocity": 0.57,
        "hand": "right"
      },
      {
        "midi": 69,
        "time": 673.25,
        "duration": 0.25,
        "velocity": 0.58,
        "hand": "right"
      },
      {
        "midi": 72,
        "time": 673.25,
        "duration": 0.25,
        "velocity": 0.6,
        "hand": "right"
      },
      {
        "midi": 78,
        "time": 673.25,
        "duration": 0.25,
        "velocity": 0.6,
        "hand": "right"
      },
      {
        "midi": 63,
        "time": 673.5,
        "duration": 0.25,
        "velocity": 0.5,
        "hand": "right"
      },
      {
        "midi": 74,
        "time": 673.5,
        "duration": 0.25,
        "velocity": 0.61,
        "hand": "right"
      },
      {
        "midi": 81,
        "time": 673.5,
        "duration": 0.25,
        "velocity": 0.61,
        "hand": "right"
      },
      {
        "midi": 75,
        "time": 673.75,
        "duration": 0.25,
        "velocity": 0.62,
        "hand": "right"
      },
      {
        "midi": 78,
        "time": 673.75,
        "duration": 0.25,
        "velocity": 0.64,
        "hand": "right"
      },
      {
        "midi": 84,
        "time": 673.75,
        "duration": 0.25,
        "velocity": 0.64,
        "hand": "right"
      },
      {
        "midi": 69,
        "time": 674,
        "duration": 0.25,
        "velocity": 0.5,
        "hand": "right"
      },
      {
        "midi": 80,
        "time": 674,
        "duration": 0.25,
        "velocity": 0.65,
        "hand": "right"
      },
      {
        "midi": 87,
        "time": 674,
        "duration": 0.25,
        "velocity": 0.65,
        "hand": "right"
      },
      {
        "midi": 81,
        "time": 674.25,
        "duration": 0.25,
        "velocity": 0.66,
        "hand": "right"
      },
      {
        "midi": 84,
        "time": 674.25,
        "duration": 0.25,
        "velocity": 0.68,
        "hand": "right"
      },
      {
        "midi": 90,
        "time": 674.25,
        "duration": 0.25,
        "velocity": 0.68,
        "hand": "right"
      },
      {
        "midi": 75,
        "time": 674.5,
        "duration": 0.25,
        "velocity": 0.5,
        "hand": "right"
      },
      {
        "midi": 86,
        "time": 674.5,
        "duration": 0.25,
        "velocity": 0.69,
        "hand": "right"
      },
      {
        "midi": 93,
        "time": 674.5,
        "duration": 0.25,
        "velocity": 0.69,
        "hand": "right"
      },
      {
        "midi": 87,
        "time": 674.75,
        "duration": 0.25,
        "velocity": 0.71,
        "hand": "right"
      },
      {
        "midi": 90,
        "time": 674.75,
        "duration": 0.25,
        "velocity": 0.72,
        "hand": "right"
      },
      {
        "midi": 96,
        "time": 674.75,
        "duration": 0.25,
        "velocity": 0.72,
        "hand": "right"
      },
      {
        "midi": 81,
        "time": 675,
        "duration": 0.25,
        "velocity": 0.5,
        "hand": "right"
      },
      {
        "midi": 93,
        "time": 675,
        "duration": 0.5,
        "velocity": 0.72,
        "hand": "right"
      },
      {
        "midi": 101,
        "time": 675,
        "duration": 0.5,
        "velocity": 0.72,
        "hand": "right"
      },
      {
        "midi": 54,
        "time": 675.5,
        "duration": 0.25,
        "velocity": 0.5,
        "hand": "left"
      },
      {
        "midi": 72,
        "time": 675.5,
        "duration": 0.5,
        "velocity": 0.71,
        "hand": "right"
      },
      {
        "midi": 81,
        "time": 675.5,
        "duration": 0.5,
        "velocity": 0.71,
        "hand": "right"
      },
      {
        "midi": 51,
        "time": 675.75,
        "duration": 0.25,
        "velocity": 0.5,
        "hand": "left"
      },
      {
        "midi": 65,
        "time": 675.75,
        "duration": 0.25,
        "velocity": 0.5,
        "hand": "right"
      },
      {
        "midi": 78,
        "time": 675.75,
        "duration": 0.25,
        "velocity": 0.71,
        "hand": "right"
      },
      {
        "midi": 49,
        "time": 676,
        "duration": 0.25,
        "velocity": 0.5,
        "hand": "left"
      },
      {
        "midi": 70,
        "time": 676,
        "duration": 0.5,
        "velocity": 0.71,
        "hand": "right"
      },
      {
        "midi": 82,
        "time": 676,
        "duration": 0.5,
        "velocity": 0.71,
        "hand": "right"
      },
      {
        "midi": 46,
        "time": 676.25,
        "duration": 0.25,
        "velocity": 0.5,
        "hand": "left"
      },
      {
        "midi": 58,
        "time": 676.25,
        "duration": 0.25,
        "velocity": 0.5,
        "hand": "left"
      },
      {
        "midi": 60,
        "time": 676.25,
        "duration": 0.25,
        "velocity": 0.5,
        "hand": "right"
      },
      {
        "midi": 44,
        "time": 676.5,
        "duration": 0.25,
        "velocity": 0.5,
        "hand": "left"
      },
      {
        "midi": 77,
        "time": 676.5,
        "duration": 0.5,
        "velocity": 0.71,
        "hand": "right"
      },
      {
        "midi": 85,
        "time": 676.5,
        "duration": 0.5,
        "velocity": 0.71,
        "hand": "right"
      },
      {
        "midi": 43,
        "time": 676.75,
        "duration": 0.25,
        "velocity": 0.5,
        "hand": "left"
      },
      {
        "midi": 55,
        "time": 676.75,
        "duration": 0.25,
        "velocity": 0.5,
        "hand": "left"
      },
      {
        "midi": 43,
        "time": 677,
        "duration": 0.25,
        "velocity": 0.5,
        "hand": "left"
      },
      {
        "midi": 76,
        "time": 677,
        "duration": 0.5,
        "velocity": 0.71,
        "hand": "right"
      },
      {
        "midi": 84,
        "time": 677,
        "duration": 0.5,
        "velocity": 0.71,
        "hand": "right"
      },
      {
        "midi": 36,
        "time": 677.25,
        "duration": 0.25,
        "velocity": 0.5,
        "hand": "left"
      },
      {
        "midi": 48,
        "time": 677.25,
        "duration": 0.25,
        "velocity": 0.5,
        "hand": "left"
      },
      {
        "midi": 37,
        "time": 677.5,
        "duration": 0.25,
        "velocity": 0.5,
        "hand": "left"
      },
      {
        "midi": 64,
        "time": 677.5,
        "duration": 0.5,
        "velocity": 0.71,
        "hand": "right"
      },
      {
        "midi": 76,
        "time": 677.5,
        "duration": 0.5,
        "velocity": 0.71,
        "hand": "right"
      },
      {
        "midi": 36,
        "time": 677.75,
        "duration": 0.25,
        "velocity": 0.5,
        "hand": "left"
      },
      {
        "midi": 48,
        "time": 677.75,
        "duration": 0.25,
        "velocity": 0.5,
        "hand": "left"
      },
      {
        "midi": 29,
        "time": 678,
        "duration": 0.25,
        "velocity": 0.5,
        "hand": "left"
      },
      {
        "midi": 68,
        "time": 678,
        "duration": 0.5,
        "velocity": 0.71,
        "hand": "right"
      },
      {
        "midi": 77,
        "time": 678,
        "duration": 0.5,
        "velocity": 0.71,
        "hand": "right"
      },
      {
        "midi": 36,
        "time": 678.25,
        "duration": 0.25,
        "velocity": 0.54,
        "hand": "left"
      },
      {
        "midi": 44,
        "time": 678.25,
        "duration": 0.25,
        "velocity": 0.54,
        "hand": "left"
      },
      {
        "midi": 49,
        "time": 678.5,
        "duration": 0.25,
        "velocity": 0.71,
        "hand": "left"
      },
      {
        "midi": 48,
        "time": 678.75,
        "duration": 0.25,
        "velocity": 0.71,
        "hand": "left"
      },
      {
        "midi": 53,
        "time": 678.75,
        "duration": 0.25,
        "velocity": 0.71,
        "hand": "left"
      },
      {
        "midi": 56,
        "time": 679,
        "duration": 0.25,
        "velocity": 0.71,
        "hand": "left"
      },
      {
        "midi": 53,
        "time": 679.25,
        "duration": 0.25,
        "velocity": 0.71,
        "hand": "left"
      },
      {
        "midi": 58,
        "time": 679.25,
        "duration": 0.25,
        "velocity": 0.71,
        "hand": "left"
      },
      {
        "midi": 36,
        "time": 679.5,
        "duration": 0.25,
        "velocity": 0.54,
        "hand": "left"
      },
      {
        "midi": 56,
        "time": 679.5,
        "duration": 0.25,
        "velocity": 0.71,
        "hand": "left"
      },
      {
        "midi": 43,
        "time": 679.75,
        "duration": 0.25,
        "velocity": 0.54,
        "hand": "left"
      },
      {
        "midi": 52,
        "time": 679.75,
        "duration": 0.25,
        "velocity": 0.71,
        "hand": "left"
      },
      {
        "midi": 55,
        "time": 679.75,
        "duration": 0.25,
        "velocity": 0.71,
        "hand": "left"
      },
      {
        "midi": 52,
        "time": 680,
        "duration": 0.25,
        "velocity": 0.54,
        "hand": "left"
      },
      {
        "midi": 56,
        "time": 680,
        "duration": 0.25,
        "velocity": 0.71,
        "hand": "left"
      },
      {
        "midi": 40,
        "time": 680.25,
        "duration": 0.25,
        "velocity": 0.54,
        "hand": "left"
      },
      {
        "midi": 55,
        "time": 680.25,
        "duration": 0.25,
        "velocity": 0.71,
        "hand": "left"
      },
      {
        "midi": 60,
        "time": 680.25,
        "duration": 0.25,
        "velocity": 0.71,
        "hand": "right"
      },
      {
        "midi": 48,
        "time": 680.5,
        "duration": 0.25,
        "velocity": 0.54,
        "hand": "left"
      },
      {
        "midi": 61,
        "time": 680.5,
        "duration": 0.25,
        "velocity": 0.71,
        "hand": "right"
      },
      {
        "midi": 58,
        "time": 680.75,
        "duration": 0.25,
        "velocity": 0.54,
        "hand": "left"
      },
      {
        "midi": 60,
        "time": 680.75,
        "duration": 0.25,
        "velocity": 0.71,
        "hand": "right"
      },
      {
        "midi": 68,
        "time": 680.75,
        "duration": 0.25,
        "velocity": 0.71,
        "hand": "right"
      },
      {
        "midi": 41,
        "time": 681,
        "duration": 0.25,
        "velocity": 0.54,
        "hand": "left"
      },
      {
        "midi": 67,
        "time": 681,
        "duration": 0.25,
        "velocity": 0.71,
        "hand": "right"
      },
      {
        "midi": 48,
        "time": 681.25,
        "duration": 0.25,
        "velocity": 0.54,
        "hand": "left"
      },
      {
        "midi": 59,
        "time": 681.25,
        "duration": 0.25,
        "velocity": 0.71,
        "hand": "left"
      },
      {
        "midi": 60,
        "time": 681.25,
        "duration": 0.25,
        "velocity": 0.71,
        "hand": "right"
      },
      {
        "midi": 56,
        "time": 681.5,
        "duration": 0.25,
        "velocity": 0.54,
        "hand": "left"
      },
      {
        "midi": 61,
        "time": 681.5,
        "duration": 0.25,
        "velocity": 0.71,
        "hand": "right"
      },
      {
        "midi": 44,
        "time": 681.75,
        "duration": 0.25,
        "velocity": 0.54,
        "hand": "left"
      },
      {
        "midi": 60,
        "time": 681.75,
        "duration": 0.25,
        "velocity": 0.71,
        "hand": "right"
      },
      {
        "midi": 65,
        "time": 681.75,
        "duration": 0.25,
        "velocity": 0.71,
        "hand": "right"
      },
      {
        "midi": 53,
        "time": 682,
        "duration": 0.25,
        "velocity": 0.54,
        "hand": "left"
      },
      {
        "midi": 68,
        "time": 682,
        "duration": 0.25,
        "velocity": 0.71,
        "hand": "right"
      },
      {
        "midi": 60,
        "time": 682.25,
        "duration": 0.25,
        "velocity": 0.54,
        "hand": "right"
      },
      {
        "midi": 65,
        "time": 682.25,
        "duration": 0.25,
        "velocity": 0.71,
        "hand": "right"
      },
      {
        "midi": 70,
        "time": 682.25,
        "duration": 0.25,
        "velocity": 0.71,
        "hand": "right"
      },
      {
        "midi": 48,
        "time": 682.5,
        "duration": 0.25,
        "velocity": 0.54,
        "hand": "left"
      },
      {
        "midi": 68,
        "time": 682.5,
        "duration": 0.25,
        "velocity": 0.71,
        "hand": "right"
      },
      {
        "midi": 58,
        "time": 682.75,
        "duration": 0.25,
        "velocity": 0.54,
        "hand": "left"
      },
      {
        "midi": 64,
        "time": 682.75,
        "duration": 0.25,
        "velocity": 0.71,
        "hand": "right"
      },
      {
        "midi": 67,
        "time": 682.75,
        "duration": 0.25,
        "velocity": 0.71,
        "hand": "right"
      },
      {
        "midi": 64,
        "time": 683,
        "duration": 0.25,
        "velocity": 0.54,
        "hand": "right"
      },
      {
        "midi": 68,
        "time": 683,
        "duration": 0.25,
        "velocity": 0.71,
        "hand": "right"
      },
      {
        "midi": 52,
        "time": 683.25,
        "duration": 0.25,
        "velocity": 0.54,
        "hand": "left"
      },
      {
        "midi": 67,
        "time": 683.25,
        "duration": 0.25,
        "velocity": 0.71,
        "hand": "right"
      },
      {
        "midi": 72,
        "time": 683.25,
        "duration": 0.25,
        "velocity": 0.71,
        "hand": "right"
      },
      {
        "midi": 60,
        "time": 683.5,
        "duration": 0.25,
        "velocity": 0.54,
        "hand": "right"
      },
      {
        "midi": 73,
        "time": 683.5,
        "duration": 0.25,
        "velocity": 0.71,
        "hand": "right"
      },
      {
        "midi": 70,
        "time": 683.75,
        "duration": 0.25,
        "velocity": 0.54,
        "hand": "right"
      },
      {
        "midi": 72,
        "time": 683.75,
        "duration": 0.25,
        "velocity": 0.71,
        "hand": "right"
      },
      {
        "midi": 79,
        "time": 683.75,
        "duration": 0.25,
        "velocity": 0.71,
        "hand": "right"
      },
      {
        "midi": 41,
        "time": 684,
        "duration": 0.25,
        "velocity": 0.54,
        "hand": "left"
      },
      {
        "midi": 77,
        "time": 684,
        "duration": 0.25,
        "velocity": 0.71,
        "hand": "right"
      },
      {
        "midi": 48,
        "time": 684.25,
        "duration": 0.25,
        "velocity": 0.54,
        "hand": "left"
      },
      {
        "midi": 59,
        "time": 684.25,
        "duration": 0.25,
        "velocity": 0.71,
        "hand": "left"
      },
      {
        "midi": 60,
        "time": 684.25,
        "duration": 0.25,
        "velocity": 0.71,
        "hand": "right"
      },
      {
        "midi": 56,
        "time": 684.5,
        "duration": 0.25,
        "velocity": 0.54,
        "hand": "left"
      },
      {
        "midi": 61,
        "time": 684.5,
        "duration": 0.25,
        "velocity": 0.71,
        "hand": "right"
      },
      {
        "midi": 44,
        "time": 684.75,
        "duration": 0.25,
        "velocity": 0.54,
        "hand": "left"
      },
      {
        "midi": 60,
        "time": 684.75,
        "duration": 0.25,
        "velocity": 0.71,
        "hand": "right"
      },
      {
        "midi": 65,
        "time": 684.75,
        "duration": 0.25,
        "velocity": 0.71,
        "hand": "right"
      },
      {
        "midi": 53,
        "time": 685,
        "duration": 0.25,
        "velocity": 0.54,
        "hand": "left"
      },
      {
        "midi": 68,
        "time": 685,
        "duration": 0.25,
        "velocity": 0.71,
        "hand": "right"
      },
      {
        "midi": 60,
        "time": 685.25,
        "duration": 0.25,
        "velocity": 0.54,
        "hand": "right"
      },
      {
        "midi": 65,
        "time": 685.25,
        "duration": 0.25,
        "velocity": 0.71,
        "hand": "right"
      },
      {
        "midi": 70,
        "time": 685.25,
        "duration": 0.25,
        "velocity": 0.71,
        "hand": "right"
      },
      {
        "midi": 48,
        "time": 685.5,
        "duration": 0.25,
        "velocity": 0.54,
        "hand": "left"
      },
      {
        "midi": 68,
        "time": 685.5,
        "duration": 0.25,
        "velocity": 0.71,
        "hand": "right"
      },
      {
        "midi": 58,
        "time": 685.75,
        "duration": 0.25,
        "velocity": 0.54,
        "hand": "left"
      },
      {
        "midi": 64,
        "time": 685.75,
        "duration": 0.25,
        "velocity": 0.71,
        "hand": "right"
      },
      {
        "midi": 67,
        "time": 685.75,
        "duration": 0.25,
        "velocity": 0.71,
        "hand": "right"
      },
      {
        "midi": 64,
        "time": 686,
        "duration": 0.25,
        "velocity": 0.54,
        "hand": "right"
      },
      {
        "midi": 68,
        "time": 686,
        "duration": 0.25,
        "velocity": 0.71,
        "hand": "right"
      },
      {
        "midi": 52,
        "time": 686.25,
        "duration": 0.25,
        "velocity": 0.54,
        "hand": "left"
      },
      {
        "midi": 67,
        "time": 686.25,
        "duration": 0.25,
        "velocity": 0.71,
        "hand": "right"
      },
      {
        "midi": 72,
        "time": 686.25,
        "duration": 0.25,
        "velocity": 0.71,
        "hand": "right"
      },
      {
        "midi": 60,
        "time": 686.5,
        "duration": 0.25,
        "velocity": 0.54,
        "hand": "right"
      },
      {
        "midi": 73,
        "time": 686.5,
        "duration": 0.25,
        "velocity": 0.71,
        "hand": "right"
      },
      {
        "midi": 70,
        "time": 686.75,
        "duration": 0.25,
        "velocity": 0.54,
        "hand": "right"
      },
      {
        "midi": 72,
        "time": 686.75,
        "duration": 0.25,
        "velocity": 0.71,
        "hand": "right"
      },
      {
        "midi": 80,
        "time": 686.75,
        "duration": 0.25,
        "velocity": 0.71,
        "hand": "right"
      },
      {
        "midi": 53,
        "time": 687,
        "duration": 0.25,
        "velocity": 0.54,
        "hand": "left"
      },
      {
        "midi": 79,
        "time": 687,
        "duration": 0.25,
        "velocity": 0.71,
        "hand": "right"
      },
      {
        "midi": 60,
        "time": 687.25,
        "duration": 0.25,
        "velocity": 0.54,
        "hand": "right"
      },
      {
        "midi": 71,
        "time": 687.25,
        "duration": 0.25,
        "velocity": 0.71,
        "hand": "right"
      },
      {
        "midi": 72,
        "time": 687.25,
        "duration": 0.25,
        "velocity": 0.71,
        "hand": "right"
      },
      {
        "midi": 68,
        "time": 687.5,
        "duration": 0.25,
        "velocity": 0.54,
        "hand": "right"
      },
      {
        "midi": 73,
        "time": 687.5,
        "duration": 0.25,
        "velocity": 0.71,
        "hand": "right"
      },
      {
        "midi": 56,
        "time": 687.75,
        "duration": 0.25,
        "velocity": 0.54,
        "hand": "left"
      },
      {
        "midi": 72,
        "time": 687.75,
        "duration": 0.25,
        "velocity": 0.71,
        "hand": "right"
      },
      {
        "midi": 77,
        "time": 687.75,
        "duration": 0.25,
        "velocity": 0.71,
        "hand": "right"
      },
      {
        "midi": 65,
        "time": 688,
        "duration": 0.25,
        "velocity": 0.54,
        "hand": "right"
      },
      {
        "midi": 80,
        "time": 688,
        "duration": 0.25,
        "velocity": 0.71,
        "hand": "right"
      },
      {
        "midi": 72,
        "time": 688.25,
        "duration": 0.25,
        "velocity": 0.54,
        "hand": "right"
      },
      {
        "midi": 77,
        "time": 688.25,
        "duration": 0.25,
        "velocity": 0.71,
        "hand": "right"
      },
      {
        "midi": 82,
        "time": 688.25,
        "duration": 0.25,
        "velocity": 0.71,
        "hand": "right"
      },
      {
        "midi": 60,
        "time": 688.5,
        "duration": 0.25,
        "velocity": 0.54,
        "hand": "right"
      },
      {
        "midi": 80,
        "time": 688.5,
        "duration": 0.25,
        "velocity": 0.71,
        "hand": "right"
      },
      {
        "midi": 70,
        "time": 688.75,
        "duration": 0.25,
        "velocity": 0.54,
        "hand": "right"
      },
      {
        "midi": 76,
        "time": 688.75,
        "duration": 0.25,
        "velocity": 0.71,
        "hand": "right"
      },
      {
        "midi": 79,
        "time": 688.75,
        "duration": 0.25,
        "velocity": 0.71,
        "hand": "right"
      },
      {
        "midi": 76,
        "time": 689,
        "duration": 0.25,
        "velocity": 0.54,
        "hand": "right"
      },
      {
        "midi": 80,
        "time": 689,
        "duration": 0.25,
        "velocity": 0.71,
        "hand": "right"
      },
      {
        "midi": 64,
        "time": 689.25,
        "duration": 0.25,
        "velocity": 0.54,
        "hand": "right"
      },
      {
        "midi": 79,
        "time": 689.25,
        "duration": 0.25,
        "velocity": 0.71,
        "hand": "right"
      },
      {
        "midi": 84,
        "time": 689.25,
        "duration": 0.25,
        "velocity": 0.71,
        "hand": "right"
      },
      {
        "midi": 72,
        "time": 689.5,
        "duration": 0.25,
        "velocity": 0.54,
        "hand": "right"
      },
      {
        "midi": 85,
        "time": 689.5,
        "duration": 0.25,
        "velocity": 0.71,
        "hand": "right"
      },
      {
        "midi": 82,
        "time": 689.75,
        "duration": 0.25,
        "velocity": 0.54,
        "hand": "right"
      },
      {
        "midi": 84,
        "time": 689.75,
        "duration": 0.25,
        "velocity": 0.71,
        "hand": "right"
      },
      {
        "midi": 91,
        "time": 689.75,
        "duration": 0.25,
        "velocity": 0.71,
        "hand": "right"
      },
      {
        "midi": 65,
        "time": 690,
        "duration": 0.5,
        "velocity": 0.54,
        "hand": "right"
      },
      {
        "midi": 72,
        "time": 690,
        "duration": 0.5,
        "velocity": 0.54,
        "hand": "right"
      },
      {
        "midi": 89,
        "time": 690,
        "duration": 0.25,
        "velocity": 0.71,
        "hand": "right"
      },
      {
        "midi": 100,
        "time": 690.25,
        "duration": 0.25,
        "velocity": 0.71,
        "hand": "right"
      },
      {
        "midi": 101,
        "time": 690.25,
        "duration": 0.25,
        "velocity": 0.71,
        "hand": "right"
      },
      {
        "midi": 65,
        "time": 690.5,
        "duration": 1,
        "velocity": 0.54,
        "hand": "right"
      },
      {
        "midi": 73,
        "time": 690.5,
        "duration": 1,
        "velocity": 0.54,
        "hand": "right"
      },
      {
        "midi": 99,
        "time": 690.5,
        "duration": 0.25,
        "velocity": 0.71,
        "hand": "right"
      },
      {
        "midi": 96,
        "time": 690.75,
        "duration": 0.25,
        "velocity": 0.71,
        "hand": "right"
      },
      {
        "midi": 97,
        "time": 690.75,
        "duration": 0.25,
        "velocity": 0.71,
        "hand": "right"
      },
      {
        "midi": 94,
        "time": 691,
        "duration": 0.25,
        "velocity": 0.71,
        "hand": "right"
      },
      {
        "midi": 91,
        "time": 691.25,
        "duration": 0.25,
        "velocity": 0.71,
        "hand": "right"
      },
      {
        "midi": 92,
        "time": 691.25,
        "duration": 0.25,
        "velocity": 0.71,
        "hand": "right"
      },
      {
        "midi": 65,
        "time": 691.5,
        "duration": 0.5,
        "velocity": 0.54,
        "hand": "right"
      },
      {
        "midi": 72,
        "time": 691.5,
        "duration": 0.5,
        "velocity": 0.54,
        "hand": "right"
      },
      {
        "midi": 89,
        "time": 691.5,
        "duration": 0.25,
        "velocity": 0.71,
        "hand": "right"
      },
      {
        "midi": 87,
        "time": 691.75,
        "duration": 0.25,
        "velocity": 0.71,
        "hand": "right"
      },
      {
        "midi": 88,
        "time": 691.75,
        "duration": 0.25,
        "velocity": 0.71,
        "hand": "right"
      },
      {
        "midi": 65,
        "time": 692,
        "duration": 1,
        "velocity": 0.54,
        "hand": "right"
      },
      {
        "midi": 73,
        "time": 692,
        "duration": 1,
        "velocity": 0.54,
        "hand": "right"
      },
      {
        "midi": 85,
        "time": 692,
        "duration": 0.25,
        "velocity": 0.71,
        "hand": "right"
      },
      {
        "midi": 82,
        "time": 692.25,
        "duration": 0.25,
        "velocity": 0.71,
        "hand": "right"
      },
      {
        "midi": 84,
        "time": 692.25,
        "duration": 0.25,
        "velocity": 0.71,
        "hand": "right"
      },
      {
        "midi": 80,
        "time": 692.5,
        "duration": 0.25,
        "velocity": 0.71,
        "hand": "right"
      },
      {
        "midi": 77,
        "time": 692.75,
        "duration": 0.25,
        "velocity": 0.71,
        "hand": "right"
      },
      {
        "midi": 79,
        "time": 692.75,
        "duration": 0.25,
        "velocity": 0.71,
        "hand": "right"
      },
      {
        "midi": 53,
        "time": 693,
        "duration": 0.5,
        "velocity": 0.54,
        "hand": "left"
      },
      {
        "midi": 60,
        "time": 693,
        "duration": 0.5,
        "velocity": 0.54,
        "hand": "right"
      },
      {
        "midi": 92,
        "time": 693,
        "duration": 0.25,
        "velocity": 0.71,
        "hand": "right"
      },
      {
        "midi": 89,
        "time": 693.25,
        "duration": 0.25,
        "velocity": 0.71,
        "hand": "right"
      },
      {
        "midi": 91,
        "time": 693.25,
        "duration": 0.25,
        "velocity": 0.71,
        "hand": "right"
      },
      {
        "midi": 53,
        "time": 693.5,
        "duration": 1,
        "velocity": 0.54,
        "hand": "left"
      },
      {
        "midi": 61,
        "time": 693.5,
        "duration": 1,
        "velocity": 0.54,
        "hand": "right"
      },
      {
        "midi": 87,
        "time": 693.5,
        "duration": 0.25,
        "velocity": 0.71,
        "hand": "right"
      },
      {
        "midi": 84,
        "time": 693.75,
        "duration": 0.25,
        "velocity": 0.71,
        "hand": "right"
      },
      {
        "midi": 85,
        "time": 693.75,
        "duration": 0.25,
        "velocity": 0.71,
        "hand": "right"
      },
      {
        "midi": 82,
        "time": 694,
        "duration": 0.25,
        "velocity": 0.71,
        "hand": "right"
      },
      {
        "midi": 79,
        "time": 694.25,
        "duration": 0.25,
        "velocity": 0.71,
        "hand": "right"
      },
      {
        "midi": 80,
        "time": 694.25,
        "duration": 0.25,
        "velocity": 0.71,
        "hand": "right"
      },
      {
        "midi": 53,
        "time": 694.5,
        "duration": 0.5,
        "velocity": 0.54,
        "hand": "left"
      },
      {
        "midi": 60,
        "time": 694.5,
        "duration": 0.5,
        "velocity": 0.54,
        "hand": "right"
      },
      {
        "midi": 77,
        "time": 694.5,
        "duration": 0.25,
        "velocity": 0.71,
        "hand": "right"
      },
      {
        "midi": 73,
        "time": 694.75,
        "duration": 0.25,
        "velocity": 0.71,
        "hand": "right"
      },
      {
        "midi": 75,
        "time": 694.75,
        "duration": 0.25,
        "velocity": 0.71,
        "hand": "right"
      },
      {
        "midi": 53,
        "time": 695,
        "duration": 1,
        "velocity": 0.54,
        "hand": "left"
      },
      {
        "midi": 61,
        "time": 695,
        "duration": 1,
        "velocity": 0.54,
        "hand": "right"
      },
      {
        "midi": 72,
        "time": 695,
        "duration": 0.25,
        "velocity": 0.71,
        "hand": "right"
      },
      {
        "midi": 68,
        "time": 695.25,
        "duration": 0.25,
        "velocity": 0.71,
        "hand": "right"
      },
      {
        "midi": 70,
        "time": 695.25,
        "duration": 0.25,
        "velocity": 0.71,
        "hand": "right"
      },
      {
        "midi": 67,
        "time": 695.5,
        "duration": 0.25,
        "velocity": 0.71,
        "hand": "right"
      },
      {
        "midi": 61,
        "time": 695.75,
        "duration": 0.25,
        "velocity": 0.71,
        "hand": "right"
      },
      {
        "midi": 65,
        "time": 695.75,
        "duration": 0.25,
        "velocity": 0.71,
        "hand": "right"
      },
      {
        "midi": 41,
        "time": 696,
        "duration": 0.5,
        "velocity": 0.54,
        "hand": "left"
      },
      {
        "midi": 56,
        "time": 696,
        "duration": 0.5,
        "velocity": 0.54,
        "hand": "left"
      },
      {
        "midi": 60,
        "time": 696,
        "duration": 0.25,
        "velocity": 0.71,
        "hand": "right"
      },
      {
        "midi": 65,
        "time": 696.25,
        "duration": 0.25,
        "velocity": 0.71,
        "hand": "right"
      },
      {
        "midi": 68,
        "time": 696.25,
        "duration": 0.25,
        "velocity": 0.71,
        "hand": "right"
      },
      {
        "midi": 72,
        "time": 696.5,
        "duration": 0.25,
        "velocity": 0.71,
        "hand": "right"
      },
      {
        "midi": 77,
        "time": 696.75,
        "duration": 0.25,
        "velocity": 0.71,
        "hand": "right"
      },
      {
        "midi": 80,
        "time": 696.75,
        "duration": 0.25,
        "velocity": 0.71,
        "hand": "right"
      },
      {
        "midi": 84,
        "time": 697,
        "duration": 0.25,
        "velocity": 0.71,
        "hand": "right"
      },
      {
        "midi": 89,
        "time": 697.25,
        "duration": 0.25,
        "velocity": 0.71,
        "hand": "right"
      },
      {
        "midi": 92,
        "time": 697.25,
        "duration": 0.25,
        "velocity": 0.71,
        "hand": "right"
      },
      {
        "midi": 85,
        "time": 697.5,
        "duration": 0.25,
        "velocity": 0.54,
        "hand": "right"
      },
      {
        "midi": 97,
        "time": 697.5,
        "duration": 0.25,
        "velocity": 0.71,
        "hand": "right"
      },
      {
        "midi": 80,
        "time": 697.75,
        "duration": 0.25,
        "velocity": 0.54,
        "hand": "right"
      },
      {
        "midi": 92,
        "time": 697.75,
        "duration": 0.25,
        "velocity": 0.71,
        "hand": "right"
      },
      {
        "midi": 96,
        "time": 697.75,
        "duration": 0.25,
        "velocity": 0.71,
        "hand": "right"
      },
      {
        "midi": 77,
        "time": 698,
        "duration": 0.25,
        "velocity": 0.54,
        "hand": "right"
      },
      {
        "midi": 89,
        "time": 698,
        "duration": 0.25,
        "velocity": 0.71,
        "hand": "right"
      },
      {
        "midi": 80,
        "time": 698.25,
        "duration": 0.25,
        "velocity": 0.54,
        "hand": "right"
      },
      {
        "midi": 92,
        "time": 698.25,
        "duration": 0.25,
        "velocity": 0.71,
        "hand": "right"
      },
      {
        "midi": 94,
        "time": 698.25,
        "duration": 0.25,
        "velocity": 0.71,
        "hand": "right"
      },
      {
        "midi": 77,
        "time": 698.5,
        "duration": 0.25,
        "velocity": 0.54,
        "hand": "right"
      },
      {
        "midi": 89,
        "time": 698.5,
        "duration": 0.25,
        "velocity": 0.71,
        "hand": "right"
      },
      {
        "midi": 72,
        "time": 698.75,
        "duration": 0.25,
        "velocity": 0.54,
        "hand": "right"
      },
      {
        "midi": 84,
        "time": 698.75,
        "duration": 0.25,
        "velocity": 0.71,
        "hand": "right"
      },
      {
        "midi": 91,
        "time": 698.75,
        "duration": 0.25,
        "velocity": 0.71,
        "hand": "right"
      },
      {
        "midi": 77,
        "time": 699,
        "duration": 0.25,
        "velocity": 0.54,
        "hand": "right"
      },
      {
        "midi": 89,
        "time": 699,
        "duration": 0.25,
        "velocity": 0.71,
        "hand": "right"
      },
      {
        "midi": 68,
        "time": 699.25,
        "duration": 0.25,
        "velocity": 0.54,
        "hand": "right"
      },
      {
        "midi": 80,
        "time": 699.25,
        "duration": 0.25,
        "velocity": 0.71,
        "hand": "right"
      },
      {
        "midi": 84,
        "time": 699.25,
        "duration": 0.25,
        "velocity": 0.71,
        "hand": "right"
      },
      {
        "midi": 73,
        "time": 699.5,
        "duration": 0.25,
        "velocity": 0.54,
        "hand": "right"
      },
      {
        "midi": 85,
        "time": 699.5,
        "duration": 0.25,
        "velocity": 0.71,
        "hand": "right"
      },
      {
        "midi": 68,
        "time": 699.75,
        "duration": 0.25,
        "velocity": 0.54,
        "hand": "right"
      },
      {
        "midi": 80,
        "time": 699.75,
        "duration": 0.25,
        "velocity": 0.71,
        "hand": "right"
      },
      {
        "midi": 84,
        "time": 699.75,
        "duration": 0.25,
        "velocity": 0.71,
        "hand": "right"
      },
      {
        "midi": 65,
        "time": 700,
        "duration": 0.25,
        "velocity": 0.54,
        "hand": "right"
      },
      {
        "midi": 77,
        "time": 700,
        "duration": 0.25,
        "velocity": 0.71,
        "hand": "right"
      },
      {
        "midi": 68,
        "time": 700.25,
        "duration": 0.25,
        "velocity": 0.54,
        "hand": "right"
      },
      {
        "midi": 80,
        "time": 700.25,
        "duration": 0.25,
        "velocity": 0.71,
        "hand": "right"
      },
      {
        "midi": 82,
        "time": 700.25,
        "duration": 0.25,
        "velocity": 0.71,
        "hand": "right"
      },
      {
        "midi": 65,
        "time": 700.5,
        "duration": 0.25,
        "velocity": 0.54,
        "hand": "right"
      },
      {
        "midi": 77,
        "time": 700.5,
        "duration": 0.25,
        "velocity": 0.71,
        "hand": "right"
      },
      {
        "midi": 60,
        "time": 700.75,
        "duration": 0.25,
        "velocity": 0.54,
        "hand": "right"
      },
      {
        "midi": 72,
        "time": 700.75,
        "duration": 0.25,
        "velocity": 0.71,
        "hand": "right"
      },
      {
        "midi": 79,
        "time": 700.75,
        "duration": 0.25,
        "velocity": 0.71,
        "hand": "right"
      },
      {
        "midi": 65,
        "time": 701,
        "duration": 0.25,
        "velocity": 0.54,
        "hand": "right"
      },
      {
        "midi": 77,
        "time": 701,
        "duration": 0.25,
        "velocity": 0.71,
        "hand": "right"
      },
      {
        "midi": 56,
        "time": 701.25,
        "duration": 0.25,
        "velocity": 0.54,
        "hand": "left"
      },
      {
        "midi": 68,
        "time": 701.25,
        "duration": 0.25,
        "velocity": 0.71,
        "hand": "right"
      },
      {
        "midi": 72,
        "time": 701.25,
        "duration": 0.25,
        "velocity": 0.71,
        "hand": "right"
      },
      {
        "midi": 61,
        "time": 701.5,
        "duration": 0.25,
        "velocity": 0.54,
        "hand": "right"
      },
      {
        "midi": 73,
        "time": 701.5,
        "duration": 0.25,
        "velocity": 0.71,
        "hand": "right"
      },
      {
        "midi": 56,
        "time": 701.75,
        "duration": 0.25,
        "velocity": 0.54,
        "hand": "left"
      },
      {
        "midi": 68,
        "time": 701.75,
        "duration": 0.25,
        "velocity": 0.71,
        "hand": "right"
      },
      {
        "midi": 72,
        "time": 701.75,
        "duration": 0.25,
        "velocity": 0.71,
        "hand": "right"
      },
      {
        "midi": 53,
        "time": 702,
        "duration": 0.25,
        "velocity": 0.54,
        "hand": "left"
      },
      {
        "midi": 65,
        "time": 702,
        "duration": 0.25,
        "velocity": 0.71,
        "hand": "right"
      },
      {
        "midi": 56,
        "time": 702.25,
        "duration": 0.25,
        "velocity": 0.54,
        "hand": "left"
      },
      {
        "midi": 68,
        "time": 702.25,
        "duration": 0.25,
        "velocity": 0.71,
        "hand": "right"
      },
      {
        "midi": 70,
        "time": 702.25,
        "duration": 0.25,
        "velocity": 0.71,
        "hand": "right"
      },
      {
        "midi": 53,
        "time": 702.5,
        "duration": 0.25,
        "velocity": 0.54,
        "hand": "left"
      },
      {
        "midi": 65,
        "time": 702.5,
        "duration": 0.25,
        "velocity": 0.71,
        "hand": "right"
      },
      {
        "midi": 48,
        "time": 702.75,
        "duration": 0.25,
        "velocity": 0.54,
        "hand": "left"
      },
      {
        "midi": 60,
        "time": 702.75,
        "duration": 0.25,
        "velocity": 0.71,
        "hand": "right"
      },
      {
        "midi": 67,
        "time": 702.75,
        "duration": 0.25,
        "velocity": 0.71,
        "hand": "right"
      },
      {
        "midi": 53,
        "time": 703,
        "duration": 0.25,
        "velocity": 0.54,
        "hand": "left"
      },
      {
        "midi": 65,
        "time": 703,
        "duration": 0.25,
        "velocity": 0.71,
        "hand": "right"
      },
      {
        "midi": 44,
        "time": 703.25,
        "duration": 0.25,
        "velocity": 0.54,
        "hand": "left"
      },
      {
        "midi": 56,
        "time": 703.25,
        "duration": 0.25,
        "velocity": 0.71,
        "hand": "left"
      },
      {
        "midi": 60,
        "time": 703.25,
        "duration": 0.25,
        "velocity": 0.71,
        "hand": "right"
      },
      {
        "midi": 49,
        "time": 703.5,
        "duration": 0.25,
        "velocity": 0.54,
        "hand": "left"
      },
      {
        "midi": 61,
        "time": 703.5,
        "duration": 0.25,
        "velocity": 0.71,
        "hand": "right"
      },
      {
        "midi": 44,
        "time": 703.75,
        "duration": 0.25,
        "velocity": 0.54,
        "hand": "left"
      },
      {
        "midi": 56,
        "time": 703.75,
        "duration": 0.25,
        "velocity": 0.71,
        "hand": "left"
      },
      {
        "midi": 60,
        "time": 703.75,
        "duration": 0.25,
        "velocity": 0.71,
        "hand": "right"
      },
      {
        "midi": 41,
        "time": 704,
        "duration": 0.25,
        "velocity": 0.54,
        "hand": "left"
      },
      {
        "midi": 53,
        "time": 704,
        "duration": 0.25,
        "velocity": 0.71,
        "hand": "left"
      },
      {
        "midi": 44,
        "time": 704.25,
        "duration": 0.25,
        "velocity": 0.54,
        "hand": "left"
      },
      {
        "midi": 56,
        "time": 704.25,
        "duration": 0.25,
        "velocity": 0.71,
        "hand": "left"
      },
      {
        "midi": 58,
        "time": 704.25,
        "duration": 0.25,
        "velocity": 0.71,
        "hand": "left"
      },
      {
        "midi": 41,
        "time": 704.5,
        "duration": 0.25,
        "velocity": 0.54,
        "hand": "left"
      },
      {
        "midi": 53,
        "time": 704.5,
        "duration": 0.25,
        "velocity": 0.71,
        "hand": "left"
      },
      {
        "midi": 36,
        "time": 704.75,
        "duration": 0.25,
        "velocity": 0.54,
        "hand": "left"
      },
      {
        "midi": 48,
        "time": 704.75,
        "duration": 0.25,
        "velocity": 0.71,
        "hand": "left"
      },
      {
        "midi": 55,
        "time": 704.75,
        "duration": 0.25,
        "velocity": 0.71,
        "hand": "left"
      },
      {
        "midi": 41,
        "time": 705,
        "duration": 0.25,
        "velocity": 0.54,
        "hand": "left"
      },
      {
        "midi": 53,
        "time": 705,
        "duration": 0.25,
        "velocity": 0.71,
        "hand": "left"
      },
      {
        "midi": 32,
        "time": 705.25,
        "duration": 0.25,
        "velocity": 0.54,
        "hand": "left"
      },
      {
        "midi": 44,
        "time": 705.25,
        "duration": 0.25,
        "velocity": 0.71,
        "hand": "left"
      },
      {
        "midi": 48,
        "time": 705.25,
        "duration": 0.25,
        "velocity": 0.71,
        "hand": "left"
      },
      {
        "midi": 37,
        "time": 705.5,
        "duration": 0.25,
        "velocity": 0.54,
        "hand": "left"
      },
      {
        "midi": 49,
        "time": 705.5,
        "duration": 0.25,
        "velocity": 0.71,
        "hand": "left"
      },
      {
        "midi": 32,
        "time": 705.75,
        "duration": 0.25,
        "velocity": 0.54,
        "hand": "left"
      },
      {
        "midi": 44,
        "time": 705.75,
        "duration": 0.25,
        "velocity": 0.71,
        "hand": "left"
      },
      {
        "midi": 48,
        "time": 705.75,
        "duration": 0.25,
        "velocity": 0.71,
        "hand": "left"
      },
      {
        "midi": 29,
        "time": 706,
        "duration": 0.25,
        "velocity": 0.54,
        "hand": "left"
      },
      {
        "midi": 41,
        "time": 706,
        "duration": 0.25,
        "velocity": 0.71,
        "hand": "left"
      },
      {
        "midi": 36,
        "time": 706.25,
        "duration": 0.25,
        "velocity": 0.54,
        "hand": "left"
      },
      {
        "midi": 48,
        "time": 706.25,
        "duration": 0.25,
        "velocity": 0.71,
        "hand": "left"
      },
      {
        "midi": 49,
        "time": 706.25,
        "duration": 0.25,
        "velocity": 0.71,
        "hand": "left"
      },
      {
        "midi": 32,
        "time": 706.5,
        "duration": 0.25,
        "velocity": 0.54,
        "hand": "left"
      },
      {
        "midi": 44,
        "time": 706.5,
        "duration": 0.25,
        "velocity": 0.71,
        "hand": "left"
      },
      {
        "midi": 29,
        "time": 706.75,
        "duration": 0.25,
        "velocity": 0.54,
        "hand": "left"
      },
      {
        "midi": 41,
        "time": 706.75,
        "duration": 0.25,
        "velocity": 0.71,
        "hand": "left"
      },
      {
        "midi": 49,
        "time": 706.75,
        "duration": 0.25,
        "velocity": 0.71,
        "hand": "left"
      },
      {
        "midi": 36,
        "time": 707,
        "duration": 0.25,
        "velocity": 0.54,
        "hand": "left"
      },
      {
        "midi": 48,
        "time": 707,
        "duration": 0.25,
        "velocity": 0.71,
        "hand": "left"
      },
      {
        "midi": 29,
        "time": 707.25,
        "duration": 0.25,
        "velocity": 0.54,
        "hand": "left"
      },
      {
        "midi": 41,
        "time": 707.25,
        "duration": 0.25,
        "velocity": 0.71,
        "hand": "left"
      },
      {
        "midi": 44,
        "time": 707.25,
        "duration": 0.25,
        "velocity": 0.71,
        "hand": "left"
      },
      {
        "midi": 37,
        "time": 707.5,
        "duration": 0.25,
        "velocity": 0.54,
        "hand": "left"
      },
      {
        "midi": 49,
        "time": 707.5,
        "duration": 0.25,
        "velocity": 0.71,
        "hand": "left"
      },
      {
        "midi": 32,
        "time": 707.75,
        "duration": 0.25,
        "velocity": 0.54,
        "hand": "left"
      },
      {
        "midi": 44,
        "time": 707.75,
        "duration": 0.25,
        "velocity": 0.71,
        "hand": "left"
      },
      {
        "midi": 48,
        "time": 707.75,
        "duration": 0.25,
        "velocity": 0.71,
        "hand": "left"
      },
      {
        "midi": 29,
        "time": 708,
        "duration": 0.5,
        "velocity": 0.54,
        "hand": "left"
      },
      {
        "midi": 41,
        "time": 708,
        "duration": 0.5,
        "velocity": 0.71,
        "hand": "left"
      },
      {
        "midi": 37,
        "time": 709.5,
        "duration": 0.5,
        "velocity": 0.54,
        "hand": "left"
      },
      {
        "midi": 68,
        "time": 709.5,
        "duration": 0.5,
        "velocity": 0.71,
        "hand": "right"
      },
      {
        "midi": 77,
        "time": 709.5,
        "duration": 0.5,
        "velocity": 0.71,
        "hand": "right"
      },
      {
        "midi": 34,
        "time": 711,
        "duration": 0.5,
        "velocity": 0.54,
        "hand": "left"
      },
      {
        "midi": 77,
        "time": 711,
        "duration": 0.5,
        "velocity": 0.71,
        "hand": "right"
      },
      {
        "midi": 85,
        "time": 711,
        "duration": 0.5,
        "velocity": 0.71,
        "hand": "right"
      },
      {
        "midi": 36,
        "time": 712.5,
        "duration": 0.5,
        "velocity": 0.54,
        "hand": "left"
      },
      {
        "midi": 58,
        "time": 712.5,
        "duration": 0.5,
        "velocity": 0.71,
        "hand": "left"
      },
      {
        "midi": 64,
        "time": 712.5,
        "duration": 0.5,
        "velocity": 0.71,
        "hand": "right"
      },
      {
        "midi": 29,
        "time": 714,
        "duration": 3,
        "velocity": 0.54,
        "hand": "left"
      },
      {
        "midi": 56,
        "time": 714,
        "duration": 3,
        "velocity": 0.71,
        "hand": "left"
      },
      {
        "midi": 65,
        "time": 714,
        "duration": 3,
        "velocity": 0.71,
        "hand": "right"
      }
    ],
    "hard": [
      {
        "midi": 67,
        "time": 0,
        "duration": 0.5,
        "velocity": 0.71,
        "hand": "right"
      },
      {
        "midi": 79,
        "time": 0,
        "duration": 0.5,
        "velocity": 0.71,
        "hand": "right"
      },
      {
        "midi": 67,
        "time": 0.5,
        "duration": 0.5,
        "velocity": 0.71,
        "hand": "right"
      },
      {
        "midi": 79,
        "time": 0.5,
        "duration": 0.5,
        "velocity": 0.71,
        "hand": "right"
      },
      {
        "midi": 67,
        "time": 1,
        "duration": 0.5,
        "velocity": 0.71,
        "hand": "right"
      },
      {
        "midi": 79,
        "time": 1,
        "duration": 0.5,
        "velocity": 0.71,
        "hand": "right"
      },
      {
        "midi": 64,
        "time": 1.5,
        "duration": 0.5,
        "velocity": 0.71,
        "hand": "right"
      },
      {
        "midi": 67,
        "time": 1.5,
        "duration": 0.5,
        "velocity": 0.71,
        "hand": "right"
      },
      {
        "midi": 79,
        "time": 1.5,
        "duration": 0.5,
        "velocity": 0.71,
        "hand": "right"
      },
      {
        "midi": 72,
        "time": 1.75,
        "duration": 0.25,
        "velocity": 0.71,
        "hand": "right"
      },
      {
        "midi": 64,
        "time": 2,
        "duration": 0.5,
        "velocity": 0.65,
        "hand": "right"
      },
      {
        "midi": 67,
        "time": 2,
        "duration": 0.5,
        "velocity": 0.71,
        "hand": "right"
      },
      {
        "midi": 79,
        "time": 2,
        "duration": 0.5,
        "velocity": 0.71,
        "hand": "right"
      },
      {
        "midi": 72,
        "time": 2.25,
        "duration": 0.25,
        "velocity": 0.71,
        "hand": "right"
      },
      {
        "midi": 62,
        "time": 2.5,
        "duration": 0.5,
        "velocity": 0.59,
        "hand": "right"
      },
      {
        "midi": 67,
        "time": 2.5,
        "duration": 0.5,
        "velocity": 0.71,
        "hand": "right"
      },
      {
        "midi": 79,
        "time": 2.5,
        "duration": 0.5,
        "velocity": 0.71,
        "hand": "right"
      },
      {
        "midi": 72,
        "time": 2.75,
        "duration": 0.25,
        "velocity": 0.71,
        "hand": "right"
      },
      {
        "midi": 62,
        "time": 3,
        "duration": 0.5,
        "velocity": 0.54,
        "hand": "right"
      },
      {
        "midi": 67,
        "time": 3,
        "duration": 0.5,
        "velocity": 0.71,
        "hand": "right"
      },
      {
        "midi": 79,
        "time": 3,
        "duration": 0.5,
        "velocity": 0.71,
        "hand": "right"
      },
      {
        "midi": 70,
        "time": 3.25,
        "duration": 0.25,
        "velocity": 0.71,
        "hand": "right"
      },
      {
        "midi": 72,
        "time": 3.25,
        "duration": 0.25,
        "velocity": 0.71,
        "hand": "right"
      },
      {
        "midi": 60,
        "time": 3.5,
        "duration": 0.5,
        "velocity": 0.48,
        "hand": "right"
      },
      {
        "midi": 67,
        "time": 3.5,
        "duration": 0.5,
        "velocity": 0.82,
        "hand": "right"
      },
      {
        "midi": 79,
        "time": 3.5,
        "duration": 0.5,
        "velocity": 0.82,
        "hand": "right"
      },
      {
        "midi": 70,
        "time": 3.75,
        "duration": 0.25,
        "velocity": 0.71,
        "hand": "right"
      },
      {
        "midi": 72,
        "time": 3.75,
        "duration": 0.25,
        "velocity": 0.71,
        "hand": "right"
      },
      {
        "midi": 67,
        "time": 4,
        "duration": 0.5,
        "velocity": 0.93,
        "hand": "right"
      },
      {
        "midi": 79,
        "time": 4,
        "duration": 0.5,
        "velocity": 0.93,
        "hand": "right"
      },
      {
        "midi": 70,
        "time": 4.25,
        "duration": 0.25,
        "velocity": 0.71,
        "hand": "right"
      },
      {
        "midi": 72,
        "time": 4.25,
        "duration": 0.25,
        "velocity": 0.71,
        "hand": "right"
      },
      {
        "midi": 41,
        "time": 4.5,
        "duration": 0.25,
        "velocity": 0.48,
        "hand": "left"
      },
      {
        "midi": 67,
        "time": 4.5,
        "duration": 0.5,
        "velocity": 0.93,
        "hand": "right"
      },
      {
        "midi": 79,
        "time": 4.5,
        "duration": 0.5,
        "velocity": 0.93,
        "hand": "right"
      },
      {
        "midi": 60,
        "time": 4.75,
        "duration": 0.25,
        "velocity": 0.48,
        "hand": "right"
      },
      {
        "midi": 69,
        "time": 4.75,
        "duration": 0.25,
        "velocity": 0.71,
        "hand": "right"
      },
      {
        "midi": 72,
        "time": 4.75,
        "duration": 0.25,
        "velocity": 0.71,
        "hand": "right"
      },
      {
        "midi": 57,
        "time": 5,
        "duration": 0.25,
        "velocity": 0.48,
        "hand": "left"
      },
      {
        "midi": 65,
        "time": 5,
        "duration": 0.5,
        "velocity": 0.82,
        "hand": "right"
      },
      {
        "midi": 77,
        "time": 5,
        "duration": 0.5,
        "velocity": 0.82,
        "hand": "right"
      },
      {
        "midi": 60,
        "time": 5.25,
        "duration": 0.25,
        "velocity": 0.48,
        "hand": "right"
      },
      {
        "midi": 69,
        "time": 5.25,
        "duration": 0.25,
        "velocity": 0.71,
        "hand": "right"
      },
      {
        "midi": 72,
        "time": 5.25,
        "duration": 0.25,
        "velocity": 0.71,
        "hand": "right"
      },
      {
        "midi": 50,
        "time": 5.5,
        "duration": 0.25,
        "velocity": 0.48,
        "hand": "left"
      },
      {
        "midi": 64,
        "time": 5.5,
        "duration": 0.5,
        "velocity": 0.71,
        "hand": "right"
      },
      {
        "midi": 76,
        "time": 5.5,
        "duration": 0.5,
        "velocity": 0.71,
        "hand": "right"
      },
      {
        "midi": 60,
        "time": 5.75,
        "duration": 0.25,
        "velocity": 0.48,
        "hand": "right"
      },
      {
        "midi": 69,
        "time": 5.75,
        "duration": 0.25,
        "velocity": 0.71,
        "hand": "right"
      },
      {
        "midi": 72,
        "time": 5.75,
        "duration": 0.25,
        "velocity": 0.71,
        "hand": "right"
      },
      {
        "midi": 43,
        "time": 6,
        "duration": 0.25,
        "velocity": 0.48,
        "hand": "left"
      },
      {
        "midi": 64,
        "time": 6,
        "duration": 0.5,
        "velocity": 0.71,
        "hand": "right"
      },
      {
        "midi": 76,
        "time": 6,
        "duration": 0.5,
        "velocity": 0.71,
        "hand": "right"
      },
      {
        "midi": 55,
        "time": 6.25,
        "duration": 0.25,
        "velocity": 0.48,
        "hand": "left"
      },
      {
        "midi": 67,
        "time": 6.25,
        "duration": 0.25,
        "velocity": 0.71,
        "hand": "right"
      },
      {
        "midi": 71,
        "time": 6.25,
        "duration": 0.25,
        "velocity": 0.71,
        "hand": "right"
      },
      {
        "midi": 53,
        "time": 6.5,
        "duration": 0.25,
        "velocity": 0.48,
        "hand": "left"
      },
      {
        "midi": 59,
        "time": 6.5,
        "duration": 0.25,
        "velocity": 0.48,
        "hand": "left"
      },
      {
        "midi": 62,
        "time": 6.5,
        "duration": 0.5,
        "velocity": 0.71,
        "hand": "right"
      },
      {
        "midi": 74,
        "time": 6.5,
        "duration": 0.5,
        "velocity": 0.71,
        "hand": "right"
      },
      {
        "midi": 55,
        "time": 6.75,
        "duration": 0.25,
        "velocity": 0.48,
        "hand": "left"
      },
      {
        "midi": 67,
        "time": 6.75,
        "duration": 0.25,
        "velocity": 0.71,
        "hand": "right"
      },
      {
        "midi": 71,
        "time": 6.75,
        "duration": 0.25,
        "velocity": 0.71,
        "hand": "right"
      },
      {
        "midi": 52,
        "time": 7,
        "duration": 0.25,
        "velocity": 0.48,
        "hand": "left"
      },
      {
        "midi": 60,
        "time": 7,
        "duration": 0.5,
        "velocity": 0.71,
        "hand": "right"
      },
      {
        "midi": 72,
        "time": 7,
        "duration": 0.5,
        "velocity": 0.71,
        "hand": "right"
      },
      {
        "midi": 55,
        "time": 7.25,
        "duration": 0.25,
        "velocity": 0.48,
        "hand": "left"
      },
      {
        "midi": 67,
        "time": 7.25,
        "duration": 0.25,
        "velocity": 0.71,
        "hand": "right"
      },
      {
        "midi": 48,
        "time": 7.5,
        "duration": 0.25,
        "velocity": 0.48,
        "hand": "left"
      },
      {
        "midi": 64,
        "time": 7.5,
        "duration": 0.25,
        "velocity": 0.71,
        "hand": "right"
      },
      {
        "midi": 76,
        "time": 7.5,
        "duration": 1.5,
        "velocity": 0.71,
        "hand": "right"
      },
      {
        "midi": 55,
        "time": 7.75,
        "duration": 0.25,
        "velocity": 0.48,
        "hand": "left"
      },
      {
        "midi": 67,
        "time": 7.75,
        "duration": 0.25,
        "velocity": 0.71,
        "hand": "right"
      },
      {
        "midi": 72,
        "time": 7.75,
        "duration": 0.25,
        "velocity": 0.71,
        "hand": "right"
      },
      {
        "midi": 60,
        "time": 8,
        "duration": 0.25,
        "velocity": 0.48,
        "hand": "right"
      },
      {
        "midi": 64,
        "time": 8,
        "duration": 0.25,
        "velocity": 0.71,
        "hand": "right"
      },
      {
        "midi": 57,
        "time": 8.25,
        "duration": 0.25,
        "velocity": 0.48,
        "hand": "left"
      },
      {
        "midi": 65,
        "time": 8.25,
        "duration": 0.25,
        "velocity": 0.71,
        "hand": "right"
      },
      {
        "midi": 72,
        "time": 8.25,
        "duration": 0.25,
        "velocity": 0.71,
        "hand": "right"
      },
      {
        "midi": 55,
        "time": 8.5,
        "duration": 0.25,
        "velocity": 0.48,
        "hand": "left"
      },
      {
        "midi": 64,
        "time": 8.5,
        "duration": 0.25,
        "velocity": 0.71,
        "hand": "right"
      },
      {
        "midi": 67,
        "time": 8.75,
        "duration": 0.25,
        "velocity": 0.71,
        "hand": "right"
      },
      {
        "midi": 72,
        "time": 8.75,
        "duration": 0.25,
        "velocity": 0.71,
        "hand": "right"
      },
      {
        "midi": 36,
        "time": 9,
        "duration": 0.25,
        "velocity": 0.48,
        "hand": "left"
      },
      {
        "midi": 64,
        "time": 9,
        "duration": 0.5,
        "velocity": 0.71,
        "hand": "right"
      },
      {
        "midi": 79,
        "time": 9,
        "duration": 0.5,
        "velocity": 0.71,
        "hand": "right"
      },
      {
        "midi": 55,
        "time": 9.25,
        "duration": 0.25,
        "velocity": 0.48,
        "hand": "left"
      },
      {
        "midi": 72,
        "time": 9.25,
        "duration": 0.25,
        "velocity": 0.71,
        "hand": "right"
      },
      {
        "midi": 60,
        "time": 9.5,
        "duration": 0.25,
        "velocity": 0.48,
        "hand": "right"
      },
      {
        "midi": 67,
        "time": 9.5,
        "duration": 0.5,
        "velocity": 0.71,
        "hand": "right"
      },
      {
        "midi": 79,
        "time": 9.5,
        "duration": 0.5,
        "velocity": 0.71,
        "hand": "right"
      },
      {
        "midi": 62,
        "time": 9.75,
        "duration": 0.25,
        "velocity": 0.48,
        "hand": "right"
      },
      {
        "midi": 70,
        "time": 9.75,
        "duration": 0.25,
        "velocity": 0.71,
        "hand": "right"
      },
      {
        "midi": 72,
        "time": 9.75,
        "duration": 0.25,
        "velocity": 0.71,
        "hand": "right"
      },
      {
        "midi": 64,
        "time": 10,
        "duration": 0.5,
        "velocity": 0.48,
        "hand": "right"
      },
      {
        "midi": 67,
        "time": 10,
        "duration": 0.5,
        "velocity": 0.71,
        "hand": "right"
      },
      {
        "midi": 79,
        "time": 10,
        "duration": 0.5,
        "velocity": 0.71,
        "hand": "right"
      },
      {
        "midi": 70,
        "time": 10.25,
        "duration": 0.25,
        "velocity": 0.71,
        "hand": "right"
      },
      {
        "midi": 72,
        "time": 10.25,
        "duration": 0.25,
        "velocity": 0.71,
        "hand": "right"
      },
      {
        "midi": 41,
        "time": 10.5,
        "duration": 0.25,
        "velocity": 0.48,
        "hand": "left"
      },
      {
        "midi": 67,
        "time": 10.5,
        "duration": 0.5,
        "velocity": 0.71,
        "hand": "right"
      },
      {
        "midi": 79,
        "time": 10.5,
        "duration": 0.5,
        "velocity": 0.71,
        "hand": "right"
      },
      {
        "midi": 60,
        "time": 10.75,
        "duration": 0.25,
        "velocity": 0.48,
        "hand": "right"
      },
      {
        "midi": 69,
        "time": 10.75,
        "duration": 0.25,
        "velocity": 0.71,
        "hand": "right"
      },
      {
        "midi": 72,
        "time": 10.75,
        "duration": 0.25,
        "velocity": 0.71,
        "hand": "right"
      },
      {
        "midi": 57,
        "time": 11,
        "duration": 0.25,
        "velocity": 0.48,
        "hand": "left"
      },
      {
        "midi": 65,
        "time": 11,
        "duration": 0.5,
        "velocity": 0.71,
        "hand": "right"
      },
      {
        "midi": 77,
        "time": 11,
        "duration": 0.5,
        "velocity": 0.71,
        "hand": "right"
      },
      {
        "midi": 60,
        "time": 11.25,
        "duration": 0.25,
        "velocity": 0.48,
        "hand": "right"
      },
      {
        "midi": 69,
        "time": 11.25,
        "duration": 0.25,
        "velocity": 0.71,
        "hand": "right"
      },
      {
        "midi": 72,
        "time": 11.25,
        "duration": 0.25,
        "velocity": 0.71,
        "hand": "right"
      },
      {
        "midi": 50,
        "time": 11.5,
        "duration": 0.25,
        "velocity": 0.48,
        "hand": "left"
      },
      {
        "midi": 64,
        "time": 11.5,
        "duration": 0.5,
        "velocity": 0.71,
        "hand": "right"
      },
      {
        "midi": 76,
        "time": 11.5,
        "duration": 0.5,
        "velocity": 0.71,
        "hand": "right"
      },
      {
        "midi": 60,
        "time": 11.75,
        "duration": 0.25,
        "velocity": 0.48,
        "hand": "right"
      },
      {
        "midi": 69,
        "time": 11.75,
        "duration": 0.25,
        "velocity": 0.71,
        "hand": "right"
      },
      {
        "midi": 72,
        "time": 11.75,
        "duration": 0.25,
        "velocity": 0.71,
        "hand": "right"
      },
      {
        "midi": 43,
        "time": 12,
        "duration": 0.25,
        "velocity": 0.48,
        "hand": "left"
      },
      {
        "midi": 64,
        "time": 12,
        "duration": 0.5,
        "velocity": 0.71,
        "hand": "right"
      },
      {
        "midi": 76,
        "time": 12,
        "duration": 0.5,
        "velocity": 0.71,
        "hand": "right"
      },
      {
        "midi": 55,
        "time": 12.25,
        "duration": 0.25,
        "velocity": 0.48,
        "hand": "left"
      },
      {
        "midi": 67,
        "time": 12.25,
        "duration": 0.25,
        "velocity": 0.71,
        "hand": "right"
      },
      {
        "midi": 71,
        "time": 12.25,
        "duration": 0.25,
        "velocity": 0.71,
        "hand": "right"
      },
      {
        "midi": 53,
        "time": 12.5,
        "duration": 0.25,
        "velocity": 0.48,
        "hand": "left"
      },
      {
        "midi": 59,
        "time": 12.5,
        "duration": 0.25,
        "velocity": 0.48,
        "hand": "left"
      },
      {
        "midi": 62,
        "time": 12.5,
        "duration": 0.5,
        "velocity": 0.71,
        "hand": "right"
      },
      {
        "midi": 74,
        "time": 12.5,
        "duration": 0.5,
        "velocity": 0.71,
        "hand": "right"
      },
      {
        "midi": 55,
        "time": 12.75,
        "duration": 0.25,
        "velocity": 0.48,
        "hand": "left"
      },
      {
        "midi": 67,
        "time": 12.75,
        "duration": 0.25,
        "velocity": 0.71,
        "hand": "right"
      },
      {
        "midi": 71,
        "time": 12.75,
        "duration": 0.25,
        "velocity": 0.71,
        "hand": "right"
      },
      {
        "midi": 52,
        "time": 13,
        "duration": 0.25,
        "velocity": 0.48,
        "hand": "left"
      },
      {
        "midi": 60,
        "time": 13,
        "duration": 0.5,
        "velocity": 0.71,
        "hand": "right"
      },
      {
        "midi": 72,
        "time": 13,
        "duration": 0.5,
        "velocity": 0.71,
        "hand": "right"
      },
      {
        "midi": 55,
        "time": 13.25,
        "duration": 0.25,
        "velocity": 0.48,
        "hand": "left"
      },
      {
        "midi": 67,
        "time": 13.25,
        "duration": 0.25,
        "velocity": 0.71,
        "hand": "right"
      },
      {
        "midi": 48,
        "time": 13.5,
        "duration": 0.25,
        "velocity": 0.48,
        "hand": "left"
      },
      {
        "midi": 64,
        "time": 13.5,
        "duration": 0.25,
        "velocity": 0.71,
        "hand": "right"
      },
      {
        "midi": 76,
        "time": 13.5,
        "duration": 1.5,
        "velocity": 0.71,
        "hand": "right"
      },
      {
        "midi": 55,
        "time": 13.75,
        "duration": 0.25,
        "velocity": 0.48,
        "hand": "left"
      },
      {
        "midi": 67,
        "time": 13.75,
        "duration": 0.25,
        "velocity": 0.71,
        "hand": "right"
      },
      {
        "midi": 72,
        "time": 13.75,
        "duration": 0.25,
        "velocity": 0.71,
        "hand": "right"
      },
      {
        "midi": 60,
        "time": 14,
        "duration": 0.25,
        "velocity": 0.48,
        "hand": "right"
      },
      {
        "midi": 64,
        "time": 14,
        "duration": 0.25,
        "velocity": 0.71,
        "hand": "right"
      },
      {
        "midi": 57,
        "time": 14.25,
        "duration": 0.25,
        "velocity": 0.48,
        "hand": "left"
      },
      {
        "midi": 65,
        "time": 14.25,
        "duration": 0.25,
        "velocity": 0.71,
        "hand": "right"
      },
      {
        "midi": 72,
        "time": 14.25,
        "duration": 0.25,
        "velocity": 0.71,
        "hand": "right"
      },
      {
        "midi": 55,
        "time": 14.5,
        "duration": 0.25,
        "velocity": 0.48,
        "hand": "left"
      },
      {
        "midi": 64,
        "time": 14.5,
        "duration": 0.25,
        "velocity": 0.71,
        "hand": "right"
      },
      {
        "midi": 67,
        "time": 14.75,
        "duration": 0.25,
        "velocity": 0.71,
        "hand": "right"
      },
      {
        "midi": 72,
        "time": 14.75,
        "duration": 0.25,
        "velocity": 0.71,
        "hand": "right"
      },
      {
        "midi": 43,
        "time": 15,
        "duration": 0.25,
        "velocity": 0.71,
        "hand": "left"
      },
      {
        "midi": 64,
        "time": 15,
        "duration": 0.5,
        "velocity": 0.71,
        "hand": "right"
      },
      {
        "midi": 76,
        "time": 15,
        "duration": 0.5,
        "velocity": 0.71,
        "hand": "right"
      },
      {
        "midi": 55,
        "time": 15.25,
        "duration": 0.25,
        "velocity": 0.71,
        "hand": "left"
      },
      {
        "midi": 67,
        "time": 15.25,
        "duration": 0.25,
        "velocity": 0.71,
        "hand": "right"
      },
      {
        "midi": 71,
        "time": 15.25,
        "duration": 0.25,
        "velocity": 0.71,
        "hand": "right"
      },
      {
        "midi": 53,
        "time": 15.5,
        "duration": 0.25,
        "velocity": 0.71,
        "hand": "left"
      },
      {
        "midi": 59,
        "time": 15.5,
        "duration": 0.25,
        "velocity": 0.71,
        "hand": "left"
      },
      {
        "midi": 62,
        "time": 15.5,
        "duration": 0.5,
        "velocity": 0.71,
        "hand": "right"
      },
      {
        "midi": 74,
        "time": 15.5,
        "duration": 0.5,
        "velocity": 0.71,
        "hand": "right"
      },
      {
        "midi": 55,
        "time": 15.75,
        "duration": 0.25,
        "velocity": 0.71,
        "hand": "left"
      },
      {
        "midi": 67,
        "time": 15.75,
        "duration": 0.25,
        "velocity": 0.71,
        "hand": "right"
      },
      {
        "midi": 71,
        "time": 15.75,
        "duration": 0.25,
        "velocity": 0.71,
        "hand": "right"
      },
      {
        "midi": 52,
        "time": 16,
        "duration": 0.25,
        "velocity": 0.71,
        "hand": "left"
      },
      {
        "midi": 60,
        "time": 16,
        "duration": 0.5,
        "velocity": 0.71,
        "hand": "right"
      },
      {
        "midi": 72,
        "time": 16,
        "duration": 0.5,
        "velocity": 0.71,
        "hand": "right"
      },
      {
        "midi": 55,
        "time": 16.25,
        "duration": 0.25,
        "velocity": 0.71,
        "hand": "left"
      },
      {
        "midi": 67,
        "time": 16.25,
        "duration": 0.25,
        "velocity": 0.71,
        "hand": "right"
      },
      {
        "midi": 48,
        "time": 16.5,
        "duration": 0.25,
        "velocity": 0.71,
        "hand": "left"
      },
      {
        "midi": 64,
        "time": 16.5,
        "duration": 0.25,
        "velocity": 0.71,
        "hand": "right"
      },
      {
        "midi": 76,
        "time": 16.5,
        "duration": 4,
        "velocity": 0.71,
        "hand": "right"
      },
      {
        "midi": 55,
        "time": 16.75,
        "duration": 0.25,
        "velocity": 0.71,
        "hand": "left"
      },
      {
        "midi": 67,
        "time": 16.75,
        "duration": 0.25,
        "velocity": 0.71,
        "hand": "right"
      },
      {
        "midi": 72,
        "time": 16.75,
        "duration": 0.25,
        "velocity": 0.71,
        "hand": "right"
      },
      {
        "midi": 60,
        "time": 17,
        "duration": 0.25,
        "velocity": 0.71,
        "hand": "right"
      },
      {
        "midi": 64,
        "time": 17,
        "duration": 0.25,
        "velocity": 0.71,
        "hand": "right"
      },
      {
        "midi": 57,
        "time": 17.25,
        "duration": 0.25,
        "velocity": 0.71,
        "hand": "left"
      },
      {
        "midi": 65,
        "time": 17.25,
        "duration": 0.25,
        "velocity": 0.71,
        "hand": "right"
      },
      {
        "midi": 72,
        "time": 17.25,
        "duration": 0.25,
        "velocity": 0.71,
        "hand": "right"
      },
      {
        "midi": 55,
        "time": 17.5,
        "duration": 0.25,
        "velocity": 0.71,
        "hand": "left"
      },
      {
        "midi": 64,
        "time": 17.5,
        "duration": 0.25,
        "velocity": 0.71,
        "hand": "right"
      },
      {
        "midi": 48,
        "time": 17.75,
        "duration": 0.25,
        "velocity": 0.71,
        "hand": "left"
      },
      {
        "midi": 67,
        "time": 17.75,
        "duration": 0.25,
        "velocity": 0.71,
        "hand": "right"
      },
      {
        "midi": 72,
        "time": 17.75,
        "duration": 0.25,
        "velocity": 0.71,
        "hand": "right"
      },
      {
        "midi": 60,
        "time": 18,
        "duration": 0.25,
        "velocity": 0.71,
        "hand": "right"
      },
      {
        "midi": 64,
        "time": 18,
        "duration": 0.25,
        "velocity": 0.71,
        "hand": "right"
      },
      {
        "midi": 57,
        "time": 18.25,
        "duration": 0.25,
        "velocity": 0.71,
        "hand": "left"
      },
      {
        "midi": 65,
        "time": 18.25,
        "duration": 0.25,
        "velocity": 0.71,
        "hand": "right"
      },
      {
        "midi": 72,
        "time": 18.25,
        "duration": 0.25,
        "velocity": 0.71,
        "hand": "right"
      },
      {
        "midi": 55,
        "time": 18.5,
        "duration": 0.25,
        "velocity": 0.71,
        "hand": "left"
      },
      {
        "midi": 64,
        "time": 18.5,
        "duration": 0.25,
        "velocity": 0.71,
        "hand": "right"
      },
      {
        "midi": 48,
        "time": 18.75,
        "duration": 0.75,
        "velocity": 0.71,
        "hand": "left"
      },
      {
        "midi": 67,
        "time": 18.75,
        "duration": 0.25,
        "velocity": 0.71,
        "hand": "right"
      },
      {
        "midi": 72,
        "time": 18.75,
        "duration": 0.25,
        "velocity": 0.71,
        "hand": "right"
      },
      {
        "midi": 60,
        "time": 19,
        "duration": 0.25,
        "velocity": 0.71,
        "hand": "right"
      },
      {
        "midi": 64,
        "time": 19,
        "duration": 0.25,
        "velocity": 0.71,
        "hand": "right"
      },
      {
        "midi": 57,
        "time": 19.25,
        "duration": 0.25,
        "velocity": 0.71,
        "hand": "left"
      },
      {
        "midi": 65,
        "time": 19.25,
        "duration": 0.25,
        "velocity": 0.71,
        "hand": "right"
      },
      {
        "midi": 72,
        "time": 19.25,
        "duration": 1.25,
        "velocity": 0.71,
        "hand": "right"
      },
      {
        "midi": 48,
        "time": 19.5,
        "duration": 1,
        "velocity": 0.71,
        "hand": "left"
      },
      {
        "midi": 55,
        "time": 19.5,
        "duration": 1,
        "velocity": 0.71,
        "hand": "left"
      },
      {
        "midi": 64,
        "time": 19.5,
        "duration": 1,
        "velocity": 0.71,
        "hand": "right"
      },
      {
        "midi": 72,
        "time": 20.5,
        "duration": 1,
        "velocity": 0.71,
        "hand": "right"
      },
      {
        "midi": 73,
        "time": 21.5,
        "duration": 0.5,
        "velocity": 0.71,
        "hand": "right"
      },
      {
        "midi": 71,
        "time": 22,
        "duration": 1,
        "velocity": 0.71,
        "hand": "right"
      },
      {
        "midi": 41,
        "time": 22.5,
        "duration": 0.5,
        "velocity": 0.48,
        "hand": "left"
      },
      {
        "midi": 60,
        "time": 23,
        "duration": 0.5,
        "velocity": 0.48,
        "hand": "right"
      },
      {
        "midi": 65,
        "time": 23,
        "duration": 0.5,
        "velocity": 0.48,
        "hand": "right"
      },
      {
        "midi": 68,
        "time": 23,
        "duration": 0.5,
        "velocity": 0.48,
        "hand": "right"
      },
      {
        "midi": 72,
        "time": 23,
        "duration": 0.5,
        "velocity": 0.71,
        "hand": "right"
      },
      {
        "midi": 56,
        "time": 23.5,
        "duration": 0.5,
        "velocity": 0.48,
        "hand": "left"
      },
      {
        "midi": 60,
        "time": 23.5,
        "duration": 0.5,
        "velocity": 0.48,
        "hand": "right"
      },
      {
        "midi": 65,
        "time": 23.5,
        "duration": 0.5,
        "velocity": 0.48,
        "hand": "right"
      },
      {
        "midi": 77,
        "time": 23.5,
        "duration": 0.5,
        "velocity": 0.71,
        "hand": "right"
      },
      {
        "midi": 53,
        "time": 24,
        "duration": 0.5,
        "velocity": 0.48,
        "hand": "left"
      },
      {
        "midi": 76,
        "time": 24,
        "duration": 0.5,
        "velocity": 0.71,
        "hand": "right"
      },
      {
        "midi": 61,
        "time": 24.5,
        "duration": 0.5,
        "velocity": 0.48,
        "hand": "right"
      },
      {
        "midi": 64,
        "time": 24.5,
        "duration": 0.5,
        "velocity": 0.48,
        "hand": "right"
      },
      {
        "midi": 67,
        "time": 24.5,
        "duration": 0.5,
        "velocity": 0.48,
        "hand": "right"
      },
      {
        "midi": 70,
        "time": 24.5,
        "duration": 0.5,
        "velocity": 0.71,
        "hand": "right"
      },
      {
        "midi": 58,
        "time": 25,
        "duration": 0.5,
        "velocity": 0.48,
        "hand": "left"
      },
      {
        "midi": 61,
        "time": 25,
        "duration": 0.5,
        "velocity": 0.48,
        "hand": "right"
      },
      {
        "midi": 64,
        "time": 25,
        "duration": 0.5,
        "velocity": 0.48,
        "hand": "right"
      },
      {
        "midi": 73,
        "time": 25,
        "duration": 1,
        "velocity": 0.71,
        "hand": "right"
      },
      {
        "midi": 41,
        "time": 25.5,
        "duration": 0.5,
        "velocity": 0.48,
        "hand": "left"
      },
      {
        "midi": 60,
        "time": 26,
        "duration": 0.5,
        "velocity": 0.48,
        "hand": "right"
      },
      {
        "midi": 65,
        "time": 26,
        "duration": 0.5,
        "velocity": 0.48,
        "hand": "right"
      },
      {
        "midi": 68,
        "time": 26,
        "duration": 0.5,
        "velocity": 0.48,
        "hand": "right"
      },
      {
        "midi": 72,
        "time": 26,
        "duration": 0.5,
        "velocity": 0.71,
        "hand": "right"
      },
      {
        "midi": 56,
        "time": 26.5,
        "duration": 0.5,
        "velocity": 0.48,
        "hand": "left"
      },
      {
        "midi": 60,
        "time": 26.5,
        "duration": 0.5,
        "velocity": 0.48,
        "hand": "right"
      },
      {
        "midi": 65,
        "time": 26.5,
        "duration": 0.5,
        "velocity": 0.48,
        "hand": "right"
      },
      {
        "midi": 77,
        "time": 26.5,
        "duration": 0.5,
        "velocity": 0.71,
        "hand": "right"
      },
      {
        "midi": 53,
        "time": 27,
        "duration": 0.5,
        "velocity": 0.48,
        "hand": "left"
      },
      {
        "midi": 76,
        "time": 27,
        "duration": 0.5,
        "velocity": 0.71,
        "hand": "right"
      },
      {
        "midi": 61,
        "time": 27.5,
        "duration": 0.5,
        "velocity": 0.48,
        "hand": "right"
      },
      {
        "midi": 64,
        "time": 27.5,
        "duration": 0.5,
        "velocity": 0.48,
        "hand": "right"
      },
      {
        "midi": 67,
        "time": 27.5,
        "duration": 0.5,
        "velocity": 0.48,
        "hand": "right"
      },
      {
        "midi": 70,
        "time": 27.5,
        "duration": 0.5,
        "velocity": 0.71,
        "hand": "right"
      },
      {
        "midi": 58,
        "time": 28,
        "duration": 0.5,
        "velocity": 0.48,
        "hand": "left"
      },
      {
        "midi": 61,
        "time": 28,
        "duration": 0.5,
        "velocity": 0.48,
        "hand": "right"
      },
      {
        "midi": 64,
        "time": 28,
        "duration": 0.5,
        "velocity": 0.48,
        "hand": "right"
      },
      {
        "midi": 73,
        "time": 28,
        "duration": 0.5,
        "velocity": 0.71,
        "hand": "right"
      },
      {
        "midi": 53,
        "time": 28.5,
        "duration": 0.5,
        "velocity": 0.48,
        "hand": "left"
      },
      {
        "midi": 60,
        "time": 29,
        "duration": 0.5,
        "velocity": 0.48,
        "hand": "right"
      },
      {
        "midi": 65,
        "time": 29,
        "duration": 0.5,
        "velocity": 0.48,
        "hand": "right"
      },
      {
        "midi": 68,
        "time": 29,
        "duration": 0.5,
        "velocity": 0.48,
        "hand": "right"
      },
      {
        "midi": 72,
        "time": 29,
        "duration": 0.25,
        "velocity": 0.71,
        "hand": "right"
      },
      {
        "midi": 73,
        "time": 29.25,
        "duration": 0.25,
        "velocity": 0.71,
        "hand": "right"
      },
      {
        "midi": 56,
        "time": 29.5,
        "duration": 0.5,
        "velocity": 0.48,
        "hand": "left"
      },
      {
        "midi": 60,
        "time": 29.5,
        "duration": 0.5,
        "velocity": 0.48,
        "hand": "right"
      },
      {
        "midi": 65,
        "time": 29.5,
        "duration": 0.5,
        "velocity": 0.48,
        "hand": "right"
      },
      {
        "midi": 72,
        "time": 29.5,
        "duration": 0.25,
        "velocity": 0.71,
        "hand": "right"
      },
      {
        "midi": 73,
        "time": 29.75,
        "duration": 0.25,
        "velocity": 0.71,
        "hand": "right"
      },
      {
        "midi": 51,
        "time": 30,
        "duration": 0.5,
        "velocity": 0.48,
        "hand": "left"
      },
      {
        "midi": 75,
        "time": 30,
        "duration": 0.5,
        "velocity": 0.71,
        "hand": "right"
      },
      {
        "midi": 60,
        "time": 30.5,
        "duration": 0.5,
        "velocity": 0.48,
        "hand": "right"
      },
      {
        "midi": 68,
        "time": 30.5,
        "duration": 0.5,
        "velocity": 0.48,
        "hand": "right"
      },
      {
        "midi": 75,
        "time": 30.5,
        "duration": 0.5,
        "velocity": 0.71,
        "hand": "right"
      },
      {
        "midi": 51,
        "time": 31,
        "duration": 0.5,
        "velocity": 0.48,
        "hand": "left"
      },
      {
        "midi": 75,
        "time": 31,
        "duration": 0.5,
        "velocity": 0.71,
        "hand": "right"
      },
      {
        "midi": 39,
        "time": 31.5,
        "duration": 0.5,
        "velocity": 0.48,
        "hand": "left"
      },
      {
        "midi": 75,
        "time": 31.5,
        "duration": 0.5,
        "velocity": 0.71,
        "hand": "right"
      },
      {
        "midi": 61,
        "time": 32,
        "duration": 0.5,
        "velocity": 0.48,
        "hand": "right"
      },
      {
        "midi": 63,
        "time": 32,
        "duration": 0.5,
        "velocity": 0.48,
        "hand": "right"
      },
      {
        "midi": 67,
        "time": 32,
        "duration": 0.5,
        "velocity": 0.48,
        "hand": "right"
      },
      {
        "midi": 73,
        "time": 32,
        "duration": 0.25,
        "velocity": 0.71,
        "hand": "right"
      },
      {
        "midi": 72,
        "time": 32.25,
        "duration": 0.25,
        "velocity": 0.71,
        "hand": "right"
      },
      {
        "midi": 55,
        "time": 32.5,
        "duration": 0.5,
        "velocity": 0.48,
        "hand": "left"
      },
      {
        "midi": 61,
        "time": 32.5,
        "duration": 0.5,
        "velocity": 0.48,
        "hand": "right"
      },
      {
        "midi": 63,
        "time": 32.5,
        "duration": 0.5,
        "velocity": 0.48,
        "hand": "right"
      },
      {
        "midi": 70,
        "time": 32.5,
        "duration": 0.25,
        "velocity": 0.71,
        "hand": "right"
      },
      {
        "midi": 72,
        "time": 32.75,
        "duration": 0.25,
        "velocity": 0.71,
        "hand": "right"
      },
      {
        "midi": 44,
        "time": 33,
        "duration": 0.5,
        "velocity": 0.48,
        "hand": "left"
      },
      {
        "midi": 68,
        "time": 33,
        "duration": 0.5,
        "velocity": 0.71,
        "hand": "right"
      },
      {
        "midi": 56,
        "time": 33.5,
        "duration": 0.5,
        "velocity": 0.48,
        "hand": "left"
      },
      {
        "midi": 60,
        "time": 33.5,
        "duration": 0.5,
        "velocity": 0.48,
        "hand": "right"
      },
      {
        "midi": 63,
        "time": 33.5,
        "duration": 0.5,
        "velocity": 0.48,
        "hand": "right"
      },
      {
        "midi": 51,
        "time": 34,
        "duration": 0.5,
        "velocity": 0.48,
        "hand": "left"
      },
      {
        "midi": 56,
        "time": 34,
        "duration": 0.5,
        "velocity": 0.48,
        "hand": "left"
      },
      {
        "midi": 60,
        "time": 34,
        "duration": 0.5,
        "velocity": 0.48,
        "hand": "right"
      },
      {
        "midi": 56,
        "time": 34.5,
        "duration": 0.5,
        "velocity": 0.48,
        "hand": "left"
      },
      {
        "midi": 60,
        "time": 34.5,
        "duration": 0.5,
        "velocity": 0.48,
        "hand": "right"
      },
      {
        "midi": 65,
        "time": 34.5,
        "duration": 0.5,
        "velocity": 0.48,
        "hand": "right"
      },
      {
        "midi": 56,
        "time": 35,
        "duration": 0.5,
        "velocity": 0.48,
        "hand": "left"
      },
      {
        "midi": 60,
        "time": 35,
        "duration": 0.5,
        "velocity": 0.48,
        "hand": "right"
      },
      {
        "midi": 63,
        "time": 35,
        "duration": 0.5,
        "velocity": 0.48,
        "hand": "right"
      },
      {
        "midi": 51,
        "time": 35.5,
        "duration": 0.5,
        "velocity": 0.48,
        "hand": "left"
      },
      {
        "midi": 56,
        "time": 35.5,
        "duration": 0.5,
        "velocity": 0.48,
        "hand": "left"
      },
      {
        "midi": 60,
        "time": 35.5,
        "duration": 0.5,
        "velocity": 0.48,
        "hand": "right"
      },
      {
        "midi": 32,
        "time": 36,
        "duration": 0.5,
        "velocity": 0.48,
        "hand": "left"
      },
      {
        "midi": 63,
        "time": 36.5,
        "duration": 0.5,
        "velocity": 0.48,
        "hand": "right"
      },
      {
        "midi": 68,
        "time": 36.5,
        "duration": 0.5,
        "velocity": 0.48,
        "hand": "right"
      },
      {
        "midi": 72,
        "time": 36.5,
        "duration": 0.5,
        "velocity": 0.48,
        "hand": "right"
      },
      {
        "midi": 75,
        "time": 36.5,
        "duration": 0.5,
        "velocity": 0.71,
        "hand": "right"
      },
      {
        "midi": 60,
        "time": 37,
        "duration": 0.5,
        "velocity": 0.48,
        "hand": "right"
      },
      {
        "midi": 63,
        "time": 37,
        "duration": 0.5,
        "velocity": 0.48,
        "hand": "right"
      },
      {
        "midi": 68,
        "time": 37,
        "duration": 0.5,
        "velocity": 0.48,
        "hand": "right"
      },
      {
        "midi": 80,
        "time": 37,
        "duration": 0.5,
        "velocity": 0.71,
        "hand": "right"
      },
      {
        "midi": 56,
        "time": 37.5,
        "duration": 0.5,
        "velocity": 0.48,
        "hand": "left"
      },
      {
        "midi": 79,
        "time": 37.5,
        "duration": 0.5,
        "velocity": 0.71,
        "hand": "right"
      },
      {
        "midi": 64,
        "time": 38,
        "duration": 0.5,
        "velocity": 0.48,
        "hand": "right"
      },
      {
        "midi": 67,
        "time": 38,
        "duration": 0.5,
        "velocity": 0.48,
        "hand": "right"
      },
      {
        "midi": 70,
        "time": 38,
        "duration": 0.5,
        "velocity": 0.48,
        "hand": "right"
      },
      {
        "midi": 73,
        "time": 38,
        "duration": 0.5,
        "velocity": 0.71,
        "hand": "right"
      },
      {
        "midi": 61,
        "time": 38.5,
        "duration": 0.5,
        "velocity": 0.48,
        "hand": "right"
      },
      {
        "midi": 64,
        "time": 38.5,
        "duration": 0.5,
        "velocity": 0.48,
        "hand": "right"
      },
      {
        "midi": 67,
        "time": 38.5,
        "duration": 0.5,
        "velocity": 0.48,
        "hand": "right"
      },
      {
        "midi": 76,
        "time": 38.5,
        "duration": 1,
        "velocity": 0.71,
        "hand": "right"
      },
      {
        "midi": 44,
        "time": 39,
        "duration": 0.5,
        "velocity": 0.48,
        "hand": "left"
      },
      {
        "midi": 63,
        "time": 39.5,
        "duration": 0.5,
        "velocity": 0.48,
        "hand": "right"
      },
      {
        "midi": 68,
        "time": 39.5,
        "duration": 0.5,
        "velocity": 0.48,
        "hand": "right"
      },
      {
        "midi": 72,
        "time": 39.5,
        "duration": 0.5,
        "velocity": 0.48,
        "hand": "right"
      },
      {
        "midi": 75,
        "time": 39.5,
        "duration": 0.5,
        "velocity": 0.71,
        "hand": "right"
      },
      {
        "midi": 60,
        "time": 40,
        "duration": 0.5,
        "velocity": 0.48,
        "hand": "right"
      },
      {
        "midi": 63,
        "time": 40,
        "duration": 0.5,
        "velocity": 0.48,
        "hand": "right"
      },
      {
        "midi": 68,
        "time": 40,
        "duration": 0.5,
        "velocity": 0.48,
        "hand": "right"
      },
      {
        "midi": 80,
        "time": 40,
        "duration": 0.5,
        "velocity": 0.71,
        "hand": "right"
      },
      {
        "midi": 56,
        "time": 40.5,
        "duration": 0.5,
        "velocity": 0.48,
        "hand": "left"
      },
      {
        "midi": 79,
        "time": 40.5,
        "duration": 0.5,
        "velocity": 0.71,
        "hand": "right"
      },
      {
        "midi": 64,
        "time": 41,
        "duration": 0.5,
        "velocity": 0.48,
        "hand": "right"
      },
      {
        "midi": 67,
        "time": 41,
        "duration": 0.5,
        "velocity": 0.48,
        "hand": "right"
      },
      {
        "midi": 70,
        "time": 41,
        "duration": 0.5,
        "velocity": 0.48,
        "hand": "right"
      },
      {
        "midi": 73,
        "time": 41,
        "duration": 0.5,
        "velocity": 0.71,
        "hand": "right"
      },
      {
        "midi": 58,
        "time": 41.5,
        "duration": 0.5,
        "velocity": 0.48,
        "hand": "left"
      },
      {
        "midi": 61,
        "time": 41.5,
        "duration": 0.5,
        "velocity": 0.48,
        "hand": "right"
      },
      {
        "midi": 67,
        "time": 41.5,
        "duration": 0.5,
        "velocity": 0.48,
        "hand": "right"
      },
      {
        "midi": 76,
        "time": 41.5,
        "duration": 0.5,
        "velocity": 0.71,
        "hand": "right"
      },
      {
        "midi": 44,
        "time": 42,
        "duration": 0.5,
        "velocity": 0.48,
        "hand": "left"
      },
      {
        "midi": 63,
        "time": 42.5,
        "duration": 0.5,
        "velocity": 0.48,
        "hand": "right"
      },
      {
        "midi": 68,
        "time": 42.5,
        "duration": 0.5,
        "velocity": 0.48,
        "hand": "right"
      },
      {
        "midi": 72,
        "time": 42.5,
        "duration": 0.5,
        "velocity": 0.48,
        "hand": "right"
      },
      {
        "midi": 75,
        "time": 42.5,
        "duration": 0.25,
        "velocity": 0.71,
        "hand": "right"
      },
      {
        "midi": 77,
        "time": 42.75,
        "duration": 0.25,
        "velocity": 0.71,
        "hand": "right"
      },
      {
        "midi": 60,
        "time": 43,
        "duration": 0.5,
        "velocity": 0.48,
        "hand": "right"
      },
      {
        "midi": 63,
        "time": 43,
        "duration": 0.5,
        "velocity": 0.48,
        "hand": "right"
      },
      {
        "midi": 68,
        "time": 43,
        "duration": 0.5,
        "velocity": 0.48,
        "hand": "right"
      },
      {
        "midi": 75,
        "time": 43,
        "duration": 0.25,
        "velocity": 0.71,
        "hand": "right"
      },
      {
        "midi": 77,
        "time": 43.25,
        "duration": 0.25,
        "velocity": 0.71,
        "hand": "right"
      },
      {
        "midi": 39,
        "time": 43.5,
        "duration": 0.5,
        "velocity": 0.48,
        "hand": "left"
      },
      {
        "midi": 78,
        "time": 43.5,
        "duration": 0.5,
        "velocity": 0.71,
        "hand": "right"
      },
      {
        "midi": 63,
        "time": 44,
        "duration": 0.5,
        "velocity": 0.48,
        "hand": "right"
      },
      {
        "midi": 66,
        "time": 44,
        "duration": 0.5,
        "velocity": 0.48,
        "hand": "right"
      },
      {
        "midi": 70,
        "time": 44,
        "duration": 0.5,
        "velocity": 0.48,
        "hand": "right"
      },
      {
        "midi": 78,
        "time": 44,
        "duration": 0.5,
        "velocity": 0.71,
        "hand": "right"
      },
      {
        "midi": 58,
        "time": 44.5,
        "duration": 0.5,
        "velocity": 0.48,
        "hand": "left"
      },
      {
        "midi": 63,
        "time": 44.5,
        "duration": 0.5,
        "velocity": 0.48,
        "hand": "right"
      },
      {
        "midi": 66,
        "time": 44.5,
        "duration": 0.5,
        "velocity": 0.48,
        "hand": "right"
      },
      {
        "midi": 78,
        "time": 44.5,
        "duration": 0.5,
        "velocity": 0.71,
        "hand": "right"
      },
      {
        "midi": 41,
        "time": 45,
        "duration": 0.5,
        "velocity": 0.48,
        "hand": "left"
      },
      {
        "midi": 78,
        "time": 45,
        "duration": 0.5,
        "velocity": 0.71,
        "hand": "right"
      },
      {
        "midi": 63,
        "time": 45.5,
        "duration": 0.5,
        "velocity": 0.48,
        "hand": "right"
      },
      {
        "midi": 65,
        "time": 45.5,
        "duration": 0.5,
        "velocity": 0.48,
        "hand": "right"
      },
      {
        "midi": 69,
        "time": 45.5,
        "duration": 0.5,
        "velocity": 0.48,
        "hand": "right"
      },
      {
        "midi": 77,
        "time": 45.5,
        "duration": 0.25,
        "velocity": 0.71,
        "hand": "right"
      },
      {
        "midi": 72,
        "time": 45.75,
        "duration": 0.25,
        "velocity": 0.71,
        "hand": "right"
      },
      {
        "midi": 57,
        "time": 46,
        "duration": 0.5,
        "velocity": 0.48,
        "hand": "left"
      },
      {
        "midi": 63,
        "time": 46,
        "duration": 0.5,
        "velocity": 0.48,
        "hand": "right"
      },
      {
        "midi": 65,
        "time": 46,
        "duration": 0.5,
        "velocity": 0.48,
        "hand": "right"
      },
      {
        "midi": 75,
        "time": 46,
        "duration": 0.25,
        "velocity": 0.71,
        "hand": "right"
      },
      {
        "midi": 73,
        "time": 46.25,
        "duration": 0.25,
        "velocity": 0.71,
        "hand": "right"
      },
      {
        "midi": 46,
        "time": 46.5,
        "duration": 0.5,
        "velocity": 0.48,
        "hand": "left"
      },
      {
        "midi": 70,
        "time": 46.5,
        "duration": 0.5,
        "velocity": 0.71,
        "hand": "right"
      },
      {
        "midi": 58,
        "time": 47,
        "duration": 0.5,
        "velocity": 0.48,
        "hand": "left"
      },
      {
        "midi": 61,
        "time": 47,
        "duration": 0.5,
        "velocity": 0.48,
        "hand": "right"
      },
      {
        "midi": 65,
        "time": 47,
        "duration": 0.5,
        "velocity": 0.48,
        "hand": "right"
      },
      {
        "midi": 53,
        "time": 47.5,
        "duration": 0.5,
        "velocity": 0.48,
        "hand": "left"
      },
      {
        "midi": 58,
        "time": 47.5,
        "duration": 0.5,
        "velocity": 0.48,
        "hand": "left"
      },
      {
        "midi": 61,
        "time": 47.5,
        "duration": 0.5,
        "velocity": 0.48,
        "hand": "right"
      },
      {
        "midi": 42,
        "time": 48,
        "duration": 0.5,
        "velocity": 0.48,
        "hand": "left"
      },
      {
        "midi": 58,
        "time": 48.5,
        "duration": 0.5,
        "velocity": 0.48,
        "hand": "left"
      },
      {
        "midi": 61,
        "time": 48.5,
        "duration": 0.5,
        "velocity": 0.48,
        "hand": "right"
      },
      {
        "midi": 66,
        "time": 48.5,
        "duration": 0.5,
        "velocity": 0.48,
        "hand": "right"
      },
      {
        "midi": 73,
        "time": 48.5,
        "duration": 0.25,
        "velocity": 0.71,
        "hand": "right"
      },
      {
        "midi": 75,
        "time": 48.75,
        "duration": 0.25,
        "velocity": 0.71,
        "hand": "right"
      },
      {
        "midi": 54,
        "time": 49,
        "duration": 0.5,
        "velocity": 0.48,
        "hand": "left"
      },
      {
        "midi": 58,
        "time": 49,
        "duration": 0.5,
        "velocity": 0.48,
        "hand": "left"
      },
      {
        "midi": 61,
        "time": 49,
        "duration": 0.5,
        "velocity": 0.48,
        "hand": "right"
      },
      {
        "midi": 73,
        "time": 49,
        "duration": 0.25,
        "velocity": 0.71,
        "hand": "right"
      },
      {
        "midi": 75,
        "time": 49.25,
        "duration": 0.25,
        "velocity": 0.71,
        "hand": "right"
      },
      {
        "midi": 37,
        "time": 49.5,
        "duration": 0.5,
        "velocity": 0.48,
        "hand": "left"
      },
      {
        "midi": 77,
        "time": 49.5,
        "duration": 0.5,
        "velocity": 0.71,
        "hand": "right"
      },
      {
        "midi": 56,
        "time": 50,
        "duration": 0.5,
        "velocity": 0.48,
        "hand": "left"
      },
      {
        "midi": 61,
        "time": 50,
        "duration": 0.5,
        "velocity": 0.48,
        "hand": "right"
      },
      {
        "midi": 65,
        "time": 50,
        "duration": 0.5,
        "velocity": 0.48,
        "hand": "right"
      },
      {
        "midi": 77,
        "time": 50,
        "duration": 0.5,
        "velocity": 0.71,
        "hand": "right"
      },
      {
        "midi": 53,
        "time": 50.5,
        "duration": 0.5,
        "velocity": 0.48,
        "hand": "left"
      },
      {
        "midi": 56,
        "time": 50.5,
        "duration": 0.5,
        "velocity": 0.48,
        "hand": "left"
      },
      {
        "midi": 61,
        "time": 50.5,
        "duration": 0.5,
        "velocity": 0.48,
        "hand": "right"
      },
      {
        "midi": 77,
        "time": 50.5,
        "duration": 0.5,
        "velocity": 0.71,
        "hand": "right"
      },
      {
        "midi": 39,
        "time": 51,
        "duration": 0.5,
        "velocity": 0.48,
        "hand": "left"
      },
      {
        "midi": 77,
        "time": 51,
        "duration": 0.5,
        "velocity": 0.71,
        "hand": "right"
      },
      {
        "midi": 58,
        "time": 51.5,
        "duration": 0.5,
        "velocity": 0.48,
        "hand": "left"
      },
      {
        "midi": 60,
        "time": 51.5,
        "duration": 0.5,
        "velocity": 0.48,
        "hand": "right"
      },
      {
        "midi": 66,
        "time": 51.5,
        "duration": 0.5,
        "velocity": 0.48,
        "hand": "right"
      },
      {
        "midi": 75,
        "time": 51.5,
        "duration": 0.25,
        "velocity": 0.71,
        "hand": "right"
      },
      {
        "midi": 70,
        "time": 51.75,
        "duration": 0.25,
        "velocity": 0.71,
        "hand": "right"
      },
      {
        "midi": 54,
        "time": 52,
        "duration": 0.5,
        "velocity": 0.48,
        "hand": "left"
      },
      {
        "midi": 58,
        "time": 52,
        "duration": 0.5,
        "velocity": 0.48,
        "hand": "left"
      },
      {
        "midi": 63,
        "time": 52,
        "duration": 0.5,
        "velocity": 0.48,
        "hand": "right"
      },
      {
        "midi": 73,
        "time": 52,
        "duration": 0.25,
        "velocity": 0.71,
        "hand": "right"
      },
      {
        "midi": 72,
        "time": 52.25,
        "duration": 0.25,
        "velocity": 0.71,
        "hand": "right"
      },
      {
        "midi": 41,
        "time": 52.5,
        "duration": 0.5,
        "velocity": 0.48,
        "hand": "left"
      },
      {
        "midi": 69,
        "time": 52.5,
        "duration": 0.5,
        "velocity": 0.71,
        "hand": "right"
      },
      {
        "midi": 60,
        "time": 53,
        "duration": 0.5,
        "velocity": 0.48,
        "hand": "right"
      },
      {
        "midi": 65,
        "time": 53,
        "duration": 0.5,
        "velocity": 0.48,
        "hand": "right"
      },
      {
        "midi": 69,
        "time": 53,
        "duration": 0.5,
        "velocity": 0.48,
        "hand": "right"
      },
      {
        "midi": 72,
        "time": 53,
        "duration": 0.5,
        "velocity": 0.71,
        "hand": "right"
      },
      {
        "midi": 57,
        "time": 53.5,
        "duration": 0.5,
        "velocity": 0.48,
        "hand": "left"
      },
      {
        "midi": 60,
        "time": 53.5,
        "duration": 0.5,
        "velocity": 0.48,
        "hand": "right"
      },
      {
        "midi": 65,
        "time": 53.5,
        "duration": 0.5,
        "velocity": 0.48,
        "hand": "right"
      },
      {
        "midi": 77,
        "time": 53.5,
        "duration": 0.5,
        "velocity": 0.71,
        "hand": "right"
      },
      {
        "midi": 53,
        "time": 54,
        "duration": 0.5,
        "velocity": 0.48,
        "hand": "left"
      },
      {
        "midi": 76,
        "time": 54,
        "duration": 0.5,
        "velocity": 0.71,
        "hand": "right"
      },
      {
        "midi": 61,
        "time": 54.5,
        "duration": 0.5,
        "velocity": 0.48,
        "hand": "right"
      },
      {
        "midi": 64,
        "time": 54.5,
        "duration": 0.5,
        "velocity": 0.48,
        "hand": "right"
      },
      {
        "midi": 67,
        "time": 54.5,
        "duration": 0.5,
        "velocity": 0.48,
        "hand": "right"
      },
      {
        "midi": 70,
        "time": 54.5,
        "duration": 0.5,
        "velocity": 0.71,
        "hand": "right"
      },
      {
        "midi": 58,
        "time": 55,
        "duration": 0.5,
        "velocity": 0.48,
        "hand": "left"
      },
      {
        "midi": 61,
        "time": 55,
        "duration": 0.5,
        "velocity": 0.48,
        "hand": "right"
      },
      {
        "midi": 64,
        "time": 55,
        "duration": 0.5,
        "velocity": 0.48,
        "hand": "right"
      },
      {
        "midi": 73,
        "time": 55,
        "duration": 1,
        "velocity": 0.71,
        "hand": "right"
      },
      {
        "midi": 41,
        "time": 55.5,
        "duration": 0.5,
        "velocity": 0.48,
        "hand": "left"
      },
      {
        "midi": 60,
        "time": 56,
        "duration": 0.5,
        "velocity": 0.48,
        "hand": "right"
      },
      {
        "midi": 65,
        "time": 56,
        "duration": 0.5,
        "velocity": 0.48,
        "hand": "right"
      },
      {
        "midi": 69,
        "time": 56,
        "duration": 0.5,
        "velocity": 0.48,
        "hand": "right"
      },
      {
        "midi": 72,
        "time": 56,
        "duration": 0.5,
        "velocity": 0.71,
        "hand": "right"
      },
      {
        "midi": 57,
        "time": 56.5,
        "duration": 0.5,
        "velocity": 0.48,
        "hand": "left"
      },
      {
        "midi": 60,
        "time": 56.5,
        "duration": 0.5,
        "velocity": 0.48,
        "hand": "right"
      },
      {
        "midi": 65,
        "time": 56.5,
        "duration": 0.5,
        "velocity": 0.48,
        "hand": "right"
      },
      {
        "midi": 77,
        "time": 56.5,
        "duration": 0.5,
        "velocity": 0.71,
        "hand": "right"
      },
      {
        "midi": 53,
        "time": 57,
        "duration": 0.5,
        "velocity": 0.48,
        "hand": "left"
      },
      {
        "midi": 76,
        "time": 57,
        "duration": 0.5,
        "velocity": 0.71,
        "hand": "right"
      },
      {
        "midi": 61,
        "time": 57.5,
        "duration": 0.5,
        "velocity": 0.48,
        "hand": "right"
      },
      {
        "midi": 64,
        "time": 57.5,
        "duration": 0.5,
        "velocity": 0.48,
        "hand": "right"
      },
      {
        "midi": 67,
        "time": 57.5,
        "duration": 0.5,
        "velocity": 0.48,
        "hand": "right"
      },
      {
        "midi": 70,
        "time": 57.5,
        "duration": 0.5,
        "velocity": 0.71,
        "hand": "right"
      },
      {
        "midi": 58,
        "time": 58,
        "duration": 0.5,
        "velocity": 0.48,
        "hand": "left"
      },
      {
        "midi": 61,
        "time": 58,
        "duration": 0.5,
        "velocity": 0.48,
        "hand": "right"
      },
      {
        "midi": 64,
        "time": 58,
        "duration": 0.5,
        "velocity": 0.48,
        "hand": "right"
      },
      {
        "midi": 73,
        "time": 58,
        "duration": 0.5,
        "velocity": 0.71,
        "hand": "right"
      },
      {
        "midi": 41,
        "time": 58.5,
        "duration": 0.5,
        "velocity": 0.48,
        "hand": "left"
      },
      {
        "midi": 60,
        "time": 59,
        "duration": 0.5,
        "velocity": 0.48,
        "hand": "right"
      },
      {
        "midi": 63,
        "time": 59,
        "duration": 0.5,
        "velocity": 0.48,
        "hand": "right"
      },
      {
        "midi": 66,
        "time": 59,
        "duration": 0.5,
        "velocity": 0.48,
        "hand": "right"
      },
      {
        "midi": 72,
        "time": 59,
        "duration": 0.25,
        "velocity": 0.71,
        "hand": "right"
      },
      {
        "midi": 73,
        "time": 59.25,
        "duration": 0.25,
        "velocity": 0.71,
        "hand": "right"
      },
      {
        "midi": 54,
        "time": 59.5,
        "duration": 0.5,
        "velocity": 0.48,
        "hand": "left"
      },
      {
        "midi": 58,
        "time": 59.5,
        "duration": 0.5,
        "velocity": 0.48,
        "hand": "left"
      },
      {
        "midi": 63,
        "time": 59.5,
        "duration": 0.5,
        "velocity": 0.48,
        "hand": "right"
      },
      {
        "midi": 72,
        "time": 59.5,
        "duration": 0.25,
        "velocity": 0.71,
        "hand": "right"
      },
      {
        "midi": 73,
        "time": 59.75,
        "duration": 0.25,
        "velocity": 0.71,
        "hand": "right"
      },
      {
        "midi": 53,
        "time": 60,
        "duration": 0.5,
        "velocity": 0.48,
        "hand": "left"
      },
      {
        "midi": 75,
        "time": 60,
        "duration": 0.5,
        "velocity": 0.71,
        "hand": "right"
      },
      {
        "midi": 63,
        "time": 60.5,
        "duration": 0.5,
        "velocity": 0.48,
        "hand": "right"
      },
      {
        "midi": 66,
        "time": 60.5,
        "duration": 0.5,
        "velocity": 0.48,
        "hand": "right"
      },
      {
        "midi": 70,
        "time": 60.5,
        "duration": 0.5,
        "velocity": 0.48,
        "hand": "right"
      },
      {
        "midi": 75,
        "time": 60.5,
        "duration": 0.5,
        "velocity": 0.71,
        "hand": "right"
      },
      {
        "midi": 60,
        "time": 61,
        "duration": 0.5,
        "velocity": 0.48,
        "hand": "right"
      },
      {
        "midi": 63,
        "time": 61,
        "duration": 0.5,
        "velocity": 0.48,
        "hand": "right"
      },
      {
        "midi": 66,
        "time": 61,
        "duration": 0.5,
        "velocity": 0.48,
        "hand": "right"
      },
      {
        "midi": 75,
        "time": 61,
        "duration": 0.5,
        "velocity": 0.71,
        "hand": "right"
      },
      {
        "midi": 41,
        "time": 61.5,
        "duration": 0.5,
        "velocity": 0.48,
        "hand": "left"
      },
      {
        "midi": 75,
        "time": 61.5,
        "duration": 0.5,
        "velocity": 0.71,
        "hand": "right"
      },
      {
        "midi": 63,
        "time": 62,
        "duration": 0.5,
        "velocity": 0.48,
        "hand": "right"
      },
      {
        "midi": 69,
        "time": 62,
        "duration": 0.5,
        "velocity": 0.48,
        "hand": "right"
      },
      {
        "midi": 77,
        "time": 62,
        "duration": 0.25,
        "velocity": 0.71,
        "hand": "right"
      },
      {
        "midi": 72,
        "time": 62.25,
        "duration": 0.25,
        "velocity": 0.71,
        "hand": "right"
      },
      {
        "midi": 57,
        "time": 62.5,
        "duration": 0.5,
        "velocity": 0.48,
        "hand": "left"
      },
      {
        "midi": 63,
        "time": 62.5,
        "duration": 0.5,
        "velocity": 0.48,
        "hand": "right"
      },
      {
        "midi": 65,
        "time": 62.5,
        "duration": 0.5,
        "velocity": 0.48,
        "hand": "right"
      },
      {
        "midi": 75,
        "time": 62.5,
        "duration": 0.25,
        "velocity": 0.71,
        "hand": "right"
      },
      {
        "midi": 73,
        "time": 62.75,
        "duration": 0.25,
        "velocity": 0.71,
        "hand": "right"
      },
      {
        "midi": 46,
        "time": 63,
        "duration": 0.5,
        "velocity": 0.48,
        "hand": "left"
      },
      {
        "midi": 70,
        "time": 63,
        "duration": 1.5,
        "velocity": 0.71,
        "hand": "right"
      },
      {
        "midi": 58,
        "time": 63.5,
        "duration": 0.5,
        "velocity": 0.48,
        "hand": "left"
      },
      {
        "midi": 61,
        "time": 63.5,
        "duration": 0.5,
        "velocity": 0.48,
        "hand": "right"
      },
      {
        "midi": 65,
        "time": 63.5,
        "duration": 0.5,
        "velocity": 0.48,
        "hand": "right"
      },
      {
        "midi": 53,
        "time": 64,
        "duration": 0.5,
        "velocity": 0.48,
        "hand": "left"
      },
      {
        "midi": 58,
        "time": 64,
        "duration": 0.5,
        "velocity": 0.48,
        "hand": "left"
      },
      {
        "midi": 61,
        "time": 64,
        "duration": 0.5,
        "velocity": 0.48,
        "hand": "right"
      },
      {
        "midi": 48,
        "time": 64.5,
        "duration": 0.5,
        "velocity": 0.48,
        "hand": "left"
      },
      {
        "midi": 67,
        "time": 64.5,
        "duration": 1,
        "velocity": 0.71,
        "hand": "right"
      },
      {
        "midi": 58,
        "time": 65,
        "duration": 0.5,
        "velocity": 0.48,
        "hand": "left"
      },
      {
        "midi": 60,
        "time": 65,
        "duration": 0.5,
        "velocity": 0.48,
        "hand": "right"
      },
      {
        "midi": 64,
        "time": 65,
        "duration": 0.5,
        "velocity": 0.48,
        "hand": "right"
      },
      {
        "midi": 55,
        "time": 65.5,
        "duration": 0.5,
        "velocity": 0.48,
        "hand": "left"
      },
      {
        "midi": 58,
        "time": 65.5,
        "duration": 0.5,
        "velocity": 0.48,
        "hand": "left"
      },
      {
        "midi": 60,
        "time": 65.5,
        "duration": 0.5,
        "velocity": 0.48,
        "hand": "right"
      },
      {
        "midi": 41,
        "time": 66,
        "duration": 0.5,
        "velocity": 0.48,
        "hand": "left"
      },
      {
        "midi": 60,
        "time": 66.5,
        "duration": 0.5,
        "velocity": 0.48,
        "hand": "right"
      },
      {
        "midi": 65,
        "time": 66.5,
        "duration": 0.5,
        "velocity": 0.48,
        "hand": "right"
      },
      {
        "midi": 68,
        "time": 66.5,
        "duration": 0.5,
        "velocity": 0.48,
        "hand": "right"
      },
      {
        "midi": 72,
        "time": 66.5,
        "duration": 0.5,
        "velocity": 0.71,
        "hand": "right"
      },
      {
        "midi": 56,
        "time": 67,
        "duration": 0.5,
        "velocity": 0.48,
        "hand": "left"
      },
      {
        "midi": 60,
        "time": 67,
        "duration": 0.5,
        "velocity": 0.48,
        "hand": "right"
      },
      {
        "midi": 65,
        "time": 67,
        "duration": 0.5,
        "velocity": 0.48,
        "hand": "right"
      },
      {
        "midi": 77,
        "time": 67,
        "duration": 0.5,
        "velocity": 0.71,
        "hand": "right"
      },
      {
        "midi": 53,
        "time": 67.5,
        "duration": 0.5,
        "velocity": 0.48,
        "hand": "left"
      },
      {
        "midi": 76,
        "time": 67.5,
        "duration": 0.5,
        "velocity": 0.71,
        "hand": "right"
      },
      {
        "midi": 61,
        "time": 68,
        "duration": 0.5,
        "velocity": 0.48,
        "hand": "right"
      },
      {
        "midi": 64,
        "time": 68,
        "duration": 0.5,
        "velocity": 0.48,
        "hand": "right"
      },
      {
        "midi": 67,
        "time": 68,
        "duration": 0.5,
        "velocity": 0.48,
        "hand": "right"
      },
      {
        "midi": 70,
        "time": 68,
        "duration": 0.5,
        "velocity": 0.71,
        "hand": "right"
      },
      {
        "midi": 58,
        "time": 68.5,
        "duration": 0.5,
        "velocity": 0.48,
        "hand": "left"
      },
      {
        "midi": 61,
        "time": 68.5,
        "duration": 0.5,
        "velocity": 0.48,
        "hand": "right"
      },
      {
        "midi": 64,
        "time": 68.5,
        "duration": 0.5,
        "velocity": 0.48,
        "hand": "right"
      },
      {
        "midi": 73,
        "time": 68.5,
        "duration": 1,
        "velocity": 0.71,
        "hand": "right"
      },
      {
        "midi": 41,
        "time": 69,
        "duration": 0.5,
        "velocity": 0.48,
        "hand": "left"
      },
      {
        "midi": 60,
        "time": 69.5,
        "duration": 0.5,
        "velocity": 0.48,
        "hand": "right"
      },
      {
        "midi": 65,
        "time": 69.5,
        "duration": 0.5,
        "velocity": 0.48,
        "hand": "right"
      },
      {
        "midi": 68,
        "time": 69.5,
        "duration": 0.5,
        "velocity": 0.48,
        "hand": "right"
      },
      {
        "midi": 72,
        "time": 69.5,
        "duration": 0.5,
        "velocity": 0.71,
        "hand": "right"
      },
      {
        "midi": 56,
        "time": 70,
        "duration": 0.5,
        "velocity": 0.48,
        "hand": "left"
      },
      {
        "midi": 60,
        "time": 70,
        "duration": 0.5,
        "velocity": 0.48,
        "hand": "right"
      },
      {
        "midi": 65,
        "time": 70,
        "duration": 0.5,
        "velocity": 0.48,
        "hand": "right"
      },
      {
        "midi": 77,
        "time": 70,
        "duration": 0.75,
        "velocity": 0.71,
        "hand": "right"
      },
      {
        "midi": 53,
        "time": 70.5,
        "duration": 0.5,
        "velocity": 0.48,
        "hand": "left"
      },
      {
        "midi": 76,
        "time": 70.75,
        "duration": 0.25,
        "velocity": 0.71,
        "hand": "right"
      },
      {
        "midi": 61,
        "time": 71,
        "duration": 0.5,
        "velocity": 0.48,
        "hand": "right"
      },
      {
        "midi": 64,
        "time": 71,
        "duration": 0.5,
        "velocity": 0.48,
        "hand": "right"
      },
      {
        "midi": 67,
        "time": 71,
        "duration": 0.5,
        "velocity": 0.48,
        "hand": "right"
      },
      {
        "midi": 70,
        "time": 71,
        "duration": 0.25,
        "velocity": 0.71,
        "hand": "right"
      },
      {
        "midi": 72,
        "time": 71.25,
        "duration": 0.25,
        "velocity": 0.71,
        "hand": "right"
      },
      {
        "midi": 58,
        "time": 71.5,
        "duration": 0.5,
        "velocity": 0.48,
        "hand": "left"
      },
      {
        "midi": 61,
        "time": 71.5,
        "duration": 0.5,
        "velocity": 0.48,
        "hand": "right"
      },
      {
        "midi": 64,
        "time": 71.5,
        "duration": 0.5,
        "velocity": 0.48,
        "hand": "right"
      },
      {
        "midi": 75,
        "time": 71.5,
        "duration": 0.25,
        "velocity": 0.71,
        "hand": "right"
      },
      {
        "midi": 73,
        "time": 71.75,
        "duration": 0.25,
        "velocity": 0.71,
        "hand": "right"
      },
      {
        "midi": 53,
        "time": 72,
        "duration": 0.5,
        "velocity": 0.48,
        "hand": "left"
      },
      {
        "midi": 56,
        "time": 72.5,
        "duration": 0.5,
        "velocity": 0.48,
        "hand": "left"
      },
      {
        "midi": 60,
        "time": 72.5,
        "duration": 0.5,
        "velocity": 0.48,
        "hand": "right"
      },
      {
        "midi": 68,
        "time": 72.5,
        "duration": 0.5,
        "velocity": 0.48,
        "hand": "right"
      },
      {
        "midi": 72,
        "time": 72.5,
        "duration": 0.25,
        "velocity": 0.71,
        "hand": "right"
      },
      {
        "midi": 73,
        "time": 72.75,
        "duration": 0.25,
        "velocity": 0.71,
        "hand": "right"
      },
      {
        "midi": 52,
        "time": 73,
        "duration": 0.5,
        "velocity": 0.48,
        "hand": "left"
      },
      {
        "midi": 72,
        "time": 73,
        "duration": 0.25,
        "velocity": 0.71,
        "hand": "right"
      },
      {
        "midi": 73,
        "time": 73.25,
        "duration": 0.25,
        "velocity": 0.71,
        "hand": "right"
      },
      {
        "midi": 51,
        "time": 73.5,
        "duration": 0.5,
        "velocity": 0.48,
        "hand": "left"
      },
      {
        "midi": 75,
        "time": 73.5,
        "duration": 0.5,
        "velocity": 0.71,
        "hand": "right"
      },
      {
        "midi": 60,
        "time": 74,
        "duration": 0.5,
        "velocity": 0.48,
        "hand": "right"
      },
      {
        "midi": 68,
        "time": 74,
        "duration": 0.5,
        "velocity": 0.48,
        "hand": "right"
      },
      {
        "midi": 75,
        "time": 74,
        "duration": 0.5,
        "velocity": 0.71,
        "hand": "right"
      },
      {
        "midi": 51,
        "time": 74.5,
        "duration": 0.5,
        "velocity": 0.48,
        "hand": "left"
      },
      {
        "midi": 75,
        "time": 74.5,
        "duration": 0.5,
        "velocity": 0.71,
        "hand": "right"
      },
      {
        "midi": 39,
        "time": 75,
        "duration": 0.5,
        "velocity": 0.48,
        "hand": "left"
      },
      {
        "midi": 75,
        "time": 75,
        "duration": 0.5,
        "velocity": 0.71,
        "hand": "right"
      },
      {
        "midi": 61,
        "time": 75.5,
        "duration": 0.5,
        "velocity": 0.48,
        "hand": "right"
      },
      {
        "midi": 67,
        "time": 75.5,
        "duration": 0.5,
        "velocity": 0.48,
        "hand": "right"
      },
      {
        "midi": 73,
        "time": 75.5,
        "duration": 0.25,
        "velocity": 0.71,
        "hand": "right"
      },
      {
        "midi": 72,
        "time": 75.75,
        "duration": 0.25,
        "velocity": 0.71,
        "hand": "right"
      },
      {
        "midi": 51,
        "time": 76,
        "duration": 0.5,
        "velocity": 0.48,
        "hand": "left"
      },
      {
        "midi": 55,
        "time": 76,
        "duration": 0.5,
        "velocity": 0.48,
        "hand": "left"
      },
      {
        "midi": 61,
        "time": 76,
        "duration": 0.5,
        "velocity": 0.48,
        "hand": "right"
      },
      {
        "midi": 70,
        "time": 76,
        "duration": 0.25,
        "velocity": 0.71,
        "hand": "right"
      },
      {
        "midi": 72,
        "time": 76.25,
        "duration": 0.25,
        "velocity": 0.71,
        "hand": "right"
      },
      {
        "midi": 44,
        "time": 76.5,
        "duration": 0.5,
        "velocity": 0.48,
        "hand": "left"
      },
      {
        "midi": 68,
        "time": 76.5,
        "duration": 0.5,
        "velocity": 0.71,
        "hand": "right"
      },
      {
        "midi": 56,
        "time": 77,
        "duration": 0.5,
        "velocity": 0.48,
        "hand": "left"
      },
      {
        "midi": 60,
        "time": 77,
        "duration": 0.5,
        "velocity": 0.48,
        "hand": "right"
      },
      {
        "midi": 63,
        "time": 77,
        "duration": 0.5,
        "velocity": 0.48,
        "hand": "right"
      },
      {
        "midi": 51,
        "time": 77.5,
        "duration": 0.5,
        "velocity": 0.48,
        "hand": "left"
      },
      {
        "midi": 56,
        "time": 77.5,
        "duration": 0.5,
        "velocity": 0.48,
        "hand": "left"
      },
      {
        "midi": 60,
        "time": 77.5,
        "duration": 0.5,
        "velocity": 0.48,
        "hand": "right"
      },
      {
        "midi": 44,
        "time": 78,
        "duration": 0.5,
        "velocity": 0.48,
        "hand": "left"
      },
      {
        "midi": 56,
        "time": 78.5,
        "duration": 0.5,
        "velocity": 0.48,
        "hand": "left"
      },
      {
        "midi": 60,
        "time": 78.5,
        "duration": 0.5,
        "velocity": 0.48,
        "hand": "right"
      },
      {
        "midi": 64,
        "time": 78.5,
        "duration": 0.5,
        "velocity": 0.48,
        "hand": "right"
      },
      {
        "midi": 52,
        "time": 79,
        "duration": 0.5,
        "velocity": 0.48,
        "hand": "left"
      },
      {
        "midi": 56,
        "time": 79,
        "duration": 0.5,
        "velocity": 0.48,
        "hand": "left"
      },
      {
        "midi": 60,
        "time": 79,
        "duration": 0.5,
        "velocity": 0.48,
        "hand": "right"
      },
      {
        "midi": 32,
        "time": 79.5,
        "duration": 0.5,
        "velocity": 0.48,
        "hand": "left"
      },
      {
        "midi": 63,
        "time": 80,
        "duration": 0.5,
        "velocity": 0.48,
        "hand": "right"
      },
      {
        "midi": 68,
        "time": 80,
        "duration": 0.5,
        "velocity": 0.48,
        "hand": "right"
      },
      {
        "midi": 72,
        "time": 80,
        "duration": 0.5,
        "velocity": 0.48,
        "hand": "right"
      },
      {
        "midi": 75,
        "time": 80,
        "duration": 0.5,
        "velocity": 0.71,
        "hand": "right"
      },
      {
        "midi": 60,
        "time": 80.5,
        "duration": 0.5,
        "velocity": 0.48,
        "hand": "right"
      },
      {
        "midi": 63,
        "time": 80.5,
        "duration": 0.5,
        "velocity": 0.48,
        "hand": "right"
      },
      {
        "midi": 68,
        "time": 80.5,
        "duration": 0.5,
        "velocity": 0.48,
        "hand": "right"
      },
      {
        "midi": 80,
        "time": 80.5,
        "duration": 0.5,
        "velocity": 0.71,
        "hand": "right"
      },
      {
        "midi": 56,
        "time": 81,
        "duration": 0.5,
        "velocity": 0.48,
        "hand": "left"
      },
      {
        "midi": 79,
        "time": 81,
        "duration": 0.5,
        "velocity": 0.71,
        "hand": "right"
      },
      {
        "midi": 64,
        "time": 81.5,
        "duration": 0.5,
        "velocity": 0.48,
        "hand": "right"
      },
      {
        "midi": 67,
        "time": 81.5,
        "duration": 0.5,
        "velocity": 0.48,
        "hand": "right"
      },
      {
        "midi": 70,
        "time": 81.5,
        "duration": 0.5,
        "velocity": 0.48,
        "hand": "right"
      },
      {
        "midi": 73,
        "time": 81.5,
        "duration": 0.5,
        "velocity": 0.71,
        "hand": "right"
      },
      {
        "midi": 61,
        "time": 82,
        "duration": 0.5,
        "velocity": 0.48,
        "hand": "right"
      },
      {
        "midi": 64,
        "time": 82,
        "duration": 0.5,
        "velocity": 0.48,
        "hand": "right"
      },
      {
        "midi": 67,
        "time": 82,
        "duration": 0.5,
        "velocity": 0.48,
        "hand": "right"
      },
      {
        "midi": 76,
        "time": 82,
        "duration": 1,
        "velocity": 0.71,
        "hand": "right"
      },
      {
        "midi": 44,
        "time": 82.5,
        "duration": 0.5,
        "velocity": 0.48,
        "hand": "left"
      },
      {
        "midi": 63,
        "time": 83,
        "duration": 0.5,
        "velocity": 0.48,
        "hand": "right"
      },
      {
        "midi": 68,
        "time": 83,
        "duration": 0.5,
        "velocity": 0.48,
        "hand": "right"
      },
      {
        "midi": 72,
        "time": 83,
        "duration": 0.5,
        "velocity": 0.48,
        "hand": "right"
      },
      {
        "midi": 75,
        "time": 83,
        "duration": 0.5,
        "velocity": 0.71,
        "hand": "right"
      },
      {
        "midi": 60,
        "time": 83.5,
        "duration": 0.5,
        "velocity": 0.48,
        "hand": "right"
      },
      {
        "midi": 63,
        "time": 83.5,
        "duration": 0.5,
        "velocity": 0.48,
        "hand": "right"
      },
      {
        "midi": 68,
        "time": 83.5,
        "duration": 0.5,
        "velocity": 0.48,
        "hand": "right"
      },
      {
        "midi": 80,
        "time": 83.5,
        "duration": 0.75,
        "velocity": 0.71,
        "hand": "right"
      },
      {
        "midi": 56,
        "time": 84,
        "duration": 0.5,
        "velocity": 0.48,
        "hand": "left"
      },
      {
        "midi": 79,
        "time": 84.25,
        "duration": 0.25,
        "velocity": 0.71,
        "hand": "right"
      },
      {
        "midi": 64,
        "time": 84.5,
        "duration": 0.5,
        "velocity": 0.48,
        "hand": "right"
      },
      {
        "midi": 67,
        "time": 84.5,
        "duration": 0.5,
        "velocity": 0.48,
        "hand": "right"
      },
      {
        "midi": 70,
        "time": 84.5,
        "duration": 0.5,
        "velocity": 0.48,
        "hand": "right"
      },
      {
        "midi": 73,
        "time": 84.5,
        "duration": 0.25,
        "velocity": 0.71,
        "hand": "right"
      },
      {
        "midi": 75,
        "time": 84.75,
        "duration": 0.25,
        "velocity": 0.71,
        "hand": "right"
      },
      {
        "midi": 58,
        "time": 85,
        "duration": 0.5,
        "velocity": 0.48,
        "hand": "left"
      },
      {
        "midi": 61,
        "time": 85,
        "duration": 0.5,
        "velocity": 0.48,
        "hand": "right"
      },
      {
        "midi": 67,
        "time": 85,
        "duration": 0.5,
        "velocity": 0.48,
        "hand": "right"
      },
      {
        "midi": 78,
        "time": 85,
        "duration": 0.25,
        "velocity": 0.71,
        "hand": "right"
      },
      {
        "midi": 76,
        "time": 85.25,
        "duration": 0.25,
        "velocity": 0.71,
        "hand": "right"
      },
      {
        "midi": 44,
        "time": 85.5,
        "duration": 0.5,
        "velocity": 0.48,
        "hand": "left"
      },
      {
        "midi": 63,
        "time": 86,
        "duration": 0.5,
        "velocity": 0.48,
        "hand": "right"
      },
      {
        "midi": 68,
        "time": 86,
        "duration": 0.5,
        "velocity": 0.48,
        "hand": "right"
      },
      {
        "midi": 72,
        "time": 86,
        "duration": 0.5,
        "velocity": 0.48,
        "hand": "right"
      },
      {
        "midi": 75,
        "time": 86,
        "duration": 0.25,
        "velocity": 0.71,
        "hand": "right"
      },
      {
        "midi": 77,
        "time": 86.25,
        "duration": 0.25,
        "velocity": 0.71,
        "hand": "right"
      },
      {
        "midi": 60,
        "time": 86.5,
        "duration": 0.5,
        "velocity": 0.48,
        "hand": "right"
      },
      {
        "midi": 63,
        "time": 86.5,
        "duration": 0.5,
        "velocity": 0.48,
        "hand": "right"
      },
      {
        "midi": 68,
        "time": 86.5,
        "duration": 0.5,
        "velocity": 0.48,
        "hand": "right"
      },
      {
        "midi": 75,
        "time": 86.5,
        "duration": 0.25,
        "velocity": 0.71,
        "hand": "right"
      },
      {
        "midi": 77,
        "time": 86.75,
        "duration": 0.25,
        "velocity": 0.71,
        "hand": "right"
      },
      {
        "midi": 39,
        "time": 87,
        "duration": 0.5,
        "velocity": 0.48,
        "hand": "left"
      },
      {
        "midi": 78,
        "time": 87,
        "duration": 0.5,
        "velocity": 0.71,
        "hand": "right"
      },
      {
        "midi": 63,
        "time": 87.5,
        "duration": 0.5,
        "velocity": 0.48,
        "hand": "right"
      },
      {
        "midi": 66,
        "time": 87.5,
        "duration": 0.5,
        "velocity": 0.48,
        "hand": "right"
      },
      {
        "midi": 70,
        "time": 87.5,
        "duration": 0.5,
        "velocity": 0.48,
        "hand": "right"
      },
      {
        "midi": 78,
        "time": 87.5,
        "duration": 0.5,
        "velocity": 0.71,
        "hand": "right"
      },
      {
        "midi": 58,
        "time": 88,
        "duration": 0.5,
        "velocity": 0.48,
        "hand": "left"
      },
      {
        "midi": 63,
        "time": 88,
        "duration": 0.5,
        "velocity": 0.48,
        "hand": "right"
      },
      {
        "midi": 66,
        "time": 88,
        "duration": 0.5,
        "velocity": 0.48,
        "hand": "right"
      },
      {
        "midi": 78,
        "time": 88,
        "duration": 0.5,
        "velocity": 0.71,
        "hand": "right"
      },
      {
        "midi": 41,
        "time": 88.5,
        "duration": 0.5,
        "velocity": 0.48,
        "hand": "left"
      },
      {
        "midi": 78,
        "time": 88.5,
        "duration": 0.5,
        "velocity": 0.71,
        "hand": "right"
      },
      {
        "midi": 63,
        "time": 89,
        "duration": 0.5,
        "velocity": 0.48,
        "hand": "right"
      },
      {
        "midi": 69,
        "time": 89,
        "duration": 0.5,
        "velocity": 0.48,
        "hand": "right"
      },
      {
        "midi": 77,
        "time": 89,
        "duration": 0.25,
        "velocity": 0.71,
        "hand": "right"
      },
      {
        "midi": 72,
        "time": 89.25,
        "duration": 0.25,
        "velocity": 0.71,
        "hand": "right"
      },
      {
        "midi": 57,
        "time": 89.5,
        "duration": 0.5,
        "velocity": 0.48,
        "hand": "left"
      },
      {
        "midi": 63,
        "time": 89.5,
        "duration": 0.5,
        "velocity": 0.48,
        "hand": "right"
      },
      {
        "midi": 65,
        "time": 89.5,
        "duration": 0.5,
        "velocity": 0.48,
        "hand": "right"
      },
      {
        "midi": 75,
        "time": 89.5,
        "duration": 0.25,
        "velocity": 0.71,
        "hand": "right"
      },
      {
        "midi": 73,
        "time": 89.75,
        "duration": 0.25,
        "velocity": 0.71,
        "hand": "right"
      },
      {
        "midi": 46,
        "time": 90,
        "duration": 0.5,
        "velocity": 0.48,
        "hand": "left"
      },
      {
        "midi": 70,
        "time": 90,
        "duration": 0.5,
        "velocity": 0.71,
        "hand": "right"
      },
      {
        "midi": 58,
        "time": 90.5,
        "duration": 0.5,
        "velocity": 0.48,
        "hand": "left"
      },
      {
        "midi": 61,
        "time": 90.5,
        "duration": 0.5,
        "velocity": 0.48,
        "hand": "right"
      },
      {
        "midi": 65,
        "time": 90.5,
        "duration": 0.5,
        "velocity": 0.48,
        "hand": "right"
      },
      {
        "midi": 53,
        "time": 91,
        "duration": 0.5,
        "velocity": 0.48,
        "hand": "left"
      },
      {
        "midi": 58,
        "time": 91,
        "duration": 0.5,
        "velocity": 0.48,
        "hand": "left"
      },
      {
        "midi": 61,
        "time": 91,
        "duration": 0.5,
        "velocity": 0.48,
        "hand": "right"
      },
      {
        "midi": 42,
        "time": 91.5,
        "duration": 0.5,
        "velocity": 0.48,
        "hand": "left"
      },
      {
        "midi": 58,
        "time": 92,
        "duration": 0.5,
        "velocity": 0.48,
        "hand": "left"
      },
      {
        "midi": 61,
        "time": 92,
        "duration": 0.5,
        "velocity": 0.48,
        "hand": "right"
      },
      {
        "midi": 66,
        "time": 92,
        "duration": 0.5,
        "velocity": 0.48,
        "hand": "right"
      },
      {
        "midi": 73,
        "time": 92,
        "duration": 0.25,
        "velocity": 0.71,
        "hand": "right"
      },
      {
        "midi": 75,
        "time": 92.25,
        "duration": 0.25,
        "velocity": 0.71,
        "hand": "right"
      },
      {
        "midi": 54,
        "time": 92.5,
        "duration": 0.5,
        "velocity": 0.48,
        "hand": "left"
      },
      {
        "midi": 58,
        "time": 92.5,
        "duration": 0.5,
        "velocity": 0.48,
        "hand": "left"
      },
      {
        "midi": 61,
        "time": 92.5,
        "duration": 0.5,
        "velocity": 0.48,
        "hand": "right"
      },
      {
        "midi": 73,
        "time": 92.5,
        "duration": 0.25,
        "velocity": 0.71,
        "hand": "right"
      },
      {
        "midi": 75,
        "time": 92.75,
        "duration": 0.25,
        "velocity": 0.71,
        "hand": "right"
      },
      {
        "midi": 37,
        "time": 93,
        "duration": 0.5,
        "velocity": 0.48,
        "hand": "left"
      },
      {
        "midi": 77,
        "time": 93,
        "duration": 0.5,
        "velocity": 0.71,
        "hand": "right"
      },
      {
        "midi": 56,
        "time": 93.5,
        "duration": 0.5,
        "velocity": 0.48,
        "hand": "left"
      },
      {
        "midi": 61,
        "time": 93.5,
        "duration": 0.5,
        "velocity": 0.48,
        "hand": "right"
      },
      {
        "midi": 65,
        "time": 93.5,
        "duration": 0.5,
        "velocity": 0.48,
        "hand": "right"
      },
      {
        "midi": 77,
        "time": 93.5,
        "duration": 0.5,
        "velocity": 0.71,
        "hand": "right"
      },
      {
        "midi": 53,
        "time": 94,
        "duration": 0.5,
        "velocity": 0.48,
        "hand": "left"
      },
      {
        "midi": 56,
        "time": 94,
        "duration": 0.5,
        "velocity": 0.48,
        "hand": "left"
      },
      {
        "midi": 61,
        "time": 94,
        "duration": 0.5,
        "velocity": 0.48,
        "hand": "right"
      },
      {
        "midi": 77,
        "time": 94,
        "duration": 0.5,
        "velocity": 0.71,
        "hand": "right"
      },
      {
        "midi": 39,
        "time": 94.5,
        "duration": 0.5,
        "velocity": 0.48,
        "hand": "left"
      },
      {
        "midi": 77,
        "time": 94.5,
        "duration": 0.5,
        "velocity": 0.71,
        "hand": "right"
      },
      {
        "midi": 58,
        "time": 95,
        "duration": 0.5,
        "velocity": 0.48,
        "hand": "left"
      },
      {
        "midi": 60,
        "time": 95,
        "duration": 0.5,
        "velocity": 0.48,
        "hand": "right"
      },
      {
        "midi": 66,
        "time": 95,
        "duration": 0.5,
        "velocity": 0.48,
        "hand": "right"
      },
      {
        "midi": 75,
        "time": 95,
        "duration": 0.25,
        "velocity": 0.71,
        "hand": "right"
      },
      {
        "midi": 70,
        "time": 95.25,
        "duration": 0.25,
        "velocity": 0.71,
        "hand": "right"
      },
      {
        "midi": 54,
        "time": 95.5,
        "duration": 0.5,
        "velocity": 0.48,
        "hand": "left"
      },
      {
        "midi": 58,
        "time": 95.5,
        "duration": 0.5,
        "velocity": 0.48,
        "hand": "left"
      },
      {
        "midi": 63,
        "time": 95.5,
        "duration": 0.5,
        "velocity": 0.48,
        "hand": "right"
      },
      {
        "midi": 73,
        "time": 95.5,
        "duration": 0.25,
        "velocity": 0.71,
        "hand": "right"
      },
      {
        "midi": 72,
        "time": 95.75,
        "duration": 0.25,
        "velocity": 0.71,
        "hand": "right"
      },
      {
        "midi": 41,
        "time": 96,
        "duration": 0.5,
        "velocity": 0.48,
        "hand": "left"
      },
      {
        "midi": 69,
        "time": 96,
        "duration": 0.5,
        "velocity": 0.71,
        "hand": "right"
      },
      {
        "midi": 60,
        "time": 96.5,
        "duration": 0.5,
        "velocity": 0.48,
        "hand": "right"
      },
      {
        "midi": 65,
        "time": 96.5,
        "duration": 0.5,
        "velocity": 0.48,
        "hand": "right"
      },
      {
        "midi": 69,
        "time": 96.5,
        "duration": 0.5,
        "velocity": 0.48,
        "hand": "right"
      },
      {
        "midi": 72,
        "time": 96.5,
        "duration": 0.5,
        "velocity": 0.71,
        "hand": "right"
      },
      {
        "midi": 57,
        "time": 97,
        "duration": 0.5,
        "velocity": 0.48,
        "hand": "left"
      },
      {
        "midi": 60,
        "time": 97,
        "duration": 0.5,
        "velocity": 0.48,
        "hand": "right"
      },
      {
        "midi": 65,
        "time": 97,
        "duration": 0.5,
        "velocity": 0.48,
        "hand": "right"
      },
      {
        "midi": 77,
        "time": 97,
        "duration": 0.5,
        "velocity": 0.71,
        "hand": "right"
      },
      {
        "midi": 53,
        "time": 97.5,
        "duration": 0.5,
        "velocity": 0.48,
        "hand": "left"
      },
      {
        "midi": 76,
        "time": 97.5,
        "duration": 0.5,
        "velocity": 0.71,
        "hand": "right"
      },
      {
        "midi": 61,
        "time": 98,
        "duration": 0.5,
        "velocity": 0.48,
        "hand": "right"
      },
      {
        "midi": 64,
        "time": 98,
        "duration": 0.5,
        "velocity": 0.48,
        "hand": "right"
      },
      {
        "midi": 67,
        "time": 98,
        "duration": 0.5,
        "velocity": 0.48,
        "hand": "right"
      },
      {
        "midi": 70,
        "time": 98,
        "duration": 0.5,
        "velocity": 0.71,
        "hand": "right"
      },
      {
        "midi": 58,
        "time": 98.5,
        "duration": 0.5,
        "velocity": 0.48,
        "hand": "left"
      },
      {
        "midi": 61,
        "time": 98.5,
        "duration": 0.5,
        "velocity": 0.48,
        "hand": "right"
      },
      {
        "midi": 64,
        "time": 98.5,
        "duration": 0.5,
        "velocity": 0.48,
        "hand": "right"
      },
      {
        "midi": 73,
        "time": 98.5,
        "duration": 1,
        "velocity": 0.71,
        "hand": "right"
      },
      {
        "midi": 41,
        "time": 99,
        "duration": 0.5,
        "velocity": 0.48,
        "hand": "left"
      },
      {
        "midi": 60,
        "time": 99.5,
        "duration": 0.5,
        "velocity": 0.48,
        "hand": "right"
      },
      {
        "midi": 65,
        "time": 99.5,
        "duration": 0.5,
        "velocity": 0.48,
        "hand": "right"
      },
      {
        "midi": 69,
        "time": 99.5,
        "duration": 0.5,
        "velocity": 0.48,
        "hand": "right"
      },
      {
        "midi": 72,
        "time": 99.5,
        "duration": 0.5,
        "velocity": 0.71,
        "hand": "right"
      },
      {
        "midi": 57,
        "time": 100,
        "duration": 0.5,
        "velocity": 0.48,
        "hand": "left"
      },
      {
        "midi": 60,
        "time": 100,
        "duration": 0.5,
        "velocity": 0.48,
        "hand": "right"
      },
      {
        "midi": 65,
        "time": 100,
        "duration": 0.5,
        "velocity": 0.48,
        "hand": "right"
      },
      {
        "midi": 77,
        "time": 100,
        "duration": 0.75,
        "velocity": 0.71,
        "hand": "right"
      },
      {
        "midi": 53,
        "time": 100.5,
        "duration": 0.5,
        "velocity": 0.48,
        "hand": "left"
      },
      {
        "midi": 76,
        "time": 100.75,
        "duration": 0.25,
        "velocity": 0.71,
        "hand": "right"
      },
      {
        "midi": 61,
        "time": 101,
        "duration": 0.5,
        "velocity": 0.48,
        "hand": "right"
      },
      {
        "midi": 64,
        "time": 101,
        "duration": 0.5,
        "velocity": 0.48,
        "hand": "right"
      },
      {
        "midi": 67,
        "time": 101,
        "duration": 0.5,
        "velocity": 0.48,
        "hand": "right"
      },
      {
        "midi": 70,
        "time": 101,
        "duration": 0.25,
        "velocity": 0.71,
        "hand": "right"
      },
      {
        "midi": 72,
        "time": 101.25,
        "duration": 0.25,
        "velocity": 0.71,
        "hand": "right"
      },
      {
        "midi": 58,
        "time": 101.5,
        "duration": 0.5,
        "velocity": 0.48,
        "hand": "left"
      },
      {
        "midi": 61,
        "time": 101.5,
        "duration": 0.5,
        "velocity": 0.48,
        "hand": "right"
      },
      {
        "midi": 64,
        "time": 101.5,
        "duration": 0.5,
        "velocity": 0.48,
        "hand": "right"
      },
      {
        "midi": 75,
        "time": 101.5,
        "duration": 0.25,
        "velocity": 0.71,
        "hand": "right"
      },
      {
        "midi": 73,
        "time": 101.75,
        "duration": 0.25,
        "velocity": 0.71,
        "hand": "right"
      },
      {
        "midi": 41,
        "time": 102,
        "duration": 0.5,
        "velocity": 0.48,
        "hand": "left"
      },
      {
        "midi": 60,
        "time": 102.5,
        "duration": 0.5,
        "velocity": 0.48,
        "hand": "right"
      },
      {
        "midi": 63,
        "time": 102.5,
        "duration": 0.5,
        "velocity": 0.48,
        "hand": "right"
      },
      {
        "midi": 66,
        "time": 102.5,
        "duration": 0.5,
        "velocity": 0.48,
        "hand": "right"
      },
      {
        "midi": 72,
        "time": 102.5,
        "duration": 0.25,
        "velocity": 0.71,
        "hand": "right"
      },
      {
        "midi": 73,
        "time": 102.75,
        "duration": 0.25,
        "velocity": 0.71,
        "hand": "right"
      },
      {
        "midi": 54,
        "time": 103,
        "duration": 0.5,
        "velocity": 0.48,
        "hand": "left"
      },
      {
        "midi": 58,
        "time": 103,
        "duration": 0.5,
        "velocity": 0.48,
        "hand": "left"
      },
      {
        "midi": 63,
        "time": 103,
        "duration": 0.5,
        "velocity": 0.48,
        "hand": "right"
      },
      {
        "midi": 72,
        "time": 103,
        "duration": 0.25,
        "velocity": 0.71,
        "hand": "right"
      },
      {
        "midi": 73,
        "time": 103.25,
        "duration": 0.25,
        "velocity": 0.71,
        "hand": "right"
      },
      {
        "midi": 53,
        "time": 103.5,
        "duration": 0.5,
        "velocity": 0.48,
        "hand": "left"
      },
      {
        "midi": 75,
        "time": 103.5,
        "duration": 0.5,
        "velocity": 0.71,
        "hand": "right"
      },
      {
        "midi": 63,
        "time": 104,
        "duration": 0.5,
        "velocity": 0.48,
        "hand": "right"
      },
      {
        "midi": 66,
        "time": 104,
        "duration": 0.5,
        "velocity": 0.48,
        "hand": "right"
      },
      {
        "midi": 70,
        "time": 104,
        "duration": 0.5,
        "velocity": 0.48,
        "hand": "right"
      },
      {
        "midi": 75,
        "time": 104,
        "duration": 0.5,
        "velocity": 0.71,
        "hand": "right"
      },
      {
        "midi": 60,
        "time": 104.5,
        "duration": 0.5,
        "velocity": 0.48,
        "hand": "right"
      },
      {
        "midi": 63,
        "time": 104.5,
        "duration": 0.5,
        "velocity": 0.48,
        "hand": "right"
      },
      {
        "midi": 66,
        "time": 104.5,
        "duration": 0.5,
        "velocity": 0.48,
        "hand": "right"
      },
      {
        "midi": 75,
        "time": 104.5,
        "duration": 0.5,
        "velocity": 0.71,
        "hand": "right"
      },
      {
        "midi": 41,
        "time": 105,
        "duration": 0.5,
        "velocity": 0.48,
        "hand": "left"
      },
      {
        "midi": 75,
        "time": 105,
        "duration": 0.5,
        "velocity": 0.71,
        "hand": "right"
      },
      {
        "midi": 63,
        "time": 105.5,
        "duration": 0.5,
        "velocity": 0.48,
        "hand": "right"
      },
      {
        "midi": 69,
        "time": 105.5,
        "duration": 0.5,
        "velocity": 0.48,
        "hand": "right"
      },
      {
        "midi": 77,
        "time": 105.5,
        "duration": 0.25,
        "velocity": 0.71,
        "hand": "right"
      },
      {
        "midi": 72,
        "time": 105.75,
        "duration": 0.25,
        "velocity": 0.71,
        "hand": "right"
      },
      {
        "midi": 57,
        "time": 106,
        "duration": 0.5,
        "velocity": 0.48,
        "hand": "left"
      },
      {
        "midi": 63,
        "time": 106,
        "duration": 0.5,
        "velocity": 0.48,
        "hand": "right"
      },
      {
        "midi": 65,
        "time": 106,
        "duration": 0.5,
        "velocity": 0.48,
        "hand": "right"
      },
      {
        "midi": 75,
        "time": 106,
        "duration": 0.25,
        "velocity": 0.71,
        "hand": "right"
      },
      {
        "midi": 73,
        "time": 106.25,
        "duration": 0.25,
        "velocity": 0.71,
        "hand": "right"
      },
      {
        "midi": 46,
        "time": 106.5,
        "duration": 0.5,
        "velocity": 0.48,
        "hand": "left"
      },
      {
        "midi": 70,
        "time": 106.5,
        "duration": 1,
        "velocity": 0.71,
        "hand": "right"
      },
      {
        "midi": 58,
        "time": 107,
        "duration": 0.5,
        "velocity": 0.48,
        "hand": "left"
      },
      {
        "midi": 61,
        "time": 107,
        "duration": 0.5,
        "velocity": 0.48,
        "hand": "right"
      },
      {
        "midi": 65,
        "time": 107,
        "duration": 0.5,
        "velocity": 0.48,
        "hand": "right"
      },
      {
        "midi": 53,
        "time": 107.5,
        "duration": 0.5,
        "velocity": 0.48,
        "hand": "left"
      },
      {
        "midi": 58,
        "time": 107.5,
        "duration": 0.5,
        "velocity": 0.48,
        "hand": "left"
      },
      {
        "midi": 61,
        "time": 107.5,
        "duration": 0.5,
        "velocity": 0.48,
        "hand": "right"
      },
      {
        "midi": 58,
        "time": 108,
        "duration": 0.5,
        "velocity": 0.48,
        "hand": "left"
      },
      {
        "midi": 61,
        "time": 108,
        "duration": 0.5,
        "velocity": 0.48,
        "hand": "right"
      },
      {
        "midi": 66,
        "time": 108,
        "duration": 0.5,
        "velocity": 0.48,
        "hand": "right"
      },
      {
        "midi": 58,
        "time": 108.5,
        "duration": 0.5,
        "velocity": 0.26,
        "hand": "left"
      },
      {
        "midi": 61,
        "time": 108.5,
        "duration": 0.5,
        "velocity": 0.26,
        "hand": "right"
      },
      {
        "midi": 65,
        "time": 108.5,
        "duration": 0.5,
        "velocity": 0.26,
        "hand": "right"
      },
      {
        "midi": 53,
        "time": 109,
        "duration": 0.5,
        "velocity": 0.26,
        "hand": "left"
      },
      {
        "midi": 58,
        "time": 109,
        "duration": 0.5,
        "velocity": 0.26,
        "hand": "left"
      },
      {
        "midi": 61,
        "time": 109,
        "duration": 0.5,
        "velocity": 0.26,
        "hand": "right"
      },
      {
        "midi": 49,
        "time": 109.5,
        "duration": 0.5,
        "velocity": 0.26,
        "hand": "left"
      },
      {
        "midi": 53,
        "time": 109.5,
        "duration": 0.5,
        "velocity": 0.26,
        "hand": "left"
      },
      {
        "midi": 58,
        "time": 109.5,
        "duration": 0.5,
        "velocity": 0.26,
        "hand": "left"
      },
      {
        "midi": 34,
        "time": 110,
        "duration": 0.5,
        "velocity": 0.26,
        "hand": "left"
      },
      {
        "midi": 46,
        "time": 110,
        "duration": 0.5,
        "velocity": 0.26,
        "hand": "left"
      },
      {
        "midi": 32,
        "time": 110.5,
        "duration": 0.5,
        "velocity": 0.26,
        "hand": "left"
      },
      {
        "midi": 44,
        "time": 110.5,
        "duration": 0.5,
        "velocity": 0.26,
        "hand": "left"
      },
      {
        "midi": 30,
        "time": 111,
        "duration": 0.5,
        "velocity": 0.26,
        "hand": "left"
      },
      {
        "midi": 42,
        "time": 111,
        "duration": 0.5,
        "velocity": 0.26,
        "hand": "left"
      },
      {
        "midi": 37,
        "time": 111.5,
        "duration": 0.5,
        "velocity": 0.26,
        "hand": "left"
      },
      {
        "midi": 49,
        "time": 111.5,
        "duration": 0.5,
        "velocity": 0.26,
        "hand": "left"
      },
      {
        "midi": 42,
        "time": 112,
        "duration": 0.5,
        "velocity": 0.26,
        "hand": "left"
      },
      {
        "midi": 54,
        "time": 112,
        "duration": 0.5,
        "velocity": 0.26,
        "hand": "left"
      },
      {
        "midi": 46,
        "time": 112.5,
        "duration": 0.5,
        "velocity": 0.26,
        "hand": "left"
      },
      {
        "midi": 58,
        "time": 112.5,
        "duration": 0.5,
        "velocity": 0.26,
        "hand": "left"
      },
      {
        "midi": 66,
        "time": 112.5,
        "duration": 1,
        "velocity": 0.71,
        "hand": "right"
      },
      {
        "midi": 70,
        "time": 112.5,
        "duration": 1,
        "velocity": 0.71,
        "hand": "right"
      },
      {
        "midi": 78,
        "time": 112.5,
        "duration": 1,
        "velocity": 0.71,
        "hand": "right"
      },
      {
        "midi": 51,
        "time": 113,
        "duration": 0.5,
        "velocity": 0.26,
        "hand": "left"
      },
      {
        "midi": 63,
        "time": 113,
        "duration": 0.5,
        "velocity": 0.26,
        "hand": "right"
      },
      {
        "midi": 46,
        "time": 113.5,
        "duration": 0.5,
        "velocity": 0.26,
        "hand": "left"
      },
      {
        "midi": 58,
        "time": 113.5,
        "duration": 0.5,
        "velocity": 0.26,
        "hand": "left"
      },
      {
        "midi": 66,
        "time": 113.5,
        "duration": 0.5,
        "velocity": 0.71,
        "hand": "right"
      },
      {
        "midi": 70,
        "time": 113.5,
        "duration": 0.5,
        "velocity": 0.71,
        "hand": "right"
      },
      {
        "midi": 78,
        "time": 113.5,
        "duration": 0.5,
        "velocity": 0.71,
        "hand": "right"
      },
      {
        "midi": 49,
        "time": 114,
        "duration": 0.5,
        "velocity": 0.26,
        "hand": "left"
      },
      {
        "midi": 61,
        "time": 114,
        "duration": 0.5,
        "velocity": 0.26,
        "hand": "right"
      },
      {
        "midi": 66,
        "time": 114,
        "duration": 4.5,
        "velocity": 0.71,
        "hand": "right"
      },
      {
        "midi": 70,
        "time": 114,
        "duration": 4.5,
        "velocity": 0.71,
        "hand": "right"
      },
      {
        "midi": 78,
        "time": 114,
        "duration": 4.5,
        "velocity": 0.71,
        "hand": "right"
      },
      {
        "midi": 51,
        "time": 114.5,
        "duration": 0.5,
        "velocity": 0.26,
        "hand": "left"
      },
      {
        "midi": 63,
        "time": 114.5,
        "duration": 0.5,
        "velocity": 0.26,
        "hand": "right"
      },
      {
        "midi": 46,
        "time": 115,
        "duration": 0.5,
        "velocity": 0.26,
        "hand": "left"
      },
      {
        "midi": 58,
        "time": 115,
        "duration": 0.5,
        "velocity": 0.26,
        "hand": "left"
      },
      {
        "midi": 49,
        "time": 115.5,
        "duration": 0.5,
        "velocity": 0.26,
        "hand": "left"
      },
      {
        "midi": 61,
        "time": 115.5,
        "duration": 0.5,
        "velocity": 0.26,
        "hand": "right"
      },
      {
        "midi": 44,
        "time": 116,
        "duration": 0.5,
        "velocity": 0.26,
        "hand": "left"
      },
      {
        "midi": 56,
        "time": 116,
        "duration": 0.5,
        "velocity": 0.26,
        "hand": "left"
      },
      {
        "midi": 46,
        "time": 116.5,
        "duration": 0.5,
        "velocity": 0.26,
        "hand": "left"
      },
      {
        "midi": 58,
        "time": 116.5,
        "duration": 0.5,
        "velocity": 0.26,
        "hand": "left"
      },
      {
        "midi": 42,
        "time": 117,
        "duration": 0.5,
        "velocity": 0.26,
        "hand": "left"
      },
      {
        "midi": 54,
        "time": 117,
        "duration": 0.5,
        "velocity": 0.26,
        "hand": "left"
      },
      {
        "midi": 39,
        "time": 117.5,
        "duration": 0.5,
        "velocity": 0.26,
        "hand": "left"
      },
      {
        "midi": 51,
        "time": 117.5,
        "duration": 0.5,
        "velocity": 0.26,
        "hand": "left"
      },
      {
        "midi": 34,
        "time": 118,
        "duration": 0.5,
        "velocity": 0.26,
        "hand": "left"
      },
      {
        "midi": 46,
        "time": 118,
        "duration": 0.5,
        "velocity": 0.26,
        "hand": "left"
      },
      {
        "midi": 37,
        "time": 118.5,
        "duration": 0.5,
        "velocity": 0.26,
        "hand": "left"
      },
      {
        "midi": 49,
        "time": 118.5,
        "duration": 0.5,
        "velocity": 0.26,
        "hand": "left"
      },
      {
        "midi": 66,
        "time": 118.5,
        "duration": 1,
        "velocity": 0.71,
        "hand": "right"
      },
      {
        "midi": 70,
        "time": 118.5,
        "duration": 1,
        "velocity": 0.71,
        "hand": "right"
      },
      {
        "midi": 78,
        "time": 118.5,
        "duration": 1,
        "velocity": 0.71,
        "hand": "right"
      },
      {
        "midi": 32,
        "time": 119,
        "duration": 0.5,
        "velocity": 0.26,
        "hand": "left"
      },
      {
        "midi": 44,
        "time": 119,
        "duration": 0.5,
        "velocity": 0.26,
        "hand": "left"
      },
      {
        "midi": 34,
        "time": 119.5,
        "duration": 0.5,
        "velocity": 0.26,
        "hand": "left"
      },
      {
        "midi": 46,
        "time": 119.5,
        "duration": 0.5,
        "velocity": 0.26,
        "hand": "left"
      },
      {
        "midi": 66,
        "time": 119.5,
        "duration": 0.5,
        "velocity": 0.71,
        "hand": "right"
      },
      {
        "midi": 70,
        "time": 119.5,
        "duration": 0.5,
        "velocity": 0.71,
        "hand": "right"
      },
      {
        "midi": 78,
        "time": 119.5,
        "duration": 0.5,
        "velocity": 0.71,
        "hand": "right"
      },
      {
        "midi": 30,
        "time": 120,
        "duration": 0.5,
        "velocity": 0.26,
        "hand": "left"
      },
      {
        "midi": 42,
        "time": 120,
        "duration": 0.5,
        "velocity": 0.26,
        "hand": "left"
      },
      {
        "midi": 66,
        "time": 120,
        "duration": 1.5,
        "velocity": 0.71,
        "hand": "right"
      },
      {
        "midi": 70,
        "time": 120,
        "duration": 1.5,
        "velocity": 0.71,
        "hand": "right"
      },
      {
        "midi": 78,
        "time": 120,
        "duration": 1.5,
        "velocity": 0.71,
        "hand": "right"
      },
      {
        "midi": 51,
        "time": 120.5,
        "duration": 0.5,
        "velocity": 0.26,
        "hand": "left"
      },
      {
        "midi": 63,
        "time": 120.5,
        "duration": 0.5,
        "velocity": 0.26,
        "hand": "right"
      },
      {
        "midi": 46,
        "time": 121,
        "duration": 0.5,
        "velocity": 0.26,
        "hand": "left"
      },
      {
        "midi": 58,
        "time": 121,
        "duration": 0.5,
        "velocity": 0.26,
        "hand": "left"
      },
      {
        "midi": 49,
        "time": 121.5,
        "duration": 0.5,
        "velocity": 0.26,
        "hand": "left"
      },
      {
        "midi": 61,
        "time": 121.5,
        "duration": 0.5,
        "velocity": 0.26,
        "hand": "right"
      },
      {
        "midi": 65,
        "time": 121.5,
        "duration": 1.5,
        "velocity": 0.71,
        "hand": "right"
      },
      {
        "midi": 68,
        "time": 121.5,
        "duration": 1.5,
        "velocity": 0.71,
        "hand": "right"
      },
      {
        "midi": 77,
        "time": 121.5,
        "duration": 1.5,
        "velocity": 0.71,
        "hand": "right"
      },
      {
        "midi": 44,
        "time": 122,
        "duration": 0.5,
        "velocity": 0.26,
        "hand": "left"
      },
      {
        "midi": 56,
        "time": 122,
        "duration": 0.5,
        "velocity": 0.26,
        "hand": "left"
      },
      {
        "midi": 46,
        "time": 122.5,
        "duration": 0.5,
        "velocity": 0.26,
        "hand": "left"
      },
      {
        "midi": 58,
        "time": 122.5,
        "duration": 0.5,
        "velocity": 0.26,
        "hand": "left"
      },
      {
        "midi": 47,
        "time": 123,
        "duration": 0.5,
        "velocity": 0.26,
        "hand": "left"
      },
      {
        "midi": 59,
        "time": 123,
        "duration": 0.5,
        "velocity": 0.26,
        "hand": "left"
      },
      {
        "midi": 64,
        "time": 123,
        "duration": 1.5,
        "velocity": 0.71,
        "hand": "right"
      },
      {
        "midi": 68,
        "time": 123,
        "duration": 1.5,
        "velocity": 0.71,
        "hand": "right"
      },
      {
        "midi": 76,
        "time": 123,
        "duration": 1.5,
        "velocity": 0.71,
        "hand": "right"
      },
      {
        "midi": 35,
        "time": 123.5,
        "duration": 0.5,
        "velocity": 0.26,
        "hand": "left"
      },
      {
        "midi": 47,
        "time": 123.5,
        "duration": 0.5,
        "velocity": 0.26,
        "hand": "left"
      },
      {
        "midi": 40,
        "time": 124,
        "duration": 0.5,
        "velocity": 0.26,
        "hand": "left"
      },
      {
        "midi": 52,
        "time": 124,
        "duration": 0.5,
        "velocity": 0.26,
        "hand": "left"
      },
      {
        "midi": 44,
        "time": 124.5,
        "duration": 0.5,
        "velocity": 0.26,
        "hand": "left"
      },
      {
        "midi": 56,
        "time": 124.5,
        "duration": 0.5,
        "velocity": 0.26,
        "hand": "left"
      },
      {
        "midi": 64,
        "time": 124.5,
        "duration": 1,
        "velocity": 0.71,
        "hand": "right"
      },
      {
        "midi": 68,
        "time": 124.5,
        "duration": 1,
        "velocity": 0.71,
        "hand": "right"
      },
      {
        "midi": 76,
        "time": 124.5,
        "duration": 1,
        "velocity": 0.71,
        "hand": "right"
      },
      {
        "midi": 49,
        "time": 125,
        "duration": 0.5,
        "velocity": 0.26,
        "hand": "left"
      },
      {
        "midi": 61,
        "time": 125,
        "duration": 0.5,
        "velocity": 0.26,
        "hand": "right"
      },
      {
        "midi": 44,
        "time": 125.5,
        "duration": 0.5,
        "velocity": 0.26,
        "hand": "left"
      },
      {
        "midi": 56,
        "time": 125.5,
        "duration": 0.5,
        "velocity": 0.26,
        "hand": "left"
      },
      {
        "midi": 64,
        "time": 125.5,
        "duration": 0.5,
        "velocity": 0.71,
        "hand": "right"
      },
      {
        "midi": 68,
        "time": 125.5,
        "duration": 0.5,
        "velocity": 0.71,
        "hand": "right"
      },
      {
        "midi": 76,
        "time": 125.5,
        "duration": 0.5,
        "velocity": 0.71,
        "hand": "right"
      },
      {
        "midi": 47,
        "time": 126,
        "duration": 0.5,
        "velocity": 0.26,
        "hand": "left"
      },
      {
        "midi": 59,
        "time": 126,
        "duration": 0.5,
        "velocity": 0.26,
        "hand": "left"
      },
      {
        "midi": 64,
        "time": 126,
        "duration": 4.5,
        "velocity": 0.71,
        "hand": "right"
      },
      {
        "midi": 68,
        "time": 126,
        "duration": 4.5,
        "velocity": 0.71,
        "hand": "right"
      },
      {
        "midi": 76,
        "time": 126,
        "duration": 4.5,
        "velocity": 0.71,
        "hand": "right"
      },
      {
        "midi": 49,
        "time": 126.5,
        "duration": 0.5,
        "velocity": 0.26,
        "hand": "left"
      },
      {
        "midi": 61,
        "time": 126.5,
        "duration": 0.5,
        "velocity": 0.26,
        "hand": "right"
      },
      {
        "midi": 44,
        "time": 127,
        "duration": 0.5,
        "velocity": 0.26,
        "hand": "left"
      },
      {
        "midi": 56,
        "time": 127,
        "duration": 0.5,
        "velocity": 0.26,
        "hand": "left"
      },
      {
        "midi": 47,
        "time": 127.5,
        "duration": 0.5,
        "velocity": 0.26,
        "hand": "left"
      },
      {
        "midi": 59,
        "time": 127.5,
        "duration": 0.5,
        "velocity": 0.26,
        "hand": "left"
      },
      {
        "midi": 42,
        "time": 128,
        "duration": 0.5,
        "velocity": 0.26,
        "hand": "left"
      },
      {
        "midi": 54,
        "time": 128,
        "duration": 0.5,
        "velocity": 0.26,
        "hand": "left"
      },
      {
        "midi": 44,
        "time": 128.5,
        "duration": 0.5,
        "velocity": 0.26,
        "hand": "left"
      },
      {
        "midi": 56,
        "time": 128.5,
        "duration": 0.5,
        "velocity": 0.26,
        "hand": "left"
      },
      {
        "midi": 40,
        "time": 129,
        "duration": 0.5,
        "velocity": 0.26,
        "hand": "left"
      },
      {
        "midi": 52,
        "time": 129,
        "duration": 0.5,
        "velocity": 0.26,
        "hand": "left"
      },
      {
        "midi": 37,
        "time": 129.5,
        "duration": 0.5,
        "velocity": 0.26,
        "hand": "left"
      },
      {
        "midi": 49,
        "time": 129.5,
        "duration": 0.5,
        "velocity": 0.26,
        "hand": "left"
      },
      {
        "midi": 32,
        "time": 130,
        "duration": 0.5,
        "velocity": 0.26,
        "hand": "left"
      },
      {
        "midi": 44,
        "time": 130,
        "duration": 0.5,
        "velocity": 0.26,
        "hand": "left"
      },
      {
        "midi": 35,
        "time": 130.5,
        "duration": 0.5,
        "velocity": 0.26,
        "hand": "left"
      },
      {
        "midi": 47,
        "time": 130.5,
        "duration": 0.5,
        "velocity": 0.26,
        "hand": "left"
      },
      {
        "midi": 64,
        "time": 130.5,
        "duration": 1,
        "velocity": 0.71,
        "hand": "right"
      },
      {
        "midi": 68,
        "time": 130.5,
        "duration": 1,
        "velocity": 0.71,
        "hand": "right"
      },
      {
        "midi": 76,
        "time": 130.5,
        "duration": 1,
        "velocity": 0.71,
        "hand": "right"
      },
      {
        "midi": 30,
        "time": 131,
        "duration": 0.5,
        "velocity": 0.26,
        "hand": "left"
      },
      {
        "midi": 42,
        "time": 131,
        "duration": 0.5,
        "velocity": 0.26,
        "hand": "left"
      },
      {
        "midi": 32,
        "time": 131.5,
        "duration": 0.5,
        "velocity": 0.26,
        "hand": "left"
      },
      {
        "midi": 44,
        "time": 131.5,
        "duration": 0.5,
        "velocity": 0.26,
        "hand": "left"
      },
      {
        "midi": 64,
        "time": 131.5,
        "duration": 0.5,
        "velocity": 0.71,
        "hand": "right"
      },
      {
        "midi": 68,
        "time": 131.5,
        "duration": 0.5,
        "velocity": 0.71,
        "hand": "right"
      },
      {
        "midi": 76,
        "time": 131.5,
        "duration": 0.5,
        "velocity": 0.71,
        "hand": "right"
      },
      {
        "midi": 28,
        "time": 132,
        "duration": 0.5,
        "velocity": 0.26,
        "hand": "left"
      },
      {
        "midi": 40,
        "time": 132,
        "duration": 0.5,
        "velocity": 0.26,
        "hand": "left"
      },
      {
        "midi": 64,
        "time": 132,
        "duration": 1.5,
        "velocity": 0.71,
        "hand": "right"
      },
      {
        "midi": 68,
        "time": 132,
        "duration": 1.5,
        "velocity": 0.71,
        "hand": "right"
      },
      {
        "midi": 76,
        "time": 132,
        "duration": 1.5,
        "velocity": 0.71,
        "hand": "right"
      },
      {
        "midi": 49,
        "time": 132.5,
        "duration": 0.5,
        "velocity": 0.26,
        "hand": "left"
      },
      {
        "midi": 61,
        "time": 132.5,
        "duration": 0.5,
        "velocity": 0.26,
        "hand": "right"
      },
      {
        "midi": 44,
        "time": 133,
        "duration": 0.5,
        "velocity": 0.26,
        "hand": "left"
      },
      {
        "midi": 56,
        "time": 133,
        "duration": 0.5,
        "velocity": 0.26,
        "hand": "left"
      },
      {
        "midi": 47,
        "time": 133.5,
        "duration": 0.5,
        "velocity": 0.26,
        "hand": "left"
      },
      {
        "midi": 59,
        "time": 133.5,
        "duration": 0.5,
        "velocity": 0.26,
        "hand": "left"
      },
      {
        "midi": 63,
        "time": 133.5,
        "duration": 1.5,
        "velocity": 0.71,
        "hand": "right"
      },
      {
        "midi": 68,
        "time": 133.5,
        "duration": 0.5,
        "velocity": 0.71,
        "hand": "right"
      },
      {
        "midi": 75,
        "time": 133.5,
        "duration": 1.5,
        "velocity": 0.71,
        "hand": "right"
      },
      {
        "midi": 46,
        "time": 134,
        "duration": 0.5,
        "velocity": 0.26,
        "hand": "left"
      },
      {
        "midi": 58,
        "time": 134,
        "duration": 0.5,
        "velocity": 0.26,
        "hand": "left"
      },
      {
        "midi": 70,
        "time": 134,
        "duration": 0.5,
        "velocity": 0.71,
        "hand": "right"
      },
      {
        "midi": 44,
        "time": 134.5,
        "duration": 0.5,
        "velocity": 0.26,
        "hand": "left"
      },
      {
        "midi": 56,
        "time": 134.5,
        "duration": 0.5,
        "velocity": 0.26,
        "hand": "left"
      },
      {
        "midi": 71,
        "time": 134.5,
        "duration": 0.5,
        "velocity": 0.71,
        "hand": "right"
      },
      {
        "midi": 34,
        "time": 135,
        "duration": 0.5,
        "velocity": 0.26,
        "hand": "left"
      },
      {
        "midi": 46,
        "time": 135,
        "duration": 0.5,
        "velocity": 0.26,
        "hand": "left"
      },
      {
        "midi": 62,
        "time": 135,
        "duration": 0.5,
        "velocity": 0.71,
        "hand": "right"
      },
      {
        "midi": 56,
        "time": 135.5,
        "duration": 0.5,
        "velocity": 0.26,
        "hand": "left"
      },
      {
        "midi": 62,
        "time": 135.5,
        "duration": 0.5,
        "velocity": 0.26,
        "hand": "right"
      },
      {
        "midi": 74,
        "time": 135.5,
        "duration": 0.25,
        "velocity": 0.71,
        "hand": "right"
      },
      {
        "midi": 75,
        "time": 135.75,
        "duration": 0.25,
        "velocity": 0.71,
        "hand": "right"
      },
      {
        "midi": 62,
        "time": 136,
        "duration": 0.5,
        "velocity": 0.26,
        "hand": "right"
      },
      {
        "midi": 68,
        "time": 136,
        "duration": 0.5,
        "velocity": 0.26,
        "hand": "right"
      },
      {
        "midi": 74,
        "time": 136,
        "duration": 0.25,
        "velocity": 0.71,
        "hand": "right"
      },
      {
        "midi": 75,
        "time": 136.25,
        "duration": 0.25,
        "velocity": 0.71,
        "hand": "right"
      },
      {
        "midi": 77,
        "time": 136.5,
        "duration": 0.5,
        "velocity": 0.71,
        "hand": "right"
      },
      {
        "midi": 56,
        "time": 137,
        "duration": 0.5,
        "velocity": 0.26,
        "hand": "left"
      },
      {
        "midi": 62,
        "time": 137,
        "duration": 0.5,
        "velocity": 0.26,
        "hand": "right"
      },
      {
        "midi": 68,
        "time": 137,
        "duration": 0.5,
        "velocity": 0.26,
        "hand": "right"
      },
      {
        "midi": 77,
        "time": 137,
        "duration": 0.5,
        "velocity": 0.71,
        "hand": "right"
      },
      {
        "midi": 53,
        "time": 137.5,
        "duration": 0.5,
        "velocity": 0.26,
        "hand": "left"
      },
      {
        "midi": 56,
        "time": 137.5,
        "duration": 0.5,
        "velocity": 0.26,
        "hand": "left"
      },
      {
        "midi": 62,
        "time": 137.5,
        "duration": 0.5,
        "velocity": 0.26,
        "hand": "right"
      },
      {
        "midi": 77,
        "time": 137.5,
        "duration": 0.5,
        "velocity": 0.71,
        "hand": "right"
      },
      {
        "midi": 47,
        "time": 138,
        "duration": 0.5,
        "velocity": 0.26,
        "hand": "left"
      },
      {
        "midi": 77,
        "time": 138,
        "duration": 0.5,
        "velocity": 0.71,
        "hand": "right"
      },
      {
        "midi": 56,
        "time": 138.5,
        "duration": 0.5,
        "velocity": 0.26,
        "hand": "left"
      },
      {
        "midi": 63,
        "time": 138.5,
        "duration": 0.5,
        "velocity": 0.26,
        "hand": "right"
      },
      {
        "midi": 68,
        "time": 138.5,
        "duration": 0.5,
        "velocity": 0.26,
        "hand": "right"
      },
      {
        "midi": 78,
        "time": 138.5,
        "duration": 0.25,
        "velocity": 0.71,
        "hand": "right"
      },
      {
        "midi": 77,
        "time": 138.75,
        "duration": 0.25,
        "velocity": 0.71,
        "hand": "right"
      },
      {
        "midi": 53,
        "time": 139,
        "duration": 0.5,
        "velocity": 0.26,
        "hand": "left"
      },
      {
        "midi": 56,
        "time": 139,
        "duration": 0.5,
        "velocity": 0.26,
        "hand": "left"
      },
      {
        "midi": 63,
        "time": 139,
        "duration": 0.5,
        "velocity": 0.26,
        "hand": "right"
      },
      {
        "midi": 75,
        "time": 139,
        "duration": 0.25,
        "velocity": 0.71,
        "hand": "right"
      },
      {
        "midi": 68,
        "time": 139.25,
        "duration": 0.25,
        "velocity": 0.71,
        "hand": "right"
      },
      {
        "midi": 41,
        "time": 139.5,
        "duration": 0.5,
        "velocity": 0.26,
        "hand": "left"
      },
      {
        "midi": 83,
        "time": 139.5,
        "duration": 1.5,
        "velocity": 0.71,
        "hand": "right"
      },
      {
        "midi": 56,
        "time": 140,
        "duration": 0.5,
        "velocity": 0.26,
        "hand": "left"
      },
      {
        "midi": 63,
        "time": 140,
        "duration": 0.5,
        "velocity": 0.26,
        "hand": "right"
      },
      {
        "midi": 68,
        "time": 140,
        "duration": 0.5,
        "velocity": 0.26,
        "hand": "right"
      },
      {
        "midi": 53,
        "time": 140.5,
        "duration": 0.5,
        "velocity": 0.26,
        "hand": "left"
      },
      {
        "midi": 56,
        "time": 140.5,
        "duration": 0.5,
        "velocity": 0.26,
        "hand": "left"
      },
      {
        "midi": 63,
        "time": 140.5,
        "duration": 0.5,
        "velocity": 0.26,
        "hand": "right"
      },
      {
        "midi": 46,
        "time": 141,
        "duration": 0.5,
        "velocity": 0.26,
        "hand": "left"
      },
      {
        "midi": 56,
        "time": 141.5,
        "duration": 0.5,
        "velocity": 0.26,
        "hand": "left"
      },
      {
        "midi": 62,
        "time": 141.5,
        "duration": 0.5,
        "velocity": 0.26,
        "hand": "right"
      },
      {
        "midi": 74,
        "time": 141.5,
        "duration": 0.25,
        "velocity": 0.71,
        "hand": "right"
      },
      {
        "midi": 75,
        "time": 141.75,
        "duration": 0.25,
        "velocity": 0.71,
        "hand": "right"
      },
      {
        "midi": 62,
        "time": 142,
        "duration": 0.5,
        "velocity": 0.26,
        "hand": "right"
      },
      {
        "midi": 68,
        "time": 142,
        "duration": 0.5,
        "velocity": 0.26,
        "hand": "right"
      },
      {
        "midi": 74,
        "time": 142,
        "duration": 0.25,
        "velocity": 0.71,
        "hand": "right"
      },
      {
        "midi": 75,
        "time": 142.25,
        "duration": 0.25,
        "velocity": 0.71,
        "hand": "right"
      },
      {
        "midi": 47,
        "time": 142.5,
        "duration": 0.5,
        "velocity": 0.26,
        "hand": "left"
      },
      {
        "midi": 77,
        "time": 142.5,
        "duration": 0.5,
        "velocity": 0.71,
        "hand": "right"
      },
      {
        "midi": 56,
        "time": 143,
        "duration": 0.5,
        "velocity": 0.26,
        "hand": "left"
      },
      {
        "midi": 63,
        "time": 143,
        "duration": 0.5,
        "velocity": 0.26,
        "hand": "right"
      },
      {
        "midi": 68,
        "time": 143,
        "duration": 0.5,
        "velocity": 0.26,
        "hand": "right"
      },
      {
        "midi": 77,
        "time": 143,
        "duration": 0.5,
        "velocity": 0.71,
        "hand": "right"
      },
      {
        "midi": 53,
        "time": 143.5,
        "duration": 0.5,
        "velocity": 0.26,
        "hand": "left"
      },
      {
        "midi": 56,
        "time": 143.5,
        "duration": 0.5,
        "velocity": 0.26,
        "hand": "left"
      },
      {
        "midi": 63,
        "time": 143.5,
        "duration": 0.5,
        "velocity": 0.26,
        "hand": "right"
      },
      {
        "midi": 77,
        "time": 143.5,
        "duration": 0.5,
        "velocity": 0.71,
        "hand": "right"
      },
      {
        "midi": 48,
        "time": 144,
        "duration": 0.5,
        "velocity": 0.26,
        "hand": "left"
      },
      {
        "midi": 77,
        "time": 144,
        "duration": 0.5,
        "velocity": 0.71,
        "hand": "right"
      },
      {
        "midi": 57,
        "time": 144.5,
        "duration": 0.5,
        "velocity": 0.26,
        "hand": "left"
      },
      {
        "midi": 63,
        "time": 144.5,
        "duration": 0.5,
        "velocity": 0.26,
        "hand": "right"
      },
      {
        "midi": 69,
        "time": 144.5,
        "duration": 0.5,
        "velocity": 0.26,
        "hand": "right"
      },
      {
        "midi": 78,
        "time": 144.5,
        "duration": 0.25,
        "velocity": 0.71,
        "hand": "right"
      },
      {
        "midi": 77,
        "time": 144.75,
        "duration": 0.25,
        "velocity": 0.71,
        "hand": "right"
      },
      {
        "midi": 53,
        "time": 145,
        "duration": 0.5,
        "velocity": 0.26,
        "hand": "left"
      },
      {
        "midi": 57,
        "time": 145,
        "duration": 0.5,
        "velocity": 0.26,
        "hand": "left"
      },
      {
        "midi": 63,
        "time": 145,
        "duration": 0.5,
        "velocity": 0.26,
        "hand": "right"
      },
      {
        "midi": 75,
        "time": 145,
        "duration": 0.25,
        "velocity": 0.71,
        "hand": "right"
      },
      {
        "midi": 69,
        "time": 145.25,
        "duration": 0.25,
        "velocity": 0.71,
        "hand": "right"
      },
      {
        "midi": 41,
        "time": 145.5,
        "duration": 0.5,
        "velocity": 0.26,
        "hand": "left"
      },
      {
        "midi": 84,
        "time": 145.5,
        "duration": 1.5,
        "velocity": 0.71,
        "hand": "right"
      },
      {
        "midi": 57,
        "time": 146,
        "duration": 0.5,
        "velocity": 0.26,
        "hand": "left"
      },
      {
        "midi": 63,
        "time": 146,
        "duration": 0.5,
        "velocity": 0.26,
        "hand": "right"
      },
      {
        "midi": 69,
        "time": 146,
        "duration": 0.5,
        "velocity": 0.26,
        "hand": "right"
      },
      {
        "midi": 53,
        "time": 146.5,
        "duration": 0.5,
        "velocity": 0.26,
        "hand": "left"
      },
      {
        "midi": 57,
        "time": 146.5,
        "duration": 0.5,
        "velocity": 0.26,
        "hand": "left"
      },
      {
        "midi": 63,
        "time": 146.5,
        "duration": 0.5,
        "velocity": 0.26,
        "hand": "right"
      },
      {
        "midi": 46,
        "time": 147,
        "duration": 0.5,
        "velocity": 0.26,
        "hand": "left"
      },
      {
        "midi": 82,
        "time": 147,
        "duration": 1.5,
        "velocity": 0.71,
        "hand": "right"
      },
      {
        "midi": 58,
        "time": 147.5,
        "duration": 0.5,
        "velocity": 0.26,
        "hand": "left"
      },
      {
        "midi": 62,
        "time": 147.5,
        "duration": 0.5,
        "velocity": 0.26,
        "hand": "right"
      },
      {
        "midi": 68,
        "time": 147.5,
        "duration": 0.5,
        "velocity": 0.26,
        "hand": "right"
      },
      {
        "midi": 53,
        "time": 148,
        "duration": 0.5,
        "velocity": 0.26,
        "hand": "left"
      },
      {
        "midi": 58,
        "time": 148,
        "duration": 0.5,
        "velocity": 0.26,
        "hand": "left"
      },
      {
        "midi": 62,
        "time": 148,
        "duration": 0.5,
        "velocity": 0.26,
        "hand": "right"
      },
      {
        "midi": 39,
        "time": 148.5,
        "duration": 0.5,
        "velocity": 0.26,
        "hand": "left"
      },
      {
        "midi": 73,
        "time": 148.5,
        "duration": 1.5,
        "velocity": 0.71,
        "hand": "right"
      },
      {
        "midi": 79,
        "time": 148.5,
        "duration": 1.5,
        "velocity": 0.71,
        "hand": "right"
      },
      {
        "midi": 58,
        "time": 149,
        "duration": 0.5,
        "velocity": 0.26,
        "hand": "left"
      },
      {
        "midi": 61,
        "time": 149,
        "duration": 0.5,
        "velocity": 0.26,
        "hand": "right"
      },
      {
        "midi": 67,
        "time": 149,
        "duration": 0.5,
        "velocity": 0.26,
        "hand": "right"
      },
      {
        "midi": 51,
        "time": 149.5,
        "duration": 0.5,
        "velocity": 0.26,
        "hand": "left"
      },
      {
        "midi": 58,
        "time": 149.5,
        "duration": 0.5,
        "velocity": 0.26,
        "hand": "left"
      },
      {
        "midi": 61,
        "time": 149.5,
        "duration": 0.5,
        "velocity": 0.26,
        "hand": "right"
      },
      {
        "midi": 44,
        "time": 150,
        "duration": 0.5,
        "velocity": 0.26,
        "hand": "left"
      },
      {
        "midi": 73,
        "time": 150,
        "duration": 0.5,
        "velocity": 0.71,
        "hand": "right"
      },
      {
        "midi": 82,
        "time": 150,
        "duration": 0.5,
        "velocity": 0.71,
        "hand": "right"
      },
      {
        "midi": 56,
        "time": 150.5,
        "duration": 0.5,
        "velocity": 0.26,
        "hand": "left"
      },
      {
        "midi": 63,
        "time": 150.5,
        "duration": 0.5,
        "velocity": 0.26,
        "hand": "right"
      },
      {
        "midi": 66,
        "time": 150.5,
        "duration": 0.5,
        "velocity": 0.26,
        "hand": "right"
      },
      {
        "midi": 72,
        "time": 150.5,
        "duration": 1,
        "velocity": 0.71,
        "hand": "right"
      },
      {
        "midi": 80,
        "time": 150.5,
        "duration": 0.25,
        "velocity": 0.71,
        "hand": "right"
      },
      {
        "midi": 75,
        "time": 150.75,
        "duration": 0.25,
        "velocity": 0.71,
        "hand": "right"
      },
      {
        "midi": 51,
        "time": 151,
        "duration": 0.5,
        "velocity": 0.26,
        "hand": "left"
      },
      {
        "midi": 56,
        "time": 151,
        "duration": 0.5,
        "velocity": 0.26,
        "hand": "left"
      },
      {
        "midi": 60,
        "time": 151,
        "duration": 0.5,
        "velocity": 0.26,
        "hand": "right"
      },
      {
        "midi": 80,
        "time": 151,
        "duration": 0.25,
        "velocity": 0.71,
        "hand": "right"
      },
      {
        "midi": 78,
        "time": 151.25,
        "duration": 0.25,
        "velocity": 0.71,
        "hand": "right"
      },
      {
        "midi": 37,
        "time": 151.5,
        "duration": 0.5,
        "velocity": 0.26,
        "hand": "left"
      },
      {
        "midi": 75,
        "time": 151.5,
        "duration": 0.5,
        "velocity": 0.71,
        "hand": "right"
      },
      {
        "midi": 78,
        "time": 151.5,
        "duration": 0.5,
        "velocity": 0.71,
        "hand": "right"
      },
      {
        "midi": 56,
        "time": 152,
        "duration": 0.5,
        "velocity": 0.26,
        "hand": "left"
      },
      {
        "midi": 61,
        "time": 152,
        "duration": 0.5,
        "velocity": 0.26,
        "hand": "right"
      },
      {
        "midi": 65,
        "time": 152,
        "duration": 0.5,
        "velocity": 0.26,
        "hand": "right"
      },
      {
        "midi": 73,
        "time": 152,
        "duration": 0.25,
        "velocity": 0.71,
        "hand": "right"
      },
      {
        "midi": 77,
        "time": 152,
        "duration": 1,
        "velocity": 0.71,
        "hand": "right"
      },
      {
        "midi": 68,
        "time": 152.25,
        "duration": 0.25,
        "velocity": 0.71,
        "hand": "right"
      },
      {
        "midi": 53,
        "time": 152.5,
        "duration": 0.5,
        "velocity": 0.26,
        "hand": "left"
      },
      {
        "midi": 56,
        "time": 152.5,
        "duration": 0.5,
        "velocity": 0.26,
        "hand": "left"
      },
      {
        "midi": 61,
        "time": 152.5,
        "duration": 0.5,
        "velocity": 0.26,
        "hand": "right"
      },
      {
        "midi": 73,
        "time": 152.5,
        "duration": 0.25,
        "velocity": 0.71,
        "hand": "right"
      },
      {
        "midi": 72,
        "time": 152.75,
        "duration": 0.25,
        "velocity": 0.71,
        "hand": "right"
      },
      {
        "midi": 42,
        "time": 153,
        "duration": 0.5,
        "velocity": 0.26,
        "hand": "left"
      },
      {
        "midi": 72,
        "time": 153,
        "duration": 0.5,
        "velocity": 0.71,
        "hand": "right"
      },
      {
        "midi": 80,
        "time": 153,
        "duration": 0.5,
        "velocity": 0.71,
        "hand": "right"
      },
      {
        "midi": 58,
        "time": 153.5,
        "duration": 0.5,
        "velocity": 0.26,
        "hand": "left"
      },
      {
        "midi": 61,
        "time": 153.5,
        "duration": 0.5,
        "velocity": 0.26,
        "hand": "right"
      },
      {
        "midi": 65,
        "time": 153.5,
        "duration": 0.5,
        "velocity": 0.26,
        "hand": "right"
      },
      {
        "midi": 70,
        "time": 153.5,
        "duration": 1,
        "velocity": 0.71,
        "hand": "right"
      },
      {
        "midi": 78,
        "time": 153.5,
        "duration": 0.25,
        "velocity": 0.71,
        "hand": "right"
      },
      {
        "midi": 73,
        "time": 153.75,
        "duration": 0.25,
        "velocity": 0.71,
        "hand": "right"
      },
      {
        "midi": 54,
        "time": 154,
        "duration": 0.5,
        "velocity": 0.26,
        "hand": "left"
      },
      {
        "midi": 58,
        "time": 154,
        "duration": 0.5,
        "velocity": 0.26,
        "hand": "left"
      },
      {
        "midi": 61,
        "time": 154,
        "duration": 0.5,
        "velocity": 0.26,
        "hand": "right"
      },
      {
        "midi": 78,
        "time": 154,
        "duration": 0.25,
        "velocity": 0.71,
        "hand": "right"
      },
      {
        "midi": 77,
        "time": 154.25,
        "duration": 0.25,
        "velocity": 0.71,
        "hand": "right"
      },
      {
        "midi": 36,
        "time": 154.5,
        "duration": 0.5,
        "velocity": 0.26,
        "hand": "left"
      },
      {
        "midi": 70,
        "time": 154.5,
        "duration": 0.5,
        "velocity": 0.71,
        "hand": "right"
      },
      {
        "midi": 77,
        "time": 154.5,
        "duration": 0.5,
        "velocity": 0.71,
        "hand": "right"
      },
      {
        "midi": 54,
        "time": 155,
        "duration": 0.5,
        "velocity": 0.26,
        "hand": "left"
      },
      {
        "midi": 63,
        "time": 155,
        "duration": 0.5,
        "velocity": 0.26,
        "hand": "right"
      },
      {
        "midi": 72,
        "time": 155,
        "duration": 0.25,
        "velocity": 0.71,
        "hand": "right"
      },
      {
        "midi": 75,
        "time": 155,
        "duration": 0.25,
        "velocity": 0.71,
        "hand": "right"
      },
      {
        "midi": 73,
        "time": 155.25,
        "duration": 0.25,
        "velocity": 0.71,
        "hand": "right"
      },
      {
        "midi": 77,
        "time": 155.25,
        "duration": 0.25,
        "velocity": 0.71,
        "hand": "right"
      },
      {
        "midi": 70,
        "time": 155.5,
        "duration": 0.25,
        "velocity": 0.71,
        "hand": "right"
      },
      {
        "midi": 80,
        "time": 155.5,
        "duration": 0.25,
        "velocity": 0.71,
        "hand": "right"
      },
      {
        "midi": 72,
        "time": 155.75,
        "duration": 0.25,
        "velocity": 0.71,
        "hand": "right"
      },
      {
        "midi": 78,
        "time": 155.75,
        "duration": 0.25,
        "velocity": 0.71,
        "hand": "right"
      },
      {
        "midi": 41,
        "time": 156,
        "duration": 0.5,
        "velocity": 0.26,
        "hand": "left"
      },
      {
        "midi": 63,
        "time": 156,
        "duration": 0.5,
        "velocity": 0.71,
        "hand": "right"
      },
      {
        "midi": 69,
        "time": 156,
        "duration": 0.5,
        "velocity": 0.71,
        "hand": "right"
      },
      {
        "midi": 63,
        "time": 156.5,
        "duration": 0.25,
        "velocity": 0.26,
        "hand": "right"
      },
      {
        "midi": 66,
        "time": 156.5,
        "duration": 1.5,
        "velocity": 0.71,
        "hand": "right"
      },
      {
        "midi": 69,
        "time": 156.5,
        "duration": 2,
        "velocity": 0.71,
        "hand": "right"
      },
      {
        "midi": 72,
        "time": 156.5,
        "duration": 0.25,
        "velocity": 0.71,
        "hand": "right"
      },
      {
        "midi": 53,
        "time": 156.75,
        "duration": 0.25,
        "velocity": 0.26,
        "hand": "left"
      },
      {
        "midi": 73,
        "time": 156.75,
        "duration": 0.25,
        "velocity": 0.71,
        "hand": "right"
      },
      {
        "midi": 63,
        "time": 157,
        "duration": 0.25,
        "velocity": 0.26,
        "hand": "right"
      },
      {
        "midi": 72,
        "time": 157,
        "duration": 0.25,
        "velocity": 0.71,
        "hand": "right"
      },
      {
        "midi": 61,
        "time": 157.25,
        "duration": 0.25,
        "velocity": 0.26,
        "hand": "right"
      },
      {
        "midi": 73,
        "time": 157.25,
        "duration": 0.25,
        "velocity": 0.71,
        "hand": "right"
      },
      {
        "midi": 60,
        "time": 157.5,
        "duration": 1,
        "velocity": 0.26,
        "hand": "right"
      },
      {
        "midi": 75,
        "time": 157.5,
        "duration": 1,
        "velocity": 0.71,
        "hand": "right"
      },
      {
        "midi": 65,
        "time": 158,
        "duration": 1,
        "velocity": 0.71,
        "hand": "right"
      },
      {
        "midi": 58,
        "time": 158.5,
        "duration": 0.5,
        "velocity": 0.26,
        "hand": "left"
      },
      {
        "midi": 70,
        "time": 158.5,
        "duration": 0.5,
        "velocity": 0.71,
        "hand": "right"
      },
      {
        "midi": 73,
        "time": 158.5,
        "duration": 0.5,
        "velocity": 0.71,
        "hand": "right"
      },
      {
        "midi": 58,
        "time": 159,
        "duration": 0.5,
        "velocity": 0.26,
        "hand": "left"
      },
      {
        "midi": 65,
        "time": 159,
        "duration": 0.5,
        "velocity": 0.71,
        "hand": "right"
      },
      {
        "midi": 70,
        "time": 159,
        "duration": 0.5,
        "velocity": 0.71,
        "hand": "right"
      },
      {
        "midi": 73,
        "time": 159,
        "duration": 0.5,
        "velocity": 0.71,
        "hand": "right"
      },
      {
        "midi": 64,
        "time": 159.5,
        "duration": 0.25,
        "velocity": 0.26,
        "hand": "right"
      },
      {
        "midi": 67,
        "time": 159.5,
        "duration": 1.5,
        "velocity": 0.71,
        "hand": "right"
      },
      {
        "midi": 70,
        "time": 159.5,
        "duration": 0.25,
        "velocity": 0.71,
        "hand": "right"
      },
      {
        "midi": 73,
        "time": 159.5,
        "duration": 0.25,
        "velocity": 0.71,
        "hand": "right"
      },
      {
        "midi": 53,
        "time": 159.75,
        "duration": 0.25,
        "velocity": 0.26,
        "hand": "left"
      },
      {
        "midi": 72,
        "time": 159.75,
        "duration": 0.25,
        "velocity": 0.71,
        "hand": "right"
      },
      {
        "midi": 75,
        "time": 159.75,
        "duration": 0.25,
        "velocity": 0.71,
        "hand": "right"
      },
      {
        "midi": 64,
        "time": 160,
        "duration": 0.25,
        "velocity": 0.26,
        "hand": "right"
      },
      {
        "midi": 70,
        "time": 160,
        "duration": 0.25,
        "velocity": 0.71,
        "hand": "right"
      },
      {
        "midi": 73,
        "time": 160,
        "duration": 0.25,
        "velocity": 0.71,
        "hand": "right"
      },
      {
        "midi": 63,
        "time": 160.25,
        "duration": 0.25,
        "velocity": 0.26,
        "hand": "right"
      },
      {
        "midi": 72,
        "time": 160.25,
        "duration": 0.25,
        "velocity": 0.71,
        "hand": "right"
      },
      {
        "midi": 75,
        "time": 160.25,
        "duration": 0.25,
        "velocity": 0.71,
        "hand": "right"
      },
      {
        "midi": 61,
        "time": 160.5,
        "duration": 1,
        "velocity": 0.26,
        "hand": "right"
      },
      {
        "midi": 70,
        "time": 160.5,
        "duration": 1,
        "velocity": 0.71,
        "hand": "right"
      },
      {
        "midi": 76,
        "time": 160.5,
        "duration": 1,
        "velocity": 0.71,
        "hand": "right"
      },
      {
        "midi": 66,
        "time": 161,
        "duration": 1,
        "velocity": 0.71,
        "hand": "right"
      },
      {
        "midi": 60,
        "time": 161.5,
        "duration": 0.5,
        "velocity": 0.26,
        "hand": "right"
      },
      {
        "midi": 70,
        "time": 161.5,
        "duration": 0.5,
        "velocity": 0.71,
        "hand": "right"
      },
      {
        "midi": 75,
        "time": 161.5,
        "duration": 0.5,
        "velocity": 0.71,
        "hand": "right"
      },
      {
        "midi": 60,
        "time": 162,
        "duration": 0.5,
        "velocity": 0.26,
        "hand": "right"
      },
      {
        "midi": 66,
        "time": 162,
        "duration": 0.5,
        "velocity": 0.71,
        "hand": "right"
      },
      {
        "midi": 70,
        "time": 162,
        "duration": 0.5,
        "velocity": 0.71,
        "hand": "right"
      },
      {
        "midi": 75,
        "time": 162,
        "duration": 0.5,
        "velocity": 0.71,
        "hand": "right"
      },
      {
        "midi": 75,
        "time": 162.5,
        "duration": 0.25,
        "velocity": 0.71,
        "hand": "right"
      },
      {
        "midi": 77,
        "time": 162.75,
        "duration": 0.25,
        "velocity": 0.71,
        "hand": "right"
      },
      {
        "midi": 75,
        "time": 163,
        "duration": 0.25,
        "velocity": 0.71,
        "hand": "right"
      },
      {
        "midi": 77,
        "time": 163.25,
        "duration": 0.25,
        "velocity": 0.71,
        "hand": "right"
      },
      {
        "midi": 78,
        "time": 163.5,
        "duration": 0.5,
        "velocity": 0.71,
        "hand": "right"
      },
      {
        "midi": 78,
        "time": 164,
        "duration": 0.5,
        "velocity": 0.71,
        "hand": "right"
      },
      {
        "midi": 78,
        "time": 164.5,
        "duration": 0.5,
        "velocity": 0.71,
        "hand": "right"
      },
      {
        "midi": 78,
        "time": 165,
        "duration": 2,
        "velocity": 0.71,
        "hand": "right"
      },
      {
        "midi": 41,
        "time": 166.5,
        "duration": 0.5,
        "velocity": 0.26,
        "hand": "left"
      },
      {
        "midi": 63,
        "time": 167,
        "duration": 0.5,
        "velocity": 0.26,
        "hand": "right"
      },
      {
        "midi": 69,
        "time": 167,
        "duration": 0.5,
        "velocity": 0.26,
        "hand": "right"
      },
      {
        "midi": 77,
        "time": 167,
        "duration": 0.25,
        "velocity": 0.71,
        "hand": "right"
      },
      {
        "midi": 72,
        "time": 167.25,
        "duration": 0.25,
        "velocity": 0.71,
        "hand": "right"
      },
      {
        "midi": 57,
        "time": 167.5,
        "duration": 0.5,
        "velocity": 0.26,
        "hand": "left"
      },
      {
        "midi": 63,
        "time": 167.5,
        "duration": 0.5,
        "velocity": 0.26,
        "hand": "right"
      },
      {
        "midi": 65,
        "time": 167.5,
        "duration": 0.5,
        "velocity": 0.26,
        "hand": "right"
      },
      {
        "midi": 75,
        "time": 167.5,
        "duration": 0.25,
        "velocity": 0.71,
        "hand": "right"
      },
      {
        "midi": 73,
        "time": 167.75,
        "duration": 0.25,
        "velocity": 0.71,
        "hand": "right"
      },
      {
        "midi": 46,
        "time": 168,
        "duration": 0.5,
        "velocity": 0.26,
        "hand": "left"
      },
      {
        "midi": 70,
        "time": 168,
        "duration": 1.5,
        "velocity": 0.71,
        "hand": "right"
      },
      {
        "midi": 58,
        "time": 168.5,
        "duration": 0.5,
        "velocity": 0.26,
        "hand": "left"
      },
      {
        "midi": 61,
        "time": 168.5,
        "duration": 0.5,
        "velocity": 0.26,
        "hand": "right"
      },
      {
        "midi": 65,
        "time": 168.5,
        "duration": 0.5,
        "velocity": 0.26,
        "hand": "right"
      },
      {
        "midi": 53,
        "time": 169,
        "duration": 0.5,
        "velocity": 0.26,
        "hand": "left"
      },
      {
        "midi": 58,
        "time": 169,
        "duration": 0.5,
        "velocity": 0.26,
        "hand": "left"
      },
      {
        "midi": 61,
        "time": 169,
        "duration": 0.5,
        "velocity": 0.26,
        "hand": "right"
      },
      {
        "midi": 48,
        "time": 169.5,
        "duration": 0.5,
        "velocity": 0.26,
        "hand": "left"
      },
      {
        "midi": 67,
        "time": 169.5,
        "duration": 0.5,
        "velocity": 0.71,
        "hand": "right"
      },
      {
        "midi": 58,
        "time": 170,
        "duration": 0.5,
        "velocity": 0.26,
        "hand": "left"
      },
      {
        "midi": 60,
        "time": 170,
        "duration": 0.5,
        "velocity": 0.26,
        "hand": "right"
      },
      {
        "midi": 64,
        "time": 170,
        "duration": 0.5,
        "velocity": 0.26,
        "hand": "right"
      },
      {
        "midi": 52,
        "time": 170.5,
        "duration": 0.5,
        "velocity": 0.26,
        "hand": "left"
      },
      {
        "midi": 58,
        "time": 170.5,
        "duration": 0.5,
        "velocity": 0.26,
        "hand": "left"
      },
      {
        "midi": 60,
        "time": 170.5,
        "duration": 0.5,
        "velocity": 0.26,
        "hand": "right"
      },
      {
        "midi": 41,
        "time": 171,
        "duration": 0.5,
        "velocity": 0.26,
        "hand": "left"
      },
      {
        "midi": 68,
        "time": 171.25,
        "duration": 0.25,
        "velocity": 0.71,
        "hand": "right"
      },
      {
        "midi": 53,
        "time": 171.5,
        "duration": 0.5,
        "velocity": 0.26,
        "hand": "left"
      },
      {
        "midi": 56,
        "time": 171.5,
        "duration": 0.5,
        "velocity": 0.26,
        "hand": "left"
      },
      {
        "midi": 60,
        "time": 171.5,
        "duration": 0.5,
        "velocity": 0.26,
        "hand": "right"
      },
      {
        "midi": 68,
        "time": 171.5,
        "duration": 0.25,
        "velocity": 0.71,
        "hand": "right"
      },
      {
        "midi": 72,
        "time": 171.5,
        "duration": 0.5,
        "velocity": 0.71,
        "hand": "right"
      },
      {
        "midi": 67,
        "time": 171.75,
        "duration": 0.25,
        "velocity": 0.71,
        "hand": "right"
      },
      {
        "midi": 56,
        "time": 172,
        "duration": 0.5,
        "velocity": 0.26,
        "hand": "left"
      },
      {
        "midi": 60,
        "time": 172,
        "duration": 0.5,
        "velocity": 0.26,
        "hand": "right"
      },
      {
        "midi": 67,
        "time": 172,
        "duration": 0.25,
        "velocity": 0.71,
        "hand": "right"
      },
      {
        "midi": 68,
        "time": 172,
        "duration": 0.5,
        "velocity": 0.26,
        "hand": "right"
      },
      {
        "midi": 72,
        "time": 172,
        "duration": 0.5,
        "velocity": 0.71,
        "hand": "right"
      },
      {
        "midi": 77,
        "time": 172,
        "duration": 0.5,
        "velocity": 0.71,
        "hand": "right"
      },
      {
        "midi": 65,
        "time": 172.25,
        "duration": 0.25,
        "velocity": 0.71,
        "hand": "right"
      },
      {
        "midi": 41,
        "time": 172.5,
        "duration": 0.5,
        "velocity": 0.26,
        "hand": "left"
      },
      {
        "midi": 49,
        "time": 172.5,
        "duration": 0.5,
        "velocity": 0.26,
        "hand": "left"
      },
      {
        "midi": 55,
        "time": 172.5,
        "duration": 0.5,
        "velocity": 0.26,
        "hand": "left"
      },
      {
        "midi": 70,
        "time": 172.5,
        "duration": 0.25,
        "velocity": 0.71,
        "hand": "right"
      },
      {
        "midi": 73,
        "time": 172.5,
        "duration": 0.25,
        "velocity": 0.71,
        "hand": "right"
      },
      {
        "midi": 76,
        "time": 172.5,
        "duration": 0.5,
        "velocity": 0.71,
        "hand": "right"
      },
      {
        "midi": 68,
        "time": 172.75,
        "duration": 0.25,
        "velocity": 0.71,
        "hand": "right"
      },
      {
        "midi": 53,
        "time": 173,
        "duration": 0.5,
        "velocity": 0.26,
        "hand": "left"
      },
      {
        "midi": 58,
        "time": 173,
        "duration": 0.5,
        "velocity": 0.26,
        "hand": "left"
      },
      {
        "midi": 61,
        "time": 173,
        "duration": 0.5,
        "velocity": 0.26,
        "hand": "right"
      },
      {
        "midi": 67,
        "time": 173,
        "duration": 0.25,
        "velocity": 0.71,
        "hand": "right"
      },
      {
        "midi": 70,
        "time": 173,
        "duration": 0.5,
        "velocity": 0.71,
        "hand": "right"
      },
      {
        "midi": 65,
        "time": 173.25,
        "duration": 0.25,
        "velocity": 0.71,
        "hand": "right"
      },
      {
        "midi": 58,
        "time": 173.5,
        "duration": 0.5,
        "velocity": 0.26,
        "hand": "left"
      },
      {
        "midi": 61,
        "time": 173.5,
        "duration": 0.5,
        "velocity": 0.26,
        "hand": "right"
      },
      {
        "midi": 64,
        "time": 173.5,
        "duration": 0.25,
        "velocity": 0.71,
        "hand": "right"
      },
      {
        "midi": 67,
        "time": 173.5,
        "duration": 0.5,
        "velocity": 0.26,
        "hand": "right"
      },
      {
        "midi": 73,
        "time": 173.5,
        "duration": 1,
        "velocity": 0.71,
        "hand": "right"
      },
      {
        "midi": 70,
        "time": 173.75,
        "duration": 0.25,
        "velocity": 0.71,
        "hand": "right"
      },
      {
        "midi": 41,
        "time": 174,
        "duration": 0.5,
        "velocity": 0.26,
        "hand": "left"
      },
      {
        "midi": 53,
        "time": 174,
        "duration": 0.5,
        "velocity": 0.26,
        "hand": "left"
      },
      {
        "midi": 70,
        "time": 174,
        "duration": 0.25,
        "velocity": 0.71,
        "hand": "right"
      },
      {
        "midi": 68,
        "time": 174.25,
        "duration": 0.25,
        "velocity": 0.71,
        "hand": "right"
      },
      {
        "midi": 53,
        "time": 174.5,
        "duration": 0.5,
        "velocity": 0.26,
        "hand": "left"
      },
      {
        "midi": 56,
        "time": 174.5,
        "duration": 0.5,
        "velocity": 0.26,
        "hand": "left"
      },
      {
        "midi": 60,
        "time": 174.5,
        "duration": 0.5,
        "velocity": 0.26,
        "hand": "right"
      },
      {
        "midi": 68,
        "time": 174.5,
        "duration": 0.25,
        "velocity": 0.71,
        "hand": "right"
      },
      {
        "midi": 72,
        "time": 174.5,
        "duration": 0.5,
        "velocity": 0.71,
        "hand": "right"
      },
      {
        "midi": 67,
        "time": 174.75,
        "duration": 0.25,
        "velocity": 0.71,
        "hand": "right"
      },
      {
        "midi": 56,
        "time": 175,
        "duration": 0.5,
        "velocity": 0.26,
        "hand": "left"
      },
      {
        "midi": 60,
        "time": 175,
        "duration": 0.5,
        "velocity": 0.26,
        "hand": "right"
      },
      {
        "midi": 67,
        "time": 175,
        "duration": 0.25,
        "velocity": 0.71,
        "hand": "right"
      },
      {
        "midi": 68,
        "time": 175,
        "duration": 0.5,
        "velocity": 0.26,
        "hand": "right"
      },
      {
        "midi": 72,
        "time": 175,
        "duration": 0.5,
        "velocity": 0.71,
        "hand": "right"
      },
      {
        "midi": 77,
        "time": 175,
        "duration": 0.5,
        "velocity": 0.71,
        "hand": "right"
      },
      {
        "midi": 65,
        "time": 175.25,
        "duration": 0.25,
        "velocity": 0.71,
        "hand": "right"
      },
      {
        "midi": 41,
        "time": 175.5,
        "duration": 0.5,
        "velocity": 0.26,
        "hand": "left"
      },
      {
        "midi": 48,
        "time": 175.5,
        "duration": 0.5,
        "velocity": 0.26,
        "hand": "left"
      },
      {
        "midi": 55,
        "time": 175.5,
        "duration": 0.5,
        "velocity": 0.26,
        "hand": "left"
      },
      {
        "midi": 70,
        "time": 175.5,
        "duration": 0.25,
        "velocity": 0.71,
        "hand": "right"
      },
      {
        "midi": 73,
        "time": 175.5,
        "duration": 0.25,
        "velocity": 0.71,
        "hand": "right"
      },
      {
        "midi": 76,
        "time": 175.5,
        "duration": 0.5,
        "velocity": 0.71,
        "hand": "right"
      },
      {
        "midi": 68,
        "time": 175.75,
        "duration": 0.25,
        "velocity": 0.71,
        "hand": "right"
      },
      {
        "midi": 72,
        "time": 175.75,
        "duration": 0.25,
        "velocity": 0.71,
        "hand": "right"
      },
      {
        "midi": 53,
        "time": 176,
        "duration": 0.5,
        "velocity": 0.26,
        "hand": "left"
      },
      {
        "midi": 58,
        "time": 176,
        "duration": 0.5,
        "velocity": 0.26,
        "hand": "left"
      },
      {
        "midi": 61,
        "time": 176,
        "duration": 0.5,
        "velocity": 0.26,
        "hand": "right"
      },
      {
        "midi": 67,
        "time": 176,
        "duration": 0.25,
        "velocity": 0.71,
        "hand": "right"
      },
      {
        "midi": 70,
        "time": 176,
        "duration": 0.5,
        "velocity": 0.71,
        "hand": "right"
      },
      {
        "midi": 65,
        "time": 176.25,
        "duration": 0.25,
        "velocity": 0.71,
        "hand": "right"
      },
      {
        "midi": 68,
        "time": 176.25,
        "duration": 0.25,
        "velocity": 0.71,
        "hand": "right"
      },
      {
        "midi": 58,
        "time": 176.5,
        "duration": 0.5,
        "velocity": 0.26,
        "hand": "left"
      },
      {
        "midi": 61,
        "time": 176.5,
        "duration": 0.5,
        "velocity": 0.26,
        "hand": "right"
      },
      {
        "midi": 64,
        "time": 176.5,
        "duration": 0.25,
        "velocity": 0.71,
        "hand": "right"
      },
      {
        "midi": 67,
        "time": 176.5,
        "duration": 0.25,
        "velocity": 0.71,
        "hand": "right"
      },
      {
        "midi": 67,
        "time": 176.5,
        "duration": 0.5,
        "velocity": 0.26,
        "hand": "right"
      },
      {
        "midi": 73,
        "time": 176.5,
        "duration": 0.5,
        "velocity": 0.71,
        "hand": "right"
      },
      {
        "midi": 65,
        "time": 176.75,
        "duration": 0.25,
        "velocity": 0.71,
        "hand": "right"
      },
      {
        "midi": 70,
        "time": 176.75,
        "duration": 0.25,
        "velocity": 0.71,
        "hand": "right"
      },
      {
        "midi": 41,
        "time": 177,
        "duration": 0.5,
        "velocity": 0.71,
        "hand": "left"
      },
      {
        "midi": 48,
        "time": 177,
        "duration": 0.5,
        "velocity": 0.71,
        "hand": "left"
      },
      {
        "midi": 60,
        "time": 177,
        "duration": 0.5,
        "velocity": 0.71,
        "hand": "right"
      },
      {
        "midi": 67,
        "time": 177,
        "duration": 0.25,
        "velocity": 0.71,
        "hand": "right"
      },
      {
        "midi": 70,
        "time": 177,
        "duration": 0.25,
        "velocity": 0.71,
        "hand": "right"
      },
      {
        "midi": 72,
        "time": 177,
        "duration": 0.5,
        "velocity": 0.71,
        "hand": "right"
      },
      {
        "midi": 65,
        "time": 177.25,
        "duration": 0.25,
        "velocity": 0.71,
        "hand": "right"
      },
      {
        "midi": 68,
        "time": 177.25,
        "duration": 0.25,
        "velocity": 0.71,
        "hand": "right"
      },
      {
        "midi": 48,
        "time": 177.5,
        "duration": 0.5,
        "velocity": 0.71,
        "hand": "left"
      },
      {
        "midi": 53,
        "time": 177.5,
        "duration": 0.5,
        "velocity": 0.71,
        "hand": "left"
      },
      {
        "midi": 56,
        "time": 177.5,
        "duration": 0.5,
        "velocity": 0.71,
        "hand": "left"
      },
      {
        "midi": 60,
        "time": 177.5,
        "duration": 0.5,
        "velocity": 0.71,
        "hand": "right"
      },
      {
        "midi": 65,
        "time": 177.5,
        "duration": 0.5,
        "velocity": 0.71,
        "hand": "right"
      },
      {
        "midi": 68,
        "time": 177.5,
        "duration": 0.25,
        "velocity": 0.71,
        "hand": "right"
      },
      {
        "midi": 72,
        "time": 177.5,
        "duration": 0.25,
        "velocity": 0.71,
        "hand": "right"
      },
      {
        "midi": 70,
        "time": 177.75,
        "duration": 0.25,
        "velocity": 0.71,
        "hand": "right"
      },
      {
        "midi": 73,
        "time": 177.75,
        "duration": 0.25,
        "velocity": 0.71,
        "hand": "right"
      },
      {
        "midi": 40,
        "time": 178,
        "duration": 0.5,
        "velocity": 0.71,
        "hand": "left"
      },
      {
        "midi": 52,
        "time": 178,
        "duration": 0.5,
        "velocity": 0.71,
        "hand": "left"
      },
      {
        "midi": 64,
        "time": 178,
        "duration": 0.5,
        "velocity": 0.71,
        "hand": "right"
      },
      {
        "midi": 68,
        "time": 178,
        "duration": 0.25,
        "velocity": 0.71,
        "hand": "right"
      },
      {
        "midi": 72,
        "time": 178,
        "duration": 0.25,
        "velocity": 0.71,
        "hand": "right"
      },
      {
        "midi": 70,
        "time": 178.25,
        "duration": 0.25,
        "velocity": 0.71,
        "hand": "right"
      },
      {
        "midi": 73,
        "time": 178.25,
        "duration": 0.25,
        "velocity": 0.71,
        "hand": "right"
      },
      {
        "midi": 39,
        "time": 178.5,
        "duration": 0.5,
        "velocity": 0.71,
        "hand": "left"
      },
      {
        "midi": 51,
        "time": 178.5,
        "duration": 0.5,
        "velocity": 0.71,
        "hand": "left"
      },
      {
        "midi": 63,
        "time": 178.5,
        "duration": 0.5,
        "velocity": 0.71,
        "hand": "right"
      },
      {
        "midi": 68,
        "time": 178.5,
        "duration": 0.25,
        "velocity": 0.71,
        "hand": "right"
      },
      {
        "midi": 72,
        "time": 178.5,
        "duration": 0.25,
        "velocity": 0.71,
        "hand": "right"
      },
      {
        "midi": 75,
        "time": 178.5,
        "duration": 0.5,
        "velocity": 0.71,
        "hand": "right"
      },
      {
        "midi": 61,
        "time": 178.75,
        "duration": 0.25,
        "velocity": 0.71,
        "hand": "right"
      },
      {
        "midi": 70,
        "time": 178.75,
        "duration": 0.25,
        "velocity": 0.71,
        "hand": "right"
      },
      {
        "midi": 51,
        "time": 179,
        "duration": 0.5,
        "velocity": 0.71,
        "hand": "left"
      },
      {
        "midi": 61,
        "time": 179,
        "duration": 0.25,
        "velocity": 0.71,
        "hand": "right"
      },
      {
        "midi": 63,
        "time": 179,
        "duration": 0.5,
        "velocity": 0.71,
        "hand": "right"
      },
      {
        "midi": 70,
        "time": 179,
        "duration": 0.25,
        "velocity": 0.71,
        "hand": "right"
      },
      {
        "midi": 75,
        "time": 179,
        "duration": 0.5,
        "velocity": 0.71,
        "hand": "right"
      },
      {
        "midi": 60,
        "time": 179.25,
        "duration": 0.25,
        "velocity": 0.71,
        "hand": "right"
      },
      {
        "midi": 68,
        "time": 179.25,
        "duration": 0.25,
        "velocity": 0.71,
        "hand": "right"
      },
      {
        "midi": 51,
        "time": 179.5,
        "duration": 0.5,
        "velocity": 0.71,
        "hand": "left"
      },
      {
        "midi": 60,
        "time": 179.5,
        "duration": 0.25,
        "velocity": 0.71,
        "hand": "right"
      },
      {
        "midi": 63,
        "time": 179.5,
        "duration": 0.5,
        "velocity": 0.71,
        "hand": "right"
      },
      {
        "midi": 68,
        "time": 179.5,
        "duration": 0.25,
        "velocity": 0.71,
        "hand": "right"
      },
      {
        "midi": 75,
        "time": 179.5,
        "duration": 0.5,
        "velocity": 0.71,
        "hand": "right"
      },
      {
        "midi": 58,
        "time": 179.75,
        "duration": 0.25,
        "velocity": 0.71,
        "hand": "left"
      },
      {
        "midi": 67,
        "time": 179.75,
        "duration": 0.25,
        "velocity": 0.71,
        "hand": "right"
      },
      {
        "midi": 39,
        "time": 180,
        "duration": 0.5,
        "velocity": 0.71,
        "hand": "left"
      },
      {
        "midi": 61,
        "time": 180,
        "duration": 0.5,
        "velocity": 0.71,
        "hand": "right"
      },
      {
        "midi": 67,
        "time": 180,
        "duration": 0.25,
        "velocity": 0.71,
        "hand": "right"
      },
      {
        "midi": 75,
        "time": 180,
        "duration": 0.5,
        "velocity": 0.71,
        "hand": "right"
      },
      {
        "midi": 51,
        "time": 180.25,
        "duration": 0.25,
        "velocity": 0.71,
        "hand": "left"
      },
      {
        "midi": 65,
        "time": 180.25,
        "duration": 0.25,
        "velocity": 0.71,
        "hand": "right"
      },
      {
        "midi": 58,
        "time": 180.5,
        "duration": 0.25,
        "velocity": 0.71,
        "hand": "left"
      },
      {
        "midi": 65,
        "time": 180.5,
        "duration": 0.25,
        "velocity": 0.71,
        "hand": "right"
      },
      {
        "midi": 73,
        "time": 180.5,
        "duration": 0.25,
        "velocity": 0.71,
        "hand": "right"
      },
      {
        "midi": 63,
        "time": 180.75,
        "duration": 0.25,
        "velocity": 0.71,
        "hand": "right"
      },
      {
        "midi": 67,
        "time": 180.75,
        "duration": 0.25,
        "velocity": 0.71,
        "hand": "right"
      },
      {
        "midi": 72,
        "time": 180.75,
        "duration": 0.25,
        "velocity": 0.71,
        "hand": "right"
      },
      {
        "midi": 61,
        "time": 181,
        "duration": 0.25,
        "velocity": 0.71,
        "hand": "right"
      },
      {
        "midi": 65,
        "time": 181,
        "duration": 0.25,
        "velocity": 0.71,
        "hand": "right"
      },
      {
        "midi": 70,
        "time": 181,
        "duration": 0.25,
        "velocity": 0.71,
        "hand": "right"
      },
      {
        "midi": 63,
        "time": 181.25,
        "duration": 0.25,
        "velocity": 0.71,
        "hand": "right"
      },
      {
        "midi": 67,
        "time": 181.25,
        "duration": 0.25,
        "velocity": 0.71,
        "hand": "right"
      },
      {
        "midi": 72,
        "time": 181.25,
        "duration": 0.25,
        "velocity": 0.71,
        "hand": "right"
      },
      {
        "midi": 56,
        "time": 181.5,
        "duration": 0.75,
        "velocity": 0.71,
        "hand": "left"
      },
      {
        "midi": 61,
        "time": 181.5,
        "duration": 0.25,
        "velocity": 0.71,
        "hand": "right"
      },
      {
        "midi": 65,
        "time": 181.5,
        "duration": 0.25,
        "velocity": 0.71,
        "hand": "right"
      },
      {
        "midi": 68,
        "time": 181.5,
        "duration": 0.5,
        "velocity": 0.71,
        "hand": "right"
      },
      {
        "midi": 60,
        "time": 181.75,
        "duration": 0.25,
        "velocity": 0.71,
        "hand": "right"
      },
      {
        "midi": 63,
        "time": 181.75,
        "duration": 0.25,
        "velocity": 0.71,
        "hand": "right"
      },
      {
        "midi": 60,
        "time": 182,
        "duration": 0.25,
        "velocity": 0.71,
        "hand": "right"
      },
      {
        "midi": 63,
        "time": 182,
        "duration": 0.25,
        "velocity": 0.71,
        "hand": "right"
      },
      {
        "midi": 53,
        "time": 182.25,
        "duration": 0.25,
        "velocity": 0.71,
        "hand": "left"
      },
      {
        "midi": 59,
        "time": 182.25,
        "duration": 0.25,
        "velocity": 0.71,
        "hand": "left"
      },
      {
        "midi": 62,
        "time": 182.25,
        "duration": 0.25,
        "velocity": 0.71,
        "hand": "right"
      },
      {
        "midi": 53,
        "time": 182.5,
        "duration": 0.25,
        "velocity": 0.71,
        "hand": "left"
      },
      {
        "midi": 59,
        "time": 182.5,
        "duration": 0.25,
        "velocity": 0.71,
        "hand": "left"
      },
      {
        "midi": 62,
        "time": 182.5,
        "duration": 0.25,
        "velocity": 0.71,
        "hand": "right"
      },
      {
        "midi": 52,
        "time": 182.75,
        "duration": 0.25,
        "velocity": 0.71,
        "hand": "left"
      },
      {
        "midi": 56,
        "time": 182.75,
        "duration": 0.25,
        "velocity": 0.71,
        "hand": "left"
      },
      {
        "midi": 61,
        "time": 182.75,
        "duration": 0.25,
        "velocity": 0.71,
        "hand": "right"
      },
      {
        "midi": 52,
        "time": 183,
        "duration": 0.25,
        "velocity": 0.71,
        "hand": "left"
      },
      {
        "midi": 56,
        "time": 183,
        "duration": 0.75,
        "velocity": 0.71,
        "hand": "left"
      },
      {
        "midi": 61,
        "time": 183,
        "duration": 0.25,
        "velocity": 0.71,
        "hand": "right"
      },
      {
        "midi": 51,
        "time": 183.25,
        "duration": 0.25,
        "velocity": 0.71,
        "hand": "left"
      },
      {
        "midi": 60,
        "time": 183.25,
        "duration": 0.25,
        "velocity": 0.71,
        "hand": "right"
      },
      {
        "midi": 51,
        "time": 183.5,
        "duration": 0.25,
        "velocity": 0.71,
        "hand": "left"
      },
      {
        "midi": 60,
        "time": 183.5,
        "duration": 0.25,
        "velocity": 0.71,
        "hand": "right"
      },
      {
        "midi": 37,
        "time": 183.75,
        "duration": 0.25,
        "velocity": 0.71,
        "hand": "left"
      },
      {
        "midi": 49,
        "time": 183.75,
        "duration": 0.25,
        "velocity": 0.71,
        "hand": "left"
      },
      {
        "midi": 65,
        "time": 183.75,
        "duration": 0.25,
        "velocity": 0.71,
        "hand": "right"
      },
      {
        "midi": 36,
        "time": 184,
        "duration": 0.25,
        "velocity": 0.71,
        "hand": "left"
      },
      {
        "midi": 48,
        "time": 184,
        "duration": 0.25,
        "velocity": 0.71,
        "hand": "left"
      },
      {
        "midi": 63,
        "time": 184,
        "duration": 0.25,
        "velocity": 0.71,
        "hand": "right"
      },
      {
        "midi": 34,
        "time": 184.25,
        "duration": 0.25,
        "velocity": 0.71,
        "hand": "left"
      },
      {
        "midi": 46,
        "time": 184.25,
        "duration": 0.25,
        "velocity": 0.71,
        "hand": "left"
      },
      {
        "midi": 61,
        "time": 184.25,
        "duration": 0.25,
        "velocity": 0.71,
        "hand": "right"
      },
      {
        "midi": 67,
        "time": 184.25,
        "duration": 0.25,
        "velocity": 0.71,
        "hand": "right"
      },
      {
        "midi": 70,
        "time": 184.25,
        "duration": 0.25,
        "velocity": 0.71,
        "hand": "right"
      },
      {
        "midi": 32,
        "time": 184.5,
        "duration": 0.5,
        "velocity": 0.71,
        "hand": "left"
      },
      {
        "midi": 44,
        "time": 184.5,
        "duration": 0.5,
        "velocity": 0.71,
        "hand": "left"
      },
      {
        "midi": 60,
        "time": 184.5,
        "duration": 0.5,
        "velocity": 0.71,
        "hand": "right"
      },
      {
        "midi": 70,
        "time": 184.5,
        "duration": 0.25,
        "velocity": 0.71,
        "hand": "right"
      },
      {
        "midi": 72,
        "time": 184.5,
        "duration": 0.5,
        "velocity": 0.71,
        "hand": "right"
      },
      {
        "midi": 63,
        "time": 184.75,
        "duration": 0.25,
        "velocity": 0.71,
        "hand": "right"
      },
      {
        "midi": 51,
        "time": 185,
        "duration": 0.5,
        "velocity": 0.71,
        "hand": "left"
      },
      {
        "midi": 56,
        "time": 185,
        "duration": 0.5,
        "velocity": 0.71,
        "hand": "left"
      },
      {
        "midi": 60,
        "time": 185,
        "duration": 0.5,
        "velocity": 0.71,
        "hand": "right"
      },
      {
        "midi": 63,
        "time": 185,
        "duration": 0.25,
        "velocity": 0.71,
        "hand": "right"
      },
      {
        "midi": 72,
        "time": 185,
        "duration": 0.5,
        "velocity": 0.71,
        "hand": "right"
      },
      {
        "midi": 75,
        "time": 185,
        "duration": 0.5,
        "velocity": 0.71,
        "hand": "right"
      },
      {
        "midi": 70,
        "time": 185.25,
        "duration": 0.25,
        "velocity": 0.71,
        "hand": "right"
      },
      {
        "midi": 51,
        "time": 185.5,
        "duration": 0.5,
        "velocity": 0.71,
        "hand": "left"
      },
      {
        "midi": 56,
        "time": 185.5,
        "duration": 0.5,
        "velocity": 0.71,
        "hand": "left"
      },
      {
        "midi": 60,
        "time": 185.5,
        "duration": 0.5,
        "velocity": 0.71,
        "hand": "right"
      },
      {
        "midi": 63,
        "time": 185.5,
        "duration": 0.5,
        "velocity": 0.71,
        "hand": "right"
      },
      {
        "midi": 70,
        "time": 185.5,
        "duration": 0.25,
        "velocity": 0.71,
        "hand": "right"
      },
      {
        "midi": 72,
        "time": 185.5,
        "duration": 0.5,
        "velocity": 0.71,
        "hand": "right"
      },
      {
        "midi": 75,
        "time": 185.5,
        "duration": 0.5,
        "velocity": 0.71,
        "hand": "right"
      },
      {
        "midi": 80,
        "time": 185.5,
        "duration": 0.5,
        "velocity": 0.71,
        "hand": "right"
      },
      {
        "midi": 68,
        "time": 185.75,
        "duration": 0.25,
        "velocity": 0.71,
        "hand": "right"
      },
      {
        "midi": 44,
        "time": 186,
        "duration": 0.5,
        "velocity": 0.26,
        "hand": "left"
      },
      {
        "midi": 52,
        "time": 186,
        "duration": 0.5,
        "velocity": 0.26,
        "hand": "left"
      },
      {
        "midi": 58,
        "time": 186,
        "duration": 0.5,
        "velocity": 0.26,
        "hand": "left"
      },
      {
        "midi": 73,
        "time": 186,
        "duration": 0.25,
        "velocity": 0.71,
        "hand": "right"
      },
      {
        "midi": 76,
        "time": 186,
        "duration": 0.25,
        "velocity": 0.71,
        "hand": "right"
      },
      {
        "midi": 79,
        "time": 186,
        "duration": 0.5,
        "velocity": 0.71,
        "hand": "right"
      },
      {
        "midi": 72,
        "time": 186.25,
        "duration": 0.25,
        "velocity": 0.71,
        "hand": "right"
      },
      {
        "midi": 75,
        "time": 186.25,
        "duration": 0.25,
        "velocity": 0.71,
        "hand": "right"
      },
      {
        "midi": 52,
        "time": 186.5,
        "duration": 0.5,
        "velocity": 0.26,
        "hand": "left"
      },
      {
        "midi": 55,
        "time": 186.5,
        "duration": 0.5,
        "velocity": 0.26,
        "hand": "left"
      },
      {
        "midi": 58,
        "time": 186.5,
        "duration": 0.5,
        "velocity": 0.26,
        "hand": "left"
      },
      {
        "midi": 61,
        "time": 186.5,
        "duration": 0.5,
        "velocity": 0.26,
        "hand": "right"
      },
      {
        "midi": 70,
        "time": 186.5,
        "duration": 0.25,
        "velocity": 0.71,
        "hand": "right"
      },
      {
        "midi": 73,
        "time": 186.5,
        "duration": 0.5,
        "velocity": 0.71,
        "hand": "right"
      },
      {
        "midi": 68,
        "time": 186.75,
        "duration": 0.25,
        "velocity": 0.71,
        "hand": "right"
      },
      {
        "midi": 72,
        "time": 186.75,
        "duration": 0.25,
        "velocity": 0.71,
        "hand": "right"
      },
      {
        "midi": 55,
        "time": 187,
        "duration": 0.5,
        "velocity": 0.26,
        "hand": "left"
      },
      {
        "midi": 58,
        "time": 187,
        "duration": 0.5,
        "velocity": 0.26,
        "hand": "left"
      },
      {
        "midi": 61,
        "time": 187,
        "duration": 0.5,
        "velocity": 0.26,
        "hand": "right"
      },
      {
        "midi": 64,
        "time": 187,
        "duration": 0.5,
        "velocity": 0.26,
        "hand": "right"
      },
      {
        "midi": 67,
        "time": 187,
        "duration": 0.25,
        "velocity": 0.71,
        "hand": "right"
      },
      {
        "midi": 70,
        "time": 187,
        "duration": 0.25,
        "velocity": 0.71,
        "hand": "right"
      },
      {
        "midi": 76,
        "time": 187,
        "duration": 1,
        "velocity": 0.71,
        "hand": "right"
      },
      {
        "midi": 70,
        "time": 187.25,
        "duration": 0.25,
        "velocity": 0.71,
        "hand": "right"
      },
      {
        "midi": 73,
        "time": 187.25,
        "duration": 0.25,
        "velocity": 0.71,
        "hand": "right"
      },
      {
        "midi": 32,
        "time": 187.5,
        "duration": 0.5,
        "velocity": 0.26,
        "hand": "left"
      },
      {
        "midi": 44,
        "time": 187.5,
        "duration": 0.5,
        "velocity": 0.26,
        "hand": "left"
      },
      {
        "midi": 63,
        "time": 187.5,
        "duration": 0.5,
        "velocity": 0.71,
        "hand": "right"
      },
      {
        "midi": 73,
        "time": 187.5,
        "duration": 0.25,
        "velocity": 0.71,
        "hand": "right"
      },
      {
        "midi": 72,
        "time": 187.75,
        "duration": 0.25,
        "velocity": 0.71,
        "hand": "right"
      },
      {
        "midi": 51,
        "time": 188,
        "duration": 0.5,
        "velocity": 0.26,
        "hand": "left"
      },
      {
        "midi": 56,
        "time": 188,
        "duration": 0.5,
        "velocity": 0.26,
        "hand": "left"
      },
      {
        "midi": 60,
        "time": 188,
        "duration": 0.5,
        "velocity": 0.26,
        "hand": "right"
      },
      {
        "midi": 72,
        "time": 188,
        "duration": 0.25,
        "velocity": 0.71,
        "hand": "right"
      },
      {
        "midi": 75,
        "time": 188,
        "duration": 0.5,
        "velocity": 0.71,
        "hand": "right"
      },
      {
        "midi": 70,
        "time": 188.25,
        "duration": 0.25,
        "velocity": 0.71,
        "hand": "right"
      },
      {
        "midi": 73,
        "time": 188.25,
        "duration": 0.25,
        "velocity": 0.71,
        "hand": "right"
      },
      {
        "midi": 51,
        "time": 188.5,
        "duration": 0.5,
        "velocity": 0.26,
        "hand": "left"
      },
      {
        "midi": 56,
        "time": 188.5,
        "duration": 0.5,
        "velocity": 0.26,
        "hand": "left"
      },
      {
        "midi": 60,
        "time": 188.5,
        "duration": 0.5,
        "velocity": 0.26,
        "hand": "right"
      },
      {
        "midi": 63,
        "time": 188.5,
        "duration": 0.5,
        "velocity": 0.26,
        "hand": "right"
      },
      {
        "midi": 70,
        "time": 188.5,
        "duration": 0.25,
        "velocity": 0.71,
        "hand": "right"
      },
      {
        "midi": 73,
        "time": 188.5,
        "duration": 0.25,
        "velocity": 0.71,
        "hand": "right"
      },
      {
        "midi": 75,
        "time": 188.5,
        "duration": 0.5,
        "velocity": 0.71,
        "hand": "right"
      },
      {
        "midi": 80,
        "time": 188.5,
        "duration": 0.5,
        "velocity": 0.71,
        "hand": "right"
      },
      {
        "midi": 68,
        "time": 188.75,
        "duration": 0.25,
        "velocity": 0.71,
        "hand": "right"
      },
      {
        "midi": 72,
        "time": 188.75,
        "duration": 0.25,
        "velocity": 0.71,
        "hand": "right"
      },
      {
        "midi": 44,
        "time": 189,
        "duration": 0.5,
        "velocity": 0.26,
        "hand": "left"
      },
      {
        "midi": 52,
        "time": 189,
        "duration": 0.5,
        "velocity": 0.26,
        "hand": "left"
      },
      {
        "midi": 58,
        "time": 189,
        "duration": 0.5,
        "velocity": 0.26,
        "hand": "left"
      },
      {
        "midi": 73,
        "time": 189,
        "duration": 0.25,
        "velocity": 0.71,
        "hand": "right"
      },
      {
        "midi": 76,
        "time": 189,
        "duration": 0.25,
        "velocity": 0.71,
        "hand": "right"
      },
      {
        "midi": 79,
        "time": 189,
        "duration": 0.5,
        "velocity": 0.71,
        "hand": "right"
      },
      {
        "midi": 72,
        "time": 189.25,
        "duration": 0.25,
        "velocity": 0.71,
        "hand": "right"
      },
      {
        "midi": 75,
        "time": 189.25,
        "duration": 0.25,
        "velocity": 0.71,
        "hand": "right"
      },
      {
        "midi": 52,
        "time": 189.5,
        "duration": 0.5,
        "velocity": 0.26,
        "hand": "left"
      },
      {
        "midi": 55,
        "time": 189.5,
        "duration": 0.5,
        "velocity": 0.26,
        "hand": "left"
      },
      {
        "midi": 58,
        "time": 189.5,
        "duration": 0.5,
        "velocity": 0.26,
        "hand": "left"
      },
      {
        "midi": 61,
        "time": 189.5,
        "duration": 0.5,
        "velocity": 0.26,
        "hand": "right"
      },
      {
        "midi": 70,
        "time": 189.5,
        "duration": 0.25,
        "velocity": 0.71,
        "hand": "right"
      },
      {
        "midi": 73,
        "time": 189.5,
        "duration": 0.5,
        "velocity": 0.71,
        "hand": "right"
      },
      {
        "midi": 68,
        "time": 189.75,
        "duration": 0.25,
        "velocity": 0.71,
        "hand": "right"
      },
      {
        "midi": 72,
        "time": 189.75,
        "duration": 0.25,
        "velocity": 0.71,
        "hand": "right"
      },
      {
        "midi": 55,
        "time": 190,
        "duration": 0.5,
        "velocity": 0.26,
        "hand": "left"
      },
      {
        "midi": 58,
        "time": 190,
        "duration": 0.5,
        "velocity": 0.26,
        "hand": "left"
      },
      {
        "midi": 61,
        "time": 190,
        "duration": 0.5,
        "velocity": 0.26,
        "hand": "right"
      },
      {
        "midi": 64,
        "time": 190,
        "duration": 0.5,
        "velocity": 0.26,
        "hand": "right"
      },
      {
        "midi": 67,
        "time": 190,
        "duration": 0.25,
        "velocity": 0.71,
        "hand": "right"
      },
      {
        "midi": 70,
        "time": 190,
        "duration": 0.25,
        "velocity": 0.71,
        "hand": "right"
      },
      {
        "midi": 76,
        "time": 190,
        "duration": 0.5,
        "velocity": 0.71,
        "hand": "right"
      },
      {
        "midi": 70,
        "time": 190.25,
        "duration": 0.25,
        "velocity": 0.71,
        "hand": "right"
      },
      {
        "midi": 73,
        "time": 190.25,
        "duration": 0.25,
        "velocity": 0.71,
        "hand": "right"
      },
      {
        "midi": 32,
        "time": 190.5,
        "duration": 0.5,
        "velocity": 0.26,
        "hand": "left"
      },
      {
        "midi": 44,
        "time": 190.5,
        "duration": 0.5,
        "velocity": 0.26,
        "hand": "left"
      },
      {
        "midi": 63,
        "time": 190.5,
        "duration": 0.5,
        "velocity": 0.71,
        "hand": "right"
      },
      {
        "midi": 68,
        "time": 190.5,
        "duration": 0.25,
        "velocity": 0.71,
        "hand": "right"
      },
      {
        "midi": 72,
        "time": 190.5,
        "duration": 0.25,
        "velocity": 0.71,
        "hand": "right"
      },
      {
        "midi": 70,
        "time": 190.75,
        "duration": 0.25,
        "velocity": 0.71,
        "hand": "right"
      },
      {
        "midi": 73,
        "time": 190.75,
        "duration": 0.25,
        "velocity": 0.71,
        "hand": "right"
      },
      {
        "midi": 51,
        "time": 191,
        "duration": 0.5,
        "velocity": 0.26,
        "hand": "left"
      },
      {
        "midi": 56,
        "time": 191,
        "duration": 0.5,
        "velocity": 0.26,
        "hand": "left"
      },
      {
        "midi": 60,
        "time": 191,
        "duration": 0.5,
        "velocity": 0.26,
        "hand": "right"
      },
      {
        "midi": 63,
        "time": 191,
        "duration": 0.5,
        "velocity": 0.26,
        "hand": "right"
      },
      {
        "midi": 72,
        "time": 191,
        "duration": 0.25,
        "velocity": 0.71,
        "hand": "right"
      },
      {
        "midi": 75,
        "time": 191,
        "duration": 0.25,
        "velocity": 0.71,
        "hand": "right"
      },
      {
        "midi": 73,
        "time": 191.25,
        "duration": 0.25,
        "velocity": 0.71,
        "hand": "right"
      },
      {
        "midi": 77,
        "time": 191.25,
        "duration": 0.25,
        "velocity": 0.71,
        "hand": "right"
      },
      {
        "midi": 56,
        "time": 191.5,
        "duration": 0.5,
        "velocity": 0.26,
        "hand": "left"
      },
      {
        "midi": 60,
        "time": 191.5,
        "duration": 0.5,
        "velocity": 0.26,
        "hand": "right"
      },
      {
        "midi": 68,
        "time": 191.5,
        "duration": 0.5,
        "velocity": 0.26,
        "hand": "right"
      },
      {
        "midi": 72,
        "time": 191.5,
        "duration": 0.25,
        "velocity": 0.71,
        "hand": "right"
      },
      {
        "midi": 75,
        "time": 191.5,
        "duration": 0.25,
        "velocity": 0.71,
        "hand": "right"
      },
      {
        "midi": 73,
        "time": 191.75,
        "duration": 0.25,
        "velocity": 0.71,
        "hand": "right"
      },
      {
        "midi": 77,
        "time": 191.75,
        "duration": 0.25,
        "velocity": 0.71,
        "hand": "right"
      },
      {
        "midi": 39,
        "time": 192,
        "duration": 0.5,
        "velocity": 0.26,
        "hand": "left"
      },
      {
        "midi": 46,
        "time": 192,
        "duration": 0.5,
        "velocity": 0.26,
        "hand": "left"
      },
      {
        "midi": 51,
        "time": 192,
        "duration": 0.5,
        "velocity": 0.26,
        "hand": "left"
      },
      {
        "midi": 66,
        "time": 192,
        "duration": 0.5,
        "velocity": 0.71,
        "hand": "right"
      },
      {
        "midi": 75,
        "time": 192,
        "duration": 0.25,
        "velocity": 0.71,
        "hand": "right"
      },
      {
        "midi": 78,
        "time": 192,
        "duration": 0.5,
        "velocity": 0.71,
        "hand": "right"
      },
      {
        "midi": 77,
        "time": 192.25,
        "duration": 0.25,
        "velocity": 0.71,
        "hand": "right"
      },
      {
        "midi": 51,
        "time": 192.5,
        "duration": 0.5,
        "velocity": 0.26,
        "hand": "left"
      },
      {
        "midi": 54,
        "time": 192.5,
        "duration": 0.5,
        "velocity": 0.26,
        "hand": "left"
      },
      {
        "midi": 58,
        "time": 192.5,
        "duration": 0.5,
        "velocity": 0.26,
        "hand": "left"
      },
      {
        "midi": 60,
        "time": 192.5,
        "duration": 0.5,
        "velocity": 0.26,
        "hand": "right"
      },
      {
        "midi": 66,
        "time": 192.5,
        "duration": 0.5,
        "velocity": 0.71,
        "hand": "right"
      },
      {
        "midi": 75,
        "time": 192.5,
        "duration": 0.25,
        "velocity": 0.71,
        "hand": "right"
      },
      {
        "midi": 78,
        "time": 192.5,
        "duration": 0.5,
        "velocity": 0.71,
        "hand": "right"
      },
      {
        "midi": 73,
        "time": 192.75,
        "duration": 0.25,
        "velocity": 0.71,
        "hand": "right"
      },
      {
        "midi": 58,
        "time": 193,
        "duration": 0.5,
        "velocity": 0.26,
        "hand": "left"
      },
      {
        "midi": 60,
        "time": 193,
        "duration": 0.5,
        "velocity": 0.26,
        "hand": "right"
      },
      {
        "midi": 63,
        "time": 193,
        "duration": 0.5,
        "velocity": 0.26,
        "hand": "right"
      },
      {
        "midi": 66,
        "time": 193,
        "duration": 0.5,
        "velocity": 0.26,
        "hand": "right"
      },
      {
        "midi": 72,
        "time": 193,
        "duration": 0.25,
        "velocity": 0.71,
        "hand": "right"
      },
      {
        "midi": 75,
        "time": 193,
        "duration": 0.5,
        "velocity": 0.71,
        "hand": "right"
      },
      {
        "midi": 78,
        "time": 193,
        "duration": 0.5,
        "velocity": 0.71,
        "hand": "right"
      },
      {
        "midi": 70,
        "time": 193.25,
        "duration": 0.25,
        "velocity": 0.71,
        "hand": "right"
      },
      {
        "midi": 41,
        "time": 193.5,
        "duration": 0.25,
        "velocity": 0.26,
        "hand": "left"
      },
      {
        "midi": 63,
        "time": 193.5,
        "duration": 0.5,
        "velocity": 0.71,
        "hand": "right"
      },
      {
        "midi": 69,
        "time": 193.5,
        "duration": 1,
        "velocity": 0.71,
        "hand": "right"
      },
      {
        "midi": 78,
        "time": 193.5,
        "duration": 0.5,
        "velocity": 0.71,
        "hand": "right"
      },
      {
        "midi": 53,
        "time": 193.75,
        "duration": 0.25,
        "velocity": 0.71,
        "hand": "left"
      },
      {
        "midi": 60,
        "time": 194,
        "duration": 0.25,
        "velocity": 0.71,
        "hand": "right"
      },
      {
        "midi": 77,
        "time": 194,
        "duration": 0.25,
        "velocity": 0.48,
        "hand": "right"
      },
      {
        "midi": 63,
        "time": 194.25,
        "duration": 0.25,
        "velocity": 0.71,
        "hand": "right"
      },
      {
        "midi": 72,
        "time": 194.25,
        "duration": 0.25,
        "velocity": 0.48,
        "hand": "right"
      },
      {
        "midi": 53,
        "time": 194.5,
        "duration": 0.5,
        "velocity": 0.71,
        "hand": "left"
      },
      {
        "midi": 66,
        "time": 194.5,
        "duration": 0.25,
        "velocity": 0.71,
        "hand": "right"
      },
      {
        "midi": 69,
        "time": 194.5,
        "duration": 0.5,
        "velocity": 0.71,
        "hand": "right"
      },
      {
        "midi": 75,
        "time": 194.5,
        "duration": 0.25,
        "velocity": 0.48,
        "hand": "right"
      },
      {
        "midi": 65,
        "time": 194.75,
        "duration": 0.25,
        "velocity": 0.71,
        "hand": "right"
      },
      {
        "midi": 73,
        "time": 194.75,
        "duration": 0.25,
        "velocity": 0.48,
        "hand": "right"
      },
      {
        "midi": 58,
        "time": 195,
        "duration": 0.25,
        "velocity": 0.71,
        "hand": "left"
      },
      {
        "midi": 61,
        "time": 195,
        "duration": 0.25,
        "velocity": 0.71,
        "hand": "right"
      },
      {
        "midi": 65,
        "time": 195,
        "duration": 0.25,
        "velocity": 0.71,
        "hand": "right"
      },
      {
        "midi": 70,
        "time": 195,
        "duration": 1.25,
        "velocity": 0.48,
        "hand": "right"
      },
      {
        "midi": 54,
        "time": 195.25,
        "duration": 0.25,
        "velocity": 0.26,
        "hand": "left"
      },
      {
        "midi": 63,
        "time": 195.25,
        "duration": 0.25,
        "velocity": 0.71,
        "hand": "right"
      },
      {
        "midi": 53,
        "time": 195.5,
        "duration": 0.25,
        "velocity": 0.26,
        "hand": "left"
      },
      {
        "midi": 61,
        "time": 195.5,
        "duration": 0.25,
        "velocity": 0.71,
        "hand": "right"
      },
      {
        "midi": 39,
        "time": 195.75,
        "duration": 0.25,
        "velocity": 0.26,
        "hand": "left"
      },
      {
        "midi": 51,
        "time": 195.75,
        "duration": 0.25,
        "velocity": 0.26,
        "hand": "left"
      },
      {
        "midi": 58,
        "time": 195.75,
        "duration": 0.5,
        "velocity": 0.71,
        "hand": "left"
      },
      {
        "midi": 66,
        "time": 195.75,
        "duration": 0.25,
        "velocity": 0.71,
        "hand": "right"
      },
      {
        "midi": 37,
        "time": 196,
        "duration": 0.25,
        "velocity": 0.26,
        "hand": "left"
      },
      {
        "midi": 49,
        "time": 196,
        "duration": 0.25,
        "velocity": 0.26,
        "hand": "left"
      },
      {
        "midi": 65,
        "time": 196,
        "duration": 0.25,
        "velocity": 0.71,
        "hand": "right"
      },
      {
        "midi": 36,
        "time": 196.25,
        "duration": 0.25,
        "velocity": 0.26,
        "hand": "left"
      },
      {
        "midi": 48,
        "time": 196.25,
        "duration": 0.25,
        "velocity": 0.26,
        "hand": "left"
      },
      {
        "midi": 63,
        "time": 196.25,
        "duration": 0.25,
        "velocity": 0.71,
        "hand": "right"
      },
      {
        "midi": 69,
        "time": 196.25,
        "duration": 0.25,
        "velocity": 0.48,
        "hand": "right"
      },
      {
        "midi": 72,
        "time": 196.25,
        "duration": 0.25,
        "velocity": 0.48,
        "hand": "right"
      },
      {
        "midi": 34,
        "time": 196.5,
        "duration": 0.5,
        "velocity": 0.26,
        "hand": "left"
      },
      {
        "midi": 46,
        "time": 196.5,
        "duration": 0.5,
        "velocity": 0.26,
        "hand": "left"
      },
      {
        "midi": 61,
        "time": 196.5,
        "duration": 0.25,
        "velocity": 0.71,
        "hand": "right"
      },
      {
        "midi": 70,
        "time": 196.5,
        "duration": 0.5,
        "velocity": 0.48,
        "hand": "right"
      },
      {
        "midi": 73,
        "time": 196.5,
        "duration": 0.5,
        "velocity": 0.48,
        "hand": "right"
      },
      {
        "midi": 65,
        "time": 196.75,
        "duration": 0.25,
        "velocity": 0.71,
        "hand": "right"
      },
      {
        "midi": 53,
        "time": 197,
        "duration": 0.5,
        "velocity": 0.26,
        "hand": "left"
      },
      {
        "midi": 58,
        "time": 197,
        "duration": 0.5,
        "velocity": 0.26,
        "hand": "left"
      },
      {
        "midi": 61,
        "time": 197,
        "duration": 0.5,
        "velocity": 0.26,
        "hand": "right"
      },
      {
        "midi": 70,
        "time": 197,
        "duration": 0.25,
        "velocity": 0.71,
        "hand": "right"
      },
      {
        "midi": 73,
        "time": 197,
        "duration": 0.25,
        "velocity": 0.48,
        "hand": "right"
      },
      {
        "midi": 72,
        "time": 197.25,
        "duration": 0.25,
        "velocity": 0.71,
        "hand": "right"
      },
      {
        "midi": 75,
        "time": 197.25,
        "duration": 0.25,
        "velocity": 0.48,
        "hand": "right"
      },
      {
        "midi": 58,
        "time": 197.5,
        "duration": 0.5,
        "velocity": 0.26,
        "hand": "left"
      },
      {
        "midi": 61,
        "time": 197.5,
        "duration": 0.5,
        "velocity": 0.26,
        "hand": "right"
      },
      {
        "midi": 65,
        "time": 197.5,
        "duration": 0.5,
        "velocity": 0.26,
        "hand": "right"
      },
      {
        "midi": 70,
        "time": 197.5,
        "duration": 0.25,
        "velocity": 0.71,
        "hand": "right"
      },
      {
        "midi": 73,
        "time": 197.5,
        "duration": 0.25,
        "velocity": 0.48,
        "hand": "right"
      },
      {
        "midi": 72,
        "time": 197.75,
        "duration": 0.25,
        "velocity": 0.71,
        "hand": "right"
      },
      {
        "midi": 75,
        "time": 197.75,
        "duration": 0.25,
        "velocity": 0.48,
        "hand": "right"
      },
      {
        "midi": 37,
        "time": 198,
        "duration": 0.5,
        "velocity": 0.26,
        "hand": "left"
      },
      {
        "midi": 44,
        "time": 198,
        "duration": 0.5,
        "velocity": 0.26,
        "hand": "left"
      },
      {
        "midi": 49,
        "time": 198,
        "duration": 0.5,
        "velocity": 0.26,
        "hand": "left"
      },
      {
        "midi": 65,
        "time": 198,
        "duration": 0.5,
        "velocity": 0.48,
        "hand": "right"
      },
      {
        "midi": 73,
        "time": 198,
        "duration": 0.25,
        "velocity": 0.71,
        "hand": "right"
      },
      {
        "midi": 77,
        "time": 198,
        "duration": 0.5,
        "velocity": 0.48,
        "hand": "right"
      },
      {
        "midi": 72,
        "time": 198.25,
        "duration": 0.25,
        "velocity": 0.71,
        "hand": "right"
      },
      {
        "midi": 53,
        "time": 198.5,
        "duration": 0.5,
        "velocity": 0.26,
        "hand": "left"
      },
      {
        "midi": 56,
        "time": 198.5,
        "duration": 0.5,
        "velocity": 0.26,
        "hand": "left"
      },
      {
        "midi": 61,
        "time": 198.5,
        "duration": 0.5,
        "velocity": 0.26,
        "hand": "right"
      },
      {
        "midi": 70,
        "time": 198.5,
        "duration": 0.25,
        "velocity": 0.71,
        "hand": "right"
      },
      {
        "midi": 73,
        "time": 198.5,
        "duration": 0.5,
        "velocity": 0.48,
        "hand": "right"
      },
      {
        "midi": 77,
        "time": 198.5,
        "duration": 0.5,
        "velocity": 0.48,
        "hand": "right"
      },
      {
        "midi": 68,
        "time": 198.75,
        "duration": 0.25,
        "velocity": 0.71,
        "hand": "right"
      },
      {
        "midi": 56,
        "time": 199,
        "duration": 0.5,
        "velocity": 0.26,
        "hand": "left"
      },
      {
        "midi": 61,
        "time": 199,
        "duration": 0.5,
        "velocity": 0.26,
        "hand": "right"
      },
      {
        "midi": 66,
        "time": 199,
        "duration": 0.25,
        "velocity": 0.71,
        "hand": "right"
      },
      {
        "midi": 68,
        "time": 199,
        "duration": 0.5,
        "velocity": 0.26,
        "hand": "right"
      },
      {
        "midi": 73,
        "time": 199,
        "duration": 0.5,
        "velocity": 0.48,
        "hand": "right"
      },
      {
        "midi": 77,
        "time": 199,
        "duration": 0.5,
        "velocity": 0.48,
        "hand": "right"
      },
      {
        "midi": 65,
        "time": 199.25,
        "duration": 0.25,
        "velocity": 0.71,
        "hand": "right"
      },
      {
        "midi": 39,
        "time": 199.5,
        "duration": 0.5,
        "velocity": 0.26,
        "hand": "left"
      },
      {
        "midi": 51,
        "time": 199.5,
        "duration": 0.5,
        "velocity": 0.26,
        "hand": "left"
      },
      {
        "midi": 66,
        "time": 199.5,
        "duration": 0.25,
        "velocity": 0.71,
        "hand": "right"
      },
      {
        "midi": 77,
        "time": 199.5,
        "duration": 0.5,
        "velocity": 0.48,
        "hand": "right"
      },
      {
        "midi": 73,
        "time": 199.75,
        "duration": 0.25,
        "velocity": 0.71,
        "hand": "right"
      },
      {
        "midi": 54,
        "time": 200,
        "duration": 0.5,
        "velocity": 0.26,
        "hand": "left"
      },
      {
        "midi": 58,
        "time": 200,
        "duration": 0.5,
        "velocity": 0.26,
        "hand": "left"
      },
      {
        "midi": 63,
        "time": 200,
        "duration": 0.5,
        "velocity": 0.26,
        "hand": "right"
      },
      {
        "midi": 72,
        "time": 200,
        "duration": 0.25,
        "velocity": 0.71,
        "hand": "right"
      },
      {
        "midi": 75,
        "time": 200,
        "duration": 0.25,
        "velocity": 0.48,
        "hand": "right"
      },
      {
        "midi": 66,
        "time": 200.25,
        "duration": 0.25,
        "velocity": 0.71,
        "hand": "right"
      },
      {
        "midi": 70,
        "time": 200.25,
        "duration": 0.25,
        "velocity": 0.48,
        "hand": "right"
      },
      {
        "midi": 42,
        "time": 200.5,
        "duration": 0.5,
        "velocity": 0.26,
        "hand": "left"
      },
      {
        "midi": 54,
        "time": 200.5,
        "duration": 0.5,
        "velocity": 0.26,
        "hand": "left"
      },
      {
        "midi": 63,
        "time": 200.5,
        "duration": 0.25,
        "velocity": 0.71,
        "hand": "right"
      },
      {
        "midi": 73,
        "time": 200.5,
        "duration": 0.25,
        "velocity": 0.48,
        "hand": "right"
      },
      {
        "midi": 64,
        "time": 200.75,
        "duration": 0.25,
        "velocity": 0.71,
        "hand": "right"
      },
      {
        "midi": 72,
        "time": 200.75,
        "duration": 0.25,
        "velocity": 0.48,
        "hand": "right"
      },
      {
        "midi": 41,
        "time": 201,
        "duration": 0.25,
        "velocity": 0.26,
        "hand": "left"
      },
      {
        "midi": 53,
        "time": 201,
        "duration": 0.25,
        "velocity": 0.26,
        "hand": "left"
      },
      {
        "midi": 65,
        "time": 201,
        "duration": 0.25,
        "velocity": 0.71,
        "hand": "right"
      },
      {
        "midi": 69,
        "time": 201,
        "duration": 0.25,
        "velocity": 0.48,
        "hand": "right"
      },
      {
        "midi": 54,
        "time": 201.25,
        "duration": 0.25,
        "velocity": 0.26,
        "hand": "left"
      },
      {
        "midi": 66,
        "time": 201.25,
        "duration": 0.25,
        "velocity": 0.26,
        "hand": "right"
      },
      {
        "midi": 53,
        "time": 201.5,
        "duration": 0.25,
        "velocity": 0.21,
        "hand": "left"
      },
      {
        "midi": 60,
        "time": 201.5,
        "duration": 0.5,
        "velocity": 0.48,
        "hand": "right"
      },
      {
        "midi": 65,
        "time": 201.5,
        "duration": 0.25,
        "velocity": 0.21,
        "hand": "right"
      },
      {
        "midi": 69,
        "time": 201.5,
        "duration": 0.5,
        "velocity": 0.48,
        "hand": "right"
      },
      {
        "midi": 72,
        "time": 201.5,
        "duration": 0.5,
        "velocity": 0.48,
        "hand": "right"
      },
      {
        "midi": 52,
        "time": 201.75,
        "duration": 0.25,
        "velocity": 0.17,
        "hand": "left"
      },
      {
        "midi": 64,
        "time": 201.75,
        "duration": 0.25,
        "velocity": 0.17,
        "hand": "right"
      },
      {
        "midi": 51,
        "time": 202,
        "duration": 0.25,
        "velocity": 0.13,
        "hand": "left"
      },
      {
        "midi": 63,
        "time": 202,
        "duration": 0.25,
        "velocity": 0.13,
        "hand": "right"
      },
      {
        "midi": 65,
        "time": 202,
        "duration": 0.5,
        "velocity": 0.48,
        "hand": "right"
      },
      {
        "midi": 69,
        "time": 202,
        "duration": 0.5,
        "velocity": 0.48,
        "hand": "right"
      },
      {
        "midi": 77,
        "time": 202,
        "duration": 0.5,
        "velocity": 0.48,
        "hand": "right"
      },
      {
        "midi": 48,
        "time": 202.25,
        "duration": 0.25,
        "velocity": 0.09,
        "hand": "left"
      },
      {
        "midi": 60,
        "time": 202.25,
        "duration": 0.25,
        "velocity": 0.09,
        "hand": "right"
      },
      {
        "midi": 49,
        "time": 202.5,
        "duration": 0.25,
        "velocity": 0.09,
        "hand": "left"
      },
      {
        "midi": 61,
        "time": 202.5,
        "duration": 0.25,
        "velocity": 0.09,
        "hand": "right"
      },
      {
        "midi": 64,
        "time": 202.5,
        "duration": 0.5,
        "velocity": 0.48,
        "hand": "right"
      },
      {
        "midi": 70,
        "time": 202.5,
        "duration": 0.5,
        "velocity": 0.48,
        "hand": "right"
      },
      {
        "midi": 76,
        "time": 202.5,
        "duration": 0.5,
        "velocity": 0.48,
        "hand": "right"
      },
      {
        "midi": 46,
        "time": 202.75,
        "duration": 0.25,
        "velocity": 0.09,
        "hand": "left"
      },
      {
        "midi": 58,
        "time": 202.75,
        "duration": 0.25,
        "velocity": 0.09,
        "hand": "left"
      },
      {
        "midi": 43,
        "time": 203,
        "duration": 0.25,
        "velocity": 0.09,
        "hand": "left"
      },
      {
        "midi": 55,
        "time": 203,
        "duration": 0.25,
        "velocity": 0.09,
        "hand": "left"
      },
      {
        "midi": 58,
        "time": 203,
        "duration": 0.5,
        "velocity": 0.71,
        "hand": "left"
      },
      {
        "midi": 64,
        "time": 203,
        "duration": 0.5,
        "velocity": 0.48,
        "hand": "right"
      },
      {
        "midi": 70,
        "time": 203,
        "duration": 0.5,
        "velocity": 0.48,
        "hand": "right"
      },
      {
        "midi": 42,
        "time": 203.25,
        "duration": 0.25,
        "velocity": 0.09,
        "hand": "left"
      },
      {
        "midi": 54,
        "time": 203.25,
        "duration": 0.25,
        "velocity": 0.09,
        "hand": "left"
      },
      {
        "midi": 37,
        "time": 203.5,
        "duration": 0.25,
        "velocity": 0.09,
        "hand": "left"
      },
      {
        "midi": 49,
        "time": 203.5,
        "duration": 0.25,
        "velocity": 0.09,
        "hand": "left"
      },
      {
        "midi": 57,
        "time": 203.5,
        "duration": 0.25,
        "velocity": 0.71,
        "hand": "left"
      },
      {
        "midi": 64,
        "time": 203.5,
        "duration": 0.5,
        "velocity": 0.48,
        "hand": "right"
      },
      {
        "midi": 73,
        "time": 203.5,
        "duration": 0.5,
        "velocity": 0.48,
        "hand": "right"
      },
      {
        "midi": 30,
        "time": 203.75,
        "duration": 0.25,
        "velocity": 0.09,
        "hand": "left"
      },
      {
        "midi": 42,
        "time": 203.75,
        "duration": 0.25,
        "velocity": 0.09,
        "hand": "left"
      },
      {
        "midi": 58,
        "time": 203.75,
        "duration": 0.25,
        "velocity": 0.48,
        "hand": "left"
      },
      {
        "midi": 29,
        "time": 204,
        "duration": 0.25,
        "velocity": 0.09,
        "hand": "left"
      },
      {
        "midi": 41,
        "time": 204,
        "duration": 0.25,
        "velocity": 0.09,
        "hand": "left"
      },
      {
        "midi": 60,
        "time": 204,
        "duration": 0.25,
        "velocity": 0.48,
        "hand": "right"
      },
      {
        "midi": 65,
        "time": 204,
        "duration": 0.25,
        "velocity": 0.48,
        "hand": "right"
      },
      {
        "midi": 69,
        "time": 204,
        "duration": 0.25,
        "velocity": 0.48,
        "hand": "right"
      },
      {
        "midi": 54,
        "time": 204.25,
        "duration": 0.25,
        "velocity": 0.09,
        "hand": "left"
      },
      {
        "midi": 66,
        "time": 204.25,
        "duration": 0.25,
        "velocity": 0.09,
        "hand": "right"
      },
      {
        "midi": 53,
        "time": 204.5,
        "duration": 0.25,
        "velocity": 0.09,
        "hand": "left"
      },
      {
        "midi": 65,
        "time": 204.5,
        "duration": 0.25,
        "velocity": 0.09,
        "hand": "right"
      },
      {
        "midi": 72,
        "time": 204.5,
        "duration": 0.5,
        "velocity": 0.48,
        "hand": "right"
      },
      {
        "midi": 81,
        "time": 204.5,
        "duration": 0.5,
        "velocity": 0.48,
        "hand": "right"
      },
      {
        "midi": 84,
        "time": 204.5,
        "duration": 0.5,
        "velocity": 0.48,
        "hand": "right"
      },
      {
        "midi": 52,
        "time": 204.75,
        "duration": 0.25,
        "velocity": 0.09,
        "hand": "left"
      },
      {
        "midi": 64,
        "time": 204.75,
        "duration": 0.25,
        "velocity": 0.09,
        "hand": "right"
      },
      {
        "midi": 51,
        "time": 205,
        "duration": 0.25,
        "velocity": 0.09,
        "hand": "left"
      },
      {
        "midi": 63,
        "time": 205,
        "duration": 0.25,
        "velocity": 0.09,
        "hand": "right"
      },
      {
        "midi": 77,
        "time": 205,
        "duration": 0.5,
        "velocity": 0.48,
        "hand": "right"
      },
      {
        "midi": 81,
        "time": 205,
        "duration": 0.5,
        "velocity": 0.48,
        "hand": "right"
      },
      {
        "midi": 89,
        "time": 205,
        "duration": 0.5,
        "velocity": 0.48,
        "hand": "right"
      },
      {
        "midi": 48,
        "time": 205.25,
        "duration": 0.25,
        "velocity": 0.09,
        "hand": "left"
      },
      {
        "midi": 60,
        "time": 205.25,
        "duration": 0.25,
        "velocity": 0.09,
        "hand": "right"
      },
      {
        "midi": 49,
        "time": 205.5,
        "duration": 0.25,
        "velocity": 0.09,
        "hand": "left"
      },
      {
        "midi": 61,
        "time": 205.5,
        "duration": 0.25,
        "velocity": 0.09,
        "hand": "right"
      },
      {
        "midi": 76,
        "time": 205.5,
        "duration": 0.5,
        "velocity": 0.48,
        "hand": "right"
      },
      {
        "midi": 82,
        "time": 205.5,
        "duration": 0.5,
        "velocity": 0.48,
        "hand": "right"
      },
      {
        "midi": 88,
        "time": 205.5,
        "duration": 0.5,
        "velocity": 0.48,
        "hand": "right"
      },
      {
        "midi": 46,
        "time": 205.75,
        "duration": 0.25,
        "velocity": 0.09,
        "hand": "left"
      },
      {
        "midi": 58,
        "time": 205.75,
        "duration": 0.25,
        "velocity": 0.09,
        "hand": "left"
      },
      {
        "midi": 43,
        "time": 206,
        "duration": 0.25,
        "velocity": 0.09,
        "hand": "left"
      },
      {
        "midi": 55,
        "time": 206,
        "duration": 0.25,
        "velocity": 0.09,
        "hand": "left"
      },
      {
        "midi": 70,
        "time": 206,
        "duration": 0.25,
        "velocity": 0.48,
        "hand": "right"
      },
      {
        "midi": 76,
        "time": 206,
        "duration": 0.5,
        "velocity": 0.48,
        "hand": "right"
      },
      {
        "midi": 82,
        "time": 206,
        "duration": 0.5,
        "velocity": 0.48,
        "hand": "right"
      },
      {
        "midi": 42,
        "time": 206.25,
        "duration": 0.25,
        "velocity": 0.09,
        "hand": "left"
      },
      {
        "midi": 54,
        "time": 206.25,
        "duration": 0.25,
        "velocity": 0.09,
        "hand": "left"
      },
      {
        "midi": 69,
        "time": 206.25,
        "duration": 0.25,
        "velocity": 0.48,
        "hand": "right"
      },
      {
        "midi": 37,
        "time": 206.5,
        "duration": 0.25,
        "velocity": 0.09,
        "hand": "left"
      },
      {
        "midi": 49,
        "time": 206.5,
        "duration": 0.25,
        "velocity": 0.09,
        "hand": "left"
      },
      {
        "midi": 69,
        "time": 206.5,
        "duration": 0.25,
        "velocity": 0.48,
        "hand": "right"
      },
      {
        "midi": 76,
        "time": 206.5,
        "duration": 0.5,
        "velocity": 0.48,
        "hand": "right"
      },
      {
        "midi": 85,
        "time": 206.5,
        "duration": 0.5,
        "velocity": 0.48,
        "hand": "right"
      },
      {
        "midi": 30,
        "time": 206.75,
        "duration": 0.25,
        "velocity": 0.09,
        "hand": "left"
      },
      {
        "midi": 42,
        "time": 206.75,
        "duration": 0.25,
        "velocity": 0.09,
        "hand": "left"
      },
      {
        "midi": 70,
        "time": 206.75,
        "duration": 0.25,
        "velocity": 0.48,
        "hand": "right"
      },
      {
        "midi": 28,
        "time": 207,
        "duration": 0.25,
        "velocity": 0.09,
        "hand": "left"
      },
      {
        "midi": 40,
        "time": 207,
        "duration": 0.25,
        "velocity": 0.09,
        "hand": "left"
      },
      {
        "midi": 73,
        "time": 207,
        "duration": 0.25,
        "velocity": 0.71,
        "hand": "right"
      },
      {
        "midi": 82,
        "time": 207,
        "duration": 0.25,
        "velocity": 0.71,
        "hand": "right"
      },
      {
        "midi": 85,
        "time": 207,
        "duration": 0.25,
        "velocity": 0.71,
        "hand": "right"
      },
      {
        "midi": 29,
        "time": 207.25,
        "duration": 0.25,
        "velocity": 0.09,
        "hand": "left"
      },
      {
        "midi": 41,
        "time": 207.25,
        "duration": 0.25,
        "velocity": 0.09,
        "hand": "left"
      },
      {
        "midi": 72,
        "time": 207.25,
        "duration": 0.25,
        "velocity": 0.71,
        "hand": "right"
      },
      {
        "midi": 81,
        "time": 207.25,
        "duration": 0.25,
        "velocity": 0.71,
        "hand": "right"
      },
      {
        "midi": 84,
        "time": 207.25,
        "duration": 0.25,
        "velocity": 0.71,
        "hand": "right"
      },
      {
        "midi": 54,
        "time": 207.5,
        "duration": 0.25,
        "velocity": 0.09,
        "hand": "left"
      },
      {
        "midi": 66,
        "time": 207.5,
        "duration": 0.25,
        "velocity": 0.09,
        "hand": "right"
      },
      {
        "midi": 72,
        "time": 207.5,
        "duration": 0.25,
        "velocity": 0.71,
        "hand": "right"
      },
      {
        "midi": 81,
        "time": 207.5,
        "duration": 0.25,
        "velocity": 0.71,
        "hand": "right"
      },
      {
        "midi": 84,
        "time": 207.5,
        "duration": 0.25,
        "velocity": 0.71,
        "hand": "right"
      },
      {
        "midi": 53,
        "time": 207.75,
        "duration": 0.25,
        "velocity": 0.09,
        "hand": "left"
      },
      {
        "midi": 65,
        "time": 207.75,
        "duration": 0.25,
        "velocity": 0.09,
        "hand": "right"
      },
      {
        "midi": 73,
        "time": 207.75,
        "duration": 0.25,
        "velocity": 0.73,
        "hand": "right"
      },
      {
        "midi": 82,
        "time": 207.75,
        "duration": 0.25,
        "velocity": 0.73,
        "hand": "right"
      },
      {
        "midi": 85,
        "time": 207.75,
        "duration": 0.25,
        "velocity": 0.73,
        "hand": "right"
      },
      {
        "midi": 51,
        "time": 208,
        "duration": 0.25,
        "velocity": 0.09,
        "hand": "left"
      },
      {
        "midi": 63,
        "time": 208,
        "duration": 0.25,
        "velocity": 0.09,
        "hand": "right"
      },
      {
        "midi": 75,
        "time": 208,
        "duration": 0.25,
        "velocity": 0.75,
        "hand": "right"
      },
      {
        "midi": 84,
        "time": 208,
        "duration": 0.25,
        "velocity": 0.75,
        "hand": "right"
      },
      {
        "midi": 87,
        "time": 208,
        "duration": 0.25,
        "velocity": 0.75,
        "hand": "right"
      },
      {
        "midi": 49,
        "time": 208.25,
        "duration": 0.25,
        "velocity": 0.09,
        "hand": "left"
      },
      {
        "midi": 61,
        "time": 208.25,
        "duration": 0.25,
        "velocity": 0.09,
        "hand": "right"
      },
      {
        "midi": 77,
        "time": 208.25,
        "duration": 0.25,
        "velocity": 0.77,
        "hand": "right"
      },
      {
        "midi": 85,
        "time": 208.25,
        "duration": 0.25,
        "velocity": 0.77,
        "hand": "right"
      },
      {
        "midi": 89,
        "time": 208.25,
        "duration": 0.25,
        "velocity": 0.77,
        "hand": "right"
      },
      {
        "midi": 48,
        "time": 208.5,
        "duration": 0.25,
        "velocity": 0.09,
        "hand": "left"
      },
      {
        "midi": 60,
        "time": 208.5,
        "duration": 0.25,
        "velocity": 0.09,
        "hand": "right"
      },
      {
        "midi": 78,
        "time": 208.5,
        "duration": 0.5,
        "velocity": 0.8,
        "hand": "right"
      },
      {
        "midi": 87,
        "time": 208.5,
        "duration": 0.5,
        "velocity": 0.8,
        "hand": "right"
      },
      {
        "midi": 90,
        "time": 208.5,
        "duration": 0.5,
        "velocity": 0.8,
        "hand": "right"
      },
      {
        "midi": 46,
        "time": 208.75,
        "duration": 0.25,
        "velocity": 0.09,
        "hand": "left"
      },
      {
        "midi": 58,
        "time": 208.75,
        "duration": 0.25,
        "velocity": 0.09,
        "hand": "left"
      },
      {
        "midi": 45,
        "time": 209,
        "duration": 0.25,
        "velocity": 0.09,
        "hand": "left"
      },
      {
        "midi": 57,
        "time": 209,
        "duration": 0.25,
        "velocity": 0.09,
        "hand": "left"
      },
      {
        "midi": 78,
        "time": 209,
        "duration": 0.5,
        "velocity": 0.84,
        "hand": "right"
      },
      {
        "midi": 87,
        "time": 209,
        "duration": 0.5,
        "velocity": 0.84,
        "hand": "right"
      },
      {
        "midi": 90,
        "time": 209,
        "duration": 0.5,
        "velocity": 0.84,
        "hand": "right"
      },
      {
        "midi": 42,
        "time": 209.25,
        "duration": 0.25,
        "velocity": 0.09,
        "hand": "left"
      },
      {
        "midi": 54,
        "time": 209.25,
        "duration": 0.25,
        "velocity": 0.09,
        "hand": "left"
      },
      {
        "midi": 39,
        "time": 209.5,
        "duration": 0.25,
        "velocity": 0.09,
        "hand": "left"
      },
      {
        "midi": 51,
        "time": 209.5,
        "duration": 0.25,
        "velocity": 0.09,
        "hand": "left"
      },
      {
        "midi": 78,
        "time": 209.5,
        "duration": 0.5,
        "velocity": 0.89,
        "hand": "right"
      },
      {
        "midi": 87,
        "time": 209.5,
        "duration": 0.5,
        "velocity": 0.89,
        "hand": "right"
      },
      {
        "midi": 90,
        "time": 209.5,
        "duration": 0.5,
        "velocity": 0.89,
        "hand": "right"
      },
      {
        "midi": 36,
        "time": 209.75,
        "duration": 0.25,
        "velocity": 0.09,
        "hand": "left"
      },
      {
        "midi": 48,
        "time": 209.75,
        "duration": 0.25,
        "velocity": 0.09,
        "hand": "left"
      },
      {
        "midi": 33,
        "time": 210,
        "duration": 0.5,
        "velocity": 0.09,
        "hand": "left"
      },
      {
        "midi": 45,
        "time": 210,
        "duration": 0.5,
        "velocity": 0.09,
        "hand": "left"
      },
      {
        "midi": 78,
        "time": 210,
        "duration": 0.5,
        "velocity": 0.93,
        "hand": "right"
      },
      {
        "midi": 87,
        "time": 210,
        "duration": 0.5,
        "velocity": 0.93,
        "hand": "right"
      },
      {
        "midi": 90,
        "time": 210,
        "duration": 0.5,
        "velocity": 0.93,
        "hand": "right"
      },
      {
        "midi": 33,
        "time": 210.5,
        "duration": 0.5,
        "velocity": 0.09,
        "hand": "left"
      },
      {
        "midi": 45,
        "time": 210.5,
        "duration": 0.5,
        "velocity": 0.09,
        "hand": "left"
      },
      {
        "midi": 54,
        "time": 210.5,
        "duration": 0.5,
        "velocity": 0.93,
        "hand": "left"
      },
      {
        "midi": 59,
        "time": 210.5,
        "duration": 0.5,
        "velocity": 0.93,
        "hand": "left"
      },
      {
        "midi": 63,
        "time": 210.5,
        "duration": 0.5,
        "velocity": 0.93,
        "hand": "right"
      },
      {
        "midi": 34,
        "time": 211,
        "duration": 0.5,
        "velocity": 0.09,
        "hand": "left"
      },
      {
        "midi": 46,
        "time": 211,
        "duration": 0.5,
        "velocity": 0.09,
        "hand": "left"
      },
      {
        "midi": 54,
        "time": 211,
        "duration": 0.5,
        "velocity": 0.93,
        "hand": "left"
      },
      {
        "midi": 58,
        "time": 211,
        "duration": 0.5,
        "velocity": 0.93,
        "hand": "left"
      },
      {
        "midi": 63,
        "time": 211,
        "duration": 0.5,
        "velocity": 0.93,
        "hand": "right"
      },
      {
        "midi": 34,
        "time": 211.5,
        "duration": 0.5,
        "velocity": 0.09,
        "hand": "left"
      },
      {
        "midi": 46,
        "time": 211.5,
        "duration": 0.5,
        "velocity": 0.09,
        "hand": "left"
      },
      {
        "midi": 54,
        "time": 211.5,
        "duration": 0.5,
        "velocity": 0.93,
        "hand": "left"
      },
      {
        "midi": 58,
        "time": 211.5,
        "duration": 0.5,
        "velocity": 0.93,
        "hand": "left"
      },
      {
        "midi": 63,
        "time": 211.5,
        "duration": 0.5,
        "velocity": 0.93,
        "hand": "right"
      },
      {
        "midi": 35,
        "time": 212,
        "duration": 0.5,
        "velocity": 0.09,
        "hand": "left"
      },
      {
        "midi": 47,
        "time": 212,
        "duration": 0.5,
        "velocity": 0.09,
        "hand": "left"
      },
      {
        "midi": 51,
        "time": 212,
        "duration": 0.5,
        "velocity": 0.93,
        "hand": "left"
      },
      {
        "midi": 57,
        "time": 212,
        "duration": 0.5,
        "velocity": 0.93,
        "hand": "left"
      },
      {
        "midi": 66,
        "time": 212,
        "duration": 0.5,
        "velocity": 0.93,
        "hand": "right"
      },
      {
        "midi": 27,
        "time": 212.5,
        "duration": 0.5,
        "velocity": 0.09,
        "hand": "left"
      },
      {
        "midi": 39,
        "time": 212.5,
        "duration": 0.5,
        "velocity": 0.09,
        "hand": "left"
      },
      {
        "midi": 54,
        "time": 212.5,
        "duration": 0.5,
        "velocity": 0.93,
        "hand": "left"
      },
      {
        "midi": 57,
        "time": 212.5,
        "duration": 0.5,
        "velocity": 0.93,
        "hand": "left"
      },
      {
        "midi": 66,
        "time": 212.5,
        "duration": 0.5,
        "velocity": 0.93,
        "hand": "right"
      },
      {
        "midi": 30,
        "time": 213,
        "duration": 0.5,
        "velocity": 0.09,
        "hand": "left"
      },
      {
        "midi": 42,
        "time": 213,
        "duration": 0.5,
        "velocity": 0.09,
        "hand": "left"
      },
      {
        "midi": 61,
        "time": 213,
        "duration": 0.5,
        "velocity": 0.93,
        "hand": "right"
      },
      {
        "midi": 51,
        "time": 213.5,
        "duration": 0.25,
        "velocity": 0.93,
        "hand": "left"
      },
      {
        "midi": 57,
        "time": 213.5,
        "duration": 0.25,
        "velocity": 0.93,
        "hand": "left"
      },
      {
        "midi": 59,
        "time": 213.5,
        "duration": 0.25,
        "velocity": 0.93,
        "hand": "left"
      },
      {
        "midi": 64,
        "time": 213.5,
        "duration": 0.25,
        "velocity": 0.93,
        "hand": "right"
      },
      {
        "midi": 54,
        "time": 213.75,
        "duration": 0.25,
        "velocity": 0.09,
        "hand": "left"
      },
      {
        "midi": 57,
        "time": 213.75,
        "duration": 0.25,
        "velocity": 0.93,
        "hand": "left"
      },
      {
        "midi": 59,
        "time": 213.75,
        "duration": 0.25,
        "velocity": 0.93,
        "hand": "left"
      },
      {
        "midi": 63,
        "time": 213.75,
        "duration": 0.25,
        "velocity": 0.93,
        "hand": "right"
      },
      {
        "midi": 59,
        "time": 214,
        "duration": 0.25,
        "velocity": 0.09,
        "hand": "left"
      },
      {
        "midi": 68,
        "time": 214,
        "duration": 0.25,
        "velocity": 0.93,
        "hand": "right"
      },
      {
        "midi": 57,
        "time": 214.25,
        "duration": 0.25,
        "velocity": 0.09,
        "hand": "left"
      },
      {
        "midi": 59,
        "time": 214.25,
        "duration": 0.25,
        "velocity": 0.93,
        "hand": "left"
      },
      {
        "midi": 63,
        "time": 214.25,
        "duration": 0.25,
        "velocity": 0.93,
        "hand": "right"
      },
      {
        "midi": 66,
        "time": 214.25,
        "duration": 0.25,
        "velocity": 0.93,
        "hand": "right"
      },
      {
        "midi": 32,
        "time": 214.5,
        "duration": 0.5,
        "velocity": 0.09,
        "hand": "left"
      },
      {
        "midi": 44,
        "time": 214.5,
        "duration": 0.5,
        "velocity": 0.09,
        "hand": "left"
      },
      {
        "midi": 71,
        "time": 214.5,
        "duration": 0.25,
        "velocity": 0.93,
        "hand": "right"
      },
      {
        "midi": 59,
        "time": 214.75,
        "duration": 0.25,
        "velocity": 0.93,
        "hand": "left"
      },
      {
        "midi": 62,
        "time": 214.75,
        "duration": 0.25,
        "velocity": 0.93,
        "hand": "right"
      },
      {
        "midi": 66,
        "time": 214.75,
        "duration": 0.25,
        "velocity": 0.93,
        "hand": "right"
      },
      {
        "midi": 66,
        "time": 215,
        "duration": 0.25,
        "velocity": 0.93,
        "hand": "right"
      },
      {
        "midi": 56,
        "time": 215.25,
        "duration": 0.25,
        "velocity": 0.09,
        "hand": "left"
      },
      {
        "midi": 59,
        "time": 215.25,
        "duration": 0.25,
        "velocity": 0.93,
        "hand": "left"
      },
      {
        "midi": 62,
        "time": 215.25,
        "duration": 0.25,
        "velocity": 0.93,
        "hand": "right"
      },
      {
        "midi": 65,
        "time": 215.25,
        "duration": 0.25,
        "velocity": 0.93,
        "hand": "right"
      },
      {
        "midi": 61,
        "time": 215.5,
        "duration": 0.25,
        "velocity": 0.09,
        "hand": "right"
      },
      {
        "midi": 69,
        "time": 215.5,
        "duration": 0.25,
        "velocity": 0.93,
        "hand": "right"
      },
      {
        "midi": 59,
        "time": 215.75,
        "duration": 0.25,
        "velocity": 0.09,
        "hand": "left"
      },
      {
        "midi": 61,
        "time": 215.75,
        "duration": 0.25,
        "velocity": 0.93,
        "hand": "right"
      },
      {
        "midi": 65,
        "time": 215.75,
        "duration": 0.25,
        "velocity": 0.93,
        "hand": "right"
      },
      {
        "midi": 68,
        "time": 215.75,
        "duration": 0.25,
        "velocity": 0.93,
        "hand": "right"
      },
      {
        "midi": 34,
        "time": 216,
        "duration": 0.5,
        "velocity": 0.09,
        "hand": "left"
      },
      {
        "midi": 46,
        "time": 216,
        "duration": 0.5,
        "velocity": 0.09,
        "hand": "left"
      },
      {
        "midi": 73,
        "time": 216,
        "duration": 0.25,
        "velocity": 0.93,
        "hand": "right"
      },
      {
        "midi": 61,
        "time": 216.25,
        "duration": 0.25,
        "velocity": 0.93,
        "hand": "right"
      },
      {
        "midi": 64,
        "time": 216.25,
        "duration": 0.25,
        "velocity": 0.93,
        "hand": "right"
      },
      {
        "midi": 68,
        "time": 216.25,
        "duration": 0.25,
        "velocity": 0.93,
        "hand": "right"
      },
      {
        "midi": 68,
        "time": 216.5,
        "duration": 0.25,
        "velocity": 0.93,
        "hand": "right"
      },
      {
        "midi": 58,
        "time": 216.75,
        "duration": 0.25,
        "velocity": 0.09,
        "hand": "left"
      },
      {
        "midi": 61,
        "time": 216.75,
        "duration": 0.25,
        "velocity": 0.93,
        "hand": "right"
      },
      {
        "midi": 63,
        "time": 216.75,
        "duration": 0.25,
        "velocity": 0.93,
        "hand": "right"
      },
      {
        "midi": 67,
        "time": 216.75,
        "duration": 0.25,
        "velocity": 0.93,
        "hand": "right"
      },
      {
        "midi": 63,
        "time": 217,
        "duration": 0.25,
        "velocity": 0.09,
        "hand": "right"
      },
      {
        "midi": 71,
        "time": 217,
        "duration": 0.25,
        "velocity": 0.93,
        "hand": "right"
      },
      {
        "midi": 61,
        "time": 217.25,
        "duration": 0.25,
        "velocity": 0.09,
        "hand": "right"
      },
      {
        "midi": 64,
        "time": 217.25,
        "duration": 0.25,
        "velocity": 0.93,
        "hand": "right"
      },
      {
        "midi": 67,
        "time": 217.25,
        "duration": 0.25,
        "velocity": 0.93,
        "hand": "right"
      },
      {
        "midi": 70,
        "time": 217.25,
        "duration": 0.25,
        "velocity": 0.93,
        "hand": "right"
      },
      {
        "midi": 36,
        "time": 217.5,
        "duration": 0.5,
        "velocity": 0.09,
        "hand": "left"
      },
      {
        "midi": 48,
        "time": 217.5,
        "duration": 0.5,
        "velocity": 0.09,
        "hand": "left"
      },
      {
        "midi": 75,
        "time": 217.5,
        "duration": 0.25,
        "velocity": 0.93,
        "hand": "right"
      },
      {
        "midi": 63,
        "time": 217.75,
        "duration": 0.25,
        "velocity": 0.93,
        "hand": "right"
      },
      {
        "midi": 66,
        "time": 217.75,
        "duration": 0.25,
        "velocity": 0.93,
        "hand": "right"
      },
      {
        "midi": 70,
        "time": 217.75,
        "duration": 0.25,
        "velocity": 0.93,
        "hand": "right"
      },
      {
        "midi": 70,
        "time": 218,
        "duration": 0.25,
        "velocity": 0.93,
        "hand": "right"
      },
      {
        "midi": 60,
        "time": 218.25,
        "duration": 0.25,
        "velocity": 0.09,
        "hand": "right"
      },
      {
        "midi": 63,
        "time": 218.25,
        "duration": 0.25,
        "velocity": 0.93,
        "hand": "right"
      },
      {
        "midi": 65,
        "time": 218.25,
        "duration": 0.25,
        "velocity": 0.93,
        "hand": "right"
      },
      {
        "midi": 69,
        "time": 218.25,
        "duration": 0.25,
        "velocity": 0.93,
        "hand": "right"
      },
      {
        "midi": 65,
        "time": 218.5,
        "duration": 0.25,
        "velocity": 0.09,
        "hand": "right"
      },
      {
        "midi": 73,
        "time": 218.5,
        "duration": 0.25,
        "velocity": 0.93,
        "hand": "right"
      },
      {
        "midi": 63,
        "time": 218.75,
        "duration": 0.25,
        "velocity": 0.09,
        "hand": "right"
      },
      {
        "midi": 66,
        "time": 218.75,
        "duration": 0.25,
        "velocity": 0.93,
        "hand": "right"
      },
      {
        "midi": 69,
        "time": 218.75,
        "duration": 0.25,
        "velocity": 0.93,
        "hand": "right"
      },
      {
        "midi": 72,
        "time": 218.75,
        "duration": 0.25,
        "velocity": 0.93,
        "hand": "right"
      },
      {
        "midi": 29,
        "time": 219,
        "duration": 0.5,
        "velocity": 0.09,
        "hand": "left"
      },
      {
        "midi": 41,
        "time": 219,
        "duration": 0.5,
        "velocity": 0.09,
        "hand": "left"
      },
      {
        "midi": 78,
        "time": 219,
        "duration": 0.25,
        "velocity": 0.93,
        "hand": "right"
      },
      {
        "midi": 69,
        "time": 219.25,
        "duration": 0.25,
        "velocity": 0.93,
        "hand": "right"
      },
      {
        "midi": 75,
        "time": 219.25,
        "duration": 0.25,
        "velocity": 0.93,
        "hand": "right"
      },
      {
        "midi": 77,
        "time": 219.25,
        "duration": 0.25,
        "velocity": 0.93,
        "hand": "right"
      },
      {
        "midi": 82,
        "time": 219.5,
        "duration": 0.25,
        "velocity": 0.93,
        "hand": "right"
      },
      {
        "midi": 72,
        "time": 219.75,
        "duration": 0.25,
        "velocity": 0.09,
        "hand": "right"
      },
      {
        "midi": 75,
        "time": 219.75,
        "duration": 0.25,
        "velocity": 0.93,
        "hand": "right"
      },
      {
        "midi": 77,
        "time": 219.75,
        "duration": 0.25,
        "velocity": 0.93,
        "hand": "right"
      },
      {
        "midi": 81,
        "time": 219.75,
        "duration": 0.25,
        "velocity": 0.93,
        "hand": "right"
      },
      {
        "midi": 77,
        "time": 220,
        "duration": 0.25,
        "velocity": 0.09,
        "hand": "right"
      },
      {
        "midi": 85,
        "time": 220,
        "duration": 0.25,
        "velocity": 0.93,
        "hand": "right"
      },
      {
        "midi": 75,
        "time": 220.25,
        "duration": 0.25,
        "velocity": 0.09,
        "hand": "right"
      },
      {
        "midi": 77,
        "time": 220.25,
        "duration": 0.25,
        "velocity": 0.93,
        "hand": "right"
      },
      {
        "midi": 81,
        "time": 220.25,
        "duration": 0.25,
        "velocity": 0.93,
        "hand": "right"
      },
      {
        "midi": 84,
        "time": 220.25,
        "duration": 0.25,
        "velocity": 0.93,
        "hand": "right"
      },
      {
        "midi": 65,
        "time": 220.5,
        "duration": 0.5,
        "velocity": 0.09,
        "hand": "right"
      },
      {
        "midi": 89,
        "time": 220.5,
        "duration": 0.25,
        "velocity": 0.93,
        "hand": "right"
      },
      {
        "midi": 81,
        "time": 220.75,
        "duration": 0.25,
        "velocity": 0.93,
        "hand": "right"
      },
      {
        "midi": 84,
        "time": 220.75,
        "duration": 0.25,
        "velocity": 0.93,
        "hand": "right"
      },
      {
        "midi": 87,
        "time": 220.75,
        "duration": 0.25,
        "velocity": 0.93,
        "hand": "right"
      },
      {
        "midi": 90,
        "time": 221,
        "duration": 0.25,
        "velocity": 0.93,
        "hand": "right"
      },
      {
        "midi": 81,
        "time": 221.25,
        "duration": 0.25,
        "velocity": 0.09,
        "hand": "right"
      },
      {
        "midi": 84,
        "time": 221.25,
        "duration": 0.25,
        "velocity": 0.93,
        "hand": "right"
      },
      {
        "midi": 87,
        "time": 221.25,
        "duration": 0.25,
        "velocity": 0.93,
        "hand": "right"
      },
      {
        "midi": 89,
        "time": 221.25,
        "duration": 0.25,
        "velocity": 0.93,
        "hand": "right"
      },
      {
        "midi": 72,
        "time": 221.5,
        "duration": 0.25,
        "velocity": 0.09,
        "hand": "right"
      },
      {
        "midi": 91,
        "time": 221.5,
        "duration": 0.25,
        "velocity": 0.93,
        "hand": "right"
      },
      {
        "midi": 81,
        "time": 221.75,
        "duration": 0.25,
        "velocity": 0.09,
        "hand": "right"
      },
      {
        "midi": 84,
        "time": 221.75,
        "duration": 0.25,
        "velocity": 0.93,
        "hand": "right"
      },
      {
        "midi": 87,
        "time": 221.75,
        "duration": 0.25,
        "velocity": 0.93,
        "hand": "right"
      },
      {
        "midi": 89,
        "time": 221.75,
        "duration": 0.25,
        "velocity": 0.93,
        "hand": "right"
      },
      {
        "midi": 65,
        "time": 222,
        "duration": 0.25,
        "velocity": 0.09,
        "hand": "right"
      },
      {
        "midi": 90,
        "time": 222,
        "duration": 0.25,
        "velocity": 0.93,
        "hand": "right"
      },
      {
        "midi": 81,
        "time": 222.25,
        "duration": 0.25,
        "velocity": 0.09,
        "hand": "right"
      },
      {
        "midi": 84,
        "time": 222.25,
        "duration": 0.25,
        "velocity": 0.93,
        "hand": "right"
      },
      {
        "midi": 87,
        "time": 222.25,
        "duration": 0.25,
        "velocity": 0.93,
        "hand": "right"
      },
      {
        "midi": 89,
        "time": 222.25,
        "duration": 0.25,
        "velocity": 0.93,
        "hand": "right"
      },
      {
        "midi": 72,
        "time": 222.5,
        "duration": 0.25,
        "velocity": 0.09,
        "hand": "right"
      },
      {
        "midi": 91,
        "time": 222.5,
        "duration": 0.25,
        "velocity": 0.93,
        "hand": "right"
      },
      {
        "midi": 81,
        "time": 222.75,
        "duration": 0.25,
        "velocity": 0.09,
        "hand": "right"
      },
      {
        "midi": 84,
        "time": 222.75,
        "duration": 0.25,
        "velocity": 0.93,
        "hand": "right"
      },
      {
        "midi": 87,
        "time": 222.75,
        "duration": 0.25,
        "velocity": 0.93,
        "hand": "right"
      },
      {
        "midi": 89,
        "time": 222.75,
        "duration": 0.25,
        "velocity": 0.93,
        "hand": "right"
      },
      {
        "midi": 65,
        "time": 223,
        "duration": 0.25,
        "velocity": 0.09,
        "hand": "right"
      },
      {
        "midi": 90,
        "time": 223,
        "duration": 0.25,
        "velocity": 0.93,
        "hand": "right"
      },
      {
        "midi": 81,
        "time": 223.25,
        "duration": 0.25,
        "velocity": 0.09,
        "hand": "right"
      },
      {
        "midi": 84,
        "time": 223.25,
        "duration": 0.25,
        "velocity": 0.93,
        "hand": "right"
      },
      {
        "midi": 87,
        "time": 223.25,
        "duration": 0.25,
        "velocity": 0.93,
        "hand": "right"
      },
      {
        "midi": 89,
        "time": 223.25,
        "duration": 0.25,
        "velocity": 0.93,
        "hand": "right"
      },
      {
        "midi": 72,
        "time": 223.5,
        "duration": 0.25,
        "velocity": 0.09,
        "hand": "right"
      },
      {
        "midi": 91,
        "time": 223.5,
        "duration": 0.25,
        "velocity": 0.93,
        "hand": "right"
      },
      {
        "midi": 81,
        "time": 223.75,
        "duration": 0.25,
        "velocity": 0.09,
        "hand": "right"
      },
      {
        "midi": 84,
        "time": 223.75,
        "duration": 0.25,
        "velocity": 0.93,
        "hand": "right"
      },
      {
        "midi": 87,
        "time": 223.75,
        "duration": 0.25,
        "velocity": 0.93,
        "hand": "right"
      },
      {
        "midi": 89,
        "time": 223.75,
        "duration": 0.25,
        "velocity": 0.93,
        "hand": "right"
      },
      {
        "midi": 65,
        "time": 224,
        "duration": 0.25,
        "velocity": 0.09,
        "hand": "right"
      },
      {
        "midi": 90,
        "time": 224,
        "duration": 0.25,
        "velocity": 0.93,
        "hand": "right"
      },
      {
        "midi": 81,
        "time": 224.25,
        "duration": 0.25,
        "velocity": 0.09,
        "hand": "right"
      },
      {
        "midi": 84,
        "time": 224.25,
        "duration": 0.25,
        "velocity": 0.93,
        "hand": "right"
      },
      {
        "midi": 87,
        "time": 224.25,
        "duration": 0.25,
        "velocity": 0.93,
        "hand": "right"
      },
      {
        "midi": 89,
        "time": 224.25,
        "duration": 0.25,
        "velocity": 0.93,
        "hand": "right"
      },
      {
        "midi": 72,
        "time": 224.5,
        "duration": 0.25,
        "velocity": 0.09,
        "hand": "right"
      },
      {
        "midi": 91,
        "time": 224.5,
        "duration": 0.25,
        "velocity": 0.93,
        "hand": "right"
      },
      {
        "midi": 81,
        "time": 224.75,
        "duration": 0.25,
        "velocity": 0.09,
        "hand": "right"
      },
      {
        "midi": 84,
        "time": 224.75,
        "duration": 0.25,
        "velocity": 0.93,
        "hand": "right"
      },
      {
        "midi": 87,
        "time": 224.75,
        "duration": 0.25,
        "velocity": 0.93,
        "hand": "right"
      },
      {
        "midi": 89,
        "time": 224.75,
        "duration": 0.25,
        "velocity": 0.93,
        "hand": "right"
      },
      {
        "midi": 75,
        "time": 225,
        "duration": 0.5,
        "velocity": 0.09,
        "hand": "right"
      },
      {
        "midi": 88,
        "time": 225,
        "duration": 0.25,
        "velocity": 0.93,
        "hand": "right"
      },
      {
        "midi": 89,
        "time": 225.25,
        "duration": 0.25,
        "velocity": 0.93,
        "hand": "right"
      },
      {
        "midi": 101,
        "time": 225.5,
        "duration": 0.25,
        "velocity": 0.93,
        "hand": "right"
      },
      {
        "midi": 90,
        "time": 225.75,
        "duration": 0.25,
        "velocity": 0.93,
        "hand": "right"
      },
      {
        "midi": 101,
        "time": 226,
        "duration": 0.25,
        "velocity": 0.93,
        "hand": "right"
      },
      {
        "midi": 91,
        "time": 226.25,
        "duration": 0.25,
        "velocity": 0.93,
        "hand": "right"
      },
      {
        "midi": 92,
        "time": 226.5,
        "duration": 0.25,
        "velocity": 0.93,
        "hand": "right"
      },
      {
        "midi": 93,
        "time": 226.75,
        "duration": 0.25,
        "velocity": 0.93,
        "hand": "right"
      },
      {
        "midi": 98,
        "time": 227,
        "duration": 0.25,
        "velocity": 0.93,
        "hand": "right"
      },
      {
        "midi": 96,
        "time": 227.25,
        "duration": 0.25,
        "velocity": 0.93,
        "hand": "right"
      },
      {
        "midi": 94,
        "time": 227.5,
        "duration": 0.25,
        "velocity": 0.93,
        "hand": "right"
      },
      {
        "midi": 91,
        "time": 227.75,
        "duration": 0.25,
        "velocity": 0.93,
        "hand": "right"
      },
      {
        "midi": 89,
        "time": 228,
        "duration": 0.25,
        "velocity": 0.93,
        "hand": "right"
      },
      {
        "midi": 86,
        "time": 228.25,
        "duration": 0.25,
        "velocity": 0.93,
        "hand": "right"
      },
      {
        "midi": 87,
        "time": 228.5,
        "duration": 0.25,
        "velocity": 0.93,
        "hand": "right"
      },
      {
        "midi": 91,
        "time": 228.75,
        "duration": 0.25,
        "velocity": 0.93,
        "hand": "right"
      },
      {
        "midi": 89,
        "time": 229,
        "duration": 0.25,
        "velocity": 0.93,
        "hand": "right"
      },
      {
        "midi": 87,
        "time": 229.25,
        "duration": 0.25,
        "velocity": 0.93,
        "hand": "right"
      },
      {
        "midi": 84,
        "time": 229.5,
        "duration": 0.25,
        "velocity": 0.93,
        "hand": "right"
      },
      {
        "midi": 81,
        "time": 229.75,
        "duration": 0.25,
        "velocity": 0.93,
        "hand": "right"
      },
      {
        "midi": 82,
        "time": 230,
        "duration": 0.25,
        "velocity": 0.93,
        "hand": "right"
      },
      {
        "midi": 86,
        "time": 230.25,
        "duration": 0.25,
        "velocity": 0.93,
        "hand": "right"
      },
      {
        "midi": 84,
        "time": 230.5,
        "duration": 0.25,
        "velocity": 0.93,
        "hand": "right"
      },
      {
        "midi": 82,
        "time": 230.75,
        "duration": 0.25,
        "velocity": 0.93,
        "hand": "right"
      },
      {
        "midi": 79,
        "time": 231,
        "duration": 0.25,
        "velocity": 0.93,
        "hand": "right"
      },
      {
        "midi": 77,
        "time": 231.25,
        "duration": 0.25,
        "velocity": 0.93,
        "hand": "right"
      },
      {
        "midi": 74,
        "time": 231.5,
        "duration": 0.25,
        "velocity": 0.93,
        "hand": "right"
      },
      {
        "midi": 75,
        "time": 231.75,
        "duration": 0.25,
        "velocity": 0.93,
        "hand": "right"
      },
      {
        "midi": 79,
        "time": 232,
        "duration": 0.25,
        "velocity": 0.93,
        "hand": "right"
      },
      {
        "midi": 77,
        "time": 232.25,
        "duration": 0.25,
        "velocity": 0.93,
        "hand": "right"
      },
      {
        "midi": 75,
        "time": 232.5,
        "duration": 0.25,
        "velocity": 0.93,
        "hand": "right"
      },
      {
        "midi": 72,
        "time": 232.75,
        "duration": 0.25,
        "velocity": 0.93,
        "hand": "right"
      },
      {
        "midi": 60,
        "time": 233,
        "duration": 0.25,
        "velocity": 0.09,
        "hand": "right"
      },
      {
        "midi": 69,
        "time": 233,
        "duration": 0.25,
        "velocity": 0.93,
        "hand": "right"
      },
      {
        "midi": 62,
        "time": 233.25,
        "duration": 0.25,
        "velocity": 0.09,
        "hand": "right"
      },
      {
        "midi": 70,
        "time": 233.25,
        "duration": 0.25,
        "velocity": 0.93,
        "hand": "right"
      },
      {
        "midi": 65,
        "time": 233.5,
        "duration": 0.25,
        "velocity": 0.09,
        "hand": "right"
      },
      {
        "midi": 74,
        "time": 233.5,
        "duration": 0.25,
        "velocity": 0.93,
        "hand": "right"
      },
      {
        "midi": 63,
        "time": 233.75,
        "duration": 0.25,
        "velocity": 0.09,
        "hand": "right"
      },
      {
        "midi": 72,
        "time": 233.75,
        "duration": 0.25,
        "velocity": 0.93,
        "hand": "right"
      },
      {
        "midi": 62,
        "time": 234,
        "duration": 0.25,
        "velocity": 0.09,
        "hand": "right"
      },
      {
        "midi": 70,
        "time": 234,
        "duration": 0.25,
        "velocity": 0.93,
        "hand": "right"
      },
      {
        "midi": 58,
        "time": 234.25,
        "duration": 0.25,
        "velocity": 0.09,
        "hand": "left"
      },
      {
        "midi": 67,
        "time": 234.25,
        "duration": 0.25,
        "velocity": 0.93,
        "hand": "right"
      },
      {
        "midi": 57,
        "time": 234.5,
        "duration": 0.25,
        "velocity": 0.09,
        "hand": "left"
      },
      {
        "midi": 65,
        "time": 234.5,
        "duration": 0.25,
        "velocity": 0.93,
        "hand": "right"
      },
      {
        "midi": 53,
        "time": 234.75,
        "duration": 0.25,
        "velocity": 0.09,
        "hand": "left"
      },
      {
        "midi": 62,
        "time": 234.75,
        "duration": 0.25,
        "velocity": 0.93,
        "hand": "right"
      },
      {
        "midi": 55,
        "time": 235,
        "duration": 0.25,
        "velocity": 0.09,
        "hand": "left"
      },
      {
        "midi": 63,
        "time": 235,
        "duration": 0.25,
        "velocity": 0.93,
        "hand": "right"
      },
      {
        "midi": 58,
        "time": 235.25,
        "duration": 0.25,
        "velocity": 0.09,
        "hand": "left"
      },
      {
        "midi": 67,
        "time": 235.25,
        "duration": 0.25,
        "velocity": 0.93,
        "hand": "right"
      },
      {
        "midi": 57,
        "time": 235.5,
        "duration": 0.25,
        "velocity": 0.09,
        "hand": "left"
      },
      {
        "midi": 65,
        "time": 235.5,
        "duration": 0.25,
        "velocity": 0.93,
        "hand": "right"
      },
      {
        "midi": 55,
        "time": 235.75,
        "duration": 0.25,
        "velocity": 0.09,
        "hand": "left"
      },
      {
        "midi": 63,
        "time": 235.75,
        "duration": 0.25,
        "velocity": 0.93,
        "hand": "right"
      },
      {
        "midi": 51,
        "time": 236,
        "duration": 0.25,
        "velocity": 0.09,
        "hand": "left"
      },
      {
        "midi": 60,
        "time": 236,
        "duration": 0.25,
        "velocity": 0.93,
        "hand": "right"
      },
      {
        "midi": 48,
        "time": 236.25,
        "duration": 0.25,
        "velocity": 0.09,
        "hand": "left"
      },
      {
        "midi": 57,
        "time": 236.25,
        "duration": 0.25,
        "velocity": 0.93,
        "hand": "left"
      },
      {
        "midi": 51,
        "time": 236.5,
        "duration": 0.75,
        "velocity": 0.09,
        "hand": "left"
      },
      {
        "midi": 60,
        "time": 236.5,
        "duration": 0.25,
        "velocity": 0.93,
        "hand": "right"
      },
      {
        "midi": 55,
        "time": 236.75,
        "duration": 0.25,
        "velocity": 0.93,
        "hand": "left"
      },
      {
        "midi": 53,
        "time": 237,
        "duration": 1.5,
        "velocity": 0.93,
        "hand": "left"
      },
      {
        "midi": 50,
        "time": 237.25,
        "duration": 0.25,
        "velocity": 0.09,
        "hand": "left"
      },
      {
        "midi": 48,
        "time": 237.5,
        "duration": 0.25,
        "velocity": 0.09,
        "hand": "left"
      },
      {
        "midi": 46,
        "time": 237.75,
        "duration": 0.25,
        "velocity": 0.09,
        "hand": "left"
      },
      {
        "midi": 41,
        "time": 238,
        "duration": 0.5,
        "velocity": 0.09,
        "hand": "left"
      },
      {
        "midi": 57,
        "time": 238,
        "duration": 0.5,
        "velocity": 0.93,
        "hand": "left"
      },
      {
        "midi": 62,
        "time": 238,
        "duration": 0.5,
        "velocity": 0.93,
        "hand": "right"
      },
      {
        "midi": 46,
        "time": 238.5,
        "duration": 1,
        "velocity": 0.09,
        "hand": "left"
      },
      {
        "midi": 53,
        "time": 238.5,
        "duration": 1,
        "velocity": 0.09,
        "hand": "left"
      },
      {
        "midi": 58,
        "time": 238.5,
        "duration": 1,
        "velocity": 0.93,
        "hand": "left"
      },
      {
        "midi": 62,
        "time": 238.5,
        "duration": 1,
        "velocity": 0.93,
        "hand": "right"
      },
      {
        "midi": 41,
        "time": 239.5,
        "duration": 0.5,
        "velocity": 0.09,
        "hand": "left"
      },
      {
        "midi": 53,
        "time": 239.5,
        "duration": 0.5,
        "velocity": 0.09,
        "hand": "left"
      },
      {
        "midi": 57,
        "time": 239.5,
        "duration": 0.5,
        "velocity": 0.93,
        "hand": "left"
      },
      {
        "midi": 62,
        "time": 239.5,
        "duration": 0.5,
        "velocity": 0.93,
        "hand": "right"
      },
      {
        "midi": 46,
        "time": 240,
        "duration": 1,
        "velocity": 0.09,
        "hand": "left"
      },
      {
        "midi": 53,
        "time": 240,
        "duration": 1,
        "velocity": 0.09,
        "hand": "left"
      },
      {
        "midi": 58,
        "time": 240,
        "duration": 1,
        "velocity": 0.93,
        "hand": "left"
      },
      {
        "midi": 62,
        "time": 240,
        "duration": 1,
        "velocity": 0.93,
        "hand": "right"
      },
      {
        "midi": 41,
        "time": 241,
        "duration": 0.5,
        "velocity": 0.09,
        "hand": "left"
      },
      {
        "midi": 53,
        "time": 241,
        "duration": 0.5,
        "velocity": 0.09,
        "hand": "left"
      },
      {
        "midi": 62,
        "time": 241,
        "duration": 0.5,
        "velocity": 0.93,
        "hand": "right"
      },
      {
        "midi": 70,
        "time": 241,
        "duration": 0.5,
        "velocity": 0.93,
        "hand": "right"
      },
      {
        "midi": 46,
        "time": 241.5,
        "duration": 1,
        "velocity": 0.09,
        "hand": "left"
      },
      {
        "midi": 53,
        "time": 241.5,
        "duration": 1,
        "velocity": 0.09,
        "hand": "left"
      },
      {
        "midi": 58,
        "time": 241.5,
        "duration": 1,
        "velocity": 0.71,
        "hand": "left"
      },
      {
        "midi": 62,
        "time": 241.5,
        "duration": 1.5,
        "velocity": 0.71,
        "hand": "right"
      },
      {
        "midi": 40,
        "time": 242.5,
        "duration": 0.5,
        "velocity": 0.09,
        "hand": "left"
      },
      {
        "midi": 52,
        "time": 242.5,
        "duration": 0.5,
        "velocity": 0.09,
        "hand": "left"
      },
      {
        "midi": 56,
        "time": 242.5,
        "duration": 0.5,
        "velocity": 0.71,
        "hand": "left"
      },
      {
        "midi": 45,
        "time": 243,
        "duration": 1,
        "velocity": 0.09,
        "hand": "left"
      },
      {
        "midi": 52,
        "time": 243,
        "duration": 1,
        "velocity": 0.09,
        "hand": "left"
      },
      {
        "midi": 57,
        "time": 243,
        "duration": 1,
        "velocity": 0.93,
        "hand": "left"
      },
      {
        "midi": 61,
        "time": 243,
        "duration": 1,
        "velocity": 0.93,
        "hand": "right"
      },
      {
        "midi": 40,
        "time": 244,
        "duration": 0.5,
        "velocity": 0.09,
        "hand": "left"
      },
      {
        "midi": 52,
        "time": 244,
        "duration": 0.5,
        "velocity": 0.09,
        "hand": "left"
      },
      {
        "midi": 61,
        "time": 244,
        "duration": 0.5,
        "velocity": 0.93,
        "hand": "right"
      },
      {
        "midi": 69,
        "time": 244,
        "duration": 0.5,
        "velocity": 0.93,
        "hand": "right"
      },
      {
        "midi": 45,
        "time": 244.5,
        "duration": 1,
        "velocity": 0.09,
        "hand": "left"
      },
      {
        "midi": 52,
        "time": 244.5,
        "duration": 1,
        "velocity": 0.09,
        "hand": "left"
      },
      {
        "midi": 57,
        "time": 244.5,
        "duration": 1,
        "velocity": 0.93,
        "hand": "left"
      },
      {
        "midi": 61,
        "time": 244.5,
        "duration": 1,
        "velocity": 0.93,
        "hand": "right"
      },
      {
        "midi": 38,
        "time": 245.5,
        "duration": 0.5,
        "velocity": 0.09,
        "hand": "left"
      },
      {
        "midi": 54,
        "time": 245.5,
        "duration": 0.5,
        "velocity": 0.93,
        "hand": "left"
      },
      {
        "midi": 60,
        "time": 245.5,
        "duration": 0.5,
        "velocity": 0.93,
        "hand": "right"
      },
      {
        "midi": 43,
        "time": 246,
        "duration": 1,
        "velocity": 0.09,
        "hand": "left"
      },
      {
        "midi": 50,
        "time": 246,
        "duration": 1,
        "velocity": 0.09,
        "hand": "left"
      },
      {
        "midi": 55,
        "time": 246,
        "duration": 1,
        "velocity": 0.93,
        "hand": "left"
      },
      {
        "midi": 58,
        "time": 246,
        "duration": 1,
        "velocity": 0.93,
        "hand": "left"
      },
      {
        "midi": 36,
        "time": 247,
        "duration": 0.5,
        "velocity": 0.09,
        "hand": "left"
      },
      {
        "midi": 55,
        "time": 247,
        "duration": 0.5,
        "velocity": 0.93,
        "hand": "left"
      },
      {
        "midi": 60,
        "time": 247,
        "duration": 0.5,
        "velocity": 0.93,
        "hand": "right"
      },
      {
        "midi": 63,
        "time": 247,
        "duration": 0.5,
        "velocity": 0.93,
        "hand": "right"
      },
      {
        "midi": 41,
        "time": 247.5,
        "duration": 1,
        "velocity": 0.09,
        "hand": "left"
      },
      {
        "midi": 53,
        "time": 247.5,
        "duration": 1,
        "velocity": 0.93,
        "hand": "left"
      },
      {
        "midi": 58,
        "time": 247.5,
        "duration": 1,
        "velocity": 0.93,
        "hand": "left"
      },
      {
        "midi": 62,
        "time": 247.5,
        "duration": 1,
        "velocity": 0.93,
        "hand": "right"
      },
      {
        "midi": 41,
        "time": 248.5,
        "duration": 0.5,
        "velocity": 0.09,
        "hand": "left"
      },
      {
        "midi": 53,
        "time": 248.5,
        "duration": 0.5,
        "velocity": 0.93,
        "hand": "left"
      },
      {
        "midi": 57,
        "time": 248.5,
        "duration": 0.5,
        "velocity": 0.93,
        "hand": "left"
      },
      {
        "midi": 60,
        "time": 248.5,
        "duration": 0.5,
        "velocity": 0.93,
        "hand": "right"
      },
      {
        "midi": 34,
        "time": 249,
        "duration": 0.5,
        "velocity": 0.09,
        "hand": "left"
      },
      {
        "midi": 46,
        "time": 249,
        "duration": 0.5,
        "velocity": 0.09,
        "hand": "left"
      },
      {
        "midi": 53,
        "time": 249,
        "duration": 0.5,
        "velocity": 0.93,
        "hand": "left"
      },
      {
        "midi": 58,
        "time": 249,
        "duration": 0.5,
        "velocity": 0.93,
        "hand": "left"
      },
      {
        "midi": 62,
        "time": 249,
        "duration": 0.5,
        "velocity": 0.93,
        "hand": "right"
      },
      {
        "midi": 46,
        "time": 250,
        "duration": 0.5,
        "velocity": 0.09,
        "hand": "left"
      },
      {
        "midi": 53,
        "time": 250,
        "duration": 0.5,
        "velocity": 0.09,
        "hand": "left"
      },
      {
        "midi": 58,
        "time": 250,
        "duration": 0.5,
        "velocity": 0.09,
        "hand": "left"
      },
      {
        "midi": 62,
        "time": 250,
        "duration": 0.5,
        "velocity": 0.93,
        "hand": "right"
      },
      {
        "midi": 65,
        "time": 250,
        "duration": 0.5,
        "velocity": 0.93,
        "hand": "right"
      },
      {
        "midi": 74,
        "time": 250,
        "duration": 0.5,
        "velocity": 0.93,
        "hand": "right"
      },
      {
        "midi": 45,
        "time": 250.5,
        "duration": 1.5,
        "velocity": 0.09,
        "hand": "left"
      },
      {
        "midi": 50,
        "time": 250.5,
        "duration": 2.5,
        "velocity": 0.09,
        "hand": "left"
      },
      {
        "midi": 57,
        "time": 250.5,
        "duration": 1.5,
        "velocity": 0.09,
        "hand": "left"
      },
      {
        "midi": 60,
        "time": 250.5,
        "duration": 1.5,
        "velocity": 0.93,
        "hand": "right"
      },
      {
        "midi": 62,
        "time": 250.5,
        "duration": 1.5,
        "velocity": 0.93,
        "hand": "right"
      },
      {
        "midi": 66,
        "time": 250.5,
        "duration": 1.5,
        "velocity": 0.93,
        "hand": "right"
      },
      {
        "midi": 74,
        "time": 250.5,
        "duration": 1.5,
        "velocity": 0.93,
        "hand": "right"
      },
      {
        "midi": 43,
        "time": 252,
        "duration": 1,
        "velocity": 0.09,
        "hand": "left"
      },
      {
        "midi": 58,
        "time": 252,
        "duration": 1,
        "velocity": 0.09,
        "hand": "left"
      },
      {
        "midi": 62,
        "time": 252,
        "duration": 1,
        "velocity": 0.93,
        "hand": "right"
      },
      {
        "midi": 67,
        "time": 252,
        "duration": 1,
        "velocity": 0.93,
        "hand": "right"
      },
      {
        "midi": 70,
        "time": 252,
        "duration": 1,
        "velocity": 0.93,
        "hand": "right"
      },
      {
        "midi": 48,
        "time": 253,
        "duration": 0.5,
        "velocity": 0.09,
        "hand": "left"
      },
      {
        "midi": 58,
        "time": 253,
        "duration": 0.25,
        "velocity": 0.93,
        "hand": "left"
      },
      {
        "midi": 63,
        "time": 253,
        "duration": 0.25,
        "velocity": 0.93,
        "hand": "right"
      },
      {
        "midi": 67,
        "time": 253,
        "duration": 0.25,
        "velocity": 0.93,
        "hand": "right"
      },
      {
        "midi": 58,
        "time": 253.25,
        "duration": 0.125,
        "velocity": 0.93,
        "hand": "left"
      },
      {
        "midi": 48,
        "time": 253.5,
        "duration": 1,
        "velocity": 0.09,
        "hand": "left"
      },
      {
        "midi": 58,
        "time": 253.5,
        "duration": 1,
        "velocity": 0.93,
        "hand": "left"
      },
      {
        "midi": 63,
        "time": 253.5,
        "duration": 1,
        "velocity": 0.93,
        "hand": "right"
      },
      {
        "midi": 67,
        "time": 253.5,
        "duration": 1,
        "velocity": 0.93,
        "hand": "right"
      },
      {
        "midi": 69,
        "time": 253.5,
        "duration": 0.125,
        "velocity": 0.93,
        "hand": "right"
      },
      {
        "midi": 41,
        "time": 254.5,
        "duration": 0.5,
        "velocity": 0.09,
        "hand": "left"
      },
      {
        "midi": 53,
        "time": 254.5,
        "duration": 0.5,
        "velocity": 0.09,
        "hand": "left"
      },
      {
        "midi": 57,
        "time": 254.5,
        "duration": 0.5,
        "velocity": 0.93,
        "hand": "left"
      },
      {
        "midi": 63,
        "time": 254.5,
        "duration": 0.5,
        "velocity": 0.93,
        "hand": "right"
      },
      {
        "midi": 65,
        "time": 254.5,
        "duration": 1,
        "velocity": 0.93,
        "hand": "right"
      },
      {
        "midi": 34,
        "time": 255,
        "duration": 0.5,
        "velocity": 0.09,
        "hand": "left"
      },
      {
        "midi": 46,
        "time": 255,
        "duration": 0.5,
        "velocity": 0.09,
        "hand": "left"
      },
      {
        "midi": 58,
        "time": 255,
        "duration": 0.5,
        "velocity": 0.93,
        "hand": "left"
      },
      {
        "midi": 62,
        "time": 255,
        "duration": 0.5,
        "velocity": 0.93,
        "hand": "right"
      },
      {
        "midi": 46,
        "time": 256,
        "duration": 0.5,
        "velocity": 0.09,
        "hand": "left"
      },
      {
        "midi": 53,
        "time": 256,
        "duration": 0.5,
        "velocity": 0.09,
        "hand": "left"
      },
      {
        "midi": 58,
        "time": 256,
        "duration": 0.5,
        "velocity": 0.09,
        "hand": "left"
      },
      {
        "midi": 62,
        "time": 256,
        "duration": 0.5,
        "velocity": 0.93,
        "hand": "right"
      },
      {
        "midi": 65,
        "time": 256,
        "duration": 0.5,
        "velocity": 0.93,
        "hand": "right"
      },
      {
        "midi": 74,
        "time": 256,
        "duration": 0.5,
        "velocity": 0.93,
        "hand": "right"
      },
      {
        "midi": 46,
        "time": 256.5,
        "duration": 1,
        "velocity": 0.09,
        "hand": "left"
      },
      {
        "midi": 53,
        "time": 256.5,
        "duration": 1,
        "velocity": 0.09,
        "hand": "left"
      },
      {
        "midi": 58,
        "time": 256.5,
        "duration": 1,
        "velocity": 0.09,
        "hand": "left"
      },
      {
        "midi": 62,
        "time": 256.5,
        "duration": 1,
        "velocity": 0.93,
        "hand": "right"
      },
      {
        "midi": 70,
        "time": 256.5,
        "duration": 1,
        "velocity": 0.93,
        "hand": "right"
      },
      {
        "midi": 58,
        "time": 257.5,
        "duration": 1,
        "velocity": 0.09,
        "hand": "left"
      },
      {
        "midi": 61,
        "time": 257.5,
        "duration": 1,
        "velocity": 0.09,
        "hand": "right"
      },
      {
        "midi": 64,
        "time": 257.5,
        "duration": 1,
        "velocity": 0.09,
        "hand": "right"
      },
      {
        "midi": 67,
        "time": 257.5,
        "duration": 1,
        "velocity": 0.93,
        "hand": "right"
      },
      {
        "midi": 70,
        "time": 257.5,
        "duration": 1,
        "velocity": 0.93,
        "hand": "right"
      },
      {
        "midi": 79,
        "time": 257.5,
        "duration": 1,
        "velocity": 0.93,
        "hand": "right"
      },
      {
        "midi": 58,
        "time": 258.5,
        "duration": 0.5,
        "velocity": 0.09,
        "hand": "left"
      },
      {
        "midi": 62,
        "time": 258.5,
        "duration": 0.5,
        "velocity": 0.09,
        "hand": "right"
      },
      {
        "midi": 65,
        "time": 258.5,
        "duration": 0.5,
        "velocity": 0.09,
        "hand": "right"
      },
      {
        "midi": 70,
        "time": 258.5,
        "duration": 0.5,
        "velocity": 0.93,
        "hand": "right"
      },
      {
        "midi": 77,
        "time": 258.5,
        "duration": 0.5,
        "velocity": 0.93,
        "hand": "right"
      },
      {
        "midi": 58,
        "time": 259,
        "duration": 0.5,
        "velocity": 0.09,
        "hand": "left"
      },
      {
        "midi": 61,
        "time": 259,
        "duration": 0.5,
        "velocity": 0.09,
        "hand": "right"
      },
      {
        "midi": 67,
        "time": 259,
        "duration": 0.5,
        "velocity": 0.09,
        "hand": "right"
      },
      {
        "midi": 70,
        "time": 259,
        "duration": 0.5,
        "velocity": 0.93,
        "hand": "right"
      },
      {
        "midi": 76,
        "time": 259,
        "duration": 0.5,
        "velocity": 0.93,
        "hand": "right"
      },
      {
        "midi": 58,
        "time": 259.5,
        "duration": 1,
        "velocity": 0.09,
        "hand": "left"
      },
      {
        "midi": 62,
        "time": 259.5,
        "duration": 1,
        "velocity": 0.09,
        "hand": "right"
      },
      {
        "midi": 65,
        "time": 259.5,
        "duration": 1,
        "velocity": 0.09,
        "hand": "right"
      },
      {
        "midi": 68,
        "time": 259.5,
        "duration": 2.5,
        "velocity": 0.93,
        "hand": "right"
      },
      {
        "midi": 70,
        "time": 259.5,
        "duration": 2.5,
        "velocity": 0.93,
        "hand": "right"
      },
      {
        "midi": 77,
        "time": 259.5,
        "duration": 2.5,
        "velocity": 0.93,
        "hand": "right"
      },
      {
        "midi": 34,
        "time": 260.5,
        "duration": 0.5,
        "velocity": 0.09,
        "hand": "left"
      },
      {
        "midi": 46,
        "time": 260.5,
        "duration": 0.5,
        "velocity": 0.09,
        "hand": "left"
      },
      {
        "midi": 34,
        "time": 261,
        "duration": 0.5,
        "velocity": 0.09,
        "hand": "left"
      },
      {
        "midi": 46,
        "time": 261,
        "duration": 0.5,
        "velocity": 0.09,
        "hand": "left"
      },
      {
        "midi": 46,
        "time": 262,
        "duration": 0.5,
        "velocity": 0.09,
        "hand": "left"
      },
      {
        "midi": 58,
        "time": 262,
        "duration": 0.5,
        "velocity": 0.09,
        "hand": "left"
      },
      {
        "midi": 62,
        "time": 262,
        "duration": 0.5,
        "velocity": 0.93,
        "hand": "right"
      },
      {
        "midi": 68,
        "time": 262,
        "duration": 0.5,
        "velocity": 0.93,
        "hand": "right"
      },
      {
        "midi": 70,
        "time": 262,
        "duration": 0.5,
        "velocity": 0.93,
        "hand": "right"
      },
      {
        "midi": 46,
        "time": 262.5,
        "duration": 1,
        "velocity": 0.09,
        "hand": "left"
      },
      {
        "midi": 58,
        "time": 262.5,
        "duration": 1,
        "velocity": 0.09,
        "hand": "left"
      },
      {
        "midi": 62,
        "time": 262.5,
        "duration": 1,
        "velocity": 0.71,
        "hand": "right"
      },
      {
        "midi": 68,
        "time": 262.5,
        "duration": 1,
        "velocity": 0.71,
        "hand": "right"
      },
      {
        "midi": 70,
        "time": 262.5,
        "duration": 1.5,
        "velocity": 0.71,
        "hand": "right"
      },
      {
        "midi": 51,
        "time": 263.5,
        "duration": 0.5,
        "velocity": 0.09,
        "hand": "left"
      },
      {
        "midi": 58,
        "time": 263.5,
        "duration": 0.5,
        "velocity": 0.09,
        "hand": "left"
      },
      {
        "midi": 63,
        "time": 263.5,
        "duration": 0.5,
        "velocity": 0.71,
        "hand": "right"
      },
      {
        "midi": 67,
        "time": 263.5,
        "duration": 0.5,
        "velocity": 0.71,
        "hand": "right"
      },
      {
        "midi": 51,
        "time": 264,
        "duration": 1,
        "velocity": 0.09,
        "hand": "left"
      },
      {
        "midi": 58,
        "time": 264,
        "duration": 1,
        "velocity": 0.09,
        "hand": "left"
      },
      {
        "midi": 63,
        "time": 264,
        "duration": 1,
        "velocity": 0.93,
        "hand": "right"
      },
      {
        "midi": 67,
        "time": 264,
        "duration": 1,
        "velocity": 0.93,
        "hand": "right"
      },
      {
        "midi": 70,
        "time": 264,
        "duration": 1,
        "velocity": 0.93,
        "hand": "right"
      },
      {
        "midi": 48,
        "time": 265,
        "duration": 0.5,
        "velocity": 0.09,
        "hand": "left"
      },
      {
        "midi": 60,
        "time": 265,
        "duration": 0.5,
        "velocity": 0.09,
        "hand": "right"
      },
      {
        "midi": 63,
        "time": 265,
        "duration": 0.5,
        "velocity": 0.93,
        "hand": "right"
      },
      {
        "midi": 67,
        "time": 265,
        "duration": 0.5,
        "velocity": 0.93,
        "hand": "right"
      },
      {
        "midi": 75,
        "time": 265,
        "duration": 0.5,
        "velocity": 0.93,
        "hand": "right"
      },
      {
        "midi": 48,
        "time": 265.5,
        "duration": 1,
        "velocity": 0.09,
        "hand": "left"
      },
      {
        "midi": 60,
        "time": 265.5,
        "duration": 1,
        "velocity": 0.09,
        "hand": "right"
      },
      {
        "midi": 63,
        "time": 265.5,
        "duration": 1,
        "velocity": 0.93,
        "hand": "right"
      },
      {
        "midi": 67,
        "time": 265.5,
        "duration": 1,
        "velocity": 0.93,
        "hand": "right"
      },
      {
        "midi": 75,
        "time": 265.5,
        "duration": 1,
        "velocity": 0.93,
        "hand": "right"
      },
      {
        "midi": 48,
        "time": 266.5,
        "duration": 0.5,
        "velocity": 0.09,
        "hand": "left"
      },
      {
        "midi": 55,
        "time": 266.5,
        "duration": 0.5,
        "velocity": 0.09,
        "hand": "left"
      },
      {
        "midi": 60,
        "time": 266.5,
        "duration": 0.5,
        "velocity": 0.93,
        "hand": "right"
      },
      {
        "midi": 63,
        "time": 266.5,
        "duration": 0.5,
        "velocity": 0.93,
        "hand": "right"
      },
      {
        "midi": 67,
        "time": 266.5,
        "duration": 0.5,
        "velocity": 0.93,
        "hand": "right"
      },
      {
        "midi": 48,
        "time": 267,
        "duration": 1,
        "velocity": 0.09,
        "hand": "left"
      },
      {
        "midi": 55,
        "time": 267,
        "duration": 1,
        "velocity": 0.09,
        "hand": "left"
      },
      {
        "midi": 60,
        "time": 267,
        "duration": 1,
        "velocity": 0.93,
        "hand": "right"
      },
      {
        "midi": 63,
        "time": 267,
        "duration": 1,
        "velocity": 0.93,
        "hand": "right"
      },
      {
        "midi": 67,
        "time": 267,
        "duration": 1,
        "velocity": 0.93,
        "hand": "right"
      },
      {
        "midi": 43,
        "time": 268,
        "duration": 0.5,
        "velocity": 0.09,
        "hand": "left"
      },
      {
        "midi": 55,
        "time": 268,
        "duration": 0.5,
        "velocity": 0.09,
        "hand": "left"
      },
      {
        "midi": 58,
        "time": 268,
        "duration": 0.5,
        "velocity": 0.93,
        "hand": "left"
      },
      {
        "midi": 62,
        "time": 268,
        "duration": 0.5,
        "velocity": 0.93,
        "hand": "right"
      },
      {
        "midi": 70,
        "time": 268,
        "duration": 0.5,
        "velocity": 0.93,
        "hand": "right"
      },
      {
        "midi": 43,
        "time": 268.5,
        "duration": 1,
        "velocity": 0.09,
        "hand": "left"
      },
      {
        "midi": 55,
        "time": 268.5,
        "duration": 1,
        "velocity": 0.09,
        "hand": "left"
      },
      {
        "midi": 58,
        "time": 268.5,
        "duration": 1,
        "velocity": 0.93,
        "hand": "left"
      },
      {
        "midi": 62,
        "time": 268.5,
        "duration": 1,
        "velocity": 0.93,
        "hand": "right"
      },
      {
        "midi": 70,
        "time": 268.5,
        "duration": 1,
        "velocity": 0.93,
        "hand": "right"
      },
      {
        "midi": 48,
        "time": 269.5,
        "duration": 0.5,
        "velocity": 0.09,
        "hand": "left"
      },
      {
        "midi": 58,
        "time": 269.5,
        "duration": 0.5,
        "velocity": 0.93,
        "hand": "left"
      },
      {
        "midi": 64,
        "time": 269.5,
        "duration": 0.5,
        "velocity": 0.93,
        "hand": "right"
      },
      {
        "midi": 72,
        "time": 269.5,
        "duration": 0.5,
        "velocity": 0.93,
        "hand": "right"
      },
      {
        "midi": 41,
        "time": 270,
        "duration": 3,
        "velocity": 0.09,
        "hand": "left"
      },
      {
        "midi": 48,
        "time": 270,
        "duration": 3,
        "velocity": 0.09,
        "hand": "left"
      },
      {
        "midi": 58,
        "time": 270,
        "duration": 0.5,
        "velocity": 0.71,
        "hand": "left"
      },
      {
        "midi": 63,
        "time": 270,
        "duration": 3,
        "velocity": 0.71,
        "hand": "right"
      },
      {
        "midi": 65,
        "time": 270,
        "duration": 4,
        "velocity": 0.71,
        "hand": "right"
      },
      {
        "midi": 57,
        "time": 270.5,
        "duration": 0.5,
        "velocity": 0.71,
        "hand": "left"
      },
      {
        "midi": 62,
        "time": 271,
        "duration": 0.5,
        "velocity": 0.71,
        "hand": "right"
      },
      {
        "midi": 60,
        "time": 271.5,
        "duration": 0.5,
        "velocity": 0.71,
        "hand": "right"
      },
      {
        "midi": 55,
        "time": 272,
        "duration": 0.5,
        "velocity": 0.71,
        "hand": "left"
      },
      {
        "midi": 57,
        "time": 272.5,
        "duration": 0.5,
        "velocity": 0.71,
        "hand": "left"
      },
      {
        "midi": 46,
        "time": 273,
        "duration": 1.5,
        "velocity": 0.09,
        "hand": "left"
      },
      {
        "midi": 55,
        "time": 273,
        "duration": 0.5,
        "velocity": 0.71,
        "hand": "left"
      },
      {
        "midi": 62,
        "time": 273,
        "duration": 1,
        "velocity": 0.71,
        "hand": "right"
      },
      {
        "midi": 53,
        "time": 273.5,
        "duration": 1,
        "velocity": 0.71,
        "hand": "left"
      },
      {
        "midi": 62,
        "time": 274,
        "duration": 0.5,
        "velocity": 0.71,
        "hand": "right"
      },
      {
        "midi": 74,
        "time": 274,
        "duration": 0.5,
        "velocity": 0.71,
        "hand": "right"
      },
      {
        "midi": 46,
        "time": 274.5,
        "duration": 1,
        "velocity": 0.09,
        "hand": "left"
      },
      {
        "midi": 53,
        "time": 274.5,
        "duration": 1,
        "velocity": 0.09,
        "hand": "left"
      },
      {
        "midi": 62,
        "time": 274.5,
        "duration": 1,
        "velocity": 0.93,
        "hand": "right"
      },
      {
        "midi": 74,
        "time": 274.5,
        "duration": 1,
        "velocity": 0.93,
        "hand": "right"
      },
      {
        "midi": 46,
        "time": 275.5,
        "duration": 0.5,
        "velocity": 0.09,
        "hand": "left"
      },
      {
        "midi": 54,
        "time": 275.5,
        "duration": 0.5,
        "velocity": 0.09,
        "hand": "left"
      },
      {
        "midi": 62,
        "time": 275.5,
        "duration": 0.5,
        "velocity": 0.93,
        "hand": "right"
      },
      {
        "midi": 70,
        "time": 275.5,
        "duration": 0.5,
        "velocity": 0.93,
        "hand": "right"
      },
      {
        "midi": 46,
        "time": 276,
        "duration": 1,
        "velocity": 0.09,
        "hand": "left"
      },
      {
        "midi": 54,
        "time": 276,
        "duration": 1,
        "velocity": 0.09,
        "hand": "left"
      },
      {
        "midi": 62,
        "time": 276,
        "duration": 1,
        "velocity": 0.93,
        "hand": "right"
      },
      {
        "midi": 70,
        "time": 276,
        "duration": 1,
        "velocity": 0.93,
        "hand": "right"
      },
      {
        "midi": 46,
        "time": 277,
        "duration": 0.5,
        "velocity": 0.09,
        "hand": "left"
      },
      {
        "midi": 55,
        "time": 277,
        "duration": 0.5,
        "velocity": 0.09,
        "hand": "left"
      },
      {
        "midi": 62,
        "time": 277,
        "duration": 0.25,
        "velocity": 0.93,
        "hand": "right"
      },
      {
        "midi": 67,
        "time": 277,
        "duration": 0.25,
        "velocity": 0.93,
        "hand": "right"
      },
      {
        "midi": 58,
        "time": 277.25,
        "duration": 0.125,
        "velocity": 0.93,
        "hand": "left"
      },
      {
        "midi": 48,
        "time": 277.5,
        "duration": 1,
        "velocity": 0.09,
        "hand": "left"
      },
      {
        "midi": 55,
        "time": 277.5,
        "duration": 1,
        "velocity": 0.09,
        "hand": "left"
      },
      {
        "midi": 58,
        "time": 277.5,
        "duration": 1,
        "velocity": 0.93,
        "hand": "left"
      },
      {
        "midi": 63,
        "time": 277.5,
        "duration": 1,
        "velocity": 0.93,
        "hand": "right"
      },
      {
        "midi": 67,
        "time": 277.5,
        "duration": 1,
        "velocity": 0.93,
        "hand": "right"
      },
      {
        "midi": 69,
        "time": 277.5,
        "duration": 0.125,
        "velocity": 0.93,
        "hand": "right"
      },
      {
        "midi": 48,
        "time": 278.5,
        "duration": 0.5,
        "velocity": 0.09,
        "hand": "left"
      },
      {
        "midi": 57,
        "time": 278.5,
        "duration": 0.5,
        "velocity": 0.09,
        "hand": "left"
      },
      {
        "midi": 63,
        "time": 278.5,
        "duration": 0.5,
        "velocity": 0.93,
        "hand": "right"
      },
      {
        "midi": 65,
        "time": 278.5,
        "duration": 0.5,
        "velocity": 0.93,
        "hand": "right"
      },
      {
        "midi": 50,
        "time": 279,
        "duration": 1,
        "velocity": 0.09,
        "hand": "left"
      },
      {
        "midi": 57,
        "time": 279,
        "duration": 1,
        "velocity": 0.09,
        "hand": "left"
      },
      {
        "midi": 62,
        "time": 279,
        "duration": 1,
        "velocity": 0.93,
        "hand": "right"
      },
      {
        "midi": 65,
        "time": 279,
        "duration": 1,
        "velocity": 0.93,
        "hand": "right"
      },
      {
        "midi": 50,
        "time": 280,
        "duration": 0.5,
        "velocity": 0.09,
        "hand": "left"
      },
      {
        "midi": 57,
        "time": 280,
        "duration": 0.5,
        "velocity": 0.09,
        "hand": "left"
      },
      {
        "midi": 60,
        "time": 280,
        "duration": 0.5,
        "velocity": 0.09,
        "hand": "right"
      },
      {
        "midi": 66,
        "time": 280,
        "duration": 0.5,
        "velocity": 0.93,
        "hand": "right"
      },
      {
        "midi": 74,
        "time": 280,
        "duration": 0.5,
        "velocity": 0.93,
        "hand": "right"
      },
      {
        "midi": 51,
        "time": 280.5,
        "duration": 1,
        "velocity": 0.09,
        "hand": "left"
      },
      {
        "midi": 55,
        "time": 280.5,
        "duration": 1,
        "velocity": 0.09,
        "hand": "left"
      },
      {
        "midi": 58,
        "time": 280.5,
        "duration": 1,
        "velocity": 0.09,
        "hand": "left"
      },
      {
        "midi": 67,
        "time": 280.5,
        "duration": 1,
        "velocity": 0.93,
        "hand": "right"
      },
      {
        "midi": 70,
        "time": 280.5,
        "duration": 1,
        "velocity": 0.93,
        "hand": "right"
      },
      {
        "midi": 52,
        "time": 281.5,
        "duration": 1,
        "velocity": 0.09,
        "hand": "left"
      },
      {
        "midi": 58,
        "time": 281.5,
        "duration": 1,
        "velocity": 0.09,
        "hand": "left"
      },
      {
        "midi": 61,
        "time": 281.5,
        "duration": 1,
        "velocity": 0.09,
        "hand": "right"
      },
      {
        "midi": 67,
        "time": 281.5,
        "duration": 1,
        "velocity": 0.93,
        "hand": "right"
      },
      {
        "midi": 70,
        "time": 281.5,
        "duration": 1,
        "velocity": 0.93,
        "hand": "right"
      },
      {
        "midi": 79,
        "time": 281.5,
        "duration": 1,
        "velocity": 0.93,
        "hand": "right"
      },
      {
        "midi": 53,
        "time": 282.5,
        "duration": 0.5,
        "velocity": 0.09,
        "hand": "left"
      },
      {
        "midi": 58,
        "time": 282.5,
        "duration": 0.5,
        "velocity": 0.09,
        "hand": "left"
      },
      {
        "midi": 62,
        "time": 282.5,
        "duration": 0.5,
        "velocity": 0.09,
        "hand": "right"
      },
      {
        "midi": 65,
        "time": 282.5,
        "duration": 0.5,
        "velocity": 0.93,
        "hand": "right"
      },
      {
        "midi": 70,
        "time": 282.5,
        "duration": 0.5,
        "velocity": 0.93,
        "hand": "right"
      },
      {
        "midi": 77,
        "time": 282.5,
        "duration": 0.5,
        "velocity": 0.93,
        "hand": "right"
      },
      {
        "midi": 55,
        "time": 283,
        "duration": 0.5,
        "velocity": 0.09,
        "hand": "left"
      },
      {
        "midi": 58,
        "time": 283,
        "duration": 0.5,
        "velocity": 0.09,
        "hand": "left"
      },
      {
        "midi": 61,
        "time": 283,
        "duration": 0.5,
        "velocity": 0.09,
        "hand": "right"
      },
      {
        "midi": 64,
        "time": 283,
        "duration": 0.5,
        "velocity": 0.93,
        "hand": "right"
      },
      {
        "midi": 70,
        "time": 283,
        "duration": 0.5,
        "velocity": 0.93,
        "hand": "right"
      },
      {
        "midi": 76,
        "time": 283,
        "duration": 0.5,
        "velocity": 0.93,
        "hand": "right"
      },
      {
        "midi": 56,
        "time": 283.5,
        "duration": 1,
        "velocity": 0.09,
        "hand": "left"
      },
      {
        "midi": 58,
        "time": 283.5,
        "duration": 1,
        "velocity": 0.09,
        "hand": "left"
      },
      {
        "midi": 62,
        "time": 283.5,
        "duration": 1,
        "velocity": 0.09,
        "hand": "right"
      },
      {
        "midi": 65,
        "time": 283.5,
        "duration": 2.5,
        "velocity": 0.93,
        "hand": "right"
      },
      {
        "midi": 70,
        "time": 283.5,
        "duration": 2.5,
        "velocity": 0.93,
        "hand": "right"
      },
      {
        "midi": 77,
        "time": 283.5,
        "duration": 2.5,
        "velocity": 0.93,
        "hand": "right"
      },
      {
        "midi": 34,
        "time": 284.5,
        "duration": 0.5,
        "velocity": 0.09,
        "hand": "left"
      },
      {
        "midi": 46,
        "time": 284.5,
        "duration": 0.5,
        "velocity": 0.09,
        "hand": "left"
      },
      {
        "midi": 34,
        "time": 285,
        "duration": 0.5,
        "velocity": 0.09,
        "hand": "left"
      },
      {
        "midi": 46,
        "time": 285,
        "duration": 0.5,
        "velocity": 0.09,
        "hand": "left"
      },
      {
        "midi": 46,
        "time": 286,
        "duration": 0.5,
        "velocity": 0.09,
        "hand": "left"
      },
      {
        "midi": 53,
        "time": 286,
        "duration": 0.5,
        "velocity": 0.09,
        "hand": "left"
      },
      {
        "midi": 58,
        "time": 286,
        "duration": 0.5,
        "velocity": 0.09,
        "hand": "left"
      },
      {
        "midi": 62,
        "time": 286,
        "duration": 0.5,
        "velocity": 0.71,
        "hand": "right"
      },
      {
        "midi": 68,
        "time": 286,
        "duration": 0.5,
        "velocity": 0.71,
        "hand": "right"
      },
      {
        "midi": 70,
        "time": 286,
        "duration": 0.5,
        "velocity": 0.71,
        "hand": "right"
      },
      {
        "midi": 46,
        "time": 286.5,
        "duration": 1,
        "velocity": 0.09,
        "hand": "left"
      },
      {
        "midi": 53,
        "time": 286.5,
        "duration": 1,
        "velocity": 0.09,
        "hand": "left"
      },
      {
        "midi": 58,
        "time": 286.5,
        "duration": 1,
        "velocity": 0.09,
        "hand": "left"
      },
      {
        "midi": 62,
        "time": 286.5,
        "duration": 1,
        "velocity": 0.71,
        "hand": "right"
      },
      {
        "midi": 68,
        "time": 286.5,
        "duration": 1,
        "velocity": 0.71,
        "hand": "right"
      },
      {
        "midi": 70,
        "time": 286.5,
        "duration": 2.5,
        "velocity": 0.71,
        "hand": "right"
      },
      {
        "midi": 51,
        "time": 287.5,
        "duration": 0.5,
        "velocity": 0.09,
        "hand": "left"
      },
      {
        "midi": 58,
        "time": 287.5,
        "duration": 0.5,
        "velocity": 0.09,
        "hand": "left"
      },
      {
        "midi": 63,
        "time": 287.5,
        "duration": 0.5,
        "velocity": 0.71,
        "hand": "right"
      },
      {
        "midi": 67,
        "time": 287.5,
        "duration": 0.5,
        "velocity": 0.71,
        "hand": "right"
      },
      {
        "midi": 51,
        "time": 288,
        "duration": 1,
        "velocity": 0.09,
        "hand": "left"
      },
      {
        "midi": 58,
        "time": 288,
        "duration": 1,
        "velocity": 0.09,
        "hand": "left"
      },
      {
        "midi": 63,
        "time": 288,
        "duration": 1,
        "velocity": 0.71,
        "hand": "right"
      },
      {
        "midi": 67,
        "time": 288,
        "duration": 1,
        "velocity": 0.71,
        "hand": "right"
      },
      {
        "midi": 51,
        "time": 289,
        "duration": 0.5,
        "velocity": 0.09,
        "hand": "left"
      },
      {
        "midi": 58,
        "time": 289,
        "duration": 0.5,
        "velocity": 0.09,
        "hand": "left"
      },
      {
        "midi": 67,
        "time": 289,
        "duration": 0.5,
        "velocity": 0.93,
        "hand": "right"
      },
      {
        "midi": 75,
        "time": 289,
        "duration": 0.5,
        "velocity": 0.93,
        "hand": "right"
      },
      {
        "midi": 51,
        "time": 289.5,
        "duration": 2.5,
        "velocity": 0.09,
        "hand": "left"
      },
      {
        "midi": 58,
        "time": 289.5,
        "duration": 2.5,
        "velocity": 0.09,
        "hand": "left"
      },
      {
        "midi": 67,
        "time": 289.5,
        "duration": 2.5,
        "velocity": 0.93,
        "hand": "right"
      },
      {
        "midi": 75,
        "time": 289.5,
        "duration": 2.5,
        "velocity": 0.93,
        "hand": "right"
      },
      {
        "midi": 51,
        "time": 292,
        "duration": 0.5,
        "velocity": 0.09,
        "hand": "left"
      },
      {
        "midi": 60,
        "time": 292,
        "duration": 0.5,
        "velocity": 0.93,
        "hand": "right"
      },
      {
        "midi": 67,
        "time": 292,
        "duration": 0.5,
        "velocity": 0.93,
        "hand": "right"
      },
      {
        "midi": 43,
        "time": 292.5,
        "duration": 1,
        "velocity": 0.09,
        "hand": "left"
      },
      {
        "midi": 55,
        "time": 292.5,
        "duration": 1,
        "velocity": 0.09,
        "hand": "left"
      },
      {
        "midi": 58,
        "time": 292.5,
        "duration": 1,
        "velocity": 0.93,
        "hand": "left"
      },
      {
        "midi": 62,
        "time": 292.5,
        "duration": 1,
        "velocity": 0.93,
        "hand": "right"
      },
      {
        "midi": 70,
        "time": 292.5,
        "duration": 1,
        "velocity": 0.93,
        "hand": "right"
      },
      {
        "midi": 48,
        "time": 293.5,
        "duration": 0.5,
        "velocity": 0.09,
        "hand": "left"
      },
      {
        "midi": 58,
        "time": 293.5,
        "duration": 0.5,
        "velocity": 0.93,
        "hand": "left"
      },
      {
        "midi": 64,
        "time": 293.5,
        "duration": 0.5,
        "velocity": 0.93,
        "hand": "right"
      },
      {
        "midi": 72,
        "time": 293.5,
        "duration": 0.5,
        "velocity": 0.93,
        "hand": "right"
      },
      {
        "midi": 41,
        "time": 294,
        "duration": 1,
        "velocity": 0.09,
        "hand": "left"
      },
      {
        "midi": 57,
        "time": 294,
        "duration": 1,
        "velocity": 0.93,
        "hand": "left"
      },
      {
        "midi": 63,
        "time": 294,
        "duration": 1,
        "velocity": 0.93,
        "hand": "right"
      },
      {
        "midi": 72,
        "time": 294,
        "duration": 1,
        "velocity": 0.93,
        "hand": "right"
      },
      {
        "midi": 34,
        "time": 295,
        "duration": 0.5,
        "velocity": 0.09,
        "hand": "left"
      },
      {
        "midi": 58,
        "time": 295,
        "duration": 0.5,
        "velocity": 0.93,
        "hand": "left"
      },
      {
        "midi": 62,
        "time": 295,
        "duration": 0.5,
        "velocity": 0.93,
        "hand": "right"
      },
      {
        "midi": 70,
        "time": 295,
        "duration": 0.5,
        "velocity": 0.93,
        "hand": "right"
      },
      {
        "midi": 46,
        "time": 295.5,
        "duration": 1,
        "velocity": 0.09,
        "hand": "left"
      },
      {
        "midi": 53,
        "time": 295.5,
        "duration": 1,
        "velocity": 0.09,
        "hand": "left"
      },
      {
        "midi": 58,
        "time": 295.5,
        "duration": 1,
        "velocity": 0.93,
        "hand": "left"
      },
      {
        "midi": 62,
        "time": 295.5,
        "duration": 1,
        "velocity": 0.93,
        "hand": "right"
      },
      {
        "midi": 70,
        "time": 295.5,
        "duration": 1,
        "velocity": 0.93,
        "hand": "right"
      },
      {
        "midi": 50,
        "time": 296.5,
        "duration": 0.75,
        "velocity": 0.71,
        "hand": "left"
      },
      {
        "midi": 62,
        "time": 296.5,
        "duration": 0.75,
        "velocity": 0.71,
        "hand": "right"
      },
      {
        "midi": 42,
        "time": 297,
        "duration": 1.5,
        "velocity": 0.71,
        "hand": "left"
      },
      {
        "midi": 60,
        "time": 297,
        "duration": 1.5,
        "velocity": 0.71,
        "hand": "right"
      },
      {
        "midi": 51,
        "time": 297.25,
        "duration": 0.25,
        "velocity": 0.71,
        "hand": "left"
      },
      {
        "midi": 63,
        "time": 297.25,
        "duration": 0.25,
        "velocity": 0.71,
        "hand": "right"
      },
      {
        "midi": 50,
        "time": 297.5,
        "duration": 1.25,
        "velocity": 0.71,
        "hand": "left"
      },
      {
        "midi": 62,
        "time": 297.5,
        "duration": 0.25,
        "velocity": 0.71,
        "hand": "right"
      },
      {
        "midi": 69,
        "time": 297.75,
        "duration": 0.25,
        "velocity": 0.71,
        "hand": "right"
      },
      {
        "midi": 66,
        "time": 298,
        "duration": 0.25,
        "velocity": 0.71,
        "hand": "right"
      },
      {
        "midi": 63,
        "time": 298.25,
        "duration": 0.25,
        "velocity": 0.71,
        "hand": "right"
      },
      {
        "midi": 43,
        "time": 298.5,
        "duration": 1.5,
        "velocity": 0.71,
        "hand": "left"
      },
      {
        "midi": 58,
        "time": 298.5,
        "duration": 1.5,
        "velocity": 0.71,
        "hand": "left"
      },
      {
        "midi": 62,
        "time": 298.5,
        "duration": 0.25,
        "velocity": 0.71,
        "hand": "right"
      },
      {
        "midi": 51,
        "time": 298.75,
        "duration": 0.25,
        "velocity": 0.71,
        "hand": "left"
      },
      {
        "midi": 63,
        "time": 298.75,
        "duration": 0.25,
        "velocity": 0.71,
        "hand": "right"
      },
      {
        "midi": 50,
        "time": 299,
        "duration": 1,
        "velocity": 0.71,
        "hand": "left"
      },
      {
        "midi": 62,
        "time": 299,
        "duration": 0.25,
        "velocity": 0.71,
        "hand": "right"
      },
      {
        "midi": 70,
        "time": 299.25,
        "duration": 0.25,
        "velocity": 0.71,
        "hand": "right"
      },
      {
        "midi": 67,
        "time": 299.5,
        "duration": 0.25,
        "velocity": 0.71,
        "hand": "right"
      },
      {
        "midi": 63,
        "time": 299.75,
        "duration": 0.25,
        "velocity": 0.71,
        "hand": "right"
      },
      {
        "midi": 45,
        "time": 300,
        "duration": 0.5,
        "velocity": 0.09,
        "hand": "left"
      },
      {
        "midi": 54,
        "time": 300,
        "duration": 0.25,
        "velocity": 0.93,
        "hand": "left"
      },
      {
        "midi": 63,
        "time": 300.25,
        "duration": 0.25,
        "velocity": 0.93,
        "hand": "right"
      },
      {
        "midi": 60,
        "time": 300.5,
        "duration": 0.5,
        "velocity": 0.09,
        "hand": "right"
      },
      {
        "midi": 62,
        "time": 300.5,
        "duration": 0.25,
        "velocity": 0.93,
        "hand": "right"
      },
      {
        "midi": 66,
        "time": 300.75,
        "duration": 0.25,
        "velocity": 0.93,
        "hand": "right"
      },
      {
        "midi": 72,
        "time": 301,
        "duration": 0.25,
        "velocity": 0.93,
        "hand": "right"
      },
      {
        "midi": 74,
        "time": 301.25,
        "duration": 0.25,
        "velocity": 0.93,
        "hand": "right"
      },
      {
        "midi": 78,
        "time": 301.5,
        "duration": 0.25,
        "velocity": 0.93,
        "hand": "right"
      },
      {
        "midi": 84,
        "time": 301.75,
        "duration": 0.25,
        "velocity": 0.93,
        "hand": "right"
      },
      {
        "midi": 84,
        "time": 302,
        "duration": 0.25,
        "velocity": 0.93,
        "hand": "right"
      },
      {
        "midi": 93,
        "time": 302.25,
        "duration": 0.25,
        "velocity": 0.93,
        "hand": "right"
      },
      {
        "midi": 82,
        "time": 302.75,
        "duration": 0.25,
        "velocity": 0.93,
        "hand": "right"
      },
      {
        "midi": 91,
        "time": 302.75,
        "duration": 0.25,
        "velocity": 0.93,
        "hand": "right"
      },
      {
        "midi": 38,
        "time": 303,
        "duration": 0.5,
        "velocity": 0.09,
        "hand": "left"
      },
      {
        "midi": 81,
        "time": 303,
        "duration": 0.25,
        "velocity": 0.93,
        "hand": "right"
      },
      {
        "midi": 90,
        "time": 303.25,
        "duration": 0.25,
        "velocity": 0.93,
        "hand": "right"
      },
      {
        "midi": 50,
        "time": 303.5,
        "duration": 0.5,
        "velocity": 0.09,
        "hand": "left"
      },
      {
        "midi": 79,
        "time": 303.5,
        "duration": 0.25,
        "velocity": 0.93,
        "hand": "right"
      },
      {
        "midi": 87,
        "time": 303.5,
        "duration": 0.25,
        "velocity": 0.93,
        "hand": "right"
      },
      {
        "midi": 78,
        "time": 303.75,
        "duration": 0.25,
        "velocity": 0.93,
        "hand": "right"
      },
      {
        "midi": 57,
        "time": 304,
        "duration": 0.5,
        "velocity": 0.09,
        "hand": "left"
      },
      {
        "midi": 86,
        "time": 304,
        "duration": 0.25,
        "velocity": 0.93,
        "hand": "right"
      },
      {
        "midi": 75,
        "time": 304.25,
        "duration": 0.25,
        "velocity": 0.93,
        "hand": "right"
      },
      {
        "midi": 84,
        "time": 304.25,
        "duration": 0.25,
        "velocity": 0.93,
        "hand": "right"
      },
      {
        "midi": 60,
        "time": 304.5,
        "duration": 0.5,
        "velocity": 0.09,
        "hand": "right"
      },
      {
        "midi": 74,
        "time": 304.5,
        "duration": 0.25,
        "velocity": 0.93,
        "hand": "right"
      },
      {
        "midi": 82,
        "time": 304.75,
        "duration": 0.25,
        "velocity": 0.93,
        "hand": "right"
      },
      {
        "midi": 66,
        "time": 305,
        "duration": 0.5,
        "velocity": 0.09,
        "hand": "right"
      },
      {
        "midi": 72,
        "time": 305,
        "duration": 0.25,
        "velocity": 0.93,
        "hand": "right"
      },
      {
        "midi": 81,
        "time": 305,
        "duration": 0.25,
        "velocity": 0.93,
        "hand": "right"
      },
      {
        "midi": 75,
        "time": 305.25,
        "duration": 0.25,
        "velocity": 0.93,
        "hand": "right"
      },
      {
        "midi": 84,
        "time": 305.5,
        "duration": 0.25,
        "velocity": 0.93,
        "hand": "right"
      },
      {
        "midi": 74,
        "time": 305.75,
        "duration": 0.25,
        "velocity": 0.93,
        "hand": "right"
      },
      {
        "midi": 82,
        "time": 305.75,
        "duration": 0.25,
        "velocity": 0.93,
        "hand": "right"
      },
      {
        "midi": 43,
        "time": 306,
        "duration": 0.5,
        "velocity": 0.09,
        "hand": "left"
      },
      {
        "midi": 72,
        "time": 306,
        "duration": 0.25,
        "velocity": 0.93,
        "hand": "right"
      },
      {
        "midi": 81,
        "time": 306.25,
        "duration": 0.25,
        "velocity": 0.93,
        "hand": "right"
      },
      {
        "midi": 50,
        "time": 306.5,
        "duration": 0.5,
        "velocity": 0.09,
        "hand": "left"
      },
      {
        "midi": 74,
        "time": 306.5,
        "duration": 0.25,
        "velocity": 0.93,
        "hand": "right"
      },
      {
        "midi": 82,
        "time": 306.5,
        "duration": 0.25,
        "velocity": 0.93,
        "hand": "right"
      },
      {
        "midi": 69,
        "time": 306.75,
        "duration": 0.25,
        "velocity": 0.93,
        "hand": "right"
      },
      {
        "midi": 78,
        "time": 306.75,
        "duration": 0.25,
        "velocity": 0.93,
        "hand": "right"
      },
      {
        "midi": 62,
        "time": 307,
        "duration": 0.25,
        "velocity": 0.09,
        "hand": "right"
      },
      {
        "midi": 72,
        "time": 307,
        "duration": 0.25,
        "velocity": 0.93,
        "hand": "right"
      },
      {
        "midi": 81,
        "time": 307,
        "duration": 0.25,
        "velocity": 0.93,
        "hand": "right"
      },
      {
        "midi": 66,
        "time": 307.25,
        "duration": 0.25,
        "velocity": 0.09,
        "hand": "right"
      },
      {
        "midi": 67,
        "time": 307.5,
        "duration": 0.25,
        "velocity": 0.09,
        "hand": "right"
      },
      {
        "midi": 70,
        "time": 307.5,
        "duration": 0.25,
        "velocity": 0.93,
        "hand": "right"
      },
      {
        "midi": 79,
        "time": 307.5,
        "duration": 0.25,
        "velocity": 0.93,
        "hand": "right"
      },
      {
        "midi": 54,
        "time": 307.75,
        "duration": 0.25,
        "velocity": 0.71,
        "hand": "left"
      },
      {
        "midi": 66,
        "time": 307.75,
        "duration": 0.25,
        "velocity": 0.71,
        "hand": "right"
      },
      {
        "midi": 54,
        "time": 308,
        "duration": 0.25,
        "velocity": 0.71,
        "hand": "left"
      },
      {
        "midi": 66,
        "time": 308,
        "duration": 0.25,
        "velocity": 0.71,
        "hand": "right"
      },
      {
        "midi": 53,
        "time": 308.25,
        "duration": 0.25,
        "velocity": 0.71,
        "hand": "left"
      },
      {
        "midi": 65,
        "time": 308.25,
        "duration": 0.25,
        "velocity": 0.71,
        "hand": "right"
      },
      {
        "midi": 53,
        "time": 308.5,
        "duration": 0.25,
        "velocity": 0.71,
        "hand": "left"
      },
      {
        "midi": 65,
        "time": 308.5,
        "duration": 0.25,
        "velocity": 0.71,
        "hand": "right"
      },
      {
        "midi": 52,
        "time": 308.75,
        "duration": 0.5,
        "velocity": 0.71,
        "hand": "left"
      },
      {
        "midi": 64,
        "time": 308.75,
        "duration": 0.5,
        "velocity": 0.71,
        "hand": "right"
      },
      {
        "midi": 44,
        "time": 309,
        "duration": 1.5,
        "velocity": 0.71,
        "hand": "left"
      },
      {
        "midi": 62,
        "time": 309,
        "duration": 1.5,
        "velocity": 0.71,
        "hand": "right"
      },
      {
        "midi": 53,
        "time": 309.25,
        "duration": 0.25,
        "velocity": 0.71,
        "hand": "left"
      },
      {
        "midi": 65,
        "time": 309.25,
        "duration": 0.25,
        "velocity": 0.71,
        "hand": "right"
      },
      {
        "midi": 52,
        "time": 309.5,
        "duration": 1.25,
        "velocity": 0.71,
        "hand": "left"
      },
      {
        "midi": 64,
        "time": 309.5,
        "duration": 0.25,
        "velocity": 0.71,
        "hand": "right"
      },
      {
        "midi": 71,
        "time": 309.75,
        "duration": 0.25,
        "velocity": 0.71,
        "hand": "right"
      },
      {
        "midi": 68,
        "time": 310,
        "duration": 0.25,
        "velocity": 0.71,
        "hand": "right"
      },
      {
        "midi": 65,
        "time": 310.25,
        "duration": 0.25,
        "velocity": 0.71,
        "hand": "right"
      },
      {
        "midi": 45,
        "time": 310.5,
        "duration": 1.5,
        "velocity": 0.71,
        "hand": "left"
      },
      {
        "midi": 60,
        "time": 310.5,
        "duration": 1.5,
        "velocity": 0.71,
        "hand": "right"
      },
      {
        "midi": 64,
        "time": 310.5,
        "duration": 0.25,
        "velocity": 0.71,
        "hand": "right"
      },
      {
        "midi": 53,
        "time": 310.75,
        "duration": 0.25,
        "velocity": 0.71,
        "hand": "left"
      },
      {
        "midi": 65,
        "time": 310.75,
        "duration": 0.25,
        "velocity": 0.71,
        "hand": "right"
      },
      {
        "midi": 52,
        "time": 311,
        "duration": 1,
        "velocity": 0.71,
        "hand": "left"
      },
      {
        "midi": 64,
        "time": 311,
        "duration": 0.25,
        "velocity": 0.71,
        "hand": "right"
      },
      {
        "midi": 72,
        "time": 311.25,
        "duration": 0.25,
        "velocity": 0.71,
        "hand": "right"
      },
      {
        "midi": 69,
        "time": 311.5,
        "duration": 0.25,
        "velocity": 0.71,
        "hand": "right"
      },
      {
        "midi": 65,
        "time": 311.75,
        "duration": 0.25,
        "velocity": 0.71,
        "hand": "right"
      },
      {
        "midi": 47,
        "time": 312,
        "duration": 0.5,
        "velocity": 0.09,
        "hand": "left"
      },
      {
        "midi": 56,
        "time": 312,
        "duration": 0.25,
        "velocity": 0.93,
        "hand": "left"
      },
      {
        "midi": 65,
        "time": 312.25,
        "duration": 0.25,
        "velocity": 0.93,
        "hand": "right"
      },
      {
        "midi": 62,
        "time": 312.5,
        "duration": 0.5,
        "velocity": 0.09,
        "hand": "right"
      },
      {
        "midi": 64,
        "time": 312.5,
        "duration": 0.25,
        "velocity": 0.93,
        "hand": "right"
      },
      {
        "midi": 68,
        "time": 312.75,
        "duration": 0.25,
        "velocity": 0.93,
        "hand": "right"
      },
      {
        "midi": 74,
        "time": 313,
        "duration": 0.25,
        "velocity": 0.93,
        "hand": "right"
      },
      {
        "midi": 76,
        "time": 313.25,
        "duration": 0.25,
        "velocity": 0.93,
        "hand": "right"
      },
      {
        "midi": 80,
        "time": 313.5,
        "duration": 0.25,
        "velocity": 0.93,
        "hand": "right"
      },
      {
        "midi": 86,
        "time": 313.75,
        "duration": 0.25,
        "velocity": 0.93,
        "hand": "right"
      },
      {
        "midi": 86,
        "time": 314,
        "duration": 0.25,
        "velocity": 0.93,
        "hand": "right"
      },
      {
        "midi": 95,
        "time": 314.25,
        "duration": 0.25,
        "velocity": 0.93,
        "hand": "right"
      },
      {
        "midi": 84,
        "time": 314.75,
        "duration": 0.25,
        "velocity": 0.93,
        "hand": "right"
      },
      {
        "midi": 93,
        "time": 314.75,
        "duration": 0.25,
        "velocity": 0.93,
        "hand": "right"
      },
      {
        "midi": 40,
        "time": 315,
        "duration": 0.5,
        "velocity": 0.09,
        "hand": "left"
      },
      {
        "midi": 84,
        "time": 315,
        "duration": 0.25,
        "velocity": 0.93,
        "hand": "right"
      },
      {
        "midi": 93,
        "time": 315.25,
        "duration": 0.25,
        "velocity": 0.93,
        "hand": "right"
      },
      {
        "midi": 52,
        "time": 315.5,
        "duration": 0.5,
        "velocity": 0.09,
        "hand": "left"
      },
      {
        "midi": 83,
        "time": 315.5,
        "duration": 0.25,
        "velocity": 0.93,
        "hand": "right"
      },
      {
        "midi": 92,
        "time": 315.5,
        "duration": 0.25,
        "velocity": 0.93,
        "hand": "right"
      },
      {
        "midi": 81,
        "time": 315.75,
        "duration": 0.25,
        "velocity": 0.93,
        "hand": "right"
      },
      {
        "midi": 59,
        "time": 316,
        "duration": 0.5,
        "velocity": 0.09,
        "hand": "left"
      },
      {
        "midi": 89,
        "time": 316,
        "duration": 0.25,
        "velocity": 0.93,
        "hand": "right"
      },
      {
        "midi": 80,
        "time": 316.25,
        "duration": 0.25,
        "velocity": 0.93,
        "hand": "right"
      },
      {
        "midi": 88,
        "time": 316.25,
        "duration": 0.25,
        "velocity": 0.93,
        "hand": "right"
      },
      {
        "midi": 62,
        "time": 316.5,
        "duration": 0.5,
        "velocity": 0.09,
        "hand": "right"
      },
      {
        "midi": 77,
        "time": 316.5,
        "duration": 0.25,
        "velocity": 0.93,
        "hand": "right"
      },
      {
        "midi": 86,
        "time": 316.75,
        "duration": 0.25,
        "velocity": 0.93,
        "hand": "right"
      },
      {
        "midi": 68,
        "time": 317,
        "duration": 0.5,
        "velocity": 0.09,
        "hand": "right"
      },
      {
        "midi": 76,
        "time": 317,
        "duration": 0.25,
        "velocity": 0.93,
        "hand": "right"
      },
      {
        "midi": 84,
        "time": 317,
        "duration": 0.25,
        "velocity": 0.93,
        "hand": "right"
      },
      {
        "midi": 74,
        "time": 317.25,
        "duration": 0.25,
        "velocity": 0.93,
        "hand": "right"
      },
      {
        "midi": 83,
        "time": 317.25,
        "duration": 0.25,
        "velocity": 0.93,
        "hand": "right"
      },
      {
        "midi": 77,
        "time": 317.5,
        "duration": 0.25,
        "velocity": 0.93,
        "hand": "right"
      },
      {
        "midi": 86,
        "time": 317.5,
        "duration": 0.25,
        "velocity": 0.93,
        "hand": "right"
      },
      {
        "midi": 76,
        "time": 317.75,
        "duration": 0.25,
        "velocity": 0.93,
        "hand": "right"
      },
      {
        "midi": 84,
        "time": 317.75,
        "duration": 0.25,
        "velocity": 0.93,
        "hand": "right"
      },
      {
        "midi": 33,
        "time": 318,
        "duration": 0.5,
        "velocity": 0.09,
        "hand": "left"
      },
      {
        "midi": 74,
        "time": 318,
        "duration": 0.25,
        "velocity": 0.93,
        "hand": "right"
      },
      {
        "midi": 83,
        "time": 318.25,
        "duration": 0.25,
        "velocity": 0.93,
        "hand": "right"
      },
      {
        "midi": 45,
        "time": 318.5,
        "duration": 0.25,
        "velocity": 0.09,
        "hand": "left"
      },
      {
        "midi": 76,
        "time": 318.5,
        "duration": 0.25,
        "velocity": 0.93,
        "hand": "right"
      },
      {
        "midi": 84,
        "time": 318.5,
        "duration": 0.25,
        "velocity": 0.93,
        "hand": "right"
      },
      {
        "midi": 52,
        "time": 318.75,
        "duration": 0.25,
        "velocity": 0.09,
        "hand": "left"
      },
      {
        "midi": 71,
        "time": 318.75,
        "duration": 0.25,
        "velocity": 0.93,
        "hand": "right"
      },
      {
        "midi": 80,
        "time": 318.75,
        "duration": 0.25,
        "velocity": 0.93,
        "hand": "right"
      },
      {
        "midi": 57,
        "time": 319,
        "duration": 0.25,
        "velocity": 0.09,
        "hand": "left"
      },
      {
        "midi": 74,
        "time": 319,
        "duration": 0.25,
        "velocity": 0.93,
        "hand": "right"
      },
      {
        "midi": 83,
        "time": 319,
        "duration": 0.25,
        "velocity": 0.93,
        "hand": "right"
      },
      {
        "midi": 64,
        "time": 319.25,
        "duration": 0.25,
        "velocity": 0.09,
        "hand": "right"
      },
      {
        "midi": 72,
        "time": 319.25,
        "duration": 0.5,
        "velocity": 0.93,
        "hand": "right"
      },
      {
        "midi": 81,
        "time": 319.25,
        "duration": 0.5,
        "velocity": 0.93,
        "hand": "right"
      },
      {
        "midi": 69,
        "time": 319.5,
        "duration": 0.5,
        "velocity": 0.09,
        "hand": "right"
      },
      {
        "midi": 72,
        "time": 319.75,
        "duration": 0.5,
        "velocity": 0.93,
        "hand": "right"
      },
      {
        "midi": 81,
        "time": 319.75,
        "duration": 0.5,
        "velocity": 0.93,
        "hand": "right"
      },
      {
        "midi": 64,
        "time": 320,
        "duration": 0.5,
        "velocity": 0.71,
        "hand": "right"
      },
      {
        "midi": 72,
        "time": 320.25,
        "duration": 0.5,
        "velocity": 0.93,
        "hand": "right"
      },
      {
        "midi": 81,
        "time": 320.25,
        "duration": 0.5,
        "velocity": 0.93,
        "hand": "right"
      },
      {
        "midi": 63,
        "time": 320.5,
        "duration": 0.5,
        "velocity": 0.71,
        "hand": "right"
      },
      {
        "midi": 72,
        "time": 320.75,
        "duration": 0.5,
        "velocity": 0.93,
        "hand": "right"
      },
      {
        "midi": 81,
        "time": 320.75,
        "duration": 0.5,
        "velocity": 0.93,
        "hand": "right"
      },
      {
        "midi": 62,
        "time": 321,
        "duration": 3,
        "velocity": 0.71,
        "hand": "right"
      },
      {
        "midi": 74,
        "time": 321.25,
        "duration": 0.5,
        "velocity": 0.93,
        "hand": "right"
      },
      {
        "midi": 82,
        "time": 321.25,
        "duration": 0.5,
        "velocity": 0.93,
        "hand": "right"
      },
      {
        "midi": 72,
        "time": 321.75,
        "duration": 0.5,
        "velocity": 0.93,
        "hand": "right"
      },
      {
        "midi": 81,
        "time": 321.75,
        "duration": 0.5,
        "velocity": 0.93,
        "hand": "right"
      },
      {
        "midi": 54,
        "time": 322,
        "duration": 0.5,
        "velocity": 0.71,
        "hand": "left"
      },
      {
        "midi": 75,
        "time": 322.25,
        "duration": 0.5,
        "velocity": 0.93,
        "hand": "right"
      },
      {
        "midi": 84,
        "time": 322.25,
        "duration": 0.5,
        "velocity": 0.93,
        "hand": "right"
      },
      {
        "midi": 55,
        "time": 322.5,
        "duration": 0.5,
        "velocity": 0.71,
        "hand": "left"
      },
      {
        "midi": 74,
        "time": 322.75,
        "duration": 0.5,
        "velocity": 0.93,
        "hand": "right"
      },
      {
        "midi": 82,
        "time": 322.75,
        "duration": 0.5,
        "velocity": 0.93,
        "hand": "right"
      },
      {
        "midi": 57,
        "time": 323,
        "duration": 0.5,
        "velocity": 0.71,
        "hand": "left"
      },
      {
        "midi": 72,
        "time": 323.25,
        "duration": 0.25,
        "velocity": 0.93,
        "hand": "right"
      },
      {
        "midi": 78,
        "time": 323.25,
        "duration": 0.25,
        "velocity": 0.93,
        "hand": "right"
      },
      {
        "midi": 58,
        "time": 323.5,
        "duration": 0.25,
        "velocity": 0.71,
        "hand": "left"
      },
      {
        "midi": 70,
        "time": 323.5,
        "duration": 0.25,
        "velocity": 0.93,
        "hand": "right"
      },
      {
        "midi": 79,
        "time": 323.5,
        "duration": 0.25,
        "velocity": 0.93,
        "hand": "right"
      },
      {
        "midi": 50,
        "time": 323.75,
        "duration": 0.25,
        "velocity": 0.71,
        "hand": "left"
      },
      {
        "midi": 74,
        "time": 323.75,
        "duration": 0.5,
        "velocity": 0.93,
        "hand": "right"
      },
      {
        "midi": 82,
        "time": 323.75,
        "duration": 0.5,
        "velocity": 0.93,
        "hand": "right"
      },
      {
        "midi": 38,
        "time": 324,
        "duration": 0.5,
        "velocity": 0.71,
        "hand": "left"
      },
      {
        "midi": 72,
        "time": 324.25,
        "duration": 0.5,
        "velocity": 0.93,
        "hand": "right"
      },
      {
        "midi": 81,
        "time": 324.25,
        "duration": 0.5,
        "velocity": 0.93,
        "hand": "right"
      },
      {
        "midi": 62,
        "time": 324.5,
        "duration": 1.5,
        "velocity": 0.71,
        "hand": "right"
      },
      {
        "midi": 74,
        "time": 324.75,
        "duration": 0.25,
        "velocity": 0.93,
        "hand": "right"
      },
      {
        "midi": 82,
        "time": 324.75,
        "duration": 0.25,
        "velocity": 0.93,
        "hand": "right"
      },
      {
        "midi": 60,
        "time": 325,
        "duration": 0.5,
        "velocity": 0.71,
        "hand": "right"
      },
      {
        "midi": 66,
        "time": 325,
        "duration": 0.5,
        "velocity": 0.71,
        "hand": "right"
      },
      {
        "midi": 69,
        "time": 325,
        "duration": 0.25,
        "velocity": 0.93,
        "hand": "right"
      },
      {
        "midi": 78,
        "time": 325,
        "duration": 0.25,
        "velocity": 0.93,
        "hand": "right"
      },
      {
        "midi": 72,
        "time": 325.25,
        "duration": 0.5,
        "velocity": 0.93,
        "hand": "right"
      },
      {
        "midi": 81,
        "time": 325.25,
        "duration": 0.5,
        "velocity": 0.93,
        "hand": "right"
      },
      {
        "midi": 55,
        "time": 325.5,
        "duration": 0.5,
        "velocity": 0.71,
        "hand": "left"
      },
      {
        "midi": 70,
        "time": 325.75,
        "duration": 0.25,
        "velocity": 0.93,
        "hand": "right"
      },
      {
        "midi": 79,
        "time": 325.75,
        "duration": 0.25,
        "velocity": 0.93,
        "hand": "right"
      },
      {
        "midi": 62,
        "time": 326,
        "duration": 0.5,
        "velocity": 0.71,
        "hand": "right"
      },
      {
        "midi": 70,
        "time": 326,
        "duration": 0.25,
        "velocity": 0.93,
        "hand": "right"
      },
      {
        "midi": 79,
        "time": 326,
        "duration": 0.25,
        "velocity": 0.93,
        "hand": "right"
      },
      {
        "midi": 81,
        "time": 326,
        "duration": 0.125,
        "velocity": 0.93,
        "hand": "right"
      },
      {
        "midi": 69,
        "time": 326.25,
        "duration": 0.5,
        "velocity": 0.93,
        "hand": "right"
      },
      {
        "midi": 78,
        "time": 326.25,
        "duration": 0.5,
        "velocity": 0.93,
        "hand": "right"
      },
      {
        "midi": 61,
        "time": 326.5,
        "duration": 0.5,
        "velocity": 0.82,
        "hand": "right"
      },
      {
        "midi": 70,
        "time": 326.75,
        "duration": 0.5,
        "velocity": 0.93,
        "hand": "right"
      },
      {
        "midi": 79,
        "time": 326.75,
        "duration": 0.5,
        "velocity": 0.93,
        "hand": "right"
      },
      {
        "midi": 60,
        "time": 327,
        "duration": 3,
        "velocity": 0.93,
        "hand": "right"
      },
      {
        "midi": 72,
        "time": 327.25,
        "duration": 0.5,
        "velocity": 0.93,
        "hand": "right"
      },
      {
        "midi": 80,
        "time": 327.25,
        "duration": 0.5,
        "velocity": 0.93,
        "hand": "right"
      },
      {
        "midi": 70,
        "time": 327.75,
        "duration": 0.5,
        "velocity": 0.93,
        "hand": "right"
      },
      {
        "midi": 79,
        "time": 327.75,
        "duration": 0.5,
        "velocity": 0.93,
        "hand": "right"
      },
      {
        "midi": 52,
        "time": 328,
        "duration": 0.5,
        "velocity": 0.93,
        "hand": "left"
      },
      {
        "midi": 73,
        "time": 328.25,
        "duration": 0.5,
        "velocity": 0.93,
        "hand": "right"
      },
      {
        "midi": 82,
        "time": 328.25,
        "duration": 0.5,
        "velocity": 0.93,
        "hand": "right"
      },
      {
        "midi": 53,
        "time": 328.5,
        "duration": 0.5,
        "velocity": 0.93,
        "hand": "left"
      },
      {
        "midi": 72,
        "time": 328.75,
        "duration": 0.5,
        "velocity": 0.93,
        "hand": "right"
      },
      {
        "midi": 80,
        "time": 328.75,
        "duration": 0.5,
        "velocity": 0.93,
        "hand": "right"
      },
      {
        "midi": 55,
        "time": 329,
        "duration": 0.5,
        "velocity": 0.93,
        "hand": "left"
      },
      {
        "midi": 70,
        "time": 329.25,
        "duration": 0.25,
        "velocity": 0.93,
        "hand": "right"
      },
      {
        "midi": 76,
        "time": 329.25,
        "duration": 0.25,
        "velocity": 0.93,
        "hand": "right"
      },
      {
        "midi": 56,
        "time": 329.5,
        "duration": 0.25,
        "velocity": 0.93,
        "hand": "left"
      },
      {
        "midi": 68,
        "time": 329.5,
        "duration": 0.25,
        "velocity": 0.93,
        "hand": "right"
      },
      {
        "midi": 77,
        "time": 329.5,
        "duration": 0.25,
        "velocity": 0.93,
        "hand": "right"
      },
      {
        "midi": 48,
        "time": 329.75,
        "duration": 0.25,
        "velocity": 0.93,
        "hand": "left"
      },
      {
        "midi": 72,
        "time": 329.75,
        "duration": 0.5,
        "velocity": 0.93,
        "hand": "right"
      },
      {
        "midi": 80,
        "time": 329.75,
        "duration": 0.5,
        "velocity": 0.93,
        "hand": "right"
      },
      {
        "midi": 36,
        "time": 330,
        "duration": 0.5,
        "velocity": 0.93,
        "hand": "left"
      },
      {
        "midi": 70,
        "time": 330.25,
        "duration": 0.5,
        "velocity": 0.93,
        "hand": "right"
      },
      {
        "midi": 79,
        "time": 330.25,
        "duration": 0.5,
        "velocity": 0.93,
        "hand": "right"
      },
      {
        "midi": 60,
        "time": 330.5,
        "duration": 1.5,
        "velocity": 0.71,
        "hand": "right"
      },
      {
        "midi": 72,
        "time": 330.75,
        "duration": 0.25,
        "velocity": 0.93,
        "hand": "right"
      },
      {
        "midi": 80,
        "time": 330.75,
        "duration": 0.25,
        "velocity": 0.93,
        "hand": "right"
      },
      {
        "midi": 58,
        "time": 331,
        "duration": 0.5,
        "velocity": 0.93,
        "hand": "left"
      },
      {
        "midi": 64,
        "time": 331,
        "duration": 0.5,
        "velocity": 0.93,
        "hand": "right"
      },
      {
        "midi": 67,
        "time": 331,
        "duration": 0.25,
        "velocity": 0.93,
        "hand": "right"
      },
      {
        "midi": 76,
        "time": 331,
        "duration": 0.25,
        "velocity": 0.93,
        "hand": "right"
      },
      {
        "midi": 70,
        "time": 331.25,
        "duration": 0.25,
        "velocity": 0.93,
        "hand": "right"
      },
      {
        "midi": 79,
        "time": 331.25,
        "duration": 0.25,
        "velocity": 0.93,
        "hand": "right"
      },
      {
        "midi": 53,
        "time": 331.5,
        "duration": 0.5,
        "velocity": 0.93,
        "hand": "left"
      },
      {
        "midi": 70,
        "time": 331.5,
        "duration": 0.25,
        "velocity": 0.93,
        "hand": "right"
      },
      {
        "midi": 79,
        "time": 331.5,
        "duration": 0.25,
        "velocity": 0.93,
        "hand": "right"
      },
      {
        "midi": 68,
        "time": 331.75,
        "duration": 0.25,
        "velocity": 0.93,
        "hand": "right"
      },
      {
        "midi": 77,
        "time": 331.75,
        "duration": 0.25,
        "velocity": 0.93,
        "hand": "right"
      },
      {
        "midi": 60,
        "time": 332,
        "duration": 0.5,
        "velocity": 0.93,
        "hand": "right"
      },
      {
        "midi": 68,
        "time": 332,
        "duration": 0.25,
        "velocity": 0.93,
        "hand": "right"
      },
      {
        "midi": 77,
        "time": 332,
        "duration": 0.25,
        "velocity": 0.93,
        "hand": "right"
      },
      {
        "midi": 79,
        "time": 332,
        "duration": 0.125,
        "velocity": 0.93,
        "hand": "right"
      },
      {
        "midi": 67,
        "time": 332.25,
        "duration": 0.5,
        "velocity": 0.93,
        "hand": "right"
      },
      {
        "midi": 76,
        "time": 332.25,
        "duration": 0.5,
        "velocity": 0.93,
        "hand": "right"
      },
      {
        "midi": 56,
        "time": 332.5,
        "duration": 0.5,
        "velocity": 0.93,
        "hand": "left"
      },
      {
        "midi": 65,
        "time": 332.5,
        "duration": 0.5,
        "velocity": 0.93,
        "hand": "right"
      },
      {
        "midi": 68,
        "time": 332.75,
        "duration": 0.25,
        "velocity": 0.93,
        "hand": "right"
      },
      {
        "midi": 77,
        "time": 332.75,
        "duration": 0.25,
        "velocity": 0.93,
        "hand": "right"
      },
      {
        "midi": 44,
        "time": 333,
        "duration": 0.5,
        "velocity": 0.09,
        "hand": "left"
      },
      {
        "midi": 68,
        "time": 333,
        "duration": 0.25,
        "velocity": 0.93,
        "hand": "right"
      },
      {
        "midi": 77,
        "time": 333,
        "duration": 0.25,
        "velocity": 0.93,
        "hand": "right"
      },
      {
        "midi": 70,
        "time": 333.25,
        "duration": 0.5,
        "velocity": 0.93,
        "hand": "right"
      },
      {
        "midi": 78,
        "time": 333.25,
        "duration": 0.5,
        "velocity": 0.93,
        "hand": "right"
      },
      {
        "midi": 56,
        "time": 333.5,
        "duration": 0.5,
        "velocity": 0.09,
        "hand": "left"
      },
      {
        "midi": 68,
        "time": 333.75,
        "duration": 0.25,
        "velocity": 0.93,
        "hand": "right"
      },
      {
        "midi": 77,
        "time": 333.75,
        "duration": 0.25,
        "velocity": 0.93,
        "hand": "right"
      },
      {
        "midi": 48,
        "time": 334,
        "duration": 0.5,
        "velocity": 0.09,
        "hand": "left"
      },
      {
        "midi": 66,
        "time": 334,
        "duration": 0.25,
        "velocity": 0.93,
        "hand": "right"
      },
      {
        "midi": 75,
        "time": 334,
        "duration": 0.25,
        "velocity": 0.93,
        "hand": "right"
      },
      {
        "midi": 70,
        "time": 334.25,
        "duration": 0.25,
        "velocity": 0.93,
        "hand": "right"
      },
      {
        "midi": 78,
        "time": 334.25,
        "duration": 0.25,
        "velocity": 0.93,
        "hand": "right"
      },
      {
        "midi": 49,
        "time": 334.5,
        "duration": 0.5,
        "velocity": 0.09,
        "hand": "left"
      },
      {
        "midi": 68,
        "time": 334.5,
        "duration": 0.25,
        "velocity": 0.93,
        "hand": "right"
      },
      {
        "midi": 77,
        "time": 334.5,
        "duration": 0.25,
        "velocity": 0.93,
        "hand": "right"
      },
      {
        "midi": 70,
        "time": 334.75,
        "duration": 0.25,
        "velocity": 0.93,
        "hand": "right"
      },
      {
        "midi": 78,
        "time": 334.75,
        "duration": 0.25,
        "velocity": 0.93,
        "hand": "right"
      },
      {
        "midi": 56,
        "time": 335,
        "duration": 0.5,
        "velocity": 0.09,
        "hand": "left"
      },
      {
        "midi": 68,
        "time": 335,
        "duration": 0.25,
        "velocity": 0.93,
        "hand": "right"
      },
      {
        "midi": 77,
        "time": 335,
        "duration": 0.25,
        "velocity": 0.93,
        "hand": "right"
      },
      {
        "midi": 66,
        "time": 335.25,
        "duration": 0.25,
        "velocity": 0.93,
        "hand": "right"
      },
      {
        "midi": 72,
        "time": 335.25,
        "duration": 0.25,
        "velocity": 0.93,
        "hand": "right"
      },
      {
        "midi": 55,
        "time": 335.5,
        "duration": 0.125,
        "velocity": 0.09,
        "hand": "left"
      },
      {
        "midi": 56,
        "time": 335.5,
        "duration": 0.125,
        "velocity": 0.09,
        "hand": "left"
      },
      {
        "midi": 61,
        "time": 335.5,
        "duration": 0.5,
        "velocity": 0.09,
        "hand": "right"
      },
      {
        "midi": 65,
        "time": 335.5,
        "duration": 0.25,
        "velocity": 0.93,
        "hand": "right"
      },
      {
        "midi": 73,
        "time": 335.5,
        "duration": 0.25,
        "velocity": 0.93,
        "hand": "right"
      },
      {
        "midi": 68,
        "time": 335.75,
        "duration": 0.25,
        "velocity": 0.93,
        "hand": "right"
      },
      {
        "midi": 77,
        "time": 335.75,
        "duration": 0.25,
        "velocity": 0.93,
        "hand": "right"
      },
      {
        "midi": 39,
        "time": 336,
        "duration": 0.5,
        "velocity": 0.09,
        "hand": "left"
      },
      {
        "midi": 67,
        "time": 336,
        "duration": 0.25,
        "velocity": 0.93,
        "hand": "right"
      },
      {
        "midi": 75,
        "time": 336,
        "duration": 0.25,
        "velocity": 0.93,
        "hand": "right"
      },
      {
        "midi": 68,
        "time": 336.25,
        "duration": 0.25,
        "velocity": 0.93,
        "hand": "right"
      },
      {
        "midi": 77,
        "time": 336.25,
        "duration": 0.25,
        "velocity": 0.93,
        "hand": "right"
      },
      {
        "midi": 51,
        "time": 336.5,
        "duration": 0.5,
        "velocity": 0.09,
        "hand": "left"
      },
      {
        "midi": 67,
        "time": 336.5,
        "duration": 0.25,
        "velocity": 0.93,
        "hand": "right"
      },
      {
        "midi": 75,
        "time": 336.5,
        "duration": 0.25,
        "velocity": 0.93,
        "hand": "right"
      },
      {
        "midi": 77,
        "time": 336.75,
        "duration": 0.25,
        "velocity": 0.93,
        "hand": "right"
      },
      {
        "midi": 55,
        "time": 337,
        "duration": 0.5,
        "velocity": 0.09,
        "hand": "left"
      },
      {
        "midi": 63,
        "time": 337,
        "duration": 0.5,
        "velocity": 0.09,
        "hand": "right"
      },
      {
        "midi": 65,
        "time": 337,
        "duration": 0.25,
        "velocity": 0.93,
        "hand": "right"
      },
      {
        "midi": 73,
        "time": 337,
        "duration": 0.25,
        "velocity": 0.93,
        "hand": "right"
      },
      {
        "midi": 75,
        "time": 337.25,
        "duration": 0.25,
        "velocity": 0.93,
        "hand": "right"
      },
      {
        "midi": 44,
        "time": 337.5,
        "duration": 0.5,
        "velocity": 0.09,
        "hand": "left"
      },
      {
        "midi": 63,
        "time": 337.5,
        "duration": 0.25,
        "velocity": 0.93,
        "hand": "right"
      },
      {
        "midi": 72,
        "time": 337.5,
        "duration": 0.25,
        "velocity": 0.93,
        "hand": "right"
      },
      {
        "midi": 73,
        "time": 337.75,
        "duration": 0.25,
        "velocity": 0.93,
        "hand": "right"
      },
      {
        "midi": 51,
        "time": 338,
        "duration": 0.5,
        "velocity": 0.09,
        "hand": "left"
      },
      {
        "midi": 61,
        "time": 338,
        "duration": 0.25,
        "velocity": 0.93,
        "hand": "right"
      },
      {
        "midi": 70,
        "time": 338,
        "duration": 0.25,
        "velocity": 0.93,
        "hand": "right"
      },
      {
        "midi": 72,
        "time": 338.25,
        "duration": 0.25,
        "velocity": 0.93,
        "hand": "right"
      },
      {
        "midi": 56,
        "time": 338.5,
        "duration": 0.25,
        "velocity": 0.09,
        "hand": "left"
      },
      {
        "midi": 60,
        "time": 338.5,
        "duration": 0.25,
        "velocity": 0.93,
        "hand": "right"
      },
      {
        "midi": 63,
        "time": 338.5,
        "duration": 0.25,
        "velocity": 0.09,
        "hand": "right"
      },
      {
        "midi": 68,
        "time": 338.5,
        "duration": 0.25,
        "velocity": 0.93,
        "hand": "right"
      },
      {
        "midi": 44,
        "time": 339,
        "duration": 0.5,
        "velocity": 0.09,
        "hand": "left"
      },
      {
        "midi": 80,
        "time": 339,
        "duration": 0.25,
        "velocity": 0.93,
        "hand": "right"
      },
      {
        "midi": 89,
        "time": 339,
        "duration": 0.25,
        "velocity": 0.93,
        "hand": "right"
      },
      {
        "midi": 82,
        "time": 339.25,
        "duration": 0.5,
        "velocity": 0.93,
        "hand": "right"
      },
      {
        "midi": 90,
        "time": 339.25,
        "duration": 0.5,
        "velocity": 0.93,
        "hand": "right"
      },
      {
        "midi": 68,
        "time": 339.5,
        "duration": 0.5,
        "velocity": 0.09,
        "hand": "right"
      },
      {
        "midi": 80,
        "time": 339.75,
        "duration": 0.25,
        "velocity": 0.93,
        "hand": "right"
      },
      {
        "midi": 89,
        "time": 339.75,
        "duration": 0.25,
        "velocity": 0.93,
        "hand": "right"
      },
      {
        "midi": 60,
        "time": 340,
        "duration": 0.5,
        "velocity": 0.09,
        "hand": "right"
      },
      {
        "midi": 78,
        "time": 340,
        "duration": 0.25,
        "velocity": 0.93,
        "hand": "right"
      },
      {
        "midi": 87,
        "time": 340,
        "duration": 0.25,
        "velocity": 0.93,
        "hand": "right"
      },
      {
        "midi": 82,
        "time": 340.25,
        "duration": 0.25,
        "velocity": 0.93,
        "hand": "right"
      },
      {
        "midi": 90,
        "time": 340.25,
        "duration": 0.25,
        "velocity": 0.93,
        "hand": "right"
      },
      {
        "midi": 61,
        "time": 340.5,
        "duration": 0.5,
        "velocity": 0.09,
        "hand": "right"
      },
      {
        "midi": 80,
        "time": 340.5,
        "duration": 0.25,
        "velocity": 0.93,
        "hand": "right"
      },
      {
        "midi": 89,
        "time": 340.5,
        "duration": 0.25,
        "velocity": 0.93,
        "hand": "right"
      },
      {
        "midi": 82,
        "time": 340.75,
        "duration": 0.25,
        "velocity": 0.93,
        "hand": "right"
      },
      {
        "midi": 90,
        "time": 340.75,
        "duration": 0.25,
        "velocity": 0.93,
        "hand": "right"
      },
      {
        "midi": 68,
        "time": 341,
        "duration": 0.5,
        "velocity": 0.09,
        "hand": "right"
      },
      {
        "midi": 80,
        "time": 341,
        "duration": 0.25,
        "velocity": 0.93,
        "hand": "right"
      },
      {
        "midi": 89,
        "time": 341,
        "duration": 0.25,
        "velocity": 0.93,
        "hand": "right"
      },
      {
        "midi": 78,
        "time": 341.25,
        "duration": 0.25,
        "velocity": 0.93,
        "hand": "right"
      },
      {
        "midi": 84,
        "time": 341.25,
        "duration": 0.25,
        "velocity": 0.93,
        "hand": "right"
      },
      {
        "midi": 67,
        "time": 341.5,
        "duration": 0.125,
        "velocity": 0.09,
        "hand": "right"
      },
      {
        "midi": 68,
        "time": 341.5,
        "duration": 0.125,
        "velocity": 0.09,
        "hand": "right"
      },
      {
        "midi": 73,
        "time": 341.5,
        "duration": 0.5,
        "velocity": 0.09,
        "hand": "right"
      },
      {
        "midi": 77,
        "time": 341.5,
        "duration": 0.25,
        "velocity": 0.93,
        "hand": "right"
      },
      {
        "midi": 85,
        "time": 341.5,
        "duration": 0.25,
        "velocity": 0.93,
        "hand": "right"
      },
      {
        "midi": 80,
        "time": 341.75,
        "duration": 0.25,
        "velocity": 0.93,
        "hand": "right"
      },
      {
        "midi": 89,
        "time": 341.75,
        "duration": 0.25,
        "velocity": 0.93,
        "hand": "right"
      },
      {
        "midi": 51,
        "time": 342,
        "duration": 0.5,
        "velocity": 0.09,
        "hand": "left"
      },
      {
        "midi": 79,
        "time": 342,
        "duration": 0.25,
        "velocity": 0.93,
        "hand": "right"
      },
      {
        "midi": 87,
        "time": 342,
        "duration": 0.25,
        "velocity": 0.93,
        "hand": "right"
      },
      {
        "midi": 80,
        "time": 342.25,
        "duration": 0.25,
        "velocity": 0.93,
        "hand": "right"
      },
      {
        "midi": 89,
        "time": 342.25,
        "duration": 0.25,
        "velocity": 0.93,
        "hand": "right"
      },
      {
        "midi": 63,
        "time": 342.5,
        "duration": 0.5,
        "velocity": 0.09,
        "hand": "right"
      },
      {
        "midi": 79,
        "time": 342.5,
        "duration": 0.25,
        "velocity": 0.93,
        "hand": "right"
      },
      {
        "midi": 87,
        "time": 342.5,
        "duration": 0.25,
        "velocity": 0.93,
        "hand": "right"
      },
      {
        "midi": 89,
        "time": 342.75,
        "duration": 0.25,
        "velocity": 0.93,
        "hand": "right"
      },
      {
        "midi": 67,
        "time": 343,
        "duration": 0.5,
        "velocity": 0.09,
        "hand": "right"
      },
      {
        "midi": 75,
        "time": 343,
        "duration": 0.5,
        "velocity": 0.09,
        "hand": "right"
      },
      {
        "midi": 77,
        "time": 343,
        "duration": 0.25,
        "velocity": 0.93,
        "hand": "right"
      },
      {
        "midi": 85,
        "time": 343,
        "duration": 0.25,
        "velocity": 0.93,
        "hand": "right"
      },
      {
        "midi": 87,
        "time": 343.25,
        "duration": 0.25,
        "velocity": 0.93,
        "hand": "right"
      },
      {
        "midi": 56,
        "time": 343.5,
        "duration": 0.5,
        "velocity": 0.09,
        "hand": "left"
      },
      {
        "midi": 75,
        "time": 343.5,
        "duration": 0.25,
        "velocity": 0.93,
        "hand": "right"
      },
      {
        "midi": 84,
        "time": 343.5,
        "duration": 0.25,
        "velocity": 0.93,
        "hand": "right"
      },
      {
        "midi": 85,
        "time": 343.75,
        "duration": 0.25,
        "velocity": 0.93,
        "hand": "right"
      },
      {
        "midi": 63,
        "time": 344,
        "duration": 0.5,
        "velocity": 0.09,
        "hand": "right"
      },
      {
        "midi": 73,
        "time": 344,
        "duration": 0.25,
        "velocity": 0.93,
        "hand": "right"
      },
      {
        "midi": 82,
        "time": 344,
        "duration": 0.25,
        "velocity": 0.93,
        "hand": "right"
      },
      {
        "midi": 84,
        "time": 344.25,
        "duration": 0.25,
        "velocity": 0.93,
        "hand": "right"
      },
      {
        "midi": 68,
        "time": 344.5,
        "duration": 0.5,
        "velocity": 0.09,
        "hand": "right"
      },
      {
        "midi": 72,
        "time": 344.5,
        "duration": 0.25,
        "velocity": 0.93,
        "hand": "right"
      },
      {
        "midi": 75,
        "time": 344.5,
        "duration": 0.5,
        "velocity": 0.09,
        "hand": "right"
      },
      {
        "midi": 80,
        "time": 344.5,
        "duration": 0.25,
        "velocity": 0.93,
        "hand": "right"
      },
      {
        "midi": 89,
        "time": 344.75,
        "duration": 0.25,
        "velocity": 0.93,
        "hand": "right"
      },
      {
        "midi": 51,
        "time": 345,
        "duration": 0.5,
        "velocity": 0.09,
        "hand": "left"
      },
      {
        "midi": 79,
        "time": 345,
        "duration": 0.25,
        "velocity": 0.93,
        "hand": "right"
      },
      {
        "midi": 87,
        "time": 345,
        "duration": 0.25,
        "velocity": 0.93,
        "hand": "right"
      },
      {
        "midi": 89,
        "time": 345.25,
        "duration": 0.25,
        "velocity": 0.93,
        "hand": "right"
      },
      {
        "midi": 63,
        "time": 345.5,
        "duration": 0.5,
        "velocity": 0.09,
        "hand": "right"
      },
      {
        "midi": 79,
        "time": 345.5,
        "duration": 0.25,
        "velocity": 0.93,
        "hand": "right"
      },
      {
        "midi": 87,
        "time": 345.5,
        "duration": 0.25,
        "velocity": 0.93,
        "hand": "right"
      },
      {
        "midi": 89,
        "time": 345.75,
        "duration": 0.25,
        "velocity": 0.93,
        "hand": "right"
      },
      {
        "midi": 67,
        "time": 346,
        "duration": 0.5,
        "velocity": 0.09,
        "hand": "right"
      },
      {
        "midi": 75,
        "time": 346,
        "duration": 0.5,
        "velocity": 0.09,
        "hand": "right"
      },
      {
        "midi": 77,
        "time": 346,
        "duration": 0.25,
        "velocity": 0.93,
        "hand": "right"
      },
      {
        "midi": 85,
        "time": 346,
        "duration": 0.25,
        "velocity": 0.93,
        "hand": "right"
      },
      {
        "midi": 87,
        "time": 346.25,
        "duration": 0.25,
        "velocity": 0.93,
        "hand": "right"
      },
      {
        "midi": 56,
        "time": 346.5,
        "duration": 0.5,
        "velocity": 0.09,
        "hand": "left"
      },
      {
        "midi": 75,
        "time": 346.5,
        "duration": 0.25,
        "velocity": 0.93,
        "hand": "right"
      },
      {
        "midi": 84,
        "time": 346.5,
        "duration": 0.25,
        "velocity": 0.93,
        "hand": "right"
      },
      {
        "midi": 85,
        "time": 346.75,
        "duration": 0.25,
        "velocity": 0.93,
        "hand": "right"
      },
      {
        "midi": 63,
        "time": 347,
        "duration": 0.5,
        "velocity": 0.09,
        "hand": "right"
      },
      {
        "midi": 73,
        "time": 347,
        "duration": 0.25,
        "velocity": 0.93,
        "hand": "right"
      },
      {
        "midi": 82,
        "time": 347,
        "duration": 0.25,
        "velocity": 0.93,
        "hand": "right"
      },
      {
        "midi": 84,
        "time": 347.25,
        "duration": 0.25,
        "velocity": 0.93,
        "hand": "right"
      },
      {
        "midi": 68,
        "time": 347.5,
        "duration": 0.25,
        "velocity": 0.09,
        "hand": "right"
      },
      {
        "midi": 72,
        "time": 347.5,
        "duration": 0.25,
        "velocity": 0.93,
        "hand": "right"
      },
      {
        "midi": 75,
        "time": 347.5,
        "duration": 0.25,
        "velocity": 0.09,
        "hand": "right"
      },
      {
        "midi": 80,
        "time": 347.5,
        "duration": 0.25,
        "velocity": 0.93,
        "hand": "right"
      },
      {
        "midi": 39,
        "time": 348,
        "duration": 0.5,
        "velocity": 0.09,
        "hand": "left"
      },
      {
        "midi": 91,
        "time": 348,
        "duration": 0.25,
        "velocity": 0.93,
        "hand": "right"
      },
      {
        "midi": 99,
        "time": 348,
        "duration": 0.25,
        "velocity": 0.93,
        "hand": "right"
      },
      {
        "midi": 101,
        "time": 348.25,
        "duration": 0.25,
        "velocity": 0.93,
        "hand": "right"
      },
      {
        "midi": 51,
        "time": 348.5,
        "duration": 0.5,
        "velocity": 0.09,
        "hand": "left"
      },
      {
        "midi": 91,
        "time": 348.5,
        "duration": 0.25,
        "velocity": 0.93,
        "hand": "right"
      },
      {
        "midi": 99,
        "time": 348.5,
        "duration": 0.25,
        "velocity": 0.93,
        "hand": "right"
      },
      {
        "midi": 101,
        "time": 348.75,
        "duration": 0.25,
        "velocity": 0.93,
        "hand": "right"
      },
      {
        "midi": 55,
        "time": 349,
        "duration": 0.5,
        "velocity": 0.09,
        "hand": "left"
      },
      {
        "midi": 61,
        "time": 349,
        "duration": 0.5,
        "velocity": 0.09,
        "hand": "right"
      },
      {
        "midi": 63,
        "time": 349,
        "duration": 0.5,
        "velocity": 0.09,
        "hand": "right"
      },
      {
        "midi": 89,
        "time": 349,
        "duration": 0.25,
        "velocity": 0.93,
        "hand": "right"
      },
      {
        "midi": 97,
        "time": 349,
        "duration": 0.25,
        "velocity": 0.93,
        "hand": "right"
      },
      {
        "midi": 99,
        "time": 349.25,
        "duration": 0.25,
        "velocity": 0.93,
        "hand": "right"
      },
      {
        "midi": 58,
        "time": 349.5,
        "duration": 0.5,
        "velocity": 0.09,
        "hand": "left"
      },
      {
        "midi": 61,
        "time": 349.5,
        "duration": 0.5,
        "velocity": 0.09,
        "hand": "right"
      },
      {
        "midi": 67,
        "time": 349.5,
        "duration": 0.5,
        "velocity": 0.09,
        "hand": "right"
      },
      {
        "midi": 87,
        "time": 349.5,
        "duration": 0.25,
        "velocity": 0.93,
        "hand": "right"
      },
      {
        "midi": 96,
        "time": 349.5,
        "duration": 0.25,
        "velocity": 0.93,
        "hand": "right"
      },
      {
        "midi": 97,
        "time": 349.75,
        "duration": 0.25,
        "velocity": 0.93,
        "hand": "right"
      },
      {
        "midi": 63,
        "time": 350,
        "duration": 0.5,
        "velocity": 0.09,
        "hand": "right"
      },
      {
        "midi": 67,
        "time": 350,
        "duration": 0.5,
        "velocity": 0.09,
        "hand": "right"
      },
      {
        "midi": 73,
        "time": 350,
        "duration": 0.5,
        "velocity": 0.09,
        "hand": "right"
      },
      {
        "midi": 85,
        "time": 350,
        "duration": 0.25,
        "velocity": 0.93,
        "hand": "right"
      },
      {
        "midi": 94,
        "time": 350,
        "duration": 0.25,
        "velocity": 0.93,
        "hand": "right"
      },
      {
        "midi": 96,
        "time": 350.25,
        "duration": 0.25,
        "velocity": 0.93,
        "hand": "right"
      },
      {
        "midi": 67,
        "time": 350.5,
        "duration": 0.5,
        "velocity": 0.09,
        "hand": "right"
      },
      {
        "midi": 73,
        "time": 350.5,
        "duration": 0.5,
        "velocity": 0.09,
        "hand": "right"
      },
      {
        "midi": 75,
        "time": 350.5,
        "duration": 0.5,
        "velocity": 0.09,
        "hand": "right"
      },
      {
        "midi": 84,
        "time": 350.5,
        "duration": 0.25,
        "velocity": 0.93,
        "hand": "right"
      },
      {
        "midi": 92,
        "time": 350.5,
        "duration": 0.25,
        "velocity": 0.93,
        "hand": "right"
      },
      {
        "midi": 94,
        "time": 350.75,
        "duration": 0.25,
        "velocity": 0.93,
        "hand": "right"
      },
      {
        "midi": 73,
        "time": 351,
        "duration": 0.5,
        "velocity": 0.09,
        "hand": "right"
      },
      {
        "midi": 79,
        "time": 351,
        "duration": 0.5,
        "velocity": 0.09,
        "hand": "right"
      },
      {
        "midi": 82,
        "time": 351,
        "duration": 0.25,
        "velocity": 0.93,
        "hand": "right"
      },
      {
        "midi": 91,
        "time": 351,
        "duration": 0.25,
        "velocity": 0.93,
        "hand": "right"
      },
      {
        "midi": 92,
        "time": 351.25,
        "duration": 0.25,
        "velocity": 0.93,
        "hand": "right"
      },
      {
        "midi": 80,
        "time": 351.5,
        "duration": 0.25,
        "velocity": 0.93,
        "hand": "right"
      },
      {
        "midi": 89,
        "time": 351.5,
        "duration": 0.25,
        "velocity": 0.93,
        "hand": "right"
      },
      {
        "midi": 91,
        "time": 351.75,
        "duration": 0.25,
        "velocity": 0.93,
        "hand": "right"
      },
      {
        "midi": 79,
        "time": 352,
        "duration": 0.25,
        "velocity": 0.93,
        "hand": "right"
      },
      {
        "midi": 87,
        "time": 352,
        "duration": 0.25,
        "velocity": 0.93,
        "hand": "right"
      },
      {
        "midi": 89,
        "time": 352.25,
        "duration": 0.25,
        "velocity": 0.93,
        "hand": "right"
      },
      {
        "midi": 77,
        "time": 352.5,
        "duration": 0.25,
        "velocity": 0.93,
        "hand": "right"
      },
      {
        "midi": 85,
        "time": 352.5,
        "duration": 0.25,
        "velocity": 0.93,
        "hand": "right"
      },
      {
        "midi": 87,
        "time": 352.75,
        "duration": 0.25,
        "velocity": 0.93,
        "hand": "right"
      },
      {
        "midi": 75,
        "time": 353,
        "duration": 0.25,
        "velocity": 0.93,
        "hand": "right"
      },
      {
        "midi": 84,
        "time": 353,
        "duration": 0.25,
        "velocity": 0.93,
        "hand": "right"
      },
      {
        "midi": 85,
        "time": 353.25,
        "duration": 0.25,
        "velocity": 0.93,
        "hand": "right"
      },
      {
        "midi": 73,
        "time": 353.5,
        "duration": 0.25,
        "velocity": 0.93,
        "hand": "right"
      },
      {
        "midi": 82,
        "time": 353.5,
        "duration": 0.25,
        "velocity": 0.93,
        "hand": "right"
      },
      {
        "midi": 84,
        "time": 353.75,
        "duration": 0.25,
        "velocity": 0.93,
        "hand": "right"
      },
      {
        "midi": 72,
        "time": 354,
        "duration": 0.25,
        "velocity": 0.93,
        "hand": "right"
      },
      {
        "midi": 80,
        "time": 354,
        "duration": 0.25,
        "velocity": 0.93,
        "hand": "right"
      },
      {
        "midi": 82,
        "time": 354.25,
        "duration": 0.25,
        "velocity": 0.93,
        "hand": "right"
      },
      {
        "midi": 61,
        "time": 354.5,
        "duration": 2,
        "velocity": 0.71,
        "hand": "right"
      },
      {
        "midi": 70,
        "time": 354.5,
        "duration": 0.25,
        "velocity": 0.93,
        "hand": "right"
      },
      {
        "midi": 79,
        "time": 354.5,
        "duration": 0.25,
        "velocity": 0.93,
        "hand": "right"
      },
      {
        "midi": 80,
        "time": 354.75,
        "duration": 0.25,
        "velocity": 0.93,
        "hand": "right"
      },
      {
        "midi": 68,
        "time": 355,
        "duration": 0.25,
        "velocity": 0.93,
        "hand": "right"
      },
      {
        "midi": 77,
        "time": 355,
        "duration": 0.25,
        "velocity": 0.93,
        "hand": "right"
      },
      {
        "midi": 79,
        "time": 355.25,
        "duration": 0.25,
        "velocity": 0.93,
        "hand": "right"
      },
      {
        "midi": 67,
        "time": 355.5,
        "duration": 0.25,
        "velocity": 0.93,
        "hand": "right"
      },
      {
        "midi": 75,
        "time": 355.5,
        "duration": 0.25,
        "velocity": 0.93,
        "hand": "right"
      },
      {
        "midi": 77,
        "time": 355.75,
        "duration": 0.25,
        "velocity": 0.93,
        "hand": "right"
      },
      {
        "midi": 65,
        "time": 356,
        "duration": 0.25,
        "velocity": 0.93,
        "hand": "right"
      },
      {
        "midi": 73,
        "time": 356,
        "duration": 0.25,
        "velocity": 0.93,
        "hand": "right"
      },
      {
        "midi": 75,
        "time": 356.25,
        "duration": 0.25,
        "velocity": 0.93,
        "hand": "right"
      },
      {
        "midi": 51,
        "time": 356.5,
        "duration": 1,
        "velocity": 0.71,
        "hand": "left"
      },
      {
        "midi": 63,
        "time": 356.5,
        "duration": 0.25,
        "velocity": 0.93,
        "hand": "right"
      },
      {
        "midi": 72,
        "time": 356.5,
        "duration": 0.25,
        "velocity": 0.93,
        "hand": "right"
      },
      {
        "midi": 73,
        "time": 356.75,
        "duration": 0.25,
        "velocity": 0.93,
        "hand": "right"
      },
      {
        "midi": 44,
        "time": 357,
        "duration": 3,
        "velocity": 0.71,
        "hand": "left"
      },
      {
        "midi": 61,
        "time": 357,
        "duration": 3,
        "velocity": 0.71,
        "hand": "right"
      },
      {
        "midi": 70,
        "time": 357,
        "duration": 1.5,
        "velocity": 0.71,
        "hand": "right"
      },
      {
        "midi": 52,
        "time": 357.5,
        "duration": 0.5,
        "velocity": 0.71,
        "hand": "left"
      },
      {
        "midi": 53,
        "time": 358,
        "duration": 0.5,
        "velocity": 0.71,
        "hand": "left"
      },
      {
        "midi": 54,
        "time": 358.5,
        "duration": 0.5,
        "velocity": 0.71,
        "hand": "left"
      },
      {
        "midi": 69,
        "time": 358.5,
        "duration": 0.25,
        "velocity": 0.71,
        "hand": "right"
      },
      {
        "midi": 70,
        "time": 358.75,
        "duration": 0.25,
        "velocity": 0.71,
        "hand": "right"
      },
      {
        "midi": 55,
        "time": 359,
        "duration": 0.5,
        "velocity": 0.71,
        "hand": "left"
      },
      {
        "midi": 72,
        "time": 359,
        "duration": 0.25,
        "velocity": 0.71,
        "hand": "right"
      },
      {
        "midi": 70,
        "time": 359.25,
        "duration": 0.25,
        "velocity": 0.71,
        "hand": "right"
      },
      {
        "midi": 51,
        "time": 359.5,
        "duration": 0.5,
        "velocity": 0.71,
        "hand": "left"
      },
      {
        "midi": 73,
        "time": 359.5,
        "duration": 0.25,
        "velocity": 0.71,
        "hand": "right"
      },
      {
        "midi": 67,
        "time": 359.75,
        "duration": 0.25,
        "velocity": 0.71,
        "hand": "right"
      },
      {
        "midi": 44,
        "time": 360,
        "duration": 1.5,
        "velocity": 0.71,
        "hand": "left"
      },
      {
        "midi": 56,
        "time": 360,
        "duration": 0.5,
        "velocity": 0.71,
        "hand": "left"
      },
      {
        "midi": 60,
        "time": 360,
        "duration": 0.25,
        "velocity": 0.71,
        "hand": "right"
      },
      {
        "midi": 68,
        "time": 360,
        "duration": 2,
        "velocity": 0.71,
        "hand": "right"
      },
      {
        "midi": 63,
        "time": 360.25,
        "duration": 0.25,
        "velocity": 0.71,
        "hand": "right"
      },
      {
        "midi": 51,
        "time": 360.5,
        "duration": 0.5,
        "velocity": 0.71,
        "hand": "left"
      },
      {
        "midi": 58,
        "time": 360.5,
        "duration": 0.25,
        "velocity": 0.71,
        "hand": "left"
      },
      {
        "midi": 63,
        "time": 360.75,
        "duration": 0.25,
        "velocity": 0.71,
        "hand": "right"
      },
      {
        "midi": 54,
        "time": 361,
        "duration": 0.5,
        "velocity": 0.71,
        "hand": "left"
      },
      {
        "midi": 60,
        "time": 361,
        "duration": 0.25,
        "velocity": 0.71,
        "hand": "right"
      },
      {
        "midi": 63,
        "time": 361.25,
        "duration": 0.25,
        "velocity": 0.71,
        "hand": "right"
      },
      {
        "midi": 52,
        "time": 361.5,
        "duration": 0.5,
        "velocity": 0.71,
        "hand": "left"
      },
      {
        "midi": 61,
        "time": 361.5,
        "duration": 0.25,
        "velocity": 0.71,
        "hand": "right"
      },
      {
        "midi": 64,
        "time": 361.75,
        "duration": 0.25,
        "velocity": 0.71,
        "hand": "right"
      },
      {
        "midi": 48,
        "time": 362,
        "duration": 0.5,
        "velocity": 0.71,
        "hand": "left"
      },
      {
        "midi": 63,
        "time": 362,
        "duration": 0.25,
        "velocity": 0.71,
        "hand": "right"
      },
      {
        "midi": 67,
        "time": 362,
        "duration": 0.25,
        "velocity": 0.71,
        "hand": "right"
      },
      {
        "midi": 66,
        "time": 362.25,
        "duration": 0.25,
        "velocity": 0.71,
        "hand": "right"
      },
      {
        "midi": 68,
        "time": 362.25,
        "duration": 0.25,
        "velocity": 0.71,
        "hand": "right"
      },
      {
        "midi": 49,
        "time": 362.5,
        "duration": 0.5,
        "velocity": 0.71,
        "hand": "left"
      },
      {
        "midi": 61,
        "time": 362.5,
        "duration": 0.25,
        "velocity": 0.71,
        "hand": "right"
      },
      {
        "midi": 67,
        "time": 362.5,
        "duration": 0.25,
        "velocity": 0.71,
        "hand": "right"
      },
      {
        "midi": 64,
        "time": 362.75,
        "duration": 0.25,
        "velocity": 0.71,
        "hand": "right"
      },
      {
        "midi": 68,
        "time": 362.75,
        "duration": 0.25,
        "velocity": 0.71,
        "hand": "right"
      },
      {
        "midi": 42,
        "time": 363,
        "duration": 0.5,
        "velocity": 0.71,
        "hand": "left"
      },
      {
        "midi": 61,
        "time": 363,
        "duration": 0.25,
        "velocity": 0.71,
        "hand": "right"
      },
      {
        "midi": 69,
        "time": 363,
        "duration": 0.5,
        "velocity": 0.71,
        "hand": "right"
      },
      {
        "midi": 63,
        "time": 363.25,
        "duration": 0.25,
        "velocity": 0.66,
        "hand": "right"
      },
      {
        "midi": 44,
        "time": 363.5,
        "duration": 0.5,
        "velocity": 0.71,
        "hand": "left"
      },
      {
        "midi": 61,
        "time": 363.5,
        "duration": 0.25,
        "velocity": 0.61,
        "hand": "right"
      },
      {
        "midi": 68,
        "time": 363.5,
        "duration": 0.5,
        "velocity": 0.71,
        "hand": "right"
      },
      {
        "midi": 64,
        "time": 363.75,
        "duration": 0.25,
        "velocity": 0.57,
        "hand": "right"
      },
      {
        "midi": 45,
        "time": 364,
        "duration": 0.5,
        "velocity": 0.71,
        "hand": "left"
      },
      {
        "midi": 54,
        "time": 364,
        "duration": 0.25,
        "velocity": 0.53,
        "hand": "left"
      },
      {
        "midi": 66,
        "time": 364,
        "duration": 0.5,
        "velocity": 0.71,
        "hand": "right"
      },
      {
        "midi": 61,
        "time": 364.25,
        "duration": 0.25,
        "velocity": 0.48,
        "hand": "right"
      },
      {
        "midi": 46,
        "time": 364.5,
        "duration": 0.5,
        "velocity": 0.71,
        "hand": "left"
      },
      {
        "midi": 55,
        "time": 364.5,
        "duration": 0.25,
        "velocity": 0.48,
        "hand": "left"
      },
      {
        "midi": 64,
        "time": 364.5,
        "duration": 0.75,
        "velocity": 0.71,
        "hand": "right"
      },
      {
        "midi": 61,
        "time": 364.75,
        "duration": 0.25,
        "velocity": 0.48,
        "hand": "right"
      },
      {
        "midi": 38,
        "time": 365,
        "duration": 0.25,
        "velocity": 0.71,
        "hand": "left"
      },
      {
        "midi": 55,
        "time": 365,
        "duration": 0.25,
        "velocity": 0.48,
        "hand": "left"
      },
      {
        "midi": 39,
        "time": 365.25,
        "duration": 0.25,
        "velocity": 0.71,
        "hand": "left"
      },
      {
        "midi": 61,
        "time": 365.25,
        "duration": 0.25,
        "velocity": 0.48,
        "hand": "right"
      },
      {
        "midi": 63,
        "time": 365.25,
        "duration": 0.25,
        "velocity": 0.71,
        "hand": "right"
      },
      {
        "midi": 38,
        "time": 365.5,
        "duration": 0.25,
        "velocity": 0.71,
        "hand": "left"
      },
      {
        "midi": 55,
        "time": 365.5,
        "duration": 0.25,
        "velocity": 0.48,
        "hand": "left"
      },
      {
        "midi": 64,
        "time": 365.5,
        "duration": 0.25,
        "velocity": 0.71,
        "hand": "right"
      },
      {
        "midi": 66,
        "time": 365.5,
        "duration": 0.125,
        "velocity": 0.71,
        "hand": "right"
      },
      {
        "midi": 39,
        "time": 365.75,
        "duration": 0.25,
        "velocity": 0.71,
        "hand": "left"
      },
      {
        "midi": 61,
        "time": 365.75,
        "duration": 0.25,
        "velocity": 0.48,
        "hand": "right"
      },
      {
        "midi": 63,
        "time": 365.75,
        "duration": 0.25,
        "velocity": 0.71,
        "hand": "right"
      },
      {
        "midi": 32,
        "time": 366,
        "duration": 0.5,
        "velocity": 0.71,
        "hand": "left"
      },
      {
        "midi": 44,
        "time": 366,
        "duration": 0.5,
        "velocity": 0.71,
        "hand": "left"
      },
      {
        "midi": 60,
        "time": 366,
        "duration": 0.25,
        "velocity": 0.48,
        "hand": "right"
      },
      {
        "midi": 68,
        "time": 366,
        "duration": 1,
        "velocity": 0.71,
        "hand": "right"
      },
      {
        "midi": 63,
        "time": 366.25,
        "duration": 0.25,
        "velocity": 0.48,
        "hand": "right"
      },
      {
        "midi": 39,
        "time": 366.5,
        "duration": 0.5,
        "velocity": 0.71,
        "hand": "left"
      },
      {
        "midi": 51,
        "time": 366.5,
        "duration": 0.5,
        "velocity": 0.71,
        "hand": "left"
      },
      {
        "midi": 58,
        "time": 366.5,
        "duration": 0.25,
        "velocity": 0.48,
        "hand": "left"
      },
      {
        "midi": 63,
        "time": 366.75,
        "duration": 0.25,
        "velocity": 0.48,
        "hand": "right"
      },
      {
        "midi": 42,
        "time": 367,
        "duration": 0.5,
        "velocity": 0.71,
        "hand": "left"
      },
      {
        "midi": 54,
        "time": 367,
        "duration": 0.5,
        "velocity": 0.71,
        "hand": "left"
      },
      {
        "midi": 60,
        "time": 367,
        "duration": 0.25,
        "velocity": 0.48,
        "hand": "right"
      },
      {
        "midi": 68,
        "time": 367,
        "duration": 1,
        "velocity": 0.71,
        "hand": "right"
      },
      {
        "midi": 63,
        "time": 367.25,
        "duration": 0.25,
        "velocity": 0.48,
        "hand": "right"
      },
      {
        "midi": 40,
        "time": 367.5,
        "duration": 0.5,
        "velocity": 0.71,
        "hand": "left"
      },
      {
        "midi": 52,
        "time": 367.5,
        "duration": 0.5,
        "velocity": 0.71,
        "hand": "left"
      },
      {
        "midi": 56,
        "time": 367.5,
        "duration": 0.25,
        "velocity": 0.48,
        "hand": "left"
      },
      {
        "midi": 61,
        "time": 367.75,
        "duration": 0.25,
        "velocity": 0.48,
        "hand": "right"
      },
      {
        "midi": 36,
        "time": 368,
        "duration": 0.5,
        "velocity": 0.71,
        "hand": "left"
      },
      {
        "midi": 48,
        "time": 368,
        "duration": 0.5,
        "velocity": 0.71,
        "hand": "left"
      },
      {
        "midi": 56,
        "time": 368,
        "duration": 0.25,
        "velocity": 0.48,
        "hand": "left"
      },
      {
        "midi": 67,
        "time": 368,
        "duration": 0.25,
        "velocity": 0.71,
        "hand": "right"
      },
      {
        "midi": 66,
        "time": 368.25,
        "duration": 0.25,
        "velocity": 0.48,
        "hand": "right"
      },
      {
        "midi": 68,
        "time": 368.25,
        "duration": 0.25,
        "velocity": 0.71,
        "hand": "right"
      },
      {
        "midi": 37,
        "time": 368.5,
        "duration": 0.5,
        "velocity": 0.71,
        "hand": "left"
      },
      {
        "midi": 49,
        "time": 368.5,
        "duration": 0.5,
        "velocity": 0.71,
        "hand": "left"
      },
      {
        "midi": 56,
        "time": 368.5,
        "duration": 0.25,
        "velocity": 0.48,
        "hand": "left"
      },
      {
        "midi": 67,
        "time": 368.5,
        "duration": 0.25,
        "velocity": 0.71,
        "hand": "right"
      },
      {
        "midi": 64,
        "time": 368.75,
        "duration": 0.25,
        "velocity": 0.48,
        "hand": "right"
      },
      {
        "midi": 68,
        "time": 368.75,
        "duration": 0.25,
        "velocity": 0.71,
        "hand": "right"
      },
      {
        "midi": 31,
        "time": 369,
        "duration": 0.5,
        "velocity": 0.71,
        "hand": "left"
      },
      {
        "midi": 43,
        "time": 369,
        "duration": 0.5,
        "velocity": 0.71,
        "hand": "left"
      },
      {
        "midi": 61,
        "time": 369,
        "duration": 0.25,
        "velocity": 0.48,
        "hand": "right"
      },
      {
        "midi": 71,
        "time": 369,
        "duration": 0.25,
        "velocity": 0.71,
        "hand": "right"
      },
      {
        "midi": 63,
        "time": 369.25,
        "duration": 0.25,
        "velocity": 0.48,
        "hand": "right"
      },
      {
        "midi": 69,
        "time": 369.25,
        "duration": 0.25,
        "velocity": 0.71,
        "hand": "right"
      },
      {
        "midi": 32,
        "time": 369.5,
        "duration": 0.5,
        "velocity": 0.71,
        "hand": "left"
      },
      {
        "midi": 44,
        "time": 369.5,
        "duration": 0.5,
        "velocity": 0.71,
        "hand": "left"
      },
      {
        "midi": 61,
        "time": 369.5,
        "duration": 0.25,
        "velocity": 0.48,
        "hand": "right"
      },
      {
        "midi": 69,
        "time": 369.5,
        "duration": 0.25,
        "velocity": 0.71,
        "hand": "right"
      },
      {
        "midi": 64,
        "time": 369.75,
        "duration": 0.25,
        "velocity": 0.48,
        "hand": "right"
      },
      {
        "midi": 68,
        "time": 369.75,
        "duration": 0.25,
        "velocity": 0.71,
        "hand": "right"
      },
      {
        "midi": 33,
        "time": 370,
        "duration": 0.5,
        "velocity": 0.71,
        "hand": "left"
      },
      {
        "midi": 45,
        "time": 370,
        "duration": 0.5,
        "velocity": 0.71,
        "hand": "left"
      },
      {
        "midi": 54,
        "time": 370,
        "duration": 0.25,
        "velocity": 0.48,
        "hand": "left"
      },
      {
        "midi": 68,
        "time": 370,
        "duration": 0.25,
        "velocity": 0.71,
        "hand": "right"
      },
      {
        "midi": 61,
        "time": 370.25,
        "duration": 0.25,
        "velocity": 0.48,
        "hand": "right"
      },
      {
        "midi": 66,
        "time": 370.25,
        "duration": 0.25,
        "velocity": 0.71,
        "hand": "right"
      },
      {
        "midi": 34,
        "time": 370.5,
        "duration": 0.5,
        "velocity": 0.71,
        "hand": "left"
      },
      {
        "midi": 46,
        "time": 370.5,
        "duration": 0.5,
        "velocity": 0.71,
        "hand": "left"
      },
      {
        "midi": 55,
        "time": 370.5,
        "duration": 0.25,
        "velocity": 0.48,
        "hand": "left"
      },
      {
        "midi": 64,
        "time": 370.5,
        "duration": 0.25,
        "velocity": 0.71,
        "hand": "right"
      },
      {
        "midi": 61,
        "time": 370.75,
        "duration": 0.25,
        "velocity": 0.48,
        "hand": "right"
      },
      {
        "midi": 63,
        "time": 370.75,
        "duration": 0.25,
        "velocity": 0.71,
        "hand": "right"
      },
      {
        "midi": 27,
        "time": 371,
        "duration": 0.5,
        "velocity": 0.71,
        "hand": "left"
      },
      {
        "midi": 39,
        "time": 371,
        "duration": 0.5,
        "velocity": 0.71,
        "hand": "left"
      },
      {
        "midi": 61,
        "time": 371,
        "duration": 0.25,
        "velocity": 0.48,
        "hand": "right"
      },
      {
        "midi": 71,
        "time": 371,
        "duration": 0.25,
        "velocity": 0.71,
        "hand": "right"
      },
      {
        "midi": 67,
        "time": 371.25,
        "duration": 0.25,
        "velocity": 0.48,
        "hand": "right"
      },
      {
        "midi": 70,
        "time": 371.25,
        "duration": 0.25,
        "velocity": 0.71,
        "hand": "right"
      },
      {
        "midi": 39,
        "time": 371.5,
        "duration": 0.5,
        "velocity": 0.71,
        "hand": "left"
      },
      {
        "midi": 51,
        "time": 371.5,
        "duration": 0.5,
        "velocity": 0.71,
        "hand": "left"
      },
      {
        "midi": 67,
        "time": 371.5,
        "duration": 0.25,
        "velocity": 0.48,
        "hand": "right"
      },
      {
        "midi": 76,
        "time": 371.5,
        "duration": 0.25,
        "velocity": 0.71,
        "hand": "right"
      },
      {
        "midi": 73,
        "time": 371.75,
        "duration": 0.25,
        "velocity": 0.48,
        "hand": "right"
      },
      {
        "midi": 75,
        "time": 371.75,
        "duration": 0.25,
        "velocity": 0.71,
        "hand": "right"
      },
      {
        "midi": 32,
        "time": 372,
        "duration": 0.5,
        "velocity": 0.71,
        "hand": "left"
      },
      {
        "midi": 44,
        "time": 372,
        "duration": 0.5,
        "velocity": 0.71,
        "hand": "left"
      },
      {
        "midi": 73,
        "time": 372,
        "duration": 0.25,
        "velocity": 0.48,
        "hand": "right"
      },
      {
        "midi": 75,
        "time": 372,
        "duration": 0.5,
        "velocity": 0.71,
        "hand": "right"
      },
      {
        "midi": 80,
        "time": 372,
        "duration": 0.5,
        "velocity": 0.71,
        "hand": "right"
      },
      {
        "midi": 72,
        "time": 372.25,
        "duration": 0.25,
        "velocity": 0.48,
        "hand": "right"
      },
      {
        "midi": 39,
        "time": 372.5,
        "duration": 0.5,
        "velocity": 0.71,
        "hand": "left"
      },
      {
        "midi": 51,
        "time": 372.5,
        "duration": 0.5,
        "velocity": 0.71,
        "hand": "left"
      },
      {
        "midi": 72,
        "time": 372.5,
        "duration": 0.25,
        "velocity": 0.48,
        "hand": "right"
      },
      {
        "midi": 75,
        "time": 372.5,
        "duration": 0.5,
        "velocity": 0.71,
        "hand": "right"
      },
      {
        "midi": 80,
        "time": 372.5,
        "duration": 0.5,
        "velocity": 0.71,
        "hand": "right"
      },
      {
        "midi": 70,
        "time": 372.75,
        "duration": 0.25,
        "velocity": 0.48,
        "hand": "right"
      },
      {
        "midi": 44,
        "time": 373,
        "duration": 3.5,
        "velocity": 0.71,
        "hand": "left"
      },
      {
        "midi": 51,
        "time": 373,
        "duration": 3.5,
        "velocity": 0.71,
        "hand": "left"
      },
      {
        "midi": 72,
        "time": 373,
        "duration": 0.25,
        "velocity": 0.48,
        "hand": "right"
      },
      {
        "midi": 75,
        "time": 373,
        "duration": 0.5,
        "velocity": 0.71,
        "hand": "right"
      },
      {
        "midi": 80,
        "time": 373,
        "duration": 0.5,
        "velocity": 0.71,
        "hand": "right"
      },
      {
        "midi": 68,
        "time": 373.25,
        "duration": 0.25,
        "velocity": 0.48,
        "hand": "right"
      },
      {
        "midi": 70,
        "time": 373.5,
        "duration": 0.25,
        "velocity": 0.48,
        "hand": "right"
      },
      {
        "midi": 75,
        "time": 373.5,
        "duration": 0.5,
        "velocity": 0.71,
        "hand": "right"
      },
      {
        "midi": 80,
        "time": 373.5,
        "duration": 0.5,
        "velocity": 0.71,
        "hand": "right"
      },
      {
        "midi": 68,
        "time": 373.75,
        "duration": 0.25,
        "velocity": 0.48,
        "hand": "right"
      },
      {
        "midi": 58,
        "time": 374,
        "duration": 0.5,
        "velocity": 0.71,
        "hand": "left"
      },
      {
        "midi": 70,
        "time": 374,
        "duration": 0.25,
        "velocity": 0.48,
        "hand": "right"
      },
      {
        "midi": 75,
        "time": 374,
        "duration": 0.5,
        "velocity": 0.71,
        "hand": "right"
      },
      {
        "midi": 79,
        "time": 374,
        "duration": 0.5,
        "velocity": 0.71,
        "hand": "right"
      },
      {
        "midi": 65,
        "time": 374.25,
        "duration": 0.25,
        "velocity": 0.48,
        "hand": "right"
      },
      {
        "midi": 58,
        "time": 374.5,
        "duration": 1,
        "velocity": 0.71,
        "hand": "left"
      },
      {
        "midi": 67,
        "time": 374.5,
        "duration": 0.25,
        "velocity": 0.48,
        "hand": "right"
      },
      {
        "midi": 70,
        "time": 374.5,
        "duration": 0.5,
        "velocity": 0.71,
        "hand": "right"
      },
      {
        "midi": 75,
        "time": 374.5,
        "duration": 0.5,
        "velocity": 0.71,
        "hand": "right"
      },
      {
        "midi": 63,
        "time": 374.75,
        "duration": 0.25,
        "velocity": 0.48,
        "hand": "right"
      },
      {
        "midi": 70,
        "time": 375,
        "duration": 0.25,
        "velocity": 0.48,
        "hand": "right"
      },
      {
        "midi": 75,
        "time": 375,
        "duration": 0.5,
        "velocity": 0.71,
        "hand": "right"
      },
      {
        "midi": 78,
        "time": 375,
        "duration": 0.5,
        "velocity": 0.71,
        "hand": "right"
      },
      {
        "midi": 69,
        "time": 375.25,
        "duration": 0.25,
        "velocity": 0.48,
        "hand": "right"
      },
      {
        "midi": 57,
        "time": 375.5,
        "duration": 0.25,
        "velocity": 0.71,
        "hand": "left"
      },
      {
        "midi": 72,
        "time": 375.5,
        "duration": 0.25,
        "velocity": 0.48,
        "hand": "right"
      },
      {
        "midi": 75,
        "time": 375.5,
        "duration": 0.5,
        "velocity": 0.71,
        "hand": "right"
      },
      {
        "midi": 78,
        "time": 375.5,
        "duration": 0.5,
        "velocity": 0.71,
        "hand": "right"
      },
      {
        "midi": 58,
        "time": 375.75,
        "duration": 0.25,
        "velocity": 0.78,
        "hand": "left"
      },
      {
        "midi": 66,
        "time": 375.75,
        "duration": 0.25,
        "velocity": 0.48,
        "hand": "right"
      },
      {
        "midi": 57,
        "time": 376,
        "duration": 0.25,
        "velocity": 0.86,
        "hand": "left"
      },
      {
        "midi": 70,
        "time": 376,
        "duration": 0.25,
        "velocity": 0.48,
        "hand": "right"
      },
      {
        "midi": 75,
        "time": 376,
        "duration": 0.5,
        "velocity": 0.71,
        "hand": "right"
      },
      {
        "midi": 78,
        "time": 376,
        "duration": 0.5,
        "velocity": 0.71,
        "hand": "right"
      },
      {
        "midi": 58,
        "time": 376.25,
        "duration": 0.25,
        "velocity": 0.93,
        "hand": "left"
      },
      {
        "midi": 66,
        "time": 376.25,
        "duration": 0.25,
        "velocity": 0.48,
        "hand": "right"
      },
      {
        "midi": 63,
        "time": 376.5,
        "duration": 1.5,
        "velocity": 0.93,
        "hand": "right"
      },
      {
        "midi": 70,
        "time": 376.5,
        "duration": 0.25,
        "velocity": 0.48,
        "hand": "right"
      },
      {
        "midi": 75,
        "time": 376.5,
        "duration": 0.5,
        "velocity": 0.71,
        "hand": "right"
      },
      {
        "midi": 78,
        "time": 376.5,
        "duration": 1.5,
        "velocity": 0.71,
        "hand": "right"
      },
      {
        "midi": 66,
        "time": 376.75,
        "duration": 0.25,
        "velocity": 0.48,
        "hand": "right"
      },
      {
        "midi": 70,
        "time": 377,
        "duration": 0.25,
        "velocity": 0.48,
        "hand": "right"
      },
      {
        "midi": 74,
        "time": 377,
        "duration": 0.5,
        "velocity": 0.71,
        "hand": "right"
      },
      {
        "midi": 66,
        "time": 377.25,
        "duration": 0.25,
        "velocity": 0.48,
        "hand": "right"
      },
      {
        "midi": 70,
        "time": 377.5,
        "duration": 0.25,
        "velocity": 0.48,
        "hand": "right"
      },
      {
        "midi": 73,
        "time": 377.5,
        "duration": 0.5,
        "velocity": 0.71,
        "hand": "right"
      },
      {
        "midi": 66,
        "time": 377.75,
        "duration": 0.25,
        "velocity": 0.48,
        "hand": "right"
      },
      {
        "midi": 32,
        "time": 378,
        "duration": 0.5,
        "velocity": 0.93,
        "hand": "left"
      },
      {
        "midi": 44,
        "time": 378,
        "duration": 0.5,
        "velocity": 0.93,
        "hand": "left"
      },
      {
        "midi": 69,
        "time": 378,
        "duration": 0.25,
        "velocity": 0.48,
        "hand": "right"
      },
      {
        "midi": 72,
        "time": 378,
        "duration": 0.5,
        "velocity": 0.71,
        "hand": "right"
      },
      {
        "midi": 78,
        "time": 378,
        "duration": 0.5,
        "velocity": 0.71,
        "hand": "right"
      },
      {
        "midi": 68,
        "time": 378.25,
        "duration": 0.25,
        "velocity": 0.48,
        "hand": "right"
      },
      {
        "midi": 39,
        "time": 378.5,
        "duration": 0.5,
        "velocity": 0.93,
        "hand": "left"
      },
      {
        "midi": 51,
        "time": 378.5,
        "duration": 0.5,
        "velocity": 0.93,
        "hand": "left"
      },
      {
        "midi": 68,
        "time": 378.5,
        "duration": 0.25,
        "velocity": 0.48,
        "hand": "right"
      },
      {
        "midi": 72,
        "time": 378.5,
        "duration": 0.5,
        "velocity": 0.71,
        "hand": "right"
      },
      {
        "midi": 78,
        "time": 378.5,
        "duration": 0.5,
        "velocity": 0.71,
        "hand": "right"
      },
      {
        "midi": 67,
        "time": 378.75,
        "duration": 0.25,
        "velocity": 0.48,
        "hand": "right"
      },
      {
        "midi": 44,
        "time": 379,
        "duration": 2,
        "velocity": 0.71,
        "hand": "left"
      },
      {
        "midi": 56,
        "time": 379,
        "duration": 1,
        "velocity": 0.93,
        "hand": "left"
      },
      {
        "midi": 68,
        "time": 379,
        "duration": 0.25,
        "velocity": 0.48,
        "hand": "right"
      },
      {
        "midi": 72,
        "time": 379,
        "duration": 0.5,
        "velocity": 0.71,
        "hand": "right"
      },
      {
        "midi": 78,
        "time": 379,
        "duration": 0.5,
        "velocity": 0.71,
        "hand": "right"
      },
      {
        "midi": 63,
        "time": 379.25,
        "duration": 0.25,
        "velocity": 0.48,
        "hand": "right"
      },
      {
        "midi": 68,
        "time": 379.5,
        "duration": 0.25,
        "velocity": 0.48,
        "hand": "right"
      },
      {
        "midi": 72,
        "time": 379.5,
        "duration": 0.5,
        "velocity": 0.71,
        "hand": "right"
      },
      {
        "midi": 78,
        "time": 379.5,
        "duration": 0.5,
        "velocity": 0.71,
        "hand": "right"
      },
      {
        "midi": 67,
        "time": 379.75,
        "duration": 0.25,
        "velocity": 0.48,
        "hand": "right"
      },
      {
        "midi": 56,
        "time": 380,
        "duration": 0.5,
        "velocity": 0.93,
        "hand": "left"
      },
      {
        "midi": 68,
        "time": 380,
        "duration": 0.25,
        "velocity": 0.48,
        "hand": "right"
      },
      {
        "midi": 72,
        "time": 380,
        "duration": 0.5,
        "velocity": 0.71,
        "hand": "right"
      },
      {
        "midi": 77,
        "time": 380,
        "duration": 0.5,
        "velocity": 0.71,
        "hand": "right"
      },
      {
        "midi": 64,
        "time": 380.25,
        "duration": 0.25,
        "velocity": 0.48,
        "hand": "right"
      },
      {
        "midi": 56,
        "time": 380.5,
        "duration": 0.5,
        "velocity": 0.93,
        "hand": "left"
      },
      {
        "midi": 65,
        "time": 380.5,
        "duration": 0.25,
        "velocity": 0.48,
        "hand": "right"
      },
      {
        "midi": 72,
        "time": 380.5,
        "duration": 0.5,
        "velocity": 0.71,
        "hand": "right"
      },
      {
        "midi": 60,
        "time": 380.75,
        "duration": 0.25,
        "velocity": 0.48,
        "hand": "right"
      },
      {
        "midi": 44,
        "time": 381,
        "duration": 1.5,
        "velocity": 0.71,
        "hand": "left"
      },
      {
        "midi": 56,
        "time": 381,
        "duration": 0.5,
        "velocity": 0.93,
        "hand": "left"
      },
      {
        "midi": 64,
        "time": 381,
        "duration": 0.25,
        "velocity": 0.48,
        "hand": "right"
      },
      {
        "midi": 71,
        "time": 381,
        "duration": 0.5,
        "velocity": 0.71,
        "hand": "right"
      },
      {
        "midi": 76,
        "time": 381,
        "duration": 0.5,
        "velocity": 0.71,
        "hand": "right"
      },
      {
        "midi": 63,
        "time": 381.25,
        "duration": 0.25,
        "velocity": 0.48,
        "hand": "right"
      },
      {
        "midi": 55,
        "time": 381.5,
        "duration": 0.25,
        "velocity": 0.93,
        "hand": "left"
      },
      {
        "midi": 66,
        "time": 381.5,
        "duration": 0.25,
        "velocity": 0.48,
        "hand": "right"
      },
      {
        "midi": 71,
        "time": 381.5,
        "duration": 0.5,
        "velocity": 0.71,
        "hand": "right"
      },
      {
        "midi": 76,
        "time": 381.5,
        "duration": 0.5,
        "velocity": 0.71,
        "hand": "right"
      },
      {
        "midi": 56,
        "time": 381.75,
        "duration": 0.25,
        "velocity": 0.93,
        "hand": "left"
      },
      {
        "midi": 59,
        "time": 381.75,
        "duration": 0.25,
        "velocity": 0.48,
        "hand": "left"
      },
      {
        "midi": 55,
        "time": 382,
        "duration": 0.25,
        "velocity": 0.93,
        "hand": "left"
      },
      {
        "midi": 64,
        "time": 382,
        "duration": 0.25,
        "velocity": 0.48,
        "hand": "right"
      },
      {
        "midi": 71,
        "time": 382,
        "duration": 0.5,
        "velocity": 0.71,
        "hand": "right"
      },
      {
        "midi": 76,
        "time": 382,
        "duration": 0.5,
        "velocity": 0.71,
        "hand": "right"
      },
      {
        "midi": 56,
        "time": 382.25,
        "duration": 0.25,
        "velocity": 0.93,
        "hand": "left"
      },
      {
        "midi": 59,
        "time": 382.25,
        "duration": 0.25,
        "velocity": 0.48,
        "hand": "left"
      },
      {
        "midi": 68,
        "time": 382.5,
        "duration": 1.5,
        "velocity": 0.93,
        "hand": "right"
      },
      {
        "midi": 71,
        "time": 382.5,
        "duration": 0.25,
        "velocity": 0.48,
        "hand": "right"
      },
      {
        "midi": 76,
        "time": 382.5,
        "duration": 1,
        "velocity": 0.71,
        "hand": "right"
      },
      {
        "midi": 64,
        "time": 382.75,
        "duration": 0.25,
        "velocity": 0.43,
        "hand": "right"
      },
      {
        "midi": 71,
        "time": 383,
        "duration": 0.25,
        "velocity": 0.39,
        "hand": "right"
      },
      {
        "midi": 63,
        "time": 383.25,
        "duration": 0.25,
        "velocity": 0.35,
        "hand": "right"
      },
      {
        "midi": 71,
        "time": 383.5,
        "duration": 0.75,
        "velocity": 0.71,
        "hand": "right"
      },
      {
        "midi": 62,
        "time": 383.75,
        "duration": 0.25,
        "velocity": 0.26,
        "hand": "right"
      },
      {
        "midi": 33,
        "time": 384,
        "duration": 0.25,
        "velocity": 0.09,
        "hand": "left"
      },
      {
        "midi": 61,
        "time": 384,
        "duration": 0.25,
        "velocity": 0.26,
        "hand": "right"
      },
      {
        "midi": 52,
        "time": 384.25,
        "duration": 0.25,
        "velocity": 0.09,
        "hand": "left"
      },
      {
        "midi": 67,
        "time": 384.25,
        "duration": 0.25,
        "velocity": 0.26,
        "hand": "right"
      },
      {
        "midi": 69,
        "time": 384.25,
        "duration": 0.25,
        "velocity": 0.71,
        "hand": "right"
      },
      {
        "midi": 57,
        "time": 384.5,
        "duration": 0.25,
        "velocity": 0.09,
        "hand": "left"
      },
      {
        "midi": 64,
        "time": 384.5,
        "duration": 0.5,
        "velocity": 0.71,
        "hand": "right"
      },
      {
        "midi": 76,
        "time": 384.5,
        "duration": 0.5,
        "velocity": 0.71,
        "hand": "right"
      },
      {
        "midi": 59,
        "time": 384.75,
        "duration": 0.25,
        "velocity": 0.09,
        "hand": "left"
      },
      {
        "midi": 67,
        "time": 384.75,
        "duration": 0.25,
        "velocity": 0.26,
        "hand": "right"
      },
      {
        "midi": 69,
        "time": 384.75,
        "duration": 0.25,
        "velocity": 0.26,
        "hand": "right"
      },
      {
        "midi": 61,
        "time": 385,
        "duration": 0.5,
        "velocity": 0.09,
        "hand": "right"
      },
      {
        "midi": 64,
        "time": 385,
        "duration": 0.5,
        "velocity": 0.71,
        "hand": "right"
      },
      {
        "midi": 76,
        "time": 385,
        "duration": 0.5,
        "velocity": 0.71,
        "hand": "right"
      },
      {
        "midi": 67,
        "time": 385.25,
        "duration": 0.25,
        "velocity": 0.26,
        "hand": "right"
      },
      {
        "midi": 69,
        "time": 385.25,
        "duration": 0.25,
        "velocity": 0.26,
        "hand": "right"
      },
      {
        "midi": 38,
        "time": 385.5,
        "duration": 0.25,
        "velocity": 0.09,
        "hand": "left"
      },
      {
        "midi": 64,
        "time": 385.5,
        "duration": 0.5,
        "velocity": 0.26,
        "hand": "right"
      },
      {
        "midi": 76,
        "time": 385.5,
        "duration": 0.5,
        "velocity": 0.71,
        "hand": "right"
      },
      {
        "midi": 57,
        "time": 385.75,
        "duration": 0.25,
        "velocity": 0.09,
        "hand": "left"
      },
      {
        "midi": 66,
        "time": 385.75,
        "duration": 0.25,
        "velocity": 0.26,
        "hand": "right"
      },
      {
        "midi": 69,
        "time": 385.75,
        "duration": 0.25,
        "velocity": 0.26,
        "hand": "right"
      },
      {
        "midi": 54,
        "time": 386,
        "duration": 0.25,
        "velocity": 0.09,
        "hand": "left"
      },
      {
        "midi": 62,
        "time": 386,
        "duration": 0.5,
        "velocity": 0.71,
        "hand": "right"
      },
      {
        "midi": 74,
        "time": 386,
        "duration": 0.5,
        "velocity": 0.71,
        "hand": "right"
      },
      {
        "midi": 57,
        "time": 386.25,
        "duration": 0.25,
        "velocity": 0.09,
        "hand": "left"
      },
      {
        "midi": 66,
        "time": 386.25,
        "duration": 0.25,
        "velocity": 0.26,
        "hand": "right"
      },
      {
        "midi": 69,
        "time": 386.25,
        "duration": 0.25,
        "velocity": 0.26,
        "hand": "right"
      },
      {
        "midi": 47,
        "time": 386.5,
        "duration": 0.25,
        "velocity": 0.09,
        "hand": "left"
      },
      {
        "midi": 61,
        "time": 386.5,
        "duration": 0.5,
        "velocity": 0.71,
        "hand": "right"
      },
      {
        "midi": 73,
        "time": 386.5,
        "duration": 0.5,
        "velocity": 0.71,
        "hand": "right"
      },
      {
        "midi": 57,
        "time": 386.75,
        "duration": 0.25,
        "velocity": 0.09,
        "hand": "left"
      },
      {
        "midi": 66,
        "time": 386.75,
        "duration": 0.25,
        "velocity": 0.26,
        "hand": "right"
      },
      {
        "midi": 69,
        "time": 386.75,
        "duration": 0.25,
        "velocity": 0.26,
        "hand": "right"
      },
      {
        "midi": 40,
        "time": 387,
        "duration": 0.25,
        "velocity": 0.09,
        "hand": "left"
      },
      {
        "midi": 61,
        "time": 387,
        "duration": 0.5,
        "velocity": 0.26,
        "hand": "right"
      },
      {
        "midi": 73,
        "time": 387,
        "duration": 0.5,
        "velocity": 0.71,
        "hand": "right"
      },
      {
        "midi": 52,
        "time": 387.25,
        "duration": 0.25,
        "velocity": 0.09,
        "hand": "left"
      },
      {
        "midi": 64,
        "time": 387.25,
        "duration": 0.25,
        "velocity": 0.26,
        "hand": "right"
      },
      {
        "midi": 68,
        "time": 387.25,
        "duration": 0.25,
        "velocity": 0.26,
        "hand": "right"
      },
      {
        "midi": 50,
        "time": 387.5,
        "duration": 0.25,
        "velocity": 0.09,
        "hand": "left"
      },
      {
        "midi": 56,
        "time": 387.5,
        "duration": 0.25,
        "velocity": 0.09,
        "hand": "left"
      },
      {
        "midi": 59,
        "time": 387.5,
        "duration": 0.5,
        "velocity": 0.71,
        "hand": "left"
      },
      {
        "midi": 71,
        "time": 387.5,
        "duration": 0.5,
        "velocity": 0.71,
        "hand": "right"
      },
      {
        "midi": 52,
        "time": 387.75,
        "duration": 0.25,
        "velocity": 0.09,
        "hand": "left"
      },
      {
        "midi": 64,
        "time": 387.75,
        "duration": 0.25,
        "velocity": 0.26,
        "hand": "right"
      },
      {
        "midi": 68,
        "time": 387.75,
        "duration": 0.25,
        "velocity": 0.26,
        "hand": "right"
      },
      {
        "midi": 49,
        "time": 388,
        "duration": 0.25,
        "velocity": 0.09,
        "hand": "left"
      },
      {
        "midi": 57,
        "time": 388,
        "duration": 0.5,
        "velocity": 0.71,
        "hand": "left"
      },
      {
        "midi": 69,
        "time": 388,
        "duration": 0.5,
        "velocity": 0.71,
        "hand": "right"
      },
      {
        "midi": 52,
        "time": 388.25,
        "duration": 0.25,
        "velocity": 0.09,
        "hand": "left"
      },
      {
        "midi": 64,
        "time": 388.25,
        "duration": 0.25,
        "velocity": 0.26,
        "hand": "right"
      },
      {
        "midi": 45,
        "time": 388.5,
        "duration": 1.5,
        "velocity": 0.71,
        "hand": "left"
      },
      {
        "midi": 61,
        "time": 388.5,
        "duration": 0.25,
        "velocity": 0.26,
        "hand": "right"
      },
      {
        "midi": 73,
        "time": 388.5,
        "duration": 1.5,
        "velocity": 0.71,
        "hand": "right"
      },
      {
        "midi": 52,
        "time": 388.75,
        "duration": 0.25,
        "velocity": 0.71,
        "hand": "left"
      },
      {
        "midi": 64,
        "time": 388.75,
        "duration": 0.25,
        "velocity": 0.26,
        "hand": "right"
      },
      {
        "midi": 69,
        "time": 388.75,
        "duration": 0.25,
        "velocity": 0.26,
        "hand": "right"
      },
      {
        "midi": 57,
        "time": 389,
        "duration": 0.25,
        "velocity": 0.71,
        "hand": "left"
      },
      {
        "midi": 61,
        "time": 389,
        "duration": 0.25,
        "velocity": 0.26,
        "hand": "right"
      },
      {
        "midi": 54,
        "time": 389.25,
        "duration": 0.25,
        "velocity": 0.71,
        "hand": "left"
      },
      {
        "midi": 62,
        "time": 389.25,
        "duration": 0.25,
        "velocity": 0.26,
        "hand": "right"
      },
      {
        "midi": 69,
        "time": 389.25,
        "duration": 0.25,
        "velocity": 0.26,
        "hand": "right"
      },
      {
        "midi": 52,
        "time": 389.5,
        "duration": 0.5,
        "velocity": 0.71,
        "hand": "left"
      },
      {
        "midi": 61,
        "time": 389.5,
        "duration": 0.25,
        "velocity": 0.26,
        "hand": "right"
      },
      {
        "midi": 64,
        "time": 389.75,
        "duration": 0.25,
        "velocity": 0.26,
        "hand": "right"
      },
      {
        "midi": 69,
        "time": 389.75,
        "duration": 0.25,
        "velocity": 0.26,
        "hand": "right"
      },
      {
        "midi": 33,
        "time": 390,
        "duration": 0.25,
        "velocity": 0.09,
        "hand": "left"
      },
      {
        "midi": 61,
        "time": 390,
        "duration": 0.25,
        "velocity": 0.26,
        "hand": "right"
      },
      {
        "midi": 76,
        "time": 390,
        "duration": 0.5,
        "velocity": 0.71,
        "hand": "right"
      },
      {
        "midi": 45,
        "time": 390.25,
        "duration": 0.25,
        "velocity": 0.09,
        "hand": "left"
      },
      {
        "midi": 67,
        "time": 390.25,
        "duration": 0.25,
        "velocity": 0.26,
        "hand": "right"
      },
      {
        "midi": 69,
        "time": 390.25,
        "duration": 0.25,
        "velocity": 0.26,
        "hand": "right"
      },
      {
        "midi": 52,
        "time": 390.5,
        "duration": 0.25,
        "velocity": 0.09,
        "hand": "left"
      },
      {
        "midi": 64,
        "time": 390.5,
        "duration": 0.5,
        "velocity": 0.26,
        "hand": "right"
      },
      {
        "midi": 76,
        "time": 390.5,
        "duration": 0.5,
        "velocity": 0.71,
        "hand": "right"
      },
      {
        "midi": 59,
        "time": 390.75,
        "duration": 0.25,
        "velocity": 0.09,
        "hand": "left"
      },
      {
        "midi": 67,
        "time": 390.75,
        "duration": 0.25,
        "velocity": 0.26,
        "hand": "right"
      },
      {
        "midi": 69,
        "time": 390.75,
        "duration": 0.25,
        "velocity": 0.26,
        "hand": "right"
      },
      {
        "midi": 61,
        "time": 391,
        "duration": 0.5,
        "velocity": 0.09,
        "hand": "right"
      },
      {
        "midi": 64,
        "time": 391,
        "duration": 0.5,
        "velocity": 0.71,
        "hand": "right"
      },
      {
        "midi": 76,
        "time": 391,
        "duration": 0.5,
        "velocity": 0.71,
        "hand": "right"
      },
      {
        "midi": 67,
        "time": 391.25,
        "duration": 0.25,
        "velocity": 0.26,
        "hand": "right"
      },
      {
        "midi": 69,
        "time": 391.25,
        "duration": 0.25,
        "velocity": 0.26,
        "hand": "right"
      },
      {
        "midi": 38,
        "time": 391.5,
        "duration": 0.25,
        "velocity": 0.09,
        "hand": "left"
      },
      {
        "midi": 64,
        "time": 391.5,
        "duration": 0.5,
        "velocity": 0.71,
        "hand": "right"
      },
      {
        "midi": 76,
        "time": 391.5,
        "duration": 0.5,
        "velocity": 0.71,
        "hand": "right"
      },
      {
        "midi": 57,
        "time": 391.75,
        "duration": 0.25,
        "velocity": 0.09,
        "hand": "left"
      },
      {
        "midi": 66,
        "time": 391.75,
        "duration": 0.25,
        "velocity": 0.26,
        "hand": "right"
      },
      {
        "midi": 69,
        "time": 391.75,
        "duration": 0.25,
        "velocity": 0.26,
        "hand": "right"
      },
      {
        "midi": 54,
        "time": 392,
        "duration": 0.25,
        "velocity": 0.09,
        "hand": "left"
      },
      {
        "midi": 62,
        "time": 392,
        "duration": 0.5,
        "velocity": 0.71,
        "hand": "right"
      },
      {
        "midi": 74,
        "time": 392,
        "duration": 0.5,
        "velocity": 0.71,
        "hand": "right"
      },
      {
        "midi": 57,
        "time": 392.25,
        "duration": 0.25,
        "velocity": 0.09,
        "hand": "left"
      },
      {
        "midi": 66,
        "time": 392.25,
        "duration": 0.25,
        "velocity": 0.26,
        "hand": "right"
      },
      {
        "midi": 69,
        "time": 392.25,
        "duration": 0.25,
        "velocity": 0.26,
        "hand": "right"
      },
      {
        "midi": 42,
        "time": 392.5,
        "duration": 0.25,
        "velocity": 0.09,
        "hand": "left"
      },
      {
        "midi": 61,
        "time": 392.5,
        "duration": 0.5,
        "velocity": 0.71,
        "hand": "right"
      },
      {
        "midi": 73,
        "time": 392.5,
        "duration": 0.5,
        "velocity": 0.71,
        "hand": "right"
      },
      {
        "midi": 49,
        "time": 392.75,
        "duration": 0.25,
        "velocity": 0.09,
        "hand": "left"
      },
      {
        "midi": 66,
        "time": 392.75,
        "duration": 0.25,
        "velocity": 0.26,
        "hand": "right"
      },
      {
        "midi": 69,
        "time": 392.75,
        "duration": 0.25,
        "velocity": 0.26,
        "hand": "right"
      },
      {
        "midi": 41,
        "time": 393,
        "duration": 0.25,
        "velocity": 0.09,
        "hand": "left"
      },
      {
        "midi": 61,
        "time": 393,
        "duration": 0.5,
        "velocity": 0.71,
        "hand": "right"
      },
      {
        "midi": 73,
        "time": 393,
        "duration": 0.5,
        "velocity": 0.71,
        "hand": "right"
      },
      {
        "midi": 49,
        "time": 393.25,
        "duration": 0.25,
        "velocity": 0.09,
        "hand": "left"
      },
      {
        "midi": 68,
        "time": 393.25,
        "duration": 0.25,
        "velocity": 0.26,
        "hand": "right"
      },
      {
        "midi": 56,
        "time": 393.5,
        "duration": 0.25,
        "velocity": 0.09,
        "hand": "left"
      },
      {
        "midi": 59,
        "time": 393.5,
        "duration": 0.5,
        "velocity": 0.71,
        "hand": "left"
      },
      {
        "midi": 71,
        "time": 393.5,
        "duration": 0.5,
        "velocity": 0.71,
        "hand": "right"
      },
      {
        "midi": 49,
        "time": 393.75,
        "duration": 0.25,
        "velocity": 0.09,
        "hand": "left"
      },
      {
        "midi": 61,
        "time": 393.75,
        "duration": 0.25,
        "velocity": 0.26,
        "hand": "right"
      },
      {
        "midi": 68,
        "time": 393.75,
        "duration": 0.25,
        "velocity": 0.26,
        "hand": "right"
      },
      {
        "midi": 42,
        "time": 394,
        "duration": 0.25,
        "velocity": 0.09,
        "hand": "left"
      },
      {
        "midi": 57,
        "time": 394,
        "duration": 0.5,
        "velocity": 0.71,
        "hand": "left"
      },
      {
        "midi": 69,
        "time": 394,
        "duration": 0.5,
        "velocity": 0.71,
        "hand": "right"
      },
      {
        "midi": 49,
        "time": 394.25,
        "duration": 0.25,
        "velocity": 0.09,
        "hand": "left"
      },
      {
        "midi": 61,
        "time": 394.25,
        "duration": 0.25,
        "velocity": 0.26,
        "hand": "right"
      },
      {
        "midi": 66,
        "time": 394.25,
        "duration": 0.25,
        "velocity": 0.26,
        "hand": "right"
      },
      {
        "midi": 37,
        "time": 394.5,
        "duration": 0.25,
        "velocity": 0.09,
        "hand": "left"
      },
      {
        "midi": 56,
        "time": 394.5,
        "duration": 0.25,
        "velocity": 0.26,
        "hand": "left"
      },
      {
        "midi": 73,
        "time": 394.5,
        "duration": 1.5,
        "velocity": 0.93,
        "hand": "right"
      },
      {
        "midi": 44,
        "time": 394.75,
        "duration": 0.25,
        "velocity": 0.09,
        "hand": "left"
      },
      {
        "midi": 65,
        "time": 394.75,
        "duration": 0.25,
        "velocity": 0.26,
        "hand": "right"
      },
      {
        "midi": 68,
        "time": 394.75,
        "duration": 0.25,
        "velocity": 0.26,
        "hand": "right"
      },
      {
        "midi": 56,
        "time": 395,
        "duration": 0.25,
        "velocity": 0.09,
        "hand": "left"
      },
      {
        "midi": 61,
        "time": 395,
        "duration": 0.25,
        "velocity": 0.26,
        "hand": "right"
      },
      {
        "midi": 49,
        "time": 395.25,
        "duration": 0.25,
        "velocity": 0.09,
        "hand": "left"
      },
      {
        "midi": 65,
        "time": 395.25,
        "duration": 0.25,
        "velocity": 0.26,
        "hand": "right"
      },
      {
        "midi": 68,
        "time": 395.25,
        "duration": 0.25,
        "velocity": 0.26,
        "hand": "right"
      },
      {
        "midi": 61,
        "time": 395.5,
        "duration": 0.25,
        "velocity": 0.26,
        "hand": "right"
      },
      {
        "midi": 61,
        "time": 395.5,
        "duration": 0.5,
        "velocity": 0.09,
        "hand": "right"
      },
      {
        "midi": 65,
        "time": 395.75,
        "duration": 0.25,
        "velocity": 0.26,
        "hand": "right"
      },
      {
        "midi": 68,
        "time": 395.75,
        "duration": 0.25,
        "velocity": 0.26,
        "hand": "right"
      },
      {
        "midi": 40,
        "time": 396,
        "duration": 0.25,
        "velocity": 0.09,
        "hand": "left"
      },
      {
        "midi": 61,
        "time": 396,
        "duration": 0.5,
        "velocity": 0.26,
        "hand": "right"
      },
      {
        "midi": 73,
        "time": 396,
        "duration": 0.5,
        "velocity": 0.93,
        "hand": "right"
      },
      {
        "midi": 52,
        "time": 396.25,
        "duration": 0.25,
        "velocity": 0.09,
        "hand": "left"
      },
      {
        "midi": 64,
        "time": 396.25,
        "duration": 0.25,
        "velocity": 0.26,
        "hand": "right"
      },
      {
        "midi": 68,
        "time": 396.25,
        "duration": 0.25,
        "velocity": 0.26,
        "hand": "right"
      },
      {
        "midi": 50,
        "time": 396.5,
        "duration": 0.25,
        "velocity": 0.09,
        "hand": "left"
      },
      {
        "midi": 56,
        "time": 396.5,
        "duration": 0.25,
        "velocity": 0.09,
        "hand": "left"
      },
      {
        "midi": 59,
        "time": 396.5,
        "duration": 0.5,
        "velocity": 0.93,
        "hand": "left"
      },
      {
        "midi": 71,
        "time": 396.5,
        "duration": 0.5,
        "velocity": 0.93,
        "hand": "right"
      },
      {
        "midi": 52,
        "time": 396.75,
        "duration": 0.25,
        "velocity": 0.09,
        "hand": "left"
      },
      {
        "midi": 64,
        "time": 396.75,
        "duration": 0.25,
        "velocity": 0.26,
        "hand": "right"
      },
      {
        "midi": 68,
        "time": 396.75,
        "duration": 0.25,
        "velocity": 0.26,
        "hand": "right"
      },
      {
        "midi": 49,
        "time": 397,
        "duration": 0.25,
        "velocity": 0.09,
        "hand": "left"
      },
      {
        "midi": 57,
        "time": 397,
        "duration": 0.5,
        "velocity": 0.93,
        "hand": "left"
      },
      {
        "midi": 69,
        "time": 397,
        "duration": 0.5,
        "velocity": 0.93,
        "hand": "right"
      },
      {
        "midi": 52,
        "time": 397.25,
        "duration": 0.25,
        "velocity": 0.09,
        "hand": "left"
      },
      {
        "midi": 64,
        "time": 397.25,
        "duration": 0.25,
        "velocity": 0.26,
        "hand": "right"
      },
      {
        "midi": 45,
        "time": 397.5,
        "duration": 0.25,
        "velocity": 0.09,
        "hand": "left"
      },
      {
        "midi": 61,
        "time": 397.5,
        "duration": 0.25,
        "velocity": 0.71,
        "hand": "right"
      },
      {
        "midi": 73,
        "time": 397.5,
        "duration": 1.5,
        "velocity": 0.93,
        "hand": "right"
      },
      {
        "midi": 52,
        "time": 397.75,
        "duration": 0.25,
        "velocity": 0.09,
        "hand": "left"
      },
      {
        "midi": 64,
        "time": 397.75,
        "duration": 0.25,
        "velocity": 0.71,
        "hand": "right"
      },
      {
        "midi": 69,
        "time": 397.75,
        "duration": 0.25,
        "velocity": 0.71,
        "hand": "right"
      },
      {
        "midi": 57,
        "time": 398,
        "duration": 0.25,
        "velocity": 0.09,
        "hand": "left"
      },
      {
        "midi": 61,
        "time": 398,
        "duration": 0.25,
        "velocity": 0.71,
        "hand": "right"
      },
      {
        "midi": 54,
        "time": 398.25,
        "duration": 0.25,
        "velocity": 0.09,
        "hand": "left"
      },
      {
        "midi": 62,
        "time": 398.25,
        "duration": 0.25,
        "velocity": 0.71,
        "hand": "right"
      },
      {
        "midi": 69,
        "time": 398.25,
        "duration": 0.25,
        "velocity": 0.71,
        "hand": "right"
      },
      {
        "midi": 52,
        "time": 398.5,
        "duration": 0.25,
        "velocity": 0.09,
        "hand": "left"
      },
      {
        "midi": 61,
        "time": 398.5,
        "duration": 0.25,
        "velocity": 0.71,
        "hand": "right"
      },
      {
        "midi": 45,
        "time": 398.75,
        "duration": 0.25,
        "velocity": 0.09,
        "hand": "left"
      },
      {
        "midi": 64,
        "time": 398.75,
        "duration": 0.25,
        "velocity": 0.71,
        "hand": "right"
      },
      {
        "midi": 69,
        "time": 398.75,
        "duration": 0.5,
        "velocity": 0.71,
        "hand": "right"
      },
      {
        "midi": 57,
        "time": 399,
        "duration": 0.25,
        "velocity": 0.71,
        "hand": "left"
      },
      {
        "midi": 61,
        "time": 399,
        "duration": 0.25,
        "velocity": 0.71,
        "hand": "right"
      },
      {
        "midi": 73,
        "time": 399,
        "duration": 2,
        "velocity": 0.93,
        "hand": "right"
      },
      {
        "midi": 54,
        "time": 399.25,
        "duration": 0.25,
        "velocity": 0.71,
        "hand": "left"
      },
      {
        "midi": 62,
        "time": 399.25,
        "duration": 0.25,
        "velocity": 0.71,
        "hand": "right"
      },
      {
        "midi": 69,
        "time": 399.25,
        "duration": 0.5,
        "velocity": 0.71,
        "hand": "right"
      },
      {
        "midi": 52,
        "time": 399.5,
        "duration": 0.25,
        "velocity": 0.71,
        "hand": "left"
      },
      {
        "midi": 61,
        "time": 399.5,
        "duration": 0.25,
        "velocity": 0.71,
        "hand": "right"
      },
      {
        "midi": 45,
        "time": 399.75,
        "duration": 1.75,
        "velocity": 0.71,
        "hand": "left"
      },
      {
        "midi": 64,
        "time": 399.75,
        "duration": 0.25,
        "velocity": 0.71,
        "hand": "right"
      },
      {
        "midi": 69,
        "time": 399.75,
        "duration": 0.5,
        "velocity": 0.71,
        "hand": "right"
      },
      {
        "midi": 57,
        "time": 400,
        "duration": 0.25,
        "velocity": 0.71,
        "hand": "left"
      },
      {
        "midi": 61,
        "time": 400,
        "duration": 0.25,
        "velocity": 0.71,
        "hand": "right"
      },
      {
        "midi": 54,
        "time": 400.25,
        "duration": 0.25,
        "velocity": 0.71,
        "hand": "left"
      },
      {
        "midi": 62,
        "time": 400.25,
        "duration": 0.25,
        "velocity": 0.71,
        "hand": "right"
      },
      {
        "midi": 69,
        "time": 400.25,
        "duration": 0.25,
        "velocity": 0.71,
        "hand": "right"
      },
      {
        "midi": 52,
        "time": 400.5,
        "duration": 1,
        "velocity": 0.71,
        "hand": "left"
      },
      {
        "midi": 61,
        "time": 400.5,
        "duration": 1.5,
        "velocity": 0.71,
        "hand": "right"
      },
      {
        "midi": 69,
        "time": 400.5,
        "duration": 0.5,
        "velocity": 0.71,
        "hand": "right"
      },
      {
        "midi": 57,
        "time": 401,
        "duration": 0.125,
        "velocity": 0.71,
        "hand": "left"
      },
      {
        "midi": 61,
        "time": 401,
        "duration": 0.125,
        "velocity": 0.71,
        "hand": "right"
      },
      {
        "midi": 64,
        "time": 401,
        "duration": 0.125,
        "velocity": 0.71,
        "hand": "right"
      },
      {
        "midi": 69,
        "time": 401,
        "duration": 0.5,
        "velocity": 0.71,
        "hand": "right"
      },
      {
        "midi": 69,
        "time": 401,
        "duration": 0.125,
        "velocity": 0.71,
        "hand": "right"
      },
      {
        "midi": 73,
        "time": 401,
        "duration": 0.25,
        "velocity": 0.71,
        "hand": "right"
      },
      {
        "midi": 76,
        "time": 401,
        "duration": 0.125,
        "velocity": 0.71,
        "hand": "right"
      },
      {
        "midi": 69,
        "time": 401.25,
        "duration": 0.125,
        "velocity": 0.71,
        "hand": "right"
      },
      {
        "midi": 73,
        "time": 401.25,
        "duration": 0.125,
        "velocity": 0.71,
        "hand": "right"
      },
      {
        "midi": 74,
        "time": 401.25,
        "duration": 0.125,
        "velocity": 0.71,
        "hand": "right"
      },
      {
        "midi": 76,
        "time": 401.25,
        "duration": 0.125,
        "velocity": 0.71,
        "hand": "right"
      },
      {
        "midi": 77,
        "time": 401.25,
        "duration": 0.125,
        "velocity": 0.71,
        "hand": "right"
      },
      {
        "midi": 79,
        "time": 401.25,
        "duration": 0.125,
        "velocity": 0.71,
        "hand": "right"
      },
      {
        "midi": 81,
        "time": 401.25,
        "duration": 0.125,
        "velocity": 0.71,
        "hand": "right"
      },
      {
        "midi": 85,
        "time": 401.25,
        "duration": 0.125,
        "velocity": 0.71,
        "hand": "right"
      },
      {
        "midi": 86,
        "time": 401.25,
        "duration": 0.125,
        "velocity": 0.71,
        "hand": "right"
      },
      {
        "midi": 88,
        "time": 401.25,
        "duration": 0.125,
        "velocity": 0.71,
        "hand": "right"
      },
      {
        "midi": 93,
        "time": 401.25,
        "duration": 0.125,
        "velocity": 0.71,
        "hand": "right"
      },
      {
        "midi": 45,
        "time": 401.5,
        "duration": 0.125,
        "velocity": 0.71,
        "hand": "left"
      },
      {
        "midi": 52,
        "time": 401.5,
        "duration": 0.125,
        "velocity": 0.71,
        "hand": "left"
      },
      {
        "midi": 57,
        "time": 401.5,
        "duration": 0.125,
        "velocity": 0.71,
        "hand": "left"
      },
      {
        "midi": 61,
        "time": 401.5,
        "duration": 0.125,
        "velocity": 0.71,
        "hand": "right"
      },
      {
        "midi": 62,
        "time": 401.5,
        "duration": 0.125,
        "velocity": 0.71,
        "hand": "right"
      },
      {
        "midi": 64,
        "time": 401.5,
        "duration": 0.125,
        "velocity": 0.71,
        "hand": "right"
      },
      {
        "midi": 65,
        "time": 401.5,
        "duration": 0.125,
        "velocity": 0.71,
        "hand": "right"
      },
      {
        "midi": 67,
        "time": 401.5,
        "duration": 0.125,
        "velocity": 0.71,
        "hand": "right"
      },
      {
        "midi": 69,
        "time": 401.5,
        "duration": 0.125,
        "velocity": 0.71,
        "hand": "right"
      },
      {
        "midi": 73,
        "time": 401.5,
        "duration": 0.125,
        "velocity": 0.71,
        "hand": "right"
      },
      {
        "midi": 73,
        "time": 401.5,
        "duration": 0.5,
        "velocity": 0.71,
        "hand": "right"
      },
      {
        "midi": 74,
        "time": 401.5,
        "duration": 0.125,
        "velocity": 0.71,
        "hand": "right"
      },
      {
        "midi": 76,
        "time": 401.5,
        "duration": 0.125,
        "velocity": 0.71,
        "hand": "right"
      },
      {
        "midi": 81,
        "time": 401.5,
        "duration": 0.125,
        "velocity": 0.71,
        "hand": "right"
      },
      {
        "midi": 45,
        "time": 401.75,
        "duration": 0.25,
        "velocity": 0.71,
        "hand": "left"
      },
      {
        "midi": 52,
        "time": 401.75,
        "duration": 0.25,
        "velocity": 0.71,
        "hand": "left"
      },
      {
        "midi": 61,
        "time": 401.75,
        "duration": 0.125,
        "velocity": 0.71,
        "hand": "right"
      },
      {
        "midi": 61,
        "time": 401.75,
        "duration": 0.25,
        "velocity": 0.71,
        "hand": "right"
      },
      {
        "midi": 62,
        "time": 401.75,
        "duration": 0.125,
        "velocity": 0.71,
        "hand": "right"
      },
      {
        "midi": 64,
        "time": 401.75,
        "duration": 0.125,
        "velocity": 0.71,
        "hand": "right"
      },
      {
        "midi": 65,
        "time": 401.75,
        "duration": 0.125,
        "velocity": 0.71,
        "hand": "right"
      },
      {
        "midi": 67,
        "time": 401.75,
        "duration": 0.125,
        "velocity": 0.71,
        "hand": "right"
      },
      {
        "midi": 69,
        "time": 401.75,
        "duration": 0.125,
        "velocity": 0.71,
        "hand": "right"
      },
      {
        "midi": 69,
        "time": 401.75,
        "duration": 0.25,
        "velocity": 0.71,
        "hand": "right"
      },
      {
        "midi": 68,
        "time": 402,
        "duration": 0.125,
        "velocity": 0.48,
        "hand": "right"
      },
      {
        "midi": 69,
        "time": 402,
        "duration": 0.125,
        "velocity": 0.48,
        "hand": "right"
      },
      {
        "midi": 70,
        "time": 402,
        "duration": 0.125,
        "velocity": 0.54,
        "hand": "right"
      },
      {
        "midi": 70,
        "time": 402.5,
        "duration": 0.5,
        "velocity": 0.48,
        "hand": "right"
      },
      {
        "midi": 74,
        "time": 403,
        "duration": 0.5,
        "velocity": 0.48,
        "hand": "right"
      },
      {
        "midi": 57,
        "time": 403.5,
        "duration": 0.5,
        "velocity": 0.71,
        "hand": "left"
      },
      {
        "midi": 73,
        "time": 403.5,
        "duration": 0.5,
        "velocity": 0.48,
        "hand": "right"
      },
      {
        "midi": 58,
        "time": 404,
        "duration": 0.5,
        "velocity": 0.71,
        "hand": "left"
      },
      {
        "midi": 67,
        "time": 404,
        "duration": 0.5,
        "velocity": 0.48,
        "hand": "right"
      },
      {
        "midi": 62,
        "time": 404.5,
        "duration": 0.5,
        "velocity": 0.71,
        "hand": "right"
      },
      {
        "midi": 70,
        "time": 404.5,
        "duration": 0.5,
        "velocity": 0.48,
        "hand": "right"
      },
      {
        "midi": 61,
        "time": 405,
        "duration": 0.5,
        "velocity": 0.71,
        "hand": "right"
      },
      {
        "midi": 69,
        "time": 405,
        "duration": 0.5,
        "velocity": 0.48,
        "hand": "right"
      },
      {
        "midi": 55,
        "time": 405.5,
        "duration": 0.5,
        "velocity": 0.71,
        "hand": "left"
      },
      {
        "midi": 70,
        "time": 405.5,
        "duration": 0.5,
        "velocity": 0.48,
        "hand": "right"
      },
      {
        "midi": 58,
        "time": 406,
        "duration": 0.5,
        "velocity": 0.71,
        "hand": "left"
      },
      {
        "midi": 74,
        "time": 406,
        "duration": 0.5,
        "velocity": 0.48,
        "hand": "right"
      },
      {
        "midi": 57,
        "time": 406.5,
        "duration": 0.5,
        "velocity": 0.71,
        "hand": "left"
      },
      {
        "midi": 73,
        "time": 406.5,
        "duration": 0.5,
        "velocity": 0.48,
        "hand": "right"
      },
      {
        "midi": 58,
        "time": 407,
        "duration": 0.5,
        "velocity": 0.71,
        "hand": "left"
      },
      {
        "midi": 67,
        "time": 407,
        "duration": 0.5,
        "velocity": 0.48,
        "hand": "right"
      },
      {
        "midi": 62,
        "time": 407.5,
        "duration": 0.5,
        "velocity": 0.71,
        "hand": "right"
      },
      {
        "midi": 70,
        "time": 407.5,
        "duration": 0.5,
        "velocity": 0.48,
        "hand": "right"
      },
      {
        "midi": 61,
        "time": 408,
        "duration": 0.5,
        "velocity": 0.71,
        "hand": "right"
      },
      {
        "midi": 60,
        "time": 408.5,
        "duration": 0.5,
        "velocity": 0.71,
        "hand": "right"
      },
      {
        "midi": 69,
        "time": 408.5,
        "duration": 0.25,
        "velocity": 0.71,
        "hand": "right"
      },
      {
        "midi": 70,
        "time": 408.75,
        "duration": 0.25,
        "velocity": 0.71,
        "hand": "right"
      },
      {
        "midi": 58,
        "time": 409,
        "duration": 1,
        "velocity": 0.71,
        "hand": "left"
      },
      {
        "midi": 67,
        "time": 409,
        "duration": 0.5,
        "velocity": 0.71,
        "hand": "right"
      },
      {
        "midi": 69,
        "time": 409,
        "duration": 0.25,
        "velocity": 0.71,
        "hand": "right"
      },
      {
        "midi": 70,
        "time": 409.25,
        "duration": 0.25,
        "velocity": 0.71,
        "hand": "right"
      },
      {
        "midi": 60,
        "time": 409.5,
        "duration": 0.5,
        "velocity": 0.71,
        "hand": "right"
      },
      {
        "midi": 72,
        "time": 409.5,
        "duration": 0.5,
        "velocity": 0.71,
        "hand": "right"
      },
      {
        "midi": 57,
        "time": 410,
        "duration": 0.5,
        "velocity": 0.71,
        "hand": "left"
      },
      {
        "midi": 62,
        "time": 410,
        "duration": 0.5,
        "velocity": 0.71,
        "hand": "right"
      },
      {
        "midi": 72,
        "time": 410,
        "duration": 0.5,
        "velocity": 0.71,
        "hand": "right"
      },
      {
        "midi": 50,
        "time": 410.5,
        "duration": 0.5,
        "velocity": 0.71,
        "hand": "left"
      },
      {
        "midi": 65,
        "time": 410.5,
        "duration": 0.5,
        "velocity": 0.71,
        "hand": "right"
      },
      {
        "midi": 72,
        "time": 410.5,
        "duration": 0.5,
        "velocity": 0.71,
        "hand": "right"
      },
      {
        "midi": 55,
        "time": 411,
        "duration": 0.5,
        "velocity": 0.71,
        "hand": "left"
      },
      {
        "midi": 58,
        "time": 411,
        "duration": 0.5,
        "velocity": 0.71,
        "hand": "left"
      },
      {
        "midi": 65,
        "time": 411,
        "duration": 1,
        "velocity": 0.71,
        "hand": "right"
      },
      {
        "midi": 72,
        "time": 411,
        "duration": 0.5,
        "velocity": 0.71,
        "hand": "right"
      },
      {
        "midi": 43,
        "time": 411.5,
        "duration": 0.5,
        "velocity": 0.71,
        "hand": "left"
      },
      {
        "midi": 62,
        "time": 411.5,
        "duration": 0.5,
        "velocity": 0.71,
        "hand": "right"
      },
      {
        "midi": 70,
        "time": 411.5,
        "duration": 0.25,
        "velocity": 0.71,
        "hand": "right"
      },
      {
        "midi": 69,
        "time": 411.75,
        "duration": 0.25,
        "velocity": 0.71,
        "hand": "right"
      },
      {
        "midi": 48,
        "time": 412,
        "duration": 1,
        "velocity": 0.71,
        "hand": "left"
      },
      {
        "midi": 58,
        "time": 412,
        "duration": 0.5,
        "velocity": 0.71,
        "hand": "left"
      },
      {
        "midi": 64,
        "time": 412,
        "duration": 0.5,
        "velocity": 0.71,
        "hand": "right"
      },
      {
        "midi": 67,
        "time": 412,
        "duration": 0.25,
        "velocity": 0.71,
        "hand": "right"
      },
      {
        "midi": 69,
        "time": 412.25,
        "duration": 0.25,
        "velocity": 0.71,
        "hand": "right"
      },
      {
        "midi": 41,
        "time": 412.5,
        "duration": 0.5,
        "velocity": 0.71,
        "hand": "left"
      },
      {
        "midi": 57,
        "time": 412.5,
        "duration": 0.5,
        "velocity": 0.71,
        "hand": "left"
      },
      {
        "midi": 65,
        "time": 412.5,
        "duration": 0.5,
        "velocity": 0.71,
        "hand": "right"
      },
      {
        "midi": 49,
        "time": 413,
        "duration": 0.5,
        "velocity": 0.71,
        "hand": "left"
      },
      {
        "midi": 53,
        "time": 413.5,
        "duration": 0.5,
        "velocity": 0.71,
        "hand": "left"
      },
      {
        "midi": 52,
        "time": 414,
        "duration": 0.5,
        "velocity": 0.71,
        "hand": "left"
      },
      {
        "midi": 60,
        "time": 414,
        "duration": 0.5,
        "velocity": 0.71,
        "hand": "right"
      },
      {
        "midi": 46,
        "time": 414.5,
        "duration": 0.5,
        "velocity": 0.71,
        "hand": "left"
      },
      {
        "midi": 61,
        "time": 414.5,
        "duration": 0.5,
        "velocity": 0.71,
        "hand": "right"
      },
      {
        "midi": 49,
        "time": 415,
        "duration": 0.5,
        "velocity": 0.71,
        "hand": "left"
      },
      {
        "midi": 65,
        "time": 415,
        "duration": 0.5,
        "velocity": 0.71,
        "hand": "right"
      },
      {
        "midi": 48,
        "time": 415.5,
        "duration": 0.5,
        "velocity": 0.71,
        "hand": "left"
      },
      {
        "midi": 64,
        "time": 415.5,
        "duration": 0.5,
        "velocity": 0.71,
        "hand": "right"
      },
      {
        "midi": 72,
        "time": 415.5,
        "duration": 0.5,
        "velocity": 0.71,
        "hand": "right"
      },
      {
        "midi": 58,
        "time": 416,
        "duration": 0.5,
        "velocity": 0.71,
        "hand": "left"
      },
      {
        "midi": 73,
        "time": 416,
        "duration": 0.5,
        "velocity": 0.71,
        "hand": "right"
      },
      {
        "midi": 61,
        "time": 416.5,
        "duration": 0.5,
        "velocity": 0.71,
        "hand": "right"
      },
      {
        "midi": 77,
        "time": 416.5,
        "duration": 0.5,
        "velocity": 0.71,
        "hand": "right"
      },
      {
        "midi": 60,
        "time": 417,
        "duration": 0.5,
        "velocity": 0.71,
        "hand": "right"
      },
      {
        "midi": 76,
        "time": 417,
        "duration": 0.5,
        "velocity": 0.71,
        "hand": "right"
      },
      {
        "midi": 61,
        "time": 417.5,
        "duration": 0.5,
        "velocity": 0.71,
        "hand": "right"
      },
      {
        "midi": 70,
        "time": 417.5,
        "duration": 0.5,
        "velocity": 0.71,
        "hand": "right"
      },
      {
        "midi": 65,
        "time": 418,
        "duration": 0.5,
        "velocity": 0.71,
        "hand": "right"
      },
      {
        "midi": 73,
        "time": 418,
        "duration": 0.5,
        "velocity": 0.71,
        "hand": "right"
      },
      {
        "midi": 64,
        "time": 418.5,
        "duration": 0.5,
        "velocity": 0.71,
        "hand": "right"
      },
      {
        "midi": 63,
        "time": 419,
        "duration": 0.5,
        "velocity": 0.71,
        "hand": "right"
      },
      {
        "midi": 72,
        "time": 419,
        "duration": 0.25,
        "velocity": 0.71,
        "hand": "right"
      },
      {
        "midi": 73,
        "time": 419.25,
        "duration": 0.25,
        "velocity": 0.71,
        "hand": "right"
      },
      {
        "midi": 61,
        "time": 419.5,
        "duration": 1,
        "velocity": 0.71,
        "hand": "right"
      },
      {
        "midi": 70,
        "time": 419.5,
        "duration": 0.5,
        "velocity": 0.71,
        "hand": "right"
      },
      {
        "midi": 72,
        "time": 419.5,
        "duration": 0.25,
        "velocity": 0.71,
        "hand": "right"
      },
      {
        "midi": 73,
        "time": 419.75,
        "duration": 0.25,
        "velocity": 0.71,
        "hand": "right"
      },
      {
        "midi": 63,
        "time": 420,
        "duration": 0.5,
        "velocity": 0.71,
        "hand": "right"
      },
      {
        "midi": 75,
        "time": 420,
        "duration": 0.5,
        "velocity": 0.71,
        "hand": "right"
      },
      {
        "midi": 60,
        "time": 420.5,
        "duration": 0.5,
        "velocity": 0.71,
        "hand": "right"
      },
      {
        "midi": 65,
        "time": 420.5,
        "duration": 0.5,
        "velocity": 0.71,
        "hand": "right"
      },
      {
        "midi": 75,
        "time": 420.5,
        "duration": 0.5,
        "velocity": 0.71,
        "hand": "right"
      },
      {
        "midi": 53,
        "time": 421,
        "duration": 0.5,
        "velocity": 0.71,
        "hand": "left"
      },
      {
        "midi": 68,
        "time": 421,
        "duration": 0.5,
        "velocity": 0.71,
        "hand": "right"
      },
      {
        "midi": 75,
        "time": 421,
        "duration": 0.5,
        "velocity": 0.71,
        "hand": "right"
      },
      {
        "midi": 58,
        "time": 421.5,
        "duration": 0.5,
        "velocity": 0.71,
        "hand": "left"
      },
      {
        "midi": 61,
        "time": 421.5,
        "duration": 0.5,
        "velocity": 0.71,
        "hand": "right"
      },
      {
        "midi": 68,
        "time": 421.5,
        "duration": 1,
        "velocity": 0.71,
        "hand": "right"
      },
      {
        "midi": 75,
        "time": 421.5,
        "duration": 0.5,
        "velocity": 0.71,
        "hand": "right"
      },
      {
        "midi": 46,
        "time": 422,
        "duration": 0.5,
        "velocity": 0.71,
        "hand": "left"
      },
      {
        "midi": 65,
        "time": 422,
        "duration": 0.5,
        "velocity": 0.71,
        "hand": "right"
      },
      {
        "midi": 73,
        "time": 422,
        "duration": 0.25,
        "velocity": 0.71,
        "hand": "right"
      },
      {
        "midi": 72,
        "time": 422.25,
        "duration": 0.25,
        "velocity": 0.71,
        "hand": "right"
      },
      {
        "midi": 51,
        "time": 422.5,
        "duration": 1,
        "velocity": 0.71,
        "hand": "left"
      },
      {
        "midi": 61,
        "time": 422.5,
        "duration": 0.5,
        "velocity": 0.71,
        "hand": "right"
      },
      {
        "midi": 67,
        "time": 422.5,
        "duration": 0.5,
        "velocity": 0.71,
        "hand": "right"
      },
      {
        "midi": 70,
        "time": 422.5,
        "duration": 0.25,
        "velocity": 0.71,
        "hand": "right"
      },
      {
        "midi": 72,
        "time": 422.75,
        "duration": 0.25,
        "velocity": 0.71,
        "hand": "right"
      },
      {
        "midi": 44,
        "time": 423,
        "duration": 0.5,
        "velocity": 0.71,
        "hand": "left"
      },
      {
        "midi": 60,
        "time": 423,
        "duration": 0.5,
        "velocity": 0.71,
        "hand": "right"
      },
      {
        "midi": 68,
        "time": 423,
        "duration": 0.5,
        "velocity": 0.71,
        "hand": "right"
      },
      {
        "midi": 52,
        "time": 423.5,
        "duration": 0.5,
        "velocity": 0.71,
        "hand": "left"
      },
      {
        "midi": 56,
        "time": 424,
        "duration": 0.5,
        "velocity": 0.71,
        "hand": "left"
      },
      {
        "midi": 55,
        "time": 424.5,
        "duration": 0.5,
        "velocity": 0.71,
        "hand": "left"
      },
      {
        "midi": 63,
        "time": 424.5,
        "duration": 0.5,
        "velocity": 0.71,
        "hand": "right"
      },
      {
        "midi": 49,
        "time": 425,
        "duration": 0.5,
        "velocity": 0.71,
        "hand": "left"
      },
      {
        "midi": 64,
        "time": 425,
        "duration": 0.5,
        "velocity": 0.71,
        "hand": "right"
      },
      {
        "midi": 52,
        "time": 425.5,
        "duration": 0.5,
        "velocity": 0.71,
        "hand": "left"
      },
      {
        "midi": 68,
        "time": 425.5,
        "duration": 0.5,
        "velocity": 0.71,
        "hand": "right"
      },
      {
        "midi": 51,
        "time": 426,
        "duration": 0.5,
        "velocity": 0.71,
        "hand": "left"
      },
      {
        "midi": 67,
        "time": 426,
        "duration": 0.5,
        "velocity": 0.71,
        "hand": "right"
      },
      {
        "midi": 75,
        "time": 426,
        "duration": 0.5,
        "velocity": 0.71,
        "hand": "right"
      },
      {
        "midi": 68,
        "time": 426.5,
        "duration": 0.5,
        "velocity": 0.71,
        "hand": "right"
      },
      {
        "midi": 76,
        "time": 426.5,
        "duration": 0.5,
        "velocity": 0.71,
        "hand": "right"
      },
      {
        "midi": 62,
        "time": 427,
        "duration": 0.5,
        "velocity": 0.71,
        "hand": "right"
      },
      {
        "midi": 71,
        "time": 427,
        "duration": 0.5,
        "velocity": 0.71,
        "hand": "right"
      },
      {
        "midi": 80,
        "time": 427,
        "duration": 0.5,
        "velocity": 0.71,
        "hand": "right"
      },
      {
        "midi": 63,
        "time": 427.5,
        "duration": 0.5,
        "velocity": 0.71,
        "hand": "right"
      },
      {
        "midi": 70,
        "time": 427.5,
        "duration": 0.5,
        "velocity": 0.71,
        "hand": "right"
      },
      {
        "midi": 79,
        "time": 427.5,
        "duration": 0.5,
        "velocity": 0.71,
        "hand": "right"
      },
      {
        "midi": 64,
        "time": 428,
        "duration": 0.5,
        "velocity": 0.71,
        "hand": "right"
      },
      {
        "midi": 69,
        "time": 428,
        "duration": 0.5,
        "velocity": 0.71,
        "hand": "right"
      },
      {
        "midi": 73,
        "time": 428,
        "duration": 0.5,
        "velocity": 0.71,
        "hand": "right"
      },
      {
        "midi": 68,
        "time": 428.5,
        "duration": 0.5,
        "velocity": 0.71,
        "hand": "right"
      },
      {
        "midi": 76,
        "time": 428.5,
        "duration": 0.5,
        "velocity": 0.71,
        "hand": "right"
      },
      {
        "midi": 67,
        "time": 429,
        "duration": 0.5,
        "velocity": 0.71,
        "hand": "right"
      },
      {
        "midi": 66,
        "time": 429.5,
        "duration": 0.5,
        "velocity": 0.71,
        "hand": "right"
      },
      {
        "midi": 75,
        "time": 429.5,
        "duration": 0.25,
        "velocity": 0.71,
        "hand": "right"
      },
      {
        "midi": 76,
        "time": 429.75,
        "duration": 0.25,
        "velocity": 0.71,
        "hand": "right"
      },
      {
        "midi": 64,
        "time": 430,
        "duration": 0.5,
        "velocity": 0.71,
        "hand": "right"
      },
      {
        "midi": 73,
        "time": 430,
        "duration": 0.5,
        "velocity": 0.71,
        "hand": "right"
      },
      {
        "midi": 75,
        "time": 430,
        "duration": 0.25,
        "velocity": 0.71,
        "hand": "right"
      },
      {
        "midi": 76,
        "time": 430.25,
        "duration": 0.25,
        "velocity": 0.71,
        "hand": "right"
      },
      {
        "midi": 63,
        "time": 430.5,
        "duration": 0.5,
        "velocity": 0.71,
        "hand": "right"
      },
      {
        "midi": 66,
        "time": 430.5,
        "duration": 0.5,
        "velocity": 0.71,
        "hand": "right"
      },
      {
        "midi": 78,
        "time": 430.5,
        "duration": 0.5,
        "velocity": 0.71,
        "hand": "right"
      },
      {
        "midi": 62,
        "time": 431,
        "duration": 0.5,
        "velocity": 0.71,
        "hand": "right"
      },
      {
        "midi": 66,
        "time": 431,
        "duration": 0.5,
        "velocity": 0.71,
        "hand": "right"
      },
      {
        "midi": 71,
        "time": 431,
        "duration": 0.5,
        "velocity": 0.71,
        "hand": "right"
      },
      {
        "midi": 78,
        "time": 431,
        "duration": 0.5,
        "velocity": 0.71,
        "hand": "right"
      },
      {
        "midi": 61,
        "time": 431.5,
        "duration": 0.5,
        "velocity": 0.71,
        "hand": "right"
      },
      {
        "midi": 64,
        "time": 431.5,
        "duration": 0.5,
        "velocity": 0.71,
        "hand": "right"
      },
      {
        "midi": 70,
        "time": 431.5,
        "duration": 0.5,
        "velocity": 0.71,
        "hand": "right"
      },
      {
        "midi": 78,
        "time": 431.5,
        "duration": 0.5,
        "velocity": 0.71,
        "hand": "right"
      },
      {
        "midi": 60,
        "time": 432,
        "duration": 0.5,
        "velocity": 0.71,
        "hand": "right"
      },
      {
        "midi": 63,
        "time": 432,
        "duration": 0.5,
        "velocity": 0.71,
        "hand": "right"
      },
      {
        "midi": 69,
        "time": 432,
        "duration": 1.5,
        "velocity": 0.71,
        "hand": "right"
      },
      {
        "midi": 78,
        "time": 432,
        "duration": 0.5,
        "velocity": 0.71,
        "hand": "right"
      },
      {
        "midi": 53,
        "time": 432.5,
        "duration": 0.5,
        "velocity": 0.71,
        "hand": "left"
      },
      {
        "midi": 77,
        "time": 432.5,
        "duration": 0.25,
        "velocity": 0.71,
        "hand": "right"
      },
      {
        "midi": 72,
        "time": 432.75,
        "duration": 0.25,
        "velocity": 0.71,
        "hand": "right"
      },
      {
        "midi": 65,
        "time": 433,
        "duration": 0.5,
        "velocity": 0.71,
        "hand": "right"
      },
      {
        "midi": 75,
        "time": 433,
        "duration": 0.25,
        "velocity": 0.71,
        "hand": "right"
      },
      {
        "midi": 73,
        "time": 433.25,
        "duration": 0.25,
        "velocity": 0.71,
        "hand": "right"
      },
      {
        "midi": 46,
        "time": 433.5,
        "duration": 0.5,
        "velocity": 0.71,
        "hand": "left"
      },
      {
        "midi": 70,
        "time": 433.5,
        "duration": 0.5,
        "velocity": 0.71,
        "hand": "right"
      },
      {
        "midi": 53,
        "time": 434,
        "duration": 0.5,
        "velocity": 0.71,
        "hand": "left"
      },
      {
        "midi": 61,
        "time": 434,
        "duration": 0.5,
        "velocity": 0.71,
        "hand": "right"
      },
      {
        "midi": 44,
        "time": 434.5,
        "duration": 0.5,
        "velocity": 0.71,
        "hand": "left"
      },
      {
        "midi": 42,
        "time": 435,
        "duration": 0.5,
        "velocity": 0.71,
        "hand": "left"
      },
      {
        "midi": 49,
        "time": 435.5,
        "duration": 0.5,
        "velocity": 0.71,
        "hand": "left"
      },
      {
        "midi": 54,
        "time": 435.5,
        "duration": 0.5,
        "velocity": 0.71,
        "hand": "left"
      },
      {
        "midi": 58,
        "time": 435.5,
        "duration": 0.5,
        "velocity": 0.71,
        "hand": "left"
      },
      {
        "midi": 73,
        "time": 435.5,
        "duration": 0.25,
        "velocity": 0.71,
        "hand": "right"
      },
      {
        "midi": 75,
        "time": 435.75,
        "duration": 0.25,
        "velocity": 0.71,
        "hand": "right"
      },
      {
        "midi": 54,
        "time": 436,
        "duration": 0.5,
        "velocity": 0.71,
        "hand": "left"
      },
      {
        "midi": 58,
        "time": 436,
        "duration": 0.5,
        "velocity": 0.71,
        "hand": "left"
      },
      {
        "midi": 61,
        "time": 436,
        "duration": 0.5,
        "velocity": 0.71,
        "hand": "right"
      },
      {
        "midi": 73,
        "time": 436,
        "duration": 0.25,
        "velocity": 0.71,
        "hand": "right"
      },
      {
        "midi": 75,
        "time": 436.25,
        "duration": 0.25,
        "velocity": 0.71,
        "hand": "right"
      },
      {
        "midi": 37,
        "time": 436.5,
        "duration": 0.5,
        "velocity": 0.71,
        "hand": "left"
      },
      {
        "midi": 77,
        "time": 436.5,
        "duration": 0.5,
        "velocity": 0.71,
        "hand": "right"
      },
      {
        "midi": 53,
        "time": 437,
        "duration": 0.5,
        "velocity": 0.71,
        "hand": "left"
      },
      {
        "midi": 56,
        "time": 437,
        "duration": 0.5,
        "velocity": 0.71,
        "hand": "left"
      },
      {
        "midi": 61,
        "time": 437,
        "duration": 0.5,
        "velocity": 0.71,
        "hand": "right"
      },
      {
        "midi": 77,
        "time": 437,
        "duration": 0.5,
        "velocity": 0.71,
        "hand": "right"
      },
      {
        "midi": 56,
        "time": 437.5,
        "duration": 0.5,
        "velocity": 0.71,
        "hand": "left"
      },
      {
        "midi": 61,
        "time": 437.5,
        "duration": 0.5,
        "velocity": 0.71,
        "hand": "right"
      },
      {
        "midi": 65,
        "time": 437.5,
        "duration": 0.5,
        "velocity": 0.71,
        "hand": "right"
      },
      {
        "midi": 77,
        "time": 437.5,
        "duration": 0.5,
        "velocity": 0.71,
        "hand": "right"
      },
      {
        "midi": 39,
        "time": 438,
        "duration": 0.5,
        "velocity": 0.71,
        "hand": "left"
      },
      {
        "midi": 77,
        "time": 438,
        "duration": 0.5,
        "velocity": 0.71,
        "hand": "right"
      },
      {
        "midi": 51,
        "time": 438.5,
        "duration": 0.5,
        "velocity": 0.71,
        "hand": "left"
      },
      {
        "midi": 58,
        "time": 438.5,
        "duration": 0.5,
        "velocity": 0.71,
        "hand": "left"
      },
      {
        "midi": 60,
        "time": 438.5,
        "duration": 0.5,
        "velocity": 0.71,
        "hand": "right"
      },
      {
        "midi": 75,
        "time": 438.5,
        "duration": 0.25,
        "velocity": 0.71,
        "hand": "right"
      },
      {
        "midi": 70,
        "time": 438.75,
        "duration": 0.25,
        "velocity": 0.71,
        "hand": "right"
      },
      {
        "midi": 58,
        "time": 439,
        "duration": 0.5,
        "velocity": 0.71,
        "hand": "left"
      },
      {
        "midi": 60,
        "time": 439,
        "duration": 0.5,
        "velocity": 0.71,
        "hand": "right"
      },
      {
        "midi": 66,
        "time": 439,
        "duration": 0.5,
        "velocity": 0.71,
        "hand": "right"
      },
      {
        "midi": 73,
        "time": 439,
        "duration": 0.25,
        "velocity": 0.71,
        "hand": "right"
      },
      {
        "midi": 72,
        "time": 439.25,
        "duration": 0.25,
        "velocity": 0.71,
        "hand": "right"
      },
      {
        "midi": 41,
        "time": 439.5,
        "duration": 0.5,
        "velocity": 0.71,
        "hand": "left"
      },
      {
        "midi": 69,
        "time": 439.5,
        "duration": 0.5,
        "velocity": 0.71,
        "hand": "right"
      },
      {
        "midi": 60,
        "time": 440,
        "duration": 0.5,
        "velocity": 0.71,
        "hand": "right"
      },
      {
        "midi": 65,
        "time": 440,
        "duration": 0.5,
        "velocity": 0.71,
        "hand": "right"
      },
      {
        "midi": 69,
        "time": 440,
        "duration": 0.5,
        "velocity": 0.71,
        "hand": "right"
      },
      {
        "midi": 72,
        "time": 440,
        "duration": 0.5,
        "velocity": 0.71,
        "hand": "right"
      },
      {
        "midi": 57,
        "time": 440.5,
        "duration": 0.5,
        "velocity": 0.71,
        "hand": "left"
      },
      {
        "midi": 60,
        "time": 440.5,
        "duration": 0.5,
        "velocity": 0.71,
        "hand": "right"
      },
      {
        "midi": 65,
        "time": 440.5,
        "duration": 0.5,
        "velocity": 0.71,
        "hand": "right"
      },
      {
        "midi": 77,
        "time": 440.5,
        "duration": 0.5,
        "velocity": 0.71,
        "hand": "right"
      },
      {
        "midi": 53,
        "time": 441,
        "duration": 0.5,
        "velocity": 0.71,
        "hand": "left"
      },
      {
        "midi": 76,
        "time": 441,
        "duration": 0.5,
        "velocity": 0.71,
        "hand": "right"
      },
      {
        "midi": 61,
        "time": 441.5,
        "duration": 0.5,
        "velocity": 0.71,
        "hand": "right"
      },
      {
        "midi": 64,
        "time": 441.5,
        "duration": 0.5,
        "velocity": 0.71,
        "hand": "right"
      },
      {
        "midi": 67,
        "time": 441.5,
        "duration": 0.5,
        "velocity": 0.71,
        "hand": "right"
      },
      {
        "midi": 70,
        "time": 441.5,
        "duration": 0.5,
        "velocity": 0.71,
        "hand": "right"
      },
      {
        "midi": 58,
        "time": 442,
        "duration": 0.5,
        "velocity": 0.71,
        "hand": "left"
      },
      {
        "midi": 61,
        "time": 442,
        "duration": 0.5,
        "velocity": 0.71,
        "hand": "right"
      },
      {
        "midi": 64,
        "time": 442,
        "duration": 0.5,
        "velocity": 0.71,
        "hand": "right"
      },
      {
        "midi": 73,
        "time": 442,
        "duration": 0.5,
        "velocity": 0.71,
        "hand": "right"
      },
      {
        "midi": 41,
        "time": 442.5,
        "duration": 0.5,
        "velocity": 0.71,
        "hand": "left"
      },
      {
        "midi": 60,
        "time": 443,
        "duration": 0.5,
        "velocity": 0.71,
        "hand": "right"
      },
      {
        "midi": 65,
        "time": 443,
        "duration": 0.5,
        "velocity": 0.71,
        "hand": "right"
      },
      {
        "midi": 69,
        "time": 443,
        "duration": 0.5,
        "velocity": 0.71,
        "hand": "right"
      },
      {
        "midi": 72,
        "time": 443,
        "duration": 0.5,
        "velocity": 0.71,
        "hand": "right"
      },
      {
        "midi": 57,
        "time": 443.5,
        "duration": 0.5,
        "velocity": 0.71,
        "hand": "left"
      },
      {
        "midi": 60,
        "time": 443.5,
        "duration": 0.5,
        "velocity": 0.71,
        "hand": "right"
      },
      {
        "midi": 65,
        "time": 443.5,
        "duration": 0.5,
        "velocity": 0.71,
        "hand": "right"
      },
      {
        "midi": 77,
        "time": 443.5,
        "duration": 0.75,
        "velocity": 0.71,
        "hand": "right"
      },
      {
        "midi": 53,
        "time": 444,
        "duration": 0.5,
        "velocity": 0.71,
        "hand": "left"
      },
      {
        "midi": 76,
        "time": 444.25,
        "duration": 0.25,
        "velocity": 0.71,
        "hand": "right"
      },
      {
        "midi": 61,
        "time": 444.5,
        "duration": 0.5,
        "velocity": 0.71,
        "hand": "right"
      },
      {
        "midi": 64,
        "time": 444.5,
        "duration": 0.5,
        "velocity": 0.71,
        "hand": "right"
      },
      {
        "midi": 67,
        "time": 444.5,
        "duration": 0.5,
        "velocity": 0.71,
        "hand": "right"
      },
      {
        "midi": 70,
        "time": 444.5,
        "duration": 0.25,
        "velocity": 0.71,
        "hand": "right"
      },
      {
        "midi": 72,
        "time": 444.75,
        "duration": 0.25,
        "velocity": 0.71,
        "hand": "right"
      },
      {
        "midi": 58,
        "time": 445,
        "duration": 0.5,
        "velocity": 0.71,
        "hand": "left"
      },
      {
        "midi": 61,
        "time": 445,
        "duration": 0.5,
        "velocity": 0.71,
        "hand": "right"
      },
      {
        "midi": 64,
        "time": 445,
        "duration": 0.5,
        "velocity": 0.71,
        "hand": "right"
      },
      {
        "midi": 75,
        "time": 445,
        "duration": 0.25,
        "velocity": 0.71,
        "hand": "right"
      },
      {
        "midi": 73,
        "time": 445.25,
        "duration": 0.25,
        "velocity": 0.71,
        "hand": "right"
      },
      {
        "midi": 41,
        "time": 445.5,
        "duration": 0.5,
        "velocity": 0.71,
        "hand": "left"
      },
      {
        "midi": 60,
        "time": 446,
        "duration": 0.5,
        "velocity": 0.71,
        "hand": "right"
      },
      {
        "midi": 63,
        "time": 446,
        "duration": 0.5,
        "velocity": 0.71,
        "hand": "right"
      },
      {
        "midi": 66,
        "time": 446,
        "duration": 0.5,
        "velocity": 0.71,
        "hand": "right"
      },
      {
        "midi": 72,
        "time": 446,
        "duration": 0.25,
        "velocity": 0.71,
        "hand": "right"
      },
      {
        "midi": 73,
        "time": 446.25,
        "duration": 0.25,
        "velocity": 0.71,
        "hand": "right"
      },
      {
        "midi": 54,
        "time": 446.5,
        "duration": 0.5,
        "velocity": 0.71,
        "hand": "left"
      },
      {
        "midi": 58,
        "time": 446.5,
        "duration": 0.5,
        "velocity": 0.71,
        "hand": "left"
      },
      {
        "midi": 63,
        "time": 446.5,
        "duration": 0.5,
        "velocity": 0.71,
        "hand": "right"
      },
      {
        "midi": 72,
        "time": 446.5,
        "duration": 0.25,
        "velocity": 0.71,
        "hand": "right"
      },
      {
        "midi": 73,
        "time": 446.75,
        "duration": 0.25,
        "velocity": 0.71,
        "hand": "right"
      },
      {
        "midi": 53,
        "time": 447,
        "duration": 0.5,
        "velocity": 0.71,
        "hand": "left"
      },
      {
        "midi": 75,
        "time": 447,
        "duration": 0.5,
        "velocity": 0.71,
        "hand": "right"
      },
      {
        "midi": 63,
        "time": 447.5,
        "duration": 0.5,
        "velocity": 0.71,
        "hand": "right"
      },
      {
        "midi": 66,
        "time": 447.5,
        "duration": 0.5,
        "velocity": 0.71,
        "hand": "right"
      },
      {
        "midi": 70,
        "time": 447.5,
        "duration": 0.5,
        "velocity": 0.71,
        "hand": "right"
      },
      {
        "midi": 75,
        "time": 447.5,
        "duration": 0.5,
        "velocity": 0.71,
        "hand": "right"
      },
      {
        "midi": 60,
        "time": 448,
        "duration": 0.5,
        "velocity": 0.71,
        "hand": "right"
      },
      {
        "midi": 63,
        "time": 448,
        "duration": 0.5,
        "velocity": 0.71,
        "hand": "right"
      },
      {
        "midi": 66,
        "time": 448,
        "duration": 0.5,
        "velocity": 0.71,
        "hand": "right"
      },
      {
        "midi": 75,
        "time": 448,
        "duration": 0.5,
        "velocity": 0.71,
        "hand": "right"
      },
      {
        "midi": 41,
        "time": 448.5,
        "duration": 0.5,
        "velocity": 0.71,
        "hand": "left"
      },
      {
        "midi": 75,
        "time": 448.5,
        "duration": 0.5,
        "velocity": 0.71,
        "hand": "right"
      },
      {
        "midi": 63,
        "time": 449,
        "duration": 0.5,
        "velocity": 0.71,
        "hand": "right"
      },
      {
        "midi": 69,
        "time": 449,
        "duration": 0.5,
        "velocity": 0.71,
        "hand": "right"
      },
      {
        "midi": 77,
        "time": 449,
        "duration": 0.25,
        "velocity": 0.71,
        "hand": "right"
      },
      {
        "midi": 72,
        "time": 449.25,
        "duration": 0.25,
        "velocity": 0.71,
        "hand": "right"
      },
      {
        "midi": 57,
        "time": 449.5,
        "duration": 0.5,
        "velocity": 0.71,
        "hand": "left"
      },
      {
        "midi": 63,
        "time": 449.5,
        "duration": 0.5,
        "velocity": 0.71,
        "hand": "right"
      },
      {
        "midi": 65,
        "time": 449.5,
        "duration": 0.5,
        "velocity": 0.71,
        "hand": "right"
      },
      {
        "midi": 75,
        "time": 449.5,
        "duration": 0.25,
        "velocity": 0.71,
        "hand": "right"
      },
      {
        "midi": 73,
        "time": 449.75,
        "duration": 0.25,
        "velocity": 0.71,
        "hand": "right"
      },
      {
        "midi": 46,
        "time": 450,
        "duration": 0.5,
        "velocity": 0.71,
        "hand": "left"
      },
      {
        "midi": 70,
        "time": 450,
        "duration": 1.5,
        "velocity": 0.71,
        "hand": "right"
      },
      {
        "midi": 58,
        "time": 450.5,
        "duration": 0.5,
        "velocity": 0.71,
        "hand": "left"
      },
      {
        "midi": 61,
        "time": 450.5,
        "duration": 0.5,
        "velocity": 0.71,
        "hand": "right"
      },
      {
        "midi": 65,
        "time": 450.5,
        "duration": 0.5,
        "velocity": 0.71,
        "hand": "right"
      },
      {
        "midi": 53,
        "time": 451,
        "duration": 0.5,
        "velocity": 0.71,
        "hand": "left"
      },
      {
        "midi": 58,
        "time": 451,
        "duration": 0.5,
        "velocity": 0.71,
        "hand": "left"
      },
      {
        "midi": 61,
        "time": 451,
        "duration": 0.5,
        "velocity": 0.71,
        "hand": "right"
      },
      {
        "midi": 48,
        "time": 451.5,
        "duration": 0.5,
        "velocity": 0.71,
        "hand": "left"
      },
      {
        "midi": 67,
        "time": 451.5,
        "duration": 1,
        "velocity": 0.71,
        "hand": "right"
      },
      {
        "midi": 58,
        "time": 452,
        "duration": 0.5,
        "velocity": 0.71,
        "hand": "left"
      },
      {
        "midi": 60,
        "time": 452,
        "duration": 0.5,
        "velocity": 0.71,
        "hand": "right"
      },
      {
        "midi": 64,
        "time": 452,
        "duration": 0.5,
        "velocity": 0.71,
        "hand": "right"
      },
      {
        "midi": 55,
        "time": 452.5,
        "duration": 0.5,
        "velocity": 0.71,
        "hand": "left"
      },
      {
        "midi": 58,
        "time": 452.5,
        "duration": 0.5,
        "velocity": 0.71,
        "hand": "left"
      },
      {
        "midi": 60,
        "time": 452.5,
        "duration": 0.5,
        "velocity": 0.71,
        "hand": "right"
      },
      {
        "midi": 41,
        "time": 453,
        "duration": 0.25,
        "velocity": 0.71,
        "hand": "left"
      },
      {
        "midi": 48,
        "time": 453.25,
        "duration": 0.25,
        "velocity": 0.71,
        "hand": "left"
      },
      {
        "midi": 56,
        "time": 453.5,
        "duration": 0.25,
        "velocity": 0.71,
        "hand": "left"
      },
      {
        "midi": 72,
        "time": 453.5,
        "duration": 0.5,
        "velocity": 0.71,
        "hand": "right"
      },
      {
        "midi": 53,
        "time": 453.75,
        "duration": 0.25,
        "velocity": 0.71,
        "hand": "left"
      },
      {
        "midi": 60,
        "time": 454,
        "duration": 0.25,
        "velocity": 0.71,
        "hand": "right"
      },
      {
        "midi": 77,
        "time": 454,
        "duration": 0.75,
        "velocity": 0.71,
        "hand": "right"
      },
      {
        "midi": 68,
        "time": 454.25,
        "duration": 0.25,
        "velocity": 0.71,
        "hand": "right"
      },
      {
        "midi": 41,
        "time": 454.5,
        "duration": 0.25,
        "velocity": 0.71,
        "hand": "left"
      },
      {
        "midi": 49,
        "time": 454.75,
        "duration": 0.25,
        "velocity": 0.71,
        "hand": "left"
      },
      {
        "midi": 76,
        "time": 454.75,
        "duration": 0.25,
        "velocity": 0.71,
        "hand": "right"
      },
      {
        "midi": 55,
        "time": 455,
        "duration": 0.25,
        "velocity": 0.71,
        "hand": "left"
      },
      {
        "midi": 69,
        "time": 455,
        "duration": 0.25,
        "velocity": 0.71,
        "hand": "right"
      },
      {
        "midi": 70,
        "time": 455,
        "duration": 0.25,
        "velocity": 0.71,
        "hand": "right"
      },
      {
        "midi": 52,
        "time": 455.25,
        "duration": 0.25,
        "velocity": 0.71,
        "hand": "left"
      },
      {
        "midi": 71,
        "time": 455.25,
        "duration": 0.25,
        "velocity": 0.71,
        "hand": "right"
      },
      {
        "midi": 58,
        "time": 455.5,
        "duration": 0.25,
        "velocity": 0.71,
        "hand": "left"
      },
      {
        "midi": 72,
        "time": 455.5,
        "duration": 0.25,
        "velocity": 0.71,
        "hand": "right"
      },
      {
        "midi": 67,
        "time": 455.75,
        "duration": 0.25,
        "velocity": 0.71,
        "hand": "right"
      },
      {
        "midi": 73,
        "time": 455.75,
        "duration": 0.25,
        "velocity": 0.71,
        "hand": "right"
      },
      {
        "midi": 75,
        "time": 455.75,
        "duration": 0.25,
        "velocity": 0.71,
        "hand": "right"
      },
      {
        "midi": 41,
        "time": 456,
        "duration": 0.25,
        "velocity": 0.71,
        "hand": "left"
      },
      {
        "midi": 48,
        "time": 456.25,
        "duration": 0.25,
        "velocity": 0.71,
        "hand": "left"
      },
      {
        "midi": 72,
        "time": 456.25,
        "duration": 0.25,
        "velocity": 0.71,
        "hand": "right"
      },
      {
        "midi": 56,
        "time": 456.5,
        "duration": 0.25,
        "velocity": 0.71,
        "hand": "left"
      },
      {
        "midi": 71,
        "time": 456.5,
        "duration": 0.25,
        "velocity": 0.71,
        "hand": "right"
      },
      {
        "midi": 73,
        "time": 456.5,
        "duration": 0.25,
        "velocity": 0.71,
        "hand": "right"
      },
      {
        "midi": 53,
        "time": 456.75,
        "duration": 0.25,
        "velocity": 0.71,
        "hand": "left"
      },
      {
        "midi": 72,
        "time": 456.75,
        "duration": 0.25,
        "velocity": 0.71,
        "hand": "right"
      },
      {
        "midi": 60,
        "time": 457,
        "duration": 0.25,
        "velocity": 0.71,
        "hand": "right"
      },
      {
        "midi": 80,
        "time": 457,
        "duration": 0.25,
        "velocity": 0.71,
        "hand": "right"
      },
      {
        "midi": 68,
        "time": 457.25,
        "duration": 0.25,
        "velocity": 0.71,
        "hand": "right"
      },
      {
        "midi": 77,
        "time": 457.25,
        "duration": 0.25,
        "velocity": 0.71,
        "hand": "right"
      },
      {
        "midi": 79,
        "time": 457.25,
        "duration": 0.25,
        "velocity": 0.71,
        "hand": "right"
      },
      {
        "midi": 41,
        "time": 457.5,
        "duration": 0.25,
        "velocity": 0.71,
        "hand": "left"
      },
      {
        "midi": 77,
        "time": 457.5,
        "duration": 0.25,
        "velocity": 0.71,
        "hand": "right"
      },
      {
        "midi": 49,
        "time": 457.75,
        "duration": 0.25,
        "velocity": 0.71,
        "hand": "left"
      },
      {
        "midi": 76,
        "time": 457.75,
        "duration": 0.25,
        "velocity": 0.71,
        "hand": "right"
      },
      {
        "midi": 55,
        "time": 458,
        "duration": 0.25,
        "velocity": 0.71,
        "hand": "left"
      },
      {
        "midi": 52,
        "time": 458.25,
        "duration": 0.25,
        "velocity": 0.71,
        "hand": "left"
      },
      {
        "midi": 69,
        "time": 458.25,
        "duration": 0.25,
        "velocity": 0.71,
        "hand": "right"
      },
      {
        "midi": 70,
        "time": 458.25,
        "duration": 0.25,
        "velocity": 0.71,
        "hand": "right"
      },
      {
        "midi": 58,
        "time": 458.5,
        "duration": 0.25,
        "velocity": 0.71,
        "hand": "left"
      },
      {
        "midi": 71,
        "time": 458.5,
        "duration": 0.25,
        "velocity": 0.71,
        "hand": "right"
      },
      {
        "midi": 72,
        "time": 458.5,
        "duration": 0.25,
        "velocity": 0.71,
        "hand": "right"
      },
      {
        "midi": 67,
        "time": 458.75,
        "duration": 0.25,
        "velocity": 0.71,
        "hand": "right"
      },
      {
        "midi": 73,
        "time": 458.75,
        "duration": 0.25,
        "velocity": 0.71,
        "hand": "right"
      },
      {
        "midi": 75,
        "time": 458.75,
        "duration": 0.25,
        "velocity": 0.71,
        "hand": "right"
      },
      {
        "midi": 41,
        "time": 459,
        "duration": 0.25,
        "velocity": 0.71,
        "hand": "left"
      },
      {
        "midi": 48,
        "time": 459.25,
        "duration": 0.25,
        "velocity": 0.71,
        "hand": "left"
      },
      {
        "midi": 56,
        "time": 459.5,
        "duration": 0.25,
        "velocity": 0.71,
        "hand": "left"
      },
      {
        "midi": 72,
        "time": 459.5,
        "duration": 0.25,
        "velocity": 0.71,
        "hand": "right"
      },
      {
        "midi": 40,
        "time": 459.75,
        "duration": 0.25,
        "velocity": 0.71,
        "hand": "left"
      },
      {
        "midi": 72,
        "time": 459.75,
        "duration": 0.25,
        "velocity": 0.71,
        "hand": "right"
      },
      {
        "midi": 73,
        "time": 459.75,
        "duration": 0.25,
        "velocity": 0.71,
        "hand": "right"
      },
      {
        "midi": 48,
        "time": 460,
        "duration": 0.25,
        "velocity": 0.71,
        "hand": "left"
      },
      {
        "midi": 71,
        "time": 460,
        "duration": 0.25,
        "velocity": 0.71,
        "hand": "right"
      },
      {
        "midi": 56,
        "time": 460.25,
        "duration": 0.25,
        "velocity": 0.71,
        "hand": "left"
      },
      {
        "midi": 72,
        "time": 460.25,
        "duration": 0.25,
        "velocity": 0.71,
        "hand": "right"
      },
      {
        "midi": 73,
        "time": 460.25,
        "duration": 0.25,
        "velocity": 0.71,
        "hand": "right"
      },
      {
        "midi": 39,
        "time": 460.5,
        "duration": 0.25,
        "velocity": 0.71,
        "hand": "left"
      },
      {
        "midi": 74,
        "time": 460.5,
        "duration": 0.25,
        "velocity": 0.71,
        "hand": "right"
      },
      {
        "midi": 48,
        "time": 460.75,
        "duration": 0.25,
        "velocity": 0.71,
        "hand": "left"
      },
      {
        "midi": 75,
        "time": 460.75,
        "duration": 0.25,
        "velocity": 0.71,
        "hand": "right"
      },
      {
        "midi": 84,
        "time": 460.75,
        "duration": 0.25,
        "velocity": 0.71,
        "hand": "right"
      },
      {
        "midi": 56,
        "time": 461,
        "duration": 0.25,
        "velocity": 0.71,
        "hand": "left"
      },
      {
        "midi": 79,
        "time": 461,
        "duration": 0.25,
        "velocity": 0.71,
        "hand": "right"
      },
      {
        "midi": 82,
        "time": 461,
        "duration": 0.25,
        "velocity": 0.71,
        "hand": "right"
      },
      {
        "midi": 51,
        "time": 461.25,
        "duration": 0.25,
        "velocity": 0.71,
        "hand": "left"
      },
      {
        "midi": 80,
        "time": 461.25,
        "duration": 0.25,
        "velocity": 0.71,
        "hand": "right"
      },
      {
        "midi": 60,
        "time": 461.5,
        "duration": 0.25,
        "velocity": 0.71,
        "hand": "right"
      },
      {
        "midi": 72,
        "time": 461.5,
        "duration": 0.25,
        "velocity": 0.71,
        "hand": "right"
      },
      {
        "midi": 73,
        "time": 461.5,
        "duration": 0.25,
        "velocity": 0.71,
        "hand": "right"
      },
      {
        "midi": 68,
        "time": 461.75,
        "duration": 0.25,
        "velocity": 0.71,
        "hand": "right"
      },
      {
        "midi": 74,
        "time": 461.75,
        "duration": 0.25,
        "velocity": 0.71,
        "hand": "right"
      },
      {
        "midi": 75,
        "time": 461.75,
        "duration": 0.25,
        "velocity": 0.71,
        "hand": "right"
      },
      {
        "midi": 39,
        "time": 462,
        "duration": 0.25,
        "velocity": 0.71,
        "hand": "left"
      },
      {
        "midi": 76,
        "time": 462,
        "duration": 0.25,
        "velocity": 0.71,
        "hand": "right"
      },
      {
        "midi": 49,
        "time": 462.25,
        "duration": 0.25,
        "velocity": 0.71,
        "hand": "left"
      },
      {
        "midi": 77,
        "time": 462.25,
        "duration": 0.25,
        "velocity": 0.71,
        "hand": "right"
      },
      {
        "midi": 79,
        "time": 462.25,
        "duration": 0.25,
        "velocity": 0.71,
        "hand": "right"
      },
      {
        "midi": 55,
        "time": 462.5,
        "duration": 0.25,
        "velocity": 0.71,
        "hand": "left"
      },
      {
        "midi": 72,
        "time": 462.5,
        "duration": 0.25,
        "velocity": 0.71,
        "hand": "right"
      },
      {
        "midi": 75,
        "time": 462.5,
        "duration": 0.25,
        "velocity": 0.71,
        "hand": "right"
      },
      {
        "midi": 51,
        "time": 462.75,
        "duration": 0.25,
        "velocity": 0.71,
        "hand": "left"
      },
      {
        "midi": 75,
        "time": 462.75,
        "duration": 0.25,
        "velocity": 0.71,
        "hand": "right"
      },
      {
        "midi": 61,
        "time": 463,
        "duration": 0.25,
        "velocity": 0.71,
        "hand": "right"
      },
      {
        "midi": 65,
        "time": 463,
        "duration": 0.25,
        "velocity": 0.71,
        "hand": "right"
      },
      {
        "midi": 73,
        "time": 463,
        "duration": 0.25,
        "velocity": 0.71,
        "hand": "right"
      },
      {
        "midi": 63,
        "time": 463.25,
        "duration": 0.25,
        "velocity": 0.71,
        "hand": "right"
      },
      {
        "midi": 67,
        "time": 463.25,
        "duration": 0.25,
        "velocity": 0.71,
        "hand": "right"
      },
      {
        "midi": 70,
        "time": 463.25,
        "duration": 0.25,
        "velocity": 0.71,
        "hand": "right"
      },
      {
        "midi": 44,
        "time": 463.5,
        "duration": 0.25,
        "velocity": 0.71,
        "hand": "left"
      },
      {
        "midi": 68,
        "time": 463.5,
        "duration": 0.5,
        "velocity": 0.71,
        "hand": "right"
      },
      {
        "midi": 51,
        "time": 463.75,
        "duration": 0.25,
        "velocity": 0.71,
        "hand": "left"
      },
      {
        "midi": 60,
        "time": 464,
        "duration": 0.25,
        "velocity": 0.71,
        "hand": "right"
      },
      {
        "midi": 51,
        "time": 464.25,
        "duration": 0.25,
        "velocity": 0.71,
        "hand": "left"
      },
      {
        "midi": 60,
        "time": 464.5,
        "duration": 0.25,
        "velocity": 0.71,
        "hand": "right"
      },
      {
        "midi": 68,
        "time": 464.75,
        "duration": 0.25,
        "velocity": 0.71,
        "hand": "right"
      },
      {
        "midi": 44,
        "time": 465,
        "duration": 0.25,
        "velocity": 0.71,
        "hand": "left"
      },
      {
        "midi": 52,
        "time": 465.25,
        "duration": 0.25,
        "velocity": 0.71,
        "hand": "left"
      },
      {
        "midi": 60,
        "time": 465.5,
        "duration": 0.25,
        "velocity": 0.71,
        "hand": "right"
      },
      {
        "midi": 52,
        "time": 465.75,
        "duration": 0.25,
        "velocity": 0.71,
        "hand": "left"
      },
      {
        "midi": 60,
        "time": 466,
        "duration": 0.25,
        "velocity": 0.71,
        "hand": "right"
      },
      {
        "midi": 68,
        "time": 466.25,
        "duration": 0.25,
        "velocity": 0.71,
        "hand": "right"
      },
      {
        "midi": 32,
        "time": 466.5,
        "duration": 0.25,
        "velocity": 0.71,
        "hand": "left"
      },
      {
        "midi": 51,
        "time": 466.75,
        "duration": 0.25,
        "velocity": 0.71,
        "hand": "left"
      },
      {
        "midi": 60,
        "time": 467,
        "duration": 0.25,
        "velocity": 0.71,
        "hand": "right"
      },
      {
        "midi": 75,
        "time": 467,
        "duration": 0.5,
        "velocity": 0.71,
        "hand": "right"
      },
      {
        "midi": 51,
        "time": 467.25,
        "duration": 0.25,
        "velocity": 0.71,
        "hand": "left"
      },
      {
        "midi": 60,
        "time": 467.5,
        "duration": 0.25,
        "velocity": 0.71,
        "hand": "right"
      },
      {
        "midi": 80,
        "time": 467.5,
        "duration": 0.75,
        "velocity": 0.71,
        "hand": "right"
      },
      {
        "midi": 68,
        "time": 467.75,
        "duration": 0.25,
        "velocity": 0.71,
        "hand": "right"
      },
      {
        "midi": 44,
        "time": 468,
        "duration": 0.25,
        "velocity": 0.71,
        "hand": "left"
      },
      {
        "midi": 52,
        "time": 468.25,
        "duration": 0.25,
        "velocity": 0.71,
        "hand": "left"
      },
      {
        "midi": 71,
        "time": 468.25,
        "duration": 0.25,
        "velocity": 0.71,
        "hand": "right"
      },
      {
        "midi": 79,
        "time": 468.25,
        "duration": 0.25,
        "velocity": 0.71,
        "hand": "right"
      },
      {
        "midi": 61,
        "time": 468.5,
        "duration": 0.25,
        "velocity": 0.71,
        "hand": "right"
      },
      {
        "midi": 72,
        "time": 468.5,
        "duration": 0.25,
        "velocity": 0.71,
        "hand": "right"
      },
      {
        "midi": 58,
        "time": 468.75,
        "duration": 0.25,
        "velocity": 0.71,
        "hand": "left"
      },
      {
        "midi": 73,
        "time": 468.75,
        "duration": 0.25,
        "velocity": 0.71,
        "hand": "right"
      },
      {
        "midi": 74,
        "time": 468.75,
        "duration": 0.25,
        "velocity": 0.71,
        "hand": "right"
      },
      {
        "midi": 67,
        "time": 469,
        "duration": 0.25,
        "velocity": 0.71,
        "hand": "right"
      },
      {
        "midi": 75,
        "time": 469,
        "duration": 0.25,
        "velocity": 0.71,
        "hand": "right"
      },
      {
        "midi": 73,
        "time": 469.25,
        "duration": 0.25,
        "velocity": 0.71,
        "hand": "right"
      },
      {
        "midi": 76,
        "time": 469.25,
        "duration": 0.25,
        "velocity": 0.71,
        "hand": "right"
      },
      {
        "midi": 78,
        "time": 469.25,
        "duration": 0.25,
        "velocity": 0.71,
        "hand": "right"
      },
      {
        "midi": 44,
        "time": 469.5,
        "duration": 0.25,
        "velocity": 0.71,
        "hand": "left"
      },
      {
        "midi": 51,
        "time": 469.75,
        "duration": 0.25,
        "velocity": 0.71,
        "hand": "left"
      },
      {
        "midi": 75,
        "time": 469.75,
        "duration": 0.25,
        "velocity": 0.71,
        "hand": "right"
      },
      {
        "midi": 60,
        "time": 470,
        "duration": 0.25,
        "velocity": 0.71,
        "hand": "right"
      },
      {
        "midi": 77,
        "time": 470,
        "duration": 0.25,
        "velocity": 0.71,
        "hand": "right"
      },
      {
        "midi": 56,
        "time": 470.25,
        "duration": 0.25,
        "velocity": 0.71,
        "hand": "left"
      },
      {
        "midi": 74,
        "time": 470.25,
        "duration": 0.25,
        "velocity": 0.71,
        "hand": "right"
      },
      {
        "midi": 75,
        "time": 470.25,
        "duration": 0.25,
        "velocity": 0.71,
        "hand": "right"
      },
      {
        "midi": 63,
        "time": 470.5,
        "duration": 0.25,
        "velocity": 0.71,
        "hand": "right"
      },
      {
        "midi": 84,
        "time": 470.5,
        "duration": 0.25,
        "velocity": 0.71,
        "hand": "right"
      },
      {
        "midi": 72,
        "time": 470.75,
        "duration": 0.25,
        "velocity": 0.71,
        "hand": "right"
      },
      {
        "midi": 81,
        "time": 470.75,
        "duration": 0.25,
        "velocity": 0.71,
        "hand": "right"
      },
      {
        "midi": 82,
        "time": 470.75,
        "duration": 0.25,
        "velocity": 0.71,
        "hand": "right"
      },
      {
        "midi": 44,
        "time": 471,
        "duration": 0.25,
        "velocity": 0.71,
        "hand": "left"
      },
      {
        "midi": 80,
        "time": 471,
        "duration": 0.25,
        "velocity": 0.71,
        "hand": "right"
      },
      {
        "midi": 52,
        "time": 471.25,
        "duration": 0.25,
        "velocity": 0.71,
        "hand": "left"
      },
      {
        "midi": 71,
        "time": 471.25,
        "duration": 0.25,
        "velocity": 0.71,
        "hand": "right"
      },
      {
        "midi": 79,
        "time": 471.25,
        "duration": 0.25,
        "velocity": 0.71,
        "hand": "right"
      },
      {
        "midi": 61,
        "time": 471.5,
        "duration": 0.25,
        "velocity": 0.71,
        "hand": "right"
      },
      {
        "midi": 72,
        "time": 471.5,
        "duration": 0.25,
        "velocity": 0.71,
        "hand": "right"
      },
      {
        "midi": 58,
        "time": 471.75,
        "duration": 0.25,
        "velocity": 0.71,
        "hand": "left"
      },
      {
        "midi": 73,
        "time": 471.75,
        "duration": 0.25,
        "velocity": 0.71,
        "hand": "right"
      },
      {
        "midi": 74,
        "time": 471.75,
        "duration": 0.25,
        "velocity": 0.71,
        "hand": "right"
      },
      {
        "midi": 67,
        "time": 472,
        "duration": 0.25,
        "velocity": 0.71,
        "hand": "right"
      },
      {
        "midi": 75,
        "time": 472,
        "duration": 0.25,
        "velocity": 0.71,
        "hand": "right"
      },
      {
        "midi": 73,
        "time": 472.25,
        "duration": 0.25,
        "velocity": 0.71,
        "hand": "right"
      },
      {
        "midi": 76,
        "time": 472.25,
        "duration": 0.25,
        "velocity": 0.71,
        "hand": "right"
      },
      {
        "midi": 78,
        "time": 472.25,
        "duration": 0.25,
        "velocity": 0.71,
        "hand": "right"
      },
      {
        "midi": 44,
        "time": 472.5,
        "duration": 0.25,
        "velocity": 0.71,
        "hand": "left"
      },
      {
        "midi": 51,
        "time": 472.75,
        "duration": 0.25,
        "velocity": 0.71,
        "hand": "left"
      },
      {
        "midi": 60,
        "time": 473,
        "duration": 0.25,
        "velocity": 0.71,
        "hand": "right"
      },
      {
        "midi": 75,
        "time": 473,
        "duration": 0.25,
        "velocity": 0.71,
        "hand": "right"
      },
      {
        "midi": 56,
        "time": 473.25,
        "duration": 0.25,
        "velocity": 0.71,
        "hand": "left"
      },
      {
        "midi": 75,
        "time": 473.25,
        "duration": 0.25,
        "velocity": 0.71,
        "hand": "right"
      },
      {
        "midi": 77,
        "time": 473.25,
        "duration": 0.25,
        "velocity": 0.71,
        "hand": "right"
      },
      {
        "midi": 63,
        "time": 473.5,
        "duration": 0.25,
        "velocity": 0.71,
        "hand": "right"
      },
      {
        "midi": 74,
        "time": 473.5,
        "duration": 0.25,
        "velocity": 0.71,
        "hand": "right"
      },
      {
        "midi": 72,
        "time": 473.75,
        "duration": 0.25,
        "velocity": 0.71,
        "hand": "right"
      },
      {
        "midi": 75,
        "time": 473.75,
        "duration": 0.25,
        "velocity": 0.71,
        "hand": "right"
      },
      {
        "midi": 77,
        "time": 473.75,
        "duration": 0.25,
        "velocity": 0.71,
        "hand": "right"
      },
      {
        "midi": 39,
        "time": 474,
        "duration": 0.25,
        "velocity": 0.71,
        "hand": "left"
      },
      {
        "midi": 78,
        "time": 474,
        "duration": 0.25,
        "velocity": 0.71,
        "hand": "right"
      },
      {
        "midi": 46,
        "time": 474.25,
        "duration": 0.25,
        "velocity": 0.71,
        "hand": "left"
      },
      {
        "midi": 89,
        "time": 474.25,
        "duration": 0.25,
        "velocity": 0.71,
        "hand": "right"
      },
      {
        "midi": 90,
        "time": 474.25,
        "duration": 0.25,
        "velocity": 0.71,
        "hand": "right"
      },
      {
        "midi": 54,
        "time": 474.5,
        "duration": 0.25,
        "velocity": 0.71,
        "hand": "left"
      },
      {
        "midi": 88,
        "time": 474.5,
        "duration": 0.25,
        "velocity": 0.71,
        "hand": "right"
      },
      {
        "midi": 51,
        "time": 474.75,
        "duration": 0.25,
        "velocity": 0.71,
        "hand": "left"
      },
      {
        "midi": 85,
        "time": 474.75,
        "duration": 0.25,
        "velocity": 0.71,
        "hand": "right"
      },
      {
        "midi": 87,
        "time": 474.75,
        "duration": 0.25,
        "velocity": 0.71,
        "hand": "right"
      },
      {
        "midi": 58,
        "time": 475,
        "duration": 0.25,
        "velocity": 0.71,
        "hand": "left"
      },
      {
        "midi": 84,
        "time": 475,
        "duration": 0.25,
        "velocity": 0.71,
        "hand": "right"
      },
      {
        "midi": 66,
        "time": 475.25,
        "duration": 0.25,
        "velocity": 0.71,
        "hand": "right"
      },
      {
        "midi": 81,
        "time": 475.25,
        "duration": 0.25,
        "velocity": 0.71,
        "hand": "right"
      },
      {
        "midi": 82,
        "time": 475.25,
        "duration": 0.25,
        "velocity": 0.71,
        "hand": "right"
      },
      {
        "midi": 41,
        "time": 475.5,
        "duration": 0.25,
        "velocity": 0.71,
        "hand": "left"
      },
      {
        "midi": 78,
        "time": 475.5,
        "duration": 0.25,
        "velocity": 0.71,
        "hand": "right"
      },
      {
        "midi": 48,
        "time": 475.75,
        "duration": 0.25,
        "velocity": 0.71,
        "hand": "left"
      },
      {
        "midi": 76,
        "time": 475.75,
        "duration": 0.25,
        "velocity": 0.71,
        "hand": "right"
      },
      {
        "midi": 77,
        "time": 475.75,
        "duration": 0.25,
        "velocity": 0.71,
        "hand": "right"
      },
      {
        "midi": 57,
        "time": 476,
        "duration": 0.25,
        "velocity": 0.71,
        "hand": "left"
      },
      {
        "midi": 75,
        "time": 476,
        "duration": 0.25,
        "velocity": 0.71,
        "hand": "right"
      },
      {
        "midi": 53,
        "time": 476.25,
        "duration": 0.25,
        "velocity": 0.71,
        "hand": "left"
      },
      {
        "midi": 71,
        "time": 476.25,
        "duration": 0.25,
        "velocity": 0.71,
        "hand": "right"
      },
      {
        "midi": 73,
        "time": 476.25,
        "duration": 0.25,
        "velocity": 0.71,
        "hand": "right"
      },
      {
        "midi": 63,
        "time": 476.5,
        "duration": 0.25,
        "velocity": 0.71,
        "hand": "right"
      },
      {
        "midi": 72,
        "time": 476.5,
        "duration": 0.25,
        "velocity": 0.71,
        "hand": "right"
      },
      {
        "midi": 69,
        "time": 476.75,
        "duration": 0.25,
        "velocity": 0.71,
        "hand": "right"
      },
      {
        "midi": 73,
        "time": 476.75,
        "duration": 0.25,
        "velocity": 0.71,
        "hand": "right"
      },
      {
        "midi": 75,
        "time": 476.75,
        "duration": 0.25,
        "velocity": 0.71,
        "hand": "right"
      },
      {
        "midi": 34,
        "time": 477,
        "duration": 0.25,
        "velocity": 0.71,
        "hand": "left"
      },
      {
        "midi": 72,
        "time": 477,
        "duration": 0.25,
        "velocity": 0.71,
        "hand": "right"
      },
      {
        "midi": 41,
        "time": 477.25,
        "duration": 0.25,
        "velocity": 0.71,
        "hand": "left"
      },
      {
        "midi": 70,
        "time": 477.25,
        "duration": 0.25,
        "velocity": 0.71,
        "hand": "right"
      },
      {
        "midi": 49,
        "time": 477.5,
        "duration": 0.25,
        "velocity": 0.71,
        "hand": "left"
      },
      {
        "midi": 46,
        "time": 477.75,
        "duration": 0.25,
        "velocity": 0.71,
        "hand": "left"
      },
      {
        "midi": 53,
        "time": 478,
        "duration": 0.25,
        "velocity": 0.71,
        "hand": "left"
      },
      {
        "midi": 61,
        "time": 478.25,
        "duration": 0.25,
        "velocity": 0.71,
        "hand": "right"
      },
      {
        "midi": 42,
        "time": 478.5,
        "duration": 0.25,
        "velocity": 0.71,
        "hand": "left"
      },
      {
        "midi": 49,
        "time": 478.75,
        "duration": 0.25,
        "velocity": 0.71,
        "hand": "left"
      },
      {
        "midi": 58,
        "time": 479,
        "duration": 0.25,
        "velocity": 0.71,
        "hand": "left"
      },
      {
        "midi": 73,
        "time": 479,
        "duration": 0.25,
        "velocity": 0.71,
        "hand": "right"
      },
      {
        "midi": 54,
        "time": 479.25,
        "duration": 0.25,
        "velocity": 0.71,
        "hand": "left"
      },
      {
        "midi": 73,
        "time": 479.25,
        "duration": 0.25,
        "velocity": 0.71,
        "hand": "right"
      },
      {
        "midi": 75,
        "time": 479.25,
        "duration": 0.25,
        "velocity": 0.71,
        "hand": "right"
      },
      {
        "midi": 61,
        "time": 479.5,
        "duration": 0.25,
        "velocity": 0.71,
        "hand": "right"
      },
      {
        "midi": 72,
        "time": 479.5,
        "duration": 0.25,
        "velocity": 0.71,
        "hand": "right"
      },
      {
        "midi": 70,
        "time": 479.75,
        "duration": 0.25,
        "velocity": 0.71,
        "hand": "right"
      },
      {
        "midi": 73,
        "time": 479.75,
        "duration": 0.25,
        "velocity": 0.71,
        "hand": "right"
      },
      {
        "midi": 75,
        "time": 479.75,
        "duration": 0.25,
        "velocity": 0.71,
        "hand": "right"
      },
      {
        "midi": 37,
        "time": 480,
        "duration": 0.25,
        "velocity": 0.71,
        "hand": "left"
      },
      {
        "midi": 77,
        "time": 480,
        "duration": 0.25,
        "velocity": 0.71,
        "hand": "right"
      },
      {
        "midi": 44,
        "time": 480.25,
        "duration": 0.25,
        "velocity": 0.71,
        "hand": "left"
      },
      {
        "midi": 84,
        "time": 480.25,
        "duration": 0.25,
        "velocity": 0.71,
        "hand": "right"
      },
      {
        "midi": 89,
        "time": 480.25,
        "duration": 0.25,
        "velocity": 0.71,
        "hand": "right"
      },
      {
        "midi": 53,
        "time": 480.5,
        "duration": 0.25,
        "velocity": 0.71,
        "hand": "left"
      },
      {
        "midi": 87,
        "time": 480.5,
        "duration": 0.25,
        "velocity": 0.71,
        "hand": "right"
      },
      {
        "midi": 49,
        "time": 480.75,
        "duration": 0.25,
        "velocity": 0.71,
        "hand": "left"
      },
      {
        "midi": 80,
        "time": 480.75,
        "duration": 0.25,
        "velocity": 0.71,
        "hand": "right"
      },
      {
        "midi": 85,
        "time": 480.75,
        "duration": 0.25,
        "velocity": 0.71,
        "hand": "right"
      },
      {
        "midi": 56,
        "time": 481,
        "duration": 0.25,
        "velocity": 0.71,
        "hand": "left"
      },
      {
        "midi": 77,
        "time": 481,
        "duration": 0.25,
        "velocity": 0.71,
        "hand": "right"
      },
      {
        "midi": 65,
        "time": 481.25,
        "duration": 0.25,
        "velocity": 0.71,
        "hand": "right"
      },
      {
        "midi": 73,
        "time": 481.25,
        "duration": 0.25,
        "velocity": 0.71,
        "hand": "right"
      },
      {
        "midi": 75,
        "time": 481.25,
        "duration": 0.25,
        "velocity": 0.71,
        "hand": "right"
      },
      {
        "midi": 39,
        "time": 481.5,
        "duration": 0.25,
        "velocity": 0.71,
        "hand": "left"
      },
      {
        "midi": 71,
        "time": 481.5,
        "duration": 0.5,
        "velocity": 0.71,
        "hand": "right"
      },
      {
        "midi": 47,
        "time": 481.75,
        "duration": 0.25,
        "velocity": 0.71,
        "hand": "left"
      },
      {
        "midi": 54,
        "time": 482,
        "duration": 0.25,
        "velocity": 0.71,
        "hand": "left"
      },
      {
        "midi": 70,
        "time": 482,
        "duration": 0.25,
        "velocity": 0.71,
        "hand": "right"
      },
      {
        "midi": 71,
        "time": 482,
        "duration": 0.25,
        "velocity": 0.71,
        "hand": "right"
      },
      {
        "midi": 40,
        "time": 482.25,
        "duration": 0.25,
        "velocity": 0.71,
        "hand": "left"
      },
      {
        "midi": 73,
        "time": 482.25,
        "duration": 0.25,
        "velocity": 0.71,
        "hand": "right"
      },
      {
        "midi": 75,
        "time": 482.25,
        "duration": 0.25,
        "velocity": 0.71,
        "hand": "right"
      },
      {
        "midi": 49,
        "time": 482.5,
        "duration": 0.25,
        "velocity": 0.71,
        "hand": "left"
      },
      {
        "midi": 69,
        "time": 482.5,
        "duration": 0.25,
        "velocity": 0.71,
        "hand": "right"
      },
      {
        "midi": 55,
        "time": 482.75,
        "duration": 0.25,
        "velocity": 0.71,
        "hand": "left"
      },
      {
        "midi": 70,
        "time": 482.75,
        "duration": 0.25,
        "velocity": 0.71,
        "hand": "right"
      },
      {
        "midi": 72,
        "time": 482.75,
        "duration": 0.25,
        "velocity": 0.71,
        "hand": "right"
      },
      {
        "midi": 41,
        "time": 483,
        "duration": 0.25,
        "velocity": 0.71,
        "hand": "left"
      },
      {
        "midi": 69,
        "time": 483,
        "duration": 0.25,
        "velocity": 0.71,
        "hand": "right"
      },
      {
        "midi": 48,
        "time": 483.25,
        "duration": 0.25,
        "velocity": 0.71,
        "hand": "left"
      },
      {
        "midi": 72,
        "time": 483.25,
        "duration": 0.25,
        "velocity": 0.71,
        "hand": "right"
      },
      {
        "midi": 76,
        "time": 483.25,
        "duration": 0.25,
        "velocity": 0.71,
        "hand": "right"
      },
      {
        "midi": 57,
        "time": 483.5,
        "duration": 0.25,
        "velocity": 0.71,
        "hand": "left"
      },
      {
        "midi": 78,
        "time": 483.5,
        "duration": 0.25,
        "velocity": 0.71,
        "hand": "right"
      },
      {
        "midi": 53,
        "time": 483.75,
        "duration": 0.25,
        "velocity": 0.71,
        "hand": "left"
      },
      {
        "midi": 77,
        "time": 483.75,
        "duration": 0.25,
        "velocity": 0.71,
        "hand": "right"
      },
      {
        "midi": 81,
        "time": 483.75,
        "duration": 0.25,
        "velocity": 0.71,
        "hand": "right"
      },
      {
        "midi": 60,
        "time": 484,
        "duration": 0.25,
        "velocity": 0.71,
        "hand": "right"
      },
      {
        "midi": 84,
        "time": 484,
        "duration": 0.25,
        "velocity": 0.71,
        "hand": "right"
      },
      {
        "midi": 69,
        "time": 484.25,
        "duration": 0.25,
        "velocity": 0.71,
        "hand": "right"
      },
      {
        "midi": 77,
        "time": 484.25,
        "duration": 0.25,
        "velocity": 0.71,
        "hand": "right"
      },
      {
        "midi": 89,
        "time": 484.25,
        "duration": 0.25,
        "velocity": 0.71,
        "hand": "right"
      },
      {
        "midi": 41,
        "time": 484.5,
        "duration": 0.25,
        "velocity": 0.71,
        "hand": "left"
      },
      {
        "midi": 88,
        "time": 484.5,
        "duration": 0.25,
        "velocity": 0.71,
        "hand": "right"
      },
      {
        "midi": 49,
        "time": 484.75,
        "duration": 0.25,
        "velocity": 0.71,
        "hand": "left"
      },
      {
        "midi": 84,
        "time": 484.75,
        "duration": 0.25,
        "velocity": 0.71,
        "hand": "right"
      },
      {
        "midi": 87,
        "time": 484.75,
        "duration": 0.25,
        "velocity": 0.71,
        "hand": "right"
      },
      {
        "midi": 58,
        "time": 485,
        "duration": 0.25,
        "velocity": 0.71,
        "hand": "left"
      },
      {
        "midi": 85,
        "time": 485,
        "duration": 0.25,
        "velocity": 0.71,
        "hand": "right"
      },
      {
        "midi": 52,
        "time": 485.25,
        "duration": 0.25,
        "velocity": 0.71,
        "hand": "left"
      },
      {
        "midi": 79,
        "time": 485.25,
        "duration": 0.25,
        "velocity": 0.71,
        "hand": "right"
      },
      {
        "midi": 82,
        "time": 485.25,
        "duration": 0.25,
        "velocity": 0.71,
        "hand": "right"
      },
      {
        "midi": 61,
        "time": 485.5,
        "duration": 0.25,
        "velocity": 0.71,
        "hand": "right"
      },
      {
        "midi": 76,
        "time": 485.5,
        "duration": 0.25,
        "velocity": 0.71,
        "hand": "right"
      },
      {
        "midi": 67,
        "time": 485.75,
        "duration": 0.25,
        "velocity": 0.71,
        "hand": "right"
      },
      {
        "midi": 70,
        "time": 485.75,
        "duration": 0.25,
        "velocity": 0.71,
        "hand": "right"
      },
      {
        "midi": 73,
        "time": 485.75,
        "duration": 0.25,
        "velocity": 0.71,
        "hand": "right"
      },
      {
        "midi": 41,
        "time": 486,
        "duration": 0.25,
        "velocity": 0.71,
        "hand": "left"
      },
      {
        "midi": 69,
        "time": 486,
        "duration": 0.25,
        "velocity": 0.71,
        "hand": "right"
      },
      {
        "midi": 48,
        "time": 486.25,
        "duration": 0.25,
        "velocity": 0.71,
        "hand": "left"
      },
      {
        "midi": 72,
        "time": 486.25,
        "duration": 0.25,
        "velocity": 0.71,
        "hand": "right"
      },
      {
        "midi": 76,
        "time": 486.25,
        "duration": 0.25,
        "velocity": 0.71,
        "hand": "right"
      },
      {
        "midi": 57,
        "time": 486.5,
        "duration": 0.25,
        "velocity": 0.71,
        "hand": "left"
      },
      {
        "midi": 78,
        "time": 486.5,
        "duration": 0.25,
        "velocity": 0.71,
        "hand": "right"
      },
      {
        "midi": 53,
        "time": 486.75,
        "duration": 0.25,
        "velocity": 0.71,
        "hand": "left"
      },
      {
        "midi": 77,
        "time": 486.75,
        "duration": 0.25,
        "velocity": 0.71,
        "hand": "right"
      },
      {
        "midi": 81,
        "time": 486.75,
        "duration": 0.25,
        "velocity": 0.71,
        "hand": "right"
      },
      {
        "midi": 60,
        "time": 487,
        "duration": 0.25,
        "velocity": 0.71,
        "hand": "right"
      },
      {
        "midi": 84,
        "time": 487,
        "duration": 0.25,
        "velocity": 0.71,
        "hand": "right"
      },
      {
        "midi": 69,
        "time": 487.25,
        "duration": 0.25,
        "velocity": 0.71,
        "hand": "right"
      },
      {
        "midi": 89,
        "time": 487.25,
        "duration": 0.25,
        "velocity": 0.71,
        "hand": "right"
      },
      {
        "midi": 101,
        "time": 487.25,
        "duration": 0.25,
        "velocity": 0.71,
        "hand": "right"
      },
      {
        "midi": 53,
        "time": 487.5,
        "duration": 0.25,
        "velocity": 0.71,
        "hand": "left"
      },
      {
        "midi": 100,
        "time": 487.5,
        "duration": 0.25,
        "velocity": 0.71,
        "hand": "right"
      },
      {
        "midi": 61,
        "time": 487.75,
        "duration": 0.25,
        "velocity": 0.71,
        "hand": "right"
      },
      {
        "midi": 96,
        "time": 487.75,
        "duration": 0.25,
        "velocity": 0.71,
        "hand": "right"
      },
      {
        "midi": 99,
        "time": 487.75,
        "duration": 0.25,
        "velocity": 0.71,
        "hand": "right"
      },
      {
        "midi": 70,
        "time": 488,
        "duration": 0.25,
        "velocity": 0.71,
        "hand": "right"
      },
      {
        "midi": 97,
        "time": 488,
        "duration": 0.25,
        "velocity": 0.71,
        "hand": "right"
      },
      {
        "midi": 64,
        "time": 488.25,
        "duration": 0.25,
        "velocity": 0.71,
        "hand": "right"
      },
      {
        "midi": 91,
        "time": 488.25,
        "duration": 0.25,
        "velocity": 0.71,
        "hand": "right"
      },
      {
        "midi": 94,
        "time": 488.25,
        "duration": 0.25,
        "velocity": 0.71,
        "hand": "right"
      },
      {
        "midi": 73,
        "time": 488.5,
        "duration": 0.25,
        "velocity": 0.71,
        "hand": "right"
      },
      {
        "midi": 88,
        "time": 488.5,
        "duration": 0.25,
        "velocity": 0.71,
        "hand": "right"
      },
      {
        "midi": 79,
        "time": 488.75,
        "duration": 0.25,
        "velocity": 0.71,
        "hand": "right"
      },
      {
        "midi": 82,
        "time": 488.75,
        "duration": 0.25,
        "velocity": 0.71,
        "hand": "right"
      },
      {
        "midi": 85,
        "time": 488.75,
        "duration": 0.25,
        "velocity": 0.71,
        "hand": "right"
      },
      {
        "midi": 65,
        "time": 489,
        "duration": 0.5,
        "velocity": 0.71,
        "hand": "right"
      },
      {
        "midi": 72,
        "time": 489,
        "duration": 0.5,
        "velocity": 0.71,
        "hand": "right"
      },
      {
        "midi": 81,
        "time": 489,
        "duration": 0.25,
        "velocity": 0.71,
        "hand": "right"
      },
      {
        "midi": 84,
        "time": 489.25,
        "duration": 0.25,
        "velocity": 0.71,
        "hand": "right"
      },
      {
        "midi": 87,
        "time": 489.25,
        "duration": 0.25,
        "velocity": 0.71,
        "hand": "right"
      },
      {
        "midi": 89,
        "time": 489.5,
        "duration": 0.25,
        "velocity": 0.71,
        "hand": "right"
      },
      {
        "midi": 90,
        "time": 489.75,
        "duration": 0.25,
        "velocity": 0.71,
        "hand": "right"
      },
      {
        "midi": 92,
        "time": 489.75,
        "duration": 0.25,
        "velocity": 0.71,
        "hand": "right"
      },
      {
        "midi": 87,
        "time": 490,
        "duration": 0.25,
        "velocity": 0.71,
        "hand": "right"
      },
      {
        "midi": 81,
        "time": 490.25,
        "duration": 0.25,
        "velocity": 0.71,
        "hand": "right"
      },
      {
        "midi": 84,
        "time": 490.25,
        "duration": 0.25,
        "velocity": 0.71,
        "hand": "right"
      },
      {
        "midi": 78,
        "time": 490.5,
        "duration": 0.25,
        "velocity": 0.71,
        "hand": "right"
      },
      {
        "midi": 72,
        "time": 490.75,
        "duration": 0.25,
        "velocity": 0.71,
        "hand": "right"
      },
      {
        "midi": 75,
        "time": 490.75,
        "duration": 0.25,
        "velocity": 0.71,
        "hand": "right"
      },
      {
        "midi": 60,
        "time": 491,
        "duration": 0.25,
        "velocity": 0.71,
        "hand": "right"
      },
      {
        "midi": 69,
        "time": 491,
        "duration": 0.25,
        "velocity": 0.71,
        "hand": "right"
      },
      {
        "midi": 61,
        "time": 491.25,
        "duration": 0.25,
        "velocity": 0.71,
        "hand": "right"
      },
      {
        "midi": 62,
        "time": 491.25,
        "duration": 0.25,
        "velocity": 0.71,
        "hand": "right"
      },
      {
        "midi": 70,
        "time": 491.25,
        "duration": 0.25,
        "velocity": 0.71,
        "hand": "right"
      },
      {
        "midi": 71,
        "time": 491.25,
        "duration": 0.25,
        "velocity": 0.71,
        "hand": "right"
      },
      {
        "midi": 63,
        "time": 491.5,
        "duration": 0.25,
        "velocity": 0.71,
        "hand": "right"
      },
      {
        "midi": 72,
        "time": 491.5,
        "duration": 0.25,
        "velocity": 0.71,
        "hand": "right"
      },
      {
        "midi": 61,
        "time": 491.75,
        "duration": 0.25,
        "velocity": 0.71,
        "hand": "right"
      },
      {
        "midi": 64,
        "time": 491.75,
        "duration": 0.25,
        "velocity": 0.71,
        "hand": "right"
      },
      {
        "midi": 70,
        "time": 491.75,
        "duration": 0.25,
        "velocity": 0.71,
        "hand": "right"
      },
      {
        "midi": 73,
        "time": 491.75,
        "duration": 0.25,
        "velocity": 0.71,
        "hand": "right"
      },
      {
        "midi": 60,
        "time": 492,
        "duration": 0.5,
        "velocity": 0.71,
        "hand": "right"
      },
      {
        "midi": 65,
        "time": 492,
        "duration": 0.5,
        "velocity": 0.71,
        "hand": "right"
      },
      {
        "midi": 69,
        "time": 492,
        "duration": 0.25,
        "velocity": 0.71,
        "hand": "right"
      },
      {
        "midi": 72,
        "time": 492.25,
        "duration": 0.25,
        "velocity": 0.71,
        "hand": "right"
      },
      {
        "midi": 75,
        "time": 492.25,
        "duration": 0.25,
        "velocity": 0.71,
        "hand": "right"
      },
      {
        "midi": 53,
        "time": 492.5,
        "duration": 0.5,
        "velocity": 0.71,
        "hand": "left"
      },
      {
        "midi": 63,
        "time": 492.5,
        "duration": 0.5,
        "velocity": 0.71,
        "hand": "right"
      },
      {
        "midi": 77,
        "time": 492.5,
        "duration": 0.25,
        "velocity": 0.71,
        "hand": "right"
      },
      {
        "midi": 78,
        "time": 492.75,
        "duration": 0.25,
        "velocity": 0.71,
        "hand": "right"
      },
      {
        "midi": 81,
        "time": 492.75,
        "duration": 0.25,
        "velocity": 0.71,
        "hand": "right"
      },
      {
        "midi": 75,
        "time": 493,
        "duration": 0.25,
        "velocity": 0.71,
        "hand": "right"
      },
      {
        "midi": 69,
        "time": 493.25,
        "duration": 0.25,
        "velocity": 0.71,
        "hand": "right"
      },
      {
        "midi": 72,
        "time": 493.25,
        "duration": 0.25,
        "velocity": 0.71,
        "hand": "right"
      },
      {
        "midi": 66,
        "time": 493.5,
        "duration": 0.25,
        "velocity": 0.71,
        "hand": "right"
      },
      {
        "midi": 60,
        "time": 493.75,
        "duration": 0.25,
        "velocity": 0.71,
        "hand": "right"
      },
      {
        "midi": 63,
        "time": 493.75,
        "duration": 0.25,
        "velocity": 0.71,
        "hand": "right"
      },
      {
        "midi": 48,
        "time": 494,
        "duration": 0.25,
        "velocity": 0.71,
        "hand": "left"
      },
      {
        "midi": 57,
        "time": 494,
        "duration": 0.25,
        "velocity": 0.71,
        "hand": "left"
      },
      {
        "midi": 49,
        "time": 494.25,
        "duration": 0.25,
        "velocity": 0.71,
        "hand": "left"
      },
      {
        "midi": 50,
        "time": 494.25,
        "duration": 0.25,
        "velocity": 0.71,
        "hand": "left"
      },
      {
        "midi": 58,
        "time": 494.25,
        "duration": 0.25,
        "velocity": 0.71,
        "hand": "left"
      },
      {
        "midi": 59,
        "time": 494.25,
        "duration": 0.25,
        "velocity": 0.71,
        "hand": "left"
      },
      {
        "midi": 51,
        "time": 494.5,
        "duration": 0.25,
        "velocity": 0.71,
        "hand": "left"
      },
      {
        "midi": 60,
        "time": 494.5,
        "duration": 0.25,
        "velocity": 0.71,
        "hand": "right"
      },
      {
        "midi": 49,
        "time": 494.75,
        "duration": 0.25,
        "velocity": 0.71,
        "hand": "left"
      },
      {
        "midi": 52,
        "time": 494.75,
        "duration": 0.25,
        "velocity": 0.71,
        "hand": "left"
      },
      {
        "midi": 58,
        "time": 494.75,
        "duration": 0.25,
        "velocity": 0.71,
        "hand": "left"
      },
      {
        "midi": 61,
        "time": 494.75,
        "duration": 0.25,
        "velocity": 0.71,
        "hand": "right"
      },
      {
        "midi": 41,
        "time": 495,
        "duration": 0.5,
        "velocity": 0.71,
        "hand": "left"
      },
      {
        "midi": 48,
        "time": 495,
        "duration": 0.5,
        "velocity": 0.71,
        "hand": "left"
      },
      {
        "midi": 53,
        "time": 495,
        "duration": 0.5,
        "velocity": 0.71,
        "hand": "left"
      },
      {
        "midi": 57,
        "time": 495,
        "duration": 0.25,
        "velocity": 0.71,
        "hand": "left"
      },
      {
        "midi": 58,
        "time": 495.25,
        "duration": 0.25,
        "velocity": 0.71,
        "hand": "left"
      },
      {
        "midi": 59,
        "time": 495.25,
        "duration": 0.25,
        "velocity": 0.71,
        "hand": "left"
      },
      {
        "midi": 49,
        "time": 495.5,
        "duration": 0.5,
        "velocity": 0.71,
        "hand": "left"
      },
      {
        "midi": 52,
        "time": 495.5,
        "duration": 0.5,
        "velocity": 0.71,
        "hand": "left"
      },
      {
        "midi": 60,
        "time": 495.5,
        "duration": 0.25,
        "velocity": 0.71,
        "hand": "right"
      },
      {
        "midi": 58,
        "time": 495.75,
        "duration": 0.25,
        "velocity": 0.71,
        "hand": "left"
      },
      {
        "midi": 61,
        "time": 495.75,
        "duration": 0.25,
        "velocity": 0.71,
        "hand": "right"
      },
      {
        "midi": 48,
        "time": 496,
        "duration": 0.5,
        "velocity": 0.71,
        "hand": "left"
      },
      {
        "midi": 53,
        "time": 496,
        "duration": 0.5,
        "velocity": 0.71,
        "hand": "left"
      },
      {
        "midi": 57,
        "time": 496,
        "duration": 0.25,
        "velocity": 0.71,
        "hand": "left"
      },
      {
        "midi": 58,
        "time": 496.25,
        "duration": 0.25,
        "velocity": 0.71,
        "hand": "left"
      },
      {
        "midi": 59,
        "time": 496.25,
        "duration": 0.25,
        "velocity": 0.71,
        "hand": "left"
      },
      {
        "midi": 49,
        "time": 496.5,
        "duration": 0.5,
        "velocity": 0.71,
        "hand": "left"
      },
      {
        "midi": 52,
        "time": 496.5,
        "duration": 0.5,
        "velocity": 0.71,
        "hand": "left"
      },
      {
        "midi": 60,
        "time": 496.5,
        "duration": 0.25,
        "velocity": 0.71,
        "hand": "right"
      },
      {
        "midi": 58,
        "time": 496.75,
        "duration": 0.25,
        "velocity": 0.71,
        "hand": "left"
      },
      {
        "midi": 61,
        "time": 496.75,
        "duration": 0.25,
        "velocity": 0.71,
        "hand": "right"
      },
      {
        "midi": 48,
        "time": 497,
        "duration": 0.5,
        "velocity": 0.71,
        "hand": "left"
      },
      {
        "midi": 53,
        "time": 497,
        "duration": 0.5,
        "velocity": 0.71,
        "hand": "left"
      },
      {
        "midi": 57,
        "time": 497,
        "duration": 0.25,
        "velocity": 0.71,
        "hand": "left"
      },
      {
        "midi": 58,
        "time": 497.25,
        "duration": 0.25,
        "velocity": 0.71,
        "hand": "left"
      },
      {
        "midi": 59,
        "time": 497.25,
        "duration": 0.25,
        "velocity": 0.71,
        "hand": "left"
      },
      {
        "midi": 49,
        "time": 497.5,
        "duration": 0.5,
        "velocity": 0.71,
        "hand": "left"
      },
      {
        "midi": 52,
        "time": 497.5,
        "duration": 0.5,
        "velocity": 0.71,
        "hand": "left"
      },
      {
        "midi": 60,
        "time": 497.5,
        "duration": 0.25,
        "velocity": 0.71,
        "hand": "right"
      },
      {
        "midi": 58,
        "time": 497.75,
        "duration": 0.25,
        "velocity": 0.71,
        "hand": "left"
      },
      {
        "midi": 61,
        "time": 497.75,
        "duration": 0.25,
        "velocity": 0.71,
        "hand": "right"
      },
      {
        "midi": 41,
        "time": 498,
        "duration": 0.5,
        "velocity": 0.71,
        "hand": "left"
      },
      {
        "midi": 48,
        "time": 498,
        "duration": 0.5,
        "velocity": 0.71,
        "hand": "left"
      },
      {
        "midi": 51,
        "time": 498,
        "duration": 0.5,
        "velocity": 0.71,
        "hand": "left"
      },
      {
        "midi": 57,
        "time": 498,
        "duration": 0.25,
        "velocity": 0.71,
        "hand": "left"
      },
      {
        "midi": 60,
        "time": 498.25,
        "duration": 0.25,
        "velocity": 0.71,
        "hand": "right"
      },
      {
        "midi": 63,
        "time": 498.25,
        "duration": 0.25,
        "velocity": 0.71,
        "hand": "right"
      },
      {
        "midi": 65,
        "time": 498.5,
        "duration": 0.25,
        "velocity": 0.71,
        "hand": "right"
      },
      {
        "midi": 68,
        "time": 498.75,
        "duration": 0.25,
        "velocity": 0.71,
        "hand": "right"
      },
      {
        "midi": 72,
        "time": 498.75,
        "duration": 0.25,
        "velocity": 0.71,
        "hand": "right"
      },
      {
        "midi": 67,
        "time": 499,
        "duration": 0.25,
        "velocity": 0.71,
        "hand": "right"
      },
      {
        "midi": 65,
        "time": 499.25,
        "duration": 0.25,
        "velocity": 0.71,
        "hand": "right"
      },
      {
        "midi": 66,
        "time": 499.25,
        "duration": 0.25,
        "velocity": 0.71,
        "hand": "right"
      },
      {
        "midi": 64,
        "time": 499.5,
        "duration": 0.25,
        "velocity": 0.71,
        "hand": "right"
      },
      {
        "midi": 62,
        "time": 499.75,
        "duration": 0.25,
        "velocity": 0.71,
        "hand": "right"
      },
      {
        "midi": 63,
        "time": 499.75,
        "duration": 0.25,
        "velocity": 0.71,
        "hand": "right"
      },
      {
        "midi": 61,
        "time": 500,
        "duration": 0.25,
        "velocity": 0.71,
        "hand": "right"
      },
      {
        "midi": 59,
        "time": 500.25,
        "duration": 0.25,
        "velocity": 0.71,
        "hand": "left"
      },
      {
        "midi": 60,
        "time": 500.25,
        "duration": 0.25,
        "velocity": 0.71,
        "hand": "right"
      },
      {
        "midi": 58,
        "time": 500.5,
        "duration": 0.25,
        "velocity": 0.71,
        "hand": "left"
      },
      {
        "midi": 56,
        "time": 500.75,
        "duration": 0.25,
        "velocity": 0.71,
        "hand": "left"
      },
      {
        "midi": 57,
        "time": 500.75,
        "duration": 0.25,
        "velocity": 0.71,
        "hand": "left"
      },
      {
        "midi": 55,
        "time": 501,
        "duration": 0.25,
        "velocity": 0.71,
        "hand": "left"
      },
      {
        "midi": 53,
        "time": 501.25,
        "duration": 0.25,
        "velocity": 0.71,
        "hand": "left"
      },
      {
        "midi": 54,
        "time": 501.25,
        "duration": 0.25,
        "velocity": 0.71,
        "hand": "left"
      },
      {
        "midi": 52,
        "time": 501.5,
        "duration": 0.25,
        "velocity": 0.71,
        "hand": "left"
      },
      {
        "midi": 50,
        "time": 501.75,
        "duration": 0.25,
        "velocity": 0.71,
        "hand": "left"
      },
      {
        "midi": 51,
        "time": 501.75,
        "duration": 0.25,
        "velocity": 0.71,
        "hand": "left"
      },
      {
        "midi": 49,
        "time": 502,
        "duration": 0.25,
        "velocity": 0.71,
        "hand": "left"
      },
      {
        "midi": 47,
        "time": 502.25,
        "duration": 0.25,
        "velocity": 0.71,
        "hand": "left"
      },
      {
        "midi": 48,
        "time": 502.25,
        "duration": 0.25,
        "velocity": 0.71,
        "hand": "left"
      },
      {
        "midi": 46,
        "time": 502.5,
        "duration": 0.25,
        "velocity": 0.71,
        "hand": "left"
      },
      {
        "midi": 44,
        "time": 502.75,
        "duration": 0.25,
        "velocity": 0.71,
        "hand": "left"
      },
      {
        "midi": 45,
        "time": 502.75,
        "duration": 0.25,
        "velocity": 0.71,
        "hand": "left"
      },
      {
        "midi": 43,
        "time": 503,
        "duration": 0.25,
        "velocity": 0.71,
        "hand": "left"
      },
      {
        "midi": 41,
        "time": 503.25,
        "duration": 0.25,
        "velocity": 0.71,
        "hand": "left"
      },
      {
        "midi": 42,
        "time": 503.25,
        "duration": 0.25,
        "velocity": 0.71,
        "hand": "left"
      },
      {
        "midi": 40,
        "time": 503.5,
        "duration": 0.25,
        "velocity": 0.71,
        "hand": "left"
      },
      {
        "midi": 38,
        "time": 503.75,
        "duration": 0.25,
        "velocity": 0.71,
        "hand": "left"
      },
      {
        "midi": 39,
        "time": 503.75,
        "duration": 0.25,
        "velocity": 0.71,
        "hand": "left"
      },
      {
        "midi": 37,
        "time": 504,
        "duration": 0.25,
        "velocity": 0.71,
        "hand": "left"
      },
      {
        "midi": 44,
        "time": 504.25,
        "duration": 0.25,
        "velocity": 0.71,
        "hand": "left"
      },
      {
        "midi": 46,
        "time": 504.25,
        "duration": 0.25,
        "velocity": 0.71,
        "hand": "left"
      },
      {
        "midi": 48,
        "time": 504.5,
        "duration": 0.25,
        "velocity": 0.71,
        "hand": "left"
      },
      {
        "midi": 49,
        "time": 504.75,
        "duration": 0.25,
        "velocity": 0.71,
        "hand": "left"
      },
      {
        "midi": 51,
        "time": 504.75,
        "duration": 0.25,
        "velocity": 0.71,
        "hand": "left"
      },
      {
        "midi": 53,
        "time": 505,
        "duration": 0.25,
        "velocity": 0.71,
        "hand": "left"
      },
      {
        "midi": 65,
        "time": 505,
        "duration": 0.5,
        "velocity": 0.71,
        "hand": "right"
      },
      {
        "midi": 68,
        "time": 505,
        "duration": 0.5,
        "velocity": 0.71,
        "hand": "right"
      },
      {
        "midi": 77,
        "time": 505,
        "duration": 0.5,
        "velocity": 0.71,
        "hand": "right"
      },
      {
        "midi": 54,
        "time": 505.25,
        "duration": 0.25,
        "velocity": 0.71,
        "hand": "left"
      },
      {
        "midi": 56,
        "time": 505.25,
        "duration": 0.25,
        "velocity": 0.71,
        "hand": "left"
      },
      {
        "midi": 58,
        "time": 505.5,
        "duration": 0.25,
        "velocity": 0.71,
        "hand": "left"
      },
      {
        "midi": 65,
        "time": 505.5,
        "duration": 1.5,
        "velocity": 0.71,
        "hand": "right"
      },
      {
        "midi": 68,
        "time": 505.5,
        "duration": 1.5,
        "velocity": 0.71,
        "hand": "right"
      },
      {
        "midi": 77,
        "time": 505.5,
        "duration": 1.5,
        "velocity": 0.71,
        "hand": "right"
      },
      {
        "midi": 56,
        "time": 505.75,
        "duration": 0.25,
        "velocity": 0.71,
        "hand": "left"
      },
      {
        "midi": 58,
        "time": 505.75,
        "duration": 0.25,
        "velocity": 0.71,
        "hand": "left"
      },
      {
        "midi": 60,
        "time": 506,
        "duration": 0.25,
        "velocity": 0.71,
        "hand": "right"
      },
      {
        "midi": 61,
        "time": 506.25,
        "duration": 0.25,
        "velocity": 0.71,
        "hand": "right"
      },
      {
        "midi": 63,
        "time": 506.25,
        "duration": 0.25,
        "velocity": 0.71,
        "hand": "right"
      },
      {
        "midi": 65,
        "time": 506.5,
        "duration": 0.5,
        "velocity": 0.71,
        "hand": "right"
      },
      {
        "midi": 37,
        "time": 507,
        "duration": 0.25,
        "velocity": 0.71,
        "hand": "left"
      },
      {
        "midi": 65,
        "time": 507,
        "duration": 1,
        "velocity": 0.71,
        "hand": "right"
      },
      {
        "midi": 73,
        "time": 507,
        "duration": 1,
        "velocity": 0.71,
        "hand": "right"
      },
      {
        "midi": 44,
        "time": 507.25,
        "duration": 0.25,
        "velocity": 0.71,
        "hand": "left"
      },
      {
        "midi": 46,
        "time": 507.25,
        "duration": 0.25,
        "velocity": 0.71,
        "hand": "left"
      },
      {
        "midi": 48,
        "time": 507.5,
        "duration": 0.25,
        "velocity": 0.71,
        "hand": "left"
      },
      {
        "midi": 49,
        "time": 507.75,
        "duration": 0.25,
        "velocity": 0.71,
        "hand": "left"
      },
      {
        "midi": 51,
        "time": 507.75,
        "duration": 0.25,
        "velocity": 0.71,
        "hand": "left"
      },
      {
        "midi": 53,
        "time": 508,
        "duration": 0.25,
        "velocity": 0.71,
        "hand": "left"
      },
      {
        "midi": 65,
        "time": 508,
        "duration": 0.5,
        "velocity": 0.71,
        "hand": "right"
      },
      {
        "midi": 70,
        "time": 508,
        "duration": 0.5,
        "velocity": 0.71,
        "hand": "right"
      },
      {
        "midi": 54,
        "time": 508.25,
        "duration": 0.25,
        "velocity": 0.71,
        "hand": "left"
      },
      {
        "midi": 56,
        "time": 508.25,
        "duration": 0.25,
        "velocity": 0.71,
        "hand": "left"
      },
      {
        "midi": 58,
        "time": 508.5,
        "duration": 0.25,
        "velocity": 0.71,
        "hand": "left"
      },
      {
        "midi": 60,
        "time": 508.5,
        "duration": 1,
        "velocity": 0.71,
        "hand": "right"
      },
      {
        "midi": 66,
        "time": 508.5,
        "duration": 1,
        "velocity": 0.71,
        "hand": "right"
      },
      {
        "midi": 70,
        "time": 508.5,
        "duration": 1,
        "velocity": 0.71,
        "hand": "right"
      },
      {
        "midi": 56,
        "time": 508.75,
        "duration": 0.25,
        "velocity": 0.71,
        "hand": "left"
      },
      {
        "midi": 60,
        "time": 508.75,
        "duration": 0.25,
        "velocity": 0.71,
        "hand": "right"
      },
      {
        "midi": 61,
        "time": 509,
        "duration": 0.25,
        "velocity": 0.71,
        "hand": "right"
      },
      {
        "midi": 63,
        "time": 509.25,
        "duration": 0.25,
        "velocity": 0.71,
        "hand": "right"
      },
      {
        "midi": 65,
        "time": 509.25,
        "duration": 0.25,
        "velocity": 0.71,
        "hand": "right"
      },
      {
        "midi": 66,
        "time": 509.5,
        "duration": 0.5,
        "velocity": 0.71,
        "hand": "right"
      },
      {
        "midi": 68,
        "time": 509.5,
        "duration": 0.5,
        "velocity": 0.71,
        "hand": "right"
      },
      {
        "midi": 37,
        "time": 510,
        "duration": 0.25,
        "velocity": 0.71,
        "hand": "left"
      },
      {
        "midi": 66,
        "time": 510,
        "duration": 0.5,
        "velocity": 0.71,
        "hand": "right"
      },
      {
        "midi": 68,
        "time": 510,
        "duration": 1,
        "velocity": 0.71,
        "hand": "right"
      },
      {
        "midi": 44,
        "time": 510.25,
        "duration": 0.25,
        "velocity": 0.71,
        "hand": "left"
      },
      {
        "midi": 46,
        "time": 510.25,
        "duration": 0.25,
        "velocity": 0.71,
        "hand": "left"
      },
      {
        "midi": 48,
        "time": 510.5,
        "duration": 0.25,
        "velocity": 0.71,
        "hand": "left"
      },
      {
        "midi": 65,
        "time": 510.5,
        "duration": 0.5,
        "velocity": 0.71,
        "hand": "right"
      },
      {
        "midi": 49,
        "time": 510.75,
        "duration": 0.25,
        "velocity": 0.71,
        "hand": "left"
      },
      {
        "midi": 51,
        "time": 510.75,
        "duration": 0.25,
        "velocity": 0.71,
        "hand": "left"
      },
      {
        "midi": 53,
        "time": 511,
        "duration": 0.25,
        "velocity": 0.71,
        "hand": "left"
      },
      {
        "midi": 63,
        "time": 511,
        "duration": 0.5,
        "velocity": 0.71,
        "hand": "right"
      },
      {
        "midi": 68,
        "time": 511,
        "duration": 0.5,
        "velocity": 0.71,
        "hand": "right"
      },
      {
        "midi": 77,
        "time": 511,
        "duration": 0.5,
        "velocity": 0.71,
        "hand": "right"
      },
      {
        "midi": 54,
        "time": 511.25,
        "duration": 0.25,
        "velocity": 0.71,
        "hand": "left"
      },
      {
        "midi": 56,
        "time": 511.25,
        "duration": 0.25,
        "velocity": 0.71,
        "hand": "left"
      },
      {
        "midi": 58,
        "time": 511.5,
        "duration": 0.25,
        "velocity": 0.71,
        "hand": "left"
      },
      {
        "midi": 61,
        "time": 511.5,
        "duration": 1,
        "velocity": 0.71,
        "hand": "right"
      },
      {
        "midi": 68,
        "time": 511.5,
        "duration": 1,
        "velocity": 0.71,
        "hand": "right"
      },
      {
        "midi": 73,
        "time": 511.5,
        "duration": 1,
        "velocity": 0.71,
        "hand": "right"
      },
      {
        "midi": 56,
        "time": 511.75,
        "duration": 0.25,
        "velocity": 0.71,
        "hand": "left"
      },
      {
        "midi": 58,
        "time": 511.75,
        "duration": 0.25,
        "velocity": 0.71,
        "hand": "left"
      },
      {
        "midi": 59,
        "time": 512,
        "duration": 0.25,
        "velocity": 0.71,
        "hand": "left"
      },
      {
        "midi": 61,
        "time": 512.25,
        "duration": 0.25,
        "velocity": 0.71,
        "hand": "right"
      },
      {
        "midi": 63,
        "time": 512.25,
        "duration": 0.25,
        "velocity": 0.71,
        "hand": "right"
      },
      {
        "midi": 65,
        "time": 512.5,
        "duration": 0.5,
        "velocity": 0.71,
        "hand": "right"
      },
      {
        "midi": 71,
        "time": 512.5,
        "duration": 0.5,
        "velocity": 0.71,
        "hand": "right"
      },
      {
        "midi": 73,
        "time": 512.5,
        "duration": 0.5,
        "velocity": 0.71,
        "hand": "right"
      },
      {
        "midi": 82,
        "time": 512.5,
        "duration": 0.5,
        "velocity": 0.71,
        "hand": "right"
      },
      {
        "midi": 37,
        "time": 513,
        "duration": 0.25,
        "velocity": 0.71,
        "hand": "left"
      },
      {
        "midi": 71,
        "time": 513,
        "duration": 0.5,
        "velocity": 0.71,
        "hand": "right"
      },
      {
        "midi": 73,
        "time": 513,
        "duration": 0.5,
        "velocity": 0.71,
        "hand": "right"
      },
      {
        "midi": 82,
        "time": 513,
        "duration": 0.5,
        "velocity": 0.71,
        "hand": "right"
      },
      {
        "midi": 44,
        "time": 513.25,
        "duration": 0.25,
        "velocity": 0.71,
        "hand": "left"
      },
      {
        "midi": 49,
        "time": 513.25,
        "duration": 0.25,
        "velocity": 0.71,
        "hand": "left"
      },
      {
        "midi": 53,
        "time": 513.5,
        "duration": 0.25,
        "velocity": 0.71,
        "hand": "left"
      },
      {
        "midi": 71,
        "time": 513.5,
        "duration": 0.5,
        "velocity": 0.71,
        "hand": "right"
      },
      {
        "midi": 73,
        "time": 513.5,
        "duration": 0.5,
        "velocity": 0.71,
        "hand": "right"
      },
      {
        "midi": 80,
        "time": 513.5,
        "duration": 0.5,
        "velocity": 0.71,
        "hand": "right"
      },
      {
        "midi": 56,
        "time": 513.75,
        "duration": 0.25,
        "velocity": 0.71,
        "hand": "left"
      },
      {
        "midi": 61,
        "time": 513.75,
        "duration": 0.25,
        "velocity": 0.71,
        "hand": "right"
      },
      {
        "midi": 56,
        "time": 514,
        "duration": 0.25,
        "velocity": 0.71,
        "hand": "left"
      },
      {
        "midi": 71,
        "time": 514,
        "duration": 0.5,
        "velocity": 0.71,
        "hand": "right"
      },
      {
        "midi": 73,
        "time": 514,
        "duration": 0.5,
        "velocity": 0.71,
        "hand": "right"
      },
      {
        "midi": 79,
        "time": 514,
        "duration": 0.5,
        "velocity": 0.71,
        "hand": "right"
      },
      {
        "midi": 61,
        "time": 514.25,
        "duration": 0.25,
        "velocity": 0.71,
        "hand": "right"
      },
      {
        "midi": 65,
        "time": 514.25,
        "duration": 0.25,
        "velocity": 0.71,
        "hand": "right"
      },
      {
        "midi": 56,
        "time": 514.5,
        "duration": 0.25,
        "velocity": 0.71,
        "hand": "left"
      },
      {
        "midi": 71,
        "time": 514.5,
        "duration": 1.5,
        "velocity": 0.71,
        "hand": "right"
      },
      {
        "midi": 73,
        "time": 514.5,
        "duration": 1.5,
        "velocity": 0.71,
        "hand": "right"
      },
      {
        "midi": 80,
        "time": 514.5,
        "duration": 1.5,
        "velocity": 0.71,
        "hand": "right"
      },
      {
        "midi": 65,
        "time": 514.75,
        "duration": 0.25,
        "velocity": 0.71,
        "hand": "right"
      },
      {
        "midi": 68,
        "time": 514.75,
        "duration": 0.25,
        "velocity": 0.71,
        "hand": "right"
      },
      {
        "midi": 61,
        "time": 515,
        "duration": 0.25,
        "velocity": 0.71,
        "hand": "right"
      },
      {
        "midi": 53,
        "time": 515.25,
        "duration": 0.25,
        "velocity": 0.71,
        "hand": "left"
      },
      {
        "midi": 56,
        "time": 515.25,
        "duration": 0.25,
        "velocity": 0.71,
        "hand": "left"
      },
      {
        "midi": 49,
        "time": 515.5,
        "duration": 0.25,
        "velocity": 0.71,
        "hand": "left"
      },
      {
        "midi": 44,
        "time": 515.75,
        "duration": 0.25,
        "velocity": 0.71,
        "hand": "left"
      },
      {
        "midi": 56,
        "time": 515.75,
        "duration": 0.25,
        "velocity": 0.71,
        "hand": "left"
      },
      {
        "midi": 37,
        "time": 516,
        "duration": 0.25,
        "velocity": 0.71,
        "hand": "left"
      },
      {
        "midi": 65,
        "time": 516,
        "duration": 0.125,
        "velocity": 0.71,
        "hand": "right"
      },
      {
        "midi": 65,
        "time": 516,
        "duration": 1,
        "velocity": 0.71,
        "hand": "right"
      },
      {
        "midi": 71,
        "time": 516,
        "duration": 1,
        "velocity": 0.71,
        "hand": "right"
      },
      {
        "midi": 80,
        "time": 516,
        "duration": 1,
        "velocity": 0.71,
        "hand": "right"
      },
      {
        "midi": 44,
        "time": 516.25,
        "duration": 0.25,
        "velocity": 0.71,
        "hand": "left"
      },
      {
        "midi": 49,
        "time": 516.25,
        "duration": 0.25,
        "velocity": 0.71,
        "hand": "left"
      },
      {
        "midi": 56,
        "time": 516.5,
        "duration": 0.25,
        "velocity": 0.71,
        "hand": "left"
      },
      {
        "midi": 44,
        "time": 516.75,
        "duration": 0.25,
        "velocity": 0.71,
        "hand": "left"
      },
      {
        "midi": 49,
        "time": 516.75,
        "duration": 0.25,
        "velocity": 0.71,
        "hand": "left"
      },
      {
        "midi": 49,
        "time": 517,
        "duration": 0.25,
        "velocity": 0.71,
        "hand": "left"
      },
      {
        "midi": 65,
        "time": 517,
        "duration": 0.5,
        "velocity": 0.71,
        "hand": "right"
      },
      {
        "midi": 71,
        "time": 517,
        "duration": 0.5,
        "velocity": 0.71,
        "hand": "right"
      },
      {
        "midi": 73,
        "time": 517,
        "duration": 0.5,
        "velocity": 0.71,
        "hand": "right"
      },
      {
        "midi": 56,
        "time": 517.25,
        "duration": 0.25,
        "velocity": 0.71,
        "hand": "left"
      },
      {
        "midi": 61,
        "time": 517.25,
        "duration": 0.25,
        "velocity": 0.71,
        "hand": "right"
      },
      {
        "midi": 56,
        "time": 517.5,
        "duration": 0.25,
        "velocity": 0.71,
        "hand": "left"
      },
      {
        "midi": 65,
        "time": 517.5,
        "duration": 3,
        "velocity": 0.71,
        "hand": "right"
      },
      {
        "midi": 71,
        "time": 517.5,
        "duration": 3,
        "velocity": 0.71,
        "hand": "right"
      },
      {
        "midi": 73,
        "time": 517.5,
        "duration": 3,
        "velocity": 0.71,
        "hand": "right"
      },
      {
        "midi": 49,
        "time": 517.75,
        "duration": 0.25,
        "velocity": 0.71,
        "hand": "left"
      },
      {
        "midi": 56,
        "time": 517.75,
        "duration": 0.25,
        "velocity": 0.71,
        "hand": "left"
      },
      {
        "midi": 61,
        "time": 518,
        "duration": 0.25,
        "velocity": 0.71,
        "hand": "right"
      },
      {
        "midi": 61,
        "time": 518.25,
        "duration": 0.25,
        "velocity": 0.71,
        "hand": "right"
      },
      {
        "midi": 68,
        "time": 518.25,
        "duration": 0.25,
        "velocity": 0.71,
        "hand": "right"
      },
      {
        "midi": 56,
        "time": 518.5,
        "duration": 0.25,
        "velocity": 0.71,
        "hand": "left"
      },
      {
        "midi": 49,
        "time": 518.75,
        "duration": 0.25,
        "velocity": 0.71,
        "hand": "left"
      },
      {
        "midi": 56,
        "time": 518.75,
        "duration": 0.25,
        "velocity": 0.71,
        "hand": "left"
      },
      {
        "midi": 61,
        "time": 519,
        "duration": 0.25,
        "velocity": 0.71,
        "hand": "right"
      },
      {
        "midi": 49,
        "time": 519.25,
        "duration": 0.25,
        "velocity": 0.71,
        "hand": "left"
      },
      {
        "midi": 56,
        "time": 519.25,
        "duration": 0.25,
        "velocity": 0.71,
        "hand": "left"
      },
      {
        "midi": 44,
        "time": 519.5,
        "duration": 0.25,
        "velocity": 0.71,
        "hand": "left"
      },
      {
        "midi": 49,
        "time": 519.75,
        "duration": 0.25,
        "velocity": 0.71,
        "hand": "left"
      },
      {
        "midi": 56,
        "time": 519.75,
        "duration": 0.25,
        "velocity": 0.71,
        "hand": "left"
      },
      {
        "midi": 49,
        "time": 520,
        "duration": 0.25,
        "velocity": 0.71,
        "hand": "left"
      },
      {
        "midi": 37,
        "time": 520.25,
        "duration": 0.25,
        "velocity": 0.71,
        "hand": "left"
      },
      {
        "midi": 44,
        "time": 520.25,
        "duration": 0.25,
        "velocity": 0.71,
        "hand": "left"
      },
      {
        "midi": 30,
        "time": 520.5,
        "duration": 0.25,
        "velocity": 0.71,
        "hand": "left"
      },
      {
        "midi": 66,
        "time": 520.5,
        "duration": 1,
        "velocity": 0.71,
        "hand": "right"
      },
      {
        "midi": 71,
        "time": 520.5,
        "duration": 1,
        "velocity": 0.71,
        "hand": "right"
      },
      {
        "midi": 73,
        "time": 520.5,
        "duration": 1,
        "velocity": 0.71,
        "hand": "right"
      },
      {
        "midi": 49,
        "time": 520.75,
        "duration": 0.25,
        "velocity": 0.71,
        "hand": "left"
      },
      {
        "midi": 61,
        "time": 521,
        "duration": 0.25,
        "velocity": 0.71,
        "hand": "right"
      },
      {
        "midi": 49,
        "time": 521.25,
        "duration": 0.25,
        "velocity": 0.71,
        "hand": "left"
      },
      {
        "midi": 54,
        "time": 521.25,
        "duration": 0.25,
        "velocity": 0.71,
        "hand": "left"
      },
      {
        "midi": 58,
        "time": 521.5,
        "duration": 0.25,
        "velocity": 0.71,
        "hand": "left"
      },
      {
        "midi": 66,
        "time": 521.5,
        "duration": 0.5,
        "velocity": 0.71,
        "hand": "right"
      },
      {
        "midi": 70,
        "time": 521.5,
        "duration": 0.5,
        "velocity": 0.71,
        "hand": "right"
      },
      {
        "midi": 78,
        "time": 521.5,
        "duration": 0.5,
        "velocity": 0.71,
        "hand": "right"
      },
      {
        "midi": 49,
        "time": 521.75,
        "duration": 0.25,
        "velocity": 0.71,
        "hand": "left"
      },
      {
        "midi": 54,
        "time": 521.75,
        "duration": 0.25,
        "velocity": 0.71,
        "hand": "left"
      },
      {
        "midi": 39,
        "time": 522,
        "duration": 0.25,
        "velocity": 0.71,
        "hand": "left"
      },
      {
        "midi": 78,
        "time": 522,
        "duration": 0.25,
        "velocity": 0.71,
        "hand": "right"
      },
      {
        "midi": 46,
        "time": 522.25,
        "duration": 0.25,
        "velocity": 0.71,
        "hand": "left"
      },
      {
        "midi": 66,
        "time": 522.25,
        "duration": 0.25,
        "velocity": 0.71,
        "hand": "right"
      },
      {
        "midi": 70,
        "time": 522.25,
        "duration": 0.25,
        "velocity": 0.71,
        "hand": "right"
      },
      {
        "midi": 51,
        "time": 522.5,
        "duration": 0.25,
        "velocity": 0.71,
        "hand": "left"
      },
      {
        "midi": 58,
        "time": 522.5,
        "duration": 0.25,
        "velocity": 0.71,
        "hand": "left"
      },
      {
        "midi": 54,
        "time": 522.75,
        "duration": 0.25,
        "velocity": 0.71,
        "hand": "left"
      },
      {
        "midi": 63,
        "time": 522.75,
        "duration": 0.25,
        "velocity": 0.71,
        "hand": "right"
      },
      {
        "midi": 70,
        "time": 522.75,
        "duration": 0.25,
        "velocity": 0.71,
        "hand": "right"
      },
      {
        "midi": 51,
        "time": 523,
        "duration": 0.25,
        "velocity": 0.71,
        "hand": "left"
      },
      {
        "midi": 66,
        "time": 523,
        "duration": 0.25,
        "velocity": 0.71,
        "hand": "right"
      },
      {
        "midi": 46,
        "time": 523.25,
        "duration": 0.25,
        "velocity": 0.71,
        "hand": "left"
      },
      {
        "midi": 58,
        "time": 523.25,
        "duration": 0.25,
        "velocity": 0.71,
        "hand": "left"
      },
      {
        "midi": 72,
        "time": 523.25,
        "duration": 0.25,
        "velocity": 0.71,
        "hand": "right"
      },
      {
        "midi": 39,
        "time": 523.5,
        "duration": 0.25,
        "velocity": 0.71,
        "hand": "left"
      },
      {
        "midi": 66,
        "time": 523.5,
        "duration": 0.25,
        "velocity": 0.71,
        "hand": "right"
      },
      {
        "midi": 46,
        "time": 523.75,
        "duration": 0.25,
        "velocity": 0.71,
        "hand": "left"
      },
      {
        "midi": 61,
        "time": 523.75,
        "duration": 0.25,
        "velocity": 0.71,
        "hand": "right"
      },
      {
        "midi": 70,
        "time": 523.75,
        "duration": 0.25,
        "velocity": 0.71,
        "hand": "right"
      },
      {
        "midi": 51,
        "time": 524,
        "duration": 0.25,
        "velocity": 0.71,
        "hand": "left"
      },
      {
        "midi": 73,
        "time": 524,
        "duration": 0.25,
        "velocity": 0.71,
        "hand": "right"
      },
      {
        "midi": 58,
        "time": 524.25,
        "duration": 0.25,
        "velocity": 0.71,
        "hand": "left"
      },
      {
        "midi": 66,
        "time": 524.25,
        "duration": 0.25,
        "velocity": 0.71,
        "hand": "right"
      },
      {
        "midi": 70,
        "time": 524.25,
        "duration": 0.25,
        "velocity": 0.71,
        "hand": "right"
      },
      {
        "midi": 51,
        "time": 524.5,
        "duration": 0.25,
        "velocity": 0.71,
        "hand": "left"
      },
      {
        "midi": 66,
        "time": 524.5,
        "duration": 0.25,
        "velocity": 0.71,
        "hand": "right"
      },
      {
        "midi": 46,
        "time": 524.75,
        "duration": 0.25,
        "velocity": 0.71,
        "hand": "left"
      },
      {
        "midi": 70,
        "time": 524.75,
        "duration": 0.25,
        "velocity": 0.71,
        "hand": "right"
      },
      {
        "midi": 78,
        "time": 524.75,
        "duration": 0.25,
        "velocity": 0.71,
        "hand": "right"
      },
      {
        "midi": 44,
        "time": 525,
        "duration": 0.25,
        "velocity": 0.71,
        "hand": "left"
      },
      {
        "midi": 73,
        "time": 525,
        "duration": 0.25,
        "velocity": 0.71,
        "hand": "right"
      },
      {
        "midi": 51,
        "time": 525.25,
        "duration": 0.25,
        "velocity": 0.71,
        "hand": "left"
      },
      {
        "midi": 66,
        "time": 525.25,
        "duration": 0.25,
        "velocity": 0.71,
        "hand": "right"
      },
      {
        "midi": 77,
        "time": 525.25,
        "duration": 0.25,
        "velocity": 0.71,
        "hand": "right"
      },
      {
        "midi": 54,
        "time": 525.5,
        "duration": 0.25,
        "velocity": 0.71,
        "hand": "left"
      },
      {
        "midi": 70,
        "time": 525.5,
        "duration": 0.25,
        "velocity": 0.71,
        "hand": "right"
      },
      {
        "midi": 61,
        "time": 525.75,
        "duration": 0.25,
        "velocity": 0.71,
        "hand": "right"
      },
      {
        "midi": 66,
        "time": 525.75,
        "duration": 0.25,
        "velocity": 0.71,
        "hand": "right"
      },
      {
        "midi": 73,
        "time": 525.75,
        "duration": 0.25,
        "velocity": 0.71,
        "hand": "right"
      },
      {
        "midi": 54,
        "time": 526,
        "duration": 0.25,
        "velocity": 0.71,
        "hand": "left"
      },
      {
        "midi": 77,
        "time": 526,
        "duration": 0.25,
        "velocity": 0.71,
        "hand": "right"
      },
      {
        "midi": 51,
        "time": 526.25,
        "duration": 0.25,
        "velocity": 0.71,
        "hand": "left"
      },
      {
        "midi": 68,
        "time": 526.25,
        "duration": 0.25,
        "velocity": 0.71,
        "hand": "right"
      },
      {
        "midi": 72,
        "time": 526.25,
        "duration": 0.25,
        "velocity": 0.71,
        "hand": "right"
      },
      {
        "midi": 44,
        "time": 526.5,
        "duration": 0.25,
        "velocity": 0.71,
        "hand": "left"
      },
      {
        "midi": 66,
        "time": 526.5,
        "duration": 0.25,
        "velocity": 0.71,
        "hand": "right"
      },
      {
        "midi": 51,
        "time": 526.75,
        "duration": 0.25,
        "velocity": 0.71,
        "hand": "left"
      },
      {
        "midi": 68,
        "time": 526.75,
        "duration": 0.25,
        "velocity": 0.71,
        "hand": "right"
      },
      {
        "midi": 75,
        "time": 526.75,
        "duration": 0.25,
        "velocity": 0.71,
        "hand": "right"
      },
      {
        "midi": 54,
        "time": 527,
        "duration": 0.25,
        "velocity": 0.71,
        "hand": "left"
      },
      {
        "midi": 72,
        "time": 527,
        "duration": 0.25,
        "velocity": 0.71,
        "hand": "right"
      },
      {
        "midi": 60,
        "time": 527.25,
        "duration": 0.25,
        "velocity": 0.71,
        "hand": "right"
      },
      {
        "midi": 63,
        "time": 527.25,
        "duration": 0.25,
        "velocity": 0.71,
        "hand": "right"
      },
      {
        "midi": 72,
        "time": 527.25,
        "duration": 0.25,
        "velocity": 0.71,
        "hand": "right"
      },
      {
        "midi": 54,
        "time": 527.5,
        "duration": 0.25,
        "velocity": 0.71,
        "hand": "left"
      },
      {
        "midi": 66,
        "time": 527.5,
        "duration": 0.25,
        "velocity": 0.71,
        "hand": "right"
      },
      {
        "midi": 44,
        "time": 527.75,
        "duration": 0.25,
        "velocity": 0.71,
        "hand": "left"
      },
      {
        "midi": 60,
        "time": 527.75,
        "duration": 0.25,
        "velocity": 0.71,
        "hand": "right"
      },
      {
        "midi": 70,
        "time": 527.75,
        "duration": 0.25,
        "velocity": 0.71,
        "hand": "right"
      },
      {
        "midi": 37,
        "time": 528,
        "duration": 0.25,
        "velocity": 0.5,
        "hand": "left"
      },
      {
        "midi": 58,
        "time": 528,
        "duration": 0.5,
        "velocity": 0.71,
        "hand": "left"
      },
      {
        "midi": 65,
        "time": 528,
        "duration": 1,
        "velocity": 0.71,
        "hand": "right"
      },
      {
        "midi": 70,
        "time": 528,
        "duration": 0.5,
        "velocity": 0.71,
        "hand": "right"
      },
      {
        "midi": 44,
        "time": 528.25,
        "duration": 0.25,
        "velocity": 0.51,
        "hand": "left"
      },
      {
        "midi": 46,
        "time": 528.25,
        "duration": 0.25,
        "velocity": 0.53,
        "hand": "left"
      },
      {
        "midi": 48,
        "time": 528.5,
        "duration": 0.25,
        "velocity": 0.54,
        "hand": "left"
      },
      {
        "midi": 56,
        "time": 528.5,
        "duration": 0.5,
        "velocity": 0.71,
        "hand": "left"
      },
      {
        "midi": 68,
        "time": 528.5,
        "duration": 0.5,
        "velocity": 0.71,
        "hand": "right"
      },
      {
        "midi": 49,
        "time": 528.75,
        "duration": 0.25,
        "velocity": 0.56,
        "hand": "left"
      },
      {
        "midi": 51,
        "time": 528.75,
        "duration": 0.25,
        "velocity": 0.57,
        "hand": "left"
      },
      {
        "midi": 53,
        "time": 529,
        "duration": 0.25,
        "velocity": 0.58,
        "hand": "left"
      },
      {
        "midi": 77,
        "time": 529,
        "duration": 0.5,
        "velocity": 0.71,
        "hand": "right"
      },
      {
        "midi": 80,
        "time": 529,
        "duration": 0.5,
        "velocity": 0.71,
        "hand": "right"
      },
      {
        "midi": 89,
        "time": 529,
        "duration": 0.5,
        "velocity": 0.71,
        "hand": "right"
      },
      {
        "midi": 54,
        "time": 529.25,
        "duration": 0.25,
        "velocity": 0.6,
        "hand": "left"
      },
      {
        "midi": 56,
        "time": 529.25,
        "duration": 0.25,
        "velocity": 0.61,
        "hand": "left"
      },
      {
        "midi": 58,
        "time": 529.5,
        "duration": 0.25,
        "velocity": 0.63,
        "hand": "left"
      },
      {
        "midi": 77,
        "time": 529.5,
        "duration": 1,
        "velocity": 0.71,
        "hand": "right"
      },
      {
        "midi": 80,
        "time": 529.5,
        "duration": 1,
        "velocity": 0.71,
        "hand": "right"
      },
      {
        "midi": 89,
        "time": 529.5,
        "duration": 1,
        "velocity": 0.71,
        "hand": "right"
      },
      {
        "midi": 56,
        "time": 529.75,
        "duration": 0.25,
        "velocity": 0.65,
        "hand": "left"
      },
      {
        "midi": 58,
        "time": 529.75,
        "duration": 0.25,
        "velocity": 0.66,
        "hand": "left"
      },
      {
        "midi": 60,
        "time": 530,
        "duration": 0.25,
        "velocity": 0.68,
        "hand": "right"
      },
      {
        "midi": 61,
        "time": 530.25,
        "duration": 0.25,
        "velocity": 0.69,
        "hand": "right"
      },
      {
        "midi": 63,
        "time": 530.25,
        "duration": 0.25,
        "velocity": 0.71,
        "hand": "right"
      },
      {
        "midi": 65,
        "time": 530.5,
        "duration": 0.5,
        "velocity": 0.72,
        "hand": "right"
      },
      {
        "midi": 73,
        "time": 530.5,
        "duration": 0.5,
        "velocity": 0.71,
        "hand": "right"
      },
      {
        "midi": 80,
        "time": 530.5,
        "duration": 0.5,
        "velocity": 0.71,
        "hand": "right"
      },
      {
        "midi": 85,
        "time": 530.5,
        "duration": 0.5,
        "velocity": 0.71,
        "hand": "right"
      },
      {
        "midi": 37,
        "time": 531,
        "duration": 0.25,
        "velocity": 0.72,
        "hand": "left"
      },
      {
        "midi": 73,
        "time": 531,
        "duration": 0.5,
        "velocity": 0.71,
        "hand": "right"
      },
      {
        "midi": 77,
        "time": 531,
        "duration": 0.5,
        "velocity": 0.71,
        "hand": "right"
      },
      {
        "midi": 85,
        "time": 531,
        "duration": 0.5,
        "velocity": 0.71,
        "hand": "right"
      },
      {
        "midi": 44,
        "time": 531.25,
        "duration": 0.25,
        "velocity": 0.73,
        "hand": "left"
      },
      {
        "midi": 46,
        "time": 531.25,
        "duration": 0.25,
        "velocity": 0.75,
        "hand": "left"
      },
      {
        "midi": 48,
        "time": 531.5,
        "duration": 0.25,
        "velocity": 0.76,
        "hand": "left"
      },
      {
        "midi": 65,
        "time": 531.5,
        "duration": 0.5,
        "velocity": 0.71,
        "hand": "right"
      },
      {
        "midi": 49,
        "time": 531.75,
        "duration": 0.25,
        "velocity": 0.78,
        "hand": "left"
      },
      {
        "midi": 51,
        "time": 531.75,
        "duration": 0.25,
        "velocity": 0.8,
        "hand": "left"
      },
      {
        "midi": 53,
        "time": 532,
        "duration": 0.25,
        "velocity": 0.81,
        "hand": "left"
      },
      {
        "midi": 73,
        "time": 532,
        "duration": 0.5,
        "velocity": 0.71,
        "hand": "right"
      },
      {
        "midi": 82,
        "time": 532,
        "duration": 0.5,
        "velocity": 0.71,
        "hand": "right"
      },
      {
        "midi": 54,
        "time": 532.25,
        "duration": 0.25,
        "velocity": 0.83,
        "hand": "left"
      },
      {
        "midi": 56,
        "time": 532.25,
        "duration": 0.25,
        "velocity": 0.84,
        "hand": "left"
      },
      {
        "midi": 58,
        "time": 532.5,
        "duration": 0.25,
        "velocity": 0.86,
        "hand": "left"
      },
      {
        "midi": 72,
        "time": 532.5,
        "duration": 0.5,
        "velocity": 0.71,
        "hand": "right"
      },
      {
        "midi": 78,
        "time": 532.5,
        "duration": 1,
        "velocity": 0.71,
        "hand": "right"
      },
      {
        "midi": 82,
        "time": 532.5,
        "duration": 1,
        "velocity": 0.71,
        "hand": "right"
      },
      {
        "midi": 56,
        "time": 532.75,
        "duration": 0.25,
        "velocity": 0.87,
        "hand": "left"
      },
      {
        "midi": 60,
        "time": 532.75,
        "duration": 0.25,
        "velocity": 0.89,
        "hand": "right"
      },
      {
        "midi": 61,
        "time": 533,
        "duration": 0.25,
        "velocity": 0.9,
        "hand": "right"
      },
      {
        "midi": 70,
        "time": 533,
        "duration": 0.5,
        "velocity": 0.71,
        "hand": "right"
      },
      {
        "midi": 63,
        "time": 533.25,
        "duration": 0.25,
        "velocity": 0.91,
        "hand": "right"
      },
      {
        "midi": 65,
        "time": 533.25,
        "duration": 0.25,
        "velocity": 0.93,
        "hand": "right"
      },
      {
        "midi": 66,
        "time": 533.5,
        "duration": 0.5,
        "velocity": 0.94,
        "hand": "right"
      },
      {
        "midi": 68,
        "time": 533.5,
        "duration": 0.5,
        "velocity": 0.71,
        "hand": "right"
      },
      {
        "midi": 75,
        "time": 533.5,
        "duration": 0.5,
        "velocity": 0.71,
        "hand": "right"
      },
      {
        "midi": 80,
        "time": 533.5,
        "duration": 0.5,
        "velocity": 0.71,
        "hand": "right"
      },
      {
        "midi": 37,
        "time": 534,
        "duration": 0.25,
        "velocity": 0.94,
        "hand": "left"
      },
      {
        "midi": 68,
        "time": 534,
        "duration": 1,
        "velocity": 0.71,
        "hand": "right"
      },
      {
        "midi": 75,
        "time": 534,
        "duration": 0.5,
        "velocity": 0.71,
        "hand": "right"
      },
      {
        "midi": 77,
        "time": 534,
        "duration": 1,
        "velocity": 0.71,
        "hand": "right"
      },
      {
        "midi": 80,
        "time": 534,
        "duration": 1,
        "velocity": 0.71,
        "hand": "right"
      },
      {
        "midi": 44,
        "time": 534.25,
        "duration": 0.25,
        "velocity": 0.94,
        "hand": "left"
      },
      {
        "midi": 46,
        "time": 534.25,
        "duration": 0.25,
        "velocity": 0.94,
        "hand": "left"
      },
      {
        "midi": 48,
        "time": 534.5,
        "duration": 0.25,
        "velocity": 0.94,
        "hand": "left"
      },
      {
        "midi": 73,
        "time": 534.5,
        "duration": 0.5,
        "velocity": 0.71,
        "hand": "right"
      },
      {
        "midi": 49,
        "time": 534.75,
        "duration": 0.25,
        "velocity": 0.94,
        "hand": "left"
      },
      {
        "midi": 51,
        "time": 534.75,
        "duration": 0.25,
        "velocity": 0.94,
        "hand": "left"
      },
      {
        "midi": 53,
        "time": 535,
        "duration": 0.25,
        "velocity": 0.94,
        "hand": "left"
      },
      {
        "midi": 77,
        "time": 535,
        "duration": 0.5,
        "velocity": 0.71,
        "hand": "right"
      },
      {
        "midi": 80,
        "time": 535,
        "duration": 0.5,
        "velocity": 0.71,
        "hand": "right"
      },
      {
        "midi": 89,
        "time": 535,
        "duration": 0.5,
        "velocity": 0.71,
        "hand": "right"
      },
      {
        "midi": 54,
        "time": 535.25,
        "duration": 0.25,
        "velocity": 0.94,
        "hand": "left"
      },
      {
        "midi": 56,
        "time": 535.25,
        "duration": 0.25,
        "velocity": 0.94,
        "hand": "left"
      },
      {
        "midi": 58,
        "time": 535.5,
        "duration": 0.25,
        "velocity": 0.94,
        "hand": "left"
      },
      {
        "midi": 73,
        "time": 535.5,
        "duration": 1,
        "velocity": 0.71,
        "hand": "right"
      },
      {
        "midi": 80,
        "time": 535.5,
        "duration": 1,
        "velocity": 0.71,
        "hand": "right"
      },
      {
        "midi": 85,
        "time": 535.5,
        "duration": 1,
        "velocity": 0.71,
        "hand": "right"
      },
      {
        "midi": 56,
        "time": 535.75,
        "duration": 0.25,
        "velocity": 0.94,
        "hand": "left"
      },
      {
        "midi": 58,
        "time": 535.75,
        "duration": 0.25,
        "velocity": 0.94,
        "hand": "left"
      },
      {
        "midi": 60,
        "time": 536,
        "duration": 0.25,
        "velocity": 0.94,
        "hand": "right"
      },
      {
        "midi": 61,
        "time": 536.25,
        "duration": 0.25,
        "velocity": 0.94,
        "hand": "right"
      },
      {
        "midi": 63,
        "time": 536.25,
        "duration": 0.25,
        "velocity": 0.94,
        "hand": "right"
      },
      {
        "midi": 64,
        "time": 536.5,
        "duration": 0.5,
        "velocity": 0.94,
        "hand": "right"
      },
      {
        "midi": 79,
        "time": 536.5,
        "duration": 0.5,
        "velocity": 0.71,
        "hand": "right"
      },
      {
        "midi": 85,
        "time": 536.5,
        "duration": 0.5,
        "velocity": 0.71,
        "hand": "right"
      },
      {
        "midi": 94,
        "time": 536.5,
        "duration": 0.5,
        "velocity": 0.71,
        "hand": "right"
      },
      {
        "midi": 36,
        "time": 537,
        "duration": 0.25,
        "velocity": 0.94,
        "hand": "left"
      },
      {
        "midi": 82,
        "time": 537,
        "duration": 0.5,
        "velocity": 0.71,
        "hand": "right"
      },
      {
        "midi": 87,
        "time": 537,
        "duration": 0.5,
        "velocity": 0.71,
        "hand": "right"
      },
      {
        "midi": 94,
        "time": 537,
        "duration": 0.5,
        "velocity": 0.71,
        "hand": "right"
      },
      {
        "midi": 48,
        "time": 537.25,
        "duration": 0.25,
        "velocity": 0.94,
        "hand": "left"
      },
      {
        "midi": 51,
        "time": 537.25,
        "duration": 0.25,
        "velocity": 0.94,
        "hand": "left"
      },
      {
        "midi": 56,
        "time": 537.5,
        "duration": 0.25,
        "velocity": 0.94,
        "hand": "left"
      },
      {
        "midi": 80,
        "time": 537.5,
        "duration": 0.5,
        "velocity": 0.71,
        "hand": "right"
      },
      {
        "midi": 87,
        "time": 537.5,
        "duration": 0.5,
        "velocity": 0.71,
        "hand": "right"
      },
      {
        "midi": 92,
        "time": 537.5,
        "duration": 0.5,
        "velocity": 0.71,
        "hand": "right"
      },
      {
        "midi": 51,
        "time": 537.75,
        "duration": 0.25,
        "velocity": 0.94,
        "hand": "left"
      },
      {
        "midi": 56,
        "time": 537.75,
        "duration": 0.25,
        "velocity": 0.94,
        "hand": "left"
      },
      {
        "midi": 60,
        "time": 538,
        "duration": 0.25,
        "velocity": 0.94,
        "hand": "right"
      },
      {
        "midi": 79,
        "time": 538,
        "duration": 0.5,
        "velocity": 0.71,
        "hand": "right"
      },
      {
        "midi": 87,
        "time": 538,
        "duration": 0.5,
        "velocity": 0.71,
        "hand": "right"
      },
      {
        "midi": 91,
        "time": 538,
        "duration": 0.5,
        "velocity": 0.71,
        "hand": "right"
      },
      {
        "midi": 63,
        "time": 538.25,
        "duration": 0.25,
        "velocity": 0.94,
        "hand": "right"
      },
      {
        "midi": 68,
        "time": 538.25,
        "duration": 0.25,
        "velocity": 0.94,
        "hand": "right"
      },
      {
        "midi": 63,
        "time": 538.5,
        "duration": 0.25,
        "velocity": 0.94,
        "hand": "right"
      },
      {
        "midi": 80,
        "time": 538.5,
        "duration": 1,
        "velocity": 0.71,
        "hand": "right"
      },
      {
        "midi": 87,
        "time": 538.5,
        "duration": 1,
        "velocity": 0.71,
        "hand": "right"
      },
      {
        "midi": 92,
        "time": 538.5,
        "duration": 1,
        "velocity": 0.71,
        "hand": "right"
      },
      {
        "midi": 68,
        "time": 538.75,
        "duration": 0.25,
        "velocity": 0.94,
        "hand": "right"
      },
      {
        "midi": 75,
        "time": 538.75,
        "duration": 0.25,
        "velocity": 0.94,
        "hand": "right"
      },
      {
        "midi": 63,
        "time": 539,
        "duration": 0.25,
        "velocity": 0.94,
        "hand": "right"
      },
      {
        "midi": 56,
        "time": 539.25,
        "duration": 0.25,
        "velocity": 0.94,
        "hand": "left"
      },
      {
        "midi": 60,
        "time": 539.25,
        "duration": 0.25,
        "velocity": 0.94,
        "hand": "right"
      },
      {
        "midi": 51,
        "time": 539.5,
        "duration": 0.25,
        "velocity": 0.94,
        "hand": "left"
      },
      {
        "midi": 68,
        "time": 539.5,
        "duration": 0.5,
        "velocity": 0.71,
        "hand": "right"
      },
      {
        "midi": 80,
        "time": 539.5,
        "duration": 0.5,
        "velocity": 0.71,
        "hand": "right"
      },
      {
        "midi": 44,
        "time": 539.75,
        "duration": 0.25,
        "velocity": 0.94,
        "hand": "left"
      },
      {
        "midi": 48,
        "time": 539.75,
        "duration": 0.25,
        "velocity": 0.94,
        "hand": "left"
      },
      {
        "midi": 35,
        "time": 540,
        "duration": 0.5,
        "velocity": 0.94,
        "hand": "left"
      },
      {
        "midi": 68,
        "time": 540,
        "duration": 1,
        "velocity": 0.71,
        "hand": "right"
      },
      {
        "midi": 75,
        "time": 540,
        "duration": 1,
        "velocity": 0.71,
        "hand": "right"
      },
      {
        "midi": 80,
        "time": 540,
        "duration": 1,
        "velocity": 0.71,
        "hand": "right"
      },
      {
        "midi": 47,
        "time": 540.5,
        "duration": 0.25,
        "velocity": 0.94,
        "hand": "left"
      },
      {
        "midi": 49,
        "time": 540.75,
        "duration": 0.25,
        "velocity": 0.94,
        "hand": "left"
      },
      {
        "midi": 53,
        "time": 540.75,
        "duration": 0.25,
        "velocity": 0.94,
        "hand": "left"
      },
      {
        "midi": 63,
        "time": 541,
        "duration": 0.25,
        "velocity": 0.94,
        "hand": "right"
      },
      {
        "midi": 68,
        "time": 541,
        "duration": 0.5,
        "velocity": 0.71,
        "hand": "right"
      },
      {
        "midi": 73,
        "time": 541,
        "duration": 0.5,
        "velocity": 0.71,
        "hand": "right"
      },
      {
        "midi": 49,
        "time": 541.25,
        "duration": 0.25,
        "velocity": 0.94,
        "hand": "left"
      },
      {
        "midi": 53,
        "time": 541.25,
        "duration": 0.25,
        "velocity": 0.94,
        "hand": "left"
      },
      {
        "midi": 46,
        "time": 541.5,
        "duration": 0.25,
        "velocity": 0.94,
        "hand": "left"
      },
      {
        "midi": 68,
        "time": 541.5,
        "duration": 0.5,
        "velocity": 0.71,
        "hand": "right"
      },
      {
        "midi": 73,
        "time": 541.5,
        "duration": 1,
        "velocity": 0.71,
        "hand": "right"
      },
      {
        "midi": 49,
        "time": 541.75,
        "duration": 0.25,
        "velocity": 0.94,
        "hand": "left"
      },
      {
        "midi": 54,
        "time": 541.75,
        "duration": 0.25,
        "velocity": 0.94,
        "hand": "left"
      },
      {
        "midi": 63,
        "time": 542,
        "duration": 0.25,
        "velocity": 0.94,
        "hand": "right"
      },
      {
        "midi": 67,
        "time": 542,
        "duration": 0.5,
        "velocity": 0.71,
        "hand": "right"
      },
      {
        "midi": 49,
        "time": 542.25,
        "duration": 0.25,
        "velocity": 0.94,
        "hand": "left"
      },
      {
        "midi": 54,
        "time": 542.25,
        "duration": 0.25,
        "velocity": 0.94,
        "hand": "left"
      },
      {
        "midi": 61,
        "time": 542.5,
        "duration": 0.25,
        "velocity": 0.94,
        "hand": "right"
      },
      {
        "midi": 66,
        "time": 542.5,
        "duration": 0.5,
        "velocity": 0.71,
        "hand": "right"
      },
      {
        "midi": 73,
        "time": 542.5,
        "duration": 0.5,
        "velocity": 0.71,
        "hand": "right"
      },
      {
        "midi": 78,
        "time": 542.5,
        "duration": 0.5,
        "velocity": 0.71,
        "hand": "right"
      },
      {
        "midi": 49,
        "time": 542.75,
        "duration": 0.25,
        "velocity": 0.94,
        "hand": "left"
      },
      {
        "midi": 54,
        "time": 542.75,
        "duration": 0.25,
        "velocity": 0.94,
        "hand": "left"
      },
      {
        "midi": 44,
        "time": 543,
        "duration": 0.25,
        "velocity": 0.94,
        "hand": "left"
      },
      {
        "midi": 65,
        "time": 543,
        "duration": 1,
        "velocity": 0.71,
        "hand": "right"
      },
      {
        "midi": 71,
        "time": 543,
        "duration": 1,
        "velocity": 0.71,
        "hand": "right"
      },
      {
        "midi": 73,
        "time": 543,
        "duration": 1,
        "velocity": 0.71,
        "hand": "right"
      },
      {
        "midi": 77,
        "time": 543,
        "duration": 1,
        "velocity": 0.71,
        "hand": "right"
      },
      {
        "midi": 49,
        "time": 543.25,
        "duration": 0.25,
        "velocity": 0.94,
        "hand": "left"
      },
      {
        "midi": 53,
        "time": 543.25,
        "duration": 0.25,
        "velocity": 0.94,
        "hand": "left"
      },
      {
        "midi": 60,
        "time": 543.5,
        "duration": 0.25,
        "velocity": 0.94,
        "hand": "right"
      },
      {
        "midi": 49,
        "time": 543.75,
        "duration": 0.25,
        "velocity": 0.94,
        "hand": "left"
      },
      {
        "midi": 53,
        "time": 543.75,
        "duration": 0.25,
        "velocity": 0.94,
        "hand": "left"
      },
      {
        "midi": 61,
        "time": 544,
        "duration": 0.25,
        "velocity": 0.94,
        "hand": "right"
      },
      {
        "midi": 71,
        "time": 544,
        "duration": 0.5,
        "velocity": 0.71,
        "hand": "right"
      },
      {
        "midi": 73,
        "time": 544,
        "duration": 0.5,
        "velocity": 0.71,
        "hand": "right"
      },
      {
        "midi": 77,
        "time": 544,
        "duration": 0.5,
        "velocity": 0.71,
        "hand": "right"
      },
      {
        "midi": 83,
        "time": 544,
        "duration": 0.5,
        "velocity": 0.71,
        "hand": "right"
      },
      {
        "midi": 49,
        "time": 544.25,
        "duration": 0.25,
        "velocity": 0.94,
        "hand": "left"
      },
      {
        "midi": 53,
        "time": 544.25,
        "duration": 0.25,
        "velocity": 0.94,
        "hand": "left"
      },
      {
        "midi": 42,
        "time": 544.5,
        "duration": 0.25,
        "velocity": 0.94,
        "hand": "left"
      },
      {
        "midi": 71,
        "time": 544.5,
        "duration": 1,
        "velocity": 0.71,
        "hand": "right"
      },
      {
        "midi": 73,
        "time": 544.5,
        "duration": 1,
        "velocity": 0.71,
        "hand": "right"
      },
      {
        "midi": 78,
        "time": 544.5,
        "duration": 1,
        "velocity": 0.71,
        "hand": "right"
      },
      {
        "midi": 83,
        "time": 544.5,
        "duration": 1,
        "velocity": 0.71,
        "hand": "right"
      },
      {
        "midi": 49,
        "time": 544.75,
        "duration": 0.25,
        "velocity": 0.94,
        "hand": "left"
      },
      {
        "midi": 54,
        "time": 544.75,
        "duration": 0.25,
        "velocity": 0.94,
        "hand": "left"
      },
      {
        "midi": 63,
        "time": 545,
        "duration": 0.25,
        "velocity": 0.94,
        "hand": "right"
      },
      {
        "midi": 49,
        "time": 545.25,
        "duration": 0.25,
        "velocity": 0.94,
        "hand": "left"
      },
      {
        "midi": 54,
        "time": 545.25,
        "duration": 0.25,
        "velocity": 0.94,
        "hand": "left"
      },
      {
        "midi": 64,
        "time": 545.5,
        "duration": 0.25,
        "velocity": 0.94,
        "hand": "right"
      },
      {
        "midi": 70,
        "time": 545.5,
        "duration": 0.5,
        "velocity": 0.71,
        "hand": "right"
      },
      {
        "midi": 73,
        "time": 545.5,
        "duration": 0.5,
        "velocity": 0.71,
        "hand": "right"
      },
      {
        "midi": 82,
        "time": 545.5,
        "duration": 0.5,
        "velocity": 0.71,
        "hand": "right"
      },
      {
        "midi": 49,
        "time": 545.75,
        "duration": 0.25,
        "velocity": 0.94,
        "hand": "left"
      },
      {
        "midi": 54,
        "time": 545.75,
        "duration": 0.25,
        "velocity": 0.94,
        "hand": "left"
      },
      {
        "midi": 43,
        "time": 546,
        "duration": 0.25,
        "velocity": 0.94,
        "hand": "left"
      },
      {
        "midi": 70,
        "time": 546,
        "duration": 1,
        "velocity": 0.71,
        "hand": "right"
      },
      {
        "midi": 73,
        "time": 546,
        "duration": 1,
        "velocity": 0.71,
        "hand": "right"
      },
      {
        "midi": 75,
        "time": 546,
        "duration": 1,
        "velocity": 0.71,
        "hand": "right"
      },
      {
        "midi": 82,
        "time": 546,
        "duration": 1,
        "velocity": 0.71,
        "hand": "right"
      },
      {
        "midi": 49,
        "time": 546.25,
        "duration": 0.25,
        "velocity": 0.94,
        "hand": "left"
      },
      {
        "midi": 51,
        "time": 546.25,
        "duration": 0.25,
        "velocity": 0.94,
        "hand": "left"
      },
      {
        "midi": 57,
        "time": 546.5,
        "duration": 0.25,
        "velocity": 0.94,
        "hand": "left"
      },
      {
        "midi": 49,
        "time": 546.75,
        "duration": 0.25,
        "velocity": 0.94,
        "hand": "left"
      },
      {
        "midi": 51,
        "time": 546.75,
        "duration": 0.25,
        "velocity": 0.94,
        "hand": "left"
      },
      {
        "midi": 58,
        "time": 547,
        "duration": 0.25,
        "velocity": 0.94,
        "hand": "left"
      },
      {
        "midi": 63,
        "time": 547,
        "duration": 0.5,
        "velocity": 0.71,
        "hand": "right"
      },
      {
        "midi": 70,
        "time": 547,
        "duration": 0.5,
        "velocity": 0.71,
        "hand": "right"
      },
      {
        "midi": 73,
        "time": 547,
        "duration": 0.5,
        "velocity": 0.71,
        "hand": "right"
      },
      {
        "midi": 75,
        "time": 547,
        "duration": 0.5,
        "velocity": 0.71,
        "hand": "right"
      },
      {
        "midi": 46,
        "time": 547.25,
        "duration": 0.25,
        "velocity": 0.94,
        "hand": "left"
      },
      {
        "midi": 51,
        "time": 547.25,
        "duration": 0.25,
        "velocity": 0.94,
        "hand": "left"
      },
      {
        "midi": 44,
        "time": 547.5,
        "duration": 0.25,
        "velocity": 0.94,
        "hand": "left"
      },
      {
        "midi": 63,
        "time": 547.5,
        "duration": 1,
        "velocity": 0.71,
        "hand": "right"
      },
      {
        "midi": 70,
        "time": 547.5,
        "duration": 0.5,
        "velocity": 0.71,
        "hand": "right"
      },
      {
        "midi": 72,
        "time": 547.5,
        "duration": 1,
        "velocity": 0.71,
        "hand": "right"
      },
      {
        "midi": 75,
        "time": 547.5,
        "duration": 1,
        "velocity": 0.71,
        "hand": "right"
      },
      {
        "midi": 51,
        "time": 547.75,
        "duration": 0.25,
        "velocity": 0.94,
        "hand": "left"
      },
      {
        "midi": 56,
        "time": 547.75,
        "duration": 0.25,
        "velocity": 0.94,
        "hand": "left"
      },
      {
        "midi": 65,
        "time": 548,
        "duration": 0.25,
        "velocity": 0.94,
        "hand": "right"
      },
      {
        "midi": 69,
        "time": 548,
        "duration": 0.5,
        "velocity": 0.71,
        "hand": "right"
      },
      {
        "midi": 51,
        "time": 548.25,
        "duration": 0.25,
        "velocity": 0.94,
        "hand": "left"
      },
      {
        "midi": 56,
        "time": 548.25,
        "duration": 0.25,
        "velocity": 0.94,
        "hand": "left"
      },
      {
        "midi": 63,
        "time": 548.5,
        "duration": 0.25,
        "velocity": 0.94,
        "hand": "right"
      },
      {
        "midi": 68,
        "time": 548.5,
        "duration": 0.5,
        "velocity": 0.71,
        "hand": "right"
      },
      {
        "midi": 75,
        "time": 548.5,
        "duration": 0.5,
        "velocity": 0.71,
        "hand": "right"
      },
      {
        "midi": 80,
        "time": 548.5,
        "duration": 0.5,
        "velocity": 0.71,
        "hand": "right"
      },
      {
        "midi": 51,
        "time": 548.75,
        "duration": 0.25,
        "velocity": 0.94,
        "hand": "left"
      },
      {
        "midi": 56,
        "time": 548.75,
        "duration": 0.25,
        "velocity": 0.94,
        "hand": "left"
      },
      {
        "midi": 46,
        "time": 549,
        "duration": 0.25,
        "velocity": 0.94,
        "hand": "left"
      },
      {
        "midi": 68,
        "time": 549,
        "duration": 0.5,
        "velocity": 0.71,
        "hand": "right"
      },
      {
        "midi": 73,
        "time": 549,
        "duration": 1,
        "velocity": 0.71,
        "hand": "right"
      },
      {
        "midi": 75,
        "time": 549,
        "duration": 1,
        "velocity": 0.71,
        "hand": "right"
      },
      {
        "midi": 80,
        "time": 549,
        "duration": 0.5,
        "velocity": 0.71,
        "hand": "right"
      },
      {
        "midi": 51,
        "time": 549.25,
        "duration": 0.25,
        "velocity": 0.94,
        "hand": "left"
      },
      {
        "midi": 55,
        "time": 549.25,
        "duration": 0.25,
        "velocity": 0.94,
        "hand": "left"
      },
      {
        "midi": 62,
        "time": 549.5,
        "duration": 0.25,
        "velocity": 0.94,
        "hand": "right"
      },
      {
        "midi": 67,
        "time": 549.5,
        "duration": 0.5,
        "velocity": 0.71,
        "hand": "right"
      },
      {
        "midi": 79,
        "time": 549.5,
        "duration": 0.5,
        "velocity": 0.71,
        "hand": "right"
      },
      {
        "midi": 51,
        "time": 549.75,
        "duration": 0.25,
        "velocity": 0.94,
        "hand": "left"
      },
      {
        "midi": 55,
        "time": 549.75,
        "duration": 0.25,
        "velocity": 0.94,
        "hand": "left"
      },
      {
        "midi": 63,
        "time": 550,
        "duration": 0.25,
        "velocity": 0.94,
        "hand": "right"
      },
      {
        "midi": 73,
        "time": 550,
        "duration": 0.5,
        "velocity": 0.71,
        "hand": "right"
      },
      {
        "midi": 75,
        "time": 550,
        "duration": 0.5,
        "velocity": 0.71,
        "hand": "right"
      },
      {
        "midi": 79,
        "time": 550,
        "duration": 0.5,
        "velocity": 0.71,
        "hand": "right"
      },
      {
        "midi": 85,
        "time": 550,
        "duration": 0.5,
        "velocity": 0.71,
        "hand": "right"
      },
      {
        "midi": 51,
        "time": 550.25,
        "duration": 0.25,
        "velocity": 0.94,
        "hand": "left"
      },
      {
        "midi": 55,
        "time": 550.25,
        "duration": 0.25,
        "velocity": 0.94,
        "hand": "left"
      },
      {
        "midi": 44,
        "time": 550.5,
        "duration": 0.25,
        "velocity": 0.94,
        "hand": "left"
      },
      {
        "midi": 73,
        "time": 550.5,
        "duration": 1,
        "velocity": 0.71,
        "hand": "right"
      },
      {
        "midi": 75,
        "time": 550.5,
        "duration": 1,
        "velocity": 0.71,
        "hand": "right"
      },
      {
        "midi": 80,
        "time": 550.5,
        "duration": 1,
        "velocity": 0.71,
        "hand": "right"
      },
      {
        "midi": 85,
        "time": 550.5,
        "duration": 1,
        "velocity": 0.71,
        "hand": "right"
      },
      {
        "midi": 51,
        "time": 550.75,
        "duration": 0.25,
        "velocity": 0.94,
        "hand": "left"
      },
      {
        "midi": 56,
        "time": 550.75,
        "duration": 0.25,
        "velocity": 0.94,
        "hand": "left"
      },
      {
        "midi": 63,
        "time": 551,
        "duration": 0.25,
        "velocity": 0.94,
        "hand": "right"
      },
      {
        "midi": 51,
        "time": 551.25,
        "duration": 0.25,
        "velocity": 0.94,
        "hand": "left"
      },
      {
        "midi": 56,
        "time": 551.25,
        "duration": 0.25,
        "velocity": 0.94,
        "hand": "left"
      },
      {
        "midi": 68,
        "time": 551.5,
        "duration": 0.25,
        "velocity": 0.94,
        "hand": "right"
      },
      {
        "midi": 72,
        "time": 551.5,
        "duration": 0.5,
        "velocity": 0.71,
        "hand": "right"
      },
      {
        "midi": 75,
        "time": 551.5,
        "duration": 0.5,
        "velocity": 0.71,
        "hand": "right"
      },
      {
        "midi": 80,
        "time": 551.5,
        "duration": 0.5,
        "velocity": 0.71,
        "hand": "right"
      },
      {
        "midi": 84,
        "time": 551.5,
        "duration": 0.5,
        "velocity": 0.71,
        "hand": "right"
      },
      {
        "midi": 56,
        "time": 551.75,
        "duration": 0.25,
        "velocity": 0.94,
        "hand": "left"
      },
      {
        "midi": 63,
        "time": 551.75,
        "duration": 0.25,
        "velocity": 0.94,
        "hand": "right"
      },
      {
        "midi": 46,
        "time": 552,
        "duration": 0.25,
        "velocity": 0.94,
        "hand": "left"
      },
      {
        "midi": 72,
        "time": 552,
        "duration": 0.5,
        "velocity": 0.71,
        "hand": "right"
      },
      {
        "midi": 78,
        "time": 552,
        "duration": 0.5,
        "velocity": 0.71,
        "hand": "right"
      },
      {
        "midi": 84,
        "time": 552,
        "duration": 0.5,
        "velocity": 0.71,
        "hand": "right"
      },
      {
        "midi": 49,
        "time": 552.25,
        "duration": 0.25,
        "velocity": 0.94,
        "hand": "left"
      },
      {
        "midi": 54,
        "time": 552.25,
        "duration": 0.25,
        "velocity": 0.94,
        "hand": "left"
      },
      {
        "midi": 58,
        "time": 552.5,
        "duration": 0.25,
        "velocity": 0.94,
        "hand": "left"
      },
      {
        "midi": 70,
        "time": 552.5,
        "duration": 0.5,
        "velocity": 0.71,
        "hand": "right"
      },
      {
        "midi": 73,
        "time": 552.5,
        "duration": 0.5,
        "velocity": 0.71,
        "hand": "right"
      },
      {
        "midi": 78,
        "time": 552.5,
        "duration": 0.5,
        "velocity": 0.71,
        "hand": "right"
      },
      {
        "midi": 82,
        "time": 552.5,
        "duration": 0.5,
        "velocity": 0.71,
        "hand": "right"
      },
      {
        "midi": 49,
        "time": 552.75,
        "duration": 0.25,
        "velocity": 0.94,
        "hand": "left"
      },
      {
        "midi": 54,
        "time": 552.75,
        "duration": 0.25,
        "velocity": 0.94,
        "hand": "left"
      },
      {
        "midi": 61,
        "time": 553,
        "duration": 0.25,
        "velocity": 0.94,
        "hand": "right"
      },
      {
        "midi": 66,
        "time": 553,
        "duration": 0.5,
        "velocity": 0.71,
        "hand": "right"
      },
      {
        "midi": 73,
        "time": 553,
        "duration": 0.5,
        "velocity": 0.71,
        "hand": "right"
      },
      {
        "midi": 78,
        "time": 553,
        "duration": 0.5,
        "velocity": 0.71,
        "hand": "right"
      },
      {
        "midi": 49,
        "time": 553.25,
        "duration": 0.25,
        "velocity": 0.94,
        "hand": "left"
      },
      {
        "midi": 54,
        "time": 553.25,
        "duration": 0.25,
        "velocity": 0.94,
        "hand": "left"
      },
      {
        "midi": 34,
        "time": 553.5,
        "duration": 0.25,
        "velocity": 0.94,
        "hand": "left"
      },
      {
        "midi": 61,
        "time": 553.5,
        "duration": 0.5,
        "velocity": 0.71,
        "hand": "right"
      },
      {
        "midi": 66,
        "time": 553.5,
        "duration": 0.5,
        "velocity": 0.71,
        "hand": "right"
      },
      {
        "midi": 73,
        "time": 553.5,
        "duration": 0.5,
        "velocity": 0.71,
        "hand": "right"
      },
      {
        "midi": 42,
        "time": 553.75,
        "duration": 0.25,
        "velocity": 0.94,
        "hand": "left"
      },
      {
        "midi": 49,
        "time": 554,
        "duration": 0.25,
        "velocity": 0.94,
        "hand": "left"
      },
      {
        "midi": 58,
        "time": 554,
        "duration": 0.75,
        "velocity": 0.71,
        "hand": "left"
      },
      {
        "midi": 61,
        "time": 554,
        "duration": 0.75,
        "velocity": 0.71,
        "hand": "right"
      },
      {
        "midi": 70,
        "time": 554,
        "duration": 0.75,
        "velocity": 0.71,
        "hand": "right"
      },
      {
        "midi": 42,
        "time": 554.25,
        "duration": 0.25,
        "velocity": 0.94,
        "hand": "left"
      },
      {
        "midi": 49,
        "time": 554.25,
        "duration": 0.25,
        "velocity": 0.94,
        "hand": "left"
      },
      {
        "midi": 42,
        "time": 554.5,
        "duration": 0.25,
        "velocity": 0.94,
        "hand": "left"
      },
      {
        "midi": 42,
        "time": 554.75,
        "duration": 0.25,
        "velocity": 0.94,
        "hand": "left"
      },
      {
        "midi": 49,
        "time": 554.75,
        "duration": 0.25,
        "velocity": 0.94,
        "hand": "left"
      },
      {
        "midi": 56,
        "time": 554.75,
        "duration": 0.25,
        "velocity": 0.71,
        "hand": "left"
      },
      {
        "midi": 61,
        "time": 554.75,
        "duration": 0.25,
        "velocity": 0.71,
        "hand": "right"
      },
      {
        "midi": 68,
        "time": 554.75,
        "duration": 0.25,
        "velocity": 0.71,
        "hand": "right"
      },
      {
        "midi": 34,
        "time": 555,
        "duration": 0.25,
        "velocity": 0.94,
        "hand": "left"
      },
      {
        "midi": 56,
        "time": 555,
        "duration": 1,
        "velocity": 0.71,
        "hand": "left"
      },
      {
        "midi": 61,
        "time": 555,
        "duration": 1,
        "velocity": 0.71,
        "hand": "right"
      },
      {
        "midi": 68,
        "time": 555,
        "duration": 1,
        "velocity": 0.71,
        "hand": "right"
      },
      {
        "midi": 42,
        "time": 555.25,
        "duration": 0.25,
        "velocity": 0.94,
        "hand": "left"
      },
      {
        "midi": 49,
        "time": 555.5,
        "duration": 0.25,
        "velocity": 0.94,
        "hand": "left"
      },
      {
        "midi": 42,
        "time": 555.75,
        "duration": 0.25,
        "velocity": 0.94,
        "hand": "left"
      },
      {
        "midi": 49,
        "time": 555.75,
        "duration": 0.25,
        "velocity": 0.94,
        "hand": "left"
      },
      {
        "midi": 42,
        "time": 556,
        "duration": 0.25,
        "velocity": 0.94,
        "hand": "left"
      },
      {
        "midi": 54,
        "time": 556,
        "duration": 1,
        "velocity": 0.71,
        "hand": "left"
      },
      {
        "midi": 61,
        "time": 556,
        "duration": 1,
        "velocity": 0.71,
        "hand": "right"
      },
      {
        "midi": 66,
        "time": 556,
        "duration": 1,
        "velocity": 0.71,
        "hand": "right"
      },
      {
        "midi": 42,
        "time": 556.25,
        "duration": 0.25,
        "velocity": 0.94,
        "hand": "left"
      },
      {
        "midi": 49,
        "time": 556.25,
        "duration": 0.25,
        "velocity": 0.94,
        "hand": "left"
      },
      {
        "midi": 34,
        "time": 556.5,
        "duration": 0.25,
        "velocity": 0.94,
        "hand": "left"
      },
      {
        "midi": 42,
        "time": 556.75,
        "duration": 0.25,
        "velocity": 0.94,
        "hand": "left"
      },
      {
        "midi": 49,
        "time": 557,
        "duration": 0.25,
        "velocity": 0.94,
        "hand": "left"
      },
      {
        "midi": 53,
        "time": 557,
        "duration": 0.75,
        "velocity": 0.71,
        "hand": "left"
      },
      {
        "midi": 61,
        "time": 557,
        "duration": 0.75,
        "velocity": 0.71,
        "hand": "right"
      },
      {
        "midi": 65,
        "time": 557,
        "duration": 0.75,
        "velocity": 0.71,
        "hand": "right"
      },
      {
        "midi": 42,
        "time": 557.25,
        "duration": 0.25,
        "velocity": 0.94,
        "hand": "left"
      },
      {
        "midi": 49,
        "time": 557.25,
        "duration": 0.25,
        "velocity": 0.94,
        "hand": "left"
      },
      {
        "midi": 42,
        "time": 557.5,
        "duration": 0.25,
        "velocity": 0.94,
        "hand": "left"
      },
      {
        "midi": 42,
        "time": 557.75,
        "duration": 0.25,
        "velocity": 0.94,
        "hand": "left"
      },
      {
        "midi": 49,
        "time": 557.75,
        "duration": 0.25,
        "velocity": 0.94,
        "hand": "left"
      },
      {
        "midi": 54,
        "time": 557.75,
        "duration": 0.25,
        "velocity": 0.71,
        "hand": "left"
      },
      {
        "midi": 61,
        "time": 557.75,
        "duration": 0.25,
        "velocity": 0.71,
        "hand": "right"
      },
      {
        "midi": 66,
        "time": 557.75,
        "duration": 0.25,
        "velocity": 0.71,
        "hand": "right"
      },
      {
        "midi": 34,
        "time": 558,
        "duration": 0.25,
        "velocity": 0.94,
        "hand": "left"
      },
      {
        "midi": 55,
        "time": 558,
        "duration": 1,
        "velocity": 0.71,
        "hand": "left"
      },
      {
        "midi": 61,
        "time": 558,
        "duration": 1,
        "velocity": 0.71,
        "hand": "right"
      },
      {
        "midi": 65,
        "time": 558,
        "duration": 1,
        "velocity": 0.71,
        "hand": "right"
      },
      {
        "midi": 67,
        "time": 558,
        "duration": 1,
        "velocity": 0.71,
        "hand": "right"
      },
      {
        "midi": 41,
        "time": 558.25,
        "duration": 0.25,
        "velocity": 0.94,
        "hand": "left"
      },
      {
        "midi": 49,
        "time": 558.5,
        "duration": 0.25,
        "velocity": 0.94,
        "hand": "left"
      },
      {
        "midi": 41,
        "time": 558.75,
        "duration": 0.25,
        "velocity": 0.94,
        "hand": "left"
      },
      {
        "midi": 49,
        "time": 558.75,
        "duration": 0.25,
        "velocity": 0.94,
        "hand": "left"
      },
      {
        "midi": 41,
        "time": 559,
        "duration": 0.25,
        "velocity": 0.94,
        "hand": "left"
      },
      {
        "midi": 55,
        "time": 559,
        "duration": 0.5,
        "velocity": 0.71,
        "hand": "left"
      },
      {
        "midi": 65,
        "time": 559,
        "duration": 0.5,
        "velocity": 0.71,
        "hand": "right"
      },
      {
        "midi": 67,
        "time": 559,
        "duration": 0.5,
        "velocity": 0.71,
        "hand": "right"
      },
      {
        "midi": 41,
        "time": 559.25,
        "duration": 0.25,
        "velocity": 0.94,
        "hand": "left"
      },
      {
        "midi": 49,
        "time": 559.25,
        "duration": 0.25,
        "velocity": 0.94,
        "hand": "left"
      },
      {
        "midi": 36,
        "time": 559.5,
        "duration": 0.5,
        "velocity": 0.71,
        "hand": "left"
      },
      {
        "midi": 56,
        "time": 559.5,
        "duration": 1,
        "velocity": 0.71,
        "hand": "left"
      },
      {
        "midi": 65,
        "time": 559.5,
        "duration": 1,
        "velocity": 0.71,
        "hand": "right"
      },
      {
        "midi": 68,
        "time": 559.5,
        "duration": 1,
        "velocity": 0.71,
        "hand": "right"
      },
      {
        "midi": 41,
        "time": 559.75,
        "duration": 0.25,
        "velocity": 0.71,
        "hand": "left"
      },
      {
        "midi": 48,
        "time": 560,
        "duration": 0.25,
        "velocity": 0.71,
        "hand": "left"
      },
      {
        "midi": 49,
        "time": 560.25,
        "duration": 0.25,
        "velocity": 0.75,
        "hand": "left"
      },
      {
        "midi": 50,
        "time": 560.25,
        "duration": 0.25,
        "velocity": 0.8,
        "hand": "left"
      },
      {
        "midi": 51,
        "time": 560.5,
        "duration": 0.25,
        "velocity": 0.84,
        "hand": "left"
      },
      {
        "midi": 57,
        "time": 560.5,
        "duration": 0.5,
        "velocity": 0.71,
        "hand": "left"
      },
      {
        "midi": 65,
        "time": 560.5,
        "duration": 0.5,
        "velocity": 0.71,
        "hand": "right"
      },
      {
        "midi": 69,
        "time": 560.5,
        "duration": 0.5,
        "velocity": 0.71,
        "hand": "right"
      },
      {
        "midi": 52,
        "time": 560.75,
        "duration": 0.25,
        "velocity": 0.89,
        "hand": "left"
      },
      {
        "midi": 53,
        "time": 560.75,
        "duration": 0.25,
        "velocity": 0.93,
        "hand": "left"
      },
      {
        "midi": 37,
        "time": 561,
        "duration": 0.5,
        "velocity": 0.71,
        "hand": "left"
      },
      {
        "midi": 60,
        "time": 561,
        "duration": 1,
        "velocity": 0.71,
        "hand": "right"
      },
      {
        "midi": 65,
        "time": 561,
        "duration": 1,
        "velocity": 0.71,
        "hand": "right"
      },
      {
        "midi": 72,
        "time": 561,
        "duration": 1,
        "velocity": 0.71,
        "hand": "right"
      },
      {
        "midi": 46,
        "time": 561.25,
        "duration": 0.25,
        "velocity": 0.93,
        "hand": "left"
      },
      {
        "midi": 48,
        "time": 561.5,
        "duration": 0.25,
        "velocity": 0.93,
        "hand": "left"
      },
      {
        "midi": 49,
        "time": 561.75,
        "duration": 0.25,
        "velocity": 0.94,
        "hand": "left"
      },
      {
        "midi": 50,
        "time": 561.75,
        "duration": 0.25,
        "velocity": 0.96,
        "hand": "left"
      },
      {
        "midi": 51,
        "time": 562,
        "duration": 0.25,
        "velocity": 0.97,
        "hand": "left"
      },
      {
        "midi": 58,
        "time": 562,
        "duration": 0.5,
        "velocity": 0.71,
        "hand": "left"
      },
      {
        "midi": 65,
        "time": 562,
        "duration": 0.5,
        "velocity": 0.71,
        "hand": "right"
      },
      {
        "midi": 70,
        "time": 562,
        "duration": 0.5,
        "velocity": 0.71,
        "hand": "right"
      },
      {
        "midi": 52,
        "time": 562.25,
        "duration": 0.25,
        "velocity": 0.98,
        "hand": "left"
      },
      {
        "midi": 53,
        "time": 562.25,
        "duration": 0.25,
        "velocity": 1,
        "hand": "left"
      },
      {
        "midi": 40,
        "time": 562.5,
        "duration": 0.5,
        "velocity": 1,
        "hand": "left"
      },
      {
        "midi": 61,
        "time": 562.5,
        "duration": 0.5,
        "velocity": 0.71,
        "hand": "right"
      },
      {
        "midi": 67,
        "time": 562.5,
        "duration": 0.5,
        "velocity": 0.71,
        "hand": "right"
      },
      {
        "midi": 73,
        "time": 562.5,
        "duration": 0.5,
        "velocity": 0.71,
        "hand": "right"
      },
      {
        "midi": 48,
        "time": 562.75,
        "duration": 0.25,
        "velocity": 1,
        "hand": "left"
      },
      {
        "midi": 50,
        "time": 563,
        "duration": 0.25,
        "velocity": 1,
        "hand": "left"
      },
      {
        "midi": 59,
        "time": 563,
        "duration": 0.5,
        "velocity": 0.71,
        "hand": "left"
      },
      {
        "midi": 67,
        "time": 563,
        "duration": 0.5,
        "velocity": 0.71,
        "hand": "right"
      },
      {
        "midi": 71,
        "time": 563,
        "duration": 0.5,
        "velocity": 0.71,
        "hand": "right"
      },
      {
        "midi": 51,
        "time": 563.25,
        "duration": 0.25,
        "velocity": 1,
        "hand": "left"
      },
      {
        "midi": 52,
        "time": 563.25,
        "duration": 0.25,
        "velocity": 1,
        "hand": "left"
      },
      {
        "midi": 53,
        "time": 563.5,
        "duration": 0.25,
        "velocity": 1,
        "hand": "left"
      },
      {
        "midi": 60,
        "time": 563.5,
        "duration": 0.5,
        "velocity": 0.71,
        "hand": "right"
      },
      {
        "midi": 67,
        "time": 563.5,
        "duration": 0.5,
        "velocity": 0.71,
        "hand": "right"
      },
      {
        "midi": 72,
        "time": 563.5,
        "duration": 0.5,
        "velocity": 0.71,
        "hand": "right"
      },
      {
        "midi": 54,
        "time": 563.75,
        "duration": 0.25,
        "velocity": 1,
        "hand": "left"
      },
      {
        "midi": 55,
        "time": 563.75,
        "duration": 0.25,
        "velocity": 1,
        "hand": "left"
      },
      {
        "midi": 41,
        "time": 564,
        "duration": 0.5,
        "velocity": 1,
        "hand": "left"
      },
      {
        "midi": 63,
        "time": 564,
        "duration": 1,
        "velocity": 0.71,
        "hand": "right"
      },
      {
        "midi": 68,
        "time": 564,
        "duration": 1,
        "velocity": 0.71,
        "hand": "right"
      },
      {
        "midi": 75,
        "time": 564,
        "duration": 1,
        "velocity": 0.71,
        "hand": "right"
      },
      {
        "midi": 49,
        "time": 564.25,
        "duration": 0.25,
        "velocity": 1,
        "hand": "left"
      },
      {
        "midi": 51,
        "time": 564.5,
        "duration": 0.25,
        "velocity": 1,
        "hand": "left"
      },
      {
        "midi": 52,
        "time": 564.75,
        "duration": 0.25,
        "velocity": 1,
        "hand": "left"
      },
      {
        "midi": 53,
        "time": 564.75,
        "duration": 0.25,
        "velocity": 1,
        "hand": "left"
      },
      {
        "midi": 54,
        "time": 565,
        "duration": 0.25,
        "velocity": 1,
        "hand": "left"
      },
      {
        "midi": 61,
        "time": 565,
        "duration": 0.5,
        "velocity": 0.71,
        "hand": "right"
      },
      {
        "midi": 68,
        "time": 565,
        "duration": 0.5,
        "velocity": 0.71,
        "hand": "right"
      },
      {
        "midi": 73,
        "time": 565,
        "duration": 0.5,
        "velocity": 0.71,
        "hand": "right"
      },
      {
        "midi": 55,
        "time": 565.25,
        "duration": 0.25,
        "velocity": 1,
        "hand": "left"
      },
      {
        "midi": 56,
        "time": 565.25,
        "duration": 0.25,
        "velocity": 1,
        "hand": "left"
      },
      {
        "midi": 43,
        "time": 565.5,
        "duration": 0.5,
        "velocity": 1,
        "hand": "left"
      },
      {
        "midi": 52,
        "time": 565.75,
        "duration": 0.25,
        "velocity": 1,
        "hand": "left"
      },
      {
        "midi": 53,
        "time": 566,
        "duration": 0.25,
        "velocity": 1,
        "hand": "left"
      },
      {
        "midi": 63,
        "time": 566,
        "duration": 0.5,
        "velocity": 0.71,
        "hand": "right"
      },
      {
        "midi": 72,
        "time": 566,
        "duration": 0.5,
        "velocity": 0.71,
        "hand": "right"
      },
      {
        "midi": 75,
        "time": 566,
        "duration": 0.5,
        "velocity": 0.71,
        "hand": "right"
      },
      {
        "midi": 54,
        "time": 566.25,
        "duration": 0.25,
        "velocity": 1,
        "hand": "left"
      },
      {
        "midi": 55,
        "time": 566.25,
        "duration": 0.25,
        "velocity": 1,
        "hand": "left"
      },
      {
        "midi": 56,
        "time": 566.5,
        "duration": 0.25,
        "velocity": 1,
        "hand": "left"
      },
      {
        "midi": 64,
        "time": 566.5,
        "duration": 0.5,
        "velocity": 0.71,
        "hand": "right"
      },
      {
        "midi": 72,
        "time": 566.5,
        "duration": 0.5,
        "velocity": 0.71,
        "hand": "right"
      },
      {
        "midi": 76,
        "time": 566.5,
        "duration": 0.5,
        "velocity": 0.71,
        "hand": "right"
      },
      {
        "midi": 57,
        "time": 566.75,
        "duration": 0.25,
        "velocity": 1,
        "hand": "left"
      },
      {
        "midi": 58,
        "time": 566.75,
        "duration": 0.25,
        "velocity": 1,
        "hand": "left"
      },
      {
        "midi": 44,
        "time": 567,
        "duration": 0.25,
        "velocity": 0.94,
        "hand": "left"
      },
      {
        "midi": 65,
        "time": 567,
        "duration": 0.5,
        "velocity": 0.71,
        "hand": "right"
      },
      {
        "midi": 72,
        "time": 567,
        "duration": 0.25,
        "velocity": 0.71,
        "hand": "right"
      },
      {
        "midi": 77,
        "time": 567,
        "duration": 0.5,
        "velocity": 0.71,
        "hand": "right"
      },
      {
        "midi": 53,
        "time": 567.25,
        "duration": 0.25,
        "velocity": 0.94,
        "hand": "left"
      },
      {
        "midi": 56,
        "time": 567.25,
        "duration": 0.25,
        "velocity": 0.94,
        "hand": "left"
      },
      {
        "midi": 73,
        "time": 567.25,
        "duration": 0.25,
        "velocity": 0.71,
        "hand": "right"
      },
      {
        "midi": 75,
        "time": 567.25,
        "duration": 0.25,
        "velocity": 0.71,
        "hand": "right"
      },
      {
        "midi": 61,
        "time": 567.5,
        "duration": 0.25,
        "velocity": 0.94,
        "hand": "right"
      },
      {
        "midi": 70,
        "time": 567.5,
        "duration": 0.5,
        "velocity": 0.71,
        "hand": "right"
      },
      {
        "midi": 73,
        "time": 567.5,
        "duration": 0.5,
        "velocity": 0.71,
        "hand": "right"
      },
      {
        "midi": 82,
        "time": 567.5,
        "duration": 0.5,
        "velocity": 0.71,
        "hand": "right"
      },
      {
        "midi": 56,
        "time": 567.75,
        "duration": 0.25,
        "velocity": 0.94,
        "hand": "left"
      },
      {
        "midi": 65,
        "time": 567.75,
        "duration": 0.25,
        "velocity": 0.94,
        "hand": "right"
      },
      {
        "midi": 61,
        "time": 568,
        "duration": 0.25,
        "velocity": 0.94,
        "hand": "right"
      },
      {
        "midi": 68,
        "time": 568,
        "duration": 0.5,
        "velocity": 0.71,
        "hand": "right"
      },
      {
        "midi": 77,
        "time": 568,
        "duration": 0.5,
        "velocity": 0.71,
        "hand": "right"
      },
      {
        "midi": 80,
        "time": 568,
        "duration": 0.5,
        "velocity": 0.71,
        "hand": "right"
      },
      {
        "midi": 53,
        "time": 568.25,
        "duration": 0.25,
        "velocity": 0.94,
        "hand": "left"
      },
      {
        "midi": 56,
        "time": 568.25,
        "duration": 0.25,
        "velocity": 0.94,
        "hand": "left"
      },
      {
        "midi": 32,
        "time": 568.5,
        "duration": 0.25,
        "velocity": 0.94,
        "hand": "left"
      },
      {
        "midi": 66,
        "time": 568.5,
        "duration": 1,
        "velocity": 0.71,
        "hand": "right"
      },
      {
        "midi": 72,
        "time": 568.5,
        "duration": 1,
        "velocity": 0.71,
        "hand": "right"
      },
      {
        "midi": 80,
        "time": 568.5,
        "duration": 1,
        "velocity": 0.71,
        "hand": "right"
      },
      {
        "midi": 44,
        "time": 568.75,
        "duration": 0.25,
        "velocity": 0.94,
        "hand": "left"
      },
      {
        "midi": 51,
        "time": 568.75,
        "duration": 0.25,
        "velocity": 0.94,
        "hand": "left"
      },
      {
        "midi": 60,
        "time": 569,
        "duration": 0.25,
        "velocity": 0.94,
        "hand": "right"
      },
      {
        "midi": 56,
        "time": 569.25,
        "duration": 0.25,
        "velocity": 0.94,
        "hand": "left"
      },
      {
        "midi": 66,
        "time": 569.25,
        "duration": 0.25,
        "velocity": 0.94,
        "hand": "right"
      },
      {
        "midi": 60,
        "time": 569.5,
        "duration": 0.25,
        "velocity": 0.94,
        "hand": "right"
      },
      {
        "midi": 66,
        "time": 569.5,
        "duration": 0.5,
        "velocity": 0.71,
        "hand": "right"
      },
      {
        "midi": 72,
        "time": 569.5,
        "duration": 0.5,
        "velocity": 0.71,
        "hand": "right"
      },
      {
        "midi": 78,
        "time": 569.5,
        "duration": 0.5,
        "velocity": 0.71,
        "hand": "right"
      },
      {
        "midi": 51,
        "time": 569.75,
        "duration": 0.25,
        "velocity": 0.94,
        "hand": "left"
      },
      {
        "midi": 56,
        "time": 569.75,
        "duration": 0.25,
        "velocity": 0.94,
        "hand": "left"
      },
      {
        "midi": 37,
        "time": 570,
        "duration": 0.5,
        "velocity": 0.94,
        "hand": "left"
      },
      {
        "midi": 65,
        "time": 570,
        "duration": 0.5,
        "velocity": 0.71,
        "hand": "right"
      },
      {
        "midi": 73,
        "time": 570,
        "duration": 0.5,
        "velocity": 0.71,
        "hand": "right"
      },
      {
        "midi": 77,
        "time": 570,
        "duration": 0.5,
        "velocity": 0.71,
        "hand": "right"
      },
      {
        "midi": 44,
        "time": 570.5,
        "duration": 0.25,
        "velocity": 0.94,
        "hand": "left"
      },
      {
        "midi": 49,
        "time": 570.5,
        "duration": 0.25,
        "velocity": 0.94,
        "hand": "left"
      },
      {
        "midi": 49,
        "time": 570.75,
        "duration": 0.25,
        "velocity": 0.94,
        "hand": "left"
      },
      {
        "midi": 56,
        "time": 570.75,
        "duration": 0.25,
        "velocity": 0.94,
        "hand": "left"
      },
      {
        "midi": 65,
        "time": 570.75,
        "duration": 0.25,
        "velocity": 0.71,
        "hand": "right"
      },
      {
        "midi": 68,
        "time": 570.75,
        "duration": 0.25,
        "velocity": 0.71,
        "hand": "right"
      },
      {
        "midi": 61,
        "time": 571,
        "duration": 0.25,
        "velocity": 0.94,
        "hand": "right"
      },
      {
        "midi": 77,
        "time": 571,
        "duration": 0.25,
        "velocity": 0.71,
        "hand": "right"
      },
      {
        "midi": 61,
        "time": 571.25,
        "duration": 0.25,
        "velocity": 0.94,
        "hand": "right"
      },
      {
        "midi": 68,
        "time": 571.25,
        "duration": 0.25,
        "velocity": 0.94,
        "hand": "right"
      },
      {
        "midi": 77,
        "time": 571.25,
        "duration": 0.25,
        "velocity": 0.71,
        "hand": "right"
      },
      {
        "midi": 80,
        "time": 571.25,
        "duration": 0.25,
        "velocity": 0.71,
        "hand": "right"
      },
      {
        "midi": 73,
        "time": 571.5,
        "duration": 0.25,
        "velocity": 0.94,
        "hand": "right"
      },
      {
        "midi": 89,
        "time": 571.5,
        "duration": 0.25,
        "velocity": 0.71,
        "hand": "right"
      },
      {
        "midi": 61,
        "time": 571.75,
        "duration": 0.25,
        "velocity": 0.94,
        "hand": "right"
      },
      {
        "midi": 68,
        "time": 571.75,
        "duration": 0.25,
        "velocity": 0.94,
        "hand": "right"
      },
      {
        "midi": 77,
        "time": 571.75,
        "duration": 0.25,
        "velocity": 0.71,
        "hand": "right"
      },
      {
        "midi": 80,
        "time": 571.75,
        "duration": 0.25,
        "velocity": 0.71,
        "hand": "right"
      },
      {
        "midi": 61,
        "time": 572,
        "duration": 0.25,
        "velocity": 0.94,
        "hand": "right"
      },
      {
        "midi": 77,
        "time": 572,
        "duration": 0.25,
        "velocity": 0.71,
        "hand": "right"
      },
      {
        "midi": 49,
        "time": 572.25,
        "duration": 0.25,
        "velocity": 0.94,
        "hand": "left"
      },
      {
        "midi": 56,
        "time": 572.25,
        "duration": 0.25,
        "velocity": 0.94,
        "hand": "left"
      },
      {
        "midi": 65,
        "time": 572.25,
        "duration": 0.25,
        "velocity": 0.71,
        "hand": "right"
      },
      {
        "midi": 68,
        "time": 572.25,
        "duration": 0.25,
        "velocity": 0.71,
        "hand": "right"
      },
      {
        "midi": 49,
        "time": 572.5,
        "duration": 0.25,
        "velocity": 0.94,
        "hand": "left"
      },
      {
        "midi": 65,
        "time": 572.5,
        "duration": 0.25,
        "velocity": 0.71,
        "hand": "right"
      },
      {
        "midi": 37,
        "time": 572.75,
        "duration": 0.25,
        "velocity": 0.94,
        "hand": "left"
      },
      {
        "midi": 44,
        "time": 572.75,
        "duration": 0.25,
        "velocity": 0.94,
        "hand": "left"
      },
      {
        "midi": 53,
        "time": 572.75,
        "duration": 0.25,
        "velocity": 0.71,
        "hand": "left"
      },
      {
        "midi": 56,
        "time": 572.75,
        "duration": 0.25,
        "velocity": 0.71,
        "hand": "left"
      },
      {
        "midi": 37,
        "time": 573,
        "duration": 0.5,
        "velocity": 0.94,
        "hand": "left"
      },
      {
        "midi": 65,
        "time": 573,
        "duration": 0.25,
        "velocity": 0.71,
        "hand": "right"
      },
      {
        "midi": 53,
        "time": 573.25,
        "duration": 0.25,
        "velocity": 0.71,
        "hand": "left"
      },
      {
        "midi": 57,
        "time": 573.25,
        "duration": 0.25,
        "velocity": 0.71,
        "hand": "left"
      },
      {
        "midi": 45,
        "time": 573.5,
        "duration": 0.25,
        "velocity": 0.94,
        "hand": "left"
      },
      {
        "midi": 49,
        "time": 573.5,
        "duration": 0.25,
        "velocity": 0.94,
        "hand": "left"
      },
      {
        "midi": 65,
        "time": 573.5,
        "duration": 0.25,
        "velocity": 0.71,
        "hand": "right"
      },
      {
        "midi": 49,
        "time": 573.75,
        "duration": 0.25,
        "velocity": 0.94,
        "hand": "left"
      },
      {
        "midi": 57,
        "time": 573.75,
        "duration": 0.25,
        "velocity": 0.94,
        "hand": "left"
      },
      {
        "midi": 65,
        "time": 573.75,
        "duration": 0.25,
        "velocity": 0.71,
        "hand": "right"
      },
      {
        "midi": 69,
        "time": 573.75,
        "duration": 0.25,
        "velocity": 0.71,
        "hand": "right"
      },
      {
        "midi": 61,
        "time": 574,
        "duration": 0.25,
        "velocity": 0.94,
        "hand": "right"
      },
      {
        "midi": 77,
        "time": 574,
        "duration": 0.25,
        "velocity": 0.71,
        "hand": "right"
      },
      {
        "midi": 61,
        "time": 574.25,
        "duration": 0.25,
        "velocity": 0.94,
        "hand": "right"
      },
      {
        "midi": 69,
        "time": 574.25,
        "duration": 0.25,
        "velocity": 0.94,
        "hand": "right"
      },
      {
        "midi": 77,
        "time": 574.25,
        "duration": 0.25,
        "velocity": 0.71,
        "hand": "right"
      },
      {
        "midi": 81,
        "time": 574.25,
        "duration": 0.25,
        "velocity": 0.71,
        "hand": "right"
      },
      {
        "midi": 73,
        "time": 574.5,
        "duration": 0.25,
        "velocity": 0.94,
        "hand": "right"
      },
      {
        "midi": 89,
        "time": 574.5,
        "duration": 0.25,
        "velocity": 0.71,
        "hand": "right"
      },
      {
        "midi": 61,
        "time": 574.75,
        "duration": 0.25,
        "velocity": 0.94,
        "hand": "right"
      },
      {
        "midi": 69,
        "time": 574.75,
        "duration": 0.25,
        "velocity": 0.94,
        "hand": "right"
      },
      {
        "midi": 77,
        "time": 574.75,
        "duration": 0.25,
        "velocity": 0.71,
        "hand": "right"
      },
      {
        "midi": 81,
        "time": 574.75,
        "duration": 0.25,
        "velocity": 0.71,
        "hand": "right"
      },
      {
        "midi": 61,
        "time": 575,
        "duration": 0.25,
        "velocity": 0.94,
        "hand": "right"
      },
      {
        "midi": 77,
        "time": 575,
        "duration": 0.25,
        "velocity": 0.71,
        "hand": "right"
      },
      {
        "midi": 49,
        "time": 575.25,
        "duration": 0.25,
        "velocity": 0.94,
        "hand": "left"
      },
      {
        "midi": 57,
        "time": 575.25,
        "duration": 0.25,
        "velocity": 0.94,
        "hand": "left"
      },
      {
        "midi": 65,
        "time": 575.25,
        "duration": 0.25,
        "velocity": 0.71,
        "hand": "right"
      },
      {
        "midi": 69,
        "time": 575.25,
        "duration": 0.25,
        "velocity": 0.71,
        "hand": "right"
      },
      {
        "midi": 49,
        "time": 575.5,
        "duration": 0.25,
        "velocity": 0.94,
        "hand": "left"
      },
      {
        "midi": 65,
        "time": 575.5,
        "duration": 0.25,
        "velocity": 0.71,
        "hand": "right"
      },
      {
        "midi": 37,
        "time": 575.75,
        "duration": 0.25,
        "velocity": 0.94,
        "hand": "left"
      },
      {
        "midi": 45,
        "time": 575.75,
        "duration": 0.25,
        "velocity": 0.94,
        "hand": "left"
      },
      {
        "midi": 53,
        "time": 575.75,
        "duration": 0.25,
        "velocity": 0.71,
        "hand": "left"
      },
      {
        "midi": 57,
        "time": 575.75,
        "duration": 0.25,
        "velocity": 0.71,
        "hand": "left"
      },
      {
        "midi": 37,
        "time": 576,
        "duration": 0.5,
        "velocity": 0.94,
        "hand": "left"
      },
      {
        "midi": 65,
        "time": 576,
        "duration": 0.25,
        "velocity": 0.71,
        "hand": "right"
      },
      {
        "midi": 53,
        "time": 576.25,
        "duration": 0.25,
        "velocity": 0.71,
        "hand": "left"
      },
      {
        "midi": 58,
        "time": 576.25,
        "duration": 0.25,
        "velocity": 0.71,
        "hand": "left"
      },
      {
        "midi": 46,
        "time": 576.5,
        "duration": 0.25,
        "velocity": 0.94,
        "hand": "left"
      },
      {
        "midi": 49,
        "time": 576.5,
        "duration": 0.25,
        "velocity": 0.94,
        "hand": "left"
      },
      {
        "midi": 65,
        "time": 576.5,
        "duration": 0.25,
        "velocity": 0.71,
        "hand": "right"
      },
      {
        "midi": 49,
        "time": 576.75,
        "duration": 0.25,
        "velocity": 0.94,
        "hand": "left"
      },
      {
        "midi": 58,
        "time": 576.75,
        "duration": 0.25,
        "velocity": 0.94,
        "hand": "left"
      },
      {
        "midi": 65,
        "time": 576.75,
        "duration": 0.25,
        "velocity": 0.71,
        "hand": "right"
      },
      {
        "midi": 70,
        "time": 576.75,
        "duration": 0.25,
        "velocity": 0.71,
        "hand": "right"
      },
      {
        "midi": 61,
        "time": 577,
        "duration": 0.25,
        "velocity": 0.94,
        "hand": "right"
      },
      {
        "midi": 77,
        "time": 577,
        "duration": 0.25,
        "velocity": 0.71,
        "hand": "right"
      },
      {
        "midi": 61,
        "time": 577.25,
        "duration": 0.25,
        "velocity": 0.94,
        "hand": "right"
      },
      {
        "midi": 70,
        "time": 577.25,
        "duration": 0.25,
        "velocity": 0.94,
        "hand": "right"
      },
      {
        "midi": 77,
        "time": 577.25,
        "duration": 0.25,
        "velocity": 0.71,
        "hand": "right"
      },
      {
        "midi": 82,
        "time": 577.25,
        "duration": 0.25,
        "velocity": 0.71,
        "hand": "right"
      },
      {
        "midi": 73,
        "time": 577.5,
        "duration": 0.25,
        "velocity": 0.94,
        "hand": "right"
      },
      {
        "midi": 89,
        "time": 577.5,
        "duration": 0.25,
        "velocity": 0.71,
        "hand": "right"
      },
      {
        "midi": 61,
        "time": 577.75,
        "duration": 0.25,
        "velocity": 0.94,
        "hand": "right"
      },
      {
        "midi": 70,
        "time": 577.75,
        "duration": 0.25,
        "velocity": 0.94,
        "hand": "right"
      },
      {
        "midi": 77,
        "time": 577.75,
        "duration": 0.25,
        "velocity": 0.71,
        "hand": "right"
      },
      {
        "midi": 82,
        "time": 577.75,
        "duration": 0.25,
        "velocity": 0.71,
        "hand": "right"
      },
      {
        "midi": 61,
        "time": 578,
        "duration": 0.25,
        "velocity": 0.94,
        "hand": "right"
      },
      {
        "midi": 77,
        "time": 578,
        "duration": 0.25,
        "velocity": 0.71,
        "hand": "right"
      },
      {
        "midi": 49,
        "time": 578.25,
        "duration": 0.25,
        "velocity": 0.94,
        "hand": "left"
      },
      {
        "midi": 58,
        "time": 578.25,
        "duration": 0.25,
        "velocity": 0.94,
        "hand": "left"
      },
      {
        "midi": 65,
        "time": 578.25,
        "duration": 0.25,
        "velocity": 0.71,
        "hand": "right"
      },
      {
        "midi": 70,
        "time": 578.25,
        "duration": 0.25,
        "velocity": 0.71,
        "hand": "right"
      },
      {
        "midi": 49,
        "time": 578.5,
        "duration": 0.25,
        "velocity": 0.94,
        "hand": "left"
      },
      {
        "midi": 65,
        "time": 578.5,
        "duration": 0.25,
        "velocity": 0.71,
        "hand": "right"
      },
      {
        "midi": 37,
        "time": 578.75,
        "duration": 0.25,
        "velocity": 0.94,
        "hand": "left"
      },
      {
        "midi": 46,
        "time": 578.75,
        "duration": 0.25,
        "velocity": 0.94,
        "hand": "left"
      },
      {
        "midi": 53,
        "time": 578.75,
        "duration": 0.25,
        "velocity": 0.71,
        "hand": "left"
      },
      {
        "midi": 58,
        "time": 578.75,
        "duration": 0.25,
        "velocity": 0.71,
        "hand": "left"
      },
      {
        "midi": 37,
        "time": 579,
        "duration": 0.5,
        "velocity": 0.94,
        "hand": "left"
      },
      {
        "midi": 67,
        "time": 579,
        "duration": 0.25,
        "velocity": 0.71,
        "hand": "right"
      },
      {
        "midi": 53,
        "time": 579.25,
        "duration": 0.25,
        "velocity": 0.71,
        "hand": "left"
      },
      {
        "midi": 59,
        "time": 579.25,
        "duration": 0.25,
        "velocity": 0.71,
        "hand": "left"
      },
      {
        "midi": 43,
        "time": 579.5,
        "duration": 0.25,
        "velocity": 0.94,
        "hand": "left"
      },
      {
        "midi": 49,
        "time": 579.5,
        "duration": 0.25,
        "velocity": 0.94,
        "hand": "left"
      },
      {
        "midi": 67,
        "time": 579.5,
        "duration": 0.25,
        "velocity": 0.71,
        "hand": "right"
      },
      {
        "midi": 49,
        "time": 579.75,
        "duration": 0.25,
        "velocity": 0.94,
        "hand": "left"
      },
      {
        "midi": 55,
        "time": 579.75,
        "duration": 0.25,
        "velocity": 0.94,
        "hand": "left"
      },
      {
        "midi": 65,
        "time": 579.75,
        "duration": 0.25,
        "velocity": 0.71,
        "hand": "right"
      },
      {
        "midi": 71,
        "time": 579.75,
        "duration": 0.25,
        "velocity": 0.71,
        "hand": "right"
      },
      {
        "midi": 61,
        "time": 580,
        "duration": 0.25,
        "velocity": 0.94,
        "hand": "right"
      },
      {
        "midi": 79,
        "time": 580,
        "duration": 0.25,
        "velocity": 0.71,
        "hand": "right"
      },
      {
        "midi": 61,
        "time": 580.25,
        "duration": 0.25,
        "velocity": 0.94,
        "hand": "right"
      },
      {
        "midi": 67,
        "time": 580.25,
        "duration": 0.25,
        "velocity": 0.94,
        "hand": "right"
      },
      {
        "midi": 77,
        "time": 580.25,
        "duration": 0.25,
        "velocity": 0.71,
        "hand": "right"
      },
      {
        "midi": 83,
        "time": 580.25,
        "duration": 0.25,
        "velocity": 0.71,
        "hand": "right"
      },
      {
        "midi": 73,
        "time": 580.5,
        "duration": 0.25,
        "velocity": 0.94,
        "hand": "right"
      },
      {
        "midi": 91,
        "time": 580.5,
        "duration": 0.25,
        "velocity": 0.71,
        "hand": "right"
      },
      {
        "midi": 61,
        "time": 580.75,
        "duration": 0.25,
        "velocity": 0.94,
        "hand": "right"
      },
      {
        "midi": 67,
        "time": 580.75,
        "duration": 0.25,
        "velocity": 0.94,
        "hand": "right"
      },
      {
        "midi": 77,
        "time": 580.75,
        "duration": 0.25,
        "velocity": 0.71,
        "hand": "right"
      },
      {
        "midi": 83,
        "time": 580.75,
        "duration": 0.25,
        "velocity": 0.71,
        "hand": "right"
      },
      {
        "midi": 61,
        "time": 581,
        "duration": 0.25,
        "velocity": 0.94,
        "hand": "right"
      },
      {
        "midi": 79,
        "time": 581,
        "duration": 0.25,
        "velocity": 0.71,
        "hand": "right"
      },
      {
        "midi": 49,
        "time": 581.25,
        "duration": 0.25,
        "velocity": 0.94,
        "hand": "left"
      },
      {
        "midi": 55,
        "time": 581.25,
        "duration": 0.25,
        "velocity": 0.94,
        "hand": "left"
      },
      {
        "midi": 65,
        "time": 581.25,
        "duration": 0.25,
        "velocity": 0.71,
        "hand": "right"
      },
      {
        "midi": 71,
        "time": 581.25,
        "duration": 0.25,
        "velocity": 0.71,
        "hand": "right"
      },
      {
        "midi": 49,
        "time": 581.5,
        "duration": 0.25,
        "velocity": 0.94,
        "hand": "left"
      },
      {
        "midi": 67,
        "time": 581.5,
        "duration": 0.25,
        "velocity": 0.71,
        "hand": "right"
      },
      {
        "midi": 37,
        "time": 581.75,
        "duration": 0.25,
        "velocity": 0.94,
        "hand": "left"
      },
      {
        "midi": 43,
        "time": 581.75,
        "duration": 0.25,
        "velocity": 0.94,
        "hand": "left"
      },
      {
        "midi": 53,
        "time": 581.75,
        "duration": 0.25,
        "velocity": 0.71,
        "hand": "left"
      },
      {
        "midi": 59,
        "time": 581.75,
        "duration": 0.25,
        "velocity": 0.71,
        "hand": "left"
      },
      {
        "midi": 36,
        "time": 582,
        "duration": 0.5,
        "velocity": 0.94,
        "hand": "left"
      },
      {
        "midi": 48,
        "time": 582,
        "duration": 0.5,
        "velocity": 0.94,
        "hand": "left"
      },
      {
        "midi": 56,
        "time": 582,
        "duration": 0.5,
        "velocity": 0.71,
        "hand": "left"
      },
      {
        "midi": 60,
        "time": 582,
        "duration": 0.5,
        "velocity": 0.71,
        "hand": "right"
      },
      {
        "midi": 65,
        "time": 582,
        "duration": 0.5,
        "velocity": 0.71,
        "hand": "right"
      },
      {
        "midi": 68,
        "time": 582,
        "duration": 0.5,
        "velocity": 0.71,
        "hand": "right"
      },
      {
        "midi": 36,
        "time": 582.5,
        "duration": 0.5,
        "velocity": 0.8,
        "hand": "left"
      },
      {
        "midi": 48,
        "time": 582.75,
        "duration": 0.25,
        "velocity": 0.8,
        "hand": "left"
      },
      {
        "midi": 53,
        "time": 582.75,
        "duration": 0.25,
        "velocity": 0.8,
        "hand": "left"
      },
      {
        "midi": 41,
        "time": 583,
        "duration": 0.25,
        "velocity": 0.8,
        "hand": "left"
      },
      {
        "midi": 44,
        "time": 583,
        "duration": 0.25,
        "velocity": 0.8,
        "hand": "left"
      },
      {
        "midi": 56,
        "time": 583,
        "duration": 0.25,
        "velocity": 0.8,
        "hand": "left"
      },
      {
        "midi": 47,
        "time": 583.25,
        "duration": 0.25,
        "velocity": 0.8,
        "hand": "left"
      },
      {
        "midi": 48,
        "time": 583.25,
        "duration": 0.25,
        "velocity": 0.8,
        "hand": "left"
      },
      {
        "midi": 59,
        "time": 583.25,
        "duration": 0.25,
        "velocity": 0.8,
        "hand": "left"
      },
      {
        "midi": 60,
        "time": 583.25,
        "duration": 0.25,
        "velocity": 0.8,
        "hand": "right"
      },
      {
        "midi": 53,
        "time": 583.5,
        "duration": 0.25,
        "velocity": 0.8,
        "hand": "left"
      },
      {
        "midi": 65,
        "time": 583.5,
        "duration": 0.25,
        "velocity": 0.71,
        "hand": "right"
      },
      {
        "midi": 56,
        "time": 583.75,
        "duration": 0.25,
        "velocity": 0.8,
        "hand": "left"
      },
      {
        "midi": 59,
        "time": 583.75,
        "duration": 0.25,
        "velocity": 0.8,
        "hand": "left"
      },
      {
        "midi": 68,
        "time": 583.75,
        "duration": 0.25,
        "velocity": 0.71,
        "hand": "right"
      },
      {
        "midi": 71,
        "time": 583.75,
        "duration": 0.25,
        "velocity": 0.71,
        "hand": "right"
      },
      {
        "midi": 60,
        "time": 584,
        "duration": 0.25,
        "velocity": 0.8,
        "hand": "right"
      },
      {
        "midi": 72,
        "time": 584,
        "duration": 0.25,
        "velocity": 0.71,
        "hand": "right"
      },
      {
        "midi": 65,
        "time": 584.25,
        "duration": 0.25,
        "velocity": 0.8,
        "hand": "right"
      },
      {
        "midi": 68,
        "time": 584.25,
        "duration": 0.25,
        "velocity": 0.8,
        "hand": "right"
      },
      {
        "midi": 77,
        "time": 584.25,
        "duration": 0.25,
        "velocity": 0.71,
        "hand": "right"
      },
      {
        "midi": 80,
        "time": 584.25,
        "duration": 0.25,
        "velocity": 0.71,
        "hand": "right"
      },
      {
        "midi": 71,
        "time": 584.5,
        "duration": 0.25,
        "velocity": 0.8,
        "hand": "right"
      },
      {
        "midi": 83,
        "time": 584.5,
        "duration": 0.25,
        "velocity": 0.71,
        "hand": "right"
      },
      {
        "midi": 72,
        "time": 584.75,
        "duration": 0.25,
        "velocity": 0.8,
        "hand": "right"
      },
      {
        "midi": 77,
        "time": 584.75,
        "duration": 0.25,
        "velocity": 0.8,
        "hand": "right"
      },
      {
        "midi": 84,
        "time": 584.75,
        "duration": 0.25,
        "velocity": 0.71,
        "hand": "right"
      },
      {
        "midi": 89,
        "time": 584.75,
        "duration": 0.25,
        "velocity": 0.71,
        "hand": "right"
      },
      {
        "midi": 80,
        "time": 585,
        "duration": 0.5,
        "velocity": 0.8,
        "hand": "right"
      },
      {
        "midi": 92,
        "time": 585,
        "duration": 0.5,
        "velocity": 0.71,
        "hand": "right"
      },
      {
        "midi": 49,
        "time": 585.5,
        "duration": 0.5,
        "velocity": 0.8,
        "hand": "left"
      },
      {
        "midi": 56,
        "time": 585.5,
        "duration": 0.5,
        "velocity": 0.8,
        "hand": "left"
      },
      {
        "midi": 61,
        "time": 585.5,
        "duration": 0.5,
        "velocity": 0.8,
        "hand": "right"
      },
      {
        "midi": 65,
        "time": 585.5,
        "duration": 0.5,
        "velocity": 0.71,
        "hand": "right"
      },
      {
        "midi": 68,
        "time": 585.5,
        "duration": 0.5,
        "velocity": 0.71,
        "hand": "right"
      },
      {
        "midi": 73,
        "time": 585.5,
        "duration": 0.5,
        "velocity": 0.71,
        "hand": "right"
      },
      {
        "midi": 77,
        "time": 585.5,
        "duration": 0.5,
        "velocity": 0.71,
        "hand": "right"
      },
      {
        "midi": 47,
        "time": 586,
        "duration": 0.5,
        "velocity": 0.8,
        "hand": "left"
      },
      {
        "midi": 53,
        "time": 586,
        "duration": 0.5,
        "velocity": 0.8,
        "hand": "left"
      },
      {
        "midi": 56,
        "time": 586,
        "duration": 0.5,
        "velocity": 0.8,
        "hand": "left"
      },
      {
        "midi": 59,
        "time": 586,
        "duration": 0.5,
        "velocity": 0.8,
        "hand": "left"
      },
      {
        "midi": 61,
        "time": 586,
        "duration": 0.5,
        "velocity": 0.71,
        "hand": "right"
      },
      {
        "midi": 68,
        "time": 586,
        "duration": 0.5,
        "velocity": 0.71,
        "hand": "right"
      },
      {
        "midi": 73,
        "time": 586,
        "duration": 0.5,
        "velocity": 0.71,
        "hand": "right"
      },
      {
        "midi": 46,
        "time": 586.5,
        "duration": 0.5,
        "velocity": 0.8,
        "hand": "left"
      },
      {
        "midi": 49,
        "time": 586.5,
        "duration": 0.5,
        "velocity": 0.8,
        "hand": "left"
      },
      {
        "midi": 54,
        "time": 586.5,
        "duration": 0.5,
        "velocity": 0.8,
        "hand": "left"
      },
      {
        "midi": 58,
        "time": 586.5,
        "duration": 0.5,
        "velocity": 0.8,
        "hand": "left"
      },
      {
        "midi": 66,
        "time": 586.5,
        "duration": 0.5,
        "velocity": 0.71,
        "hand": "right"
      },
      {
        "midi": 73,
        "time": 586.5,
        "duration": 0.5,
        "velocity": 0.71,
        "hand": "right"
      },
      {
        "midi": 78,
        "time": 586.5,
        "duration": 0.5,
        "velocity": 0.71,
        "hand": "right"
      },
      {
        "midi": 48,
        "time": 587,
        "duration": 0.5,
        "velocity": 0.8,
        "hand": "left"
      },
      {
        "midi": 55,
        "time": 587,
        "duration": 0.5,
        "velocity": 0.8,
        "hand": "left"
      },
      {
        "midi": 60,
        "time": 587,
        "duration": 0.5,
        "velocity": 0.8,
        "hand": "right"
      },
      {
        "midi": 64,
        "time": 587,
        "duration": 0.5,
        "velocity": 0.71,
        "hand": "right"
      },
      {
        "midi": 67,
        "time": 587,
        "duration": 0.5,
        "velocity": 0.71,
        "hand": "right"
      },
      {
        "midi": 72,
        "time": 587,
        "duration": 0.5,
        "velocity": 0.71,
        "hand": "right"
      },
      {
        "midi": 76,
        "time": 587,
        "duration": 0.5,
        "velocity": 0.71,
        "hand": "right"
      },
      {
        "midi": 46,
        "time": 587.5,
        "duration": 0.5,
        "velocity": 0.8,
        "hand": "left"
      },
      {
        "midi": 52,
        "time": 587.5,
        "duration": 0.5,
        "velocity": 0.8,
        "hand": "left"
      },
      {
        "midi": 55,
        "time": 587.5,
        "duration": 0.5,
        "velocity": 0.8,
        "hand": "left"
      },
      {
        "midi": 58,
        "time": 587.5,
        "duration": 0.5,
        "velocity": 0.8,
        "hand": "left"
      },
      {
        "midi": 72,
        "time": 587.5,
        "duration": 0.5,
        "velocity": 0.71,
        "hand": "right"
      },
      {
        "midi": 79,
        "time": 587.5,
        "duration": 0.5,
        "velocity": 0.71,
        "hand": "right"
      },
      {
        "midi": 84,
        "time": 587.5,
        "duration": 0.5,
        "velocity": 0.71,
        "hand": "right"
      },
      {
        "midi": 44,
        "time": 588,
        "duration": 0.5,
        "velocity": 0.8,
        "hand": "left"
      },
      {
        "midi": 53,
        "time": 588,
        "duration": 0.5,
        "velocity": 0.8,
        "hand": "left"
      },
      {
        "midi": 56,
        "time": 588,
        "duration": 0.5,
        "velocity": 0.8,
        "hand": "left"
      },
      {
        "midi": 72,
        "time": 588,
        "duration": 0.5,
        "velocity": 0.71,
        "hand": "right"
      },
      {
        "midi": 77,
        "time": 588,
        "duration": 0.5,
        "velocity": 0.71,
        "hand": "right"
      },
      {
        "midi": 84,
        "time": 588,
        "duration": 0.5,
        "velocity": 0.71,
        "hand": "right"
      },
      {
        "midi": 36,
        "time": 588.5,
        "duration": 0.5,
        "velocity": 0.8,
        "hand": "left"
      },
      {
        "midi": 48,
        "time": 588.75,
        "duration": 0.25,
        "velocity": 0.8,
        "hand": "left"
      },
      {
        "midi": 53,
        "time": 588.75,
        "duration": 0.25,
        "velocity": 0.8,
        "hand": "left"
      },
      {
        "midi": 41,
        "time": 589,
        "duration": 0.25,
        "velocity": 0.8,
        "hand": "left"
      },
      {
        "midi": 44,
        "time": 589,
        "duration": 0.25,
        "velocity": 0.8,
        "hand": "left"
      },
      {
        "midi": 56,
        "time": 589,
        "duration": 0.25,
        "velocity": 0.8,
        "hand": "left"
      },
      {
        "midi": 47,
        "time": 589.25,
        "duration": 0.25,
        "velocity": 0.8,
        "hand": "left"
      },
      {
        "midi": 48,
        "time": 589.25,
        "duration": 0.25,
        "velocity": 0.8,
        "hand": "left"
      },
      {
        "midi": 59,
        "time": 589.25,
        "duration": 0.25,
        "velocity": 0.8,
        "hand": "left"
      },
      {
        "midi": 60,
        "time": 589.25,
        "duration": 0.25,
        "velocity": 0.8,
        "hand": "right"
      },
      {
        "midi": 53,
        "time": 589.5,
        "duration": 0.25,
        "velocity": 0.8,
        "hand": "left"
      },
      {
        "midi": 65,
        "time": 589.5,
        "duration": 0.25,
        "velocity": 0.71,
        "hand": "right"
      },
      {
        "midi": 56,
        "time": 589.75,
        "duration": 0.25,
        "velocity": 0.8,
        "hand": "left"
      },
      {
        "midi": 59,
        "time": 589.75,
        "duration": 0.25,
        "velocity": 0.8,
        "hand": "left"
      },
      {
        "midi": 68,
        "time": 589.75,
        "duration": 0.25,
        "velocity": 0.71,
        "hand": "right"
      },
      {
        "midi": 71,
        "time": 589.75,
        "duration": 0.25,
        "velocity": 0.71,
        "hand": "right"
      },
      {
        "midi": 60,
        "time": 590,
        "duration": 0.25,
        "velocity": 0.8,
        "hand": "right"
      },
      {
        "midi": 72,
        "time": 590,
        "duration": 0.25,
        "velocity": 0.71,
        "hand": "right"
      },
      {
        "midi": 65,
        "time": 590.25,
        "duration": 0.25,
        "velocity": 0.8,
        "hand": "right"
      },
      {
        "midi": 68,
        "time": 590.25,
        "duration": 0.25,
        "velocity": 0.8,
        "hand": "right"
      },
      {
        "midi": 77,
        "time": 590.25,
        "duration": 0.25,
        "velocity": 0.71,
        "hand": "right"
      },
      {
        "midi": 80,
        "time": 590.25,
        "duration": 0.25,
        "velocity": 0.71,
        "hand": "right"
      },
      {
        "midi": 71,
        "time": 590.5,
        "duration": 0.25,
        "velocity": 0.8,
        "hand": "right"
      },
      {
        "midi": 83,
        "time": 590.5,
        "duration": 0.25,
        "velocity": 0.71,
        "hand": "right"
      },
      {
        "midi": 72,
        "time": 590.75,
        "duration": 0.25,
        "velocity": 0.8,
        "hand": "right"
      },
      {
        "midi": 77,
        "time": 590.75,
        "duration": 0.25,
        "velocity": 0.8,
        "hand": "right"
      },
      {
        "midi": 84,
        "time": 590.75,
        "duration": 0.25,
        "velocity": 0.71,
        "hand": "right"
      },
      {
        "midi": 89,
        "time": 590.75,
        "duration": 0.25,
        "velocity": 0.71,
        "hand": "right"
      },
      {
        "midi": 80,
        "time": 591,
        "duration": 0.5,
        "velocity": 0.8,
        "hand": "right"
      },
      {
        "midi": 92,
        "time": 591,
        "duration": 0.5,
        "velocity": 0.71,
        "hand": "right"
      },
      {
        "midi": 49,
        "time": 591.5,
        "duration": 0.5,
        "velocity": 0.8,
        "hand": "left"
      },
      {
        "midi": 56,
        "time": 591.5,
        "duration": 0.5,
        "velocity": 0.8,
        "hand": "left"
      },
      {
        "midi": 61,
        "time": 591.5,
        "duration": 0.5,
        "velocity": 0.8,
        "hand": "right"
      },
      {
        "midi": 65,
        "time": 591.5,
        "duration": 0.5,
        "velocity": 0.71,
        "hand": "right"
      },
      {
        "midi": 68,
        "time": 591.5,
        "duration": 0.5,
        "velocity": 0.71,
        "hand": "right"
      },
      {
        "midi": 73,
        "time": 591.5,
        "duration": 0.5,
        "velocity": 0.71,
        "hand": "right"
      },
      {
        "midi": 77,
        "time": 591.5,
        "duration": 0.5,
        "velocity": 0.71,
        "hand": "right"
      },
      {
        "midi": 35,
        "time": 592,
        "duration": 0.5,
        "velocity": 0.8,
        "hand": "left"
      },
      {
        "midi": 47,
        "time": 592,
        "duration": 0.5,
        "velocity": 0.8,
        "hand": "left"
      },
      {
        "midi": 53,
        "time": 592,
        "duration": 0.5,
        "velocity": 0.71,
        "hand": "left"
      },
      {
        "midi": 56,
        "time": 592,
        "duration": 0.5,
        "velocity": 0.71,
        "hand": "left"
      },
      {
        "midi": 61,
        "time": 592,
        "duration": 0.5,
        "velocity": 0.71,
        "hand": "right"
      },
      {
        "midi": 65,
        "time": 592,
        "duration": 0.5,
        "velocity": 0.71,
        "hand": "right"
      },
      {
        "midi": 34,
        "time": 592.5,
        "duration": 0.5,
        "velocity": 0.8,
        "hand": "left"
      },
      {
        "midi": 46,
        "time": 592.5,
        "duration": 0.5,
        "velocity": 0.8,
        "hand": "left"
      },
      {
        "midi": 54,
        "time": 592.5,
        "duration": 0.5,
        "velocity": 0.71,
        "hand": "left"
      },
      {
        "midi": 61,
        "time": 592.5,
        "duration": 0.5,
        "velocity": 0.71,
        "hand": "right"
      },
      {
        "midi": 66,
        "time": 592.5,
        "duration": 0.5,
        "velocity": 0.71,
        "hand": "right"
      },
      {
        "midi": 36,
        "time": 593,
        "duration": 0.5,
        "velocity": 0.8,
        "hand": "left"
      },
      {
        "midi": 48,
        "time": 593,
        "duration": 0.5,
        "velocity": 0.8,
        "hand": "left"
      },
      {
        "midi": 55,
        "time": 593,
        "duration": 0.5,
        "velocity": 0.71,
        "hand": "left"
      },
      {
        "midi": 60,
        "time": 593,
        "duration": 0.5,
        "velocity": 0.71,
        "hand": "right"
      },
      {
        "midi": 64,
        "time": 593,
        "duration": 0.5,
        "velocity": 0.71,
        "hand": "right"
      },
      {
        "midi": 34,
        "time": 593.5,
        "duration": 0.5,
        "velocity": 0.8,
        "hand": "left"
      },
      {
        "midi": 46,
        "time": 593.5,
        "duration": 0.5,
        "velocity": 0.8,
        "hand": "left"
      },
      {
        "midi": 60,
        "time": 593.5,
        "duration": 0.5,
        "velocity": 0.71,
        "hand": "right"
      },
      {
        "midi": 67,
        "time": 593.5,
        "duration": 0.5,
        "velocity": 0.71,
        "hand": "right"
      },
      {
        "midi": 72,
        "time": 593.5,
        "duration": 0.5,
        "velocity": 0.71,
        "hand": "right"
      },
      {
        "midi": 32,
        "time": 594,
        "duration": 0.5,
        "velocity": 0.8,
        "hand": "left"
      },
      {
        "midi": 44,
        "time": 594,
        "duration": 0.5,
        "velocity": 0.8,
        "hand": "left"
      },
      {
        "midi": 60,
        "time": 594,
        "duration": 0.5,
        "velocity": 0.71,
        "hand": "right"
      },
      {
        "midi": 65,
        "time": 594,
        "duration": 0.5,
        "velocity": 0.71,
        "hand": "right"
      },
      {
        "midi": 72,
        "time": 594,
        "duration": 0.5,
        "velocity": 0.71,
        "hand": "right"
      },
      {
        "midi": 31,
        "time": 594.5,
        "duration": 0.5,
        "velocity": 0.8,
        "hand": "left"
      },
      {
        "midi": 43,
        "time": 594.5,
        "duration": 0.5,
        "velocity": 0.8,
        "hand": "left"
      },
      {
        "midi": 62,
        "time": 594.5,
        "duration": 0.5,
        "velocity": 0.71,
        "hand": "right"
      },
      {
        "midi": 65,
        "time": 594.5,
        "duration": 0.5,
        "velocity": 0.71,
        "hand": "right"
      },
      {
        "midi": 71,
        "time": 594.5,
        "duration": 0.5,
        "velocity": 0.71,
        "hand": "right"
      },
      {
        "midi": 74,
        "time": 594.5,
        "duration": 0.5,
        "velocity": 0.71,
        "hand": "right"
      },
      {
        "midi": 30,
        "time": 595,
        "duration": 0.5,
        "velocity": 0.8,
        "hand": "left"
      },
      {
        "midi": 42,
        "time": 595,
        "duration": 0.5,
        "velocity": 0.8,
        "hand": "left"
      },
      {
        "midi": 63,
        "time": 595,
        "duration": 0.5,
        "velocity": 0.71,
        "hand": "right"
      },
      {
        "midi": 66,
        "time": 595,
        "duration": 0.5,
        "velocity": 0.71,
        "hand": "right"
      },
      {
        "midi": 71,
        "time": 595,
        "duration": 0.5,
        "velocity": 0.71,
        "hand": "right"
      },
      {
        "midi": 75,
        "time": 595,
        "duration": 0.5,
        "velocity": 0.71,
        "hand": "right"
      },
      {
        "midi": 28,
        "time": 595.5,
        "duration": 0.5,
        "velocity": 0.8,
        "hand": "left"
      },
      {
        "midi": 40,
        "time": 595.5,
        "duration": 0.5,
        "velocity": 0.8,
        "hand": "left"
      },
      {
        "midi": 66,
        "time": 595.5,
        "duration": 0.5,
        "velocity": 0.71,
        "hand": "right"
      },
      {
        "midi": 70,
        "time": 595.5,
        "duration": 0.5,
        "velocity": 0.71,
        "hand": "right"
      },
      {
        "midi": 73,
        "time": 595.5,
        "duration": 0.5,
        "velocity": 0.71,
        "hand": "right"
      },
      {
        "midi": 78,
        "time": 595.5,
        "duration": 0.5,
        "velocity": 0.71,
        "hand": "right"
      },
      {
        "midi": 27,
        "time": 596,
        "duration": 0.5,
        "velocity": 0.8,
        "hand": "left"
      },
      {
        "midi": 39,
        "time": 596,
        "duration": 0.5,
        "velocity": 0.8,
        "hand": "left"
      },
      {
        "midi": 71,
        "time": 596,
        "duration": 0.5,
        "velocity": 0.71,
        "hand": "right"
      },
      {
        "midi": 78,
        "time": 596,
        "duration": 0.5,
        "velocity": 0.71,
        "hand": "right"
      },
      {
        "midi": 83,
        "time": 596,
        "duration": 0.5,
        "velocity": 0.71,
        "hand": "right"
      },
      {
        "midi": 38,
        "time": 596.5,
        "duration": 0.5,
        "velocity": 0.8,
        "hand": "left"
      },
      {
        "midi": 50,
        "time": 596.5,
        "duration": 0.5,
        "velocity": 0.8,
        "hand": "left"
      },
      {
        "midi": 68,
        "time": 596.5,
        "duration": 0.5,
        "velocity": 0.71,
        "hand": "right"
      },
      {
        "midi": 71,
        "time": 596.5,
        "duration": 0.5,
        "velocity": 0.71,
        "hand": "right"
      },
      {
        "midi": 77,
        "time": 596.5,
        "duration": 0.5,
        "velocity": 0.71,
        "hand": "right"
      },
      {
        "midi": 80,
        "time": 596.5,
        "duration": 0.5,
        "velocity": 0.71,
        "hand": "right"
      },
      {
        "midi": 37,
        "time": 597,
        "duration": 0.5,
        "velocity": 0.8,
        "hand": "left"
      },
      {
        "midi": 49,
        "time": 597,
        "duration": 0.5,
        "velocity": 0.8,
        "hand": "left"
      },
      {
        "midi": 70,
        "time": 597,
        "duration": 0.5,
        "velocity": 0.71,
        "hand": "right"
      },
      {
        "midi": 73,
        "time": 597,
        "duration": 0.5,
        "velocity": 0.71,
        "hand": "right"
      },
      {
        "midi": 78,
        "time": 597,
        "duration": 0.5,
        "velocity": 0.71,
        "hand": "right"
      },
      {
        "midi": 82,
        "time": 597,
        "duration": 0.5,
        "velocity": 0.71,
        "hand": "right"
      },
      {
        "midi": 35,
        "time": 597.5,
        "duration": 0.5,
        "velocity": 0.8,
        "hand": "left"
      },
      {
        "midi": 47,
        "time": 597.5,
        "duration": 0.5,
        "velocity": 0.8,
        "hand": "left"
      },
      {
        "midi": 73,
        "time": 597.5,
        "duration": 0.5,
        "velocity": 0.71,
        "hand": "right"
      },
      {
        "midi": 77,
        "time": 597.5,
        "duration": 0.5,
        "velocity": 0.71,
        "hand": "right"
      },
      {
        "midi": 80,
        "time": 597.5,
        "duration": 0.5,
        "velocity": 0.71,
        "hand": "right"
      },
      {
        "midi": 85,
        "time": 597.5,
        "duration": 0.5,
        "velocity": 0.71,
        "hand": "right"
      },
      {
        "midi": 34,
        "time": 598,
        "duration": 0.5,
        "velocity": 0.8,
        "hand": "left"
      },
      {
        "midi": 46,
        "time": 598,
        "duration": 0.5,
        "velocity": 0.8,
        "hand": "left"
      },
      {
        "midi": 78,
        "time": 598,
        "duration": 0.5,
        "velocity": 0.71,
        "hand": "right"
      },
      {
        "midi": 85,
        "time": 598,
        "duration": 0.5,
        "velocity": 0.71,
        "hand": "right"
      },
      {
        "midi": 90,
        "time": 598,
        "duration": 0.5,
        "velocity": 0.71,
        "hand": "right"
      },
      {
        "midi": 33,
        "time": 598.5,
        "duration": 0.5,
        "velocity": 0.8,
        "hand": "left"
      },
      {
        "midi": 45,
        "time": 598.5,
        "duration": 0.5,
        "velocity": 0.8,
        "hand": "left"
      },
      {
        "midi": 76,
        "time": 598.5,
        "duration": 0.5,
        "velocity": 0.71,
        "hand": "right"
      },
      {
        "midi": 79,
        "time": 598.5,
        "duration": 0.5,
        "velocity": 0.71,
        "hand": "right"
      },
      {
        "midi": 85,
        "time": 598.5,
        "duration": 0.5,
        "velocity": 0.71,
        "hand": "right"
      },
      {
        "midi": 88,
        "time": 598.5,
        "duration": 0.5,
        "velocity": 0.71,
        "hand": "right"
      },
      {
        "midi": 32,
        "time": 599,
        "duration": 0.5,
        "velocity": 0.8,
        "hand": "left"
      },
      {
        "midi": 44,
        "time": 599,
        "duration": 0.5,
        "velocity": 0.8,
        "hand": "left"
      },
      {
        "midi": 77,
        "time": 599,
        "duration": 0.5,
        "velocity": 0.71,
        "hand": "right"
      },
      {
        "midi": 84,
        "time": 599,
        "duration": 0.5,
        "velocity": 0.71,
        "hand": "right"
      },
      {
        "midi": 89,
        "time": 599,
        "duration": 0.5,
        "velocity": 0.71,
        "hand": "right"
      },
      {
        "midi": 34,
        "time": 599.5,
        "duration": 0.5,
        "velocity": 0.8,
        "hand": "left"
      },
      {
        "midi": 46,
        "time": 599.5,
        "duration": 0.5,
        "velocity": 0.8,
        "hand": "left"
      },
      {
        "midi": 73,
        "time": 599.5,
        "duration": 0.5,
        "velocity": 0.71,
        "hand": "right"
      },
      {
        "midi": 77,
        "time": 599.5,
        "duration": 0.5,
        "velocity": 0.71,
        "hand": "right"
      },
      {
        "midi": 79,
        "time": 599.5,
        "duration": 0.5,
        "velocity": 0.71,
        "hand": "right"
      },
      {
        "midi": 85,
        "time": 599.5,
        "duration": 0.5,
        "velocity": 0.71,
        "hand": "right"
      },
      {
        "midi": 36,
        "time": 600,
        "duration": 0.5,
        "velocity": 0.8,
        "hand": "left"
      },
      {
        "midi": 48,
        "time": 600,
        "duration": 0.5,
        "velocity": 0.8,
        "hand": "left"
      },
      {
        "midi": 72,
        "time": 600,
        "duration": 0.5,
        "velocity": 0.71,
        "hand": "right"
      },
      {
        "midi": 77,
        "time": 600,
        "duration": 0.5,
        "velocity": 0.71,
        "hand": "right"
      },
      {
        "midi": 79,
        "time": 600,
        "duration": 0.5,
        "velocity": 0.71,
        "hand": "right"
      },
      {
        "midi": 84,
        "time": 600,
        "duration": 0.5,
        "velocity": 0.71,
        "hand": "right"
      },
      {
        "midi": 48,
        "time": 601.5,
        "duration": 0.5,
        "velocity": 0.8,
        "hand": "left"
      },
      {
        "midi": 60,
        "time": 601.5,
        "duration": 0.5,
        "velocity": 0.71,
        "hand": "right"
      },
      {
        "midi": 49,
        "time": 602,
        "duration": 0.5,
        "velocity": 0.8,
        "hand": "left"
      },
      {
        "midi": 61,
        "time": 602,
        "duration": 0.5,
        "velocity": 0.71,
        "hand": "right"
      },
      {
        "midi": 53,
        "time": 602.5,
        "duration": 0.5,
        "velocity": 0.8,
        "hand": "left"
      },
      {
        "midi": 65,
        "time": 602.5,
        "duration": 0.5,
        "velocity": 0.71,
        "hand": "right"
      },
      {
        "midi": 36,
        "time": 603,
        "duration": 0.5,
        "velocity": 0.8,
        "hand": "left"
      },
      {
        "midi": 48,
        "time": 603,
        "duration": 0.5,
        "velocity": 0.8,
        "hand": "left"
      },
      {
        "midi": 55,
        "time": 603,
        "duration": 0.5,
        "velocity": 0.71,
        "hand": "left"
      },
      {
        "midi": 60,
        "time": 603,
        "duration": 0.5,
        "velocity": 0.71,
        "hand": "right"
      },
      {
        "midi": 64,
        "time": 603,
        "duration": 0.5,
        "velocity": 0.71,
        "hand": "right"
      },
      {
        "midi": 67,
        "time": 603,
        "duration": 0.5,
        "velocity": 0.71,
        "hand": "right"
      },
      {
        "midi": 31,
        "time": 603.5,
        "duration": 0.5,
        "velocity": 0.8,
        "hand": "left"
      },
      {
        "midi": 43,
        "time": 603.5,
        "duration": 0.5,
        "velocity": 0.8,
        "hand": "left"
      },
      {
        "midi": 53,
        "time": 603.5,
        "duration": 0.5,
        "velocity": 0.71,
        "hand": "left"
      },
      {
        "midi": 55,
        "time": 603.5,
        "duration": 0.5,
        "velocity": 0.71,
        "hand": "left"
      },
      {
        "midi": 59,
        "time": 603.5,
        "duration": 0.5,
        "velocity": 0.71,
        "hand": "left"
      },
      {
        "midi": 62,
        "time": 603.5,
        "duration": 0.5,
        "velocity": 0.71,
        "hand": "right"
      },
      {
        "midi": 67,
        "time": 603.5,
        "duration": 0.5,
        "velocity": 0.71,
        "hand": "right"
      },
      {
        "midi": 24,
        "time": 604,
        "duration": 0.5,
        "velocity": 0.8,
        "hand": "left"
      },
      {
        "midi": 36,
        "time": 604,
        "duration": 0.5,
        "velocity": 0.8,
        "hand": "left"
      },
      {
        "midi": 55,
        "time": 604,
        "duration": 0.5,
        "velocity": 0.71,
        "hand": "left"
      },
      {
        "midi": 60,
        "time": 604,
        "duration": 0.5,
        "velocity": 0.71,
        "hand": "right"
      },
      {
        "midi": 64,
        "time": 604,
        "duration": 0.5,
        "velocity": 0.71,
        "hand": "right"
      },
      {
        "midi": 67,
        "time": 604,
        "duration": 0.5,
        "velocity": 0.71,
        "hand": "right"
      },
      {
        "midi": 48,
        "time": 606,
        "duration": 3,
        "velocity": 0.8,
        "hand": "left"
      },
      {
        "midi": 55,
        "time": 606,
        "duration": 3,
        "velocity": 0.8,
        "hand": "left"
      },
      {
        "midi": 64,
        "time": 606,
        "duration": 3,
        "velocity": 0.8,
        "hand": "right"
      },
      {
        "midi": 72,
        "time": 606,
        "duration": 3,
        "velocity": 0.71,
        "hand": "right"
      },
      {
        "midi": 79,
        "time": 606,
        "duration": 3,
        "velocity": 0.71,
        "hand": "right"
      },
      {
        "midi": 84,
        "time": 606,
        "duration": 3,
        "velocity": 0.71,
        "hand": "right"
      },
      {
        "midi": 48,
        "time": 609,
        "duration": 3,
        "velocity": 0.8,
        "hand": "left"
      },
      {
        "midi": 55,
        "time": 609,
        "duration": 3,
        "velocity": 0.8,
        "hand": "left"
      },
      {
        "midi": 62,
        "time": 609,
        "duration": 3,
        "velocity": 0.8,
        "hand": "right"
      },
      {
        "midi": 65,
        "time": 609,
        "duration": 3,
        "velocity": 0.71,
        "hand": "right"
      },
      {
        "midi": 67,
        "time": 609,
        "duration": 3,
        "velocity": 0.71,
        "hand": "right"
      },
      {
        "midi": 71,
        "time": 609,
        "duration": 3,
        "velocity": 0.71,
        "hand": "right"
      },
      {
        "midi": 74,
        "time": 609,
        "duration": 3,
        "velocity": 0.71,
        "hand": "right"
      },
      {
        "midi": 79,
        "time": 609,
        "duration": 3,
        "velocity": 0.71,
        "hand": "right"
      },
      {
        "midi": 48,
        "time": 612,
        "duration": 3,
        "velocity": 0.8,
        "hand": "left"
      },
      {
        "midi": 55,
        "time": 612,
        "duration": 3,
        "velocity": 0.8,
        "hand": "left"
      },
      {
        "midi": 60,
        "time": 612,
        "duration": 3,
        "velocity": 0.8,
        "hand": "right"
      },
      {
        "midi": 64,
        "time": 612,
        "duration": 3,
        "velocity": 0.71,
        "hand": "right"
      },
      {
        "midi": 67,
        "time": 612,
        "duration": 3,
        "velocity": 0.71,
        "hand": "right"
      },
      {
        "midi": 70,
        "time": 612,
        "duration": 3,
        "velocity": 0.71,
        "hand": "right"
      },
      {
        "midi": 76,
        "time": 612,
        "duration": 3,
        "velocity": 0.71,
        "hand": "right"
      },
      {
        "midi": 48,
        "time": 615,
        "duration": 3,
        "velocity": 0.8,
        "hand": "left"
      },
      {
        "midi": 55,
        "time": 615,
        "duration": 3,
        "velocity": 0.8,
        "hand": "left"
      },
      {
        "midi": 58,
        "time": 615,
        "duration": 3,
        "velocity": 0.8,
        "hand": "left"
      },
      {
        "midi": 62,
        "time": 615,
        "duration": 3,
        "velocity": 0.71,
        "hand": "right"
      },
      {
        "midi": 65,
        "time": 615,
        "duration": 3,
        "velocity": 0.71,
        "hand": "right"
      },
      {
        "midi": 74,
        "time": 615,
        "duration": 3,
        "velocity": 0.71,
        "hand": "right"
      },
      {
        "midi": 36,
        "time": 618,
        "duration": 10,
        "velocity": 0.8,
        "hand": "left"
      },
      {
        "midi": 48,
        "time": 618,
        "duration": 10,
        "velocity": 0.8,
        "hand": "left"
      },
      {
        "midi": 55,
        "time": 618,
        "duration": 10,
        "velocity": 0.71,
        "hand": "left"
      },
      {
        "midi": 60,
        "time": 618,
        "duration": 10,
        "velocity": 0.71,
        "hand": "right"
      },
      {
        "midi": 64,
        "time": 618,
        "duration": 10,
        "velocity": 0.71,
        "hand": "right"
      },
      {
        "midi": 29,
        "time": 630,
        "duration": 0.5,
        "velocity": 0.8,
        "hand": "left"
      },
      {
        "midi": 56,
        "time": 630,
        "duration": 0.25,
        "velocity": 0.71,
        "hand": "left"
      },
      {
        "midi": 60,
        "time": 630.25,
        "duration": 0.25,
        "velocity": 0.71,
        "hand": "right"
      },
      {
        "midi": 65,
        "time": 630.25,
        "duration": 0.25,
        "velocity": 0.71,
        "hand": "right"
      },
      {
        "midi": 68,
        "time": 630.25,
        "duration": 0.25,
        "velocity": 0.71,
        "hand": "right"
      },
      {
        "midi": 49,
        "time": 630.5,
        "duration": 0.25,
        "velocity": 0.8,
        "hand": "left"
      },
      {
        "midi": 55,
        "time": 630.5,
        "duration": 0.25,
        "velocity": 0.71,
        "hand": "left"
      },
      {
        "midi": 37,
        "time": 630.75,
        "duration": 0.25,
        "velocity": 0.8,
        "hand": "left"
      },
      {
        "midi": 43,
        "time": 630.75,
        "duration": 0.25,
        "velocity": 0.8,
        "hand": "left"
      },
      {
        "midi": 53,
        "time": 630.75,
        "duration": 0.25,
        "velocity": 0.71,
        "hand": "left"
      },
      {
        "midi": 56,
        "time": 630.75,
        "duration": 0.25,
        "velocity": 0.71,
        "hand": "left"
      },
      {
        "midi": 59,
        "time": 630.75,
        "duration": 0.25,
        "velocity": 0.71,
        "hand": "left"
      },
      {
        "midi": 36,
        "time": 631,
        "duration": 0.25,
        "velocity": 0.8,
        "hand": "left"
      },
      {
        "midi": 61,
        "time": 631,
        "duration": 0.25,
        "velocity": 0.71,
        "hand": "right"
      },
      {
        "midi": 48,
        "time": 631.25,
        "duration": 0.25,
        "velocity": 0.8,
        "hand": "left"
      },
      {
        "midi": 52,
        "time": 631.25,
        "duration": 0.25,
        "velocity": 0.8,
        "hand": "left"
      },
      {
        "midi": 58,
        "time": 631.25,
        "duration": 0.25,
        "velocity": 0.71,
        "hand": "left"
      },
      {
        "midi": 60,
        "time": 631.25,
        "duration": 0.25,
        "velocity": 0.71,
        "hand": "right"
      },
      {
        "midi": 67,
        "time": 631.25,
        "duration": 0.25,
        "velocity": 0.71,
        "hand": "right"
      },
      {
        "midi": 56,
        "time": 631.5,
        "duration": 0.25,
        "velocity": 0.8,
        "hand": "left"
      },
      {
        "midi": 60,
        "time": 631.5,
        "duration": 0.25,
        "velocity": 0.71,
        "hand": "right"
      },
      {
        "midi": 41,
        "time": 631.75,
        "duration": 0.25,
        "velocity": 0.8,
        "hand": "left"
      },
      {
        "midi": 48,
        "time": 631.75,
        "duration": 0.25,
        "velocity": 0.8,
        "hand": "left"
      },
      {
        "midi": 65,
        "time": 631.75,
        "duration": 0.25,
        "velocity": 0.71,
        "hand": "right"
      },
      {
        "midi": 68,
        "time": 631.75,
        "duration": 0.25,
        "velocity": 0.71,
        "hand": "right"
      },
      {
        "midi": 70,
        "time": 631.75,
        "duration": 0.25,
        "velocity": 0.71,
        "hand": "right"
      },
      {
        "midi": 49,
        "time": 632,
        "duration": 0.25,
        "velocity": 0.8,
        "hand": "left"
      },
      {
        "midi": 67,
        "time": 632,
        "duration": 0.25,
        "velocity": 0.71,
        "hand": "right"
      },
      {
        "midi": 37,
        "time": 632.25,
        "duration": 0.25,
        "velocity": 0.8,
        "hand": "left"
      },
      {
        "midi": 57,
        "time": 632.25,
        "duration": 0.25,
        "velocity": 0.71,
        "hand": "left"
      },
      {
        "midi": 58,
        "time": 632.25,
        "duration": 0.25,
        "velocity": 0.71,
        "hand": "left"
      },
      {
        "midi": 65,
        "time": 632.25,
        "duration": 0.25,
        "velocity": 0.71,
        "hand": "right"
      },
      {
        "midi": 36,
        "time": 632.5,
        "duration": 0.25,
        "velocity": 0.8,
        "hand": "left"
      },
      {
        "midi": 61,
        "time": 632.5,
        "duration": 0.25,
        "velocity": 0.71,
        "hand": "right"
      },
      {
        "midi": 48,
        "time": 632.75,
        "duration": 0.25,
        "velocity": 0.8,
        "hand": "left"
      },
      {
        "midi": 52,
        "time": 632.75,
        "duration": 0.25,
        "velocity": 0.8,
        "hand": "left"
      },
      {
        "midi": 58,
        "time": 632.75,
        "duration": 0.25,
        "velocity": 0.71,
        "hand": "left"
      },
      {
        "midi": 60,
        "time": 632.75,
        "duration": 0.25,
        "velocity": 0.71,
        "hand": "right"
      },
      {
        "midi": 67,
        "time": 632.75,
        "duration": 0.25,
        "velocity": 0.71,
        "hand": "right"
      },
      {
        "midi": 41,
        "time": 633,
        "duration": 0.25,
        "velocity": 0.8,
        "hand": "left"
      },
      {
        "midi": 56,
        "time": 633,
        "duration": 0.25,
        "velocity": 0.71,
        "hand": "left"
      },
      {
        "midi": 44,
        "time": 633.25,
        "duration": 0.25,
        "velocity": 0.8,
        "hand": "left"
      },
      {
        "midi": 53,
        "time": 633.25,
        "duration": 0.25,
        "velocity": 0.8,
        "hand": "left"
      },
      {
        "midi": 61,
        "time": 633.25,
        "duration": 0.25,
        "velocity": 0.71,
        "hand": "right"
      },
      {
        "midi": 63,
        "time": 633.25,
        "duration": 0.25,
        "velocity": 0.71,
        "hand": "right"
      },
      {
        "midi": 68,
        "time": 633.25,
        "duration": 0.75,
        "velocity": 0.71,
        "hand": "right"
      },
      {
        "midi": 39,
        "time": 633.5,
        "duration": 0.25,
        "velocity": 0.8,
        "hand": "left"
      },
      {
        "midi": 61,
        "time": 633.5,
        "duration": 0.25,
        "velocity": 0.72,
        "hand": "right"
      },
      {
        "midi": 63,
        "time": 633.5,
        "duration": 0.125,
        "velocity": 0.71,
        "hand": "right"
      },
      {
        "midi": 44,
        "time": 633.75,
        "duration": 0.25,
        "velocity": 0.8,
        "hand": "left"
      },
      {
        "midi": 54,
        "time": 633.75,
        "duration": 0.25,
        "velocity": 0.8,
        "hand": "left"
      },
      {
        "midi": 60,
        "time": 633.75,
        "duration": 0.25,
        "velocity": 0.76,
        "hand": "right"
      },
      {
        "midi": 66,
        "time": 633.75,
        "duration": 0.25,
        "velocity": 0.8,
        "hand": "right"
      },
      {
        "midi": 68,
        "time": 633.75,
        "duration": 0.25,
        "velocity": 0.8,
        "hand": "right"
      },
      {
        "midi": 37,
        "time": 634,
        "duration": 0.25,
        "velocity": 0.8,
        "hand": "left"
      },
      {
        "midi": 66,
        "time": 634,
        "duration": 0.25,
        "velocity": 0.84,
        "hand": "right"
      },
      {
        "midi": 68,
        "time": 634,
        "duration": 0.5,
        "velocity": 0.84,
        "hand": "right"
      },
      {
        "midi": 44,
        "time": 634.25,
        "duration": 0.25,
        "velocity": 0.8,
        "hand": "left"
      },
      {
        "midi": 53,
        "time": 634.25,
        "duration": 0.25,
        "velocity": 0.8,
        "hand": "left"
      },
      {
        "midi": 65,
        "time": 634.25,
        "duration": 0.25,
        "velocity": 0.89,
        "hand": "right"
      },
      {
        "midi": 43,
        "time": 634.5,
        "duration": 0.25,
        "velocity": 0.94,
        "hand": "left"
      },
      {
        "midi": 61,
        "time": 634.5,
        "duration": 0.25,
        "velocity": 0.93,
        "hand": "right"
      },
      {
        "midi": 73,
        "time": 634.5,
        "duration": 0.25,
        "velocity": 0.93,
        "hand": "right"
      },
      {
        "midi": 44,
        "time": 634.75,
        "duration": 0.25,
        "velocity": 0.94,
        "hand": "left"
      },
      {
        "midi": 45,
        "time": 634.75,
        "duration": 0.25,
        "velocity": 0.94,
        "hand": "left"
      },
      {
        "midi": 61,
        "time": 634.75,
        "duration": 0.25,
        "velocity": 0.87,
        "hand": "right"
      },
      {
        "midi": 65,
        "time": 634.75,
        "duration": 0.25,
        "velocity": 0.9,
        "hand": "right"
      },
      {
        "midi": 71,
        "time": 634.75,
        "duration": 0.25,
        "velocity": 0.87,
        "hand": "right"
      },
      {
        "midi": 72,
        "time": 634.75,
        "duration": 0.25,
        "velocity": 0.9,
        "hand": "right"
      },
      {
        "midi": 46,
        "time": 635,
        "duration": 0.25,
        "velocity": 0.94,
        "hand": "left"
      },
      {
        "midi": 65,
        "time": 635,
        "duration": 0.25,
        "velocity": 0.83,
        "hand": "right"
      },
      {
        "midi": 70,
        "time": 635,
        "duration": 0.25,
        "velocity": 0.83,
        "hand": "right"
      },
      {
        "midi": 47,
        "time": 635.25,
        "duration": 0.25,
        "velocity": 0.94,
        "hand": "left"
      },
      {
        "midi": 48,
        "time": 635.25,
        "duration": 0.25,
        "velocity": 0.94,
        "hand": "left"
      },
      {
        "midi": 61,
        "time": 635.25,
        "duration": 0.25,
        "velocity": 0.8,
        "hand": "right"
      },
      {
        "midi": 65,
        "time": 635.25,
        "duration": 0.25,
        "velocity": 0.77,
        "hand": "right"
      },
      {
        "midi": 68,
        "time": 635.25,
        "duration": 0.25,
        "velocity": 0.77,
        "hand": "right"
      },
      {
        "midi": 69,
        "time": 635.25,
        "duration": 0.25,
        "velocity": 0.8,
        "hand": "right"
      },
      {
        "midi": 49,
        "time": 635.5,
        "duration": 0.25,
        "velocity": 0.94,
        "hand": "left"
      },
      {
        "midi": 58,
        "time": 635.5,
        "duration": 0.25,
        "velocity": 0.74,
        "hand": "left"
      },
      {
        "midi": 48,
        "time": 635.75,
        "duration": 0.25,
        "velocity": 0.72,
        "hand": "left"
      },
      {
        "midi": 60,
        "time": 635.75,
        "duration": 0.25,
        "velocity": 0.71,
        "hand": "right"
      },
      {
        "midi": 64,
        "time": 635.75,
        "duration": 0.25,
        "velocity": 0.71,
        "hand": "right"
      },
      {
        "midi": 67,
        "time": 635.75,
        "duration": 0.25,
        "velocity": 0.71,
        "hand": "right"
      },
      {
        "midi": 72,
        "time": 635.75,
        "duration": 0.25,
        "velocity": 0.71,
        "hand": "right"
      },
      {
        "midi": 41,
        "time": 636,
        "duration": 0.5,
        "velocity": 0.72,
        "hand": "left"
      },
      {
        "midi": 68,
        "time": 636,
        "duration": 0.25,
        "velocity": 0.71,
        "hand": "right"
      },
      {
        "midi": 72,
        "time": 636.25,
        "duration": 0.25,
        "velocity": 0.71,
        "hand": "right"
      },
      {
        "midi": 77,
        "time": 636.25,
        "duration": 0.25,
        "velocity": 0.71,
        "hand": "right"
      },
      {
        "midi": 80,
        "time": 636.25,
        "duration": 0.25,
        "velocity": 0.71,
        "hand": "right"
      },
      {
        "midi": 61,
        "time": 636.5,
        "duration": 0.25,
        "velocity": 0.72,
        "hand": "right"
      },
      {
        "midi": 67,
        "time": 636.5,
        "duration": 0.25,
        "velocity": 0.71,
        "hand": "right"
      },
      {
        "midi": 49,
        "time": 636.75,
        "duration": 0.25,
        "velocity": 0.72,
        "hand": "left"
      },
      {
        "midi": 55,
        "time": 636.75,
        "duration": 0.25,
        "velocity": 0.72,
        "hand": "left"
      },
      {
        "midi": 65,
        "time": 636.75,
        "duration": 0.25,
        "velocity": 0.71,
        "hand": "right"
      },
      {
        "midi": 68,
        "time": 636.75,
        "duration": 0.25,
        "velocity": 0.71,
        "hand": "right"
      },
      {
        "midi": 71,
        "time": 636.75,
        "duration": 0.25,
        "velocity": 0.71,
        "hand": "right"
      },
      {
        "midi": 48,
        "time": 637,
        "duration": 0.25,
        "velocity": 0.72,
        "hand": "left"
      },
      {
        "midi": 73,
        "time": 637,
        "duration": 0.25,
        "velocity": 0.71,
        "hand": "right"
      },
      {
        "midi": 60,
        "time": 637.25,
        "duration": 0.25,
        "velocity": 0.72,
        "hand": "right"
      },
      {
        "midi": 64,
        "time": 637.25,
        "duration": 0.25,
        "velocity": 0.72,
        "hand": "right"
      },
      {
        "midi": 70,
        "time": 637.25,
        "duration": 0.25,
        "velocity": 0.71,
        "hand": "right"
      },
      {
        "midi": 72,
        "time": 637.25,
        "duration": 0.25,
        "velocity": 0.71,
        "hand": "right"
      },
      {
        "midi": 79,
        "time": 637.25,
        "duration": 0.25,
        "velocity": 0.71,
        "hand": "right"
      },
      {
        "midi": 68,
        "time": 637.5,
        "duration": 0.25,
        "velocity": 0.72,
        "hand": "right"
      },
      {
        "midi": 72,
        "time": 637.5,
        "duration": 0.25,
        "velocity": 0.71,
        "hand": "right"
      },
      {
        "midi": 53,
        "time": 637.75,
        "duration": 0.25,
        "velocity": 0.72,
        "hand": "left"
      },
      {
        "midi": 60,
        "time": 637.75,
        "duration": 0.25,
        "velocity": 0.72,
        "hand": "right"
      },
      {
        "midi": 77,
        "time": 637.75,
        "duration": 0.25,
        "velocity": 0.71,
        "hand": "right"
      },
      {
        "midi": 80,
        "time": 637.75,
        "duration": 0.25,
        "velocity": 0.71,
        "hand": "right"
      },
      {
        "midi": 82,
        "time": 637.75,
        "duration": 0.25,
        "velocity": 0.71,
        "hand": "right"
      },
      {
        "midi": 61,
        "time": 638,
        "duration": 0.25,
        "velocity": 0.72,
        "hand": "right"
      },
      {
        "midi": 79,
        "time": 638,
        "duration": 0.25,
        "velocity": 0.71,
        "hand": "right"
      },
      {
        "midi": 49,
        "time": 638.25,
        "duration": 0.25,
        "velocity": 0.72,
        "hand": "left"
      },
      {
        "midi": 69,
        "time": 638.25,
        "duration": 0.25,
        "velocity": 0.71,
        "hand": "right"
      },
      {
        "midi": 70,
        "time": 638.25,
        "duration": 0.25,
        "velocity": 0.71,
        "hand": "right"
      },
      {
        "midi": 77,
        "time": 638.25,
        "duration": 0.25,
        "velocity": 0.71,
        "hand": "right"
      },
      {
        "midi": 48,
        "time": 638.5,
        "duration": 0.25,
        "velocity": 0.72,
        "hand": "left"
      },
      {
        "midi": 73,
        "time": 638.5,
        "duration": 0.25,
        "velocity": 0.71,
        "hand": "right"
      },
      {
        "midi": 60,
        "time": 638.75,
        "duration": 0.25,
        "velocity": 0.72,
        "hand": "right"
      },
      {
        "midi": 64,
        "time": 638.75,
        "duration": 0.25,
        "velocity": 0.72,
        "hand": "right"
      },
      {
        "midi": 70,
        "time": 638.75,
        "duration": 0.25,
        "velocity": 0.71,
        "hand": "right"
      },
      {
        "midi": 72,
        "time": 638.75,
        "duration": 0.25,
        "velocity": 0.71,
        "hand": "right"
      },
      {
        "midi": 79,
        "time": 638.75,
        "duration": 0.25,
        "velocity": 0.71,
        "hand": "right"
      },
      {
        "midi": 53,
        "time": 639,
        "duration": 0.25,
        "velocity": 0.72,
        "hand": "left"
      },
      {
        "midi": 68,
        "time": 639,
        "duration": 0.25,
        "velocity": 0.71,
        "hand": "right"
      },
      {
        "midi": 56,
        "time": 639.25,
        "duration": 0.25,
        "velocity": 0.72,
        "hand": "left"
      },
      {
        "midi": 65,
        "time": 639.25,
        "duration": 0.25,
        "velocity": 0.72,
        "hand": "right"
      },
      {
        "midi": 73,
        "time": 639.25,
        "duration": 0.25,
        "velocity": 0.71,
        "hand": "right"
      },
      {
        "midi": 75,
        "time": 639.25,
        "duration": 0.25,
        "velocity": 0.71,
        "hand": "right"
      },
      {
        "midi": 80,
        "time": 639.25,
        "duration": 0.75,
        "velocity": 0.71,
        "hand": "right"
      },
      {
        "midi": 51,
        "time": 639.5,
        "duration": 0.25,
        "velocity": 0.72,
        "hand": "left"
      },
      {
        "midi": 73,
        "time": 639.5,
        "duration": 0.25,
        "velocity": 0.71,
        "hand": "right"
      },
      {
        "midi": 75,
        "time": 639.5,
        "duration": 0.125,
        "velocity": 0.71,
        "hand": "right"
      },
      {
        "midi": 56,
        "time": 639.75,
        "duration": 0.25,
        "velocity": 0.72,
        "hand": "left"
      },
      {
        "midi": 66,
        "time": 639.75,
        "duration": 0.25,
        "velocity": 0.72,
        "hand": "right"
      },
      {
        "midi": 72,
        "time": 639.75,
        "duration": 0.25,
        "velocity": 0.71,
        "hand": "right"
      },
      {
        "midi": 79,
        "time": 639.75,
        "duration": 0.25,
        "velocity": 0.71,
        "hand": "right"
      },
      {
        "midi": 80,
        "time": 639.75,
        "duration": 0.25,
        "velocity": 0.71,
        "hand": "right"
      },
      {
        "midi": 49,
        "time": 640,
        "duration": 0.25,
        "velocity": 0.72,
        "hand": "left"
      },
      {
        "midi": 79,
        "time": 640,
        "duration": 0.25,
        "velocity": 0.71,
        "hand": "right"
      },
      {
        "midi": 80,
        "time": 640,
        "duration": 0.5,
        "velocity": 0.71,
        "hand": "right"
      },
      {
        "midi": 56,
        "time": 640.25,
        "duration": 0.25,
        "velocity": 0.72,
        "hand": "left"
      },
      {
        "midi": 65,
        "time": 640.25,
        "duration": 0.25,
        "velocity": 0.72,
        "hand": "right"
      },
      {
        "midi": 77,
        "time": 640.25,
        "duration": 0.25,
        "velocity": 0.71,
        "hand": "right"
      },
      {
        "midi": 55,
        "time": 640.5,
        "duration": 0.25,
        "velocity": 0.72,
        "hand": "left"
      },
      {
        "midi": 73,
        "time": 640.5,
        "duration": 0.25,
        "velocity": 0.71,
        "hand": "right"
      },
      {
        "midi": 85,
        "time": 640.5,
        "duration": 0.25,
        "velocity": 0.71,
        "hand": "right"
      },
      {
        "midi": 56,
        "time": 640.75,
        "duration": 0.25,
        "velocity": 0.72,
        "hand": "left"
      },
      {
        "midi": 57,
        "time": 640.75,
        "duration": 0.25,
        "velocity": 0.72,
        "hand": "left"
      },
      {
        "midi": 73,
        "time": 640.75,
        "duration": 0.25,
        "velocity": 0.71,
        "hand": "right"
      },
      {
        "midi": 77,
        "time": 640.75,
        "duration": 0.25,
        "velocity": 0.71,
        "hand": "right"
      },
      {
        "midi": 83,
        "time": 640.75,
        "duration": 0.25,
        "velocity": 0.71,
        "hand": "right"
      },
      {
        "midi": 84,
        "time": 640.75,
        "duration": 0.25,
        "velocity": 0.71,
        "hand": "right"
      },
      {
        "midi": 58,
        "time": 641,
        "duration": 0.25,
        "velocity": 0.72,
        "hand": "left"
      },
      {
        "midi": 77,
        "time": 641,
        "duration": 0.25,
        "velocity": 0.71,
        "hand": "right"
      },
      {
        "midi": 82,
        "time": 641,
        "duration": 0.25,
        "velocity": 0.71,
        "hand": "right"
      },
      {
        "midi": 59,
        "time": 641.25,
        "duration": 0.25,
        "velocity": 0.72,
        "hand": "left"
      },
      {
        "midi": 60,
        "time": 641.25,
        "duration": 0.25,
        "velocity": 0.72,
        "hand": "right"
      },
      {
        "midi": 73,
        "time": 641.25,
        "duration": 0.25,
        "velocity": 0.71,
        "hand": "right"
      },
      {
        "midi": 77,
        "time": 641.25,
        "duration": 0.25,
        "velocity": 0.71,
        "hand": "right"
      },
      {
        "midi": 80,
        "time": 641.25,
        "duration": 0.25,
        "velocity": 0.71,
        "hand": "right"
      },
      {
        "midi": 81,
        "time": 641.25,
        "duration": 0.25,
        "velocity": 0.71,
        "hand": "right"
      },
      {
        "midi": 61,
        "time": 641.5,
        "duration": 0.25,
        "velocity": 0.72,
        "hand": "right"
      },
      {
        "midi": 70,
        "time": 641.5,
        "duration": 0.25,
        "velocity": 0.71,
        "hand": "right"
      },
      {
        "midi": 60,
        "time": 641.75,
        "duration": 0.25,
        "velocity": 0.5,
        "hand": "right"
      },
      {
        "midi": 72,
        "time": 641.75,
        "duration": 0.25,
        "velocity": 0.71,
        "hand": "right"
      },
      {
        "midi": 76,
        "time": 641.75,
        "duration": 0.25,
        "velocity": 0.71,
        "hand": "right"
      },
      {
        "midi": 79,
        "time": 641.75,
        "duration": 0.25,
        "velocity": 0.71,
        "hand": "right"
      },
      {
        "midi": 84,
        "time": 641.75,
        "duration": 0.25,
        "velocity": 0.71,
        "hand": "right"
      },
      {
        "midi": 53,
        "time": 642,
        "duration": 0.25,
        "velocity": 0.5,
        "hand": "left"
      },
      {
        "midi": 71,
        "time": 642,
        "duration": 0.25,
        "velocity": 0.71,
        "hand": "right"
      },
      {
        "midi": 74,
        "time": 642,
        "duration": 0.25,
        "velocity": 0.71,
        "hand": "right"
      },
      {
        "midi": 80,
        "time": 642,
        "duration": 0.5,
        "velocity": 0.71,
        "hand": "right"
      },
      {
        "midi": 62,
        "time": 642.25,
        "duration": 0.25,
        "velocity": 0.5,
        "hand": "right"
      },
      {
        "midi": 68,
        "time": 642.25,
        "duration": 0.25,
        "velocity": 0.5,
        "hand": "right"
      },
      {
        "midi": 72,
        "time": 642.25,
        "duration": 0.25,
        "velocity": 0.71,
        "hand": "right"
      },
      {
        "midi": 73,
        "time": 642.25,
        "duration": 0.25,
        "velocity": 0.71,
        "hand": "right"
      },
      {
        "midi": 75,
        "time": 642.25,
        "duration": 0.25,
        "velocity": 0.71,
        "hand": "right"
      },
      {
        "midi": 76,
        "time": 642.25,
        "duration": 0.25,
        "velocity": 0.71,
        "hand": "right"
      },
      {
        "midi": 59,
        "time": 642.5,
        "duration": 0.25,
        "velocity": 0.5,
        "hand": "left"
      },
      {
        "midi": 74,
        "time": 642.5,
        "duration": 0.25,
        "velocity": 0.71,
        "hand": "right"
      },
      {
        "midi": 77,
        "time": 642.5,
        "duration": 0.25,
        "velocity": 0.71,
        "hand": "right"
      },
      {
        "midi": 62,
        "time": 642.75,
        "duration": 0.25,
        "velocity": 0.5,
        "hand": "right"
      },
      {
        "midi": 68,
        "time": 642.75,
        "duration": 0.25,
        "velocity": 0.5,
        "hand": "right"
      },
      {
        "midi": 75,
        "time": 642.75,
        "duration": 0.25,
        "velocity": 0.71,
        "hand": "right"
      },
      {
        "midi": 76,
        "time": 642.75,
        "duration": 0.25,
        "velocity": 0.71,
        "hand": "right"
      },
      {
        "midi": 78,
        "time": 642.75,
        "duration": 0.25,
        "velocity": 0.71,
        "hand": "right"
      },
      {
        "midi": 79,
        "time": 642.75,
        "duration": 0.25,
        "velocity": 0.71,
        "hand": "right"
      },
      {
        "midi": 52,
        "time": 643,
        "duration": 0.25,
        "velocity": 0.5,
        "hand": "left"
      },
      {
        "midi": 77,
        "time": 643,
        "duration": 0.25,
        "velocity": 0.71,
        "hand": "right"
      },
      {
        "midi": 80,
        "time": 643,
        "duration": 0.25,
        "velocity": 0.71,
        "hand": "right"
      },
      {
        "midi": 61,
        "time": 643.25,
        "duration": 0.25,
        "velocity": 0.5,
        "hand": "right"
      },
      {
        "midi": 67,
        "time": 643.25,
        "duration": 0.25,
        "velocity": 0.5,
        "hand": "right"
      },
      {
        "midi": 76,
        "time": 643.25,
        "duration": 0.25,
        "velocity": 0.71,
        "hand": "right"
      },
      {
        "midi": 79,
        "time": 643.25,
        "duration": 0.25,
        "velocity": 0.71,
        "hand": "right"
      },
      {
        "midi": 82,
        "time": 643.25,
        "duration": 0.25,
        "velocity": 0.71,
        "hand": "right"
      },
      {
        "midi": 85,
        "time": 643.25,
        "duration": 0.25,
        "velocity": 0.71,
        "hand": "right"
      },
      {
        "midi": 51,
        "time": 643.5,
        "duration": 0.25,
        "velocity": 0.5,
        "hand": "left"
      },
      {
        "midi": 69,
        "time": 643.5,
        "duration": 0.25,
        "velocity": 0.71,
        "hand": "right"
      },
      {
        "midi": 72,
        "time": 643.5,
        "duration": 0.25,
        "velocity": 0.71,
        "hand": "right"
      },
      {
        "midi": 78,
        "time": 643.5,
        "duration": 0.5,
        "velocity": 0.71,
        "hand": "right"
      },
      {
        "midi": 60,
        "time": 643.75,
        "duration": 0.25,
        "velocity": 0.5,
        "hand": "right"
      },
      {
        "midi": 66,
        "time": 643.75,
        "duration": 0.25,
        "velocity": 0.5,
        "hand": "right"
      },
      {
        "midi": 70,
        "time": 643.75,
        "duration": 0.25,
        "velocity": 0.71,
        "hand": "right"
      },
      {
        "midi": 71,
        "time": 643.75,
        "duration": 0.25,
        "velocity": 0.71,
        "hand": "right"
      },
      {
        "midi": 73,
        "time": 643.75,
        "duration": 0.25,
        "velocity": 0.71,
        "hand": "right"
      },
      {
        "midi": 74,
        "time": 643.75,
        "duration": 0.25,
        "velocity": 0.71,
        "hand": "right"
      },
      {
        "midi": 57,
        "time": 644,
        "duration": 0.25,
        "velocity": 0.5,
        "hand": "left"
      },
      {
        "midi": 72,
        "time": 644,
        "duration": 0.25,
        "velocity": 0.71,
        "hand": "right"
      },
      {
        "midi": 75,
        "time": 644,
        "duration": 0.25,
        "velocity": 0.71,
        "hand": "right"
      },
      {
        "midi": 60,
        "time": 644.25,
        "duration": 0.25,
        "velocity": 0.5,
        "hand": "right"
      },
      {
        "midi": 66,
        "time": 644.25,
        "duration": 0.25,
        "velocity": 0.5,
        "hand": "right"
      },
      {
        "midi": 73,
        "time": 644.25,
        "duration": 0.25,
        "velocity": 0.71,
        "hand": "right"
      },
      {
        "midi": 74,
        "time": 644.25,
        "duration": 0.25,
        "velocity": 0.71,
        "hand": "right"
      },
      {
        "midi": 76,
        "time": 644.25,
        "duration": 0.25,
        "velocity": 0.71,
        "hand": "right"
      },
      {
        "midi": 77,
        "time": 644.25,
        "duration": 0.25,
        "velocity": 0.71,
        "hand": "right"
      },
      {
        "midi": 50,
        "time": 644.5,
        "duration": 0.25,
        "velocity": 0.5,
        "hand": "left"
      },
      {
        "midi": 75,
        "time": 644.5,
        "duration": 0.25,
        "velocity": 0.71,
        "hand": "right"
      },
      {
        "midi": 78,
        "time": 644.5,
        "duration": 0.25,
        "velocity": 0.71,
        "hand": "right"
      },
      {
        "midi": 59,
        "time": 644.75,
        "duration": 0.25,
        "velocity": 0.5,
        "hand": "left"
      },
      {
        "midi": 65,
        "time": 644.75,
        "duration": 0.25,
        "velocity": 0.5,
        "hand": "right"
      },
      {
        "midi": 74,
        "time": 644.75,
        "duration": 0.25,
        "velocity": 0.71,
        "hand": "right"
      },
      {
        "midi": 77,
        "time": 644.75,
        "duration": 0.25,
        "velocity": 0.71,
        "hand": "right"
      },
      {
        "midi": 80,
        "time": 644.75,
        "duration": 0.25,
        "velocity": 0.71,
        "hand": "right"
      },
      {
        "midi": 83,
        "time": 644.75,
        "duration": 0.25,
        "velocity": 0.71,
        "hand": "right"
      },
      {
        "midi": 49,
        "time": 645,
        "duration": 0.25,
        "velocity": 0.5,
        "hand": "left"
      },
      {
        "midi": 67,
        "time": 645,
        "duration": 0.25,
        "velocity": 0.71,
        "hand": "right"
      },
      {
        "midi": 70,
        "time": 645,
        "duration": 0.25,
        "velocity": 0.71,
        "hand": "right"
      },
      {
        "midi": 76,
        "time": 645,
        "duration": 0.5,
        "velocity": 0.71,
        "hand": "right"
      },
      {
        "midi": 58,
        "time": 645.25,
        "duration": 0.25,
        "velocity": 0.5,
        "hand": "left"
      },
      {
        "midi": 64,
        "time": 645.25,
        "duration": 0.25,
        "velocity": 0.5,
        "hand": "right"
      },
      {
        "midi": 68,
        "time": 645.25,
        "duration": 0.25,
        "velocity": 0.71,
        "hand": "right"
      },
      {
        "midi": 69,
        "time": 645.25,
        "duration": 0.25,
        "velocity": 0.71,
        "hand": "right"
      },
      {
        "midi": 71,
        "time": 645.25,
        "duration": 0.25,
        "velocity": 0.71,
        "hand": "right"
      },
      {
        "midi": 72,
        "time": 645.25,
        "duration": 0.25,
        "velocity": 0.71,
        "hand": "right"
      },
      {
        "midi": 55,
        "time": 645.5,
        "duration": 0.25,
        "velocity": 0.5,
        "hand": "left"
      },
      {
        "midi": 70,
        "time": 645.5,
        "duration": 0.25,
        "velocity": 0.71,
        "hand": "right"
      },
      {
        "midi": 73,
        "time": 645.5,
        "duration": 0.25,
        "velocity": 0.71,
        "hand": "right"
      },
      {
        "midi": 58,
        "time": 645.75,
        "duration": 0.25,
        "velocity": 0.5,
        "hand": "left"
      },
      {
        "midi": 64,
        "time": 645.75,
        "duration": 0.25,
        "velocity": 0.5,
        "hand": "right"
      },
      {
        "midi": 71,
        "time": 645.75,
        "duration": 0.25,
        "velocity": 0.71,
        "hand": "right"
      },
      {
        "midi": 72,
        "time": 645.75,
        "duration": 0.25,
        "velocity": 0.71,
        "hand": "right"
      },
      {
        "midi": 74,
        "time": 645.75,
        "duration": 0.25,
        "velocity": 0.71,
        "hand": "right"
      },
      {
        "midi": 75,
        "time": 645.75,
        "duration": 0.25,
        "velocity": 0.71,
        "hand": "right"
      },
      {
        "midi": 48,
        "time": 646,
        "duration": 0.25,
        "velocity": 0.5,
        "hand": "left"
      },
      {
        "midi": 73,
        "time": 646,
        "duration": 0.25,
        "velocity": 0.71,
        "hand": "right"
      },
      {
        "midi": 76,
        "time": 646,
        "duration": 0.25,
        "velocity": 0.71,
        "hand": "right"
      },
      {
        "midi": 58,
        "time": 646.25,
        "duration": 0.25,
        "velocity": 0.5,
        "hand": "left"
      },
      {
        "midi": 64,
        "time": 646.25,
        "duration": 0.25,
        "velocity": 0.5,
        "hand": "right"
      },
      {
        "midi": 74,
        "time": 646.25,
        "duration": 0.25,
        "velocity": 0.71,
        "hand": "right"
      },
      {
        "midi": 75,
        "time": 646.25,
        "duration": 0.25,
        "velocity": 0.71,
        "hand": "right"
      },
      {
        "midi": 77,
        "time": 646.25,
        "duration": 0.25,
        "velocity": 0.71,
        "hand": "right"
      },
      {
        "midi": 78,
        "time": 646.25,
        "duration": 0.25,
        "velocity": 0.71,
        "hand": "right"
      },
      {
        "midi": 47,
        "time": 646.5,
        "duration": 0.25,
        "velocity": 0.5,
        "hand": "left"
      },
      {
        "midi": 76,
        "time": 646.5,
        "duration": 0.25,
        "velocity": 0.71,
        "hand": "right"
      },
      {
        "midi": 79,
        "time": 646.5,
        "duration": 0.25,
        "velocity": 0.71,
        "hand": "right"
      },
      {
        "midi": 59,
        "time": 646.75,
        "duration": 0.25,
        "velocity": 0.5,
        "hand": "left"
      },
      {
        "midi": 64,
        "time": 646.75,
        "duration": 0.25,
        "velocity": 0.5,
        "hand": "right"
      },
      {
        "midi": 76,
        "time": 646.75,
        "duration": 0.25,
        "velocity": 0.71,
        "hand": "right"
      },
      {
        "midi": 78,
        "time": 646.75,
        "duration": 0.25,
        "velocity": 0.71,
        "hand": "right"
      },
      {
        "midi": 79,
        "time": 646.75,
        "duration": 0.25,
        "velocity": 0.71,
        "hand": "right"
      },
      {
        "midi": 81,
        "time": 646.75,
        "duration": 0.25,
        "velocity": 0.71,
        "hand": "right"
      },
      {
        "midi": 55,
        "time": 647,
        "duration": 0.25,
        "velocity": 0.5,
        "hand": "left"
      },
      {
        "midi": 75,
        "time": 647,
        "duration": 0.25,
        "velocity": 0.71,
        "hand": "right"
      },
      {
        "midi": 78,
        "time": 647,
        "duration": 0.25,
        "velocity": 0.71,
        "hand": "right"
      },
      {
        "midi": 59,
        "time": 647.25,
        "duration": 0.25,
        "velocity": 0.5,
        "hand": "left"
      },
      {
        "midi": 64,
        "time": 647.25,
        "duration": 0.25,
        "velocity": 0.5,
        "hand": "right"
      },
      {
        "midi": 76,
        "time": 647.25,
        "duration": 0.25,
        "velocity": 0.71,
        "hand": "right"
      },
      {
        "midi": 78,
        "time": 647.25,
        "duration": 0.25,
        "velocity": 0.71,
        "hand": "right"
      },
      {
        "midi": 79,
        "time": 647.25,
        "duration": 0.25,
        "velocity": 0.71,
        "hand": "right"
      },
      {
        "midi": 81,
        "time": 647.25,
        "duration": 0.25,
        "velocity": 0.71,
        "hand": "right"
      },
      {
        "midi": 46,
        "time": 647.5,
        "duration": 0.25,
        "velocity": 0.5,
        "hand": "left"
      },
      {
        "midi": 79,
        "time": 647.5,
        "duration": 0.25,
        "velocity": 0.71,
        "hand": "right"
      },
      {
        "midi": 82,
        "time": 647.5,
        "duration": 0.25,
        "velocity": 0.71,
        "hand": "right"
      },
      {
        "midi": 60,
        "time": 647.75,
        "duration": 0.25,
        "velocity": 0.5,
        "hand": "right"
      },
      {
        "midi": 64,
        "time": 647.75,
        "duration": 0.25,
        "velocity": 0.5,
        "hand": "right"
      },
      {
        "midi": 80,
        "time": 647.75,
        "duration": 0.25,
        "velocity": 0.71,
        "hand": "right"
      },
      {
        "midi": 82,
        "time": 647.75,
        "duration": 0.25,
        "velocity": 0.71,
        "hand": "right"
      },
      {
        "midi": 84,
        "time": 647.75,
        "duration": 0.25,
        "velocity": 0.71,
        "hand": "right"
      },
      {
        "midi": 85,
        "time": 647.75,
        "duration": 0.25,
        "velocity": 0.71,
        "hand": "right"
      },
      {
        "midi": 44,
        "time": 648,
        "duration": 0.25,
        "velocity": 0.5,
        "hand": "left"
      },
      {
        "midi": 80,
        "time": 648,
        "duration": 0.25,
        "velocity": 0.71,
        "hand": "right"
      },
      {
        "midi": 84,
        "time": 648,
        "duration": 0.25,
        "velocity": 0.71,
        "hand": "right"
      },
      {
        "midi": 60,
        "time": 648.25,
        "duration": 0.25,
        "velocity": 0.5,
        "hand": "right"
      },
      {
        "midi": 65,
        "time": 648.25,
        "duration": 0.25,
        "velocity": 0.5,
        "hand": "right"
      },
      {
        "midi": 85,
        "time": 648.25,
        "duration": 0.25,
        "velocity": 0.71,
        "hand": "right"
      },
      {
        "midi": 87,
        "time": 648.25,
        "duration": 0.25,
        "velocity": 0.71,
        "hand": "right"
      },
      {
        "midi": 89,
        "time": 648.25,
        "duration": 0.25,
        "velocity": 0.71,
        "hand": "right"
      },
      {
        "midi": 91,
        "time": 648.25,
        "duration": 0.25,
        "velocity": 0.71,
        "hand": "right"
      },
      {
        "midi": 56,
        "time": 648.5,
        "duration": 0.25,
        "velocity": 0.5,
        "hand": "left"
      },
      {
        "midi": 84,
        "time": 648.5,
        "duration": 0.25,
        "velocity": 0.71,
        "hand": "right"
      },
      {
        "midi": 60,
        "time": 648.75,
        "duration": 0.25,
        "velocity": 0.5,
        "hand": "right"
      },
      {
        "midi": 65,
        "time": 648.75,
        "duration": 0.25,
        "velocity": 0.5,
        "hand": "right"
      },
      {
        "midi": 82,
        "time": 648.75,
        "duration": 0.25,
        "velocity": 0.71,
        "hand": "right"
      },
      {
        "midi": 85,
        "time": 648.75,
        "duration": 0.25,
        "velocity": 0.71,
        "hand": "right"
      },
      {
        "midi": 87,
        "time": 648.75,
        "duration": 0.25,
        "velocity": 0.71,
        "hand": "right"
      },
      {
        "midi": 46,
        "time": 649,
        "duration": 0.25,
        "velocity": 0.5,
        "hand": "left"
      },
      {
        "midi": 80,
        "time": 649,
        "duration": 0.25,
        "velocity": 0.71,
        "hand": "right"
      },
      {
        "midi": 61,
        "time": 649.25,
        "duration": 0.25,
        "velocity": 0.5,
        "hand": "right"
      },
      {
        "midi": 65,
        "time": 649.25,
        "duration": 0.25,
        "velocity": 0.5,
        "hand": "right"
      },
      {
        "midi": 79,
        "time": 649.25,
        "duration": 0.25,
        "velocity": 0.71,
        "hand": "right"
      },
      {
        "midi": 82,
        "time": 649.25,
        "duration": 0.25,
        "velocity": 0.71,
        "hand": "right"
      },
      {
        "midi": 84,
        "time": 649.25,
        "duration": 0.25,
        "velocity": 0.71,
        "hand": "right"
      },
      {
        "midi": 48,
        "time": 649.5,
        "duration": 0.25,
        "velocity": 0.5,
        "hand": "left"
      },
      {
        "midi": 72,
        "time": 649.5,
        "duration": 0.25,
        "velocity": 0.71,
        "hand": "right"
      },
      {
        "midi": 60,
        "time": 649.75,
        "duration": 0.25,
        "velocity": 0.5,
        "hand": "right"
      },
      {
        "midi": 65,
        "time": 649.75,
        "duration": 0.25,
        "velocity": 0.5,
        "hand": "right"
      },
      {
        "midi": 77,
        "time": 649.75,
        "duration": 0.25,
        "velocity": 0.71,
        "hand": "right"
      },
      {
        "midi": 79,
        "time": 649.75,
        "duration": 0.25,
        "velocity": 0.71,
        "hand": "right"
      },
      {
        "midi": 80,
        "time": 649.75,
        "duration": 0.25,
        "velocity": 0.71,
        "hand": "right"
      },
      {
        "midi": 82,
        "time": 649.75,
        "duration": 0.25,
        "velocity": 0.71,
        "hand": "right"
      },
      {
        "midi": 56,
        "time": 650,
        "duration": 0.25,
        "velocity": 0.5,
        "hand": "left"
      },
      {
        "midi": 68,
        "time": 650,
        "duration": 0.25,
        "velocity": 0.71,
        "hand": "right"
      },
      {
        "midi": 60,
        "time": 650.25,
        "duration": 0.25,
        "velocity": 0.5,
        "hand": "right"
      },
      {
        "midi": 65,
        "time": 650.25,
        "duration": 0.25,
        "velocity": 0.5,
        "hand": "right"
      },
      {
        "midi": 73,
        "time": 650.25,
        "duration": 0.25,
        "velocity": 0.71,
        "hand": "right"
      },
      {
        "midi": 75,
        "time": 650.25,
        "duration": 0.25,
        "velocity": 0.71,
        "hand": "right"
      },
      {
        "midi": 77,
        "time": 650.25,
        "duration": 0.25,
        "velocity": 0.71,
        "hand": "right"
      },
      {
        "midi": 79,
        "time": 650.25,
        "duration": 0.25,
        "velocity": 0.71,
        "hand": "right"
      },
      {
        "midi": 48,
        "time": 650.5,
        "duration": 0.25,
        "velocity": 0.5,
        "hand": "left"
      },
      {
        "midi": 67,
        "time": 650.5,
        "duration": 0.25,
        "velocity": 0.71,
        "hand": "right"
      },
      {
        "midi": 60,
        "time": 650.75,
        "duration": 0.25,
        "velocity": 0.5,
        "hand": "right"
      },
      {
        "midi": 64,
        "time": 650.75,
        "duration": 0.25,
        "velocity": 0.5,
        "hand": "right"
      },
      {
        "midi": 70,
        "time": 650.75,
        "duration": 0.25,
        "velocity": 0.71,
        "hand": "right"
      },
      {
        "midi": 72,
        "time": 650.75,
        "duration": 0.25,
        "velocity": 0.71,
        "hand": "right"
      },
      {
        "midi": 76,
        "time": 650.75,
        "duration": 0.25,
        "velocity": 0.71,
        "hand": "right"
      },
      {
        "midi": 49,
        "time": 651,
        "duration": 1,
        "velocity": 0.71,
        "hand": "left"
      },
      {
        "midi": 70,
        "time": 651,
        "duration": 0.25,
        "velocity": 0.71,
        "hand": "right"
      },
      {
        "midi": 56,
        "time": 651.25,
        "duration": 0.25,
        "velocity": 0.71,
        "hand": "left"
      },
      {
        "midi": 61,
        "time": 651.25,
        "duration": 0.25,
        "velocity": 0.71,
        "hand": "right"
      },
      {
        "midi": 68,
        "time": 651.25,
        "duration": 0.25,
        "velocity": 0.71,
        "hand": "right"
      },
      {
        "midi": 76,
        "time": 651.25,
        "duration": 0.25,
        "velocity": 0.71,
        "hand": "right"
      },
      {
        "midi": 77,
        "time": 651.25,
        "duration": 0.25,
        "velocity": 0.71,
        "hand": "right"
      },
      {
        "midi": 79,
        "time": 651.25,
        "duration": 0.25,
        "velocity": 0.71,
        "hand": "right"
      },
      {
        "midi": 53,
        "time": 651.5,
        "duration": 0.25,
        "velocity": 0.71,
        "hand": "left"
      },
      {
        "midi": 77,
        "time": 651.5,
        "duration": 0.25,
        "velocity": 0.71,
        "hand": "right"
      },
      {
        "midi": 56,
        "time": 651.75,
        "duration": 0.25,
        "velocity": 0.71,
        "hand": "left"
      },
      {
        "midi": 61,
        "time": 651.75,
        "duration": 0.25,
        "velocity": 0.71,
        "hand": "right"
      },
      {
        "midi": 70,
        "time": 651.75,
        "duration": 0.25,
        "velocity": 0.71,
        "hand": "right"
      },
      {
        "midi": 73,
        "time": 651.75,
        "duration": 0.25,
        "velocity": 0.71,
        "hand": "right"
      },
      {
        "midi": 75,
        "time": 651.75,
        "duration": 0.25,
        "velocity": 0.71,
        "hand": "right"
      },
      {
        "midi": 46,
        "time": 652,
        "duration": 0.5,
        "velocity": 0.71,
        "hand": "left"
      },
      {
        "midi": 68,
        "time": 652,
        "duration": 0.25,
        "velocity": 0.71,
        "hand": "right"
      },
      {
        "midi": 55,
        "time": 652.25,
        "duration": 0.25,
        "velocity": 0.71,
        "hand": "left"
      },
      {
        "midi": 61,
        "time": 652.25,
        "duration": 0.25,
        "velocity": 0.71,
        "hand": "right"
      },
      {
        "midi": 67,
        "time": 652.25,
        "duration": 0.25,
        "velocity": 0.71,
        "hand": "right"
      },
      {
        "midi": 70,
        "time": 652.25,
        "duration": 0.25,
        "velocity": 0.71,
        "hand": "right"
      },
      {
        "midi": 72,
        "time": 652.25,
        "duration": 0.25,
        "velocity": 0.71,
        "hand": "right"
      },
      {
        "midi": 48,
        "time": 652.5,
        "duration": 0.25,
        "velocity": 0.71,
        "hand": "left"
      },
      {
        "midi": 65,
        "time": 652.5,
        "duration": 1,
        "velocity": 0.71,
        "hand": "right"
      },
      {
        "midi": 68,
        "time": 652.5,
        "duration": 0.5,
        "velocity": 0.71,
        "hand": "right"
      },
      {
        "midi": 60,
        "time": 652.75,
        "duration": 0.25,
        "velocity": 0.71,
        "hand": "right"
      },
      {
        "midi": 61,
        "time": 652.75,
        "duration": 0.25,
        "velocity": 0.71,
        "hand": "right"
      },
      {
        "midi": 60,
        "time": 653,
        "duration": 0.25,
        "velocity": 0.71,
        "hand": "right"
      },
      {
        "midi": 67,
        "time": 653,
        "duration": 1,
        "velocity": 0.71,
        "hand": "right"
      },
      {
        "midi": 59,
        "time": 653.25,
        "duration": 0.25,
        "velocity": 0.71,
        "hand": "left"
      },
      {
        "midi": 60,
        "time": 653.25,
        "duration": 0.25,
        "velocity": 0.71,
        "hand": "right"
      },
      {
        "midi": 55,
        "time": 653.5,
        "duration": 0.25,
        "velocity": 0.71,
        "hand": "left"
      },
      {
        "midi": 64,
        "time": 653.5,
        "duration": 0.5,
        "velocity": 0.71,
        "hand": "right"
      },
      {
        "midi": 57,
        "time": 653.75,
        "duration": 0.25,
        "velocity": 0.71,
        "hand": "left"
      },
      {
        "midi": 60,
        "time": 653.75,
        "duration": 0.25,
        "velocity": 0.71,
        "hand": "right"
      },
      {
        "midi": 58,
        "time": 654,
        "duration": 0.25,
        "velocity": 0.5,
        "hand": "left"
      },
      {
        "midi": 62,
        "time": 654,
        "duration": 0.5,
        "velocity": 0.71,
        "hand": "right"
      },
      {
        "midi": 63,
        "time": 654,
        "duration": 0.25,
        "velocity": 0.71,
        "hand": "right"
      },
      {
        "midi": 65,
        "time": 654,
        "duration": 0.5,
        "velocity": 0.71,
        "hand": "right"
      },
      {
        "midi": 72,
        "time": 654,
        "duration": 0.25,
        "velocity": 0.71,
        "hand": "right"
      },
      {
        "midi": 53,
        "time": 654.25,
        "duration": 0.25,
        "velocity": 0.5,
        "hand": "left"
      },
      {
        "midi": 55,
        "time": 654.25,
        "duration": 0.25,
        "velocity": 0.5,
        "hand": "left"
      },
      {
        "midi": 56,
        "time": 654.5,
        "duration": 0.25,
        "velocity": 0.5,
        "hand": "left"
      },
      {
        "midi": 60,
        "time": 654.5,
        "duration": 0.5,
        "velocity": 0.71,
        "hand": "right"
      },
      {
        "midi": 61,
        "time": 654.5,
        "duration": 0.25,
        "velocity": 0.71,
        "hand": "right"
      },
      {
        "midi": 63,
        "time": 654.5,
        "duration": 0.5,
        "velocity": 0.71,
        "hand": "right"
      },
      {
        "midi": 70,
        "time": 654.5,
        "duration": 0.25,
        "velocity": 0.71,
        "hand": "right"
      },
      {
        "midi": 51,
        "time": 654.75,
        "duration": 0.25,
        "velocity": 0.5,
        "hand": "left"
      },
      {
        "midi": 53,
        "time": 654.75,
        "duration": 0.25,
        "velocity": 0.5,
        "hand": "left"
      },
      {
        "midi": 55,
        "time": 655,
        "duration": 0.25,
        "velocity": 0.5,
        "hand": "left"
      },
      {
        "midi": 59,
        "time": 655,
        "duration": 0.5,
        "velocity": 0.71,
        "hand": "left"
      },
      {
        "midi": 60,
        "time": 655,
        "duration": 0.25,
        "velocity": 0.71,
        "hand": "right"
      },
      {
        "midi": 62,
        "time": 655,
        "duration": 0.5,
        "velocity": 0.71,
        "hand": "right"
      },
      {
        "midi": 68,
        "time": 655,
        "duration": 0.25,
        "velocity": 0.71,
        "hand": "right"
      },
      {
        "midi": 50,
        "time": 655.25,
        "duration": 0.25,
        "velocity": 0.5,
        "hand": "left"
      },
      {
        "midi": 52,
        "time": 655.25,
        "duration": 0.25,
        "velocity": 0.5,
        "hand": "left"
      },
      {
        "midi": 53,
        "time": 655.5,
        "duration": 0.25,
        "velocity": 0.5,
        "hand": "left"
      },
      {
        "midi": 57,
        "time": 655.5,
        "duration": 0.5,
        "velocity": 0.71,
        "hand": "left"
      },
      {
        "midi": 58,
        "time": 655.5,
        "duration": 0.25,
        "velocity": 0.71,
        "hand": "left"
      },
      {
        "midi": 60,
        "time": 655.5,
        "duration": 0.5,
        "velocity": 0.71,
        "hand": "right"
      },
      {
        "midi": 67,
        "time": 655.5,
        "duration": 0.25,
        "velocity": 0.71,
        "hand": "right"
      },
      {
        "midi": 48,
        "time": 655.75,
        "duration": 0.25,
        "velocity": 0.5,
        "hand": "left"
      },
      {
        "midi": 49,
        "time": 655.75,
        "duration": 0.25,
        "velocity": 0.5,
        "hand": "left"
      },
      {
        "midi": 46,
        "time": 656,
        "duration": 0.25,
        "velocity": 0.5,
        "hand": "left"
      },
      {
        "midi": 55,
        "time": 656,
        "duration": 0.5,
        "velocity": 0.71,
        "hand": "left"
      },
      {
        "midi": 56,
        "time": 656,
        "duration": 0.25,
        "velocity": 0.71,
        "hand": "left"
      },
      {
        "midi": 61,
        "time": 656,
        "duration": 0.5,
        "velocity": 0.71,
        "hand": "right"
      },
      {
        "midi": 65,
        "time": 656,
        "duration": 0.25,
        "velocity": 0.71,
        "hand": "right"
      },
      {
        "midi": 65,
        "time": 656,
        "duration": 0.5,
        "velocity": 0.71,
        "hand": "right"
      },
      {
        "midi": 45,
        "time": 656.25,
        "duration": 0.25,
        "velocity": 0.5,
        "hand": "left"
      },
      {
        "midi": 46,
        "time": 656.25,
        "duration": 0.25,
        "velocity": 0.5,
        "hand": "left"
      },
      {
        "midi": 48,
        "time": 656.5,
        "duration": 0.25,
        "velocity": 0.5,
        "hand": "left"
      },
      {
        "midi": 55,
        "time": 656.5,
        "duration": 0.5,
        "velocity": 0.71,
        "hand": "left"
      },
      {
        "midi": 60,
        "time": 656.5,
        "duration": 0.5,
        "velocity": 0.71,
        "hand": "right"
      },
      {
        "midi": 64,
        "time": 656.5,
        "duration": 0.5,
        "velocity": 0.71,
        "hand": "right"
      },
      {
        "midi": 47,
        "time": 656.75,
        "duration": 0.25,
        "velocity": 0.5,
        "hand": "left"
      },
      {
        "midi": 48,
        "time": 656.75,
        "duration": 0.25,
        "velocity": 0.5,
        "hand": "left"
      },
      {
        "midi": 45,
        "time": 657,
        "duration": 0.25,
        "velocity": 0.5,
        "hand": "left"
      },
      {
        "midi": 53,
        "time": 657,
        "duration": 1,
        "velocity": 0.71,
        "hand": "left"
      },
      {
        "midi": 60,
        "time": 657,
        "duration": 0.5,
        "velocity": 0.71,
        "hand": "right"
      },
      {
        "midi": 63,
        "time": 657,
        "duration": 0.5,
        "velocity": 0.71,
        "hand": "right"
      },
      {
        "midi": 44,
        "time": 657.25,
        "duration": 0.25,
        "velocity": 0.5,
        "hand": "left"
      },
      {
        "midi": 45,
        "time": 657.25,
        "duration": 0.25,
        "velocity": 0.5,
        "hand": "left"
      },
      {
        "midi": 46,
        "time": 657.5,
        "duration": 0.25,
        "velocity": 0.5,
        "hand": "left"
      },
      {
        "midi": 58,
        "time": 657.5,
        "duration": 1,
        "velocity": 0.71,
        "hand": "left"
      },
      {
        "midi": 61,
        "time": 657.5,
        "duration": 1,
        "velocity": 0.71,
        "hand": "right"
      },
      {
        "midi": 44,
        "time": 657.75,
        "duration": 0.25,
        "velocity": 0.5,
        "hand": "left"
      },
      {
        "midi": 48,
        "time": 657.75,
        "duration": 0.25,
        "velocity": 0.5,
        "hand": "left"
      },
      {
        "midi": 43,
        "time": 658,
        "duration": 0.25,
        "velocity": 0.5,
        "hand": "left"
      },
      {
        "midi": 52,
        "time": 658,
        "duration": 0.5,
        "velocity": 0.71,
        "hand": "left"
      },
      {
        "midi": 41,
        "time": 658.25,
        "duration": 0.25,
        "velocity": 0.5,
        "hand": "left"
      },
      {
        "midi": 44,
        "time": 658.25,
        "duration": 0.25,
        "velocity": 0.5,
        "hand": "left"
      },
      {
        "midi": 40,
        "time": 658.5,
        "duration": 0.25,
        "velocity": 0.5,
        "hand": "left"
      },
      {
        "midi": 53,
        "time": 658.5,
        "duration": 0.25,
        "velocity": 0.71,
        "hand": "left"
      },
      {
        "midi": 55,
        "time": 658.5,
        "duration": 0.5,
        "velocity": 0.71,
        "hand": "left"
      },
      {
        "midi": 58,
        "time": 658.5,
        "duration": 0.5,
        "velocity": 0.71,
        "hand": "left"
      },
      {
        "midi": 60,
        "time": 658.5,
        "duration": 1,
        "velocity": 0.71,
        "hand": "right"
      },
      {
        "midi": 41,
        "time": 658.75,
        "duration": 0.25,
        "velocity": 0.5,
        "hand": "left"
      },
      {
        "midi": 43,
        "time": 658.75,
        "duration": 0.25,
        "velocity": 0.5,
        "hand": "left"
      },
      {
        "midi": 41,
        "time": 659,
        "duration": 0.25,
        "velocity": 0.5,
        "hand": "left"
      },
      {
        "midi": 53,
        "time": 659,
        "duration": 0.5,
        "velocity": 0.71,
        "hand": "left"
      },
      {
        "midi": 56,
        "time": 659,
        "duration": 0.5,
        "velocity": 0.71,
        "hand": "left"
      },
      {
        "midi": 39,
        "time": 659.25,
        "duration": 0.25,
        "velocity": 0.5,
        "hand": "left"
      },
      {
        "midi": 43,
        "time": 659.25,
        "duration": 0.25,
        "velocity": 0.5,
        "hand": "left"
      },
      {
        "midi": 37,
        "time": 659.5,
        "duration": 0.25,
        "velocity": 0.5,
        "hand": "left"
      },
      {
        "midi": 53,
        "time": 659.5,
        "duration": 0.5,
        "velocity": 0.71,
        "hand": "left"
      },
      {
        "midi": 56,
        "time": 659.5,
        "duration": 0.5,
        "velocity": 0.71,
        "hand": "left"
      },
      {
        "midi": 65,
        "time": 659.5,
        "duration": 0.5,
        "velocity": 0.71,
        "hand": "right"
      },
      {
        "midi": 36,
        "time": 659.75,
        "duration": 0.25,
        "velocity": 0.5,
        "hand": "left"
      },
      {
        "midi": 39,
        "time": 659.75,
        "duration": 0.25,
        "velocity": 0.5,
        "hand": "left"
      },
      {
        "midi": 34,
        "time": 660,
        "duration": 0.25,
        "velocity": 0.5,
        "hand": "left"
      },
      {
        "midi": 53,
        "time": 660,
        "duration": 0.5,
        "velocity": 0.71,
        "hand": "left"
      },
      {
        "midi": 55,
        "time": 660,
        "duration": 0.5,
        "velocity": 0.71,
        "hand": "left"
      },
      {
        "midi": 65,
        "time": 660,
        "duration": 0.5,
        "velocity": 0.71,
        "hand": "right"
      },
      {
        "midi": 36,
        "time": 660.25,
        "duration": 0.25,
        "velocity": 0.5,
        "hand": "left"
      },
      {
        "midi": 37,
        "time": 660.25,
        "duration": 0.25,
        "velocity": 0.5,
        "hand": "left"
      },
      {
        "midi": 36,
        "time": 660.5,
        "duration": 0.25,
        "velocity": 0.5,
        "hand": "left"
      },
      {
        "midi": 51,
        "time": 660.5,
        "duration": 0.5,
        "velocity": 0.71,
        "hand": "left"
      },
      {
        "midi": 57,
        "time": 660.5,
        "duration": 0.5,
        "velocity": 0.71,
        "hand": "left"
      },
      {
        "midi": 39,
        "time": 660.75,
        "duration": 0.25,
        "velocity": 0.5,
        "hand": "left"
      },
      {
        "midi": 41,
        "time": 660.75,
        "duration": 0.25,
        "velocity": 0.5,
        "hand": "left"
      },
      {
        "midi": 37,
        "time": 661,
        "duration": 0.25,
        "velocity": 0.5,
        "hand": "left"
      },
      {
        "midi": 53,
        "time": 661,
        "duration": 0.5,
        "velocity": 0.71,
        "hand": "left"
      },
      {
        "midi": 58,
        "time": 661,
        "duration": 0.5,
        "velocity": 0.71,
        "hand": "left"
      },
      {
        "midi": 39,
        "time": 661.25,
        "duration": 0.25,
        "velocity": 0.5,
        "hand": "left"
      },
      {
        "midi": 41,
        "time": 661.25,
        "duration": 0.25,
        "velocity": 0.5,
        "hand": "left"
      },
      {
        "midi": 40,
        "time": 661.5,
        "duration": 0.25,
        "velocity": 0.5,
        "hand": "left"
      },
      {
        "midi": 55,
        "time": 661.5,
        "duration": 0.5,
        "velocity": 0.71,
        "hand": "left"
      },
      {
        "midi": 58,
        "time": 661.5,
        "duration": 0.5,
        "velocity": 0.71,
        "hand": "left"
      },
      {
        "midi": 60,
        "time": 661.5,
        "duration": 0.5,
        "velocity": 0.71,
        "hand": "right"
      },
      {
        "midi": 41,
        "time": 661.75,
        "duration": 0.25,
        "velocity": 0.5,
        "hand": "left"
      },
      {
        "midi": 43,
        "time": 661.75,
        "duration": 0.25,
        "velocity": 0.5,
        "hand": "left"
      },
      {
        "midi": 41,
        "time": 662,
        "duration": 0.25,
        "velocity": 0.5,
        "hand": "left"
      },
      {
        "midi": 56,
        "time": 662,
        "duration": 0.5,
        "velocity": 0.71,
        "hand": "left"
      },
      {
        "midi": 60,
        "time": 662,
        "duration": 0.5,
        "velocity": 0.71,
        "hand": "right"
      },
      {
        "midi": 68,
        "time": 662,
        "duration": 0.5,
        "velocity": 0.71,
        "hand": "right"
      },
      {
        "midi": 44,
        "time": 662.25,
        "duration": 0.25,
        "velocity": 0.5,
        "hand": "left"
      },
      {
        "midi": 46,
        "time": 662.25,
        "duration": 0.25,
        "velocity": 0.5,
        "hand": "left"
      },
      {
        "midi": 43,
        "time": 662.5,
        "duration": 0.25,
        "velocity": 0.5,
        "hand": "left"
      },
      {
        "midi": 58,
        "time": 662.5,
        "duration": 0.5,
        "velocity": 0.71,
        "hand": "left"
      },
      {
        "midi": 60,
        "time": 662.5,
        "duration": 0.5,
        "velocity": 0.71,
        "hand": "right"
      },
      {
        "midi": 64,
        "time": 662.5,
        "duration": 0.5,
        "velocity": 0.71,
        "hand": "right"
      },
      {
        "midi": 44,
        "time": 662.75,
        "duration": 0.25,
        "velocity": 0.5,
        "hand": "left"
      },
      {
        "midi": 46,
        "time": 662.75,
        "duration": 0.25,
        "velocity": 0.5,
        "hand": "left"
      },
      {
        "midi": 44,
        "time": 663,
        "duration": 0.25,
        "velocity": 0.5,
        "hand": "left"
      },
      {
        "midi": 56,
        "time": 663,
        "duration": 0.5,
        "velocity": 0.71,
        "hand": "left"
      },
      {
        "midi": 60,
        "time": 663,
        "duration": 0.5,
        "velocity": 0.71,
        "hand": "right"
      },
      {
        "midi": 65,
        "time": 663,
        "duration": 0.5,
        "velocity": 0.71,
        "hand": "right"
      },
      {
        "midi": 46,
        "time": 663.25,
        "duration": 0.25,
        "velocity": 0.5,
        "hand": "left"
      },
      {
        "midi": 48,
        "time": 663.25,
        "duration": 0.25,
        "velocity": 0.5,
        "hand": "left"
      },
      {
        "midi": 45,
        "time": 663.5,
        "duration": 0.25,
        "velocity": 0.5,
        "hand": "left"
      },
      {
        "midi": 54,
        "time": 663.5,
        "duration": 0.5,
        "velocity": 0.71,
        "hand": "left"
      },
      {
        "midi": 60,
        "time": 663.5,
        "duration": 0.5,
        "velocity": 0.71,
        "hand": "right"
      },
      {
        "midi": 63,
        "time": 663.5,
        "duration": 0.5,
        "velocity": 0.71,
        "hand": "right"
      },
      {
        "midi": 44,
        "time": 663.75,
        "duration": 0.25,
        "velocity": 0.5,
        "hand": "left"
      },
      {
        "midi": 45,
        "time": 663.75,
        "duration": 0.25,
        "velocity": 0.5,
        "hand": "left"
      },
      {
        "midi": 46,
        "time": 664,
        "duration": 0.25,
        "velocity": 0.5,
        "hand": "left"
      },
      {
        "midi": 53,
        "time": 664,
        "duration": 0.5,
        "velocity": 0.71,
        "hand": "left"
      },
      {
        "midi": 58,
        "time": 664,
        "duration": 0.5,
        "velocity": 0.71,
        "hand": "left"
      },
      {
        "midi": 61,
        "time": 664,
        "duration": 0.5,
        "velocity": 0.71,
        "hand": "right"
      },
      {
        "midi": 48,
        "time": 664.25,
        "duration": 0.25,
        "velocity": 0.5,
        "hand": "left"
      },
      {
        "midi": 49,
        "time": 664.25,
        "duration": 0.25,
        "velocity": 0.5,
        "hand": "left"
      },
      {
        "midi": 48,
        "time": 664.5,
        "duration": 0.25,
        "velocity": 0.5,
        "hand": "left"
      },
      {
        "midi": 53,
        "time": 664.5,
        "duration": 1,
        "velocity": 0.71,
        "hand": "left"
      },
      {
        "midi": 56,
        "time": 664.5,
        "duration": 1,
        "velocity": 0.71,
        "hand": "left"
      },
      {
        "midi": 60,
        "time": 664.5,
        "duration": 1,
        "velocity": 0.71,
        "hand": "right"
      },
      {
        "midi": 41,
        "time": 664.75,
        "duration": 0.25,
        "velocity": 0.5,
        "hand": "left"
      },
      {
        "midi": 44,
        "time": 664.75,
        "duration": 0.25,
        "velocity": 0.5,
        "hand": "left"
      },
      {
        "midi": 37,
        "time": 665,
        "duration": 0.25,
        "velocity": 0.5,
        "hand": "left"
      },
      {
        "midi": 36,
        "time": 665.25,
        "duration": 0.25,
        "velocity": 0.5,
        "hand": "left"
      },
      {
        "midi": 37,
        "time": 665.25,
        "duration": 0.25,
        "velocity": 0.5,
        "hand": "left"
      },
      {
        "midi": 36,
        "time": 665.5,
        "duration": 0.25,
        "velocity": 0.5,
        "hand": "left"
      },
      {
        "midi": 52,
        "time": 665.5,
        "duration": 0.5,
        "velocity": 0.71,
        "hand": "left"
      },
      {
        "midi": 58,
        "time": 665.5,
        "duration": 0.5,
        "velocity": 0.71,
        "hand": "left"
      },
      {
        "midi": 60,
        "time": 665.5,
        "duration": 0.5,
        "velocity": 0.71,
        "hand": "right"
      },
      {
        "midi": 43,
        "time": 665.75,
        "duration": 0.25,
        "velocity": 0.5,
        "hand": "left"
      },
      {
        "midi": 44,
        "time": 665.75,
        "duration": 0.25,
        "velocity": 0.5,
        "hand": "left"
      },
      {
        "midi": 41,
        "time": 666,
        "duration": 0.5,
        "velocity": 0.5,
        "hand": "left"
      },
      {
        "midi": 48,
        "time": 666,
        "duration": 0.5,
        "velocity": 0.5,
        "hand": "left"
      },
      {
        "midi": 56,
        "time": 666,
        "duration": 0.25,
        "velocity": 0.71,
        "hand": "left"
      },
      {
        "midi": 65,
        "time": 666,
        "duration": 0.25,
        "velocity": 0.71,
        "hand": "right"
      },
      {
        "midi": 57,
        "time": 666.25,
        "duration": 0.25,
        "velocity": 0.71,
        "hand": "left"
      },
      {
        "midi": 60,
        "time": 666.25,
        "duration": 0.25,
        "velocity": 0.71,
        "hand": "right"
      },
      {
        "midi": 66,
        "time": 666.25,
        "duration": 0.25,
        "velocity": 0.71,
        "hand": "right"
      },
      {
        "midi": 51,
        "time": 666.5,
        "duration": 0.25,
        "velocity": 0.5,
        "hand": "left"
      },
      {
        "midi": 54,
        "time": 666.5,
        "duration": 0.5,
        "velocity": 0.5,
        "hand": "left"
      },
      {
        "midi": 62,
        "time": 666.5,
        "duration": 0.25,
        "velocity": 0.71,
        "hand": "right"
      },
      {
        "midi": 69,
        "time": 666.5,
        "duration": 0.25,
        "velocity": 0.71,
        "hand": "right"
      },
      {
        "midi": 63,
        "time": 666.75,
        "duration": 0.25,
        "velocity": 0.71,
        "hand": "right"
      },
      {
        "midi": 66,
        "time": 666.75,
        "duration": 0.25,
        "velocity": 0.71,
        "hand": "right"
      },
      {
        "midi": 72,
        "time": 666.75,
        "duration": 0.25,
        "velocity": 0.71,
        "hand": "right"
      },
      {
        "midi": 57,
        "time": 667,
        "duration": 0.25,
        "velocity": 0.5,
        "hand": "left"
      },
      {
        "midi": 60,
        "time": 667,
        "duration": 0.5,
        "velocity": 0.5,
        "hand": "right"
      },
      {
        "midi": 68,
        "time": 667,
        "duration": 0.25,
        "velocity": 0.71,
        "hand": "right"
      },
      {
        "midi": 75,
        "time": 667,
        "duration": 0.25,
        "velocity": 0.71,
        "hand": "right"
      },
      {
        "midi": 69,
        "time": 667.25,
        "duration": 0.25,
        "velocity": 0.71,
        "hand": "right"
      },
      {
        "midi": 72,
        "time": 667.25,
        "duration": 0.25,
        "velocity": 0.71,
        "hand": "right"
      },
      {
        "midi": 78,
        "time": 667.25,
        "duration": 0.25,
        "velocity": 0.71,
        "hand": "right"
      },
      {
        "midi": 63,
        "time": 667.5,
        "duration": 0.25,
        "velocity": 0.5,
        "hand": "right"
      },
      {
        "midi": 66,
        "time": 667.5,
        "duration": 0.5,
        "velocity": 0.5,
        "hand": "right"
      },
      {
        "midi": 74,
        "time": 667.5,
        "duration": 0.25,
        "velocity": 0.71,
        "hand": "right"
      },
      {
        "midi": 81,
        "time": 667.5,
        "duration": 0.25,
        "velocity": 0.71,
        "hand": "right"
      },
      {
        "midi": 75,
        "time": 667.75,
        "duration": 0.25,
        "velocity": 0.71,
        "hand": "right"
      },
      {
        "midi": 78,
        "time": 667.75,
        "duration": 0.25,
        "velocity": 0.71,
        "hand": "right"
      },
      {
        "midi": 84,
        "time": 667.75,
        "duration": 0.25,
        "velocity": 0.71,
        "hand": "right"
      },
      {
        "midi": 69,
        "time": 668,
        "duration": 0.25,
        "velocity": 0.5,
        "hand": "right"
      },
      {
        "midi": 72,
        "time": 668,
        "duration": 0.5,
        "velocity": 0.5,
        "hand": "right"
      },
      {
        "midi": 80,
        "time": 668,
        "duration": 0.25,
        "velocity": 0.71,
        "hand": "right"
      },
      {
        "midi": 87,
        "time": 668,
        "duration": 0.25,
        "velocity": 0.71,
        "hand": "right"
      },
      {
        "midi": 81,
        "time": 668.25,
        "duration": 0.25,
        "velocity": 0.71,
        "hand": "right"
      },
      {
        "midi": 84,
        "time": 668.25,
        "duration": 0.25,
        "velocity": 0.71,
        "hand": "right"
      },
      {
        "midi": 90,
        "time": 668.25,
        "duration": 0.25,
        "velocity": 0.71,
        "hand": "right"
      },
      {
        "midi": 75,
        "time": 668.5,
        "duration": 0.25,
        "velocity": 0.5,
        "hand": "right"
      },
      {
        "midi": 78,
        "time": 668.5,
        "duration": 0.5,
        "velocity": 0.5,
        "hand": "right"
      },
      {
        "midi": 86,
        "time": 668.5,
        "duration": 0.25,
        "velocity": 0.71,
        "hand": "right"
      },
      {
        "midi": 93,
        "time": 668.5,
        "duration": 0.25,
        "velocity": 0.71,
        "hand": "right"
      },
      {
        "midi": 87,
        "time": 668.75,
        "duration": 0.25,
        "velocity": 0.71,
        "hand": "right"
      },
      {
        "midi": 90,
        "time": 668.75,
        "duration": 0.25,
        "velocity": 0.71,
        "hand": "right"
      },
      {
        "midi": 96,
        "time": 668.75,
        "duration": 0.25,
        "velocity": 0.71,
        "hand": "right"
      },
      {
        "midi": 81,
        "time": 669,
        "duration": 0.25,
        "velocity": 0.5,
        "hand": "right"
      },
      {
        "midi": 84,
        "time": 669,
        "duration": 0.5,
        "velocity": 0.5,
        "hand": "right"
      },
      {
        "midi": 93,
        "time": 669,
        "duration": 0.5,
        "velocity": 0.5,
        "hand": "right"
      },
      {
        "midi": 99,
        "time": 669,
        "duration": 0.5,
        "velocity": 0.5,
        "hand": "right"
      },
      {
        "midi": 42,
        "time": 669.5,
        "duration": 0.25,
        "velocity": 0.5,
        "hand": "left"
      },
      {
        "midi": 54,
        "time": 669.5,
        "duration": 0.25,
        "velocity": 0.5,
        "hand": "left"
      },
      {
        "midi": 57,
        "time": 669.5,
        "duration": 0.5,
        "velocity": 0.71,
        "hand": "left"
      },
      {
        "midi": 60,
        "time": 669.5,
        "duration": 0.5,
        "velocity": 0.71,
        "hand": "right"
      },
      {
        "midi": 63,
        "time": 669.5,
        "duration": 0.25,
        "velocity": 0.71,
        "hand": "right"
      },
      {
        "midi": 69,
        "time": 669.5,
        "duration": 0.5,
        "velocity": 0.71,
        "hand": "right"
      },
      {
        "midi": 39,
        "time": 669.75,
        "duration": 0.25,
        "velocity": 0.5,
        "hand": "left"
      },
      {
        "midi": 41,
        "time": 669.75,
        "duration": 0.25,
        "velocity": 0.5,
        "hand": "left"
      },
      {
        "midi": 51,
        "time": 669.75,
        "duration": 0.25,
        "velocity": 0.5,
        "hand": "left"
      },
      {
        "midi": 53,
        "time": 669.75,
        "duration": 0.25,
        "velocity": 0.5,
        "hand": "left"
      },
      {
        "midi": 65,
        "time": 669.75,
        "duration": 0.25,
        "velocity": 0.71,
        "hand": "right"
      },
      {
        "midi": 66,
        "time": 669.75,
        "duration": 0.25,
        "velocity": 0.71,
        "hand": "right"
      },
      {
        "midi": 37,
        "time": 670,
        "duration": 0.25,
        "velocity": 0.5,
        "hand": "left"
      },
      {
        "midi": 49,
        "time": 670,
        "duration": 0.25,
        "velocity": 0.5,
        "hand": "left"
      },
      {
        "midi": 58,
        "time": 670,
        "duration": 0.5,
        "velocity": 0.71,
        "hand": "left"
      },
      {
        "midi": 65,
        "time": 670,
        "duration": 0.5,
        "velocity": 0.71,
        "hand": "right"
      },
      {
        "midi": 70,
        "time": 670,
        "duration": 0.5,
        "velocity": 0.71,
        "hand": "right"
      },
      {
        "midi": 34,
        "time": 670.25,
        "duration": 0.25,
        "velocity": 0.5,
        "hand": "left"
      },
      {
        "midi": 36,
        "time": 670.25,
        "duration": 0.25,
        "velocity": 0.5,
        "hand": "left"
      },
      {
        "midi": 46,
        "time": 670.25,
        "duration": 0.25,
        "velocity": 0.5,
        "hand": "left"
      },
      {
        "midi": 48,
        "time": 670.25,
        "duration": 0.25,
        "velocity": 0.5,
        "hand": "left"
      },
      {
        "midi": 32,
        "time": 670.5,
        "duration": 0.25,
        "velocity": 0.5,
        "hand": "left"
      },
      {
        "midi": 44,
        "time": 670.5,
        "duration": 0.25,
        "velocity": 0.5,
        "hand": "left"
      },
      {
        "midi": 61,
        "time": 670.5,
        "duration": 0.5,
        "velocity": 0.71,
        "hand": "right"
      },
      {
        "midi": 65,
        "time": 670.5,
        "duration": 0.5,
        "velocity": 0.71,
        "hand": "right"
      },
      {
        "midi": 70,
        "time": 670.5,
        "duration": 0.5,
        "velocity": 0.71,
        "hand": "right"
      },
      {
        "midi": 73,
        "time": 670.5,
        "duration": 0.5,
        "velocity": 0.71,
        "hand": "right"
      },
      {
        "midi": 31,
        "time": 670.75,
        "duration": 0.25,
        "velocity": 0.5,
        "hand": "left"
      },
      {
        "midi": 43,
        "time": 670.75,
        "duration": 0.25,
        "velocity": 0.5,
        "hand": "left"
      },
      {
        "midi": 31,
        "time": 671,
        "duration": 0.25,
        "velocity": 0.5,
        "hand": "left"
      },
      {
        "midi": 43,
        "time": 671,
        "duration": 0.25,
        "velocity": 0.5,
        "hand": "left"
      },
      {
        "midi": 60,
        "time": 671,
        "duration": 0.5,
        "velocity": 0.71,
        "hand": "right"
      },
      {
        "midi": 64,
        "time": 671,
        "duration": 0.5,
        "velocity": 0.71,
        "hand": "right"
      },
      {
        "midi": 70,
        "time": 671,
        "duration": 0.5,
        "velocity": 0.71,
        "hand": "right"
      },
      {
        "midi": 72,
        "time": 671,
        "duration": 0.5,
        "velocity": 0.71,
        "hand": "right"
      },
      {
        "midi": 24,
        "time": 671.25,
        "duration": 0.25,
        "velocity": 0.5,
        "hand": "left"
      },
      {
        "midi": 36,
        "time": 671.25,
        "duration": 0.25,
        "velocity": 0.5,
        "hand": "left"
      },
      {
        "midi": 25,
        "time": 671.5,
        "duration": 0.25,
        "velocity": 0.5,
        "hand": "left"
      },
      {
        "midi": 37,
        "time": 671.5,
        "duration": 0.25,
        "velocity": 0.5,
        "hand": "left"
      },
      {
        "midi": 52,
        "time": 671.5,
        "duration": 0.5,
        "velocity": 0.71,
        "hand": "left"
      },
      {
        "midi": 58,
        "time": 671.5,
        "duration": 0.5,
        "velocity": 0.71,
        "hand": "left"
      },
      {
        "midi": 64,
        "time": 671.5,
        "duration": 0.5,
        "velocity": 0.71,
        "hand": "right"
      },
      {
        "midi": 24,
        "time": 671.75,
        "duration": 0.25,
        "velocity": 0.5,
        "hand": "left"
      },
      {
        "midi": 36,
        "time": 671.75,
        "duration": 0.25,
        "velocity": 0.5,
        "hand": "left"
      },
      {
        "midi": 29,
        "time": 672,
        "duration": 0.25,
        "velocity": 0.5,
        "hand": "left"
      },
      {
        "midi": 41,
        "time": 672,
        "duration": 0.25,
        "velocity": 0.5,
        "hand": "left"
      },
      {
        "midi": 56,
        "time": 672,
        "duration": 0.25,
        "velocity": 0.5,
        "hand": "left"
      },
      {
        "midi": 65,
        "time": 672,
        "duration": 0.25,
        "velocity": 0.5,
        "hand": "right"
      },
      {
        "midi": 51,
        "time": 672.25,
        "duration": 0.25,
        "velocity": 0.5,
        "hand": "left"
      },
      {
        "midi": 57,
        "time": 672.25,
        "duration": 0.25,
        "velocity": 0.5,
        "hand": "left"
      },
      {
        "midi": 60,
        "time": 672.25,
        "duration": 0.25,
        "velocity": 0.51,
        "hand": "right"
      },
      {
        "midi": 66,
        "time": 672.25,
        "duration": 0.25,
        "velocity": 0.51,
        "hand": "right"
      },
      {
        "midi": 54,
        "time": 672.5,
        "duration": 0.5,
        "velocity": 0.5,
        "hand": "left"
      },
      {
        "midi": 62,
        "time": 672.5,
        "duration": 0.25,
        "velocity": 0.53,
        "hand": "right"
      },
      {
        "midi": 69,
        "time": 672.5,
        "duration": 0.25,
        "velocity": 0.53,
        "hand": "right"
      },
      {
        "midi": 63,
        "time": 672.75,
        "duration": 0.25,
        "velocity": 0.54,
        "hand": "right"
      },
      {
        "midi": 67,
        "time": 672.75,
        "duration": 0.25,
        "velocity": 0.55,
        "hand": "right"
      },
      {
        "midi": 72,
        "time": 672.75,
        "duration": 0.25,
        "velocity": 0.55,
        "hand": "right"
      },
      {
        "midi": 57,
        "time": 673,
        "duration": 0.25,
        "velocity": 0.5,
        "hand": "left"
      },
      {
        "midi": 60,
        "time": 673,
        "duration": 0.5,
        "velocity": 0.5,
        "hand": "right"
      },
      {
        "midi": 68,
        "time": 673,
        "duration": 0.25,
        "velocity": 0.57,
        "hand": "right"
      },
      {
        "midi": 75,
        "time": 673,
        "duration": 0.25,
        "velocity": 0.57,
        "hand": "right"
      },
      {
        "midi": 69,
        "time": 673.25,
        "duration": 0.25,
        "velocity": 0.58,
        "hand": "right"
      },
      {
        "midi": 72,
        "time": 673.25,
        "duration": 0.25,
        "velocity": 0.6,
        "hand": "right"
      },
      {
        "midi": 78,
        "time": 673.25,
        "duration": 0.25,
        "velocity": 0.6,
        "hand": "right"
      },
      {
        "midi": 63,
        "time": 673.5,
        "duration": 0.25,
        "velocity": 0.5,
        "hand": "right"
      },
      {
        "midi": 66,
        "time": 673.5,
        "duration": 0.5,
        "velocity": 0.5,
        "hand": "right"
      },
      {
        "midi": 74,
        "time": 673.5,
        "duration": 0.25,
        "velocity": 0.61,
        "hand": "right"
      },
      {
        "midi": 81,
        "time": 673.5,
        "duration": 0.25,
        "velocity": 0.61,
        "hand": "right"
      },
      {
        "midi": 75,
        "time": 673.75,
        "duration": 0.25,
        "velocity": 0.62,
        "hand": "right"
      },
      {
        "midi": 78,
        "time": 673.75,
        "duration": 0.25,
        "velocity": 0.64,
        "hand": "right"
      },
      {
        "midi": 84,
        "time": 673.75,
        "duration": 0.25,
        "velocity": 0.64,
        "hand": "right"
      },
      {
        "midi": 69,
        "time": 674,
        "duration": 0.25,
        "velocity": 0.5,
        "hand": "right"
      },
      {
        "midi": 72,
        "time": 674,
        "duration": 0.5,
        "velocity": 0.5,
        "hand": "right"
      },
      {
        "midi": 80,
        "time": 674,
        "duration": 0.25,
        "velocity": 0.65,
        "hand": "right"
      },
      {
        "midi": 87,
        "time": 674,
        "duration": 0.25,
        "velocity": 0.65,
        "hand": "right"
      },
      {
        "midi": 81,
        "time": 674.25,
        "duration": 0.25,
        "velocity": 0.66,
        "hand": "right"
      },
      {
        "midi": 84,
        "time": 674.25,
        "duration": 0.25,
        "velocity": 0.68,
        "hand": "right"
      },
      {
        "midi": 90,
        "time": 674.25,
        "duration": 0.25,
        "velocity": 0.68,
        "hand": "right"
      },
      {
        "midi": 75,
        "time": 674.5,
        "duration": 0.25,
        "velocity": 0.5,
        "hand": "right"
      },
      {
        "midi": 78,
        "time": 674.5,
        "duration": 0.5,
        "velocity": 0.5,
        "hand": "right"
      },
      {
        "midi": 86,
        "time": 674.5,
        "duration": 0.25,
        "velocity": 0.69,
        "hand": "right"
      },
      {
        "midi": 93,
        "time": 674.5,
        "duration": 0.25,
        "velocity": 0.69,
        "hand": "right"
      },
      {
        "midi": 87,
        "time": 674.75,
        "duration": 0.25,
        "velocity": 0.71,
        "hand": "right"
      },
      {
        "midi": 90,
        "time": 674.75,
        "duration": 0.25,
        "velocity": 0.72,
        "hand": "right"
      },
      {
        "midi": 96,
        "time": 674.75,
        "duration": 0.25,
        "velocity": 0.72,
        "hand": "right"
      },
      {
        "midi": 81,
        "time": 675,
        "duration": 0.25,
        "velocity": 0.5,
        "hand": "right"
      },
      {
        "midi": 84,
        "time": 675,
        "duration": 0.5,
        "velocity": 0.5,
        "hand": "right"
      },
      {
        "midi": 93,
        "time": 675,
        "duration": 0.5,
        "velocity": 0.72,
        "hand": "right"
      },
      {
        "midi": 99,
        "time": 675,
        "duration": 0.5,
        "velocity": 0.72,
        "hand": "right"
      },
      {
        "midi": 101,
        "time": 675,
        "duration": 0.5,
        "velocity": 0.72,
        "hand": "right"
      },
      {
        "midi": 54,
        "time": 675.5,
        "duration": 0.25,
        "velocity": 0.5,
        "hand": "left"
      },
      {
        "midi": 66,
        "time": 675.5,
        "duration": 0.25,
        "velocity": 0.5,
        "hand": "right"
      },
      {
        "midi": 69,
        "time": 675.5,
        "duration": 0.5,
        "velocity": 0.71,
        "hand": "right"
      },
      {
        "midi": 72,
        "time": 675.5,
        "duration": 0.5,
        "velocity": 0.71,
        "hand": "right"
      },
      {
        "midi": 75,
        "time": 675.5,
        "duration": 0.25,
        "velocity": 0.71,
        "hand": "right"
      },
      {
        "midi": 81,
        "time": 675.5,
        "duration": 0.5,
        "velocity": 0.71,
        "hand": "right"
      },
      {
        "midi": 51,
        "time": 675.75,
        "duration": 0.25,
        "velocity": 0.5,
        "hand": "left"
      },
      {
        "midi": 53,
        "time": 675.75,
        "duration": 0.25,
        "velocity": 0.5,
        "hand": "left"
      },
      {
        "midi": 63,
        "time": 675.75,
        "duration": 0.25,
        "velocity": 0.5,
        "hand": "right"
      },
      {
        "midi": 65,
        "time": 675.75,
        "duration": 0.25,
        "velocity": 0.5,
        "hand": "right"
      },
      {
        "midi": 77,
        "time": 675.75,
        "duration": 0.25,
        "velocity": 0.71,
        "hand": "right"
      },
      {
        "midi": 78,
        "time": 675.75,
        "duration": 0.25,
        "velocity": 0.71,
        "hand": "right"
      },
      {
        "midi": 49,
        "time": 676,
        "duration": 0.25,
        "velocity": 0.5,
        "hand": "left"
      },
      {
        "midi": 61,
        "time": 676,
        "duration": 0.25,
        "velocity": 0.5,
        "hand": "right"
      },
      {
        "midi": 70,
        "time": 676,
        "duration": 0.5,
        "velocity": 0.71,
        "hand": "right"
      },
      {
        "midi": 77,
        "time": 676,
        "duration": 0.5,
        "velocity": 0.71,
        "hand": "right"
      },
      {
        "midi": 82,
        "time": 676,
        "duration": 0.5,
        "velocity": 0.71,
        "hand": "right"
      },
      {
        "midi": 46,
        "time": 676.25,
        "duration": 0.25,
        "velocity": 0.5,
        "hand": "left"
      },
      {
        "midi": 48,
        "time": 676.25,
        "duration": 0.25,
        "velocity": 0.5,
        "hand": "left"
      },
      {
        "midi": 58,
        "time": 676.25,
        "duration": 0.25,
        "velocity": 0.5,
        "hand": "left"
      },
      {
        "midi": 60,
        "time": 676.25,
        "duration": 0.25,
        "velocity": 0.5,
        "hand": "right"
      },
      {
        "midi": 44,
        "time": 676.5,
        "duration": 0.25,
        "velocity": 0.5,
        "hand": "left"
      },
      {
        "midi": 56,
        "time": 676.5,
        "duration": 0.25,
        "velocity": 0.5,
        "hand": "left"
      },
      {
        "midi": 73,
        "time": 676.5,
        "duration": 0.5,
        "velocity": 0.71,
        "hand": "right"
      },
      {
        "midi": 77,
        "time": 676.5,
        "duration": 0.5,
        "velocity": 0.71,
        "hand": "right"
      },
      {
        "midi": 82,
        "time": 676.5,
        "duration": 0.5,
        "velocity": 0.71,
        "hand": "right"
      },
      {
        "midi": 85,
        "time": 676.5,
        "duration": 0.5,
        "velocity": 0.71,
        "hand": "right"
      },
      {
        "midi": 43,
        "time": 676.75,
        "duration": 0.25,
        "velocity": 0.5,
        "hand": "left"
      },
      {
        "midi": 55,
        "time": 676.75,
        "duration": 0.25,
        "velocity": 0.5,
        "hand": "left"
      },
      {
        "midi": 43,
        "time": 677,
        "duration": 0.25,
        "velocity": 0.5,
        "hand": "left"
      },
      {
        "midi": 55,
        "time": 677,
        "duration": 0.25,
        "velocity": 0.5,
        "hand": "left"
      },
      {
        "midi": 72,
        "time": 677,
        "duration": 0.5,
        "velocity": 0.71,
        "hand": "right"
      },
      {
        "midi": 76,
        "time": 677,
        "duration": 0.5,
        "velocity": 0.71,
        "hand": "right"
      },
      {
        "midi": 82,
        "time": 677,
        "duration": 0.5,
        "velocity": 0.71,
        "hand": "right"
      },
      {
        "midi": 84,
        "time": 677,
        "duration": 0.5,
        "velocity": 0.71,
        "hand": "right"
      },
      {
        "midi": 36,
        "time": 677.25,
        "duration": 0.25,
        "velocity": 0.5,
        "hand": "left"
      },
      {
        "midi": 48,
        "time": 677.25,
        "duration": 0.25,
        "velocity": 0.5,
        "hand": "left"
      },
      {
        "midi": 37,
        "time": 677.5,
        "duration": 0.25,
        "velocity": 0.5,
        "hand": "left"
      },
      {
        "midi": 49,
        "time": 677.5,
        "duration": 0.25,
        "velocity": 0.5,
        "hand": "left"
      },
      {
        "midi": 64,
        "time": 677.5,
        "duration": 0.5,
        "velocity": 0.71,
        "hand": "right"
      },
      {
        "midi": 70,
        "time": 677.5,
        "duration": 0.5,
        "velocity": 0.71,
        "hand": "right"
      },
      {
        "midi": 76,
        "time": 677.5,
        "duration": 0.5,
        "velocity": 0.71,
        "hand": "right"
      },
      {
        "midi": 36,
        "time": 677.75,
        "duration": 0.25,
        "velocity": 0.5,
        "hand": "left"
      },
      {
        "midi": 48,
        "time": 677.75,
        "duration": 0.25,
        "velocity": 0.5,
        "hand": "left"
      },
      {
        "midi": 29,
        "time": 678,
        "duration": 0.25,
        "velocity": 0.5,
        "hand": "left"
      },
      {
        "midi": 65,
        "time": 678,
        "duration": 0.5,
        "velocity": 0.71,
        "hand": "right"
      },
      {
        "midi": 68,
        "time": 678,
        "duration": 0.5,
        "velocity": 0.71,
        "hand": "right"
      },
      {
        "midi": 77,
        "time": 678,
        "duration": 0.5,
        "velocity": 0.71,
        "hand": "right"
      },
      {
        "midi": 36,
        "time": 678.25,
        "duration": 0.25,
        "velocity": 0.54,
        "hand": "left"
      },
      {
        "midi": 44,
        "time": 678.25,
        "duration": 0.25,
        "velocity": 0.54,
        "hand": "left"
      },
      {
        "midi": 49,
        "time": 678.5,
        "duration": 0.25,
        "velocity": 0.71,
        "hand": "left"
      },
      {
        "midi": 48,
        "time": 678.75,
        "duration": 0.25,
        "velocity": 0.71,
        "hand": "left"
      },
      {
        "midi": 53,
        "time": 678.75,
        "duration": 0.25,
        "velocity": 0.71,
        "hand": "left"
      },
      {
        "midi": 56,
        "time": 679,
        "duration": 0.25,
        "velocity": 0.71,
        "hand": "left"
      },
      {
        "midi": 53,
        "time": 679.25,
        "duration": 0.25,
        "velocity": 0.71,
        "hand": "left"
      },
      {
        "midi": 58,
        "time": 679.25,
        "duration": 0.25,
        "velocity": 0.71,
        "hand": "left"
      },
      {
        "midi": 36,
        "time": 679.5,
        "duration": 0.25,
        "velocity": 0.54,
        "hand": "left"
      },
      {
        "midi": 56,
        "time": 679.5,
        "duration": 0.25,
        "velocity": 0.71,
        "hand": "left"
      },
      {
        "midi": 43,
        "time": 679.75,
        "duration": 0.25,
        "velocity": 0.54,
        "hand": "left"
      },
      {
        "midi": 52,
        "time": 679.75,
        "duration": 0.25,
        "velocity": 0.71,
        "hand": "left"
      },
      {
        "midi": 55,
        "time": 679.75,
        "duration": 0.25,
        "velocity": 0.71,
        "hand": "left"
      },
      {
        "midi": 52,
        "time": 680,
        "duration": 0.25,
        "velocity": 0.54,
        "hand": "left"
      },
      {
        "midi": 56,
        "time": 680,
        "duration": 0.25,
        "velocity": 0.71,
        "hand": "left"
      },
      {
        "midi": 40,
        "time": 680.25,
        "duration": 0.25,
        "velocity": 0.54,
        "hand": "left"
      },
      {
        "midi": 55,
        "time": 680.25,
        "duration": 0.25,
        "velocity": 0.71,
        "hand": "left"
      },
      {
        "midi": 60,
        "time": 680.25,
        "duration": 0.25,
        "velocity": 0.71,
        "hand": "right"
      },
      {
        "midi": 48,
        "time": 680.5,
        "duration": 0.25,
        "velocity": 0.54,
        "hand": "left"
      },
      {
        "midi": 61,
        "time": 680.5,
        "duration": 0.25,
        "velocity": 0.71,
        "hand": "right"
      },
      {
        "midi": 58,
        "time": 680.75,
        "duration": 0.25,
        "velocity": 0.54,
        "hand": "left"
      },
      {
        "midi": 60,
        "time": 680.75,
        "duration": 0.25,
        "velocity": 0.71,
        "hand": "right"
      },
      {
        "midi": 68,
        "time": 680.75,
        "duration": 0.25,
        "velocity": 0.71,
        "hand": "right"
      },
      {
        "midi": 41,
        "time": 681,
        "duration": 0.25,
        "velocity": 0.54,
        "hand": "left"
      },
      {
        "midi": 67,
        "time": 681,
        "duration": 0.25,
        "velocity": 0.71,
        "hand": "right"
      },
      {
        "midi": 48,
        "time": 681.25,
        "duration": 0.25,
        "velocity": 0.54,
        "hand": "left"
      },
      {
        "midi": 59,
        "time": 681.25,
        "duration": 0.25,
        "velocity": 0.71,
        "hand": "left"
      },
      {
        "midi": 60,
        "time": 681.25,
        "duration": 0.25,
        "velocity": 0.71,
        "hand": "right"
      },
      {
        "midi": 56,
        "time": 681.5,
        "duration": 0.25,
        "velocity": 0.54,
        "hand": "left"
      },
      {
        "midi": 61,
        "time": 681.5,
        "duration": 0.25,
        "velocity": 0.71,
        "hand": "right"
      },
      {
        "midi": 44,
        "time": 681.75,
        "duration": 0.25,
        "velocity": 0.54,
        "hand": "left"
      },
      {
        "midi": 60,
        "time": 681.75,
        "duration": 0.25,
        "velocity": 0.71,
        "hand": "right"
      },
      {
        "midi": 65,
        "time": 681.75,
        "duration": 0.25,
        "velocity": 0.71,
        "hand": "right"
      },
      {
        "midi": 53,
        "time": 682,
        "duration": 0.25,
        "velocity": 0.54,
        "hand": "left"
      },
      {
        "midi": 68,
        "time": 682,
        "duration": 0.25,
        "velocity": 0.71,
        "hand": "right"
      },
      {
        "midi": 60,
        "time": 682.25,
        "duration": 0.25,
        "velocity": 0.54,
        "hand": "right"
      },
      {
        "midi": 65,
        "time": 682.25,
        "duration": 0.25,
        "velocity": 0.71,
        "hand": "right"
      },
      {
        "midi": 70,
        "time": 682.25,
        "duration": 0.25,
        "velocity": 0.71,
        "hand": "right"
      },
      {
        "midi": 48,
        "time": 682.5,
        "duration": 0.25,
        "velocity": 0.54,
        "hand": "left"
      },
      {
        "midi": 68,
        "time": 682.5,
        "duration": 0.25,
        "velocity": 0.71,
        "hand": "right"
      },
      {
        "midi": 58,
        "time": 682.75,
        "duration": 0.25,
        "velocity": 0.54,
        "hand": "left"
      },
      {
        "midi": 64,
        "time": 682.75,
        "duration": 0.25,
        "velocity": 0.71,
        "hand": "right"
      },
      {
        "midi": 67,
        "time": 682.75,
        "duration": 0.25,
        "velocity": 0.71,
        "hand": "right"
      },
      {
        "midi": 64,
        "time": 683,
        "duration": 0.25,
        "velocity": 0.54,
        "hand": "right"
      },
      {
        "midi": 68,
        "time": 683,
        "duration": 0.25,
        "velocity": 0.71,
        "hand": "right"
      },
      {
        "midi": 52,
        "time": 683.25,
        "duration": 0.25,
        "velocity": 0.54,
        "hand": "left"
      },
      {
        "midi": 67,
        "time": 683.25,
        "duration": 0.25,
        "velocity": 0.71,
        "hand": "right"
      },
      {
        "midi": 72,
        "time": 683.25,
        "duration": 0.25,
        "velocity": 0.71,
        "hand": "right"
      },
      {
        "midi": 60,
        "time": 683.5,
        "duration": 0.25,
        "velocity": 0.54,
        "hand": "right"
      },
      {
        "midi": 73,
        "time": 683.5,
        "duration": 0.25,
        "velocity": 0.71,
        "hand": "right"
      },
      {
        "midi": 70,
        "time": 683.75,
        "duration": 0.25,
        "velocity": 0.54,
        "hand": "right"
      },
      {
        "midi": 72,
        "time": 683.75,
        "duration": 0.25,
        "velocity": 0.71,
        "hand": "right"
      },
      {
        "midi": 79,
        "time": 683.75,
        "duration": 0.25,
        "velocity": 0.71,
        "hand": "right"
      },
      {
        "midi": 41,
        "time": 684,
        "duration": 0.25,
        "velocity": 0.54,
        "hand": "left"
      },
      {
        "midi": 77,
        "time": 684,
        "duration": 0.25,
        "velocity": 0.71,
        "hand": "right"
      },
      {
        "midi": 48,
        "time": 684.25,
        "duration": 0.25,
        "velocity": 0.54,
        "hand": "left"
      },
      {
        "midi": 59,
        "time": 684.25,
        "duration": 0.25,
        "velocity": 0.71,
        "hand": "left"
      },
      {
        "midi": 60,
        "time": 684.25,
        "duration": 0.25,
        "velocity": 0.71,
        "hand": "right"
      },
      {
        "midi": 56,
        "time": 684.5,
        "duration": 0.25,
        "velocity": 0.54,
        "hand": "left"
      },
      {
        "midi": 61,
        "time": 684.5,
        "duration": 0.25,
        "velocity": 0.71,
        "hand": "right"
      },
      {
        "midi": 44,
        "time": 684.75,
        "duration": 0.25,
        "velocity": 0.54,
        "hand": "left"
      },
      {
        "midi": 60,
        "time": 684.75,
        "duration": 0.25,
        "velocity": 0.71,
        "hand": "right"
      },
      {
        "midi": 65,
        "time": 684.75,
        "duration": 0.25,
        "velocity": 0.71,
        "hand": "right"
      },
      {
        "midi": 53,
        "time": 685,
        "duration": 0.25,
        "velocity": 0.54,
        "hand": "left"
      },
      {
        "midi": 68,
        "time": 685,
        "duration": 0.25,
        "velocity": 0.71,
        "hand": "right"
      },
      {
        "midi": 60,
        "time": 685.25,
        "duration": 0.25,
        "velocity": 0.54,
        "hand": "right"
      },
      {
        "midi": 65,
        "time": 685.25,
        "duration": 0.25,
        "velocity": 0.71,
        "hand": "right"
      },
      {
        "midi": 70,
        "time": 685.25,
        "duration": 0.25,
        "velocity": 0.71,
        "hand": "right"
      },
      {
        "midi": 48,
        "time": 685.5,
        "duration": 0.25,
        "velocity": 0.54,
        "hand": "left"
      },
      {
        "midi": 68,
        "time": 685.5,
        "duration": 0.25,
        "velocity": 0.71,
        "hand": "right"
      },
      {
        "midi": 58,
        "time": 685.75,
        "duration": 0.25,
        "velocity": 0.54,
        "hand": "left"
      },
      {
        "midi": 64,
        "time": 685.75,
        "duration": 0.25,
        "velocity": 0.71,
        "hand": "right"
      },
      {
        "midi": 67,
        "time": 685.75,
        "duration": 0.25,
        "velocity": 0.71,
        "hand": "right"
      },
      {
        "midi": 64,
        "time": 686,
        "duration": 0.25,
        "velocity": 0.54,
        "hand": "right"
      },
      {
        "midi": 68,
        "time": 686,
        "duration": 0.25,
        "velocity": 0.71,
        "hand": "right"
      },
      {
        "midi": 52,
        "time": 686.25,
        "duration": 0.25,
        "velocity": 0.54,
        "hand": "left"
      },
      {
        "midi": 67,
        "time": 686.25,
        "duration": 0.25,
        "velocity": 0.71,
        "hand": "right"
      },
      {
        "midi": 72,
        "time": 686.25,
        "duration": 0.25,
        "velocity": 0.71,
        "hand": "right"
      },
      {
        "midi": 60,
        "time": 686.5,
        "duration": 0.25,
        "velocity": 0.54,
        "hand": "right"
      },
      {
        "midi": 73,
        "time": 686.5,
        "duration": 0.25,
        "velocity": 0.71,
        "hand": "right"
      },
      {
        "midi": 70,
        "time": 686.75,
        "duration": 0.25,
        "velocity": 0.54,
        "hand": "right"
      },
      {
        "midi": 72,
        "time": 686.75,
        "duration": 0.25,
        "velocity": 0.71,
        "hand": "right"
      },
      {
        "midi": 80,
        "time": 686.75,
        "duration": 0.25,
        "velocity": 0.71,
        "hand": "right"
      },
      {
        "midi": 53,
        "time": 687,
        "duration": 0.25,
        "velocity": 0.54,
        "hand": "left"
      },
      {
        "midi": 79,
        "time": 687,
        "duration": 0.25,
        "velocity": 0.71,
        "hand": "right"
      },
      {
        "midi": 60,
        "time": 687.25,
        "duration": 0.25,
        "velocity": 0.54,
        "hand": "right"
      },
      {
        "midi": 71,
        "time": 687.25,
        "duration": 0.25,
        "velocity": 0.71,
        "hand": "right"
      },
      {
        "midi": 72,
        "time": 687.25,
        "duration": 0.25,
        "velocity": 0.71,
        "hand": "right"
      },
      {
        "midi": 68,
        "time": 687.5,
        "duration": 0.25,
        "velocity": 0.54,
        "hand": "right"
      },
      {
        "midi": 73,
        "time": 687.5,
        "duration": 0.25,
        "velocity": 0.71,
        "hand": "right"
      },
      {
        "midi": 56,
        "time": 687.75,
        "duration": 0.25,
        "velocity": 0.54,
        "hand": "left"
      },
      {
        "midi": 72,
        "time": 687.75,
        "duration": 0.25,
        "velocity": 0.71,
        "hand": "right"
      },
      {
        "midi": 77,
        "time": 687.75,
        "duration": 0.25,
        "velocity": 0.71,
        "hand": "right"
      },
      {
        "midi": 65,
        "time": 688,
        "duration": 0.25,
        "velocity": 0.54,
        "hand": "right"
      },
      {
        "midi": 80,
        "time": 688,
        "duration": 0.25,
        "velocity": 0.71,
        "hand": "right"
      },
      {
        "midi": 72,
        "time": 688.25,
        "duration": 0.25,
        "velocity": 0.54,
        "hand": "right"
      },
      {
        "midi": 77,
        "time": 688.25,
        "duration": 0.25,
        "velocity": 0.71,
        "hand": "right"
      },
      {
        "midi": 82,
        "time": 688.25,
        "duration": 0.25,
        "velocity": 0.71,
        "hand": "right"
      },
      {
        "midi": 60,
        "time": 688.5,
        "duration": 0.25,
        "velocity": 0.54,
        "hand": "right"
      },
      {
        "midi": 80,
        "time": 688.5,
        "duration": 0.25,
        "velocity": 0.71,
        "hand": "right"
      },
      {
        "midi": 70,
        "time": 688.75,
        "duration": 0.25,
        "velocity": 0.54,
        "hand": "right"
      },
      {
        "midi": 76,
        "time": 688.75,
        "duration": 0.25,
        "velocity": 0.71,
        "hand": "right"
      },
      {
        "midi": 79,
        "time": 688.75,
        "duration": 0.25,
        "velocity": 0.71,
        "hand": "right"
      },
      {
        "midi": 76,
        "time": 689,
        "duration": 0.25,
        "velocity": 0.54,
        "hand": "right"
      },
      {
        "midi": 80,
        "time": 689,
        "duration": 0.25,
        "velocity": 0.71,
        "hand": "right"
      },
      {
        "midi": 64,
        "time": 689.25,
        "duration": 0.25,
        "velocity": 0.54,
        "hand": "right"
      },
      {
        "midi": 79,
        "time": 689.25,
        "duration": 0.25,
        "velocity": 0.71,
        "hand": "right"
      },
      {
        "midi": 84,
        "time": 689.25,
        "duration": 0.25,
        "velocity": 0.71,
        "hand": "right"
      },
      {
        "midi": 72,
        "time": 689.5,
        "duration": 0.25,
        "velocity": 0.54,
        "hand": "right"
      },
      {
        "midi": 85,
        "time": 689.5,
        "duration": 0.25,
        "velocity": 0.71,
        "hand": "right"
      },
      {
        "midi": 82,
        "time": 689.75,
        "duration": 0.25,
        "velocity": 0.54,
        "hand": "right"
      },
      {
        "midi": 84,
        "time": 689.75,
        "duration": 0.25,
        "velocity": 0.71,
        "hand": "right"
      },
      {
        "midi": 91,
        "time": 689.75,
        "duration": 0.25,
        "velocity": 0.71,
        "hand": "right"
      },
      {
        "midi": 65,
        "time": 690,
        "duration": 0.5,
        "velocity": 0.54,
        "hand": "right"
      },
      {
        "midi": 68,
        "time": 690,
        "duration": 0.5,
        "velocity": 0.54,
        "hand": "right"
      },
      {
        "midi": 72,
        "time": 690,
        "duration": 0.5,
        "velocity": 0.54,
        "hand": "right"
      },
      {
        "midi": 77,
        "time": 690,
        "duration": 0.5,
        "velocity": 0.54,
        "hand": "right"
      },
      {
        "midi": 89,
        "time": 690,
        "duration": 0.25,
        "velocity": 0.71,
        "hand": "right"
      },
      {
        "midi": 100,
        "time": 690.25,
        "duration": 0.25,
        "velocity": 0.71,
        "hand": "right"
      },
      {
        "midi": 101,
        "time": 690.25,
        "duration": 0.25,
        "velocity": 0.71,
        "hand": "right"
      },
      {
        "midi": 65,
        "time": 690.5,
        "duration": 1,
        "velocity": 0.54,
        "hand": "right"
      },
      {
        "midi": 68,
        "time": 690.5,
        "duration": 1,
        "velocity": 0.54,
        "hand": "right"
      },
      {
        "midi": 73,
        "time": 690.5,
        "duration": 1,
        "velocity": 0.54,
        "hand": "right"
      },
      {
        "midi": 77,
        "time": 690.5,
        "duration": 1,
        "velocity": 0.54,
        "hand": "right"
      },
      {
        "midi": 99,
        "time": 690.5,
        "duration": 0.25,
        "velocity": 0.71,
        "hand": "right"
      },
      {
        "midi": 96,
        "time": 690.75,
        "duration": 0.25,
        "velocity": 0.71,
        "hand": "right"
      },
      {
        "midi": 97,
        "time": 690.75,
        "duration": 0.25,
        "velocity": 0.71,
        "hand": "right"
      },
      {
        "midi": 94,
        "time": 691,
        "duration": 0.25,
        "velocity": 0.71,
        "hand": "right"
      },
      {
        "midi": 91,
        "time": 691.25,
        "duration": 0.25,
        "velocity": 0.71,
        "hand": "right"
      },
      {
        "midi": 92,
        "time": 691.25,
        "duration": 0.25,
        "velocity": 0.71,
        "hand": "right"
      },
      {
        "midi": 65,
        "time": 691.5,
        "duration": 0.5,
        "velocity": 0.54,
        "hand": "right"
      },
      {
        "midi": 68,
        "time": 691.5,
        "duration": 0.5,
        "velocity": 0.54,
        "hand": "right"
      },
      {
        "midi": 72,
        "time": 691.5,
        "duration": 0.5,
        "velocity": 0.54,
        "hand": "right"
      },
      {
        "midi": 77,
        "time": 691.5,
        "duration": 0.5,
        "velocity": 0.54,
        "hand": "right"
      },
      {
        "midi": 89,
        "time": 691.5,
        "duration": 0.25,
        "velocity": 0.71,
        "hand": "right"
      },
      {
        "midi": 87,
        "time": 691.75,
        "duration": 0.25,
        "velocity": 0.71,
        "hand": "right"
      },
      {
        "midi": 88,
        "time": 691.75,
        "duration": 0.25,
        "velocity": 0.71,
        "hand": "right"
      },
      {
        "midi": 65,
        "time": 692,
        "duration": 1,
        "velocity": 0.54,
        "hand": "right"
      },
      {
        "midi": 68,
        "time": 692,
        "duration": 1,
        "velocity": 0.54,
        "hand": "right"
      },
      {
        "midi": 73,
        "time": 692,
        "duration": 1,
        "velocity": 0.54,
        "hand": "right"
      },
      {
        "midi": 77,
        "time": 692,
        "duration": 1,
        "velocity": 0.54,
        "hand": "right"
      },
      {
        "midi": 85,
        "time": 692,
        "duration": 0.25,
        "velocity": 0.71,
        "hand": "right"
      },
      {
        "midi": 82,
        "time": 692.25,
        "duration": 0.25,
        "velocity": 0.71,
        "hand": "right"
      },
      {
        "midi": 84,
        "time": 692.25,
        "duration": 0.25,
        "velocity": 0.71,
        "hand": "right"
      },
      {
        "midi": 80,
        "time": 692.5,
        "duration": 0.25,
        "velocity": 0.71,
        "hand": "right"
      },
      {
        "midi": 77,
        "time": 692.75,
        "duration": 0.25,
        "velocity": 0.71,
        "hand": "right"
      },
      {
        "midi": 79,
        "time": 692.75,
        "duration": 0.25,
        "velocity": 0.71,
        "hand": "right"
      },
      {
        "midi": 53,
        "time": 693,
        "duration": 0.5,
        "velocity": 0.54,
        "hand": "left"
      },
      {
        "midi": 56,
        "time": 693,
        "duration": 0.5,
        "velocity": 0.54,
        "hand": "left"
      },
      {
        "midi": 60,
        "time": 693,
        "duration": 0.5,
        "velocity": 0.54,
        "hand": "right"
      },
      {
        "midi": 65,
        "time": 693,
        "duration": 0.5,
        "velocity": 0.54,
        "hand": "right"
      },
      {
        "midi": 92,
        "time": 693,
        "duration": 0.25,
        "velocity": 0.71,
        "hand": "right"
      },
      {
        "midi": 89,
        "time": 693.25,
        "duration": 0.25,
        "velocity": 0.71,
        "hand": "right"
      },
      {
        "midi": 91,
        "time": 693.25,
        "duration": 0.25,
        "velocity": 0.71,
        "hand": "right"
      },
      {
        "midi": 53,
        "time": 693.5,
        "duration": 1,
        "velocity": 0.54,
        "hand": "left"
      },
      {
        "midi": 56,
        "time": 693.5,
        "duration": 1,
        "velocity": 0.54,
        "hand": "left"
      },
      {
        "midi": 61,
        "time": 693.5,
        "duration": 1,
        "velocity": 0.54,
        "hand": "right"
      },
      {
        "midi": 65,
        "time": 693.5,
        "duration": 1,
        "velocity": 0.54,
        "hand": "right"
      },
      {
        "midi": 87,
        "time": 693.5,
        "duration": 0.25,
        "velocity": 0.71,
        "hand": "right"
      },
      {
        "midi": 84,
        "time": 693.75,
        "duration": 0.25,
        "velocity": 0.71,
        "hand": "right"
      },
      {
        "midi": 85,
        "time": 693.75,
        "duration": 0.25,
        "velocity": 0.71,
        "hand": "right"
      },
      {
        "midi": 82,
        "time": 694,
        "duration": 0.25,
        "velocity": 0.71,
        "hand": "right"
      },
      {
        "midi": 79,
        "time": 694.25,
        "duration": 0.25,
        "velocity": 0.71,
        "hand": "right"
      },
      {
        "midi": 80,
        "time": 694.25,
        "duration": 0.25,
        "velocity": 0.71,
        "hand": "right"
      },
      {
        "midi": 53,
        "time": 694.5,
        "duration": 0.5,
        "velocity": 0.54,
        "hand": "left"
      },
      {
        "midi": 56,
        "time": 694.5,
        "duration": 0.5,
        "velocity": 0.54,
        "hand": "left"
      },
      {
        "midi": 60,
        "time": 694.5,
        "duration": 0.5,
        "velocity": 0.54,
        "hand": "right"
      },
      {
        "midi": 65,
        "time": 694.5,
        "duration": 0.5,
        "velocity": 0.54,
        "hand": "right"
      },
      {
        "midi": 77,
        "time": 694.5,
        "duration": 0.25,
        "velocity": 0.71,
        "hand": "right"
      },
      {
        "midi": 73,
        "time": 694.75,
        "duration": 0.25,
        "velocity": 0.71,
        "hand": "right"
      },
      {
        "midi": 75,
        "time": 694.75,
        "duration": 0.25,
        "velocity": 0.71,
        "hand": "right"
      },
      {
        "midi": 53,
        "time": 695,
        "duration": 1,
        "velocity": 0.54,
        "hand": "left"
      },
      {
        "midi": 56,
        "time": 695,
        "duration": 1,
        "velocity": 0.54,
        "hand": "left"
      },
      {
        "midi": 61,
        "time": 695,
        "duration": 1,
        "velocity": 0.54,
        "hand": "right"
      },
      {
        "midi": 65,
        "time": 695,
        "duration": 1,
        "velocity": 0.54,
        "hand": "right"
      },
      {
        "midi": 72,
        "time": 695,
        "duration": 0.25,
        "velocity": 0.71,
        "hand": "right"
      },
      {
        "midi": 68,
        "time": 695.25,
        "duration": 0.25,
        "velocity": 0.71,
        "hand": "right"
      },
      {
        "midi": 70,
        "time": 695.25,
        "duration": 0.25,
        "velocity": 0.71,
        "hand": "right"
      },
      {
        "midi": 67,
        "time": 695.5,
        "duration": 0.25,
        "velocity": 0.71,
        "hand": "right"
      },
      {
        "midi": 61,
        "time": 695.75,
        "duration": 0.25,
        "velocity": 0.71,
        "hand": "right"
      },
      {
        "midi": 65,
        "time": 695.75,
        "duration": 0.25,
        "velocity": 0.71,
        "hand": "right"
      },
      {
        "midi": 41,
        "time": 696,
        "duration": 0.5,
        "velocity": 0.54,
        "hand": "left"
      },
      {
        "midi": 48,
        "time": 696,
        "duration": 0.5,
        "velocity": 0.54,
        "hand": "left"
      },
      {
        "midi": 56,
        "time": 696,
        "duration": 0.5,
        "velocity": 0.54,
        "hand": "left"
      },
      {
        "midi": 60,
        "time": 696,
        "duration": 0.25,
        "velocity": 0.71,
        "hand": "right"
      },
      {
        "midi": 65,
        "time": 696.25,
        "duration": 0.25,
        "velocity": 0.71,
        "hand": "right"
      },
      {
        "midi": 68,
        "time": 696.25,
        "duration": 0.25,
        "velocity": 0.71,
        "hand": "right"
      },
      {
        "midi": 72,
        "time": 696.5,
        "duration": 0.25,
        "velocity": 0.71,
        "hand": "right"
      },
      {
        "midi": 77,
        "time": 696.75,
        "duration": 0.25,
        "velocity": 0.71,
        "hand": "right"
      },
      {
        "midi": 80,
        "time": 696.75,
        "duration": 0.25,
        "velocity": 0.71,
        "hand": "right"
      },
      {
        "midi": 84,
        "time": 697,
        "duration": 0.25,
        "velocity": 0.71,
        "hand": "right"
      },
      {
        "midi": 89,
        "time": 697.25,
        "duration": 0.25,
        "velocity": 0.71,
        "hand": "right"
      },
      {
        "midi": 92,
        "time": 697.25,
        "duration": 0.25,
        "velocity": 0.71,
        "hand": "right"
      },
      {
        "midi": 85,
        "time": 697.5,
        "duration": 0.25,
        "velocity": 0.54,
        "hand": "right"
      },
      {
        "midi": 97,
        "time": 697.5,
        "duration": 0.25,
        "velocity": 0.71,
        "hand": "right"
      },
      {
        "midi": 80,
        "time": 697.75,
        "duration": 0.25,
        "velocity": 0.54,
        "hand": "right"
      },
      {
        "midi": 84,
        "time": 697.75,
        "duration": 0.25,
        "velocity": 0.54,
        "hand": "right"
      },
      {
        "midi": 92,
        "time": 697.75,
        "duration": 0.25,
        "velocity": 0.71,
        "hand": "right"
      },
      {
        "midi": 96,
        "time": 697.75,
        "duration": 0.25,
        "velocity": 0.71,
        "hand": "right"
      },
      {
        "midi": 77,
        "time": 698,
        "duration": 0.25,
        "velocity": 0.54,
        "hand": "right"
      },
      {
        "midi": 89,
        "time": 698,
        "duration": 0.25,
        "velocity": 0.71,
        "hand": "right"
      },
      {
        "midi": 80,
        "time": 698.25,
        "duration": 0.25,
        "velocity": 0.54,
        "hand": "right"
      },
      {
        "midi": 82,
        "time": 698.25,
        "duration": 0.25,
        "velocity": 0.54,
        "hand": "right"
      },
      {
        "midi": 92,
        "time": 698.25,
        "duration": 0.25,
        "velocity": 0.71,
        "hand": "right"
      },
      {
        "midi": 94,
        "time": 698.25,
        "duration": 0.25,
        "velocity": 0.71,
        "hand": "right"
      },
      {
        "midi": 77,
        "time": 698.5,
        "duration": 0.25,
        "velocity": 0.54,
        "hand": "right"
      },
      {
        "midi": 89,
        "time": 698.5,
        "duration": 0.25,
        "velocity": 0.71,
        "hand": "right"
      },
      {
        "midi": 72,
        "time": 698.75,
        "duration": 0.25,
        "velocity": 0.54,
        "hand": "right"
      },
      {
        "midi": 79,
        "time": 698.75,
        "duration": 0.25,
        "velocity": 0.54,
        "hand": "right"
      },
      {
        "midi": 84,
        "time": 698.75,
        "duration": 0.25,
        "velocity": 0.71,
        "hand": "right"
      },
      {
        "midi": 91,
        "time": 698.75,
        "duration": 0.25,
        "velocity": 0.71,
        "hand": "right"
      },
      {
        "midi": 77,
        "time": 699,
        "duration": 0.25,
        "velocity": 0.54,
        "hand": "right"
      },
      {
        "midi": 89,
        "time": 699,
        "duration": 0.25,
        "velocity": 0.71,
        "hand": "right"
      },
      {
        "midi": 68,
        "time": 699.25,
        "duration": 0.25,
        "velocity": 0.54,
        "hand": "right"
      },
      {
        "midi": 72,
        "time": 699.25,
        "duration": 0.25,
        "velocity": 0.54,
        "hand": "right"
      },
      {
        "midi": 80,
        "time": 699.25,
        "duration": 0.25,
        "velocity": 0.71,
        "hand": "right"
      },
      {
        "midi": 84,
        "time": 699.25,
        "duration": 0.25,
        "velocity": 0.71,
        "hand": "right"
      },
      {
        "midi": 73,
        "time": 699.5,
        "duration": 0.25,
        "velocity": 0.54,
        "hand": "right"
      },
      {
        "midi": 85,
        "time": 699.5,
        "duration": 0.25,
        "velocity": 0.71,
        "hand": "right"
      },
      {
        "midi": 68,
        "time": 699.75,
        "duration": 0.25,
        "velocity": 0.54,
        "hand": "right"
      },
      {
        "midi": 72,
        "time": 699.75,
        "duration": 0.25,
        "velocity": 0.54,
        "hand": "right"
      },
      {
        "midi": 80,
        "time": 699.75,
        "duration": 0.25,
        "velocity": 0.71,
        "hand": "right"
      },
      {
        "midi": 84,
        "time": 699.75,
        "duration": 0.25,
        "velocity": 0.71,
        "hand": "right"
      },
      {
        "midi": 65,
        "time": 700,
        "duration": 0.25,
        "velocity": 0.54,
        "hand": "right"
      },
      {
        "midi": 77,
        "time": 700,
        "duration": 0.25,
        "velocity": 0.71,
        "hand": "right"
      },
      {
        "midi": 68,
        "time": 700.25,
        "duration": 0.25,
        "velocity": 0.54,
        "hand": "right"
      },
      {
        "midi": 70,
        "time": 700.25,
        "duration": 0.25,
        "velocity": 0.54,
        "hand": "right"
      },
      {
        "midi": 80,
        "time": 700.25,
        "duration": 0.25,
        "velocity": 0.71,
        "hand": "right"
      },
      {
        "midi": 82,
        "time": 700.25,
        "duration": 0.25,
        "velocity": 0.71,
        "hand": "right"
      },
      {
        "midi": 65,
        "time": 700.5,
        "duration": 0.25,
        "velocity": 0.54,
        "hand": "right"
      },
      {
        "midi": 77,
        "time": 700.5,
        "duration": 0.25,
        "velocity": 0.71,
        "hand": "right"
      },
      {
        "midi": 60,
        "time": 700.75,
        "duration": 0.25,
        "velocity": 0.54,
        "hand": "right"
      },
      {
        "midi": 67,
        "time": 700.75,
        "duration": 0.25,
        "velocity": 0.54,
        "hand": "right"
      },
      {
        "midi": 72,
        "time": 700.75,
        "duration": 0.25,
        "velocity": 0.71,
        "hand": "right"
      },
      {
        "midi": 79,
        "time": 700.75,
        "duration": 0.25,
        "velocity": 0.71,
        "hand": "right"
      },
      {
        "midi": 65,
        "time": 701,
        "duration": 0.25,
        "velocity": 0.54,
        "hand": "right"
      },
      {
        "midi": 77,
        "time": 701,
        "duration": 0.25,
        "velocity": 0.71,
        "hand": "right"
      },
      {
        "midi": 56,
        "time": 701.25,
        "duration": 0.25,
        "velocity": 0.54,
        "hand": "left"
      },
      {
        "midi": 60,
        "time": 701.25,
        "duration": 0.25,
        "velocity": 0.54,
        "hand": "right"
      },
      {
        "midi": 68,
        "time": 701.25,
        "duration": 0.25,
        "velocity": 0.71,
        "hand": "right"
      },
      {
        "midi": 72,
        "time": 701.25,
        "duration": 0.25,
        "velocity": 0.71,
        "hand": "right"
      },
      {
        "midi": 61,
        "time": 701.5,
        "duration": 0.25,
        "velocity": 0.54,
        "hand": "right"
      },
      {
        "midi": 73,
        "time": 701.5,
        "duration": 0.25,
        "velocity": 0.71,
        "hand": "right"
      },
      {
        "midi": 56,
        "time": 701.75,
        "duration": 0.25,
        "velocity": 0.54,
        "hand": "left"
      },
      {
        "midi": 60,
        "time": 701.75,
        "duration": 0.25,
        "velocity": 0.54,
        "hand": "right"
      },
      {
        "midi": 68,
        "time": 701.75,
        "duration": 0.25,
        "velocity": 0.71,
        "hand": "right"
      },
      {
        "midi": 72,
        "time": 701.75,
        "duration": 0.25,
        "velocity": 0.71,
        "hand": "right"
      },
      {
        "midi": 53,
        "time": 702,
        "duration": 0.25,
        "velocity": 0.54,
        "hand": "left"
      },
      {
        "midi": 65,
        "time": 702,
        "duration": 0.25,
        "velocity": 0.71,
        "hand": "right"
      },
      {
        "midi": 56,
        "time": 702.25,
        "duration": 0.25,
        "velocity": 0.54,
        "hand": "left"
      },
      {
        "midi": 58,
        "time": 702.25,
        "duration": 0.25,
        "velocity": 0.54,
        "hand": "left"
      },
      {
        "midi": 68,
        "time": 702.25,
        "duration": 0.25,
        "velocity": 0.71,
        "hand": "right"
      },
      {
        "midi": 70,
        "time": 702.25,
        "duration": 0.25,
        "velocity": 0.71,
        "hand": "right"
      },
      {
        "midi": 53,
        "time": 702.5,
        "duration": 0.25,
        "velocity": 0.54,
        "hand": "left"
      },
      {
        "midi": 65,
        "time": 702.5,
        "duration": 0.25,
        "velocity": 0.71,
        "hand": "right"
      },
      {
        "midi": 48,
        "time": 702.75,
        "duration": 0.25,
        "velocity": 0.54,
        "hand": "left"
      },
      {
        "midi": 55,
        "time": 702.75,
        "duration": 0.25,
        "velocity": 0.54,
        "hand": "left"
      },
      {
        "midi": 60,
        "time": 702.75,
        "duration": 0.25,
        "velocity": 0.71,
        "hand": "right"
      },
      {
        "midi": 67,
        "time": 702.75,
        "duration": 0.25,
        "velocity": 0.71,
        "hand": "right"
      },
      {
        "midi": 53,
        "time": 703,
        "duration": 0.25,
        "velocity": 0.54,
        "hand": "left"
      },
      {
        "midi": 65,
        "time": 703,
        "duration": 0.25,
        "velocity": 0.71,
        "hand": "right"
      },
      {
        "midi": 44,
        "time": 703.25,
        "duration": 0.25,
        "velocity": 0.54,
        "hand": "left"
      },
      {
        "midi": 48,
        "time": 703.25,
        "duration": 0.25,
        "velocity": 0.54,
        "hand": "left"
      },
      {
        "midi": 56,
        "time": 703.25,
        "duration": 0.25,
        "velocity": 0.71,
        "hand": "left"
      },
      {
        "midi": 60,
        "time": 703.25,
        "duration": 0.25,
        "velocity": 0.71,
        "hand": "right"
      },
      {
        "midi": 49,
        "time": 703.5,
        "duration": 0.25,
        "velocity": 0.54,
        "hand": "left"
      },
      {
        "midi": 61,
        "time": 703.5,
        "duration": 0.25,
        "velocity": 0.71,
        "hand": "right"
      },
      {
        "midi": 44,
        "time": 703.75,
        "duration": 0.25,
        "velocity": 0.54,
        "hand": "left"
      },
      {
        "midi": 48,
        "time": 703.75,
        "duration": 0.25,
        "velocity": 0.54,
        "hand": "left"
      },
      {
        "midi": 56,
        "time": 703.75,
        "duration": 0.25,
        "velocity": 0.71,
        "hand": "left"
      },
      {
        "midi": 60,
        "time": 703.75,
        "duration": 0.25,
        "velocity": 0.71,
        "hand": "right"
      },
      {
        "midi": 41,
        "time": 704,
        "duration": 0.25,
        "velocity": 0.54,
        "hand": "left"
      },
      {
        "midi": 53,
        "time": 704,
        "duration": 0.25,
        "velocity": 0.71,
        "hand": "left"
      },
      {
        "midi": 44,
        "time": 704.25,
        "duration": 0.25,
        "velocity": 0.54,
        "hand": "left"
      },
      {
        "midi": 46,
        "time": 704.25,
        "duration": 0.25,
        "velocity": 0.54,
        "hand": "left"
      },
      {
        "midi": 56,
        "time": 704.25,
        "duration": 0.25,
        "velocity": 0.71,
        "hand": "left"
      },
      {
        "midi": 58,
        "time": 704.25,
        "duration": 0.25,
        "velocity": 0.71,
        "hand": "left"
      },
      {
        "midi": 41,
        "time": 704.5,
        "duration": 0.25,
        "velocity": 0.54,
        "hand": "left"
      },
      {
        "midi": 53,
        "time": 704.5,
        "duration": 0.25,
        "velocity": 0.71,
        "hand": "left"
      },
      {
        "midi": 36,
        "time": 704.75,
        "duration": 0.25,
        "velocity": 0.54,
        "hand": "left"
      },
      {
        "midi": 43,
        "time": 704.75,
        "duration": 0.25,
        "velocity": 0.54,
        "hand": "left"
      },
      {
        "midi": 48,
        "time": 704.75,
        "duration": 0.25,
        "velocity": 0.71,
        "hand": "left"
      },
      {
        "midi": 55,
        "time": 704.75,
        "duration": 0.25,
        "velocity": 0.71,
        "hand": "left"
      },
      {
        "midi": 41,
        "time": 705,
        "duration": 0.25,
        "velocity": 0.54,
        "hand": "left"
      },
      {
        "midi": 53,
        "time": 705,
        "duration": 0.25,
        "velocity": 0.71,
        "hand": "left"
      },
      {
        "midi": 32,
        "time": 705.25,
        "duration": 0.25,
        "velocity": 0.54,
        "hand": "left"
      },
      {
        "midi": 36,
        "time": 705.25,
        "duration": 0.25,
        "velocity": 0.54,
        "hand": "left"
      },
      {
        "midi": 44,
        "time": 705.25,
        "duration": 0.25,
        "velocity": 0.71,
        "hand": "left"
      },
      {
        "midi": 48,
        "time": 705.25,
        "duration": 0.25,
        "velocity": 0.71,
        "hand": "left"
      },
      {
        "midi": 37,
        "time": 705.5,
        "duration": 0.25,
        "velocity": 0.54,
        "hand": "left"
      },
      {
        "midi": 49,
        "time": 705.5,
        "duration": 0.25,
        "velocity": 0.71,
        "hand": "left"
      },
      {
        "midi": 32,
        "time": 705.75,
        "duration": 0.25,
        "velocity": 0.54,
        "hand": "left"
      },
      {
        "midi": 36,
        "time": 705.75,
        "duration": 0.25,
        "velocity": 0.54,
        "hand": "left"
      },
      {
        "midi": 44,
        "time": 705.75,
        "duration": 0.25,
        "velocity": 0.71,
        "hand": "left"
      },
      {
        "midi": 48,
        "time": 705.75,
        "duration": 0.25,
        "velocity": 0.71,
        "hand": "left"
      },
      {
        "midi": 29,
        "time": 706,
        "duration": 0.25,
        "velocity": 0.54,
        "hand": "left"
      },
      {
        "midi": 41,
        "time": 706,
        "duration": 0.25,
        "velocity": 0.71,
        "hand": "left"
      },
      {
        "midi": 36,
        "time": 706.25,
        "duration": 0.25,
        "velocity": 0.54,
        "hand": "left"
      },
      {
        "midi": 37,
        "time": 706.25,
        "duration": 0.25,
        "velocity": 0.54,
        "hand": "left"
      },
      {
        "midi": 48,
        "time": 706.25,
        "duration": 0.25,
        "velocity": 0.71,
        "hand": "left"
      },
      {
        "midi": 49,
        "time": 706.25,
        "duration": 0.25,
        "velocity": 0.71,
        "hand": "left"
      },
      {
        "midi": 32,
        "time": 706.5,
        "duration": 0.25,
        "velocity": 0.54,
        "hand": "left"
      },
      {
        "midi": 44,
        "time": 706.5,
        "duration": 0.25,
        "velocity": 0.71,
        "hand": "left"
      },
      {
        "midi": 29,
        "time": 706.75,
        "duration": 0.25,
        "velocity": 0.54,
        "hand": "left"
      },
      {
        "midi": 37,
        "time": 706.75,
        "duration": 0.25,
        "velocity": 0.54,
        "hand": "left"
      },
      {
        "midi": 41,
        "time": 706.75,
        "duration": 0.25,
        "velocity": 0.71,
        "hand": "left"
      },
      {
        "midi": 49,
        "time": 706.75,
        "duration": 0.25,
        "velocity": 0.71,
        "hand": "left"
      },
      {
        "midi": 36,
        "time": 707,
        "duration": 0.25,
        "velocity": 0.54,
        "hand": "left"
      },
      {
        "midi": 48,
        "time": 707,
        "duration": 0.25,
        "velocity": 0.71,
        "hand": "left"
      },
      {
        "midi": 29,
        "time": 707.25,
        "duration": 0.25,
        "velocity": 0.54,
        "hand": "left"
      },
      {
        "midi": 32,
        "time": 707.25,
        "duration": 0.25,
        "velocity": 0.54,
        "hand": "left"
      },
      {
        "midi": 41,
        "time": 707.25,
        "duration": 0.25,
        "velocity": 0.71,
        "hand": "left"
      },
      {
        "midi": 44,
        "time": 707.25,
        "duration": 0.25,
        "velocity": 0.71,
        "hand": "left"
      },
      {
        "midi": 37,
        "time": 707.5,
        "duration": 0.25,
        "velocity": 0.54,
        "hand": "left"
      },
      {
        "midi": 49,
        "time": 707.5,
        "duration": 0.25,
        "velocity": 0.71,
        "hand": "left"
      },
      {
        "midi": 32,
        "time": 707.75,
        "duration": 0.25,
        "velocity": 0.54,
        "hand": "left"
      },
      {
        "midi": 36,
        "time": 707.75,
        "duration": 0.25,
        "velocity": 0.54,
        "hand": "left"
      },
      {
        "midi": 44,
        "time": 707.75,
        "duration": 0.25,
        "velocity": 0.71,
        "hand": "left"
      },
      {
        "midi": 48,
        "time": 707.75,
        "duration": 0.25,
        "velocity": 0.71,
        "hand": "left"
      },
      {
        "midi": 29,
        "time": 708,
        "duration": 0.5,
        "velocity": 0.54,
        "hand": "left"
      },
      {
        "midi": 41,
        "time": 708,
        "duration": 0.5,
        "velocity": 0.71,
        "hand": "left"
      },
      {
        "midi": 37,
        "time": 709.5,
        "duration": 0.5,
        "velocity": 0.54,
        "hand": "left"
      },
      {
        "midi": 49,
        "time": 709.5,
        "duration": 0.5,
        "velocity": 0.54,
        "hand": "left"
      },
      {
        "midi": 65,
        "time": 709.5,
        "duration": 0.5,
        "velocity": 0.71,
        "hand": "right"
      },
      {
        "midi": 68,
        "time": 709.5,
        "duration": 0.5,
        "velocity": 0.71,
        "hand": "right"
      },
      {
        "midi": 73,
        "time": 709.5,
        "duration": 0.5,
        "velocity": 0.71,
        "hand": "right"
      },
      {
        "midi": 77,
        "time": 709.5,
        "duration": 0.5,
        "velocity": 0.71,
        "hand": "right"
      },
      {
        "midi": 34,
        "time": 711,
        "duration": 0.5,
        "velocity": 0.54,
        "hand": "left"
      },
      {
        "midi": 46,
        "time": 711,
        "duration": 0.5,
        "velocity": 0.54,
        "hand": "left"
      },
      {
        "midi": 73,
        "time": 711,
        "duration": 0.5,
        "velocity": 0.71,
        "hand": "right"
      },
      {
        "midi": 77,
        "time": 711,
        "duration": 0.5,
        "velocity": 0.71,
        "hand": "right"
      },
      {
        "midi": 79,
        "time": 711,
        "duration": 0.5,
        "velocity": 0.71,
        "hand": "right"
      },
      {
        "midi": 85,
        "time": 711,
        "duration": 0.5,
        "velocity": 0.71,
        "hand": "right"
      },
      {
        "midi": 36,
        "time": 712.5,
        "duration": 0.5,
        "velocity": 0.54,
        "hand": "left"
      },
      {
        "midi": 48,
        "time": 712.5,
        "duration": 0.5,
        "velocity": 0.54,
        "hand": "left"
      },
      {
        "midi": 55,
        "time": 712.5,
        "duration": 0.5,
        "velocity": 0.71,
        "hand": "left"
      },
      {
        "midi": 58,
        "time": 712.5,
        "duration": 0.5,
        "velocity": 0.71,
        "hand": "left"
      },
      {
        "midi": 60,
        "time": 712.5,
        "duration": 0.5,
        "velocity": 0.71,
        "hand": "right"
      },
      {
        "midi": 64,
        "time": 712.5,
        "duration": 0.5,
        "velocity": 0.71,
        "hand": "right"
      },
      {
        "midi": 29,
        "time": 714,
        "duration": 3,
        "velocity": 0.54,
        "hand": "left"
      },
      {
        "midi": 41,
        "time": 714,
        "duration": 3,
        "velocity": 0.54,
        "hand": "left"
      },
      {
        "midi": 53,
        "time": 714,
        "duration": 3,
        "velocity": 0.71,
        "hand": "left"
      },
      {
        "midi": 56,
        "time": 714,
        "duration": 3,
        "velocity": 0.71,
        "hand": "left"
      },
      {
        "midi": 60,
        "time": 714,
        "duration": 3,
        "velocity": 0.71,
        "hand": "right"
      },
      {
        "midi": 65,
        "time": 714,
        "duration": 3,
        "velocity": 0.71,
        "hand": "right"
      }
    ]
  },
  "notes1Hand": [
    {
      "midi": 79,
      "time": 0,
      "duration": 0.5,
      "velocity": 0.71,
      "hand": "right"
    },
    {
      "midi": 79,
      "time": 0.5,
      "duration": 0.5,
      "velocity": 0.71,
      "hand": "right"
    },
    {
      "midi": 79,
      "time": 1,
      "duration": 0.5,
      "velocity": 0.71,
      "hand": "right"
    },
    {
      "midi": 79,
      "time": 1.5,
      "duration": 0.5,
      "velocity": 0.71,
      "hand": "right"
    },
    {
      "midi": 72,
      "time": 1.75,
      "duration": 0.333,
      "velocity": 0.71,
      "hand": "right"
    },
    {
      "midi": 79,
      "time": 2,
      "duration": 0.5,
      "velocity": 0.71,
      "hand": "right"
    },
    {
      "midi": 72,
      "time": 2.25,
      "duration": 0.333,
      "velocity": 0.71,
      "hand": "right"
    },
    {
      "midi": 79,
      "time": 2.5,
      "duration": 0.5,
      "velocity": 0.71,
      "hand": "right"
    },
    {
      "midi": 72,
      "time": 2.75,
      "duration": 0.333,
      "velocity": 0.71,
      "hand": "right"
    },
    {
      "midi": 79,
      "time": 3,
      "duration": 0.5,
      "velocity": 0.71,
      "hand": "right"
    },
    {
      "midi": 72,
      "time": 3.25,
      "duration": 0.333,
      "velocity": 0.71,
      "hand": "right"
    },
    {
      "midi": 79,
      "time": 3.5,
      "duration": 0.5,
      "velocity": 0.82,
      "hand": "right"
    },
    {
      "midi": 72,
      "time": 3.75,
      "duration": 0.333,
      "velocity": 0.71,
      "hand": "right"
    },
    {
      "midi": 79,
      "time": 4,
      "duration": 0.5,
      "velocity": 0.93,
      "hand": "right"
    },
    {
      "midi": 72,
      "time": 4.25,
      "duration": 0.333,
      "velocity": 0.71,
      "hand": "right"
    },
    {
      "midi": 79,
      "time": 4.5,
      "duration": 0.5,
      "velocity": 0.93,
      "hand": "right"
    },
    {
      "midi": 72,
      "time": 4.75,
      "duration": 0.333,
      "velocity": 0.71,
      "hand": "right"
    },
    {
      "midi": 77,
      "time": 5,
      "duration": 0.5,
      "velocity": 0.82,
      "hand": "right"
    },
    {
      "midi": 72,
      "time": 5.25,
      "duration": 0.333,
      "velocity": 0.71,
      "hand": "right"
    },
    {
      "midi": 76,
      "time": 5.5,
      "duration": 0.5,
      "velocity": 0.71,
      "hand": "right"
    },
    {
      "midi": 72,
      "time": 5.75,
      "duration": 0.333,
      "velocity": 0.71,
      "hand": "right"
    },
    {
      "midi": 76,
      "time": 6,
      "duration": 0.5,
      "velocity": 0.71,
      "hand": "right"
    },
    {
      "midi": 71,
      "time": 6.25,
      "duration": 0.333,
      "velocity": 0.71,
      "hand": "right"
    },
    {
      "midi": 74,
      "time": 6.5,
      "duration": 0.5,
      "velocity": 0.71,
      "hand": "right"
    },
    {
      "midi": 71,
      "time": 6.75,
      "duration": 0.333,
      "velocity": 0.71,
      "hand": "right"
    },
    {
      "midi": 72,
      "time": 7,
      "duration": 0.5,
      "velocity": 0.71,
      "hand": "right"
    },
    {
      "midi": 67,
      "time": 7.25,
      "duration": 0.333,
      "velocity": 0.71,
      "hand": "right"
    },
    {
      "midi": 76,
      "time": 7.5,
      "duration": 1.5,
      "velocity": 0.71,
      "hand": "right"
    },
    {
      "midi": 72,
      "time": 7.75,
      "duration": 0.333,
      "velocity": 0.71,
      "hand": "right"
    },
    {
      "midi": 64,
      "time": 8,
      "duration": 0.333,
      "velocity": 0.71,
      "hand": "right"
    },
    {
      "midi": 72,
      "time": 8.25,
      "duration": 0.333,
      "velocity": 0.71,
      "hand": "right"
    },
    {
      "midi": 64,
      "time": 8.5,
      "duration": 0.333,
      "velocity": 0.71,
      "hand": "right"
    },
    {
      "midi": 72,
      "time": 8.75,
      "duration": 0.333,
      "velocity": 0.71,
      "hand": "right"
    },
    {
      "midi": 79,
      "time": 9,
      "duration": 0.5,
      "velocity": 0.71,
      "hand": "right"
    },
    {
      "midi": 72,
      "time": 9.25,
      "duration": 0.333,
      "velocity": 0.71,
      "hand": "right"
    },
    {
      "midi": 79,
      "time": 9.5,
      "duration": 0.5,
      "velocity": 0.71,
      "hand": "right"
    },
    {
      "midi": 72,
      "time": 9.75,
      "duration": 0.333,
      "velocity": 0.71,
      "hand": "right"
    },
    {
      "midi": 79,
      "time": 10,
      "duration": 0.5,
      "velocity": 0.71,
      "hand": "right"
    },
    {
      "midi": 72,
      "time": 10.25,
      "duration": 0.333,
      "velocity": 0.71,
      "hand": "right"
    },
    {
      "midi": 79,
      "time": 10.5,
      "duration": 0.5,
      "velocity": 0.71,
      "hand": "right"
    },
    {
      "midi": 72,
      "time": 10.75,
      "duration": 0.333,
      "velocity": 0.71,
      "hand": "right"
    },
    {
      "midi": 77,
      "time": 11,
      "duration": 0.5,
      "velocity": 0.71,
      "hand": "right"
    },
    {
      "midi": 72,
      "time": 11.25,
      "duration": 0.333,
      "velocity": 0.71,
      "hand": "right"
    },
    {
      "midi": 76,
      "time": 11.5,
      "duration": 0.5,
      "velocity": 0.71,
      "hand": "right"
    },
    {
      "midi": 72,
      "time": 11.75,
      "duration": 0.333,
      "velocity": 0.71,
      "hand": "right"
    },
    {
      "midi": 76,
      "time": 12,
      "duration": 0.5,
      "velocity": 0.71,
      "hand": "right"
    },
    {
      "midi": 71,
      "time": 12.25,
      "duration": 0.333,
      "velocity": 0.71,
      "hand": "right"
    },
    {
      "midi": 74,
      "time": 12.5,
      "duration": 0.5,
      "velocity": 0.71,
      "hand": "right"
    },
    {
      "midi": 71,
      "time": 12.75,
      "duration": 0.333,
      "velocity": 0.71,
      "hand": "right"
    },
    {
      "midi": 72,
      "time": 13,
      "duration": 0.5,
      "velocity": 0.71,
      "hand": "right"
    },
    {
      "midi": 67,
      "time": 13.25,
      "duration": 0.333,
      "velocity": 0.71,
      "hand": "right"
    },
    {
      "midi": 76,
      "time": 13.5,
      "duration": 1.5,
      "velocity": 0.71,
      "hand": "right"
    },
    {
      "midi": 72,
      "time": 13.75,
      "duration": 0.333,
      "velocity": 0.71,
      "hand": "right"
    },
    {
      "midi": 64,
      "time": 14,
      "duration": 0.333,
      "velocity": 0.71,
      "hand": "right"
    },
    {
      "midi": 72,
      "time": 14.25,
      "duration": 0.333,
      "velocity": 0.71,
      "hand": "right"
    },
    {
      "midi": 64,
      "time": 14.5,
      "duration": 0.333,
      "velocity": 0.71,
      "hand": "right"
    },
    {
      "midi": 72,
      "time": 14.75,
      "duration": 0.333,
      "velocity": 0.71,
      "hand": "right"
    },
    {
      "midi": 76,
      "time": 15,
      "duration": 0.5,
      "velocity": 0.71,
      "hand": "right"
    },
    {
      "midi": 71,
      "time": 15.25,
      "duration": 0.333,
      "velocity": 0.71,
      "hand": "right"
    },
    {
      "midi": 74,
      "time": 15.5,
      "duration": 0.5,
      "velocity": 0.71,
      "hand": "right"
    },
    {
      "midi": 71,
      "time": 15.75,
      "duration": 0.333,
      "velocity": 0.71,
      "hand": "right"
    },
    {
      "midi": 72,
      "time": 16,
      "duration": 0.5,
      "velocity": 0.71,
      "hand": "right"
    },
    {
      "midi": 67,
      "time": 16.25,
      "duration": 0.333,
      "velocity": 0.71,
      "hand": "right"
    },
    {
      "midi": 76,
      "time": 16.5,
      "duration": 4,
      "velocity": 0.71,
      "hand": "right"
    },
    {
      "midi": 72,
      "time": 16.75,
      "duration": 0.333,
      "velocity": 0.71,
      "hand": "right"
    },
    {
      "midi": 64,
      "time": 17,
      "duration": 0.333,
      "velocity": 0.71,
      "hand": "right"
    },
    {
      "midi": 72,
      "time": 17.25,
      "duration": 0.333,
      "velocity": 0.71,
      "hand": "right"
    },
    {
      "midi": 64,
      "time": 17.5,
      "duration": 0.333,
      "velocity": 0.71,
      "hand": "right"
    },
    {
      "midi": 72,
      "time": 17.75,
      "duration": 0.333,
      "velocity": 0.71,
      "hand": "right"
    },
    {
      "midi": 64,
      "time": 18,
      "duration": 0.333,
      "velocity": 0.71,
      "hand": "right"
    },
    {
      "midi": 72,
      "time": 18.25,
      "duration": 0.333,
      "velocity": 0.71,
      "hand": "right"
    },
    {
      "midi": 64,
      "time": 18.5,
      "duration": 0.333,
      "velocity": 0.71,
      "hand": "right"
    },
    {
      "midi": 72,
      "time": 18.75,
      "duration": 0.333,
      "velocity": 0.71,
      "hand": "right"
    },
    {
      "midi": 64,
      "time": 19,
      "duration": 0.333,
      "velocity": 0.71,
      "hand": "right"
    },
    {
      "midi": 72,
      "time": 19.25,
      "duration": 1.25,
      "velocity": 0.71,
      "hand": "right"
    },
    {
      "midi": 64,
      "time": 19.5,
      "duration": 1,
      "velocity": 0.71,
      "hand": "right"
    },
    {
      "midi": 72,
      "time": 20.5,
      "duration": 1,
      "velocity": 0.71,
      "hand": "right"
    },
    {
      "midi": 73,
      "time": 21.5,
      "duration": 0.5,
      "velocity": 0.71,
      "hand": "right"
    },
    {
      "midi": 71,
      "time": 22,
      "duration": 1,
      "velocity": 0.71,
      "hand": "right"
    },
    {
      "midi": 41,
      "time": 22.5,
      "duration": 0.5,
      "velocity": 0.48,
      "hand": "right"
    },
    {
      "midi": 72,
      "time": 23,
      "duration": 0.5,
      "velocity": 0.71,
      "hand": "right"
    },
    {
      "midi": 77,
      "time": 23.5,
      "duration": 0.5,
      "velocity": 0.71,
      "hand": "right"
    },
    {
      "midi": 76,
      "time": 24,
      "duration": 0.5,
      "velocity": 0.71,
      "hand": "right"
    },
    {
      "midi": 70,
      "time": 24.5,
      "duration": 0.5,
      "velocity": 0.71,
      "hand": "right"
    },
    {
      "midi": 73,
      "time": 25,
      "duration": 1,
      "velocity": 0.71,
      "hand": "right"
    },
    {
      "midi": 41,
      "time": 25.5,
      "duration": 0.5,
      "velocity": 0.48,
      "hand": "right"
    },
    {
      "midi": 72,
      "time": 26,
      "duration": 0.5,
      "velocity": 0.71,
      "hand": "right"
    },
    {
      "midi": 77,
      "time": 26.5,
      "duration": 0.5,
      "velocity": 0.71,
      "hand": "right"
    },
    {
      "midi": 76,
      "time": 27,
      "duration": 0.5,
      "velocity": 0.71,
      "hand": "right"
    },
    {
      "midi": 70,
      "time": 27.5,
      "duration": 0.5,
      "velocity": 0.71,
      "hand": "right"
    },
    {
      "midi": 73,
      "time": 28,
      "duration": 0.5,
      "velocity": 0.71,
      "hand": "right"
    },
    {
      "midi": 53,
      "time": 28.5,
      "duration": 0.5,
      "velocity": 0.48,
      "hand": "right"
    },
    {
      "midi": 72,
      "time": 29,
      "duration": 0.333,
      "velocity": 0.71,
      "hand": "right"
    },
    {
      "midi": 73,
      "time": 29.25,
      "duration": 0.333,
      "velocity": 0.71,
      "hand": "right"
    },
    {
      "midi": 72,
      "time": 29.5,
      "duration": 0.333,
      "velocity": 0.71,
      "hand": "right"
    },
    {
      "midi": 73,
      "time": 29.75,
      "duration": 0.333,
      "velocity": 0.71,
      "hand": "right"
    },
    {
      "midi": 75,
      "time": 30,
      "duration": 0.5,
      "velocity": 0.71,
      "hand": "right"
    },
    {
      "midi": 75,
      "time": 30.5,
      "duration": 0.5,
      "velocity": 0.71,
      "hand": "right"
    },
    {
      "midi": 75,
      "time": 31,
      "duration": 0.5,
      "velocity": 0.71,
      "hand": "right"
    },
    {
      "midi": 75,
      "time": 31.5,
      "duration": 0.5,
      "velocity": 0.71,
      "hand": "right"
    },
    {
      "midi": 73,
      "time": 32,
      "duration": 0.333,
      "velocity": 0.71,
      "hand": "right"
    },
    {
      "midi": 72,
      "time": 32.25,
      "duration": 0.333,
      "velocity": 0.71,
      "hand": "right"
    },
    {
      "midi": 70,
      "time": 32.5,
      "duration": 0.333,
      "velocity": 0.71,
      "hand": "right"
    },
    {
      "midi": 72,
      "time": 32.75,
      "duration": 0.333,
      "velocity": 0.71,
      "hand": "right"
    },
    {
      "midi": 68,
      "time": 33,
      "duration": 0.5,
      "velocity": 0.71,
      "hand": "right"
    },
    {
      "midi": 63,
      "time": 33.5,
      "duration": 0.5,
      "velocity": 0.48,
      "hand": "right"
    },
    {
      "midi": 60,
      "time": 34,
      "duration": 0.5,
      "velocity": 0.48,
      "hand": "right"
    },
    {
      "midi": 65,
      "time": 34.5,
      "duration": 0.5,
      "velocity": 0.48,
      "hand": "right"
    },
    {
      "midi": 63,
      "time": 35,
      "duration": 0.5,
      "velocity": 0.48,
      "hand": "right"
    },
    {
      "midi": 60,
      "time": 35.5,
      "duration": 0.5,
      "velocity": 0.48,
      "hand": "right"
    },
    {
      "midi": 32,
      "time": 36,
      "duration": 0.5,
      "velocity": 0.48,
      "hand": "right"
    },
    {
      "midi": 75,
      "time": 36.5,
      "duration": 0.5,
      "velocity": 0.71,
      "hand": "right"
    },
    {
      "midi": 80,
      "time": 37,
      "duration": 0.5,
      "velocity": 0.71,
      "hand": "right"
    },
    {
      "midi": 79,
      "time": 37.5,
      "duration": 0.5,
      "velocity": 0.71,
      "hand": "right"
    },
    {
      "midi": 73,
      "time": 38,
      "duration": 0.5,
      "velocity": 0.71,
      "hand": "right"
    },
    {
      "midi": 76,
      "time": 38.5,
      "duration": 1,
      "velocity": 0.71,
      "hand": "right"
    },
    {
      "midi": 44,
      "time": 39,
      "duration": 0.5,
      "velocity": 0.48,
      "hand": "right"
    },
    {
      "midi": 75,
      "time": 39.5,
      "duration": 0.5,
      "velocity": 0.71,
      "hand": "right"
    },
    {
      "midi": 80,
      "time": 40,
      "duration": 0.5,
      "velocity": 0.71,
      "hand": "right"
    },
    {
      "midi": 79,
      "time": 40.5,
      "duration": 0.5,
      "velocity": 0.71,
      "hand": "right"
    },
    {
      "midi": 73,
      "time": 41,
      "duration": 0.5,
      "velocity": 0.71,
      "hand": "right"
    },
    {
      "midi": 76,
      "time": 41.5,
      "duration": 0.5,
      "velocity": 0.71,
      "hand": "right"
    },
    {
      "midi": 44,
      "time": 42,
      "duration": 0.5,
      "velocity": 0.48,
      "hand": "right"
    },
    {
      "midi": 75,
      "time": 42.5,
      "duration": 0.333,
      "velocity": 0.71,
      "hand": "right"
    },
    {
      "midi": 77,
      "time": 42.75,
      "duration": 0.333,
      "velocity": 0.71,
      "hand": "right"
    },
    {
      "midi": 75,
      "time": 43,
      "duration": 0.333,
      "velocity": 0.71,
      "hand": "right"
    },
    {
      "midi": 77,
      "time": 43.25,
      "duration": 0.333,
      "velocity": 0.71,
      "hand": "right"
    },
    {
      "midi": 78,
      "time": 43.5,
      "duration": 0.5,
      "velocity": 0.71,
      "hand": "right"
    },
    {
      "midi": 78,
      "time": 44,
      "duration": 0.5,
      "velocity": 0.71,
      "hand": "right"
    },
    {
      "midi": 78,
      "time": 44.5,
      "duration": 0.5,
      "velocity": 0.71,
      "hand": "right"
    },
    {
      "midi": 78,
      "time": 45,
      "duration": 0.5,
      "velocity": 0.71,
      "hand": "right"
    },
    {
      "midi": 77,
      "time": 45.5,
      "duration": 0.333,
      "velocity": 0.71,
      "hand": "right"
    },
    {
      "midi": 72,
      "time": 45.75,
      "duration": 0.333,
      "velocity": 0.71,
      "hand": "right"
    },
    {
      "midi": 75,
      "time": 46,
      "duration": 0.333,
      "velocity": 0.71,
      "hand": "right"
    },
    {
      "midi": 73,
      "time": 46.25,
      "duration": 0.333,
      "velocity": 0.71,
      "hand": "right"
    },
    {
      "midi": 70,
      "time": 46.5,
      "duration": 0.5,
      "velocity": 0.71,
      "hand": "right"
    },
    {
      "midi": 65,
      "time": 47,
      "duration": 0.5,
      "velocity": 0.48,
      "hand": "right"
    },
    {
      "midi": 61,
      "time": 47.5,
      "duration": 0.5,
      "velocity": 0.48,
      "hand": "right"
    },
    {
      "midi": 42,
      "time": 48,
      "duration": 0.5,
      "velocity": 0.48,
      "hand": "right"
    },
    {
      "midi": 73,
      "time": 48.5,
      "duration": 0.333,
      "velocity": 0.71,
      "hand": "right"
    },
    {
      "midi": 75,
      "time": 48.75,
      "duration": 0.333,
      "velocity": 0.71,
      "hand": "right"
    },
    {
      "midi": 73,
      "time": 49,
      "duration": 0.333,
      "velocity": 0.71,
      "hand": "right"
    },
    {
      "midi": 75,
      "time": 49.25,
      "duration": 0.333,
      "velocity": 0.71,
      "hand": "right"
    },
    {
      "midi": 77,
      "time": 49.5,
      "duration": 0.5,
      "velocity": 0.71,
      "hand": "right"
    },
    {
      "midi": 77,
      "time": 50,
      "duration": 0.5,
      "velocity": 0.71,
      "hand": "right"
    },
    {
      "midi": 77,
      "time": 50.5,
      "duration": 0.5,
      "velocity": 0.71,
      "hand": "right"
    },
    {
      "midi": 77,
      "time": 51,
      "duration": 0.5,
      "velocity": 0.71,
      "hand": "right"
    },
    {
      "midi": 75,
      "time": 51.5,
      "duration": 0.333,
      "velocity": 0.71,
      "hand": "right"
    },
    {
      "midi": 70,
      "time": 51.75,
      "duration": 0.333,
      "velocity": 0.71,
      "hand": "right"
    },
    {
      "midi": 73,
      "time": 52,
      "duration": 0.333,
      "velocity": 0.71,
      "hand": "right"
    },
    {
      "midi": 72,
      "time": 52.25,
      "duration": 0.333,
      "velocity": 0.71,
      "hand": "right"
    },
    {
      "midi": 69,
      "time": 52.5,
      "duration": 0.5,
      "velocity": 0.71,
      "hand": "right"
    },
    {
      "midi": 72,
      "time": 53,
      "duration": 0.5,
      "velocity": 0.71,
      "hand": "right"
    },
    {
      "midi": 77,
      "time": 53.5,
      "duration": 0.5,
      "velocity": 0.71,
      "hand": "right"
    },
    {
      "midi": 76,
      "time": 54,
      "duration": 0.5,
      "velocity": 0.71,
      "hand": "right"
    },
    {
      "midi": 70,
      "time": 54.5,
      "duration": 0.5,
      "velocity": 0.71,
      "hand": "right"
    },
    {
      "midi": 73,
      "time": 55,
      "duration": 1,
      "velocity": 0.71,
      "hand": "right"
    },
    {
      "midi": 41,
      "time": 55.5,
      "duration": 0.5,
      "velocity": 0.48,
      "hand": "right"
    },
    {
      "midi": 72,
      "time": 56,
      "duration": 0.5,
      "velocity": 0.71,
      "hand": "right"
    },
    {
      "midi": 77,
      "time": 56.5,
      "duration": 0.5,
      "velocity": 0.71,
      "hand": "right"
    },
    {
      "midi": 76,
      "time": 57,
      "duration": 0.5,
      "velocity": 0.71,
      "hand": "right"
    },
    {
      "midi": 70,
      "time": 57.5,
      "duration": 0.5,
      "velocity": 0.71,
      "hand": "right"
    },
    {
      "midi": 73,
      "time": 58,
      "duration": 0.5,
      "velocity": 0.71,
      "hand": "right"
    },
    {
      "midi": 41,
      "time": 58.5,
      "duration": 0.5,
      "velocity": 0.48,
      "hand": "right"
    },
    {
      "midi": 72,
      "time": 59,
      "duration": 0.333,
      "velocity": 0.71,
      "hand": "right"
    },
    {
      "midi": 73,
      "time": 59.25,
      "duration": 0.333,
      "velocity": 0.71,
      "hand": "right"
    },
    {
      "midi": 72,
      "time": 59.5,
      "duration": 0.333,
      "velocity": 0.71,
      "hand": "right"
    },
    {
      "midi": 73,
      "time": 59.75,
      "duration": 0.333,
      "velocity": 0.71,
      "hand": "right"
    },
    {
      "midi": 75,
      "time": 60,
      "duration": 0.5,
      "velocity": 0.71,
      "hand": "right"
    },
    {
      "midi": 75,
      "time": 60.5,
      "duration": 0.5,
      "velocity": 0.71,
      "hand": "right"
    },
    {
      "midi": 75,
      "time": 61,
      "duration": 0.5,
      "velocity": 0.71,
      "hand": "right"
    },
    {
      "midi": 75,
      "time": 61.5,
      "duration": 0.5,
      "velocity": 0.71,
      "hand": "right"
    },
    {
      "midi": 77,
      "time": 62,
      "duration": 0.333,
      "velocity": 0.71,
      "hand": "right"
    },
    {
      "midi": 72,
      "time": 62.25,
      "duration": 0.333,
      "velocity": 0.71,
      "hand": "right"
    },
    {
      "midi": 75,
      "time": 62.5,
      "duration": 0.333,
      "velocity": 0.71,
      "hand": "right"
    },
    {
      "midi": 73,
      "time": 62.75,
      "duration": 0.333,
      "velocity": 0.71,
      "hand": "right"
    },
    {
      "midi": 70,
      "time": 63,
      "duration": 1.5,
      "velocity": 0.71,
      "hand": "right"
    },
    {
      "midi": 65,
      "time": 63.5,
      "duration": 0.5,
      "velocity": 0.48,
      "hand": "right"
    },
    {
      "midi": 61,
      "time": 64,
      "duration": 0.5,
      "velocity": 0.48,
      "hand": "right"
    },
    {
      "midi": 67,
      "time": 64.5,
      "duration": 1,
      "velocity": 0.71,
      "hand": "right"
    },
    {
      "midi": 64,
      "time": 65,
      "duration": 0.5,
      "velocity": 0.48,
      "hand": "right"
    },
    {
      "midi": 60,
      "time": 65.5,
      "duration": 0.5,
      "velocity": 0.48,
      "hand": "right"
    },
    {
      "midi": 41,
      "time": 66,
      "duration": 0.5,
      "velocity": 0.48,
      "hand": "right"
    },
    {
      "midi": 72,
      "time": 66.5,
      "duration": 0.5,
      "velocity": 0.71,
      "hand": "right"
    },
    {
      "midi": 77,
      "time": 67,
      "duration": 0.5,
      "velocity": 0.71,
      "hand": "right"
    },
    {
      "midi": 76,
      "time": 67.5,
      "duration": 0.5,
      "velocity": 0.71,
      "hand": "right"
    },
    {
      "midi": 70,
      "time": 68,
      "duration": 0.5,
      "velocity": 0.71,
      "hand": "right"
    },
    {
      "midi": 73,
      "time": 68.5,
      "duration": 1,
      "velocity": 0.71,
      "hand": "right"
    },
    {
      "midi": 41,
      "time": 69,
      "duration": 0.5,
      "velocity": 0.48,
      "hand": "right"
    },
    {
      "midi": 72,
      "time": 69.5,
      "duration": 0.5,
      "velocity": 0.71,
      "hand": "right"
    },
    {
      "midi": 77,
      "time": 70,
      "duration": 0.75,
      "velocity": 0.71,
      "hand": "right"
    },
    {
      "midi": 53,
      "time": 70.5,
      "duration": 0.5,
      "velocity": 0.48,
      "hand": "right"
    },
    {
      "midi": 76,
      "time": 70.75,
      "duration": 0.333,
      "velocity": 0.71,
      "hand": "right"
    },
    {
      "midi": 70,
      "time": 71,
      "duration": 0.333,
      "velocity": 0.71,
      "hand": "right"
    },
    {
      "midi": 72,
      "time": 71.25,
      "duration": 0.333,
      "velocity": 0.71,
      "hand": "right"
    },
    {
      "midi": 75,
      "time": 71.5,
      "duration": 0.333,
      "velocity": 0.71,
      "hand": "right"
    },
    {
      "midi": 73,
      "time": 71.75,
      "duration": 0.333,
      "velocity": 0.71,
      "hand": "right"
    },
    {
      "midi": 53,
      "time": 72,
      "duration": 0.5,
      "velocity": 0.48,
      "hand": "right"
    },
    {
      "midi": 72,
      "time": 72.5,
      "duration": 0.333,
      "velocity": 0.71,
      "hand": "right"
    },
    {
      "midi": 73,
      "time": 72.75,
      "duration": 0.333,
      "velocity": 0.71,
      "hand": "right"
    },
    {
      "midi": 72,
      "time": 73,
      "duration": 0.333,
      "velocity": 0.71,
      "hand": "right"
    },
    {
      "midi": 73,
      "time": 73.25,
      "duration": 0.333,
      "velocity": 0.71,
      "hand": "right"
    },
    {
      "midi": 75,
      "time": 73.5,
      "duration": 0.5,
      "velocity": 0.71,
      "hand": "right"
    },
    {
      "midi": 75,
      "time": 74,
      "duration": 0.5,
      "velocity": 0.71,
      "hand": "right"
    },
    {
      "midi": 75,
      "time": 74.5,
      "duration": 0.5,
      "velocity": 0.71,
      "hand": "right"
    },
    {
      "midi": 75,
      "time": 75,
      "duration": 0.5,
      "velocity": 0.71,
      "hand": "right"
    },
    {
      "midi": 73,
      "time": 75.5,
      "duration": 0.333,
      "velocity": 0.71,
      "hand": "right"
    },
    {
      "midi": 72,
      "time": 75.75,
      "duration": 0.333,
      "velocity": 0.71,
      "hand": "right"
    },
    {
      "midi": 70,
      "time": 76,
      "duration": 0.333,
      "velocity": 0.71,
      "hand": "right"
    },
    {
      "midi": 72,
      "time": 76.25,
      "duration": 0.333,
      "velocity": 0.71,
      "hand": "right"
    },
    {
      "midi": 68,
      "time": 76.5,
      "duration": 0.5,
      "velocity": 0.71,
      "hand": "right"
    },
    {
      "midi": 63,
      "time": 77,
      "duration": 0.5,
      "velocity": 0.48,
      "hand": "right"
    },
    {
      "midi": 60,
      "time": 77.5,
      "duration": 0.5,
      "velocity": 0.48,
      "hand": "right"
    },
    {
      "midi": 44,
      "time": 78,
      "duration": 0.5,
      "velocity": 0.48,
      "hand": "right"
    },
    {
      "midi": 64,
      "time": 78.5,
      "duration": 0.5,
      "velocity": 0.48,
      "hand": "right"
    },
    {
      "midi": 60,
      "time": 79,
      "duration": 0.5,
      "velocity": 0.48,
      "hand": "right"
    },
    {
      "midi": 32,
      "time": 79.5,
      "duration": 0.5,
      "velocity": 0.48,
      "hand": "right"
    },
    {
      "midi": 75,
      "time": 80,
      "duration": 0.5,
      "velocity": 0.71,
      "hand": "right"
    },
    {
      "midi": 80,
      "time": 80.5,
      "duration": 0.5,
      "velocity": 0.71,
      "hand": "right"
    },
    {
      "midi": 79,
      "time": 81,
      "duration": 0.5,
      "velocity": 0.71,
      "hand": "right"
    },
    {
      "midi": 73,
      "time": 81.5,
      "duration": 0.5,
      "velocity": 0.71,
      "hand": "right"
    },
    {
      "midi": 76,
      "time": 82,
      "duration": 1,
      "velocity": 0.71,
      "hand": "right"
    },
    {
      "midi": 44,
      "time": 82.5,
      "duration": 0.5,
      "velocity": 0.48,
      "hand": "right"
    },
    {
      "midi": 75,
      "time": 83,
      "duration": 0.5,
      "velocity": 0.71,
      "hand": "right"
    },
    {
      "midi": 80,
      "time": 83.5,
      "duration": 0.75,
      "velocity": 0.71,
      "hand": "right"
    },
    {
      "midi": 56,
      "time": 84,
      "duration": 0.5,
      "velocity": 0.48,
      "hand": "right"
    },
    {
      "midi": 79,
      "time": 84.25,
      "duration": 0.333,
      "velocity": 0.71,
      "hand": "right"
    },
    {
      "midi": 73,
      "time": 84.5,
      "duration": 0.333,
      "velocity": 0.71,
      "hand": "right"
    },
    {
      "midi": 75,
      "time": 84.75,
      "duration": 0.333,
      "velocity": 0.71,
      "hand": "right"
    },
    {
      "midi": 78,
      "time": 85,
      "duration": 0.333,
      "velocity": 0.71,
      "hand": "right"
    },
    {
      "midi": 76,
      "time": 85.25,
      "duration": 0.333,
      "velocity": 0.71,
      "hand": "right"
    },
    {
      "midi": 44,
      "time": 85.5,
      "duration": 0.5,
      "velocity": 0.48,
      "hand": "right"
    },
    {
      "midi": 75,
      "time": 86,
      "duration": 0.333,
      "velocity": 0.71,
      "hand": "right"
    },
    {
      "midi": 77,
      "time": 86.25,
      "duration": 0.333,
      "velocity": 0.71,
      "hand": "right"
    },
    {
      "midi": 75,
      "time": 86.5,
      "duration": 0.333,
      "velocity": 0.71,
      "hand": "right"
    },
    {
      "midi": 77,
      "time": 86.75,
      "duration": 0.333,
      "velocity": 0.71,
      "hand": "right"
    },
    {
      "midi": 78,
      "time": 87,
      "duration": 0.5,
      "velocity": 0.71,
      "hand": "right"
    },
    {
      "midi": 78,
      "time": 87.5,
      "duration": 0.5,
      "velocity": 0.71,
      "hand": "right"
    },
    {
      "midi": 78,
      "time": 88,
      "duration": 0.5,
      "velocity": 0.71,
      "hand": "right"
    },
    {
      "midi": 78,
      "time": 88.5,
      "duration": 0.5,
      "velocity": 0.71,
      "hand": "right"
    },
    {
      "midi": 77,
      "time": 89,
      "duration": 0.333,
      "velocity": 0.71,
      "hand": "right"
    },
    {
      "midi": 72,
      "time": 89.25,
      "duration": 0.333,
      "velocity": 0.71,
      "hand": "right"
    },
    {
      "midi": 75,
      "time": 89.5,
      "duration": 0.333,
      "velocity": 0.71,
      "hand": "right"
    },
    {
      "midi": 73,
      "time": 89.75,
      "duration": 0.333,
      "velocity": 0.71,
      "hand": "right"
    },
    {
      "midi": 70,
      "time": 90,
      "duration": 0.5,
      "velocity": 0.71,
      "hand": "right"
    },
    {
      "midi": 65,
      "time": 90.5,
      "duration": 0.5,
      "velocity": 0.48,
      "hand": "right"
    },
    {
      "midi": 61,
      "time": 91,
      "duration": 0.5,
      "velocity": 0.48,
      "hand": "right"
    },
    {
      "midi": 42,
      "time": 91.5,
      "duration": 0.5,
      "velocity": 0.48,
      "hand": "right"
    },
    {
      "midi": 73,
      "time": 92,
      "duration": 0.333,
      "velocity": 0.71,
      "hand": "right"
    },
    {
      "midi": 75,
      "time": 92.25,
      "duration": 0.333,
      "velocity": 0.71,
      "hand": "right"
    },
    {
      "midi": 73,
      "time": 92.5,
      "duration": 0.333,
      "velocity": 0.71,
      "hand": "right"
    },
    {
      "midi": 75,
      "time": 92.75,
      "duration": 0.333,
      "velocity": 0.71,
      "hand": "right"
    },
    {
      "midi": 77,
      "time": 93,
      "duration": 0.5,
      "velocity": 0.71,
      "hand": "right"
    },
    {
      "midi": 77,
      "time": 93.5,
      "duration": 0.5,
      "velocity": 0.71,
      "hand": "right"
    },
    {
      "midi": 77,
      "time": 94,
      "duration": 0.5,
      "velocity": 0.71,
      "hand": "right"
    },
    {
      "midi": 77,
      "time": 94.5,
      "duration": 0.5,
      "velocity": 0.71,
      "hand": "right"
    },
    {
      "midi": 75,
      "time": 95,
      "duration": 0.333,
      "velocity": 0.71,
      "hand": "right"
    },
    {
      "midi": 70,
      "time": 95.25,
      "duration": 0.333,
      "velocity": 0.71,
      "hand": "right"
    },
    {
      "midi": 73,
      "time": 95.5,
      "duration": 0.333,
      "velocity": 0.71,
      "hand": "right"
    },
    {
      "midi": 72,
      "time": 95.75,
      "duration": 0.333,
      "velocity": 0.71,
      "hand": "right"
    },
    {
      "midi": 69,
      "time": 96,
      "duration": 0.5,
      "velocity": 0.71,
      "hand": "right"
    },
    {
      "midi": 72,
      "time": 96.5,
      "duration": 0.5,
      "velocity": 0.71,
      "hand": "right"
    },
    {
      "midi": 77,
      "time": 97,
      "duration": 0.5,
      "velocity": 0.71,
      "hand": "right"
    },
    {
      "midi": 76,
      "time": 97.5,
      "duration": 0.5,
      "velocity": 0.71,
      "hand": "right"
    },
    {
      "midi": 70,
      "time": 98,
      "duration": 0.5,
      "velocity": 0.71,
      "hand": "right"
    },
    {
      "midi": 73,
      "time": 98.5,
      "duration": 1,
      "velocity": 0.71,
      "hand": "right"
    },
    {
      "midi": 41,
      "time": 99,
      "duration": 0.5,
      "velocity": 0.48,
      "hand": "right"
    },
    {
      "midi": 72,
      "time": 99.5,
      "duration": 0.5,
      "velocity": 0.71,
      "hand": "right"
    },
    {
      "midi": 77,
      "time": 100,
      "duration": 0.75,
      "velocity": 0.71,
      "hand": "right"
    },
    {
      "midi": 53,
      "time": 100.5,
      "duration": 0.5,
      "velocity": 0.48,
      "hand": "right"
    },
    {
      "midi": 76,
      "time": 100.75,
      "duration": 0.333,
      "velocity": 0.71,
      "hand": "right"
    },
    {
      "midi": 70,
      "time": 101,
      "duration": 0.333,
      "velocity": 0.71,
      "hand": "right"
    },
    {
      "midi": 72,
      "time": 101.25,
      "duration": 0.333,
      "velocity": 0.71,
      "hand": "right"
    },
    {
      "midi": 75,
      "time": 101.5,
      "duration": 0.333,
      "velocity": 0.71,
      "hand": "right"
    },
    {
      "midi": 73,
      "time": 101.75,
      "duration": 0.333,
      "velocity": 0.71,
      "hand": "right"
    },
    {
      "midi": 41,
      "time": 102,
      "duration": 0.5,
      "velocity": 0.48,
      "hand": "right"
    },
    {
      "midi": 72,
      "time": 102.5,
      "duration": 0.333,
      "velocity": 0.71,
      "hand": "right"
    },
    {
      "midi": 73,
      "time": 102.75,
      "duration": 0.333,
      "velocity": 0.71,
      "hand": "right"
    },
    {
      "midi": 72,
      "time": 103,
      "duration": 0.333,
      "velocity": 0.71,
      "hand": "right"
    },
    {
      "midi": 73,
      "time": 103.25,
      "duration": 0.333,
      "velocity": 0.71,
      "hand": "right"
    },
    {
      "midi": 75,
      "time": 103.5,
      "duration": 0.5,
      "velocity": 0.71,
      "hand": "right"
    },
    {
      "midi": 75,
      "time": 104,
      "duration": 0.5,
      "velocity": 0.71,
      "hand": "right"
    },
    {
      "midi": 75,
      "time": 104.5,
      "duration": 0.5,
      "velocity": 0.71,
      "hand": "right"
    },
    {
      "midi": 75,
      "time": 105,
      "duration": 0.5,
      "velocity": 0.71,
      "hand": "right"
    },
    {
      "midi": 77,
      "time": 105.5,
      "duration": 0.333,
      "velocity": 0.71,
      "hand": "right"
    },
    {
      "midi": 72,
      "time": 105.75,
      "duration": 0.333,
      "velocity": 0.71,
      "hand": "right"
    },
    {
      "midi": 75,
      "time": 106,
      "duration": 0.333,
      "velocity": 0.71,
      "hand": "right"
    },
    {
      "midi": 73,
      "time": 106.25,
      "duration": 0.333,
      "velocity": 0.71,
      "hand": "right"
    },
    {
      "midi": 70,
      "time": 106.5,
      "duration": 1,
      "velocity": 0.71,
      "hand": "right"
    },
    {
      "midi": 65,
      "time": 107,
      "duration": 0.5,
      "velocity": 0.48,
      "hand": "right"
    },
    {
      "midi": 61,
      "time": 107.5,
      "duration": 0.5,
      "velocity": 0.48,
      "hand": "right"
    },
    {
      "midi": 66,
      "time": 108,
      "duration": 0.5,
      "velocity": 0.48,
      "hand": "right"
    },
    {
      "midi": 65,
      "time": 108.5,
      "duration": 0.5,
      "velocity": 0.26,
      "hand": "right"
    },
    {
      "midi": 61,
      "time": 109,
      "duration": 0.5,
      "velocity": 0.26,
      "hand": "right"
    },
    {
      "midi": 58,
      "time": 109.5,
      "duration": 0.5,
      "velocity": 0.26,
      "hand": "right"
    },
    {
      "midi": 46,
      "time": 110,
      "duration": 0.5,
      "velocity": 0.26,
      "hand": "right"
    },
    {
      "midi": 44,
      "time": 110.5,
      "duration": 0.5,
      "velocity": 0.26,
      "hand": "right"
    },
    {
      "midi": 42,
      "time": 111,
      "duration": 0.5,
      "velocity": 0.26,
      "hand": "right"
    },
    {
      "midi": 49,
      "time": 111.5,
      "duration": 0.5,
      "velocity": 0.26,
      "hand": "right"
    },
    {
      "midi": 54,
      "time": 112,
      "duration": 0.5,
      "velocity": 0.26,
      "hand": "right"
    },
    {
      "midi": 78,
      "time": 112.5,
      "duration": 1,
      "velocity": 0.71,
      "hand": "right"
    },
    {
      "midi": 63,
      "time": 113,
      "duration": 0.5,
      "velocity": 0.26,
      "hand": "right"
    },
    {
      "midi": 78,
      "time": 113.5,
      "duration": 0.5,
      "velocity": 0.71,
      "hand": "right"
    },
    {
      "midi": 78,
      "time": 114,
      "duration": 4.5,
      "velocity": 0.71,
      "hand": "right"
    },
    {
      "midi": 63,
      "time": 114.5,
      "duration": 0.5,
      "velocity": 0.26,
      "hand": "right"
    },
    {
      "midi": 58,
      "time": 115,
      "duration": 0.5,
      "velocity": 0.26,
      "hand": "right"
    },
    {
      "midi": 61,
      "time": 115.5,
      "duration": 0.5,
      "velocity": 0.26,
      "hand": "right"
    },
    {
      "midi": 56,
      "time": 116,
      "duration": 0.5,
      "velocity": 0.26,
      "hand": "right"
    },
    {
      "midi": 58,
      "time": 116.5,
      "duration": 0.5,
      "velocity": 0.26,
      "hand": "right"
    },
    {
      "midi": 54,
      "time": 117,
      "duration": 0.5,
      "velocity": 0.26,
      "hand": "right"
    },
    {
      "midi": 51,
      "time": 117.5,
      "duration": 0.5,
      "velocity": 0.26,
      "hand": "right"
    },
    {
      "midi": 46,
      "time": 118,
      "duration": 0.5,
      "velocity": 0.26,
      "hand": "right"
    },
    {
      "midi": 78,
      "time": 118.5,
      "duration": 1,
      "velocity": 0.71,
      "hand": "right"
    },
    {
      "midi": 44,
      "time": 119,
      "duration": 0.5,
      "velocity": 0.26,
      "hand": "right"
    },
    {
      "midi": 78,
      "time": 119.5,
      "duration": 0.5,
      "velocity": 0.71,
      "hand": "right"
    },
    {
      "midi": 78,
      "time": 120,
      "duration": 1.5,
      "velocity": 0.71,
      "hand": "right"
    },
    {
      "midi": 63,
      "time": 120.5,
      "duration": 0.5,
      "velocity": 0.26,
      "hand": "right"
    },
    {
      "midi": 58,
      "time": 121,
      "duration": 0.5,
      "velocity": 0.26,
      "hand": "right"
    },
    {
      "midi": 77,
      "time": 121.5,
      "duration": 1.5,
      "velocity": 0.71,
      "hand": "right"
    },
    {
      "midi": 56,
      "time": 122,
      "duration": 0.5,
      "velocity": 0.26,
      "hand": "right"
    },
    {
      "midi": 58,
      "time": 122.5,
      "duration": 0.5,
      "velocity": 0.26,
      "hand": "right"
    },
    {
      "midi": 76,
      "time": 123,
      "duration": 1.5,
      "velocity": 0.71,
      "hand": "right"
    },
    {
      "midi": 47,
      "time": 123.5,
      "duration": 0.5,
      "velocity": 0.26,
      "hand": "right"
    },
    {
      "midi": 52,
      "time": 124,
      "duration": 0.5,
      "velocity": 0.26,
      "hand": "right"
    },
    {
      "midi": 76,
      "time": 124.5,
      "duration": 1,
      "velocity": 0.71,
      "hand": "right"
    },
    {
      "midi": 61,
      "time": 125,
      "duration": 0.5,
      "velocity": 0.26,
      "hand": "right"
    },
    {
      "midi": 76,
      "time": 125.5,
      "duration": 0.5,
      "velocity": 0.71,
      "hand": "right"
    },
    {
      "midi": 76,
      "time": 126,
      "duration": 4.5,
      "velocity": 0.71,
      "hand": "right"
    },
    {
      "midi": 61,
      "time": 126.5,
      "duration": 0.5,
      "velocity": 0.26,
      "hand": "right"
    },
    {
      "midi": 56,
      "time": 127,
      "duration": 0.5,
      "velocity": 0.26,
      "hand": "right"
    },
    {
      "midi": 59,
      "time": 127.5,
      "duration": 0.5,
      "velocity": 0.26,
      "hand": "right"
    },
    {
      "midi": 54,
      "time": 128,
      "duration": 0.5,
      "velocity": 0.26,
      "hand": "right"
    },
    {
      "midi": 56,
      "time": 128.5,
      "duration": 0.5,
      "velocity": 0.26,
      "hand": "right"
    },
    {
      "midi": 52,
      "time": 129,
      "duration": 0.5,
      "velocity": 0.26,
      "hand": "right"
    },
    {
      "midi": 49,
      "time": 129.5,
      "duration": 0.5,
      "velocity": 0.26,
      "hand": "right"
    },
    {
      "midi": 44,
      "time": 130,
      "duration": 0.5,
      "velocity": 0.26,
      "hand": "right"
    },
    {
      "midi": 76,
      "time": 130.5,
      "duration": 1,
      "velocity": 0.71,
      "hand": "right"
    },
    {
      "midi": 42,
      "time": 131,
      "duration": 0.5,
      "velocity": 0.26,
      "hand": "right"
    },
    {
      "midi": 76,
      "time": 131.5,
      "duration": 0.5,
      "velocity": 0.71,
      "hand": "right"
    },
    {
      "midi": 76,
      "time": 132,
      "duration": 1.5,
      "velocity": 0.71,
      "hand": "right"
    },
    {
      "midi": 61,
      "time": 132.5,
      "duration": 0.5,
      "velocity": 0.26,
      "hand": "right"
    },
    {
      "midi": 56,
      "time": 133,
      "duration": 0.5,
      "velocity": 0.26,
      "hand": "right"
    },
    {
      "midi": 75,
      "time": 133.5,
      "duration": 1.5,
      "velocity": 0.71,
      "hand": "right"
    },
    {
      "midi": 70,
      "time": 134,
      "duration": 0.5,
      "velocity": 0.71,
      "hand": "right"
    },
    {
      "midi": 71,
      "time": 134.5,
      "duration": 0.5,
      "velocity": 0.71,
      "hand": "right"
    },
    {
      "midi": 62,
      "time": 135,
      "duration": 0.5,
      "velocity": 0.71,
      "hand": "right"
    },
    {
      "midi": 74,
      "time": 135.5,
      "duration": 0.333,
      "velocity": 0.71,
      "hand": "right"
    },
    {
      "midi": 75,
      "time": 135.75,
      "duration": 0.333,
      "velocity": 0.71,
      "hand": "right"
    },
    {
      "midi": 74,
      "time": 136,
      "duration": 0.333,
      "velocity": 0.71,
      "hand": "right"
    },
    {
      "midi": 75,
      "time": 136.25,
      "duration": 0.333,
      "velocity": 0.71,
      "hand": "right"
    },
    {
      "midi": 77,
      "time": 136.5,
      "duration": 0.5,
      "velocity": 0.71,
      "hand": "right"
    },
    {
      "midi": 77,
      "time": 137,
      "duration": 0.5,
      "velocity": 0.71,
      "hand": "right"
    },
    {
      "midi": 77,
      "time": 137.5,
      "duration": 0.5,
      "velocity": 0.71,
      "hand": "right"
    },
    {
      "midi": 77,
      "time": 138,
      "duration": 0.5,
      "velocity": 0.71,
      "hand": "right"
    },
    {
      "midi": 78,
      "time": 138.5,
      "duration": 0.333,
      "velocity": 0.71,
      "hand": "right"
    },
    {
      "midi": 77,
      "time": 138.75,
      "duration": 0.333,
      "velocity": 0.71,
      "hand": "right"
    },
    {
      "midi": 75,
      "time": 139,
      "duration": 0.333,
      "velocity": 0.71,
      "hand": "right"
    },
    {
      "midi": 68,
      "time": 139.25,
      "duration": 0.333,
      "velocity": 0.71,
      "hand": "right"
    },
    {
      "midi": 83,
      "time": 139.5,
      "duration": 1.5,
      "velocity": 0.71,
      "hand": "right"
    },
    {
      "midi": 68,
      "time": 140,
      "duration": 0.5,
      "velocity": 0.26,
      "hand": "right"
    },
    {
      "midi": 63,
      "time": 140.5,
      "duration": 0.5,
      "velocity": 0.26,
      "hand": "right"
    },
    {
      "midi": 46,
      "time": 141,
      "duration": 0.5,
      "velocity": 0.26,
      "hand": "right"
    },
    {
      "midi": 74,
      "time": 141.5,
      "duration": 0.333,
      "velocity": 0.71,
      "hand": "right"
    },
    {
      "midi": 75,
      "time": 141.75,
      "duration": 0.333,
      "velocity": 0.71,
      "hand": "right"
    },
    {
      "midi": 74,
      "time": 142,
      "duration": 0.333,
      "velocity": 0.71,
      "hand": "right"
    },
    {
      "midi": 75,
      "time": 142.25,
      "duration": 0.333,
      "velocity": 0.71,
      "hand": "right"
    },
    {
      "midi": 77,
      "time": 142.5,
      "duration": 0.5,
      "velocity": 0.71,
      "hand": "right"
    },
    {
      "midi": 77,
      "time": 143,
      "duration": 0.5,
      "velocity": 0.71,
      "hand": "right"
    },
    {
      "midi": 77,
      "time": 143.5,
      "duration": 0.5,
      "velocity": 0.71,
      "hand": "right"
    },
    {
      "midi": 77,
      "time": 144,
      "duration": 0.5,
      "velocity": 0.71,
      "hand": "right"
    },
    {
      "midi": 78,
      "time": 144.5,
      "duration": 0.333,
      "velocity": 0.71,
      "hand": "right"
    },
    {
      "midi": 77,
      "time": 144.75,
      "duration": 0.333,
      "velocity": 0.71,
      "hand": "right"
    },
    {
      "midi": 75,
      "time": 145,
      "duration": 0.333,
      "velocity": 0.71,
      "hand": "right"
    },
    {
      "midi": 69,
      "time": 145.25,
      "duration": 0.333,
      "velocity": 0.71,
      "hand": "right"
    },
    {
      "midi": 84,
      "time": 145.5,
      "duration": 1.5,
      "velocity": 0.71,
      "hand": "right"
    },
    {
      "midi": 69,
      "time": 146,
      "duration": 0.5,
      "velocity": 0.26,
      "hand": "right"
    },
    {
      "midi": 63,
      "time": 146.5,
      "duration": 0.5,
      "velocity": 0.26,
      "hand": "right"
    },
    {
      "midi": 82,
      "time": 147,
      "duration": 1.5,
      "velocity": 0.71,
      "hand": "right"
    },
    {
      "midi": 68,
      "time": 147.5,
      "duration": 0.5,
      "velocity": 0.26,
      "hand": "right"
    },
    {
      "midi": 62,
      "time": 148,
      "duration": 0.5,
      "velocity": 0.26,
      "hand": "right"
    },
    {
      "midi": 79,
      "time": 148.5,
      "duration": 1.5,
      "velocity": 0.71,
      "hand": "right"
    },
    {
      "midi": 67,
      "time": 149,
      "duration": 0.5,
      "velocity": 0.26,
      "hand": "right"
    },
    {
      "midi": 61,
      "time": 149.5,
      "duration": 0.5,
      "velocity": 0.26,
      "hand": "right"
    },
    {
      "midi": 82,
      "time": 150,
      "duration": 0.5,
      "velocity": 0.71,
      "hand": "right"
    },
    {
      "midi": 80,
      "time": 150.5,
      "duration": 0.333,
      "velocity": 0.71,
      "hand": "right"
    },
    {
      "midi": 75,
      "time": 150.75,
      "duration": 0.333,
      "velocity": 0.71,
      "hand": "right"
    },
    {
      "midi": 80,
      "time": 151,
      "duration": 0.333,
      "velocity": 0.71,
      "hand": "right"
    },
    {
      "midi": 78,
      "time": 151.25,
      "duration": 0.333,
      "velocity": 0.71,
      "hand": "right"
    },
    {
      "midi": 78,
      "time": 151.5,
      "duration": 0.5,
      "velocity": 0.71,
      "hand": "right"
    },
    {
      "midi": 77,
      "time": 152,
      "duration": 1,
      "velocity": 0.71,
      "hand": "right"
    },
    {
      "midi": 68,
      "time": 152.25,
      "duration": 0.333,
      "velocity": 0.71,
      "hand": "right"
    },
    {
      "midi": 73,
      "time": 152.5,
      "duration": 0.333,
      "velocity": 0.71,
      "hand": "right"
    },
    {
      "midi": 72,
      "time": 152.75,
      "duration": 0.333,
      "velocity": 0.71,
      "hand": "right"
    },
    {
      "midi": 80,
      "time": 153,
      "duration": 0.5,
      "velocity": 0.71,
      "hand": "right"
    },
    {
      "midi": 78,
      "time": 153.5,
      "duration": 0.333,
      "velocity": 0.71,
      "hand": "right"
    },
    {
      "midi": 73,
      "time": 153.75,
      "duration": 0.333,
      "velocity": 0.71,
      "hand": "right"
    },
    {
      "midi": 78,
      "time": 154,
      "duration": 0.333,
      "velocity": 0.71,
      "hand": "right"
    },
    {
      "midi": 77,
      "time": 154.25,
      "duration": 0.333,
      "velocity": 0.71,
      "hand": "right"
    },
    {
      "midi": 77,
      "time": 154.5,
      "duration": 0.5,
      "velocity": 0.71,
      "hand": "right"
    },
    {
      "midi": 75,
      "time": 155,
      "duration": 0.333,
      "velocity": 0.71,
      "hand": "right"
    },
    {
      "midi": 77,
      "time": 155.25,
      "duration": 0.333,
      "velocity": 0.71,
      "hand": "right"
    },
    {
      "midi": 80,
      "time": 155.5,
      "duration": 0.333,
      "velocity": 0.71,
      "hand": "right"
    },
    {
      "midi": 78,
      "time": 155.75,
      "duration": 0.333,
      "velocity": 0.71,
      "hand": "right"
    },
    {
      "midi": 69,
      "time": 156,
      "duration": 0.5,
      "velocity": 0.71,
      "hand": "right"
    },
    {
      "midi": 72,
      "time": 156.5,
      "duration": 0.333,
      "velocity": 0.71,
      "hand": "right"
    },
    {
      "midi": 73,
      "time": 156.75,
      "duration": 0.333,
      "velocity": 0.71,
      "hand": "right"
    },
    {
      "midi": 72,
      "time": 157,
      "duration": 0.333,
      "velocity": 0.71,
      "hand": "right"
    },
    {
      "midi": 73,
      "time": 157.25,
      "duration": 0.333,
      "velocity": 0.71,
      "hand": "right"
    },
    {
      "midi": 75,
      "time": 157.5,
      "duration": 1,
      "velocity": 0.71,
      "hand": "right"
    },
    {
      "midi": 65,
      "time": 158,
      "duration": 1,
      "velocity": 0.71,
      "hand": "right"
    },
    {
      "midi": 73,
      "time": 158.5,
      "duration": 0.5,
      "velocity": 0.71,
      "hand": "right"
    },
    {
      "midi": 73,
      "time": 159,
      "duration": 0.5,
      "velocity": 0.71,
      "hand": "right"
    },
    {
      "midi": 73,
      "time": 159.5,
      "duration": 0.333,
      "velocity": 0.71,
      "hand": "right"
    },
    {
      "midi": 75,
      "time": 159.75,
      "duration": 0.333,
      "velocity": 0.71,
      "hand": "right"
    },
    {
      "midi": 73,
      "time": 160,
      "duration": 0.333,
      "velocity": 0.71,
      "hand": "right"
    },
    {
      "midi": 75,
      "time": 160.25,
      "duration": 0.333,
      "velocity": 0.71,
      "hand": "right"
    },
    {
      "midi": 76,
      "time": 160.5,
      "duration": 1,
      "velocity": 0.71,
      "hand": "right"
    },
    {
      "midi": 66,
      "time": 161,
      "duration": 1,
      "velocity": 0.71,
      "hand": "right"
    },
    {
      "midi": 75,
      "time": 161.5,
      "duration": 0.5,
      "velocity": 0.71,
      "hand": "right"
    },
    {
      "midi": 75,
      "time": 162,
      "duration": 0.5,
      "velocity": 0.71,
      "hand": "right"
    },
    {
      "midi": 75,
      "time": 162.5,
      "duration": 0.333,
      "velocity": 0.71,
      "hand": "right"
    },
    {
      "midi": 77,
      "time": 162.75,
      "duration": 0.333,
      "velocity": 0.71,
      "hand": "right"
    },
    {
      "midi": 75,
      "time": 163,
      "duration": 0.333,
      "velocity": 0.71,
      "hand": "right"
    },
    {
      "midi": 77,
      "time": 163.25,
      "duration": 0.333,
      "velocity": 0.71,
      "hand": "right"
    },
    {
      "midi": 78,
      "time": 163.5,
      "duration": 0.5,
      "velocity": 0.71,
      "hand": "right"
    },
    {
      "midi": 78,
      "time": 164,
      "duration": 0.5,
      "velocity": 0.71,
      "hand": "right"
    },
    {
      "midi": 78,
      "time": 164.5,
      "duration": 0.5,
      "velocity": 0.71,
      "hand": "right"
    },
    {
      "midi": 78,
      "time": 165,
      "duration": 2,
      "velocity": 0.71,
      "hand": "right"
    },
    {
      "midi": 41,
      "time": 166.5,
      "duration": 0.5,
      "velocity": 0.26,
      "hand": "right"
    },
    {
      "midi": 77,
      "time": 167,
      "duration": 0.333,
      "velocity": 0.71,
      "hand": "right"
    },
    {
      "midi": 72,
      "time": 167.25,
      "duration": 0.333,
      "velocity": 0.71,
      "hand": "right"
    },
    {
      "midi": 75,
      "time": 167.5,
      "duration": 0.333,
      "velocity": 0.71,
      "hand": "right"
    },
    {
      "midi": 73,
      "time": 167.75,
      "duration": 0.333,
      "velocity": 0.71,
      "hand": "right"
    },
    {
      "midi": 70,
      "time": 168,
      "duration": 1.5,
      "velocity": 0.71,
      "hand": "right"
    },
    {
      "midi": 65,
      "time": 168.5,
      "duration": 0.5,
      "velocity": 0.26,
      "hand": "right"
    },
    {
      "midi": 61,
      "time": 169,
      "duration": 0.5,
      "velocity": 0.26,
      "hand": "right"
    },
    {
      "midi": 67,
      "time": 169.5,
      "duration": 0.5,
      "velocity": 0.71,
      "hand": "right"
    },
    {
      "midi": 64,
      "time": 170,
      "duration": 0.5,
      "velocity": 0.26,
      "hand": "right"
    },
    {
      "midi": 60,
      "time": 170.5,
      "duration": 0.5,
      "velocity": 0.26,
      "hand": "right"
    },
    {
      "midi": 41,
      "time": 171,
      "duration": 0.5,
      "velocity": 0.26,
      "hand": "right"
    },
    {
      "midi": 68,
      "time": 171.25,
      "duration": 0.333,
      "velocity": 0.71,
      "hand": "right"
    },
    {
      "midi": 72,
      "time": 171.5,
      "duration": 0.5,
      "velocity": 0.71,
      "hand": "right"
    },
    {
      "midi": 67,
      "time": 171.75,
      "duration": 0.333,
      "velocity": 0.71,
      "hand": "right"
    },
    {
      "midi": 77,
      "time": 172,
      "duration": 0.5,
      "velocity": 0.71,
      "hand": "right"
    },
    {
      "midi": 65,
      "time": 172.25,
      "duration": 0.333,
      "velocity": 0.71,
      "hand": "right"
    },
    {
      "midi": 76,
      "time": 172.5,
      "duration": 0.5,
      "velocity": 0.71,
      "hand": "right"
    },
    {
      "midi": 68,
      "time": 172.75,
      "duration": 0.333,
      "velocity": 0.71,
      "hand": "right"
    },
    {
      "midi": 70,
      "time": 173,
      "duration": 0.5,
      "velocity": 0.71,
      "hand": "right"
    },
    {
      "midi": 65,
      "time": 173.25,
      "duration": 0.333,
      "velocity": 0.71,
      "hand": "right"
    },
    {
      "midi": 73,
      "time": 173.5,
      "duration": 1,
      "velocity": 0.71,
      "hand": "right"
    },
    {
      "midi": 70,
      "time": 173.75,
      "duration": 0.333,
      "velocity": 0.71,
      "hand": "right"
    },
    {
      "midi": 70,
      "time": 174,
      "duration": 0.333,
      "velocity": 0.71,
      "hand": "right"
    },
    {
      "midi": 68,
      "time": 174.25,
      "duration": 0.333,
      "velocity": 0.71,
      "hand": "right"
    },
    {
      "midi": 72,
      "time": 174.5,
      "duration": 0.5,
      "velocity": 0.71,
      "hand": "right"
    },
    {
      "midi": 67,
      "time": 174.75,
      "duration": 0.333,
      "velocity": 0.71,
      "hand": "right"
    },
    {
      "midi": 77,
      "time": 175,
      "duration": 0.5,
      "velocity": 0.71,
      "hand": "right"
    },
    {
      "midi": 65,
      "time": 175.25,
      "duration": 0.333,
      "velocity": 0.71,
      "hand": "right"
    },
    {
      "midi": 76,
      "time": 175.5,
      "duration": 0.5,
      "velocity": 0.71,
      "hand": "right"
    },
    {
      "midi": 72,
      "time": 175.75,
      "duration": 0.333,
      "velocity": 0.71,
      "hand": "right"
    },
    {
      "midi": 70,
      "time": 176,
      "duration": 0.5,
      "velocity": 0.71,
      "hand": "right"
    },
    {
      "midi": 68,
      "time": 176.25,
      "duration": 0.333,
      "velocity": 0.71,
      "hand": "right"
    },
    {
      "midi": 73,
      "time": 176.5,
      "duration": 0.5,
      "velocity": 0.71,
      "hand": "right"
    },
    {
      "midi": 70,
      "time": 176.75,
      "duration": 0.333,
      "velocity": 0.71,
      "hand": "right"
    },
    {
      "midi": 72,
      "time": 177,
      "duration": 0.5,
      "velocity": 0.71,
      "hand": "right"
    },
    {
      "midi": 68,
      "time": 177.25,
      "duration": 0.333,
      "velocity": 0.71,
      "hand": "right"
    },
    {
      "midi": 72,
      "time": 177.5,
      "duration": 0.333,
      "velocity": 0.71,
      "hand": "right"
    },
    {
      "midi": 73,
      "time": 177.75,
      "duration": 0.333,
      "velocity": 0.71,
      "hand": "right"
    },
    {
      "midi": 72,
      "time": 178,
      "duration": 0.333,
      "velocity": 0.71,
      "hand": "right"
    },
    {
      "midi": 73,
      "time": 178.25,
      "duration": 0.333,
      "velocity": 0.71,
      "hand": "right"
    },
    {
      "midi": 75,
      "time": 178.5,
      "duration": 0.5,
      "velocity": 0.71,
      "hand": "right"
    },
    {
      "midi": 70,
      "time": 178.75,
      "duration": 0.333,
      "velocity": 0.71,
      "hand": "right"
    },
    {
      "midi": 75,
      "time": 179,
      "duration": 0.5,
      "velocity": 0.71,
      "hand": "right"
    },
    {
      "midi": 68,
      "time": 179.25,
      "duration": 0.333,
      "velocity": 0.71,
      "hand": "right"
    },
    {
      "midi": 75,
      "time": 179.5,
      "duration": 0.5,
      "velocity": 0.71,
      "hand": "right"
    },
    {
      "midi": 67,
      "time": 179.75,
      "duration": 0.333,
      "velocity": 0.71,
      "hand": "right"
    },
    {
      "midi": 75,
      "time": 180,
      "duration": 0.5,
      "velocity": 0.71,
      "hand": "right"
    },
    {
      "midi": 65,
      "time": 180.25,
      "duration": 0.333,
      "velocity": 0.71,
      "hand": "right"
    },
    {
      "midi": 73,
      "time": 180.5,
      "duration": 0.333,
      "velocity": 0.71,
      "hand": "right"
    },
    {
      "midi": 72,
      "time": 180.75,
      "duration": 0.333,
      "velocity": 0.71,
      "hand": "right"
    },
    {
      "midi": 70,
      "time": 181,
      "duration": 0.333,
      "velocity": 0.71,
      "hand": "right"
    },
    {
      "midi": 72,
      "time": 181.25,
      "duration": 0.333,
      "velocity": 0.71,
      "hand": "right"
    },
    {
      "midi": 68,
      "time": 181.5,
      "duration": 0.5,
      "velocity": 0.71,
      "hand": "right"
    },
    {
      "midi": 63,
      "time": 181.75,
      "duration": 0.333,
      "velocity": 0.71,
      "hand": "right"
    },
    {
      "midi": 63,
      "time": 182,
      "duration": 0.333,
      "velocity": 0.71,
      "hand": "right"
    },
    {
      "midi": 62,
      "time": 182.25,
      "duration": 0.333,
      "velocity": 0.71,
      "hand": "right"
    },
    {
      "midi": 62,
      "time": 182.5,
      "duration": 0.333,
      "velocity": 0.71,
      "hand": "right"
    },
    {
      "midi": 61,
      "time": 182.75,
      "duration": 0.333,
      "velocity": 0.71,
      "hand": "right"
    },
    {
      "midi": 61,
      "time": 183,
      "duration": 0.333,
      "velocity": 0.71,
      "hand": "right"
    },
    {
      "midi": 60,
      "time": 183.25,
      "duration": 0.333,
      "velocity": 0.71,
      "hand": "right"
    },
    {
      "midi": 60,
      "time": 183.5,
      "duration": 0.333,
      "velocity": 0.71,
      "hand": "right"
    },
    {
      "midi": 65,
      "time": 183.75,
      "duration": 0.333,
      "velocity": 0.71,
      "hand": "right"
    },
    {
      "midi": 63,
      "time": 184,
      "duration": 0.333,
      "velocity": 0.71,
      "hand": "right"
    },
    {
      "midi": 70,
      "time": 184.25,
      "duration": 0.333,
      "velocity": 0.71,
      "hand": "right"
    },
    {
      "midi": 72,
      "time": 184.5,
      "duration": 0.5,
      "velocity": 0.71,
      "hand": "right"
    },
    {
      "midi": 63,
      "time": 184.75,
      "duration": 0.333,
      "velocity": 0.71,
      "hand": "right"
    },
    {
      "midi": 75,
      "time": 185,
      "duration": 0.5,
      "velocity": 0.71,
      "hand": "right"
    },
    {
      "midi": 70,
      "time": 185.25,
      "duration": 0.333,
      "velocity": 0.71,
      "hand": "right"
    },
    {
      "midi": 80,
      "time": 185.5,
      "duration": 0.5,
      "velocity": 0.71,
      "hand": "right"
    },
    {
      "midi": 68,
      "time": 185.75,
      "duration": 0.333,
      "velocity": 0.71,
      "hand": "right"
    },
    {
      "midi": 79,
      "time": 186,
      "duration": 0.5,
      "velocity": 0.71,
      "hand": "right"
    },
    {
      "midi": 75,
      "time": 186.25,
      "duration": 0.333,
      "velocity": 0.71,
      "hand": "right"
    },
    {
      "midi": 73,
      "time": 186.5,
      "duration": 0.5,
      "velocity": 0.71,
      "hand": "right"
    },
    {
      "midi": 72,
      "time": 186.75,
      "duration": 0.333,
      "velocity": 0.71,
      "hand": "right"
    },
    {
      "midi": 76,
      "time": 187,
      "duration": 1,
      "velocity": 0.71,
      "hand": "right"
    },
    {
      "midi": 73,
      "time": 187.25,
      "duration": 0.333,
      "velocity": 0.71,
      "hand": "right"
    },
    {
      "midi": 73,
      "time": 187.5,
      "duration": 0.333,
      "velocity": 0.71,
      "hand": "right"
    },
    {
      "midi": 72,
      "time": 187.75,
      "duration": 0.333,
      "velocity": 0.71,
      "hand": "right"
    },
    {
      "midi": 75,
      "time": 188,
      "duration": 0.5,
      "velocity": 0.71,
      "hand": "right"
    },
    {
      "midi": 73,
      "time": 188.25,
      "duration": 0.333,
      "velocity": 0.71,
      "hand": "right"
    },
    {
      "midi": 80,
      "time": 188.5,
      "duration": 0.5,
      "velocity": 0.71,
      "hand": "right"
    },
    {
      "midi": 72,
      "time": 188.75,
      "duration": 0.333,
      "velocity": 0.71,
      "hand": "right"
    },
    {
      "midi": 79,
      "time": 189,
      "duration": 0.5,
      "velocity": 0.71,
      "hand": "right"
    },
    {
      "midi": 75,
      "time": 189.25,
      "duration": 0.333,
      "velocity": 0.71,
      "hand": "right"
    },
    {
      "midi": 73,
      "time": 189.5,
      "duration": 0.5,
      "velocity": 0.71,
      "hand": "right"
    },
    {
      "midi": 72,
      "time": 189.75,
      "duration": 0.333,
      "velocity": 0.71,
      "hand": "right"
    },
    {
      "midi": 76,
      "time": 190,
      "duration": 0.5,
      "velocity": 0.71,
      "hand": "right"
    },
    {
      "midi": 73,
      "time": 190.25,
      "duration": 0.333,
      "velocity": 0.71,
      "hand": "right"
    },
    {
      "midi": 72,
      "time": 190.5,
      "duration": 0.333,
      "velocity": 0.71,
      "hand": "right"
    },
    {
      "midi": 73,
      "time": 190.75,
      "duration": 0.333,
      "velocity": 0.71,
      "hand": "right"
    },
    {
      "midi": 75,
      "time": 191,
      "duration": 0.333,
      "velocity": 0.71,
      "hand": "right"
    },
    {
      "midi": 77,
      "time": 191.25,
      "duration": 0.333,
      "velocity": 0.71,
      "hand": "right"
    },
    {
      "midi": 75,
      "time": 191.5,
      "duration": 0.333,
      "velocity": 0.71,
      "hand": "right"
    },
    {
      "midi": 77,
      "time": 191.75,
      "duration": 0.333,
      "velocity": 0.71,
      "hand": "right"
    },
    {
      "midi": 78,
      "time": 192,
      "duration": 0.5,
      "velocity": 0.71,
      "hand": "right"
    },
    {
      "midi": 77,
      "time": 192.25,
      "duration": 0.333,
      "velocity": 0.71,
      "hand": "right"
    },
    {
      "midi": 78,
      "time": 192.5,
      "duration": 0.5,
      "velocity": 0.71,
      "hand": "right"
    },
    {
      "midi": 73,
      "time": 192.75,
      "duration": 0.333,
      "velocity": 0.71,
      "hand": "right"
    },
    {
      "midi": 78,
      "time": 193,
      "duration": 0.5,
      "velocity": 0.71,
      "hand": "right"
    },
    {
      "midi": 70,
      "time": 193.25,
      "duration": 0.333,
      "velocity": 0.71,
      "hand": "right"
    },
    {
      "midi": 78,
      "time": 193.5,
      "duration": 0.5,
      "velocity": 0.71,
      "hand": "right"
    },
    {
      "midi": 53,
      "time": 193.75,
      "duration": 0.333,
      "velocity": 0.71,
      "hand": "right"
    },
    {
      "midi": 77,
      "time": 194,
      "duration": 0.333,
      "velocity": 0.48,
      "hand": "right"
    },
    {
      "midi": 72,
      "time": 194.25,
      "duration": 0.333,
      "velocity": 0.48,
      "hand": "right"
    },
    {
      "midi": 75,
      "time": 194.5,
      "duration": 0.333,
      "velocity": 0.48,
      "hand": "right"
    },
    {
      "midi": 73,
      "time": 194.75,
      "duration": 0.333,
      "velocity": 0.48,
      "hand": "right"
    },
    {
      "midi": 70,
      "time": 195,
      "duration": 1.25,
      "velocity": 0.48,
      "hand": "right"
    },
    {
      "midi": 63,
      "time": 195.25,
      "duration": 0.333,
      "velocity": 0.71,
      "hand": "right"
    },
    {
      "midi": 61,
      "time": 195.5,
      "duration": 0.333,
      "velocity": 0.71,
      "hand": "right"
    },
    {
      "midi": 66,
      "time": 195.75,
      "duration": 0.333,
      "velocity": 0.71,
      "hand": "right"
    },
    {
      "midi": 65,
      "time": 196,
      "duration": 0.333,
      "velocity": 0.71,
      "hand": "right"
    },
    {
      "midi": 72,
      "time": 196.25,
      "duration": 0.333,
      "velocity": 0.48,
      "hand": "right"
    },
    {
      "midi": 73,
      "time": 196.5,
      "duration": 0.5,
      "velocity": 0.48,
      "hand": "right"
    },
    {
      "midi": 65,
      "time": 196.75,
      "duration": 0.333,
      "velocity": 0.71,
      "hand": "right"
    },
    {
      "midi": 73,
      "time": 197,
      "duration": 0.333,
      "velocity": 0.48,
      "hand": "right"
    },
    {
      "midi": 75,
      "time": 197.25,
      "duration": 0.333,
      "velocity": 0.48,
      "hand": "right"
    },
    {
      "midi": 73,
      "time": 197.5,
      "duration": 0.333,
      "velocity": 0.48,
      "hand": "right"
    },
    {
      "midi": 75,
      "time": 197.75,
      "duration": 0.333,
      "velocity": 0.48,
      "hand": "right"
    },
    {
      "midi": 77,
      "time": 198,
      "duration": 0.5,
      "velocity": 0.48,
      "hand": "right"
    },
    {
      "midi": 72,
      "time": 198.25,
      "duration": 0.333,
      "velocity": 0.71,
      "hand": "right"
    },
    {
      "midi": 77,
      "time": 198.5,
      "duration": 0.5,
      "velocity": 0.48,
      "hand": "right"
    },
    {
      "midi": 68,
      "time": 198.75,
      "duration": 0.333,
      "velocity": 0.71,
      "hand": "right"
    },
    {
      "midi": 77,
      "time": 199,
      "duration": 0.5,
      "velocity": 0.48,
      "hand": "right"
    },
    {
      "midi": 65,
      "time": 199.25,
      "duration": 0.333,
      "velocity": 0.71,
      "hand": "right"
    },
    {
      "midi": 77,
      "time": 199.5,
      "duration": 0.5,
      "velocity": 0.48,
      "hand": "right"
    },
    {
      "midi": 73,
      "time": 199.75,
      "duration": 0.333,
      "velocity": 0.71,
      "hand": "right"
    },
    {
      "midi": 75,
      "time": 200,
      "duration": 0.333,
      "velocity": 0.48,
      "hand": "right"
    },
    {
      "midi": 70,
      "time": 200.25,
      "duration": 0.333,
      "velocity": 0.48,
      "hand": "right"
    },
    {
      "midi": 73,
      "time": 200.5,
      "duration": 0.333,
      "velocity": 0.48,
      "hand": "right"
    },
    {
      "midi": 72,
      "time": 200.75,
      "duration": 0.333,
      "velocity": 0.48,
      "hand": "right"
    },
    {
      "midi": 69,
      "time": 201,
      "duration": 0.333,
      "velocity": 0.48,
      "hand": "right"
    },
    {
      "midi": 66,
      "time": 201.25,
      "duration": 0.333,
      "velocity": 0.26,
      "hand": "right"
    },
    {
      "midi": 72,
      "time": 201.5,
      "duration": 0.5,
      "velocity": 0.48,
      "hand": "right"
    },
    {
      "midi": 64,
      "time": 201.75,
      "duration": 0.333,
      "velocity": 0.17,
      "hand": "right"
    },
    {
      "midi": 77,
      "time": 202,
      "duration": 0.5,
      "velocity": 0.48,
      "hand": "right"
    },
    {
      "midi": 60,
      "time": 202.25,
      "duration": 0.333,
      "velocity": 0.09,
      "hand": "right"
    },
    {
      "midi": 76,
      "time": 202.5,
      "duration": 0.5,
      "velocity": 0.48,
      "hand": "right"
    },
    {
      "midi": 58,
      "time": 202.75,
      "duration": 0.333,
      "velocity": 0.09,
      "hand": "right"
    },
    {
      "midi": 70,
      "time": 203,
      "duration": 0.5,
      "velocity": 0.48,
      "hand": "right"
    },
    {
      "midi": 54,
      "time": 203.25,
      "duration": 0.333,
      "velocity": 0.09,
      "hand": "right"
    },
    {
      "midi": 73,
      "time": 203.5,
      "duration": 0.5,
      "velocity": 0.48,
      "hand": "right"
    },
    {
      "midi": 58,
      "time": 203.75,
      "duration": 0.333,
      "velocity": 0.48,
      "hand": "right"
    },
    {
      "midi": 69,
      "time": 204,
      "duration": 0.333,
      "velocity": 0.48,
      "hand": "right"
    },
    {
      "midi": 66,
      "time": 204.25,
      "duration": 0.333,
      "velocity": 0.09,
      "hand": "right"
    },
    {
      "midi": 84,
      "time": 204.5,
      "duration": 0.5,
      "velocity": 0.48,
      "hand": "right"
    },
    {
      "midi": 64,
      "time": 204.75,
      "duration": 0.333,
      "velocity": 0.09,
      "hand": "right"
    },
    {
      "midi": 89,
      "time": 205,
      "duration": 0.5,
      "velocity": 0.48,
      "hand": "right"
    },
    {
      "midi": 60,
      "time": 205.25,
      "duration": 0.333,
      "velocity": 0.09,
      "hand": "right"
    },
    {
      "midi": 88,
      "time": 205.5,
      "duration": 0.5,
      "velocity": 0.48,
      "hand": "right"
    },
    {
      "midi": 58,
      "time": 205.75,
      "duration": 0.333,
      "velocity": 0.09,
      "hand": "right"
    },
    {
      "midi": 82,
      "time": 206,
      "duration": 0.5,
      "velocity": 0.48,
      "hand": "right"
    },
    {
      "midi": 69,
      "time": 206.25,
      "duration": 0.333,
      "velocity": 0.48,
      "hand": "right"
    },
    {
      "midi": 85,
      "time": 206.5,
      "duration": 0.5,
      "velocity": 0.48,
      "hand": "right"
    },
    {
      "midi": 70,
      "time": 206.75,
      "duration": 0.333,
      "velocity": 0.48,
      "hand": "right"
    },
    {
      "midi": 85,
      "time": 207,
      "duration": 0.333,
      "velocity": 0.71,
      "hand": "right"
    },
    {
      "midi": 84,
      "time": 207.25,
      "duration": 0.333,
      "velocity": 0.71,
      "hand": "right"
    },
    {
      "midi": 84,
      "time": 207.5,
      "duration": 0.333,
      "velocity": 0.71,
      "hand": "right"
    },
    {
      "midi": 85,
      "time": 207.75,
      "duration": 0.333,
      "velocity": 0.73,
      "hand": "right"
    },
    {
      "midi": 87,
      "time": 208,
      "duration": 0.333,
      "velocity": 0.75,
      "hand": "right"
    },
    {
      "midi": 89,
      "time": 208.25,
      "duration": 0.333,
      "velocity": 0.77,
      "hand": "right"
    },
    {
      "midi": 90,
      "time": 208.5,
      "duration": 0.5,
      "velocity": 0.8,
      "hand": "right"
    },
    {
      "midi": 58,
      "time": 208.75,
      "duration": 0.333,
      "velocity": 0.09,
      "hand": "right"
    },
    {
      "midi": 90,
      "time": 209,
      "duration": 0.5,
      "velocity": 0.84,
      "hand": "right"
    },
    {
      "midi": 54,
      "time": 209.25,
      "duration": 0.333,
      "velocity": 0.09,
      "hand": "right"
    },
    {
      "midi": 90,
      "time": 209.5,
      "duration": 0.5,
      "velocity": 0.89,
      "hand": "right"
    },
    {
      "midi": 48,
      "time": 209.75,
      "duration": 0.333,
      "velocity": 0.09,
      "hand": "right"
    },
    {
      "midi": 90,
      "time": 210,
      "duration": 0.5,
      "velocity": 0.93,
      "hand": "right"
    },
    {
      "midi": 63,
      "time": 210.5,
      "duration": 0.5,
      "velocity": 0.93,
      "hand": "right"
    },
    {
      "midi": 63,
      "time": 211,
      "duration": 0.5,
      "velocity": 0.93,
      "hand": "right"
    },
    {
      "midi": 63,
      "time": 211.5,
      "duration": 0.5,
      "velocity": 0.93,
      "hand": "right"
    },
    {
      "midi": 66,
      "time": 212,
      "duration": 0.5,
      "velocity": 0.93,
      "hand": "right"
    },
    {
      "midi": 66,
      "time": 212.5,
      "duration": 0.5,
      "velocity": 0.93,
      "hand": "right"
    },
    {
      "midi": 61,
      "time": 213,
      "duration": 0.5,
      "velocity": 0.93,
      "hand": "right"
    },
    {
      "midi": 64,
      "time": 213.5,
      "duration": 0.333,
      "velocity": 0.93,
      "hand": "right"
    },
    {
      "midi": 63,
      "time": 213.75,
      "duration": 0.333,
      "velocity": 0.93,
      "hand": "right"
    },
    {
      "midi": 68,
      "time": 214,
      "duration": 0.333,
      "velocity": 0.93,
      "hand": "right"
    },
    {
      "midi": 66,
      "time": 214.25,
      "duration": 0.333,
      "velocity": 0.93,
      "hand": "right"
    },
    {
      "midi": 71,
      "time": 214.5,
      "duration": 0.333,
      "velocity": 0.93,
      "hand": "right"
    },
    {
      "midi": 66,
      "time": 214.75,
      "duration": 0.333,
      "velocity": 0.93,
      "hand": "right"
    },
    {
      "midi": 66,
      "time": 215,
      "duration": 0.333,
      "velocity": 0.93,
      "hand": "right"
    },
    {
      "midi": 65,
      "time": 215.25,
      "duration": 0.333,
      "velocity": 0.93,
      "hand": "right"
    },
    {
      "midi": 69,
      "time": 215.5,
      "duration": 0.333,
      "velocity": 0.93,
      "hand": "right"
    },
    {
      "midi": 68,
      "time": 215.75,
      "duration": 0.333,
      "velocity": 0.93,
      "hand": "right"
    },
    {
      "midi": 73,
      "time": 216,
      "duration": 0.333,
      "velocity": 0.93,
      "hand": "right"
    },
    {
      "midi": 68,
      "time": 216.25,
      "duration": 0.333,
      "velocity": 0.93,
      "hand": "right"
    },
    {
      "midi": 68,
      "time": 216.5,
      "duration": 0.333,
      "velocity": 0.93,
      "hand": "right"
    },
    {
      "midi": 67,
      "time": 216.75,
      "duration": 0.333,
      "velocity": 0.93,
      "hand": "right"
    },
    {
      "midi": 71,
      "time": 217,
      "duration": 0.333,
      "velocity": 0.93,
      "hand": "right"
    },
    {
      "midi": 70,
      "time": 217.25,
      "duration": 0.333,
      "velocity": 0.93,
      "hand": "right"
    },
    {
      "midi": 75,
      "time": 217.5,
      "duration": 0.333,
      "velocity": 0.93,
      "hand": "right"
    },
    {
      "midi": 70,
      "time": 217.75,
      "duration": 0.333,
      "velocity": 0.93,
      "hand": "right"
    },
    {
      "midi": 70,
      "time": 218,
      "duration": 0.333,
      "velocity": 0.93,
      "hand": "right"
    },
    {
      "midi": 69,
      "time": 218.25,
      "duration": 0.333,
      "velocity": 0.93,
      "hand": "right"
    },
    {
      "midi": 73,
      "time": 218.5,
      "duration": 0.333,
      "velocity": 0.93,
      "hand": "right"
    },
    {
      "midi": 72,
      "time": 218.75,
      "duration": 0.333,
      "velocity": 0.93,
      "hand": "right"
    },
    {
      "midi": 78,
      "time": 219,
      "duration": 0.333,
      "velocity": 0.93,
      "hand": "right"
    },
    {
      "midi": 77,
      "time": 219.25,
      "duration": 0.333,
      "velocity": 0.93,
      "hand": "right"
    },
    {
      "midi": 82,
      "time": 219.5,
      "duration": 0.333,
      "velocity": 0.93,
      "hand": "right"
    },
    {
      "midi": 81,
      "time": 219.75,
      "duration": 0.333,
      "velocity": 0.93,
      "hand": "right"
    },
    {
      "midi": 85,
      "time": 220,
      "duration": 0.333,
      "velocity": 0.93,
      "hand": "right"
    },
    {
      "midi": 84,
      "time": 220.25,
      "duration": 0.333,
      "velocity": 0.93,
      "hand": "right"
    },
    {
      "midi": 89,
      "time": 220.5,
      "duration": 0.333,
      "velocity": 0.93,
      "hand": "right"
    },
    {
      "midi": 87,
      "time": 220.75,
      "duration": 0.333,
      "velocity": 0.93,
      "hand": "right"
    },
    {
      "midi": 90,
      "time": 221,
      "duration": 0.333,
      "velocity": 0.93,
      "hand": "right"
    },
    {
      "midi": 89,
      "time": 221.25,
      "duration": 0.333,
      "velocity": 0.93,
      "hand": "right"
    },
    {
      "midi": 91,
      "time": 221.5,
      "duration": 0.333,
      "velocity": 0.93,
      "hand": "right"
    },
    {
      "midi": 89,
      "time": 221.75,
      "duration": 0.333,
      "velocity": 0.93,
      "hand": "right"
    },
    {
      "midi": 90,
      "time": 222,
      "duration": 0.333,
      "velocity": 0.93,
      "hand": "right"
    },
    {
      "midi": 89,
      "time": 222.25,
      "duration": 0.333,
      "velocity": 0.93,
      "hand": "right"
    },
    {
      "midi": 91,
      "time": 222.5,
      "duration": 0.333,
      "velocity": 0.93,
      "hand": "right"
    },
    {
      "midi": 89,
      "time": 222.75,
      "duration": 0.333,
      "velocity": 0.93,
      "hand": "right"
    },
    {
      "midi": 90,
      "time": 223,
      "duration": 0.333,
      "velocity": 0.93,
      "hand": "right"
    },
    {
      "midi": 89,
      "time": 223.25,
      "duration": 0.333,
      "velocity": 0.93,
      "hand": "right"
    },
    {
      "midi": 91,
      "time": 223.5,
      "duration": 0.333,
      "velocity": 0.93,
      "hand": "right"
    },
    {
      "midi": 89,
      "time": 223.75,
      "duration": 0.333,
      "velocity": 0.93,
      "hand": "right"
    },
    {
      "midi": 90,
      "time": 224,
      "duration": 0.333,
      "velocity": 0.93,
      "hand": "right"
    },
    {
      "midi": 89,
      "time": 224.25,
      "duration": 0.333,
      "velocity": 0.93,
      "hand": "right"
    },
    {
      "midi": 91,
      "time": 224.5,
      "duration": 0.333,
      "velocity": 0.93,
      "hand": "right"
    },
    {
      "midi": 89,
      "time": 224.75,
      "duration": 0.333,
      "velocity": 0.93,
      "hand": "right"
    },
    {
      "midi": 88,
      "time": 225,
      "duration": 0.333,
      "velocity": 0.93,
      "hand": "right"
    },
    {
      "midi": 89,
      "time": 225.25,
      "duration": 0.333,
      "velocity": 0.93,
      "hand": "right"
    },
    {
      "midi": 101,
      "time": 225.5,
      "duration": 0.333,
      "velocity": 0.93,
      "hand": "right"
    },
    {
      "midi": 90,
      "time": 225.75,
      "duration": 0.333,
      "velocity": 0.93,
      "hand": "right"
    },
    {
      "midi": 101,
      "time": 226,
      "duration": 0.333,
      "velocity": 0.93,
      "hand": "right"
    },
    {
      "midi": 91,
      "time": 226.25,
      "duration": 0.333,
      "velocity": 0.93,
      "hand": "right"
    },
    {
      "midi": 92,
      "time": 226.5,
      "duration": 0.333,
      "velocity": 0.93,
      "hand": "right"
    },
    {
      "midi": 93,
      "time": 226.75,
      "duration": 0.333,
      "velocity": 0.93,
      "hand": "right"
    },
    {
      "midi": 98,
      "time": 227,
      "duration": 0.333,
      "velocity": 0.93,
      "hand": "right"
    },
    {
      "midi": 96,
      "time": 227.25,
      "duration": 0.333,
      "velocity": 0.93,
      "hand": "right"
    },
    {
      "midi": 94,
      "time": 227.5,
      "duration": 0.333,
      "velocity": 0.93,
      "hand": "right"
    },
    {
      "midi": 91,
      "time": 227.75,
      "duration": 0.333,
      "velocity": 0.93,
      "hand": "right"
    },
    {
      "midi": 89,
      "time": 228,
      "duration": 0.333,
      "velocity": 0.93,
      "hand": "right"
    },
    {
      "midi": 86,
      "time": 228.25,
      "duration": 0.333,
      "velocity": 0.93,
      "hand": "right"
    },
    {
      "midi": 87,
      "time": 228.5,
      "duration": 0.333,
      "velocity": 0.93,
      "hand": "right"
    },
    {
      "midi": 91,
      "time": 228.75,
      "duration": 0.333,
      "velocity": 0.93,
      "hand": "right"
    },
    {
      "midi": 89,
      "time": 229,
      "duration": 0.333,
      "velocity": 0.93,
      "hand": "right"
    },
    {
      "midi": 87,
      "time": 229.25,
      "duration": 0.333,
      "velocity": 0.93,
      "hand": "right"
    },
    {
      "midi": 84,
      "time": 229.5,
      "duration": 0.333,
      "velocity": 0.93,
      "hand": "right"
    },
    {
      "midi": 81,
      "time": 229.75,
      "duration": 0.333,
      "velocity": 0.93,
      "hand": "right"
    },
    {
      "midi": 82,
      "time": 230,
      "duration": 0.333,
      "velocity": 0.93,
      "hand": "right"
    },
    {
      "midi": 86,
      "time": 230.25,
      "duration": 0.333,
      "velocity": 0.93,
      "hand": "right"
    },
    {
      "midi": 84,
      "time": 230.5,
      "duration": 0.333,
      "velocity": 0.93,
      "hand": "right"
    },
    {
      "midi": 82,
      "time": 230.75,
      "duration": 0.333,
      "velocity": 0.93,
      "hand": "right"
    },
    {
      "midi": 79,
      "time": 231,
      "duration": 0.333,
      "velocity": 0.93,
      "hand": "right"
    },
    {
      "midi": 77,
      "time": 231.25,
      "duration": 0.333,
      "velocity": 0.93,
      "hand": "right"
    },
    {
      "midi": 74,
      "time": 231.5,
      "duration": 0.333,
      "velocity": 0.93,
      "hand": "right"
    },
    {
      "midi": 75,
      "time": 231.75,
      "duration": 0.333,
      "velocity": 0.93,
      "hand": "right"
    },
    {
      "midi": 79,
      "time": 232,
      "duration": 0.333,
      "velocity": 0.93,
      "hand": "right"
    },
    {
      "midi": 77,
      "time": 232.25,
      "duration": 0.333,
      "velocity": 0.93,
      "hand": "right"
    },
    {
      "midi": 75,
      "time": 232.5,
      "duration": 0.333,
      "velocity": 0.93,
      "hand": "right"
    },
    {
      "midi": 72,
      "time": 232.75,
      "duration": 0.333,
      "velocity": 0.93,
      "hand": "right"
    },
    {
      "midi": 69,
      "time": 233,
      "duration": 0.333,
      "velocity": 0.93,
      "hand": "right"
    },
    {
      "midi": 70,
      "time": 233.25,
      "duration": 0.333,
      "velocity": 0.93,
      "hand": "right"
    },
    {
      "midi": 74,
      "time": 233.5,
      "duration": 0.333,
      "velocity": 0.93,
      "hand": "right"
    },
    {
      "midi": 72,
      "time": 233.75,
      "duration": 0.333,
      "velocity": 0.93,
      "hand": "right"
    },
    {
      "midi": 70,
      "time": 234,
      "duration": 0.333,
      "velocity": 0.93,
      "hand": "right"
    },
    {
      "midi": 67,
      "time": 234.25,
      "duration": 0.333,
      "velocity": 0.93,
      "hand": "right"
    },
    {
      "midi": 65,
      "time": 234.5,
      "duration": 0.333,
      "velocity": 0.93,
      "hand": "right"
    },
    {
      "midi": 62,
      "time": 234.75,
      "duration": 0.333,
      "velocity": 0.93,
      "hand": "right"
    },
    {
      "midi": 63,
      "time": 235,
      "duration": 0.333,
      "velocity": 0.93,
      "hand": "right"
    },
    {
      "midi": 67,
      "time": 235.25,
      "duration": 0.333,
      "velocity": 0.93,
      "hand": "right"
    },
    {
      "midi": 65,
      "time": 235.5,
      "duration": 0.333,
      "velocity": 0.93,
      "hand": "right"
    },
    {
      "midi": 63,
      "time": 235.75,
      "duration": 0.333,
      "velocity": 0.93,
      "hand": "right"
    },
    {
      "midi": 60,
      "time": 236,
      "duration": 0.333,
      "velocity": 0.93,
      "hand": "right"
    },
    {
      "midi": 57,
      "time": 236.25,
      "duration": 0.333,
      "velocity": 0.93,
      "hand": "right"
    },
    {
      "midi": 60,
      "time": 236.5,
      "duration": 0.333,
      "velocity": 0.93,
      "hand": "right"
    },
    {
      "midi": 55,
      "time": 236.75,
      "duration": 0.333,
      "velocity": 0.93,
      "hand": "right"
    },
    {
      "midi": 53,
      "time": 237,
      "duration": 1.5,
      "velocity": 0.93,
      "hand": "right"
    },
    {
      "midi": 50,
      "time": 237.25,
      "duration": 0.333,
      "velocity": 0.09,
      "hand": "right"
    },
    {
      "midi": 48,
      "time": 237.5,
      "duration": 0.333,
      "velocity": 0.09,
      "hand": "right"
    },
    {
      "midi": 46,
      "time": 237.75,
      "duration": 0.333,
      "velocity": 0.09,
      "hand": "right"
    },
    {
      "midi": 62,
      "time": 238,
      "duration": 0.5,
      "velocity": 0.93,
      "hand": "right"
    },
    {
      "midi": 62,
      "time": 238.5,
      "duration": 1,
      "velocity": 0.93,
      "hand": "right"
    },
    {
      "midi": 62,
      "time": 239.5,
      "duration": 0.5,
      "velocity": 0.93,
      "hand": "right"
    },
    {
      "midi": 62,
      "time": 240,
      "duration": 1,
      "velocity": 0.93,
      "hand": "right"
    },
    {
      "midi": 70,
      "time": 241,
      "duration": 0.5,
      "velocity": 0.93,
      "hand": "right"
    },
    {
      "midi": 62,
      "time": 241.5,
      "duration": 1.5,
      "velocity": 0.71,
      "hand": "right"
    },
    {
      "midi": 56,
      "time": 242.5,
      "duration": 0.5,
      "velocity": 0.71,
      "hand": "right"
    },
    {
      "midi": 61,
      "time": 243,
      "duration": 1,
      "velocity": 0.93,
      "hand": "right"
    },
    {
      "midi": 69,
      "time": 244,
      "duration": 0.5,
      "velocity": 0.93,
      "hand": "right"
    },
    {
      "midi": 61,
      "time": 244.5,
      "duration": 1,
      "velocity": 0.93,
      "hand": "right"
    },
    {
      "midi": 60,
      "time": 245.5,
      "duration": 0.5,
      "velocity": 0.93,
      "hand": "right"
    },
    {
      "midi": 58,
      "time": 246,
      "duration": 1,
      "velocity": 0.93,
      "hand": "right"
    },
    {
      "midi": 63,
      "time": 247,
      "duration": 0.5,
      "velocity": 0.93,
      "hand": "right"
    },
    {
      "midi": 62,
      "time": 247.5,
      "duration": 1,
      "velocity": 0.93,
      "hand": "right"
    },
    {
      "midi": 60,
      "time": 248.5,
      "duration": 0.5,
      "velocity": 0.93,
      "hand": "right"
    },
    {
      "midi": 62,
      "time": 249,
      "duration": 0.5,
      "velocity": 0.93,
      "hand": "right"
    },
    {
      "midi": 74,
      "time": 250,
      "duration": 0.5,
      "velocity": 0.93,
      "hand": "right"
    },
    {
      "midi": 74,
      "time": 250.5,
      "duration": 1.5,
      "velocity": 0.93,
      "hand": "right"
    },
    {
      "midi": 70,
      "time": 252,
      "duration": 1,
      "velocity": 0.93,
      "hand": "right"
    },
    {
      "midi": 67,
      "time": 253,
      "duration": 0.333,
      "velocity": 0.93,
      "hand": "right"
    },
    {
      "midi": 58,
      "time": 253.25,
      "duration": 0.333,
      "velocity": 0.93,
      "hand": "right"
    },
    {
      "midi": 69,
      "time": 253.5,
      "duration": 0.333,
      "velocity": 0.93,
      "hand": "right"
    },
    {
      "midi": 65,
      "time": 254.5,
      "duration": 1,
      "velocity": 0.93,
      "hand": "right"
    },
    {
      "midi": 62,
      "time": 255,
      "duration": 0.5,
      "velocity": 0.93,
      "hand": "right"
    },
    {
      "midi": 74,
      "time": 256,
      "duration": 0.5,
      "velocity": 0.93,
      "hand": "right"
    },
    {
      "midi": 70,
      "time": 256.5,
      "duration": 1,
      "velocity": 0.93,
      "hand": "right"
    },
    {
      "midi": 79,
      "time": 257.5,
      "duration": 1,
      "velocity": 0.93,
      "hand": "right"
    },
    {
      "midi": 77,
      "time": 258.5,
      "duration": 0.5,
      "velocity": 0.93,
      "hand": "right"
    },
    {
      "midi": 76,
      "time": 259,
      "duration": 0.5,
      "velocity": 0.93,
      "hand": "right"
    },
    {
      "midi": 77,
      "time": 259.5,
      "duration": 2.5,
      "velocity": 0.93,
      "hand": "right"
    },
    {
      "midi": 46,
      "time": 260.5,
      "duration": 0.5,
      "velocity": 0.09,
      "hand": "right"
    },
    {
      "midi": 46,
      "time": 261,
      "duration": 0.5,
      "velocity": 0.09,
      "hand": "right"
    },
    {
      "midi": 70,
      "time": 262,
      "duration": 0.5,
      "velocity": 0.93,
      "hand": "right"
    },
    {
      "midi": 70,
      "time": 262.5,
      "duration": 1.5,
      "velocity": 0.71,
      "hand": "right"
    },
    {
      "midi": 67,
      "time": 263.5,
      "duration": 0.5,
      "velocity": 0.71,
      "hand": "right"
    },
    {
      "midi": 70,
      "time": 264,
      "duration": 1,
      "velocity": 0.93,
      "hand": "right"
    },
    {
      "midi": 75,
      "time": 265,
      "duration": 0.5,
      "velocity": 0.93,
      "hand": "right"
    },
    {
      "midi": 75,
      "time": 265.5,
      "duration": 1,
      "velocity": 0.93,
      "hand": "right"
    },
    {
      "midi": 67,
      "time": 266.5,
      "duration": 0.5,
      "velocity": 0.93,
      "hand": "right"
    },
    {
      "midi": 67,
      "time": 267,
      "duration": 1,
      "velocity": 0.93,
      "hand": "right"
    },
    {
      "midi": 70,
      "time": 268,
      "duration": 0.5,
      "velocity": 0.93,
      "hand": "right"
    },
    {
      "midi": 70,
      "time": 268.5,
      "duration": 1,
      "velocity": 0.93,
      "hand": "right"
    },
    {
      "midi": 72,
      "time": 269.5,
      "duration": 0.5,
      "velocity": 0.93,
      "hand": "right"
    },
    {
      "midi": 65,
      "time": 270,
      "duration": 4,
      "velocity": 0.71,
      "hand": "right"
    },
    {
      "midi": 57,
      "time": 270.5,
      "duration": 0.5,
      "velocity": 0.71,
      "hand": "right"
    },
    {
      "midi": 62,
      "time": 271,
      "duration": 0.5,
      "velocity": 0.71,
      "hand": "right"
    },
    {
      "midi": 60,
      "time": 271.5,
      "duration": 0.5,
      "velocity": 0.71,
      "hand": "right"
    },
    {
      "midi": 55,
      "time": 272,
      "duration": 0.5,
      "velocity": 0.71,
      "hand": "right"
    },
    {
      "midi": 57,
      "time": 272.5,
      "duration": 0.5,
      "velocity": 0.71,
      "hand": "right"
    },
    {
      "midi": 62,
      "time": 273,
      "duration": 1,
      "velocity": 0.71,
      "hand": "right"
    },
    {
      "midi": 53,
      "time": 273.5,
      "duration": 1,
      "velocity": 0.71,
      "hand": "right"
    },
    {
      "midi": 74,
      "time": 274,
      "duration": 0.5,
      "velocity": 0.71,
      "hand": "right"
    },
    {
      "midi": 74,
      "time": 274.5,
      "duration": 1,
      "velocity": 0.93,
      "hand": "right"
    },
    {
      "midi": 70,
      "time": 275.5,
      "duration": 0.5,
      "velocity": 0.93,
      "hand": "right"
    },
    {
      "midi": 70,
      "time": 276,
      "duration": 1,
      "velocity": 0.93,
      "hand": "right"
    },
    {
      "midi": 67,
      "time": 277,
      "duration": 0.333,
      "velocity": 0.93,
      "hand": "right"
    },
    {
      "midi": 58,
      "time": 277.25,
      "duration": 0.333,
      "velocity": 0.93,
      "hand": "right"
    },
    {
      "midi": 69,
      "time": 277.5,
      "duration": 0.333,
      "velocity": 0.93,
      "hand": "right"
    },
    {
      "midi": 65,
      "time": 278.5,
      "duration": 0.5,
      "velocity": 0.93,
      "hand": "right"
    },
    {
      "midi": 65,
      "time": 279,
      "duration": 1,
      "velocity": 0.93,
      "hand": "right"
    },
    {
      "midi": 74,
      "time": 280,
      "duration": 0.5,
      "velocity": 0.93,
      "hand": "right"
    },
    {
      "midi": 70,
      "time": 280.5,
      "duration": 1,
      "velocity": 0.93,
      "hand": "right"
    },
    {
      "midi": 79,
      "time": 281.5,
      "duration": 1,
      "velocity": 0.93,
      "hand": "right"
    },
    {
      "midi": 77,
      "time": 282.5,
      "duration": 0.5,
      "velocity": 0.93,
      "hand": "right"
    },
    {
      "midi": 76,
      "time": 283,
      "duration": 0.5,
      "velocity": 0.93,
      "hand": "right"
    },
    {
      "midi": 77,
      "time": 283.5,
      "duration": 2.5,
      "velocity": 0.93,
      "hand": "right"
    },
    {
      "midi": 46,
      "time": 284.5,
      "duration": 0.5,
      "velocity": 0.09,
      "hand": "right"
    },
    {
      "midi": 46,
      "time": 285,
      "duration": 0.5,
      "velocity": 0.09,
      "hand": "right"
    },
    {
      "midi": 70,
      "time": 286,
      "duration": 0.5,
      "velocity": 0.71,
      "hand": "right"
    },
    {
      "midi": 70,
      "time": 286.5,
      "duration": 2.5,
      "velocity": 0.71,
      "hand": "right"
    },
    {
      "midi": 67,
      "time": 287.5,
      "duration": 0.5,
      "velocity": 0.71,
      "hand": "right"
    },
    {
      "midi": 67,
      "time": 288,
      "duration": 1,
      "velocity": 0.71,
      "hand": "right"
    },
    {
      "midi": 75,
      "time": 289,
      "duration": 0.5,
      "velocity": 0.93,
      "hand": "right"
    },
    {
      "midi": 75,
      "time": 289.5,
      "duration": 2.5,
      "velocity": 0.93,
      "hand": "right"
    },
    {
      "midi": 67,
      "time": 292,
      "duration": 0.5,
      "velocity": 0.93,
      "hand": "right"
    },
    {
      "midi": 70,
      "time": 292.5,
      "duration": 1,
      "velocity": 0.93,
      "hand": "right"
    },
    {
      "midi": 72,
      "time": 293.5,
      "duration": 0.5,
      "velocity": 0.93,
      "hand": "right"
    },
    {
      "midi": 72,
      "time": 294,
      "duration": 1,
      "velocity": 0.93,
      "hand": "right"
    },
    {
      "midi": 70,
      "time": 295,
      "duration": 0.5,
      "velocity": 0.93,
      "hand": "right"
    },
    {
      "midi": 70,
      "time": 295.5,
      "duration": 1,
      "velocity": 0.93,
      "hand": "right"
    },
    {
      "midi": 62,
      "time": 296.5,
      "duration": 0.75,
      "velocity": 0.71,
      "hand": "right"
    },
    {
      "midi": 60,
      "time": 297,
      "duration": 1.5,
      "velocity": 0.71,
      "hand": "right"
    },
    {
      "midi": 63,
      "time": 297.25,
      "duration": 0.333,
      "velocity": 0.71,
      "hand": "right"
    },
    {
      "midi": 62,
      "time": 297.5,
      "duration": 0.333,
      "velocity": 0.71,
      "hand": "right"
    },
    {
      "midi": 69,
      "time": 297.75,
      "duration": 0.333,
      "velocity": 0.71,
      "hand": "right"
    },
    {
      "midi": 66,
      "time": 298,
      "duration": 0.333,
      "velocity": 0.71,
      "hand": "right"
    },
    {
      "midi": 63,
      "time": 298.25,
      "duration": 0.333,
      "velocity": 0.71,
      "hand": "right"
    },
    {
      "midi": 62,
      "time": 298.5,
      "duration": 0.333,
      "velocity": 0.71,
      "hand": "right"
    },
    {
      "midi": 63,
      "time": 298.75,
      "duration": 0.333,
      "velocity": 0.71,
      "hand": "right"
    },
    {
      "midi": 62,
      "time": 299,
      "duration": 0.333,
      "velocity": 0.71,
      "hand": "right"
    },
    {
      "midi": 70,
      "time": 299.25,
      "duration": 0.333,
      "velocity": 0.71,
      "hand": "right"
    },
    {
      "midi": 67,
      "time": 299.5,
      "duration": 0.333,
      "velocity": 0.71,
      "hand": "right"
    },
    {
      "midi": 63,
      "time": 299.75,
      "duration": 0.333,
      "velocity": 0.71,
      "hand": "right"
    },
    {
      "midi": 54,
      "time": 300,
      "duration": 0.333,
      "velocity": 0.93,
      "hand": "right"
    },
    {
      "midi": 63,
      "time": 300.25,
      "duration": 0.333,
      "velocity": 0.93,
      "hand": "right"
    },
    {
      "midi": 62,
      "time": 300.5,
      "duration": 0.333,
      "velocity": 0.93,
      "hand": "right"
    },
    {
      "midi": 66,
      "time": 300.75,
      "duration": 0.333,
      "velocity": 0.93,
      "hand": "right"
    },
    {
      "midi": 72,
      "time": 301,
      "duration": 0.333,
      "velocity": 0.93,
      "hand": "right"
    },
    {
      "midi": 74,
      "time": 301.25,
      "duration": 0.333,
      "velocity": 0.93,
      "hand": "right"
    },
    {
      "midi": 78,
      "time": 301.5,
      "duration": 0.333,
      "velocity": 0.93,
      "hand": "right"
    },
    {
      "midi": 84,
      "time": 301.75,
      "duration": 0.333,
      "velocity": 0.93,
      "hand": "right"
    },
    {
      "midi": 84,
      "time": 302,
      "duration": 0.333,
      "velocity": 0.93,
      "hand": "right"
    },
    {
      "midi": 93,
      "time": 302.25,
      "duration": 0.333,
      "velocity": 0.93,
      "hand": "right"
    },
    {
      "midi": 91,
      "time": 302.75,
      "duration": 0.333,
      "velocity": 0.93,
      "hand": "right"
    },
    {
      "midi": 81,
      "time": 303,
      "duration": 0.333,
      "velocity": 0.93,
      "hand": "right"
    },
    {
      "midi": 90,
      "time": 303.25,
      "duration": 0.333,
      "velocity": 0.93,
      "hand": "right"
    },
    {
      "midi": 87,
      "time": 303.5,
      "duration": 0.333,
      "velocity": 0.93,
      "hand": "right"
    },
    {
      "midi": 78,
      "time": 303.75,
      "duration": 0.333,
      "velocity": 0.93,
      "hand": "right"
    },
    {
      "midi": 86,
      "time": 304,
      "duration": 0.333,
      "velocity": 0.93,
      "hand": "right"
    },
    {
      "midi": 84,
      "time": 304.25,
      "duration": 0.333,
      "velocity": 0.93,
      "hand": "right"
    },
    {
      "midi": 74,
      "time": 304.5,
      "duration": 0.333,
      "velocity": 0.93,
      "hand": "right"
    },
    {
      "midi": 82,
      "time": 304.75,
      "duration": 0.333,
      "velocity": 0.93,
      "hand": "right"
    },
    {
      "midi": 81,
      "time": 305,
      "duration": 0.333,
      "velocity": 0.93,
      "hand": "right"
    },
    {
      "midi": 75,
      "time": 305.25,
      "duration": 0.333,
      "velocity": 0.93,
      "hand": "right"
    },
    {
      "midi": 84,
      "time": 305.5,
      "duration": 0.333,
      "velocity": 0.93,
      "hand": "right"
    },
    {
      "midi": 82,
      "time": 305.75,
      "duration": 0.333,
      "velocity": 0.93,
      "hand": "right"
    },
    {
      "midi": 72,
      "time": 306,
      "duration": 0.333,
      "velocity": 0.93,
      "hand": "right"
    },
    {
      "midi": 81,
      "time": 306.25,
      "duration": 0.333,
      "velocity": 0.93,
      "hand": "right"
    },
    {
      "midi": 82,
      "time": 306.5,
      "duration": 0.333,
      "velocity": 0.93,
      "hand": "right"
    },
    {
      "midi": 78,
      "time": 306.75,
      "duration": 0.333,
      "velocity": 0.93,
      "hand": "right"
    },
    {
      "midi": 81,
      "time": 307,
      "duration": 0.333,
      "velocity": 0.93,
      "hand": "right"
    },
    {
      "midi": 66,
      "time": 307.25,
      "duration": 0.333,
      "velocity": 0.09,
      "hand": "right"
    },
    {
      "midi": 79,
      "time": 307.5,
      "duration": 0.333,
      "velocity": 0.93,
      "hand": "right"
    },
    {
      "midi": 66,
      "time": 307.75,
      "duration": 0.333,
      "velocity": 0.71,
      "hand": "right"
    },
    {
      "midi": 66,
      "time": 308,
      "duration": 0.333,
      "velocity": 0.71,
      "hand": "right"
    },
    {
      "midi": 65,
      "time": 308.25,
      "duration": 0.333,
      "velocity": 0.71,
      "hand": "right"
    },
    {
      "midi": 65,
      "time": 308.5,
      "duration": 0.333,
      "velocity": 0.71,
      "hand": "right"
    },
    {
      "midi": 64,
      "time": 308.75,
      "duration": 0.5,
      "velocity": 0.71,
      "hand": "right"
    },
    {
      "midi": 62,
      "time": 309,
      "duration": 1.5,
      "velocity": 0.71,
      "hand": "right"
    },
    {
      "midi": 65,
      "time": 309.25,
      "duration": 0.333,
      "velocity": 0.71,
      "hand": "right"
    },
    {
      "midi": 64,
      "time": 309.5,
      "duration": 0.333,
      "velocity": 0.71,
      "hand": "right"
    },
    {
      "midi": 71,
      "time": 309.75,
      "duration": 0.333,
      "velocity": 0.71,
      "hand": "right"
    },
    {
      "midi": 68,
      "time": 310,
      "duration": 0.333,
      "velocity": 0.71,
      "hand": "right"
    },
    {
      "midi": 65,
      "time": 310.25,
      "duration": 0.333,
      "velocity": 0.71,
      "hand": "right"
    },
    {
      "midi": 64,
      "time": 310.5,
      "duration": 0.333,
      "velocity": 0.71,
      "hand": "right"
    },
    {
      "midi": 65,
      "time": 310.75,
      "duration": 0.333,
      "velocity": 0.71,
      "hand": "right"
    },
    {
      "midi": 64,
      "time": 311,
      "duration": 0.333,
      "velocity": 0.71,
      "hand": "right"
    },
    {
      "midi": 72,
      "time": 311.25,
      "duration": 0.333,
      "velocity": 0.71,
      "hand": "right"
    },
    {
      "midi": 69,
      "time": 311.5,
      "duration": 0.333,
      "velocity": 0.71,
      "hand": "right"
    },
    {
      "midi": 65,
      "time": 311.75,
      "duration": 0.333,
      "velocity": 0.71,
      "hand": "right"
    },
    {
      "midi": 56,
      "time": 312,
      "duration": 0.333,
      "velocity": 0.93,
      "hand": "right"
    },
    {
      "midi": 65,
      "time": 312.25,
      "duration": 0.333,
      "velocity": 0.93,
      "hand": "right"
    },
    {
      "midi": 64,
      "time": 312.5,
      "duration": 0.333,
      "velocity": 0.93,
      "hand": "right"
    },
    {
      "midi": 68,
      "time": 312.75,
      "duration": 0.333,
      "velocity": 0.93,
      "hand": "right"
    },
    {
      "midi": 74,
      "time": 313,
      "duration": 0.333,
      "velocity": 0.93,
      "hand": "right"
    },
    {
      "midi": 76,
      "time": 313.25,
      "duration": 0.333,
      "velocity": 0.93,
      "hand": "right"
    },
    {
      "midi": 80,
      "time": 313.5,
      "duration": 0.333,
      "velocity": 0.93,
      "hand": "right"
    },
    {
      "midi": 86,
      "time": 313.75,
      "duration": 0.333,
      "velocity": 0.93,
      "hand": "right"
    },
    {
      "midi": 86,
      "time": 314,
      "duration": 0.333,
      "velocity": 0.93,
      "hand": "right"
    },
    {
      "midi": 95,
      "time": 314.25,
      "duration": 0.333,
      "velocity": 0.93,
      "hand": "right"
    },
    {
      "midi": 93,
      "time": 314.75,
      "duration": 0.333,
      "velocity": 0.93,
      "hand": "right"
    },
    {
      "midi": 84,
      "time": 315,
      "duration": 0.333,
      "velocity": 0.93,
      "hand": "right"
    },
    {
      "midi": 93,
      "time": 315.25,
      "duration": 0.333,
      "velocity": 0.93,
      "hand": "right"
    },
    {
      "midi": 92,
      "time": 315.5,
      "duration": 0.333,
      "velocity": 0.93,
      "hand": "right"
    },
    {
      "midi": 81,
      "time": 315.75,
      "duration": 0.333,
      "velocity": 0.93,
      "hand": "right"
    },
    {
      "midi": 89,
      "time": 316,
      "duration": 0.333,
      "velocity": 0.93,
      "hand": "right"
    },
    {
      "midi": 88,
      "time": 316.25,
      "duration": 0.333,
      "velocity": 0.93,
      "hand": "right"
    },
    {
      "midi": 77,
      "time": 316.5,
      "duration": 0.333,
      "velocity": 0.93,
      "hand": "right"
    },
    {
      "midi": 86,
      "time": 316.75,
      "duration": 0.333,
      "velocity": 0.93,
      "hand": "right"
    },
    {
      "midi": 84,
      "time": 317,
      "duration": 0.333,
      "velocity": 0.93,
      "hand": "right"
    },
    {
      "midi": 83,
      "time": 317.25,
      "duration": 0.333,
      "velocity": 0.93,
      "hand": "right"
    },
    {
      "midi": 86,
      "time": 317.5,
      "duration": 0.333,
      "velocity": 0.93,
      "hand": "right"
    },
    {
      "midi": 84,
      "time": 317.75,
      "duration": 0.333,
      "velocity": 0.93,
      "hand": "right"
    },
    {
      "midi": 74,
      "time": 318,
      "duration": 0.333,
      "velocity": 0.93,
      "hand": "right"
    },
    {
      "midi": 83,
      "time": 318.25,
      "duration": 0.333,
      "velocity": 0.93,
      "hand": "right"
    },
    {
      "midi": 84,
      "time": 318.5,
      "duration": 0.333,
      "velocity": 0.93,
      "hand": "right"
    },
    {
      "midi": 80,
      "time": 318.75,
      "duration": 0.333,
      "velocity": 0.93,
      "hand": "right"
    },
    {
      "midi": 83,
      "time": 319,
      "duration": 0.333,
      "velocity": 0.93,
      "hand": "right"
    },
    {
      "midi": 81,
      "time": 319.25,
      "duration": 0.5,
      "velocity": 0.93,
      "hand": "right"
    },
    {
      "midi": 69,
      "time": 319.5,
      "duration": 0.5,
      "velocity": 0.09,
      "hand": "right"
    },
    {
      "midi": 81,
      "time": 319.75,
      "duration": 0.5,
      "velocity": 0.93,
      "hand": "right"
    },
    {
      "midi": 64,
      "time": 320,
      "duration": 0.5,
      "velocity": 0.71,
      "hand": "right"
    },
    {
      "midi": 81,
      "time": 320.25,
      "duration": 0.5,
      "velocity": 0.93,
      "hand": "right"
    },
    {
      "midi": 63,
      "time": 320.5,
      "duration": 0.5,
      "velocity": 0.71,
      "hand": "right"
    },
    {
      "midi": 81,
      "time": 320.75,
      "duration": 0.5,
      "velocity": 0.93,
      "hand": "right"
    },
    {
      "midi": 62,
      "time": 321,
      "duration": 3,
      "velocity": 0.71,
      "hand": "right"
    },
    {
      "midi": 82,
      "time": 321.25,
      "duration": 0.5,
      "velocity": 0.93,
      "hand": "right"
    },
    {
      "midi": 81,
      "time": 321.75,
      "duration": 0.5,
      "velocity": 0.93,
      "hand": "right"
    },
    {
      "midi": 54,
      "time": 322,
      "duration": 0.5,
      "velocity": 0.71,
      "hand": "right"
    },
    {
      "midi": 84,
      "time": 322.25,
      "duration": 0.5,
      "velocity": 0.93,
      "hand": "right"
    },
    {
      "midi": 55,
      "time": 322.5,
      "duration": 0.5,
      "velocity": 0.71,
      "hand": "right"
    },
    {
      "midi": 82,
      "time": 322.75,
      "duration": 0.5,
      "velocity": 0.93,
      "hand": "right"
    },
    {
      "midi": 57,
      "time": 323,
      "duration": 0.5,
      "velocity": 0.71,
      "hand": "right"
    },
    {
      "midi": 78,
      "time": 323.25,
      "duration": 0.333,
      "velocity": 0.93,
      "hand": "right"
    },
    {
      "midi": 79,
      "time": 323.5,
      "duration": 0.333,
      "velocity": 0.93,
      "hand": "right"
    },
    {
      "midi": 82,
      "time": 323.75,
      "duration": 0.5,
      "velocity": 0.93,
      "hand": "right"
    },
    {
      "midi": 38,
      "time": 324,
      "duration": 0.5,
      "velocity": 0.71,
      "hand": "right"
    },
    {
      "midi": 81,
      "time": 324.25,
      "duration": 0.5,
      "velocity": 0.93,
      "hand": "right"
    },
    {
      "midi": 62,
      "time": 324.5,
      "duration": 1.5,
      "velocity": 0.71,
      "hand": "right"
    },
    {
      "midi": 82,
      "time": 324.75,
      "duration": 0.333,
      "velocity": 0.93,
      "hand": "right"
    },
    {
      "midi": 78,
      "time": 325,
      "duration": 0.333,
      "velocity": 0.93,
      "hand": "right"
    },
    {
      "midi": 81,
      "time": 325.25,
      "duration": 0.5,
      "velocity": 0.93,
      "hand": "right"
    },
    {
      "midi": 55,
      "time": 325.5,
      "duration": 0.5,
      "velocity": 0.71,
      "hand": "right"
    },
    {
      "midi": 79,
      "time": 325.75,
      "duration": 0.333,
      "velocity": 0.93,
      "hand": "right"
    },
    {
      "midi": 81,
      "time": 326,
      "duration": 0.333,
      "velocity": 0.93,
      "hand": "right"
    },
    {
      "midi": 78,
      "time": 326.25,
      "duration": 0.5,
      "velocity": 0.93,
      "hand": "right"
    },
    {
      "midi": 61,
      "time": 326.5,
      "duration": 0.5,
      "velocity": 0.82,
      "hand": "right"
    },
    {
      "midi": 79,
      "time": 326.75,
      "duration": 0.5,
      "velocity": 0.93,
      "hand": "right"
    },
    {
      "midi": 60,
      "time": 327,
      "duration": 3,
      "velocity": 0.93,
      "hand": "right"
    },
    {
      "midi": 80,
      "time": 327.25,
      "duration": 0.5,
      "velocity": 0.93,
      "hand": "right"
    },
    {
      "midi": 79,
      "time": 327.75,
      "duration": 0.5,
      "velocity": 0.93,
      "hand": "right"
    },
    {
      "midi": 52,
      "time": 328,
      "duration": 0.5,
      "velocity": 0.93,
      "hand": "right"
    },
    {
      "midi": 82,
      "time": 328.25,
      "duration": 0.5,
      "velocity": 0.93,
      "hand": "right"
    },
    {
      "midi": 53,
      "time": 328.5,
      "duration": 0.5,
      "velocity": 0.93,
      "hand": "right"
    },
    {
      "midi": 80,
      "time": 328.75,
      "duration": 0.5,
      "velocity": 0.93,
      "hand": "right"
    },
    {
      "midi": 55,
      "time": 329,
      "duration": 0.5,
      "velocity": 0.93,
      "hand": "right"
    },
    {
      "midi": 76,
      "time": 329.25,
      "duration": 0.333,
      "velocity": 0.93,
      "hand": "right"
    },
    {
      "midi": 77,
      "time": 329.5,
      "duration": 0.333,
      "velocity": 0.93,
      "hand": "right"
    },
    {
      "midi": 80,
      "time": 329.75,
      "duration": 0.5,
      "velocity": 0.93,
      "hand": "right"
    },
    {
      "midi": 36,
      "time": 330,
      "duration": 0.5,
      "velocity": 0.93,
      "hand": "right"
    },
    {
      "midi": 79,
      "time": 330.25,
      "duration": 0.5,
      "velocity": 0.93,
      "hand": "right"
    },
    {
      "midi": 60,
      "time": 330.5,
      "duration": 1.5,
      "velocity": 0.71,
      "hand": "right"
    },
    {
      "midi": 80,
      "time": 330.75,
      "duration": 0.333,
      "velocity": 0.93,
      "hand": "right"
    },
    {
      "midi": 76,
      "time": 331,
      "duration": 0.333,
      "velocity": 0.93,
      "hand": "right"
    },
    {
      "midi": 79,
      "time": 331.25,
      "duration": 0.333,
      "velocity": 0.93,
      "hand": "right"
    },
    {
      "midi": 79,
      "time": 331.5,
      "duration": 0.333,
      "velocity": 0.93,
      "hand": "right"
    },
    {
      "midi": 77,
      "time": 331.75,
      "duration": 0.333,
      "velocity": 0.93,
      "hand": "right"
    },
    {
      "midi": 79,
      "time": 332,
      "duration": 0.333,
      "velocity": 0.93,
      "hand": "right"
    },
    {
      "midi": 76,
      "time": 332.25,
      "duration": 0.5,
      "velocity": 0.93,
      "hand": "right"
    },
    {
      "midi": 65,
      "time": 332.5,
      "duration": 0.5,
      "velocity": 0.93,
      "hand": "right"
    },
    {
      "midi": 77,
      "time": 332.75,
      "duration": 0.333,
      "velocity": 0.93,
      "hand": "right"
    },
    {
      "midi": 77,
      "time": 333,
      "duration": 0.333,
      "velocity": 0.93,
      "hand": "right"
    },
    {
      "midi": 78,
      "time": 333.25,
      "duration": 0.5,
      "velocity": 0.93,
      "hand": "right"
    },
    {
      "midi": 56,
      "time": 333.5,
      "duration": 0.5,
      "velocity": 0.09,
      "hand": "right"
    },
    {
      "midi": 77,
      "time": 333.75,
      "duration": 0.333,
      "velocity": 0.93,
      "hand": "right"
    },
    {
      "midi": 75,
      "time": 334,
      "duration": 0.333,
      "velocity": 0.93,
      "hand": "right"
    },
    {
      "midi": 78,
      "time": 334.25,
      "duration": 0.333,
      "velocity": 0.93,
      "hand": "right"
    },
    {
      "midi": 77,
      "time": 334.5,
      "duration": 0.333,
      "velocity": 0.93,
      "hand": "right"
    },
    {
      "midi": 78,
      "time": 334.75,
      "duration": 0.333,
      "velocity": 0.93,
      "hand": "right"
    },
    {
      "midi": 77,
      "time": 335,
      "duration": 0.333,
      "velocity": 0.93,
      "hand": "right"
    },
    {
      "midi": 72,
      "time": 335.25,
      "duration": 0.333,
      "velocity": 0.93,
      "hand": "right"
    },
    {
      "midi": 73,
      "time": 335.5,
      "duration": 0.333,
      "velocity": 0.93,
      "hand": "right"
    },
    {
      "midi": 77,
      "time": 335.75,
      "duration": 0.333,
      "velocity": 0.93,
      "hand": "right"
    },
    {
      "midi": 75,
      "time": 336,
      "duration": 0.333,
      "velocity": 0.93,
      "hand": "right"
    },
    {
      "midi": 77,
      "time": 336.25,
      "duration": 0.333,
      "velocity": 0.93,
      "hand": "right"
    },
    {
      "midi": 75,
      "time": 336.5,
      "duration": 0.333,
      "velocity": 0.93,
      "hand": "right"
    },
    {
      "midi": 77,
      "time": 336.75,
      "duration": 0.333,
      "velocity": 0.93,
      "hand": "right"
    },
    {
      "midi": 73,
      "time": 337,
      "duration": 0.333,
      "velocity": 0.93,
      "hand": "right"
    },
    {
      "midi": 75,
      "time": 337.25,
      "duration": 0.333,
      "velocity": 0.93,
      "hand": "right"
    },
    {
      "midi": 72,
      "time": 337.5,
      "duration": 0.333,
      "velocity": 0.93,
      "hand": "right"
    },
    {
      "midi": 73,
      "time": 337.75,
      "duration": 0.333,
      "velocity": 0.93,
      "hand": "right"
    },
    {
      "midi": 70,
      "time": 338,
      "duration": 0.333,
      "velocity": 0.93,
      "hand": "right"
    },
    {
      "midi": 72,
      "time": 338.25,
      "duration": 0.333,
      "velocity": 0.93,
      "hand": "right"
    },
    {
      "midi": 68,
      "time": 338.5,
      "duration": 0.333,
      "velocity": 0.93,
      "hand": "right"
    },
    {
      "midi": 89,
      "time": 339,
      "duration": 0.333,
      "velocity": 0.93,
      "hand": "right"
    },
    {
      "midi": 90,
      "time": 339.25,
      "duration": 0.5,
      "velocity": 0.93,
      "hand": "right"
    },
    {
      "midi": 68,
      "time": 339.5,
      "duration": 0.5,
      "velocity": 0.09,
      "hand": "right"
    },
    {
      "midi": 89,
      "time": 339.75,
      "duration": 0.333,
      "velocity": 0.93,
      "hand": "right"
    },
    {
      "midi": 87,
      "time": 340,
      "duration": 0.333,
      "velocity": 0.93,
      "hand": "right"
    },
    {
      "midi": 90,
      "time": 340.25,
      "duration": 0.333,
      "velocity": 0.93,
      "hand": "right"
    },
    {
      "midi": 89,
      "time": 340.5,
      "duration": 0.333,
      "velocity": 0.93,
      "hand": "right"
    },
    {
      "midi": 90,
      "time": 340.75,
      "duration": 0.333,
      "velocity": 0.93,
      "hand": "right"
    },
    {
      "midi": 89,
      "time": 341,
      "duration": 0.333,
      "velocity": 0.93,
      "hand": "right"
    },
    {
      "midi": 84,
      "time": 341.25,
      "duration": 0.333,
      "velocity": 0.93,
      "hand": "right"
    },
    {
      "midi": 85,
      "time": 341.5,
      "duration": 0.333,
      "velocity": 0.93,
      "hand": "right"
    },
    {
      "midi": 89,
      "time": 341.75,
      "duration": 0.333,
      "velocity": 0.93,
      "hand": "right"
    },
    {
      "midi": 87,
      "time": 342,
      "duration": 0.333,
      "velocity": 0.93,
      "hand": "right"
    },
    {
      "midi": 89,
      "time": 342.25,
      "duration": 0.333,
      "velocity": 0.93,
      "hand": "right"
    },
    {
      "midi": 87,
      "time": 342.5,
      "duration": 0.333,
      "velocity": 0.93,
      "hand": "right"
    },
    {
      "midi": 89,
      "time": 342.75,
      "duration": 0.333,
      "velocity": 0.93,
      "hand": "right"
    },
    {
      "midi": 85,
      "time": 343,
      "duration": 0.333,
      "velocity": 0.93,
      "hand": "right"
    },
    {
      "midi": 87,
      "time": 343.25,
      "duration": 0.333,
      "velocity": 0.93,
      "hand": "right"
    },
    {
      "midi": 84,
      "time": 343.5,
      "duration": 0.333,
      "velocity": 0.93,
      "hand": "right"
    },
    {
      "midi": 85,
      "time": 343.75,
      "duration": 0.333,
      "velocity": 0.93,
      "hand": "right"
    },
    {
      "midi": 82,
      "time": 344,
      "duration": 0.333,
      "velocity": 0.93,
      "hand": "right"
    },
    {
      "midi": 84,
      "time": 344.25,
      "duration": 0.333,
      "velocity": 0.93,
      "hand": "right"
    },
    {
      "midi": 80,
      "time": 344.5,
      "duration": 0.333,
      "velocity": 0.93,
      "hand": "right"
    },
    {
      "midi": 89,
      "time": 344.75,
      "duration": 0.333,
      "velocity": 0.93,
      "hand": "right"
    },
    {
      "midi": 87,
      "time": 345,
      "duration": 0.333,
      "velocity": 0.93,
      "hand": "right"
    },
    {
      "midi": 89,
      "time": 345.25,
      "duration": 0.333,
      "velocity": 0.93,
      "hand": "right"
    },
    {
      "midi": 87,
      "time": 345.5,
      "duration": 0.333,
      "velocity": 0.93,
      "hand": "right"
    },
    {
      "midi": 89,
      "time": 345.75,
      "duration": 0.333,
      "velocity": 0.93,
      "hand": "right"
    },
    {
      "midi": 85,
      "time": 346,
      "duration": 0.333,
      "velocity": 0.93,
      "hand": "right"
    },
    {
      "midi": 87,
      "time": 346.25,
      "duration": 0.333,
      "velocity": 0.93,
      "hand": "right"
    },
    {
      "midi": 84,
      "time": 346.5,
      "duration": 0.333,
      "velocity": 0.93,
      "hand": "right"
    },
    {
      "midi": 85,
      "time": 346.75,
      "duration": 0.333,
      "velocity": 0.93,
      "hand": "right"
    },
    {
      "midi": 82,
      "time": 347,
      "duration": 0.333,
      "velocity": 0.93,
      "hand": "right"
    },
    {
      "midi": 84,
      "time": 347.25,
      "duration": 0.333,
      "velocity": 0.93,
      "hand": "right"
    },
    {
      "midi": 80,
      "time": 347.5,
      "duration": 0.333,
      "velocity": 0.93,
      "hand": "right"
    },
    {
      "midi": 99,
      "time": 348,
      "duration": 0.333,
      "velocity": 0.93,
      "hand": "right"
    },
    {
      "midi": 101,
      "time": 348.25,
      "duration": 0.333,
      "velocity": 0.93,
      "hand": "right"
    },
    {
      "midi": 99,
      "time": 348.5,
      "duration": 0.333,
      "velocity": 0.93,
      "hand": "right"
    },
    {
      "midi": 101,
      "time": 348.75,
      "duration": 0.333,
      "velocity": 0.93,
      "hand": "right"
    },
    {
      "midi": 97,
      "time": 349,
      "duration": 0.333,
      "velocity": 0.93,
      "hand": "right"
    },
    {
      "midi": 99,
      "time": 349.25,
      "duration": 0.333,
      "velocity": 0.93,
      "hand": "right"
    },
    {
      "midi": 96,
      "time": 349.5,
      "duration": 0.333,
      "velocity": 0.93,
      "hand": "right"
    },
    {
      "midi": 97,
      "time": 349.75,
      "duration": 0.333,
      "velocity": 0.93,
      "hand": "right"
    },
    {
      "midi": 94,
      "time": 350,
      "duration": 0.333,
      "velocity": 0.93,
      "hand": "right"
    },
    {
      "midi": 96,
      "time": 350.25,
      "duration": 0.333,
      "velocity": 0.93,
      "hand": "right"
    },
    {
      "midi": 92,
      "time": 350.5,
      "duration": 0.333,
      "velocity": 0.93,
      "hand": "right"
    },
    {
      "midi": 94,
      "time": 350.75,
      "duration": 0.333,
      "velocity": 0.93,
      "hand": "right"
    },
    {
      "midi": 91,
      "time": 351,
      "duration": 0.333,
      "velocity": 0.93,
      "hand": "right"
    },
    {
      "midi": 92,
      "time": 351.25,
      "duration": 0.333,
      "velocity": 0.93,
      "hand": "right"
    },
    {
      "midi": 89,
      "time": 351.5,
      "duration": 0.333,
      "velocity": 0.93,
      "hand": "right"
    },
    {
      "midi": 91,
      "time": 351.75,
      "duration": 0.333,
      "velocity": 0.93,
      "hand": "right"
    },
    {
      "midi": 87,
      "time": 352,
      "duration": 0.333,
      "velocity": 0.93,
      "hand": "right"
    },
    {
      "midi": 89,
      "time": 352.25,
      "duration": 0.333,
      "velocity": 0.93,
      "hand": "right"
    },
    {
      "midi": 85,
      "time": 352.5,
      "duration": 0.333,
      "velocity": 0.93,
      "hand": "right"
    },
    {
      "midi": 87,
      "time": 352.75,
      "duration": 0.333,
      "velocity": 0.93,
      "hand": "right"
    },
    {
      "midi": 84,
      "time": 353,
      "duration": 0.333,
      "velocity": 0.93,
      "hand": "right"
    },
    {
      "midi": 85,
      "time": 353.25,
      "duration": 0.333,
      "velocity": 0.93,
      "hand": "right"
    },
    {
      "midi": 82,
      "time": 353.5,
      "duration": 0.333,
      "velocity": 0.93,
      "hand": "right"
    },
    {
      "midi": 84,
      "time": 353.75,
      "duration": 0.333,
      "velocity": 0.93,
      "hand": "right"
    },
    {
      "midi": 80,
      "time": 354,
      "duration": 0.333,
      "velocity": 0.93,
      "hand": "right"
    },
    {
      "midi": 82,
      "time": 354.25,
      "duration": 0.333,
      "velocity": 0.93,
      "hand": "right"
    },
    {
      "midi": 79,
      "time": 354.5,
      "duration": 0.333,
      "velocity": 0.93,
      "hand": "right"
    },
    {
      "midi": 80,
      "time": 354.75,
      "duration": 0.333,
      "velocity": 0.93,
      "hand": "right"
    },
    {
      "midi": 77,
      "time": 355,
      "duration": 0.333,
      "velocity": 0.93,
      "hand": "right"
    },
    {
      "midi": 79,
      "time": 355.25,
      "duration": 0.333,
      "velocity": 0.93,
      "hand": "right"
    },
    {
      "midi": 75,
      "time": 355.5,
      "duration": 0.333,
      "velocity": 0.93,
      "hand": "right"
    },
    {
      "midi": 77,
      "time": 355.75,
      "duration": 0.333,
      "velocity": 0.93,
      "hand": "right"
    },
    {
      "midi": 73,
      "time": 356,
      "duration": 0.333,
      "velocity": 0.93,
      "hand": "right"
    },
    {
      "midi": 75,
      "time": 356.25,
      "duration": 0.333,
      "velocity": 0.93,
      "hand": "right"
    },
    {
      "midi": 72,
      "time": 356.5,
      "duration": 0.333,
      "velocity": 0.93,
      "hand": "right"
    },
    {
      "midi": 73,
      "time": 356.75,
      "duration": 0.333,
      "velocity": 0.93,
      "hand": "right"
    },
    {
      "midi": 70,
      "time": 357,
      "duration": 1.5,
      "velocity": 0.71,
      "hand": "right"
    },
    {
      "midi": 52,
      "time": 357.5,
      "duration": 0.5,
      "velocity": 0.71,
      "hand": "right"
    },
    {
      "midi": 53,
      "time": 358,
      "duration": 0.5,
      "velocity": 0.71,
      "hand": "right"
    },
    {
      "midi": 69,
      "time": 358.5,
      "duration": 0.333,
      "velocity": 0.71,
      "hand": "right"
    },
    {
      "midi": 70,
      "time": 358.75,
      "duration": 0.333,
      "velocity": 0.71,
      "hand": "right"
    },
    {
      "midi": 72,
      "time": 359,
      "duration": 0.333,
      "velocity": 0.71,
      "hand": "right"
    },
    {
      "midi": 70,
      "time": 359.25,
      "duration": 0.333,
      "velocity": 0.71,
      "hand": "right"
    },
    {
      "midi": 73,
      "time": 359.5,
      "duration": 0.333,
      "velocity": 0.71,
      "hand": "right"
    },
    {
      "midi": 67,
      "time": 359.75,
      "duration": 0.333,
      "velocity": 0.71,
      "hand": "right"
    },
    {
      "midi": 68,
      "time": 360,
      "duration": 2,
      "velocity": 0.71,
      "hand": "right"
    },
    {
      "midi": 63,
      "time": 360.25,
      "duration": 0.333,
      "velocity": 0.71,
      "hand": "right"
    },
    {
      "midi": 58,
      "time": 360.5,
      "duration": 0.333,
      "velocity": 0.71,
      "hand": "right"
    },
    {
      "midi": 63,
      "time": 360.75,
      "duration": 0.333,
      "velocity": 0.71,
      "hand": "right"
    },
    {
      "midi": 60,
      "time": 361,
      "duration": 0.333,
      "velocity": 0.71,
      "hand": "right"
    },
    {
      "midi": 63,
      "time": 361.25,
      "duration": 0.333,
      "velocity": 0.71,
      "hand": "right"
    },
    {
      "midi": 61,
      "time": 361.5,
      "duration": 0.333,
      "velocity": 0.71,
      "hand": "right"
    },
    {
      "midi": 64,
      "time": 361.75,
      "duration": 0.333,
      "velocity": 0.71,
      "hand": "right"
    },
    {
      "midi": 67,
      "time": 362,
      "duration": 0.333,
      "velocity": 0.71,
      "hand": "right"
    },
    {
      "midi": 68,
      "time": 362.25,
      "duration": 0.333,
      "velocity": 0.71,
      "hand": "right"
    },
    {
      "midi": 67,
      "time": 362.5,
      "duration": 0.333,
      "velocity": 0.71,
      "hand": "right"
    },
    {
      "midi": 68,
      "time": 362.75,
      "duration": 0.333,
      "velocity": 0.71,
      "hand": "right"
    },
    {
      "midi": 69,
      "time": 363,
      "duration": 0.5,
      "velocity": 0.71,
      "hand": "right"
    },
    {
      "midi": 63,
      "time": 363.25,
      "duration": 0.333,
      "velocity": 0.66,
      "hand": "right"
    },
    {
      "midi": 68,
      "time": 363.5,
      "duration": 0.5,
      "velocity": 0.71,
      "hand": "right"
    },
    {
      "midi": 64,
      "time": 363.75,
      "duration": 0.333,
      "velocity": 0.57,
      "hand": "right"
    },
    {
      "midi": 66,
      "time": 364,
      "duration": 0.5,
      "velocity": 0.71,
      "hand": "right"
    },
    {
      "midi": 61,
      "time": 364.25,
      "duration": 0.333,
      "velocity": 0.48,
      "hand": "right"
    },
    {
      "midi": 64,
      "time": 364.5,
      "duration": 0.75,
      "velocity": 0.71,
      "hand": "right"
    },
    {
      "midi": 61,
      "time": 364.75,
      "duration": 0.333,
      "velocity": 0.48,
      "hand": "right"
    },
    {
      "midi": 55,
      "time": 365,
      "duration": 0.333,
      "velocity": 0.48,
      "hand": "right"
    },
    {
      "midi": 63,
      "time": 365.25,
      "duration": 0.333,
      "velocity": 0.71,
      "hand": "right"
    },
    {
      "midi": 66,
      "time": 365.5,
      "duration": 0.333,
      "velocity": 0.71,
      "hand": "right"
    },
    {
      "midi": 63,
      "time": 365.75,
      "duration": 0.333,
      "velocity": 0.71,
      "hand": "right"
    },
    {
      "midi": 68,
      "time": 366,
      "duration": 1,
      "velocity": 0.71,
      "hand": "right"
    },
    {
      "midi": 63,
      "time": 366.25,
      "duration": 0.333,
      "velocity": 0.48,
      "hand": "right"
    },
    {
      "midi": 58,
      "time": 366.5,
      "duration": 0.333,
      "velocity": 0.48,
      "hand": "right"
    },
    {
      "midi": 63,
      "time": 366.75,
      "duration": 0.333,
      "velocity": 0.48,
      "hand": "right"
    },
    {
      "midi": 68,
      "time": 367,
      "duration": 1,
      "velocity": 0.71,
      "hand": "right"
    },
    {
      "midi": 63,
      "time": 367.25,
      "duration": 0.333,
      "velocity": 0.48,
      "hand": "right"
    },
    {
      "midi": 56,
      "time": 367.5,
      "duration": 0.333,
      "velocity": 0.48,
      "hand": "right"
    },
    {
      "midi": 61,
      "time": 367.75,
      "duration": 0.333,
      "velocity": 0.48,
      "hand": "right"
    },
    {
      "midi": 67,
      "time": 368,
      "duration": 0.333,
      "velocity": 0.71,
      "hand": "right"
    },
    {
      "midi": 68,
      "time": 368.25,
      "duration": 0.333,
      "velocity": 0.71,
      "hand": "right"
    },
    {
      "midi": 67,
      "time": 368.5,
      "duration": 0.333,
      "velocity": 0.71,
      "hand": "right"
    },
    {
      "midi": 68,
      "time": 368.75,
      "duration": 0.333,
      "velocity": 0.71,
      "hand": "right"
    },
    {
      "midi": 71,
      "time": 369,
      "duration": 0.333,
      "velocity": 0.71,
      "hand": "right"
    },
    {
      "midi": 69,
      "time": 369.25,
      "duration": 0.333,
      "velocity": 0.71,
      "hand": "right"
    },
    {
      "midi": 69,
      "time": 369.5,
      "duration": 0.333,
      "velocity": 0.71,
      "hand": "right"
    },
    {
      "midi": 68,
      "time": 369.75,
      "duration": 0.333,
      "velocity": 0.71,
      "hand": "right"
    },
    {
      "midi": 68,
      "time": 370,
      "duration": 0.333,
      "velocity": 0.71,
      "hand": "right"
    },
    {
      "midi": 66,
      "time": 370.25,
      "duration": 0.333,
      "velocity": 0.71,
      "hand": "right"
    },
    {
      "midi": 64,
      "time": 370.5,
      "duration": 0.333,
      "velocity": 0.71,
      "hand": "right"
    },
    {
      "midi": 63,
      "time": 370.75,
      "duration": 0.333,
      "velocity": 0.71,
      "hand": "right"
    },
    {
      "midi": 71,
      "time": 371,
      "duration": 0.333,
      "velocity": 0.71,
      "hand": "right"
    },
    {
      "midi": 70,
      "time": 371.25,
      "duration": 0.333,
      "velocity": 0.71,
      "hand": "right"
    },
    {
      "midi": 76,
      "time": 371.5,
      "duration": 0.333,
      "velocity": 0.71,
      "hand": "right"
    },
    {
      "midi": 75,
      "time": 371.75,
      "duration": 0.333,
      "velocity": 0.71,
      "hand": "right"
    },
    {
      "midi": 80,
      "time": 372,
      "duration": 0.5,
      "velocity": 0.71,
      "hand": "right"
    },
    {
      "midi": 72,
      "time": 372.25,
      "duration": 0.333,
      "velocity": 0.48,
      "hand": "right"
    },
    {
      "midi": 80,
      "time": 372.5,
      "duration": 0.5,
      "velocity": 0.71,
      "hand": "right"
    },
    {
      "midi": 70,
      "time": 372.75,
      "duration": 0.333,
      "velocity": 0.48,
      "hand": "right"
    },
    {
      "midi": 80,
      "time": 373,
      "duration": 0.5,
      "velocity": 0.71,
      "hand": "right"
    },
    {
      "midi": 68,
      "time": 373.25,
      "duration": 0.333,
      "velocity": 0.48,
      "hand": "right"
    },
    {
      "midi": 80,
      "time": 373.5,
      "duration": 0.5,
      "velocity": 0.71,
      "hand": "right"
    },
    {
      "midi": 68,
      "time": 373.75,
      "duration": 0.333,
      "velocity": 0.48,
      "hand": "right"
    },
    {
      "midi": 79,
      "time": 374,
      "duration": 0.5,
      "velocity": 0.71,
      "hand": "right"
    },
    {
      "midi": 65,
      "time": 374.25,
      "duration": 0.333,
      "velocity": 0.48,
      "hand": "right"
    },
    {
      "midi": 75,
      "time": 374.5,
      "duration": 0.5,
      "velocity": 0.71,
      "hand": "right"
    },
    {
      "midi": 63,
      "time": 374.75,
      "duration": 0.333,
      "velocity": 0.48,
      "hand": "right"
    },
    {
      "midi": 78,
      "time": 375,
      "duration": 0.5,
      "velocity": 0.71,
      "hand": "right"
    },
    {
      "midi": 69,
      "time": 375.25,
      "duration": 0.333,
      "velocity": 0.48,
      "hand": "right"
    },
    {
      "midi": 78,
      "time": 375.5,
      "duration": 0.5,
      "velocity": 0.71,
      "hand": "right"
    },
    {
      "midi": 66,
      "time": 375.75,
      "duration": 0.333,
      "velocity": 0.48,
      "hand": "right"
    },
    {
      "midi": 78,
      "time": 376,
      "duration": 0.5,
      "velocity": 0.71,
      "hand": "right"
    },
    {
      "midi": 66,
      "time": 376.25,
      "duration": 0.333,
      "velocity": 0.48,
      "hand": "right"
    },
    {
      "midi": 78,
      "time": 376.5,
      "duration": 1.5,
      "velocity": 0.71,
      "hand": "right"
    },
    {
      "midi": 66,
      "time": 376.75,
      "duration": 0.333,
      "velocity": 0.48,
      "hand": "right"
    },
    {
      "midi": 74,
      "time": 377,
      "duration": 0.5,
      "velocity": 0.71,
      "hand": "right"
    },
    {
      "midi": 66,
      "time": 377.25,
      "duration": 0.333,
      "velocity": 0.48,
      "hand": "right"
    },
    {
      "midi": 73,
      "time": 377.5,
      "duration": 0.5,
      "velocity": 0.71,
      "hand": "right"
    },
    {
      "midi": 66,
      "time": 377.75,
      "duration": 0.333,
      "velocity": 0.48,
      "hand": "right"
    },
    {
      "midi": 78,
      "time": 378,
      "duration": 0.5,
      "velocity": 0.71,
      "hand": "right"
    },
    {
      "midi": 68,
      "time": 378.25,
      "duration": 0.333,
      "velocity": 0.48,
      "hand": "right"
    },
    {
      "midi": 78,
      "time": 378.5,
      "duration": 0.5,
      "velocity": 0.71,
      "hand": "right"
    },
    {
      "midi": 67,
      "time": 378.75,
      "duration": 0.333,
      "velocity": 0.48,
      "hand": "right"
    },
    {
      "midi": 78,
      "time": 379,
      "duration": 0.5,
      "velocity": 0.71,
      "hand": "right"
    },
    {
      "midi": 63,
      "time": 379.25,
      "duration": 0.333,
      "velocity": 0.48,
      "hand": "right"
    },
    {
      "midi": 78,
      "time": 379.5,
      "duration": 0.5,
      "velocity": 0.71,
      "hand": "right"
    },
    {
      "midi": 67,
      "time": 379.75,
      "duration": 0.333,
      "velocity": 0.48,
      "hand": "right"
    },
    {
      "midi": 77,
      "time": 380,
      "duration": 0.5,
      "velocity": 0.71,
      "hand": "right"
    },
    {
      "midi": 64,
      "time": 380.25,
      "duration": 0.333,
      "velocity": 0.48,
      "hand": "right"
    },
    {
      "midi": 72,
      "time": 380.5,
      "duration": 0.5,
      "velocity": 0.71,
      "hand": "right"
    },
    {
      "midi": 60,
      "time": 380.75,
      "duration": 0.333,
      "velocity": 0.48,
      "hand": "right"
    },
    {
      "midi": 76,
      "time": 381,
      "duration": 0.5,
      "velocity": 0.71,
      "hand": "right"
    },
    {
      "midi": 63,
      "time": 381.25,
      "duration": 0.333,
      "velocity": 0.48,
      "hand": "right"
    },
    {
      "midi": 76,
      "time": 381.5,
      "duration": 0.5,
      "velocity": 0.71,
      "hand": "right"
    },
    {
      "midi": 59,
      "time": 381.75,
      "duration": 0.333,
      "velocity": 0.48,
      "hand": "right"
    },
    {
      "midi": 76,
      "time": 382,
      "duration": 0.5,
      "velocity": 0.71,
      "hand": "right"
    },
    {
      "midi": 59,
      "time": 382.25,
      "duration": 0.333,
      "velocity": 0.48,
      "hand": "right"
    },
    {
      "midi": 76,
      "time": 382.5,
      "duration": 1,
      "velocity": 0.71,
      "hand": "right"
    },
    {
      "midi": 64,
      "time": 382.75,
      "duration": 0.333,
      "velocity": 0.43,
      "hand": "right"
    },
    {
      "midi": 71,
      "time": 383,
      "duration": 0.333,
      "velocity": 0.39,
      "hand": "right"
    },
    {
      "midi": 63,
      "time": 383.25,
      "duration": 0.333,
      "velocity": 0.35,
      "hand": "right"
    },
    {
      "midi": 71,
      "time": 383.5,
      "duration": 0.75,
      "velocity": 0.71,
      "hand": "right"
    },
    {
      "midi": 62,
      "time": 383.75,
      "duration": 0.333,
      "velocity": 0.26,
      "hand": "right"
    },
    {
      "midi": 61,
      "time": 384,
      "duration": 0.333,
      "velocity": 0.26,
      "hand": "right"
    },
    {
      "midi": 69,
      "time": 384.25,
      "duration": 0.333,
      "velocity": 0.71,
      "hand": "right"
    },
    {
      "midi": 76,
      "time": 384.5,
      "duration": 0.5,
      "velocity": 0.71,
      "hand": "right"
    },
    {
      "midi": 69,
      "time": 384.75,
      "duration": 0.333,
      "velocity": 0.26,
      "hand": "right"
    },
    {
      "midi": 76,
      "time": 385,
      "duration": 0.5,
      "velocity": 0.71,
      "hand": "right"
    },
    {
      "midi": 69,
      "time": 385.25,
      "duration": 0.333,
      "velocity": 0.26,
      "hand": "right"
    },
    {
      "midi": 76,
      "time": 385.5,
      "duration": 0.5,
      "velocity": 0.71,
      "hand": "right"
    },
    {
      "midi": 69,
      "time": 385.75,
      "duration": 0.333,
      "velocity": 0.26,
      "hand": "right"
    },
    {
      "midi": 74,
      "time": 386,
      "duration": 0.5,
      "velocity": 0.71,
      "hand": "right"
    },
    {
      "midi": 69,
      "time": 386.25,
      "duration": 0.333,
      "velocity": 0.26,
      "hand": "right"
    },
    {
      "midi": 73,
      "time": 386.5,
      "duration": 0.5,
      "velocity": 0.71,
      "hand": "right"
    },
    {
      "midi": 69,
      "time": 386.75,
      "duration": 0.333,
      "velocity": 0.26,
      "hand": "right"
    },
    {
      "midi": 73,
      "time": 387,
      "duration": 0.5,
      "velocity": 0.71,
      "hand": "right"
    },
    {
      "midi": 68,
      "time": 387.25,
      "duration": 0.333,
      "velocity": 0.26,
      "hand": "right"
    },
    {
      "midi": 71,
      "time": 387.5,
      "duration": 0.5,
      "velocity": 0.71,
      "hand": "right"
    },
    {
      "midi": 68,
      "time": 387.75,
      "duration": 0.333,
      "velocity": 0.26,
      "hand": "right"
    },
    {
      "midi": 69,
      "time": 388,
      "duration": 0.5,
      "velocity": 0.71,
      "hand": "right"
    },
    {
      "midi": 64,
      "time": 388.25,
      "duration": 0.333,
      "velocity": 0.26,
      "hand": "right"
    },
    {
      "midi": 73,
      "time": 388.5,
      "duration": 1.5,
      "velocity": 0.71,
      "hand": "right"
    },
    {
      "midi": 69,
      "time": 388.75,
      "duration": 0.333,
      "velocity": 0.26,
      "hand": "right"
    },
    {
      "midi": 61,
      "time": 389,
      "duration": 0.333,
      "velocity": 0.26,
      "hand": "right"
    },
    {
      "midi": 69,
      "time": 389.25,
      "duration": 0.333,
      "velocity": 0.26,
      "hand": "right"
    },
    {
      "midi": 61,
      "time": 389.5,
      "duration": 0.333,
      "velocity": 0.26,
      "hand": "right"
    },
    {
      "midi": 69,
      "time": 389.75,
      "duration": 0.333,
      "velocity": 0.26,
      "hand": "right"
    },
    {
      "midi": 76,
      "time": 390,
      "duration": 0.5,
      "velocity": 0.71,
      "hand": "right"
    },
    {
      "midi": 69,
      "time": 390.25,
      "duration": 0.333,
      "velocity": 0.26,
      "hand": "right"
    },
    {
      "midi": 76,
      "time": 390.5,
      "duration": 0.5,
      "velocity": 0.71,
      "hand": "right"
    },
    {
      "midi": 69,
      "time": 390.75,
      "duration": 0.333,
      "velocity": 0.26,
      "hand": "right"
    },
    {
      "midi": 76,
      "time": 391,
      "duration": 0.5,
      "velocity": 0.71,
      "hand": "right"
    },
    {
      "midi": 69,
      "time": 391.25,
      "duration": 0.333,
      "velocity": 0.26,
      "hand": "right"
    },
    {
      "midi": 76,
      "time": 391.5,
      "duration": 0.5,
      "velocity": 0.71,
      "hand": "right"
    },
    {
      "midi": 69,
      "time": 391.75,
      "duration": 0.333,
      "velocity": 0.26,
      "hand": "right"
    },
    {
      "midi": 74,
      "time": 392,
      "duration": 0.5,
      "velocity": 0.71,
      "hand": "right"
    },
    {
      "midi": 69,
      "time": 392.25,
      "duration": 0.333,
      "velocity": 0.26,
      "hand": "right"
    },
    {
      "midi": 73,
      "time": 392.5,
      "duration": 0.5,
      "velocity": 0.71,
      "hand": "right"
    },
    {
      "midi": 69,
      "time": 392.75,
      "duration": 0.333,
      "velocity": 0.26,
      "hand": "right"
    },
    {
      "midi": 73,
      "time": 393,
      "duration": 0.5,
      "velocity": 0.71,
      "hand": "right"
    },
    {
      "midi": 68,
      "time": 393.25,
      "duration": 0.333,
      "velocity": 0.26,
      "hand": "right"
    },
    {
      "midi": 71,
      "time": 393.5,
      "duration": 0.5,
      "velocity": 0.71,
      "hand": "right"
    },
    {
      "midi": 68,
      "time": 393.75,
      "duration": 0.333,
      "velocity": 0.26,
      "hand": "right"
    },
    {
      "midi": 69,
      "time": 394,
      "duration": 0.5,
      "velocity": 0.71,
      "hand": "right"
    },
    {
      "midi": 66,
      "time": 394.25,
      "duration": 0.333,
      "velocity": 0.26,
      "hand": "right"
    },
    {
      "midi": 73,
      "time": 394.5,
      "duration": 1.5,
      "velocity": 0.93,
      "hand": "right"
    },
    {
      "midi": 68,
      "time": 394.75,
      "duration": 0.333,
      "velocity": 0.26,
      "hand": "right"
    },
    {
      "midi": 61,
      "time": 395,
      "duration": 0.333,
      "velocity": 0.26,
      "hand": "right"
    },
    {
      "midi": 68,
      "time": 395.25,
      "duration": 0.333,
      "velocity": 0.26,
      "hand": "right"
    },
    {
      "midi": 61,
      "time": 395.5,
      "duration": 0.333,
      "velocity": 0.26,
      "hand": "right"
    },
    {
      "midi": 68,
      "time": 395.75,
      "duration": 0.333,
      "velocity": 0.26,
      "hand": "right"
    },
    {
      "midi": 73,
      "time": 396,
      "duration": 0.5,
      "velocity": 0.93,
      "hand": "right"
    },
    {
      "midi": 68,
      "time": 396.25,
      "duration": 0.333,
      "velocity": 0.26,
      "hand": "right"
    },
    {
      "midi": 71,
      "time": 396.5,
      "duration": 0.5,
      "velocity": 0.93,
      "hand": "right"
    },
    {
      "midi": 68,
      "time": 396.75,
      "duration": 0.333,
      "velocity": 0.26,
      "hand": "right"
    },
    {
      "midi": 69,
      "time": 397,
      "duration": 0.5,
      "velocity": 0.93,
      "hand": "right"
    },
    {
      "midi": 64,
      "time": 397.25,
      "duration": 0.333,
      "velocity": 0.26,
      "hand": "right"
    },
    {
      "midi": 73,
      "time": 397.5,
      "duration": 1.5,
      "velocity": 0.93,
      "hand": "right"
    },
    {
      "midi": 69,
      "time": 397.75,
      "duration": 0.333,
      "velocity": 0.71,
      "hand": "right"
    },
    {
      "midi": 61,
      "time": 398,
      "duration": 0.333,
      "velocity": 0.71,
      "hand": "right"
    },
    {
      "midi": 69,
      "time": 398.25,
      "duration": 0.333,
      "velocity": 0.71,
      "hand": "right"
    },
    {
      "midi": 61,
      "time": 398.5,
      "duration": 0.333,
      "velocity": 0.71,
      "hand": "right"
    },
    {
      "midi": 69,
      "time": 398.75,
      "duration": 0.5,
      "velocity": 0.71,
      "hand": "right"
    },
    {
      "midi": 73,
      "time": 399,
      "duration": 2,
      "velocity": 0.93,
      "hand": "right"
    },
    {
      "midi": 69,
      "time": 399.25,
      "duration": 0.5,
      "velocity": 0.71,
      "hand": "right"
    },
    {
      "midi": 61,
      "time": 399.5,
      "duration": 0.333,
      "velocity": 0.71,
      "hand": "right"
    },
    {
      "midi": 69,
      "time": 399.75,
      "duration": 0.5,
      "velocity": 0.71,
      "hand": "right"
    },
    {
      "midi": 61,
      "time": 400,
      "duration": 0.333,
      "velocity": 0.71,
      "hand": "right"
    },
    {
      "midi": 69,
      "time": 400.25,
      "duration": 0.333,
      "velocity": 0.71,
      "hand": "right"
    },
    {
      "midi": 69,
      "time": 400.5,
      "duration": 0.5,
      "velocity": 0.71,
      "hand": "right"
    },
    {
      "midi": 76,
      "time": 401,
      "duration": 0.333,
      "velocity": 0.71,
      "hand": "right"
    },
    {
      "midi": 93,
      "time": 401.25,
      "duration": 0.333,
      "velocity": 0.71,
      "hand": "right"
    },
    {
      "midi": 81,
      "time": 401.5,
      "duration": 0.333,
      "velocity": 0.71,
      "hand": "right"
    },
    {
      "midi": 69,
      "time": 401.75,
      "duration": 0.333,
      "velocity": 0.71,
      "hand": "right"
    },
    {
      "midi": 70,
      "time": 402,
      "duration": 0.333,
      "velocity": 0.54,
      "hand": "right"
    },
    {
      "midi": 70,
      "time": 402.5,
      "duration": 0.5,
      "velocity": 0.48,
      "hand": "right"
    },
    {
      "midi": 74,
      "time": 403,
      "duration": 0.5,
      "velocity": 0.48,
      "hand": "right"
    },
    {
      "midi": 73,
      "time": 403.5,
      "duration": 0.5,
      "velocity": 0.48,
      "hand": "right"
    },
    {
      "midi": 67,
      "time": 404,
      "duration": 0.5,
      "velocity": 0.48,
      "hand": "right"
    },
    {
      "midi": 70,
      "time": 404.5,
      "duration": 0.5,
      "velocity": 0.48,
      "hand": "right"
    },
    {
      "midi": 69,
      "time": 405,
      "duration": 0.5,
      "velocity": 0.48,
      "hand": "right"
    },
    {
      "midi": 70,
      "time": 405.5,
      "duration": 0.5,
      "velocity": 0.48,
      "hand": "right"
    },
    {
      "midi": 74,
      "time": 406,
      "duration": 0.5,
      "velocity": 0.48,
      "hand": "right"
    },
    {
      "midi": 73,
      "time": 406.5,
      "duration": 0.5,
      "velocity": 0.48,
      "hand": "right"
    },
    {
      "midi": 67,
      "time": 407,
      "duration": 0.5,
      "velocity": 0.48,
      "hand": "right"
    },
    {
      "midi": 70,
      "time": 407.5,
      "duration": 0.5,
      "velocity": 0.48,
      "hand": "right"
    },
    {
      "midi": 61,
      "time": 408,
      "duration": 0.5,
      "velocity": 0.71,
      "hand": "right"
    },
    {
      "midi": 69,
      "time": 408.5,
      "duration": 0.333,
      "velocity": 0.71,
      "hand": "right"
    },
    {
      "midi": 70,
      "time": 408.75,
      "duration": 0.333,
      "velocity": 0.71,
      "hand": "right"
    },
    {
      "midi": 69,
      "time": 409,
      "duration": 0.333,
      "velocity": 0.71,
      "hand": "right"
    },
    {
      "midi": 70,
      "time": 409.25,
      "duration": 0.333,
      "velocity": 0.71,
      "hand": "right"
    },
    {
      "midi": 72,
      "time": 409.5,
      "duration": 0.5,
      "velocity": 0.71,
      "hand": "right"
    },
    {
      "midi": 72,
      "time": 410,
      "duration": 0.5,
      "velocity": 0.71,
      "hand": "right"
    },
    {
      "midi": 72,
      "time": 410.5,
      "duration": 0.5,
      "velocity": 0.71,
      "hand": "right"
    },
    {
      "midi": 72,
      "time": 411,
      "duration": 0.5,
      "velocity": 0.71,
      "hand": "right"
    },
    {
      "midi": 70,
      "time": 411.5,
      "duration": 0.333,
      "velocity": 0.71,
      "hand": "right"
    },
    {
      "midi": 69,
      "time": 411.75,
      "duration": 0.333,
      "velocity": 0.71,
      "hand": "right"
    },
    {
      "midi": 67,
      "time": 412,
      "duration": 0.333,
      "velocity": 0.71,
      "hand": "right"
    },
    {
      "midi": 69,
      "time": 412.25,
      "duration": 0.333,
      "velocity": 0.71,
      "hand": "right"
    },
    {
      "midi": 65,
      "time": 412.5,
      "duration": 0.5,
      "velocity": 0.71,
      "hand": "right"
    },
    {
      "midi": 49,
      "time": 413,
      "duration": 0.5,
      "velocity": 0.71,
      "hand": "right"
    },
    {
      "midi": 53,
      "time": 413.5,
      "duration": 0.5,
      "velocity": 0.71,
      "hand": "right"
    },
    {
      "midi": 60,
      "time": 414,
      "duration": 0.5,
      "velocity": 0.71,
      "hand": "right"
    },
    {
      "midi": 61,
      "time": 414.5,
      "duration": 0.5,
      "velocity": 0.71,
      "hand": "right"
    },
    {
      "midi": 65,
      "time": 415,
      "duration": 0.5,
      "velocity": 0.71,
      "hand": "right"
    },
    {
      "midi": 72,
      "time": 415.5,
      "duration": 0.5,
      "velocity": 0.71,
      "hand": "right"
    },
    {
      "midi": 73,
      "time": 416,
      "duration": 0.5,
      "velocity": 0.71,
      "hand": "right"
    },
    {
      "midi": 77,
      "time": 416.5,
      "duration": 0.5,
      "velocity": 0.71,
      "hand": "right"
    },
    {
      "midi": 76,
      "time": 417,
      "duration": 0.5,
      "velocity": 0.71,
      "hand": "right"
    },
    {
      "midi": 70,
      "time": 417.5,
      "duration": 0.5,
      "velocity": 0.71,
      "hand": "right"
    },
    {
      "midi": 73,
      "time": 418,
      "duration": 0.5,
      "velocity": 0.71,
      "hand": "right"
    },
    {
      "midi": 64,
      "time": 418.5,
      "duration": 0.5,
      "velocity": 0.71,
      "hand": "right"
    },
    {
      "midi": 72,
      "time": 419,
      "duration": 0.333,
      "velocity": 0.71,
      "hand": "right"
    },
    {
      "midi": 73,
      "time": 419.25,
      "duration": 0.333,
      "velocity": 0.71,
      "hand": "right"
    },
    {
      "midi": 72,
      "time": 419.5,
      "duration": 0.333,
      "velocity": 0.71,
      "hand": "right"
    },
    {
      "midi": 73,
      "time": 419.75,
      "duration": 0.333,
      "velocity": 0.71,
      "hand": "right"
    },
    {
      "midi": 75,
      "time": 420,
      "duration": 0.5,
      "velocity": 0.71,
      "hand": "right"
    },
    {
      "midi": 75,
      "time": 420.5,
      "duration": 0.5,
      "velocity": 0.71,
      "hand": "right"
    },
    {
      "midi": 75,
      "time": 421,
      "duration": 0.5,
      "velocity": 0.71,
      "hand": "right"
    },
    {
      "midi": 75,
      "time": 421.5,
      "duration": 0.5,
      "velocity": 0.71,
      "hand": "right"
    },
    {
      "midi": 73,
      "time": 422,
      "duration": 0.333,
      "velocity": 0.71,
      "hand": "right"
    },
    {
      "midi": 72,
      "time": 422.25,
      "duration": 0.333,
      "velocity": 0.71,
      "hand": "right"
    },
    {
      "midi": 70,
      "time": 422.5,
      "duration": 0.333,
      "velocity": 0.71,
      "hand": "right"
    },
    {
      "midi": 72,
      "time": 422.75,
      "duration": 0.333,
      "velocity": 0.71,
      "hand": "right"
    },
    {
      "midi": 68,
      "time": 423,
      "duration": 0.5,
      "velocity": 0.71,
      "hand": "right"
    },
    {
      "midi": 52,
      "time": 423.5,
      "duration": 0.5,
      "velocity": 0.71,
      "hand": "right"
    },
    {
      "midi": 56,
      "time": 424,
      "duration": 0.5,
      "velocity": 0.71,
      "hand": "right"
    },
    {
      "midi": 63,
      "time": 424.5,
      "duration": 0.5,
      "velocity": 0.71,
      "hand": "right"
    },
    {
      "midi": 64,
      "time": 425,
      "duration": 0.5,
      "velocity": 0.71,
      "hand": "right"
    },
    {
      "midi": 68,
      "time": 425.5,
      "duration": 0.5,
      "velocity": 0.71,
      "hand": "right"
    },
    {
      "midi": 75,
      "time": 426,
      "duration": 0.5,
      "velocity": 0.71,
      "hand": "right"
    },
    {
      "midi": 76,
      "time": 426.5,
      "duration": 0.5,
      "velocity": 0.71,
      "hand": "right"
    },
    {
      "midi": 80,
      "time": 427,
      "duration": 0.5,
      "velocity": 0.71,
      "hand": "right"
    },
    {
      "midi": 79,
      "time": 427.5,
      "duration": 0.5,
      "velocity": 0.71,
      "hand": "right"
    },
    {
      "midi": 73,
      "time": 428,
      "duration": 0.5,
      "velocity": 0.71,
      "hand": "right"
    },
    {
      "midi": 76,
      "time": 428.5,
      "duration": 0.5,
      "velocity": 0.71,
      "hand": "right"
    },
    {
      "midi": 67,
      "time": 429,
      "duration": 0.5,
      "velocity": 0.71,
      "hand": "right"
    },
    {
      "midi": 75,
      "time": 429.5,
      "duration": 0.333,
      "velocity": 0.71,
      "hand": "right"
    },
    {
      "midi": 76,
      "time": 429.75,
      "duration": 0.333,
      "velocity": 0.71,
      "hand": "right"
    },
    {
      "midi": 75,
      "time": 430,
      "duration": 0.333,
      "velocity": 0.71,
      "hand": "right"
    },
    {
      "midi": 76,
      "time": 430.25,
      "duration": 0.333,
      "velocity": 0.71,
      "hand": "right"
    },
    {
      "midi": 78,
      "time": 430.5,
      "duration": 0.5,
      "velocity": 0.71,
      "hand": "right"
    },
    {
      "midi": 78,
      "time": 431,
      "duration": 0.5,
      "velocity": 0.71,
      "hand": "right"
    },
    {
      "midi": 78,
      "time": 431.5,
      "duration": 0.5,
      "velocity": 0.71,
      "hand": "right"
    },
    {
      "midi": 78,
      "time": 432,
      "duration": 0.5,
      "velocity": 0.71,
      "hand": "right"
    },
    {
      "midi": 77,
      "time": 432.5,
      "duration": 0.333,
      "velocity": 0.71,
      "hand": "right"
    },
    {
      "midi": 72,
      "time": 432.75,
      "duration": 0.333,
      "velocity": 0.71,
      "hand": "right"
    },
    {
      "midi": 75,
      "time": 433,
      "duration": 0.333,
      "velocity": 0.71,
      "hand": "right"
    },
    {
      "midi": 73,
      "time": 433.25,
      "duration": 0.333,
      "velocity": 0.71,
      "hand": "right"
    },
    {
      "midi": 70,
      "time": 433.5,
      "duration": 0.5,
      "velocity": 0.71,
      "hand": "right"
    },
    {
      "midi": 61,
      "time": 434,
      "duration": 0.5,
      "velocity": 0.71,
      "hand": "right"
    },
    {
      "midi": 44,
      "time": 434.5,
      "duration": 0.5,
      "velocity": 0.71,
      "hand": "right"
    },
    {
      "midi": 42,
      "time": 435,
      "duration": 0.5,
      "velocity": 0.71,
      "hand": "right"
    },
    {
      "midi": 73,
      "time": 435.5,
      "duration": 0.333,
      "velocity": 0.71,
      "hand": "right"
    },
    {
      "midi": 75,
      "time": 435.75,
      "duration": 0.333,
      "velocity": 0.71,
      "hand": "right"
    },
    {
      "midi": 73,
      "time": 436,
      "duration": 0.333,
      "velocity": 0.71,
      "hand": "right"
    },
    {
      "midi": 75,
      "time": 436.25,
      "duration": 0.333,
      "velocity": 0.71,
      "hand": "right"
    },
    {
      "midi": 77,
      "time": 436.5,
      "duration": 0.5,
      "velocity": 0.71,
      "hand": "right"
    },
    {
      "midi": 77,
      "time": 437,
      "duration": 0.5,
      "velocity": 0.71,
      "hand": "right"
    },
    {
      "midi": 77,
      "time": 437.5,
      "duration": 0.5,
      "velocity": 0.71,
      "hand": "right"
    },
    {
      "midi": 77,
      "time": 438,
      "duration": 0.5,
      "velocity": 0.71,
      "hand": "right"
    },
    {
      "midi": 75,
      "time": 438.5,
      "duration": 0.333,
      "velocity": 0.71,
      "hand": "right"
    },
    {
      "midi": 70,
      "time": 438.75,
      "duration": 0.333,
      "velocity": 0.71,
      "hand": "right"
    },
    {
      "midi": 73,
      "time": 439,
      "duration": 0.333,
      "velocity": 0.71,
      "hand": "right"
    },
    {
      "midi": 72,
      "time": 439.25,
      "duration": 0.333,
      "velocity": 0.71,
      "hand": "right"
    },
    {
      "midi": 69,
      "time": 439.5,
      "duration": 0.5,
      "velocity": 0.71,
      "hand": "right"
    },
    {
      "midi": 72,
      "time": 440,
      "duration": 0.5,
      "velocity": 0.71,
      "hand": "right"
    },
    {
      "midi": 77,
      "time": 440.5,
      "duration": 0.5,
      "velocity": 0.71,
      "hand": "right"
    },
    {
      "midi": 76,
      "time": 441,
      "duration": 0.5,
      "velocity": 0.71,
      "hand": "right"
    },
    {
      "midi": 70,
      "time": 441.5,
      "duration": 0.5,
      "velocity": 0.71,
      "hand": "right"
    },
    {
      "midi": 73,
      "time": 442,
      "duration": 0.5,
      "velocity": 0.71,
      "hand": "right"
    },
    {
      "midi": 41,
      "time": 442.5,
      "duration": 0.5,
      "velocity": 0.71,
      "hand": "right"
    },
    {
      "midi": 72,
      "time": 443,
      "duration": 0.5,
      "velocity": 0.71,
      "hand": "right"
    },
    {
      "midi": 77,
      "time": 443.5,
      "duration": 0.75,
      "velocity": 0.71,
      "hand": "right"
    },
    {
      "midi": 53,
      "time": 444,
      "duration": 0.5,
      "velocity": 0.71,
      "hand": "right"
    },
    {
      "midi": 76,
      "time": 444.25,
      "duration": 0.333,
      "velocity": 0.71,
      "hand": "right"
    },
    {
      "midi": 70,
      "time": 444.5,
      "duration": 0.333,
      "velocity": 0.71,
      "hand": "right"
    },
    {
      "midi": 72,
      "time": 444.75,
      "duration": 0.333,
      "velocity": 0.71,
      "hand": "right"
    },
    {
      "midi": 75,
      "time": 445,
      "duration": 0.333,
      "velocity": 0.71,
      "hand": "right"
    },
    {
      "midi": 73,
      "time": 445.25,
      "duration": 0.333,
      "velocity": 0.71,
      "hand": "right"
    },
    {
      "midi": 41,
      "time": 445.5,
      "duration": 0.5,
      "velocity": 0.71,
      "hand": "right"
    },
    {
      "midi": 72,
      "time": 446,
      "duration": 0.333,
      "velocity": 0.71,
      "hand": "right"
    },
    {
      "midi": 73,
      "time": 446.25,
      "duration": 0.333,
      "velocity": 0.71,
      "hand": "right"
    },
    {
      "midi": 72,
      "time": 446.5,
      "duration": 0.333,
      "velocity": 0.71,
      "hand": "right"
    },
    {
      "midi": 73,
      "time": 446.75,
      "duration": 0.333,
      "velocity": 0.71,
      "hand": "right"
    },
    {
      "midi": 75,
      "time": 447,
      "duration": 0.5,
      "velocity": 0.71,
      "hand": "right"
    },
    {
      "midi": 75,
      "time": 447.5,
      "duration": 0.5,
      "velocity": 0.71,
      "hand": "right"
    },
    {
      "midi": 75,
      "time": 448,
      "duration": 0.5,
      "velocity": 0.71,
      "hand": "right"
    },
    {
      "midi": 75,
      "time": 448.5,
      "duration": 0.5,
      "velocity": 0.71,
      "hand": "right"
    },
    {
      "midi": 77,
      "time": 449,
      "duration": 0.333,
      "velocity": 0.71,
      "hand": "right"
    },
    {
      "midi": 72,
      "time": 449.25,
      "duration": 0.333,
      "velocity": 0.71,
      "hand": "right"
    },
    {
      "midi": 75,
      "time": 449.5,
      "duration": 0.333,
      "velocity": 0.71,
      "hand": "right"
    },
    {
      "midi": 73,
      "time": 449.75,
      "duration": 0.333,
      "velocity": 0.71,
      "hand": "right"
    },
    {
      "midi": 70,
      "time": 450,
      "duration": 1.5,
      "velocity": 0.71,
      "hand": "right"
    },
    {
      "midi": 65,
      "time": 450.5,
      "duration": 0.5,
      "velocity": 0.71,
      "hand": "right"
    },
    {
      "midi": 61,
      "time": 451,
      "duration": 0.5,
      "velocity": 0.71,
      "hand": "right"
    },
    {
      "midi": 67,
      "time": 451.5,
      "duration": 1,
      "velocity": 0.71,
      "hand": "right"
    },
    {
      "midi": 64,
      "time": 452,
      "duration": 0.5,
      "velocity": 0.71,
      "hand": "right"
    },
    {
      "midi": 60,
      "time": 452.5,
      "duration": 0.5,
      "velocity": 0.71,
      "hand": "right"
    },
    {
      "midi": 41,
      "time": 453,
      "duration": 0.333,
      "velocity": 0.71,
      "hand": "right"
    },
    {
      "midi": 48,
      "time": 453.25,
      "duration": 0.333,
      "velocity": 0.71,
      "hand": "right"
    },
    {
      "midi": 72,
      "time": 453.5,
      "duration": 0.5,
      "velocity": 0.71,
      "hand": "right"
    },
    {
      "midi": 53,
      "time": 453.75,
      "duration": 0.333,
      "velocity": 0.71,
      "hand": "right"
    },
    {
      "midi": 77,
      "time": 454,
      "duration": 0.75,
      "velocity": 0.71,
      "hand": "right"
    },
    {
      "midi": 68,
      "time": 454.25,
      "duration": 0.333,
      "velocity": 0.71,
      "hand": "right"
    },
    {
      "midi": 41,
      "time": 454.5,
      "duration": 0.333,
      "velocity": 0.71,
      "hand": "right"
    },
    {
      "midi": 76,
      "time": 454.75,
      "duration": 0.333,
      "velocity": 0.71,
      "hand": "right"
    },
    {
      "midi": 70,
      "time": 455,
      "duration": 0.333,
      "velocity": 0.71,
      "hand": "right"
    },
    {
      "midi": 71,
      "time": 455.25,
      "duration": 0.333,
      "velocity": 0.71,
      "hand": "right"
    },
    {
      "midi": 72,
      "time": 455.5,
      "duration": 0.333,
      "velocity": 0.71,
      "hand": "right"
    },
    {
      "midi": 75,
      "time": 455.75,
      "duration": 0.333,
      "velocity": 0.71,
      "hand": "right"
    },
    {
      "midi": 41,
      "time": 456,
      "duration": 0.333,
      "velocity": 0.71,
      "hand": "right"
    },
    {
      "midi": 72,
      "time": 456.25,
      "duration": 0.333,
      "velocity": 0.71,
      "hand": "right"
    },
    {
      "midi": 73,
      "time": 456.5,
      "duration": 0.333,
      "velocity": 0.71,
      "hand": "right"
    },
    {
      "midi": 72,
      "time": 456.75,
      "duration": 0.333,
      "velocity": 0.71,
      "hand": "right"
    },
    {
      "midi": 80,
      "time": 457,
      "duration": 0.333,
      "velocity": 0.71,
      "hand": "right"
    },
    {
      "midi": 79,
      "time": 457.25,
      "duration": 0.333,
      "velocity": 0.71,
      "hand": "right"
    },
    {
      "midi": 77,
      "time": 457.5,
      "duration": 0.333,
      "velocity": 0.71,
      "hand": "right"
    },
    {
      "midi": 76,
      "time": 457.75,
      "duration": 0.333,
      "velocity": 0.71,
      "hand": "right"
    },
    {
      "midi": 55,
      "time": 458,
      "duration": 0.333,
      "velocity": 0.71,
      "hand": "right"
    },
    {
      "midi": 70,
      "time": 458.25,
      "duration": 0.333,
      "velocity": 0.71,
      "hand": "right"
    },
    {
      "midi": 72,
      "time": 458.5,
      "duration": 0.333,
      "velocity": 0.71,
      "hand": "right"
    },
    {
      "midi": 75,
      "time": 458.75,
      "duration": 0.333,
      "velocity": 0.71,
      "hand": "right"
    },
    {
      "midi": 41,
      "time": 459,
      "duration": 0.333,
      "velocity": 0.71,
      "hand": "right"
    },
    {
      "midi": 48,
      "time": 459.25,
      "duration": 0.333,
      "velocity": 0.71,
      "hand": "right"
    },
    {
      "midi": 72,
      "time": 459.5,
      "duration": 0.333,
      "velocity": 0.71,
      "hand": "right"
    },
    {
      "midi": 73,
      "time": 459.75,
      "duration": 0.333,
      "velocity": 0.71,
      "hand": "right"
    },
    {
      "midi": 71,
      "time": 460,
      "duration": 0.333,
      "velocity": 0.71,
      "hand": "right"
    },
    {
      "midi": 73,
      "time": 460.25,
      "duration": 0.333,
      "velocity": 0.71,
      "hand": "right"
    },
    {
      "midi": 74,
      "time": 460.5,
      "duration": 0.333,
      "velocity": 0.71,
      "hand": "right"
    },
    {
      "midi": 84,
      "time": 460.75,
      "duration": 0.333,
      "velocity": 0.71,
      "hand": "right"
    },
    {
      "midi": 82,
      "time": 461,
      "duration": 0.333,
      "velocity": 0.71,
      "hand": "right"
    },
    {
      "midi": 80,
      "time": 461.25,
      "duration": 0.333,
      "velocity": 0.71,
      "hand": "right"
    },
    {
      "midi": 73,
      "time": 461.5,
      "duration": 0.333,
      "velocity": 0.71,
      "hand": "right"
    },
    {
      "midi": 75,
      "time": 461.75,
      "duration": 0.333,
      "velocity": 0.71,
      "hand": "right"
    },
    {
      "midi": 76,
      "time": 462,
      "duration": 0.333,
      "velocity": 0.71,
      "hand": "right"
    },
    {
      "midi": 79,
      "time": 462.25,
      "duration": 0.333,
      "velocity": 0.71,
      "hand": "right"
    },
    {
      "midi": 75,
      "time": 462.5,
      "duration": 0.333,
      "velocity": 0.71,
      "hand": "right"
    },
    {
      "midi": 75,
      "time": 462.75,
      "duration": 0.333,
      "velocity": 0.71,
      "hand": "right"
    },
    {
      "midi": 73,
      "time": 463,
      "duration": 0.333,
      "velocity": 0.71,
      "hand": "right"
    },
    {
      "midi": 70,
      "time": 463.25,
      "duration": 0.333,
      "velocity": 0.71,
      "hand": "right"
    },
    {
      "midi": 68,
      "time": 463.5,
      "duration": 0.5,
      "velocity": 0.71,
      "hand": "right"
    },
    {
      "midi": 51,
      "time": 463.75,
      "duration": 0.333,
      "velocity": 0.71,
      "hand": "right"
    },
    {
      "midi": 60,
      "time": 464,
      "duration": 0.333,
      "velocity": 0.71,
      "hand": "right"
    },
    {
      "midi": 51,
      "time": 464.25,
      "duration": 0.333,
      "velocity": 0.71,
      "hand": "right"
    },
    {
      "midi": 60,
      "time": 464.5,
      "duration": 0.333,
      "velocity": 0.71,
      "hand": "right"
    },
    {
      "midi": 68,
      "time": 464.75,
      "duration": 0.333,
      "velocity": 0.71,
      "hand": "right"
    },
    {
      "midi": 44,
      "time": 465,
      "duration": 0.333,
      "velocity": 0.71,
      "hand": "right"
    },
    {
      "midi": 52,
      "time": 465.25,
      "duration": 0.333,
      "velocity": 0.71,
      "hand": "right"
    },
    {
      "midi": 60,
      "time": 465.5,
      "duration": 0.333,
      "velocity": 0.71,
      "hand": "right"
    },
    {
      "midi": 52,
      "time": 465.75,
      "duration": 0.333,
      "velocity": 0.71,
      "hand": "right"
    },
    {
      "midi": 60,
      "time": 466,
      "duration": 0.333,
      "velocity": 0.71,
      "hand": "right"
    },
    {
      "midi": 68,
      "time": 466.25,
      "duration": 0.333,
      "velocity": 0.71,
      "hand": "right"
    },
    {
      "midi": 32,
      "time": 466.5,
      "duration": 0.333,
      "velocity": 0.71,
      "hand": "right"
    },
    {
      "midi": 51,
      "time": 466.75,
      "duration": 0.333,
      "velocity": 0.71,
      "hand": "right"
    },
    {
      "midi": 75,
      "time": 467,
      "duration": 0.5,
      "velocity": 0.71,
      "hand": "right"
    },
    {
      "midi": 51,
      "time": 467.25,
      "duration": 0.333,
      "velocity": 0.71,
      "hand": "right"
    },
    {
      "midi": 80,
      "time": 467.5,
      "duration": 0.75,
      "velocity": 0.71,
      "hand": "right"
    },
    {
      "midi": 68,
      "time": 467.75,
      "duration": 0.333,
      "velocity": 0.71,
      "hand": "right"
    },
    {
      "midi": 44,
      "time": 468,
      "duration": 0.333,
      "velocity": 0.71,
      "hand": "right"
    },
    {
      "midi": 79,
      "time": 468.25,
      "duration": 0.333,
      "velocity": 0.71,
      "hand": "right"
    },
    {
      "midi": 72,
      "time": 468.5,
      "duration": 0.333,
      "velocity": 0.71,
      "hand": "right"
    },
    {
      "midi": 74,
      "time": 468.75,
      "duration": 0.333,
      "velocity": 0.71,
      "hand": "right"
    },
    {
      "midi": 75,
      "time": 469,
      "duration": 0.333,
      "velocity": 0.71,
      "hand": "right"
    },
    {
      "midi": 78,
      "time": 469.25,
      "duration": 0.333,
      "velocity": 0.71,
      "hand": "right"
    },
    {
      "midi": 44,
      "time": 469.5,
      "duration": 0.333,
      "velocity": 0.71,
      "hand": "right"
    },
    {
      "midi": 75,
      "time": 469.75,
      "duration": 0.333,
      "velocity": 0.71,
      "hand": "right"
    },
    {
      "midi": 77,
      "time": 470,
      "duration": 0.333,
      "velocity": 0.71,
      "hand": "right"
    },
    {
      "midi": 75,
      "time": 470.25,
      "duration": 0.333,
      "velocity": 0.71,
      "hand": "right"
    },
    {
      "midi": 84,
      "time": 470.5,
      "duration": 0.333,
      "velocity": 0.71,
      "hand": "right"
    },
    {
      "midi": 82,
      "time": 470.75,
      "duration": 0.333,
      "velocity": 0.71,
      "hand": "right"
    },
    {
      "midi": 80,
      "time": 471,
      "duration": 0.333,
      "velocity": 0.71,
      "hand": "right"
    },
    {
      "midi": 79,
      "time": 471.25,
      "duration": 0.333,
      "velocity": 0.71,
      "hand": "right"
    },
    {
      "midi": 72,
      "time": 471.5,
      "duration": 0.333,
      "velocity": 0.71,
      "hand": "right"
    },
    {
      "midi": 74,
      "time": 471.75,
      "duration": 0.333,
      "velocity": 0.71,
      "hand": "right"
    },
    {
      "midi": 75,
      "time": 472,
      "duration": 0.333,
      "velocity": 0.71,
      "hand": "right"
    },
    {
      "midi": 78,
      "time": 472.25,
      "duration": 0.333,
      "velocity": 0.71,
      "hand": "right"
    },
    {
      "midi": 44,
      "time": 472.5,
      "duration": 0.333,
      "velocity": 0.71,
      "hand": "right"
    },
    {
      "midi": 51,
      "time": 472.75,
      "duration": 0.333,
      "velocity": 0.71,
      "hand": "right"
    },
    {
      "midi": 75,
      "time": 473,
      "duration": 0.333,
      "velocity": 0.71,
      "hand": "right"
    },
    {
      "midi": 77,
      "time": 473.25,
      "duration": 0.333,
      "velocity": 0.71,
      "hand": "right"
    },
    {
      "midi": 74,
      "time": 473.5,
      "duration": 0.333,
      "velocity": 0.71,
      "hand": "right"
    },
    {
      "midi": 77,
      "time": 473.75,
      "duration": 0.333,
      "velocity": 0.71,
      "hand": "right"
    },
    {
      "midi": 78,
      "time": 474,
      "duration": 0.333,
      "velocity": 0.71,
      "hand": "right"
    },
    {
      "midi": 90,
      "time": 474.25,
      "duration": 0.333,
      "velocity": 0.71,
      "hand": "right"
    },
    {
      "midi": 88,
      "time": 474.5,
      "duration": 0.333,
      "velocity": 0.71,
      "hand": "right"
    },
    {
      "midi": 87,
      "time": 474.75,
      "duration": 0.333,
      "velocity": 0.71,
      "hand": "right"
    },
    {
      "midi": 84,
      "time": 475,
      "duration": 0.333,
      "velocity": 0.71,
      "hand": "right"
    },
    {
      "midi": 82,
      "time": 475.25,
      "duration": 0.333,
      "velocity": 0.71,
      "hand": "right"
    },
    {
      "midi": 78,
      "time": 475.5,
      "duration": 0.333,
      "velocity": 0.71,
      "hand": "right"
    },
    {
      "midi": 77,
      "time": 475.75,
      "duration": 0.333,
      "velocity": 0.71,
      "hand": "right"
    },
    {
      "midi": 75,
      "time": 476,
      "duration": 0.333,
      "velocity": 0.71,
      "hand": "right"
    },
    {
      "midi": 73,
      "time": 476.25,
      "duration": 0.333,
      "velocity": 0.71,
      "hand": "right"
    },
    {
      "midi": 72,
      "time": 476.5,
      "duration": 0.333,
      "velocity": 0.71,
      "hand": "right"
    },
    {
      "midi": 75,
      "time": 476.75,
      "duration": 0.333,
      "velocity": 0.71,
      "hand": "right"
    },
    {
      "midi": 72,
      "time": 477,
      "duration": 0.333,
      "velocity": 0.71,
      "hand": "right"
    },
    {
      "midi": 70,
      "time": 477.25,
      "duration": 0.333,
      "velocity": 0.71,
      "hand": "right"
    },
    {
      "midi": 49,
      "time": 477.5,
      "duration": 0.333,
      "velocity": 0.71,
      "hand": "right"
    },
    {
      "midi": 46,
      "time": 477.75,
      "duration": 0.333,
      "velocity": 0.71,
      "hand": "right"
    },
    {
      "midi": 53,
      "time": 478,
      "duration": 0.333,
      "velocity": 0.71,
      "hand": "right"
    },
    {
      "midi": 61,
      "time": 478.25,
      "duration": 0.333,
      "velocity": 0.71,
      "hand": "right"
    },
    {
      "midi": 42,
      "time": 478.5,
      "duration": 0.333,
      "velocity": 0.71,
      "hand": "right"
    },
    {
      "midi": 49,
      "time": 478.75,
      "duration": 0.333,
      "velocity": 0.71,
      "hand": "right"
    },
    {
      "midi": 73,
      "time": 479,
      "duration": 0.333,
      "velocity": 0.71,
      "hand": "right"
    },
    {
      "midi": 75,
      "time": 479.25,
      "duration": 0.333,
      "velocity": 0.71,
      "hand": "right"
    },
    {
      "midi": 72,
      "time": 479.5,
      "duration": 0.333,
      "velocity": 0.71,
      "hand": "right"
    },
    {
      "midi": 75,
      "time": 479.75,
      "duration": 0.333,
      "velocity": 0.71,
      "hand": "right"
    },
    {
      "midi": 77,
      "time": 480,
      "duration": 0.333,
      "velocity": 0.71,
      "hand": "right"
    },
    {
      "midi": 89,
      "time": 480.25,
      "duration": 0.333,
      "velocity": 0.71,
      "hand": "right"
    },
    {
      "midi": 87,
      "time": 480.5,
      "duration": 0.333,
      "velocity": 0.71,
      "hand": "right"
    },
    {
      "midi": 85,
      "time": 480.75,
      "duration": 0.333,
      "velocity": 0.71,
      "hand": "right"
    },
    {
      "midi": 77,
      "time": 481,
      "duration": 0.333,
      "velocity": 0.71,
      "hand": "right"
    },
    {
      "midi": 75,
      "time": 481.25,
      "duration": 0.333,
      "velocity": 0.71,
      "hand": "right"
    },
    {
      "midi": 71,
      "time": 481.5,
      "duration": 0.5,
      "velocity": 0.71,
      "hand": "right"
    },
    {
      "midi": 47,
      "time": 481.75,
      "duration": 0.333,
      "velocity": 0.71,
      "hand": "right"
    },
    {
      "midi": 71,
      "time": 482,
      "duration": 0.333,
      "velocity": 0.71,
      "hand": "right"
    },
    {
      "midi": 75,
      "time": 482.25,
      "duration": 0.333,
      "velocity": 0.71,
      "hand": "right"
    },
    {
      "midi": 69,
      "time": 482.5,
      "duration": 0.333,
      "velocity": 0.71,
      "hand": "right"
    },
    {
      "midi": 72,
      "time": 482.75,
      "duration": 0.333,
      "velocity": 0.71,
      "hand": "right"
    },
    {
      "midi": 69,
      "time": 483,
      "duration": 0.333,
      "velocity": 0.71,
      "hand": "right"
    },
    {
      "midi": 76,
      "time": 483.25,
      "duration": 0.333,
      "velocity": 0.71,
      "hand": "right"
    },
    {
      "midi": 78,
      "time": 483.5,
      "duration": 0.333,
      "velocity": 0.71,
      "hand": "right"
    },
    {
      "midi": 81,
      "time": 483.75,
      "duration": 0.333,
      "velocity": 0.71,
      "hand": "right"
    },
    {
      "midi": 84,
      "time": 484,
      "duration": 0.333,
      "velocity": 0.71,
      "hand": "right"
    },
    {
      "midi": 89,
      "time": 484.25,
      "duration": 0.333,
      "velocity": 0.71,
      "hand": "right"
    },
    {
      "midi": 88,
      "time": 484.5,
      "duration": 0.333,
      "velocity": 0.71,
      "hand": "right"
    },
    {
      "midi": 87,
      "time": 484.75,
      "duration": 0.333,
      "velocity": 0.71,
      "hand": "right"
    },
    {
      "midi": 85,
      "time": 485,
      "duration": 0.333,
      "velocity": 0.71,
      "hand": "right"
    },
    {
      "midi": 82,
      "time": 485.25,
      "duration": 0.333,
      "velocity": 0.71,
      "hand": "right"
    },
    {
      "midi": 76,
      "time": 485.5,
      "duration": 0.333,
      "velocity": 0.71,
      "hand": "right"
    },
    {
      "midi": 73,
      "time": 485.75,
      "duration": 0.333,
      "velocity": 0.71,
      "hand": "right"
    },
    {
      "midi": 69,
      "time": 486,
      "duration": 0.333,
      "velocity": 0.71,
      "hand": "right"
    },
    {
      "midi": 76,
      "time": 486.25,
      "duration": 0.333,
      "velocity": 0.71,
      "hand": "right"
    },
    {
      "midi": 78,
      "time": 486.5,
      "duration": 0.333,
      "velocity": 0.71,
      "hand": "right"
    },
    {
      "midi": 81,
      "time": 486.75,
      "duration": 0.333,
      "velocity": 0.71,
      "hand": "right"
    },
    {
      "midi": 84,
      "time": 487,
      "duration": 0.333,
      "velocity": 0.71,
      "hand": "right"
    },
    {
      "midi": 101,
      "time": 487.25,
      "duration": 0.333,
      "velocity": 0.71,
      "hand": "right"
    },
    {
      "midi": 100,
      "time": 487.5,
      "duration": 0.333,
      "velocity": 0.71,
      "hand": "right"
    },
    {
      "midi": 99,
      "time": 487.75,
      "duration": 0.333,
      "velocity": 0.71,
      "hand": "right"
    },
    {
      "midi": 97,
      "time": 488,
      "duration": 0.333,
      "velocity": 0.71,
      "hand": "right"
    },
    {
      "midi": 94,
      "time": 488.25,
      "duration": 0.333,
      "velocity": 0.71,
      "hand": "right"
    },
    {
      "midi": 88,
      "time": 488.5,
      "duration": 0.333,
      "velocity": 0.71,
      "hand": "right"
    },
    {
      "midi": 85,
      "time": 488.75,
      "duration": 0.333,
      "velocity": 0.71,
      "hand": "right"
    },
    {
      "midi": 81,
      "time": 489,
      "duration": 0.333,
      "velocity": 0.71,
      "hand": "right"
    },
    {
      "midi": 87,
      "time": 489.25,
      "duration": 0.333,
      "velocity": 0.71,
      "hand": "right"
    },
    {
      "midi": 89,
      "time": 489.5,
      "duration": 0.333,
      "velocity": 0.71,
      "hand": "right"
    },
    {
      "midi": 92,
      "time": 489.75,
      "duration": 0.333,
      "velocity": 0.71,
      "hand": "right"
    },
    {
      "midi": 87,
      "time": 490,
      "duration": 0.333,
      "velocity": 0.71,
      "hand": "right"
    },
    {
      "midi": 84,
      "time": 490.25,
      "duration": 0.333,
      "velocity": 0.71,
      "hand": "right"
    },
    {
      "midi": 78,
      "time": 490.5,
      "duration": 0.333,
      "velocity": 0.71,
      "hand": "right"
    },
    {
      "midi": 75,
      "time": 490.75,
      "duration": 0.333,
      "velocity": 0.71,
      "hand": "right"
    },
    {
      "midi": 69,
      "time": 491,
      "duration": 0.333,
      "velocity": 0.71,
      "hand": "right"
    },
    {
      "midi": 71,
      "time": 491.25,
      "duration": 0.333,
      "velocity": 0.71,
      "hand": "right"
    },
    {
      "midi": 72,
      "time": 491.5,
      "duration": 0.333,
      "velocity": 0.71,
      "hand": "right"
    },
    {
      "midi": 73,
      "time": 491.75,
      "duration": 0.333,
      "velocity": 0.71,
      "hand": "right"
    },
    {
      "midi": 69,
      "time": 492,
      "duration": 0.333,
      "velocity": 0.71,
      "hand": "right"
    },
    {
      "midi": 75,
      "time": 492.25,
      "duration": 0.333,
      "velocity": 0.71,
      "hand": "right"
    },
    {
      "midi": 77,
      "time": 492.5,
      "duration": 0.333,
      "velocity": 0.71,
      "hand": "right"
    },
    {
      "midi": 81,
      "time": 492.75,
      "duration": 0.333,
      "velocity": 0.71,
      "hand": "right"
    },
    {
      "midi": 75,
      "time": 493,
      "duration": 0.333,
      "velocity": 0.71,
      "hand": "right"
    },
    {
      "midi": 72,
      "time": 493.25,
      "duration": 0.333,
      "velocity": 0.71,
      "hand": "right"
    },
    {
      "midi": 66,
      "time": 493.5,
      "duration": 0.333,
      "velocity": 0.71,
      "hand": "right"
    },
    {
      "midi": 63,
      "time": 493.75,
      "duration": 0.333,
      "velocity": 0.71,
      "hand": "right"
    },
    {
      "midi": 57,
      "time": 494,
      "duration": 0.333,
      "velocity": 0.71,
      "hand": "right"
    },
    {
      "midi": 59,
      "time": 494.25,
      "duration": 0.333,
      "velocity": 0.71,
      "hand": "right"
    },
    {
      "midi": 60,
      "time": 494.5,
      "duration": 0.333,
      "velocity": 0.71,
      "hand": "right"
    },
    {
      "midi": 61,
      "time": 494.75,
      "duration": 0.333,
      "velocity": 0.71,
      "hand": "right"
    },
    {
      "midi": 57,
      "time": 495,
      "duration": 0.333,
      "velocity": 0.71,
      "hand": "right"
    },
    {
      "midi": 59,
      "time": 495.25,
      "duration": 0.333,
      "velocity": 0.71,
      "hand": "right"
    },
    {
      "midi": 60,
      "time": 495.5,
      "duration": 0.333,
      "velocity": 0.71,
      "hand": "right"
    },
    {
      "midi": 61,
      "time": 495.75,
      "duration": 0.333,
      "velocity": 0.71,
      "hand": "right"
    },
    {
      "midi": 57,
      "time": 496,
      "duration": 0.333,
      "velocity": 0.71,
      "hand": "right"
    },
    {
      "midi": 59,
      "time": 496.25,
      "duration": 0.333,
      "velocity": 0.71,
      "hand": "right"
    },
    {
      "midi": 60,
      "time": 496.5,
      "duration": 0.333,
      "velocity": 0.71,
      "hand": "right"
    },
    {
      "midi": 61,
      "time": 496.75,
      "duration": 0.333,
      "velocity": 0.71,
      "hand": "right"
    },
    {
      "midi": 57,
      "time": 497,
      "duration": 0.333,
      "velocity": 0.71,
      "hand": "right"
    },
    {
      "midi": 59,
      "time": 497.25,
      "duration": 0.333,
      "velocity": 0.71,
      "hand": "right"
    },
    {
      "midi": 60,
      "time": 497.5,
      "duration": 0.333,
      "velocity": 0.71,
      "hand": "right"
    },
    {
      "midi": 61,
      "time": 497.75,
      "duration": 0.333,
      "velocity": 0.71,
      "hand": "right"
    },
    {
      "midi": 57,
      "time": 498,
      "duration": 0.333,
      "velocity": 0.71,
      "hand": "right"
    },
    {
      "midi": 63,
      "time": 498.25,
      "duration": 0.333,
      "velocity": 0.71,
      "hand": "right"
    },
    {
      "midi": 65,
      "time": 498.5,
      "duration": 0.333,
      "velocity": 0.71,
      "hand": "right"
    },
    {
      "midi": 72,
      "time": 498.75,
      "duration": 0.333,
      "velocity": 0.71,
      "hand": "right"
    },
    {
      "midi": 67,
      "time": 499,
      "duration": 0.333,
      "velocity": 0.71,
      "hand": "right"
    },
    {
      "midi": 66,
      "time": 499.25,
      "duration": 0.333,
      "velocity": 0.71,
      "hand": "right"
    },
    {
      "midi": 64,
      "time": 499.5,
      "duration": 0.333,
      "velocity": 0.71,
      "hand": "right"
    },
    {
      "midi": 63,
      "time": 499.75,
      "duration": 0.333,
      "velocity": 0.71,
      "hand": "right"
    },
    {
      "midi": 61,
      "time": 500,
      "duration": 0.333,
      "velocity": 0.71,
      "hand": "right"
    },
    {
      "midi": 60,
      "time": 500.25,
      "duration": 0.333,
      "velocity": 0.71,
      "hand": "right"
    },
    {
      "midi": 58,
      "time": 500.5,
      "duration": 0.333,
      "velocity": 0.71,
      "hand": "right"
    },
    {
      "midi": 57,
      "time": 500.75,
      "duration": 0.333,
      "velocity": 0.71,
      "hand": "right"
    },
    {
      "midi": 55,
      "time": 501,
      "duration": 0.333,
      "velocity": 0.71,
      "hand": "right"
    },
    {
      "midi": 54,
      "time": 501.25,
      "duration": 0.333,
      "velocity": 0.71,
      "hand": "right"
    },
    {
      "midi": 52,
      "time": 501.5,
      "duration": 0.333,
      "velocity": 0.71,
      "hand": "right"
    },
    {
      "midi": 51,
      "time": 501.75,
      "duration": 0.333,
      "velocity": 0.71,
      "hand": "right"
    },
    {
      "midi": 49,
      "time": 502,
      "duration": 0.333,
      "velocity": 0.71,
      "hand": "right"
    },
    {
      "midi": 48,
      "time": 502.25,
      "duration": 0.333,
      "velocity": 0.71,
      "hand": "right"
    },
    {
      "midi": 46,
      "time": 502.5,
      "duration": 0.333,
      "velocity": 0.71,
      "hand": "right"
    },
    {
      "midi": 45,
      "time": 502.75,
      "duration": 0.333,
      "velocity": 0.71,
      "hand": "right"
    },
    {
      "midi": 43,
      "time": 503,
      "duration": 0.333,
      "velocity": 0.71,
      "hand": "right"
    },
    {
      "midi": 42,
      "time": 503.25,
      "duration": 0.333,
      "velocity": 0.71,
      "hand": "right"
    },
    {
      "midi": 40,
      "time": 503.5,
      "duration": 0.333,
      "velocity": 0.71,
      "hand": "right"
    },
    {
      "midi": 39,
      "time": 503.75,
      "duration": 0.333,
      "velocity": 0.71,
      "hand": "right"
    },
    {
      "midi": 37,
      "time": 504,
      "duration": 0.333,
      "velocity": 0.71,
      "hand": "right"
    },
    {
      "midi": 46,
      "time": 504.25,
      "duration": 0.333,
      "velocity": 0.71,
      "hand": "right"
    },
    {
      "midi": 48,
      "time": 504.5,
      "duration": 0.333,
      "velocity": 0.71,
      "hand": "right"
    },
    {
      "midi": 51,
      "time": 504.75,
      "duration": 0.333,
      "velocity": 0.71,
      "hand": "right"
    },
    {
      "midi": 77,
      "time": 505,
      "duration": 0.5,
      "velocity": 0.71,
      "hand": "right"
    },
    {
      "midi": 56,
      "time": 505.25,
      "duration": 0.333,
      "velocity": 0.71,
      "hand": "right"
    },
    {
      "midi": 77,
      "time": 505.5,
      "duration": 1.5,
      "velocity": 0.71,
      "hand": "right"
    },
    {
      "midi": 58,
      "time": 505.75,
      "duration": 0.333,
      "velocity": 0.71,
      "hand": "right"
    },
    {
      "midi": 60,
      "time": 506,
      "duration": 0.333,
      "velocity": 0.71,
      "hand": "right"
    },
    {
      "midi": 63,
      "time": 506.25,
      "duration": 0.333,
      "velocity": 0.71,
      "hand": "right"
    },
    {
      "midi": 65,
      "time": 506.5,
      "duration": 0.5,
      "velocity": 0.71,
      "hand": "right"
    },
    {
      "midi": 73,
      "time": 507,
      "duration": 1,
      "velocity": 0.71,
      "hand": "right"
    },
    {
      "midi": 46,
      "time": 507.25,
      "duration": 0.333,
      "velocity": 0.71,
      "hand": "right"
    },
    {
      "midi": 48,
      "time": 507.5,
      "duration": 0.333,
      "velocity": 0.71,
      "hand": "right"
    },
    {
      "midi": 51,
      "time": 507.75,
      "duration": 0.333,
      "velocity": 0.71,
      "hand": "right"
    },
    {
      "midi": 70,
      "time": 508,
      "duration": 0.5,
      "velocity": 0.71,
      "hand": "right"
    },
    {
      "midi": 56,
      "time": 508.25,
      "duration": 0.333,
      "velocity": 0.71,
      "hand": "right"
    },
    {
      "midi": 70,
      "time": 508.5,
      "duration": 1,
      "velocity": 0.71,
      "hand": "right"
    },
    {
      "midi": 60,
      "time": 508.75,
      "duration": 0.333,
      "velocity": 0.71,
      "hand": "right"
    },
    {
      "midi": 61,
      "time": 509,
      "duration": 0.333,
      "velocity": 0.71,
      "hand": "right"
    },
    {
      "midi": 65,
      "time": 509.25,
      "duration": 0.333,
      "velocity": 0.71,
      "hand": "right"
    },
    {
      "midi": 68,
      "time": 509.5,
      "duration": 0.5,
      "velocity": 0.71,
      "hand": "right"
    },
    {
      "midi": 68,
      "time": 510,
      "duration": 1,
      "velocity": 0.71,
      "hand": "right"
    },
    {
      "midi": 46,
      "time": 510.25,
      "duration": 0.333,
      "velocity": 0.71,
      "hand": "right"
    },
    {
      "midi": 65,
      "time": 510.5,
      "duration": 0.5,
      "velocity": 0.71,
      "hand": "right"
    },
    {
      "midi": 51,
      "time": 510.75,
      "duration": 0.333,
      "velocity": 0.71,
      "hand": "right"
    },
    {
      "midi": 77,
      "time": 511,
      "duration": 0.5,
      "velocity": 0.71,
      "hand": "right"
    },
    {
      "midi": 56,
      "time": 511.25,
      "duration": 0.333,
      "velocity": 0.71,
      "hand": "right"
    },
    {
      "midi": 73,
      "time": 511.5,
      "duration": 1,
      "velocity": 0.71,
      "hand": "right"
    },
    {
      "midi": 58,
      "time": 511.75,
      "duration": 0.333,
      "velocity": 0.71,
      "hand": "right"
    },
    {
      "midi": 59,
      "time": 512,
      "duration": 0.333,
      "velocity": 0.71,
      "hand": "right"
    },
    {
      "midi": 63,
      "time": 512.25,
      "duration": 0.333,
      "velocity": 0.71,
      "hand": "right"
    },
    {
      "midi": 82,
      "time": 512.5,
      "duration": 0.5,
      "velocity": 0.71,
      "hand": "right"
    },
    {
      "midi": 82,
      "time": 513,
      "duration": 0.5,
      "velocity": 0.71,
      "hand": "right"
    },
    {
      "midi": 49,
      "time": 513.25,
      "duration": 0.333,
      "velocity": 0.71,
      "hand": "right"
    },
    {
      "midi": 80,
      "time": 513.5,
      "duration": 0.5,
      "velocity": 0.71,
      "hand": "right"
    },
    {
      "midi": 61,
      "time": 513.75,
      "duration": 0.333,
      "velocity": 0.71,
      "hand": "right"
    },
    {
      "midi": 79,
      "time": 514,
      "duration": 0.5,
      "velocity": 0.71,
      "hand": "right"
    },
    {
      "midi": 65,
      "time": 514.25,
      "duration": 0.333,
      "velocity": 0.71,
      "hand": "right"
    },
    {
      "midi": 80,
      "time": 514.5,
      "duration": 1.5,
      "velocity": 0.71,
      "hand": "right"
    },
    {
      "midi": 68,
      "time": 514.75,
      "duration": 0.333,
      "velocity": 0.71,
      "hand": "right"
    },
    {
      "midi": 61,
      "time": 515,
      "duration": 0.333,
      "velocity": 0.71,
      "hand": "right"
    },
    {
      "midi": 56,
      "time": 515.25,
      "duration": 0.333,
      "velocity": 0.71,
      "hand": "right"
    },
    {
      "midi": 49,
      "time": 515.5,
      "duration": 0.333,
      "velocity": 0.71,
      "hand": "right"
    },
    {
      "midi": 56,
      "time": 515.75,
      "duration": 0.333,
      "velocity": 0.71,
      "hand": "right"
    },
    {
      "midi": 80,
      "time": 516,
      "duration": 1,
      "velocity": 0.71,
      "hand": "right"
    },
    {
      "midi": 49,
      "time": 516.25,
      "duration": 0.333,
      "velocity": 0.71,
      "hand": "right"
    },
    {
      "midi": 56,
      "time": 516.5,
      "duration": 0.333,
      "velocity": 0.71,
      "hand": "right"
    },
    {
      "midi": 49,
      "time": 516.75,
      "duration": 0.333,
      "velocity": 0.71,
      "hand": "right"
    },
    {
      "midi": 73,
      "time": 517,
      "duration": 0.5,
      "velocity": 0.71,
      "hand": "right"
    },
    {
      "midi": 61,
      "time": 517.25,
      "duration": 0.333,
      "velocity": 0.71,
      "hand": "right"
    },
    {
      "midi": 73,
      "time": 517.5,
      "duration": 3,
      "velocity": 0.71,
      "hand": "right"
    },
    {
      "midi": 56,
      "time": 517.75,
      "duration": 0.333,
      "velocity": 0.71,
      "hand": "right"
    },
    {
      "midi": 61,
      "time": 518,
      "duration": 0.333,
      "velocity": 0.71,
      "hand": "right"
    },
    {
      "midi": 68,
      "time": 518.25,
      "duration": 0.333,
      "velocity": 0.71,
      "hand": "right"
    },
    {
      "midi": 56,
      "time": 518.5,
      "duration": 0.333,
      "velocity": 0.71,
      "hand": "right"
    },
    {
      "midi": 56,
      "time": 518.75,
      "duration": 0.333,
      "velocity": 0.71,
      "hand": "right"
    },
    {
      "midi": 61,
      "time": 519,
      "duration": 0.333,
      "velocity": 0.71,
      "hand": "right"
    },
    {
      "midi": 56,
      "time": 519.25,
      "duration": 0.333,
      "velocity": 0.71,
      "hand": "right"
    },
    {
      "midi": 44,
      "time": 519.5,
      "duration": 0.333,
      "velocity": 0.71,
      "hand": "right"
    },
    {
      "midi": 56,
      "time": 519.75,
      "duration": 0.333,
      "velocity": 0.71,
      "hand": "right"
    },
    {
      "midi": 49,
      "time": 520,
      "duration": 0.333,
      "velocity": 0.71,
      "hand": "right"
    },
    {
      "midi": 44,
      "time": 520.25,
      "duration": 0.333,
      "velocity": 0.71,
      "hand": "right"
    },
    {
      "midi": 73,
      "time": 520.5,
      "duration": 1,
      "velocity": 0.71,
      "hand": "right"
    },
    {
      "midi": 49,
      "time": 520.75,
      "duration": 0.333,
      "velocity": 0.71,
      "hand": "right"
    },
    {
      "midi": 61,
      "time": 521,
      "duration": 0.333,
      "velocity": 0.71,
      "hand": "right"
    },
    {
      "midi": 54,
      "time": 521.25,
      "duration": 0.333,
      "velocity": 0.71,
      "hand": "right"
    },
    {
      "midi": 78,
      "time": 521.5,
      "duration": 0.5,
      "velocity": 0.71,
      "hand": "right"
    },
    {
      "midi": 54,
      "time": 521.75,
      "duration": 0.333,
      "velocity": 0.71,
      "hand": "right"
    },
    {
      "midi": 78,
      "time": 522,
      "duration": 0.333,
      "velocity": 0.71,
      "hand": "right"
    },
    {
      "midi": 70,
      "time": 522.25,
      "duration": 0.333,
      "velocity": 0.71,
      "hand": "right"
    },
    {
      "midi": 58,
      "time": 522.5,
      "duration": 0.333,
      "velocity": 0.71,
      "hand": "right"
    },
    {
      "midi": 70,
      "time": 522.75,
      "duration": 0.333,
      "velocity": 0.71,
      "hand": "right"
    },
    {
      "midi": 66,
      "time": 523,
      "duration": 0.333,
      "velocity": 0.71,
      "hand": "right"
    },
    {
      "midi": 72,
      "time": 523.25,
      "duration": 0.333,
      "velocity": 0.71,
      "hand": "right"
    },
    {
      "midi": 66,
      "time": 523.5,
      "duration": 0.333,
      "velocity": 0.71,
      "hand": "right"
    },
    {
      "midi": 70,
      "time": 523.75,
      "duration": 0.333,
      "velocity": 0.71,
      "hand": "right"
    },
    {
      "midi": 73,
      "time": 524,
      "duration": 0.333,
      "velocity": 0.71,
      "hand": "right"
    },
    {
      "midi": 70,
      "time": 524.25,
      "duration": 0.333,
      "velocity": 0.71,
      "hand": "right"
    },
    {
      "midi": 66,
      "time": 524.5,
      "duration": 0.333,
      "velocity": 0.71,
      "hand": "right"
    },
    {
      "midi": 78,
      "time": 524.75,
      "duration": 0.333,
      "velocity": 0.71,
      "hand": "right"
    },
    {
      "midi": 73,
      "time": 525,
      "duration": 0.333,
      "velocity": 0.71,
      "hand": "right"
    },
    {
      "midi": 77,
      "time": 525.25,
      "duration": 0.333,
      "velocity": 0.71,
      "hand": "right"
    },
    {
      "midi": 70,
      "time": 525.5,
      "duration": 0.333,
      "velocity": 0.71,
      "hand": "right"
    },
    {
      "midi": 73,
      "time": 525.75,
      "duration": 0.333,
      "velocity": 0.71,
      "hand": "right"
    },
    {
      "midi": 77,
      "time": 526,
      "duration": 0.333,
      "velocity": 0.71,
      "hand": "right"
    },
    {
      "midi": 72,
      "time": 526.25,
      "duration": 0.333,
      "velocity": 0.71,
      "hand": "right"
    },
    {
      "midi": 66,
      "time": 526.5,
      "duration": 0.333,
      "velocity": 0.71,
      "hand": "right"
    },
    {
      "midi": 75,
      "time": 526.75,
      "duration": 0.333,
      "velocity": 0.71,
      "hand": "right"
    },
    {
      "midi": 72,
      "time": 527,
      "duration": 0.333,
      "velocity": 0.71,
      "hand": "right"
    },
    {
      "midi": 72,
      "time": 527.25,
      "duration": 0.333,
      "velocity": 0.71,
      "hand": "right"
    },
    {
      "midi": 66,
      "time": 527.5,
      "duration": 0.333,
      "velocity": 0.71,
      "hand": "right"
    },
    {
      "midi": 70,
      "time": 527.75,
      "duration": 0.333,
      "velocity": 0.71,
      "hand": "right"
    },
    {
      "midi": 70,
      "time": 528,
      "duration": 0.5,
      "velocity": 0.71,
      "hand": "right"
    },
    {
      "midi": 46,
      "time": 528.25,
      "duration": 0.333,
      "velocity": 0.53,
      "hand": "right"
    },
    {
      "midi": 68,
      "time": 528.5,
      "duration": 0.5,
      "velocity": 0.71,
      "hand": "right"
    },
    {
      "midi": 51,
      "time": 528.75,
      "duration": 0.333,
      "velocity": 0.57,
      "hand": "right"
    },
    {
      "midi": 89,
      "time": 529,
      "duration": 0.5,
      "velocity": 0.71,
      "hand": "right"
    },
    {
      "midi": 56,
      "time": 529.25,
      "duration": 0.333,
      "velocity": 0.61,
      "hand": "right"
    },
    {
      "midi": 89,
      "time": 529.5,
      "duration": 1,
      "velocity": 0.71,
      "hand": "right"
    },
    {
      "midi": 58,
      "time": 529.75,
      "duration": 0.333,
      "velocity": 0.66,
      "hand": "right"
    },
    {
      "midi": 60,
      "time": 530,
      "duration": 0.333,
      "velocity": 0.68,
      "hand": "right"
    },
    {
      "midi": 63,
      "time": 530.25,
      "duration": 0.333,
      "velocity": 0.71,
      "hand": "right"
    },
    {
      "midi": 85,
      "time": 530.5,
      "duration": 0.5,
      "velocity": 0.71,
      "hand": "right"
    },
    {
      "midi": 85,
      "time": 531,
      "duration": 0.5,
      "velocity": 0.71,
      "hand": "right"
    },
    {
      "midi": 46,
      "time": 531.25,
      "duration": 0.333,
      "velocity": 0.75,
      "hand": "right"
    },
    {
      "midi": 65,
      "time": 531.5,
      "duration": 0.5,
      "velocity": 0.71,
      "hand": "right"
    },
    {
      "midi": 51,
      "time": 531.75,
      "duration": 0.333,
      "velocity": 0.8,
      "hand": "right"
    },
    {
      "midi": 82,
      "time": 532,
      "duration": 0.5,
      "velocity": 0.71,
      "hand": "right"
    },
    {
      "midi": 56,
      "time": 532.25,
      "duration": 0.333,
      "velocity": 0.84,
      "hand": "right"
    },
    {
      "midi": 82,
      "time": 532.5,
      "duration": 1,
      "velocity": 0.71,
      "hand": "right"
    },
    {
      "midi": 60,
      "time": 532.75,
      "duration": 0.333,
      "velocity": 0.89,
      "hand": "right"
    },
    {
      "midi": 70,
      "time": 533,
      "duration": 0.5,
      "velocity": 0.71,
      "hand": "right"
    },
    {
      "midi": 65,
      "time": 533.25,
      "duration": 0.333,
      "velocity": 0.93,
      "hand": "right"
    },
    {
      "midi": 80,
      "time": 533.5,
      "duration": 0.5,
      "velocity": 0.71,
      "hand": "right"
    },
    {
      "midi": 80,
      "time": 534,
      "duration": 1,
      "velocity": 0.71,
      "hand": "right"
    },
    {
      "midi": 46,
      "time": 534.25,
      "duration": 0.333,
      "velocity": 0.94,
      "hand": "right"
    },
    {
      "midi": 73,
      "time": 534.5,
      "duration": 0.5,
      "velocity": 0.71,
      "hand": "right"
    },
    {
      "midi": 51,
      "time": 534.75,
      "duration": 0.333,
      "velocity": 0.94,
      "hand": "right"
    },
    {
      "midi": 89,
      "time": 535,
      "duration": 0.5,
      "velocity": 0.71,
      "hand": "right"
    },
    {
      "midi": 56,
      "time": 535.25,
      "duration": 0.333,
      "velocity": 0.94,
      "hand": "right"
    },
    {
      "midi": 85,
      "time": 535.5,
      "duration": 1,
      "velocity": 0.71,
      "hand": "right"
    },
    {
      "midi": 58,
      "time": 535.75,
      "duration": 0.333,
      "velocity": 0.94,
      "hand": "right"
    },
    {
      "midi": 60,
      "time": 536,
      "duration": 0.333,
      "velocity": 0.94,
      "hand": "right"
    },
    {
      "midi": 63,
      "time": 536.25,
      "duration": 0.333,
      "velocity": 0.94,
      "hand": "right"
    },
    {
      "midi": 94,
      "time": 536.5,
      "duration": 0.5,
      "velocity": 0.71,
      "hand": "right"
    },
    {
      "midi": 94,
      "time": 537,
      "duration": 0.5,
      "velocity": 0.71,
      "hand": "right"
    },
    {
      "midi": 51,
      "time": 537.25,
      "duration": 0.333,
      "velocity": 0.94,
      "hand": "right"
    },
    {
      "midi": 92,
      "time": 537.5,
      "duration": 0.5,
      "velocity": 0.71,
      "hand": "right"
    },
    {
      "midi": 56,
      "time": 537.75,
      "duration": 0.333,
      "velocity": 0.94,
      "hand": "right"
    },
    {
      "midi": 91,
      "time": 538,
      "duration": 0.5,
      "velocity": 0.71,
      "hand": "right"
    },
    {
      "midi": 68,
      "time": 538.25,
      "duration": 0.333,
      "velocity": 0.94,
      "hand": "right"
    },
    {
      "midi": 92,
      "time": 538.5,
      "duration": 1,
      "velocity": 0.71,
      "hand": "right"
    },
    {
      "midi": 75,
      "time": 538.75,
      "duration": 0.333,
      "velocity": 0.94,
      "hand": "right"
    },
    {
      "midi": 63,
      "time": 539,
      "duration": 0.333,
      "velocity": 0.94,
      "hand": "right"
    },
    {
      "midi": 60,
      "time": 539.25,
      "duration": 0.333,
      "velocity": 0.94,
      "hand": "right"
    },
    {
      "midi": 80,
      "time": 539.5,
      "duration": 0.5,
      "velocity": 0.71,
      "hand": "right"
    },
    {
      "midi": 48,
      "time": 539.75,
      "duration": 0.333,
      "velocity": 0.94,
      "hand": "right"
    },
    {
      "midi": 80,
      "time": 540,
      "duration": 1,
      "velocity": 0.71,
      "hand": "right"
    },
    {
      "midi": 47,
      "time": 540.5,
      "duration": 0.333,
      "velocity": 0.94,
      "hand": "right"
    },
    {
      "midi": 53,
      "time": 540.75,
      "duration": 0.333,
      "velocity": 0.94,
      "hand": "right"
    },
    {
      "midi": 73,
      "time": 541,
      "duration": 0.5,
      "velocity": 0.71,
      "hand": "right"
    },
    {
      "midi": 53,
      "time": 541.25,
      "duration": 0.333,
      "velocity": 0.94,
      "hand": "right"
    },
    {
      "midi": 73,
      "time": 541.5,
      "duration": 1,
      "velocity": 0.71,
      "hand": "right"
    },
    {
      "midi": 54,
      "time": 541.75,
      "duration": 0.333,
      "velocity": 0.94,
      "hand": "right"
    },
    {
      "midi": 67,
      "time": 542,
      "duration": 0.5,
      "velocity": 0.71,
      "hand": "right"
    },
    {
      "midi": 54,
      "time": 542.25,
      "duration": 0.333,
      "velocity": 0.94,
      "hand": "right"
    },
    {
      "midi": 78,
      "time": 542.5,
      "duration": 0.5,
      "velocity": 0.71,
      "hand": "right"
    },
    {
      "midi": 54,
      "time": 542.75,
      "duration": 0.333,
      "velocity": 0.94,
      "hand": "right"
    },
    {
      "midi": 77,
      "time": 543,
      "duration": 1,
      "velocity": 0.71,
      "hand": "right"
    },
    {
      "midi": 53,
      "time": 543.25,
      "duration": 0.333,
      "velocity": 0.94,
      "hand": "right"
    },
    {
      "midi": 60,
      "time": 543.5,
      "duration": 0.333,
      "velocity": 0.94,
      "hand": "right"
    },
    {
      "midi": 53,
      "time": 543.75,
      "duration": 0.333,
      "velocity": 0.94,
      "hand": "right"
    },
    {
      "midi": 83,
      "time": 544,
      "duration": 0.5,
      "velocity": 0.71,
      "hand": "right"
    },
    {
      "midi": 53,
      "time": 544.25,
      "duration": 0.333,
      "velocity": 0.94,
      "hand": "right"
    },
    {
      "midi": 83,
      "time": 544.5,
      "duration": 1,
      "velocity": 0.71,
      "hand": "right"
    },
    {
      "midi": 54,
      "time": 544.75,
      "duration": 0.333,
      "velocity": 0.94,
      "hand": "right"
    },
    {
      "midi": 63,
      "time": 545,
      "duration": 0.333,
      "velocity": 0.94,
      "hand": "right"
    },
    {
      "midi": 54,
      "time": 545.25,
      "duration": 0.333,
      "velocity": 0.94,
      "hand": "right"
    },
    {
      "midi": 82,
      "time": 545.5,
      "duration": 0.5,
      "velocity": 0.71,
      "hand": "right"
    },
    {
      "midi": 54,
      "time": 545.75,
      "duration": 0.333,
      "velocity": 0.94,
      "hand": "right"
    },
    {
      "midi": 82,
      "time": 546,
      "duration": 1,
      "velocity": 0.71,
      "hand": "right"
    },
    {
      "midi": 51,
      "time": 546.25,
      "duration": 0.333,
      "velocity": 0.94,
      "hand": "right"
    },
    {
      "midi": 57,
      "time": 546.5,
      "duration": 0.333,
      "velocity": 0.94,
      "hand": "right"
    },
    {
      "midi": 51,
      "time": 546.75,
      "duration": 0.333,
      "velocity": 0.94,
      "hand": "right"
    },
    {
      "midi": 75,
      "time": 547,
      "duration": 0.5,
      "velocity": 0.71,
      "hand": "right"
    },
    {
      "midi": 51,
      "time": 547.25,
      "duration": 0.333,
      "velocity": 0.94,
      "hand": "right"
    },
    {
      "midi": 75,
      "time": 547.5,
      "duration": 1,
      "velocity": 0.71,
      "hand": "right"
    },
    {
      "midi": 56,
      "time": 547.75,
      "duration": 0.333,
      "velocity": 0.94,
      "hand": "right"
    },
    {
      "midi": 69,
      "time": 548,
      "duration": 0.5,
      "velocity": 0.71,
      "hand": "right"
    },
    {
      "midi": 56,
      "time": 548.25,
      "duration": 0.333,
      "velocity": 0.94,
      "hand": "right"
    },
    {
      "midi": 80,
      "time": 548.5,
      "duration": 0.5,
      "velocity": 0.71,
      "hand": "right"
    },
    {
      "midi": 56,
      "time": 548.75,
      "duration": 0.333,
      "velocity": 0.94,
      "hand": "right"
    },
    {
      "midi": 80,
      "time": 549,
      "duration": 0.5,
      "velocity": 0.71,
      "hand": "right"
    },
    {
      "midi": 55,
      "time": 549.25,
      "duration": 0.333,
      "velocity": 0.94,
      "hand": "right"
    },
    {
      "midi": 79,
      "time": 549.5,
      "duration": 0.5,
      "velocity": 0.71,
      "hand": "right"
    },
    {
      "midi": 55,
      "time": 549.75,
      "duration": 0.333,
      "velocity": 0.94,
      "hand": "right"
    },
    {
      "midi": 85,
      "time": 550,
      "duration": 0.5,
      "velocity": 0.71,
      "hand": "right"
    },
    {
      "midi": 55,
      "time": 550.25,
      "duration": 0.333,
      "velocity": 0.94,
      "hand": "right"
    },
    {
      "midi": 85,
      "time": 550.5,
      "duration": 1,
      "velocity": 0.71,
      "hand": "right"
    },
    {
      "midi": 56,
      "time": 550.75,
      "duration": 0.333,
      "velocity": 0.94,
      "hand": "right"
    },
    {
      "midi": 63,
      "time": 551,
      "duration": 0.333,
      "velocity": 0.94,
      "hand": "right"
    },
    {
      "midi": 56,
      "time": 551.25,
      "duration": 0.333,
      "velocity": 0.94,
      "hand": "right"
    },
    {
      "midi": 84,
      "time": 551.5,
      "duration": 0.5,
      "velocity": 0.71,
      "hand": "right"
    },
    {
      "midi": 63,
      "time": 551.75,
      "duration": 0.333,
      "velocity": 0.94,
      "hand": "right"
    },
    {
      "midi": 84,
      "time": 552,
      "duration": 0.5,
      "velocity": 0.71,
      "hand": "right"
    },
    {
      "midi": 54,
      "time": 552.25,
      "duration": 0.333,
      "velocity": 0.94,
      "hand": "right"
    },
    {
      "midi": 82,
      "time": 552.5,
      "duration": 0.5,
      "velocity": 0.71,
      "hand": "right"
    },
    {
      "midi": 54,
      "time": 552.75,
      "duration": 0.333,
      "velocity": 0.94,
      "hand": "right"
    },
    {
      "midi": 78,
      "time": 553,
      "duration": 0.5,
      "velocity": 0.71,
      "hand": "right"
    },
    {
      "midi": 54,
      "time": 553.25,
      "duration": 0.333,
      "velocity": 0.94,
      "hand": "right"
    },
    {
      "midi": 73,
      "time": 553.5,
      "duration": 0.5,
      "velocity": 0.71,
      "hand": "right"
    },
    {
      "midi": 42,
      "time": 553.75,
      "duration": 0.333,
      "velocity": 0.94,
      "hand": "right"
    },
    {
      "midi": 70,
      "time": 554,
      "duration": 0.75,
      "velocity": 0.71,
      "hand": "right"
    },
    {
      "midi": 49,
      "time": 554.25,
      "duration": 0.333,
      "velocity": 0.94,
      "hand": "right"
    },
    {
      "midi": 42,
      "time": 554.5,
      "duration": 0.333,
      "velocity": 0.94,
      "hand": "right"
    },
    {
      "midi": 68,
      "time": 554.75,
      "duration": 0.333,
      "velocity": 0.71,
      "hand": "right"
    },
    {
      "midi": 68,
      "time": 555,
      "duration": 1,
      "velocity": 0.71,
      "hand": "right"
    },
    {
      "midi": 42,
      "time": 555.25,
      "duration": 0.333,
      "velocity": 0.94,
      "hand": "right"
    },
    {
      "midi": 49,
      "time": 555.5,
      "duration": 0.333,
      "velocity": 0.94,
      "hand": "right"
    },
    {
      "midi": 49,
      "time": 555.75,
      "duration": 0.333,
      "velocity": 0.94,
      "hand": "right"
    },
    {
      "midi": 66,
      "time": 556,
      "duration": 1,
      "velocity": 0.71,
      "hand": "right"
    },
    {
      "midi": 49,
      "time": 556.25,
      "duration": 0.333,
      "velocity": 0.94,
      "hand": "right"
    },
    {
      "midi": 34,
      "time": 556.5,
      "duration": 0.333,
      "velocity": 0.94,
      "hand": "right"
    },
    {
      "midi": 42,
      "time": 556.75,
      "duration": 0.333,
      "velocity": 0.94,
      "hand": "right"
    },
    {
      "midi": 65,
      "time": 557,
      "duration": 0.75,
      "velocity": 0.71,
      "hand": "right"
    },
    {
      "midi": 49,
      "time": 557.25,
      "duration": 0.333,
      "velocity": 0.94,
      "hand": "right"
    },
    {
      "midi": 42,
      "time": 557.5,
      "duration": 0.333,
      "velocity": 0.94,
      "hand": "right"
    },
    {
      "midi": 66,
      "time": 557.75,
      "duration": 0.333,
      "velocity": 0.71,
      "hand": "right"
    },
    {
      "midi": 67,
      "time": 558,
      "duration": 1,
      "velocity": 0.71,
      "hand": "right"
    },
    {
      "midi": 41,
      "time": 558.25,
      "duration": 0.333,
      "velocity": 0.94,
      "hand": "right"
    },
    {
      "midi": 49,
      "time": 558.5,
      "duration": 0.333,
      "velocity": 0.94,
      "hand": "right"
    },
    {
      "midi": 49,
      "time": 558.75,
      "duration": 0.333,
      "velocity": 0.94,
      "hand": "right"
    },
    {
      "midi": 67,
      "time": 559,
      "duration": 0.5,
      "velocity": 0.71,
      "hand": "right"
    },
    {
      "midi": 49,
      "time": 559.25,
      "duration": 0.333,
      "velocity": 0.94,
      "hand": "right"
    },
    {
      "midi": 68,
      "time": 559.5,
      "duration": 1,
      "velocity": 0.71,
      "hand": "right"
    },
    {
      "midi": 41,
      "time": 559.75,
      "duration": 0.333,
      "velocity": 0.71,
      "hand": "right"
    },
    {
      "midi": 48,
      "time": 560,
      "duration": 0.333,
      "velocity": 0.71,
      "hand": "right"
    },
    {
      "midi": 50,
      "time": 560.25,
      "duration": 0.333,
      "velocity": 0.8,
      "hand": "right"
    },
    {
      "midi": 69,
      "time": 560.5,
      "duration": 0.5,
      "velocity": 0.71,
      "hand": "right"
    },
    {
      "midi": 53,
      "time": 560.75,
      "duration": 0.333,
      "velocity": 0.93,
      "hand": "right"
    },
    {
      "midi": 72,
      "time": 561,
      "duration": 1,
      "velocity": 0.71,
      "hand": "right"
    },
    {
      "midi": 46,
      "time": 561.25,
      "duration": 0.333,
      "velocity": 0.93,
      "hand": "right"
    },
    {
      "midi": 48,
      "time": 561.5,
      "duration": 0.333,
      "velocity": 0.93,
      "hand": "right"
    },
    {
      "midi": 50,
      "time": 561.75,
      "duration": 0.333,
      "velocity": 0.96,
      "hand": "right"
    },
    {
      "midi": 70,
      "time": 562,
      "duration": 0.5,
      "velocity": 0.71,
      "hand": "right"
    },
    {
      "midi": 53,
      "time": 562.25,
      "duration": 0.333,
      "velocity": 1,
      "hand": "right"
    },
    {
      "midi": 73,
      "time": 562.5,
      "duration": 0.5,
      "velocity": 0.71,
      "hand": "right"
    },
    {
      "midi": 48,
      "time": 562.75,
      "duration": 0.333,
      "velocity": 1,
      "hand": "right"
    },
    {
      "midi": 71,
      "time": 563,
      "duration": 0.5,
      "velocity": 0.71,
      "hand": "right"
    },
    {
      "midi": 52,
      "time": 563.25,
      "duration": 0.333,
      "velocity": 1,
      "hand": "right"
    },
    {
      "midi": 72,
      "time": 563.5,
      "duration": 0.5,
      "velocity": 0.71,
      "hand": "right"
    },
    {
      "midi": 55,
      "time": 563.75,
      "duration": 0.333,
      "velocity": 1,
      "hand": "right"
    },
    {
      "midi": 75,
      "time": 564,
      "duration": 1,
      "velocity": 0.71,
      "hand": "right"
    },
    {
      "midi": 49,
      "time": 564.25,
      "duration": 0.333,
      "velocity": 1,
      "hand": "right"
    },
    {
      "midi": 51,
      "time": 564.5,
      "duration": 0.333,
      "velocity": 1,
      "hand": "right"
    },
    {
      "midi": 53,
      "time": 564.75,
      "duration": 0.333,
      "velocity": 1,
      "hand": "right"
    },
    {
      "midi": 73,
      "time": 565,
      "duration": 0.5,
      "velocity": 0.71,
      "hand": "right"
    },
    {
      "midi": 56,
      "time": 565.25,
      "duration": 0.333,
      "velocity": 1,
      "hand": "right"
    },
    {
      "midi": 43,
      "time": 565.5,
      "duration": 0.5,
      "velocity": 1,
      "hand": "right"
    },
    {
      "midi": 52,
      "time": 565.75,
      "duration": 0.333,
      "velocity": 1,
      "hand": "right"
    },
    {
      "midi": 75,
      "time": 566,
      "duration": 0.5,
      "velocity": 0.71,
      "hand": "right"
    },
    {
      "midi": 55,
      "time": 566.25,
      "duration": 0.333,
      "velocity": 1,
      "hand": "right"
    },
    {
      "midi": 76,
      "time": 566.5,
      "duration": 0.5,
      "velocity": 0.71,
      "hand": "right"
    },
    {
      "midi": 58,
      "time": 566.75,
      "duration": 0.333,
      "velocity": 1,
      "hand": "right"
    },
    {
      "midi": 77,
      "time": 567,
      "duration": 0.5,
      "velocity": 0.71,
      "hand": "right"
    },
    {
      "midi": 75,
      "time": 567.25,
      "duration": 0.333,
      "velocity": 0.71,
      "hand": "right"
    },
    {
      "midi": 82,
      "time": 567.5,
      "duration": 0.5,
      "velocity": 0.71,
      "hand": "right"
    },
    {
      "midi": 65,
      "time": 567.75,
      "duration": 0.333,
      "velocity": 0.94,
      "hand": "right"
    },
    {
      "midi": 80,
      "time": 568,
      "duration": 0.5,
      "velocity": 0.71,
      "hand": "right"
    },
    {
      "midi": 56,
      "time": 568.25,
      "duration": 0.333,
      "velocity": 0.94,
      "hand": "right"
    },
    {
      "midi": 80,
      "time": 568.5,
      "duration": 1,
      "velocity": 0.71,
      "hand": "right"
    },
    {
      "midi": 51,
      "time": 568.75,
      "duration": 0.333,
      "velocity": 0.94,
      "hand": "right"
    },
    {
      "midi": 60,
      "time": 569,
      "duration": 0.333,
      "velocity": 0.94,
      "hand": "right"
    },
    {
      "midi": 66,
      "time": 569.25,
      "duration": 0.333,
      "velocity": 0.94,
      "hand": "right"
    },
    {
      "midi": 78,
      "time": 569.5,
      "duration": 0.5,
      "velocity": 0.71,
      "hand": "right"
    },
    {
      "midi": 56,
      "time": 569.75,
      "duration": 0.333,
      "velocity": 0.94,
      "hand": "right"
    },
    {
      "midi": 77,
      "time": 570,
      "duration": 0.5,
      "velocity": 0.71,
      "hand": "right"
    },
    {
      "midi": 49,
      "time": 570.5,
      "duration": 0.333,
      "velocity": 0.94,
      "hand": "right"
    },
    {
      "midi": 68,
      "time": 570.75,
      "duration": 0.333,
      "velocity": 0.71,
      "hand": "right"
    },
    {
      "midi": 77,
      "time": 571,
      "duration": 0.333,
      "velocity": 0.71,
      "hand": "right"
    },
    {
      "midi": 80,
      "time": 571.25,
      "duration": 0.333,
      "velocity": 0.71,
      "hand": "right"
    },
    {
      "midi": 89,
      "time": 571.5,
      "duration": 0.333,
      "velocity": 0.71,
      "hand": "right"
    },
    {
      "midi": 80,
      "time": 571.75,
      "duration": 0.333,
      "velocity": 0.71,
      "hand": "right"
    },
    {
      "midi": 77,
      "time": 572,
      "duration": 0.333,
      "velocity": 0.71,
      "hand": "right"
    },
    {
      "midi": 68,
      "time": 572.25,
      "duration": 0.333,
      "velocity": 0.71,
      "hand": "right"
    },
    {
      "midi": 65,
      "time": 572.5,
      "duration": 0.333,
      "velocity": 0.71,
      "hand": "right"
    },
    {
      "midi": 56,
      "time": 572.75,
      "duration": 0.333,
      "velocity": 0.71,
      "hand": "right"
    },
    {
      "midi": 65,
      "time": 573,
      "duration": 0.333,
      "velocity": 0.71,
      "hand": "right"
    },
    {
      "midi": 57,
      "time": 573.25,
      "duration": 0.333,
      "velocity": 0.71,
      "hand": "right"
    },
    {
      "midi": 65,
      "time": 573.5,
      "duration": 0.333,
      "velocity": 0.71,
      "hand": "right"
    },
    {
      "midi": 69,
      "time": 573.75,
      "duration": 0.333,
      "velocity": 0.71,
      "hand": "right"
    },
    {
      "midi": 77,
      "time": 574,
      "duration": 0.333,
      "velocity": 0.71,
      "hand": "right"
    },
    {
      "midi": 81,
      "time": 574.25,
      "duration": 0.333,
      "velocity": 0.71,
      "hand": "right"
    },
    {
      "midi": 89,
      "time": 574.5,
      "duration": 0.333,
      "velocity": 0.71,
      "hand": "right"
    },
    {
      "midi": 81,
      "time": 574.75,
      "duration": 0.333,
      "velocity": 0.71,
      "hand": "right"
    },
    {
      "midi": 77,
      "time": 575,
      "duration": 0.333,
      "velocity": 0.71,
      "hand": "right"
    },
    {
      "midi": 69,
      "time": 575.25,
      "duration": 0.333,
      "velocity": 0.71,
      "hand": "right"
    },
    {
      "midi": 65,
      "time": 575.5,
      "duration": 0.333,
      "velocity": 0.71,
      "hand": "right"
    },
    {
      "midi": 57,
      "time": 575.75,
      "duration": 0.333,
      "velocity": 0.71,
      "hand": "right"
    },
    {
      "midi": 65,
      "time": 576,
      "duration": 0.333,
      "velocity": 0.71,
      "hand": "right"
    },
    {
      "midi": 58,
      "time": 576.25,
      "duration": 0.333,
      "velocity": 0.71,
      "hand": "right"
    },
    {
      "midi": 65,
      "time": 576.5,
      "duration": 0.333,
      "velocity": 0.71,
      "hand": "right"
    },
    {
      "midi": 70,
      "time": 576.75,
      "duration": 0.333,
      "velocity": 0.71,
      "hand": "right"
    },
    {
      "midi": 77,
      "time": 577,
      "duration": 0.333,
      "velocity": 0.71,
      "hand": "right"
    },
    {
      "midi": 82,
      "time": 577.25,
      "duration": 0.333,
      "velocity": 0.71,
      "hand": "right"
    },
    {
      "midi": 89,
      "time": 577.5,
      "duration": 0.333,
      "velocity": 0.71,
      "hand": "right"
    },
    {
      "midi": 82,
      "time": 577.75,
      "duration": 0.333,
      "velocity": 0.71,
      "hand": "right"
    },
    {
      "midi": 77,
      "time": 578,
      "duration": 0.333,
      "velocity": 0.71,
      "hand": "right"
    },
    {
      "midi": 70,
      "time": 578.25,
      "duration": 0.333,
      "velocity": 0.71,
      "hand": "right"
    },
    {
      "midi": 65,
      "time": 578.5,
      "duration": 0.333,
      "velocity": 0.71,
      "hand": "right"
    },
    {
      "midi": 58,
      "time": 578.75,
      "duration": 0.333,
      "velocity": 0.71,
      "hand": "right"
    },
    {
      "midi": 67,
      "time": 579,
      "duration": 0.333,
      "velocity": 0.71,
      "hand": "right"
    },
    {
      "midi": 59,
      "time": 579.25,
      "duration": 0.333,
      "velocity": 0.71,
      "hand": "right"
    },
    {
      "midi": 67,
      "time": 579.5,
      "duration": 0.333,
      "velocity": 0.71,
      "hand": "right"
    },
    {
      "midi": 71,
      "time": 579.75,
      "duration": 0.333,
      "velocity": 0.71,
      "hand": "right"
    },
    {
      "midi": 79,
      "time": 580,
      "duration": 0.333,
      "velocity": 0.71,
      "hand": "right"
    },
    {
      "midi": 83,
      "time": 580.25,
      "duration": 0.333,
      "velocity": 0.71,
      "hand": "right"
    },
    {
      "midi": 91,
      "time": 580.5,
      "duration": 0.333,
      "velocity": 0.71,
      "hand": "right"
    },
    {
      "midi": 83,
      "time": 580.75,
      "duration": 0.333,
      "velocity": 0.71,
      "hand": "right"
    },
    {
      "midi": 79,
      "time": 581,
      "duration": 0.333,
      "velocity": 0.71,
      "hand": "right"
    },
    {
      "midi": 71,
      "time": 581.25,
      "duration": 0.333,
      "velocity": 0.71,
      "hand": "right"
    },
    {
      "midi": 67,
      "time": 581.5,
      "duration": 0.333,
      "velocity": 0.71,
      "hand": "right"
    },
    {
      "midi": 59,
      "time": 581.75,
      "duration": 0.333,
      "velocity": 0.71,
      "hand": "right"
    },
    {
      "midi": 68,
      "time": 582,
      "duration": 0.5,
      "velocity": 0.71,
      "hand": "right"
    },
    {
      "midi": 36,
      "time": 582.5,
      "duration": 0.5,
      "velocity": 0.8,
      "hand": "right"
    },
    {
      "midi": 53,
      "time": 582.75,
      "duration": 0.333,
      "velocity": 0.8,
      "hand": "right"
    },
    {
      "midi": 56,
      "time": 583,
      "duration": 0.333,
      "velocity": 0.8,
      "hand": "right"
    },
    {
      "midi": 60,
      "time": 583.25,
      "duration": 0.333,
      "velocity": 0.8,
      "hand": "right"
    },
    {
      "midi": 65,
      "time": 583.5,
      "duration": 0.333,
      "velocity": 0.71,
      "hand": "right"
    },
    {
      "midi": 71,
      "time": 583.75,
      "duration": 0.333,
      "velocity": 0.71,
      "hand": "right"
    },
    {
      "midi": 72,
      "time": 584,
      "duration": 0.333,
      "velocity": 0.71,
      "hand": "right"
    },
    {
      "midi": 80,
      "time": 584.25,
      "duration": 0.333,
      "velocity": 0.71,
      "hand": "right"
    },
    {
      "midi": 83,
      "time": 584.5,
      "duration": 0.333,
      "velocity": 0.71,
      "hand": "right"
    },
    {
      "midi": 89,
      "time": 584.75,
      "duration": 0.333,
      "velocity": 0.71,
      "hand": "right"
    },
    {
      "midi": 92,
      "time": 585,
      "duration": 0.5,
      "velocity": 0.71,
      "hand": "right"
    },
    {
      "midi": 77,
      "time": 585.5,
      "duration": 0.5,
      "velocity": 0.71,
      "hand": "right"
    },
    {
      "midi": 73,
      "time": 586,
      "duration": 0.5,
      "velocity": 0.71,
      "hand": "right"
    },
    {
      "midi": 78,
      "time": 586.5,
      "duration": 0.5,
      "velocity": 0.71,
      "hand": "right"
    },
    {
      "midi": 76,
      "time": 587,
      "duration": 0.5,
      "velocity": 0.71,
      "hand": "right"
    },
    {
      "midi": 84,
      "time": 587.5,
      "duration": 0.5,
      "velocity": 0.71,
      "hand": "right"
    },
    {
      "midi": 84,
      "time": 588,
      "duration": 0.5,
      "velocity": 0.71,
      "hand": "right"
    },
    {
      "midi": 36,
      "time": 588.5,
      "duration": 0.5,
      "velocity": 0.8,
      "hand": "right"
    },
    {
      "midi": 53,
      "time": 588.75,
      "duration": 0.333,
      "velocity": 0.8,
      "hand": "right"
    },
    {
      "midi": 56,
      "time": 589,
      "duration": 0.333,
      "velocity": 0.8,
      "hand": "right"
    },
    {
      "midi": 60,
      "time": 589.25,
      "duration": 0.333,
      "velocity": 0.8,
      "hand": "right"
    },
    {
      "midi": 65,
      "time": 589.5,
      "duration": 0.333,
      "velocity": 0.71,
      "hand": "right"
    },
    {
      "midi": 71,
      "time": 589.75,
      "duration": 0.333,
      "velocity": 0.71,
      "hand": "right"
    },
    {
      "midi": 72,
      "time": 590,
      "duration": 0.333,
      "velocity": 0.71,
      "hand": "right"
    },
    {
      "midi": 80,
      "time": 590.25,
      "duration": 0.333,
      "velocity": 0.71,
      "hand": "right"
    },
    {
      "midi": 83,
      "time": 590.5,
      "duration": 0.333,
      "velocity": 0.71,
      "hand": "right"
    },
    {
      "midi": 89,
      "time": 590.75,
      "duration": 0.333,
      "velocity": 0.71,
      "hand": "right"
    },
    {
      "midi": 92,
      "time": 591,
      "duration": 0.5,
      "velocity": 0.71,
      "hand": "right"
    },
    {
      "midi": 77,
      "time": 591.5,
      "duration": 0.5,
      "velocity": 0.71,
      "hand": "right"
    },
    {
      "midi": 65,
      "time": 592,
      "duration": 0.5,
      "velocity": 0.71,
      "hand": "right"
    },
    {
      "midi": 66,
      "time": 592.5,
      "duration": 0.5,
      "velocity": 0.71,
      "hand": "right"
    },
    {
      "midi": 64,
      "time": 593,
      "duration": 0.5,
      "velocity": 0.71,
      "hand": "right"
    },
    {
      "midi": 72,
      "time": 593.5,
      "duration": 0.5,
      "velocity": 0.71,
      "hand": "right"
    },
    {
      "midi": 72,
      "time": 594,
      "duration": 0.5,
      "velocity": 0.71,
      "hand": "right"
    },
    {
      "midi": 74,
      "time": 594.5,
      "duration": 0.5,
      "velocity": 0.71,
      "hand": "right"
    },
    {
      "midi": 75,
      "time": 595,
      "duration": 0.5,
      "velocity": 0.71,
      "hand": "right"
    },
    {
      "midi": 78,
      "time": 595.5,
      "duration": 0.5,
      "velocity": 0.71,
      "hand": "right"
    },
    {
      "midi": 83,
      "time": 596,
      "duration": 0.5,
      "velocity": 0.71,
      "hand": "right"
    },
    {
      "midi": 80,
      "time": 596.5,
      "duration": 0.5,
      "velocity": 0.71,
      "hand": "right"
    },
    {
      "midi": 82,
      "time": 597,
      "duration": 0.5,
      "velocity": 0.71,
      "hand": "right"
    },
    {
      "midi": 85,
      "time": 597.5,
      "duration": 0.5,
      "velocity": 0.71,
      "hand": "right"
    },
    {
      "midi": 90,
      "time": 598,
      "duration": 0.5,
      "velocity": 0.71,
      "hand": "right"
    },
    {
      "midi": 88,
      "time": 598.5,
      "duration": 0.5,
      "velocity": 0.71,
      "hand": "right"
    },
    {
      "midi": 89,
      "time": 599,
      "duration": 0.5,
      "velocity": 0.71,
      "hand": "right"
    },
    {
      "midi": 85,
      "time": 599.5,
      "duration": 0.5,
      "velocity": 0.71,
      "hand": "right"
    },
    {
      "midi": 84,
      "time": 600,
      "duration": 0.5,
      "velocity": 0.71,
      "hand": "right"
    },
    {
      "midi": 60,
      "time": 601.5,
      "duration": 0.5,
      "velocity": 0.71,
      "hand": "right"
    },
    {
      "midi": 61,
      "time": 602,
      "duration": 0.5,
      "velocity": 0.71,
      "hand": "right"
    },
    {
      "midi": 65,
      "time": 602.5,
      "duration": 0.5,
      "velocity": 0.71,
      "hand": "right"
    },
    {
      "midi": 67,
      "time": 603,
      "duration": 0.5,
      "velocity": 0.71,
      "hand": "right"
    },
    {
      "midi": 67,
      "time": 603.5,
      "duration": 0.5,
      "velocity": 0.71,
      "hand": "right"
    },
    {
      "midi": 67,
      "time": 604,
      "duration": 0.5,
      "velocity": 0.71,
      "hand": "right"
    },
    {
      "midi": 84,
      "time": 606,
      "duration": 3,
      "velocity": 0.71,
      "hand": "right"
    },
    {
      "midi": 79,
      "time": 609,
      "duration": 3,
      "velocity": 0.71,
      "hand": "right"
    },
    {
      "midi": 76,
      "time": 612,
      "duration": 3,
      "velocity": 0.71,
      "hand": "right"
    },
    {
      "midi": 74,
      "time": 615,
      "duration": 3,
      "velocity": 0.71,
      "hand": "right"
    },
    {
      "midi": 64,
      "time": 618,
      "duration": 10,
      "velocity": 0.71,
      "hand": "right"
    },
    {
      "midi": 56,
      "time": 630,
      "duration": 0.333,
      "velocity": 0.71,
      "hand": "right"
    },
    {
      "midi": 68,
      "time": 630.25,
      "duration": 0.333,
      "velocity": 0.71,
      "hand": "right"
    },
    {
      "midi": 55,
      "time": 630.5,
      "duration": 0.333,
      "velocity": 0.71,
      "hand": "right"
    },
    {
      "midi": 59,
      "time": 630.75,
      "duration": 0.333,
      "velocity": 0.71,
      "hand": "right"
    },
    {
      "midi": 61,
      "time": 631,
      "duration": 0.333,
      "velocity": 0.71,
      "hand": "right"
    },
    {
      "midi": 67,
      "time": 631.25,
      "duration": 0.333,
      "velocity": 0.71,
      "hand": "right"
    },
    {
      "midi": 60,
      "time": 631.5,
      "duration": 0.333,
      "velocity": 0.71,
      "hand": "right"
    },
    {
      "midi": 70,
      "time": 631.75,
      "duration": 0.333,
      "velocity": 0.71,
      "hand": "right"
    },
    {
      "midi": 67,
      "time": 632,
      "duration": 0.333,
      "velocity": 0.71,
      "hand": "right"
    },
    {
      "midi": 65,
      "time": 632.25,
      "duration": 0.333,
      "velocity": 0.71,
      "hand": "right"
    },
    {
      "midi": 61,
      "time": 632.5,
      "duration": 0.333,
      "velocity": 0.71,
      "hand": "right"
    },
    {
      "midi": 67,
      "time": 632.75,
      "duration": 0.333,
      "velocity": 0.71,
      "hand": "right"
    },
    {
      "midi": 56,
      "time": 633,
      "duration": 0.333,
      "velocity": 0.71,
      "hand": "right"
    },
    {
      "midi": 68,
      "time": 633.25,
      "duration": 0.75,
      "velocity": 0.71,
      "hand": "right"
    },
    {
      "midi": 63,
      "time": 633.5,
      "duration": 0.333,
      "velocity": 0.71,
      "hand": "right"
    },
    {
      "midi": 68,
      "time": 633.75,
      "duration": 0.333,
      "velocity": 0.8,
      "hand": "right"
    },
    {
      "midi": 68,
      "time": 634,
      "duration": 0.5,
      "velocity": 0.84,
      "hand": "right"
    },
    {
      "midi": 65,
      "time": 634.25,
      "duration": 0.333,
      "velocity": 0.89,
      "hand": "right"
    },
    {
      "midi": 73,
      "time": 634.5,
      "duration": 0.333,
      "velocity": 0.93,
      "hand": "right"
    },
    {
      "midi": 72,
      "time": 634.75,
      "duration": 0.333,
      "velocity": 0.9,
      "hand": "right"
    },
    {
      "midi": 70,
      "time": 635,
      "duration": 0.333,
      "velocity": 0.83,
      "hand": "right"
    },
    {
      "midi": 69,
      "time": 635.25,
      "duration": 0.333,
      "velocity": 0.8,
      "hand": "right"
    },
    {
      "midi": 58,
      "time": 635.5,
      "duration": 0.333,
      "velocity": 0.74,
      "hand": "right"
    },
    {
      "midi": 72,
      "time": 635.75,
      "duration": 0.333,
      "velocity": 0.71,
      "hand": "right"
    },
    {
      "midi": 68,
      "time": 636,
      "duration": 0.333,
      "velocity": 0.71,
      "hand": "right"
    },
    {
      "midi": 80,
      "time": 636.25,
      "duration": 0.333,
      "velocity": 0.71,
      "hand": "right"
    },
    {
      "midi": 67,
      "time": 636.5,
      "duration": 0.333,
      "velocity": 0.71,
      "hand": "right"
    },
    {
      "midi": 71,
      "time": 636.75,
      "duration": 0.333,
      "velocity": 0.71,
      "hand": "right"
    },
    {
      "midi": 73,
      "time": 637,
      "duration": 0.333,
      "velocity": 0.71,
      "hand": "right"
    },
    {
      "midi": 79,
      "time": 637.25,
      "duration": 0.333,
      "velocity": 0.71,
      "hand": "right"
    },
    {
      "midi": 72,
      "time": 637.5,
      "duration": 0.333,
      "velocity": 0.71,
      "hand": "right"
    },
    {
      "midi": 82,
      "time": 637.75,
      "duration": 0.333,
      "velocity": 0.71,
      "hand": "right"
    },
    {
      "midi": 79,
      "time": 638,
      "duration": 0.333,
      "velocity": 0.71,
      "hand": "right"
    },
    {
      "midi": 77,
      "time": 638.25,
      "duration": 0.333,
      "velocity": 0.71,
      "hand": "right"
    },
    {
      "midi": 73,
      "time": 638.5,
      "duration": 0.333,
      "velocity": 0.71,
      "hand": "right"
    },
    {
      "midi": 79,
      "time": 638.75,
      "duration": 0.333,
      "velocity": 0.71,
      "hand": "right"
    },
    {
      "midi": 68,
      "time": 639,
      "duration": 0.333,
      "velocity": 0.71,
      "hand": "right"
    },
    {
      "midi": 80,
      "time": 639.25,
      "duration": 0.75,
      "velocity": 0.71,
      "hand": "right"
    },
    {
      "midi": 75,
      "time": 639.5,
      "duration": 0.333,
      "velocity": 0.71,
      "hand": "right"
    },
    {
      "midi": 80,
      "time": 639.75,
      "duration": 0.333,
      "velocity": 0.71,
      "hand": "right"
    },
    {
      "midi": 80,
      "time": 640,
      "duration": 0.5,
      "velocity": 0.71,
      "hand": "right"
    },
    {
      "midi": 77,
      "time": 640.25,
      "duration": 0.333,
      "velocity": 0.71,
      "hand": "right"
    },
    {
      "midi": 85,
      "time": 640.5,
      "duration": 0.333,
      "velocity": 0.71,
      "hand": "right"
    },
    {
      "midi": 84,
      "time": 640.75,
      "duration": 0.333,
      "velocity": 0.71,
      "hand": "right"
    },
    {
      "midi": 82,
      "time": 641,
      "duration": 0.333,
      "velocity": 0.71,
      "hand": "right"
    },
    {
      "midi": 81,
      "time": 641.25,
      "duration": 0.333,
      "velocity": 0.71,
      "hand": "right"
    },
    {
      "midi": 70,
      "time": 641.5,
      "duration": 0.333,
      "velocity": 0.71,
      "hand": "right"
    },
    {
      "midi": 84,
      "time": 641.75,
      "duration": 0.333,
      "velocity": 0.71,
      "hand": "right"
    },
    {
      "midi": 80,
      "time": 642,
      "duration": 0.5,
      "velocity": 0.71,
      "hand": "right"
    },
    {
      "midi": 76,
      "time": 642.25,
      "duration": 0.333,
      "velocity": 0.71,
      "hand": "right"
    },
    {
      "midi": 77,
      "time": 642.5,
      "duration": 0.333,
      "velocity": 0.71,
      "hand": "right"
    },
    {
      "midi": 79,
      "time": 642.75,
      "duration": 0.333,
      "velocity": 0.71,
      "hand": "right"
    },
    {
      "midi": 80,
      "time": 643,
      "duration": 0.333,
      "velocity": 0.71,
      "hand": "right"
    },
    {
      "midi": 85,
      "time": 643.25,
      "duration": 0.333,
      "velocity": 0.71,
      "hand": "right"
    },
    {
      "midi": 78,
      "time": 643.5,
      "duration": 0.5,
      "velocity": 0.71,
      "hand": "right"
    },
    {
      "midi": 74,
      "time": 643.75,
      "duration": 0.333,
      "velocity": 0.71,
      "hand": "right"
    },
    {
      "midi": 75,
      "time": 644,
      "duration": 0.333,
      "velocity": 0.71,
      "hand": "right"
    },
    {
      "midi": 77,
      "time": 644.25,
      "duration": 0.333,
      "velocity": 0.71,
      "hand": "right"
    },
    {
      "midi": 78,
      "time": 644.5,
      "duration": 0.333,
      "velocity": 0.71,
      "hand": "right"
    },
    {
      "midi": 83,
      "time": 644.75,
      "duration": 0.333,
      "velocity": 0.71,
      "hand": "right"
    },
    {
      "midi": 76,
      "time": 645,
      "duration": 0.5,
      "velocity": 0.71,
      "hand": "right"
    },
    {
      "midi": 72,
      "time": 645.25,
      "duration": 0.333,
      "velocity": 0.71,
      "hand": "right"
    },
    {
      "midi": 73,
      "time": 645.5,
      "duration": 0.333,
      "velocity": 0.71,
      "hand": "right"
    },
    {
      "midi": 75,
      "time": 645.75,
      "duration": 0.333,
      "velocity": 0.71,
      "hand": "right"
    },
    {
      "midi": 76,
      "time": 646,
      "duration": 0.333,
      "velocity": 0.71,
      "hand": "right"
    },
    {
      "midi": 78,
      "time": 646.25,
      "duration": 0.333,
      "velocity": 0.71,
      "hand": "right"
    },
    {
      "midi": 79,
      "time": 646.5,
      "duration": 0.333,
      "velocity": 0.71,
      "hand": "right"
    },
    {
      "midi": 81,
      "time": 646.75,
      "duration": 0.333,
      "velocity": 0.71,
      "hand": "right"
    },
    {
      "midi": 78,
      "time": 647,
      "duration": 0.333,
      "velocity": 0.71,
      "hand": "right"
    },
    {
      "midi": 81,
      "time": 647.25,
      "duration": 0.333,
      "velocity": 0.71,
      "hand": "right"
    },
    {
      "midi": 82,
      "time": 647.5,
      "duration": 0.333,
      "velocity": 0.71,
      "hand": "right"
    },
    {
      "midi": 85,
      "time": 647.75,
      "duration": 0.333,
      "velocity": 0.71,
      "hand": "right"
    },
    {
      "midi": 84,
      "time": 648,
      "duration": 0.333,
      "velocity": 0.71,
      "hand": "right"
    },
    {
      "midi": 91,
      "time": 648.25,
      "duration": 0.333,
      "velocity": 0.71,
      "hand": "right"
    },
    {
      "midi": 84,
      "time": 648.5,
      "duration": 0.333,
      "velocity": 0.71,
      "hand": "right"
    },
    {
      "midi": 87,
      "time": 648.75,
      "duration": 0.333,
      "velocity": 0.71,
      "hand": "right"
    },
    {
      "midi": 80,
      "time": 649,
      "duration": 0.333,
      "velocity": 0.71,
      "hand": "right"
    },
    {
      "midi": 84,
      "time": 649.25,
      "duration": 0.333,
      "velocity": 0.71,
      "hand": "right"
    },
    {
      "midi": 72,
      "time": 649.5,
      "duration": 0.333,
      "velocity": 0.71,
      "hand": "right"
    },
    {
      "midi": 82,
      "time": 649.75,
      "duration": 0.333,
      "velocity": 0.71,
      "hand": "right"
    },
    {
      "midi": 68,
      "time": 650,
      "duration": 0.333,
      "velocity": 0.71,
      "hand": "right"
    },
    {
      "midi": 79,
      "time": 650.25,
      "duration": 0.333,
      "velocity": 0.71,
      "hand": "right"
    },
    {
      "midi": 67,
      "time": 650.5,
      "duration": 0.333,
      "velocity": 0.71,
      "hand": "right"
    },
    {
      "midi": 76,
      "time": 650.75,
      "duration": 0.333,
      "velocity": 0.71,
      "hand": "right"
    },
    {
      "midi": 70,
      "time": 651,
      "duration": 0.333,
      "velocity": 0.71,
      "hand": "right"
    },
    {
      "midi": 79,
      "time": 651.25,
      "duration": 0.333,
      "velocity": 0.71,
      "hand": "right"
    },
    {
      "midi": 77,
      "time": 651.5,
      "duration": 0.333,
      "velocity": 0.71,
      "hand": "right"
    },
    {
      "midi": 75,
      "time": 651.75,
      "duration": 0.333,
      "velocity": 0.71,
      "hand": "right"
    },
    {
      "midi": 68,
      "time": 652,
      "duration": 0.333,
      "velocity": 0.71,
      "hand": "right"
    },
    {
      "midi": 72,
      "time": 652.25,
      "duration": 0.333,
      "velocity": 0.71,
      "hand": "right"
    },
    {
      "midi": 68,
      "time": 652.5,
      "duration": 0.5,
      "velocity": 0.71,
      "hand": "right"
    },
    {
      "midi": 61,
      "time": 652.75,
      "duration": 0.333,
      "velocity": 0.71,
      "hand": "right"
    },
    {
      "midi": 67,
      "time": 653,
      "duration": 1,
      "velocity": 0.71,
      "hand": "right"
    },
    {
      "midi": 60,
      "time": 653.25,
      "duration": 0.333,
      "velocity": 0.71,
      "hand": "right"
    },
    {
      "midi": 64,
      "time": 653.5,
      "duration": 0.5,
      "velocity": 0.71,
      "hand": "right"
    },
    {
      "midi": 60,
      "time": 653.75,
      "duration": 0.333,
      "velocity": 0.71,
      "hand": "right"
    },
    {
      "midi": 72,
      "time": 654,
      "duration": 0.333,
      "velocity": 0.71,
      "hand": "right"
    },
    {
      "midi": 55,
      "time": 654.25,
      "duration": 0.333,
      "velocity": 0.5,
      "hand": "right"
    },
    {
      "midi": 70,
      "time": 654.5,
      "duration": 0.333,
      "velocity": 0.71,
      "hand": "right"
    },
    {
      "midi": 53,
      "time": 654.75,
      "duration": 0.333,
      "velocity": 0.5,
      "hand": "right"
    },
    {
      "midi": 68,
      "time": 655,
      "duration": 0.333,
      "velocity": 0.71,
      "hand": "right"
    },
    {
      "midi": 52,
      "time": 655.25,
      "duration": 0.333,
      "velocity": 0.5,
      "hand": "right"
    },
    {
      "midi": 67,
      "time": 655.5,
      "duration": 0.333,
      "velocity": 0.71,
      "hand": "right"
    },
    {
      "midi": 49,
      "time": 655.75,
      "duration": 0.333,
      "velocity": 0.5,
      "hand": "right"
    },
    {
      "midi": 65,
      "time": 656,
      "duration": 0.333,
      "velocity": 0.71,
      "hand": "right"
    },
    {
      "midi": 46,
      "time": 656.25,
      "duration": 0.333,
      "velocity": 0.5,
      "hand": "right"
    },
    {
      "midi": 64,
      "time": 656.5,
      "duration": 0.5,
      "velocity": 0.71,
      "hand": "right"
    },
    {
      "midi": 48,
      "time": 656.75,
      "duration": 0.333,
      "velocity": 0.5,
      "hand": "right"
    },
    {
      "midi": 63,
      "time": 657,
      "duration": 0.5,
      "velocity": 0.71,
      "hand": "right"
    },
    {
      "midi": 45,
      "time": 657.25,
      "duration": 0.333,
      "velocity": 0.5,
      "hand": "right"
    },
    {
      "midi": 61,
      "time": 657.5,
      "duration": 1,
      "velocity": 0.71,
      "hand": "right"
    },
    {
      "midi": 48,
      "time": 657.75,
      "duration": 0.333,
      "velocity": 0.5,
      "hand": "right"
    },
    {
      "midi": 52,
      "time": 658,
      "duration": 0.5,
      "velocity": 0.71,
      "hand": "right"
    },
    {
      "midi": 44,
      "time": 658.25,
      "duration": 0.333,
      "velocity": 0.5,
      "hand": "right"
    },
    {
      "midi": 60,
      "time": 658.5,
      "duration": 1,
      "velocity": 0.71,
      "hand": "right"
    },
    {
      "midi": 43,
      "time": 658.75,
      "duration": 0.333,
      "velocity": 0.5,
      "hand": "right"
    },
    {
      "midi": 56,
      "time": 659,
      "duration": 0.5,
      "velocity": 0.71,
      "hand": "right"
    },
    {
      "midi": 43,
      "time": 659.25,
      "duration": 0.333,
      "velocity": 0.5,
      "hand": "right"
    },
    {
      "midi": 65,
      "time": 659.5,
      "duration": 0.5,
      "velocity": 0.71,
      "hand": "right"
    },
    {
      "midi": 39,
      "time": 659.75,
      "duration": 0.333,
      "velocity": 0.5,
      "hand": "right"
    },
    {
      "midi": 65,
      "time": 660,
      "duration": 0.5,
      "velocity": 0.71,
      "hand": "right"
    },
    {
      "midi": 37,
      "time": 660.25,
      "duration": 0.333,
      "velocity": 0.5,
      "hand": "right"
    },
    {
      "midi": 57,
      "time": 660.5,
      "duration": 0.5,
      "velocity": 0.71,
      "hand": "right"
    },
    {
      "midi": 41,
      "time": 660.75,
      "duration": 0.333,
      "velocity": 0.5,
      "hand": "right"
    },
    {
      "midi": 58,
      "time": 661,
      "duration": 0.5,
      "velocity": 0.71,
      "hand": "right"
    },
    {
      "midi": 41,
      "time": 661.25,
      "duration": 0.333,
      "velocity": 0.5,
      "hand": "right"
    },
    {
      "midi": 60,
      "time": 661.5,
      "duration": 0.5,
      "velocity": 0.71,
      "hand": "right"
    },
    {
      "midi": 43,
      "time": 661.75,
      "duration": 0.333,
      "velocity": 0.5,
      "hand": "right"
    },
    {
      "midi": 68,
      "time": 662,
      "duration": 0.5,
      "velocity": 0.71,
      "hand": "right"
    },
    {
      "midi": 46,
      "time": 662.25,
      "duration": 0.333,
      "velocity": 0.5,
      "hand": "right"
    },
    {
      "midi": 64,
      "time": 662.5,
      "duration": 0.5,
      "velocity": 0.71,
      "hand": "right"
    },
    {
      "midi": 46,
      "time": 662.75,
      "duration": 0.333,
      "velocity": 0.5,
      "hand": "right"
    },
    {
      "midi": 65,
      "time": 663,
      "duration": 0.5,
      "velocity": 0.71,
      "hand": "right"
    },
    {
      "midi": 48,
      "time": 663.25,
      "duration": 0.333,
      "velocity": 0.5,
      "hand": "right"
    },
    {
      "midi": 63,
      "time": 663.5,
      "duration": 0.5,
      "velocity": 0.71,
      "hand": "right"
    },
    {
      "midi": 45,
      "time": 663.75,
      "duration": 0.333,
      "velocity": 0.5,
      "hand": "right"
    },
    {
      "midi": 61,
      "time": 664,
      "duration": 0.5,
      "velocity": 0.71,
      "hand": "right"
    },
    {
      "midi": 49,
      "time": 664.25,
      "duration": 0.333,
      "velocity": 0.5,
      "hand": "right"
    },
    {
      "midi": 60,
      "time": 664.5,
      "duration": 1,
      "velocity": 0.71,
      "hand": "right"
    },
    {
      "midi": 44,
      "time": 664.75,
      "duration": 0.333,
      "velocity": 0.5,
      "hand": "right"
    },
    {
      "midi": 37,
      "time": 665,
      "duration": 0.333,
      "velocity": 0.5,
      "hand": "right"
    },
    {
      "midi": 37,
      "time": 665.25,
      "duration": 0.333,
      "velocity": 0.5,
      "hand": "right"
    },
    {
      "midi": 60,
      "time": 665.5,
      "duration": 0.5,
      "velocity": 0.71,
      "hand": "right"
    },
    {
      "midi": 44,
      "time": 665.75,
      "duration": 0.333,
      "velocity": 0.5,
      "hand": "right"
    },
    {
      "midi": 65,
      "time": 666,
      "duration": 0.333,
      "velocity": 0.71,
      "hand": "right"
    },
    {
      "midi": 66,
      "time": 666.25,
      "duration": 0.333,
      "velocity": 0.71,
      "hand": "right"
    },
    {
      "midi": 69,
      "time": 666.5,
      "duration": 0.333,
      "velocity": 0.71,
      "hand": "right"
    },
    {
      "midi": 72,
      "time": 666.75,
      "duration": 0.333,
      "velocity": 0.71,
      "hand": "right"
    },
    {
      "midi": 75,
      "time": 667,
      "duration": 0.333,
      "velocity": 0.71,
      "hand": "right"
    },
    {
      "midi": 78,
      "time": 667.25,
      "duration": 0.333,
      "velocity": 0.71,
      "hand": "right"
    },
    {
      "midi": 81,
      "time": 667.5,
      "duration": 0.333,
      "velocity": 0.71,
      "hand": "right"
    },
    {
      "midi": 84,
      "time": 667.75,
      "duration": 0.333,
      "velocity": 0.71,
      "hand": "right"
    },
    {
      "midi": 87,
      "time": 668,
      "duration": 0.333,
      "velocity": 0.71,
      "hand": "right"
    },
    {
      "midi": 90,
      "time": 668.25,
      "duration": 0.333,
      "velocity": 0.71,
      "hand": "right"
    },
    {
      "midi": 93,
      "time": 668.5,
      "duration": 0.333,
      "velocity": 0.71,
      "hand": "right"
    },
    {
      "midi": 96,
      "time": 668.75,
      "duration": 0.333,
      "velocity": 0.71,
      "hand": "right"
    },
    {
      "midi": 99,
      "time": 669,
      "duration": 0.5,
      "velocity": 0.5,
      "hand": "right"
    },
    {
      "midi": 69,
      "time": 669.5,
      "duration": 0.5,
      "velocity": 0.71,
      "hand": "right"
    },
    {
      "midi": 66,
      "time": 669.75,
      "duration": 0.333,
      "velocity": 0.71,
      "hand": "right"
    },
    {
      "midi": 70,
      "time": 670,
      "duration": 0.5,
      "velocity": 0.71,
      "hand": "right"
    },
    {
      "midi": 48,
      "time": 670.25,
      "duration": 0.333,
      "velocity": 0.5,
      "hand": "right"
    },
    {
      "midi": 73,
      "time": 670.5,
      "duration": 0.5,
      "velocity": 0.71,
      "hand": "right"
    },
    {
      "midi": 43,
      "time": 670.75,
      "duration": 0.333,
      "velocity": 0.5,
      "hand": "right"
    },
    {
      "midi": 72,
      "time": 671,
      "duration": 0.5,
      "velocity": 0.71,
      "hand": "right"
    },
    {
      "midi": 36,
      "time": 671.25,
      "duration": 0.333,
      "velocity": 0.5,
      "hand": "right"
    },
    {
      "midi": 64,
      "time": 671.5,
      "duration": 0.5,
      "velocity": 0.71,
      "hand": "right"
    },
    {
      "midi": 36,
      "time": 671.75,
      "duration": 0.333,
      "velocity": 0.5,
      "hand": "right"
    },
    {
      "midi": 65,
      "time": 672,
      "duration": 0.333,
      "velocity": 0.5,
      "hand": "right"
    },
    {
      "midi": 66,
      "time": 672.25,
      "duration": 0.333,
      "velocity": 0.51,
      "hand": "right"
    },
    {
      "midi": 69,
      "time": 672.5,
      "duration": 0.333,
      "velocity": 0.53,
      "hand": "right"
    },
    {
      "midi": 72,
      "time": 672.75,
      "duration": 0.333,
      "velocity": 0.55,
      "hand": "right"
    },
    {
      "midi": 75,
      "time": 673,
      "duration": 0.333,
      "velocity": 0.57,
      "hand": "right"
    },
    {
      "midi": 78,
      "time": 673.25,
      "duration": 0.333,
      "velocity": 0.6,
      "hand": "right"
    },
    {
      "midi": 81,
      "time": 673.5,
      "duration": 0.333,
      "velocity": 0.61,
      "hand": "right"
    },
    {
      "midi": 84,
      "time": 673.75,
      "duration": 0.333,
      "velocity": 0.64,
      "hand": "right"
    },
    {
      "midi": 87,
      "time": 674,
      "duration": 0.333,
      "velocity": 0.65,
      "hand": "right"
    },
    {
      "midi": 90,
      "time": 674.25,
      "duration": 0.333,
      "velocity": 0.68,
      "hand": "right"
    },
    {
      "midi": 93,
      "time": 674.5,
      "duration": 0.333,
      "velocity": 0.69,
      "hand": "right"
    },
    {
      "midi": 96,
      "time": 674.75,
      "duration": 0.333,
      "velocity": 0.72,
      "hand": "right"
    },
    {
      "midi": 101,
      "time": 675,
      "duration": 0.5,
      "velocity": 0.72,
      "hand": "right"
    },
    {
      "midi": 81,
      "time": 675.5,
      "duration": 0.5,
      "velocity": 0.71,
      "hand": "right"
    },
    {
      "midi": 78,
      "time": 675.75,
      "duration": 0.333,
      "velocity": 0.71,
      "hand": "right"
    },
    {
      "midi": 82,
      "time": 676,
      "duration": 0.5,
      "velocity": 0.71,
      "hand": "right"
    },
    {
      "midi": 60,
      "time": 676.25,
      "duration": 0.333,
      "velocity": 0.5,
      "hand": "right"
    },
    {
      "midi": 85,
      "time": 676.5,
      "duration": 0.5,
      "velocity": 0.71,
      "hand": "right"
    },
    {
      "midi": 55,
      "time": 676.75,
      "duration": 0.333,
      "velocity": 0.5,
      "hand": "right"
    },
    {
      "midi": 84,
      "time": 677,
      "duration": 0.5,
      "velocity": 0.71,
      "hand": "right"
    },
    {
      "midi": 48,
      "time": 677.25,
      "duration": 0.333,
      "velocity": 0.5,
      "hand": "right"
    },
    {
      "midi": 76,
      "time": 677.5,
      "duration": 0.5,
      "velocity": 0.71,
      "hand": "right"
    },
    {
      "midi": 48,
      "time": 677.75,
      "duration": 0.333,
      "velocity": 0.5,
      "hand": "right"
    },
    {
      "midi": 77,
      "time": 678,
      "duration": 0.5,
      "velocity": 0.71,
      "hand": "right"
    },
    {
      "midi": 44,
      "time": 678.25,
      "duration": 0.333,
      "velocity": 0.54,
      "hand": "right"
    },
    {
      "midi": 49,
      "time": 678.5,
      "duration": 0.333,
      "velocity": 0.71,
      "hand": "right"
    },
    {
      "midi": 53,
      "time": 678.75,
      "duration": 0.333,
      "velocity": 0.71,
      "hand": "right"
    },
    {
      "midi": 56,
      "time": 679,
      "duration": 0.333,
      "velocity": 0.71,
      "hand": "right"
    },
    {
      "midi": 58,
      "time": 679.25,
      "duration": 0.333,
      "velocity": 0.71,
      "hand": "right"
    },
    {
      "midi": 56,
      "time": 679.5,
      "duration": 0.333,
      "velocity": 0.71,
      "hand": "right"
    },
    {
      "midi": 55,
      "time": 679.75,
      "duration": 0.333,
      "velocity": 0.71,
      "hand": "right"
    },
    {
      "midi": 56,
      "time": 680,
      "duration": 0.333,
      "velocity": 0.71,
      "hand": "right"
    },
    {
      "midi": 60,
      "time": 680.25,
      "duration": 0.333,
      "velocity": 0.71,
      "hand": "right"
    },
    {
      "midi": 61,
      "time": 680.5,
      "duration": 0.333,
      "velocity": 0.71,
      "hand": "right"
    },
    {
      "midi": 68,
      "time": 680.75,
      "duration": 0.333,
      "velocity": 0.71,
      "hand": "right"
    },
    {
      "midi": 67,
      "time": 681,
      "duration": 0.333,
      "velocity": 0.71,
      "hand": "right"
    },
    {
      "midi": 60,
      "time": 681.25,
      "duration": 0.333,
      "velocity": 0.71,
      "hand": "right"
    },
    {
      "midi": 61,
      "time": 681.5,
      "duration": 0.333,
      "velocity": 0.71,
      "hand": "right"
    },
    {
      "midi": 65,
      "time": 681.75,
      "duration": 0.333,
      "velocity": 0.71,
      "hand": "right"
    },
    {
      "midi": 68,
      "time": 682,
      "duration": 0.333,
      "velocity": 0.71,
      "hand": "right"
    },
    {
      "midi": 70,
      "time": 682.25,
      "duration": 0.333,
      "velocity": 0.71,
      "hand": "right"
    },
    {
      "midi": 68,
      "time": 682.5,
      "duration": 0.333,
      "velocity": 0.71,
      "hand": "right"
    },
    {
      "midi": 67,
      "time": 682.75,
      "duration": 0.333,
      "velocity": 0.71,
      "hand": "right"
    },
    {
      "midi": 68,
      "time": 683,
      "duration": 0.333,
      "velocity": 0.71,
      "hand": "right"
    },
    {
      "midi": 72,
      "time": 683.25,
      "duration": 0.333,
      "velocity": 0.71,
      "hand": "right"
    },
    {
      "midi": 73,
      "time": 683.5,
      "duration": 0.333,
      "velocity": 0.71,
      "hand": "right"
    },
    {
      "midi": 79,
      "time": 683.75,
      "duration": 0.333,
      "velocity": 0.71,
      "hand": "right"
    },
    {
      "midi": 77,
      "time": 684,
      "duration": 0.333,
      "velocity": 0.71,
      "hand": "right"
    },
    {
      "midi": 60,
      "time": 684.25,
      "duration": 0.333,
      "velocity": 0.71,
      "hand": "right"
    },
    {
      "midi": 61,
      "time": 684.5,
      "duration": 0.333,
      "velocity": 0.71,
      "hand": "right"
    },
    {
      "midi": 65,
      "time": 684.75,
      "duration": 0.333,
      "velocity": 0.71,
      "hand": "right"
    },
    {
      "midi": 68,
      "time": 685,
      "duration": 0.333,
      "velocity": 0.71,
      "hand": "right"
    },
    {
      "midi": 70,
      "time": 685.25,
      "duration": 0.333,
      "velocity": 0.71,
      "hand": "right"
    },
    {
      "midi": 68,
      "time": 685.5,
      "duration": 0.333,
      "velocity": 0.71,
      "hand": "right"
    },
    {
      "midi": 67,
      "time": 685.75,
      "duration": 0.333,
      "velocity": 0.71,
      "hand": "right"
    },
    {
      "midi": 68,
      "time": 686,
      "duration": 0.333,
      "velocity": 0.71,
      "hand": "right"
    },
    {
      "midi": 72,
      "time": 686.25,
      "duration": 0.333,
      "velocity": 0.71,
      "hand": "right"
    },
    {
      "midi": 73,
      "time": 686.5,
      "duration": 0.333,
      "velocity": 0.71,
      "hand": "right"
    },
    {
      "midi": 80,
      "time": 686.75,
      "duration": 0.333,
      "velocity": 0.71,
      "hand": "right"
    },
    {
      "midi": 79,
      "time": 687,
      "duration": 0.333,
      "velocity": 0.71,
      "hand": "right"
    },
    {
      "midi": 72,
      "time": 687.25,
      "duration": 0.333,
      "velocity": 0.71,
      "hand": "right"
    },
    {
      "midi": 73,
      "time": 687.5,
      "duration": 0.333,
      "velocity": 0.71,
      "hand": "right"
    },
    {
      "midi": 77,
      "time": 687.75,
      "duration": 0.333,
      "velocity": 0.71,
      "hand": "right"
    },
    {
      "midi": 80,
      "time": 688,
      "duration": 0.333,
      "velocity": 0.71,
      "hand": "right"
    },
    {
      "midi": 82,
      "time": 688.25,
      "duration": 0.333,
      "velocity": 0.71,
      "hand": "right"
    },
    {
      "midi": 80,
      "time": 688.5,
      "duration": 0.333,
      "velocity": 0.71,
      "hand": "right"
    },
    {
      "midi": 79,
      "time": 688.75,
      "duration": 0.333,
      "velocity": 0.71,
      "hand": "right"
    },
    {
      "midi": 80,
      "time": 689,
      "duration": 0.333,
      "velocity": 0.71,
      "hand": "right"
    },
    {
      "midi": 84,
      "time": 689.25,
      "duration": 0.333,
      "velocity": 0.71,
      "hand": "right"
    },
    {
      "midi": 85,
      "time": 689.5,
      "duration": 0.333,
      "velocity": 0.71,
      "hand": "right"
    },
    {
      "midi": 91,
      "time": 689.75,
      "duration": 0.333,
      "velocity": 0.71,
      "hand": "right"
    },
    {
      "midi": 89,
      "time": 690,
      "duration": 0.333,
      "velocity": 0.71,
      "hand": "right"
    },
    {
      "midi": 101,
      "time": 690.25,
      "duration": 0.333,
      "velocity": 0.71,
      "hand": "right"
    },
    {
      "midi": 99,
      "time": 690.5,
      "duration": 0.333,
      "velocity": 0.71,
      "hand": "right"
    },
    {
      "midi": 97,
      "time": 690.75,
      "duration": 0.333,
      "velocity": 0.71,
      "hand": "right"
    },
    {
      "midi": 94,
      "time": 691,
      "duration": 0.333,
      "velocity": 0.71,
      "hand": "right"
    },
    {
      "midi": 92,
      "time": 691.25,
      "duration": 0.333,
      "velocity": 0.71,
      "hand": "right"
    },
    {
      "midi": 89,
      "time": 691.5,
      "duration": 0.333,
      "velocity": 0.71,
      "hand": "right"
    },
    {
      "midi": 88,
      "time": 691.75,
      "duration": 0.333,
      "velocity": 0.71,
      "hand": "right"
    },
    {
      "midi": 85,
      "time": 692,
      "duration": 0.333,
      "velocity": 0.71,
      "hand": "right"
    },
    {
      "midi": 84,
      "time": 692.25,
      "duration": 0.333,
      "velocity": 0.71,
      "hand": "right"
    },
    {
      "midi": 80,
      "time": 692.5,
      "duration": 0.333,
      "velocity": 0.71,
      "hand": "right"
    },
    {
      "midi": 79,
      "time": 692.75,
      "duration": 0.333,
      "velocity": 0.71,
      "hand": "right"
    },
    {
      "midi": 92,
      "time": 693,
      "duration": 0.333,
      "velocity": 0.71,
      "hand": "right"
    },
    {
      "midi": 91,
      "time": 693.25,
      "duration": 0.333,
      "velocity": 0.71,
      "hand": "right"
    },
    {
      "midi": 87,
      "time": 693.5,
      "duration": 0.333,
      "velocity": 0.71,
      "hand": "right"
    },
    {
      "midi": 85,
      "time": 693.75,
      "duration": 0.333,
      "velocity": 0.71,
      "hand": "right"
    },
    {
      "midi": 82,
      "time": 694,
      "duration": 0.333,
      "velocity": 0.71,
      "hand": "right"
    },
    {
      "midi": 80,
      "time": 694.25,
      "duration": 0.333,
      "velocity": 0.71,
      "hand": "right"
    },
    {
      "midi": 77,
      "time": 694.5,
      "duration": 0.333,
      "velocity": 0.71,
      "hand": "right"
    },
    {
      "midi": 75,
      "time": 694.75,
      "duration": 0.333,
      "velocity": 0.71,
      "hand": "right"
    },
    {
      "midi": 72,
      "time": 695,
      "duration": 0.333,
      "velocity": 0.71,
      "hand": "right"
    },
    {
      "midi": 70,
      "time": 695.25,
      "duration": 0.333,
      "velocity": 0.71,
      "hand": "right"
    },
    {
      "midi": 67,
      "time": 695.5,
      "duration": 0.333,
      "velocity": 0.71,
      "hand": "right"
    },
    {
      "midi": 65,
      "time": 695.75,
      "duration": 0.333,
      "velocity": 0.71,
      "hand": "right"
    },
    {
      "midi": 60,
      "time": 696,
      "duration": 0.333,
      "velocity": 0.71,
      "hand": "right"
    },
    {
      "midi": 68,
      "time": 696.25,
      "duration": 0.333,
      "velocity": 0.71,
      "hand": "right"
    },
    {
      "midi": 72,
      "time": 696.5,
      "duration": 0.333,
      "velocity": 0.71,
      "hand": "right"
    },
    {
      "midi": 80,
      "time": 696.75,
      "duration": 0.333,
      "velocity": 0.71,
      "hand": "right"
    },
    {
      "midi": 84,
      "time": 697,
      "duration": 0.333,
      "velocity": 0.71,
      "hand": "right"
    },
    {
      "midi": 92,
      "time": 697.25,
      "duration": 0.333,
      "velocity": 0.71,
      "hand": "right"
    },
    {
      "midi": 97,
      "time": 697.5,
      "duration": 0.333,
      "velocity": 0.71,
      "hand": "right"
    },
    {
      "midi": 96,
      "time": 697.75,
      "duration": 0.333,
      "velocity": 0.71,
      "hand": "right"
    },
    {
      "midi": 89,
      "time": 698,
      "duration": 0.333,
      "velocity": 0.71,
      "hand": "right"
    },
    {
      "midi": 94,
      "time": 698.25,
      "duration": 0.333,
      "velocity": 0.71,
      "hand": "right"
    },
    {
      "midi": 89,
      "time": 698.5,
      "duration": 0.333,
      "velocity": 0.71,
      "hand": "right"
    },
    {
      "midi": 91,
      "time": 698.75,
      "duration": 0.333,
      "velocity": 0.71,
      "hand": "right"
    },
    {
      "midi": 89,
      "time": 699,
      "duration": 0.333,
      "velocity": 0.71,
      "hand": "right"
    },
    {
      "midi": 84,
      "time": 699.25,
      "duration": 0.333,
      "velocity": 0.71,
      "hand": "right"
    },
    {
      "midi": 85,
      "time": 699.5,
      "duration": 0.333,
      "velocity": 0.71,
      "hand": "right"
    },
    {
      "midi": 84,
      "time": 699.75,
      "duration": 0.333,
      "velocity": 0.71,
      "hand": "right"
    },
    {
      "midi": 77,
      "time": 700,
      "duration": 0.333,
      "velocity": 0.71,
      "hand": "right"
    },
    {
      "midi": 82,
      "time": 700.25,
      "duration": 0.333,
      "velocity": 0.71,
      "hand": "right"
    },
    {
      "midi": 77,
      "time": 700.5,
      "duration": 0.333,
      "velocity": 0.71,
      "hand": "right"
    },
    {
      "midi": 79,
      "time": 700.75,
      "duration": 0.333,
      "velocity": 0.71,
      "hand": "right"
    },
    {
      "midi": 77,
      "time": 701,
      "duration": 0.333,
      "velocity": 0.71,
      "hand": "right"
    },
    {
      "midi": 72,
      "time": 701.25,
      "duration": 0.333,
      "velocity": 0.71,
      "hand": "right"
    },
    {
      "midi": 73,
      "time": 701.5,
      "duration": 0.333,
      "velocity": 0.71,
      "hand": "right"
    },
    {
      "midi": 72,
      "time": 701.75,
      "duration": 0.333,
      "velocity": 0.71,
      "hand": "right"
    },
    {
      "midi": 65,
      "time": 702,
      "duration": 0.333,
      "velocity": 0.71,
      "hand": "right"
    },
    {
      "midi": 70,
      "time": 702.25,
      "duration": 0.333,
      "velocity": 0.71,
      "hand": "right"
    },
    {
      "midi": 65,
      "time": 702.5,
      "duration": 0.333,
      "velocity": 0.71,
      "hand": "right"
    },
    {
      "midi": 67,
      "time": 702.75,
      "duration": 0.333,
      "velocity": 0.71,
      "hand": "right"
    },
    {
      "midi": 65,
      "time": 703,
      "duration": 0.333,
      "velocity": 0.71,
      "hand": "right"
    },
    {
      "midi": 60,
      "time": 703.25,
      "duration": 0.333,
      "velocity": 0.71,
      "hand": "right"
    },
    {
      "midi": 61,
      "time": 703.5,
      "duration": 0.333,
      "velocity": 0.71,
      "hand": "right"
    },
    {
      "midi": 60,
      "time": 703.75,
      "duration": 0.333,
      "velocity": 0.71,
      "hand": "right"
    },
    {
      "midi": 53,
      "time": 704,
      "duration": 0.333,
      "velocity": 0.71,
      "hand": "right"
    },
    {
      "midi": 58,
      "time": 704.25,
      "duration": 0.333,
      "velocity": 0.71,
      "hand": "right"
    },
    {
      "midi": 53,
      "time": 704.5,
      "duration": 0.333,
      "velocity": 0.71,
      "hand": "right"
    },
    {
      "midi": 55,
      "time": 704.75,
      "duration": 0.333,
      "velocity": 0.71,
      "hand": "right"
    },
    {
      "midi": 53,
      "time": 705,
      "duration": 0.333,
      "velocity": 0.71,
      "hand": "right"
    },
    {
      "midi": 48,
      "time": 705.25,
      "duration": 0.333,
      "velocity": 0.71,
      "hand": "right"
    },
    {
      "midi": 49,
      "time": 705.5,
      "duration": 0.333,
      "velocity": 0.71,
      "hand": "right"
    },
    {
      "midi": 48,
      "time": 705.75,
      "duration": 0.333,
      "velocity": 0.71,
      "hand": "right"
    },
    {
      "midi": 41,
      "time": 706,
      "duration": 0.333,
      "velocity": 0.71,
      "hand": "right"
    },
    {
      "midi": 49,
      "time": 706.25,
      "duration": 0.333,
      "velocity": 0.71,
      "hand": "right"
    },
    {
      "midi": 44,
      "time": 706.5,
      "duration": 0.333,
      "velocity": 0.71,
      "hand": "right"
    },
    {
      "midi": 49,
      "time": 706.75,
      "duration": 0.333,
      "velocity": 0.71,
      "hand": "right"
    },
    {
      "midi": 48,
      "time": 707,
      "duration": 0.333,
      "velocity": 0.71,
      "hand": "right"
    },
    {
      "midi": 44,
      "time": 707.25,
      "duration": 0.333,
      "velocity": 0.71,
      "hand": "right"
    },
    {
      "midi": 49,
      "time": 707.5,
      "duration": 0.333,
      "velocity": 0.71,
      "hand": "right"
    },
    {
      "midi": 48,
      "time": 707.75,
      "duration": 0.333,
      "velocity": 0.71,
      "hand": "right"
    },
    {
      "midi": 41,
      "time": 708,
      "duration": 0.5,
      "velocity": 0.71,
      "hand": "right"
    },
    {
      "midi": 77,
      "time": 709.5,
      "duration": 0.5,
      "velocity": 0.71,
      "hand": "right"
    },
    {
      "midi": 85,
      "time": 711,
      "duration": 0.5,
      "velocity": 0.71,
      "hand": "right"
    },
    {
      "midi": 64,
      "time": 712.5,
      "duration": 0.5,
      "velocity": 0.71,
      "hand": "right"
    },
    {
      "midi": 65,
      "time": 714,
      "duration": 3,
      "velocity": 0.71,
      "hand": "right"
    }
  ],
  "notes2Hands": [
    {
      "midi": 67,
      "time": 0,
      "duration": 0.5,
      "velocity": 0.71,
      "hand": "right"
    },
    {
      "midi": 79,
      "time": 0,
      "duration": 0.5,
      "velocity": 0.71,
      "hand": "right"
    },
    {
      "midi": 67,
      "time": 0.5,
      "duration": 0.5,
      "velocity": 0.71,
      "hand": "right"
    },
    {
      "midi": 79,
      "time": 0.5,
      "duration": 0.5,
      "velocity": 0.71,
      "hand": "right"
    },
    {
      "midi": 67,
      "time": 1,
      "duration": 0.5,
      "velocity": 0.71,
      "hand": "right"
    },
    {
      "midi": 79,
      "time": 1,
      "duration": 0.5,
      "velocity": 0.71,
      "hand": "right"
    },
    {
      "midi": 64,
      "time": 1.5,
      "duration": 0.5,
      "velocity": 0.71,
      "hand": "right"
    },
    {
      "midi": 67,
      "time": 1.5,
      "duration": 0.5,
      "velocity": 0.71,
      "hand": "right"
    },
    {
      "midi": 79,
      "time": 1.5,
      "duration": 0.5,
      "velocity": 0.71,
      "hand": "right"
    },
    {
      "midi": 72,
      "time": 1.75,
      "duration": 0.25,
      "velocity": 0.71,
      "hand": "right"
    },
    {
      "midi": 64,
      "time": 2,
      "duration": 0.5,
      "velocity": 0.65,
      "hand": "right"
    },
    {
      "midi": 67,
      "time": 2,
      "duration": 0.5,
      "velocity": 0.71,
      "hand": "right"
    },
    {
      "midi": 79,
      "time": 2,
      "duration": 0.5,
      "velocity": 0.71,
      "hand": "right"
    },
    {
      "midi": 72,
      "time": 2.25,
      "duration": 0.25,
      "velocity": 0.71,
      "hand": "right"
    },
    {
      "midi": 62,
      "time": 2.5,
      "duration": 0.5,
      "velocity": 0.59,
      "hand": "right"
    },
    {
      "midi": 67,
      "time": 2.5,
      "duration": 0.5,
      "velocity": 0.71,
      "hand": "right"
    },
    {
      "midi": 79,
      "time": 2.5,
      "duration": 0.5,
      "velocity": 0.71,
      "hand": "right"
    },
    {
      "midi": 72,
      "time": 2.75,
      "duration": 0.25,
      "velocity": 0.71,
      "hand": "right"
    },
    {
      "midi": 62,
      "time": 3,
      "duration": 0.5,
      "velocity": 0.54,
      "hand": "right"
    },
    {
      "midi": 67,
      "time": 3,
      "duration": 0.5,
      "velocity": 0.71,
      "hand": "right"
    },
    {
      "midi": 79,
      "time": 3,
      "duration": 0.5,
      "velocity": 0.71,
      "hand": "right"
    },
    {
      "midi": 70,
      "time": 3.25,
      "duration": 0.25,
      "velocity": 0.71,
      "hand": "right"
    },
    {
      "midi": 72,
      "time": 3.25,
      "duration": 0.25,
      "velocity": 0.71,
      "hand": "right"
    },
    {
      "midi": 60,
      "time": 3.5,
      "duration": 0.5,
      "velocity": 0.48,
      "hand": "right"
    },
    {
      "midi": 67,
      "time": 3.5,
      "duration": 0.5,
      "velocity": 0.82,
      "hand": "right"
    },
    {
      "midi": 79,
      "time": 3.5,
      "duration": 0.5,
      "velocity": 0.82,
      "hand": "right"
    },
    {
      "midi": 70,
      "time": 3.75,
      "duration": 0.25,
      "velocity": 0.71,
      "hand": "right"
    },
    {
      "midi": 72,
      "time": 3.75,
      "duration": 0.25,
      "velocity": 0.71,
      "hand": "right"
    },
    {
      "midi": 67,
      "time": 4,
      "duration": 0.5,
      "velocity": 0.93,
      "hand": "right"
    },
    {
      "midi": 79,
      "time": 4,
      "duration": 0.5,
      "velocity": 0.93,
      "hand": "right"
    },
    {
      "midi": 70,
      "time": 4.25,
      "duration": 0.25,
      "velocity": 0.71,
      "hand": "right"
    },
    {
      "midi": 72,
      "time": 4.25,
      "duration": 0.25,
      "velocity": 0.71,
      "hand": "right"
    },
    {
      "midi": 41,
      "time": 4.5,
      "duration": 0.25,
      "velocity": 0.48,
      "hand": "left"
    },
    {
      "midi": 67,
      "time": 4.5,
      "duration": 0.5,
      "velocity": 0.93,
      "hand": "right"
    },
    {
      "midi": 79,
      "time": 4.5,
      "duration": 0.5,
      "velocity": 0.93,
      "hand": "right"
    },
    {
      "midi": 60,
      "time": 4.75,
      "duration": 0.25,
      "velocity": 0.48,
      "hand": "right"
    },
    {
      "midi": 69,
      "time": 4.75,
      "duration": 0.25,
      "velocity": 0.71,
      "hand": "right"
    },
    {
      "midi": 72,
      "time": 4.75,
      "duration": 0.25,
      "velocity": 0.71,
      "hand": "right"
    },
    {
      "midi": 57,
      "time": 5,
      "duration": 0.25,
      "velocity": 0.48,
      "hand": "left"
    },
    {
      "midi": 65,
      "time": 5,
      "duration": 0.5,
      "velocity": 0.82,
      "hand": "right"
    },
    {
      "midi": 77,
      "time": 5,
      "duration": 0.5,
      "velocity": 0.82,
      "hand": "right"
    },
    {
      "midi": 60,
      "time": 5.25,
      "duration": 0.25,
      "velocity": 0.48,
      "hand": "right"
    },
    {
      "midi": 69,
      "time": 5.25,
      "duration": 0.25,
      "velocity": 0.71,
      "hand": "right"
    },
    {
      "midi": 72,
      "time": 5.25,
      "duration": 0.25,
      "velocity": 0.71,
      "hand": "right"
    },
    {
      "midi": 50,
      "time": 5.5,
      "duration": 0.25,
      "velocity": 0.48,
      "hand": "left"
    },
    {
      "midi": 64,
      "time": 5.5,
      "duration": 0.5,
      "velocity": 0.71,
      "hand": "right"
    },
    {
      "midi": 76,
      "time": 5.5,
      "duration": 0.5,
      "velocity": 0.71,
      "hand": "right"
    },
    {
      "midi": 60,
      "time": 5.75,
      "duration": 0.25,
      "velocity": 0.48,
      "hand": "right"
    },
    {
      "midi": 69,
      "time": 5.75,
      "duration": 0.25,
      "velocity": 0.71,
      "hand": "right"
    },
    {
      "midi": 72,
      "time": 5.75,
      "duration": 0.25,
      "velocity": 0.71,
      "hand": "right"
    },
    {
      "midi": 43,
      "time": 6,
      "duration": 0.25,
      "velocity": 0.48,
      "hand": "left"
    },
    {
      "midi": 64,
      "time": 6,
      "duration": 0.5,
      "velocity": 0.71,
      "hand": "right"
    },
    {
      "midi": 76,
      "time": 6,
      "duration": 0.5,
      "velocity": 0.71,
      "hand": "right"
    },
    {
      "midi": 55,
      "time": 6.25,
      "duration": 0.25,
      "velocity": 0.48,
      "hand": "left"
    },
    {
      "midi": 67,
      "time": 6.25,
      "duration": 0.25,
      "velocity": 0.71,
      "hand": "right"
    },
    {
      "midi": 71,
      "time": 6.25,
      "duration": 0.25,
      "velocity": 0.71,
      "hand": "right"
    },
    {
      "midi": 53,
      "time": 6.5,
      "duration": 0.25,
      "velocity": 0.48,
      "hand": "left"
    },
    {
      "midi": 59,
      "time": 6.5,
      "duration": 0.25,
      "velocity": 0.48,
      "hand": "left"
    },
    {
      "midi": 62,
      "time": 6.5,
      "duration": 0.5,
      "velocity": 0.71,
      "hand": "right"
    },
    {
      "midi": 74,
      "time": 6.5,
      "duration": 0.5,
      "velocity": 0.71,
      "hand": "right"
    },
    {
      "midi": 55,
      "time": 6.75,
      "duration": 0.25,
      "velocity": 0.48,
      "hand": "left"
    },
    {
      "midi": 67,
      "time": 6.75,
      "duration": 0.25,
      "velocity": 0.71,
      "hand": "right"
    },
    {
      "midi": 71,
      "time": 6.75,
      "duration": 0.25,
      "velocity": 0.71,
      "hand": "right"
    },
    {
      "midi": 52,
      "time": 7,
      "duration": 0.25,
      "velocity": 0.48,
      "hand": "left"
    },
    {
      "midi": 60,
      "time": 7,
      "duration": 0.5,
      "velocity": 0.71,
      "hand": "right"
    },
    {
      "midi": 72,
      "time": 7,
      "duration": 0.5,
      "velocity": 0.71,
      "hand": "right"
    },
    {
      "midi": 55,
      "time": 7.25,
      "duration": 0.25,
      "velocity": 0.48,
      "hand": "left"
    },
    {
      "midi": 67,
      "time": 7.25,
      "duration": 0.25,
      "velocity": 0.71,
      "hand": "right"
    },
    {
      "midi": 48,
      "time": 7.5,
      "duration": 0.25,
      "velocity": 0.48,
      "hand": "left"
    },
    {
      "midi": 64,
      "time": 7.5,
      "duration": 0.25,
      "velocity": 0.71,
      "hand": "right"
    },
    {
      "midi": 76,
      "time": 7.5,
      "duration": 1.5,
      "velocity": 0.71,
      "hand": "right"
    },
    {
      "midi": 55,
      "time": 7.75,
      "duration": 0.25,
      "velocity": 0.48,
      "hand": "left"
    },
    {
      "midi": 67,
      "time": 7.75,
      "duration": 0.25,
      "velocity": 0.71,
      "hand": "right"
    },
    {
      "midi": 72,
      "time": 7.75,
      "duration": 0.25,
      "velocity": 0.71,
      "hand": "right"
    },
    {
      "midi": 60,
      "time": 8,
      "duration": 0.25,
      "velocity": 0.48,
      "hand": "right"
    },
    {
      "midi": 64,
      "time": 8,
      "duration": 0.25,
      "velocity": 0.71,
      "hand": "right"
    },
    {
      "midi": 57,
      "time": 8.25,
      "duration": 0.25,
      "velocity": 0.48,
      "hand": "left"
    },
    {
      "midi": 65,
      "time": 8.25,
      "duration": 0.25,
      "velocity": 0.71,
      "hand": "right"
    },
    {
      "midi": 72,
      "time": 8.25,
      "duration": 0.25,
      "velocity": 0.71,
      "hand": "right"
    },
    {
      "midi": 55,
      "time": 8.5,
      "duration": 0.25,
      "velocity": 0.48,
      "hand": "left"
    },
    {
      "midi": 64,
      "time": 8.5,
      "duration": 0.25,
      "velocity": 0.71,
      "hand": "right"
    },
    {
      "midi": 67,
      "time": 8.75,
      "duration": 0.25,
      "velocity": 0.71,
      "hand": "right"
    },
    {
      "midi": 72,
      "time": 8.75,
      "duration": 0.25,
      "velocity": 0.71,
      "hand": "right"
    },
    {
      "midi": 36,
      "time": 9,
      "duration": 0.25,
      "velocity": 0.48,
      "hand": "left"
    },
    {
      "midi": 64,
      "time": 9,
      "duration": 0.5,
      "velocity": 0.71,
      "hand": "right"
    },
    {
      "midi": 79,
      "time": 9,
      "duration": 0.5,
      "velocity": 0.71,
      "hand": "right"
    },
    {
      "midi": 55,
      "time": 9.25,
      "duration": 0.25,
      "velocity": 0.48,
      "hand": "left"
    },
    {
      "midi": 72,
      "time": 9.25,
      "duration": 0.25,
      "velocity": 0.71,
      "hand": "right"
    },
    {
      "midi": 60,
      "time": 9.5,
      "duration": 0.25,
      "velocity": 0.48,
      "hand": "right"
    },
    {
      "midi": 67,
      "time": 9.5,
      "duration": 0.5,
      "velocity": 0.71,
      "hand": "right"
    },
    {
      "midi": 79,
      "time": 9.5,
      "duration": 0.5,
      "velocity": 0.71,
      "hand": "right"
    },
    {
      "midi": 62,
      "time": 9.75,
      "duration": 0.25,
      "velocity": 0.48,
      "hand": "right"
    },
    {
      "midi": 70,
      "time": 9.75,
      "duration": 0.25,
      "velocity": 0.71,
      "hand": "right"
    },
    {
      "midi": 72,
      "time": 9.75,
      "duration": 0.25,
      "velocity": 0.71,
      "hand": "right"
    },
    {
      "midi": 64,
      "time": 10,
      "duration": 0.5,
      "velocity": 0.48,
      "hand": "right"
    },
    {
      "midi": 67,
      "time": 10,
      "duration": 0.5,
      "velocity": 0.71,
      "hand": "right"
    },
    {
      "midi": 79,
      "time": 10,
      "duration": 0.5,
      "velocity": 0.71,
      "hand": "right"
    },
    {
      "midi": 70,
      "time": 10.25,
      "duration": 0.25,
      "velocity": 0.71,
      "hand": "right"
    },
    {
      "midi": 72,
      "time": 10.25,
      "duration": 0.25,
      "velocity": 0.71,
      "hand": "right"
    },
    {
      "midi": 41,
      "time": 10.5,
      "duration": 0.25,
      "velocity": 0.48,
      "hand": "left"
    },
    {
      "midi": 67,
      "time": 10.5,
      "duration": 0.5,
      "velocity": 0.71,
      "hand": "right"
    },
    {
      "midi": 79,
      "time": 10.5,
      "duration": 0.5,
      "velocity": 0.71,
      "hand": "right"
    },
    {
      "midi": 60,
      "time": 10.75,
      "duration": 0.25,
      "velocity": 0.48,
      "hand": "right"
    },
    {
      "midi": 69,
      "time": 10.75,
      "duration": 0.25,
      "velocity": 0.71,
      "hand": "right"
    },
    {
      "midi": 72,
      "time": 10.75,
      "duration": 0.25,
      "velocity": 0.71,
      "hand": "right"
    },
    {
      "midi": 57,
      "time": 11,
      "duration": 0.25,
      "velocity": 0.48,
      "hand": "left"
    },
    {
      "midi": 65,
      "time": 11,
      "duration": 0.5,
      "velocity": 0.71,
      "hand": "right"
    },
    {
      "midi": 77,
      "time": 11,
      "duration": 0.5,
      "velocity": 0.71,
      "hand": "right"
    },
    {
      "midi": 60,
      "time": 11.25,
      "duration": 0.25,
      "velocity": 0.48,
      "hand": "right"
    },
    {
      "midi": 69,
      "time": 11.25,
      "duration": 0.25,
      "velocity": 0.71,
      "hand": "right"
    },
    {
      "midi": 72,
      "time": 11.25,
      "duration": 0.25,
      "velocity": 0.71,
      "hand": "right"
    },
    {
      "midi": 50,
      "time": 11.5,
      "duration": 0.25,
      "velocity": 0.48,
      "hand": "left"
    },
    {
      "midi": 64,
      "time": 11.5,
      "duration": 0.5,
      "velocity": 0.71,
      "hand": "right"
    },
    {
      "midi": 76,
      "time": 11.5,
      "duration": 0.5,
      "velocity": 0.71,
      "hand": "right"
    },
    {
      "midi": 60,
      "time": 11.75,
      "duration": 0.25,
      "velocity": 0.48,
      "hand": "right"
    },
    {
      "midi": 69,
      "time": 11.75,
      "duration": 0.25,
      "velocity": 0.71,
      "hand": "right"
    },
    {
      "midi": 72,
      "time": 11.75,
      "duration": 0.25,
      "velocity": 0.71,
      "hand": "right"
    },
    {
      "midi": 43,
      "time": 12,
      "duration": 0.25,
      "velocity": 0.48,
      "hand": "left"
    },
    {
      "midi": 64,
      "time": 12,
      "duration": 0.5,
      "velocity": 0.71,
      "hand": "right"
    },
    {
      "midi": 76,
      "time": 12,
      "duration": 0.5,
      "velocity": 0.71,
      "hand": "right"
    },
    {
      "midi": 55,
      "time": 12.25,
      "duration": 0.25,
      "velocity": 0.48,
      "hand": "left"
    },
    {
      "midi": 67,
      "time": 12.25,
      "duration": 0.25,
      "velocity": 0.71,
      "hand": "right"
    },
    {
      "midi": 71,
      "time": 12.25,
      "duration": 0.25,
      "velocity": 0.71,
      "hand": "right"
    },
    {
      "midi": 53,
      "time": 12.5,
      "duration": 0.25,
      "velocity": 0.48,
      "hand": "left"
    },
    {
      "midi": 59,
      "time": 12.5,
      "duration": 0.25,
      "velocity": 0.48,
      "hand": "left"
    },
    {
      "midi": 62,
      "time": 12.5,
      "duration": 0.5,
      "velocity": 0.71,
      "hand": "right"
    },
    {
      "midi": 74,
      "time": 12.5,
      "duration": 0.5,
      "velocity": 0.71,
      "hand": "right"
    },
    {
      "midi": 55,
      "time": 12.75,
      "duration": 0.25,
      "velocity": 0.48,
      "hand": "left"
    },
    {
      "midi": 67,
      "time": 12.75,
      "duration": 0.25,
      "velocity": 0.71,
      "hand": "right"
    },
    {
      "midi": 71,
      "time": 12.75,
      "duration": 0.25,
      "velocity": 0.71,
      "hand": "right"
    },
    {
      "midi": 52,
      "time": 13,
      "duration": 0.25,
      "velocity": 0.48,
      "hand": "left"
    },
    {
      "midi": 60,
      "time": 13,
      "duration": 0.5,
      "velocity": 0.71,
      "hand": "right"
    },
    {
      "midi": 72,
      "time": 13,
      "duration": 0.5,
      "velocity": 0.71,
      "hand": "right"
    },
    {
      "midi": 55,
      "time": 13.25,
      "duration": 0.25,
      "velocity": 0.48,
      "hand": "left"
    },
    {
      "midi": 67,
      "time": 13.25,
      "duration": 0.25,
      "velocity": 0.71,
      "hand": "right"
    },
    {
      "midi": 48,
      "time": 13.5,
      "duration": 0.25,
      "velocity": 0.48,
      "hand": "left"
    },
    {
      "midi": 64,
      "time": 13.5,
      "duration": 0.25,
      "velocity": 0.71,
      "hand": "right"
    },
    {
      "midi": 76,
      "time": 13.5,
      "duration": 1.5,
      "velocity": 0.71,
      "hand": "right"
    },
    {
      "midi": 55,
      "time": 13.75,
      "duration": 0.25,
      "velocity": 0.48,
      "hand": "left"
    },
    {
      "midi": 67,
      "time": 13.75,
      "duration": 0.25,
      "velocity": 0.71,
      "hand": "right"
    },
    {
      "midi": 72,
      "time": 13.75,
      "duration": 0.25,
      "velocity": 0.71,
      "hand": "right"
    },
    {
      "midi": 60,
      "time": 14,
      "duration": 0.25,
      "velocity": 0.48,
      "hand": "right"
    },
    {
      "midi": 64,
      "time": 14,
      "duration": 0.25,
      "velocity": 0.71,
      "hand": "right"
    },
    {
      "midi": 57,
      "time": 14.25,
      "duration": 0.25,
      "velocity": 0.48,
      "hand": "left"
    },
    {
      "midi": 65,
      "time": 14.25,
      "duration": 0.25,
      "velocity": 0.71,
      "hand": "right"
    },
    {
      "midi": 72,
      "time": 14.25,
      "duration": 0.25,
      "velocity": 0.71,
      "hand": "right"
    },
    {
      "midi": 55,
      "time": 14.5,
      "duration": 0.25,
      "velocity": 0.48,
      "hand": "left"
    },
    {
      "midi": 64,
      "time": 14.5,
      "duration": 0.25,
      "velocity": 0.71,
      "hand": "right"
    },
    {
      "midi": 67,
      "time": 14.75,
      "duration": 0.25,
      "velocity": 0.71,
      "hand": "right"
    },
    {
      "midi": 72,
      "time": 14.75,
      "duration": 0.25,
      "velocity": 0.71,
      "hand": "right"
    },
    {
      "midi": 43,
      "time": 15,
      "duration": 0.25,
      "velocity": 0.71,
      "hand": "left"
    },
    {
      "midi": 64,
      "time": 15,
      "duration": 0.5,
      "velocity": 0.71,
      "hand": "right"
    },
    {
      "midi": 76,
      "time": 15,
      "duration": 0.5,
      "velocity": 0.71,
      "hand": "right"
    },
    {
      "midi": 55,
      "time": 15.25,
      "duration": 0.25,
      "velocity": 0.71,
      "hand": "left"
    },
    {
      "midi": 67,
      "time": 15.25,
      "duration": 0.25,
      "velocity": 0.71,
      "hand": "right"
    },
    {
      "midi": 71,
      "time": 15.25,
      "duration": 0.25,
      "velocity": 0.71,
      "hand": "right"
    },
    {
      "midi": 53,
      "time": 15.5,
      "duration": 0.25,
      "velocity": 0.71,
      "hand": "left"
    },
    {
      "midi": 59,
      "time": 15.5,
      "duration": 0.25,
      "velocity": 0.71,
      "hand": "left"
    },
    {
      "midi": 62,
      "time": 15.5,
      "duration": 0.5,
      "velocity": 0.71,
      "hand": "right"
    },
    {
      "midi": 74,
      "time": 15.5,
      "duration": 0.5,
      "velocity": 0.71,
      "hand": "right"
    },
    {
      "midi": 55,
      "time": 15.75,
      "duration": 0.25,
      "velocity": 0.71,
      "hand": "left"
    },
    {
      "midi": 67,
      "time": 15.75,
      "duration": 0.25,
      "velocity": 0.71,
      "hand": "right"
    },
    {
      "midi": 71,
      "time": 15.75,
      "duration": 0.25,
      "velocity": 0.71,
      "hand": "right"
    },
    {
      "midi": 52,
      "time": 16,
      "duration": 0.25,
      "velocity": 0.71,
      "hand": "left"
    },
    {
      "midi": 60,
      "time": 16,
      "duration": 0.5,
      "velocity": 0.71,
      "hand": "right"
    },
    {
      "midi": 72,
      "time": 16,
      "duration": 0.5,
      "velocity": 0.71,
      "hand": "right"
    },
    {
      "midi": 55,
      "time": 16.25,
      "duration": 0.25,
      "velocity": 0.71,
      "hand": "left"
    },
    {
      "midi": 67,
      "time": 16.25,
      "duration": 0.25,
      "velocity": 0.71,
      "hand": "right"
    },
    {
      "midi": 48,
      "time": 16.5,
      "duration": 0.25,
      "velocity": 0.71,
      "hand": "left"
    },
    {
      "midi": 64,
      "time": 16.5,
      "duration": 0.25,
      "velocity": 0.71,
      "hand": "right"
    },
    {
      "midi": 76,
      "time": 16.5,
      "duration": 4,
      "velocity": 0.71,
      "hand": "right"
    },
    {
      "midi": 55,
      "time": 16.75,
      "duration": 0.25,
      "velocity": 0.71,
      "hand": "left"
    },
    {
      "midi": 67,
      "time": 16.75,
      "duration": 0.25,
      "velocity": 0.71,
      "hand": "right"
    },
    {
      "midi": 72,
      "time": 16.75,
      "duration": 0.25,
      "velocity": 0.71,
      "hand": "right"
    },
    {
      "midi": 60,
      "time": 17,
      "duration": 0.25,
      "velocity": 0.71,
      "hand": "right"
    },
    {
      "midi": 64,
      "time": 17,
      "duration": 0.25,
      "velocity": 0.71,
      "hand": "right"
    },
    {
      "midi": 57,
      "time": 17.25,
      "duration": 0.25,
      "velocity": 0.71,
      "hand": "left"
    },
    {
      "midi": 65,
      "time": 17.25,
      "duration": 0.25,
      "velocity": 0.71,
      "hand": "right"
    },
    {
      "midi": 72,
      "time": 17.25,
      "duration": 0.25,
      "velocity": 0.71,
      "hand": "right"
    },
    {
      "midi": 55,
      "time": 17.5,
      "duration": 0.25,
      "velocity": 0.71,
      "hand": "left"
    },
    {
      "midi": 64,
      "time": 17.5,
      "duration": 0.25,
      "velocity": 0.71,
      "hand": "right"
    },
    {
      "midi": 48,
      "time": 17.75,
      "duration": 0.25,
      "velocity": 0.71,
      "hand": "left"
    },
    {
      "midi": 67,
      "time": 17.75,
      "duration": 0.25,
      "velocity": 0.71,
      "hand": "right"
    },
    {
      "midi": 72,
      "time": 17.75,
      "duration": 0.25,
      "velocity": 0.71,
      "hand": "right"
    },
    {
      "midi": 60,
      "time": 18,
      "duration": 0.25,
      "velocity": 0.71,
      "hand": "right"
    },
    {
      "midi": 64,
      "time": 18,
      "duration": 0.25,
      "velocity": 0.71,
      "hand": "right"
    },
    {
      "midi": 57,
      "time": 18.25,
      "duration": 0.25,
      "velocity": 0.71,
      "hand": "left"
    },
    {
      "midi": 65,
      "time": 18.25,
      "duration": 0.25,
      "velocity": 0.71,
      "hand": "right"
    },
    {
      "midi": 72,
      "time": 18.25,
      "duration": 0.25,
      "velocity": 0.71,
      "hand": "right"
    },
    {
      "midi": 55,
      "time": 18.5,
      "duration": 0.25,
      "velocity": 0.71,
      "hand": "left"
    },
    {
      "midi": 64,
      "time": 18.5,
      "duration": 0.25,
      "velocity": 0.71,
      "hand": "right"
    },
    {
      "midi": 48,
      "time": 18.75,
      "duration": 0.75,
      "velocity": 0.71,
      "hand": "left"
    },
    {
      "midi": 67,
      "time": 18.75,
      "duration": 0.25,
      "velocity": 0.71,
      "hand": "right"
    },
    {
      "midi": 72,
      "time": 18.75,
      "duration": 0.25,
      "velocity": 0.71,
      "hand": "right"
    },
    {
      "midi": 60,
      "time": 19,
      "duration": 0.25,
      "velocity": 0.71,
      "hand": "right"
    },
    {
      "midi": 64,
      "time": 19,
      "duration": 0.25,
      "velocity": 0.71,
      "hand": "right"
    },
    {
      "midi": 57,
      "time": 19.25,
      "duration": 0.25,
      "velocity": 0.71,
      "hand": "left"
    },
    {
      "midi": 65,
      "time": 19.25,
      "duration": 0.25,
      "velocity": 0.71,
      "hand": "right"
    },
    {
      "midi": 72,
      "time": 19.25,
      "duration": 1.25,
      "velocity": 0.71,
      "hand": "right"
    },
    {
      "midi": 48,
      "time": 19.5,
      "duration": 1,
      "velocity": 0.71,
      "hand": "left"
    },
    {
      "midi": 55,
      "time": 19.5,
      "duration": 1,
      "velocity": 0.71,
      "hand": "left"
    },
    {
      "midi": 64,
      "time": 19.5,
      "duration": 1,
      "velocity": 0.71,
      "hand": "right"
    },
    {
      "midi": 72,
      "time": 20.5,
      "duration": 1,
      "velocity": 0.71,
      "hand": "right"
    },
    {
      "midi": 73,
      "time": 21.5,
      "duration": 0.5,
      "velocity": 0.71,
      "hand": "right"
    },
    {
      "midi": 71,
      "time": 22,
      "duration": 1,
      "velocity": 0.71,
      "hand": "right"
    },
    {
      "midi": 41,
      "time": 22.5,
      "duration": 0.5,
      "velocity": 0.48,
      "hand": "left"
    },
    {
      "midi": 60,
      "time": 23,
      "duration": 0.5,
      "velocity": 0.48,
      "hand": "right"
    },
    {
      "midi": 65,
      "time": 23,
      "duration": 0.5,
      "velocity": 0.48,
      "hand": "right"
    },
    {
      "midi": 68,
      "time": 23,
      "duration": 0.5,
      "velocity": 0.48,
      "hand": "right"
    },
    {
      "midi": 72,
      "time": 23,
      "duration": 0.5,
      "velocity": 0.71,
      "hand": "right"
    },
    {
      "midi": 56,
      "time": 23.5,
      "duration": 0.5,
      "velocity": 0.48,
      "hand": "left"
    },
    {
      "midi": 60,
      "time": 23.5,
      "duration": 0.5,
      "velocity": 0.48,
      "hand": "right"
    },
    {
      "midi": 65,
      "time": 23.5,
      "duration": 0.5,
      "velocity": 0.48,
      "hand": "right"
    },
    {
      "midi": 77,
      "time": 23.5,
      "duration": 0.5,
      "velocity": 0.71,
      "hand": "right"
    },
    {
      "midi": 53,
      "time": 24,
      "duration": 0.5,
      "velocity": 0.48,
      "hand": "left"
    },
    {
      "midi": 76,
      "time": 24,
      "duration": 0.5,
      "velocity": 0.71,
      "hand": "right"
    },
    {
      "midi": 61,
      "time": 24.5,
      "duration": 0.5,
      "velocity": 0.48,
      "hand": "right"
    },
    {
      "midi": 64,
      "time": 24.5,
      "duration": 0.5,
      "velocity": 0.48,
      "hand": "right"
    },
    {
      "midi": 67,
      "time": 24.5,
      "duration": 0.5,
      "velocity": 0.48,
      "hand": "right"
    },
    {
      "midi": 70,
      "time": 24.5,
      "duration": 0.5,
      "velocity": 0.71,
      "hand": "right"
    },
    {
      "midi": 58,
      "time": 25,
      "duration": 0.5,
      "velocity": 0.48,
      "hand": "left"
    },
    {
      "midi": 61,
      "time": 25,
      "duration": 0.5,
      "velocity": 0.48,
      "hand": "right"
    },
    {
      "midi": 64,
      "time": 25,
      "duration": 0.5,
      "velocity": 0.48,
      "hand": "right"
    },
    {
      "midi": 73,
      "time": 25,
      "duration": 1,
      "velocity": 0.71,
      "hand": "right"
    },
    {
      "midi": 41,
      "time": 25.5,
      "duration": 0.5,
      "velocity": 0.48,
      "hand": "left"
    },
    {
      "midi": 60,
      "time": 26,
      "duration": 0.5,
      "velocity": 0.48,
      "hand": "right"
    },
    {
      "midi": 65,
      "time": 26,
      "duration": 0.5,
      "velocity": 0.48,
      "hand": "right"
    },
    {
      "midi": 68,
      "time": 26,
      "duration": 0.5,
      "velocity": 0.48,
      "hand": "right"
    },
    {
      "midi": 72,
      "time": 26,
      "duration": 0.5,
      "velocity": 0.71,
      "hand": "right"
    },
    {
      "midi": 56,
      "time": 26.5,
      "duration": 0.5,
      "velocity": 0.48,
      "hand": "left"
    },
    {
      "midi": 60,
      "time": 26.5,
      "duration": 0.5,
      "velocity": 0.48,
      "hand": "right"
    },
    {
      "midi": 65,
      "time": 26.5,
      "duration": 0.5,
      "velocity": 0.48,
      "hand": "right"
    },
    {
      "midi": 77,
      "time": 26.5,
      "duration": 0.5,
      "velocity": 0.71,
      "hand": "right"
    },
    {
      "midi": 53,
      "time": 27,
      "duration": 0.5,
      "velocity": 0.48,
      "hand": "left"
    },
    {
      "midi": 76,
      "time": 27,
      "duration": 0.5,
      "velocity": 0.71,
      "hand": "right"
    },
    {
      "midi": 61,
      "time": 27.5,
      "duration": 0.5,
      "velocity": 0.48,
      "hand": "right"
    },
    {
      "midi": 64,
      "time": 27.5,
      "duration": 0.5,
      "velocity": 0.48,
      "hand": "right"
    },
    {
      "midi": 67,
      "time": 27.5,
      "duration": 0.5,
      "velocity": 0.48,
      "hand": "right"
    },
    {
      "midi": 70,
      "time": 27.5,
      "duration": 0.5,
      "velocity": 0.71,
      "hand": "right"
    },
    {
      "midi": 58,
      "time": 28,
      "duration": 0.5,
      "velocity": 0.48,
      "hand": "left"
    },
    {
      "midi": 61,
      "time": 28,
      "duration": 0.5,
      "velocity": 0.48,
      "hand": "right"
    },
    {
      "midi": 64,
      "time": 28,
      "duration": 0.5,
      "velocity": 0.48,
      "hand": "right"
    },
    {
      "midi": 73,
      "time": 28,
      "duration": 0.5,
      "velocity": 0.71,
      "hand": "right"
    },
    {
      "midi": 53,
      "time": 28.5,
      "duration": 0.5,
      "velocity": 0.48,
      "hand": "left"
    },
    {
      "midi": 60,
      "time": 29,
      "duration": 0.5,
      "velocity": 0.48,
      "hand": "right"
    },
    {
      "midi": 65,
      "time": 29,
      "duration": 0.5,
      "velocity": 0.48,
      "hand": "right"
    },
    {
      "midi": 68,
      "time": 29,
      "duration": 0.5,
      "velocity": 0.48,
      "hand": "right"
    },
    {
      "midi": 72,
      "time": 29,
      "duration": 0.25,
      "velocity": 0.71,
      "hand": "right"
    },
    {
      "midi": 73,
      "time": 29.25,
      "duration": 0.25,
      "velocity": 0.71,
      "hand": "right"
    },
    {
      "midi": 56,
      "time": 29.5,
      "duration": 0.5,
      "velocity": 0.48,
      "hand": "left"
    },
    {
      "midi": 60,
      "time": 29.5,
      "duration": 0.5,
      "velocity": 0.48,
      "hand": "right"
    },
    {
      "midi": 65,
      "time": 29.5,
      "duration": 0.5,
      "velocity": 0.48,
      "hand": "right"
    },
    {
      "midi": 72,
      "time": 29.5,
      "duration": 0.25,
      "velocity": 0.71,
      "hand": "right"
    },
    {
      "midi": 73,
      "time": 29.75,
      "duration": 0.25,
      "velocity": 0.71,
      "hand": "right"
    },
    {
      "midi": 51,
      "time": 30,
      "duration": 0.5,
      "velocity": 0.48,
      "hand": "left"
    },
    {
      "midi": 75,
      "time": 30,
      "duration": 0.5,
      "velocity": 0.71,
      "hand": "right"
    },
    {
      "midi": 60,
      "time": 30.5,
      "duration": 0.5,
      "velocity": 0.48,
      "hand": "right"
    },
    {
      "midi": 68,
      "time": 30.5,
      "duration": 0.5,
      "velocity": 0.48,
      "hand": "right"
    },
    {
      "midi": 75,
      "time": 30.5,
      "duration": 0.5,
      "velocity": 0.71,
      "hand": "right"
    },
    {
      "midi": 51,
      "time": 31,
      "duration": 0.5,
      "velocity": 0.48,
      "hand": "left"
    },
    {
      "midi": 75,
      "time": 31,
      "duration": 0.5,
      "velocity": 0.71,
      "hand": "right"
    },
    {
      "midi": 39,
      "time": 31.5,
      "duration": 0.5,
      "velocity": 0.48,
      "hand": "left"
    },
    {
      "midi": 75,
      "time": 31.5,
      "duration": 0.5,
      "velocity": 0.71,
      "hand": "right"
    },
    {
      "midi": 61,
      "time": 32,
      "duration": 0.5,
      "velocity": 0.48,
      "hand": "right"
    },
    {
      "midi": 63,
      "time": 32,
      "duration": 0.5,
      "velocity": 0.48,
      "hand": "right"
    },
    {
      "midi": 67,
      "time": 32,
      "duration": 0.5,
      "velocity": 0.48,
      "hand": "right"
    },
    {
      "midi": 73,
      "time": 32,
      "duration": 0.25,
      "velocity": 0.71,
      "hand": "right"
    },
    {
      "midi": 72,
      "time": 32.25,
      "duration": 0.25,
      "velocity": 0.71,
      "hand": "right"
    },
    {
      "midi": 55,
      "time": 32.5,
      "duration": 0.5,
      "velocity": 0.48,
      "hand": "left"
    },
    {
      "midi": 61,
      "time": 32.5,
      "duration": 0.5,
      "velocity": 0.48,
      "hand": "right"
    },
    {
      "midi": 63,
      "time": 32.5,
      "duration": 0.5,
      "velocity": 0.48,
      "hand": "right"
    },
    {
      "midi": 70,
      "time": 32.5,
      "duration": 0.25,
      "velocity": 0.71,
      "hand": "right"
    },
    {
      "midi": 72,
      "time": 32.75,
      "duration": 0.25,
      "velocity": 0.71,
      "hand": "right"
    },
    {
      "midi": 44,
      "time": 33,
      "duration": 0.5,
      "velocity": 0.48,
      "hand": "left"
    },
    {
      "midi": 68,
      "time": 33,
      "duration": 0.5,
      "velocity": 0.71,
      "hand": "right"
    },
    {
      "midi": 56,
      "time": 33.5,
      "duration": 0.5,
      "velocity": 0.48,
      "hand": "left"
    },
    {
      "midi": 60,
      "time": 33.5,
      "duration": 0.5,
      "velocity": 0.48,
      "hand": "right"
    },
    {
      "midi": 63,
      "time": 33.5,
      "duration": 0.5,
      "velocity": 0.48,
      "hand": "right"
    },
    {
      "midi": 51,
      "time": 34,
      "duration": 0.5,
      "velocity": 0.48,
      "hand": "left"
    },
    {
      "midi": 56,
      "time": 34,
      "duration": 0.5,
      "velocity": 0.48,
      "hand": "left"
    },
    {
      "midi": 60,
      "time": 34,
      "duration": 0.5,
      "velocity": 0.48,
      "hand": "right"
    },
    {
      "midi": 56,
      "time": 34.5,
      "duration": 0.5,
      "velocity": 0.48,
      "hand": "left"
    },
    {
      "midi": 60,
      "time": 34.5,
      "duration": 0.5,
      "velocity": 0.48,
      "hand": "right"
    },
    {
      "midi": 65,
      "time": 34.5,
      "duration": 0.5,
      "velocity": 0.48,
      "hand": "right"
    },
    {
      "midi": 56,
      "time": 35,
      "duration": 0.5,
      "velocity": 0.48,
      "hand": "left"
    },
    {
      "midi": 60,
      "time": 35,
      "duration": 0.5,
      "velocity": 0.48,
      "hand": "right"
    },
    {
      "midi": 63,
      "time": 35,
      "duration": 0.5,
      "velocity": 0.48,
      "hand": "right"
    },
    {
      "midi": 51,
      "time": 35.5,
      "duration": 0.5,
      "velocity": 0.48,
      "hand": "left"
    },
    {
      "midi": 56,
      "time": 35.5,
      "duration": 0.5,
      "velocity": 0.48,
      "hand": "left"
    },
    {
      "midi": 60,
      "time": 35.5,
      "duration": 0.5,
      "velocity": 0.48,
      "hand": "right"
    },
    {
      "midi": 32,
      "time": 36,
      "duration": 0.5,
      "velocity": 0.48,
      "hand": "left"
    },
    {
      "midi": 63,
      "time": 36.5,
      "duration": 0.5,
      "velocity": 0.48,
      "hand": "right"
    },
    {
      "midi": 68,
      "time": 36.5,
      "duration": 0.5,
      "velocity": 0.48,
      "hand": "right"
    },
    {
      "midi": 72,
      "time": 36.5,
      "duration": 0.5,
      "velocity": 0.48,
      "hand": "right"
    },
    {
      "midi": 75,
      "time": 36.5,
      "duration": 0.5,
      "velocity": 0.71,
      "hand": "right"
    },
    {
      "midi": 60,
      "time": 37,
      "duration": 0.5,
      "velocity": 0.48,
      "hand": "right"
    },
    {
      "midi": 63,
      "time": 37,
      "duration": 0.5,
      "velocity": 0.48,
      "hand": "right"
    },
    {
      "midi": 68,
      "time": 37,
      "duration": 0.5,
      "velocity": 0.48,
      "hand": "right"
    },
    {
      "midi": 80,
      "time": 37,
      "duration": 0.5,
      "velocity": 0.71,
      "hand": "right"
    },
    {
      "midi": 56,
      "time": 37.5,
      "duration": 0.5,
      "velocity": 0.48,
      "hand": "left"
    },
    {
      "midi": 79,
      "time": 37.5,
      "duration": 0.5,
      "velocity": 0.71,
      "hand": "right"
    },
    {
      "midi": 64,
      "time": 38,
      "duration": 0.5,
      "velocity": 0.48,
      "hand": "right"
    },
    {
      "midi": 67,
      "time": 38,
      "duration": 0.5,
      "velocity": 0.48,
      "hand": "right"
    },
    {
      "midi": 70,
      "time": 38,
      "duration": 0.5,
      "velocity": 0.48,
      "hand": "right"
    },
    {
      "midi": 73,
      "time": 38,
      "duration": 0.5,
      "velocity": 0.71,
      "hand": "right"
    },
    {
      "midi": 61,
      "time": 38.5,
      "duration": 0.5,
      "velocity": 0.48,
      "hand": "right"
    },
    {
      "midi": 64,
      "time": 38.5,
      "duration": 0.5,
      "velocity": 0.48,
      "hand": "right"
    },
    {
      "midi": 67,
      "time": 38.5,
      "duration": 0.5,
      "velocity": 0.48,
      "hand": "right"
    },
    {
      "midi": 76,
      "time": 38.5,
      "duration": 1,
      "velocity": 0.71,
      "hand": "right"
    },
    {
      "midi": 44,
      "time": 39,
      "duration": 0.5,
      "velocity": 0.48,
      "hand": "left"
    },
    {
      "midi": 63,
      "time": 39.5,
      "duration": 0.5,
      "velocity": 0.48,
      "hand": "right"
    },
    {
      "midi": 68,
      "time": 39.5,
      "duration": 0.5,
      "velocity": 0.48,
      "hand": "right"
    },
    {
      "midi": 72,
      "time": 39.5,
      "duration": 0.5,
      "velocity": 0.48,
      "hand": "right"
    },
    {
      "midi": 75,
      "time": 39.5,
      "duration": 0.5,
      "velocity": 0.71,
      "hand": "right"
    },
    {
      "midi": 60,
      "time": 40,
      "duration": 0.5,
      "velocity": 0.48,
      "hand": "right"
    },
    {
      "midi": 63,
      "time": 40,
      "duration": 0.5,
      "velocity": 0.48,
      "hand": "right"
    },
    {
      "midi": 68,
      "time": 40,
      "duration": 0.5,
      "velocity": 0.48,
      "hand": "right"
    },
    {
      "midi": 80,
      "time": 40,
      "duration": 0.5,
      "velocity": 0.71,
      "hand": "right"
    },
    {
      "midi": 56,
      "time": 40.5,
      "duration": 0.5,
      "velocity": 0.48,
      "hand": "left"
    },
    {
      "midi": 79,
      "time": 40.5,
      "duration": 0.5,
      "velocity": 0.71,
      "hand": "right"
    },
    {
      "midi": 64,
      "time": 41,
      "duration": 0.5,
      "velocity": 0.48,
      "hand": "right"
    },
    {
      "midi": 67,
      "time": 41,
      "duration": 0.5,
      "velocity": 0.48,
      "hand": "right"
    },
    {
      "midi": 70,
      "time": 41,
      "duration": 0.5,
      "velocity": 0.48,
      "hand": "right"
    },
    {
      "midi": 73,
      "time": 41,
      "duration": 0.5,
      "velocity": 0.71,
      "hand": "right"
    },
    {
      "midi": 58,
      "time": 41.5,
      "duration": 0.5,
      "velocity": 0.48,
      "hand": "left"
    },
    {
      "midi": 61,
      "time": 41.5,
      "duration": 0.5,
      "velocity": 0.48,
      "hand": "right"
    },
    {
      "midi": 67,
      "time": 41.5,
      "duration": 0.5,
      "velocity": 0.48,
      "hand": "right"
    },
    {
      "midi": 76,
      "time": 41.5,
      "duration": 0.5,
      "velocity": 0.71,
      "hand": "right"
    },
    {
      "midi": 44,
      "time": 42,
      "duration": 0.5,
      "velocity": 0.48,
      "hand": "left"
    },
    {
      "midi": 63,
      "time": 42.5,
      "duration": 0.5,
      "velocity": 0.48,
      "hand": "right"
    },
    {
      "midi": 68,
      "time": 42.5,
      "duration": 0.5,
      "velocity": 0.48,
      "hand": "right"
    },
    {
      "midi": 72,
      "time": 42.5,
      "duration": 0.5,
      "velocity": 0.48,
      "hand": "right"
    },
    {
      "midi": 75,
      "time": 42.5,
      "duration": 0.25,
      "velocity": 0.71,
      "hand": "right"
    },
    {
      "midi": 77,
      "time": 42.75,
      "duration": 0.25,
      "velocity": 0.71,
      "hand": "right"
    },
    {
      "midi": 60,
      "time": 43,
      "duration": 0.5,
      "velocity": 0.48,
      "hand": "right"
    },
    {
      "midi": 63,
      "time": 43,
      "duration": 0.5,
      "velocity": 0.48,
      "hand": "right"
    },
    {
      "midi": 68,
      "time": 43,
      "duration": 0.5,
      "velocity": 0.48,
      "hand": "right"
    },
    {
      "midi": 75,
      "time": 43,
      "duration": 0.25,
      "velocity": 0.71,
      "hand": "right"
    },
    {
      "midi": 77,
      "time": 43.25,
      "duration": 0.25,
      "velocity": 0.71,
      "hand": "right"
    },
    {
      "midi": 39,
      "time": 43.5,
      "duration": 0.5,
      "velocity": 0.48,
      "hand": "left"
    },
    {
      "midi": 78,
      "time": 43.5,
      "duration": 0.5,
      "velocity": 0.71,
      "hand": "right"
    },
    {
      "midi": 63,
      "time": 44,
      "duration": 0.5,
      "velocity": 0.48,
      "hand": "right"
    },
    {
      "midi": 66,
      "time": 44,
      "duration": 0.5,
      "velocity": 0.48,
      "hand": "right"
    },
    {
      "midi": 70,
      "time": 44,
      "duration": 0.5,
      "velocity": 0.48,
      "hand": "right"
    },
    {
      "midi": 78,
      "time": 44,
      "duration": 0.5,
      "velocity": 0.71,
      "hand": "right"
    },
    {
      "midi": 58,
      "time": 44.5,
      "duration": 0.5,
      "velocity": 0.48,
      "hand": "left"
    },
    {
      "midi": 63,
      "time": 44.5,
      "duration": 0.5,
      "velocity": 0.48,
      "hand": "right"
    },
    {
      "midi": 66,
      "time": 44.5,
      "duration": 0.5,
      "velocity": 0.48,
      "hand": "right"
    },
    {
      "midi": 78,
      "time": 44.5,
      "duration": 0.5,
      "velocity": 0.71,
      "hand": "right"
    },
    {
      "midi": 41,
      "time": 45,
      "duration": 0.5,
      "velocity": 0.48,
      "hand": "left"
    },
    {
      "midi": 78,
      "time": 45,
      "duration": 0.5,
      "velocity": 0.71,
      "hand": "right"
    },
    {
      "midi": 63,
      "time": 45.5,
      "duration": 0.5,
      "velocity": 0.48,
      "hand": "right"
    },
    {
      "midi": 65,
      "time": 45.5,
      "duration": 0.5,
      "velocity": 0.48,
      "hand": "right"
    },
    {
      "midi": 69,
      "time": 45.5,
      "duration": 0.5,
      "velocity": 0.48,
      "hand": "right"
    },
    {
      "midi": 77,
      "time": 45.5,
      "duration": 0.25,
      "velocity": 0.71,
      "hand": "right"
    },
    {
      "midi": 72,
      "time": 45.75,
      "duration": 0.25,
      "velocity": 0.71,
      "hand": "right"
    },
    {
      "midi": 57,
      "time": 46,
      "duration": 0.5,
      "velocity": 0.48,
      "hand": "left"
    },
    {
      "midi": 63,
      "time": 46,
      "duration": 0.5,
      "velocity": 0.48,
      "hand": "right"
    },
    {
      "midi": 65,
      "time": 46,
      "duration": 0.5,
      "velocity": 0.48,
      "hand": "right"
    },
    {
      "midi": 75,
      "time": 46,
      "duration": 0.25,
      "velocity": 0.71,
      "hand": "right"
    },
    {
      "midi": 73,
      "time": 46.25,
      "duration": 0.25,
      "velocity": 0.71,
      "hand": "right"
    },
    {
      "midi": 46,
      "time": 46.5,
      "duration": 0.5,
      "velocity": 0.48,
      "hand": "left"
    },
    {
      "midi": 70,
      "time": 46.5,
      "duration": 0.5,
      "velocity": 0.71,
      "hand": "right"
    },
    {
      "midi": 58,
      "time": 47,
      "duration": 0.5,
      "velocity": 0.48,
      "hand": "left"
    },
    {
      "midi": 61,
      "time": 47,
      "duration": 0.5,
      "velocity": 0.48,
      "hand": "right"
    },
    {
      "midi": 65,
      "time": 47,
      "duration": 0.5,
      "velocity": 0.48,
      "hand": "right"
    },
    {
      "midi": 53,
      "time": 47.5,
      "duration": 0.5,
      "velocity": 0.48,
      "hand": "left"
    },
    {
      "midi": 58,
      "time": 47.5,
      "duration": 0.5,
      "velocity": 0.48,
      "hand": "left"
    },
    {
      "midi": 61,
      "time": 47.5,
      "duration": 0.5,
      "velocity": 0.48,
      "hand": "right"
    },
    {
      "midi": 42,
      "time": 48,
      "duration": 0.5,
      "velocity": 0.48,
      "hand": "left"
    },
    {
      "midi": 58,
      "time": 48.5,
      "duration": 0.5,
      "velocity": 0.48,
      "hand": "left"
    },
    {
      "midi": 61,
      "time": 48.5,
      "duration": 0.5,
      "velocity": 0.48,
      "hand": "right"
    },
    {
      "midi": 66,
      "time": 48.5,
      "duration": 0.5,
      "velocity": 0.48,
      "hand": "right"
    },
    {
      "midi": 73,
      "time": 48.5,
      "duration": 0.25,
      "velocity": 0.71,
      "hand": "right"
    },
    {
      "midi": 75,
      "time": 48.75,
      "duration": 0.25,
      "velocity": 0.71,
      "hand": "right"
    },
    {
      "midi": 54,
      "time": 49,
      "duration": 0.5,
      "velocity": 0.48,
      "hand": "left"
    },
    {
      "midi": 58,
      "time": 49,
      "duration": 0.5,
      "velocity": 0.48,
      "hand": "left"
    },
    {
      "midi": 61,
      "time": 49,
      "duration": 0.5,
      "velocity": 0.48,
      "hand": "right"
    },
    {
      "midi": 73,
      "time": 49,
      "duration": 0.25,
      "velocity": 0.71,
      "hand": "right"
    },
    {
      "midi": 75,
      "time": 49.25,
      "duration": 0.25,
      "velocity": 0.71,
      "hand": "right"
    },
    {
      "midi": 37,
      "time": 49.5,
      "duration": 0.5,
      "velocity": 0.48,
      "hand": "left"
    },
    {
      "midi": 77,
      "time": 49.5,
      "duration": 0.5,
      "velocity": 0.71,
      "hand": "right"
    },
    {
      "midi": 56,
      "time": 50,
      "duration": 0.5,
      "velocity": 0.48,
      "hand": "left"
    },
    {
      "midi": 61,
      "time": 50,
      "duration": 0.5,
      "velocity": 0.48,
      "hand": "right"
    },
    {
      "midi": 65,
      "time": 50,
      "duration": 0.5,
      "velocity": 0.48,
      "hand": "right"
    },
    {
      "midi": 77,
      "time": 50,
      "duration": 0.5,
      "velocity": 0.71,
      "hand": "right"
    },
    {
      "midi": 53,
      "time": 50.5,
      "duration": 0.5,
      "velocity": 0.48,
      "hand": "left"
    },
    {
      "midi": 56,
      "time": 50.5,
      "duration": 0.5,
      "velocity": 0.48,
      "hand": "left"
    },
    {
      "midi": 61,
      "time": 50.5,
      "duration": 0.5,
      "velocity": 0.48,
      "hand": "right"
    },
    {
      "midi": 77,
      "time": 50.5,
      "duration": 0.5,
      "velocity": 0.71,
      "hand": "right"
    },
    {
      "midi": 39,
      "time": 51,
      "duration": 0.5,
      "velocity": 0.48,
      "hand": "left"
    },
    {
      "midi": 77,
      "time": 51,
      "duration": 0.5,
      "velocity": 0.71,
      "hand": "right"
    },
    {
      "midi": 58,
      "time": 51.5,
      "duration": 0.5,
      "velocity": 0.48,
      "hand": "left"
    },
    {
      "midi": 60,
      "time": 51.5,
      "duration": 0.5,
      "velocity": 0.48,
      "hand": "right"
    },
    {
      "midi": 66,
      "time": 51.5,
      "duration": 0.5,
      "velocity": 0.48,
      "hand": "right"
    },
    {
      "midi": 75,
      "time": 51.5,
      "duration": 0.25,
      "velocity": 0.71,
      "hand": "right"
    },
    {
      "midi": 70,
      "time": 51.75,
      "duration": 0.25,
      "velocity": 0.71,
      "hand": "right"
    },
    {
      "midi": 54,
      "time": 52,
      "duration": 0.5,
      "velocity": 0.48,
      "hand": "left"
    },
    {
      "midi": 58,
      "time": 52,
      "duration": 0.5,
      "velocity": 0.48,
      "hand": "left"
    },
    {
      "midi": 63,
      "time": 52,
      "duration": 0.5,
      "velocity": 0.48,
      "hand": "right"
    },
    {
      "midi": 73,
      "time": 52,
      "duration": 0.25,
      "velocity": 0.71,
      "hand": "right"
    },
    {
      "midi": 72,
      "time": 52.25,
      "duration": 0.25,
      "velocity": 0.71,
      "hand": "right"
    },
    {
      "midi": 41,
      "time": 52.5,
      "duration": 0.5,
      "velocity": 0.48,
      "hand": "left"
    },
    {
      "midi": 69,
      "time": 52.5,
      "duration": 0.5,
      "velocity": 0.71,
      "hand": "right"
    },
    {
      "midi": 60,
      "time": 53,
      "duration": 0.5,
      "velocity": 0.48,
      "hand": "right"
    },
    {
      "midi": 65,
      "time": 53,
      "duration": 0.5,
      "velocity": 0.48,
      "hand": "right"
    },
    {
      "midi": 69,
      "time": 53,
      "duration": 0.5,
      "velocity": 0.48,
      "hand": "right"
    },
    {
      "midi": 72,
      "time": 53,
      "duration": 0.5,
      "velocity": 0.71,
      "hand": "right"
    },
    {
      "midi": 57,
      "time": 53.5,
      "duration": 0.5,
      "velocity": 0.48,
      "hand": "left"
    },
    {
      "midi": 60,
      "time": 53.5,
      "duration": 0.5,
      "velocity": 0.48,
      "hand": "right"
    },
    {
      "midi": 65,
      "time": 53.5,
      "duration": 0.5,
      "velocity": 0.48,
      "hand": "right"
    },
    {
      "midi": 77,
      "time": 53.5,
      "duration": 0.5,
      "velocity": 0.71,
      "hand": "right"
    },
    {
      "midi": 53,
      "time": 54,
      "duration": 0.5,
      "velocity": 0.48,
      "hand": "left"
    },
    {
      "midi": 76,
      "time": 54,
      "duration": 0.5,
      "velocity": 0.71,
      "hand": "right"
    },
    {
      "midi": 61,
      "time": 54.5,
      "duration": 0.5,
      "velocity": 0.48,
      "hand": "right"
    },
    {
      "midi": 64,
      "time": 54.5,
      "duration": 0.5,
      "velocity": 0.48,
      "hand": "right"
    },
    {
      "midi": 67,
      "time": 54.5,
      "duration": 0.5,
      "velocity": 0.48,
      "hand": "right"
    },
    {
      "midi": 70,
      "time": 54.5,
      "duration": 0.5,
      "velocity": 0.71,
      "hand": "right"
    },
    {
      "midi": 58,
      "time": 55,
      "duration": 0.5,
      "velocity": 0.48,
      "hand": "left"
    },
    {
      "midi": 61,
      "time": 55,
      "duration": 0.5,
      "velocity": 0.48,
      "hand": "right"
    },
    {
      "midi": 64,
      "time": 55,
      "duration": 0.5,
      "velocity": 0.48,
      "hand": "right"
    },
    {
      "midi": 73,
      "time": 55,
      "duration": 1,
      "velocity": 0.71,
      "hand": "right"
    },
    {
      "midi": 41,
      "time": 55.5,
      "duration": 0.5,
      "velocity": 0.48,
      "hand": "left"
    },
    {
      "midi": 60,
      "time": 56,
      "duration": 0.5,
      "velocity": 0.48,
      "hand": "right"
    },
    {
      "midi": 65,
      "time": 56,
      "duration": 0.5,
      "velocity": 0.48,
      "hand": "right"
    },
    {
      "midi": 69,
      "time": 56,
      "duration": 0.5,
      "velocity": 0.48,
      "hand": "right"
    },
    {
      "midi": 72,
      "time": 56,
      "duration": 0.5,
      "velocity": 0.71,
      "hand": "right"
    },
    {
      "midi": 57,
      "time": 56.5,
      "duration": 0.5,
      "velocity": 0.48,
      "hand": "left"
    },
    {
      "midi": 60,
      "time": 56.5,
      "duration": 0.5,
      "velocity": 0.48,
      "hand": "right"
    },
    {
      "midi": 65,
      "time": 56.5,
      "duration": 0.5,
      "velocity": 0.48,
      "hand": "right"
    },
    {
      "midi": 77,
      "time": 56.5,
      "duration": 0.5,
      "velocity": 0.71,
      "hand": "right"
    },
    {
      "midi": 53,
      "time": 57,
      "duration": 0.5,
      "velocity": 0.48,
      "hand": "left"
    },
    {
      "midi": 76,
      "time": 57,
      "duration": 0.5,
      "velocity": 0.71,
      "hand": "right"
    },
    {
      "midi": 61,
      "time": 57.5,
      "duration": 0.5,
      "velocity": 0.48,
      "hand": "right"
    },
    {
      "midi": 64,
      "time": 57.5,
      "duration": 0.5,
      "velocity": 0.48,
      "hand": "right"
    },
    {
      "midi": 67,
      "time": 57.5,
      "duration": 0.5,
      "velocity": 0.48,
      "hand": "right"
    },
    {
      "midi": 70,
      "time": 57.5,
      "duration": 0.5,
      "velocity": 0.71,
      "hand": "right"
    },
    {
      "midi": 58,
      "time": 58,
      "duration": 0.5,
      "velocity": 0.48,
      "hand": "left"
    },
    {
      "midi": 61,
      "time": 58,
      "duration": 0.5,
      "velocity": 0.48,
      "hand": "right"
    },
    {
      "midi": 64,
      "time": 58,
      "duration": 0.5,
      "velocity": 0.48,
      "hand": "right"
    },
    {
      "midi": 73,
      "time": 58,
      "duration": 0.5,
      "velocity": 0.71,
      "hand": "right"
    },
    {
      "midi": 41,
      "time": 58.5,
      "duration": 0.5,
      "velocity": 0.48,
      "hand": "left"
    },
    {
      "midi": 60,
      "time": 59,
      "duration": 0.5,
      "velocity": 0.48,
      "hand": "right"
    },
    {
      "midi": 63,
      "time": 59,
      "duration": 0.5,
      "velocity": 0.48,
      "hand": "right"
    },
    {
      "midi": 66,
      "time": 59,
      "duration": 0.5,
      "velocity": 0.48,
      "hand": "right"
    },
    {
      "midi": 72,
      "time": 59,
      "duration": 0.25,
      "velocity": 0.71,
      "hand": "right"
    },
    {
      "midi": 73,
      "time": 59.25,
      "duration": 0.25,
      "velocity": 0.71,
      "hand": "right"
    },
    {
      "midi": 54,
      "time": 59.5,
      "duration": 0.5,
      "velocity": 0.48,
      "hand": "left"
    },
    {
      "midi": 58,
      "time": 59.5,
      "duration": 0.5,
      "velocity": 0.48,
      "hand": "left"
    },
    {
      "midi": 63,
      "time": 59.5,
      "duration": 0.5,
      "velocity": 0.48,
      "hand": "right"
    },
    {
      "midi": 72,
      "time": 59.5,
      "duration": 0.25,
      "velocity": 0.71,
      "hand": "right"
    },
    {
      "midi": 73,
      "time": 59.75,
      "duration": 0.25,
      "velocity": 0.71,
      "hand": "right"
    },
    {
      "midi": 53,
      "time": 60,
      "duration": 0.5,
      "velocity": 0.48,
      "hand": "left"
    },
    {
      "midi": 75,
      "time": 60,
      "duration": 0.5,
      "velocity": 0.71,
      "hand": "right"
    },
    {
      "midi": 63,
      "time": 60.5,
      "duration": 0.5,
      "velocity": 0.48,
      "hand": "right"
    },
    {
      "midi": 66,
      "time": 60.5,
      "duration": 0.5,
      "velocity": 0.48,
      "hand": "right"
    },
    {
      "midi": 70,
      "time": 60.5,
      "duration": 0.5,
      "velocity": 0.48,
      "hand": "right"
    },
    {
      "midi": 75,
      "time": 60.5,
      "duration": 0.5,
      "velocity": 0.71,
      "hand": "right"
    },
    {
      "midi": 60,
      "time": 61,
      "duration": 0.5,
      "velocity": 0.48,
      "hand": "right"
    },
    {
      "midi": 63,
      "time": 61,
      "duration": 0.5,
      "velocity": 0.48,
      "hand": "right"
    },
    {
      "midi": 66,
      "time": 61,
      "duration": 0.5,
      "velocity": 0.48,
      "hand": "right"
    },
    {
      "midi": 75,
      "time": 61,
      "duration": 0.5,
      "velocity": 0.71,
      "hand": "right"
    },
    {
      "midi": 41,
      "time": 61.5,
      "duration": 0.5,
      "velocity": 0.48,
      "hand": "left"
    },
    {
      "midi": 75,
      "time": 61.5,
      "duration": 0.5,
      "velocity": 0.71,
      "hand": "right"
    },
    {
      "midi": 63,
      "time": 62,
      "duration": 0.5,
      "velocity": 0.48,
      "hand": "right"
    },
    {
      "midi": 69,
      "time": 62,
      "duration": 0.5,
      "velocity": 0.48,
      "hand": "right"
    },
    {
      "midi": 77,
      "time": 62,
      "duration": 0.25,
      "velocity": 0.71,
      "hand": "right"
    },
    {
      "midi": 72,
      "time": 62.25,
      "duration": 0.25,
      "velocity": 0.71,
      "hand": "right"
    },
    {
      "midi": 57,
      "time": 62.5,
      "duration": 0.5,
      "velocity": 0.48,
      "hand": "left"
    },
    {
      "midi": 63,
      "time": 62.5,
      "duration": 0.5,
      "velocity": 0.48,
      "hand": "right"
    },
    {
      "midi": 65,
      "time": 62.5,
      "duration": 0.5,
      "velocity": 0.48,
      "hand": "right"
    },
    {
      "midi": 75,
      "time": 62.5,
      "duration": 0.25,
      "velocity": 0.71,
      "hand": "right"
    },
    {
      "midi": 73,
      "time": 62.75,
      "duration": 0.25,
      "velocity": 0.71,
      "hand": "right"
    },
    {
      "midi": 46,
      "time": 63,
      "duration": 0.5,
      "velocity": 0.48,
      "hand": "left"
    },
    {
      "midi": 70,
      "time": 63,
      "duration": 1.5,
      "velocity": 0.71,
      "hand": "right"
    },
    {
      "midi": 58,
      "time": 63.5,
      "duration": 0.5,
      "velocity": 0.48,
      "hand": "left"
    },
    {
      "midi": 61,
      "time": 63.5,
      "duration": 0.5,
      "velocity": 0.48,
      "hand": "right"
    },
    {
      "midi": 65,
      "time": 63.5,
      "duration": 0.5,
      "velocity": 0.48,
      "hand": "right"
    },
    {
      "midi": 53,
      "time": 64,
      "duration": 0.5,
      "velocity": 0.48,
      "hand": "left"
    },
    {
      "midi": 58,
      "time": 64,
      "duration": 0.5,
      "velocity": 0.48,
      "hand": "left"
    },
    {
      "midi": 61,
      "time": 64,
      "duration": 0.5,
      "velocity": 0.48,
      "hand": "right"
    },
    {
      "midi": 48,
      "time": 64.5,
      "duration": 0.5,
      "velocity": 0.48,
      "hand": "left"
    },
    {
      "midi": 67,
      "time": 64.5,
      "duration": 1,
      "velocity": 0.71,
      "hand": "right"
    },
    {
      "midi": 58,
      "time": 65,
      "duration": 0.5,
      "velocity": 0.48,
      "hand": "left"
    },
    {
      "midi": 60,
      "time": 65,
      "duration": 0.5,
      "velocity": 0.48,
      "hand": "right"
    },
    {
      "midi": 64,
      "time": 65,
      "duration": 0.5,
      "velocity": 0.48,
      "hand": "right"
    },
    {
      "midi": 55,
      "time": 65.5,
      "duration": 0.5,
      "velocity": 0.48,
      "hand": "left"
    },
    {
      "midi": 58,
      "time": 65.5,
      "duration": 0.5,
      "velocity": 0.48,
      "hand": "left"
    },
    {
      "midi": 60,
      "time": 65.5,
      "duration": 0.5,
      "velocity": 0.48,
      "hand": "right"
    },
    {
      "midi": 41,
      "time": 66,
      "duration": 0.5,
      "velocity": 0.48,
      "hand": "left"
    },
    {
      "midi": 60,
      "time": 66.5,
      "duration": 0.5,
      "velocity": 0.48,
      "hand": "right"
    },
    {
      "midi": 65,
      "time": 66.5,
      "duration": 0.5,
      "velocity": 0.48,
      "hand": "right"
    },
    {
      "midi": 68,
      "time": 66.5,
      "duration": 0.5,
      "velocity": 0.48,
      "hand": "right"
    },
    {
      "midi": 72,
      "time": 66.5,
      "duration": 0.5,
      "velocity": 0.71,
      "hand": "right"
    },
    {
      "midi": 56,
      "time": 67,
      "duration": 0.5,
      "velocity": 0.48,
      "hand": "left"
    },
    {
      "midi": 60,
      "time": 67,
      "duration": 0.5,
      "velocity": 0.48,
      "hand": "right"
    },
    {
      "midi": 65,
      "time": 67,
      "duration": 0.5,
      "velocity": 0.48,
      "hand": "right"
    },
    {
      "midi": 77,
      "time": 67,
      "duration": 0.5,
      "velocity": 0.71,
      "hand": "right"
    },
    {
      "midi": 53,
      "time": 67.5,
      "duration": 0.5,
      "velocity": 0.48,
      "hand": "left"
    },
    {
      "midi": 76,
      "time": 67.5,
      "duration": 0.5,
      "velocity": 0.71,
      "hand": "right"
    },
    {
      "midi": 61,
      "time": 68,
      "duration": 0.5,
      "velocity": 0.48,
      "hand": "right"
    },
    {
      "midi": 64,
      "time": 68,
      "duration": 0.5,
      "velocity": 0.48,
      "hand": "right"
    },
    {
      "midi": 67,
      "time": 68,
      "duration": 0.5,
      "velocity": 0.48,
      "hand": "right"
    },
    {
      "midi": 70,
      "time": 68,
      "duration": 0.5,
      "velocity": 0.71,
      "hand": "right"
    },
    {
      "midi": 58,
      "time": 68.5,
      "duration": 0.5,
      "velocity": 0.48,
      "hand": "left"
    },
    {
      "midi": 61,
      "time": 68.5,
      "duration": 0.5,
      "velocity": 0.48,
      "hand": "right"
    },
    {
      "midi": 64,
      "time": 68.5,
      "duration": 0.5,
      "velocity": 0.48,
      "hand": "right"
    },
    {
      "midi": 73,
      "time": 68.5,
      "duration": 1,
      "velocity": 0.71,
      "hand": "right"
    },
    {
      "midi": 41,
      "time": 69,
      "duration": 0.5,
      "velocity": 0.48,
      "hand": "left"
    },
    {
      "midi": 60,
      "time": 69.5,
      "duration": 0.5,
      "velocity": 0.48,
      "hand": "right"
    },
    {
      "midi": 65,
      "time": 69.5,
      "duration": 0.5,
      "velocity": 0.48,
      "hand": "right"
    },
    {
      "midi": 68,
      "time": 69.5,
      "duration": 0.5,
      "velocity": 0.48,
      "hand": "right"
    },
    {
      "midi": 72,
      "time": 69.5,
      "duration": 0.5,
      "velocity": 0.71,
      "hand": "right"
    },
    {
      "midi": 56,
      "time": 70,
      "duration": 0.5,
      "velocity": 0.48,
      "hand": "left"
    },
    {
      "midi": 60,
      "time": 70,
      "duration": 0.5,
      "velocity": 0.48,
      "hand": "right"
    },
    {
      "midi": 65,
      "time": 70,
      "duration": 0.5,
      "velocity": 0.48,
      "hand": "right"
    },
    {
      "midi": 77,
      "time": 70,
      "duration": 0.75,
      "velocity": 0.71,
      "hand": "right"
    },
    {
      "midi": 53,
      "time": 70.5,
      "duration": 0.5,
      "velocity": 0.48,
      "hand": "left"
    },
    {
      "midi": 76,
      "time": 70.75,
      "duration": 0.25,
      "velocity": 0.71,
      "hand": "right"
    },
    {
      "midi": 61,
      "time": 71,
      "duration": 0.5,
      "velocity": 0.48,
      "hand": "right"
    },
    {
      "midi": 64,
      "time": 71,
      "duration": 0.5,
      "velocity": 0.48,
      "hand": "right"
    },
    {
      "midi": 67,
      "time": 71,
      "duration": 0.5,
      "velocity": 0.48,
      "hand": "right"
    },
    {
      "midi": 70,
      "time": 71,
      "duration": 0.25,
      "velocity": 0.71,
      "hand": "right"
    },
    {
      "midi": 72,
      "time": 71.25,
      "duration": 0.25,
      "velocity": 0.71,
      "hand": "right"
    },
    {
      "midi": 58,
      "time": 71.5,
      "duration": 0.5,
      "velocity": 0.48,
      "hand": "left"
    },
    {
      "midi": 61,
      "time": 71.5,
      "duration": 0.5,
      "velocity": 0.48,
      "hand": "right"
    },
    {
      "midi": 64,
      "time": 71.5,
      "duration": 0.5,
      "velocity": 0.48,
      "hand": "right"
    },
    {
      "midi": 75,
      "time": 71.5,
      "duration": 0.25,
      "velocity": 0.71,
      "hand": "right"
    },
    {
      "midi": 73,
      "time": 71.75,
      "duration": 0.25,
      "velocity": 0.71,
      "hand": "right"
    },
    {
      "midi": 53,
      "time": 72,
      "duration": 0.5,
      "velocity": 0.48,
      "hand": "left"
    },
    {
      "midi": 56,
      "time": 72.5,
      "duration": 0.5,
      "velocity": 0.48,
      "hand": "left"
    },
    {
      "midi": 60,
      "time": 72.5,
      "duration": 0.5,
      "velocity": 0.48,
      "hand": "right"
    },
    {
      "midi": 68,
      "time": 72.5,
      "duration": 0.5,
      "velocity": 0.48,
      "hand": "right"
    },
    {
      "midi": 72,
      "time": 72.5,
      "duration": 0.25,
      "velocity": 0.71,
      "hand": "right"
    },
    {
      "midi": 73,
      "time": 72.75,
      "duration": 0.25,
      "velocity": 0.71,
      "hand": "right"
    },
    {
      "midi": 52,
      "time": 73,
      "duration": 0.5,
      "velocity": 0.48,
      "hand": "left"
    },
    {
      "midi": 72,
      "time": 73,
      "duration": 0.25,
      "velocity": 0.71,
      "hand": "right"
    },
    {
      "midi": 73,
      "time": 73.25,
      "duration": 0.25,
      "velocity": 0.71,
      "hand": "right"
    },
    {
      "midi": 51,
      "time": 73.5,
      "duration": 0.5,
      "velocity": 0.48,
      "hand": "left"
    },
    {
      "midi": 75,
      "time": 73.5,
      "duration": 0.5,
      "velocity": 0.71,
      "hand": "right"
    },
    {
      "midi": 60,
      "time": 74,
      "duration": 0.5,
      "velocity": 0.48,
      "hand": "right"
    },
    {
      "midi": 68,
      "time": 74,
      "duration": 0.5,
      "velocity": 0.48,
      "hand": "right"
    },
    {
      "midi": 75,
      "time": 74,
      "duration": 0.5,
      "velocity": 0.71,
      "hand": "right"
    },
    {
      "midi": 51,
      "time": 74.5,
      "duration": 0.5,
      "velocity": 0.48,
      "hand": "left"
    },
    {
      "midi": 75,
      "time": 74.5,
      "duration": 0.5,
      "velocity": 0.71,
      "hand": "right"
    },
    {
      "midi": 39,
      "time": 75,
      "duration": 0.5,
      "velocity": 0.48,
      "hand": "left"
    },
    {
      "midi": 75,
      "time": 75,
      "duration": 0.5,
      "velocity": 0.71,
      "hand": "right"
    },
    {
      "midi": 61,
      "time": 75.5,
      "duration": 0.5,
      "velocity": 0.48,
      "hand": "right"
    },
    {
      "midi": 67,
      "time": 75.5,
      "duration": 0.5,
      "velocity": 0.48,
      "hand": "right"
    },
    {
      "midi": 73,
      "time": 75.5,
      "duration": 0.25,
      "velocity": 0.71,
      "hand": "right"
    },
    {
      "midi": 72,
      "time": 75.75,
      "duration": 0.25,
      "velocity": 0.71,
      "hand": "right"
    },
    {
      "midi": 51,
      "time": 76,
      "duration": 0.5,
      "velocity": 0.48,
      "hand": "left"
    },
    {
      "midi": 55,
      "time": 76,
      "duration": 0.5,
      "velocity": 0.48,
      "hand": "left"
    },
    {
      "midi": 61,
      "time": 76,
      "duration": 0.5,
      "velocity": 0.48,
      "hand": "right"
    },
    {
      "midi": 70,
      "time": 76,
      "duration": 0.25,
      "velocity": 0.71,
      "hand": "right"
    },
    {
      "midi": 72,
      "time": 76.25,
      "duration": 0.25,
      "velocity": 0.71,
      "hand": "right"
    },
    {
      "midi": 44,
      "time": 76.5,
      "duration": 0.5,
      "velocity": 0.48,
      "hand": "left"
    },
    {
      "midi": 68,
      "time": 76.5,
      "duration": 0.5,
      "velocity": 0.71,
      "hand": "right"
    },
    {
      "midi": 56,
      "time": 77,
      "duration": 0.5,
      "velocity": 0.48,
      "hand": "left"
    },
    {
      "midi": 60,
      "time": 77,
      "duration": 0.5,
      "velocity": 0.48,
      "hand": "right"
    },
    {
      "midi": 63,
      "time": 77,
      "duration": 0.5,
      "velocity": 0.48,
      "hand": "right"
    },
    {
      "midi": 51,
      "time": 77.5,
      "duration": 0.5,
      "velocity": 0.48,
      "hand": "left"
    },
    {
      "midi": 56,
      "time": 77.5,
      "duration": 0.5,
      "velocity": 0.48,
      "hand": "left"
    },
    {
      "midi": 60,
      "time": 77.5,
      "duration": 0.5,
      "velocity": 0.48,
      "hand": "right"
    },
    {
      "midi": 44,
      "time": 78,
      "duration": 0.5,
      "velocity": 0.48,
      "hand": "left"
    },
    {
      "midi": 56,
      "time": 78.5,
      "duration": 0.5,
      "velocity": 0.48,
      "hand": "left"
    },
    {
      "midi": 60,
      "time": 78.5,
      "duration": 0.5,
      "velocity": 0.48,
      "hand": "right"
    },
    {
      "midi": 64,
      "time": 78.5,
      "duration": 0.5,
      "velocity": 0.48,
      "hand": "right"
    },
    {
      "midi": 52,
      "time": 79,
      "duration": 0.5,
      "velocity": 0.48,
      "hand": "left"
    },
    {
      "midi": 56,
      "time": 79,
      "duration": 0.5,
      "velocity": 0.48,
      "hand": "left"
    },
    {
      "midi": 60,
      "time": 79,
      "duration": 0.5,
      "velocity": 0.48,
      "hand": "right"
    },
    {
      "midi": 32,
      "time": 79.5,
      "duration": 0.5,
      "velocity": 0.48,
      "hand": "left"
    },
    {
      "midi": 63,
      "time": 80,
      "duration": 0.5,
      "velocity": 0.48,
      "hand": "right"
    },
    {
      "midi": 68,
      "time": 80,
      "duration": 0.5,
      "velocity": 0.48,
      "hand": "right"
    },
    {
      "midi": 72,
      "time": 80,
      "duration": 0.5,
      "velocity": 0.48,
      "hand": "right"
    },
    {
      "midi": 75,
      "time": 80,
      "duration": 0.5,
      "velocity": 0.71,
      "hand": "right"
    },
    {
      "midi": 60,
      "time": 80.5,
      "duration": 0.5,
      "velocity": 0.48,
      "hand": "right"
    },
    {
      "midi": 63,
      "time": 80.5,
      "duration": 0.5,
      "velocity": 0.48,
      "hand": "right"
    },
    {
      "midi": 68,
      "time": 80.5,
      "duration": 0.5,
      "velocity": 0.48,
      "hand": "right"
    },
    {
      "midi": 80,
      "time": 80.5,
      "duration": 0.5,
      "velocity": 0.71,
      "hand": "right"
    },
    {
      "midi": 56,
      "time": 81,
      "duration": 0.5,
      "velocity": 0.48,
      "hand": "left"
    },
    {
      "midi": 79,
      "time": 81,
      "duration": 0.5,
      "velocity": 0.71,
      "hand": "right"
    },
    {
      "midi": 64,
      "time": 81.5,
      "duration": 0.5,
      "velocity": 0.48,
      "hand": "right"
    },
    {
      "midi": 67,
      "time": 81.5,
      "duration": 0.5,
      "velocity": 0.48,
      "hand": "right"
    },
    {
      "midi": 70,
      "time": 81.5,
      "duration": 0.5,
      "velocity": 0.48,
      "hand": "right"
    },
    {
      "midi": 73,
      "time": 81.5,
      "duration": 0.5,
      "velocity": 0.71,
      "hand": "right"
    },
    {
      "midi": 61,
      "time": 82,
      "duration": 0.5,
      "velocity": 0.48,
      "hand": "right"
    },
    {
      "midi": 64,
      "time": 82,
      "duration": 0.5,
      "velocity": 0.48,
      "hand": "right"
    },
    {
      "midi": 67,
      "time": 82,
      "duration": 0.5,
      "velocity": 0.48,
      "hand": "right"
    },
    {
      "midi": 76,
      "time": 82,
      "duration": 1,
      "velocity": 0.71,
      "hand": "right"
    },
    {
      "midi": 44,
      "time": 82.5,
      "duration": 0.5,
      "velocity": 0.48,
      "hand": "left"
    },
    {
      "midi": 63,
      "time": 83,
      "duration": 0.5,
      "velocity": 0.48,
      "hand": "right"
    },
    {
      "midi": 68,
      "time": 83,
      "duration": 0.5,
      "velocity": 0.48,
      "hand": "right"
    },
    {
      "midi": 72,
      "time": 83,
      "duration": 0.5,
      "velocity": 0.48,
      "hand": "right"
    },
    {
      "midi": 75,
      "time": 83,
      "duration": 0.5,
      "velocity": 0.71,
      "hand": "right"
    },
    {
      "midi": 60,
      "time": 83.5,
      "duration": 0.5,
      "velocity": 0.48,
      "hand": "right"
    },
    {
      "midi": 63,
      "time": 83.5,
      "duration": 0.5,
      "velocity": 0.48,
      "hand": "right"
    },
    {
      "midi": 68,
      "time": 83.5,
      "duration": 0.5,
      "velocity": 0.48,
      "hand": "right"
    },
    {
      "midi": 80,
      "time": 83.5,
      "duration": 0.75,
      "velocity": 0.71,
      "hand": "right"
    },
    {
      "midi": 56,
      "time": 84,
      "duration": 0.5,
      "velocity": 0.48,
      "hand": "left"
    },
    {
      "midi": 79,
      "time": 84.25,
      "duration": 0.25,
      "velocity": 0.71,
      "hand": "right"
    },
    {
      "midi": 64,
      "time": 84.5,
      "duration": 0.5,
      "velocity": 0.48,
      "hand": "right"
    },
    {
      "midi": 67,
      "time": 84.5,
      "duration": 0.5,
      "velocity": 0.48,
      "hand": "right"
    },
    {
      "midi": 70,
      "time": 84.5,
      "duration": 0.5,
      "velocity": 0.48,
      "hand": "right"
    },
    {
      "midi": 73,
      "time": 84.5,
      "duration": 0.25,
      "velocity": 0.71,
      "hand": "right"
    },
    {
      "midi": 75,
      "time": 84.75,
      "duration": 0.25,
      "velocity": 0.71,
      "hand": "right"
    },
    {
      "midi": 58,
      "time": 85,
      "duration": 0.5,
      "velocity": 0.48,
      "hand": "left"
    },
    {
      "midi": 61,
      "time": 85,
      "duration": 0.5,
      "velocity": 0.48,
      "hand": "right"
    },
    {
      "midi": 67,
      "time": 85,
      "duration": 0.5,
      "velocity": 0.48,
      "hand": "right"
    },
    {
      "midi": 78,
      "time": 85,
      "duration": 0.25,
      "velocity": 0.71,
      "hand": "right"
    },
    {
      "midi": 76,
      "time": 85.25,
      "duration": 0.25,
      "velocity": 0.71,
      "hand": "right"
    },
    {
      "midi": 44,
      "time": 85.5,
      "duration": 0.5,
      "velocity": 0.48,
      "hand": "left"
    },
    {
      "midi": 63,
      "time": 86,
      "duration": 0.5,
      "velocity": 0.48,
      "hand": "right"
    },
    {
      "midi": 68,
      "time": 86,
      "duration": 0.5,
      "velocity": 0.48,
      "hand": "right"
    },
    {
      "midi": 72,
      "time": 86,
      "duration": 0.5,
      "velocity": 0.48,
      "hand": "right"
    },
    {
      "midi": 75,
      "time": 86,
      "duration": 0.25,
      "velocity": 0.71,
      "hand": "right"
    },
    {
      "midi": 77,
      "time": 86.25,
      "duration": 0.25,
      "velocity": 0.71,
      "hand": "right"
    },
    {
      "midi": 60,
      "time": 86.5,
      "duration": 0.5,
      "velocity": 0.48,
      "hand": "right"
    },
    {
      "midi": 63,
      "time": 86.5,
      "duration": 0.5,
      "velocity": 0.48,
      "hand": "right"
    },
    {
      "midi": 68,
      "time": 86.5,
      "duration": 0.5,
      "velocity": 0.48,
      "hand": "right"
    },
    {
      "midi": 75,
      "time": 86.5,
      "duration": 0.25,
      "velocity": 0.71,
      "hand": "right"
    },
    {
      "midi": 77,
      "time": 86.75,
      "duration": 0.25,
      "velocity": 0.71,
      "hand": "right"
    },
    {
      "midi": 39,
      "time": 87,
      "duration": 0.5,
      "velocity": 0.48,
      "hand": "left"
    },
    {
      "midi": 78,
      "time": 87,
      "duration": 0.5,
      "velocity": 0.71,
      "hand": "right"
    },
    {
      "midi": 63,
      "time": 87.5,
      "duration": 0.5,
      "velocity": 0.48,
      "hand": "right"
    },
    {
      "midi": 66,
      "time": 87.5,
      "duration": 0.5,
      "velocity": 0.48,
      "hand": "right"
    },
    {
      "midi": 70,
      "time": 87.5,
      "duration": 0.5,
      "velocity": 0.48,
      "hand": "right"
    },
    {
      "midi": 78,
      "time": 87.5,
      "duration": 0.5,
      "velocity": 0.71,
      "hand": "right"
    },
    {
      "midi": 58,
      "time": 88,
      "duration": 0.5,
      "velocity": 0.48,
      "hand": "left"
    },
    {
      "midi": 63,
      "time": 88,
      "duration": 0.5,
      "velocity": 0.48,
      "hand": "right"
    },
    {
      "midi": 66,
      "time": 88,
      "duration": 0.5,
      "velocity": 0.48,
      "hand": "right"
    },
    {
      "midi": 78,
      "time": 88,
      "duration": 0.5,
      "velocity": 0.71,
      "hand": "right"
    },
    {
      "midi": 41,
      "time": 88.5,
      "duration": 0.5,
      "velocity": 0.48,
      "hand": "left"
    },
    {
      "midi": 78,
      "time": 88.5,
      "duration": 0.5,
      "velocity": 0.71,
      "hand": "right"
    },
    {
      "midi": 63,
      "time": 89,
      "duration": 0.5,
      "velocity": 0.48,
      "hand": "right"
    },
    {
      "midi": 69,
      "time": 89,
      "duration": 0.5,
      "velocity": 0.48,
      "hand": "right"
    },
    {
      "midi": 77,
      "time": 89,
      "duration": 0.25,
      "velocity": 0.71,
      "hand": "right"
    },
    {
      "midi": 72,
      "time": 89.25,
      "duration": 0.25,
      "velocity": 0.71,
      "hand": "right"
    },
    {
      "midi": 57,
      "time": 89.5,
      "duration": 0.5,
      "velocity": 0.48,
      "hand": "left"
    },
    {
      "midi": 63,
      "time": 89.5,
      "duration": 0.5,
      "velocity": 0.48,
      "hand": "right"
    },
    {
      "midi": 65,
      "time": 89.5,
      "duration": 0.5,
      "velocity": 0.48,
      "hand": "right"
    },
    {
      "midi": 75,
      "time": 89.5,
      "duration": 0.25,
      "velocity": 0.71,
      "hand": "right"
    },
    {
      "midi": 73,
      "time": 89.75,
      "duration": 0.25,
      "velocity": 0.71,
      "hand": "right"
    },
    {
      "midi": 46,
      "time": 90,
      "duration": 0.5,
      "velocity": 0.48,
      "hand": "left"
    },
    {
      "midi": 70,
      "time": 90,
      "duration": 0.5,
      "velocity": 0.71,
      "hand": "right"
    },
    {
      "midi": 58,
      "time": 90.5,
      "duration": 0.5,
      "velocity": 0.48,
      "hand": "left"
    },
    {
      "midi": 61,
      "time": 90.5,
      "duration": 0.5,
      "velocity": 0.48,
      "hand": "right"
    },
    {
      "midi": 65,
      "time": 90.5,
      "duration": 0.5,
      "velocity": 0.48,
      "hand": "right"
    },
    {
      "midi": 53,
      "time": 91,
      "duration": 0.5,
      "velocity": 0.48,
      "hand": "left"
    },
    {
      "midi": 58,
      "time": 91,
      "duration": 0.5,
      "velocity": 0.48,
      "hand": "left"
    },
    {
      "midi": 61,
      "time": 91,
      "duration": 0.5,
      "velocity": 0.48,
      "hand": "right"
    },
    {
      "midi": 42,
      "time": 91.5,
      "duration": 0.5,
      "velocity": 0.48,
      "hand": "left"
    },
    {
      "midi": 58,
      "time": 92,
      "duration": 0.5,
      "velocity": 0.48,
      "hand": "left"
    },
    {
      "midi": 61,
      "time": 92,
      "duration": 0.5,
      "velocity": 0.48,
      "hand": "right"
    },
    {
      "midi": 66,
      "time": 92,
      "duration": 0.5,
      "velocity": 0.48,
      "hand": "right"
    },
    {
      "midi": 73,
      "time": 92,
      "duration": 0.25,
      "velocity": 0.71,
      "hand": "right"
    },
    {
      "midi": 75,
      "time": 92.25,
      "duration": 0.25,
      "velocity": 0.71,
      "hand": "right"
    },
    {
      "midi": 54,
      "time": 92.5,
      "duration": 0.5,
      "velocity": 0.48,
      "hand": "left"
    },
    {
      "midi": 58,
      "time": 92.5,
      "duration": 0.5,
      "velocity": 0.48,
      "hand": "left"
    },
    {
      "midi": 61,
      "time": 92.5,
      "duration": 0.5,
      "velocity": 0.48,
      "hand": "right"
    },
    {
      "midi": 73,
      "time": 92.5,
      "duration": 0.25,
      "velocity": 0.71,
      "hand": "right"
    },
    {
      "midi": 75,
      "time": 92.75,
      "duration": 0.25,
      "velocity": 0.71,
      "hand": "right"
    },
    {
      "midi": 37,
      "time": 93,
      "duration": 0.5,
      "velocity": 0.48,
      "hand": "left"
    },
    {
      "midi": 77,
      "time": 93,
      "duration": 0.5,
      "velocity": 0.71,
      "hand": "right"
    },
    {
      "midi": 56,
      "time": 93.5,
      "duration": 0.5,
      "velocity": 0.48,
      "hand": "left"
    },
    {
      "midi": 61,
      "time": 93.5,
      "duration": 0.5,
      "velocity": 0.48,
      "hand": "right"
    },
    {
      "midi": 65,
      "time": 93.5,
      "duration": 0.5,
      "velocity": 0.48,
      "hand": "right"
    },
    {
      "midi": 77,
      "time": 93.5,
      "duration": 0.5,
      "velocity": 0.71,
      "hand": "right"
    },
    {
      "midi": 53,
      "time": 94,
      "duration": 0.5,
      "velocity": 0.48,
      "hand": "left"
    },
    {
      "midi": 56,
      "time": 94,
      "duration": 0.5,
      "velocity": 0.48,
      "hand": "left"
    },
    {
      "midi": 61,
      "time": 94,
      "duration": 0.5,
      "velocity": 0.48,
      "hand": "right"
    },
    {
      "midi": 77,
      "time": 94,
      "duration": 0.5,
      "velocity": 0.71,
      "hand": "right"
    },
    {
      "midi": 39,
      "time": 94.5,
      "duration": 0.5,
      "velocity": 0.48,
      "hand": "left"
    },
    {
      "midi": 77,
      "time": 94.5,
      "duration": 0.5,
      "velocity": 0.71,
      "hand": "right"
    },
    {
      "midi": 58,
      "time": 95,
      "duration": 0.5,
      "velocity": 0.48,
      "hand": "left"
    },
    {
      "midi": 60,
      "time": 95,
      "duration": 0.5,
      "velocity": 0.48,
      "hand": "right"
    },
    {
      "midi": 66,
      "time": 95,
      "duration": 0.5,
      "velocity": 0.48,
      "hand": "right"
    },
    {
      "midi": 75,
      "time": 95,
      "duration": 0.25,
      "velocity": 0.71,
      "hand": "right"
    },
    {
      "midi": 70,
      "time": 95.25,
      "duration": 0.25,
      "velocity": 0.71,
      "hand": "right"
    },
    {
      "midi": 54,
      "time": 95.5,
      "duration": 0.5,
      "velocity": 0.48,
      "hand": "left"
    },
    {
      "midi": 58,
      "time": 95.5,
      "duration": 0.5,
      "velocity": 0.48,
      "hand": "left"
    },
    {
      "midi": 63,
      "time": 95.5,
      "duration": 0.5,
      "velocity": 0.48,
      "hand": "right"
    },
    {
      "midi": 73,
      "time": 95.5,
      "duration": 0.25,
      "velocity": 0.71,
      "hand": "right"
    },
    {
      "midi": 72,
      "time": 95.75,
      "duration": 0.25,
      "velocity": 0.71,
      "hand": "right"
    },
    {
      "midi": 41,
      "time": 96,
      "duration": 0.5,
      "velocity": 0.48,
      "hand": "left"
    },
    {
      "midi": 69,
      "time": 96,
      "duration": 0.5,
      "velocity": 0.71,
      "hand": "right"
    },
    {
      "midi": 60,
      "time": 96.5,
      "duration": 0.5,
      "velocity": 0.48,
      "hand": "right"
    },
    {
      "midi": 65,
      "time": 96.5,
      "duration": 0.5,
      "velocity": 0.48,
      "hand": "right"
    },
    {
      "midi": 69,
      "time": 96.5,
      "duration": 0.5,
      "velocity": 0.48,
      "hand": "right"
    },
    {
      "midi": 72,
      "time": 96.5,
      "duration": 0.5,
      "velocity": 0.71,
      "hand": "right"
    },
    {
      "midi": 57,
      "time": 97,
      "duration": 0.5,
      "velocity": 0.48,
      "hand": "left"
    },
    {
      "midi": 60,
      "time": 97,
      "duration": 0.5,
      "velocity": 0.48,
      "hand": "right"
    },
    {
      "midi": 65,
      "time": 97,
      "duration": 0.5,
      "velocity": 0.48,
      "hand": "right"
    },
    {
      "midi": 77,
      "time": 97,
      "duration": 0.5,
      "velocity": 0.71,
      "hand": "right"
    },
    {
      "midi": 53,
      "time": 97.5,
      "duration": 0.5,
      "velocity": 0.48,
      "hand": "left"
    },
    {
      "midi": 76,
      "time": 97.5,
      "duration": 0.5,
      "velocity": 0.71,
      "hand": "right"
    },
    {
      "midi": 61,
      "time": 98,
      "duration": 0.5,
      "velocity": 0.48,
      "hand": "right"
    },
    {
      "midi": 64,
      "time": 98,
      "duration": 0.5,
      "velocity": 0.48,
      "hand": "right"
    },
    {
      "midi": 67,
      "time": 98,
      "duration": 0.5,
      "velocity": 0.48,
      "hand": "right"
    },
    {
      "midi": 70,
      "time": 98,
      "duration": 0.5,
      "velocity": 0.71,
      "hand": "right"
    },
    {
      "midi": 58,
      "time": 98.5,
      "duration": 0.5,
      "velocity": 0.48,
      "hand": "left"
    },
    {
      "midi": 61,
      "time": 98.5,
      "duration": 0.5,
      "velocity": 0.48,
      "hand": "right"
    },
    {
      "midi": 64,
      "time": 98.5,
      "duration": 0.5,
      "velocity": 0.48,
      "hand": "right"
    },
    {
      "midi": 73,
      "time": 98.5,
      "duration": 1,
      "velocity": 0.71,
      "hand": "right"
    },
    {
      "midi": 41,
      "time": 99,
      "duration": 0.5,
      "velocity": 0.48,
      "hand": "left"
    },
    {
      "midi": 60,
      "time": 99.5,
      "duration": 0.5,
      "velocity": 0.48,
      "hand": "right"
    },
    {
      "midi": 65,
      "time": 99.5,
      "duration": 0.5,
      "velocity": 0.48,
      "hand": "right"
    },
    {
      "midi": 69,
      "time": 99.5,
      "duration": 0.5,
      "velocity": 0.48,
      "hand": "right"
    },
    {
      "midi": 72,
      "time": 99.5,
      "duration": 0.5,
      "velocity": 0.71,
      "hand": "right"
    },
    {
      "midi": 57,
      "time": 100,
      "duration": 0.5,
      "velocity": 0.48,
      "hand": "left"
    },
    {
      "midi": 60,
      "time": 100,
      "duration": 0.5,
      "velocity": 0.48,
      "hand": "right"
    },
    {
      "midi": 65,
      "time": 100,
      "duration": 0.5,
      "velocity": 0.48,
      "hand": "right"
    },
    {
      "midi": 77,
      "time": 100,
      "duration": 0.75,
      "velocity": 0.71,
      "hand": "right"
    },
    {
      "midi": 53,
      "time": 100.5,
      "duration": 0.5,
      "velocity": 0.48,
      "hand": "left"
    },
    {
      "midi": 76,
      "time": 100.75,
      "duration": 0.25,
      "velocity": 0.71,
      "hand": "right"
    },
    {
      "midi": 61,
      "time": 101,
      "duration": 0.5,
      "velocity": 0.48,
      "hand": "right"
    },
    {
      "midi": 64,
      "time": 101,
      "duration": 0.5,
      "velocity": 0.48,
      "hand": "right"
    },
    {
      "midi": 67,
      "time": 101,
      "duration": 0.5,
      "velocity": 0.48,
      "hand": "right"
    },
    {
      "midi": 70,
      "time": 101,
      "duration": 0.25,
      "velocity": 0.71,
      "hand": "right"
    },
    {
      "midi": 72,
      "time": 101.25,
      "duration": 0.25,
      "velocity": 0.71,
      "hand": "right"
    },
    {
      "midi": 58,
      "time": 101.5,
      "duration": 0.5,
      "velocity": 0.48,
      "hand": "left"
    },
    {
      "midi": 61,
      "time": 101.5,
      "duration": 0.5,
      "velocity": 0.48,
      "hand": "right"
    },
    {
      "midi": 64,
      "time": 101.5,
      "duration": 0.5,
      "velocity": 0.48,
      "hand": "right"
    },
    {
      "midi": 75,
      "time": 101.5,
      "duration": 0.25,
      "velocity": 0.71,
      "hand": "right"
    },
    {
      "midi": 73,
      "time": 101.75,
      "duration": 0.25,
      "velocity": 0.71,
      "hand": "right"
    },
    {
      "midi": 41,
      "time": 102,
      "duration": 0.5,
      "velocity": 0.48,
      "hand": "left"
    },
    {
      "midi": 60,
      "time": 102.5,
      "duration": 0.5,
      "velocity": 0.48,
      "hand": "right"
    },
    {
      "midi": 63,
      "time": 102.5,
      "duration": 0.5,
      "velocity": 0.48,
      "hand": "right"
    },
    {
      "midi": 66,
      "time": 102.5,
      "duration": 0.5,
      "velocity": 0.48,
      "hand": "right"
    },
    {
      "midi": 72,
      "time": 102.5,
      "duration": 0.25,
      "velocity": 0.71,
      "hand": "right"
    },
    {
      "midi": 73,
      "time": 102.75,
      "duration": 0.25,
      "velocity": 0.71,
      "hand": "right"
    },
    {
      "midi": 54,
      "time": 103,
      "duration": 0.5,
      "velocity": 0.48,
      "hand": "left"
    },
    {
      "midi": 58,
      "time": 103,
      "duration": 0.5,
      "velocity": 0.48,
      "hand": "left"
    },
    {
      "midi": 63,
      "time": 103,
      "duration": 0.5,
      "velocity": 0.48,
      "hand": "right"
    },
    {
      "midi": 72,
      "time": 103,
      "duration": 0.25,
      "velocity": 0.71,
      "hand": "right"
    },
    {
      "midi": 73,
      "time": 103.25,
      "duration": 0.25,
      "velocity": 0.71,
      "hand": "right"
    },
    {
      "midi": 53,
      "time": 103.5,
      "duration": 0.5,
      "velocity": 0.48,
      "hand": "left"
    },
    {
      "midi": 75,
      "time": 103.5,
      "duration": 0.5,
      "velocity": 0.71,
      "hand": "right"
    },
    {
      "midi": 63,
      "time": 104,
      "duration": 0.5,
      "velocity": 0.48,
      "hand": "right"
    },
    {
      "midi": 66,
      "time": 104,
      "duration": 0.5,
      "velocity": 0.48,
      "hand": "right"
    },
    {
      "midi": 70,
      "time": 104,
      "duration": 0.5,
      "velocity": 0.48,
      "hand": "right"
    },
    {
      "midi": 75,
      "time": 104,
      "duration": 0.5,
      "velocity": 0.71,
      "hand": "right"
    },
    {
      "midi": 60,
      "time": 104.5,
      "duration": 0.5,
      "velocity": 0.48,
      "hand": "right"
    },
    {
      "midi": 63,
      "time": 104.5,
      "duration": 0.5,
      "velocity": 0.48,
      "hand": "right"
    },
    {
      "midi": 66,
      "time": 104.5,
      "duration": 0.5,
      "velocity": 0.48,
      "hand": "right"
    },
    {
      "midi": 75,
      "time": 104.5,
      "duration": 0.5,
      "velocity": 0.71,
      "hand": "right"
    },
    {
      "midi": 41,
      "time": 105,
      "duration": 0.5,
      "velocity": 0.48,
      "hand": "left"
    },
    {
      "midi": 75,
      "time": 105,
      "duration": 0.5,
      "velocity": 0.71,
      "hand": "right"
    },
    {
      "midi": 63,
      "time": 105.5,
      "duration": 0.5,
      "velocity": 0.48,
      "hand": "right"
    },
    {
      "midi": 69,
      "time": 105.5,
      "duration": 0.5,
      "velocity": 0.48,
      "hand": "right"
    },
    {
      "midi": 77,
      "time": 105.5,
      "duration": 0.25,
      "velocity": 0.71,
      "hand": "right"
    },
    {
      "midi": 72,
      "time": 105.75,
      "duration": 0.25,
      "velocity": 0.71,
      "hand": "right"
    },
    {
      "midi": 57,
      "time": 106,
      "duration": 0.5,
      "velocity": 0.48,
      "hand": "left"
    },
    {
      "midi": 63,
      "time": 106,
      "duration": 0.5,
      "velocity": 0.48,
      "hand": "right"
    },
    {
      "midi": 65,
      "time": 106,
      "duration": 0.5,
      "velocity": 0.48,
      "hand": "right"
    },
    {
      "midi": 75,
      "time": 106,
      "duration": 0.25,
      "velocity": 0.71,
      "hand": "right"
    },
    {
      "midi": 73,
      "time": 106.25,
      "duration": 0.25,
      "velocity": 0.71,
      "hand": "right"
    },
    {
      "midi": 46,
      "time": 106.5,
      "duration": 0.5,
      "velocity": 0.48,
      "hand": "left"
    },
    {
      "midi": 70,
      "time": 106.5,
      "duration": 1,
      "velocity": 0.71,
      "hand": "right"
    },
    {
      "midi": 58,
      "time": 107,
      "duration": 0.5,
      "velocity": 0.48,
      "hand": "left"
    },
    {
      "midi": 61,
      "time": 107,
      "duration": 0.5,
      "velocity": 0.48,
      "hand": "right"
    },
    {
      "midi": 65,
      "time": 107,
      "duration": 0.5,
      "velocity": 0.48,
      "hand": "right"
    },
    {
      "midi": 53,
      "time": 107.5,
      "duration": 0.5,
      "velocity": 0.48,
      "hand": "left"
    },
    {
      "midi": 58,
      "time": 107.5,
      "duration": 0.5,
      "velocity": 0.48,
      "hand": "left"
    },
    {
      "midi": 61,
      "time": 107.5,
      "duration": 0.5,
      "velocity": 0.48,
      "hand": "right"
    },
    {
      "midi": 58,
      "time": 108,
      "duration": 0.5,
      "velocity": 0.48,
      "hand": "left"
    },
    {
      "midi": 61,
      "time": 108,
      "duration": 0.5,
      "velocity": 0.48,
      "hand": "right"
    },
    {
      "midi": 66,
      "time": 108,
      "duration": 0.5,
      "velocity": 0.48,
      "hand": "right"
    },
    {
      "midi": 58,
      "time": 108.5,
      "duration": 0.5,
      "velocity": 0.26,
      "hand": "left"
    },
    {
      "midi": 61,
      "time": 108.5,
      "duration": 0.5,
      "velocity": 0.26,
      "hand": "right"
    },
    {
      "midi": 65,
      "time": 108.5,
      "duration": 0.5,
      "velocity": 0.26,
      "hand": "right"
    },
    {
      "midi": 53,
      "time": 109,
      "duration": 0.5,
      "velocity": 0.26,
      "hand": "left"
    },
    {
      "midi": 58,
      "time": 109,
      "duration": 0.5,
      "velocity": 0.26,
      "hand": "left"
    },
    {
      "midi": 61,
      "time": 109,
      "duration": 0.5,
      "velocity": 0.26,
      "hand": "right"
    },
    {
      "midi": 49,
      "time": 109.5,
      "duration": 0.5,
      "velocity": 0.26,
      "hand": "left"
    },
    {
      "midi": 53,
      "time": 109.5,
      "duration": 0.5,
      "velocity": 0.26,
      "hand": "left"
    },
    {
      "midi": 58,
      "time": 109.5,
      "duration": 0.5,
      "velocity": 0.26,
      "hand": "left"
    },
    {
      "midi": 34,
      "time": 110,
      "duration": 0.5,
      "velocity": 0.26,
      "hand": "left"
    },
    {
      "midi": 46,
      "time": 110,
      "duration": 0.5,
      "velocity": 0.26,
      "hand": "left"
    },
    {
      "midi": 32,
      "time": 110.5,
      "duration": 0.5,
      "velocity": 0.26,
      "hand": "left"
    },
    {
      "midi": 44,
      "time": 110.5,
      "duration": 0.5,
      "velocity": 0.26,
      "hand": "left"
    },
    {
      "midi": 30,
      "time": 111,
      "duration": 0.5,
      "velocity": 0.26,
      "hand": "left"
    },
    {
      "midi": 42,
      "time": 111,
      "duration": 0.5,
      "velocity": 0.26,
      "hand": "left"
    },
    {
      "midi": 37,
      "time": 111.5,
      "duration": 0.5,
      "velocity": 0.26,
      "hand": "left"
    },
    {
      "midi": 49,
      "time": 111.5,
      "duration": 0.5,
      "velocity": 0.26,
      "hand": "left"
    },
    {
      "midi": 42,
      "time": 112,
      "duration": 0.5,
      "velocity": 0.26,
      "hand": "left"
    },
    {
      "midi": 54,
      "time": 112,
      "duration": 0.5,
      "velocity": 0.26,
      "hand": "left"
    },
    {
      "midi": 46,
      "time": 112.5,
      "duration": 0.5,
      "velocity": 0.26,
      "hand": "left"
    },
    {
      "midi": 58,
      "time": 112.5,
      "duration": 0.5,
      "velocity": 0.26,
      "hand": "left"
    },
    {
      "midi": 66,
      "time": 112.5,
      "duration": 1,
      "velocity": 0.71,
      "hand": "right"
    },
    {
      "midi": 70,
      "time": 112.5,
      "duration": 1,
      "velocity": 0.71,
      "hand": "right"
    },
    {
      "midi": 78,
      "time": 112.5,
      "duration": 1,
      "velocity": 0.71,
      "hand": "right"
    },
    {
      "midi": 51,
      "time": 113,
      "duration": 0.5,
      "velocity": 0.26,
      "hand": "left"
    },
    {
      "midi": 63,
      "time": 113,
      "duration": 0.5,
      "velocity": 0.26,
      "hand": "right"
    },
    {
      "midi": 46,
      "time": 113.5,
      "duration": 0.5,
      "velocity": 0.26,
      "hand": "left"
    },
    {
      "midi": 58,
      "time": 113.5,
      "duration": 0.5,
      "velocity": 0.26,
      "hand": "left"
    },
    {
      "midi": 66,
      "time": 113.5,
      "duration": 0.5,
      "velocity": 0.71,
      "hand": "right"
    },
    {
      "midi": 70,
      "time": 113.5,
      "duration": 0.5,
      "velocity": 0.71,
      "hand": "right"
    },
    {
      "midi": 78,
      "time": 113.5,
      "duration": 0.5,
      "velocity": 0.71,
      "hand": "right"
    },
    {
      "midi": 49,
      "time": 114,
      "duration": 0.5,
      "velocity": 0.26,
      "hand": "left"
    },
    {
      "midi": 61,
      "time": 114,
      "duration": 0.5,
      "velocity": 0.26,
      "hand": "right"
    },
    {
      "midi": 66,
      "time": 114,
      "duration": 4.5,
      "velocity": 0.71,
      "hand": "right"
    },
    {
      "midi": 70,
      "time": 114,
      "duration": 4.5,
      "velocity": 0.71,
      "hand": "right"
    },
    {
      "midi": 78,
      "time": 114,
      "duration": 4.5,
      "velocity": 0.71,
      "hand": "right"
    },
    {
      "midi": 51,
      "time": 114.5,
      "duration": 0.5,
      "velocity": 0.26,
      "hand": "left"
    },
    {
      "midi": 63,
      "time": 114.5,
      "duration": 0.5,
      "velocity": 0.26,
      "hand": "right"
    },
    {
      "midi": 46,
      "time": 115,
      "duration": 0.5,
      "velocity": 0.26,
      "hand": "left"
    },
    {
      "midi": 58,
      "time": 115,
      "duration": 0.5,
      "velocity": 0.26,
      "hand": "left"
    },
    {
      "midi": 49,
      "time": 115.5,
      "duration": 0.5,
      "velocity": 0.26,
      "hand": "left"
    },
    {
      "midi": 61,
      "time": 115.5,
      "duration": 0.5,
      "velocity": 0.26,
      "hand": "right"
    },
    {
      "midi": 44,
      "time": 116,
      "duration": 0.5,
      "velocity": 0.26,
      "hand": "left"
    },
    {
      "midi": 56,
      "time": 116,
      "duration": 0.5,
      "velocity": 0.26,
      "hand": "left"
    },
    {
      "midi": 46,
      "time": 116.5,
      "duration": 0.5,
      "velocity": 0.26,
      "hand": "left"
    },
    {
      "midi": 58,
      "time": 116.5,
      "duration": 0.5,
      "velocity": 0.26,
      "hand": "left"
    },
    {
      "midi": 42,
      "time": 117,
      "duration": 0.5,
      "velocity": 0.26,
      "hand": "left"
    },
    {
      "midi": 54,
      "time": 117,
      "duration": 0.5,
      "velocity": 0.26,
      "hand": "left"
    },
    {
      "midi": 39,
      "time": 117.5,
      "duration": 0.5,
      "velocity": 0.26,
      "hand": "left"
    },
    {
      "midi": 51,
      "time": 117.5,
      "duration": 0.5,
      "velocity": 0.26,
      "hand": "left"
    },
    {
      "midi": 34,
      "time": 118,
      "duration": 0.5,
      "velocity": 0.26,
      "hand": "left"
    },
    {
      "midi": 46,
      "time": 118,
      "duration": 0.5,
      "velocity": 0.26,
      "hand": "left"
    },
    {
      "midi": 37,
      "time": 118.5,
      "duration": 0.5,
      "velocity": 0.26,
      "hand": "left"
    },
    {
      "midi": 49,
      "time": 118.5,
      "duration": 0.5,
      "velocity": 0.26,
      "hand": "left"
    },
    {
      "midi": 66,
      "time": 118.5,
      "duration": 1,
      "velocity": 0.71,
      "hand": "right"
    },
    {
      "midi": 70,
      "time": 118.5,
      "duration": 1,
      "velocity": 0.71,
      "hand": "right"
    },
    {
      "midi": 78,
      "time": 118.5,
      "duration": 1,
      "velocity": 0.71,
      "hand": "right"
    },
    {
      "midi": 32,
      "time": 119,
      "duration": 0.5,
      "velocity": 0.26,
      "hand": "left"
    },
    {
      "midi": 44,
      "time": 119,
      "duration": 0.5,
      "velocity": 0.26,
      "hand": "left"
    },
    {
      "midi": 34,
      "time": 119.5,
      "duration": 0.5,
      "velocity": 0.26,
      "hand": "left"
    },
    {
      "midi": 46,
      "time": 119.5,
      "duration": 0.5,
      "velocity": 0.26,
      "hand": "left"
    },
    {
      "midi": 66,
      "time": 119.5,
      "duration": 0.5,
      "velocity": 0.71,
      "hand": "right"
    },
    {
      "midi": 70,
      "time": 119.5,
      "duration": 0.5,
      "velocity": 0.71,
      "hand": "right"
    },
    {
      "midi": 78,
      "time": 119.5,
      "duration": 0.5,
      "velocity": 0.71,
      "hand": "right"
    },
    {
      "midi": 30,
      "time": 120,
      "duration": 0.5,
      "velocity": 0.26,
      "hand": "left"
    },
    {
      "midi": 42,
      "time": 120,
      "duration": 0.5,
      "velocity": 0.26,
      "hand": "left"
    },
    {
      "midi": 66,
      "time": 120,
      "duration": 1.5,
      "velocity": 0.71,
      "hand": "right"
    },
    {
      "midi": 70,
      "time": 120,
      "duration": 1.5,
      "velocity": 0.71,
      "hand": "right"
    },
    {
      "midi": 78,
      "time": 120,
      "duration": 1.5,
      "velocity": 0.71,
      "hand": "right"
    },
    {
      "midi": 51,
      "time": 120.5,
      "duration": 0.5,
      "velocity": 0.26,
      "hand": "left"
    },
    {
      "midi": 63,
      "time": 120.5,
      "duration": 0.5,
      "velocity": 0.26,
      "hand": "right"
    },
    {
      "midi": 46,
      "time": 121,
      "duration": 0.5,
      "velocity": 0.26,
      "hand": "left"
    },
    {
      "midi": 58,
      "time": 121,
      "duration": 0.5,
      "velocity": 0.26,
      "hand": "left"
    },
    {
      "midi": 49,
      "time": 121.5,
      "duration": 0.5,
      "velocity": 0.26,
      "hand": "left"
    },
    {
      "midi": 61,
      "time": 121.5,
      "duration": 0.5,
      "velocity": 0.26,
      "hand": "right"
    },
    {
      "midi": 65,
      "time": 121.5,
      "duration": 1.5,
      "velocity": 0.71,
      "hand": "right"
    },
    {
      "midi": 68,
      "time": 121.5,
      "duration": 1.5,
      "velocity": 0.71,
      "hand": "right"
    },
    {
      "midi": 77,
      "time": 121.5,
      "duration": 1.5,
      "velocity": 0.71,
      "hand": "right"
    },
    {
      "midi": 44,
      "time": 122,
      "duration": 0.5,
      "velocity": 0.26,
      "hand": "left"
    },
    {
      "midi": 56,
      "time": 122,
      "duration": 0.5,
      "velocity": 0.26,
      "hand": "left"
    },
    {
      "midi": 46,
      "time": 122.5,
      "duration": 0.5,
      "velocity": 0.26,
      "hand": "left"
    },
    {
      "midi": 58,
      "time": 122.5,
      "duration": 0.5,
      "velocity": 0.26,
      "hand": "left"
    },
    {
      "midi": 47,
      "time": 123,
      "duration": 0.5,
      "velocity": 0.26,
      "hand": "left"
    },
    {
      "midi": 59,
      "time": 123,
      "duration": 0.5,
      "velocity": 0.26,
      "hand": "left"
    },
    {
      "midi": 64,
      "time": 123,
      "duration": 1.5,
      "velocity": 0.71,
      "hand": "right"
    },
    {
      "midi": 68,
      "time": 123,
      "duration": 1.5,
      "velocity": 0.71,
      "hand": "right"
    },
    {
      "midi": 76,
      "time": 123,
      "duration": 1.5,
      "velocity": 0.71,
      "hand": "right"
    },
    {
      "midi": 35,
      "time": 123.5,
      "duration": 0.5,
      "velocity": 0.26,
      "hand": "left"
    },
    {
      "midi": 47,
      "time": 123.5,
      "duration": 0.5,
      "velocity": 0.26,
      "hand": "left"
    },
    {
      "midi": 40,
      "time": 124,
      "duration": 0.5,
      "velocity": 0.26,
      "hand": "left"
    },
    {
      "midi": 52,
      "time": 124,
      "duration": 0.5,
      "velocity": 0.26,
      "hand": "left"
    },
    {
      "midi": 44,
      "time": 124.5,
      "duration": 0.5,
      "velocity": 0.26,
      "hand": "left"
    },
    {
      "midi": 56,
      "time": 124.5,
      "duration": 0.5,
      "velocity": 0.26,
      "hand": "left"
    },
    {
      "midi": 64,
      "time": 124.5,
      "duration": 1,
      "velocity": 0.71,
      "hand": "right"
    },
    {
      "midi": 68,
      "time": 124.5,
      "duration": 1,
      "velocity": 0.71,
      "hand": "right"
    },
    {
      "midi": 76,
      "time": 124.5,
      "duration": 1,
      "velocity": 0.71,
      "hand": "right"
    },
    {
      "midi": 49,
      "time": 125,
      "duration": 0.5,
      "velocity": 0.26,
      "hand": "left"
    },
    {
      "midi": 61,
      "time": 125,
      "duration": 0.5,
      "velocity": 0.26,
      "hand": "right"
    },
    {
      "midi": 44,
      "time": 125.5,
      "duration": 0.5,
      "velocity": 0.26,
      "hand": "left"
    },
    {
      "midi": 56,
      "time": 125.5,
      "duration": 0.5,
      "velocity": 0.26,
      "hand": "left"
    },
    {
      "midi": 64,
      "time": 125.5,
      "duration": 0.5,
      "velocity": 0.71,
      "hand": "right"
    },
    {
      "midi": 68,
      "time": 125.5,
      "duration": 0.5,
      "velocity": 0.71,
      "hand": "right"
    },
    {
      "midi": 76,
      "time": 125.5,
      "duration": 0.5,
      "velocity": 0.71,
      "hand": "right"
    },
    {
      "midi": 47,
      "time": 126,
      "duration": 0.5,
      "velocity": 0.26,
      "hand": "left"
    },
    {
      "midi": 59,
      "time": 126,
      "duration": 0.5,
      "velocity": 0.26,
      "hand": "left"
    },
    {
      "midi": 64,
      "time": 126,
      "duration": 4.5,
      "velocity": 0.71,
      "hand": "right"
    },
    {
      "midi": 68,
      "time": 126,
      "duration": 4.5,
      "velocity": 0.71,
      "hand": "right"
    },
    {
      "midi": 76,
      "time": 126,
      "duration": 4.5,
      "velocity": 0.71,
      "hand": "right"
    },
    {
      "midi": 49,
      "time": 126.5,
      "duration": 0.5,
      "velocity": 0.26,
      "hand": "left"
    },
    {
      "midi": 61,
      "time": 126.5,
      "duration": 0.5,
      "velocity": 0.26,
      "hand": "right"
    },
    {
      "midi": 44,
      "time": 127,
      "duration": 0.5,
      "velocity": 0.26,
      "hand": "left"
    },
    {
      "midi": 56,
      "time": 127,
      "duration": 0.5,
      "velocity": 0.26,
      "hand": "left"
    },
    {
      "midi": 47,
      "time": 127.5,
      "duration": 0.5,
      "velocity": 0.26,
      "hand": "left"
    },
    {
      "midi": 59,
      "time": 127.5,
      "duration": 0.5,
      "velocity": 0.26,
      "hand": "left"
    },
    {
      "midi": 42,
      "time": 128,
      "duration": 0.5,
      "velocity": 0.26,
      "hand": "left"
    },
    {
      "midi": 54,
      "time": 128,
      "duration": 0.5,
      "velocity": 0.26,
      "hand": "left"
    },
    {
      "midi": 44,
      "time": 128.5,
      "duration": 0.5,
      "velocity": 0.26,
      "hand": "left"
    },
    {
      "midi": 56,
      "time": 128.5,
      "duration": 0.5,
      "velocity": 0.26,
      "hand": "left"
    },
    {
      "midi": 40,
      "time": 129,
      "duration": 0.5,
      "velocity": 0.26,
      "hand": "left"
    },
    {
      "midi": 52,
      "time": 129,
      "duration": 0.5,
      "velocity": 0.26,
      "hand": "left"
    },
    {
      "midi": 37,
      "time": 129.5,
      "duration": 0.5,
      "velocity": 0.26,
      "hand": "left"
    },
    {
      "midi": 49,
      "time": 129.5,
      "duration": 0.5,
      "velocity": 0.26,
      "hand": "left"
    },
    {
      "midi": 32,
      "time": 130,
      "duration": 0.5,
      "velocity": 0.26,
      "hand": "left"
    },
    {
      "midi": 44,
      "time": 130,
      "duration": 0.5,
      "velocity": 0.26,
      "hand": "left"
    },
    {
      "midi": 35,
      "time": 130.5,
      "duration": 0.5,
      "velocity": 0.26,
      "hand": "left"
    },
    {
      "midi": 47,
      "time": 130.5,
      "duration": 0.5,
      "velocity": 0.26,
      "hand": "left"
    },
    {
      "midi": 64,
      "time": 130.5,
      "duration": 1,
      "velocity": 0.71,
      "hand": "right"
    },
    {
      "midi": 68,
      "time": 130.5,
      "duration": 1,
      "velocity": 0.71,
      "hand": "right"
    },
    {
      "midi": 76,
      "time": 130.5,
      "duration": 1,
      "velocity": 0.71,
      "hand": "right"
    },
    {
      "midi": 30,
      "time": 131,
      "duration": 0.5,
      "velocity": 0.26,
      "hand": "left"
    },
    {
      "midi": 42,
      "time": 131,
      "duration": 0.5,
      "velocity": 0.26,
      "hand": "left"
    },
    {
      "midi": 32,
      "time": 131.5,
      "duration": 0.5,
      "velocity": 0.26,
      "hand": "left"
    },
    {
      "midi": 44,
      "time": 131.5,
      "duration": 0.5,
      "velocity": 0.26,
      "hand": "left"
    },
    {
      "midi": 64,
      "time": 131.5,
      "duration": 0.5,
      "velocity": 0.71,
      "hand": "right"
    },
    {
      "midi": 68,
      "time": 131.5,
      "duration": 0.5,
      "velocity": 0.71,
      "hand": "right"
    },
    {
      "midi": 76,
      "time": 131.5,
      "duration": 0.5,
      "velocity": 0.71,
      "hand": "right"
    },
    {
      "midi": 28,
      "time": 132,
      "duration": 0.5,
      "velocity": 0.26,
      "hand": "left"
    },
    {
      "midi": 40,
      "time": 132,
      "duration": 0.5,
      "velocity": 0.26,
      "hand": "left"
    },
    {
      "midi": 64,
      "time": 132,
      "duration": 1.5,
      "velocity": 0.71,
      "hand": "right"
    },
    {
      "midi": 68,
      "time": 132,
      "duration": 1.5,
      "velocity": 0.71,
      "hand": "right"
    },
    {
      "midi": 76,
      "time": 132,
      "duration": 1.5,
      "velocity": 0.71,
      "hand": "right"
    },
    {
      "midi": 49,
      "time": 132.5,
      "duration": 0.5,
      "velocity": 0.26,
      "hand": "left"
    },
    {
      "midi": 61,
      "time": 132.5,
      "duration": 0.5,
      "velocity": 0.26,
      "hand": "right"
    },
    {
      "midi": 44,
      "time": 133,
      "duration": 0.5,
      "velocity": 0.26,
      "hand": "left"
    },
    {
      "midi": 56,
      "time": 133,
      "duration": 0.5,
      "velocity": 0.26,
      "hand": "left"
    },
    {
      "midi": 47,
      "time": 133.5,
      "duration": 0.5,
      "velocity": 0.26,
      "hand": "left"
    },
    {
      "midi": 59,
      "time": 133.5,
      "duration": 0.5,
      "velocity": 0.26,
      "hand": "left"
    },
    {
      "midi": 63,
      "time": 133.5,
      "duration": 1.5,
      "velocity": 0.71,
      "hand": "right"
    },
    {
      "midi": 68,
      "time": 133.5,
      "duration": 0.5,
      "velocity": 0.71,
      "hand": "right"
    },
    {
      "midi": 75,
      "time": 133.5,
      "duration": 1.5,
      "velocity": 0.71,
      "hand": "right"
    },
    {
      "midi": 46,
      "time": 134,
      "duration": 0.5,
      "velocity": 0.26,
      "hand": "left"
    },
    {
      "midi": 58,
      "time": 134,
      "duration": 0.5,
      "velocity": 0.26,
      "hand": "left"
    },
    {
      "midi": 70,
      "time": 134,
      "duration": 0.5,
      "velocity": 0.71,
      "hand": "right"
    },
    {
      "midi": 44,
      "time": 134.5,
      "duration": 0.5,
      "velocity": 0.26,
      "hand": "left"
    },
    {
      "midi": 56,
      "time": 134.5,
      "duration": 0.5,
      "velocity": 0.26,
      "hand": "left"
    },
    {
      "midi": 71,
      "time": 134.5,
      "duration": 0.5,
      "velocity": 0.71,
      "hand": "right"
    },
    {
      "midi": 34,
      "time": 135,
      "duration": 0.5,
      "velocity": 0.26,
      "hand": "left"
    },
    {
      "midi": 46,
      "time": 135,
      "duration": 0.5,
      "velocity": 0.26,
      "hand": "left"
    },
    {
      "midi": 62,
      "time": 135,
      "duration": 0.5,
      "velocity": 0.71,
      "hand": "right"
    },
    {
      "midi": 56,
      "time": 135.5,
      "duration": 0.5,
      "velocity": 0.26,
      "hand": "left"
    },
    {
      "midi": 62,
      "time": 135.5,
      "duration": 0.5,
      "velocity": 0.26,
      "hand": "right"
    },
    {
      "midi": 74,
      "time": 135.5,
      "duration": 0.25,
      "velocity": 0.71,
      "hand": "right"
    },
    {
      "midi": 75,
      "time": 135.75,
      "duration": 0.25,
      "velocity": 0.71,
      "hand": "right"
    },
    {
      "midi": 62,
      "time": 136,
      "duration": 0.5,
      "velocity": 0.26,
      "hand": "right"
    },
    {
      "midi": 68,
      "time": 136,
      "duration": 0.5,
      "velocity": 0.26,
      "hand": "right"
    },
    {
      "midi": 74,
      "time": 136,
      "duration": 0.25,
      "velocity": 0.71,
      "hand": "right"
    },
    {
      "midi": 75,
      "time": 136.25,
      "duration": 0.25,
      "velocity": 0.71,
      "hand": "right"
    },
    {
      "midi": 77,
      "time": 136.5,
      "duration": 0.5,
      "velocity": 0.71,
      "hand": "right"
    },
    {
      "midi": 56,
      "time": 137,
      "duration": 0.5,
      "velocity": 0.26,
      "hand": "left"
    },
    {
      "midi": 62,
      "time": 137,
      "duration": 0.5,
      "velocity": 0.26,
      "hand": "right"
    },
    {
      "midi": 68,
      "time": 137,
      "duration": 0.5,
      "velocity": 0.26,
      "hand": "right"
    },
    {
      "midi": 77,
      "time": 137,
      "duration": 0.5,
      "velocity": 0.71,
      "hand": "right"
    },
    {
      "midi": 53,
      "time": 137.5,
      "duration": 0.5,
      "velocity": 0.26,
      "hand": "left"
    },
    {
      "midi": 56,
      "time": 137.5,
      "duration": 0.5,
      "velocity": 0.26,
      "hand": "left"
    },
    {
      "midi": 62,
      "time": 137.5,
      "duration": 0.5,
      "velocity": 0.26,
      "hand": "right"
    },
    {
      "midi": 77,
      "time": 137.5,
      "duration": 0.5,
      "velocity": 0.71,
      "hand": "right"
    },
    {
      "midi": 47,
      "time": 138,
      "duration": 0.5,
      "velocity": 0.26,
      "hand": "left"
    },
    {
      "midi": 77,
      "time": 138,
      "duration": 0.5,
      "velocity": 0.71,
      "hand": "right"
    },
    {
      "midi": 56,
      "time": 138.5,
      "duration": 0.5,
      "velocity": 0.26,
      "hand": "left"
    },
    {
      "midi": 63,
      "time": 138.5,
      "duration": 0.5,
      "velocity": 0.26,
      "hand": "right"
    },
    {
      "midi": 68,
      "time": 138.5,
      "duration": 0.5,
      "velocity": 0.26,
      "hand": "right"
    },
    {
      "midi": 78,
      "time": 138.5,
      "duration": 0.25,
      "velocity": 0.71,
      "hand": "right"
    },
    {
      "midi": 77,
      "time": 138.75,
      "duration": 0.25,
      "velocity": 0.71,
      "hand": "right"
    },
    {
      "midi": 53,
      "time": 139,
      "duration": 0.5,
      "velocity": 0.26,
      "hand": "left"
    },
    {
      "midi": 56,
      "time": 139,
      "duration": 0.5,
      "velocity": 0.26,
      "hand": "left"
    },
    {
      "midi": 63,
      "time": 139,
      "duration": 0.5,
      "velocity": 0.26,
      "hand": "right"
    },
    {
      "midi": 75,
      "time": 139,
      "duration": 0.25,
      "velocity": 0.71,
      "hand": "right"
    },
    {
      "midi": 68,
      "time": 139.25,
      "duration": 0.25,
      "velocity": 0.71,
      "hand": "right"
    },
    {
      "midi": 41,
      "time": 139.5,
      "duration": 0.5,
      "velocity": 0.26,
      "hand": "left"
    },
    {
      "midi": 83,
      "time": 139.5,
      "duration": 1.5,
      "velocity": 0.71,
      "hand": "right"
    },
    {
      "midi": 56,
      "time": 140,
      "duration": 0.5,
      "velocity": 0.26,
      "hand": "left"
    },
    {
      "midi": 63,
      "time": 140,
      "duration": 0.5,
      "velocity": 0.26,
      "hand": "right"
    },
    {
      "midi": 68,
      "time": 140,
      "duration": 0.5,
      "velocity": 0.26,
      "hand": "right"
    },
    {
      "midi": 53,
      "time": 140.5,
      "duration": 0.5,
      "velocity": 0.26,
      "hand": "left"
    },
    {
      "midi": 56,
      "time": 140.5,
      "duration": 0.5,
      "velocity": 0.26,
      "hand": "left"
    },
    {
      "midi": 63,
      "time": 140.5,
      "duration": 0.5,
      "velocity": 0.26,
      "hand": "right"
    },
    {
      "midi": 46,
      "time": 141,
      "duration": 0.5,
      "velocity": 0.26,
      "hand": "left"
    },
    {
      "midi": 56,
      "time": 141.5,
      "duration": 0.5,
      "velocity": 0.26,
      "hand": "left"
    },
    {
      "midi": 62,
      "time": 141.5,
      "duration": 0.5,
      "velocity": 0.26,
      "hand": "right"
    },
    {
      "midi": 74,
      "time": 141.5,
      "duration": 0.25,
      "velocity": 0.71,
      "hand": "right"
    },
    {
      "midi": 75,
      "time": 141.75,
      "duration": 0.25,
      "velocity": 0.71,
      "hand": "right"
    },
    {
      "midi": 62,
      "time": 142,
      "duration": 0.5,
      "velocity": 0.26,
      "hand": "right"
    },
    {
      "midi": 68,
      "time": 142,
      "duration": 0.5,
      "velocity": 0.26,
      "hand": "right"
    },
    {
      "midi": 74,
      "time": 142,
      "duration": 0.25,
      "velocity": 0.71,
      "hand": "right"
    },
    {
      "midi": 75,
      "time": 142.25,
      "duration": 0.25,
      "velocity": 0.71,
      "hand": "right"
    },
    {
      "midi": 47,
      "time": 142.5,
      "duration": 0.5,
      "velocity": 0.26,
      "hand": "left"
    },
    {
      "midi": 77,
      "time": 142.5,
      "duration": 0.5,
      "velocity": 0.71,
      "hand": "right"
    },
    {
      "midi": 56,
      "time": 143,
      "duration": 0.5,
      "velocity": 0.26,
      "hand": "left"
    },
    {
      "midi": 63,
      "time": 143,
      "duration": 0.5,
      "velocity": 0.26,
      "hand": "right"
    },
    {
      "midi": 68,
      "time": 143,
      "duration": 0.5,
      "velocity": 0.26,
      "hand": "right"
    },
    {
      "midi": 77,
      "time": 143,
      "duration": 0.5,
      "velocity": 0.71,
      "hand": "right"
    },
    {
      "midi": 53,
      "time": 143.5,
      "duration": 0.5,
      "velocity": 0.26,
      "hand": "left"
    },
    {
      "midi": 56,
      "time": 143.5,
      "duration": 0.5,
      "velocity": 0.26,
      "hand": "left"
    },
    {
      "midi": 63,
      "time": 143.5,
      "duration": 0.5,
      "velocity": 0.26,
      "hand": "right"
    },
    {
      "midi": 77,
      "time": 143.5,
      "duration": 0.5,
      "velocity": 0.71,
      "hand": "right"
    },
    {
      "midi": 48,
      "time": 144,
      "duration": 0.5,
      "velocity": 0.26,
      "hand": "left"
    },
    {
      "midi": 77,
      "time": 144,
      "duration": 0.5,
      "velocity": 0.71,
      "hand": "right"
    },
    {
      "midi": 57,
      "time": 144.5,
      "duration": 0.5,
      "velocity": 0.26,
      "hand": "left"
    },
    {
      "midi": 63,
      "time": 144.5,
      "duration": 0.5,
      "velocity": 0.26,
      "hand": "right"
    },
    {
      "midi": 69,
      "time": 144.5,
      "duration": 0.5,
      "velocity": 0.26,
      "hand": "right"
    },
    {
      "midi": 78,
      "time": 144.5,
      "duration": 0.25,
      "velocity": 0.71,
      "hand": "right"
    },
    {
      "midi": 77,
      "time": 144.75,
      "duration": 0.25,
      "velocity": 0.71,
      "hand": "right"
    },
    {
      "midi": 53,
      "time": 145,
      "duration": 0.5,
      "velocity": 0.26,
      "hand": "left"
    },
    {
      "midi": 57,
      "time": 145,
      "duration": 0.5,
      "velocity": 0.26,
      "hand": "left"
    },
    {
      "midi": 63,
      "time": 145,
      "duration": 0.5,
      "velocity": 0.26,
      "hand": "right"
    },
    {
      "midi": 75,
      "time": 145,
      "duration": 0.25,
      "velocity": 0.71,
      "hand": "right"
    },
    {
      "midi": 69,
      "time": 145.25,
      "duration": 0.25,
      "velocity": 0.71,
      "hand": "right"
    },
    {
      "midi": 41,
      "time": 145.5,
      "duration": 0.5,
      "velocity": 0.26,
      "hand": "left"
    },
    {
      "midi": 84,
      "time": 145.5,
      "duration": 1.5,
      "velocity": 0.71,
      "hand": "right"
    },
    {
      "midi": 57,
      "time": 146,
      "duration": 0.5,
      "velocity": 0.26,
      "hand": "left"
    },
    {
      "midi": 63,
      "time": 146,
      "duration": 0.5,
      "velocity": 0.26,
      "hand": "right"
    },
    {
      "midi": 69,
      "time": 146,
      "duration": 0.5,
      "velocity": 0.26,
      "hand": "right"
    },
    {
      "midi": 53,
      "time": 146.5,
      "duration": 0.5,
      "velocity": 0.26,
      "hand": "left"
    },
    {
      "midi": 57,
      "time": 146.5,
      "duration": 0.5,
      "velocity": 0.26,
      "hand": "left"
    },
    {
      "midi": 63,
      "time": 146.5,
      "duration": 0.5,
      "velocity": 0.26,
      "hand": "right"
    },
    {
      "midi": 46,
      "time": 147,
      "duration": 0.5,
      "velocity": 0.26,
      "hand": "left"
    },
    {
      "midi": 82,
      "time": 147,
      "duration": 1.5,
      "velocity": 0.71,
      "hand": "right"
    },
    {
      "midi": 58,
      "time": 147.5,
      "duration": 0.5,
      "velocity": 0.26,
      "hand": "left"
    },
    {
      "midi": 62,
      "time": 147.5,
      "duration": 0.5,
      "velocity": 0.26,
      "hand": "right"
    },
    {
      "midi": 68,
      "time": 147.5,
      "duration": 0.5,
      "velocity": 0.26,
      "hand": "right"
    },
    {
      "midi": 53,
      "time": 148,
      "duration": 0.5,
      "velocity": 0.26,
      "hand": "left"
    },
    {
      "midi": 58,
      "time": 148,
      "duration": 0.5,
      "velocity": 0.26,
      "hand": "left"
    },
    {
      "midi": 62,
      "time": 148,
      "duration": 0.5,
      "velocity": 0.26,
      "hand": "right"
    },
    {
      "midi": 39,
      "time": 148.5,
      "duration": 0.5,
      "velocity": 0.26,
      "hand": "left"
    },
    {
      "midi": 73,
      "time": 148.5,
      "duration": 1.5,
      "velocity": 0.71,
      "hand": "right"
    },
    {
      "midi": 79,
      "time": 148.5,
      "duration": 1.5,
      "velocity": 0.71,
      "hand": "right"
    },
    {
      "midi": 58,
      "time": 149,
      "duration": 0.5,
      "velocity": 0.26,
      "hand": "left"
    },
    {
      "midi": 61,
      "time": 149,
      "duration": 0.5,
      "velocity": 0.26,
      "hand": "right"
    },
    {
      "midi": 67,
      "time": 149,
      "duration": 0.5,
      "velocity": 0.26,
      "hand": "right"
    },
    {
      "midi": 51,
      "time": 149.5,
      "duration": 0.5,
      "velocity": 0.26,
      "hand": "left"
    },
    {
      "midi": 58,
      "time": 149.5,
      "duration": 0.5,
      "velocity": 0.26,
      "hand": "left"
    },
    {
      "midi": 61,
      "time": 149.5,
      "duration": 0.5,
      "velocity": 0.26,
      "hand": "right"
    },
    {
      "midi": 44,
      "time": 150,
      "duration": 0.5,
      "velocity": 0.26,
      "hand": "left"
    },
    {
      "midi": 73,
      "time": 150,
      "duration": 0.5,
      "velocity": 0.71,
      "hand": "right"
    },
    {
      "midi": 82,
      "time": 150,
      "duration": 0.5,
      "velocity": 0.71,
      "hand": "right"
    },
    {
      "midi": 56,
      "time": 150.5,
      "duration": 0.5,
      "velocity": 0.26,
      "hand": "left"
    },
    {
      "midi": 63,
      "time": 150.5,
      "duration": 0.5,
      "velocity": 0.26,
      "hand": "right"
    },
    {
      "midi": 66,
      "time": 150.5,
      "duration": 0.5,
      "velocity": 0.26,
      "hand": "right"
    },
    {
      "midi": 72,
      "time": 150.5,
      "duration": 1,
      "velocity": 0.71,
      "hand": "right"
    },
    {
      "midi": 80,
      "time": 150.5,
      "duration": 0.25,
      "velocity": 0.71,
      "hand": "right"
    },
    {
      "midi": 75,
      "time": 150.75,
      "duration": 0.25,
      "velocity": 0.71,
      "hand": "right"
    },
    {
      "midi": 51,
      "time": 151,
      "duration": 0.5,
      "velocity": 0.26,
      "hand": "left"
    },
    {
      "midi": 56,
      "time": 151,
      "duration": 0.5,
      "velocity": 0.26,
      "hand": "left"
    },
    {
      "midi": 60,
      "time": 151,
      "duration": 0.5,
      "velocity": 0.26,
      "hand": "right"
    },
    {
      "midi": 80,
      "time": 151,
      "duration": 0.25,
      "velocity": 0.71,
      "hand": "right"
    },
    {
      "midi": 78,
      "time": 151.25,
      "duration": 0.25,
      "velocity": 0.71,
      "hand": "right"
    },
    {
      "midi": 37,
      "time": 151.5,
      "duration": 0.5,
      "velocity": 0.26,
      "hand": "left"
    },
    {
      "midi": 75,
      "time": 151.5,
      "duration": 0.5,
      "velocity": 0.71,
      "hand": "right"
    },
    {
      "midi": 78,
      "time": 151.5,
      "duration": 0.5,
      "velocity": 0.71,
      "hand": "right"
    },
    {
      "midi": 56,
      "time": 152,
      "duration": 0.5,
      "velocity": 0.26,
      "hand": "left"
    },
    {
      "midi": 61,
      "time": 152,
      "duration": 0.5,
      "velocity": 0.26,
      "hand": "right"
    },
    {
      "midi": 65,
      "time": 152,
      "duration": 0.5,
      "velocity": 0.26,
      "hand": "right"
    },
    {
      "midi": 73,
      "time": 152,
      "duration": 0.25,
      "velocity": 0.71,
      "hand": "right"
    },
    {
      "midi": 77,
      "time": 152,
      "duration": 1,
      "velocity": 0.71,
      "hand": "right"
    },
    {
      "midi": 68,
      "time": 152.25,
      "duration": 0.25,
      "velocity": 0.71,
      "hand": "right"
    },
    {
      "midi": 53,
      "time": 152.5,
      "duration": 0.5,
      "velocity": 0.26,
      "hand": "left"
    },
    {
      "midi": 56,
      "time": 152.5,
      "duration": 0.5,
      "velocity": 0.26,
      "hand": "left"
    },
    {
      "midi": 61,
      "time": 152.5,
      "duration": 0.5,
      "velocity": 0.26,
      "hand": "right"
    },
    {
      "midi": 73,
      "time": 152.5,
      "duration": 0.25,
      "velocity": 0.71,
      "hand": "right"
    },
    {
      "midi": 72,
      "time": 152.75,
      "duration": 0.25,
      "velocity": 0.71,
      "hand": "right"
    },
    {
      "midi": 42,
      "time": 153,
      "duration": 0.5,
      "velocity": 0.26,
      "hand": "left"
    },
    {
      "midi": 72,
      "time": 153,
      "duration": 0.5,
      "velocity": 0.71,
      "hand": "right"
    },
    {
      "midi": 80,
      "time": 153,
      "duration": 0.5,
      "velocity": 0.71,
      "hand": "right"
    },
    {
      "midi": 58,
      "time": 153.5,
      "duration": 0.5,
      "velocity": 0.26,
      "hand": "left"
    },
    {
      "midi": 61,
      "time": 153.5,
      "duration": 0.5,
      "velocity": 0.26,
      "hand": "right"
    },
    {
      "midi": 65,
      "time": 153.5,
      "duration": 0.5,
      "velocity": 0.26,
      "hand": "right"
    },
    {
      "midi": 70,
      "time": 153.5,
      "duration": 1,
      "velocity": 0.71,
      "hand": "right"
    },
    {
      "midi": 78,
      "time": 153.5,
      "duration": 0.25,
      "velocity": 0.71,
      "hand": "right"
    },
    {
      "midi": 73,
      "time": 153.75,
      "duration": 0.25,
      "velocity": 0.71,
      "hand": "right"
    },
    {
      "midi": 54,
      "time": 154,
      "duration": 0.5,
      "velocity": 0.26,
      "hand": "left"
    },
    {
      "midi": 58,
      "time": 154,
      "duration": 0.5,
      "velocity": 0.26,
      "hand": "left"
    },
    {
      "midi": 61,
      "time": 154,
      "duration": 0.5,
      "velocity": 0.26,
      "hand": "right"
    },
    {
      "midi": 78,
      "time": 154,
      "duration": 0.25,
      "velocity": 0.71,
      "hand": "right"
    },
    {
      "midi": 77,
      "time": 154.25,
      "duration": 0.25,
      "velocity": 0.71,
      "hand": "right"
    },
    {
      "midi": 36,
      "time": 154.5,
      "duration": 0.5,
      "velocity": 0.26,
      "hand": "left"
    },
    {
      "midi": 70,
      "time": 154.5,
      "duration": 0.5,
      "velocity": 0.71,
      "hand": "right"
    },
    {
      "midi": 77,
      "time": 154.5,
      "duration": 0.5,
      "velocity": 0.71,
      "hand": "right"
    },
    {
      "midi": 54,
      "time": 155,
      "duration": 0.5,
      "velocity": 0.26,
      "hand": "left"
    },
    {
      "midi": 63,
      "time": 155,
      "duration": 0.5,
      "velocity": 0.26,
      "hand": "right"
    },
    {
      "midi": 72,
      "time": 155,
      "duration": 0.25,
      "velocity": 0.71,
      "hand": "right"
    },
    {
      "midi": 75,
      "time": 155,
      "duration": 0.25,
      "velocity": 0.71,
      "hand": "right"
    },
    {
      "midi": 73,
      "time": 155.25,
      "duration": 0.25,
      "velocity": 0.71,
      "hand": "right"
    },
    {
      "midi": 77,
      "time": 155.25,
      "duration": 0.25,
      "velocity": 0.71,
      "hand": "right"
    },
    {
      "midi": 70,
      "time": 155.5,
      "duration": 0.25,
      "velocity": 0.71,
      "hand": "right"
    },
    {
      "midi": 80,
      "time": 155.5,
      "duration": 0.25,
      "velocity": 0.71,
      "hand": "right"
    },
    {
      "midi": 72,
      "time": 155.75,
      "duration": 0.25,
      "velocity": 0.71,
      "hand": "right"
    },
    {
      "midi": 78,
      "time": 155.75,
      "duration": 0.25,
      "velocity": 0.71,
      "hand": "right"
    },
    {
      "midi": 41,
      "time": 156,
      "duration": 0.5,
      "velocity": 0.26,
      "hand": "left"
    },
    {
      "midi": 63,
      "time": 156,
      "duration": 0.5,
      "velocity": 0.71,
      "hand": "right"
    },
    {
      "midi": 69,
      "time": 156,
      "duration": 0.5,
      "velocity": 0.71,
      "hand": "right"
    },
    {
      "midi": 63,
      "time": 156.5,
      "duration": 0.25,
      "velocity": 0.26,
      "hand": "right"
    },
    {
      "midi": 66,
      "time": 156.5,
      "duration": 1.5,
      "velocity": 0.71,
      "hand": "right"
    },
    {
      "midi": 69,
      "time": 156.5,
      "duration": 2,
      "velocity": 0.71,
      "hand": "right"
    },
    {
      "midi": 72,
      "time": 156.5,
      "duration": 0.25,
      "velocity": 0.71,
      "hand": "right"
    },
    {
      "midi": 53,
      "time": 156.75,
      "duration": 0.25,
      "velocity": 0.26,
      "hand": "left"
    },
    {
      "midi": 73,
      "time": 156.75,
      "duration": 0.25,
      "velocity": 0.71,
      "hand": "right"
    },
    {
      "midi": 63,
      "time": 157,
      "duration": 0.25,
      "velocity": 0.26,
      "hand": "right"
    },
    {
      "midi": 72,
      "time": 157,
      "duration": 0.25,
      "velocity": 0.71,
      "hand": "right"
    },
    {
      "midi": 61,
      "time": 157.25,
      "duration": 0.25,
      "velocity": 0.26,
      "hand": "right"
    },
    {
      "midi": 73,
      "time": 157.25,
      "duration": 0.25,
      "velocity": 0.71,
      "hand": "right"
    },
    {
      "midi": 60,
      "time": 157.5,
      "duration": 1,
      "velocity": 0.26,
      "hand": "right"
    },
    {
      "midi": 75,
      "time": 157.5,
      "duration": 1,
      "velocity": 0.71,
      "hand": "right"
    },
    {
      "midi": 65,
      "time": 158,
      "duration": 1,
      "velocity": 0.71,
      "hand": "right"
    },
    {
      "midi": 58,
      "time": 158.5,
      "duration": 0.5,
      "velocity": 0.26,
      "hand": "left"
    },
    {
      "midi": 70,
      "time": 158.5,
      "duration": 0.5,
      "velocity": 0.71,
      "hand": "right"
    },
    {
      "midi": 73,
      "time": 158.5,
      "duration": 0.5,
      "velocity": 0.71,
      "hand": "right"
    },
    {
      "midi": 58,
      "time": 159,
      "duration": 0.5,
      "velocity": 0.26,
      "hand": "left"
    },
    {
      "midi": 65,
      "time": 159,
      "duration": 0.5,
      "velocity": 0.71,
      "hand": "right"
    },
    {
      "midi": 70,
      "time": 159,
      "duration": 0.5,
      "velocity": 0.71,
      "hand": "right"
    },
    {
      "midi": 73,
      "time": 159,
      "duration": 0.5,
      "velocity": 0.71,
      "hand": "right"
    },
    {
      "midi": 64,
      "time": 159.5,
      "duration": 0.25,
      "velocity": 0.26,
      "hand": "right"
    },
    {
      "midi": 67,
      "time": 159.5,
      "duration": 1.5,
      "velocity": 0.71,
      "hand": "right"
    },
    {
      "midi": 70,
      "time": 159.5,
      "duration": 0.25,
      "velocity": 0.71,
      "hand": "right"
    },
    {
      "midi": 73,
      "time": 159.5,
      "duration": 0.25,
      "velocity": 0.71,
      "hand": "right"
    },
    {
      "midi": 53,
      "time": 159.75,
      "duration": 0.25,
      "velocity": 0.26,
      "hand": "left"
    },
    {
      "midi": 72,
      "time": 159.75,
      "duration": 0.25,
      "velocity": 0.71,
      "hand": "right"
    },
    {
      "midi": 75,
      "time": 159.75,
      "duration": 0.25,
      "velocity": 0.71,
      "hand": "right"
    },
    {
      "midi": 64,
      "time": 160,
      "duration": 0.25,
      "velocity": 0.26,
      "hand": "right"
    },
    {
      "midi": 70,
      "time": 160,
      "duration": 0.25,
      "velocity": 0.71,
      "hand": "right"
    },
    {
      "midi": 73,
      "time": 160,
      "duration": 0.25,
      "velocity": 0.71,
      "hand": "right"
    },
    {
      "midi": 63,
      "time": 160.25,
      "duration": 0.25,
      "velocity": 0.26,
      "hand": "right"
    },
    {
      "midi": 72,
      "time": 160.25,
      "duration": 0.25,
      "velocity": 0.71,
      "hand": "right"
    },
    {
      "midi": 75,
      "time": 160.25,
      "duration": 0.25,
      "velocity": 0.71,
      "hand": "right"
    },
    {
      "midi": 61,
      "time": 160.5,
      "duration": 1,
      "velocity": 0.26,
      "hand": "right"
    },
    {
      "midi": 70,
      "time": 160.5,
      "duration": 1,
      "velocity": 0.71,
      "hand": "right"
    },
    {
      "midi": 76,
      "time": 160.5,
      "duration": 1,
      "velocity": 0.71,
      "hand": "right"
    },
    {
      "midi": 66,
      "time": 161,
      "duration": 1,
      "velocity": 0.71,
      "hand": "right"
    },
    {
      "midi": 60,
      "time": 161.5,
      "duration": 0.5,
      "velocity": 0.26,
      "hand": "right"
    },
    {
      "midi": 70,
      "time": 161.5,
      "duration": 0.5,
      "velocity": 0.71,
      "hand": "right"
    },
    {
      "midi": 75,
      "time": 161.5,
      "duration": 0.5,
      "velocity": 0.71,
      "hand": "right"
    },
    {
      "midi": 60,
      "time": 162,
      "duration": 0.5,
      "velocity": 0.26,
      "hand": "right"
    },
    {
      "midi": 66,
      "time": 162,
      "duration": 0.5,
      "velocity": 0.71,
      "hand": "right"
    },
    {
      "midi": 70,
      "time": 162,
      "duration": 0.5,
      "velocity": 0.71,
      "hand": "right"
    },
    {
      "midi": 75,
      "time": 162,
      "duration": 0.5,
      "velocity": 0.71,
      "hand": "right"
    },
    {
      "midi": 75,
      "time": 162.5,
      "duration": 0.25,
      "velocity": 0.71,
      "hand": "right"
    },
    {
      "midi": 77,
      "time": 162.75,
      "duration": 0.25,
      "velocity": 0.71,
      "hand": "right"
    },
    {
      "midi": 75,
      "time": 163,
      "duration": 0.25,
      "velocity": 0.71,
      "hand": "right"
    },
    {
      "midi": 77,
      "time": 163.25,
      "duration": 0.25,
      "velocity": 0.71,
      "hand": "right"
    },
    {
      "midi": 78,
      "time": 163.5,
      "duration": 0.5,
      "velocity": 0.71,
      "hand": "right"
    },
    {
      "midi": 78,
      "time": 164,
      "duration": 0.5,
      "velocity": 0.71,
      "hand": "right"
    },
    {
      "midi": 78,
      "time": 164.5,
      "duration": 0.5,
      "velocity": 0.71,
      "hand": "right"
    },
    {
      "midi": 78,
      "time": 165,
      "duration": 2,
      "velocity": 0.71,
      "hand": "right"
    },
    {
      "midi": 41,
      "time": 166.5,
      "duration": 0.5,
      "velocity": 0.26,
      "hand": "left"
    },
    {
      "midi": 63,
      "time": 167,
      "duration": 0.5,
      "velocity": 0.26,
      "hand": "right"
    },
    {
      "midi": 69,
      "time": 167,
      "duration": 0.5,
      "velocity": 0.26,
      "hand": "right"
    },
    {
      "midi": 77,
      "time": 167,
      "duration": 0.25,
      "velocity": 0.71,
      "hand": "right"
    },
    {
      "midi": 72,
      "time": 167.25,
      "duration": 0.25,
      "velocity": 0.71,
      "hand": "right"
    },
    {
      "midi": 57,
      "time": 167.5,
      "duration": 0.5,
      "velocity": 0.26,
      "hand": "left"
    },
    {
      "midi": 63,
      "time": 167.5,
      "duration": 0.5,
      "velocity": 0.26,
      "hand": "right"
    },
    {
      "midi": 65,
      "time": 167.5,
      "duration": 0.5,
      "velocity": 0.26,
      "hand": "right"
    },
    {
      "midi": 75,
      "time": 167.5,
      "duration": 0.25,
      "velocity": 0.71,
      "hand": "right"
    },
    {
      "midi": 73,
      "time": 167.75,
      "duration": 0.25,
      "velocity": 0.71,
      "hand": "right"
    },
    {
      "midi": 46,
      "time": 168,
      "duration": 0.5,
      "velocity": 0.26,
      "hand": "left"
    },
    {
      "midi": 70,
      "time": 168,
      "duration": 1.5,
      "velocity": 0.71,
      "hand": "right"
    },
    {
      "midi": 58,
      "time": 168.5,
      "duration": 0.5,
      "velocity": 0.26,
      "hand": "left"
    },
    {
      "midi": 61,
      "time": 168.5,
      "duration": 0.5,
      "velocity": 0.26,
      "hand": "right"
    },
    {
      "midi": 65,
      "time": 168.5,
      "duration": 0.5,
      "velocity": 0.26,
      "hand": "right"
    },
    {
      "midi": 53,
      "time": 169,
      "duration": 0.5,
      "velocity": 0.26,
      "hand": "left"
    },
    {
      "midi": 58,
      "time": 169,
      "duration": 0.5,
      "velocity": 0.26,
      "hand": "left"
    },
    {
      "midi": 61,
      "time": 169,
      "duration": 0.5,
      "velocity": 0.26,
      "hand": "right"
    },
    {
      "midi": 48,
      "time": 169.5,
      "duration": 0.5,
      "velocity": 0.26,
      "hand": "left"
    },
    {
      "midi": 67,
      "time": 169.5,
      "duration": 0.5,
      "velocity": 0.71,
      "hand": "right"
    },
    {
      "midi": 58,
      "time": 170,
      "duration": 0.5,
      "velocity": 0.26,
      "hand": "left"
    },
    {
      "midi": 60,
      "time": 170,
      "duration": 0.5,
      "velocity": 0.26,
      "hand": "right"
    },
    {
      "midi": 64,
      "time": 170,
      "duration": 0.5,
      "velocity": 0.26,
      "hand": "right"
    },
    {
      "midi": 52,
      "time": 170.5,
      "duration": 0.5,
      "velocity": 0.26,
      "hand": "left"
    },
    {
      "midi": 58,
      "time": 170.5,
      "duration": 0.5,
      "velocity": 0.26,
      "hand": "left"
    },
    {
      "midi": 60,
      "time": 170.5,
      "duration": 0.5,
      "velocity": 0.26,
      "hand": "right"
    },
    {
      "midi": 41,
      "time": 171,
      "duration": 0.5,
      "velocity": 0.26,
      "hand": "left"
    },
    {
      "midi": 68,
      "time": 171.25,
      "duration": 0.25,
      "velocity": 0.71,
      "hand": "right"
    },
    {
      "midi": 53,
      "time": 171.5,
      "duration": 0.5,
      "velocity": 0.26,
      "hand": "left"
    },
    {
      "midi": 56,
      "time": 171.5,
      "duration": 0.5,
      "velocity": 0.26,
      "hand": "left"
    },
    {
      "midi": 60,
      "time": 171.5,
      "duration": 0.5,
      "velocity": 0.26,
      "hand": "right"
    },
    {
      "midi": 68,
      "time": 171.5,
      "duration": 0.25,
      "velocity": 0.71,
      "hand": "right"
    },
    {
      "midi": 72,
      "time": 171.5,
      "duration": 0.5,
      "velocity": 0.71,
      "hand": "right"
    },
    {
      "midi": 67,
      "time": 171.75,
      "duration": 0.25,
      "velocity": 0.71,
      "hand": "right"
    },
    {
      "midi": 56,
      "time": 172,
      "duration": 0.5,
      "velocity": 0.26,
      "hand": "left"
    },
    {
      "midi": 60,
      "time": 172,
      "duration": 0.5,
      "velocity": 0.26,
      "hand": "right"
    },
    {
      "midi": 67,
      "time": 172,
      "duration": 0.25,
      "velocity": 0.71,
      "hand": "right"
    },
    {
      "midi": 68,
      "time": 172,
      "duration": 0.5,
      "velocity": 0.26,
      "hand": "right"
    },
    {
      "midi": 72,
      "time": 172,
      "duration": 0.5,
      "velocity": 0.71,
      "hand": "right"
    },
    {
      "midi": 77,
      "time": 172,
      "duration": 0.5,
      "velocity": 0.71,
      "hand": "right"
    },
    {
      "midi": 65,
      "time": 172.25,
      "duration": 0.25,
      "velocity": 0.71,
      "hand": "right"
    },
    {
      "midi": 41,
      "time": 172.5,
      "duration": 0.5,
      "velocity": 0.26,
      "hand": "left"
    },
    {
      "midi": 49,
      "time": 172.5,
      "duration": 0.5,
      "velocity": 0.26,
      "hand": "left"
    },
    {
      "midi": 55,
      "time": 172.5,
      "duration": 0.5,
      "velocity": 0.26,
      "hand": "left"
    },
    {
      "midi": 70,
      "time": 172.5,
      "duration": 0.25,
      "velocity": 0.71,
      "hand": "right"
    },
    {
      "midi": 73,
      "time": 172.5,
      "duration": 0.25,
      "velocity": 0.71,
      "hand": "right"
    },
    {
      "midi": 76,
      "time": 172.5,
      "duration": 0.5,
      "velocity": 0.71,
      "hand": "right"
    },
    {
      "midi": 68,
      "time": 172.75,
      "duration": 0.25,
      "velocity": 0.71,
      "hand": "right"
    },
    {
      "midi": 53,
      "time": 173,
      "duration": 0.5,
      "velocity": 0.26,
      "hand": "left"
    },
    {
      "midi": 58,
      "time": 173,
      "duration": 0.5,
      "velocity": 0.26,
      "hand": "left"
    },
    {
      "midi": 61,
      "time": 173,
      "duration": 0.5,
      "velocity": 0.26,
      "hand": "right"
    },
    {
      "midi": 67,
      "time": 173,
      "duration": 0.25,
      "velocity": 0.71,
      "hand": "right"
    },
    {
      "midi": 70,
      "time": 173,
      "duration": 0.5,
      "velocity": 0.71,
      "hand": "right"
    },
    {
      "midi": 65,
      "time": 173.25,
      "duration": 0.25,
      "velocity": 0.71,
      "hand": "right"
    },
    {
      "midi": 58,
      "time": 173.5,
      "duration": 0.5,
      "velocity": 0.26,
      "hand": "left"
    },
    {
      "midi": 61,
      "time": 173.5,
      "duration": 0.5,
      "velocity": 0.26,
      "hand": "right"
    },
    {
      "midi": 64,
      "time": 173.5,
      "duration": 0.25,
      "velocity": 0.71,
      "hand": "right"
    },
    {
      "midi": 67,
      "time": 173.5,
      "duration": 0.5,
      "velocity": 0.26,
      "hand": "right"
    },
    {
      "midi": 73,
      "time": 173.5,
      "duration": 1,
      "velocity": 0.71,
      "hand": "right"
    },
    {
      "midi": 70,
      "time": 173.75,
      "duration": 0.25,
      "velocity": 0.71,
      "hand": "right"
    },
    {
      "midi": 41,
      "time": 174,
      "duration": 0.5,
      "velocity": 0.26,
      "hand": "left"
    },
    {
      "midi": 53,
      "time": 174,
      "duration": 0.5,
      "velocity": 0.26,
      "hand": "left"
    },
    {
      "midi": 70,
      "time": 174,
      "duration": 0.25,
      "velocity": 0.71,
      "hand": "right"
    },
    {
      "midi": 68,
      "time": 174.25,
      "duration": 0.25,
      "velocity": 0.71,
      "hand": "right"
    },
    {
      "midi": 53,
      "time": 174.5,
      "duration": 0.5,
      "velocity": 0.26,
      "hand": "left"
    },
    {
      "midi": 56,
      "time": 174.5,
      "duration": 0.5,
      "velocity": 0.26,
      "hand": "left"
    },
    {
      "midi": 60,
      "time": 174.5,
      "duration": 0.5,
      "velocity": 0.26,
      "hand": "right"
    },
    {
      "midi": 68,
      "time": 174.5,
      "duration": 0.25,
      "velocity": 0.71,
      "hand": "right"
    },
    {
      "midi": 72,
      "time": 174.5,
      "duration": 0.5,
      "velocity": 0.71,
      "hand": "right"
    },
    {
      "midi": 67,
      "time": 174.75,
      "duration": 0.25,
      "velocity": 0.71,
      "hand": "right"
    },
    {
      "midi": 56,
      "time": 175,
      "duration": 0.5,
      "velocity": 0.26,
      "hand": "left"
    },
    {
      "midi": 60,
      "time": 175,
      "duration": 0.5,
      "velocity": 0.26,
      "hand": "right"
    },
    {
      "midi": 67,
      "time": 175,
      "duration": 0.25,
      "velocity": 0.71,
      "hand": "right"
    },
    {
      "midi": 68,
      "time": 175,
      "duration": 0.5,
      "velocity": 0.26,
      "hand": "right"
    },
    {
      "midi": 72,
      "time": 175,
      "duration": 0.5,
      "velocity": 0.71,
      "hand": "right"
    },
    {
      "midi": 77,
      "time": 175,
      "duration": 0.5,
      "velocity": 0.71,
      "hand": "right"
    },
    {
      "midi": 65,
      "time": 175.25,
      "duration": 0.25,
      "velocity": 0.71,
      "hand": "right"
    },
    {
      "midi": 41,
      "time": 175.5,
      "duration": 0.5,
      "velocity": 0.26,
      "hand": "left"
    },
    {
      "midi": 48,
      "time": 175.5,
      "duration": 0.5,
      "velocity": 0.26,
      "hand": "left"
    },
    {
      "midi": 55,
      "time": 175.5,
      "duration": 0.5,
      "velocity": 0.26,
      "hand": "left"
    },
    {
      "midi": 70,
      "time": 175.5,
      "duration": 0.25,
      "velocity": 0.71,
      "hand": "right"
    },
    {
      "midi": 73,
      "time": 175.5,
      "duration": 0.25,
      "velocity": 0.71,
      "hand": "right"
    },
    {
      "midi": 76,
      "time": 175.5,
      "duration": 0.5,
      "velocity": 0.71,
      "hand": "right"
    },
    {
      "midi": 68,
      "time": 175.75,
      "duration": 0.25,
      "velocity": 0.71,
      "hand": "right"
    },
    {
      "midi": 72,
      "time": 175.75,
      "duration": 0.25,
      "velocity": 0.71,
      "hand": "right"
    },
    {
      "midi": 53,
      "time": 176,
      "duration": 0.5,
      "velocity": 0.26,
      "hand": "left"
    },
    {
      "midi": 58,
      "time": 176,
      "duration": 0.5,
      "velocity": 0.26,
      "hand": "left"
    },
    {
      "midi": 61,
      "time": 176,
      "duration": 0.5,
      "velocity": 0.26,
      "hand": "right"
    },
    {
      "midi": 67,
      "time": 176,
      "duration": 0.25,
      "velocity": 0.71,
      "hand": "right"
    },
    {
      "midi": 70,
      "time": 176,
      "duration": 0.5,
      "velocity": 0.71,
      "hand": "right"
    },
    {
      "midi": 65,
      "time": 176.25,
      "duration": 0.25,
      "velocity": 0.71,
      "hand": "right"
    },
    {
      "midi": 68,
      "time": 176.25,
      "duration": 0.25,
      "velocity": 0.71,
      "hand": "right"
    },
    {
      "midi": 58,
      "time": 176.5,
      "duration": 0.5,
      "velocity": 0.26,
      "hand": "left"
    },
    {
      "midi": 61,
      "time": 176.5,
      "duration": 0.5,
      "velocity": 0.26,
      "hand": "right"
    },
    {
      "midi": 64,
      "time": 176.5,
      "duration": 0.25,
      "velocity": 0.71,
      "hand": "right"
    },
    {
      "midi": 67,
      "time": 176.5,
      "duration": 0.25,
      "velocity": 0.71,
      "hand": "right"
    },
    {
      "midi": 67,
      "time": 176.5,
      "duration": 0.5,
      "velocity": 0.26,
      "hand": "right"
    },
    {
      "midi": 73,
      "time": 176.5,
      "duration": 0.5,
      "velocity": 0.71,
      "hand": "right"
    },
    {
      "midi": 65,
      "time": 176.75,
      "duration": 0.25,
      "velocity": 0.71,
      "hand": "right"
    },
    {
      "midi": 70,
      "time": 176.75,
      "duration": 0.25,
      "velocity": 0.71,
      "hand": "right"
    },
    {
      "midi": 41,
      "time": 177,
      "duration": 0.5,
      "velocity": 0.71,
      "hand": "left"
    },
    {
      "midi": 48,
      "time": 177,
      "duration": 0.5,
      "velocity": 0.71,
      "hand": "left"
    },
    {
      "midi": 60,
      "time": 177,
      "duration": 0.5,
      "velocity": 0.71,
      "hand": "right"
    },
    {
      "midi": 67,
      "time": 177,
      "duration": 0.25,
      "velocity": 0.71,
      "hand": "right"
    },
    {
      "midi": 70,
      "time": 177,
      "duration": 0.25,
      "velocity": 0.71,
      "hand": "right"
    },
    {
      "midi": 72,
      "time": 177,
      "duration": 0.5,
      "velocity": 0.71,
      "hand": "right"
    },
    {
      "midi": 65,
      "time": 177.25,
      "duration": 0.25,
      "velocity": 0.71,
      "hand": "right"
    },
    {
      "midi": 68,
      "time": 177.25,
      "duration": 0.25,
      "velocity": 0.71,
      "hand": "right"
    },
    {
      "midi": 48,
      "time": 177.5,
      "duration": 0.5,
      "velocity": 0.71,
      "hand": "left"
    },
    {
      "midi": 53,
      "time": 177.5,
      "duration": 0.5,
      "velocity": 0.71,
      "hand": "left"
    },
    {
      "midi": 56,
      "time": 177.5,
      "duration": 0.5,
      "velocity": 0.71,
      "hand": "left"
    },
    {
      "midi": 60,
      "time": 177.5,
      "duration": 0.5,
      "velocity": 0.71,
      "hand": "right"
    },
    {
      "midi": 65,
      "time": 177.5,
      "duration": 0.5,
      "velocity": 0.71,
      "hand": "right"
    },
    {
      "midi": 68,
      "time": 177.5,
      "duration": 0.25,
      "velocity": 0.71,
      "hand": "right"
    },
    {
      "midi": 72,
      "time": 177.5,
      "duration": 0.25,
      "velocity": 0.71,
      "hand": "right"
    },
    {
      "midi": 70,
      "time": 177.75,
      "duration": 0.25,
      "velocity": 0.71,
      "hand": "right"
    },
    {
      "midi": 73,
      "time": 177.75,
      "duration": 0.25,
      "velocity": 0.71,
      "hand": "right"
    },
    {
      "midi": 40,
      "time": 178,
      "duration": 0.5,
      "velocity": 0.71,
      "hand": "left"
    },
    {
      "midi": 52,
      "time": 178,
      "duration": 0.5,
      "velocity": 0.71,
      "hand": "left"
    },
    {
      "midi": 64,
      "time": 178,
      "duration": 0.5,
      "velocity": 0.71,
      "hand": "right"
    },
    {
      "midi": 68,
      "time": 178,
      "duration": 0.25,
      "velocity": 0.71,
      "hand": "right"
    },
    {
      "midi": 72,
      "time": 178,
      "duration": 0.25,
      "velocity": 0.71,
      "hand": "right"
    },
    {
      "midi": 70,
      "time": 178.25,
      "duration": 0.25,
      "velocity": 0.71,
      "hand": "right"
    },
    {
      "midi": 73,
      "time": 178.25,
      "duration": 0.25,
      "velocity": 0.71,
      "hand": "right"
    },
    {
      "midi": 39,
      "time": 178.5,
      "duration": 0.5,
      "velocity": 0.71,
      "hand": "left"
    },
    {
      "midi": 51,
      "time": 178.5,
      "duration": 0.5,
      "velocity": 0.71,
      "hand": "left"
    },
    {
      "midi": 63,
      "time": 178.5,
      "duration": 0.5,
      "velocity": 0.71,
      "hand": "right"
    },
    {
      "midi": 68,
      "time": 178.5,
      "duration": 0.25,
      "velocity": 0.71,
      "hand": "right"
    },
    {
      "midi": 72,
      "time": 178.5,
      "duration": 0.25,
      "velocity": 0.71,
      "hand": "right"
    },
    {
      "midi": 75,
      "time": 178.5,
      "duration": 0.5,
      "velocity": 0.71,
      "hand": "right"
    },
    {
      "midi": 61,
      "time": 178.75,
      "duration": 0.25,
      "velocity": 0.71,
      "hand": "right"
    },
    {
      "midi": 70,
      "time": 178.75,
      "duration": 0.25,
      "velocity": 0.71,
      "hand": "right"
    },
    {
      "midi": 51,
      "time": 179,
      "duration": 0.5,
      "velocity": 0.71,
      "hand": "left"
    },
    {
      "midi": 61,
      "time": 179,
      "duration": 0.25,
      "velocity": 0.71,
      "hand": "right"
    },
    {
      "midi": 63,
      "time": 179,
      "duration": 0.5,
      "velocity": 0.71,
      "hand": "right"
    },
    {
      "midi": 70,
      "time": 179,
      "duration": 0.25,
      "velocity": 0.71,
      "hand": "right"
    },
    {
      "midi": 75,
      "time": 179,
      "duration": 0.5,
      "velocity": 0.71,
      "hand": "right"
    },
    {
      "midi": 60,
      "time": 179.25,
      "duration": 0.25,
      "velocity": 0.71,
      "hand": "right"
    },
    {
      "midi": 68,
      "time": 179.25,
      "duration": 0.25,
      "velocity": 0.71,
      "hand": "right"
    },
    {
      "midi": 51,
      "time": 179.5,
      "duration": 0.5,
      "velocity": 0.71,
      "hand": "left"
    },
    {
      "midi": 60,
      "time": 179.5,
      "duration": 0.25,
      "velocity": 0.71,
      "hand": "right"
    },
    {
      "midi": 63,
      "time": 179.5,
      "duration": 0.5,
      "velocity": 0.71,
      "hand": "right"
    },
    {
      "midi": 68,
      "time": 179.5,
      "duration": 0.25,
      "velocity": 0.71,
      "hand": "right"
    },
    {
      "midi": 75,
      "time": 179.5,
      "duration": 0.5,
      "velocity": 0.71,
      "hand": "right"
    },
    {
      "midi": 58,
      "time": 179.75,
      "duration": 0.25,
      "velocity": 0.71,
      "hand": "left"
    },
    {
      "midi": 67,
      "time": 179.75,
      "duration": 0.25,
      "velocity": 0.71,
      "hand": "right"
    },
    {
      "midi": 39,
      "time": 180,
      "duration": 0.5,
      "velocity": 0.71,
      "hand": "left"
    },
    {
      "midi": 61,
      "time": 180,
      "duration": 0.5,
      "velocity": 0.71,
      "hand": "right"
    },
    {
      "midi": 67,
      "time": 180,
      "duration": 0.25,
      "velocity": 0.71,
      "hand": "right"
    },
    {
      "midi": 75,
      "time": 180,
      "duration": 0.5,
      "velocity": 0.71,
      "hand": "right"
    },
    {
      "midi": 51,
      "time": 180.25,
      "duration": 0.25,
      "velocity": 0.71,
      "hand": "left"
    },
    {
      "midi": 65,
      "time": 180.25,
      "duration": 0.25,
      "velocity": 0.71,
      "hand": "right"
    },
    {
      "midi": 58,
      "time": 180.5,
      "duration": 0.25,
      "velocity": 0.71,
      "hand": "left"
    },
    {
      "midi": 65,
      "time": 180.5,
      "duration": 0.25,
      "velocity": 0.71,
      "hand": "right"
    },
    {
      "midi": 73,
      "time": 180.5,
      "duration": 0.25,
      "velocity": 0.71,
      "hand": "right"
    },
    {
      "midi": 63,
      "time": 180.75,
      "duration": 0.25,
      "velocity": 0.71,
      "hand": "right"
    },
    {
      "midi": 67,
      "time": 180.75,
      "duration": 0.25,
      "velocity": 0.71,
      "hand": "right"
    },
    {
      "midi": 72,
      "time": 180.75,
      "duration": 0.25,
      "velocity": 0.71,
      "hand": "right"
    },
    {
      "midi": 61,
      "time": 181,
      "duration": 0.25,
      "velocity": 0.71,
      "hand": "right"
    },
    {
      "midi": 65,
      "time": 181,
      "duration": 0.25,
      "velocity": 0.71,
      "hand": "right"
    },
    {
      "midi": 70,
      "time": 181,
      "duration": 0.25,
      "velocity": 0.71,
      "hand": "right"
    },
    {
      "midi": 63,
      "time": 181.25,
      "duration": 0.25,
      "velocity": 0.71,
      "hand": "right"
    },
    {
      "midi": 67,
      "time": 181.25,
      "duration": 0.25,
      "velocity": 0.71,
      "hand": "right"
    },
    {
      "midi": 72,
      "time": 181.25,
      "duration": 0.25,
      "velocity": 0.71,
      "hand": "right"
    },
    {
      "midi": 56,
      "time": 181.5,
      "duration": 0.75,
      "velocity": 0.71,
      "hand": "left"
    },
    {
      "midi": 61,
      "time": 181.5,
      "duration": 0.25,
      "velocity": 0.71,
      "hand": "right"
    },
    {
      "midi": 65,
      "time": 181.5,
      "duration": 0.25,
      "velocity": 0.71,
      "hand": "right"
    },
    {
      "midi": 68,
      "time": 181.5,
      "duration": 0.5,
      "velocity": 0.71,
      "hand": "right"
    },
    {
      "midi": 60,
      "time": 181.75,
      "duration": 0.25,
      "velocity": 0.71,
      "hand": "right"
    },
    {
      "midi": 63,
      "time": 181.75,
      "duration": 0.25,
      "velocity": 0.71,
      "hand": "right"
    },
    {
      "midi": 60,
      "time": 182,
      "duration": 0.25,
      "velocity": 0.71,
      "hand": "right"
    },
    {
      "midi": 63,
      "time": 182,
      "duration": 0.25,
      "velocity": 0.71,
      "hand": "right"
    },
    {
      "midi": 53,
      "time": 182.25,
      "duration": 0.25,
      "velocity": 0.71,
      "hand": "left"
    },
    {
      "midi": 59,
      "time": 182.25,
      "duration": 0.25,
      "velocity": 0.71,
      "hand": "left"
    },
    {
      "midi": 62,
      "time": 182.25,
      "duration": 0.25,
      "velocity": 0.71,
      "hand": "right"
    },
    {
      "midi": 53,
      "time": 182.5,
      "duration": 0.25,
      "velocity": 0.71,
      "hand": "left"
    },
    {
      "midi": 59,
      "time": 182.5,
      "duration": 0.25,
      "velocity": 0.71,
      "hand": "left"
    },
    {
      "midi": 62,
      "time": 182.5,
      "duration": 0.25,
      "velocity": 0.71,
      "hand": "right"
    },
    {
      "midi": 52,
      "time": 182.75,
      "duration": 0.25,
      "velocity": 0.71,
      "hand": "left"
    },
    {
      "midi": 56,
      "time": 182.75,
      "duration": 0.25,
      "velocity": 0.71,
      "hand": "left"
    },
    {
      "midi": 61,
      "time": 182.75,
      "duration": 0.25,
      "velocity": 0.71,
      "hand": "right"
    },
    {
      "midi": 52,
      "time": 183,
      "duration": 0.25,
      "velocity": 0.71,
      "hand": "left"
    },
    {
      "midi": 56,
      "time": 183,
      "duration": 0.75,
      "velocity": 0.71,
      "hand": "left"
    },
    {
      "midi": 61,
      "time": 183,
      "duration": 0.25,
      "velocity": 0.71,
      "hand": "right"
    },
    {
      "midi": 51,
      "time": 183.25,
      "duration": 0.25,
      "velocity": 0.71,
      "hand": "left"
    },
    {
      "midi": 60,
      "time": 183.25,
      "duration": 0.25,
      "velocity": 0.71,
      "hand": "right"
    },
    {
      "midi": 51,
      "time": 183.5,
      "duration": 0.25,
      "velocity": 0.71,
      "hand": "left"
    },
    {
      "midi": 60,
      "time": 183.5,
      "duration": 0.25,
      "velocity": 0.71,
      "hand": "right"
    },
    {
      "midi": 37,
      "time": 183.75,
      "duration": 0.25,
      "velocity": 0.71,
      "hand": "left"
    },
    {
      "midi": 49,
      "time": 183.75,
      "duration": 0.25,
      "velocity": 0.71,
      "hand": "left"
    },
    {
      "midi": 65,
      "time": 183.75,
      "duration": 0.25,
      "velocity": 0.71,
      "hand": "right"
    },
    {
      "midi": 36,
      "time": 184,
      "duration": 0.25,
      "velocity": 0.71,
      "hand": "left"
    },
    {
      "midi": 48,
      "time": 184,
      "duration": 0.25,
      "velocity": 0.71,
      "hand": "left"
    },
    {
      "midi": 63,
      "time": 184,
      "duration": 0.25,
      "velocity": 0.71,
      "hand": "right"
    },
    {
      "midi": 34,
      "time": 184.25,
      "duration": 0.25,
      "velocity": 0.71,
      "hand": "left"
    },
    {
      "midi": 46,
      "time": 184.25,
      "duration": 0.25,
      "velocity": 0.71,
      "hand": "left"
    },
    {
      "midi": 61,
      "time": 184.25,
      "duration": 0.25,
      "velocity": 0.71,
      "hand": "right"
    },
    {
      "midi": 67,
      "time": 184.25,
      "duration": 0.25,
      "velocity": 0.71,
      "hand": "right"
    },
    {
      "midi": 70,
      "time": 184.25,
      "duration": 0.25,
      "velocity": 0.71,
      "hand": "right"
    },
    {
      "midi": 32,
      "time": 184.5,
      "duration": 0.5,
      "velocity": 0.71,
      "hand": "left"
    },
    {
      "midi": 44,
      "time": 184.5,
      "duration": 0.5,
      "velocity": 0.71,
      "hand": "left"
    },
    {
      "midi": 60,
      "time": 184.5,
      "duration": 0.5,
      "velocity": 0.71,
      "hand": "right"
    },
    {
      "midi": 70,
      "time": 184.5,
      "duration": 0.25,
      "velocity": 0.71,
      "hand": "right"
    },
    {
      "midi": 72,
      "time": 184.5,
      "duration": 0.5,
      "velocity": 0.71,
      "hand": "right"
    },
    {
      "midi": 63,
      "time": 184.75,
      "duration": 0.25,
      "velocity": 0.71,
      "hand": "right"
    },
    {
      "midi": 51,
      "time": 185,
      "duration": 0.5,
      "velocity": 0.71,
      "hand": "left"
    },
    {
      "midi": 56,
      "time": 185,
      "duration": 0.5,
      "velocity": 0.71,
      "hand": "left"
    },
    {
      "midi": 60,
      "time": 185,
      "duration": 0.5,
      "velocity": 0.71,
      "hand": "right"
    },
    {
      "midi": 63,
      "time": 185,
      "duration": 0.25,
      "velocity": 0.71,
      "hand": "right"
    },
    {
      "midi": 72,
      "time": 185,
      "duration": 0.5,
      "velocity": 0.71,
      "hand": "right"
    },
    {
      "midi": 75,
      "time": 185,
      "duration": 0.5,
      "velocity": 0.71,
      "hand": "right"
    },
    {
      "midi": 70,
      "time": 185.25,
      "duration": 0.25,
      "velocity": 0.71,
      "hand": "right"
    },
    {
      "midi": 51,
      "time": 185.5,
      "duration": 0.5,
      "velocity": 0.71,
      "hand": "left"
    },
    {
      "midi": 56,
      "time": 185.5,
      "duration": 0.5,
      "velocity": 0.71,
      "hand": "left"
    },
    {
      "midi": 60,
      "time": 185.5,
      "duration": 0.5,
      "velocity": 0.71,
      "hand": "right"
    },
    {
      "midi": 63,
      "time": 185.5,
      "duration": 0.5,
      "velocity": 0.71,
      "hand": "right"
    },
    {
      "midi": 70,
      "time": 185.5,
      "duration": 0.25,
      "velocity": 0.71,
      "hand": "right"
    },
    {
      "midi": 72,
      "time": 185.5,
      "duration": 0.5,
      "velocity": 0.71,
      "hand": "right"
    },
    {
      "midi": 75,
      "time": 185.5,
      "duration": 0.5,
      "velocity": 0.71,
      "hand": "right"
    },
    {
      "midi": 80,
      "time": 185.5,
      "duration": 0.5,
      "velocity": 0.71,
      "hand": "right"
    },
    {
      "midi": 68,
      "time": 185.75,
      "duration": 0.25,
      "velocity": 0.71,
      "hand": "right"
    },
    {
      "midi": 44,
      "time": 186,
      "duration": 0.5,
      "velocity": 0.26,
      "hand": "left"
    },
    {
      "midi": 52,
      "time": 186,
      "duration": 0.5,
      "velocity": 0.26,
      "hand": "left"
    },
    {
      "midi": 58,
      "time": 186,
      "duration": 0.5,
      "velocity": 0.26,
      "hand": "left"
    },
    {
      "midi": 73,
      "time": 186,
      "duration": 0.25,
      "velocity": 0.71,
      "hand": "right"
    },
    {
      "midi": 76,
      "time": 186,
      "duration": 0.25,
      "velocity": 0.71,
      "hand": "right"
    },
    {
      "midi": 79,
      "time": 186,
      "duration": 0.5,
      "velocity": 0.71,
      "hand": "right"
    },
    {
      "midi": 72,
      "time": 186.25,
      "duration": 0.25,
      "velocity": 0.71,
      "hand": "right"
    },
    {
      "midi": 75,
      "time": 186.25,
      "duration": 0.25,
      "velocity": 0.71,
      "hand": "right"
    },
    {
      "midi": 52,
      "time": 186.5,
      "duration": 0.5,
      "velocity": 0.26,
      "hand": "left"
    },
    {
      "midi": 55,
      "time": 186.5,
      "duration": 0.5,
      "velocity": 0.26,
      "hand": "left"
    },
    {
      "midi": 58,
      "time": 186.5,
      "duration": 0.5,
      "velocity": 0.26,
      "hand": "left"
    },
    {
      "midi": 61,
      "time": 186.5,
      "duration": 0.5,
      "velocity": 0.26,
      "hand": "right"
    },
    {
      "midi": 70,
      "time": 186.5,
      "duration": 0.25,
      "velocity": 0.71,
      "hand": "right"
    },
    {
      "midi": 73,
      "time": 186.5,
      "duration": 0.5,
      "velocity": 0.71,
      "hand": "right"
    },
    {
      "midi": 68,
      "time": 186.75,
      "duration": 0.25,
      "velocity": 0.71,
      "hand": "right"
    },
    {
      "midi": 72,
      "time": 186.75,
      "duration": 0.25,
      "velocity": 0.71,
      "hand": "right"
    },
    {
      "midi": 55,
      "time": 187,
      "duration": 0.5,
      "velocity": 0.26,
      "hand": "left"
    },
    {
      "midi": 58,
      "time": 187,
      "duration": 0.5,
      "velocity": 0.26,
      "hand": "left"
    },
    {
      "midi": 61,
      "time": 187,
      "duration": 0.5,
      "velocity": 0.26,
      "hand": "right"
    },
    {
      "midi": 64,
      "time": 187,
      "duration": 0.5,
      "velocity": 0.26,
      "hand": "right"
    },
    {
      "midi": 67,
      "time": 187,
      "duration": 0.25,
      "velocity": 0.71,
      "hand": "right"
    },
    {
      "midi": 70,
      "time": 187,
      "duration": 0.25,
      "velocity": 0.71,
      "hand": "right"
    },
    {
      "midi": 76,
      "time": 187,
      "duration": 1,
      "velocity": 0.71,
      "hand": "right"
    },
    {
      "midi": 70,
      "time": 187.25,
      "duration": 0.25,
      "velocity": 0.71,
      "hand": "right"
    },
    {
      "midi": 73,
      "time": 187.25,
      "duration": 0.25,
      "velocity": 0.71,
      "hand": "right"
    },
    {
      "midi": 32,
      "time": 187.5,
      "duration": 0.5,
      "velocity": 0.26,
      "hand": "left"
    },
    {
      "midi": 44,
      "time": 187.5,
      "duration": 0.5,
      "velocity": 0.26,
      "hand": "left"
    },
    {
      "midi": 63,
      "time": 187.5,
      "duration": 0.5,
      "velocity": 0.71,
      "hand": "right"
    },
    {
      "midi": 73,
      "time": 187.5,
      "duration": 0.25,
      "velocity": 0.71,
      "hand": "right"
    },
    {
      "midi": 72,
      "time": 187.75,
      "duration": 0.25,
      "velocity": 0.71,
      "hand": "right"
    },
    {
      "midi": 51,
      "time": 188,
      "duration": 0.5,
      "velocity": 0.26,
      "hand": "left"
    },
    {
      "midi": 56,
      "time": 188,
      "duration": 0.5,
      "velocity": 0.26,
      "hand": "left"
    },
    {
      "midi": 60,
      "time": 188,
      "duration": 0.5,
      "velocity": 0.26,
      "hand": "right"
    },
    {
      "midi": 72,
      "time": 188,
      "duration": 0.25,
      "velocity": 0.71,
      "hand": "right"
    },
    {
      "midi": 75,
      "time": 188,
      "duration": 0.5,
      "velocity": 0.71,
      "hand": "right"
    },
    {
      "midi": 70,
      "time": 188.25,
      "duration": 0.25,
      "velocity": 0.71,
      "hand": "right"
    },
    {
      "midi": 73,
      "time": 188.25,
      "duration": 0.25,
      "velocity": 0.71,
      "hand": "right"
    },
    {
      "midi": 51,
      "time": 188.5,
      "duration": 0.5,
      "velocity": 0.26,
      "hand": "left"
    },
    {
      "midi": 56,
      "time": 188.5,
      "duration": 0.5,
      "velocity": 0.26,
      "hand": "left"
    },
    {
      "midi": 60,
      "time": 188.5,
      "duration": 0.5,
      "velocity": 0.26,
      "hand": "right"
    },
    {
      "midi": 63,
      "time": 188.5,
      "duration": 0.5,
      "velocity": 0.26,
      "hand": "right"
    },
    {
      "midi": 70,
      "time": 188.5,
      "duration": 0.25,
      "velocity": 0.71,
      "hand": "right"
    },
    {
      "midi": 73,
      "time": 188.5,
      "duration": 0.25,
      "velocity": 0.71,
      "hand": "right"
    },
    {
      "midi": 75,
      "time": 188.5,
      "duration": 0.5,
      "velocity": 0.71,
      "hand": "right"
    },
    {
      "midi": 80,
      "time": 188.5,
      "duration": 0.5,
      "velocity": 0.71,
      "hand": "right"
    },
    {
      "midi": 68,
      "time": 188.75,
      "duration": 0.25,
      "velocity": 0.71,
      "hand": "right"
    },
    {
      "midi": 72,
      "time": 188.75,
      "duration": 0.25,
      "velocity": 0.71,
      "hand": "right"
    },
    {
      "midi": 44,
      "time": 189,
      "duration": 0.5,
      "velocity": 0.26,
      "hand": "left"
    },
    {
      "midi": 52,
      "time": 189,
      "duration": 0.5,
      "velocity": 0.26,
      "hand": "left"
    },
    {
      "midi": 58,
      "time": 189,
      "duration": 0.5,
      "velocity": 0.26,
      "hand": "left"
    },
    {
      "midi": 73,
      "time": 189,
      "duration": 0.25,
      "velocity": 0.71,
      "hand": "right"
    },
    {
      "midi": 76,
      "time": 189,
      "duration": 0.25,
      "velocity": 0.71,
      "hand": "right"
    },
    {
      "midi": 79,
      "time": 189,
      "duration": 0.5,
      "velocity": 0.71,
      "hand": "right"
    },
    {
      "midi": 72,
      "time": 189.25,
      "duration": 0.25,
      "velocity": 0.71,
      "hand": "right"
    },
    {
      "midi": 75,
      "time": 189.25,
      "duration": 0.25,
      "velocity": 0.71,
      "hand": "right"
    },
    {
      "midi": 52,
      "time": 189.5,
      "duration": 0.5,
      "velocity": 0.26,
      "hand": "left"
    },
    {
      "midi": 55,
      "time": 189.5,
      "duration": 0.5,
      "velocity": 0.26,
      "hand": "left"
    },
    {
      "midi": 58,
      "time": 189.5,
      "duration": 0.5,
      "velocity": 0.26,
      "hand": "left"
    },
    {
      "midi": 61,
      "time": 189.5,
      "duration": 0.5,
      "velocity": 0.26,
      "hand": "right"
    },
    {
      "midi": 70,
      "time": 189.5,
      "duration": 0.25,
      "velocity": 0.71,
      "hand": "right"
    },
    {
      "midi": 73,
      "time": 189.5,
      "duration": 0.5,
      "velocity": 0.71,
      "hand": "right"
    },
    {
      "midi": 68,
      "time": 189.75,
      "duration": 0.25,
      "velocity": 0.71,
      "hand": "right"
    },
    {
      "midi": 72,
      "time": 189.75,
      "duration": 0.25,
      "velocity": 0.71,
      "hand": "right"
    },
    {
      "midi": 55,
      "time": 190,
      "duration": 0.5,
      "velocity": 0.26,
      "hand": "left"
    },
    {
      "midi": 58,
      "time": 190,
      "duration": 0.5,
      "velocity": 0.26,
      "hand": "left"
    },
    {
      "midi": 61,
      "time": 190,
      "duration": 0.5,
      "velocity": 0.26,
      "hand": "right"
    },
    {
      "midi": 64,
      "time": 190,
      "duration": 0.5,
      "velocity": 0.26,
      "hand": "right"
    },
    {
      "midi": 67,
      "time": 190,
      "duration": 0.25,
      "velocity": 0.71,
      "hand": "right"
    },
    {
      "midi": 70,
      "time": 190,
      "duration": 0.25,
      "velocity": 0.71,
      "hand": "right"
    },
    {
      "midi": 76,
      "time": 190,
      "duration": 0.5,
      "velocity": 0.71,
      "hand": "right"
    },
    {
      "midi": 70,
      "time": 190.25,
      "duration": 0.25,
      "velocity": 0.71,
      "hand": "right"
    },
    {
      "midi": 73,
      "time": 190.25,
      "duration": 0.25,
      "velocity": 0.71,
      "hand": "right"
    },
    {
      "midi": 32,
      "time": 190.5,
      "duration": 0.5,
      "velocity": 0.26,
      "hand": "left"
    },
    {
      "midi": 44,
      "time": 190.5,
      "duration": 0.5,
      "velocity": 0.26,
      "hand": "left"
    },
    {
      "midi": 63,
      "time": 190.5,
      "duration": 0.5,
      "velocity": 0.71,
      "hand": "right"
    },
    {
      "midi": 68,
      "time": 190.5,
      "duration": 0.25,
      "velocity": 0.71,
      "hand": "right"
    },
    {
      "midi": 72,
      "time": 190.5,
      "duration": 0.25,
      "velocity": 0.71,
      "hand": "right"
    },
    {
      "midi": 70,
      "time": 190.75,
      "duration": 0.25,
      "velocity": 0.71,
      "hand": "right"
    },
    {
      "midi": 73,
      "time": 190.75,
      "duration": 0.25,
      "velocity": 0.71,
      "hand": "right"
    },
    {
      "midi": 51,
      "time": 191,
      "duration": 0.5,
      "velocity": 0.26,
      "hand": "left"
    },
    {
      "midi": 56,
      "time": 191,
      "duration": 0.5,
      "velocity": 0.26,
      "hand": "left"
    },
    {
      "midi": 60,
      "time": 191,
      "duration": 0.5,
      "velocity": 0.26,
      "hand": "right"
    },
    {
      "midi": 63,
      "time": 191,
      "duration": 0.5,
      "velocity": 0.26,
      "hand": "right"
    },
    {
      "midi": 72,
      "time": 191,
      "duration": 0.25,
      "velocity": 0.71,
      "hand": "right"
    },
    {
      "midi": 75,
      "time": 191,
      "duration": 0.25,
      "velocity": 0.71,
      "hand": "right"
    },
    {
      "midi": 73,
      "time": 191.25,
      "duration": 0.25,
      "velocity": 0.71,
      "hand": "right"
    },
    {
      "midi": 77,
      "time": 191.25,
      "duration": 0.25,
      "velocity": 0.71,
      "hand": "right"
    },
    {
      "midi": 56,
      "time": 191.5,
      "duration": 0.5,
      "velocity": 0.26,
      "hand": "left"
    },
    {
      "midi": 60,
      "time": 191.5,
      "duration": 0.5,
      "velocity": 0.26,
      "hand": "right"
    },
    {
      "midi": 68,
      "time": 191.5,
      "duration": 0.5,
      "velocity": 0.26,
      "hand": "right"
    },
    {
      "midi": 72,
      "time": 191.5,
      "duration": 0.25,
      "velocity": 0.71,
      "hand": "right"
    },
    {
      "midi": 75,
      "time": 191.5,
      "duration": 0.25,
      "velocity": 0.71,
      "hand": "right"
    },
    {
      "midi": 73,
      "time": 191.75,
      "duration": 0.25,
      "velocity": 0.71,
      "hand": "right"
    },
    {
      "midi": 77,
      "time": 191.75,
      "duration": 0.25,
      "velocity": 0.71,
      "hand": "right"
    },
    {
      "midi": 39,
      "time": 192,
      "duration": 0.5,
      "velocity": 0.26,
      "hand": "left"
    },
    {
      "midi": 46,
      "time": 192,
      "duration": 0.5,
      "velocity": 0.26,
      "hand": "left"
    },
    {
      "midi": 51,
      "time": 192,
      "duration": 0.5,
      "velocity": 0.26,
      "hand": "left"
    },
    {
      "midi": 66,
      "time": 192,
      "duration": 0.5,
      "velocity": 0.71,
      "hand": "right"
    },
    {
      "midi": 75,
      "time": 192,
      "duration": 0.25,
      "velocity": 0.71,
      "hand": "right"
    },
    {
      "midi": 78,
      "time": 192,
      "duration": 0.5,
      "velocity": 0.71,
      "hand": "right"
    },
    {
      "midi": 77,
      "time": 192.25,
      "duration": 0.25,
      "velocity": 0.71,
      "hand": "right"
    },
    {
      "midi": 51,
      "time": 192.5,
      "duration": 0.5,
      "velocity": 0.26,
      "hand": "left"
    },
    {
      "midi": 54,
      "time": 192.5,
      "duration": 0.5,
      "velocity": 0.26,
      "hand": "left"
    },
    {
      "midi": 58,
      "time": 192.5,
      "duration": 0.5,
      "velocity": 0.26,
      "hand": "left"
    },
    {
      "midi": 60,
      "time": 192.5,
      "duration": 0.5,
      "velocity": 0.26,
      "hand": "right"
    },
    {
      "midi": 66,
      "time": 192.5,
      "duration": 0.5,
      "velocity": 0.71,
      "hand": "right"
    },
    {
      "midi": 75,
      "time": 192.5,
      "duration": 0.25,
      "velocity": 0.71,
      "hand": "right"
    },
    {
      "midi": 78,
      "time": 192.5,
      "duration": 0.5,
      "velocity": 0.71,
      "hand": "right"
    },
    {
      "midi": 73,
      "time": 192.75,
      "duration": 0.25,
      "velocity": 0.71,
      "hand": "right"
    },
    {
      "midi": 58,
      "time": 193,
      "duration": 0.5,
      "velocity": 0.26,
      "hand": "left"
    },
    {
      "midi": 60,
      "time": 193,
      "duration": 0.5,
      "velocity": 0.26,
      "hand": "right"
    },
    {
      "midi": 63,
      "time": 193,
      "duration": 0.5,
      "velocity": 0.26,
      "hand": "right"
    },
    {
      "midi": 66,
      "time": 193,
      "duration": 0.5,
      "velocity": 0.26,
      "hand": "right"
    },
    {
      "midi": 72,
      "time": 193,
      "duration": 0.25,
      "velocity": 0.71,
      "hand": "right"
    },
    {
      "midi": 75,
      "time": 193,
      "duration": 0.5,
      "velocity": 0.71,
      "hand": "right"
    },
    {
      "midi": 78,
      "time": 193,
      "duration": 0.5,
      "velocity": 0.71,
      "hand": "right"
    },
    {
      "midi": 70,
      "time": 193.25,
      "duration": 0.25,
      "velocity": 0.71,
      "hand": "right"
    },
    {
      "midi": 41,
      "time": 193.5,
      "duration": 0.25,
      "velocity": 0.26,
      "hand": "left"
    },
    {
      "midi": 63,
      "time": 193.5,
      "duration": 0.5,
      "velocity": 0.71,
      "hand": "right"
    },
    {
      "midi": 69,
      "time": 193.5,
      "duration": 1,
      "velocity": 0.71,
      "hand": "right"
    },
    {
      "midi": 78,
      "time": 193.5,
      "duration": 0.5,
      "velocity": 0.71,
      "hand": "right"
    },
    {
      "midi": 53,
      "time": 193.75,
      "duration": 0.25,
      "velocity": 0.71,
      "hand": "left"
    },
    {
      "midi": 60,
      "time": 194,
      "duration": 0.25,
      "velocity": 0.71,
      "hand": "right"
    },
    {
      "midi": 77,
      "time": 194,
      "duration": 0.25,
      "velocity": 0.48,
      "hand": "right"
    },
    {
      "midi": 63,
      "time": 194.25,
      "duration": 0.25,
      "velocity": 0.71,
      "hand": "right"
    },
    {
      "midi": 72,
      "time": 194.25,
      "duration": 0.25,
      "velocity": 0.48,
      "hand": "right"
    },
    {
      "midi": 53,
      "time": 194.5,
      "duration": 0.5,
      "velocity": 0.71,
      "hand": "left"
    },
    {
      "midi": 66,
      "time": 194.5,
      "duration": 0.25,
      "velocity": 0.71,
      "hand": "right"
    },
    {
      "midi": 69,
      "time": 194.5,
      "duration": 0.5,
      "velocity": 0.71,
      "hand": "right"
    },
    {
      "midi": 75,
      "time": 194.5,
      "duration": 0.25,
      "velocity": 0.48,
      "hand": "right"
    },
    {
      "midi": 65,
      "time": 194.75,
      "duration": 0.25,
      "velocity": 0.71,
      "hand": "right"
    },
    {
      "midi": 73,
      "time": 194.75,
      "duration": 0.25,
      "velocity": 0.48,
      "hand": "right"
    },
    {
      "midi": 58,
      "time": 195,
      "duration": 0.25,
      "velocity": 0.71,
      "hand": "left"
    },
    {
      "midi": 61,
      "time": 195,
      "duration": 0.25,
      "velocity": 0.71,
      "hand": "right"
    },
    {
      "midi": 65,
      "time": 195,
      "duration": 0.25,
      "velocity": 0.71,
      "hand": "right"
    },
    {
      "midi": 70,
      "time": 195,
      "duration": 1.25,
      "velocity": 0.48,
      "hand": "right"
    },
    {
      "midi": 54,
      "time": 195.25,
      "duration": 0.25,
      "velocity": 0.26,
      "hand": "left"
    },
    {
      "midi": 63,
      "time": 195.25,
      "duration": 0.25,
      "velocity": 0.71,
      "hand": "right"
    },
    {
      "midi": 53,
      "time": 195.5,
      "duration": 0.25,
      "velocity": 0.26,
      "hand": "left"
    },
    {
      "midi": 61,
      "time": 195.5,
      "duration": 0.25,
      "velocity": 0.71,
      "hand": "right"
    },
    {
      "midi": 39,
      "time": 195.75,
      "duration": 0.25,
      "velocity": 0.26,
      "hand": "left"
    },
    {
      "midi": 51,
      "time": 195.75,
      "duration": 0.25,
      "velocity": 0.26,
      "hand": "left"
    },
    {
      "midi": 58,
      "time": 195.75,
      "duration": 0.5,
      "velocity": 0.71,
      "hand": "left"
    },
    {
      "midi": 66,
      "time": 195.75,
      "duration": 0.25,
      "velocity": 0.71,
      "hand": "right"
    },
    {
      "midi": 37,
      "time": 196,
      "duration": 0.25,
      "velocity": 0.26,
      "hand": "left"
    },
    {
      "midi": 49,
      "time": 196,
      "duration": 0.25,
      "velocity": 0.26,
      "hand": "left"
    },
    {
      "midi": 65,
      "time": 196,
      "duration": 0.25,
      "velocity": 0.71,
      "hand": "right"
    },
    {
      "midi": 36,
      "time": 196.25,
      "duration": 0.25,
      "velocity": 0.26,
      "hand": "left"
    },
    {
      "midi": 48,
      "time": 196.25,
      "duration": 0.25,
      "velocity": 0.26,
      "hand": "left"
    },
    {
      "midi": 63,
      "time": 196.25,
      "duration": 0.25,
      "velocity": 0.71,
      "hand": "right"
    },
    {
      "midi": 69,
      "time": 196.25,
      "duration": 0.25,
      "velocity": 0.48,
      "hand": "right"
    },
    {
      "midi": 72,
      "time": 196.25,
      "duration": 0.25,
      "velocity": 0.48,
      "hand": "right"
    },
    {
      "midi": 34,
      "time": 196.5,
      "duration": 0.5,
      "velocity": 0.26,
      "hand": "left"
    },
    {
      "midi": 46,
      "time": 196.5,
      "duration": 0.5,
      "velocity": 0.26,
      "hand": "left"
    },
    {
      "midi": 61,
      "time": 196.5,
      "duration": 0.25,
      "velocity": 0.71,
      "hand": "right"
    },
    {
      "midi": 70,
      "time": 196.5,
      "duration": 0.5,
      "velocity": 0.48,
      "hand": "right"
    },
    {
      "midi": 73,
      "time": 196.5,
      "duration": 0.5,
      "velocity": 0.48,
      "hand": "right"
    },
    {
      "midi": 65,
      "time": 196.75,
      "duration": 0.25,
      "velocity": 0.71,
      "hand": "right"
    },
    {
      "midi": 53,
      "time": 197,
      "duration": 0.5,
      "velocity": 0.26,
      "hand": "left"
    },
    {
      "midi": 58,
      "time": 197,
      "duration": 0.5,
      "velocity": 0.26,
      "hand": "left"
    },
    {
      "midi": 61,
      "time": 197,
      "duration": 0.5,
      "velocity": 0.26,
      "hand": "right"
    },
    {
      "midi": 70,
      "time": 197,
      "duration": 0.25,
      "velocity": 0.71,
      "hand": "right"
    },
    {
      "midi": 73,
      "time": 197,
      "duration": 0.25,
      "velocity": 0.48,
      "hand": "right"
    },
    {
      "midi": 72,
      "time": 197.25,
      "duration": 0.25,
      "velocity": 0.71,
      "hand": "right"
    },
    {
      "midi": 75,
      "time": 197.25,
      "duration": 0.25,
      "velocity": 0.48,
      "hand": "right"
    },
    {
      "midi": 58,
      "time": 197.5,
      "duration": 0.5,
      "velocity": 0.26,
      "hand": "left"
    },
    {
      "midi": 61,
      "time": 197.5,
      "duration": 0.5,
      "velocity": 0.26,
      "hand": "right"
    },
    {
      "midi": 65,
      "time": 197.5,
      "duration": 0.5,
      "velocity": 0.26,
      "hand": "right"
    },
    {
      "midi": 70,
      "time": 197.5,
      "duration": 0.25,
      "velocity": 0.71,
      "hand": "right"
    },
    {
      "midi": 73,
      "time": 197.5,
      "duration": 0.25,
      "velocity": 0.48,
      "hand": "right"
    },
    {
      "midi": 72,
      "time": 197.75,
      "duration": 0.25,
      "velocity": 0.71,
      "hand": "right"
    },
    {
      "midi": 75,
      "time": 197.75,
      "duration": 0.25,
      "velocity": 0.48,
      "hand": "right"
    },
    {
      "midi": 37,
      "time": 198,
      "duration": 0.5,
      "velocity": 0.26,
      "hand": "left"
    },
    {
      "midi": 44,
      "time": 198,
      "duration": 0.5,
      "velocity": 0.26,
      "hand": "left"
    },
    {
      "midi": 49,
      "time": 198,
      "duration": 0.5,
      "velocity": 0.26,
      "hand": "left"
    },
    {
      "midi": 65,
      "time": 198,
      "duration": 0.5,
      "velocity": 0.48,
      "hand": "right"
    },
    {
      "midi": 73,
      "time": 198,
      "duration": 0.25,
      "velocity": 0.71,
      "hand": "right"
    },
    {
      "midi": 77,
      "time": 198,
      "duration": 0.5,
      "velocity": 0.48,
      "hand": "right"
    },
    {
      "midi": 72,
      "time": 198.25,
      "duration": 0.25,
      "velocity": 0.71,
      "hand": "right"
    },
    {
      "midi": 53,
      "time": 198.5,
      "duration": 0.5,
      "velocity": 0.26,
      "hand": "left"
    },
    {
      "midi": 56,
      "time": 198.5,
      "duration": 0.5,
      "velocity": 0.26,
      "hand": "left"
    },
    {
      "midi": 61,
      "time": 198.5,
      "duration": 0.5,
      "velocity": 0.26,
      "hand": "right"
    },
    {
      "midi": 70,
      "time": 198.5,
      "duration": 0.25,
      "velocity": 0.71,
      "hand": "right"
    },
    {
      "midi": 73,
      "time": 198.5,
      "duration": 0.5,
      "velocity": 0.48,
      "hand": "right"
    },
    {
      "midi": 77,
      "time": 198.5,
      "duration": 0.5,
      "velocity": 0.48,
      "hand": "right"
    },
    {
      "midi": 68,
      "time": 198.75,
      "duration": 0.25,
      "velocity": 0.71,
      "hand": "right"
    },
    {
      "midi": 56,
      "time": 199,
      "duration": 0.5,
      "velocity": 0.26,
      "hand": "left"
    },
    {
      "midi": 61,
      "time": 199,
      "duration": 0.5,
      "velocity": 0.26,
      "hand": "right"
    },
    {
      "midi": 66,
      "time": 199,
      "duration": 0.25,
      "velocity": 0.71,
      "hand": "right"
    },
    {
      "midi": 68,
      "time": 199,
      "duration": 0.5,
      "velocity": 0.26,
      "hand": "right"
    },
    {
      "midi": 73,
      "time": 199,
      "duration": 0.5,
      "velocity": 0.48,
      "hand": "right"
    },
    {
      "midi": 77,
      "time": 199,
      "duration": 0.5,
      "velocity": 0.48,
      "hand": "right"
    },
    {
      "midi": 65,
      "time": 199.25,
      "duration": 0.25,
      "velocity": 0.71,
      "hand": "right"
    },
    {
      "midi": 39,
      "time": 199.5,
      "duration": 0.5,
      "velocity": 0.26,
      "hand": "left"
    },
    {
      "midi": 51,
      "time": 199.5,
      "duration": 0.5,
      "velocity": 0.26,
      "hand": "left"
    },
    {
      "midi": 66,
      "time": 199.5,
      "duration": 0.25,
      "velocity": 0.71,
      "hand": "right"
    },
    {
      "midi": 77,
      "time": 199.5,
      "duration": 0.5,
      "velocity": 0.48,
      "hand": "right"
    },
    {
      "midi": 73,
      "time": 199.75,
      "duration": 0.25,
      "velocity": 0.71,
      "hand": "right"
    },
    {
      "midi": 54,
      "time": 200,
      "duration": 0.5,
      "velocity": 0.26,
      "hand": "left"
    },
    {
      "midi": 58,
      "time": 200,
      "duration": 0.5,
      "velocity": 0.26,
      "hand": "left"
    },
    {
      "midi": 63,
      "time": 200,
      "duration": 0.5,
      "velocity": 0.26,
      "hand": "right"
    },
    {
      "midi": 72,
      "time": 200,
      "duration": 0.25,
      "velocity": 0.71,
      "hand": "right"
    },
    {
      "midi": 75,
      "time": 200,
      "duration": 0.25,
      "velocity": 0.48,
      "hand": "right"
    },
    {
      "midi": 66,
      "time": 200.25,
      "duration": 0.25,
      "velocity": 0.71,
      "hand": "right"
    },
    {
      "midi": 70,
      "time": 200.25,
      "duration": 0.25,
      "velocity": 0.48,
      "hand": "right"
    },
    {
      "midi": 42,
      "time": 200.5,
      "duration": 0.5,
      "velocity": 0.26,
      "hand": "left"
    },
    {
      "midi": 54,
      "time": 200.5,
      "duration": 0.5,
      "velocity": 0.26,
      "hand": "left"
    },
    {
      "midi": 63,
      "time": 200.5,
      "duration": 0.25,
      "velocity": 0.71,
      "hand": "right"
    },
    {
      "midi": 73,
      "time": 200.5,
      "duration": 0.25,
      "velocity": 0.48,
      "hand": "right"
    },
    {
      "midi": 64,
      "time": 200.75,
      "duration": 0.25,
      "velocity": 0.71,
      "hand": "right"
    },
    {
      "midi": 72,
      "time": 200.75,
      "duration": 0.25,
      "velocity": 0.48,
      "hand": "right"
    },
    {
      "midi": 41,
      "time": 201,
      "duration": 0.25,
      "velocity": 0.26,
      "hand": "left"
    },
    {
      "midi": 53,
      "time": 201,
      "duration": 0.25,
      "velocity": 0.26,
      "hand": "left"
    },
    {
      "midi": 65,
      "time": 201,
      "duration": 0.25,
      "velocity": 0.71,
      "hand": "right"
    },
    {
      "midi": 69,
      "time": 201,
      "duration": 0.25,
      "velocity": 0.48,
      "hand": "right"
    },
    {
      "midi": 54,
      "time": 201.25,
      "duration": 0.25,
      "velocity": 0.26,
      "hand": "left"
    },
    {
      "midi": 66,
      "time": 201.25,
      "duration": 0.25,
      "velocity": 0.26,
      "hand": "right"
    },
    {
      "midi": 53,
      "time": 201.5,
      "duration": 0.25,
      "velocity": 0.21,
      "hand": "left"
    },
    {
      "midi": 60,
      "time": 201.5,
      "duration": 0.5,
      "velocity": 0.48,
      "hand": "right"
    },
    {
      "midi": 65,
      "time": 201.5,
      "duration": 0.25,
      "velocity": 0.21,
      "hand": "right"
    },
    {
      "midi": 69,
      "time": 201.5,
      "duration": 0.5,
      "velocity": 0.48,
      "hand": "right"
    },
    {
      "midi": 72,
      "time": 201.5,
      "duration": 0.5,
      "velocity": 0.48,
      "hand": "right"
    },
    {
      "midi": 52,
      "time": 201.75,
      "duration": 0.25,
      "velocity": 0.17,
      "hand": "left"
    },
    {
      "midi": 64,
      "time": 201.75,
      "duration": 0.25,
      "velocity": 0.17,
      "hand": "right"
    },
    {
      "midi": 51,
      "time": 202,
      "duration": 0.25,
      "velocity": 0.13,
      "hand": "left"
    },
    {
      "midi": 63,
      "time": 202,
      "duration": 0.25,
      "velocity": 0.13,
      "hand": "right"
    },
    {
      "midi": 65,
      "time": 202,
      "duration": 0.5,
      "velocity": 0.48,
      "hand": "right"
    },
    {
      "midi": 69,
      "time": 202,
      "duration": 0.5,
      "velocity": 0.48,
      "hand": "right"
    },
    {
      "midi": 77,
      "time": 202,
      "duration": 0.5,
      "velocity": 0.48,
      "hand": "right"
    },
    {
      "midi": 48,
      "time": 202.25,
      "duration": 0.25,
      "velocity": 0.09,
      "hand": "left"
    },
    {
      "midi": 60,
      "time": 202.25,
      "duration": 0.25,
      "velocity": 0.09,
      "hand": "right"
    },
    {
      "midi": 49,
      "time": 202.5,
      "duration": 0.25,
      "velocity": 0.09,
      "hand": "left"
    },
    {
      "midi": 61,
      "time": 202.5,
      "duration": 0.25,
      "velocity": 0.09,
      "hand": "right"
    },
    {
      "midi": 64,
      "time": 202.5,
      "duration": 0.5,
      "velocity": 0.48,
      "hand": "right"
    },
    {
      "midi": 70,
      "time": 202.5,
      "duration": 0.5,
      "velocity": 0.48,
      "hand": "right"
    },
    {
      "midi": 76,
      "time": 202.5,
      "duration": 0.5,
      "velocity": 0.48,
      "hand": "right"
    },
    {
      "midi": 46,
      "time": 202.75,
      "duration": 0.25,
      "velocity": 0.09,
      "hand": "left"
    },
    {
      "midi": 58,
      "time": 202.75,
      "duration": 0.25,
      "velocity": 0.09,
      "hand": "left"
    },
    {
      "midi": 43,
      "time": 203,
      "duration": 0.25,
      "velocity": 0.09,
      "hand": "left"
    },
    {
      "midi": 55,
      "time": 203,
      "duration": 0.25,
      "velocity": 0.09,
      "hand": "left"
    },
    {
      "midi": 58,
      "time": 203,
      "duration": 0.5,
      "velocity": 0.71,
      "hand": "left"
    },
    {
      "midi": 64,
      "time": 203,
      "duration": 0.5,
      "velocity": 0.48,
      "hand": "right"
    },
    {
      "midi": 70,
      "time": 203,
      "duration": 0.5,
      "velocity": 0.48,
      "hand": "right"
    },
    {
      "midi": 42,
      "time": 203.25,
      "duration": 0.25,
      "velocity": 0.09,
      "hand": "left"
    },
    {
      "midi": 54,
      "time": 203.25,
      "duration": 0.25,
      "velocity": 0.09,
      "hand": "left"
    },
    {
      "midi": 37,
      "time": 203.5,
      "duration": 0.25,
      "velocity": 0.09,
      "hand": "left"
    },
    {
      "midi": 49,
      "time": 203.5,
      "duration": 0.25,
      "velocity": 0.09,
      "hand": "left"
    },
    {
      "midi": 57,
      "time": 203.5,
      "duration": 0.25,
      "velocity": 0.71,
      "hand": "left"
    },
    {
      "midi": 64,
      "time": 203.5,
      "duration": 0.5,
      "velocity": 0.48,
      "hand": "right"
    },
    {
      "midi": 73,
      "time": 203.5,
      "duration": 0.5,
      "velocity": 0.48,
      "hand": "right"
    },
    {
      "midi": 30,
      "time": 203.75,
      "duration": 0.25,
      "velocity": 0.09,
      "hand": "left"
    },
    {
      "midi": 42,
      "time": 203.75,
      "duration": 0.25,
      "velocity": 0.09,
      "hand": "left"
    },
    {
      "midi": 58,
      "time": 203.75,
      "duration": 0.25,
      "velocity": 0.48,
      "hand": "left"
    },
    {
      "midi": 29,
      "time": 204,
      "duration": 0.25,
      "velocity": 0.09,
      "hand": "left"
    },
    {
      "midi": 41,
      "time": 204,
      "duration": 0.25,
      "velocity": 0.09,
      "hand": "left"
    },
    {
      "midi": 60,
      "time": 204,
      "duration": 0.25,
      "velocity": 0.48,
      "hand": "right"
    },
    {
      "midi": 65,
      "time": 204,
      "duration": 0.25,
      "velocity": 0.48,
      "hand": "right"
    },
    {
      "midi": 69,
      "time": 204,
      "duration": 0.25,
      "velocity": 0.48,
      "hand": "right"
    },
    {
      "midi": 54,
      "time": 204.25,
      "duration": 0.25,
      "velocity": 0.09,
      "hand": "left"
    },
    {
      "midi": 66,
      "time": 204.25,
      "duration": 0.25,
      "velocity": 0.09,
      "hand": "right"
    },
    {
      "midi": 53,
      "time": 204.5,
      "duration": 0.25,
      "velocity": 0.09,
      "hand": "left"
    },
    {
      "midi": 65,
      "time": 204.5,
      "duration": 0.25,
      "velocity": 0.09,
      "hand": "right"
    },
    {
      "midi": 72,
      "time": 204.5,
      "duration": 0.5,
      "velocity": 0.48,
      "hand": "right"
    },
    {
      "midi": 81,
      "time": 204.5,
      "duration": 0.5,
      "velocity": 0.48,
      "hand": "right"
    },
    {
      "midi": 84,
      "time": 204.5,
      "duration": 0.5,
      "velocity": 0.48,
      "hand": "right"
    },
    {
      "midi": 52,
      "time": 204.75,
      "duration": 0.25,
      "velocity": 0.09,
      "hand": "left"
    },
    {
      "midi": 64,
      "time": 204.75,
      "duration": 0.25,
      "velocity": 0.09,
      "hand": "right"
    },
    {
      "midi": 51,
      "time": 205,
      "duration": 0.25,
      "velocity": 0.09,
      "hand": "left"
    },
    {
      "midi": 63,
      "time": 205,
      "duration": 0.25,
      "velocity": 0.09,
      "hand": "right"
    },
    {
      "midi": 77,
      "time": 205,
      "duration": 0.5,
      "velocity": 0.48,
      "hand": "right"
    },
    {
      "midi": 81,
      "time": 205,
      "duration": 0.5,
      "velocity": 0.48,
      "hand": "right"
    },
    {
      "midi": 89,
      "time": 205,
      "duration": 0.5,
      "velocity": 0.48,
      "hand": "right"
    },
    {
      "midi": 48,
      "time": 205.25,
      "duration": 0.25,
      "velocity": 0.09,
      "hand": "left"
    },
    {
      "midi": 60,
      "time": 205.25,
      "duration": 0.25,
      "velocity": 0.09,
      "hand": "right"
    },
    {
      "midi": 49,
      "time": 205.5,
      "duration": 0.25,
      "velocity": 0.09,
      "hand": "left"
    },
    {
      "midi": 61,
      "time": 205.5,
      "duration": 0.25,
      "velocity": 0.09,
      "hand": "right"
    },
    {
      "midi": 76,
      "time": 205.5,
      "duration": 0.5,
      "velocity": 0.48,
      "hand": "right"
    },
    {
      "midi": 82,
      "time": 205.5,
      "duration": 0.5,
      "velocity": 0.48,
      "hand": "right"
    },
    {
      "midi": 88,
      "time": 205.5,
      "duration": 0.5,
      "velocity": 0.48,
      "hand": "right"
    },
    {
      "midi": 46,
      "time": 205.75,
      "duration": 0.25,
      "velocity": 0.09,
      "hand": "left"
    },
    {
      "midi": 58,
      "time": 205.75,
      "duration": 0.25,
      "velocity": 0.09,
      "hand": "left"
    },
    {
      "midi": 43,
      "time": 206,
      "duration": 0.25,
      "velocity": 0.09,
      "hand": "left"
    },
    {
      "midi": 55,
      "time": 206,
      "duration": 0.25,
      "velocity": 0.09,
      "hand": "left"
    },
    {
      "midi": 70,
      "time": 206,
      "duration": 0.25,
      "velocity": 0.48,
      "hand": "right"
    },
    {
      "midi": 76,
      "time": 206,
      "duration": 0.5,
      "velocity": 0.48,
      "hand": "right"
    },
    {
      "midi": 82,
      "time": 206,
      "duration": 0.5,
      "velocity": 0.48,
      "hand": "right"
    },
    {
      "midi": 42,
      "time": 206.25,
      "duration": 0.25,
      "velocity": 0.09,
      "hand": "left"
    },
    {
      "midi": 54,
      "time": 206.25,
      "duration": 0.25,
      "velocity": 0.09,
      "hand": "left"
    },
    {
      "midi": 69,
      "time": 206.25,
      "duration": 0.25,
      "velocity": 0.48,
      "hand": "right"
    },
    {
      "midi": 37,
      "time": 206.5,
      "duration": 0.25,
      "velocity": 0.09,
      "hand": "left"
    },
    {
      "midi": 49,
      "time": 206.5,
      "duration": 0.25,
      "velocity": 0.09,
      "hand": "left"
    },
    {
      "midi": 69,
      "time": 206.5,
      "duration": 0.25,
      "velocity": 0.48,
      "hand": "right"
    },
    {
      "midi": 76,
      "time": 206.5,
      "duration": 0.5,
      "velocity": 0.48,
      "hand": "right"
    },
    {
      "midi": 85,
      "time": 206.5,
      "duration": 0.5,
      "velocity": 0.48,
      "hand": "right"
    },
    {
      "midi": 30,
      "time": 206.75,
      "duration": 0.25,
      "velocity": 0.09,
      "hand": "left"
    },
    {
      "midi": 42,
      "time": 206.75,
      "duration": 0.25,
      "velocity": 0.09,
      "hand": "left"
    },
    {
      "midi": 70,
      "time": 206.75,
      "duration": 0.25,
      "velocity": 0.48,
      "hand": "right"
    },
    {
      "midi": 28,
      "time": 207,
      "duration": 0.25,
      "velocity": 0.09,
      "hand": "left"
    },
    {
      "midi": 40,
      "time": 207,
      "duration": 0.25,
      "velocity": 0.09,
      "hand": "left"
    },
    {
      "midi": 73,
      "time": 207,
      "duration": 0.25,
      "velocity": 0.71,
      "hand": "right"
    },
    {
      "midi": 82,
      "time": 207,
      "duration": 0.25,
      "velocity": 0.71,
      "hand": "right"
    },
    {
      "midi": 85,
      "time": 207,
      "duration": 0.25,
      "velocity": 0.71,
      "hand": "right"
    },
    {
      "midi": 29,
      "time": 207.25,
      "duration": 0.25,
      "velocity": 0.09,
      "hand": "left"
    },
    {
      "midi": 41,
      "time": 207.25,
      "duration": 0.25,
      "velocity": 0.09,
      "hand": "left"
    },
    {
      "midi": 72,
      "time": 207.25,
      "duration": 0.25,
      "velocity": 0.71,
      "hand": "right"
    },
    {
      "midi": 81,
      "time": 207.25,
      "duration": 0.25,
      "velocity": 0.71,
      "hand": "right"
    },
    {
      "midi": 84,
      "time": 207.25,
      "duration": 0.25,
      "velocity": 0.71,
      "hand": "right"
    },
    {
      "midi": 54,
      "time": 207.5,
      "duration": 0.25,
      "velocity": 0.09,
      "hand": "left"
    },
    {
      "midi": 66,
      "time": 207.5,
      "duration": 0.25,
      "velocity": 0.09,
      "hand": "right"
    },
    {
      "midi": 72,
      "time": 207.5,
      "duration": 0.25,
      "velocity": 0.71,
      "hand": "right"
    },
    {
      "midi": 81,
      "time": 207.5,
      "duration": 0.25,
      "velocity": 0.71,
      "hand": "right"
    },
    {
      "midi": 84,
      "time": 207.5,
      "duration": 0.25,
      "velocity": 0.71,
      "hand": "right"
    },
    {
      "midi": 53,
      "time": 207.75,
      "duration": 0.25,
      "velocity": 0.09,
      "hand": "left"
    },
    {
      "midi": 65,
      "time": 207.75,
      "duration": 0.25,
      "velocity": 0.09,
      "hand": "right"
    },
    {
      "midi": 73,
      "time": 207.75,
      "duration": 0.25,
      "velocity": 0.73,
      "hand": "right"
    },
    {
      "midi": 82,
      "time": 207.75,
      "duration": 0.25,
      "velocity": 0.73,
      "hand": "right"
    },
    {
      "midi": 85,
      "time": 207.75,
      "duration": 0.25,
      "velocity": 0.73,
      "hand": "right"
    },
    {
      "midi": 51,
      "time": 208,
      "duration": 0.25,
      "velocity": 0.09,
      "hand": "left"
    },
    {
      "midi": 63,
      "time": 208,
      "duration": 0.25,
      "velocity": 0.09,
      "hand": "right"
    },
    {
      "midi": 75,
      "time": 208,
      "duration": 0.25,
      "velocity": 0.75,
      "hand": "right"
    },
    {
      "midi": 84,
      "time": 208,
      "duration": 0.25,
      "velocity": 0.75,
      "hand": "right"
    },
    {
      "midi": 87,
      "time": 208,
      "duration": 0.25,
      "velocity": 0.75,
      "hand": "right"
    },
    {
      "midi": 49,
      "time": 208.25,
      "duration": 0.25,
      "velocity": 0.09,
      "hand": "left"
    },
    {
      "midi": 61,
      "time": 208.25,
      "duration": 0.25,
      "velocity": 0.09,
      "hand": "right"
    },
    {
      "midi": 77,
      "time": 208.25,
      "duration": 0.25,
      "velocity": 0.77,
      "hand": "right"
    },
    {
      "midi": 85,
      "time": 208.25,
      "duration": 0.25,
      "velocity": 0.77,
      "hand": "right"
    },
    {
      "midi": 89,
      "time": 208.25,
      "duration": 0.25,
      "velocity": 0.77,
      "hand": "right"
    },
    {
      "midi": 48,
      "time": 208.5,
      "duration": 0.25,
      "velocity": 0.09,
      "hand": "left"
    },
    {
      "midi": 60,
      "time": 208.5,
      "duration": 0.25,
      "velocity": 0.09,
      "hand": "right"
    },
    {
      "midi": 78,
      "time": 208.5,
      "duration": 0.5,
      "velocity": 0.8,
      "hand": "right"
    },
    {
      "midi": 87,
      "time": 208.5,
      "duration": 0.5,
      "velocity": 0.8,
      "hand": "right"
    },
    {
      "midi": 90,
      "time": 208.5,
      "duration": 0.5,
      "velocity": 0.8,
      "hand": "right"
    },
    {
      "midi": 46,
      "time": 208.75,
      "duration": 0.25,
      "velocity": 0.09,
      "hand": "left"
    },
    {
      "midi": 58,
      "time": 208.75,
      "duration": 0.25,
      "velocity": 0.09,
      "hand": "left"
    },
    {
      "midi": 45,
      "time": 209,
      "duration": 0.25,
      "velocity": 0.09,
      "hand": "left"
    },
    {
      "midi": 57,
      "time": 209,
      "duration": 0.25,
      "velocity": 0.09,
      "hand": "left"
    },
    {
      "midi": 78,
      "time": 209,
      "duration": 0.5,
      "velocity": 0.84,
      "hand": "right"
    },
    {
      "midi": 87,
      "time": 209,
      "duration": 0.5,
      "velocity": 0.84,
      "hand": "right"
    },
    {
      "midi": 90,
      "time": 209,
      "duration": 0.5,
      "velocity": 0.84,
      "hand": "right"
    },
    {
      "midi": 42,
      "time": 209.25,
      "duration": 0.25,
      "velocity": 0.09,
      "hand": "left"
    },
    {
      "midi": 54,
      "time": 209.25,
      "duration": 0.25,
      "velocity": 0.09,
      "hand": "left"
    },
    {
      "midi": 39,
      "time": 209.5,
      "duration": 0.25,
      "velocity": 0.09,
      "hand": "left"
    },
    {
      "midi": 51,
      "time": 209.5,
      "duration": 0.25,
      "velocity": 0.09,
      "hand": "left"
    },
    {
      "midi": 78,
      "time": 209.5,
      "duration": 0.5,
      "velocity": 0.89,
      "hand": "right"
    },
    {
      "midi": 87,
      "time": 209.5,
      "duration": 0.5,
      "velocity": 0.89,
      "hand": "right"
    },
    {
      "midi": 90,
      "time": 209.5,
      "duration": 0.5,
      "velocity": 0.89,
      "hand": "right"
    },
    {
      "midi": 36,
      "time": 209.75,
      "duration": 0.25,
      "velocity": 0.09,
      "hand": "left"
    },
    {
      "midi": 48,
      "time": 209.75,
      "duration": 0.25,
      "velocity": 0.09,
      "hand": "left"
    },
    {
      "midi": 33,
      "time": 210,
      "duration": 0.5,
      "velocity": 0.09,
      "hand": "left"
    },
    {
      "midi": 45,
      "time": 210,
      "duration": 0.5,
      "velocity": 0.09,
      "hand": "left"
    },
    {
      "midi": 78,
      "time": 210,
      "duration": 0.5,
      "velocity": 0.93,
      "hand": "right"
    },
    {
      "midi": 87,
      "time": 210,
      "duration": 0.5,
      "velocity": 0.93,
      "hand": "right"
    },
    {
      "midi": 90,
      "time": 210,
      "duration": 0.5,
      "velocity": 0.93,
      "hand": "right"
    },
    {
      "midi": 33,
      "time": 210.5,
      "duration": 0.5,
      "velocity": 0.09,
      "hand": "left"
    },
    {
      "midi": 45,
      "time": 210.5,
      "duration": 0.5,
      "velocity": 0.09,
      "hand": "left"
    },
    {
      "midi": 54,
      "time": 210.5,
      "duration": 0.5,
      "velocity": 0.93,
      "hand": "left"
    },
    {
      "midi": 59,
      "time": 210.5,
      "duration": 0.5,
      "velocity": 0.93,
      "hand": "left"
    },
    {
      "midi": 63,
      "time": 210.5,
      "duration": 0.5,
      "velocity": 0.93,
      "hand": "right"
    },
    {
      "midi": 34,
      "time": 211,
      "duration": 0.5,
      "velocity": 0.09,
      "hand": "left"
    },
    {
      "midi": 46,
      "time": 211,
      "duration": 0.5,
      "velocity": 0.09,
      "hand": "left"
    },
    {
      "midi": 54,
      "time": 211,
      "duration": 0.5,
      "velocity": 0.93,
      "hand": "left"
    },
    {
      "midi": 58,
      "time": 211,
      "duration": 0.5,
      "velocity": 0.93,
      "hand": "left"
    },
    {
      "midi": 63,
      "time": 211,
      "duration": 0.5,
      "velocity": 0.93,
      "hand": "right"
    },
    {
      "midi": 34,
      "time": 211.5,
      "duration": 0.5,
      "velocity": 0.09,
      "hand": "left"
    },
    {
      "midi": 46,
      "time": 211.5,
      "duration": 0.5,
      "velocity": 0.09,
      "hand": "left"
    },
    {
      "midi": 54,
      "time": 211.5,
      "duration": 0.5,
      "velocity": 0.93,
      "hand": "left"
    },
    {
      "midi": 58,
      "time": 211.5,
      "duration": 0.5,
      "velocity": 0.93,
      "hand": "left"
    },
    {
      "midi": 63,
      "time": 211.5,
      "duration": 0.5,
      "velocity": 0.93,
      "hand": "right"
    },
    {
      "midi": 35,
      "time": 212,
      "duration": 0.5,
      "velocity": 0.09,
      "hand": "left"
    },
    {
      "midi": 47,
      "time": 212,
      "duration": 0.5,
      "velocity": 0.09,
      "hand": "left"
    },
    {
      "midi": 51,
      "time": 212,
      "duration": 0.5,
      "velocity": 0.93,
      "hand": "left"
    },
    {
      "midi": 57,
      "time": 212,
      "duration": 0.5,
      "velocity": 0.93,
      "hand": "left"
    },
    {
      "midi": 66,
      "time": 212,
      "duration": 0.5,
      "velocity": 0.93,
      "hand": "right"
    },
    {
      "midi": 27,
      "time": 212.5,
      "duration": 0.5,
      "velocity": 0.09,
      "hand": "left"
    },
    {
      "midi": 39,
      "time": 212.5,
      "duration": 0.5,
      "velocity": 0.09,
      "hand": "left"
    },
    {
      "midi": 54,
      "time": 212.5,
      "duration": 0.5,
      "velocity": 0.93,
      "hand": "left"
    },
    {
      "midi": 57,
      "time": 212.5,
      "duration": 0.5,
      "velocity": 0.93,
      "hand": "left"
    },
    {
      "midi": 66,
      "time": 212.5,
      "duration": 0.5,
      "velocity": 0.93,
      "hand": "right"
    },
    {
      "midi": 30,
      "time": 213,
      "duration": 0.5,
      "velocity": 0.09,
      "hand": "left"
    },
    {
      "midi": 42,
      "time": 213,
      "duration": 0.5,
      "velocity": 0.09,
      "hand": "left"
    },
    {
      "midi": 61,
      "time": 213,
      "duration": 0.5,
      "velocity": 0.93,
      "hand": "right"
    },
    {
      "midi": 51,
      "time": 213.5,
      "duration": 0.25,
      "velocity": 0.93,
      "hand": "left"
    },
    {
      "midi": 57,
      "time": 213.5,
      "duration": 0.25,
      "velocity": 0.93,
      "hand": "left"
    },
    {
      "midi": 59,
      "time": 213.5,
      "duration": 0.25,
      "velocity": 0.93,
      "hand": "left"
    },
    {
      "midi": 64,
      "time": 213.5,
      "duration": 0.25,
      "velocity": 0.93,
      "hand": "right"
    },
    {
      "midi": 54,
      "time": 213.75,
      "duration": 0.25,
      "velocity": 0.09,
      "hand": "left"
    },
    {
      "midi": 57,
      "time": 213.75,
      "duration": 0.25,
      "velocity": 0.93,
      "hand": "left"
    },
    {
      "midi": 59,
      "time": 213.75,
      "duration": 0.25,
      "velocity": 0.93,
      "hand": "left"
    },
    {
      "midi": 63,
      "time": 213.75,
      "duration": 0.25,
      "velocity": 0.93,
      "hand": "right"
    },
    {
      "midi": 59,
      "time": 214,
      "duration": 0.25,
      "velocity": 0.09,
      "hand": "left"
    },
    {
      "midi": 68,
      "time": 214,
      "duration": 0.25,
      "velocity": 0.93,
      "hand": "right"
    },
    {
      "midi": 57,
      "time": 214.25,
      "duration": 0.25,
      "velocity": 0.09,
      "hand": "left"
    },
    {
      "midi": 59,
      "time": 214.25,
      "duration": 0.25,
      "velocity": 0.93,
      "hand": "left"
    },
    {
      "midi": 63,
      "time": 214.25,
      "duration": 0.25,
      "velocity": 0.93,
      "hand": "right"
    },
    {
      "midi": 66,
      "time": 214.25,
      "duration": 0.25,
      "velocity": 0.93,
      "hand": "right"
    },
    {
      "midi": 32,
      "time": 214.5,
      "duration": 0.5,
      "velocity": 0.09,
      "hand": "left"
    },
    {
      "midi": 44,
      "time": 214.5,
      "duration": 0.5,
      "velocity": 0.09,
      "hand": "left"
    },
    {
      "midi": 71,
      "time": 214.5,
      "duration": 0.25,
      "velocity": 0.93,
      "hand": "right"
    },
    {
      "midi": 59,
      "time": 214.75,
      "duration": 0.25,
      "velocity": 0.93,
      "hand": "left"
    },
    {
      "midi": 62,
      "time": 214.75,
      "duration": 0.25,
      "velocity": 0.93,
      "hand": "right"
    },
    {
      "midi": 66,
      "time": 214.75,
      "duration": 0.25,
      "velocity": 0.93,
      "hand": "right"
    },
    {
      "midi": 66,
      "time": 215,
      "duration": 0.25,
      "velocity": 0.93,
      "hand": "right"
    },
    {
      "midi": 56,
      "time": 215.25,
      "duration": 0.25,
      "velocity": 0.09,
      "hand": "left"
    },
    {
      "midi": 59,
      "time": 215.25,
      "duration": 0.25,
      "velocity": 0.93,
      "hand": "left"
    },
    {
      "midi": 62,
      "time": 215.25,
      "duration": 0.25,
      "velocity": 0.93,
      "hand": "right"
    },
    {
      "midi": 65,
      "time": 215.25,
      "duration": 0.25,
      "velocity": 0.93,
      "hand": "right"
    },
    {
      "midi": 61,
      "time": 215.5,
      "duration": 0.25,
      "velocity": 0.09,
      "hand": "right"
    },
    {
      "midi": 69,
      "time": 215.5,
      "duration": 0.25,
      "velocity": 0.93,
      "hand": "right"
    },
    {
      "midi": 59,
      "time": 215.75,
      "duration": 0.25,
      "velocity": 0.09,
      "hand": "left"
    },
    {
      "midi": 61,
      "time": 215.75,
      "duration": 0.25,
      "velocity": 0.93,
      "hand": "right"
    },
    {
      "midi": 65,
      "time": 215.75,
      "duration": 0.25,
      "velocity": 0.93,
      "hand": "right"
    },
    {
      "midi": 68,
      "time": 215.75,
      "duration": 0.25,
      "velocity": 0.93,
      "hand": "right"
    },
    {
      "midi": 34,
      "time": 216,
      "duration": 0.5,
      "velocity": 0.09,
      "hand": "left"
    },
    {
      "midi": 46,
      "time": 216,
      "duration": 0.5,
      "velocity": 0.09,
      "hand": "left"
    },
    {
      "midi": 73,
      "time": 216,
      "duration": 0.25,
      "velocity": 0.93,
      "hand": "right"
    },
    {
      "midi": 61,
      "time": 216.25,
      "duration": 0.25,
      "velocity": 0.93,
      "hand": "right"
    },
    {
      "midi": 64,
      "time": 216.25,
      "duration": 0.25,
      "velocity": 0.93,
      "hand": "right"
    },
    {
      "midi": 68,
      "time": 216.25,
      "duration": 0.25,
      "velocity": 0.93,
      "hand": "right"
    },
    {
      "midi": 68,
      "time": 216.5,
      "duration": 0.25,
      "velocity": 0.93,
      "hand": "right"
    },
    {
      "midi": 58,
      "time": 216.75,
      "duration": 0.25,
      "velocity": 0.09,
      "hand": "left"
    },
    {
      "midi": 61,
      "time": 216.75,
      "duration": 0.25,
      "velocity": 0.93,
      "hand": "right"
    },
    {
      "midi": 63,
      "time": 216.75,
      "duration": 0.25,
      "velocity": 0.93,
      "hand": "right"
    },
    {
      "midi": 67,
      "time": 216.75,
      "duration": 0.25,
      "velocity": 0.93,
      "hand": "right"
    },
    {
      "midi": 63,
      "time": 217,
      "duration": 0.25,
      "velocity": 0.09,
      "hand": "right"
    },
    {
      "midi": 71,
      "time": 217,
      "duration": 0.25,
      "velocity": 0.93,
      "hand": "right"
    },
    {
      "midi": 61,
      "time": 217.25,
      "duration": 0.25,
      "velocity": 0.09,
      "hand": "right"
    },
    {
      "midi": 64,
      "time": 217.25,
      "duration": 0.25,
      "velocity": 0.93,
      "hand": "right"
    },
    {
      "midi": 67,
      "time": 217.25,
      "duration": 0.25,
      "velocity": 0.93,
      "hand": "right"
    },
    {
      "midi": 70,
      "time": 217.25,
      "duration": 0.25,
      "velocity": 0.93,
      "hand": "right"
    },
    {
      "midi": 36,
      "time": 217.5,
      "duration": 0.5,
      "velocity": 0.09,
      "hand": "left"
    },
    {
      "midi": 48,
      "time": 217.5,
      "duration": 0.5,
      "velocity": 0.09,
      "hand": "left"
    },
    {
      "midi": 75,
      "time": 217.5,
      "duration": 0.25,
      "velocity": 0.93,
      "hand": "right"
    },
    {
      "midi": 63,
      "time": 217.75,
      "duration": 0.25,
      "velocity": 0.93,
      "hand": "right"
    },
    {
      "midi": 66,
      "time": 217.75,
      "duration": 0.25,
      "velocity": 0.93,
      "hand": "right"
    },
    {
      "midi": 70,
      "time": 217.75,
      "duration": 0.25,
      "velocity": 0.93,
      "hand": "right"
    },
    {
      "midi": 70,
      "time": 218,
      "duration": 0.25,
      "velocity": 0.93,
      "hand": "right"
    },
    {
      "midi": 60,
      "time": 218.25,
      "duration": 0.25,
      "velocity": 0.09,
      "hand": "right"
    },
    {
      "midi": 63,
      "time": 218.25,
      "duration": 0.25,
      "velocity": 0.93,
      "hand": "right"
    },
    {
      "midi": 65,
      "time": 218.25,
      "duration": 0.25,
      "velocity": 0.93,
      "hand": "right"
    },
    {
      "midi": 69,
      "time": 218.25,
      "duration": 0.25,
      "velocity": 0.93,
      "hand": "right"
    },
    {
      "midi": 65,
      "time": 218.5,
      "duration": 0.25,
      "velocity": 0.09,
      "hand": "right"
    },
    {
      "midi": 73,
      "time": 218.5,
      "duration": 0.25,
      "velocity": 0.93,
      "hand": "right"
    },
    {
      "midi": 63,
      "time": 218.75,
      "duration": 0.25,
      "velocity": 0.09,
      "hand": "right"
    },
    {
      "midi": 66,
      "time": 218.75,
      "duration": 0.25,
      "velocity": 0.93,
      "hand": "right"
    },
    {
      "midi": 69,
      "time": 218.75,
      "duration": 0.25,
      "velocity": 0.93,
      "hand": "right"
    },
    {
      "midi": 72,
      "time": 218.75,
      "duration": 0.25,
      "velocity": 0.93,
      "hand": "right"
    },
    {
      "midi": 29,
      "time": 219,
      "duration": 0.5,
      "velocity": 0.09,
      "hand": "left"
    },
    {
      "midi": 41,
      "time": 219,
      "duration": 0.5,
      "velocity": 0.09,
      "hand": "left"
    },
    {
      "midi": 78,
      "time": 219,
      "duration": 0.25,
      "velocity": 0.93,
      "hand": "right"
    },
    {
      "midi": 69,
      "time": 219.25,
      "duration": 0.25,
      "velocity": 0.93,
      "hand": "right"
    },
    {
      "midi": 75,
      "time": 219.25,
      "duration": 0.25,
      "velocity": 0.93,
      "hand": "right"
    },
    {
      "midi": 77,
      "time": 219.25,
      "duration": 0.25,
      "velocity": 0.93,
      "hand": "right"
    },
    {
      "midi": 82,
      "time": 219.5,
      "duration": 0.25,
      "velocity": 0.93,
      "hand": "right"
    },
    {
      "midi": 72,
      "time": 219.75,
      "duration": 0.25,
      "velocity": 0.09,
      "hand": "right"
    },
    {
      "midi": 75,
      "time": 219.75,
      "duration": 0.25,
      "velocity": 0.93,
      "hand": "right"
    },
    {
      "midi": 77,
      "time": 219.75,
      "duration": 0.25,
      "velocity": 0.93,
      "hand": "right"
    },
    {
      "midi": 81,
      "time": 219.75,
      "duration": 0.25,
      "velocity": 0.93,
      "hand": "right"
    },
    {
      "midi": 77,
      "time": 220,
      "duration": 0.25,
      "velocity": 0.09,
      "hand": "right"
    },
    {
      "midi": 85,
      "time": 220,
      "duration": 0.25,
      "velocity": 0.93,
      "hand": "right"
    },
    {
      "midi": 75,
      "time": 220.25,
      "duration": 0.25,
      "velocity": 0.09,
      "hand": "right"
    },
    {
      "midi": 77,
      "time": 220.25,
      "duration": 0.25,
      "velocity": 0.93,
      "hand": "right"
    },
    {
      "midi": 81,
      "time": 220.25,
      "duration": 0.25,
      "velocity": 0.93,
      "hand": "right"
    },
    {
      "midi": 84,
      "time": 220.25,
      "duration": 0.25,
      "velocity": 0.93,
      "hand": "right"
    },
    {
      "midi": 65,
      "time": 220.5,
      "duration": 0.5,
      "velocity": 0.09,
      "hand": "right"
    },
    {
      "midi": 89,
      "time": 220.5,
      "duration": 0.25,
      "velocity": 0.93,
      "hand": "right"
    },
    {
      "midi": 81,
      "time": 220.75,
      "duration": 0.25,
      "velocity": 0.93,
      "hand": "right"
    },
    {
      "midi": 84,
      "time": 220.75,
      "duration": 0.25,
      "velocity": 0.93,
      "hand": "right"
    },
    {
      "midi": 87,
      "time": 220.75,
      "duration": 0.25,
      "velocity": 0.93,
      "hand": "right"
    },
    {
      "midi": 90,
      "time": 221,
      "duration": 0.25,
      "velocity": 0.93,
      "hand": "right"
    },
    {
      "midi": 81,
      "time": 221.25,
      "duration": 0.25,
      "velocity": 0.09,
      "hand": "right"
    },
    {
      "midi": 84,
      "time": 221.25,
      "duration": 0.25,
      "velocity": 0.93,
      "hand": "right"
    },
    {
      "midi": 87,
      "time": 221.25,
      "duration": 0.25,
      "velocity": 0.93,
      "hand": "right"
    },
    {
      "midi": 89,
      "time": 221.25,
      "duration": 0.25,
      "velocity": 0.93,
      "hand": "right"
    },
    {
      "midi": 72,
      "time": 221.5,
      "duration": 0.25,
      "velocity": 0.09,
      "hand": "right"
    },
    {
      "midi": 91,
      "time": 221.5,
      "duration": 0.25,
      "velocity": 0.93,
      "hand": "right"
    },
    {
      "midi": 81,
      "time": 221.75,
      "duration": 0.25,
      "velocity": 0.09,
      "hand": "right"
    },
    {
      "midi": 84,
      "time": 221.75,
      "duration": 0.25,
      "velocity": 0.93,
      "hand": "right"
    },
    {
      "midi": 87,
      "time": 221.75,
      "duration": 0.25,
      "velocity": 0.93,
      "hand": "right"
    },
    {
      "midi": 89,
      "time": 221.75,
      "duration": 0.25,
      "velocity": 0.93,
      "hand": "right"
    },
    {
      "midi": 65,
      "time": 222,
      "duration": 0.25,
      "velocity": 0.09,
      "hand": "right"
    },
    {
      "midi": 90,
      "time": 222,
      "duration": 0.25,
      "velocity": 0.93,
      "hand": "right"
    },
    {
      "midi": 81,
      "time": 222.25,
      "duration": 0.25,
      "velocity": 0.09,
      "hand": "right"
    },
    {
      "midi": 84,
      "time": 222.25,
      "duration": 0.25,
      "velocity": 0.93,
      "hand": "right"
    },
    {
      "midi": 87,
      "time": 222.25,
      "duration": 0.25,
      "velocity": 0.93,
      "hand": "right"
    },
    {
      "midi": 89,
      "time": 222.25,
      "duration": 0.25,
      "velocity": 0.93,
      "hand": "right"
    },
    {
      "midi": 72,
      "time": 222.5,
      "duration": 0.25,
      "velocity": 0.09,
      "hand": "right"
    },
    {
      "midi": 91,
      "time": 222.5,
      "duration": 0.25,
      "velocity": 0.93,
      "hand": "right"
    },
    {
      "midi": 81,
      "time": 222.75,
      "duration": 0.25,
      "velocity": 0.09,
      "hand": "right"
    },
    {
      "midi": 84,
      "time": 222.75,
      "duration": 0.25,
      "velocity": 0.93,
      "hand": "right"
    },
    {
      "midi": 87,
      "time": 222.75,
      "duration": 0.25,
      "velocity": 0.93,
      "hand": "right"
    },
    {
      "midi": 89,
      "time": 222.75,
      "duration": 0.25,
      "velocity": 0.93,
      "hand": "right"
    },
    {
      "midi": 65,
      "time": 223,
      "duration": 0.25,
      "velocity": 0.09,
      "hand": "right"
    },
    {
      "midi": 90,
      "time": 223,
      "duration": 0.25,
      "velocity": 0.93,
      "hand": "right"
    },
    {
      "midi": 81,
      "time": 223.25,
      "duration": 0.25,
      "velocity": 0.09,
      "hand": "right"
    },
    {
      "midi": 84,
      "time": 223.25,
      "duration": 0.25,
      "velocity": 0.93,
      "hand": "right"
    },
    {
      "midi": 87,
      "time": 223.25,
      "duration": 0.25,
      "velocity": 0.93,
      "hand": "right"
    },
    {
      "midi": 89,
      "time": 223.25,
      "duration": 0.25,
      "velocity": 0.93,
      "hand": "right"
    },
    {
      "midi": 72,
      "time": 223.5,
      "duration": 0.25,
      "velocity": 0.09,
      "hand": "right"
    },
    {
      "midi": 91,
      "time": 223.5,
      "duration": 0.25,
      "velocity": 0.93,
      "hand": "right"
    },
    {
      "midi": 81,
      "time": 223.75,
      "duration": 0.25,
      "velocity": 0.09,
      "hand": "right"
    },
    {
      "midi": 84,
      "time": 223.75,
      "duration": 0.25,
      "velocity": 0.93,
      "hand": "right"
    },
    {
      "midi": 87,
      "time": 223.75,
      "duration": 0.25,
      "velocity": 0.93,
      "hand": "right"
    },
    {
      "midi": 89,
      "time": 223.75,
      "duration": 0.25,
      "velocity": 0.93,
      "hand": "right"
    },
    {
      "midi": 65,
      "time": 224,
      "duration": 0.25,
      "velocity": 0.09,
      "hand": "right"
    },
    {
      "midi": 90,
      "time": 224,
      "duration": 0.25,
      "velocity": 0.93,
      "hand": "right"
    },
    {
      "midi": 81,
      "time": 224.25,
      "duration": 0.25,
      "velocity": 0.09,
      "hand": "right"
    },
    {
      "midi": 84,
      "time": 224.25,
      "duration": 0.25,
      "velocity": 0.93,
      "hand": "right"
    },
    {
      "midi": 87,
      "time": 224.25,
      "duration": 0.25,
      "velocity": 0.93,
      "hand": "right"
    },
    {
      "midi": 89,
      "time": 224.25,
      "duration": 0.25,
      "velocity": 0.93,
      "hand": "right"
    },
    {
      "midi": 72,
      "time": 224.5,
      "duration": 0.25,
      "velocity": 0.09,
      "hand": "right"
    },
    {
      "midi": 91,
      "time": 224.5,
      "duration": 0.25,
      "velocity": 0.93,
      "hand": "right"
    },
    {
      "midi": 81,
      "time": 224.75,
      "duration": 0.25,
      "velocity": 0.09,
      "hand": "right"
    },
    {
      "midi": 84,
      "time": 224.75,
      "duration": 0.25,
      "velocity": 0.93,
      "hand": "right"
    },
    {
      "midi": 87,
      "time": 224.75,
      "duration": 0.25,
      "velocity": 0.93,
      "hand": "right"
    },
    {
      "midi": 89,
      "time": 224.75,
      "duration": 0.25,
      "velocity": 0.93,
      "hand": "right"
    },
    {
      "midi": 75,
      "time": 225,
      "duration": 0.5,
      "velocity": 0.09,
      "hand": "right"
    },
    {
      "midi": 88,
      "time": 225,
      "duration": 0.25,
      "velocity": 0.93,
      "hand": "right"
    },
    {
      "midi": 89,
      "time": 225.25,
      "duration": 0.25,
      "velocity": 0.93,
      "hand": "right"
    },
    {
      "midi": 101,
      "time": 225.5,
      "duration": 0.25,
      "velocity": 0.93,
      "hand": "right"
    },
    {
      "midi": 90,
      "time": 225.75,
      "duration": 0.25,
      "velocity": 0.93,
      "hand": "right"
    },
    {
      "midi": 101,
      "time": 226,
      "duration": 0.25,
      "velocity": 0.93,
      "hand": "right"
    },
    {
      "midi": 91,
      "time": 226.25,
      "duration": 0.25,
      "velocity": 0.93,
      "hand": "right"
    },
    {
      "midi": 92,
      "time": 226.5,
      "duration": 0.25,
      "velocity": 0.93,
      "hand": "right"
    },
    {
      "midi": 93,
      "time": 226.75,
      "duration": 0.25,
      "velocity": 0.93,
      "hand": "right"
    },
    {
      "midi": 98,
      "time": 227,
      "duration": 0.25,
      "velocity": 0.93,
      "hand": "right"
    },
    {
      "midi": 96,
      "time": 227.25,
      "duration": 0.25,
      "velocity": 0.93,
      "hand": "right"
    },
    {
      "midi": 94,
      "time": 227.5,
      "duration": 0.25,
      "velocity": 0.93,
      "hand": "right"
    },
    {
      "midi": 91,
      "time": 227.75,
      "duration": 0.25,
      "velocity": 0.93,
      "hand": "right"
    },
    {
      "midi": 89,
      "time": 228,
      "duration": 0.25,
      "velocity": 0.93,
      "hand": "right"
    },
    {
      "midi": 86,
      "time": 228.25,
      "duration": 0.25,
      "velocity": 0.93,
      "hand": "right"
    },
    {
      "midi": 87,
      "time": 228.5,
      "duration": 0.25,
      "velocity": 0.93,
      "hand": "right"
    },
    {
      "midi": 91,
      "time": 228.75,
      "duration": 0.25,
      "velocity": 0.93,
      "hand": "right"
    },
    {
      "midi": 89,
      "time": 229,
      "duration": 0.25,
      "velocity": 0.93,
      "hand": "right"
    },
    {
      "midi": 87,
      "time": 229.25,
      "duration": 0.25,
      "velocity": 0.93,
      "hand": "right"
    },
    {
      "midi": 84,
      "time": 229.5,
      "duration": 0.25,
      "velocity": 0.93,
      "hand": "right"
    },
    {
      "midi": 81,
      "time": 229.75,
      "duration": 0.25,
      "velocity": 0.93,
      "hand": "right"
    },
    {
      "midi": 82,
      "time": 230,
      "duration": 0.25,
      "velocity": 0.93,
      "hand": "right"
    },
    {
      "midi": 86,
      "time": 230.25,
      "duration": 0.25,
      "velocity": 0.93,
      "hand": "right"
    },
    {
      "midi": 84,
      "time": 230.5,
      "duration": 0.25,
      "velocity": 0.93,
      "hand": "right"
    },
    {
      "midi": 82,
      "time": 230.75,
      "duration": 0.25,
      "velocity": 0.93,
      "hand": "right"
    },
    {
      "midi": 79,
      "time": 231,
      "duration": 0.25,
      "velocity": 0.93,
      "hand": "right"
    },
    {
      "midi": 77,
      "time": 231.25,
      "duration": 0.25,
      "velocity": 0.93,
      "hand": "right"
    },
    {
      "midi": 74,
      "time": 231.5,
      "duration": 0.25,
      "velocity": 0.93,
      "hand": "right"
    },
    {
      "midi": 75,
      "time": 231.75,
      "duration": 0.25,
      "velocity": 0.93,
      "hand": "right"
    },
    {
      "midi": 79,
      "time": 232,
      "duration": 0.25,
      "velocity": 0.93,
      "hand": "right"
    },
    {
      "midi": 77,
      "time": 232.25,
      "duration": 0.25,
      "velocity": 0.93,
      "hand": "right"
    },
    {
      "midi": 75,
      "time": 232.5,
      "duration": 0.25,
      "velocity": 0.93,
      "hand": "right"
    },
    {
      "midi": 72,
      "time": 232.75,
      "duration": 0.25,
      "velocity": 0.93,
      "hand": "right"
    },
    {
      "midi": 60,
      "time": 233,
      "duration": 0.25,
      "velocity": 0.09,
      "hand": "right"
    },
    {
      "midi": 69,
      "time": 233,
      "duration": 0.25,
      "velocity": 0.93,
      "hand": "right"
    },
    {
      "midi": 62,
      "time": 233.25,
      "duration": 0.25,
      "velocity": 0.09,
      "hand": "right"
    },
    {
      "midi": 70,
      "time": 233.25,
      "duration": 0.25,
      "velocity": 0.93,
      "hand": "right"
    },
    {
      "midi": 65,
      "time": 233.5,
      "duration": 0.25,
      "velocity": 0.09,
      "hand": "right"
    },
    {
      "midi": 74,
      "time": 233.5,
      "duration": 0.25,
      "velocity": 0.93,
      "hand": "right"
    },
    {
      "midi": 63,
      "time": 233.75,
      "duration": 0.25,
      "velocity": 0.09,
      "hand": "right"
    },
    {
      "midi": 72,
      "time": 233.75,
      "duration": 0.25,
      "velocity": 0.93,
      "hand": "right"
    },
    {
      "midi": 62,
      "time": 234,
      "duration": 0.25,
      "velocity": 0.09,
      "hand": "right"
    },
    {
      "midi": 70,
      "time": 234,
      "duration": 0.25,
      "velocity": 0.93,
      "hand": "right"
    },
    {
      "midi": 58,
      "time": 234.25,
      "duration": 0.25,
      "velocity": 0.09,
      "hand": "left"
    },
    {
      "midi": 67,
      "time": 234.25,
      "duration": 0.25,
      "velocity": 0.93,
      "hand": "right"
    },
    {
      "midi": 57,
      "time": 234.5,
      "duration": 0.25,
      "velocity": 0.09,
      "hand": "left"
    },
    {
      "midi": 65,
      "time": 234.5,
      "duration": 0.25,
      "velocity": 0.93,
      "hand": "right"
    },
    {
      "midi": 53,
      "time": 234.75,
      "duration": 0.25,
      "velocity": 0.09,
      "hand": "left"
    },
    {
      "midi": 62,
      "time": 234.75,
      "duration": 0.25,
      "velocity": 0.93,
      "hand": "right"
    },
    {
      "midi": 55,
      "time": 235,
      "duration": 0.25,
      "velocity": 0.09,
      "hand": "left"
    },
    {
      "midi": 63,
      "time": 235,
      "duration": 0.25,
      "velocity": 0.93,
      "hand": "right"
    },
    {
      "midi": 58,
      "time": 235.25,
      "duration": 0.25,
      "velocity": 0.09,
      "hand": "left"
    },
    {
      "midi": 67,
      "time": 235.25,
      "duration": 0.25,
      "velocity": 0.93,
      "hand": "right"
    },
    {
      "midi": 57,
      "time": 235.5,
      "duration": 0.25,
      "velocity": 0.09,
      "hand": "left"
    },
    {
      "midi": 65,
      "time": 235.5,
      "duration": 0.25,
      "velocity": 0.93,
      "hand": "right"
    },
    {
      "midi": 55,
      "time": 235.75,
      "duration": 0.25,
      "velocity": 0.09,
      "hand": "left"
    },
    {
      "midi": 63,
      "time": 235.75,
      "duration": 0.25,
      "velocity": 0.93,
      "hand": "right"
    },
    {
      "midi": 51,
      "time": 236,
      "duration": 0.25,
      "velocity": 0.09,
      "hand": "left"
    },
    {
      "midi": 60,
      "time": 236,
      "duration": 0.25,
      "velocity": 0.93,
      "hand": "right"
    },
    {
      "midi": 48,
      "time": 236.25,
      "duration": 0.25,
      "velocity": 0.09,
      "hand": "left"
    },
    {
      "midi": 57,
      "time": 236.25,
      "duration": 0.25,
      "velocity": 0.93,
      "hand": "left"
    },
    {
      "midi": 51,
      "time": 236.5,
      "duration": 0.75,
      "velocity": 0.09,
      "hand": "left"
    },
    {
      "midi": 60,
      "time": 236.5,
      "duration": 0.25,
      "velocity": 0.93,
      "hand": "right"
    },
    {
      "midi": 55,
      "time": 236.75,
      "duration": 0.25,
      "velocity": 0.93,
      "hand": "left"
    },
    {
      "midi": 53,
      "time": 237,
      "duration": 1.5,
      "velocity": 0.93,
      "hand": "left"
    },
    {
      "midi": 50,
      "time": 237.25,
      "duration": 0.25,
      "velocity": 0.09,
      "hand": "left"
    },
    {
      "midi": 48,
      "time": 237.5,
      "duration": 0.25,
      "velocity": 0.09,
      "hand": "left"
    },
    {
      "midi": 46,
      "time": 237.75,
      "duration": 0.25,
      "velocity": 0.09,
      "hand": "left"
    },
    {
      "midi": 41,
      "time": 238,
      "duration": 0.5,
      "velocity": 0.09,
      "hand": "left"
    },
    {
      "midi": 57,
      "time": 238,
      "duration": 0.5,
      "velocity": 0.93,
      "hand": "left"
    },
    {
      "midi": 62,
      "time": 238,
      "duration": 0.5,
      "velocity": 0.93,
      "hand": "right"
    },
    {
      "midi": 46,
      "time": 238.5,
      "duration": 1,
      "velocity": 0.09,
      "hand": "left"
    },
    {
      "midi": 53,
      "time": 238.5,
      "duration": 1,
      "velocity": 0.09,
      "hand": "left"
    },
    {
      "midi": 58,
      "time": 238.5,
      "duration": 1,
      "velocity": 0.93,
      "hand": "left"
    },
    {
      "midi": 62,
      "time": 238.5,
      "duration": 1,
      "velocity": 0.93,
      "hand": "right"
    },
    {
      "midi": 41,
      "time": 239.5,
      "duration": 0.5,
      "velocity": 0.09,
      "hand": "left"
    },
    {
      "midi": 53,
      "time": 239.5,
      "duration": 0.5,
      "velocity": 0.09,
      "hand": "left"
    },
    {
      "midi": 57,
      "time": 239.5,
      "duration": 0.5,
      "velocity": 0.93,
      "hand": "left"
    },
    {
      "midi": 62,
      "time": 239.5,
      "duration": 0.5,
      "velocity": 0.93,
      "hand": "right"
    },
    {
      "midi": 46,
      "time": 240,
      "duration": 1,
      "velocity": 0.09,
      "hand": "left"
    },
    {
      "midi": 53,
      "time": 240,
      "duration": 1,
      "velocity": 0.09,
      "hand": "left"
    },
    {
      "midi": 58,
      "time": 240,
      "duration": 1,
      "velocity": 0.93,
      "hand": "left"
    },
    {
      "midi": 62,
      "time": 240,
      "duration": 1,
      "velocity": 0.93,
      "hand": "right"
    },
    {
      "midi": 41,
      "time": 241,
      "duration": 0.5,
      "velocity": 0.09,
      "hand": "left"
    },
    {
      "midi": 53,
      "time": 241,
      "duration": 0.5,
      "velocity": 0.09,
      "hand": "left"
    },
    {
      "midi": 62,
      "time": 241,
      "duration": 0.5,
      "velocity": 0.93,
      "hand": "right"
    },
    {
      "midi": 70,
      "time": 241,
      "duration": 0.5,
      "velocity": 0.93,
      "hand": "right"
    },
    {
      "midi": 46,
      "time": 241.5,
      "duration": 1,
      "velocity": 0.09,
      "hand": "left"
    },
    {
      "midi": 53,
      "time": 241.5,
      "duration": 1,
      "velocity": 0.09,
      "hand": "left"
    },
    {
      "midi": 58,
      "time": 241.5,
      "duration": 1,
      "velocity": 0.71,
      "hand": "left"
    },
    {
      "midi": 62,
      "time": 241.5,
      "duration": 1.5,
      "velocity": 0.71,
      "hand": "right"
    },
    {
      "midi": 40,
      "time": 242.5,
      "duration": 0.5,
      "velocity": 0.09,
      "hand": "left"
    },
    {
      "midi": 52,
      "time": 242.5,
      "duration": 0.5,
      "velocity": 0.09,
      "hand": "left"
    },
    {
      "midi": 56,
      "time": 242.5,
      "duration": 0.5,
      "velocity": 0.71,
      "hand": "left"
    },
    {
      "midi": 45,
      "time": 243,
      "duration": 1,
      "velocity": 0.09,
      "hand": "left"
    },
    {
      "midi": 52,
      "time": 243,
      "duration": 1,
      "velocity": 0.09,
      "hand": "left"
    },
    {
      "midi": 57,
      "time": 243,
      "duration": 1,
      "velocity": 0.93,
      "hand": "left"
    },
    {
      "midi": 61,
      "time": 243,
      "duration": 1,
      "velocity": 0.93,
      "hand": "right"
    },
    {
      "midi": 40,
      "time": 244,
      "duration": 0.5,
      "velocity": 0.09,
      "hand": "left"
    },
    {
      "midi": 52,
      "time": 244,
      "duration": 0.5,
      "velocity": 0.09,
      "hand": "left"
    },
    {
      "midi": 61,
      "time": 244,
      "duration": 0.5,
      "velocity": 0.93,
      "hand": "right"
    },
    {
      "midi": 69,
      "time": 244,
      "duration": 0.5,
      "velocity": 0.93,
      "hand": "right"
    },
    {
      "midi": 45,
      "time": 244.5,
      "duration": 1,
      "velocity": 0.09,
      "hand": "left"
    },
    {
      "midi": 52,
      "time": 244.5,
      "duration": 1,
      "velocity": 0.09,
      "hand": "left"
    },
    {
      "midi": 57,
      "time": 244.5,
      "duration": 1,
      "velocity": 0.93,
      "hand": "left"
    },
    {
      "midi": 61,
      "time": 244.5,
      "duration": 1,
      "velocity": 0.93,
      "hand": "right"
    },
    {
      "midi": 38,
      "time": 245.5,
      "duration": 0.5,
      "velocity": 0.09,
      "hand": "left"
    },
    {
      "midi": 54,
      "time": 245.5,
      "duration": 0.5,
      "velocity": 0.93,
      "hand": "left"
    },
    {
      "midi": 60,
      "time": 245.5,
      "duration": 0.5,
      "velocity": 0.93,
      "hand": "right"
    },
    {
      "midi": 43,
      "time": 246,
      "duration": 1,
      "velocity": 0.09,
      "hand": "left"
    },
    {
      "midi": 50,
      "time": 246,
      "duration": 1,
      "velocity": 0.09,
      "hand": "left"
    },
    {
      "midi": 55,
      "time": 246,
      "duration": 1,
      "velocity": 0.93,
      "hand": "left"
    },
    {
      "midi": 58,
      "time": 246,
      "duration": 1,
      "velocity": 0.93,
      "hand": "left"
    },
    {
      "midi": 36,
      "time": 247,
      "duration": 0.5,
      "velocity": 0.09,
      "hand": "left"
    },
    {
      "midi": 55,
      "time": 247,
      "duration": 0.5,
      "velocity": 0.93,
      "hand": "left"
    },
    {
      "midi": 60,
      "time": 247,
      "duration": 0.5,
      "velocity": 0.93,
      "hand": "right"
    },
    {
      "midi": 63,
      "time": 247,
      "duration": 0.5,
      "velocity": 0.93,
      "hand": "right"
    },
    {
      "midi": 41,
      "time": 247.5,
      "duration": 1,
      "velocity": 0.09,
      "hand": "left"
    },
    {
      "midi": 53,
      "time": 247.5,
      "duration": 1,
      "velocity": 0.93,
      "hand": "left"
    },
    {
      "midi": 58,
      "time": 247.5,
      "duration": 1,
      "velocity": 0.93,
      "hand": "left"
    },
    {
      "midi": 62,
      "time": 247.5,
      "duration": 1,
      "velocity": 0.93,
      "hand": "right"
    },
    {
      "midi": 41,
      "time": 248.5,
      "duration": 0.5,
      "velocity": 0.09,
      "hand": "left"
    },
    {
      "midi": 53,
      "time": 248.5,
      "duration": 0.5,
      "velocity": 0.93,
      "hand": "left"
    },
    {
      "midi": 57,
      "time": 248.5,
      "duration": 0.5,
      "velocity": 0.93,
      "hand": "left"
    },
    {
      "midi": 60,
      "time": 248.5,
      "duration": 0.5,
      "velocity": 0.93,
      "hand": "right"
    },
    {
      "midi": 34,
      "time": 249,
      "duration": 0.5,
      "velocity": 0.09,
      "hand": "left"
    },
    {
      "midi": 46,
      "time": 249,
      "duration": 0.5,
      "velocity": 0.09,
      "hand": "left"
    },
    {
      "midi": 53,
      "time": 249,
      "duration": 0.5,
      "velocity": 0.93,
      "hand": "left"
    },
    {
      "midi": 58,
      "time": 249,
      "duration": 0.5,
      "velocity": 0.93,
      "hand": "left"
    },
    {
      "midi": 62,
      "time": 249,
      "duration": 0.5,
      "velocity": 0.93,
      "hand": "right"
    },
    {
      "midi": 46,
      "time": 250,
      "duration": 0.5,
      "velocity": 0.09,
      "hand": "left"
    },
    {
      "midi": 53,
      "time": 250,
      "duration": 0.5,
      "velocity": 0.09,
      "hand": "left"
    },
    {
      "midi": 58,
      "time": 250,
      "duration": 0.5,
      "velocity": 0.09,
      "hand": "left"
    },
    {
      "midi": 62,
      "time": 250,
      "duration": 0.5,
      "velocity": 0.93,
      "hand": "right"
    },
    {
      "midi": 65,
      "time": 250,
      "duration": 0.5,
      "velocity": 0.93,
      "hand": "right"
    },
    {
      "midi": 74,
      "time": 250,
      "duration": 0.5,
      "velocity": 0.93,
      "hand": "right"
    },
    {
      "midi": 45,
      "time": 250.5,
      "duration": 1.5,
      "velocity": 0.09,
      "hand": "left"
    },
    {
      "midi": 50,
      "time": 250.5,
      "duration": 2.5,
      "velocity": 0.09,
      "hand": "left"
    },
    {
      "midi": 57,
      "time": 250.5,
      "duration": 1.5,
      "velocity": 0.09,
      "hand": "left"
    },
    {
      "midi": 60,
      "time": 250.5,
      "duration": 1.5,
      "velocity": 0.93,
      "hand": "right"
    },
    {
      "midi": 62,
      "time": 250.5,
      "duration": 1.5,
      "velocity": 0.93,
      "hand": "right"
    },
    {
      "midi": 66,
      "time": 250.5,
      "duration": 1.5,
      "velocity": 0.93,
      "hand": "right"
    },
    {
      "midi": 74,
      "time": 250.5,
      "duration": 1.5,
      "velocity": 0.93,
      "hand": "right"
    },
    {
      "midi": 43,
      "time": 252,
      "duration": 1,
      "velocity": 0.09,
      "hand": "left"
    },
    {
      "midi": 58,
      "time": 252,
      "duration": 1,
      "velocity": 0.09,
      "hand": "left"
    },
    {
      "midi": 62,
      "time": 252,
      "duration": 1,
      "velocity": 0.93,
      "hand": "right"
    },
    {
      "midi": 67,
      "time": 252,
      "duration": 1,
      "velocity": 0.93,
      "hand": "right"
    },
    {
      "midi": 70,
      "time": 252,
      "duration": 1,
      "velocity": 0.93,
      "hand": "right"
    },
    {
      "midi": 48,
      "time": 253,
      "duration": 0.5,
      "velocity": 0.09,
      "hand": "left"
    },
    {
      "midi": 58,
      "time": 253,
      "duration": 0.25,
      "velocity": 0.93,
      "hand": "left"
    },
    {
      "midi": 63,
      "time": 253,
      "duration": 0.25,
      "velocity": 0.93,
      "hand": "right"
    },
    {
      "midi": 67,
      "time": 253,
      "duration": 0.25,
      "velocity": 0.93,
      "hand": "right"
    },
    {
      "midi": 58,
      "time": 253.25,
      "duration": 0.125,
      "velocity": 0.93,
      "hand": "left"
    },
    {
      "midi": 48,
      "time": 253.5,
      "duration": 1,
      "velocity": 0.09,
      "hand": "left"
    },
    {
      "midi": 58,
      "time": 253.5,
      "duration": 1,
      "velocity": 0.93,
      "hand": "left"
    },
    {
      "midi": 63,
      "time": 253.5,
      "duration": 1,
      "velocity": 0.93,
      "hand": "right"
    },
    {
      "midi": 67,
      "time": 253.5,
      "duration": 1,
      "velocity": 0.93,
      "hand": "right"
    },
    {
      "midi": 69,
      "time": 253.5,
      "duration": 0.125,
      "velocity": 0.93,
      "hand": "right"
    },
    {
      "midi": 41,
      "time": 254.5,
      "duration": 0.5,
      "velocity": 0.09,
      "hand": "left"
    },
    {
      "midi": 53,
      "time": 254.5,
      "duration": 0.5,
      "velocity": 0.09,
      "hand": "left"
    },
    {
      "midi": 57,
      "time": 254.5,
      "duration": 0.5,
      "velocity": 0.93,
      "hand": "left"
    },
    {
      "midi": 63,
      "time": 254.5,
      "duration": 0.5,
      "velocity": 0.93,
      "hand": "right"
    },
    {
      "midi": 65,
      "time": 254.5,
      "duration": 1,
      "velocity": 0.93,
      "hand": "right"
    },
    {
      "midi": 34,
      "time": 255,
      "duration": 0.5,
      "velocity": 0.09,
      "hand": "left"
    },
    {
      "midi": 46,
      "time": 255,
      "duration": 0.5,
      "velocity": 0.09,
      "hand": "left"
    },
    {
      "midi": 58,
      "time": 255,
      "duration": 0.5,
      "velocity": 0.93,
      "hand": "left"
    },
    {
      "midi": 62,
      "time": 255,
      "duration": 0.5,
      "velocity": 0.93,
      "hand": "right"
    },
    {
      "midi": 46,
      "time": 256,
      "duration": 0.5,
      "velocity": 0.09,
      "hand": "left"
    },
    {
      "midi": 53,
      "time": 256,
      "duration": 0.5,
      "velocity": 0.09,
      "hand": "left"
    },
    {
      "midi": 58,
      "time": 256,
      "duration": 0.5,
      "velocity": 0.09,
      "hand": "left"
    },
    {
      "midi": 62,
      "time": 256,
      "duration": 0.5,
      "velocity": 0.93,
      "hand": "right"
    },
    {
      "midi": 65,
      "time": 256,
      "duration": 0.5,
      "velocity": 0.93,
      "hand": "right"
    },
    {
      "midi": 74,
      "time": 256,
      "duration": 0.5,
      "velocity": 0.93,
      "hand": "right"
    },
    {
      "midi": 46,
      "time": 256.5,
      "duration": 1,
      "velocity": 0.09,
      "hand": "left"
    },
    {
      "midi": 53,
      "time": 256.5,
      "duration": 1,
      "velocity": 0.09,
      "hand": "left"
    },
    {
      "midi": 58,
      "time": 256.5,
      "duration": 1,
      "velocity": 0.09,
      "hand": "left"
    },
    {
      "midi": 62,
      "time": 256.5,
      "duration": 1,
      "velocity": 0.93,
      "hand": "right"
    },
    {
      "midi": 70,
      "time": 256.5,
      "duration": 1,
      "velocity": 0.93,
      "hand": "right"
    },
    {
      "midi": 58,
      "time": 257.5,
      "duration": 1,
      "velocity": 0.09,
      "hand": "left"
    },
    {
      "midi": 61,
      "time": 257.5,
      "duration": 1,
      "velocity": 0.09,
      "hand": "right"
    },
    {
      "midi": 64,
      "time": 257.5,
      "duration": 1,
      "velocity": 0.09,
      "hand": "right"
    },
    {
      "midi": 67,
      "time": 257.5,
      "duration": 1,
      "velocity": 0.93,
      "hand": "right"
    },
    {
      "midi": 70,
      "time": 257.5,
      "duration": 1,
      "velocity": 0.93,
      "hand": "right"
    },
    {
      "midi": 79,
      "time": 257.5,
      "duration": 1,
      "velocity": 0.93,
      "hand": "right"
    },
    {
      "midi": 58,
      "time": 258.5,
      "duration": 0.5,
      "velocity": 0.09,
      "hand": "left"
    },
    {
      "midi": 62,
      "time": 258.5,
      "duration": 0.5,
      "velocity": 0.09,
      "hand": "right"
    },
    {
      "midi": 65,
      "time": 258.5,
      "duration": 0.5,
      "velocity": 0.09,
      "hand": "right"
    },
    {
      "midi": 70,
      "time": 258.5,
      "duration": 0.5,
      "velocity": 0.93,
      "hand": "right"
    },
    {
      "midi": 77,
      "time": 258.5,
      "duration": 0.5,
      "velocity": 0.93,
      "hand": "right"
    },
    {
      "midi": 58,
      "time": 259,
      "duration": 0.5,
      "velocity": 0.09,
      "hand": "left"
    },
    {
      "midi": 61,
      "time": 259,
      "duration": 0.5,
      "velocity": 0.09,
      "hand": "right"
    },
    {
      "midi": 67,
      "time": 259,
      "duration": 0.5,
      "velocity": 0.09,
      "hand": "right"
    },
    {
      "midi": 70,
      "time": 259,
      "duration": 0.5,
      "velocity": 0.93,
      "hand": "right"
    },
    {
      "midi": 76,
      "time": 259,
      "duration": 0.5,
      "velocity": 0.93,
      "hand": "right"
    },
    {
      "midi": 58,
      "time": 259.5,
      "duration": 1,
      "velocity": 0.09,
      "hand": "left"
    },
    {
      "midi": 62,
      "time": 259.5,
      "duration": 1,
      "velocity": 0.09,
      "hand": "right"
    },
    {
      "midi": 65,
      "time": 259.5,
      "duration": 1,
      "velocity": 0.09,
      "hand": "right"
    },
    {
      "midi": 68,
      "time": 259.5,
      "duration": 2.5,
      "velocity": 0.93,
      "hand": "right"
    },
    {
      "midi": 70,
      "time": 259.5,
      "duration": 2.5,
      "velocity": 0.93,
      "hand": "right"
    },
    {
      "midi": 77,
      "time": 259.5,
      "duration": 2.5,
      "velocity": 0.93,
      "hand": "right"
    },
    {
      "midi": 34,
      "time": 260.5,
      "duration": 0.5,
      "velocity": 0.09,
      "hand": "left"
    },
    {
      "midi": 46,
      "time": 260.5,
      "duration": 0.5,
      "velocity": 0.09,
      "hand": "left"
    },
    {
      "midi": 34,
      "time": 261,
      "duration": 0.5,
      "velocity": 0.09,
      "hand": "left"
    },
    {
      "midi": 46,
      "time": 261,
      "duration": 0.5,
      "velocity": 0.09,
      "hand": "left"
    },
    {
      "midi": 46,
      "time": 262,
      "duration": 0.5,
      "velocity": 0.09,
      "hand": "left"
    },
    {
      "midi": 58,
      "time": 262,
      "duration": 0.5,
      "velocity": 0.09,
      "hand": "left"
    },
    {
      "midi": 62,
      "time": 262,
      "duration": 0.5,
      "velocity": 0.93,
      "hand": "right"
    },
    {
      "midi": 68,
      "time": 262,
      "duration": 0.5,
      "velocity": 0.93,
      "hand": "right"
    },
    {
      "midi": 70,
      "time": 262,
      "duration": 0.5,
      "velocity": 0.93,
      "hand": "right"
    },
    {
      "midi": 46,
      "time": 262.5,
      "duration": 1,
      "velocity": 0.09,
      "hand": "left"
    },
    {
      "midi": 58,
      "time": 262.5,
      "duration": 1,
      "velocity": 0.09,
      "hand": "left"
    },
    {
      "midi": 62,
      "time": 262.5,
      "duration": 1,
      "velocity": 0.71,
      "hand": "right"
    },
    {
      "midi": 68,
      "time": 262.5,
      "duration": 1,
      "velocity": 0.71,
      "hand": "right"
    },
    {
      "midi": 70,
      "time": 262.5,
      "duration": 1.5,
      "velocity": 0.71,
      "hand": "right"
    },
    {
      "midi": 51,
      "time": 263.5,
      "duration": 0.5,
      "velocity": 0.09,
      "hand": "left"
    },
    {
      "midi": 58,
      "time": 263.5,
      "duration": 0.5,
      "velocity": 0.09,
      "hand": "left"
    },
    {
      "midi": 63,
      "time": 263.5,
      "duration": 0.5,
      "velocity": 0.71,
      "hand": "right"
    },
    {
      "midi": 67,
      "time": 263.5,
      "duration": 0.5,
      "velocity": 0.71,
      "hand": "right"
    },
    {
      "midi": 51,
      "time": 264,
      "duration": 1,
      "velocity": 0.09,
      "hand": "left"
    },
    {
      "midi": 58,
      "time": 264,
      "duration": 1,
      "velocity": 0.09,
      "hand": "left"
    },
    {
      "midi": 63,
      "time": 264,
      "duration": 1,
      "velocity": 0.93,
      "hand": "right"
    },
    {
      "midi": 67,
      "time": 264,
      "duration": 1,
      "velocity": 0.93,
      "hand": "right"
    },
    {
      "midi": 70,
      "time": 264,
      "duration": 1,
      "velocity": 0.93,
      "hand": "right"
    },
    {
      "midi": 48,
      "time": 265,
      "duration": 0.5,
      "velocity": 0.09,
      "hand": "left"
    },
    {
      "midi": 60,
      "time": 265,
      "duration": 0.5,
      "velocity": 0.09,
      "hand": "right"
    },
    {
      "midi": 63,
      "time": 265,
      "duration": 0.5,
      "velocity": 0.93,
      "hand": "right"
    },
    {
      "midi": 67,
      "time": 265,
      "duration": 0.5,
      "velocity": 0.93,
      "hand": "right"
    },
    {
      "midi": 75,
      "time": 265,
      "duration": 0.5,
      "velocity": 0.93,
      "hand": "right"
    },
    {
      "midi": 48,
      "time": 265.5,
      "duration": 1,
      "velocity": 0.09,
      "hand": "left"
    },
    {
      "midi": 60,
      "time": 265.5,
      "duration": 1,
      "velocity": 0.09,
      "hand": "right"
    },
    {
      "midi": 63,
      "time": 265.5,
      "duration": 1,
      "velocity": 0.93,
      "hand": "right"
    },
    {
      "midi": 67,
      "time": 265.5,
      "duration": 1,
      "velocity": 0.93,
      "hand": "right"
    },
    {
      "midi": 75,
      "time": 265.5,
      "duration": 1,
      "velocity": 0.93,
      "hand": "right"
    },
    {
      "midi": 48,
      "time": 266.5,
      "duration": 0.5,
      "velocity": 0.09,
      "hand": "left"
    },
    {
      "midi": 55,
      "time": 266.5,
      "duration": 0.5,
      "velocity": 0.09,
      "hand": "left"
    },
    {
      "midi": 60,
      "time": 266.5,
      "duration": 0.5,
      "velocity": 0.93,
      "hand": "right"
    },
    {
      "midi": 63,
      "time": 266.5,
      "duration": 0.5,
      "velocity": 0.93,
      "hand": "right"
    },
    {
      "midi": 67,
      "time": 266.5,
      "duration": 0.5,
      "velocity": 0.93,
      "hand": "right"
    },
    {
      "midi": 48,
      "time": 267,
      "duration": 1,
      "velocity": 0.09,
      "hand": "left"
    },
    {
      "midi": 55,
      "time": 267,
      "duration": 1,
      "velocity": 0.09,
      "hand": "left"
    },
    {
      "midi": 60,
      "time": 267,
      "duration": 1,
      "velocity": 0.93,
      "hand": "right"
    },
    {
      "midi": 63,
      "time": 267,
      "duration": 1,
      "velocity": 0.93,
      "hand": "right"
    },
    {
      "midi": 67,
      "time": 267,
      "duration": 1,
      "velocity": 0.93,
      "hand": "right"
    },
    {
      "midi": 43,
      "time": 268,
      "duration": 0.5,
      "velocity": 0.09,
      "hand": "left"
    },
    {
      "midi": 55,
      "time": 268,
      "duration": 0.5,
      "velocity": 0.09,
      "hand": "left"
    },
    {
      "midi": 58,
      "time": 268,
      "duration": 0.5,
      "velocity": 0.93,
      "hand": "left"
    },
    {
      "midi": 62,
      "time": 268,
      "duration": 0.5,
      "velocity": 0.93,
      "hand": "right"
    },
    {
      "midi": 70,
      "time": 268,
      "duration": 0.5,
      "velocity": 0.93,
      "hand": "right"
    },
    {
      "midi": 43,
      "time": 268.5,
      "duration": 1,
      "velocity": 0.09,
      "hand": "left"
    },
    {
      "midi": 55,
      "time": 268.5,
      "duration": 1,
      "velocity": 0.09,
      "hand": "left"
    },
    {
      "midi": 58,
      "time": 268.5,
      "duration": 1,
      "velocity": 0.93,
      "hand": "left"
    },
    {
      "midi": 62,
      "time": 268.5,
      "duration": 1,
      "velocity": 0.93,
      "hand": "right"
    },
    {
      "midi": 70,
      "time": 268.5,
      "duration": 1,
      "velocity": 0.93,
      "hand": "right"
    },
    {
      "midi": 48,
      "time": 269.5,
      "duration": 0.5,
      "velocity": 0.09,
      "hand": "left"
    },
    {
      "midi": 58,
      "time": 269.5,
      "duration": 0.5,
      "velocity": 0.93,
      "hand": "left"
    },
    {
      "midi": 64,
      "time": 269.5,
      "duration": 0.5,
      "velocity": 0.93,
      "hand": "right"
    },
    {
      "midi": 72,
      "time": 269.5,
      "duration": 0.5,
      "velocity": 0.93,
      "hand": "right"
    },
    {
      "midi": 41,
      "time": 270,
      "duration": 3,
      "velocity": 0.09,
      "hand": "left"
    },
    {
      "midi": 48,
      "time": 270,
      "duration": 3,
      "velocity": 0.09,
      "hand": "left"
    },
    {
      "midi": 58,
      "time": 270,
      "duration": 0.5,
      "velocity": 0.71,
      "hand": "left"
    },
    {
      "midi": 63,
      "time": 270,
      "duration": 3,
      "velocity": 0.71,
      "hand": "right"
    },
    {
      "midi": 65,
      "time": 270,
      "duration": 4,
      "velocity": 0.71,
      "hand": "right"
    },
    {
      "midi": 57,
      "time": 270.5,
      "duration": 0.5,
      "velocity": 0.71,
      "hand": "left"
    },
    {
      "midi": 62,
      "time": 271,
      "duration": 0.5,
      "velocity": 0.71,
      "hand": "right"
    },
    {
      "midi": 60,
      "time": 271.5,
      "duration": 0.5,
      "velocity": 0.71,
      "hand": "right"
    },
    {
      "midi": 55,
      "time": 272,
      "duration": 0.5,
      "velocity": 0.71,
      "hand": "left"
    },
    {
      "midi": 57,
      "time": 272.5,
      "duration": 0.5,
      "velocity": 0.71,
      "hand": "left"
    },
    {
      "midi": 46,
      "time": 273,
      "duration": 1.5,
      "velocity": 0.09,
      "hand": "left"
    },
    {
      "midi": 55,
      "time": 273,
      "duration": 0.5,
      "velocity": 0.71,
      "hand": "left"
    },
    {
      "midi": 62,
      "time": 273,
      "duration": 1,
      "velocity": 0.71,
      "hand": "right"
    },
    {
      "midi": 53,
      "time": 273.5,
      "duration": 1,
      "velocity": 0.71,
      "hand": "left"
    },
    {
      "midi": 62,
      "time": 274,
      "duration": 0.5,
      "velocity": 0.71,
      "hand": "right"
    },
    {
      "midi": 74,
      "time": 274,
      "duration": 0.5,
      "velocity": 0.71,
      "hand": "right"
    },
    {
      "midi": 46,
      "time": 274.5,
      "duration": 1,
      "velocity": 0.09,
      "hand": "left"
    },
    {
      "midi": 53,
      "time": 274.5,
      "duration": 1,
      "velocity": 0.09,
      "hand": "left"
    },
    {
      "midi": 62,
      "time": 274.5,
      "duration": 1,
      "velocity": 0.93,
      "hand": "right"
    },
    {
      "midi": 74,
      "time": 274.5,
      "duration": 1,
      "velocity": 0.93,
      "hand": "right"
    },
    {
      "midi": 46,
      "time": 275.5,
      "duration": 0.5,
      "velocity": 0.09,
      "hand": "left"
    },
    {
      "midi": 54,
      "time": 275.5,
      "duration": 0.5,
      "velocity": 0.09,
      "hand": "left"
    },
    {
      "midi": 62,
      "time": 275.5,
      "duration": 0.5,
      "velocity": 0.93,
      "hand": "right"
    },
    {
      "midi": 70,
      "time": 275.5,
      "duration": 0.5,
      "velocity": 0.93,
      "hand": "right"
    },
    {
      "midi": 46,
      "time": 276,
      "duration": 1,
      "velocity": 0.09,
      "hand": "left"
    },
    {
      "midi": 54,
      "time": 276,
      "duration": 1,
      "velocity": 0.09,
      "hand": "left"
    },
    {
      "midi": 62,
      "time": 276,
      "duration": 1,
      "velocity": 0.93,
      "hand": "right"
    },
    {
      "midi": 70,
      "time": 276,
      "duration": 1,
      "velocity": 0.93,
      "hand": "right"
    },
    {
      "midi": 46,
      "time": 277,
      "duration": 0.5,
      "velocity": 0.09,
      "hand": "left"
    },
    {
      "midi": 55,
      "time": 277,
      "duration": 0.5,
      "velocity": 0.09,
      "hand": "left"
    },
    {
      "midi": 62,
      "time": 277,
      "duration": 0.25,
      "velocity": 0.93,
      "hand": "right"
    },
    {
      "midi": 67,
      "time": 277,
      "duration": 0.25,
      "velocity": 0.93,
      "hand": "right"
    },
    {
      "midi": 58,
      "time": 277.25,
      "duration": 0.125,
      "velocity": 0.93,
      "hand": "left"
    },
    {
      "midi": 48,
      "time": 277.5,
      "duration": 1,
      "velocity": 0.09,
      "hand": "left"
    },
    {
      "midi": 55,
      "time": 277.5,
      "duration": 1,
      "velocity": 0.09,
      "hand": "left"
    },
    {
      "midi": 58,
      "time": 277.5,
      "duration": 1,
      "velocity": 0.93,
      "hand": "left"
    },
    {
      "midi": 63,
      "time": 277.5,
      "duration": 1,
      "velocity": 0.93,
      "hand": "right"
    },
    {
      "midi": 67,
      "time": 277.5,
      "duration": 1,
      "velocity": 0.93,
      "hand": "right"
    },
    {
      "midi": 69,
      "time": 277.5,
      "duration": 0.125,
      "velocity": 0.93,
      "hand": "right"
    },
    {
      "midi": 48,
      "time": 278.5,
      "duration": 0.5,
      "velocity": 0.09,
      "hand": "left"
    },
    {
      "midi": 57,
      "time": 278.5,
      "duration": 0.5,
      "velocity": 0.09,
      "hand": "left"
    },
    {
      "midi": 63,
      "time": 278.5,
      "duration": 0.5,
      "velocity": 0.93,
      "hand": "right"
    },
    {
      "midi": 65,
      "time": 278.5,
      "duration": 0.5,
      "velocity": 0.93,
      "hand": "right"
    },
    {
      "midi": 50,
      "time": 279,
      "duration": 1,
      "velocity": 0.09,
      "hand": "left"
    },
    {
      "midi": 57,
      "time": 279,
      "duration": 1,
      "velocity": 0.09,
      "hand": "left"
    },
    {
      "midi": 62,
      "time": 279,
      "duration": 1,
      "velocity": 0.93,
      "hand": "right"
    },
    {
      "midi": 65,
      "time": 279,
      "duration": 1,
      "velocity": 0.93,
      "hand": "right"
    },
    {
      "midi": 50,
      "time": 280,
      "duration": 0.5,
      "velocity": 0.09,
      "hand": "left"
    },
    {
      "midi": 57,
      "time": 280,
      "duration": 0.5,
      "velocity": 0.09,
      "hand": "left"
    },
    {
      "midi": 60,
      "time": 280,
      "duration": 0.5,
      "velocity": 0.09,
      "hand": "right"
    },
    {
      "midi": 66,
      "time": 280,
      "duration": 0.5,
      "velocity": 0.93,
      "hand": "right"
    },
    {
      "midi": 74,
      "time": 280,
      "duration": 0.5,
      "velocity": 0.93,
      "hand": "right"
    },
    {
      "midi": 51,
      "time": 280.5,
      "duration": 1,
      "velocity": 0.09,
      "hand": "left"
    },
    {
      "midi": 55,
      "time": 280.5,
      "duration": 1,
      "velocity": 0.09,
      "hand": "left"
    },
    {
      "midi": 58,
      "time": 280.5,
      "duration": 1,
      "velocity": 0.09,
      "hand": "left"
    },
    {
      "midi": 67,
      "time": 280.5,
      "duration": 1,
      "velocity": 0.93,
      "hand": "right"
    },
    {
      "midi": 70,
      "time": 280.5,
      "duration": 1,
      "velocity": 0.93,
      "hand": "right"
    },
    {
      "midi": 52,
      "time": 281.5,
      "duration": 1,
      "velocity": 0.09,
      "hand": "left"
    },
    {
      "midi": 58,
      "time": 281.5,
      "duration": 1,
      "velocity": 0.09,
      "hand": "left"
    },
    {
      "midi": 61,
      "time": 281.5,
      "duration": 1,
      "velocity": 0.09,
      "hand": "right"
    },
    {
      "midi": 67,
      "time": 281.5,
      "duration": 1,
      "velocity": 0.93,
      "hand": "right"
    },
    {
      "midi": 70,
      "time": 281.5,
      "duration": 1,
      "velocity": 0.93,
      "hand": "right"
    },
    {
      "midi": 79,
      "time": 281.5,
      "duration": 1,
      "velocity": 0.93,
      "hand": "right"
    },
    {
      "midi": 53,
      "time": 282.5,
      "duration": 0.5,
      "velocity": 0.09,
      "hand": "left"
    },
    {
      "midi": 58,
      "time": 282.5,
      "duration": 0.5,
      "velocity": 0.09,
      "hand": "left"
    },
    {
      "midi": 62,
      "time": 282.5,
      "duration": 0.5,
      "velocity": 0.09,
      "hand": "right"
    },
    {
      "midi": 65,
      "time": 282.5,
      "duration": 0.5,
      "velocity": 0.93,
      "hand": "right"
    },
    {
      "midi": 70,
      "time": 282.5,
      "duration": 0.5,
      "velocity": 0.93,
      "hand": "right"
    },
    {
      "midi": 77,
      "time": 282.5,
      "duration": 0.5,
      "velocity": 0.93,
      "hand": "right"
    },
    {
      "midi": 55,
      "time": 283,
      "duration": 0.5,
      "velocity": 0.09,
      "hand": "left"
    },
    {
      "midi": 58,
      "time": 283,
      "duration": 0.5,
      "velocity": 0.09,
      "hand": "left"
    },
    {
      "midi": 61,
      "time": 283,
      "duration": 0.5,
      "velocity": 0.09,
      "hand": "right"
    },
    {
      "midi": 64,
      "time": 283,
      "duration": 0.5,
      "velocity": 0.93,
      "hand": "right"
    },
    {
      "midi": 70,
      "time": 283,
      "duration": 0.5,
      "velocity": 0.93,
      "hand": "right"
    },
    {
      "midi": 76,
      "time": 283,
      "duration": 0.5,
      "velocity": 0.93,
      "hand": "right"
    },
    {
      "midi": 56,
      "time": 283.5,
      "duration": 1,
      "velocity": 0.09,
      "hand": "left"
    },
    {
      "midi": 58,
      "time": 283.5,
      "duration": 1,
      "velocity": 0.09,
      "hand": "left"
    },
    {
      "midi": 62,
      "time": 283.5,
      "duration": 1,
      "velocity": 0.09,
      "hand": "right"
    },
    {
      "midi": 65,
      "time": 283.5,
      "duration": 2.5,
      "velocity": 0.93,
      "hand": "right"
    },
    {
      "midi": 70,
      "time": 283.5,
      "duration": 2.5,
      "velocity": 0.93,
      "hand": "right"
    },
    {
      "midi": 77,
      "time": 283.5,
      "duration": 2.5,
      "velocity": 0.93,
      "hand": "right"
    },
    {
      "midi": 34,
      "time": 284.5,
      "duration": 0.5,
      "velocity": 0.09,
      "hand": "left"
    },
    {
      "midi": 46,
      "time": 284.5,
      "duration": 0.5,
      "velocity": 0.09,
      "hand": "left"
    },
    {
      "midi": 34,
      "time": 285,
      "duration": 0.5,
      "velocity": 0.09,
      "hand": "left"
    },
    {
      "midi": 46,
      "time": 285,
      "duration": 0.5,
      "velocity": 0.09,
      "hand": "left"
    },
    {
      "midi": 46,
      "time": 286,
      "duration": 0.5,
      "velocity": 0.09,
      "hand": "left"
    },
    {
      "midi": 53,
      "time": 286,
      "duration": 0.5,
      "velocity": 0.09,
      "hand": "left"
    },
    {
      "midi": 58,
      "time": 286,
      "duration": 0.5,
      "velocity": 0.09,
      "hand": "left"
    },
    {
      "midi": 62,
      "time": 286,
      "duration": 0.5,
      "velocity": 0.71,
      "hand": "right"
    },
    {
      "midi": 68,
      "time": 286,
      "duration": 0.5,
      "velocity": 0.71,
      "hand": "right"
    },
    {
      "midi": 70,
      "time": 286,
      "duration": 0.5,
      "velocity": 0.71,
      "hand": "right"
    },
    {
      "midi": 46,
      "time": 286.5,
      "duration": 1,
      "velocity": 0.09,
      "hand": "left"
    },
    {
      "midi": 53,
      "time": 286.5,
      "duration": 1,
      "velocity": 0.09,
      "hand": "left"
    },
    {
      "midi": 58,
      "time": 286.5,
      "duration": 1,
      "velocity": 0.09,
      "hand": "left"
    },
    {
      "midi": 62,
      "time": 286.5,
      "duration": 1,
      "velocity": 0.71,
      "hand": "right"
    },
    {
      "midi": 68,
      "time": 286.5,
      "duration": 1,
      "velocity": 0.71,
      "hand": "right"
    },
    {
      "midi": 70,
      "time": 286.5,
      "duration": 2.5,
      "velocity": 0.71,
      "hand": "right"
    },
    {
      "midi": 51,
      "time": 287.5,
      "duration": 0.5,
      "velocity": 0.09,
      "hand": "left"
    },
    {
      "midi": 58,
      "time": 287.5,
      "duration": 0.5,
      "velocity": 0.09,
      "hand": "left"
    },
    {
      "midi": 63,
      "time": 287.5,
      "duration": 0.5,
      "velocity": 0.71,
      "hand": "right"
    },
    {
      "midi": 67,
      "time": 287.5,
      "duration": 0.5,
      "velocity": 0.71,
      "hand": "right"
    },
    {
      "midi": 51,
      "time": 288,
      "duration": 1,
      "velocity": 0.09,
      "hand": "left"
    },
    {
      "midi": 58,
      "time": 288,
      "duration": 1,
      "velocity": 0.09,
      "hand": "left"
    },
    {
      "midi": 63,
      "time": 288,
      "duration": 1,
      "velocity": 0.71,
      "hand": "right"
    },
    {
      "midi": 67,
      "time": 288,
      "duration": 1,
      "velocity": 0.71,
      "hand": "right"
    },
    {
      "midi": 51,
      "time": 289,
      "duration": 0.5,
      "velocity": 0.09,
      "hand": "left"
    },
    {
      "midi": 58,
      "time": 289,
      "duration": 0.5,
      "velocity": 0.09,
      "hand": "left"
    },
    {
      "midi": 67,
      "time": 289,
      "duration": 0.5,
      "velocity": 0.93,
      "hand": "right"
    },
    {
      "midi": 75,
      "time": 289,
      "duration": 0.5,
      "velocity": 0.93,
      "hand": "right"
    },
    {
      "midi": 51,
      "time": 289.5,
      "duration": 2.5,
      "velocity": 0.09,
      "hand": "left"
    },
    {
      "midi": 58,
      "time": 289.5,
      "duration": 2.5,
      "velocity": 0.09,
      "hand": "left"
    },
    {
      "midi": 67,
      "time": 289.5,
      "duration": 2.5,
      "velocity": 0.93,
      "hand": "right"
    },
    {
      "midi": 75,
      "time": 289.5,
      "duration": 2.5,
      "velocity": 0.93,
      "hand": "right"
    },
    {
      "midi": 51,
      "time": 292,
      "duration": 0.5,
      "velocity": 0.09,
      "hand": "left"
    },
    {
      "midi": 60,
      "time": 292,
      "duration": 0.5,
      "velocity": 0.93,
      "hand": "right"
    },
    {
      "midi": 67,
      "time": 292,
      "duration": 0.5,
      "velocity": 0.93,
      "hand": "right"
    },
    {
      "midi": 43,
      "time": 292.5,
      "duration": 1,
      "velocity": 0.09,
      "hand": "left"
    },
    {
      "midi": 55,
      "time": 292.5,
      "duration": 1,
      "velocity": 0.09,
      "hand": "left"
    },
    {
      "midi": 58,
      "time": 292.5,
      "duration": 1,
      "velocity": 0.93,
      "hand": "left"
    },
    {
      "midi": 62,
      "time": 292.5,
      "duration": 1,
      "velocity": 0.93,
      "hand": "right"
    },
    {
      "midi": 70,
      "time": 292.5,
      "duration": 1,
      "velocity": 0.93,
      "hand": "right"
    },
    {
      "midi": 48,
      "time": 293.5,
      "duration": 0.5,
      "velocity": 0.09,
      "hand": "left"
    },
    {
      "midi": 58,
      "time": 293.5,
      "duration": 0.5,
      "velocity": 0.93,
      "hand": "left"
    },
    {
      "midi": 64,
      "time": 293.5,
      "duration": 0.5,
      "velocity": 0.93,
      "hand": "right"
    },
    {
      "midi": 72,
      "time": 293.5,
      "duration": 0.5,
      "velocity": 0.93,
      "hand": "right"
    },
    {
      "midi": 41,
      "time": 294,
      "duration": 1,
      "velocity": 0.09,
      "hand": "left"
    },
    {
      "midi": 57,
      "time": 294,
      "duration": 1,
      "velocity": 0.93,
      "hand": "left"
    },
    {
      "midi": 63,
      "time": 294,
      "duration": 1,
      "velocity": 0.93,
      "hand": "right"
    },
    {
      "midi": 72,
      "time": 294,
      "duration": 1,
      "velocity": 0.93,
      "hand": "right"
    },
    {
      "midi": 34,
      "time": 295,
      "duration": 0.5,
      "velocity": 0.09,
      "hand": "left"
    },
    {
      "midi": 58,
      "time": 295,
      "duration": 0.5,
      "velocity": 0.93,
      "hand": "left"
    },
    {
      "midi": 62,
      "time": 295,
      "duration": 0.5,
      "velocity": 0.93,
      "hand": "right"
    },
    {
      "midi": 70,
      "time": 295,
      "duration": 0.5,
      "velocity": 0.93,
      "hand": "right"
    },
    {
      "midi": 46,
      "time": 295.5,
      "duration": 1,
      "velocity": 0.09,
      "hand": "left"
    },
    {
      "midi": 53,
      "time": 295.5,
      "duration": 1,
      "velocity": 0.09,
      "hand": "left"
    },
    {
      "midi": 58,
      "time": 295.5,
      "duration": 1,
      "velocity": 0.93,
      "hand": "left"
    },
    {
      "midi": 62,
      "time": 295.5,
      "duration": 1,
      "velocity": 0.93,
      "hand": "right"
    },
    {
      "midi": 70,
      "time": 295.5,
      "duration": 1,
      "velocity": 0.93,
      "hand": "right"
    },
    {
      "midi": 50,
      "time": 296.5,
      "duration": 0.75,
      "velocity": 0.71,
      "hand": "left"
    },
    {
      "midi": 62,
      "time": 296.5,
      "duration": 0.75,
      "velocity": 0.71,
      "hand": "right"
    },
    {
      "midi": 42,
      "time": 297,
      "duration": 1.5,
      "velocity": 0.71,
      "hand": "left"
    },
    {
      "midi": 60,
      "time": 297,
      "duration": 1.5,
      "velocity": 0.71,
      "hand": "right"
    },
    {
      "midi": 51,
      "time": 297.25,
      "duration": 0.25,
      "velocity": 0.71,
      "hand": "left"
    },
    {
      "midi": 63,
      "time": 297.25,
      "duration": 0.25,
      "velocity": 0.71,
      "hand": "right"
    },
    {
      "midi": 50,
      "time": 297.5,
      "duration": 1.25,
      "velocity": 0.71,
      "hand": "left"
    },
    {
      "midi": 62,
      "time": 297.5,
      "duration": 0.25,
      "velocity": 0.71,
      "hand": "right"
    },
    {
      "midi": 69,
      "time": 297.75,
      "duration": 0.25,
      "velocity": 0.71,
      "hand": "right"
    },
    {
      "midi": 66,
      "time": 298,
      "duration": 0.25,
      "velocity": 0.71,
      "hand": "right"
    },
    {
      "midi": 63,
      "time": 298.25,
      "duration": 0.25,
      "velocity": 0.71,
      "hand": "right"
    },
    {
      "midi": 43,
      "time": 298.5,
      "duration": 1.5,
      "velocity": 0.71,
      "hand": "left"
    },
    {
      "midi": 58,
      "time": 298.5,
      "duration": 1.5,
      "velocity": 0.71,
      "hand": "left"
    },
    {
      "midi": 62,
      "time": 298.5,
      "duration": 0.25,
      "velocity": 0.71,
      "hand": "right"
    },
    {
      "midi": 51,
      "time": 298.75,
      "duration": 0.25,
      "velocity": 0.71,
      "hand": "left"
    },
    {
      "midi": 63,
      "time": 298.75,
      "duration": 0.25,
      "velocity": 0.71,
      "hand": "right"
    },
    {
      "midi": 50,
      "time": 299,
      "duration": 1,
      "velocity": 0.71,
      "hand": "left"
    },
    {
      "midi": 62,
      "time": 299,
      "duration": 0.25,
      "velocity": 0.71,
      "hand": "right"
    },
    {
      "midi": 70,
      "time": 299.25,
      "duration": 0.25,
      "velocity": 0.71,
      "hand": "right"
    },
    {
      "midi": 67,
      "time": 299.5,
      "duration": 0.25,
      "velocity": 0.71,
      "hand": "right"
    },
    {
      "midi": 63,
      "time": 299.75,
      "duration": 0.25,
      "velocity": 0.71,
      "hand": "right"
    },
    {
      "midi": 45,
      "time": 300,
      "duration": 0.5,
      "velocity": 0.09,
      "hand": "left"
    },
    {
      "midi": 54,
      "time": 300,
      "duration": 0.25,
      "velocity": 0.93,
      "hand": "left"
    },
    {
      "midi": 63,
      "time": 300.25,
      "duration": 0.25,
      "velocity": 0.93,
      "hand": "right"
    },
    {
      "midi": 60,
      "time": 300.5,
      "duration": 0.5,
      "velocity": 0.09,
      "hand": "right"
    },
    {
      "midi": 62,
      "time": 300.5,
      "duration": 0.25,
      "velocity": 0.93,
      "hand": "right"
    },
    {
      "midi": 66,
      "time": 300.75,
      "duration": 0.25,
      "velocity": 0.93,
      "hand": "right"
    },
    {
      "midi": 72,
      "time": 301,
      "duration": 0.25,
      "velocity": 0.93,
      "hand": "right"
    },
    {
      "midi": 74,
      "time": 301.25,
      "duration": 0.25,
      "velocity": 0.93,
      "hand": "right"
    },
    {
      "midi": 78,
      "time": 301.5,
      "duration": 0.25,
      "velocity": 0.93,
      "hand": "right"
    },
    {
      "midi": 84,
      "time": 301.75,
      "duration": 0.25,
      "velocity": 0.93,
      "hand": "right"
    },
    {
      "midi": 84,
      "time": 302,
      "duration": 0.25,
      "velocity": 0.93,
      "hand": "right"
    },
    {
      "midi": 93,
      "time": 302.25,
      "duration": 0.25,
      "velocity": 0.93,
      "hand": "right"
    },
    {
      "midi": 82,
      "time": 302.75,
      "duration": 0.25,
      "velocity": 0.93,
      "hand": "right"
    },
    {
      "midi": 91,
      "time": 302.75,
      "duration": 0.25,
      "velocity": 0.93,
      "hand": "right"
    },
    {
      "midi": 38,
      "time": 303,
      "duration": 0.5,
      "velocity": 0.09,
      "hand": "left"
    },
    {
      "midi": 81,
      "time": 303,
      "duration": 0.25,
      "velocity": 0.93,
      "hand": "right"
    },
    {
      "midi": 90,
      "time": 303.25,
      "duration": 0.25,
      "velocity": 0.93,
      "hand": "right"
    },
    {
      "midi": 50,
      "time": 303.5,
      "duration": 0.5,
      "velocity": 0.09,
      "hand": "left"
    },
    {
      "midi": 79,
      "time": 303.5,
      "duration": 0.25,
      "velocity": 0.93,
      "hand": "right"
    },
    {
      "midi": 87,
      "time": 303.5,
      "duration": 0.25,
      "velocity": 0.93,
      "hand": "right"
    },
    {
      "midi": 78,
      "time": 303.75,
      "duration": 0.25,
      "velocity": 0.93,
      "hand": "right"
    },
    {
      "midi": 57,
      "time": 304,
      "duration": 0.5,
      "velocity": 0.09,
      "hand": "left"
    },
    {
      "midi": 86,
      "time": 304,
      "duration": 0.25,
      "velocity": 0.93,
      "hand": "right"
    },
    {
      "midi": 75,
      "time": 304.25,
      "duration": 0.25,
      "velocity": 0.93,
      "hand": "right"
    },
    {
      "midi": 84,
      "time": 304.25,
      "duration": 0.25,
      "velocity": 0.93,
      "hand": "right"
    },
    {
      "midi": 60,
      "time": 304.5,
      "duration": 0.5,
      "velocity": 0.09,
      "hand": "right"
    },
    {
      "midi": 74,
      "time": 304.5,
      "duration": 0.25,
      "velocity": 0.93,
      "hand": "right"
    },
    {
      "midi": 82,
      "time": 304.75,
      "duration": 0.25,
      "velocity": 0.93,
      "hand": "right"
    },
    {
      "midi": 66,
      "time": 305,
      "duration": 0.5,
      "velocity": 0.09,
      "hand": "right"
    },
    {
      "midi": 72,
      "time": 305,
      "duration": 0.25,
      "velocity": 0.93,
      "hand": "right"
    },
    {
      "midi": 81,
      "time": 305,
      "duration": 0.25,
      "velocity": 0.93,
      "hand": "right"
    },
    {
      "midi": 75,
      "time": 305.25,
      "duration": 0.25,
      "velocity": 0.93,
      "hand": "right"
    },
    {
      "midi": 84,
      "time": 305.5,
      "duration": 0.25,
      "velocity": 0.93,
      "hand": "right"
    },
    {
      "midi": 74,
      "time": 305.75,
      "duration": 0.25,
      "velocity": 0.93,
      "hand": "right"
    },
    {
      "midi": 82,
      "time": 305.75,
      "duration": 0.25,
      "velocity": 0.93,
      "hand": "right"
    },
    {
      "midi": 43,
      "time": 306,
      "duration": 0.5,
      "velocity": 0.09,
      "hand": "left"
    },
    {
      "midi": 72,
      "time": 306,
      "duration": 0.25,
      "velocity": 0.93,
      "hand": "right"
    },
    {
      "midi": 81,
      "time": 306.25,
      "duration": 0.25,
      "velocity": 0.93,
      "hand": "right"
    },
    {
      "midi": 50,
      "time": 306.5,
      "duration": 0.5,
      "velocity": 0.09,
      "hand": "left"
    },
    {
      "midi": 74,
      "time": 306.5,
      "duration": 0.25,
      "velocity": 0.93,
      "hand": "right"
    },
    {
      "midi": 82,
      "time": 306.5,
      "duration": 0.25,
      "velocity": 0.93,
      "hand": "right"
    },
    {
      "midi": 69,
      "time": 306.75,
      "duration": 0.25,
      "velocity": 0.93,
      "hand": "right"
    },
    {
      "midi": 78,
      "time": 306.75,
      "duration": 0.25,
      "velocity": 0.93,
      "hand": "right"
    },
    {
      "midi": 62,
      "time": 307,
      "duration": 0.25,
      "velocity": 0.09,
      "hand": "right"
    },
    {
      "midi": 72,
      "time": 307,
      "duration": 0.25,
      "velocity": 0.93,
      "hand": "right"
    },
    {
      "midi": 81,
      "time": 307,
      "duration": 0.25,
      "velocity": 0.93,
      "hand": "right"
    },
    {
      "midi": 66,
      "time": 307.25,
      "duration": 0.25,
      "velocity": 0.09,
      "hand": "right"
    },
    {
      "midi": 67,
      "time": 307.5,
      "duration": 0.25,
      "velocity": 0.09,
      "hand": "right"
    },
    {
      "midi": 70,
      "time": 307.5,
      "duration": 0.25,
      "velocity": 0.93,
      "hand": "right"
    },
    {
      "midi": 79,
      "time": 307.5,
      "duration": 0.25,
      "velocity": 0.93,
      "hand": "right"
    },
    {
      "midi": 54,
      "time": 307.75,
      "duration": 0.25,
      "velocity": 0.71,
      "hand": "left"
    },
    {
      "midi": 66,
      "time": 307.75,
      "duration": 0.25,
      "velocity": 0.71,
      "hand": "right"
    },
    {
      "midi": 54,
      "time": 308,
      "duration": 0.25,
      "velocity": 0.71,
      "hand": "left"
    },
    {
      "midi": 66,
      "time": 308,
      "duration": 0.25,
      "velocity": 0.71,
      "hand": "right"
    },
    {
      "midi": 53,
      "time": 308.25,
      "duration": 0.25,
      "velocity": 0.71,
      "hand": "left"
    },
    {
      "midi": 65,
      "time": 308.25,
      "duration": 0.25,
      "velocity": 0.71,
      "hand": "right"
    },
    {
      "midi": 53,
      "time": 308.5,
      "duration": 0.25,
      "velocity": 0.71,
      "hand": "left"
    },
    {
      "midi": 65,
      "time": 308.5,
      "duration": 0.25,
      "velocity": 0.71,
      "hand": "right"
    },
    {
      "midi": 52,
      "time": 308.75,
      "duration": 0.5,
      "velocity": 0.71,
      "hand": "left"
    },
    {
      "midi": 64,
      "time": 308.75,
      "duration": 0.5,
      "velocity": 0.71,
      "hand": "right"
    },
    {
      "midi": 44,
      "time": 309,
      "duration": 1.5,
      "velocity": 0.71,
      "hand": "left"
    },
    {
      "midi": 62,
      "time": 309,
      "duration": 1.5,
      "velocity": 0.71,
      "hand": "right"
    },
    {
      "midi": 53,
      "time": 309.25,
      "duration": 0.25,
      "velocity": 0.71,
      "hand": "left"
    },
    {
      "midi": 65,
      "time": 309.25,
      "duration": 0.25,
      "velocity": 0.71,
      "hand": "right"
    },
    {
      "midi": 52,
      "time": 309.5,
      "duration": 1.25,
      "velocity": 0.71,
      "hand": "left"
    },
    {
      "midi": 64,
      "time": 309.5,
      "duration": 0.25,
      "velocity": 0.71,
      "hand": "right"
    },
    {
      "midi": 71,
      "time": 309.75,
      "duration": 0.25,
      "velocity": 0.71,
      "hand": "right"
    },
    {
      "midi": 68,
      "time": 310,
      "duration": 0.25,
      "velocity": 0.71,
      "hand": "right"
    },
    {
      "midi": 65,
      "time": 310.25,
      "duration": 0.25,
      "velocity": 0.71,
      "hand": "right"
    },
    {
      "midi": 45,
      "time": 310.5,
      "duration": 1.5,
      "velocity": 0.71,
      "hand": "left"
    },
    {
      "midi": 60,
      "time": 310.5,
      "duration": 1.5,
      "velocity": 0.71,
      "hand": "right"
    },
    {
      "midi": 64,
      "time": 310.5,
      "duration": 0.25,
      "velocity": 0.71,
      "hand": "right"
    },
    {
      "midi": 53,
      "time": 310.75,
      "duration": 0.25,
      "velocity": 0.71,
      "hand": "left"
    },
    {
      "midi": 65,
      "time": 310.75,
      "duration": 0.25,
      "velocity": 0.71,
      "hand": "right"
    },
    {
      "midi": 52,
      "time": 311,
      "duration": 1,
      "velocity": 0.71,
      "hand": "left"
    },
    {
      "midi": 64,
      "time": 311,
      "duration": 0.25,
      "velocity": 0.71,
      "hand": "right"
    },
    {
      "midi": 72,
      "time": 311.25,
      "duration": 0.25,
      "velocity": 0.71,
      "hand": "right"
    },
    {
      "midi": 69,
      "time": 311.5,
      "duration": 0.25,
      "velocity": 0.71,
      "hand": "right"
    },
    {
      "midi": 65,
      "time": 311.75,
      "duration": 0.25,
      "velocity": 0.71,
      "hand": "right"
    },
    {
      "midi": 47,
      "time": 312,
      "duration": 0.5,
      "velocity": 0.09,
      "hand": "left"
    },
    {
      "midi": 56,
      "time": 312,
      "duration": 0.25,
      "velocity": 0.93,
      "hand": "left"
    },
    {
      "midi": 65,
      "time": 312.25,
      "duration": 0.25,
      "velocity": 0.93,
      "hand": "right"
    },
    {
      "midi": 62,
      "time": 312.5,
      "duration": 0.5,
      "velocity": 0.09,
      "hand": "right"
    },
    {
      "midi": 64,
      "time": 312.5,
      "duration": 0.25,
      "velocity": 0.93,
      "hand": "right"
    },
    {
      "midi": 68,
      "time": 312.75,
      "duration": 0.25,
      "velocity": 0.93,
      "hand": "right"
    },
    {
      "midi": 74,
      "time": 313,
      "duration": 0.25,
      "velocity": 0.93,
      "hand": "right"
    },
    {
      "midi": 76,
      "time": 313.25,
      "duration": 0.25,
      "velocity": 0.93,
      "hand": "right"
    },
    {
      "midi": 80,
      "time": 313.5,
      "duration": 0.25,
      "velocity": 0.93,
      "hand": "right"
    },
    {
      "midi": 86,
      "time": 313.75,
      "duration": 0.25,
      "velocity": 0.93,
      "hand": "right"
    },
    {
      "midi": 86,
      "time": 314,
      "duration": 0.25,
      "velocity": 0.93,
      "hand": "right"
    },
    {
      "midi": 95,
      "time": 314.25,
      "duration": 0.25,
      "velocity": 0.93,
      "hand": "right"
    },
    {
      "midi": 84,
      "time": 314.75,
      "duration": 0.25,
      "velocity": 0.93,
      "hand": "right"
    },
    {
      "midi": 93,
      "time": 314.75,
      "duration": 0.25,
      "velocity": 0.93,
      "hand": "right"
    },
    {
      "midi": 40,
      "time": 315,
      "duration": 0.5,
      "velocity": 0.09,
      "hand": "left"
    },
    {
      "midi": 84,
      "time": 315,
      "duration": 0.25,
      "velocity": 0.93,
      "hand": "right"
    },
    {
      "midi": 93,
      "time": 315.25,
      "duration": 0.25,
      "velocity": 0.93,
      "hand": "right"
    },
    {
      "midi": 52,
      "time": 315.5,
      "duration": 0.5,
      "velocity": 0.09,
      "hand": "left"
    },
    {
      "midi": 83,
      "time": 315.5,
      "duration": 0.25,
      "velocity": 0.93,
      "hand": "right"
    },
    {
      "midi": 92,
      "time": 315.5,
      "duration": 0.25,
      "velocity": 0.93,
      "hand": "right"
    },
    {
      "midi": 81,
      "time": 315.75,
      "duration": 0.25,
      "velocity": 0.93,
      "hand": "right"
    },
    {
      "midi": 59,
      "time": 316,
      "duration": 0.5,
      "velocity": 0.09,
      "hand": "left"
    },
    {
      "midi": 89,
      "time": 316,
      "duration": 0.25,
      "velocity": 0.93,
      "hand": "right"
    },
    {
      "midi": 80,
      "time": 316.25,
      "duration": 0.25,
      "velocity": 0.93,
      "hand": "right"
    },
    {
      "midi": 88,
      "time": 316.25,
      "duration": 0.25,
      "velocity": 0.93,
      "hand": "right"
    },
    {
      "midi": 62,
      "time": 316.5,
      "duration": 0.5,
      "velocity": 0.09,
      "hand": "right"
    },
    {
      "midi": 77,
      "time": 316.5,
      "duration": 0.25,
      "velocity": 0.93,
      "hand": "right"
    },
    {
      "midi": 86,
      "time": 316.75,
      "duration": 0.25,
      "velocity": 0.93,
      "hand": "right"
    },
    {
      "midi": 68,
      "time": 317,
      "duration": 0.5,
      "velocity": 0.09,
      "hand": "right"
    },
    {
      "midi": 76,
      "time": 317,
      "duration": 0.25,
      "velocity": 0.93,
      "hand": "right"
    },
    {
      "midi": 84,
      "time": 317,
      "duration": 0.25,
      "velocity": 0.93,
      "hand": "right"
    },
    {
      "midi": 74,
      "time": 317.25,
      "duration": 0.25,
      "velocity": 0.93,
      "hand": "right"
    },
    {
      "midi": 83,
      "time": 317.25,
      "duration": 0.25,
      "velocity": 0.93,
      "hand": "right"
    },
    {
      "midi": 77,
      "time": 317.5,
      "duration": 0.25,
      "velocity": 0.93,
      "hand": "right"
    },
    {
      "midi": 86,
      "time": 317.5,
      "duration": 0.25,
      "velocity": 0.93,
      "hand": "right"
    },
    {
      "midi": 76,
      "time": 317.75,
      "duration": 0.25,
      "velocity": 0.93,
      "hand": "right"
    },
    {
      "midi": 84,
      "time": 317.75,
      "duration": 0.25,
      "velocity": 0.93,
      "hand": "right"
    },
    {
      "midi": 33,
      "time": 318,
      "duration": 0.5,
      "velocity": 0.09,
      "hand": "left"
    },
    {
      "midi": 74,
      "time": 318,
      "duration": 0.25,
      "velocity": 0.93,
      "hand": "right"
    },
    {
      "midi": 83,
      "time": 318.25,
      "duration": 0.25,
      "velocity": 0.93,
      "hand": "right"
    },
    {
      "midi": 45,
      "time": 318.5,
      "duration": 0.25,
      "velocity": 0.09,
      "hand": "left"
    },
    {
      "midi": 76,
      "time": 318.5,
      "duration": 0.25,
      "velocity": 0.93,
      "hand": "right"
    },
    {
      "midi": 84,
      "time": 318.5,
      "duration": 0.25,
      "velocity": 0.93,
      "hand": "right"
    },
    {
      "midi": 52,
      "time": 318.75,
      "duration": 0.25,
      "velocity": 0.09,
      "hand": "left"
    },
    {
      "midi": 71,
      "time": 318.75,
      "duration": 0.25,
      "velocity": 0.93,
      "hand": "right"
    },
    {
      "midi": 80,
      "time": 318.75,
      "duration": 0.25,
      "velocity": 0.93,
      "hand": "right"
    },
    {
      "midi": 57,
      "time": 319,
      "duration": 0.25,
      "velocity": 0.09,
      "hand": "left"
    },
    {
      "midi": 74,
      "time": 319,
      "duration": 0.25,
      "velocity": 0.93,
      "hand": "right"
    },
    {
      "midi": 83,
      "time": 319,
      "duration": 0.25,
      "velocity": 0.93,
      "hand": "right"
    },
    {
      "midi": 64,
      "time": 319.25,
      "duration": 0.25,
      "velocity": 0.09,
      "hand": "right"
    },
    {
      "midi": 72,
      "time": 319.25,
      "duration": 0.5,
      "velocity": 0.93,
      "hand": "right"
    },
    {
      "midi": 81,
      "time": 319.25,
      "duration": 0.5,
      "velocity": 0.93,
      "hand": "right"
    },
    {
      "midi": 69,
      "time": 319.5,
      "duration": 0.5,
      "velocity": 0.09,
      "hand": "right"
    },
    {
      "midi": 72,
      "time": 319.75,
      "duration": 0.5,
      "velocity": 0.93,
      "hand": "right"
    },
    {
      "midi": 81,
      "time": 319.75,
      "duration": 0.5,
      "velocity": 0.93,
      "hand": "right"
    },
    {
      "midi": 64,
      "time": 320,
      "duration": 0.5,
      "velocity": 0.71,
      "hand": "right"
    },
    {
      "midi": 72,
      "time": 320.25,
      "duration": 0.5,
      "velocity": 0.93,
      "hand": "right"
    },
    {
      "midi": 81,
      "time": 320.25,
      "duration": 0.5,
      "velocity": 0.93,
      "hand": "right"
    },
    {
      "midi": 63,
      "time": 320.5,
      "duration": 0.5,
      "velocity": 0.71,
      "hand": "right"
    },
    {
      "midi": 72,
      "time": 320.75,
      "duration": 0.5,
      "velocity": 0.93,
      "hand": "right"
    },
    {
      "midi": 81,
      "time": 320.75,
      "duration": 0.5,
      "velocity": 0.93,
      "hand": "right"
    },
    {
      "midi": 62,
      "time": 321,
      "duration": 3,
      "velocity": 0.71,
      "hand": "right"
    },
    {
      "midi": 74,
      "time": 321.25,
      "duration": 0.5,
      "velocity": 0.93,
      "hand": "right"
    },
    {
      "midi": 82,
      "time": 321.25,
      "duration": 0.5,
      "velocity": 0.93,
      "hand": "right"
    },
    {
      "midi": 72,
      "time": 321.75,
      "duration": 0.5,
      "velocity": 0.93,
      "hand": "right"
    },
    {
      "midi": 81,
      "time": 321.75,
      "duration": 0.5,
      "velocity": 0.93,
      "hand": "right"
    },
    {
      "midi": 54,
      "time": 322,
      "duration": 0.5,
      "velocity": 0.71,
      "hand": "left"
    },
    {
      "midi": 75,
      "time": 322.25,
      "duration": 0.5,
      "velocity": 0.93,
      "hand": "right"
    },
    {
      "midi": 84,
      "time": 322.25,
      "duration": 0.5,
      "velocity": 0.93,
      "hand": "right"
    },
    {
      "midi": 55,
      "time": 322.5,
      "duration": 0.5,
      "velocity": 0.71,
      "hand": "left"
    },
    {
      "midi": 74,
      "time": 322.75,
      "duration": 0.5,
      "velocity": 0.93,
      "hand": "right"
    },
    {
      "midi": 82,
      "time": 322.75,
      "duration": 0.5,
      "velocity": 0.93,
      "hand": "right"
    },
    {
      "midi": 57,
      "time": 323,
      "duration": 0.5,
      "velocity": 0.71,
      "hand": "left"
    },
    {
      "midi": 72,
      "time": 323.25,
      "duration": 0.25,
      "velocity": 0.93,
      "hand": "right"
    },
    {
      "midi": 78,
      "time": 323.25,
      "duration": 0.25,
      "velocity": 0.93,
      "hand": "right"
    },
    {
      "midi": 58,
      "time": 323.5,
      "duration": 0.25,
      "velocity": 0.71,
      "hand": "left"
    },
    {
      "midi": 70,
      "time": 323.5,
      "duration": 0.25,
      "velocity": 0.93,
      "hand": "right"
    },
    {
      "midi": 79,
      "time": 323.5,
      "duration": 0.25,
      "velocity": 0.93,
      "hand": "right"
    },
    {
      "midi": 50,
      "time": 323.75,
      "duration": 0.25,
      "velocity": 0.71,
      "hand": "left"
    },
    {
      "midi": 74,
      "time": 323.75,
      "duration": 0.5,
      "velocity": 0.93,
      "hand": "right"
    },
    {
      "midi": 82,
      "time": 323.75,
      "duration": 0.5,
      "velocity": 0.93,
      "hand": "right"
    },
    {
      "midi": 38,
      "time": 324,
      "duration": 0.5,
      "velocity": 0.71,
      "hand": "left"
    },
    {
      "midi": 72,
      "time": 324.25,
      "duration": 0.5,
      "velocity": 0.93,
      "hand": "right"
    },
    {
      "midi": 81,
      "time": 324.25,
      "duration": 0.5,
      "velocity": 0.93,
      "hand": "right"
    },
    {
      "midi": 62,
      "time": 324.5,
      "duration": 1.5,
      "velocity": 0.71,
      "hand": "right"
    },
    {
      "midi": 74,
      "time": 324.75,
      "duration": 0.25,
      "velocity": 0.93,
      "hand": "right"
    },
    {
      "midi": 82,
      "time": 324.75,
      "duration": 0.25,
      "velocity": 0.93,
      "hand": "right"
    },
    {
      "midi": 60,
      "time": 325,
      "duration": 0.5,
      "velocity": 0.71,
      "hand": "right"
    },
    {
      "midi": 66,
      "time": 325,
      "duration": 0.5,
      "velocity": 0.71,
      "hand": "right"
    },
    {
      "midi": 69,
      "time": 325,
      "duration": 0.25,
      "velocity": 0.93,
      "hand": "right"
    },
    {
      "midi": 78,
      "time": 325,
      "duration": 0.25,
      "velocity": 0.93,
      "hand": "right"
    },
    {
      "midi": 72,
      "time": 325.25,
      "duration": 0.5,
      "velocity": 0.93,
      "hand": "right"
    },
    {
      "midi": 81,
      "time": 325.25,
      "duration": 0.5,
      "velocity": 0.93,
      "hand": "right"
    },
    {
      "midi": 55,
      "time": 325.5,
      "duration": 0.5,
      "velocity": 0.71,
      "hand": "left"
    },
    {
      "midi": 70,
      "time": 325.75,
      "duration": 0.25,
      "velocity": 0.93,
      "hand": "right"
    },
    {
      "midi": 79,
      "time": 325.75,
      "duration": 0.25,
      "velocity": 0.93,
      "hand": "right"
    },
    {
      "midi": 62,
      "time": 326,
      "duration": 0.5,
      "velocity": 0.71,
      "hand": "right"
    },
    {
      "midi": 70,
      "time": 326,
      "duration": 0.25,
      "velocity": 0.93,
      "hand": "right"
    },
    {
      "midi": 79,
      "time": 326,
      "duration": 0.25,
      "velocity": 0.93,
      "hand": "right"
    },
    {
      "midi": 81,
      "time": 326,
      "duration": 0.125,
      "velocity": 0.93,
      "hand": "right"
    },
    {
      "midi": 69,
      "time": 326.25,
      "duration": 0.5,
      "velocity": 0.93,
      "hand": "right"
    },
    {
      "midi": 78,
      "time": 326.25,
      "duration": 0.5,
      "velocity": 0.93,
      "hand": "right"
    },
    {
      "midi": 61,
      "time": 326.5,
      "duration": 0.5,
      "velocity": 0.82,
      "hand": "right"
    },
    {
      "midi": 70,
      "time": 326.75,
      "duration": 0.5,
      "velocity": 0.93,
      "hand": "right"
    },
    {
      "midi": 79,
      "time": 326.75,
      "duration": 0.5,
      "velocity": 0.93,
      "hand": "right"
    },
    {
      "midi": 60,
      "time": 327,
      "duration": 3,
      "velocity": 0.93,
      "hand": "right"
    },
    {
      "midi": 72,
      "time": 327.25,
      "duration": 0.5,
      "velocity": 0.93,
      "hand": "right"
    },
    {
      "midi": 80,
      "time": 327.25,
      "duration": 0.5,
      "velocity": 0.93,
      "hand": "right"
    },
    {
      "midi": 70,
      "time": 327.75,
      "duration": 0.5,
      "velocity": 0.93,
      "hand": "right"
    },
    {
      "midi": 79,
      "time": 327.75,
      "duration": 0.5,
      "velocity": 0.93,
      "hand": "right"
    },
    {
      "midi": 52,
      "time": 328,
      "duration": 0.5,
      "velocity": 0.93,
      "hand": "left"
    },
    {
      "midi": 73,
      "time": 328.25,
      "duration": 0.5,
      "velocity": 0.93,
      "hand": "right"
    },
    {
      "midi": 82,
      "time": 328.25,
      "duration": 0.5,
      "velocity": 0.93,
      "hand": "right"
    },
    {
      "midi": 53,
      "time": 328.5,
      "duration": 0.5,
      "velocity": 0.93,
      "hand": "left"
    },
    {
      "midi": 72,
      "time": 328.75,
      "duration": 0.5,
      "velocity": 0.93,
      "hand": "right"
    },
    {
      "midi": 80,
      "time": 328.75,
      "duration": 0.5,
      "velocity": 0.93,
      "hand": "right"
    },
    {
      "midi": 55,
      "time": 329,
      "duration": 0.5,
      "velocity": 0.93,
      "hand": "left"
    },
    {
      "midi": 70,
      "time": 329.25,
      "duration": 0.25,
      "velocity": 0.93,
      "hand": "right"
    },
    {
      "midi": 76,
      "time": 329.25,
      "duration": 0.25,
      "velocity": 0.93,
      "hand": "right"
    },
    {
      "midi": 56,
      "time": 329.5,
      "duration": 0.25,
      "velocity": 0.93,
      "hand": "left"
    },
    {
      "midi": 68,
      "time": 329.5,
      "duration": 0.25,
      "velocity": 0.93,
      "hand": "right"
    },
    {
      "midi": 77,
      "time": 329.5,
      "duration": 0.25,
      "velocity": 0.93,
      "hand": "right"
    },
    {
      "midi": 48,
      "time": 329.75,
      "duration": 0.25,
      "velocity": 0.93,
      "hand": "left"
    },
    {
      "midi": 72,
      "time": 329.75,
      "duration": 0.5,
      "velocity": 0.93,
      "hand": "right"
    },
    {
      "midi": 80,
      "time": 329.75,
      "duration": 0.5,
      "velocity": 0.93,
      "hand": "right"
    },
    {
      "midi": 36,
      "time": 330,
      "duration": 0.5,
      "velocity": 0.93,
      "hand": "left"
    },
    {
      "midi": 70,
      "time": 330.25,
      "duration": 0.5,
      "velocity": 0.93,
      "hand": "right"
    },
    {
      "midi": 79,
      "time": 330.25,
      "duration": 0.5,
      "velocity": 0.93,
      "hand": "right"
    },
    {
      "midi": 60,
      "time": 330.5,
      "duration": 1.5,
      "velocity": 0.71,
      "hand": "right"
    },
    {
      "midi": 72,
      "time": 330.75,
      "duration": 0.25,
      "velocity": 0.93,
      "hand": "right"
    },
    {
      "midi": 80,
      "time": 330.75,
      "duration": 0.25,
      "velocity": 0.93,
      "hand": "right"
    },
    {
      "midi": 58,
      "time": 331,
      "duration": 0.5,
      "velocity": 0.93,
      "hand": "left"
    },
    {
      "midi": 64,
      "time": 331,
      "duration": 0.5,
      "velocity": 0.93,
      "hand": "right"
    },
    {
      "midi": 67,
      "time": 331,
      "duration": 0.25,
      "velocity": 0.93,
      "hand": "right"
    },
    {
      "midi": 76,
      "time": 331,
      "duration": 0.25,
      "velocity": 0.93,
      "hand": "right"
    },
    {
      "midi": 70,
      "time": 331.25,
      "duration": 0.25,
      "velocity": 0.93,
      "hand": "right"
    },
    {
      "midi": 79,
      "time": 331.25,
      "duration": 0.25,
      "velocity": 0.93,
      "hand": "right"
    },
    {
      "midi": 53,
      "time": 331.5,
      "duration": 0.5,
      "velocity": 0.93,
      "hand": "left"
    },
    {
      "midi": 70,
      "time": 331.5,
      "duration": 0.25,
      "velocity": 0.93,
      "hand": "right"
    },
    {
      "midi": 79,
      "time": 331.5,
      "duration": 0.25,
      "velocity": 0.93,
      "hand": "right"
    },
    {
      "midi": 68,
      "time": 331.75,
      "duration": 0.25,
      "velocity": 0.93,
      "hand": "right"
    },
    {
      "midi": 77,
      "time": 331.75,
      "duration": 0.25,
      "velocity": 0.93,
      "hand": "right"
    },
    {
      "midi": 60,
      "time": 332,
      "duration": 0.5,
      "velocity": 0.93,
      "hand": "right"
    },
    {
      "midi": 68,
      "time": 332,
      "duration": 0.25,
      "velocity": 0.93,
      "hand": "right"
    },
    {
      "midi": 77,
      "time": 332,
      "duration": 0.25,
      "velocity": 0.93,
      "hand": "right"
    },
    {
      "midi": 79,
      "time": 332,
      "duration": 0.125,
      "velocity": 0.93,
      "hand": "right"
    },
    {
      "midi": 67,
      "time": 332.25,
      "duration": 0.5,
      "velocity": 0.93,
      "hand": "right"
    },
    {
      "midi": 76,
      "time": 332.25,
      "duration": 0.5,
      "velocity": 0.93,
      "hand": "right"
    },
    {
      "midi": 56,
      "time": 332.5,
      "duration": 0.5,
      "velocity": 0.93,
      "hand": "left"
    },
    {
      "midi": 65,
      "time": 332.5,
      "duration": 0.5,
      "velocity": 0.93,
      "hand": "right"
    },
    {
      "midi": 68,
      "time": 332.75,
      "duration": 0.25,
      "velocity": 0.93,
      "hand": "right"
    },
    {
      "midi": 77,
      "time": 332.75,
      "duration": 0.25,
      "velocity": 0.93,
      "hand": "right"
    },
    {
      "midi": 44,
      "time": 333,
      "duration": 0.5,
      "velocity": 0.09,
      "hand": "left"
    },
    {
      "midi": 68,
      "time": 333,
      "duration": 0.25,
      "velocity": 0.93,
      "hand": "right"
    },
    {
      "midi": 77,
      "time": 333,
      "duration": 0.25,
      "velocity": 0.93,
      "hand": "right"
    },
    {
      "midi": 70,
      "time": 333.25,
      "duration": 0.5,
      "velocity": 0.93,
      "hand": "right"
    },
    {
      "midi": 78,
      "time": 333.25,
      "duration": 0.5,
      "velocity": 0.93,
      "hand": "right"
    },
    {
      "midi": 56,
      "time": 333.5,
      "duration": 0.5,
      "velocity": 0.09,
      "hand": "left"
    },
    {
      "midi": 68,
      "time": 333.75,
      "duration": 0.25,
      "velocity": 0.93,
      "hand": "right"
    },
    {
      "midi": 77,
      "time": 333.75,
      "duration": 0.25,
      "velocity": 0.93,
      "hand": "right"
    },
    {
      "midi": 48,
      "time": 334,
      "duration": 0.5,
      "velocity": 0.09,
      "hand": "left"
    },
    {
      "midi": 66,
      "time": 334,
      "duration": 0.25,
      "velocity": 0.93,
      "hand": "right"
    },
    {
      "midi": 75,
      "time": 334,
      "duration": 0.25,
      "velocity": 0.93,
      "hand": "right"
    },
    {
      "midi": 70,
      "time": 334.25,
      "duration": 0.25,
      "velocity": 0.93,
      "hand": "right"
    },
    {
      "midi": 78,
      "time": 334.25,
      "duration": 0.25,
      "velocity": 0.93,
      "hand": "right"
    },
    {
      "midi": 49,
      "time": 334.5,
      "duration": 0.5,
      "velocity": 0.09,
      "hand": "left"
    },
    {
      "midi": 68,
      "time": 334.5,
      "duration": 0.25,
      "velocity": 0.93,
      "hand": "right"
    },
    {
      "midi": 77,
      "time": 334.5,
      "duration": 0.25,
      "velocity": 0.93,
      "hand": "right"
    },
    {
      "midi": 70,
      "time": 334.75,
      "duration": 0.25,
      "velocity": 0.93,
      "hand": "right"
    },
    {
      "midi": 78,
      "time": 334.75,
      "duration": 0.25,
      "velocity": 0.93,
      "hand": "right"
    },
    {
      "midi": 56,
      "time": 335,
      "duration": 0.5,
      "velocity": 0.09,
      "hand": "left"
    },
    {
      "midi": 68,
      "time": 335,
      "duration": 0.25,
      "velocity": 0.93,
      "hand": "right"
    },
    {
      "midi": 77,
      "time": 335,
      "duration": 0.25,
      "velocity": 0.93,
      "hand": "right"
    },
    {
      "midi": 66,
      "time": 335.25,
      "duration": 0.25,
      "velocity": 0.93,
      "hand": "right"
    },
    {
      "midi": 72,
      "time": 335.25,
      "duration": 0.25,
      "velocity": 0.93,
      "hand": "right"
    },
    {
      "midi": 55,
      "time": 335.5,
      "duration": 0.125,
      "velocity": 0.09,
      "hand": "left"
    },
    {
      "midi": 56,
      "time": 335.5,
      "duration": 0.125,
      "velocity": 0.09,
      "hand": "left"
    },
    {
      "midi": 61,
      "time": 335.5,
      "duration": 0.5,
      "velocity": 0.09,
      "hand": "right"
    },
    {
      "midi": 65,
      "time": 335.5,
      "duration": 0.25,
      "velocity": 0.93,
      "hand": "right"
    },
    {
      "midi": 73,
      "time": 335.5,
      "duration": 0.25,
      "velocity": 0.93,
      "hand": "right"
    },
    {
      "midi": 68,
      "time": 335.75,
      "duration": 0.25,
      "velocity": 0.93,
      "hand": "right"
    },
    {
      "midi": 77,
      "time": 335.75,
      "duration": 0.25,
      "velocity": 0.93,
      "hand": "right"
    },
    {
      "midi": 39,
      "time": 336,
      "duration": 0.5,
      "velocity": 0.09,
      "hand": "left"
    },
    {
      "midi": 67,
      "time": 336,
      "duration": 0.25,
      "velocity": 0.93,
      "hand": "right"
    },
    {
      "midi": 75,
      "time": 336,
      "duration": 0.25,
      "velocity": 0.93,
      "hand": "right"
    },
    {
      "midi": 68,
      "time": 336.25,
      "duration": 0.25,
      "velocity": 0.93,
      "hand": "right"
    },
    {
      "midi": 77,
      "time": 336.25,
      "duration": 0.25,
      "velocity": 0.93,
      "hand": "right"
    },
    {
      "midi": 51,
      "time": 336.5,
      "duration": 0.5,
      "velocity": 0.09,
      "hand": "left"
    },
    {
      "midi": 67,
      "time": 336.5,
      "duration": 0.25,
      "velocity": 0.93,
      "hand": "right"
    },
    {
      "midi": 75,
      "time": 336.5,
      "duration": 0.25,
      "velocity": 0.93,
      "hand": "right"
    },
    {
      "midi": 77,
      "time": 336.75,
      "duration": 0.25,
      "velocity": 0.93,
      "hand": "right"
    },
    {
      "midi": 55,
      "time": 337,
      "duration": 0.5,
      "velocity": 0.09,
      "hand": "left"
    },
    {
      "midi": 63,
      "time": 337,
      "duration": 0.5,
      "velocity": 0.09,
      "hand": "right"
    },
    {
      "midi": 65,
      "time": 337,
      "duration": 0.25,
      "velocity": 0.93,
      "hand": "right"
    },
    {
      "midi": 73,
      "time": 337,
      "duration": 0.25,
      "velocity": 0.93,
      "hand": "right"
    },
    {
      "midi": 75,
      "time": 337.25,
      "duration": 0.25,
      "velocity": 0.93,
      "hand": "right"
    },
    {
      "midi": 44,
      "time": 337.5,
      "duration": 0.5,
      "velocity": 0.09,
      "hand": "left"
    },
    {
      "midi": 63,
      "time": 337.5,
      "duration": 0.25,
      "velocity": 0.93,
      "hand": "right"
    },
    {
      "midi": 72,
      "time": 337.5,
      "duration": 0.25,
      "velocity": 0.93,
      "hand": "right"
    },
    {
      "midi": 73,
      "time": 337.75,
      "duration": 0.25,
      "velocity": 0.93,
      "hand": "right"
    },
    {
      "midi": 51,
      "time": 338,
      "duration": 0.5,
      "velocity": 0.09,
      "hand": "left"
    },
    {
      "midi": 61,
      "time": 338,
      "duration": 0.25,
      "velocity": 0.93,
      "hand": "right"
    },
    {
      "midi": 70,
      "time": 338,
      "duration": 0.25,
      "velocity": 0.93,
      "hand": "right"
    },
    {
      "midi": 72,
      "time": 338.25,
      "duration": 0.25,
      "velocity": 0.93,
      "hand": "right"
    },
    {
      "midi": 56,
      "time": 338.5,
      "duration": 0.25,
      "velocity": 0.09,
      "hand": "left"
    },
    {
      "midi": 60,
      "time": 338.5,
      "duration": 0.25,
      "velocity": 0.93,
      "hand": "right"
    },
    {
      "midi": 63,
      "time": 338.5,
      "duration": 0.25,
      "velocity": 0.09,
      "hand": "right"
    },
    {
      "midi": 68,
      "time": 338.5,
      "duration": 0.25,
      "velocity": 0.93,
      "hand": "right"
    },
    {
      "midi": 44,
      "time": 339,
      "duration": 0.5,
      "velocity": 0.09,
      "hand": "left"
    },
    {
      "midi": 80,
      "time": 339,
      "duration": 0.25,
      "velocity": 0.93,
      "hand": "right"
    },
    {
      "midi": 89,
      "time": 339,
      "duration": 0.25,
      "velocity": 0.93,
      "hand": "right"
    },
    {
      "midi": 82,
      "time": 339.25,
      "duration": 0.5,
      "velocity": 0.93,
      "hand": "right"
    },
    {
      "midi": 90,
      "time": 339.25,
      "duration": 0.5,
      "velocity": 0.93,
      "hand": "right"
    },
    {
      "midi": 68,
      "time": 339.5,
      "duration": 0.5,
      "velocity": 0.09,
      "hand": "right"
    },
    {
      "midi": 80,
      "time": 339.75,
      "duration": 0.25,
      "velocity": 0.93,
      "hand": "right"
    },
    {
      "midi": 89,
      "time": 339.75,
      "duration": 0.25,
      "velocity": 0.93,
      "hand": "right"
    },
    {
      "midi": 60,
      "time": 340,
      "duration": 0.5,
      "velocity": 0.09,
      "hand": "right"
    },
    {
      "midi": 78,
      "time": 340,
      "duration": 0.25,
      "velocity": 0.93,
      "hand": "right"
    },
    {
      "midi": 87,
      "time": 340,
      "duration": 0.25,
      "velocity": 0.93,
      "hand": "right"
    },
    {
      "midi": 82,
      "time": 340.25,
      "duration": 0.25,
      "velocity": 0.93,
      "hand": "right"
    },
    {
      "midi": 90,
      "time": 340.25,
      "duration": 0.25,
      "velocity": 0.93,
      "hand": "right"
    },
    {
      "midi": 61,
      "time": 340.5,
      "duration": 0.5,
      "velocity": 0.09,
      "hand": "right"
    },
    {
      "midi": 80,
      "time": 340.5,
      "duration": 0.25,
      "velocity": 0.93,
      "hand": "right"
    },
    {
      "midi": 89,
      "time": 340.5,
      "duration": 0.25,
      "velocity": 0.93,
      "hand": "right"
    },
    {
      "midi": 82,
      "time": 340.75,
      "duration": 0.25,
      "velocity": 0.93,
      "hand": "right"
    },
    {
      "midi": 90,
      "time": 340.75,
      "duration": 0.25,
      "velocity": 0.93,
      "hand": "right"
    },
    {
      "midi": 68,
      "time": 341,
      "duration": 0.5,
      "velocity": 0.09,
      "hand": "right"
    },
    {
      "midi": 80,
      "time": 341,
      "duration": 0.25,
      "velocity": 0.93,
      "hand": "right"
    },
    {
      "midi": 89,
      "time": 341,
      "duration": 0.25,
      "velocity": 0.93,
      "hand": "right"
    },
    {
      "midi": 78,
      "time": 341.25,
      "duration": 0.25,
      "velocity": 0.93,
      "hand": "right"
    },
    {
      "midi": 84,
      "time": 341.25,
      "duration": 0.25,
      "velocity": 0.93,
      "hand": "right"
    },
    {
      "midi": 67,
      "time": 341.5,
      "duration": 0.125,
      "velocity": 0.09,
      "hand": "right"
    },
    {
      "midi": 68,
      "time": 341.5,
      "duration": 0.125,
      "velocity": 0.09,
      "hand": "right"
    },
    {
      "midi": 73,
      "time": 341.5,
      "duration": 0.5,
      "velocity": 0.09,
      "hand": "right"
    },
    {
      "midi": 77,
      "time": 341.5,
      "duration": 0.25,
      "velocity": 0.93,
      "hand": "right"
    },
    {
      "midi": 85,
      "time": 341.5,
      "duration": 0.25,
      "velocity": 0.93,
      "hand": "right"
    },
    {
      "midi": 80,
      "time": 341.75,
      "duration": 0.25,
      "velocity": 0.93,
      "hand": "right"
    },
    {
      "midi": 89,
      "time": 341.75,
      "duration": 0.25,
      "velocity": 0.93,
      "hand": "right"
    },
    {
      "midi": 51,
      "time": 342,
      "duration": 0.5,
      "velocity": 0.09,
      "hand": "left"
    },
    {
      "midi": 79,
      "time": 342,
      "duration": 0.25,
      "velocity": 0.93,
      "hand": "right"
    },
    {
      "midi": 87,
      "time": 342,
      "duration": 0.25,
      "velocity": 0.93,
      "hand": "right"
    },
    {
      "midi": 80,
      "time": 342.25,
      "duration": 0.25,
      "velocity": 0.93,
      "hand": "right"
    },
    {
      "midi": 89,
      "time": 342.25,
      "duration": 0.25,
      "velocity": 0.93,
      "hand": "right"
    },
    {
      "midi": 63,
      "time": 342.5,
      "duration": 0.5,
      "velocity": 0.09,
      "hand": "right"
    },
    {
      "midi": 79,
      "time": 342.5,
      "duration": 0.25,
      "velocity": 0.93,
      "hand": "right"
    },
    {
      "midi": 87,
      "time": 342.5,
      "duration": 0.25,
      "velocity": 0.93,
      "hand": "right"
    },
    {
      "midi": 89,
      "time": 342.75,
      "duration": 0.25,
      "velocity": 0.93,
      "hand": "right"
    },
    {
      "midi": 67,
      "time": 343,
      "duration": 0.5,
      "velocity": 0.09,
      "hand": "right"
    },
    {
      "midi": 75,
      "time": 343,
      "duration": 0.5,
      "velocity": 0.09,
      "hand": "right"
    },
    {
      "midi": 77,
      "time": 343,
      "duration": 0.25,
      "velocity": 0.93,
      "hand": "right"
    },
    {
      "midi": 85,
      "time": 343,
      "duration": 0.25,
      "velocity": 0.93,
      "hand": "right"
    },
    {
      "midi": 87,
      "time": 343.25,
      "duration": 0.25,
      "velocity": 0.93,
      "hand": "right"
    },
    {
      "midi": 56,
      "time": 343.5,
      "duration": 0.5,
      "velocity": 0.09,
      "hand": "left"
    },
    {
      "midi": 75,
      "time": 343.5,
      "duration": 0.25,
      "velocity": 0.93,
      "hand": "right"
    },
    {
      "midi": 84,
      "time": 343.5,
      "duration": 0.25,
      "velocity": 0.93,
      "hand": "right"
    },
    {
      "midi": 85,
      "time": 343.75,
      "duration": 0.25,
      "velocity": 0.93,
      "hand": "right"
    },
    {
      "midi": 63,
      "time": 344,
      "duration": 0.5,
      "velocity": 0.09,
      "hand": "right"
    },
    {
      "midi": 73,
      "time": 344,
      "duration": 0.25,
      "velocity": 0.93,
      "hand": "right"
    },
    {
      "midi": 82,
      "time": 344,
      "duration": 0.25,
      "velocity": 0.93,
      "hand": "right"
    },
    {
      "midi": 84,
      "time": 344.25,
      "duration": 0.25,
      "velocity": 0.93,
      "hand": "right"
    },
    {
      "midi": 68,
      "time": 344.5,
      "duration": 0.5,
      "velocity": 0.09,
      "hand": "right"
    },
    {
      "midi": 72,
      "time": 344.5,
      "duration": 0.25,
      "velocity": 0.93,
      "hand": "right"
    },
    {
      "midi": 75,
      "time": 344.5,
      "duration": 0.5,
      "velocity": 0.09,
      "hand": "right"
    },
    {
      "midi": 80,
      "time": 344.5,
      "duration": 0.25,
      "velocity": 0.93,
      "hand": "right"
    },
    {
      "midi": 89,
      "time": 344.75,
      "duration": 0.25,
      "velocity": 0.93,
      "hand": "right"
    },
    {
      "midi": 51,
      "time": 345,
      "duration": 0.5,
      "velocity": 0.09,
      "hand": "left"
    },
    {
      "midi": 79,
      "time": 345,
      "duration": 0.25,
      "velocity": 0.93,
      "hand": "right"
    },
    {
      "midi": 87,
      "time": 345,
      "duration": 0.25,
      "velocity": 0.93,
      "hand": "right"
    },
    {
      "midi": 89,
      "time": 345.25,
      "duration": 0.25,
      "velocity": 0.93,
      "hand": "right"
    },
    {
      "midi": 63,
      "time": 345.5,
      "duration": 0.5,
      "velocity": 0.09,
      "hand": "right"
    },
    {
      "midi": 79,
      "time": 345.5,
      "duration": 0.25,
      "velocity": 0.93,
      "hand": "right"
    },
    {
      "midi": 87,
      "time": 345.5,
      "duration": 0.25,
      "velocity": 0.93,
      "hand": "right"
    },
    {
      "midi": 89,
      "time": 345.75,
      "duration": 0.25,
      "velocity": 0.93,
      "hand": "right"
    },
    {
      "midi": 67,
      "time": 346,
      "duration": 0.5,
      "velocity": 0.09,
      "hand": "right"
    },
    {
      "midi": 75,
      "time": 346,
      "duration": 0.5,
      "velocity": 0.09,
      "hand": "right"
    },
    {
      "midi": 77,
      "time": 346,
      "duration": 0.25,
      "velocity": 0.93,
      "hand": "right"
    },
    {
      "midi": 85,
      "time": 346,
      "duration": 0.25,
      "velocity": 0.93,
      "hand": "right"
    },
    {
      "midi": 87,
      "time": 346.25,
      "duration": 0.25,
      "velocity": 0.93,
      "hand": "right"
    },
    {
      "midi": 56,
      "time": 346.5,
      "duration": 0.5,
      "velocity": 0.09,
      "hand": "left"
    },
    {
      "midi": 75,
      "time": 346.5,
      "duration": 0.25,
      "velocity": 0.93,
      "hand": "right"
    },
    {
      "midi": 84,
      "time": 346.5,
      "duration": 0.25,
      "velocity": 0.93,
      "hand": "right"
    },
    {
      "midi": 85,
      "time": 346.75,
      "duration": 0.25,
      "velocity": 0.93,
      "hand": "right"
    },
    {
      "midi": 63,
      "time": 347,
      "duration": 0.5,
      "velocity": 0.09,
      "hand": "right"
    },
    {
      "midi": 73,
      "time": 347,
      "duration": 0.25,
      "velocity": 0.93,
      "hand": "right"
    },
    {
      "midi": 82,
      "time": 347,
      "duration": 0.25,
      "velocity": 0.93,
      "hand": "right"
    },
    {
      "midi": 84,
      "time": 347.25,
      "duration": 0.25,
      "velocity": 0.93,
      "hand": "right"
    },
    {
      "midi": 68,
      "time": 347.5,
      "duration": 0.25,
      "velocity": 0.09,
      "hand": "right"
    },
    {
      "midi": 72,
      "time": 347.5,
      "duration": 0.25,
      "velocity": 0.93,
      "hand": "right"
    },
    {
      "midi": 75,
      "time": 347.5,
      "duration": 0.25,
      "velocity": 0.09,
      "hand": "right"
    },
    {
      "midi": 80,
      "time": 347.5,
      "duration": 0.25,
      "velocity": 0.93,
      "hand": "right"
    },
    {
      "midi": 39,
      "time": 348,
      "duration": 0.5,
      "velocity": 0.09,
      "hand": "left"
    },
    {
      "midi": 91,
      "time": 348,
      "duration": 0.25,
      "velocity": 0.93,
      "hand": "right"
    },
    {
      "midi": 99,
      "time": 348,
      "duration": 0.25,
      "velocity": 0.93,
      "hand": "right"
    },
    {
      "midi": 101,
      "time": 348.25,
      "duration": 0.25,
      "velocity": 0.93,
      "hand": "right"
    },
    {
      "midi": 51,
      "time": 348.5,
      "duration": 0.5,
      "velocity": 0.09,
      "hand": "left"
    },
    {
      "midi": 91,
      "time": 348.5,
      "duration": 0.25,
      "velocity": 0.93,
      "hand": "right"
    },
    {
      "midi": 99,
      "time": 348.5,
      "duration": 0.25,
      "velocity": 0.93,
      "hand": "right"
    },
    {
      "midi": 101,
      "time": 348.75,
      "duration": 0.25,
      "velocity": 0.93,
      "hand": "right"
    },
    {
      "midi": 55,
      "time": 349,
      "duration": 0.5,
      "velocity": 0.09,
      "hand": "left"
    },
    {
      "midi": 61,
      "time": 349,
      "duration": 0.5,
      "velocity": 0.09,
      "hand": "right"
    },
    {
      "midi": 63,
      "time": 349,
      "duration": 0.5,
      "velocity": 0.09,
      "hand": "right"
    },
    {
      "midi": 89,
      "time": 349,
      "duration": 0.25,
      "velocity": 0.93,
      "hand": "right"
    },
    {
      "midi": 97,
      "time": 349,
      "duration": 0.25,
      "velocity": 0.93,
      "hand": "right"
    },
    {
      "midi": 99,
      "time": 349.25,
      "duration": 0.25,
      "velocity": 0.93,
      "hand": "right"
    },
    {
      "midi": 58,
      "time": 349.5,
      "duration": 0.5,
      "velocity": 0.09,
      "hand": "left"
    },
    {
      "midi": 61,
      "time": 349.5,
      "duration": 0.5,
      "velocity": 0.09,
      "hand": "right"
    },
    {
      "midi": 67,
      "time": 349.5,
      "duration": 0.5,
      "velocity": 0.09,
      "hand": "right"
    },
    {
      "midi": 87,
      "time": 349.5,
      "duration": 0.25,
      "velocity": 0.93,
      "hand": "right"
    },
    {
      "midi": 96,
      "time": 349.5,
      "duration": 0.25,
      "velocity": 0.93,
      "hand": "right"
    },
    {
      "midi": 97,
      "time": 349.75,
      "duration": 0.25,
      "velocity": 0.93,
      "hand": "right"
    },
    {
      "midi": 63,
      "time": 350,
      "duration": 0.5,
      "velocity": 0.09,
      "hand": "right"
    },
    {
      "midi": 67,
      "time": 350,
      "duration": 0.5,
      "velocity": 0.09,
      "hand": "right"
    },
    {
      "midi": 73,
      "time": 350,
      "duration": 0.5,
      "velocity": 0.09,
      "hand": "right"
    },
    {
      "midi": 85,
      "time": 350,
      "duration": 0.25,
      "velocity": 0.93,
      "hand": "right"
    },
    {
      "midi": 94,
      "time": 350,
      "duration": 0.25,
      "velocity": 0.93,
      "hand": "right"
    },
    {
      "midi": 96,
      "time": 350.25,
      "duration": 0.25,
      "velocity": 0.93,
      "hand": "right"
    },
    {
      "midi": 67,
      "time": 350.5,
      "duration": 0.5,
      "velocity": 0.09,
      "hand": "right"
    },
    {
      "midi": 73,
      "time": 350.5,
      "duration": 0.5,
      "velocity": 0.09,
      "hand": "right"
    },
    {
      "midi": 75,
      "time": 350.5,
      "duration": 0.5,
      "velocity": 0.09,
      "hand": "right"
    },
    {
      "midi": 84,
      "time": 350.5,
      "duration": 0.25,
      "velocity": 0.93,
      "hand": "right"
    },
    {
      "midi": 92,
      "time": 350.5,
      "duration": 0.25,
      "velocity": 0.93,
      "hand": "right"
    },
    {
      "midi": 94,
      "time": 350.75,
      "duration": 0.25,
      "velocity": 0.93,
      "hand": "right"
    },
    {
      "midi": 73,
      "time": 351,
      "duration": 0.5,
      "velocity": 0.09,
      "hand": "right"
    },
    {
      "midi": 79,
      "time": 351,
      "duration": 0.5,
      "velocity": 0.09,
      "hand": "right"
    },
    {
      "midi": 82,
      "time": 351,
      "duration": 0.25,
      "velocity": 0.93,
      "hand": "right"
    },
    {
      "midi": 91,
      "time": 351,
      "duration": 0.25,
      "velocity": 0.93,
      "hand": "right"
    },
    {
      "midi": 92,
      "time": 351.25,
      "duration": 0.25,
      "velocity": 0.93,
      "hand": "right"
    },
    {
      "midi": 80,
      "time": 351.5,
      "duration": 0.25,
      "velocity": 0.93,
      "hand": "right"
    },
    {
      "midi": 89,
      "time": 351.5,
      "duration": 0.25,
      "velocity": 0.93,
      "hand": "right"
    },
    {
      "midi": 91,
      "time": 351.75,
      "duration": 0.25,
      "velocity": 0.93,
      "hand": "right"
    },
    {
      "midi": 79,
      "time": 352,
      "duration": 0.25,
      "velocity": 0.93,
      "hand": "right"
    },
    {
      "midi": 87,
      "time": 352,
      "duration": 0.25,
      "velocity": 0.93,
      "hand": "right"
    },
    {
      "midi": 89,
      "time": 352.25,
      "duration": 0.25,
      "velocity": 0.93,
      "hand": "right"
    },
    {
      "midi": 77,
      "time": 352.5,
      "duration": 0.25,
      "velocity": 0.93,
      "hand": "right"
    },
    {
      "midi": 85,
      "time": 352.5,
      "duration": 0.25,
      "velocity": 0.93,
      "hand": "right"
    },
    {
      "midi": 87,
      "time": 352.75,
      "duration": 0.25,
      "velocity": 0.93,
      "hand": "right"
    },
    {
      "midi": 75,
      "time": 353,
      "duration": 0.25,
      "velocity": 0.93,
      "hand": "right"
    },
    {
      "midi": 84,
      "time": 353,
      "duration": 0.25,
      "velocity": 0.93,
      "hand": "right"
    },
    {
      "midi": 85,
      "time": 353.25,
      "duration": 0.25,
      "velocity": 0.93,
      "hand": "right"
    },
    {
      "midi": 73,
      "time": 353.5,
      "duration": 0.25,
      "velocity": 0.93,
      "hand": "right"
    },
    {
      "midi": 82,
      "time": 353.5,
      "duration": 0.25,
      "velocity": 0.93,
      "hand": "right"
    },
    {
      "midi": 84,
      "time": 353.75,
      "duration": 0.25,
      "velocity": 0.93,
      "hand": "right"
    },
    {
      "midi": 72,
      "time": 354,
      "duration": 0.25,
      "velocity": 0.93,
      "hand": "right"
    },
    {
      "midi": 80,
      "time": 354,
      "duration": 0.25,
      "velocity": 0.93,
      "hand": "right"
    },
    {
      "midi": 82,
      "time": 354.25,
      "duration": 0.25,
      "velocity": 0.93,
      "hand": "right"
    },
    {
      "midi": 61,
      "time": 354.5,
      "duration": 2,
      "velocity": 0.71,
      "hand": "right"
    },
    {
      "midi": 70,
      "time": 354.5,
      "duration": 0.25,
      "velocity": 0.93,
      "hand": "right"
    },
    {
      "midi": 79,
      "time": 354.5,
      "duration": 0.25,
      "velocity": 0.93,
      "hand": "right"
    },
    {
      "midi": 80,
      "time": 354.75,
      "duration": 0.25,
      "velocity": 0.93,
      "hand": "right"
    },
    {
      "midi": 68,
      "time": 355,
      "duration": 0.25,
      "velocity": 0.93,
      "hand": "right"
    },
    {
      "midi": 77,
      "time": 355,
      "duration": 0.25,
      "velocity": 0.93,
      "hand": "right"
    },
    {
      "midi": 79,
      "time": 355.25,
      "duration": 0.25,
      "velocity": 0.93,
      "hand": "right"
    },
    {
      "midi": 67,
      "time": 355.5,
      "duration": 0.25,
      "velocity": 0.93,
      "hand": "right"
    },
    {
      "midi": 75,
      "time": 355.5,
      "duration": 0.25,
      "velocity": 0.93,
      "hand": "right"
    },
    {
      "midi": 77,
      "time": 355.75,
      "duration": 0.25,
      "velocity": 0.93,
      "hand": "right"
    },
    {
      "midi": 65,
      "time": 356,
      "duration": 0.25,
      "velocity": 0.93,
      "hand": "right"
    },
    {
      "midi": 73,
      "time": 356,
      "duration": 0.25,
      "velocity": 0.93,
      "hand": "right"
    },
    {
      "midi": 75,
      "time": 356.25,
      "duration": 0.25,
      "velocity": 0.93,
      "hand": "right"
    },
    {
      "midi": 51,
      "time": 356.5,
      "duration": 1,
      "velocity": 0.71,
      "hand": "left"
    },
    {
      "midi": 63,
      "time": 356.5,
      "duration": 0.25,
      "velocity": 0.93,
      "hand": "right"
    },
    {
      "midi": 72,
      "time": 356.5,
      "duration": 0.25,
      "velocity": 0.93,
      "hand": "right"
    },
    {
      "midi": 73,
      "time": 356.75,
      "duration": 0.25,
      "velocity": 0.93,
      "hand": "right"
    },
    {
      "midi": 44,
      "time": 357,
      "duration": 3,
      "velocity": 0.71,
      "hand": "left"
    },
    {
      "midi": 61,
      "time": 357,
      "duration": 3,
      "velocity": 0.71,
      "hand": "right"
    },
    {
      "midi": 70,
      "time": 357,
      "duration": 1.5,
      "velocity": 0.71,
      "hand": "right"
    },
    {
      "midi": 52,
      "time": 357.5,
      "duration": 0.5,
      "velocity": 0.71,
      "hand": "left"
    },
    {
      "midi": 53,
      "time": 358,
      "duration": 0.5,
      "velocity": 0.71,
      "hand": "left"
    },
    {
      "midi": 54,
      "time": 358.5,
      "duration": 0.5,
      "velocity": 0.71,
      "hand": "left"
    },
    {
      "midi": 69,
      "time": 358.5,
      "duration": 0.25,
      "velocity": 0.71,
      "hand": "right"
    },
    {
      "midi": 70,
      "time": 358.75,
      "duration": 0.25,
      "velocity": 0.71,
      "hand": "right"
    },
    {
      "midi": 55,
      "time": 359,
      "duration": 0.5,
      "velocity": 0.71,
      "hand": "left"
    },
    {
      "midi": 72,
      "time": 359,
      "duration": 0.25,
      "velocity": 0.71,
      "hand": "right"
    },
    {
      "midi": 70,
      "time": 359.25,
      "duration": 0.25,
      "velocity": 0.71,
      "hand": "right"
    },
    {
      "midi": 51,
      "time": 359.5,
      "duration": 0.5,
      "velocity": 0.71,
      "hand": "left"
    },
    {
      "midi": 73,
      "time": 359.5,
      "duration": 0.25,
      "velocity": 0.71,
      "hand": "right"
    },
    {
      "midi": 67,
      "time": 359.75,
      "duration": 0.25,
      "velocity": 0.71,
      "hand": "right"
    },
    {
      "midi": 44,
      "time": 360,
      "duration": 1.5,
      "velocity": 0.71,
      "hand": "left"
    },
    {
      "midi": 56,
      "time": 360,
      "duration": 0.5,
      "velocity": 0.71,
      "hand": "left"
    },
    {
      "midi": 60,
      "time": 360,
      "duration": 0.25,
      "velocity": 0.71,
      "hand": "right"
    },
    {
      "midi": 68,
      "time": 360,
      "duration": 2,
      "velocity": 0.71,
      "hand": "right"
    },
    {
      "midi": 63,
      "time": 360.25,
      "duration": 0.25,
      "velocity": 0.71,
      "hand": "right"
    },
    {
      "midi": 51,
      "time": 360.5,
      "duration": 0.5,
      "velocity": 0.71,
      "hand": "left"
    },
    {
      "midi": 58,
      "time": 360.5,
      "duration": 0.25,
      "velocity": 0.71,
      "hand": "left"
    },
    {
      "midi": 63,
      "time": 360.75,
      "duration": 0.25,
      "velocity": 0.71,
      "hand": "right"
    },
    {
      "midi": 54,
      "time": 361,
      "duration": 0.5,
      "velocity": 0.71,
      "hand": "left"
    },
    {
      "midi": 60,
      "time": 361,
      "duration": 0.25,
      "velocity": 0.71,
      "hand": "right"
    },
    {
      "midi": 63,
      "time": 361.25,
      "duration": 0.25,
      "velocity": 0.71,
      "hand": "right"
    },
    {
      "midi": 52,
      "time": 361.5,
      "duration": 0.5,
      "velocity": 0.71,
      "hand": "left"
    },
    {
      "midi": 61,
      "time": 361.5,
      "duration": 0.25,
      "velocity": 0.71,
      "hand": "right"
    },
    {
      "midi": 64,
      "time": 361.75,
      "duration": 0.25,
      "velocity": 0.71,
      "hand": "right"
    },
    {
      "midi": 48,
      "time": 362,
      "duration": 0.5,
      "velocity": 0.71,
      "hand": "left"
    },
    {
      "midi": 63,
      "time": 362,
      "duration": 0.25,
      "velocity": 0.71,
      "hand": "right"
    },
    {
      "midi": 67,
      "time": 362,
      "duration": 0.25,
      "velocity": 0.71,
      "hand": "right"
    },
    {
      "midi": 66,
      "time": 362.25,
      "duration": 0.25,
      "velocity": 0.71,
      "hand": "right"
    },
    {
      "midi": 68,
      "time": 362.25,
      "duration": 0.25,
      "velocity": 0.71,
      "hand": "right"
    },
    {
      "midi": 49,
      "time": 362.5,
      "duration": 0.5,
      "velocity": 0.71,
      "hand": "left"
    },
    {
      "midi": 61,
      "time": 362.5,
      "duration": 0.25,
      "velocity": 0.71,
      "hand": "right"
    },
    {
      "midi": 67,
      "time": 362.5,
      "duration": 0.25,
      "velocity": 0.71,
      "hand": "right"
    },
    {
      "midi": 64,
      "time": 362.75,
      "duration": 0.25,
      "velocity": 0.71,
      "hand": "right"
    },
    {
      "midi": 68,
      "time": 362.75,
      "duration": 0.25,
      "velocity": 0.71,
      "hand": "right"
    },
    {
      "midi": 42,
      "time": 363,
      "duration": 0.5,
      "velocity": 0.71,
      "hand": "left"
    },
    {
      "midi": 61,
      "time": 363,
      "duration": 0.25,
      "velocity": 0.71,
      "hand": "right"
    },
    {
      "midi": 69,
      "time": 363,
      "duration": 0.5,
      "velocity": 0.71,
      "hand": "right"
    },
    {
      "midi": 63,
      "time": 363.25,
      "duration": 0.25,
      "velocity": 0.66,
      "hand": "right"
    },
    {
      "midi": 44,
      "time": 363.5,
      "duration": 0.5,
      "velocity": 0.71,
      "hand": "left"
    },
    {
      "midi": 61,
      "time": 363.5,
      "duration": 0.25,
      "velocity": 0.61,
      "hand": "right"
    },
    {
      "midi": 68,
      "time": 363.5,
      "duration": 0.5,
      "velocity": 0.71,
      "hand": "right"
    },
    {
      "midi": 64,
      "time": 363.75,
      "duration": 0.25,
      "velocity": 0.57,
      "hand": "right"
    },
    {
      "midi": 45,
      "time": 364,
      "duration": 0.5,
      "velocity": 0.71,
      "hand": "left"
    },
    {
      "midi": 54,
      "time": 364,
      "duration": 0.25,
      "velocity": 0.53,
      "hand": "left"
    },
    {
      "midi": 66,
      "time": 364,
      "duration": 0.5,
      "velocity": 0.71,
      "hand": "right"
    },
    {
      "midi": 61,
      "time": 364.25,
      "duration": 0.25,
      "velocity": 0.48,
      "hand": "right"
    },
    {
      "midi": 46,
      "time": 364.5,
      "duration": 0.5,
      "velocity": 0.71,
      "hand": "left"
    },
    {
      "midi": 55,
      "time": 364.5,
      "duration": 0.25,
      "velocity": 0.48,
      "hand": "left"
    },
    {
      "midi": 64,
      "time": 364.5,
      "duration": 0.75,
      "velocity": 0.71,
      "hand": "right"
    },
    {
      "midi": 61,
      "time": 364.75,
      "duration": 0.25,
      "velocity": 0.48,
      "hand": "right"
    },
    {
      "midi": 38,
      "time": 365,
      "duration": 0.25,
      "velocity": 0.71,
      "hand": "left"
    },
    {
      "midi": 55,
      "time": 365,
      "duration": 0.25,
      "velocity": 0.48,
      "hand": "left"
    },
    {
      "midi": 39,
      "time": 365.25,
      "duration": 0.25,
      "velocity": 0.71,
      "hand": "left"
    },
    {
      "midi": 61,
      "time": 365.25,
      "duration": 0.25,
      "velocity": 0.48,
      "hand": "right"
    },
    {
      "midi": 63,
      "time": 365.25,
      "duration": 0.25,
      "velocity": 0.71,
      "hand": "right"
    },
    {
      "midi": 38,
      "time": 365.5,
      "duration": 0.25,
      "velocity": 0.71,
      "hand": "left"
    },
    {
      "midi": 55,
      "time": 365.5,
      "duration": 0.25,
      "velocity": 0.48,
      "hand": "left"
    },
    {
      "midi": 64,
      "time": 365.5,
      "duration": 0.25,
      "velocity": 0.71,
      "hand": "right"
    },
    {
      "midi": 66,
      "time": 365.5,
      "duration": 0.125,
      "velocity": 0.71,
      "hand": "right"
    },
    {
      "midi": 39,
      "time": 365.75,
      "duration": 0.25,
      "velocity": 0.71,
      "hand": "left"
    },
    {
      "midi": 61,
      "time": 365.75,
      "duration": 0.25,
      "velocity": 0.48,
      "hand": "right"
    },
    {
      "midi": 63,
      "time": 365.75,
      "duration": 0.25,
      "velocity": 0.71,
      "hand": "right"
    },
    {
      "midi": 32,
      "time": 366,
      "duration": 0.5,
      "velocity": 0.71,
      "hand": "left"
    },
    {
      "midi": 44,
      "time": 366,
      "duration": 0.5,
      "velocity": 0.71,
      "hand": "left"
    },
    {
      "midi": 60,
      "time": 366,
      "duration": 0.25,
      "velocity": 0.48,
      "hand": "right"
    },
    {
      "midi": 68,
      "time": 366,
      "duration": 1,
      "velocity": 0.71,
      "hand": "right"
    },
    {
      "midi": 63,
      "time": 366.25,
      "duration": 0.25,
      "velocity": 0.48,
      "hand": "right"
    },
    {
      "midi": 39,
      "time": 366.5,
      "duration": 0.5,
      "velocity": 0.71,
      "hand": "left"
    },
    {
      "midi": 51,
      "time": 366.5,
      "duration": 0.5,
      "velocity": 0.71,
      "hand": "left"
    },
    {
      "midi": 58,
      "time": 366.5,
      "duration": 0.25,
      "velocity": 0.48,
      "hand": "left"
    },
    {
      "midi": 63,
      "time": 366.75,
      "duration": 0.25,
      "velocity": 0.48,
      "hand": "right"
    },
    {
      "midi": 42,
      "time": 367,
      "duration": 0.5,
      "velocity": 0.71,
      "hand": "left"
    },
    {
      "midi": 54,
      "time": 367,
      "duration": 0.5,
      "velocity": 0.71,
      "hand": "left"
    },
    {
      "midi": 60,
      "time": 367,
      "duration": 0.25,
      "velocity": 0.48,
      "hand": "right"
    },
    {
      "midi": 68,
      "time": 367,
      "duration": 1,
      "velocity": 0.71,
      "hand": "right"
    },
    {
      "midi": 63,
      "time": 367.25,
      "duration": 0.25,
      "velocity": 0.48,
      "hand": "right"
    },
    {
      "midi": 40,
      "time": 367.5,
      "duration": 0.5,
      "velocity": 0.71,
      "hand": "left"
    },
    {
      "midi": 52,
      "time": 367.5,
      "duration": 0.5,
      "velocity": 0.71,
      "hand": "left"
    },
    {
      "midi": 56,
      "time": 367.5,
      "duration": 0.25,
      "velocity": 0.48,
      "hand": "left"
    },
    {
      "midi": 61,
      "time": 367.75,
      "duration": 0.25,
      "velocity": 0.48,
      "hand": "right"
    },
    {
      "midi": 36,
      "time": 368,
      "duration": 0.5,
      "velocity": 0.71,
      "hand": "left"
    },
    {
      "midi": 48,
      "time": 368,
      "duration": 0.5,
      "velocity": 0.71,
      "hand": "left"
    },
    {
      "midi": 56,
      "time": 368,
      "duration": 0.25,
      "velocity": 0.48,
      "hand": "left"
    },
    {
      "midi": 67,
      "time": 368,
      "duration": 0.25,
      "velocity": 0.71,
      "hand": "right"
    },
    {
      "midi": 66,
      "time": 368.25,
      "duration": 0.25,
      "velocity": 0.48,
      "hand": "right"
    },
    {
      "midi": 68,
      "time": 368.25,
      "duration": 0.25,
      "velocity": 0.71,
      "hand": "right"
    },
    {
      "midi": 37,
      "time": 368.5,
      "duration": 0.5,
      "velocity": 0.71,
      "hand": "left"
    },
    {
      "midi": 49,
      "time": 368.5,
      "duration": 0.5,
      "velocity": 0.71,
      "hand": "left"
    },
    {
      "midi": 56,
      "time": 368.5,
      "duration": 0.25,
      "velocity": 0.48,
      "hand": "left"
    },
    {
      "midi": 67,
      "time": 368.5,
      "duration": 0.25,
      "velocity": 0.71,
      "hand": "right"
    },
    {
      "midi": 64,
      "time": 368.75,
      "duration": 0.25,
      "velocity": 0.48,
      "hand": "right"
    },
    {
      "midi": 68,
      "time": 368.75,
      "duration": 0.25,
      "velocity": 0.71,
      "hand": "right"
    },
    {
      "midi": 31,
      "time": 369,
      "duration": 0.5,
      "velocity": 0.71,
      "hand": "left"
    },
    {
      "midi": 43,
      "time": 369,
      "duration": 0.5,
      "velocity": 0.71,
      "hand": "left"
    },
    {
      "midi": 61,
      "time": 369,
      "duration": 0.25,
      "velocity": 0.48,
      "hand": "right"
    },
    {
      "midi": 71,
      "time": 369,
      "duration": 0.25,
      "velocity": 0.71,
      "hand": "right"
    },
    {
      "midi": 63,
      "time": 369.25,
      "duration": 0.25,
      "velocity": 0.48,
      "hand": "right"
    },
    {
      "midi": 69,
      "time": 369.25,
      "duration": 0.25,
      "velocity": 0.71,
      "hand": "right"
    },
    {
      "midi": 32,
      "time": 369.5,
      "duration": 0.5,
      "velocity": 0.71,
      "hand": "left"
    },
    {
      "midi": 44,
      "time": 369.5,
      "duration": 0.5,
      "velocity": 0.71,
      "hand": "left"
    },
    {
      "midi": 61,
      "time": 369.5,
      "duration": 0.25,
      "velocity": 0.48,
      "hand": "right"
    },
    {
      "midi": 69,
      "time": 369.5,
      "duration": 0.25,
      "velocity": 0.71,
      "hand": "right"
    },
    {
      "midi": 64,
      "time": 369.75,
      "duration": 0.25,
      "velocity": 0.48,
      "hand": "right"
    },
    {
      "midi": 68,
      "time": 369.75,
      "duration": 0.25,
      "velocity": 0.71,
      "hand": "right"
    },
    {
      "midi": 33,
      "time": 370,
      "duration": 0.5,
      "velocity": 0.71,
      "hand": "left"
    },
    {
      "midi": 45,
      "time": 370,
      "duration": 0.5,
      "velocity": 0.71,
      "hand": "left"
    },
    {
      "midi": 54,
      "time": 370,
      "duration": 0.25,
      "velocity": 0.48,
      "hand": "left"
    },
    {
      "midi": 68,
      "time": 370,
      "duration": 0.25,
      "velocity": 0.71,
      "hand": "right"
    },
    {
      "midi": 61,
      "time": 370.25,
      "duration": 0.25,
      "velocity": 0.48,
      "hand": "right"
    },
    {
      "midi": 66,
      "time": 370.25,
      "duration": 0.25,
      "velocity": 0.71,
      "hand": "right"
    },
    {
      "midi": 34,
      "time": 370.5,
      "duration": 0.5,
      "velocity": 0.71,
      "hand": "left"
    },
    {
      "midi": 46,
      "time": 370.5,
      "duration": 0.5,
      "velocity": 0.71,
      "hand": "left"
    },
    {
      "midi": 55,
      "time": 370.5,
      "duration": 0.25,
      "velocity": 0.48,
      "hand": "left"
    },
    {
      "midi": 64,
      "time": 370.5,
      "duration": 0.25,
      "velocity": 0.71,
      "hand": "right"
    },
    {
      "midi": 61,
      "time": 370.75,
      "duration": 0.25,
      "velocity": 0.48,
      "hand": "right"
    },
    {
      "midi": 63,
      "time": 370.75,
      "duration": 0.25,
      "velocity": 0.71,
      "hand": "right"
    },
    {
      "midi": 27,
      "time": 371,
      "duration": 0.5,
      "velocity": 0.71,
      "hand": "left"
    },
    {
      "midi": 39,
      "time": 371,
      "duration": 0.5,
      "velocity": 0.71,
      "hand": "left"
    },
    {
      "midi": 61,
      "time": 371,
      "duration": 0.25,
      "velocity": 0.48,
      "hand": "right"
    },
    {
      "midi": 71,
      "time": 371,
      "duration": 0.25,
      "velocity": 0.71,
      "hand": "right"
    },
    {
      "midi": 67,
      "time": 371.25,
      "duration": 0.25,
      "velocity": 0.48,
      "hand": "right"
    },
    {
      "midi": 70,
      "time": 371.25,
      "duration": 0.25,
      "velocity": 0.71,
      "hand": "right"
    },
    {
      "midi": 39,
      "time": 371.5,
      "duration": 0.5,
      "velocity": 0.71,
      "hand": "left"
    },
    {
      "midi": 51,
      "time": 371.5,
      "duration": 0.5,
      "velocity": 0.71,
      "hand": "left"
    },
    {
      "midi": 67,
      "time": 371.5,
      "duration": 0.25,
      "velocity": 0.48,
      "hand": "right"
    },
    {
      "midi": 76,
      "time": 371.5,
      "duration": 0.25,
      "velocity": 0.71,
      "hand": "right"
    },
    {
      "midi": 73,
      "time": 371.75,
      "duration": 0.25,
      "velocity": 0.48,
      "hand": "right"
    },
    {
      "midi": 75,
      "time": 371.75,
      "duration": 0.25,
      "velocity": 0.71,
      "hand": "right"
    },
    {
      "midi": 32,
      "time": 372,
      "duration": 0.5,
      "velocity": 0.71,
      "hand": "left"
    },
    {
      "midi": 44,
      "time": 372,
      "duration": 0.5,
      "velocity": 0.71,
      "hand": "left"
    },
    {
      "midi": 73,
      "time": 372,
      "duration": 0.25,
      "velocity": 0.48,
      "hand": "right"
    },
    {
      "midi": 75,
      "time": 372,
      "duration": 0.5,
      "velocity": 0.71,
      "hand": "right"
    },
    {
      "midi": 80,
      "time": 372,
      "duration": 0.5,
      "velocity": 0.71,
      "hand": "right"
    },
    {
      "midi": 72,
      "time": 372.25,
      "duration": 0.25,
      "velocity": 0.48,
      "hand": "right"
    },
    {
      "midi": 39,
      "time": 372.5,
      "duration": 0.5,
      "velocity": 0.71,
      "hand": "left"
    },
    {
      "midi": 51,
      "time": 372.5,
      "duration": 0.5,
      "velocity": 0.71,
      "hand": "left"
    },
    {
      "midi": 72,
      "time": 372.5,
      "duration": 0.25,
      "velocity": 0.48,
      "hand": "right"
    },
    {
      "midi": 75,
      "time": 372.5,
      "duration": 0.5,
      "velocity": 0.71,
      "hand": "right"
    },
    {
      "midi": 80,
      "time": 372.5,
      "duration": 0.5,
      "velocity": 0.71,
      "hand": "right"
    },
    {
      "midi": 70,
      "time": 372.75,
      "duration": 0.25,
      "velocity": 0.48,
      "hand": "right"
    },
    {
      "midi": 44,
      "time": 373,
      "duration": 3.5,
      "velocity": 0.71,
      "hand": "left"
    },
    {
      "midi": 51,
      "time": 373,
      "duration": 3.5,
      "velocity": 0.71,
      "hand": "left"
    },
    {
      "midi": 72,
      "time": 373,
      "duration": 0.25,
      "velocity": 0.48,
      "hand": "right"
    },
    {
      "midi": 75,
      "time": 373,
      "duration": 0.5,
      "velocity": 0.71,
      "hand": "right"
    },
    {
      "midi": 80,
      "time": 373,
      "duration": 0.5,
      "velocity": 0.71,
      "hand": "right"
    },
    {
      "midi": 68,
      "time": 373.25,
      "duration": 0.25,
      "velocity": 0.48,
      "hand": "right"
    },
    {
      "midi": 70,
      "time": 373.5,
      "duration": 0.25,
      "velocity": 0.48,
      "hand": "right"
    },
    {
      "midi": 75,
      "time": 373.5,
      "duration": 0.5,
      "velocity": 0.71,
      "hand": "right"
    },
    {
      "midi": 80,
      "time": 373.5,
      "duration": 0.5,
      "velocity": 0.71,
      "hand": "right"
    },
    {
      "midi": 68,
      "time": 373.75,
      "duration": 0.25,
      "velocity": 0.48,
      "hand": "right"
    },
    {
      "midi": 58,
      "time": 374,
      "duration": 0.5,
      "velocity": 0.71,
      "hand": "left"
    },
    {
      "midi": 70,
      "time": 374,
      "duration": 0.25,
      "velocity": 0.48,
      "hand": "right"
    },
    {
      "midi": 75,
      "time": 374,
      "duration": 0.5,
      "velocity": 0.71,
      "hand": "right"
    },
    {
      "midi": 79,
      "time": 374,
      "duration": 0.5,
      "velocity": 0.71,
      "hand": "right"
    },
    {
      "midi": 65,
      "time": 374.25,
      "duration": 0.25,
      "velocity": 0.48,
      "hand": "right"
    },
    {
      "midi": 58,
      "time": 374.5,
      "duration": 1,
      "velocity": 0.71,
      "hand": "left"
    },
    {
      "midi": 67,
      "time": 374.5,
      "duration": 0.25,
      "velocity": 0.48,
      "hand": "right"
    },
    {
      "midi": 70,
      "time": 374.5,
      "duration": 0.5,
      "velocity": 0.71,
      "hand": "right"
    },
    {
      "midi": 75,
      "time": 374.5,
      "duration": 0.5,
      "velocity": 0.71,
      "hand": "right"
    },
    {
      "midi": 63,
      "time": 374.75,
      "duration": 0.25,
      "velocity": 0.48,
      "hand": "right"
    },
    {
      "midi": 70,
      "time": 375,
      "duration": 0.25,
      "velocity": 0.48,
      "hand": "right"
    },
    {
      "midi": 75,
      "time": 375,
      "duration": 0.5,
      "velocity": 0.71,
      "hand": "right"
    },
    {
      "midi": 78,
      "time": 375,
      "duration": 0.5,
      "velocity": 0.71,
      "hand": "right"
    },
    {
      "midi": 69,
      "time": 375.25,
      "duration": 0.25,
      "velocity": 0.48,
      "hand": "right"
    },
    {
      "midi": 57,
      "time": 375.5,
      "duration": 0.25,
      "velocity": 0.71,
      "hand": "left"
    },
    {
      "midi": 72,
      "time": 375.5,
      "duration": 0.25,
      "velocity": 0.48,
      "hand": "right"
    },
    {
      "midi": 75,
      "time": 375.5,
      "duration": 0.5,
      "velocity": 0.71,
      "hand": "right"
    },
    {
      "midi": 78,
      "time": 375.5,
      "duration": 0.5,
      "velocity": 0.71,
      "hand": "right"
    },
    {
      "midi": 58,
      "time": 375.75,
      "duration": 0.25,
      "velocity": 0.78,
      "hand": "left"
    },
    {
      "midi": 66,
      "time": 375.75,
      "duration": 0.25,
      "velocity": 0.48,
      "hand": "right"
    },
    {
      "midi": 57,
      "time": 376,
      "duration": 0.25,
      "velocity": 0.86,
      "hand": "left"
    },
    {
      "midi": 70,
      "time": 376,
      "duration": 0.25,
      "velocity": 0.48,
      "hand": "right"
    },
    {
      "midi": 75,
      "time": 376,
      "duration": 0.5,
      "velocity": 0.71,
      "hand": "right"
    },
    {
      "midi": 78,
      "time": 376,
      "duration": 0.5,
      "velocity": 0.71,
      "hand": "right"
    },
    {
      "midi": 58,
      "time": 376.25,
      "duration": 0.25,
      "velocity": 0.93,
      "hand": "left"
    },
    {
      "midi": 66,
      "time": 376.25,
      "duration": 0.25,
      "velocity": 0.48,
      "hand": "right"
    },
    {
      "midi": 63,
      "time": 376.5,
      "duration": 1.5,
      "velocity": 0.93,
      "hand": "right"
    },
    {
      "midi": 70,
      "time": 376.5,
      "duration": 0.25,
      "velocity": 0.48,
      "hand": "right"
    },
    {
      "midi": 75,
      "time": 376.5,
      "duration": 0.5,
      "velocity": 0.71,
      "hand": "right"
    },
    {
      "midi": 78,
      "time": 376.5,
      "duration": 1.5,
      "velocity": 0.71,
      "hand": "right"
    },
    {
      "midi": 66,
      "time": 376.75,
      "duration": 0.25,
      "velocity": 0.48,
      "hand": "right"
    },
    {
      "midi": 70,
      "time": 377,
      "duration": 0.25,
      "velocity": 0.48,
      "hand": "right"
    },
    {
      "midi": 74,
      "time": 377,
      "duration": 0.5,
      "velocity": 0.71,
      "hand": "right"
    },
    {
      "midi": 66,
      "time": 377.25,
      "duration": 0.25,
      "velocity": 0.48,
      "hand": "right"
    },
    {
      "midi": 70,
      "time": 377.5,
      "duration": 0.25,
      "velocity": 0.48,
      "hand": "right"
    },
    {
      "midi": 73,
      "time": 377.5,
      "duration": 0.5,
      "velocity": 0.71,
      "hand": "right"
    },
    {
      "midi": 66,
      "time": 377.75,
      "duration": 0.25,
      "velocity": 0.48,
      "hand": "right"
    },
    {
      "midi": 32,
      "time": 378,
      "duration": 0.5,
      "velocity": 0.93,
      "hand": "left"
    },
    {
      "midi": 44,
      "time": 378,
      "duration": 0.5,
      "velocity": 0.93,
      "hand": "left"
    },
    {
      "midi": 69,
      "time": 378,
      "duration": 0.25,
      "velocity": 0.48,
      "hand": "right"
    },
    {
      "midi": 72,
      "time": 378,
      "duration": 0.5,
      "velocity": 0.71,
      "hand": "right"
    },
    {
      "midi": 78,
      "time": 378,
      "duration": 0.5,
      "velocity": 0.71,
      "hand": "right"
    },
    {
      "midi": 68,
      "time": 378.25,
      "duration": 0.25,
      "velocity": 0.48,
      "hand": "right"
    },
    {
      "midi": 39,
      "time": 378.5,
      "duration": 0.5,
      "velocity": 0.93,
      "hand": "left"
    },
    {
      "midi": 51,
      "time": 378.5,
      "duration": 0.5,
      "velocity": 0.93,
      "hand": "left"
    },
    {
      "midi": 68,
      "time": 378.5,
      "duration": 0.25,
      "velocity": 0.48,
      "hand": "right"
    },
    {
      "midi": 72,
      "time": 378.5,
      "duration": 0.5,
      "velocity": 0.71,
      "hand": "right"
    },
    {
      "midi": 78,
      "time": 378.5,
      "duration": 0.5,
      "velocity": 0.71,
      "hand": "right"
    },
    {
      "midi": 67,
      "time": 378.75,
      "duration": 0.25,
      "velocity": 0.48,
      "hand": "right"
    },
    {
      "midi": 44,
      "time": 379,
      "duration": 2,
      "velocity": 0.71,
      "hand": "left"
    },
    {
      "midi": 56,
      "time": 379,
      "duration": 1,
      "velocity": 0.93,
      "hand": "left"
    },
    {
      "midi": 68,
      "time": 379,
      "duration": 0.25,
      "velocity": 0.48,
      "hand": "right"
    },
    {
      "midi": 72,
      "time": 379,
      "duration": 0.5,
      "velocity": 0.71,
      "hand": "right"
    },
    {
      "midi": 78,
      "time": 379,
      "duration": 0.5,
      "velocity": 0.71,
      "hand": "right"
    },
    {
      "midi": 63,
      "time": 379.25,
      "duration": 0.25,
      "velocity": 0.48,
      "hand": "right"
    },
    {
      "midi": 68,
      "time": 379.5,
      "duration": 0.25,
      "velocity": 0.48,
      "hand": "right"
    },
    {
      "midi": 72,
      "time": 379.5,
      "duration": 0.5,
      "velocity": 0.71,
      "hand": "right"
    },
    {
      "midi": 78,
      "time": 379.5,
      "duration": 0.5,
      "velocity": 0.71,
      "hand": "right"
    },
    {
      "midi": 67,
      "time": 379.75,
      "duration": 0.25,
      "velocity": 0.48,
      "hand": "right"
    },
    {
      "midi": 56,
      "time": 380,
      "duration": 0.5,
      "velocity": 0.93,
      "hand": "left"
    },
    {
      "midi": 68,
      "time": 380,
      "duration": 0.25,
      "velocity": 0.48,
      "hand": "right"
    },
    {
      "midi": 72,
      "time": 380,
      "duration": 0.5,
      "velocity": 0.71,
      "hand": "right"
    },
    {
      "midi": 77,
      "time": 380,
      "duration": 0.5,
      "velocity": 0.71,
      "hand": "right"
    },
    {
      "midi": 64,
      "time": 380.25,
      "duration": 0.25,
      "velocity": 0.48,
      "hand": "right"
    },
    {
      "midi": 56,
      "time": 380.5,
      "duration": 0.5,
      "velocity": 0.93,
      "hand": "left"
    },
    {
      "midi": 65,
      "time": 380.5,
      "duration": 0.25,
      "velocity": 0.48,
      "hand": "right"
    },
    {
      "midi": 72,
      "time": 380.5,
      "duration": 0.5,
      "velocity": 0.71,
      "hand": "right"
    },
    {
      "midi": 60,
      "time": 380.75,
      "duration": 0.25,
      "velocity": 0.48,
      "hand": "right"
    },
    {
      "midi": 44,
      "time": 381,
      "duration": 1.5,
      "velocity": 0.71,
      "hand": "left"
    },
    {
      "midi": 56,
      "time": 381,
      "duration": 0.5,
      "velocity": 0.93,
      "hand": "left"
    },
    {
      "midi": 64,
      "time": 381,
      "duration": 0.25,
      "velocity": 0.48,
      "hand": "right"
    },
    {
      "midi": 71,
      "time": 381,
      "duration": 0.5,
      "velocity": 0.71,
      "hand": "right"
    },
    {
      "midi": 76,
      "time": 381,
      "duration": 0.5,
      "velocity": 0.71,
      "hand": "right"
    },
    {
      "midi": 63,
      "time": 381.25,
      "duration": 0.25,
      "velocity": 0.48,
      "hand": "right"
    },
    {
      "midi": 55,
      "time": 381.5,
      "duration": 0.25,
      "velocity": 0.93,
      "hand": "left"
    },
    {
      "midi": 66,
      "time": 381.5,
      "duration": 0.25,
      "velocity": 0.48,
      "hand": "right"
    },
    {
      "midi": 71,
      "time": 381.5,
      "duration": 0.5,
      "velocity": 0.71,
      "hand": "right"
    },
    {
      "midi": 76,
      "time": 381.5,
      "duration": 0.5,
      "velocity": 0.71,
      "hand": "right"
    },
    {
      "midi": 56,
      "time": 381.75,
      "duration": 0.25,
      "velocity": 0.93,
      "hand": "left"
    },
    {
      "midi": 59,
      "time": 381.75,
      "duration": 0.25,
      "velocity": 0.48,
      "hand": "left"
    },
    {
      "midi": 55,
      "time": 382,
      "duration": 0.25,
      "velocity": 0.93,
      "hand": "left"
    },
    {
      "midi": 64,
      "time": 382,
      "duration": 0.25,
      "velocity": 0.48,
      "hand": "right"
    },
    {
      "midi": 71,
      "time": 382,
      "duration": 0.5,
      "velocity": 0.71,
      "hand": "right"
    },
    {
      "midi": 76,
      "time": 382,
      "duration": 0.5,
      "velocity": 0.71,
      "hand": "right"
    },
    {
      "midi": 56,
      "time": 382.25,
      "duration": 0.25,
      "velocity": 0.93,
      "hand": "left"
    },
    {
      "midi": 59,
      "time": 382.25,
      "duration": 0.25,
      "velocity": 0.48,
      "hand": "left"
    },
    {
      "midi": 68,
      "time": 382.5,
      "duration": 1.5,
      "velocity": 0.93,
      "hand": "right"
    },
    {
      "midi": 71,
      "time": 382.5,
      "duration": 0.25,
      "velocity": 0.48,
      "hand": "right"
    },
    {
      "midi": 76,
      "time": 382.5,
      "duration": 1,
      "velocity": 0.71,
      "hand": "right"
    },
    {
      "midi": 64,
      "time": 382.75,
      "duration": 0.25,
      "velocity": 0.43,
      "hand": "right"
    },
    {
      "midi": 71,
      "time": 383,
      "duration": 0.25,
      "velocity": 0.39,
      "hand": "right"
    },
    {
      "midi": 63,
      "time": 383.25,
      "duration": 0.25,
      "velocity": 0.35,
      "hand": "right"
    },
    {
      "midi": 71,
      "time": 383.5,
      "duration": 0.75,
      "velocity": 0.71,
      "hand": "right"
    },
    {
      "midi": 62,
      "time": 383.75,
      "duration": 0.25,
      "velocity": 0.26,
      "hand": "right"
    },
    {
      "midi": 33,
      "time": 384,
      "duration": 0.25,
      "velocity": 0.09,
      "hand": "left"
    },
    {
      "midi": 61,
      "time": 384,
      "duration": 0.25,
      "velocity": 0.26,
      "hand": "right"
    },
    {
      "midi": 52,
      "time": 384.25,
      "duration": 0.25,
      "velocity": 0.09,
      "hand": "left"
    },
    {
      "midi": 67,
      "time": 384.25,
      "duration": 0.25,
      "velocity": 0.26,
      "hand": "right"
    },
    {
      "midi": 69,
      "time": 384.25,
      "duration": 0.25,
      "velocity": 0.71,
      "hand": "right"
    },
    {
      "midi": 57,
      "time": 384.5,
      "duration": 0.25,
      "velocity": 0.09,
      "hand": "left"
    },
    {
      "midi": 64,
      "time": 384.5,
      "duration": 0.5,
      "velocity": 0.71,
      "hand": "right"
    },
    {
      "midi": 76,
      "time": 384.5,
      "duration": 0.5,
      "velocity": 0.71,
      "hand": "right"
    },
    {
      "midi": 59,
      "time": 384.75,
      "duration": 0.25,
      "velocity": 0.09,
      "hand": "left"
    },
    {
      "midi": 67,
      "time": 384.75,
      "duration": 0.25,
      "velocity": 0.26,
      "hand": "right"
    },
    {
      "midi": 69,
      "time": 384.75,
      "duration": 0.25,
      "velocity": 0.26,
      "hand": "right"
    },
    {
      "midi": 61,
      "time": 385,
      "duration": 0.5,
      "velocity": 0.09,
      "hand": "right"
    },
    {
      "midi": 64,
      "time": 385,
      "duration": 0.5,
      "velocity": 0.71,
      "hand": "right"
    },
    {
      "midi": 76,
      "time": 385,
      "duration": 0.5,
      "velocity": 0.71,
      "hand": "right"
    },
    {
      "midi": 67,
      "time": 385.25,
      "duration": 0.25,
      "velocity": 0.26,
      "hand": "right"
    },
    {
      "midi": 69,
      "time": 385.25,
      "duration": 0.25,
      "velocity": 0.26,
      "hand": "right"
    },
    {
      "midi": 38,
      "time": 385.5,
      "duration": 0.25,
      "velocity": 0.09,
      "hand": "left"
    },
    {
      "midi": 64,
      "time": 385.5,
      "duration": 0.5,
      "velocity": 0.26,
      "hand": "right"
    },
    {
      "midi": 76,
      "time": 385.5,
      "duration": 0.5,
      "velocity": 0.71,
      "hand": "right"
    },
    {
      "midi": 57,
      "time": 385.75,
      "duration": 0.25,
      "velocity": 0.09,
      "hand": "left"
    },
    {
      "midi": 66,
      "time": 385.75,
      "duration": 0.25,
      "velocity": 0.26,
      "hand": "right"
    },
    {
      "midi": 69,
      "time": 385.75,
      "duration": 0.25,
      "velocity": 0.26,
      "hand": "right"
    },
    {
      "midi": 54,
      "time": 386,
      "duration": 0.25,
      "velocity": 0.09,
      "hand": "left"
    },
    {
      "midi": 62,
      "time": 386,
      "duration": 0.5,
      "velocity": 0.71,
      "hand": "right"
    },
    {
      "midi": 74,
      "time": 386,
      "duration": 0.5,
      "velocity": 0.71,
      "hand": "right"
    },
    {
      "midi": 57,
      "time": 386.25,
      "duration": 0.25,
      "velocity": 0.09,
      "hand": "left"
    },
    {
      "midi": 66,
      "time": 386.25,
      "duration": 0.25,
      "velocity": 0.26,
      "hand": "right"
    },
    {
      "midi": 69,
      "time": 386.25,
      "duration": 0.25,
      "velocity": 0.26,
      "hand": "right"
    },
    {
      "midi": 47,
      "time": 386.5,
      "duration": 0.25,
      "velocity": 0.09,
      "hand": "left"
    },
    {
      "midi": 61,
      "time": 386.5,
      "duration": 0.5,
      "velocity": 0.71,
      "hand": "right"
    },
    {
      "midi": 73,
      "time": 386.5,
      "duration": 0.5,
      "velocity": 0.71,
      "hand": "right"
    },
    {
      "midi": 57,
      "time": 386.75,
      "duration": 0.25,
      "velocity": 0.09,
      "hand": "left"
    },
    {
      "midi": 66,
      "time": 386.75,
      "duration": 0.25,
      "velocity": 0.26,
      "hand": "right"
    },
    {
      "midi": 69,
      "time": 386.75,
      "duration": 0.25,
      "velocity": 0.26,
      "hand": "right"
    },
    {
      "midi": 40,
      "time": 387,
      "duration": 0.25,
      "velocity": 0.09,
      "hand": "left"
    },
    {
      "midi": 61,
      "time": 387,
      "duration": 0.5,
      "velocity": 0.26,
      "hand": "right"
    },
    {
      "midi": 73,
      "time": 387,
      "duration": 0.5,
      "velocity": 0.71,
      "hand": "right"
    },
    {
      "midi": 52,
      "time": 387.25,
      "duration": 0.25,
      "velocity": 0.09,
      "hand": "left"
    },
    {
      "midi": 64,
      "time": 387.25,
      "duration": 0.25,
      "velocity": 0.26,
      "hand": "right"
    },
    {
      "midi": 68,
      "time": 387.25,
      "duration": 0.25,
      "velocity": 0.26,
      "hand": "right"
    },
    {
      "midi": 50,
      "time": 387.5,
      "duration": 0.25,
      "velocity": 0.09,
      "hand": "left"
    },
    {
      "midi": 56,
      "time": 387.5,
      "duration": 0.25,
      "velocity": 0.09,
      "hand": "left"
    },
    {
      "midi": 59,
      "time": 387.5,
      "duration": 0.5,
      "velocity": 0.71,
      "hand": "left"
    },
    {
      "midi": 71,
      "time": 387.5,
      "duration": 0.5,
      "velocity": 0.71,
      "hand": "right"
    },
    {
      "midi": 52,
      "time": 387.75,
      "duration": 0.25,
      "velocity": 0.09,
      "hand": "left"
    },
    {
      "midi": 64,
      "time": 387.75,
      "duration": 0.25,
      "velocity": 0.26,
      "hand": "right"
    },
    {
      "midi": 68,
      "time": 387.75,
      "duration": 0.25,
      "velocity": 0.26,
      "hand": "right"
    },
    {
      "midi": 49,
      "time": 388,
      "duration": 0.25,
      "velocity": 0.09,
      "hand": "left"
    },
    {
      "midi": 57,
      "time": 388,
      "duration": 0.5,
      "velocity": 0.71,
      "hand": "left"
    },
    {
      "midi": 69,
      "time": 388,
      "duration": 0.5,
      "velocity": 0.71,
      "hand": "right"
    },
    {
      "midi": 52,
      "time": 388.25,
      "duration": 0.25,
      "velocity": 0.09,
      "hand": "left"
    },
    {
      "midi": 64,
      "time": 388.25,
      "duration": 0.25,
      "velocity": 0.26,
      "hand": "right"
    },
    {
      "midi": 45,
      "time": 388.5,
      "duration": 1.5,
      "velocity": 0.71,
      "hand": "left"
    },
    {
      "midi": 61,
      "time": 388.5,
      "duration": 0.25,
      "velocity": 0.26,
      "hand": "right"
    },
    {
      "midi": 73,
      "time": 388.5,
      "duration": 1.5,
      "velocity": 0.71,
      "hand": "right"
    },
    {
      "midi": 52,
      "time": 388.75,
      "duration": 0.25,
      "velocity": 0.71,
      "hand": "left"
    },
    {
      "midi": 64,
      "time": 388.75,
      "duration": 0.25,
      "velocity": 0.26,
      "hand": "right"
    },
    {
      "midi": 69,
      "time": 388.75,
      "duration": 0.25,
      "velocity": 0.26,
      "hand": "right"
    },
    {
      "midi": 57,
      "time": 389,
      "duration": 0.25,
      "velocity": 0.71,
      "hand": "left"
    },
    {
      "midi": 61,
      "time": 389,
      "duration": 0.25,
      "velocity": 0.26,
      "hand": "right"
    },
    {
      "midi": 54,
      "time": 389.25,
      "duration": 0.25,
      "velocity": 0.71,
      "hand": "left"
    },
    {
      "midi": 62,
      "time": 389.25,
      "duration": 0.25,
      "velocity": 0.26,
      "hand": "right"
    },
    {
      "midi": 69,
      "time": 389.25,
      "duration": 0.25,
      "velocity": 0.26,
      "hand": "right"
    },
    {
      "midi": 52,
      "time": 389.5,
      "duration": 0.5,
      "velocity": 0.71,
      "hand": "left"
    },
    {
      "midi": 61,
      "time": 389.5,
      "duration": 0.25,
      "velocity": 0.26,
      "hand": "right"
    },
    {
      "midi": 64,
      "time": 389.75,
      "duration": 0.25,
      "velocity": 0.26,
      "hand": "right"
    },
    {
      "midi": 69,
      "time": 389.75,
      "duration": 0.25,
      "velocity": 0.26,
      "hand": "right"
    },
    {
      "midi": 33,
      "time": 390,
      "duration": 0.25,
      "velocity": 0.09,
      "hand": "left"
    },
    {
      "midi": 61,
      "time": 390,
      "duration": 0.25,
      "velocity": 0.26,
      "hand": "right"
    },
    {
      "midi": 76,
      "time": 390,
      "duration": 0.5,
      "velocity": 0.71,
      "hand": "right"
    },
    {
      "midi": 45,
      "time": 390.25,
      "duration": 0.25,
      "velocity": 0.09,
      "hand": "left"
    },
    {
      "midi": 67,
      "time": 390.25,
      "duration": 0.25,
      "velocity": 0.26,
      "hand": "right"
    },
    {
      "midi": 69,
      "time": 390.25,
      "duration": 0.25,
      "velocity": 0.26,
      "hand": "right"
    },
    {
      "midi": 52,
      "time": 390.5,
      "duration": 0.25,
      "velocity": 0.09,
      "hand": "left"
    },
    {
      "midi": 64,
      "time": 390.5,
      "duration": 0.5,
      "velocity": 0.26,
      "hand": "right"
    },
    {
      "midi": 76,
      "time": 390.5,
      "duration": 0.5,
      "velocity": 0.71,
      "hand": "right"
    },
    {
      "midi": 59,
      "time": 390.75,
      "duration": 0.25,
      "velocity": 0.09,
      "hand": "left"
    },
    {
      "midi": 67,
      "time": 390.75,
      "duration": 0.25,
      "velocity": 0.26,
      "hand": "right"
    },
    {
      "midi": 69,
      "time": 390.75,
      "duration": 0.25,
      "velocity": 0.26,
      "hand": "right"
    },
    {
      "midi": 61,
      "time": 391,
      "duration": 0.5,
      "velocity": 0.09,
      "hand": "right"
    },
    {
      "midi": 64,
      "time": 391,
      "duration": 0.5,
      "velocity": 0.71,
      "hand": "right"
    },
    {
      "midi": 76,
      "time": 391,
      "duration": 0.5,
      "velocity": 0.71,
      "hand": "right"
    },
    {
      "midi": 67,
      "time": 391.25,
      "duration": 0.25,
      "velocity": 0.26,
      "hand": "right"
    },
    {
      "midi": 69,
      "time": 391.25,
      "duration": 0.25,
      "velocity": 0.26,
      "hand": "right"
    },
    {
      "midi": 38,
      "time": 391.5,
      "duration": 0.25,
      "velocity": 0.09,
      "hand": "left"
    },
    {
      "midi": 64,
      "time": 391.5,
      "duration": 0.5,
      "velocity": 0.71,
      "hand": "right"
    },
    {
      "midi": 76,
      "time": 391.5,
      "duration": 0.5,
      "velocity": 0.71,
      "hand": "right"
    },
    {
      "midi": 57,
      "time": 391.75,
      "duration": 0.25,
      "velocity": 0.09,
      "hand": "left"
    },
    {
      "midi": 66,
      "time": 391.75,
      "duration": 0.25,
      "velocity": 0.26,
      "hand": "right"
    },
    {
      "midi": 69,
      "time": 391.75,
      "duration": 0.25,
      "velocity": 0.26,
      "hand": "right"
    },
    {
      "midi": 54,
      "time": 392,
      "duration": 0.25,
      "velocity": 0.09,
      "hand": "left"
    },
    {
      "midi": 62,
      "time": 392,
      "duration": 0.5,
      "velocity": 0.71,
      "hand": "right"
    },
    {
      "midi": 74,
      "time": 392,
      "duration": 0.5,
      "velocity": 0.71,
      "hand": "right"
    },
    {
      "midi": 57,
      "time": 392.25,
      "duration": 0.25,
      "velocity": 0.09,
      "hand": "left"
    },
    {
      "midi": 66,
      "time": 392.25,
      "duration": 0.25,
      "velocity": 0.26,
      "hand": "right"
    },
    {
      "midi": 69,
      "time": 392.25,
      "duration": 0.25,
      "velocity": 0.26,
      "hand": "right"
    },
    {
      "midi": 42,
      "time": 392.5,
      "duration": 0.25,
      "velocity": 0.09,
      "hand": "left"
    },
    {
      "midi": 61,
      "time": 392.5,
      "duration": 0.5,
      "velocity": 0.71,
      "hand": "right"
    },
    {
      "midi": 73,
      "time": 392.5,
      "duration": 0.5,
      "velocity": 0.71,
      "hand": "right"
    },
    {
      "midi": 49,
      "time": 392.75,
      "duration": 0.25,
      "velocity": 0.09,
      "hand": "left"
    },
    {
      "midi": 66,
      "time": 392.75,
      "duration": 0.25,
      "velocity": 0.26,
      "hand": "right"
    },
    {
      "midi": 69,
      "time": 392.75,
      "duration": 0.25,
      "velocity": 0.26,
      "hand": "right"
    },
    {
      "midi": 41,
      "time": 393,
      "duration": 0.25,
      "velocity": 0.09,
      "hand": "left"
    },
    {
      "midi": 61,
      "time": 393,
      "duration": 0.5,
      "velocity": 0.71,
      "hand": "right"
    },
    {
      "midi": 73,
      "time": 393,
      "duration": 0.5,
      "velocity": 0.71,
      "hand": "right"
    },
    {
      "midi": 49,
      "time": 393.25,
      "duration": 0.25,
      "velocity": 0.09,
      "hand": "left"
    },
    {
      "midi": 68,
      "time": 393.25,
      "duration": 0.25,
      "velocity": 0.26,
      "hand": "right"
    },
    {
      "midi": 56,
      "time": 393.5,
      "duration": 0.25,
      "velocity": 0.09,
      "hand": "left"
    },
    {
      "midi": 59,
      "time": 393.5,
      "duration": 0.5,
      "velocity": 0.71,
      "hand": "left"
    },
    {
      "midi": 71,
      "time": 393.5,
      "duration": 0.5,
      "velocity": 0.71,
      "hand": "right"
    },
    {
      "midi": 49,
      "time": 393.75,
      "duration": 0.25,
      "velocity": 0.09,
      "hand": "left"
    },
    {
      "midi": 61,
      "time": 393.75,
      "duration": 0.25,
      "velocity": 0.26,
      "hand": "right"
    },
    {
      "midi": 68,
      "time": 393.75,
      "duration": 0.25,
      "velocity": 0.26,
      "hand": "right"
    },
    {
      "midi": 42,
      "time": 394,
      "duration": 0.25,
      "velocity": 0.09,
      "hand": "left"
    },
    {
      "midi": 57,
      "time": 394,
      "duration": 0.5,
      "velocity": 0.71,
      "hand": "left"
    },
    {
      "midi": 69,
      "time": 394,
      "duration": 0.5,
      "velocity": 0.71,
      "hand": "right"
    },
    {
      "midi": 49,
      "time": 394.25,
      "duration": 0.25,
      "velocity": 0.09,
      "hand": "left"
    },
    {
      "midi": 61,
      "time": 394.25,
      "duration": 0.25,
      "velocity": 0.26,
      "hand": "right"
    },
    {
      "midi": 66,
      "time": 394.25,
      "duration": 0.25,
      "velocity": 0.26,
      "hand": "right"
    },
    {
      "midi": 37,
      "time": 394.5,
      "duration": 0.25,
      "velocity": 0.09,
      "hand": "left"
    },
    {
      "midi": 56,
      "time": 394.5,
      "duration": 0.25,
      "velocity": 0.26,
      "hand": "left"
    },
    {
      "midi": 73,
      "time": 394.5,
      "duration": 1.5,
      "velocity": 0.93,
      "hand": "right"
    },
    {
      "midi": 44,
      "time": 394.75,
      "duration": 0.25,
      "velocity": 0.09,
      "hand": "left"
    },
    {
      "midi": 65,
      "time": 394.75,
      "duration": 0.25,
      "velocity": 0.26,
      "hand": "right"
    },
    {
      "midi": 68,
      "time": 394.75,
      "duration": 0.25,
      "velocity": 0.26,
      "hand": "right"
    },
    {
      "midi": 56,
      "time": 395,
      "duration": 0.25,
      "velocity": 0.09,
      "hand": "left"
    },
    {
      "midi": 61,
      "time": 395,
      "duration": 0.25,
      "velocity": 0.26,
      "hand": "right"
    },
    {
      "midi": 49,
      "time": 395.25,
      "duration": 0.25,
      "velocity": 0.09,
      "hand": "left"
    },
    {
      "midi": 65,
      "time": 395.25,
      "duration": 0.25,
      "velocity": 0.26,
      "hand": "right"
    },
    {
      "midi": 68,
      "time": 395.25,
      "duration": 0.25,
      "velocity": 0.26,
      "hand": "right"
    },
    {
      "midi": 61,
      "time": 395.5,
      "duration": 0.25,
      "velocity": 0.26,
      "hand": "right"
    },
    {
      "midi": 61,
      "time": 395.5,
      "duration": 0.5,
      "velocity": 0.09,
      "hand": "right"
    },
    {
      "midi": 65,
      "time": 395.75,
      "duration": 0.25,
      "velocity": 0.26,
      "hand": "right"
    },
    {
      "midi": 68,
      "time": 395.75,
      "duration": 0.25,
      "velocity": 0.26,
      "hand": "right"
    },
    {
      "midi": 40,
      "time": 396,
      "duration": 0.25,
      "velocity": 0.09,
      "hand": "left"
    },
    {
      "midi": 61,
      "time": 396,
      "duration": 0.5,
      "velocity": 0.26,
      "hand": "right"
    },
    {
      "midi": 73,
      "time": 396,
      "duration": 0.5,
      "velocity": 0.93,
      "hand": "right"
    },
    {
      "midi": 52,
      "time": 396.25,
      "duration": 0.25,
      "velocity": 0.09,
      "hand": "left"
    },
    {
      "midi": 64,
      "time": 396.25,
      "duration": 0.25,
      "velocity": 0.26,
      "hand": "right"
    },
    {
      "midi": 68,
      "time": 396.25,
      "duration": 0.25,
      "velocity": 0.26,
      "hand": "right"
    },
    {
      "midi": 50,
      "time": 396.5,
      "duration": 0.25,
      "velocity": 0.09,
      "hand": "left"
    },
    {
      "midi": 56,
      "time": 396.5,
      "duration": 0.25,
      "velocity": 0.09,
      "hand": "left"
    },
    {
      "midi": 59,
      "time": 396.5,
      "duration": 0.5,
      "velocity": 0.93,
      "hand": "left"
    },
    {
      "midi": 71,
      "time": 396.5,
      "duration": 0.5,
      "velocity": 0.93,
      "hand": "right"
    },
    {
      "midi": 52,
      "time": 396.75,
      "duration": 0.25,
      "velocity": 0.09,
      "hand": "left"
    },
    {
      "midi": 64,
      "time": 396.75,
      "duration": 0.25,
      "velocity": 0.26,
      "hand": "right"
    },
    {
      "midi": 68,
      "time": 396.75,
      "duration": 0.25,
      "velocity": 0.26,
      "hand": "right"
    },
    {
      "midi": 49,
      "time": 397,
      "duration": 0.25,
      "velocity": 0.09,
      "hand": "left"
    },
    {
      "midi": 57,
      "time": 397,
      "duration": 0.5,
      "velocity": 0.93,
      "hand": "left"
    },
    {
      "midi": 69,
      "time": 397,
      "duration": 0.5,
      "velocity": 0.93,
      "hand": "right"
    },
    {
      "midi": 52,
      "time": 397.25,
      "duration": 0.25,
      "velocity": 0.09,
      "hand": "left"
    },
    {
      "midi": 64,
      "time": 397.25,
      "duration": 0.25,
      "velocity": 0.26,
      "hand": "right"
    },
    {
      "midi": 45,
      "time": 397.5,
      "duration": 0.25,
      "velocity": 0.09,
      "hand": "left"
    },
    {
      "midi": 61,
      "time": 397.5,
      "duration": 0.25,
      "velocity": 0.71,
      "hand": "right"
    },
    {
      "midi": 73,
      "time": 397.5,
      "duration": 1.5,
      "velocity": 0.93,
      "hand": "right"
    },
    {
      "midi": 52,
      "time": 397.75,
      "duration": 0.25,
      "velocity": 0.09,
      "hand": "left"
    },
    {
      "midi": 64,
      "time": 397.75,
      "duration": 0.25,
      "velocity": 0.71,
      "hand": "right"
    },
    {
      "midi": 69,
      "time": 397.75,
      "duration": 0.25,
      "velocity": 0.71,
      "hand": "right"
    },
    {
      "midi": 57,
      "time": 398,
      "duration": 0.25,
      "velocity": 0.09,
      "hand": "left"
    },
    {
      "midi": 61,
      "time": 398,
      "duration": 0.25,
      "velocity": 0.71,
      "hand": "right"
    },
    {
      "midi": 54,
      "time": 398.25,
      "duration": 0.25,
      "velocity": 0.09,
      "hand": "left"
    },
    {
      "midi": 62,
      "time": 398.25,
      "duration": 0.25,
      "velocity": 0.71,
      "hand": "right"
    },
    {
      "midi": 69,
      "time": 398.25,
      "duration": 0.25,
      "velocity": 0.71,
      "hand": "right"
    },
    {
      "midi": 52,
      "time": 398.5,
      "duration": 0.25,
      "velocity": 0.09,
      "hand": "left"
    },
    {
      "midi": 61,
      "time": 398.5,
      "duration": 0.25,
      "velocity": 0.71,
      "hand": "right"
    },
    {
      "midi": 45,
      "time": 398.75,
      "duration": 0.25,
      "velocity": 0.09,
      "hand": "left"
    },
    {
      "midi": 64,
      "time": 398.75,
      "duration": 0.25,
      "velocity": 0.71,
      "hand": "right"
    },
    {
      "midi": 69,
      "time": 398.75,
      "duration": 0.5,
      "velocity": 0.71,
      "hand": "right"
    },
    {
      "midi": 57,
      "time": 399,
      "duration": 0.25,
      "velocity": 0.71,
      "hand": "left"
    },
    {
      "midi": 61,
      "time": 399,
      "duration": 0.25,
      "velocity": 0.71,
      "hand": "right"
    },
    {
      "midi": 73,
      "time": 399,
      "duration": 2,
      "velocity": 0.93,
      "hand": "right"
    },
    {
      "midi": 54,
      "time": 399.25,
      "duration": 0.25,
      "velocity": 0.71,
      "hand": "left"
    },
    {
      "midi": 62,
      "time": 399.25,
      "duration": 0.25,
      "velocity": 0.71,
      "hand": "right"
    },
    {
      "midi": 69,
      "time": 399.25,
      "duration": 0.5,
      "velocity": 0.71,
      "hand": "right"
    },
    {
      "midi": 52,
      "time": 399.5,
      "duration": 0.25,
      "velocity": 0.71,
      "hand": "left"
    },
    {
      "midi": 61,
      "time": 399.5,
      "duration": 0.25,
      "velocity": 0.71,
      "hand": "right"
    },
    {
      "midi": 45,
      "time": 399.75,
      "duration": 1.75,
      "velocity": 0.71,
      "hand": "left"
    },
    {
      "midi": 64,
      "time": 399.75,
      "duration": 0.25,
      "velocity": 0.71,
      "hand": "right"
    },
    {
      "midi": 69,
      "time": 399.75,
      "duration": 0.5,
      "velocity": 0.71,
      "hand": "right"
    },
    {
      "midi": 57,
      "time": 400,
      "duration": 0.25,
      "velocity": 0.71,
      "hand": "left"
    },
    {
      "midi": 61,
      "time": 400,
      "duration": 0.25,
      "velocity": 0.71,
      "hand": "right"
    },
    {
      "midi": 54,
      "time": 400.25,
      "duration": 0.25,
      "velocity": 0.71,
      "hand": "left"
    },
    {
      "midi": 62,
      "time": 400.25,
      "duration": 0.25,
      "velocity": 0.71,
      "hand": "right"
    },
    {
      "midi": 69,
      "time": 400.25,
      "duration": 0.25,
      "velocity": 0.71,
      "hand": "right"
    },
    {
      "midi": 52,
      "time": 400.5,
      "duration": 1,
      "velocity": 0.71,
      "hand": "left"
    },
    {
      "midi": 61,
      "time": 400.5,
      "duration": 1.5,
      "velocity": 0.71,
      "hand": "right"
    },
    {
      "midi": 69,
      "time": 400.5,
      "duration": 0.5,
      "velocity": 0.71,
      "hand": "right"
    },
    {
      "midi": 57,
      "time": 401,
      "duration": 0.125,
      "velocity": 0.71,
      "hand": "left"
    },
    {
      "midi": 61,
      "time": 401,
      "duration": 0.125,
      "velocity": 0.71,
      "hand": "right"
    },
    {
      "midi": 64,
      "time": 401,
      "duration": 0.125,
      "velocity": 0.71,
      "hand": "right"
    },
    {
      "midi": 69,
      "time": 401,
      "duration": 0.5,
      "velocity": 0.71,
      "hand": "right"
    },
    {
      "midi": 69,
      "time": 401,
      "duration": 0.125,
      "velocity": 0.71,
      "hand": "right"
    },
    {
      "midi": 73,
      "time": 401,
      "duration": 0.25,
      "velocity": 0.71,
      "hand": "right"
    },
    {
      "midi": 76,
      "time": 401,
      "duration": 0.125,
      "velocity": 0.71,
      "hand": "right"
    },
    {
      "midi": 69,
      "time": 401.25,
      "duration": 0.125,
      "velocity": 0.71,
      "hand": "right"
    },
    {
      "midi": 73,
      "time": 401.25,
      "duration": 0.125,
      "velocity": 0.71,
      "hand": "right"
    },
    {
      "midi": 74,
      "time": 401.25,
      "duration": 0.125,
      "velocity": 0.71,
      "hand": "right"
    },
    {
      "midi": 76,
      "time": 401.25,
      "duration": 0.125,
      "velocity": 0.71,
      "hand": "right"
    },
    {
      "midi": 77,
      "time": 401.25,
      "duration": 0.125,
      "velocity": 0.71,
      "hand": "right"
    },
    {
      "midi": 79,
      "time": 401.25,
      "duration": 0.125,
      "velocity": 0.71,
      "hand": "right"
    },
    {
      "midi": 81,
      "time": 401.25,
      "duration": 0.125,
      "velocity": 0.71,
      "hand": "right"
    },
    {
      "midi": 85,
      "time": 401.25,
      "duration": 0.125,
      "velocity": 0.71,
      "hand": "right"
    },
    {
      "midi": 86,
      "time": 401.25,
      "duration": 0.125,
      "velocity": 0.71,
      "hand": "right"
    },
    {
      "midi": 88,
      "time": 401.25,
      "duration": 0.125,
      "velocity": 0.71,
      "hand": "right"
    },
    {
      "midi": 93,
      "time": 401.25,
      "duration": 0.125,
      "velocity": 0.71,
      "hand": "right"
    },
    {
      "midi": 45,
      "time": 401.5,
      "duration": 0.125,
      "velocity": 0.71,
      "hand": "left"
    },
    {
      "midi": 52,
      "time": 401.5,
      "duration": 0.125,
      "velocity": 0.71,
      "hand": "left"
    },
    {
      "midi": 57,
      "time": 401.5,
      "duration": 0.125,
      "velocity": 0.71,
      "hand": "left"
    },
    {
      "midi": 61,
      "time": 401.5,
      "duration": 0.125,
      "velocity": 0.71,
      "hand": "right"
    },
    {
      "midi": 62,
      "time": 401.5,
      "duration": 0.125,
      "velocity": 0.71,
      "hand": "right"
    },
    {
      "midi": 64,
      "time": 401.5,
      "duration": 0.125,
      "velocity": 0.71,
      "hand": "right"
    },
    {
      "midi": 65,
      "time": 401.5,
      "duration": 0.125,
      "velocity": 0.71,
      "hand": "right"
    },
    {
      "midi": 67,
      "time": 401.5,
      "duration": 0.125,
      "velocity": 0.71,
      "hand": "right"
    },
    {
      "midi": 69,
      "time": 401.5,
      "duration": 0.125,
      "velocity": 0.71,
      "hand": "right"
    },
    {
      "midi": 73,
      "time": 401.5,
      "duration": 0.125,
      "velocity": 0.71,
      "hand": "right"
    },
    {
      "midi": 73,
      "time": 401.5,
      "duration": 0.5,
      "velocity": 0.71,
      "hand": "right"
    },
    {
      "midi": 74,
      "time": 401.5,
      "duration": 0.125,
      "velocity": 0.71,
      "hand": "right"
    },
    {
      "midi": 76,
      "time": 401.5,
      "duration": 0.125,
      "velocity": 0.71,
      "hand": "right"
    },
    {
      "midi": 81,
      "time": 401.5,
      "duration": 0.125,
      "velocity": 0.71,
      "hand": "right"
    },
    {
      "midi": 45,
      "time": 401.75,
      "duration": 0.25,
      "velocity": 0.71,
      "hand": "left"
    },
    {
      "midi": 52,
      "time": 401.75,
      "duration": 0.25,
      "velocity": 0.71,
      "hand": "left"
    },
    {
      "midi": 61,
      "time": 401.75,
      "duration": 0.125,
      "velocity": 0.71,
      "hand": "right"
    },
    {
      "midi": 61,
      "time": 401.75,
      "duration": 0.25,
      "velocity": 0.71,
      "hand": "right"
    },
    {
      "midi": 62,
      "time": 401.75,
      "duration": 0.125,
      "velocity": 0.71,
      "hand": "right"
    },
    {
      "midi": 64,
      "time": 401.75,
      "duration": 0.125,
      "velocity": 0.71,
      "hand": "right"
    },
    {
      "midi": 65,
      "time": 401.75,
      "duration": 0.125,
      "velocity": 0.71,
      "hand": "right"
    },
    {
      "midi": 67,
      "time": 401.75,
      "duration": 0.125,
      "velocity": 0.71,
      "hand": "right"
    },
    {
      "midi": 69,
      "time": 401.75,
      "duration": 0.125,
      "velocity": 0.71,
      "hand": "right"
    },
    {
      "midi": 69,
      "time": 401.75,
      "duration": 0.25,
      "velocity": 0.71,
      "hand": "right"
    },
    {
      "midi": 68,
      "time": 402,
      "duration": 0.125,
      "velocity": 0.48,
      "hand": "right"
    },
    {
      "midi": 69,
      "time": 402,
      "duration": 0.125,
      "velocity": 0.48,
      "hand": "right"
    },
    {
      "midi": 70,
      "time": 402,
      "duration": 0.125,
      "velocity": 0.54,
      "hand": "right"
    },
    {
      "midi": 70,
      "time": 402.5,
      "duration": 0.5,
      "velocity": 0.48,
      "hand": "right"
    },
    {
      "midi": 74,
      "time": 403,
      "duration": 0.5,
      "velocity": 0.48,
      "hand": "right"
    },
    {
      "midi": 57,
      "time": 403.5,
      "duration": 0.5,
      "velocity": 0.71,
      "hand": "left"
    },
    {
      "midi": 73,
      "time": 403.5,
      "duration": 0.5,
      "velocity": 0.48,
      "hand": "right"
    },
    {
      "midi": 58,
      "time": 404,
      "duration": 0.5,
      "velocity": 0.71,
      "hand": "left"
    },
    {
      "midi": 67,
      "time": 404,
      "duration": 0.5,
      "velocity": 0.48,
      "hand": "right"
    },
    {
      "midi": 62,
      "time": 404.5,
      "duration": 0.5,
      "velocity": 0.71,
      "hand": "right"
    },
    {
      "midi": 70,
      "time": 404.5,
      "duration": 0.5,
      "velocity": 0.48,
      "hand": "right"
    },
    {
      "midi": 61,
      "time": 405,
      "duration": 0.5,
      "velocity": 0.71,
      "hand": "right"
    },
    {
      "midi": 69,
      "time": 405,
      "duration": 0.5,
      "velocity": 0.48,
      "hand": "right"
    },
    {
      "midi": 55,
      "time": 405.5,
      "duration": 0.5,
      "velocity": 0.71,
      "hand": "left"
    },
    {
      "midi": 70,
      "time": 405.5,
      "duration": 0.5,
      "velocity": 0.48,
      "hand": "right"
    },
    {
      "midi": 58,
      "time": 406,
      "duration": 0.5,
      "velocity": 0.71,
      "hand": "left"
    },
    {
      "midi": 74,
      "time": 406,
      "duration": 0.5,
      "velocity": 0.48,
      "hand": "right"
    },
    {
      "midi": 57,
      "time": 406.5,
      "duration": 0.5,
      "velocity": 0.71,
      "hand": "left"
    },
    {
      "midi": 73,
      "time": 406.5,
      "duration": 0.5,
      "velocity": 0.48,
      "hand": "right"
    },
    {
      "midi": 58,
      "time": 407,
      "duration": 0.5,
      "velocity": 0.71,
      "hand": "left"
    },
    {
      "midi": 67,
      "time": 407,
      "duration": 0.5,
      "velocity": 0.48,
      "hand": "right"
    },
    {
      "midi": 62,
      "time": 407.5,
      "duration": 0.5,
      "velocity": 0.71,
      "hand": "right"
    },
    {
      "midi": 70,
      "time": 407.5,
      "duration": 0.5,
      "velocity": 0.48,
      "hand": "right"
    },
    {
      "midi": 61,
      "time": 408,
      "duration": 0.5,
      "velocity": 0.71,
      "hand": "right"
    },
    {
      "midi": 60,
      "time": 408.5,
      "duration": 0.5,
      "velocity": 0.71,
      "hand": "right"
    },
    {
      "midi": 69,
      "time": 408.5,
      "duration": 0.25,
      "velocity": 0.71,
      "hand": "right"
    },
    {
      "midi": 70,
      "time": 408.75,
      "duration": 0.25,
      "velocity": 0.71,
      "hand": "right"
    },
    {
      "midi": 58,
      "time": 409,
      "duration": 1,
      "velocity": 0.71,
      "hand": "left"
    },
    {
      "midi": 67,
      "time": 409,
      "duration": 0.5,
      "velocity": 0.71,
      "hand": "right"
    },
    {
      "midi": 69,
      "time": 409,
      "duration": 0.25,
      "velocity": 0.71,
      "hand": "right"
    },
    {
      "midi": 70,
      "time": 409.25,
      "duration": 0.25,
      "velocity": 0.71,
      "hand": "right"
    },
    {
      "midi": 60,
      "time": 409.5,
      "duration": 0.5,
      "velocity": 0.71,
      "hand": "right"
    },
    {
      "midi": 72,
      "time": 409.5,
      "duration": 0.5,
      "velocity": 0.71,
      "hand": "right"
    },
    {
      "midi": 57,
      "time": 410,
      "duration": 0.5,
      "velocity": 0.71,
      "hand": "left"
    },
    {
      "midi": 62,
      "time": 410,
      "duration": 0.5,
      "velocity": 0.71,
      "hand": "right"
    },
    {
      "midi": 72,
      "time": 410,
      "duration": 0.5,
      "velocity": 0.71,
      "hand": "right"
    },
    {
      "midi": 50,
      "time": 410.5,
      "duration": 0.5,
      "velocity": 0.71,
      "hand": "left"
    },
    {
      "midi": 65,
      "time": 410.5,
      "duration": 0.5,
      "velocity": 0.71,
      "hand": "right"
    },
    {
      "midi": 72,
      "time": 410.5,
      "duration": 0.5,
      "velocity": 0.71,
      "hand": "right"
    },
    {
      "midi": 55,
      "time": 411,
      "duration": 0.5,
      "velocity": 0.71,
      "hand": "left"
    },
    {
      "midi": 58,
      "time": 411,
      "duration": 0.5,
      "velocity": 0.71,
      "hand": "left"
    },
    {
      "midi": 65,
      "time": 411,
      "duration": 1,
      "velocity": 0.71,
      "hand": "right"
    },
    {
      "midi": 72,
      "time": 411,
      "duration": 0.5,
      "velocity": 0.71,
      "hand": "right"
    },
    {
      "midi": 43,
      "time": 411.5,
      "duration": 0.5,
      "velocity": 0.71,
      "hand": "left"
    },
    {
      "midi": 62,
      "time": 411.5,
      "duration": 0.5,
      "velocity": 0.71,
      "hand": "right"
    },
    {
      "midi": 70,
      "time": 411.5,
      "duration": 0.25,
      "velocity": 0.71,
      "hand": "right"
    },
    {
      "midi": 69,
      "time": 411.75,
      "duration": 0.25,
      "velocity": 0.71,
      "hand": "right"
    },
    {
      "midi": 48,
      "time": 412,
      "duration": 1,
      "velocity": 0.71,
      "hand": "left"
    },
    {
      "midi": 58,
      "time": 412,
      "duration": 0.5,
      "velocity": 0.71,
      "hand": "left"
    },
    {
      "midi": 64,
      "time": 412,
      "duration": 0.5,
      "velocity": 0.71,
      "hand": "right"
    },
    {
      "midi": 67,
      "time": 412,
      "duration": 0.25,
      "velocity": 0.71,
      "hand": "right"
    },
    {
      "midi": 69,
      "time": 412.25,
      "duration": 0.25,
      "velocity": 0.71,
      "hand": "right"
    },
    {
      "midi": 41,
      "time": 412.5,
      "duration": 0.5,
      "velocity": 0.71,
      "hand": "left"
    },
    {
      "midi": 57,
      "time": 412.5,
      "duration": 0.5,
      "velocity": 0.71,
      "hand": "left"
    },
    {
      "midi": 65,
      "time": 412.5,
      "duration": 0.5,
      "velocity": 0.71,
      "hand": "right"
    },
    {
      "midi": 49,
      "time": 413,
      "duration": 0.5,
      "velocity": 0.71,
      "hand": "left"
    },
    {
      "midi": 53,
      "time": 413.5,
      "duration": 0.5,
      "velocity": 0.71,
      "hand": "left"
    },
    {
      "midi": 52,
      "time": 414,
      "duration": 0.5,
      "velocity": 0.71,
      "hand": "left"
    },
    {
      "midi": 60,
      "time": 414,
      "duration": 0.5,
      "velocity": 0.71,
      "hand": "right"
    },
    {
      "midi": 46,
      "time": 414.5,
      "duration": 0.5,
      "velocity": 0.71,
      "hand": "left"
    },
    {
      "midi": 61,
      "time": 414.5,
      "duration": 0.5,
      "velocity": 0.71,
      "hand": "right"
    },
    {
      "midi": 49,
      "time": 415,
      "duration": 0.5,
      "velocity": 0.71,
      "hand": "left"
    },
    {
      "midi": 65,
      "time": 415,
      "duration": 0.5,
      "velocity": 0.71,
      "hand": "right"
    },
    {
      "midi": 48,
      "time": 415.5,
      "duration": 0.5,
      "velocity": 0.71,
      "hand": "left"
    },
    {
      "midi": 64,
      "time": 415.5,
      "duration": 0.5,
      "velocity": 0.71,
      "hand": "right"
    },
    {
      "midi": 72,
      "time": 415.5,
      "duration": 0.5,
      "velocity": 0.71,
      "hand": "right"
    },
    {
      "midi": 58,
      "time": 416,
      "duration": 0.5,
      "velocity": 0.71,
      "hand": "left"
    },
    {
      "midi": 73,
      "time": 416,
      "duration": 0.5,
      "velocity": 0.71,
      "hand": "right"
    },
    {
      "midi": 61,
      "time": 416.5,
      "duration": 0.5,
      "velocity": 0.71,
      "hand": "right"
    },
    {
      "midi": 77,
      "time": 416.5,
      "duration": 0.5,
      "velocity": 0.71,
      "hand": "right"
    },
    {
      "midi": 60,
      "time": 417,
      "duration": 0.5,
      "velocity": 0.71,
      "hand": "right"
    },
    {
      "midi": 76,
      "time": 417,
      "duration": 0.5,
      "velocity": 0.71,
      "hand": "right"
    },
    {
      "midi": 61,
      "time": 417.5,
      "duration": 0.5,
      "velocity": 0.71,
      "hand": "right"
    },
    {
      "midi": 70,
      "time": 417.5,
      "duration": 0.5,
      "velocity": 0.71,
      "hand": "right"
    },
    {
      "midi": 65,
      "time": 418,
      "duration": 0.5,
      "velocity": 0.71,
      "hand": "right"
    },
    {
      "midi": 73,
      "time": 418,
      "duration": 0.5,
      "velocity": 0.71,
      "hand": "right"
    },
    {
      "midi": 64,
      "time": 418.5,
      "duration": 0.5,
      "velocity": 0.71,
      "hand": "right"
    },
    {
      "midi": 63,
      "time": 419,
      "duration": 0.5,
      "velocity": 0.71,
      "hand": "right"
    },
    {
      "midi": 72,
      "time": 419,
      "duration": 0.25,
      "velocity": 0.71,
      "hand": "right"
    },
    {
      "midi": 73,
      "time": 419.25,
      "duration": 0.25,
      "velocity": 0.71,
      "hand": "right"
    },
    {
      "midi": 61,
      "time": 419.5,
      "duration": 1,
      "velocity": 0.71,
      "hand": "right"
    },
    {
      "midi": 70,
      "time": 419.5,
      "duration": 0.5,
      "velocity": 0.71,
      "hand": "right"
    },
    {
      "midi": 72,
      "time": 419.5,
      "duration": 0.25,
      "velocity": 0.71,
      "hand": "right"
    },
    {
      "midi": 73,
      "time": 419.75,
      "duration": 0.25,
      "velocity": 0.71,
      "hand": "right"
    },
    {
      "midi": 63,
      "time": 420,
      "duration": 0.5,
      "velocity": 0.71,
      "hand": "right"
    },
    {
      "midi": 75,
      "time": 420,
      "duration": 0.5,
      "velocity": 0.71,
      "hand": "right"
    },
    {
      "midi": 60,
      "time": 420.5,
      "duration": 0.5,
      "velocity": 0.71,
      "hand": "right"
    },
    {
      "midi": 65,
      "time": 420.5,
      "duration": 0.5,
      "velocity": 0.71,
      "hand": "right"
    },
    {
      "midi": 75,
      "time": 420.5,
      "duration": 0.5,
      "velocity": 0.71,
      "hand": "right"
    },
    {
      "midi": 53,
      "time": 421,
      "duration": 0.5,
      "velocity": 0.71,
      "hand": "left"
    },
    {
      "midi": 68,
      "time": 421,
      "duration": 0.5,
      "velocity": 0.71,
      "hand": "right"
    },
    {
      "midi": 75,
      "time": 421,
      "duration": 0.5,
      "velocity": 0.71,
      "hand": "right"
    },
    {
      "midi": 58,
      "time": 421.5,
      "duration": 0.5,
      "velocity": 0.71,
      "hand": "left"
    },
    {
      "midi": 61,
      "time": 421.5,
      "duration": 0.5,
      "velocity": 0.71,
      "hand": "right"
    },
    {
      "midi": 68,
      "time": 421.5,
      "duration": 1,
      "velocity": 0.71,
      "hand": "right"
    },
    {
      "midi": 75,
      "time": 421.5,
      "duration": 0.5,
      "velocity": 0.71,
      "hand": "right"
    },
    {
      "midi": 46,
      "time": 422,
      "duration": 0.5,
      "velocity": 0.71,
      "hand": "left"
    },
    {
      "midi": 65,
      "time": 422,
      "duration": 0.5,
      "velocity": 0.71,
      "hand": "right"
    },
    {
      "midi": 73,
      "time": 422,
      "duration": 0.25,
      "velocity": 0.71,
      "hand": "right"
    },
    {
      "midi": 72,
      "time": 422.25,
      "duration": 0.25,
      "velocity": 0.71,
      "hand": "right"
    },
    {
      "midi": 51,
      "time": 422.5,
      "duration": 1,
      "velocity": 0.71,
      "hand": "left"
    },
    {
      "midi": 61,
      "time": 422.5,
      "duration": 0.5,
      "velocity": 0.71,
      "hand": "right"
    },
    {
      "midi": 67,
      "time": 422.5,
      "duration": 0.5,
      "velocity": 0.71,
      "hand": "right"
    },
    {
      "midi": 70,
      "time": 422.5,
      "duration": 0.25,
      "velocity": 0.71,
      "hand": "right"
    },
    {
      "midi": 72,
      "time": 422.75,
      "duration": 0.25,
      "velocity": 0.71,
      "hand": "right"
    },
    {
      "midi": 44,
      "time": 423,
      "duration": 0.5,
      "velocity": 0.71,
      "hand": "left"
    },
    {
      "midi": 60,
      "time": 423,
      "duration": 0.5,
      "velocity": 0.71,
      "hand": "right"
    },
    {
      "midi": 68,
      "time": 423,
      "duration": 0.5,
      "velocity": 0.71,
      "hand": "right"
    },
    {
      "midi": 52,
      "time": 423.5,
      "duration": 0.5,
      "velocity": 0.71,
      "hand": "left"
    },
    {
      "midi": 56,
      "time": 424,
      "duration": 0.5,
      "velocity": 0.71,
      "hand": "left"
    },
    {
      "midi": 55,
      "time": 424.5,
      "duration": 0.5,
      "velocity": 0.71,
      "hand": "left"
    },
    {
      "midi": 63,
      "time": 424.5,
      "duration": 0.5,
      "velocity": 0.71,
      "hand": "right"
    },
    {
      "midi": 49,
      "time": 425,
      "duration": 0.5,
      "velocity": 0.71,
      "hand": "left"
    },
    {
      "midi": 64,
      "time": 425,
      "duration": 0.5,
      "velocity": 0.71,
      "hand": "right"
    },
    {
      "midi": 52,
      "time": 425.5,
      "duration": 0.5,
      "velocity": 0.71,
      "hand": "left"
    },
    {
      "midi": 68,
      "time": 425.5,
      "duration": 0.5,
      "velocity": 0.71,
      "hand": "right"
    },
    {
      "midi": 51,
      "time": 426,
      "duration": 0.5,
      "velocity": 0.71,
      "hand": "left"
    },
    {
      "midi": 67,
      "time": 426,
      "duration": 0.5,
      "velocity": 0.71,
      "hand": "right"
    },
    {
      "midi": 75,
      "time": 426,
      "duration": 0.5,
      "velocity": 0.71,
      "hand": "right"
    },
    {
      "midi": 68,
      "time": 426.5,
      "duration": 0.5,
      "velocity": 0.71,
      "hand": "right"
    },
    {
      "midi": 76,
      "time": 426.5,
      "duration": 0.5,
      "velocity": 0.71,
      "hand": "right"
    },
    {
      "midi": 62,
      "time": 427,
      "duration": 0.5,
      "velocity": 0.71,
      "hand": "right"
    },
    {
      "midi": 71,
      "time": 427,
      "duration": 0.5,
      "velocity": 0.71,
      "hand": "right"
    },
    {
      "midi": 80,
      "time": 427,
      "duration": 0.5,
      "velocity": 0.71,
      "hand": "right"
    },
    {
      "midi": 63,
      "time": 427.5,
      "duration": 0.5,
      "velocity": 0.71,
      "hand": "right"
    },
    {
      "midi": 70,
      "time": 427.5,
      "duration": 0.5,
      "velocity": 0.71,
      "hand": "right"
    },
    {
      "midi": 79,
      "time": 427.5,
      "duration": 0.5,
      "velocity": 0.71,
      "hand": "right"
    },
    {
      "midi": 64,
      "time": 428,
      "duration": 0.5,
      "velocity": 0.71,
      "hand": "right"
    },
    {
      "midi": 69,
      "time": 428,
      "duration": 0.5,
      "velocity": 0.71,
      "hand": "right"
    },
    {
      "midi": 73,
      "time": 428,
      "duration": 0.5,
      "velocity": 0.71,
      "hand": "right"
    },
    {
      "midi": 68,
      "time": 428.5,
      "duration": 0.5,
      "velocity": 0.71,
      "hand": "right"
    },
    {
      "midi": 76,
      "time": 428.5,
      "duration": 0.5,
      "velocity": 0.71,
      "hand": "right"
    },
    {
      "midi": 67,
      "time": 429,
      "duration": 0.5,
      "velocity": 0.71,
      "hand": "right"
    },
    {
      "midi": 66,
      "time": 429.5,
      "duration": 0.5,
      "velocity": 0.71,
      "hand": "right"
    },
    {
      "midi": 75,
      "time": 429.5,
      "duration": 0.25,
      "velocity": 0.71,
      "hand": "right"
    },
    {
      "midi": 76,
      "time": 429.75,
      "duration": 0.25,
      "velocity": 0.71,
      "hand": "right"
    },
    {
      "midi": 64,
      "time": 430,
      "duration": 0.5,
      "velocity": 0.71,
      "hand": "right"
    },
    {
      "midi": 73,
      "time": 430,
      "duration": 0.5,
      "velocity": 0.71,
      "hand": "right"
    },
    {
      "midi": 75,
      "time": 430,
      "duration": 0.25,
      "velocity": 0.71,
      "hand": "right"
    },
    {
      "midi": 76,
      "time": 430.25,
      "duration": 0.25,
      "velocity": 0.71,
      "hand": "right"
    },
    {
      "midi": 63,
      "time": 430.5,
      "duration": 0.5,
      "velocity": 0.71,
      "hand": "right"
    },
    {
      "midi": 66,
      "time": 430.5,
      "duration": 0.5,
      "velocity": 0.71,
      "hand": "right"
    },
    {
      "midi": 78,
      "time": 430.5,
      "duration": 0.5,
      "velocity": 0.71,
      "hand": "right"
    },
    {
      "midi": 62,
      "time": 431,
      "duration": 0.5,
      "velocity": 0.71,
      "hand": "right"
    },
    {
      "midi": 66,
      "time": 431,
      "duration": 0.5,
      "velocity": 0.71,
      "hand": "right"
    },
    {
      "midi": 71,
      "time": 431,
      "duration": 0.5,
      "velocity": 0.71,
      "hand": "right"
    },
    {
      "midi": 78,
      "time": 431,
      "duration": 0.5,
      "velocity": 0.71,
      "hand": "right"
    },
    {
      "midi": 61,
      "time": 431.5,
      "duration": 0.5,
      "velocity": 0.71,
      "hand": "right"
    },
    {
      "midi": 64,
      "time": 431.5,
      "duration": 0.5,
      "velocity": 0.71,
      "hand": "right"
    },
    {
      "midi": 70,
      "time": 431.5,
      "duration": 0.5,
      "velocity": 0.71,
      "hand": "right"
    },
    {
      "midi": 78,
      "time": 431.5,
      "duration": 0.5,
      "velocity": 0.71,
      "hand": "right"
    },
    {
      "midi": 60,
      "time": 432,
      "duration": 0.5,
      "velocity": 0.71,
      "hand": "right"
    },
    {
      "midi": 63,
      "time": 432,
      "duration": 0.5,
      "velocity": 0.71,
      "hand": "right"
    },
    {
      "midi": 69,
      "time": 432,
      "duration": 1.5,
      "velocity": 0.71,
      "hand": "right"
    },
    {
      "midi": 78,
      "time": 432,
      "duration": 0.5,
      "velocity": 0.71,
      "hand": "right"
    },
    {
      "midi": 53,
      "time": 432.5,
      "duration": 0.5,
      "velocity": 0.71,
      "hand": "left"
    },
    {
      "midi": 77,
      "time": 432.5,
      "duration": 0.25,
      "velocity": 0.71,
      "hand": "right"
    },
    {
      "midi": 72,
      "time": 432.75,
      "duration": 0.25,
      "velocity": 0.71,
      "hand": "right"
    },
    {
      "midi": 65,
      "time": 433,
      "duration": 0.5,
      "velocity": 0.71,
      "hand": "right"
    },
    {
      "midi": 75,
      "time": 433,
      "duration": 0.25,
      "velocity": 0.71,
      "hand": "right"
    },
    {
      "midi": 73,
      "time": 433.25,
      "duration": 0.25,
      "velocity": 0.71,
      "hand": "right"
    },
    {
      "midi": 46,
      "time": 433.5,
      "duration": 0.5,
      "velocity": 0.71,
      "hand": "left"
    },
    {
      "midi": 70,
      "time": 433.5,
      "duration": 0.5,
      "velocity": 0.71,
      "hand": "right"
    },
    {
      "midi": 53,
      "time": 434,
      "duration": 0.5,
      "velocity": 0.71,
      "hand": "left"
    },
    {
      "midi": 61,
      "time": 434,
      "duration": 0.5,
      "velocity": 0.71,
      "hand": "right"
    },
    {
      "midi": 44,
      "time": 434.5,
      "duration": 0.5,
      "velocity": 0.71,
      "hand": "left"
    },
    {
      "midi": 42,
      "time": 435,
      "duration": 0.5,
      "velocity": 0.71,
      "hand": "left"
    },
    {
      "midi": 49,
      "time": 435.5,
      "duration": 0.5,
      "velocity": 0.71,
      "hand": "left"
    },
    {
      "midi": 54,
      "time": 435.5,
      "duration": 0.5,
      "velocity": 0.71,
      "hand": "left"
    },
    {
      "midi": 58,
      "time": 435.5,
      "duration": 0.5,
      "velocity": 0.71,
      "hand": "left"
    },
    {
      "midi": 73,
      "time": 435.5,
      "duration": 0.25,
      "velocity": 0.71,
      "hand": "right"
    },
    {
      "midi": 75,
      "time": 435.75,
      "duration": 0.25,
      "velocity": 0.71,
      "hand": "right"
    },
    {
      "midi": 54,
      "time": 436,
      "duration": 0.5,
      "velocity": 0.71,
      "hand": "left"
    },
    {
      "midi": 58,
      "time": 436,
      "duration": 0.5,
      "velocity": 0.71,
      "hand": "left"
    },
    {
      "midi": 61,
      "time": 436,
      "duration": 0.5,
      "velocity": 0.71,
      "hand": "right"
    },
    {
      "midi": 73,
      "time": 436,
      "duration": 0.25,
      "velocity": 0.71,
      "hand": "right"
    },
    {
      "midi": 75,
      "time": 436.25,
      "duration": 0.25,
      "velocity": 0.71,
      "hand": "right"
    },
    {
      "midi": 37,
      "time": 436.5,
      "duration": 0.5,
      "velocity": 0.71,
      "hand": "left"
    },
    {
      "midi": 77,
      "time": 436.5,
      "duration": 0.5,
      "velocity": 0.71,
      "hand": "right"
    },
    {
      "midi": 53,
      "time": 437,
      "duration": 0.5,
      "velocity": 0.71,
      "hand": "left"
    },
    {
      "midi": 56,
      "time": 437,
      "duration": 0.5,
      "velocity": 0.71,
      "hand": "left"
    },
    {
      "midi": 61,
      "time": 437,
      "duration": 0.5,
      "velocity": 0.71,
      "hand": "right"
    },
    {
      "midi": 77,
      "time": 437,
      "duration": 0.5,
      "velocity": 0.71,
      "hand": "right"
    },
    {
      "midi": 56,
      "time": 437.5,
      "duration": 0.5,
      "velocity": 0.71,
      "hand": "left"
    },
    {
      "midi": 61,
      "time": 437.5,
      "duration": 0.5,
      "velocity": 0.71,
      "hand": "right"
    },
    {
      "midi": 65,
      "time": 437.5,
      "duration": 0.5,
      "velocity": 0.71,
      "hand": "right"
    },
    {
      "midi": 77,
      "time": 437.5,
      "duration": 0.5,
      "velocity": 0.71,
      "hand": "right"
    },
    {
      "midi": 39,
      "time": 438,
      "duration": 0.5,
      "velocity": 0.71,
      "hand": "left"
    },
    {
      "midi": 77,
      "time": 438,
      "duration": 0.5,
      "velocity": 0.71,
      "hand": "right"
    },
    {
      "midi": 51,
      "time": 438.5,
      "duration": 0.5,
      "velocity": 0.71,
      "hand": "left"
    },
    {
      "midi": 58,
      "time": 438.5,
      "duration": 0.5,
      "velocity": 0.71,
      "hand": "left"
    },
    {
      "midi": 60,
      "time": 438.5,
      "duration": 0.5,
      "velocity": 0.71,
      "hand": "right"
    },
    {
      "midi": 75,
      "time": 438.5,
      "duration": 0.25,
      "velocity": 0.71,
      "hand": "right"
    },
    {
      "midi": 70,
      "time": 438.75,
      "duration": 0.25,
      "velocity": 0.71,
      "hand": "right"
    },
    {
      "midi": 58,
      "time": 439,
      "duration": 0.5,
      "velocity": 0.71,
      "hand": "left"
    },
    {
      "midi": 60,
      "time": 439,
      "duration": 0.5,
      "velocity": 0.71,
      "hand": "right"
    },
    {
      "midi": 66,
      "time": 439,
      "duration": 0.5,
      "velocity": 0.71,
      "hand": "right"
    },
    {
      "midi": 73,
      "time": 439,
      "duration": 0.25,
      "velocity": 0.71,
      "hand": "right"
    },
    {
      "midi": 72,
      "time": 439.25,
      "duration": 0.25,
      "velocity": 0.71,
      "hand": "right"
    },
    {
      "midi": 41,
      "time": 439.5,
      "duration": 0.5,
      "velocity": 0.71,
      "hand": "left"
    },
    {
      "midi": 69,
      "time": 439.5,
      "duration": 0.5,
      "velocity": 0.71,
      "hand": "right"
    },
    {
      "midi": 60,
      "time": 440,
      "duration": 0.5,
      "velocity": 0.71,
      "hand": "right"
    },
    {
      "midi": 65,
      "time": 440,
      "duration": 0.5,
      "velocity": 0.71,
      "hand": "right"
    },
    {
      "midi": 69,
      "time": 440,
      "duration": 0.5,
      "velocity": 0.71,
      "hand": "right"
    },
    {
      "midi": 72,
      "time": 440,
      "duration": 0.5,
      "velocity": 0.71,
      "hand": "right"
    },
    {
      "midi": 57,
      "time": 440.5,
      "duration": 0.5,
      "velocity": 0.71,
      "hand": "left"
    },
    {
      "midi": 60,
      "time": 440.5,
      "duration": 0.5,
      "velocity": 0.71,
      "hand": "right"
    },
    {
      "midi": 65,
      "time": 440.5,
      "duration": 0.5,
      "velocity": 0.71,
      "hand": "right"
    },
    {
      "midi": 77,
      "time": 440.5,
      "duration": 0.5,
      "velocity": 0.71,
      "hand": "right"
    },
    {
      "midi": 53,
      "time": 441,
      "duration": 0.5,
      "velocity": 0.71,
      "hand": "left"
    },
    {
      "midi": 76,
      "time": 441,
      "duration": 0.5,
      "velocity": 0.71,
      "hand": "right"
    },
    {
      "midi": 61,
      "time": 441.5,
      "duration": 0.5,
      "velocity": 0.71,
      "hand": "right"
    },
    {
      "midi": 64,
      "time": 441.5,
      "duration": 0.5,
      "velocity": 0.71,
      "hand": "right"
    },
    {
      "midi": 67,
      "time": 441.5,
      "duration": 0.5,
      "velocity": 0.71,
      "hand": "right"
    },
    {
      "midi": 70,
      "time": 441.5,
      "duration": 0.5,
      "velocity": 0.71,
      "hand": "right"
    },
    {
      "midi": 58,
      "time": 442,
      "duration": 0.5,
      "velocity": 0.71,
      "hand": "left"
    },
    {
      "midi": 61,
      "time": 442,
      "duration": 0.5,
      "velocity": 0.71,
      "hand": "right"
    },
    {
      "midi": 64,
      "time": 442,
      "duration": 0.5,
      "velocity": 0.71,
      "hand": "right"
    },
    {
      "midi": 73,
      "time": 442,
      "duration": 0.5,
      "velocity": 0.71,
      "hand": "right"
    },
    {
      "midi": 41,
      "time": 442.5,
      "duration": 0.5,
      "velocity": 0.71,
      "hand": "left"
    },
    {
      "midi": 60,
      "time": 443,
      "duration": 0.5,
      "velocity": 0.71,
      "hand": "right"
    },
    {
      "midi": 65,
      "time": 443,
      "duration": 0.5,
      "velocity": 0.71,
      "hand": "right"
    },
    {
      "midi": 69,
      "time": 443,
      "duration": 0.5,
      "velocity": 0.71,
      "hand": "right"
    },
    {
      "midi": 72,
      "time": 443,
      "duration": 0.5,
      "velocity": 0.71,
      "hand": "right"
    },
    {
      "midi": 57,
      "time": 443.5,
      "duration": 0.5,
      "velocity": 0.71,
      "hand": "left"
    },
    {
      "midi": 60,
      "time": 443.5,
      "duration": 0.5,
      "velocity": 0.71,
      "hand": "right"
    },
    {
      "midi": 65,
      "time": 443.5,
      "duration": 0.5,
      "velocity": 0.71,
      "hand": "right"
    },
    {
      "midi": 77,
      "time": 443.5,
      "duration": 0.75,
      "velocity": 0.71,
      "hand": "right"
    },
    {
      "midi": 53,
      "time": 444,
      "duration": 0.5,
      "velocity": 0.71,
      "hand": "left"
    },
    {
      "midi": 76,
      "time": 444.25,
      "duration": 0.25,
      "velocity": 0.71,
      "hand": "right"
    },
    {
      "midi": 61,
      "time": 444.5,
      "duration": 0.5,
      "velocity": 0.71,
      "hand": "right"
    },
    {
      "midi": 64,
      "time": 444.5,
      "duration": 0.5,
      "velocity": 0.71,
      "hand": "right"
    },
    {
      "midi": 67,
      "time": 444.5,
      "duration": 0.5,
      "velocity": 0.71,
      "hand": "right"
    },
    {
      "midi": 70,
      "time": 444.5,
      "duration": 0.25,
      "velocity": 0.71,
      "hand": "right"
    },
    {
      "midi": 72,
      "time": 444.75,
      "duration": 0.25,
      "velocity": 0.71,
      "hand": "right"
    },
    {
      "midi": 58,
      "time": 445,
      "duration": 0.5,
      "velocity": 0.71,
      "hand": "left"
    },
    {
      "midi": 61,
      "time": 445,
      "duration": 0.5,
      "velocity": 0.71,
      "hand": "right"
    },
    {
      "midi": 64,
      "time": 445,
      "duration": 0.5,
      "velocity": 0.71,
      "hand": "right"
    },
    {
      "midi": 75,
      "time": 445,
      "duration": 0.25,
      "velocity": 0.71,
      "hand": "right"
    },
    {
      "midi": 73,
      "time": 445.25,
      "duration": 0.25,
      "velocity": 0.71,
      "hand": "right"
    },
    {
      "midi": 41,
      "time": 445.5,
      "duration": 0.5,
      "velocity": 0.71,
      "hand": "left"
    },
    {
      "midi": 60,
      "time": 446,
      "duration": 0.5,
      "velocity": 0.71,
      "hand": "right"
    },
    {
      "midi": 63,
      "time": 446,
      "duration": 0.5,
      "velocity": 0.71,
      "hand": "right"
    },
    {
      "midi": 66,
      "time": 446,
      "duration": 0.5,
      "velocity": 0.71,
      "hand": "right"
    },
    {
      "midi": 72,
      "time": 446,
      "duration": 0.25,
      "velocity": 0.71,
      "hand": "right"
    },
    {
      "midi": 73,
      "time": 446.25,
      "duration": 0.25,
      "velocity": 0.71,
      "hand": "right"
    },
    {
      "midi": 54,
      "time": 446.5,
      "duration": 0.5,
      "velocity": 0.71,
      "hand": "left"
    },
    {
      "midi": 58,
      "time": 446.5,
      "duration": 0.5,
      "velocity": 0.71,
      "hand": "left"
    },
    {
      "midi": 63,
      "time": 446.5,
      "duration": 0.5,
      "velocity": 0.71,
      "hand": "right"
    },
    {
      "midi": 72,
      "time": 446.5,
      "duration": 0.25,
      "velocity": 0.71,
      "hand": "right"
    },
    {
      "midi": 73,
      "time": 446.75,
      "duration": 0.25,
      "velocity": 0.71,
      "hand": "right"
    },
    {
      "midi": 53,
      "time": 447,
      "duration": 0.5,
      "velocity": 0.71,
      "hand": "left"
    },
    {
      "midi": 75,
      "time": 447,
      "duration": 0.5,
      "velocity": 0.71,
      "hand": "right"
    },
    {
      "midi": 63,
      "time": 447.5,
      "duration": 0.5,
      "velocity": 0.71,
      "hand": "right"
    },
    {
      "midi": 66,
      "time": 447.5,
      "duration": 0.5,
      "velocity": 0.71,
      "hand": "right"
    },
    {
      "midi": 70,
      "time": 447.5,
      "duration": 0.5,
      "velocity": 0.71,
      "hand": "right"
    },
    {
      "midi": 75,
      "time": 447.5,
      "duration": 0.5,
      "velocity": 0.71,
      "hand": "right"
    },
    {
      "midi": 60,
      "time": 448,
      "duration": 0.5,
      "velocity": 0.71,
      "hand": "right"
    },
    {
      "midi": 63,
      "time": 448,
      "duration": 0.5,
      "velocity": 0.71,
      "hand": "right"
    },
    {
      "midi": 66,
      "time": 448,
      "duration": 0.5,
      "velocity": 0.71,
      "hand": "right"
    },
    {
      "midi": 75,
      "time": 448,
      "duration": 0.5,
      "velocity": 0.71,
      "hand": "right"
    },
    {
      "midi": 41,
      "time": 448.5,
      "duration": 0.5,
      "velocity": 0.71,
      "hand": "left"
    },
    {
      "midi": 75,
      "time": 448.5,
      "duration": 0.5,
      "velocity": 0.71,
      "hand": "right"
    },
    {
      "midi": 63,
      "time": 449,
      "duration": 0.5,
      "velocity": 0.71,
      "hand": "right"
    },
    {
      "midi": 69,
      "time": 449,
      "duration": 0.5,
      "velocity": 0.71,
      "hand": "right"
    },
    {
      "midi": 77,
      "time": 449,
      "duration": 0.25,
      "velocity": 0.71,
      "hand": "right"
    },
    {
      "midi": 72,
      "time": 449.25,
      "duration": 0.25,
      "velocity": 0.71,
      "hand": "right"
    },
    {
      "midi": 57,
      "time": 449.5,
      "duration": 0.5,
      "velocity": 0.71,
      "hand": "left"
    },
    {
      "midi": 63,
      "time": 449.5,
      "duration": 0.5,
      "velocity": 0.71,
      "hand": "right"
    },
    {
      "midi": 65,
      "time": 449.5,
      "duration": 0.5,
      "velocity": 0.71,
      "hand": "right"
    },
    {
      "midi": 75,
      "time": 449.5,
      "duration": 0.25,
      "velocity": 0.71,
      "hand": "right"
    },
    {
      "midi": 73,
      "time": 449.75,
      "duration": 0.25,
      "velocity": 0.71,
      "hand": "right"
    },
    {
      "midi": 46,
      "time": 450,
      "duration": 0.5,
      "velocity": 0.71,
      "hand": "left"
    },
    {
      "midi": 70,
      "time": 450,
      "duration": 1.5,
      "velocity": 0.71,
      "hand": "right"
    },
    {
      "midi": 58,
      "time": 450.5,
      "duration": 0.5,
      "velocity": 0.71,
      "hand": "left"
    },
    {
      "midi": 61,
      "time": 450.5,
      "duration": 0.5,
      "velocity": 0.71,
      "hand": "right"
    },
    {
      "midi": 65,
      "time": 450.5,
      "duration": 0.5,
      "velocity": 0.71,
      "hand": "right"
    },
    {
      "midi": 53,
      "time": 451,
      "duration": 0.5,
      "velocity": 0.71,
      "hand": "left"
    },
    {
      "midi": 58,
      "time": 451,
      "duration": 0.5,
      "velocity": 0.71,
      "hand": "left"
    },
    {
      "midi": 61,
      "time": 451,
      "duration": 0.5,
      "velocity": 0.71,
      "hand": "right"
    },
    {
      "midi": 48,
      "time": 451.5,
      "duration": 0.5,
      "velocity": 0.71,
      "hand": "left"
    },
    {
      "midi": 67,
      "time": 451.5,
      "duration": 1,
      "velocity": 0.71,
      "hand": "right"
    },
    {
      "midi": 58,
      "time": 452,
      "duration": 0.5,
      "velocity": 0.71,
      "hand": "left"
    },
    {
      "midi": 60,
      "time": 452,
      "duration": 0.5,
      "velocity": 0.71,
      "hand": "right"
    },
    {
      "midi": 64,
      "time": 452,
      "duration": 0.5,
      "velocity": 0.71,
      "hand": "right"
    },
    {
      "midi": 55,
      "time": 452.5,
      "duration": 0.5,
      "velocity": 0.71,
      "hand": "left"
    },
    {
      "midi": 58,
      "time": 452.5,
      "duration": 0.5,
      "velocity": 0.71,
      "hand": "left"
    },
    {
      "midi": 60,
      "time": 452.5,
      "duration": 0.5,
      "velocity": 0.71,
      "hand": "right"
    },
    {
      "midi": 41,
      "time": 453,
      "duration": 0.25,
      "velocity": 0.71,
      "hand": "left"
    },
    {
      "midi": 48,
      "time": 453.25,
      "duration": 0.25,
      "velocity": 0.71,
      "hand": "left"
    },
    {
      "midi": 56,
      "time": 453.5,
      "duration": 0.25,
      "velocity": 0.71,
      "hand": "left"
    },
    {
      "midi": 72,
      "time": 453.5,
      "duration": 0.5,
      "velocity": 0.71,
      "hand": "right"
    },
    {
      "midi": 53,
      "time": 453.75,
      "duration": 0.25,
      "velocity": 0.71,
      "hand": "left"
    },
    {
      "midi": 60,
      "time": 454,
      "duration": 0.25,
      "velocity": 0.71,
      "hand": "right"
    },
    {
      "midi": 77,
      "time": 454,
      "duration": 0.75,
      "velocity": 0.71,
      "hand": "right"
    },
    {
      "midi": 68,
      "time": 454.25,
      "duration": 0.25,
      "velocity": 0.71,
      "hand": "right"
    },
    {
      "midi": 41,
      "time": 454.5,
      "duration": 0.25,
      "velocity": 0.71,
      "hand": "left"
    },
    {
      "midi": 49,
      "time": 454.75,
      "duration": 0.25,
      "velocity": 0.71,
      "hand": "left"
    },
    {
      "midi": 76,
      "time": 454.75,
      "duration": 0.25,
      "velocity": 0.71,
      "hand": "right"
    },
    {
      "midi": 55,
      "time": 455,
      "duration": 0.25,
      "velocity": 0.71,
      "hand": "left"
    },
    {
      "midi": 69,
      "time": 455,
      "duration": 0.25,
      "velocity": 0.71,
      "hand": "right"
    },
    {
      "midi": 70,
      "time": 455,
      "duration": 0.25,
      "velocity": 0.71,
      "hand": "right"
    },
    {
      "midi": 52,
      "time": 455.25,
      "duration": 0.25,
      "velocity": 0.71,
      "hand": "left"
    },
    {
      "midi": 71,
      "time": 455.25,
      "duration": 0.25,
      "velocity": 0.71,
      "hand": "right"
    },
    {
      "midi": 58,
      "time": 455.5,
      "duration": 0.25,
      "velocity": 0.71,
      "hand": "left"
    },
    {
      "midi": 72,
      "time": 455.5,
      "duration": 0.25,
      "velocity": 0.71,
      "hand": "right"
    },
    {
      "midi": 67,
      "time": 455.75,
      "duration": 0.25,
      "velocity": 0.71,
      "hand": "right"
    },
    {
      "midi": 73,
      "time": 455.75,
      "duration": 0.25,
      "velocity": 0.71,
      "hand": "right"
    },
    {
      "midi": 75,
      "time": 455.75,
      "duration": 0.25,
      "velocity": 0.71,
      "hand": "right"
    },
    {
      "midi": 41,
      "time": 456,
      "duration": 0.25,
      "velocity": 0.71,
      "hand": "left"
    },
    {
      "midi": 48,
      "time": 456.25,
      "duration": 0.25,
      "velocity": 0.71,
      "hand": "left"
    },
    {
      "midi": 72,
      "time": 456.25,
      "duration": 0.25,
      "velocity": 0.71,
      "hand": "right"
    },
    {
      "midi": 56,
      "time": 456.5,
      "duration": 0.25,
      "velocity": 0.71,
      "hand": "left"
    },
    {
      "midi": 71,
      "time": 456.5,
      "duration": 0.25,
      "velocity": 0.71,
      "hand": "right"
    },
    {
      "midi": 73,
      "time": 456.5,
      "duration": 0.25,
      "velocity": 0.71,
      "hand": "right"
    },
    {
      "midi": 53,
      "time": 456.75,
      "duration": 0.25,
      "velocity": 0.71,
      "hand": "left"
    },
    {
      "midi": 72,
      "time": 456.75,
      "duration": 0.25,
      "velocity": 0.71,
      "hand": "right"
    },
    {
      "midi": 60,
      "time": 457,
      "duration": 0.25,
      "velocity": 0.71,
      "hand": "right"
    },
    {
      "midi": 80,
      "time": 457,
      "duration": 0.25,
      "velocity": 0.71,
      "hand": "right"
    },
    {
      "midi": 68,
      "time": 457.25,
      "duration": 0.25,
      "velocity": 0.71,
      "hand": "right"
    },
    {
      "midi": 77,
      "time": 457.25,
      "duration": 0.25,
      "velocity": 0.71,
      "hand": "right"
    },
    {
      "midi": 79,
      "time": 457.25,
      "duration": 0.25,
      "velocity": 0.71,
      "hand": "right"
    },
    {
      "midi": 41,
      "time": 457.5,
      "duration": 0.25,
      "velocity": 0.71,
      "hand": "left"
    },
    {
      "midi": 77,
      "time": 457.5,
      "duration": 0.25,
      "velocity": 0.71,
      "hand": "right"
    },
    {
      "midi": 49,
      "time": 457.75,
      "duration": 0.25,
      "velocity": 0.71,
      "hand": "left"
    },
    {
      "midi": 76,
      "time": 457.75,
      "duration": 0.25,
      "velocity": 0.71,
      "hand": "right"
    },
    {
      "midi": 55,
      "time": 458,
      "duration": 0.25,
      "velocity": 0.71,
      "hand": "left"
    },
    {
      "midi": 52,
      "time": 458.25,
      "duration": 0.25,
      "velocity": 0.71,
      "hand": "left"
    },
    {
      "midi": 69,
      "time": 458.25,
      "duration": 0.25,
      "velocity": 0.71,
      "hand": "right"
    },
    {
      "midi": 70,
      "time": 458.25,
      "duration": 0.25,
      "velocity": 0.71,
      "hand": "right"
    },
    {
      "midi": 58,
      "time": 458.5,
      "duration": 0.25,
      "velocity": 0.71,
      "hand": "left"
    },
    {
      "midi": 71,
      "time": 458.5,
      "duration": 0.25,
      "velocity": 0.71,
      "hand": "right"
    },
    {
      "midi": 72,
      "time": 458.5,
      "duration": 0.25,
      "velocity": 0.71,
      "hand": "right"
    },
    {
      "midi": 67,
      "time": 458.75,
      "duration": 0.25,
      "velocity": 0.71,
      "hand": "right"
    },
    {
      "midi": 73,
      "time": 458.75,
      "duration": 0.25,
      "velocity": 0.71,
      "hand": "right"
    },
    {
      "midi": 75,
      "time": 458.75,
      "duration": 0.25,
      "velocity": 0.71,
      "hand": "right"
    },
    {
      "midi": 41,
      "time": 459,
      "duration": 0.25,
      "velocity": 0.71,
      "hand": "left"
    },
    {
      "midi": 48,
      "time": 459.25,
      "duration": 0.25,
      "velocity": 0.71,
      "hand": "left"
    },
    {
      "midi": 56,
      "time": 459.5,
      "duration": 0.25,
      "velocity": 0.71,
      "hand": "left"
    },
    {
      "midi": 72,
      "time": 459.5,
      "duration": 0.25,
      "velocity": 0.71,
      "hand": "right"
    },
    {
      "midi": 40,
      "time": 459.75,
      "duration": 0.25,
      "velocity": 0.71,
      "hand": "left"
    },
    {
      "midi": 72,
      "time": 459.75,
      "duration": 0.25,
      "velocity": 0.71,
      "hand": "right"
    },
    {
      "midi": 73,
      "time": 459.75,
      "duration": 0.25,
      "velocity": 0.71,
      "hand": "right"
    },
    {
      "midi": 48,
      "time": 460,
      "duration": 0.25,
      "velocity": 0.71,
      "hand": "left"
    },
    {
      "midi": 71,
      "time": 460,
      "duration": 0.25,
      "velocity": 0.71,
      "hand": "right"
    },
    {
      "midi": 56,
      "time": 460.25,
      "duration": 0.25,
      "velocity": 0.71,
      "hand": "left"
    },
    {
      "midi": 72,
      "time": 460.25,
      "duration": 0.25,
      "velocity": 0.71,
      "hand": "right"
    },
    {
      "midi": 73,
      "time": 460.25,
      "duration": 0.25,
      "velocity": 0.71,
      "hand": "right"
    },
    {
      "midi": 39,
      "time": 460.5,
      "duration": 0.25,
      "velocity": 0.71,
      "hand": "left"
    },
    {
      "midi": 74,
      "time": 460.5,
      "duration": 0.25,
      "velocity": 0.71,
      "hand": "right"
    },
    {
      "midi": 48,
      "time": 460.75,
      "duration": 0.25,
      "velocity": 0.71,
      "hand": "left"
    },
    {
      "midi": 75,
      "time": 460.75,
      "duration": 0.25,
      "velocity": 0.71,
      "hand": "right"
    },
    {
      "midi": 84,
      "time": 460.75,
      "duration": 0.25,
      "velocity": 0.71,
      "hand": "right"
    },
    {
      "midi": 56,
      "time": 461,
      "duration": 0.25,
      "velocity": 0.71,
      "hand": "left"
    },
    {
      "midi": 79,
      "time": 461,
      "duration": 0.25,
      "velocity": 0.71,
      "hand": "right"
    },
    {
      "midi": 82,
      "time": 461,
      "duration": 0.25,
      "velocity": 0.71,
      "hand": "right"
    },
    {
      "midi": 51,
      "time": 461.25,
      "duration": 0.25,
      "velocity": 0.71,
      "hand": "left"
    },
    {
      "midi": 80,
      "time": 461.25,
      "duration": 0.25,
      "velocity": 0.71,
      "hand": "right"
    },
    {
      "midi": 60,
      "time": 461.5,
      "duration": 0.25,
      "velocity": 0.71,
      "hand": "right"
    },
    {
      "midi": 72,
      "time": 461.5,
      "duration": 0.25,
      "velocity": 0.71,
      "hand": "right"
    },
    {
      "midi": 73,
      "time": 461.5,
      "duration": 0.25,
      "velocity": 0.71,
      "hand": "right"
    },
    {
      "midi": 68,
      "time": 461.75,
      "duration": 0.25,
      "velocity": 0.71,
      "hand": "right"
    },
    {
      "midi": 74,
      "time": 461.75,
      "duration": 0.25,
      "velocity": 0.71,
      "hand": "right"
    },
    {
      "midi": 75,
      "time": 461.75,
      "duration": 0.25,
      "velocity": 0.71,
      "hand": "right"
    },
    {
      "midi": 39,
      "time": 462,
      "duration": 0.25,
      "velocity": 0.71,
      "hand": "left"
    },
    {
      "midi": 76,
      "time": 462,
      "duration": 0.25,
      "velocity": 0.71,
      "hand": "right"
    },
    {
      "midi": 49,
      "time": 462.25,
      "duration": 0.25,
      "velocity": 0.71,
      "hand": "left"
    },
    {
      "midi": 77,
      "time": 462.25,
      "duration": 0.25,
      "velocity": 0.71,
      "hand": "right"
    },
    {
      "midi": 79,
      "time": 462.25,
      "duration": 0.25,
      "velocity": 0.71,
      "hand": "right"
    },
    {
      "midi": 55,
      "time": 462.5,
      "duration": 0.25,
      "velocity": 0.71,
      "hand": "left"
    },
    {
      "midi": 72,
      "time": 462.5,
      "duration": 0.25,
      "velocity": 0.71,
      "hand": "right"
    },
    {
      "midi": 75,
      "time": 462.5,
      "duration": 0.25,
      "velocity": 0.71,
      "hand": "right"
    },
    {
      "midi": 51,
      "time": 462.75,
      "duration": 0.25,
      "velocity": 0.71,
      "hand": "left"
    },
    {
      "midi": 75,
      "time": 462.75,
      "duration": 0.25,
      "velocity": 0.71,
      "hand": "right"
    },
    {
      "midi": 61,
      "time": 463,
      "duration": 0.25,
      "velocity": 0.71,
      "hand": "right"
    },
    {
      "midi": 65,
      "time": 463,
      "duration": 0.25,
      "velocity": 0.71,
      "hand": "right"
    },
    {
      "midi": 73,
      "time": 463,
      "duration": 0.25,
      "velocity": 0.71,
      "hand": "right"
    },
    {
      "midi": 63,
      "time": 463.25,
      "duration": 0.25,
      "velocity": 0.71,
      "hand": "right"
    },
    {
      "midi": 67,
      "time": 463.25,
      "duration": 0.25,
      "velocity": 0.71,
      "hand": "right"
    },
    {
      "midi": 70,
      "time": 463.25,
      "duration": 0.25,
      "velocity": 0.71,
      "hand": "right"
    },
    {
      "midi": 44,
      "time": 463.5,
      "duration": 0.25,
      "velocity": 0.71,
      "hand": "left"
    },
    {
      "midi": 68,
      "time": 463.5,
      "duration": 0.5,
      "velocity": 0.71,
      "hand": "right"
    },
    {
      "midi": 51,
      "time": 463.75,
      "duration": 0.25,
      "velocity": 0.71,
      "hand": "left"
    },
    {
      "midi": 60,
      "time": 464,
      "duration": 0.25,
      "velocity": 0.71,
      "hand": "right"
    },
    {
      "midi": 51,
      "time": 464.25,
      "duration": 0.25,
      "velocity": 0.71,
      "hand": "left"
    },
    {
      "midi": 60,
      "time": 464.5,
      "duration": 0.25,
      "velocity": 0.71,
      "hand": "right"
    },
    {
      "midi": 68,
      "time": 464.75,
      "duration": 0.25,
      "velocity": 0.71,
      "hand": "right"
    },
    {
      "midi": 44,
      "time": 465,
      "duration": 0.25,
      "velocity": 0.71,
      "hand": "left"
    },
    {
      "midi": 52,
      "time": 465.25,
      "duration": 0.25,
      "velocity": 0.71,
      "hand": "left"
    },
    {
      "midi": 60,
      "time": 465.5,
      "duration": 0.25,
      "velocity": 0.71,
      "hand": "right"
    },
    {
      "midi": 52,
      "time": 465.75,
      "duration": 0.25,
      "velocity": 0.71,
      "hand": "left"
    },
    {
      "midi": 60,
      "time": 466,
      "duration": 0.25,
      "velocity": 0.71,
      "hand": "right"
    },
    {
      "midi": 68,
      "time": 466.25,
      "duration": 0.25,
      "velocity": 0.71,
      "hand": "right"
    },
    {
      "midi": 32,
      "time": 466.5,
      "duration": 0.25,
      "velocity": 0.71,
      "hand": "left"
    },
    {
      "midi": 51,
      "time": 466.75,
      "duration": 0.25,
      "velocity": 0.71,
      "hand": "left"
    },
    {
      "midi": 60,
      "time": 467,
      "duration": 0.25,
      "velocity": 0.71,
      "hand": "right"
    },
    {
      "midi": 75,
      "time": 467,
      "duration": 0.5,
      "velocity": 0.71,
      "hand": "right"
    },
    {
      "midi": 51,
      "time": 467.25,
      "duration": 0.25,
      "velocity": 0.71,
      "hand": "left"
    },
    {
      "midi": 60,
      "time": 467.5,
      "duration": 0.25,
      "velocity": 0.71,
      "hand": "right"
    },
    {
      "midi": 80,
      "time": 467.5,
      "duration": 0.75,
      "velocity": 0.71,
      "hand": "right"
    },
    {
      "midi": 68,
      "time": 467.75,
      "duration": 0.25,
      "velocity": 0.71,
      "hand": "right"
    },
    {
      "midi": 44,
      "time": 468,
      "duration": 0.25,
      "velocity": 0.71,
      "hand": "left"
    },
    {
      "midi": 52,
      "time": 468.25,
      "duration": 0.25,
      "velocity": 0.71,
      "hand": "left"
    },
    {
      "midi": 71,
      "time": 468.25,
      "duration": 0.25,
      "velocity": 0.71,
      "hand": "right"
    },
    {
      "midi": 79,
      "time": 468.25,
      "duration": 0.25,
      "velocity": 0.71,
      "hand": "right"
    },
    {
      "midi": 61,
      "time": 468.5,
      "duration": 0.25,
      "velocity": 0.71,
      "hand": "right"
    },
    {
      "midi": 72,
      "time": 468.5,
      "duration": 0.25,
      "velocity": 0.71,
      "hand": "right"
    },
    {
      "midi": 58,
      "time": 468.75,
      "duration": 0.25,
      "velocity": 0.71,
      "hand": "left"
    },
    {
      "midi": 73,
      "time": 468.75,
      "duration": 0.25,
      "velocity": 0.71,
      "hand": "right"
    },
    {
      "midi": 74,
      "time": 468.75,
      "duration": 0.25,
      "velocity": 0.71,
      "hand": "right"
    },
    {
      "midi": 67,
      "time": 469,
      "duration": 0.25,
      "velocity": 0.71,
      "hand": "right"
    },
    {
      "midi": 75,
      "time": 469,
      "duration": 0.25,
      "velocity": 0.71,
      "hand": "right"
    },
    {
      "midi": 73,
      "time": 469.25,
      "duration": 0.25,
      "velocity": 0.71,
      "hand": "right"
    },
    {
      "midi": 76,
      "time": 469.25,
      "duration": 0.25,
      "velocity": 0.71,
      "hand": "right"
    },
    {
      "midi": 78,
      "time": 469.25,
      "duration": 0.25,
      "velocity": 0.71,
      "hand": "right"
    },
    {
      "midi": 44,
      "time": 469.5,
      "duration": 0.25,
      "velocity": 0.71,
      "hand": "left"
    },
    {
      "midi": 51,
      "time": 469.75,
      "duration": 0.25,
      "velocity": 0.71,
      "hand": "left"
    },
    {
      "midi": 75,
      "time": 469.75,
      "duration": 0.25,
      "velocity": 0.71,
      "hand": "right"
    },
    {
      "midi": 60,
      "time": 470,
      "duration": 0.25,
      "velocity": 0.71,
      "hand": "right"
    },
    {
      "midi": 77,
      "time": 470,
      "duration": 0.25,
      "velocity": 0.71,
      "hand": "right"
    },
    {
      "midi": 56,
      "time": 470.25,
      "duration": 0.25,
      "velocity": 0.71,
      "hand": "left"
    },
    {
      "midi": 74,
      "time": 470.25,
      "duration": 0.25,
      "velocity": 0.71,
      "hand": "right"
    },
    {
      "midi": 75,
      "time": 470.25,
      "duration": 0.25,
      "velocity": 0.71,
      "hand": "right"
    },
    {
      "midi": 63,
      "time": 470.5,
      "duration": 0.25,
      "velocity": 0.71,
      "hand": "right"
    },
    {
      "midi": 84,
      "time": 470.5,
      "duration": 0.25,
      "velocity": 0.71,
      "hand": "right"
    },
    {
      "midi": 72,
      "time": 470.75,
      "duration": 0.25,
      "velocity": 0.71,
      "hand": "right"
    },
    {
      "midi": 81,
      "time": 470.75,
      "duration": 0.25,
      "velocity": 0.71,
      "hand": "right"
    },
    {
      "midi": 82,
      "time": 470.75,
      "duration": 0.25,
      "velocity": 0.71,
      "hand": "right"
    },
    {
      "midi": 44,
      "time": 471,
      "duration": 0.25,
      "velocity": 0.71,
      "hand": "left"
    },
    {
      "midi": 80,
      "time": 471,
      "duration": 0.25,
      "velocity": 0.71,
      "hand": "right"
    },
    {
      "midi": 52,
      "time": 471.25,
      "duration": 0.25,
      "velocity": 0.71,
      "hand": "left"
    },
    {
      "midi": 71,
      "time": 471.25,
      "duration": 0.25,
      "velocity": 0.71,
      "hand": "right"
    },
    {
      "midi": 79,
      "time": 471.25,
      "duration": 0.25,
      "velocity": 0.71,
      "hand": "right"
    },
    {
      "midi": 61,
      "time": 471.5,
      "duration": 0.25,
      "velocity": 0.71,
      "hand": "right"
    },
    {
      "midi": 72,
      "time": 471.5,
      "duration": 0.25,
      "velocity": 0.71,
      "hand": "right"
    },
    {
      "midi": 58,
      "time": 471.75,
      "duration": 0.25,
      "velocity": 0.71,
      "hand": "left"
    },
    {
      "midi": 73,
      "time": 471.75,
      "duration": 0.25,
      "velocity": 0.71,
      "hand": "right"
    },
    {
      "midi": 74,
      "time": 471.75,
      "duration": 0.25,
      "velocity": 0.71,
      "hand": "right"
    },
    {
      "midi": 67,
      "time": 472,
      "duration": 0.25,
      "velocity": 0.71,
      "hand": "right"
    },
    {
      "midi": 75,
      "time": 472,
      "duration": 0.25,
      "velocity": 0.71,
      "hand": "right"
    },
    {
      "midi": 73,
      "time": 472.25,
      "duration": 0.25,
      "velocity": 0.71,
      "hand": "right"
    },
    {
      "midi": 76,
      "time": 472.25,
      "duration": 0.25,
      "velocity": 0.71,
      "hand": "right"
    },
    {
      "midi": 78,
      "time": 472.25,
      "duration": 0.25,
      "velocity": 0.71,
      "hand": "right"
    },
    {
      "midi": 44,
      "time": 472.5,
      "duration": 0.25,
      "velocity": 0.71,
      "hand": "left"
    },
    {
      "midi": 51,
      "time": 472.75,
      "duration": 0.25,
      "velocity": 0.71,
      "hand": "left"
    },
    {
      "midi": 60,
      "time": 473,
      "duration": 0.25,
      "velocity": 0.71,
      "hand": "right"
    },
    {
      "midi": 75,
      "time": 473,
      "duration": 0.25,
      "velocity": 0.71,
      "hand": "right"
    },
    {
      "midi": 56,
      "time": 473.25,
      "duration": 0.25,
      "velocity": 0.71,
      "hand": "left"
    },
    {
      "midi": 75,
      "time": 473.25,
      "duration": 0.25,
      "velocity": 0.71,
      "hand": "right"
    },
    {
      "midi": 77,
      "time": 473.25,
      "duration": 0.25,
      "velocity": 0.71,
      "hand": "right"
    },
    {
      "midi": 63,
      "time": 473.5,
      "duration": 0.25,
      "velocity": 0.71,
      "hand": "right"
    },
    {
      "midi": 74,
      "time": 473.5,
      "duration": 0.25,
      "velocity": 0.71,
      "hand": "right"
    },
    {
      "midi": 72,
      "time": 473.75,
      "duration": 0.25,
      "velocity": 0.71,
      "hand": "right"
    },
    {
      "midi": 75,
      "time": 473.75,
      "duration": 0.25,
      "velocity": 0.71,
      "hand": "right"
    },
    {
      "midi": 77,
      "time": 473.75,
      "duration": 0.25,
      "velocity": 0.71,
      "hand": "right"
    },
    {
      "midi": 39,
      "time": 474,
      "duration": 0.25,
      "velocity": 0.71,
      "hand": "left"
    },
    {
      "midi": 78,
      "time": 474,
      "duration": 0.25,
      "velocity": 0.71,
      "hand": "right"
    },
    {
      "midi": 46,
      "time": 474.25,
      "duration": 0.25,
      "velocity": 0.71,
      "hand": "left"
    },
    {
      "midi": 89,
      "time": 474.25,
      "duration": 0.25,
      "velocity": 0.71,
      "hand": "right"
    },
    {
      "midi": 90,
      "time": 474.25,
      "duration": 0.25,
      "velocity": 0.71,
      "hand": "right"
    },
    {
      "midi": 54,
      "time": 474.5,
      "duration": 0.25,
      "velocity": 0.71,
      "hand": "left"
    },
    {
      "midi": 88,
      "time": 474.5,
      "duration": 0.25,
      "velocity": 0.71,
      "hand": "right"
    },
    {
      "midi": 51,
      "time": 474.75,
      "duration": 0.25,
      "velocity": 0.71,
      "hand": "left"
    },
    {
      "midi": 85,
      "time": 474.75,
      "duration": 0.25,
      "velocity": 0.71,
      "hand": "right"
    },
    {
      "midi": 87,
      "time": 474.75,
      "duration": 0.25,
      "velocity": 0.71,
      "hand": "right"
    },
    {
      "midi": 58,
      "time": 475,
      "duration": 0.25,
      "velocity": 0.71,
      "hand": "left"
    },
    {
      "midi": 84,
      "time": 475,
      "duration": 0.25,
      "velocity": 0.71,
      "hand": "right"
    },
    {
      "midi": 66,
      "time": 475.25,
      "duration": 0.25,
      "velocity": 0.71,
      "hand": "right"
    },
    {
      "midi": 81,
      "time": 475.25,
      "duration": 0.25,
      "velocity": 0.71,
      "hand": "right"
    },
    {
      "midi": 82,
      "time": 475.25,
      "duration": 0.25,
      "velocity": 0.71,
      "hand": "right"
    },
    {
      "midi": 41,
      "time": 475.5,
      "duration": 0.25,
      "velocity": 0.71,
      "hand": "left"
    },
    {
      "midi": 78,
      "time": 475.5,
      "duration": 0.25,
      "velocity": 0.71,
      "hand": "right"
    },
    {
      "midi": 48,
      "time": 475.75,
      "duration": 0.25,
      "velocity": 0.71,
      "hand": "left"
    },
    {
      "midi": 76,
      "time": 475.75,
      "duration": 0.25,
      "velocity": 0.71,
      "hand": "right"
    },
    {
      "midi": 77,
      "time": 475.75,
      "duration": 0.25,
      "velocity": 0.71,
      "hand": "right"
    },
    {
      "midi": 57,
      "time": 476,
      "duration": 0.25,
      "velocity": 0.71,
      "hand": "left"
    },
    {
      "midi": 75,
      "time": 476,
      "duration": 0.25,
      "velocity": 0.71,
      "hand": "right"
    },
    {
      "midi": 53,
      "time": 476.25,
      "duration": 0.25,
      "velocity": 0.71,
      "hand": "left"
    },
    {
      "midi": 71,
      "time": 476.25,
      "duration": 0.25,
      "velocity": 0.71,
      "hand": "right"
    },
    {
      "midi": 73,
      "time": 476.25,
      "duration": 0.25,
      "velocity": 0.71,
      "hand": "right"
    },
    {
      "midi": 63,
      "time": 476.5,
      "duration": 0.25,
      "velocity": 0.71,
      "hand": "right"
    },
    {
      "midi": 72,
      "time": 476.5,
      "duration": 0.25,
      "velocity": 0.71,
      "hand": "right"
    },
    {
      "midi": 69,
      "time": 476.75,
      "duration": 0.25,
      "velocity": 0.71,
      "hand": "right"
    },
    {
      "midi": 73,
      "time": 476.75,
      "duration": 0.25,
      "velocity": 0.71,
      "hand": "right"
    },
    {
      "midi": 75,
      "time": 476.75,
      "duration": 0.25,
      "velocity": 0.71,
      "hand": "right"
    },
    {
      "midi": 34,
      "time": 477,
      "duration": 0.25,
      "velocity": 0.71,
      "hand": "left"
    },
    {
      "midi": 72,
      "time": 477,
      "duration": 0.25,
      "velocity": 0.71,
      "hand": "right"
    },
    {
      "midi": 41,
      "time": 477.25,
      "duration": 0.25,
      "velocity": 0.71,
      "hand": "left"
    },
    {
      "midi": 70,
      "time": 477.25,
      "duration": 0.25,
      "velocity": 0.71,
      "hand": "right"
    },
    {
      "midi": 49,
      "time": 477.5,
      "duration": 0.25,
      "velocity": 0.71,
      "hand": "left"
    },
    {
      "midi": 46,
      "time": 477.75,
      "duration": 0.25,
      "velocity": 0.71,
      "hand": "left"
    },
    {
      "midi": 53,
      "time": 478,
      "duration": 0.25,
      "velocity": 0.71,
      "hand": "left"
    },
    {
      "midi": 61,
      "time": 478.25,
      "duration": 0.25,
      "velocity": 0.71,
      "hand": "right"
    },
    {
      "midi": 42,
      "time": 478.5,
      "duration": 0.25,
      "velocity": 0.71,
      "hand": "left"
    },
    {
      "midi": 49,
      "time": 478.75,
      "duration": 0.25,
      "velocity": 0.71,
      "hand": "left"
    },
    {
      "midi": 58,
      "time": 479,
      "duration": 0.25,
      "velocity": 0.71,
      "hand": "left"
    },
    {
      "midi": 73,
      "time": 479,
      "duration": 0.25,
      "velocity": 0.71,
      "hand": "right"
    },
    {
      "midi": 54,
      "time": 479.25,
      "duration": 0.25,
      "velocity": 0.71,
      "hand": "left"
    },
    {
      "midi": 73,
      "time": 479.25,
      "duration": 0.25,
      "velocity": 0.71,
      "hand": "right"
    },
    {
      "midi": 75,
      "time": 479.25,
      "duration": 0.25,
      "velocity": 0.71,
      "hand": "right"
    },
    {
      "midi": 61,
      "time": 479.5,
      "duration": 0.25,
      "velocity": 0.71,
      "hand": "right"
    },
    {
      "midi": 72,
      "time": 479.5,
      "duration": 0.25,
      "velocity": 0.71,
      "hand": "right"
    },
    {
      "midi": 70,
      "time": 479.75,
      "duration": 0.25,
      "velocity": 0.71,
      "hand": "right"
    },
    {
      "midi": 73,
      "time": 479.75,
      "duration": 0.25,
      "velocity": 0.71,
      "hand": "right"
    },
    {
      "midi": 75,
      "time": 479.75,
      "duration": 0.25,
      "velocity": 0.71,
      "hand": "right"
    },
    {
      "midi": 37,
      "time": 480,
      "duration": 0.25,
      "velocity": 0.71,
      "hand": "left"
    },
    {
      "midi": 77,
      "time": 480,
      "duration": 0.25,
      "velocity": 0.71,
      "hand": "right"
    },
    {
      "midi": 44,
      "time": 480.25,
      "duration": 0.25,
      "velocity": 0.71,
      "hand": "left"
    },
    {
      "midi": 84,
      "time": 480.25,
      "duration": 0.25,
      "velocity": 0.71,
      "hand": "right"
    },
    {
      "midi": 89,
      "time": 480.25,
      "duration": 0.25,
      "velocity": 0.71,
      "hand": "right"
    },
    {
      "midi": 53,
      "time": 480.5,
      "duration": 0.25,
      "velocity": 0.71,
      "hand": "left"
    },
    {
      "midi": 87,
      "time": 480.5,
      "duration": 0.25,
      "velocity": 0.71,
      "hand": "right"
    },
    {
      "midi": 49,
      "time": 480.75,
      "duration": 0.25,
      "velocity": 0.71,
      "hand": "left"
    },
    {
      "midi": 80,
      "time": 480.75,
      "duration": 0.25,
      "velocity": 0.71,
      "hand": "right"
    },
    {
      "midi": 85,
      "time": 480.75,
      "duration": 0.25,
      "velocity": 0.71,
      "hand": "right"
    },
    {
      "midi": 56,
      "time": 481,
      "duration": 0.25,
      "velocity": 0.71,
      "hand": "left"
    },
    {
      "midi": 77,
      "time": 481,
      "duration": 0.25,
      "velocity": 0.71,
      "hand": "right"
    },
    {
      "midi": 65,
      "time": 481.25,
      "duration": 0.25,
      "velocity": 0.71,
      "hand": "right"
    },
    {
      "midi": 73,
      "time": 481.25,
      "duration": 0.25,
      "velocity": 0.71,
      "hand": "right"
    },
    {
      "midi": 75,
      "time": 481.25,
      "duration": 0.25,
      "velocity": 0.71,
      "hand": "right"
    },
    {
      "midi": 39,
      "time": 481.5,
      "duration": 0.25,
      "velocity": 0.71,
      "hand": "left"
    },
    {
      "midi": 71,
      "time": 481.5,
      "duration": 0.5,
      "velocity": 0.71,
      "hand": "right"
    },
    {
      "midi": 47,
      "time": 481.75,
      "duration": 0.25,
      "velocity": 0.71,
      "hand": "left"
    },
    {
      "midi": 54,
      "time": 482,
      "duration": 0.25,
      "velocity": 0.71,
      "hand": "left"
    },
    {
      "midi": 70,
      "time": 482,
      "duration": 0.25,
      "velocity": 0.71,
      "hand": "right"
    },
    {
      "midi": 71,
      "time": 482,
      "duration": 0.25,
      "velocity": 0.71,
      "hand": "right"
    },
    {
      "midi": 40,
      "time": 482.25,
      "duration": 0.25,
      "velocity": 0.71,
      "hand": "left"
    },
    {
      "midi": 73,
      "time": 482.25,
      "duration": 0.25,
      "velocity": 0.71,
      "hand": "right"
    },
    {
      "midi": 75,
      "time": 482.25,
      "duration": 0.25,
      "velocity": 0.71,
      "hand": "right"
    },
    {
      "midi": 49,
      "time": 482.5,
      "duration": 0.25,
      "velocity": 0.71,
      "hand": "left"
    },
    {
      "midi": 69,
      "time": 482.5,
      "duration": 0.25,
      "velocity": 0.71,
      "hand": "right"
    },
    {
      "midi": 55,
      "time": 482.75,
      "duration": 0.25,
      "velocity": 0.71,
      "hand": "left"
    },
    {
      "midi": 70,
      "time": 482.75,
      "duration": 0.25,
      "velocity": 0.71,
      "hand": "right"
    },
    {
      "midi": 72,
      "time": 482.75,
      "duration": 0.25,
      "velocity": 0.71,
      "hand": "right"
    },
    {
      "midi": 41,
      "time": 483,
      "duration": 0.25,
      "velocity": 0.71,
      "hand": "left"
    },
    {
      "midi": 69,
      "time": 483,
      "duration": 0.25,
      "velocity": 0.71,
      "hand": "right"
    },
    {
      "midi": 48,
      "time": 483.25,
      "duration": 0.25,
      "velocity": 0.71,
      "hand": "left"
    },
    {
      "midi": 72,
      "time": 483.25,
      "duration": 0.25,
      "velocity": 0.71,
      "hand": "right"
    },
    {
      "midi": 76,
      "time": 483.25,
      "duration": 0.25,
      "velocity": 0.71,
      "hand": "right"
    },
    {
      "midi": 57,
      "time": 483.5,
      "duration": 0.25,
      "velocity": 0.71,
      "hand": "left"
    },
    {
      "midi": 78,
      "time": 483.5,
      "duration": 0.25,
      "velocity": 0.71,
      "hand": "right"
    },
    {
      "midi": 53,
      "time": 483.75,
      "duration": 0.25,
      "velocity": 0.71,
      "hand": "left"
    },
    {
      "midi": 77,
      "time": 483.75,
      "duration": 0.25,
      "velocity": 0.71,
      "hand": "right"
    },
    {
      "midi": 81,
      "time": 483.75,
      "duration": 0.25,
      "velocity": 0.71,
      "hand": "right"
    },
    {
      "midi": 60,
      "time": 484,
      "duration": 0.25,
      "velocity": 0.71,
      "hand": "right"
    },
    {
      "midi": 84,
      "time": 484,
      "duration": 0.25,
      "velocity": 0.71,
      "hand": "right"
    },
    {
      "midi": 69,
      "time": 484.25,
      "duration": 0.25,
      "velocity": 0.71,
      "hand": "right"
    },
    {
      "midi": 77,
      "time": 484.25,
      "duration": 0.25,
      "velocity": 0.71,
      "hand": "right"
    },
    {
      "midi": 89,
      "time": 484.25,
      "duration": 0.25,
      "velocity": 0.71,
      "hand": "right"
    },
    {
      "midi": 41,
      "time": 484.5,
      "duration": 0.25,
      "velocity": 0.71,
      "hand": "left"
    },
    {
      "midi": 88,
      "time": 484.5,
      "duration": 0.25,
      "velocity": 0.71,
      "hand": "right"
    },
    {
      "midi": 49,
      "time": 484.75,
      "duration": 0.25,
      "velocity": 0.71,
      "hand": "left"
    },
    {
      "midi": 84,
      "time": 484.75,
      "duration": 0.25,
      "velocity": 0.71,
      "hand": "right"
    },
    {
      "midi": 87,
      "time": 484.75,
      "duration": 0.25,
      "velocity": 0.71,
      "hand": "right"
    },
    {
      "midi": 58,
      "time": 485,
      "duration": 0.25,
      "velocity": 0.71,
      "hand": "left"
    },
    {
      "midi": 85,
      "time": 485,
      "duration": 0.25,
      "velocity": 0.71,
      "hand": "right"
    },
    {
      "midi": 52,
      "time": 485.25,
      "duration": 0.25,
      "velocity": 0.71,
      "hand": "left"
    },
    {
      "midi": 79,
      "time": 485.25,
      "duration": 0.25,
      "velocity": 0.71,
      "hand": "right"
    },
    {
      "midi": 82,
      "time": 485.25,
      "duration": 0.25,
      "velocity": 0.71,
      "hand": "right"
    },
    {
      "midi": 61,
      "time": 485.5,
      "duration": 0.25,
      "velocity": 0.71,
      "hand": "right"
    },
    {
      "midi": 76,
      "time": 485.5,
      "duration": 0.25,
      "velocity": 0.71,
      "hand": "right"
    },
    {
      "midi": 67,
      "time": 485.75,
      "duration": 0.25,
      "velocity": 0.71,
      "hand": "right"
    },
    {
      "midi": 70,
      "time": 485.75,
      "duration": 0.25,
      "velocity": 0.71,
      "hand": "right"
    },
    {
      "midi": 73,
      "time": 485.75,
      "duration": 0.25,
      "velocity": 0.71,
      "hand": "right"
    },
    {
      "midi": 41,
      "time": 486,
      "duration": 0.25,
      "velocity": 0.71,
      "hand": "left"
    },
    {
      "midi": 69,
      "time": 486,
      "duration": 0.25,
      "velocity": 0.71,
      "hand": "right"
    },
    {
      "midi": 48,
      "time": 486.25,
      "duration": 0.25,
      "velocity": 0.71,
      "hand": "left"
    },
    {
      "midi": 72,
      "time": 486.25,
      "duration": 0.25,
      "velocity": 0.71,
      "hand": "right"
    },
    {
      "midi": 76,
      "time": 486.25,
      "duration": 0.25,
      "velocity": 0.71,
      "hand": "right"
    },
    {
      "midi": 57,
      "time": 486.5,
      "duration": 0.25,
      "velocity": 0.71,
      "hand": "left"
    },
    {
      "midi": 78,
      "time": 486.5,
      "duration": 0.25,
      "velocity": 0.71,
      "hand": "right"
    },
    {
      "midi": 53,
      "time": 486.75,
      "duration": 0.25,
      "velocity": 0.71,
      "hand": "left"
    },
    {
      "midi": 77,
      "time": 486.75,
      "duration": 0.25,
      "velocity": 0.71,
      "hand": "right"
    },
    {
      "midi": 81,
      "time": 486.75,
      "duration": 0.25,
      "velocity": 0.71,
      "hand": "right"
    },
    {
      "midi": 60,
      "time": 487,
      "duration": 0.25,
      "velocity": 0.71,
      "hand": "right"
    },
    {
      "midi": 84,
      "time": 487,
      "duration": 0.25,
      "velocity": 0.71,
      "hand": "right"
    },
    {
      "midi": 69,
      "time": 487.25,
      "duration": 0.25,
      "velocity": 0.71,
      "hand": "right"
    },
    {
      "midi": 89,
      "time": 487.25,
      "duration": 0.25,
      "velocity": 0.71,
      "hand": "right"
    },
    {
      "midi": 101,
      "time": 487.25,
      "duration": 0.25,
      "velocity": 0.71,
      "hand": "right"
    },
    {
      "midi": 53,
      "time": 487.5,
      "duration": 0.25,
      "velocity": 0.71,
      "hand": "left"
    },
    {
      "midi": 100,
      "time": 487.5,
      "duration": 0.25,
      "velocity": 0.71,
      "hand": "right"
    },
    {
      "midi": 61,
      "time": 487.75,
      "duration": 0.25,
      "velocity": 0.71,
      "hand": "right"
    },
    {
      "midi": 96,
      "time": 487.75,
      "duration": 0.25,
      "velocity": 0.71,
      "hand": "right"
    },
    {
      "midi": 99,
      "time": 487.75,
      "duration": 0.25,
      "velocity": 0.71,
      "hand": "right"
    },
    {
      "midi": 70,
      "time": 488,
      "duration": 0.25,
      "velocity": 0.71,
      "hand": "right"
    },
    {
      "midi": 97,
      "time": 488,
      "duration": 0.25,
      "velocity": 0.71,
      "hand": "right"
    },
    {
      "midi": 64,
      "time": 488.25,
      "duration": 0.25,
      "velocity": 0.71,
      "hand": "right"
    },
    {
      "midi": 91,
      "time": 488.25,
      "duration": 0.25,
      "velocity": 0.71,
      "hand": "right"
    },
    {
      "midi": 94,
      "time": 488.25,
      "duration": 0.25,
      "velocity": 0.71,
      "hand": "right"
    },
    {
      "midi": 73,
      "time": 488.5,
      "duration": 0.25,
      "velocity": 0.71,
      "hand": "right"
    },
    {
      "midi": 88,
      "time": 488.5,
      "duration": 0.25,
      "velocity": 0.71,
      "hand": "right"
    },
    {
      "midi": 79,
      "time": 488.75,
      "duration": 0.25,
      "velocity": 0.71,
      "hand": "right"
    },
    {
      "midi": 82,
      "time": 488.75,
      "duration": 0.25,
      "velocity": 0.71,
      "hand": "right"
    },
    {
      "midi": 85,
      "time": 488.75,
      "duration": 0.25,
      "velocity": 0.71,
      "hand": "right"
    },
    {
      "midi": 65,
      "time": 489,
      "duration": 0.5,
      "velocity": 0.71,
      "hand": "right"
    },
    {
      "midi": 72,
      "time": 489,
      "duration": 0.5,
      "velocity": 0.71,
      "hand": "right"
    },
    {
      "midi": 81,
      "time": 489,
      "duration": 0.25,
      "velocity": 0.71,
      "hand": "right"
    },
    {
      "midi": 84,
      "time": 489.25,
      "duration": 0.25,
      "velocity": 0.71,
      "hand": "right"
    },
    {
      "midi": 87,
      "time": 489.25,
      "duration": 0.25,
      "velocity": 0.71,
      "hand": "right"
    },
    {
      "midi": 89,
      "time": 489.5,
      "duration": 0.25,
      "velocity": 0.71,
      "hand": "right"
    },
    {
      "midi": 90,
      "time": 489.75,
      "duration": 0.25,
      "velocity": 0.71,
      "hand": "right"
    },
    {
      "midi": 92,
      "time": 489.75,
      "duration": 0.25,
      "velocity": 0.71,
      "hand": "right"
    },
    {
      "midi": 87,
      "time": 490,
      "duration": 0.25,
      "velocity": 0.71,
      "hand": "right"
    },
    {
      "midi": 81,
      "time": 490.25,
      "duration": 0.25,
      "velocity": 0.71,
      "hand": "right"
    },
    {
      "midi": 84,
      "time": 490.25,
      "duration": 0.25,
      "velocity": 0.71,
      "hand": "right"
    },
    {
      "midi": 78,
      "time": 490.5,
      "duration": 0.25,
      "velocity": 0.71,
      "hand": "right"
    },
    {
      "midi": 72,
      "time": 490.75,
      "duration": 0.25,
      "velocity": 0.71,
      "hand": "right"
    },
    {
      "midi": 75,
      "time": 490.75,
      "duration": 0.25,
      "velocity": 0.71,
      "hand": "right"
    },
    {
      "midi": 60,
      "time": 491,
      "duration": 0.25,
      "velocity": 0.71,
      "hand": "right"
    },
    {
      "midi": 69,
      "time": 491,
      "duration": 0.25,
      "velocity": 0.71,
      "hand": "right"
    },
    {
      "midi": 61,
      "time": 491.25,
      "duration": 0.25,
      "velocity": 0.71,
      "hand": "right"
    },
    {
      "midi": 62,
      "time": 491.25,
      "duration": 0.25,
      "velocity": 0.71,
      "hand": "right"
    },
    {
      "midi": 70,
      "time": 491.25,
      "duration": 0.25,
      "velocity": 0.71,
      "hand": "right"
    },
    {
      "midi": 71,
      "time": 491.25,
      "duration": 0.25,
      "velocity": 0.71,
      "hand": "right"
    },
    {
      "midi": 63,
      "time": 491.5,
      "duration": 0.25,
      "velocity": 0.71,
      "hand": "right"
    },
    {
      "midi": 72,
      "time": 491.5,
      "duration": 0.25,
      "velocity": 0.71,
      "hand": "right"
    },
    {
      "midi": 61,
      "time": 491.75,
      "duration": 0.25,
      "velocity": 0.71,
      "hand": "right"
    },
    {
      "midi": 64,
      "time": 491.75,
      "duration": 0.25,
      "velocity": 0.71,
      "hand": "right"
    },
    {
      "midi": 70,
      "time": 491.75,
      "duration": 0.25,
      "velocity": 0.71,
      "hand": "right"
    },
    {
      "midi": 73,
      "time": 491.75,
      "duration": 0.25,
      "velocity": 0.71,
      "hand": "right"
    },
    {
      "midi": 60,
      "time": 492,
      "duration": 0.5,
      "velocity": 0.71,
      "hand": "right"
    },
    {
      "midi": 65,
      "time": 492,
      "duration": 0.5,
      "velocity": 0.71,
      "hand": "right"
    },
    {
      "midi": 69,
      "time": 492,
      "duration": 0.25,
      "velocity": 0.71,
      "hand": "right"
    },
    {
      "midi": 72,
      "time": 492.25,
      "duration": 0.25,
      "velocity": 0.71,
      "hand": "right"
    },
    {
      "midi": 75,
      "time": 492.25,
      "duration": 0.25,
      "velocity": 0.71,
      "hand": "right"
    },
    {
      "midi": 53,
      "time": 492.5,
      "duration": 0.5,
      "velocity": 0.71,
      "hand": "left"
    },
    {
      "midi": 63,
      "time": 492.5,
      "duration": 0.5,
      "velocity": 0.71,
      "hand": "right"
    },
    {
      "midi": 77,
      "time": 492.5,
      "duration": 0.25,
      "velocity": 0.71,
      "hand": "right"
    },
    {
      "midi": 78,
      "time": 492.75,
      "duration": 0.25,
      "velocity": 0.71,
      "hand": "right"
    },
    {
      "midi": 81,
      "time": 492.75,
      "duration": 0.25,
      "velocity": 0.71,
      "hand": "right"
    },
    {
      "midi": 75,
      "time": 493,
      "duration": 0.25,
      "velocity": 0.71,
      "hand": "right"
    },
    {
      "midi": 69,
      "time": 493.25,
      "duration": 0.25,
      "velocity": 0.71,
      "hand": "right"
    },
    {
      "midi": 72,
      "time": 493.25,
      "duration": 0.25,
      "velocity": 0.71,
      "hand": "right"
    },
    {
      "midi": 66,
      "time": 493.5,
      "duration": 0.25,
      "velocity": 0.71,
      "hand": "right"
    },
    {
      "midi": 60,
      "time": 493.75,
      "duration": 0.25,
      "velocity": 0.71,
      "hand": "right"
    },
    {
      "midi": 63,
      "time": 493.75,
      "duration": 0.25,
      "velocity": 0.71,
      "hand": "right"
    },
    {
      "midi": 48,
      "time": 494,
      "duration": 0.25,
      "velocity": 0.71,
      "hand": "left"
    },
    {
      "midi": 57,
      "time": 494,
      "duration": 0.25,
      "velocity": 0.71,
      "hand": "left"
    },
    {
      "midi": 49,
      "time": 494.25,
      "duration": 0.25,
      "velocity": 0.71,
      "hand": "left"
    },
    {
      "midi": 50,
      "time": 494.25,
      "duration": 0.25,
      "velocity": 0.71,
      "hand": "left"
    },
    {
      "midi": 58,
      "time": 494.25,
      "duration": 0.25,
      "velocity": 0.71,
      "hand": "left"
    },
    {
      "midi": 59,
      "time": 494.25,
      "duration": 0.25,
      "velocity": 0.71,
      "hand": "left"
    },
    {
      "midi": 51,
      "time": 494.5,
      "duration": 0.25,
      "velocity": 0.71,
      "hand": "left"
    },
    {
      "midi": 60,
      "time": 494.5,
      "duration": 0.25,
      "velocity": 0.71,
      "hand": "right"
    },
    {
      "midi": 49,
      "time": 494.75,
      "duration": 0.25,
      "velocity": 0.71,
      "hand": "left"
    },
    {
      "midi": 52,
      "time": 494.75,
      "duration": 0.25,
      "velocity": 0.71,
      "hand": "left"
    },
    {
      "midi": 58,
      "time": 494.75,
      "duration": 0.25,
      "velocity": 0.71,
      "hand": "left"
    },
    {
      "midi": 61,
      "time": 494.75,
      "duration": 0.25,
      "velocity": 0.71,
      "hand": "right"
    },
    {
      "midi": 41,
      "time": 495,
      "duration": 0.5,
      "velocity": 0.71,
      "hand": "left"
    },
    {
      "midi": 48,
      "time": 495,
      "duration": 0.5,
      "velocity": 0.71,
      "hand": "left"
    },
    {
      "midi": 53,
      "time": 495,
      "duration": 0.5,
      "velocity": 0.71,
      "hand": "left"
    },
    {
      "midi": 57,
      "time": 495,
      "duration": 0.25,
      "velocity": 0.71,
      "hand": "left"
    },
    {
      "midi": 58,
      "time": 495.25,
      "duration": 0.25,
      "velocity": 0.71,
      "hand": "left"
    },
    {
      "midi": 59,
      "time": 495.25,
      "duration": 0.25,
      "velocity": 0.71,
      "hand": "left"
    },
    {
      "midi": 49,
      "time": 495.5,
      "duration": 0.5,
      "velocity": 0.71,
      "hand": "left"
    },
    {
      "midi": 52,
      "time": 495.5,
      "duration": 0.5,
      "velocity": 0.71,
      "hand": "left"
    },
    {
      "midi": 60,
      "time": 495.5,
      "duration": 0.25,
      "velocity": 0.71,
      "hand": "right"
    },
    {
      "midi": 58,
      "time": 495.75,
      "duration": 0.25,
      "velocity": 0.71,
      "hand": "left"
    },
    {
      "midi": 61,
      "time": 495.75,
      "duration": 0.25,
      "velocity": 0.71,
      "hand": "right"
    },
    {
      "midi": 48,
      "time": 496,
      "duration": 0.5,
      "velocity": 0.71,
      "hand": "left"
    },
    {
      "midi": 53,
      "time": 496,
      "duration": 0.5,
      "velocity": 0.71,
      "hand": "left"
    },
    {
      "midi": 57,
      "time": 496,
      "duration": 0.25,
      "velocity": 0.71,
      "hand": "left"
    },
    {
      "midi": 58,
      "time": 496.25,
      "duration": 0.25,
      "velocity": 0.71,
      "hand": "left"
    },
    {
      "midi": 59,
      "time": 496.25,
      "duration": 0.25,
      "velocity": 0.71,
      "hand": "left"
    },
    {
      "midi": 49,
      "time": 496.5,
      "duration": 0.5,
      "velocity": 0.71,
      "hand": "left"
    },
    {
      "midi": 52,
      "time": 496.5,
      "duration": 0.5,
      "velocity": 0.71,
      "hand": "left"
    },
    {
      "midi": 60,
      "time": 496.5,
      "duration": 0.25,
      "velocity": 0.71,
      "hand": "right"
    },
    {
      "midi": 58,
      "time": 496.75,
      "duration": 0.25,
      "velocity": 0.71,
      "hand": "left"
    },
    {
      "midi": 61,
      "time": 496.75,
      "duration": 0.25,
      "velocity": 0.71,
      "hand": "right"
    },
    {
      "midi": 48,
      "time": 497,
      "duration": 0.5,
      "velocity": 0.71,
      "hand": "left"
    },
    {
      "midi": 53,
      "time": 497,
      "duration": 0.5,
      "velocity": 0.71,
      "hand": "left"
    },
    {
      "midi": 57,
      "time": 497,
      "duration": 0.25,
      "velocity": 0.71,
      "hand": "left"
    },
    {
      "midi": 58,
      "time": 497.25,
      "duration": 0.25,
      "velocity": 0.71,
      "hand": "left"
    },
    {
      "midi": 59,
      "time": 497.25,
      "duration": 0.25,
      "velocity": 0.71,
      "hand": "left"
    },
    {
      "midi": 49,
      "time": 497.5,
      "duration": 0.5,
      "velocity": 0.71,
      "hand": "left"
    },
    {
      "midi": 52,
      "time": 497.5,
      "duration": 0.5,
      "velocity": 0.71,
      "hand": "left"
    },
    {
      "midi": 60,
      "time": 497.5,
      "duration": 0.25,
      "velocity": 0.71,
      "hand": "right"
    },
    {
      "midi": 58,
      "time": 497.75,
      "duration": 0.25,
      "velocity": 0.71,
      "hand": "left"
    },
    {
      "midi": 61,
      "time": 497.75,
      "duration": 0.25,
      "velocity": 0.71,
      "hand": "right"
    },
    {
      "midi": 41,
      "time": 498,
      "duration": 0.5,
      "velocity": 0.71,
      "hand": "left"
    },
    {
      "midi": 48,
      "time": 498,
      "duration": 0.5,
      "velocity": 0.71,
      "hand": "left"
    },
    {
      "midi": 51,
      "time": 498,
      "duration": 0.5,
      "velocity": 0.71,
      "hand": "left"
    },
    {
      "midi": 57,
      "time": 498,
      "duration": 0.25,
      "velocity": 0.71,
      "hand": "left"
    },
    {
      "midi": 60,
      "time": 498.25,
      "duration": 0.25,
      "velocity": 0.71,
      "hand": "right"
    },
    {
      "midi": 63,
      "time": 498.25,
      "duration": 0.25,
      "velocity": 0.71,
      "hand": "right"
    },
    {
      "midi": 65,
      "time": 498.5,
      "duration": 0.25,
      "velocity": 0.71,
      "hand": "right"
    },
    {
      "midi": 68,
      "time": 498.75,
      "duration": 0.25,
      "velocity": 0.71,
      "hand": "right"
    },
    {
      "midi": 72,
      "time": 498.75,
      "duration": 0.25,
      "velocity": 0.71,
      "hand": "right"
    },
    {
      "midi": 67,
      "time": 499,
      "duration": 0.25,
      "velocity": 0.71,
      "hand": "right"
    },
    {
      "midi": 65,
      "time": 499.25,
      "duration": 0.25,
      "velocity": 0.71,
      "hand": "right"
    },
    {
      "midi": 66,
      "time": 499.25,
      "duration": 0.25,
      "velocity": 0.71,
      "hand": "right"
    },
    {
      "midi": 64,
      "time": 499.5,
      "duration": 0.25,
      "velocity": 0.71,
      "hand": "right"
    },
    {
      "midi": 62,
      "time": 499.75,
      "duration": 0.25,
      "velocity": 0.71,
      "hand": "right"
    },
    {
      "midi": 63,
      "time": 499.75,
      "duration": 0.25,
      "velocity": 0.71,
      "hand": "right"
    },
    {
      "midi": 61,
      "time": 500,
      "duration": 0.25,
      "velocity": 0.71,
      "hand": "right"
    },
    {
      "midi": 59,
      "time": 500.25,
      "duration": 0.25,
      "velocity": 0.71,
      "hand": "left"
    },
    {
      "midi": 60,
      "time": 500.25,
      "duration": 0.25,
      "velocity": 0.71,
      "hand": "right"
    },
    {
      "midi": 58,
      "time": 500.5,
      "duration": 0.25,
      "velocity": 0.71,
      "hand": "left"
    },
    {
      "midi": 56,
      "time": 500.75,
      "duration": 0.25,
      "velocity": 0.71,
      "hand": "left"
    },
    {
      "midi": 57,
      "time": 500.75,
      "duration": 0.25,
      "velocity": 0.71,
      "hand": "left"
    },
    {
      "midi": 55,
      "time": 501,
      "duration": 0.25,
      "velocity": 0.71,
      "hand": "left"
    },
    {
      "midi": 53,
      "time": 501.25,
      "duration": 0.25,
      "velocity": 0.71,
      "hand": "left"
    },
    {
      "midi": 54,
      "time": 501.25,
      "duration": 0.25,
      "velocity": 0.71,
      "hand": "left"
    },
    {
      "midi": 52,
      "time": 501.5,
      "duration": 0.25,
      "velocity": 0.71,
      "hand": "left"
    },
    {
      "midi": 50,
      "time": 501.75,
      "duration": 0.25,
      "velocity": 0.71,
      "hand": "left"
    },
    {
      "midi": 51,
      "time": 501.75,
      "duration": 0.25,
      "velocity": 0.71,
      "hand": "left"
    },
    {
      "midi": 49,
      "time": 502,
      "duration": 0.25,
      "velocity": 0.71,
      "hand": "left"
    },
    {
      "midi": 47,
      "time": 502.25,
      "duration": 0.25,
      "velocity": 0.71,
      "hand": "left"
    },
    {
      "midi": 48,
      "time": 502.25,
      "duration": 0.25,
      "velocity": 0.71,
      "hand": "left"
    },
    {
      "midi": 46,
      "time": 502.5,
      "duration": 0.25,
      "velocity": 0.71,
      "hand": "left"
    },
    {
      "midi": 44,
      "time": 502.75,
      "duration": 0.25,
      "velocity": 0.71,
      "hand": "left"
    },
    {
      "midi": 45,
      "time": 502.75,
      "duration": 0.25,
      "velocity": 0.71,
      "hand": "left"
    },
    {
      "midi": 43,
      "time": 503,
      "duration": 0.25,
      "velocity": 0.71,
      "hand": "left"
    },
    {
      "midi": 41,
      "time": 503.25,
      "duration": 0.25,
      "velocity": 0.71,
      "hand": "left"
    },
    {
      "midi": 42,
      "time": 503.25,
      "duration": 0.25,
      "velocity": 0.71,
      "hand": "left"
    },
    {
      "midi": 40,
      "time": 503.5,
      "duration": 0.25,
      "velocity": 0.71,
      "hand": "left"
    },
    {
      "midi": 38,
      "time": 503.75,
      "duration": 0.25,
      "velocity": 0.71,
      "hand": "left"
    },
    {
      "midi": 39,
      "time": 503.75,
      "duration": 0.25,
      "velocity": 0.71,
      "hand": "left"
    },
    {
      "midi": 37,
      "time": 504,
      "duration": 0.25,
      "velocity": 0.71,
      "hand": "left"
    },
    {
      "midi": 44,
      "time": 504.25,
      "duration": 0.25,
      "velocity": 0.71,
      "hand": "left"
    },
    {
      "midi": 46,
      "time": 504.25,
      "duration": 0.25,
      "velocity": 0.71,
      "hand": "left"
    },
    {
      "midi": 48,
      "time": 504.5,
      "duration": 0.25,
      "velocity": 0.71,
      "hand": "left"
    },
    {
      "midi": 49,
      "time": 504.75,
      "duration": 0.25,
      "velocity": 0.71,
      "hand": "left"
    },
    {
      "midi": 51,
      "time": 504.75,
      "duration": 0.25,
      "velocity": 0.71,
      "hand": "left"
    },
    {
      "midi": 53,
      "time": 505,
      "duration": 0.25,
      "velocity": 0.71,
      "hand": "left"
    },
    {
      "midi": 65,
      "time": 505,
      "duration": 0.5,
      "velocity": 0.71,
      "hand": "right"
    },
    {
      "midi": 68,
      "time": 505,
      "duration": 0.5,
      "velocity": 0.71,
      "hand": "right"
    },
    {
      "midi": 77,
      "time": 505,
      "duration": 0.5,
      "velocity": 0.71,
      "hand": "right"
    },
    {
      "midi": 54,
      "time": 505.25,
      "duration": 0.25,
      "velocity": 0.71,
      "hand": "left"
    },
    {
      "midi": 56,
      "time": 505.25,
      "duration": 0.25,
      "velocity": 0.71,
      "hand": "left"
    },
    {
      "midi": 58,
      "time": 505.5,
      "duration": 0.25,
      "velocity": 0.71,
      "hand": "left"
    },
    {
      "midi": 65,
      "time": 505.5,
      "duration": 1.5,
      "velocity": 0.71,
      "hand": "right"
    },
    {
      "midi": 68,
      "time": 505.5,
      "duration": 1.5,
      "velocity": 0.71,
      "hand": "right"
    },
    {
      "midi": 77,
      "time": 505.5,
      "duration": 1.5,
      "velocity": 0.71,
      "hand": "right"
    },
    {
      "midi": 56,
      "time": 505.75,
      "duration": 0.25,
      "velocity": 0.71,
      "hand": "left"
    },
    {
      "midi": 58,
      "time": 505.75,
      "duration": 0.25,
      "velocity": 0.71,
      "hand": "left"
    },
    {
      "midi": 60,
      "time": 506,
      "duration": 0.25,
      "velocity": 0.71,
      "hand": "right"
    },
    {
      "midi": 61,
      "time": 506.25,
      "duration": 0.25,
      "velocity": 0.71,
      "hand": "right"
    },
    {
      "midi": 63,
      "time": 506.25,
      "duration": 0.25,
      "velocity": 0.71,
      "hand": "right"
    },
    {
      "midi": 65,
      "time": 506.5,
      "duration": 0.5,
      "velocity": 0.71,
      "hand": "right"
    },
    {
      "midi": 37,
      "time": 507,
      "duration": 0.25,
      "velocity": 0.71,
      "hand": "left"
    },
    {
      "midi": 65,
      "time": 507,
      "duration": 1,
      "velocity": 0.71,
      "hand": "right"
    },
    {
      "midi": 73,
      "time": 507,
      "duration": 1,
      "velocity": 0.71,
      "hand": "right"
    },
    {
      "midi": 44,
      "time": 507.25,
      "duration": 0.25,
      "velocity": 0.71,
      "hand": "left"
    },
    {
      "midi": 46,
      "time": 507.25,
      "duration": 0.25,
      "velocity": 0.71,
      "hand": "left"
    },
    {
      "midi": 48,
      "time": 507.5,
      "duration": 0.25,
      "velocity": 0.71,
      "hand": "left"
    },
    {
      "midi": 49,
      "time": 507.75,
      "duration": 0.25,
      "velocity": 0.71,
      "hand": "left"
    },
    {
      "midi": 51,
      "time": 507.75,
      "duration": 0.25,
      "velocity": 0.71,
      "hand": "left"
    },
    {
      "midi": 53,
      "time": 508,
      "duration": 0.25,
      "velocity": 0.71,
      "hand": "left"
    },
    {
      "midi": 65,
      "time": 508,
      "duration": 0.5,
      "velocity": 0.71,
      "hand": "right"
    },
    {
      "midi": 70,
      "time": 508,
      "duration": 0.5,
      "velocity": 0.71,
      "hand": "right"
    },
    {
      "midi": 54,
      "time": 508.25,
      "duration": 0.25,
      "velocity": 0.71,
      "hand": "left"
    },
    {
      "midi": 56,
      "time": 508.25,
      "duration": 0.25,
      "velocity": 0.71,
      "hand": "left"
    },
    {
      "midi": 58,
      "time": 508.5,
      "duration": 0.25,
      "velocity": 0.71,
      "hand": "left"
    },
    {
      "midi": 60,
      "time": 508.5,
      "duration": 1,
      "velocity": 0.71,
      "hand": "right"
    },
    {
      "midi": 66,
      "time": 508.5,
      "duration": 1,
      "velocity": 0.71,
      "hand": "right"
    },
    {
      "midi": 70,
      "time": 508.5,
      "duration": 1,
      "velocity": 0.71,
      "hand": "right"
    },
    {
      "midi": 56,
      "time": 508.75,
      "duration": 0.25,
      "velocity": 0.71,
      "hand": "left"
    },
    {
      "midi": 60,
      "time": 508.75,
      "duration": 0.25,
      "velocity": 0.71,
      "hand": "right"
    },
    {
      "midi": 61,
      "time": 509,
      "duration": 0.25,
      "velocity": 0.71,
      "hand": "right"
    },
    {
      "midi": 63,
      "time": 509.25,
      "duration": 0.25,
      "velocity": 0.71,
      "hand": "right"
    },
    {
      "midi": 65,
      "time": 509.25,
      "duration": 0.25,
      "velocity": 0.71,
      "hand": "right"
    },
    {
      "midi": 66,
      "time": 509.5,
      "duration": 0.5,
      "velocity": 0.71,
      "hand": "right"
    },
    {
      "midi": 68,
      "time": 509.5,
      "duration": 0.5,
      "velocity": 0.71,
      "hand": "right"
    },
    {
      "midi": 37,
      "time": 510,
      "duration": 0.25,
      "velocity": 0.71,
      "hand": "left"
    },
    {
      "midi": 66,
      "time": 510,
      "duration": 0.5,
      "velocity": 0.71,
      "hand": "right"
    },
    {
      "midi": 68,
      "time": 510,
      "duration": 1,
      "velocity": 0.71,
      "hand": "right"
    },
    {
      "midi": 44,
      "time": 510.25,
      "duration": 0.25,
      "velocity": 0.71,
      "hand": "left"
    },
    {
      "midi": 46,
      "time": 510.25,
      "duration": 0.25,
      "velocity": 0.71,
      "hand": "left"
    },
    {
      "midi": 48,
      "time": 510.5,
      "duration": 0.25,
      "velocity": 0.71,
      "hand": "left"
    },
    {
      "midi": 65,
      "time": 510.5,
      "duration": 0.5,
      "velocity": 0.71,
      "hand": "right"
    },
    {
      "midi": 49,
      "time": 510.75,
      "duration": 0.25,
      "velocity": 0.71,
      "hand": "left"
    },
    {
      "midi": 51,
      "time": 510.75,
      "duration": 0.25,
      "velocity": 0.71,
      "hand": "left"
    },
    {
      "midi": 53,
      "time": 511,
      "duration": 0.25,
      "velocity": 0.71,
      "hand": "left"
    },
    {
      "midi": 63,
      "time": 511,
      "duration": 0.5,
      "velocity": 0.71,
      "hand": "right"
    },
    {
      "midi": 68,
      "time": 511,
      "duration": 0.5,
      "velocity": 0.71,
      "hand": "right"
    },
    {
      "midi": 77,
      "time": 511,
      "duration": 0.5,
      "velocity": 0.71,
      "hand": "right"
    },
    {
      "midi": 54,
      "time": 511.25,
      "duration": 0.25,
      "velocity": 0.71,
      "hand": "left"
    },
    {
      "midi": 56,
      "time": 511.25,
      "duration": 0.25,
      "velocity": 0.71,
      "hand": "left"
    },
    {
      "midi": 58,
      "time": 511.5,
      "duration": 0.25,
      "velocity": 0.71,
      "hand": "left"
    },
    {
      "midi": 61,
      "time": 511.5,
      "duration": 1,
      "velocity": 0.71,
      "hand": "right"
    },
    {
      "midi": 68,
      "time": 511.5,
      "duration": 1,
      "velocity": 0.71,
      "hand": "right"
    },
    {
      "midi": 73,
      "time": 511.5,
      "duration": 1,
      "velocity": 0.71,
      "hand": "right"
    },
    {
      "midi": 56,
      "time": 511.75,
      "duration": 0.25,
      "velocity": 0.71,
      "hand": "left"
    },
    {
      "midi": 58,
      "time": 511.75,
      "duration": 0.25,
      "velocity": 0.71,
      "hand": "left"
    },
    {
      "midi": 59,
      "time": 512,
      "duration": 0.25,
      "velocity": 0.71,
      "hand": "left"
    },
    {
      "midi": 61,
      "time": 512.25,
      "duration": 0.25,
      "velocity": 0.71,
      "hand": "right"
    },
    {
      "midi": 63,
      "time": 512.25,
      "duration": 0.25,
      "velocity": 0.71,
      "hand": "right"
    },
    {
      "midi": 65,
      "time": 512.5,
      "duration": 0.5,
      "velocity": 0.71,
      "hand": "right"
    },
    {
      "midi": 71,
      "time": 512.5,
      "duration": 0.5,
      "velocity": 0.71,
      "hand": "right"
    },
    {
      "midi": 73,
      "time": 512.5,
      "duration": 0.5,
      "velocity": 0.71,
      "hand": "right"
    },
    {
      "midi": 82,
      "time": 512.5,
      "duration": 0.5,
      "velocity": 0.71,
      "hand": "right"
    },
    {
      "midi": 37,
      "time": 513,
      "duration": 0.25,
      "velocity": 0.71,
      "hand": "left"
    },
    {
      "midi": 71,
      "time": 513,
      "duration": 0.5,
      "velocity": 0.71,
      "hand": "right"
    },
    {
      "midi": 73,
      "time": 513,
      "duration": 0.5,
      "velocity": 0.71,
      "hand": "right"
    },
    {
      "midi": 82,
      "time": 513,
      "duration": 0.5,
      "velocity": 0.71,
      "hand": "right"
    },
    {
      "midi": 44,
      "time": 513.25,
      "duration": 0.25,
      "velocity": 0.71,
      "hand": "left"
    },
    {
      "midi": 49,
      "time": 513.25,
      "duration": 0.25,
      "velocity": 0.71,
      "hand": "left"
    },
    {
      "midi": 53,
      "time": 513.5,
      "duration": 0.25,
      "velocity": 0.71,
      "hand": "left"
    },
    {
      "midi": 71,
      "time": 513.5,
      "duration": 0.5,
      "velocity": 0.71,
      "hand": "right"
    },
    {
      "midi": 73,
      "time": 513.5,
      "duration": 0.5,
      "velocity": 0.71,
      "hand": "right"
    },
    {
      "midi": 80,
      "time": 513.5,
      "duration": 0.5,
      "velocity": 0.71,
      "hand": "right"
    },
    {
      "midi": 56,
      "time": 513.75,
      "duration": 0.25,
      "velocity": 0.71,
      "hand": "left"
    },
    {
      "midi": 61,
      "time": 513.75,
      "duration": 0.25,
      "velocity": 0.71,
      "hand": "right"
    },
    {
      "midi": 56,
      "time": 514,
      "duration": 0.25,
      "velocity": 0.71,
      "hand": "left"
    },
    {
      "midi": 71,
      "time": 514,
      "duration": 0.5,
      "velocity": 0.71,
      "hand": "right"
    },
    {
      "midi": 73,
      "time": 514,
      "duration": 0.5,
      "velocity": 0.71,
      "hand": "right"
    },
    {
      "midi": 79,
      "time": 514,
      "duration": 0.5,
      "velocity": 0.71,
      "hand": "right"
    },
    {
      "midi": 61,
      "time": 514.25,
      "duration": 0.25,
      "velocity": 0.71,
      "hand": "right"
    },
    {
      "midi": 65,
      "time": 514.25,
      "duration": 0.25,
      "velocity": 0.71,
      "hand": "right"
    },
    {
      "midi": 56,
      "time": 514.5,
      "duration": 0.25,
      "velocity": 0.71,
      "hand": "left"
    },
    {
      "midi": 71,
      "time": 514.5,
      "duration": 1.5,
      "velocity": 0.71,
      "hand": "right"
    },
    {
      "midi": 73,
      "time": 514.5,
      "duration": 1.5,
      "velocity": 0.71,
      "hand": "right"
    },
    {
      "midi": 80,
      "time": 514.5,
      "duration": 1.5,
      "velocity": 0.71,
      "hand": "right"
    },
    {
      "midi": 65,
      "time": 514.75,
      "duration": 0.25,
      "velocity": 0.71,
      "hand": "right"
    },
    {
      "midi": 68,
      "time": 514.75,
      "duration": 0.25,
      "velocity": 0.71,
      "hand": "right"
    },
    {
      "midi": 61,
      "time": 515,
      "duration": 0.25,
      "velocity": 0.71,
      "hand": "right"
    },
    {
      "midi": 53,
      "time": 515.25,
      "duration": 0.25,
      "velocity": 0.71,
      "hand": "left"
    },
    {
      "midi": 56,
      "time": 515.25,
      "duration": 0.25,
      "velocity": 0.71,
      "hand": "left"
    },
    {
      "midi": 49,
      "time": 515.5,
      "duration": 0.25,
      "velocity": 0.71,
      "hand": "left"
    },
    {
      "midi": 44,
      "time": 515.75,
      "duration": 0.25,
      "velocity": 0.71,
      "hand": "left"
    },
    {
      "midi": 56,
      "time": 515.75,
      "duration": 0.25,
      "velocity": 0.71,
      "hand": "left"
    },
    {
      "midi": 37,
      "time": 516,
      "duration": 0.25,
      "velocity": 0.71,
      "hand": "left"
    },
    {
      "midi": 65,
      "time": 516,
      "duration": 0.125,
      "velocity": 0.71,
      "hand": "right"
    },
    {
      "midi": 65,
      "time": 516,
      "duration": 1,
      "velocity": 0.71,
      "hand": "right"
    },
    {
      "midi": 71,
      "time": 516,
      "duration": 1,
      "velocity": 0.71,
      "hand": "right"
    },
    {
      "midi": 80,
      "time": 516,
      "duration": 1,
      "velocity": 0.71,
      "hand": "right"
    },
    {
      "midi": 44,
      "time": 516.25,
      "duration": 0.25,
      "velocity": 0.71,
      "hand": "left"
    },
    {
      "midi": 49,
      "time": 516.25,
      "duration": 0.25,
      "velocity": 0.71,
      "hand": "left"
    },
    {
      "midi": 56,
      "time": 516.5,
      "duration": 0.25,
      "velocity": 0.71,
      "hand": "left"
    },
    {
      "midi": 44,
      "time": 516.75,
      "duration": 0.25,
      "velocity": 0.71,
      "hand": "left"
    },
    {
      "midi": 49,
      "time": 516.75,
      "duration": 0.25,
      "velocity": 0.71,
      "hand": "left"
    },
    {
      "midi": 49,
      "time": 517,
      "duration": 0.25,
      "velocity": 0.71,
      "hand": "left"
    },
    {
      "midi": 65,
      "time": 517,
      "duration": 0.5,
      "velocity": 0.71,
      "hand": "right"
    },
    {
      "midi": 71,
      "time": 517,
      "duration": 0.5,
      "velocity": 0.71,
      "hand": "right"
    },
    {
      "midi": 73,
      "time": 517,
      "duration": 0.5,
      "velocity": 0.71,
      "hand": "right"
    },
    {
      "midi": 56,
      "time": 517.25,
      "duration": 0.25,
      "velocity": 0.71,
      "hand": "left"
    },
    {
      "midi": 61,
      "time": 517.25,
      "duration": 0.25,
      "velocity": 0.71,
      "hand": "right"
    },
    {
      "midi": 56,
      "time": 517.5,
      "duration": 0.25,
      "velocity": 0.71,
      "hand": "left"
    },
    {
      "midi": 65,
      "time": 517.5,
      "duration": 3,
      "velocity": 0.71,
      "hand": "right"
    },
    {
      "midi": 71,
      "time": 517.5,
      "duration": 3,
      "velocity": 0.71,
      "hand": "right"
    },
    {
      "midi": 73,
      "time": 517.5,
      "duration": 3,
      "velocity": 0.71,
      "hand": "right"
    },
    {
      "midi": 49,
      "time": 517.75,
      "duration": 0.25,
      "velocity": 0.71,
      "hand": "left"
    },
    {
      "midi": 56,
      "time": 517.75,
      "duration": 0.25,
      "velocity": 0.71,
      "hand": "left"
    },
    {
      "midi": 61,
      "time": 518,
      "duration": 0.25,
      "velocity": 0.71,
      "hand": "right"
    },
    {
      "midi": 61,
      "time": 518.25,
      "duration": 0.25,
      "velocity": 0.71,
      "hand": "right"
    },
    {
      "midi": 68,
      "time": 518.25,
      "duration": 0.25,
      "velocity": 0.71,
      "hand": "right"
    },
    {
      "midi": 56,
      "time": 518.5,
      "duration": 0.25,
      "velocity": 0.71,
      "hand": "left"
    },
    {
      "midi": 49,
      "time": 518.75,
      "duration": 0.25,
      "velocity": 0.71,
      "hand": "left"
    },
    {
      "midi": 56,
      "time": 518.75,
      "duration": 0.25,
      "velocity": 0.71,
      "hand": "left"
    },
    {
      "midi": 61,
      "time": 519,
      "duration": 0.25,
      "velocity": 0.71,
      "hand": "right"
    },
    {
      "midi": 49,
      "time": 519.25,
      "duration": 0.25,
      "velocity": 0.71,
      "hand": "left"
    },
    {
      "midi": 56,
      "time": 519.25,
      "duration": 0.25,
      "velocity": 0.71,
      "hand": "left"
    },
    {
      "midi": 44,
      "time": 519.5,
      "duration": 0.25,
      "velocity": 0.71,
      "hand": "left"
    },
    {
      "midi": 49,
      "time": 519.75,
      "duration": 0.25,
      "velocity": 0.71,
      "hand": "left"
    },
    {
      "midi": 56,
      "time": 519.75,
      "duration": 0.25,
      "velocity": 0.71,
      "hand": "left"
    },
    {
      "midi": 49,
      "time": 520,
      "duration": 0.25,
      "velocity": 0.71,
      "hand": "left"
    },
    {
      "midi": 37,
      "time": 520.25,
      "duration": 0.25,
      "velocity": 0.71,
      "hand": "left"
    },
    {
      "midi": 44,
      "time": 520.25,
      "duration": 0.25,
      "velocity": 0.71,
      "hand": "left"
    },
    {
      "midi": 30,
      "time": 520.5,
      "duration": 0.25,
      "velocity": 0.71,
      "hand": "left"
    },
    {
      "midi": 66,
      "time": 520.5,
      "duration": 1,
      "velocity": 0.71,
      "hand": "right"
    },
    {
      "midi": 71,
      "time": 520.5,
      "duration": 1,
      "velocity": 0.71,
      "hand": "right"
    },
    {
      "midi": 73,
      "time": 520.5,
      "duration": 1,
      "velocity": 0.71,
      "hand": "right"
    },
    {
      "midi": 49,
      "time": 520.75,
      "duration": 0.25,
      "velocity": 0.71,
      "hand": "left"
    },
    {
      "midi": 61,
      "time": 521,
      "duration": 0.25,
      "velocity": 0.71,
      "hand": "right"
    },
    {
      "midi": 49,
      "time": 521.25,
      "duration": 0.25,
      "velocity": 0.71,
      "hand": "left"
    },
    {
      "midi": 54,
      "time": 521.25,
      "duration": 0.25,
      "velocity": 0.71,
      "hand": "left"
    },
    {
      "midi": 58,
      "time": 521.5,
      "duration": 0.25,
      "velocity": 0.71,
      "hand": "left"
    },
    {
      "midi": 66,
      "time": 521.5,
      "duration": 0.5,
      "velocity": 0.71,
      "hand": "right"
    },
    {
      "midi": 70,
      "time": 521.5,
      "duration": 0.5,
      "velocity": 0.71,
      "hand": "right"
    },
    {
      "midi": 78,
      "time": 521.5,
      "duration": 0.5,
      "velocity": 0.71,
      "hand": "right"
    },
    {
      "midi": 49,
      "time": 521.75,
      "duration": 0.25,
      "velocity": 0.71,
      "hand": "left"
    },
    {
      "midi": 54,
      "time": 521.75,
      "duration": 0.25,
      "velocity": 0.71,
      "hand": "left"
    },
    {
      "midi": 39,
      "time": 522,
      "duration": 0.25,
      "velocity": 0.71,
      "hand": "left"
    },
    {
      "midi": 78,
      "time": 522,
      "duration": 0.25,
      "velocity": 0.71,
      "hand": "right"
    },
    {
      "midi": 46,
      "time": 522.25,
      "duration": 0.25,
      "velocity": 0.71,
      "hand": "left"
    },
    {
      "midi": 66,
      "time": 522.25,
      "duration": 0.25,
      "velocity": 0.71,
      "hand": "right"
    },
    {
      "midi": 70,
      "time": 522.25,
      "duration": 0.25,
      "velocity": 0.71,
      "hand": "right"
    },
    {
      "midi": 51,
      "time": 522.5,
      "duration": 0.25,
      "velocity": 0.71,
      "hand": "left"
    },
    {
      "midi": 58,
      "time": 522.5,
      "duration": 0.25,
      "velocity": 0.71,
      "hand": "left"
    },
    {
      "midi": 54,
      "time": 522.75,
      "duration": 0.25,
      "velocity": 0.71,
      "hand": "left"
    },
    {
      "midi": 63,
      "time": 522.75,
      "duration": 0.25,
      "velocity": 0.71,
      "hand": "right"
    },
    {
      "midi": 70,
      "time": 522.75,
      "duration": 0.25,
      "velocity": 0.71,
      "hand": "right"
    },
    {
      "midi": 51,
      "time": 523,
      "duration": 0.25,
      "velocity": 0.71,
      "hand": "left"
    },
    {
      "midi": 66,
      "time": 523,
      "duration": 0.25,
      "velocity": 0.71,
      "hand": "right"
    },
    {
      "midi": 46,
      "time": 523.25,
      "duration": 0.25,
      "velocity": 0.71,
      "hand": "left"
    },
    {
      "midi": 58,
      "time": 523.25,
      "duration": 0.25,
      "velocity": 0.71,
      "hand": "left"
    },
    {
      "midi": 72,
      "time": 523.25,
      "duration": 0.25,
      "velocity": 0.71,
      "hand": "right"
    },
    {
      "midi": 39,
      "time": 523.5,
      "duration": 0.25,
      "velocity": 0.71,
      "hand": "left"
    },
    {
      "midi": 66,
      "time": 523.5,
      "duration": 0.25,
      "velocity": 0.71,
      "hand": "right"
    },
    {
      "midi": 46,
      "time": 523.75,
      "duration": 0.25,
      "velocity": 0.71,
      "hand": "left"
    },
    {
      "midi": 61,
      "time": 523.75,
      "duration": 0.25,
      "velocity": 0.71,
      "hand": "right"
    },
    {
      "midi": 70,
      "time": 523.75,
      "duration": 0.25,
      "velocity": 0.71,
      "hand": "right"
    },
    {
      "midi": 51,
      "time": 524,
      "duration": 0.25,
      "velocity": 0.71,
      "hand": "left"
    },
    {
      "midi": 73,
      "time": 524,
      "duration": 0.25,
      "velocity": 0.71,
      "hand": "right"
    },
    {
      "midi": 58,
      "time": 524.25,
      "duration": 0.25,
      "velocity": 0.71,
      "hand": "left"
    },
    {
      "midi": 66,
      "time": 524.25,
      "duration": 0.25,
      "velocity": 0.71,
      "hand": "right"
    },
    {
      "midi": 70,
      "time": 524.25,
      "duration": 0.25,
      "velocity": 0.71,
      "hand": "right"
    },
    {
      "midi": 51,
      "time": 524.5,
      "duration": 0.25,
      "velocity": 0.71,
      "hand": "left"
    },
    {
      "midi": 66,
      "time": 524.5,
      "duration": 0.25,
      "velocity": 0.71,
      "hand": "right"
    },
    {
      "midi": 46,
      "time": 524.75,
      "duration": 0.25,
      "velocity": 0.71,
      "hand": "left"
    },
    {
      "midi": 70,
      "time": 524.75,
      "duration": 0.25,
      "velocity": 0.71,
      "hand": "right"
    },
    {
      "midi": 78,
      "time": 524.75,
      "duration": 0.25,
      "velocity": 0.71,
      "hand": "right"
    },
    {
      "midi": 44,
      "time": 525,
      "duration": 0.25,
      "velocity": 0.71,
      "hand": "left"
    },
    {
      "midi": 73,
      "time": 525,
      "duration": 0.25,
      "velocity": 0.71,
      "hand": "right"
    },
    {
      "midi": 51,
      "time": 525.25,
      "duration": 0.25,
      "velocity": 0.71,
      "hand": "left"
    },
    {
      "midi": 66,
      "time": 525.25,
      "duration": 0.25,
      "velocity": 0.71,
      "hand": "right"
    },
    {
      "midi": 77,
      "time": 525.25,
      "duration": 0.25,
      "velocity": 0.71,
      "hand": "right"
    },
    {
      "midi": 54,
      "time": 525.5,
      "duration": 0.25,
      "velocity": 0.71,
      "hand": "left"
    },
    {
      "midi": 70,
      "time": 525.5,
      "duration": 0.25,
      "velocity": 0.71,
      "hand": "right"
    },
    {
      "midi": 61,
      "time": 525.75,
      "duration": 0.25,
      "velocity": 0.71,
      "hand": "right"
    },
    {
      "midi": 66,
      "time": 525.75,
      "duration": 0.25,
      "velocity": 0.71,
      "hand": "right"
    },
    {
      "midi": 73,
      "time": 525.75,
      "duration": 0.25,
      "velocity": 0.71,
      "hand": "right"
    },
    {
      "midi": 54,
      "time": 526,
      "duration": 0.25,
      "velocity": 0.71,
      "hand": "left"
    },
    {
      "midi": 77,
      "time": 526,
      "duration": 0.25,
      "velocity": 0.71,
      "hand": "right"
    },
    {
      "midi": 51,
      "time": 526.25,
      "duration": 0.25,
      "velocity": 0.71,
      "hand": "left"
    },
    {
      "midi": 68,
      "time": 526.25,
      "duration": 0.25,
      "velocity": 0.71,
      "hand": "right"
    },
    {
      "midi": 72,
      "time": 526.25,
      "duration": 0.25,
      "velocity": 0.71,
      "hand": "right"
    },
    {
      "midi": 44,
      "time": 526.5,
      "duration": 0.25,
      "velocity": 0.71,
      "hand": "left"
    },
    {
      "midi": 66,
      "time": 526.5,
      "duration": 0.25,
      "velocity": 0.71,
      "hand": "right"
    },
    {
      "midi": 51,
      "time": 526.75,
      "duration": 0.25,
      "velocity": 0.71,
      "hand": "left"
    },
    {
      "midi": 68,
      "time": 526.75,
      "duration": 0.25,
      "velocity": 0.71,
      "hand": "right"
    },
    {
      "midi": 75,
      "time": 526.75,
      "duration": 0.25,
      "velocity": 0.71,
      "hand": "right"
    },
    {
      "midi": 54,
      "time": 527,
      "duration": 0.25,
      "velocity": 0.71,
      "hand": "left"
    },
    {
      "midi": 72,
      "time": 527,
      "duration": 0.25,
      "velocity": 0.71,
      "hand": "right"
    },
    {
      "midi": 60,
      "time": 527.25,
      "duration": 0.25,
      "velocity": 0.71,
      "hand": "right"
    },
    {
      "midi": 63,
      "time": 527.25,
      "duration": 0.25,
      "velocity": 0.71,
      "hand": "right"
    },
    {
      "midi": 72,
      "time": 527.25,
      "duration": 0.25,
      "velocity": 0.71,
      "hand": "right"
    },
    {
      "midi": 54,
      "time": 527.5,
      "duration": 0.25,
      "velocity": 0.71,
      "hand": "left"
    },
    {
      "midi": 66,
      "time": 527.5,
      "duration": 0.25,
      "velocity": 0.71,
      "hand": "right"
    },
    {
      "midi": 44,
      "time": 527.75,
      "duration": 0.25,
      "velocity": 0.71,
      "hand": "left"
    },
    {
      "midi": 60,
      "time": 527.75,
      "duration": 0.25,
      "velocity": 0.71,
      "hand": "right"
    },
    {
      "midi": 70,
      "time": 527.75,
      "duration": 0.25,
      "velocity": 0.71,
      "hand": "right"
    },
    {
      "midi": 37,
      "time": 528,
      "duration": 0.25,
      "velocity": 0.5,
      "hand": "left"
    },
    {
      "midi": 58,
      "time": 528,
      "duration": 0.5,
      "velocity": 0.71,
      "hand": "left"
    },
    {
      "midi": 65,
      "time": 528,
      "duration": 1,
      "velocity": 0.71,
      "hand": "right"
    },
    {
      "midi": 70,
      "time": 528,
      "duration": 0.5,
      "velocity": 0.71,
      "hand": "right"
    },
    {
      "midi": 44,
      "time": 528.25,
      "duration": 0.25,
      "velocity": 0.51,
      "hand": "left"
    },
    {
      "midi": 46,
      "time": 528.25,
      "duration": 0.25,
      "velocity": 0.53,
      "hand": "left"
    },
    {
      "midi": 48,
      "time": 528.5,
      "duration": 0.25,
      "velocity": 0.54,
      "hand": "left"
    },
    {
      "midi": 56,
      "time": 528.5,
      "duration": 0.5,
      "velocity": 0.71,
      "hand": "left"
    },
    {
      "midi": 68,
      "time": 528.5,
      "duration": 0.5,
      "velocity": 0.71,
      "hand": "right"
    },
    {
      "midi": 49,
      "time": 528.75,
      "duration": 0.25,
      "velocity": 0.56,
      "hand": "left"
    },
    {
      "midi": 51,
      "time": 528.75,
      "duration": 0.25,
      "velocity": 0.57,
      "hand": "left"
    },
    {
      "midi": 53,
      "time": 529,
      "duration": 0.25,
      "velocity": 0.58,
      "hand": "left"
    },
    {
      "midi": 77,
      "time": 529,
      "duration": 0.5,
      "velocity": 0.71,
      "hand": "right"
    },
    {
      "midi": 80,
      "time": 529,
      "duration": 0.5,
      "velocity": 0.71,
      "hand": "right"
    },
    {
      "midi": 89,
      "time": 529,
      "duration": 0.5,
      "velocity": 0.71,
      "hand": "right"
    },
    {
      "midi": 54,
      "time": 529.25,
      "duration": 0.25,
      "velocity": 0.6,
      "hand": "left"
    },
    {
      "midi": 56,
      "time": 529.25,
      "duration": 0.25,
      "velocity": 0.61,
      "hand": "left"
    },
    {
      "midi": 58,
      "time": 529.5,
      "duration": 0.25,
      "velocity": 0.63,
      "hand": "left"
    },
    {
      "midi": 77,
      "time": 529.5,
      "duration": 1,
      "velocity": 0.71,
      "hand": "right"
    },
    {
      "midi": 80,
      "time": 529.5,
      "duration": 1,
      "velocity": 0.71,
      "hand": "right"
    },
    {
      "midi": 89,
      "time": 529.5,
      "duration": 1,
      "velocity": 0.71,
      "hand": "right"
    },
    {
      "midi": 56,
      "time": 529.75,
      "duration": 0.25,
      "velocity": 0.65,
      "hand": "left"
    },
    {
      "midi": 58,
      "time": 529.75,
      "duration": 0.25,
      "velocity": 0.66,
      "hand": "left"
    },
    {
      "midi": 60,
      "time": 530,
      "duration": 0.25,
      "velocity": 0.68,
      "hand": "right"
    },
    {
      "midi": 61,
      "time": 530.25,
      "duration": 0.25,
      "velocity": 0.69,
      "hand": "right"
    },
    {
      "midi": 63,
      "time": 530.25,
      "duration": 0.25,
      "velocity": 0.71,
      "hand": "right"
    },
    {
      "midi": 65,
      "time": 530.5,
      "duration": 0.5,
      "velocity": 0.72,
      "hand": "right"
    },
    {
      "midi": 73,
      "time": 530.5,
      "duration": 0.5,
      "velocity": 0.71,
      "hand": "right"
    },
    {
      "midi": 80,
      "time": 530.5,
      "duration": 0.5,
      "velocity": 0.71,
      "hand": "right"
    },
    {
      "midi": 85,
      "time": 530.5,
      "duration": 0.5,
      "velocity": 0.71,
      "hand": "right"
    },
    {
      "midi": 37,
      "time": 531,
      "duration": 0.25,
      "velocity": 0.72,
      "hand": "left"
    },
    {
      "midi": 73,
      "time": 531,
      "duration": 0.5,
      "velocity": 0.71,
      "hand": "right"
    },
    {
      "midi": 77,
      "time": 531,
      "duration": 0.5,
      "velocity": 0.71,
      "hand": "right"
    },
    {
      "midi": 85,
      "time": 531,
      "duration": 0.5,
      "velocity": 0.71,
      "hand": "right"
    },
    {
      "midi": 44,
      "time": 531.25,
      "duration": 0.25,
      "velocity": 0.73,
      "hand": "left"
    },
    {
      "midi": 46,
      "time": 531.25,
      "duration": 0.25,
      "velocity": 0.75,
      "hand": "left"
    },
    {
      "midi": 48,
      "time": 531.5,
      "duration": 0.25,
      "velocity": 0.76,
      "hand": "left"
    },
    {
      "midi": 65,
      "time": 531.5,
      "duration": 0.5,
      "velocity": 0.71,
      "hand": "right"
    },
    {
      "midi": 49,
      "time": 531.75,
      "duration": 0.25,
      "velocity": 0.78,
      "hand": "left"
    },
    {
      "midi": 51,
      "time": 531.75,
      "duration": 0.25,
      "velocity": 0.8,
      "hand": "left"
    },
    {
      "midi": 53,
      "time": 532,
      "duration": 0.25,
      "velocity": 0.81,
      "hand": "left"
    },
    {
      "midi": 73,
      "time": 532,
      "duration": 0.5,
      "velocity": 0.71,
      "hand": "right"
    },
    {
      "midi": 82,
      "time": 532,
      "duration": 0.5,
      "velocity": 0.71,
      "hand": "right"
    },
    {
      "midi": 54,
      "time": 532.25,
      "duration": 0.25,
      "velocity": 0.83,
      "hand": "left"
    },
    {
      "midi": 56,
      "time": 532.25,
      "duration": 0.25,
      "velocity": 0.84,
      "hand": "left"
    },
    {
      "midi": 58,
      "time": 532.5,
      "duration": 0.25,
      "velocity": 0.86,
      "hand": "left"
    },
    {
      "midi": 72,
      "time": 532.5,
      "duration": 0.5,
      "velocity": 0.71,
      "hand": "right"
    },
    {
      "midi": 78,
      "time": 532.5,
      "duration": 1,
      "velocity": 0.71,
      "hand": "right"
    },
    {
      "midi": 82,
      "time": 532.5,
      "duration": 1,
      "velocity": 0.71,
      "hand": "right"
    },
    {
      "midi": 56,
      "time": 532.75,
      "duration": 0.25,
      "velocity": 0.87,
      "hand": "left"
    },
    {
      "midi": 60,
      "time": 532.75,
      "duration": 0.25,
      "velocity": 0.89,
      "hand": "right"
    },
    {
      "midi": 61,
      "time": 533,
      "duration": 0.25,
      "velocity": 0.9,
      "hand": "right"
    },
    {
      "midi": 70,
      "time": 533,
      "duration": 0.5,
      "velocity": 0.71,
      "hand": "right"
    },
    {
      "midi": 63,
      "time": 533.25,
      "duration": 0.25,
      "velocity": 0.91,
      "hand": "right"
    },
    {
      "midi": 65,
      "time": 533.25,
      "duration": 0.25,
      "velocity": 0.93,
      "hand": "right"
    },
    {
      "midi": 66,
      "time": 533.5,
      "duration": 0.5,
      "velocity": 0.94,
      "hand": "right"
    },
    {
      "midi": 68,
      "time": 533.5,
      "duration": 0.5,
      "velocity": 0.71,
      "hand": "right"
    },
    {
      "midi": 75,
      "time": 533.5,
      "duration": 0.5,
      "velocity": 0.71,
      "hand": "right"
    },
    {
      "midi": 80,
      "time": 533.5,
      "duration": 0.5,
      "velocity": 0.71,
      "hand": "right"
    },
    {
      "midi": 37,
      "time": 534,
      "duration": 0.25,
      "velocity": 0.94,
      "hand": "left"
    },
    {
      "midi": 68,
      "time": 534,
      "duration": 1,
      "velocity": 0.71,
      "hand": "right"
    },
    {
      "midi": 75,
      "time": 534,
      "duration": 0.5,
      "velocity": 0.71,
      "hand": "right"
    },
    {
      "midi": 77,
      "time": 534,
      "duration": 1,
      "velocity": 0.71,
      "hand": "right"
    },
    {
      "midi": 80,
      "time": 534,
      "duration": 1,
      "velocity": 0.71,
      "hand": "right"
    },
    {
      "midi": 44,
      "time": 534.25,
      "duration": 0.25,
      "velocity": 0.94,
      "hand": "left"
    },
    {
      "midi": 46,
      "time": 534.25,
      "duration": 0.25,
      "velocity": 0.94,
      "hand": "left"
    },
    {
      "midi": 48,
      "time": 534.5,
      "duration": 0.25,
      "velocity": 0.94,
      "hand": "left"
    },
    {
      "midi": 73,
      "time": 534.5,
      "duration": 0.5,
      "velocity": 0.71,
      "hand": "right"
    },
    {
      "midi": 49,
      "time": 534.75,
      "duration": 0.25,
      "velocity": 0.94,
      "hand": "left"
    },
    {
      "midi": 51,
      "time": 534.75,
      "duration": 0.25,
      "velocity": 0.94,
      "hand": "left"
    },
    {
      "midi": 53,
      "time": 535,
      "duration": 0.25,
      "velocity": 0.94,
      "hand": "left"
    },
    {
      "midi": 77,
      "time": 535,
      "duration": 0.5,
      "velocity": 0.71,
      "hand": "right"
    },
    {
      "midi": 80,
      "time": 535,
      "duration": 0.5,
      "velocity": 0.71,
      "hand": "right"
    },
    {
      "midi": 89,
      "time": 535,
      "duration": 0.5,
      "velocity": 0.71,
      "hand": "right"
    },
    {
      "midi": 54,
      "time": 535.25,
      "duration": 0.25,
      "velocity": 0.94,
      "hand": "left"
    },
    {
      "midi": 56,
      "time": 535.25,
      "duration": 0.25,
      "velocity": 0.94,
      "hand": "left"
    },
    {
      "midi": 58,
      "time": 535.5,
      "duration": 0.25,
      "velocity": 0.94,
      "hand": "left"
    },
    {
      "midi": 73,
      "time": 535.5,
      "duration": 1,
      "velocity": 0.71,
      "hand": "right"
    },
    {
      "midi": 80,
      "time": 535.5,
      "duration": 1,
      "velocity": 0.71,
      "hand": "right"
    },
    {
      "midi": 85,
      "time": 535.5,
      "duration": 1,
      "velocity": 0.71,
      "hand": "right"
    },
    {
      "midi": 56,
      "time": 535.75,
      "duration": 0.25,
      "velocity": 0.94,
      "hand": "left"
    },
    {
      "midi": 58,
      "time": 535.75,
      "duration": 0.25,
      "velocity": 0.94,
      "hand": "left"
    },
    {
      "midi": 60,
      "time": 536,
      "duration": 0.25,
      "velocity": 0.94,
      "hand": "right"
    },
    {
      "midi": 61,
      "time": 536.25,
      "duration": 0.25,
      "velocity": 0.94,
      "hand": "right"
    },
    {
      "midi": 63,
      "time": 536.25,
      "duration": 0.25,
      "velocity": 0.94,
      "hand": "right"
    },
    {
      "midi": 64,
      "time": 536.5,
      "duration": 0.5,
      "velocity": 0.94,
      "hand": "right"
    },
    {
      "midi": 79,
      "time": 536.5,
      "duration": 0.5,
      "velocity": 0.71,
      "hand": "right"
    },
    {
      "midi": 85,
      "time": 536.5,
      "duration": 0.5,
      "velocity": 0.71,
      "hand": "right"
    },
    {
      "midi": 94,
      "time": 536.5,
      "duration": 0.5,
      "velocity": 0.71,
      "hand": "right"
    },
    {
      "midi": 36,
      "time": 537,
      "duration": 0.25,
      "velocity": 0.94,
      "hand": "left"
    },
    {
      "midi": 82,
      "time": 537,
      "duration": 0.5,
      "velocity": 0.71,
      "hand": "right"
    },
    {
      "midi": 87,
      "time": 537,
      "duration": 0.5,
      "velocity": 0.71,
      "hand": "right"
    },
    {
      "midi": 94,
      "time": 537,
      "duration": 0.5,
      "velocity": 0.71,
      "hand": "right"
    },
    {
      "midi": 48,
      "time": 537.25,
      "duration": 0.25,
      "velocity": 0.94,
      "hand": "left"
    },
    {
      "midi": 51,
      "time": 537.25,
      "duration": 0.25,
      "velocity": 0.94,
      "hand": "left"
    },
    {
      "midi": 56,
      "time": 537.5,
      "duration": 0.25,
      "velocity": 0.94,
      "hand": "left"
    },
    {
      "midi": 80,
      "time": 537.5,
      "duration": 0.5,
      "velocity": 0.71,
      "hand": "right"
    },
    {
      "midi": 87,
      "time": 537.5,
      "duration": 0.5,
      "velocity": 0.71,
      "hand": "right"
    },
    {
      "midi": 92,
      "time": 537.5,
      "duration": 0.5,
      "velocity": 0.71,
      "hand": "right"
    },
    {
      "midi": 51,
      "time": 537.75,
      "duration": 0.25,
      "velocity": 0.94,
      "hand": "left"
    },
    {
      "midi": 56,
      "time": 537.75,
      "duration": 0.25,
      "velocity": 0.94,
      "hand": "left"
    },
    {
      "midi": 60,
      "time": 538,
      "duration": 0.25,
      "velocity": 0.94,
      "hand": "right"
    },
    {
      "midi": 79,
      "time": 538,
      "duration": 0.5,
      "velocity": 0.71,
      "hand": "right"
    },
    {
      "midi": 87,
      "time": 538,
      "duration": 0.5,
      "velocity": 0.71,
      "hand": "right"
    },
    {
      "midi": 91,
      "time": 538,
      "duration": 0.5,
      "velocity": 0.71,
      "hand": "right"
    },
    {
      "midi": 63,
      "time": 538.25,
      "duration": 0.25,
      "velocity": 0.94,
      "hand": "right"
    },
    {
      "midi": 68,
      "time": 538.25,
      "duration": 0.25,
      "velocity": 0.94,
      "hand": "right"
    },
    {
      "midi": 63,
      "time": 538.5,
      "duration": 0.25,
      "velocity": 0.94,
      "hand": "right"
    },
    {
      "midi": 80,
      "time": 538.5,
      "duration": 1,
      "velocity": 0.71,
      "hand": "right"
    },
    {
      "midi": 87,
      "time": 538.5,
      "duration": 1,
      "velocity": 0.71,
      "hand": "right"
    },
    {
      "midi": 92,
      "time": 538.5,
      "duration": 1,
      "velocity": 0.71,
      "hand": "right"
    },
    {
      "midi": 68,
      "time": 538.75,
      "duration": 0.25,
      "velocity": 0.94,
      "hand": "right"
    },
    {
      "midi": 75,
      "time": 538.75,
      "duration": 0.25,
      "velocity": 0.94,
      "hand": "right"
    },
    {
      "midi": 63,
      "time": 539,
      "duration": 0.25,
      "velocity": 0.94,
      "hand": "right"
    },
    {
      "midi": 56,
      "time": 539.25,
      "duration": 0.25,
      "velocity": 0.94,
      "hand": "left"
    },
    {
      "midi": 60,
      "time": 539.25,
      "duration": 0.25,
      "velocity": 0.94,
      "hand": "right"
    },
    {
      "midi": 51,
      "time": 539.5,
      "duration": 0.25,
      "velocity": 0.94,
      "hand": "left"
    },
    {
      "midi": 68,
      "time": 539.5,
      "duration": 0.5,
      "velocity": 0.71,
      "hand": "right"
    },
    {
      "midi": 80,
      "time": 539.5,
      "duration": 0.5,
      "velocity": 0.71,
      "hand": "right"
    },
    {
      "midi": 44,
      "time": 539.75,
      "duration": 0.25,
      "velocity": 0.94,
      "hand": "left"
    },
    {
      "midi": 48,
      "time": 539.75,
      "duration": 0.25,
      "velocity": 0.94,
      "hand": "left"
    },
    {
      "midi": 35,
      "time": 540,
      "duration": 0.5,
      "velocity": 0.94,
      "hand": "left"
    },
    {
      "midi": 68,
      "time": 540,
      "duration": 1,
      "velocity": 0.71,
      "hand": "right"
    },
    {
      "midi": 75,
      "time": 540,
      "duration": 1,
      "velocity": 0.71,
      "hand": "right"
    },
    {
      "midi": 80,
      "time": 540,
      "duration": 1,
      "velocity": 0.71,
      "hand": "right"
    },
    {
      "midi": 47,
      "time": 540.5,
      "duration": 0.25,
      "velocity": 0.94,
      "hand": "left"
    },
    {
      "midi": 49,
      "time": 540.75,
      "duration": 0.25,
      "velocity": 0.94,
      "hand": "left"
    },
    {
      "midi": 53,
      "time": 540.75,
      "duration": 0.25,
      "velocity": 0.94,
      "hand": "left"
    },
    {
      "midi": 63,
      "time": 541,
      "duration": 0.25,
      "velocity": 0.94,
      "hand": "right"
    },
    {
      "midi": 68,
      "time": 541,
      "duration": 0.5,
      "velocity": 0.71,
      "hand": "right"
    },
    {
      "midi": 73,
      "time": 541,
      "duration": 0.5,
      "velocity": 0.71,
      "hand": "right"
    },
    {
      "midi": 49,
      "time": 541.25,
      "duration": 0.25,
      "velocity": 0.94,
      "hand": "left"
    },
    {
      "midi": 53,
      "time": 541.25,
      "duration": 0.25,
      "velocity": 0.94,
      "hand": "left"
    },
    {
      "midi": 46,
      "time": 541.5,
      "duration": 0.25,
      "velocity": 0.94,
      "hand": "left"
    },
    {
      "midi": 68,
      "time": 541.5,
      "duration": 0.5,
      "velocity": 0.71,
      "hand": "right"
    },
    {
      "midi": 73,
      "time": 541.5,
      "duration": 1,
      "velocity": 0.71,
      "hand": "right"
    },
    {
      "midi": 49,
      "time": 541.75,
      "duration": 0.25,
      "velocity": 0.94,
      "hand": "left"
    },
    {
      "midi": 54,
      "time": 541.75,
      "duration": 0.25,
      "velocity": 0.94,
      "hand": "left"
    },
    {
      "midi": 63,
      "time": 542,
      "duration": 0.25,
      "velocity": 0.94,
      "hand": "right"
    },
    {
      "midi": 67,
      "time": 542,
      "duration": 0.5,
      "velocity": 0.71,
      "hand": "right"
    },
    {
      "midi": 49,
      "time": 542.25,
      "duration": 0.25,
      "velocity": 0.94,
      "hand": "left"
    },
    {
      "midi": 54,
      "time": 542.25,
      "duration": 0.25,
      "velocity": 0.94,
      "hand": "left"
    },
    {
      "midi": 61,
      "time": 542.5,
      "duration": 0.25,
      "velocity": 0.94,
      "hand": "right"
    },
    {
      "midi": 66,
      "time": 542.5,
      "duration": 0.5,
      "velocity": 0.71,
      "hand": "right"
    },
    {
      "midi": 73,
      "time": 542.5,
      "duration": 0.5,
      "velocity": 0.71,
      "hand": "right"
    },
    {
      "midi": 78,
      "time": 542.5,
      "duration": 0.5,
      "velocity": 0.71,
      "hand": "right"
    },
    {
      "midi": 49,
      "time": 542.75,
      "duration": 0.25,
      "velocity": 0.94,
      "hand": "left"
    },
    {
      "midi": 54,
      "time": 542.75,
      "duration": 0.25,
      "velocity": 0.94,
      "hand": "left"
    },
    {
      "midi": 44,
      "time": 543,
      "duration": 0.25,
      "velocity": 0.94,
      "hand": "left"
    },
    {
      "midi": 65,
      "time": 543,
      "duration": 1,
      "velocity": 0.71,
      "hand": "right"
    },
    {
      "midi": 71,
      "time": 543,
      "duration": 1,
      "velocity": 0.71,
      "hand": "right"
    },
    {
      "midi": 73,
      "time": 543,
      "duration": 1,
      "velocity": 0.71,
      "hand": "right"
    },
    {
      "midi": 77,
      "time": 543,
      "duration": 1,
      "velocity": 0.71,
      "hand": "right"
    },
    {
      "midi": 49,
      "time": 543.25,
      "duration": 0.25,
      "velocity": 0.94,
      "hand": "left"
    },
    {
      "midi": 53,
      "time": 543.25,
      "duration": 0.25,
      "velocity": 0.94,
      "hand": "left"
    },
    {
      "midi": 60,
      "time": 543.5,
      "duration": 0.25,
      "velocity": 0.94,
      "hand": "right"
    },
    {
      "midi": 49,
      "time": 543.75,
      "duration": 0.25,
      "velocity": 0.94,
      "hand": "left"
    },
    {
      "midi": 53,
      "time": 543.75,
      "duration": 0.25,
      "velocity": 0.94,
      "hand": "left"
    },
    {
      "midi": 61,
      "time": 544,
      "duration": 0.25,
      "velocity": 0.94,
      "hand": "right"
    },
    {
      "midi": 71,
      "time": 544,
      "duration": 0.5,
      "velocity": 0.71,
      "hand": "right"
    },
    {
      "midi": 73,
      "time": 544,
      "duration": 0.5,
      "velocity": 0.71,
      "hand": "right"
    },
    {
      "midi": 77,
      "time": 544,
      "duration": 0.5,
      "velocity": 0.71,
      "hand": "right"
    },
    {
      "midi": 83,
      "time": 544,
      "duration": 0.5,
      "velocity": 0.71,
      "hand": "right"
    },
    {
      "midi": 49,
      "time": 544.25,
      "duration": 0.25,
      "velocity": 0.94,
      "hand": "left"
    },
    {
      "midi": 53,
      "time": 544.25,
      "duration": 0.25,
      "velocity": 0.94,
      "hand": "left"
    },
    {
      "midi": 42,
      "time": 544.5,
      "duration": 0.25,
      "velocity": 0.94,
      "hand": "left"
    },
    {
      "midi": 71,
      "time": 544.5,
      "duration": 1,
      "velocity": 0.71,
      "hand": "right"
    },
    {
      "midi": 73,
      "time": 544.5,
      "duration": 1,
      "velocity": 0.71,
      "hand": "right"
    },
    {
      "midi": 78,
      "time": 544.5,
      "duration": 1,
      "velocity": 0.71,
      "hand": "right"
    },
    {
      "midi": 83,
      "time": 544.5,
      "duration": 1,
      "velocity": 0.71,
      "hand": "right"
    },
    {
      "midi": 49,
      "time": 544.75,
      "duration": 0.25,
      "velocity": 0.94,
      "hand": "left"
    },
    {
      "midi": 54,
      "time": 544.75,
      "duration": 0.25,
      "velocity": 0.94,
      "hand": "left"
    },
    {
      "midi": 63,
      "time": 545,
      "duration": 0.25,
      "velocity": 0.94,
      "hand": "right"
    },
    {
      "midi": 49,
      "time": 545.25,
      "duration": 0.25,
      "velocity": 0.94,
      "hand": "left"
    },
    {
      "midi": 54,
      "time": 545.25,
      "duration": 0.25,
      "velocity": 0.94,
      "hand": "left"
    },
    {
      "midi": 64,
      "time": 545.5,
      "duration": 0.25,
      "velocity": 0.94,
      "hand": "right"
    },
    {
      "midi": 70,
      "time": 545.5,
      "duration": 0.5,
      "velocity": 0.71,
      "hand": "right"
    },
    {
      "midi": 73,
      "time": 545.5,
      "duration": 0.5,
      "velocity": 0.71,
      "hand": "right"
    },
    {
      "midi": 82,
      "time": 545.5,
      "duration": 0.5,
      "velocity": 0.71,
      "hand": "right"
    },
    {
      "midi": 49,
      "time": 545.75,
      "duration": 0.25,
      "velocity": 0.94,
      "hand": "left"
    },
    {
      "midi": 54,
      "time": 545.75,
      "duration": 0.25,
      "velocity": 0.94,
      "hand": "left"
    },
    {
      "midi": 43,
      "time": 546,
      "duration": 0.25,
      "velocity": 0.94,
      "hand": "left"
    },
    {
      "midi": 70,
      "time": 546,
      "duration": 1,
      "velocity": 0.71,
      "hand": "right"
    },
    {
      "midi": 73,
      "time": 546,
      "duration": 1,
      "velocity": 0.71,
      "hand": "right"
    },
    {
      "midi": 75,
      "time": 546,
      "duration": 1,
      "velocity": 0.71,
      "hand": "right"
    },
    {
      "midi": 82,
      "time": 546,
      "duration": 1,
      "velocity": 0.71,
      "hand": "right"
    },
    {
      "midi": 49,
      "time": 546.25,
      "duration": 0.25,
      "velocity": 0.94,
      "hand": "left"
    },
    {
      "midi": 51,
      "time": 546.25,
      "duration": 0.25,
      "velocity": 0.94,
      "hand": "left"
    },
    {
      "midi": 57,
      "time": 546.5,
      "duration": 0.25,
      "velocity": 0.94,
      "hand": "left"
    },
    {
      "midi": 49,
      "time": 546.75,
      "duration": 0.25,
      "velocity": 0.94,
      "hand": "left"
    },
    {
      "midi": 51,
      "time": 546.75,
      "duration": 0.25,
      "velocity": 0.94,
      "hand": "left"
    },
    {
      "midi": 58,
      "time": 547,
      "duration": 0.25,
      "velocity": 0.94,
      "hand": "left"
    },
    {
      "midi": 63,
      "time": 547,
      "duration": 0.5,
      "velocity": 0.71,
      "hand": "right"
    },
    {
      "midi": 70,
      "time": 547,
      "duration": 0.5,
      "velocity": 0.71,
      "hand": "right"
    },
    {
      "midi": 73,
      "time": 547,
      "duration": 0.5,
      "velocity": 0.71,
      "hand": "right"
    },
    {
      "midi": 75,
      "time": 547,
      "duration": 0.5,
      "velocity": 0.71,
      "hand": "right"
    },
    {
      "midi": 46,
      "time": 547.25,
      "duration": 0.25,
      "velocity": 0.94,
      "hand": "left"
    },
    {
      "midi": 51,
      "time": 547.25,
      "duration": 0.25,
      "velocity": 0.94,
      "hand": "left"
    },
    {
      "midi": 44,
      "time": 547.5,
      "duration": 0.25,
      "velocity": 0.94,
      "hand": "left"
    },
    {
      "midi": 63,
      "time": 547.5,
      "duration": 1,
      "velocity": 0.71,
      "hand": "right"
    },
    {
      "midi": 70,
      "time": 547.5,
      "duration": 0.5,
      "velocity": 0.71,
      "hand": "right"
    },
    {
      "midi": 72,
      "time": 547.5,
      "duration": 1,
      "velocity": 0.71,
      "hand": "right"
    },
    {
      "midi": 75,
      "time": 547.5,
      "duration": 1,
      "velocity": 0.71,
      "hand": "right"
    },
    {
      "midi": 51,
      "time": 547.75,
      "duration": 0.25,
      "velocity": 0.94,
      "hand": "left"
    },
    {
      "midi": 56,
      "time": 547.75,
      "duration": 0.25,
      "velocity": 0.94,
      "hand": "left"
    },
    {
      "midi": 65,
      "time": 548,
      "duration": 0.25,
      "velocity": 0.94,
      "hand": "right"
    },
    {
      "midi": 69,
      "time": 548,
      "duration": 0.5,
      "velocity": 0.71,
      "hand": "right"
    },
    {
      "midi": 51,
      "time": 548.25,
      "duration": 0.25,
      "velocity": 0.94,
      "hand": "left"
    },
    {
      "midi": 56,
      "time": 548.25,
      "duration": 0.25,
      "velocity": 0.94,
      "hand": "left"
    },
    {
      "midi": 63,
      "time": 548.5,
      "duration": 0.25,
      "velocity": 0.94,
      "hand": "right"
    },
    {
      "midi": 68,
      "time": 548.5,
      "duration": 0.5,
      "velocity": 0.71,
      "hand": "right"
    },
    {
      "midi": 75,
      "time": 548.5,
      "duration": 0.5,
      "velocity": 0.71,
      "hand": "right"
    },
    {
      "midi": 80,
      "time": 548.5,
      "duration": 0.5,
      "velocity": 0.71,
      "hand": "right"
    },
    {
      "midi": 51,
      "time": 548.75,
      "duration": 0.25,
      "velocity": 0.94,
      "hand": "left"
    },
    {
      "midi": 56,
      "time": 548.75,
      "duration": 0.25,
      "velocity": 0.94,
      "hand": "left"
    },
    {
      "midi": 46,
      "time": 549,
      "duration": 0.25,
      "velocity": 0.94,
      "hand": "left"
    },
    {
      "midi": 68,
      "time": 549,
      "duration": 0.5,
      "velocity": 0.71,
      "hand": "right"
    },
    {
      "midi": 73,
      "time": 549,
      "duration": 1,
      "velocity": 0.71,
      "hand": "right"
    },
    {
      "midi": 75,
      "time": 549,
      "duration": 1,
      "velocity": 0.71,
      "hand": "right"
    },
    {
      "midi": 80,
      "time": 549,
      "duration": 0.5,
      "velocity": 0.71,
      "hand": "right"
    },
    {
      "midi": 51,
      "time": 549.25,
      "duration": 0.25,
      "velocity": 0.94,
      "hand": "left"
    },
    {
      "midi": 55,
      "time": 549.25,
      "duration": 0.25,
      "velocity": 0.94,
      "hand": "left"
    },
    {
      "midi": 62,
      "time": 549.5,
      "duration": 0.25,
      "velocity": 0.94,
      "hand": "right"
    },
    {
      "midi": 67,
      "time": 549.5,
      "duration": 0.5,
      "velocity": 0.71,
      "hand": "right"
    },
    {
      "midi": 79,
      "time": 549.5,
      "duration": 0.5,
      "velocity": 0.71,
      "hand": "right"
    },
    {
      "midi": 51,
      "time": 549.75,
      "duration": 0.25,
      "velocity": 0.94,
      "hand": "left"
    },
    {
      "midi": 55,
      "time": 549.75,
      "duration": 0.25,
      "velocity": 0.94,
      "hand": "left"
    },
    {
      "midi": 63,
      "time": 550,
      "duration": 0.25,
      "velocity": 0.94,
      "hand": "right"
    },
    {
      "midi": 73,
      "time": 550,
      "duration": 0.5,
      "velocity": 0.71,
      "hand": "right"
    },
    {
      "midi": 75,
      "time": 550,
      "duration": 0.5,
      "velocity": 0.71,
      "hand": "right"
    },
    {
      "midi": 79,
      "time": 550,
      "duration": 0.5,
      "velocity": 0.71,
      "hand": "right"
    },
    {
      "midi": 85,
      "time": 550,
      "duration": 0.5,
      "velocity": 0.71,
      "hand": "right"
    },
    {
      "midi": 51,
      "time": 550.25,
      "duration": 0.25,
      "velocity": 0.94,
      "hand": "left"
    },
    {
      "midi": 55,
      "time": 550.25,
      "duration": 0.25,
      "velocity": 0.94,
      "hand": "left"
    },
    {
      "midi": 44,
      "time": 550.5,
      "duration": 0.25,
      "velocity": 0.94,
      "hand": "left"
    },
    {
      "midi": 73,
      "time": 550.5,
      "duration": 1,
      "velocity": 0.71,
      "hand": "right"
    },
    {
      "midi": 75,
      "time": 550.5,
      "duration": 1,
      "velocity": 0.71,
      "hand": "right"
    },
    {
      "midi": 80,
      "time": 550.5,
      "duration": 1,
      "velocity": 0.71,
      "hand": "right"
    },
    {
      "midi": 85,
      "time": 550.5,
      "duration": 1,
      "velocity": 0.71,
      "hand": "right"
    },
    {
      "midi": 51,
      "time": 550.75,
      "duration": 0.25,
      "velocity": 0.94,
      "hand": "left"
    },
    {
      "midi": 56,
      "time": 550.75,
      "duration": 0.25,
      "velocity": 0.94,
      "hand": "left"
    },
    {
      "midi": 63,
      "time": 551,
      "duration": 0.25,
      "velocity": 0.94,
      "hand": "right"
    },
    {
      "midi": 51,
      "time": 551.25,
      "duration": 0.25,
      "velocity": 0.94,
      "hand": "left"
    },
    {
      "midi": 56,
      "time": 551.25,
      "duration": 0.25,
      "velocity": 0.94,
      "hand": "left"
    },
    {
      "midi": 68,
      "time": 551.5,
      "duration": 0.25,
      "velocity": 0.94,
      "hand": "right"
    },
    {
      "midi": 72,
      "time": 551.5,
      "duration": 0.5,
      "velocity": 0.71,
      "hand": "right"
    },
    {
      "midi": 75,
      "time": 551.5,
      "duration": 0.5,
      "velocity": 0.71,
      "hand": "right"
    },
    {
      "midi": 80,
      "time": 551.5,
      "duration": 0.5,
      "velocity": 0.71,
      "hand": "right"
    },
    {
      "midi": 84,
      "time": 551.5,
      "duration": 0.5,
      "velocity": 0.71,
      "hand": "right"
    },
    {
      "midi": 56,
      "time": 551.75,
      "duration": 0.25,
      "velocity": 0.94,
      "hand": "left"
    },
    {
      "midi": 63,
      "time": 551.75,
      "duration": 0.25,
      "velocity": 0.94,
      "hand": "right"
    },
    {
      "midi": 46,
      "time": 552,
      "duration": 0.25,
      "velocity": 0.94,
      "hand": "left"
    },
    {
      "midi": 72,
      "time": 552,
      "duration": 0.5,
      "velocity": 0.71,
      "hand": "right"
    },
    {
      "midi": 78,
      "time": 552,
      "duration": 0.5,
      "velocity": 0.71,
      "hand": "right"
    },
    {
      "midi": 84,
      "time": 552,
      "duration": 0.5,
      "velocity": 0.71,
      "hand": "right"
    },
    {
      "midi": 49,
      "time": 552.25,
      "duration": 0.25,
      "velocity": 0.94,
      "hand": "left"
    },
    {
      "midi": 54,
      "time": 552.25,
      "duration": 0.25,
      "velocity": 0.94,
      "hand": "left"
    },
    {
      "midi": 58,
      "time": 552.5,
      "duration": 0.25,
      "velocity": 0.94,
      "hand": "left"
    },
    {
      "midi": 70,
      "time": 552.5,
      "duration": 0.5,
      "velocity": 0.71,
      "hand": "right"
    },
    {
      "midi": 73,
      "time": 552.5,
      "duration": 0.5,
      "velocity": 0.71,
      "hand": "right"
    },
    {
      "midi": 78,
      "time": 552.5,
      "duration": 0.5,
      "velocity": 0.71,
      "hand": "right"
    },
    {
      "midi": 82,
      "time": 552.5,
      "duration": 0.5,
      "velocity": 0.71,
      "hand": "right"
    },
    {
      "midi": 49,
      "time": 552.75,
      "duration": 0.25,
      "velocity": 0.94,
      "hand": "left"
    },
    {
      "midi": 54,
      "time": 552.75,
      "duration": 0.25,
      "velocity": 0.94,
      "hand": "left"
    },
    {
      "midi": 61,
      "time": 553,
      "duration": 0.25,
      "velocity": 0.94,
      "hand": "right"
    },
    {
      "midi": 66,
      "time": 553,
      "duration": 0.5,
      "velocity": 0.71,
      "hand": "right"
    },
    {
      "midi": 73,
      "time": 553,
      "duration": 0.5,
      "velocity": 0.71,
      "hand": "right"
    },
    {
      "midi": 78,
      "time": 553,
      "duration": 0.5,
      "velocity": 0.71,
      "hand": "right"
    },
    {
      "midi": 49,
      "time": 553.25,
      "duration": 0.25,
      "velocity": 0.94,
      "hand": "left"
    },
    {
      "midi": 54,
      "time": 553.25,
      "duration": 0.25,
      "velocity": 0.94,
      "hand": "left"
    },
    {
      "midi": 34,
      "time": 553.5,
      "duration": 0.25,
      "velocity": 0.94,
      "hand": "left"
    },
    {
      "midi": 61,
      "time": 553.5,
      "duration": 0.5,
      "velocity": 0.71,
      "hand": "right"
    },
    {
      "midi": 66,
      "time": 553.5,
      "duration": 0.5,
      "velocity": 0.71,
      "hand": "right"
    },
    {
      "midi": 73,
      "time": 553.5,
      "duration": 0.5,
      "velocity": 0.71,
      "hand": "right"
    },
    {
      "midi": 42,
      "time": 553.75,
      "duration": 0.25,
      "velocity": 0.94,
      "hand": "left"
    },
    {
      "midi": 49,
      "time": 554,
      "duration": 0.25,
      "velocity": 0.94,
      "hand": "left"
    },
    {
      "midi": 58,
      "time": 554,
      "duration": 0.75,
      "velocity": 0.71,
      "hand": "left"
    },
    {
      "midi": 61,
      "time": 554,
      "duration": 0.75,
      "velocity": 0.71,
      "hand": "right"
    },
    {
      "midi": 70,
      "time": 554,
      "duration": 0.75,
      "velocity": 0.71,
      "hand": "right"
    },
    {
      "midi": 42,
      "time": 554.25,
      "duration": 0.25,
      "velocity": 0.94,
      "hand": "left"
    },
    {
      "midi": 49,
      "time": 554.25,
      "duration": 0.25,
      "velocity": 0.94,
      "hand": "left"
    },
    {
      "midi": 42,
      "time": 554.5,
      "duration": 0.25,
      "velocity": 0.94,
      "hand": "left"
    },
    {
      "midi": 42,
      "time": 554.75,
      "duration": 0.25,
      "velocity": 0.94,
      "hand": "left"
    },
    {
      "midi": 49,
      "time": 554.75,
      "duration": 0.25,
      "velocity": 0.94,
      "hand": "left"
    },
    {
      "midi": 56,
      "time": 554.75,
      "duration": 0.25,
      "velocity": 0.71,
      "hand": "left"
    },
    {
      "midi": 61,
      "time": 554.75,
      "duration": 0.25,
      "velocity": 0.71,
      "hand": "right"
    },
    {
      "midi": 68,
      "time": 554.75,
      "duration": 0.25,
      "velocity": 0.71,
      "hand": "right"
    },
    {
      "midi": 34,
      "time": 555,
      "duration": 0.25,
      "velocity": 0.94,
      "hand": "left"
    },
    {
      "midi": 56,
      "time": 555,
      "duration": 1,
      "velocity": 0.71,
      "hand": "left"
    },
    {
      "midi": 61,
      "time": 555,
      "duration": 1,
      "velocity": 0.71,
      "hand": "right"
    },
    {
      "midi": 68,
      "time": 555,
      "duration": 1,
      "velocity": 0.71,
      "hand": "right"
    },
    {
      "midi": 42,
      "time": 555.25,
      "duration": 0.25,
      "velocity": 0.94,
      "hand": "left"
    },
    {
      "midi": 49,
      "time": 555.5,
      "duration": 0.25,
      "velocity": 0.94,
      "hand": "left"
    },
    {
      "midi": 42,
      "time": 555.75,
      "duration": 0.25,
      "velocity": 0.94,
      "hand": "left"
    },
    {
      "midi": 49,
      "time": 555.75,
      "duration": 0.25,
      "velocity": 0.94,
      "hand": "left"
    },
    {
      "midi": 42,
      "time": 556,
      "duration": 0.25,
      "velocity": 0.94,
      "hand": "left"
    },
    {
      "midi": 54,
      "time": 556,
      "duration": 1,
      "velocity": 0.71,
      "hand": "left"
    },
    {
      "midi": 61,
      "time": 556,
      "duration": 1,
      "velocity": 0.71,
      "hand": "right"
    },
    {
      "midi": 66,
      "time": 556,
      "duration": 1,
      "velocity": 0.71,
      "hand": "right"
    },
    {
      "midi": 42,
      "time": 556.25,
      "duration": 0.25,
      "velocity": 0.94,
      "hand": "left"
    },
    {
      "midi": 49,
      "time": 556.25,
      "duration": 0.25,
      "velocity": 0.94,
      "hand": "left"
    },
    {
      "midi": 34,
      "time": 556.5,
      "duration": 0.25,
      "velocity": 0.94,
      "hand": "left"
    },
    {
      "midi": 42,
      "time": 556.75,
      "duration": 0.25,
      "velocity": 0.94,
      "hand": "left"
    },
    {
      "midi": 49,
      "time": 557,
      "duration": 0.25,
      "velocity": 0.94,
      "hand": "left"
    },
    {
      "midi": 53,
      "time": 557,
      "duration": 0.75,
      "velocity": 0.71,
      "hand": "left"
    },
    {
      "midi": 61,
      "time": 557,
      "duration": 0.75,
      "velocity": 0.71,
      "hand": "right"
    },
    {
      "midi": 65,
      "time": 557,
      "duration": 0.75,
      "velocity": 0.71,
      "hand": "right"
    },
    {
      "midi": 42,
      "time": 557.25,
      "duration": 0.25,
      "velocity": 0.94,
      "hand": "left"
    },
    {
      "midi": 49,
      "time": 557.25,
      "duration": 0.25,
      "velocity": 0.94,
      "hand": "left"
    },
    {
      "midi": 42,
      "time": 557.5,
      "duration": 0.25,
      "velocity": 0.94,
      "hand": "left"
    },
    {
      "midi": 42,
      "time": 557.75,
      "duration": 0.25,
      "velocity": 0.94,
      "hand": "left"
    },
    {
      "midi": 49,
      "time": 557.75,
      "duration": 0.25,
      "velocity": 0.94,
      "hand": "left"
    },
    {
      "midi": 54,
      "time": 557.75,
      "duration": 0.25,
      "velocity": 0.71,
      "hand": "left"
    },
    {
      "midi": 61,
      "time": 557.75,
      "duration": 0.25,
      "velocity": 0.71,
      "hand": "right"
    },
    {
      "midi": 66,
      "time": 557.75,
      "duration": 0.25,
      "velocity": 0.71,
      "hand": "right"
    },
    {
      "midi": 34,
      "time": 558,
      "duration": 0.25,
      "velocity": 0.94,
      "hand": "left"
    },
    {
      "midi": 55,
      "time": 558,
      "duration": 1,
      "velocity": 0.71,
      "hand": "left"
    },
    {
      "midi": 61,
      "time": 558,
      "duration": 1,
      "velocity": 0.71,
      "hand": "right"
    },
    {
      "midi": 65,
      "time": 558,
      "duration": 1,
      "velocity": 0.71,
      "hand": "right"
    },
    {
      "midi": 67,
      "time": 558,
      "duration": 1,
      "velocity": 0.71,
      "hand": "right"
    },
    {
      "midi": 41,
      "time": 558.25,
      "duration": 0.25,
      "velocity": 0.94,
      "hand": "left"
    },
    {
      "midi": 49,
      "time": 558.5,
      "duration": 0.25,
      "velocity": 0.94,
      "hand": "left"
    },
    {
      "midi": 41,
      "time": 558.75,
      "duration": 0.25,
      "velocity": 0.94,
      "hand": "left"
    },
    {
      "midi": 49,
      "time": 558.75,
      "duration": 0.25,
      "velocity": 0.94,
      "hand": "left"
    },
    {
      "midi": 41,
      "time": 559,
      "duration": 0.25,
      "velocity": 0.94,
      "hand": "left"
    },
    {
      "midi": 55,
      "time": 559,
      "duration": 0.5,
      "velocity": 0.71,
      "hand": "left"
    },
    {
      "midi": 65,
      "time": 559,
      "duration": 0.5,
      "velocity": 0.71,
      "hand": "right"
    },
    {
      "midi": 67,
      "time": 559,
      "duration": 0.5,
      "velocity": 0.71,
      "hand": "right"
    },
    {
      "midi": 41,
      "time": 559.25,
      "duration": 0.25,
      "velocity": 0.94,
      "hand": "left"
    },
    {
      "midi": 49,
      "time": 559.25,
      "duration": 0.25,
      "velocity": 0.94,
      "hand": "left"
    },
    {
      "midi": 36,
      "time": 559.5,
      "duration": 0.5,
      "velocity": 0.71,
      "hand": "left"
    },
    {
      "midi": 56,
      "time": 559.5,
      "duration": 1,
      "velocity": 0.71,
      "hand": "left"
    },
    {
      "midi": 65,
      "time": 559.5,
      "duration": 1,
      "velocity": 0.71,
      "hand": "right"
    },
    {
      "midi": 68,
      "time": 559.5,
      "duration": 1,
      "velocity": 0.71,
      "hand": "right"
    },
    {
      "midi": 41,
      "time": 559.75,
      "duration": 0.25,
      "velocity": 0.71,
      "hand": "left"
    },
    {
      "midi": 48,
      "time": 560,
      "duration": 0.25,
      "velocity": 0.71,
      "hand": "left"
    },
    {
      "midi": 49,
      "time": 560.25,
      "duration": 0.25,
      "velocity": 0.75,
      "hand": "left"
    },
    {
      "midi": 50,
      "time": 560.25,
      "duration": 0.25,
      "velocity": 0.8,
      "hand": "left"
    },
    {
      "midi": 51,
      "time": 560.5,
      "duration": 0.25,
      "velocity": 0.84,
      "hand": "left"
    },
    {
      "midi": 57,
      "time": 560.5,
      "duration": 0.5,
      "velocity": 0.71,
      "hand": "left"
    },
    {
      "midi": 65,
      "time": 560.5,
      "duration": 0.5,
      "velocity": 0.71,
      "hand": "right"
    },
    {
      "midi": 69,
      "time": 560.5,
      "duration": 0.5,
      "velocity": 0.71,
      "hand": "right"
    },
    {
      "midi": 52,
      "time": 560.75,
      "duration": 0.25,
      "velocity": 0.89,
      "hand": "left"
    },
    {
      "midi": 53,
      "time": 560.75,
      "duration": 0.25,
      "velocity": 0.93,
      "hand": "left"
    },
    {
      "midi": 37,
      "time": 561,
      "duration": 0.5,
      "velocity": 0.71,
      "hand": "left"
    },
    {
      "midi": 60,
      "time": 561,
      "duration": 1,
      "velocity": 0.71,
      "hand": "right"
    },
    {
      "midi": 65,
      "time": 561,
      "duration": 1,
      "velocity": 0.71,
      "hand": "right"
    },
    {
      "midi": 72,
      "time": 561,
      "duration": 1,
      "velocity": 0.71,
      "hand": "right"
    },
    {
      "midi": 46,
      "time": 561.25,
      "duration": 0.25,
      "velocity": 0.93,
      "hand": "left"
    },
    {
      "midi": 48,
      "time": 561.5,
      "duration": 0.25,
      "velocity": 0.93,
      "hand": "left"
    },
    {
      "midi": 49,
      "time": 561.75,
      "duration": 0.25,
      "velocity": 0.94,
      "hand": "left"
    },
    {
      "midi": 50,
      "time": 561.75,
      "duration": 0.25,
      "velocity": 0.96,
      "hand": "left"
    },
    {
      "midi": 51,
      "time": 562,
      "duration": 0.25,
      "velocity": 0.97,
      "hand": "left"
    },
    {
      "midi": 58,
      "time": 562,
      "duration": 0.5,
      "velocity": 0.71,
      "hand": "left"
    },
    {
      "midi": 65,
      "time": 562,
      "duration": 0.5,
      "velocity": 0.71,
      "hand": "right"
    },
    {
      "midi": 70,
      "time": 562,
      "duration": 0.5,
      "velocity": 0.71,
      "hand": "right"
    },
    {
      "midi": 52,
      "time": 562.25,
      "duration": 0.25,
      "velocity": 0.98,
      "hand": "left"
    },
    {
      "midi": 53,
      "time": 562.25,
      "duration": 0.25,
      "velocity": 1,
      "hand": "left"
    },
    {
      "midi": 40,
      "time": 562.5,
      "duration": 0.5,
      "velocity": 1,
      "hand": "left"
    },
    {
      "midi": 61,
      "time": 562.5,
      "duration": 0.5,
      "velocity": 0.71,
      "hand": "right"
    },
    {
      "midi": 67,
      "time": 562.5,
      "duration": 0.5,
      "velocity": 0.71,
      "hand": "right"
    },
    {
      "midi": 73,
      "time": 562.5,
      "duration": 0.5,
      "velocity": 0.71,
      "hand": "right"
    },
    {
      "midi": 48,
      "time": 562.75,
      "duration": 0.25,
      "velocity": 1,
      "hand": "left"
    },
    {
      "midi": 50,
      "time": 563,
      "duration": 0.25,
      "velocity": 1,
      "hand": "left"
    },
    {
      "midi": 59,
      "time": 563,
      "duration": 0.5,
      "velocity": 0.71,
      "hand": "left"
    },
    {
      "midi": 67,
      "time": 563,
      "duration": 0.5,
      "velocity": 0.71,
      "hand": "right"
    },
    {
      "midi": 71,
      "time": 563,
      "duration": 0.5,
      "velocity": 0.71,
      "hand": "right"
    },
    {
      "midi": 51,
      "time": 563.25,
      "duration": 0.25,
      "velocity": 1,
      "hand": "left"
    },
    {
      "midi": 52,
      "time": 563.25,
      "duration": 0.25,
      "velocity": 1,
      "hand": "left"
    },
    {
      "midi": 53,
      "time": 563.5,
      "duration": 0.25,
      "velocity": 1,
      "hand": "left"
    },
    {
      "midi": 60,
      "time": 563.5,
      "duration": 0.5,
      "velocity": 0.71,
      "hand": "right"
    },
    {
      "midi": 67,
      "time": 563.5,
      "duration": 0.5,
      "velocity": 0.71,
      "hand": "right"
    },
    {
      "midi": 72,
      "time": 563.5,
      "duration": 0.5,
      "velocity": 0.71,
      "hand": "right"
    },
    {
      "midi": 54,
      "time": 563.75,
      "duration": 0.25,
      "velocity": 1,
      "hand": "left"
    },
    {
      "midi": 55,
      "time": 563.75,
      "duration": 0.25,
      "velocity": 1,
      "hand": "left"
    },
    {
      "midi": 41,
      "time": 564,
      "duration": 0.5,
      "velocity": 1,
      "hand": "left"
    },
    {
      "midi": 63,
      "time": 564,
      "duration": 1,
      "velocity": 0.71,
      "hand": "right"
    },
    {
      "midi": 68,
      "time": 564,
      "duration": 1,
      "velocity": 0.71,
      "hand": "right"
    },
    {
      "midi": 75,
      "time": 564,
      "duration": 1,
      "velocity": 0.71,
      "hand": "right"
    },
    {
      "midi": 49,
      "time": 564.25,
      "duration": 0.25,
      "velocity": 1,
      "hand": "left"
    },
    {
      "midi": 51,
      "time": 564.5,
      "duration": 0.25,
      "velocity": 1,
      "hand": "left"
    },
    {
      "midi": 52,
      "time": 564.75,
      "duration": 0.25,
      "velocity": 1,
      "hand": "left"
    },
    {
      "midi": 53,
      "time": 564.75,
      "duration": 0.25,
      "velocity": 1,
      "hand": "left"
    },
    {
      "midi": 54,
      "time": 565,
      "duration": 0.25,
      "velocity": 1,
      "hand": "left"
    },
    {
      "midi": 61,
      "time": 565,
      "duration": 0.5,
      "velocity": 0.71,
      "hand": "right"
    },
    {
      "midi": 68,
      "time": 565,
      "duration": 0.5,
      "velocity": 0.71,
      "hand": "right"
    },
    {
      "midi": 73,
      "time": 565,
      "duration": 0.5,
      "velocity": 0.71,
      "hand": "right"
    },
    {
      "midi": 55,
      "time": 565.25,
      "duration": 0.25,
      "velocity": 1,
      "hand": "left"
    },
    {
      "midi": 56,
      "time": 565.25,
      "duration": 0.25,
      "velocity": 1,
      "hand": "left"
    },
    {
      "midi": 43,
      "time": 565.5,
      "duration": 0.5,
      "velocity": 1,
      "hand": "left"
    },
    {
      "midi": 52,
      "time": 565.75,
      "duration": 0.25,
      "velocity": 1,
      "hand": "left"
    },
    {
      "midi": 53,
      "time": 566,
      "duration": 0.25,
      "velocity": 1,
      "hand": "left"
    },
    {
      "midi": 63,
      "time": 566,
      "duration": 0.5,
      "velocity": 0.71,
      "hand": "right"
    },
    {
      "midi": 72,
      "time": 566,
      "duration": 0.5,
      "velocity": 0.71,
      "hand": "right"
    },
    {
      "midi": 75,
      "time": 566,
      "duration": 0.5,
      "velocity": 0.71,
      "hand": "right"
    },
    {
      "midi": 54,
      "time": 566.25,
      "duration": 0.25,
      "velocity": 1,
      "hand": "left"
    },
    {
      "midi": 55,
      "time": 566.25,
      "duration": 0.25,
      "velocity": 1,
      "hand": "left"
    },
    {
      "midi": 56,
      "time": 566.5,
      "duration": 0.25,
      "velocity": 1,
      "hand": "left"
    },
    {
      "midi": 64,
      "time": 566.5,
      "duration": 0.5,
      "velocity": 0.71,
      "hand": "right"
    },
    {
      "midi": 72,
      "time": 566.5,
      "duration": 0.5,
      "velocity": 0.71,
      "hand": "right"
    },
    {
      "midi": 76,
      "time": 566.5,
      "duration": 0.5,
      "velocity": 0.71,
      "hand": "right"
    },
    {
      "midi": 57,
      "time": 566.75,
      "duration": 0.25,
      "velocity": 1,
      "hand": "left"
    },
    {
      "midi": 58,
      "time": 566.75,
      "duration": 0.25,
      "velocity": 1,
      "hand": "left"
    },
    {
      "midi": 44,
      "time": 567,
      "duration": 0.25,
      "velocity": 0.94,
      "hand": "left"
    },
    {
      "midi": 65,
      "time": 567,
      "duration": 0.5,
      "velocity": 0.71,
      "hand": "right"
    },
    {
      "midi": 72,
      "time": 567,
      "duration": 0.25,
      "velocity": 0.71,
      "hand": "right"
    },
    {
      "midi": 77,
      "time": 567,
      "duration": 0.5,
      "velocity": 0.71,
      "hand": "right"
    },
    {
      "midi": 53,
      "time": 567.25,
      "duration": 0.25,
      "velocity": 0.94,
      "hand": "left"
    },
    {
      "midi": 56,
      "time": 567.25,
      "duration": 0.25,
      "velocity": 0.94,
      "hand": "left"
    },
    {
      "midi": 73,
      "time": 567.25,
      "duration": 0.25,
      "velocity": 0.71,
      "hand": "right"
    },
    {
      "midi": 75,
      "time": 567.25,
      "duration": 0.25,
      "velocity": 0.71,
      "hand": "right"
    },
    {
      "midi": 61,
      "time": 567.5,
      "duration": 0.25,
      "velocity": 0.94,
      "hand": "right"
    },
    {
      "midi": 70,
      "time": 567.5,
      "duration": 0.5,
      "velocity": 0.71,
      "hand": "right"
    },
    {
      "midi": 73,
      "time": 567.5,
      "duration": 0.5,
      "velocity": 0.71,
      "hand": "right"
    },
    {
      "midi": 82,
      "time": 567.5,
      "duration": 0.5,
      "velocity": 0.71,
      "hand": "right"
    },
    {
      "midi": 56,
      "time": 567.75,
      "duration": 0.25,
      "velocity": 0.94,
      "hand": "left"
    },
    {
      "midi": 65,
      "time": 567.75,
      "duration": 0.25,
      "velocity": 0.94,
      "hand": "right"
    },
    {
      "midi": 61,
      "time": 568,
      "duration": 0.25,
      "velocity": 0.94,
      "hand": "right"
    },
    {
      "midi": 68,
      "time": 568,
      "duration": 0.5,
      "velocity": 0.71,
      "hand": "right"
    },
    {
      "midi": 77,
      "time": 568,
      "duration": 0.5,
      "velocity": 0.71,
      "hand": "right"
    },
    {
      "midi": 80,
      "time": 568,
      "duration": 0.5,
      "velocity": 0.71,
      "hand": "right"
    },
    {
      "midi": 53,
      "time": 568.25,
      "duration": 0.25,
      "velocity": 0.94,
      "hand": "left"
    },
    {
      "midi": 56,
      "time": 568.25,
      "duration": 0.25,
      "velocity": 0.94,
      "hand": "left"
    },
    {
      "midi": 32,
      "time": 568.5,
      "duration": 0.25,
      "velocity": 0.94,
      "hand": "left"
    },
    {
      "midi": 66,
      "time": 568.5,
      "duration": 1,
      "velocity": 0.71,
      "hand": "right"
    },
    {
      "midi": 72,
      "time": 568.5,
      "duration": 1,
      "velocity": 0.71,
      "hand": "right"
    },
    {
      "midi": 80,
      "time": 568.5,
      "duration": 1,
      "velocity": 0.71,
      "hand": "right"
    },
    {
      "midi": 44,
      "time": 568.75,
      "duration": 0.25,
      "velocity": 0.94,
      "hand": "left"
    },
    {
      "midi": 51,
      "time": 568.75,
      "duration": 0.25,
      "velocity": 0.94,
      "hand": "left"
    },
    {
      "midi": 60,
      "time": 569,
      "duration": 0.25,
      "velocity": 0.94,
      "hand": "right"
    },
    {
      "midi": 56,
      "time": 569.25,
      "duration": 0.25,
      "velocity": 0.94,
      "hand": "left"
    },
    {
      "midi": 66,
      "time": 569.25,
      "duration": 0.25,
      "velocity": 0.94,
      "hand": "right"
    },
    {
      "midi": 60,
      "time": 569.5,
      "duration": 0.25,
      "velocity": 0.94,
      "hand": "right"
    },
    {
      "midi": 66,
      "time": 569.5,
      "duration": 0.5,
      "velocity": 0.71,
      "hand": "right"
    },
    {
      "midi": 72,
      "time": 569.5,
      "duration": 0.5,
      "velocity": 0.71,
      "hand": "right"
    },
    {
      "midi": 78,
      "time": 569.5,
      "duration": 0.5,
      "velocity": 0.71,
      "hand": "right"
    },
    {
      "midi": 51,
      "time": 569.75,
      "duration": 0.25,
      "velocity": 0.94,
      "hand": "left"
    },
    {
      "midi": 56,
      "time": 569.75,
      "duration": 0.25,
      "velocity": 0.94,
      "hand": "left"
    },
    {
      "midi": 37,
      "time": 570,
      "duration": 0.5,
      "velocity": 0.94,
      "hand": "left"
    },
    {
      "midi": 65,
      "time": 570,
      "duration": 0.5,
      "velocity": 0.71,
      "hand": "right"
    },
    {
      "midi": 73,
      "time": 570,
      "duration": 0.5,
      "velocity": 0.71,
      "hand": "right"
    },
    {
      "midi": 77,
      "time": 570,
      "duration": 0.5,
      "velocity": 0.71,
      "hand": "right"
    },
    {
      "midi": 44,
      "time": 570.5,
      "duration": 0.25,
      "velocity": 0.94,
      "hand": "left"
    },
    {
      "midi": 49,
      "time": 570.5,
      "duration": 0.25,
      "velocity": 0.94,
      "hand": "left"
    },
    {
      "midi": 49,
      "time": 570.75,
      "duration": 0.25,
      "velocity": 0.94,
      "hand": "left"
    },
    {
      "midi": 56,
      "time": 570.75,
      "duration": 0.25,
      "velocity": 0.94,
      "hand": "left"
    },
    {
      "midi": 65,
      "time": 570.75,
      "duration": 0.25,
      "velocity": 0.71,
      "hand": "right"
    },
    {
      "midi": 68,
      "time": 570.75,
      "duration": 0.25,
      "velocity": 0.71,
      "hand": "right"
    },
    {
      "midi": 61,
      "time": 571,
      "duration": 0.25,
      "velocity": 0.94,
      "hand": "right"
    },
    {
      "midi": 77,
      "time": 571,
      "duration": 0.25,
      "velocity": 0.71,
      "hand": "right"
    },
    {
      "midi": 61,
      "time": 571.25,
      "duration": 0.25,
      "velocity": 0.94,
      "hand": "right"
    },
    {
      "midi": 68,
      "time": 571.25,
      "duration": 0.25,
      "velocity": 0.94,
      "hand": "right"
    },
    {
      "midi": 77,
      "time": 571.25,
      "duration": 0.25,
      "velocity": 0.71,
      "hand": "right"
    },
    {
      "midi": 80,
      "time": 571.25,
      "duration": 0.25,
      "velocity": 0.71,
      "hand": "right"
    },
    {
      "midi": 73,
      "time": 571.5,
      "duration": 0.25,
      "velocity": 0.94,
      "hand": "right"
    },
    {
      "midi": 89,
      "time": 571.5,
      "duration": 0.25,
      "velocity": 0.71,
      "hand": "right"
    },
    {
      "midi": 61,
      "time": 571.75,
      "duration": 0.25,
      "velocity": 0.94,
      "hand": "right"
    },
    {
      "midi": 68,
      "time": 571.75,
      "duration": 0.25,
      "velocity": 0.94,
      "hand": "right"
    },
    {
      "midi": 77,
      "time": 571.75,
      "duration": 0.25,
      "velocity": 0.71,
      "hand": "right"
    },
    {
      "midi": 80,
      "time": 571.75,
      "duration": 0.25,
      "velocity": 0.71,
      "hand": "right"
    },
    {
      "midi": 61,
      "time": 572,
      "duration": 0.25,
      "velocity": 0.94,
      "hand": "right"
    },
    {
      "midi": 77,
      "time": 572,
      "duration": 0.25,
      "velocity": 0.71,
      "hand": "right"
    },
    {
      "midi": 49,
      "time": 572.25,
      "duration": 0.25,
      "velocity": 0.94,
      "hand": "left"
    },
    {
      "midi": 56,
      "time": 572.25,
      "duration": 0.25,
      "velocity": 0.94,
      "hand": "left"
    },
    {
      "midi": 65,
      "time": 572.25,
      "duration": 0.25,
      "velocity": 0.71,
      "hand": "right"
    },
    {
      "midi": 68,
      "time": 572.25,
      "duration": 0.25,
      "velocity": 0.71,
      "hand": "right"
    },
    {
      "midi": 49,
      "time": 572.5,
      "duration": 0.25,
      "velocity": 0.94,
      "hand": "left"
    },
    {
      "midi": 65,
      "time": 572.5,
      "duration": 0.25,
      "velocity": 0.71,
      "hand": "right"
    },
    {
      "midi": 37,
      "time": 572.75,
      "duration": 0.25,
      "velocity": 0.94,
      "hand": "left"
    },
    {
      "midi": 44,
      "time": 572.75,
      "duration": 0.25,
      "velocity": 0.94,
      "hand": "left"
    },
    {
      "midi": 53,
      "time": 572.75,
      "duration": 0.25,
      "velocity": 0.71,
      "hand": "left"
    },
    {
      "midi": 56,
      "time": 572.75,
      "duration": 0.25,
      "velocity": 0.71,
      "hand": "left"
    },
    {
      "midi": 37,
      "time": 573,
      "duration": 0.5,
      "velocity": 0.94,
      "hand": "left"
    },
    {
      "midi": 65,
      "time": 573,
      "duration": 0.25,
      "velocity": 0.71,
      "hand": "right"
    },
    {
      "midi": 53,
      "time": 573.25,
      "duration": 0.25,
      "velocity": 0.71,
      "hand": "left"
    },
    {
      "midi": 57,
      "time": 573.25,
      "duration": 0.25,
      "velocity": 0.71,
      "hand": "left"
    },
    {
      "midi": 45,
      "time": 573.5,
      "duration": 0.25,
      "velocity": 0.94,
      "hand": "left"
    },
    {
      "midi": 49,
      "time": 573.5,
      "duration": 0.25,
      "velocity": 0.94,
      "hand": "left"
    },
    {
      "midi": 65,
      "time": 573.5,
      "duration": 0.25,
      "velocity": 0.71,
      "hand": "right"
    },
    {
      "midi": 49,
      "time": 573.75,
      "duration": 0.25,
      "velocity": 0.94,
      "hand": "left"
    },
    {
      "midi": 57,
      "time": 573.75,
      "duration": 0.25,
      "velocity": 0.94,
      "hand": "left"
    },
    {
      "midi": 65,
      "time": 573.75,
      "duration": 0.25,
      "velocity": 0.71,
      "hand": "right"
    },
    {
      "midi": 69,
      "time": 573.75,
      "duration": 0.25,
      "velocity": 0.71,
      "hand": "right"
    },
    {
      "midi": 61,
      "time": 574,
      "duration": 0.25,
      "velocity": 0.94,
      "hand": "right"
    },
    {
      "midi": 77,
      "time": 574,
      "duration": 0.25,
      "velocity": 0.71,
      "hand": "right"
    },
    {
      "midi": 61,
      "time": 574.25,
      "duration": 0.25,
      "velocity": 0.94,
      "hand": "right"
    },
    {
      "midi": 69,
      "time": 574.25,
      "duration": 0.25,
      "velocity": 0.94,
      "hand": "right"
    },
    {
      "midi": 77,
      "time": 574.25,
      "duration": 0.25,
      "velocity": 0.71,
      "hand": "right"
    },
    {
      "midi": 81,
      "time": 574.25,
      "duration": 0.25,
      "velocity": 0.71,
      "hand": "right"
    },
    {
      "midi": 73,
      "time": 574.5,
      "duration": 0.25,
      "velocity": 0.94,
      "hand": "right"
    },
    {
      "midi": 89,
      "time": 574.5,
      "duration": 0.25,
      "velocity": 0.71,
      "hand": "right"
    },
    {
      "midi": 61,
      "time": 574.75,
      "duration": 0.25,
      "velocity": 0.94,
      "hand": "right"
    },
    {
      "midi": 69,
      "time": 574.75,
      "duration": 0.25,
      "velocity": 0.94,
      "hand": "right"
    },
    {
      "midi": 77,
      "time": 574.75,
      "duration": 0.25,
      "velocity": 0.71,
      "hand": "right"
    },
    {
      "midi": 81,
      "time": 574.75,
      "duration": 0.25,
      "velocity": 0.71,
      "hand": "right"
    },
    {
      "midi": 61,
      "time": 575,
      "duration": 0.25,
      "velocity": 0.94,
      "hand": "right"
    },
    {
      "midi": 77,
      "time": 575,
      "duration": 0.25,
      "velocity": 0.71,
      "hand": "right"
    },
    {
      "midi": 49,
      "time": 575.25,
      "duration": 0.25,
      "velocity": 0.94,
      "hand": "left"
    },
    {
      "midi": 57,
      "time": 575.25,
      "duration": 0.25,
      "velocity": 0.94,
      "hand": "left"
    },
    {
      "midi": 65,
      "time": 575.25,
      "duration": 0.25,
      "velocity": 0.71,
      "hand": "right"
    },
    {
      "midi": 69,
      "time": 575.25,
      "duration": 0.25,
      "velocity": 0.71,
      "hand": "right"
    },
    {
      "midi": 49,
      "time": 575.5,
      "duration": 0.25,
      "velocity": 0.94,
      "hand": "left"
    },
    {
      "midi": 65,
      "time": 575.5,
      "duration": 0.25,
      "velocity": 0.71,
      "hand": "right"
    },
    {
      "midi": 37,
      "time": 575.75,
      "duration": 0.25,
      "velocity": 0.94,
      "hand": "left"
    },
    {
      "midi": 45,
      "time": 575.75,
      "duration": 0.25,
      "velocity": 0.94,
      "hand": "left"
    },
    {
      "midi": 53,
      "time": 575.75,
      "duration": 0.25,
      "velocity": 0.71,
      "hand": "left"
    },
    {
      "midi": 57,
      "time": 575.75,
      "duration": 0.25,
      "velocity": 0.71,
      "hand": "left"
    },
    {
      "midi": 37,
      "time": 576,
      "duration": 0.5,
      "velocity": 0.94,
      "hand": "left"
    },
    {
      "midi": 65,
      "time": 576,
      "duration": 0.25,
      "velocity": 0.71,
      "hand": "right"
    },
    {
      "midi": 53,
      "time": 576.25,
      "duration": 0.25,
      "velocity": 0.71,
      "hand": "left"
    },
    {
      "midi": 58,
      "time": 576.25,
      "duration": 0.25,
      "velocity": 0.71,
      "hand": "left"
    },
    {
      "midi": 46,
      "time": 576.5,
      "duration": 0.25,
      "velocity": 0.94,
      "hand": "left"
    },
    {
      "midi": 49,
      "time": 576.5,
      "duration": 0.25,
      "velocity": 0.94,
      "hand": "left"
    },
    {
      "midi": 65,
      "time": 576.5,
      "duration": 0.25,
      "velocity": 0.71,
      "hand": "right"
    },
    {
      "midi": 49,
      "time": 576.75,
      "duration": 0.25,
      "velocity": 0.94,
      "hand": "left"
    },
    {
      "midi": 58,
      "time": 576.75,
      "duration": 0.25,
      "velocity": 0.94,
      "hand": "left"
    },
    {
      "midi": 65,
      "time": 576.75,
      "duration": 0.25,
      "velocity": 0.71,
      "hand": "right"
    },
    {
      "midi": 70,
      "time": 576.75,
      "duration": 0.25,
      "velocity": 0.71,
      "hand": "right"
    },
    {
      "midi": 61,
      "time": 577,
      "duration": 0.25,
      "velocity": 0.94,
      "hand": "right"
    },
    {
      "midi": 77,
      "time": 577,
      "duration": 0.25,
      "velocity": 0.71,
      "hand": "right"
    },
    {
      "midi": 61,
      "time": 577.25,
      "duration": 0.25,
      "velocity": 0.94,
      "hand": "right"
    },
    {
      "midi": 70,
      "time": 577.25,
      "duration": 0.25,
      "velocity": 0.94,
      "hand": "right"
    },
    {
      "midi": 77,
      "time": 577.25,
      "duration": 0.25,
      "velocity": 0.71,
      "hand": "right"
    },
    {
      "midi": 82,
      "time": 577.25,
      "duration": 0.25,
      "velocity": 0.71,
      "hand": "right"
    },
    {
      "midi": 73,
      "time": 577.5,
      "duration": 0.25,
      "velocity": 0.94,
      "hand": "right"
    },
    {
      "midi": 89,
      "time": 577.5,
      "duration": 0.25,
      "velocity": 0.71,
      "hand": "right"
    },
    {
      "midi": 61,
      "time": 577.75,
      "duration": 0.25,
      "velocity": 0.94,
      "hand": "right"
    },
    {
      "midi": 70,
      "time": 577.75,
      "duration": 0.25,
      "velocity": 0.94,
      "hand": "right"
    },
    {
      "midi": 77,
      "time": 577.75,
      "duration": 0.25,
      "velocity": 0.71,
      "hand": "right"
    },
    {
      "midi": 82,
      "time": 577.75,
      "duration": 0.25,
      "velocity": 0.71,
      "hand": "right"
    },
    {
      "midi": 61,
      "time": 578,
      "duration": 0.25,
      "velocity": 0.94,
      "hand": "right"
    },
    {
      "midi": 77,
      "time": 578,
      "duration": 0.25,
      "velocity": 0.71,
      "hand": "right"
    },
    {
      "midi": 49,
      "time": 578.25,
      "duration": 0.25,
      "velocity": 0.94,
      "hand": "left"
    },
    {
      "midi": 58,
      "time": 578.25,
      "duration": 0.25,
      "velocity": 0.94,
      "hand": "left"
    },
    {
      "midi": 65,
      "time": 578.25,
      "duration": 0.25,
      "velocity": 0.71,
      "hand": "right"
    },
    {
      "midi": 70,
      "time": 578.25,
      "duration": 0.25,
      "velocity": 0.71,
      "hand": "right"
    },
    {
      "midi": 49,
      "time": 578.5,
      "duration": 0.25,
      "velocity": 0.94,
      "hand": "left"
    },
    {
      "midi": 65,
      "time": 578.5,
      "duration": 0.25,
      "velocity": 0.71,
      "hand": "right"
    },
    {
      "midi": 37,
      "time": 578.75,
      "duration": 0.25,
      "velocity": 0.94,
      "hand": "left"
    },
    {
      "midi": 46,
      "time": 578.75,
      "duration": 0.25,
      "velocity": 0.94,
      "hand": "left"
    },
    {
      "midi": 53,
      "time": 578.75,
      "duration": 0.25,
      "velocity": 0.71,
      "hand": "left"
    },
    {
      "midi": 58,
      "time": 578.75,
      "duration": 0.25,
      "velocity": 0.71,
      "hand": "left"
    },
    {
      "midi": 37,
      "time": 579,
      "duration": 0.5,
      "velocity": 0.94,
      "hand": "left"
    },
    {
      "midi": 67,
      "time": 579,
      "duration": 0.25,
      "velocity": 0.71,
      "hand": "right"
    },
    {
      "midi": 53,
      "time": 579.25,
      "duration": 0.25,
      "velocity": 0.71,
      "hand": "left"
    },
    {
      "midi": 59,
      "time": 579.25,
      "duration": 0.25,
      "velocity": 0.71,
      "hand": "left"
    },
    {
      "midi": 43,
      "time": 579.5,
      "duration": 0.25,
      "velocity": 0.94,
      "hand": "left"
    },
    {
      "midi": 49,
      "time": 579.5,
      "duration": 0.25,
      "velocity": 0.94,
      "hand": "left"
    },
    {
      "midi": 67,
      "time": 579.5,
      "duration": 0.25,
      "velocity": 0.71,
      "hand": "right"
    },
    {
      "midi": 49,
      "time": 579.75,
      "duration": 0.25,
      "velocity": 0.94,
      "hand": "left"
    },
    {
      "midi": 55,
      "time": 579.75,
      "duration": 0.25,
      "velocity": 0.94,
      "hand": "left"
    },
    {
      "midi": 65,
      "time": 579.75,
      "duration": 0.25,
      "velocity": 0.71,
      "hand": "right"
    },
    {
      "midi": 71,
      "time": 579.75,
      "duration": 0.25,
      "velocity": 0.71,
      "hand": "right"
    },
    {
      "midi": 61,
      "time": 580,
      "duration": 0.25,
      "velocity": 0.94,
      "hand": "right"
    },
    {
      "midi": 79,
      "time": 580,
      "duration": 0.25,
      "velocity": 0.71,
      "hand": "right"
    },
    {
      "midi": 61,
      "time": 580.25,
      "duration": 0.25,
      "velocity": 0.94,
      "hand": "right"
    },
    {
      "midi": 67,
      "time": 580.25,
      "duration": 0.25,
      "velocity": 0.94,
      "hand": "right"
    },
    {
      "midi": 77,
      "time": 580.25,
      "duration": 0.25,
      "velocity": 0.71,
      "hand": "right"
    },
    {
      "midi": 83,
      "time": 580.25,
      "duration": 0.25,
      "velocity": 0.71,
      "hand": "right"
    },
    {
      "midi": 73,
      "time": 580.5,
      "duration": 0.25,
      "velocity": 0.94,
      "hand": "right"
    },
    {
      "midi": 91,
      "time": 580.5,
      "duration": 0.25,
      "velocity": 0.71,
      "hand": "right"
    },
    {
      "midi": 61,
      "time": 580.75,
      "duration": 0.25,
      "velocity": 0.94,
      "hand": "right"
    },
    {
      "midi": 67,
      "time": 580.75,
      "duration": 0.25,
      "velocity": 0.94,
      "hand": "right"
    },
    {
      "midi": 77,
      "time": 580.75,
      "duration": 0.25,
      "velocity": 0.71,
      "hand": "right"
    },
    {
      "midi": 83,
      "time": 580.75,
      "duration": 0.25,
      "velocity": 0.71,
      "hand": "right"
    },
    {
      "midi": 61,
      "time": 581,
      "duration": 0.25,
      "velocity": 0.94,
      "hand": "right"
    },
    {
      "midi": 79,
      "time": 581,
      "duration": 0.25,
      "velocity": 0.71,
      "hand": "right"
    },
    {
      "midi": 49,
      "time": 581.25,
      "duration": 0.25,
      "velocity": 0.94,
      "hand": "left"
    },
    {
      "midi": 55,
      "time": 581.25,
      "duration": 0.25,
      "velocity": 0.94,
      "hand": "left"
    },
    {
      "midi": 65,
      "time": 581.25,
      "duration": 0.25,
      "velocity": 0.71,
      "hand": "right"
    },
    {
      "midi": 71,
      "time": 581.25,
      "duration": 0.25,
      "velocity": 0.71,
      "hand": "right"
    },
    {
      "midi": 49,
      "time": 581.5,
      "duration": 0.25,
      "velocity": 0.94,
      "hand": "left"
    },
    {
      "midi": 67,
      "time": 581.5,
      "duration": 0.25,
      "velocity": 0.71,
      "hand": "right"
    },
    {
      "midi": 37,
      "time": 581.75,
      "duration": 0.25,
      "velocity": 0.94,
      "hand": "left"
    },
    {
      "midi": 43,
      "time": 581.75,
      "duration": 0.25,
      "velocity": 0.94,
      "hand": "left"
    },
    {
      "midi": 53,
      "time": 581.75,
      "duration": 0.25,
      "velocity": 0.71,
      "hand": "left"
    },
    {
      "midi": 59,
      "time": 581.75,
      "duration": 0.25,
      "velocity": 0.71,
      "hand": "left"
    },
    {
      "midi": 36,
      "time": 582,
      "duration": 0.5,
      "velocity": 0.94,
      "hand": "left"
    },
    {
      "midi": 48,
      "time": 582,
      "duration": 0.5,
      "velocity": 0.94,
      "hand": "left"
    },
    {
      "midi": 56,
      "time": 582,
      "duration": 0.5,
      "velocity": 0.71,
      "hand": "left"
    },
    {
      "midi": 60,
      "time": 582,
      "duration": 0.5,
      "velocity": 0.71,
      "hand": "right"
    },
    {
      "midi": 65,
      "time": 582,
      "duration": 0.5,
      "velocity": 0.71,
      "hand": "right"
    },
    {
      "midi": 68,
      "time": 582,
      "duration": 0.5,
      "velocity": 0.71,
      "hand": "right"
    },
    {
      "midi": 36,
      "time": 582.5,
      "duration": 0.5,
      "velocity": 0.8,
      "hand": "left"
    },
    {
      "midi": 48,
      "time": 582.75,
      "duration": 0.25,
      "velocity": 0.8,
      "hand": "left"
    },
    {
      "midi": 53,
      "time": 582.75,
      "duration": 0.25,
      "velocity": 0.8,
      "hand": "left"
    },
    {
      "midi": 41,
      "time": 583,
      "duration": 0.25,
      "velocity": 0.8,
      "hand": "left"
    },
    {
      "midi": 44,
      "time": 583,
      "duration": 0.25,
      "velocity": 0.8,
      "hand": "left"
    },
    {
      "midi": 56,
      "time": 583,
      "duration": 0.25,
      "velocity": 0.8,
      "hand": "left"
    },
    {
      "midi": 47,
      "time": 583.25,
      "duration": 0.25,
      "velocity": 0.8,
      "hand": "left"
    },
    {
      "midi": 48,
      "time": 583.25,
      "duration": 0.25,
      "velocity": 0.8,
      "hand": "left"
    },
    {
      "midi": 59,
      "time": 583.25,
      "duration": 0.25,
      "velocity": 0.8,
      "hand": "left"
    },
    {
      "midi": 60,
      "time": 583.25,
      "duration": 0.25,
      "velocity": 0.8,
      "hand": "right"
    },
    {
      "midi": 53,
      "time": 583.5,
      "duration": 0.25,
      "velocity": 0.8,
      "hand": "left"
    },
    {
      "midi": 65,
      "time": 583.5,
      "duration": 0.25,
      "velocity": 0.71,
      "hand": "right"
    },
    {
      "midi": 56,
      "time": 583.75,
      "duration": 0.25,
      "velocity": 0.8,
      "hand": "left"
    },
    {
      "midi": 59,
      "time": 583.75,
      "duration": 0.25,
      "velocity": 0.8,
      "hand": "left"
    },
    {
      "midi": 68,
      "time": 583.75,
      "duration": 0.25,
      "velocity": 0.71,
      "hand": "right"
    },
    {
      "midi": 71,
      "time": 583.75,
      "duration": 0.25,
      "velocity": 0.71,
      "hand": "right"
    },
    {
      "midi": 60,
      "time": 584,
      "duration": 0.25,
      "velocity": 0.8,
      "hand": "right"
    },
    {
      "midi": 72,
      "time": 584,
      "duration": 0.25,
      "velocity": 0.71,
      "hand": "right"
    },
    {
      "midi": 65,
      "time": 584.25,
      "duration": 0.25,
      "velocity": 0.8,
      "hand": "right"
    },
    {
      "midi": 68,
      "time": 584.25,
      "duration": 0.25,
      "velocity": 0.8,
      "hand": "right"
    },
    {
      "midi": 77,
      "time": 584.25,
      "duration": 0.25,
      "velocity": 0.71,
      "hand": "right"
    },
    {
      "midi": 80,
      "time": 584.25,
      "duration": 0.25,
      "velocity": 0.71,
      "hand": "right"
    },
    {
      "midi": 71,
      "time": 584.5,
      "duration": 0.25,
      "velocity": 0.8,
      "hand": "right"
    },
    {
      "midi": 83,
      "time": 584.5,
      "duration": 0.25,
      "velocity": 0.71,
      "hand": "right"
    },
    {
      "midi": 72,
      "time": 584.75,
      "duration": 0.25,
      "velocity": 0.8,
      "hand": "right"
    },
    {
      "midi": 77,
      "time": 584.75,
      "duration": 0.25,
      "velocity": 0.8,
      "hand": "right"
    },
    {
      "midi": 84,
      "time": 584.75,
      "duration": 0.25,
      "velocity": 0.71,
      "hand": "right"
    },
    {
      "midi": 89,
      "time": 584.75,
      "duration": 0.25,
      "velocity": 0.71,
      "hand": "right"
    },
    {
      "midi": 80,
      "time": 585,
      "duration": 0.5,
      "velocity": 0.8,
      "hand": "right"
    },
    {
      "midi": 92,
      "time": 585,
      "duration": 0.5,
      "velocity": 0.71,
      "hand": "right"
    },
    {
      "midi": 49,
      "time": 585.5,
      "duration": 0.5,
      "velocity": 0.8,
      "hand": "left"
    },
    {
      "midi": 56,
      "time": 585.5,
      "duration": 0.5,
      "velocity": 0.8,
      "hand": "left"
    },
    {
      "midi": 61,
      "time": 585.5,
      "duration": 0.5,
      "velocity": 0.8,
      "hand": "right"
    },
    {
      "midi": 65,
      "time": 585.5,
      "duration": 0.5,
      "velocity": 0.71,
      "hand": "right"
    },
    {
      "midi": 68,
      "time": 585.5,
      "duration": 0.5,
      "velocity": 0.71,
      "hand": "right"
    },
    {
      "midi": 73,
      "time": 585.5,
      "duration": 0.5,
      "velocity": 0.71,
      "hand": "right"
    },
    {
      "midi": 77,
      "time": 585.5,
      "duration": 0.5,
      "velocity": 0.71,
      "hand": "right"
    },
    {
      "midi": 47,
      "time": 586,
      "duration": 0.5,
      "velocity": 0.8,
      "hand": "left"
    },
    {
      "midi": 53,
      "time": 586,
      "duration": 0.5,
      "velocity": 0.8,
      "hand": "left"
    },
    {
      "midi": 56,
      "time": 586,
      "duration": 0.5,
      "velocity": 0.8,
      "hand": "left"
    },
    {
      "midi": 59,
      "time": 586,
      "duration": 0.5,
      "velocity": 0.8,
      "hand": "left"
    },
    {
      "midi": 61,
      "time": 586,
      "duration": 0.5,
      "velocity": 0.71,
      "hand": "right"
    },
    {
      "midi": 68,
      "time": 586,
      "duration": 0.5,
      "velocity": 0.71,
      "hand": "right"
    },
    {
      "midi": 73,
      "time": 586,
      "duration": 0.5,
      "velocity": 0.71,
      "hand": "right"
    },
    {
      "midi": 46,
      "time": 586.5,
      "duration": 0.5,
      "velocity": 0.8,
      "hand": "left"
    },
    {
      "midi": 49,
      "time": 586.5,
      "duration": 0.5,
      "velocity": 0.8,
      "hand": "left"
    },
    {
      "midi": 54,
      "time": 586.5,
      "duration": 0.5,
      "velocity": 0.8,
      "hand": "left"
    },
    {
      "midi": 58,
      "time": 586.5,
      "duration": 0.5,
      "velocity": 0.8,
      "hand": "left"
    },
    {
      "midi": 66,
      "time": 586.5,
      "duration": 0.5,
      "velocity": 0.71,
      "hand": "right"
    },
    {
      "midi": 73,
      "time": 586.5,
      "duration": 0.5,
      "velocity": 0.71,
      "hand": "right"
    },
    {
      "midi": 78,
      "time": 586.5,
      "duration": 0.5,
      "velocity": 0.71,
      "hand": "right"
    },
    {
      "midi": 48,
      "time": 587,
      "duration": 0.5,
      "velocity": 0.8,
      "hand": "left"
    },
    {
      "midi": 55,
      "time": 587,
      "duration": 0.5,
      "velocity": 0.8,
      "hand": "left"
    },
    {
      "midi": 60,
      "time": 587,
      "duration": 0.5,
      "velocity": 0.8,
      "hand": "right"
    },
    {
      "midi": 64,
      "time": 587,
      "duration": 0.5,
      "velocity": 0.71,
      "hand": "right"
    },
    {
      "midi": 67,
      "time": 587,
      "duration": 0.5,
      "velocity": 0.71,
      "hand": "right"
    },
    {
      "midi": 72,
      "time": 587,
      "duration": 0.5,
      "velocity": 0.71,
      "hand": "right"
    },
    {
      "midi": 76,
      "time": 587,
      "duration": 0.5,
      "velocity": 0.71,
      "hand": "right"
    },
    {
      "midi": 46,
      "time": 587.5,
      "duration": 0.5,
      "velocity": 0.8,
      "hand": "left"
    },
    {
      "midi": 52,
      "time": 587.5,
      "duration": 0.5,
      "velocity": 0.8,
      "hand": "left"
    },
    {
      "midi": 55,
      "time": 587.5,
      "duration": 0.5,
      "velocity": 0.8,
      "hand": "left"
    },
    {
      "midi": 58,
      "time": 587.5,
      "duration": 0.5,
      "velocity": 0.8,
      "hand": "left"
    },
    {
      "midi": 72,
      "time": 587.5,
      "duration": 0.5,
      "velocity": 0.71,
      "hand": "right"
    },
    {
      "midi": 79,
      "time": 587.5,
      "duration": 0.5,
      "velocity": 0.71,
      "hand": "right"
    },
    {
      "midi": 84,
      "time": 587.5,
      "duration": 0.5,
      "velocity": 0.71,
      "hand": "right"
    },
    {
      "midi": 44,
      "time": 588,
      "duration": 0.5,
      "velocity": 0.8,
      "hand": "left"
    },
    {
      "midi": 53,
      "time": 588,
      "duration": 0.5,
      "velocity": 0.8,
      "hand": "left"
    },
    {
      "midi": 56,
      "time": 588,
      "duration": 0.5,
      "velocity": 0.8,
      "hand": "left"
    },
    {
      "midi": 72,
      "time": 588,
      "duration": 0.5,
      "velocity": 0.71,
      "hand": "right"
    },
    {
      "midi": 77,
      "time": 588,
      "duration": 0.5,
      "velocity": 0.71,
      "hand": "right"
    },
    {
      "midi": 84,
      "time": 588,
      "duration": 0.5,
      "velocity": 0.71,
      "hand": "right"
    },
    {
      "midi": 36,
      "time": 588.5,
      "duration": 0.5,
      "velocity": 0.8,
      "hand": "left"
    },
    {
      "midi": 48,
      "time": 588.75,
      "duration": 0.25,
      "velocity": 0.8,
      "hand": "left"
    },
    {
      "midi": 53,
      "time": 588.75,
      "duration": 0.25,
      "velocity": 0.8,
      "hand": "left"
    },
    {
      "midi": 41,
      "time": 589,
      "duration": 0.25,
      "velocity": 0.8,
      "hand": "left"
    },
    {
      "midi": 44,
      "time": 589,
      "duration": 0.25,
      "velocity": 0.8,
      "hand": "left"
    },
    {
      "midi": 56,
      "time": 589,
      "duration": 0.25,
      "velocity": 0.8,
      "hand": "left"
    },
    {
      "midi": 47,
      "time": 589.25,
      "duration": 0.25,
      "velocity": 0.8,
      "hand": "left"
    },
    {
      "midi": 48,
      "time": 589.25,
      "duration": 0.25,
      "velocity": 0.8,
      "hand": "left"
    },
    {
      "midi": 59,
      "time": 589.25,
      "duration": 0.25,
      "velocity": 0.8,
      "hand": "left"
    },
    {
      "midi": 60,
      "time": 589.25,
      "duration": 0.25,
      "velocity": 0.8,
      "hand": "right"
    },
    {
      "midi": 53,
      "time": 589.5,
      "duration": 0.25,
      "velocity": 0.8,
      "hand": "left"
    },
    {
      "midi": 65,
      "time": 589.5,
      "duration": 0.25,
      "velocity": 0.71,
      "hand": "right"
    },
    {
      "midi": 56,
      "time": 589.75,
      "duration": 0.25,
      "velocity": 0.8,
      "hand": "left"
    },
    {
      "midi": 59,
      "time": 589.75,
      "duration": 0.25,
      "velocity": 0.8,
      "hand": "left"
    },
    {
      "midi": 68,
      "time": 589.75,
      "duration": 0.25,
      "velocity": 0.71,
      "hand": "right"
    },
    {
      "midi": 71,
      "time": 589.75,
      "duration": 0.25,
      "velocity": 0.71,
      "hand": "right"
    },
    {
      "midi": 60,
      "time": 590,
      "duration": 0.25,
      "velocity": 0.8,
      "hand": "right"
    },
    {
      "midi": 72,
      "time": 590,
      "duration": 0.25,
      "velocity": 0.71,
      "hand": "right"
    },
    {
      "midi": 65,
      "time": 590.25,
      "duration": 0.25,
      "velocity": 0.8,
      "hand": "right"
    },
    {
      "midi": 68,
      "time": 590.25,
      "duration": 0.25,
      "velocity": 0.8,
      "hand": "right"
    },
    {
      "midi": 77,
      "time": 590.25,
      "duration": 0.25,
      "velocity": 0.71,
      "hand": "right"
    },
    {
      "midi": 80,
      "time": 590.25,
      "duration": 0.25,
      "velocity": 0.71,
      "hand": "right"
    },
    {
      "midi": 71,
      "time": 590.5,
      "duration": 0.25,
      "velocity": 0.8,
      "hand": "right"
    },
    {
      "midi": 83,
      "time": 590.5,
      "duration": 0.25,
      "velocity": 0.71,
      "hand": "right"
    },
    {
      "midi": 72,
      "time": 590.75,
      "duration": 0.25,
      "velocity": 0.8,
      "hand": "right"
    },
    {
      "midi": 77,
      "time": 590.75,
      "duration": 0.25,
      "velocity": 0.8,
      "hand": "right"
    },
    {
      "midi": 84,
      "time": 590.75,
      "duration": 0.25,
      "velocity": 0.71,
      "hand": "right"
    },
    {
      "midi": 89,
      "time": 590.75,
      "duration": 0.25,
      "velocity": 0.71,
      "hand": "right"
    },
    {
      "midi": 80,
      "time": 591,
      "duration": 0.5,
      "velocity": 0.8,
      "hand": "right"
    },
    {
      "midi": 92,
      "time": 591,
      "duration": 0.5,
      "velocity": 0.71,
      "hand": "right"
    },
    {
      "midi": 49,
      "time": 591.5,
      "duration": 0.5,
      "velocity": 0.8,
      "hand": "left"
    },
    {
      "midi": 56,
      "time": 591.5,
      "duration": 0.5,
      "velocity": 0.8,
      "hand": "left"
    },
    {
      "midi": 61,
      "time": 591.5,
      "duration": 0.5,
      "velocity": 0.8,
      "hand": "right"
    },
    {
      "midi": 65,
      "time": 591.5,
      "duration": 0.5,
      "velocity": 0.71,
      "hand": "right"
    },
    {
      "midi": 68,
      "time": 591.5,
      "duration": 0.5,
      "velocity": 0.71,
      "hand": "right"
    },
    {
      "midi": 73,
      "time": 591.5,
      "duration": 0.5,
      "velocity": 0.71,
      "hand": "right"
    },
    {
      "midi": 77,
      "time": 591.5,
      "duration": 0.5,
      "velocity": 0.71,
      "hand": "right"
    },
    {
      "midi": 35,
      "time": 592,
      "duration": 0.5,
      "velocity": 0.8,
      "hand": "left"
    },
    {
      "midi": 47,
      "time": 592,
      "duration": 0.5,
      "velocity": 0.8,
      "hand": "left"
    },
    {
      "midi": 53,
      "time": 592,
      "duration": 0.5,
      "velocity": 0.71,
      "hand": "left"
    },
    {
      "midi": 56,
      "time": 592,
      "duration": 0.5,
      "velocity": 0.71,
      "hand": "left"
    },
    {
      "midi": 61,
      "time": 592,
      "duration": 0.5,
      "velocity": 0.71,
      "hand": "right"
    },
    {
      "midi": 65,
      "time": 592,
      "duration": 0.5,
      "velocity": 0.71,
      "hand": "right"
    },
    {
      "midi": 34,
      "time": 592.5,
      "duration": 0.5,
      "velocity": 0.8,
      "hand": "left"
    },
    {
      "midi": 46,
      "time": 592.5,
      "duration": 0.5,
      "velocity": 0.8,
      "hand": "left"
    },
    {
      "midi": 54,
      "time": 592.5,
      "duration": 0.5,
      "velocity": 0.71,
      "hand": "left"
    },
    {
      "midi": 61,
      "time": 592.5,
      "duration": 0.5,
      "velocity": 0.71,
      "hand": "right"
    },
    {
      "midi": 66,
      "time": 592.5,
      "duration": 0.5,
      "velocity": 0.71,
      "hand": "right"
    },
    {
      "midi": 36,
      "time": 593,
      "duration": 0.5,
      "velocity": 0.8,
      "hand": "left"
    },
    {
      "midi": 48,
      "time": 593,
      "duration": 0.5,
      "velocity": 0.8,
      "hand": "left"
    },
    {
      "midi": 55,
      "time": 593,
      "duration": 0.5,
      "velocity": 0.71,
      "hand": "left"
    },
    {
      "midi": 60,
      "time": 593,
      "duration": 0.5,
      "velocity": 0.71,
      "hand": "right"
    },
    {
      "midi": 64,
      "time": 593,
      "duration": 0.5,
      "velocity": 0.71,
      "hand": "right"
    },
    {
      "midi": 34,
      "time": 593.5,
      "duration": 0.5,
      "velocity": 0.8,
      "hand": "left"
    },
    {
      "midi": 46,
      "time": 593.5,
      "duration": 0.5,
      "velocity": 0.8,
      "hand": "left"
    },
    {
      "midi": 60,
      "time": 593.5,
      "duration": 0.5,
      "velocity": 0.71,
      "hand": "right"
    },
    {
      "midi": 67,
      "time": 593.5,
      "duration": 0.5,
      "velocity": 0.71,
      "hand": "right"
    },
    {
      "midi": 72,
      "time": 593.5,
      "duration": 0.5,
      "velocity": 0.71,
      "hand": "right"
    },
    {
      "midi": 32,
      "time": 594,
      "duration": 0.5,
      "velocity": 0.8,
      "hand": "left"
    },
    {
      "midi": 44,
      "time": 594,
      "duration": 0.5,
      "velocity": 0.8,
      "hand": "left"
    },
    {
      "midi": 60,
      "time": 594,
      "duration": 0.5,
      "velocity": 0.71,
      "hand": "right"
    },
    {
      "midi": 65,
      "time": 594,
      "duration": 0.5,
      "velocity": 0.71,
      "hand": "right"
    },
    {
      "midi": 72,
      "time": 594,
      "duration": 0.5,
      "velocity": 0.71,
      "hand": "right"
    },
    {
      "midi": 31,
      "time": 594.5,
      "duration": 0.5,
      "velocity": 0.8,
      "hand": "left"
    },
    {
      "midi": 43,
      "time": 594.5,
      "duration": 0.5,
      "velocity": 0.8,
      "hand": "left"
    },
    {
      "midi": 62,
      "time": 594.5,
      "duration": 0.5,
      "velocity": 0.71,
      "hand": "right"
    },
    {
      "midi": 65,
      "time": 594.5,
      "duration": 0.5,
      "velocity": 0.71,
      "hand": "right"
    },
    {
      "midi": 71,
      "time": 594.5,
      "duration": 0.5,
      "velocity": 0.71,
      "hand": "right"
    },
    {
      "midi": 74,
      "time": 594.5,
      "duration": 0.5,
      "velocity": 0.71,
      "hand": "right"
    },
    {
      "midi": 30,
      "time": 595,
      "duration": 0.5,
      "velocity": 0.8,
      "hand": "left"
    },
    {
      "midi": 42,
      "time": 595,
      "duration": 0.5,
      "velocity": 0.8,
      "hand": "left"
    },
    {
      "midi": 63,
      "time": 595,
      "duration": 0.5,
      "velocity": 0.71,
      "hand": "right"
    },
    {
      "midi": 66,
      "time": 595,
      "duration": 0.5,
      "velocity": 0.71,
      "hand": "right"
    },
    {
      "midi": 71,
      "time": 595,
      "duration": 0.5,
      "velocity": 0.71,
      "hand": "right"
    },
    {
      "midi": 75,
      "time": 595,
      "duration": 0.5,
      "velocity": 0.71,
      "hand": "right"
    },
    {
      "midi": 28,
      "time": 595.5,
      "duration": 0.5,
      "velocity": 0.8,
      "hand": "left"
    },
    {
      "midi": 40,
      "time": 595.5,
      "duration": 0.5,
      "velocity": 0.8,
      "hand": "left"
    },
    {
      "midi": 66,
      "time": 595.5,
      "duration": 0.5,
      "velocity": 0.71,
      "hand": "right"
    },
    {
      "midi": 70,
      "time": 595.5,
      "duration": 0.5,
      "velocity": 0.71,
      "hand": "right"
    },
    {
      "midi": 73,
      "time": 595.5,
      "duration": 0.5,
      "velocity": 0.71,
      "hand": "right"
    },
    {
      "midi": 78,
      "time": 595.5,
      "duration": 0.5,
      "velocity": 0.71,
      "hand": "right"
    },
    {
      "midi": 27,
      "time": 596,
      "duration": 0.5,
      "velocity": 0.8,
      "hand": "left"
    },
    {
      "midi": 39,
      "time": 596,
      "duration": 0.5,
      "velocity": 0.8,
      "hand": "left"
    },
    {
      "midi": 71,
      "time": 596,
      "duration": 0.5,
      "velocity": 0.71,
      "hand": "right"
    },
    {
      "midi": 78,
      "time": 596,
      "duration": 0.5,
      "velocity": 0.71,
      "hand": "right"
    },
    {
      "midi": 83,
      "time": 596,
      "duration": 0.5,
      "velocity": 0.71,
      "hand": "right"
    },
    {
      "midi": 38,
      "time": 596.5,
      "duration": 0.5,
      "velocity": 0.8,
      "hand": "left"
    },
    {
      "midi": 50,
      "time": 596.5,
      "duration": 0.5,
      "velocity": 0.8,
      "hand": "left"
    },
    {
      "midi": 68,
      "time": 596.5,
      "duration": 0.5,
      "velocity": 0.71,
      "hand": "right"
    },
    {
      "midi": 71,
      "time": 596.5,
      "duration": 0.5,
      "velocity": 0.71,
      "hand": "right"
    },
    {
      "midi": 77,
      "time": 596.5,
      "duration": 0.5,
      "velocity": 0.71,
      "hand": "right"
    },
    {
      "midi": 80,
      "time": 596.5,
      "duration": 0.5,
      "velocity": 0.71,
      "hand": "right"
    },
    {
      "midi": 37,
      "time": 597,
      "duration": 0.5,
      "velocity": 0.8,
      "hand": "left"
    },
    {
      "midi": 49,
      "time": 597,
      "duration": 0.5,
      "velocity": 0.8,
      "hand": "left"
    },
    {
      "midi": 70,
      "time": 597,
      "duration": 0.5,
      "velocity": 0.71,
      "hand": "right"
    },
    {
      "midi": 73,
      "time": 597,
      "duration": 0.5,
      "velocity": 0.71,
      "hand": "right"
    },
    {
      "midi": 78,
      "time": 597,
      "duration": 0.5,
      "velocity": 0.71,
      "hand": "right"
    },
    {
      "midi": 82,
      "time": 597,
      "duration": 0.5,
      "velocity": 0.71,
      "hand": "right"
    },
    {
      "midi": 35,
      "time": 597.5,
      "duration": 0.5,
      "velocity": 0.8,
      "hand": "left"
    },
    {
      "midi": 47,
      "time": 597.5,
      "duration": 0.5,
      "velocity": 0.8,
      "hand": "left"
    },
    {
      "midi": 73,
      "time": 597.5,
      "duration": 0.5,
      "velocity": 0.71,
      "hand": "right"
    },
    {
      "midi": 77,
      "time": 597.5,
      "duration": 0.5,
      "velocity": 0.71,
      "hand": "right"
    },
    {
      "midi": 80,
      "time": 597.5,
      "duration": 0.5,
      "velocity": 0.71,
      "hand": "right"
    },
    {
      "midi": 85,
      "time": 597.5,
      "duration": 0.5,
      "velocity": 0.71,
      "hand": "right"
    },
    {
      "midi": 34,
      "time": 598,
      "duration": 0.5,
      "velocity": 0.8,
      "hand": "left"
    },
    {
      "midi": 46,
      "time": 598,
      "duration": 0.5,
      "velocity": 0.8,
      "hand": "left"
    },
    {
      "midi": 78,
      "time": 598,
      "duration": 0.5,
      "velocity": 0.71,
      "hand": "right"
    },
    {
      "midi": 85,
      "time": 598,
      "duration": 0.5,
      "velocity": 0.71,
      "hand": "right"
    },
    {
      "midi": 90,
      "time": 598,
      "duration": 0.5,
      "velocity": 0.71,
      "hand": "right"
    },
    {
      "midi": 33,
      "time": 598.5,
      "duration": 0.5,
      "velocity": 0.8,
      "hand": "left"
    },
    {
      "midi": 45,
      "time": 598.5,
      "duration": 0.5,
      "velocity": 0.8,
      "hand": "left"
    },
    {
      "midi": 76,
      "time": 598.5,
      "duration": 0.5,
      "velocity": 0.71,
      "hand": "right"
    },
    {
      "midi": 79,
      "time": 598.5,
      "duration": 0.5,
      "velocity": 0.71,
      "hand": "right"
    },
    {
      "midi": 85,
      "time": 598.5,
      "duration": 0.5,
      "velocity": 0.71,
      "hand": "right"
    },
    {
      "midi": 88,
      "time": 598.5,
      "duration": 0.5,
      "velocity": 0.71,
      "hand": "right"
    },
    {
      "midi": 32,
      "time": 599,
      "duration": 0.5,
      "velocity": 0.8,
      "hand": "left"
    },
    {
      "midi": 44,
      "time": 599,
      "duration": 0.5,
      "velocity": 0.8,
      "hand": "left"
    },
    {
      "midi": 77,
      "time": 599,
      "duration": 0.5,
      "velocity": 0.71,
      "hand": "right"
    },
    {
      "midi": 84,
      "time": 599,
      "duration": 0.5,
      "velocity": 0.71,
      "hand": "right"
    },
    {
      "midi": 89,
      "time": 599,
      "duration": 0.5,
      "velocity": 0.71,
      "hand": "right"
    },
    {
      "midi": 34,
      "time": 599.5,
      "duration": 0.5,
      "velocity": 0.8,
      "hand": "left"
    },
    {
      "midi": 46,
      "time": 599.5,
      "duration": 0.5,
      "velocity": 0.8,
      "hand": "left"
    },
    {
      "midi": 73,
      "time": 599.5,
      "duration": 0.5,
      "velocity": 0.71,
      "hand": "right"
    },
    {
      "midi": 77,
      "time": 599.5,
      "duration": 0.5,
      "velocity": 0.71,
      "hand": "right"
    },
    {
      "midi": 79,
      "time": 599.5,
      "duration": 0.5,
      "velocity": 0.71,
      "hand": "right"
    },
    {
      "midi": 85,
      "time": 599.5,
      "duration": 0.5,
      "velocity": 0.71,
      "hand": "right"
    },
    {
      "midi": 36,
      "time": 600,
      "duration": 0.5,
      "velocity": 0.8,
      "hand": "left"
    },
    {
      "midi": 48,
      "time": 600,
      "duration": 0.5,
      "velocity": 0.8,
      "hand": "left"
    },
    {
      "midi": 72,
      "time": 600,
      "duration": 0.5,
      "velocity": 0.71,
      "hand": "right"
    },
    {
      "midi": 77,
      "time": 600,
      "duration": 0.5,
      "velocity": 0.71,
      "hand": "right"
    },
    {
      "midi": 79,
      "time": 600,
      "duration": 0.5,
      "velocity": 0.71,
      "hand": "right"
    },
    {
      "midi": 84,
      "time": 600,
      "duration": 0.5,
      "velocity": 0.71,
      "hand": "right"
    },
    {
      "midi": 48,
      "time": 601.5,
      "duration": 0.5,
      "velocity": 0.8,
      "hand": "left"
    },
    {
      "midi": 60,
      "time": 601.5,
      "duration": 0.5,
      "velocity": 0.71,
      "hand": "right"
    },
    {
      "midi": 49,
      "time": 602,
      "duration": 0.5,
      "velocity": 0.8,
      "hand": "left"
    },
    {
      "midi": 61,
      "time": 602,
      "duration": 0.5,
      "velocity": 0.71,
      "hand": "right"
    },
    {
      "midi": 53,
      "time": 602.5,
      "duration": 0.5,
      "velocity": 0.8,
      "hand": "left"
    },
    {
      "midi": 65,
      "time": 602.5,
      "duration": 0.5,
      "velocity": 0.71,
      "hand": "right"
    },
    {
      "midi": 36,
      "time": 603,
      "duration": 0.5,
      "velocity": 0.8,
      "hand": "left"
    },
    {
      "midi": 48,
      "time": 603,
      "duration": 0.5,
      "velocity": 0.8,
      "hand": "left"
    },
    {
      "midi": 55,
      "time": 603,
      "duration": 0.5,
      "velocity": 0.71,
      "hand": "left"
    },
    {
      "midi": 60,
      "time": 603,
      "duration": 0.5,
      "velocity": 0.71,
      "hand": "right"
    },
    {
      "midi": 64,
      "time": 603,
      "duration": 0.5,
      "velocity": 0.71,
      "hand": "right"
    },
    {
      "midi": 67,
      "time": 603,
      "duration": 0.5,
      "velocity": 0.71,
      "hand": "right"
    },
    {
      "midi": 31,
      "time": 603.5,
      "duration": 0.5,
      "velocity": 0.8,
      "hand": "left"
    },
    {
      "midi": 43,
      "time": 603.5,
      "duration": 0.5,
      "velocity": 0.8,
      "hand": "left"
    },
    {
      "midi": 53,
      "time": 603.5,
      "duration": 0.5,
      "velocity": 0.71,
      "hand": "left"
    },
    {
      "midi": 55,
      "time": 603.5,
      "duration": 0.5,
      "velocity": 0.71,
      "hand": "left"
    },
    {
      "midi": 59,
      "time": 603.5,
      "duration": 0.5,
      "velocity": 0.71,
      "hand": "left"
    },
    {
      "midi": 62,
      "time": 603.5,
      "duration": 0.5,
      "velocity": 0.71,
      "hand": "right"
    },
    {
      "midi": 67,
      "time": 603.5,
      "duration": 0.5,
      "velocity": 0.71,
      "hand": "right"
    },
    {
      "midi": 24,
      "time": 604,
      "duration": 0.5,
      "velocity": 0.8,
      "hand": "left"
    },
    {
      "midi": 36,
      "time": 604,
      "duration": 0.5,
      "velocity": 0.8,
      "hand": "left"
    },
    {
      "midi": 55,
      "time": 604,
      "duration": 0.5,
      "velocity": 0.71,
      "hand": "left"
    },
    {
      "midi": 60,
      "time": 604,
      "duration": 0.5,
      "velocity": 0.71,
      "hand": "right"
    },
    {
      "midi": 64,
      "time": 604,
      "duration": 0.5,
      "velocity": 0.71,
      "hand": "right"
    },
    {
      "midi": 67,
      "time": 604,
      "duration": 0.5,
      "velocity": 0.71,
      "hand": "right"
    },
    {
      "midi": 48,
      "time": 606,
      "duration": 3,
      "velocity": 0.8,
      "hand": "left"
    },
    {
      "midi": 55,
      "time": 606,
      "duration": 3,
      "velocity": 0.8,
      "hand": "left"
    },
    {
      "midi": 64,
      "time": 606,
      "duration": 3,
      "velocity": 0.8,
      "hand": "right"
    },
    {
      "midi": 72,
      "time": 606,
      "duration": 3,
      "velocity": 0.71,
      "hand": "right"
    },
    {
      "midi": 79,
      "time": 606,
      "duration": 3,
      "velocity": 0.71,
      "hand": "right"
    },
    {
      "midi": 84,
      "time": 606,
      "duration": 3,
      "velocity": 0.71,
      "hand": "right"
    },
    {
      "midi": 48,
      "time": 609,
      "duration": 3,
      "velocity": 0.8,
      "hand": "left"
    },
    {
      "midi": 55,
      "time": 609,
      "duration": 3,
      "velocity": 0.8,
      "hand": "left"
    },
    {
      "midi": 62,
      "time": 609,
      "duration": 3,
      "velocity": 0.8,
      "hand": "right"
    },
    {
      "midi": 65,
      "time": 609,
      "duration": 3,
      "velocity": 0.71,
      "hand": "right"
    },
    {
      "midi": 67,
      "time": 609,
      "duration": 3,
      "velocity": 0.71,
      "hand": "right"
    },
    {
      "midi": 71,
      "time": 609,
      "duration": 3,
      "velocity": 0.71,
      "hand": "right"
    },
    {
      "midi": 74,
      "time": 609,
      "duration": 3,
      "velocity": 0.71,
      "hand": "right"
    },
    {
      "midi": 79,
      "time": 609,
      "duration": 3,
      "velocity": 0.71,
      "hand": "right"
    },
    {
      "midi": 48,
      "time": 612,
      "duration": 3,
      "velocity": 0.8,
      "hand": "left"
    },
    {
      "midi": 55,
      "time": 612,
      "duration": 3,
      "velocity": 0.8,
      "hand": "left"
    },
    {
      "midi": 60,
      "time": 612,
      "duration": 3,
      "velocity": 0.8,
      "hand": "right"
    },
    {
      "midi": 64,
      "time": 612,
      "duration": 3,
      "velocity": 0.71,
      "hand": "right"
    },
    {
      "midi": 67,
      "time": 612,
      "duration": 3,
      "velocity": 0.71,
      "hand": "right"
    },
    {
      "midi": 70,
      "time": 612,
      "duration": 3,
      "velocity": 0.71,
      "hand": "right"
    },
    {
      "midi": 76,
      "time": 612,
      "duration": 3,
      "velocity": 0.71,
      "hand": "right"
    },
    {
      "midi": 48,
      "time": 615,
      "duration": 3,
      "velocity": 0.8,
      "hand": "left"
    },
    {
      "midi": 55,
      "time": 615,
      "duration": 3,
      "velocity": 0.8,
      "hand": "left"
    },
    {
      "midi": 58,
      "time": 615,
      "duration": 3,
      "velocity": 0.8,
      "hand": "left"
    },
    {
      "midi": 62,
      "time": 615,
      "duration": 3,
      "velocity": 0.71,
      "hand": "right"
    },
    {
      "midi": 65,
      "time": 615,
      "duration": 3,
      "velocity": 0.71,
      "hand": "right"
    },
    {
      "midi": 74,
      "time": 615,
      "duration": 3,
      "velocity": 0.71,
      "hand": "right"
    },
    {
      "midi": 36,
      "time": 618,
      "duration": 10,
      "velocity": 0.8,
      "hand": "left"
    },
    {
      "midi": 48,
      "time": 618,
      "duration": 10,
      "velocity": 0.8,
      "hand": "left"
    },
    {
      "midi": 55,
      "time": 618,
      "duration": 10,
      "velocity": 0.71,
      "hand": "left"
    },
    {
      "midi": 60,
      "time": 618,
      "duration": 10,
      "velocity": 0.71,
      "hand": "right"
    },
    {
      "midi": 64,
      "time": 618,
      "duration": 10,
      "velocity": 0.71,
      "hand": "right"
    },
    {
      "midi": 29,
      "time": 630,
      "duration": 0.5,
      "velocity": 0.8,
      "hand": "left"
    },
    {
      "midi": 56,
      "time": 630,
      "duration": 0.25,
      "velocity": 0.71,
      "hand": "left"
    },
    {
      "midi": 60,
      "time": 630.25,
      "duration": 0.25,
      "velocity": 0.71,
      "hand": "right"
    },
    {
      "midi": 65,
      "time": 630.25,
      "duration": 0.25,
      "velocity": 0.71,
      "hand": "right"
    },
    {
      "midi": 68,
      "time": 630.25,
      "duration": 0.25,
      "velocity": 0.71,
      "hand": "right"
    },
    {
      "midi": 49,
      "time": 630.5,
      "duration": 0.25,
      "velocity": 0.8,
      "hand": "left"
    },
    {
      "midi": 55,
      "time": 630.5,
      "duration": 0.25,
      "velocity": 0.71,
      "hand": "left"
    },
    {
      "midi": 37,
      "time": 630.75,
      "duration": 0.25,
      "velocity": 0.8,
      "hand": "left"
    },
    {
      "midi": 43,
      "time": 630.75,
      "duration": 0.25,
      "velocity": 0.8,
      "hand": "left"
    },
    {
      "midi": 53,
      "time": 630.75,
      "duration": 0.25,
      "velocity": 0.71,
      "hand": "left"
    },
    {
      "midi": 56,
      "time": 630.75,
      "duration": 0.25,
      "velocity": 0.71,
      "hand": "left"
    },
    {
      "midi": 59,
      "time": 630.75,
      "duration": 0.25,
      "velocity": 0.71,
      "hand": "left"
    },
    {
      "midi": 36,
      "time": 631,
      "duration": 0.25,
      "velocity": 0.8,
      "hand": "left"
    },
    {
      "midi": 61,
      "time": 631,
      "duration": 0.25,
      "velocity": 0.71,
      "hand": "right"
    },
    {
      "midi": 48,
      "time": 631.25,
      "duration": 0.25,
      "velocity": 0.8,
      "hand": "left"
    },
    {
      "midi": 52,
      "time": 631.25,
      "duration": 0.25,
      "velocity": 0.8,
      "hand": "left"
    },
    {
      "midi": 58,
      "time": 631.25,
      "duration": 0.25,
      "velocity": 0.71,
      "hand": "left"
    },
    {
      "midi": 60,
      "time": 631.25,
      "duration": 0.25,
      "velocity": 0.71,
      "hand": "right"
    },
    {
      "midi": 67,
      "time": 631.25,
      "duration": 0.25,
      "velocity": 0.71,
      "hand": "right"
    },
    {
      "midi": 56,
      "time": 631.5,
      "duration": 0.25,
      "velocity": 0.8,
      "hand": "left"
    },
    {
      "midi": 60,
      "time": 631.5,
      "duration": 0.25,
      "velocity": 0.71,
      "hand": "right"
    },
    {
      "midi": 41,
      "time": 631.75,
      "duration": 0.25,
      "velocity": 0.8,
      "hand": "left"
    },
    {
      "midi": 48,
      "time": 631.75,
      "duration": 0.25,
      "velocity": 0.8,
      "hand": "left"
    },
    {
      "midi": 65,
      "time": 631.75,
      "duration": 0.25,
      "velocity": 0.71,
      "hand": "right"
    },
    {
      "midi": 68,
      "time": 631.75,
      "duration": 0.25,
      "velocity": 0.71,
      "hand": "right"
    },
    {
      "midi": 70,
      "time": 631.75,
      "duration": 0.25,
      "velocity": 0.71,
      "hand": "right"
    },
    {
      "midi": 49,
      "time": 632,
      "duration": 0.25,
      "velocity": 0.8,
      "hand": "left"
    },
    {
      "midi": 67,
      "time": 632,
      "duration": 0.25,
      "velocity": 0.71,
      "hand": "right"
    },
    {
      "midi": 37,
      "time": 632.25,
      "duration": 0.25,
      "velocity": 0.8,
      "hand": "left"
    },
    {
      "midi": 57,
      "time": 632.25,
      "duration": 0.25,
      "velocity": 0.71,
      "hand": "left"
    },
    {
      "midi": 58,
      "time": 632.25,
      "duration": 0.25,
      "velocity": 0.71,
      "hand": "left"
    },
    {
      "midi": 65,
      "time": 632.25,
      "duration": 0.25,
      "velocity": 0.71,
      "hand": "right"
    },
    {
      "midi": 36,
      "time": 632.5,
      "duration": 0.25,
      "velocity": 0.8,
      "hand": "left"
    },
    {
      "midi": 61,
      "time": 632.5,
      "duration": 0.25,
      "velocity": 0.71,
      "hand": "right"
    },
    {
      "midi": 48,
      "time": 632.75,
      "duration": 0.25,
      "velocity": 0.8,
      "hand": "left"
    },
    {
      "midi": 52,
      "time": 632.75,
      "duration": 0.25,
      "velocity": 0.8,
      "hand": "left"
    },
    {
      "midi": 58,
      "time": 632.75,
      "duration": 0.25,
      "velocity": 0.71,
      "hand": "left"
    },
    {
      "midi": 60,
      "time": 632.75,
      "duration": 0.25,
      "velocity": 0.71,
      "hand": "right"
    },
    {
      "midi": 67,
      "time": 632.75,
      "duration": 0.25,
      "velocity": 0.71,
      "hand": "right"
    },
    {
      "midi": 41,
      "time": 633,
      "duration": 0.25,
      "velocity": 0.8,
      "hand": "left"
    },
    {
      "midi": 56,
      "time": 633,
      "duration": 0.25,
      "velocity": 0.71,
      "hand": "left"
    },
    {
      "midi": 44,
      "time": 633.25,
      "duration": 0.25,
      "velocity": 0.8,
      "hand": "left"
    },
    {
      "midi": 53,
      "time": 633.25,
      "duration": 0.25,
      "velocity": 0.8,
      "hand": "left"
    },
    {
      "midi": 61,
      "time": 633.25,
      "duration": 0.25,
      "velocity": 0.71,
      "hand": "right"
    },
    {
      "midi": 63,
      "time": 633.25,
      "duration": 0.25,
      "velocity": 0.71,
      "hand": "right"
    },
    {
      "midi": 68,
      "time": 633.25,
      "duration": 0.75,
      "velocity": 0.71,
      "hand": "right"
    },
    {
      "midi": 39,
      "time": 633.5,
      "duration": 0.25,
      "velocity": 0.8,
      "hand": "left"
    },
    {
      "midi": 61,
      "time": 633.5,
      "duration": 0.25,
      "velocity": 0.72,
      "hand": "right"
    },
    {
      "midi": 63,
      "time": 633.5,
      "duration": 0.125,
      "velocity": 0.71,
      "hand": "right"
    },
    {
      "midi": 44,
      "time": 633.75,
      "duration": 0.25,
      "velocity": 0.8,
      "hand": "left"
    },
    {
      "midi": 54,
      "time": 633.75,
      "duration": 0.25,
      "velocity": 0.8,
      "hand": "left"
    },
    {
      "midi": 60,
      "time": 633.75,
      "duration": 0.25,
      "velocity": 0.76,
      "hand": "right"
    },
    {
      "midi": 66,
      "time": 633.75,
      "duration": 0.25,
      "velocity": 0.8,
      "hand": "right"
    },
    {
      "midi": 68,
      "time": 633.75,
      "duration": 0.25,
      "velocity": 0.8,
      "hand": "right"
    },
    {
      "midi": 37,
      "time": 634,
      "duration": 0.25,
      "velocity": 0.8,
      "hand": "left"
    },
    {
      "midi": 66,
      "time": 634,
      "duration": 0.25,
      "velocity": 0.84,
      "hand": "right"
    },
    {
      "midi": 68,
      "time": 634,
      "duration": 0.5,
      "velocity": 0.84,
      "hand": "right"
    },
    {
      "midi": 44,
      "time": 634.25,
      "duration": 0.25,
      "velocity": 0.8,
      "hand": "left"
    },
    {
      "midi": 53,
      "time": 634.25,
      "duration": 0.25,
      "velocity": 0.8,
      "hand": "left"
    },
    {
      "midi": 65,
      "time": 634.25,
      "duration": 0.25,
      "velocity": 0.89,
      "hand": "right"
    },
    {
      "midi": 43,
      "time": 634.5,
      "duration": 0.25,
      "velocity": 0.94,
      "hand": "left"
    },
    {
      "midi": 61,
      "time": 634.5,
      "duration": 0.25,
      "velocity": 0.93,
      "hand": "right"
    },
    {
      "midi": 73,
      "time": 634.5,
      "duration": 0.25,
      "velocity": 0.93,
      "hand": "right"
    },
    {
      "midi": 44,
      "time": 634.75,
      "duration": 0.25,
      "velocity": 0.94,
      "hand": "left"
    },
    {
      "midi": 45,
      "time": 634.75,
      "duration": 0.25,
      "velocity": 0.94,
      "hand": "left"
    },
    {
      "midi": 61,
      "time": 634.75,
      "duration": 0.25,
      "velocity": 0.87,
      "hand": "right"
    },
    {
      "midi": 65,
      "time": 634.75,
      "duration": 0.25,
      "velocity": 0.9,
      "hand": "right"
    },
    {
      "midi": 71,
      "time": 634.75,
      "duration": 0.25,
      "velocity": 0.87,
      "hand": "right"
    },
    {
      "midi": 72,
      "time": 634.75,
      "duration": 0.25,
      "velocity": 0.9,
      "hand": "right"
    },
    {
      "midi": 46,
      "time": 635,
      "duration": 0.25,
      "velocity": 0.94,
      "hand": "left"
    },
    {
      "midi": 65,
      "time": 635,
      "duration": 0.25,
      "velocity": 0.83,
      "hand": "right"
    },
    {
      "midi": 70,
      "time": 635,
      "duration": 0.25,
      "velocity": 0.83,
      "hand": "right"
    },
    {
      "midi": 47,
      "time": 635.25,
      "duration": 0.25,
      "velocity": 0.94,
      "hand": "left"
    },
    {
      "midi": 48,
      "time": 635.25,
      "duration": 0.25,
      "velocity": 0.94,
      "hand": "left"
    },
    {
      "midi": 61,
      "time": 635.25,
      "duration": 0.25,
      "velocity": 0.8,
      "hand": "right"
    },
    {
      "midi": 65,
      "time": 635.25,
      "duration": 0.25,
      "velocity": 0.77,
      "hand": "right"
    },
    {
      "midi": 68,
      "time": 635.25,
      "duration": 0.25,
      "velocity": 0.77,
      "hand": "right"
    },
    {
      "midi": 69,
      "time": 635.25,
      "duration": 0.25,
      "velocity": 0.8,
      "hand": "right"
    },
    {
      "midi": 49,
      "time": 635.5,
      "duration": 0.25,
      "velocity": 0.94,
      "hand": "left"
    },
    {
      "midi": 58,
      "time": 635.5,
      "duration": 0.25,
      "velocity": 0.74,
      "hand": "left"
    },
    {
      "midi": 48,
      "time": 635.75,
      "duration": 0.25,
      "velocity": 0.72,
      "hand": "left"
    },
    {
      "midi": 60,
      "time": 635.75,
      "duration": 0.25,
      "velocity": 0.71,
      "hand": "right"
    },
    {
      "midi": 64,
      "time": 635.75,
      "duration": 0.25,
      "velocity": 0.71,
      "hand": "right"
    },
    {
      "midi": 67,
      "time": 635.75,
      "duration": 0.25,
      "velocity": 0.71,
      "hand": "right"
    },
    {
      "midi": 72,
      "time": 635.75,
      "duration": 0.25,
      "velocity": 0.71,
      "hand": "right"
    },
    {
      "midi": 41,
      "time": 636,
      "duration": 0.5,
      "velocity": 0.72,
      "hand": "left"
    },
    {
      "midi": 68,
      "time": 636,
      "duration": 0.25,
      "velocity": 0.71,
      "hand": "right"
    },
    {
      "midi": 72,
      "time": 636.25,
      "duration": 0.25,
      "velocity": 0.71,
      "hand": "right"
    },
    {
      "midi": 77,
      "time": 636.25,
      "duration": 0.25,
      "velocity": 0.71,
      "hand": "right"
    },
    {
      "midi": 80,
      "time": 636.25,
      "duration": 0.25,
      "velocity": 0.71,
      "hand": "right"
    },
    {
      "midi": 61,
      "time": 636.5,
      "duration": 0.25,
      "velocity": 0.72,
      "hand": "right"
    },
    {
      "midi": 67,
      "time": 636.5,
      "duration": 0.25,
      "velocity": 0.71,
      "hand": "right"
    },
    {
      "midi": 49,
      "time": 636.75,
      "duration": 0.25,
      "velocity": 0.72,
      "hand": "left"
    },
    {
      "midi": 55,
      "time": 636.75,
      "duration": 0.25,
      "velocity": 0.72,
      "hand": "left"
    },
    {
      "midi": 65,
      "time": 636.75,
      "duration": 0.25,
      "velocity": 0.71,
      "hand": "right"
    },
    {
      "midi": 68,
      "time": 636.75,
      "duration": 0.25,
      "velocity": 0.71,
      "hand": "right"
    },
    {
      "midi": 71,
      "time": 636.75,
      "duration": 0.25,
      "velocity": 0.71,
      "hand": "right"
    },
    {
      "midi": 48,
      "time": 637,
      "duration": 0.25,
      "velocity": 0.72,
      "hand": "left"
    },
    {
      "midi": 73,
      "time": 637,
      "duration": 0.25,
      "velocity": 0.71,
      "hand": "right"
    },
    {
      "midi": 60,
      "time": 637.25,
      "duration": 0.25,
      "velocity": 0.72,
      "hand": "right"
    },
    {
      "midi": 64,
      "time": 637.25,
      "duration": 0.25,
      "velocity": 0.72,
      "hand": "right"
    },
    {
      "midi": 70,
      "time": 637.25,
      "duration": 0.25,
      "velocity": 0.71,
      "hand": "right"
    },
    {
      "midi": 72,
      "time": 637.25,
      "duration": 0.25,
      "velocity": 0.71,
      "hand": "right"
    },
    {
      "midi": 79,
      "time": 637.25,
      "duration": 0.25,
      "velocity": 0.71,
      "hand": "right"
    },
    {
      "midi": 68,
      "time": 637.5,
      "duration": 0.25,
      "velocity": 0.72,
      "hand": "right"
    },
    {
      "midi": 72,
      "time": 637.5,
      "duration": 0.25,
      "velocity": 0.71,
      "hand": "right"
    },
    {
      "midi": 53,
      "time": 637.75,
      "duration": 0.25,
      "velocity": 0.72,
      "hand": "left"
    },
    {
      "midi": 60,
      "time": 637.75,
      "duration": 0.25,
      "velocity": 0.72,
      "hand": "right"
    },
    {
      "midi": 77,
      "time": 637.75,
      "duration": 0.25,
      "velocity": 0.71,
      "hand": "right"
    },
    {
      "midi": 80,
      "time": 637.75,
      "duration": 0.25,
      "velocity": 0.71,
      "hand": "right"
    },
    {
      "midi": 82,
      "time": 637.75,
      "duration": 0.25,
      "velocity": 0.71,
      "hand": "right"
    },
    {
      "midi": 61,
      "time": 638,
      "duration": 0.25,
      "velocity": 0.72,
      "hand": "right"
    },
    {
      "midi": 79,
      "time": 638,
      "duration": 0.25,
      "velocity": 0.71,
      "hand": "right"
    },
    {
      "midi": 49,
      "time": 638.25,
      "duration": 0.25,
      "velocity": 0.72,
      "hand": "left"
    },
    {
      "midi": 69,
      "time": 638.25,
      "duration": 0.25,
      "velocity": 0.71,
      "hand": "right"
    },
    {
      "midi": 70,
      "time": 638.25,
      "duration": 0.25,
      "velocity": 0.71,
      "hand": "right"
    },
    {
      "midi": 77,
      "time": 638.25,
      "duration": 0.25,
      "velocity": 0.71,
      "hand": "right"
    },
    {
      "midi": 48,
      "time": 638.5,
      "duration": 0.25,
      "velocity": 0.72,
      "hand": "left"
    },
    {
      "midi": 73,
      "time": 638.5,
      "duration": 0.25,
      "velocity": 0.71,
      "hand": "right"
    },
    {
      "midi": 60,
      "time": 638.75,
      "duration": 0.25,
      "velocity": 0.72,
      "hand": "right"
    },
    {
      "midi": 64,
      "time": 638.75,
      "duration": 0.25,
      "velocity": 0.72,
      "hand": "right"
    },
    {
      "midi": 70,
      "time": 638.75,
      "duration": 0.25,
      "velocity": 0.71,
      "hand": "right"
    },
    {
      "midi": 72,
      "time": 638.75,
      "duration": 0.25,
      "velocity": 0.71,
      "hand": "right"
    },
    {
      "midi": 79,
      "time": 638.75,
      "duration": 0.25,
      "velocity": 0.71,
      "hand": "right"
    },
    {
      "midi": 53,
      "time": 639,
      "duration": 0.25,
      "velocity": 0.72,
      "hand": "left"
    },
    {
      "midi": 68,
      "time": 639,
      "duration": 0.25,
      "velocity": 0.71,
      "hand": "right"
    },
    {
      "midi": 56,
      "time": 639.25,
      "duration": 0.25,
      "velocity": 0.72,
      "hand": "left"
    },
    {
      "midi": 65,
      "time": 639.25,
      "duration": 0.25,
      "velocity": 0.72,
      "hand": "right"
    },
    {
      "midi": 73,
      "time": 639.25,
      "duration": 0.25,
      "velocity": 0.71,
      "hand": "right"
    },
    {
      "midi": 75,
      "time": 639.25,
      "duration": 0.25,
      "velocity": 0.71,
      "hand": "right"
    },
    {
      "midi": 80,
      "time": 639.25,
      "duration": 0.75,
      "velocity": 0.71,
      "hand": "right"
    },
    {
      "midi": 51,
      "time": 639.5,
      "duration": 0.25,
      "velocity": 0.72,
      "hand": "left"
    },
    {
      "midi": 73,
      "time": 639.5,
      "duration": 0.25,
      "velocity": 0.71,
      "hand": "right"
    },
    {
      "midi": 75,
      "time": 639.5,
      "duration": 0.125,
      "velocity": 0.71,
      "hand": "right"
    },
    {
      "midi": 56,
      "time": 639.75,
      "duration": 0.25,
      "velocity": 0.72,
      "hand": "left"
    },
    {
      "midi": 66,
      "time": 639.75,
      "duration": 0.25,
      "velocity": 0.72,
      "hand": "right"
    },
    {
      "midi": 72,
      "time": 639.75,
      "duration": 0.25,
      "velocity": 0.71,
      "hand": "right"
    },
    {
      "midi": 79,
      "time": 639.75,
      "duration": 0.25,
      "velocity": 0.71,
      "hand": "right"
    },
    {
      "midi": 80,
      "time": 639.75,
      "duration": 0.25,
      "velocity": 0.71,
      "hand": "right"
    },
    {
      "midi": 49,
      "time": 640,
      "duration": 0.25,
      "velocity": 0.72,
      "hand": "left"
    },
    {
      "midi": 79,
      "time": 640,
      "duration": 0.25,
      "velocity": 0.71,
      "hand": "right"
    },
    {
      "midi": 80,
      "time": 640,
      "duration": 0.5,
      "velocity": 0.71,
      "hand": "right"
    },
    {
      "midi": 56,
      "time": 640.25,
      "duration": 0.25,
      "velocity": 0.72,
      "hand": "left"
    },
    {
      "midi": 65,
      "time": 640.25,
      "duration": 0.25,
      "velocity": 0.72,
      "hand": "right"
    },
    {
      "midi": 77,
      "time": 640.25,
      "duration": 0.25,
      "velocity": 0.71,
      "hand": "right"
    },
    {
      "midi": 55,
      "time": 640.5,
      "duration": 0.25,
      "velocity": 0.72,
      "hand": "left"
    },
    {
      "midi": 73,
      "time": 640.5,
      "duration": 0.25,
      "velocity": 0.71,
      "hand": "right"
    },
    {
      "midi": 85,
      "time": 640.5,
      "duration": 0.25,
      "velocity": 0.71,
      "hand": "right"
    },
    {
      "midi": 56,
      "time": 640.75,
      "duration": 0.25,
      "velocity": 0.72,
      "hand": "left"
    },
    {
      "midi": 57,
      "time": 640.75,
      "duration": 0.25,
      "velocity": 0.72,
      "hand": "left"
    },
    {
      "midi": 73,
      "time": 640.75,
      "duration": 0.25,
      "velocity": 0.71,
      "hand": "right"
    },
    {
      "midi": 77,
      "time": 640.75,
      "duration": 0.25,
      "velocity": 0.71,
      "hand": "right"
    },
    {
      "midi": 83,
      "time": 640.75,
      "duration": 0.25,
      "velocity": 0.71,
      "hand": "right"
    },
    {
      "midi": 84,
      "time": 640.75,
      "duration": 0.25,
      "velocity": 0.71,
      "hand": "right"
    },
    {
      "midi": 58,
      "time": 641,
      "duration": 0.25,
      "velocity": 0.72,
      "hand": "left"
    },
    {
      "midi": 77,
      "time": 641,
      "duration": 0.25,
      "velocity": 0.71,
      "hand": "right"
    },
    {
      "midi": 82,
      "time": 641,
      "duration": 0.25,
      "velocity": 0.71,
      "hand": "right"
    },
    {
      "midi": 59,
      "time": 641.25,
      "duration": 0.25,
      "velocity": 0.72,
      "hand": "left"
    },
    {
      "midi": 60,
      "time": 641.25,
      "duration": 0.25,
      "velocity": 0.72,
      "hand": "right"
    },
    {
      "midi": 73,
      "time": 641.25,
      "duration": 0.25,
      "velocity": 0.71,
      "hand": "right"
    },
    {
      "midi": 77,
      "time": 641.25,
      "duration": 0.25,
      "velocity": 0.71,
      "hand": "right"
    },
    {
      "midi": 80,
      "time": 641.25,
      "duration": 0.25,
      "velocity": 0.71,
      "hand": "right"
    },
    {
      "midi": 81,
      "time": 641.25,
      "duration": 0.25,
      "velocity": 0.71,
      "hand": "right"
    },
    {
      "midi": 61,
      "time": 641.5,
      "duration": 0.25,
      "velocity": 0.72,
      "hand": "right"
    },
    {
      "midi": 70,
      "time": 641.5,
      "duration": 0.25,
      "velocity": 0.71,
      "hand": "right"
    },
    {
      "midi": 60,
      "time": 641.75,
      "duration": 0.25,
      "velocity": 0.5,
      "hand": "right"
    },
    {
      "midi": 72,
      "time": 641.75,
      "duration": 0.25,
      "velocity": 0.71,
      "hand": "right"
    },
    {
      "midi": 76,
      "time": 641.75,
      "duration": 0.25,
      "velocity": 0.71,
      "hand": "right"
    },
    {
      "midi": 79,
      "time": 641.75,
      "duration": 0.25,
      "velocity": 0.71,
      "hand": "right"
    },
    {
      "midi": 84,
      "time": 641.75,
      "duration": 0.25,
      "velocity": 0.71,
      "hand": "right"
    },
    {
      "midi": 53,
      "time": 642,
      "duration": 0.25,
      "velocity": 0.5,
      "hand": "left"
    },
    {
      "midi": 71,
      "time": 642,
      "duration": 0.25,
      "velocity": 0.71,
      "hand": "right"
    },
    {
      "midi": 74,
      "time": 642,
      "duration": 0.25,
      "velocity": 0.71,
      "hand": "right"
    },
    {
      "midi": 80,
      "time": 642,
      "duration": 0.5,
      "velocity": 0.71,
      "hand": "right"
    },
    {
      "midi": 62,
      "time": 642.25,
      "duration": 0.25,
      "velocity": 0.5,
      "hand": "right"
    },
    {
      "midi": 68,
      "time": 642.25,
      "duration": 0.25,
      "velocity": 0.5,
      "hand": "right"
    },
    {
      "midi": 72,
      "time": 642.25,
      "duration": 0.25,
      "velocity": 0.71,
      "hand": "right"
    },
    {
      "midi": 73,
      "time": 642.25,
      "duration": 0.25,
      "velocity": 0.71,
      "hand": "right"
    },
    {
      "midi": 75,
      "time": 642.25,
      "duration": 0.25,
      "velocity": 0.71,
      "hand": "right"
    },
    {
      "midi": 76,
      "time": 642.25,
      "duration": 0.25,
      "velocity": 0.71,
      "hand": "right"
    },
    {
      "midi": 59,
      "time": 642.5,
      "duration": 0.25,
      "velocity": 0.5,
      "hand": "left"
    },
    {
      "midi": 74,
      "time": 642.5,
      "duration": 0.25,
      "velocity": 0.71,
      "hand": "right"
    },
    {
      "midi": 77,
      "time": 642.5,
      "duration": 0.25,
      "velocity": 0.71,
      "hand": "right"
    },
    {
      "midi": 62,
      "time": 642.75,
      "duration": 0.25,
      "velocity": 0.5,
      "hand": "right"
    },
    {
      "midi": 68,
      "time": 642.75,
      "duration": 0.25,
      "velocity": 0.5,
      "hand": "right"
    },
    {
      "midi": 75,
      "time": 642.75,
      "duration": 0.25,
      "velocity": 0.71,
      "hand": "right"
    },
    {
      "midi": 76,
      "time": 642.75,
      "duration": 0.25,
      "velocity": 0.71,
      "hand": "right"
    },
    {
      "midi": 78,
      "time": 642.75,
      "duration": 0.25,
      "velocity": 0.71,
      "hand": "right"
    },
    {
      "midi": 79,
      "time": 642.75,
      "duration": 0.25,
      "velocity": 0.71,
      "hand": "right"
    },
    {
      "midi": 52,
      "time": 643,
      "duration": 0.25,
      "velocity": 0.5,
      "hand": "left"
    },
    {
      "midi": 77,
      "time": 643,
      "duration": 0.25,
      "velocity": 0.71,
      "hand": "right"
    },
    {
      "midi": 80,
      "time": 643,
      "duration": 0.25,
      "velocity": 0.71,
      "hand": "right"
    },
    {
      "midi": 61,
      "time": 643.25,
      "duration": 0.25,
      "velocity": 0.5,
      "hand": "right"
    },
    {
      "midi": 67,
      "time": 643.25,
      "duration": 0.25,
      "velocity": 0.5,
      "hand": "right"
    },
    {
      "midi": 76,
      "time": 643.25,
      "duration": 0.25,
      "velocity": 0.71,
      "hand": "right"
    },
    {
      "midi": 79,
      "time": 643.25,
      "duration": 0.25,
      "velocity": 0.71,
      "hand": "right"
    },
    {
      "midi": 82,
      "time": 643.25,
      "duration": 0.25,
      "velocity": 0.71,
      "hand": "right"
    },
    {
      "midi": 85,
      "time": 643.25,
      "duration": 0.25,
      "velocity": 0.71,
      "hand": "right"
    },
    {
      "midi": 51,
      "time": 643.5,
      "duration": 0.25,
      "velocity": 0.5,
      "hand": "left"
    },
    {
      "midi": 69,
      "time": 643.5,
      "duration": 0.25,
      "velocity": 0.71,
      "hand": "right"
    },
    {
      "midi": 72,
      "time": 643.5,
      "duration": 0.25,
      "velocity": 0.71,
      "hand": "right"
    },
    {
      "midi": 78,
      "time": 643.5,
      "duration": 0.5,
      "velocity": 0.71,
      "hand": "right"
    },
    {
      "midi": 60,
      "time": 643.75,
      "duration": 0.25,
      "velocity": 0.5,
      "hand": "right"
    },
    {
      "midi": 66,
      "time": 643.75,
      "duration": 0.25,
      "velocity": 0.5,
      "hand": "right"
    },
    {
      "midi": 70,
      "time": 643.75,
      "duration": 0.25,
      "velocity": 0.71,
      "hand": "right"
    },
    {
      "midi": 71,
      "time": 643.75,
      "duration": 0.25,
      "velocity": 0.71,
      "hand": "right"
    },
    {
      "midi": 73,
      "time": 643.75,
      "duration": 0.25,
      "velocity": 0.71,
      "hand": "right"
    },
    {
      "midi": 74,
      "time": 643.75,
      "duration": 0.25,
      "velocity": 0.71,
      "hand": "right"
    },
    {
      "midi": 57,
      "time": 644,
      "duration": 0.25,
      "velocity": 0.5,
      "hand": "left"
    },
    {
      "midi": 72,
      "time": 644,
      "duration": 0.25,
      "velocity": 0.71,
      "hand": "right"
    },
    {
      "midi": 75,
      "time": 644,
      "duration": 0.25,
      "velocity": 0.71,
      "hand": "right"
    },
    {
      "midi": 60,
      "time": 644.25,
      "duration": 0.25,
      "velocity": 0.5,
      "hand": "right"
    },
    {
      "midi": 66,
      "time": 644.25,
      "duration": 0.25,
      "velocity": 0.5,
      "hand": "right"
    },
    {
      "midi": 73,
      "time": 644.25,
      "duration": 0.25,
      "velocity": 0.71,
      "hand": "right"
    },
    {
      "midi": 74,
      "time": 644.25,
      "duration": 0.25,
      "velocity": 0.71,
      "hand": "right"
    },
    {
      "midi": 76,
      "time": 644.25,
      "duration": 0.25,
      "velocity": 0.71,
      "hand": "right"
    },
    {
      "midi": 77,
      "time": 644.25,
      "duration": 0.25,
      "velocity": 0.71,
      "hand": "right"
    },
    {
      "midi": 50,
      "time": 644.5,
      "duration": 0.25,
      "velocity": 0.5,
      "hand": "left"
    },
    {
      "midi": 75,
      "time": 644.5,
      "duration": 0.25,
      "velocity": 0.71,
      "hand": "right"
    },
    {
      "midi": 78,
      "time": 644.5,
      "duration": 0.25,
      "velocity": 0.71,
      "hand": "right"
    },
    {
      "midi": 59,
      "time": 644.75,
      "duration": 0.25,
      "velocity": 0.5,
      "hand": "left"
    },
    {
      "midi": 65,
      "time": 644.75,
      "duration": 0.25,
      "velocity": 0.5,
      "hand": "right"
    },
    {
      "midi": 74,
      "time": 644.75,
      "duration": 0.25,
      "velocity": 0.71,
      "hand": "right"
    },
    {
      "midi": 77,
      "time": 644.75,
      "duration": 0.25,
      "velocity": 0.71,
      "hand": "right"
    },
    {
      "midi": 80,
      "time": 644.75,
      "duration": 0.25,
      "velocity": 0.71,
      "hand": "right"
    },
    {
      "midi": 83,
      "time": 644.75,
      "duration": 0.25,
      "velocity": 0.71,
      "hand": "right"
    },
    {
      "midi": 49,
      "time": 645,
      "duration": 0.25,
      "velocity": 0.5,
      "hand": "left"
    },
    {
      "midi": 67,
      "time": 645,
      "duration": 0.25,
      "velocity": 0.71,
      "hand": "right"
    },
    {
      "midi": 70,
      "time": 645,
      "duration": 0.25,
      "velocity": 0.71,
      "hand": "right"
    },
    {
      "midi": 76,
      "time": 645,
      "duration": 0.5,
      "velocity": 0.71,
      "hand": "right"
    },
    {
      "midi": 58,
      "time": 645.25,
      "duration": 0.25,
      "velocity": 0.5,
      "hand": "left"
    },
    {
      "midi": 64,
      "time": 645.25,
      "duration": 0.25,
      "velocity": 0.5,
      "hand": "right"
    },
    {
      "midi": 68,
      "time": 645.25,
      "duration": 0.25,
      "velocity": 0.71,
      "hand": "right"
    },
    {
      "midi": 69,
      "time": 645.25,
      "duration": 0.25,
      "velocity": 0.71,
      "hand": "right"
    },
    {
      "midi": 71,
      "time": 645.25,
      "duration": 0.25,
      "velocity": 0.71,
      "hand": "right"
    },
    {
      "midi": 72,
      "time": 645.25,
      "duration": 0.25,
      "velocity": 0.71,
      "hand": "right"
    },
    {
      "midi": 55,
      "time": 645.5,
      "duration": 0.25,
      "velocity": 0.5,
      "hand": "left"
    },
    {
      "midi": 70,
      "time": 645.5,
      "duration": 0.25,
      "velocity": 0.71,
      "hand": "right"
    },
    {
      "midi": 73,
      "time": 645.5,
      "duration": 0.25,
      "velocity": 0.71,
      "hand": "right"
    },
    {
      "midi": 58,
      "time": 645.75,
      "duration": 0.25,
      "velocity": 0.5,
      "hand": "left"
    },
    {
      "midi": 64,
      "time": 645.75,
      "duration": 0.25,
      "velocity": 0.5,
      "hand": "right"
    },
    {
      "midi": 71,
      "time": 645.75,
      "duration": 0.25,
      "velocity": 0.71,
      "hand": "right"
    },
    {
      "midi": 72,
      "time": 645.75,
      "duration": 0.25,
      "velocity": 0.71,
      "hand": "right"
    },
    {
      "midi": 74,
      "time": 645.75,
      "duration": 0.25,
      "velocity": 0.71,
      "hand": "right"
    },
    {
      "midi": 75,
      "time": 645.75,
      "duration": 0.25,
      "velocity": 0.71,
      "hand": "right"
    },
    {
      "midi": 48,
      "time": 646,
      "duration": 0.25,
      "velocity": 0.5,
      "hand": "left"
    },
    {
      "midi": 73,
      "time": 646,
      "duration": 0.25,
      "velocity": 0.71,
      "hand": "right"
    },
    {
      "midi": 76,
      "time": 646,
      "duration": 0.25,
      "velocity": 0.71,
      "hand": "right"
    },
    {
      "midi": 58,
      "time": 646.25,
      "duration": 0.25,
      "velocity": 0.5,
      "hand": "left"
    },
    {
      "midi": 64,
      "time": 646.25,
      "duration": 0.25,
      "velocity": 0.5,
      "hand": "right"
    },
    {
      "midi": 74,
      "time": 646.25,
      "duration": 0.25,
      "velocity": 0.71,
      "hand": "right"
    },
    {
      "midi": 75,
      "time": 646.25,
      "duration": 0.25,
      "velocity": 0.71,
      "hand": "right"
    },
    {
      "midi": 77,
      "time": 646.25,
      "duration": 0.25,
      "velocity": 0.71,
      "hand": "right"
    },
    {
      "midi": 78,
      "time": 646.25,
      "duration": 0.25,
      "velocity": 0.71,
      "hand": "right"
    },
    {
      "midi": 47,
      "time": 646.5,
      "duration": 0.25,
      "velocity": 0.5,
      "hand": "left"
    },
    {
      "midi": 76,
      "time": 646.5,
      "duration": 0.25,
      "velocity": 0.71,
      "hand": "right"
    },
    {
      "midi": 79,
      "time": 646.5,
      "duration": 0.25,
      "velocity": 0.71,
      "hand": "right"
    },
    {
      "midi": 59,
      "time": 646.75,
      "duration": 0.25,
      "velocity": 0.5,
      "hand": "left"
    },
    {
      "midi": 64,
      "time": 646.75,
      "duration": 0.25,
      "velocity": 0.5,
      "hand": "right"
    },
    {
      "midi": 76,
      "time": 646.75,
      "duration": 0.25,
      "velocity": 0.71,
      "hand": "right"
    },
    {
      "midi": 78,
      "time": 646.75,
      "duration": 0.25,
      "velocity": 0.71,
      "hand": "right"
    },
    {
      "midi": 79,
      "time": 646.75,
      "duration": 0.25,
      "velocity": 0.71,
      "hand": "right"
    },
    {
      "midi": 81,
      "time": 646.75,
      "duration": 0.25,
      "velocity": 0.71,
      "hand": "right"
    },
    {
      "midi": 55,
      "time": 647,
      "duration": 0.25,
      "velocity": 0.5,
      "hand": "left"
    },
    {
      "midi": 75,
      "time": 647,
      "duration": 0.25,
      "velocity": 0.71,
      "hand": "right"
    },
    {
      "midi": 78,
      "time": 647,
      "duration": 0.25,
      "velocity": 0.71,
      "hand": "right"
    },
    {
      "midi": 59,
      "time": 647.25,
      "duration": 0.25,
      "velocity": 0.5,
      "hand": "left"
    },
    {
      "midi": 64,
      "time": 647.25,
      "duration": 0.25,
      "velocity": 0.5,
      "hand": "right"
    },
    {
      "midi": 76,
      "time": 647.25,
      "duration": 0.25,
      "velocity": 0.71,
      "hand": "right"
    },
    {
      "midi": 78,
      "time": 647.25,
      "duration": 0.25,
      "velocity": 0.71,
      "hand": "right"
    },
    {
      "midi": 79,
      "time": 647.25,
      "duration": 0.25,
      "velocity": 0.71,
      "hand": "right"
    },
    {
      "midi": 81,
      "time": 647.25,
      "duration": 0.25,
      "velocity": 0.71,
      "hand": "right"
    },
    {
      "midi": 46,
      "time": 647.5,
      "duration": 0.25,
      "velocity": 0.5,
      "hand": "left"
    },
    {
      "midi": 79,
      "time": 647.5,
      "duration": 0.25,
      "velocity": 0.71,
      "hand": "right"
    },
    {
      "midi": 82,
      "time": 647.5,
      "duration": 0.25,
      "velocity": 0.71,
      "hand": "right"
    },
    {
      "midi": 60,
      "time": 647.75,
      "duration": 0.25,
      "velocity": 0.5,
      "hand": "right"
    },
    {
      "midi": 64,
      "time": 647.75,
      "duration": 0.25,
      "velocity": 0.5,
      "hand": "right"
    },
    {
      "midi": 80,
      "time": 647.75,
      "duration": 0.25,
      "velocity": 0.71,
      "hand": "right"
    },
    {
      "midi": 82,
      "time": 647.75,
      "duration": 0.25,
      "velocity": 0.71,
      "hand": "right"
    },
    {
      "midi": 84,
      "time": 647.75,
      "duration": 0.25,
      "velocity": 0.71,
      "hand": "right"
    },
    {
      "midi": 85,
      "time": 647.75,
      "duration": 0.25,
      "velocity": 0.71,
      "hand": "right"
    },
    {
      "midi": 44,
      "time": 648,
      "duration": 0.25,
      "velocity": 0.5,
      "hand": "left"
    },
    {
      "midi": 80,
      "time": 648,
      "duration": 0.25,
      "velocity": 0.71,
      "hand": "right"
    },
    {
      "midi": 84,
      "time": 648,
      "duration": 0.25,
      "velocity": 0.71,
      "hand": "right"
    },
    {
      "midi": 60,
      "time": 648.25,
      "duration": 0.25,
      "velocity": 0.5,
      "hand": "right"
    },
    {
      "midi": 65,
      "time": 648.25,
      "duration": 0.25,
      "velocity": 0.5,
      "hand": "right"
    },
    {
      "midi": 85,
      "time": 648.25,
      "duration": 0.25,
      "velocity": 0.71,
      "hand": "right"
    },
    {
      "midi": 87,
      "time": 648.25,
      "duration": 0.25,
      "velocity": 0.71,
      "hand": "right"
    },
    {
      "midi": 89,
      "time": 648.25,
      "duration": 0.25,
      "velocity": 0.71,
      "hand": "right"
    },
    {
      "midi": 91,
      "time": 648.25,
      "duration": 0.25,
      "velocity": 0.71,
      "hand": "right"
    },
    {
      "midi": 56,
      "time": 648.5,
      "duration": 0.25,
      "velocity": 0.5,
      "hand": "left"
    },
    {
      "midi": 84,
      "time": 648.5,
      "duration": 0.25,
      "velocity": 0.71,
      "hand": "right"
    },
    {
      "midi": 60,
      "time": 648.75,
      "duration": 0.25,
      "velocity": 0.5,
      "hand": "right"
    },
    {
      "midi": 65,
      "time": 648.75,
      "duration": 0.25,
      "velocity": 0.5,
      "hand": "right"
    },
    {
      "midi": 82,
      "time": 648.75,
      "duration": 0.25,
      "velocity": 0.71,
      "hand": "right"
    },
    {
      "midi": 85,
      "time": 648.75,
      "duration": 0.25,
      "velocity": 0.71,
      "hand": "right"
    },
    {
      "midi": 87,
      "time": 648.75,
      "duration": 0.25,
      "velocity": 0.71,
      "hand": "right"
    },
    {
      "midi": 46,
      "time": 649,
      "duration": 0.25,
      "velocity": 0.5,
      "hand": "left"
    },
    {
      "midi": 80,
      "time": 649,
      "duration": 0.25,
      "velocity": 0.71,
      "hand": "right"
    },
    {
      "midi": 61,
      "time": 649.25,
      "duration": 0.25,
      "velocity": 0.5,
      "hand": "right"
    },
    {
      "midi": 65,
      "time": 649.25,
      "duration": 0.25,
      "velocity": 0.5,
      "hand": "right"
    },
    {
      "midi": 79,
      "time": 649.25,
      "duration": 0.25,
      "velocity": 0.71,
      "hand": "right"
    },
    {
      "midi": 82,
      "time": 649.25,
      "duration": 0.25,
      "velocity": 0.71,
      "hand": "right"
    },
    {
      "midi": 84,
      "time": 649.25,
      "duration": 0.25,
      "velocity": 0.71,
      "hand": "right"
    },
    {
      "midi": 48,
      "time": 649.5,
      "duration": 0.25,
      "velocity": 0.5,
      "hand": "left"
    },
    {
      "midi": 72,
      "time": 649.5,
      "duration": 0.25,
      "velocity": 0.71,
      "hand": "right"
    },
    {
      "midi": 60,
      "time": 649.75,
      "duration": 0.25,
      "velocity": 0.5,
      "hand": "right"
    },
    {
      "midi": 65,
      "time": 649.75,
      "duration": 0.25,
      "velocity": 0.5,
      "hand": "right"
    },
    {
      "midi": 77,
      "time": 649.75,
      "duration": 0.25,
      "velocity": 0.71,
      "hand": "right"
    },
    {
      "midi": 79,
      "time": 649.75,
      "duration": 0.25,
      "velocity": 0.71,
      "hand": "right"
    },
    {
      "midi": 80,
      "time": 649.75,
      "duration": 0.25,
      "velocity": 0.71,
      "hand": "right"
    },
    {
      "midi": 82,
      "time": 649.75,
      "duration": 0.25,
      "velocity": 0.71,
      "hand": "right"
    },
    {
      "midi": 56,
      "time": 650,
      "duration": 0.25,
      "velocity": 0.5,
      "hand": "left"
    },
    {
      "midi": 68,
      "time": 650,
      "duration": 0.25,
      "velocity": 0.71,
      "hand": "right"
    },
    {
      "midi": 60,
      "time": 650.25,
      "duration": 0.25,
      "velocity": 0.5,
      "hand": "right"
    },
    {
      "midi": 65,
      "time": 650.25,
      "duration": 0.25,
      "velocity": 0.5,
      "hand": "right"
    },
    {
      "midi": 73,
      "time": 650.25,
      "duration": 0.25,
      "velocity": 0.71,
      "hand": "right"
    },
    {
      "midi": 75,
      "time": 650.25,
      "duration": 0.25,
      "velocity": 0.71,
      "hand": "right"
    },
    {
      "midi": 77,
      "time": 650.25,
      "duration": 0.25,
      "velocity": 0.71,
      "hand": "right"
    },
    {
      "midi": 79,
      "time": 650.25,
      "duration": 0.25,
      "velocity": 0.71,
      "hand": "right"
    },
    {
      "midi": 48,
      "time": 650.5,
      "duration": 0.25,
      "velocity": 0.5,
      "hand": "left"
    },
    {
      "midi": 67,
      "time": 650.5,
      "duration": 0.25,
      "velocity": 0.71,
      "hand": "right"
    },
    {
      "midi": 60,
      "time": 650.75,
      "duration": 0.25,
      "velocity": 0.5,
      "hand": "right"
    },
    {
      "midi": 64,
      "time": 650.75,
      "duration": 0.25,
      "velocity": 0.5,
      "hand": "right"
    },
    {
      "midi": 70,
      "time": 650.75,
      "duration": 0.25,
      "velocity": 0.71,
      "hand": "right"
    },
    {
      "midi": 72,
      "time": 650.75,
      "duration": 0.25,
      "velocity": 0.71,
      "hand": "right"
    },
    {
      "midi": 76,
      "time": 650.75,
      "duration": 0.25,
      "velocity": 0.71,
      "hand": "right"
    },
    {
      "midi": 49,
      "time": 651,
      "duration": 1,
      "velocity": 0.71,
      "hand": "left"
    },
    {
      "midi": 70,
      "time": 651,
      "duration": 0.25,
      "velocity": 0.71,
      "hand": "right"
    },
    {
      "midi": 56,
      "time": 651.25,
      "duration": 0.25,
      "velocity": 0.71,
      "hand": "left"
    },
    {
      "midi": 61,
      "time": 651.25,
      "duration": 0.25,
      "velocity": 0.71,
      "hand": "right"
    },
    {
      "midi": 68,
      "time": 651.25,
      "duration": 0.25,
      "velocity": 0.71,
      "hand": "right"
    },
    {
      "midi": 76,
      "time": 651.25,
      "duration": 0.25,
      "velocity": 0.71,
      "hand": "right"
    },
    {
      "midi": 77,
      "time": 651.25,
      "duration": 0.25,
      "velocity": 0.71,
      "hand": "right"
    },
    {
      "midi": 79,
      "time": 651.25,
      "duration": 0.25,
      "velocity": 0.71,
      "hand": "right"
    },
    {
      "midi": 53,
      "time": 651.5,
      "duration": 0.25,
      "velocity": 0.71,
      "hand": "left"
    },
    {
      "midi": 77,
      "time": 651.5,
      "duration": 0.25,
      "velocity": 0.71,
      "hand": "right"
    },
    {
      "midi": 56,
      "time": 651.75,
      "duration": 0.25,
      "velocity": 0.71,
      "hand": "left"
    },
    {
      "midi": 61,
      "time": 651.75,
      "duration": 0.25,
      "velocity": 0.71,
      "hand": "right"
    },
    {
      "midi": 70,
      "time": 651.75,
      "duration": 0.25,
      "velocity": 0.71,
      "hand": "right"
    },
    {
      "midi": 73,
      "time": 651.75,
      "duration": 0.25,
      "velocity": 0.71,
      "hand": "right"
    },
    {
      "midi": 75,
      "time": 651.75,
      "duration": 0.25,
      "velocity": 0.71,
      "hand": "right"
    },
    {
      "midi": 46,
      "time": 652,
      "duration": 0.5,
      "velocity": 0.71,
      "hand": "left"
    },
    {
      "midi": 68,
      "time": 652,
      "duration": 0.25,
      "velocity": 0.71,
      "hand": "right"
    },
    {
      "midi": 55,
      "time": 652.25,
      "duration": 0.25,
      "velocity": 0.71,
      "hand": "left"
    },
    {
      "midi": 61,
      "time": 652.25,
      "duration": 0.25,
      "velocity": 0.71,
      "hand": "right"
    },
    {
      "midi": 67,
      "time": 652.25,
      "duration": 0.25,
      "velocity": 0.71,
      "hand": "right"
    },
    {
      "midi": 70,
      "time": 652.25,
      "duration": 0.25,
      "velocity": 0.71,
      "hand": "right"
    },
    {
      "midi": 72,
      "time": 652.25,
      "duration": 0.25,
      "velocity": 0.71,
      "hand": "right"
    },
    {
      "midi": 48,
      "time": 652.5,
      "duration": 0.25,
      "velocity": 0.71,
      "hand": "left"
    },
    {
      "midi": 65,
      "time": 652.5,
      "duration": 1,
      "velocity": 0.71,
      "hand": "right"
    },
    {
      "midi": 68,
      "time": 652.5,
      "duration": 0.5,
      "velocity": 0.71,
      "hand": "right"
    },
    {
      "midi": 60,
      "time": 652.75,
      "duration": 0.25,
      "velocity": 0.71,
      "hand": "right"
    },
    {
      "midi": 61,
      "time": 652.75,
      "duration": 0.25,
      "velocity": 0.71,
      "hand": "right"
    },
    {
      "midi": 60,
      "time": 653,
      "duration": 0.25,
      "velocity": 0.71,
      "hand": "right"
    },
    {
      "midi": 67,
      "time": 653,
      "duration": 1,
      "velocity": 0.71,
      "hand": "right"
    },
    {
      "midi": 59,
      "time": 653.25,
      "duration": 0.25,
      "velocity": 0.71,
      "hand": "left"
    },
    {
      "midi": 60,
      "time": 653.25,
      "duration": 0.25,
      "velocity": 0.71,
      "hand": "right"
    },
    {
      "midi": 55,
      "time": 653.5,
      "duration": 0.25,
      "velocity": 0.71,
      "hand": "left"
    },
    {
      "midi": 64,
      "time": 653.5,
      "duration": 0.5,
      "velocity": 0.71,
      "hand": "right"
    },
    {
      "midi": 57,
      "time": 653.75,
      "duration": 0.25,
      "velocity": 0.71,
      "hand": "left"
    },
    {
      "midi": 60,
      "time": 653.75,
      "duration": 0.25,
      "velocity": 0.71,
      "hand": "right"
    },
    {
      "midi": 58,
      "time": 654,
      "duration": 0.25,
      "velocity": 0.5,
      "hand": "left"
    },
    {
      "midi": 62,
      "time": 654,
      "duration": 0.5,
      "velocity": 0.71,
      "hand": "right"
    },
    {
      "midi": 63,
      "time": 654,
      "duration": 0.25,
      "velocity": 0.71,
      "hand": "right"
    },
    {
      "midi": 65,
      "time": 654,
      "duration": 0.5,
      "velocity": 0.71,
      "hand": "right"
    },
    {
      "midi": 72,
      "time": 654,
      "duration": 0.25,
      "velocity": 0.71,
      "hand": "right"
    },
    {
      "midi": 53,
      "time": 654.25,
      "duration": 0.25,
      "velocity": 0.5,
      "hand": "left"
    },
    {
      "midi": 55,
      "time": 654.25,
      "duration": 0.25,
      "velocity": 0.5,
      "hand": "left"
    },
    {
      "midi": 56,
      "time": 654.5,
      "duration": 0.25,
      "velocity": 0.5,
      "hand": "left"
    },
    {
      "midi": 60,
      "time": 654.5,
      "duration": 0.5,
      "velocity": 0.71,
      "hand": "right"
    },
    {
      "midi": 61,
      "time": 654.5,
      "duration": 0.25,
      "velocity": 0.71,
      "hand": "right"
    },
    {
      "midi": 63,
      "time": 654.5,
      "duration": 0.5,
      "velocity": 0.71,
      "hand": "right"
    },
    {
      "midi": 70,
      "time": 654.5,
      "duration": 0.25,
      "velocity": 0.71,
      "hand": "right"
    },
    {
      "midi": 51,
      "time": 654.75,
      "duration": 0.25,
      "velocity": 0.5,
      "hand": "left"
    },
    {
      "midi": 53,
      "time": 654.75,
      "duration": 0.25,
      "velocity": 0.5,
      "hand": "left"
    },
    {
      "midi": 55,
      "time": 655,
      "duration": 0.25,
      "velocity": 0.5,
      "hand": "left"
    },
    {
      "midi": 59,
      "time": 655,
      "duration": 0.5,
      "velocity": 0.71,
      "hand": "left"
    },
    {
      "midi": 60,
      "time": 655,
      "duration": 0.25,
      "velocity": 0.71,
      "hand": "right"
    },
    {
      "midi": 62,
      "time": 655,
      "duration": 0.5,
      "velocity": 0.71,
      "hand": "right"
    },
    {
      "midi": 68,
      "time": 655,
      "duration": 0.25,
      "velocity": 0.71,
      "hand": "right"
    },
    {
      "midi": 50,
      "time": 655.25,
      "duration": 0.25,
      "velocity": 0.5,
      "hand": "left"
    },
    {
      "midi": 52,
      "time": 655.25,
      "duration": 0.25,
      "velocity": 0.5,
      "hand": "left"
    },
    {
      "midi": 53,
      "time": 655.5,
      "duration": 0.25,
      "velocity": 0.5,
      "hand": "left"
    },
    {
      "midi": 57,
      "time": 655.5,
      "duration": 0.5,
      "velocity": 0.71,
      "hand": "left"
    },
    {
      "midi": 58,
      "time": 655.5,
      "duration": 0.25,
      "velocity": 0.71,
      "hand": "left"
    },
    {
      "midi": 60,
      "time": 655.5,
      "duration": 0.5,
      "velocity": 0.71,
      "hand": "right"
    },
    {
      "midi": 67,
      "time": 655.5,
      "duration": 0.25,
      "velocity": 0.71,
      "hand": "right"
    },
    {
      "midi": 48,
      "time": 655.75,
      "duration": 0.25,
      "velocity": 0.5,
      "hand": "left"
    },
    {
      "midi": 49,
      "time": 655.75,
      "duration": 0.25,
      "velocity": 0.5,
      "hand": "left"
    },
    {
      "midi": 46,
      "time": 656,
      "duration": 0.25,
      "velocity": 0.5,
      "hand": "left"
    },
    {
      "midi": 55,
      "time": 656,
      "duration": 0.5,
      "velocity": 0.71,
      "hand": "left"
    },
    {
      "midi": 56,
      "time": 656,
      "duration": 0.25,
      "velocity": 0.71,
      "hand": "left"
    },
    {
      "midi": 61,
      "time": 656,
      "duration": 0.5,
      "velocity": 0.71,
      "hand": "right"
    },
    {
      "midi": 65,
      "time": 656,
      "duration": 0.25,
      "velocity": 0.71,
      "hand": "right"
    },
    {
      "midi": 65,
      "time": 656,
      "duration": 0.5,
      "velocity": 0.71,
      "hand": "right"
    },
    {
      "midi": 45,
      "time": 656.25,
      "duration": 0.25,
      "velocity": 0.5,
      "hand": "left"
    },
    {
      "midi": 46,
      "time": 656.25,
      "duration": 0.25,
      "velocity": 0.5,
      "hand": "left"
    },
    {
      "midi": 48,
      "time": 656.5,
      "duration": 0.25,
      "velocity": 0.5,
      "hand": "left"
    },
    {
      "midi": 55,
      "time": 656.5,
      "duration": 0.5,
      "velocity": 0.71,
      "hand": "left"
    },
    {
      "midi": 60,
      "time": 656.5,
      "duration": 0.5,
      "velocity": 0.71,
      "hand": "right"
    },
    {
      "midi": 64,
      "time": 656.5,
      "duration": 0.5,
      "velocity": 0.71,
      "hand": "right"
    },
    {
      "midi": 47,
      "time": 656.75,
      "duration": 0.25,
      "velocity": 0.5,
      "hand": "left"
    },
    {
      "midi": 48,
      "time": 656.75,
      "duration": 0.25,
      "velocity": 0.5,
      "hand": "left"
    },
    {
      "midi": 45,
      "time": 657,
      "duration": 0.25,
      "velocity": 0.5,
      "hand": "left"
    },
    {
      "midi": 53,
      "time": 657,
      "duration": 1,
      "velocity": 0.71,
      "hand": "left"
    },
    {
      "midi": 60,
      "time": 657,
      "duration": 0.5,
      "velocity": 0.71,
      "hand": "right"
    },
    {
      "midi": 63,
      "time": 657,
      "duration": 0.5,
      "velocity": 0.71,
      "hand": "right"
    },
    {
      "midi": 44,
      "time": 657.25,
      "duration": 0.25,
      "velocity": 0.5,
      "hand": "left"
    },
    {
      "midi": 45,
      "time": 657.25,
      "duration": 0.25,
      "velocity": 0.5,
      "hand": "left"
    },
    {
      "midi": 46,
      "time": 657.5,
      "duration": 0.25,
      "velocity": 0.5,
      "hand": "left"
    },
    {
      "midi": 58,
      "time": 657.5,
      "duration": 1,
      "velocity": 0.71,
      "hand": "left"
    },
    {
      "midi": 61,
      "time": 657.5,
      "duration": 1,
      "velocity": 0.71,
      "hand": "right"
    },
    {
      "midi": 44,
      "time": 657.75,
      "duration": 0.25,
      "velocity": 0.5,
      "hand": "left"
    },
    {
      "midi": 48,
      "time": 657.75,
      "duration": 0.25,
      "velocity": 0.5,
      "hand": "left"
    },
    {
      "midi": 43,
      "time": 658,
      "duration": 0.25,
      "velocity": 0.5,
      "hand": "left"
    },
    {
      "midi": 52,
      "time": 658,
      "duration": 0.5,
      "velocity": 0.71,
      "hand": "left"
    },
    {
      "midi": 41,
      "time": 658.25,
      "duration": 0.25,
      "velocity": 0.5,
      "hand": "left"
    },
    {
      "midi": 44,
      "time": 658.25,
      "duration": 0.25,
      "velocity": 0.5,
      "hand": "left"
    },
    {
      "midi": 40,
      "time": 658.5,
      "duration": 0.25,
      "velocity": 0.5,
      "hand": "left"
    },
    {
      "midi": 53,
      "time": 658.5,
      "duration": 0.25,
      "velocity": 0.71,
      "hand": "left"
    },
    {
      "midi": 55,
      "time": 658.5,
      "duration": 0.5,
      "velocity": 0.71,
      "hand": "left"
    },
    {
      "midi": 58,
      "time": 658.5,
      "duration": 0.5,
      "velocity": 0.71,
      "hand": "left"
    },
    {
      "midi": 60,
      "time": 658.5,
      "duration": 1,
      "velocity": 0.71,
      "hand": "right"
    },
    {
      "midi": 41,
      "time": 658.75,
      "duration": 0.25,
      "velocity": 0.5,
      "hand": "left"
    },
    {
      "midi": 43,
      "time": 658.75,
      "duration": 0.25,
      "velocity": 0.5,
      "hand": "left"
    },
    {
      "midi": 41,
      "time": 659,
      "duration": 0.25,
      "velocity": 0.5,
      "hand": "left"
    },
    {
      "midi": 53,
      "time": 659,
      "duration": 0.5,
      "velocity": 0.71,
      "hand": "left"
    },
    {
      "midi": 56,
      "time": 659,
      "duration": 0.5,
      "velocity": 0.71,
      "hand": "left"
    },
    {
      "midi": 39,
      "time": 659.25,
      "duration": 0.25,
      "velocity": 0.5,
      "hand": "left"
    },
    {
      "midi": 43,
      "time": 659.25,
      "duration": 0.25,
      "velocity": 0.5,
      "hand": "left"
    },
    {
      "midi": 37,
      "time": 659.5,
      "duration": 0.25,
      "velocity": 0.5,
      "hand": "left"
    },
    {
      "midi": 53,
      "time": 659.5,
      "duration": 0.5,
      "velocity": 0.71,
      "hand": "left"
    },
    {
      "midi": 56,
      "time": 659.5,
      "duration": 0.5,
      "velocity": 0.71,
      "hand": "left"
    },
    {
      "midi": 65,
      "time": 659.5,
      "duration": 0.5,
      "velocity": 0.71,
      "hand": "right"
    },
    {
      "midi": 36,
      "time": 659.75,
      "duration": 0.25,
      "velocity": 0.5,
      "hand": "left"
    },
    {
      "midi": 39,
      "time": 659.75,
      "duration": 0.25,
      "velocity": 0.5,
      "hand": "left"
    },
    {
      "midi": 34,
      "time": 660,
      "duration": 0.25,
      "velocity": 0.5,
      "hand": "left"
    },
    {
      "midi": 53,
      "time": 660,
      "duration": 0.5,
      "velocity": 0.71,
      "hand": "left"
    },
    {
      "midi": 55,
      "time": 660,
      "duration": 0.5,
      "velocity": 0.71,
      "hand": "left"
    },
    {
      "midi": 65,
      "time": 660,
      "duration": 0.5,
      "velocity": 0.71,
      "hand": "right"
    },
    {
      "midi": 36,
      "time": 660.25,
      "duration": 0.25,
      "velocity": 0.5,
      "hand": "left"
    },
    {
      "midi": 37,
      "time": 660.25,
      "duration": 0.25,
      "velocity": 0.5,
      "hand": "left"
    },
    {
      "midi": 36,
      "time": 660.5,
      "duration": 0.25,
      "velocity": 0.5,
      "hand": "left"
    },
    {
      "midi": 51,
      "time": 660.5,
      "duration": 0.5,
      "velocity": 0.71,
      "hand": "left"
    },
    {
      "midi": 57,
      "time": 660.5,
      "duration": 0.5,
      "velocity": 0.71,
      "hand": "left"
    },
    {
      "midi": 39,
      "time": 660.75,
      "duration": 0.25,
      "velocity": 0.5,
      "hand": "left"
    },
    {
      "midi": 41,
      "time": 660.75,
      "duration": 0.25,
      "velocity": 0.5,
      "hand": "left"
    },
    {
      "midi": 37,
      "time": 661,
      "duration": 0.25,
      "velocity": 0.5,
      "hand": "left"
    },
    {
      "midi": 53,
      "time": 661,
      "duration": 0.5,
      "velocity": 0.71,
      "hand": "left"
    },
    {
      "midi": 58,
      "time": 661,
      "duration": 0.5,
      "velocity": 0.71,
      "hand": "left"
    },
    {
      "midi": 39,
      "time": 661.25,
      "duration": 0.25,
      "velocity": 0.5,
      "hand": "left"
    },
    {
      "midi": 41,
      "time": 661.25,
      "duration": 0.25,
      "velocity": 0.5,
      "hand": "left"
    },
    {
      "midi": 40,
      "time": 661.5,
      "duration": 0.25,
      "velocity": 0.5,
      "hand": "left"
    },
    {
      "midi": 55,
      "time": 661.5,
      "duration": 0.5,
      "velocity": 0.71,
      "hand": "left"
    },
    {
      "midi": 58,
      "time": 661.5,
      "duration": 0.5,
      "velocity": 0.71,
      "hand": "left"
    },
    {
      "midi": 60,
      "time": 661.5,
      "duration": 0.5,
      "velocity": 0.71,
      "hand": "right"
    },
    {
      "midi": 41,
      "time": 661.75,
      "duration": 0.25,
      "velocity": 0.5,
      "hand": "left"
    },
    {
      "midi": 43,
      "time": 661.75,
      "duration": 0.25,
      "velocity": 0.5,
      "hand": "left"
    },
    {
      "midi": 41,
      "time": 662,
      "duration": 0.25,
      "velocity": 0.5,
      "hand": "left"
    },
    {
      "midi": 56,
      "time": 662,
      "duration": 0.5,
      "velocity": 0.71,
      "hand": "left"
    },
    {
      "midi": 60,
      "time": 662,
      "duration": 0.5,
      "velocity": 0.71,
      "hand": "right"
    },
    {
      "midi": 68,
      "time": 662,
      "duration": 0.5,
      "velocity": 0.71,
      "hand": "right"
    },
    {
      "midi": 44,
      "time": 662.25,
      "duration": 0.25,
      "velocity": 0.5,
      "hand": "left"
    },
    {
      "midi": 46,
      "time": 662.25,
      "duration": 0.25,
      "velocity": 0.5,
      "hand": "left"
    },
    {
      "midi": 43,
      "time": 662.5,
      "duration": 0.25,
      "velocity": 0.5,
      "hand": "left"
    },
    {
      "midi": 58,
      "time": 662.5,
      "duration": 0.5,
      "velocity": 0.71,
      "hand": "left"
    },
    {
      "midi": 60,
      "time": 662.5,
      "duration": 0.5,
      "velocity": 0.71,
      "hand": "right"
    },
    {
      "midi": 64,
      "time": 662.5,
      "duration": 0.5,
      "velocity": 0.71,
      "hand": "right"
    },
    {
      "midi": 44,
      "time": 662.75,
      "duration": 0.25,
      "velocity": 0.5,
      "hand": "left"
    },
    {
      "midi": 46,
      "time": 662.75,
      "duration": 0.25,
      "velocity": 0.5,
      "hand": "left"
    },
    {
      "midi": 44,
      "time": 663,
      "duration": 0.25,
      "velocity": 0.5,
      "hand": "left"
    },
    {
      "midi": 56,
      "time": 663,
      "duration": 0.5,
      "velocity": 0.71,
      "hand": "left"
    },
    {
      "midi": 60,
      "time": 663,
      "duration": 0.5,
      "velocity": 0.71,
      "hand": "right"
    },
    {
      "midi": 65,
      "time": 663,
      "duration": 0.5,
      "velocity": 0.71,
      "hand": "right"
    },
    {
      "midi": 46,
      "time": 663.25,
      "duration": 0.25,
      "velocity": 0.5,
      "hand": "left"
    },
    {
      "midi": 48,
      "time": 663.25,
      "duration": 0.25,
      "velocity": 0.5,
      "hand": "left"
    },
    {
      "midi": 45,
      "time": 663.5,
      "duration": 0.25,
      "velocity": 0.5,
      "hand": "left"
    },
    {
      "midi": 54,
      "time": 663.5,
      "duration": 0.5,
      "velocity": 0.71,
      "hand": "left"
    },
    {
      "midi": 60,
      "time": 663.5,
      "duration": 0.5,
      "velocity": 0.71,
      "hand": "right"
    },
    {
      "midi": 63,
      "time": 663.5,
      "duration": 0.5,
      "velocity": 0.71,
      "hand": "right"
    },
    {
      "midi": 44,
      "time": 663.75,
      "duration": 0.25,
      "velocity": 0.5,
      "hand": "left"
    },
    {
      "midi": 45,
      "time": 663.75,
      "duration": 0.25,
      "velocity": 0.5,
      "hand": "left"
    },
    {
      "midi": 46,
      "time": 664,
      "duration": 0.25,
      "velocity": 0.5,
      "hand": "left"
    },
    {
      "midi": 53,
      "time": 664,
      "duration": 0.5,
      "velocity": 0.71,
      "hand": "left"
    },
    {
      "midi": 58,
      "time": 664,
      "duration": 0.5,
      "velocity": 0.71,
      "hand": "left"
    },
    {
      "midi": 61,
      "time": 664,
      "duration": 0.5,
      "velocity": 0.71,
      "hand": "right"
    },
    {
      "midi": 48,
      "time": 664.25,
      "duration": 0.25,
      "velocity": 0.5,
      "hand": "left"
    },
    {
      "midi": 49,
      "time": 664.25,
      "duration": 0.25,
      "velocity": 0.5,
      "hand": "left"
    },
    {
      "midi": 48,
      "time": 664.5,
      "duration": 0.25,
      "velocity": 0.5,
      "hand": "left"
    },
    {
      "midi": 53,
      "time": 664.5,
      "duration": 1,
      "velocity": 0.71,
      "hand": "left"
    },
    {
      "midi": 56,
      "time": 664.5,
      "duration": 1,
      "velocity": 0.71,
      "hand": "left"
    },
    {
      "midi": 60,
      "time": 664.5,
      "duration": 1,
      "velocity": 0.71,
      "hand": "right"
    },
    {
      "midi": 41,
      "time": 664.75,
      "duration": 0.25,
      "velocity": 0.5,
      "hand": "left"
    },
    {
      "midi": 44,
      "time": 664.75,
      "duration": 0.25,
      "velocity": 0.5,
      "hand": "left"
    },
    {
      "midi": 37,
      "time": 665,
      "duration": 0.25,
      "velocity": 0.5,
      "hand": "left"
    },
    {
      "midi": 36,
      "time": 665.25,
      "duration": 0.25,
      "velocity": 0.5,
      "hand": "left"
    },
    {
      "midi": 37,
      "time": 665.25,
      "duration": 0.25,
      "velocity": 0.5,
      "hand": "left"
    },
    {
      "midi": 36,
      "time": 665.5,
      "duration": 0.25,
      "velocity": 0.5,
      "hand": "left"
    },
    {
      "midi": 52,
      "time": 665.5,
      "duration": 0.5,
      "velocity": 0.71,
      "hand": "left"
    },
    {
      "midi": 58,
      "time": 665.5,
      "duration": 0.5,
      "velocity": 0.71,
      "hand": "left"
    },
    {
      "midi": 60,
      "time": 665.5,
      "duration": 0.5,
      "velocity": 0.71,
      "hand": "right"
    },
    {
      "midi": 43,
      "time": 665.75,
      "duration": 0.25,
      "velocity": 0.5,
      "hand": "left"
    },
    {
      "midi": 44,
      "time": 665.75,
      "duration": 0.25,
      "velocity": 0.5,
      "hand": "left"
    },
    {
      "midi": 41,
      "time": 666,
      "duration": 0.5,
      "velocity": 0.5,
      "hand": "left"
    },
    {
      "midi": 48,
      "time": 666,
      "duration": 0.5,
      "velocity": 0.5,
      "hand": "left"
    },
    {
      "midi": 56,
      "time": 666,
      "duration": 0.25,
      "velocity": 0.71,
      "hand": "left"
    },
    {
      "midi": 65,
      "time": 666,
      "duration": 0.25,
      "velocity": 0.71,
      "hand": "right"
    },
    {
      "midi": 57,
      "time": 666.25,
      "duration": 0.25,
      "velocity": 0.71,
      "hand": "left"
    },
    {
      "midi": 60,
      "time": 666.25,
      "duration": 0.25,
      "velocity": 0.71,
      "hand": "right"
    },
    {
      "midi": 66,
      "time": 666.25,
      "duration": 0.25,
      "velocity": 0.71,
      "hand": "right"
    },
    {
      "midi": 51,
      "time": 666.5,
      "duration": 0.25,
      "velocity": 0.5,
      "hand": "left"
    },
    {
      "midi": 54,
      "time": 666.5,
      "duration": 0.5,
      "velocity": 0.5,
      "hand": "left"
    },
    {
      "midi": 62,
      "time": 666.5,
      "duration": 0.25,
      "velocity": 0.71,
      "hand": "right"
    },
    {
      "midi": 69,
      "time": 666.5,
      "duration": 0.25,
      "velocity": 0.71,
      "hand": "right"
    },
    {
      "midi": 63,
      "time": 666.75,
      "duration": 0.25,
      "velocity": 0.71,
      "hand": "right"
    },
    {
      "midi": 66,
      "time": 666.75,
      "duration": 0.25,
      "velocity": 0.71,
      "hand": "right"
    },
    {
      "midi": 72,
      "time": 666.75,
      "duration": 0.25,
      "velocity": 0.71,
      "hand": "right"
    },
    {
      "midi": 57,
      "time": 667,
      "duration": 0.25,
      "velocity": 0.5,
      "hand": "left"
    },
    {
      "midi": 60,
      "time": 667,
      "duration": 0.5,
      "velocity": 0.5,
      "hand": "right"
    },
    {
      "midi": 68,
      "time": 667,
      "duration": 0.25,
      "velocity": 0.71,
      "hand": "right"
    },
    {
      "midi": 75,
      "time": 667,
      "duration": 0.25,
      "velocity": 0.71,
      "hand": "right"
    },
    {
      "midi": 69,
      "time": 667.25,
      "duration": 0.25,
      "velocity": 0.71,
      "hand": "right"
    },
    {
      "midi": 72,
      "time": 667.25,
      "duration": 0.25,
      "velocity": 0.71,
      "hand": "right"
    },
    {
      "midi": 78,
      "time": 667.25,
      "duration": 0.25,
      "velocity": 0.71,
      "hand": "right"
    },
    {
      "midi": 63,
      "time": 667.5,
      "duration": 0.25,
      "velocity": 0.5,
      "hand": "right"
    },
    {
      "midi": 66,
      "time": 667.5,
      "duration": 0.5,
      "velocity": 0.5,
      "hand": "right"
    },
    {
      "midi": 74,
      "time": 667.5,
      "duration": 0.25,
      "velocity": 0.71,
      "hand": "right"
    },
    {
      "midi": 81,
      "time": 667.5,
      "duration": 0.25,
      "velocity": 0.71,
      "hand": "right"
    },
    {
      "midi": 75,
      "time": 667.75,
      "duration": 0.25,
      "velocity": 0.71,
      "hand": "right"
    },
    {
      "midi": 78,
      "time": 667.75,
      "duration": 0.25,
      "velocity": 0.71,
      "hand": "right"
    },
    {
      "midi": 84,
      "time": 667.75,
      "duration": 0.25,
      "velocity": 0.71,
      "hand": "right"
    },
    {
      "midi": 69,
      "time": 668,
      "duration": 0.25,
      "velocity": 0.5,
      "hand": "right"
    },
    {
      "midi": 72,
      "time": 668,
      "duration": 0.5,
      "velocity": 0.5,
      "hand": "right"
    },
    {
      "midi": 80,
      "time": 668,
      "duration": 0.25,
      "velocity": 0.71,
      "hand": "right"
    },
    {
      "midi": 87,
      "time": 668,
      "duration": 0.25,
      "velocity": 0.71,
      "hand": "right"
    },
    {
      "midi": 81,
      "time": 668.25,
      "duration": 0.25,
      "velocity": 0.71,
      "hand": "right"
    },
    {
      "midi": 84,
      "time": 668.25,
      "duration": 0.25,
      "velocity": 0.71,
      "hand": "right"
    },
    {
      "midi": 90,
      "time": 668.25,
      "duration": 0.25,
      "velocity": 0.71,
      "hand": "right"
    },
    {
      "midi": 75,
      "time": 668.5,
      "duration": 0.25,
      "velocity": 0.5,
      "hand": "right"
    },
    {
      "midi": 78,
      "time": 668.5,
      "duration": 0.5,
      "velocity": 0.5,
      "hand": "right"
    },
    {
      "midi": 86,
      "time": 668.5,
      "duration": 0.25,
      "velocity": 0.71,
      "hand": "right"
    },
    {
      "midi": 93,
      "time": 668.5,
      "duration": 0.25,
      "velocity": 0.71,
      "hand": "right"
    },
    {
      "midi": 87,
      "time": 668.75,
      "duration": 0.25,
      "velocity": 0.71,
      "hand": "right"
    },
    {
      "midi": 90,
      "time": 668.75,
      "duration": 0.25,
      "velocity": 0.71,
      "hand": "right"
    },
    {
      "midi": 96,
      "time": 668.75,
      "duration": 0.25,
      "velocity": 0.71,
      "hand": "right"
    },
    {
      "midi": 81,
      "time": 669,
      "duration": 0.25,
      "velocity": 0.5,
      "hand": "right"
    },
    {
      "midi": 84,
      "time": 669,
      "duration": 0.5,
      "velocity": 0.5,
      "hand": "right"
    },
    {
      "midi": 93,
      "time": 669,
      "duration": 0.5,
      "velocity": 0.5,
      "hand": "right"
    },
    {
      "midi": 99,
      "time": 669,
      "duration": 0.5,
      "velocity": 0.5,
      "hand": "right"
    },
    {
      "midi": 42,
      "time": 669.5,
      "duration": 0.25,
      "velocity": 0.5,
      "hand": "left"
    },
    {
      "midi": 54,
      "time": 669.5,
      "duration": 0.25,
      "velocity": 0.5,
      "hand": "left"
    },
    {
      "midi": 57,
      "time": 669.5,
      "duration": 0.5,
      "velocity": 0.71,
      "hand": "left"
    },
    {
      "midi": 60,
      "time": 669.5,
      "duration": 0.5,
      "velocity": 0.71,
      "hand": "right"
    },
    {
      "midi": 63,
      "time": 669.5,
      "duration": 0.25,
      "velocity": 0.71,
      "hand": "right"
    },
    {
      "midi": 69,
      "time": 669.5,
      "duration": 0.5,
      "velocity": 0.71,
      "hand": "right"
    },
    {
      "midi": 39,
      "time": 669.75,
      "duration": 0.25,
      "velocity": 0.5,
      "hand": "left"
    },
    {
      "midi": 41,
      "time": 669.75,
      "duration": 0.25,
      "velocity": 0.5,
      "hand": "left"
    },
    {
      "midi": 51,
      "time": 669.75,
      "duration": 0.25,
      "velocity": 0.5,
      "hand": "left"
    },
    {
      "midi": 53,
      "time": 669.75,
      "duration": 0.25,
      "velocity": 0.5,
      "hand": "left"
    },
    {
      "midi": 65,
      "time": 669.75,
      "duration": 0.25,
      "velocity": 0.71,
      "hand": "right"
    },
    {
      "midi": 66,
      "time": 669.75,
      "duration": 0.25,
      "velocity": 0.71,
      "hand": "right"
    },
    {
      "midi": 37,
      "time": 670,
      "duration": 0.25,
      "velocity": 0.5,
      "hand": "left"
    },
    {
      "midi": 49,
      "time": 670,
      "duration": 0.25,
      "velocity": 0.5,
      "hand": "left"
    },
    {
      "midi": 58,
      "time": 670,
      "duration": 0.5,
      "velocity": 0.71,
      "hand": "left"
    },
    {
      "midi": 65,
      "time": 670,
      "duration": 0.5,
      "velocity": 0.71,
      "hand": "right"
    },
    {
      "midi": 70,
      "time": 670,
      "duration": 0.5,
      "velocity": 0.71,
      "hand": "right"
    },
    {
      "midi": 34,
      "time": 670.25,
      "duration": 0.25,
      "velocity": 0.5,
      "hand": "left"
    },
    {
      "midi": 36,
      "time": 670.25,
      "duration": 0.25,
      "velocity": 0.5,
      "hand": "left"
    },
    {
      "midi": 46,
      "time": 670.25,
      "duration": 0.25,
      "velocity": 0.5,
      "hand": "left"
    },
    {
      "midi": 48,
      "time": 670.25,
      "duration": 0.25,
      "velocity": 0.5,
      "hand": "left"
    },
    {
      "midi": 32,
      "time": 670.5,
      "duration": 0.25,
      "velocity": 0.5,
      "hand": "left"
    },
    {
      "midi": 44,
      "time": 670.5,
      "duration": 0.25,
      "velocity": 0.5,
      "hand": "left"
    },
    {
      "midi": 61,
      "time": 670.5,
      "duration": 0.5,
      "velocity": 0.71,
      "hand": "right"
    },
    {
      "midi": 65,
      "time": 670.5,
      "duration": 0.5,
      "velocity": 0.71,
      "hand": "right"
    },
    {
      "midi": 70,
      "time": 670.5,
      "duration": 0.5,
      "velocity": 0.71,
      "hand": "right"
    },
    {
      "midi": 73,
      "time": 670.5,
      "duration": 0.5,
      "velocity": 0.71,
      "hand": "right"
    },
    {
      "midi": 31,
      "time": 670.75,
      "duration": 0.25,
      "velocity": 0.5,
      "hand": "left"
    },
    {
      "midi": 43,
      "time": 670.75,
      "duration": 0.25,
      "velocity": 0.5,
      "hand": "left"
    },
    {
      "midi": 31,
      "time": 671,
      "duration": 0.25,
      "velocity": 0.5,
      "hand": "left"
    },
    {
      "midi": 43,
      "time": 671,
      "duration": 0.25,
      "velocity": 0.5,
      "hand": "left"
    },
    {
      "midi": 60,
      "time": 671,
      "duration": 0.5,
      "velocity": 0.71,
      "hand": "right"
    },
    {
      "midi": 64,
      "time": 671,
      "duration": 0.5,
      "velocity": 0.71,
      "hand": "right"
    },
    {
      "midi": 70,
      "time": 671,
      "duration": 0.5,
      "velocity": 0.71,
      "hand": "right"
    },
    {
      "midi": 72,
      "time": 671,
      "duration": 0.5,
      "velocity": 0.71,
      "hand": "right"
    },
    {
      "midi": 24,
      "time": 671.25,
      "duration": 0.25,
      "velocity": 0.5,
      "hand": "left"
    },
    {
      "midi": 36,
      "time": 671.25,
      "duration": 0.25,
      "velocity": 0.5,
      "hand": "left"
    },
    {
      "midi": 25,
      "time": 671.5,
      "duration": 0.25,
      "velocity": 0.5,
      "hand": "left"
    },
    {
      "midi": 37,
      "time": 671.5,
      "duration": 0.25,
      "velocity": 0.5,
      "hand": "left"
    },
    {
      "midi": 52,
      "time": 671.5,
      "duration": 0.5,
      "velocity": 0.71,
      "hand": "left"
    },
    {
      "midi": 58,
      "time": 671.5,
      "duration": 0.5,
      "velocity": 0.71,
      "hand": "left"
    },
    {
      "midi": 64,
      "time": 671.5,
      "duration": 0.5,
      "velocity": 0.71,
      "hand": "right"
    },
    {
      "midi": 24,
      "time": 671.75,
      "duration": 0.25,
      "velocity": 0.5,
      "hand": "left"
    },
    {
      "midi": 36,
      "time": 671.75,
      "duration": 0.25,
      "velocity": 0.5,
      "hand": "left"
    },
    {
      "midi": 29,
      "time": 672,
      "duration": 0.25,
      "velocity": 0.5,
      "hand": "left"
    },
    {
      "midi": 41,
      "time": 672,
      "duration": 0.25,
      "velocity": 0.5,
      "hand": "left"
    },
    {
      "midi": 56,
      "time": 672,
      "duration": 0.25,
      "velocity": 0.5,
      "hand": "left"
    },
    {
      "midi": 65,
      "time": 672,
      "duration": 0.25,
      "velocity": 0.5,
      "hand": "right"
    },
    {
      "midi": 51,
      "time": 672.25,
      "duration": 0.25,
      "velocity": 0.5,
      "hand": "left"
    },
    {
      "midi": 57,
      "time": 672.25,
      "duration": 0.25,
      "velocity": 0.5,
      "hand": "left"
    },
    {
      "midi": 60,
      "time": 672.25,
      "duration": 0.25,
      "velocity": 0.51,
      "hand": "right"
    },
    {
      "midi": 66,
      "time": 672.25,
      "duration": 0.25,
      "velocity": 0.51,
      "hand": "right"
    },
    {
      "midi": 54,
      "time": 672.5,
      "duration": 0.5,
      "velocity": 0.5,
      "hand": "left"
    },
    {
      "midi": 62,
      "time": 672.5,
      "duration": 0.25,
      "velocity": 0.53,
      "hand": "right"
    },
    {
      "midi": 69,
      "time": 672.5,
      "duration": 0.25,
      "velocity": 0.53,
      "hand": "right"
    },
    {
      "midi": 63,
      "time": 672.75,
      "duration": 0.25,
      "velocity": 0.54,
      "hand": "right"
    },
    {
      "midi": 67,
      "time": 672.75,
      "duration": 0.25,
      "velocity": 0.55,
      "hand": "right"
    },
    {
      "midi": 72,
      "time": 672.75,
      "duration": 0.25,
      "velocity": 0.55,
      "hand": "right"
    },
    {
      "midi": 57,
      "time": 673,
      "duration": 0.25,
      "velocity": 0.5,
      "hand": "left"
    },
    {
      "midi": 60,
      "time": 673,
      "duration": 0.5,
      "velocity": 0.5,
      "hand": "right"
    },
    {
      "midi": 68,
      "time": 673,
      "duration": 0.25,
      "velocity": 0.57,
      "hand": "right"
    },
    {
      "midi": 75,
      "time": 673,
      "duration": 0.25,
      "velocity": 0.57,
      "hand": "right"
    },
    {
      "midi": 69,
      "time": 673.25,
      "duration": 0.25,
      "velocity": 0.58,
      "hand": "right"
    },
    {
      "midi": 72,
      "time": 673.25,
      "duration": 0.25,
      "velocity": 0.6,
      "hand": "right"
    },
    {
      "midi": 78,
      "time": 673.25,
      "duration": 0.25,
      "velocity": 0.6,
      "hand": "right"
    },
    {
      "midi": 63,
      "time": 673.5,
      "duration": 0.25,
      "velocity": 0.5,
      "hand": "right"
    },
    {
      "midi": 66,
      "time": 673.5,
      "duration": 0.5,
      "velocity": 0.5,
      "hand": "right"
    },
    {
      "midi": 74,
      "time": 673.5,
      "duration": 0.25,
      "velocity": 0.61,
      "hand": "right"
    },
    {
      "midi": 81,
      "time": 673.5,
      "duration": 0.25,
      "velocity": 0.61,
      "hand": "right"
    },
    {
      "midi": 75,
      "time": 673.75,
      "duration": 0.25,
      "velocity": 0.62,
      "hand": "right"
    },
    {
      "midi": 78,
      "time": 673.75,
      "duration": 0.25,
      "velocity": 0.64,
      "hand": "right"
    },
    {
      "midi": 84,
      "time": 673.75,
      "duration": 0.25,
      "velocity": 0.64,
      "hand": "right"
    },
    {
      "midi": 69,
      "time": 674,
      "duration": 0.25,
      "velocity": 0.5,
      "hand": "right"
    },
    {
      "midi": 72,
      "time": 674,
      "duration": 0.5,
      "velocity": 0.5,
      "hand": "right"
    },
    {
      "midi": 80,
      "time": 674,
      "duration": 0.25,
      "velocity": 0.65,
      "hand": "right"
    },
    {
      "midi": 87,
      "time": 674,
      "duration": 0.25,
      "velocity": 0.65,
      "hand": "right"
    },
    {
      "midi": 81,
      "time": 674.25,
      "duration": 0.25,
      "velocity": 0.66,
      "hand": "right"
    },
    {
      "midi": 84,
      "time": 674.25,
      "duration": 0.25,
      "velocity": 0.68,
      "hand": "right"
    },
    {
      "midi": 90,
      "time": 674.25,
      "duration": 0.25,
      "velocity": 0.68,
      "hand": "right"
    },
    {
      "midi": 75,
      "time": 674.5,
      "duration": 0.25,
      "velocity": 0.5,
      "hand": "right"
    },
    {
      "midi": 78,
      "time": 674.5,
      "duration": 0.5,
      "velocity": 0.5,
      "hand": "right"
    },
    {
      "midi": 86,
      "time": 674.5,
      "duration": 0.25,
      "velocity": 0.69,
      "hand": "right"
    },
    {
      "midi": 93,
      "time": 674.5,
      "duration": 0.25,
      "velocity": 0.69,
      "hand": "right"
    },
    {
      "midi": 87,
      "time": 674.75,
      "duration": 0.25,
      "velocity": 0.71,
      "hand": "right"
    },
    {
      "midi": 90,
      "time": 674.75,
      "duration": 0.25,
      "velocity": 0.72,
      "hand": "right"
    },
    {
      "midi": 96,
      "time": 674.75,
      "duration": 0.25,
      "velocity": 0.72,
      "hand": "right"
    },
    {
      "midi": 81,
      "time": 675,
      "duration": 0.25,
      "velocity": 0.5,
      "hand": "right"
    },
    {
      "midi": 84,
      "time": 675,
      "duration": 0.5,
      "velocity": 0.5,
      "hand": "right"
    },
    {
      "midi": 93,
      "time": 675,
      "duration": 0.5,
      "velocity": 0.72,
      "hand": "right"
    },
    {
      "midi": 99,
      "time": 675,
      "duration": 0.5,
      "velocity": 0.72,
      "hand": "right"
    },
    {
      "midi": 101,
      "time": 675,
      "duration": 0.5,
      "velocity": 0.72,
      "hand": "right"
    },
    {
      "midi": 54,
      "time": 675.5,
      "duration": 0.25,
      "velocity": 0.5,
      "hand": "left"
    },
    {
      "midi": 66,
      "time": 675.5,
      "duration": 0.25,
      "velocity": 0.5,
      "hand": "right"
    },
    {
      "midi": 69,
      "time": 675.5,
      "duration": 0.5,
      "velocity": 0.71,
      "hand": "right"
    },
    {
      "midi": 72,
      "time": 675.5,
      "duration": 0.5,
      "velocity": 0.71,
      "hand": "right"
    },
    {
      "midi": 75,
      "time": 675.5,
      "duration": 0.25,
      "velocity": 0.71,
      "hand": "right"
    },
    {
      "midi": 81,
      "time": 675.5,
      "duration": 0.5,
      "velocity": 0.71,
      "hand": "right"
    },
    {
      "midi": 51,
      "time": 675.75,
      "duration": 0.25,
      "velocity": 0.5,
      "hand": "left"
    },
    {
      "midi": 53,
      "time": 675.75,
      "duration": 0.25,
      "velocity": 0.5,
      "hand": "left"
    },
    {
      "midi": 63,
      "time": 675.75,
      "duration": 0.25,
      "velocity": 0.5,
      "hand": "right"
    },
    {
      "midi": 65,
      "time": 675.75,
      "duration": 0.25,
      "velocity": 0.5,
      "hand": "right"
    },
    {
      "midi": 77,
      "time": 675.75,
      "duration": 0.25,
      "velocity": 0.71,
      "hand": "right"
    },
    {
      "midi": 78,
      "time": 675.75,
      "duration": 0.25,
      "velocity": 0.71,
      "hand": "right"
    },
    {
      "midi": 49,
      "time": 676,
      "duration": 0.25,
      "velocity": 0.5,
      "hand": "left"
    },
    {
      "midi": 61,
      "time": 676,
      "duration": 0.25,
      "velocity": 0.5,
      "hand": "right"
    },
    {
      "midi": 70,
      "time": 676,
      "duration": 0.5,
      "velocity": 0.71,
      "hand": "right"
    },
    {
      "midi": 77,
      "time": 676,
      "duration": 0.5,
      "velocity": 0.71,
      "hand": "right"
    },
    {
      "midi": 82,
      "time": 676,
      "duration": 0.5,
      "velocity": 0.71,
      "hand": "right"
    },
    {
      "midi": 46,
      "time": 676.25,
      "duration": 0.25,
      "velocity": 0.5,
      "hand": "left"
    },
    {
      "midi": 48,
      "time": 676.25,
      "duration": 0.25,
      "velocity": 0.5,
      "hand": "left"
    },
    {
      "midi": 58,
      "time": 676.25,
      "duration": 0.25,
      "velocity": 0.5,
      "hand": "left"
    },
    {
      "midi": 60,
      "time": 676.25,
      "duration": 0.25,
      "velocity": 0.5,
      "hand": "right"
    },
    {
      "midi": 44,
      "time": 676.5,
      "duration": 0.25,
      "velocity": 0.5,
      "hand": "left"
    },
    {
      "midi": 56,
      "time": 676.5,
      "duration": 0.25,
      "velocity": 0.5,
      "hand": "left"
    },
    {
      "midi": 73,
      "time": 676.5,
      "duration": 0.5,
      "velocity": 0.71,
      "hand": "right"
    },
    {
      "midi": 77,
      "time": 676.5,
      "duration": 0.5,
      "velocity": 0.71,
      "hand": "right"
    },
    {
      "midi": 82,
      "time": 676.5,
      "duration": 0.5,
      "velocity": 0.71,
      "hand": "right"
    },
    {
      "midi": 85,
      "time": 676.5,
      "duration": 0.5,
      "velocity": 0.71,
      "hand": "right"
    },
    {
      "midi": 43,
      "time": 676.75,
      "duration": 0.25,
      "velocity": 0.5,
      "hand": "left"
    },
    {
      "midi": 55,
      "time": 676.75,
      "duration": 0.25,
      "velocity": 0.5,
      "hand": "left"
    },
    {
      "midi": 43,
      "time": 677,
      "duration": 0.25,
      "velocity": 0.5,
      "hand": "left"
    },
    {
      "midi": 55,
      "time": 677,
      "duration": 0.25,
      "velocity": 0.5,
      "hand": "left"
    },
    {
      "midi": 72,
      "time": 677,
      "duration": 0.5,
      "velocity": 0.71,
      "hand": "right"
    },
    {
      "midi": 76,
      "time": 677,
      "duration": 0.5,
      "velocity": 0.71,
      "hand": "right"
    },
    {
      "midi": 82,
      "time": 677,
      "duration": 0.5,
      "velocity": 0.71,
      "hand": "right"
    },
    {
      "midi": 84,
      "time": 677,
      "duration": 0.5,
      "velocity": 0.71,
      "hand": "right"
    },
    {
      "midi": 36,
      "time": 677.25,
      "duration": 0.25,
      "velocity": 0.5,
      "hand": "left"
    },
    {
      "midi": 48,
      "time": 677.25,
      "duration": 0.25,
      "velocity": 0.5,
      "hand": "left"
    },
    {
      "midi": 37,
      "time": 677.5,
      "duration": 0.25,
      "velocity": 0.5,
      "hand": "left"
    },
    {
      "midi": 49,
      "time": 677.5,
      "duration": 0.25,
      "velocity": 0.5,
      "hand": "left"
    },
    {
      "midi": 64,
      "time": 677.5,
      "duration": 0.5,
      "velocity": 0.71,
      "hand": "right"
    },
    {
      "midi": 70,
      "time": 677.5,
      "duration": 0.5,
      "velocity": 0.71,
      "hand": "right"
    },
    {
      "midi": 76,
      "time": 677.5,
      "duration": 0.5,
      "velocity": 0.71,
      "hand": "right"
    },
    {
      "midi": 36,
      "time": 677.75,
      "duration": 0.25,
      "velocity": 0.5,
      "hand": "left"
    },
    {
      "midi": 48,
      "time": 677.75,
      "duration": 0.25,
      "velocity": 0.5,
      "hand": "left"
    },
    {
      "midi": 29,
      "time": 678,
      "duration": 0.25,
      "velocity": 0.5,
      "hand": "left"
    },
    {
      "midi": 65,
      "time": 678,
      "duration": 0.5,
      "velocity": 0.71,
      "hand": "right"
    },
    {
      "midi": 68,
      "time": 678,
      "duration": 0.5,
      "velocity": 0.71,
      "hand": "right"
    },
    {
      "midi": 77,
      "time": 678,
      "duration": 0.5,
      "velocity": 0.71,
      "hand": "right"
    },
    {
      "midi": 36,
      "time": 678.25,
      "duration": 0.25,
      "velocity": 0.54,
      "hand": "left"
    },
    {
      "midi": 44,
      "time": 678.25,
      "duration": 0.25,
      "velocity": 0.54,
      "hand": "left"
    },
    {
      "midi": 49,
      "time": 678.5,
      "duration": 0.25,
      "velocity": 0.71,
      "hand": "left"
    },
    {
      "midi": 48,
      "time": 678.75,
      "duration": 0.25,
      "velocity": 0.71,
      "hand": "left"
    },
    {
      "midi": 53,
      "time": 678.75,
      "duration": 0.25,
      "velocity": 0.71,
      "hand": "left"
    },
    {
      "midi": 56,
      "time": 679,
      "duration": 0.25,
      "velocity": 0.71,
      "hand": "left"
    },
    {
      "midi": 53,
      "time": 679.25,
      "duration": 0.25,
      "velocity": 0.71,
      "hand": "left"
    },
    {
      "midi": 58,
      "time": 679.25,
      "duration": 0.25,
      "velocity": 0.71,
      "hand": "left"
    },
    {
      "midi": 36,
      "time": 679.5,
      "duration": 0.25,
      "velocity": 0.54,
      "hand": "left"
    },
    {
      "midi": 56,
      "time": 679.5,
      "duration": 0.25,
      "velocity": 0.71,
      "hand": "left"
    },
    {
      "midi": 43,
      "time": 679.75,
      "duration": 0.25,
      "velocity": 0.54,
      "hand": "left"
    },
    {
      "midi": 52,
      "time": 679.75,
      "duration": 0.25,
      "velocity": 0.71,
      "hand": "left"
    },
    {
      "midi": 55,
      "time": 679.75,
      "duration": 0.25,
      "velocity": 0.71,
      "hand": "left"
    },
    {
      "midi": 52,
      "time": 680,
      "duration": 0.25,
      "velocity": 0.54,
      "hand": "left"
    },
    {
      "midi": 56,
      "time": 680,
      "duration": 0.25,
      "velocity": 0.71,
      "hand": "left"
    },
    {
      "midi": 40,
      "time": 680.25,
      "duration": 0.25,
      "velocity": 0.54,
      "hand": "left"
    },
    {
      "midi": 55,
      "time": 680.25,
      "duration": 0.25,
      "velocity": 0.71,
      "hand": "left"
    },
    {
      "midi": 60,
      "time": 680.25,
      "duration": 0.25,
      "velocity": 0.71,
      "hand": "right"
    },
    {
      "midi": 48,
      "time": 680.5,
      "duration": 0.25,
      "velocity": 0.54,
      "hand": "left"
    },
    {
      "midi": 61,
      "time": 680.5,
      "duration": 0.25,
      "velocity": 0.71,
      "hand": "right"
    },
    {
      "midi": 58,
      "time": 680.75,
      "duration": 0.25,
      "velocity": 0.54,
      "hand": "left"
    },
    {
      "midi": 60,
      "time": 680.75,
      "duration": 0.25,
      "velocity": 0.71,
      "hand": "right"
    },
    {
      "midi": 68,
      "time": 680.75,
      "duration": 0.25,
      "velocity": 0.71,
      "hand": "right"
    },
    {
      "midi": 41,
      "time": 681,
      "duration": 0.25,
      "velocity": 0.54,
      "hand": "left"
    },
    {
      "midi": 67,
      "time": 681,
      "duration": 0.25,
      "velocity": 0.71,
      "hand": "right"
    },
    {
      "midi": 48,
      "time": 681.25,
      "duration": 0.25,
      "velocity": 0.54,
      "hand": "left"
    },
    {
      "midi": 59,
      "time": 681.25,
      "duration": 0.25,
      "velocity": 0.71,
      "hand": "left"
    },
    {
      "midi": 60,
      "time": 681.25,
      "duration": 0.25,
      "velocity": 0.71,
      "hand": "right"
    },
    {
      "midi": 56,
      "time": 681.5,
      "duration": 0.25,
      "velocity": 0.54,
      "hand": "left"
    },
    {
      "midi": 61,
      "time": 681.5,
      "duration": 0.25,
      "velocity": 0.71,
      "hand": "right"
    },
    {
      "midi": 44,
      "time": 681.75,
      "duration": 0.25,
      "velocity": 0.54,
      "hand": "left"
    },
    {
      "midi": 60,
      "time": 681.75,
      "duration": 0.25,
      "velocity": 0.71,
      "hand": "right"
    },
    {
      "midi": 65,
      "time": 681.75,
      "duration": 0.25,
      "velocity": 0.71,
      "hand": "right"
    },
    {
      "midi": 53,
      "time": 682,
      "duration": 0.25,
      "velocity": 0.54,
      "hand": "left"
    },
    {
      "midi": 68,
      "time": 682,
      "duration": 0.25,
      "velocity": 0.71,
      "hand": "right"
    },
    {
      "midi": 60,
      "time": 682.25,
      "duration": 0.25,
      "velocity": 0.54,
      "hand": "right"
    },
    {
      "midi": 65,
      "time": 682.25,
      "duration": 0.25,
      "velocity": 0.71,
      "hand": "right"
    },
    {
      "midi": 70,
      "time": 682.25,
      "duration": 0.25,
      "velocity": 0.71,
      "hand": "right"
    },
    {
      "midi": 48,
      "time": 682.5,
      "duration": 0.25,
      "velocity": 0.54,
      "hand": "left"
    },
    {
      "midi": 68,
      "time": 682.5,
      "duration": 0.25,
      "velocity": 0.71,
      "hand": "right"
    },
    {
      "midi": 58,
      "time": 682.75,
      "duration": 0.25,
      "velocity": 0.54,
      "hand": "left"
    },
    {
      "midi": 64,
      "time": 682.75,
      "duration": 0.25,
      "velocity": 0.71,
      "hand": "right"
    },
    {
      "midi": 67,
      "time": 682.75,
      "duration": 0.25,
      "velocity": 0.71,
      "hand": "right"
    },
    {
      "midi": 64,
      "time": 683,
      "duration": 0.25,
      "velocity": 0.54,
      "hand": "right"
    },
    {
      "midi": 68,
      "time": 683,
      "duration": 0.25,
      "velocity": 0.71,
      "hand": "right"
    },
    {
      "midi": 52,
      "time": 683.25,
      "duration": 0.25,
      "velocity": 0.54,
      "hand": "left"
    },
    {
      "midi": 67,
      "time": 683.25,
      "duration": 0.25,
      "velocity": 0.71,
      "hand": "right"
    },
    {
      "midi": 72,
      "time": 683.25,
      "duration": 0.25,
      "velocity": 0.71,
      "hand": "right"
    },
    {
      "midi": 60,
      "time": 683.5,
      "duration": 0.25,
      "velocity": 0.54,
      "hand": "right"
    },
    {
      "midi": 73,
      "time": 683.5,
      "duration": 0.25,
      "velocity": 0.71,
      "hand": "right"
    },
    {
      "midi": 70,
      "time": 683.75,
      "duration": 0.25,
      "velocity": 0.54,
      "hand": "right"
    },
    {
      "midi": 72,
      "time": 683.75,
      "duration": 0.25,
      "velocity": 0.71,
      "hand": "right"
    },
    {
      "midi": 79,
      "time": 683.75,
      "duration": 0.25,
      "velocity": 0.71,
      "hand": "right"
    },
    {
      "midi": 41,
      "time": 684,
      "duration": 0.25,
      "velocity": 0.54,
      "hand": "left"
    },
    {
      "midi": 77,
      "time": 684,
      "duration": 0.25,
      "velocity": 0.71,
      "hand": "right"
    },
    {
      "midi": 48,
      "time": 684.25,
      "duration": 0.25,
      "velocity": 0.54,
      "hand": "left"
    },
    {
      "midi": 59,
      "time": 684.25,
      "duration": 0.25,
      "velocity": 0.71,
      "hand": "left"
    },
    {
      "midi": 60,
      "time": 684.25,
      "duration": 0.25,
      "velocity": 0.71,
      "hand": "right"
    },
    {
      "midi": 56,
      "time": 684.5,
      "duration": 0.25,
      "velocity": 0.54,
      "hand": "left"
    },
    {
      "midi": 61,
      "time": 684.5,
      "duration": 0.25,
      "velocity": 0.71,
      "hand": "right"
    },
    {
      "midi": 44,
      "time": 684.75,
      "duration": 0.25,
      "velocity": 0.54,
      "hand": "left"
    },
    {
      "midi": 60,
      "time": 684.75,
      "duration": 0.25,
      "velocity": 0.71,
      "hand": "right"
    },
    {
      "midi": 65,
      "time": 684.75,
      "duration": 0.25,
      "velocity": 0.71,
      "hand": "right"
    },
    {
      "midi": 53,
      "time": 685,
      "duration": 0.25,
      "velocity": 0.54,
      "hand": "left"
    },
    {
      "midi": 68,
      "time": 685,
      "duration": 0.25,
      "velocity": 0.71,
      "hand": "right"
    },
    {
      "midi": 60,
      "time": 685.25,
      "duration": 0.25,
      "velocity": 0.54,
      "hand": "right"
    },
    {
      "midi": 65,
      "time": 685.25,
      "duration": 0.25,
      "velocity": 0.71,
      "hand": "right"
    },
    {
      "midi": 70,
      "time": 685.25,
      "duration": 0.25,
      "velocity": 0.71,
      "hand": "right"
    },
    {
      "midi": 48,
      "time": 685.5,
      "duration": 0.25,
      "velocity": 0.54,
      "hand": "left"
    },
    {
      "midi": 68,
      "time": 685.5,
      "duration": 0.25,
      "velocity": 0.71,
      "hand": "right"
    },
    {
      "midi": 58,
      "time": 685.75,
      "duration": 0.25,
      "velocity": 0.54,
      "hand": "left"
    },
    {
      "midi": 64,
      "time": 685.75,
      "duration": 0.25,
      "velocity": 0.71,
      "hand": "right"
    },
    {
      "midi": 67,
      "time": 685.75,
      "duration": 0.25,
      "velocity": 0.71,
      "hand": "right"
    },
    {
      "midi": 64,
      "time": 686,
      "duration": 0.25,
      "velocity": 0.54,
      "hand": "right"
    },
    {
      "midi": 68,
      "time": 686,
      "duration": 0.25,
      "velocity": 0.71,
      "hand": "right"
    },
    {
      "midi": 52,
      "time": 686.25,
      "duration": 0.25,
      "velocity": 0.54,
      "hand": "left"
    },
    {
      "midi": 67,
      "time": 686.25,
      "duration": 0.25,
      "velocity": 0.71,
      "hand": "right"
    },
    {
      "midi": 72,
      "time": 686.25,
      "duration": 0.25,
      "velocity": 0.71,
      "hand": "right"
    },
    {
      "midi": 60,
      "time": 686.5,
      "duration": 0.25,
      "velocity": 0.54,
      "hand": "right"
    },
    {
      "midi": 73,
      "time": 686.5,
      "duration": 0.25,
      "velocity": 0.71,
      "hand": "right"
    },
    {
      "midi": 70,
      "time": 686.75,
      "duration": 0.25,
      "velocity": 0.54,
      "hand": "right"
    },
    {
      "midi": 72,
      "time": 686.75,
      "duration": 0.25,
      "velocity": 0.71,
      "hand": "right"
    },
    {
      "midi": 80,
      "time": 686.75,
      "duration": 0.25,
      "velocity": 0.71,
      "hand": "right"
    },
    {
      "midi": 53,
      "time": 687,
      "duration": 0.25,
      "velocity": 0.54,
      "hand": "left"
    },
    {
      "midi": 79,
      "time": 687,
      "duration": 0.25,
      "velocity": 0.71,
      "hand": "right"
    },
    {
      "midi": 60,
      "time": 687.25,
      "duration": 0.25,
      "velocity": 0.54,
      "hand": "right"
    },
    {
      "midi": 71,
      "time": 687.25,
      "duration": 0.25,
      "velocity": 0.71,
      "hand": "right"
    },
    {
      "midi": 72,
      "time": 687.25,
      "duration": 0.25,
      "velocity": 0.71,
      "hand": "right"
    },
    {
      "midi": 68,
      "time": 687.5,
      "duration": 0.25,
      "velocity": 0.54,
      "hand": "right"
    },
    {
      "midi": 73,
      "time": 687.5,
      "duration": 0.25,
      "velocity": 0.71,
      "hand": "right"
    },
    {
      "midi": 56,
      "time": 687.75,
      "duration": 0.25,
      "velocity": 0.54,
      "hand": "left"
    },
    {
      "midi": 72,
      "time": 687.75,
      "duration": 0.25,
      "velocity": 0.71,
      "hand": "right"
    },
    {
      "midi": 77,
      "time": 687.75,
      "duration": 0.25,
      "velocity": 0.71,
      "hand": "right"
    },
    {
      "midi": 65,
      "time": 688,
      "duration": 0.25,
      "velocity": 0.54,
      "hand": "right"
    },
    {
      "midi": 80,
      "time": 688,
      "duration": 0.25,
      "velocity": 0.71,
      "hand": "right"
    },
    {
      "midi": 72,
      "time": 688.25,
      "duration": 0.25,
      "velocity": 0.54,
      "hand": "right"
    },
    {
      "midi": 77,
      "time": 688.25,
      "duration": 0.25,
      "velocity": 0.71,
      "hand": "right"
    },
    {
      "midi": 82,
      "time": 688.25,
      "duration": 0.25,
      "velocity": 0.71,
      "hand": "right"
    },
    {
      "midi": 60,
      "time": 688.5,
      "duration": 0.25,
      "velocity": 0.54,
      "hand": "right"
    },
    {
      "midi": 80,
      "time": 688.5,
      "duration": 0.25,
      "velocity": 0.71,
      "hand": "right"
    },
    {
      "midi": 70,
      "time": 688.75,
      "duration": 0.25,
      "velocity": 0.54,
      "hand": "right"
    },
    {
      "midi": 76,
      "time": 688.75,
      "duration": 0.25,
      "velocity": 0.71,
      "hand": "right"
    },
    {
      "midi": 79,
      "time": 688.75,
      "duration": 0.25,
      "velocity": 0.71,
      "hand": "right"
    },
    {
      "midi": 76,
      "time": 689,
      "duration": 0.25,
      "velocity": 0.54,
      "hand": "right"
    },
    {
      "midi": 80,
      "time": 689,
      "duration": 0.25,
      "velocity": 0.71,
      "hand": "right"
    },
    {
      "midi": 64,
      "time": 689.25,
      "duration": 0.25,
      "velocity": 0.54,
      "hand": "right"
    },
    {
      "midi": 79,
      "time": 689.25,
      "duration": 0.25,
      "velocity": 0.71,
      "hand": "right"
    },
    {
      "midi": 84,
      "time": 689.25,
      "duration": 0.25,
      "velocity": 0.71,
      "hand": "right"
    },
    {
      "midi": 72,
      "time": 689.5,
      "duration": 0.25,
      "velocity": 0.54,
      "hand": "right"
    },
    {
      "midi": 85,
      "time": 689.5,
      "duration": 0.25,
      "velocity": 0.71,
      "hand": "right"
    },
    {
      "midi": 82,
      "time": 689.75,
      "duration": 0.25,
      "velocity": 0.54,
      "hand": "right"
    },
    {
      "midi": 84,
      "time": 689.75,
      "duration": 0.25,
      "velocity": 0.71,
      "hand": "right"
    },
    {
      "midi": 91,
      "time": 689.75,
      "duration": 0.25,
      "velocity": 0.71,
      "hand": "right"
    },
    {
      "midi": 65,
      "time": 690,
      "duration": 0.5,
      "velocity": 0.54,
      "hand": "right"
    },
    {
      "midi": 68,
      "time": 690,
      "duration": 0.5,
      "velocity": 0.54,
      "hand": "right"
    },
    {
      "midi": 72,
      "time": 690,
      "duration": 0.5,
      "velocity": 0.54,
      "hand": "right"
    },
    {
      "midi": 77,
      "time": 690,
      "duration": 0.5,
      "velocity": 0.54,
      "hand": "right"
    },
    {
      "midi": 89,
      "time": 690,
      "duration": 0.25,
      "velocity": 0.71,
      "hand": "right"
    },
    {
      "midi": 100,
      "time": 690.25,
      "duration": 0.25,
      "velocity": 0.71,
      "hand": "right"
    },
    {
      "midi": 101,
      "time": 690.25,
      "duration": 0.25,
      "velocity": 0.71,
      "hand": "right"
    },
    {
      "midi": 65,
      "time": 690.5,
      "duration": 1,
      "velocity": 0.54,
      "hand": "right"
    },
    {
      "midi": 68,
      "time": 690.5,
      "duration": 1,
      "velocity": 0.54,
      "hand": "right"
    },
    {
      "midi": 73,
      "time": 690.5,
      "duration": 1,
      "velocity": 0.54,
      "hand": "right"
    },
    {
      "midi": 77,
      "time": 690.5,
      "duration": 1,
      "velocity": 0.54,
      "hand": "right"
    },
    {
      "midi": 99,
      "time": 690.5,
      "duration": 0.25,
      "velocity": 0.71,
      "hand": "right"
    },
    {
      "midi": 96,
      "time": 690.75,
      "duration": 0.25,
      "velocity": 0.71,
      "hand": "right"
    },
    {
      "midi": 97,
      "time": 690.75,
      "duration": 0.25,
      "velocity": 0.71,
      "hand": "right"
    },
    {
      "midi": 94,
      "time": 691,
      "duration": 0.25,
      "velocity": 0.71,
      "hand": "right"
    },
    {
      "midi": 91,
      "time": 691.25,
      "duration": 0.25,
      "velocity": 0.71,
      "hand": "right"
    },
    {
      "midi": 92,
      "time": 691.25,
      "duration": 0.25,
      "velocity": 0.71,
      "hand": "right"
    },
    {
      "midi": 65,
      "time": 691.5,
      "duration": 0.5,
      "velocity": 0.54,
      "hand": "right"
    },
    {
      "midi": 68,
      "time": 691.5,
      "duration": 0.5,
      "velocity": 0.54,
      "hand": "right"
    },
    {
      "midi": 72,
      "time": 691.5,
      "duration": 0.5,
      "velocity": 0.54,
      "hand": "right"
    },
    {
      "midi": 77,
      "time": 691.5,
      "duration": 0.5,
      "velocity": 0.54,
      "hand": "right"
    },
    {
      "midi": 89,
      "time": 691.5,
      "duration": 0.25,
      "velocity": 0.71,
      "hand": "right"
    },
    {
      "midi": 87,
      "time": 691.75,
      "duration": 0.25,
      "velocity": 0.71,
      "hand": "right"
    },
    {
      "midi": 88,
      "time": 691.75,
      "duration": 0.25,
      "velocity": 0.71,
      "hand": "right"
    },
    {
      "midi": 65,
      "time": 692,
      "duration": 1,
      "velocity": 0.54,
      "hand": "right"
    },
    {
      "midi": 68,
      "time": 692,
      "duration": 1,
      "velocity": 0.54,
      "hand": "right"
    },
    {
      "midi": 73,
      "time": 692,
      "duration": 1,
      "velocity": 0.54,
      "hand": "right"
    },
    {
      "midi": 77,
      "time": 692,
      "duration": 1,
      "velocity": 0.54,
      "hand": "right"
    },
    {
      "midi": 85,
      "time": 692,
      "duration": 0.25,
      "velocity": 0.71,
      "hand": "right"
    },
    {
      "midi": 82,
      "time": 692.25,
      "duration": 0.25,
      "velocity": 0.71,
      "hand": "right"
    },
    {
      "midi": 84,
      "time": 692.25,
      "duration": 0.25,
      "velocity": 0.71,
      "hand": "right"
    },
    {
      "midi": 80,
      "time": 692.5,
      "duration": 0.25,
      "velocity": 0.71,
      "hand": "right"
    },
    {
      "midi": 77,
      "time": 692.75,
      "duration": 0.25,
      "velocity": 0.71,
      "hand": "right"
    },
    {
      "midi": 79,
      "time": 692.75,
      "duration": 0.25,
      "velocity": 0.71,
      "hand": "right"
    },
    {
      "midi": 53,
      "time": 693,
      "duration": 0.5,
      "velocity": 0.54,
      "hand": "left"
    },
    {
      "midi": 56,
      "time": 693,
      "duration": 0.5,
      "velocity": 0.54,
      "hand": "left"
    },
    {
      "midi": 60,
      "time": 693,
      "duration": 0.5,
      "velocity": 0.54,
      "hand": "right"
    },
    {
      "midi": 65,
      "time": 693,
      "duration": 0.5,
      "velocity": 0.54,
      "hand": "right"
    },
    {
      "midi": 92,
      "time": 693,
      "duration": 0.25,
      "velocity": 0.71,
      "hand": "right"
    },
    {
      "midi": 89,
      "time": 693.25,
      "duration": 0.25,
      "velocity": 0.71,
      "hand": "right"
    },
    {
      "midi": 91,
      "time": 693.25,
      "duration": 0.25,
      "velocity": 0.71,
      "hand": "right"
    },
    {
      "midi": 53,
      "time": 693.5,
      "duration": 1,
      "velocity": 0.54,
      "hand": "left"
    },
    {
      "midi": 56,
      "time": 693.5,
      "duration": 1,
      "velocity": 0.54,
      "hand": "left"
    },
    {
      "midi": 61,
      "time": 693.5,
      "duration": 1,
      "velocity": 0.54,
      "hand": "right"
    },
    {
      "midi": 65,
      "time": 693.5,
      "duration": 1,
      "velocity": 0.54,
      "hand": "right"
    },
    {
      "midi": 87,
      "time": 693.5,
      "duration": 0.25,
      "velocity": 0.71,
      "hand": "right"
    },
    {
      "midi": 84,
      "time": 693.75,
      "duration": 0.25,
      "velocity": 0.71,
      "hand": "right"
    },
    {
      "midi": 85,
      "time": 693.75,
      "duration": 0.25,
      "velocity": 0.71,
      "hand": "right"
    },
    {
      "midi": 82,
      "time": 694,
      "duration": 0.25,
      "velocity": 0.71,
      "hand": "right"
    },
    {
      "midi": 79,
      "time": 694.25,
      "duration": 0.25,
      "velocity": 0.71,
      "hand": "right"
    },
    {
      "midi": 80,
      "time": 694.25,
      "duration": 0.25,
      "velocity": 0.71,
      "hand": "right"
    },
    {
      "midi": 53,
      "time": 694.5,
      "duration": 0.5,
      "velocity": 0.54,
      "hand": "left"
    },
    {
      "midi": 56,
      "time": 694.5,
      "duration": 0.5,
      "velocity": 0.54,
      "hand": "left"
    },
    {
      "midi": 60,
      "time": 694.5,
      "duration": 0.5,
      "velocity": 0.54,
      "hand": "right"
    },
    {
      "midi": 65,
      "time": 694.5,
      "duration": 0.5,
      "velocity": 0.54,
      "hand": "right"
    },
    {
      "midi": 77,
      "time": 694.5,
      "duration": 0.25,
      "velocity": 0.71,
      "hand": "right"
    },
    {
      "midi": 73,
      "time": 694.75,
      "duration": 0.25,
      "velocity": 0.71,
      "hand": "right"
    },
    {
      "midi": 75,
      "time": 694.75,
      "duration": 0.25,
      "velocity": 0.71,
      "hand": "right"
    },
    {
      "midi": 53,
      "time": 695,
      "duration": 1,
      "velocity": 0.54,
      "hand": "left"
    },
    {
      "midi": 56,
      "time": 695,
      "duration": 1,
      "velocity": 0.54,
      "hand": "left"
    },
    {
      "midi": 61,
      "time": 695,
      "duration": 1,
      "velocity": 0.54,
      "hand": "right"
    },
    {
      "midi": 65,
      "time": 695,
      "duration": 1,
      "velocity": 0.54,
      "hand": "right"
    },
    {
      "midi": 72,
      "time": 695,
      "duration": 0.25,
      "velocity": 0.71,
      "hand": "right"
    },
    {
      "midi": 68,
      "time": 695.25,
      "duration": 0.25,
      "velocity": 0.71,
      "hand": "right"
    },
    {
      "midi": 70,
      "time": 695.25,
      "duration": 0.25,
      "velocity": 0.71,
      "hand": "right"
    },
    {
      "midi": 67,
      "time": 695.5,
      "duration": 0.25,
      "velocity": 0.71,
      "hand": "right"
    },
    {
      "midi": 61,
      "time": 695.75,
      "duration": 0.25,
      "velocity": 0.71,
      "hand": "right"
    },
    {
      "midi": 65,
      "time": 695.75,
      "duration": 0.25,
      "velocity": 0.71,
      "hand": "right"
    },
    {
      "midi": 41,
      "time": 696,
      "duration": 0.5,
      "velocity": 0.54,
      "hand": "left"
    },
    {
      "midi": 48,
      "time": 696,
      "duration": 0.5,
      "velocity": 0.54,
      "hand": "left"
    },
    {
      "midi": 56,
      "time": 696,
      "duration": 0.5,
      "velocity": 0.54,
      "hand": "left"
    },
    {
      "midi": 60,
      "time": 696,
      "duration": 0.25,
      "velocity": 0.71,
      "hand": "right"
    },
    {
      "midi": 65,
      "time": 696.25,
      "duration": 0.25,
      "velocity": 0.71,
      "hand": "right"
    },
    {
      "midi": 68,
      "time": 696.25,
      "duration": 0.25,
      "velocity": 0.71,
      "hand": "right"
    },
    {
      "midi": 72,
      "time": 696.5,
      "duration": 0.25,
      "velocity": 0.71,
      "hand": "right"
    },
    {
      "midi": 77,
      "time": 696.75,
      "duration": 0.25,
      "velocity": 0.71,
      "hand": "right"
    },
    {
      "midi": 80,
      "time": 696.75,
      "duration": 0.25,
      "velocity": 0.71,
      "hand": "right"
    },
    {
      "midi": 84,
      "time": 697,
      "duration": 0.25,
      "velocity": 0.71,
      "hand": "right"
    },
    {
      "midi": 89,
      "time": 697.25,
      "duration": 0.25,
      "velocity": 0.71,
      "hand": "right"
    },
    {
      "midi": 92,
      "time": 697.25,
      "duration": 0.25,
      "velocity": 0.71,
      "hand": "right"
    },
    {
      "midi": 85,
      "time": 697.5,
      "duration": 0.25,
      "velocity": 0.54,
      "hand": "right"
    },
    {
      "midi": 97,
      "time": 697.5,
      "duration": 0.25,
      "velocity": 0.71,
      "hand": "right"
    },
    {
      "midi": 80,
      "time": 697.75,
      "duration": 0.25,
      "velocity": 0.54,
      "hand": "right"
    },
    {
      "midi": 84,
      "time": 697.75,
      "duration": 0.25,
      "velocity": 0.54,
      "hand": "right"
    },
    {
      "midi": 92,
      "time": 697.75,
      "duration": 0.25,
      "velocity": 0.71,
      "hand": "right"
    },
    {
      "midi": 96,
      "time": 697.75,
      "duration": 0.25,
      "velocity": 0.71,
      "hand": "right"
    },
    {
      "midi": 77,
      "time": 698,
      "duration": 0.25,
      "velocity": 0.54,
      "hand": "right"
    },
    {
      "midi": 89,
      "time": 698,
      "duration": 0.25,
      "velocity": 0.71,
      "hand": "right"
    },
    {
      "midi": 80,
      "time": 698.25,
      "duration": 0.25,
      "velocity": 0.54,
      "hand": "right"
    },
    {
      "midi": 82,
      "time": 698.25,
      "duration": 0.25,
      "velocity": 0.54,
      "hand": "right"
    },
    {
      "midi": 92,
      "time": 698.25,
      "duration": 0.25,
      "velocity": 0.71,
      "hand": "right"
    },
    {
      "midi": 94,
      "time": 698.25,
      "duration": 0.25,
      "velocity": 0.71,
      "hand": "right"
    },
    {
      "midi": 77,
      "time": 698.5,
      "duration": 0.25,
      "velocity": 0.54,
      "hand": "right"
    },
    {
      "midi": 89,
      "time": 698.5,
      "duration": 0.25,
      "velocity": 0.71,
      "hand": "right"
    },
    {
      "midi": 72,
      "time": 698.75,
      "duration": 0.25,
      "velocity": 0.54,
      "hand": "right"
    },
    {
      "midi": 79,
      "time": 698.75,
      "duration": 0.25,
      "velocity": 0.54,
      "hand": "right"
    },
    {
      "midi": 84,
      "time": 698.75,
      "duration": 0.25,
      "velocity": 0.71,
      "hand": "right"
    },
    {
      "midi": 91,
      "time": 698.75,
      "duration": 0.25,
      "velocity": 0.71,
      "hand": "right"
    },
    {
      "midi": 77,
      "time": 699,
      "duration": 0.25,
      "velocity": 0.54,
      "hand": "right"
    },
    {
      "midi": 89,
      "time": 699,
      "duration": 0.25,
      "velocity": 0.71,
      "hand": "right"
    },
    {
      "midi": 68,
      "time": 699.25,
      "duration": 0.25,
      "velocity": 0.54,
      "hand": "right"
    },
    {
      "midi": 72,
      "time": 699.25,
      "duration": 0.25,
      "velocity": 0.54,
      "hand": "right"
    },
    {
      "midi": 80,
      "time": 699.25,
      "duration": 0.25,
      "velocity": 0.71,
      "hand": "right"
    },
    {
      "midi": 84,
      "time": 699.25,
      "duration": 0.25,
      "velocity": 0.71,
      "hand": "right"
    },
    {
      "midi": 73,
      "time": 699.5,
      "duration": 0.25,
      "velocity": 0.54,
      "hand": "right"
    },
    {
      "midi": 85,
      "time": 699.5,
      "duration": 0.25,
      "velocity": 0.71,
      "hand": "right"
    },
    {
      "midi": 68,
      "time": 699.75,
      "duration": 0.25,
      "velocity": 0.54,
      "hand": "right"
    },
    {
      "midi": 72,
      "time": 699.75,
      "duration": 0.25,
      "velocity": 0.54,
      "hand": "right"
    },
    {
      "midi": 80,
      "time": 699.75,
      "duration": 0.25,
      "velocity": 0.71,
      "hand": "right"
    },
    {
      "midi": 84,
      "time": 699.75,
      "duration": 0.25,
      "velocity": 0.71,
      "hand": "right"
    },
    {
      "midi": 65,
      "time": 700,
      "duration": 0.25,
      "velocity": 0.54,
      "hand": "right"
    },
    {
      "midi": 77,
      "time": 700,
      "duration": 0.25,
      "velocity": 0.71,
      "hand": "right"
    },
    {
      "midi": 68,
      "time": 700.25,
      "duration": 0.25,
      "velocity": 0.54,
      "hand": "right"
    },
    {
      "midi": 70,
      "time": 700.25,
      "duration": 0.25,
      "velocity": 0.54,
      "hand": "right"
    },
    {
      "midi": 80,
      "time": 700.25,
      "duration": 0.25,
      "velocity": 0.71,
      "hand": "right"
    },
    {
      "midi": 82,
      "time": 700.25,
      "duration": 0.25,
      "velocity": 0.71,
      "hand": "right"
    },
    {
      "midi": 65,
      "time": 700.5,
      "duration": 0.25,
      "velocity": 0.54,
      "hand": "right"
    },
    {
      "midi": 77,
      "time": 700.5,
      "duration": 0.25,
      "velocity": 0.71,
      "hand": "right"
    },
    {
      "midi": 60,
      "time": 700.75,
      "duration": 0.25,
      "velocity": 0.54,
      "hand": "right"
    },
    {
      "midi": 67,
      "time": 700.75,
      "duration": 0.25,
      "velocity": 0.54,
      "hand": "right"
    },
    {
      "midi": 72,
      "time": 700.75,
      "duration": 0.25,
      "velocity": 0.71,
      "hand": "right"
    },
    {
      "midi": 79,
      "time": 700.75,
      "duration": 0.25,
      "velocity": 0.71,
      "hand": "right"
    },
    {
      "midi": 65,
      "time": 701,
      "duration": 0.25,
      "velocity": 0.54,
      "hand": "right"
    },
    {
      "midi": 77,
      "time": 701,
      "duration": 0.25,
      "velocity": 0.71,
      "hand": "right"
    },
    {
      "midi": 56,
      "time": 701.25,
      "duration": 0.25,
      "velocity": 0.54,
      "hand": "left"
    },
    {
      "midi": 60,
      "time": 701.25,
      "duration": 0.25,
      "velocity": 0.54,
      "hand": "right"
    },
    {
      "midi": 68,
      "time": 701.25,
      "duration": 0.25,
      "velocity": 0.71,
      "hand": "right"
    },
    {
      "midi": 72,
      "time": 701.25,
      "duration": 0.25,
      "velocity": 0.71,
      "hand": "right"
    },
    {
      "midi": 61,
      "time": 701.5,
      "duration": 0.25,
      "velocity": 0.54,
      "hand": "right"
    },
    {
      "midi": 73,
      "time": 701.5,
      "duration": 0.25,
      "velocity": 0.71,
      "hand": "right"
    },
    {
      "midi": 56,
      "time": 701.75,
      "duration": 0.25,
      "velocity": 0.54,
      "hand": "left"
    },
    {
      "midi": 60,
      "time": 701.75,
      "duration": 0.25,
      "velocity": 0.54,
      "hand": "right"
    },
    {
      "midi": 68,
      "time": 701.75,
      "duration": 0.25,
      "velocity": 0.71,
      "hand": "right"
    },
    {
      "midi": 72,
      "time": 701.75,
      "duration": 0.25,
      "velocity": 0.71,
      "hand": "right"
    },
    {
      "midi": 53,
      "time": 702,
      "duration": 0.25,
      "velocity": 0.54,
      "hand": "left"
    },
    {
      "midi": 65,
      "time": 702,
      "duration": 0.25,
      "velocity": 0.71,
      "hand": "right"
    },
    {
      "midi": 56,
      "time": 702.25,
      "duration": 0.25,
      "velocity": 0.54,
      "hand": "left"
    },
    {
      "midi": 58,
      "time": 702.25,
      "duration": 0.25,
      "velocity": 0.54,
      "hand": "left"
    },
    {
      "midi": 68,
      "time": 702.25,
      "duration": 0.25,
      "velocity": 0.71,
      "hand": "right"
    },
    {
      "midi": 70,
      "time": 702.25,
      "duration": 0.25,
      "velocity": 0.71,
      "hand": "right"
    },
    {
      "midi": 53,
      "time": 702.5,
      "duration": 0.25,
      "velocity": 0.54,
      "hand": "left"
    },
    {
      "midi": 65,
      "time": 702.5,
      "duration": 0.25,
      "velocity": 0.71,
      "hand": "right"
    },
    {
      "midi": 48,
      "time": 702.75,
      "duration": 0.25,
      "velocity": 0.54,
      "hand": "left"
    },
    {
      "midi": 55,
      "time": 702.75,
      "duration": 0.25,
      "velocity": 0.54,
      "hand": "left"
    },
    {
      "midi": 60,
      "time": 702.75,
      "duration": 0.25,
      "velocity": 0.71,
      "hand": "right"
    },
    {
      "midi": 67,
      "time": 702.75,
      "duration": 0.25,
      "velocity": 0.71,
      "hand": "right"
    },
    {
      "midi": 53,
      "time": 703,
      "duration": 0.25,
      "velocity": 0.54,
      "hand": "left"
    },
    {
      "midi": 65,
      "time": 703,
      "duration": 0.25,
      "velocity": 0.71,
      "hand": "right"
    },
    {
      "midi": 44,
      "time": 703.25,
      "duration": 0.25,
      "velocity": 0.54,
      "hand": "left"
    },
    {
      "midi": 48,
      "time": 703.25,
      "duration": 0.25,
      "velocity": 0.54,
      "hand": "left"
    },
    {
      "midi": 56,
      "time": 703.25,
      "duration": 0.25,
      "velocity": 0.71,
      "hand": "left"
    },
    {
      "midi": 60,
      "time": 703.25,
      "duration": 0.25,
      "velocity": 0.71,
      "hand": "right"
    },
    {
      "midi": 49,
      "time": 703.5,
      "duration": 0.25,
      "velocity": 0.54,
      "hand": "left"
    },
    {
      "midi": 61,
      "time": 703.5,
      "duration": 0.25,
      "velocity": 0.71,
      "hand": "right"
    },
    {
      "midi": 44,
      "time": 703.75,
      "duration": 0.25,
      "velocity": 0.54,
      "hand": "left"
    },
    {
      "midi": 48,
      "time": 703.75,
      "duration": 0.25,
      "velocity": 0.54,
      "hand": "left"
    },
    {
      "midi": 56,
      "time": 703.75,
      "duration": 0.25,
      "velocity": 0.71,
      "hand": "left"
    },
    {
      "midi": 60,
      "time": 703.75,
      "duration": 0.25,
      "velocity": 0.71,
      "hand": "right"
    },
    {
      "midi": 41,
      "time": 704,
      "duration": 0.25,
      "velocity": 0.54,
      "hand": "left"
    },
    {
      "midi": 53,
      "time": 704,
      "duration": 0.25,
      "velocity": 0.71,
      "hand": "left"
    },
    {
      "midi": 44,
      "time": 704.25,
      "duration": 0.25,
      "velocity": 0.54,
      "hand": "left"
    },
    {
      "midi": 46,
      "time": 704.25,
      "duration": 0.25,
      "velocity": 0.54,
      "hand": "left"
    },
    {
      "midi": 56,
      "time": 704.25,
      "duration": 0.25,
      "velocity": 0.71,
      "hand": "left"
    },
    {
      "midi": 58,
      "time": 704.25,
      "duration": 0.25,
      "velocity": 0.71,
      "hand": "left"
    },
    {
      "midi": 41,
      "time": 704.5,
      "duration": 0.25,
      "velocity": 0.54,
      "hand": "left"
    },
    {
      "midi": 53,
      "time": 704.5,
      "duration": 0.25,
      "velocity": 0.71,
      "hand": "left"
    },
    {
      "midi": 36,
      "time": 704.75,
      "duration": 0.25,
      "velocity": 0.54,
      "hand": "left"
    },
    {
      "midi": 43,
      "time": 704.75,
      "duration": 0.25,
      "velocity": 0.54,
      "hand": "left"
    },
    {
      "midi": 48,
      "time": 704.75,
      "duration": 0.25,
      "velocity": 0.71,
      "hand": "left"
    },
    {
      "midi": 55,
      "time": 704.75,
      "duration": 0.25,
      "velocity": 0.71,
      "hand": "left"
    },
    {
      "midi": 41,
      "time": 705,
      "duration": 0.25,
      "velocity": 0.54,
      "hand": "left"
    },
    {
      "midi": 53,
      "time": 705,
      "duration": 0.25,
      "velocity": 0.71,
      "hand": "left"
    },
    {
      "midi": 32,
      "time": 705.25,
      "duration": 0.25,
      "velocity": 0.54,
      "hand": "left"
    },
    {
      "midi": 36,
      "time": 705.25,
      "duration": 0.25,
      "velocity": 0.54,
      "hand": "left"
    },
    {
      "midi": 44,
      "time": 705.25,
      "duration": 0.25,
      "velocity": 0.71,
      "hand": "left"
    },
    {
      "midi": 48,
      "time": 705.25,
      "duration": 0.25,
      "velocity": 0.71,
      "hand": "left"
    },
    {
      "midi": 37,
      "time": 705.5,
      "duration": 0.25,
      "velocity": 0.54,
      "hand": "left"
    },
    {
      "midi": 49,
      "time": 705.5,
      "duration": 0.25,
      "velocity": 0.71,
      "hand": "left"
    },
    {
      "midi": 32,
      "time": 705.75,
      "duration": 0.25,
      "velocity": 0.54,
      "hand": "left"
    },
    {
      "midi": 36,
      "time": 705.75,
      "duration": 0.25,
      "velocity": 0.54,
      "hand": "left"
    },
    {
      "midi": 44,
      "time": 705.75,
      "duration": 0.25,
      "velocity": 0.71,
      "hand": "left"
    },
    {
      "midi": 48,
      "time": 705.75,
      "duration": 0.25,
      "velocity": 0.71,
      "hand": "left"
    },
    {
      "midi": 29,
      "time": 706,
      "duration": 0.25,
      "velocity": 0.54,
      "hand": "left"
    },
    {
      "midi": 41,
      "time": 706,
      "duration": 0.25,
      "velocity": 0.71,
      "hand": "left"
    },
    {
      "midi": 36,
      "time": 706.25,
      "duration": 0.25,
      "velocity": 0.54,
      "hand": "left"
    },
    {
      "midi": 37,
      "time": 706.25,
      "duration": 0.25,
      "velocity": 0.54,
      "hand": "left"
    },
    {
      "midi": 48,
      "time": 706.25,
      "duration": 0.25,
      "velocity": 0.71,
      "hand": "left"
    },
    {
      "midi": 49,
      "time": 706.25,
      "duration": 0.25,
      "velocity": 0.71,
      "hand": "left"
    },
    {
      "midi": 32,
      "time": 706.5,
      "duration": 0.25,
      "velocity": 0.54,
      "hand": "left"
    },
    {
      "midi": 44,
      "time": 706.5,
      "duration": 0.25,
      "velocity": 0.71,
      "hand": "left"
    },
    {
      "midi": 29,
      "time": 706.75,
      "duration": 0.25,
      "velocity": 0.54,
      "hand": "left"
    },
    {
      "midi": 37,
      "time": 706.75,
      "duration": 0.25,
      "velocity": 0.54,
      "hand": "left"
    },
    {
      "midi": 41,
      "time": 706.75,
      "duration": 0.25,
      "velocity": 0.71,
      "hand": "left"
    },
    {
      "midi": 49,
      "time": 706.75,
      "duration": 0.25,
      "velocity": 0.71,
      "hand": "left"
    },
    {
      "midi": 36,
      "time": 707,
      "duration": 0.25,
      "velocity": 0.54,
      "hand": "left"
    },
    {
      "midi": 48,
      "time": 707,
      "duration": 0.25,
      "velocity": 0.71,
      "hand": "left"
    },
    {
      "midi": 29,
      "time": 707.25,
      "duration": 0.25,
      "velocity": 0.54,
      "hand": "left"
    },
    {
      "midi": 32,
      "time": 707.25,
      "duration": 0.25,
      "velocity": 0.54,
      "hand": "left"
    },
    {
      "midi": 41,
      "time": 707.25,
      "duration": 0.25,
      "velocity": 0.71,
      "hand": "left"
    },
    {
      "midi": 44,
      "time": 707.25,
      "duration": 0.25,
      "velocity": 0.71,
      "hand": "left"
    },
    {
      "midi": 37,
      "time": 707.5,
      "duration": 0.25,
      "velocity": 0.54,
      "hand": "left"
    },
    {
      "midi": 49,
      "time": 707.5,
      "duration": 0.25,
      "velocity": 0.71,
      "hand": "left"
    },
    {
      "midi": 32,
      "time": 707.75,
      "duration": 0.25,
      "velocity": 0.54,
      "hand": "left"
    },
    {
      "midi": 36,
      "time": 707.75,
      "duration": 0.25,
      "velocity": 0.54,
      "hand": "left"
    },
    {
      "midi": 44,
      "time": 707.75,
      "duration": 0.25,
      "velocity": 0.71,
      "hand": "left"
    },
    {
      "midi": 48,
      "time": 707.75,
      "duration": 0.25,
      "velocity": 0.71,
      "hand": "left"
    },
    {
      "midi": 29,
      "time": 708,
      "duration": 0.5,
      "velocity": 0.54,
      "hand": "left"
    },
    {
      "midi": 41,
      "time": 708,
      "duration": 0.5,
      "velocity": 0.71,
      "hand": "left"
    },
    {
      "midi": 37,
      "time": 709.5,
      "duration": 0.5,
      "velocity": 0.54,
      "hand": "left"
    },
    {
      "midi": 49,
      "time": 709.5,
      "duration": 0.5,
      "velocity": 0.54,
      "hand": "left"
    },
    {
      "midi": 65,
      "time": 709.5,
      "duration": 0.5,
      "velocity": 0.71,
      "hand": "right"
    },
    {
      "midi": 68,
      "time": 709.5,
      "duration": 0.5,
      "velocity": 0.71,
      "hand": "right"
    },
    {
      "midi": 73,
      "time": 709.5,
      "duration": 0.5,
      "velocity": 0.71,
      "hand": "right"
    },
    {
      "midi": 77,
      "time": 709.5,
      "duration": 0.5,
      "velocity": 0.71,
      "hand": "right"
    },
    {
      "midi": 34,
      "time": 711,
      "duration": 0.5,
      "velocity": 0.54,
      "hand": "left"
    },
    {
      "midi": 46,
      "time": 711,
      "duration": 0.5,
      "velocity": 0.54,
      "hand": "left"
    },
    {
      "midi": 73,
      "time": 711,
      "duration": 0.5,
      "velocity": 0.71,
      "hand": "right"
    },
    {
      "midi": 77,
      "time": 711,
      "duration": 0.5,
      "velocity": 0.71,
      "hand": "right"
    },
    {
      "midi": 79,
      "time": 711,
      "duration": 0.5,
      "velocity": 0.71,
      "hand": "right"
    },
    {
      "midi": 85,
      "time": 711,
      "duration": 0.5,
      "velocity": 0.71,
      "hand": "right"
    },
    {
      "midi": 36,
      "time": 712.5,
      "duration": 0.5,
      "velocity": 0.54,
      "hand": "left"
    },
    {
      "midi": 48,
      "time": 712.5,
      "duration": 0.5,
      "velocity": 0.54,
      "hand": "left"
    },
    {
      "midi": 55,
      "time": 712.5,
      "duration": 0.5,
      "velocity": 0.71,
      "hand": "left"
    },
    {
      "midi": 58,
      "time": 712.5,
      "duration": 0.5,
      "velocity": 0.71,
      "hand": "left"
    },
    {
      "midi": 60,
      "time": 712.5,
      "duration": 0.5,
      "velocity": 0.71,
      "hand": "right"
    },
    {
      "midi": 64,
      "time": 712.5,
      "duration": 0.5,
      "velocity": 0.71,
      "hand": "right"
    },
    {
      "midi": 29,
      "time": 714,
      "duration": 3,
      "velocity": 0.54,
      "hand": "left"
    },
    {
      "midi": 41,
      "time": 714,
      "duration": 3,
      "velocity": 0.54,
      "hand": "left"
    },
    {
      "midi": 53,
      "time": 714,
      "duration": 3,
      "velocity": 0.71,
      "hand": "left"
    },
    {
      "midi": 56,
      "time": 714,
      "duration": 3,
      "velocity": 0.71,
      "hand": "left"
    },
    {
      "midi": 60,
      "time": 714,
      "duration": 3,
      "velocity": 0.71,
      "hand": "right"
    },
    {
      "midi": 65,
      "time": 714,
      "duration": 3,
      "velocity": 0.71,
      "hand": "right"
    }
  ]
}
