{
  "id": "bella-ciao-lacasadepapel",
  "title": "Bella Ciao",
  "artist": "La Casa de Papel (Intro)",
  "difficulty": "Difícil",
  "bpm": 72,
  "duration": 108,
  "category": "Intro de Filmes",
  "isPremium": false,
  "coverUrl": "/images/covers/placeholder.png",
  "notes": [
    {
      "midi": 62,
      "time": 0,
      "duration": 0.417,
      "velocity": 0.42,
      "hand": "right"
    },
    {
      "midi": 67,
      "time": 0.416,
      "duration": 0.417,
      "velocity": 0.52,
      "hand": "right"
    },
    {
      "midi": 69,
      "time": 0.833,
      "duration": 0.417,
      "velocity": 0.51,
      "hand": "right"
    },
    {
      "midi": 43,
      "time": 1.25,
      "duration": 0.833,
      "velocity": 0.44,
      "hand": "left"
    },
    {
      "midi": 70,
      "time": 1.25,
      "duration": 0.417,
      "velocity": 0.51,
      "hand": "right"
    },
    {
      "midi": 67,
      "time": 1.666,
      "duration": 1.667,
      "velocity": 0.44,
      "hand": "right"
    },
    {
      "midi": 50,
      "time": 2.083,
      "duration": 0.818,
      "velocity": 0.6,
      "hand": "left"
    },
    {
      "midi": 55,
      "time": 2.083,
      "duration": 0.818,
      "velocity": 0.6,
      "hand": "left"
    },
    {
      "midi": 50,
      "time": 2.916,
      "duration": 0.819,
      "velocity": 0.54,
      "hand": "left"
    },
    {
      "midi": 55,
      "time": 2.916,
      "duration": 0.819,
      "velocity": 0.54,
      "hand": "left"
    },
    {
      "midi": 62,
      "time": 3.333,
      "duration": 0.417,
      "velocity": 0.42,
      "hand": "right"
    },
    {
      "midi": 50,
      "time": 3.75,
      "duration": 0.833,
      "velocity": 0.49,
      "hand": "left"
    },
    {
      "midi": 55,
      "time": 3.75,
      "duration": 0.833,
      "velocity": 0.49,
      "hand": "left"
    },
    {
      "midi": 67,
      "time": 3.75,
      "duration": 0.417,
      "velocity": 0.55,
      "hand": "right"
    },
    {
      "midi": 69,
      "time": 4.166,
      "duration": 0.417,
      "velocity": 0.5,
      "hand": "right"
    },
    {
      "midi": 43,
      "time": 4.583,
      "duration": 0.833,
      "velocity": 0.42,
      "hand": "left"
    },
    {
      "midi": 70,
      "time": 4.583,
      "duration": 0.417,
      "velocity": 0.49,
      "hand": "right"
    },
    {
      "midi": 67,
      "time": 5,
      "duration": 1.667,
      "velocity": 0.48,
      "hand": "right"
    },
    {
      "midi": 50,
      "time": 5.416,
      "duration": 0.819,
      "velocity": 0.55,
      "hand": "left"
    },
    {
      "midi": 55,
      "time": 5.416,
      "duration": 0.819,
      "velocity": 0.55,
      "hand": "left"
    },
    {
      "midi": 50,
      "time": 6.25,
      "duration": 0.818,
      "velocity": 0.5,
      "hand": "left"
    },
    {
      "midi": 55,
      "time": 6.25,
      "duration": 0.818,
      "velocity": 0.5,
      "hand": "left"
    },
    {
      "midi": 62,
      "time": 6.666,
      "duration": 0.417,
      "velocity": 0.41,
      "hand": "right"
    },
    {
      "midi": 50,
      "time": 7.083,
      "duration": 0.833,
      "velocity": 0.49,
      "hand": "left"
    },
    {
      "midi": 55,
      "time": 7.083,
      "duration": 0.833,
      "velocity": 0.49,
      "hand": "left"
    },
    {
      "midi": 67,
      "time": 7.083,
      "duration": 0.417,
      "velocity": 0.54,
      "hand": "right"
    },
    {
      "midi": 69,
      "time": 7.5,
      "duration": 0.417,
      "velocity": 0.53,
      "hand": "right"
    },
    {
      "midi": 43,
      "time": 7.916,
      "duration": 0.833,
      "velocity": 0.42,
      "hand": "left"
    },
    {
      "midi": 70,
      "time": 7.916,
      "duration": 0.833,
      "velocity": 0.52,
      "hand": "right"
    },
    {
      "midi": 50,
      "time": 8.75,
      "duration": 0.833,
      "velocity": 0.56,
      "hand": "left"
    },
    {
      "midi": 55,
      "time": 8.75,
      "duration": 0.833,
      "velocity": 0.56,
      "hand": "left"
    },
    {
      "midi": 69,
      "time": 8.75,
      "duration": 0.417,
      "velocity": 0.46,
      "hand": "right"
    },
    {
      "midi": 67,
      "time": 9.166,
      "duration": 0.417,
      "velocity": 0.46,
      "hand": "right"
    },
    {
      "midi": 43,
      "time": 9.583,
      "duration": 0.833,
      "velocity": 0.41,
      "hand": "left"
    },
    {
      "midi": 70,
      "time": 9.583,
      "duration": 0.833,
      "velocity": 0.49,
      "hand": "right"
    },
    {
      "midi": 50,
      "time": 10.416,
      "duration": 0.833,
      "velocity": 0.6,
      "hand": "left"
    },
    {
      "midi": 55,
      "time": 10.416,
      "duration": 0.833,
      "velocity": 0.6,
      "hand": "left"
    },
    {
      "midi": 69,
      "time": 10.416,
      "duration": 0.417,
      "velocity": 0.43,
      "hand": "right"
    },
    {
      "midi": 67,
      "time": 10.833,
      "duration": 0.417,
      "velocity": 0.5,
      "hand": "right"
    },
    {
      "midi": 43,
      "time": 11.25,
      "duration": 1.25,
      "velocity": 0.53,
      "hand": "left"
    },
    {
      "midi": 74,
      "time": 11.25,
      "duration": 0.818,
      "velocity": 0.54,
      "hand": "right"
    },
    {
      "midi": 55,
      "time": 12.083,
      "duration": 0.818,
      "velocity": 0.48,
      "hand": "left"
    },
    {
      "midi": 74,
      "time": 12.083,
      "duration": 0.818,
      "velocity": 0.51,
      "hand": "right"
    },
    {
      "midi": 47,
      "time": 12.5,
      "duration": 0.417,
      "velocity": 0.63,
      "hand": "left"
    },
    {
      "midi": 50,
      "time": 12.916,
      "duration": 0.833,
      "velocity": 0.63,
      "hand": "left"
    },
    {
      "midi": 55,
      "time": 12.916,
      "duration": 0.819,
      "velocity": 0.5,
      "hand": "left"
    },
    {
      "midi": 74,
      "time": 12.916,
      "duration": 0.402,
      "velocity": 0.47,
      "hand": "right"
    },
    {
      "midi": 74,
      "time": 13.333,
      "duration": 0.417,
      "velocity": 0.48,
      "hand": "right"
    },
    {
      "midi": 53,
      "time": 13.75,
      "duration": 0.417,
      "velocity": 0.64,
      "hand": "left"
    },
    {
      "midi": 55,
      "time": 13.75,
      "duration": 0.818,
      "velocity": 0.43,
      "hand": "left"
    },
    {
      "midi": 72,
      "time": 13.75,
      "duration": 0.417,
      "velocity": 0.4,
      "hand": "right"
    },
    {
      "midi": 50,
      "time": 14.166,
      "duration": 0.417,
      "velocity": 0.55,
      "hand": "left"
    },
    {
      "midi": 74,
      "time": 14.166,
      "duration": 0.417,
      "velocity": 0.54,
      "hand": "right"
    },
    {
      "midi": 48,
      "time": 14.583,
      "duration": 0.833,
      "velocity": 0.5,
      "hand": "left"
    },
    {
      "midi": 55,
      "time": 14.583,
      "duration": 0.833,
      "velocity": 0.5,
      "hand": "left"
    },
    {
      "midi": 75,
      "time": 14.583,
      "duration": 0.402,
      "velocity": 0.52,
      "hand": "right"
    },
    {
      "midi": 75,
      "time": 15,
      "duration": 1.651,
      "velocity": 0.46,
      "hand": "right"
    },
    {
      "midi": 51,
      "time": 15.416,
      "duration": 0.833,
      "velocity": 0.54,
      "hand": "left"
    },
    {
      "midi": 60,
      "time": 15.416,
      "duration": 0.833,
      "velocity": 0.54,
      "hand": "right"
    },
    {
      "midi": 55,
      "time": 16.25,
      "duration": 0.833,
      "velocity": 0.53,
      "hand": "left"
    },
    {
      "midi": 63,
      "time": 16.25,
      "duration": 0.833,
      "velocity": 0.53,
      "hand": "right"
    },
    {
      "midi": 75,
      "time": 16.666,
      "duration": 0.417,
      "velocity": 0.47,
      "hand": "right"
    },
    {
      "midi": 51,
      "time": 17.083,
      "duration": 0.833,
      "velocity": 0.47,
      "hand": "left"
    },
    {
      "midi": 60,
      "time": 17.083,
      "duration": 0.833,
      "velocity": 0.47,
      "hand": "right"
    },
    {
      "midi": 74,
      "time": 17.083,
      "duration": 0.417,
      "velocity": 0.48,
      "hand": "right"
    },
    {
      "midi": 72,
      "time": 17.5,
      "duration": 0.417,
      "velocity": 0.43,
      "hand": "right"
    },
    {
      "midi": 43,
      "time": 17.916,
      "duration": 1.25,
      "velocity": 0.54,
      "hand": "left"
    },
    {
      "midi": 75,
      "time": 17.916,
      "duration": 0.417,
      "velocity": 0.51,
      "hand": "right"
    },
    {
      "midi": 74,
      "time": 18.333,
      "duration": 1.25,
      "velocity": 0.46,
      "hand": "right"
    },
    {
      "midi": 55,
      "time": 18.75,
      "duration": 0.833,
      "velocity": 0.43,
      "hand": "left"
    },
    {
      "midi": 46,
      "time": 19.166,
      "duration": 0.417,
      "velocity": 0.58,
      "hand": "left"
    },
    {
      "midi": 50,
      "time": 19.583,
      "duration": 0.833,
      "velocity": 0.65,
      "hand": "left"
    },
    {
      "midi": 58,
      "time": 19.583,
      "duration": 0.833,
      "velocity": 0.54,
      "hand": "left"
    },
    {
      "midi": 74,
      "time": 20,
      "duration": 0.417,
      "velocity": 0.38,
      "hand": "right"
    },
    {
      "midi": 46,
      "time": 20.416,
      "duration": 0.833,
      "velocity": 0.61,
      "hand": "left"
    },
    {
      "midi": 55,
      "time": 20.416,
      "duration": 0.833,
      "velocity": 0.51,
      "hand": "left"
    },
    {
      "midi": 72,
      "time": 20.416,
      "duration": 0.417,
      "velocity": 0.46,
      "hand": "right"
    },
    {
      "midi": 70,
      "time": 20.833,
      "duration": 0.417,
      "velocity": 0.44,
      "hand": "right"
    },
    {
      "midi": 50,
      "time": 21.25,
      "duration": 1.25,
      "velocity": 0.62,
      "hand": "left"
    },
    {
      "midi": 69,
      "time": 21.25,
      "duration": 0.833,
      "velocity": 0.46,
      "hand": "right"
    },
    {
      "midi": 54,
      "time": 22.083,
      "duration": 0.833,
      "velocity": 0.41,
      "hand": "left"
    },
    {
      "midi": 57,
      "time": 22.083,
      "duration": 0.833,
      "velocity": 0.41,
      "hand": "left"
    },
    {
      "midi": 74,
      "time": 22.083,
      "duration": 0.833,
      "velocity": 0.54,
      "hand": "right"
    },
    {
      "midi": 45,
      "time": 22.5,
      "duration": 0.417,
      "velocity": 0.59,
      "hand": "left"
    },
    {
      "midi": 50,
      "time": 22.916,
      "duration": 0.819,
      "velocity": 0.62,
      "hand": "left"
    },
    {
      "midi": 69,
      "time": 22.916,
      "duration": 0.833,
      "velocity": 0.44,
      "hand": "right"
    },
    {
      "midi": 50,
      "time": 23.75,
      "duration": 0.833,
      "velocity": 0.62,
      "hand": "left"
    },
    {
      "midi": 54,
      "time": 23.75,
      "duration": 0.833,
      "velocity": 0.41,
      "hand": "left"
    },
    {
      "midi": 70,
      "time": 23.75,
      "duration": 0.833,
      "velocity": 0.48,
      "hand": "right"
    },
    {
      "midi": 43,
      "time": 24.583,
      "duration": 1.25,
      "velocity": 0.38,
      "hand": "left"
    },
    {
      "midi": 67,
      "time": 24.583,
      "duration": 2.083,
      "velocity": 0.45,
      "hand": "right"
    },
    {
      "midi": 55,
      "time": 25.416,
      "duration": 0.819,
      "velocity": 0.58,
      "hand": "left"
    },
    {
      "midi": 58,
      "time": 25.416,
      "duration": 0.819,
      "velocity": 0.58,
      "hand": "left"
    },
    {
      "midi": 62,
      "time": 25.416,
      "duration": 0.819,
      "velocity": 0.58,
      "hand": "right"
    },
    {
      "midi": 38,
      "time": 25.833,
      "duration": 0.417,
      "velocity": 0.44,
      "hand": "left"
    },
    {
      "midi": 43,
      "time": 26.25,
      "duration": 0.417,
      "velocity": 0.55,
      "hand": "left"
    },
    {
      "midi": 55,
      "time": 26.25,
      "duration": 0.417,
      "velocity": 0.61,
      "hand": "left"
    },
    {
      "midi": 62,
      "time": 26.25,
      "duration": 0.401,
      "velocity": 0.61,
      "hand": "right"
    },
    {
      "midi": 62,
      "time": 26.666,
      "duration": 0.417,
      "velocity": 0.41,
      "hand": "right"
    },
    {
      "midi": 67,
      "time": 27.083,
      "duration": 0.417,
      "velocity": 0.51,
      "hand": "right"
    },
    {
      "midi": 69,
      "time": 27.5,
      "duration": 0.417,
      "velocity": 0.51,
      "hand": "right"
    },
    {
      "midi": 43,
      "time": 27.916,
      "duration": 0.833,
      "velocity": 0.46,
      "hand": "left"
    },
    {
      "midi": 70,
      "time": 27.916,
      "duration": 0.417,
      "velocity": 0.54,
      "hand": "right"
    },
    {
      "midi": 67,
      "time": 28.333,
      "duration": 1.667,
      "velocity": 0.46,
      "hand": "right"
    },
    {
      "midi": 50,
      "time": 28.75,
      "duration": 0.818,
      "velocity": 0.61,
      "hand": "left"
    },
    {
      "midi": 55,
      "time": 28.75,
      "duration": 0.818,
      "velocity": 0.61,
      "hand": "left"
    },
    {
      "midi": 50,
      "time": 29.583,
      "duration": 0.818,
      "velocity": 0.51,
      "hand": "left"
    },
    {
      "midi": 55,
      "time": 29.583,
      "duration": 0.818,
      "velocity": 0.51,
      "hand": "left"
    },
    {
      "midi": 62,
      "time": 30,
      "duration": 0.417,
      "velocity": 0.43,
      "hand": "right"
    },
    {
      "midi": 50,
      "time": 30.416,
      "duration": 0.833,
      "velocity": 0.55,
      "hand": "left"
    },
    {
      "midi": 55,
      "time": 30.416,
      "duration": 0.833,
      "velocity": 0.55,
      "hand": "left"
    },
    {
      "midi": 67,
      "time": 30.416,
      "duration": 0.417,
      "velocity": 0.52,
      "hand": "right"
    },
    {
      "midi": 69,
      "time": 30.833,
      "duration": 0.417,
      "velocity": 0.5,
      "hand": "right"
    },
    {
      "midi": 43,
      "time": 31.25,
      "duration": 0.833,
      "velocity": 0.43,
      "hand": "left"
    },
    {
      "midi": 70,
      "time": 31.25,
      "duration": 0.417,
      "velocity": 0.52,
      "hand": "right"
    },
    {
      "midi": 67,
      "time": 31.666,
      "duration": 1.667,
      "velocity": 0.43,
      "hand": "right"
    },
    {
      "midi": 50,
      "time": 32.083,
      "duration": 0.818,
      "velocity": 0.59,
      "hand": "left"
    },
    {
      "midi": 55,
      "time": 32.083,
      "duration": 0.818,
      "velocity": 0.59,
      "hand": "left"
    },
    {
      "midi": 50,
      "time": 32.916,
      "duration": 0.819,
      "velocity": 0.54,
      "hand": "left"
    },
    {
      "midi": 55,
      "time": 32.916,
      "duration": 0.819,
      "velocity": 0.54,
      "hand": "left"
    },
    {
      "midi": 62,
      "time": 33.333,
      "duration": 0.417,
      "velocity": 0.43,
      "hand": "right"
    },
    {
      "midi": 50,
      "time": 33.75,
      "duration": 0.833,
      "velocity": 0.53,
      "hand": "left"
    },
    {
      "midi": 55,
      "time": 33.75,
      "duration": 0.833,
      "velocity": 0.53,
      "hand": "left"
    },
    {
      "midi": 67,
      "time": 33.75,
      "duration": 0.417,
      "velocity": 0.55,
      "hand": "right"
    },
    {
      "midi": 69,
      "time": 34.166,
      "duration": 0.417,
      "velocity": 0.54,
      "hand": "right"
    },
    {
      "midi": 43,
      "time": 34.583,
      "duration": 0.833,
      "velocity": 0.43,
      "hand": "left"
    },
    {
      "midi": 70,
      "time": 34.583,
      "duration": 0.833,
      "velocity": 0.5,
      "hand": "right"
    },
    {
      "midi": 50,
      "time": 35.416,
      "duration": 0.833,
      "velocity": 0.57,
      "hand": "left"
    },
    {
      "midi": 55,
      "time": 35.416,
      "duration": 0.833,
      "velocity": 0.57,
      "hand": "left"
    },
    {
      "midi": 69,
      "time": 35.416,
      "duration": 0.417,
      "velocity": 0.43,
      "hand": "right"
    },
    {
      "midi": 67,
      "time": 35.833,
      "duration": 0.417,
      "velocity": 0.42,
      "hand": "right"
    },
    {
      "midi": 43,
      "time": 36.25,
      "duration": 0.833,
      "velocity": 0.44,
      "hand": "left"
    },
    {
      "midi": 70,
      "time": 36.25,
      "duration": 0.833,
      "velocity": 0.5,
      "hand": "right"
    },
    {
      "midi": 50,
      "time": 37.083,
      "duration": 0.833,
      "velocity": 0.6,
      "hand": "left"
    },
    {
      "midi": 55,
      "time": 37.083,
      "duration": 0.833,
      "velocity": 0.6,
      "hand": "left"
    },
    {
      "midi": 69,
      "time": 37.083,
      "duration": 0.417,
      "velocity": 0.47,
      "hand": "right"
    },
    {
      "midi": 67,
      "time": 37.5,
      "duration": 0.417,
      "velocity": 0.4,
      "hand": "right"
    },
    {
      "midi": 43,
      "time": 37.916,
      "duration": 1.25,
      "velocity": 0.57,
      "hand": "left"
    },
    {
      "midi": 74,
      "time": 37.916,
      "duration": 0.819,
      "velocity": 0.54,
      "hand": "right"
    },
    {
      "midi": 55,
      "time": 38.75,
      "duration": 0.818,
      "velocity": 0.46,
      "hand": "left"
    },
    {
      "midi": 74,
      "time": 38.75,
      "duration": 0.818,
      "velocity": 0.46,
      "hand": "right"
    },
    {
      "midi": 47,
      "time": 39.166,
      "duration": 0.417,
      "velocity": 0.62,
      "hand": "left"
    },
    {
      "midi": 50,
      "time": 39.583,
      "duration": 0.833,
      "velocity": 0.61,
      "hand": "left"
    },
    {
      "midi": 55,
      "time": 39.583,
      "duration": 0.818,
      "velocity": 0.46,
      "hand": "left"
    },
    {
      "midi": 74,
      "time": 39.583,
      "duration": 0.402,
      "velocity": 0.46,
      "hand": "right"
    },
    {
      "midi": 74,
      "time": 40,
      "duration": 0.417,
      "velocity": 0.47,
      "hand": "right"
    },
    {
      "midi": 53,
      "time": 40.416,
      "duration": 0.417,
      "velocity": 0.65,
      "hand": "left"
    },
    {
      "midi": 55,
      "time": 40.416,
      "duration": 0.819,
      "velocity": 0.5,
      "hand": "left"
    },
    {
      "midi": 72,
      "time": 40.416,
      "duration": 0.417,
      "velocity": 0.44,
      "hand": "right"
    },
    {
      "midi": 50,
      "time": 40.833,
      "duration": 0.417,
      "velocity": 0.57,
      "hand": "left"
    },
    {
      "midi": 74,
      "time": 40.833,
      "duration": 0.417,
      "velocity": 0.51,
      "hand": "right"
    },
    {
      "midi": 48,
      "time": 41.25,
      "duration": 0.833,
      "velocity": 0.46,
      "hand": "left"
    },
    {
      "midi": 55,
      "time": 41.25,
      "duration": 0.833,
      "velocity": 0.46,
      "hand": "left"
    },
    {
      "midi": 75,
      "time": 41.25,
      "duration": 0.401,
      "velocity": 0.54,
      "hand": "right"
    },
    {
      "midi": 75,
      "time": 41.666,
      "duration": 1.652,
      "velocity": 0.48,
      "hand": "right"
    },
    {
      "midi": 51,
      "time": 42.083,
      "duration": 0.833,
      "velocity": 0.51,
      "hand": "left"
    },
    {
      "midi": 60,
      "time": 42.083,
      "duration": 0.833,
      "velocity": 0.51,
      "hand": "right"
    },
    {
      "midi": 55,
      "time": 42.916,
      "duration": 0.833,
      "velocity": 0.54,
      "hand": "left"
    },
    {
      "midi": 63,
      "time": 42.916,
      "duration": 0.833,
      "velocity": 0.54,
      "hand": "right"
    },
    {
      "midi": 75,
      "time": 43.333,
      "duration": 0.417,
      "velocity": 0.5,
      "hand": "right"
    },
    {
      "midi": 51,
      "time": 43.75,
      "duration": 0.833,
      "velocity": 0.43,
      "hand": "left"
    },
    {
      "midi": 60,
      "time": 43.75,
      "duration": 0.833,
      "velocity": 0.43,
      "hand": "right"
    },
    {
      "midi": 74,
      "time": 43.75,
      "duration": 0.417,
      "velocity": 0.44,
      "hand": "right"
    },
    {
      "midi": 72,
      "time": 44.166,
      "duration": 0.417,
      "velocity": 0.47,
      "hand": "right"
    },
    {
      "midi": 43,
      "time": 44.583,
      "duration": 1.25,
      "velocity": 0.58,
      "hand": "left"
    },
    {
      "midi": 75,
      "time": 44.583,
      "duration": 0.417,
      "velocity": 0.52,
      "hand": "right"
    },
    {
      "midi": 74,
      "time": 45,
      "duration": 1.25,
      "velocity": 0.45,
      "hand": "right"
    },
    {
      "midi": 55,
      "time": 45.416,
      "duration": 0.833,
      "velocity": 0.43,
      "hand": "left"
    },
    {
      "midi": 46,
      "time": 45.833,
      "duration": 0.417,
      "velocity": 0.62,
      "hand": "left"
    },
    {
      "midi": 50,
      "time": 46.25,
      "duration": 0.833,
      "velocity": 0.65,
      "hand": "left"
    },
    {
      "midi": 58,
      "time": 46.25,
      "duration": 0.833,
      "velocity": 0.54,
      "hand": "left"
    },
    {
      "midi": 74,
      "time": 46.666,
      "duration": 0.417,
      "velocity": 0.4,
      "hand": "right"
    },
    {
      "midi": 46,
      "time": 47.083,
      "duration": 0.833,
      "velocity": 0.57,
      "hand": "left"
    },
    {
      "midi": 55,
      "time": 47.083,
      "duration": 0.833,
      "velocity": 0.53,
      "hand": "left"
    },
    {
      "midi": 72,
      "time": 47.083,
      "duration": 0.417,
      "velocity": 0.45,
      "hand": "right"
    },
    {
      "midi": 70,
      "time": 47.5,
      "duration": 0.417,
      "velocity": 0.46,
      "hand": "right"
    },
    {
      "midi": 50,
      "time": 47.916,
      "duration": 1.25,
      "velocity": 0.62,
      "hand": "left"
    },
    {
      "midi": 69,
      "time": 47.916,
      "duration": 0.833,
      "velocity": 0.44,
      "hand": "right"
    },
    {
      "midi": 54,
      "time": 48.75,
      "duration": 0.833,
      "velocity": 0.4,
      "hand": "left"
    },
    {
      "midi": 57,
      "time": 48.75,
      "duration": 0.833,
      "velocity": 0.4,
      "hand": "left"
    },
    {
      "midi": 74,
      "time": 48.75,
      "duration": 0.833,
      "velocity": 0.53,
      "hand": "right"
    },
    {
      "midi": 45,
      "time": 49.166,
      "duration": 0.417,
      "velocity": 0.54,
      "hand": "left"
    },
    {
      "midi": 50,
      "time": 49.583,
      "duration": 0.818,
      "velocity": 0.64,
      "hand": "left"
    },
    {
      "midi": 69,
      "time": 49.583,
      "duration": 0.833,
      "velocity": 0.43,
      "hand": "right"
    },
    {
      "midi": 50,
      "time": 50.416,
      "duration": 0.833,
      "velocity": 0.58,
      "hand": "left"
    },
    {
      "midi": 54,
      "time": 50.416,
      "duration": 0.833,
      "velocity": 0.4,
      "hand": "left"
    },
    {
      "midi": 70,
      "time": 50.416,
      "duration": 0.833,
      "velocity": 0.49,
      "hand": "right"
    },
    {
      "midi": 43,
      "time": 51.25,
      "duration": 1.25,
      "velocity": 0.4,
      "hand": "left"
    },
    {
      "midi": 67,
      "time": 51.25,
      "duration": 2.083,
      "velocity": 0.44,
      "hand": "right"
    },
    {
      "midi": 55,
      "time": 52.083,
      "duration": 0.818,
      "velocity": 0.52,
      "hand": "left"
    },
    {
      "midi": 58,
      "time": 52.083,
      "duration": 0.818,
      "velocity": 0.52,
      "hand": "left"
    },
    {
      "midi": 62,
      "time": 52.083,
      "duration": 0.818,
      "velocity": 0.52,
      "hand": "right"
    },
    {
      "midi": 38,
      "time": 52.5,
      "duration": 0.417,
      "velocity": 0.44,
      "hand": "left"
    },
    {
      "midi": 43,
      "time": 52.916,
      "duration": 0.417,
      "velocity": 0.55,
      "hand": "left"
    },
    {
      "midi": 55,
      "time": 52.916,
      "duration": 0.417,
      "velocity": 0.57,
      "hand": "left"
    },
    {
      "midi": 62,
      "time": 52.916,
      "duration": 0.402,
      "velocity": 0.57,
      "hand": "right"
    },
    {
      "midi": 62,
      "time": 53.333,
      "duration": 0.417,
      "velocity": 0.41,
      "hand": "right"
    },
    {
      "midi": 67,
      "time": 53.75,
      "duration": 0.417,
      "velocity": 0.53,
      "hand": "right"
    },
    {
      "midi": 69,
      "time": 54.166,
      "duration": 0.417,
      "velocity": 0.52,
      "hand": "right"
    },
    {
      "midi": 43,
      "time": 54.583,
      "duration": 0.833,
      "velocity": 0.43,
      "hand": "left"
    },
    {
      "midi": 70,
      "time": 54.583,
      "duration": 0.417,
      "velocity": 0.49,
      "hand": "right"
    },
    {
      "midi": 67,
      "time": 55,
      "duration": 1.667,
      "velocity": 0.47,
      "hand": "right"
    },
    {
      "midi": 50,
      "time": 55.416,
      "duration": 0.819,
      "velocity": 0.6,
      "hand": "left"
    },
    {
      "midi": 55,
      "time": 55.416,
      "duration": 0.819,
      "velocity": 0.6,
      "hand": "left"
    },
    {
      "midi": 50,
      "time": 56.25,
      "duration": 0.818,
      "velocity": 0.53,
      "hand": "left"
    },
    {
      "midi": 55,
      "time": 56.25,
      "duration": 0.818,
      "velocity": 0.53,
      "hand": "left"
    },
    {
      "midi": 62,
      "time": 56.666,
      "duration": 0.417,
      "velocity": 0.46,
      "hand": "right"
    },
    {
      "midi": 50,
      "time": 57.083,
      "duration": 0.833,
      "velocity": 0.52,
      "hand": "left"
    },
    {
      "midi": 55,
      "time": 57.083,
      "duration": 0.833,
      "velocity": 0.52,
      "hand": "left"
    },
    {
      "midi": 67,
      "time": 57.083,
      "duration": 0.417,
      "velocity": 0.54,
      "hand": "right"
    },
    {
      "midi": 69,
      "time": 57.5,
      "duration": 0.417,
      "velocity": 0.5,
      "hand": "right"
    },
    {
      "midi": 43,
      "time": 57.916,
      "duration": 0.833,
      "velocity": 0.39,
      "hand": "left"
    },
    {
      "midi": 70,
      "time": 57.916,
      "duration": 0.417,
      "velocity": 0.5,
      "hand": "right"
    },
    {
      "midi": 67,
      "time": 58.333,
      "duration": 1.667,
      "velocity": 0.45,
      "hand": "right"
    },
    {
      "midi": 50,
      "time": 58.75,
      "duration": 0.818,
      "velocity": 0.57,
      "hand": "left"
    },
    {
      "midi": 55,
      "time": 58.75,
      "duration": 0.818,
      "velocity": 0.57,
      "hand": "left"
    },
    {
      "midi": 50,
      "time": 59.583,
      "duration": 0.818,
      "velocity": 0.54,
      "hand": "left"
    },
    {
      "midi": 55,
      "time": 59.583,
      "duration": 0.818,
      "velocity": 0.54,
      "hand": "left"
    },
    {
      "midi": 62,
      "time": 60,
      "duration": 0.417,
      "velocity": 0.42,
      "hand": "right"
    },
    {
      "midi": 50,
      "time": 60.416,
      "duration": 0.833,
      "velocity": 0.51,
      "hand": "left"
    },
    {
      "midi": 55,
      "time": 60.416,
      "duration": 0.833,
      "velocity": 0.51,
      "hand": "left"
    },
    {
      "midi": 67,
      "time": 60.416,
      "duration": 0.417,
      "velocity": 0.53,
      "hand": "right"
    },
    {
      "midi": 69,
      "time": 60.833,
      "duration": 0.417,
      "velocity": 0.56,
      "hand": "right"
    },
    {
      "midi": 43,
      "time": 61.25,
      "duration": 0.833,
      "velocity": 0.43,
      "hand": "left"
    },
    {
      "midi": 70,
      "time": 61.25,
      "duration": 0.833,
      "velocity": 0.51,
      "hand": "right"
    },
    {
      "midi": 50,
      "time": 62.083,
      "duration": 0.833,
      "velocity": 0.59,
      "hand": "left"
    },
    {
      "midi": 55,
      "time": 62.083,
      "duration": 0.833,
      "velocity": 0.59,
      "hand": "left"
    },
    {
      "midi": 69,
      "time": 62.083,
      "duration": 0.417,
      "velocity": 0.5,
      "hand": "right"
    },
    {
      "midi": 67,
      "time": 62.5,
      "duration": 0.417,
      "velocity": 0.47,
      "hand": "right"
    },
    {
      "midi": 43,
      "time": 62.916,
      "duration": 0.833,
      "velocity": 0.39,
      "hand": "left"
    },
    {
      "midi": 70,
      "time": 62.916,
      "duration": 0.833,
      "velocity": 0.52,
      "hand": "right"
    },
    {
      "midi": 50,
      "time": 63.75,
      "duration": 0.833,
      "velocity": 0.61,
      "hand": "left"
    },
    {
      "midi": 55,
      "time": 63.75,
      "duration": 0.833,
      "velocity": 0.61,
      "hand": "left"
    },
    {
      "midi": 69,
      "time": 63.75,
      "duration": 0.417,
      "velocity": 0.49,
      "hand": "right"
    },
    {
      "midi": 67,
      "time": 64.166,
      "duration": 0.417,
      "velocity": 0.46,
      "hand": "right"
    },
    {
      "midi": 43,
      "time": 64.583,
      "duration": 1.25,
      "velocity": 0.53,
      "hand": "left"
    },
    {
      "midi": 74,
      "time": 64.583,
      "duration": 0.818,
      "velocity": 0.58,
      "hand": "right"
    },
    {
      "midi": 55,
      "time": 65.416,
      "duration": 0.819,
      "velocity": 0.48,
      "hand": "left"
    },
    {
      "midi": 74,
      "time": 65.416,
      "duration": 0.819,
      "velocity": 0.49,
      "hand": "right"
    },
    {
      "midi": 47,
      "time": 65.833,
      "duration": 0.417,
      "velocity": 0.6,
      "hand": "left"
    },
    {
      "midi": 50,
      "time": 66.25,
      "duration": 0.833,
      "velocity": 0.63,
      "hand": "left"
    },
    {
      "midi": 55,
      "time": 66.25,
      "duration": 0.818,
      "velocity": 0.5,
      "hand": "left"
    },
    {
      "midi": 74,
      "time": 66.25,
      "duration": 0.401,
      "velocity": 0.52,
      "hand": "right"
    },
    {
      "midi": 74,
      "time": 66.666,
      "duration": 0.417,
      "velocity": 0.41,
      "hand": "right"
    },
    {
      "midi": 53,
      "time": 67.083,
      "duration": 0.417,
      "velocity": 0.63,
      "hand": "left"
    },
    {
      "midi": 55,
      "time": 67.083,
      "duration": 0.818,
      "velocity": 0.48,
      "hand": "left"
    },
    {
      "midi": 72,
      "time": 67.083,
      "duration": 0.417,
      "velocity": 0.46,
      "hand": "right"
    },
    {
      "midi": 50,
      "time": 67.5,
      "duration": 0.417,
      "velocity": 0.57,
      "hand": "left"
    },
    {
      "midi": 74,
      "time": 67.5,
      "duration": 0.417,
      "velocity": 0.49,
      "hand": "right"
    },
    {
      "midi": 48,
      "time": 67.916,
      "duration": 0.833,
      "velocity": 0.5,
      "hand": "left"
    },
    {
      "midi": 55,
      "time": 67.916,
      "duration": 0.833,
      "velocity": 0.5,
      "hand": "left"
    },
    {
      "midi": 75,
      "time": 67.916,
      "duration": 0.402,
      "velocity": 0.5,
      "hand": "right"
    },
    {
      "midi": 75,
      "time": 68.333,
      "duration": 1.652,
      "velocity": 0.49,
      "hand": "right"
    },
    {
      "midi": 51,
      "time": 68.75,
      "duration": 0.833,
      "velocity": 0.56,
      "hand": "left"
    },
    {
      "midi": 60,
      "time": 68.75,
      "duration": 0.833,
      "velocity": 0.56,
      "hand": "right"
    },
    {
      "midi": 55,
      "time": 69.583,
      "duration": 0.833,
      "velocity": 0.52,
      "hand": "left"
    },
    {
      "midi": 63,
      "time": 69.583,
      "duration": 0.833,
      "velocity": 0.52,
      "hand": "right"
    },
    {
      "midi": 75,
      "time": 70,
      "duration": 0.417,
      "velocity": 0.49,
      "hand": "right"
    },
    {
      "midi": 51,
      "time": 70.416,
      "duration": 0.833,
      "velocity": 0.44,
      "hand": "left"
    },
    {
      "midi": 60,
      "time": 70.416,
      "duration": 0.833,
      "velocity": 0.44,
      "hand": "right"
    },
    {
      "midi": 74,
      "time": 70.416,
      "duration": 0.417,
      "velocity": 0.49,
      "hand": "right"
    },
    {
      "midi": 72,
      "time": 70.833,
      "duration": 0.417,
      "velocity": 0.39,
      "hand": "right"
    },
    {
      "midi": 43,
      "time": 71.25,
      "duration": 1.25,
      "velocity": 0.55,
      "hand": "left"
    },
    {
      "midi": 75,
      "time": 71.25,
      "duration": 0.417,
      "velocity": 0.51,
      "hand": "right"
    },
    {
      "midi": 74,
      "time": 71.666,
      "duration": 1.25,
      "velocity": 0.44,
      "hand": "right"
    },
    {
      "midi": 55,
      "time": 72.083,
      "duration": 0.833,
      "velocity": 0.5,
      "hand": "left"
    },
    {
      "midi": 46,
      "time": 72.5,
      "duration": 0.417,
      "velocity": 0.64,
      "hand": "left"
    },
    {
      "midi": 50,
      "time": 72.916,
      "duration": 0.833,
      "velocity": 0.65,
      "hand": "left"
    },
    {
      "midi": 58,
      "time": 72.916,
      "duration": 0.833,
      "velocity": 0.56,
      "hand": "left"
    },
    {
      "midi": 74,
      "time": 73.333,
      "duration": 0.417,
      "velocity": 0.43,
      "hand": "right"
    },
    {
      "midi": 46,
      "time": 73.75,
      "duration": 0.833,
      "velocity": 0.58,
      "hand": "left"
    },
    {
      "midi": 55,
      "time": 73.75,
      "duration": 0.833,
      "velocity": 0.5,
      "hand": "left"
    },
    {
      "midi": 72,
      "time": 73.75,
      "duration": 0.417,
      "velocity": 0.47,
      "hand": "right"
    },
    {
      "midi": 70,
      "time": 74.166,
      "duration": 0.417,
      "velocity": 0.46,
      "hand": "right"
    },
    {
      "midi": 50,
      "time": 74.583,
      "duration": 1.25,
      "velocity": 0.63,
      "hand": "left"
    },
    {
      "midi": 69,
      "time": 74.583,
      "duration": 0.833,
      "velocity": 0.45,
      "hand": "right"
    },
    {
      "midi": 54,
      "time": 75.416,
      "duration": 0.833,
      "velocity": 0.42,
      "hand": "left"
    },
    {
      "midi": 57,
      "time": 75.416,
      "duration": 0.833,
      "velocity": 0.42,
      "hand": "left"
    },
    {
      "midi": 74,
      "time": 75.416,
      "duration": 0.833,
      "velocity": 0.5,
      "hand": "right"
    },
    {
      "midi": 45,
      "time": 75.833,
      "duration": 0.417,
      "velocity": 0.56,
      "hand": "left"
    },
    {
      "midi": 50,
      "time": 76.25,
      "duration": 0.818,
      "velocity": 0.59,
      "hand": "left"
    },
    {
      "midi": 69,
      "time": 76.25,
      "duration": 0.833,
      "velocity": 0.46,
      "hand": "right"
    },
    {
      "midi": 50,
      "time": 77.083,
      "duration": 0.833,
      "velocity": 0.61,
      "hand": "left"
    },
    {
      "midi": 54,
      "time": 77.083,
      "duration": 0.833,
      "velocity": 0.43,
      "hand": "left"
    },
    {
      "midi": 70,
      "time": 77.083,
      "duration": 0.833,
      "velocity": 0.5,
      "hand": "right"
    },
    {
      "midi": 43,
      "time": 77.916,
      "duration": 1.25,
      "velocity": 0.4,
      "hand": "left"
    },
    {
      "midi": 67,
      "time": 77.916,
      "duration": 2.083,
      "velocity": 0.43,
      "hand": "right"
    },
    {
      "midi": 55,
      "time": 78.75,
      "duration": 0.818,
      "velocity": 0.55,
      "hand": "left"
    },
    {
      "midi": 58,
      "time": 78.75,
      "duration": 0.818,
      "velocity": 0.55,
      "hand": "left"
    },
    {
      "midi": 62,
      "time": 78.75,
      "duration": 0.818,
      "velocity": 0.55,
      "hand": "right"
    },
    {
      "midi": 38,
      "time": 79.166,
      "duration": 0.417,
      "velocity": 0.45,
      "hand": "left"
    },
    {
      "midi": 43,
      "time": 79.583,
      "duration": 0.417,
      "velocity": 0.52,
      "hand": "left"
    },
    {
      "midi": 55,
      "time": 79.583,
      "duration": 0.417,
      "velocity": 0.56,
      "hand": "left"
    },
    {
      "midi": 62,
      "time": 79.583,
      "duration": 0.402,
      "velocity": 0.56,
      "hand": "right"
    },
    {
      "midi": 62,
      "time": 80,
      "duration": 0.417,
      "velocity": 0.39,
      "hand": "right"
    },
    {
      "midi": 67,
      "time": 80.416,
      "duration": 0.417,
      "velocity": 0.52,
      "hand": "right"
    },
    {
      "midi": 69,
      "time": 80.833,
      "duration": 0.417,
      "velocity": 0.54,
      "hand": "right"
    },
    {
      "midi": 43,
      "time": 81.25,
      "duration": 0.833,
      "velocity": 0.4,
      "hand": "left"
    },
    {
      "midi": 70,
      "time": 81.25,
      "duration": 0.417,
      "velocity": 0.46,
      "hand": "right"
    },
    {
      "midi": 67,
      "time": 81.666,
      "duration": 1.667,
      "velocity": 0.42,
      "hand": "right"
    },
    {
      "midi": 50,
      "time": 82.083,
      "duration": 0.818,
      "velocity": 0.58,
      "hand": "left"
    },
    {
      "midi": 55,
      "time": 82.083,
      "duration": 0.818,
      "velocity": 0.58,
      "hand": "left"
    },
    {
      "midi": 50,
      "time": 82.916,
      "duration": 0.819,
      "velocity": 0.54,
      "hand": "left"
    },
    {
      "midi": 55,
      "time": 82.916,
      "duration": 0.819,
      "velocity": 0.54,
      "hand": "left"
    },
    {
      "midi": 62,
      "time": 83.333,
      "duration": 0.417,
      "velocity": 0.41,
      "hand": "right"
    },
    {
      "midi": 50,
      "time": 83.75,
      "duration": 0.833,
      "velocity": 0.5,
      "hand": "left"
    },
    {
      "midi": 55,
      "time": 83.75,
      "duration": 0.833,
      "velocity": 0.5,
      "hand": "left"
    },
    {
      "midi": 67,
      "time": 83.75,
      "duration": 0.417,
      "velocity": 0.54,
      "hand": "right"
    },
    {
      "midi": 69,
      "time": 84.166,
      "duration": 0.417,
      "velocity": 0.51,
      "hand": "right"
    },
    {
      "midi": 43,
      "time": 84.583,
      "duration": 0.833,
      "velocity": 0.43,
      "hand": "left"
    },
    {
      "midi": 70,
      "time": 84.583,
      "duration": 0.417,
      "velocity": 0.47,
      "hand": "right"
    },
    {
      "midi": 67,
      "time": 85,
      "duration": 1.667,
      "velocity": 0.42,
      "hand": "right"
    },
    {
      "midi": 50,
      "time": 85.416,
      "duration": 0.819,
      "velocity": 0.59,
      "hand": "left"
    },
    {
      "midi": 55,
      "time": 85.416,
      "duration": 0.819,
      "velocity": 0.59,
      "hand": "left"
    },
    {
      "midi": 50,
      "time": 86.25,
      "duration": 0.818,
      "velocity": 0.53,
      "hand": "left"
    },
    {
      "midi": 55,
      "time": 86.25,
      "duration": 0.818,
      "velocity": 0.53,
      "hand": "left"
    },
    {
      "midi": 62,
      "time": 86.666,
      "duration": 0.417,
      "velocity": 0.41,
      "hand": "right"
    },
    {
      "midi": 50,
      "time": 87.083,
      "duration": 0.833,
      "velocity": 0.53,
      "hand": "left"
    },
    {
      "midi": 55,
      "time": 87.083,
      "duration": 0.833,
      "velocity": 0.53,
      "hand": "left"
    },
    {
      "midi": 67,
      "time": 87.083,
      "duration": 0.417,
      "velocity": 0.53,
      "hand": "right"
    },
    {
      "midi": 69,
      "time": 87.5,
      "duration": 0.417,
      "velocity": 0.5,
      "hand": "right"
    },
    {
      "midi": 43,
      "time": 87.916,
      "duration": 0.833,
      "velocity": 0.39,
      "hand": "left"
    },
    {
      "midi": 70,
      "time": 87.916,
      "duration": 0.833,
      "velocity": 0.52,
      "hand": "right"
    },
    {
      "midi": 50,
      "time": 88.75,
      "duration": 0.833,
      "velocity": 0.6,
      "hand": "left"
    },
    {
      "midi": 55,
      "time": 88.75,
      "duration": 0.833,
      "velocity": 0.6,
      "hand": "left"
    },
    {
      "midi": 69,
      "time": 88.75,
      "duration": 0.417,
      "velocity": 0.43,
      "hand": "right"
    },
    {
      "midi": 67,
      "time": 89.166,
      "duration": 0.417,
      "velocity": 0.46,
      "hand": "right"
    },
    {
      "midi": 43,
      "time": 89.583,
      "duration": 0.833,
      "velocity": 0.43,
      "hand": "left"
    },
    {
      "midi": 70,
      "time": 89.583,
      "duration": 0.833,
      "velocity": 0.53,
      "hand": "right"
    },
    {
      "midi": 50,
      "time": 90.416,
      "duration": 0.833,
      "velocity": 0.56,
      "hand": "left"
    },
    {
      "midi": 55,
      "time": 90.416,
      "duration": 0.833,
      "velocity": 0.56,
      "hand": "left"
    },
    {
      "midi": 69,
      "time": 90.416,
      "duration": 0.417,
      "velocity": 0.44,
      "hand": "right"
    },
    {
      "midi": 67,
      "time": 90.833,
      "duration": 0.417,
      "velocity": 0.48,
      "hand": "right"
    },
    {
      "midi": 43,
      "time": 91.25,
      "duration": 1.25,
      "velocity": 0.54,
      "hand": "left"
    },
    {
      "midi": 74,
      "time": 91.25,
      "duration": 0.818,
      "velocity": 0.56,
      "hand": "right"
    },
    {
      "midi": 55,
      "time": 92.083,
      "duration": 0.818,
      "velocity": 0.48,
      "hand": "left"
    },
    {
      "midi": 74,
      "time": 92.083,
      "duration": 0.818,
      "velocity": 0.49,
      "hand": "right"
    },
    {
      "midi": 47,
      "time": 92.5,
      "duration": 0.417,
      "velocity": 0.63,
      "hand": "left"
    },
    {
      "midi": 50,
      "time": 92.916,
      "duration": 0.833,
      "velocity": 0.61,
      "hand": "left"
    },
    {
      "midi": 55,
      "time": 92.916,
      "duration": 0.819,
      "velocity": 0.46,
      "hand": "left"
    },
    {
      "midi": 74,
      "time": 92.916,
      "duration": 0.402,
      "velocity": 0.43,
      "hand": "right"
    },
    {
      "midi": 74,
      "time": 93.333,
      "duration": 0.417,
      "velocity": 0.48,
      "hand": "right"
    },
    {
      "midi": 53,
      "time": 93.75,
      "duration": 0.417,
      "velocity": 0.63,
      "hand": "left"
    },
    {
      "midi": 55,
      "time": 93.75,
      "duration": 0.818,
      "velocity": 0.47,
      "hand": "left"
    },
    {
      "midi": 72,
      "time": 93.75,
      "duration": 0.417,
      "velocity": 0.46,
      "hand": "right"
    },
    {
      "midi": 50,
      "time": 94.166,
      "duration": 0.417,
      "velocity": 0.57,
      "hand": "left"
    },
    {
      "midi": 74,
      "time": 94.166,
      "duration": 0.417,
      "velocity": 0.46,
      "hand": "right"
    },
    {
      "midi": 48,
      "time": 94.583,
      "duration": 0.833,
      "velocity": 0.47,
      "hand": "left"
    },
    {
      "midi": 55,
      "time": 94.583,
      "duration": 0.833,
      "velocity": 0.47,
      "hand": "left"
    },
    {
      "midi": 75,
      "time": 94.583,
      "duration": 0.402,
      "velocity": 0.51,
      "hand": "right"
    },
    {
      "midi": 75,
      "time": 95,
      "duration": 1.651,
      "velocity": 0.46,
      "hand": "right"
    },
    {
      "midi": 51,
      "time": 95.416,
      "duration": 0.833,
      "velocity": 0.54,
      "hand": "left"
    },
    {
      "midi": 60,
      "time": 95.416,
      "duration": 0.833,
      "velocity": 0.54,
      "hand": "right"
    },
    {
      "midi": 55,
      "time": 96.25,
      "duration": 0.833,
      "velocity": 0.53,
      "hand": "left"
    },
    {
      "midi": 63,
      "time": 96.25,
      "duration": 0.833,
      "velocity": 0.53,
      "hand": "right"
    },
    {
      "midi": 75,
      "time": 96.666,
      "duration": 0.417,
      "velocity": 0.46,
      "hand": "right"
    },
    {
      "midi": 51,
      "time": 97.083,
      "duration": 0.833,
      "velocity": 0.43,
      "hand": "left"
    },
    {
      "midi": 60,
      "time": 97.083,
      "duration": 0.833,
      "velocity": 0.43,
      "hand": "right"
    },
    {
      "midi": 74,
      "time": 97.083,
      "duration": 0.417,
      "velocity": 0.46,
      "hand": "right"
    },
    {
      "midi": 72,
      "time": 97.5,
      "duration": 0.417,
      "velocity": 0.44,
      "hand": "right"
    },
    {
      "midi": 43,
      "time": 97.916,
      "duration": 1.25,
      "velocity": 0.56,
      "hand": "left"
    },
    {
      "midi": 75,
      "time": 97.916,
      "duration": 0.417,
      "velocity": 0.5,
      "hand": "right"
    },
    {
      "midi": 74,
      "time": 98.333,
      "duration": 1.25,
      "velocity": 0.46,
      "hand": "right"
    },
    {
      "midi": 55,
      "time": 98.75,
      "duration": 0.833,
      "velocity": 0.43,
      "hand": "left"
    },
    {
      "midi": 46,
      "time": 99.166,
      "duration": 0.417,
      "velocity": 0.61,
      "hand": "left"
    },
    {
      "midi": 50,
      "time": 99.583,
      "duration": 0.833,
      "velocity": 0.65,
      "hand": "left"
    },
    {
      "midi": 58,
      "time": 99.583,
      "duration": 0.833,
      "velocity": 0.54,
      "hand": "left"
    },
    {
      "midi": 74,
      "time": 100,
      "duration": 0.417,
      "velocity": 0.42,
      "hand": "right"
    },
    {
      "midi": 46,
      "time": 100.416,
      "duration": 0.833,
      "velocity": 0.59,
      "hand": "left"
    },
    {
      "midi": 55,
      "time": 100.416,
      "duration": 0.833,
      "velocity": 0.53,
      "hand": "left"
    },
    {
      "midi": 72,
      "time": 100.416,
      "duration": 0.417,
      "velocity": 0.43,
      "hand": "right"
    },
    {
      "midi": 70,
      "time": 100.833,
      "duration": 0.417,
      "velocity": 0.45,
      "hand": "right"
    },
    {
      "midi": 50,
      "time": 101.25,
      "duration": 1.25,
      "velocity": 0.66,
      "hand": "left"
    },
    {
      "midi": 69,
      "time": 101.25,
      "duration": 0.833,
      "velocity": 0.45,
      "hand": "right"
    },
    {
      "midi": 54,
      "time": 102.083,
      "duration": 0.833,
      "velocity": 0.42,
      "hand": "left"
    },
    {
      "midi": 57,
      "time": 102.083,
      "duration": 0.833,
      "velocity": 0.42,
      "hand": "left"
    },
    {
      "midi": 74,
      "time": 102.083,
      "duration": 0.833,
      "velocity": 0.55,
      "hand": "right"
    },
    {
      "midi": 45,
      "time": 102.5,
      "duration": 0.417,
      "velocity": 0.56,
      "hand": "left"
    },
    {
      "midi": 50,
      "time": 102.916,
      "duration": 0.819,
      "velocity": 0.61,
      "hand": "left"
    },
    {
      "midi": 69,
      "time": 102.916,
      "duration": 0.833,
      "velocity": 0.43,
      "hand": "right"
    },
    {
      "midi": 50,
      "time": 103.75,
      "duration": 0.833,
      "velocity": 0.61,
      "hand": "left"
    },
    {
      "midi": 54,
      "time": 103.75,
      "duration": 0.833,
      "velocity": 0.44,
      "hand": "left"
    },
    {
      "midi": 70,
      "time": 103.75,
      "duration": 0.833,
      "velocity": 0.5,
      "hand": "right"
    },
    {
      "midi": 43,
      "time": 104.583,
      "duration": 1.25,
      "velocity": 0.39,
      "hand": "left"
    },
    {
      "midi": 67,
      "time": 104.583,
      "duration": 2.083,
      "velocity": 0.47,
      "hand": "right"
    },
    {
      "midi": 55,
      "time": 105.416,
      "duration": 0.819,
      "velocity": 0.54,
      "hand": "left"
    },
    {
      "midi": 58,
      "time": 105.416,
      "duration": 0.819,
      "velocity": 0.54,
      "hand": "left"
    },
    {
      "midi": 62,
      "time": 105.416,
      "duration": 0.819,
      "velocity": 0.54,
      "hand": "right"
    },
    {
      "midi": 38,
      "time": 105.833,
      "duration": 0.417,
      "velocity": 0.41,
      "hand": "left"
    },
    {
      "midi": 43,
      "time": 106.25,
      "duration": 0.417,
      "velocity": 0.56,
      "hand": "left"
    },
    {
      "midi": 55,
      "time": 106.25,
      "duration": 0.417,
      "velocity": 0.61,
      "hand": "left"
    },
    {
      "midi": 62,
      "time": 106.25,
      "duration": 0.417,
      "velocity": 0.61,
      "hand": "right"
    }
  ],
  "arrangements": {
    "easy": [
      {
        "midi": 62,
        "time": 0,
        "duration": 0.5,
        "velocity": 0.42,
        "hand": "right"
      },
      {
        "midi": 69,
        "time": 0.833,
        "duration": 0.5,
        "velocity": 0.51,
        "hand": "right"
      },
      {
        "midi": 67,
        "time": 1.666,
        "duration": 1.667,
        "velocity": 0.44,
        "hand": "right"
      },
      {
        "midi": 55,
        "time": 2.916,
        "duration": 0.819,
        "velocity": 0.54,
        "hand": "right"
      },
      {
        "midi": 67,
        "time": 3.75,
        "duration": 0.5,
        "velocity": 0.55,
        "hand": "right"
      },
      {
        "midi": 70,
        "time": 4.583,
        "duration": 0.5,
        "velocity": 0.49,
        "hand": "right"
      },
      {
        "midi": 55,
        "time": 5.416,
        "duration": 0.819,
        "velocity": 0.55,
        "hand": "right"
      },
      {
        "midi": 55,
        "time": 6.25,
        "duration": 0.818,
        "velocity": 0.5,
        "hand": "right"
      },
      {
        "midi": 67,
        "time": 7.083,
        "duration": 0.5,
        "velocity": 0.54,
        "hand": "right"
      },
      {
        "midi": 70,
        "time": 7.916,
        "duration": 0.833,
        "velocity": 0.52,
        "hand": "right"
      },
      {
        "midi": 69,
        "time": 8.75,
        "duration": 0.5,
        "velocity": 0.46,
        "hand": "right"
      },
      {
        "midi": 70,
        "time": 9.583,
        "duration": 0.833,
        "velocity": 0.49,
        "hand": "right"
      },
      {
        "midi": 69,
        "time": 10.416,
        "duration": 0.5,
        "velocity": 0.43,
        "hand": "right"
      },
      {
        "midi": 74,
        "time": 11.25,
        "duration": 0.818,
        "velocity": 0.54,
        "hand": "right"
      },
      {
        "midi": 74,
        "time": 12.083,
        "duration": 0.818,
        "velocity": 0.51,
        "hand": "right"
      },
      {
        "midi": 74,
        "time": 12.916,
        "duration": 0.5,
        "velocity": 0.47,
        "hand": "right"
      },
      {
        "midi": 72,
        "time": 13.75,
        "duration": 0.5,
        "velocity": 0.4,
        "hand": "right"
      },
      {
        "midi": 75,
        "time": 14.583,
        "duration": 0.5,
        "velocity": 0.52,
        "hand": "right"
      },
      {
        "midi": 60,
        "time": 15.416,
        "duration": 0.833,
        "velocity": 0.54,
        "hand": "right"
      },
      {
        "midi": 63,
        "time": 16.25,
        "duration": 0.833,
        "velocity": 0.53,
        "hand": "right"
      },
      {
        "midi": 74,
        "time": 17.083,
        "duration": 0.5,
        "velocity": 0.48,
        "hand": "right"
      },
      {
        "midi": 75,
        "time": 17.916,
        "duration": 0.5,
        "velocity": 0.51,
        "hand": "right"
      },
      {
        "midi": 55,
        "time": 18.75,
        "duration": 0.833,
        "velocity": 0.43,
        "hand": "right"
      },
      {
        "midi": 58,
        "time": 19.583,
        "duration": 0.833,
        "velocity": 0.54,
        "hand": "right"
      },
      {
        "midi": 72,
        "time": 20.416,
        "duration": 0.5,
        "velocity": 0.46,
        "hand": "right"
      },
      {
        "midi": 69,
        "time": 21.25,
        "duration": 0.833,
        "velocity": 0.46,
        "hand": "right"
      },
      {
        "midi": 74,
        "time": 22.083,
        "duration": 0.833,
        "velocity": 0.54,
        "hand": "right"
      },
      {
        "midi": 69,
        "time": 22.916,
        "duration": 0.833,
        "velocity": 0.44,
        "hand": "right"
      },
      {
        "midi": 70,
        "time": 23.75,
        "duration": 0.833,
        "velocity": 0.48,
        "hand": "right"
      },
      {
        "midi": 67,
        "time": 24.583,
        "duration": 2.083,
        "velocity": 0.45,
        "hand": "right"
      },
      {
        "midi": 62,
        "time": 25.416,
        "duration": 0.819,
        "velocity": 0.58,
        "hand": "right"
      },
      {
        "midi": 62,
        "time": 26.25,
        "duration": 0.5,
        "velocity": 0.61,
        "hand": "right"
      },
      {
        "midi": 67,
        "time": 27.083,
        "duration": 0.5,
        "velocity": 0.51,
        "hand": "right"
      },
      {
        "midi": 70,
        "time": 27.916,
        "duration": 0.5,
        "velocity": 0.54,
        "hand": "right"
      },
      {
        "midi": 55,
        "time": 28.75,
        "duration": 0.818,
        "velocity": 0.61,
        "hand": "right"
      },
      {
        "midi": 55,
        "time": 29.583,
        "duration": 0.818,
        "velocity": 0.51,
        "hand": "right"
      },
      {
        "midi": 67,
        "time": 30.416,
        "duration": 0.5,
        "velocity": 0.52,
        "hand": "right"
      },
      {
        "midi": 70,
        "time": 31.25,
        "duration": 0.5,
        "velocity": 0.52,
        "hand": "right"
      },
      {
        "midi": 55,
        "time": 32.083,
        "duration": 0.818,
        "velocity": 0.59,
        "hand": "right"
      },
      {
        "midi": 55,
        "time": 32.916,
        "duration": 0.819,
        "velocity": 0.54,
        "hand": "right"
      },
      {
        "midi": 67,
        "time": 33.75,
        "duration": 0.5,
        "velocity": 0.55,
        "hand": "right"
      },
      {
        "midi": 70,
        "time": 34.583,
        "duration": 0.833,
        "velocity": 0.5,
        "hand": "right"
      },
      {
        "midi": 69,
        "time": 35.416,
        "duration": 0.5,
        "velocity": 0.43,
        "hand": "right"
      },
      {
        "midi": 70,
        "time": 36.25,
        "duration": 0.833,
        "velocity": 0.5,
        "hand": "right"
      },
      {
        "midi": 69,
        "time": 37.083,
        "duration": 0.5,
        "velocity": 0.47,
        "hand": "right"
      },
      {
        "midi": 74,
        "time": 37.916,
        "duration": 0.819,
        "velocity": 0.54,
        "hand": "right"
      },
      {
        "midi": 74,
        "time": 38.75,
        "duration": 0.818,
        "velocity": 0.46,
        "hand": "right"
      },
      {
        "midi": 74,
        "time": 39.583,
        "duration": 0.5,
        "velocity": 0.46,
        "hand": "right"
      },
      {
        "midi": 72,
        "time": 40.416,
        "duration": 0.5,
        "velocity": 0.44,
        "hand": "right"
      },
      {
        "midi": 75,
        "time": 41.25,
        "duration": 0.5,
        "velocity": 0.54,
        "hand": "right"
      },
      {
        "midi": 60,
        "time": 42.083,
        "duration": 0.833,
        "velocity": 0.51,
        "hand": "right"
      },
      {
        "midi": 63,
        "time": 42.916,
        "duration": 0.833,
        "velocity": 0.54,
        "hand": "right"
      },
      {
        "midi": 74,
        "time": 43.75,
        "duration": 0.5,
        "velocity": 0.44,
        "hand": "right"
      },
      {
        "midi": 75,
        "time": 44.583,
        "duration": 0.5,
        "velocity": 0.52,
        "hand": "right"
      },
      {
        "midi": 55,
        "time": 45.416,
        "duration": 0.833,
        "velocity": 0.43,
        "hand": "right"
      },
      {
        "midi": 58,
        "time": 46.25,
        "duration": 0.833,
        "velocity": 0.54,
        "hand": "right"
      },
      {
        "midi": 72,
        "time": 47.083,
        "duration": 0.5,
        "velocity": 0.45,
        "hand": "right"
      },
      {
        "midi": 69,
        "time": 47.916,
        "duration": 0.833,
        "velocity": 0.44,
        "hand": "right"
      },
      {
        "midi": 74,
        "time": 48.75,
        "duration": 0.833,
        "velocity": 0.53,
        "hand": "right"
      },
      {
        "midi": 69,
        "time": 49.583,
        "duration": 0.833,
        "velocity": 0.43,
        "hand": "right"
      },
      {
        "midi": 70,
        "time": 50.416,
        "duration": 0.833,
        "velocity": 0.49,
        "hand": "right"
      },
      {
        "midi": 67,
        "time": 51.25,
        "duration": 2.083,
        "velocity": 0.44,
        "hand": "right"
      },
      {
        "midi": 62,
        "time": 52.083,
        "duration": 0.818,
        "velocity": 0.52,
        "hand": "right"
      },
      {
        "midi": 62,
        "time": 52.916,
        "duration": 0.5,
        "velocity": 0.57,
        "hand": "right"
      },
      {
        "midi": 67,
        "time": 53.75,
        "duration": 0.5,
        "velocity": 0.53,
        "hand": "right"
      },
      {
        "midi": 70,
        "time": 54.583,
        "duration": 0.5,
        "velocity": 0.49,
        "hand": "right"
      },
      {
        "midi": 55,
        "time": 55.416,
        "duration": 0.819,
        "velocity": 0.6,
        "hand": "right"
      },
      {
        "midi": 55,
        "time": 56.25,
        "duration": 0.818,
        "velocity": 0.53,
        "hand": "right"
      },
      {
        "midi": 67,
        "time": 57.083,
        "duration": 0.5,
        "velocity": 0.54,
        "hand": "right"
      },
      {
        "midi": 70,
        "time": 57.916,
        "duration": 0.5,
        "velocity": 0.5,
        "hand": "right"
      },
      {
        "midi": 55,
        "time": 58.75,
        "duration": 0.818,
        "velocity": 0.57,
        "hand": "right"
      },
      {
        "midi": 55,
        "time": 59.583,
        "duration": 0.818,
        "velocity": 0.54,
        "hand": "right"
      },
      {
        "midi": 67,
        "time": 60.416,
        "duration": 0.5,
        "velocity": 0.53,
        "hand": "right"
      },
      {
        "midi": 70,
        "time": 61.25,
        "duration": 0.833,
        "velocity": 0.51,
        "hand": "right"
      },
      {
        "midi": 69,
        "time": 62.083,
        "duration": 0.5,
        "velocity": 0.5,
        "hand": "right"
      },
      {
        "midi": 70,
        "time": 62.916,
        "duration": 0.833,
        "velocity": 0.52,
        "hand": "right"
      },
      {
        "midi": 69,
        "time": 63.75,
        "duration": 0.5,
        "velocity": 0.49,
        "hand": "right"
      },
      {
        "midi": 74,
        "time": 64.583,
        "duration": 0.818,
        "velocity": 0.58,
        "hand": "right"
      },
      {
        "midi": 74,
        "time": 65.416,
        "duration": 0.819,
        "velocity": 0.49,
        "hand": "right"
      },
      {
        "midi": 74,
        "time": 66.25,
        "duration": 0.5,
        "velocity": 0.52,
        "hand": "right"
      },
      {
        "midi": 72,
        "time": 67.083,
        "duration": 0.5,
        "velocity": 0.46,
        "hand": "right"
      },
      {
        "midi": 75,
        "time": 67.916,
        "duration": 0.5,
        "velocity": 0.5,
        "hand": "right"
      },
      {
        "midi": 60,
        "time": 68.75,
        "duration": 0.833,
        "velocity": 0.56,
        "hand": "right"
      },
      {
        "midi": 63,
        "time": 69.583,
        "duration": 0.833,
        "velocity": 0.52,
        "hand": "right"
      },
      {
        "midi": 74,
        "time": 70.416,
        "duration": 0.5,
        "velocity": 0.49,
        "hand": "right"
      },
      {
        "midi": 75,
        "time": 71.25,
        "duration": 0.5,
        "velocity": 0.51,
        "hand": "right"
      },
      {
        "midi": 55,
        "time": 72.083,
        "duration": 0.833,
        "velocity": 0.5,
        "hand": "right"
      },
      {
        "midi": 58,
        "time": 72.916,
        "duration": 0.833,
        "velocity": 0.56,
        "hand": "right"
      },
      {
        "midi": 72,
        "time": 73.75,
        "duration": 0.5,
        "velocity": 0.47,
        "hand": "right"
      },
      {
        "midi": 69,
        "time": 74.583,
        "duration": 0.833,
        "velocity": 0.45,
        "hand": "right"
      },
      {
        "midi": 74,
        "time": 75.416,
        "duration": 0.833,
        "velocity": 0.5,
        "hand": "right"
      },
      {
        "midi": 69,
        "time": 76.25,
        "duration": 0.833,
        "velocity": 0.46,
        "hand": "right"
      },
      {
        "midi": 70,
        "time": 77.083,
        "duration": 0.833,
        "velocity": 0.5,
        "hand": "right"
      },
      {
        "midi": 67,
        "time": 77.916,
        "duration": 2.083,
        "velocity": 0.43,
        "hand": "right"
      },
      {
        "midi": 62,
        "time": 78.75,
        "duration": 0.818,
        "velocity": 0.55,
        "hand": "right"
      },
      {
        "midi": 62,
        "time": 79.583,
        "duration": 0.5,
        "velocity": 0.56,
        "hand": "right"
      },
      {
        "midi": 67,
        "time": 80.416,
        "duration": 0.5,
        "velocity": 0.52,
        "hand": "right"
      },
      {
        "midi": 70,
        "time": 81.25,
        "duration": 0.5,
        "velocity": 0.46,
        "hand": "right"
      },
      {
        "midi": 55,
        "time": 82.083,
        "duration": 0.818,
        "velocity": 0.58,
        "hand": "right"
      },
      {
        "midi": 55,
        "time": 82.916,
        "duration": 0.819,
        "velocity": 0.54,
        "hand": "right"
      },
      {
        "midi": 67,
        "time": 83.75,
        "duration": 0.5,
        "velocity": 0.54,
        "hand": "right"
      },
      {
        "midi": 70,
        "time": 84.583,
        "duration": 0.5,
        "velocity": 0.47,
        "hand": "right"
      },
      {
        "midi": 55,
        "time": 85.416,
        "duration": 0.819,
        "velocity": 0.59,
        "hand": "right"
      },
      {
        "midi": 55,
        "time": 86.25,
        "duration": 0.818,
        "velocity": 0.53,
        "hand": "right"
      },
      {
        "midi": 67,
        "time": 87.083,
        "duration": 0.5,
        "velocity": 0.53,
        "hand": "right"
      },
      {
        "midi": 70,
        "time": 87.916,
        "duration": 0.833,
        "velocity": 0.52,
        "hand": "right"
      },
      {
        "midi": 69,
        "time": 88.75,
        "duration": 0.5,
        "velocity": 0.43,
        "hand": "right"
      },
      {
        "midi": 70,
        "time": 89.583,
        "duration": 0.833,
        "velocity": 0.53,
        "hand": "right"
      },
      {
        "midi": 69,
        "time": 90.416,
        "duration": 0.5,
        "velocity": 0.44,
        "hand": "right"
      },
      {
        "midi": 74,
        "time": 91.25,
        "duration": 0.818,
        "velocity": 0.56,
        "hand": "right"
      },
      {
        "midi": 74,
        "time": 92.083,
        "duration": 0.818,
        "velocity": 0.49,
        "hand": "right"
      },
      {
        "midi": 74,
        "time": 92.916,
        "duration": 0.5,
        "velocity": 0.43,
        "hand": "right"
      },
      {
        "midi": 72,
        "time": 93.75,
        "duration": 0.5,
        "velocity": 0.46,
        "hand": "right"
      },
      {
        "midi": 75,
        "time": 94.583,
        "duration": 0.5,
        "velocity": 0.51,
        "hand": "right"
      },
      {
        "midi": 60,
        "time": 95.416,
        "duration": 0.833,
        "velocity": 0.54,
        "hand": "right"
      },
      {
        "midi": 63,
        "time": 96.25,
        "duration": 0.833,
        "velocity": 0.53,
        "hand": "right"
      },
      {
        "midi": 74,
        "time": 97.083,
        "duration": 0.5,
        "velocity": 0.46,
        "hand": "right"
      },
      {
        "midi": 75,
        "time": 97.916,
        "duration": 0.5,
        "velocity": 0.5,
        "hand": "right"
      },
      {
        "midi": 55,
        "time": 98.75,
        "duration": 0.833,
        "velocity": 0.43,
        "hand": "right"
      },
      {
        "midi": 58,
        "time": 99.583,
        "duration": 0.833,
        "velocity": 0.54,
        "hand": "right"
      },
      {
        "midi": 72,
        "time": 100.416,
        "duration": 0.5,
        "velocity": 0.43,
        "hand": "right"
      },
      {
        "midi": 69,
        "time": 101.25,
        "duration": 0.833,
        "velocity": 0.45,
        "hand": "right"
      },
      {
        "midi": 74,
        "time": 102.083,
        "duration": 0.833,
        "velocity": 0.55,
        "hand": "right"
      },
      {
        "midi": 69,
        "time": 102.916,
        "duration": 0.833,
        "velocity": 0.43,
        "hand": "right"
      },
      {
        "midi": 70,
        "time": 103.75,
        "duration": 0.833,
        "velocity": 0.5,
        "hand": "right"
      },
      {
        "midi": 67,
        "time": 104.583,
        "duration": 2.083,
        "velocity": 0.47,
        "hand": "right"
      },
      {
        "midi": 62,
        "time": 105.416,
        "duration": 0.819,
        "velocity": 0.54,
        "hand": "right"
      },
      {
        "midi": 62,
        "time": 106.25,
        "duration": 0.5,
        "velocity": 0.61,
        "hand": "right"
      }
    ],
    "medium": [
      {
        "midi": 62,
        "time": 0,
        "duration": 0.417,
        "velocity": 0.42,
        "hand": "right"
      },
      {
        "midi": 69,
        "time": 0.833,
        "duration": 0.417,
        "velocity": 0.51,
        "hand": "right"
      },
      {
        "midi": 67,
        "time": 1.666,
        "duration": 1.667,
        "velocity": 0.44,
        "hand": "right"
      },
      {
        "midi": 50,
        "time": 2.916,
        "duration": 0.819,
        "velocity": 0.54,
        "hand": "left"
      },
      {
        "midi": 55,
        "time": 2.916,
        "duration": 0.819,
        "velocity": 0.54,
        "hand": "left"
      },
      {
        "midi": 67,
        "time": 3.75,
        "duration": 0.417,
        "velocity": 0.55,
        "hand": "right"
      },
      {
        "midi": 55,
        "time": 4.583,
        "duration": 0.818,
        "velocity": 0.42,
        "hand": "left"
      },
      {
        "midi": 70,
        "time": 4.583,
        "duration": 0.417,
        "velocity": 0.49,
        "hand": "right"
      },
      {
        "midi": 50,
        "time": 5.416,
        "duration": 0.819,
        "velocity": 0.55,
        "hand": "left"
      },
      {
        "midi": 55,
        "time": 5.416,
        "duration": 0.819,
        "velocity": 0.55,
        "hand": "left"
      },
      {
        "midi": 50,
        "time": 6.25,
        "duration": 0.818,
        "velocity": 0.5,
        "hand": "left"
      },
      {
        "midi": 55,
        "time": 6.25,
        "duration": 0.818,
        "velocity": 0.5,
        "hand": "left"
      },
      {
        "midi": 67,
        "time": 7.083,
        "duration": 0.417,
        "velocity": 0.54,
        "hand": "right"
      },
      {
        "midi": 55,
        "time": 7.916,
        "duration": 0.833,
        "velocity": 0.42,
        "hand": "left"
      },
      {
        "midi": 70,
        "time": 7.916,
        "duration": 0.833,
        "velocity": 0.52,
        "hand": "right"
      },
      {
        "midi": 69,
        "time": 8.75,
        "duration": 0.417,
        "velocity": 0.46,
        "hand": "right"
      },
      {
        "midi": 55,
        "time": 9.583,
        "duration": 0.833,
        "velocity": 0.41,
        "hand": "left"
      },
      {
        "midi": 70,
        "time": 9.583,
        "duration": 0.833,
        "velocity": 0.49,
        "hand": "right"
      },
      {
        "midi": 69,
        "time": 10.416,
        "duration": 0.417,
        "velocity": 0.43,
        "hand": "right"
      },
      {
        "midi": 74,
        "time": 11.25,
        "duration": 0.818,
        "velocity": 0.54,
        "hand": "right"
      },
      {
        "midi": 74,
        "time": 12.083,
        "duration": 0.818,
        "velocity": 0.51,
        "hand": "right"
      },
      {
        "midi": 74,
        "time": 12.916,
        "duration": 0.402,
        "velocity": 0.47,
        "hand": "right"
      },
      {
        "midi": 72,
        "time": 13.75,
        "duration": 0.417,
        "velocity": 0.4,
        "hand": "right"
      },
      {
        "midi": 75,
        "time": 14.583,
        "duration": 0.402,
        "velocity": 0.52,
        "hand": "right"
      },
      {
        "midi": 51,
        "time": 15.416,
        "duration": 0.833,
        "velocity": 0.54,
        "hand": "left"
      },
      {
        "midi": 60,
        "time": 15.416,
        "duration": 0.833,
        "velocity": 0.54,
        "hand": "right"
      },
      {
        "midi": 55,
        "time": 16.25,
        "duration": 0.833,
        "velocity": 0.53,
        "hand": "left"
      },
      {
        "midi": 63,
        "time": 16.25,
        "duration": 0.833,
        "velocity": 0.53,
        "hand": "right"
      },
      {
        "midi": 74,
        "time": 17.083,
        "duration": 0.417,
        "velocity": 0.48,
        "hand": "right"
      },
      {
        "midi": 75,
        "time": 17.916,
        "duration": 0.417,
        "velocity": 0.51,
        "hand": "right"
      },
      {
        "midi": 55,
        "time": 18.75,
        "duration": 0.833,
        "velocity": 0.43,
        "hand": "left"
      },
      {
        "midi": 50,
        "time": 19.583,
        "duration": 0.833,
        "velocity": 0.65,
        "hand": "left"
      },
      {
        "midi": 58,
        "time": 19.583,
        "duration": 0.818,
        "velocity": 0.54,
        "hand": "left"
      },
      {
        "midi": 58,
        "time": 20.416,
        "duration": 0.833,
        "velocity": 0.61,
        "hand": "left"
      },
      {
        "midi": 72,
        "time": 20.416,
        "duration": 0.417,
        "velocity": 0.46,
        "hand": "right"
      },
      {
        "midi": 69,
        "time": 21.25,
        "duration": 0.833,
        "velocity": 0.46,
        "hand": "right"
      },
      {
        "midi": 74,
        "time": 22.083,
        "duration": 0.833,
        "velocity": 0.54,
        "hand": "right"
      },
      {
        "midi": 69,
        "time": 22.916,
        "duration": 0.833,
        "velocity": 0.44,
        "hand": "right"
      },
      {
        "midi": 70,
        "time": 23.75,
        "duration": 0.833,
        "velocity": 0.48,
        "hand": "right"
      },
      {
        "midi": 55,
        "time": 24.583,
        "duration": 0.818,
        "velocity": 0.38,
        "hand": "left"
      },
      {
        "midi": 67,
        "time": 24.583,
        "duration": 2.083,
        "velocity": 0.45,
        "hand": "right"
      },
      {
        "midi": 55,
        "time": 25.416,
        "duration": 0.819,
        "velocity": 0.58,
        "hand": "left"
      },
      {
        "midi": 62,
        "time": 25.416,
        "duration": 0.819,
        "velocity": 0.58,
        "hand": "right"
      },
      {
        "midi": 55,
        "time": 26.25,
        "duration": 0.417,
        "velocity": 0.55,
        "hand": "left"
      },
      {
        "midi": 62,
        "time": 26.25,
        "duration": 0.401,
        "velocity": 0.61,
        "hand": "right"
      },
      {
        "midi": 67,
        "time": 27.083,
        "duration": 0.417,
        "velocity": 0.51,
        "hand": "right"
      },
      {
        "midi": 55,
        "time": 27.916,
        "duration": 0.819,
        "velocity": 0.46,
        "hand": "left"
      },
      {
        "midi": 70,
        "time": 27.916,
        "duration": 0.417,
        "velocity": 0.54,
        "hand": "right"
      },
      {
        "midi": 50,
        "time": 28.75,
        "duration": 0.818,
        "velocity": 0.61,
        "hand": "left"
      },
      {
        "midi": 55,
        "time": 28.75,
        "duration": 0.818,
        "velocity": 0.61,
        "hand": "left"
      },
      {
        "midi": 50,
        "time": 29.583,
        "duration": 0.818,
        "velocity": 0.51,
        "hand": "left"
      },
      {
        "midi": 55,
        "time": 29.583,
        "duration": 0.818,
        "velocity": 0.51,
        "hand": "left"
      },
      {
        "midi": 67,
        "time": 30.416,
        "duration": 0.417,
        "velocity": 0.52,
        "hand": "right"
      },
      {
        "midi": 55,
        "time": 31.25,
        "duration": 0.818,
        "velocity": 0.43,
        "hand": "left"
      },
      {
        "midi": 70,
        "time": 31.25,
        "duration": 0.417,
        "velocity": 0.52,
        "hand": "right"
      },
      {
        "midi": 50,
        "time": 32.083,
        "duration": 0.818,
        "velocity": 0.59,
        "hand": "left"
      },
      {
        "midi": 55,
        "time": 32.083,
        "duration": 0.818,
        "velocity": 0.59,
        "hand": "left"
      },
      {
        "midi": 50,
        "time": 32.916,
        "duration": 0.819,
        "velocity": 0.54,
        "hand": "left"
      },
      {
        "midi": 55,
        "time": 32.916,
        "duration": 0.819,
        "velocity": 0.54,
        "hand": "left"
      },
      {
        "midi": 67,
        "time": 33.75,
        "duration": 0.417,
        "velocity": 0.55,
        "hand": "right"
      },
      {
        "midi": 55,
        "time": 34.583,
        "duration": 0.833,
        "velocity": 0.43,
        "hand": "left"
      },
      {
        "midi": 70,
        "time": 34.583,
        "duration": 0.833,
        "velocity": 0.5,
        "hand": "right"
      },
      {
        "midi": 69,
        "time": 35.416,
        "duration": 0.417,
        "velocity": 0.43,
        "hand": "right"
      },
      {
        "midi": 55,
        "time": 36.25,
        "duration": 0.833,
        "velocity": 0.44,
        "hand": "left"
      },
      {
        "midi": 70,
        "time": 36.25,
        "duration": 0.833,
        "velocity": 0.5,
        "hand": "right"
      },
      {
        "midi": 69,
        "time": 37.083,
        "duration": 0.417,
        "velocity": 0.47,
        "hand": "right"
      },
      {
        "midi": 74,
        "time": 37.916,
        "duration": 0.819,
        "velocity": 0.54,
        "hand": "right"
      },
      {
        "midi": 74,
        "time": 38.75,
        "duration": 0.818,
        "velocity": 0.46,
        "hand": "right"
      },
      {
        "midi": 74,
        "time": 39.583,
        "duration": 0.402,
        "velocity": 0.46,
        "hand": "right"
      },
      {
        "midi": 72,
        "time": 40.416,
        "duration": 0.417,
        "velocity": 0.44,
        "hand": "right"
      },
      {
        "midi": 75,
        "time": 41.25,
        "duration": 0.401,
        "velocity": 0.54,
        "hand": "right"
      },
      {
        "midi": 51,
        "time": 42.083,
        "duration": 0.833,
        "velocity": 0.51,
        "hand": "left"
      },
      {
        "midi": 60,
        "time": 42.083,
        "duration": 0.833,
        "velocity": 0.51,
        "hand": "right"
      },
      {
        "midi": 55,
        "time": 42.916,
        "duration": 0.833,
        "velocity": 0.54,
        "hand": "left"
      },
      {
        "midi": 63,
        "time": 42.916,
        "duration": 0.833,
        "velocity": 0.54,
        "hand": "right"
      },
      {
        "midi": 74,
        "time": 43.75,
        "duration": 0.417,
        "velocity": 0.44,
        "hand": "right"
      },
      {
        "midi": 75,
        "time": 44.583,
        "duration": 0.417,
        "velocity": 0.52,
        "hand": "right"
      },
      {
        "midi": 55,
        "time": 45.416,
        "duration": 0.833,
        "velocity": 0.43,
        "hand": "left"
      },
      {
        "midi": 50,
        "time": 46.25,
        "duration": 0.833,
        "velocity": 0.65,
        "hand": "left"
      },
      {
        "midi": 58,
        "time": 46.25,
        "duration": 0.818,
        "velocity": 0.54,
        "hand": "left"
      },
      {
        "midi": 58,
        "time": 47.083,
        "duration": 0.833,
        "velocity": 0.57,
        "hand": "left"
      },
      {
        "midi": 72,
        "time": 47.083,
        "duration": 0.417,
        "velocity": 0.45,
        "hand": "right"
      },
      {
        "midi": 69,
        "time": 47.916,
        "duration": 0.833,
        "velocity": 0.44,
        "hand": "right"
      },
      {
        "midi": 74,
        "time": 48.75,
        "duration": 0.833,
        "velocity": 0.53,
        "hand": "right"
      },
      {
        "midi": 69,
        "time": 49.583,
        "duration": 0.833,
        "velocity": 0.43,
        "hand": "right"
      },
      {
        "midi": 70,
        "time": 50.416,
        "duration": 0.833,
        "velocity": 0.49,
        "hand": "right"
      },
      {
        "midi": 55,
        "time": 51.25,
        "duration": 0.818,
        "velocity": 0.4,
        "hand": "left"
      },
      {
        "midi": 67,
        "time": 51.25,
        "duration": 2.083,
        "velocity": 0.44,
        "hand": "right"
      },
      {
        "midi": 55,
        "time": 52.083,
        "duration": 0.818,
        "velocity": 0.52,
        "hand": "left"
      },
      {
        "midi": 62,
        "time": 52.083,
        "duration": 0.818,
        "velocity": 0.52,
        "hand": "right"
      },
      {
        "midi": 55,
        "time": 52.916,
        "duration": 0.417,
        "velocity": 0.55,
        "hand": "left"
      },
      {
        "midi": 62,
        "time": 52.916,
        "duration": 0.402,
        "velocity": 0.57,
        "hand": "right"
      },
      {
        "midi": 67,
        "time": 53.75,
        "duration": 0.417,
        "velocity": 0.53,
        "hand": "right"
      },
      {
        "midi": 55,
        "time": 54.583,
        "duration": 0.818,
        "velocity": 0.43,
        "hand": "left"
      },
      {
        "midi": 70,
        "time": 54.583,
        "duration": 0.417,
        "velocity": 0.49,
        "hand": "right"
      },
      {
        "midi": 50,
        "time": 55.416,
        "duration": 0.819,
        "velocity": 0.6,
        "hand": "left"
      },
      {
        "midi": 55,
        "time": 55.416,
        "duration": 0.819,
        "velocity": 0.6,
        "hand": "left"
      },
      {
        "midi": 50,
        "time": 56.25,
        "duration": 0.818,
        "velocity": 0.53,
        "hand": "left"
      },
      {
        "midi": 55,
        "time": 56.25,
        "duration": 0.818,
        "velocity": 0.53,
        "hand": "left"
      },
      {
        "midi": 67,
        "time": 57.083,
        "duration": 0.417,
        "velocity": 0.54,
        "hand": "right"
      },
      {
        "midi": 55,
        "time": 57.916,
        "duration": 0.819,
        "velocity": 0.39,
        "hand": "left"
      },
      {
        "midi": 70,
        "time": 57.916,
        "duration": 0.417,
        "velocity": 0.5,
        "hand": "right"
      },
      {
        "midi": 50,
        "time": 58.75,
        "duration": 0.818,
        "velocity": 0.57,
        "hand": "left"
      },
      {
        "midi": 55,
        "time": 58.75,
        "duration": 0.818,
        "velocity": 0.57,
        "hand": "left"
      },
      {
        "midi": 50,
        "time": 59.583,
        "duration": 0.818,
        "velocity": 0.54,
        "hand": "left"
      },
      {
        "midi": 55,
        "time": 59.583,
        "duration": 0.818,
        "velocity": 0.54,
        "hand": "left"
      },
      {
        "midi": 67,
        "time": 60.416,
        "duration": 0.417,
        "velocity": 0.53,
        "hand": "right"
      },
      {
        "midi": 55,
        "time": 61.25,
        "duration": 0.833,
        "velocity": 0.43,
        "hand": "left"
      },
      {
        "midi": 70,
        "time": 61.25,
        "duration": 0.833,
        "velocity": 0.51,
        "hand": "right"
      },
      {
        "midi": 69,
        "time": 62.083,
        "duration": 0.417,
        "velocity": 0.5,
        "hand": "right"
      },
      {
        "midi": 55,
        "time": 62.916,
        "duration": 0.833,
        "velocity": 0.39,
        "hand": "left"
      },
      {
        "midi": 70,
        "time": 62.916,
        "duration": 0.833,
        "velocity": 0.52,
        "hand": "right"
      },
      {
        "midi": 69,
        "time": 63.75,
        "duration": 0.417,
        "velocity": 0.49,
        "hand": "right"
      },
      {
        "midi": 74,
        "time": 64.583,
        "duration": 0.818,
        "velocity": 0.58,
        "hand": "right"
      },
      {
        "midi": 74,
        "time": 65.416,
        "duration": 0.819,
        "velocity": 0.49,
        "hand": "right"
      },
      {
        "midi": 74,
        "time": 66.25,
        "duration": 0.401,
        "velocity": 0.52,
        "hand": "right"
      },
      {
        "midi": 72,
        "time": 67.083,
        "duration": 0.417,
        "velocity": 0.46,
        "hand": "right"
      },
      {
        "midi": 75,
        "time": 67.916,
        "duration": 0.402,
        "velocity": 0.5,
        "hand": "right"
      },
      {
        "midi": 51,
        "time": 68.75,
        "duration": 0.833,
        "velocity": 0.56,
        "hand": "left"
      },
      {
        "midi": 60,
        "time": 68.75,
        "duration": 0.833,
        "velocity": 0.56,
        "hand": "right"
      },
      {
        "midi": 55,
        "time": 69.583,
        "duration": 0.833,
        "velocity": 0.52,
        "hand": "left"
      },
      {
        "midi": 63,
        "time": 69.583,
        "duration": 0.833,
        "velocity": 0.52,
        "hand": "right"
      },
      {
        "midi": 74,
        "time": 70.416,
        "duration": 0.417,
        "velocity": 0.49,
        "hand": "right"
      },
      {
        "midi": 75,
        "time": 71.25,
        "duration": 0.417,
        "velocity": 0.51,
        "hand": "right"
      },
      {
        "midi": 55,
        "time": 72.083,
        "duration": 0.833,
        "velocity": 0.5,
        "hand": "left"
      },
      {
        "midi": 50,
        "time": 72.916,
        "duration": 0.833,
        "velocity": 0.65,
        "hand": "left"
      },
      {
        "midi": 58,
        "time": 72.916,
        "duration": 0.819,
        "velocity": 0.56,
        "hand": "left"
      },
      {
        "midi": 58,
        "time": 73.75,
        "duration": 0.833,
        "velocity": 0.58,
        "hand": "left"
      },
      {
        "midi": 72,
        "time": 73.75,
        "duration": 0.417,
        "velocity": 0.47,
        "hand": "right"
      },
      {
        "midi": 69,
        "time": 74.583,
        "duration": 0.833,
        "velocity": 0.45,
        "hand": "right"
      },
      {
        "midi": 74,
        "time": 75.416,
        "duration": 0.833,
        "velocity": 0.5,
        "hand": "right"
      },
      {
        "midi": 69,
        "time": 76.25,
        "duration": 0.833,
        "velocity": 0.46,
        "hand": "right"
      },
      {
        "midi": 70,
        "time": 77.083,
        "duration": 0.833,
        "velocity": 0.5,
        "hand": "right"
      },
      {
        "midi": 55,
        "time": 77.916,
        "duration": 0.819,
        "velocity": 0.4,
        "hand": "left"
      },
      {
        "midi": 67,
        "time": 77.916,
        "duration": 2.083,
        "velocity": 0.43,
        "hand": "right"
      },
      {
        "midi": 55,
        "time": 78.75,
        "duration": 0.818,
        "velocity": 0.55,
        "hand": "left"
      },
      {
        "midi": 62,
        "time": 78.75,
        "duration": 0.818,
        "velocity": 0.55,
        "hand": "right"
      },
      {
        "midi": 55,
        "time": 79.583,
        "duration": 0.417,
        "velocity": 0.52,
        "hand": "left"
      },
      {
        "midi": 62,
        "time": 79.583,
        "duration": 0.402,
        "velocity": 0.56,
        "hand": "right"
      },
      {
        "midi": 67,
        "time": 80.416,
        "duration": 0.417,
        "velocity": 0.52,
        "hand": "right"
      },
      {
        "midi": 55,
        "time": 81.25,
        "duration": 0.818,
        "velocity": 0.4,
        "hand": "left"
      },
      {
        "midi": 70,
        "time": 81.25,
        "duration": 0.417,
        "velocity": 0.46,
        "hand": "right"
      },
      {
        "midi": 50,
        "time": 82.083,
        "duration": 0.818,
        "velocity": 0.58,
        "hand": "left"
      },
      {
        "midi": 55,
        "time": 82.083,
        "duration": 0.818,
        "velocity": 0.58,
        "hand": "left"
      },
      {
        "midi": 50,
        "time": 82.916,
        "duration": 0.819,
        "velocity": 0.54,
        "hand": "left"
      },
      {
        "midi": 55,
        "time": 82.916,
        "duration": 0.819,
        "velocity": 0.54,
        "hand": "left"
      },
      {
        "midi": 67,
        "time": 83.75,
        "duration": 0.417,
        "velocity": 0.54,
        "hand": "right"
      },
      {
        "midi": 55,
        "time": 84.583,
        "duration": 0.818,
        "velocity": 0.43,
        "hand": "left"
      },
      {
        "midi": 70,
        "time": 84.583,
        "duration": 0.417,
        "velocity": 0.47,
        "hand": "right"
      },
      {
        "midi": 50,
        "time": 85.416,
        "duration": 0.819,
        "velocity": 0.59,
        "hand": "left"
      },
      {
        "midi": 55,
        "time": 85.416,
        "duration": 0.819,
        "velocity": 0.59,
        "hand": "left"
      },
      {
        "midi": 50,
        "time": 86.25,
        "duration": 0.818,
        "velocity": 0.53,
        "hand": "left"
      },
      {
        "midi": 55,
        "time": 86.25,
        "duration": 0.818,
        "velocity": 0.53,
        "hand": "left"
      },
      {
        "midi": 67,
        "time": 87.083,
        "duration": 0.417,
        "velocity": 0.53,
        "hand": "right"
      },
      {
        "midi": 55,
        "time": 87.916,
        "duration": 0.833,
        "velocity": 0.39,
        "hand": "left"
      },
      {
        "midi": 70,
        "time": 87.916,
        "duration": 0.833,
        "velocity": 0.52,
        "hand": "right"
      },
      {
        "midi": 69,
        "time": 88.75,
        "duration": 0.417,
        "velocity": 0.43,
        "hand": "right"
      },
      {
        "midi": 55,
        "time": 89.583,
        "duration": 0.833,
        "velocity": 0.43,
        "hand": "left"
      },
      {
        "midi": 70,
        "time": 89.583,
        "duration": 0.833,
        "velocity": 0.53,
        "hand": "right"
      },
      {
        "midi": 69,
        "time": 90.416,
        "duration": 0.417,
        "velocity": 0.44,
        "hand": "right"
      },
      {
        "midi": 74,
        "time": 91.25,
        "duration": 0.818,
        "velocity": 0.56,
        "hand": "right"
      },
      {
        "midi": 74,
        "time": 92.083,
        "duration": 0.818,
        "velocity": 0.49,
        "hand": "right"
      },
      {
        "midi": 74,
        "time": 92.916,
        "duration": 0.402,
        "velocity": 0.43,
        "hand": "right"
      },
      {
        "midi": 72,
        "time": 93.75,
        "duration": 0.417,
        "velocity": 0.46,
        "hand": "right"
      },
      {
        "midi": 75,
        "time": 94.583,
        "duration": 0.402,
        "velocity": 0.51,
        "hand": "right"
      },
      {
        "midi": 51,
        "time": 95.416,
        "duration": 0.833,
        "velocity": 0.54,
        "hand": "left"
      },
      {
        "midi": 60,
        "time": 95.416,
        "duration": 0.833,
        "velocity": 0.54,
        "hand": "right"
      },
      {
        "midi": 55,
        "time": 96.25,
        "duration": 0.833,
        "velocity": 0.53,
        "hand": "left"
      },
      {
        "midi": 63,
        "time": 96.25,
        "duration": 0.833,
        "velocity": 0.53,
        "hand": "right"
      },
      {
        "midi": 74,
        "time": 97.083,
        "duration": 0.417,
        "velocity": 0.46,
        "hand": "right"
      },
      {
        "midi": 75,
        "time": 97.916,
        "duration": 0.417,
        "velocity": 0.5,
        "hand": "right"
      },
      {
        "midi": 55,
        "time": 98.75,
        "duration": 0.833,
        "velocity": 0.43,
        "hand": "left"
      },
      {
        "midi": 50,
        "time": 99.583,
        "duration": 0.833,
        "velocity": 0.65,
        "hand": "left"
      },
      {
        "midi": 58,
        "time": 99.583,
        "duration": 0.818,
        "velocity": 0.54,
        "hand": "left"
      },
      {
        "midi": 58,
        "time": 100.416,
        "duration": 0.833,
        "velocity": 0.59,
        "hand": "left"
      },
      {
        "midi": 72,
        "time": 100.416,
        "duration": 0.417,
        "velocity": 0.43,
        "hand": "right"
      },
      {
        "midi": 69,
        "time": 101.25,
        "duration": 0.833,
        "velocity": 0.45,
        "hand": "right"
      },
      {
        "midi": 74,
        "time": 102.083,
        "duration": 0.833,
        "velocity": 0.55,
        "hand": "right"
      },
      {
        "midi": 69,
        "time": 102.916,
        "duration": 0.833,
        "velocity": 0.43,
        "hand": "right"
      },
      {
        "midi": 70,
        "time": 103.75,
        "duration": 0.833,
        "velocity": 0.5,
        "hand": "right"
      },
      {
        "midi": 55,
        "time": 104.583,
        "duration": 0.818,
        "velocity": 0.39,
        "hand": "left"
      },
      {
        "midi": 67,
        "time": 104.583,
        "duration": 2.083,
        "velocity": 0.47,
        "hand": "right"
      },
      {
        "midi": 55,
        "time": 105.416,
        "duration": 0.819,
        "velocity": 0.54,
        "hand": "left"
      },
      {
        "midi": 62,
        "time": 105.416,
        "duration": 0.819,
        "velocity": 0.54,
        "hand": "right"
      },
      {
        "midi": 55,
        "time": 106.25,
        "duration": 0.417,
        "velocity": 0.56,
        "hand": "left"
      },
      {
        "midi": 62,
        "time": 106.25,
        "duration": 0.417,
        "velocity": 0.61,
        "hand": "right"
      }
    ],
    "hard": [
      {
        "midi": 62,
        "time": 0,
        "duration": 0.417,
        "velocity": 0.42,
        "hand": "right"
      },
      {
        "midi": 67,
        "time": 0.416,
        "duration": 0.417,
        "velocity": 0.52,
        "hand": "right"
      },
      {
        "midi": 69,
        "time": 0.833,
        "duration": 0.417,
        "velocity": 0.51,
        "hand": "right"
      },
      {
        "midi": 43,
        "time": 1.25,
        "duration": 0.833,
        "velocity": 0.44,
        "hand": "left"
      },
      {
        "midi": 70,
        "time": 1.25,
        "duration": 0.417,
        "velocity": 0.51,
        "hand": "right"
      },
      {
        "midi": 67,
        "time": 1.666,
        "duration": 1.667,
        "velocity": 0.44,
        "hand": "right"
      },
      {
        "midi": 50,
        "time": 2.083,
        "duration": 0.818,
        "velocity": 0.6,
        "hand": "left"
      },
      {
        "midi": 55,
        "time": 2.083,
        "duration": 0.818,
        "velocity": 0.6,
        "hand": "left"
      },
      {
        "midi": 50,
        "time": 2.916,
        "duration": 0.819,
        "velocity": 0.54,
        "hand": "left"
      },
      {
        "midi": 55,
        "time": 2.916,
        "duration": 0.819,
        "velocity": 0.54,
        "hand": "left"
      },
      {
        "midi": 62,
        "time": 3.333,
        "duration": 0.417,
        "velocity": 0.42,
        "hand": "right"
      },
      {
        "midi": 50,
        "time": 3.75,
        "duration": 0.833,
        "velocity": 0.49,
        "hand": "left"
      },
      {
        "midi": 55,
        "time": 3.75,
        "duration": 0.833,
        "velocity": 0.49,
        "hand": "left"
      },
      {
        "midi": 67,
        "time": 3.75,
        "duration": 0.417,
        "velocity": 0.55,
        "hand": "right"
      },
      {
        "midi": 69,
        "time": 4.166,
        "duration": 0.417,
        "velocity": 0.5,
        "hand": "right"
      },
      {
        "midi": 43,
        "time": 4.583,
        "duration": 0.833,
        "velocity": 0.42,
        "hand": "left"
      },
      {
        "midi": 70,
        "time": 4.583,
        "duration": 0.417,
        "velocity": 0.49,
        "hand": "right"
      },
      {
        "midi": 67,
        "time": 5,
        "duration": 1.667,
        "velocity": 0.48,
        "hand": "right"
      },
      {
        "midi": 50,
        "time": 5.416,
        "duration": 0.819,
        "velocity": 0.55,
        "hand": "left"
      },
      {
        "midi": 55,
        "time": 5.416,
        "duration": 0.819,
        "velocity": 0.55,
        "hand": "left"
      },
      {
        "midi": 50,
        "time": 6.25,
        "duration": 0.818,
        "velocity": 0.5,
        "hand": "left"
      },
      {
        "midi": 55,
        "time": 6.25,
        "duration": 0.818,
        "velocity": 0.5,
        "hand": "left"
      },
      {
        "midi": 62,
        "time": 6.666,
        "duration": 0.417,
        "velocity": 0.41,
        "hand": "right"
      },
      {
        "midi": 50,
        "time": 7.083,
        "duration": 0.833,
        "velocity": 0.49,
        "hand": "left"
      },
      {
        "midi": 55,
        "time": 7.083,
        "duration": 0.833,
        "velocity": 0.49,
        "hand": "left"
      },
      {
        "midi": 67,
        "time": 7.083,
        "duration": 0.417,
        "velocity": 0.54,
        "hand": "right"
      },
      {
        "midi": 69,
        "time": 7.5,
        "duration": 0.417,
        "velocity": 0.53,
        "hand": "right"
      },
      {
        "midi": 43,
        "time": 7.916,
        "duration": 0.833,
        "velocity": 0.42,
        "hand": "left"
      },
      {
        "midi": 70,
        "time": 7.916,
        "duration": 0.833,
        "velocity": 0.52,
        "hand": "right"
      },
      {
        "midi": 50,
        "time": 8.75,
        "duration": 0.833,
        "velocity": 0.56,
        "hand": "left"
      },
      {
        "midi": 55,
        "time": 8.75,
        "duration": 0.833,
        "velocity": 0.56,
        "hand": "left"
      },
      {
        "midi": 69,
        "time": 8.75,
        "duration": 0.417,
        "velocity": 0.46,
        "hand": "right"
      },
      {
        "midi": 67,
        "time": 9.166,
        "duration": 0.417,
        "velocity": 0.46,
        "hand": "right"
      },
      {
        "midi": 43,
        "time": 9.583,
        "duration": 0.833,
        "velocity": 0.41,
        "hand": "left"
      },
      {
        "midi": 70,
        "time": 9.583,
        "duration": 0.833,
        "velocity": 0.49,
        "hand": "right"
      },
      {
        "midi": 50,
        "time": 10.416,
        "duration": 0.833,
        "velocity": 0.6,
        "hand": "left"
      },
      {
        "midi": 55,
        "time": 10.416,
        "duration": 0.833,
        "velocity": 0.6,
        "hand": "left"
      },
      {
        "midi": 69,
        "time": 10.416,
        "duration": 0.417,
        "velocity": 0.43,
        "hand": "right"
      },
      {
        "midi": 67,
        "time": 10.833,
        "duration": 0.417,
        "velocity": 0.5,
        "hand": "right"
      },
      {
        "midi": 43,
        "time": 11.25,
        "duration": 1.25,
        "velocity": 0.53,
        "hand": "left"
      },
      {
        "midi": 74,
        "time": 11.25,
        "duration": 0.818,
        "velocity": 0.54,
        "hand": "right"
      },
      {
        "midi": 55,
        "time": 12.083,
        "duration": 0.818,
        "velocity": 0.48,
        "hand": "left"
      },
      {
        "midi": 74,
        "time": 12.083,
        "duration": 0.818,
        "velocity": 0.51,
        "hand": "right"
      },
      {
        "midi": 47,
        "time": 12.5,
        "duration": 0.417,
        "velocity": 0.63,
        "hand": "left"
      },
      {
        "midi": 50,
        "time": 12.916,
        "duration": 0.833,
        "velocity": 0.63,
        "hand": "left"
      },
      {
        "midi": 55,
        "time": 12.916,
        "duration": 0.819,
        "velocity": 0.5,
        "hand": "left"
      },
      {
        "midi": 74,
        "time": 12.916,
        "duration": 0.402,
        "velocity": 0.47,
        "hand": "right"
      },
      {
        "midi": 74,
        "time": 13.333,
        "duration": 0.417,
        "velocity": 0.48,
        "hand": "right"
      },
      {
        "midi": 53,
        "time": 13.75,
        "duration": 0.417,
        "velocity": 0.64,
        "hand": "left"
      },
      {
        "midi": 55,
        "time": 13.75,
        "duration": 0.818,
        "velocity": 0.43,
        "hand": "left"
      },
      {
        "midi": 72,
        "time": 13.75,
        "duration": 0.417,
        "velocity": 0.4,
        "hand": "right"
      },
      {
        "midi": 50,
        "time": 14.166,
        "duration": 0.417,
        "velocity": 0.55,
        "hand": "left"
      },
      {
        "midi": 74,
        "time": 14.166,
        "duration": 0.417,
        "velocity": 0.54,
        "hand": "right"
      },
      {
        "midi": 48,
        "time": 14.583,
        "duration": 0.833,
        "velocity": 0.5,
        "hand": "left"
      },
      {
        "midi": 55,
        "time": 14.583,
        "duration": 0.833,
        "velocity": 0.5,
        "hand": "left"
      },
      {
        "midi": 75,
        "time": 14.583,
        "duration": 0.402,
        "velocity": 0.52,
        "hand": "right"
      },
      {
        "midi": 75,
        "time": 15,
        "duration": 1.651,
        "velocity": 0.46,
        "hand": "right"
      },
      {
        "midi": 51,
        "time": 15.416,
        "duration": 0.833,
        "velocity": 0.54,
        "hand": "left"
      },
      {
        "midi": 60,
        "time": 15.416,
        "duration": 0.833,
        "velocity": 0.54,
        "hand": "right"
      },
      {
        "midi": 55,
        "time": 16.25,
        "duration": 0.833,
        "velocity": 0.53,
        "hand": "left"
      },
      {
        "midi": 63,
        "time": 16.25,
        "duration": 0.833,
        "velocity": 0.53,
        "hand": "right"
      },
      {
        "midi": 75,
        "time": 16.666,
        "duration": 0.417,
        "velocity": 0.47,
        "hand": "right"
      },
      {
        "midi": 51,
        "time": 17.083,
        "duration": 0.833,
        "velocity": 0.47,
        "hand": "left"
      },
      {
        "midi": 60,
        "time": 17.083,
        "duration": 0.833,
        "velocity": 0.47,
        "hand": "right"
      },
      {
        "midi": 74,
        "time": 17.083,
        "duration": 0.417,
        "velocity": 0.48,
        "hand": "right"
      },
      {
        "midi": 72,
        "time": 17.5,
        "duration": 0.417,
        "velocity": 0.43,
        "hand": "right"
      },
      {
        "midi": 43,
        "time": 17.916,
        "duration": 1.25,
        "velocity": 0.54,
        "hand": "left"
      },
      {
        "midi": 75,
        "time": 17.916,
        "duration": 0.417,
        "velocity": 0.51,
        "hand": "right"
      },
      {
        "midi": 74,
        "time": 18.333,
        "duration": 1.25,
        "velocity": 0.46,
        "hand": "right"
      },
      {
        "midi": 55,
        "time": 18.75,
        "duration": 0.833,
        "velocity": 0.43,
        "hand": "left"
      },
      {
        "midi": 46,
        "time": 19.166,
        "duration": 0.417,
        "velocity": 0.58,
        "hand": "left"
      },
      {
        "midi": 50,
        "time": 19.583,
        "duration": 0.833,
        "velocity": 0.65,
        "hand": "left"
      },
      {
        "midi": 58,
        "time": 19.583,
        "duration": 0.833,
        "velocity": 0.54,
        "hand": "left"
      },
      {
        "midi": 74,
        "time": 20,
        "duration": 0.417,
        "velocity": 0.38,
        "hand": "right"
      },
      {
        "midi": 46,
        "time": 20.416,
        "duration": 0.833,
        "velocity": 0.61,
        "hand": "left"
      },
      {
        "midi": 55,
        "time": 20.416,
        "duration": 0.833,
        "velocity": 0.51,
        "hand": "left"
      },
      {
        "midi": 72,
        "time": 20.416,
        "duration": 0.417,
        "velocity": 0.46,
        "hand": "right"
      },
      {
        "midi": 70,
        "time": 20.833,
        "duration": 0.417,
        "velocity": 0.44,
        "hand": "right"
      },
      {
        "midi": 50,
        "time": 21.25,
        "duration": 1.25,
        "velocity": 0.62,
        "hand": "left"
      },
      {
        "midi": 69,
        "time": 21.25,
        "duration": 0.833,
        "velocity": 0.46,
        "hand": "right"
      },
      {
        "midi": 54,
        "time": 22.083,
        "duration": 0.833,
        "velocity": 0.41,
        "hand": "left"
      },
      {
        "midi": 57,
        "time": 22.083,
        "duration": 0.833,
        "velocity": 0.41,
        "hand": "left"
      },
      {
        "midi": 74,
        "time": 22.083,
        "duration": 0.833,
        "velocity": 0.54,
        "hand": "right"
      },
      {
        "midi": 45,
        "time": 22.5,
        "duration": 0.417,
        "velocity": 0.59,
        "hand": "left"
      },
      {
        "midi": 50,
        "time": 22.916,
        "duration": 0.819,
        "velocity": 0.62,
        "hand": "left"
      },
      {
        "midi": 69,
        "time": 22.916,
        "duration": 0.833,
        "velocity": 0.44,
        "hand": "right"
      },
      {
        "midi": 50,
        "time": 23.75,
        "duration": 0.833,
        "velocity": 0.62,
        "hand": "left"
      },
      {
        "midi": 54,
        "time": 23.75,
        "duration": 0.833,
        "velocity": 0.41,
        "hand": "left"
      },
      {
        "midi": 70,
        "time": 23.75,
        "duration": 0.833,
        "velocity": 0.48,
        "hand": "right"
      },
      {
        "midi": 43,
        "time": 24.583,
        "duration": 1.25,
        "velocity": 0.38,
        "hand": "left"
      },
      {
        "midi": 67,
        "time": 24.583,
        "duration": 2.083,
        "velocity": 0.45,
        "hand": "right"
      },
      {
        "midi": 55,
        "time": 25.416,
        "duration": 0.819,
        "velocity": 0.58,
        "hand": "left"
      },
      {
        "midi": 58,
        "time": 25.416,
        "duration": 0.819,
        "velocity": 0.58,
        "hand": "left"
      },
      {
        "midi": 62,
        "time": 25.416,
        "duration": 0.819,
        "velocity": 0.58,
        "hand": "right"
      },
      {
        "midi": 38,
        "time": 25.833,
        "duration": 0.417,
        "velocity": 0.44,
        "hand": "left"
      },
      {
        "midi": 43,
        "time": 26.25,
        "duration": 0.417,
        "velocity": 0.55,
        "hand": "left"
      },
      {
        "midi": 55,
        "time": 26.25,
        "duration": 0.417,
        "velocity": 0.61,
        "hand": "left"
      },
      {
        "midi": 62,
        "time": 26.25,
        "duration": 0.401,
        "velocity": 0.61,
        "hand": "right"
      },
      {
        "midi": 62,
        "time": 26.666,
        "duration": 0.417,
        "velocity": 0.41,
        "hand": "right"
      },
      {
        "midi": 67,
        "time": 27.083,
        "duration": 0.417,
        "velocity": 0.51,
        "hand": "right"
      },
      {
        "midi": 69,
        "time": 27.5,
        "duration": 0.417,
        "velocity": 0.51,
        "hand": "right"
      },
      {
        "midi": 43,
        "time": 27.916,
        "duration": 0.833,
        "velocity": 0.46,
        "hand": "left"
      },
      {
        "midi": 70,
        "time": 27.916,
        "duration": 0.417,
        "velocity": 0.54,
        "hand": "right"
      },
      {
        "midi": 67,
        "time": 28.333,
        "duration": 1.667,
        "velocity": 0.46,
        "hand": "right"
      },
      {
        "midi": 50,
        "time": 28.75,
        "duration": 0.818,
        "velocity": 0.61,
        "hand": "left"
      },
      {
        "midi": 55,
        "time": 28.75,
        "duration": 0.818,
        "velocity": 0.61,
        "hand": "left"
      },
      {
        "midi": 50,
        "time": 29.583,
        "duration": 0.818,
        "velocity": 0.51,
        "hand": "left"
      },
      {
        "midi": 55,
        "time": 29.583,
        "duration": 0.818,
        "velocity": 0.51,
        "hand": "left"
      },
      {
        "midi": 62,
        "time": 30,
        "duration": 0.417,
        "velocity": 0.43,
        "hand": "right"
      },
      {
        "midi": 50,
        "time": 30.416,
        "duration": 0.833,
        "velocity": 0.55,
        "hand": "left"
      },
      {
        "midi": 55,
        "time": 30.416,
        "duration": 0.833,
        "velocity": 0.55,
        "hand": "left"
      },
      {
        "midi": 67,
        "time": 30.416,
        "duration": 0.417,
        "velocity": 0.52,
        "hand": "right"
      },
      {
        "midi": 69,
        "time": 30.833,
        "duration": 0.417,
        "velocity": 0.5,
        "hand": "right"
      },
      {
        "midi": 43,
        "time": 31.25,
        "duration": 0.833,
        "velocity": 0.43,
        "hand": "left"
      },
      {
        "midi": 70,
        "time": 31.25,
        "duration": 0.417,
        "velocity": 0.52,
        "hand": "right"
      },
      {
        "midi": 67,
        "time": 31.666,
        "duration": 1.667,
        "velocity": 0.43,
        "hand": "right"
      },
      {
        "midi": 50,
        "time": 32.083,
        "duration": 0.818,
        "velocity": 0.59,
        "hand": "left"
      },
      {
        "midi": 55,
        "time": 32.083,
        "duration": 0.818,
        "velocity": 0.59,
        "hand": "left"
      },
      {
        "midi": 50,
        "time": 32.916,
        "duration": 0.819,
        "velocity": 0.54,
        "hand": "left"
      },
      {
        "midi": 55,
        "time": 32.916,
        "duration": 0.819,
        "velocity": 0.54,
        "hand": "left"
      },
      {
        "midi": 62,
        "time": 33.333,
        "duration": 0.417,
        "velocity": 0.43,
        "hand": "right"
      },
      {
        "midi": 50,
        "time": 33.75,
        "duration": 0.833,
        "velocity": 0.53,
        "hand": "left"
      },
      {
        "midi": 55,
        "time": 33.75,
        "duration": 0.833,
        "velocity": 0.53,
        "hand": "left"
      },
      {
        "midi": 67,
        "time": 33.75,
        "duration": 0.417,
        "velocity": 0.55,
        "hand": "right"
      },
      {
        "midi": 69,
        "time": 34.166,
        "duration": 0.417,
        "velocity": 0.54,
        "hand": "right"
      },
      {
        "midi": 43,
        "time": 34.583,
        "duration": 0.833,
        "velocity": 0.43,
        "hand": "left"
      },
      {
        "midi": 70,
        "time": 34.583,
        "duration": 0.833,
        "velocity": 0.5,
        "hand": "right"
      },
      {
        "midi": 50,
        "time": 35.416,
        "duration": 0.833,
        "velocity": 0.57,
        "hand": "left"
      },
      {
        "midi": 55,
        "time": 35.416,
        "duration": 0.833,
        "velocity": 0.57,
        "hand": "left"
      },
      {
        "midi": 69,
        "time": 35.416,
        "duration": 0.417,
        "velocity": 0.43,
        "hand": "right"
      },
      {
        "midi": 67,
        "time": 35.833,
        "duration": 0.417,
        "velocity": 0.42,
        "hand": "right"
      },
      {
        "midi": 43,
        "time": 36.25,
        "duration": 0.833,
        "velocity": 0.44,
        "hand": "left"
      },
      {
        "midi": 70,
        "time": 36.25,
        "duration": 0.833,
        "velocity": 0.5,
        "hand": "right"
      },
      {
        "midi": 50,
        "time": 37.083,
        "duration": 0.833,
        "velocity": 0.6,
        "hand": "left"
      },
      {
        "midi": 55,
        "time": 37.083,
        "duration": 0.833,
        "velocity": 0.6,
        "hand": "left"
      },
      {
        "midi": 69,
        "time": 37.083,
        "duration": 0.417,
        "velocity": 0.47,
        "hand": "right"
      },
      {
        "midi": 67,
        "time": 37.5,
        "duration": 0.417,
        "velocity": 0.4,
        "hand": "right"
      },
      {
        "midi": 43,
        "time": 37.916,
        "duration": 1.25,
        "velocity": 0.57,
        "hand": "left"
      },
      {
        "midi": 74,
        "time": 37.916,
        "duration": 0.819,
        "velocity": 0.54,
        "hand": "right"
      },
      {
        "midi": 55,
        "time": 38.75,
        "duration": 0.818,
        "velocity": 0.46,
        "hand": "left"
      },
      {
        "midi": 74,
        "time": 38.75,
        "duration": 0.818,
        "velocity": 0.46,
        "hand": "right"
      },
      {
        "midi": 47,
        "time": 39.166,
        "duration": 0.417,
        "velocity": 0.62,
        "hand": "left"
      },
      {
        "midi": 50,
        "time": 39.583,
        "duration": 0.833,
        "velocity": 0.61,
        "hand": "left"
      },
      {
        "midi": 55,
        "time": 39.583,
        "duration": 0.818,
        "velocity": 0.46,
        "hand": "left"
      },
      {
        "midi": 74,
        "time": 39.583,
        "duration": 0.402,
        "velocity": 0.46,
        "hand": "right"
      },
      {
        "midi": 74,
        "time": 40,
        "duration": 0.417,
        "velocity": 0.47,
        "hand": "right"
      },
      {
        "midi": 53,
        "time": 40.416,
        "duration": 0.417,
        "velocity": 0.65,
        "hand": "left"
      },
      {
        "midi": 55,
        "time": 40.416,
        "duration": 0.819,
        "velocity": 0.5,
        "hand": "left"
      },
      {
        "midi": 72,
        "time": 40.416,
        "duration": 0.417,
        "velocity": 0.44,
        "hand": "right"
      },
      {
        "midi": 50,
        "time": 40.833,
        "duration": 0.417,
        "velocity": 0.57,
        "hand": "left"
      },
      {
        "midi": 74,
        "time": 40.833,
        "duration": 0.417,
        "velocity": 0.51,
        "hand": "right"
      },
      {
        "midi": 48,
        "time": 41.25,
        "duration": 0.833,
        "velocity": 0.46,
        "hand": "left"
      },
      {
        "midi": 55,
        "time": 41.25,
        "duration": 0.833,
        "velocity": 0.46,
        "hand": "left"
      },
      {
        "midi": 75,
        "time": 41.25,
        "duration": 0.401,
        "velocity": 0.54,
        "hand": "right"
      },
      {
        "midi": 75,
        "time": 41.666,
        "duration": 1.652,
        "velocity": 0.48,
        "hand": "right"
      },
      {
        "midi": 51,
        "time": 42.083,
        "duration": 0.833,
        "velocity": 0.51,
        "hand": "left"
      },
      {
        "midi": 60,
        "time": 42.083,
        "duration": 0.833,
        "velocity": 0.51,
        "hand": "right"
      },
      {
        "midi": 55,
        "time": 42.916,
        "duration": 0.833,
        "velocity": 0.54,
        "hand": "left"
      },
      {
        "midi": 63,
        "time": 42.916,
        "duration": 0.833,
        "velocity": 0.54,
        "hand": "right"
      },
      {
        "midi": 75,
        "time": 43.333,
        "duration": 0.417,
        "velocity": 0.5,
        "hand": "right"
      },
      {
        "midi": 51,
        "time": 43.75,
        "duration": 0.833,
        "velocity": 0.43,
        "hand": "left"
      },
      {
        "midi": 60,
        "time": 43.75,
        "duration": 0.833,
        "velocity": 0.43,
        "hand": "right"
      },
      {
        "midi": 74,
        "time": 43.75,
        "duration": 0.417,
        "velocity": 0.44,
        "hand": "right"
      },
      {
        "midi": 72,
        "time": 44.166,
        "duration": 0.417,
        "velocity": 0.47,
        "hand": "right"
      },
      {
        "midi": 43,
        "time": 44.583,
        "duration": 1.25,
        "velocity": 0.58,
        "hand": "left"
      },
      {
        "midi": 75,
        "time": 44.583,
        "duration": 0.417,
        "velocity": 0.52,
        "hand": "right"
      },
      {
        "midi": 74,
        "time": 45,
        "duration": 1.25,
        "velocity": 0.45,
        "hand": "right"
      },
      {
        "midi": 55,
        "time": 45.416,
        "duration": 0.833,
        "velocity": 0.43,
        "hand": "left"
      },
      {
        "midi": 46,
        "time": 45.833,
        "duration": 0.417,
        "velocity": 0.62,
        "hand": "left"
      },
      {
        "midi": 50,
        "time": 46.25,
        "duration": 0.833,
        "velocity": 0.65,
        "hand": "left"
      },
      {
        "midi": 58,
        "time": 46.25,
        "duration": 0.833,
        "velocity": 0.54,
        "hand": "left"
      },
      {
        "midi": 74,
        "time": 46.666,
        "duration": 0.417,
        "velocity": 0.4,
        "hand": "right"
      },
      {
        "midi": 46,
        "time": 47.083,
        "duration": 0.833,
        "velocity": 0.57,
        "hand": "left"
      },
      {
        "midi": 55,
        "time": 47.083,
        "duration": 0.833,
        "velocity": 0.53,
        "hand": "left"
      },
      {
        "midi": 72,
        "time": 47.083,
        "duration": 0.417,
        "velocity": 0.45,
        "hand": "right"
      },
      {
        "midi": 70,
        "time": 47.5,
        "duration": 0.417,
        "velocity": 0.46,
        "hand": "right"
      },
      {
        "midi": 50,
        "time": 47.916,
        "duration": 1.25,
        "velocity": 0.62,
        "hand": "left"
      },
      {
        "midi": 69,
        "time": 47.916,
        "duration": 0.833,
        "velocity": 0.44,
        "hand": "right"
      },
      {
        "midi": 54,
        "time": 48.75,
        "duration": 0.833,
        "velocity": 0.4,
        "hand": "left"
      },
      {
        "midi": 57,
        "time": 48.75,
        "duration": 0.833,
        "velocity": 0.4,
        "hand": "left"
      },
      {
        "midi": 74,
        "time": 48.75,
        "duration": 0.833,
        "velocity": 0.53,
        "hand": "right"
      },
      {
        "midi": 45,
        "time": 49.166,
        "duration": 0.417,
        "velocity": 0.54,
        "hand": "left"
      },
      {
        "midi": 50,
        "time": 49.583,
        "duration": 0.818,
        "velocity": 0.64,
        "hand": "left"
      },
      {
        "midi": 69,
        "time": 49.583,
        "duration": 0.833,
        "velocity": 0.43,
        "hand": "right"
      },
      {
        "midi": 50,
        "time": 50.416,
        "duration": 0.833,
        "velocity": 0.58,
        "hand": "left"
      },
      {
        "midi": 54,
        "time": 50.416,
        "duration": 0.833,
        "velocity": 0.4,
        "hand": "left"
      },
      {
        "midi": 70,
        "time": 50.416,
        "duration": 0.833,
        "velocity": 0.49,
        "hand": "right"
      },
      {
        "midi": 43,
        "time": 51.25,
        "duration": 1.25,
        "velocity": 0.4,
        "hand": "left"
      },
      {
        "midi": 67,
        "time": 51.25,
        "duration": 2.083,
        "velocity": 0.44,
        "hand": "right"
      },
      {
        "midi": 55,
        "time": 52.083,
        "duration": 0.818,
        "velocity": 0.52,
        "hand": "left"
      },
      {
        "midi": 58,
        "time": 52.083,
        "duration": 0.818,
        "velocity": 0.52,
        "hand": "left"
      },
      {
        "midi": 62,
        "time": 52.083,
        "duration": 0.818,
        "velocity": 0.52,
        "hand": "right"
      },
      {
        "midi": 38,
        "time": 52.5,
        "duration": 0.417,
        "velocity": 0.44,
        "hand": "left"
      },
      {
        "midi": 43,
        "time": 52.916,
        "duration": 0.417,
        "velocity": 0.55,
        "hand": "left"
      },
      {
        "midi": 55,
        "time": 52.916,
        "duration": 0.417,
        "velocity": 0.57,
        "hand": "left"
      },
      {
        "midi": 62,
        "time": 52.916,
        "duration": 0.402,
        "velocity": 0.57,
        "hand": "right"
      },
      {
        "midi": 62,
        "time": 53.333,
        "duration": 0.417,
        "velocity": 0.41,
        "hand": "right"
      },
      {
        "midi": 67,
        "time": 53.75,
        "duration": 0.417,
        "velocity": 0.53,
        "hand": "right"
      },
      {
        "midi": 69,
        "time": 54.166,
        "duration": 0.417,
        "velocity": 0.52,
        "hand": "right"
      },
      {
        "midi": 43,
        "time": 54.583,
        "duration": 0.833,
        "velocity": 0.43,
        "hand": "left"
      },
      {
        "midi": 70,
        "time": 54.583,
        "duration": 0.417,
        "velocity": 0.49,
        "hand": "right"
      },
      {
        "midi": 67,
        "time": 55,
        "duration": 1.667,
        "velocity": 0.47,
        "hand": "right"
      },
      {
        "midi": 50,
        "time": 55.416,
        "duration": 0.819,
        "velocity": 0.6,
        "hand": "left"
      },
      {
        "midi": 55,
        "time": 55.416,
        "duration": 0.819,
        "velocity": 0.6,
        "hand": "left"
      },
      {
        "midi": 50,
        "time": 56.25,
        "duration": 0.818,
        "velocity": 0.53,
        "hand": "left"
      },
      {
        "midi": 55,
        "time": 56.25,
        "duration": 0.818,
        "velocity": 0.53,
        "hand": "left"
      },
      {
        "midi": 62,
        "time": 56.666,
        "duration": 0.417,
        "velocity": 0.46,
        "hand": "right"
      },
      {
        "midi": 50,
        "time": 57.083,
        "duration": 0.833,
        "velocity": 0.52,
        "hand": "left"
      },
      {
        "midi": 55,
        "time": 57.083,
        "duration": 0.833,
        "velocity": 0.52,
        "hand": "left"
      },
      {
        "midi": 67,
        "time": 57.083,
        "duration": 0.417,
        "velocity": 0.54,
        "hand": "right"
      },
      {
        "midi": 69,
        "time": 57.5,
        "duration": 0.417,
        "velocity": 0.5,
        "hand": "right"
      },
      {
        "midi": 43,
        "time": 57.916,
        "duration": 0.833,
        "velocity": 0.39,
        "hand": "left"
      },
      {
        "midi": 70,
        "time": 57.916,
        "duration": 0.417,
        "velocity": 0.5,
        "hand": "right"
      },
      {
        "midi": 67,
        "time": 58.333,
        "duration": 1.667,
        "velocity": 0.45,
        "hand": "right"
      },
      {
        "midi": 50,
        "time": 58.75,
        "duration": 0.818,
        "velocity": 0.57,
        "hand": "left"
      },
      {
        "midi": 55,
        "time": 58.75,
        "duration": 0.818,
        "velocity": 0.57,
        "hand": "left"
      },
      {
        "midi": 50,
        "time": 59.583,
        "duration": 0.818,
        "velocity": 0.54,
        "hand": "left"
      },
      {
        "midi": 55,
        "time": 59.583,
        "duration": 0.818,
        "velocity": 0.54,
        "hand": "left"
      },
      {
        "midi": 62,
        "time": 60,
        "duration": 0.417,
        "velocity": 0.42,
        "hand": "right"
      },
      {
        "midi": 50,
        "time": 60.416,
        "duration": 0.833,
        "velocity": 0.51,
        "hand": "left"
      },
      {
        "midi": 55,
        "time": 60.416,
        "duration": 0.833,
        "velocity": 0.51,
        "hand": "left"
      },
      {
        "midi": 67,
        "time": 60.416,
        "duration": 0.417,
        "velocity": 0.53,
        "hand": "right"
      },
      {
        "midi": 69,
        "time": 60.833,
        "duration": 0.417,
        "velocity": 0.56,
        "hand": "right"
      },
      {
        "midi": 43,
        "time": 61.25,
        "duration": 0.833,
        "velocity": 0.43,
        "hand": "left"
      },
      {
        "midi": 70,
        "time": 61.25,
        "duration": 0.833,
        "velocity": 0.51,
        "hand": "right"
      },
      {
        "midi": 50,
        "time": 62.083,
        "duration": 0.833,
        "velocity": 0.59,
        "hand": "left"
      },
      {
        "midi": 55,
        "time": 62.083,
        "duration": 0.833,
        "velocity": 0.59,
        "hand": "left"
      },
      {
        "midi": 69,
        "time": 62.083,
        "duration": 0.417,
        "velocity": 0.5,
        "hand": "right"
      },
      {
        "midi": 67,
        "time": 62.5,
        "duration": 0.417,
        "velocity": 0.47,
        "hand": "right"
      },
      {
        "midi": 43,
        "time": 62.916,
        "duration": 0.833,
        "velocity": 0.39,
        "hand": "left"
      },
      {
        "midi": 70,
        "time": 62.916,
        "duration": 0.833,
        "velocity": 0.52,
        "hand": "right"
      },
      {
        "midi": 50,
        "time": 63.75,
        "duration": 0.833,
        "velocity": 0.61,
        "hand": "left"
      },
      {
        "midi": 55,
        "time": 63.75,
        "duration": 0.833,
        "velocity": 0.61,
        "hand": "left"
      },
      {
        "midi": 69,
        "time": 63.75,
        "duration": 0.417,
        "velocity": 0.49,
        "hand": "right"
      },
      {
        "midi": 67,
        "time": 64.166,
        "duration": 0.417,
        "velocity": 0.46,
        "hand": "right"
      },
      {
        "midi": 43,
        "time": 64.583,
        "duration": 1.25,
        "velocity": 0.53,
        "hand": "left"
      },
      {
        "midi": 74,
        "time": 64.583,
        "duration": 0.818,
        "velocity": 0.58,
        "hand": "right"
      },
      {
        "midi": 55,
        "time": 65.416,
        "duration": 0.819,
        "velocity": 0.48,
        "hand": "left"
      },
      {
        "midi": 74,
        "time": 65.416,
        "duration": 0.819,
        "velocity": 0.49,
        "hand": "right"
      },
      {
        "midi": 47,
        "time": 65.833,
        "duration": 0.417,
        "velocity": 0.6,
        "hand": "left"
      },
      {
        "midi": 50,
        "time": 66.25,
        "duration": 0.833,
        "velocity": 0.63,
        "hand": "left"
      },
      {
        "midi": 55,
        "time": 66.25,
        "duration": 0.818,
        "velocity": 0.5,
        "hand": "left"
      },
      {
        "midi": 74,
        "time": 66.25,
        "duration": 0.401,
        "velocity": 0.52,
        "hand": "right"
      },
      {
        "midi": 74,
        "time": 66.666,
        "duration": 0.417,
        "velocity": 0.41,
        "hand": "right"
      },
      {
        "midi": 53,
        "time": 67.083,
        "duration": 0.417,
        "velocity": 0.63,
        "hand": "left"
      },
      {
        "midi": 55,
        "time": 67.083,
        "duration": 0.818,
        "velocity": 0.48,
        "hand": "left"
      },
      {
        "midi": 72,
        "time": 67.083,
        "duration": 0.417,
        "velocity": 0.46,
        "hand": "right"
      },
      {
        "midi": 50,
        "time": 67.5,
        "duration": 0.417,
        "velocity": 0.57,
        "hand": "left"
      },
      {
        "midi": 74,
        "time": 67.5,
        "duration": 0.417,
        "velocity": 0.49,
        "hand": "right"
      },
      {
        "midi": 48,
        "time": 67.916,
        "duration": 0.833,
        "velocity": 0.5,
        "hand": "left"
      },
      {
        "midi": 55,
        "time": 67.916,
        "duration": 0.833,
        "velocity": 0.5,
        "hand": "left"
      },
      {
        "midi": 75,
        "time": 67.916,
        "duration": 0.402,
        "velocity": 0.5,
        "hand": "right"
      },
      {
        "midi": 75,
        "time": 68.333,
        "duration": 1.652,
        "velocity": 0.49,
        "hand": "right"
      },
      {
        "midi": 51,
        "time": 68.75,
        "duration": 0.833,
        "velocity": 0.56,
        "hand": "left"
      },
      {
        "midi": 60,
        "time": 68.75,
        "duration": 0.833,
        "velocity": 0.56,
        "hand": "right"
      },
      {
        "midi": 55,
        "time": 69.583,
        "duration": 0.833,
        "velocity": 0.52,
        "hand": "left"
      },
      {
        "midi": 63,
        "time": 69.583,
        "duration": 0.833,
        "velocity": 0.52,
        "hand": "right"
      },
      {
        "midi": 75,
        "time": 70,
        "duration": 0.417,
        "velocity": 0.49,
        "hand": "right"
      },
      {
        "midi": 51,
        "time": 70.416,
        "duration": 0.833,
        "velocity": 0.44,
        "hand": "left"
      },
      {
        "midi": 60,
        "time": 70.416,
        "duration": 0.833,
        "velocity": 0.44,
        "hand": "right"
      },
      {
        "midi": 74,
        "time": 70.416,
        "duration": 0.417,
        "velocity": 0.49,
        "hand": "right"
      },
      {
        "midi": 72,
        "time": 70.833,
        "duration": 0.417,
        "velocity": 0.39,
        "hand": "right"
      },
      {
        "midi": 43,
        "time": 71.25,
        "duration": 1.25,
        "velocity": 0.55,
        "hand": "left"
      },
      {
        "midi": 75,
        "time": 71.25,
        "duration": 0.417,
        "velocity": 0.51,
        "hand": "right"
      },
      {
        "midi": 74,
        "time": 71.666,
        "duration": 1.25,
        "velocity": 0.44,
        "hand": "right"
      },
      {
        "midi": 55,
        "time": 72.083,
        "duration": 0.833,
        "velocity": 0.5,
        "hand": "left"
      },
      {
        "midi": 46,
        "time": 72.5,
        "duration": 0.417,
        "velocity": 0.64,
        "hand": "left"
      },
      {
        "midi": 50,
        "time": 72.916,
        "duration": 0.833,
        "velocity": 0.65,
        "hand": "left"
      },
      {
        "midi": 58,
        "time": 72.916,
        "duration": 0.833,
        "velocity": 0.56,
        "hand": "left"
      },
      {
        "midi": 74,
        "time": 73.333,
        "duration": 0.417,
        "velocity": 0.43,
        "hand": "right"
      },
      {
        "midi": 46,
        "time": 73.75,
        "duration": 0.833,
        "velocity": 0.58,
        "hand": "left"
      },
      {
        "midi": 55,
        "time": 73.75,
        "duration": 0.833,
        "velocity": 0.5,
        "hand": "left"
      },
      {
        "midi": 72,
        "time": 73.75,
        "duration": 0.417,
        "velocity": 0.47,
        "hand": "right"
      },
      {
        "midi": 70,
        "time": 74.166,
        "duration": 0.417,
        "velocity": 0.46,
        "hand": "right"
      },
      {
        "midi": 50,
        "time": 74.583,
        "duration": 1.25,
        "velocity": 0.63,
        "hand": "left"
      },
      {
        "midi": 69,
        "time": 74.583,
        "duration": 0.833,
        "velocity": 0.45,
        "hand": "right"
      },
      {
        "midi": 54,
        "time": 75.416,
        "duration": 0.833,
        "velocity": 0.42,
        "hand": "left"
      },
      {
        "midi": 57,
        "time": 75.416,
        "duration": 0.833,
        "velocity": 0.42,
        "hand": "left"
      },
      {
        "midi": 74,
        "time": 75.416,
        "duration": 0.833,
        "velocity": 0.5,
        "hand": "right"
      },
      {
        "midi": 45,
        "time": 75.833,
        "duration": 0.417,
        "velocity": 0.56,
        "hand": "left"
      },
      {
        "midi": 50,
        "time": 76.25,
        "duration": 0.818,
        "velocity": 0.59,
        "hand": "left"
      },
      {
        "midi": 69,
        "time": 76.25,
        "duration": 0.833,
        "velocity": 0.46,
        "hand": "right"
      },
      {
        "midi": 50,
        "time": 77.083,
        "duration": 0.833,
        "velocity": 0.61,
        "hand": "left"
      },
      {
        "midi": 54,
        "time": 77.083,
        "duration": 0.833,
        "velocity": 0.43,
        "hand": "left"
      },
      {
        "midi": 70,
        "time": 77.083,
        "duration": 0.833,
        "velocity": 0.5,
        "hand": "right"
      },
      {
        "midi": 43,
        "time": 77.916,
        "duration": 1.25,
        "velocity": 0.4,
        "hand": "left"
      },
      {
        "midi": 67,
        "time": 77.916,
        "duration": 2.083,
        "velocity": 0.43,
        "hand": "right"
      },
      {
        "midi": 55,
        "time": 78.75,
        "duration": 0.818,
        "velocity": 0.55,
        "hand": "left"
      },
      {
        "midi": 58,
        "time": 78.75,
        "duration": 0.818,
        "velocity": 0.55,
        "hand": "left"
      },
      {
        "midi": 62,
        "time": 78.75,
        "duration": 0.818,
        "velocity": 0.55,
        "hand": "right"
      },
      {
        "midi": 38,
        "time": 79.166,
        "duration": 0.417,
        "velocity": 0.45,
        "hand": "left"
      },
      {
        "midi": 43,
        "time": 79.583,
        "duration": 0.417,
        "velocity": 0.52,
        "hand": "left"
      },
      {
        "midi": 55,
        "time": 79.583,
        "duration": 0.417,
        "velocity": 0.56,
        "hand": "left"
      },
      {
        "midi": 62,
        "time": 79.583,
        "duration": 0.402,
        "velocity": 0.56,
        "hand": "right"
      },
      {
        "midi": 62,
        "time": 80,
        "duration": 0.417,
        "velocity": 0.39,
        "hand": "right"
      },
      {
        "midi": 67,
        "time": 80.416,
        "duration": 0.417,
        "velocity": 0.52,
        "hand": "right"
      },
      {
        "midi": 69,
        "time": 80.833,
        "duration": 0.417,
        "velocity": 0.54,
        "hand": "right"
      },
      {
        "midi": 43,
        "time": 81.25,
        "duration": 0.833,
        "velocity": 0.4,
        "hand": "left"
      },
      {
        "midi": 70,
        "time": 81.25,
        "duration": 0.417,
        "velocity": 0.46,
        "hand": "right"
      },
      {
        "midi": 67,
        "time": 81.666,
        "duration": 1.667,
        "velocity": 0.42,
        "hand": "right"
      },
      {
        "midi": 50,
        "time": 82.083,
        "duration": 0.818,
        "velocity": 0.58,
        "hand": "left"
      },
      {
        "midi": 55,
        "time": 82.083,
        "duration": 0.818,
        "velocity": 0.58,
        "hand": "left"
      },
      {
        "midi": 50,
        "time": 82.916,
        "duration": 0.819,
        "velocity": 0.54,
        "hand": "left"
      },
      {
        "midi": 55,
        "time": 82.916,
        "duration": 0.819,
        "velocity": 0.54,
        "hand": "left"
      },
      {
        "midi": 62,
        "time": 83.333,
        "duration": 0.417,
        "velocity": 0.41,
        "hand": "right"
      },
      {
        "midi": 50,
        "time": 83.75,
        "duration": 0.833,
        "velocity": 0.5,
        "hand": "left"
      },
      {
        "midi": 55,
        "time": 83.75,
        "duration": 0.833,
        "velocity": 0.5,
        "hand": "left"
      },
      {
        "midi": 67,
        "time": 83.75,
        "duration": 0.417,
        "velocity": 0.54,
        "hand": "right"
      },
      {
        "midi": 69,
        "time": 84.166,
        "duration": 0.417,
        "velocity": 0.51,
        "hand": "right"
      },
      {
        "midi": 43,
        "time": 84.583,
        "duration": 0.833,
        "velocity": 0.43,
        "hand": "left"
      },
      {
        "midi": 70,
        "time": 84.583,
        "duration": 0.417,
        "velocity": 0.47,
        "hand": "right"
      },
      {
        "midi": 67,
        "time": 85,
        "duration": 1.667,
        "velocity": 0.42,
        "hand": "right"
      },
      {
        "midi": 50,
        "time": 85.416,
        "duration": 0.819,
        "velocity": 0.59,
        "hand": "left"
      },
      {
        "midi": 55,
        "time": 85.416,
        "duration": 0.819,
        "velocity": 0.59,
        "hand": "left"
      },
      {
        "midi": 50,
        "time": 86.25,
        "duration": 0.818,
        "velocity": 0.53,
        "hand": "left"
      },
      {
        "midi": 55,
        "time": 86.25,
        "duration": 0.818,
        "velocity": 0.53,
        "hand": "left"
      },
      {
        "midi": 62,
        "time": 86.666,
        "duration": 0.417,
        "velocity": 0.41,
        "hand": "right"
      },
      {
        "midi": 50,
        "time": 87.083,
        "duration": 0.833,
        "velocity": 0.53,
        "hand": "left"
      },
      {
        "midi": 55,
        "time": 87.083,
        "duration": 0.833,
        "velocity": 0.53,
        "hand": "left"
      },
      {
        "midi": 67,
        "time": 87.083,
        "duration": 0.417,
        "velocity": 0.53,
        "hand": "right"
      },
      {
        "midi": 69,
        "time": 87.5,
        "duration": 0.417,
        "velocity": 0.5,
        "hand": "right"
      },
      {
        "midi": 43,
        "time": 87.916,
        "duration": 0.833,
        "velocity": 0.39,
        "hand": "left"
      },
      {
        "midi": 70,
        "time": 87.916,
        "duration": 0.833,
        "velocity": 0.52,
        "hand": "right"
      },
      {
        "midi": 50,
        "time": 88.75,
        "duration": 0.833,
        "velocity": 0.6,
        "hand": "left"
      },
      {
        "midi": 55,
        "time": 88.75,
        "duration": 0.833,
        "velocity": 0.6,
        "hand": "left"
      },
      {
        "midi": 69,
        "time": 88.75,
        "duration": 0.417,
        "velocity": 0.43,
        "hand": "right"
      },
      {
        "midi": 67,
        "time": 89.166,
        "duration": 0.417,
        "velocity": 0.46,
        "hand": "right"
      },
      {
        "midi": 43,
        "time": 89.583,
        "duration": 0.833,
        "velocity": 0.43,
        "hand": "left"
      },
      {
        "midi": 70,
        "time": 89.583,
        "duration": 0.833,
        "velocity": 0.53,
        "hand": "right"
      },
      {
        "midi": 50,
        "time": 90.416,
        "duration": 0.833,
        "velocity": 0.56,
        "hand": "left"
      },
      {
        "midi": 55,
        "time": 90.416,
        "duration": 0.833,
        "velocity": 0.56,
        "hand": "left"
      },
      {
        "midi": 69,
        "time": 90.416,
        "duration": 0.417,
        "velocity": 0.44,
        "hand": "right"
      },
      {
        "midi": 67,
        "time": 90.833,
        "duration": 0.417,
        "velocity": 0.48,
        "hand": "right"
      },
      {
        "midi": 43,
        "time": 91.25,
        "duration": 1.25,
        "velocity": 0.54,
        "hand": "left"
      },
      {
        "midi": 74,
        "time": 91.25,
        "duration": 0.818,
        "velocity": 0.56,
        "hand": "right"
      },
      {
        "midi": 55,
        "time": 92.083,
        "duration": 0.818,
        "velocity": 0.48,
        "hand": "left"
      },
      {
        "midi": 74,
        "time": 92.083,
        "duration": 0.818,
        "velocity": 0.49,
        "hand": "right"
      },
      {
        "midi": 47,
        "time": 92.5,
        "duration": 0.417,
        "velocity": 0.63,
        "hand": "left"
      },
      {
        "midi": 50,
        "time": 92.916,
        "duration": 0.833,
        "velocity": 0.61,
        "hand": "left"
      },
      {
        "midi": 55,
        "time": 92.916,
        "duration": 0.819,
        "velocity": 0.46,
        "hand": "left"
      },
      {
        "midi": 74,
        "time": 92.916,
        "duration": 0.402,
        "velocity": 0.43,
        "hand": "right"
      },
      {
        "midi": 74,
        "time": 93.333,
        "duration": 0.417,
        "velocity": 0.48,
        "hand": "right"
      },
      {
        "midi": 53,
        "time": 93.75,
        "duration": 0.417,
        "velocity": 0.63,
        "hand": "left"
      },
      {
        "midi": 55,
        "time": 93.75,
        "duration": 0.818,
        "velocity": 0.47,
        "hand": "left"
      },
      {
        "midi": 72,
        "time": 93.75,
        "duration": 0.417,
        "velocity": 0.46,
        "hand": "right"
      },
      {
        "midi": 50,
        "time": 94.166,
        "duration": 0.417,
        "velocity": 0.57,
        "hand": "left"
      },
      {
        "midi": 74,
        "time": 94.166,
        "duration": 0.417,
        "velocity": 0.46,
        "hand": "right"
      },
      {
        "midi": 48,
        "time": 94.583,
        "duration": 0.833,
        "velocity": 0.47,
        "hand": "left"
      },
      {
        "midi": 55,
        "time": 94.583,
        "duration": 0.833,
        "velocity": 0.47,
        "hand": "left"
      },
      {
        "midi": 75,
        "time": 94.583,
        "duration": 0.402,
        "velocity": 0.51,
        "hand": "right"
      },
      {
        "midi": 75,
        "time": 95,
        "duration": 1.651,
        "velocity": 0.46,
        "hand": "right"
      },
      {
        "midi": 51,
        "time": 95.416,
        "duration": 0.833,
        "velocity": 0.54,
        "hand": "left"
      },
      {
        "midi": 60,
        "time": 95.416,
        "duration": 0.833,
        "velocity": 0.54,
        "hand": "right"
      },
      {
        "midi": 55,
        "time": 96.25,
        "duration": 0.833,
        "velocity": 0.53,
        "hand": "left"
      },
      {
        "midi": 63,
        "time": 96.25,
        "duration": 0.833,
        "velocity": 0.53,
        "hand": "right"
      },
      {
        "midi": 75,
        "time": 96.666,
        "duration": 0.417,
        "velocity": 0.46,
        "hand": "right"
      },
      {
        "midi": 51,
        "time": 97.083,
        "duration": 0.833,
        "velocity": 0.43,
        "hand": "left"
      },
      {
        "midi": 60,
        "time": 97.083,
        "duration": 0.833,
        "velocity": 0.43,
        "hand": "right"
      },
      {
        "midi": 74,
        "time": 97.083,
        "duration": 0.417,
        "velocity": 0.46,
        "hand": "right"
      },
      {
        "midi": 72,
        "time": 97.5,
        "duration": 0.417,
        "velocity": 0.44,
        "hand": "right"
      },
      {
        "midi": 43,
        "time": 97.916,
        "duration": 1.25,
        "velocity": 0.56,
        "hand": "left"
      },
      {
        "midi": 75,
        "time": 97.916,
        "duration": 0.417,
        "velocity": 0.5,
        "hand": "right"
      },
      {
        "midi": 74,
        "time": 98.333,
        "duration": 1.25,
        "velocity": 0.46,
        "hand": "right"
      },
      {
        "midi": 55,
        "time": 98.75,
        "duration": 0.833,
        "velocity": 0.43,
        "hand": "left"
      },
      {
        "midi": 46,
        "time": 99.166,
        "duration": 0.417,
        "velocity": 0.61,
        "hand": "left"
      },
      {
        "midi": 50,
        "time": 99.583,
        "duration": 0.833,
        "velocity": 0.65,
        "hand": "left"
      },
      {
        "midi": 58,
        "time": 99.583,
        "duration": 0.833,
        "velocity": 0.54,
        "hand": "left"
      },
      {
        "midi": 74,
        "time": 100,
        "duration": 0.417,
        "velocity": 0.42,
        "hand": "right"
      },
      {
        "midi": 46,
        "time": 100.416,
        "duration": 0.833,
        "velocity": 0.59,
        "hand": "left"
      },
      {
        "midi": 55,
        "time": 100.416,
        "duration": 0.833,
        "velocity": 0.53,
        "hand": "left"
      },
      {
        "midi": 72,
        "time": 100.416,
        "duration": 0.417,
        "velocity": 0.43,
        "hand": "right"
      },
      {
        "midi": 70,
        "time": 100.833,
        "duration": 0.417,
        "velocity": 0.45,
        "hand": "right"
      },
      {
        "midi": 50,
        "time": 101.25,
        "duration": 1.25,
        "velocity": 0.66,
        "hand": "left"
      },
      {
        "midi": 69,
        "time": 101.25,
        "duration": 0.833,
        "velocity": 0.45,
        "hand": "right"
      },
      {
        "midi": 54,
        "time": 102.083,
        "duration": 0.833,
        "velocity": 0.42,
        "hand": "left"
      },
      {
        "midi": 57,
        "time": 102.083,
        "duration": 0.833,
        "velocity": 0.42,
        "hand": "left"
      },
      {
        "midi": 74,
        "time": 102.083,
        "duration": 0.833,
        "velocity": 0.55,
        "hand": "right"
      },
      {
        "midi": 45,
        "time": 102.5,
        "duration": 0.417,
        "velocity": 0.56,
        "hand": "left"
      },
      {
        "midi": 50,
        "time": 102.916,
        "duration": 0.819,
        "velocity": 0.61,
        "hand": "left"
      },
      {
        "midi": 69,
        "time": 102.916,
        "duration": 0.833,
        "velocity": 0.43,
        "hand": "right"
      },
      {
        "midi": 50,
        "time": 103.75,
        "duration": 0.833,
        "velocity": 0.61,
        "hand": "left"
      },
      {
        "midi": 54,
        "time": 103.75,
        "duration": 0.833,
        "velocity": 0.44,
        "hand": "left"
      },
      {
        "midi": 70,
        "time": 103.75,
        "duration": 0.833,
        "velocity": 0.5,
        "hand": "right"
      },
      {
        "midi": 43,
        "time": 104.583,
        "duration": 1.25,
        "velocity": 0.39,
        "hand": "left"
      },
      {
        "midi": 67,
        "time": 104.583,
        "duration": 2.083,
        "velocity": 0.47,
        "hand": "right"
      },
      {
        "midi": 55,
        "time": 105.416,
        "duration": 0.819,
        "velocity": 0.54,
        "hand": "left"
      },
      {
        "midi": 58,
        "time": 105.416,
        "duration": 0.819,
        "velocity": 0.54,
        "hand": "left"
      },
      {
        "midi": 62,
        "time": 105.416,
        "duration": 0.819,
        "velocity": 0.54,
        "hand": "right"
      },
      {
        "midi": 38,
        "time": 105.833,
        "duration": 0.417,
        "velocity": 0.41,
        "hand": "left"
      },
      {
        "midi": 43,
        "time": 106.25,
        "duration": 0.417,
        "velocity": 0.56,
        "hand": "left"
      },
      {
        "midi": 55,
        "time": 106.25,
        "duration": 0.417,
        "velocity": 0.61,
        "hand": "left"
      },
      {
        "midi": 62,
        "time": 106.25,
        "duration": 0.417,
        "velocity": 0.61,
        "hand": "right"
      }
    ]
  },
  "notes1Hand": [
    {
      "midi": 62,
      "time": 0,
      "duration": 0.5,
      "velocity": 0.42,
      "hand": "right"
    },
    {
      "midi": 69,
      "time": 0.833,
      "duration": 0.5,
      "velocity": 0.51,
      "hand": "right"
    },
    {
      "midi": 67,
      "time": 1.666,
      "duration": 1.667,
      "velocity": 0.44,
      "hand": "right"
    },
    {
      "midi": 55,
      "time": 2.916,
      "duration": 0.819,
      "velocity": 0.54,
      "hand": "right"
    },
    {
      "midi": 67,
      "time": 3.75,
      "duration": 0.5,
      "velocity": 0.55,
      "hand": "right"
    },
    {
      "midi": 70,
      "time": 4.583,
      "duration": 0.5,
      "velocity": 0.49,
      "hand": "right"
    },
    {
      "midi": 55,
      "time": 5.416,
      "duration": 0.819,
      "velocity": 0.55,
      "hand": "right"
    },
    {
      "midi": 55,
      "time": 6.25,
      "duration": 0.818,
      "velocity": 0.5,
      "hand": "right"
    },
    {
      "midi": 67,
      "time": 7.083,
      "duration": 0.5,
      "velocity": 0.54,
      "hand": "right"
    },
    {
      "midi": 70,
      "time": 7.916,
      "duration": 0.833,
      "velocity": 0.52,
      "hand": "right"
    },
    {
      "midi": 69,
      "time": 8.75,
      "duration": 0.5,
      "velocity": 0.46,
      "hand": "right"
    },
    {
      "midi": 70,
      "time": 9.583,
      "duration": 0.833,
      "velocity": 0.49,
      "hand": "right"
    },
    {
      "midi": 69,
      "time": 10.416,
      "duration": 0.5,
      "velocity": 0.43,
      "hand": "right"
    },
    {
      "midi": 74,
      "time": 11.25,
      "duration": 0.818,
      "velocity": 0.54,
      "hand": "right"
    },
    {
      "midi": 74,
      "time": 12.083,
      "duration": 0.818,
      "velocity": 0.51,
      "hand": "right"
    },
    {
      "midi": 74,
      "time": 12.916,
      "duration": 0.5,
      "velocity": 0.47,
      "hand": "right"
    },
    {
      "midi": 72,
      "time": 13.75,
      "duration": 0.5,
      "velocity": 0.4,
      "hand": "right"
    },
    {
      "midi": 75,
      "time": 14.583,
      "duration": 0.5,
      "velocity": 0.52,
      "hand": "right"
    },
    {
      "midi": 60,
      "time": 15.416,
      "duration": 0.833,
      "velocity": 0.54,
      "hand": "right"
    },
    {
      "midi": 63,
      "time": 16.25,
      "duration": 0.833,
      "velocity": 0.53,
      "hand": "right"
    },
    {
      "midi": 74,
      "time": 17.083,
      "duration": 0.5,
      "velocity": 0.48,
      "hand": "right"
    },
    {
      "midi": 75,
      "time": 17.916,
      "duration": 0.5,
      "velocity": 0.51,
      "hand": "right"
    },
    {
      "midi": 55,
      "time": 18.75,
      "duration": 0.833,
      "velocity": 0.43,
      "hand": "right"
    },
    {
      "midi": 58,
      "time": 19.583,
      "duration": 0.833,
      "velocity": 0.54,
      "hand": "right"
    },
    {
      "midi": 72,
      "time": 20.416,
      "duration": 0.5,
      "velocity": 0.46,
      "hand": "right"
    },
    {
      "midi": 69,
      "time": 21.25,
      "duration": 0.833,
      "velocity": 0.46,
      "hand": "right"
    },
    {
      "midi": 74,
      "time": 22.083,
      "duration": 0.833,
      "velocity": 0.54,
      "hand": "right"
    },
    {
      "midi": 69,
      "time": 22.916,
      "duration": 0.833,
      "velocity": 0.44,
      "hand": "right"
    },
    {
      "midi": 70,
      "time": 23.75,
      "duration": 0.833,
      "velocity": 0.48,
      "hand": "right"
    },
    {
      "midi": 67,
      "time": 24.583,
      "duration": 2.083,
      "velocity": 0.45,
      "hand": "right"
    },
    {
      "midi": 62,
      "time": 25.416,
      "duration": 0.819,
      "velocity": 0.58,
      "hand": "right"
    },
    {
      "midi": 62,
      "time": 26.25,
      "duration": 0.5,
      "velocity": 0.61,
      "hand": "right"
    },
    {
      "midi": 67,
      "time": 27.083,
      "duration": 0.5,
      "velocity": 0.51,
      "hand": "right"
    },
    {
      "midi": 70,
      "time": 27.916,
      "duration": 0.5,
      "velocity": 0.54,
      "hand": "right"
    },
    {
      "midi": 55,
      "time": 28.75,
      "duration": 0.818,
      "velocity": 0.61,
      "hand": "right"
    },
    {
      "midi": 55,
      "time": 29.583,
      "duration": 0.818,
      "velocity": 0.51,
      "hand": "right"
    },
    {
      "midi": 67,
      "time": 30.416,
      "duration": 0.5,
      "velocity": 0.52,
      "hand": "right"
    },
    {
      "midi": 70,
      "time": 31.25,
      "duration": 0.5,
      "velocity": 0.52,
      "hand": "right"
    },
    {
      "midi": 55,
      "time": 32.083,
      "duration": 0.818,
      "velocity": 0.59,
      "hand": "right"
    },
    {
      "midi": 55,
      "time": 32.916,
      "duration": 0.819,
      "velocity": 0.54,
      "hand": "right"
    },
    {
      "midi": 67,
      "time": 33.75,
      "duration": 0.5,
      "velocity": 0.55,
      "hand": "right"
    },
    {
      "midi": 70,
      "time": 34.583,
      "duration": 0.833,
      "velocity": 0.5,
      "hand": "right"
    },
    {
      "midi": 69,
      "time": 35.416,
      "duration": 0.5,
      "velocity": 0.43,
      "hand": "right"
    },
    {
      "midi": 70,
      "time": 36.25,
      "duration": 0.833,
      "velocity": 0.5,
      "hand": "right"
    },
    {
      "midi": 69,
      "time": 37.083,
      "duration": 0.5,
      "velocity": 0.47,
      "hand": "right"
    },
    {
      "midi": 74,
      "time": 37.916,
      "duration": 0.819,
      "velocity": 0.54,
      "hand": "right"
    },
    {
      "midi": 74,
      "time": 38.75,
      "duration": 0.818,
      "velocity": 0.46,
      "hand": "right"
    },
    {
      "midi": 74,
      "time": 39.583,
      "duration": 0.5,
      "velocity": 0.46,
      "hand": "right"
    },
    {
      "midi": 72,
      "time": 40.416,
      "duration": 0.5,
      "velocity": 0.44,
      "hand": "right"
    },
    {
      "midi": 75,
      "time": 41.25,
      "duration": 0.5,
      "velocity": 0.54,
      "hand": "right"
    },
    {
      "midi": 60,
      "time": 42.083,
      "duration": 0.833,
      "velocity": 0.51,
      "hand": "right"
    },
    {
      "midi": 63,
      "time": 42.916,
      "duration": 0.833,
      "velocity": 0.54,
      "hand": "right"
    },
    {
      "midi": 74,
      "time": 43.75,
      "duration": 0.5,
      "velocity": 0.44,
      "hand": "right"
    },
    {
      "midi": 75,
      "time": 44.583,
      "duration": 0.5,
      "velocity": 0.52,
      "hand": "right"
    },
    {
      "midi": 55,
      "time": 45.416,
      "duration": 0.833,
      "velocity": 0.43,
      "hand": "right"
    },
    {
      "midi": 58,
      "time": 46.25,
      "duration": 0.833,
      "velocity": 0.54,
      "hand": "right"
    },
    {
      "midi": 72,
      "time": 47.083,
      "duration": 0.5,
      "velocity": 0.45,
      "hand": "right"
    },
    {
      "midi": 69,
      "time": 47.916,
      "duration": 0.833,
      "velocity": 0.44,
      "hand": "right"
    },
    {
      "midi": 74,
      "time": 48.75,
      "duration": 0.833,
      "velocity": 0.53,
      "hand": "right"
    },
    {
      "midi": 69,
      "time": 49.583,
      "duration": 0.833,
      "velocity": 0.43,
      "hand": "right"
    },
    {
      "midi": 70,
      "time": 50.416,
      "duration": 0.833,
      "velocity": 0.49,
      "hand": "right"
    },
    {
      "midi": 67,
      "time": 51.25,
      "duration": 2.083,
      "velocity": 0.44,
      "hand": "right"
    },
    {
      "midi": 62,
      "time": 52.083,
      "duration": 0.818,
      "velocity": 0.52,
      "hand": "right"
    },
    {
      "midi": 62,
      "time": 52.916,
      "duration": 0.5,
      "velocity": 0.57,
      "hand": "right"
    },
    {
      "midi": 67,
      "time": 53.75,
      "duration": 0.5,
      "velocity": 0.53,
      "hand": "right"
    },
    {
      "midi": 70,
      "time": 54.583,
      "duration": 0.5,
      "velocity": 0.49,
      "hand": "right"
    },
    {
      "midi": 55,
      "time": 55.416,
      "duration": 0.819,
      "velocity": 0.6,
      "hand": "right"
    },
    {
      "midi": 55,
      "time": 56.25,
      "duration": 0.818,
      "velocity": 0.53,
      "hand": "right"
    },
    {
      "midi": 67,
      "time": 57.083,
      "duration": 0.5,
      "velocity": 0.54,
      "hand": "right"
    },
    {
      "midi": 70,
      "time": 57.916,
      "duration": 0.5,
      "velocity": 0.5,
      "hand": "right"
    },
    {
      "midi": 55,
      "time": 58.75,
      "duration": 0.818,
      "velocity": 0.57,
      "hand": "right"
    },
    {
      "midi": 55,
      "time": 59.583,
      "duration": 0.818,
      "velocity": 0.54,
      "hand": "right"
    },
    {
      "midi": 67,
      "time": 60.416,
      "duration": 0.5,
      "velocity": 0.53,
      "hand": "right"
    },
    {
      "midi": 70,
      "time": 61.25,
      "duration": 0.833,
      "velocity": 0.51,
      "hand": "right"
    },
    {
      "midi": 69,
      "time": 62.083,
      "duration": 0.5,
      "velocity": 0.5,
      "hand": "right"
    },
    {
      "midi": 70,
      "time": 62.916,
      "duration": 0.833,
      "velocity": 0.52,
      "hand": "right"
    },
    {
      "midi": 69,
      "time": 63.75,
      "duration": 0.5,
      "velocity": 0.49,
      "hand": "right"
    },
    {
      "midi": 74,
      "time": 64.583,
      "duration": 0.818,
      "velocity": 0.58,
      "hand": "right"
    },
    {
      "midi": 74,
      "time": 65.416,
      "duration": 0.819,
      "velocity": 0.49,
      "hand": "right"
    },
    {
      "midi": 74,
      "time": 66.25,
      "duration": 0.5,
      "velocity": 0.52,
      "hand": "right"
    },
    {
      "midi": 72,
      "time": 67.083,
      "duration": 0.5,
      "velocity": 0.46,
      "hand": "right"
    },
    {
      "midi": 75,
      "time": 67.916,
      "duration": 0.5,
      "velocity": 0.5,
      "hand": "right"
    },
    {
      "midi": 60,
      "time": 68.75,
      "duration": 0.833,
      "velocity": 0.56,
      "hand": "right"
    },
    {
      "midi": 63,
      "time": 69.583,
      "duration": 0.833,
      "velocity": 0.52,
      "hand": "right"
    },
    {
      "midi": 74,
      "time": 70.416,
      "duration": 0.5,
      "velocity": 0.49,
      "hand": "right"
    },
    {
      "midi": 75,
      "time": 71.25,
      "duration": 0.5,
      "velocity": 0.51,
      "hand": "right"
    },
    {
      "midi": 55,
      "time": 72.083,
      "duration": 0.833,
      "velocity": 0.5,
      "hand": "right"
    },
    {
      "midi": 58,
      "time": 72.916,
      "duration": 0.833,
      "velocity": 0.56,
      "hand": "right"
    },
    {
      "midi": 72,
      "time": 73.75,
      "duration": 0.5,
      "velocity": 0.47,
      "hand": "right"
    },
    {
      "midi": 69,
      "time": 74.583,
      "duration": 0.833,
      "velocity": 0.45,
      "hand": "right"
    },
    {
      "midi": 74,
      "time": 75.416,
      "duration": 0.833,
      "velocity": 0.5,
      "hand": "right"
    },
    {
      "midi": 69,
      "time": 76.25,
      "duration": 0.833,
      "velocity": 0.46,
      "hand": "right"
    },
    {
      "midi": 70,
      "time": 77.083,
      "duration": 0.833,
      "velocity": 0.5,
      "hand": "right"
    },
    {
      "midi": 67,
      "time": 77.916,
      "duration": 2.083,
      "velocity": 0.43,
      "hand": "right"
    },
    {
      "midi": 62,
      "time": 78.75,
      "duration": 0.818,
      "velocity": 0.55,
      "hand": "right"
    },
    {
      "midi": 62,
      "time": 79.583,
      "duration": 0.5,
      "velocity": 0.56,
      "hand": "right"
    },
    {
      "midi": 67,
      "time": 80.416,
      "duration": 0.5,
      "velocity": 0.52,
      "hand": "right"
    },
    {
      "midi": 70,
      "time": 81.25,
      "duration": 0.5,
      "velocity": 0.46,
      "hand": "right"
    },
    {
      "midi": 55,
      "time": 82.083,
      "duration": 0.818,
      "velocity": 0.58,
      "hand": "right"
    },
    {
      "midi": 55,
      "time": 82.916,
      "duration": 0.819,
      "velocity": 0.54,
      "hand": "right"
    },
    {
      "midi": 67,
      "time": 83.75,
      "duration": 0.5,
      "velocity": 0.54,
      "hand": "right"
    },
    {
      "midi": 70,
      "time": 84.583,
      "duration": 0.5,
      "velocity": 0.47,
      "hand": "right"
    },
    {
      "midi": 55,
      "time": 85.416,
      "duration": 0.819,
      "velocity": 0.59,
      "hand": "right"
    },
    {
      "midi": 55,
      "time": 86.25,
      "duration": 0.818,
      "velocity": 0.53,
      "hand": "right"
    },
    {
      "midi": 67,
      "time": 87.083,
      "duration": 0.5,
      "velocity": 0.53,
      "hand": "right"
    },
    {
      "midi": 70,
      "time": 87.916,
      "duration": 0.833,
      "velocity": 0.52,
      "hand": "right"
    },
    {
      "midi": 69,
      "time": 88.75,
      "duration": 0.5,
      "velocity": 0.43,
      "hand": "right"
    },
    {
      "midi": 70,
      "time": 89.583,
      "duration": 0.833,
      "velocity": 0.53,
      "hand": "right"
    },
    {
      "midi": 69,
      "time": 90.416,
      "duration": 0.5,
      "velocity": 0.44,
      "hand": "right"
    },
    {
      "midi": 74,
      "time": 91.25,
      "duration": 0.818,
      "velocity": 0.56,
      "hand": "right"
    },
    {
      "midi": 74,
      "time": 92.083,
      "duration": 0.818,
      "velocity": 0.49,
      "hand": "right"
    },
    {
      "midi": 74,
      "time": 92.916,
      "duration": 0.5,
      "velocity": 0.43,
      "hand": "right"
    },
    {
      "midi": 72,
      "time": 93.75,
      "duration": 0.5,
      "velocity": 0.46,
      "hand": "right"
    },
    {
      "midi": 75,
      "time": 94.583,
      "duration": 0.5,
      "velocity": 0.51,
      "hand": "right"
    },
    {
      "midi": 60,
      "time": 95.416,
      "duration": 0.833,
      "velocity": 0.54,
      "hand": "right"
    },
    {
      "midi": 63,
      "time": 96.25,
      "duration": 0.833,
      "velocity": 0.53,
      "hand": "right"
    },
    {
      "midi": 74,
      "time": 97.083,
      "duration": 0.5,
      "velocity": 0.46,
      "hand": "right"
    },
    {
      "midi": 75,
      "time": 97.916,
      "duration": 0.5,
      "velocity": 0.5,
      "hand": "right"
    },
    {
      "midi": 55,
      "time": 98.75,
      "duration": 0.833,
      "velocity": 0.43,
      "hand": "right"
    },
    {
      "midi": 58,
      "time": 99.583,
      "duration": 0.833,
      "velocity": 0.54,
      "hand": "right"
    },
    {
      "midi": 72,
      "time": 100.416,
      "duration": 0.5,
      "velocity": 0.43,
      "hand": "right"
    },
    {
      "midi": 69,
      "time": 101.25,
      "duration": 0.833,
      "velocity": 0.45,
      "hand": "right"
    },
    {
      "midi": 74,
      "time": 102.083,
      "duration": 0.833,
      "velocity": 0.55,
      "hand": "right"
    },
    {
      "midi": 69,
      "time": 102.916,
      "duration": 0.833,
      "velocity": 0.43,
      "hand": "right"
    },
    {
      "midi": 70,
      "time": 103.75,
      "duration": 0.833,
      "velocity": 0.5,
      "hand": "right"
    },
    {
      "midi": 67,
      "time": 104.583,
      "duration": 2.083,
      "velocity": 0.47,
      "hand": "right"
    },
    {
      "midi": 62,
      "time": 105.416,
      "duration": 0.819,
      "velocity": 0.54,
      "hand": "right"
    },
    {
      "midi": 62,
      "time": 106.25,
      "duration": 0.5,
      "velocity": 0.61,
      "hand": "right"
    }
  ],
  "notes2Hands": [
    {
      "midi": 62,
      "time": 0,
      "duration": 0.417,
      "velocity": 0.42,
      "hand": "right"
    },
    {
      "midi": 67,
      "time": 0.416,
      "duration": 0.417,
      "velocity": 0.52,
      "hand": "right"
    },
    {
      "midi": 69,
      "time": 0.833,
      "duration": 0.417,
      "velocity": 0.51,
      "hand": "right"
    },
    {
      "midi": 43,
      "time": 1.25,
      "duration": 0.833,
      "velocity": 0.44,
      "hand": "left"
    },
    {
      "midi": 70,
      "time": 1.25,
      "duration": 0.417,
      "velocity": 0.51,
      "hand": "right"
    },
    {
      "midi": 67,
      "time": 1.666,
      "duration": 1.667,
      "velocity": 0.44,
      "hand": "right"
    },
    {
      "midi": 50,
      "time": 2.083,
      "duration": 0.818,
      "velocity": 0.6,
      "hand": "left"
    },
    {
      "midi": 55,
      "time": 2.083,
      "duration": 0.818,
      "velocity": 0.6,
      "hand": "left"
    },
    {
      "midi": 50,
      "time": 2.916,
      "duration": 0.819,
      "velocity": 0.54,
      "hand": "left"
    },
    {
      "midi": 55,
      "time": 2.916,
      "duration": 0.819,
      "velocity": 0.54,
      "hand": "left"
    },
    {
      "midi": 62,
      "time": 3.333,
      "duration": 0.417,
      "velocity": 0.42,
      "hand": "right"
    },
    {
      "midi": 50,
      "time": 3.75,
      "duration": 0.833,
      "velocity": 0.49,
      "hand": "left"
    },
    {
      "midi": 55,
      "time": 3.75,
      "duration": 0.833,
      "velocity": 0.49,
      "hand": "left"
    },
    {
      "midi": 67,
      "time": 3.75,
      "duration": 0.417,
      "velocity": 0.55,
      "hand": "right"
    },
    {
      "midi": 69,
      "time": 4.166,
      "duration": 0.417,
      "velocity": 0.5,
      "hand": "right"
    },
    {
      "midi": 43,
      "time": 4.583,
      "duration": 0.833,
      "velocity": 0.42,
      "hand": "left"
    },
    {
      "midi": 70,
      "time": 4.583,
      "duration": 0.417,
      "velocity": 0.49,
      "hand": "right"
    },
    {
      "midi": 67,
      "time": 5,
      "duration": 1.667,
      "velocity": 0.48,
      "hand": "right"
    },
    {
      "midi": 50,
      "time": 5.416,
      "duration": 0.819,
      "velocity": 0.55,
      "hand": "left"
    },
    {
      "midi": 55,
      "time": 5.416,
      "duration": 0.819,
      "velocity": 0.55,
      "hand": "left"
    },
    {
      "midi": 50,
      "time": 6.25,
      "duration": 0.818,
      "velocity": 0.5,
      "hand": "left"
    },
    {
      "midi": 55,
      "time": 6.25,
      "duration": 0.818,
      "velocity": 0.5,
      "hand": "left"
    },
    {
      "midi": 62,
      "time": 6.666,
      "duration": 0.417,
      "velocity": 0.41,
      "hand": "right"
    },
    {
      "midi": 50,
      "time": 7.083,
      "duration": 0.833,
      "velocity": 0.49,
      "hand": "left"
    },
    {
      "midi": 55,
      "time": 7.083,
      "duration": 0.833,
      "velocity": 0.49,
      "hand": "left"
    },
    {
      "midi": 67,
      "time": 7.083,
      "duration": 0.417,
      "velocity": 0.54,
      "hand": "right"
    },
    {
      "midi": 69,
      "time": 7.5,
      "duration": 0.417,
      "velocity": 0.53,
      "hand": "right"
    },
    {
      "midi": 43,
      "time": 7.916,
      "duration": 0.833,
      "velocity": 0.42,
      "hand": "left"
    },
    {
      "midi": 70,
      "time": 7.916,
      "duration": 0.833,
      "velocity": 0.52,
      "hand": "right"
    },
    {
      "midi": 50,
      "time": 8.75,
      "duration": 0.833,
      "velocity": 0.56,
      "hand": "left"
    },
    {
      "midi": 55,
      "time": 8.75,
      "duration": 0.833,
      "velocity": 0.56,
      "hand": "left"
    },
    {
      "midi": 69,
      "time": 8.75,
      "duration": 0.417,
      "velocity": 0.46,
      "hand": "right"
    },
    {
      "midi": 67,
      "time": 9.166,
      "duration": 0.417,
      "velocity": 0.46,
      "hand": "right"
    },
    {
      "midi": 43,
      "time": 9.583,
      "duration": 0.833,
      "velocity": 0.41,
      "hand": "left"
    },
    {
      "midi": 70,
      "time": 9.583,
      "duration": 0.833,
      "velocity": 0.49,
      "hand": "right"
    },
    {
      "midi": 50,
      "time": 10.416,
      "duration": 0.833,
      "velocity": 0.6,
      "hand": "left"
    },
    {
      "midi": 55,
      "time": 10.416,
      "duration": 0.833,
      "velocity": 0.6,
      "hand": "left"
    },
    {
      "midi": 69,
      "time": 10.416,
      "duration": 0.417,
      "velocity": 0.43,
      "hand": "right"
    },
    {
      "midi": 67,
      "time": 10.833,
      "duration": 0.417,
      "velocity": 0.5,
      "hand": "right"
    },
    {
      "midi": 43,
      "time": 11.25,
      "duration": 1.25,
      "velocity": 0.53,
      "hand": "left"
    },
    {
      "midi": 74,
      "time": 11.25,
      "duration": 0.818,
      "velocity": 0.54,
      "hand": "right"
    },
    {
      "midi": 55,
      "time": 12.083,
      "duration": 0.818,
      "velocity": 0.48,
      "hand": "left"
    },
    {
      "midi": 74,
      "time": 12.083,
      "duration": 0.818,
      "velocity": 0.51,
      "hand": "right"
    },
    {
      "midi": 47,
      "time": 12.5,
      "duration": 0.417,
      "velocity": 0.63,
      "hand": "left"
    },
    {
      "midi": 50,
      "time": 12.916,
      "duration": 0.833,
      "velocity": 0.63,
      "hand": "left"
    },
    {
      "midi": 55,
      "time": 12.916,
      "duration": 0.819,
      "velocity": 0.5,
      "hand": "left"
    },
    {
      "midi": 74,
      "time": 12.916,
      "duration": 0.402,
      "velocity": 0.47,
      "hand": "right"
    },
    {
      "midi": 74,
      "time": 13.333,
      "duration": 0.417,
      "velocity": 0.48,
      "hand": "right"
    },
    {
      "midi": 53,
      "time": 13.75,
      "duration": 0.417,
      "velocity": 0.64,
      "hand": "left"
    },
    {
      "midi": 55,
      "time": 13.75,
      "duration": 0.818,
      "velocity": 0.43,
      "hand": "left"
    },
    {
      "midi": 72,
      "time": 13.75,
      "duration": 0.417,
      "velocity": 0.4,
      "hand": "right"
    },
    {
      "midi": 50,
      "time": 14.166,
      "duration": 0.417,
      "velocity": 0.55,
      "hand": "left"
    },
    {
      "midi": 74,
      "time": 14.166,
      "duration": 0.417,
      "velocity": 0.54,
      "hand": "right"
    },
    {
      "midi": 48,
      "time": 14.583,
      "duration": 0.833,
      "velocity": 0.5,
      "hand": "left"
    },
    {
      "midi": 55,
      "time": 14.583,
      "duration": 0.833,
      "velocity": 0.5,
      "hand": "left"
    },
    {
      "midi": 75,
      "time": 14.583,
      "duration": 0.402,
      "velocity": 0.52,
      "hand": "right"
    },
    {
      "midi": 75,
      "time": 15,
      "duration": 1.651,
      "velocity": 0.46,
      "hand": "right"
    },
    {
      "midi": 51,
      "time": 15.416,
      "duration": 0.833,
      "velocity": 0.54,
      "hand": "left"
    },
    {
      "midi": 60,
      "time": 15.416,
      "duration": 0.833,
      "velocity": 0.54,
      "hand": "right"
    },
    {
      "midi": 55,
      "time": 16.25,
      "duration": 0.833,
      "velocity": 0.53,
      "hand": "left"
    },
    {
      "midi": 63,
      "time": 16.25,
      "duration": 0.833,
      "velocity": 0.53,
      "hand": "right"
    },
    {
      "midi": 75,
      "time": 16.666,
      "duration": 0.417,
      "velocity": 0.47,
      "hand": "right"
    },
    {
      "midi": 51,
      "time": 17.083,
      "duration": 0.833,
      "velocity": 0.47,
      "hand": "left"
    },
    {
      "midi": 60,
      "time": 17.083,
      "duration": 0.833,
      "velocity": 0.47,
      "hand": "right"
    },
    {
      "midi": 74,
      "time": 17.083,
      "duration": 0.417,
      "velocity": 0.48,
      "hand": "right"
    },
    {
      "midi": 72,
      "time": 17.5,
      "duration": 0.417,
      "velocity": 0.43,
      "hand": "right"
    },
    {
      "midi": 43,
      "time": 17.916,
      "duration": 1.25,
      "velocity": 0.54,
      "hand": "left"
    },
    {
      "midi": 75,
      "time": 17.916,
      "duration": 0.417,
      "velocity": 0.51,
      "hand": "right"
    },
    {
      "midi": 74,
      "time": 18.333,
      "duration": 1.25,
      "velocity": 0.46,
      "hand": "right"
    },
    {
      "midi": 55,
      "time": 18.75,
      "duration": 0.833,
      "velocity": 0.43,
      "hand": "left"
    },
    {
      "midi": 46,
      "time": 19.166,
      "duration": 0.417,
      "velocity": 0.58,
      "hand": "left"
    },
    {
      "midi": 50,
      "time": 19.583,
      "duration": 0.833,
      "velocity": 0.65,
      "hand": "left"
    },
    {
      "midi": 58,
      "time": 19.583,
      "duration": 0.833,
      "velocity": 0.54,
      "hand": "left"
    },
    {
      "midi": 74,
      "time": 20,
      "duration": 0.417,
      "velocity": 0.38,
      "hand": "right"
    },
    {
      "midi": 46,
      "time": 20.416,
      "duration": 0.833,
      "velocity": 0.61,
      "hand": "left"
    },
    {
      "midi": 55,
      "time": 20.416,
      "duration": 0.833,
      "velocity": 0.51,
      "hand": "left"
    },
    {
      "midi": 72,
      "time": 20.416,
      "duration": 0.417,
      "velocity": 0.46,
      "hand": "right"
    },
    {
      "midi": 70,
      "time": 20.833,
      "duration": 0.417,
      "velocity": 0.44,
      "hand": "right"
    },
    {
      "midi": 50,
      "time": 21.25,
      "duration": 1.25,
      "velocity": 0.62,
      "hand": "left"
    },
    {
      "midi": 69,
      "time": 21.25,
      "duration": 0.833,
      "velocity": 0.46,
      "hand": "right"
    },
    {
      "midi": 54,
      "time": 22.083,
      "duration": 0.833,
      "velocity": 0.41,
      "hand": "left"
    },
    {
      "midi": 57,
      "time": 22.083,
      "duration": 0.833,
      "velocity": 0.41,
      "hand": "left"
    },
    {
      "midi": 74,
      "time": 22.083,
      "duration": 0.833,
      "velocity": 0.54,
      "hand": "right"
    },
    {
      "midi": 45,
      "time": 22.5,
      "duration": 0.417,
      "velocity": 0.59,
      "hand": "left"
    },
    {
      "midi": 50,
      "time": 22.916,
      "duration": 0.819,
      "velocity": 0.62,
      "hand": "left"
    },
    {
      "midi": 69,
      "time": 22.916,
      "duration": 0.833,
      "velocity": 0.44,
      "hand": "right"
    },
    {
      "midi": 50,
      "time": 23.75,
      "duration": 0.833,
      "velocity": 0.62,
      "hand": "left"
    },
    {
      "midi": 54,
      "time": 23.75,
      "duration": 0.833,
      "velocity": 0.41,
      "hand": "left"
    },
    {
      "midi": 70,
      "time": 23.75,
      "duration": 0.833,
      "velocity": 0.48,
      "hand": "right"
    },
    {
      "midi": 43,
      "time": 24.583,
      "duration": 1.25,
      "velocity": 0.38,
      "hand": "left"
    },
    {
      "midi": 67,
      "time": 24.583,
      "duration": 2.083,
      "velocity": 0.45,
      "hand": "right"
    },
    {
      "midi": 55,
      "time": 25.416,
      "duration": 0.819,
      "velocity": 0.58,
      "hand": "left"
    },
    {
      "midi": 58,
      "time": 25.416,
      "duration": 0.819,
      "velocity": 0.58,
      "hand": "left"
    },
    {
      "midi": 62,
      "time": 25.416,
      "duration": 0.819,
      "velocity": 0.58,
      "hand": "right"
    },
    {
      "midi": 38,
      "time": 25.833,
      "duration": 0.417,
      "velocity": 0.44,
      "hand": "left"
    },
    {
      "midi": 43,
      "time": 26.25,
      "duration": 0.417,
      "velocity": 0.55,
      "hand": "left"
    },
    {
      "midi": 55,
      "time": 26.25,
      "duration": 0.417,
      "velocity": 0.61,
      "hand": "left"
    },
    {
      "midi": 62,
      "time": 26.25,
      "duration": 0.401,
      "velocity": 0.61,
      "hand": "right"
    },
    {
      "midi": 62,
      "time": 26.666,
      "duration": 0.417,
      "velocity": 0.41,
      "hand": "right"
    },
    {
      "midi": 67,
      "time": 27.083,
      "duration": 0.417,
      "velocity": 0.51,
      "hand": "right"
    },
    {
      "midi": 69,
      "time": 27.5,
      "duration": 0.417,
      "velocity": 0.51,
      "hand": "right"
    },
    {
      "midi": 43,
      "time": 27.916,
      "duration": 0.833,
      "velocity": 0.46,
      "hand": "left"
    },
    {
      "midi": 70,
      "time": 27.916,
      "duration": 0.417,
      "velocity": 0.54,
      "hand": "right"
    },
    {
      "midi": 67,
      "time": 28.333,
      "duration": 1.667,
      "velocity": 0.46,
      "hand": "right"
    },
    {
      "midi": 50,
      "time": 28.75,
      "duration": 0.818,
      "velocity": 0.61,
      "hand": "left"
    },
    {
      "midi": 55,
      "time": 28.75,
      "duration": 0.818,
      "velocity": 0.61,
      "hand": "left"
    },
    {
      "midi": 50,
      "time": 29.583,
      "duration": 0.818,
      "velocity": 0.51,
      "hand": "left"
    },
    {
      "midi": 55,
      "time": 29.583,
      "duration": 0.818,
      "velocity": 0.51,
      "hand": "left"
    },
    {
      "midi": 62,
      "time": 30,
      "duration": 0.417,
      "velocity": 0.43,
      "hand": "right"
    },
    {
      "midi": 50,
      "time": 30.416,
      "duration": 0.833,
      "velocity": 0.55,
      "hand": "left"
    },
    {
      "midi": 55,
      "time": 30.416,
      "duration": 0.833,
      "velocity": 0.55,
      "hand": "left"
    },
    {
      "midi": 67,
      "time": 30.416,
      "duration": 0.417,
      "velocity": 0.52,
      "hand": "right"
    },
    {
      "midi": 69,
      "time": 30.833,
      "duration": 0.417,
      "velocity": 0.5,
      "hand": "right"
    },
    {
      "midi": 43,
      "time": 31.25,
      "duration": 0.833,
      "velocity": 0.43,
      "hand": "left"
    },
    {
      "midi": 70,
      "time": 31.25,
      "duration": 0.417,
      "velocity": 0.52,
      "hand": "right"
    },
    {
      "midi": 67,
      "time": 31.666,
      "duration": 1.667,
      "velocity": 0.43,
      "hand": "right"
    },
    {
      "midi": 50,
      "time": 32.083,
      "duration": 0.818,
      "velocity": 0.59,
      "hand": "left"
    },
    {
      "midi": 55,
      "time": 32.083,
      "duration": 0.818,
      "velocity": 0.59,
      "hand": "left"
    },
    {
      "midi": 50,
      "time": 32.916,
      "duration": 0.819,
      "velocity": 0.54,
      "hand": "left"
    },
    {
      "midi": 55,
      "time": 32.916,
      "duration": 0.819,
      "velocity": 0.54,
      "hand": "left"
    },
    {
      "midi": 62,
      "time": 33.333,
      "duration": 0.417,
      "velocity": 0.43,
      "hand": "right"
    },
    {
      "midi": 50,
      "time": 33.75,
      "duration": 0.833,
      "velocity": 0.53,
      "hand": "left"
    },
    {
      "midi": 55,
      "time": 33.75,
      "duration": 0.833,
      "velocity": 0.53,
      "hand": "left"
    },
    {
      "midi": 67,
      "time": 33.75,
      "duration": 0.417,
      "velocity": 0.55,
      "hand": "right"
    },
    {
      "midi": 69,
      "time": 34.166,
      "duration": 0.417,
      "velocity": 0.54,
      "hand": "right"
    },
    {
      "midi": 43,
      "time": 34.583,
      "duration": 0.833,
      "velocity": 0.43,
      "hand": "left"
    },
    {
      "midi": 70,
      "time": 34.583,
      "duration": 0.833,
      "velocity": 0.5,
      "hand": "right"
    },
    {
      "midi": 50,
      "time": 35.416,
      "duration": 0.833,
      "velocity": 0.57,
      "hand": "left"
    },
    {
      "midi": 55,
      "time": 35.416,
      "duration": 0.833,
      "velocity": 0.57,
      "hand": "left"
    },
    {
      "midi": 69,
      "time": 35.416,
      "duration": 0.417,
      "velocity": 0.43,
      "hand": "right"
    },
    {
      "midi": 67,
      "time": 35.833,
      "duration": 0.417,
      "velocity": 0.42,
      "hand": "right"
    },
    {
      "midi": 43,
      "time": 36.25,
      "duration": 0.833,
      "velocity": 0.44,
      "hand": "left"
    },
    {
      "midi": 70,
      "time": 36.25,
      "duration": 0.833,
      "velocity": 0.5,
      "hand": "right"
    },
    {
      "midi": 50,
      "time": 37.083,
      "duration": 0.833,
      "velocity": 0.6,
      "hand": "left"
    },
    {
      "midi": 55,
      "time": 37.083,
      "duration": 0.833,
      "velocity": 0.6,
      "hand": "left"
    },
    {
      "midi": 69,
      "time": 37.083,
      "duration": 0.417,
      "velocity": 0.47,
      "hand": "right"
    },
    {
      "midi": 67,
      "time": 37.5,
      "duration": 0.417,
      "velocity": 0.4,
      "hand": "right"
    },
    {
      "midi": 43,
      "time": 37.916,
      "duration": 1.25,
      "velocity": 0.57,
      "hand": "left"
    },
    {
      "midi": 74,
      "time": 37.916,
      "duration": 0.819,
      "velocity": 0.54,
      "hand": "right"
    },
    {
      "midi": 55,
      "time": 38.75,
      "duration": 0.818,
      "velocity": 0.46,
      "hand": "left"
    },
    {
      "midi": 74,
      "time": 38.75,
      "duration": 0.818,
      "velocity": 0.46,
      "hand": "right"
    },
    {
      "midi": 47,
      "time": 39.166,
      "duration": 0.417,
      "velocity": 0.62,
      "hand": "left"
    },
    {
      "midi": 50,
      "time": 39.583,
      "duration": 0.833,
      "velocity": 0.61,
      "hand": "left"
    },
    {
      "midi": 55,
      "time": 39.583,
      "duration": 0.818,
      "velocity": 0.46,
      "hand": "left"
    },
    {
      "midi": 74,
      "time": 39.583,
      "duration": 0.402,
      "velocity": 0.46,
      "hand": "right"
    },
    {
      "midi": 74,
      "time": 40,
      "duration": 0.417,
      "velocity": 0.47,
      "hand": "right"
    },
    {
      "midi": 53,
      "time": 40.416,
      "duration": 0.417,
      "velocity": 0.65,
      "hand": "left"
    },
    {
      "midi": 55,
      "time": 40.416,
      "duration": 0.819,
      "velocity": 0.5,
      "hand": "left"
    },
    {
      "midi": 72,
      "time": 40.416,
      "duration": 0.417,
      "velocity": 0.44,
      "hand": "right"
    },
    {
      "midi": 50,
      "time": 40.833,
      "duration": 0.417,
      "velocity": 0.57,
      "hand": "left"
    },
    {
      "midi": 74,
      "time": 40.833,
      "duration": 0.417,
      "velocity": 0.51,
      "hand": "right"
    },
    {
      "midi": 48,
      "time": 41.25,
      "duration": 0.833,
      "velocity": 0.46,
      "hand": "left"
    },
    {
      "midi": 55,
      "time": 41.25,
      "duration": 0.833,
      "velocity": 0.46,
      "hand": "left"
    },
    {
      "midi": 75,
      "time": 41.25,
      "duration": 0.401,
      "velocity": 0.54,
      "hand": "right"
    },
    {
      "midi": 75,
      "time": 41.666,
      "duration": 1.652,
      "velocity": 0.48,
      "hand": "right"
    },
    {
      "midi": 51,
      "time": 42.083,
      "duration": 0.833,
      "velocity": 0.51,
      "hand": "left"
    },
    {
      "midi": 60,
      "time": 42.083,
      "duration": 0.833,
      "velocity": 0.51,
      "hand": "right"
    },
    {
      "midi": 55,
      "time": 42.916,
      "duration": 0.833,
      "velocity": 0.54,
      "hand": "left"
    },
    {
      "midi": 63,
      "time": 42.916,
      "duration": 0.833,
      "velocity": 0.54,
      "hand": "right"
    },
    {
      "midi": 75,
      "time": 43.333,
      "duration": 0.417,
      "velocity": 0.5,
      "hand": "right"
    },
    {
      "midi": 51,
      "time": 43.75,
      "duration": 0.833,
      "velocity": 0.43,
      "hand": "left"
    },
    {
      "midi": 60,
      "time": 43.75,
      "duration": 0.833,
      "velocity": 0.43,
      "hand": "right"
    },
    {
      "midi": 74,
      "time": 43.75,
      "duration": 0.417,
      "velocity": 0.44,
      "hand": "right"
    },
    {
      "midi": 72,
      "time": 44.166,
      "duration": 0.417,
      "velocity": 0.47,
      "hand": "right"
    },
    {
      "midi": 43,
      "time": 44.583,
      "duration": 1.25,
      "velocity": 0.58,
      "hand": "left"
    },
    {
      "midi": 75,
      "time": 44.583,
      "duration": 0.417,
      "velocity": 0.52,
      "hand": "right"
    },
    {
      "midi": 74,
      "time": 45,
      "duration": 1.25,
      "velocity": 0.45,
      "hand": "right"
    },
    {
      "midi": 55,
      "time": 45.416,
      "duration": 0.833,
      "velocity": 0.43,
      "hand": "left"
    },
    {
      "midi": 46,
      "time": 45.833,
      "duration": 0.417,
      "velocity": 0.62,
      "hand": "left"
    },
    {
      "midi": 50,
      "time": 46.25,
      "duration": 0.833,
      "velocity": 0.65,
      "hand": "left"
    },
    {
      "midi": 58,
      "time": 46.25,
      "duration": 0.833,
      "velocity": 0.54,
      "hand": "left"
    },
    {
      "midi": 74,
      "time": 46.666,
      "duration": 0.417,
      "velocity": 0.4,
      "hand": "right"
    },
    {
      "midi": 46,
      "time": 47.083,
      "duration": 0.833,
      "velocity": 0.57,
      "hand": "left"
    },
    {
      "midi": 55,
      "time": 47.083,
      "duration": 0.833,
      "velocity": 0.53,
      "hand": "left"
    },
    {
      "midi": 72,
      "time": 47.083,
      "duration": 0.417,
      "velocity": 0.45,
      "hand": "right"
    },
    {
      "midi": 70,
      "time": 47.5,
      "duration": 0.417,
      "velocity": 0.46,
      "hand": "right"
    },
    {
      "midi": 50,
      "time": 47.916,
      "duration": 1.25,
      "velocity": 0.62,
      "hand": "left"
    },
    {
      "midi": 69,
      "time": 47.916,
      "duration": 0.833,
      "velocity": 0.44,
      "hand": "right"
    },
    {
      "midi": 54,
      "time": 48.75,
      "duration": 0.833,
      "velocity": 0.4,
      "hand": "left"
    },
    {
      "midi": 57,
      "time": 48.75,
      "duration": 0.833,
      "velocity": 0.4,
      "hand": "left"
    },
    {
      "midi": 74,
      "time": 48.75,
      "duration": 0.833,
      "velocity": 0.53,
      "hand": "right"
    },
    {
      "midi": 45,
      "time": 49.166,
      "duration": 0.417,
      "velocity": 0.54,
      "hand": "left"
    },
    {
      "midi": 50,
      "time": 49.583,
      "duration": 0.818,
      "velocity": 0.64,
      "hand": "left"
    },
    {
      "midi": 69,
      "time": 49.583,
      "duration": 0.833,
      "velocity": 0.43,
      "hand": "right"
    },
    {
      "midi": 50,
      "time": 50.416,
      "duration": 0.833,
      "velocity": 0.58,
      "hand": "left"
    },
    {
      "midi": 54,
      "time": 50.416,
      "duration": 0.833,
      "velocity": 0.4,
      "hand": "left"
    },
    {
      "midi": 70,
      "time": 50.416,
      "duration": 0.833,
      "velocity": 0.49,
      "hand": "right"
    },
    {
      "midi": 43,
      "time": 51.25,
      "duration": 1.25,
      "velocity": 0.4,
      "hand": "left"
    },
    {
      "midi": 67,
      "time": 51.25,
      "duration": 2.083,
      "velocity": 0.44,
      "hand": "right"
    },
    {
      "midi": 55,
      "time": 52.083,
      "duration": 0.818,
      "velocity": 0.52,
      "hand": "left"
    },
    {
      "midi": 58,
      "time": 52.083,
      "duration": 0.818,
      "velocity": 0.52,
      "hand": "left"
    },
    {
      "midi": 62,
      "time": 52.083,
      "duration": 0.818,
      "velocity": 0.52,
      "hand": "right"
    },
    {
      "midi": 38,
      "time": 52.5,
      "duration": 0.417,
      "velocity": 0.44,
      "hand": "left"
    },
    {
      "midi": 43,
      "time": 52.916,
      "duration": 0.417,
      "velocity": 0.55,
      "hand": "left"
    },
    {
      "midi": 55,
      "time": 52.916,
      "duration": 0.417,
      "velocity": 0.57,
      "hand": "left"
    },
    {
      "midi": 62,
      "time": 52.916,
      "duration": 0.402,
      "velocity": 0.57,
      "hand": "right"
    },
    {
      "midi": 62,
      "time": 53.333,
      "duration": 0.417,
      "velocity": 0.41,
      "hand": "right"
    },
    {
      "midi": 67,
      "time": 53.75,
      "duration": 0.417,
      "velocity": 0.53,
      "hand": "right"
    },
    {
      "midi": 69,
      "time": 54.166,
      "duration": 0.417,
      "velocity": 0.52,
      "hand": "right"
    },
    {
      "midi": 43,
      "time": 54.583,
      "duration": 0.833,
      "velocity": 0.43,
      "hand": "left"
    },
    {
      "midi": 70,
      "time": 54.583,
      "duration": 0.417,
      "velocity": 0.49,
      "hand": "right"
    },
    {
      "midi": 67,
      "time": 55,
      "duration": 1.667,
      "velocity": 0.47,
      "hand": "right"
    },
    {
      "midi": 50,
      "time": 55.416,
      "duration": 0.819,
      "velocity": 0.6,
      "hand": "left"
    },
    {
      "midi": 55,
      "time": 55.416,
      "duration": 0.819,
      "velocity": 0.6,
      "hand": "left"
    },
    {
      "midi": 50,
      "time": 56.25,
      "duration": 0.818,
      "velocity": 0.53,
      "hand": "left"
    },
    {
      "midi": 55,
      "time": 56.25,
      "duration": 0.818,
      "velocity": 0.53,
      "hand": "left"
    },
    {
      "midi": 62,
      "time": 56.666,
      "duration": 0.417,
      "velocity": 0.46,
      "hand": "right"
    },
    {
      "midi": 50,
      "time": 57.083,
      "duration": 0.833,
      "velocity": 0.52,
      "hand": "left"
    },
    {
      "midi": 55,
      "time": 57.083,
      "duration": 0.833,
      "velocity": 0.52,
      "hand": "left"
    },
    {
      "midi": 67,
      "time": 57.083,
      "duration": 0.417,
      "velocity": 0.54,
      "hand": "right"
    },
    {
      "midi": 69,
      "time": 57.5,
      "duration": 0.417,
      "velocity": 0.5,
      "hand": "right"
    },
    {
      "midi": 43,
      "time": 57.916,
      "duration": 0.833,
      "velocity": 0.39,
      "hand": "left"
    },
    {
      "midi": 70,
      "time": 57.916,
      "duration": 0.417,
      "velocity": 0.5,
      "hand": "right"
    },
    {
      "midi": 67,
      "time": 58.333,
      "duration": 1.667,
      "velocity": 0.45,
      "hand": "right"
    },
    {
      "midi": 50,
      "time": 58.75,
      "duration": 0.818,
      "velocity": 0.57,
      "hand": "left"
    },
    {
      "midi": 55,
      "time": 58.75,
      "duration": 0.818,
      "velocity": 0.57,
      "hand": "left"
    },
    {
      "midi": 50,
      "time": 59.583,
      "duration": 0.818,
      "velocity": 0.54,
      "hand": "left"
    },
    {
      "midi": 55,
      "time": 59.583,
      "duration": 0.818,
      "velocity": 0.54,
      "hand": "left"
    },
    {
      "midi": 62,
      "time": 60,
      "duration": 0.417,
      "velocity": 0.42,
      "hand": "right"
    },
    {
      "midi": 50,
      "time": 60.416,
      "duration": 0.833,
      "velocity": 0.51,
      "hand": "left"
    },
    {
      "midi": 55,
      "time": 60.416,
      "duration": 0.833,
      "velocity": 0.51,
      "hand": "left"
    },
    {
      "midi": 67,
      "time": 60.416,
      "duration": 0.417,
      "velocity": 0.53,
      "hand": "right"
    },
    {
      "midi": 69,
      "time": 60.833,
      "duration": 0.417,
      "velocity": 0.56,
      "hand": "right"
    },
    {
      "midi": 43,
      "time": 61.25,
      "duration": 0.833,
      "velocity": 0.43,
      "hand": "left"
    },
    {
      "midi": 70,
      "time": 61.25,
      "duration": 0.833,
      "velocity": 0.51,
      "hand": "right"
    },
    {
      "midi": 50,
      "time": 62.083,
      "duration": 0.833,
      "velocity": 0.59,
      "hand": "left"
    },
    {
      "midi": 55,
      "time": 62.083,
      "duration": 0.833,
      "velocity": 0.59,
      "hand": "left"
    },
    {
      "midi": 69,
      "time": 62.083,
      "duration": 0.417,
      "velocity": 0.5,
      "hand": "right"
    },
    {
      "midi": 67,
      "time": 62.5,
      "duration": 0.417,
      "velocity": 0.47,
      "hand": "right"
    },
    {
      "midi": 43,
      "time": 62.916,
      "duration": 0.833,
      "velocity": 0.39,
      "hand": "left"
    },
    {
      "midi": 70,
      "time": 62.916,
      "duration": 0.833,
      "velocity": 0.52,
      "hand": "right"
    },
    {
      "midi": 50,
      "time": 63.75,
      "duration": 0.833,
      "velocity": 0.61,
      "hand": "left"
    },
    {
      "midi": 55,
      "time": 63.75,
      "duration": 0.833,
      "velocity": 0.61,
      "hand": "left"
    },
    {
      "midi": 69,
      "time": 63.75,
      "duration": 0.417,
      "velocity": 0.49,
      "hand": "right"
    },
    {
      "midi": 67,
      "time": 64.166,
      "duration": 0.417,
      "velocity": 0.46,
      "hand": "right"
    },
    {
      "midi": 43,
      "time": 64.583,
      "duration": 1.25,
      "velocity": 0.53,
      "hand": "left"
    },
    {
      "midi": 74,
      "time": 64.583,
      "duration": 0.818,
      "velocity": 0.58,
      "hand": "right"
    },
    {
      "midi": 55,
      "time": 65.416,
      "duration": 0.819,
      "velocity": 0.48,
      "hand": "left"
    },
    {
      "midi": 74,
      "time": 65.416,
      "duration": 0.819,
      "velocity": 0.49,
      "hand": "right"
    },
    {
      "midi": 47,
      "time": 65.833,
      "duration": 0.417,
      "velocity": 0.6,
      "hand": "left"
    },
    {
      "midi": 50,
      "time": 66.25,
      "duration": 0.833,
      "velocity": 0.63,
      "hand": "left"
    },
    {
      "midi": 55,
      "time": 66.25,
      "duration": 0.818,
      "velocity": 0.5,
      "hand": "left"
    },
    {
      "midi": 74,
      "time": 66.25,
      "duration": 0.401,
      "velocity": 0.52,
      "hand": "right"
    },
    {
      "midi": 74,
      "time": 66.666,
      "duration": 0.417,
      "velocity": 0.41,
      "hand": "right"
    },
    {
      "midi": 53,
      "time": 67.083,
      "duration": 0.417,
      "velocity": 0.63,
      "hand": "left"
    },
    {
      "midi": 55,
      "time": 67.083,
      "duration": 0.818,
      "velocity": 0.48,
      "hand": "left"
    },
    {
      "midi": 72,
      "time": 67.083,
      "duration": 0.417,
      "velocity": 0.46,
      "hand": "right"
    },
    {
      "midi": 50,
      "time": 67.5,
      "duration": 0.417,
      "velocity": 0.57,
      "hand": "left"
    },
    {
      "midi": 74,
      "time": 67.5,
      "duration": 0.417,
      "velocity": 0.49,
      "hand": "right"
    },
    {
      "midi": 48,
      "time": 67.916,
      "duration": 0.833,
      "velocity": 0.5,
      "hand": "left"
    },
    {
      "midi": 55,
      "time": 67.916,
      "duration": 0.833,
      "velocity": 0.5,
      "hand": "left"
    },
    {
      "midi": 75,
      "time": 67.916,
      "duration": 0.402,
      "velocity": 0.5,
      "hand": "right"
    },
    {
      "midi": 75,
      "time": 68.333,
      "duration": 1.652,
      "velocity": 0.49,
      "hand": "right"
    },
    {
      "midi": 51,
      "time": 68.75,
      "duration": 0.833,
      "velocity": 0.56,
      "hand": "left"
    },
    {
      "midi": 60,
      "time": 68.75,
      "duration": 0.833,
      "velocity": 0.56,
      "hand": "right"
    },
    {
      "midi": 55,
      "time": 69.583,
      "duration": 0.833,
      "velocity": 0.52,
      "hand": "left"
    },
    {
      "midi": 63,
      "time": 69.583,
      "duration": 0.833,
      "velocity": 0.52,
      "hand": "right"
    },
    {
      "midi": 75,
      "time": 70,
      "duration": 0.417,
      "velocity": 0.49,
      "hand": "right"
    },
    {
      "midi": 51,
      "time": 70.416,
      "duration": 0.833,
      "velocity": 0.44,
      "hand": "left"
    },
    {
      "midi": 60,
      "time": 70.416,
      "duration": 0.833,
      "velocity": 0.44,
      "hand": "right"
    },
    {
      "midi": 74,
      "time": 70.416,
      "duration": 0.417,
      "velocity": 0.49,
      "hand": "right"
    },
    {
      "midi": 72,
      "time": 70.833,
      "duration": 0.417,
      "velocity": 0.39,
      "hand": "right"
    },
    {
      "midi": 43,
      "time": 71.25,
      "duration": 1.25,
      "velocity": 0.55,
      "hand": "left"
    },
    {
      "midi": 75,
      "time": 71.25,
      "duration": 0.417,
      "velocity": 0.51,
      "hand": "right"
    },
    {
      "midi": 74,
      "time": 71.666,
      "duration": 1.25,
      "velocity": 0.44,
      "hand": "right"
    },
    {
      "midi": 55,
      "time": 72.083,
      "duration": 0.833,
      "velocity": 0.5,
      "hand": "left"
    },
    {
      "midi": 46,
      "time": 72.5,
      "duration": 0.417,
      "velocity": 0.64,
      "hand": "left"
    },
    {
      "midi": 50,
      "time": 72.916,
      "duration": 0.833,
      "velocity": 0.65,
      "hand": "left"
    },
    {
      "midi": 58,
      "time": 72.916,
      "duration": 0.833,
      "velocity": 0.56,
      "hand": "left"
    },
    {
      "midi": 74,
      "time": 73.333,
      "duration": 0.417,
      "velocity": 0.43,
      "hand": "right"
    },
    {
      "midi": 46,
      "time": 73.75,
      "duration": 0.833,
      "velocity": 0.58,
      "hand": "left"
    },
    {
      "midi": 55,
      "time": 73.75,
      "duration": 0.833,
      "velocity": 0.5,
      "hand": "left"
    },
    {
      "midi": 72,
      "time": 73.75,
      "duration": 0.417,
      "velocity": 0.47,
      "hand": "right"
    },
    {
      "midi": 70,
      "time": 74.166,
      "duration": 0.417,
      "velocity": 0.46,
      "hand": "right"
    },
    {
      "midi": 50,
      "time": 74.583,
      "duration": 1.25,
      "velocity": 0.63,
      "hand": "left"
    },
    {
      "midi": 69,
      "time": 74.583,
      "duration": 0.833,
      "velocity": 0.45,
      "hand": "right"
    },
    {
      "midi": 54,
      "time": 75.416,
      "duration": 0.833,
      "velocity": 0.42,
      "hand": "left"
    },
    {
      "midi": 57,
      "time": 75.416,
      "duration": 0.833,
      "velocity": 0.42,
      "hand": "left"
    },
    {
      "midi": 74,
      "time": 75.416,
      "duration": 0.833,
      "velocity": 0.5,
      "hand": "right"
    },
    {
      "midi": 45,
      "time": 75.833,
      "duration": 0.417,
      "velocity": 0.56,
      "hand": "left"
    },
    {
      "midi": 50,
      "time": 76.25,
      "duration": 0.818,
      "velocity": 0.59,
      "hand": "left"
    },
    {
      "midi": 69,
      "time": 76.25,
      "duration": 0.833,
      "velocity": 0.46,
      "hand": "right"
    },
    {
      "midi": 50,
      "time": 77.083,
      "duration": 0.833,
      "velocity": 0.61,
      "hand": "left"
    },
    {
      "midi": 54,
      "time": 77.083,
      "duration": 0.833,
      "velocity": 0.43,
      "hand": "left"
    },
    {
      "midi": 70,
      "time": 77.083,
      "duration": 0.833,
      "velocity": 0.5,
      "hand": "right"
    },
    {
      "midi": 43,
      "time": 77.916,
      "duration": 1.25,
      "velocity": 0.4,
      "hand": "left"
    },
    {
      "midi": 67,
      "time": 77.916,
      "duration": 2.083,
      "velocity": 0.43,
      "hand": "right"
    },
    {
      "midi": 55,
      "time": 78.75,
      "duration": 0.818,
      "velocity": 0.55,
      "hand": "left"
    },
    {
      "midi": 58,
      "time": 78.75,
      "duration": 0.818,
      "velocity": 0.55,
      "hand": "left"
    },
    {
      "midi": 62,
      "time": 78.75,
      "duration": 0.818,
      "velocity": 0.55,
      "hand": "right"
    },
    {
      "midi": 38,
      "time": 79.166,
      "duration": 0.417,
      "velocity": 0.45,
      "hand": "left"
    },
    {
      "midi": 43,
      "time": 79.583,
      "duration": 0.417,
      "velocity": 0.52,
      "hand": "left"
    },
    {
      "midi": 55,
      "time": 79.583,
      "duration": 0.417,
      "velocity": 0.56,
      "hand": "left"
    },
    {
      "midi": 62,
      "time": 79.583,
      "duration": 0.402,
      "velocity": 0.56,
      "hand": "right"
    },
    {
      "midi": 62,
      "time": 80,
      "duration": 0.417,
      "velocity": 0.39,
      "hand": "right"
    },
    {
      "midi": 67,
      "time": 80.416,
      "duration": 0.417,
      "velocity": 0.52,
      "hand": "right"
    },
    {
      "midi": 69,
      "time": 80.833,
      "duration": 0.417,
      "velocity": 0.54,
      "hand": "right"
    },
    {
      "midi": 43,
      "time": 81.25,
      "duration": 0.833,
      "velocity": 0.4,
      "hand": "left"
    },
    {
      "midi": 70,
      "time": 81.25,
      "duration": 0.417,
      "velocity": 0.46,
      "hand": "right"
    },
    {
      "midi": 67,
      "time": 81.666,
      "duration": 1.667,
      "velocity": 0.42,
      "hand": "right"
    },
    {
      "midi": 50,
      "time": 82.083,
      "duration": 0.818,
      "velocity": 0.58,
      "hand": "left"
    },
    {
      "midi": 55,
      "time": 82.083,
      "duration": 0.818,
      "velocity": 0.58,
      "hand": "left"
    },
    {
      "midi": 50,
      "time": 82.916,
      "duration": 0.819,
      "velocity": 0.54,
      "hand": "left"
    },
    {
      "midi": 55,
      "time": 82.916,
      "duration": 0.819,
      "velocity": 0.54,
      "hand": "left"
    },
    {
      "midi": 62,
      "time": 83.333,
      "duration": 0.417,
      "velocity": 0.41,
      "hand": "right"
    },
    {
      "midi": 50,
      "time": 83.75,
      "duration": 0.833,
      "velocity": 0.5,
      "hand": "left"
    },
    {
      "midi": 55,
      "time": 83.75,
      "duration": 0.833,
      "velocity": 0.5,
      "hand": "left"
    },
    {
      "midi": 67,
      "time": 83.75,
      "duration": 0.417,
      "velocity": 0.54,
      "hand": "right"
    },
    {
      "midi": 69,
      "time": 84.166,
      "duration": 0.417,
      "velocity": 0.51,
      "hand": "right"
    },
    {
      "midi": 43,
      "time": 84.583,
      "duration": 0.833,
      "velocity": 0.43,
      "hand": "left"
    },
    {
      "midi": 70,
      "time": 84.583,
      "duration": 0.417,
      "velocity": 0.47,
      "hand": "right"
    },
    {
      "midi": 67,
      "time": 85,
      "duration": 1.667,
      "velocity": 0.42,
      "hand": "right"
    },
    {
      "midi": 50,
      "time": 85.416,
      "duration": 0.819,
      "velocity": 0.59,
      "hand": "left"
    },
    {
      "midi": 55,
      "time": 85.416,
      "duration": 0.819,
      "velocity": 0.59,
      "hand": "left"
    },
    {
      "midi": 50,
      "time": 86.25,
      "duration": 0.818,
      "velocity": 0.53,
      "hand": "left"
    },
    {
      "midi": 55,
      "time": 86.25,
      "duration": 0.818,
      "velocity": 0.53,
      "hand": "left"
    },
    {
      "midi": 62,
      "time": 86.666,
      "duration": 0.417,
      "velocity": 0.41,
      "hand": "right"
    },
    {
      "midi": 50,
      "time": 87.083,
      "duration": 0.833,
      "velocity": 0.53,
      "hand": "left"
    },
    {
      "midi": 55,
      "time": 87.083,
      "duration": 0.833,
      "velocity": 0.53,
      "hand": "left"
    },
    {
      "midi": 67,
      "time": 87.083,
      "duration": 0.417,
      "velocity": 0.53,
      "hand": "right"
    },
    {
      "midi": 69,
      "time": 87.5,
      "duration": 0.417,
      "velocity": 0.5,
      "hand": "right"
    },
    {
      "midi": 43,
      "time": 87.916,
      "duration": 0.833,
      "velocity": 0.39,
      "hand": "left"
    },
    {
      "midi": 70,
      "time": 87.916,
      "duration": 0.833,
      "velocity": 0.52,
      "hand": "right"
    },
    {
      "midi": 50,
      "time": 88.75,
      "duration": 0.833,
      "velocity": 0.6,
      "hand": "left"
    },
    {
      "midi": 55,
      "time": 88.75,
      "duration": 0.833,
      "velocity": 0.6,
      "hand": "left"
    },
    {
      "midi": 69,
      "time": 88.75,
      "duration": 0.417,
      "velocity": 0.43,
      "hand": "right"
    },
    {
      "midi": 67,
      "time": 89.166,
      "duration": 0.417,
      "velocity": 0.46,
      "hand": "right"
    },
    {
      "midi": 43,
      "time": 89.583,
      "duration": 0.833,
      "velocity": 0.43,
      "hand": "left"
    },
    {
      "midi": 70,
      "time": 89.583,
      "duration": 0.833,
      "velocity": 0.53,
      "hand": "right"
    },
    {
      "midi": 50,
      "time": 90.416,
      "duration": 0.833,
      "velocity": 0.56,
      "hand": "left"
    },
    {
      "midi": 55,
      "time": 90.416,
      "duration": 0.833,
      "velocity": 0.56,
      "hand": "left"
    },
    {
      "midi": 69,
      "time": 90.416,
      "duration": 0.417,
      "velocity": 0.44,
      "hand": "right"
    },
    {
      "midi": 67,
      "time": 90.833,
      "duration": 0.417,
      "velocity": 0.48,
      "hand": "right"
    },
    {
      "midi": 43,
      "time": 91.25,
      "duration": 1.25,
      "velocity": 0.54,
      "hand": "left"
    },
    {
      "midi": 74,
      "time": 91.25,
      "duration": 0.818,
      "velocity": 0.56,
      "hand": "right"
    },
    {
      "midi": 55,
      "time": 92.083,
      "duration": 0.818,
      "velocity": 0.48,
      "hand": "left"
    },
    {
      "midi": 74,
      "time": 92.083,
      "duration": 0.818,
      "velocity": 0.49,
      "hand": "right"
    },
    {
      "midi": 47,
      "time": 92.5,
      "duration": 0.417,
      "velocity": 0.63,
      "hand": "left"
    },
    {
      "midi": 50,
      "time": 92.916,
      "duration": 0.833,
      "velocity": 0.61,
      "hand": "left"
    },
    {
      "midi": 55,
      "time": 92.916,
      "duration": 0.819,
      "velocity": 0.46,
      "hand": "left"
    },
    {
      "midi": 74,
      "time": 92.916,
      "duration": 0.402,
      "velocity": 0.43,
      "hand": "right"
    },
    {
      "midi": 74,
      "time": 93.333,
      "duration": 0.417,
      "velocity": 0.48,
      "hand": "right"
    },
    {
      "midi": 53,
      "time": 93.75,
      "duration": 0.417,
      "velocity": 0.63,
      "hand": "left"
    },
    {
      "midi": 55,
      "time": 93.75,
      "duration": 0.818,
      "velocity": 0.47,
      "hand": "left"
    },
    {
      "midi": 72,
      "time": 93.75,
      "duration": 0.417,
      "velocity": 0.46,
      "hand": "right"
    },
    {
      "midi": 50,
      "time": 94.166,
      "duration": 0.417,
      "velocity": 0.57,
      "hand": "left"
    },
    {
      "midi": 74,
      "time": 94.166,
      "duration": 0.417,
      "velocity": 0.46,
      "hand": "right"
    },
    {
      "midi": 48,
      "time": 94.583,
      "duration": 0.833,
      "velocity": 0.47,
      "hand": "left"
    },
    {
      "midi": 55,
      "time": 94.583,
      "duration": 0.833,
      "velocity": 0.47,
      "hand": "left"
    },
    {
      "midi": 75,
      "time": 94.583,
      "duration": 0.402,
      "velocity": 0.51,
      "hand": "right"
    },
    {
      "midi": 75,
      "time": 95,
      "duration": 1.651,
      "velocity": 0.46,
      "hand": "right"
    },
    {
      "midi": 51,
      "time": 95.416,
      "duration": 0.833,
      "velocity": 0.54,
      "hand": "left"
    },
    {
      "midi": 60,
      "time": 95.416,
      "duration": 0.833,
      "velocity": 0.54,
      "hand": "right"
    },
    {
      "midi": 55,
      "time": 96.25,
      "duration": 0.833,
      "velocity": 0.53,
      "hand": "left"
    },
    {
      "midi": 63,
      "time": 96.25,
      "duration": 0.833,
      "velocity": 0.53,
      "hand": "right"
    },
    {
      "midi": 75,
      "time": 96.666,
      "duration": 0.417,
      "velocity": 0.46,
      "hand": "right"
    },
    {
      "midi": 51,
      "time": 97.083,
      "duration": 0.833,
      "velocity": 0.43,
      "hand": "left"
    },
    {
      "midi": 60,
      "time": 97.083,
      "duration": 0.833,
      "velocity": 0.43,
      "hand": "right"
    },
    {
      "midi": 74,
      "time": 97.083,
      "duration": 0.417,
      "velocity": 0.46,
      "hand": "right"
    },
    {
      "midi": 72,
      "time": 97.5,
      "duration": 0.417,
      "velocity": 0.44,
      "hand": "right"
    },
    {
      "midi": 43,
      "time": 97.916,
      "duration": 1.25,
      "velocity": 0.56,
      "hand": "left"
    },
    {
      "midi": 75,
      "time": 97.916,
      "duration": 0.417,
      "velocity": 0.5,
      "hand": "right"
    },
    {
      "midi": 74,
      "time": 98.333,
      "duration": 1.25,
      "velocity": 0.46,
      "hand": "right"
    },
    {
      "midi": 55,
      "time": 98.75,
      "duration": 0.833,
      "velocity": 0.43,
      "hand": "left"
    },
    {
      "midi": 46,
      "time": 99.166,
      "duration": 0.417,
      "velocity": 0.61,
      "hand": "left"
    },
    {
      "midi": 50,
      "time": 99.583,
      "duration": 0.833,
      "velocity": 0.65,
      "hand": "left"
    },
    {
      "midi": 58,
      "time": 99.583,
      "duration": 0.833,
      "velocity": 0.54,
      "hand": "left"
    },
    {
      "midi": 74,
      "time": 100,
      "duration": 0.417,
      "velocity": 0.42,
      "hand": "right"
    },
    {
      "midi": 46,
      "time": 100.416,
      "duration": 0.833,
      "velocity": 0.59,
      "hand": "left"
    },
    {
      "midi": 55,
      "time": 100.416,
      "duration": 0.833,
      "velocity": 0.53,
      "hand": "left"
    },
    {
      "midi": 72,
      "time": 100.416,
      "duration": 0.417,
      "velocity": 0.43,
      "hand": "right"
    },
    {
      "midi": 70,
      "time": 100.833,
      "duration": 0.417,
      "velocity": 0.45,
      "hand": "right"
    },
    {
      "midi": 50,
      "time": 101.25,
      "duration": 1.25,
      "velocity": 0.66,
      "hand": "left"
    },
    {
      "midi": 69,
      "time": 101.25,
      "duration": 0.833,
      "velocity": 0.45,
      "hand": "right"
    },
    {
      "midi": 54,
      "time": 102.083,
      "duration": 0.833,
      "velocity": 0.42,
      "hand": "left"
    },
    {
      "midi": 57,
      "time": 102.083,
      "duration": 0.833,
      "velocity": 0.42,
      "hand": "left"
    },
    {
      "midi": 74,
      "time": 102.083,
      "duration": 0.833,
      "velocity": 0.55,
      "hand": "right"
    },
    {
      "midi": 45,
      "time": 102.5,
      "duration": 0.417,
      "velocity": 0.56,
      "hand": "left"
    },
    {
      "midi": 50,
      "time": 102.916,
      "duration": 0.819,
      "velocity": 0.61,
      "hand": "left"
    },
    {
      "midi": 69,
      "time": 102.916,
      "duration": 0.833,
      "velocity": 0.43,
      "hand": "right"
    },
    {
      "midi": 50,
      "time": 103.75,
      "duration": 0.833,
      "velocity": 0.61,
      "hand": "left"
    },
    {
      "midi": 54,
      "time": 103.75,
      "duration": 0.833,
      "velocity": 0.44,
      "hand": "left"
    },
    {
      "midi": 70,
      "time": 103.75,
      "duration": 0.833,
      "velocity": 0.5,
      "hand": "right"
    },
    {
      "midi": 43,
      "time": 104.583,
      "duration": 1.25,
      "velocity": 0.39,
      "hand": "left"
    },
    {
      "midi": 67,
      "time": 104.583,
      "duration": 2.083,
      "velocity": 0.47,
      "hand": "right"
    },
    {
      "midi": 55,
      "time": 105.416,
      "duration": 0.819,
      "velocity": 0.54,
      "hand": "left"
    },
    {
      "midi": 58,
      "time": 105.416,
      "duration": 0.819,
      "velocity": 0.54,
      "hand": "left"
    },
    {
      "midi": 62,
      "time": 105.416,
      "duration": 0.819,
      "velocity": 0.54,
      "hand": "right"
    },
    {
      "midi": 38,
      "time": 105.833,
      "duration": 0.417,
      "velocity": 0.41,
      "hand": "left"
    },
    {
      "midi": 43,
      "time": 106.25,
      "duration": 0.417,
      "velocity": 0.56,
      "hand": "left"
    },
    {
      "midi": 55,
      "time": 106.25,
      "duration": 0.417,
      "velocity": 0.61,
      "hand": "left"
    },
    {
      "midi": 62,
      "time": 106.25,
      "duration": 0.417,
      "velocity": 0.61,
      "hand": "right"
    }
  ]
}
