{
  "id": "borboletinha-1",
  "title": "Borboletinha 1",
  "artist": "MIDI Source",
  "difficulty": "Médio",
  "bpm": 120,
  "duration": 18,
  "category": "A revisar",
  "isPremium": true,
  "coverUrl": "/images/covers/placeholder.png",
  "notes": [
    {
      "midi": 60,
      "time": 0.75,
      "duration": 0.25,
      "velocity": 0.63,
      "hand": "right"
    },
    {
      "midi": 62,
      "time": 1,
      "duration": 0.5,
      "velocity": 0.63,
      "hand": "right"
    },
    {
      "midi": 60,
      "time": 1.5,
      "duration": 0.5,
      "velocity": 0.63,
      "hand": "right"
    },
    {
      "midi": 65,
      "time": 2,
      "duration": 0.25,
      "velocity": 0.63,
      "hand": "right"
    },
    {
      "midi": 65,
      "time": 2.25,
      "duration": 0.25,
      "velocity": 0.63,
      "hand": "right"
    },
    {
      "midi": 60,
      "time": 2.75,
      "duration": 0.25,
      "velocity": 0.63,
      "hand": "right"
    },
    {
      "midi": 62,
      "time": 3,
      "duration": 0.5,
      "velocity": 0.63,
      "hand": "right"
    },
    {
      "midi": 60,
      "time": 3.5,
      "duration": 0.5,
      "velocity": 0.63,
      "hand": "right"
    },
    {
      "midi": 64,
      "time": 4,
      "duration": 0.25,
      "velocity": 0.63,
      "hand": "right"
    },
    {
      "midi": 64,
      "time": 4.25,
      "duration": 0.25,
      "velocity": 0.63,
      "hand": "right"
    },
    {
      "midi": 60,
      "time": 4.75,
      "duration": 0.25,
      "velocity": 0.63,
      "hand": "right"
    },
    {
      "midi": 62,
      "time": 5,
      "duration": 0.25,
      "velocity": 0.63,
      "hand": "right"
    },
    {
      "midi": 62,
      "time": 5.25,
      "duration": 0.25,
      "velocity": 0.63,
      "hand": "right"
    },
    {
      "midi": 60,
      "time": 5.5,
      "duration": 0.25,
      "velocity": 0.63,
      "hand": "right"
    },
    {
      "midi": 60,
      "time": 5.75,
      "duration": 0.25,
      "velocity": 0.63,
      "hand": "right"
    },
    {
      "midi": 64,
      "time": 6,
      "duration": 0.25,
      "velocity": 0.63,
      "hand": "right"
    },
    {
      "midi": 64,
      "time": 6.25,
      "duration": 0.25,
      "velocity": 0.63,
      "hand": "right"
    },
    {
      "midi": 60,
      "time": 6.75,
      "duration": 0.25,
      "velocity": 0.63,
      "hand": "right"
    },
    {
      "midi": 62,
      "time": 7,
      "duration": 0.5,
      "velocity": 0.63,
      "hand": "right"
    },
    {
      "midi": 64,
      "time": 7.5,
      "duration": 0.5,
      "velocity": 0.63,
      "hand": "right"
    },
    {
      "midi": 65,
      "time": 8,
      "duration": 0.25,
      "velocity": 0.63,
      "hand": "right"
    },
    {
      "midi": 65,
      "time": 8.25,
      "duration": 0.25,
      "velocity": 0.63,
      "hand": "right"
    },
    {
      "midi": 60,
      "time": 8.75,
      "duration": 0.25,
      "velocity": 0.63,
      "hand": "right"
    },
    {
      "midi": 62,
      "time": 9,
      "duration": 0.5,
      "velocity": 0.63,
      "hand": "right"
    },
    {
      "midi": 60,
      "time": 9.5,
      "duration": 0.5,
      "velocity": 0.63,
      "hand": "right"
    },
    {
      "midi": 65,
      "time": 10,
      "duration": 0.5,
      "velocity": 0.63,
      "hand": "right"
    },
    {
      "midi": 60,
      "time": 10.75,
      "duration": 0.25,
      "velocity": 0.63,
      "hand": "right"
    },
    {
      "midi": 62,
      "time": 11,
      "duration": 0.5,
      "velocity": 0.63,
      "hand": "right"
    },
    {
      "midi": 60,
      "time": 11.5,
      "duration": 0.5,
      "velocity": 0.63,
      "hand": "right"
    },
    {
      "midi": 64,
      "time": 12,
      "duration": 0.5,
      "velocity": 0.63,
      "hand": "right"
    },
    {
      "midi": 60,
      "time": 12.75,
      "duration": 0.25,
      "velocity": 0.63,
      "hand": "right"
    },
    {
      "midi": 62,
      "time": 13,
      "duration": 0.5,
      "velocity": 0.63,
      "hand": "right"
    },
    {
      "midi": 60,
      "time": 13.5,
      "duration": 0.5,
      "velocity": 0.63,
      "hand": "right"
    },
    {
      "midi": 64,
      "time": 14,
      "duration": 0.25,
      "velocity": 0.63,
      "hand": "right"
    },
    {
      "midi": 64,
      "time": 14.25,
      "duration": 0.25,
      "velocity": 0.63,
      "hand": "right"
    },
    {
      "midi": 60,
      "time": 14.5,
      "duration": 0.25,
      "velocity": 0.63,
      "hand": "right"
    },
    {
      "midi": 60,
      "time": 14.75,
      "duration": 0.25,
      "velocity": 0.63,
      "hand": "right"
    },
    {
      "midi": 62,
      "time": 15,
      "duration": 0.25,
      "velocity": 0.63,
      "hand": "right"
    },
    {
      "midi": 62,
      "time": 15.25,
      "duration": 0.25,
      "velocity": 0.63,
      "hand": "right"
    },
    {
      "midi": 64,
      "time": 15.5,
      "duration": 0.25,
      "velocity": 0.63,
      "hand": "right"
    },
    {
      "midi": 64,
      "time": 15.75,
      "duration": 0.25,
      "velocity": 0.63,
      "hand": "right"
    },
    {
      "midi": 65,
      "time": 16,
      "duration": 0.5,
      "velocity": 0.63,
      "hand": "right"
    },
    {
      "midi": 60,
      "time": 16.5,
      "duration": 0.5,
      "velocity": 0.63,
      "hand": "right"
    },
    {
      "midi": 65,
      "time": 17,
      "duration": 1,
      "velocity": 0.63,
      "hand": "right"
    }
  ],
  "arrangements": {
    "easy": [
      {
        "midi": 60,
        "time": 0.75,
        "duration": 0.25,
        "velocity": 0.63,
        "hand": "right"
      },
      {
        "midi": 62,
        "time": 1,
        "duration": 0.5,
        "velocity": 0.63,
        "hand": "right"
      },
      {
        "midi": 60,
        "time": 1.5,
        "duration": 0.5,
        "velocity": 0.63,
        "hand": "right"
      },
      {
        "midi": 65,
        "time": 2,
        "duration": 0.25,
        "velocity": 0.63,
        "hand": "right"
      },
      {
        "midi": 65,
        "time": 2.25,
        "duration": 0.25,
        "velocity": 0.63,
        "hand": "right"
      },
      {
        "midi": 60,
        "time": 2.75,
        "duration": 0.25,
        "velocity": 0.63,
        "hand": "right"
      },
      {
        "midi": 62,
        "time": 3,
        "duration": 0.5,
        "velocity": 0.63,
        "hand": "right"
      },
      {
        "midi": 60,
        "time": 3.5,
        "duration": 0.5,
        "velocity": 0.63,
        "hand": "right"
      },
      {
        "midi": 64,
        "time": 4,
        "duration": 0.25,
        "velocity": 0.63,
        "hand": "right"
      },
      {
        "midi": 64,
        "time": 4.25,
        "duration": 0.25,
        "velocity": 0.63,
        "hand": "right"
      },
      {
        "midi": 60,
        "time": 4.75,
        "duration": 0.25,
        "velocity": 0.63,
        "hand": "right"
      },
      {
        "midi": 62,
        "time": 5,
        "duration": 0.25,
        "velocity": 0.63,
        "hand": "right"
      },
      {
        "midi": 62,
        "time": 5.25,
        "duration": 0.25,
        "velocity": 0.63,
        "hand": "right"
      },
      {
        "midi": 60,
        "time": 5.5,
        "duration": 0.25,
        "velocity": 0.63,
        "hand": "right"
      },
      {
        "midi": 60,
        "time": 5.75,
        "duration": 0.25,
        "velocity": 0.63,
        "hand": "right"
      },
      {
        "midi": 64,
        "time": 6,
        "duration": 0.25,
        "velocity": 0.63,
        "hand": "right"
      },
      {
        "midi": 64,
        "time": 6.25,
        "duration": 0.25,
        "velocity": 0.63,
        "hand": "right"
      },
      {
        "midi": 60,
        "time": 6.75,
        "duration": 0.25,
        "velocity": 0.63,
        "hand": "right"
      },
      {
        "midi": 62,
        "time": 7,
        "duration": 0.5,
        "velocity": 0.63,
        "hand": "right"
      },
      {
        "midi": 64,
        "time": 7.5,
        "duration": 0.5,
        "velocity": 0.63,
        "hand": "right"
      },
      {
        "midi": 65,
        "time": 8,
        "duration": 0.25,
        "velocity": 0.63,
        "hand": "right"
      },
      {
        "midi": 65,
        "time": 8.25,
        "duration": 0.25,
        "velocity": 0.63,
        "hand": "right"
      },
      {
        "midi": 60,
        "time": 8.75,
        "duration": 0.25,
        "velocity": 0.63,
        "hand": "right"
      },
      {
        "midi": 62,
        "time": 9,
        "duration": 0.5,
        "velocity": 0.63,
        "hand": "right"
      },
      {
        "midi": 60,
        "time": 9.5,
        "duration": 0.5,
        "velocity": 0.63,
        "hand": "right"
      },
      {
        "midi": 65,
        "time": 10,
        "duration": 0.5,
        "velocity": 0.63,
        "hand": "right"
      },
      {
        "midi": 60,
        "time": 10.75,
        "duration": 0.25,
        "velocity": 0.63,
        "hand": "right"
      },
      {
        "midi": 62,
        "time": 11,
        "duration": 0.5,
        "velocity": 0.63,
        "hand": "right"
      },
      {
        "midi": 60,
        "time": 11.5,
        "duration": 0.5,
        "velocity": 0.63,
        "hand": "right"
      },
      {
        "midi": 64,
        "time": 12,
        "duration": 0.5,
        "velocity": 0.63,
        "hand": "right"
      },
      {
        "midi": 60,
        "time": 12.75,
        "duration": 0.25,
        "velocity": 0.63,
        "hand": "right"
      },
      {
        "midi": 62,
        "time": 13,
        "duration": 0.5,
        "velocity": 0.63,
        "hand": "right"
      },
      {
        "midi": 60,
        "time": 13.5,
        "duration": 0.5,
        "velocity": 0.63,
        "hand": "right"
      },
      {
        "midi": 64,
        "time": 14,
        "duration": 0.25,
        "velocity": 0.63,
        "hand": "right"
      },
      {
        "midi": 64,
        "time": 14.25,
        "duration": 0.25,
        "velocity": 0.63,
        "hand": "right"
      },
      {
        "midi": 60,
        "time": 14.5,
        "duration": 0.25,
        "velocity": 0.63,
        "hand": "right"
      },
      {
        "midi": 60,
        "time": 14.75,
        "duration": 0.25,
        "velocity": 0.63,
        "hand": "right"
      },
      {
        "midi": 62,
        "time": 15,
        "duration": 0.25,
        "velocity": 0.63,
        "hand": "right"
      },
      {
        "midi": 62,
        "time": 15.25,
        "duration": 0.25,
        "velocity": 0.63,
        "hand": "right"
      },
      {
        "midi": 64,
        "time": 15.5,
        "duration": 0.25,
        "velocity": 0.63,
        "hand": "right"
      },
      {
        "midi": 64,
        "time": 15.75,
        "duration": 0.25,
        "velocity": 0.63,
        "hand": "right"
      },
      {
        "midi": 65,
        "time": 16,
        "duration": 0.5,
        "velocity": 0.63,
        "hand": "right"
      },
      {
        "midi": 60,
        "time": 16.5,
        "duration": 0.5,
        "velocity": 0.63,
        "hand": "right"
      },
      {
        "midi": 65,
        "time": 17,
        "duration": 1,
        "velocity": 0.63,
        "hand": "right"
      }
    ],
    "medium": [
      {
        "midi": 60,
        "time": 0.75,
        "duration": 0.25,
        "velocity": 0.63,
        "hand": "right"
      },
      {
        "midi": 62,
        "time": 1,
        "duration": 0.5,
        "velocity": 0.63,
        "hand": "right"
      },
      {
        "midi": 60,
        "time": 1.5,
        "duration": 0.5,
        "velocity": 0.63,
        "hand": "right"
      },
      {
        "midi": 65,
        "time": 2,
        "duration": 0.25,
        "velocity": 0.63,
        "hand": "right"
      },
      {
        "midi": 65,
        "time": 2.25,
        "duration": 0.25,
        "velocity": 0.63,
        "hand": "right"
      },
      {
        "midi": 60,
        "time": 2.75,
        "duration": 0.25,
        "velocity": 0.63,
        "hand": "right"
      },
      {
        "midi": 62,
        "time": 3,
        "duration": 0.5,
        "velocity": 0.63,
        "hand": "right"
      },
      {
        "midi": 60,
        "time": 3.5,
        "duration": 0.5,
        "velocity": 0.63,
        "hand": "right"
      },
      {
        "midi": 64,
        "time": 4,
        "duration": 0.25,
        "velocity": 0.63,
        "hand": "right"
      },
      {
        "midi": 64,
        "time": 4.25,
        "duration": 0.25,
        "velocity": 0.63,
        "hand": "right"
      },
      {
        "midi": 60,
        "time": 4.75,
        "duration": 0.25,
        "velocity": 0.63,
        "hand": "right"
      },
      {
        "midi": 62,
        "time": 5,
        "duration": 0.25,
        "velocity": 0.63,
        "hand": "right"
      },
      {
        "midi": 62,
        "time": 5.25,
        "duration": 0.25,
        "velocity": 0.63,
        "hand": "right"
      },
      {
        "midi": 60,
        "time": 5.5,
        "duration": 0.25,
        "velocity": 0.63,
        "hand": "right"
      },
      {
        "midi": 60,
        "time": 5.75,
        "duration": 0.25,
        "velocity": 0.63,
        "hand": "right"
      },
      {
        "midi": 64,
        "time": 6,
        "duration": 0.25,
        "velocity": 0.63,
        "hand": "right"
      },
      {
        "midi": 64,
        "time": 6.25,
        "duration": 0.25,
        "velocity": 0.63,
        "hand": "right"
      },
      {
        "midi": 60,
        "time": 6.75,
        "duration": 0.25,
        "velocity": 0.63,
        "hand": "right"
      },
      {
        "midi": 62,
        "time": 7,
        "duration": 0.5,
        "velocity": 0.63,
        "hand": "right"
      },
      {
        "midi": 64,
        "time": 7.5,
        "duration": 0.5,
        "velocity": 0.63,
        "hand": "right"
      },
      {
        "midi": 65,
        "time": 8,
        "duration": 0.25,
        "velocity": 0.63,
        "hand": "right"
      },
      {
        "midi": 65,
        "time": 8.25,
        "duration": 0.25,
        "velocity": 0.63,
        "hand": "right"
      },
      {
        "midi": 60,
        "time": 8.75,
        "duration": 0.25,
        "velocity": 0.63,
        "hand": "right"
      },
      {
        "midi": 62,
        "time": 9,
        "duration": 0.5,
        "velocity": 0.63,
        "hand": "right"
      },
      {
        "midi": 60,
        "time": 9.5,
        "duration": 0.5,
        "velocity": 0.63,
        "hand": "right"
      },
      {
        "midi": 65,
        "time": 10,
        "duration": 0.5,
        "velocity": 0.63,
        "hand": "right"
      },
      {
        "midi": 60,
        "time": 10.75,
        "duration": 0.25,
        "velocity": 0.63,
        "hand": "right"
      },
      {
        "midi": 62,
        "time": 11,
        "duration": 0.5,
        "velocity": 0.63,
        "hand": "right"
      },
      {
        "midi": 60,
        "time": 11.5,
        "duration": 0.5,
        "velocity": 0.63,
        "hand": "right"
      },
      {
        "midi": 64,
        "time": 12,
        "duration": 0.5,
        "velocity": 0.63,
        "hand": "right"
      },
      {
        "midi": 60,
        "time": 12.75,
        "duration": 0.25,
        "velocity": 0.63,
        "hand": "right"
      },
      {
        "midi": 62,
        "time": 13,
        "duration": 0.5,
        "velocity": 0.63,
        "hand": "right"
      },
      {
        "midi": 60,
        "time": 13.5,
        "duration": 0.5,
        "velocity": 0.63,
        "hand": "right"
      },
      {
        "midi": 64,
        "time": 14,
        "duration": 0.25,
        "velocity": 0.63,
        "hand": "right"
      },
      {
        "midi": 64,
        "time": 14.25,
        "duration": 0.25,
        "velocity": 0.63,
        "hand": "right"
      },
      {
        "midi": 60,
        "time": 14.5,
        "duration": 0.25,
        "velocity": 0.63,
        "hand": "right"
      },
      {
        "midi": 60,
        "time": 14.75,
        "duration": 0.25,
        "velocity": 0.63,
        "hand": "right"
      },
      {
        "midi": 62,
        "time": 15,
        "duration": 0.25,
        "velocity": 0.63,
        "hand": "right"
      },
      {
        "midi": 62,
        "time": 15.25,
        "duration": 0.25,
        "velocity": 0.63,
        "hand": "right"
      },
      {
        "midi": 64,
        "time": 15.5,
        "duration": 0.25,
        "velocity": 0.63,
        "hand": "right"
      },
      {
        "midi": 64,
        "time": 15.75,
        "duration": 0.25,
        "velocity": 0.63,
        "hand": "right"
      },
      {
        "midi": 65,
        "time": 16,
        "duration": 0.5,
        "velocity": 0.63,
        "hand": "right"
      },
      {
        "midi": 60,
        "time": 16.5,
        "duration": 0.5,
        "velocity": 0.63,
        "hand": "right"
      },
      {
        "midi": 65,
        "time": 17,
        "duration": 1,
        "velocity": 0.63,
        "hand": "right"
      }
    ],
    "hard": [
      {
        "midi": 60,
        "time": 0.75,
        "duration": 0.25,
        "velocity": 0.63,
        "hand": "right"
      },
      {
        "midi": 62,
        "time": 1,
        "duration": 0.5,
        "velocity": 0.63,
        "hand": "right"
      },
      {
        "midi": 60,
        "time": 1.5,
        "duration": 0.5,
        "velocity": 0.63,
        "hand": "right"
      },
      {
        "midi": 65,
        "time": 2,
        "duration": 0.25,
        "velocity": 0.63,
        "hand": "right"
      },
      {
        "midi": 65,
        "time": 2.25,
        "duration": 0.25,
        "velocity": 0.63,
        "hand": "right"
      },
      {
        "midi": 60,
        "time": 2.75,
        "duration": 0.25,
        "velocity": 0.63,
        "hand": "right"
      },
      {
        "midi": 62,
        "time": 3,
        "duration": 0.5,
        "velocity": 0.63,
        "hand": "right"
      },
      {
        "midi": 60,
        "time": 3.5,
        "duration": 0.5,
        "velocity": 0.63,
        "hand": "right"
      },
      {
        "midi": 64,
        "time": 4,
        "duration": 0.25,
        "velocity": 0.63,
        "hand": "right"
      },
      {
        "midi": 64,
        "time": 4.25,
        "duration": 0.25,
        "velocity": 0.63,
        "hand": "right"
      },
      {
        "midi": 60,
        "time": 4.75,
        "duration": 0.25,
        "velocity": 0.63,
        "hand": "right"
      },
      {
        "midi": 62,
        "time": 5,
        "duration": 0.25,
        "velocity": 0.63,
        "hand": "right"
      },
      {
        "midi": 62,
        "time": 5.25,
        "duration": 0.25,
        "velocity": 0.63,
        "hand": "right"
      },
      {
        "midi": 60,
        "time": 5.5,
        "duration": 0.25,
        "velocity": 0.63,
        "hand": "right"
      },
      {
        "midi": 60,
        "time": 5.75,
        "duration": 0.25,
        "velocity": 0.63,
        "hand": "right"
      },
      {
        "midi": 64,
        "time": 6,
        "duration": 0.25,
        "velocity": 0.63,
        "hand": "right"
      },
      {
        "midi": 64,
        "time": 6.25,
        "duration": 0.25,
        "velocity": 0.63,
        "hand": "right"
      },
      {
        "midi": 60,
        "time": 6.75,
        "duration": 0.25,
        "velocity": 0.63,
        "hand": "right"
      },
      {
        "midi": 62,
        "time": 7,
        "duration": 0.5,
        "velocity": 0.63,
        "hand": "right"
      },
      {
        "midi": 64,
        "time": 7.5,
        "duration": 0.5,
        "velocity": 0.63,
        "hand": "right"
      },
      {
        "midi": 65,
        "time": 8,
        "duration": 0.25,
        "velocity": 0.63,
        "hand": "right"
      },
      {
        "midi": 65,
        "time": 8.25,
        "duration": 0.25,
        "velocity": 0.63,
        "hand": "right"
      },
      {
        "midi": 60,
        "time": 8.75,
        "duration": 0.25,
        "velocity": 0.63,
        "hand": "right"
      },
      {
        "midi": 62,
        "time": 9,
        "duration": 0.5,
        "velocity": 0.63,
        "hand": "right"
      },
      {
        "midi": 60,
        "time": 9.5,
        "duration": 0.5,
        "velocity": 0.63,
        "hand": "right"
      },
      {
        "midi": 65,
        "time": 10,
        "duration": 0.5,
        "velocity": 0.63,
        "hand": "right"
      },
      {
        "midi": 60,
        "time": 10.75,
        "duration": 0.25,
        "velocity": 0.63,
        "hand": "right"
      },
      {
        "midi": 62,
        "time": 11,
        "duration": 0.5,
        "velocity": 0.63,
        "hand": "right"
      },
      {
        "midi": 60,
        "time": 11.5,
        "duration": 0.5,
        "velocity": 0.63,
        "hand": "right"
      },
      {
        "midi": 64,
        "time": 12,
        "duration": 0.5,
        "velocity": 0.63,
        "hand": "right"
      },
      {
        "midi": 60,
        "time": 12.75,
        "duration": 0.25,
        "velocity": 0.63,
        "hand": "right"
      },
      {
        "midi": 62,
        "time": 13,
        "duration": 0.5,
        "velocity": 0.63,
        "hand": "right"
      },
      {
        "midi": 60,
        "time": 13.5,
        "duration": 0.5,
        "velocity": 0.63,
        "hand": "right"
      },
      {
        "midi": 64,
        "time": 14,
        "duration": 0.25,
        "velocity": 0.63,
        "hand": "right"
      },
      {
        "midi": 64,
        "time": 14.25,
        "duration": 0.25,
        "velocity": 0.63,
        "hand": "right"
      },
      {
        "midi": 60,
        "time": 14.5,
        "duration": 0.25,
        "velocity": 0.63,
        "hand": "right"
      },
      {
        "midi": 60,
        "time": 14.75,
        "duration": 0.25,
        "velocity": 0.63,
        "hand": "right"
      },
      {
        "midi": 62,
        "time": 15,
        "duration": 0.25,
        "velocity": 0.63,
        "hand": "right"
      },
      {
        "midi": 62,
        "time": 15.25,
        "duration": 0.25,
        "velocity": 0.63,
        "hand": "right"
      },
      {
        "midi": 64,
        "time": 15.5,
        "duration": 0.25,
        "velocity": 0.63,
        "hand": "right"
      },
      {
        "midi": 64,
        "time": 15.75,
        "duration": 0.25,
        "velocity": 0.63,
        "hand": "right"
      },
      {
        "midi": 65,
        "time": 16,
        "duration": 0.5,
        "velocity": 0.63,
        "hand": "right"
      },
      {
        "midi": 60,
        "time": 16.5,
        "duration": 0.5,
        "velocity": 0.63,
        "hand": "right"
      },
      {
        "midi": 65,
        "time": 17,
        "duration": 1,
        "velocity": 0.63,
        "hand": "right"
      }
    ]
  },
  "notes1Hand": [
    {
      "midi": 60,
      "time": 0.75,
      "duration": 0.25,
      "velocity": 0.63,
      "hand": "right"
    },
    {
      "midi": 62,
      "time": 1,
      "duration": 0.5,
      "velocity": 0.63,
      "hand": "right"
    },
    {
      "midi": 60,
      "time": 1.5,
      "duration": 0.5,
      "velocity": 0.63,
      "hand": "right"
    },
    {
      "midi": 65,
      "time": 2,
      "duration": 0.25,
      "velocity": 0.63,
      "hand": "right"
    },
    {
      "midi": 65,
      "time": 2.25,
      "duration": 0.25,
      "velocity": 0.63,
      "hand": "right"
    },
    {
      "midi": 60,
      "time": 2.75,
      "duration": 0.25,
      "velocity": 0.63,
      "hand": "right"
    },
    {
      "midi": 62,
      "time": 3,
      "duration": 0.5,
      "velocity": 0.63,
      "hand": "right"
    },
    {
      "midi": 60,
      "time": 3.5,
      "duration": 0.5,
      "velocity": 0.63,
      "hand": "right"
    },
    {
      "midi": 64,
      "time": 4,
      "duration": 0.25,
      "velocity": 0.63,
      "hand": "right"
    },
    {
      "midi": 64,
      "time": 4.25,
      "duration": 0.25,
      "velocity": 0.63,
      "hand": "right"
    },
    {
      "midi": 60,
      "time": 4.75,
      "duration": 0.25,
      "velocity": 0.63,
      "hand": "right"
    },
    {
      "midi": 62,
      "time": 5,
      "duration": 0.25,
      "velocity": 0.63,
      "hand": "right"
    },
    {
      "midi": 62,
      "time": 5.25,
      "duration": 0.25,
      "velocity": 0.63,
      "hand": "right"
    },
    {
      "midi": 60,
      "time": 5.5,
      "duration": 0.25,
      "velocity": 0.63,
      "hand": "right"
    },
    {
      "midi": 60,
      "time": 5.75,
      "duration": 0.25,
      "velocity": 0.63,
      "hand": "right"
    },
    {
      "midi": 64,
      "time": 6,
      "duration": 0.25,
      "velocity": 0.63,
      "hand": "right"
    },
    {
      "midi": 64,
      "time": 6.25,
      "duration": 0.25,
      "velocity": 0.63,
      "hand": "right"
    },
    {
      "midi": 60,
      "time": 6.75,
      "duration": 0.25,
      "velocity": 0.63,
      "hand": "right"
    },
    {
      "midi": 62,
      "time": 7,
      "duration": 0.5,
      "velocity": 0.63,
      "hand": "right"
    },
    {
      "midi": 64,
      "time": 7.5,
      "duration": 0.5,
      "velocity": 0.63,
      "hand": "right"
    },
    {
      "midi": 65,
      "time": 8,
      "duration": 0.25,
      "velocity": 0.63,
      "hand": "right"
    },
    {
      "midi": 65,
      "time": 8.25,
      "duration": 0.25,
      "velocity": 0.63,
      "hand": "right"
    },
    {
      "midi": 60,
      "time": 8.75,
      "duration": 0.25,
      "velocity": 0.63,
      "hand": "right"
    },
    {
      "midi": 62,
      "time": 9,
      "duration": 0.5,
      "velocity": 0.63,
      "hand": "right"
    },
    {
      "midi": 60,
      "time": 9.5,
      "duration": 0.5,
      "velocity": 0.63,
      "hand": "right"
    },
    {
      "midi": 65,
      "time": 10,
      "duration": 0.5,
      "velocity": 0.63,
      "hand": "right"
    },
    {
      "midi": 60,
      "time": 10.75,
      "duration": 0.25,
      "velocity": 0.63,
      "hand": "right"
    },
    {
      "midi": 62,
      "time": 11,
      "duration": 0.5,
      "velocity": 0.63,
      "hand": "right"
    },
    {
      "midi": 60,
      "time": 11.5,
      "duration": 0.5,
      "velocity": 0.63,
      "hand": "right"
    },
    {
      "midi": 64,
      "time": 12,
      "duration": 0.5,
      "velocity": 0.63,
      "hand": "right"
    },
    {
      "midi": 60,
      "time": 12.75,
      "duration": 0.25,
      "velocity": 0.63,
      "hand": "right"
    },
    {
      "midi": 62,
      "time": 13,
      "duration": 0.5,
      "velocity": 0.63,
      "hand": "right"
    },
    {
      "midi": 60,
      "time": 13.5,
      "duration": 0.5,
      "velocity": 0.63,
      "hand": "right"
    },
    {
      "midi": 64,
      "time": 14,
      "duration": 0.25,
      "velocity": 0.63,
      "hand": "right"
    },
    {
      "midi": 64,
      "time": 14.25,
      "duration": 0.25,
      "velocity": 0.63,
      "hand": "right"
    },
    {
      "midi": 60,
      "time": 14.5,
      "duration": 0.25,
      "velocity": 0.63,
      "hand": "right"
    },
    {
      "midi": 60,
      "time": 14.75,
      "duration": 0.25,
      "velocity": 0.63,
      "hand": "right"
    },
    {
      "midi": 62,
      "time": 15,
      "duration": 0.25,
      "velocity": 0.63,
      "hand": "right"
    },
    {
      "midi": 62,
      "time": 15.25,
      "duration": 0.25,
      "velocity": 0.63,
      "hand": "right"
    },
    {
      "midi": 64,
      "time": 15.5,
      "duration": 0.25,
      "velocity": 0.63,
      "hand": "right"
    },
    {
      "midi": 64,
      "time": 15.75,
      "duration": 0.25,
      "velocity": 0.63,
      "hand": "right"
    },
    {
      "midi": 65,
      "time": 16,
      "duration": 0.5,
      "velocity": 0.63,
      "hand": "right"
    },
    {
      "midi": 60,
      "time": 16.5,
      "duration": 0.5,
      "velocity": 0.63,
      "hand": "right"
    },
    {
      "midi": 65,
      "time": 17,
      "duration": 1,
      "velocity": 0.63,
      "hand": "right"
    }
  ],
  "notes2Hands": [
    {
      "midi": 60,
      "time": 0.75,
      "duration": 0.25,
      "velocity": 0.63,
      "hand": "right"
    },
    {
      "midi": 62,
      "time": 1,
      "duration": 0.5,
      "velocity": 0.63,
      "hand": "right"
    },
    {
      "midi": 60,
      "time": 1.5,
      "duration": 0.5,
      "velocity": 0.63,
      "hand": "right"
    },
    {
      "midi": 65,
      "time": 2,
      "duration": 0.25,
      "velocity": 0.63,
      "hand": "right"
    },
    {
      "midi": 65,
      "time": 2.25,
      "duration": 0.25,
      "velocity": 0.63,
      "hand": "right"
    },
    {
      "midi": 60,
      "time": 2.75,
      "duration": 0.25,
      "velocity": 0.63,
      "hand": "right"
    },
    {
      "midi": 62,
      "time": 3,
      "duration": 0.5,
      "velocity": 0.63,
      "hand": "right"
    },
    {
      "midi": 60,
      "time": 3.5,
      "duration": 0.5,
      "velocity": 0.63,
      "hand": "right"
    },
    {
      "midi": 64,
      "time": 4,
      "duration": 0.25,
      "velocity": 0.63,
      "hand": "right"
    },
    {
      "midi": 64,
      "time": 4.25,
      "duration": 0.25,
      "velocity": 0.63,
      "hand": "right"
    },
    {
      "midi": 60,
      "time": 4.75,
      "duration": 0.25,
      "velocity": 0.63,
      "hand": "right"
    },
    {
      "midi": 62,
      "time": 5,
      "duration": 0.25,
      "velocity": 0.63,
      "hand": "right"
    },
    {
      "midi": 62,
      "time": 5.25,
      "duration": 0.25,
      "velocity": 0.63,
      "hand": "right"
    },
    {
      "midi": 60,
      "time": 5.5,
      "duration": 0.25,
      "velocity": 0.63,
      "hand": "right"
    },
    {
      "midi": 60,
      "time": 5.75,
      "duration": 0.25,
      "velocity": 0.63,
      "hand": "right"
    },
    {
      "midi": 64,
      "time": 6,
      "duration": 0.25,
      "velocity": 0.63,
      "hand": "right"
    },
    {
      "midi": 64,
      "time": 6.25,
      "duration": 0.25,
      "velocity": 0.63,
      "hand": "right"
    },
    {
      "midi": 60,
      "time": 6.75,
      "duration": 0.25,
      "velocity": 0.63,
      "hand": "right"
    },
    {
      "midi": 62,
      "time": 7,
      "duration": 0.5,
      "velocity": 0.63,
      "hand": "right"
    },
    {
      "midi": 64,
      "time": 7.5,
      "duration": 0.5,
      "velocity": 0.63,
      "hand": "right"
    },
    {
      "midi": 65,
      "time": 8,
      "duration": 0.25,
      "velocity": 0.63,
      "hand": "right"
    },
    {
      "midi": 65,
      "time": 8.25,
      "duration": 0.25,
      "velocity": 0.63,
      "hand": "right"
    },
    {
      "midi": 60,
      "time": 8.75,
      "duration": 0.25,
      "velocity": 0.63,
      "hand": "right"
    },
    {
      "midi": 62,
      "time": 9,
      "duration": 0.5,
      "velocity": 0.63,
      "hand": "right"
    },
    {
      "midi": 60,
      "time": 9.5,
      "duration": 0.5,
      "velocity": 0.63,
      "hand": "right"
    },
    {
      "midi": 65,
      "time": 10,
      "duration": 0.5,
      "velocity": 0.63,
      "hand": "right"
    },
    {
      "midi": 60,
      "time": 10.75,
      "duration": 0.25,
      "velocity": 0.63,
      "hand": "right"
    },
    {
      "midi": 62,
      "time": 11,
      "duration": 0.5,
      "velocity": 0.63,
      "hand": "right"
    },
    {
      "midi": 60,
      "time": 11.5,
      "duration": 0.5,
      "velocity": 0.63,
      "hand": "right"
    },
    {
      "midi": 64,
      "time": 12,
      "duration": 0.5,
      "velocity": 0.63,
      "hand": "right"
    },
    {
      "midi": 60,
      "time": 12.75,
      "duration": 0.25,
      "velocity": 0.63,
      "hand": "right"
    },
    {
      "midi": 62,
      "time": 13,
      "duration": 0.5,
      "velocity": 0.63,
      "hand": "right"
    },
    {
      "midi": 60,
      "time": 13.5,
      "duration": 0.5,
      "velocity": 0.63,
      "hand": "right"
    },
    {
      "midi": 64,
      "time": 14,
      "duration": 0.25,
      "velocity": 0.63,
      "hand": "right"
    },
    {
      "midi": 64,
      "time": 14.25,
      "duration": 0.25,
      "velocity": 0.63,
      "hand": "right"
    },
    {
      "midi": 60,
      "time": 14.5,
      "duration": 0.25,
      "velocity": 0.63,
      "hand": "right"
    },
    {
      "midi": 60,
      "time": 14.75,
      "duration": 0.25,
      "velocity": 0.63,
      "hand": "right"
    },
    {
      "midi": 62,
      "time": 15,
      "duration": 0.25,
      "velocity": 0.63,
      "hand": "right"
    },
    {
      "midi": 62,
      "time": 15.25,
      "duration": 0.25,
      "velocity": 0.63,
      "hand": "right"
    },
    {
      "midi": 64,
      "time": 15.5,
      "duration": 0.25,
      "velocity": 0.63,
      "hand": "right"
    },
    {
      "midi": 64,
      "time": 15.75,
      "duration": 0.25,
      "velocity": 0.63,
      "hand": "right"
    },
    {
      "midi": 65,
      "time": 16,
      "duration": 0.5,
      "velocity": 0.63,
      "hand": "right"
    },
    {
      "midi": 60,
      "time": 16.5,
      "duration": 0.5,
      "velocity": 0.63,
      "hand": "right"
    },
    {
      "midi": 65,
      "time": 17,
      "duration": 1,
      "velocity": 0.63,
      "hand": "right"
    }
  ]
}
