{
  "id": "borboletinha",
  "title": "Borboletinha",
  "artist": "Folclore Brasileiro",
  "difficulty": "Médio",
  "bpm": 120,
  "duration": 19,
  "category": "Infantis",
  "isPremium": false,
  "coverUrl": "/images/covers/placeholder.png",
  "notes": [
    {
      "midi": 36,
      "time": 0,
      "duration": 0.75,
      "velocity": 0.47,
      "hand": "left"
    },
    {
      "midi": 60,
      "time": 0,
      "duration": 0.25,
      "velocity": 0.63,
      "hand": "right"
    },
    {
      "midi": 62,
      "time": 0.25,
      "duration": 0.5,
      "velocity": 0.63,
      "hand": "right"
    },
    {
      "midi": 60,
      "time": 0.75,
      "duration": 0.5,
      "velocity": 0.63,
      "hand": "right"
    },
    {
      "midi": 65,
      "time": 1.25,
      "duration": 0.235,
      "velocity": 0.63,
      "hand": "right"
    },
    {
      "midi": 65,
      "time": 1.5,
      "duration": 0.25,
      "velocity": 0.63,
      "hand": "right"
    },
    {
      "midi": 36,
      "time": 2,
      "duration": 0.75,
      "velocity": 0.47,
      "hand": "left"
    },
    {
      "midi": 60,
      "time": 2,
      "duration": 0.25,
      "velocity": 0.63,
      "hand": "right"
    },
    {
      "midi": 62,
      "time": 2.25,
      "duration": 0.5,
      "velocity": 0.63,
      "hand": "right"
    },
    {
      "midi": 60,
      "time": 2.75,
      "duration": 0.5,
      "velocity": 0.63,
      "hand": "right"
    },
    {
      "midi": 64,
      "time": 3.25,
      "duration": 0.235,
      "velocity": 0.63,
      "hand": "right"
    },
    {
      "midi": 64,
      "time": 3.5,
      "duration": 0.25,
      "velocity": 0.63,
      "hand": "right"
    },
    {
      "midi": 36,
      "time": 4,
      "duration": 0.75,
      "velocity": 0.47,
      "hand": "left"
    },
    {
      "midi": 60,
      "time": 4,
      "duration": 0.25,
      "velocity": 0.63,
      "hand": "right"
    },
    {
      "midi": 62,
      "time": 4.25,
      "duration": 0.235,
      "velocity": 0.63,
      "hand": "right"
    },
    {
      "midi": 62,
      "time": 4.5,
      "duration": 0.25,
      "velocity": 0.63,
      "hand": "right"
    },
    {
      "midi": 60,
      "time": 4.75,
      "duration": 0.235,
      "velocity": 0.63,
      "hand": "right"
    },
    {
      "midi": 60,
      "time": 5,
      "duration": 0.25,
      "velocity": 0.63,
      "hand": "right"
    },
    {
      "midi": 64,
      "time": 5.25,
      "duration": 0.235,
      "velocity": 0.63,
      "hand": "right"
    },
    {
      "midi": 64,
      "time": 5.5,
      "duration": 0.25,
      "velocity": 0.63,
      "hand": "right"
    },
    {
      "midi": 36,
      "time": 6,
      "duration": 0.75,
      "velocity": 0.47,
      "hand": "left"
    },
    {
      "midi": 60,
      "time": 6,
      "duration": 0.25,
      "velocity": 0.63,
      "hand": "right"
    },
    {
      "midi": 62,
      "time": 6.25,
      "duration": 0.5,
      "velocity": 0.63,
      "hand": "right"
    },
    {
      "midi": 64,
      "time": 6.75,
      "duration": 0.5,
      "velocity": 0.63,
      "hand": "right"
    },
    {
      "midi": 65,
      "time": 7.25,
      "duration": 0.235,
      "velocity": 0.63,
      "hand": "right"
    },
    {
      "midi": 65,
      "time": 7.5,
      "duration": 0.25,
      "velocity": 0.63,
      "hand": "right"
    },
    {
      "midi": 36,
      "time": 8,
      "duration": 0.75,
      "velocity": 0.47,
      "hand": "left"
    },
    {
      "midi": 60,
      "time": 8,
      "duration": 0.25,
      "velocity": 0.63,
      "hand": "right"
    },
    {
      "midi": 62,
      "time": 8.25,
      "duration": 0.5,
      "velocity": 0.63,
      "hand": "right"
    },
    {
      "midi": 60,
      "time": 8.75,
      "duration": 0.5,
      "velocity": 0.63,
      "hand": "right"
    },
    {
      "midi": 65,
      "time": 9.25,
      "duration": 0.5,
      "velocity": 0.63,
      "hand": "right"
    },
    {
      "midi": 36,
      "time": 10,
      "duration": 0.75,
      "velocity": 0.47,
      "hand": "left"
    },
    {
      "midi": 60,
      "time": 10,
      "duration": 0.25,
      "velocity": 0.63,
      "hand": "right"
    },
    {
      "midi": 62,
      "time": 10.25,
      "duration": 0.5,
      "velocity": 0.63,
      "hand": "right"
    },
    {
      "midi": 60,
      "time": 10.75,
      "duration": 0.5,
      "velocity": 0.63,
      "hand": "right"
    },
    {
      "midi": 64,
      "time": 11.25,
      "duration": 0.5,
      "velocity": 0.63,
      "hand": "right"
    },
    {
      "midi": 36,
      "time": 12,
      "duration": 0.75,
      "velocity": 0.47,
      "hand": "left"
    },
    {
      "midi": 60,
      "time": 12,
      "duration": 0.25,
      "velocity": 0.63,
      "hand": "right"
    },
    {
      "midi": 62,
      "time": 12.25,
      "duration": 0.5,
      "velocity": 0.63,
      "hand": "right"
    },
    {
      "midi": 60,
      "time": 12.75,
      "duration": 0.5,
      "velocity": 0.63,
      "hand": "right"
    },
    {
      "midi": 64,
      "time": 13.25,
      "duration": 0.235,
      "velocity": 0.63,
      "hand": "right"
    },
    {
      "midi": 64,
      "time": 13.5,
      "duration": 0.25,
      "velocity": 0.63,
      "hand": "right"
    },
    {
      "midi": 60,
      "time": 13.75,
      "duration": 0.235,
      "velocity": 0.63,
      "hand": "right"
    },
    {
      "midi": 36,
      "time": 14,
      "duration": 0.75,
      "velocity": 0.47,
      "hand": "left"
    },
    {
      "midi": 60,
      "time": 14,
      "duration": 0.25,
      "velocity": 0.63,
      "hand": "right"
    },
    {
      "midi": 62,
      "time": 14.25,
      "duration": 0.235,
      "velocity": 0.63,
      "hand": "right"
    },
    {
      "midi": 62,
      "time": 14.5,
      "duration": 0.25,
      "velocity": 0.63,
      "hand": "right"
    },
    {
      "midi": 64,
      "time": 14.75,
      "duration": 0.235,
      "velocity": 0.63,
      "hand": "right"
    },
    {
      "midi": 64,
      "time": 15,
      "duration": 0.25,
      "velocity": 0.63,
      "hand": "right"
    },
    {
      "midi": 65,
      "time": 15.25,
      "duration": 0.5,
      "velocity": 0.63,
      "hand": "right"
    },
    {
      "midi": 60,
      "time": 15.75,
      "duration": 0.5,
      "velocity": 0.63,
      "hand": "right"
    },
    {
      "midi": 41,
      "time": 16.25,
      "duration": 0.75,
      "velocity": 0.47,
      "hand": "left"
    },
    {
      "midi": 65,
      "time": 16.25,
      "duration": 1,
      "velocity": 0.63,
      "hand": "right"
    }
  ],
  "arrangements": {
    "easy": [
      {
        "midi": 60,
        "time": 0,
        "duration": 0.3,
        "velocity": 0.63,
        "hand": "right"
      },
      {
        "midi": 60,
        "time": 0.75,
        "duration": 0.5,
        "velocity": 0.63,
        "hand": "right"
      },
      {
        "midi": 65,
        "time": 1.5,
        "duration": 0.3,
        "velocity": 0.63,
        "hand": "right"
      },
      {
        "midi": 62,
        "time": 2.25,
        "duration": 0.5,
        "velocity": 0.63,
        "hand": "right"
      },
      {
        "midi": 64,
        "time": 3.25,
        "duration": 0.3,
        "velocity": 0.63,
        "hand": "right"
      },
      {
        "midi": 60,
        "time": 4,
        "duration": 0.3,
        "velocity": 0.63,
        "hand": "right"
      },
      {
        "midi": 60,
        "time": 4.75,
        "duration": 0.3,
        "velocity": 0.63,
        "hand": "right"
      },
      {
        "midi": 64,
        "time": 5.5,
        "duration": 0.3,
        "velocity": 0.63,
        "hand": "right"
      },
      {
        "midi": 62,
        "time": 6.25,
        "duration": 0.5,
        "velocity": 0.63,
        "hand": "right"
      },
      {
        "midi": 65,
        "time": 7.25,
        "duration": 0.3,
        "velocity": 0.63,
        "hand": "right"
      },
      {
        "midi": 60,
        "time": 8,
        "duration": 0.3,
        "velocity": 0.63,
        "hand": "right"
      },
      {
        "midi": 60,
        "time": 8.75,
        "duration": 0.5,
        "velocity": 0.63,
        "hand": "right"
      },
      {
        "midi": 60,
        "time": 10,
        "duration": 0.3,
        "velocity": 0.63,
        "hand": "right"
      },
      {
        "midi": 60,
        "time": 10.75,
        "duration": 0.5,
        "velocity": 0.63,
        "hand": "right"
      },
      {
        "midi": 60,
        "time": 12,
        "duration": 0.3,
        "velocity": 0.63,
        "hand": "right"
      },
      {
        "midi": 60,
        "time": 12.75,
        "duration": 0.5,
        "velocity": 0.63,
        "hand": "right"
      },
      {
        "midi": 64,
        "time": 13.5,
        "duration": 0.3,
        "velocity": 0.63,
        "hand": "right"
      },
      {
        "midi": 62,
        "time": 14.25,
        "duration": 0.3,
        "velocity": 0.63,
        "hand": "right"
      },
      {
        "midi": 64,
        "time": 15,
        "duration": 0.3,
        "velocity": 0.63,
        "hand": "right"
      },
      {
        "midi": 60,
        "time": 15.75,
        "duration": 0.5,
        "velocity": 0.63,
        "hand": "right"
      }
    ],
    "medium": [
      {
        "midi": 48,
        "time": 0,
        "duration": 0.75,
        "velocity": 0.47,
        "hand": "left"
      },
      {
        "midi": 60,
        "time": 0,
        "duration": 0.25,
        "velocity": 0.63,
        "hand": "right"
      },
      {
        "midi": 60,
        "time": 0.75,
        "duration": 0.5,
        "velocity": 0.63,
        "hand": "right"
      },
      {
        "midi": 65,
        "time": 1.5,
        "duration": 0.25,
        "velocity": 0.63,
        "hand": "right"
      },
      {
        "midi": 62,
        "time": 2.25,
        "duration": 0.5,
        "velocity": 0.63,
        "hand": "right"
      },
      {
        "midi": 64,
        "time": 3.25,
        "duration": 0.235,
        "velocity": 0.63,
        "hand": "right"
      },
      {
        "midi": 48,
        "time": 4,
        "duration": 0.75,
        "velocity": 0.47,
        "hand": "left"
      },
      {
        "midi": 60,
        "time": 4,
        "duration": 0.25,
        "velocity": 0.63,
        "hand": "right"
      },
      {
        "midi": 60,
        "time": 4.75,
        "duration": 0.235,
        "velocity": 0.63,
        "hand": "right"
      },
      {
        "midi": 64,
        "time": 5.5,
        "duration": 0.25,
        "velocity": 0.63,
        "hand": "right"
      },
      {
        "midi": 62,
        "time": 6.25,
        "duration": 0.5,
        "velocity": 0.63,
        "hand": "right"
      },
      {
        "midi": 65,
        "time": 7.25,
        "duration": 0.235,
        "velocity": 0.63,
        "hand": "right"
      },
      {
        "midi": 48,
        "time": 8,
        "duration": 0.75,
        "velocity": 0.47,
        "hand": "left"
      },
      {
        "midi": 60,
        "time": 8,
        "duration": 0.25,
        "velocity": 0.63,
        "hand": "right"
      },
      {
        "midi": 60,
        "time": 8.75,
        "duration": 0.5,
        "velocity": 0.63,
        "hand": "right"
      },
      {
        "midi": 48,
        "time": 10,
        "duration": 0.75,
        "velocity": 0.47,
        "hand": "left"
      },
      {
        "midi": 60,
        "time": 10,
        "duration": 0.25,
        "velocity": 0.63,
        "hand": "right"
      },
      {
        "midi": 60,
        "time": 10.75,
        "duration": 0.5,
        "velocity": 0.63,
        "hand": "right"
      },
      {
        "midi": 48,
        "time": 12,
        "duration": 0.75,
        "velocity": 0.47,
        "hand": "left"
      },
      {
        "midi": 60,
        "time": 12,
        "duration": 0.25,
        "velocity": 0.63,
        "hand": "right"
      },
      {
        "midi": 60,
        "time": 12.75,
        "duration": 0.5,
        "velocity": 0.63,
        "hand": "right"
      },
      {
        "midi": 64,
        "time": 13.5,
        "duration": 0.25,
        "velocity": 0.63,
        "hand": "right"
      },
      {
        "midi": 62,
        "time": 14.25,
        "duration": 0.235,
        "velocity": 0.63,
        "hand": "right"
      },
      {
        "midi": 64,
        "time": 15,
        "duration": 0.25,
        "velocity": 0.63,
        "hand": "right"
      },
      {
        "midi": 60,
        "time": 15.75,
        "duration": 0.5,
        "velocity": 0.63,
        "hand": "right"
      }
    ],
    "hard": [
      {
        "midi": 36,
        "time": 0,
        "duration": 0.75,
        "velocity": 0.47,
        "hand": "left"
      },
      {
        "midi": 60,
        "time": 0,
        "duration": 0.25,
        "velocity": 0.63,
        "hand": "right"
      },
      {
        "midi": 62,
        "time": 0.25,
        "duration": 0.5,
        "velocity": 0.63,
        "hand": "right"
      },
      {
        "midi": 60,
        "time": 0.75,
        "duration": 0.5,
        "velocity": 0.63,
        "hand": "right"
      },
      {
        "midi": 65,
        "time": 1.25,
        "duration": 0.235,
        "velocity": 0.63,
        "hand": "right"
      },
      {
        "midi": 65,
        "time": 1.5,
        "duration": 0.25,
        "velocity": 0.63,
        "hand": "right"
      },
      {
        "midi": 36,
        "time": 2,
        "duration": 0.75,
        "velocity": 0.47,
        "hand": "left"
      },
      {
        "midi": 60,
        "time": 2,
        "duration": 0.25,
        "velocity": 0.63,
        "hand": "right"
      },
      {
        "midi": 62,
        "time": 2.25,
        "duration": 0.5,
        "velocity": 0.63,
        "hand": "right"
      },
      {
        "midi": 60,
        "time": 2.75,
        "duration": 0.5,
        "velocity": 0.63,
        "hand": "right"
      },
      {
        "midi": 64,
        "time": 3.25,
        "duration": 0.235,
        "velocity": 0.63,
        "hand": "right"
      },
      {
        "midi": 64,
        "time": 3.5,
        "duration": 0.25,
        "velocity": 0.63,
        "hand": "right"
      },
      {
        "midi": 36,
        "time": 4,
        "duration": 0.75,
        "velocity": 0.47,
        "hand": "left"
      },
      {
        "midi": 60,
        "time": 4,
        "duration": 0.25,
        "velocity": 0.63,
        "hand": "right"
      },
      {
        "midi": 62,
        "time": 4.25,
        "duration": 0.235,
        "velocity": 0.63,
        "hand": "right"
      },
      {
        "midi": 62,
        "time": 4.5,
        "duration": 0.25,
        "velocity": 0.63,
        "hand": "right"
      },
      {
        "midi": 60,
        "time": 4.75,
        "duration": 0.235,
        "velocity": 0.63,
        "hand": "right"
      },
      {
        "midi": 60,
        "time": 5,
        "duration": 0.25,
        "velocity": 0.63,
        "hand": "right"
      },
      {
        "midi": 64,
        "time": 5.25,
        "duration": 0.235,
        "velocity": 0.63,
        "hand": "right"
      },
      {
        "midi": 64,
        "time": 5.5,
        "duration": 0.25,
        "velocity": 0.63,
        "hand": "right"
      },
      {
        "midi": 36,
        "time": 6,
        "duration": 0.75,
        "velocity": 0.47,
        "hand": "left"
      },
      {
        "midi": 60,
        "time": 6,
        "duration": 0.25,
        "velocity": 0.63,
        "hand": "right"
      },
      {
        "midi": 62,
        "time": 6.25,
        "duration": 0.5,
        "velocity": 0.63,
        "hand": "right"
      },
      {
        "midi": 64,
        "time": 6.75,
        "duration": 0.5,
        "velocity": 0.63,
        "hand": "right"
      },
      {
        "midi": 65,
        "time": 7.25,
        "duration": 0.235,
        "velocity": 0.63,
        "hand": "right"
      },
      {
        "midi": 65,
        "time": 7.5,
        "duration": 0.25,
        "velocity": 0.63,
        "hand": "right"
      },
      {
        "midi": 36,
        "time": 8,
        "duration": 0.75,
        "velocity": 0.47,
        "hand": "left"
      },
      {
        "midi": 60,
        "time": 8,
        "duration": 0.25,
        "velocity": 0.63,
        "hand": "right"
      },
      {
        "midi": 62,
        "time": 8.25,
        "duration": 0.5,
        "velocity": 0.63,
        "hand": "right"
      },
      {
        "midi": 60,
        "time": 8.75,
        "duration": 0.5,
        "velocity": 0.63,
        "hand": "right"
      },
      {
        "midi": 65,
        "time": 9.25,
        "duration": 0.5,
        "velocity": 0.63,
        "hand": "right"
      },
      {
        "midi": 36,
        "time": 10,
        "duration": 0.75,
        "velocity": 0.47,
        "hand": "left"
      },
      {
        "midi": 60,
        "time": 10,
        "duration": 0.25,
        "velocity": 0.63,
        "hand": "right"
      },
      {
        "midi": 62,
        "time": 10.25,
        "duration": 0.5,
        "velocity": 0.63,
        "hand": "right"
      },
      {
        "midi": 60,
        "time": 10.75,
        "duration": 0.5,
        "velocity": 0.63,
        "hand": "right"
      },
      {
        "midi": 64,
        "time": 11.25,
        "duration": 0.5,
        "velocity": 0.63,
        "hand": "right"
      },
      {
        "midi": 36,
        "time": 12,
        "duration": 0.75,
        "velocity": 0.47,
        "hand": "left"
      },
      {
        "midi": 60,
        "time": 12,
        "duration": 0.25,
        "velocity": 0.63,
        "hand": "right"
      },
      {
        "midi": 62,
        "time": 12.25,
        "duration": 0.5,
        "velocity": 0.63,
        "hand": "right"
      },
      {
        "midi": 60,
        "time": 12.75,
        "duration": 0.5,
        "velocity": 0.63,
        "hand": "right"
      },
      {
        "midi": 64,
        "time": 13.25,
        "duration": 0.235,
        "velocity": 0.63,
        "hand": "right"
      },
      {
        "midi": 64,
        "time": 13.5,
        "duration": 0.25,
        "velocity": 0.63,
        "hand": "right"
      },
      {
        "midi": 60,
        "time": 13.75,
        "duration": 0.235,
        "velocity": 0.63,
        "hand": "right"
      },
      {
        "midi": 36,
        "time": 14,
        "duration": 0.75,
        "velocity": 0.47,
        "hand": "left"
      },
      {
        "midi": 60,
        "time": 14,
        "duration": 0.25,
        "velocity": 0.63,
        "hand": "right"
      },
      {
        "midi": 62,
        "time": 14.25,
        "duration": 0.235,
        "velocity": 0.63,
        "hand": "right"
      },
      {
        "midi": 62,
        "time": 14.5,
        "duration": 0.25,
        "velocity": 0.63,
        "hand": "right"
      },
      {
        "midi": 64,
        "time": 14.75,
        "duration": 0.235,
        "velocity": 0.63,
        "hand": "right"
      },
      {
        "midi": 64,
        "time": 15,
        "duration": 0.25,
        "velocity": 0.63,
        "hand": "right"
      },
      {
        "midi": 65,
        "time": 15.25,
        "duration": 0.5,
        "velocity": 0.63,
        "hand": "right"
      },
      {
        "midi": 60,
        "time": 15.75,
        "duration": 0.5,
        "velocity": 0.63,
        "hand": "right"
      },
      {
        "midi": 41,
        "time": 16.25,
        "duration": 0.75,
        "velocity": 0.47,
        "hand": "left"
      },
      {
        "midi": 65,
        "time": 16.25,
        "duration": 1,
        "velocity": 0.63,
        "hand": "right"
      }
    ]
  },
  "notes1Hand": [
    {
      "midi": 60,
      "time": 0,
      "duration": 0.3,
      "velocity": 0.63,
      "hand": "right"
    },
    {
      "midi": 60,
      "time": 0.75,
      "duration": 0.5,
      "velocity": 0.63,
      "hand": "right"
    },
    {
      "midi": 65,
      "time": 1.5,
      "duration": 0.3,
      "velocity": 0.63,
      "hand": "right"
    },
    {
      "midi": 62,
      "time": 2.25,
      "duration": 0.5,
      "velocity": 0.63,
      "hand": "right"
    },
    {
      "midi": 64,
      "time": 3.25,
      "duration": 0.3,
      "velocity": 0.63,
      "hand": "right"
    },
    {
      "midi": 60,
      "time": 4,
      "duration": 0.3,
      "velocity": 0.63,
      "hand": "right"
    },
    {
      "midi": 60,
      "time": 4.75,
      "duration": 0.3,
      "velocity": 0.63,
      "hand": "right"
    },
    {
      "midi": 64,
      "time": 5.5,
      "duration": 0.3,
      "velocity": 0.63,
      "hand": "right"
    },
    {
      "midi": 62,
      "time": 6.25,
      "duration": 0.5,
      "velocity": 0.63,
      "hand": "right"
    },
    {
      "midi": 65,
      "time": 7.25,
      "duration": 0.3,
      "velocity": 0.63,
      "hand": "right"
    },
    {
      "midi": 60,
      "time": 8,
      "duration": 0.3,
      "velocity": 0.63,
      "hand": "right"
    },
    {
      "midi": 60,
      "time": 8.75,
      "duration": 0.5,
      "velocity": 0.63,
      "hand": "right"
    },
    {
      "midi": 60,
      "time": 10,
      "duration": 0.3,
      "velocity": 0.63,
      "hand": "right"
    },
    {
      "midi": 60,
      "time": 10.75,
      "duration": 0.5,
      "velocity": 0.63,
      "hand": "right"
    },
    {
      "midi": 60,
      "time": 12,
      "duration": 0.3,
      "velocity": 0.63,
      "hand": "right"
    },
    {
      "midi": 60,
      "time": 12.75,
      "duration": 0.5,
      "velocity": 0.63,
      "hand": "right"
    },
    {
      "midi": 64,
      "time": 13.5,
      "duration": 0.3,
      "velocity": 0.63,
      "hand": "right"
    },
    {
      "midi": 62,
      "time": 14.25,
      "duration": 0.3,
      "velocity": 0.63,
      "hand": "right"
    },
    {
      "midi": 64,
      "time": 15,
      "duration": 0.3,
      "velocity": 0.63,
      "hand": "right"
    },
    {
      "midi": 60,
      "time": 15.75,
      "duration": 0.5,
      "velocity": 0.63,
      "hand": "right"
    }
  ],
  "notes2Hands": [
    {
      "midi": 36,
      "time": 0,
      "duration": 0.75,
      "velocity": 0.47,
      "hand": "left"
    },
    {
      "midi": 60,
      "time": 0,
      "duration": 0.25,
      "velocity": 0.63,
      "hand": "right"
    },
    {
      "midi": 62,
      "time": 0.25,
      "duration": 0.5,
      "velocity": 0.63,
      "hand": "right"
    },
    {
      "midi": 60,
      "time": 0.75,
      "duration": 0.5,
      "velocity": 0.63,
      "hand": "right"
    },
    {
      "midi": 65,
      "time": 1.25,
      "duration": 0.235,
      "velocity": 0.63,
      "hand": "right"
    },
    {
      "midi": 65,
      "time": 1.5,
      "duration": 0.25,
      "velocity": 0.63,
      "hand": "right"
    },
    {
      "midi": 36,
      "time": 2,
      "duration": 0.75,
      "velocity": 0.47,
      "hand": "left"
    },
    {
      "midi": 60,
      "time": 2,
      "duration": 0.25,
      "velocity": 0.63,
      "hand": "right"
    },
    {
      "midi": 62,
      "time": 2.25,
      "duration": 0.5,
      "velocity": 0.63,
      "hand": "right"
    },
    {
      "midi": 60,
      "time": 2.75,
      "duration": 0.5,
      "velocity": 0.63,
      "hand": "right"
    },
    {
      "midi": 64,
      "time": 3.25,
      "duration": 0.235,
      "velocity": 0.63,
      "hand": "right"
    },
    {
      "midi": 64,
      "time": 3.5,
      "duration": 0.25,
      "velocity": 0.63,
      "hand": "right"
    },
    {
      "midi": 36,
      "time": 4,
      "duration": 0.75,
      "velocity": 0.47,
      "hand": "left"
    },
    {
      "midi": 60,
      "time": 4,
      "duration": 0.25,
      "velocity": 0.63,
      "hand": "right"
    },
    {
      "midi": 62,
      "time": 4.25,
      "duration": 0.235,
      "velocity": 0.63,
      "hand": "right"
    },
    {
      "midi": 62,
      "time": 4.5,
      "duration": 0.25,
      "velocity": 0.63,
      "hand": "right"
    },
    {
      "midi": 60,
      "time": 4.75,
      "duration": 0.235,
      "velocity": 0.63,
      "hand": "right"
    },
    {
      "midi": 60,
      "time": 5,
      "duration": 0.25,
      "velocity": 0.63,
      "hand": "right"
    },
    {
      "midi": 64,
      "time": 5.25,
      "duration": 0.235,
      "velocity": 0.63,
      "hand": "right"
    },
    {
      "midi": 64,
      "time": 5.5,
      "duration": 0.25,
      "velocity": 0.63,
      "hand": "right"
    },
    {
      "midi": 36,
      "time": 6,
      "duration": 0.75,
      "velocity": 0.47,
      "hand": "left"
    },
    {
      "midi": 60,
      "time": 6,
      "duration": 0.25,
      "velocity": 0.63,
      "hand": "right"
    },
    {
      "midi": 62,
      "time": 6.25,
      "duration": 0.5,
      "velocity": 0.63,
      "hand": "right"
    },
    {
      "midi": 64,
      "time": 6.75,
      "duration": 0.5,
      "velocity": 0.63,
      "hand": "right"
    },
    {
      "midi": 65,
      "time": 7.25,
      "duration": 0.235,
      "velocity": 0.63,
      "hand": "right"
    },
    {
      "midi": 65,
      "time": 7.5,
      "duration": 0.25,
      "velocity": 0.63,
      "hand": "right"
    },
    {
      "midi": 36,
      "time": 8,
      "duration": 0.75,
      "velocity": 0.47,
      "hand": "left"
    },
    {
      "midi": 60,
      "time": 8,
      "duration": 0.25,
      "velocity": 0.63,
      "hand": "right"
    },
    {
      "midi": 62,
      "time": 8.25,
      "duration": 0.5,
      "velocity": 0.63,
      "hand": "right"
    },
    {
      "midi": 60,
      "time": 8.75,
      "duration": 0.5,
      "velocity": 0.63,
      "hand": "right"
    },
    {
      "midi": 65,
      "time": 9.25,
      "duration": 0.5,
      "velocity": 0.63,
      "hand": "right"
    },
    {
      "midi": 36,
      "time": 10,
      "duration": 0.75,
      "velocity": 0.47,
      "hand": "left"
    },
    {
      "midi": 60,
      "time": 10,
      "duration": 0.25,
      "velocity": 0.63,
      "hand": "right"
    },
    {
      "midi": 62,
      "time": 10.25,
      "duration": 0.5,
      "velocity": 0.63,
      "hand": "right"
    },
    {
      "midi": 60,
      "time": 10.75,
      "duration": 0.5,
      "velocity": 0.63,
      "hand": "right"
    },
    {
      "midi": 64,
      "time": 11.25,
      "duration": 0.5,
      "velocity": 0.63,
      "hand": "right"
    },
    {
      "midi": 36,
      "time": 12,
      "duration": 0.75,
      "velocity": 0.47,
      "hand": "left"
    },
    {
      "midi": 60,
      "time": 12,
      "duration": 0.25,
      "velocity": 0.63,
      "hand": "right"
    },
    {
      "midi": 62,
      "time": 12.25,
      "duration": 0.5,
      "velocity": 0.63,
      "hand": "right"
    },
    {
      "midi": 60,
      "time": 12.75,
      "duration": 0.5,
      "velocity": 0.63,
      "hand": "right"
    },
    {
      "midi": 64,
      "time": 13.25,
      "duration": 0.235,
      "velocity": 0.63,
      "hand": "right"
    },
    {
      "midi": 64,
      "time": 13.5,
      "duration": 0.25,
      "velocity": 0.63,
      "hand": "right"
    },
    {
      "midi": 60,
      "time": 13.75,
      "duration": 0.235,
      "velocity": 0.63,
      "hand": "right"
    },
    {
      "midi": 36,
      "time": 14,
      "duration": 0.75,
      "velocity": 0.47,
      "hand": "left"
    },
    {
      "midi": 60,
      "time": 14,
      "duration": 0.25,
      "velocity": 0.63,
      "hand": "right"
    },
    {
      "midi": 62,
      "time": 14.25,
      "duration": 0.235,
      "velocity": 0.63,
      "hand": "right"
    },
    {
      "midi": 62,
      "time": 14.5,
      "duration": 0.25,
      "velocity": 0.63,
      "hand": "right"
    },
    {
      "midi": 64,
      "time": 14.75,
      "duration": 0.235,
      "velocity": 0.63,
      "hand": "right"
    },
    {
      "midi": 64,
      "time": 15,
      "duration": 0.25,
      "velocity": 0.63,
      "hand": "right"
    },
    {
      "midi": 65,
      "time": 15.25,
      "duration": 0.5,
      "velocity": 0.63,
      "hand": "right"
    },
    {
      "midi": 60,
      "time": 15.75,
      "duration": 0.5,
      "velocity": 0.63,
      "hand": "right"
    },
    {
      "midi": 41,
      "time": 16.25,
      "duration": 0.75,
      "velocity": 0.47,
      "hand": "left"
    },
    {
      "midi": 65,
      "time": 16.25,
      "duration": 1,
      "velocity": 0.63,
      "hand": "right"
    }
  ]
}
