{
  "id": "twinkle-twinkle",
  "title": "Brilha Brilha Estrelinha",
  "artist": "Tradicional",
  "difficulty": "Médio",
  "bpm": 100,
  "duration": 37,
  "category": "Infantis",
  "isPremium": false,
  "coverUrl": "/images/covers/placeholder.png",
  "notes": [
    {
      "midi": 52,
      "time": 0,
      "duration": 1.2,
      "velocity": 0.63,
      "hand": "left"
    },
    {
      "midi": 55,
      "time": 0,
      "duration": 1.185,
      "velocity": 0.63,
      "hand": "left"
    },
    {
      "midi": 60,
      "time": 0,
      "duration": 0.585,
      "velocity": 0.63,
      "hand": "right"
    },
    {
      "midi": 60,
      "time": 0.6,
      "duration": 0.6,
      "velocity": 0.63,
      "hand": "right"
    },
    {
      "midi": 55,
      "time": 1.2,
      "duration": 1.2,
      "velocity": 0.63,
      "hand": "left"
    },
    {
      "midi": 59,
      "time": 1.2,
      "duration": 1.2,
      "velocity": 0.63,
      "hand": "left"
    },
    {
      "midi": 67,
      "time": 1.2,
      "duration": 0.585,
      "velocity": 0.63,
      "hand": "right"
    },
    {
      "midi": 67,
      "time": 1.8,
      "duration": 0.6,
      "velocity": 0.63,
      "hand": "right"
    },
    {
      "midi": 57,
      "time": 2.4,
      "duration": 1.2,
      "velocity": 0.63,
      "hand": "left"
    },
    {
      "midi": 60,
      "time": 2.4,
      "duration": 1.2,
      "velocity": 0.63,
      "hand": "right"
    },
    {
      "midi": 69,
      "time": 2.4,
      "duration": 0.585,
      "velocity": 0.63,
      "hand": "right"
    },
    {
      "midi": 69,
      "time": 3,
      "duration": 0.6,
      "velocity": 0.63,
      "hand": "right"
    },
    {
      "midi": 55,
      "time": 3.6,
      "duration": 1.2,
      "velocity": 0.63,
      "hand": "left"
    },
    {
      "midi": 59,
      "time": 3.6,
      "duration": 1.2,
      "velocity": 0.63,
      "hand": "left"
    },
    {
      "midi": 67,
      "time": 3.6,
      "duration": 1.2,
      "velocity": 0.63,
      "hand": "right"
    },
    {
      "midi": 53,
      "time": 4.8,
      "duration": 1.2,
      "velocity": 0.63,
      "hand": "left"
    },
    {
      "midi": 57,
      "time": 4.8,
      "duration": 1.2,
      "velocity": 0.63,
      "hand": "left"
    },
    {
      "midi": 65,
      "time": 4.8,
      "duration": 0.585,
      "velocity": 0.63,
      "hand": "right"
    },
    {
      "midi": 65,
      "time": 5.4,
      "duration": 0.6,
      "velocity": 0.63,
      "hand": "right"
    },
    {
      "midi": 52,
      "time": 6,
      "duration": 1.2,
      "velocity": 0.63,
      "hand": "left"
    },
    {
      "midi": 55,
      "time": 6,
      "duration": 1.2,
      "velocity": 0.63,
      "hand": "left"
    },
    {
      "midi": 64,
      "time": 6,
      "duration": 0.585,
      "velocity": 0.63,
      "hand": "right"
    },
    {
      "midi": 64,
      "time": 6.6,
      "duration": 0.6,
      "velocity": 0.63,
      "hand": "right"
    },
    {
      "midi": 50,
      "time": 7.2,
      "duration": 1.2,
      "velocity": 0.63,
      "hand": "left"
    },
    {
      "midi": 53,
      "time": 7.2,
      "duration": 1.2,
      "velocity": 0.63,
      "hand": "left"
    },
    {
      "midi": 62,
      "time": 7.2,
      "duration": 0.585,
      "velocity": 0.63,
      "hand": "right"
    },
    {
      "midi": 62,
      "time": 7.8,
      "duration": 0.6,
      "velocity": 0.63,
      "hand": "right"
    },
    {
      "midi": 52,
      "time": 11.4,
      "duration": 1.2,
      "velocity": 0.63,
      "hand": "left"
    },
    {
      "midi": 55,
      "time": 11.4,
      "duration": 1.185,
      "velocity": 0.63,
      "hand": "left"
    },
    {
      "midi": 60,
      "time": 11.4,
      "duration": 1.2,
      "velocity": 0.63,
      "hand": "right"
    },
    {
      "midi": 55,
      "time": 12.6,
      "duration": 1.2,
      "velocity": 0.63,
      "hand": "left"
    },
    {
      "midi": 59,
      "time": 12.6,
      "duration": 1.2,
      "velocity": 0.63,
      "hand": "left"
    },
    {
      "midi": 67,
      "time": 12.6,
      "duration": 0.585,
      "velocity": 0.63,
      "hand": "right"
    },
    {
      "midi": 67,
      "time": 13.2,
      "duration": 0.6,
      "velocity": 0.63,
      "hand": "right"
    },
    {
      "midi": 53,
      "time": 13.8,
      "duration": 1.2,
      "velocity": 0.63,
      "hand": "left"
    },
    {
      "midi": 57,
      "time": 13.8,
      "duration": 1.2,
      "velocity": 0.63,
      "hand": "left"
    },
    {
      "midi": 65,
      "time": 13.8,
      "duration": 0.585,
      "velocity": 0.63,
      "hand": "right"
    },
    {
      "midi": 65,
      "time": 14.4,
      "duration": 0.6,
      "velocity": 0.63,
      "hand": "right"
    },
    {
      "midi": 52,
      "time": 15,
      "duration": 1.2,
      "velocity": 0.63,
      "hand": "left"
    },
    {
      "midi": 55,
      "time": 15,
      "duration": 1.2,
      "velocity": 0.63,
      "hand": "left"
    },
    {
      "midi": 64,
      "time": 15,
      "duration": 0.585,
      "velocity": 0.63,
      "hand": "right"
    },
    {
      "midi": 64,
      "time": 15.6,
      "duration": 0.6,
      "velocity": 0.63,
      "hand": "right"
    },
    {
      "midi": 50,
      "time": 16.2,
      "duration": 1.2,
      "velocity": 0.63,
      "hand": "left"
    },
    {
      "midi": 53,
      "time": 16.2,
      "duration": 1.2,
      "velocity": 0.63,
      "hand": "left"
    },
    {
      "midi": 62,
      "time": 16.2,
      "duration": 1.2,
      "velocity": 0.63,
      "hand": "right"
    },
    {
      "midi": 52,
      "time": 17.4,
      "duration": 1.2,
      "velocity": 0.63,
      "hand": "left"
    },
    {
      "midi": 55,
      "time": 17.4,
      "duration": 1.2,
      "velocity": 0.63,
      "hand": "left"
    },
    {
      "midi": 67,
      "time": 17.4,
      "duration": 0.585,
      "velocity": 0.63,
      "hand": "right"
    },
    {
      "midi": 67,
      "time": 18,
      "duration": 0.6,
      "velocity": 0.63,
      "hand": "right"
    },
    {
      "midi": 53,
      "time": 18.6,
      "duration": 1.2,
      "velocity": 0.63,
      "hand": "left"
    },
    {
      "midi": 57,
      "time": 18.6,
      "duration": 1.2,
      "velocity": 0.63,
      "hand": "left"
    },
    {
      "midi": 65,
      "time": 18.6,
      "duration": 0.585,
      "velocity": 0.63,
      "hand": "right"
    },
    {
      "midi": 65,
      "time": 19.2,
      "duration": 0.6,
      "velocity": 0.63,
      "hand": "right"
    },
    {
      "midi": 52,
      "time": 19.8,
      "duration": 1.2,
      "velocity": 0.63,
      "hand": "left"
    },
    {
      "midi": 55,
      "time": 19.8,
      "duration": 1.2,
      "velocity": 0.63,
      "hand": "left"
    },
    {
      "midi": 64,
      "time": 19.8,
      "duration": 0.585,
      "velocity": 0.63,
      "hand": "right"
    },
    {
      "midi": 64,
      "time": 20.4,
      "duration": 0.6,
      "velocity": 0.63,
      "hand": "right"
    },
    {
      "midi": 50,
      "time": 24,
      "duration": 1.2,
      "velocity": 0.63,
      "hand": "left"
    },
    {
      "midi": 53,
      "time": 24,
      "duration": 1.2,
      "velocity": 0.63,
      "hand": "left"
    },
    {
      "midi": 62,
      "time": 24,
      "duration": 1.2,
      "velocity": 0.63,
      "hand": "right"
    },
    {
      "midi": 52,
      "time": 25.2,
      "duration": 1.2,
      "velocity": 0.63,
      "hand": "left"
    },
    {
      "midi": 55,
      "time": 25.2,
      "duration": 1.185,
      "velocity": 0.63,
      "hand": "left"
    },
    {
      "midi": 60,
      "time": 25.2,
      "duration": 0.585,
      "velocity": 0.63,
      "hand": "right"
    },
    {
      "midi": 60,
      "time": 25.8,
      "duration": 0.6,
      "velocity": 0.63,
      "hand": "right"
    },
    {
      "midi": 55,
      "time": 26.4,
      "duration": 1.2,
      "velocity": 0.63,
      "hand": "left"
    },
    {
      "midi": 59,
      "time": 26.4,
      "duration": 1.2,
      "velocity": 0.63,
      "hand": "left"
    },
    {
      "midi": 67,
      "time": 26.4,
      "duration": 0.585,
      "velocity": 0.63,
      "hand": "right"
    },
    {
      "midi": 67,
      "time": 27,
      "duration": 0.6,
      "velocity": 0.63,
      "hand": "right"
    },
    {
      "midi": 57,
      "time": 27.6,
      "duration": 1.2,
      "velocity": 0.63,
      "hand": "left"
    },
    {
      "midi": 60,
      "time": 27.6,
      "duration": 1.2,
      "velocity": 0.63,
      "hand": "right"
    },
    {
      "midi": 69,
      "time": 27.6,
      "duration": 0.585,
      "velocity": 0.63,
      "hand": "right"
    },
    {
      "midi": 69,
      "time": 28.2,
      "duration": 0.6,
      "velocity": 0.63,
      "hand": "right"
    },
    {
      "midi": 55,
      "time": 28.8,
      "duration": 1.2,
      "velocity": 0.63,
      "hand": "left"
    },
    {
      "midi": 59,
      "time": 28.8,
      "duration": 1.2,
      "velocity": 0.63,
      "hand": "left"
    },
    {
      "midi": 67,
      "time": 28.8,
      "duration": 1.2,
      "velocity": 0.63,
      "hand": "right"
    },
    {
      "midi": 53,
      "time": 30,
      "duration": 1.2,
      "velocity": 0.63,
      "hand": "left"
    },
    {
      "midi": 57,
      "time": 30,
      "duration": 1.2,
      "velocity": 0.63,
      "hand": "left"
    },
    {
      "midi": 65,
      "time": 30,
      "duration": 0.585,
      "velocity": 0.63,
      "hand": "right"
    },
    {
      "midi": 65,
      "time": 30.6,
      "duration": 0.6,
      "velocity": 0.63,
      "hand": "right"
    },
    {
      "midi": 52,
      "time": 31.2,
      "duration": 1.2,
      "velocity": 0.63,
      "hand": "left"
    },
    {
      "midi": 55,
      "time": 31.2,
      "duration": 1.2,
      "velocity": 0.63,
      "hand": "left"
    },
    {
      "midi": 64,
      "time": 31.2,
      "duration": 0.585,
      "velocity": 0.63,
      "hand": "right"
    },
    {
      "midi": 64,
      "time": 31.8,
      "duration": 0.6,
      "velocity": 0.63,
      "hand": "right"
    },
    {
      "midi": 50,
      "time": 32.4,
      "duration": 1.2,
      "velocity": 0.63,
      "hand": "left"
    },
    {
      "midi": 53,
      "time": 32.4,
      "duration": 1.2,
      "velocity": 0.63,
      "hand": "left"
    },
    {
      "midi": 62,
      "time": 32.4,
      "duration": 0.585,
      "velocity": 0.63,
      "hand": "right"
    },
    {
      "midi": 62,
      "time": 33,
      "duration": 0.6,
      "velocity": 0.63,
      "hand": "right"
    },
    {
      "midi": 52,
      "time": 33.6,
      "duration": 2.25,
      "velocity": 0.63,
      "hand": "left"
    },
    {
      "midi": 55,
      "time": 33.6,
      "duration": 2.25,
      "velocity": 0.63,
      "hand": "left"
    },
    {
      "midi": 60,
      "time": 33.6,
      "duration": 2.25,
      "velocity": 0.63,
      "hand": "right"
    }
  ],
  "arrangements": {
    "easy": [
      {
        "midi": 60,
        "time": 0,
        "duration": 0.585,
        "velocity": 0.63,
        "hand": "right"
      },
      {
        "midi": 60,
        "time": 0.6,
        "duration": 0.6,
        "velocity": 0.63,
        "hand": "right"
      },
      {
        "midi": 67,
        "time": 1.2,
        "duration": 0.585,
        "velocity": 0.63,
        "hand": "right"
      },
      {
        "midi": 67,
        "time": 1.8,
        "duration": 0.6,
        "velocity": 0.63,
        "hand": "right"
      },
      {
        "midi": 69,
        "time": 2.4,
        "duration": 0.585,
        "velocity": 0.63,
        "hand": "right"
      },
      {
        "midi": 69,
        "time": 3,
        "duration": 0.6,
        "velocity": 0.63,
        "hand": "right"
      },
      {
        "midi": 67,
        "time": 3.6,
        "duration": 1.2,
        "velocity": 0.63,
        "hand": "right"
      },
      {
        "midi": 65,
        "time": 4.8,
        "duration": 0.585,
        "velocity": 0.63,
        "hand": "right"
      },
      {
        "midi": 65,
        "time": 5.4,
        "duration": 0.6,
        "velocity": 0.63,
        "hand": "right"
      },
      {
        "midi": 64,
        "time": 6,
        "duration": 0.585,
        "velocity": 0.63,
        "hand": "right"
      },
      {
        "midi": 64,
        "time": 6.6,
        "duration": 0.6,
        "velocity": 0.63,
        "hand": "right"
      },
      {
        "midi": 62,
        "time": 7.2,
        "duration": 0.585,
        "velocity": 0.63,
        "hand": "right"
      },
      {
        "midi": 62,
        "time": 7.8,
        "duration": 0.6,
        "velocity": 0.63,
        "hand": "right"
      },
      {
        "midi": 60,
        "time": 11.4,
        "duration": 1.2,
        "velocity": 0.63,
        "hand": "right"
      },
      {
        "midi": 67,
        "time": 12.6,
        "duration": 0.585,
        "velocity": 0.63,
        "hand": "right"
      },
      {
        "midi": 67,
        "time": 13.2,
        "duration": 0.6,
        "velocity": 0.63,
        "hand": "right"
      },
      {
        "midi": 65,
        "time": 13.8,
        "duration": 0.585,
        "velocity": 0.63,
        "hand": "right"
      },
      {
        "midi": 65,
        "time": 14.4,
        "duration": 0.6,
        "velocity": 0.63,
        "hand": "right"
      },
      {
        "midi": 64,
        "time": 15,
        "duration": 0.585,
        "velocity": 0.63,
        "hand": "right"
      },
      {
        "midi": 64,
        "time": 15.6,
        "duration": 0.6,
        "velocity": 0.63,
        "hand": "right"
      },
      {
        "midi": 62,
        "time": 16.2,
        "duration": 1.2,
        "velocity": 0.63,
        "hand": "right"
      },
      {
        "midi": 67,
        "time": 17.4,
        "duration": 0.585,
        "velocity": 0.63,
        "hand": "right"
      },
      {
        "midi": 67,
        "time": 18,
        "duration": 0.6,
        "velocity": 0.63,
        "hand": "right"
      },
      {
        "midi": 65,
        "time": 18.6,
        "duration": 0.585,
        "velocity": 0.63,
        "hand": "right"
      },
      {
        "midi": 65,
        "time": 19.2,
        "duration": 0.6,
        "velocity": 0.63,
        "hand": "right"
      },
      {
        "midi": 64,
        "time": 19.8,
        "duration": 0.585,
        "velocity": 0.63,
        "hand": "right"
      },
      {
        "midi": 64,
        "time": 20.4,
        "duration": 0.6,
        "velocity": 0.63,
        "hand": "right"
      },
      {
        "midi": 62,
        "time": 24,
        "duration": 1.2,
        "velocity": 0.63,
        "hand": "right"
      },
      {
        "midi": 60,
        "time": 25.2,
        "duration": 0.585,
        "velocity": 0.63,
        "hand": "right"
      },
      {
        "midi": 60,
        "time": 25.8,
        "duration": 0.6,
        "velocity": 0.63,
        "hand": "right"
      },
      {
        "midi": 67,
        "time": 26.4,
        "duration": 0.585,
        "velocity": 0.63,
        "hand": "right"
      },
      {
        "midi": 67,
        "time": 27,
        "duration": 0.6,
        "velocity": 0.63,
        "hand": "right"
      },
      {
        "midi": 69,
        "time": 27.6,
        "duration": 0.585,
        "velocity": 0.63,
        "hand": "right"
      },
      {
        "midi": 69,
        "time": 28.2,
        "duration": 0.6,
        "velocity": 0.63,
        "hand": "right"
      },
      {
        "midi": 67,
        "time": 28.8,
        "duration": 1.2,
        "velocity": 0.63,
        "hand": "right"
      },
      {
        "midi": 65,
        "time": 30,
        "duration": 0.585,
        "velocity": 0.63,
        "hand": "right"
      },
      {
        "midi": 65,
        "time": 30.6,
        "duration": 0.6,
        "velocity": 0.63,
        "hand": "right"
      },
      {
        "midi": 64,
        "time": 31.2,
        "duration": 0.585,
        "velocity": 0.63,
        "hand": "right"
      },
      {
        "midi": 64,
        "time": 31.8,
        "duration": 0.6,
        "velocity": 0.63,
        "hand": "right"
      },
      {
        "midi": 62,
        "time": 32.4,
        "duration": 0.585,
        "velocity": 0.63,
        "hand": "right"
      },
      {
        "midi": 62,
        "time": 33,
        "duration": 0.6,
        "velocity": 0.63,
        "hand": "right"
      },
      {
        "midi": 60,
        "time": 33.6,
        "duration": 2.25,
        "velocity": 0.63,
        "hand": "right"
      }
    ],
    "medium": [
      {
        "midi": 52,
        "time": 0,
        "duration": 1.2,
        "velocity": 0.63,
        "hand": "left"
      },
      {
        "midi": 60,
        "time": 0,
        "duration": 0.585,
        "velocity": 0.63,
        "hand": "right"
      },
      {
        "midi": 55,
        "time": 1.2,
        "duration": 1.2,
        "velocity": 0.63,
        "hand": "left"
      },
      {
        "midi": 67,
        "time": 1.2,
        "duration": 0.585,
        "velocity": 0.63,
        "hand": "right"
      },
      {
        "midi": 57,
        "time": 2.4,
        "duration": 1.2,
        "velocity": 0.63,
        "hand": "left"
      },
      {
        "midi": 69,
        "time": 2.4,
        "duration": 0.585,
        "velocity": 0.63,
        "hand": "right"
      },
      {
        "midi": 55,
        "time": 3.6,
        "duration": 1.2,
        "velocity": 0.63,
        "hand": "left"
      },
      {
        "midi": 67,
        "time": 3.6,
        "duration": 1.2,
        "velocity": 0.63,
        "hand": "right"
      },
      {
        "midi": 53,
        "time": 4.8,
        "duration": 1.2,
        "velocity": 0.63,
        "hand": "left"
      },
      {
        "midi": 65,
        "time": 4.8,
        "duration": 0.585,
        "velocity": 0.63,
        "hand": "right"
      },
      {
        "midi": 52,
        "time": 6,
        "duration": 1.2,
        "velocity": 0.63,
        "hand": "left"
      },
      {
        "midi": 64,
        "time": 6,
        "duration": 0.585,
        "velocity": 0.63,
        "hand": "right"
      },
      {
        "midi": 50,
        "time": 7.2,
        "duration": 1.2,
        "velocity": 0.63,
        "hand": "left"
      },
      {
        "midi": 62,
        "time": 7.2,
        "duration": 0.585,
        "velocity": 0.63,
        "hand": "right"
      },
      {
        "midi": 52,
        "time": 11.4,
        "duration": 1.2,
        "velocity": 0.63,
        "hand": "left"
      },
      {
        "midi": 60,
        "time": 11.4,
        "duration": 1.2,
        "velocity": 0.63,
        "hand": "right"
      },
      {
        "midi": 55,
        "time": 12.6,
        "duration": 1.2,
        "velocity": 0.63,
        "hand": "left"
      },
      {
        "midi": 67,
        "time": 12.6,
        "duration": 0.585,
        "velocity": 0.63,
        "hand": "right"
      },
      {
        "midi": 53,
        "time": 13.8,
        "duration": 1.2,
        "velocity": 0.63,
        "hand": "left"
      },
      {
        "midi": 65,
        "time": 13.8,
        "duration": 0.585,
        "velocity": 0.63,
        "hand": "right"
      },
      {
        "midi": 52,
        "time": 15,
        "duration": 1.2,
        "velocity": 0.63,
        "hand": "left"
      },
      {
        "midi": 64,
        "time": 15,
        "duration": 0.585,
        "velocity": 0.63,
        "hand": "right"
      },
      {
        "midi": 50,
        "time": 16.2,
        "duration": 1.2,
        "velocity": 0.63,
        "hand": "left"
      },
      {
        "midi": 62,
        "time": 16.2,
        "duration": 1.2,
        "velocity": 0.63,
        "hand": "right"
      },
      {
        "midi": 52,
        "time": 17.4,
        "duration": 1.2,
        "velocity": 0.63,
        "hand": "left"
      },
      {
        "midi": 67,
        "time": 17.4,
        "duration": 0.585,
        "velocity": 0.63,
        "hand": "right"
      },
      {
        "midi": 53,
        "time": 18.6,
        "duration": 1.2,
        "velocity": 0.63,
        "hand": "left"
      },
      {
        "midi": 65,
        "time": 18.6,
        "duration": 0.585,
        "velocity": 0.63,
        "hand": "right"
      },
      {
        "midi": 52,
        "time": 19.8,
        "duration": 1.2,
        "velocity": 0.63,
        "hand": "left"
      },
      {
        "midi": 64,
        "time": 19.8,
        "duration": 0.585,
        "velocity": 0.63,
        "hand": "right"
      },
      {
        "midi": 50,
        "time": 24,
        "duration": 1.2,
        "velocity": 0.63,
        "hand": "left"
      },
      {
        "midi": 62,
        "time": 24,
        "duration": 1.2,
        "velocity": 0.63,
        "hand": "right"
      },
      {
        "midi": 52,
        "time": 25.2,
        "duration": 1.2,
        "velocity": 0.63,
        "hand": "left"
      },
      {
        "midi": 60,
        "time": 25.2,
        "duration": 0.585,
        "velocity": 0.63,
        "hand": "right"
      },
      {
        "midi": 55,
        "time": 26.4,
        "duration": 1.2,
        "velocity": 0.63,
        "hand": "left"
      },
      {
        "midi": 67,
        "time": 26.4,
        "duration": 0.585,
        "velocity": 0.63,
        "hand": "right"
      },
      {
        "midi": 57,
        "time": 27.6,
        "duration": 1.2,
        "velocity": 0.63,
        "hand": "left"
      },
      {
        "midi": 69,
        "time": 27.6,
        "duration": 0.585,
        "velocity": 0.63,
        "hand": "right"
      },
      {
        "midi": 55,
        "time": 28.8,
        "duration": 1.2,
        "velocity": 0.63,
        "hand": "left"
      },
      {
        "midi": 67,
        "time": 28.8,
        "duration": 1.2,
        "velocity": 0.63,
        "hand": "right"
      },
      {
        "midi": 53,
        "time": 30,
        "duration": 1.2,
        "velocity": 0.63,
        "hand": "left"
      },
      {
        "midi": 65,
        "time": 30,
        "duration": 0.585,
        "velocity": 0.63,
        "hand": "right"
      },
      {
        "midi": 52,
        "time": 31.2,
        "duration": 1.2,
        "velocity": 0.63,
        "hand": "left"
      },
      {
        "midi": 64,
        "time": 31.2,
        "duration": 0.585,
        "velocity": 0.63,
        "hand": "right"
      },
      {
        "midi": 50,
        "time": 32.4,
        "duration": 1.2,
        "velocity": 0.63,
        "hand": "left"
      },
      {
        "midi": 62,
        "time": 32.4,
        "duration": 0.585,
        "velocity": 0.63,
        "hand": "right"
      },
      {
        "midi": 52,
        "time": 33.6,
        "duration": 2.25,
        "velocity": 0.63,
        "hand": "left"
      },
      {
        "midi": 60,
        "time": 33.6,
        "duration": 2.25,
        "velocity": 0.63,
        "hand": "right"
      }
    ],
    "hard": [
      {
        "midi": 52,
        "time": 0,
        "duration": 1.2,
        "velocity": 0.63,
        "hand": "left"
      },
      {
        "midi": 55,
        "time": 0,
        "duration": 1.185,
        "velocity": 0.63,
        "hand": "left"
      },
      {
        "midi": 60,
        "time": 0,
        "duration": 0.585,
        "velocity": 0.63,
        "hand": "right"
      },
      {
        "midi": 60,
        "time": 0.6,
        "duration": 0.6,
        "velocity": 0.63,
        "hand": "right"
      },
      {
        "midi": 55,
        "time": 1.2,
        "duration": 1.2,
        "velocity": 0.63,
        "hand": "left"
      },
      {
        "midi": 59,
        "time": 1.2,
        "duration": 1.2,
        "velocity": 0.63,
        "hand": "left"
      },
      {
        "midi": 67,
        "time": 1.2,
        "duration": 0.585,
        "velocity": 0.63,
        "hand": "right"
      },
      {
        "midi": 67,
        "time": 1.8,
        "duration": 0.6,
        "velocity": 0.63,
        "hand": "right"
      },
      {
        "midi": 57,
        "time": 2.4,
        "duration": 1.2,
        "velocity": 0.63,
        "hand": "left"
      },
      {
        "midi": 60,
        "time": 2.4,
        "duration": 1.2,
        "velocity": 0.63,
        "hand": "right"
      },
      {
        "midi": 69,
        "time": 2.4,
        "duration": 0.585,
        "velocity": 0.63,
        "hand": "right"
      },
      {
        "midi": 69,
        "time": 3,
        "duration": 0.6,
        "velocity": 0.63,
        "hand": "right"
      },
      {
        "midi": 55,
        "time": 3.6,
        "duration": 1.2,
        "velocity": 0.63,
        "hand": "left"
      },
      {
        "midi": 59,
        "time": 3.6,
        "duration": 1.2,
        "velocity": 0.63,
        "hand": "left"
      },
      {
        "midi": 67,
        "time": 3.6,
        "duration": 1.2,
        "velocity": 0.63,
        "hand": "right"
      },
      {
        "midi": 53,
        "time": 4.8,
        "duration": 1.2,
        "velocity": 0.63,
        "hand": "left"
      },
      {
        "midi": 57,
        "time": 4.8,
        "duration": 1.2,
        "velocity": 0.63,
        "hand": "left"
      },
      {
        "midi": 65,
        "time": 4.8,
        "duration": 0.585,
        "velocity": 0.63,
        "hand": "right"
      },
      {
        "midi": 65,
        "time": 5.4,
        "duration": 0.6,
        "velocity": 0.63,
        "hand": "right"
      },
      {
        "midi": 52,
        "time": 6,
        "duration": 1.2,
        "velocity": 0.63,
        "hand": "left"
      },
      {
        "midi": 55,
        "time": 6,
        "duration": 1.2,
        "velocity": 0.63,
        "hand": "left"
      },
      {
        "midi": 64,
        "time": 6,
        "duration": 0.585,
        "velocity": 0.63,
        "hand": "right"
      },
      {
        "midi": 64,
        "time": 6.6,
        "duration": 0.6,
        "velocity": 0.63,
        "hand": "right"
      },
      {
        "midi": 50,
        "time": 7.2,
        "duration": 1.2,
        "velocity": 0.63,
        "hand": "left"
      },
      {
        "midi": 53,
        "time": 7.2,
        "duration": 1.2,
        "velocity": 0.63,
        "hand": "left"
      },
      {
        "midi": 62,
        "time": 7.2,
        "duration": 0.585,
        "velocity": 0.63,
        "hand": "right"
      },
      {
        "midi": 62,
        "time": 7.8,
        "duration": 0.6,
        "velocity": 0.63,
        "hand": "right"
      },
      {
        "midi": 52,
        "time": 11.4,
        "duration": 1.2,
        "velocity": 0.63,
        "hand": "left"
      },
      {
        "midi": 55,
        "time": 11.4,
        "duration": 1.185,
        "velocity": 0.63,
        "hand": "left"
      },
      {
        "midi": 60,
        "time": 11.4,
        "duration": 1.2,
        "velocity": 0.63,
        "hand": "right"
      },
      {
        "midi": 55,
        "time": 12.6,
        "duration": 1.2,
        "velocity": 0.63,
        "hand": "left"
      },
      {
        "midi": 59,
        "time": 12.6,
        "duration": 1.2,
        "velocity": 0.63,
        "hand": "left"
      },
      {
        "midi": 67,
        "time": 12.6,
        "duration": 0.585,
        "velocity": 0.63,
        "hand": "right"
      },
      {
        "midi": 67,
        "time": 13.2,
        "duration": 0.6,
        "velocity": 0.63,
        "hand": "right"
      },
      {
        "midi": 53,
        "time": 13.8,
        "duration": 1.2,
        "velocity": 0.63,
        "hand": "left"
      },
      {
        "midi": 57,
        "time": 13.8,
        "duration": 1.2,
        "velocity": 0.63,
        "hand": "left"
      },
      {
        "midi": 65,
        "time": 13.8,
        "duration": 0.585,
        "velocity": 0.63,
        "hand": "right"
      },
      {
        "midi": 65,
        "time": 14.4,
        "duration": 0.6,
        "velocity": 0.63,
        "hand": "right"
      },
      {
        "midi": 52,
        "time": 15,
        "duration": 1.2,
        "velocity": 0.63,
        "hand": "left"
      },
      {
        "midi": 55,
        "time": 15,
        "duration": 1.2,
        "velocity": 0.63,
        "hand": "left"
      },
      {
        "midi": 64,
        "time": 15,
        "duration": 0.585,
        "velocity": 0.63,
        "hand": "right"
      },
      {
        "midi": 64,
        "time": 15.6,
        "duration": 0.6,
        "velocity": 0.63,
        "hand": "right"
      },
      {
        "midi": 50,
        "time": 16.2,
        "duration": 1.2,
        "velocity": 0.63,
        "hand": "left"
      },
      {
        "midi": 53,
        "time": 16.2,
        "duration": 1.2,
        "velocity": 0.63,
        "hand": "left"
      },
      {
        "midi": 62,
        "time": 16.2,
        "duration": 1.2,
        "velocity": 0.63,
        "hand": "right"
      },
      {
        "midi": 52,
        "time": 17.4,
        "duration": 1.2,
        "velocity": 0.63,
        "hand": "left"
      },
      {
        "midi": 55,
        "time": 17.4,
        "duration": 1.2,
        "velocity": 0.63,
        "hand": "left"
      },
      {
        "midi": 67,
        "time": 17.4,
        "duration": 0.585,
        "velocity": 0.63,
        "hand": "right"
      },
      {
        "midi": 67,
        "time": 18,
        "duration": 0.6,
        "velocity": 0.63,
        "hand": "right"
      },
      {
        "midi": 53,
        "time": 18.6,
        "duration": 1.2,
        "velocity": 0.63,
        "hand": "left"
      },
      {
        "midi": 57,
        "time": 18.6,
        "duration": 1.2,
        "velocity": 0.63,
        "hand": "left"
      },
      {
        "midi": 65,
        "time": 18.6,
        "duration": 0.585,
        "velocity": 0.63,
        "hand": "right"
      },
      {
        "midi": 65,
        "time": 19.2,
        "duration": 0.6,
        "velocity": 0.63,
        "hand": "right"
      },
      {
        "midi": 52,
        "time": 19.8,
        "duration": 1.2,
        "velocity": 0.63,
        "hand": "left"
      },
      {
        "midi": 55,
        "time": 19.8,
        "duration": 1.2,
        "velocity": 0.63,
        "hand": "left"
      },
      {
        "midi": 64,
        "time": 19.8,
        "duration": 0.585,
        "velocity": 0.63,
        "hand": "right"
      },
      {
        "midi": 64,
        "time": 20.4,
        "duration": 0.6,
        "velocity": 0.63,
        "hand": "right"
      },
      {
        "midi": 50,
        "time": 24,
        "duration": 1.2,
        "velocity": 0.63,
        "hand": "left"
      },
      {
        "midi": 53,
        "time": 24,
        "duration": 1.2,
        "velocity": 0.63,
        "hand": "left"
      },
      {
        "midi": 62,
        "time": 24,
        "duration": 1.2,
        "velocity": 0.63,
        "hand": "right"
      },
      {
        "midi": 52,
        "time": 25.2,
        "duration": 1.2,
        "velocity": 0.63,
        "hand": "left"
      },
      {
        "midi": 55,
        "time": 25.2,
        "duration": 1.185,
        "velocity": 0.63,
        "hand": "left"
      },
      {
        "midi": 60,
        "time": 25.2,
        "duration": 0.585,
        "velocity": 0.63,
        "hand": "right"
      },
      {
        "midi": 60,
        "time": 25.8,
        "duration": 0.6,
        "velocity": 0.63,
        "hand": "right"
      },
      {
        "midi": 55,
        "time": 26.4,
        "duration": 1.2,
        "velocity": 0.63,
        "hand": "left"
      },
      {
        "midi": 59,
        "time": 26.4,
        "duration": 1.2,
        "velocity": 0.63,
        "hand": "left"
      },
      {
        "midi": 67,
        "time": 26.4,
        "duration": 0.585,
        "velocity": 0.63,
        "hand": "right"
      },
      {
        "midi": 67,
        "time": 27,
        "duration": 0.6,
        "velocity": 0.63,
        "hand": "right"
      },
      {
        "midi": 57,
        "time": 27.6,
        "duration": 1.2,
        "velocity": 0.63,
        "hand": "left"
      },
      {
        "midi": 60,
        "time": 27.6,
        "duration": 1.2,
        "velocity": 0.63,
        "hand": "right"
      },
      {
        "midi": 69,
        "time": 27.6,
        "duration": 0.585,
        "velocity": 0.63,
        "hand": "right"
      },
      {
        "midi": 69,
        "time": 28.2,
        "duration": 0.6,
        "velocity": 0.63,
        "hand": "right"
      },
      {
        "midi": 55,
        "time": 28.8,
        "duration": 1.2,
        "velocity": 0.63,
        "hand": "left"
      },
      {
        "midi": 59,
        "time": 28.8,
        "duration": 1.2,
        "velocity": 0.63,
        "hand": "left"
      },
      {
        "midi": 67,
        "time": 28.8,
        "duration": 1.2,
        "velocity": 0.63,
        "hand": "right"
      },
      {
        "midi": 53,
        "time": 30,
        "duration": 1.2,
        "velocity": 0.63,
        "hand": "left"
      },
      {
        "midi": 57,
        "time": 30,
        "duration": 1.2,
        "velocity": 0.63,
        "hand": "left"
      },
      {
        "midi": 65,
        "time": 30,
        "duration": 0.585,
        "velocity": 0.63,
        "hand": "right"
      },
      {
        "midi": 65,
        "time": 30.6,
        "duration": 0.6,
        "velocity": 0.63,
        "hand": "right"
      },
      {
        "midi": 52,
        "time": 31.2,
        "duration": 1.2,
        "velocity": 0.63,
        "hand": "left"
      },
      {
        "midi": 55,
        "time": 31.2,
        "duration": 1.2,
        "velocity": 0.63,
        "hand": "left"
      },
      {
        "midi": 64,
        "time": 31.2,
        "duration": 0.585,
        "velocity": 0.63,
        "hand": "right"
      },
      {
        "midi": 64,
        "time": 31.8,
        "duration": 0.6,
        "velocity": 0.63,
        "hand": "right"
      },
      {
        "midi": 50,
        "time": 32.4,
        "duration": 1.2,
        "velocity": 0.63,
        "hand": "left"
      },
      {
        "midi": 53,
        "time": 32.4,
        "duration": 1.2,
        "velocity": 0.63,
        "hand": "left"
      },
      {
        "midi": 62,
        "time": 32.4,
        "duration": 0.585,
        "velocity": 0.63,
        "hand": "right"
      },
      {
        "midi": 62,
        "time": 33,
        "duration": 0.6,
        "velocity": 0.63,
        "hand": "right"
      },
      {
        "midi": 52,
        "time": 33.6,
        "duration": 2.25,
        "velocity": 0.63,
        "hand": "left"
      },
      {
        "midi": 55,
        "time": 33.6,
        "duration": 2.25,
        "velocity": 0.63,
        "hand": "left"
      },
      {
        "midi": 60,
        "time": 33.6,
        "duration": 2.25,
        "velocity": 0.63,
        "hand": "right"
      }
    ]
  },
  "notes1Hand": [
    {
      "midi": 60,
      "time": 0,
      "duration": 0.585,
      "velocity": 0.63,
      "hand": "right"
    },
    {
      "midi": 60,
      "time": 0.6,
      "duration": 0.6,
      "velocity": 0.63,
      "hand": "right"
    },
    {
      "midi": 67,
      "time": 1.2,
      "duration": 0.585,
      "velocity": 0.63,
      "hand": "right"
    },
    {
      "midi": 67,
      "time": 1.8,
      "duration": 0.6,
      "velocity": 0.63,
      "hand": "right"
    },
    {
      "midi": 69,
      "time": 2.4,
      "duration": 0.585,
      "velocity": 0.63,
      "hand": "right"
    },
    {
      "midi": 69,
      "time": 3,
      "duration": 0.6,
      "velocity": 0.63,
      "hand": "right"
    },
    {
      "midi": 67,
      "time": 3.6,
      "duration": 1.2,
      "velocity": 0.63,
      "hand": "right"
    },
    {
      "midi": 65,
      "time": 4.8,
      "duration": 0.585,
      "velocity": 0.63,
      "hand": "right"
    },
    {
      "midi": 65,
      "time": 5.4,
      "duration": 0.6,
      "velocity": 0.63,
      "hand": "right"
    },
    {
      "midi": 64,
      "time": 6,
      "duration": 0.585,
      "velocity": 0.63,
      "hand": "right"
    },
    {
      "midi": 64,
      "time": 6.6,
      "duration": 0.6,
      "velocity": 0.63,
      "hand": "right"
    },
    {
      "midi": 62,
      "time": 7.2,
      "duration": 0.585,
      "velocity": 0.63,
      "hand": "right"
    },
    {
      "midi": 62,
      "time": 7.8,
      "duration": 0.6,
      "velocity": 0.63,
      "hand": "right"
    },
    {
      "midi": 60,
      "time": 11.4,
      "duration": 1.2,
      "velocity": 0.63,
      "hand": "right"
    },
    {
      "midi": 67,
      "time": 12.6,
      "duration": 0.585,
      "velocity": 0.63,
      "hand": "right"
    },
    {
      "midi": 67,
      "time": 13.2,
      "duration": 0.6,
      "velocity": 0.63,
      "hand": "right"
    },
    {
      "midi": 65,
      "time": 13.8,
      "duration": 0.585,
      "velocity": 0.63,
      "hand": "right"
    },
    {
      "midi": 65,
      "time": 14.4,
      "duration": 0.6,
      "velocity": 0.63,
      "hand": "right"
    },
    {
      "midi": 64,
      "time": 15,
      "duration": 0.585,
      "velocity": 0.63,
      "hand": "right"
    },
    {
      "midi": 64,
      "time": 15.6,
      "duration": 0.6,
      "velocity": 0.63,
      "hand": "right"
    },
    {
      "midi": 62,
      "time": 16.2,
      "duration": 1.2,
      "velocity": 0.63,
      "hand": "right"
    },
    {
      "midi": 67,
      "time": 17.4,
      "duration": 0.585,
      "velocity": 0.63,
      "hand": "right"
    },
    {
      "midi": 67,
      "time": 18,
      "duration": 0.6,
      "velocity": 0.63,
      "hand": "right"
    },
    {
      "midi": 65,
      "time": 18.6,
      "duration": 0.585,
      "velocity": 0.63,
      "hand": "right"
    },
    {
      "midi": 65,
      "time": 19.2,
      "duration": 0.6,
      "velocity": 0.63,
      "hand": "right"
    },
    {
      "midi": 64,
      "time": 19.8,
      "duration": 0.585,
      "velocity": 0.63,
      "hand": "right"
    },
    {
      "midi": 64,
      "time": 20.4,
      "duration": 0.6,
      "velocity": 0.63,
      "hand": "right"
    },
    {
      "midi": 62,
      "time": 24,
      "duration": 1.2,
      "velocity": 0.63,
      "hand": "right"
    },
    {
      "midi": 60,
      "time": 25.2,
      "duration": 0.585,
      "velocity": 0.63,
      "hand": "right"
    },
    {
      "midi": 60,
      "time": 25.8,
      "duration": 0.6,
      "velocity": 0.63,
      "hand": "right"
    },
    {
      "midi": 67,
      "time": 26.4,
      "duration": 0.585,
      "velocity": 0.63,
      "hand": "right"
    },
    {
      "midi": 67,
      "time": 27,
      "duration": 0.6,
      "velocity": 0.63,
      "hand": "right"
    },
    {
      "midi": 69,
      "time": 27.6,
      "duration": 0.585,
      "velocity": 0.63,
      "hand": "right"
    },
    {
      "midi": 69,
      "time": 28.2,
      "duration": 0.6,
      "velocity": 0.63,
      "hand": "right"
    },
    {
      "midi": 67,
      "time": 28.8,
      "duration": 1.2,
      "velocity": 0.63,
      "hand": "right"
    },
    {
      "midi": 65,
      "time": 30,
      "duration": 0.585,
      "velocity": 0.63,
      "hand": "right"
    },
    {
      "midi": 65,
      "time": 30.6,
      "duration": 0.6,
      "velocity": 0.63,
      "hand": "right"
    },
    {
      "midi": 64,
      "time": 31.2,
      "duration": 0.585,
      "velocity": 0.63,
      "hand": "right"
    },
    {
      "midi": 64,
      "time": 31.8,
      "duration": 0.6,
      "velocity": 0.63,
      "hand": "right"
    },
    {
      "midi": 62,
      "time": 32.4,
      "duration": 0.585,
      "velocity": 0.63,
      "hand": "right"
    },
    {
      "midi": 62,
      "time": 33,
      "duration": 0.6,
      "velocity": 0.63,
      "hand": "right"
    },
    {
      "midi": 60,
      "time": 33.6,
      "duration": 2.25,
      "velocity": 0.63,
      "hand": "right"
    }
  ],
  "notes2Hands": [
    {
      "midi": 52,
      "time": 0,
      "duration": 1.2,
      "velocity": 0.63,
      "hand": "left"
    },
    {
      "midi": 55,
      "time": 0,
      "duration": 1.185,
      "velocity": 0.63,
      "hand": "left"
    },
    {
      "midi": 60,
      "time": 0,
      "duration": 0.585,
      "velocity": 0.63,
      "hand": "right"
    },
    {
      "midi": 60,
      "time": 0.6,
      "duration": 0.6,
      "velocity": 0.63,
      "hand": "right"
    },
    {
      "midi": 55,
      "time": 1.2,
      "duration": 1.2,
      "velocity": 0.63,
      "hand": "left"
    },
    {
      "midi": 59,
      "time": 1.2,
      "duration": 1.2,
      "velocity": 0.63,
      "hand": "left"
    },
    {
      "midi": 67,
      "time": 1.2,
      "duration": 0.585,
      "velocity": 0.63,
      "hand": "right"
    },
    {
      "midi": 67,
      "time": 1.8,
      "duration": 0.6,
      "velocity": 0.63,
      "hand": "right"
    },
    {
      "midi": 57,
      "time": 2.4,
      "duration": 1.2,
      "velocity": 0.63,
      "hand": "left"
    },
    {
      "midi": 60,
      "time": 2.4,
      "duration": 1.2,
      "velocity": 0.63,
      "hand": "right"
    },
    {
      "midi": 69,
      "time": 2.4,
      "duration": 0.585,
      "velocity": 0.63,
      "hand": "right"
    },
    {
      "midi": 69,
      "time": 3,
      "duration": 0.6,
      "velocity": 0.63,
      "hand": "right"
    },
    {
      "midi": 55,
      "time": 3.6,
      "duration": 1.2,
      "velocity": 0.63,
      "hand": "left"
    },
    {
      "midi": 59,
      "time": 3.6,
      "duration": 1.2,
      "velocity": 0.63,
      "hand": "left"
    },
    {
      "midi": 67,
      "time": 3.6,
      "duration": 1.2,
      "velocity": 0.63,
      "hand": "right"
    },
    {
      "midi": 53,
      "time": 4.8,
      "duration": 1.2,
      "velocity": 0.63,
      "hand": "left"
    },
    {
      "midi": 57,
      "time": 4.8,
      "duration": 1.2,
      "velocity": 0.63,
      "hand": "left"
    },
    {
      "midi": 65,
      "time": 4.8,
      "duration": 0.585,
      "velocity": 0.63,
      "hand": "right"
    },
    {
      "midi": 65,
      "time": 5.4,
      "duration": 0.6,
      "velocity": 0.63,
      "hand": "right"
    },
    {
      "midi": 52,
      "time": 6,
      "duration": 1.2,
      "velocity": 0.63,
      "hand": "left"
    },
    {
      "midi": 55,
      "time": 6,
      "duration": 1.2,
      "velocity": 0.63,
      "hand": "left"
    },
    {
      "midi": 64,
      "time": 6,
      "duration": 0.585,
      "velocity": 0.63,
      "hand": "right"
    },
    {
      "midi": 64,
      "time": 6.6,
      "duration": 0.6,
      "velocity": 0.63,
      "hand": "right"
    },
    {
      "midi": 50,
      "time": 7.2,
      "duration": 1.2,
      "velocity": 0.63,
      "hand": "left"
    },
    {
      "midi": 53,
      "time": 7.2,
      "duration": 1.2,
      "velocity": 0.63,
      "hand": "left"
    },
    {
      "midi": 62,
      "time": 7.2,
      "duration": 0.585,
      "velocity": 0.63,
      "hand": "right"
    },
    {
      "midi": 62,
      "time": 7.8,
      "duration": 0.6,
      "velocity": 0.63,
      "hand": "right"
    },
    {
      "midi": 52,
      "time": 11.4,
      "duration": 1.2,
      "velocity": 0.63,
      "hand": "left"
    },
    {
      "midi": 55,
      "time": 11.4,
      "duration": 1.185,
      "velocity": 0.63,
      "hand": "left"
    },
    {
      "midi": 60,
      "time": 11.4,
      "duration": 1.2,
      "velocity": 0.63,
      "hand": "right"
    },
    {
      "midi": 55,
      "time": 12.6,
      "duration": 1.2,
      "velocity": 0.63,
      "hand": "left"
    },
    {
      "midi": 59,
      "time": 12.6,
      "duration": 1.2,
      "velocity": 0.63,
      "hand": "left"
    },
    {
      "midi": 67,
      "time": 12.6,
      "duration": 0.585,
      "velocity": 0.63,
      "hand": "right"
    },
    {
      "midi": 67,
      "time": 13.2,
      "duration": 0.6,
      "velocity": 0.63,
      "hand": "right"
    },
    {
      "midi": 53,
      "time": 13.8,
      "duration": 1.2,
      "velocity": 0.63,
      "hand": "left"
    },
    {
      "midi": 57,
      "time": 13.8,
      "duration": 1.2,
      "velocity": 0.63,
      "hand": "left"
    },
    {
      "midi": 65,
      "time": 13.8,
      "duration": 0.585,
      "velocity": 0.63,
      "hand": "right"
    },
    {
      "midi": 65,
      "time": 14.4,
      "duration": 0.6,
      "velocity": 0.63,
      "hand": "right"
    },
    {
      "midi": 52,
      "time": 15,
      "duration": 1.2,
      "velocity": 0.63,
      "hand": "left"
    },
    {
      "midi": 55,
      "time": 15,
      "duration": 1.2,
      "velocity": 0.63,
      "hand": "left"
    },
    {
      "midi": 64,
      "time": 15,
      "duration": 0.585,
      "velocity": 0.63,
      "hand": "right"
    },
    {
      "midi": 64,
      "time": 15.6,
      "duration": 0.6,
      "velocity": 0.63,
      "hand": "right"
    },
    {
      "midi": 50,
      "time": 16.2,
      "duration": 1.2,
      "velocity": 0.63,
      "hand": "left"
    },
    {
      "midi": 53,
      "time": 16.2,
      "duration": 1.2,
      "velocity": 0.63,
      "hand": "left"
    },
    {
      "midi": 62,
      "time": 16.2,
      "duration": 1.2,
      "velocity": 0.63,
      "hand": "right"
    },
    {
      "midi": 52,
      "time": 17.4,
      "duration": 1.2,
      "velocity": 0.63,
      "hand": "left"
    },
    {
      "midi": 55,
      "time": 17.4,
      "duration": 1.2,
      "velocity": 0.63,
      "hand": "left"
    },
    {
      "midi": 67,
      "time": 17.4,
      "duration": 0.585,
      "velocity": 0.63,
      "hand": "right"
    },
    {
      "midi": 67,
      "time": 18,
      "duration": 0.6,
      "velocity": 0.63,
      "hand": "right"
    },
    {
      "midi": 53,
      "time": 18.6,
      "duration": 1.2,
      "velocity": 0.63,
      "hand": "left"
    },
    {
      "midi": 57,
      "time": 18.6,
      "duration": 1.2,
      "velocity": 0.63,
      "hand": "left"
    },
    {
      "midi": 65,
      "time": 18.6,
      "duration": 0.585,
      "velocity": 0.63,
      "hand": "right"
    },
    {
      "midi": 65,
      "time": 19.2,
      "duration": 0.6,
      "velocity": 0.63,
      "hand": "right"
    },
    {
      "midi": 52,
      "time": 19.8,
      "duration": 1.2,
      "velocity": 0.63,
      "hand": "left"
    },
    {
      "midi": 55,
      "time": 19.8,
      "duration": 1.2,
      "velocity": 0.63,
      "hand": "left"
    },
    {
      "midi": 64,
      "time": 19.8,
      "duration": 0.585,
      "velocity": 0.63,
      "hand": "right"
    },
    {
      "midi": 64,
      "time": 20.4,
      "duration": 0.6,
      "velocity": 0.63,
      "hand": "right"
    },
    {
      "midi": 50,
      "time": 24,
      "duration": 1.2,
      "velocity": 0.63,
      "hand": "left"
    },
    {
      "midi": 53,
      "time": 24,
      "duration": 1.2,
      "velocity": 0.63,
      "hand": "left"
    },
    {
      "midi": 62,
      "time": 24,
      "duration": 1.2,
      "velocity": 0.63,
      "hand": "right"
    },
    {
      "midi": 52,
      "time": 25.2,
      "duration": 1.2,
      "velocity": 0.63,
      "hand": "left"
    },
    {
      "midi": 55,
      "time": 25.2,
      "duration": 1.185,
      "velocity": 0.63,
      "hand": "left"
    },
    {
      "midi": 60,
      "time": 25.2,
      "duration": 0.585,
      "velocity": 0.63,
      "hand": "right"
    },
    {
      "midi": 60,
      "time": 25.8,
      "duration": 0.6,
      "velocity": 0.63,
      "hand": "right"
    },
    {
      "midi": 55,
      "time": 26.4,
      "duration": 1.2,
      "velocity": 0.63,
      "hand": "left"
    },
    {
      "midi": 59,
      "time": 26.4,
      "duration": 1.2,
      "velocity": 0.63,
      "hand": "left"
    },
    {
      "midi": 67,
      "time": 26.4,
      "duration": 0.585,
      "velocity": 0.63,
      "hand": "right"
    },
    {
      "midi": 67,
      "time": 27,
      "duration": 0.6,
      "velocity": 0.63,
      "hand": "right"
    },
    {
      "midi": 57,
      "time": 27.6,
      "duration": 1.2,
      "velocity": 0.63,
      "hand": "left"
    },
    {
      "midi": 60,
      "time": 27.6,
      "duration": 1.2,
      "velocity": 0.63,
      "hand": "right"
    },
    {
      "midi": 69,
      "time": 27.6,
      "duration": 0.585,
      "velocity": 0.63,
      "hand": "right"
    },
    {
      "midi": 69,
      "time": 28.2,
      "duration": 0.6,
      "velocity": 0.63,
      "hand": "right"
    },
    {
      "midi": 55,
      "time": 28.8,
      "duration": 1.2,
      "velocity": 0.63,
      "hand": "left"
    },
    {
      "midi": 59,
      "time": 28.8,
      "duration": 1.2,
      "velocity": 0.63,
      "hand": "left"
    },
    {
      "midi": 67,
      "time": 28.8,
      "duration": 1.2,
      "velocity": 0.63,
      "hand": "right"
    },
    {
      "midi": 53,
      "time": 30,
      "duration": 1.2,
      "velocity": 0.63,
      "hand": "left"
    },
    {
      "midi": 57,
      "time": 30,
      "duration": 1.2,
      "velocity": 0.63,
      "hand": "left"
    },
    {
      "midi": 65,
      "time": 30,
      "duration": 0.585,
      "velocity": 0.63,
      "hand": "right"
    },
    {
      "midi": 65,
      "time": 30.6,
      "duration": 0.6,
      "velocity": 0.63,
      "hand": "right"
    },
    {
      "midi": 52,
      "time": 31.2,
      "duration": 1.2,
      "velocity": 0.63,
      "hand": "left"
    },
    {
      "midi": 55,
      "time": 31.2,
      "duration": 1.2,
      "velocity": 0.63,
      "hand": "left"
    },
    {
      "midi": 64,
      "time": 31.2,
      "duration": 0.585,
      "velocity": 0.63,
      "hand": "right"
    },
    {
      "midi": 64,
      "time": 31.8,
      "duration": 0.6,
      "velocity": 0.63,
      "hand": "right"
    },
    {
      "midi": 50,
      "time": 32.4,
      "duration": 1.2,
      "velocity": 0.63,
      "hand": "left"
    },
    {
      "midi": 53,
      "time": 32.4,
      "duration": 1.2,
      "velocity": 0.63,
      "hand": "left"
    },
    {
      "midi": 62,
      "time": 32.4,
      "duration": 0.585,
      "velocity": 0.63,
      "hand": "right"
    },
    {
      "midi": 62,
      "time": 33,
      "duration": 0.6,
      "velocity": 0.63,
      "hand": "right"
    },
    {
      "midi": 52,
      "time": 33.6,
      "duration": 2.25,
      "velocity": 0.63,
      "hand": "left"
    },
    {
      "midi": 55,
      "time": 33.6,
      "duration": 2.25,
      "velocity": 0.63,
      "hand": "left"
    },
    {
      "midi": 60,
      "time": 33.6,
      "duration": 2.25,
      "velocity": 0.63,
      "hand": "right"
    }
  ]
}
