{
  "id": "carneirinho-carneirao",
  "title": "Carneirinho, Carneirão",
  "artist": "Tradicional",
  "difficulty": "Fácil",
  "bpm": 100,
  "duration": 57,
  "category": "Infantis",
  "isPremium": false,
  "coverUrl": "/images/covers/placeholder.png",
  "notes": [
    {
      "midi": 57,
      "time": 0,
      "duration": 0.3,
      "velocity": 0.63,
      "hand": "left"
    },
    {
      "midi": 65,
      "time": 0,
      "duration": 0.3,
      "velocity": 0.63,
      "hand": "right"
    },
    {
      "midi": 69,
      "time": 0,
      "duration": 0.3,
      "velocity": 0.63,
      "hand": "right"
    },
    {
      "midi": 58,
      "time": 0.3,
      "duration": 0.3,
      "velocity": 0.63,
      "hand": "left"
    },
    {
      "midi": 67,
      "time": 0.3,
      "duration": 0.3,
      "velocity": 0.63,
      "hand": "right"
    },
    {
      "midi": 70,
      "time": 0.3,
      "duration": 0.3,
      "velocity": 0.63,
      "hand": "right"
    },
    {
      "midi": 60,
      "time": 0.6,
      "duration": 0.45,
      "velocity": 0.63,
      "hand": "right"
    },
    {
      "midi": 69,
      "time": 0.6,
      "duration": 0.9,
      "velocity": 0.63,
      "hand": "right"
    },
    {
      "midi": 72,
      "time": 0.6,
      "duration": 0.9,
      "velocity": 0.63,
      "hand": "right"
    },
    {
      "midi": 57,
      "time": 1.2,
      "duration": 0.45,
      "velocity": 0.63,
      "hand": "left"
    },
    {
      "midi": 65,
      "time": 1.5,
      "duration": 0.3,
      "velocity": 0.63,
      "hand": "right"
    },
    {
      "midi": 69,
      "time": 1.5,
      "duration": 0.3,
      "velocity": 0.63,
      "hand": "right"
    },
    {
      "midi": 62,
      "time": 1.8,
      "duration": 0.9,
      "velocity": 0.63,
      "hand": "right"
    },
    {
      "midi": 66,
      "time": 1.8,
      "duration": 0.9,
      "velocity": 0.63,
      "hand": "right"
    },
    {
      "midi": 74,
      "time": 1.8,
      "duration": 0.9,
      "velocity": 0.63,
      "hand": "right"
    },
    {
      "midi": 69,
      "time": 2.7,
      "duration": 0.3,
      "velocity": 0.63,
      "hand": "right"
    },
    {
      "midi": 72,
      "time": 2.7,
      "duration": 0.3,
      "velocity": 0.63,
      "hand": "right"
    },
    {
      "midi": 58,
      "time": 3,
      "duration": 0.3,
      "velocity": 0.63,
      "hand": "left"
    },
    {
      "midi": 70,
      "time": 3,
      "duration": 0.3,
      "velocity": 0.63,
      "hand": "right"
    },
    {
      "midi": 74,
      "time": 3,
      "duration": 0.3,
      "velocity": 0.63,
      "hand": "right"
    },
    {
      "midi": 57,
      "time": 3.3,
      "duration": 0.3,
      "velocity": 0.63,
      "hand": "left"
    },
    {
      "midi": 69,
      "time": 3.3,
      "duration": 0.3,
      "velocity": 0.63,
      "hand": "right"
    },
    {
      "midi": 72,
      "time": 3.3,
      "duration": 0.3,
      "velocity": 0.63,
      "hand": "right"
    },
    {
      "midi": 55,
      "time": 3.6,
      "duration": 0.3,
      "velocity": 0.63,
      "hand": "left"
    },
    {
      "midi": 67,
      "time": 3.6,
      "duration": 0.3,
      "velocity": 0.63,
      "hand": "right"
    },
    {
      "midi": 70,
      "time": 3.6,
      "duration": 0.3,
      "velocity": 0.63,
      "hand": "right"
    },
    {
      "midi": 57,
      "time": 3.9,
      "duration": 0.3,
      "velocity": 0.63,
      "hand": "left"
    },
    {
      "midi": 69,
      "time": 3.9,
      "duration": 0.3,
      "velocity": 0.63,
      "hand": "right"
    },
    {
      "midi": 72,
      "time": 3.9,
      "duration": 0.3,
      "velocity": 0.63,
      "hand": "right"
    },
    {
      "midi": 58,
      "time": 4.2,
      "duration": 0.3,
      "velocity": 0.63,
      "hand": "left"
    },
    {
      "midi": 70,
      "time": 4.2,
      "duration": 0.3,
      "velocity": 0.63,
      "hand": "right"
    },
    {
      "midi": 74,
      "time": 4.2,
      "duration": 0.3,
      "velocity": 0.63,
      "hand": "right"
    },
    {
      "midi": 57,
      "time": 4.5,
      "duration": 0.3,
      "velocity": 0.63,
      "hand": "left"
    },
    {
      "midi": 69,
      "time": 4.5,
      "duration": 0.3,
      "velocity": 0.63,
      "hand": "right"
    },
    {
      "midi": 72,
      "time": 4.5,
      "duration": 0.3,
      "velocity": 0.63,
      "hand": "right"
    },
    {
      "midi": 55,
      "time": 4.8,
      "duration": 0.3,
      "velocity": 0.63,
      "hand": "left"
    },
    {
      "midi": 67,
      "time": 4.8,
      "duration": 0.3,
      "velocity": 0.63,
      "hand": "right"
    },
    {
      "midi": 70,
      "time": 4.8,
      "duration": 0.3,
      "velocity": 0.63,
      "hand": "right"
    },
    {
      "midi": 57,
      "time": 5.1,
      "duration": 0.3,
      "velocity": 0.63,
      "hand": "left"
    },
    {
      "midi": 69,
      "time": 5.1,
      "duration": 0.3,
      "velocity": 0.63,
      "hand": "right"
    },
    {
      "midi": 58,
      "time": 5.4,
      "duration": 0.45,
      "velocity": 0.63,
      "hand": "left"
    },
    {
      "midi": 67,
      "time": 5.4,
      "duration": 0.9,
      "velocity": 0.63,
      "hand": "right"
    },
    {
      "midi": 70,
      "time": 5.4,
      "duration": 0.9,
      "velocity": 0.63,
      "hand": "right"
    },
    {
      "midi": 62,
      "time": 6,
      "duration": 0.45,
      "velocity": 0.63,
      "hand": "right"
    },
    {
      "midi": 70,
      "time": 6.3,
      "duration": 0.3,
      "velocity": 0.63,
      "hand": "right"
    },
    {
      "midi": 74,
      "time": 6.3,
      "duration": 0.3,
      "velocity": 0.63,
      "hand": "right"
    },
    {
      "midi": 60,
      "time": 6.6,
      "duration": 0.9,
      "velocity": 0.63,
      "hand": "right"
    },
    {
      "midi": 64,
      "time": 6.6,
      "duration": 0.9,
      "velocity": 0.63,
      "hand": "right"
    },
    {
      "midi": 72,
      "time": 6.6,
      "duration": 0.9,
      "velocity": 0.63,
      "hand": "right"
    },
    {
      "midi": 67,
      "time": 7.5,
      "duration": 0.3,
      "velocity": 0.63,
      "hand": "right"
    },
    {
      "midi": 70,
      "time": 7.5,
      "duration": 0.3,
      "velocity": 0.63,
      "hand": "right"
    },
    {
      "midi": 57,
      "time": 7.8,
      "duration": 0.3,
      "velocity": 0.63,
      "hand": "left"
    },
    {
      "midi": 69,
      "time": 7.8,
      "duration": 0.3,
      "velocity": 0.63,
      "hand": "right"
    },
    {
      "midi": 72,
      "time": 7.8,
      "duration": 0.3,
      "velocity": 0.63,
      "hand": "right"
    },
    {
      "midi": 55,
      "time": 8.1,
      "duration": 0.3,
      "velocity": 0.63,
      "hand": "left"
    },
    {
      "midi": 67,
      "time": 8.1,
      "duration": 0.3,
      "velocity": 0.63,
      "hand": "right"
    },
    {
      "midi": 70,
      "time": 8.1,
      "duration": 0.3,
      "velocity": 0.63,
      "hand": "right"
    },
    {
      "midi": 53,
      "time": 8.4,
      "duration": 0.3,
      "velocity": 0.63,
      "hand": "left"
    },
    {
      "midi": 65,
      "time": 8.4,
      "duration": 0.3,
      "velocity": 0.63,
      "hand": "right"
    },
    {
      "midi": 69,
      "time": 8.4,
      "duration": 0.3,
      "velocity": 0.63,
      "hand": "right"
    },
    {
      "midi": 55,
      "time": 8.7,
      "duration": 0.3,
      "velocity": 0.63,
      "hand": "left"
    },
    {
      "midi": 67,
      "time": 8.7,
      "duration": 0.3,
      "velocity": 0.63,
      "hand": "right"
    },
    {
      "midi": 57,
      "time": 9,
      "duration": 0.6,
      "velocity": 0.63,
      "hand": "left"
    },
    {
      "midi": 65,
      "time": 9,
      "duration": 0.6,
      "velocity": 0.63,
      "hand": "right"
    },
    {
      "midi": 69,
      "time": 9,
      "duration": 0.6,
      "velocity": 0.63,
      "hand": "right"
    },
    {
      "midi": 53,
      "time": 9.6,
      "duration": 0.3,
      "velocity": 0.63,
      "hand": "left"
    },
    {
      "midi": 62,
      "time": 9.6,
      "duration": 0.3,
      "velocity": 0.63,
      "hand": "right"
    },
    {
      "midi": 65,
      "time": 9.6,
      "duration": 0.3,
      "velocity": 0.63,
      "hand": "right"
    },
    {
      "midi": 55,
      "time": 9.9,
      "duration": 0.3,
      "velocity": 0.63,
      "hand": "left"
    },
    {
      "midi": 64,
      "time": 9.9,
      "duration": 0.3,
      "velocity": 0.63,
      "hand": "right"
    },
    {
      "midi": 67,
      "time": 9.9,
      "duration": 0.3,
      "velocity": 0.63,
      "hand": "right"
    },
    {
      "midi": 57,
      "time": 10.2,
      "duration": 0.45,
      "velocity": 0.63,
      "hand": "left"
    },
    {
      "midi": 65,
      "time": 10.2,
      "duration": 0.9,
      "velocity": 0.63,
      "hand": "right"
    },
    {
      "midi": 69,
      "time": 10.2,
      "duration": 0.9,
      "velocity": 0.63,
      "hand": "right"
    },
    {
      "midi": 53,
      "time": 10.8,
      "duration": 0.45,
      "velocity": 0.63,
      "hand": "left"
    },
    {
      "midi": 62,
      "time": 11.1,
      "duration": 0.3,
      "velocity": 0.63,
      "hand": "right"
    },
    {
      "midi": 65,
      "time": 11.1,
      "duration": 0.3,
      "velocity": 0.63,
      "hand": "right"
    },
    {
      "midi": 58,
      "time": 11.4,
      "duration": 0.9,
      "velocity": 0.63,
      "hand": "left"
    },
    {
      "midi": 62,
      "time": 11.4,
      "duration": 0.9,
      "velocity": 0.63,
      "hand": "right"
    },
    {
      "midi": 70,
      "time": 11.4,
      "duration": 0.9,
      "velocity": 0.63,
      "hand": "right"
    },
    {
      "midi": 65,
      "time": 12.3,
      "duration": 0.3,
      "velocity": 0.63,
      "hand": "right"
    },
    {
      "midi": 69,
      "time": 12.3,
      "duration": 0.3,
      "velocity": 0.63,
      "hand": "right"
    },
    {
      "midi": 55,
      "time": 12.6,
      "duration": 0.3,
      "velocity": 0.63,
      "hand": "left"
    },
    {
      "midi": 64,
      "time": 12.6,
      "duration": 0.3,
      "velocity": 0.63,
      "hand": "right"
    },
    {
      "midi": 67,
      "time": 12.6,
      "duration": 0.3,
      "velocity": 0.63,
      "hand": "right"
    },
    {
      "midi": 53,
      "time": 12.9,
      "duration": 0.3,
      "velocity": 0.63,
      "hand": "left"
    },
    {
      "midi": 62,
      "time": 12.9,
      "duration": 0.3,
      "velocity": 0.63,
      "hand": "right"
    },
    {
      "midi": 65,
      "time": 12.9,
      "duration": 0.3,
      "velocity": 0.63,
      "hand": "right"
    },
    {
      "midi": 52,
      "time": 13.2,
      "duration": 0.3,
      "velocity": 0.63,
      "hand": "left"
    },
    {
      "midi": 60,
      "time": 13.2,
      "duration": 0.3,
      "velocity": 0.63,
      "hand": "right"
    },
    {
      "midi": 64,
      "time": 13.2,
      "duration": 0.3,
      "velocity": 0.63,
      "hand": "right"
    },
    {
      "midi": 53,
      "time": 13.5,
      "duration": 0.3,
      "velocity": 0.63,
      "hand": "left"
    },
    {
      "midi": 62,
      "time": 13.5,
      "duration": 0.3,
      "velocity": 0.63,
      "hand": "right"
    },
    {
      "midi": 65,
      "time": 13.5,
      "duration": 0.3,
      "velocity": 0.63,
      "hand": "right"
    },
    {
      "midi": 55,
      "time": 13.8,
      "duration": 0.6,
      "velocity": 0.63,
      "hand": "left"
    },
    {
      "midi": 64,
      "time": 13.8,
      "duration": 0.6,
      "velocity": 0.63,
      "hand": "right"
    },
    {
      "midi": 67,
      "time": 13.8,
      "duration": 0.6,
      "velocity": 0.63,
      "hand": "right"
    },
    {
      "midi": 64,
      "time": 14.4,
      "duration": 0.3,
      "velocity": 0.63,
      "hand": "right"
    },
    {
      "midi": 67,
      "time": 14.4,
      "duration": 0.3,
      "velocity": 0.63,
      "hand": "right"
    },
    {
      "midi": 76,
      "time": 14.4,
      "duration": 0.3,
      "velocity": 0.63,
      "hand": "right"
    },
    {
      "midi": 62,
      "time": 14.7,
      "duration": 0.3,
      "velocity": 0.63,
      "hand": "right"
    },
    {
      "midi": 65,
      "time": 14.7,
      "duration": 0.3,
      "velocity": 0.63,
      "hand": "right"
    },
    {
      "midi": 74,
      "time": 14.7,
      "duration": 0.3,
      "velocity": 0.63,
      "hand": "right"
    },
    {
      "midi": 60,
      "time": 15,
      "duration": 0.45,
      "velocity": 0.63,
      "hand": "right"
    },
    {
      "midi": 64,
      "time": 15,
      "duration": 0.9,
      "velocity": 0.63,
      "hand": "right"
    },
    {
      "midi": 72,
      "time": 15,
      "duration": 0.9,
      "velocity": 0.63,
      "hand": "right"
    },
    {
      "midi": 58,
      "time": 15.6,
      "duration": 0.45,
      "velocity": 0.63,
      "hand": "left"
    },
    {
      "midi": 70,
      "time": 15.9,
      "duration": 0.3,
      "velocity": 0.63,
      "hand": "right"
    },
    {
      "midi": 74,
      "time": 15.9,
      "duration": 0.3,
      "velocity": 0.63,
      "hand": "right"
    },
    {
      "midi": 57,
      "time": 16.2,
      "duration": 0.9,
      "velocity": 0.63,
      "hand": "left"
    },
    {
      "midi": 69,
      "time": 16.2,
      "duration": 0.9,
      "velocity": 0.63,
      "hand": "right"
    },
    {
      "midi": 72,
      "time": 16.2,
      "duration": 0.9,
      "velocity": 0.63,
      "hand": "right"
    },
    {
      "midi": 67,
      "time": 17.1,
      "duration": 0.3,
      "velocity": 0.63,
      "hand": "right"
    },
    {
      "midi": 70,
      "time": 17.1,
      "duration": 0.3,
      "velocity": 0.63,
      "hand": "right"
    },
    {
      "midi": 53,
      "time": 17.4,
      "duration": 0.9,
      "velocity": 0.63,
      "hand": "left"
    },
    {
      "midi": 65,
      "time": 17.4,
      "duration": 0.6,
      "velocity": 0.63,
      "hand": "right"
    },
    {
      "midi": 69,
      "time": 17.4,
      "duration": 0.6,
      "velocity": 0.63,
      "hand": "right"
    },
    {
      "midi": 65,
      "time": 18,
      "duration": 0.6,
      "velocity": 0.63,
      "hand": "right"
    },
    {
      "midi": 69,
      "time": 18,
      "duration": 0.6,
      "velocity": 0.63,
      "hand": "right"
    },
    {
      "midi": 53,
      "time": 18.6,
      "duration": 0.45,
      "velocity": 0.63,
      "hand": "left"
    },
    {
      "midi": 52,
      "time": 19.2,
      "duration": 0.3,
      "velocity": 0.63,
      "hand": "left"
    },
    {
      "midi": 60,
      "time": 19.2,
      "duration": 0.3,
      "velocity": 0.63,
      "hand": "right"
    },
    {
      "midi": 64,
      "time": 19.2,
      "duration": 0.3,
      "velocity": 0.63,
      "hand": "right"
    },
    {
      "midi": 53,
      "time": 19.5,
      "duration": 0.3,
      "velocity": 0.63,
      "hand": "left"
    },
    {
      "midi": 62,
      "time": 19.5,
      "duration": 0.3,
      "velocity": 0.63,
      "hand": "right"
    },
    {
      "midi": 65,
      "time": 19.5,
      "duration": 0.3,
      "velocity": 0.63,
      "hand": "right"
    },
    {
      "midi": 55,
      "time": 19.8,
      "duration": 0.45,
      "velocity": 0.63,
      "hand": "left"
    },
    {
      "midi": 64,
      "time": 19.8,
      "duration": 0.9,
      "velocity": 0.63,
      "hand": "right"
    },
    {
      "midi": 67,
      "time": 19.8,
      "duration": 0.9,
      "velocity": 0.63,
      "hand": "right"
    },
    {
      "midi": 52,
      "time": 20.4,
      "duration": 0.45,
      "velocity": 0.63,
      "hand": "left"
    },
    {
      "midi": 60,
      "time": 20.7,
      "duration": 0.3,
      "velocity": 0.63,
      "hand": "right"
    },
    {
      "midi": 64,
      "time": 20.7,
      "duration": 0.3,
      "velocity": 0.63,
      "hand": "right"
    },
    {
      "midi": 57,
      "time": 21,
      "duration": 0.9,
      "velocity": 0.63,
      "hand": "left"
    },
    {
      "midi": 61,
      "time": 21,
      "duration": 0.9,
      "velocity": 0.63,
      "hand": "right"
    },
    {
      "midi": 69,
      "time": 21,
      "duration": 0.9,
      "velocity": 0.63,
      "hand": "right"
    },
    {
      "midi": 64,
      "time": 21.9,
      "duration": 0.3,
      "velocity": 0.63,
      "hand": "right"
    },
    {
      "midi": 67,
      "time": 21.9,
      "duration": 0.3,
      "velocity": 0.63,
      "hand": "right"
    },
    {
      "midi": 53,
      "time": 22.2,
      "duration": 0.3,
      "velocity": 0.63,
      "hand": "left"
    },
    {
      "midi": 65,
      "time": 22.2,
      "duration": 0.3,
      "velocity": 0.63,
      "hand": "right"
    },
    {
      "midi": 69,
      "time": 22.2,
      "duration": 0.3,
      "velocity": 0.63,
      "hand": "right"
    },
    {
      "midi": 52,
      "time": 22.5,
      "duration": 0.3,
      "velocity": 0.63,
      "hand": "left"
    },
    {
      "midi": 64,
      "time": 22.5,
      "duration": 0.3,
      "velocity": 0.63,
      "hand": "right"
    },
    {
      "midi": 67,
      "time": 22.5,
      "duration": 0.3,
      "velocity": 0.63,
      "hand": "right"
    },
    {
      "midi": 50,
      "time": 22.8,
      "duration": 0.3,
      "velocity": 0.63,
      "hand": "left"
    },
    {
      "midi": 62,
      "time": 22.8,
      "duration": 0.3,
      "velocity": 0.63,
      "hand": "right"
    },
    {
      "midi": 65,
      "time": 22.8,
      "duration": 0.3,
      "velocity": 0.63,
      "hand": "right"
    },
    {
      "midi": 52,
      "time": 23.1,
      "duration": 0.3,
      "velocity": 0.63,
      "hand": "left"
    },
    {
      "midi": 64,
      "time": 23.1,
      "duration": 0.3,
      "velocity": 0.63,
      "hand": "right"
    },
    {
      "midi": 67,
      "time": 23.1,
      "duration": 0.3,
      "velocity": 0.63,
      "hand": "right"
    },
    {
      "midi": 53,
      "time": 23.4,
      "duration": 0.3,
      "velocity": 0.63,
      "hand": "left"
    },
    {
      "midi": 65,
      "time": 23.4,
      "duration": 0.3,
      "velocity": 0.63,
      "hand": "right"
    },
    {
      "midi": 69,
      "time": 23.4,
      "duration": 0.3,
      "velocity": 0.63,
      "hand": "right"
    },
    {
      "midi": 52,
      "time": 23.7,
      "duration": 0.3,
      "velocity": 0.63,
      "hand": "left"
    },
    {
      "midi": 64,
      "time": 23.7,
      "duration": 0.3,
      "velocity": 0.63,
      "hand": "right"
    },
    {
      "midi": 67,
      "time": 23.7,
      "duration": 0.3,
      "velocity": 0.63,
      "hand": "right"
    },
    {
      "midi": 50,
      "time": 24,
      "duration": 0.3,
      "velocity": 0.63,
      "hand": "left"
    },
    {
      "midi": 62,
      "time": 24,
      "duration": 0.3,
      "velocity": 0.63,
      "hand": "right"
    },
    {
      "midi": 65,
      "time": 24,
      "duration": 0.3,
      "velocity": 0.63,
      "hand": "right"
    },
    {
      "midi": 52,
      "time": 24.3,
      "duration": 0.3,
      "velocity": 0.63,
      "hand": "left"
    },
    {
      "midi": 64,
      "time": 24.3,
      "duration": 0.3,
      "velocity": 0.63,
      "hand": "right"
    },
    {
      "midi": 53,
      "time": 24.6,
      "duration": 0.45,
      "velocity": 0.63,
      "hand": "left"
    },
    {
      "midi": 62,
      "time": 24.6,
      "duration": 0.9,
      "velocity": 0.63,
      "hand": "right"
    },
    {
      "midi": 65,
      "time": 24.6,
      "duration": 0.9,
      "velocity": 0.63,
      "hand": "right"
    },
    {
      "midi": 57,
      "time": 25.2,
      "duration": 0.45,
      "velocity": 0.63,
      "hand": "left"
    },
    {
      "midi": 65,
      "time": 25.5,
      "duration": 0.3,
      "velocity": 0.63,
      "hand": "right"
    },
    {
      "midi": 69,
      "time": 25.5,
      "duration": 0.3,
      "velocity": 0.63,
      "hand": "right"
    },
    {
      "midi": 55,
      "time": 25.8,
      "duration": 0.9,
      "velocity": 0.63,
      "hand": "left"
    },
    {
      "midi": 59,
      "time": 25.8,
      "duration": 0.9,
      "velocity": 0.63,
      "hand": "left"
    },
    {
      "midi": 67,
      "time": 25.8,
      "duration": 0.9,
      "velocity": 0.63,
      "hand": "right"
    },
    {
      "midi": 62,
      "time": 26.7,
      "duration": 0.3,
      "velocity": 0.63,
      "hand": "right"
    },
    {
      "midi": 65,
      "time": 26.7,
      "duration": 0.3,
      "velocity": 0.63,
      "hand": "right"
    },
    {
      "midi": 52,
      "time": 27,
      "duration": 0.3,
      "velocity": 0.63,
      "hand": "left"
    },
    {
      "midi": 64,
      "time": 27,
      "duration": 0.3,
      "velocity": 0.63,
      "hand": "right"
    },
    {
      "midi": 67,
      "time": 27,
      "duration": 0.3,
      "velocity": 0.63,
      "hand": "right"
    },
    {
      "midi": 50,
      "time": 27.3,
      "duration": 0.3,
      "velocity": 0.63,
      "hand": "left"
    },
    {
      "midi": 62,
      "time": 27.3,
      "duration": 0.3,
      "velocity": 0.63,
      "hand": "right"
    },
    {
      "midi": 65,
      "time": 27.3,
      "duration": 0.3,
      "velocity": 0.63,
      "hand": "right"
    },
    {
      "midi": 48,
      "time": 27.6,
      "duration": 0.3,
      "velocity": 0.63,
      "hand": "left"
    },
    {
      "midi": 60,
      "time": 27.6,
      "duration": 0.3,
      "velocity": 0.63,
      "hand": "right"
    },
    {
      "midi": 64,
      "time": 27.6,
      "duration": 0.3,
      "velocity": 0.63,
      "hand": "right"
    },
    {
      "midi": 50,
      "time": 27.9,
      "duration": 0.3,
      "velocity": 0.63,
      "hand": "left"
    },
    {
      "midi": 62,
      "time": 27.9,
      "duration": 0.3,
      "velocity": 0.63,
      "hand": "right"
    },
    {
      "midi": 52,
      "time": 28.2,
      "duration": 0.6,
      "velocity": 0.63,
      "hand": "left"
    },
    {
      "midi": 60,
      "time": 28.2,
      "duration": 0.6,
      "velocity": 0.63,
      "hand": "right"
    },
    {
      "midi": 64,
      "time": 28.2,
      "duration": 0.6,
      "velocity": 0.63,
      "hand": "right"
    },
    {
      "midi": 48,
      "time": 28.8,
      "duration": 0.3,
      "velocity": 0.63,
      "hand": "left"
    },
    {
      "midi": 57,
      "time": 28.8,
      "duration": 0.3,
      "velocity": 0.63,
      "hand": "left"
    },
    {
      "midi": 60,
      "time": 28.8,
      "duration": 0.3,
      "velocity": 0.63,
      "hand": "right"
    },
    {
      "midi": 50,
      "time": 29.1,
      "duration": 0.3,
      "velocity": 0.63,
      "hand": "left"
    },
    {
      "midi": 59,
      "time": 29.1,
      "duration": 0.3,
      "velocity": 0.63,
      "hand": "left"
    },
    {
      "midi": 62,
      "time": 29.1,
      "duration": 0.3,
      "velocity": 0.63,
      "hand": "right"
    },
    {
      "midi": 52,
      "time": 29.4,
      "duration": 0.45,
      "velocity": 0.63,
      "hand": "left"
    },
    {
      "midi": 60,
      "time": 29.4,
      "duration": 0.9,
      "velocity": 0.63,
      "hand": "right"
    },
    {
      "midi": 64,
      "time": 29.4,
      "duration": 0.9,
      "velocity": 0.63,
      "hand": "right"
    },
    {
      "midi": 48,
      "time": 30,
      "duration": 0.45,
      "velocity": 0.63,
      "hand": "left"
    },
    {
      "midi": 57,
      "time": 30.3,
      "duration": 0.3,
      "velocity": 0.63,
      "hand": "left"
    },
    {
      "midi": 60,
      "time": 30.3,
      "duration": 0.3,
      "velocity": 0.63,
      "hand": "right"
    },
    {
      "midi": 53,
      "time": 30.6,
      "duration": 0.9,
      "velocity": 0.63,
      "hand": "left"
    },
    {
      "midi": 57,
      "time": 30.6,
      "duration": 0.9,
      "velocity": 0.63,
      "hand": "left"
    },
    {
      "midi": 65,
      "time": 30.6,
      "duration": 0.9,
      "velocity": 0.63,
      "hand": "right"
    },
    {
      "midi": 60,
      "time": 31.5,
      "duration": 0.3,
      "velocity": 0.63,
      "hand": "right"
    },
    {
      "midi": 64,
      "time": 31.5,
      "duration": 0.3,
      "velocity": 0.63,
      "hand": "right"
    },
    {
      "midi": 50,
      "time": 31.8,
      "duration": 0.3,
      "velocity": 0.63,
      "hand": "left"
    },
    {
      "midi": 59,
      "time": 31.8,
      "duration": 0.3,
      "velocity": 0.63,
      "hand": "left"
    },
    {
      "midi": 62,
      "time": 31.8,
      "duration": 0.3,
      "velocity": 0.63,
      "hand": "right"
    },
    {
      "midi": 48,
      "time": 32.1,
      "duration": 0.3,
      "velocity": 0.63,
      "hand": "left"
    },
    {
      "midi": 57,
      "time": 32.1,
      "duration": 0.3,
      "velocity": 0.63,
      "hand": "left"
    },
    {
      "midi": 60,
      "time": 32.1,
      "duration": 0.3,
      "velocity": 0.63,
      "hand": "right"
    },
    {
      "midi": 47,
      "time": 32.4,
      "duration": 0.3,
      "velocity": 0.63,
      "hand": "left"
    },
    {
      "midi": 55,
      "time": 32.4,
      "duration": 0.3,
      "velocity": 0.63,
      "hand": "left"
    },
    {
      "midi": 59,
      "time": 32.4,
      "duration": 0.3,
      "velocity": 0.63,
      "hand": "left"
    },
    {
      "midi": 48,
      "time": 32.7,
      "duration": 0.3,
      "velocity": 0.63,
      "hand": "left"
    },
    {
      "midi": 57,
      "time": 32.7,
      "duration": 0.3,
      "velocity": 0.63,
      "hand": "left"
    },
    {
      "midi": 60,
      "time": 32.7,
      "duration": 0.3,
      "velocity": 0.63,
      "hand": "right"
    },
    {
      "midi": 50,
      "time": 33,
      "duration": 0.6,
      "velocity": 0.63,
      "hand": "left"
    },
    {
      "midi": 59,
      "time": 33,
      "duration": 0.6,
      "velocity": 0.63,
      "hand": "left"
    },
    {
      "midi": 62,
      "time": 33,
      "duration": 0.6,
      "velocity": 0.63,
      "hand": "right"
    },
    {
      "midi": 59,
      "time": 33.6,
      "duration": 0.3,
      "velocity": 0.63,
      "hand": "left"
    },
    {
      "midi": 62,
      "time": 33.6,
      "duration": 0.3,
      "velocity": 0.63,
      "hand": "right"
    },
    {
      "midi": 71,
      "time": 33.6,
      "duration": 0.3,
      "velocity": 0.63,
      "hand": "right"
    },
    {
      "midi": 57,
      "time": 33.9,
      "duration": 0.3,
      "velocity": 0.63,
      "hand": "left"
    },
    {
      "midi": 60,
      "time": 33.9,
      "duration": 0.3,
      "velocity": 0.63,
      "hand": "right"
    },
    {
      "midi": 69,
      "time": 33.9,
      "duration": 0.3,
      "velocity": 0.63,
      "hand": "right"
    },
    {
      "midi": 55,
      "time": 34.2,
      "duration": 0.45,
      "velocity": 0.63,
      "hand": "left"
    },
    {
      "midi": 59,
      "time": 34.2,
      "duration": 0.9,
      "velocity": 0.63,
      "hand": "left"
    },
    {
      "midi": 67,
      "time": 34.2,
      "duration": 0.9,
      "velocity": 0.63,
      "hand": "right"
    },
    {
      "midi": 53,
      "time": 34.8,
      "duration": 0.45,
      "velocity": 0.63,
      "hand": "left"
    },
    {
      "midi": 65,
      "time": 35.1,
      "duration": 0.3,
      "velocity": 0.63,
      "hand": "right"
    },
    {
      "midi": 69,
      "time": 35.1,
      "duration": 0.3,
      "velocity": 0.63,
      "hand": "right"
    },
    {
      "midi": 52,
      "time": 35.4,
      "duration": 0.9,
      "velocity": 0.63,
      "hand": "left"
    },
    {
      "midi": 64,
      "time": 35.4,
      "duration": 0.9,
      "velocity": 0.63,
      "hand": "right"
    },
    {
      "midi": 67,
      "time": 35.4,
      "duration": 0.9,
      "velocity": 0.63,
      "hand": "right"
    },
    {
      "midi": 62,
      "time": 36.3,
      "duration": 0.3,
      "velocity": 0.63,
      "hand": "right"
    },
    {
      "midi": 65,
      "time": 36.3,
      "duration": 0.3,
      "velocity": 0.63,
      "hand": "right"
    },
    {
      "midi": 48,
      "time": 36.6,
      "duration": 0.9,
      "velocity": 0.63,
      "hand": "left"
    },
    {
      "midi": 60,
      "time": 36.6,
      "duration": 0.6,
      "velocity": 0.63,
      "hand": "right"
    },
    {
      "midi": 64,
      "time": 36.6,
      "duration": 0.6,
      "velocity": 0.63,
      "hand": "right"
    },
    {
      "midi": 60,
      "time": 37.2,
      "duration": 0.6,
      "velocity": 0.63,
      "hand": "right"
    },
    {
      "midi": 64,
      "time": 37.2,
      "duration": 0.6,
      "velocity": 0.63,
      "hand": "right"
    },
    {
      "midi": 48,
      "time": 37.8,
      "duration": 0.6,
      "velocity": 0.63,
      "hand": "left"
    },
    {
      "midi": 57,
      "time": 38.4,
      "duration": 0.3,
      "velocity": 0.63,
      "hand": "left"
    },
    {
      "midi": 65,
      "time": 38.4,
      "duration": 0.3,
      "velocity": 0.63,
      "hand": "right"
    },
    {
      "midi": 69,
      "time": 38.4,
      "duration": 0.3,
      "velocity": 0.63,
      "hand": "right"
    },
    {
      "midi": 58,
      "time": 38.7,
      "duration": 0.3,
      "velocity": 0.63,
      "hand": "left"
    },
    {
      "midi": 67,
      "time": 38.7,
      "duration": 0.3,
      "velocity": 0.63,
      "hand": "right"
    },
    {
      "midi": 70,
      "time": 38.7,
      "duration": 0.3,
      "velocity": 0.63,
      "hand": "right"
    },
    {
      "midi": 60,
      "time": 39,
      "duration": 0.45,
      "velocity": 0.63,
      "hand": "right"
    },
    {
      "midi": 69,
      "time": 39,
      "duration": 0.9,
      "velocity": 0.63,
      "hand": "right"
    },
    {
      "midi": 72,
      "time": 39,
      "duration": 0.9,
      "velocity": 0.63,
      "hand": "right"
    },
    {
      "midi": 57,
      "time": 39.6,
      "duration": 0.45,
      "velocity": 0.63,
      "hand": "left"
    },
    {
      "midi": 65,
      "time": 39.9,
      "duration": 0.3,
      "velocity": 0.63,
      "hand": "right"
    },
    {
      "midi": 69,
      "time": 39.9,
      "duration": 0.3,
      "velocity": 0.63,
      "hand": "right"
    },
    {
      "midi": 62,
      "time": 40.2,
      "duration": 0.9,
      "velocity": 0.63,
      "hand": "right"
    },
    {
      "midi": 66,
      "time": 40.2,
      "duration": 0.9,
      "velocity": 0.63,
      "hand": "right"
    },
    {
      "midi": 74,
      "time": 40.2,
      "duration": 0.9,
      "velocity": 0.63,
      "hand": "right"
    },
    {
      "midi": 69,
      "time": 41.1,
      "duration": 0.3,
      "velocity": 0.63,
      "hand": "right"
    },
    {
      "midi": 72,
      "time": 41.1,
      "duration": 0.3,
      "velocity": 0.63,
      "hand": "right"
    },
    {
      "midi": 58,
      "time": 41.4,
      "duration": 0.3,
      "velocity": 0.63,
      "hand": "left"
    },
    {
      "midi": 70,
      "time": 41.4,
      "duration": 0.3,
      "velocity": 0.63,
      "hand": "right"
    },
    {
      "midi": 74,
      "time": 41.4,
      "duration": 0.3,
      "velocity": 0.63,
      "hand": "right"
    },
    {
      "midi": 57,
      "time": 41.7,
      "duration": 0.3,
      "velocity": 0.63,
      "hand": "left"
    },
    {
      "midi": 69,
      "time": 41.7,
      "duration": 0.3,
      "velocity": 0.63,
      "hand": "right"
    },
    {
      "midi": 72,
      "time": 41.7,
      "duration": 0.3,
      "velocity": 0.63,
      "hand": "right"
    },
    {
      "midi": 55,
      "time": 42,
      "duration": 0.3,
      "velocity": 0.63,
      "hand": "left"
    },
    {
      "midi": 67,
      "time": 42,
      "duration": 0.3,
      "velocity": 0.63,
      "hand": "right"
    },
    {
      "midi": 70,
      "time": 42,
      "duration": 0.3,
      "velocity": 0.63,
      "hand": "right"
    },
    {
      "midi": 57,
      "time": 42.3,
      "duration": 0.3,
      "velocity": 0.63,
      "hand": "left"
    },
    {
      "midi": 69,
      "time": 42.3,
      "duration": 0.3,
      "velocity": 0.63,
      "hand": "right"
    },
    {
      "midi": 72,
      "time": 42.3,
      "duration": 0.3,
      "velocity": 0.63,
      "hand": "right"
    },
    {
      "midi": 58,
      "time": 42.6,
      "duration": 0.3,
      "velocity": 0.63,
      "hand": "left"
    },
    {
      "midi": 70,
      "time": 42.6,
      "duration": 0.3,
      "velocity": 0.63,
      "hand": "right"
    },
    {
      "midi": 74,
      "time": 42.6,
      "duration": 0.3,
      "velocity": 0.63,
      "hand": "right"
    },
    {
      "midi": 57,
      "time": 42.9,
      "duration": 0.3,
      "velocity": 0.63,
      "hand": "left"
    },
    {
      "midi": 69,
      "time": 42.9,
      "duration": 0.3,
      "velocity": 0.63,
      "hand": "right"
    },
    {
      "midi": 72,
      "time": 42.9,
      "duration": 0.3,
      "velocity": 0.63,
      "hand": "right"
    },
    {
      "midi": 55,
      "time": 43.2,
      "duration": 0.3,
      "velocity": 0.63,
      "hand": "left"
    },
    {
      "midi": 67,
      "time": 43.2,
      "duration": 0.3,
      "velocity": 0.63,
      "hand": "right"
    },
    {
      "midi": 70,
      "time": 43.2,
      "duration": 0.3,
      "velocity": 0.63,
      "hand": "right"
    },
    {
      "midi": 57,
      "time": 43.5,
      "duration": 0.3,
      "velocity": 0.63,
      "hand": "left"
    },
    {
      "midi": 69,
      "time": 43.5,
      "duration": 0.3,
      "velocity": 0.63,
      "hand": "right"
    },
    {
      "midi": 58,
      "time": 43.8,
      "duration": 0.45,
      "velocity": 0.63,
      "hand": "left"
    },
    {
      "midi": 67,
      "time": 43.8,
      "duration": 0.9,
      "velocity": 0.63,
      "hand": "right"
    },
    {
      "midi": 70,
      "time": 43.8,
      "duration": 0.9,
      "velocity": 0.63,
      "hand": "right"
    },
    {
      "midi": 62,
      "time": 44.4,
      "duration": 0.45,
      "velocity": 0.63,
      "hand": "right"
    },
    {
      "midi": 70,
      "time": 44.7,
      "duration": 0.3,
      "velocity": 0.63,
      "hand": "right"
    },
    {
      "midi": 74,
      "time": 44.7,
      "duration": 0.3,
      "velocity": 0.63,
      "hand": "right"
    },
    {
      "midi": 60,
      "time": 45,
      "duration": 0.9,
      "velocity": 0.63,
      "hand": "right"
    },
    {
      "midi": 64,
      "time": 45,
      "duration": 0.9,
      "velocity": 0.63,
      "hand": "right"
    },
    {
      "midi": 72,
      "time": 45,
      "duration": 0.9,
      "velocity": 0.63,
      "hand": "right"
    },
    {
      "midi": 67,
      "time": 45.9,
      "duration": 0.3,
      "velocity": 0.63,
      "hand": "right"
    },
    {
      "midi": 70,
      "time": 45.9,
      "duration": 0.3,
      "velocity": 0.63,
      "hand": "right"
    },
    {
      "midi": 57,
      "time": 46.2,
      "duration": 0.3,
      "velocity": 0.63,
      "hand": "left"
    },
    {
      "midi": 69,
      "time": 46.2,
      "duration": 0.3,
      "velocity": 0.63,
      "hand": "right"
    },
    {
      "midi": 72,
      "time": 46.2,
      "duration": 0.3,
      "velocity": 0.63,
      "hand": "right"
    },
    {
      "midi": 55,
      "time": 46.5,
      "duration": 0.3,
      "velocity": 0.63,
      "hand": "left"
    },
    {
      "midi": 67,
      "time": 46.5,
      "duration": 0.3,
      "velocity": 0.63,
      "hand": "right"
    },
    {
      "midi": 70,
      "time": 46.5,
      "duration": 0.3,
      "velocity": 0.63,
      "hand": "right"
    },
    {
      "midi": 53,
      "time": 46.8,
      "duration": 0.3,
      "velocity": 0.63,
      "hand": "left"
    },
    {
      "midi": 65,
      "time": 46.8,
      "duration": 0.3,
      "velocity": 0.63,
      "hand": "right"
    },
    {
      "midi": 69,
      "time": 46.8,
      "duration": 0.3,
      "velocity": 0.63,
      "hand": "right"
    },
    {
      "midi": 55,
      "time": 47.1,
      "duration": 0.3,
      "velocity": 0.63,
      "hand": "left"
    },
    {
      "midi": 67,
      "time": 47.1,
      "duration": 0.3,
      "velocity": 0.63,
      "hand": "right"
    },
    {
      "midi": 57,
      "time": 47.4,
      "duration": 0.6,
      "velocity": 0.63,
      "hand": "left"
    },
    {
      "midi": 65,
      "time": 47.4,
      "duration": 0.6,
      "velocity": 0.63,
      "hand": "right"
    },
    {
      "midi": 69,
      "time": 47.4,
      "duration": 0.6,
      "velocity": 0.63,
      "hand": "right"
    },
    {
      "midi": 53,
      "time": 48,
      "duration": 0.3,
      "velocity": 0.63,
      "hand": "left"
    },
    {
      "midi": 62,
      "time": 48,
      "duration": 0.3,
      "velocity": 0.63,
      "hand": "right"
    },
    {
      "midi": 65,
      "time": 48,
      "duration": 0.3,
      "velocity": 0.63,
      "hand": "right"
    },
    {
      "midi": 55,
      "time": 48.3,
      "duration": 0.3,
      "velocity": 0.63,
      "hand": "left"
    },
    {
      "midi": 64,
      "time": 48.3,
      "duration": 0.3,
      "velocity": 0.63,
      "hand": "right"
    },
    {
      "midi": 67,
      "time": 48.3,
      "duration": 0.3,
      "velocity": 0.63,
      "hand": "right"
    },
    {
      "midi": 57,
      "time": 48.6,
      "duration": 0.45,
      "velocity": 0.63,
      "hand": "left"
    },
    {
      "midi": 65,
      "time": 48.6,
      "duration": 0.9,
      "velocity": 0.63,
      "hand": "right"
    },
    {
      "midi": 69,
      "time": 48.6,
      "duration": 0.9,
      "velocity": 0.63,
      "hand": "right"
    },
    {
      "midi": 53,
      "time": 49.2,
      "duration": 0.45,
      "velocity": 0.63,
      "hand": "left"
    },
    {
      "midi": 62,
      "time": 49.5,
      "duration": 0.3,
      "velocity": 0.63,
      "hand": "right"
    },
    {
      "midi": 65,
      "time": 49.5,
      "duration": 0.3,
      "velocity": 0.63,
      "hand": "right"
    },
    {
      "midi": 58,
      "time": 49.8,
      "duration": 0.9,
      "velocity": 0.63,
      "hand": "left"
    },
    {
      "midi": 62,
      "time": 49.8,
      "duration": 0.9,
      "velocity": 0.63,
      "hand": "right"
    },
    {
      "midi": 70,
      "time": 49.8,
      "duration": 0.9,
      "velocity": 0.63,
      "hand": "right"
    },
    {
      "midi": 65,
      "time": 50.7,
      "duration": 0.3,
      "velocity": 0.63,
      "hand": "right"
    },
    {
      "midi": 69,
      "time": 50.7,
      "duration": 0.3,
      "velocity": 0.63,
      "hand": "right"
    },
    {
      "midi": 55,
      "time": 51,
      "duration": 0.3,
      "velocity": 0.63,
      "hand": "left"
    },
    {
      "midi": 64,
      "time": 51,
      "duration": 0.3,
      "velocity": 0.63,
      "hand": "right"
    },
    {
      "midi": 67,
      "time": 51,
      "duration": 0.3,
      "velocity": 0.63,
      "hand": "right"
    },
    {
      "midi": 53,
      "time": 51.3,
      "duration": 0.3,
      "velocity": 0.63,
      "hand": "left"
    },
    {
      "midi": 62,
      "time": 51.3,
      "duration": 0.3,
      "velocity": 0.63,
      "hand": "right"
    },
    {
      "midi": 65,
      "time": 51.3,
      "duration": 0.3,
      "velocity": 0.63,
      "hand": "right"
    },
    {
      "midi": 52,
      "time": 51.6,
      "duration": 0.3,
      "velocity": 0.63,
      "hand": "left"
    },
    {
      "midi": 60,
      "time": 51.6,
      "duration": 0.3,
      "velocity": 0.63,
      "hand": "right"
    },
    {
      "midi": 64,
      "time": 51.6,
      "duration": 0.3,
      "velocity": 0.63,
      "hand": "right"
    },
    {
      "midi": 53,
      "time": 51.9,
      "duration": 0.3,
      "velocity": 0.63,
      "hand": "left"
    },
    {
      "midi": 62,
      "time": 51.9,
      "duration": 0.3,
      "velocity": 0.63,
      "hand": "right"
    },
    {
      "midi": 65,
      "time": 51.9,
      "duration": 0.3,
      "velocity": 0.63,
      "hand": "right"
    },
    {
      "midi": 55,
      "time": 52.2,
      "duration": 0.6,
      "velocity": 0.63,
      "hand": "left"
    },
    {
      "midi": 64,
      "time": 52.2,
      "duration": 0.6,
      "velocity": 0.63,
      "hand": "right"
    },
    {
      "midi": 67,
      "time": 52.2,
      "duration": 0.6,
      "velocity": 0.63,
      "hand": "right"
    },
    {
      "midi": 64,
      "time": 52.8,
      "duration": 0.3,
      "velocity": 0.63,
      "hand": "right"
    },
    {
      "midi": 67,
      "time": 52.8,
      "duration": 0.3,
      "velocity": 0.63,
      "hand": "right"
    },
    {
      "midi": 76,
      "time": 52.8,
      "duration": 0.3,
      "velocity": 0.63,
      "hand": "right"
    },
    {
      "midi": 62,
      "time": 53.1,
      "duration": 0.3,
      "velocity": 0.63,
      "hand": "right"
    },
    {
      "midi": 65,
      "time": 53.1,
      "duration": 0.3,
      "velocity": 0.63,
      "hand": "right"
    },
    {
      "midi": 74,
      "time": 53.1,
      "duration": 0.3,
      "velocity": 0.63,
      "hand": "right"
    },
    {
      "midi": 60,
      "time": 53.4,
      "duration": 0.45,
      "velocity": 0.63,
      "hand": "right"
    },
    {
      "midi": 64,
      "time": 53.4,
      "duration": 0.9,
      "velocity": 0.63,
      "hand": "right"
    },
    {
      "midi": 72,
      "time": 53.4,
      "duration": 0.9,
      "velocity": 0.63,
      "hand": "right"
    },
    {
      "midi": 58,
      "time": 54,
      "duration": 0.45,
      "velocity": 0.63,
      "hand": "left"
    },
    {
      "midi": 70,
      "time": 54.3,
      "duration": 0.3,
      "velocity": 0.63,
      "hand": "right"
    },
    {
      "midi": 74,
      "time": 54.3,
      "duration": 0.3,
      "velocity": 0.63,
      "hand": "right"
    },
    {
      "midi": 57,
      "time": 54.6,
      "duration": 0.9,
      "velocity": 0.63,
      "hand": "left"
    },
    {
      "midi": 69,
      "time": 54.6,
      "duration": 0.9,
      "velocity": 0.63,
      "hand": "right"
    },
    {
      "midi": 72,
      "time": 54.6,
      "duration": 0.9,
      "velocity": 0.63,
      "hand": "right"
    },
    {
      "midi": 67,
      "time": 55.5,
      "duration": 0.3,
      "velocity": 0.63,
      "hand": "right"
    },
    {
      "midi": 70,
      "time": 55.5,
      "duration": 0.3,
      "velocity": 0.63,
      "hand": "right"
    },
    {
      "midi": 53,
      "time": 55.8,
      "duration": 1.2,
      "velocity": 0.63,
      "hand": "left"
    },
    {
      "midi": 65,
      "time": 55.8,
      "duration": 1.2,
      "velocity": 0.63,
      "hand": "right"
    },
    {
      "midi": 69,
      "time": 55.8,
      "duration": 1.2,
      "velocity": 0.63,
      "hand": "right"
    }
  ],
  "arrangements": {
    "easy": [
      {
        "midi": 69,
        "time": 0,
        "duration": 0.3,
        "velocity": 0.63,
        "hand": "right"
      },
      {
        "midi": 70,
        "time": 0.3,
        "duration": 0.3,
        "velocity": 0.63,
        "hand": "right"
      },
      {
        "midi": 72,
        "time": 0.6,
        "duration": 0.9,
        "velocity": 0.63,
        "hand": "right"
      },
      {
        "midi": 57,
        "time": 1.2,
        "duration": 0.45,
        "velocity": 0.63,
        "hand": "right"
      },
      {
        "midi": 69,
        "time": 1.5,
        "duration": 0.3,
        "velocity": 0.63,
        "hand": "right"
      },
      {
        "midi": 74,
        "time": 1.8,
        "duration": 0.9,
        "velocity": 0.63,
        "hand": "right"
      },
      {
        "midi": 72,
        "time": 2.7,
        "duration": 0.3,
        "velocity": 0.63,
        "hand": "right"
      },
      {
        "midi": 74,
        "time": 3,
        "duration": 0.3,
        "velocity": 0.63,
        "hand": "right"
      },
      {
        "midi": 72,
        "time": 3.3,
        "duration": 0.3,
        "velocity": 0.63,
        "hand": "right"
      },
      {
        "midi": 70,
        "time": 3.6,
        "duration": 0.3,
        "velocity": 0.63,
        "hand": "right"
      },
      {
        "midi": 72,
        "time": 3.9,
        "duration": 0.3,
        "velocity": 0.63,
        "hand": "right"
      },
      {
        "midi": 74,
        "time": 4.2,
        "duration": 0.3,
        "velocity": 0.63,
        "hand": "right"
      },
      {
        "midi": 72,
        "time": 4.5,
        "duration": 0.3,
        "velocity": 0.63,
        "hand": "right"
      },
      {
        "midi": 70,
        "time": 4.8,
        "duration": 0.3,
        "velocity": 0.63,
        "hand": "right"
      },
      {
        "midi": 69,
        "time": 5.1,
        "duration": 0.3,
        "velocity": 0.63,
        "hand": "right"
      },
      {
        "midi": 70,
        "time": 5.4,
        "duration": 0.9,
        "velocity": 0.63,
        "hand": "right"
      },
      {
        "midi": 62,
        "time": 6,
        "duration": 0.45,
        "velocity": 0.63,
        "hand": "right"
      },
      {
        "midi": 74,
        "time": 6.3,
        "duration": 0.3,
        "velocity": 0.63,
        "hand": "right"
      },
      {
        "midi": 72,
        "time": 6.6,
        "duration": 0.9,
        "velocity": 0.63,
        "hand": "right"
      },
      {
        "midi": 70,
        "time": 7.5,
        "duration": 0.3,
        "velocity": 0.63,
        "hand": "right"
      },
      {
        "midi": 72,
        "time": 7.8,
        "duration": 0.3,
        "velocity": 0.63,
        "hand": "right"
      },
      {
        "midi": 70,
        "time": 8.1,
        "duration": 0.3,
        "velocity": 0.63,
        "hand": "right"
      },
      {
        "midi": 69,
        "time": 8.4,
        "duration": 0.3,
        "velocity": 0.63,
        "hand": "right"
      },
      {
        "midi": 67,
        "time": 8.7,
        "duration": 0.3,
        "velocity": 0.63,
        "hand": "right"
      },
      {
        "midi": 69,
        "time": 9,
        "duration": 0.6,
        "velocity": 0.63,
        "hand": "right"
      },
      {
        "midi": 65,
        "time": 9.6,
        "duration": 0.3,
        "velocity": 0.63,
        "hand": "right"
      },
      {
        "midi": 67,
        "time": 9.9,
        "duration": 0.3,
        "velocity": 0.63,
        "hand": "right"
      },
      {
        "midi": 69,
        "time": 10.2,
        "duration": 0.9,
        "velocity": 0.63,
        "hand": "right"
      },
      {
        "midi": 53,
        "time": 10.8,
        "duration": 0.45,
        "velocity": 0.63,
        "hand": "right"
      },
      {
        "midi": 65,
        "time": 11.1,
        "duration": 0.3,
        "velocity": 0.63,
        "hand": "right"
      },
      {
        "midi": 70,
        "time": 11.4,
        "duration": 0.9,
        "velocity": 0.63,
        "hand": "right"
      },
      {
        "midi": 69,
        "time": 12.3,
        "duration": 0.3,
        "velocity": 0.63,
        "hand": "right"
      },
      {
        "midi": 67,
        "time": 12.6,
        "duration": 0.3,
        "velocity": 0.63,
        "hand": "right"
      },
      {
        "midi": 65,
        "time": 12.9,
        "duration": 0.3,
        "velocity": 0.63,
        "hand": "right"
      },
      {
        "midi": 64,
        "time": 13.2,
        "duration": 0.3,
        "velocity": 0.63,
        "hand": "right"
      },
      {
        "midi": 65,
        "time": 13.5,
        "duration": 0.3,
        "velocity": 0.63,
        "hand": "right"
      },
      {
        "midi": 67,
        "time": 13.8,
        "duration": 0.6,
        "velocity": 0.63,
        "hand": "right"
      },
      {
        "midi": 76,
        "time": 14.4,
        "duration": 0.3,
        "velocity": 0.63,
        "hand": "right"
      },
      {
        "midi": 74,
        "time": 14.7,
        "duration": 0.3,
        "velocity": 0.63,
        "hand": "right"
      },
      {
        "midi": 72,
        "time": 15,
        "duration": 0.9,
        "velocity": 0.63,
        "hand": "right"
      },
      {
        "midi": 58,
        "time": 15.6,
        "duration": 0.45,
        "velocity": 0.63,
        "hand": "right"
      },
      {
        "midi": 74,
        "time": 15.9,
        "duration": 0.3,
        "velocity": 0.63,
        "hand": "right"
      },
      {
        "midi": 72,
        "time": 16.2,
        "duration": 0.9,
        "velocity": 0.63,
        "hand": "right"
      },
      {
        "midi": 70,
        "time": 17.1,
        "duration": 0.3,
        "velocity": 0.63,
        "hand": "right"
      },
      {
        "midi": 69,
        "time": 17.4,
        "duration": 0.6,
        "velocity": 0.63,
        "hand": "right"
      },
      {
        "midi": 69,
        "time": 18,
        "duration": 0.6,
        "velocity": 0.63,
        "hand": "right"
      },
      {
        "midi": 53,
        "time": 18.6,
        "duration": 0.45,
        "velocity": 0.63,
        "hand": "right"
      },
      {
        "midi": 64,
        "time": 19.2,
        "duration": 0.3,
        "velocity": 0.63,
        "hand": "right"
      },
      {
        "midi": 65,
        "time": 19.5,
        "duration": 0.3,
        "velocity": 0.63,
        "hand": "right"
      },
      {
        "midi": 67,
        "time": 19.8,
        "duration": 0.9,
        "velocity": 0.63,
        "hand": "right"
      },
      {
        "midi": 52,
        "time": 20.4,
        "duration": 0.45,
        "velocity": 0.63,
        "hand": "right"
      },
      {
        "midi": 64,
        "time": 20.7,
        "duration": 0.3,
        "velocity": 0.63,
        "hand": "right"
      },
      {
        "midi": 69,
        "time": 21,
        "duration": 0.9,
        "velocity": 0.63,
        "hand": "right"
      },
      {
        "midi": 67,
        "time": 21.9,
        "duration": 0.3,
        "velocity": 0.63,
        "hand": "right"
      },
      {
        "midi": 69,
        "time": 22.2,
        "duration": 0.3,
        "velocity": 0.63,
        "hand": "right"
      },
      {
        "midi": 67,
        "time": 22.5,
        "duration": 0.3,
        "velocity": 0.63,
        "hand": "right"
      },
      {
        "midi": 65,
        "time": 22.8,
        "duration": 0.3,
        "velocity": 0.63,
        "hand": "right"
      },
      {
        "midi": 67,
        "time": 23.1,
        "duration": 0.3,
        "velocity": 0.63,
        "hand": "right"
      },
      {
        "midi": 69,
        "time": 23.4,
        "duration": 0.3,
        "velocity": 0.63,
        "hand": "right"
      },
      {
        "midi": 67,
        "time": 23.7,
        "duration": 0.3,
        "velocity": 0.63,
        "hand": "right"
      },
      {
        "midi": 65,
        "time": 24,
        "duration": 0.3,
        "velocity": 0.63,
        "hand": "right"
      },
      {
        "midi": 64,
        "time": 24.3,
        "duration": 0.3,
        "velocity": 0.63,
        "hand": "right"
      },
      {
        "midi": 65,
        "time": 24.6,
        "duration": 0.9,
        "velocity": 0.63,
        "hand": "right"
      },
      {
        "midi": 57,
        "time": 25.2,
        "duration": 0.45,
        "velocity": 0.63,
        "hand": "right"
      },
      {
        "midi": 69,
        "time": 25.5,
        "duration": 0.3,
        "velocity": 0.63,
        "hand": "right"
      },
      {
        "midi": 67,
        "time": 25.8,
        "duration": 0.9,
        "velocity": 0.63,
        "hand": "right"
      },
      {
        "midi": 65,
        "time": 26.7,
        "duration": 0.3,
        "velocity": 0.63,
        "hand": "right"
      },
      {
        "midi": 67,
        "time": 27,
        "duration": 0.3,
        "velocity": 0.63,
        "hand": "right"
      },
      {
        "midi": 65,
        "time": 27.3,
        "duration": 0.3,
        "velocity": 0.63,
        "hand": "right"
      },
      {
        "midi": 64,
        "time": 27.6,
        "duration": 0.3,
        "velocity": 0.63,
        "hand": "right"
      },
      {
        "midi": 62,
        "time": 27.9,
        "duration": 0.3,
        "velocity": 0.63,
        "hand": "right"
      },
      {
        "midi": 64,
        "time": 28.2,
        "duration": 0.6,
        "velocity": 0.63,
        "hand": "right"
      },
      {
        "midi": 60,
        "time": 28.8,
        "duration": 0.3,
        "velocity": 0.63,
        "hand": "right"
      },
      {
        "midi": 62,
        "time": 29.1,
        "duration": 0.3,
        "velocity": 0.63,
        "hand": "right"
      },
      {
        "midi": 64,
        "time": 29.4,
        "duration": 0.9,
        "velocity": 0.63,
        "hand": "right"
      },
      {
        "midi": 48,
        "time": 30,
        "duration": 0.45,
        "velocity": 0.63,
        "hand": "right"
      },
      {
        "midi": 60,
        "time": 30.3,
        "duration": 0.3,
        "velocity": 0.63,
        "hand": "right"
      },
      {
        "midi": 65,
        "time": 30.6,
        "duration": 0.9,
        "velocity": 0.63,
        "hand": "right"
      },
      {
        "midi": 64,
        "time": 31.5,
        "duration": 0.3,
        "velocity": 0.63,
        "hand": "right"
      },
      {
        "midi": 62,
        "time": 31.8,
        "duration": 0.3,
        "velocity": 0.63,
        "hand": "right"
      },
      {
        "midi": 60,
        "time": 32.1,
        "duration": 0.3,
        "velocity": 0.63,
        "hand": "right"
      },
      {
        "midi": 59,
        "time": 32.4,
        "duration": 0.3,
        "velocity": 0.63,
        "hand": "right"
      },
      {
        "midi": 60,
        "time": 32.7,
        "duration": 0.3,
        "velocity": 0.63,
        "hand": "right"
      },
      {
        "midi": 62,
        "time": 33,
        "duration": 0.6,
        "velocity": 0.63,
        "hand": "right"
      },
      {
        "midi": 71,
        "time": 33.6,
        "duration": 0.3,
        "velocity": 0.63,
        "hand": "right"
      },
      {
        "midi": 69,
        "time": 33.9,
        "duration": 0.3,
        "velocity": 0.63,
        "hand": "right"
      },
      {
        "midi": 67,
        "time": 34.2,
        "duration": 0.9,
        "velocity": 0.63,
        "hand": "right"
      },
      {
        "midi": 53,
        "time": 34.8,
        "duration": 0.45,
        "velocity": 0.63,
        "hand": "right"
      },
      {
        "midi": 69,
        "time": 35.1,
        "duration": 0.3,
        "velocity": 0.63,
        "hand": "right"
      },
      {
        "midi": 67,
        "time": 35.4,
        "duration": 0.9,
        "velocity": 0.63,
        "hand": "right"
      },
      {
        "midi": 65,
        "time": 36.3,
        "duration": 0.3,
        "velocity": 0.63,
        "hand": "right"
      },
      {
        "midi": 64,
        "time": 36.6,
        "duration": 0.6,
        "velocity": 0.63,
        "hand": "right"
      },
      {
        "midi": 64,
        "time": 37.2,
        "duration": 0.6,
        "velocity": 0.63,
        "hand": "right"
      },
      {
        "midi": 48,
        "time": 37.8,
        "duration": 0.6,
        "velocity": 0.63,
        "hand": "right"
      },
      {
        "midi": 69,
        "time": 38.4,
        "duration": 0.3,
        "velocity": 0.63,
        "hand": "right"
      },
      {
        "midi": 70,
        "time": 38.7,
        "duration": 0.3,
        "velocity": 0.63,
        "hand": "right"
      },
      {
        "midi": 72,
        "time": 39,
        "duration": 0.9,
        "velocity": 0.63,
        "hand": "right"
      },
      {
        "midi": 57,
        "time": 39.6,
        "duration": 0.45,
        "velocity": 0.63,
        "hand": "right"
      },
      {
        "midi": 69,
        "time": 39.9,
        "duration": 0.3,
        "velocity": 0.63,
        "hand": "right"
      },
      {
        "midi": 74,
        "time": 40.2,
        "duration": 0.9,
        "velocity": 0.63,
        "hand": "right"
      },
      {
        "midi": 72,
        "time": 41.1,
        "duration": 0.3,
        "velocity": 0.63,
        "hand": "right"
      },
      {
        "midi": 74,
        "time": 41.4,
        "duration": 0.3,
        "velocity": 0.63,
        "hand": "right"
      },
      {
        "midi": 72,
        "time": 41.7,
        "duration": 0.3,
        "velocity": 0.63,
        "hand": "right"
      },
      {
        "midi": 70,
        "time": 42,
        "duration": 0.3,
        "velocity": 0.63,
        "hand": "right"
      },
      {
        "midi": 72,
        "time": 42.3,
        "duration": 0.3,
        "velocity": 0.63,
        "hand": "right"
      },
      {
        "midi": 74,
        "time": 42.6,
        "duration": 0.3,
        "velocity": 0.63,
        "hand": "right"
      },
      {
        "midi": 72,
        "time": 42.9,
        "duration": 0.3,
        "velocity": 0.63,
        "hand": "right"
      },
      {
        "midi": 70,
        "time": 43.2,
        "duration": 0.3,
        "velocity": 0.63,
        "hand": "right"
      },
      {
        "midi": 69,
        "time": 43.5,
        "duration": 0.3,
        "velocity": 0.63,
        "hand": "right"
      },
      {
        "midi": 70,
        "time": 43.8,
        "duration": 0.9,
        "velocity": 0.63,
        "hand": "right"
      },
      {
        "midi": 62,
        "time": 44.4,
        "duration": 0.45,
        "velocity": 0.63,
        "hand": "right"
      },
      {
        "midi": 74,
        "time": 44.7,
        "duration": 0.3,
        "velocity": 0.63,
        "hand": "right"
      },
      {
        "midi": 72,
        "time": 45,
        "duration": 0.9,
        "velocity": 0.63,
        "hand": "right"
      },
      {
        "midi": 70,
        "time": 45.9,
        "duration": 0.3,
        "velocity": 0.63,
        "hand": "right"
      },
      {
        "midi": 72,
        "time": 46.2,
        "duration": 0.3,
        "velocity": 0.63,
        "hand": "right"
      },
      {
        "midi": 70,
        "time": 46.5,
        "duration": 0.3,
        "velocity": 0.63,
        "hand": "right"
      },
      {
        "midi": 69,
        "time": 46.8,
        "duration": 0.3,
        "velocity": 0.63,
        "hand": "right"
      },
      {
        "midi": 67,
        "time": 47.1,
        "duration": 0.3,
        "velocity": 0.63,
        "hand": "right"
      },
      {
        "midi": 69,
        "time": 47.4,
        "duration": 0.6,
        "velocity": 0.63,
        "hand": "right"
      },
      {
        "midi": 65,
        "time": 48,
        "duration": 0.3,
        "velocity": 0.63,
        "hand": "right"
      },
      {
        "midi": 67,
        "time": 48.3,
        "duration": 0.3,
        "velocity": 0.63,
        "hand": "right"
      },
      {
        "midi": 69,
        "time": 48.6,
        "duration": 0.9,
        "velocity": 0.63,
        "hand": "right"
      },
      {
        "midi": 53,
        "time": 49.2,
        "duration": 0.45,
        "velocity": 0.63,
        "hand": "right"
      },
      {
        "midi": 65,
        "time": 49.5,
        "duration": 0.3,
        "velocity": 0.63,
        "hand": "right"
      },
      {
        "midi": 70,
        "time": 49.8,
        "duration": 0.9,
        "velocity": 0.63,
        "hand": "right"
      },
      {
        "midi": 69,
        "time": 50.7,
        "duration": 0.3,
        "velocity": 0.63,
        "hand": "right"
      },
      {
        "midi": 67,
        "time": 51,
        "duration": 0.3,
        "velocity": 0.63,
        "hand": "right"
      },
      {
        "midi": 65,
        "time": 51.3,
        "duration": 0.3,
        "velocity": 0.63,
        "hand": "right"
      },
      {
        "midi": 64,
        "time": 51.6,
        "duration": 0.3,
        "velocity": 0.63,
        "hand": "right"
      },
      {
        "midi": 65,
        "time": 51.9,
        "duration": 0.3,
        "velocity": 0.63,
        "hand": "right"
      },
      {
        "midi": 67,
        "time": 52.2,
        "duration": 0.6,
        "velocity": 0.63,
        "hand": "right"
      },
      {
        "midi": 76,
        "time": 52.8,
        "duration": 0.3,
        "velocity": 0.63,
        "hand": "right"
      },
      {
        "midi": 74,
        "time": 53.1,
        "duration": 0.3,
        "velocity": 0.63,
        "hand": "right"
      },
      {
        "midi": 72,
        "time": 53.4,
        "duration": 0.9,
        "velocity": 0.63,
        "hand": "right"
      },
      {
        "midi": 58,
        "time": 54,
        "duration": 0.45,
        "velocity": 0.63,
        "hand": "right"
      },
      {
        "midi": 74,
        "time": 54.3,
        "duration": 0.3,
        "velocity": 0.63,
        "hand": "right"
      },
      {
        "midi": 72,
        "time": 54.6,
        "duration": 0.9,
        "velocity": 0.63,
        "hand": "right"
      },
      {
        "midi": 70,
        "time": 55.5,
        "duration": 0.3,
        "velocity": 0.63,
        "hand": "right"
      },
      {
        "midi": 69,
        "time": 55.8,
        "duration": 1.2,
        "velocity": 0.63,
        "hand": "right"
      }
    ],
    "medium": [
      {
        "midi": 57,
        "time": 0,
        "duration": 0.3,
        "velocity": 0.63,
        "hand": "left"
      },
      {
        "midi": 65,
        "time": 0,
        "duration": 0.3,
        "velocity": 0.63,
        "hand": "right"
      },
      {
        "midi": 69,
        "time": 0,
        "duration": 0.3,
        "velocity": 0.63,
        "hand": "right"
      },
      {
        "midi": 58,
        "time": 0.3,
        "duration": 0.3,
        "velocity": 0.63,
        "hand": "left"
      },
      {
        "midi": 67,
        "time": 0.3,
        "duration": 0.3,
        "velocity": 0.63,
        "hand": "right"
      },
      {
        "midi": 70,
        "time": 0.3,
        "duration": 0.3,
        "velocity": 0.63,
        "hand": "right"
      },
      {
        "midi": 60,
        "time": 0.6,
        "duration": 0.45,
        "velocity": 0.63,
        "hand": "right"
      },
      {
        "midi": 69,
        "time": 0.6,
        "duration": 0.9,
        "velocity": 0.63,
        "hand": "right"
      },
      {
        "midi": 72,
        "time": 0.6,
        "duration": 0.9,
        "velocity": 0.63,
        "hand": "right"
      },
      {
        "midi": 57,
        "time": 1.2,
        "duration": 0.45,
        "velocity": 0.63,
        "hand": "left"
      },
      {
        "midi": 65,
        "time": 1.5,
        "duration": 0.3,
        "velocity": 0.63,
        "hand": "right"
      },
      {
        "midi": 69,
        "time": 1.5,
        "duration": 0.3,
        "velocity": 0.63,
        "hand": "right"
      },
      {
        "midi": 62,
        "time": 1.8,
        "duration": 0.9,
        "velocity": 0.63,
        "hand": "right"
      },
      {
        "midi": 66,
        "time": 1.8,
        "duration": 0.9,
        "velocity": 0.63,
        "hand": "right"
      },
      {
        "midi": 74,
        "time": 1.8,
        "duration": 0.9,
        "velocity": 0.63,
        "hand": "right"
      },
      {
        "midi": 69,
        "time": 2.7,
        "duration": 0.3,
        "velocity": 0.63,
        "hand": "right"
      },
      {
        "midi": 72,
        "time": 2.7,
        "duration": 0.3,
        "velocity": 0.63,
        "hand": "right"
      },
      {
        "midi": 58,
        "time": 3,
        "duration": 0.3,
        "velocity": 0.63,
        "hand": "left"
      },
      {
        "midi": 70,
        "time": 3,
        "duration": 0.3,
        "velocity": 0.63,
        "hand": "right"
      },
      {
        "midi": 74,
        "time": 3,
        "duration": 0.3,
        "velocity": 0.63,
        "hand": "right"
      },
      {
        "midi": 57,
        "time": 3.3,
        "duration": 0.3,
        "velocity": 0.63,
        "hand": "left"
      },
      {
        "midi": 69,
        "time": 3.3,
        "duration": 0.3,
        "velocity": 0.63,
        "hand": "right"
      },
      {
        "midi": 72,
        "time": 3.3,
        "duration": 0.3,
        "velocity": 0.63,
        "hand": "right"
      },
      {
        "midi": 55,
        "time": 3.6,
        "duration": 0.3,
        "velocity": 0.63,
        "hand": "left"
      },
      {
        "midi": 67,
        "time": 3.6,
        "duration": 0.3,
        "velocity": 0.63,
        "hand": "right"
      },
      {
        "midi": 70,
        "time": 3.6,
        "duration": 0.3,
        "velocity": 0.63,
        "hand": "right"
      },
      {
        "midi": 57,
        "time": 3.9,
        "duration": 0.3,
        "velocity": 0.63,
        "hand": "left"
      },
      {
        "midi": 69,
        "time": 3.9,
        "duration": 0.3,
        "velocity": 0.63,
        "hand": "right"
      },
      {
        "midi": 72,
        "time": 3.9,
        "duration": 0.3,
        "velocity": 0.63,
        "hand": "right"
      },
      {
        "midi": 58,
        "time": 4.2,
        "duration": 0.3,
        "velocity": 0.63,
        "hand": "left"
      },
      {
        "midi": 70,
        "time": 4.2,
        "duration": 0.3,
        "velocity": 0.63,
        "hand": "right"
      },
      {
        "midi": 74,
        "time": 4.2,
        "duration": 0.3,
        "velocity": 0.63,
        "hand": "right"
      },
      {
        "midi": 57,
        "time": 4.5,
        "duration": 0.3,
        "velocity": 0.63,
        "hand": "left"
      },
      {
        "midi": 69,
        "time": 4.5,
        "duration": 0.3,
        "velocity": 0.63,
        "hand": "right"
      },
      {
        "midi": 72,
        "time": 4.5,
        "duration": 0.3,
        "velocity": 0.63,
        "hand": "right"
      },
      {
        "midi": 55,
        "time": 4.8,
        "duration": 0.3,
        "velocity": 0.63,
        "hand": "left"
      },
      {
        "midi": 67,
        "time": 4.8,
        "duration": 0.3,
        "velocity": 0.63,
        "hand": "right"
      },
      {
        "midi": 70,
        "time": 4.8,
        "duration": 0.3,
        "velocity": 0.63,
        "hand": "right"
      },
      {
        "midi": 57,
        "time": 5.1,
        "duration": 0.3,
        "velocity": 0.63,
        "hand": "left"
      },
      {
        "midi": 69,
        "time": 5.1,
        "duration": 0.3,
        "velocity": 0.63,
        "hand": "right"
      },
      {
        "midi": 58,
        "time": 5.4,
        "duration": 0.45,
        "velocity": 0.63,
        "hand": "left"
      },
      {
        "midi": 67,
        "time": 5.4,
        "duration": 0.9,
        "velocity": 0.63,
        "hand": "right"
      },
      {
        "midi": 70,
        "time": 5.4,
        "duration": 0.9,
        "velocity": 0.63,
        "hand": "right"
      },
      {
        "midi": 62,
        "time": 6,
        "duration": 0.45,
        "velocity": 0.63,
        "hand": "right"
      },
      {
        "midi": 70,
        "time": 6.3,
        "duration": 0.3,
        "velocity": 0.63,
        "hand": "right"
      },
      {
        "midi": 74,
        "time": 6.3,
        "duration": 0.3,
        "velocity": 0.63,
        "hand": "right"
      },
      {
        "midi": 60,
        "time": 6.6,
        "duration": 0.9,
        "velocity": 0.63,
        "hand": "right"
      },
      {
        "midi": 64,
        "time": 6.6,
        "duration": 0.9,
        "velocity": 0.63,
        "hand": "right"
      },
      {
        "midi": 72,
        "time": 6.6,
        "duration": 0.9,
        "velocity": 0.63,
        "hand": "right"
      },
      {
        "midi": 67,
        "time": 7.5,
        "duration": 0.3,
        "velocity": 0.63,
        "hand": "right"
      },
      {
        "midi": 70,
        "time": 7.5,
        "duration": 0.3,
        "velocity": 0.63,
        "hand": "right"
      },
      {
        "midi": 57,
        "time": 7.8,
        "duration": 0.3,
        "velocity": 0.63,
        "hand": "left"
      },
      {
        "midi": 69,
        "time": 7.8,
        "duration": 0.3,
        "velocity": 0.63,
        "hand": "right"
      },
      {
        "midi": 72,
        "time": 7.8,
        "duration": 0.3,
        "velocity": 0.63,
        "hand": "right"
      },
      {
        "midi": 55,
        "time": 8.1,
        "duration": 0.3,
        "velocity": 0.63,
        "hand": "left"
      },
      {
        "midi": 67,
        "time": 8.1,
        "duration": 0.3,
        "velocity": 0.63,
        "hand": "right"
      },
      {
        "midi": 70,
        "time": 8.1,
        "duration": 0.3,
        "velocity": 0.63,
        "hand": "right"
      },
      {
        "midi": 53,
        "time": 8.4,
        "duration": 0.3,
        "velocity": 0.63,
        "hand": "left"
      },
      {
        "midi": 65,
        "time": 8.4,
        "duration": 0.3,
        "velocity": 0.63,
        "hand": "right"
      },
      {
        "midi": 69,
        "time": 8.4,
        "duration": 0.3,
        "velocity": 0.63,
        "hand": "right"
      },
      {
        "midi": 55,
        "time": 8.7,
        "duration": 0.3,
        "velocity": 0.63,
        "hand": "left"
      },
      {
        "midi": 67,
        "time": 8.7,
        "duration": 0.3,
        "velocity": 0.63,
        "hand": "right"
      },
      {
        "midi": 57,
        "time": 9,
        "duration": 0.6,
        "velocity": 0.63,
        "hand": "left"
      },
      {
        "midi": 65,
        "time": 9,
        "duration": 0.6,
        "velocity": 0.63,
        "hand": "right"
      },
      {
        "midi": 69,
        "time": 9,
        "duration": 0.6,
        "velocity": 0.63,
        "hand": "right"
      },
      {
        "midi": 53,
        "time": 9.6,
        "duration": 0.3,
        "velocity": 0.63,
        "hand": "left"
      },
      {
        "midi": 62,
        "time": 9.6,
        "duration": 0.3,
        "velocity": 0.63,
        "hand": "right"
      },
      {
        "midi": 65,
        "time": 9.6,
        "duration": 0.3,
        "velocity": 0.63,
        "hand": "right"
      },
      {
        "midi": 55,
        "time": 9.9,
        "duration": 0.3,
        "velocity": 0.63,
        "hand": "left"
      },
      {
        "midi": 64,
        "time": 9.9,
        "duration": 0.3,
        "velocity": 0.63,
        "hand": "right"
      },
      {
        "midi": 67,
        "time": 9.9,
        "duration": 0.3,
        "velocity": 0.63,
        "hand": "right"
      },
      {
        "midi": 57,
        "time": 10.2,
        "duration": 0.45,
        "velocity": 0.63,
        "hand": "left"
      },
      {
        "midi": 65,
        "time": 10.2,
        "duration": 0.9,
        "velocity": 0.63,
        "hand": "right"
      },
      {
        "midi": 69,
        "time": 10.2,
        "duration": 0.9,
        "velocity": 0.63,
        "hand": "right"
      },
      {
        "midi": 53,
        "time": 10.8,
        "duration": 0.45,
        "velocity": 0.63,
        "hand": "left"
      },
      {
        "midi": 62,
        "time": 11.1,
        "duration": 0.3,
        "velocity": 0.63,
        "hand": "right"
      },
      {
        "midi": 65,
        "time": 11.1,
        "duration": 0.3,
        "velocity": 0.63,
        "hand": "right"
      },
      {
        "midi": 58,
        "time": 11.4,
        "duration": 0.9,
        "velocity": 0.63,
        "hand": "left"
      },
      {
        "midi": 62,
        "time": 11.4,
        "duration": 0.9,
        "velocity": 0.63,
        "hand": "right"
      },
      {
        "midi": 70,
        "time": 11.4,
        "duration": 0.9,
        "velocity": 0.63,
        "hand": "right"
      },
      {
        "midi": 65,
        "time": 12.3,
        "duration": 0.3,
        "velocity": 0.63,
        "hand": "right"
      },
      {
        "midi": 69,
        "time": 12.3,
        "duration": 0.3,
        "velocity": 0.63,
        "hand": "right"
      },
      {
        "midi": 55,
        "time": 12.6,
        "duration": 0.3,
        "velocity": 0.63,
        "hand": "left"
      },
      {
        "midi": 64,
        "time": 12.6,
        "duration": 0.3,
        "velocity": 0.63,
        "hand": "right"
      },
      {
        "midi": 67,
        "time": 12.6,
        "duration": 0.3,
        "velocity": 0.63,
        "hand": "right"
      },
      {
        "midi": 53,
        "time": 12.9,
        "duration": 0.3,
        "velocity": 0.63,
        "hand": "left"
      },
      {
        "midi": 62,
        "time": 12.9,
        "duration": 0.3,
        "velocity": 0.63,
        "hand": "right"
      },
      {
        "midi": 65,
        "time": 12.9,
        "duration": 0.3,
        "velocity": 0.63,
        "hand": "right"
      },
      {
        "midi": 52,
        "time": 13.2,
        "duration": 0.3,
        "velocity": 0.63,
        "hand": "left"
      },
      {
        "midi": 60,
        "time": 13.2,
        "duration": 0.3,
        "velocity": 0.63,
        "hand": "right"
      },
      {
        "midi": 64,
        "time": 13.2,
        "duration": 0.3,
        "velocity": 0.63,
        "hand": "right"
      },
      {
        "midi": 53,
        "time": 13.5,
        "duration": 0.3,
        "velocity": 0.63,
        "hand": "left"
      },
      {
        "midi": 62,
        "time": 13.5,
        "duration": 0.3,
        "velocity": 0.63,
        "hand": "right"
      },
      {
        "midi": 65,
        "time": 13.5,
        "duration": 0.3,
        "velocity": 0.63,
        "hand": "right"
      },
      {
        "midi": 55,
        "time": 13.8,
        "duration": 0.6,
        "velocity": 0.63,
        "hand": "left"
      },
      {
        "midi": 64,
        "time": 13.8,
        "duration": 0.6,
        "velocity": 0.63,
        "hand": "right"
      },
      {
        "midi": 67,
        "time": 13.8,
        "duration": 0.6,
        "velocity": 0.63,
        "hand": "right"
      },
      {
        "midi": 64,
        "time": 14.4,
        "duration": 0.3,
        "velocity": 0.63,
        "hand": "right"
      },
      {
        "midi": 67,
        "time": 14.4,
        "duration": 0.3,
        "velocity": 0.63,
        "hand": "right"
      },
      {
        "midi": 76,
        "time": 14.4,
        "duration": 0.3,
        "velocity": 0.63,
        "hand": "right"
      },
      {
        "midi": 62,
        "time": 14.7,
        "duration": 0.3,
        "velocity": 0.63,
        "hand": "right"
      },
      {
        "midi": 65,
        "time": 14.7,
        "duration": 0.3,
        "velocity": 0.63,
        "hand": "right"
      },
      {
        "midi": 74,
        "time": 14.7,
        "duration": 0.3,
        "velocity": 0.63,
        "hand": "right"
      },
      {
        "midi": 60,
        "time": 15,
        "duration": 0.45,
        "velocity": 0.63,
        "hand": "right"
      },
      {
        "midi": 64,
        "time": 15,
        "duration": 0.9,
        "velocity": 0.63,
        "hand": "right"
      },
      {
        "midi": 72,
        "time": 15,
        "duration": 0.9,
        "velocity": 0.63,
        "hand": "right"
      },
      {
        "midi": 58,
        "time": 15.6,
        "duration": 0.45,
        "velocity": 0.63,
        "hand": "left"
      },
      {
        "midi": 70,
        "time": 15.9,
        "duration": 0.3,
        "velocity": 0.63,
        "hand": "right"
      },
      {
        "midi": 74,
        "time": 15.9,
        "duration": 0.3,
        "velocity": 0.63,
        "hand": "right"
      },
      {
        "midi": 57,
        "time": 16.2,
        "duration": 0.9,
        "velocity": 0.63,
        "hand": "left"
      },
      {
        "midi": 69,
        "time": 16.2,
        "duration": 0.9,
        "velocity": 0.63,
        "hand": "right"
      },
      {
        "midi": 72,
        "time": 16.2,
        "duration": 0.9,
        "velocity": 0.63,
        "hand": "right"
      },
      {
        "midi": 67,
        "time": 17.1,
        "duration": 0.3,
        "velocity": 0.63,
        "hand": "right"
      },
      {
        "midi": 70,
        "time": 17.1,
        "duration": 0.3,
        "velocity": 0.63,
        "hand": "right"
      },
      {
        "midi": 53,
        "time": 17.4,
        "duration": 0.9,
        "velocity": 0.63,
        "hand": "left"
      },
      {
        "midi": 65,
        "time": 17.4,
        "duration": 0.6,
        "velocity": 0.63,
        "hand": "right"
      },
      {
        "midi": 69,
        "time": 17.4,
        "duration": 0.6,
        "velocity": 0.63,
        "hand": "right"
      },
      {
        "midi": 65,
        "time": 18,
        "duration": 0.6,
        "velocity": 0.63,
        "hand": "right"
      },
      {
        "midi": 69,
        "time": 18,
        "duration": 0.6,
        "velocity": 0.63,
        "hand": "right"
      },
      {
        "midi": 53,
        "time": 18.6,
        "duration": 0.45,
        "velocity": 0.63,
        "hand": "left"
      },
      {
        "midi": 52,
        "time": 19.2,
        "duration": 0.3,
        "velocity": 0.63,
        "hand": "left"
      },
      {
        "midi": 60,
        "time": 19.2,
        "duration": 0.3,
        "velocity": 0.63,
        "hand": "right"
      },
      {
        "midi": 64,
        "time": 19.2,
        "duration": 0.3,
        "velocity": 0.63,
        "hand": "right"
      },
      {
        "midi": 53,
        "time": 19.5,
        "duration": 0.3,
        "velocity": 0.63,
        "hand": "left"
      },
      {
        "midi": 62,
        "time": 19.5,
        "duration": 0.3,
        "velocity": 0.63,
        "hand": "right"
      },
      {
        "midi": 65,
        "time": 19.5,
        "duration": 0.3,
        "velocity": 0.63,
        "hand": "right"
      },
      {
        "midi": 55,
        "time": 19.8,
        "duration": 0.45,
        "velocity": 0.63,
        "hand": "left"
      },
      {
        "midi": 64,
        "time": 19.8,
        "duration": 0.9,
        "velocity": 0.63,
        "hand": "right"
      },
      {
        "midi": 67,
        "time": 19.8,
        "duration": 0.9,
        "velocity": 0.63,
        "hand": "right"
      },
      {
        "midi": 52,
        "time": 20.4,
        "duration": 0.45,
        "velocity": 0.63,
        "hand": "left"
      },
      {
        "midi": 60,
        "time": 20.7,
        "duration": 0.3,
        "velocity": 0.63,
        "hand": "right"
      },
      {
        "midi": 64,
        "time": 20.7,
        "duration": 0.3,
        "velocity": 0.63,
        "hand": "right"
      },
      {
        "midi": 57,
        "time": 21,
        "duration": 0.9,
        "velocity": 0.63,
        "hand": "left"
      },
      {
        "midi": 61,
        "time": 21,
        "duration": 0.9,
        "velocity": 0.63,
        "hand": "right"
      },
      {
        "midi": 69,
        "time": 21,
        "duration": 0.9,
        "velocity": 0.63,
        "hand": "right"
      },
      {
        "midi": 64,
        "time": 21.9,
        "duration": 0.3,
        "velocity": 0.63,
        "hand": "right"
      },
      {
        "midi": 67,
        "time": 21.9,
        "duration": 0.3,
        "velocity": 0.63,
        "hand": "right"
      },
      {
        "midi": 53,
        "time": 22.2,
        "duration": 0.3,
        "velocity": 0.63,
        "hand": "left"
      },
      {
        "midi": 65,
        "time": 22.2,
        "duration": 0.3,
        "velocity": 0.63,
        "hand": "right"
      },
      {
        "midi": 69,
        "time": 22.2,
        "duration": 0.3,
        "velocity": 0.63,
        "hand": "right"
      },
      {
        "midi": 52,
        "time": 22.5,
        "duration": 0.3,
        "velocity": 0.63,
        "hand": "left"
      },
      {
        "midi": 64,
        "time": 22.5,
        "duration": 0.3,
        "velocity": 0.63,
        "hand": "right"
      },
      {
        "midi": 67,
        "time": 22.5,
        "duration": 0.3,
        "velocity": 0.63,
        "hand": "right"
      },
      {
        "midi": 50,
        "time": 22.8,
        "duration": 0.3,
        "velocity": 0.63,
        "hand": "left"
      },
      {
        "midi": 62,
        "time": 22.8,
        "duration": 0.3,
        "velocity": 0.63,
        "hand": "right"
      },
      {
        "midi": 65,
        "time": 22.8,
        "duration": 0.3,
        "velocity": 0.63,
        "hand": "right"
      },
      {
        "midi": 52,
        "time": 23.1,
        "duration": 0.3,
        "velocity": 0.63,
        "hand": "left"
      },
      {
        "midi": 64,
        "time": 23.1,
        "duration": 0.3,
        "velocity": 0.63,
        "hand": "right"
      },
      {
        "midi": 67,
        "time": 23.1,
        "duration": 0.3,
        "velocity": 0.63,
        "hand": "right"
      },
      {
        "midi": 53,
        "time": 23.4,
        "duration": 0.3,
        "velocity": 0.63,
        "hand": "left"
      },
      {
        "midi": 65,
        "time": 23.4,
        "duration": 0.3,
        "velocity": 0.63,
        "hand": "right"
      },
      {
        "midi": 69,
        "time": 23.4,
        "duration": 0.3,
        "velocity": 0.63,
        "hand": "right"
      },
      {
        "midi": 52,
        "time": 23.7,
        "duration": 0.3,
        "velocity": 0.63,
        "hand": "left"
      },
      {
        "midi": 64,
        "time": 23.7,
        "duration": 0.3,
        "velocity": 0.63,
        "hand": "right"
      },
      {
        "midi": 67,
        "time": 23.7,
        "duration": 0.3,
        "velocity": 0.63,
        "hand": "right"
      },
      {
        "midi": 50,
        "time": 24,
        "duration": 0.3,
        "velocity": 0.63,
        "hand": "left"
      },
      {
        "midi": 62,
        "time": 24,
        "duration": 0.3,
        "velocity": 0.63,
        "hand": "right"
      },
      {
        "midi": 65,
        "time": 24,
        "duration": 0.3,
        "velocity": 0.63,
        "hand": "right"
      },
      {
        "midi": 52,
        "time": 24.3,
        "duration": 0.3,
        "velocity": 0.63,
        "hand": "left"
      },
      {
        "midi": 64,
        "time": 24.3,
        "duration": 0.3,
        "velocity": 0.63,
        "hand": "right"
      },
      {
        "midi": 53,
        "time": 24.6,
        "duration": 0.45,
        "velocity": 0.63,
        "hand": "left"
      },
      {
        "midi": 62,
        "time": 24.6,
        "duration": 0.9,
        "velocity": 0.63,
        "hand": "right"
      },
      {
        "midi": 65,
        "time": 24.6,
        "duration": 0.9,
        "velocity": 0.63,
        "hand": "right"
      },
      {
        "midi": 57,
        "time": 25.2,
        "duration": 0.45,
        "velocity": 0.63,
        "hand": "left"
      },
      {
        "midi": 65,
        "time": 25.5,
        "duration": 0.3,
        "velocity": 0.63,
        "hand": "right"
      },
      {
        "midi": 69,
        "time": 25.5,
        "duration": 0.3,
        "velocity": 0.63,
        "hand": "right"
      },
      {
        "midi": 55,
        "time": 25.8,
        "duration": 0.9,
        "velocity": 0.63,
        "hand": "left"
      },
      {
        "midi": 59,
        "time": 25.8,
        "duration": 0.9,
        "velocity": 0.63,
        "hand": "left"
      },
      {
        "midi": 67,
        "time": 25.8,
        "duration": 0.9,
        "velocity": 0.63,
        "hand": "right"
      },
      {
        "midi": 62,
        "time": 26.7,
        "duration": 0.3,
        "velocity": 0.63,
        "hand": "right"
      },
      {
        "midi": 65,
        "time": 26.7,
        "duration": 0.3,
        "velocity": 0.63,
        "hand": "right"
      },
      {
        "midi": 52,
        "time": 27,
        "duration": 0.3,
        "velocity": 0.63,
        "hand": "left"
      },
      {
        "midi": 64,
        "time": 27,
        "duration": 0.3,
        "velocity": 0.63,
        "hand": "right"
      },
      {
        "midi": 67,
        "time": 27,
        "duration": 0.3,
        "velocity": 0.63,
        "hand": "right"
      },
      {
        "midi": 50,
        "time": 27.3,
        "duration": 0.3,
        "velocity": 0.63,
        "hand": "left"
      },
      {
        "midi": 62,
        "time": 27.3,
        "duration": 0.3,
        "velocity": 0.63,
        "hand": "right"
      },
      {
        "midi": 65,
        "time": 27.3,
        "duration": 0.3,
        "velocity": 0.63,
        "hand": "right"
      },
      {
        "midi": 48,
        "time": 27.6,
        "duration": 0.3,
        "velocity": 0.63,
        "hand": "left"
      },
      {
        "midi": 60,
        "time": 27.6,
        "duration": 0.3,
        "velocity": 0.63,
        "hand": "right"
      },
      {
        "midi": 64,
        "time": 27.6,
        "duration": 0.3,
        "velocity": 0.63,
        "hand": "right"
      },
      {
        "midi": 50,
        "time": 27.9,
        "duration": 0.3,
        "velocity": 0.63,
        "hand": "left"
      },
      {
        "midi": 62,
        "time": 27.9,
        "duration": 0.3,
        "velocity": 0.63,
        "hand": "right"
      },
      {
        "midi": 52,
        "time": 28.2,
        "duration": 0.6,
        "velocity": 0.63,
        "hand": "left"
      },
      {
        "midi": 60,
        "time": 28.2,
        "duration": 0.6,
        "velocity": 0.63,
        "hand": "right"
      },
      {
        "midi": 64,
        "time": 28.2,
        "duration": 0.6,
        "velocity": 0.63,
        "hand": "right"
      },
      {
        "midi": 48,
        "time": 28.8,
        "duration": 0.3,
        "velocity": 0.63,
        "hand": "left"
      },
      {
        "midi": 57,
        "time": 28.8,
        "duration": 0.3,
        "velocity": 0.63,
        "hand": "left"
      },
      {
        "midi": 60,
        "time": 28.8,
        "duration": 0.3,
        "velocity": 0.63,
        "hand": "right"
      },
      {
        "midi": 50,
        "time": 29.1,
        "duration": 0.3,
        "velocity": 0.63,
        "hand": "left"
      },
      {
        "midi": 59,
        "time": 29.1,
        "duration": 0.3,
        "velocity": 0.63,
        "hand": "left"
      },
      {
        "midi": 62,
        "time": 29.1,
        "duration": 0.3,
        "velocity": 0.63,
        "hand": "right"
      },
      {
        "midi": 52,
        "time": 29.4,
        "duration": 0.45,
        "velocity": 0.63,
        "hand": "left"
      },
      {
        "midi": 60,
        "time": 29.4,
        "duration": 0.9,
        "velocity": 0.63,
        "hand": "right"
      },
      {
        "midi": 64,
        "time": 29.4,
        "duration": 0.9,
        "velocity": 0.63,
        "hand": "right"
      },
      {
        "midi": 48,
        "time": 30,
        "duration": 0.45,
        "velocity": 0.63,
        "hand": "left"
      },
      {
        "midi": 57,
        "time": 30.3,
        "duration": 0.3,
        "velocity": 0.63,
        "hand": "left"
      },
      {
        "midi": 60,
        "time": 30.3,
        "duration": 0.3,
        "velocity": 0.63,
        "hand": "right"
      },
      {
        "midi": 53,
        "time": 30.6,
        "duration": 0.9,
        "velocity": 0.63,
        "hand": "left"
      },
      {
        "midi": 57,
        "time": 30.6,
        "duration": 0.9,
        "velocity": 0.63,
        "hand": "left"
      },
      {
        "midi": 65,
        "time": 30.6,
        "duration": 0.9,
        "velocity": 0.63,
        "hand": "right"
      },
      {
        "midi": 60,
        "time": 31.5,
        "duration": 0.3,
        "velocity": 0.63,
        "hand": "right"
      },
      {
        "midi": 64,
        "time": 31.5,
        "duration": 0.3,
        "velocity": 0.63,
        "hand": "right"
      },
      {
        "midi": 50,
        "time": 31.8,
        "duration": 0.3,
        "velocity": 0.63,
        "hand": "left"
      },
      {
        "midi": 59,
        "time": 31.8,
        "duration": 0.3,
        "velocity": 0.63,
        "hand": "left"
      },
      {
        "midi": 62,
        "time": 31.8,
        "duration": 0.3,
        "velocity": 0.63,
        "hand": "right"
      },
      {
        "midi": 48,
        "time": 32.1,
        "duration": 0.3,
        "velocity": 0.63,
        "hand": "left"
      },
      {
        "midi": 57,
        "time": 32.1,
        "duration": 0.3,
        "velocity": 0.63,
        "hand": "left"
      },
      {
        "midi": 60,
        "time": 32.1,
        "duration": 0.3,
        "velocity": 0.63,
        "hand": "right"
      },
      {
        "midi": 47,
        "time": 32.4,
        "duration": 0.3,
        "velocity": 0.63,
        "hand": "left"
      },
      {
        "midi": 55,
        "time": 32.4,
        "duration": 0.3,
        "velocity": 0.63,
        "hand": "left"
      },
      {
        "midi": 59,
        "time": 32.4,
        "duration": 0.3,
        "velocity": 0.63,
        "hand": "left"
      },
      {
        "midi": 48,
        "time": 32.7,
        "duration": 0.3,
        "velocity": 0.63,
        "hand": "left"
      },
      {
        "midi": 57,
        "time": 32.7,
        "duration": 0.3,
        "velocity": 0.63,
        "hand": "left"
      },
      {
        "midi": 60,
        "time": 32.7,
        "duration": 0.3,
        "velocity": 0.63,
        "hand": "right"
      },
      {
        "midi": 50,
        "time": 33,
        "duration": 0.6,
        "velocity": 0.63,
        "hand": "left"
      },
      {
        "midi": 59,
        "time": 33,
        "duration": 0.6,
        "velocity": 0.63,
        "hand": "left"
      },
      {
        "midi": 62,
        "time": 33,
        "duration": 0.6,
        "velocity": 0.63,
        "hand": "right"
      },
      {
        "midi": 59,
        "time": 33.6,
        "duration": 0.3,
        "velocity": 0.63,
        "hand": "left"
      },
      {
        "midi": 62,
        "time": 33.6,
        "duration": 0.3,
        "velocity": 0.63,
        "hand": "right"
      },
      {
        "midi": 71,
        "time": 33.6,
        "duration": 0.3,
        "velocity": 0.63,
        "hand": "right"
      },
      {
        "midi": 57,
        "time": 33.9,
        "duration": 0.3,
        "velocity": 0.63,
        "hand": "left"
      },
      {
        "midi": 60,
        "time": 33.9,
        "duration": 0.3,
        "velocity": 0.63,
        "hand": "right"
      },
      {
        "midi": 69,
        "time": 33.9,
        "duration": 0.3,
        "velocity": 0.63,
        "hand": "right"
      },
      {
        "midi": 55,
        "time": 34.2,
        "duration": 0.45,
        "velocity": 0.63,
        "hand": "left"
      },
      {
        "midi": 59,
        "time": 34.2,
        "duration": 0.9,
        "velocity": 0.63,
        "hand": "left"
      },
      {
        "midi": 67,
        "time": 34.2,
        "duration": 0.9,
        "velocity": 0.63,
        "hand": "right"
      },
      {
        "midi": 53,
        "time": 34.8,
        "duration": 0.45,
        "velocity": 0.63,
        "hand": "left"
      },
      {
        "midi": 65,
        "time": 35.1,
        "duration": 0.3,
        "velocity": 0.63,
        "hand": "right"
      },
      {
        "midi": 69,
        "time": 35.1,
        "duration": 0.3,
        "velocity": 0.63,
        "hand": "right"
      },
      {
        "midi": 52,
        "time": 35.4,
        "duration": 0.9,
        "velocity": 0.63,
        "hand": "left"
      },
      {
        "midi": 64,
        "time": 35.4,
        "duration": 0.9,
        "velocity": 0.63,
        "hand": "right"
      },
      {
        "midi": 67,
        "time": 35.4,
        "duration": 0.9,
        "velocity": 0.63,
        "hand": "right"
      },
      {
        "midi": 62,
        "time": 36.3,
        "duration": 0.3,
        "velocity": 0.63,
        "hand": "right"
      },
      {
        "midi": 65,
        "time": 36.3,
        "duration": 0.3,
        "velocity": 0.63,
        "hand": "right"
      },
      {
        "midi": 48,
        "time": 36.6,
        "duration": 0.9,
        "velocity": 0.63,
        "hand": "left"
      },
      {
        "midi": 60,
        "time": 36.6,
        "duration": 0.6,
        "velocity": 0.63,
        "hand": "right"
      },
      {
        "midi": 64,
        "time": 36.6,
        "duration": 0.6,
        "velocity": 0.63,
        "hand": "right"
      },
      {
        "midi": 60,
        "time": 37.2,
        "duration": 0.6,
        "velocity": 0.63,
        "hand": "right"
      },
      {
        "midi": 64,
        "time": 37.2,
        "duration": 0.6,
        "velocity": 0.63,
        "hand": "right"
      },
      {
        "midi": 48,
        "time": 37.8,
        "duration": 0.6,
        "velocity": 0.63,
        "hand": "left"
      },
      {
        "midi": 57,
        "time": 38.4,
        "duration": 0.3,
        "velocity": 0.63,
        "hand": "left"
      },
      {
        "midi": 65,
        "time": 38.4,
        "duration": 0.3,
        "velocity": 0.63,
        "hand": "right"
      },
      {
        "midi": 69,
        "time": 38.4,
        "duration": 0.3,
        "velocity": 0.63,
        "hand": "right"
      },
      {
        "midi": 58,
        "time": 38.7,
        "duration": 0.3,
        "velocity": 0.63,
        "hand": "left"
      },
      {
        "midi": 67,
        "time": 38.7,
        "duration": 0.3,
        "velocity": 0.63,
        "hand": "right"
      },
      {
        "midi": 70,
        "time": 38.7,
        "duration": 0.3,
        "velocity": 0.63,
        "hand": "right"
      },
      {
        "midi": 60,
        "time": 39,
        "duration": 0.45,
        "velocity": 0.63,
        "hand": "right"
      },
      {
        "midi": 69,
        "time": 39,
        "duration": 0.9,
        "velocity": 0.63,
        "hand": "right"
      },
      {
        "midi": 72,
        "time": 39,
        "duration": 0.9,
        "velocity": 0.63,
        "hand": "right"
      },
      {
        "midi": 57,
        "time": 39.6,
        "duration": 0.45,
        "velocity": 0.63,
        "hand": "left"
      },
      {
        "midi": 65,
        "time": 39.9,
        "duration": 0.3,
        "velocity": 0.63,
        "hand": "right"
      },
      {
        "midi": 69,
        "time": 39.9,
        "duration": 0.3,
        "velocity": 0.63,
        "hand": "right"
      },
      {
        "midi": 62,
        "time": 40.2,
        "duration": 0.9,
        "velocity": 0.63,
        "hand": "right"
      },
      {
        "midi": 66,
        "time": 40.2,
        "duration": 0.9,
        "velocity": 0.63,
        "hand": "right"
      },
      {
        "midi": 74,
        "time": 40.2,
        "duration": 0.9,
        "velocity": 0.63,
        "hand": "right"
      },
      {
        "midi": 69,
        "time": 41.1,
        "duration": 0.3,
        "velocity": 0.63,
        "hand": "right"
      },
      {
        "midi": 72,
        "time": 41.1,
        "duration": 0.3,
        "velocity": 0.63,
        "hand": "right"
      },
      {
        "midi": 58,
        "time": 41.4,
        "duration": 0.3,
        "velocity": 0.63,
        "hand": "left"
      },
      {
        "midi": 70,
        "time": 41.4,
        "duration": 0.3,
        "velocity": 0.63,
        "hand": "right"
      },
      {
        "midi": 74,
        "time": 41.4,
        "duration": 0.3,
        "velocity": 0.63,
        "hand": "right"
      },
      {
        "midi": 57,
        "time": 41.7,
        "duration": 0.3,
        "velocity": 0.63,
        "hand": "left"
      },
      {
        "midi": 69,
        "time": 41.7,
        "duration": 0.3,
        "velocity": 0.63,
        "hand": "right"
      },
      {
        "midi": 72,
        "time": 41.7,
        "duration": 0.3,
        "velocity": 0.63,
        "hand": "right"
      },
      {
        "midi": 55,
        "time": 42,
        "duration": 0.3,
        "velocity": 0.63,
        "hand": "left"
      },
      {
        "midi": 67,
        "time": 42,
        "duration": 0.3,
        "velocity": 0.63,
        "hand": "right"
      },
      {
        "midi": 70,
        "time": 42,
        "duration": 0.3,
        "velocity": 0.63,
        "hand": "right"
      },
      {
        "midi": 57,
        "time": 42.3,
        "duration": 0.3,
        "velocity": 0.63,
        "hand": "left"
      },
      {
        "midi": 69,
        "time": 42.3,
        "duration": 0.3,
        "velocity": 0.63,
        "hand": "right"
      },
      {
        "midi": 72,
        "time": 42.3,
        "duration": 0.3,
        "velocity": 0.63,
        "hand": "right"
      },
      {
        "midi": 58,
        "time": 42.6,
        "duration": 0.3,
        "velocity": 0.63,
        "hand": "left"
      },
      {
        "midi": 70,
        "time": 42.6,
        "duration": 0.3,
        "velocity": 0.63,
        "hand": "right"
      },
      {
        "midi": 74,
        "time": 42.6,
        "duration": 0.3,
        "velocity": 0.63,
        "hand": "right"
      },
      {
        "midi": 57,
        "time": 42.9,
        "duration": 0.3,
        "velocity": 0.63,
        "hand": "left"
      },
      {
        "midi": 69,
        "time": 42.9,
        "duration": 0.3,
        "velocity": 0.63,
        "hand": "right"
      },
      {
        "midi": 72,
        "time": 42.9,
        "duration": 0.3,
        "velocity": 0.63,
        "hand": "right"
      },
      {
        "midi": 55,
        "time": 43.2,
        "duration": 0.3,
        "velocity": 0.63,
        "hand": "left"
      },
      {
        "midi": 67,
        "time": 43.2,
        "duration": 0.3,
        "velocity": 0.63,
        "hand": "right"
      },
      {
        "midi": 70,
        "time": 43.2,
        "duration": 0.3,
        "velocity": 0.63,
        "hand": "right"
      },
      {
        "midi": 57,
        "time": 43.5,
        "duration": 0.3,
        "velocity": 0.63,
        "hand": "left"
      },
      {
        "midi": 69,
        "time": 43.5,
        "duration": 0.3,
        "velocity": 0.63,
        "hand": "right"
      },
      {
        "midi": 58,
        "time": 43.8,
        "duration": 0.45,
        "velocity": 0.63,
        "hand": "left"
      },
      {
        "midi": 67,
        "time": 43.8,
        "duration": 0.9,
        "velocity": 0.63,
        "hand": "right"
      },
      {
        "midi": 70,
        "time": 43.8,
        "duration": 0.9,
        "velocity": 0.63,
        "hand": "right"
      },
      {
        "midi": 62,
        "time": 44.4,
        "duration": 0.45,
        "velocity": 0.63,
        "hand": "right"
      },
      {
        "midi": 70,
        "time": 44.7,
        "duration": 0.3,
        "velocity": 0.63,
        "hand": "right"
      },
      {
        "midi": 74,
        "time": 44.7,
        "duration": 0.3,
        "velocity": 0.63,
        "hand": "right"
      },
      {
        "midi": 60,
        "time": 45,
        "duration": 0.9,
        "velocity": 0.63,
        "hand": "right"
      },
      {
        "midi": 64,
        "time": 45,
        "duration": 0.9,
        "velocity": 0.63,
        "hand": "right"
      },
      {
        "midi": 72,
        "time": 45,
        "duration": 0.9,
        "velocity": 0.63,
        "hand": "right"
      },
      {
        "midi": 67,
        "time": 45.9,
        "duration": 0.3,
        "velocity": 0.63,
        "hand": "right"
      },
      {
        "midi": 70,
        "time": 45.9,
        "duration": 0.3,
        "velocity": 0.63,
        "hand": "right"
      },
      {
        "midi": 57,
        "time": 46.2,
        "duration": 0.3,
        "velocity": 0.63,
        "hand": "left"
      },
      {
        "midi": 69,
        "time": 46.2,
        "duration": 0.3,
        "velocity": 0.63,
        "hand": "right"
      },
      {
        "midi": 72,
        "time": 46.2,
        "duration": 0.3,
        "velocity": 0.63,
        "hand": "right"
      },
      {
        "midi": 55,
        "time": 46.5,
        "duration": 0.3,
        "velocity": 0.63,
        "hand": "left"
      },
      {
        "midi": 67,
        "time": 46.5,
        "duration": 0.3,
        "velocity": 0.63,
        "hand": "right"
      },
      {
        "midi": 70,
        "time": 46.5,
        "duration": 0.3,
        "velocity": 0.63,
        "hand": "right"
      },
      {
        "midi": 53,
        "time": 46.8,
        "duration": 0.3,
        "velocity": 0.63,
        "hand": "left"
      },
      {
        "midi": 65,
        "time": 46.8,
        "duration": 0.3,
        "velocity": 0.63,
        "hand": "right"
      },
      {
        "midi": 69,
        "time": 46.8,
        "duration": 0.3,
        "velocity": 0.63,
        "hand": "right"
      },
      {
        "midi": 55,
        "time": 47.1,
        "duration": 0.3,
        "velocity": 0.63,
        "hand": "left"
      },
      {
        "midi": 67,
        "time": 47.1,
        "duration": 0.3,
        "velocity": 0.63,
        "hand": "right"
      },
      {
        "midi": 57,
        "time": 47.4,
        "duration": 0.6,
        "velocity": 0.63,
        "hand": "left"
      },
      {
        "midi": 65,
        "time": 47.4,
        "duration": 0.6,
        "velocity": 0.63,
        "hand": "right"
      },
      {
        "midi": 69,
        "time": 47.4,
        "duration": 0.6,
        "velocity": 0.63,
        "hand": "right"
      },
      {
        "midi": 53,
        "time": 48,
        "duration": 0.3,
        "velocity": 0.63,
        "hand": "left"
      },
      {
        "midi": 62,
        "time": 48,
        "duration": 0.3,
        "velocity": 0.63,
        "hand": "right"
      },
      {
        "midi": 65,
        "time": 48,
        "duration": 0.3,
        "velocity": 0.63,
        "hand": "right"
      },
      {
        "midi": 55,
        "time": 48.3,
        "duration": 0.3,
        "velocity": 0.63,
        "hand": "left"
      },
      {
        "midi": 64,
        "time": 48.3,
        "duration": 0.3,
        "velocity": 0.63,
        "hand": "right"
      },
      {
        "midi": 67,
        "time": 48.3,
        "duration": 0.3,
        "velocity": 0.63,
        "hand": "right"
      },
      {
        "midi": 57,
        "time": 48.6,
        "duration": 0.45,
        "velocity": 0.63,
        "hand": "left"
      },
      {
        "midi": 65,
        "time": 48.6,
        "duration": 0.9,
        "velocity": 0.63,
        "hand": "right"
      },
      {
        "midi": 69,
        "time": 48.6,
        "duration": 0.9,
        "velocity": 0.63,
        "hand": "right"
      },
      {
        "midi": 53,
        "time": 49.2,
        "duration": 0.45,
        "velocity": 0.63,
        "hand": "left"
      },
      {
        "midi": 62,
        "time": 49.5,
        "duration": 0.3,
        "velocity": 0.63,
        "hand": "right"
      },
      {
        "midi": 65,
        "time": 49.5,
        "duration": 0.3,
        "velocity": 0.63,
        "hand": "right"
      },
      {
        "midi": 58,
        "time": 49.8,
        "duration": 0.9,
        "velocity": 0.63,
        "hand": "left"
      },
      {
        "midi": 62,
        "time": 49.8,
        "duration": 0.9,
        "velocity": 0.63,
        "hand": "right"
      },
      {
        "midi": 70,
        "time": 49.8,
        "duration": 0.9,
        "velocity": 0.63,
        "hand": "right"
      },
      {
        "midi": 65,
        "time": 50.7,
        "duration": 0.3,
        "velocity": 0.63,
        "hand": "right"
      },
      {
        "midi": 69,
        "time": 50.7,
        "duration": 0.3,
        "velocity": 0.63,
        "hand": "right"
      },
      {
        "midi": 55,
        "time": 51,
        "duration": 0.3,
        "velocity": 0.63,
        "hand": "left"
      },
      {
        "midi": 64,
        "time": 51,
        "duration": 0.3,
        "velocity": 0.63,
        "hand": "right"
      },
      {
        "midi": 67,
        "time": 51,
        "duration": 0.3,
        "velocity": 0.63,
        "hand": "right"
      },
      {
        "midi": 53,
        "time": 51.3,
        "duration": 0.3,
        "velocity": 0.63,
        "hand": "left"
      },
      {
        "midi": 62,
        "time": 51.3,
        "duration": 0.3,
        "velocity": 0.63,
        "hand": "right"
      },
      {
        "midi": 65,
        "time": 51.3,
        "duration": 0.3,
        "velocity": 0.63,
        "hand": "right"
      },
      {
        "midi": 52,
        "time": 51.6,
        "duration": 0.3,
        "velocity": 0.63,
        "hand": "left"
      },
      {
        "midi": 60,
        "time": 51.6,
        "duration": 0.3,
        "velocity": 0.63,
        "hand": "right"
      },
      {
        "midi": 64,
        "time": 51.6,
        "duration": 0.3,
        "velocity": 0.63,
        "hand": "right"
      },
      {
        "midi": 53,
        "time": 51.9,
        "duration": 0.3,
        "velocity": 0.63,
        "hand": "left"
      },
      {
        "midi": 62,
        "time": 51.9,
        "duration": 0.3,
        "velocity": 0.63,
        "hand": "right"
      },
      {
        "midi": 65,
        "time": 51.9,
        "duration": 0.3,
        "velocity": 0.63,
        "hand": "right"
      },
      {
        "midi": 55,
        "time": 52.2,
        "duration": 0.6,
        "velocity": 0.63,
        "hand": "left"
      },
      {
        "midi": 64,
        "time": 52.2,
        "duration": 0.6,
        "velocity": 0.63,
        "hand": "right"
      },
      {
        "midi": 67,
        "time": 52.2,
        "duration": 0.6,
        "velocity": 0.63,
        "hand": "right"
      },
      {
        "midi": 64,
        "time": 52.8,
        "duration": 0.3,
        "velocity": 0.63,
        "hand": "right"
      },
      {
        "midi": 67,
        "time": 52.8,
        "duration": 0.3,
        "velocity": 0.63,
        "hand": "right"
      },
      {
        "midi": 76,
        "time": 52.8,
        "duration": 0.3,
        "velocity": 0.63,
        "hand": "right"
      },
      {
        "midi": 62,
        "time": 53.1,
        "duration": 0.3,
        "velocity": 0.63,
        "hand": "right"
      },
      {
        "midi": 65,
        "time": 53.1,
        "duration": 0.3,
        "velocity": 0.63,
        "hand": "right"
      },
      {
        "midi": 74,
        "time": 53.1,
        "duration": 0.3,
        "velocity": 0.63,
        "hand": "right"
      },
      {
        "midi": 60,
        "time": 53.4,
        "duration": 0.45,
        "velocity": 0.63,
        "hand": "right"
      },
      {
        "midi": 64,
        "time": 53.4,
        "duration": 0.9,
        "velocity": 0.63,
        "hand": "right"
      },
      {
        "midi": 72,
        "time": 53.4,
        "duration": 0.9,
        "velocity": 0.63,
        "hand": "right"
      },
      {
        "midi": 58,
        "time": 54,
        "duration": 0.45,
        "velocity": 0.63,
        "hand": "left"
      },
      {
        "midi": 70,
        "time": 54.3,
        "duration": 0.3,
        "velocity": 0.63,
        "hand": "right"
      },
      {
        "midi": 74,
        "time": 54.3,
        "duration": 0.3,
        "velocity": 0.63,
        "hand": "right"
      },
      {
        "midi": 57,
        "time": 54.6,
        "duration": 0.9,
        "velocity": 0.63,
        "hand": "left"
      },
      {
        "midi": 69,
        "time": 54.6,
        "duration": 0.9,
        "velocity": 0.63,
        "hand": "right"
      },
      {
        "midi": 72,
        "time": 54.6,
        "duration": 0.9,
        "velocity": 0.63,
        "hand": "right"
      },
      {
        "midi": 67,
        "time": 55.5,
        "duration": 0.3,
        "velocity": 0.63,
        "hand": "right"
      },
      {
        "midi": 70,
        "time": 55.5,
        "duration": 0.3,
        "velocity": 0.63,
        "hand": "right"
      },
      {
        "midi": 53,
        "time": 55.8,
        "duration": 1.2,
        "velocity": 0.63,
        "hand": "left"
      },
      {
        "midi": 65,
        "time": 55.8,
        "duration": 1.2,
        "velocity": 0.63,
        "hand": "right"
      },
      {
        "midi": 69,
        "time": 55.8,
        "duration": 1.2,
        "velocity": 0.63,
        "hand": "right"
      }
    ],
    "hard": [
      {
        "midi": 57,
        "time": 0,
        "duration": 0.3,
        "velocity": 0.63,
        "hand": "left"
      },
      {
        "midi": 65,
        "time": 0,
        "duration": 0.3,
        "velocity": 0.63,
        "hand": "right"
      },
      {
        "midi": 69,
        "time": 0,
        "duration": 0.3,
        "velocity": 0.63,
        "hand": "right"
      },
      {
        "midi": 58,
        "time": 0.3,
        "duration": 0.3,
        "velocity": 0.63,
        "hand": "left"
      },
      {
        "midi": 67,
        "time": 0.3,
        "duration": 0.3,
        "velocity": 0.63,
        "hand": "right"
      },
      {
        "midi": 70,
        "time": 0.3,
        "duration": 0.3,
        "velocity": 0.63,
        "hand": "right"
      },
      {
        "midi": 60,
        "time": 0.6,
        "duration": 0.45,
        "velocity": 0.63,
        "hand": "right"
      },
      {
        "midi": 69,
        "time": 0.6,
        "duration": 0.9,
        "velocity": 0.63,
        "hand": "right"
      },
      {
        "midi": 72,
        "time": 0.6,
        "duration": 0.9,
        "velocity": 0.63,
        "hand": "right"
      },
      {
        "midi": 57,
        "time": 1.2,
        "duration": 0.45,
        "velocity": 0.63,
        "hand": "left"
      },
      {
        "midi": 65,
        "time": 1.5,
        "duration": 0.3,
        "velocity": 0.63,
        "hand": "right"
      },
      {
        "midi": 69,
        "time": 1.5,
        "duration": 0.3,
        "velocity": 0.63,
        "hand": "right"
      },
      {
        "midi": 62,
        "time": 1.8,
        "duration": 0.9,
        "velocity": 0.63,
        "hand": "right"
      },
      {
        "midi": 66,
        "time": 1.8,
        "duration": 0.9,
        "velocity": 0.63,
        "hand": "right"
      },
      {
        "midi": 74,
        "time": 1.8,
        "duration": 0.9,
        "velocity": 0.63,
        "hand": "right"
      },
      {
        "midi": 69,
        "time": 2.7,
        "duration": 0.3,
        "velocity": 0.63,
        "hand": "right"
      },
      {
        "midi": 72,
        "time": 2.7,
        "duration": 0.3,
        "velocity": 0.63,
        "hand": "right"
      },
      {
        "midi": 58,
        "time": 3,
        "duration": 0.3,
        "velocity": 0.63,
        "hand": "left"
      },
      {
        "midi": 70,
        "time": 3,
        "duration": 0.3,
        "velocity": 0.63,
        "hand": "right"
      },
      {
        "midi": 74,
        "time": 3,
        "duration": 0.3,
        "velocity": 0.63,
        "hand": "right"
      },
      {
        "midi": 57,
        "time": 3.3,
        "duration": 0.3,
        "velocity": 0.63,
        "hand": "left"
      },
      {
        "midi": 69,
        "time": 3.3,
        "duration": 0.3,
        "velocity": 0.63,
        "hand": "right"
      },
      {
        "midi": 72,
        "time": 3.3,
        "duration": 0.3,
        "velocity": 0.63,
        "hand": "right"
      },
      {
        "midi": 55,
        "time": 3.6,
        "duration": 0.3,
        "velocity": 0.63,
        "hand": "left"
      },
      {
        "midi": 67,
        "time": 3.6,
        "duration": 0.3,
        "velocity": 0.63,
        "hand": "right"
      },
      {
        "midi": 70,
        "time": 3.6,
        "duration": 0.3,
        "velocity": 0.63,
        "hand": "right"
      },
      {
        "midi": 57,
        "time": 3.9,
        "duration": 0.3,
        "velocity": 0.63,
        "hand": "left"
      },
      {
        "midi": 69,
        "time": 3.9,
        "duration": 0.3,
        "velocity": 0.63,
        "hand": "right"
      },
      {
        "midi": 72,
        "time": 3.9,
        "duration": 0.3,
        "velocity": 0.63,
        "hand": "right"
      },
      {
        "midi": 58,
        "time": 4.2,
        "duration": 0.3,
        "velocity": 0.63,
        "hand": "left"
      },
      {
        "midi": 70,
        "time": 4.2,
        "duration": 0.3,
        "velocity": 0.63,
        "hand": "right"
      },
      {
        "midi": 74,
        "time": 4.2,
        "duration": 0.3,
        "velocity": 0.63,
        "hand": "right"
      },
      {
        "midi": 57,
        "time": 4.5,
        "duration": 0.3,
        "velocity": 0.63,
        "hand": "left"
      },
      {
        "midi": 69,
        "time": 4.5,
        "duration": 0.3,
        "velocity": 0.63,
        "hand": "right"
      },
      {
        "midi": 72,
        "time": 4.5,
        "duration": 0.3,
        "velocity": 0.63,
        "hand": "right"
      },
      {
        "midi": 55,
        "time": 4.8,
        "duration": 0.3,
        "velocity": 0.63,
        "hand": "left"
      },
      {
        "midi": 67,
        "time": 4.8,
        "duration": 0.3,
        "velocity": 0.63,
        "hand": "right"
      },
      {
        "midi": 70,
        "time": 4.8,
        "duration": 0.3,
        "velocity": 0.63,
        "hand": "right"
      },
      {
        "midi": 57,
        "time": 5.1,
        "duration": 0.3,
        "velocity": 0.63,
        "hand": "left"
      },
      {
        "midi": 69,
        "time": 5.1,
        "duration": 0.3,
        "velocity": 0.63,
        "hand": "right"
      },
      {
        "midi": 58,
        "time": 5.4,
        "duration": 0.45,
        "velocity": 0.63,
        "hand": "left"
      },
      {
        "midi": 67,
        "time": 5.4,
        "duration": 0.9,
        "velocity": 0.63,
        "hand": "right"
      },
      {
        "midi": 70,
        "time": 5.4,
        "duration": 0.9,
        "velocity": 0.63,
        "hand": "right"
      },
      {
        "midi": 62,
        "time": 6,
        "duration": 0.45,
        "velocity": 0.63,
        "hand": "right"
      },
      {
        "midi": 70,
        "time": 6.3,
        "duration": 0.3,
        "velocity": 0.63,
        "hand": "right"
      },
      {
        "midi": 74,
        "time": 6.3,
        "duration": 0.3,
        "velocity": 0.63,
        "hand": "right"
      },
      {
        "midi": 60,
        "time": 6.6,
        "duration": 0.9,
        "velocity": 0.63,
        "hand": "right"
      },
      {
        "midi": 64,
        "time": 6.6,
        "duration": 0.9,
        "velocity": 0.63,
        "hand": "right"
      },
      {
        "midi": 72,
        "time": 6.6,
        "duration": 0.9,
        "velocity": 0.63,
        "hand": "right"
      },
      {
        "midi": 67,
        "time": 7.5,
        "duration": 0.3,
        "velocity": 0.63,
        "hand": "right"
      },
      {
        "midi": 70,
        "time": 7.5,
        "duration": 0.3,
        "velocity": 0.63,
        "hand": "right"
      },
      {
        "midi": 57,
        "time": 7.8,
        "duration": 0.3,
        "velocity": 0.63,
        "hand": "left"
      },
      {
        "midi": 69,
        "time": 7.8,
        "duration": 0.3,
        "velocity": 0.63,
        "hand": "right"
      },
      {
        "midi": 72,
        "time": 7.8,
        "duration": 0.3,
        "velocity": 0.63,
        "hand": "right"
      },
      {
        "midi": 55,
        "time": 8.1,
        "duration": 0.3,
        "velocity": 0.63,
        "hand": "left"
      },
      {
        "midi": 67,
        "time": 8.1,
        "duration": 0.3,
        "velocity": 0.63,
        "hand": "right"
      },
      {
        "midi": 70,
        "time": 8.1,
        "duration": 0.3,
        "velocity": 0.63,
        "hand": "right"
      },
      {
        "midi": 53,
        "time": 8.4,
        "duration": 0.3,
        "velocity": 0.63,
        "hand": "left"
      },
      {
        "midi": 65,
        "time": 8.4,
        "duration": 0.3,
        "velocity": 0.63,
        "hand": "right"
      },
      {
        "midi": 69,
        "time": 8.4,
        "duration": 0.3,
        "velocity": 0.63,
        "hand": "right"
      },
      {
        "midi": 55,
        "time": 8.7,
        "duration": 0.3,
        "velocity": 0.63,
        "hand": "left"
      },
      {
        "midi": 67,
        "time": 8.7,
        "duration": 0.3,
        "velocity": 0.63,
        "hand": "right"
      },
      {
        "midi": 57,
        "time": 9,
        "duration": 0.6,
        "velocity": 0.63,
        "hand": "left"
      },
      {
        "midi": 65,
        "time": 9,
        "duration": 0.6,
        "velocity": 0.63,
        "hand": "right"
      },
      {
        "midi": 69,
        "time": 9,
        "duration": 0.6,
        "velocity": 0.63,
        "hand": "right"
      },
      {
        "midi": 53,
        "time": 9.6,
        "duration": 0.3,
        "velocity": 0.63,
        "hand": "left"
      },
      {
        "midi": 62,
        "time": 9.6,
        "duration": 0.3,
        "velocity": 0.63,
        "hand": "right"
      },
      {
        "midi": 65,
        "time": 9.6,
        "duration": 0.3,
        "velocity": 0.63,
        "hand": "right"
      },
      {
        "midi": 55,
        "time": 9.9,
        "duration": 0.3,
        "velocity": 0.63,
        "hand": "left"
      },
      {
        "midi": 64,
        "time": 9.9,
        "duration": 0.3,
        "velocity": 0.63,
        "hand": "right"
      },
      {
        "midi": 67,
        "time": 9.9,
        "duration": 0.3,
        "velocity": 0.63,
        "hand": "right"
      },
      {
        "midi": 57,
        "time": 10.2,
        "duration": 0.45,
        "velocity": 0.63,
        "hand": "left"
      },
      {
        "midi": 65,
        "time": 10.2,
        "duration": 0.9,
        "velocity": 0.63,
        "hand": "right"
      },
      {
        "midi": 69,
        "time": 10.2,
        "duration": 0.9,
        "velocity": 0.63,
        "hand": "right"
      },
      {
        "midi": 53,
        "time": 10.8,
        "duration": 0.45,
        "velocity": 0.63,
        "hand": "left"
      },
      {
        "midi": 62,
        "time": 11.1,
        "duration": 0.3,
        "velocity": 0.63,
        "hand": "right"
      },
      {
        "midi": 65,
        "time": 11.1,
        "duration": 0.3,
        "velocity": 0.63,
        "hand": "right"
      },
      {
        "midi": 58,
        "time": 11.4,
        "duration": 0.9,
        "velocity": 0.63,
        "hand": "left"
      },
      {
        "midi": 62,
        "time": 11.4,
        "duration": 0.9,
        "velocity": 0.63,
        "hand": "right"
      },
      {
        "midi": 70,
        "time": 11.4,
        "duration": 0.9,
        "velocity": 0.63,
        "hand": "right"
      },
      {
        "midi": 65,
        "time": 12.3,
        "duration": 0.3,
        "velocity": 0.63,
        "hand": "right"
      },
      {
        "midi": 69,
        "time": 12.3,
        "duration": 0.3,
        "velocity": 0.63,
        "hand": "right"
      },
      {
        "midi": 55,
        "time": 12.6,
        "duration": 0.3,
        "velocity": 0.63,
        "hand": "left"
      },
      {
        "midi": 64,
        "time": 12.6,
        "duration": 0.3,
        "velocity": 0.63,
        "hand": "right"
      },
      {
        "midi": 67,
        "time": 12.6,
        "duration": 0.3,
        "velocity": 0.63,
        "hand": "right"
      },
      {
        "midi": 53,
        "time": 12.9,
        "duration": 0.3,
        "velocity": 0.63,
        "hand": "left"
      },
      {
        "midi": 62,
        "time": 12.9,
        "duration": 0.3,
        "velocity": 0.63,
        "hand": "right"
      },
      {
        "midi": 65,
        "time": 12.9,
        "duration": 0.3,
        "velocity": 0.63,
        "hand": "right"
      },
      {
        "midi": 52,
        "time": 13.2,
        "duration": 0.3,
        "velocity": 0.63,
        "hand": "left"
      },
      {
        "midi": 60,
        "time": 13.2,
        "duration": 0.3,
        "velocity": 0.63,
        "hand": "right"
      },
      {
        "midi": 64,
        "time": 13.2,
        "duration": 0.3,
        "velocity": 0.63,
        "hand": "right"
      },
      {
        "midi": 53,
        "time": 13.5,
        "duration": 0.3,
        "velocity": 0.63,
        "hand": "left"
      },
      {
        "midi": 62,
        "time": 13.5,
        "duration": 0.3,
        "velocity": 0.63,
        "hand": "right"
      },
      {
        "midi": 65,
        "time": 13.5,
        "duration": 0.3,
        "velocity": 0.63,
        "hand": "right"
      },
      {
        "midi": 55,
        "time": 13.8,
        "duration": 0.6,
        "velocity": 0.63,
        "hand": "left"
      },
      {
        "midi": 64,
        "time": 13.8,
        "duration": 0.6,
        "velocity": 0.63,
        "hand": "right"
      },
      {
        "midi": 67,
        "time": 13.8,
        "duration": 0.6,
        "velocity": 0.63,
        "hand": "right"
      },
      {
        "midi": 64,
        "time": 14.4,
        "duration": 0.3,
        "velocity": 0.63,
        "hand": "right"
      },
      {
        "midi": 67,
        "time": 14.4,
        "duration": 0.3,
        "velocity": 0.63,
        "hand": "right"
      },
      {
        "midi": 76,
        "time": 14.4,
        "duration": 0.3,
        "velocity": 0.63,
        "hand": "right"
      },
      {
        "midi": 62,
        "time": 14.7,
        "duration": 0.3,
        "velocity": 0.63,
        "hand": "right"
      },
      {
        "midi": 65,
        "time": 14.7,
        "duration": 0.3,
        "velocity": 0.63,
        "hand": "right"
      },
      {
        "midi": 74,
        "time": 14.7,
        "duration": 0.3,
        "velocity": 0.63,
        "hand": "right"
      },
      {
        "midi": 60,
        "time": 15,
        "duration": 0.45,
        "velocity": 0.63,
        "hand": "right"
      },
      {
        "midi": 64,
        "time": 15,
        "duration": 0.9,
        "velocity": 0.63,
        "hand": "right"
      },
      {
        "midi": 72,
        "time": 15,
        "duration": 0.9,
        "velocity": 0.63,
        "hand": "right"
      },
      {
        "midi": 58,
        "time": 15.6,
        "duration": 0.45,
        "velocity": 0.63,
        "hand": "left"
      },
      {
        "midi": 70,
        "time": 15.9,
        "duration": 0.3,
        "velocity": 0.63,
        "hand": "right"
      },
      {
        "midi": 74,
        "time": 15.9,
        "duration": 0.3,
        "velocity": 0.63,
        "hand": "right"
      },
      {
        "midi": 57,
        "time": 16.2,
        "duration": 0.9,
        "velocity": 0.63,
        "hand": "left"
      },
      {
        "midi": 69,
        "time": 16.2,
        "duration": 0.9,
        "velocity": 0.63,
        "hand": "right"
      },
      {
        "midi": 72,
        "time": 16.2,
        "duration": 0.9,
        "velocity": 0.63,
        "hand": "right"
      },
      {
        "midi": 67,
        "time": 17.1,
        "duration": 0.3,
        "velocity": 0.63,
        "hand": "right"
      },
      {
        "midi": 70,
        "time": 17.1,
        "duration": 0.3,
        "velocity": 0.63,
        "hand": "right"
      },
      {
        "midi": 53,
        "time": 17.4,
        "duration": 0.9,
        "velocity": 0.63,
        "hand": "left"
      },
      {
        "midi": 65,
        "time": 17.4,
        "duration": 0.6,
        "velocity": 0.63,
        "hand": "right"
      },
      {
        "midi": 69,
        "time": 17.4,
        "duration": 0.6,
        "velocity": 0.63,
        "hand": "right"
      },
      {
        "midi": 65,
        "time": 18,
        "duration": 0.6,
        "velocity": 0.63,
        "hand": "right"
      },
      {
        "midi": 69,
        "time": 18,
        "duration": 0.6,
        "velocity": 0.63,
        "hand": "right"
      },
      {
        "midi": 53,
        "time": 18.6,
        "duration": 0.45,
        "velocity": 0.63,
        "hand": "left"
      },
      {
        "midi": 52,
        "time": 19.2,
        "duration": 0.3,
        "velocity": 0.63,
        "hand": "left"
      },
      {
        "midi": 60,
        "time": 19.2,
        "duration": 0.3,
        "velocity": 0.63,
        "hand": "right"
      },
      {
        "midi": 64,
        "time": 19.2,
        "duration": 0.3,
        "velocity": 0.63,
        "hand": "right"
      },
      {
        "midi": 53,
        "time": 19.5,
        "duration": 0.3,
        "velocity": 0.63,
        "hand": "left"
      },
      {
        "midi": 62,
        "time": 19.5,
        "duration": 0.3,
        "velocity": 0.63,
        "hand": "right"
      },
      {
        "midi": 65,
        "time": 19.5,
        "duration": 0.3,
        "velocity": 0.63,
        "hand": "right"
      },
      {
        "midi": 55,
        "time": 19.8,
        "duration": 0.45,
        "velocity": 0.63,
        "hand": "left"
      },
      {
        "midi": 64,
        "time": 19.8,
        "duration": 0.9,
        "velocity": 0.63,
        "hand": "right"
      },
      {
        "midi": 67,
        "time": 19.8,
        "duration": 0.9,
        "velocity": 0.63,
        "hand": "right"
      },
      {
        "midi": 52,
        "time": 20.4,
        "duration": 0.45,
        "velocity": 0.63,
        "hand": "left"
      },
      {
        "midi": 60,
        "time": 20.7,
        "duration": 0.3,
        "velocity": 0.63,
        "hand": "right"
      },
      {
        "midi": 64,
        "time": 20.7,
        "duration": 0.3,
        "velocity": 0.63,
        "hand": "right"
      },
      {
        "midi": 57,
        "time": 21,
        "duration": 0.9,
        "velocity": 0.63,
        "hand": "left"
      },
      {
        "midi": 61,
        "time": 21,
        "duration": 0.9,
        "velocity": 0.63,
        "hand": "right"
      },
      {
        "midi": 69,
        "time": 21,
        "duration": 0.9,
        "velocity": 0.63,
        "hand": "right"
      },
      {
        "midi": 64,
        "time": 21.9,
        "duration": 0.3,
        "velocity": 0.63,
        "hand": "right"
      },
      {
        "midi": 67,
        "time": 21.9,
        "duration": 0.3,
        "velocity": 0.63,
        "hand": "right"
      },
      {
        "midi": 53,
        "time": 22.2,
        "duration": 0.3,
        "velocity": 0.63,
        "hand": "left"
      },
      {
        "midi": 65,
        "time": 22.2,
        "duration": 0.3,
        "velocity": 0.63,
        "hand": "right"
      },
      {
        "midi": 69,
        "time": 22.2,
        "duration": 0.3,
        "velocity": 0.63,
        "hand": "right"
      },
      {
        "midi": 52,
        "time": 22.5,
        "duration": 0.3,
        "velocity": 0.63,
        "hand": "left"
      },
      {
        "midi": 64,
        "time": 22.5,
        "duration": 0.3,
        "velocity": 0.63,
        "hand": "right"
      },
      {
        "midi": 67,
        "time": 22.5,
        "duration": 0.3,
        "velocity": 0.63,
        "hand": "right"
      },
      {
        "midi": 50,
        "time": 22.8,
        "duration": 0.3,
        "velocity": 0.63,
        "hand": "left"
      },
      {
        "midi": 62,
        "time": 22.8,
        "duration": 0.3,
        "velocity": 0.63,
        "hand": "right"
      },
      {
        "midi": 65,
        "time": 22.8,
        "duration": 0.3,
        "velocity": 0.63,
        "hand": "right"
      },
      {
        "midi": 52,
        "time": 23.1,
        "duration": 0.3,
        "velocity": 0.63,
        "hand": "left"
      },
      {
        "midi": 64,
        "time": 23.1,
        "duration": 0.3,
        "velocity": 0.63,
        "hand": "right"
      },
      {
        "midi": 67,
        "time": 23.1,
        "duration": 0.3,
        "velocity": 0.63,
        "hand": "right"
      },
      {
        "midi": 53,
        "time": 23.4,
        "duration": 0.3,
        "velocity": 0.63,
        "hand": "left"
      },
      {
        "midi": 65,
        "time": 23.4,
        "duration": 0.3,
        "velocity": 0.63,
        "hand": "right"
      },
      {
        "midi": 69,
        "time": 23.4,
        "duration": 0.3,
        "velocity": 0.63,
        "hand": "right"
      },
      {
        "midi": 52,
        "time": 23.7,
        "duration": 0.3,
        "velocity": 0.63,
        "hand": "left"
      },
      {
        "midi": 64,
        "time": 23.7,
        "duration": 0.3,
        "velocity": 0.63,
        "hand": "right"
      },
      {
        "midi": 67,
        "time": 23.7,
        "duration": 0.3,
        "velocity": 0.63,
        "hand": "right"
      },
      {
        "midi": 50,
        "time": 24,
        "duration": 0.3,
        "velocity": 0.63,
        "hand": "left"
      },
      {
        "midi": 62,
        "time": 24,
        "duration": 0.3,
        "velocity": 0.63,
        "hand": "right"
      },
      {
        "midi": 65,
        "time": 24,
        "duration": 0.3,
        "velocity": 0.63,
        "hand": "right"
      },
      {
        "midi": 52,
        "time": 24.3,
        "duration": 0.3,
        "velocity": 0.63,
        "hand": "left"
      },
      {
        "midi": 64,
        "time": 24.3,
        "duration": 0.3,
        "velocity": 0.63,
        "hand": "right"
      },
      {
        "midi": 53,
        "time": 24.6,
        "duration": 0.45,
        "velocity": 0.63,
        "hand": "left"
      },
      {
        "midi": 62,
        "time": 24.6,
        "duration": 0.9,
        "velocity": 0.63,
        "hand": "right"
      },
      {
        "midi": 65,
        "time": 24.6,
        "duration": 0.9,
        "velocity": 0.63,
        "hand": "right"
      },
      {
        "midi": 57,
        "time": 25.2,
        "duration": 0.45,
        "velocity": 0.63,
        "hand": "left"
      },
      {
        "midi": 65,
        "time": 25.5,
        "duration": 0.3,
        "velocity": 0.63,
        "hand": "right"
      },
      {
        "midi": 69,
        "time": 25.5,
        "duration": 0.3,
        "velocity": 0.63,
        "hand": "right"
      },
      {
        "midi": 55,
        "time": 25.8,
        "duration": 0.9,
        "velocity": 0.63,
        "hand": "left"
      },
      {
        "midi": 59,
        "time": 25.8,
        "duration": 0.9,
        "velocity": 0.63,
        "hand": "left"
      },
      {
        "midi": 67,
        "time": 25.8,
        "duration": 0.9,
        "velocity": 0.63,
        "hand": "right"
      },
      {
        "midi": 62,
        "time": 26.7,
        "duration": 0.3,
        "velocity": 0.63,
        "hand": "right"
      },
      {
        "midi": 65,
        "time": 26.7,
        "duration": 0.3,
        "velocity": 0.63,
        "hand": "right"
      },
      {
        "midi": 52,
        "time": 27,
        "duration": 0.3,
        "velocity": 0.63,
        "hand": "left"
      },
      {
        "midi": 64,
        "time": 27,
        "duration": 0.3,
        "velocity": 0.63,
        "hand": "right"
      },
      {
        "midi": 67,
        "time": 27,
        "duration": 0.3,
        "velocity": 0.63,
        "hand": "right"
      },
      {
        "midi": 50,
        "time": 27.3,
        "duration": 0.3,
        "velocity": 0.63,
        "hand": "left"
      },
      {
        "midi": 62,
        "time": 27.3,
        "duration": 0.3,
        "velocity": 0.63,
        "hand": "right"
      },
      {
        "midi": 65,
        "time": 27.3,
        "duration": 0.3,
        "velocity": 0.63,
        "hand": "right"
      },
      {
        "midi": 48,
        "time": 27.6,
        "duration": 0.3,
        "velocity": 0.63,
        "hand": "left"
      },
      {
        "midi": 60,
        "time": 27.6,
        "duration": 0.3,
        "velocity": 0.63,
        "hand": "right"
      },
      {
        "midi": 64,
        "time": 27.6,
        "duration": 0.3,
        "velocity": 0.63,
        "hand": "right"
      },
      {
        "midi": 50,
        "time": 27.9,
        "duration": 0.3,
        "velocity": 0.63,
        "hand": "left"
      },
      {
        "midi": 62,
        "time": 27.9,
        "duration": 0.3,
        "velocity": 0.63,
        "hand": "right"
      },
      {
        "midi": 52,
        "time": 28.2,
        "duration": 0.6,
        "velocity": 0.63,
        "hand": "left"
      },
      {
        "midi": 60,
        "time": 28.2,
        "duration": 0.6,
        "velocity": 0.63,
        "hand": "right"
      },
      {
        "midi": 64,
        "time": 28.2,
        "duration": 0.6,
        "velocity": 0.63,
        "hand": "right"
      },
      {
        "midi": 48,
        "time": 28.8,
        "duration": 0.3,
        "velocity": 0.63,
        "hand": "left"
      },
      {
        "midi": 57,
        "time": 28.8,
        "duration": 0.3,
        "velocity": 0.63,
        "hand": "left"
      },
      {
        "midi": 60,
        "time": 28.8,
        "duration": 0.3,
        "velocity": 0.63,
        "hand": "right"
      },
      {
        "midi": 50,
        "time": 29.1,
        "duration": 0.3,
        "velocity": 0.63,
        "hand": "left"
      },
      {
        "midi": 59,
        "time": 29.1,
        "duration": 0.3,
        "velocity": 0.63,
        "hand": "left"
      },
      {
        "midi": 62,
        "time": 29.1,
        "duration": 0.3,
        "velocity": 0.63,
        "hand": "right"
      },
      {
        "midi": 52,
        "time": 29.4,
        "duration": 0.45,
        "velocity": 0.63,
        "hand": "left"
      },
      {
        "midi": 60,
        "time": 29.4,
        "duration": 0.9,
        "velocity": 0.63,
        "hand": "right"
      },
      {
        "midi": 64,
        "time": 29.4,
        "duration": 0.9,
        "velocity": 0.63,
        "hand": "right"
      },
      {
        "midi": 48,
        "time": 30,
        "duration": 0.45,
        "velocity": 0.63,
        "hand": "left"
      },
      {
        "midi": 57,
        "time": 30.3,
        "duration": 0.3,
        "velocity": 0.63,
        "hand": "left"
      },
      {
        "midi": 60,
        "time": 30.3,
        "duration": 0.3,
        "velocity": 0.63,
        "hand": "right"
      },
      {
        "midi": 53,
        "time": 30.6,
        "duration": 0.9,
        "velocity": 0.63,
        "hand": "left"
      },
      {
        "midi": 57,
        "time": 30.6,
        "duration": 0.9,
        "velocity": 0.63,
        "hand": "left"
      },
      {
        "midi": 65,
        "time": 30.6,
        "duration": 0.9,
        "velocity": 0.63,
        "hand": "right"
      },
      {
        "midi": 60,
        "time": 31.5,
        "duration": 0.3,
        "velocity": 0.63,
        "hand": "right"
      },
      {
        "midi": 64,
        "time": 31.5,
        "duration": 0.3,
        "velocity": 0.63,
        "hand": "right"
      },
      {
        "midi": 50,
        "time": 31.8,
        "duration": 0.3,
        "velocity": 0.63,
        "hand": "left"
      },
      {
        "midi": 59,
        "time": 31.8,
        "duration": 0.3,
        "velocity": 0.63,
        "hand": "left"
      },
      {
        "midi": 62,
        "time": 31.8,
        "duration": 0.3,
        "velocity": 0.63,
        "hand": "right"
      },
      {
        "midi": 48,
        "time": 32.1,
        "duration": 0.3,
        "velocity": 0.63,
        "hand": "left"
      },
      {
        "midi": 57,
        "time": 32.1,
        "duration": 0.3,
        "velocity": 0.63,
        "hand": "left"
      },
      {
        "midi": 60,
        "time": 32.1,
        "duration": 0.3,
        "velocity": 0.63,
        "hand": "right"
      },
      {
        "midi": 47,
        "time": 32.4,
        "duration": 0.3,
        "velocity": 0.63,
        "hand": "left"
      },
      {
        "midi": 55,
        "time": 32.4,
        "duration": 0.3,
        "velocity": 0.63,
        "hand": "left"
      },
      {
        "midi": 59,
        "time": 32.4,
        "duration": 0.3,
        "velocity": 0.63,
        "hand": "left"
      },
      {
        "midi": 48,
        "time": 32.7,
        "duration": 0.3,
        "velocity": 0.63,
        "hand": "left"
      },
      {
        "midi": 57,
        "time": 32.7,
        "duration": 0.3,
        "velocity": 0.63,
        "hand": "left"
      },
      {
        "midi": 60,
        "time": 32.7,
        "duration": 0.3,
        "velocity": 0.63,
        "hand": "right"
      },
      {
        "midi": 50,
        "time": 33,
        "duration": 0.6,
        "velocity": 0.63,
        "hand": "left"
      },
      {
        "midi": 59,
        "time": 33,
        "duration": 0.6,
        "velocity": 0.63,
        "hand": "left"
      },
      {
        "midi": 62,
        "time": 33,
        "duration": 0.6,
        "velocity": 0.63,
        "hand": "right"
      },
      {
        "midi": 59,
        "time": 33.6,
        "duration": 0.3,
        "velocity": 0.63,
        "hand": "left"
      },
      {
        "midi": 62,
        "time": 33.6,
        "duration": 0.3,
        "velocity": 0.63,
        "hand": "right"
      },
      {
        "midi": 71,
        "time": 33.6,
        "duration": 0.3,
        "velocity": 0.63,
        "hand": "right"
      },
      {
        "midi": 57,
        "time": 33.9,
        "duration": 0.3,
        "velocity": 0.63,
        "hand": "left"
      },
      {
        "midi": 60,
        "time": 33.9,
        "duration": 0.3,
        "velocity": 0.63,
        "hand": "right"
      },
      {
        "midi": 69,
        "time": 33.9,
        "duration": 0.3,
        "velocity": 0.63,
        "hand": "right"
      },
      {
        "midi": 55,
        "time": 34.2,
        "duration": 0.45,
        "velocity": 0.63,
        "hand": "left"
      },
      {
        "midi": 59,
        "time": 34.2,
        "duration": 0.9,
        "velocity": 0.63,
        "hand": "left"
      },
      {
        "midi": 67,
        "time": 34.2,
        "duration": 0.9,
        "velocity": 0.63,
        "hand": "right"
      },
      {
        "midi": 53,
        "time": 34.8,
        "duration": 0.45,
        "velocity": 0.63,
        "hand": "left"
      },
      {
        "midi": 65,
        "time": 35.1,
        "duration": 0.3,
        "velocity": 0.63,
        "hand": "right"
      },
      {
        "midi": 69,
        "time": 35.1,
        "duration": 0.3,
        "velocity": 0.63,
        "hand": "right"
      },
      {
        "midi": 52,
        "time": 35.4,
        "duration": 0.9,
        "velocity": 0.63,
        "hand": "left"
      },
      {
        "midi": 64,
        "time": 35.4,
        "duration": 0.9,
        "velocity": 0.63,
        "hand": "right"
      },
      {
        "midi": 67,
        "time": 35.4,
        "duration": 0.9,
        "velocity": 0.63,
        "hand": "right"
      },
      {
        "midi": 62,
        "time": 36.3,
        "duration": 0.3,
        "velocity": 0.63,
        "hand": "right"
      },
      {
        "midi": 65,
        "time": 36.3,
        "duration": 0.3,
        "velocity": 0.63,
        "hand": "right"
      },
      {
        "midi": 48,
        "time": 36.6,
        "duration": 0.9,
        "velocity": 0.63,
        "hand": "left"
      },
      {
        "midi": 60,
        "time": 36.6,
        "duration": 0.6,
        "velocity": 0.63,
        "hand": "right"
      },
      {
        "midi": 64,
        "time": 36.6,
        "duration": 0.6,
        "velocity": 0.63,
        "hand": "right"
      },
      {
        "midi": 60,
        "time": 37.2,
        "duration": 0.6,
        "velocity": 0.63,
        "hand": "right"
      },
      {
        "midi": 64,
        "time": 37.2,
        "duration": 0.6,
        "velocity": 0.63,
        "hand": "right"
      },
      {
        "midi": 48,
        "time": 37.8,
        "duration": 0.6,
        "velocity": 0.63,
        "hand": "left"
      },
      {
        "midi": 57,
        "time": 38.4,
        "duration": 0.3,
        "velocity": 0.63,
        "hand": "left"
      },
      {
        "midi": 65,
        "time": 38.4,
        "duration": 0.3,
        "velocity": 0.63,
        "hand": "right"
      },
      {
        "midi": 69,
        "time": 38.4,
        "duration": 0.3,
        "velocity": 0.63,
        "hand": "right"
      },
      {
        "midi": 58,
        "time": 38.7,
        "duration": 0.3,
        "velocity": 0.63,
        "hand": "left"
      },
      {
        "midi": 67,
        "time": 38.7,
        "duration": 0.3,
        "velocity": 0.63,
        "hand": "right"
      },
      {
        "midi": 70,
        "time": 38.7,
        "duration": 0.3,
        "velocity": 0.63,
        "hand": "right"
      },
      {
        "midi": 60,
        "time": 39,
        "duration": 0.45,
        "velocity": 0.63,
        "hand": "right"
      },
      {
        "midi": 69,
        "time": 39,
        "duration": 0.9,
        "velocity": 0.63,
        "hand": "right"
      },
      {
        "midi": 72,
        "time": 39,
        "duration": 0.9,
        "velocity": 0.63,
        "hand": "right"
      },
      {
        "midi": 57,
        "time": 39.6,
        "duration": 0.45,
        "velocity": 0.63,
        "hand": "left"
      },
      {
        "midi": 65,
        "time": 39.9,
        "duration": 0.3,
        "velocity": 0.63,
        "hand": "right"
      },
      {
        "midi": 69,
        "time": 39.9,
        "duration": 0.3,
        "velocity": 0.63,
        "hand": "right"
      },
      {
        "midi": 62,
        "time": 40.2,
        "duration": 0.9,
        "velocity": 0.63,
        "hand": "right"
      },
      {
        "midi": 66,
        "time": 40.2,
        "duration": 0.9,
        "velocity": 0.63,
        "hand": "right"
      },
      {
        "midi": 74,
        "time": 40.2,
        "duration": 0.9,
        "velocity": 0.63,
        "hand": "right"
      },
      {
        "midi": 69,
        "time": 41.1,
        "duration": 0.3,
        "velocity": 0.63,
        "hand": "right"
      },
      {
        "midi": 72,
        "time": 41.1,
        "duration": 0.3,
        "velocity": 0.63,
        "hand": "right"
      },
      {
        "midi": 58,
        "time": 41.4,
        "duration": 0.3,
        "velocity": 0.63,
        "hand": "left"
      },
      {
        "midi": 70,
        "time": 41.4,
        "duration": 0.3,
        "velocity": 0.63,
        "hand": "right"
      },
      {
        "midi": 74,
        "time": 41.4,
        "duration": 0.3,
        "velocity": 0.63,
        "hand": "right"
      },
      {
        "midi": 57,
        "time": 41.7,
        "duration": 0.3,
        "velocity": 0.63,
        "hand": "left"
      },
      {
        "midi": 69,
        "time": 41.7,
        "duration": 0.3,
        "velocity": 0.63,
        "hand": "right"
      },
      {
        "midi": 72,
        "time": 41.7,
        "duration": 0.3,
        "velocity": 0.63,
        "hand": "right"
      },
      {
        "midi": 55,
        "time": 42,
        "duration": 0.3,
        "velocity": 0.63,
        "hand": "left"
      },
      {
        "midi": 67,
        "time": 42,
        "duration": 0.3,
        "velocity": 0.63,
        "hand": "right"
      },
      {
        "midi": 70,
        "time": 42,
        "duration": 0.3,
        "velocity": 0.63,
        "hand": "right"
      },
      {
        "midi": 57,
        "time": 42.3,
        "duration": 0.3,
        "velocity": 0.63,
        "hand": "left"
      },
      {
        "midi": 69,
        "time": 42.3,
        "duration": 0.3,
        "velocity": 0.63,
        "hand": "right"
      },
      {
        "midi": 72,
        "time": 42.3,
        "duration": 0.3,
        "velocity": 0.63,
        "hand": "right"
      },
      {
        "midi": 58,
        "time": 42.6,
        "duration": 0.3,
        "velocity": 0.63,
        "hand": "left"
      },
      {
        "midi": 70,
        "time": 42.6,
        "duration": 0.3,
        "velocity": 0.63,
        "hand": "right"
      },
      {
        "midi": 74,
        "time": 42.6,
        "duration": 0.3,
        "velocity": 0.63,
        "hand": "right"
      },
      {
        "midi": 57,
        "time": 42.9,
        "duration": 0.3,
        "velocity": 0.63,
        "hand": "left"
      },
      {
        "midi": 69,
        "time": 42.9,
        "duration": 0.3,
        "velocity": 0.63,
        "hand": "right"
      },
      {
        "midi": 72,
        "time": 42.9,
        "duration": 0.3,
        "velocity": 0.63,
        "hand": "right"
      },
      {
        "midi": 55,
        "time": 43.2,
        "duration": 0.3,
        "velocity": 0.63,
        "hand": "left"
      },
      {
        "midi": 67,
        "time": 43.2,
        "duration": 0.3,
        "velocity": 0.63,
        "hand": "right"
      },
      {
        "midi": 70,
        "time": 43.2,
        "duration": 0.3,
        "velocity": 0.63,
        "hand": "right"
      },
      {
        "midi": 57,
        "time": 43.5,
        "duration": 0.3,
        "velocity": 0.63,
        "hand": "left"
      },
      {
        "midi": 69,
        "time": 43.5,
        "duration": 0.3,
        "velocity": 0.63,
        "hand": "right"
      },
      {
        "midi": 58,
        "time": 43.8,
        "duration": 0.45,
        "velocity": 0.63,
        "hand": "left"
      },
      {
        "midi": 67,
        "time": 43.8,
        "duration": 0.9,
        "velocity": 0.63,
        "hand": "right"
      },
      {
        "midi": 70,
        "time": 43.8,
        "duration": 0.9,
        "velocity": 0.63,
        "hand": "right"
      },
      {
        "midi": 62,
        "time": 44.4,
        "duration": 0.45,
        "velocity": 0.63,
        "hand": "right"
      },
      {
        "midi": 70,
        "time": 44.7,
        "duration": 0.3,
        "velocity": 0.63,
        "hand": "right"
      },
      {
        "midi": 74,
        "time": 44.7,
        "duration": 0.3,
        "velocity": 0.63,
        "hand": "right"
      },
      {
        "midi": 60,
        "time": 45,
        "duration": 0.9,
        "velocity": 0.63,
        "hand": "right"
      },
      {
        "midi": 64,
        "time": 45,
        "duration": 0.9,
        "velocity": 0.63,
        "hand": "right"
      },
      {
        "midi": 72,
        "time": 45,
        "duration": 0.9,
        "velocity": 0.63,
        "hand": "right"
      },
      {
        "midi": 67,
        "time": 45.9,
        "duration": 0.3,
        "velocity": 0.63,
        "hand": "right"
      },
      {
        "midi": 70,
        "time": 45.9,
        "duration": 0.3,
        "velocity": 0.63,
        "hand": "right"
      },
      {
        "midi": 57,
        "time": 46.2,
        "duration": 0.3,
        "velocity": 0.63,
        "hand": "left"
      },
      {
        "midi": 69,
        "time": 46.2,
        "duration": 0.3,
        "velocity": 0.63,
        "hand": "right"
      },
      {
        "midi": 72,
        "time": 46.2,
        "duration": 0.3,
        "velocity": 0.63,
        "hand": "right"
      },
      {
        "midi": 55,
        "time": 46.5,
        "duration": 0.3,
        "velocity": 0.63,
        "hand": "left"
      },
      {
        "midi": 67,
        "time": 46.5,
        "duration": 0.3,
        "velocity": 0.63,
        "hand": "right"
      },
      {
        "midi": 70,
        "time": 46.5,
        "duration": 0.3,
        "velocity": 0.63,
        "hand": "right"
      },
      {
        "midi": 53,
        "time": 46.8,
        "duration": 0.3,
        "velocity": 0.63,
        "hand": "left"
      },
      {
        "midi": 65,
        "time": 46.8,
        "duration": 0.3,
        "velocity": 0.63,
        "hand": "right"
      },
      {
        "midi": 69,
        "time": 46.8,
        "duration": 0.3,
        "velocity": 0.63,
        "hand": "right"
      },
      {
        "midi": 55,
        "time": 47.1,
        "duration": 0.3,
        "velocity": 0.63,
        "hand": "left"
      },
      {
        "midi": 67,
        "time": 47.1,
        "duration": 0.3,
        "velocity": 0.63,
        "hand": "right"
      },
      {
        "midi": 57,
        "time": 47.4,
        "duration": 0.6,
        "velocity": 0.63,
        "hand": "left"
      },
      {
        "midi": 65,
        "time": 47.4,
        "duration": 0.6,
        "velocity": 0.63,
        "hand": "right"
      },
      {
        "midi": 69,
        "time": 47.4,
        "duration": 0.6,
        "velocity": 0.63,
        "hand": "right"
      },
      {
        "midi": 53,
        "time": 48,
        "duration": 0.3,
        "velocity": 0.63,
        "hand": "left"
      },
      {
        "midi": 62,
        "time": 48,
        "duration": 0.3,
        "velocity": 0.63,
        "hand": "right"
      },
      {
        "midi": 65,
        "time": 48,
        "duration": 0.3,
        "velocity": 0.63,
        "hand": "right"
      },
      {
        "midi": 55,
        "time": 48.3,
        "duration": 0.3,
        "velocity": 0.63,
        "hand": "left"
      },
      {
        "midi": 64,
        "time": 48.3,
        "duration": 0.3,
        "velocity": 0.63,
        "hand": "right"
      },
      {
        "midi": 67,
        "time": 48.3,
        "duration": 0.3,
        "velocity": 0.63,
        "hand": "right"
      },
      {
        "midi": 57,
        "time": 48.6,
        "duration": 0.45,
        "velocity": 0.63,
        "hand": "left"
      },
      {
        "midi": 65,
        "time": 48.6,
        "duration": 0.9,
        "velocity": 0.63,
        "hand": "right"
      },
      {
        "midi": 69,
        "time": 48.6,
        "duration": 0.9,
        "velocity": 0.63,
        "hand": "right"
      },
      {
        "midi": 53,
        "time": 49.2,
        "duration": 0.45,
        "velocity": 0.63,
        "hand": "left"
      },
      {
        "midi": 62,
        "time": 49.5,
        "duration": 0.3,
        "velocity": 0.63,
        "hand": "right"
      },
      {
        "midi": 65,
        "time": 49.5,
        "duration": 0.3,
        "velocity": 0.63,
        "hand": "right"
      },
      {
        "midi": 58,
        "time": 49.8,
        "duration": 0.9,
        "velocity": 0.63,
        "hand": "left"
      },
      {
        "midi": 62,
        "time": 49.8,
        "duration": 0.9,
        "velocity": 0.63,
        "hand": "right"
      },
      {
        "midi": 70,
        "time": 49.8,
        "duration": 0.9,
        "velocity": 0.63,
        "hand": "right"
      },
      {
        "midi": 65,
        "time": 50.7,
        "duration": 0.3,
        "velocity": 0.63,
        "hand": "right"
      },
      {
        "midi": 69,
        "time": 50.7,
        "duration": 0.3,
        "velocity": 0.63,
        "hand": "right"
      },
      {
        "midi": 55,
        "time": 51,
        "duration": 0.3,
        "velocity": 0.63,
        "hand": "left"
      },
      {
        "midi": 64,
        "time": 51,
        "duration": 0.3,
        "velocity": 0.63,
        "hand": "right"
      },
      {
        "midi": 67,
        "time": 51,
        "duration": 0.3,
        "velocity": 0.63,
        "hand": "right"
      },
      {
        "midi": 53,
        "time": 51.3,
        "duration": 0.3,
        "velocity": 0.63,
        "hand": "left"
      },
      {
        "midi": 62,
        "time": 51.3,
        "duration": 0.3,
        "velocity": 0.63,
        "hand": "right"
      },
      {
        "midi": 65,
        "time": 51.3,
        "duration": 0.3,
        "velocity": 0.63,
        "hand": "right"
      },
      {
        "midi": 52,
        "time": 51.6,
        "duration": 0.3,
        "velocity": 0.63,
        "hand": "left"
      },
      {
        "midi": 60,
        "time": 51.6,
        "duration": 0.3,
        "velocity": 0.63,
        "hand": "right"
      },
      {
        "midi": 64,
        "time": 51.6,
        "duration": 0.3,
        "velocity": 0.63,
        "hand": "right"
      },
      {
        "midi": 53,
        "time": 51.9,
        "duration": 0.3,
        "velocity": 0.63,
        "hand": "left"
      },
      {
        "midi": 62,
        "time": 51.9,
        "duration": 0.3,
        "velocity": 0.63,
        "hand": "right"
      },
      {
        "midi": 65,
        "time": 51.9,
        "duration": 0.3,
        "velocity": 0.63,
        "hand": "right"
      },
      {
        "midi": 55,
        "time": 52.2,
        "duration": 0.6,
        "velocity": 0.63,
        "hand": "left"
      },
      {
        "midi": 64,
        "time": 52.2,
        "duration": 0.6,
        "velocity": 0.63,
        "hand": "right"
      },
      {
        "midi": 67,
        "time": 52.2,
        "duration": 0.6,
        "velocity": 0.63,
        "hand": "right"
      },
      {
        "midi": 64,
        "time": 52.8,
        "duration": 0.3,
        "velocity": 0.63,
        "hand": "right"
      },
      {
        "midi": 67,
        "time": 52.8,
        "duration": 0.3,
        "velocity": 0.63,
        "hand": "right"
      },
      {
        "midi": 76,
        "time": 52.8,
        "duration": 0.3,
        "velocity": 0.63,
        "hand": "right"
      },
      {
        "midi": 62,
        "time": 53.1,
        "duration": 0.3,
        "velocity": 0.63,
        "hand": "right"
      },
      {
        "midi": 65,
        "time": 53.1,
        "duration": 0.3,
        "velocity": 0.63,
        "hand": "right"
      },
      {
        "midi": 74,
        "time": 53.1,
        "duration": 0.3,
        "velocity": 0.63,
        "hand": "right"
      },
      {
        "midi": 60,
        "time": 53.4,
        "duration": 0.45,
        "velocity": 0.63,
        "hand": "right"
      },
      {
        "midi": 64,
        "time": 53.4,
        "duration": 0.9,
        "velocity": 0.63,
        "hand": "right"
      },
      {
        "midi": 72,
        "time": 53.4,
        "duration": 0.9,
        "velocity": 0.63,
        "hand": "right"
      },
      {
        "midi": 58,
        "time": 54,
        "duration": 0.45,
        "velocity": 0.63,
        "hand": "left"
      },
      {
        "midi": 70,
        "time": 54.3,
        "duration": 0.3,
        "velocity": 0.63,
        "hand": "right"
      },
      {
        "midi": 74,
        "time": 54.3,
        "duration": 0.3,
        "velocity": 0.63,
        "hand": "right"
      },
      {
        "midi": 57,
        "time": 54.6,
        "duration": 0.9,
        "velocity": 0.63,
        "hand": "left"
      },
      {
        "midi": 69,
        "time": 54.6,
        "duration": 0.9,
        "velocity": 0.63,
        "hand": "right"
      },
      {
        "midi": 72,
        "time": 54.6,
        "duration": 0.9,
        "velocity": 0.63,
        "hand": "right"
      },
      {
        "midi": 67,
        "time": 55.5,
        "duration": 0.3,
        "velocity": 0.63,
        "hand": "right"
      },
      {
        "midi": 70,
        "time": 55.5,
        "duration": 0.3,
        "velocity": 0.63,
        "hand": "right"
      },
      {
        "midi": 53,
        "time": 55.8,
        "duration": 1.2,
        "velocity": 0.63,
        "hand": "left"
      },
      {
        "midi": 65,
        "time": 55.8,
        "duration": 1.2,
        "velocity": 0.63,
        "hand": "right"
      },
      {
        "midi": 69,
        "time": 55.8,
        "duration": 1.2,
        "velocity": 0.63,
        "hand": "right"
      }
    ]
  },
  "notes1Hand": [
    {
      "midi": 69,
      "time": 0,
      "duration": 0.3,
      "velocity": 0.63,
      "hand": "right"
    },
    {
      "midi": 70,
      "time": 0.3,
      "duration": 0.3,
      "velocity": 0.63,
      "hand": "right"
    },
    {
      "midi": 72,
      "time": 0.6,
      "duration": 0.9,
      "velocity": 0.63,
      "hand": "right"
    },
    {
      "midi": 57,
      "time": 1.2,
      "duration": 0.45,
      "velocity": 0.63,
      "hand": "right"
    },
    {
      "midi": 69,
      "time": 1.5,
      "duration": 0.3,
      "velocity": 0.63,
      "hand": "right"
    },
    {
      "midi": 74,
      "time": 1.8,
      "duration": 0.9,
      "velocity": 0.63,
      "hand": "right"
    },
    {
      "midi": 72,
      "time": 2.7,
      "duration": 0.3,
      "velocity": 0.63,
      "hand": "right"
    },
    {
      "midi": 74,
      "time": 3,
      "duration": 0.3,
      "velocity": 0.63,
      "hand": "right"
    },
    {
      "midi": 72,
      "time": 3.3,
      "duration": 0.3,
      "velocity": 0.63,
      "hand": "right"
    },
    {
      "midi": 70,
      "time": 3.6,
      "duration": 0.3,
      "velocity": 0.63,
      "hand": "right"
    },
    {
      "midi": 72,
      "time": 3.9,
      "duration": 0.3,
      "velocity": 0.63,
      "hand": "right"
    },
    {
      "midi": 74,
      "time": 4.2,
      "duration": 0.3,
      "velocity": 0.63,
      "hand": "right"
    },
    {
      "midi": 72,
      "time": 4.5,
      "duration": 0.3,
      "velocity": 0.63,
      "hand": "right"
    },
    {
      "midi": 70,
      "time": 4.8,
      "duration": 0.3,
      "velocity": 0.63,
      "hand": "right"
    },
    {
      "midi": 69,
      "time": 5.1,
      "duration": 0.3,
      "velocity": 0.63,
      "hand": "right"
    },
    {
      "midi": 70,
      "time": 5.4,
      "duration": 0.9,
      "velocity": 0.63,
      "hand": "right"
    },
    {
      "midi": 62,
      "time": 6,
      "duration": 0.45,
      "velocity": 0.63,
      "hand": "right"
    },
    {
      "midi": 74,
      "time": 6.3,
      "duration": 0.3,
      "velocity": 0.63,
      "hand": "right"
    },
    {
      "midi": 72,
      "time": 6.6,
      "duration": 0.9,
      "velocity": 0.63,
      "hand": "right"
    },
    {
      "midi": 70,
      "time": 7.5,
      "duration": 0.3,
      "velocity": 0.63,
      "hand": "right"
    },
    {
      "midi": 72,
      "time": 7.8,
      "duration": 0.3,
      "velocity": 0.63,
      "hand": "right"
    },
    {
      "midi": 70,
      "time": 8.1,
      "duration": 0.3,
      "velocity": 0.63,
      "hand": "right"
    },
    {
      "midi": 69,
      "time": 8.4,
      "duration": 0.3,
      "velocity": 0.63,
      "hand": "right"
    },
    {
      "midi": 67,
      "time": 8.7,
      "duration": 0.3,
      "velocity": 0.63,
      "hand": "right"
    },
    {
      "midi": 69,
      "time": 9,
      "duration": 0.6,
      "velocity": 0.63,
      "hand": "right"
    },
    {
      "midi": 65,
      "time": 9.6,
      "duration": 0.3,
      "velocity": 0.63,
      "hand": "right"
    },
    {
      "midi": 67,
      "time": 9.9,
      "duration": 0.3,
      "velocity": 0.63,
      "hand": "right"
    },
    {
      "midi": 69,
      "time": 10.2,
      "duration": 0.9,
      "velocity": 0.63,
      "hand": "right"
    },
    {
      "midi": 53,
      "time": 10.8,
      "duration": 0.45,
      "velocity": 0.63,
      "hand": "right"
    },
    {
      "midi": 65,
      "time": 11.1,
      "duration": 0.3,
      "velocity": 0.63,
      "hand": "right"
    },
    {
      "midi": 70,
      "time": 11.4,
      "duration": 0.9,
      "velocity": 0.63,
      "hand": "right"
    },
    {
      "midi": 69,
      "time": 12.3,
      "duration": 0.3,
      "velocity": 0.63,
      "hand": "right"
    },
    {
      "midi": 67,
      "time": 12.6,
      "duration": 0.3,
      "velocity": 0.63,
      "hand": "right"
    },
    {
      "midi": 65,
      "time": 12.9,
      "duration": 0.3,
      "velocity": 0.63,
      "hand": "right"
    },
    {
      "midi": 64,
      "time": 13.2,
      "duration": 0.3,
      "velocity": 0.63,
      "hand": "right"
    },
    {
      "midi": 65,
      "time": 13.5,
      "duration": 0.3,
      "velocity": 0.63,
      "hand": "right"
    },
    {
      "midi": 67,
      "time": 13.8,
      "duration": 0.6,
      "velocity": 0.63,
      "hand": "right"
    },
    {
      "midi": 76,
      "time": 14.4,
      "duration": 0.3,
      "velocity": 0.63,
      "hand": "right"
    },
    {
      "midi": 74,
      "time": 14.7,
      "duration": 0.3,
      "velocity": 0.63,
      "hand": "right"
    },
    {
      "midi": 72,
      "time": 15,
      "duration": 0.9,
      "velocity": 0.63,
      "hand": "right"
    },
    {
      "midi": 58,
      "time": 15.6,
      "duration": 0.45,
      "velocity": 0.63,
      "hand": "right"
    },
    {
      "midi": 74,
      "time": 15.9,
      "duration": 0.3,
      "velocity": 0.63,
      "hand": "right"
    },
    {
      "midi": 72,
      "time": 16.2,
      "duration": 0.9,
      "velocity": 0.63,
      "hand": "right"
    },
    {
      "midi": 70,
      "time": 17.1,
      "duration": 0.3,
      "velocity": 0.63,
      "hand": "right"
    },
    {
      "midi": 69,
      "time": 17.4,
      "duration": 0.6,
      "velocity": 0.63,
      "hand": "right"
    },
    {
      "midi": 69,
      "time": 18,
      "duration": 0.6,
      "velocity": 0.63,
      "hand": "right"
    },
    {
      "midi": 53,
      "time": 18.6,
      "duration": 0.45,
      "velocity": 0.63,
      "hand": "right"
    },
    {
      "midi": 64,
      "time": 19.2,
      "duration": 0.3,
      "velocity": 0.63,
      "hand": "right"
    },
    {
      "midi": 65,
      "time": 19.5,
      "duration": 0.3,
      "velocity": 0.63,
      "hand": "right"
    },
    {
      "midi": 67,
      "time": 19.8,
      "duration": 0.9,
      "velocity": 0.63,
      "hand": "right"
    },
    {
      "midi": 52,
      "time": 20.4,
      "duration": 0.45,
      "velocity": 0.63,
      "hand": "right"
    },
    {
      "midi": 64,
      "time": 20.7,
      "duration": 0.3,
      "velocity": 0.63,
      "hand": "right"
    },
    {
      "midi": 69,
      "time": 21,
      "duration": 0.9,
      "velocity": 0.63,
      "hand": "right"
    },
    {
      "midi": 67,
      "time": 21.9,
      "duration": 0.3,
      "velocity": 0.63,
      "hand": "right"
    },
    {
      "midi": 69,
      "time": 22.2,
      "duration": 0.3,
      "velocity": 0.63,
      "hand": "right"
    },
    {
      "midi": 67,
      "time": 22.5,
      "duration": 0.3,
      "velocity": 0.63,
      "hand": "right"
    },
    {
      "midi": 65,
      "time": 22.8,
      "duration": 0.3,
      "velocity": 0.63,
      "hand": "right"
    },
    {
      "midi": 67,
      "time": 23.1,
      "duration": 0.3,
      "velocity": 0.63,
      "hand": "right"
    },
    {
      "midi": 69,
      "time": 23.4,
      "duration": 0.3,
      "velocity": 0.63,
      "hand": "right"
    },
    {
      "midi": 67,
      "time": 23.7,
      "duration": 0.3,
      "velocity": 0.63,
      "hand": "right"
    },
    {
      "midi": 65,
      "time": 24,
      "duration": 0.3,
      "velocity": 0.63,
      "hand": "right"
    },
    {
      "midi": 64,
      "time": 24.3,
      "duration": 0.3,
      "velocity": 0.63,
      "hand": "right"
    },
    {
      "midi": 65,
      "time": 24.6,
      "duration": 0.9,
      "velocity": 0.63,
      "hand": "right"
    },
    {
      "midi": 57,
      "time": 25.2,
      "duration": 0.45,
      "velocity": 0.63,
      "hand": "right"
    },
    {
      "midi": 69,
      "time": 25.5,
      "duration": 0.3,
      "velocity": 0.63,
      "hand": "right"
    },
    {
      "midi": 67,
      "time": 25.8,
      "duration": 0.9,
      "velocity": 0.63,
      "hand": "right"
    },
    {
      "midi": 65,
      "time": 26.7,
      "duration": 0.3,
      "velocity": 0.63,
      "hand": "right"
    },
    {
      "midi": 67,
      "time": 27,
      "duration": 0.3,
      "velocity": 0.63,
      "hand": "right"
    },
    {
      "midi": 65,
      "time": 27.3,
      "duration": 0.3,
      "velocity": 0.63,
      "hand": "right"
    },
    {
      "midi": 64,
      "time": 27.6,
      "duration": 0.3,
      "velocity": 0.63,
      "hand": "right"
    },
    {
      "midi": 62,
      "time": 27.9,
      "duration": 0.3,
      "velocity": 0.63,
      "hand": "right"
    },
    {
      "midi": 64,
      "time": 28.2,
      "duration": 0.6,
      "velocity": 0.63,
      "hand": "right"
    },
    {
      "midi": 60,
      "time": 28.8,
      "duration": 0.3,
      "velocity": 0.63,
      "hand": "right"
    },
    {
      "midi": 62,
      "time": 29.1,
      "duration": 0.3,
      "velocity": 0.63,
      "hand": "right"
    },
    {
      "midi": 64,
      "time": 29.4,
      "duration": 0.9,
      "velocity": 0.63,
      "hand": "right"
    },
    {
      "midi": 48,
      "time": 30,
      "duration": 0.45,
      "velocity": 0.63,
      "hand": "right"
    },
    {
      "midi": 60,
      "time": 30.3,
      "duration": 0.3,
      "velocity": 0.63,
      "hand": "right"
    },
    {
      "midi": 65,
      "time": 30.6,
      "duration": 0.9,
      "velocity": 0.63,
      "hand": "right"
    },
    {
      "midi": 64,
      "time": 31.5,
      "duration": 0.3,
      "velocity": 0.63,
      "hand": "right"
    },
    {
      "midi": 62,
      "time": 31.8,
      "duration": 0.3,
      "velocity": 0.63,
      "hand": "right"
    },
    {
      "midi": 60,
      "time": 32.1,
      "duration": 0.3,
      "velocity": 0.63,
      "hand": "right"
    },
    {
      "midi": 59,
      "time": 32.4,
      "duration": 0.3,
      "velocity": 0.63,
      "hand": "right"
    },
    {
      "midi": 60,
      "time": 32.7,
      "duration": 0.3,
      "velocity": 0.63,
      "hand": "right"
    },
    {
      "midi": 62,
      "time": 33,
      "duration": 0.6,
      "velocity": 0.63,
      "hand": "right"
    },
    {
      "midi": 71,
      "time": 33.6,
      "duration": 0.3,
      "velocity": 0.63,
      "hand": "right"
    },
    {
      "midi": 69,
      "time": 33.9,
      "duration": 0.3,
      "velocity": 0.63,
      "hand": "right"
    },
    {
      "midi": 67,
      "time": 34.2,
      "duration": 0.9,
      "velocity": 0.63,
      "hand": "right"
    },
    {
      "midi": 53,
      "time": 34.8,
      "duration": 0.45,
      "velocity": 0.63,
      "hand": "right"
    },
    {
      "midi": 69,
      "time": 35.1,
      "duration": 0.3,
      "velocity": 0.63,
      "hand": "right"
    },
    {
      "midi": 67,
      "time": 35.4,
      "duration": 0.9,
      "velocity": 0.63,
      "hand": "right"
    },
    {
      "midi": 65,
      "time": 36.3,
      "duration": 0.3,
      "velocity": 0.63,
      "hand": "right"
    },
    {
      "midi": 64,
      "time": 36.6,
      "duration": 0.6,
      "velocity": 0.63,
      "hand": "right"
    },
    {
      "midi": 64,
      "time": 37.2,
      "duration": 0.6,
      "velocity": 0.63,
      "hand": "right"
    },
    {
      "midi": 48,
      "time": 37.8,
      "duration": 0.6,
      "velocity": 0.63,
      "hand": "right"
    },
    {
      "midi": 69,
      "time": 38.4,
      "duration": 0.3,
      "velocity": 0.63,
      "hand": "right"
    },
    {
      "midi": 70,
      "time": 38.7,
      "duration": 0.3,
      "velocity": 0.63,
      "hand": "right"
    },
    {
      "midi": 72,
      "time": 39,
      "duration": 0.9,
      "velocity": 0.63,
      "hand": "right"
    },
    {
      "midi": 57,
      "time": 39.6,
      "duration": 0.45,
      "velocity": 0.63,
      "hand": "right"
    },
    {
      "midi": 69,
      "time": 39.9,
      "duration": 0.3,
      "velocity": 0.63,
      "hand": "right"
    },
    {
      "midi": 74,
      "time": 40.2,
      "duration": 0.9,
      "velocity": 0.63,
      "hand": "right"
    },
    {
      "midi": 72,
      "time": 41.1,
      "duration": 0.3,
      "velocity": 0.63,
      "hand": "right"
    },
    {
      "midi": 74,
      "time": 41.4,
      "duration": 0.3,
      "velocity": 0.63,
      "hand": "right"
    },
    {
      "midi": 72,
      "time": 41.7,
      "duration": 0.3,
      "velocity": 0.63,
      "hand": "right"
    },
    {
      "midi": 70,
      "time": 42,
      "duration": 0.3,
      "velocity": 0.63,
      "hand": "right"
    },
    {
      "midi": 72,
      "time": 42.3,
      "duration": 0.3,
      "velocity": 0.63,
      "hand": "right"
    },
    {
      "midi": 74,
      "time": 42.6,
      "duration": 0.3,
      "velocity": 0.63,
      "hand": "right"
    },
    {
      "midi": 72,
      "time": 42.9,
      "duration": 0.3,
      "velocity": 0.63,
      "hand": "right"
    },
    {
      "midi": 70,
      "time": 43.2,
      "duration": 0.3,
      "velocity": 0.63,
      "hand": "right"
    },
    {
      "midi": 69,
      "time": 43.5,
      "duration": 0.3,
      "velocity": 0.63,
      "hand": "right"
    },
    {
      "midi": 70,
      "time": 43.8,
      "duration": 0.9,
      "velocity": 0.63,
      "hand": "right"
    },
    {
      "midi": 62,
      "time": 44.4,
      "duration": 0.45,
      "velocity": 0.63,
      "hand": "right"
    },
    {
      "midi": 74,
      "time": 44.7,
      "duration": 0.3,
      "velocity": 0.63,
      "hand": "right"
    },
    {
      "midi": 72,
      "time": 45,
      "duration": 0.9,
      "velocity": 0.63,
      "hand": "right"
    },
    {
      "midi": 70,
      "time": 45.9,
      "duration": 0.3,
      "velocity": 0.63,
      "hand": "right"
    },
    {
      "midi": 72,
      "time": 46.2,
      "duration": 0.3,
      "velocity": 0.63,
      "hand": "right"
    },
    {
      "midi": 70,
      "time": 46.5,
      "duration": 0.3,
      "velocity": 0.63,
      "hand": "right"
    },
    {
      "midi": 69,
      "time": 46.8,
      "duration": 0.3,
      "velocity": 0.63,
      "hand": "right"
    },
    {
      "midi": 67,
      "time": 47.1,
      "duration": 0.3,
      "velocity": 0.63,
      "hand": "right"
    },
    {
      "midi": 69,
      "time": 47.4,
      "duration": 0.6,
      "velocity": 0.63,
      "hand": "right"
    },
    {
      "midi": 65,
      "time": 48,
      "duration": 0.3,
      "velocity": 0.63,
      "hand": "right"
    },
    {
      "midi": 67,
      "time": 48.3,
      "duration": 0.3,
      "velocity": 0.63,
      "hand": "right"
    },
    {
      "midi": 69,
      "time": 48.6,
      "duration": 0.9,
      "velocity": 0.63,
      "hand": "right"
    },
    {
      "midi": 53,
      "time": 49.2,
      "duration": 0.45,
      "velocity": 0.63,
      "hand": "right"
    },
    {
      "midi": 65,
      "time": 49.5,
      "duration": 0.3,
      "velocity": 0.63,
      "hand": "right"
    },
    {
      "midi": 70,
      "time": 49.8,
      "duration": 0.9,
      "velocity": 0.63,
      "hand": "right"
    },
    {
      "midi": 69,
      "time": 50.7,
      "duration": 0.3,
      "velocity": 0.63,
      "hand": "right"
    },
    {
      "midi": 67,
      "time": 51,
      "duration": 0.3,
      "velocity": 0.63,
      "hand": "right"
    },
    {
      "midi": 65,
      "time": 51.3,
      "duration": 0.3,
      "velocity": 0.63,
      "hand": "right"
    },
    {
      "midi": 64,
      "time": 51.6,
      "duration": 0.3,
      "velocity": 0.63,
      "hand": "right"
    },
    {
      "midi": 65,
      "time": 51.9,
      "duration": 0.3,
      "velocity": 0.63,
      "hand": "right"
    },
    {
      "midi": 67,
      "time": 52.2,
      "duration": 0.6,
      "velocity": 0.63,
      "hand": "right"
    },
    {
      "midi": 76,
      "time": 52.8,
      "duration": 0.3,
      "velocity": 0.63,
      "hand": "right"
    },
    {
      "midi": 74,
      "time": 53.1,
      "duration": 0.3,
      "velocity": 0.63,
      "hand": "right"
    },
    {
      "midi": 72,
      "time": 53.4,
      "duration": 0.9,
      "velocity": 0.63,
      "hand": "right"
    },
    {
      "midi": 58,
      "time": 54,
      "duration": 0.45,
      "velocity": 0.63,
      "hand": "right"
    },
    {
      "midi": 74,
      "time": 54.3,
      "duration": 0.3,
      "velocity": 0.63,
      "hand": "right"
    },
    {
      "midi": 72,
      "time": 54.6,
      "duration": 0.9,
      "velocity": 0.63,
      "hand": "right"
    },
    {
      "midi": 70,
      "time": 55.5,
      "duration": 0.3,
      "velocity": 0.63,
      "hand": "right"
    },
    {
      "midi": 69,
      "time": 55.8,
      "duration": 1.2,
      "velocity": 0.63,
      "hand": "right"
    }
  ],
  "notes2Hands": [
    {
      "midi": 57,
      "time": 0,
      "duration": 0.3,
      "velocity": 0.63,
      "hand": "left"
    },
    {
      "midi": 65,
      "time": 0,
      "duration": 0.3,
      "velocity": 0.63,
      "hand": "right"
    },
    {
      "midi": 69,
      "time": 0,
      "duration": 0.3,
      "velocity": 0.63,
      "hand": "right"
    },
    {
      "midi": 58,
      "time": 0.3,
      "duration": 0.3,
      "velocity": 0.63,
      "hand": "left"
    },
    {
      "midi": 67,
      "time": 0.3,
      "duration": 0.3,
      "velocity": 0.63,
      "hand": "right"
    },
    {
      "midi": 70,
      "time": 0.3,
      "duration": 0.3,
      "velocity": 0.63,
      "hand": "right"
    },
    {
      "midi": 60,
      "time": 0.6,
      "duration": 0.45,
      "velocity": 0.63,
      "hand": "right"
    },
    {
      "midi": 69,
      "time": 0.6,
      "duration": 0.9,
      "velocity": 0.63,
      "hand": "right"
    },
    {
      "midi": 72,
      "time": 0.6,
      "duration": 0.9,
      "velocity": 0.63,
      "hand": "right"
    },
    {
      "midi": 57,
      "time": 1.2,
      "duration": 0.45,
      "velocity": 0.63,
      "hand": "left"
    },
    {
      "midi": 65,
      "time": 1.5,
      "duration": 0.3,
      "velocity": 0.63,
      "hand": "right"
    },
    {
      "midi": 69,
      "time": 1.5,
      "duration": 0.3,
      "velocity": 0.63,
      "hand": "right"
    },
    {
      "midi": 62,
      "time": 1.8,
      "duration": 0.9,
      "velocity": 0.63,
      "hand": "right"
    },
    {
      "midi": 66,
      "time": 1.8,
      "duration": 0.9,
      "velocity": 0.63,
      "hand": "right"
    },
    {
      "midi": 74,
      "time": 1.8,
      "duration": 0.9,
      "velocity": 0.63,
      "hand": "right"
    },
    {
      "midi": 69,
      "time": 2.7,
      "duration": 0.3,
      "velocity": 0.63,
      "hand": "right"
    },
    {
      "midi": 72,
      "time": 2.7,
      "duration": 0.3,
      "velocity": 0.63,
      "hand": "right"
    },
    {
      "midi": 58,
      "time": 3,
      "duration": 0.3,
      "velocity": 0.63,
      "hand": "left"
    },
    {
      "midi": 70,
      "time": 3,
      "duration": 0.3,
      "velocity": 0.63,
      "hand": "right"
    },
    {
      "midi": 74,
      "time": 3,
      "duration": 0.3,
      "velocity": 0.63,
      "hand": "right"
    },
    {
      "midi": 57,
      "time": 3.3,
      "duration": 0.3,
      "velocity": 0.63,
      "hand": "left"
    },
    {
      "midi": 69,
      "time": 3.3,
      "duration": 0.3,
      "velocity": 0.63,
      "hand": "right"
    },
    {
      "midi": 72,
      "time": 3.3,
      "duration": 0.3,
      "velocity": 0.63,
      "hand": "right"
    },
    {
      "midi": 55,
      "time": 3.6,
      "duration": 0.3,
      "velocity": 0.63,
      "hand": "left"
    },
    {
      "midi": 67,
      "time": 3.6,
      "duration": 0.3,
      "velocity": 0.63,
      "hand": "right"
    },
    {
      "midi": 70,
      "time": 3.6,
      "duration": 0.3,
      "velocity": 0.63,
      "hand": "right"
    },
    {
      "midi": 57,
      "time": 3.9,
      "duration": 0.3,
      "velocity": 0.63,
      "hand": "left"
    },
    {
      "midi": 69,
      "time": 3.9,
      "duration": 0.3,
      "velocity": 0.63,
      "hand": "right"
    },
    {
      "midi": 72,
      "time": 3.9,
      "duration": 0.3,
      "velocity": 0.63,
      "hand": "right"
    },
    {
      "midi": 58,
      "time": 4.2,
      "duration": 0.3,
      "velocity": 0.63,
      "hand": "left"
    },
    {
      "midi": 70,
      "time": 4.2,
      "duration": 0.3,
      "velocity": 0.63,
      "hand": "right"
    },
    {
      "midi": 74,
      "time": 4.2,
      "duration": 0.3,
      "velocity": 0.63,
      "hand": "right"
    },
    {
      "midi": 57,
      "time": 4.5,
      "duration": 0.3,
      "velocity": 0.63,
      "hand": "left"
    },
    {
      "midi": 69,
      "time": 4.5,
      "duration": 0.3,
      "velocity": 0.63,
      "hand": "right"
    },
    {
      "midi": 72,
      "time": 4.5,
      "duration": 0.3,
      "velocity": 0.63,
      "hand": "right"
    },
    {
      "midi": 55,
      "time": 4.8,
      "duration": 0.3,
      "velocity": 0.63,
      "hand": "left"
    },
    {
      "midi": 67,
      "time": 4.8,
      "duration": 0.3,
      "velocity": 0.63,
      "hand": "right"
    },
    {
      "midi": 70,
      "time": 4.8,
      "duration": 0.3,
      "velocity": 0.63,
      "hand": "right"
    },
    {
      "midi": 57,
      "time": 5.1,
      "duration": 0.3,
      "velocity": 0.63,
      "hand": "left"
    },
    {
      "midi": 69,
      "time": 5.1,
      "duration": 0.3,
      "velocity": 0.63,
      "hand": "right"
    },
    {
      "midi": 58,
      "time": 5.4,
      "duration": 0.45,
      "velocity": 0.63,
      "hand": "left"
    },
    {
      "midi": 67,
      "time": 5.4,
      "duration": 0.9,
      "velocity": 0.63,
      "hand": "right"
    },
    {
      "midi": 70,
      "time": 5.4,
      "duration": 0.9,
      "velocity": 0.63,
      "hand": "right"
    },
    {
      "midi": 62,
      "time": 6,
      "duration": 0.45,
      "velocity": 0.63,
      "hand": "right"
    },
    {
      "midi": 70,
      "time": 6.3,
      "duration": 0.3,
      "velocity": 0.63,
      "hand": "right"
    },
    {
      "midi": 74,
      "time": 6.3,
      "duration": 0.3,
      "velocity": 0.63,
      "hand": "right"
    },
    {
      "midi": 60,
      "time": 6.6,
      "duration": 0.9,
      "velocity": 0.63,
      "hand": "right"
    },
    {
      "midi": 64,
      "time": 6.6,
      "duration": 0.9,
      "velocity": 0.63,
      "hand": "right"
    },
    {
      "midi": 72,
      "time": 6.6,
      "duration": 0.9,
      "velocity": 0.63,
      "hand": "right"
    },
    {
      "midi": 67,
      "time": 7.5,
      "duration": 0.3,
      "velocity": 0.63,
      "hand": "right"
    },
    {
      "midi": 70,
      "time": 7.5,
      "duration": 0.3,
      "velocity": 0.63,
      "hand": "right"
    },
    {
      "midi": 57,
      "time": 7.8,
      "duration": 0.3,
      "velocity": 0.63,
      "hand": "left"
    },
    {
      "midi": 69,
      "time": 7.8,
      "duration": 0.3,
      "velocity": 0.63,
      "hand": "right"
    },
    {
      "midi": 72,
      "time": 7.8,
      "duration": 0.3,
      "velocity": 0.63,
      "hand": "right"
    },
    {
      "midi": 55,
      "time": 8.1,
      "duration": 0.3,
      "velocity": 0.63,
      "hand": "left"
    },
    {
      "midi": 67,
      "time": 8.1,
      "duration": 0.3,
      "velocity": 0.63,
      "hand": "right"
    },
    {
      "midi": 70,
      "time": 8.1,
      "duration": 0.3,
      "velocity": 0.63,
      "hand": "right"
    },
    {
      "midi": 53,
      "time": 8.4,
      "duration": 0.3,
      "velocity": 0.63,
      "hand": "left"
    },
    {
      "midi": 65,
      "time": 8.4,
      "duration": 0.3,
      "velocity": 0.63,
      "hand": "right"
    },
    {
      "midi": 69,
      "time": 8.4,
      "duration": 0.3,
      "velocity": 0.63,
      "hand": "right"
    },
    {
      "midi": 55,
      "time": 8.7,
      "duration": 0.3,
      "velocity": 0.63,
      "hand": "left"
    },
    {
      "midi": 67,
      "time": 8.7,
      "duration": 0.3,
      "velocity": 0.63,
      "hand": "right"
    },
    {
      "midi": 57,
      "time": 9,
      "duration": 0.6,
      "velocity": 0.63,
      "hand": "left"
    },
    {
      "midi": 65,
      "time": 9,
      "duration": 0.6,
      "velocity": 0.63,
      "hand": "right"
    },
    {
      "midi": 69,
      "time": 9,
      "duration": 0.6,
      "velocity": 0.63,
      "hand": "right"
    },
    {
      "midi": 53,
      "time": 9.6,
      "duration": 0.3,
      "velocity": 0.63,
      "hand": "left"
    },
    {
      "midi": 62,
      "time": 9.6,
      "duration": 0.3,
      "velocity": 0.63,
      "hand": "right"
    },
    {
      "midi": 65,
      "time": 9.6,
      "duration": 0.3,
      "velocity": 0.63,
      "hand": "right"
    },
    {
      "midi": 55,
      "time": 9.9,
      "duration": 0.3,
      "velocity": 0.63,
      "hand": "left"
    },
    {
      "midi": 64,
      "time": 9.9,
      "duration": 0.3,
      "velocity": 0.63,
      "hand": "right"
    },
    {
      "midi": 67,
      "time": 9.9,
      "duration": 0.3,
      "velocity": 0.63,
      "hand": "right"
    },
    {
      "midi": 57,
      "time": 10.2,
      "duration": 0.45,
      "velocity": 0.63,
      "hand": "left"
    },
    {
      "midi": 65,
      "time": 10.2,
      "duration": 0.9,
      "velocity": 0.63,
      "hand": "right"
    },
    {
      "midi": 69,
      "time": 10.2,
      "duration": 0.9,
      "velocity": 0.63,
      "hand": "right"
    },
    {
      "midi": 53,
      "time": 10.8,
      "duration": 0.45,
      "velocity": 0.63,
      "hand": "left"
    },
    {
      "midi": 62,
      "time": 11.1,
      "duration": 0.3,
      "velocity": 0.63,
      "hand": "right"
    },
    {
      "midi": 65,
      "time": 11.1,
      "duration": 0.3,
      "velocity": 0.63,
      "hand": "right"
    },
    {
      "midi": 58,
      "time": 11.4,
      "duration": 0.9,
      "velocity": 0.63,
      "hand": "left"
    },
    {
      "midi": 62,
      "time": 11.4,
      "duration": 0.9,
      "velocity": 0.63,
      "hand": "right"
    },
    {
      "midi": 70,
      "time": 11.4,
      "duration": 0.9,
      "velocity": 0.63,
      "hand": "right"
    },
    {
      "midi": 65,
      "time": 12.3,
      "duration": 0.3,
      "velocity": 0.63,
      "hand": "right"
    },
    {
      "midi": 69,
      "time": 12.3,
      "duration": 0.3,
      "velocity": 0.63,
      "hand": "right"
    },
    {
      "midi": 55,
      "time": 12.6,
      "duration": 0.3,
      "velocity": 0.63,
      "hand": "left"
    },
    {
      "midi": 64,
      "time": 12.6,
      "duration": 0.3,
      "velocity": 0.63,
      "hand": "right"
    },
    {
      "midi": 67,
      "time": 12.6,
      "duration": 0.3,
      "velocity": 0.63,
      "hand": "right"
    },
    {
      "midi": 53,
      "time": 12.9,
      "duration": 0.3,
      "velocity": 0.63,
      "hand": "left"
    },
    {
      "midi": 62,
      "time": 12.9,
      "duration": 0.3,
      "velocity": 0.63,
      "hand": "right"
    },
    {
      "midi": 65,
      "time": 12.9,
      "duration": 0.3,
      "velocity": 0.63,
      "hand": "right"
    },
    {
      "midi": 52,
      "time": 13.2,
      "duration": 0.3,
      "velocity": 0.63,
      "hand": "left"
    },
    {
      "midi": 60,
      "time": 13.2,
      "duration": 0.3,
      "velocity": 0.63,
      "hand": "right"
    },
    {
      "midi": 64,
      "time": 13.2,
      "duration": 0.3,
      "velocity": 0.63,
      "hand": "right"
    },
    {
      "midi": 53,
      "time": 13.5,
      "duration": 0.3,
      "velocity": 0.63,
      "hand": "left"
    },
    {
      "midi": 62,
      "time": 13.5,
      "duration": 0.3,
      "velocity": 0.63,
      "hand": "right"
    },
    {
      "midi": 65,
      "time": 13.5,
      "duration": 0.3,
      "velocity": 0.63,
      "hand": "right"
    },
    {
      "midi": 55,
      "time": 13.8,
      "duration": 0.6,
      "velocity": 0.63,
      "hand": "left"
    },
    {
      "midi": 64,
      "time": 13.8,
      "duration": 0.6,
      "velocity": 0.63,
      "hand": "right"
    },
    {
      "midi": 67,
      "time": 13.8,
      "duration": 0.6,
      "velocity": 0.63,
      "hand": "right"
    },
    {
      "midi": 64,
      "time": 14.4,
      "duration": 0.3,
      "velocity": 0.63,
      "hand": "right"
    },
    {
      "midi": 67,
      "time": 14.4,
      "duration": 0.3,
      "velocity": 0.63,
      "hand": "right"
    },
    {
      "midi": 76,
      "time": 14.4,
      "duration": 0.3,
      "velocity": 0.63,
      "hand": "right"
    },
    {
      "midi": 62,
      "time": 14.7,
      "duration": 0.3,
      "velocity": 0.63,
      "hand": "right"
    },
    {
      "midi": 65,
      "time": 14.7,
      "duration": 0.3,
      "velocity": 0.63,
      "hand": "right"
    },
    {
      "midi": 74,
      "time": 14.7,
      "duration": 0.3,
      "velocity": 0.63,
      "hand": "right"
    },
    {
      "midi": 60,
      "time": 15,
      "duration": 0.45,
      "velocity": 0.63,
      "hand": "right"
    },
    {
      "midi": 64,
      "time": 15,
      "duration": 0.9,
      "velocity": 0.63,
      "hand": "right"
    },
    {
      "midi": 72,
      "time": 15,
      "duration": 0.9,
      "velocity": 0.63,
      "hand": "right"
    },
    {
      "midi": 58,
      "time": 15.6,
      "duration": 0.45,
      "velocity": 0.63,
      "hand": "left"
    },
    {
      "midi": 70,
      "time": 15.9,
      "duration": 0.3,
      "velocity": 0.63,
      "hand": "right"
    },
    {
      "midi": 74,
      "time": 15.9,
      "duration": 0.3,
      "velocity": 0.63,
      "hand": "right"
    },
    {
      "midi": 57,
      "time": 16.2,
      "duration": 0.9,
      "velocity": 0.63,
      "hand": "left"
    },
    {
      "midi": 69,
      "time": 16.2,
      "duration": 0.9,
      "velocity": 0.63,
      "hand": "right"
    },
    {
      "midi": 72,
      "time": 16.2,
      "duration": 0.9,
      "velocity": 0.63,
      "hand": "right"
    },
    {
      "midi": 67,
      "time": 17.1,
      "duration": 0.3,
      "velocity": 0.63,
      "hand": "right"
    },
    {
      "midi": 70,
      "time": 17.1,
      "duration": 0.3,
      "velocity": 0.63,
      "hand": "right"
    },
    {
      "midi": 53,
      "time": 17.4,
      "duration": 0.9,
      "velocity": 0.63,
      "hand": "left"
    },
    {
      "midi": 65,
      "time": 17.4,
      "duration": 0.6,
      "velocity": 0.63,
      "hand": "right"
    },
    {
      "midi": 69,
      "time": 17.4,
      "duration": 0.6,
      "velocity": 0.63,
      "hand": "right"
    },
    {
      "midi": 65,
      "time": 18,
      "duration": 0.6,
      "velocity": 0.63,
      "hand": "right"
    },
    {
      "midi": 69,
      "time": 18,
      "duration": 0.6,
      "velocity": 0.63,
      "hand": "right"
    },
    {
      "midi": 53,
      "time": 18.6,
      "duration": 0.45,
      "velocity": 0.63,
      "hand": "left"
    },
    {
      "midi": 52,
      "time": 19.2,
      "duration": 0.3,
      "velocity": 0.63,
      "hand": "left"
    },
    {
      "midi": 60,
      "time": 19.2,
      "duration": 0.3,
      "velocity": 0.63,
      "hand": "right"
    },
    {
      "midi": 64,
      "time": 19.2,
      "duration": 0.3,
      "velocity": 0.63,
      "hand": "right"
    },
    {
      "midi": 53,
      "time": 19.5,
      "duration": 0.3,
      "velocity": 0.63,
      "hand": "left"
    },
    {
      "midi": 62,
      "time": 19.5,
      "duration": 0.3,
      "velocity": 0.63,
      "hand": "right"
    },
    {
      "midi": 65,
      "time": 19.5,
      "duration": 0.3,
      "velocity": 0.63,
      "hand": "right"
    },
    {
      "midi": 55,
      "time": 19.8,
      "duration": 0.45,
      "velocity": 0.63,
      "hand": "left"
    },
    {
      "midi": 64,
      "time": 19.8,
      "duration": 0.9,
      "velocity": 0.63,
      "hand": "right"
    },
    {
      "midi": 67,
      "time": 19.8,
      "duration": 0.9,
      "velocity": 0.63,
      "hand": "right"
    },
    {
      "midi": 52,
      "time": 20.4,
      "duration": 0.45,
      "velocity": 0.63,
      "hand": "left"
    },
    {
      "midi": 60,
      "time": 20.7,
      "duration": 0.3,
      "velocity": 0.63,
      "hand": "right"
    },
    {
      "midi": 64,
      "time": 20.7,
      "duration": 0.3,
      "velocity": 0.63,
      "hand": "right"
    },
    {
      "midi": 57,
      "time": 21,
      "duration": 0.9,
      "velocity": 0.63,
      "hand": "left"
    },
    {
      "midi": 61,
      "time": 21,
      "duration": 0.9,
      "velocity": 0.63,
      "hand": "right"
    },
    {
      "midi": 69,
      "time": 21,
      "duration": 0.9,
      "velocity": 0.63,
      "hand": "right"
    },
    {
      "midi": 64,
      "time": 21.9,
      "duration": 0.3,
      "velocity": 0.63,
      "hand": "right"
    },
    {
      "midi": 67,
      "time": 21.9,
      "duration": 0.3,
      "velocity": 0.63,
      "hand": "right"
    },
    {
      "midi": 53,
      "time": 22.2,
      "duration": 0.3,
      "velocity": 0.63,
      "hand": "left"
    },
    {
      "midi": 65,
      "time": 22.2,
      "duration": 0.3,
      "velocity": 0.63,
      "hand": "right"
    },
    {
      "midi": 69,
      "time": 22.2,
      "duration": 0.3,
      "velocity": 0.63,
      "hand": "right"
    },
    {
      "midi": 52,
      "time": 22.5,
      "duration": 0.3,
      "velocity": 0.63,
      "hand": "left"
    },
    {
      "midi": 64,
      "time": 22.5,
      "duration": 0.3,
      "velocity": 0.63,
      "hand": "right"
    },
    {
      "midi": 67,
      "time": 22.5,
      "duration": 0.3,
      "velocity": 0.63,
      "hand": "right"
    },
    {
      "midi": 50,
      "time": 22.8,
      "duration": 0.3,
      "velocity": 0.63,
      "hand": "left"
    },
    {
      "midi": 62,
      "time": 22.8,
      "duration": 0.3,
      "velocity": 0.63,
      "hand": "right"
    },
    {
      "midi": 65,
      "time": 22.8,
      "duration": 0.3,
      "velocity": 0.63,
      "hand": "right"
    },
    {
      "midi": 52,
      "time": 23.1,
      "duration": 0.3,
      "velocity": 0.63,
      "hand": "left"
    },
    {
      "midi": 64,
      "time": 23.1,
      "duration": 0.3,
      "velocity": 0.63,
      "hand": "right"
    },
    {
      "midi": 67,
      "time": 23.1,
      "duration": 0.3,
      "velocity": 0.63,
      "hand": "right"
    },
    {
      "midi": 53,
      "time": 23.4,
      "duration": 0.3,
      "velocity": 0.63,
      "hand": "left"
    },
    {
      "midi": 65,
      "time": 23.4,
      "duration": 0.3,
      "velocity": 0.63,
      "hand": "right"
    },
    {
      "midi": 69,
      "time": 23.4,
      "duration": 0.3,
      "velocity": 0.63,
      "hand": "right"
    },
    {
      "midi": 52,
      "time": 23.7,
      "duration": 0.3,
      "velocity": 0.63,
      "hand": "left"
    },
    {
      "midi": 64,
      "time": 23.7,
      "duration": 0.3,
      "velocity": 0.63,
      "hand": "right"
    },
    {
      "midi": 67,
      "time": 23.7,
      "duration": 0.3,
      "velocity": 0.63,
      "hand": "right"
    },
    {
      "midi": 50,
      "time": 24,
      "duration": 0.3,
      "velocity": 0.63,
      "hand": "left"
    },
    {
      "midi": 62,
      "time": 24,
      "duration": 0.3,
      "velocity": 0.63,
      "hand": "right"
    },
    {
      "midi": 65,
      "time": 24,
      "duration": 0.3,
      "velocity": 0.63,
      "hand": "right"
    },
    {
      "midi": 52,
      "time": 24.3,
      "duration": 0.3,
      "velocity": 0.63,
      "hand": "left"
    },
    {
      "midi": 64,
      "time": 24.3,
      "duration": 0.3,
      "velocity": 0.63,
      "hand": "right"
    },
    {
      "midi": 53,
      "time": 24.6,
      "duration": 0.45,
      "velocity": 0.63,
      "hand": "left"
    },
    {
      "midi": 62,
      "time": 24.6,
      "duration": 0.9,
      "velocity": 0.63,
      "hand": "right"
    },
    {
      "midi": 65,
      "time": 24.6,
      "duration": 0.9,
      "velocity": 0.63,
      "hand": "right"
    },
    {
      "midi": 57,
      "time": 25.2,
      "duration": 0.45,
      "velocity": 0.63,
      "hand": "left"
    },
    {
      "midi": 65,
      "time": 25.5,
      "duration": 0.3,
      "velocity": 0.63,
      "hand": "right"
    },
    {
      "midi": 69,
      "time": 25.5,
      "duration": 0.3,
      "velocity": 0.63,
      "hand": "right"
    },
    {
      "midi": 55,
      "time": 25.8,
      "duration": 0.9,
      "velocity": 0.63,
      "hand": "left"
    },
    {
      "midi": 59,
      "time": 25.8,
      "duration": 0.9,
      "velocity": 0.63,
      "hand": "left"
    },
    {
      "midi": 67,
      "time": 25.8,
      "duration": 0.9,
      "velocity": 0.63,
      "hand": "right"
    },
    {
      "midi": 62,
      "time": 26.7,
      "duration": 0.3,
      "velocity": 0.63,
      "hand": "right"
    },
    {
      "midi": 65,
      "time": 26.7,
      "duration": 0.3,
      "velocity": 0.63,
      "hand": "right"
    },
    {
      "midi": 52,
      "time": 27,
      "duration": 0.3,
      "velocity": 0.63,
      "hand": "left"
    },
    {
      "midi": 64,
      "time": 27,
      "duration": 0.3,
      "velocity": 0.63,
      "hand": "right"
    },
    {
      "midi": 67,
      "time": 27,
      "duration": 0.3,
      "velocity": 0.63,
      "hand": "right"
    },
    {
      "midi": 50,
      "time": 27.3,
      "duration": 0.3,
      "velocity": 0.63,
      "hand": "left"
    },
    {
      "midi": 62,
      "time": 27.3,
      "duration": 0.3,
      "velocity": 0.63,
      "hand": "right"
    },
    {
      "midi": 65,
      "time": 27.3,
      "duration": 0.3,
      "velocity": 0.63,
      "hand": "right"
    },
    {
      "midi": 48,
      "time": 27.6,
      "duration": 0.3,
      "velocity": 0.63,
      "hand": "left"
    },
    {
      "midi": 60,
      "time": 27.6,
      "duration": 0.3,
      "velocity": 0.63,
      "hand": "right"
    },
    {
      "midi": 64,
      "time": 27.6,
      "duration": 0.3,
      "velocity": 0.63,
      "hand": "right"
    },
    {
      "midi": 50,
      "time": 27.9,
      "duration": 0.3,
      "velocity": 0.63,
      "hand": "left"
    },
    {
      "midi": 62,
      "time": 27.9,
      "duration": 0.3,
      "velocity": 0.63,
      "hand": "right"
    },
    {
      "midi": 52,
      "time": 28.2,
      "duration": 0.6,
      "velocity": 0.63,
      "hand": "left"
    },
    {
      "midi": 60,
      "time": 28.2,
      "duration": 0.6,
      "velocity": 0.63,
      "hand": "right"
    },
    {
      "midi": 64,
      "time": 28.2,
      "duration": 0.6,
      "velocity": 0.63,
      "hand": "right"
    },
    {
      "midi": 48,
      "time": 28.8,
      "duration": 0.3,
      "velocity": 0.63,
      "hand": "left"
    },
    {
      "midi": 57,
      "time": 28.8,
      "duration": 0.3,
      "velocity": 0.63,
      "hand": "left"
    },
    {
      "midi": 60,
      "time": 28.8,
      "duration": 0.3,
      "velocity": 0.63,
      "hand": "right"
    },
    {
      "midi": 50,
      "time": 29.1,
      "duration": 0.3,
      "velocity": 0.63,
      "hand": "left"
    },
    {
      "midi": 59,
      "time": 29.1,
      "duration": 0.3,
      "velocity": 0.63,
      "hand": "left"
    },
    {
      "midi": 62,
      "time": 29.1,
      "duration": 0.3,
      "velocity": 0.63,
      "hand": "right"
    },
    {
      "midi": 52,
      "time": 29.4,
      "duration": 0.45,
      "velocity": 0.63,
      "hand": "left"
    },
    {
      "midi": 60,
      "time": 29.4,
      "duration": 0.9,
      "velocity": 0.63,
      "hand": "right"
    },
    {
      "midi": 64,
      "time": 29.4,
      "duration": 0.9,
      "velocity": 0.63,
      "hand": "right"
    },
    {
      "midi": 48,
      "time": 30,
      "duration": 0.45,
      "velocity": 0.63,
      "hand": "left"
    },
    {
      "midi": 57,
      "time": 30.3,
      "duration": 0.3,
      "velocity": 0.63,
      "hand": "left"
    },
    {
      "midi": 60,
      "time": 30.3,
      "duration": 0.3,
      "velocity": 0.63,
      "hand": "right"
    },
    {
      "midi": 53,
      "time": 30.6,
      "duration": 0.9,
      "velocity": 0.63,
      "hand": "left"
    },
    {
      "midi": 57,
      "time": 30.6,
      "duration": 0.9,
      "velocity": 0.63,
      "hand": "left"
    },
    {
      "midi": 65,
      "time": 30.6,
      "duration": 0.9,
      "velocity": 0.63,
      "hand": "right"
    },
    {
      "midi": 60,
      "time": 31.5,
      "duration": 0.3,
      "velocity": 0.63,
      "hand": "right"
    },
    {
      "midi": 64,
      "time": 31.5,
      "duration": 0.3,
      "velocity": 0.63,
      "hand": "right"
    },
    {
      "midi": 50,
      "time": 31.8,
      "duration": 0.3,
      "velocity": 0.63,
      "hand": "left"
    },
    {
      "midi": 59,
      "time": 31.8,
      "duration": 0.3,
      "velocity": 0.63,
      "hand": "left"
    },
    {
      "midi": 62,
      "time": 31.8,
      "duration": 0.3,
      "velocity": 0.63,
      "hand": "right"
    },
    {
      "midi": 48,
      "time": 32.1,
      "duration": 0.3,
      "velocity": 0.63,
      "hand": "left"
    },
    {
      "midi": 57,
      "time": 32.1,
      "duration": 0.3,
      "velocity": 0.63,
      "hand": "left"
    },
    {
      "midi": 60,
      "time": 32.1,
      "duration": 0.3,
      "velocity": 0.63,
      "hand": "right"
    },
    {
      "midi": 47,
      "time": 32.4,
      "duration": 0.3,
      "velocity": 0.63,
      "hand": "left"
    },
    {
      "midi": 55,
      "time": 32.4,
      "duration": 0.3,
      "velocity": 0.63,
      "hand": "left"
    },
    {
      "midi": 59,
      "time": 32.4,
      "duration": 0.3,
      "velocity": 0.63,
      "hand": "left"
    },
    {
      "midi": 48,
      "time": 32.7,
      "duration": 0.3,
      "velocity": 0.63,
      "hand": "left"
    },
    {
      "midi": 57,
      "time": 32.7,
      "duration": 0.3,
      "velocity": 0.63,
      "hand": "left"
    },
    {
      "midi": 60,
      "time": 32.7,
      "duration": 0.3,
      "velocity": 0.63,
      "hand": "right"
    },
    {
      "midi": 50,
      "time": 33,
      "duration": 0.6,
      "velocity": 0.63,
      "hand": "left"
    },
    {
      "midi": 59,
      "time": 33,
      "duration": 0.6,
      "velocity": 0.63,
      "hand": "left"
    },
    {
      "midi": 62,
      "time": 33,
      "duration": 0.6,
      "velocity": 0.63,
      "hand": "right"
    },
    {
      "midi": 59,
      "time": 33.6,
      "duration": 0.3,
      "velocity": 0.63,
      "hand": "left"
    },
    {
      "midi": 62,
      "time": 33.6,
      "duration": 0.3,
      "velocity": 0.63,
      "hand": "right"
    },
    {
      "midi": 71,
      "time": 33.6,
      "duration": 0.3,
      "velocity": 0.63,
      "hand": "right"
    },
    {
      "midi": 57,
      "time": 33.9,
      "duration": 0.3,
      "velocity": 0.63,
      "hand": "left"
    },
    {
      "midi": 60,
      "time": 33.9,
      "duration": 0.3,
      "velocity": 0.63,
      "hand": "right"
    },
    {
      "midi": 69,
      "time": 33.9,
      "duration": 0.3,
      "velocity": 0.63,
      "hand": "right"
    },
    {
      "midi": 55,
      "time": 34.2,
      "duration": 0.45,
      "velocity": 0.63,
      "hand": "left"
    },
    {
      "midi": 59,
      "time": 34.2,
      "duration": 0.9,
      "velocity": 0.63,
      "hand": "left"
    },
    {
      "midi": 67,
      "time": 34.2,
      "duration": 0.9,
      "velocity": 0.63,
      "hand": "right"
    },
    {
      "midi": 53,
      "time": 34.8,
      "duration": 0.45,
      "velocity": 0.63,
      "hand": "left"
    },
    {
      "midi": 65,
      "time": 35.1,
      "duration": 0.3,
      "velocity": 0.63,
      "hand": "right"
    },
    {
      "midi": 69,
      "time": 35.1,
      "duration": 0.3,
      "velocity": 0.63,
      "hand": "right"
    },
    {
      "midi": 52,
      "time": 35.4,
      "duration": 0.9,
      "velocity": 0.63,
      "hand": "left"
    },
    {
      "midi": 64,
      "time": 35.4,
      "duration": 0.9,
      "velocity": 0.63,
      "hand": "right"
    },
    {
      "midi": 67,
      "time": 35.4,
      "duration": 0.9,
      "velocity": 0.63,
      "hand": "right"
    },
    {
      "midi": 62,
      "time": 36.3,
      "duration": 0.3,
      "velocity": 0.63,
      "hand": "right"
    },
    {
      "midi": 65,
      "time": 36.3,
      "duration": 0.3,
      "velocity": 0.63,
      "hand": "right"
    },
    {
      "midi": 48,
      "time": 36.6,
      "duration": 0.9,
      "velocity": 0.63,
      "hand": "left"
    },
    {
      "midi": 60,
      "time": 36.6,
      "duration": 0.6,
      "velocity": 0.63,
      "hand": "right"
    },
    {
      "midi": 64,
      "time": 36.6,
      "duration": 0.6,
      "velocity": 0.63,
      "hand": "right"
    },
    {
      "midi": 60,
      "time": 37.2,
      "duration": 0.6,
      "velocity": 0.63,
      "hand": "right"
    },
    {
      "midi": 64,
      "time": 37.2,
      "duration": 0.6,
      "velocity": 0.63,
      "hand": "right"
    },
    {
      "midi": 48,
      "time": 37.8,
      "duration": 0.6,
      "velocity": 0.63,
      "hand": "left"
    },
    {
      "midi": 57,
      "time": 38.4,
      "duration": 0.3,
      "velocity": 0.63,
      "hand": "left"
    },
    {
      "midi": 65,
      "time": 38.4,
      "duration": 0.3,
      "velocity": 0.63,
      "hand": "right"
    },
    {
      "midi": 69,
      "time": 38.4,
      "duration": 0.3,
      "velocity": 0.63,
      "hand": "right"
    },
    {
      "midi": 58,
      "time": 38.7,
      "duration": 0.3,
      "velocity": 0.63,
      "hand": "left"
    },
    {
      "midi": 67,
      "time": 38.7,
      "duration": 0.3,
      "velocity": 0.63,
      "hand": "right"
    },
    {
      "midi": 70,
      "time": 38.7,
      "duration": 0.3,
      "velocity": 0.63,
      "hand": "right"
    },
    {
      "midi": 60,
      "time": 39,
      "duration": 0.45,
      "velocity": 0.63,
      "hand": "right"
    },
    {
      "midi": 69,
      "time": 39,
      "duration": 0.9,
      "velocity": 0.63,
      "hand": "right"
    },
    {
      "midi": 72,
      "time": 39,
      "duration": 0.9,
      "velocity": 0.63,
      "hand": "right"
    },
    {
      "midi": 57,
      "time": 39.6,
      "duration": 0.45,
      "velocity": 0.63,
      "hand": "left"
    },
    {
      "midi": 65,
      "time": 39.9,
      "duration": 0.3,
      "velocity": 0.63,
      "hand": "right"
    },
    {
      "midi": 69,
      "time": 39.9,
      "duration": 0.3,
      "velocity": 0.63,
      "hand": "right"
    },
    {
      "midi": 62,
      "time": 40.2,
      "duration": 0.9,
      "velocity": 0.63,
      "hand": "right"
    },
    {
      "midi": 66,
      "time": 40.2,
      "duration": 0.9,
      "velocity": 0.63,
      "hand": "right"
    },
    {
      "midi": 74,
      "time": 40.2,
      "duration": 0.9,
      "velocity": 0.63,
      "hand": "right"
    },
    {
      "midi": 69,
      "time": 41.1,
      "duration": 0.3,
      "velocity": 0.63,
      "hand": "right"
    },
    {
      "midi": 72,
      "time": 41.1,
      "duration": 0.3,
      "velocity": 0.63,
      "hand": "right"
    },
    {
      "midi": 58,
      "time": 41.4,
      "duration": 0.3,
      "velocity": 0.63,
      "hand": "left"
    },
    {
      "midi": 70,
      "time": 41.4,
      "duration": 0.3,
      "velocity": 0.63,
      "hand": "right"
    },
    {
      "midi": 74,
      "time": 41.4,
      "duration": 0.3,
      "velocity": 0.63,
      "hand": "right"
    },
    {
      "midi": 57,
      "time": 41.7,
      "duration": 0.3,
      "velocity": 0.63,
      "hand": "left"
    },
    {
      "midi": 69,
      "time": 41.7,
      "duration": 0.3,
      "velocity": 0.63,
      "hand": "right"
    },
    {
      "midi": 72,
      "time": 41.7,
      "duration": 0.3,
      "velocity": 0.63,
      "hand": "right"
    },
    {
      "midi": 55,
      "time": 42,
      "duration": 0.3,
      "velocity": 0.63,
      "hand": "left"
    },
    {
      "midi": 67,
      "time": 42,
      "duration": 0.3,
      "velocity": 0.63,
      "hand": "right"
    },
    {
      "midi": 70,
      "time": 42,
      "duration": 0.3,
      "velocity": 0.63,
      "hand": "right"
    },
    {
      "midi": 57,
      "time": 42.3,
      "duration": 0.3,
      "velocity": 0.63,
      "hand": "left"
    },
    {
      "midi": 69,
      "time": 42.3,
      "duration": 0.3,
      "velocity": 0.63,
      "hand": "right"
    },
    {
      "midi": 72,
      "time": 42.3,
      "duration": 0.3,
      "velocity": 0.63,
      "hand": "right"
    },
    {
      "midi": 58,
      "time": 42.6,
      "duration": 0.3,
      "velocity": 0.63,
      "hand": "left"
    },
    {
      "midi": 70,
      "time": 42.6,
      "duration": 0.3,
      "velocity": 0.63,
      "hand": "right"
    },
    {
      "midi": 74,
      "time": 42.6,
      "duration": 0.3,
      "velocity": 0.63,
      "hand": "right"
    },
    {
      "midi": 57,
      "time": 42.9,
      "duration": 0.3,
      "velocity": 0.63,
      "hand": "left"
    },
    {
      "midi": 69,
      "time": 42.9,
      "duration": 0.3,
      "velocity": 0.63,
      "hand": "right"
    },
    {
      "midi": 72,
      "time": 42.9,
      "duration": 0.3,
      "velocity": 0.63,
      "hand": "right"
    },
    {
      "midi": 55,
      "time": 43.2,
      "duration": 0.3,
      "velocity": 0.63,
      "hand": "left"
    },
    {
      "midi": 67,
      "time": 43.2,
      "duration": 0.3,
      "velocity": 0.63,
      "hand": "right"
    },
    {
      "midi": 70,
      "time": 43.2,
      "duration": 0.3,
      "velocity": 0.63,
      "hand": "right"
    },
    {
      "midi": 57,
      "time": 43.5,
      "duration": 0.3,
      "velocity": 0.63,
      "hand": "left"
    },
    {
      "midi": 69,
      "time": 43.5,
      "duration": 0.3,
      "velocity": 0.63,
      "hand": "right"
    },
    {
      "midi": 58,
      "time": 43.8,
      "duration": 0.45,
      "velocity": 0.63,
      "hand": "left"
    },
    {
      "midi": 67,
      "time": 43.8,
      "duration": 0.9,
      "velocity": 0.63,
      "hand": "right"
    },
    {
      "midi": 70,
      "time": 43.8,
      "duration": 0.9,
      "velocity": 0.63,
      "hand": "right"
    },
    {
      "midi": 62,
      "time": 44.4,
      "duration": 0.45,
      "velocity": 0.63,
      "hand": "right"
    },
    {
      "midi": 70,
      "time": 44.7,
      "duration": 0.3,
      "velocity": 0.63,
      "hand": "right"
    },
    {
      "midi": 74,
      "time": 44.7,
      "duration": 0.3,
      "velocity": 0.63,
      "hand": "right"
    },
    {
      "midi": 60,
      "time": 45,
      "duration": 0.9,
      "velocity": 0.63,
      "hand": "right"
    },
    {
      "midi": 64,
      "time": 45,
      "duration": 0.9,
      "velocity": 0.63,
      "hand": "right"
    },
    {
      "midi": 72,
      "time": 45,
      "duration": 0.9,
      "velocity": 0.63,
      "hand": "right"
    },
    {
      "midi": 67,
      "time": 45.9,
      "duration": 0.3,
      "velocity": 0.63,
      "hand": "right"
    },
    {
      "midi": 70,
      "time": 45.9,
      "duration": 0.3,
      "velocity": 0.63,
      "hand": "right"
    },
    {
      "midi": 57,
      "time": 46.2,
      "duration": 0.3,
      "velocity": 0.63,
      "hand": "left"
    },
    {
      "midi": 69,
      "time": 46.2,
      "duration": 0.3,
      "velocity": 0.63,
      "hand": "right"
    },
    {
      "midi": 72,
      "time": 46.2,
      "duration": 0.3,
      "velocity": 0.63,
      "hand": "right"
    },
    {
      "midi": 55,
      "time": 46.5,
      "duration": 0.3,
      "velocity": 0.63,
      "hand": "left"
    },
    {
      "midi": 67,
      "time": 46.5,
      "duration": 0.3,
      "velocity": 0.63,
      "hand": "right"
    },
    {
      "midi": 70,
      "time": 46.5,
      "duration": 0.3,
      "velocity": 0.63,
      "hand": "right"
    },
    {
      "midi": 53,
      "time": 46.8,
      "duration": 0.3,
      "velocity": 0.63,
      "hand": "left"
    },
    {
      "midi": 65,
      "time": 46.8,
      "duration": 0.3,
      "velocity": 0.63,
      "hand": "right"
    },
    {
      "midi": 69,
      "time": 46.8,
      "duration": 0.3,
      "velocity": 0.63,
      "hand": "right"
    },
    {
      "midi": 55,
      "time": 47.1,
      "duration": 0.3,
      "velocity": 0.63,
      "hand": "left"
    },
    {
      "midi": 67,
      "time": 47.1,
      "duration": 0.3,
      "velocity": 0.63,
      "hand": "right"
    },
    {
      "midi": 57,
      "time": 47.4,
      "duration": 0.6,
      "velocity": 0.63,
      "hand": "left"
    },
    {
      "midi": 65,
      "time": 47.4,
      "duration": 0.6,
      "velocity": 0.63,
      "hand": "right"
    },
    {
      "midi": 69,
      "time": 47.4,
      "duration": 0.6,
      "velocity": 0.63,
      "hand": "right"
    },
    {
      "midi": 53,
      "time": 48,
      "duration": 0.3,
      "velocity": 0.63,
      "hand": "left"
    },
    {
      "midi": 62,
      "time": 48,
      "duration": 0.3,
      "velocity": 0.63,
      "hand": "right"
    },
    {
      "midi": 65,
      "time": 48,
      "duration": 0.3,
      "velocity": 0.63,
      "hand": "right"
    },
    {
      "midi": 55,
      "time": 48.3,
      "duration": 0.3,
      "velocity": 0.63,
      "hand": "left"
    },
    {
      "midi": 64,
      "time": 48.3,
      "duration": 0.3,
      "velocity": 0.63,
      "hand": "right"
    },
    {
      "midi": 67,
      "time": 48.3,
      "duration": 0.3,
      "velocity": 0.63,
      "hand": "right"
    },
    {
      "midi": 57,
      "time": 48.6,
      "duration": 0.45,
      "velocity": 0.63,
      "hand": "left"
    },
    {
      "midi": 65,
      "time": 48.6,
      "duration": 0.9,
      "velocity": 0.63,
      "hand": "right"
    },
    {
      "midi": 69,
      "time": 48.6,
      "duration": 0.9,
      "velocity": 0.63,
      "hand": "right"
    },
    {
      "midi": 53,
      "time": 49.2,
      "duration": 0.45,
      "velocity": 0.63,
      "hand": "left"
    },
    {
      "midi": 62,
      "time": 49.5,
      "duration": 0.3,
      "velocity": 0.63,
      "hand": "right"
    },
    {
      "midi": 65,
      "time": 49.5,
      "duration": 0.3,
      "velocity": 0.63,
      "hand": "right"
    },
    {
      "midi": 58,
      "time": 49.8,
      "duration": 0.9,
      "velocity": 0.63,
      "hand": "left"
    },
    {
      "midi": 62,
      "time": 49.8,
      "duration": 0.9,
      "velocity": 0.63,
      "hand": "right"
    },
    {
      "midi": 70,
      "time": 49.8,
      "duration": 0.9,
      "velocity": 0.63,
      "hand": "right"
    },
    {
      "midi": 65,
      "time": 50.7,
      "duration": 0.3,
      "velocity": 0.63,
      "hand": "right"
    },
    {
      "midi": 69,
      "time": 50.7,
      "duration": 0.3,
      "velocity": 0.63,
      "hand": "right"
    },
    {
      "midi": 55,
      "time": 51,
      "duration": 0.3,
      "velocity": 0.63,
      "hand": "left"
    },
    {
      "midi": 64,
      "time": 51,
      "duration": 0.3,
      "velocity": 0.63,
      "hand": "right"
    },
    {
      "midi": 67,
      "time": 51,
      "duration": 0.3,
      "velocity": 0.63,
      "hand": "right"
    },
    {
      "midi": 53,
      "time": 51.3,
      "duration": 0.3,
      "velocity": 0.63,
      "hand": "left"
    },
    {
      "midi": 62,
      "time": 51.3,
      "duration": 0.3,
      "velocity": 0.63,
      "hand": "right"
    },
    {
      "midi": 65,
      "time": 51.3,
      "duration": 0.3,
      "velocity": 0.63,
      "hand": "right"
    },
    {
      "midi": 52,
      "time": 51.6,
      "duration": 0.3,
      "velocity": 0.63,
      "hand": "left"
    },
    {
      "midi": 60,
      "time": 51.6,
      "duration": 0.3,
      "velocity": 0.63,
      "hand": "right"
    },
    {
      "midi": 64,
      "time": 51.6,
      "duration": 0.3,
      "velocity": 0.63,
      "hand": "right"
    },
    {
      "midi": 53,
      "time": 51.9,
      "duration": 0.3,
      "velocity": 0.63,
      "hand": "left"
    },
    {
      "midi": 62,
      "time": 51.9,
      "duration": 0.3,
      "velocity": 0.63,
      "hand": "right"
    },
    {
      "midi": 65,
      "time": 51.9,
      "duration": 0.3,
      "velocity": 0.63,
      "hand": "right"
    },
    {
      "midi": 55,
      "time": 52.2,
      "duration": 0.6,
      "velocity": 0.63,
      "hand": "left"
    },
    {
      "midi": 64,
      "time": 52.2,
      "duration": 0.6,
      "velocity": 0.63,
      "hand": "right"
    },
    {
      "midi": 67,
      "time": 52.2,
      "duration": 0.6,
      "velocity": 0.63,
      "hand": "right"
    },
    {
      "midi": 64,
      "time": 52.8,
      "duration": 0.3,
      "velocity": 0.63,
      "hand": "right"
    },
    {
      "midi": 67,
      "time": 52.8,
      "duration": 0.3,
      "velocity": 0.63,
      "hand": "right"
    },
    {
      "midi": 76,
      "time": 52.8,
      "duration": 0.3,
      "velocity": 0.63,
      "hand": "right"
    },
    {
      "midi": 62,
      "time": 53.1,
      "duration": 0.3,
      "velocity": 0.63,
      "hand": "right"
    },
    {
      "midi": 65,
      "time": 53.1,
      "duration": 0.3,
      "velocity": 0.63,
      "hand": "right"
    },
    {
      "midi": 74,
      "time": 53.1,
      "duration": 0.3,
      "velocity": 0.63,
      "hand": "right"
    },
    {
      "midi": 60,
      "time": 53.4,
      "duration": 0.45,
      "velocity": 0.63,
      "hand": "right"
    },
    {
      "midi": 64,
      "time": 53.4,
      "duration": 0.9,
      "velocity": 0.63,
      "hand": "right"
    },
    {
      "midi": 72,
      "time": 53.4,
      "duration": 0.9,
      "velocity": 0.63,
      "hand": "right"
    },
    {
      "midi": 58,
      "time": 54,
      "duration": 0.45,
      "velocity": 0.63,
      "hand": "left"
    },
    {
      "midi": 70,
      "time": 54.3,
      "duration": 0.3,
      "velocity": 0.63,
      "hand": "right"
    },
    {
      "midi": 74,
      "time": 54.3,
      "duration": 0.3,
      "velocity": 0.63,
      "hand": "right"
    },
    {
      "midi": 57,
      "time": 54.6,
      "duration": 0.9,
      "velocity": 0.63,
      "hand": "left"
    },
    {
      "midi": 69,
      "time": 54.6,
      "duration": 0.9,
      "velocity": 0.63,
      "hand": "right"
    },
    {
      "midi": 72,
      "time": 54.6,
      "duration": 0.9,
      "velocity": 0.63,
      "hand": "right"
    },
    {
      "midi": 67,
      "time": 55.5,
      "duration": 0.3,
      "velocity": 0.63,
      "hand": "right"
    },
    {
      "midi": 70,
      "time": 55.5,
      "duration": 0.3,
      "velocity": 0.63,
      "hand": "right"
    },
    {
      "midi": 53,
      "time": 55.8,
      "duration": 1.2,
      "velocity": 0.63,
      "hand": "left"
    },
    {
      "midi": 65,
      "time": 55.8,
      "duration": 1.2,
      "velocity": 0.63,
      "hand": "right"
    },
    {
      "midi": 69,
      "time": 55.8,
      "duration": 1.2,
      "velocity": 0.63,
      "hand": "right"
    }
  ]
}
