{
  "id": "castelo-forte",
  "title": "Castelo Forte",
  "artist": "Martinho Lutero",
  "difficulty": "Difícil",
  "bpm": 100,
  "duration": 48,
  "category": "Religiosos",
  "isPremium": false,
  "coverUrl": "/images/covers/placeholder.png",
  "notes": [
    {
      "midi": 48,
      "time": 0,
      "duration": 0.6,
      "velocity": 0.51,
      "hand": "left"
    },
    {
      "midi": 55,
      "time": 0,
      "duration": 0.585,
      "velocity": 0.51,
      "hand": "left"
    },
    {
      "midi": 64,
      "time": 0,
      "duration": 0.6,
      "velocity": 0.54,
      "hand": "right"
    },
    {
      "midi": 72,
      "time": 0,
      "duration": 0.585,
      "velocity": 0.54,
      "hand": "right"
    },
    {
      "midi": 52,
      "time": 0.6,
      "duration": 0.6,
      "velocity": 0.59,
      "hand": "left"
    },
    {
      "midi": 55,
      "time": 0.6,
      "duration": 0.585,
      "velocity": 0.59,
      "hand": "left"
    },
    {
      "midi": 60,
      "time": 0.6,
      "duration": 0.6,
      "velocity": 0.58,
      "hand": "right"
    },
    {
      "midi": 72,
      "time": 0.6,
      "duration": 0.585,
      "velocity": 0.58,
      "hand": "right"
    },
    {
      "midi": 48,
      "time": 1.2,
      "duration": 0.6,
      "velocity": 0.57,
      "hand": "left"
    },
    {
      "midi": 55,
      "time": 1.2,
      "duration": 0.585,
      "velocity": 0.57,
      "hand": "left"
    },
    {
      "midi": 64,
      "time": 1.2,
      "duration": 0.6,
      "velocity": 0.61,
      "hand": "right"
    },
    {
      "midi": 72,
      "time": 1.2,
      "duration": 0.6,
      "velocity": 0.61,
      "hand": "right"
    },
    {
      "midi": 55,
      "time": 1.8,
      "duration": 0.6,
      "velocity": 0.63,
      "hand": "left"
    },
    {
      "midi": 59,
      "time": 1.8,
      "duration": 0.585,
      "velocity": 0.63,
      "hand": "left"
    },
    {
      "midi": 62,
      "time": 1.8,
      "duration": 0.6,
      "velocity": 0.52,
      "hand": "right"
    },
    {
      "midi": 67,
      "time": 1.8,
      "duration": 0.3,
      "velocity": 0.46,
      "hand": "right"
    },
    {
      "midi": 69,
      "time": 2.1,
      "duration": 0.3,
      "velocity": 0.64,
      "hand": "right"
    },
    {
      "midi": 52,
      "time": 2.4,
      "duration": 0.6,
      "velocity": 0.62,
      "hand": "left"
    },
    {
      "midi": 59,
      "time": 2.4,
      "duration": 0.6,
      "velocity": 0.62,
      "hand": "left"
    },
    {
      "midi": 67,
      "time": 2.4,
      "duration": 0.6,
      "velocity": 0.65,
      "hand": "right"
    },
    {
      "midi": 71,
      "time": 2.4,
      "duration": 0.6,
      "velocity": 0.65,
      "hand": "right"
    },
    {
      "midi": 57,
      "time": 3,
      "duration": 0.6,
      "velocity": 0.61,
      "hand": "left"
    },
    {
      "midi": 64,
      "time": 3,
      "duration": 0.6,
      "velocity": 0.52,
      "hand": "right"
    },
    {
      "midi": 72,
      "time": 3,
      "duration": 0.3,
      "velocity": 0.62,
      "hand": "right"
    },
    {
      "midi": 71,
      "time": 3.3,
      "duration": 0.3,
      "velocity": 0.63,
      "hand": "right"
    },
    {
      "midi": 50,
      "time": 3.6,
      "duration": 0.6,
      "velocity": 0.51,
      "hand": "left"
    },
    {
      "midi": 62,
      "time": 3.6,
      "duration": 0.3,
      "velocity": 0.66,
      "hand": "right"
    },
    {
      "midi": 66,
      "time": 3.6,
      "duration": 0.6,
      "velocity": 0.54,
      "hand": "right"
    },
    {
      "midi": 69,
      "time": 3.6,
      "duration": 0.6,
      "velocity": 0.54,
      "hand": "right"
    },
    {
      "midi": 60,
      "time": 3.9,
      "duration": 0.3,
      "velocity": 0.59,
      "hand": "right"
    },
    {
      "midi": 55,
      "time": 4.2,
      "duration": 0.6,
      "velocity": 0.57,
      "hand": "left"
    },
    {
      "midi": 59,
      "time": 4.2,
      "duration": 0.6,
      "velocity": 0.57,
      "hand": "left"
    },
    {
      "midi": 67,
      "time": 4.2,
      "duration": 0.6,
      "velocity": 0.56,
      "hand": "right"
    },
    {
      "midi": 57,
      "time": 4.8,
      "duration": 0.6,
      "velocity": 0.57,
      "hand": "left"
    },
    {
      "midi": 64,
      "time": 4.8,
      "duration": 0.585,
      "velocity": 0.68,
      "hand": "right"
    },
    {
      "midi": 72,
      "time": 4.8,
      "duration": 0.6,
      "velocity": 0.68,
      "hand": "right"
    },
    {
      "midi": 52,
      "time": 5.4,
      "duration": 0.6,
      "velocity": 0.61,
      "hand": "left"
    },
    {
      "midi": 55,
      "time": 5.4,
      "duration": 0.6,
      "velocity": 0.61,
      "hand": "left"
    },
    {
      "midi": 64,
      "time": 5.4,
      "duration": 0.6,
      "velocity": 0.58,
      "hand": "right"
    },
    {
      "midi": 71,
      "time": 5.4,
      "duration": 0.6,
      "velocity": 0.58,
      "hand": "right"
    },
    {
      "midi": 53,
      "time": 6,
      "duration": 0.6,
      "velocity": 0.6,
      "hand": "left"
    },
    {
      "midi": 60,
      "time": 6,
      "duration": 0.585,
      "velocity": 0.57,
      "hand": "right"
    },
    {
      "midi": 69,
      "time": 6,
      "duration": 0.6,
      "velocity": 0.57,
      "hand": "right"
    },
    {
      "midi": 48,
      "time": 6.6,
      "duration": 0.6,
      "velocity": 0.57,
      "hand": "left"
    },
    {
      "midi": 52,
      "time": 6.6,
      "duration": 0.585,
      "velocity": 0.57,
      "hand": "left"
    },
    {
      "midi": 60,
      "time": 6.6,
      "duration": 0.585,
      "velocity": 0.54,
      "hand": "right"
    },
    {
      "midi": 67,
      "time": 6.6,
      "duration": 0.6,
      "velocity": 0.54,
      "hand": "right"
    },
    {
      "midi": 45,
      "time": 7.2,
      "duration": 0.6,
      "velocity": 0.59,
      "hand": "left"
    },
    {
      "midi": 52,
      "time": 7.2,
      "duration": 0.6,
      "velocity": 0.59,
      "hand": "left"
    },
    {
      "midi": 60,
      "time": 7.2,
      "duration": 0.6,
      "velocity": 0.62,
      "hand": "right"
    },
    {
      "midi": 69,
      "time": 7.2,
      "duration": 0.6,
      "velocity": 0.62,
      "hand": "right"
    },
    {
      "midi": 50,
      "time": 7.8,
      "duration": 0.6,
      "velocity": 0.62,
      "hand": "left"
    },
    {
      "midi": 53,
      "time": 7.8,
      "duration": 0.6,
      "velocity": 0.62,
      "hand": "left"
    },
    {
      "midi": 65,
      "time": 7.8,
      "duration": 0.3,
      "velocity": 0.53,
      "hand": "right"
    },
    {
      "midi": 64,
      "time": 8.1,
      "duration": 0.3,
      "velocity": 0.57,
      "hand": "right"
    },
    {
      "midi": 43,
      "time": 8.4,
      "duration": 0.6,
      "velocity": 0.65,
      "hand": "left"
    },
    {
      "midi": 55,
      "time": 8.4,
      "duration": 0.6,
      "velocity": 0.65,
      "hand": "left"
    },
    {
      "midi": 62,
      "time": 8.4,
      "duration": 0.6,
      "velocity": 0.59,
      "hand": "right"
    },
    {
      "midi": 48,
      "time": 9,
      "duration": 1.635,
      "velocity": 0.54,
      "hand": "left"
    },
    {
      "midi": 52,
      "time": 9,
      "duration": 1.65,
      "velocity": 0.54,
      "hand": "left"
    },
    {
      "midi": 60,
      "time": 9,
      "duration": 1.65,
      "velocity": 0.51,
      "hand": "right"
    },
    {
      "midi": 48,
      "time": 10.65,
      "duration": 0.6,
      "velocity": 0.61,
      "hand": "left"
    },
    {
      "midi": 55,
      "time": 10.65,
      "duration": 0.585,
      "velocity": 0.61,
      "hand": "left"
    },
    {
      "midi": 64,
      "time": 10.65,
      "duration": 0.6,
      "velocity": 0.72,
      "hand": "right"
    },
    {
      "midi": 72,
      "time": 10.65,
      "duration": 0.585,
      "velocity": 0.72,
      "hand": "right"
    },
    {
      "midi": 52,
      "time": 11.25,
      "duration": 0.6,
      "velocity": 0.61,
      "hand": "left"
    },
    {
      "midi": 55,
      "time": 11.25,
      "duration": 0.585,
      "velocity": 0.61,
      "hand": "left"
    },
    {
      "midi": 60,
      "time": 11.25,
      "duration": 0.6,
      "velocity": 0.63,
      "hand": "right"
    },
    {
      "midi": 72,
      "time": 11.25,
      "duration": 0.585,
      "velocity": 0.63,
      "hand": "right"
    },
    {
      "midi": 48,
      "time": 11.85,
      "duration": 0.6,
      "velocity": 0.6,
      "hand": "left"
    },
    {
      "midi": 55,
      "time": 11.85,
      "duration": 0.585,
      "velocity": 0.6,
      "hand": "left"
    },
    {
      "midi": 64,
      "time": 11.85,
      "duration": 0.6,
      "velocity": 0.61,
      "hand": "right"
    },
    {
      "midi": 72,
      "time": 11.85,
      "duration": 0.6,
      "velocity": 0.61,
      "hand": "right"
    },
    {
      "midi": 55,
      "time": 12.45,
      "duration": 0.585,
      "velocity": 0.63,
      "hand": "left"
    },
    {
      "midi": 59,
      "time": 12.45,
      "duration": 0.6,
      "velocity": 0.63,
      "hand": "left"
    },
    {
      "midi": 62,
      "time": 12.45,
      "duration": 0.6,
      "velocity": 0.51,
      "hand": "right"
    },
    {
      "midi": 67,
      "time": 12.45,
      "duration": 0.3,
      "velocity": 0.5,
      "hand": "right"
    },
    {
      "midi": 69,
      "time": 12.75,
      "duration": 0.3,
      "velocity": 0.61,
      "hand": "right"
    },
    {
      "midi": 52,
      "time": 13.05,
      "duration": 0.585,
      "velocity": 0.57,
      "hand": "left"
    },
    {
      "midi": 55,
      "time": 13.05,
      "duration": 0.6,
      "velocity": 0.57,
      "hand": "left"
    },
    {
      "midi": 64,
      "time": 13.05,
      "duration": 0.6,
      "velocity": 0.65,
      "hand": "right"
    },
    {
      "midi": 71,
      "time": 13.05,
      "duration": 0.6,
      "velocity": 0.65,
      "hand": "right"
    },
    {
      "midi": 45,
      "time": 13.65,
      "duration": 0.6,
      "velocity": 0.57,
      "hand": "left"
    },
    {
      "midi": 52,
      "time": 13.65,
      "duration": 0.6,
      "velocity": 0.57,
      "hand": "left"
    },
    {
      "midi": 60,
      "time": 13.65,
      "duration": 0.6,
      "velocity": 0.56,
      "hand": "right"
    },
    {
      "midi": 72,
      "time": 13.65,
      "duration": 0.3,
      "velocity": 0.58,
      "hand": "right"
    },
    {
      "midi": 71,
      "time": 13.95,
      "duration": 0.3,
      "velocity": 0.59,
      "hand": "right"
    },
    {
      "midi": 50,
      "time": 14.25,
      "duration": 0.6,
      "velocity": 0.61,
      "hand": "left"
    },
    {
      "midi": 54,
      "time": 14.25,
      "duration": 0.6,
      "velocity": 0.61,
      "hand": "left"
    },
    {
      "midi": 62,
      "time": 14.25,
      "duration": 0.3,
      "velocity": 0.67,
      "hand": "right"
    },
    {
      "midi": 69,
      "time": 14.25,
      "duration": 0.6,
      "velocity": 0.53,
      "hand": "right"
    },
    {
      "midi": 60,
      "time": 14.55,
      "duration": 0.3,
      "velocity": 0.54,
      "hand": "right"
    },
    {
      "midi": 43,
      "time": 14.85,
      "duration": 0.6,
      "velocity": 0.6,
      "hand": "left"
    },
    {
      "midi": 55,
      "time": 14.85,
      "duration": 0.6,
      "velocity": 0.6,
      "hand": "left"
    },
    {
      "midi": 67,
      "time": 14.85,
      "duration": 0.6,
      "velocity": 0.61,
      "hand": "right"
    },
    {
      "midi": 45,
      "time": 15.45,
      "duration": 0.6,
      "velocity": 0.57,
      "hand": "left"
    },
    {
      "midi": 52,
      "time": 15.45,
      "duration": 0.585,
      "velocity": 0.57,
      "hand": "left"
    },
    {
      "midi": 60,
      "time": 15.45,
      "duration": 0.6,
      "velocity": 0.66,
      "hand": "right"
    },
    {
      "midi": 72,
      "time": 15.45,
      "duration": 0.6,
      "velocity": 0.66,
      "hand": "right"
    },
    {
      "midi": 52,
      "time": 16.05,
      "duration": 0.6,
      "velocity": 0.62,
      "hand": "left"
    },
    {
      "midi": 55,
      "time": 16.05,
      "duration": 0.6,
      "velocity": 0.62,
      "hand": "left"
    },
    {
      "midi": 64,
      "time": 16.05,
      "duration": 0.6,
      "velocity": 0.59,
      "hand": "right"
    },
    {
      "midi": 71,
      "time": 16.05,
      "duration": 0.6,
      "velocity": 0.59,
      "hand": "right"
    },
    {
      "midi": 53,
      "time": 16.65,
      "duration": 0.6,
      "velocity": 0.56,
      "hand": "left"
    },
    {
      "midi": 60,
      "time": 16.65,
      "duration": 0.585,
      "velocity": 0.55,
      "hand": "right"
    },
    {
      "midi": 69,
      "time": 16.65,
      "duration": 0.6,
      "velocity": 0.55,
      "hand": "right"
    },
    {
      "midi": 48,
      "time": 17.25,
      "duration": 0.6,
      "velocity": 0.59,
      "hand": "left"
    },
    {
      "midi": 52,
      "time": 17.25,
      "duration": 0.585,
      "velocity": 0.59,
      "hand": "left"
    },
    {
      "midi": 60,
      "time": 17.25,
      "duration": 0.585,
      "velocity": 0.54,
      "hand": "right"
    },
    {
      "midi": 67,
      "time": 17.25,
      "duration": 0.6,
      "velocity": 0.54,
      "hand": "right"
    },
    {
      "midi": 45,
      "time": 17.85,
      "duration": 0.6,
      "velocity": 0.59,
      "hand": "left"
    },
    {
      "midi": 52,
      "time": 17.85,
      "duration": 0.6,
      "velocity": 0.59,
      "hand": "left"
    },
    {
      "midi": 60,
      "time": 17.85,
      "duration": 0.6,
      "velocity": 0.64,
      "hand": "right"
    },
    {
      "midi": 69,
      "time": 17.85,
      "duration": 0.6,
      "velocity": 0.64,
      "hand": "right"
    },
    {
      "midi": 50,
      "time": 18.45,
      "duration": 0.6,
      "velocity": 0.57,
      "hand": "left"
    },
    {
      "midi": 53,
      "time": 18.45,
      "duration": 0.6,
      "velocity": 0.57,
      "hand": "left"
    },
    {
      "midi": 65,
      "time": 18.45,
      "duration": 0.3,
      "velocity": 0.54,
      "hand": "right"
    },
    {
      "midi": 64,
      "time": 18.75,
      "duration": 0.3,
      "velocity": 0.57,
      "hand": "right"
    },
    {
      "midi": 43,
      "time": 19.05,
      "duration": 0.6,
      "velocity": 0.54,
      "hand": "left"
    },
    {
      "midi": 55,
      "time": 19.05,
      "duration": 0.3,
      "velocity": 0.61,
      "hand": "left"
    },
    {
      "midi": 62,
      "time": 19.05,
      "duration": 0.6,
      "velocity": 0.54,
      "hand": "right"
    },
    {
      "midi": 53,
      "time": 19.35,
      "duration": 0.3,
      "velocity": 0.61,
      "hand": "left"
    },
    {
      "midi": 48,
      "time": 19.65,
      "duration": 1.65,
      "velocity": 0.59,
      "hand": "left"
    },
    {
      "midi": 52,
      "time": 19.65,
      "duration": 1.65,
      "velocity": 0.59,
      "hand": "left"
    },
    {
      "midi": 60,
      "time": 19.65,
      "duration": 1.65,
      "velocity": 0.55,
      "hand": "right"
    },
    {
      "midi": 48,
      "time": 21.45,
      "duration": 0.585,
      "velocity": 0.65,
      "hand": "left"
    },
    {
      "midi": 52,
      "time": 21.45,
      "duration": 0.6,
      "velocity": 0.65,
      "hand": "left"
    },
    {
      "midi": 60,
      "time": 21.45,
      "duration": 0.6,
      "velocity": 0.59,
      "hand": "right"
    },
    {
      "midi": 48,
      "time": 22.05,
      "duration": 0.6,
      "velocity": 0.64,
      "hand": "left"
    },
    {
      "midi": 55,
      "time": 22.05,
      "duration": 0.6,
      "velocity": 0.64,
      "hand": "left"
    },
    {
      "midi": 64,
      "time": 22.05,
      "duration": 0.585,
      "velocity": 0.7,
      "hand": "right"
    },
    {
      "midi": 67,
      "time": 22.05,
      "duration": 0.6,
      "velocity": 0.7,
      "hand": "right"
    },
    {
      "midi": 45,
      "time": 22.65,
      "duration": 0.6,
      "velocity": 0.69,
      "hand": "left"
    },
    {
      "midi": 60,
      "time": 22.65,
      "duration": 0.6,
      "velocity": 0.69,
      "hand": "right"
    },
    {
      "midi": 64,
      "time": 22.65,
      "duration": 0.6,
      "velocity": 0.65,
      "hand": "right"
    },
    {
      "midi": 69,
      "time": 22.65,
      "duration": 0.6,
      "velocity": 0.65,
      "hand": "right"
    },
    {
      "midi": 47,
      "time": 23.25,
      "duration": 0.3,
      "velocity": 0.55,
      "hand": "left"
    },
    {
      "midi": 59,
      "time": 23.25,
      "duration": 0.6,
      "velocity": 0.55,
      "hand": "left"
    },
    {
      "midi": 62,
      "time": 23.25,
      "duration": 0.585,
      "velocity": 0.57,
      "hand": "right"
    },
    {
      "midi": 67,
      "time": 23.25,
      "duration": 0.6,
      "velocity": 0.57,
      "hand": "right"
    },
    {
      "midi": 48,
      "time": 23.55,
      "duration": 0.3,
      "velocity": 0.57,
      "hand": "left"
    },
    {
      "midi": 50,
      "time": 23.85,
      "duration": 0.6,
      "velocity": 0.56,
      "hand": "left"
    },
    {
      "midi": 57,
      "time": 23.85,
      "duration": 0.6,
      "velocity": 0.56,
      "hand": "left"
    },
    {
      "midi": 62,
      "time": 23.85,
      "duration": 0.3,
      "velocity": 0.55,
      "hand": "right"
    },
    {
      "midi": 66,
      "time": 23.85,
      "duration": 0.6,
      "velocity": 0.54,
      "hand": "right"
    },
    {
      "midi": 60,
      "time": 24.15,
      "duration": 0.3,
      "velocity": 0.57,
      "hand": "right"
    },
    {
      "midi": 43,
      "time": 24.45,
      "duration": 1.8,
      "velocity": 0.58,
      "hand": "left"
    },
    {
      "midi": 55,
      "time": 24.45,
      "duration": 1.8,
      "velocity": 0.58,
      "hand": "left"
    },
    {
      "midi": 67,
      "time": 24.45,
      "duration": 1.8,
      "velocity": 0.58,
      "hand": "right"
    },
    {
      "midi": 48,
      "time": 26.25,
      "duration": 0.6,
      "velocity": 0.55,
      "hand": "left"
    },
    {
      "midi": 52,
      "time": 26.25,
      "duration": 0.6,
      "velocity": 0.55,
      "hand": "left"
    },
    {
      "midi": 60,
      "time": 26.25,
      "duration": 0.6,
      "velocity": 0.49,
      "hand": "right"
    },
    {
      "midi": 47,
      "time": 26.85,
      "duration": 0.6,
      "velocity": 0.65,
      "hand": "left"
    },
    {
      "midi": 55,
      "time": 26.85,
      "duration": 0.585,
      "velocity": 0.65,
      "hand": "left"
    },
    {
      "midi": 62,
      "time": 26.85,
      "duration": 0.6,
      "velocity": 0.65,
      "hand": "right"
    },
    {
      "midi": 67,
      "time": 26.85,
      "duration": 0.585,
      "velocity": 0.65,
      "hand": "right"
    },
    {
      "midi": 48,
      "time": 27.45,
      "duration": 0.6,
      "velocity": 0.59,
      "hand": "left"
    },
    {
      "midi": 55,
      "time": 27.45,
      "duration": 0.6,
      "velocity": 0.59,
      "hand": "left"
    },
    {
      "midi": 64,
      "time": 27.45,
      "duration": 0.6,
      "velocity": 0.57,
      "hand": "right"
    },
    {
      "midi": 67,
      "time": 27.45,
      "duration": 0.6,
      "velocity": 0.57,
      "hand": "right"
    },
    {
      "midi": 53,
      "time": 28.05,
      "duration": 0.585,
      "velocity": 0.6,
      "hand": "left"
    },
    {
      "midi": 60,
      "time": 28.05,
      "duration": 0.6,
      "velocity": 0.63,
      "hand": "right"
    },
    {
      "midi": 69,
      "time": 28.05,
      "duration": 0.6,
      "velocity": 0.63,
      "hand": "right"
    },
    {
      "midi": 50,
      "time": 28.65,
      "duration": 0.6,
      "velocity": 0.6,
      "hand": "left"
    },
    {
      "midi": 53,
      "time": 28.65,
      "duration": 0.6,
      "velocity": 0.6,
      "hand": "left"
    },
    {
      "midi": 62,
      "time": 28.65,
      "duration": 0.6,
      "velocity": 0.64,
      "hand": "right"
    },
    {
      "midi": 71,
      "time": 28.65,
      "duration": 0.6,
      "velocity": 0.64,
      "hand": "right"
    },
    {
      "midi": 45,
      "time": 29.25,
      "duration": 1.8,
      "velocity": 0.61,
      "hand": "left"
    },
    {
      "midi": 52,
      "time": 29.25,
      "duration": 1.8,
      "velocity": 0.61,
      "hand": "left"
    },
    {
      "midi": 60,
      "time": 29.25,
      "duration": 1.8,
      "velocity": 0.61,
      "hand": "right"
    },
    {
      "midi": 72,
      "time": 29.25,
      "duration": 1.8,
      "velocity": 0.61,
      "hand": "right"
    },
    {
      "midi": 44,
      "time": 31.05,
      "duration": 0.6,
      "velocity": 0.66,
      "hand": "left"
    },
    {
      "midi": 59,
      "time": 31.05,
      "duration": 0.6,
      "velocity": 0.66,
      "hand": "left"
    },
    {
      "midi": 64,
      "time": 31.05,
      "duration": 0.585,
      "velocity": 0.57,
      "hand": "right"
    },
    {
      "midi": 71,
      "time": 31.05,
      "duration": 0.6,
      "velocity": 0.57,
      "hand": "right"
    },
    {
      "midi": 45,
      "time": 31.65,
      "duration": 0.6,
      "velocity": 0.55,
      "hand": "left"
    },
    {
      "midi": 57,
      "time": 31.65,
      "duration": 0.6,
      "velocity": 0.55,
      "hand": "left"
    },
    {
      "midi": 64,
      "time": 31.65,
      "duration": 0.585,
      "velocity": 0.63,
      "hand": "right"
    },
    {
      "midi": 72,
      "time": 31.65,
      "duration": 0.6,
      "velocity": 0.63,
      "hand": "right"
    },
    {
      "midi": 47,
      "time": 32.25,
      "duration": 0.6,
      "velocity": 0.56,
      "hand": "left"
    },
    {
      "midi": 56,
      "time": 32.25,
      "duration": 0.6,
      "velocity": 0.56,
      "hand": "left"
    },
    {
      "midi": 64,
      "time": 32.25,
      "duration": 0.585,
      "velocity": 0.59,
      "hand": "right"
    },
    {
      "midi": 71,
      "time": 32.25,
      "duration": 0.6,
      "velocity": 0.59,
      "hand": "right"
    },
    {
      "midi": 48,
      "time": 32.85,
      "duration": 0.6,
      "velocity": 0.59,
      "hand": "left"
    },
    {
      "midi": 57,
      "time": 32.85,
      "duration": 0.6,
      "velocity": 0.59,
      "hand": "left"
    },
    {
      "midi": 64,
      "time": 32.85,
      "duration": 0.6,
      "velocity": 0.54,
      "hand": "right"
    },
    {
      "midi": 69,
      "time": 32.85,
      "duration": 0.585,
      "velocity": 0.54,
      "hand": "right"
    },
    {
      "midi": 50,
      "time": 33.45,
      "duration": 0.6,
      "velocity": 0.59,
      "hand": "left"
    },
    {
      "midi": 54,
      "time": 33.45,
      "duration": 0.6,
      "velocity": 0.59,
      "hand": "left"
    },
    {
      "midi": 62,
      "time": 33.45,
      "duration": 0.3,
      "velocity": 0.54,
      "hand": "right"
    },
    {
      "midi": 69,
      "time": 33.45,
      "duration": 0.6,
      "velocity": 0.58,
      "hand": "right"
    },
    {
      "midi": 60,
      "time": 33.75,
      "duration": 0.3,
      "velocity": 0.53,
      "hand": "right"
    },
    {
      "midi": 43,
      "time": 34.05,
      "duration": 1.8,
      "velocity": 0.65,
      "hand": "left"
    },
    {
      "midi": 55,
      "time": 34.05,
      "duration": 1.8,
      "velocity": 0.65,
      "hand": "left"
    },
    {
      "midi": 67,
      "time": 34.05,
      "duration": 1.8,
      "velocity": 0.58,
      "hand": "right"
    },
    {
      "midi": 41,
      "time": 35.85,
      "duration": 0.6,
      "velocity": 0.68,
      "hand": "left"
    },
    {
      "midi": 60,
      "time": 35.85,
      "duration": 0.585,
      "velocity": 0.57,
      "hand": "right"
    },
    {
      "midi": 69,
      "time": 35.85,
      "duration": 0.585,
      "velocity": 0.57,
      "hand": "right"
    },
    {
      "midi": 45,
      "time": 36.45,
      "duration": 0.6,
      "velocity": 0.61,
      "hand": "left"
    },
    {
      "midi": 60,
      "time": 36.45,
      "duration": 0.585,
      "velocity": 0.61,
      "hand": "right"
    },
    {
      "midi": 65,
      "time": 36.45,
      "duration": 0.6,
      "velocity": 0.58,
      "hand": "right"
    },
    {
      "midi": 69,
      "time": 36.45,
      "duration": 0.6,
      "velocity": 0.58,
      "hand": "right"
    },
    {
      "midi": 48,
      "time": 37.05,
      "duration": 0.6,
      "velocity": 0.53,
      "hand": "left"
    },
    {
      "midi": 60,
      "time": 37.05,
      "duration": 0.3,
      "velocity": 0.61,
      "hand": "right"
    },
    {
      "midi": 64,
      "time": 37.05,
      "duration": 0.585,
      "velocity": 0.54,
      "hand": "right"
    },
    {
      "midi": 67,
      "time": 37.05,
      "duration": 0.6,
      "velocity": 0.54,
      "hand": "right"
    },
    {
      "midi": 59,
      "time": 37.35,
      "duration": 0.3,
      "velocity": 0.57,
      "hand": "left"
    },
    {
      "midi": 49,
      "time": 37.65,
      "duration": 0.6,
      "velocity": 0.57,
      "hand": "left"
    },
    {
      "midi": 57,
      "time": 37.65,
      "duration": 0.585,
      "velocity": 0.57,
      "hand": "left"
    },
    {
      "midi": 64,
      "time": 37.65,
      "duration": 0.6,
      "velocity": 0.64,
      "hand": "right"
    },
    {
      "midi": 69,
      "time": 37.65,
      "duration": 0.6,
      "velocity": 0.64,
      "hand": "right"
    },
    {
      "midi": 50,
      "time": 38.25,
      "duration": 0.6,
      "velocity": 0.57,
      "hand": "left"
    },
    {
      "midi": 57,
      "time": 38.25,
      "duration": 0.6,
      "velocity": 0.57,
      "hand": "left"
    },
    {
      "midi": 62,
      "time": 38.25,
      "duration": 0.6,
      "velocity": 0.52,
      "hand": "right"
    },
    {
      "midi": 65,
      "time": 38.25,
      "duration": 0.6,
      "velocity": 0.52,
      "hand": "right"
    },
    {
      "midi": 52,
      "time": 38.85,
      "duration": 1.8,
      "velocity": 0.56,
      "hand": "left"
    },
    {
      "midi": 56,
      "time": 38.85,
      "duration": 1.8,
      "velocity": 0.56,
      "hand": "left"
    },
    {
      "midi": 64,
      "time": 38.85,
      "duration": 1.8,
      "velocity": 0.54,
      "hand": "right"
    },
    {
      "midi": 45,
      "time": 40.65,
      "duration": 0.6,
      "velocity": 0.6,
      "hand": "left"
    },
    {
      "midi": 57,
      "time": 40.65,
      "duration": 0.6,
      "velocity": 0.6,
      "hand": "left"
    },
    {
      "midi": 60,
      "time": 40.65,
      "duration": 0.6,
      "velocity": 0.73,
      "hand": "right"
    },
    {
      "midi": 72,
      "time": 40.65,
      "duration": 0.6,
      "velocity": 0.73,
      "hand": "right"
    },
    {
      "midi": 52,
      "time": 41.25,
      "duration": 0.6,
      "velocity": 0.6,
      "hand": "left"
    },
    {
      "midi": 55,
      "time": 41.25,
      "duration": 0.6,
      "velocity": 0.6,
      "hand": "left"
    },
    {
      "midi": 64,
      "time": 41.25,
      "duration": 0.6,
      "velocity": 0.59,
      "hand": "right"
    },
    {
      "midi": 71,
      "time": 41.25,
      "duration": 0.6,
      "velocity": 0.59,
      "hand": "right"
    },
    {
      "midi": 53,
      "time": 41.85,
      "duration": 0.6,
      "velocity": 0.61,
      "hand": "left"
    },
    {
      "midi": 57,
      "time": 41.85,
      "duration": 0.6,
      "velocity": 0.61,
      "hand": "left"
    },
    {
      "midi": 60,
      "time": 41.85,
      "duration": 0.585,
      "velocity": 0.57,
      "hand": "right"
    },
    {
      "midi": 69,
      "time": 41.85,
      "duration": 0.6,
      "velocity": 0.57,
      "hand": "right"
    },
    {
      "midi": 48,
      "time": 42.45,
      "duration": 0.6,
      "velocity": 0.65,
      "hand": "left"
    },
    {
      "midi": 60,
      "time": 42.45,
      "duration": 0.585,
      "velocity": 0.65,
      "hand": "right"
    },
    {
      "midi": 64,
      "time": 42.45,
      "duration": 0.585,
      "velocity": 0.54,
      "hand": "right"
    },
    {
      "midi": 67,
      "time": 42.45,
      "duration": 0.6,
      "velocity": 0.54,
      "hand": "right"
    },
    {
      "midi": 45,
      "time": 43.05,
      "duration": 0.6,
      "velocity": 0.63,
      "hand": "left"
    },
    {
      "midi": 60,
      "time": 43.05,
      "duration": 0.6,
      "velocity": 0.63,
      "hand": "right"
    },
    {
      "midi": 64,
      "time": 43.05,
      "duration": 0.6,
      "velocity": 0.6,
      "hand": "right"
    },
    {
      "midi": 69,
      "time": 43.05,
      "duration": 0.6,
      "velocity": 0.6,
      "hand": "right"
    },
    {
      "midi": 50,
      "time": 43.65,
      "duration": 0.6,
      "velocity": 0.54,
      "hand": "left"
    },
    {
      "midi": 53,
      "time": 43.65,
      "duration": 0.6,
      "velocity": 0.54,
      "hand": "left"
    },
    {
      "midi": 65,
      "time": 43.65,
      "duration": 0.3,
      "velocity": 0.52,
      "hand": "right"
    },
    {
      "midi": 64,
      "time": 43.95,
      "duration": 0.3,
      "velocity": 0.55,
      "hand": "right"
    },
    {
      "midi": 43,
      "time": 44.25,
      "duration": 0.6,
      "velocity": 0.54,
      "hand": "left"
    },
    {
      "midi": 55,
      "time": 44.25,
      "duration": 0.3,
      "velocity": 0.6,
      "hand": "left"
    },
    {
      "midi": 62,
      "time": 44.25,
      "duration": 0.6,
      "velocity": 0.53,
      "hand": "right"
    },
    {
      "midi": 53,
      "time": 44.55,
      "duration": 0.3,
      "velocity": 0.59,
      "hand": "left"
    },
    {
      "midi": 48,
      "time": 44.85,
      "duration": 1.65,
      "velocity": 0.58,
      "hand": "left"
    },
    {
      "midi": 52,
      "time": 44.85,
      "duration": 1.65,
      "velocity": 0.58,
      "hand": "left"
    },
    {
      "midi": 60,
      "time": 44.85,
      "duration": 1.65,
      "velocity": 0.57,
      "hand": "right"
    }
  ],
  "arrangements": {
    "easy": [
      {
        "midi": 72,
        "time": 0,
        "duration": 0.585,
        "velocity": 0.54,
        "hand": "right"
      },
      {
        "midi": 72,
        "time": 0.6,
        "duration": 0.585,
        "velocity": 0.58,
        "hand": "right"
      },
      {
        "midi": 72,
        "time": 1.2,
        "duration": 0.6,
        "velocity": 0.61,
        "hand": "right"
      },
      {
        "midi": 67,
        "time": 1.8,
        "duration": 0.36,
        "velocity": 0.46,
        "hand": "right"
      },
      {
        "midi": 71,
        "time": 2.4,
        "duration": 0.6,
        "velocity": 0.65,
        "hand": "right"
      },
      {
        "midi": 72,
        "time": 3,
        "duration": 0.36,
        "velocity": 0.62,
        "hand": "right"
      },
      {
        "midi": 69,
        "time": 3.6,
        "duration": 0.6,
        "velocity": 0.54,
        "hand": "right"
      },
      {
        "midi": 67,
        "time": 4.2,
        "duration": 0.6,
        "velocity": 0.56,
        "hand": "right"
      },
      {
        "midi": 72,
        "time": 4.8,
        "duration": 0.6,
        "velocity": 0.68,
        "hand": "right"
      },
      {
        "midi": 71,
        "time": 5.4,
        "duration": 0.6,
        "velocity": 0.58,
        "hand": "right"
      },
      {
        "midi": 69,
        "time": 6,
        "duration": 0.6,
        "velocity": 0.57,
        "hand": "right"
      },
      {
        "midi": 67,
        "time": 6.6,
        "duration": 0.6,
        "velocity": 0.54,
        "hand": "right"
      },
      {
        "midi": 69,
        "time": 7.2,
        "duration": 0.6,
        "velocity": 0.62,
        "hand": "right"
      },
      {
        "midi": 65,
        "time": 7.8,
        "duration": 0.36,
        "velocity": 0.53,
        "hand": "right"
      },
      {
        "midi": 62,
        "time": 8.4,
        "duration": 0.6,
        "velocity": 0.59,
        "hand": "right"
      },
      {
        "midi": 60,
        "time": 9,
        "duration": 1.65,
        "velocity": 0.51,
        "hand": "right"
      },
      {
        "midi": 72,
        "time": 10.65,
        "duration": 0.585,
        "velocity": 0.72,
        "hand": "right"
      },
      {
        "midi": 72,
        "time": 11.25,
        "duration": 0.585,
        "velocity": 0.63,
        "hand": "right"
      },
      {
        "midi": 72,
        "time": 11.85,
        "duration": 0.6,
        "velocity": 0.61,
        "hand": "right"
      },
      {
        "midi": 67,
        "time": 12.45,
        "duration": 0.36,
        "velocity": 0.5,
        "hand": "right"
      },
      {
        "midi": 71,
        "time": 13.05,
        "duration": 0.6,
        "velocity": 0.65,
        "hand": "right"
      },
      {
        "midi": 72,
        "time": 13.65,
        "duration": 0.36,
        "velocity": 0.58,
        "hand": "right"
      },
      {
        "midi": 69,
        "time": 14.25,
        "duration": 0.6,
        "velocity": 0.53,
        "hand": "right"
      },
      {
        "midi": 67,
        "time": 14.85,
        "duration": 0.6,
        "velocity": 0.61,
        "hand": "right"
      },
      {
        "midi": 72,
        "time": 15.45,
        "duration": 0.6,
        "velocity": 0.66,
        "hand": "right"
      },
      {
        "midi": 71,
        "time": 16.05,
        "duration": 0.6,
        "velocity": 0.59,
        "hand": "right"
      },
      {
        "midi": 69,
        "time": 16.65,
        "duration": 0.6,
        "velocity": 0.55,
        "hand": "right"
      },
      {
        "midi": 67,
        "time": 17.25,
        "duration": 0.6,
        "velocity": 0.54,
        "hand": "right"
      },
      {
        "midi": 69,
        "time": 17.85,
        "duration": 0.6,
        "velocity": 0.64,
        "hand": "right"
      },
      {
        "midi": 65,
        "time": 18.45,
        "duration": 0.36,
        "velocity": 0.54,
        "hand": "right"
      },
      {
        "midi": 62,
        "time": 19.05,
        "duration": 0.6,
        "velocity": 0.54,
        "hand": "right"
      },
      {
        "midi": 60,
        "time": 19.65,
        "duration": 1.65,
        "velocity": 0.55,
        "hand": "right"
      },
      {
        "midi": 60,
        "time": 21.45,
        "duration": 0.6,
        "velocity": 0.59,
        "hand": "right"
      },
      {
        "midi": 67,
        "time": 22.05,
        "duration": 0.6,
        "velocity": 0.7,
        "hand": "right"
      },
      {
        "midi": 69,
        "time": 22.65,
        "duration": 0.6,
        "velocity": 0.65,
        "hand": "right"
      },
      {
        "midi": 67,
        "time": 23.25,
        "duration": 0.6,
        "velocity": 0.57,
        "hand": "right"
      },
      {
        "midi": 66,
        "time": 23.85,
        "duration": 0.6,
        "velocity": 0.54,
        "hand": "right"
      },
      {
        "midi": 67,
        "time": 24.45,
        "duration": 1.8,
        "velocity": 0.58,
        "hand": "right"
      },
      {
        "midi": 60,
        "time": 26.25,
        "duration": 0.6,
        "velocity": 0.49,
        "hand": "right"
      },
      {
        "midi": 67,
        "time": 26.85,
        "duration": 0.585,
        "velocity": 0.65,
        "hand": "right"
      },
      {
        "midi": 67,
        "time": 27.45,
        "duration": 0.6,
        "velocity": 0.57,
        "hand": "right"
      },
      {
        "midi": 69,
        "time": 28.05,
        "duration": 0.6,
        "velocity": 0.63,
        "hand": "right"
      },
      {
        "midi": 71,
        "time": 28.65,
        "duration": 0.6,
        "velocity": 0.64,
        "hand": "right"
      },
      {
        "midi": 72,
        "time": 29.25,
        "duration": 1.8,
        "velocity": 0.61,
        "hand": "right"
      },
      {
        "midi": 71,
        "time": 31.05,
        "duration": 0.6,
        "velocity": 0.57,
        "hand": "right"
      },
      {
        "midi": 72,
        "time": 31.65,
        "duration": 0.6,
        "velocity": 0.63,
        "hand": "right"
      },
      {
        "midi": 71,
        "time": 32.25,
        "duration": 0.6,
        "velocity": 0.59,
        "hand": "right"
      },
      {
        "midi": 69,
        "time": 32.85,
        "duration": 0.585,
        "velocity": 0.54,
        "hand": "right"
      },
      {
        "midi": 69,
        "time": 33.45,
        "duration": 0.6,
        "velocity": 0.58,
        "hand": "right"
      },
      {
        "midi": 67,
        "time": 34.05,
        "duration": 1.8,
        "velocity": 0.58,
        "hand": "right"
      },
      {
        "midi": 69,
        "time": 35.85,
        "duration": 0.585,
        "velocity": 0.57,
        "hand": "right"
      },
      {
        "midi": 69,
        "time": 36.45,
        "duration": 0.6,
        "velocity": 0.58,
        "hand": "right"
      },
      {
        "midi": 67,
        "time": 37.05,
        "duration": 0.6,
        "velocity": 0.54,
        "hand": "right"
      },
      {
        "midi": 69,
        "time": 37.65,
        "duration": 0.6,
        "velocity": 0.64,
        "hand": "right"
      },
      {
        "midi": 65,
        "time": 38.25,
        "duration": 0.6,
        "velocity": 0.52,
        "hand": "right"
      },
      {
        "midi": 64,
        "time": 38.85,
        "duration": 1.8,
        "velocity": 0.54,
        "hand": "right"
      },
      {
        "midi": 72,
        "time": 40.65,
        "duration": 0.6,
        "velocity": 0.73,
        "hand": "right"
      },
      {
        "midi": 71,
        "time": 41.25,
        "duration": 0.6,
        "velocity": 0.59,
        "hand": "right"
      },
      {
        "midi": 69,
        "time": 41.85,
        "duration": 0.6,
        "velocity": 0.57,
        "hand": "right"
      },
      {
        "midi": 67,
        "time": 42.45,
        "duration": 0.6,
        "velocity": 0.54,
        "hand": "right"
      },
      {
        "midi": 69,
        "time": 43.05,
        "duration": 0.6,
        "velocity": 0.6,
        "hand": "right"
      },
      {
        "midi": 65,
        "time": 43.65,
        "duration": 0.36,
        "velocity": 0.52,
        "hand": "right"
      },
      {
        "midi": 62,
        "time": 44.25,
        "duration": 0.6,
        "velocity": 0.53,
        "hand": "right"
      },
      {
        "midi": 60,
        "time": 44.85,
        "duration": 1.65,
        "velocity": 0.57,
        "hand": "right"
      }
    ],
    "medium": [
      {
        "midi": 72,
        "time": 0,
        "duration": 0.585,
        "velocity": 0.54,
        "hand": "right"
      },
      {
        "midi": 72,
        "time": 1.2,
        "duration": 0.6,
        "velocity": 0.61,
        "hand": "right"
      },
      {
        "midi": 69,
        "time": 2.1,
        "duration": 0.3,
        "velocity": 0.64,
        "hand": "right"
      },
      {
        "midi": 57,
        "time": 3,
        "duration": 0.6,
        "velocity": 0.61,
        "hand": "left"
      },
      {
        "midi": 72,
        "time": 3,
        "duration": 0.3,
        "velocity": 0.62,
        "hand": "right"
      },
      {
        "midi": 60,
        "time": 3.9,
        "duration": 0.3,
        "velocity": 0.59,
        "hand": "right"
      },
      {
        "midi": 57,
        "time": 4.8,
        "duration": 0.6,
        "velocity": 0.57,
        "hand": "left"
      },
      {
        "midi": 72,
        "time": 4.8,
        "duration": 0.6,
        "velocity": 0.68,
        "hand": "right"
      },
      {
        "midi": 53,
        "time": 6,
        "duration": 0.6,
        "velocity": 0.6,
        "hand": "left"
      },
      {
        "midi": 69,
        "time": 6,
        "duration": 0.6,
        "velocity": 0.57,
        "hand": "right"
      },
      {
        "midi": 57,
        "time": 7.2,
        "duration": 0.6,
        "velocity": 0.59,
        "hand": "left"
      },
      {
        "midi": 69,
        "time": 7.2,
        "duration": 0.6,
        "velocity": 0.62,
        "hand": "right"
      },
      {
        "midi": 64,
        "time": 8.1,
        "duration": 0.3,
        "velocity": 0.57,
        "hand": "right"
      },
      {
        "midi": 48,
        "time": 9,
        "duration": 1.635,
        "velocity": 0.54,
        "hand": "left"
      },
      {
        "midi": 60,
        "time": 9,
        "duration": 1.65,
        "velocity": 0.51,
        "hand": "right"
      },
      {
        "midi": 72,
        "time": 10.65,
        "duration": 0.585,
        "velocity": 0.72,
        "hand": "right"
      },
      {
        "midi": 72,
        "time": 11.85,
        "duration": 0.6,
        "velocity": 0.61,
        "hand": "right"
      },
      {
        "midi": 69,
        "time": 12.75,
        "duration": 0.3,
        "velocity": 0.61,
        "hand": "right"
      },
      {
        "midi": 57,
        "time": 13.65,
        "duration": 0.6,
        "velocity": 0.57,
        "hand": "left"
      },
      {
        "midi": 72,
        "time": 13.65,
        "duration": 0.3,
        "velocity": 0.58,
        "hand": "right"
      },
      {
        "midi": 60,
        "time": 14.55,
        "duration": 0.3,
        "velocity": 0.54,
        "hand": "right"
      },
      {
        "midi": 57,
        "time": 15.45,
        "duration": 0.6,
        "velocity": 0.57,
        "hand": "left"
      },
      {
        "midi": 72,
        "time": 15.45,
        "duration": 0.6,
        "velocity": 0.66,
        "hand": "right"
      },
      {
        "midi": 53,
        "time": 16.65,
        "duration": 0.6,
        "velocity": 0.56,
        "hand": "left"
      },
      {
        "midi": 69,
        "time": 16.65,
        "duration": 0.6,
        "velocity": 0.55,
        "hand": "right"
      },
      {
        "midi": 57,
        "time": 17.85,
        "duration": 0.6,
        "velocity": 0.59,
        "hand": "left"
      },
      {
        "midi": 69,
        "time": 17.85,
        "duration": 0.6,
        "velocity": 0.64,
        "hand": "right"
      },
      {
        "midi": 64,
        "time": 18.75,
        "duration": 0.3,
        "velocity": 0.57,
        "hand": "right"
      },
      {
        "midi": 48,
        "time": 19.65,
        "duration": 1.65,
        "velocity": 0.59,
        "hand": "left"
      },
      {
        "midi": 60,
        "time": 19.65,
        "duration": 1.65,
        "velocity": 0.55,
        "hand": "right"
      },
      {
        "midi": 48,
        "time": 21.45,
        "duration": 0.585,
        "velocity": 0.65,
        "hand": "left"
      },
      {
        "midi": 60,
        "time": 21.45,
        "duration": 0.6,
        "velocity": 0.59,
        "hand": "right"
      },
      {
        "midi": 57,
        "time": 22.65,
        "duration": 0.6,
        "velocity": 0.69,
        "hand": "left"
      },
      {
        "midi": 69,
        "time": 22.65,
        "duration": 0.6,
        "velocity": 0.65,
        "hand": "right"
      },
      {
        "midi": 48,
        "time": 23.55,
        "duration": 0.3,
        "velocity": 0.57,
        "hand": "left"
      },
      {
        "midi": 55,
        "time": 24.45,
        "duration": 1.8,
        "velocity": 0.58,
        "hand": "left"
      },
      {
        "midi": 67,
        "time": 24.45,
        "duration": 1.8,
        "velocity": 0.58,
        "hand": "right"
      },
      {
        "midi": 48,
        "time": 26.25,
        "duration": 0.6,
        "velocity": 0.55,
        "hand": "left"
      },
      {
        "midi": 60,
        "time": 26.25,
        "duration": 0.6,
        "velocity": 0.49,
        "hand": "right"
      },
      {
        "midi": 67,
        "time": 27.45,
        "duration": 0.6,
        "velocity": 0.57,
        "hand": "right"
      },
      {
        "midi": 71,
        "time": 28.65,
        "duration": 0.6,
        "velocity": 0.64,
        "hand": "right"
      },
      {
        "midi": 56,
        "time": 31.05,
        "duration": 0.6,
        "velocity": 0.66,
        "hand": "left"
      },
      {
        "midi": 71,
        "time": 31.05,
        "duration": 0.6,
        "velocity": 0.57,
        "hand": "right"
      },
      {
        "midi": 59,
        "time": 32.25,
        "duration": 0.6,
        "velocity": 0.56,
        "hand": "left"
      },
      {
        "midi": 71,
        "time": 32.25,
        "duration": 0.6,
        "velocity": 0.59,
        "hand": "right"
      },
      {
        "midi": 69,
        "time": 33.45,
        "duration": 0.6,
        "velocity": 0.58,
        "hand": "right"
      },
      {
        "midi": 53,
        "time": 35.85,
        "duration": 0.6,
        "velocity": 0.68,
        "hand": "left"
      },
      {
        "midi": 69,
        "time": 35.85,
        "duration": 0.585,
        "velocity": 0.57,
        "hand": "right"
      },
      {
        "midi": 67,
        "time": 37.05,
        "duration": 0.6,
        "velocity": 0.54,
        "hand": "right"
      },
      {
        "midi": 50,
        "time": 38.25,
        "duration": 0.6,
        "velocity": 0.57,
        "hand": "left"
      },
      {
        "midi": 65,
        "time": 38.25,
        "duration": 0.6,
        "velocity": 0.52,
        "hand": "right"
      },
      {
        "midi": 57,
        "time": 40.65,
        "duration": 0.6,
        "velocity": 0.6,
        "hand": "left"
      },
      {
        "midi": 72,
        "time": 40.65,
        "duration": 0.6,
        "velocity": 0.73,
        "hand": "right"
      },
      {
        "midi": 53,
        "time": 41.85,
        "duration": 0.6,
        "velocity": 0.61,
        "hand": "left"
      },
      {
        "midi": 69,
        "time": 41.85,
        "duration": 0.6,
        "velocity": 0.57,
        "hand": "right"
      },
      {
        "midi": 57,
        "time": 43.05,
        "duration": 0.6,
        "velocity": 0.63,
        "hand": "left"
      },
      {
        "midi": 69,
        "time": 43.05,
        "duration": 0.6,
        "velocity": 0.6,
        "hand": "right"
      },
      {
        "midi": 64,
        "time": 43.95,
        "duration": 0.3,
        "velocity": 0.55,
        "hand": "right"
      },
      {
        "midi": 48,
        "time": 44.85,
        "duration": 1.65,
        "velocity": 0.58,
        "hand": "left"
      },
      {
        "midi": 60,
        "time": 44.85,
        "duration": 1.65,
        "velocity": 0.57,
        "hand": "right"
      }
    ],
    "hard": [
      {
        "midi": 48,
        "time": 0,
        "duration": 0.6,
        "velocity": 0.51,
        "hand": "left"
      },
      {
        "midi": 55,
        "time": 0,
        "duration": 0.585,
        "velocity": 0.51,
        "hand": "left"
      },
      {
        "midi": 64,
        "time": 0,
        "duration": 0.6,
        "velocity": 0.54,
        "hand": "right"
      },
      {
        "midi": 72,
        "time": 0,
        "duration": 0.585,
        "velocity": 0.54,
        "hand": "right"
      },
      {
        "midi": 52,
        "time": 0.6,
        "duration": 0.6,
        "velocity": 0.59,
        "hand": "left"
      },
      {
        "midi": 55,
        "time": 0.6,
        "duration": 0.585,
        "velocity": 0.59,
        "hand": "left"
      },
      {
        "midi": 60,
        "time": 0.6,
        "duration": 0.6,
        "velocity": 0.58,
        "hand": "right"
      },
      {
        "midi": 72,
        "time": 0.6,
        "duration": 0.585,
        "velocity": 0.58,
        "hand": "right"
      },
      {
        "midi": 48,
        "time": 1.2,
        "duration": 0.6,
        "velocity": 0.57,
        "hand": "left"
      },
      {
        "midi": 55,
        "time": 1.2,
        "duration": 0.585,
        "velocity": 0.57,
        "hand": "left"
      },
      {
        "midi": 64,
        "time": 1.2,
        "duration": 0.6,
        "velocity": 0.61,
        "hand": "right"
      },
      {
        "midi": 72,
        "time": 1.2,
        "duration": 0.6,
        "velocity": 0.61,
        "hand": "right"
      },
      {
        "midi": 55,
        "time": 1.8,
        "duration": 0.6,
        "velocity": 0.63,
        "hand": "left"
      },
      {
        "midi": 59,
        "time": 1.8,
        "duration": 0.585,
        "velocity": 0.63,
        "hand": "left"
      },
      {
        "midi": 62,
        "time": 1.8,
        "duration": 0.6,
        "velocity": 0.52,
        "hand": "right"
      },
      {
        "midi": 67,
        "time": 1.8,
        "duration": 0.3,
        "velocity": 0.46,
        "hand": "right"
      },
      {
        "midi": 69,
        "time": 2.1,
        "duration": 0.3,
        "velocity": 0.64,
        "hand": "right"
      },
      {
        "midi": 52,
        "time": 2.4,
        "duration": 0.6,
        "velocity": 0.62,
        "hand": "left"
      },
      {
        "midi": 59,
        "time": 2.4,
        "duration": 0.6,
        "velocity": 0.62,
        "hand": "left"
      },
      {
        "midi": 67,
        "time": 2.4,
        "duration": 0.6,
        "velocity": 0.65,
        "hand": "right"
      },
      {
        "midi": 71,
        "time": 2.4,
        "duration": 0.6,
        "velocity": 0.65,
        "hand": "right"
      },
      {
        "midi": 57,
        "time": 3,
        "duration": 0.6,
        "velocity": 0.61,
        "hand": "left"
      },
      {
        "midi": 64,
        "time": 3,
        "duration": 0.6,
        "velocity": 0.52,
        "hand": "right"
      },
      {
        "midi": 72,
        "time": 3,
        "duration": 0.3,
        "velocity": 0.62,
        "hand": "right"
      },
      {
        "midi": 71,
        "time": 3.3,
        "duration": 0.3,
        "velocity": 0.63,
        "hand": "right"
      },
      {
        "midi": 50,
        "time": 3.6,
        "duration": 0.6,
        "velocity": 0.51,
        "hand": "left"
      },
      {
        "midi": 62,
        "time": 3.6,
        "duration": 0.3,
        "velocity": 0.66,
        "hand": "right"
      },
      {
        "midi": 66,
        "time": 3.6,
        "duration": 0.6,
        "velocity": 0.54,
        "hand": "right"
      },
      {
        "midi": 69,
        "time": 3.6,
        "duration": 0.6,
        "velocity": 0.54,
        "hand": "right"
      },
      {
        "midi": 60,
        "time": 3.9,
        "duration": 0.3,
        "velocity": 0.59,
        "hand": "right"
      },
      {
        "midi": 55,
        "time": 4.2,
        "duration": 0.6,
        "velocity": 0.57,
        "hand": "left"
      },
      {
        "midi": 59,
        "time": 4.2,
        "duration": 0.6,
        "velocity": 0.57,
        "hand": "left"
      },
      {
        "midi": 67,
        "time": 4.2,
        "duration": 0.6,
        "velocity": 0.56,
        "hand": "right"
      },
      {
        "midi": 57,
        "time": 4.8,
        "duration": 0.6,
        "velocity": 0.57,
        "hand": "left"
      },
      {
        "midi": 64,
        "time": 4.8,
        "duration": 0.585,
        "velocity": 0.68,
        "hand": "right"
      },
      {
        "midi": 72,
        "time": 4.8,
        "duration": 0.6,
        "velocity": 0.68,
        "hand": "right"
      },
      {
        "midi": 52,
        "time": 5.4,
        "duration": 0.6,
        "velocity": 0.61,
        "hand": "left"
      },
      {
        "midi": 55,
        "time": 5.4,
        "duration": 0.6,
        "velocity": 0.61,
        "hand": "left"
      },
      {
        "midi": 64,
        "time": 5.4,
        "duration": 0.6,
        "velocity": 0.58,
        "hand": "right"
      },
      {
        "midi": 71,
        "time": 5.4,
        "duration": 0.6,
        "velocity": 0.58,
        "hand": "right"
      },
      {
        "midi": 53,
        "time": 6,
        "duration": 0.6,
        "velocity": 0.6,
        "hand": "left"
      },
      {
        "midi": 60,
        "time": 6,
        "duration": 0.585,
        "velocity": 0.57,
        "hand": "right"
      },
      {
        "midi": 69,
        "time": 6,
        "duration": 0.6,
        "velocity": 0.57,
        "hand": "right"
      },
      {
        "midi": 48,
        "time": 6.6,
        "duration": 0.6,
        "velocity": 0.57,
        "hand": "left"
      },
      {
        "midi": 52,
        "time": 6.6,
        "duration": 0.585,
        "velocity": 0.57,
        "hand": "left"
      },
      {
        "midi": 60,
        "time": 6.6,
        "duration": 0.585,
        "velocity": 0.54,
        "hand": "right"
      },
      {
        "midi": 67,
        "time": 6.6,
        "duration": 0.6,
        "velocity": 0.54,
        "hand": "right"
      },
      {
        "midi": 45,
        "time": 7.2,
        "duration": 0.6,
        "velocity": 0.59,
        "hand": "left"
      },
      {
        "midi": 52,
        "time": 7.2,
        "duration": 0.6,
        "velocity": 0.59,
        "hand": "left"
      },
      {
        "midi": 60,
        "time": 7.2,
        "duration": 0.6,
        "velocity": 0.62,
        "hand": "right"
      },
      {
        "midi": 69,
        "time": 7.2,
        "duration": 0.6,
        "velocity": 0.62,
        "hand": "right"
      },
      {
        "midi": 50,
        "time": 7.8,
        "duration": 0.6,
        "velocity": 0.62,
        "hand": "left"
      },
      {
        "midi": 53,
        "time": 7.8,
        "duration": 0.6,
        "velocity": 0.62,
        "hand": "left"
      },
      {
        "midi": 65,
        "time": 7.8,
        "duration": 0.3,
        "velocity": 0.53,
        "hand": "right"
      },
      {
        "midi": 64,
        "time": 8.1,
        "duration": 0.3,
        "velocity": 0.57,
        "hand": "right"
      },
      {
        "midi": 43,
        "time": 8.4,
        "duration": 0.6,
        "velocity": 0.65,
        "hand": "left"
      },
      {
        "midi": 55,
        "time": 8.4,
        "duration": 0.6,
        "velocity": 0.65,
        "hand": "left"
      },
      {
        "midi": 62,
        "time": 8.4,
        "duration": 0.6,
        "velocity": 0.59,
        "hand": "right"
      },
      {
        "midi": 48,
        "time": 9,
        "duration": 1.635,
        "velocity": 0.54,
        "hand": "left"
      },
      {
        "midi": 52,
        "time": 9,
        "duration": 1.65,
        "velocity": 0.54,
        "hand": "left"
      },
      {
        "midi": 60,
        "time": 9,
        "duration": 1.65,
        "velocity": 0.51,
        "hand": "right"
      },
      {
        "midi": 48,
        "time": 10.65,
        "duration": 0.6,
        "velocity": 0.61,
        "hand": "left"
      },
      {
        "midi": 55,
        "time": 10.65,
        "duration": 0.585,
        "velocity": 0.61,
        "hand": "left"
      },
      {
        "midi": 64,
        "time": 10.65,
        "duration": 0.6,
        "velocity": 0.72,
        "hand": "right"
      },
      {
        "midi": 72,
        "time": 10.65,
        "duration": 0.585,
        "velocity": 0.72,
        "hand": "right"
      },
      {
        "midi": 52,
        "time": 11.25,
        "duration": 0.6,
        "velocity": 0.61,
        "hand": "left"
      },
      {
        "midi": 55,
        "time": 11.25,
        "duration": 0.585,
        "velocity": 0.61,
        "hand": "left"
      },
      {
        "midi": 60,
        "time": 11.25,
        "duration": 0.6,
        "velocity": 0.63,
        "hand": "right"
      },
      {
        "midi": 72,
        "time": 11.25,
        "duration": 0.585,
        "velocity": 0.63,
        "hand": "right"
      },
      {
        "midi": 48,
        "time": 11.85,
        "duration": 0.6,
        "velocity": 0.6,
        "hand": "left"
      },
      {
        "midi": 55,
        "time": 11.85,
        "duration": 0.585,
        "velocity": 0.6,
        "hand": "left"
      },
      {
        "midi": 64,
        "time": 11.85,
        "duration": 0.6,
        "velocity": 0.61,
        "hand": "right"
      },
      {
        "midi": 72,
        "time": 11.85,
        "duration": 0.6,
        "velocity": 0.61,
        "hand": "right"
      },
      {
        "midi": 55,
        "time": 12.45,
        "duration": 0.585,
        "velocity": 0.63,
        "hand": "left"
      },
      {
        "midi": 59,
        "time": 12.45,
        "duration": 0.6,
        "velocity": 0.63,
        "hand": "left"
      },
      {
        "midi": 62,
        "time": 12.45,
        "duration": 0.6,
        "velocity": 0.51,
        "hand": "right"
      },
      {
        "midi": 67,
        "time": 12.45,
        "duration": 0.3,
        "velocity": 0.5,
        "hand": "right"
      },
      {
        "midi": 69,
        "time": 12.75,
        "duration": 0.3,
        "velocity": 0.61,
        "hand": "right"
      },
      {
        "midi": 52,
        "time": 13.05,
        "duration": 0.585,
        "velocity": 0.57,
        "hand": "left"
      },
      {
        "midi": 55,
        "time": 13.05,
        "duration": 0.6,
        "velocity": 0.57,
        "hand": "left"
      },
      {
        "midi": 64,
        "time": 13.05,
        "duration": 0.6,
        "velocity": 0.65,
        "hand": "right"
      },
      {
        "midi": 71,
        "time": 13.05,
        "duration": 0.6,
        "velocity": 0.65,
        "hand": "right"
      },
      {
        "midi": 45,
        "time": 13.65,
        "duration": 0.6,
        "velocity": 0.57,
        "hand": "left"
      },
      {
        "midi": 52,
        "time": 13.65,
        "duration": 0.6,
        "velocity": 0.57,
        "hand": "left"
      },
      {
        "midi": 60,
        "time": 13.65,
        "duration": 0.6,
        "velocity": 0.56,
        "hand": "right"
      },
      {
        "midi": 72,
        "time": 13.65,
        "duration": 0.3,
        "velocity": 0.58,
        "hand": "right"
      },
      {
        "midi": 71,
        "time": 13.95,
        "duration": 0.3,
        "velocity": 0.59,
        "hand": "right"
      },
      {
        "midi": 50,
        "time": 14.25,
        "duration": 0.6,
        "velocity": 0.61,
        "hand": "left"
      },
      {
        "midi": 54,
        "time": 14.25,
        "duration": 0.6,
        "velocity": 0.61,
        "hand": "left"
      },
      {
        "midi": 62,
        "time": 14.25,
        "duration": 0.3,
        "velocity": 0.67,
        "hand": "right"
      },
      {
        "midi": 69,
        "time": 14.25,
        "duration": 0.6,
        "velocity": 0.53,
        "hand": "right"
      },
      {
        "midi": 60,
        "time": 14.55,
        "duration": 0.3,
        "velocity": 0.54,
        "hand": "right"
      },
      {
        "midi": 43,
        "time": 14.85,
        "duration": 0.6,
        "velocity": 0.6,
        "hand": "left"
      },
      {
        "midi": 55,
        "time": 14.85,
        "duration": 0.6,
        "velocity": 0.6,
        "hand": "left"
      },
      {
        "midi": 67,
        "time": 14.85,
        "duration": 0.6,
        "velocity": 0.61,
        "hand": "right"
      },
      {
        "midi": 45,
        "time": 15.45,
        "duration": 0.6,
        "velocity": 0.57,
        "hand": "left"
      },
      {
        "midi": 52,
        "time": 15.45,
        "duration": 0.585,
        "velocity": 0.57,
        "hand": "left"
      },
      {
        "midi": 60,
        "time": 15.45,
        "duration": 0.6,
        "velocity": 0.66,
        "hand": "right"
      },
      {
        "midi": 72,
        "time": 15.45,
        "duration": 0.6,
        "velocity": 0.66,
        "hand": "right"
      },
      {
        "midi": 52,
        "time": 16.05,
        "duration": 0.6,
        "velocity": 0.62,
        "hand": "left"
      },
      {
        "midi": 55,
        "time": 16.05,
        "duration": 0.6,
        "velocity": 0.62,
        "hand": "left"
      },
      {
        "midi": 64,
        "time": 16.05,
        "duration": 0.6,
        "velocity": 0.59,
        "hand": "right"
      },
      {
        "midi": 71,
        "time": 16.05,
        "duration": 0.6,
        "velocity": 0.59,
        "hand": "right"
      },
      {
        "midi": 53,
        "time": 16.65,
        "duration": 0.6,
        "velocity": 0.56,
        "hand": "left"
      },
      {
        "midi": 60,
        "time": 16.65,
        "duration": 0.585,
        "velocity": 0.55,
        "hand": "right"
      },
      {
        "midi": 69,
        "time": 16.65,
        "duration": 0.6,
        "velocity": 0.55,
        "hand": "right"
      },
      {
        "midi": 48,
        "time": 17.25,
        "duration": 0.6,
        "velocity": 0.59,
        "hand": "left"
      },
      {
        "midi": 52,
        "time": 17.25,
        "duration": 0.585,
        "velocity": 0.59,
        "hand": "left"
      },
      {
        "midi": 60,
        "time": 17.25,
        "duration": 0.585,
        "velocity": 0.54,
        "hand": "right"
      },
      {
        "midi": 67,
        "time": 17.25,
        "duration": 0.6,
        "velocity": 0.54,
        "hand": "right"
      },
      {
        "midi": 45,
        "time": 17.85,
        "duration": 0.6,
        "velocity": 0.59,
        "hand": "left"
      },
      {
        "midi": 52,
        "time": 17.85,
        "duration": 0.6,
        "velocity": 0.59,
        "hand": "left"
      },
      {
        "midi": 60,
        "time": 17.85,
        "duration": 0.6,
        "velocity": 0.64,
        "hand": "right"
      },
      {
        "midi": 69,
        "time": 17.85,
        "duration": 0.6,
        "velocity": 0.64,
        "hand": "right"
      },
      {
        "midi": 50,
        "time": 18.45,
        "duration": 0.6,
        "velocity": 0.57,
        "hand": "left"
      },
      {
        "midi": 53,
        "time": 18.45,
        "duration": 0.6,
        "velocity": 0.57,
        "hand": "left"
      },
      {
        "midi": 65,
        "time": 18.45,
        "duration": 0.3,
        "velocity": 0.54,
        "hand": "right"
      },
      {
        "midi": 64,
        "time": 18.75,
        "duration": 0.3,
        "velocity": 0.57,
        "hand": "right"
      },
      {
        "midi": 43,
        "time": 19.05,
        "duration": 0.6,
        "velocity": 0.54,
        "hand": "left"
      },
      {
        "midi": 55,
        "time": 19.05,
        "duration": 0.3,
        "velocity": 0.61,
        "hand": "left"
      },
      {
        "midi": 62,
        "time": 19.05,
        "duration": 0.6,
        "velocity": 0.54,
        "hand": "right"
      },
      {
        "midi": 53,
        "time": 19.35,
        "duration": 0.3,
        "velocity": 0.61,
        "hand": "left"
      },
      {
        "midi": 48,
        "time": 19.65,
        "duration": 1.65,
        "velocity": 0.59,
        "hand": "left"
      },
      {
        "midi": 52,
        "time": 19.65,
        "duration": 1.65,
        "velocity": 0.59,
        "hand": "left"
      },
      {
        "midi": 60,
        "time": 19.65,
        "duration": 1.65,
        "velocity": 0.55,
        "hand": "right"
      },
      {
        "midi": 48,
        "time": 21.45,
        "duration": 0.585,
        "velocity": 0.65,
        "hand": "left"
      },
      {
        "midi": 52,
        "time": 21.45,
        "duration": 0.6,
        "velocity": 0.65,
        "hand": "left"
      },
      {
        "midi": 60,
        "time": 21.45,
        "duration": 0.6,
        "velocity": 0.59,
        "hand": "right"
      },
      {
        "midi": 48,
        "time": 22.05,
        "duration": 0.6,
        "velocity": 0.64,
        "hand": "left"
      },
      {
        "midi": 55,
        "time": 22.05,
        "duration": 0.6,
        "velocity": 0.64,
        "hand": "left"
      },
      {
        "midi": 64,
        "time": 22.05,
        "duration": 0.585,
        "velocity": 0.7,
        "hand": "right"
      },
      {
        "midi": 67,
        "time": 22.05,
        "duration": 0.6,
        "velocity": 0.7,
        "hand": "right"
      },
      {
        "midi": 45,
        "time": 22.65,
        "duration": 0.6,
        "velocity": 0.69,
        "hand": "left"
      },
      {
        "midi": 60,
        "time": 22.65,
        "duration": 0.6,
        "velocity": 0.69,
        "hand": "right"
      },
      {
        "midi": 64,
        "time": 22.65,
        "duration": 0.6,
        "velocity": 0.65,
        "hand": "right"
      },
      {
        "midi": 69,
        "time": 22.65,
        "duration": 0.6,
        "velocity": 0.65,
        "hand": "right"
      },
      {
        "midi": 47,
        "time": 23.25,
        "duration": 0.3,
        "velocity": 0.55,
        "hand": "left"
      },
      {
        "midi": 59,
        "time": 23.25,
        "duration": 0.6,
        "velocity": 0.55,
        "hand": "left"
      },
      {
        "midi": 62,
        "time": 23.25,
        "duration": 0.585,
        "velocity": 0.57,
        "hand": "right"
      },
      {
        "midi": 67,
        "time": 23.25,
        "duration": 0.6,
        "velocity": 0.57,
        "hand": "right"
      },
      {
        "midi": 48,
        "time": 23.55,
        "duration": 0.3,
        "velocity": 0.57,
        "hand": "left"
      },
      {
        "midi": 50,
        "time": 23.85,
        "duration": 0.6,
        "velocity": 0.56,
        "hand": "left"
      },
      {
        "midi": 57,
        "time": 23.85,
        "duration": 0.6,
        "velocity": 0.56,
        "hand": "left"
      },
      {
        "midi": 62,
        "time": 23.85,
        "duration": 0.3,
        "velocity": 0.55,
        "hand": "right"
      },
      {
        "midi": 66,
        "time": 23.85,
        "duration": 0.6,
        "velocity": 0.54,
        "hand": "right"
      },
      {
        "midi": 60,
        "time": 24.15,
        "duration": 0.3,
        "velocity": 0.57,
        "hand": "right"
      },
      {
        "midi": 43,
        "time": 24.45,
        "duration": 1.8,
        "velocity": 0.58,
        "hand": "left"
      },
      {
        "midi": 55,
        "time": 24.45,
        "duration": 1.8,
        "velocity": 0.58,
        "hand": "left"
      },
      {
        "midi": 67,
        "time": 24.45,
        "duration": 1.8,
        "velocity": 0.58,
        "hand": "right"
      },
      {
        "midi": 48,
        "time": 26.25,
        "duration": 0.6,
        "velocity": 0.55,
        "hand": "left"
      },
      {
        "midi": 52,
        "time": 26.25,
        "duration": 0.6,
        "velocity": 0.55,
        "hand": "left"
      },
      {
        "midi": 60,
        "time": 26.25,
        "duration": 0.6,
        "velocity": 0.49,
        "hand": "right"
      },
      {
        "midi": 47,
        "time": 26.85,
        "duration": 0.6,
        "velocity": 0.65,
        "hand": "left"
      },
      {
        "midi": 55,
        "time": 26.85,
        "duration": 0.585,
        "velocity": 0.65,
        "hand": "left"
      },
      {
        "midi": 62,
        "time": 26.85,
        "duration": 0.6,
        "velocity": 0.65,
        "hand": "right"
      },
      {
        "midi": 67,
        "time": 26.85,
        "duration": 0.585,
        "velocity": 0.65,
        "hand": "right"
      },
      {
        "midi": 48,
        "time": 27.45,
        "duration": 0.6,
        "velocity": 0.59,
        "hand": "left"
      },
      {
        "midi": 55,
        "time": 27.45,
        "duration": 0.6,
        "velocity": 0.59,
        "hand": "left"
      },
      {
        "midi": 64,
        "time": 27.45,
        "duration": 0.6,
        "velocity": 0.57,
        "hand": "right"
      },
      {
        "midi": 67,
        "time": 27.45,
        "duration": 0.6,
        "velocity": 0.57,
        "hand": "right"
      },
      {
        "midi": 53,
        "time": 28.05,
        "duration": 0.585,
        "velocity": 0.6,
        "hand": "left"
      },
      {
        "midi": 60,
        "time": 28.05,
        "duration": 0.6,
        "velocity": 0.63,
        "hand": "right"
      },
      {
        "midi": 69,
        "time": 28.05,
        "duration": 0.6,
        "velocity": 0.63,
        "hand": "right"
      },
      {
        "midi": 50,
        "time": 28.65,
        "duration": 0.6,
        "velocity": 0.6,
        "hand": "left"
      },
      {
        "midi": 53,
        "time": 28.65,
        "duration": 0.6,
        "velocity": 0.6,
        "hand": "left"
      },
      {
        "midi": 62,
        "time": 28.65,
        "duration": 0.6,
        "velocity": 0.64,
        "hand": "right"
      },
      {
        "midi": 71,
        "time": 28.65,
        "duration": 0.6,
        "velocity": 0.64,
        "hand": "right"
      },
      {
        "midi": 45,
        "time": 29.25,
        "duration": 1.8,
        "velocity": 0.61,
        "hand": "left"
      },
      {
        "midi": 52,
        "time": 29.25,
        "duration": 1.8,
        "velocity": 0.61,
        "hand": "left"
      },
      {
        "midi": 60,
        "time": 29.25,
        "duration": 1.8,
        "velocity": 0.61,
        "hand": "right"
      },
      {
        "midi": 72,
        "time": 29.25,
        "duration": 1.8,
        "velocity": 0.61,
        "hand": "right"
      },
      {
        "midi": 44,
        "time": 31.05,
        "duration": 0.6,
        "velocity": 0.66,
        "hand": "left"
      },
      {
        "midi": 59,
        "time": 31.05,
        "duration": 0.6,
        "velocity": 0.66,
        "hand": "left"
      },
      {
        "midi": 64,
        "time": 31.05,
        "duration": 0.585,
        "velocity": 0.57,
        "hand": "right"
      },
      {
        "midi": 71,
        "time": 31.05,
        "duration": 0.6,
        "velocity": 0.57,
        "hand": "right"
      },
      {
        "midi": 45,
        "time": 31.65,
        "duration": 0.6,
        "velocity": 0.55,
        "hand": "left"
      },
      {
        "midi": 57,
        "time": 31.65,
        "duration": 0.6,
        "velocity": 0.55,
        "hand": "left"
      },
      {
        "midi": 64,
        "time": 31.65,
        "duration": 0.585,
        "velocity": 0.63,
        "hand": "right"
      },
      {
        "midi": 72,
        "time": 31.65,
        "duration": 0.6,
        "velocity": 0.63,
        "hand": "right"
      },
      {
        "midi": 47,
        "time": 32.25,
        "duration": 0.6,
        "velocity": 0.56,
        "hand": "left"
      },
      {
        "midi": 56,
        "time": 32.25,
        "duration": 0.6,
        "velocity": 0.56,
        "hand": "left"
      },
      {
        "midi": 64,
        "time": 32.25,
        "duration": 0.585,
        "velocity": 0.59,
        "hand": "right"
      },
      {
        "midi": 71,
        "time": 32.25,
        "duration": 0.6,
        "velocity": 0.59,
        "hand": "right"
      },
      {
        "midi": 48,
        "time": 32.85,
        "duration": 0.6,
        "velocity": 0.59,
        "hand": "left"
      },
      {
        "midi": 57,
        "time": 32.85,
        "duration": 0.6,
        "velocity": 0.59,
        "hand": "left"
      },
      {
        "midi": 64,
        "time": 32.85,
        "duration": 0.6,
        "velocity": 0.54,
        "hand": "right"
      },
      {
        "midi": 69,
        "time": 32.85,
        "duration": 0.585,
        "velocity": 0.54,
        "hand": "right"
      },
      {
        "midi": 50,
        "time": 33.45,
        "duration": 0.6,
        "velocity": 0.59,
        "hand": "left"
      },
      {
        "midi": 54,
        "time": 33.45,
        "duration": 0.6,
        "velocity": 0.59,
        "hand": "left"
      },
      {
        "midi": 62,
        "time": 33.45,
        "duration": 0.3,
        "velocity": 0.54,
        "hand": "right"
      },
      {
        "midi": 69,
        "time": 33.45,
        "duration": 0.6,
        "velocity": 0.58,
        "hand": "right"
      },
      {
        "midi": 60,
        "time": 33.75,
        "duration": 0.3,
        "velocity": 0.53,
        "hand": "right"
      },
      {
        "midi": 43,
        "time": 34.05,
        "duration": 1.8,
        "velocity": 0.65,
        "hand": "left"
      },
      {
        "midi": 55,
        "time": 34.05,
        "duration": 1.8,
        "velocity": 0.65,
        "hand": "left"
      },
      {
        "midi": 67,
        "time": 34.05,
        "duration": 1.8,
        "velocity": 0.58,
        "hand": "right"
      },
      {
        "midi": 41,
        "time": 35.85,
        "duration": 0.6,
        "velocity": 0.68,
        "hand": "left"
      },
      {
        "midi": 60,
        "time": 35.85,
        "duration": 0.585,
        "velocity": 0.57,
        "hand": "right"
      },
      {
        "midi": 69,
        "time": 35.85,
        "duration": 0.585,
        "velocity": 0.57,
        "hand": "right"
      },
      {
        "midi": 45,
        "time": 36.45,
        "duration": 0.6,
        "velocity": 0.61,
        "hand": "left"
      },
      {
        "midi": 60,
        "time": 36.45,
        "duration": 0.585,
        "velocity": 0.61,
        "hand": "right"
      },
      {
        "midi": 65,
        "time": 36.45,
        "duration": 0.6,
        "velocity": 0.58,
        "hand": "right"
      },
      {
        "midi": 69,
        "time": 36.45,
        "duration": 0.6,
        "velocity": 0.58,
        "hand": "right"
      },
      {
        "midi": 48,
        "time": 37.05,
        "duration": 0.6,
        "velocity": 0.53,
        "hand": "left"
      },
      {
        "midi": 60,
        "time": 37.05,
        "duration": 0.3,
        "velocity": 0.61,
        "hand": "right"
      },
      {
        "midi": 64,
        "time": 37.05,
        "duration": 0.585,
        "velocity": 0.54,
        "hand": "right"
      },
      {
        "midi": 67,
        "time": 37.05,
        "duration": 0.6,
        "velocity": 0.54,
        "hand": "right"
      },
      {
        "midi": 59,
        "time": 37.35,
        "duration": 0.3,
        "velocity": 0.57,
        "hand": "left"
      },
      {
        "midi": 49,
        "time": 37.65,
        "duration": 0.6,
        "velocity": 0.57,
        "hand": "left"
      },
      {
        "midi": 57,
        "time": 37.65,
        "duration": 0.585,
        "velocity": 0.57,
        "hand": "left"
      },
      {
        "midi": 64,
        "time": 37.65,
        "duration": 0.6,
        "velocity": 0.64,
        "hand": "right"
      },
      {
        "midi": 69,
        "time": 37.65,
        "duration": 0.6,
        "velocity": 0.64,
        "hand": "right"
      },
      {
        "midi": 50,
        "time": 38.25,
        "duration": 0.6,
        "velocity": 0.57,
        "hand": "left"
      },
      {
        "midi": 57,
        "time": 38.25,
        "duration": 0.6,
        "velocity": 0.57,
        "hand": "left"
      },
      {
        "midi": 62,
        "time": 38.25,
        "duration": 0.6,
        "velocity": 0.52,
        "hand": "right"
      },
      {
        "midi": 65,
        "time": 38.25,
        "duration": 0.6,
        "velocity": 0.52,
        "hand": "right"
      },
      {
        "midi": 52,
        "time": 38.85,
        "duration": 1.8,
        "velocity": 0.56,
        "hand": "left"
      },
      {
        "midi": 56,
        "time": 38.85,
        "duration": 1.8,
        "velocity": 0.56,
        "hand": "left"
      },
      {
        "midi": 64,
        "time": 38.85,
        "duration": 1.8,
        "velocity": 0.54,
        "hand": "right"
      },
      {
        "midi": 45,
        "time": 40.65,
        "duration": 0.6,
        "velocity": 0.6,
        "hand": "left"
      },
      {
        "midi": 57,
        "time": 40.65,
        "duration": 0.6,
        "velocity": 0.6,
        "hand": "left"
      },
      {
        "midi": 60,
        "time": 40.65,
        "duration": 0.6,
        "velocity": 0.73,
        "hand": "right"
      },
      {
        "midi": 72,
        "time": 40.65,
        "duration": 0.6,
        "velocity": 0.73,
        "hand": "right"
      },
      {
        "midi": 52,
        "time": 41.25,
        "duration": 0.6,
        "velocity": 0.6,
        "hand": "left"
      },
      {
        "midi": 55,
        "time": 41.25,
        "duration": 0.6,
        "velocity": 0.6,
        "hand": "left"
      },
      {
        "midi": 64,
        "time": 41.25,
        "duration": 0.6,
        "velocity": 0.59,
        "hand": "right"
      },
      {
        "midi": 71,
        "time": 41.25,
        "duration": 0.6,
        "velocity": 0.59,
        "hand": "right"
      },
      {
        "midi": 53,
        "time": 41.85,
        "duration": 0.6,
        "velocity": 0.61,
        "hand": "left"
      },
      {
        "midi": 57,
        "time": 41.85,
        "duration": 0.6,
        "velocity": 0.61,
        "hand": "left"
      },
      {
        "midi": 60,
        "time": 41.85,
        "duration": 0.585,
        "velocity": 0.57,
        "hand": "right"
      },
      {
        "midi": 69,
        "time": 41.85,
        "duration": 0.6,
        "velocity": 0.57,
        "hand": "right"
      },
      {
        "midi": 48,
        "time": 42.45,
        "duration": 0.6,
        "velocity": 0.65,
        "hand": "left"
      },
      {
        "midi": 60,
        "time": 42.45,
        "duration": 0.585,
        "velocity": 0.65,
        "hand": "right"
      },
      {
        "midi": 64,
        "time": 42.45,
        "duration": 0.585,
        "velocity": 0.54,
        "hand": "right"
      },
      {
        "midi": 67,
        "time": 42.45,
        "duration": 0.6,
        "velocity": 0.54,
        "hand": "right"
      },
      {
        "midi": 45,
        "time": 43.05,
        "duration": 0.6,
        "velocity": 0.63,
        "hand": "left"
      },
      {
        "midi": 60,
        "time": 43.05,
        "duration": 0.6,
        "velocity": 0.63,
        "hand": "right"
      },
      {
        "midi": 64,
        "time": 43.05,
        "duration": 0.6,
        "velocity": 0.6,
        "hand": "right"
      },
      {
        "midi": 69,
        "time": 43.05,
        "duration": 0.6,
        "velocity": 0.6,
        "hand": "right"
      },
      {
        "midi": 50,
        "time": 43.65,
        "duration": 0.6,
        "velocity": 0.54,
        "hand": "left"
      },
      {
        "midi": 53,
        "time": 43.65,
        "duration": 0.6,
        "velocity": 0.54,
        "hand": "left"
      },
      {
        "midi": 65,
        "time": 43.65,
        "duration": 0.3,
        "velocity": 0.52,
        "hand": "right"
      },
      {
        "midi": 64,
        "time": 43.95,
        "duration": 0.3,
        "velocity": 0.55,
        "hand": "right"
      },
      {
        "midi": 43,
        "time": 44.25,
        "duration": 0.6,
        "velocity": 0.54,
        "hand": "left"
      },
      {
        "midi": 55,
        "time": 44.25,
        "duration": 0.3,
        "velocity": 0.6,
        "hand": "left"
      },
      {
        "midi": 62,
        "time": 44.25,
        "duration": 0.6,
        "velocity": 0.53,
        "hand": "right"
      },
      {
        "midi": 53,
        "time": 44.55,
        "duration": 0.3,
        "velocity": 0.59,
        "hand": "left"
      },
      {
        "midi": 48,
        "time": 44.85,
        "duration": 1.65,
        "velocity": 0.58,
        "hand": "left"
      },
      {
        "midi": 52,
        "time": 44.85,
        "duration": 1.65,
        "velocity": 0.58,
        "hand": "left"
      },
      {
        "midi": 60,
        "time": 44.85,
        "duration": 1.65,
        "velocity": 0.57,
        "hand": "right"
      }
    ]
  },
  "notes1Hand": [
    {
      "midi": 72,
      "time": 0,
      "duration": 0.585,
      "velocity": 0.54,
      "hand": "right"
    },
    {
      "midi": 72,
      "time": 0.6,
      "duration": 0.585,
      "velocity": 0.58,
      "hand": "right"
    },
    {
      "midi": 72,
      "time": 1.2,
      "duration": 0.6,
      "velocity": 0.61,
      "hand": "right"
    },
    {
      "midi": 67,
      "time": 1.8,
      "duration": 0.36,
      "velocity": 0.46,
      "hand": "right"
    },
    {
      "midi": 71,
      "time": 2.4,
      "duration": 0.6,
      "velocity": 0.65,
      "hand": "right"
    },
    {
      "midi": 72,
      "time": 3,
      "duration": 0.36,
      "velocity": 0.62,
      "hand": "right"
    },
    {
      "midi": 69,
      "time": 3.6,
      "duration": 0.6,
      "velocity": 0.54,
      "hand": "right"
    },
    {
      "midi": 67,
      "time": 4.2,
      "duration": 0.6,
      "velocity": 0.56,
      "hand": "right"
    },
    {
      "midi": 72,
      "time": 4.8,
      "duration": 0.6,
      "velocity": 0.68,
      "hand": "right"
    },
    {
      "midi": 71,
      "time": 5.4,
      "duration": 0.6,
      "velocity": 0.58,
      "hand": "right"
    },
    {
      "midi": 69,
      "time": 6,
      "duration": 0.6,
      "velocity": 0.57,
      "hand": "right"
    },
    {
      "midi": 67,
      "time": 6.6,
      "duration": 0.6,
      "velocity": 0.54,
      "hand": "right"
    },
    {
      "midi": 69,
      "time": 7.2,
      "duration": 0.6,
      "velocity": 0.62,
      "hand": "right"
    },
    {
      "midi": 65,
      "time": 7.8,
      "duration": 0.36,
      "velocity": 0.53,
      "hand": "right"
    },
    {
      "midi": 62,
      "time": 8.4,
      "duration": 0.6,
      "velocity": 0.59,
      "hand": "right"
    },
    {
      "midi": 60,
      "time": 9,
      "duration": 1.65,
      "velocity": 0.51,
      "hand": "right"
    },
    {
      "midi": 72,
      "time": 10.65,
      "duration": 0.585,
      "velocity": 0.72,
      "hand": "right"
    },
    {
      "midi": 72,
      "time": 11.25,
      "duration": 0.585,
      "velocity": 0.63,
      "hand": "right"
    },
    {
      "midi": 72,
      "time": 11.85,
      "duration": 0.6,
      "velocity": 0.61,
      "hand": "right"
    },
    {
      "midi": 67,
      "time": 12.45,
      "duration": 0.36,
      "velocity": 0.5,
      "hand": "right"
    },
    {
      "midi": 71,
      "time": 13.05,
      "duration": 0.6,
      "velocity": 0.65,
      "hand": "right"
    },
    {
      "midi": 72,
      "time": 13.65,
      "duration": 0.36,
      "velocity": 0.58,
      "hand": "right"
    },
    {
      "midi": 69,
      "time": 14.25,
      "duration": 0.6,
      "velocity": 0.53,
      "hand": "right"
    },
    {
      "midi": 67,
      "time": 14.85,
      "duration": 0.6,
      "velocity": 0.61,
      "hand": "right"
    },
    {
      "midi": 72,
      "time": 15.45,
      "duration": 0.6,
      "velocity": 0.66,
      "hand": "right"
    },
    {
      "midi": 71,
      "time": 16.05,
      "duration": 0.6,
      "velocity": 0.59,
      "hand": "right"
    },
    {
      "midi": 69,
      "time": 16.65,
      "duration": 0.6,
      "velocity": 0.55,
      "hand": "right"
    },
    {
      "midi": 67,
      "time": 17.25,
      "duration": 0.6,
      "velocity": 0.54,
      "hand": "right"
    },
    {
      "midi": 69,
      "time": 17.85,
      "duration": 0.6,
      "velocity": 0.64,
      "hand": "right"
    },
    {
      "midi": 65,
      "time": 18.45,
      "duration": 0.36,
      "velocity": 0.54,
      "hand": "right"
    },
    {
      "midi": 62,
      "time": 19.05,
      "duration": 0.6,
      "velocity": 0.54,
      "hand": "right"
    },
    {
      "midi": 60,
      "time": 19.65,
      "duration": 1.65,
      "velocity": 0.55,
      "hand": "right"
    },
    {
      "midi": 60,
      "time": 21.45,
      "duration": 0.6,
      "velocity": 0.59,
      "hand": "right"
    },
    {
      "midi": 67,
      "time": 22.05,
      "duration": 0.6,
      "velocity": 0.7,
      "hand": "right"
    },
    {
      "midi": 69,
      "time": 22.65,
      "duration": 0.6,
      "velocity": 0.65,
      "hand": "right"
    },
    {
      "midi": 67,
      "time": 23.25,
      "duration": 0.6,
      "velocity": 0.57,
      "hand": "right"
    },
    {
      "midi": 66,
      "time": 23.85,
      "duration": 0.6,
      "velocity": 0.54,
      "hand": "right"
    },
    {
      "midi": 67,
      "time": 24.45,
      "duration": 1.8,
      "velocity": 0.58,
      "hand": "right"
    },
    {
      "midi": 60,
      "time": 26.25,
      "duration": 0.6,
      "velocity": 0.49,
      "hand": "right"
    },
    {
      "midi": 67,
      "time": 26.85,
      "duration": 0.585,
      "velocity": 0.65,
      "hand": "right"
    },
    {
      "midi": 67,
      "time": 27.45,
      "duration": 0.6,
      "velocity": 0.57,
      "hand": "right"
    },
    {
      "midi": 69,
      "time": 28.05,
      "duration": 0.6,
      "velocity": 0.63,
      "hand": "right"
    },
    {
      "midi": 71,
      "time": 28.65,
      "duration": 0.6,
      "velocity": 0.64,
      "hand": "right"
    },
    {
      "midi": 72,
      "time": 29.25,
      "duration": 1.8,
      "velocity": 0.61,
      "hand": "right"
    },
    {
      "midi": 71,
      "time": 31.05,
      "duration": 0.6,
      "velocity": 0.57,
      "hand": "right"
    },
    {
      "midi": 72,
      "time": 31.65,
      "duration": 0.6,
      "velocity": 0.63,
      "hand": "right"
    },
    {
      "midi": 71,
      "time": 32.25,
      "duration": 0.6,
      "velocity": 0.59,
      "hand": "right"
    },
    {
      "midi": 69,
      "time": 32.85,
      "duration": 0.585,
      "velocity": 0.54,
      "hand": "right"
    },
    {
      "midi": 69,
      "time": 33.45,
      "duration": 0.6,
      "velocity": 0.58,
      "hand": "right"
    },
    {
      "midi": 67,
      "time": 34.05,
      "duration": 1.8,
      "velocity": 0.58,
      "hand": "right"
    },
    {
      "midi": 69,
      "time": 35.85,
      "duration": 0.585,
      "velocity": 0.57,
      "hand": "right"
    },
    {
      "midi": 69,
      "time": 36.45,
      "duration": 0.6,
      "velocity": 0.58,
      "hand": "right"
    },
    {
      "midi": 67,
      "time": 37.05,
      "duration": 0.6,
      "velocity": 0.54,
      "hand": "right"
    },
    {
      "midi": 69,
      "time": 37.65,
      "duration": 0.6,
      "velocity": 0.64,
      "hand": "right"
    },
    {
      "midi": 65,
      "time": 38.25,
      "duration": 0.6,
      "velocity": 0.52,
      "hand": "right"
    },
    {
      "midi": 64,
      "time": 38.85,
      "duration": 1.8,
      "velocity": 0.54,
      "hand": "right"
    },
    {
      "midi": 72,
      "time": 40.65,
      "duration": 0.6,
      "velocity": 0.73,
      "hand": "right"
    },
    {
      "midi": 71,
      "time": 41.25,
      "duration": 0.6,
      "velocity": 0.59,
      "hand": "right"
    },
    {
      "midi": 69,
      "time": 41.85,
      "duration": 0.6,
      "velocity": 0.57,
      "hand": "right"
    },
    {
      "midi": 67,
      "time": 42.45,
      "duration": 0.6,
      "velocity": 0.54,
      "hand": "right"
    },
    {
      "midi": 69,
      "time": 43.05,
      "duration": 0.6,
      "velocity": 0.6,
      "hand": "right"
    },
    {
      "midi": 65,
      "time": 43.65,
      "duration": 0.36,
      "velocity": 0.52,
      "hand": "right"
    },
    {
      "midi": 62,
      "time": 44.25,
      "duration": 0.6,
      "velocity": 0.53,
      "hand": "right"
    },
    {
      "midi": 60,
      "time": 44.85,
      "duration": 1.65,
      "velocity": 0.57,
      "hand": "right"
    }
  ],
  "notes2Hands": [
    {
      "midi": 48,
      "time": 0,
      "duration": 0.6,
      "velocity": 0.51,
      "hand": "left"
    },
    {
      "midi": 55,
      "time": 0,
      "duration": 0.585,
      "velocity": 0.51,
      "hand": "left"
    },
    {
      "midi": 64,
      "time": 0,
      "duration": 0.6,
      "velocity": 0.54,
      "hand": "right"
    },
    {
      "midi": 72,
      "time": 0,
      "duration": 0.585,
      "velocity": 0.54,
      "hand": "right"
    },
    {
      "midi": 52,
      "time": 0.6,
      "duration": 0.6,
      "velocity": 0.59,
      "hand": "left"
    },
    {
      "midi": 55,
      "time": 0.6,
      "duration": 0.585,
      "velocity": 0.59,
      "hand": "left"
    },
    {
      "midi": 60,
      "time": 0.6,
      "duration": 0.6,
      "velocity": 0.58,
      "hand": "right"
    },
    {
      "midi": 72,
      "time": 0.6,
      "duration": 0.585,
      "velocity": 0.58,
      "hand": "right"
    },
    {
      "midi": 48,
      "time": 1.2,
      "duration": 0.6,
      "velocity": 0.57,
      "hand": "left"
    },
    {
      "midi": 55,
      "time": 1.2,
      "duration": 0.585,
      "velocity": 0.57,
      "hand": "left"
    },
    {
      "midi": 64,
      "time": 1.2,
      "duration": 0.6,
      "velocity": 0.61,
      "hand": "right"
    },
    {
      "midi": 72,
      "time": 1.2,
      "duration": 0.6,
      "velocity": 0.61,
      "hand": "right"
    },
    {
      "midi": 55,
      "time": 1.8,
      "duration": 0.6,
      "velocity": 0.63,
      "hand": "left"
    },
    {
      "midi": 59,
      "time": 1.8,
      "duration": 0.585,
      "velocity": 0.63,
      "hand": "left"
    },
    {
      "midi": 62,
      "time": 1.8,
      "duration": 0.6,
      "velocity": 0.52,
      "hand": "right"
    },
    {
      "midi": 67,
      "time": 1.8,
      "duration": 0.3,
      "velocity": 0.46,
      "hand": "right"
    },
    {
      "midi": 69,
      "time": 2.1,
      "duration": 0.3,
      "velocity": 0.64,
      "hand": "right"
    },
    {
      "midi": 52,
      "time": 2.4,
      "duration": 0.6,
      "velocity": 0.62,
      "hand": "left"
    },
    {
      "midi": 59,
      "time": 2.4,
      "duration": 0.6,
      "velocity": 0.62,
      "hand": "left"
    },
    {
      "midi": 67,
      "time": 2.4,
      "duration": 0.6,
      "velocity": 0.65,
      "hand": "right"
    },
    {
      "midi": 71,
      "time": 2.4,
      "duration": 0.6,
      "velocity": 0.65,
      "hand": "right"
    },
    {
      "midi": 57,
      "time": 3,
      "duration": 0.6,
      "velocity": 0.61,
      "hand": "left"
    },
    {
      "midi": 64,
      "time": 3,
      "duration": 0.6,
      "velocity": 0.52,
      "hand": "right"
    },
    {
      "midi": 72,
      "time": 3,
      "duration": 0.3,
      "velocity": 0.62,
      "hand": "right"
    },
    {
      "midi": 71,
      "time": 3.3,
      "duration": 0.3,
      "velocity": 0.63,
      "hand": "right"
    },
    {
      "midi": 50,
      "time": 3.6,
      "duration": 0.6,
      "velocity": 0.51,
      "hand": "left"
    },
    {
      "midi": 62,
      "time": 3.6,
      "duration": 0.3,
      "velocity": 0.66,
      "hand": "right"
    },
    {
      "midi": 66,
      "time": 3.6,
      "duration": 0.6,
      "velocity": 0.54,
      "hand": "right"
    },
    {
      "midi": 69,
      "time": 3.6,
      "duration": 0.6,
      "velocity": 0.54,
      "hand": "right"
    },
    {
      "midi": 60,
      "time": 3.9,
      "duration": 0.3,
      "velocity": 0.59,
      "hand": "right"
    },
    {
      "midi": 55,
      "time": 4.2,
      "duration": 0.6,
      "velocity": 0.57,
      "hand": "left"
    },
    {
      "midi": 59,
      "time": 4.2,
      "duration": 0.6,
      "velocity": 0.57,
      "hand": "left"
    },
    {
      "midi": 67,
      "time": 4.2,
      "duration": 0.6,
      "velocity": 0.56,
      "hand": "right"
    },
    {
      "midi": 57,
      "time": 4.8,
      "duration": 0.6,
      "velocity": 0.57,
      "hand": "left"
    },
    {
      "midi": 64,
      "time": 4.8,
      "duration": 0.585,
      "velocity": 0.68,
      "hand": "right"
    },
    {
      "midi": 72,
      "time": 4.8,
      "duration": 0.6,
      "velocity": 0.68,
      "hand": "right"
    },
    {
      "midi": 52,
      "time": 5.4,
      "duration": 0.6,
      "velocity": 0.61,
      "hand": "left"
    },
    {
      "midi": 55,
      "time": 5.4,
      "duration": 0.6,
      "velocity": 0.61,
      "hand": "left"
    },
    {
      "midi": 64,
      "time": 5.4,
      "duration": 0.6,
      "velocity": 0.58,
      "hand": "right"
    },
    {
      "midi": 71,
      "time": 5.4,
      "duration": 0.6,
      "velocity": 0.58,
      "hand": "right"
    },
    {
      "midi": 53,
      "time": 6,
      "duration": 0.6,
      "velocity": 0.6,
      "hand": "left"
    },
    {
      "midi": 60,
      "time": 6,
      "duration": 0.585,
      "velocity": 0.57,
      "hand": "right"
    },
    {
      "midi": 69,
      "time": 6,
      "duration": 0.6,
      "velocity": 0.57,
      "hand": "right"
    },
    {
      "midi": 48,
      "time": 6.6,
      "duration": 0.6,
      "velocity": 0.57,
      "hand": "left"
    },
    {
      "midi": 52,
      "time": 6.6,
      "duration": 0.585,
      "velocity": 0.57,
      "hand": "left"
    },
    {
      "midi": 60,
      "time": 6.6,
      "duration": 0.585,
      "velocity": 0.54,
      "hand": "right"
    },
    {
      "midi": 67,
      "time": 6.6,
      "duration": 0.6,
      "velocity": 0.54,
      "hand": "right"
    },
    {
      "midi": 45,
      "time": 7.2,
      "duration": 0.6,
      "velocity": 0.59,
      "hand": "left"
    },
    {
      "midi": 52,
      "time": 7.2,
      "duration": 0.6,
      "velocity": 0.59,
      "hand": "left"
    },
    {
      "midi": 60,
      "time": 7.2,
      "duration": 0.6,
      "velocity": 0.62,
      "hand": "right"
    },
    {
      "midi": 69,
      "time": 7.2,
      "duration": 0.6,
      "velocity": 0.62,
      "hand": "right"
    },
    {
      "midi": 50,
      "time": 7.8,
      "duration": 0.6,
      "velocity": 0.62,
      "hand": "left"
    },
    {
      "midi": 53,
      "time": 7.8,
      "duration": 0.6,
      "velocity": 0.62,
      "hand": "left"
    },
    {
      "midi": 65,
      "time": 7.8,
      "duration": 0.3,
      "velocity": 0.53,
      "hand": "right"
    },
    {
      "midi": 64,
      "time": 8.1,
      "duration": 0.3,
      "velocity": 0.57,
      "hand": "right"
    },
    {
      "midi": 43,
      "time": 8.4,
      "duration": 0.6,
      "velocity": 0.65,
      "hand": "left"
    },
    {
      "midi": 55,
      "time": 8.4,
      "duration": 0.6,
      "velocity": 0.65,
      "hand": "left"
    },
    {
      "midi": 62,
      "time": 8.4,
      "duration": 0.6,
      "velocity": 0.59,
      "hand": "right"
    },
    {
      "midi": 48,
      "time": 9,
      "duration": 1.635,
      "velocity": 0.54,
      "hand": "left"
    },
    {
      "midi": 52,
      "time": 9,
      "duration": 1.65,
      "velocity": 0.54,
      "hand": "left"
    },
    {
      "midi": 60,
      "time": 9,
      "duration": 1.65,
      "velocity": 0.51,
      "hand": "right"
    },
    {
      "midi": 48,
      "time": 10.65,
      "duration": 0.6,
      "velocity": 0.61,
      "hand": "left"
    },
    {
      "midi": 55,
      "time": 10.65,
      "duration": 0.585,
      "velocity": 0.61,
      "hand": "left"
    },
    {
      "midi": 64,
      "time": 10.65,
      "duration": 0.6,
      "velocity": 0.72,
      "hand": "right"
    },
    {
      "midi": 72,
      "time": 10.65,
      "duration": 0.585,
      "velocity": 0.72,
      "hand": "right"
    },
    {
      "midi": 52,
      "time": 11.25,
      "duration": 0.6,
      "velocity": 0.61,
      "hand": "left"
    },
    {
      "midi": 55,
      "time": 11.25,
      "duration": 0.585,
      "velocity": 0.61,
      "hand": "left"
    },
    {
      "midi": 60,
      "time": 11.25,
      "duration": 0.6,
      "velocity": 0.63,
      "hand": "right"
    },
    {
      "midi": 72,
      "time": 11.25,
      "duration": 0.585,
      "velocity": 0.63,
      "hand": "right"
    },
    {
      "midi": 48,
      "time": 11.85,
      "duration": 0.6,
      "velocity": 0.6,
      "hand": "left"
    },
    {
      "midi": 55,
      "time": 11.85,
      "duration": 0.585,
      "velocity": 0.6,
      "hand": "left"
    },
    {
      "midi": 64,
      "time": 11.85,
      "duration": 0.6,
      "velocity": 0.61,
      "hand": "right"
    },
    {
      "midi": 72,
      "time": 11.85,
      "duration": 0.6,
      "velocity": 0.61,
      "hand": "right"
    },
    {
      "midi": 55,
      "time": 12.45,
      "duration": 0.585,
      "velocity": 0.63,
      "hand": "left"
    },
    {
      "midi": 59,
      "time": 12.45,
      "duration": 0.6,
      "velocity": 0.63,
      "hand": "left"
    },
    {
      "midi": 62,
      "time": 12.45,
      "duration": 0.6,
      "velocity": 0.51,
      "hand": "right"
    },
    {
      "midi": 67,
      "time": 12.45,
      "duration": 0.3,
      "velocity": 0.5,
      "hand": "right"
    },
    {
      "midi": 69,
      "time": 12.75,
      "duration": 0.3,
      "velocity": 0.61,
      "hand": "right"
    },
    {
      "midi": 52,
      "time": 13.05,
      "duration": 0.585,
      "velocity": 0.57,
      "hand": "left"
    },
    {
      "midi": 55,
      "time": 13.05,
      "duration": 0.6,
      "velocity": 0.57,
      "hand": "left"
    },
    {
      "midi": 64,
      "time": 13.05,
      "duration": 0.6,
      "velocity": 0.65,
      "hand": "right"
    },
    {
      "midi": 71,
      "time": 13.05,
      "duration": 0.6,
      "velocity": 0.65,
      "hand": "right"
    },
    {
      "midi": 45,
      "time": 13.65,
      "duration": 0.6,
      "velocity": 0.57,
      "hand": "left"
    },
    {
      "midi": 52,
      "time": 13.65,
      "duration": 0.6,
      "velocity": 0.57,
      "hand": "left"
    },
    {
      "midi": 60,
      "time": 13.65,
      "duration": 0.6,
      "velocity": 0.56,
      "hand": "right"
    },
    {
      "midi": 72,
      "time": 13.65,
      "duration": 0.3,
      "velocity": 0.58,
      "hand": "right"
    },
    {
      "midi": 71,
      "time": 13.95,
      "duration": 0.3,
      "velocity": 0.59,
      "hand": "right"
    },
    {
      "midi": 50,
      "time": 14.25,
      "duration": 0.6,
      "velocity": 0.61,
      "hand": "left"
    },
    {
      "midi": 54,
      "time": 14.25,
      "duration": 0.6,
      "velocity": 0.61,
      "hand": "left"
    },
    {
      "midi": 62,
      "time": 14.25,
      "duration": 0.3,
      "velocity": 0.67,
      "hand": "right"
    },
    {
      "midi": 69,
      "time": 14.25,
      "duration": 0.6,
      "velocity": 0.53,
      "hand": "right"
    },
    {
      "midi": 60,
      "time": 14.55,
      "duration": 0.3,
      "velocity": 0.54,
      "hand": "right"
    },
    {
      "midi": 43,
      "time": 14.85,
      "duration": 0.6,
      "velocity": 0.6,
      "hand": "left"
    },
    {
      "midi": 55,
      "time": 14.85,
      "duration": 0.6,
      "velocity": 0.6,
      "hand": "left"
    },
    {
      "midi": 67,
      "time": 14.85,
      "duration": 0.6,
      "velocity": 0.61,
      "hand": "right"
    },
    {
      "midi": 45,
      "time": 15.45,
      "duration": 0.6,
      "velocity": 0.57,
      "hand": "left"
    },
    {
      "midi": 52,
      "time": 15.45,
      "duration": 0.585,
      "velocity": 0.57,
      "hand": "left"
    },
    {
      "midi": 60,
      "time": 15.45,
      "duration": 0.6,
      "velocity": 0.66,
      "hand": "right"
    },
    {
      "midi": 72,
      "time": 15.45,
      "duration": 0.6,
      "velocity": 0.66,
      "hand": "right"
    },
    {
      "midi": 52,
      "time": 16.05,
      "duration": 0.6,
      "velocity": 0.62,
      "hand": "left"
    },
    {
      "midi": 55,
      "time": 16.05,
      "duration": 0.6,
      "velocity": 0.62,
      "hand": "left"
    },
    {
      "midi": 64,
      "time": 16.05,
      "duration": 0.6,
      "velocity": 0.59,
      "hand": "right"
    },
    {
      "midi": 71,
      "time": 16.05,
      "duration": 0.6,
      "velocity": 0.59,
      "hand": "right"
    },
    {
      "midi": 53,
      "time": 16.65,
      "duration": 0.6,
      "velocity": 0.56,
      "hand": "left"
    },
    {
      "midi": 60,
      "time": 16.65,
      "duration": 0.585,
      "velocity": 0.55,
      "hand": "right"
    },
    {
      "midi": 69,
      "time": 16.65,
      "duration": 0.6,
      "velocity": 0.55,
      "hand": "right"
    },
    {
      "midi": 48,
      "time": 17.25,
      "duration": 0.6,
      "velocity": 0.59,
      "hand": "left"
    },
    {
      "midi": 52,
      "time": 17.25,
      "duration": 0.585,
      "velocity": 0.59,
      "hand": "left"
    },
    {
      "midi": 60,
      "time": 17.25,
      "duration": 0.585,
      "velocity": 0.54,
      "hand": "right"
    },
    {
      "midi": 67,
      "time": 17.25,
      "duration": 0.6,
      "velocity": 0.54,
      "hand": "right"
    },
    {
      "midi": 45,
      "time": 17.85,
      "duration": 0.6,
      "velocity": 0.59,
      "hand": "left"
    },
    {
      "midi": 52,
      "time": 17.85,
      "duration": 0.6,
      "velocity": 0.59,
      "hand": "left"
    },
    {
      "midi": 60,
      "time": 17.85,
      "duration": 0.6,
      "velocity": 0.64,
      "hand": "right"
    },
    {
      "midi": 69,
      "time": 17.85,
      "duration": 0.6,
      "velocity": 0.64,
      "hand": "right"
    },
    {
      "midi": 50,
      "time": 18.45,
      "duration": 0.6,
      "velocity": 0.57,
      "hand": "left"
    },
    {
      "midi": 53,
      "time": 18.45,
      "duration": 0.6,
      "velocity": 0.57,
      "hand": "left"
    },
    {
      "midi": 65,
      "time": 18.45,
      "duration": 0.3,
      "velocity": 0.54,
      "hand": "right"
    },
    {
      "midi": 64,
      "time": 18.75,
      "duration": 0.3,
      "velocity": 0.57,
      "hand": "right"
    },
    {
      "midi": 43,
      "time": 19.05,
      "duration": 0.6,
      "velocity": 0.54,
      "hand": "left"
    },
    {
      "midi": 55,
      "time": 19.05,
      "duration": 0.3,
      "velocity": 0.61,
      "hand": "left"
    },
    {
      "midi": 62,
      "time": 19.05,
      "duration": 0.6,
      "velocity": 0.54,
      "hand": "right"
    },
    {
      "midi": 53,
      "time": 19.35,
      "duration": 0.3,
      "velocity": 0.61,
      "hand": "left"
    },
    {
      "midi": 48,
      "time": 19.65,
      "duration": 1.65,
      "velocity": 0.59,
      "hand": "left"
    },
    {
      "midi": 52,
      "time": 19.65,
      "duration": 1.65,
      "velocity": 0.59,
      "hand": "left"
    },
    {
      "midi": 60,
      "time": 19.65,
      "duration": 1.65,
      "velocity": 0.55,
      "hand": "right"
    },
    {
      "midi": 48,
      "time": 21.45,
      "duration": 0.585,
      "velocity": 0.65,
      "hand": "left"
    },
    {
      "midi": 52,
      "time": 21.45,
      "duration": 0.6,
      "velocity": 0.65,
      "hand": "left"
    },
    {
      "midi": 60,
      "time": 21.45,
      "duration": 0.6,
      "velocity": 0.59,
      "hand": "right"
    },
    {
      "midi": 48,
      "time": 22.05,
      "duration": 0.6,
      "velocity": 0.64,
      "hand": "left"
    },
    {
      "midi": 55,
      "time": 22.05,
      "duration": 0.6,
      "velocity": 0.64,
      "hand": "left"
    },
    {
      "midi": 64,
      "time": 22.05,
      "duration": 0.585,
      "velocity": 0.7,
      "hand": "right"
    },
    {
      "midi": 67,
      "time": 22.05,
      "duration": 0.6,
      "velocity": 0.7,
      "hand": "right"
    },
    {
      "midi": 45,
      "time": 22.65,
      "duration": 0.6,
      "velocity": 0.69,
      "hand": "left"
    },
    {
      "midi": 60,
      "time": 22.65,
      "duration": 0.6,
      "velocity": 0.69,
      "hand": "right"
    },
    {
      "midi": 64,
      "time": 22.65,
      "duration": 0.6,
      "velocity": 0.65,
      "hand": "right"
    },
    {
      "midi": 69,
      "time": 22.65,
      "duration": 0.6,
      "velocity": 0.65,
      "hand": "right"
    },
    {
      "midi": 47,
      "time": 23.25,
      "duration": 0.3,
      "velocity": 0.55,
      "hand": "left"
    },
    {
      "midi": 59,
      "time": 23.25,
      "duration": 0.6,
      "velocity": 0.55,
      "hand": "left"
    },
    {
      "midi": 62,
      "time": 23.25,
      "duration": 0.585,
      "velocity": 0.57,
      "hand": "right"
    },
    {
      "midi": 67,
      "time": 23.25,
      "duration": 0.6,
      "velocity": 0.57,
      "hand": "right"
    },
    {
      "midi": 48,
      "time": 23.55,
      "duration": 0.3,
      "velocity": 0.57,
      "hand": "left"
    },
    {
      "midi": 50,
      "time": 23.85,
      "duration": 0.6,
      "velocity": 0.56,
      "hand": "left"
    },
    {
      "midi": 57,
      "time": 23.85,
      "duration": 0.6,
      "velocity": 0.56,
      "hand": "left"
    },
    {
      "midi": 62,
      "time": 23.85,
      "duration": 0.3,
      "velocity": 0.55,
      "hand": "right"
    },
    {
      "midi": 66,
      "time": 23.85,
      "duration": 0.6,
      "velocity": 0.54,
      "hand": "right"
    },
    {
      "midi": 60,
      "time": 24.15,
      "duration": 0.3,
      "velocity": 0.57,
      "hand": "right"
    },
    {
      "midi": 43,
      "time": 24.45,
      "duration": 1.8,
      "velocity": 0.58,
      "hand": "left"
    },
    {
      "midi": 55,
      "time": 24.45,
      "duration": 1.8,
      "velocity": 0.58,
      "hand": "left"
    },
    {
      "midi": 67,
      "time": 24.45,
      "duration": 1.8,
      "velocity": 0.58,
      "hand": "right"
    },
    {
      "midi": 48,
      "time": 26.25,
      "duration": 0.6,
      "velocity": 0.55,
      "hand": "left"
    },
    {
      "midi": 52,
      "time": 26.25,
      "duration": 0.6,
      "velocity": 0.55,
      "hand": "left"
    },
    {
      "midi": 60,
      "time": 26.25,
      "duration": 0.6,
      "velocity": 0.49,
      "hand": "right"
    },
    {
      "midi": 47,
      "time": 26.85,
      "duration": 0.6,
      "velocity": 0.65,
      "hand": "left"
    },
    {
      "midi": 55,
      "time": 26.85,
      "duration": 0.585,
      "velocity": 0.65,
      "hand": "left"
    },
    {
      "midi": 62,
      "time": 26.85,
      "duration": 0.6,
      "velocity": 0.65,
      "hand": "right"
    },
    {
      "midi": 67,
      "time": 26.85,
      "duration": 0.585,
      "velocity": 0.65,
      "hand": "right"
    },
    {
      "midi": 48,
      "time": 27.45,
      "duration": 0.6,
      "velocity": 0.59,
      "hand": "left"
    },
    {
      "midi": 55,
      "time": 27.45,
      "duration": 0.6,
      "velocity": 0.59,
      "hand": "left"
    },
    {
      "midi": 64,
      "time": 27.45,
      "duration": 0.6,
      "velocity": 0.57,
      "hand": "right"
    },
    {
      "midi": 67,
      "time": 27.45,
      "duration": 0.6,
      "velocity": 0.57,
      "hand": "right"
    },
    {
      "midi": 53,
      "time": 28.05,
      "duration": 0.585,
      "velocity": 0.6,
      "hand": "left"
    },
    {
      "midi": 60,
      "time": 28.05,
      "duration": 0.6,
      "velocity": 0.63,
      "hand": "right"
    },
    {
      "midi": 69,
      "time": 28.05,
      "duration": 0.6,
      "velocity": 0.63,
      "hand": "right"
    },
    {
      "midi": 50,
      "time": 28.65,
      "duration": 0.6,
      "velocity": 0.6,
      "hand": "left"
    },
    {
      "midi": 53,
      "time": 28.65,
      "duration": 0.6,
      "velocity": 0.6,
      "hand": "left"
    },
    {
      "midi": 62,
      "time": 28.65,
      "duration": 0.6,
      "velocity": 0.64,
      "hand": "right"
    },
    {
      "midi": 71,
      "time": 28.65,
      "duration": 0.6,
      "velocity": 0.64,
      "hand": "right"
    },
    {
      "midi": 45,
      "time": 29.25,
      "duration": 1.8,
      "velocity": 0.61,
      "hand": "left"
    },
    {
      "midi": 52,
      "time": 29.25,
      "duration": 1.8,
      "velocity": 0.61,
      "hand": "left"
    },
    {
      "midi": 60,
      "time": 29.25,
      "duration": 1.8,
      "velocity": 0.61,
      "hand": "right"
    },
    {
      "midi": 72,
      "time": 29.25,
      "duration": 1.8,
      "velocity": 0.61,
      "hand": "right"
    },
    {
      "midi": 44,
      "time": 31.05,
      "duration": 0.6,
      "velocity": 0.66,
      "hand": "left"
    },
    {
      "midi": 59,
      "time": 31.05,
      "duration": 0.6,
      "velocity": 0.66,
      "hand": "left"
    },
    {
      "midi": 64,
      "time": 31.05,
      "duration": 0.585,
      "velocity": 0.57,
      "hand": "right"
    },
    {
      "midi": 71,
      "time": 31.05,
      "duration": 0.6,
      "velocity": 0.57,
      "hand": "right"
    },
    {
      "midi": 45,
      "time": 31.65,
      "duration": 0.6,
      "velocity": 0.55,
      "hand": "left"
    },
    {
      "midi": 57,
      "time": 31.65,
      "duration": 0.6,
      "velocity": 0.55,
      "hand": "left"
    },
    {
      "midi": 64,
      "time": 31.65,
      "duration": 0.585,
      "velocity": 0.63,
      "hand": "right"
    },
    {
      "midi": 72,
      "time": 31.65,
      "duration": 0.6,
      "velocity": 0.63,
      "hand": "right"
    },
    {
      "midi": 47,
      "time": 32.25,
      "duration": 0.6,
      "velocity": 0.56,
      "hand": "left"
    },
    {
      "midi": 56,
      "time": 32.25,
      "duration": 0.6,
      "velocity": 0.56,
      "hand": "left"
    },
    {
      "midi": 64,
      "time": 32.25,
      "duration": 0.585,
      "velocity": 0.59,
      "hand": "right"
    },
    {
      "midi": 71,
      "time": 32.25,
      "duration": 0.6,
      "velocity": 0.59,
      "hand": "right"
    },
    {
      "midi": 48,
      "time": 32.85,
      "duration": 0.6,
      "velocity": 0.59,
      "hand": "left"
    },
    {
      "midi": 57,
      "time": 32.85,
      "duration": 0.6,
      "velocity": 0.59,
      "hand": "left"
    },
    {
      "midi": 64,
      "time": 32.85,
      "duration": 0.6,
      "velocity": 0.54,
      "hand": "right"
    },
    {
      "midi": 69,
      "time": 32.85,
      "duration": 0.585,
      "velocity": 0.54,
      "hand": "right"
    },
    {
      "midi": 50,
      "time": 33.45,
      "duration": 0.6,
      "velocity": 0.59,
      "hand": "left"
    },
    {
      "midi": 54,
      "time": 33.45,
      "duration": 0.6,
      "velocity": 0.59,
      "hand": "left"
    },
    {
      "midi": 62,
      "time": 33.45,
      "duration": 0.3,
      "velocity": 0.54,
      "hand": "right"
    },
    {
      "midi": 69,
      "time": 33.45,
      "duration": 0.6,
      "velocity": 0.58,
      "hand": "right"
    },
    {
      "midi": 60,
      "time": 33.75,
      "duration": 0.3,
      "velocity": 0.53,
      "hand": "right"
    },
    {
      "midi": 43,
      "time": 34.05,
      "duration": 1.8,
      "velocity": 0.65,
      "hand": "left"
    },
    {
      "midi": 55,
      "time": 34.05,
      "duration": 1.8,
      "velocity": 0.65,
      "hand": "left"
    },
    {
      "midi": 67,
      "time": 34.05,
      "duration": 1.8,
      "velocity": 0.58,
      "hand": "right"
    },
    {
      "midi": 41,
      "time": 35.85,
      "duration": 0.6,
      "velocity": 0.68,
      "hand": "left"
    },
    {
      "midi": 60,
      "time": 35.85,
      "duration": 0.585,
      "velocity": 0.57,
      "hand": "right"
    },
    {
      "midi": 69,
      "time": 35.85,
      "duration": 0.585,
      "velocity": 0.57,
      "hand": "right"
    },
    {
      "midi": 45,
      "time": 36.45,
      "duration": 0.6,
      "velocity": 0.61,
      "hand": "left"
    },
    {
      "midi": 60,
      "time": 36.45,
      "duration": 0.585,
      "velocity": 0.61,
      "hand": "right"
    },
    {
      "midi": 65,
      "time": 36.45,
      "duration": 0.6,
      "velocity": 0.58,
      "hand": "right"
    },
    {
      "midi": 69,
      "time": 36.45,
      "duration": 0.6,
      "velocity": 0.58,
      "hand": "right"
    },
    {
      "midi": 48,
      "time": 37.05,
      "duration": 0.6,
      "velocity": 0.53,
      "hand": "left"
    },
    {
      "midi": 60,
      "time": 37.05,
      "duration": 0.3,
      "velocity": 0.61,
      "hand": "right"
    },
    {
      "midi": 64,
      "time": 37.05,
      "duration": 0.585,
      "velocity": 0.54,
      "hand": "right"
    },
    {
      "midi": 67,
      "time": 37.05,
      "duration": 0.6,
      "velocity": 0.54,
      "hand": "right"
    },
    {
      "midi": 59,
      "time": 37.35,
      "duration": 0.3,
      "velocity": 0.57,
      "hand": "left"
    },
    {
      "midi": 49,
      "time": 37.65,
      "duration": 0.6,
      "velocity": 0.57,
      "hand": "left"
    },
    {
      "midi": 57,
      "time": 37.65,
      "duration": 0.585,
      "velocity": 0.57,
      "hand": "left"
    },
    {
      "midi": 64,
      "time": 37.65,
      "duration": 0.6,
      "velocity": 0.64,
      "hand": "right"
    },
    {
      "midi": 69,
      "time": 37.65,
      "duration": 0.6,
      "velocity": 0.64,
      "hand": "right"
    },
    {
      "midi": 50,
      "time": 38.25,
      "duration": 0.6,
      "velocity": 0.57,
      "hand": "left"
    },
    {
      "midi": 57,
      "time": 38.25,
      "duration": 0.6,
      "velocity": 0.57,
      "hand": "left"
    },
    {
      "midi": 62,
      "time": 38.25,
      "duration": 0.6,
      "velocity": 0.52,
      "hand": "right"
    },
    {
      "midi": 65,
      "time": 38.25,
      "duration": 0.6,
      "velocity": 0.52,
      "hand": "right"
    },
    {
      "midi": 52,
      "time": 38.85,
      "duration": 1.8,
      "velocity": 0.56,
      "hand": "left"
    },
    {
      "midi": 56,
      "time": 38.85,
      "duration": 1.8,
      "velocity": 0.56,
      "hand": "left"
    },
    {
      "midi": 64,
      "time": 38.85,
      "duration": 1.8,
      "velocity": 0.54,
      "hand": "right"
    },
    {
      "midi": 45,
      "time": 40.65,
      "duration": 0.6,
      "velocity": 0.6,
      "hand": "left"
    },
    {
      "midi": 57,
      "time": 40.65,
      "duration": 0.6,
      "velocity": 0.6,
      "hand": "left"
    },
    {
      "midi": 60,
      "time": 40.65,
      "duration": 0.6,
      "velocity": 0.73,
      "hand": "right"
    },
    {
      "midi": 72,
      "time": 40.65,
      "duration": 0.6,
      "velocity": 0.73,
      "hand": "right"
    },
    {
      "midi": 52,
      "time": 41.25,
      "duration": 0.6,
      "velocity": 0.6,
      "hand": "left"
    },
    {
      "midi": 55,
      "time": 41.25,
      "duration": 0.6,
      "velocity": 0.6,
      "hand": "left"
    },
    {
      "midi": 64,
      "time": 41.25,
      "duration": 0.6,
      "velocity": 0.59,
      "hand": "right"
    },
    {
      "midi": 71,
      "time": 41.25,
      "duration": 0.6,
      "velocity": 0.59,
      "hand": "right"
    },
    {
      "midi": 53,
      "time": 41.85,
      "duration": 0.6,
      "velocity": 0.61,
      "hand": "left"
    },
    {
      "midi": 57,
      "time": 41.85,
      "duration": 0.6,
      "velocity": 0.61,
      "hand": "left"
    },
    {
      "midi": 60,
      "time": 41.85,
      "duration": 0.585,
      "velocity": 0.57,
      "hand": "right"
    },
    {
      "midi": 69,
      "time": 41.85,
      "duration": 0.6,
      "velocity": 0.57,
      "hand": "right"
    },
    {
      "midi": 48,
      "time": 42.45,
      "duration": 0.6,
      "velocity": 0.65,
      "hand": "left"
    },
    {
      "midi": 60,
      "time": 42.45,
      "duration": 0.585,
      "velocity": 0.65,
      "hand": "right"
    },
    {
      "midi": 64,
      "time": 42.45,
      "duration": 0.585,
      "velocity": 0.54,
      "hand": "right"
    },
    {
      "midi": 67,
      "time": 42.45,
      "duration": 0.6,
      "velocity": 0.54,
      "hand": "right"
    },
    {
      "midi": 45,
      "time": 43.05,
      "duration": 0.6,
      "velocity": 0.63,
      "hand": "left"
    },
    {
      "midi": 60,
      "time": 43.05,
      "duration": 0.6,
      "velocity": 0.63,
      "hand": "right"
    },
    {
      "midi": 64,
      "time": 43.05,
      "duration": 0.6,
      "velocity": 0.6,
      "hand": "right"
    },
    {
      "midi": 69,
      "time": 43.05,
      "duration": 0.6,
      "velocity": 0.6,
      "hand": "right"
    },
    {
      "midi": 50,
      "time": 43.65,
      "duration": 0.6,
      "velocity": 0.54,
      "hand": "left"
    },
    {
      "midi": 53,
      "time": 43.65,
      "duration": 0.6,
      "velocity": 0.54,
      "hand": "left"
    },
    {
      "midi": 65,
      "time": 43.65,
      "duration": 0.3,
      "velocity": 0.52,
      "hand": "right"
    },
    {
      "midi": 64,
      "time": 43.95,
      "duration": 0.3,
      "velocity": 0.55,
      "hand": "right"
    },
    {
      "midi": 43,
      "time": 44.25,
      "duration": 0.6,
      "velocity": 0.54,
      "hand": "left"
    },
    {
      "midi": 55,
      "time": 44.25,
      "duration": 0.3,
      "velocity": 0.6,
      "hand": "left"
    },
    {
      "midi": 62,
      "time": 44.25,
      "duration": 0.6,
      "velocity": 0.53,
      "hand": "right"
    },
    {
      "midi": 53,
      "time": 44.55,
      "duration": 0.3,
      "velocity": 0.59,
      "hand": "left"
    },
    {
      "midi": 48,
      "time": 44.85,
      "duration": 1.65,
      "velocity": 0.58,
      "hand": "left"
    },
    {
      "midi": 52,
      "time": 44.85,
      "duration": 1.65,
      "velocity": 0.58,
      "hand": "left"
    },
    {
      "midi": 60,
      "time": 44.85,
      "duration": 1.65,
      "velocity": 0.57,
      "hand": "right"
    }
  ]
}
