{
  "id": "chopin-fantaisie-impromptuchopin",
  "title": "Fantasia-Impromptu",
  "artist": "Frédéric Chopin",
  "difficulty": "Difícil",
  "bpm": 168,
  "duration": 254,
  "category": "Clássicos",
  "isPremium": true,
  "coverUrl": "/images/covers/placeholder.png",
  "notes": [
    {
      "midi": 44,
      "time": 0,
      "duration": 2.857,
      "velocity": 1,
      "hand": "left"
    },
    {
      "midi": 56,
      "time": 0,
      "duration": 2.857,
      "velocity": 1,
      "hand": "left"
    },
    {
      "midi": 37,
      "time": 2.857,
      "duration": 0.089,
      "velocity": 1,
      "hand": "left"
    },
    {
      "midi": 49,
      "time": 2.857,
      "duration": 0.089,
      "velocity": 1,
      "hand": "left"
    },
    {
      "midi": 56,
      "time": 2.946,
      "duration": 0.089,
      "velocity": 1,
      "hand": "left"
    },
    {
      "midi": 61,
      "time": 3.125,
      "duration": 0.089,
      "velocity": 1,
      "hand": "right"
    },
    {
      "midi": 64,
      "time": 3.214,
      "duration": 0.089,
      "velocity": 1,
      "hand": "right"
    },
    {
      "midi": 61,
      "time": 3.304,
      "duration": 0.089,
      "velocity": 1,
      "hand": "right"
    },
    {
      "midi": 56,
      "time": 3.482,
      "duration": 0.089,
      "velocity": 1,
      "hand": "left"
    },
    {
      "midi": 49,
      "time": 3.571,
      "duration": 0.089,
      "velocity": 1,
      "hand": "left"
    },
    {
      "midi": 56,
      "time": 3.661,
      "duration": 0.089,
      "velocity": 1,
      "hand": "left"
    },
    {
      "midi": 61,
      "time": 3.839,
      "duration": 0.089,
      "velocity": 1,
      "hand": "right"
    },
    {
      "midi": 64,
      "time": 3.929,
      "duration": 0.089,
      "velocity": 1,
      "hand": "right"
    },
    {
      "midi": 61,
      "time": 4.018,
      "duration": 0.089,
      "velocity": 1,
      "hand": "right"
    },
    {
      "midi": 56,
      "time": 4.196,
      "duration": 0.089,
      "velocity": 1,
      "hand": "left"
    },
    {
      "midi": 49,
      "time": 4.286,
      "duration": 0.089,
      "velocity": 1,
      "hand": "left"
    },
    {
      "midi": 56,
      "time": 4.375,
      "duration": 0.089,
      "velocity": 1,
      "hand": "left"
    },
    {
      "midi": 61,
      "time": 4.554,
      "duration": 0.089,
      "velocity": 1,
      "hand": "right"
    },
    {
      "midi": 64,
      "time": 4.643,
      "duration": 0.089,
      "velocity": 1,
      "hand": "right"
    },
    {
      "midi": 61,
      "time": 4.732,
      "duration": 0.089,
      "velocity": 1,
      "hand": "right"
    },
    {
      "midi": 56,
      "time": 4.911,
      "duration": 0.089,
      "velocity": 1,
      "hand": "left"
    },
    {
      "midi": 49,
      "time": 5,
      "duration": 0.089,
      "velocity": 1,
      "hand": "left"
    },
    {
      "midi": 56,
      "time": 5.089,
      "duration": 0.089,
      "velocity": 1,
      "hand": "left"
    },
    {
      "midi": 61,
      "time": 5.268,
      "duration": 0.089,
      "velocity": 1,
      "hand": "right"
    },
    {
      "midi": 64,
      "time": 5.357,
      "duration": 0.089,
      "velocity": 1,
      "hand": "right"
    },
    {
      "midi": 61,
      "time": 5.446,
      "duration": 0.089,
      "velocity": 1,
      "hand": "right"
    },
    {
      "midi": 56,
      "time": 5.625,
      "duration": 0.089,
      "velocity": 1,
      "hand": "left"
    },
    {
      "midi": 49,
      "time": 5.714,
      "duration": 0.089,
      "velocity": 1,
      "hand": "left"
    },
    {
      "midi": 56,
      "time": 5.804,
      "duration": 0.089,
      "velocity": 1,
      "hand": "left"
    },
    {
      "midi": 68,
      "time": 5.804,
      "duration": 0.089,
      "velocity": 1,
      "hand": "right"
    },
    {
      "midi": 69,
      "time": 5.893,
      "duration": 0.089,
      "velocity": 1,
      "hand": "right"
    },
    {
      "midi": 61,
      "time": 5.982,
      "duration": 0.089,
      "velocity": 1,
      "hand": "right"
    },
    {
      "midi": 68,
      "time": 5.982,
      "duration": 0.089,
      "velocity": 1,
      "hand": "right"
    },
    {
      "midi": 64,
      "time": 6.071,
      "duration": 0.089,
      "velocity": 1,
      "hand": "right"
    },
    {
      "midi": 67,
      "time": 6.071,
      "duration": 0.089,
      "velocity": 1,
      "hand": "right"
    },
    {
      "midi": 61,
      "time": 6.161,
      "duration": 0.089,
      "velocity": 1,
      "hand": "right"
    },
    {
      "midi": 68,
      "time": 6.161,
      "duration": 0.089,
      "velocity": 1,
      "hand": "right"
    },
    {
      "midi": 73,
      "time": 6.25,
      "duration": 0.089,
      "velocity": 1,
      "hand": "right"
    },
    {
      "midi": 56,
      "time": 6.339,
      "duration": 0.089,
      "velocity": 1,
      "hand": "left"
    },
    {
      "midi": 76,
      "time": 6.339,
      "duration": 0.089,
      "velocity": 1,
      "hand": "right"
    },
    {
      "midi": 52,
      "time": 6.429,
      "duration": 0.089,
      "velocity": 1,
      "hand": "left"
    },
    {
      "midi": 75,
      "time": 6.429,
      "duration": 0.089,
      "velocity": 1,
      "hand": "right"
    },
    {
      "midi": 56,
      "time": 6.518,
      "duration": 0.089,
      "velocity": 1,
      "hand": "left"
    },
    {
      "midi": 73,
      "time": 6.518,
      "duration": 0.089,
      "velocity": 1,
      "hand": "right"
    },
    {
      "midi": 75,
      "time": 6.607,
      "duration": 0.089,
      "velocity": 1,
      "hand": "right"
    },
    {
      "midi": 61,
      "time": 6.696,
      "duration": 0.089,
      "velocity": 1,
      "hand": "right"
    },
    {
      "midi": 73,
      "time": 6.696,
      "duration": 0.089,
      "velocity": 1,
      "hand": "right"
    },
    {
      "midi": 64,
      "time": 6.786,
      "duration": 0.089,
      "velocity": 1,
      "hand": "right"
    },
    {
      "midi": 72,
      "time": 6.786,
      "duration": 0.089,
      "velocity": 1,
      "hand": "right"
    },
    {
      "midi": 61,
      "time": 6.875,
      "duration": 0.089,
      "velocity": 1,
      "hand": "right"
    },
    {
      "midi": 73,
      "time": 6.875,
      "duration": 0.089,
      "velocity": 1,
      "hand": "right"
    },
    {
      "midi": 76,
      "time": 6.964,
      "duration": 0.089,
      "velocity": 1,
      "hand": "right"
    },
    {
      "midi": 56,
      "time": 7.054,
      "duration": 0.089,
      "velocity": 1,
      "hand": "left"
    },
    {
      "midi": 80,
      "time": 7.054,
      "duration": 0.089,
      "velocity": 1,
      "hand": "right"
    },
    {
      "midi": 49,
      "time": 7.143,
      "duration": 0.089,
      "velocity": 1,
      "hand": "left"
    },
    {
      "midi": 56,
      "time": 7.232,
      "duration": 0.089,
      "velocity": 1,
      "hand": "left"
    },
    {
      "midi": 68,
      "time": 7.232,
      "duration": 0.089,
      "velocity": 1,
      "hand": "right"
    },
    {
      "midi": 69,
      "time": 7.321,
      "duration": 0.089,
      "velocity": 1,
      "hand": "right"
    },
    {
      "midi": 61,
      "time": 7.411,
      "duration": 0.089,
      "velocity": 1,
      "hand": "right"
    },
    {
      "midi": 68,
      "time": 7.411,
      "duration": 0.089,
      "velocity": 1,
      "hand": "right"
    },
    {
      "midi": 64,
      "time": 7.5,
      "duration": 0.089,
      "velocity": 1,
      "hand": "right"
    },
    {
      "midi": 67,
      "time": 7.5,
      "duration": 0.089,
      "velocity": 1,
      "hand": "right"
    },
    {
      "midi": 61,
      "time": 7.589,
      "duration": 0.089,
      "velocity": 1,
      "hand": "right"
    },
    {
      "midi": 68,
      "time": 7.589,
      "duration": 0.089,
      "velocity": 1,
      "hand": "right"
    },
    {
      "midi": 73,
      "time": 7.679,
      "duration": 0.089,
      "velocity": 1,
      "hand": "right"
    },
    {
      "midi": 56,
      "time": 7.768,
      "duration": 0.089,
      "velocity": 1,
      "hand": "left"
    },
    {
      "midi": 76,
      "time": 7.768,
      "duration": 0.089,
      "velocity": 1,
      "hand": "right"
    },
    {
      "midi": 52,
      "time": 7.857,
      "duration": 0.089,
      "velocity": 1,
      "hand": "left"
    },
    {
      "midi": 75,
      "time": 7.857,
      "duration": 0.089,
      "velocity": 1,
      "hand": "right"
    },
    {
      "midi": 56,
      "time": 7.946,
      "duration": 0.089,
      "velocity": 1,
      "hand": "left"
    },
    {
      "midi": 73,
      "time": 7.946,
      "duration": 0.089,
      "velocity": 1,
      "hand": "right"
    },
    {
      "midi": 75,
      "time": 8.036,
      "duration": 0.089,
      "velocity": 1,
      "hand": "right"
    },
    {
      "midi": 61,
      "time": 8.125,
      "duration": 0.089,
      "velocity": 1,
      "hand": "right"
    },
    {
      "midi": 73,
      "time": 8.125,
      "duration": 0.089,
      "velocity": 1,
      "hand": "right"
    },
    {
      "midi": 64,
      "time": 8.214,
      "duration": 0.089,
      "velocity": 1,
      "hand": "right"
    },
    {
      "midi": 72,
      "time": 8.214,
      "duration": 0.089,
      "velocity": 1,
      "hand": "right"
    },
    {
      "midi": 61,
      "time": 8.304,
      "duration": 0.089,
      "velocity": 1,
      "hand": "right"
    },
    {
      "midi": 73,
      "time": 8.304,
      "duration": 0.089,
      "velocity": 1,
      "hand": "right"
    },
    {
      "midi": 76,
      "time": 8.393,
      "duration": 0.089,
      "velocity": 1,
      "hand": "right"
    },
    {
      "midi": 56,
      "time": 8.482,
      "duration": 0.089,
      "velocity": 1,
      "hand": "left"
    },
    {
      "midi": 80,
      "time": 8.482,
      "duration": 0.089,
      "velocity": 1,
      "hand": "right"
    },
    {
      "midi": 51,
      "time": 8.571,
      "duration": 0.089,
      "velocity": 1,
      "hand": "left"
    },
    {
      "midi": 57,
      "time": 8.661,
      "duration": 0.089,
      "velocity": 1,
      "hand": "left"
    },
    {
      "midi": 69,
      "time": 8.661,
      "duration": 0.089,
      "velocity": 1,
      "hand": "right"
    },
    {
      "midi": 73,
      "time": 8.75,
      "duration": 0.089,
      "velocity": 1,
      "hand": "right"
    },
    {
      "midi": 61,
      "time": 8.839,
      "duration": 0.089,
      "velocity": 1,
      "hand": "right"
    },
    {
      "midi": 75,
      "time": 8.839,
      "duration": 0.089,
      "velocity": 1,
      "hand": "right"
    },
    {
      "midi": 66,
      "time": 8.929,
      "duration": 0.089,
      "velocity": 1,
      "hand": "right"
    },
    {
      "midi": 78,
      "time": 8.929,
      "duration": 0.089,
      "velocity": 1,
      "hand": "right"
    },
    {
      "midi": 61,
      "time": 9.018,
      "duration": 0.089,
      "velocity": 1,
      "hand": "right"
    },
    {
      "midi": 81,
      "time": 9.018,
      "duration": 0.089,
      "velocity": 1,
      "hand": "right"
    },
    {
      "midi": 85,
      "time": 9.107,
      "duration": 0.089,
      "velocity": 1,
      "hand": "right"
    },
    {
      "midi": 57,
      "time": 9.196,
      "duration": 0.089,
      "velocity": 1,
      "hand": "left"
    },
    {
      "midi": 87,
      "time": 9.196,
      "duration": 0.089,
      "velocity": 1,
      "hand": "right"
    },
    {
      "midi": 54,
      "time": 9.286,
      "duration": 0.089,
      "velocity": 1,
      "hand": "left"
    },
    {
      "midi": 95,
      "time": 9.286,
      "duration": 0.089,
      "velocity": 1,
      "hand": "right"
    },
    {
      "midi": 61,
      "time": 9.375,
      "duration": 0.089,
      "velocity": 1,
      "hand": "right"
    },
    {
      "midi": 93,
      "time": 9.375,
      "duration": 0.089,
      "velocity": 1,
      "hand": "right"
    },
    {
      "midi": 92,
      "time": 9.464,
      "duration": 0.089,
      "velocity": 1,
      "hand": "right"
    },
    {
      "midi": 63,
      "time": 9.554,
      "duration": 0.089,
      "velocity": 1,
      "hand": "right"
    },
    {
      "midi": 90,
      "time": 9.554,
      "duration": 0.089,
      "velocity": 1,
      "hand": "right"
    },
    {
      "midi": 69,
      "time": 9.643,
      "duration": 0.089,
      "velocity": 1,
      "hand": "right"
    },
    {
      "midi": 88,
      "time": 9.643,
      "duration": 0.089,
      "velocity": 1,
      "hand": "right"
    },
    {
      "midi": 63,
      "time": 9.732,
      "duration": 0.089,
      "velocity": 1,
      "hand": "right"
    },
    {
      "midi": 87,
      "time": 9.732,
      "duration": 0.089,
      "velocity": 1,
      "hand": "right"
    },
    {
      "midi": 90,
      "time": 9.821,
      "duration": 0.089,
      "velocity": 1,
      "hand": "right"
    },
    {
      "midi": 61,
      "time": 9.911,
      "duration": 0.089,
      "velocity": 1,
      "hand": "right"
    },
    {
      "midi": 85,
      "time": 9.911,
      "duration": 0.089,
      "velocity": 1,
      "hand": "right"
    },
    {
      "midi": 44,
      "time": 10,
      "duration": 0.089,
      "velocity": 1,
      "hand": "left"
    },
    {
      "midi": 84,
      "time": 10,
      "duration": 0.089,
      "velocity": 1,
      "hand": "right"
    },
    {
      "midi": 51,
      "time": 10.089,
      "duration": 0.089,
      "velocity": 1,
      "hand": "left"
    },
    {
      "midi": 87,
      "time": 10.089,
      "duration": 0.089,
      "velocity": 1,
      "hand": "right"
    },
    {
      "midi": 81,
      "time": 10.179,
      "duration": 0.089,
      "velocity": 1,
      "hand": "right"
    },
    {
      "midi": 54,
      "time": 10.268,
      "duration": 0.089,
      "velocity": 1,
      "hand": "left"
    },
    {
      "midi": 80,
      "time": 10.268,
      "duration": 0.089,
      "velocity": 1,
      "hand": "right"
    },
    {
      "midi": 60,
      "time": 10.357,
      "duration": 0.089,
      "velocity": 1,
      "hand": "right"
    },
    {
      "midi": 78,
      "time": 10.357,
      "duration": 0.089,
      "velocity": 1,
      "hand": "right"
    },
    {
      "midi": 54,
      "time": 10.446,
      "duration": 0.089,
      "velocity": 1,
      "hand": "left"
    },
    {
      "midi": 81,
      "time": 10.446,
      "duration": 0.089,
      "velocity": 1,
      "hand": "right"
    },
    {
      "midi": 76,
      "time": 10.536,
      "duration": 0.089,
      "velocity": 1,
      "hand": "right"
    },
    {
      "midi": 51,
      "time": 10.625,
      "duration": 0.089,
      "velocity": 1,
      "hand": "left"
    },
    {
      "midi": 75,
      "time": 10.625,
      "duration": 0.089,
      "velocity": 1,
      "hand": "right"
    },
    {
      "midi": 44,
      "time": 10.714,
      "duration": 0.089,
      "velocity": 1,
      "hand": "left"
    },
    {
      "midi": 78,
      "time": 10.714,
      "duration": 0.089,
      "velocity": 1,
      "hand": "right"
    },
    {
      "midi": 51,
      "time": 10.804,
      "duration": 0.089,
      "velocity": 1,
      "hand": "left"
    },
    {
      "midi": 73,
      "time": 10.804,
      "duration": 0.089,
      "velocity": 1,
      "hand": "right"
    },
    {
      "midi": 72,
      "time": 10.893,
      "duration": 0.089,
      "velocity": 1,
      "hand": "right"
    },
    {
      "midi": 54,
      "time": 10.982,
      "duration": 0.089,
      "velocity": 1,
      "hand": "left"
    },
    {
      "midi": 75,
      "time": 10.982,
      "duration": 0.089,
      "velocity": 1,
      "hand": "right"
    },
    {
      "midi": 60,
      "time": 11.071,
      "duration": 0.089,
      "velocity": 1,
      "hand": "right"
    },
    {
      "midi": 69,
      "time": 11.071,
      "duration": 0.089,
      "velocity": 1,
      "hand": "right"
    },
    {
      "midi": 54,
      "time": 11.161,
      "duration": 0.089,
      "velocity": 1,
      "hand": "left"
    },
    {
      "midi": 68,
      "time": 11.161,
      "duration": 0.089,
      "velocity": 1,
      "hand": "right"
    },
    {
      "midi": 71,
      "time": 11.25,
      "duration": 0.089,
      "velocity": 1,
      "hand": "right"
    },
    {
      "midi": 51,
      "time": 11.339,
      "duration": 0.089,
      "velocity": 1,
      "hand": "left"
    },
    {
      "midi": 69,
      "time": 11.339,
      "duration": 0.179,
      "velocity": 1,
      "hand": "right"
    },
    {
      "midi": 49,
      "time": 11.429,
      "duration": 0.089,
      "velocity": 1,
      "hand": "left"
    },
    {
      "midi": 56,
      "time": 11.518,
      "duration": 0.089,
      "velocity": 1,
      "hand": "left"
    },
    {
      "midi": 68,
      "time": 11.518,
      "duration": 0.089,
      "velocity": 1,
      "hand": "right"
    },
    {
      "midi": 69,
      "time": 11.607,
      "duration": 0.089,
      "velocity": 1,
      "hand": "right"
    },
    {
      "midi": 61,
      "time": 11.696,
      "duration": 0.089,
      "velocity": 1,
      "hand": "right"
    },
    {
      "midi": 68,
      "time": 11.696,
      "duration": 0.089,
      "velocity": 1,
      "hand": "right"
    },
    {
      "midi": 64,
      "time": 11.786,
      "duration": 0.089,
      "velocity": 1,
      "hand": "right"
    },
    {
      "midi": 67,
      "time": 11.786,
      "duration": 0.089,
      "velocity": 1,
      "hand": "right"
    },
    {
      "midi": 61,
      "time": 11.875,
      "duration": 0.089,
      "velocity": 1,
      "hand": "right"
    },
    {
      "midi": 68,
      "time": 11.875,
      "duration": 0.089,
      "velocity": 1,
      "hand": "right"
    },
    {
      "midi": 73,
      "time": 11.964,
      "duration": 0.089,
      "velocity": 1,
      "hand": "right"
    },
    {
      "midi": 56,
      "time": 12.054,
      "duration": 0.089,
      "velocity": 1,
      "hand": "left"
    },
    {
      "midi": 76,
      "time": 12.054,
      "duration": 0.089,
      "velocity": 1,
      "hand": "right"
    },
    {
      "midi": 52,
      "time": 12.143,
      "duration": 0.089,
      "velocity": 1,
      "hand": "left"
    },
    {
      "midi": 75,
      "time": 12.143,
      "duration": 0.089,
      "velocity": 1,
      "hand": "right"
    },
    {
      "midi": 56,
      "time": 12.232,
      "duration": 0.089,
      "velocity": 1,
      "hand": "left"
    },
    {
      "midi": 73,
      "time": 12.232,
      "duration": 0.089,
      "velocity": 1,
      "hand": "right"
    },
    {
      "midi": 75,
      "time": 12.321,
      "duration": 0.089,
      "velocity": 1,
      "hand": "right"
    },
    {
      "midi": 61,
      "time": 12.411,
      "duration": 0.089,
      "velocity": 1,
      "hand": "right"
    },
    {
      "midi": 73,
      "time": 12.411,
      "duration": 0.089,
      "velocity": 1,
      "hand": "right"
    },
    {
      "midi": 64,
      "time": 12.5,
      "duration": 0.089,
      "velocity": 1,
      "hand": "right"
    },
    {
      "midi": 72,
      "time": 12.5,
      "duration": 0.089,
      "velocity": 1,
      "hand": "right"
    },
    {
      "midi": 61,
      "time": 12.589,
      "duration": 0.089,
      "velocity": 1,
      "hand": "right"
    },
    {
      "midi": 73,
      "time": 12.589,
      "duration": 0.089,
      "velocity": 1,
      "hand": "right"
    },
    {
      "midi": 76,
      "time": 12.679,
      "duration": 0.089,
      "velocity": 1,
      "hand": "right"
    },
    {
      "midi": 56,
      "time": 12.768,
      "duration": 0.089,
      "velocity": 1,
      "hand": "left"
    },
    {
      "midi": 80,
      "time": 12.768,
      "duration": 0.089,
      "velocity": 1,
      "hand": "right"
    },
    {
      "midi": 49,
      "time": 12.857,
      "duration": 0.089,
      "velocity": 1,
      "hand": "left"
    },
    {
      "midi": 56,
      "time": 12.946,
      "duration": 0.089,
      "velocity": 1,
      "hand": "left"
    },
    {
      "midi": 68,
      "time": 12.946,
      "duration": 0.089,
      "velocity": 1,
      "hand": "right"
    },
    {
      "midi": 70,
      "time": 13.036,
      "duration": 0.089,
      "velocity": 1,
      "hand": "right"
    },
    {
      "midi": 58,
      "time": 13.125,
      "duration": 0.089,
      "velocity": 1,
      "hand": "left"
    },
    {
      "midi": 68,
      "time": 13.125,
      "duration": 0.089,
      "velocity": 1,
      "hand": "right"
    },
    {
      "midi": 64,
      "time": 13.214,
      "duration": 0.089,
      "velocity": 1,
      "hand": "right"
    },
    {
      "midi": 67,
      "time": 13.214,
      "duration": 0.089,
      "velocity": 1,
      "hand": "right"
    },
    {
      "midi": 58,
      "time": 13.304,
      "duration": 0.089,
      "velocity": 1,
      "hand": "left"
    },
    {
      "midi": 68,
      "time": 13.304,
      "duration": 0.089,
      "velocity": 1,
      "hand": "right"
    },
    {
      "midi": 73,
      "time": 13.393,
      "duration": 0.089,
      "velocity": 1,
      "hand": "right"
    },
    {
      "midi": 56,
      "time": 13.482,
      "duration": 0.089,
      "velocity": 1,
      "hand": "left"
    },
    {
      "midi": 76,
      "time": 13.482,
      "duration": 0.089,
      "velocity": 1,
      "hand": "right"
    },
    {
      "midi": 52,
      "time": 13.571,
      "duration": 0.089,
      "velocity": 1,
      "hand": "left"
    },
    {
      "midi": 75,
      "time": 13.571,
      "duration": 0.089,
      "velocity": 1,
      "hand": "right"
    },
    {
      "midi": 56,
      "time": 13.661,
      "duration": 0.089,
      "velocity": 1,
      "hand": "left"
    },
    {
      "midi": 73,
      "time": 13.661,
      "duration": 0.089,
      "velocity": 1,
      "hand": "right"
    },
    {
      "midi": 75,
      "time": 13.75,
      "duration": 0.089,
      "velocity": 1,
      "hand": "right"
    },
    {
      "midi": 58,
      "time": 13.839,
      "duration": 0.089,
      "velocity": 1,
      "hand": "left"
    },
    {
      "midi": 73,
      "time": 13.839,
      "duration": 0.089,
      "velocity": 1,
      "hand": "right"
    },
    {
      "midi": 61,
      "time": 13.929,
      "duration": 0.089,
      "velocity": 1,
      "hand": "right"
    },
    {
      "midi": 72,
      "time": 13.929,
      "duration": 0.089,
      "velocity": 1,
      "hand": "right"
    },
    {
      "midi": 58,
      "time": 14.018,
      "duration": 0.089,
      "velocity": 1,
      "hand": "left"
    },
    {
      "midi": 73,
      "time": 14.018,
      "duration": 0.089,
      "velocity": 1,
      "hand": "right"
    },
    {
      "midi": 76,
      "time": 14.107,
      "duration": 0.089,
      "velocity": 1,
      "hand": "right"
    },
    {
      "midi": 56,
      "time": 14.196,
      "duration": 0.089,
      "velocity": 1,
      "hand": "left"
    },
    {
      "midi": 80,
      "time": 14.196,
      "duration": 0.089,
      "velocity": 1,
      "hand": "right"
    },
    {
      "midi": 51,
      "time": 14.286,
      "duration": 0.089,
      "velocity": 1,
      "hand": "left"
    },
    {
      "midi": 75,
      "time": 14.286,
      "duration": 0.089,
      "velocity": 1,
      "hand": "right"
    },
    {
      "midi": 56,
      "time": 14.375,
      "duration": 0.089,
      "velocity": 1,
      "hand": "left"
    },
    {
      "midi": 76,
      "time": 14.375,
      "duration": 0.089,
      "velocity": 1,
      "hand": "right"
    },
    {
      "midi": 75,
      "time": 14.464,
      "duration": 0.089,
      "velocity": 1,
      "hand": "right"
    },
    {
      "midi": 59,
      "time": 14.554,
      "duration": 0.089,
      "velocity": 1,
      "hand": "left"
    },
    {
      "midi": 74,
      "time": 14.554,
      "duration": 0.089,
      "velocity": 1,
      "hand": "right"
    },
    {
      "midi": 63,
      "time": 14.643,
      "duration": 0.089,
      "velocity": 1,
      "hand": "right"
    },
    {
      "midi": 75,
      "time": 14.643,
      "duration": 0.089,
      "velocity": 1,
      "hand": "right"
    },
    {
      "midi": 59,
      "time": 14.732,
      "duration": 0.089,
      "velocity": 1,
      "hand": "left"
    },
    {
      "midi": 83,
      "time": 14.732,
      "duration": 0.089,
      "velocity": 1,
      "hand": "right"
    },
    {
      "midi": 82,
      "time": 14.821,
      "duration": 0.089,
      "velocity": 1,
      "hand": "right"
    },
    {
      "midi": 56,
      "time": 14.911,
      "duration": 0.089,
      "velocity": 1,
      "hand": "left"
    },
    {
      "midi": 80,
      "time": 14.911,
      "duration": 0.089,
      "velocity": 1,
      "hand": "right"
    },
    {
      "midi": 51,
      "time": 15,
      "duration": 0.089,
      "velocity": 1,
      "hand": "left"
    },
    {
      "midi": 79,
      "time": 15,
      "duration": 0.089,
      "velocity": 1,
      "hand": "right"
    },
    {
      "midi": 58,
      "time": 15.089,
      "duration": 0.089,
      "velocity": 1,
      "hand": "left"
    },
    {
      "midi": 88,
      "time": 15.089,
      "duration": 0.089,
      "velocity": 1,
      "hand": "right"
    },
    {
      "midi": 87,
      "time": 15.179,
      "duration": 0.089,
      "velocity": 1,
      "hand": "right"
    },
    {
      "midi": 61,
      "time": 15.268,
      "duration": 0.089,
      "velocity": 1,
      "hand": "right"
    },
    {
      "midi": 85,
      "time": 15.268,
      "duration": 0.089,
      "velocity": 1,
      "hand": "right"
    },
    {
      "midi": 67,
      "time": 15.357,
      "duration": 0.089,
      "velocity": 1,
      "hand": "right"
    },
    {
      "midi": 83,
      "time": 15.357,
      "duration": 0.089,
      "velocity": 1,
      "hand": "right"
    },
    {
      "midi": 61,
      "time": 15.446,
      "duration": 0.089,
      "velocity": 1,
      "hand": "right"
    },
    {
      "midi": 82,
      "time": 15.446,
      "duration": 0.089,
      "velocity": 1,
      "hand": "right"
    },
    {
      "midi": 80,
      "time": 15.536,
      "duration": 0.089,
      "velocity": 1,
      "hand": "right"
    },
    {
      "midi": 58,
      "time": 15.625,
      "duration": 0.089,
      "velocity": 1,
      "hand": "left"
    },
    {
      "midi": 79,
      "time": 15.625,
      "duration": 0.089,
      "velocity": 1,
      "hand": "right"
    },
    {
      "midi": 44,
      "time": 15.714,
      "duration": 0.089,
      "velocity": 1,
      "hand": "left"
    },
    {
      "midi": 82,
      "time": 15.714,
      "duration": 0.089,
      "velocity": 1,
      "hand": "right"
    },
    {
      "midi": 51,
      "time": 15.804,
      "duration": 0.089,
      "velocity": 1,
      "hand": "left"
    },
    {
      "midi": 80,
      "time": 15.804,
      "duration": 0.089,
      "velocity": 1,
      "hand": "right"
    },
    {
      "midi": 83,
      "time": 15.893,
      "duration": 0.089,
      "velocity": 1,
      "hand": "right"
    },
    {
      "midi": 56,
      "time": 15.982,
      "duration": 0.089,
      "velocity": 1,
      "hand": "left"
    },
    {
      "midi": 74,
      "time": 15.982,
      "duration": 0.089,
      "velocity": 1,
      "hand": "right"
    },
    {
      "midi": 59,
      "time": 16.071,
      "duration": 0.089,
      "velocity": 1,
      "hand": "left"
    },
    {
      "midi": 76,
      "time": 16.071,
      "duration": 0.089,
      "velocity": 1,
      "hand": "right"
    },
    {
      "midi": 56,
      "time": 16.161,
      "duration": 0.089,
      "velocity": 1,
      "hand": "left"
    },
    {
      "midi": 75,
      "time": 16.161,
      "duration": 0.089,
      "velocity": 1,
      "hand": "right"
    },
    {
      "midi": 80,
      "time": 16.25,
      "duration": 0.089,
      "velocity": 1,
      "hand": "right"
    },
    {
      "midi": 51,
      "time": 16.339,
      "duration": 0.089,
      "velocity": 1,
      "hand": "left"
    },
    {
      "midi": 70,
      "time": 16.339,
      "duration": 0.089,
      "velocity": 1,
      "hand": "right"
    },
    {
      "midi": 44,
      "time": 16.429,
      "duration": 0.089,
      "velocity": 1,
      "hand": "left"
    },
    {
      "midi": 73,
      "time": 16.429,
      "duration": 0.089,
      "velocity": 1,
      "hand": "right"
    },
    {
      "midi": 51,
      "time": 16.518,
      "duration": 0.089,
      "velocity": 1,
      "hand": "left"
    },
    {
      "midi": 71,
      "time": 16.518,
      "duration": 0.089,
      "velocity": 1,
      "hand": "right"
    },
    {
      "midi": 75,
      "time": 16.607,
      "duration": 0.089,
      "velocity": 1,
      "hand": "right"
    },
    {
      "midi": 56,
      "time": 16.696,
      "duration": 0.089,
      "velocity": 1,
      "hand": "left"
    },
    {
      "midi": 67,
      "time": 16.696,
      "duration": 0.089,
      "velocity": 1,
      "hand": "right"
    },
    {
      "midi": 59,
      "time": 16.786,
      "duration": 0.089,
      "velocity": 1,
      "hand": "left"
    },
    {
      "midi": 70,
      "time": 16.786,
      "duration": 0.089,
      "velocity": 1,
      "hand": "right"
    },
    {
      "midi": 56,
      "time": 16.875,
      "duration": 0.089,
      "velocity": 1,
      "hand": "left"
    },
    {
      "midi": 68,
      "time": 16.875,
      "duration": 0.089,
      "velocity": 1,
      "hand": "right"
    },
    {
      "midi": 67,
      "time": 16.964,
      "duration": 0.089,
      "velocity": 1,
      "hand": "right"
    },
    {
      "midi": 51,
      "time": 17.054,
      "duration": 0.089,
      "velocity": 1,
      "hand": "left"
    },
    {
      "midi": 68,
      "time": 17.054,
      "duration": 0.089,
      "velocity": 1,
      "hand": "right"
    },
    {
      "midi": 45,
      "time": 17.143,
      "duration": 0.089,
      "velocity": 1,
      "hand": "left"
    },
    {
      "midi": 68,
      "time": 17.143,
      "duration": 0.089,
      "velocity": 1,
      "hand": "right"
    },
    {
      "midi": 49,
      "time": 17.232,
      "duration": 0.089,
      "velocity": 1,
      "hand": "left"
    },
    {
      "midi": 80,
      "time": 17.232,
      "duration": 0.089,
      "velocity": 1,
      "hand": "right"
    },
    {
      "midi": 72,
      "time": 17.321,
      "duration": 0.089,
      "velocity": 1,
      "hand": "right"
    },
    {
      "midi": 54,
      "time": 17.411,
      "duration": 0.089,
      "velocity": 1,
      "hand": "left"
    },
    {
      "midi": 73,
      "time": 17.411,
      "duration": 0.089,
      "velocity": 1,
      "hand": "right"
    },
    {
      "midi": 57,
      "time": 17.5,
      "duration": 0.089,
      "velocity": 1,
      "hand": "left"
    },
    {
      "midi": 66,
      "time": 17.5,
      "duration": 0.089,
      "velocity": 1,
      "hand": "right"
    },
    {
      "midi": 54,
      "time": 17.589,
      "duration": 0.089,
      "velocity": 1,
      "hand": "left"
    },
    {
      "midi": 78,
      "time": 17.589,
      "duration": 0.089,
      "velocity": 1,
      "hand": "right"
    },
    {
      "midi": 72,
      "time": 17.679,
      "duration": 0.089,
      "velocity": 1,
      "hand": "right"
    },
    {
      "midi": 49,
      "time": 17.768,
      "duration": 0.089,
      "velocity": 1,
      "hand": "left"
    },
    {
      "midi": 73,
      "time": 17.768,
      "duration": 0.089,
      "velocity": 1,
      "hand": "right"
    },
    {
      "midi": 45,
      "time": 17.857,
      "duration": 0.089,
      "velocity": 1,
      "hand": "left"
    },
    {
      "midi": 65,
      "time": 17.857,
      "duration": 0.089,
      "velocity": 1,
      "hand": "right"
    },
    {
      "midi": 49,
      "time": 17.946,
      "duration": 0.089,
      "velocity": 1,
      "hand": "left"
    },
    {
      "midi": 77,
      "time": 17.946,
      "duration": 0.089,
      "velocity": 1,
      "hand": "right"
    },
    {
      "midi": 72,
      "time": 18.036,
      "duration": 0.089,
      "velocity": 1,
      "hand": "right"
    },
    {
      "midi": 54,
      "time": 18.125,
      "duration": 0.089,
      "velocity": 1,
      "hand": "left"
    },
    {
      "midi": 73,
      "time": 18.125,
      "duration": 0.089,
      "velocity": 1,
      "hand": "right"
    },
    {
      "midi": 57,
      "time": 18.214,
      "duration": 0.089,
      "velocity": 1,
      "hand": "left"
    },
    {
      "midi": 66,
      "time": 18.214,
      "duration": 0.089,
      "velocity": 1,
      "hand": "right"
    },
    {
      "midi": 54,
      "time": 18.304,
      "duration": 0.089,
      "velocity": 1,
      "hand": "left"
    },
    {
      "midi": 78,
      "time": 18.304,
      "duration": 0.089,
      "velocity": 1,
      "hand": "right"
    },
    {
      "midi": 72,
      "time": 18.393,
      "duration": 0.089,
      "velocity": 1,
      "hand": "right"
    },
    {
      "midi": 49,
      "time": 18.482,
      "duration": 0.089,
      "velocity": 1,
      "hand": "left"
    },
    {
      "midi": 73,
      "time": 18.482,
      "duration": 0.089,
      "velocity": 1,
      "hand": "right"
    },
    {
      "midi": 47,
      "time": 18.571,
      "duration": 0.089,
      "velocity": 1,
      "hand": "left"
    },
    {
      "midi": 61,
      "time": 18.571,
      "duration": 0.089,
      "velocity": 1,
      "hand": "right"
    },
    {
      "midi": 54,
      "time": 18.661,
      "duration": 0.089,
      "velocity": 1,
      "hand": "left"
    },
    {
      "midi": 73,
      "time": 18.661,
      "duration": 0.089,
      "velocity": 1,
      "hand": "right"
    },
    {
      "midi": 66,
      "time": 18.75,
      "duration": 0.089,
      "velocity": 1,
      "hand": "right"
    },
    {
      "midi": 57,
      "time": 18.839,
      "duration": 0.089,
      "velocity": 1,
      "hand": "left"
    },
    {
      "midi": 69,
      "time": 18.839,
      "duration": 0.089,
      "velocity": 1,
      "hand": "right"
    },
    {
      "midi": 59,
      "time": 18.929,
      "duration": 0.089,
      "velocity": 1,
      "hand": "left"
    },
    {
      "midi": 63,
      "time": 18.929,
      "duration": 0.089,
      "velocity": 1,
      "hand": "right"
    },
    {
      "midi": 57,
      "time": 19.018,
      "duration": 0.089,
      "velocity": 1,
      "hand": "left"
    },
    {
      "midi": 75,
      "time": 19.018,
      "duration": 0.089,
      "velocity": 1,
      "hand": "right"
    },
    {
      "midi": 66,
      "time": 19.107,
      "duration": 0.089,
      "velocity": 1,
      "hand": "right"
    },
    {
      "midi": 54,
      "time": 19.196,
      "duration": 0.089,
      "velocity": 1,
      "hand": "left"
    },
    {
      "midi": 69,
      "time": 19.196,
      "duration": 0.089,
      "velocity": 1,
      "hand": "right"
    },
    {
      "midi": 40,
      "time": 19.286,
      "duration": 0.089,
      "velocity": 1,
      "hand": "left"
    },
    {
      "midi": 64,
      "time": 19.286,
      "duration": 0.089,
      "velocity": 1,
      "hand": "right"
    },
    {
      "midi": 47,
      "time": 19.375,
      "duration": 0.089,
      "velocity": 1,
      "hand": "left"
    },
    {
      "midi": 76,
      "time": 19.375,
      "duration": 0.089,
      "velocity": 1,
      "hand": "right"
    },
    {
      "midi": 68,
      "time": 19.464,
      "duration": 0.089,
      "velocity": 1,
      "hand": "right"
    },
    {
      "midi": 52,
      "time": 19.554,
      "duration": 0.089,
      "velocity": 1,
      "hand": "left"
    },
    {
      "midi": 71,
      "time": 19.554,
      "duration": 0.089,
      "velocity": 1,
      "hand": "right"
    },
    {
      "midi": 56,
      "time": 19.643,
      "duration": 0.089,
      "velocity": 1,
      "hand": "left"
    },
    {
      "midi": 68,
      "time": 19.643,
      "duration": 0.089,
      "velocity": 1,
      "hand": "right"
    },
    {
      "midi": 52,
      "time": 19.732,
      "duration": 0.089,
      "velocity": 1,
      "hand": "left"
    },
    {
      "midi": 80,
      "time": 19.732,
      "duration": 0.089,
      "velocity": 1,
      "hand": "right"
    },
    {
      "midi": 71,
      "time": 19.821,
      "duration": 0.089,
      "velocity": 1,
      "hand": "right"
    },
    {
      "midi": 47,
      "time": 19.911,
      "duration": 0.089,
      "velocity": 1,
      "hand": "left"
    },
    {
      "midi": 76,
      "time": 19.911,
      "duration": 0.089,
      "velocity": 1,
      "hand": "right"
    },
    {
      "midi": 45,
      "time": 20,
      "duration": 0.089,
      "velocity": 1,
      "hand": "left"
    },
    {
      "midi": 68,
      "time": 20,
      "duration": 0.089,
      "velocity": 1,
      "hand": "right"
    },
    {
      "midi": 49,
      "time": 20.089,
      "duration": 0.089,
      "velocity": 1,
      "hand": "left"
    },
    {
      "midi": 80,
      "time": 20.089,
      "duration": 0.089,
      "velocity": 1,
      "hand": "right"
    },
    {
      "midi": 72,
      "time": 20.179,
      "duration": 0.089,
      "velocity": 1,
      "hand": "right"
    },
    {
      "midi": 54,
      "time": 20.268,
      "duration": 0.089,
      "velocity": 1,
      "hand": "left"
    },
    {
      "midi": 73,
      "time": 20.268,
      "duration": 0.089,
      "velocity": 1,
      "hand": "right"
    },
    {
      "midi": 57,
      "time": 20.357,
      "duration": 0.089,
      "velocity": 1,
      "hand": "left"
    },
    {
      "midi": 66,
      "time": 20.357,
      "duration": 0.089,
      "velocity": 1,
      "hand": "right"
    },
    {
      "midi": 54,
      "time": 20.446,
      "duration": 0.089,
      "velocity": 1,
      "hand": "left"
    },
    {
      "midi": 78,
      "time": 20.446,
      "duration": 0.089,
      "velocity": 1,
      "hand": "right"
    },
    {
      "midi": 72,
      "time": 20.536,
      "duration": 0.089,
      "velocity": 1,
      "hand": "right"
    },
    {
      "midi": 49,
      "time": 20.625,
      "duration": 0.089,
      "velocity": 1,
      "hand": "left"
    },
    {
      "midi": 73,
      "time": 20.625,
      "duration": 0.089,
      "velocity": 1,
      "hand": "right"
    },
    {
      "midi": 45,
      "time": 20.714,
      "duration": 0.089,
      "velocity": 1,
      "hand": "left"
    },
    {
      "midi": 65,
      "time": 20.714,
      "duration": 0.089,
      "velocity": 1,
      "hand": "right"
    },
    {
      "midi": 49,
      "time": 20.804,
      "duration": 0.089,
      "velocity": 1,
      "hand": "left"
    },
    {
      "midi": 77,
      "time": 20.804,
      "duration": 0.089,
      "velocity": 1,
      "hand": "right"
    },
    {
      "midi": 72,
      "time": 20.893,
      "duration": 0.089,
      "velocity": 1,
      "hand": "right"
    },
    {
      "midi": 54,
      "time": 20.982,
      "duration": 0.089,
      "velocity": 1,
      "hand": "left"
    },
    {
      "midi": 73,
      "time": 20.982,
      "duration": 0.089,
      "velocity": 1,
      "hand": "right"
    },
    {
      "midi": 57,
      "time": 21.071,
      "duration": 0.089,
      "velocity": 1,
      "hand": "left"
    },
    {
      "midi": 66,
      "time": 21.071,
      "duration": 0.089,
      "velocity": 1,
      "hand": "right"
    },
    {
      "midi": 54,
      "time": 21.161,
      "duration": 0.089,
      "velocity": 1,
      "hand": "left"
    },
    {
      "midi": 78,
      "time": 21.161,
      "duration": 0.089,
      "velocity": 1,
      "hand": "right"
    },
    {
      "midi": 72,
      "time": 21.25,
      "duration": 0.089,
      "velocity": 1,
      "hand": "right"
    },
    {
      "midi": 49,
      "time": 21.339,
      "duration": 0.089,
      "velocity": 1,
      "hand": "left"
    },
    {
      "midi": 73,
      "time": 21.339,
      "duration": 0.089,
      "velocity": 1,
      "hand": "right"
    },
    {
      "midi": 47,
      "time": 21.429,
      "duration": 0.089,
      "velocity": 1,
      "hand": "left"
    },
    {
      "midi": 65,
      "time": 21.429,
      "duration": 0.089,
      "velocity": 1,
      "hand": "right"
    },
    {
      "midi": 54,
      "time": 21.518,
      "duration": 0.089,
      "velocity": 1,
      "hand": "left"
    },
    {
      "midi": 77,
      "time": 21.518,
      "duration": 0.089,
      "velocity": 1,
      "hand": "right"
    },
    {
      "midi": 71,
      "time": 21.607,
      "duration": 0.089,
      "velocity": 1,
      "hand": "right"
    },
    {
      "midi": 57,
      "time": 21.696,
      "duration": 0.089,
      "velocity": 1,
      "hand": "left"
    },
    {
      "midi": 75,
      "time": 21.696,
      "duration": 0.089,
      "velocity": 1,
      "hand": "right"
    },
    {
      "midi": 59,
      "time": 21.786,
      "duration": 0.089,
      "velocity": 1,
      "hand": "left"
    },
    {
      "midi": 66,
      "time": 21.786,
      "duration": 0.089,
      "velocity": 1,
      "hand": "right"
    },
    {
      "midi": 57,
      "time": 21.875,
      "duration": 0.089,
      "velocity": 1,
      "hand": "left"
    },
    {
      "midi": 78,
      "time": 21.875,
      "duration": 0.089,
      "velocity": 1,
      "hand": "right"
    },
    {
      "midi": 71,
      "time": 21.964,
      "duration": 0.089,
      "velocity": 1,
      "hand": "right"
    },
    {
      "midi": 54,
      "time": 22.054,
      "duration": 0.089,
      "velocity": 1,
      "hand": "left"
    },
    {
      "midi": 75,
      "time": 22.054,
      "duration": 0.089,
      "velocity": 1,
      "hand": "right"
    },
    {
      "midi": 40,
      "time": 22.143,
      "duration": 0.089,
      "velocity": 1,
      "hand": "left"
    },
    {
      "midi": 69,
      "time": 22.143,
      "duration": 0.089,
      "velocity": 1,
      "hand": "right"
    },
    {
      "midi": 47,
      "time": 22.232,
      "duration": 0.089,
      "velocity": 1,
      "hand": "left"
    },
    {
      "midi": 81,
      "time": 22.232,
      "duration": 0.089,
      "velocity": 1,
      "hand": "right"
    },
    {
      "midi": 71,
      "time": 22.321,
      "duration": 0.089,
      "velocity": 1,
      "hand": "right"
    },
    {
      "midi": 52,
      "time": 22.411,
      "duration": 0.089,
      "velocity": 1,
      "hand": "left"
    },
    {
      "midi": 76,
      "time": 22.411,
      "duration": 0.089,
      "velocity": 1,
      "hand": "right"
    },
    {
      "midi": 56,
      "time": 22.5,
      "duration": 0.089,
      "velocity": 1,
      "hand": "left"
    },
    {
      "midi": 68,
      "time": 22.5,
      "duration": 0.089,
      "velocity": 1,
      "hand": "right"
    },
    {
      "midi": 52,
      "time": 22.589,
      "duration": 0.089,
      "velocity": 1,
      "hand": "left"
    },
    {
      "midi": 80,
      "time": 22.589,
      "duration": 0.089,
      "velocity": 1,
      "hand": "right"
    },
    {
      "midi": 71,
      "time": 22.679,
      "duration": 0.089,
      "velocity": 1,
      "hand": "right"
    },
    {
      "midi": 47,
      "time": 22.768,
      "duration": 0.089,
      "velocity": 1,
      "hand": "left"
    },
    {
      "midi": 76,
      "time": 22.768,
      "duration": 0.089,
      "velocity": 1,
      "hand": "right"
    },
    {
      "midi": 45,
      "time": 22.857,
      "duration": 0.089,
      "velocity": 1,
      "hand": "left"
    },
    {
      "midi": 68,
      "time": 22.857,
      "duration": 0.089,
      "velocity": 1,
      "hand": "right"
    },
    {
      "midi": 49,
      "time": 22.946,
      "duration": 0.089,
      "velocity": 1,
      "hand": "left"
    },
    {
      "midi": 80,
      "time": 22.946,
      "duration": 0.089,
      "velocity": 1,
      "hand": "right"
    },
    {
      "midi": 72,
      "time": 23.036,
      "duration": 0.089,
      "velocity": 1,
      "hand": "right"
    },
    {
      "midi": 54,
      "time": 23.125,
      "duration": 0.089,
      "velocity": 1,
      "hand": "left"
    },
    {
      "midi": 73,
      "time": 23.125,
      "duration": 0.089,
      "velocity": 1,
      "hand": "right"
    },
    {
      "midi": 57,
      "time": 23.214,
      "duration": 0.089,
      "velocity": 1,
      "hand": "left"
    },
    {
      "midi": 66,
      "time": 23.214,
      "duration": 0.089,
      "velocity": 1,
      "hand": "right"
    },
    {
      "midi": 54,
      "time": 23.304,
      "duration": 0.089,
      "velocity": 1,
      "hand": "left"
    },
    {
      "midi": 78,
      "time": 23.304,
      "duration": 0.089,
      "velocity": 1,
      "hand": "right"
    },
    {
      "midi": 72,
      "time": 23.393,
      "duration": 0.089,
      "velocity": 1,
      "hand": "right"
    },
    {
      "midi": 49,
      "time": 23.482,
      "duration": 0.089,
      "velocity": 1,
      "hand": "left"
    },
    {
      "midi": 73,
      "time": 23.482,
      "duration": 0.089,
      "velocity": 1,
      "hand": "right"
    },
    {
      "midi": 45,
      "time": 23.571,
      "duration": 0.089,
      "velocity": 1,
      "hand": "left"
    },
    {
      "midi": 65,
      "time": 23.571,
      "duration": 0.089,
      "velocity": 1,
      "hand": "right"
    },
    {
      "midi": 49,
      "time": 23.661,
      "duration": 0.089,
      "velocity": 1,
      "hand": "left"
    },
    {
      "midi": 77,
      "time": 23.661,
      "duration": 0.089,
      "velocity": 1,
      "hand": "right"
    },
    {
      "midi": 72,
      "time": 23.75,
      "duration": 0.089,
      "velocity": 1,
      "hand": "right"
    },
    {
      "midi": 54,
      "time": 23.839,
      "duration": 0.089,
      "velocity": 1,
      "hand": "left"
    },
    {
      "midi": 73,
      "time": 23.839,
      "duration": 0.089,
      "velocity": 1,
      "hand": "right"
    },
    {
      "midi": 57,
      "time": 23.929,
      "duration": 0.089,
      "velocity": 1,
      "hand": "left"
    },
    {
      "midi": 66,
      "time": 23.929,
      "duration": 0.089,
      "velocity": 1,
      "hand": "right"
    },
    {
      "midi": 54,
      "time": 24.018,
      "duration": 0.089,
      "velocity": 1,
      "hand": "left"
    },
    {
      "midi": 78,
      "time": 24.018,
      "duration": 0.089,
      "velocity": 1,
      "hand": "right"
    },
    {
      "midi": 72,
      "time": 24.107,
      "duration": 0.089,
      "velocity": 1,
      "hand": "right"
    },
    {
      "midi": 49,
      "time": 24.196,
      "duration": 0.089,
      "velocity": 1,
      "hand": "left"
    },
    {
      "midi": 73,
      "time": 24.196,
      "duration": 0.089,
      "velocity": 1,
      "hand": "right"
    },
    {
      "midi": 47,
      "time": 24.286,
      "duration": 0.089,
      "velocity": 1,
      "hand": "left"
    },
    {
      "midi": 61,
      "time": 24.286,
      "duration": 0.089,
      "velocity": 1,
      "hand": "right"
    },
    {
      "midi": 54,
      "time": 24.375,
      "duration": 0.089,
      "velocity": 1,
      "hand": "left"
    },
    {
      "midi": 73,
      "time": 24.375,
      "duration": 0.089,
      "velocity": 1,
      "hand": "right"
    },
    {
      "midi": 66,
      "time": 24.464,
      "duration": 0.089,
      "velocity": 1,
      "hand": "right"
    },
    {
      "midi": 57,
      "time": 24.554,
      "duration": 0.089,
      "velocity": 1,
      "hand": "left"
    },
    {
      "midi": 69,
      "time": 24.554,
      "duration": 0.089,
      "velocity": 1,
      "hand": "right"
    },
    {
      "midi": 59,
      "time": 24.643,
      "duration": 0.089,
      "velocity": 1,
      "hand": "left"
    },
    {
      "midi": 63,
      "time": 24.643,
      "duration": 0.089,
      "velocity": 1,
      "hand": "right"
    },
    {
      "midi": 57,
      "time": 24.732,
      "duration": 0.089,
      "velocity": 1,
      "hand": "left"
    },
    {
      "midi": 75,
      "time": 24.732,
      "duration": 0.089,
      "velocity": 1,
      "hand": "right"
    },
    {
      "midi": 66,
      "time": 24.821,
      "duration": 0.089,
      "velocity": 1,
      "hand": "right"
    },
    {
      "midi": 54,
      "time": 24.911,
      "duration": 0.089,
      "velocity": 1,
      "hand": "left"
    },
    {
      "midi": 69,
      "time": 24.911,
      "duration": 0.089,
      "velocity": 1,
      "hand": "right"
    },
    {
      "midi": 40,
      "time": 25,
      "duration": 0.089,
      "velocity": 1,
      "hand": "left"
    },
    {
      "midi": 64,
      "time": 25,
      "duration": 0.089,
      "velocity": 1,
      "hand": "right"
    },
    {
      "midi": 47,
      "time": 25.089,
      "duration": 0.089,
      "velocity": 1,
      "hand": "left"
    },
    {
      "midi": 76,
      "time": 25.089,
      "duration": 0.089,
      "velocity": 1,
      "hand": "right"
    },
    {
      "midi": 68,
      "time": 25.179,
      "duration": 0.089,
      "velocity": 1,
      "hand": "right"
    },
    {
      "midi": 52,
      "time": 25.268,
      "duration": 0.089,
      "velocity": 1,
      "hand": "left"
    },
    {
      "midi": 71,
      "time": 25.268,
      "duration": 0.089,
      "velocity": 1,
      "hand": "right"
    },
    {
      "midi": 56,
      "time": 25.357,
      "duration": 0.089,
      "velocity": 1,
      "hand": "left"
    },
    {
      "midi": 68,
      "time": 25.357,
      "duration": 0.089,
      "velocity": 1,
      "hand": "right"
    },
    {
      "midi": 52,
      "time": 25.446,
      "duration": 0.089,
      "velocity": 1,
      "hand": "left"
    },
    {
      "midi": 80,
      "time": 25.446,
      "duration": 0.089,
      "velocity": 1,
      "hand": "right"
    },
    {
      "midi": 71,
      "time": 25.536,
      "duration": 0.089,
      "velocity": 1,
      "hand": "right"
    },
    {
      "midi": 47,
      "time": 25.625,
      "duration": 0.089,
      "velocity": 1,
      "hand": "left"
    },
    {
      "midi": 76,
      "time": 25.625,
      "duration": 0.089,
      "velocity": 1,
      "hand": "right"
    },
    {
      "midi": 45,
      "time": 25.714,
      "duration": 0.089,
      "velocity": 1,
      "hand": "left"
    },
    {
      "midi": 68,
      "time": 25.714,
      "duration": 0.089,
      "velocity": 1,
      "hand": "right"
    },
    {
      "midi": 49,
      "time": 25.804,
      "duration": 0.089,
      "velocity": 1,
      "hand": "left"
    },
    {
      "midi": 80,
      "time": 25.804,
      "duration": 0.089,
      "velocity": 1,
      "hand": "right"
    },
    {
      "midi": 72,
      "time": 25.893,
      "duration": 0.089,
      "velocity": 1,
      "hand": "right"
    },
    {
      "midi": 54,
      "time": 25.982,
      "duration": 0.089,
      "velocity": 1,
      "hand": "left"
    },
    {
      "midi": 73,
      "time": 25.982,
      "duration": 0.089,
      "velocity": 1,
      "hand": "right"
    },
    {
      "midi": 57,
      "time": 26.071,
      "duration": 0.089,
      "velocity": 1,
      "hand": "left"
    },
    {
      "midi": 66,
      "time": 26.071,
      "duration": 0.089,
      "velocity": 1,
      "hand": "right"
    },
    {
      "midi": 54,
      "time": 26.161,
      "duration": 0.089,
      "velocity": 1,
      "hand": "left"
    },
    {
      "midi": 78,
      "time": 26.161,
      "duration": 0.089,
      "velocity": 1,
      "hand": "right"
    },
    {
      "midi": 72,
      "time": 26.25,
      "duration": 0.089,
      "velocity": 1,
      "hand": "right"
    },
    {
      "midi": 49,
      "time": 26.339,
      "duration": 0.089,
      "velocity": 1,
      "hand": "left"
    },
    {
      "midi": 73,
      "time": 26.339,
      "duration": 0.089,
      "velocity": 1,
      "hand": "right"
    },
    {
      "midi": 45,
      "time": 26.429,
      "duration": 0.089,
      "velocity": 1,
      "hand": "left"
    },
    {
      "midi": 75,
      "time": 26.429,
      "duration": 0.089,
      "velocity": 1,
      "hand": "right"
    },
    {
      "midi": 51,
      "time": 26.518,
      "duration": 0.089,
      "velocity": 1,
      "hand": "left"
    },
    {
      "midi": 87,
      "time": 26.518,
      "duration": 0.089,
      "velocity": 1,
      "hand": "right"
    },
    {
      "midi": 78,
      "time": 26.607,
      "duration": 0.089,
      "velocity": 1,
      "hand": "right"
    },
    {
      "midi": 54,
      "time": 26.696,
      "duration": 0.089,
      "velocity": 1,
      "hand": "left"
    },
    {
      "midi": 81,
      "time": 26.696,
      "duration": 0.089,
      "velocity": 1,
      "hand": "right"
    },
    {
      "midi": 57,
      "time": 26.786,
      "duration": 0.089,
      "velocity": 1,
      "hand": "left"
    },
    {
      "midi": 73,
      "time": 26.786,
      "duration": 0.089,
      "velocity": 1,
      "hand": "right"
    },
    {
      "midi": 54,
      "time": 26.875,
      "duration": 0.089,
      "velocity": 1,
      "hand": "left"
    },
    {
      "midi": 85,
      "time": 26.875,
      "duration": 0.089,
      "velocity": 1,
      "hand": "right"
    },
    {
      "midi": 78,
      "time": 26.964,
      "duration": 0.089,
      "velocity": 1,
      "hand": "right"
    },
    {
      "midi": 51,
      "time": 27.054,
      "duration": 0.089,
      "velocity": 1,
      "hand": "left"
    },
    {
      "midi": 81,
      "time": 27.054,
      "duration": 0.089,
      "velocity": 1,
      "hand": "right"
    },
    {
      "midi": 44,
      "time": 27.143,
      "duration": 0.089,
      "velocity": 1,
      "hand": "left"
    },
    {
      "midi": 73,
      "time": 27.143,
      "duration": 0.089,
      "velocity": 1,
      "hand": "right"
    },
    {
      "midi": 51,
      "time": 27.232,
      "duration": 0.089,
      "velocity": 1,
      "hand": "left"
    },
    {
      "midi": 85,
      "time": 27.232,
      "duration": 0.089,
      "velocity": 1,
      "hand": "right"
    },
    {
      "midi": 75,
      "time": 27.321,
      "duration": 0.089,
      "velocity": 1,
      "hand": "right"
    },
    {
      "midi": 54,
      "time": 27.411,
      "duration": 0.089,
      "velocity": 1,
      "hand": "left"
    },
    {
      "midi": 78,
      "time": 27.411,
      "duration": 0.089,
      "velocity": 1,
      "hand": "right"
    },
    {
      "midi": 60,
      "time": 27.5,
      "duration": 0.089,
      "velocity": 1,
      "hand": "right"
    },
    {
      "midi": 72,
      "time": 27.5,
      "duration": 0.089,
      "velocity": 1,
      "hand": "right"
    },
    {
      "midi": 54,
      "time": 27.589,
      "duration": 0.089,
      "velocity": 1,
      "hand": "left"
    },
    {
      "midi": 84,
      "time": 27.589,
      "duration": 0.089,
      "velocity": 1,
      "hand": "right"
    },
    {
      "midi": 75,
      "time": 27.679,
      "duration": 0.089,
      "velocity": 1,
      "hand": "right"
    },
    {
      "midi": 51,
      "time": 27.768,
      "duration": 0.089,
      "velocity": 1,
      "hand": "left"
    },
    {
      "midi": 78,
      "time": 27.768,
      "duration": 0.089,
      "velocity": 1,
      "hand": "right"
    },
    {
      "midi": 44,
      "time": 27.857,
      "duration": 0.089,
      "velocity": 1,
      "hand": "left"
    },
    {
      "midi": 72,
      "time": 27.857,
      "duration": 0.089,
      "velocity": 1,
      "hand": "right"
    },
    {
      "midi": 51,
      "time": 27.946,
      "duration": 0.089,
      "velocity": 1,
      "hand": "left"
    },
    {
      "midi": 84,
      "time": 27.946,
      "duration": 0.089,
      "velocity": 1,
      "hand": "right"
    },
    {
      "midi": 75,
      "time": 28.036,
      "duration": 0.089,
      "velocity": 1,
      "hand": "right"
    },
    {
      "midi": 54,
      "time": 28.125,
      "duration": 0.089,
      "velocity": 1,
      "hand": "left"
    },
    {
      "midi": 78,
      "time": 28.125,
      "duration": 0.089,
      "velocity": 1,
      "hand": "right"
    },
    {
      "midi": 60,
      "time": 28.214,
      "duration": 0.089,
      "velocity": 1,
      "hand": "right"
    },
    {
      "midi": 72,
      "time": 28.214,
      "duration": 0.089,
      "velocity": 1,
      "hand": "right"
    },
    {
      "midi": 54,
      "time": 28.304,
      "duration": 0.089,
      "velocity": 1,
      "hand": "left"
    },
    {
      "midi": 84,
      "time": 28.304,
      "duration": 0.089,
      "velocity": 1,
      "hand": "right"
    },
    {
      "midi": 75,
      "time": 28.393,
      "duration": 0.089,
      "velocity": 1,
      "hand": "right"
    },
    {
      "midi": 51,
      "time": 28.482,
      "duration": 0.089,
      "velocity": 1,
      "hand": "left"
    },
    {
      "midi": 78,
      "time": 28.482,
      "duration": 0.089,
      "velocity": 1,
      "hand": "right"
    },
    {
      "midi": 45,
      "time": 28.571,
      "duration": 0.089,
      "velocity": 1,
      "hand": "left"
    },
    {
      "midi": 72,
      "time": 28.571,
      "duration": 0.089,
      "velocity": 1,
      "hand": "right"
    },
    {
      "midi": 51,
      "time": 28.661,
      "duration": 0.089,
      "velocity": 1,
      "hand": "left"
    },
    {
      "midi": 84,
      "time": 28.661,
      "duration": 0.089,
      "velocity": 1,
      "hand": "right"
    },
    {
      "midi": 75,
      "time": 28.75,
      "duration": 0.089,
      "velocity": 1,
      "hand": "right"
    },
    {
      "midi": 54,
      "time": 28.839,
      "duration": 0.089,
      "velocity": 1,
      "hand": "left"
    },
    {
      "midi": 78,
      "time": 28.839,
      "duration": 0.089,
      "velocity": 1,
      "hand": "right"
    },
    {
      "midi": 59,
      "time": 28.929,
      "duration": 0.089,
      "velocity": 1,
      "hand": "left"
    },
    {
      "midi": 71,
      "time": 28.929,
      "duration": 0.089,
      "velocity": 1,
      "hand": "right"
    },
    {
      "midi": 54,
      "time": 29.018,
      "duration": 0.089,
      "velocity": 1,
      "hand": "left"
    },
    {
      "midi": 83,
      "time": 29.018,
      "duration": 0.089,
      "velocity": 1,
      "hand": "right"
    },
    {
      "midi": 75,
      "time": 29.107,
      "duration": 0.089,
      "velocity": 1,
      "hand": "right"
    },
    {
      "midi": 51,
      "time": 29.196,
      "duration": 0.089,
      "velocity": 1,
      "hand": "left"
    },
    {
      "midi": 78,
      "time": 29.196,
      "duration": 0.089,
      "velocity": 1,
      "hand": "right"
    },
    {
      "midi": 46,
      "time": 29.286,
      "duration": 0.089,
      "velocity": 1,
      "hand": "left"
    },
    {
      "midi": 71,
      "time": 29.286,
      "duration": 0.089,
      "velocity": 1,
      "hand": "right"
    },
    {
      "midi": 51,
      "time": 29.375,
      "duration": 0.089,
      "velocity": 1,
      "hand": "left"
    },
    {
      "midi": 83,
      "time": 29.375,
      "duration": 0.089,
      "velocity": 1,
      "hand": "right"
    },
    {
      "midi": 75,
      "time": 29.464,
      "duration": 0.089,
      "velocity": 1,
      "hand": "right"
    },
    {
      "midi": 54,
      "time": 29.554,
      "duration": 0.089,
      "velocity": 1,
      "hand": "left"
    },
    {
      "midi": 78,
      "time": 29.554,
      "duration": 0.089,
      "velocity": 1,
      "hand": "right"
    },
    {
      "midi": 58,
      "time": 29.643,
      "duration": 0.089,
      "velocity": 1,
      "hand": "left"
    },
    {
      "midi": 70,
      "time": 29.643,
      "duration": 0.089,
      "velocity": 1,
      "hand": "right"
    },
    {
      "midi": 54,
      "time": 29.732,
      "duration": 0.089,
      "velocity": 1,
      "hand": "left"
    },
    {
      "midi": 82,
      "time": 29.732,
      "duration": 0.089,
      "velocity": 1,
      "hand": "right"
    },
    {
      "midi": 75,
      "time": 29.821,
      "duration": 0.089,
      "velocity": 1,
      "hand": "right"
    },
    {
      "midi": 51,
      "time": 29.911,
      "duration": 0.089,
      "velocity": 1,
      "hand": "left"
    },
    {
      "midi": 78,
      "time": 29.911,
      "duration": 0.089,
      "velocity": 1,
      "hand": "right"
    },
    {
      "midi": 48,
      "time": 30,
      "duration": 0.089,
      "velocity": 1,
      "hand": "left"
    },
    {
      "midi": 70,
      "time": 30,
      "duration": 0.089,
      "velocity": 1,
      "hand": "right"
    },
    {
      "midi": 51,
      "time": 30.089,
      "duration": 0.089,
      "velocity": 1,
      "hand": "left"
    },
    {
      "midi": 82,
      "time": 30.089,
      "duration": 0.089,
      "velocity": 1,
      "hand": "right"
    },
    {
      "midi": 75,
      "time": 30.179,
      "duration": 0.089,
      "velocity": 1,
      "hand": "right"
    },
    {
      "midi": 54,
      "time": 30.268,
      "duration": 0.089,
      "velocity": 1,
      "hand": "left"
    },
    {
      "midi": 78,
      "time": 30.268,
      "duration": 0.089,
      "velocity": 1,
      "hand": "right"
    },
    {
      "midi": 57,
      "time": 30.357,
      "duration": 0.089,
      "velocity": 1,
      "hand": "left"
    },
    {
      "midi": 69,
      "time": 30.357,
      "duration": 0.089,
      "velocity": 1,
      "hand": "right"
    },
    {
      "midi": 54,
      "time": 30.446,
      "duration": 0.089,
      "velocity": 1,
      "hand": "left"
    },
    {
      "midi": 81,
      "time": 30.446,
      "duration": 0.089,
      "velocity": 1,
      "hand": "right"
    },
    {
      "midi": 75,
      "time": 30.536,
      "duration": 0.089,
      "velocity": 1,
      "hand": "right"
    },
    {
      "midi": 51,
      "time": 30.625,
      "duration": 0.089,
      "velocity": 1,
      "hand": "left"
    },
    {
      "midi": 78,
      "time": 30.625,
      "duration": 0.089,
      "velocity": 1,
      "hand": "right"
    },
    {
      "midi": 48,
      "time": 30.714,
      "duration": 0.089,
      "velocity": 1,
      "hand": "left"
    },
    {
      "midi": 69,
      "time": 30.714,
      "duration": 0.089,
      "velocity": 1,
      "hand": "right"
    },
    {
      "midi": 51,
      "time": 30.804,
      "duration": 0.089,
      "velocity": 1,
      "hand": "left"
    },
    {
      "midi": 81,
      "time": 30.804,
      "duration": 0.089,
      "velocity": 1,
      "hand": "right"
    },
    {
      "midi": 75,
      "time": 30.893,
      "duration": 0.089,
      "velocity": 1,
      "hand": "right"
    },
    {
      "midi": 54,
      "time": 30.982,
      "duration": 0.089,
      "velocity": 1,
      "hand": "left"
    },
    {
      "midi": 78,
      "time": 30.982,
      "duration": 0.089,
      "velocity": 1,
      "hand": "right"
    },
    {
      "midi": 57,
      "time": 31.071,
      "duration": 0.089,
      "velocity": 1,
      "hand": "left"
    },
    {
      "midi": 69,
      "time": 31.071,
      "duration": 0.089,
      "velocity": 1,
      "hand": "right"
    },
    {
      "midi": 54,
      "time": 31.161,
      "duration": 0.089,
      "velocity": 1,
      "hand": "left"
    },
    {
      "midi": 81,
      "time": 31.161,
      "duration": 0.089,
      "velocity": 1,
      "hand": "right"
    },
    {
      "midi": 75,
      "time": 31.25,
      "duration": 0.089,
      "velocity": 1,
      "hand": "right"
    },
    {
      "midi": 51,
      "time": 31.339,
      "duration": 0.089,
      "velocity": 1,
      "hand": "left"
    },
    {
      "midi": 78,
      "time": 31.339,
      "duration": 0.089,
      "velocity": 1,
      "hand": "right"
    },
    {
      "midi": 45,
      "time": 31.429,
      "duration": 0.089,
      "velocity": 1,
      "hand": "left"
    },
    {
      "midi": 72,
      "time": 31.429,
      "duration": 0.089,
      "velocity": 1,
      "hand": "right"
    },
    {
      "midi": 51,
      "time": 31.518,
      "duration": 0.089,
      "velocity": 1,
      "hand": "left"
    },
    {
      "midi": 84,
      "time": 31.518,
      "duration": 0.089,
      "velocity": 1,
      "hand": "right"
    },
    {
      "midi": 75,
      "time": 31.607,
      "duration": 0.089,
      "velocity": 1,
      "hand": "right"
    },
    {
      "midi": 54,
      "time": 31.696,
      "duration": 0.089,
      "velocity": 1,
      "hand": "left"
    },
    {
      "midi": 78,
      "time": 31.696,
      "duration": 0.089,
      "velocity": 1,
      "hand": "right"
    },
    {
      "midi": 59,
      "time": 31.786,
      "duration": 0.089,
      "velocity": 1,
      "hand": "left"
    },
    {
      "midi": 71,
      "time": 31.786,
      "duration": 0.089,
      "velocity": 1,
      "hand": "right"
    },
    {
      "midi": 54,
      "time": 31.875,
      "duration": 0.089,
      "velocity": 1,
      "hand": "left"
    },
    {
      "midi": 83,
      "time": 31.875,
      "duration": 0.089,
      "velocity": 1,
      "hand": "right"
    },
    {
      "midi": 75,
      "time": 31.964,
      "duration": 0.089,
      "velocity": 1,
      "hand": "right"
    },
    {
      "midi": 51,
      "time": 32.054,
      "duration": 0.089,
      "velocity": 1,
      "hand": "left"
    },
    {
      "midi": 78,
      "time": 32.054,
      "duration": 0.089,
      "velocity": 1,
      "hand": "right"
    },
    {
      "midi": 46,
      "time": 32.143,
      "duration": 0.089,
      "velocity": 1,
      "hand": "left"
    },
    {
      "midi": 71,
      "time": 32.143,
      "duration": 0.089,
      "velocity": 1,
      "hand": "right"
    },
    {
      "midi": 51,
      "time": 32.232,
      "duration": 0.089,
      "velocity": 1,
      "hand": "left"
    },
    {
      "midi": 83,
      "time": 32.232,
      "duration": 0.089,
      "velocity": 1,
      "hand": "right"
    },
    {
      "midi": 75,
      "time": 32.321,
      "duration": 0.089,
      "velocity": 1,
      "hand": "right"
    },
    {
      "midi": 54,
      "time": 32.411,
      "duration": 0.089,
      "velocity": 1,
      "hand": "left"
    },
    {
      "midi": 78,
      "time": 32.411,
      "duration": 0.089,
      "velocity": 1,
      "hand": "right"
    },
    {
      "midi": 58,
      "time": 32.5,
      "duration": 0.089,
      "velocity": 1,
      "hand": "left"
    },
    {
      "midi": 70,
      "time": 32.5,
      "duration": 0.089,
      "velocity": 1,
      "hand": "right"
    },
    {
      "midi": 54,
      "time": 32.589,
      "duration": 0.089,
      "velocity": 1,
      "hand": "left"
    },
    {
      "midi": 82,
      "time": 32.589,
      "duration": 0.089,
      "velocity": 1,
      "hand": "right"
    },
    {
      "midi": 75,
      "time": 32.679,
      "duration": 0.089,
      "velocity": 1,
      "hand": "right"
    },
    {
      "midi": 51,
      "time": 32.768,
      "duration": 0.089,
      "velocity": 1,
      "hand": "left"
    },
    {
      "midi": 78,
      "time": 32.768,
      "duration": 0.089,
      "velocity": 1,
      "hand": "right"
    },
    {
      "midi": 47,
      "time": 32.857,
      "duration": 0.089,
      "velocity": 1,
      "hand": "left"
    },
    {
      "midi": 70,
      "time": 32.857,
      "duration": 0.089,
      "velocity": 1,
      "hand": "right"
    },
    {
      "midi": 51,
      "time": 32.946,
      "duration": 0.089,
      "velocity": 1,
      "hand": "left"
    },
    {
      "midi": 82,
      "time": 32.946,
      "duration": 0.089,
      "velocity": 1,
      "hand": "right"
    },
    {
      "midi": 75,
      "time": 33.036,
      "duration": 0.089,
      "velocity": 1,
      "hand": "right"
    },
    {
      "midi": 54,
      "time": 33.125,
      "duration": 0.089,
      "velocity": 1,
      "hand": "left"
    },
    {
      "midi": 78,
      "time": 33.125,
      "duration": 0.089,
      "velocity": 1,
      "hand": "right"
    },
    {
      "midi": 57,
      "time": 33.214,
      "duration": 0.089,
      "velocity": 1,
      "hand": "left"
    },
    {
      "midi": 69,
      "time": 33.214,
      "duration": 0.089,
      "velocity": 1,
      "hand": "right"
    },
    {
      "midi": 54,
      "time": 33.304,
      "duration": 0.089,
      "velocity": 1,
      "hand": "left"
    },
    {
      "midi": 81,
      "time": 33.304,
      "duration": 0.089,
      "velocity": 1,
      "hand": "right"
    },
    {
      "midi": 75,
      "time": 33.393,
      "duration": 0.089,
      "velocity": 1,
      "hand": "right"
    },
    {
      "midi": 51,
      "time": 33.482,
      "duration": 0.089,
      "velocity": 1,
      "hand": "left"
    },
    {
      "midi": 78,
      "time": 33.482,
      "duration": 0.089,
      "velocity": 1,
      "hand": "right"
    },
    {
      "midi": 48,
      "time": 33.571,
      "duration": 0.089,
      "velocity": 1,
      "hand": "left"
    },
    {
      "midi": 69,
      "time": 33.571,
      "duration": 0.089,
      "velocity": 1,
      "hand": "right"
    },
    {
      "midi": 51,
      "time": 33.661,
      "duration": 0.089,
      "velocity": 1,
      "hand": "left"
    },
    {
      "midi": 81,
      "time": 33.661,
      "duration": 0.089,
      "velocity": 1,
      "hand": "right"
    },
    {
      "midi": 75,
      "time": 33.75,
      "duration": 0.089,
      "velocity": 1,
      "hand": "right"
    },
    {
      "midi": 54,
      "time": 33.839,
      "duration": 0.089,
      "velocity": 1,
      "hand": "left"
    },
    {
      "midi": 78,
      "time": 33.839,
      "duration": 0.089,
      "velocity": 1,
      "hand": "right"
    },
    {
      "midi": 56,
      "time": 33.929,
      "duration": 0.089,
      "velocity": 1,
      "hand": "left"
    },
    {
      "midi": 68,
      "time": 33.929,
      "duration": 0.089,
      "velocity": 1,
      "hand": "right"
    },
    {
      "midi": 54,
      "time": 34.018,
      "duration": 0.089,
      "velocity": 1,
      "hand": "left"
    },
    {
      "midi": 80,
      "time": 34.018,
      "duration": 0.089,
      "velocity": 1,
      "hand": "right"
    },
    {
      "midi": 75,
      "time": 34.107,
      "duration": 0.089,
      "velocity": 1,
      "hand": "right"
    },
    {
      "midi": 51,
      "time": 34.196,
      "duration": 0.089,
      "velocity": 1,
      "hand": "left"
    },
    {
      "midi": 78,
      "time": 34.196,
      "duration": 0.089,
      "velocity": 1,
      "hand": "right"
    },
    {
      "midi": 49,
      "time": 34.286,
      "duration": 0.089,
      "velocity": 1,
      "hand": "left"
    },
    {
      "midi": 56,
      "time": 34.375,
      "duration": 0.089,
      "velocity": 1,
      "hand": "left"
    },
    {
      "midi": 68,
      "time": 34.375,
      "duration": 0.089,
      "velocity": 1,
      "hand": "right"
    },
    {
      "midi": 69,
      "time": 34.464,
      "duration": 0.089,
      "velocity": 1,
      "hand": "right"
    },
    {
      "midi": 61,
      "time": 34.554,
      "duration": 0.089,
      "velocity": 1,
      "hand": "right"
    },
    {
      "midi": 68,
      "time": 34.554,
      "duration": 0.089,
      "velocity": 1,
      "hand": "right"
    },
    {
      "midi": 64,
      "time": 34.643,
      "duration": 0.089,
      "velocity": 1,
      "hand": "right"
    },
    {
      "midi": 67,
      "time": 34.643,
      "duration": 0.089,
      "velocity": 1,
      "hand": "right"
    },
    {
      "midi": 61,
      "time": 34.732,
      "duration": 0.089,
      "velocity": 1,
      "hand": "right"
    },
    {
      "midi": 68,
      "time": 34.732,
      "duration": 0.089,
      "velocity": 1,
      "hand": "right"
    },
    {
      "midi": 73,
      "time": 34.821,
      "duration": 0.089,
      "velocity": 1,
      "hand": "right"
    },
    {
      "midi": 56,
      "time": 34.911,
      "duration": 0.089,
      "velocity": 1,
      "hand": "left"
    },
    {
      "midi": 76,
      "time": 34.911,
      "duration": 0.089,
      "velocity": 1,
      "hand": "right"
    },
    {
      "midi": 52,
      "time": 35,
      "duration": 0.089,
      "velocity": 1,
      "hand": "left"
    },
    {
      "midi": 75,
      "time": 35,
      "duration": 0.089,
      "velocity": 1,
      "hand": "right"
    },
    {
      "midi": 56,
      "time": 35.089,
      "duration": 0.089,
      "velocity": 1,
      "hand": "left"
    },
    {
      "midi": 73,
      "time": 35.089,
      "duration": 0.089,
      "velocity": 1,
      "hand": "right"
    },
    {
      "midi": 75,
      "time": 35.179,
      "duration": 0.089,
      "velocity": 1,
      "hand": "right"
    },
    {
      "midi": 61,
      "time": 35.268,
      "duration": 0.089,
      "velocity": 1,
      "hand": "right"
    },
    {
      "midi": 73,
      "time": 35.268,
      "duration": 0.089,
      "velocity": 1,
      "hand": "right"
    },
    {
      "midi": 64,
      "time": 35.357,
      "duration": 0.089,
      "velocity": 1,
      "hand": "right"
    },
    {
      "midi": 72,
      "time": 35.357,
      "duration": 0.089,
      "velocity": 1,
      "hand": "right"
    },
    {
      "midi": 61,
      "time": 35.446,
      "duration": 0.089,
      "velocity": 1,
      "hand": "right"
    },
    {
      "midi": 73,
      "time": 35.446,
      "duration": 0.089,
      "velocity": 1,
      "hand": "right"
    },
    {
      "midi": 76,
      "time": 35.536,
      "duration": 0.089,
      "velocity": 1,
      "hand": "right"
    },
    {
      "midi": 56,
      "time": 35.625,
      "duration": 0.089,
      "velocity": 1,
      "hand": "left"
    },
    {
      "midi": 80,
      "time": 35.625,
      "duration": 0.089,
      "velocity": 1,
      "hand": "right"
    },
    {
      "midi": 49,
      "time": 35.714,
      "duration": 0.089,
      "velocity": 1,
      "hand": "left"
    },
    {
      "midi": 56,
      "time": 35.804,
      "duration": 0.089,
      "velocity": 1,
      "hand": "left"
    },
    {
      "midi": 68,
      "time": 35.804,
      "duration": 0.089,
      "velocity": 1,
      "hand": "right"
    },
    {
      "midi": 69,
      "time": 35.893,
      "duration": 0.089,
      "velocity": 1,
      "hand": "right"
    },
    {
      "midi": 61,
      "time": 35.982,
      "duration": 0.089,
      "velocity": 1,
      "hand": "right"
    },
    {
      "midi": 68,
      "time": 35.982,
      "duration": 0.089,
      "velocity": 1,
      "hand": "right"
    },
    {
      "midi": 64,
      "time": 36.071,
      "duration": 0.089,
      "velocity": 1,
      "hand": "right"
    },
    {
      "midi": 67,
      "time": 36.071,
      "duration": 0.089,
      "velocity": 1,
      "hand": "right"
    },
    {
      "midi": 61,
      "time": 36.161,
      "duration": 0.089,
      "velocity": 1,
      "hand": "right"
    },
    {
      "midi": 68,
      "time": 36.161,
      "duration": 0.089,
      "velocity": 1,
      "hand": "right"
    },
    {
      "midi": 73,
      "time": 36.25,
      "duration": 0.089,
      "velocity": 1,
      "hand": "right"
    },
    {
      "midi": 56,
      "time": 36.339,
      "duration": 0.089,
      "velocity": 1,
      "hand": "left"
    },
    {
      "midi": 76,
      "time": 36.339,
      "duration": 0.089,
      "velocity": 1,
      "hand": "right"
    },
    {
      "midi": 52,
      "time": 36.429,
      "duration": 0.089,
      "velocity": 1,
      "hand": "left"
    },
    {
      "midi": 75,
      "time": 36.429,
      "duration": 0.089,
      "velocity": 1,
      "hand": "right"
    },
    {
      "midi": 56,
      "time": 36.518,
      "duration": 0.089,
      "velocity": 1,
      "hand": "left"
    },
    {
      "midi": 73,
      "time": 36.518,
      "duration": 0.089,
      "velocity": 1,
      "hand": "right"
    },
    {
      "midi": 75,
      "time": 36.607,
      "duration": 0.089,
      "velocity": 1,
      "hand": "right"
    },
    {
      "midi": 61,
      "time": 36.696,
      "duration": 0.089,
      "velocity": 1,
      "hand": "right"
    },
    {
      "midi": 73,
      "time": 36.696,
      "duration": 0.089,
      "velocity": 1,
      "hand": "right"
    },
    {
      "midi": 64,
      "time": 36.786,
      "duration": 0.089,
      "velocity": 1,
      "hand": "right"
    },
    {
      "midi": 72,
      "time": 36.786,
      "duration": 0.089,
      "velocity": 1,
      "hand": "right"
    },
    {
      "midi": 61,
      "time": 36.875,
      "duration": 0.089,
      "velocity": 1,
      "hand": "right"
    },
    {
      "midi": 73,
      "time": 36.875,
      "duration": 0.089,
      "velocity": 1,
      "hand": "right"
    },
    {
      "midi": 76,
      "time": 36.964,
      "duration": 0.089,
      "velocity": 1,
      "hand": "right"
    },
    {
      "midi": 56,
      "time": 37.054,
      "duration": 0.089,
      "velocity": 1,
      "hand": "left"
    },
    {
      "midi": 80,
      "time": 37.054,
      "duration": 0.089,
      "velocity": 1,
      "hand": "right"
    },
    {
      "midi": 51,
      "time": 37.143,
      "duration": 0.089,
      "velocity": 1,
      "hand": "left"
    },
    {
      "midi": 57,
      "time": 37.232,
      "duration": 0.089,
      "velocity": 1,
      "hand": "left"
    },
    {
      "midi": 69,
      "time": 37.232,
      "duration": 0.089,
      "velocity": 1,
      "hand": "right"
    },
    {
      "midi": 73,
      "time": 37.321,
      "duration": 0.089,
      "velocity": 1,
      "hand": "right"
    },
    {
      "midi": 61,
      "time": 37.411,
      "duration": 0.089,
      "velocity": 1,
      "hand": "right"
    },
    {
      "midi": 75,
      "time": 37.411,
      "duration": 0.089,
      "velocity": 1,
      "hand": "right"
    },
    {
      "midi": 66,
      "time": 37.5,
      "duration": 0.089,
      "velocity": 1,
      "hand": "right"
    },
    {
      "midi": 78,
      "time": 37.5,
      "duration": 0.089,
      "velocity": 1,
      "hand": "right"
    },
    {
      "midi": 61,
      "time": 37.589,
      "duration": 0.089,
      "velocity": 1,
      "hand": "right"
    },
    {
      "midi": 81,
      "time": 37.589,
      "duration": 0.089,
      "velocity": 1,
      "hand": "right"
    },
    {
      "midi": 85,
      "time": 37.679,
      "duration": 0.089,
      "velocity": 1,
      "hand": "right"
    },
    {
      "midi": 57,
      "time": 37.768,
      "duration": 0.089,
      "velocity": 1,
      "hand": "left"
    },
    {
      "midi": 87,
      "time": 37.768,
      "duration": 0.089,
      "velocity": 1,
      "hand": "right"
    },
    {
      "midi": 54,
      "time": 37.857,
      "duration": 0.089,
      "velocity": 1,
      "hand": "left"
    },
    {
      "midi": 95,
      "time": 37.857,
      "duration": 0.089,
      "velocity": 1,
      "hand": "right"
    },
    {
      "midi": 61,
      "time": 37.946,
      "duration": 0.089,
      "velocity": 1,
      "hand": "right"
    },
    {
      "midi": 93,
      "time": 37.946,
      "duration": 0.089,
      "velocity": 1,
      "hand": "right"
    },
    {
      "midi": 92,
      "time": 38.036,
      "duration": 0.089,
      "velocity": 1,
      "hand": "right"
    },
    {
      "midi": 63,
      "time": 38.125,
      "duration": 0.089,
      "velocity": 1,
      "hand": "right"
    },
    {
      "midi": 90,
      "time": 38.125,
      "duration": 0.089,
      "velocity": 1,
      "hand": "right"
    },
    {
      "midi": 69,
      "time": 38.214,
      "duration": 0.089,
      "velocity": 1,
      "hand": "right"
    },
    {
      "midi": 88,
      "time": 38.214,
      "duration": 0.089,
      "velocity": 1,
      "hand": "right"
    },
    {
      "midi": 63,
      "time": 38.304,
      "duration": 0.089,
      "velocity": 1,
      "hand": "right"
    },
    {
      "midi": 87,
      "time": 38.304,
      "duration": 0.089,
      "velocity": 1,
      "hand": "right"
    },
    {
      "midi": 90,
      "time": 38.393,
      "duration": 0.089,
      "velocity": 1,
      "hand": "right"
    },
    {
      "midi": 61,
      "time": 38.482,
      "duration": 0.089,
      "velocity": 1,
      "hand": "right"
    },
    {
      "midi": 85,
      "time": 38.482,
      "duration": 0.089,
      "velocity": 1,
      "hand": "right"
    },
    {
      "midi": 44,
      "time": 38.571,
      "duration": 0.089,
      "velocity": 1,
      "hand": "left"
    },
    {
      "midi": 84,
      "time": 38.571,
      "duration": 0.089,
      "velocity": 1,
      "hand": "right"
    },
    {
      "midi": 51,
      "time": 38.661,
      "duration": 0.089,
      "velocity": 1,
      "hand": "left"
    },
    {
      "midi": 87,
      "time": 38.661,
      "duration": 0.089,
      "velocity": 1,
      "hand": "right"
    },
    {
      "midi": 81,
      "time": 38.75,
      "duration": 0.089,
      "velocity": 1,
      "hand": "right"
    },
    {
      "midi": 54,
      "time": 38.839,
      "duration": 0.089,
      "velocity": 1,
      "hand": "left"
    },
    {
      "midi": 80,
      "time": 38.839,
      "duration": 0.089,
      "velocity": 1,
      "hand": "right"
    },
    {
      "midi": 60,
      "time": 38.929,
      "duration": 0.089,
      "velocity": 1,
      "hand": "right"
    },
    {
      "midi": 78,
      "time": 38.929,
      "duration": 0.089,
      "velocity": 1,
      "hand": "right"
    },
    {
      "midi": 54,
      "time": 39.018,
      "duration": 0.089,
      "velocity": 1,
      "hand": "left"
    },
    {
      "midi": 81,
      "time": 39.018,
      "duration": 0.089,
      "velocity": 1,
      "hand": "right"
    },
    {
      "midi": 76,
      "time": 39.107,
      "duration": 0.089,
      "velocity": 1,
      "hand": "right"
    },
    {
      "midi": 51,
      "time": 39.196,
      "duration": 0.089,
      "velocity": 1,
      "hand": "left"
    },
    {
      "midi": 75,
      "time": 39.196,
      "duration": 0.089,
      "velocity": 1,
      "hand": "right"
    },
    {
      "midi": 44,
      "time": 39.286,
      "duration": 0.089,
      "velocity": 1,
      "hand": "left"
    },
    {
      "midi": 78,
      "time": 39.286,
      "duration": 0.089,
      "velocity": 1,
      "hand": "right"
    },
    {
      "midi": 51,
      "time": 39.375,
      "duration": 0.089,
      "velocity": 1,
      "hand": "left"
    },
    {
      "midi": 73,
      "time": 39.375,
      "duration": 0.089,
      "velocity": 1,
      "hand": "right"
    },
    {
      "midi": 72,
      "time": 39.464,
      "duration": 0.089,
      "velocity": 1,
      "hand": "right"
    },
    {
      "midi": 54,
      "time": 39.554,
      "duration": 0.089,
      "velocity": 1,
      "hand": "left"
    },
    {
      "midi": 75,
      "time": 39.554,
      "duration": 0.089,
      "velocity": 1,
      "hand": "right"
    },
    {
      "midi": 60,
      "time": 39.643,
      "duration": 0.089,
      "velocity": 1,
      "hand": "right"
    },
    {
      "midi": 69,
      "time": 39.643,
      "duration": 0.089,
      "velocity": 1,
      "hand": "right"
    },
    {
      "midi": 54,
      "time": 39.732,
      "duration": 0.089,
      "velocity": 1,
      "hand": "left"
    },
    {
      "midi": 68,
      "time": 39.732,
      "duration": 0.089,
      "velocity": 1,
      "hand": "right"
    },
    {
      "midi": 71,
      "time": 39.821,
      "duration": 0.089,
      "velocity": 1,
      "hand": "right"
    },
    {
      "midi": 51,
      "time": 39.911,
      "duration": 0.089,
      "velocity": 1,
      "hand": "left"
    },
    {
      "midi": 69,
      "time": 39.911,
      "duration": 0.179,
      "velocity": 1,
      "hand": "right"
    },
    {
      "midi": 49,
      "time": 40,
      "duration": 0.089,
      "velocity": 1,
      "hand": "left"
    },
    {
      "midi": 56,
      "time": 40.089,
      "duration": 0.089,
      "velocity": 1,
      "hand": "left"
    },
    {
      "midi": 68,
      "time": 40.089,
      "duration": 0.089,
      "velocity": 1,
      "hand": "right"
    },
    {
      "midi": 69,
      "time": 40.179,
      "duration": 0.089,
      "velocity": 1,
      "hand": "right"
    },
    {
      "midi": 61,
      "time": 40.268,
      "duration": 0.089,
      "velocity": 1,
      "hand": "right"
    },
    {
      "midi": 68,
      "time": 40.268,
      "duration": 0.089,
      "velocity": 1,
      "hand": "right"
    },
    {
      "midi": 64,
      "time": 40.357,
      "duration": 0.089,
      "velocity": 1,
      "hand": "right"
    },
    {
      "midi": 67,
      "time": 40.357,
      "duration": 0.089,
      "velocity": 1,
      "hand": "right"
    },
    {
      "midi": 61,
      "time": 40.446,
      "duration": 0.089,
      "velocity": 1,
      "hand": "right"
    },
    {
      "midi": 68,
      "time": 40.446,
      "duration": 0.089,
      "velocity": 1,
      "hand": "right"
    },
    {
      "midi": 73,
      "time": 40.536,
      "duration": 0.089,
      "velocity": 1,
      "hand": "right"
    },
    {
      "midi": 56,
      "time": 40.625,
      "duration": 0.089,
      "velocity": 1,
      "hand": "left"
    },
    {
      "midi": 76,
      "time": 40.625,
      "duration": 0.089,
      "velocity": 1,
      "hand": "right"
    },
    {
      "midi": 52,
      "time": 40.714,
      "duration": 0.089,
      "velocity": 1,
      "hand": "left"
    },
    {
      "midi": 75,
      "time": 40.714,
      "duration": 0.089,
      "velocity": 1,
      "hand": "right"
    },
    {
      "midi": 56,
      "time": 40.804,
      "duration": 0.089,
      "velocity": 1,
      "hand": "left"
    },
    {
      "midi": 73,
      "time": 40.804,
      "duration": 0.089,
      "velocity": 1,
      "hand": "right"
    },
    {
      "midi": 75,
      "time": 40.893,
      "duration": 0.089,
      "velocity": 1,
      "hand": "right"
    },
    {
      "midi": 61,
      "time": 40.982,
      "duration": 0.089,
      "velocity": 1,
      "hand": "right"
    },
    {
      "midi": 73,
      "time": 40.982,
      "duration": 0.089,
      "velocity": 1,
      "hand": "right"
    },
    {
      "midi": 64,
      "time": 41.071,
      "duration": 0.089,
      "velocity": 1,
      "hand": "right"
    },
    {
      "midi": 72,
      "time": 41.071,
      "duration": 0.089,
      "velocity": 1,
      "hand": "right"
    },
    {
      "midi": 61,
      "time": 41.161,
      "duration": 0.089,
      "velocity": 1,
      "hand": "right"
    },
    {
      "midi": 73,
      "time": 41.161,
      "duration": 0.089,
      "velocity": 1,
      "hand": "right"
    },
    {
      "midi": 76,
      "time": 41.25,
      "duration": 0.089,
      "velocity": 1,
      "hand": "right"
    },
    {
      "midi": 56,
      "time": 41.339,
      "duration": 0.089,
      "velocity": 1,
      "hand": "left"
    },
    {
      "midi": 80,
      "time": 41.339,
      "duration": 0.089,
      "velocity": 1,
      "hand": "right"
    },
    {
      "midi": 54,
      "time": 41.429,
      "duration": 0.089,
      "velocity": 1,
      "hand": "left"
    },
    {
      "midi": 76,
      "time": 41.429,
      "duration": 0.089,
      "velocity": 1,
      "hand": "right"
    },
    {
      "midi": 61,
      "time": 41.518,
      "duration": 0.089,
      "velocity": 1,
      "hand": "right"
    },
    {
      "midi": 75,
      "time": 41.518,
      "duration": 0.089,
      "velocity": 1,
      "hand": "right"
    },
    {
      "midi": 76,
      "time": 41.607,
      "duration": 0.089,
      "velocity": 1,
      "hand": "right"
    },
    {
      "midi": 63,
      "time": 41.696,
      "duration": 0.089,
      "velocity": 1,
      "hand": "right"
    },
    {
      "midi": 75,
      "time": 41.696,
      "duration": 0.089,
      "velocity": 1,
      "hand": "right"
    },
    {
      "midi": 69,
      "time": 41.786,
      "duration": 0.089,
      "velocity": 1,
      "hand": "right"
    },
    {
      "midi": 74,
      "time": 41.786,
      "duration": 0.089,
      "velocity": 1,
      "hand": "right"
    },
    {
      "midi": 63,
      "time": 41.875,
      "duration": 0.089,
      "velocity": 1,
      "hand": "right"
    },
    {
      "midi": 75,
      "time": 41.875,
      "duration": 0.089,
      "velocity": 1,
      "hand": "right"
    },
    {
      "midi": 78,
      "time": 41.964,
      "duration": 0.089,
      "velocity": 1,
      "hand": "right"
    },
    {
      "midi": 61,
      "time": 42.054,
      "duration": 0.089,
      "velocity": 1,
      "hand": "right"
    },
    {
      "midi": 81,
      "time": 42.054,
      "duration": 0.089,
      "velocity": 1,
      "hand": "right"
    },
    {
      "midi": 56,
      "time": 42.143,
      "duration": 0.089,
      "velocity": 1,
      "hand": "left"
    },
    {
      "midi": 78,
      "time": 42.143,
      "duration": 0.089,
      "velocity": 1,
      "hand": "right"
    },
    {
      "midi": 61,
      "time": 42.232,
      "duration": 0.089,
      "velocity": 1,
      "hand": "right"
    },
    {
      "midi": 77,
      "time": 42.232,
      "duration": 0.089,
      "velocity": 1,
      "hand": "right"
    },
    {
      "midi": 78,
      "time": 42.321,
      "duration": 0.089,
      "velocity": 1,
      "hand": "right"
    },
    {
      "midi": 65,
      "time": 42.411,
      "duration": 0.089,
      "velocity": 1,
      "hand": "right"
    },
    {
      "midi": 77,
      "time": 42.411,
      "duration": 0.089,
      "velocity": 1,
      "hand": "right"
    },
    {
      "midi": 71,
      "time": 42.5,
      "duration": 0.089,
      "velocity": 1,
      "hand": "right"
    },
    {
      "midi": 76,
      "time": 42.5,
      "duration": 0.089,
      "velocity": 1,
      "hand": "right"
    },
    {
      "midi": 65,
      "time": 42.589,
      "duration": 0.089,
      "velocity": 1,
      "hand": "right"
    },
    {
      "midi": 77,
      "time": 42.589,
      "duration": 0.089,
      "velocity": 1,
      "hand": "right"
    },
    {
      "midi": 80,
      "time": 42.679,
      "duration": 0.089,
      "velocity": 1,
      "hand": "right"
    },
    {
      "midi": 61,
      "time": 42.768,
      "duration": 0.089,
      "velocity": 1,
      "hand": "right"
    },
    {
      "midi": 85,
      "time": 42.768,
      "duration": 0.089,
      "velocity": 1,
      "hand": "right"
    },
    {
      "midi": 57,
      "time": 42.857,
      "duration": 0.089,
      "velocity": 1,
      "hand": "left"
    },
    {
      "midi": 61,
      "time": 42.946,
      "duration": 0.089,
      "velocity": 1,
      "hand": "right"
    },
    {
      "midi": 73,
      "time": 42.946,
      "duration": 0.089,
      "velocity": 1,
      "hand": "right"
    },
    {
      "midi": 74,
      "time": 43.036,
      "duration": 0.089,
      "velocity": 1,
      "hand": "right"
    },
    {
      "midi": 66,
      "time": 43.125,
      "duration": 0.089,
      "velocity": 1,
      "hand": "right"
    },
    {
      "midi": 73,
      "time": 43.125,
      "duration": 0.089,
      "velocity": 1,
      "hand": "right"
    },
    {
      "midi": 69,
      "time": 43.214,
      "duration": 0.089,
      "velocity": 1,
      "hand": "right"
    },
    {
      "midi": 72,
      "time": 43.214,
      "duration": 0.089,
      "velocity": 1,
      "hand": "right"
    },
    {
      "midi": 66,
      "time": 43.304,
      "duration": 0.089,
      "velocity": 1,
      "hand": "right"
    },
    {
      "midi": 73,
      "time": 43.304,
      "duration": 0.089,
      "velocity": 1,
      "hand": "right"
    },
    {
      "midi": 78,
      "time": 43.393,
      "duration": 0.089,
      "velocity": 1,
      "hand": "right"
    },
    {
      "midi": 61,
      "time": 43.482,
      "duration": 0.089,
      "velocity": 1,
      "hand": "right"
    },
    {
      "midi": 81,
      "time": 43.482,
      "duration": 0.089,
      "velocity": 1,
      "hand": "right"
    },
    {
      "midi": 56,
      "time": 43.571,
      "duration": 0.089,
      "velocity": 1,
      "hand": "left"
    },
    {
      "midi": 78,
      "time": 43.571,
      "duration": 0.089,
      "velocity": 1,
      "hand": "right"
    },
    {
      "midi": 61,
      "time": 43.661,
      "duration": 0.089,
      "velocity": 1,
      "hand": "right"
    },
    {
      "midi": 77,
      "time": 43.661,
      "duration": 0.089,
      "velocity": 1,
      "hand": "right"
    },
    {
      "midi": 78,
      "time": 43.75,
      "duration": 0.089,
      "velocity": 1,
      "hand": "right"
    },
    {
      "midi": 65,
      "time": 43.839,
      "duration": 0.089,
      "velocity": 1,
      "hand": "right"
    },
    {
      "midi": 77,
      "time": 43.839,
      "duration": 0.089,
      "velocity": 1,
      "hand": "right"
    },
    {
      "midi": 71,
      "time": 43.929,
      "duration": 0.089,
      "velocity": 1,
      "hand": "right"
    },
    {
      "midi": 76,
      "time": 43.929,
      "duration": 0.089,
      "velocity": 1,
      "hand": "right"
    },
    {
      "midi": 65,
      "time": 44.018,
      "duration": 0.089,
      "velocity": 1,
      "hand": "right"
    },
    {
      "midi": 77,
      "time": 44.018,
      "duration": 0.089,
      "velocity": 1,
      "hand": "right"
    },
    {
      "midi": 80,
      "time": 44.107,
      "duration": 0.089,
      "velocity": 1,
      "hand": "right"
    },
    {
      "midi": 61,
      "time": 44.196,
      "duration": 0.089,
      "velocity": 1,
      "hand": "right"
    },
    {
      "midi": 85,
      "time": 44.196,
      "duration": 0.089,
      "velocity": 1,
      "hand": "right"
    },
    {
      "midi": 57,
      "time": 44.286,
      "duration": 0.089,
      "velocity": 1,
      "hand": "left"
    },
    {
      "midi": 80,
      "time": 44.286,
      "duration": 0.089,
      "velocity": 1,
      "hand": "right"
    },
    {
      "midi": 61,
      "time": 44.375,
      "duration": 0.089,
      "velocity": 1,
      "hand": "right"
    },
    {
      "midi": 78,
      "time": 44.375,
      "duration": 0.089,
      "velocity": 1,
      "hand": "right"
    },
    {
      "midi": 80,
      "time": 44.464,
      "duration": 0.089,
      "velocity": 1,
      "hand": "right"
    },
    {
      "midi": 66,
      "time": 44.554,
      "duration": 0.089,
      "velocity": 1,
      "hand": "right"
    },
    {
      "midi": 78,
      "time": 44.554,
      "duration": 0.089,
      "velocity": 1,
      "hand": "right"
    },
    {
      "midi": 69,
      "time": 44.643,
      "duration": 0.089,
      "velocity": 1,
      "hand": "right"
    },
    {
      "midi": 77,
      "time": 44.643,
      "duration": 0.089,
      "velocity": 1,
      "hand": "right"
    },
    {
      "midi": 66,
      "time": 44.732,
      "duration": 0.089,
      "velocity": 1,
      "hand": "right"
    },
    {
      "midi": 78,
      "time": 44.732,
      "duration": 0.089,
      "velocity": 1,
      "hand": "right"
    },
    {
      "midi": 81,
      "time": 44.821,
      "duration": 0.089,
      "velocity": 1,
      "hand": "right"
    },
    {
      "midi": 61,
      "time": 44.911,
      "duration": 0.089,
      "velocity": 1,
      "hand": "right"
    },
    {
      "midi": 85,
      "time": 44.911,
      "duration": 0.089,
      "velocity": 1,
      "hand": "right"
    },
    {
      "midi": 48,
      "time": 45,
      "duration": 0.089,
      "velocity": 1,
      "hand": "left"
    },
    {
      "midi": 81,
      "time": 45,
      "duration": 0.089,
      "velocity": 1,
      "hand": "right"
    },
    {
      "midi": 54,
      "time": 45.089,
      "duration": 0.089,
      "velocity": 1,
      "hand": "left"
    },
    {
      "midi": 80,
      "time": 45.089,
      "duration": 0.089,
      "velocity": 1,
      "hand": "right"
    },
    {
      "midi": 81,
      "time": 45.179,
      "duration": 0.089,
      "velocity": 1,
      "hand": "right"
    },
    {
      "midi": 56,
      "time": 45.268,
      "duration": 0.089,
      "velocity": 1,
      "hand": "left"
    },
    {
      "midi": 80,
      "time": 45.268,
      "duration": 0.089,
      "velocity": 1,
      "hand": "right"
    },
    {
      "midi": 63,
      "time": 45.357,
      "duration": 0.089,
      "velocity": 1,
      "hand": "right"
    },
    {
      "midi": 79,
      "time": 45.357,
      "duration": 0.089,
      "velocity": 1,
      "hand": "right"
    },
    {
      "midi": 56,
      "time": 45.446,
      "duration": 0.089,
      "velocity": 1,
      "hand": "left"
    },
    {
      "midi": 80,
      "time": 45.446,
      "duration": 0.089,
      "velocity": 1,
      "hand": "right"
    },
    {
      "midi": 84,
      "time": 45.536,
      "duration": 0.089,
      "velocity": 1,
      "hand": "right"
    },
    {
      "midi": 54,
      "time": 45.625,
      "duration": 0.089,
      "velocity": 1,
      "hand": "left"
    },
    {
      "midi": 87,
      "time": 45.625,
      "duration": 0.089,
      "velocity": 1,
      "hand": "right"
    },
    {
      "midi": 49,
      "time": 45.714,
      "duration": 0.089,
      "velocity": 1,
      "hand": "left"
    },
    {
      "midi": 80,
      "time": 45.714,
      "duration": 0.089,
      "velocity": 1,
      "hand": "right"
    },
    {
      "midi": 56,
      "time": 45.804,
      "duration": 0.089,
      "velocity": 1,
      "hand": "left"
    },
    {
      "midi": 81,
      "time": 45.804,
      "duration": 0.089,
      "velocity": 1,
      "hand": "right"
    },
    {
      "midi": 80,
      "time": 45.893,
      "duration": 0.089,
      "velocity": 1,
      "hand": "right"
    },
    {
      "midi": 61,
      "time": 45.982,
      "duration": 0.089,
      "velocity": 1,
      "hand": "right"
    },
    {
      "midi": 79,
      "time": 45.982,
      "duration": 0.089,
      "velocity": 1,
      "hand": "right"
    },
    {
      "midi": 64,
      "time": 46.071,
      "duration": 0.089,
      "velocity": 1,
      "hand": "right"
    },
    {
      "midi": 80,
      "time": 46.071,
      "duration": 0.089,
      "velocity": 1,
      "hand": "right"
    },
    {
      "midi": 61,
      "time": 46.161,
      "duration": 0.089,
      "velocity": 1,
      "hand": "right"
    },
    {
      "midi": 88,
      "time": 46.161,
      "duration": 0.089,
      "velocity": 1,
      "hand": "right"
    },
    {
      "midi": 87,
      "time": 46.25,
      "duration": 0.089,
      "velocity": 1,
      "hand": "right"
    },
    {
      "midi": 56,
      "time": 46.339,
      "duration": 0.089,
      "velocity": 1,
      "hand": "left"
    },
    {
      "midi": 86,
      "time": 46.339,
      "duration": 0.089,
      "velocity": 1,
      "hand": "right"
    },
    {
      "midi": 51,
      "time": 46.429,
      "duration": 0.089,
      "velocity": 1,
      "hand": "left"
    },
    {
      "midi": 85,
      "time": 46.429,
      "duration": 0.089,
      "velocity": 1,
      "hand": "right"
    },
    {
      "midi": 56,
      "time": 46.518,
      "duration": 0.089,
      "velocity": 1,
      "hand": "left"
    },
    {
      "midi": 84,
      "time": 46.518,
      "duration": 0.089,
      "velocity": 1,
      "hand": "right"
    },
    {
      "midi": 83,
      "time": 46.607,
      "duration": 0.089,
      "velocity": 1,
      "hand": "right"
    },
    {
      "midi": 60,
      "time": 46.696,
      "duration": 0.089,
      "velocity": 1,
      "hand": "right"
    },
    {
      "midi": 82,
      "time": 46.696,
      "duration": 0.089,
      "velocity": 1,
      "hand": "right"
    },
    {
      "midi": 66,
      "time": 46.786,
      "duration": 0.089,
      "velocity": 1,
      "hand": "right"
    },
    {
      "midi": 81,
      "time": 46.786,
      "duration": 0.089,
      "velocity": 1,
      "hand": "right"
    },
    {
      "midi": 60,
      "time": 46.875,
      "duration": 0.089,
      "velocity": 1,
      "hand": "right"
    },
    {
      "midi": 80,
      "time": 46.875,
      "duration": 0.089,
      "velocity": 1,
      "hand": "right"
    },
    {
      "midi": 79,
      "time": 46.964,
      "duration": 0.089,
      "velocity": 1,
      "hand": "right"
    },
    {
      "midi": 56,
      "time": 47.054,
      "duration": 0.089,
      "velocity": 1,
      "hand": "left"
    },
    {
      "midi": 78,
      "time": 47.054,
      "duration": 0.089,
      "velocity": 1,
      "hand": "right"
    },
    {
      "midi": 49,
      "time": 47.143,
      "duration": 0.089,
      "velocity": 1,
      "hand": "left"
    },
    {
      "midi": 76,
      "time": 47.143,
      "duration": 0.089,
      "velocity": 1,
      "hand": "right"
    },
    {
      "midi": 56,
      "time": 47.232,
      "duration": 0.089,
      "velocity": 1,
      "hand": "left"
    },
    {
      "midi": 78,
      "time": 47.232,
      "duration": 0.089,
      "velocity": 1,
      "hand": "right"
    },
    {
      "midi": 76,
      "time": 47.321,
      "duration": 0.089,
      "velocity": 1,
      "hand": "right"
    },
    {
      "midi": 61,
      "time": 47.411,
      "duration": 0.089,
      "velocity": 1,
      "hand": "right"
    },
    {
      "midi": 75,
      "time": 47.411,
      "duration": 0.089,
      "velocity": 1,
      "hand": "right"
    },
    {
      "midi": 64,
      "time": 47.5,
      "duration": 0.089,
      "velocity": 1,
      "hand": "right"
    },
    {
      "midi": 76,
      "time": 47.5,
      "duration": 0.089,
      "velocity": 1,
      "hand": "right"
    },
    {
      "midi": 61,
      "time": 47.589,
      "duration": 0.089,
      "velocity": 1,
      "hand": "right"
    },
    {
      "midi": 88,
      "time": 47.589,
      "duration": 0.089,
      "velocity": 1,
      "hand": "right"
    },
    {
      "midi": 87,
      "time": 47.679,
      "duration": 0.089,
      "velocity": 1,
      "hand": "right"
    },
    {
      "midi": 56,
      "time": 47.768,
      "duration": 0.089,
      "velocity": 1,
      "hand": "left"
    },
    {
      "midi": 86,
      "time": 47.768,
      "duration": 0.089,
      "velocity": 1,
      "hand": "right"
    },
    {
      "midi": 54,
      "time": 47.857,
      "duration": 0.089,
      "velocity": 1,
      "hand": "left"
    },
    {
      "midi": 85,
      "time": 47.857,
      "duration": 0.089,
      "velocity": 1,
      "hand": "right"
    },
    {
      "midi": 61,
      "time": 47.946,
      "duration": 0.089,
      "velocity": 1,
      "hand": "right"
    },
    {
      "midi": 84,
      "time": 47.946,
      "duration": 0.089,
      "velocity": 1,
      "hand": "right"
    },
    {
      "midi": 83,
      "time": 48.036,
      "duration": 0.089,
      "velocity": 1,
      "hand": "right"
    },
    {
      "midi": 63,
      "time": 48.125,
      "duration": 0.089,
      "velocity": 1,
      "hand": "right"
    },
    {
      "midi": 82,
      "time": 48.125,
      "duration": 0.089,
      "velocity": 1,
      "hand": "right"
    },
    {
      "midi": 69,
      "time": 48.214,
      "duration": 0.089,
      "velocity": 1,
      "hand": "right"
    },
    {
      "midi": 81,
      "time": 48.214,
      "duration": 0.089,
      "velocity": 1,
      "hand": "right"
    },
    {
      "midi": 63,
      "time": 48.304,
      "duration": 0.089,
      "velocity": 1,
      "hand": "right"
    },
    {
      "midi": 80,
      "time": 48.304,
      "duration": 0.089,
      "velocity": 1,
      "hand": "right"
    },
    {
      "midi": 79,
      "time": 48.393,
      "duration": 0.089,
      "velocity": 1,
      "hand": "right"
    },
    {
      "midi": 61,
      "time": 48.482,
      "duration": 0.089,
      "velocity": 1,
      "hand": "right"
    },
    {
      "midi": 78,
      "time": 48.482,
      "duration": 0.089,
      "velocity": 1,
      "hand": "right"
    },
    {
      "midi": 56,
      "time": 48.571,
      "duration": 0.179,
      "velocity": 1,
      "hand": "left"
    },
    {
      "midi": 61,
      "time": 48.571,
      "duration": 0.179,
      "velocity": 1,
      "hand": "right"
    },
    {
      "midi": 64,
      "time": 48.571,
      "duration": 0.179,
      "velocity": 1,
      "hand": "right"
    },
    {
      "midi": 68,
      "time": 48.571,
      "duration": 0.179,
      "velocity": 1,
      "hand": "right"
    },
    {
      "midi": 80,
      "time": 48.571,
      "duration": 0.089,
      "velocity": 1,
      "hand": "right"
    },
    {
      "midi": 92,
      "time": 48.75,
      "duration": 0.089,
      "velocity": 1,
      "hand": "right"
    },
    {
      "midi": 91,
      "time": 48.839,
      "duration": 0.089,
      "velocity": 1,
      "hand": "right"
    },
    {
      "midi": 90,
      "time": 48.929,
      "duration": 0.089,
      "velocity": 1,
      "hand": "right"
    },
    {
      "midi": 89,
      "time": 49.018,
      "duration": 0.089,
      "velocity": 1,
      "hand": "right"
    },
    {
      "midi": 88,
      "time": 49.107,
      "duration": 0.089,
      "velocity": 1,
      "hand": "right"
    },
    {
      "midi": 87,
      "time": 49.196,
      "duration": 0.089,
      "velocity": 1,
      "hand": "right"
    },
    {
      "midi": 55,
      "time": 49.286,
      "duration": 0.357,
      "velocity": 1,
      "hand": "left"
    },
    {
      "midi": 61,
      "time": 49.286,
      "duration": 0.357,
      "velocity": 1,
      "hand": "right"
    },
    {
      "midi": 64,
      "time": 49.286,
      "duration": 0.357,
      "velocity": 1,
      "hand": "right"
    },
    {
      "midi": 69,
      "time": 49.286,
      "duration": 0.357,
      "velocity": 1,
      "hand": "right"
    },
    {
      "midi": 86,
      "time": 49.286,
      "duration": 0.089,
      "velocity": 1,
      "hand": "right"
    },
    {
      "midi": 85,
      "time": 49.375,
      "duration": 0.089,
      "velocity": 1,
      "hand": "right"
    },
    {
      "midi": 84,
      "time": 49.464,
      "duration": 0.089,
      "velocity": 1,
      "hand": "right"
    },
    {
      "midi": 83,
      "time": 49.554,
      "duration": 0.089,
      "velocity": 1,
      "hand": "right"
    },
    {
      "midi": 82,
      "time": 49.643,
      "duration": 0.089,
      "velocity": 1,
      "hand": "right"
    },
    {
      "midi": 81,
      "time": 49.732,
      "duration": 0.089,
      "velocity": 1,
      "hand": "right"
    },
    {
      "midi": 80,
      "time": 49.821,
      "duration": 0.089,
      "velocity": 1,
      "hand": "right"
    },
    {
      "midi": 79,
      "time": 49.911,
      "duration": 0.089,
      "velocity": 1,
      "hand": "right"
    },
    {
      "midi": 78,
      "time": 50,
      "duration": 0.089,
      "velocity": 1,
      "hand": "right"
    },
    {
      "midi": 77,
      "time": 50.089,
      "duration": 0.089,
      "velocity": 1,
      "hand": "right"
    },
    {
      "midi": 76,
      "time": 50.179,
      "duration": 0.089,
      "velocity": 1,
      "hand": "right"
    },
    {
      "midi": 75,
      "time": 50.268,
      "duration": 0.089,
      "velocity": 1,
      "hand": "right"
    },
    {
      "midi": 74,
      "time": 50.357,
      "duration": 0.089,
      "velocity": 1,
      "hand": "right"
    },
    {
      "midi": 73,
      "time": 50.446,
      "duration": 0.089,
      "velocity": 1,
      "hand": "right"
    },
    {
      "midi": 72,
      "time": 50.536,
      "duration": 0.089,
      "velocity": 1,
      "hand": "right"
    },
    {
      "midi": 71,
      "time": 50.625,
      "duration": 0.089,
      "velocity": 1,
      "hand": "right"
    },
    {
      "midi": 70,
      "time": 50.714,
      "duration": 0.089,
      "velocity": 1,
      "hand": "right"
    },
    {
      "midi": 69,
      "time": 50.804,
      "duration": 0.089,
      "velocity": 1,
      "hand": "right"
    },
    {
      "midi": 68,
      "time": 50.893,
      "duration": 0.089,
      "velocity": 1,
      "hand": "right"
    },
    {
      "midi": 67,
      "time": 50.982,
      "duration": 0.089,
      "velocity": 1,
      "hand": "right"
    },
    {
      "midi": 66,
      "time": 51.071,
      "duration": 0.089,
      "velocity": 1,
      "hand": "right"
    },
    {
      "midi": 64,
      "time": 51.161,
      "duration": 0.089,
      "velocity": 1,
      "hand": "right"
    },
    {
      "midi": 63,
      "time": 51.25,
      "duration": 0.089,
      "velocity": 1,
      "hand": "right"
    },
    {
      "midi": 61,
      "time": 51.339,
      "duration": 0.089,
      "velocity": 1,
      "hand": "right"
    },
    {
      "midi": 32,
      "time": 51.429,
      "duration": 0.179,
      "velocity": 1,
      "hand": "left"
    },
    {
      "midi": 44,
      "time": 51.429,
      "duration": 0.179,
      "velocity": 1,
      "hand": "left"
    },
    {
      "midi": 56,
      "time": 51.429,
      "duration": 0.179,
      "velocity": 1,
      "hand": "left"
    },
    {
      "midi": 64,
      "time": 51.786,
      "duration": 0.357,
      "velocity": 1,
      "hand": "right"
    },
    {
      "midi": 76,
      "time": 51.786,
      "duration": 0.357,
      "velocity": 1,
      "hand": "right"
    },
    {
      "midi": 93,
      "time": 51.786,
      "duration": 0.089,
      "velocity": 1,
      "hand": "right"
    },
    {
      "midi": 92,
      "time": 51.875,
      "duration": 0.089,
      "velocity": 1,
      "hand": "right"
    },
    {
      "midi": 100,
      "time": 51.964,
      "duration": 0.089,
      "velocity": 1,
      "hand": "right"
    },
    {
      "midi": 88,
      "time": 52.054,
      "duration": 0.089,
      "velocity": 1,
      "hand": "right"
    },
    {
      "midi": 61,
      "time": 52.143,
      "duration": 0.357,
      "velocity": 1,
      "hand": "right"
    },
    {
      "midi": 73,
      "time": 52.143,
      "duration": 0.357,
      "velocity": 1,
      "hand": "right"
    },
    {
      "midi": 90,
      "time": 52.143,
      "duration": 0.089,
      "velocity": 1,
      "hand": "right"
    },
    {
      "midi": 88,
      "time": 52.232,
      "duration": 0.089,
      "velocity": 1,
      "hand": "right"
    },
    {
      "midi": 97,
      "time": 52.321,
      "duration": 0.089,
      "velocity": 1,
      "hand": "right"
    },
    {
      "midi": 85,
      "time": 52.411,
      "duration": 0.089,
      "velocity": 1,
      "hand": "right"
    },
    {
      "midi": 56,
      "time": 52.5,
      "duration": 0.357,
      "velocity": 1,
      "hand": "left"
    },
    {
      "midi": 68,
      "time": 52.5,
      "duration": 0.357,
      "velocity": 1,
      "hand": "right"
    },
    {
      "midi": 87,
      "time": 52.5,
      "duration": 0.089,
      "velocity": 1,
      "hand": "right"
    },
    {
      "midi": 85,
      "time": 52.589,
      "duration": 0.089,
      "velocity": 1,
      "hand": "right"
    },
    {
      "midi": 92,
      "time": 52.679,
      "duration": 0.089,
      "velocity": 1,
      "hand": "right"
    },
    {
      "midi": 80,
      "time": 52.768,
      "duration": 0.089,
      "velocity": 1,
      "hand": "right"
    },
    {
      "midi": 52,
      "time": 52.857,
      "duration": 0.357,
      "velocity": 1,
      "hand": "left"
    },
    {
      "midi": 64,
      "time": 52.857,
      "duration": 0.357,
      "velocity": 1,
      "hand": "right"
    },
    {
      "midi": 81,
      "time": 52.857,
      "duration": 0.089,
      "velocity": 1,
      "hand": "right"
    },
    {
      "midi": 80,
      "time": 52.946,
      "duration": 0.089,
      "velocity": 1,
      "hand": "right"
    },
    {
      "midi": 88,
      "time": 53.036,
      "duration": 0.089,
      "velocity": 1,
      "hand": "right"
    },
    {
      "midi": 76,
      "time": 53.125,
      "duration": 0.089,
      "velocity": 1,
      "hand": "right"
    },
    {
      "midi": 49,
      "time": 53.214,
      "duration": 0.357,
      "velocity": 1,
      "hand": "left"
    },
    {
      "midi": 61,
      "time": 53.214,
      "duration": 0.357,
      "velocity": 1,
      "hand": "right"
    },
    {
      "midi": 78,
      "time": 53.214,
      "duration": 0.089,
      "velocity": 1,
      "hand": "right"
    },
    {
      "midi": 76,
      "time": 53.304,
      "duration": 0.089,
      "velocity": 1,
      "hand": "right"
    },
    {
      "midi": 85,
      "time": 53.393,
      "duration": 0.089,
      "velocity": 1,
      "hand": "right"
    },
    {
      "midi": 73,
      "time": 53.482,
      "duration": 0.089,
      "velocity": 1,
      "hand": "right"
    },
    {
      "midi": 44,
      "time": 53.571,
      "duration": 0.357,
      "velocity": 1,
      "hand": "left"
    },
    {
      "midi": 56,
      "time": 53.571,
      "duration": 0.357,
      "velocity": 1,
      "hand": "left"
    },
    {
      "midi": 75,
      "time": 53.571,
      "duration": 0.089,
      "velocity": 1,
      "hand": "right"
    },
    {
      "midi": 73,
      "time": 53.661,
      "duration": 0.089,
      "velocity": 1,
      "hand": "right"
    },
    {
      "midi": 80,
      "time": 53.75,
      "duration": 0.089,
      "velocity": 1,
      "hand": "right"
    },
    {
      "midi": 68,
      "time": 53.839,
      "duration": 0.089,
      "velocity": 1,
      "hand": "right"
    },
    {
      "midi": 40,
      "time": 53.929,
      "duration": 0.357,
      "velocity": 1,
      "hand": "left"
    },
    {
      "midi": 52,
      "time": 53.929,
      "duration": 0.357,
      "velocity": 1,
      "hand": "left"
    },
    {
      "midi": 69,
      "time": 53.929,
      "duration": 0.089,
      "velocity": 1,
      "hand": "right"
    },
    {
      "midi": 68,
      "time": 54.018,
      "duration": 0.089,
      "velocity": 1,
      "hand": "right"
    },
    {
      "midi": 76,
      "time": 54.107,
      "duration": 0.089,
      "velocity": 1,
      "hand": "right"
    },
    {
      "midi": 64,
      "time": 54.196,
      "duration": 0.089,
      "velocity": 1,
      "hand": "right"
    },
    {
      "midi": 37,
      "time": 54.286,
      "duration": 0.357,
      "velocity": 1,
      "hand": "left"
    },
    {
      "midi": 49,
      "time": 54.286,
      "duration": 0.357,
      "velocity": 1,
      "hand": "left"
    },
    {
      "midi": 66,
      "time": 54.286,
      "duration": 0.089,
      "velocity": 1,
      "hand": "right"
    },
    {
      "midi": 64,
      "time": 54.375,
      "duration": 0.089,
      "velocity": 1,
      "hand": "right"
    },
    {
      "midi": 73,
      "time": 54.464,
      "duration": 0.089,
      "velocity": 1,
      "hand": "right"
    },
    {
      "midi": 61,
      "time": 54.554,
      "duration": 0.089,
      "velocity": 1,
      "hand": "right"
    },
    {
      "midi": 32,
      "time": 54.643,
      "duration": 0.357,
      "velocity": 1,
      "hand": "left"
    },
    {
      "midi": 44,
      "time": 54.643,
      "duration": 0.357,
      "velocity": 1,
      "hand": "left"
    },
    {
      "midi": 63,
      "time": 54.643,
      "duration": 0.089,
      "velocity": 1,
      "hand": "right"
    },
    {
      "midi": 61,
      "time": 54.732,
      "duration": 0.089,
      "velocity": 1,
      "hand": "right"
    },
    {
      "midi": 68,
      "time": 54.821,
      "duration": 0.089,
      "velocity": 1,
      "hand": "right"
    },
    {
      "midi": 56,
      "time": 54.911,
      "duration": 0.089,
      "velocity": 1,
      "hand": "left"
    },
    {
      "midi": 32,
      "time": 55,
      "duration": 0.357,
      "velocity": 1,
      "hand": "left"
    },
    {
      "midi": 44,
      "time": 55,
      "duration": 0.357,
      "velocity": 1,
      "hand": "left"
    },
    {
      "midi": 63,
      "time": 55,
      "duration": 0.089,
      "velocity": 1,
      "hand": "right"
    },
    {
      "midi": 61,
      "time": 55.089,
      "duration": 0.089,
      "velocity": 1,
      "hand": "right"
    },
    {
      "midi": 68,
      "time": 55.179,
      "duration": 0.089,
      "velocity": 1,
      "hand": "right"
    },
    {
      "midi": 56,
      "time": 55.268,
      "duration": 0.089,
      "velocity": 1,
      "hand": "left"
    },
    {
      "midi": 33,
      "time": 55.357,
      "duration": 0.357,
      "velocity": 1,
      "hand": "left"
    },
    {
      "midi": 45,
      "time": 55.357,
      "duration": 0.357,
      "velocity": 1,
      "hand": "left"
    },
    {
      "midi": 63,
      "time": 55.357,
      "duration": 0.089,
      "velocity": 1,
      "hand": "right"
    },
    {
      "midi": 61,
      "time": 55.446,
      "duration": 0.089,
      "velocity": 1,
      "hand": "right"
    },
    {
      "midi": 69,
      "time": 55.536,
      "duration": 0.089,
      "velocity": 1,
      "hand": "right"
    },
    {
      "midi": 57,
      "time": 55.625,
      "duration": 0.089,
      "velocity": 1,
      "hand": "left"
    },
    {
      "midi": 32,
      "time": 55.714,
      "duration": 0.357,
      "velocity": 1,
      "hand": "left"
    },
    {
      "midi": 44,
      "time": 55.714,
      "duration": 0.357,
      "velocity": 1,
      "hand": "left"
    },
    {
      "midi": 63,
      "time": 55.714,
      "duration": 0.089,
      "velocity": 1,
      "hand": "right"
    },
    {
      "midi": 61,
      "time": 55.804,
      "duration": 0.089,
      "velocity": 1,
      "hand": "right"
    },
    {
      "midi": 68,
      "time": 55.893,
      "duration": 0.089,
      "velocity": 1,
      "hand": "right"
    },
    {
      "midi": 56,
      "time": 55.982,
      "duration": 0.089,
      "velocity": 1,
      "hand": "left"
    },
    {
      "midi": 31,
      "time": 56.071,
      "duration": 0.357,
      "velocity": 1,
      "hand": "left"
    },
    {
      "midi": 43,
      "time": 56.071,
      "duration": 0.357,
      "velocity": 1,
      "hand": "left"
    },
    {
      "midi": 63,
      "time": 56.071,
      "duration": 0.089,
      "velocity": 1,
      "hand": "right"
    },
    {
      "midi": 61,
      "time": 56.161,
      "duration": 0.089,
      "velocity": 1,
      "hand": "right"
    },
    {
      "midi": 67,
      "time": 56.25,
      "duration": 0.089,
      "velocity": 1,
      "hand": "right"
    },
    {
      "midi": 55,
      "time": 56.339,
      "duration": 0.089,
      "velocity": 1,
      "hand": "left"
    },
    {
      "midi": 32,
      "time": 56.429,
      "duration": 0.714,
      "velocity": 1,
      "hand": "left"
    },
    {
      "midi": 44,
      "time": 56.429,
      "duration": 0.714,
      "velocity": 1,
      "hand": "left"
    },
    {
      "midi": 63,
      "time": 56.429,
      "duration": 0.089,
      "velocity": 1,
      "hand": "right"
    },
    {
      "midi": 61,
      "time": 56.518,
      "duration": 0.089,
      "velocity": 1,
      "hand": "right"
    },
    {
      "midi": 68,
      "time": 56.607,
      "duration": 0.089,
      "velocity": 1,
      "hand": "right"
    },
    {
      "midi": 56,
      "time": 56.696,
      "duration": 0.089,
      "velocity": 1,
      "hand": "left"
    },
    {
      "midi": 63,
      "time": 56.786,
      "duration": 0.089,
      "velocity": 1,
      "hand": "right"
    },
    {
      "midi": 60,
      "time": 56.875,
      "duration": 0.089,
      "velocity": 1,
      "hand": "right"
    },
    {
      "midi": 68,
      "time": 56.964,
      "duration": 0.089,
      "velocity": 1,
      "hand": "right"
    },
    {
      "midi": 56,
      "time": 57.054,
      "duration": 0.089,
      "velocity": 1,
      "hand": "left"
    },
    {
      "midi": 37,
      "time": 57.143,
      "duration": 0.357,
      "velocity": 1,
      "hand": "left"
    },
    {
      "midi": 44,
      "time": 57.5,
      "duration": 0.357,
      "velocity": 1,
      "hand": "left"
    },
    {
      "midi": 49,
      "time": 57.768,
      "duration": 0.357,
      "velocity": 1,
      "hand": "left"
    },
    {
      "midi": 53,
      "time": 58.125,
      "duration": 0.357,
      "velocity": 1,
      "hand": "left"
    },
    {
      "midi": 56,
      "time": 58.482,
      "duration": 0.357,
      "velocity": 1,
      "hand": "left"
    },
    {
      "midi": 61,
      "time": 58.839,
      "duration": 0.357,
      "velocity": 1,
      "hand": "right"
    },
    {
      "midi": 65,
      "time": 59.107,
      "duration": 0.357,
      "velocity": 1,
      "hand": "right"
    },
    {
      "midi": 61,
      "time": 59.464,
      "duration": 0.357,
      "velocity": 1,
      "hand": "right"
    },
    {
      "midi": 56,
      "time": 59.821,
      "duration": 0.357,
      "velocity": 1,
      "hand": "left"
    },
    {
      "midi": 53,
      "time": 60.179,
      "duration": 0.357,
      "velocity": 1,
      "hand": "left"
    },
    {
      "midi": 49,
      "time": 60.446,
      "duration": 0.357,
      "velocity": 1,
      "hand": "left"
    },
    {
      "midi": 44,
      "time": 60.804,
      "duration": 0.357,
      "velocity": 1,
      "hand": "left"
    },
    {
      "midi": 37,
      "time": 61.161,
      "duration": 0.357,
      "velocity": 1,
      "hand": "left"
    },
    {
      "midi": 44,
      "time": 61.518,
      "duration": 0.357,
      "velocity": 1,
      "hand": "left"
    },
    {
      "midi": 49,
      "time": 61.786,
      "duration": 0.357,
      "velocity": 1,
      "hand": "left"
    },
    {
      "midi": 53,
      "time": 62.143,
      "duration": 0.357,
      "velocity": 1,
      "hand": "left"
    },
    {
      "midi": 56,
      "time": 62.5,
      "duration": 0.357,
      "velocity": 1,
      "hand": "left"
    },
    {
      "midi": 61,
      "time": 62.768,
      "duration": 0.357,
      "velocity": 1,
      "hand": "right"
    },
    {
      "midi": 65,
      "time": 63.125,
      "duration": 0.357,
      "velocity": 1,
      "hand": "right"
    },
    {
      "midi": 61,
      "time": 63.482,
      "duration": 0.357,
      "velocity": 1,
      "hand": "right"
    },
    {
      "midi": 56,
      "time": 63.839,
      "duration": 0.357,
      "velocity": 1,
      "hand": "left"
    },
    {
      "midi": 53,
      "time": 64.107,
      "duration": 0.357,
      "velocity": 1,
      "hand": "left"
    },
    {
      "midi": 49,
      "time": 64.464,
      "duration": 0.357,
      "velocity": 1,
      "hand": "left"
    },
    {
      "midi": 44,
      "time": 64.821,
      "duration": 0.536,
      "velocity": 1,
      "hand": "left"
    },
    {
      "midi": 37,
      "time": 65.179,
      "duration": 0.179,
      "velocity": 1,
      "hand": "left"
    },
    {
      "midi": 68,
      "time": 65.179,
      "duration": 1.339,
      "velocity": 1,
      "hand": "right"
    },
    {
      "midi": 56,
      "time": 65.357,
      "duration": 0.179,
      "velocity": 1,
      "hand": "left"
    },
    {
      "midi": 60,
      "time": 65.625,
      "duration": 0.179,
      "velocity": 1,
      "hand": "right"
    },
    {
      "midi": 63,
      "time": 65.804,
      "duration": 0.179,
      "velocity": 1,
      "hand": "right"
    },
    {
      "midi": 60,
      "time": 66.071,
      "duration": 0.179,
      "velocity": 1,
      "hand": "right"
    },
    {
      "midi": 56,
      "time": 66.25,
      "duration": 0.179,
      "velocity": 1,
      "hand": "left"
    },
    {
      "midi": 49,
      "time": 66.518,
      "duration": 0.179,
      "velocity": 1,
      "hand": "left"
    },
    {
      "midi": 70,
      "time": 66.518,
      "duration": 0.357,
      "velocity": 1,
      "hand": "right"
    },
    {
      "midi": 56,
      "time": 66.696,
      "duration": 0.179,
      "velocity": 1,
      "hand": "left"
    },
    {
      "midi": 68,
      "time": 66.786,
      "duration": 0.357,
      "velocity": 1,
      "hand": "right"
    },
    {
      "midi": 60,
      "time": 66.964,
      "duration": 0.179,
      "velocity": 1,
      "hand": "right"
    },
    {
      "midi": 66,
      "time": 67.143,
      "duration": 0.179,
      "velocity": 1,
      "hand": "right"
    },
    {
      "midi": 73,
      "time": 67.143,
      "duration": 0.357,
      "velocity": 1,
      "hand": "right"
    },
    {
      "midi": 60,
      "time": 67.321,
      "duration": 0.179,
      "velocity": 1,
      "hand": "right"
    },
    {
      "midi": 75,
      "time": 67.5,
      "duration": 0.357,
      "velocity": 1,
      "hand": "right"
    },
    {
      "midi": 56,
      "time": 67.589,
      "duration": 0.179,
      "velocity": 1,
      "hand": "left"
    },
    {
      "midi": 49,
      "time": 67.768,
      "duration": 0.179,
      "velocity": 1,
      "hand": "left"
    },
    {
      "midi": 77,
      "time": 67.768,
      "duration": 1.339,
      "velocity": 1,
      "hand": "right"
    },
    {
      "midi": 56,
      "time": 68.036,
      "duration": 0.179,
      "velocity": 1,
      "hand": "left"
    },
    {
      "midi": 61,
      "time": 68.214,
      "duration": 0.179,
      "velocity": 1,
      "hand": "right"
    },
    {
      "midi": 65,
      "time": 68.482,
      "duration": 0.179,
      "velocity": 1,
      "hand": "right"
    },
    {
      "midi": 61,
      "time": 68.661,
      "duration": 0.179,
      "velocity": 1,
      "hand": "right"
    },
    {
      "midi": 56,
      "time": 68.929,
      "duration": 0.179,
      "velocity": 1,
      "hand": "left"
    },
    {
      "midi": 49,
      "time": 69.107,
      "duration": 0.179,
      "velocity": 1,
      "hand": "left"
    },
    {
      "midi": 80,
      "time": 69.107,
      "duration": 1.339,
      "velocity": 1,
      "hand": "right"
    },
    {
      "midi": 56,
      "time": 69.375,
      "duration": 0.179,
      "velocity": 1,
      "hand": "left"
    },
    {
      "midi": 65,
      "time": 69.554,
      "duration": 0.179,
      "velocity": 1,
      "hand": "right"
    },
    {
      "midi": 68,
      "time": 69.821,
      "duration": 0.625,
      "velocity": 1,
      "hand": "right"
    },
    {
      "midi": 65,
      "time": 70,
      "duration": 0.179,
      "velocity": 1,
      "hand": "right"
    },
    {
      "midi": 56,
      "time": 70.268,
      "duration": 0.179,
      "velocity": 1,
      "hand": "left"
    },
    {
      "midi": 66,
      "time": 70.446,
      "duration": 0.625,
      "velocity": 1,
      "hand": "right"
    },
    {
      "midi": 78,
      "time": 70.446,
      "duration": 0.625,
      "velocity": 1,
      "hand": "right"
    },
    {
      "midi": 63,
      "time": 70.714,
      "duration": 0.179,
      "velocity": 1,
      "hand": "right"
    },
    {
      "midi": 56,
      "time": 70.893,
      "duration": 0.179,
      "velocity": 1,
      "hand": "left"
    },
    {
      "midi": 65,
      "time": 71.161,
      "duration": 0.625,
      "velocity": 1,
      "hand": "right"
    },
    {
      "midi": 77,
      "time": 71.161,
      "duration": 0.625,
      "velocity": 1,
      "hand": "right"
    },
    {
      "midi": 61,
      "time": 71.339,
      "duration": 0.179,
      "velocity": 1,
      "hand": "right"
    },
    {
      "midi": 56,
      "time": 71.607,
      "duration": 0.179,
      "velocity": 1,
      "hand": "left"
    },
    {
      "midi": 63,
      "time": 71.786,
      "duration": 0.625,
      "velocity": 1,
      "hand": "right"
    },
    {
      "midi": 75,
      "time": 71.786,
      "duration": 0.625,
      "velocity": 1,
      "hand": "right"
    },
    {
      "midi": 60,
      "time": 72.054,
      "duration": 0.179,
      "velocity": 1,
      "hand": "right"
    },
    {
      "midi": 56,
      "time": 72.232,
      "duration": 0.179,
      "velocity": 1,
      "hand": "left"
    },
    {
      "midi": 61,
      "time": 72.5,
      "duration": 0.625,
      "velocity": 1,
      "hand": "right"
    },
    {
      "midi": 77,
      "time": 72.5,
      "duration": 0.536,
      "velocity": 1,
      "hand": "right"
    },
    {
      "midi": 56,
      "time": 72.679,
      "duration": 0.179,
      "velocity": 1,
      "hand": "left"
    },
    {
      "midi": 53,
      "time": 72.946,
      "duration": 0.179,
      "velocity": 1,
      "hand": "left"
    },
    {
      "midi": 73,
      "time": 72.946,
      "duration": 0.179,
      "velocity": 1,
      "hand": "right"
    },
    {
      "midi": 44,
      "time": 73.125,
      "duration": 0.179,
      "velocity": 1,
      "hand": "left"
    },
    {
      "midi": 68,
      "time": 73.125,
      "duration": 1.339,
      "velocity": 1,
      "hand": "right"
    },
    {
      "midi": 51,
      "time": 73.393,
      "duration": 0.179,
      "velocity": 1,
      "hand": "left"
    },
    {
      "midi": 56,
      "time": 73.571,
      "duration": 0.179,
      "velocity": 1,
      "hand": "left"
    },
    {
      "midi": 60,
      "time": 73.839,
      "duration": 0.179,
      "velocity": 1,
      "hand": "right"
    },
    {
      "midi": 56,
      "time": 74.018,
      "duration": 0.179,
      "velocity": 1,
      "hand": "left"
    },
    {
      "midi": 51,
      "time": 74.286,
      "duration": 0.179,
      "velocity": 1,
      "hand": "left"
    },
    {
      "midi": 42,
      "time": 74.464,
      "duration": 0.179,
      "velocity": 1,
      "hand": "left"
    },
    {
      "midi": 70,
      "time": 74.464,
      "duration": 2.679,
      "velocity": 1,
      "hand": "right"
    },
    {
      "midi": 54,
      "time": 74.732,
      "duration": 0.179,
      "velocity": 1,
      "hand": "left"
    },
    {
      "midi": 58,
      "time": 74.911,
      "duration": 0.179,
      "velocity": 1,
      "hand": "left"
    },
    {
      "midi": 61,
      "time": 75.179,
      "duration": 0.179,
      "velocity": 1,
      "hand": "right"
    },
    {
      "midi": 58,
      "time": 75.357,
      "duration": 0.179,
      "velocity": 1,
      "hand": "left"
    },
    {
      "midi": 54,
      "time": 75.625,
      "duration": 0.179,
      "velocity": 1,
      "hand": "left"
    },
    {
      "midi": 46,
      "time": 75.804,
      "duration": 0.179,
      "velocity": 1,
      "hand": "left"
    },
    {
      "midi": 53,
      "time": 76.071,
      "duration": 0.179,
      "velocity": 1,
      "hand": "left"
    },
    {
      "midi": 58,
      "time": 76.25,
      "duration": 0.179,
      "velocity": 1,
      "hand": "left"
    },
    {
      "midi": 62,
      "time": 76.518,
      "duration": 0.179,
      "velocity": 1,
      "hand": "right"
    },
    {
      "midi": 58,
      "time": 76.696,
      "duration": 0.179,
      "velocity": 1,
      "hand": "left"
    },
    {
      "midi": 53,
      "time": 76.964,
      "duration": 0.179,
      "velocity": 1,
      "hand": "left"
    },
    {
      "midi": 46,
      "time": 77.143,
      "duration": 0.179,
      "velocity": 1,
      "hand": "left"
    },
    {
      "midi": 71,
      "time": 77.143,
      "duration": 0.357,
      "velocity": 1,
      "hand": "right"
    },
    {
      "midi": 58,
      "time": 77.321,
      "duration": 0.179,
      "velocity": 1,
      "hand": "left"
    },
    {
      "midi": 70,
      "time": 77.5,
      "duration": 0.357,
      "velocity": 1,
      "hand": "right"
    },
    {
      "midi": 62,
      "time": 77.589,
      "duration": 0.179,
      "velocity": 1,
      "hand": "right"
    },
    {
      "midi": 68,
      "time": 77.768,
      "duration": 0.179,
      "velocity": 1,
      "hand": "right"
    },
    {
      "midi": 75,
      "time": 77.768,
      "duration": 0.357,
      "velocity": 1,
      "hand": "right"
    },
    {
      "midi": 62,
      "time": 78.036,
      "duration": 0.179,
      "velocity": 1,
      "hand": "right"
    },
    {
      "midi": 77,
      "time": 78.125,
      "duration": 0.357,
      "velocity": 1,
      "hand": "right"
    },
    {
      "midi": 58,
      "time": 78.214,
      "duration": 0.179,
      "velocity": 1,
      "hand": "left"
    },
    {
      "midi": 51,
      "time": 78.482,
      "duration": 0.179,
      "velocity": 1,
      "hand": "left"
    },
    {
      "midi": 78,
      "time": 78.482,
      "duration": 0.625,
      "velocity": 1,
      "hand": "right"
    },
    {
      "midi": 66,
      "time": 78.661,
      "duration": 0.179,
      "velocity": 1,
      "hand": "right"
    },
    {
      "midi": 58,
      "time": 78.929,
      "duration": 0.179,
      "velocity": 1,
      "hand": "left"
    },
    {
      "midi": 53,
      "time": 79.107,
      "duration": 0.179,
      "velocity": 1,
      "hand": "left"
    },
    {
      "midi": 77,
      "time": 79.107,
      "duration": 0.625,
      "velocity": 1,
      "hand": "right"
    },
    {
      "midi": 65,
      "time": 79.375,
      "duration": 0.179,
      "velocity": 1,
      "hand": "right"
    },
    {
      "midi": 57,
      "time": 79.554,
      "duration": 0.179,
      "velocity": 1,
      "hand": "left"
    },
    {
      "midi": 54,
      "time": 79.821,
      "duration": 0.179,
      "velocity": 1,
      "hand": "left"
    },
    {
      "midi": 75,
      "time": 79.821,
      "duration": 0.625,
      "velocity": 1,
      "hand": "right"
    },
    {
      "midi": 63,
      "time": 80,
      "duration": 0.179,
      "velocity": 1,
      "hand": "right"
    },
    {
      "midi": 58,
      "time": 80.268,
      "duration": 0.179,
      "velocity": 1,
      "hand": "left"
    },
    {
      "midi": 56,
      "time": 80.446,
      "duration": 0.179,
      "velocity": 1,
      "hand": "left"
    },
    {
      "midi": 77,
      "time": 80.446,
      "duration": 0.625,
      "velocity": 1,
      "hand": "right"
    },
    {
      "midi": 66,
      "time": 80.714,
      "duration": 0.179,
      "velocity": 1,
      "hand": "right"
    },
    {
      "midi": 60,
      "time": 80.893,
      "duration": 0.179,
      "velocity": 1,
      "hand": "right"
    },
    {
      "midi": 49,
      "time": 81.161,
      "duration": 0.179,
      "velocity": 1,
      "hand": "left"
    },
    {
      "midi": 73,
      "time": 81.161,
      "duration": 1.25,
      "velocity": 1,
      "hand": "right"
    },
    {
      "midi": 56,
      "time": 81.339,
      "duration": 0.179,
      "velocity": 1,
      "hand": "left"
    },
    {
      "midi": 61,
      "time": 81.607,
      "duration": 0.179,
      "velocity": 1,
      "hand": "right"
    },
    {
      "midi": 65,
      "time": 81.786,
      "duration": 0.179,
      "velocity": 1,
      "hand": "right"
    },
    {
      "midi": 61,
      "time": 82.054,
      "duration": 0.179,
      "velocity": 1,
      "hand": "right"
    },
    {
      "midi": 56,
      "time": 82.232,
      "duration": 0.179,
      "velocity": 1,
      "hand": "left"
    },
    {
      "midi": 72,
      "time": 82.411,
      "duration": 0.045,
      "velocity": 1,
      "hand": "right"
    },
    {
      "midi": 73,
      "time": 82.411,
      "duration": 0.045,
      "velocity": 1,
      "hand": "right"
    },
    {
      "midi": 75,
      "time": 82.411,
      "duration": 0.045,
      "velocity": 1,
      "hand": "right"
    },
    {
      "midi": 51,
      "time": 82.5,
      "duration": 0.179,
      "velocity": 1,
      "hand": "left"
    },
    {
      "midi": 73,
      "time": 82.5,
      "duration": 0.045,
      "velocity": 1,
      "hand": "right"
    },
    {
      "midi": 77,
      "time": 82.5,
      "duration": 0.982,
      "velocity": 1,
      "hand": "right"
    },
    {
      "midi": 55,
      "time": 82.679,
      "duration": 0.179,
      "velocity": 1,
      "hand": "left"
    },
    {
      "midi": 61,
      "time": 82.946,
      "duration": 0.179,
      "velocity": 1,
      "hand": "right"
    },
    {
      "midi": 63,
      "time": 83.125,
      "duration": 0.179,
      "velocity": 1,
      "hand": "right"
    },
    {
      "midi": 61,
      "time": 83.393,
      "duration": 0.179,
      "velocity": 1,
      "hand": "right"
    },
    {
      "midi": 75,
      "time": 83.482,
      "duration": 0.357,
      "velocity": 1,
      "hand": "right"
    },
    {
      "midi": 55,
      "time": 83.571,
      "duration": 0.179,
      "velocity": 1,
      "hand": "left"
    },
    {
      "midi": 44,
      "time": 83.839,
      "duration": 0.179,
      "velocity": 1,
      "hand": "left"
    },
    {
      "midi": 75,
      "time": 83.839,
      "duration": 2.679,
      "velocity": 1,
      "hand": "right"
    },
    {
      "midi": 51,
      "time": 84.018,
      "duration": 0.179,
      "velocity": 1,
      "hand": "left"
    },
    {
      "midi": 56,
      "time": 84.286,
      "duration": 0.179,
      "velocity": 1,
      "hand": "left"
    },
    {
      "midi": 60,
      "time": 84.464,
      "duration": 0.179,
      "velocity": 1,
      "hand": "right"
    },
    {
      "midi": 56,
      "time": 84.732,
      "duration": 0.179,
      "velocity": 1,
      "hand": "left"
    },
    {
      "midi": 51,
      "time": 84.911,
      "duration": 0.179,
      "velocity": 1,
      "hand": "left"
    },
    {
      "midi": 44,
      "time": 85.179,
      "duration": 0.179,
      "velocity": 1,
      "hand": "left"
    },
    {
      "midi": 51,
      "time": 85.357,
      "duration": 0.179,
      "velocity": 1,
      "hand": "left"
    },
    {
      "midi": 54,
      "time": 85.625,
      "duration": 0.179,
      "velocity": 1,
      "hand": "left"
    },
    {
      "midi": 58,
      "time": 85.804,
      "duration": 0.625,
      "velocity": 1,
      "hand": "left"
    },
    {
      "midi": 54,
      "time": 86.071,
      "duration": 0.179,
      "velocity": 1,
      "hand": "left"
    },
    {
      "midi": 51,
      "time": 86.25,
      "duration": 0.179,
      "velocity": 1,
      "hand": "left"
    },
    {
      "midi": 44,
      "time": 86.518,
      "duration": 0.179,
      "velocity": 1,
      "hand": "left"
    },
    {
      "midi": 68,
      "time": 86.518,
      "duration": 1.339,
      "velocity": 1,
      "hand": "right"
    },
    {
      "midi": 51,
      "time": 86.696,
      "duration": 0.179,
      "velocity": 1,
      "hand": "left"
    },
    {
      "midi": 56,
      "time": 86.964,
      "duration": 0.179,
      "velocity": 1,
      "hand": "left"
    },
    {
      "midi": 60,
      "time": 87.143,
      "duration": 0.179,
      "velocity": 1,
      "hand": "right"
    },
    {
      "midi": 56,
      "time": 87.321,
      "duration": 0.179,
      "velocity": 1,
      "hand": "left"
    },
    {
      "midi": 51,
      "time": 87.589,
      "duration": 0.179,
      "velocity": 1,
      "hand": "left"
    },
    {
      "midi": 44,
      "time": 87.768,
      "duration": 0.179,
      "velocity": 1,
      "hand": "left"
    },
    {
      "midi": 70,
      "time": 87.768,
      "duration": 0.357,
      "velocity": 1,
      "hand": "right"
    },
    {
      "midi": 56,
      "time": 88.036,
      "duration": 0.179,
      "velocity": 1,
      "hand": "left"
    },
    {
      "midi": 68,
      "time": 88.125,
      "duration": 0.357,
      "velocity": 1,
      "hand": "right"
    },
    {
      "midi": 60,
      "time": 88.214,
      "duration": 0.179,
      "velocity": 1,
      "hand": "right"
    },
    {
      "midi": 66,
      "time": 88.482,
      "duration": 0.179,
      "velocity": 1,
      "hand": "right"
    },
    {
      "midi": 73,
      "time": 88.482,
      "duration": 0.357,
      "velocity": 1,
      "hand": "right"
    },
    {
      "midi": 60,
      "time": 88.661,
      "duration": 0.179,
      "velocity": 1,
      "hand": "right"
    },
    {
      "midi": 75,
      "time": 88.839,
      "duration": 0.357,
      "velocity": 1,
      "hand": "right"
    },
    {
      "midi": 56,
      "time": 88.929,
      "duration": 0.179,
      "velocity": 1,
      "hand": "left"
    },
    {
      "midi": 49,
      "time": 89.107,
      "duration": 0.179,
      "velocity": 1,
      "hand": "left"
    },
    {
      "midi": 77,
      "time": 89.107,
      "duration": 1.339,
      "velocity": 1,
      "hand": "right"
    },
    {
      "midi": 56,
      "time": 89.375,
      "duration": 0.179,
      "velocity": 1,
      "hand": "left"
    },
    {
      "midi": 61,
      "time": 89.554,
      "duration": 0.179,
      "velocity": 1,
      "hand": "right"
    },
    {
      "midi": 65,
      "time": 89.821,
      "duration": 0.179,
      "velocity": 1,
      "hand": "right"
    },
    {
      "midi": 61,
      "time": 90,
      "duration": 0.179,
      "velocity": 1,
      "hand": "right"
    },
    {
      "midi": 56,
      "time": 90.268,
      "duration": 0.179,
      "velocity": 1,
      "hand": "left"
    },
    {
      "midi": 49,
      "time": 90.446,
      "duration": 0.179,
      "velocity": 1,
      "hand": "left"
    },
    {
      "midi": 80,
      "time": 90.446,
      "duration": 1.339,
      "velocity": 1,
      "hand": "right"
    },
    {
      "midi": 56,
      "time": 90.714,
      "duration": 0.179,
      "velocity": 1,
      "hand": "left"
    },
    {
      "midi": 65,
      "time": 90.893,
      "duration": 0.179,
      "velocity": 1,
      "hand": "right"
    },
    {
      "midi": 68,
      "time": 91.161,
      "duration": 0.625,
      "velocity": 1,
      "hand": "right"
    },
    {
      "midi": 65,
      "time": 91.339,
      "duration": 0.179,
      "velocity": 1,
      "hand": "right"
    },
    {
      "midi": 56,
      "time": 91.607,
      "duration": 0.179,
      "velocity": 1,
      "hand": "left"
    },
    {
      "midi": 66,
      "time": 91.786,
      "duration": 0.625,
      "velocity": 1,
      "hand": "right"
    },
    {
      "midi": 78,
      "time": 91.786,
      "duration": 0.625,
      "velocity": 1,
      "hand": "right"
    },
    {
      "midi": 63,
      "time": 92.054,
      "duration": 0.179,
      "velocity": 1,
      "hand": "right"
    },
    {
      "midi": 56,
      "time": 92.232,
      "duration": 0.179,
      "velocity": 1,
      "hand": "left"
    },
    {
      "midi": 65,
      "time": 92.5,
      "duration": 0.625,
      "velocity": 1,
      "hand": "right"
    },
    {
      "midi": 77,
      "time": 92.5,
      "duration": 0.625,
      "velocity": 1,
      "hand": "right"
    },
    {
      "midi": 61,
      "time": 92.679,
      "duration": 0.179,
      "velocity": 1,
      "hand": "right"
    },
    {
      "midi": 56,
      "time": 92.946,
      "duration": 0.179,
      "velocity": 1,
      "hand": "left"
    },
    {
      "midi": 63,
      "time": 93.125,
      "duration": 0.625,
      "velocity": 1,
      "hand": "right"
    },
    {
      "midi": 75,
      "time": 93.125,
      "duration": 0.536,
      "velocity": 1,
      "hand": "right"
    },
    {
      "midi": 60,
      "time": 93.393,
      "duration": 0.179,
      "velocity": 1,
      "hand": "right"
    },
    {
      "midi": 56,
      "time": 93.571,
      "duration": 0.179,
      "velocity": 1,
      "hand": "left"
    },
    {
      "midi": 75,
      "time": 93.661,
      "duration": 0.045,
      "velocity": 1,
      "hand": "right"
    },
    {
      "midi": 77,
      "time": 93.661,
      "duration": 0.045,
      "velocity": 1,
      "hand": "right"
    },
    {
      "midi": 73,
      "time": 93.75,
      "duration": 0.045,
      "velocity": 1,
      "hand": "right"
    },
    {
      "midi": 75,
      "time": 93.75,
      "duration": 0.045,
      "velocity": 1,
      "hand": "right"
    },
    {
      "midi": 61,
      "time": 93.839,
      "duration": 0.625,
      "velocity": 1,
      "hand": "right"
    },
    {
      "midi": 77,
      "time": 93.839,
      "duration": 0.536,
      "velocity": 1,
      "hand": "right"
    },
    {
      "midi": 56,
      "time": 94.018,
      "duration": 0.179,
      "velocity": 1,
      "hand": "left"
    },
    {
      "midi": 53,
      "time": 94.286,
      "duration": 0.179,
      "velocity": 1,
      "hand": "left"
    },
    {
      "midi": 73,
      "time": 94.286,
      "duration": 0.179,
      "velocity": 1,
      "hand": "right"
    },
    {
      "midi": 44,
      "time": 94.464,
      "duration": 0.179,
      "velocity": 1,
      "hand": "left"
    },
    {
      "midi": 68,
      "time": 94.464,
      "duration": 1.339,
      "velocity": 1,
      "hand": "right"
    },
    {
      "midi": 51,
      "time": 94.732,
      "duration": 0.179,
      "velocity": 1,
      "hand": "left"
    },
    {
      "midi": 56,
      "time": 94.911,
      "duration": 0.179,
      "velocity": 1,
      "hand": "left"
    },
    {
      "midi": 60,
      "time": 95.179,
      "duration": 0.179,
      "velocity": 1,
      "hand": "right"
    },
    {
      "midi": 56,
      "time": 95.357,
      "duration": 0.179,
      "velocity": 1,
      "hand": "left"
    },
    {
      "midi": 51,
      "time": 95.625,
      "duration": 0.179,
      "velocity": 1,
      "hand": "left"
    },
    {
      "midi": 42,
      "time": 95.804,
      "duration": 0.179,
      "velocity": 1,
      "hand": "left"
    },
    {
      "midi": 70,
      "time": 95.804,
      "duration": 2.679,
      "velocity": 1,
      "hand": "right"
    },
    {
      "midi": 54,
      "time": 96.071,
      "duration": 0.179,
      "velocity": 1,
      "hand": "left"
    },
    {
      "midi": 58,
      "time": 96.25,
      "duration": 0.179,
      "velocity": 1,
      "hand": "left"
    },
    {
      "midi": 61,
      "time": 96.518,
      "duration": 0.179,
      "velocity": 1,
      "hand": "right"
    },
    {
      "midi": 58,
      "time": 96.696,
      "duration": 0.179,
      "velocity": 1,
      "hand": "left"
    },
    {
      "midi": 54,
      "time": 96.964,
      "duration": 0.179,
      "velocity": 1,
      "hand": "left"
    },
    {
      "midi": 46,
      "time": 97.143,
      "duration": 0.179,
      "velocity": 1,
      "hand": "left"
    },
    {
      "midi": 53,
      "time": 97.321,
      "duration": 0.179,
      "velocity": 1,
      "hand": "left"
    },
    {
      "midi": 58,
      "time": 97.589,
      "duration": 0.179,
      "velocity": 1,
      "hand": "left"
    },
    {
      "midi": 62,
      "time": 97.768,
      "duration": 0.179,
      "velocity": 1,
      "hand": "right"
    },
    {
      "midi": 58,
      "time": 98.036,
      "duration": 0.179,
      "velocity": 1,
      "hand": "left"
    },
    {
      "midi": 53,
      "time": 98.214,
      "duration": 0.179,
      "velocity": 1,
      "hand": "left"
    },
    {
      "midi": 46,
      "time": 98.482,
      "duration": 0.179,
      "velocity": 1,
      "hand": "left"
    },
    {
      "midi": 71,
      "time": 98.482,
      "duration": 0.357,
      "velocity": 1,
      "hand": "right"
    },
    {
      "midi": 58,
      "time": 98.661,
      "duration": 0.179,
      "velocity": 1,
      "hand": "left"
    },
    {
      "midi": 70,
      "time": 98.839,
      "duration": 0.357,
      "velocity": 1,
      "hand": "right"
    },
    {
      "midi": 62,
      "time": 98.929,
      "duration": 0.179,
      "velocity": 1,
      "hand": "right"
    },
    {
      "midi": 68,
      "time": 99.107,
      "duration": 0.179,
      "velocity": 1,
      "hand": "right"
    },
    {
      "midi": 75,
      "time": 99.107,
      "duration": 0.357,
      "velocity": 1,
      "hand": "right"
    },
    {
      "midi": 62,
      "time": 99.375,
      "duration": 0.179,
      "velocity": 1,
      "hand": "right"
    },
    {
      "midi": 77,
      "time": 99.464,
      "duration": 0.357,
      "velocity": 1,
      "hand": "right"
    },
    {
      "midi": 58,
      "time": 99.554,
      "duration": 0.179,
      "velocity": 1,
      "hand": "left"
    },
    {
      "midi": 51,
      "time": 99.821,
      "duration": 0.179,
      "velocity": 1,
      "hand": "left"
    },
    {
      "midi": 78,
      "time": 99.821,
      "duration": 0.625,
      "velocity": 1,
      "hand": "right"
    },
    {
      "midi": 66,
      "time": 100,
      "duration": 0.179,
      "velocity": 1,
      "hand": "right"
    },
    {
      "midi": 58,
      "time": 100.268,
      "duration": 0.179,
      "velocity": 1,
      "hand": "left"
    },
    {
      "midi": 53,
      "time": 100.446,
      "duration": 0.179,
      "velocity": 1,
      "hand": "left"
    },
    {
      "midi": 77,
      "time": 100.446,
      "duration": 0.625,
      "velocity": 1,
      "hand": "right"
    },
    {
      "midi": 65,
      "time": 100.714,
      "duration": 0.179,
      "velocity": 1,
      "hand": "right"
    },
    {
      "midi": 57,
      "time": 100.893,
      "duration": 0.179,
      "velocity": 1,
      "hand": "left"
    },
    {
      "midi": 54,
      "time": 101.161,
      "duration": 0.179,
      "velocity": 1,
      "hand": "left"
    },
    {
      "midi": 75,
      "time": 101.161,
      "duration": 0.625,
      "velocity": 1,
      "hand": "right"
    },
    {
      "midi": 63,
      "time": 101.339,
      "duration": 0.179,
      "velocity": 1,
      "hand": "right"
    },
    {
      "midi": 58,
      "time": 101.607,
      "duration": 0.179,
      "velocity": 1,
      "hand": "left"
    },
    {
      "midi": 56,
      "time": 101.786,
      "duration": 0.179,
      "velocity": 1,
      "hand": "left"
    },
    {
      "midi": 77,
      "time": 101.786,
      "duration": 0.625,
      "velocity": 1,
      "hand": "right"
    },
    {
      "midi": 66,
      "time": 102.054,
      "duration": 0.179,
      "velocity": 1,
      "hand": "right"
    },
    {
      "midi": 60,
      "time": 102.232,
      "duration": 0.179,
      "velocity": 1,
      "hand": "right"
    },
    {
      "midi": 49,
      "time": 102.5,
      "duration": 0.179,
      "velocity": 1,
      "hand": "left"
    },
    {
      "midi": 73,
      "time": 102.5,
      "duration": 0.982,
      "velocity": 1,
      "hand": "right"
    },
    {
      "midi": 56,
      "time": 102.679,
      "duration": 0.179,
      "velocity": 1,
      "hand": "left"
    },
    {
      "midi": 61,
      "time": 102.946,
      "duration": 0.179,
      "velocity": 1,
      "hand": "right"
    },
    {
      "midi": 65,
      "time": 103.125,
      "duration": 0.179,
      "velocity": 1,
      "hand": "right"
    },
    {
      "midi": 61,
      "time": 103.393,
      "duration": 0.179,
      "velocity": 1,
      "hand": "right"
    },
    {
      "midi": 67,
      "time": 103.482,
      "duration": 0.089,
      "velocity": 1,
      "hand": "right"
    },
    {
      "midi": 56,
      "time": 103.571,
      "duration": 0.179,
      "velocity": 1,
      "hand": "left"
    },
    {
      "midi": 68,
      "time": 103.571,
      "duration": 0.089,
      "velocity": 1,
      "hand": "right"
    },
    {
      "midi": 70,
      "time": 103.661,
      "duration": 0.089,
      "velocity": 1,
      "hand": "right"
    },
    {
      "midi": 68,
      "time": 103.75,
      "duration": 0.089,
      "velocity": 1,
      "hand": "right"
    },
    {
      "midi": 49,
      "time": 103.839,
      "duration": 0.179,
      "velocity": 1,
      "hand": "left"
    },
    {
      "midi": 77,
      "time": 103.839,
      "duration": 0.982,
      "velocity": 1,
      "hand": "right"
    },
    {
      "midi": 56,
      "time": 104.018,
      "duration": 0.179,
      "velocity": 1,
      "hand": "left"
    },
    {
      "midi": 60,
      "time": 104.286,
      "duration": 0.179,
      "velocity": 1,
      "hand": "right"
    },
    {
      "midi": 66,
      "time": 104.464,
      "duration": 0.179,
      "velocity": 1,
      "hand": "right"
    },
    {
      "midi": 60,
      "time": 104.732,
      "duration": 0.179,
      "velocity": 1,
      "hand": "right"
    },
    {
      "midi": 75,
      "time": 104.821,
      "duration": 0.357,
      "velocity": 1,
      "hand": "right"
    },
    {
      "midi": 56,
      "time": 104.911,
      "duration": 0.179,
      "velocity": 1,
      "hand": "left"
    },
    {
      "midi": 49,
      "time": 105.179,
      "duration": 0.179,
      "velocity": 1,
      "hand": "left"
    },
    {
      "midi": 75,
      "time": 105.179,
      "duration": 1.339,
      "velocity": 1,
      "hand": "right"
    },
    {
      "midi": 56,
      "time": 105.357,
      "duration": 0.179,
      "velocity": 1,
      "hand": "left"
    },
    {
      "midi": 60,
      "time": 105.625,
      "duration": 0.179,
      "velocity": 1,
      "hand": "right"
    },
    {
      "midi": 66,
      "time": 105.804,
      "duration": 0.179,
      "velocity": 1,
      "hand": "right"
    },
    {
      "midi": 60,
      "time": 106.071,
      "duration": 0.179,
      "velocity": 1,
      "hand": "right"
    },
    {
      "midi": 56,
      "time": 106.25,
      "duration": 0.179,
      "velocity": 1,
      "hand": "left"
    },
    {
      "midi": 49,
      "time": 106.518,
      "duration": 0.179,
      "velocity": 1,
      "hand": "left"
    },
    {
      "midi": 73,
      "time": 106.518,
      "duration": 0.625,
      "velocity": 1,
      "hand": "right"
    },
    {
      "midi": 56,
      "time": 106.696,
      "duration": 0.179,
      "velocity": 1,
      "hand": "left"
    },
    {
      "midi": 61,
      "time": 106.964,
      "duration": 0.179,
      "velocity": 1,
      "hand": "right"
    },
    {
      "midi": 65,
      "time": 107.143,
      "duration": 0.179,
      "velocity": 1,
      "hand": "right"
    },
    {
      "midi": 61,
      "time": 107.321,
      "duration": 0.179,
      "velocity": 1,
      "hand": "right"
    },
    {
      "midi": 80,
      "time": 107.5,
      "duration": 0.357,
      "velocity": 1,
      "hand": "right"
    },
    {
      "midi": 56,
      "time": 107.589,
      "duration": 0.179,
      "velocity": 1,
      "hand": "left"
    },
    {
      "midi": 44,
      "time": 107.768,
      "duration": 0.179,
      "velocity": 1,
      "hand": "left"
    },
    {
      "midi": 68,
      "time": 107.768,
      "duration": 1.339,
      "velocity": 1,
      "hand": "right"
    },
    {
      "midi": 51,
      "time": 108.036,
      "duration": 0.179,
      "velocity": 1,
      "hand": "left"
    },
    {
      "midi": 56,
      "time": 108.214,
      "duration": 0.179,
      "velocity": 1,
      "hand": "left"
    },
    {
      "midi": 60,
      "time": 108.482,
      "duration": 0.179,
      "velocity": 1,
      "hand": "right"
    },
    {
      "midi": 56,
      "time": 108.661,
      "duration": 0.179,
      "velocity": 1,
      "hand": "left"
    },
    {
      "midi": 51,
      "time": 108.929,
      "duration": 0.179,
      "velocity": 1,
      "hand": "left"
    },
    {
      "midi": 44,
      "time": 109.107,
      "duration": 0.179,
      "velocity": 1,
      "hand": "left"
    },
    {
      "midi": 70,
      "time": 109.107,
      "duration": 0.536,
      "velocity": 1,
      "hand": "right"
    },
    {
      "midi": 51,
      "time": 109.375,
      "duration": 0.179,
      "velocity": 1,
      "hand": "left"
    },
    {
      "midi": 55,
      "time": 109.554,
      "duration": 0.179,
      "velocity": 1,
      "hand": "left"
    },
    {
      "midi": 69,
      "time": 109.643,
      "duration": 0.179,
      "velocity": 1,
      "hand": "right"
    },
    {
      "midi": 61,
      "time": 109.821,
      "duration": 0.179,
      "velocity": 1,
      "hand": "right"
    },
    {
      "midi": 70,
      "time": 109.821,
      "duration": 0.536,
      "velocity": 1,
      "hand": "right"
    },
    {
      "midi": 55,
      "time": 110,
      "duration": 0.179,
      "velocity": 1,
      "hand": "left"
    },
    {
      "midi": 51,
      "time": 110.268,
      "duration": 0.179,
      "velocity": 1,
      "hand": "left"
    },
    {
      "midi": 72,
      "time": 110.268,
      "duration": 0.179,
      "velocity": 1,
      "hand": "right"
    },
    {
      "midi": 44,
      "time": 110.446,
      "duration": 0.179,
      "velocity": 1,
      "hand": "left"
    },
    {
      "midi": 68,
      "time": 110.446,
      "duration": 0.357,
      "velocity": 1,
      "hand": "right"
    },
    {
      "midi": 51,
      "time": 110.714,
      "duration": 0.179,
      "velocity": 1,
      "hand": "left"
    },
    {
      "midi": 56,
      "time": 110.893,
      "duration": 0.179,
      "velocity": 1,
      "hand": "left"
    },
    {
      "midi": 60,
      "time": 111.161,
      "duration": 0.179,
      "velocity": 1,
      "hand": "right"
    },
    {
      "midi": 84,
      "time": 111.161,
      "duration": 0.893,
      "velocity": 1,
      "hand": "right"
    },
    {
      "midi": 56,
      "time": 111.339,
      "duration": 0.179,
      "velocity": 1,
      "hand": "left"
    },
    {
      "midi": 51,
      "time": 111.607,
      "duration": 0.179,
      "velocity": 1,
      "hand": "left"
    },
    {
      "midi": 49,
      "time": 111.786,
      "duration": 0.179,
      "velocity": 1,
      "hand": "left"
    },
    {
      "midi": 82,
      "time": 111.964,
      "duration": 0.179,
      "velocity": 1,
      "hand": "right"
    },
    {
      "midi": 56,
      "time": 112.054,
      "duration": 0.179,
      "velocity": 1,
      "hand": "left"
    },
    {
      "midi": 61,
      "time": 112.232,
      "duration": 0.179,
      "velocity": 1,
      "hand": "right"
    },
    {
      "midi": 80,
      "time": 112.232,
      "duration": 0.179,
      "velocity": 1,
      "hand": "right"
    },
    {
      "midi": 76,
      "time": 112.411,
      "duration": 0.179,
      "velocity": 1,
      "hand": "right"
    },
    {
      "midi": 64,
      "time": 112.5,
      "duration": 0.179,
      "velocity": 1,
      "hand": "right"
    },
    {
      "midi": 73,
      "time": 112.589,
      "duration": 0.179,
      "velocity": 1,
      "hand": "right"
    },
    {
      "midi": 61,
      "time": 112.679,
      "duration": 0.179,
      "velocity": 1,
      "hand": "right"
    },
    {
      "midi": 70,
      "time": 112.768,
      "duration": 0.268,
      "velocity": 1,
      "hand": "right"
    },
    {
      "midi": 56,
      "time": 112.946,
      "duration": 0.179,
      "velocity": 1,
      "hand": "left"
    },
    {
      "midi": 80,
      "time": 113.036,
      "duration": 0.089,
      "velocity": 1,
      "hand": "right"
    },
    {
      "midi": 39,
      "time": 113.125,
      "duration": 0.179,
      "velocity": 1,
      "hand": "left"
    },
    {
      "midi": 63,
      "time": 113.125,
      "duration": 1.25,
      "velocity": 1,
      "hand": "right"
    },
    {
      "midi": 51,
      "time": 113.393,
      "duration": 0.179,
      "velocity": 1,
      "hand": "left"
    },
    {
      "midi": 56,
      "time": 113.571,
      "duration": 0.179,
      "velocity": 1,
      "hand": "left"
    },
    {
      "midi": 60,
      "time": 113.839,
      "duration": 0.179,
      "velocity": 1,
      "hand": "right"
    },
    {
      "midi": 56,
      "time": 114.018,
      "duration": 0.179,
      "velocity": 1,
      "hand": "left"
    },
    {
      "midi": 51,
      "time": 114.286,
      "duration": 0.179,
      "velocity": 1,
      "hand": "left"
    },
    {
      "midi": 72,
      "time": 114.375,
      "duration": 0.089,
      "velocity": 1,
      "hand": "right"
    },
    {
      "midi": 39,
      "time": 114.464,
      "duration": 0.179,
      "velocity": 1,
      "hand": "left"
    },
    {
      "midi": 70,
      "time": 114.464,
      "duration": 0.536,
      "velocity": 1,
      "hand": "right"
    },
    {
      "midi": 51,
      "time": 114.732,
      "duration": 0.179,
      "velocity": 1,
      "hand": "left"
    },
    {
      "midi": 55,
      "time": 114.911,
      "duration": 0.179,
      "velocity": 1,
      "hand": "left"
    },
    {
      "midi": 69,
      "time": 115,
      "duration": 0.179,
      "velocity": 1,
      "hand": "right"
    },
    {
      "midi": 61,
      "time": 115.179,
      "duration": 0.179,
      "velocity": 1,
      "hand": "right"
    },
    {
      "midi": 70,
      "time": 115.179,
      "duration": 0.536,
      "velocity": 1,
      "hand": "right"
    },
    {
      "midi": 55,
      "time": 115.357,
      "duration": 0.179,
      "velocity": 1,
      "hand": "left"
    },
    {
      "midi": 51,
      "time": 115.625,
      "duration": 0.179,
      "velocity": 1,
      "hand": "left"
    },
    {
      "midi": 75,
      "time": 115.625,
      "duration": 0.179,
      "velocity": 1,
      "hand": "right"
    },
    {
      "midi": 44,
      "time": 115.804,
      "duration": 0.179,
      "velocity": 1,
      "hand": "left"
    },
    {
      "midi": 68,
      "time": 115.804,
      "duration": 0.625,
      "velocity": 1,
      "hand": "right"
    },
    {
      "midi": 51,
      "time": 116.071,
      "duration": 0.179,
      "velocity": 1,
      "hand": "left"
    },
    {
      "midi": 56,
      "time": 116.25,
      "duration": 0.179,
      "velocity": 1,
      "hand": "left"
    },
    {
      "midi": 60,
      "time": 116.518,
      "duration": 0.179,
      "velocity": 1,
      "hand": "right"
    },
    {
      "midi": 56,
      "time": 116.696,
      "duration": 0.179,
      "velocity": 1,
      "hand": "left"
    },
    {
      "midi": 51,
      "time": 116.964,
      "duration": 0.179,
      "velocity": 1,
      "hand": "left"
    },
    {
      "midi": 42,
      "time": 117.143,
      "duration": 0.179,
      "velocity": 1,
      "hand": "left"
    },
    {
      "midi": 70,
      "time": 117.143,
      "duration": 0.625,
      "velocity": 1,
      "hand": "right"
    },
    {
      "midi": 54,
      "time": 117.321,
      "duration": 0.179,
      "velocity": 1,
      "hand": "left"
    },
    {
      "midi": 58,
      "time": 117.589,
      "duration": 0.179,
      "velocity": 1,
      "hand": "left"
    },
    {
      "midi": 61,
      "time": 117.768,
      "duration": 0.179,
      "velocity": 1,
      "hand": "right"
    },
    {
      "midi": 73,
      "time": 117.768,
      "duration": 0.179,
      "velocity": 1,
      "hand": "right"
    },
    {
      "midi": 58,
      "time": 118.036,
      "duration": 0.179,
      "velocity": 1,
      "hand": "left"
    },
    {
      "midi": 72,
      "time": 118.036,
      "duration": 0.179,
      "velocity": 1,
      "hand": "right"
    },
    {
      "midi": 54,
      "time": 118.214,
      "duration": 0.179,
      "velocity": 1,
      "hand": "left"
    },
    {
      "midi": 70,
      "time": 118.214,
      "duration": 0.179,
      "velocity": 1,
      "hand": "right"
    },
    {
      "midi": 44,
      "time": 118.482,
      "duration": 0.179,
      "velocity": 1,
      "hand": "left"
    },
    {
      "midi": 68,
      "time": 118.482,
      "duration": 1.339,
      "velocity": 1,
      "hand": "right"
    },
    {
      "midi": 56,
      "time": 118.661,
      "duration": 0.179,
      "velocity": 1,
      "hand": "left"
    },
    {
      "midi": 60,
      "time": 118.929,
      "duration": 0.179,
      "velocity": 1,
      "hand": "right"
    },
    {
      "midi": 63,
      "time": 119.107,
      "duration": 0.179,
      "velocity": 1,
      "hand": "right"
    },
    {
      "midi": 60,
      "time": 119.375,
      "duration": 0.179,
      "velocity": 1,
      "hand": "right"
    },
    {
      "midi": 56,
      "time": 119.554,
      "duration": 0.179,
      "velocity": 1,
      "hand": "left"
    },
    {
      "midi": 51,
      "time": 119.821,
      "duration": 0.179,
      "velocity": 1,
      "hand": "left"
    },
    {
      "midi": 70,
      "time": 119.821,
      "duration": 0.357,
      "velocity": 1,
      "hand": "right"
    },
    {
      "midi": 56,
      "time": 120,
      "duration": 0.179,
      "velocity": 1,
      "hand": "left"
    },
    {
      "midi": 68,
      "time": 120.179,
      "duration": 0.357,
      "velocity": 1,
      "hand": "right"
    },
    {
      "midi": 60,
      "time": 120.268,
      "duration": 0.179,
      "velocity": 1,
      "hand": "right"
    },
    {
      "midi": 66,
      "time": 120.446,
      "duration": 0.179,
      "velocity": 1,
      "hand": "right"
    },
    {
      "midi": 73,
      "time": 120.446,
      "duration": 0.357,
      "velocity": 1,
      "hand": "right"
    },
    {
      "midi": 60,
      "time": 120.714,
      "duration": 0.179,
      "velocity": 1,
      "hand": "right"
    },
    {
      "midi": 75,
      "time": 120.804,
      "duration": 0.357,
      "velocity": 1,
      "hand": "right"
    },
    {
      "midi": 56,
      "time": 120.893,
      "duration": 0.179,
      "velocity": 1,
      "hand": "left"
    },
    {
      "midi": 49,
      "time": 121.161,
      "duration": 0.179,
      "velocity": 1,
      "hand": "left"
    },
    {
      "midi": 77,
      "time": 121.161,
      "duration": 1.339,
      "velocity": 1,
      "hand": "right"
    },
    {
      "midi": 56,
      "time": 121.339,
      "duration": 0.179,
      "velocity": 1,
      "hand": "left"
    },
    {
      "midi": 61,
      "time": 121.607,
      "duration": 0.179,
      "velocity": 1,
      "hand": "right"
    },
    {
      "midi": 65,
      "time": 121.786,
      "duration": 0.179,
      "velocity": 1,
      "hand": "right"
    },
    {
      "midi": 61,
      "time": 122.054,
      "duration": 0.179,
      "velocity": 1,
      "hand": "right"
    },
    {
      "midi": 56,
      "time": 122.232,
      "duration": 0.179,
      "velocity": 1,
      "hand": "left"
    },
    {
      "midi": 49,
      "time": 122.5,
      "duration": 0.179,
      "velocity": 1,
      "hand": "left"
    },
    {
      "midi": 80,
      "time": 122.5,
      "duration": 1.339,
      "velocity": 1,
      "hand": "right"
    },
    {
      "midi": 56,
      "time": 122.679,
      "duration": 0.179,
      "velocity": 1,
      "hand": "left"
    },
    {
      "midi": 65,
      "time": 122.946,
      "duration": 0.179,
      "velocity": 1,
      "hand": "right"
    },
    {
      "midi": 68,
      "time": 123.125,
      "duration": 0.625,
      "velocity": 1,
      "hand": "right"
    },
    {
      "midi": 65,
      "time": 123.393,
      "duration": 0.179,
      "velocity": 1,
      "hand": "right"
    },
    {
      "midi": 56,
      "time": 123.571,
      "duration": 0.179,
      "velocity": 1,
      "hand": "left"
    },
    {
      "midi": 66,
      "time": 123.839,
      "duration": 0.625,
      "velocity": 1,
      "hand": "right"
    },
    {
      "midi": 78,
      "time": 123.839,
      "duration": 0.625,
      "velocity": 1,
      "hand": "right"
    },
    {
      "midi": 63,
      "time": 124.018,
      "duration": 0.179,
      "velocity": 1,
      "hand": "right"
    },
    {
      "midi": 56,
      "time": 124.286,
      "duration": 0.179,
      "velocity": 1,
      "hand": "left"
    },
    {
      "midi": 65,
      "time": 124.464,
      "duration": 0.625,
      "velocity": 1,
      "hand": "right"
    },
    {
      "midi": 77,
      "time": 124.464,
      "duration": 0.625,
      "velocity": 1,
      "hand": "right"
    },
    {
      "midi": 61,
      "time": 124.732,
      "duration": 0.179,
      "velocity": 1,
      "hand": "right"
    },
    {
      "midi": 56,
      "time": 124.911,
      "duration": 0.179,
      "velocity": 1,
      "hand": "left"
    },
    {
      "midi": 63,
      "time": 125.179,
      "duration": 0.625,
      "velocity": 1,
      "hand": "right"
    },
    {
      "midi": 75,
      "time": 125.179,
      "duration": 0.536,
      "velocity": 1,
      "hand": "right"
    },
    {
      "midi": 60,
      "time": 125.357,
      "duration": 0.179,
      "velocity": 1,
      "hand": "right"
    },
    {
      "midi": 56,
      "time": 125.625,
      "duration": 0.179,
      "velocity": 1,
      "hand": "left"
    },
    {
      "midi": 77,
      "time": 125.625,
      "duration": 0.045,
      "velocity": 1,
      "hand": "right"
    },
    {
      "midi": 73,
      "time": 125.714,
      "duration": 0.045,
      "velocity": 1,
      "hand": "right"
    },
    {
      "midi": 75,
      "time": 125.714,
      "duration": 0.045,
      "velocity": 1,
      "hand": "right"
    },
    {
      "midi": 61,
      "time": 125.804,
      "duration": 0.625,
      "velocity": 1,
      "hand": "right"
    },
    {
      "midi": 75,
      "time": 125.804,
      "duration": 0.045,
      "velocity": 1,
      "hand": "right"
    },
    {
      "midi": 77,
      "time": 125.804,
      "duration": 0.536,
      "velocity": 1,
      "hand": "right"
    },
    {
      "midi": 56,
      "time": 126.071,
      "duration": 0.179,
      "velocity": 1,
      "hand": "left"
    },
    {
      "midi": 53,
      "time": 126.25,
      "duration": 0.179,
      "velocity": 1,
      "hand": "left"
    },
    {
      "midi": 73,
      "time": 126.339,
      "duration": 0.179,
      "velocity": 1,
      "hand": "right"
    },
    {
      "midi": 44,
      "time": 126.518,
      "duration": 0.179,
      "velocity": 1,
      "hand": "left"
    },
    {
      "midi": 68,
      "time": 126.518,
      "duration": 1.339,
      "velocity": 1,
      "hand": "right"
    },
    {
      "midi": 51,
      "time": 126.696,
      "duration": 0.179,
      "velocity": 1,
      "hand": "left"
    },
    {
      "midi": 56,
      "time": 126.964,
      "duration": 0.179,
      "velocity": 1,
      "hand": "left"
    },
    {
      "midi": 60,
      "time": 127.143,
      "duration": 0.179,
      "velocity": 1,
      "hand": "right"
    },
    {
      "midi": 56,
      "time": 127.321,
      "duration": 0.179,
      "velocity": 1,
      "hand": "left"
    },
    {
      "midi": 51,
      "time": 127.589,
      "duration": 0.179,
      "velocity": 1,
      "hand": "left"
    },
    {
      "midi": 42,
      "time": 127.768,
      "duration": 0.179,
      "velocity": 1,
      "hand": "left"
    },
    {
      "midi": 70,
      "time": 127.768,
      "duration": 2.679,
      "velocity": 1,
      "hand": "right"
    },
    {
      "midi": 54,
      "time": 128.036,
      "duration": 0.179,
      "velocity": 1,
      "hand": "left"
    },
    {
      "midi": 58,
      "time": 128.214,
      "duration": 0.179,
      "velocity": 1,
      "hand": "left"
    },
    {
      "midi": 61,
      "time": 128.482,
      "duration": 0.179,
      "velocity": 1,
      "hand": "right"
    },
    {
      "midi": 58,
      "time": 128.661,
      "duration": 0.179,
      "velocity": 1,
      "hand": "left"
    },
    {
      "midi": 54,
      "time": 128.929,
      "duration": 0.179,
      "velocity": 1,
      "hand": "left"
    },
    {
      "midi": 46,
      "time": 129.107,
      "duration": 0.179,
      "velocity": 1,
      "hand": "left"
    },
    {
      "midi": 53,
      "time": 129.375,
      "duration": 0.179,
      "velocity": 1,
      "hand": "left"
    },
    {
      "midi": 58,
      "time": 129.554,
      "duration": 0.179,
      "velocity": 1,
      "hand": "left"
    },
    {
      "midi": 62,
      "time": 129.821,
      "duration": 0.179,
      "velocity": 1,
      "hand": "right"
    },
    {
      "midi": 58,
      "time": 130,
      "duration": 0.179,
      "velocity": 1,
      "hand": "left"
    },
    {
      "midi": 53,
      "time": 130.268,
      "duration": 0.179,
      "velocity": 1,
      "hand": "left"
    },
    {
      "midi": 46,
      "time": 130.446,
      "duration": 0.179,
      "velocity": 1,
      "hand": "left"
    },
    {
      "midi": 71,
      "time": 130.446,
      "duration": 0.357,
      "velocity": 1,
      "hand": "right"
    },
    {
      "midi": 58,
      "time": 130.714,
      "duration": 0.179,
      "velocity": 1,
      "hand": "left"
    },
    {
      "midi": 70,
      "time": 130.804,
      "duration": 0.357,
      "velocity": 1,
      "hand": "right"
    },
    {
      "midi": 62,
      "time": 130.893,
      "duration": 0.179,
      "velocity": 1,
      "hand": "right"
    },
    {
      "midi": 68,
      "time": 131.161,
      "duration": 0.179,
      "velocity": 1,
      "hand": "right"
    },
    {
      "midi": 75,
      "time": 131.161,
      "duration": 0.357,
      "velocity": 1,
      "hand": "right"
    },
    {
      "midi": 62,
      "time": 131.339,
      "duration": 0.179,
      "velocity": 1,
      "hand": "right"
    },
    {
      "midi": 77,
      "time": 131.518,
      "duration": 0.357,
      "velocity": 1,
      "hand": "right"
    },
    {
      "midi": 58,
      "time": 131.607,
      "duration": 0.179,
      "velocity": 1,
      "hand": "left"
    },
    {
      "midi": 51,
      "time": 131.786,
      "duration": 0.179,
      "velocity": 1,
      "hand": "left"
    },
    {
      "midi": 78,
      "time": 131.786,
      "duration": 0.625,
      "velocity": 1,
      "hand": "right"
    },
    {
      "midi": 66,
      "time": 132.054,
      "duration": 0.179,
      "velocity": 1,
      "hand": "right"
    },
    {
      "midi": 58,
      "time": 132.232,
      "duration": 0.179,
      "velocity": 1,
      "hand": "left"
    },
    {
      "midi": 53,
      "time": 132.5,
      "duration": 0.179,
      "velocity": 1,
      "hand": "left"
    },
    {
      "midi": 77,
      "time": 132.5,
      "duration": 0.625,
      "velocity": 1,
      "hand": "right"
    },
    {
      "midi": 65,
      "time": 132.679,
      "duration": 0.179,
      "velocity": 1,
      "hand": "right"
    },
    {
      "midi": 57,
      "time": 132.946,
      "duration": 0.179,
      "velocity": 1,
      "hand": "left"
    },
    {
      "midi": 54,
      "time": 133.125,
      "duration": 0.179,
      "velocity": 1,
      "hand": "left"
    },
    {
      "midi": 75,
      "time": 133.125,
      "duration": 0.625,
      "velocity": 1,
      "hand": "right"
    },
    {
      "midi": 63,
      "time": 133.393,
      "duration": 0.179,
      "velocity": 1,
      "hand": "right"
    },
    {
      "midi": 58,
      "time": 133.571,
      "duration": 0.179,
      "velocity": 1,
      "hand": "left"
    },
    {
      "midi": 56,
      "time": 133.839,
      "duration": 0.179,
      "velocity": 1,
      "hand": "left"
    },
    {
      "midi": 77,
      "time": 133.839,
      "duration": 0.625,
      "velocity": 1,
      "hand": "right"
    },
    {
      "midi": 66,
      "time": 134.018,
      "duration": 0.179,
      "velocity": 1,
      "hand": "right"
    },
    {
      "midi": 60,
      "time": 134.286,
      "duration": 0.179,
      "velocity": 1,
      "hand": "right"
    },
    {
      "midi": 49,
      "time": 134.464,
      "duration": 0.179,
      "velocity": 1,
      "hand": "left"
    },
    {
      "midi": 73,
      "time": 134.464,
      "duration": 0.982,
      "velocity": 1,
      "hand": "right"
    },
    {
      "midi": 56,
      "time": 134.732,
      "duration": 0.179,
      "velocity": 1,
      "hand": "left"
    },
    {
      "midi": 61,
      "time": 134.911,
      "duration": 0.179,
      "velocity": 1,
      "hand": "right"
    },
    {
      "midi": 65,
      "time": 135.179,
      "duration": 0.179,
      "velocity": 1,
      "hand": "right"
    },
    {
      "midi": 61,
      "time": 135.357,
      "duration": 0.179,
      "velocity": 1,
      "hand": "right"
    },
    {
      "midi": 67,
      "time": 135.446,
      "duration": 0.089,
      "velocity": 1,
      "hand": "right"
    },
    {
      "midi": 68,
      "time": 135.536,
      "duration": 0.089,
      "velocity": 1,
      "hand": "right"
    },
    {
      "midi": 56,
      "time": 135.625,
      "duration": 0.179,
      "velocity": 1,
      "hand": "left"
    },
    {
      "midi": 70,
      "time": 135.625,
      "duration": 0.089,
      "velocity": 1,
      "hand": "right"
    },
    {
      "midi": 68,
      "time": 135.714,
      "duration": 0.089,
      "velocity": 1,
      "hand": "right"
    },
    {
      "midi": 49,
      "time": 135.804,
      "duration": 0.179,
      "velocity": 1,
      "hand": "left"
    },
    {
      "midi": 77,
      "time": 135.804,
      "duration": 0.982,
      "velocity": 1,
      "hand": "right"
    },
    {
      "midi": 56,
      "time": 136.071,
      "duration": 0.179,
      "velocity": 1,
      "hand": "left"
    },
    {
      "midi": 60,
      "time": 136.25,
      "duration": 0.179,
      "velocity": 1,
      "hand": "right"
    },
    {
      "midi": 66,
      "time": 136.518,
      "duration": 0.179,
      "velocity": 1,
      "hand": "right"
    },
    {
      "midi": 60,
      "time": 136.696,
      "duration": 0.179,
      "velocity": 1,
      "hand": "right"
    },
    {
      "midi": 75,
      "time": 136.786,
      "duration": 0.357,
      "velocity": 1,
      "hand": "right"
    },
    {
      "midi": 56,
      "time": 136.964,
      "duration": 0.179,
      "velocity": 1,
      "hand": "left"
    },
    {
      "midi": 49,
      "time": 137.143,
      "duration": 0.179,
      "velocity": 1,
      "hand": "left"
    },
    {
      "midi": 75,
      "time": 137.143,
      "duration": 1.339,
      "velocity": 1,
      "hand": "right"
    },
    {
      "midi": 56,
      "time": 137.321,
      "duration": 0.179,
      "velocity": 1,
      "hand": "left"
    },
    {
      "midi": 60,
      "time": 137.589,
      "duration": 0.179,
      "velocity": 1,
      "hand": "right"
    },
    {
      "midi": 66,
      "time": 137.768,
      "duration": 0.179,
      "velocity": 1,
      "hand": "right"
    },
    {
      "midi": 60,
      "time": 138.036,
      "duration": 0.179,
      "velocity": 1,
      "hand": "right"
    },
    {
      "midi": 56,
      "time": 138.214,
      "duration": 0.179,
      "velocity": 1,
      "hand": "left"
    },
    {
      "midi": 49,
      "time": 138.482,
      "duration": 0.179,
      "velocity": 1,
      "hand": "left"
    },
    {
      "midi": 73,
      "time": 138.482,
      "duration": 0.625,
      "velocity": 1,
      "hand": "right"
    },
    {
      "midi": 56,
      "time": 138.661,
      "duration": 0.179,
      "velocity": 1,
      "hand": "left"
    },
    {
      "midi": 61,
      "time": 138.929,
      "duration": 0.179,
      "velocity": 1,
      "hand": "right"
    },
    {
      "midi": 65,
      "time": 139.107,
      "duration": 0.179,
      "velocity": 1,
      "hand": "right"
    },
    {
      "midi": 61,
      "time": 139.375,
      "duration": 0.179,
      "velocity": 1,
      "hand": "right"
    },
    {
      "midi": 80,
      "time": 139.464,
      "duration": 0.357,
      "velocity": 1,
      "hand": "right"
    },
    {
      "midi": 56,
      "time": 139.554,
      "duration": 0.179,
      "velocity": 1,
      "hand": "left"
    },
    {
      "midi": 44,
      "time": 139.821,
      "duration": 0.179,
      "velocity": 1,
      "hand": "left"
    },
    {
      "midi": 68,
      "time": 139.821,
      "duration": 1.339,
      "velocity": 1,
      "hand": "right"
    },
    {
      "midi": 51,
      "time": 140,
      "duration": 0.179,
      "velocity": 1,
      "hand": "left"
    },
    {
      "midi": 56,
      "time": 140.268,
      "duration": 0.179,
      "velocity": 1,
      "hand": "left"
    },
    {
      "midi": 60,
      "time": 140.446,
      "duration": 0.179,
      "velocity": 1,
      "hand": "right"
    },
    {
      "midi": 56,
      "time": 140.714,
      "duration": 0.179,
      "velocity": 1,
      "hand": "left"
    },
    {
      "midi": 51,
      "time": 140.893,
      "duration": 0.179,
      "velocity": 1,
      "hand": "left"
    },
    {
      "midi": 44,
      "time": 141.161,
      "duration": 0.179,
      "velocity": 1,
      "hand": "left"
    },
    {
      "midi": 70,
      "time": 141.161,
      "duration": 0.536,
      "velocity": 1,
      "hand": "right"
    },
    {
      "midi": 51,
      "time": 141.339,
      "duration": 0.179,
      "velocity": 1,
      "hand": "left"
    },
    {
      "midi": 55,
      "time": 141.607,
      "duration": 0.179,
      "velocity": 1,
      "hand": "left"
    },
    {
      "midi": 69,
      "time": 141.607,
      "duration": 0.179,
      "velocity": 1,
      "hand": "right"
    },
    {
      "midi": 61,
      "time": 141.786,
      "duration": 0.179,
      "velocity": 1,
      "hand": "right"
    },
    {
      "midi": 70,
      "time": 141.786,
      "duration": 0.536,
      "velocity": 1,
      "hand": "right"
    },
    {
      "midi": 55,
      "time": 142.054,
      "duration": 0.179,
      "velocity": 1,
      "hand": "left"
    },
    {
      "midi": 51,
      "time": 142.232,
      "duration": 0.179,
      "velocity": 1,
      "hand": "left"
    },
    {
      "midi": 72,
      "time": 142.321,
      "duration": 0.179,
      "velocity": 1,
      "hand": "right"
    },
    {
      "midi": 44,
      "time": 142.5,
      "duration": 0.179,
      "velocity": 1,
      "hand": "left"
    },
    {
      "midi": 68,
      "time": 142.5,
      "duration": 0.357,
      "velocity": 1,
      "hand": "right"
    },
    {
      "midi": 51,
      "time": 142.679,
      "duration": 0.179,
      "velocity": 1,
      "hand": "left"
    },
    {
      "midi": 56,
      "time": 142.946,
      "duration": 0.179,
      "velocity": 1,
      "hand": "left"
    },
    {
      "midi": 60,
      "time": 143.125,
      "duration": 0.179,
      "velocity": 1,
      "hand": "right"
    },
    {
      "midi": 84,
      "time": 143.125,
      "duration": 0.893,
      "velocity": 1,
      "hand": "right"
    },
    {
      "midi": 56,
      "time": 143.393,
      "duration": 0.179,
      "velocity": 1,
      "hand": "left"
    },
    {
      "midi": 51,
      "time": 143.571,
      "duration": 0.179,
      "velocity": 1,
      "hand": "left"
    },
    {
      "midi": 49,
      "time": 143.839,
      "duration": 0.179,
      "velocity": 1,
      "hand": "left"
    },
    {
      "midi": 56,
      "time": 144.018,
      "duration": 0.179,
      "velocity": 1,
      "hand": "left"
    },
    {
      "midi": 82,
      "time": 144.018,
      "duration": 0.179,
      "velocity": 1,
      "hand": "right"
    },
    {
      "midi": 80,
      "time": 144.196,
      "duration": 0.179,
      "velocity": 1,
      "hand": "right"
    },
    {
      "midi": 61,
      "time": 144.286,
      "duration": 0.179,
      "velocity": 1,
      "hand": "right"
    },
    {
      "midi": 76,
      "time": 144.375,
      "duration": 0.179,
      "velocity": 1,
      "hand": "right"
    },
    {
      "midi": 64,
      "time": 144.464,
      "duration": 0.179,
      "velocity": 1,
      "hand": "right"
    },
    {
      "midi": 73,
      "time": 144.554,
      "duration": 0.179,
      "velocity": 1,
      "hand": "right"
    },
    {
      "midi": 61,
      "time": 144.732,
      "duration": 0.179,
      "velocity": 1,
      "hand": "right"
    },
    {
      "midi": 70,
      "time": 144.732,
      "duration": 0.268,
      "velocity": 1,
      "hand": "right"
    },
    {
      "midi": 56,
      "time": 144.911,
      "duration": 0.179,
      "velocity": 1,
      "hand": "left"
    },
    {
      "midi": 80,
      "time": 145.089,
      "duration": 0.089,
      "velocity": 1,
      "hand": "right"
    },
    {
      "midi": 39,
      "time": 145.179,
      "duration": 0.179,
      "velocity": 1,
      "hand": "left"
    },
    {
      "midi": 63,
      "time": 145.179,
      "duration": 1.25,
      "velocity": 1,
      "hand": "right"
    },
    {
      "midi": 51,
      "time": 145.357,
      "duration": 0.179,
      "velocity": 1,
      "hand": "left"
    },
    {
      "midi": 56,
      "time": 145.625,
      "duration": 0.179,
      "velocity": 1,
      "hand": "left"
    },
    {
      "midi": 60,
      "time": 145.804,
      "duration": 0.179,
      "velocity": 1,
      "hand": "right"
    },
    {
      "midi": 56,
      "time": 146.071,
      "duration": 0.179,
      "velocity": 1,
      "hand": "left"
    },
    {
      "midi": 51,
      "time": 146.25,
      "duration": 0.179,
      "velocity": 1,
      "hand": "left"
    },
    {
      "midi": 72,
      "time": 146.429,
      "duration": 0.089,
      "velocity": 1,
      "hand": "right"
    },
    {
      "midi": 39,
      "time": 146.518,
      "duration": 0.179,
      "velocity": 1,
      "hand": "left"
    },
    {
      "midi": 70,
      "time": 146.518,
      "duration": 0.536,
      "velocity": 1,
      "hand": "right"
    },
    {
      "midi": 51,
      "time": 146.696,
      "duration": 0.179,
      "velocity": 1,
      "hand": "left"
    },
    {
      "midi": 55,
      "time": 146.964,
      "duration": 0.179,
      "velocity": 1,
      "hand": "left"
    },
    {
      "midi": 69,
      "time": 146.964,
      "duration": 0.179,
      "velocity": 1,
      "hand": "right"
    },
    {
      "midi": 61,
      "time": 147.143,
      "duration": 0.179,
      "velocity": 1,
      "hand": "right"
    },
    {
      "midi": 70,
      "time": 147.143,
      "duration": 0.536,
      "velocity": 1,
      "hand": "right"
    },
    {
      "midi": 55,
      "time": 147.321,
      "duration": 0.179,
      "velocity": 1,
      "hand": "left"
    },
    {
      "midi": 51,
      "time": 147.589,
      "duration": 0.179,
      "velocity": 1,
      "hand": "left"
    },
    {
      "midi": 75,
      "time": 147.679,
      "duration": 0.179,
      "velocity": 1,
      "hand": "right"
    },
    {
      "midi": 44,
      "time": 147.768,
      "duration": 0.179,
      "velocity": 1,
      "hand": "left"
    },
    {
      "midi": 68,
      "time": 147.768,
      "duration": 0.625,
      "velocity": 1,
      "hand": "right"
    },
    {
      "midi": 51,
      "time": 148.036,
      "duration": 0.179,
      "velocity": 1,
      "hand": "left"
    },
    {
      "midi": 56,
      "time": 148.214,
      "duration": 0.179,
      "velocity": 1,
      "hand": "left"
    },
    {
      "midi": 60,
      "time": 148.482,
      "duration": 0.179,
      "velocity": 1,
      "hand": "right"
    },
    {
      "midi": 56,
      "time": 148.661,
      "duration": 0.179,
      "velocity": 1,
      "hand": "left"
    },
    {
      "midi": 51,
      "time": 148.929,
      "duration": 0.179,
      "velocity": 1,
      "hand": "left"
    },
    {
      "midi": 42,
      "time": 149.107,
      "duration": 0.179,
      "velocity": 1,
      "hand": "left"
    },
    {
      "midi": 70,
      "time": 149.107,
      "duration": 0.625,
      "velocity": 1,
      "hand": "right"
    },
    {
      "midi": 54,
      "time": 149.375,
      "duration": 0.179,
      "velocity": 1,
      "hand": "left"
    },
    {
      "midi": 58,
      "time": 149.554,
      "duration": 0.179,
      "velocity": 1,
      "hand": "left"
    },
    {
      "midi": 61,
      "time": 149.821,
      "duration": 0.179,
      "velocity": 1,
      "hand": "right"
    },
    {
      "midi": 73,
      "time": 149.821,
      "duration": 0.179,
      "velocity": 1,
      "hand": "right"
    },
    {
      "midi": 58,
      "time": 150,
      "duration": 0.179,
      "velocity": 1,
      "hand": "left"
    },
    {
      "midi": 72,
      "time": 150,
      "duration": 0.179,
      "velocity": 1,
      "hand": "right"
    },
    {
      "midi": 54,
      "time": 150.268,
      "duration": 0.179,
      "velocity": 1,
      "hand": "left"
    },
    {
      "midi": 70,
      "time": 150.268,
      "duration": 0.179,
      "velocity": 1,
      "hand": "right"
    },
    {
      "midi": 44,
      "time": 150.446,
      "duration": 0.179,
      "velocity": 1,
      "hand": "left"
    },
    {
      "midi": 68,
      "time": 150.446,
      "duration": 1.339,
      "velocity": 1,
      "hand": "right"
    },
    {
      "midi": 51,
      "time": 150.714,
      "duration": 0.179,
      "velocity": 1,
      "hand": "left"
    },
    {
      "midi": 56,
      "time": 150.893,
      "duration": 0.179,
      "velocity": 1,
      "hand": "left"
    },
    {
      "midi": 60,
      "time": 151.161,
      "duration": 0.179,
      "velocity": 1,
      "hand": "right"
    },
    {
      "midi": 56,
      "time": 151.339,
      "duration": 0.179,
      "velocity": 1,
      "hand": "left"
    },
    {
      "midi": 51,
      "time": 151.607,
      "duration": 0.179,
      "velocity": 1,
      "hand": "left"
    },
    {
      "midi": 44,
      "time": 151.786,
      "duration": 0.179,
      "velocity": 1,
      "hand": "left"
    },
    {
      "midi": 70,
      "time": 151.786,
      "duration": 0.357,
      "velocity": 1,
      "hand": "right"
    },
    {
      "midi": 56,
      "time": 152.054,
      "duration": 0.179,
      "velocity": 1,
      "hand": "left"
    },
    {
      "midi": 68,
      "time": 152.143,
      "duration": 0.357,
      "velocity": 1,
      "hand": "right"
    },
    {
      "midi": 60,
      "time": 152.232,
      "duration": 0.179,
      "velocity": 1,
      "hand": "right"
    },
    {
      "midi": 66,
      "time": 152.5,
      "duration": 0.179,
      "velocity": 1,
      "hand": "right"
    },
    {
      "midi": 73,
      "time": 152.5,
      "duration": 0.357,
      "velocity": 1,
      "hand": "right"
    },
    {
      "midi": 60,
      "time": 152.679,
      "duration": 0.179,
      "velocity": 1,
      "hand": "right"
    },
    {
      "midi": 75,
      "time": 152.768,
      "duration": 0.357,
      "velocity": 1,
      "hand": "right"
    },
    {
      "midi": 56,
      "time": 152.946,
      "duration": 0.179,
      "velocity": 1,
      "hand": "left"
    },
    {
      "midi": 49,
      "time": 153.125,
      "duration": 0.179,
      "velocity": 1,
      "hand": "left"
    },
    {
      "midi": 77,
      "time": 153.125,
      "duration": 1.339,
      "velocity": 1,
      "hand": "right"
    },
    {
      "midi": 56,
      "time": 153.393,
      "duration": 0.179,
      "velocity": 1,
      "hand": "left"
    },
    {
      "midi": 61,
      "time": 153.571,
      "duration": 0.179,
      "velocity": 1,
      "hand": "right"
    },
    {
      "midi": 65,
      "time": 153.839,
      "duration": 0.179,
      "velocity": 1,
      "hand": "right"
    },
    {
      "midi": 61,
      "time": 154.018,
      "duration": 0.179,
      "velocity": 1,
      "hand": "right"
    },
    {
      "midi": 56,
      "time": 154.286,
      "duration": 0.179,
      "velocity": 1,
      "hand": "left"
    },
    {
      "midi": 49,
      "time": 154.464,
      "duration": 0.179,
      "velocity": 1,
      "hand": "left"
    },
    {
      "midi": 80,
      "time": 154.464,
      "duration": 1.339,
      "velocity": 1,
      "hand": "right"
    },
    {
      "midi": 56,
      "time": 154.732,
      "duration": 0.179,
      "velocity": 1,
      "hand": "left"
    },
    {
      "midi": 65,
      "time": 154.911,
      "duration": 0.179,
      "velocity": 1,
      "hand": "right"
    },
    {
      "midi": 68,
      "time": 155.179,
      "duration": 0.625,
      "velocity": 1,
      "hand": "right"
    },
    {
      "midi": 65,
      "time": 155.357,
      "duration": 0.179,
      "velocity": 1,
      "hand": "right"
    },
    {
      "midi": 56,
      "time": 155.625,
      "duration": 0.179,
      "velocity": 1,
      "hand": "left"
    },
    {
      "midi": 66,
      "time": 155.804,
      "duration": 0.625,
      "velocity": 1,
      "hand": "right"
    },
    {
      "midi": 78,
      "time": 155.804,
      "duration": 0.625,
      "velocity": 1,
      "hand": "right"
    },
    {
      "midi": 63,
      "time": 156.071,
      "duration": 0.179,
      "velocity": 1,
      "hand": "right"
    },
    {
      "midi": 56,
      "time": 156.25,
      "duration": 0.179,
      "velocity": 1,
      "hand": "left"
    },
    {
      "midi": 65,
      "time": 156.518,
      "duration": 0.625,
      "velocity": 1,
      "hand": "right"
    },
    {
      "midi": 77,
      "time": 156.518,
      "duration": 0.625,
      "velocity": 1,
      "hand": "right"
    },
    {
      "midi": 61,
      "time": 156.696,
      "duration": 0.179,
      "velocity": 1,
      "hand": "right"
    },
    {
      "midi": 56,
      "time": 156.964,
      "duration": 0.179,
      "velocity": 1,
      "hand": "left"
    },
    {
      "midi": 63,
      "time": 157.143,
      "duration": 0.625,
      "velocity": 1,
      "hand": "right"
    },
    {
      "midi": 75,
      "time": 157.143,
      "duration": 0.536,
      "velocity": 1,
      "hand": "right"
    },
    {
      "midi": 60,
      "time": 157.321,
      "duration": 0.179,
      "velocity": 1,
      "hand": "right"
    },
    {
      "midi": 56,
      "time": 157.589,
      "duration": 0.179,
      "velocity": 1,
      "hand": "left"
    },
    {
      "midi": 75,
      "time": 157.679,
      "duration": 0.045,
      "velocity": 1,
      "hand": "right"
    },
    {
      "midi": 77,
      "time": 157.679,
      "duration": 0.045,
      "velocity": 1,
      "hand": "right"
    },
    {
      "midi": 61,
      "time": 157.768,
      "duration": 0.625,
      "velocity": 1,
      "hand": "right"
    },
    {
      "midi": 73,
      "time": 157.768,
      "duration": 0.045,
      "velocity": 1,
      "hand": "right"
    },
    {
      "midi": 75,
      "time": 157.768,
      "duration": 0.045,
      "velocity": 1,
      "hand": "right"
    },
    {
      "midi": 77,
      "time": 157.768,
      "duration": 0.536,
      "velocity": 1,
      "hand": "right"
    },
    {
      "midi": 56,
      "time": 158.036,
      "duration": 0.179,
      "velocity": 1,
      "hand": "left"
    },
    {
      "midi": 53,
      "time": 158.214,
      "duration": 0.179,
      "velocity": 1,
      "hand": "left"
    },
    {
      "midi": 73,
      "time": 158.304,
      "duration": 0.179,
      "velocity": 1,
      "hand": "right"
    },
    {
      "midi": 44,
      "time": 158.482,
      "duration": 0.179,
      "velocity": 1,
      "hand": "left"
    },
    {
      "midi": 68,
      "time": 158.482,
      "duration": 1.339,
      "velocity": 1,
      "hand": "right"
    },
    {
      "midi": 51,
      "time": 158.661,
      "duration": 0.179,
      "velocity": 1,
      "hand": "left"
    },
    {
      "midi": 56,
      "time": 158.929,
      "duration": 0.179,
      "velocity": 1,
      "hand": "left"
    },
    {
      "midi": 60,
      "time": 159.107,
      "duration": 0.179,
      "velocity": 1,
      "hand": "right"
    },
    {
      "midi": 56,
      "time": 159.375,
      "duration": 0.179,
      "velocity": 1,
      "hand": "left"
    },
    {
      "midi": 51,
      "time": 159.554,
      "duration": 0.179,
      "velocity": 1,
      "hand": "left"
    },
    {
      "midi": 42,
      "time": 159.821,
      "duration": 0.179,
      "velocity": 1,
      "hand": "left"
    },
    {
      "midi": 70,
      "time": 159.821,
      "duration": 2.679,
      "velocity": 1,
      "hand": "right"
    },
    {
      "midi": 54,
      "time": 160,
      "duration": 0.179,
      "velocity": 1,
      "hand": "left"
    },
    {
      "midi": 58,
      "time": 160.268,
      "duration": 0.179,
      "velocity": 1,
      "hand": "left"
    },
    {
      "midi": 61,
      "time": 160.446,
      "duration": 0.179,
      "velocity": 1,
      "hand": "right"
    },
    {
      "midi": 58,
      "time": 160.714,
      "duration": 0.179,
      "velocity": 1,
      "hand": "left"
    },
    {
      "midi": 54,
      "time": 160.893,
      "duration": 0.179,
      "velocity": 1,
      "hand": "left"
    },
    {
      "midi": 46,
      "time": 161.161,
      "duration": 0.179,
      "velocity": 1,
      "hand": "left"
    },
    {
      "midi": 53,
      "time": 161.339,
      "duration": 0.179,
      "velocity": 1,
      "hand": "left"
    },
    {
      "midi": 58,
      "time": 161.607,
      "duration": 0.179,
      "velocity": 1,
      "hand": "left"
    },
    {
      "midi": 62,
      "time": 161.786,
      "duration": 0.179,
      "velocity": 1,
      "hand": "right"
    },
    {
      "midi": 58,
      "time": 162.054,
      "duration": 0.179,
      "velocity": 1,
      "hand": "left"
    },
    {
      "midi": 53,
      "time": 162.232,
      "duration": 0.179,
      "velocity": 1,
      "hand": "left"
    },
    {
      "midi": 46,
      "time": 162.5,
      "duration": 0.179,
      "velocity": 1,
      "hand": "left"
    },
    {
      "midi": 71,
      "time": 162.5,
      "duration": 0.357,
      "velocity": 1,
      "hand": "right"
    },
    {
      "midi": 58,
      "time": 162.679,
      "duration": 0.179,
      "velocity": 1,
      "hand": "left"
    },
    {
      "midi": 70,
      "time": 162.768,
      "duration": 0.357,
      "velocity": 1,
      "hand": "right"
    },
    {
      "midi": 62,
      "time": 162.946,
      "duration": 0.179,
      "velocity": 1,
      "hand": "right"
    },
    {
      "midi": 68,
      "time": 163.125,
      "duration": 0.179,
      "velocity": 1,
      "hand": "right"
    },
    {
      "midi": 75,
      "time": 163.125,
      "duration": 0.357,
      "velocity": 1,
      "hand": "right"
    },
    {
      "midi": 62,
      "time": 163.393,
      "duration": 0.179,
      "velocity": 1,
      "hand": "right"
    },
    {
      "midi": 77,
      "time": 163.482,
      "duration": 0.357,
      "velocity": 1,
      "hand": "right"
    },
    {
      "midi": 58,
      "time": 163.571,
      "duration": 0.179,
      "velocity": 1,
      "hand": "left"
    },
    {
      "midi": 51,
      "time": 163.839,
      "duration": 0.179,
      "velocity": 1,
      "hand": "left"
    },
    {
      "midi": 78,
      "time": 163.839,
      "duration": 0.625,
      "velocity": 1,
      "hand": "right"
    },
    {
      "midi": 66,
      "time": 164.018,
      "duration": 0.179,
      "velocity": 1,
      "hand": "right"
    },
    {
      "midi": 58,
      "time": 164.286,
      "duration": 0.179,
      "velocity": 1,
      "hand": "left"
    },
    {
      "midi": 53,
      "time": 164.464,
      "duration": 0.179,
      "velocity": 1,
      "hand": "left"
    },
    {
      "midi": 77,
      "time": 164.464,
      "duration": 0.625,
      "velocity": 1,
      "hand": "right"
    },
    {
      "midi": 65,
      "time": 164.732,
      "duration": 0.179,
      "velocity": 1,
      "hand": "right"
    },
    {
      "midi": 57,
      "time": 164.911,
      "duration": 0.179,
      "velocity": 1,
      "hand": "left"
    },
    {
      "midi": 54,
      "time": 165.179,
      "duration": 0.179,
      "velocity": 1,
      "hand": "left"
    },
    {
      "midi": 75,
      "time": 165.179,
      "duration": 0.625,
      "velocity": 1,
      "hand": "right"
    },
    {
      "midi": 63,
      "time": 165.357,
      "duration": 0.179,
      "velocity": 1,
      "hand": "right"
    },
    {
      "midi": 58,
      "time": 165.625,
      "duration": 0.179,
      "velocity": 1,
      "hand": "left"
    },
    {
      "midi": 56,
      "time": 165.804,
      "duration": 0.179,
      "velocity": 1,
      "hand": "left"
    },
    {
      "midi": 77,
      "time": 165.804,
      "duration": 0.625,
      "velocity": 1,
      "hand": "right"
    },
    {
      "midi": 66,
      "time": 166.071,
      "duration": 0.179,
      "velocity": 1,
      "hand": "right"
    },
    {
      "midi": 60,
      "time": 166.25,
      "duration": 0.179,
      "velocity": 1,
      "hand": "right"
    },
    {
      "midi": 49,
      "time": 166.518,
      "duration": 0.179,
      "velocity": 1,
      "hand": "left"
    },
    {
      "midi": 73,
      "time": 166.518,
      "duration": 0.982,
      "velocity": 1,
      "hand": "right"
    },
    {
      "midi": 56,
      "time": 166.696,
      "duration": 0.179,
      "velocity": 1,
      "hand": "left"
    },
    {
      "midi": 61,
      "time": 166.964,
      "duration": 0.179,
      "velocity": 1,
      "hand": "right"
    },
    {
      "midi": 65,
      "time": 167.143,
      "duration": 0.179,
      "velocity": 1,
      "hand": "right"
    },
    {
      "midi": 61,
      "time": 167.321,
      "duration": 0.179,
      "velocity": 1,
      "hand": "right"
    },
    {
      "midi": 67,
      "time": 167.5,
      "duration": 0.089,
      "velocity": 1,
      "hand": "right"
    },
    {
      "midi": 56,
      "time": 167.589,
      "duration": 0.179,
      "velocity": 1,
      "hand": "left"
    },
    {
      "midi": 68,
      "time": 167.589,
      "duration": 0.089,
      "velocity": 1,
      "hand": "right"
    },
    {
      "midi": 70,
      "time": 167.679,
      "duration": 0.089,
      "velocity": 1,
      "hand": "right"
    },
    {
      "midi": 49,
      "time": 167.768,
      "duration": 0.179,
      "velocity": 1,
      "hand": "left"
    },
    {
      "midi": 68,
      "time": 167.768,
      "duration": 0.089,
      "velocity": 1,
      "hand": "right"
    },
    {
      "midi": 77,
      "time": 167.768,
      "duration": 0.982,
      "velocity": 1,
      "hand": "right"
    },
    {
      "midi": 56,
      "time": 168.036,
      "duration": 0.179,
      "velocity": 1,
      "hand": "left"
    },
    {
      "midi": 60,
      "time": 168.214,
      "duration": 0.179,
      "velocity": 1,
      "hand": "right"
    },
    {
      "midi": 66,
      "time": 168.482,
      "duration": 0.179,
      "velocity": 1,
      "hand": "right"
    },
    {
      "midi": 60,
      "time": 168.661,
      "duration": 0.179,
      "velocity": 1,
      "hand": "right"
    },
    {
      "midi": 75,
      "time": 168.839,
      "duration": 0.357,
      "velocity": 1,
      "hand": "right"
    },
    {
      "midi": 56,
      "time": 168.929,
      "duration": 0.179,
      "velocity": 1,
      "hand": "left"
    },
    {
      "midi": 49,
      "time": 169.107,
      "duration": 0.179,
      "velocity": 1,
      "hand": "left"
    },
    {
      "midi": 75,
      "time": 169.107,
      "duration": 2.679,
      "velocity": 1,
      "hand": "right"
    },
    {
      "midi": 56,
      "time": 169.375,
      "duration": 0.179,
      "velocity": 1,
      "hand": "left"
    },
    {
      "midi": 60,
      "time": 169.554,
      "duration": 0.179,
      "velocity": 1,
      "hand": "right"
    },
    {
      "midi": 66,
      "time": 169.821,
      "duration": 0.179,
      "velocity": 1,
      "hand": "right"
    },
    {
      "midi": 60,
      "time": 170,
      "duration": 0.179,
      "velocity": 1,
      "hand": "right"
    },
    {
      "midi": 56,
      "time": 170.268,
      "duration": 0.179,
      "velocity": 1,
      "hand": "left"
    },
    {
      "midi": 49,
      "time": 170.446,
      "duration": 0.179,
      "velocity": 1,
      "hand": "left"
    },
    {
      "midi": 56,
      "time": 170.714,
      "duration": 0.179,
      "velocity": 1,
      "hand": "left"
    },
    {
      "midi": 60,
      "time": 170.893,
      "duration": 0.179,
      "velocity": 1,
      "hand": "right"
    },
    {
      "midi": 66,
      "time": 171.161,
      "duration": 0.179,
      "velocity": 1,
      "hand": "right"
    },
    {
      "midi": 60,
      "time": 171.339,
      "duration": 0.179,
      "velocity": 1,
      "hand": "right"
    },
    {
      "midi": 56,
      "time": 171.607,
      "duration": 0.179,
      "velocity": 1,
      "hand": "left"
    },
    {
      "midi": 49,
      "time": 171.786,
      "duration": 0.089,
      "velocity": 1,
      "hand": "left"
    },
    {
      "midi": 68,
      "time": 171.875,
      "duration": 0.089,
      "velocity": 1,
      "hand": "right"
    },
    {
      "midi": 56,
      "time": 171.964,
      "duration": 0.089,
      "velocity": 1,
      "hand": "left"
    },
    {
      "midi": 69,
      "time": 171.964,
      "duration": 0.089,
      "velocity": 1,
      "hand": "right"
    },
    {
      "midi": 61,
      "time": 172.054,
      "duration": 0.089,
      "velocity": 1,
      "hand": "right"
    },
    {
      "midi": 68,
      "time": 172.054,
      "duration": 0.089,
      "velocity": 1,
      "hand": "right"
    },
    {
      "midi": 64,
      "time": 172.143,
      "duration": 0.089,
      "velocity": 1,
      "hand": "right"
    },
    {
      "midi": 67,
      "time": 172.143,
      "duration": 0.089,
      "velocity": 1,
      "hand": "right"
    },
    {
      "midi": 68,
      "time": 172.232,
      "duration": 0.089,
      "velocity": 1,
      "hand": "right"
    },
    {
      "midi": 61,
      "time": 172.321,
      "duration": 0.089,
      "velocity": 1,
      "hand": "right"
    },
    {
      "midi": 73,
      "time": 172.321,
      "duration": 0.089,
      "velocity": 1,
      "hand": "right"
    },
    {
      "midi": 56,
      "time": 172.411,
      "duration": 0.089,
      "velocity": 1,
      "hand": "left"
    },
    {
      "midi": 76,
      "time": 172.411,
      "duration": 0.089,
      "velocity": 1,
      "hand": "right"
    },
    {
      "midi": 52,
      "time": 172.5,
      "duration": 0.089,
      "velocity": 1,
      "hand": "left"
    },
    {
      "midi": 75,
      "time": 172.5,
      "duration": 0.089,
      "velocity": 1,
      "hand": "right"
    },
    {
      "midi": 73,
      "time": 172.589,
      "duration": 0.089,
      "velocity": 1,
      "hand": "right"
    },
    {
      "midi": 56,
      "time": 172.679,
      "duration": 0.089,
      "velocity": 1,
      "hand": "left"
    },
    {
      "midi": 75,
      "time": 172.679,
      "duration": 0.089,
      "velocity": 1,
      "hand": "right"
    },
    {
      "midi": 61,
      "time": 172.768,
      "duration": 0.089,
      "velocity": 1,
      "hand": "right"
    },
    {
      "midi": 73,
      "time": 172.768,
      "duration": 0.089,
      "velocity": 1,
      "hand": "right"
    },
    {
      "midi": 64,
      "time": 172.857,
      "duration": 0.089,
      "velocity": 1,
      "hand": "right"
    },
    {
      "midi": 72,
      "time": 172.857,
      "duration": 0.089,
      "velocity": 1,
      "hand": "right"
    },
    {
      "midi": 73,
      "time": 172.946,
      "duration": 0.089,
      "velocity": 1,
      "hand": "right"
    },
    {
      "midi": 61,
      "time": 173.036,
      "duration": 0.089,
      "velocity": 1,
      "hand": "right"
    },
    {
      "midi": 76,
      "time": 173.036,
      "duration": 0.089,
      "velocity": 1,
      "hand": "right"
    },
    {
      "midi": 56,
      "time": 173.125,
      "duration": 0.089,
      "velocity": 1,
      "hand": "left"
    },
    {
      "midi": 80,
      "time": 173.125,
      "duration": 0.089,
      "velocity": 1,
      "hand": "right"
    },
    {
      "midi": 49,
      "time": 173.214,
      "duration": 0.089,
      "velocity": 1,
      "hand": "left"
    },
    {
      "midi": 68,
      "time": 173.304,
      "duration": 0.089,
      "velocity": 1,
      "hand": "right"
    },
    {
      "midi": 56,
      "time": 173.393,
      "duration": 0.089,
      "velocity": 1,
      "hand": "left"
    },
    {
      "midi": 69,
      "time": 173.393,
      "duration": 0.089,
      "velocity": 1,
      "hand": "right"
    },
    {
      "midi": 61,
      "time": 173.482,
      "duration": 0.089,
      "velocity": 1,
      "hand": "right"
    },
    {
      "midi": 68,
      "time": 173.482,
      "duration": 0.089,
      "velocity": 1,
      "hand": "right"
    },
    {
      "midi": 64,
      "time": 173.571,
      "duration": 0.089,
      "velocity": 1,
      "hand": "right"
    },
    {
      "midi": 67,
      "time": 173.571,
      "duration": 0.089,
      "velocity": 1,
      "hand": "right"
    },
    {
      "midi": 68,
      "time": 173.661,
      "duration": 0.089,
      "velocity": 1,
      "hand": "right"
    },
    {
      "midi": 61,
      "time": 173.75,
      "duration": 0.089,
      "velocity": 1,
      "hand": "right"
    },
    {
      "midi": 73,
      "time": 173.75,
      "duration": 0.089,
      "velocity": 1,
      "hand": "right"
    },
    {
      "midi": 56,
      "time": 173.839,
      "duration": 0.089,
      "velocity": 1,
      "hand": "left"
    },
    {
      "midi": 76,
      "time": 173.839,
      "duration": 0.089,
      "velocity": 1,
      "hand": "right"
    },
    {
      "midi": 52,
      "time": 173.929,
      "duration": 0.089,
      "velocity": 1,
      "hand": "left"
    },
    {
      "midi": 75,
      "time": 173.929,
      "duration": 0.089,
      "velocity": 1,
      "hand": "right"
    },
    {
      "midi": 73,
      "time": 174.018,
      "duration": 0.089,
      "velocity": 1,
      "hand": "right"
    },
    {
      "midi": 56,
      "time": 174.107,
      "duration": 0.089,
      "velocity": 1,
      "hand": "left"
    },
    {
      "midi": 75,
      "time": 174.107,
      "duration": 0.089,
      "velocity": 1,
      "hand": "right"
    },
    {
      "midi": 61,
      "time": 174.196,
      "duration": 0.089,
      "velocity": 1,
      "hand": "right"
    },
    {
      "midi": 73,
      "time": 174.196,
      "duration": 0.089,
      "velocity": 1,
      "hand": "right"
    },
    {
      "midi": 64,
      "time": 174.286,
      "duration": 0.089,
      "velocity": 1,
      "hand": "right"
    },
    {
      "midi": 72,
      "time": 174.286,
      "duration": 0.089,
      "velocity": 1,
      "hand": "right"
    },
    {
      "midi": 73,
      "time": 174.375,
      "duration": 0.089,
      "velocity": 1,
      "hand": "right"
    },
    {
      "midi": 61,
      "time": 174.464,
      "duration": 0.089,
      "velocity": 1,
      "hand": "right"
    },
    {
      "midi": 76,
      "time": 174.464,
      "duration": 0.089,
      "velocity": 1,
      "hand": "right"
    },
    {
      "midi": 56,
      "time": 174.554,
      "duration": 0.089,
      "velocity": 1,
      "hand": "left"
    },
    {
      "midi": 80,
      "time": 174.554,
      "duration": 0.089,
      "velocity": 1,
      "hand": "right"
    },
    {
      "midi": 51,
      "time": 174.643,
      "duration": 0.089,
      "velocity": 1,
      "hand": "left"
    },
    {
      "midi": 69,
      "time": 174.732,
      "duration": 0.089,
      "velocity": 1,
      "hand": "right"
    },
    {
      "midi": 57,
      "time": 174.821,
      "duration": 0.089,
      "velocity": 1,
      "hand": "left"
    },
    {
      "midi": 73,
      "time": 174.821,
      "duration": 0.089,
      "velocity": 1,
      "hand": "right"
    },
    {
      "midi": 61,
      "time": 174.911,
      "duration": 0.089,
      "velocity": 1,
      "hand": "right"
    },
    {
      "midi": 75,
      "time": 174.911,
      "duration": 0.089,
      "velocity": 1,
      "hand": "right"
    },
    {
      "midi": 66,
      "time": 175,
      "duration": 0.089,
      "velocity": 1,
      "hand": "right"
    },
    {
      "midi": 78,
      "time": 175,
      "duration": 0.089,
      "velocity": 1,
      "hand": "right"
    },
    {
      "midi": 81,
      "time": 175.089,
      "duration": 0.089,
      "velocity": 1,
      "hand": "right"
    },
    {
      "midi": 61,
      "time": 175.179,
      "duration": 0.089,
      "velocity": 1,
      "hand": "right"
    },
    {
      "midi": 85,
      "time": 175.179,
      "duration": 0.089,
      "velocity": 1,
      "hand": "right"
    },
    {
      "midi": 57,
      "time": 175.268,
      "duration": 0.089,
      "velocity": 1,
      "hand": "left"
    },
    {
      "midi": 87,
      "time": 175.268,
      "duration": 0.089,
      "velocity": 1,
      "hand": "right"
    },
    {
      "midi": 54,
      "time": 175.357,
      "duration": 0.089,
      "velocity": 1,
      "hand": "left"
    },
    {
      "midi": 95,
      "time": 175.357,
      "duration": 0.089,
      "velocity": 1,
      "hand": "right"
    },
    {
      "midi": 93,
      "time": 175.446,
      "duration": 0.089,
      "velocity": 1,
      "hand": "right"
    },
    {
      "midi": 61,
      "time": 175.536,
      "duration": 0.089,
      "velocity": 1,
      "hand": "right"
    },
    {
      "midi": 92,
      "time": 175.536,
      "duration": 0.089,
      "velocity": 1,
      "hand": "right"
    },
    {
      "midi": 63,
      "time": 175.625,
      "duration": 0.089,
      "velocity": 1,
      "hand": "right"
    },
    {
      "midi": 90,
      "time": 175.625,
      "duration": 0.089,
      "velocity": 1,
      "hand": "right"
    },
    {
      "midi": 69,
      "time": 175.714,
      "duration": 0.089,
      "velocity": 1,
      "hand": "right"
    },
    {
      "midi": 88,
      "time": 175.714,
      "duration": 0.089,
      "velocity": 1,
      "hand": "right"
    },
    {
      "midi": 87,
      "time": 175.804,
      "duration": 0.089,
      "velocity": 1,
      "hand": "right"
    },
    {
      "midi": 63,
      "time": 175.893,
      "duration": 0.089,
      "velocity": 1,
      "hand": "right"
    },
    {
      "midi": 90,
      "time": 175.893,
      "duration": 0.089,
      "velocity": 1,
      "hand": "right"
    },
    {
      "midi": 61,
      "time": 175.982,
      "duration": 0.089,
      "velocity": 1,
      "hand": "right"
    },
    {
      "midi": 85,
      "time": 175.982,
      "duration": 0.089,
      "velocity": 1,
      "hand": "right"
    },
    {
      "midi": 44,
      "time": 176.071,
      "duration": 0.089,
      "velocity": 1,
      "hand": "left"
    },
    {
      "midi": 84,
      "time": 176.071,
      "duration": 0.089,
      "velocity": 1,
      "hand": "right"
    },
    {
      "midi": 87,
      "time": 176.161,
      "duration": 0.089,
      "velocity": 1,
      "hand": "right"
    },
    {
      "midi": 51,
      "time": 176.25,
      "duration": 0.089,
      "velocity": 1,
      "hand": "left"
    },
    {
      "midi": 81,
      "time": 176.25,
      "duration": 0.089,
      "velocity": 1,
      "hand": "right"
    },
    {
      "midi": 54,
      "time": 176.339,
      "duration": 0.089,
      "velocity": 1,
      "hand": "left"
    },
    {
      "midi": 80,
      "time": 176.339,
      "duration": 0.089,
      "velocity": 1,
      "hand": "right"
    },
    {
      "midi": 60,
      "time": 176.429,
      "duration": 0.089,
      "velocity": 1,
      "hand": "right"
    },
    {
      "midi": 78,
      "time": 176.429,
      "duration": 0.089,
      "velocity": 1,
      "hand": "right"
    },
    {
      "midi": 81,
      "time": 176.518,
      "duration": 0.089,
      "velocity": 1,
      "hand": "right"
    },
    {
      "midi": 54,
      "time": 176.607,
      "duration": 0.089,
      "velocity": 1,
      "hand": "left"
    },
    {
      "midi": 76,
      "time": 176.607,
      "duration": 0.089,
      "velocity": 1,
      "hand": "right"
    },
    {
      "midi": 51,
      "time": 176.696,
      "duration": 0.089,
      "velocity": 1,
      "hand": "left"
    },
    {
      "midi": 75,
      "time": 176.696,
      "duration": 0.089,
      "velocity": 1,
      "hand": "right"
    },
    {
      "midi": 44,
      "time": 176.786,
      "duration": 0.089,
      "velocity": 1,
      "hand": "left"
    },
    {
      "midi": 78,
      "time": 176.786,
      "duration": 0.089,
      "velocity": 1,
      "hand": "right"
    },
    {
      "midi": 73,
      "time": 176.875,
      "duration": 0.089,
      "velocity": 1,
      "hand": "right"
    },
    {
      "midi": 51,
      "time": 176.964,
      "duration": 0.089,
      "velocity": 1,
      "hand": "left"
    },
    {
      "midi": 72,
      "time": 176.964,
      "duration": 0.089,
      "velocity": 1,
      "hand": "right"
    },
    {
      "midi": 54,
      "time": 177.054,
      "duration": 0.089,
      "velocity": 1,
      "hand": "left"
    },
    {
      "midi": 75,
      "time": 177.054,
      "duration": 0.089,
      "velocity": 1,
      "hand": "right"
    },
    {
      "midi": 60,
      "time": 177.143,
      "duration": 0.089,
      "velocity": 1,
      "hand": "right"
    },
    {
      "midi": 69,
      "time": 177.143,
      "duration": 0.089,
      "velocity": 1,
      "hand": "right"
    },
    {
      "midi": 68,
      "time": 177.232,
      "duration": 0.089,
      "velocity": 1,
      "hand": "right"
    },
    {
      "midi": 54,
      "time": 177.321,
      "duration": 0.089,
      "velocity": 1,
      "hand": "left"
    },
    {
      "midi": 71,
      "time": 177.321,
      "duration": 0.089,
      "velocity": 1,
      "hand": "right"
    },
    {
      "midi": 51,
      "time": 177.411,
      "duration": 0.089,
      "velocity": 1,
      "hand": "left"
    },
    {
      "midi": 69,
      "time": 177.411,
      "duration": 0.179,
      "velocity": 1,
      "hand": "right"
    },
    {
      "midi": 49,
      "time": 177.5,
      "duration": 0.089,
      "velocity": 1,
      "hand": "left"
    },
    {
      "midi": 68,
      "time": 177.589,
      "duration": 0.089,
      "velocity": 1,
      "hand": "right"
    },
    {
      "midi": 56,
      "time": 177.679,
      "duration": 0.089,
      "velocity": 1,
      "hand": "left"
    },
    {
      "midi": 69,
      "time": 177.679,
      "duration": 0.089,
      "velocity": 1,
      "hand": "right"
    },
    {
      "midi": 61,
      "time": 177.768,
      "duration": 0.089,
      "velocity": 1,
      "hand": "right"
    },
    {
      "midi": 68,
      "time": 177.768,
      "duration": 0.089,
      "velocity": 1,
      "hand": "right"
    },
    {
      "midi": 64,
      "time": 177.857,
      "duration": 0.089,
      "velocity": 1,
      "hand": "right"
    },
    {
      "midi": 67,
      "time": 177.857,
      "duration": 0.089,
      "velocity": 1,
      "hand": "right"
    },
    {
      "midi": 68,
      "time": 177.946,
      "duration": 0.089,
      "velocity": 1,
      "hand": "right"
    },
    {
      "midi": 61,
      "time": 178.036,
      "duration": 0.089,
      "velocity": 1,
      "hand": "right"
    },
    {
      "midi": 73,
      "time": 178.036,
      "duration": 0.089,
      "velocity": 1,
      "hand": "right"
    },
    {
      "midi": 56,
      "time": 178.125,
      "duration": 0.089,
      "velocity": 1,
      "hand": "left"
    },
    {
      "midi": 76,
      "time": 178.125,
      "duration": 0.089,
      "velocity": 1,
      "hand": "right"
    },
    {
      "midi": 52,
      "time": 178.214,
      "duration": 0.089,
      "velocity": 1,
      "hand": "left"
    },
    {
      "midi": 75,
      "time": 178.214,
      "duration": 0.089,
      "velocity": 1,
      "hand": "right"
    },
    {
      "midi": 73,
      "time": 178.304,
      "duration": 0.089,
      "velocity": 1,
      "hand": "right"
    },
    {
      "midi": 56,
      "time": 178.393,
      "duration": 0.089,
      "velocity": 1,
      "hand": "left"
    },
    {
      "midi": 75,
      "time": 178.393,
      "duration": 0.089,
      "velocity": 1,
      "hand": "right"
    },
    {
      "midi": 61,
      "time": 178.482,
      "duration": 0.089,
      "velocity": 1,
      "hand": "right"
    },
    {
      "midi": 73,
      "time": 178.482,
      "duration": 0.089,
      "velocity": 1,
      "hand": "right"
    },
    {
      "midi": 64,
      "time": 178.571,
      "duration": 0.089,
      "velocity": 1,
      "hand": "right"
    },
    {
      "midi": 72,
      "time": 178.571,
      "duration": 0.089,
      "velocity": 1,
      "hand": "right"
    },
    {
      "midi": 73,
      "time": 178.661,
      "duration": 0.089,
      "velocity": 1,
      "hand": "right"
    },
    {
      "midi": 61,
      "time": 178.75,
      "duration": 0.089,
      "velocity": 1,
      "hand": "right"
    },
    {
      "midi": 76,
      "time": 178.75,
      "duration": 0.089,
      "velocity": 1,
      "hand": "right"
    },
    {
      "midi": 56,
      "time": 178.839,
      "duration": 0.089,
      "velocity": 1,
      "hand": "left"
    },
    {
      "midi": 80,
      "time": 178.839,
      "duration": 0.089,
      "velocity": 1,
      "hand": "right"
    },
    {
      "midi": 49,
      "time": 178.929,
      "duration": 0.089,
      "velocity": 1,
      "hand": "left"
    },
    {
      "midi": 68,
      "time": 179.018,
      "duration": 0.089,
      "velocity": 1,
      "hand": "right"
    },
    {
      "midi": 56,
      "time": 179.107,
      "duration": 0.089,
      "velocity": 1,
      "hand": "left"
    },
    {
      "midi": 70,
      "time": 179.107,
      "duration": 0.089,
      "velocity": 1,
      "hand": "right"
    },
    {
      "midi": 58,
      "time": 179.196,
      "duration": 0.089,
      "velocity": 1,
      "hand": "left"
    },
    {
      "midi": 68,
      "time": 179.196,
      "duration": 0.089,
      "velocity": 1,
      "hand": "right"
    },
    {
      "midi": 64,
      "time": 179.286,
      "duration": 0.089,
      "velocity": 1,
      "hand": "right"
    },
    {
      "midi": 67,
      "time": 179.286,
      "duration": 0.089,
      "velocity": 1,
      "hand": "right"
    },
    {
      "midi": 68,
      "time": 179.375,
      "duration": 0.089,
      "velocity": 1,
      "hand": "right"
    },
    {
      "midi": 58,
      "time": 179.464,
      "duration": 0.089,
      "velocity": 1,
      "hand": "left"
    },
    {
      "midi": 73,
      "time": 179.464,
      "duration": 0.089,
      "velocity": 1,
      "hand": "right"
    },
    {
      "midi": 56,
      "time": 179.554,
      "duration": 0.089,
      "velocity": 1,
      "hand": "left"
    },
    {
      "midi": 76,
      "time": 179.554,
      "duration": 0.089,
      "velocity": 1,
      "hand": "right"
    },
    {
      "midi": 52,
      "time": 179.643,
      "duration": 0.089,
      "velocity": 1,
      "hand": "left"
    },
    {
      "midi": 75,
      "time": 179.643,
      "duration": 0.089,
      "velocity": 1,
      "hand": "right"
    },
    {
      "midi": 73,
      "time": 179.732,
      "duration": 0.089,
      "velocity": 1,
      "hand": "right"
    },
    {
      "midi": 56,
      "time": 179.821,
      "duration": 0.089,
      "velocity": 1,
      "hand": "left"
    },
    {
      "midi": 75,
      "time": 179.821,
      "duration": 0.089,
      "velocity": 1,
      "hand": "right"
    },
    {
      "midi": 58,
      "time": 179.911,
      "duration": 0.089,
      "velocity": 1,
      "hand": "left"
    },
    {
      "midi": 73,
      "time": 179.911,
      "duration": 0.089,
      "velocity": 1,
      "hand": "right"
    },
    {
      "midi": 61,
      "time": 180,
      "duration": 0.089,
      "velocity": 1,
      "hand": "right"
    },
    {
      "midi": 72,
      "time": 180,
      "duration": 0.089,
      "velocity": 1,
      "hand": "right"
    },
    {
      "midi": 73,
      "time": 180.089,
      "duration": 0.089,
      "velocity": 1,
      "hand": "right"
    },
    {
      "midi": 58,
      "time": 180.179,
      "duration": 0.089,
      "velocity": 1,
      "hand": "left"
    },
    {
      "midi": 76,
      "time": 180.179,
      "duration": 0.089,
      "velocity": 1,
      "hand": "right"
    },
    {
      "midi": 56,
      "time": 180.268,
      "duration": 0.089,
      "velocity": 1,
      "hand": "left"
    },
    {
      "midi": 80,
      "time": 180.268,
      "duration": 0.089,
      "velocity": 1,
      "hand": "right"
    },
    {
      "midi": 51,
      "time": 180.357,
      "duration": 0.089,
      "velocity": 1,
      "hand": "left"
    },
    {
      "midi": 75,
      "time": 180.357,
      "duration": 0.089,
      "velocity": 1,
      "hand": "right"
    },
    {
      "midi": 76,
      "time": 180.446,
      "duration": 0.089,
      "velocity": 1,
      "hand": "right"
    },
    {
      "midi": 56,
      "time": 180.536,
      "duration": 0.089,
      "velocity": 1,
      "hand": "left"
    },
    {
      "midi": 75,
      "time": 180.536,
      "duration": 0.089,
      "velocity": 1,
      "hand": "right"
    },
    {
      "midi": 59,
      "time": 180.625,
      "duration": 0.089,
      "velocity": 1,
      "hand": "left"
    },
    {
      "midi": 74,
      "time": 180.625,
      "duration": 0.089,
      "velocity": 1,
      "hand": "right"
    },
    {
      "midi": 63,
      "time": 180.714,
      "duration": 0.089,
      "velocity": 1,
      "hand": "right"
    },
    {
      "midi": 75,
      "time": 180.714,
      "duration": 0.089,
      "velocity": 1,
      "hand": "right"
    },
    {
      "midi": 83,
      "time": 180.804,
      "duration": 0.089,
      "velocity": 1,
      "hand": "right"
    },
    {
      "midi": 59,
      "time": 180.893,
      "duration": 0.089,
      "velocity": 1,
      "hand": "left"
    },
    {
      "midi": 82,
      "time": 180.893,
      "duration": 0.089,
      "velocity": 1,
      "hand": "right"
    },
    {
      "midi": 56,
      "time": 180.982,
      "duration": 0.089,
      "velocity": 1,
      "hand": "left"
    },
    {
      "midi": 80,
      "time": 180.982,
      "duration": 0.089,
      "velocity": 1,
      "hand": "right"
    },
    {
      "midi": 51,
      "time": 181.071,
      "duration": 0.089,
      "velocity": 1,
      "hand": "left"
    },
    {
      "midi": 79,
      "time": 181.071,
      "duration": 0.089,
      "velocity": 1,
      "hand": "right"
    },
    {
      "midi": 88,
      "time": 181.161,
      "duration": 0.089,
      "velocity": 1,
      "hand": "right"
    },
    {
      "midi": 58,
      "time": 181.25,
      "duration": 0.089,
      "velocity": 1,
      "hand": "left"
    },
    {
      "midi": 87,
      "time": 181.25,
      "duration": 0.089,
      "velocity": 1,
      "hand": "right"
    },
    {
      "midi": 61,
      "time": 181.339,
      "duration": 0.089,
      "velocity": 1,
      "hand": "right"
    },
    {
      "midi": 85,
      "time": 181.339,
      "duration": 0.089,
      "velocity": 1,
      "hand": "right"
    },
    {
      "midi": 67,
      "time": 181.429,
      "duration": 0.089,
      "velocity": 1,
      "hand": "right"
    },
    {
      "midi": 83,
      "time": 181.429,
      "duration": 0.089,
      "velocity": 1,
      "hand": "right"
    },
    {
      "midi": 82,
      "time": 181.518,
      "duration": 0.089,
      "velocity": 1,
      "hand": "right"
    },
    {
      "midi": 61,
      "time": 181.607,
      "duration": 0.089,
      "velocity": 1,
      "hand": "right"
    },
    {
      "midi": 80,
      "time": 181.607,
      "duration": 0.089,
      "velocity": 1,
      "hand": "right"
    },
    {
      "midi": 58,
      "time": 181.696,
      "duration": 0.089,
      "velocity": 1,
      "hand": "left"
    },
    {
      "midi": 79,
      "time": 181.696,
      "duration": 0.089,
      "velocity": 1,
      "hand": "right"
    },
    {
      "midi": 44,
      "time": 181.786,
      "duration": 0.089,
      "velocity": 1,
      "hand": "left"
    },
    {
      "midi": 82,
      "time": 181.786,
      "duration": 0.089,
      "velocity": 1,
      "hand": "right"
    },
    {
      "midi": 80,
      "time": 181.875,
      "duration": 0.089,
      "velocity": 1,
      "hand": "right"
    },
    {
      "midi": 51,
      "time": 181.964,
      "duration": 0.089,
      "velocity": 1,
      "hand": "left"
    },
    {
      "midi": 83,
      "time": 181.964,
      "duration": 0.089,
      "velocity": 1,
      "hand": "right"
    },
    {
      "midi": 56,
      "time": 182.054,
      "duration": 0.089,
      "velocity": 1,
      "hand": "left"
    },
    {
      "midi": 74,
      "time": 182.054,
      "duration": 0.089,
      "velocity": 1,
      "hand": "right"
    },
    {
      "midi": 59,
      "time": 182.143,
      "duration": 0.089,
      "velocity": 1,
      "hand": "left"
    },
    {
      "midi": 76,
      "time": 182.143,
      "duration": 0.089,
      "velocity": 1,
      "hand": "right"
    },
    {
      "midi": 75,
      "time": 182.232,
      "duration": 0.089,
      "velocity": 1,
      "hand": "right"
    },
    {
      "midi": 56,
      "time": 182.321,
      "duration": 0.089,
      "velocity": 1,
      "hand": "left"
    },
    {
      "midi": 80,
      "time": 182.321,
      "duration": 0.089,
      "velocity": 1,
      "hand": "right"
    },
    {
      "midi": 51,
      "time": 182.411,
      "duration": 0.089,
      "velocity": 1,
      "hand": "left"
    },
    {
      "midi": 70,
      "time": 182.411,
      "duration": 0.089,
      "velocity": 1,
      "hand": "right"
    },
    {
      "midi": 44,
      "time": 182.5,
      "duration": 0.089,
      "velocity": 1,
      "hand": "left"
    },
    {
      "midi": 73,
      "time": 182.5,
      "duration": 0.089,
      "velocity": 1,
      "hand": "right"
    },
    {
      "midi": 71,
      "time": 182.589,
      "duration": 0.089,
      "velocity": 1,
      "hand": "right"
    },
    {
      "midi": 51,
      "time": 182.679,
      "duration": 0.089,
      "velocity": 1,
      "hand": "left"
    },
    {
      "midi": 75,
      "time": 182.679,
      "duration": 0.089,
      "velocity": 1,
      "hand": "right"
    },
    {
      "midi": 56,
      "time": 182.768,
      "duration": 0.089,
      "velocity": 1,
      "hand": "left"
    },
    {
      "midi": 67,
      "time": 182.768,
      "duration": 0.089,
      "velocity": 1,
      "hand": "right"
    },
    {
      "midi": 59,
      "time": 182.857,
      "duration": 0.089,
      "velocity": 1,
      "hand": "left"
    },
    {
      "midi": 70,
      "time": 182.857,
      "duration": 0.089,
      "velocity": 1,
      "hand": "right"
    },
    {
      "midi": 68,
      "time": 182.946,
      "duration": 0.089,
      "velocity": 1,
      "hand": "right"
    },
    {
      "midi": 56,
      "time": 183.036,
      "duration": 0.089,
      "velocity": 1,
      "hand": "left"
    },
    {
      "midi": 67,
      "time": 183.036,
      "duration": 0.089,
      "velocity": 1,
      "hand": "right"
    },
    {
      "midi": 51,
      "time": 183.125,
      "duration": 0.089,
      "velocity": 1,
      "hand": "left"
    },
    {
      "midi": 68,
      "time": 183.125,
      "duration": 0.089,
      "velocity": 1,
      "hand": "right"
    },
    {
      "midi": 45,
      "time": 183.214,
      "duration": 0.089,
      "velocity": 1,
      "hand": "left"
    },
    {
      "midi": 68,
      "time": 183.214,
      "duration": 0.089,
      "velocity": 1,
      "hand": "right"
    },
    {
      "midi": 80,
      "time": 183.304,
      "duration": 0.089,
      "velocity": 1,
      "hand": "right"
    },
    {
      "midi": 49,
      "time": 183.393,
      "duration": 0.089,
      "velocity": 1,
      "hand": "left"
    },
    {
      "midi": 72,
      "time": 183.393,
      "duration": 0.089,
      "velocity": 1,
      "hand": "right"
    },
    {
      "midi": 54,
      "time": 183.482,
      "duration": 0.089,
      "velocity": 1,
      "hand": "left"
    },
    {
      "midi": 73,
      "time": 183.482,
      "duration": 0.089,
      "velocity": 1,
      "hand": "right"
    },
    {
      "midi": 57,
      "time": 183.571,
      "duration": 0.089,
      "velocity": 1,
      "hand": "left"
    },
    {
      "midi": 66,
      "time": 183.571,
      "duration": 0.089,
      "velocity": 1,
      "hand": "right"
    },
    {
      "midi": 78,
      "time": 183.661,
      "duration": 0.089,
      "velocity": 1,
      "hand": "right"
    },
    {
      "midi": 54,
      "time": 183.75,
      "duration": 0.089,
      "velocity": 1,
      "hand": "left"
    },
    {
      "midi": 72,
      "time": 183.75,
      "duration": 0.089,
      "velocity": 1,
      "hand": "right"
    },
    {
      "midi": 49,
      "time": 183.839,
      "duration": 0.089,
      "velocity": 1,
      "hand": "left"
    },
    {
      "midi": 73,
      "time": 183.839,
      "duration": 0.089,
      "velocity": 1,
      "hand": "right"
    },
    {
      "midi": 45,
      "time": 183.929,
      "duration": 0.089,
      "velocity": 1,
      "hand": "left"
    },
    {
      "midi": 65,
      "time": 183.929,
      "duration": 0.089,
      "velocity": 1,
      "hand": "right"
    },
    {
      "midi": 77,
      "time": 184.018,
      "duration": 0.089,
      "velocity": 1,
      "hand": "right"
    },
    {
      "midi": 49,
      "time": 184.107,
      "duration": 0.089,
      "velocity": 1,
      "hand": "left"
    },
    {
      "midi": 72,
      "time": 184.107,
      "duration": 0.089,
      "velocity": 1,
      "hand": "right"
    },
    {
      "midi": 54,
      "time": 184.196,
      "duration": 0.089,
      "velocity": 1,
      "hand": "left"
    },
    {
      "midi": 73,
      "time": 184.196,
      "duration": 0.089,
      "velocity": 1,
      "hand": "right"
    },
    {
      "midi": 57,
      "time": 184.286,
      "duration": 0.089,
      "velocity": 1,
      "hand": "left"
    },
    {
      "midi": 66,
      "time": 184.286,
      "duration": 0.089,
      "velocity": 1,
      "hand": "right"
    },
    {
      "midi": 78,
      "time": 184.375,
      "duration": 0.089,
      "velocity": 1,
      "hand": "right"
    },
    {
      "midi": 54,
      "time": 184.464,
      "duration": 0.089,
      "velocity": 1,
      "hand": "left"
    },
    {
      "midi": 72,
      "time": 184.464,
      "duration": 0.089,
      "velocity": 1,
      "hand": "right"
    },
    {
      "midi": 49,
      "time": 184.554,
      "duration": 0.089,
      "velocity": 1,
      "hand": "left"
    },
    {
      "midi": 73,
      "time": 184.554,
      "duration": 0.089,
      "velocity": 1,
      "hand": "right"
    },
    {
      "midi": 47,
      "time": 184.643,
      "duration": 0.089,
      "velocity": 1,
      "hand": "left"
    },
    {
      "midi": 61,
      "time": 184.643,
      "duration": 0.089,
      "velocity": 1,
      "hand": "right"
    },
    {
      "midi": 73,
      "time": 184.732,
      "duration": 0.089,
      "velocity": 1,
      "hand": "right"
    },
    {
      "midi": 54,
      "time": 184.821,
      "duration": 0.089,
      "velocity": 1,
      "hand": "left"
    },
    {
      "midi": 66,
      "time": 184.821,
      "duration": 0.089,
      "velocity": 1,
      "hand": "right"
    },
    {
      "midi": 57,
      "time": 184.911,
      "duration": 0.089,
      "velocity": 1,
      "hand": "left"
    },
    {
      "midi": 69,
      "time": 184.911,
      "duration": 0.089,
      "velocity": 1,
      "hand": "right"
    },
    {
      "midi": 59,
      "time": 185,
      "duration": 0.089,
      "velocity": 1,
      "hand": "left"
    },
    {
      "midi": 63,
      "time": 185,
      "duration": 0.089,
      "velocity": 1,
      "hand": "right"
    },
    {
      "midi": 75,
      "time": 185.089,
      "duration": 0.089,
      "velocity": 1,
      "hand": "right"
    },
    {
      "midi": 57,
      "time": 185.179,
      "duration": 0.089,
      "velocity": 1,
      "hand": "left"
    },
    {
      "midi": 66,
      "time": 185.179,
      "duration": 0.089,
      "velocity": 1,
      "hand": "right"
    },
    {
      "midi": 54,
      "time": 185.268,
      "duration": 0.089,
      "velocity": 1,
      "hand": "left"
    },
    {
      "midi": 69,
      "time": 185.268,
      "duration": 0.089,
      "velocity": 1,
      "hand": "right"
    },
    {
      "midi": 40,
      "time": 185.357,
      "duration": 0.089,
      "velocity": 1,
      "hand": "left"
    },
    {
      "midi": 64,
      "time": 185.357,
      "duration": 0.089,
      "velocity": 1,
      "hand": "right"
    },
    {
      "midi": 76,
      "time": 185.446,
      "duration": 0.089,
      "velocity": 1,
      "hand": "right"
    },
    {
      "midi": 47,
      "time": 185.536,
      "duration": 0.089,
      "velocity": 1,
      "hand": "left"
    },
    {
      "midi": 68,
      "time": 185.536,
      "duration": 0.089,
      "velocity": 1,
      "hand": "right"
    },
    {
      "midi": 52,
      "time": 185.625,
      "duration": 0.089,
      "velocity": 1,
      "hand": "left"
    },
    {
      "midi": 71,
      "time": 185.625,
      "duration": 0.089,
      "velocity": 1,
      "hand": "right"
    },
    {
      "midi": 56,
      "time": 185.714,
      "duration": 0.089,
      "velocity": 1,
      "hand": "left"
    },
    {
      "midi": 68,
      "time": 185.714,
      "duration": 0.089,
      "velocity": 1,
      "hand": "right"
    },
    {
      "midi": 80,
      "time": 185.804,
      "duration": 0.089,
      "velocity": 1,
      "hand": "right"
    },
    {
      "midi": 52,
      "time": 185.893,
      "duration": 0.089,
      "velocity": 1,
      "hand": "left"
    },
    {
      "midi": 71,
      "time": 185.893,
      "duration": 0.089,
      "velocity": 1,
      "hand": "right"
    },
    {
      "midi": 47,
      "time": 185.982,
      "duration": 0.089,
      "velocity": 1,
      "hand": "left"
    },
    {
      "midi": 76,
      "time": 185.982,
      "duration": 0.089,
      "velocity": 1,
      "hand": "right"
    },
    {
      "midi": 45,
      "time": 186.071,
      "duration": 0.089,
      "velocity": 1,
      "hand": "left"
    },
    {
      "midi": 68,
      "time": 186.071,
      "duration": 0.089,
      "velocity": 1,
      "hand": "right"
    },
    {
      "midi": 80,
      "time": 186.161,
      "duration": 0.089,
      "velocity": 1,
      "hand": "right"
    },
    {
      "midi": 49,
      "time": 186.25,
      "duration": 0.089,
      "velocity": 1,
      "hand": "left"
    },
    {
      "midi": 72,
      "time": 186.25,
      "duration": 0.089,
      "velocity": 1,
      "hand": "right"
    },
    {
      "midi": 54,
      "time": 186.339,
      "duration": 0.089,
      "velocity": 1,
      "hand": "left"
    },
    {
      "midi": 73,
      "time": 186.339,
      "duration": 0.089,
      "velocity": 1,
      "hand": "right"
    },
    {
      "midi": 57,
      "time": 186.429,
      "duration": 0.089,
      "velocity": 1,
      "hand": "left"
    },
    {
      "midi": 66,
      "time": 186.429,
      "duration": 0.089,
      "velocity": 1,
      "hand": "right"
    },
    {
      "midi": 78,
      "time": 186.518,
      "duration": 0.089,
      "velocity": 1,
      "hand": "right"
    },
    {
      "midi": 54,
      "time": 186.607,
      "duration": 0.089,
      "velocity": 1,
      "hand": "left"
    },
    {
      "midi": 72,
      "time": 186.607,
      "duration": 0.089,
      "velocity": 1,
      "hand": "right"
    },
    {
      "midi": 49,
      "time": 186.696,
      "duration": 0.089,
      "velocity": 1,
      "hand": "left"
    },
    {
      "midi": 73,
      "time": 186.696,
      "duration": 0.089,
      "velocity": 1,
      "hand": "right"
    },
    {
      "midi": 45,
      "time": 186.786,
      "duration": 0.089,
      "velocity": 1,
      "hand": "left"
    },
    {
      "midi": 65,
      "time": 186.786,
      "duration": 0.089,
      "velocity": 1,
      "hand": "right"
    },
    {
      "midi": 77,
      "time": 186.875,
      "duration": 0.089,
      "velocity": 1,
      "hand": "right"
    },
    {
      "midi": 49,
      "time": 186.964,
      "duration": 0.089,
      "velocity": 1,
      "hand": "left"
    },
    {
      "midi": 72,
      "time": 186.964,
      "duration": 0.089,
      "velocity": 1,
      "hand": "right"
    },
    {
      "midi": 54,
      "time": 187.054,
      "duration": 0.089,
      "velocity": 1,
      "hand": "left"
    },
    {
      "midi": 73,
      "time": 187.054,
      "duration": 0.089,
      "velocity": 1,
      "hand": "right"
    },
    {
      "midi": 57,
      "time": 187.143,
      "duration": 0.089,
      "velocity": 1,
      "hand": "left"
    },
    {
      "midi": 66,
      "time": 187.143,
      "duration": 0.089,
      "velocity": 1,
      "hand": "right"
    },
    {
      "midi": 78,
      "time": 187.232,
      "duration": 0.089,
      "velocity": 1,
      "hand": "right"
    },
    {
      "midi": 54,
      "time": 187.321,
      "duration": 0.089,
      "velocity": 1,
      "hand": "left"
    },
    {
      "midi": 72,
      "time": 187.321,
      "duration": 0.089,
      "velocity": 1,
      "hand": "right"
    },
    {
      "midi": 49,
      "time": 187.411,
      "duration": 0.089,
      "velocity": 1,
      "hand": "left"
    },
    {
      "midi": 73,
      "time": 187.411,
      "duration": 0.089,
      "velocity": 1,
      "hand": "right"
    },
    {
      "midi": 47,
      "time": 187.5,
      "duration": 0.089,
      "velocity": 1,
      "hand": "left"
    },
    {
      "midi": 65,
      "time": 187.5,
      "duration": 0.089,
      "velocity": 1,
      "hand": "right"
    },
    {
      "midi": 77,
      "time": 187.589,
      "duration": 0.089,
      "velocity": 1,
      "hand": "right"
    },
    {
      "midi": 54,
      "time": 187.679,
      "duration": 0.089,
      "velocity": 1,
      "hand": "left"
    },
    {
      "midi": 71,
      "time": 187.679,
      "duration": 0.089,
      "velocity": 1,
      "hand": "right"
    },
    {
      "midi": 57,
      "time": 187.768,
      "duration": 0.089,
      "velocity": 1,
      "hand": "left"
    },
    {
      "midi": 75,
      "time": 187.768,
      "duration": 0.089,
      "velocity": 1,
      "hand": "right"
    },
    {
      "midi": 59,
      "time": 187.857,
      "duration": 0.089,
      "velocity": 1,
      "hand": "left"
    },
    {
      "midi": 66,
      "time": 187.857,
      "duration": 0.089,
      "velocity": 1,
      "hand": "right"
    },
    {
      "midi": 78,
      "time": 187.946,
      "duration": 0.089,
      "velocity": 1,
      "hand": "right"
    },
    {
      "midi": 57,
      "time": 188.036,
      "duration": 0.089,
      "velocity": 1,
      "hand": "left"
    },
    {
      "midi": 71,
      "time": 188.036,
      "duration": 0.089,
      "velocity": 1,
      "hand": "right"
    },
    {
      "midi": 54,
      "time": 188.125,
      "duration": 0.089,
      "velocity": 1,
      "hand": "left"
    },
    {
      "midi": 75,
      "time": 188.125,
      "duration": 0.089,
      "velocity": 1,
      "hand": "right"
    },
    {
      "midi": 40,
      "time": 188.214,
      "duration": 0.089,
      "velocity": 1,
      "hand": "left"
    },
    {
      "midi": 69,
      "time": 188.214,
      "duration": 0.089,
      "velocity": 1,
      "hand": "right"
    },
    {
      "midi": 81,
      "time": 188.304,
      "duration": 0.089,
      "velocity": 1,
      "hand": "right"
    },
    {
      "midi": 47,
      "time": 188.393,
      "duration": 0.089,
      "velocity": 1,
      "hand": "left"
    },
    {
      "midi": 71,
      "time": 188.393,
      "duration": 0.089,
      "velocity": 1,
      "hand": "right"
    },
    {
      "midi": 52,
      "time": 188.482,
      "duration": 0.089,
      "velocity": 1,
      "hand": "left"
    },
    {
      "midi": 76,
      "time": 188.482,
      "duration": 0.089,
      "velocity": 1,
      "hand": "right"
    },
    {
      "midi": 56,
      "time": 188.571,
      "duration": 0.089,
      "velocity": 1,
      "hand": "left"
    },
    {
      "midi": 68,
      "time": 188.571,
      "duration": 0.089,
      "velocity": 1,
      "hand": "right"
    },
    {
      "midi": 80,
      "time": 188.661,
      "duration": 0.089,
      "velocity": 1,
      "hand": "right"
    },
    {
      "midi": 52,
      "time": 188.75,
      "duration": 0.089,
      "velocity": 1,
      "hand": "left"
    },
    {
      "midi": 71,
      "time": 188.75,
      "duration": 0.089,
      "velocity": 1,
      "hand": "right"
    },
    {
      "midi": 47,
      "time": 188.839,
      "duration": 0.089,
      "velocity": 1,
      "hand": "left"
    },
    {
      "midi": 76,
      "time": 188.839,
      "duration": 0.089,
      "velocity": 1,
      "hand": "right"
    },
    {
      "midi": 45,
      "time": 188.929,
      "duration": 0.089,
      "velocity": 1,
      "hand": "left"
    },
    {
      "midi": 68,
      "time": 188.929,
      "duration": 0.089,
      "velocity": 1,
      "hand": "right"
    },
    {
      "midi": 80,
      "time": 189.018,
      "duration": 0.089,
      "velocity": 1,
      "hand": "right"
    },
    {
      "midi": 49,
      "time": 189.107,
      "duration": 0.089,
      "velocity": 1,
      "hand": "left"
    },
    {
      "midi": 72,
      "time": 189.107,
      "duration": 0.089,
      "velocity": 1,
      "hand": "right"
    },
    {
      "midi": 54,
      "time": 189.196,
      "duration": 0.089,
      "velocity": 1,
      "hand": "left"
    },
    {
      "midi": 73,
      "time": 189.196,
      "duration": 0.089,
      "velocity": 1,
      "hand": "right"
    },
    {
      "midi": 57,
      "time": 189.286,
      "duration": 0.089,
      "velocity": 1,
      "hand": "left"
    },
    {
      "midi": 66,
      "time": 189.286,
      "duration": 0.089,
      "velocity": 1,
      "hand": "right"
    },
    {
      "midi": 78,
      "time": 189.375,
      "duration": 0.089,
      "velocity": 1,
      "hand": "right"
    },
    {
      "midi": 54,
      "time": 189.464,
      "duration": 0.089,
      "velocity": 1,
      "hand": "left"
    },
    {
      "midi": 72,
      "time": 189.464,
      "duration": 0.089,
      "velocity": 1,
      "hand": "right"
    },
    {
      "midi": 49,
      "time": 189.554,
      "duration": 0.089,
      "velocity": 1,
      "hand": "left"
    },
    {
      "midi": 73,
      "time": 189.554,
      "duration": 0.089,
      "velocity": 1,
      "hand": "right"
    },
    {
      "midi": 45,
      "time": 189.643,
      "duration": 0.089,
      "velocity": 1,
      "hand": "left"
    },
    {
      "midi": 65,
      "time": 189.643,
      "duration": 0.089,
      "velocity": 1,
      "hand": "right"
    },
    {
      "midi": 77,
      "time": 189.732,
      "duration": 0.089,
      "velocity": 1,
      "hand": "right"
    },
    {
      "midi": 49,
      "time": 189.821,
      "duration": 0.089,
      "velocity": 1,
      "hand": "left"
    },
    {
      "midi": 72,
      "time": 189.821,
      "duration": 0.089,
      "velocity": 1,
      "hand": "right"
    },
    {
      "midi": 54,
      "time": 189.911,
      "duration": 0.089,
      "velocity": 1,
      "hand": "left"
    },
    {
      "midi": 73,
      "time": 189.911,
      "duration": 0.089,
      "velocity": 1,
      "hand": "right"
    },
    {
      "midi": 57,
      "time": 190,
      "duration": 0.089,
      "velocity": 1,
      "hand": "left"
    },
    {
      "midi": 66,
      "time": 190,
      "duration": 0.089,
      "velocity": 1,
      "hand": "right"
    },
    {
      "midi": 78,
      "time": 190.089,
      "duration": 0.089,
      "velocity": 1,
      "hand": "right"
    },
    {
      "midi": 54,
      "time": 190.179,
      "duration": 0.089,
      "velocity": 1,
      "hand": "left"
    },
    {
      "midi": 72,
      "time": 190.179,
      "duration": 0.089,
      "velocity": 1,
      "hand": "right"
    },
    {
      "midi": 49,
      "time": 190.268,
      "duration": 0.089,
      "velocity": 1,
      "hand": "left"
    },
    {
      "midi": 73,
      "time": 190.268,
      "duration": 0.089,
      "velocity": 1,
      "hand": "right"
    },
    {
      "midi": 47,
      "time": 190.357,
      "duration": 0.089,
      "velocity": 1,
      "hand": "left"
    },
    {
      "midi": 61,
      "time": 190.357,
      "duration": 0.089,
      "velocity": 1,
      "hand": "right"
    },
    {
      "midi": 73,
      "time": 190.446,
      "duration": 0.089,
      "velocity": 1,
      "hand": "right"
    },
    {
      "midi": 54,
      "time": 190.536,
      "duration": 0.089,
      "velocity": 1,
      "hand": "left"
    },
    {
      "midi": 66,
      "time": 190.536,
      "duration": 0.089,
      "velocity": 1,
      "hand": "right"
    },
    {
      "midi": 57,
      "time": 190.625,
      "duration": 0.089,
      "velocity": 1,
      "hand": "left"
    },
    {
      "midi": 69,
      "time": 190.625,
      "duration": 0.089,
      "velocity": 1,
      "hand": "right"
    },
    {
      "midi": 59,
      "time": 190.714,
      "duration": 0.089,
      "velocity": 1,
      "hand": "left"
    },
    {
      "midi": 63,
      "time": 190.714,
      "duration": 0.089,
      "velocity": 1,
      "hand": "right"
    },
    {
      "midi": 75,
      "time": 190.804,
      "duration": 0.089,
      "velocity": 1,
      "hand": "right"
    },
    {
      "midi": 57,
      "time": 190.893,
      "duration": 0.089,
      "velocity": 1,
      "hand": "left"
    },
    {
      "midi": 66,
      "time": 190.893,
      "duration": 0.089,
      "velocity": 1,
      "hand": "right"
    },
    {
      "midi": 54,
      "time": 190.982,
      "duration": 0.089,
      "velocity": 1,
      "hand": "left"
    },
    {
      "midi": 69,
      "time": 190.982,
      "duration": 0.089,
      "velocity": 1,
      "hand": "right"
    },
    {
      "midi": 40,
      "time": 191.071,
      "duration": 0.089,
      "velocity": 1,
      "hand": "left"
    },
    {
      "midi": 64,
      "time": 191.071,
      "duration": 0.089,
      "velocity": 1,
      "hand": "right"
    },
    {
      "midi": 76,
      "time": 191.161,
      "duration": 0.089,
      "velocity": 1,
      "hand": "right"
    },
    {
      "midi": 47,
      "time": 191.25,
      "duration": 0.089,
      "velocity": 1,
      "hand": "left"
    },
    {
      "midi": 68,
      "time": 191.25,
      "duration": 0.089,
      "velocity": 1,
      "hand": "right"
    },
    {
      "midi": 52,
      "time": 191.339,
      "duration": 0.089,
      "velocity": 1,
      "hand": "left"
    },
    {
      "midi": 71,
      "time": 191.339,
      "duration": 0.089,
      "velocity": 1,
      "hand": "right"
    },
    {
      "midi": 56,
      "time": 191.429,
      "duration": 0.089,
      "velocity": 1,
      "hand": "left"
    },
    {
      "midi": 68,
      "time": 191.429,
      "duration": 0.089,
      "velocity": 1,
      "hand": "right"
    },
    {
      "midi": 80,
      "time": 191.518,
      "duration": 0.089,
      "velocity": 1,
      "hand": "right"
    },
    {
      "midi": 52,
      "time": 191.607,
      "duration": 0.089,
      "velocity": 1,
      "hand": "left"
    },
    {
      "midi": 71,
      "time": 191.607,
      "duration": 0.089,
      "velocity": 1,
      "hand": "right"
    },
    {
      "midi": 47,
      "time": 191.696,
      "duration": 0.089,
      "velocity": 1,
      "hand": "left"
    },
    {
      "midi": 76,
      "time": 191.696,
      "duration": 0.089,
      "velocity": 1,
      "hand": "right"
    },
    {
      "midi": 45,
      "time": 191.786,
      "duration": 0.089,
      "velocity": 1,
      "hand": "left"
    },
    {
      "midi": 68,
      "time": 191.786,
      "duration": 0.089,
      "velocity": 1,
      "hand": "right"
    },
    {
      "midi": 80,
      "time": 191.875,
      "duration": 0.089,
      "velocity": 1,
      "hand": "right"
    },
    {
      "midi": 49,
      "time": 191.964,
      "duration": 0.089,
      "velocity": 1,
      "hand": "left"
    },
    {
      "midi": 72,
      "time": 191.964,
      "duration": 0.089,
      "velocity": 1,
      "hand": "right"
    },
    {
      "midi": 54,
      "time": 192.054,
      "duration": 0.089,
      "velocity": 1,
      "hand": "left"
    },
    {
      "midi": 73,
      "time": 192.054,
      "duration": 0.089,
      "velocity": 1,
      "hand": "right"
    },
    {
      "midi": 57,
      "time": 192.143,
      "duration": 0.089,
      "velocity": 1,
      "hand": "left"
    },
    {
      "midi": 66,
      "time": 192.143,
      "duration": 0.089,
      "velocity": 1,
      "hand": "right"
    },
    {
      "midi": 78,
      "time": 192.232,
      "duration": 0.089,
      "velocity": 1,
      "hand": "right"
    },
    {
      "midi": 54,
      "time": 192.321,
      "duration": 0.089,
      "velocity": 1,
      "hand": "left"
    },
    {
      "midi": 72,
      "time": 192.321,
      "duration": 0.089,
      "velocity": 1,
      "hand": "right"
    },
    {
      "midi": 49,
      "time": 192.411,
      "duration": 0.089,
      "velocity": 1,
      "hand": "left"
    },
    {
      "midi": 73,
      "time": 192.411,
      "duration": 0.089,
      "velocity": 1,
      "hand": "right"
    },
    {
      "midi": 45,
      "time": 192.5,
      "duration": 0.089,
      "velocity": 1,
      "hand": "left"
    },
    {
      "midi": 75,
      "time": 192.5,
      "duration": 0.089,
      "velocity": 1,
      "hand": "right"
    },
    {
      "midi": 87,
      "time": 192.589,
      "duration": 0.089,
      "velocity": 1,
      "hand": "right"
    },
    {
      "midi": 51,
      "time": 192.679,
      "duration": 0.089,
      "velocity": 1,
      "hand": "left"
    },
    {
      "midi": 78,
      "time": 192.679,
      "duration": 0.089,
      "velocity": 1,
      "hand": "right"
    },
    {
      "midi": 54,
      "time": 192.768,
      "duration": 0.089,
      "velocity": 1,
      "hand": "left"
    },
    {
      "midi": 81,
      "time": 192.768,
      "duration": 0.089,
      "velocity": 1,
      "hand": "right"
    },
    {
      "midi": 57,
      "time": 192.857,
      "duration": 0.089,
      "velocity": 1,
      "hand": "left"
    },
    {
      "midi": 73,
      "time": 192.857,
      "duration": 0.089,
      "velocity": 1,
      "hand": "right"
    },
    {
      "midi": 85,
      "time": 192.946,
      "duration": 0.089,
      "velocity": 1,
      "hand": "right"
    },
    {
      "midi": 54,
      "time": 193.036,
      "duration": 0.089,
      "velocity": 1,
      "hand": "left"
    },
    {
      "midi": 78,
      "time": 193.036,
      "duration": 0.089,
      "velocity": 1,
      "hand": "right"
    },
    {
      "midi": 51,
      "time": 193.125,
      "duration": 0.089,
      "velocity": 1,
      "hand": "left"
    },
    {
      "midi": 81,
      "time": 193.125,
      "duration": 0.089,
      "velocity": 1,
      "hand": "right"
    },
    {
      "midi": 44,
      "time": 193.214,
      "duration": 0.089,
      "velocity": 1,
      "hand": "left"
    },
    {
      "midi": 73,
      "time": 193.214,
      "duration": 0.089,
      "velocity": 1,
      "hand": "right"
    },
    {
      "midi": 85,
      "time": 193.304,
      "duration": 0.089,
      "velocity": 1,
      "hand": "right"
    },
    {
      "midi": 51,
      "time": 193.393,
      "duration": 0.089,
      "velocity": 1,
      "hand": "left"
    },
    {
      "midi": 75,
      "time": 193.393,
      "duration": 0.089,
      "velocity": 1,
      "hand": "right"
    },
    {
      "midi": 54,
      "time": 193.482,
      "duration": 0.089,
      "velocity": 1,
      "hand": "left"
    },
    {
      "midi": 78,
      "time": 193.482,
      "duration": 0.089,
      "velocity": 1,
      "hand": "right"
    },
    {
      "midi": 60,
      "time": 193.571,
      "duration": 0.089,
      "velocity": 1,
      "hand": "right"
    },
    {
      "midi": 72,
      "time": 193.571,
      "duration": 0.089,
      "velocity": 1,
      "hand": "right"
    },
    {
      "midi": 84,
      "time": 193.661,
      "duration": 0.089,
      "velocity": 1,
      "hand": "right"
    },
    {
      "midi": 54,
      "time": 193.75,
      "duration": 0.089,
      "velocity": 1,
      "hand": "left"
    },
    {
      "midi": 75,
      "time": 193.75,
      "duration": 0.089,
      "velocity": 1,
      "hand": "right"
    },
    {
      "midi": 51,
      "time": 193.839,
      "duration": 0.089,
      "velocity": 1,
      "hand": "left"
    },
    {
      "midi": 78,
      "time": 193.839,
      "duration": 0.089,
      "velocity": 1,
      "hand": "right"
    },
    {
      "midi": 44,
      "time": 193.929,
      "duration": 0.089,
      "velocity": 1,
      "hand": "left"
    },
    {
      "midi": 72,
      "time": 193.929,
      "duration": 0.089,
      "velocity": 1,
      "hand": "right"
    },
    {
      "midi": 84,
      "time": 194.018,
      "duration": 0.089,
      "velocity": 1,
      "hand": "right"
    },
    {
      "midi": 51,
      "time": 194.107,
      "duration": 0.089,
      "velocity": 1,
      "hand": "left"
    },
    {
      "midi": 75,
      "time": 194.107,
      "duration": 0.089,
      "velocity": 1,
      "hand": "right"
    },
    {
      "midi": 54,
      "time": 194.196,
      "duration": 0.089,
      "velocity": 1,
      "hand": "left"
    },
    {
      "midi": 78,
      "time": 194.196,
      "duration": 0.089,
      "velocity": 1,
      "hand": "right"
    },
    {
      "midi": 60,
      "time": 194.286,
      "duration": 0.089,
      "velocity": 1,
      "hand": "right"
    },
    {
      "midi": 72,
      "time": 194.286,
      "duration": 0.089,
      "velocity": 1,
      "hand": "right"
    },
    {
      "midi": 84,
      "time": 194.375,
      "duration": 0.089,
      "velocity": 1,
      "hand": "right"
    },
    {
      "midi": 54,
      "time": 194.464,
      "duration": 0.089,
      "velocity": 1,
      "hand": "left"
    },
    {
      "midi": 75,
      "time": 194.464,
      "duration": 0.089,
      "velocity": 1,
      "hand": "right"
    },
    {
      "midi": 51,
      "time": 194.554,
      "duration": 0.089,
      "velocity": 1,
      "hand": "left"
    },
    {
      "midi": 78,
      "time": 194.554,
      "duration": 0.089,
      "velocity": 1,
      "hand": "right"
    },
    {
      "midi": 45,
      "time": 194.643,
      "duration": 0.089,
      "velocity": 1,
      "hand": "left"
    },
    {
      "midi": 72,
      "time": 194.643,
      "duration": 0.089,
      "velocity": 1,
      "hand": "right"
    },
    {
      "midi": 84,
      "time": 194.732,
      "duration": 0.089,
      "velocity": 1,
      "hand": "right"
    },
    {
      "midi": 51,
      "time": 194.821,
      "duration": 0.089,
      "velocity": 1,
      "hand": "left"
    },
    {
      "midi": 75,
      "time": 194.821,
      "duration": 0.089,
      "velocity": 1,
      "hand": "right"
    },
    {
      "midi": 54,
      "time": 194.911,
      "duration": 0.089,
      "velocity": 1,
      "hand": "left"
    },
    {
      "midi": 78,
      "time": 194.911,
      "duration": 0.089,
      "velocity": 1,
      "hand": "right"
    },
    {
      "midi": 59,
      "time": 195,
      "duration": 0.089,
      "velocity": 1,
      "hand": "left"
    },
    {
      "midi": 71,
      "time": 195,
      "duration": 0.089,
      "velocity": 1,
      "hand": "right"
    },
    {
      "midi": 83,
      "time": 195.089,
      "duration": 0.089,
      "velocity": 1,
      "hand": "right"
    },
    {
      "midi": 54,
      "time": 195.179,
      "duration": 0.089,
      "velocity": 1,
      "hand": "left"
    },
    {
      "midi": 75,
      "time": 195.179,
      "duration": 0.089,
      "velocity": 1,
      "hand": "right"
    },
    {
      "midi": 51,
      "time": 195.268,
      "duration": 0.089,
      "velocity": 1,
      "hand": "left"
    },
    {
      "midi": 78,
      "time": 195.268,
      "duration": 0.089,
      "velocity": 1,
      "hand": "right"
    },
    {
      "midi": 46,
      "time": 195.357,
      "duration": 0.089,
      "velocity": 1,
      "hand": "left"
    },
    {
      "midi": 71,
      "time": 195.357,
      "duration": 0.089,
      "velocity": 1,
      "hand": "right"
    },
    {
      "midi": 83,
      "time": 195.446,
      "duration": 0.089,
      "velocity": 1,
      "hand": "right"
    },
    {
      "midi": 51,
      "time": 195.536,
      "duration": 0.089,
      "velocity": 1,
      "hand": "left"
    },
    {
      "midi": 75,
      "time": 195.536,
      "duration": 0.089,
      "velocity": 1,
      "hand": "right"
    },
    {
      "midi": 54,
      "time": 195.625,
      "duration": 0.089,
      "velocity": 1,
      "hand": "left"
    },
    {
      "midi": 78,
      "time": 195.625,
      "duration": 0.089,
      "velocity": 1,
      "hand": "right"
    },
    {
      "midi": 58,
      "time": 195.714,
      "duration": 0.089,
      "velocity": 1,
      "hand": "left"
    },
    {
      "midi": 70,
      "time": 195.714,
      "duration": 0.089,
      "velocity": 1,
      "hand": "right"
    },
    {
      "midi": 82,
      "time": 195.804,
      "duration": 0.089,
      "velocity": 1,
      "hand": "right"
    },
    {
      "midi": 54,
      "time": 195.893,
      "duration": 0.089,
      "velocity": 1,
      "hand": "left"
    },
    {
      "midi": 75,
      "time": 195.893,
      "duration": 0.089,
      "velocity": 1,
      "hand": "right"
    },
    {
      "midi": 51,
      "time": 195.982,
      "duration": 0.089,
      "velocity": 1,
      "hand": "left"
    },
    {
      "midi": 78,
      "time": 195.982,
      "duration": 0.089,
      "velocity": 1,
      "hand": "right"
    },
    {
      "midi": 48,
      "time": 196.071,
      "duration": 0.089,
      "velocity": 1,
      "hand": "left"
    },
    {
      "midi": 70,
      "time": 196.071,
      "duration": 0.089,
      "velocity": 1,
      "hand": "right"
    },
    {
      "midi": 82,
      "time": 196.161,
      "duration": 0.089,
      "velocity": 1,
      "hand": "right"
    },
    {
      "midi": 51,
      "time": 196.25,
      "duration": 0.089,
      "velocity": 1,
      "hand": "left"
    },
    {
      "midi": 75,
      "time": 196.25,
      "duration": 0.089,
      "velocity": 1,
      "hand": "right"
    },
    {
      "midi": 54,
      "time": 196.339,
      "duration": 0.089,
      "velocity": 1,
      "hand": "left"
    },
    {
      "midi": 78,
      "time": 196.339,
      "duration": 0.089,
      "velocity": 1,
      "hand": "right"
    },
    {
      "midi": 57,
      "time": 196.429,
      "duration": 0.089,
      "velocity": 1,
      "hand": "left"
    },
    {
      "midi": 69,
      "time": 196.429,
      "duration": 0.089,
      "velocity": 1,
      "hand": "right"
    },
    {
      "midi": 81,
      "time": 196.518,
      "duration": 0.089,
      "velocity": 1,
      "hand": "right"
    },
    {
      "midi": 54,
      "time": 196.607,
      "duration": 0.089,
      "velocity": 1,
      "hand": "left"
    },
    {
      "midi": 75,
      "time": 196.607,
      "duration": 0.089,
      "velocity": 1,
      "hand": "right"
    },
    {
      "midi": 51,
      "time": 196.696,
      "duration": 0.089,
      "velocity": 1,
      "hand": "left"
    },
    {
      "midi": 78,
      "time": 196.696,
      "duration": 0.089,
      "velocity": 1,
      "hand": "right"
    },
    {
      "midi": 48,
      "time": 196.786,
      "duration": 0.089,
      "velocity": 1,
      "hand": "left"
    },
    {
      "midi": 69,
      "time": 196.786,
      "duration": 0.089,
      "velocity": 1,
      "hand": "right"
    },
    {
      "midi": 81,
      "time": 196.875,
      "duration": 0.089,
      "velocity": 1,
      "hand": "right"
    },
    {
      "midi": 51,
      "time": 196.964,
      "duration": 0.089,
      "velocity": 1,
      "hand": "left"
    },
    {
      "midi": 75,
      "time": 196.964,
      "duration": 0.089,
      "velocity": 1,
      "hand": "right"
    },
    {
      "midi": 54,
      "time": 197.054,
      "duration": 0.089,
      "velocity": 1,
      "hand": "left"
    },
    {
      "midi": 78,
      "time": 197.054,
      "duration": 0.089,
      "velocity": 1,
      "hand": "right"
    },
    {
      "midi": 57,
      "time": 197.143,
      "duration": 0.089,
      "velocity": 1,
      "hand": "left"
    },
    {
      "midi": 69,
      "time": 197.143,
      "duration": 0.089,
      "velocity": 1,
      "hand": "right"
    },
    {
      "midi": 81,
      "time": 197.232,
      "duration": 0.089,
      "velocity": 1,
      "hand": "right"
    },
    {
      "midi": 54,
      "time": 197.321,
      "duration": 0.089,
      "velocity": 1,
      "hand": "left"
    },
    {
      "midi": 75,
      "time": 197.321,
      "duration": 0.089,
      "velocity": 1,
      "hand": "right"
    },
    {
      "midi": 51,
      "time": 197.411,
      "duration": 0.089,
      "velocity": 1,
      "hand": "left"
    },
    {
      "midi": 78,
      "time": 197.411,
      "duration": 0.089,
      "velocity": 1,
      "hand": "right"
    },
    {
      "midi": 45,
      "time": 197.5,
      "duration": 0.089,
      "velocity": 1,
      "hand": "left"
    },
    {
      "midi": 72,
      "time": 197.5,
      "duration": 0.089,
      "velocity": 1,
      "hand": "right"
    },
    {
      "midi": 84,
      "time": 197.589,
      "duration": 0.089,
      "velocity": 1,
      "hand": "right"
    },
    {
      "midi": 51,
      "time": 197.679,
      "duration": 0.089,
      "velocity": 1,
      "hand": "left"
    },
    {
      "midi": 75,
      "time": 197.679,
      "duration": 0.089,
      "velocity": 1,
      "hand": "right"
    },
    {
      "midi": 54,
      "time": 197.768,
      "duration": 0.089,
      "velocity": 1,
      "hand": "left"
    },
    {
      "midi": 78,
      "time": 197.768,
      "duration": 0.089,
      "velocity": 1,
      "hand": "right"
    },
    {
      "midi": 59,
      "time": 197.857,
      "duration": 0.089,
      "velocity": 1,
      "hand": "left"
    },
    {
      "midi": 71,
      "time": 197.857,
      "duration": 0.089,
      "velocity": 1,
      "hand": "right"
    },
    {
      "midi": 83,
      "time": 197.946,
      "duration": 0.089,
      "velocity": 1,
      "hand": "right"
    },
    {
      "midi": 54,
      "time": 198.036,
      "duration": 0.089,
      "velocity": 1,
      "hand": "left"
    },
    {
      "midi": 75,
      "time": 198.036,
      "duration": 0.089,
      "velocity": 1,
      "hand": "right"
    },
    {
      "midi": 51,
      "time": 198.125,
      "duration": 0.089,
      "velocity": 1,
      "hand": "left"
    },
    {
      "midi": 78,
      "time": 198.125,
      "duration": 0.089,
      "velocity": 1,
      "hand": "right"
    },
    {
      "midi": 46,
      "time": 198.214,
      "duration": 0.089,
      "velocity": 1,
      "hand": "left"
    },
    {
      "midi": 71,
      "time": 198.214,
      "duration": 0.089,
      "velocity": 1,
      "hand": "right"
    },
    {
      "midi": 83,
      "time": 198.304,
      "duration": 0.089,
      "velocity": 1,
      "hand": "right"
    },
    {
      "midi": 51,
      "time": 198.393,
      "duration": 0.089,
      "velocity": 1,
      "hand": "left"
    },
    {
      "midi": 75,
      "time": 198.393,
      "duration": 0.089,
      "velocity": 1,
      "hand": "right"
    },
    {
      "midi": 54,
      "time": 198.482,
      "duration": 0.089,
      "velocity": 1,
      "hand": "left"
    },
    {
      "midi": 78,
      "time": 198.482,
      "duration": 0.089,
      "velocity": 1,
      "hand": "right"
    },
    {
      "midi": 58,
      "time": 198.571,
      "duration": 0.089,
      "velocity": 1,
      "hand": "left"
    },
    {
      "midi": 70,
      "time": 198.571,
      "duration": 0.089,
      "velocity": 1,
      "hand": "right"
    },
    {
      "midi": 82,
      "time": 198.661,
      "duration": 0.089,
      "velocity": 1,
      "hand": "right"
    },
    {
      "midi": 54,
      "time": 198.75,
      "duration": 0.089,
      "velocity": 1,
      "hand": "left"
    },
    {
      "midi": 75,
      "time": 198.75,
      "duration": 0.089,
      "velocity": 1,
      "hand": "right"
    },
    {
      "midi": 51,
      "time": 198.839,
      "duration": 0.089,
      "velocity": 1,
      "hand": "left"
    },
    {
      "midi": 78,
      "time": 198.839,
      "duration": 0.089,
      "velocity": 1,
      "hand": "right"
    },
    {
      "midi": 47,
      "time": 198.929,
      "duration": 0.089,
      "velocity": 1,
      "hand": "left"
    },
    {
      "midi": 70,
      "time": 198.929,
      "duration": 0.089,
      "velocity": 1,
      "hand": "right"
    },
    {
      "midi": 82,
      "time": 199.018,
      "duration": 0.089,
      "velocity": 1,
      "hand": "right"
    },
    {
      "midi": 51,
      "time": 199.107,
      "duration": 0.089,
      "velocity": 1,
      "hand": "left"
    },
    {
      "midi": 75,
      "time": 199.107,
      "duration": 0.089,
      "velocity": 1,
      "hand": "right"
    },
    {
      "midi": 54,
      "time": 199.196,
      "duration": 0.089,
      "velocity": 1,
      "hand": "left"
    },
    {
      "midi": 78,
      "time": 199.196,
      "duration": 0.089,
      "velocity": 1,
      "hand": "right"
    },
    {
      "midi": 57,
      "time": 199.286,
      "duration": 0.089,
      "velocity": 1,
      "hand": "left"
    },
    {
      "midi": 69,
      "time": 199.286,
      "duration": 0.089,
      "velocity": 1,
      "hand": "right"
    },
    {
      "midi": 81,
      "time": 199.375,
      "duration": 0.089,
      "velocity": 1,
      "hand": "right"
    },
    {
      "midi": 54,
      "time": 199.464,
      "duration": 0.089,
      "velocity": 1,
      "hand": "left"
    },
    {
      "midi": 75,
      "time": 199.464,
      "duration": 0.089,
      "velocity": 1,
      "hand": "right"
    },
    {
      "midi": 51,
      "time": 199.554,
      "duration": 0.089,
      "velocity": 1,
      "hand": "left"
    },
    {
      "midi": 78,
      "time": 199.554,
      "duration": 0.089,
      "velocity": 1,
      "hand": "right"
    },
    {
      "midi": 48,
      "time": 199.643,
      "duration": 0.089,
      "velocity": 1,
      "hand": "left"
    },
    {
      "midi": 69,
      "time": 199.643,
      "duration": 0.089,
      "velocity": 1,
      "hand": "right"
    },
    {
      "midi": 81,
      "time": 199.732,
      "duration": 0.089,
      "velocity": 1,
      "hand": "right"
    },
    {
      "midi": 51,
      "time": 199.821,
      "duration": 0.089,
      "velocity": 1,
      "hand": "left"
    },
    {
      "midi": 75,
      "time": 199.821,
      "duration": 0.089,
      "velocity": 1,
      "hand": "right"
    },
    {
      "midi": 54,
      "time": 199.911,
      "duration": 0.089,
      "velocity": 1,
      "hand": "left"
    },
    {
      "midi": 78,
      "time": 199.911,
      "duration": 0.089,
      "velocity": 1,
      "hand": "right"
    },
    {
      "midi": 56,
      "time": 200,
      "duration": 0.089,
      "velocity": 1,
      "hand": "left"
    },
    {
      "midi": 68,
      "time": 200,
      "duration": 0.089,
      "velocity": 1,
      "hand": "right"
    },
    {
      "midi": 80,
      "time": 200.089,
      "duration": 0.089,
      "velocity": 1,
      "hand": "right"
    },
    {
      "midi": 54,
      "time": 200.179,
      "duration": 0.089,
      "velocity": 1,
      "hand": "left"
    },
    {
      "midi": 75,
      "time": 200.179,
      "duration": 0.089,
      "velocity": 1,
      "hand": "right"
    },
    {
      "midi": 51,
      "time": 200.268,
      "duration": 0.089,
      "velocity": 1,
      "hand": "left"
    },
    {
      "midi": 78,
      "time": 200.268,
      "duration": 0.089,
      "velocity": 1,
      "hand": "right"
    },
    {
      "midi": 49,
      "time": 200.357,
      "duration": 0.089,
      "velocity": 1,
      "hand": "left"
    },
    {
      "midi": 68,
      "time": 200.446,
      "duration": 0.089,
      "velocity": 1,
      "hand": "right"
    },
    {
      "midi": 56,
      "time": 200.536,
      "duration": 0.089,
      "velocity": 1,
      "hand": "left"
    },
    {
      "midi": 69,
      "time": 200.536,
      "duration": 0.089,
      "velocity": 1,
      "hand": "right"
    },
    {
      "midi": 61,
      "time": 200.625,
      "duration": 0.089,
      "velocity": 1,
      "hand": "right"
    },
    {
      "midi": 68,
      "time": 200.625,
      "duration": 0.089,
      "velocity": 1,
      "hand": "right"
    },
    {
      "midi": 64,
      "time": 200.714,
      "duration": 0.089,
      "velocity": 1,
      "hand": "right"
    },
    {
      "midi": 67,
      "time": 200.714,
      "duration": 0.089,
      "velocity": 1,
      "hand": "right"
    },
    {
      "midi": 68,
      "time": 200.804,
      "duration": 0.089,
      "velocity": 1,
      "hand": "right"
    },
    {
      "midi": 61,
      "time": 200.893,
      "duration": 0.089,
      "velocity": 1,
      "hand": "right"
    },
    {
      "midi": 73,
      "time": 200.893,
      "duration": 0.089,
      "velocity": 1,
      "hand": "right"
    },
    {
      "midi": 56,
      "time": 200.982,
      "duration": 0.089,
      "velocity": 1,
      "hand": "left"
    },
    {
      "midi": 76,
      "time": 200.982,
      "duration": 0.089,
      "velocity": 1,
      "hand": "right"
    },
    {
      "midi": 52,
      "time": 201.071,
      "duration": 0.089,
      "velocity": 1,
      "hand": "left"
    },
    {
      "midi": 75,
      "time": 201.071,
      "duration": 0.089,
      "velocity": 1,
      "hand": "right"
    },
    {
      "midi": 73,
      "time": 201.161,
      "duration": 0.089,
      "velocity": 1,
      "hand": "right"
    },
    {
      "midi": 56,
      "time": 201.25,
      "duration": 0.089,
      "velocity": 1,
      "hand": "left"
    },
    {
      "midi": 75,
      "time": 201.25,
      "duration": 0.089,
      "velocity": 1,
      "hand": "right"
    },
    {
      "midi": 61,
      "time": 201.339,
      "duration": 0.089,
      "velocity": 1,
      "hand": "right"
    },
    {
      "midi": 73,
      "time": 201.339,
      "duration": 0.089,
      "velocity": 1,
      "hand": "right"
    },
    {
      "midi": 64,
      "time": 201.429,
      "duration": 0.089,
      "velocity": 1,
      "hand": "right"
    },
    {
      "midi": 72,
      "time": 201.429,
      "duration": 0.089,
      "velocity": 1,
      "hand": "right"
    },
    {
      "midi": 73,
      "time": 201.518,
      "duration": 0.089,
      "velocity": 1,
      "hand": "right"
    },
    {
      "midi": 61,
      "time": 201.607,
      "duration": 0.089,
      "velocity": 1,
      "hand": "right"
    },
    {
      "midi": 76,
      "time": 201.607,
      "duration": 0.089,
      "velocity": 1,
      "hand": "right"
    },
    {
      "midi": 56,
      "time": 201.696,
      "duration": 0.089,
      "velocity": 1,
      "hand": "left"
    },
    {
      "midi": 80,
      "time": 201.696,
      "duration": 0.089,
      "velocity": 1,
      "hand": "right"
    },
    {
      "midi": 49,
      "time": 201.786,
      "duration": 0.089,
      "velocity": 1,
      "hand": "left"
    },
    {
      "midi": 68,
      "time": 201.875,
      "duration": 0.089,
      "velocity": 1,
      "hand": "right"
    },
    {
      "midi": 56,
      "time": 201.964,
      "duration": 0.089,
      "velocity": 1,
      "hand": "left"
    },
    {
      "midi": 69,
      "time": 201.964,
      "duration": 0.089,
      "velocity": 1,
      "hand": "right"
    },
    {
      "midi": 61,
      "time": 202.054,
      "duration": 0.089,
      "velocity": 1,
      "hand": "right"
    },
    {
      "midi": 68,
      "time": 202.054,
      "duration": 0.089,
      "velocity": 1,
      "hand": "right"
    },
    {
      "midi": 64,
      "time": 202.143,
      "duration": 0.089,
      "velocity": 1,
      "hand": "right"
    },
    {
      "midi": 67,
      "time": 202.143,
      "duration": 0.089,
      "velocity": 1,
      "hand": "right"
    },
    {
      "midi": 68,
      "time": 202.232,
      "duration": 0.089,
      "velocity": 1,
      "hand": "right"
    },
    {
      "midi": 61,
      "time": 202.321,
      "duration": 0.089,
      "velocity": 1,
      "hand": "right"
    },
    {
      "midi": 73,
      "time": 202.321,
      "duration": 0.089,
      "velocity": 1,
      "hand": "right"
    },
    {
      "midi": 56,
      "time": 202.411,
      "duration": 0.089,
      "velocity": 1,
      "hand": "left"
    },
    {
      "midi": 76,
      "time": 202.411,
      "duration": 0.089,
      "velocity": 1,
      "hand": "right"
    },
    {
      "midi": 52,
      "time": 202.5,
      "duration": 0.089,
      "velocity": 1,
      "hand": "left"
    },
    {
      "midi": 75,
      "time": 202.5,
      "duration": 0.089,
      "velocity": 1,
      "hand": "right"
    },
    {
      "midi": 73,
      "time": 202.589,
      "duration": 0.089,
      "velocity": 1,
      "hand": "right"
    },
    {
      "midi": 56,
      "time": 202.679,
      "duration": 0.089,
      "velocity": 1,
      "hand": "left"
    },
    {
      "midi": 75,
      "time": 202.679,
      "duration": 0.089,
      "velocity": 1,
      "hand": "right"
    },
    {
      "midi": 61,
      "time": 202.768,
      "duration": 0.089,
      "velocity": 1,
      "hand": "right"
    },
    {
      "midi": 73,
      "time": 202.768,
      "duration": 0.089,
      "velocity": 1,
      "hand": "right"
    },
    {
      "midi": 64,
      "time": 202.857,
      "duration": 0.089,
      "velocity": 1,
      "hand": "right"
    },
    {
      "midi": 72,
      "time": 202.857,
      "duration": 0.089,
      "velocity": 1,
      "hand": "right"
    },
    {
      "midi": 73,
      "time": 202.946,
      "duration": 0.089,
      "velocity": 1,
      "hand": "right"
    },
    {
      "midi": 61,
      "time": 203.036,
      "duration": 0.089,
      "velocity": 1,
      "hand": "right"
    },
    {
      "midi": 76,
      "time": 203.036,
      "duration": 0.089,
      "velocity": 1,
      "hand": "right"
    },
    {
      "midi": 56,
      "time": 203.125,
      "duration": 0.089,
      "velocity": 1,
      "hand": "left"
    },
    {
      "midi": 80,
      "time": 203.125,
      "duration": 0.089,
      "velocity": 1,
      "hand": "right"
    },
    {
      "midi": 51,
      "time": 203.214,
      "duration": 0.089,
      "velocity": 1,
      "hand": "left"
    },
    {
      "midi": 69,
      "time": 203.304,
      "duration": 0.089,
      "velocity": 1,
      "hand": "right"
    },
    {
      "midi": 57,
      "time": 203.393,
      "duration": 0.089,
      "velocity": 1,
      "hand": "left"
    },
    {
      "midi": 73,
      "time": 203.393,
      "duration": 0.089,
      "velocity": 1,
      "hand": "right"
    },
    {
      "midi": 61,
      "time": 203.482,
      "duration": 0.089,
      "velocity": 1,
      "hand": "right"
    },
    {
      "midi": 75,
      "time": 203.482,
      "duration": 0.089,
      "velocity": 1,
      "hand": "right"
    },
    {
      "midi": 66,
      "time": 203.571,
      "duration": 0.089,
      "velocity": 1,
      "hand": "right"
    },
    {
      "midi": 78,
      "time": 203.571,
      "duration": 0.089,
      "velocity": 1,
      "hand": "right"
    },
    {
      "midi": 81,
      "time": 203.661,
      "duration": 0.089,
      "velocity": 1,
      "hand": "right"
    },
    {
      "midi": 61,
      "time": 203.75,
      "duration": 0.089,
      "velocity": 1,
      "hand": "right"
    },
    {
      "midi": 85,
      "time": 203.75,
      "duration": 0.089,
      "velocity": 1,
      "hand": "right"
    },
    {
      "midi": 57,
      "time": 203.839,
      "duration": 0.089,
      "velocity": 1,
      "hand": "left"
    },
    {
      "midi": 87,
      "time": 203.839,
      "duration": 0.089,
      "velocity": 1,
      "hand": "right"
    },
    {
      "midi": 54,
      "time": 203.929,
      "duration": 0.089,
      "velocity": 1,
      "hand": "left"
    },
    {
      "midi": 95,
      "time": 203.929,
      "duration": 0.089,
      "velocity": 1,
      "hand": "right"
    },
    {
      "midi": 93,
      "time": 204.018,
      "duration": 0.089,
      "velocity": 1,
      "hand": "right"
    },
    {
      "midi": 61,
      "time": 204.107,
      "duration": 0.089,
      "velocity": 1,
      "hand": "right"
    },
    {
      "midi": 92,
      "time": 204.107,
      "duration": 0.089,
      "velocity": 1,
      "hand": "right"
    },
    {
      "midi": 63,
      "time": 204.196,
      "duration": 0.089,
      "velocity": 1,
      "hand": "right"
    },
    {
      "midi": 90,
      "time": 204.196,
      "duration": 0.089,
      "velocity": 1,
      "hand": "right"
    },
    {
      "midi": 69,
      "time": 204.286,
      "duration": 0.089,
      "velocity": 1,
      "hand": "right"
    },
    {
      "midi": 88,
      "time": 204.286,
      "duration": 0.089,
      "velocity": 1,
      "hand": "right"
    },
    {
      "midi": 87,
      "time": 204.375,
      "duration": 0.089,
      "velocity": 1,
      "hand": "right"
    },
    {
      "midi": 63,
      "time": 204.464,
      "duration": 0.089,
      "velocity": 1,
      "hand": "right"
    },
    {
      "midi": 90,
      "time": 204.464,
      "duration": 0.089,
      "velocity": 1,
      "hand": "right"
    },
    {
      "midi": 61,
      "time": 204.554,
      "duration": 0.089,
      "velocity": 1,
      "hand": "right"
    },
    {
      "midi": 85,
      "time": 204.554,
      "duration": 0.089,
      "velocity": 1,
      "hand": "right"
    },
    {
      "midi": 44,
      "time": 204.643,
      "duration": 0.089,
      "velocity": 1,
      "hand": "left"
    },
    {
      "midi": 84,
      "time": 204.643,
      "duration": 0.089,
      "velocity": 1,
      "hand": "right"
    },
    {
      "midi": 87,
      "time": 204.732,
      "duration": 0.089,
      "velocity": 1,
      "hand": "right"
    },
    {
      "midi": 51,
      "time": 204.821,
      "duration": 0.089,
      "velocity": 1,
      "hand": "left"
    },
    {
      "midi": 81,
      "time": 204.821,
      "duration": 0.089,
      "velocity": 1,
      "hand": "right"
    },
    {
      "midi": 54,
      "time": 204.911,
      "duration": 0.089,
      "velocity": 1,
      "hand": "left"
    },
    {
      "midi": 80,
      "time": 204.911,
      "duration": 0.089,
      "velocity": 1,
      "hand": "right"
    },
    {
      "midi": 60,
      "time": 205,
      "duration": 0.089,
      "velocity": 1,
      "hand": "right"
    },
    {
      "midi": 78,
      "time": 205,
      "duration": 0.089,
      "velocity": 1,
      "hand": "right"
    },
    {
      "midi": 81,
      "time": 205.089,
      "duration": 0.089,
      "velocity": 1,
      "hand": "right"
    },
    {
      "midi": 54,
      "time": 205.179,
      "duration": 0.089,
      "velocity": 1,
      "hand": "left"
    },
    {
      "midi": 76,
      "time": 205.179,
      "duration": 0.089,
      "velocity": 1,
      "hand": "right"
    },
    {
      "midi": 51,
      "time": 205.268,
      "duration": 0.089,
      "velocity": 1,
      "hand": "left"
    },
    {
      "midi": 75,
      "time": 205.268,
      "duration": 0.089,
      "velocity": 1,
      "hand": "right"
    },
    {
      "midi": 44,
      "time": 205.357,
      "duration": 0.089,
      "velocity": 1,
      "hand": "left"
    },
    {
      "midi": 78,
      "time": 205.357,
      "duration": 0.089,
      "velocity": 1,
      "hand": "right"
    },
    {
      "midi": 73,
      "time": 205.446,
      "duration": 0.089,
      "velocity": 1,
      "hand": "right"
    },
    {
      "midi": 51,
      "time": 205.536,
      "duration": 0.089,
      "velocity": 1,
      "hand": "left"
    },
    {
      "midi": 72,
      "time": 205.536,
      "duration": 0.089,
      "velocity": 1,
      "hand": "right"
    },
    {
      "midi": 54,
      "time": 205.625,
      "duration": 0.089,
      "velocity": 1,
      "hand": "left"
    },
    {
      "midi": 75,
      "time": 205.625,
      "duration": 0.089,
      "velocity": 1,
      "hand": "right"
    },
    {
      "midi": 60,
      "time": 205.714,
      "duration": 0.089,
      "velocity": 1,
      "hand": "right"
    },
    {
      "midi": 69,
      "time": 205.714,
      "duration": 0.089,
      "velocity": 1,
      "hand": "right"
    },
    {
      "midi": 68,
      "time": 205.804,
      "duration": 0.089,
      "velocity": 1,
      "hand": "right"
    },
    {
      "midi": 54,
      "time": 205.893,
      "duration": 0.089,
      "velocity": 1,
      "hand": "left"
    },
    {
      "midi": 71,
      "time": 205.893,
      "duration": 0.089,
      "velocity": 1,
      "hand": "right"
    },
    {
      "midi": 51,
      "time": 205.982,
      "duration": 0.089,
      "velocity": 1,
      "hand": "left"
    },
    {
      "midi": 69,
      "time": 205.982,
      "duration": 0.179,
      "velocity": 1,
      "hand": "right"
    },
    {
      "midi": 49,
      "time": 206.071,
      "duration": 0.089,
      "velocity": 1,
      "hand": "left"
    },
    {
      "midi": 68,
      "time": 206.161,
      "duration": 0.089,
      "velocity": 1,
      "hand": "right"
    },
    {
      "midi": 56,
      "time": 206.25,
      "duration": 0.089,
      "velocity": 1,
      "hand": "left"
    },
    {
      "midi": 69,
      "time": 206.25,
      "duration": 0.089,
      "velocity": 1,
      "hand": "right"
    },
    {
      "midi": 61,
      "time": 206.339,
      "duration": 0.089,
      "velocity": 1,
      "hand": "right"
    },
    {
      "midi": 68,
      "time": 206.339,
      "duration": 0.089,
      "velocity": 1,
      "hand": "right"
    },
    {
      "midi": 64,
      "time": 206.429,
      "duration": 0.089,
      "velocity": 1,
      "hand": "right"
    },
    {
      "midi": 67,
      "time": 206.429,
      "duration": 0.089,
      "velocity": 1,
      "hand": "right"
    },
    {
      "midi": 68,
      "time": 206.518,
      "duration": 0.089,
      "velocity": 1,
      "hand": "right"
    },
    {
      "midi": 61,
      "time": 206.607,
      "duration": 0.089,
      "velocity": 1,
      "hand": "right"
    },
    {
      "midi": 73,
      "time": 206.607,
      "duration": 0.089,
      "velocity": 1,
      "hand": "right"
    },
    {
      "midi": 56,
      "time": 206.696,
      "duration": 0.089,
      "velocity": 1,
      "hand": "left"
    },
    {
      "midi": 76,
      "time": 206.696,
      "duration": 0.089,
      "velocity": 1,
      "hand": "right"
    },
    {
      "midi": 52,
      "time": 206.786,
      "duration": 0.089,
      "velocity": 1,
      "hand": "left"
    },
    {
      "midi": 75,
      "time": 206.786,
      "duration": 0.089,
      "velocity": 1,
      "hand": "right"
    },
    {
      "midi": 73,
      "time": 206.875,
      "duration": 0.089,
      "velocity": 1,
      "hand": "right"
    },
    {
      "midi": 56,
      "time": 206.964,
      "duration": 0.089,
      "velocity": 1,
      "hand": "left"
    },
    {
      "midi": 75,
      "time": 206.964,
      "duration": 0.089,
      "velocity": 1,
      "hand": "right"
    },
    {
      "midi": 61,
      "time": 207.054,
      "duration": 0.089,
      "velocity": 1,
      "hand": "right"
    },
    {
      "midi": 73,
      "time": 207.054,
      "duration": 0.089,
      "velocity": 1,
      "hand": "right"
    },
    {
      "midi": 64,
      "time": 207.143,
      "duration": 0.089,
      "velocity": 1,
      "hand": "right"
    },
    {
      "midi": 72,
      "time": 207.143,
      "duration": 0.089,
      "velocity": 1,
      "hand": "right"
    },
    {
      "midi": 73,
      "time": 207.232,
      "duration": 0.089,
      "velocity": 1,
      "hand": "right"
    },
    {
      "midi": 61,
      "time": 207.321,
      "duration": 0.089,
      "velocity": 1,
      "hand": "right"
    },
    {
      "midi": 76,
      "time": 207.321,
      "duration": 0.089,
      "velocity": 1,
      "hand": "right"
    },
    {
      "midi": 56,
      "time": 207.411,
      "duration": 0.089,
      "velocity": 1,
      "hand": "left"
    },
    {
      "midi": 80,
      "time": 207.411,
      "duration": 0.089,
      "velocity": 1,
      "hand": "right"
    },
    {
      "midi": 54,
      "time": 207.5,
      "duration": 0.089,
      "velocity": 1,
      "hand": "left"
    },
    {
      "midi": 76,
      "time": 207.5,
      "duration": 0.089,
      "velocity": 1,
      "hand": "right"
    },
    {
      "midi": 75,
      "time": 207.589,
      "duration": 0.089,
      "velocity": 1,
      "hand": "right"
    },
    {
      "midi": 61,
      "time": 207.679,
      "duration": 0.089,
      "velocity": 1,
      "hand": "right"
    },
    {
      "midi": 76,
      "time": 207.679,
      "duration": 0.089,
      "velocity": 1,
      "hand": "right"
    },
    {
      "midi": 63,
      "time": 207.768,
      "duration": 0.089,
      "velocity": 1,
      "hand": "right"
    },
    {
      "midi": 75,
      "time": 207.768,
      "duration": 0.089,
      "velocity": 1,
      "hand": "right"
    },
    {
      "midi": 69,
      "time": 207.857,
      "duration": 0.089,
      "velocity": 1,
      "hand": "right"
    },
    {
      "midi": 74,
      "time": 207.857,
      "duration": 0.089,
      "velocity": 1,
      "hand": "right"
    },
    {
      "midi": 75,
      "time": 207.946,
      "duration": 0.089,
      "velocity": 1,
      "hand": "right"
    },
    {
      "midi": 63,
      "time": 208.036,
      "duration": 0.089,
      "velocity": 1,
      "hand": "right"
    },
    {
      "midi": 78,
      "time": 208.036,
      "duration": 0.089,
      "velocity": 1,
      "hand": "right"
    },
    {
      "midi": 61,
      "time": 208.125,
      "duration": 0.089,
      "velocity": 1,
      "hand": "right"
    },
    {
      "midi": 81,
      "time": 208.125,
      "duration": 0.089,
      "velocity": 1,
      "hand": "right"
    },
    {
      "midi": 56,
      "time": 208.214,
      "duration": 0.089,
      "velocity": 1,
      "hand": "left"
    },
    {
      "midi": 78,
      "time": 208.214,
      "duration": 0.089,
      "velocity": 1,
      "hand": "right"
    },
    {
      "midi": 77,
      "time": 208.304,
      "duration": 0.089,
      "velocity": 1,
      "hand": "right"
    },
    {
      "midi": 61,
      "time": 208.393,
      "duration": 0.089,
      "velocity": 1,
      "hand": "right"
    },
    {
      "midi": 78,
      "time": 208.393,
      "duration": 0.089,
      "velocity": 1,
      "hand": "right"
    },
    {
      "midi": 65,
      "time": 208.482,
      "duration": 0.089,
      "velocity": 1,
      "hand": "right"
    },
    {
      "midi": 77,
      "time": 208.482,
      "duration": 0.089,
      "velocity": 1,
      "hand": "right"
    },
    {
      "midi": 71,
      "time": 208.571,
      "duration": 0.089,
      "velocity": 1,
      "hand": "right"
    },
    {
      "midi": 76,
      "time": 208.571,
      "duration": 0.089,
      "velocity": 1,
      "hand": "right"
    },
    {
      "midi": 77,
      "time": 208.661,
      "duration": 0.089,
      "velocity": 1,
      "hand": "right"
    },
    {
      "midi": 65,
      "time": 208.75,
      "duration": 0.089,
      "velocity": 1,
      "hand": "right"
    },
    {
      "midi": 80,
      "time": 208.75,
      "duration": 0.089,
      "velocity": 1,
      "hand": "right"
    },
    {
      "midi": 61,
      "time": 208.839,
      "duration": 0.089,
      "velocity": 1,
      "hand": "right"
    },
    {
      "midi": 85,
      "time": 208.839,
      "duration": 0.089,
      "velocity": 1,
      "hand": "right"
    },
    {
      "midi": 57,
      "time": 208.929,
      "duration": 0.089,
      "velocity": 1,
      "hand": "left"
    },
    {
      "midi": 73,
      "time": 209.018,
      "duration": 0.089,
      "velocity": 1,
      "hand": "right"
    },
    {
      "midi": 61,
      "time": 209.107,
      "duration": 0.089,
      "velocity": 1,
      "hand": "right"
    },
    {
      "midi": 74,
      "time": 209.107,
      "duration": 0.089,
      "velocity": 1,
      "hand": "right"
    },
    {
      "midi": 66,
      "time": 209.196,
      "duration": 0.089,
      "velocity": 1,
      "hand": "right"
    },
    {
      "midi": 73,
      "time": 209.196,
      "duration": 0.089,
      "velocity": 1,
      "hand": "right"
    },
    {
      "midi": 69,
      "time": 209.286,
      "duration": 0.089,
      "velocity": 1,
      "hand": "right"
    },
    {
      "midi": 72,
      "time": 209.286,
      "duration": 0.089,
      "velocity": 1,
      "hand": "right"
    },
    {
      "midi": 73,
      "time": 209.375,
      "duration": 0.089,
      "velocity": 1,
      "hand": "right"
    },
    {
      "midi": 66,
      "time": 209.464,
      "duration": 0.089,
      "velocity": 1,
      "hand": "right"
    },
    {
      "midi": 78,
      "time": 209.464,
      "duration": 0.089,
      "velocity": 1,
      "hand": "right"
    },
    {
      "midi": 61,
      "time": 209.554,
      "duration": 0.089,
      "velocity": 1,
      "hand": "right"
    },
    {
      "midi": 81,
      "time": 209.554,
      "duration": 0.089,
      "velocity": 1,
      "hand": "right"
    },
    {
      "midi": 56,
      "time": 209.643,
      "duration": 0.089,
      "velocity": 1,
      "hand": "left"
    },
    {
      "midi": 78,
      "time": 209.643,
      "duration": 0.089,
      "velocity": 1,
      "hand": "right"
    },
    {
      "midi": 77,
      "time": 209.732,
      "duration": 0.089,
      "velocity": 1,
      "hand": "right"
    },
    {
      "midi": 61,
      "time": 209.821,
      "duration": 0.089,
      "velocity": 1,
      "hand": "right"
    },
    {
      "midi": 78,
      "time": 209.821,
      "duration": 0.089,
      "velocity": 1,
      "hand": "right"
    },
    {
      "midi": 65,
      "time": 209.911,
      "duration": 0.089,
      "velocity": 1,
      "hand": "right"
    },
    {
      "midi": 77,
      "time": 209.911,
      "duration": 0.089,
      "velocity": 1,
      "hand": "right"
    },
    {
      "midi": 71,
      "time": 210,
      "duration": 0.089,
      "velocity": 1,
      "hand": "right"
    },
    {
      "midi": 76,
      "time": 210,
      "duration": 0.089,
      "velocity": 1,
      "hand": "right"
    },
    {
      "midi": 77,
      "time": 210.089,
      "duration": 0.089,
      "velocity": 1,
      "hand": "right"
    },
    {
      "midi": 65,
      "time": 210.179,
      "duration": 0.089,
      "velocity": 1,
      "hand": "right"
    },
    {
      "midi": 80,
      "time": 210.179,
      "duration": 0.089,
      "velocity": 1,
      "hand": "right"
    },
    {
      "midi": 61,
      "time": 210.268,
      "duration": 0.089,
      "velocity": 1,
      "hand": "right"
    },
    {
      "midi": 85,
      "time": 210.268,
      "duration": 0.089,
      "velocity": 1,
      "hand": "right"
    },
    {
      "midi": 57,
      "time": 210.357,
      "duration": 0.089,
      "velocity": 1,
      "hand": "left"
    },
    {
      "midi": 80,
      "time": 210.357,
      "duration": 0.089,
      "velocity": 1,
      "hand": "right"
    },
    {
      "midi": 78,
      "time": 210.446,
      "duration": 0.089,
      "velocity": 1,
      "hand": "right"
    },
    {
      "midi": 61,
      "time": 210.536,
      "duration": 0.089,
      "velocity": 1,
      "hand": "right"
    },
    {
      "midi": 80,
      "time": 210.536,
      "duration": 0.089,
      "velocity": 1,
      "hand": "right"
    },
    {
      "midi": 66,
      "time": 210.625,
      "duration": 0.089,
      "velocity": 1,
      "hand": "right"
    },
    {
      "midi": 78,
      "time": 210.625,
      "duration": 0.089,
      "velocity": 1,
      "hand": "right"
    },
    {
      "midi": 69,
      "time": 210.714,
      "duration": 0.089,
      "velocity": 1,
      "hand": "right"
    },
    {
      "midi": 77,
      "time": 210.714,
      "duration": 0.089,
      "velocity": 1,
      "hand": "right"
    },
    {
      "midi": 78,
      "time": 210.804,
      "duration": 0.089,
      "velocity": 1,
      "hand": "right"
    },
    {
      "midi": 66,
      "time": 210.893,
      "duration": 0.089,
      "velocity": 1,
      "hand": "right"
    },
    {
      "midi": 81,
      "time": 210.893,
      "duration": 0.089,
      "velocity": 1,
      "hand": "right"
    },
    {
      "midi": 61,
      "time": 210.982,
      "duration": 0.089,
      "velocity": 1,
      "hand": "right"
    },
    {
      "midi": 85,
      "time": 210.982,
      "duration": 0.089,
      "velocity": 1,
      "hand": "right"
    },
    {
      "midi": 48,
      "time": 211.071,
      "duration": 0.089,
      "velocity": 1,
      "hand": "left"
    },
    {
      "midi": 81,
      "time": 211.071,
      "duration": 0.089,
      "velocity": 1,
      "hand": "right"
    },
    {
      "midi": 80,
      "time": 211.161,
      "duration": 0.089,
      "velocity": 1,
      "hand": "right"
    },
    {
      "midi": 54,
      "time": 211.25,
      "duration": 0.089,
      "velocity": 1,
      "hand": "left"
    },
    {
      "midi": 81,
      "time": 211.25,
      "duration": 0.089,
      "velocity": 1,
      "hand": "right"
    },
    {
      "midi": 56,
      "time": 211.339,
      "duration": 0.089,
      "velocity": 1,
      "hand": "left"
    },
    {
      "midi": 80,
      "time": 211.339,
      "duration": 0.089,
      "velocity": 1,
      "hand": "right"
    },
    {
      "midi": 63,
      "time": 211.429,
      "duration": 0.089,
      "velocity": 1,
      "hand": "right"
    },
    {
      "midi": 79,
      "time": 211.429,
      "duration": 0.089,
      "velocity": 1,
      "hand": "right"
    },
    {
      "midi": 80,
      "time": 211.518,
      "duration": 0.089,
      "velocity": 1,
      "hand": "right"
    },
    {
      "midi": 56,
      "time": 211.607,
      "duration": 0.089,
      "velocity": 1,
      "hand": "left"
    },
    {
      "midi": 84,
      "time": 211.607,
      "duration": 0.089,
      "velocity": 1,
      "hand": "right"
    },
    {
      "midi": 54,
      "time": 211.696,
      "duration": 0.089,
      "velocity": 1,
      "hand": "left"
    },
    {
      "midi": 87,
      "time": 211.696,
      "duration": 0.089,
      "velocity": 1,
      "hand": "right"
    },
    {
      "midi": 49,
      "time": 211.786,
      "duration": 0.089,
      "velocity": 1,
      "hand": "left"
    },
    {
      "midi": 80,
      "time": 211.786,
      "duration": 0.089,
      "velocity": 1,
      "hand": "right"
    },
    {
      "midi": 81,
      "time": 211.875,
      "duration": 0.089,
      "velocity": 1,
      "hand": "right"
    },
    {
      "midi": 56,
      "time": 211.964,
      "duration": 0.089,
      "velocity": 1,
      "hand": "left"
    },
    {
      "midi": 80,
      "time": 211.964,
      "duration": 0.089,
      "velocity": 1,
      "hand": "right"
    },
    {
      "midi": 61,
      "time": 212.054,
      "duration": 0.089,
      "velocity": 1,
      "hand": "right"
    },
    {
      "midi": 79,
      "time": 212.054,
      "duration": 0.089,
      "velocity": 1,
      "hand": "right"
    },
    {
      "midi": 64,
      "time": 212.143,
      "duration": 0.089,
      "velocity": 1,
      "hand": "right"
    },
    {
      "midi": 80,
      "time": 212.143,
      "duration": 0.089,
      "velocity": 1,
      "hand": "right"
    },
    {
      "midi": 88,
      "time": 212.232,
      "duration": 0.089,
      "velocity": 1,
      "hand": "right"
    },
    {
      "midi": 61,
      "time": 212.321,
      "duration": 0.089,
      "velocity": 1,
      "hand": "right"
    },
    {
      "midi": 87,
      "time": 212.321,
      "duration": 0.089,
      "velocity": 1,
      "hand": "right"
    },
    {
      "midi": 56,
      "time": 212.411,
      "duration": 0.089,
      "velocity": 1,
      "hand": "left"
    },
    {
      "midi": 86,
      "time": 212.411,
      "duration": 0.089,
      "velocity": 1,
      "hand": "right"
    },
    {
      "midi": 51,
      "time": 212.5,
      "duration": 0.089,
      "velocity": 1,
      "hand": "left"
    },
    {
      "midi": 85,
      "time": 212.5,
      "duration": 0.089,
      "velocity": 1,
      "hand": "right"
    },
    {
      "midi": 84,
      "time": 212.589,
      "duration": 0.089,
      "velocity": 1,
      "hand": "right"
    },
    {
      "midi": 56,
      "time": 212.679,
      "duration": 0.089,
      "velocity": 1,
      "hand": "left"
    },
    {
      "midi": 83,
      "time": 212.679,
      "duration": 0.089,
      "velocity": 1,
      "hand": "right"
    },
    {
      "midi": 60,
      "time": 212.768,
      "duration": 0.089,
      "velocity": 1,
      "hand": "right"
    },
    {
      "midi": 82,
      "time": 212.768,
      "duration": 0.089,
      "velocity": 1,
      "hand": "right"
    },
    {
      "midi": 66,
      "time": 212.857,
      "duration": 0.089,
      "velocity": 1,
      "hand": "right"
    },
    {
      "midi": 81,
      "time": 212.857,
      "duration": 0.089,
      "velocity": 1,
      "hand": "right"
    },
    {
      "midi": 80,
      "time": 212.946,
      "duration": 0.089,
      "velocity": 1,
      "hand": "right"
    },
    {
      "midi": 60,
      "time": 213.036,
      "duration": 0.089,
      "velocity": 1,
      "hand": "right"
    },
    {
      "midi": 79,
      "time": 213.036,
      "duration": 0.089,
      "velocity": 1,
      "hand": "right"
    },
    {
      "midi": 56,
      "time": 213.125,
      "duration": 0.089,
      "velocity": 1,
      "hand": "left"
    },
    {
      "midi": 78,
      "time": 213.125,
      "duration": 0.089,
      "velocity": 1,
      "hand": "right"
    },
    {
      "midi": 49,
      "time": 213.214,
      "duration": 0.089,
      "velocity": 1,
      "hand": "left"
    },
    {
      "midi": 76,
      "time": 213.214,
      "duration": 0.089,
      "velocity": 1,
      "hand": "right"
    },
    {
      "midi": 78,
      "time": 213.304,
      "duration": 0.089,
      "velocity": 1,
      "hand": "right"
    },
    {
      "midi": 56,
      "time": 213.393,
      "duration": 0.089,
      "velocity": 1,
      "hand": "left"
    },
    {
      "midi": 76,
      "time": 213.393,
      "duration": 0.089,
      "velocity": 1,
      "hand": "right"
    },
    {
      "midi": 61,
      "time": 213.482,
      "duration": 0.089,
      "velocity": 1,
      "hand": "right"
    },
    {
      "midi": 75,
      "time": 213.482,
      "duration": 0.089,
      "velocity": 1,
      "hand": "right"
    },
    {
      "midi": 64,
      "time": 213.571,
      "duration": 0.089,
      "velocity": 1,
      "hand": "right"
    },
    {
      "midi": 76,
      "time": 213.571,
      "duration": 0.089,
      "velocity": 1,
      "hand": "right"
    },
    {
      "midi": 88,
      "time": 213.661,
      "duration": 0.089,
      "velocity": 1,
      "hand": "right"
    },
    {
      "midi": 61,
      "time": 213.75,
      "duration": 0.089,
      "velocity": 1,
      "hand": "right"
    },
    {
      "midi": 87,
      "time": 213.75,
      "duration": 0.089,
      "velocity": 1,
      "hand": "right"
    },
    {
      "midi": 56,
      "time": 213.839,
      "duration": 0.089,
      "velocity": 1,
      "hand": "left"
    },
    {
      "midi": 86,
      "time": 213.839,
      "duration": 0.089,
      "velocity": 1,
      "hand": "right"
    },
    {
      "midi": 54,
      "time": 213.929,
      "duration": 0.089,
      "velocity": 1,
      "hand": "left"
    },
    {
      "midi": 85,
      "time": 213.929,
      "duration": 0.089,
      "velocity": 1,
      "hand": "right"
    },
    {
      "midi": 84,
      "time": 214.018,
      "duration": 0.089,
      "velocity": 1,
      "hand": "right"
    },
    {
      "midi": 61,
      "time": 214.107,
      "duration": 0.089,
      "velocity": 1,
      "hand": "right"
    },
    {
      "midi": 83,
      "time": 214.107,
      "duration": 0.089,
      "velocity": 1,
      "hand": "right"
    },
    {
      "midi": 63,
      "time": 214.196,
      "duration": 0.089,
      "velocity": 1,
      "hand": "right"
    },
    {
      "midi": 82,
      "time": 214.196,
      "duration": 0.089,
      "velocity": 1,
      "hand": "right"
    },
    {
      "midi": 69,
      "time": 214.286,
      "duration": 0.089,
      "velocity": 1,
      "hand": "right"
    },
    {
      "midi": 81,
      "time": 214.286,
      "duration": 0.089,
      "velocity": 1,
      "hand": "right"
    },
    {
      "midi": 80,
      "time": 214.375,
      "duration": 0.089,
      "velocity": 1,
      "hand": "right"
    },
    {
      "midi": 63,
      "time": 214.464,
      "duration": 0.089,
      "velocity": 1,
      "hand": "right"
    },
    {
      "midi": 79,
      "time": 214.464,
      "duration": 0.089,
      "velocity": 1,
      "hand": "right"
    },
    {
      "midi": 61,
      "time": 214.554,
      "duration": 0.089,
      "velocity": 1,
      "hand": "right"
    },
    {
      "midi": 78,
      "time": 214.554,
      "duration": 0.089,
      "velocity": 1,
      "hand": "right"
    },
    {
      "midi": 56,
      "time": 214.643,
      "duration": 0.179,
      "velocity": 1,
      "hand": "left"
    },
    {
      "midi": 61,
      "time": 214.643,
      "duration": 0.179,
      "velocity": 1,
      "hand": "right"
    },
    {
      "midi": 64,
      "time": 214.643,
      "duration": 0.179,
      "velocity": 1,
      "hand": "right"
    },
    {
      "midi": 68,
      "time": 214.643,
      "duration": 0.179,
      "velocity": 1,
      "hand": "right"
    },
    {
      "midi": 80,
      "time": 214.643,
      "duration": 0.089,
      "velocity": 1,
      "hand": "right"
    },
    {
      "midi": 92,
      "time": 214.821,
      "duration": 0.089,
      "velocity": 1,
      "hand": "right"
    },
    {
      "midi": 91,
      "time": 214.911,
      "duration": 0.089,
      "velocity": 1,
      "hand": "right"
    },
    {
      "midi": 90,
      "time": 215,
      "duration": 0.089,
      "velocity": 1,
      "hand": "right"
    },
    {
      "midi": 89,
      "time": 215.089,
      "duration": 0.089,
      "velocity": 1,
      "hand": "right"
    },
    {
      "midi": 88,
      "time": 215.179,
      "duration": 0.089,
      "velocity": 1,
      "hand": "right"
    },
    {
      "midi": 87,
      "time": 215.268,
      "duration": 0.089,
      "velocity": 1,
      "hand": "right"
    },
    {
      "midi": 55,
      "time": 215.357,
      "duration": 0.357,
      "velocity": 1,
      "hand": "left"
    },
    {
      "midi": 61,
      "time": 215.357,
      "duration": 0.357,
      "velocity": 1,
      "hand": "right"
    },
    {
      "midi": 64,
      "time": 215.357,
      "duration": 0.357,
      "velocity": 1,
      "hand": "right"
    },
    {
      "midi": 69,
      "time": 215.357,
      "duration": 0.357,
      "velocity": 1,
      "hand": "right"
    },
    {
      "midi": 86,
      "time": 215.357,
      "duration": 0.089,
      "velocity": 1,
      "hand": "right"
    },
    {
      "midi": 85,
      "time": 215.446,
      "duration": 0.089,
      "velocity": 1,
      "hand": "right"
    },
    {
      "midi": 84,
      "time": 215.536,
      "duration": 0.089,
      "velocity": 1,
      "hand": "right"
    },
    {
      "midi": 83,
      "time": 215.625,
      "duration": 0.089,
      "velocity": 1,
      "hand": "right"
    },
    {
      "midi": 82,
      "time": 215.714,
      "duration": 0.089,
      "velocity": 1,
      "hand": "right"
    },
    {
      "midi": 81,
      "time": 215.804,
      "duration": 0.089,
      "velocity": 1,
      "hand": "right"
    },
    {
      "midi": 80,
      "time": 215.893,
      "duration": 0.089,
      "velocity": 1,
      "hand": "right"
    },
    {
      "midi": 79,
      "time": 215.982,
      "duration": 0.089,
      "velocity": 1,
      "hand": "right"
    },
    {
      "midi": 78,
      "time": 216.071,
      "duration": 0.089,
      "velocity": 1,
      "hand": "right"
    },
    {
      "midi": 77,
      "time": 216.161,
      "duration": 0.089,
      "velocity": 1,
      "hand": "right"
    },
    {
      "midi": 76,
      "time": 216.25,
      "duration": 0.089,
      "velocity": 1,
      "hand": "right"
    },
    {
      "midi": 75,
      "time": 216.339,
      "duration": 0.089,
      "velocity": 1,
      "hand": "right"
    },
    {
      "midi": 74,
      "time": 216.429,
      "duration": 0.089,
      "velocity": 1,
      "hand": "right"
    },
    {
      "midi": 73,
      "time": 216.518,
      "duration": 0.089,
      "velocity": 1,
      "hand": "right"
    },
    {
      "midi": 72,
      "time": 216.607,
      "duration": 0.089,
      "velocity": 1,
      "hand": "right"
    },
    {
      "midi": 71,
      "time": 216.696,
      "duration": 0.089,
      "velocity": 1,
      "hand": "right"
    },
    {
      "midi": 70,
      "time": 216.786,
      "duration": 0.089,
      "velocity": 1,
      "hand": "right"
    },
    {
      "midi": 69,
      "time": 216.875,
      "duration": 0.089,
      "velocity": 1,
      "hand": "right"
    },
    {
      "midi": 68,
      "time": 216.964,
      "duration": 0.089,
      "velocity": 1,
      "hand": "right"
    },
    {
      "midi": 67,
      "time": 217.054,
      "duration": 0.089,
      "velocity": 1,
      "hand": "right"
    },
    {
      "midi": 66,
      "time": 217.143,
      "duration": 0.089,
      "velocity": 1,
      "hand": "right"
    },
    {
      "midi": 64,
      "time": 217.232,
      "duration": 0.089,
      "velocity": 1,
      "hand": "right"
    },
    {
      "midi": 63,
      "time": 217.321,
      "duration": 0.089,
      "velocity": 1,
      "hand": "right"
    },
    {
      "midi": 61,
      "time": 217.411,
      "duration": 0.089,
      "velocity": 1,
      "hand": "right"
    },
    {
      "midi": 32,
      "time": 217.5,
      "duration": 0.179,
      "velocity": 1,
      "hand": "left"
    },
    {
      "midi": 44,
      "time": 217.5,
      "duration": 0.179,
      "velocity": 1,
      "hand": "left"
    },
    {
      "midi": 56,
      "time": 217.5,
      "duration": 0.179,
      "velocity": 1,
      "hand": "left"
    },
    {
      "midi": 64,
      "time": 217.857,
      "duration": 0.357,
      "velocity": 1,
      "hand": "right"
    },
    {
      "midi": 76,
      "time": 217.857,
      "duration": 0.357,
      "velocity": 1,
      "hand": "right"
    },
    {
      "midi": 93,
      "time": 217.857,
      "duration": 0.089,
      "velocity": 1,
      "hand": "right"
    },
    {
      "midi": 92,
      "time": 217.946,
      "duration": 0.089,
      "velocity": 1,
      "hand": "right"
    },
    {
      "midi": 100,
      "time": 218.036,
      "duration": 0.089,
      "velocity": 1,
      "hand": "right"
    },
    {
      "midi": 88,
      "time": 218.125,
      "duration": 0.089,
      "velocity": 1,
      "hand": "right"
    },
    {
      "midi": 61,
      "time": 218.214,
      "duration": 0.357,
      "velocity": 1,
      "hand": "right"
    },
    {
      "midi": 73,
      "time": 218.214,
      "duration": 0.357,
      "velocity": 1,
      "hand": "right"
    },
    {
      "midi": 90,
      "time": 218.214,
      "duration": 0.089,
      "velocity": 1,
      "hand": "right"
    },
    {
      "midi": 88,
      "time": 218.304,
      "duration": 0.089,
      "velocity": 1,
      "hand": "right"
    },
    {
      "midi": 97,
      "time": 218.393,
      "duration": 0.089,
      "velocity": 1,
      "hand": "right"
    },
    {
      "midi": 85,
      "time": 218.482,
      "duration": 0.089,
      "velocity": 1,
      "hand": "right"
    },
    {
      "midi": 56,
      "time": 218.571,
      "duration": 0.357,
      "velocity": 1,
      "hand": "left"
    },
    {
      "midi": 68,
      "time": 218.571,
      "duration": 0.357,
      "velocity": 1,
      "hand": "right"
    },
    {
      "midi": 87,
      "time": 218.571,
      "duration": 0.089,
      "velocity": 1,
      "hand": "right"
    },
    {
      "midi": 85,
      "time": 218.661,
      "duration": 0.089,
      "velocity": 1,
      "hand": "right"
    },
    {
      "midi": 92,
      "time": 218.75,
      "duration": 0.089,
      "velocity": 1,
      "hand": "right"
    },
    {
      "midi": 80,
      "time": 218.839,
      "duration": 0.089,
      "velocity": 1,
      "hand": "right"
    },
    {
      "midi": 52,
      "time": 218.929,
      "duration": 0.357,
      "velocity": 1,
      "hand": "left"
    },
    {
      "midi": 64,
      "time": 218.929,
      "duration": 0.357,
      "velocity": 1,
      "hand": "right"
    },
    {
      "midi": 81,
      "time": 218.929,
      "duration": 0.089,
      "velocity": 1,
      "hand": "right"
    },
    {
      "midi": 80,
      "time": 219.018,
      "duration": 0.089,
      "velocity": 1,
      "hand": "right"
    },
    {
      "midi": 88,
      "time": 219.107,
      "duration": 0.089,
      "velocity": 1,
      "hand": "right"
    },
    {
      "midi": 76,
      "time": 219.196,
      "duration": 0.089,
      "velocity": 1,
      "hand": "right"
    },
    {
      "midi": 49,
      "time": 219.286,
      "duration": 0.357,
      "velocity": 1,
      "hand": "left"
    },
    {
      "midi": 61,
      "time": 219.286,
      "duration": 0.357,
      "velocity": 1,
      "hand": "right"
    },
    {
      "midi": 78,
      "time": 219.286,
      "duration": 0.089,
      "velocity": 1,
      "hand": "right"
    },
    {
      "midi": 76,
      "time": 219.375,
      "duration": 0.089,
      "velocity": 1,
      "hand": "right"
    },
    {
      "midi": 85,
      "time": 219.464,
      "duration": 0.089,
      "velocity": 1,
      "hand": "right"
    },
    {
      "midi": 73,
      "time": 219.554,
      "duration": 0.089,
      "velocity": 1,
      "hand": "right"
    },
    {
      "midi": 44,
      "time": 219.643,
      "duration": 0.357,
      "velocity": 1,
      "hand": "left"
    },
    {
      "midi": 56,
      "time": 219.643,
      "duration": 0.357,
      "velocity": 1,
      "hand": "left"
    },
    {
      "midi": 75,
      "time": 219.643,
      "duration": 0.089,
      "velocity": 1,
      "hand": "right"
    },
    {
      "midi": 73,
      "time": 219.732,
      "duration": 0.089,
      "velocity": 1,
      "hand": "right"
    },
    {
      "midi": 80,
      "time": 219.821,
      "duration": 0.089,
      "velocity": 1,
      "hand": "right"
    },
    {
      "midi": 68,
      "time": 219.911,
      "duration": 0.089,
      "velocity": 1,
      "hand": "right"
    },
    {
      "midi": 40,
      "time": 220,
      "duration": 0.357,
      "velocity": 1,
      "hand": "left"
    },
    {
      "midi": 52,
      "time": 220,
      "duration": 0.357,
      "velocity": 1,
      "hand": "left"
    },
    {
      "midi": 69,
      "time": 220,
      "duration": 0.089,
      "velocity": 1,
      "hand": "right"
    },
    {
      "midi": 68,
      "time": 220.089,
      "duration": 0.089,
      "velocity": 1,
      "hand": "right"
    },
    {
      "midi": 76,
      "time": 220.179,
      "duration": 0.089,
      "velocity": 1,
      "hand": "right"
    },
    {
      "midi": 64,
      "time": 220.268,
      "duration": 0.089,
      "velocity": 1,
      "hand": "right"
    },
    {
      "midi": 37,
      "time": 220.357,
      "duration": 0.357,
      "velocity": 1,
      "hand": "left"
    },
    {
      "midi": 49,
      "time": 220.357,
      "duration": 0.357,
      "velocity": 1,
      "hand": "left"
    },
    {
      "midi": 66,
      "time": 220.357,
      "duration": 0.089,
      "velocity": 1,
      "hand": "right"
    },
    {
      "midi": 64,
      "time": 220.446,
      "duration": 0.089,
      "velocity": 1,
      "hand": "right"
    },
    {
      "midi": 73,
      "time": 220.536,
      "duration": 0.089,
      "velocity": 1,
      "hand": "right"
    },
    {
      "midi": 61,
      "time": 220.625,
      "duration": 0.089,
      "velocity": 1,
      "hand": "right"
    },
    {
      "midi": 32,
      "time": 220.714,
      "duration": 0.357,
      "velocity": 1,
      "hand": "left"
    },
    {
      "midi": 44,
      "time": 220.714,
      "duration": 0.357,
      "velocity": 1,
      "hand": "left"
    },
    {
      "midi": 63,
      "time": 220.714,
      "duration": 0.089,
      "velocity": 1,
      "hand": "right"
    },
    {
      "midi": 61,
      "time": 220.804,
      "duration": 0.089,
      "velocity": 1,
      "hand": "right"
    },
    {
      "midi": 68,
      "time": 220.893,
      "duration": 0.089,
      "velocity": 1,
      "hand": "right"
    },
    {
      "midi": 56,
      "time": 220.982,
      "duration": 0.089,
      "velocity": 1,
      "hand": "left"
    },
    {
      "midi": 32,
      "time": 221.071,
      "duration": 0.357,
      "velocity": 1,
      "hand": "left"
    },
    {
      "midi": 44,
      "time": 221.071,
      "duration": 0.357,
      "velocity": 1,
      "hand": "left"
    },
    {
      "midi": 63,
      "time": 221.071,
      "duration": 0.089,
      "velocity": 1,
      "hand": "right"
    },
    {
      "midi": 61,
      "time": 221.161,
      "duration": 0.089,
      "velocity": 1,
      "hand": "right"
    },
    {
      "midi": 68,
      "time": 221.25,
      "duration": 0.089,
      "velocity": 1,
      "hand": "right"
    },
    {
      "midi": 56,
      "time": 221.339,
      "duration": 0.089,
      "velocity": 1,
      "hand": "left"
    },
    {
      "midi": 33,
      "time": 221.429,
      "duration": 0.357,
      "velocity": 1,
      "hand": "left"
    },
    {
      "midi": 45,
      "time": 221.429,
      "duration": 0.357,
      "velocity": 1,
      "hand": "left"
    },
    {
      "midi": 63,
      "time": 221.429,
      "duration": 0.089,
      "velocity": 1,
      "hand": "right"
    },
    {
      "midi": 61,
      "time": 221.518,
      "duration": 0.089,
      "velocity": 1,
      "hand": "right"
    },
    {
      "midi": 69,
      "time": 221.607,
      "duration": 0.089,
      "velocity": 1,
      "hand": "right"
    },
    {
      "midi": 57,
      "time": 221.696,
      "duration": 0.089,
      "velocity": 1,
      "hand": "left"
    },
    {
      "midi": 32,
      "time": 221.786,
      "duration": 0.357,
      "velocity": 1,
      "hand": "left"
    },
    {
      "midi": 44,
      "time": 221.786,
      "duration": 0.357,
      "velocity": 1,
      "hand": "left"
    },
    {
      "midi": 63,
      "time": 221.786,
      "duration": 0.089,
      "velocity": 1,
      "hand": "right"
    },
    {
      "midi": 61,
      "time": 221.875,
      "duration": 0.089,
      "velocity": 1,
      "hand": "right"
    },
    {
      "midi": 68,
      "time": 221.964,
      "duration": 0.089,
      "velocity": 1,
      "hand": "right"
    },
    {
      "midi": 56,
      "time": 222.054,
      "duration": 0.089,
      "velocity": 1,
      "hand": "left"
    },
    {
      "midi": 31,
      "time": 222.143,
      "duration": 0.357,
      "velocity": 1,
      "hand": "left"
    },
    {
      "midi": 43,
      "time": 222.143,
      "duration": 0.357,
      "velocity": 1,
      "hand": "left"
    },
    {
      "midi": 63,
      "time": 222.143,
      "duration": 0.089,
      "velocity": 1,
      "hand": "right"
    },
    {
      "midi": 61,
      "time": 222.232,
      "duration": 0.089,
      "velocity": 1,
      "hand": "right"
    },
    {
      "midi": 67,
      "time": 222.321,
      "duration": 0.089,
      "velocity": 1,
      "hand": "right"
    },
    {
      "midi": 55,
      "time": 222.411,
      "duration": 0.089,
      "velocity": 1,
      "hand": "left"
    },
    {
      "midi": 32,
      "time": 222.5,
      "duration": 0.714,
      "velocity": 1,
      "hand": "left"
    },
    {
      "midi": 44,
      "time": 222.5,
      "duration": 0.714,
      "velocity": 1,
      "hand": "left"
    },
    {
      "midi": 63,
      "time": 222.5,
      "duration": 0.089,
      "velocity": 1,
      "hand": "right"
    },
    {
      "midi": 61,
      "time": 222.589,
      "duration": 0.089,
      "velocity": 1,
      "hand": "right"
    },
    {
      "midi": 68,
      "time": 222.679,
      "duration": 0.089,
      "velocity": 1,
      "hand": "right"
    },
    {
      "midi": 56,
      "time": 222.768,
      "duration": 0.089,
      "velocity": 1,
      "hand": "left"
    },
    {
      "midi": 63,
      "time": 222.857,
      "duration": 0.089,
      "velocity": 1,
      "hand": "right"
    },
    {
      "midi": 60,
      "time": 222.946,
      "duration": 0.089,
      "velocity": 1,
      "hand": "right"
    },
    {
      "midi": 68,
      "time": 223.036,
      "duration": 0.089,
      "velocity": 1,
      "hand": "right"
    },
    {
      "midi": 56,
      "time": 223.125,
      "duration": 0.089,
      "velocity": 1,
      "hand": "left"
    },
    {
      "midi": 37,
      "time": 223.214,
      "duration": 0.179,
      "velocity": 1,
      "hand": "left"
    },
    {
      "midi": 63,
      "time": 223.214,
      "duration": 0.089,
      "velocity": 1,
      "hand": "right"
    },
    {
      "midi": 61,
      "time": 223.304,
      "duration": 0.089,
      "velocity": 1,
      "hand": "right"
    },
    {
      "midi": 52,
      "time": 223.393,
      "duration": 0.179,
      "velocity": 1,
      "hand": "left"
    },
    {
      "midi": 68,
      "time": 223.393,
      "duration": 0.089,
      "velocity": 1,
      "hand": "right"
    },
    {
      "midi": 56,
      "time": 223.482,
      "duration": 0.089,
      "velocity": 1,
      "hand": "left"
    },
    {
      "midi": 49,
      "time": 223.571,
      "duration": 0.179,
      "velocity": 1,
      "hand": "left"
    },
    {
      "midi": 69,
      "time": 223.571,
      "duration": 0.089,
      "velocity": 1,
      "hand": "right"
    },
    {
      "midi": 68,
      "time": 223.661,
      "duration": 0.089,
      "velocity": 1,
      "hand": "right"
    },
    {
      "midi": 44,
      "time": 223.75,
      "duration": 0.179,
      "velocity": 1,
      "hand": "left"
    },
    {
      "midi": 76,
      "time": 223.75,
      "duration": 0.089,
      "velocity": 1,
      "hand": "right"
    },
    {
      "midi": 64,
      "time": 223.839,
      "duration": 0.089,
      "velocity": 1,
      "hand": "right"
    },
    {
      "midi": 37,
      "time": 223.929,
      "duration": 0.179,
      "velocity": 1,
      "hand": "left"
    },
    {
      "midi": 69,
      "time": 223.929,
      "duration": 0.089,
      "velocity": 1,
      "hand": "right"
    },
    {
      "midi": 68,
      "time": 224.018,
      "duration": 0.089,
      "velocity": 1,
      "hand": "right"
    },
    {
      "midi": 54,
      "time": 224.107,
      "duration": 0.179,
      "velocity": 1,
      "hand": "left"
    },
    {
      "midi": 76,
      "time": 224.107,
      "duration": 0.089,
      "velocity": 1,
      "hand": "right"
    },
    {
      "midi": 64,
      "time": 224.196,
      "duration": 0.089,
      "velocity": 1,
      "hand": "right"
    },
    {
      "midi": 48,
      "time": 224.286,
      "duration": 0.179,
      "velocity": 1,
      "hand": "left"
    },
    {
      "midi": 69,
      "time": 224.286,
      "duration": 0.089,
      "velocity": 1,
      "hand": "right"
    },
    {
      "midi": 68,
      "time": 224.375,
      "duration": 0.089,
      "velocity": 1,
      "hand": "right"
    },
    {
      "midi": 44,
      "time": 224.464,
      "duration": 0.179,
      "velocity": 1,
      "hand": "left"
    },
    {
      "midi": 75,
      "time": 224.464,
      "duration": 0.089,
      "velocity": 1,
      "hand": "right"
    },
    {
      "midi": 63,
      "time": 224.554,
      "duration": 0.089,
      "velocity": 1,
      "hand": "right"
    },
    {
      "midi": 37,
      "time": 224.643,
      "duration": 0.179,
      "velocity": 1,
      "hand": "left"
    },
    {
      "midi": 69,
      "time": 224.643,
      "duration": 0.089,
      "velocity": 1,
      "hand": "right"
    },
    {
      "midi": 68,
      "time": 224.732,
      "duration": 0.089,
      "velocity": 1,
      "hand": "right"
    },
    {
      "midi": 52,
      "time": 224.821,
      "duration": 0.179,
      "velocity": 1,
      "hand": "left"
    },
    {
      "midi": 75,
      "time": 224.821,
      "duration": 0.089,
      "velocity": 1,
      "hand": "right"
    },
    {
      "midi": 63,
      "time": 224.911,
      "duration": 0.089,
      "velocity": 1,
      "hand": "right"
    },
    {
      "midi": 49,
      "time": 225,
      "duration": 0.179,
      "velocity": 1,
      "hand": "left"
    },
    {
      "midi": 69,
      "time": 225,
      "duration": 0.089,
      "velocity": 1,
      "hand": "right"
    },
    {
      "midi": 68,
      "time": 225.089,
      "duration": 0.089,
      "velocity": 1,
      "hand": "right"
    },
    {
      "midi": 44,
      "time": 225.179,
      "duration": 0.179,
      "velocity": 1,
      "hand": "left"
    },
    {
      "midi": 73,
      "time": 225.179,
      "duration": 0.089,
      "velocity": 1,
      "hand": "right"
    },
    {
      "midi": 61,
      "time": 225.268,
      "duration": 0.089,
      "velocity": 1,
      "hand": "right"
    },
    {
      "midi": 37,
      "time": 225.357,
      "duration": 0.179,
      "velocity": 1,
      "hand": "left"
    },
    {
      "midi": 64,
      "time": 225.357,
      "duration": 0.089,
      "velocity": 1,
      "hand": "right"
    },
    {
      "midi": 63,
      "time": 225.446,
      "duration": 0.089,
      "velocity": 1,
      "hand": "right"
    },
    {
      "midi": 54,
      "time": 225.536,
      "duration": 0.179,
      "velocity": 1,
      "hand": "left"
    },
    {
      "midi": 68,
      "time": 225.536,
      "duration": 0.089,
      "velocity": 1,
      "hand": "right"
    },
    {
      "midi": 56,
      "time": 225.625,
      "duration": 0.089,
      "velocity": 1,
      "hand": "left"
    },
    {
      "midi": 48,
      "time": 225.714,
      "duration": 0.179,
      "velocity": 1,
      "hand": "left"
    },
    {
      "midi": 64,
      "time": 225.714,
      "duration": 0.089,
      "velocity": 1,
      "hand": "right"
    },
    {
      "midi": 63,
      "time": 225.804,
      "duration": 0.089,
      "velocity": 1,
      "hand": "right"
    },
    {
      "midi": 44,
      "time": 225.893,
      "duration": 0.179,
      "velocity": 1,
      "hand": "left"
    },
    {
      "midi": 68,
      "time": 225.893,
      "duration": 0.089,
      "velocity": 1,
      "hand": "right"
    },
    {
      "midi": 56,
      "time": 225.982,
      "duration": 0.089,
      "velocity": 1,
      "hand": "left"
    },
    {
      "midi": 37,
      "time": 226.071,
      "duration": 0.179,
      "velocity": 1,
      "hand": "left"
    },
    {
      "midi": 63,
      "time": 226.071,
      "duration": 0.089,
      "velocity": 1,
      "hand": "right"
    },
    {
      "midi": 61,
      "time": 226.161,
      "duration": 0.089,
      "velocity": 1,
      "hand": "right"
    },
    {
      "midi": 52,
      "time": 226.25,
      "duration": 0.179,
      "velocity": 1,
      "hand": "left"
    },
    {
      "midi": 68,
      "time": 226.25,
      "duration": 0.089,
      "velocity": 1,
      "hand": "right"
    },
    {
      "midi": 56,
      "time": 226.339,
      "duration": 0.089,
      "velocity": 1,
      "hand": "left"
    },
    {
      "midi": 49,
      "time": 226.429,
      "duration": 0.179,
      "velocity": 1,
      "hand": "left"
    },
    {
      "midi": 69,
      "time": 226.429,
      "duration": 0.089,
      "velocity": 1,
      "hand": "right"
    },
    {
      "midi": 68,
      "time": 226.518,
      "duration": 0.089,
      "velocity": 1,
      "hand": "right"
    },
    {
      "midi": 44,
      "time": 226.607,
      "duration": 0.179,
      "velocity": 1,
      "hand": "left"
    },
    {
      "midi": 76,
      "time": 226.607,
      "duration": 0.089,
      "velocity": 1,
      "hand": "right"
    },
    {
      "midi": 64,
      "time": 226.696,
      "duration": 0.089,
      "velocity": 1,
      "hand": "right"
    },
    {
      "midi": 37,
      "time": 226.786,
      "duration": 0.179,
      "velocity": 1,
      "hand": "left"
    },
    {
      "midi": 69,
      "time": 226.786,
      "duration": 0.089,
      "velocity": 1,
      "hand": "right"
    },
    {
      "midi": 68,
      "time": 226.875,
      "duration": 0.089,
      "velocity": 1,
      "hand": "right"
    },
    {
      "midi": 54,
      "time": 226.964,
      "duration": 0.179,
      "velocity": 1,
      "hand": "left"
    },
    {
      "midi": 76,
      "time": 226.964,
      "duration": 0.089,
      "velocity": 1,
      "hand": "right"
    },
    {
      "midi": 64,
      "time": 227.054,
      "duration": 0.089,
      "velocity": 1,
      "hand": "right"
    },
    {
      "midi": 48,
      "time": 227.143,
      "duration": 0.179,
      "velocity": 1,
      "hand": "left"
    },
    {
      "midi": 69,
      "time": 227.143,
      "duration": 0.089,
      "velocity": 1,
      "hand": "right"
    },
    {
      "midi": 68,
      "time": 227.232,
      "duration": 0.089,
      "velocity": 1,
      "hand": "right"
    },
    {
      "midi": 44,
      "time": 227.321,
      "duration": 0.179,
      "velocity": 1,
      "hand": "left"
    },
    {
      "midi": 75,
      "time": 227.321,
      "duration": 0.089,
      "velocity": 1,
      "hand": "right"
    },
    {
      "midi": 63,
      "time": 227.411,
      "duration": 0.089,
      "velocity": 1,
      "hand": "right"
    },
    {
      "midi": 37,
      "time": 227.5,
      "duration": 0.179,
      "velocity": 1,
      "hand": "left"
    },
    {
      "midi": 69,
      "time": 227.5,
      "duration": 0.089,
      "velocity": 1,
      "hand": "right"
    },
    {
      "midi": 68,
      "time": 227.589,
      "duration": 0.089,
      "velocity": 1,
      "hand": "right"
    },
    {
      "midi": 52,
      "time": 227.679,
      "duration": 0.179,
      "velocity": 1,
      "hand": "left"
    },
    {
      "midi": 75,
      "time": 227.679,
      "duration": 0.089,
      "velocity": 1,
      "hand": "right"
    },
    {
      "midi": 63,
      "time": 227.768,
      "duration": 0.089,
      "velocity": 1,
      "hand": "right"
    },
    {
      "midi": 49,
      "time": 227.857,
      "duration": 0.179,
      "velocity": 1,
      "hand": "left"
    },
    {
      "midi": 69,
      "time": 227.857,
      "duration": 0.089,
      "velocity": 1,
      "hand": "right"
    },
    {
      "midi": 68,
      "time": 227.946,
      "duration": 0.089,
      "velocity": 1,
      "hand": "right"
    },
    {
      "midi": 44,
      "time": 228.036,
      "duration": 0.179,
      "velocity": 1,
      "hand": "left"
    },
    {
      "midi": 73,
      "time": 228.036,
      "duration": 0.089,
      "velocity": 1,
      "hand": "right"
    },
    {
      "midi": 61,
      "time": 228.125,
      "duration": 0.089,
      "velocity": 1,
      "hand": "right"
    },
    {
      "midi": 37,
      "time": 228.214,
      "duration": 0.179,
      "velocity": 1,
      "hand": "left"
    },
    {
      "midi": 64,
      "time": 228.214,
      "duration": 0.089,
      "velocity": 1,
      "hand": "right"
    },
    {
      "midi": 63,
      "time": 228.304,
      "duration": 0.089,
      "velocity": 1,
      "hand": "right"
    },
    {
      "midi": 54,
      "time": 228.393,
      "duration": 0.179,
      "velocity": 1,
      "hand": "left"
    },
    {
      "midi": 68,
      "time": 228.393,
      "duration": 0.089,
      "velocity": 1,
      "hand": "right"
    },
    {
      "midi": 56,
      "time": 228.482,
      "duration": 0.089,
      "velocity": 1,
      "hand": "left"
    },
    {
      "midi": 48,
      "time": 228.571,
      "duration": 0.179,
      "velocity": 1,
      "hand": "left"
    },
    {
      "midi": 64,
      "time": 228.571,
      "duration": 0.089,
      "velocity": 1,
      "hand": "right"
    },
    {
      "midi": 63,
      "time": 228.661,
      "duration": 0.089,
      "velocity": 1,
      "hand": "right"
    },
    {
      "midi": 44,
      "time": 228.75,
      "duration": 0.179,
      "velocity": 1,
      "hand": "left"
    },
    {
      "midi": 68,
      "time": 228.75,
      "duration": 0.089,
      "velocity": 1,
      "hand": "right"
    },
    {
      "midi": 56,
      "time": 228.839,
      "duration": 0.089,
      "velocity": 1,
      "hand": "left"
    },
    {
      "midi": 37,
      "time": 228.929,
      "duration": 0.179,
      "velocity": 1,
      "hand": "left"
    },
    {
      "midi": 63,
      "time": 228.929,
      "duration": 0.089,
      "velocity": 1,
      "hand": "right"
    },
    {
      "midi": 61,
      "time": 229.018,
      "duration": 0.089,
      "velocity": 1,
      "hand": "right"
    },
    {
      "midi": 52,
      "time": 229.107,
      "duration": 0.179,
      "velocity": 1,
      "hand": "left"
    },
    {
      "midi": 68,
      "time": 229.107,
      "duration": 0.089,
      "velocity": 1,
      "hand": "right"
    },
    {
      "midi": 56,
      "time": 229.196,
      "duration": 0.089,
      "velocity": 1,
      "hand": "left"
    },
    {
      "midi": 49,
      "time": 229.286,
      "duration": 0.179,
      "velocity": 1,
      "hand": "left"
    },
    {
      "midi": 69,
      "time": 229.286,
      "duration": 0.089,
      "velocity": 1,
      "hand": "right"
    },
    {
      "midi": 68,
      "time": 229.375,
      "duration": 0.089,
      "velocity": 1,
      "hand": "right"
    },
    {
      "midi": 44,
      "time": 229.464,
      "duration": 0.179,
      "velocity": 1,
      "hand": "left"
    },
    {
      "midi": 76,
      "time": 229.464,
      "duration": 0.089,
      "velocity": 1,
      "hand": "right"
    },
    {
      "midi": 64,
      "time": 229.554,
      "duration": 0.089,
      "velocity": 1,
      "hand": "right"
    },
    {
      "midi": 37,
      "time": 229.643,
      "duration": 0.179,
      "velocity": 1,
      "hand": "left"
    },
    {
      "midi": 66,
      "time": 229.643,
      "duration": 0.089,
      "velocity": 1,
      "hand": "right"
    },
    {
      "midi": 64,
      "time": 229.732,
      "duration": 0.089,
      "velocity": 1,
      "hand": "right"
    },
    {
      "midi": 56,
      "time": 229.821,
      "duration": 0.179,
      "velocity": 1,
      "hand": "left"
    },
    {
      "midi": 73,
      "time": 229.821,
      "duration": 0.089,
      "velocity": 1,
      "hand": "right"
    },
    {
      "midi": 61,
      "time": 229.911,
      "duration": 0.089,
      "velocity": 1,
      "hand": "right"
    },
    {
      "midi": 49,
      "time": 230,
      "duration": 0.179,
      "velocity": 1,
      "hand": "left"
    },
    {
      "midi": 69,
      "time": 230,
      "duration": 0.089,
      "velocity": 1,
      "hand": "right"
    },
    {
      "midi": 68,
      "time": 230.089,
      "duration": 0.089,
      "velocity": 1,
      "hand": "right"
    },
    {
      "midi": 44,
      "time": 230.179,
      "duration": 0.179,
      "velocity": 1,
      "hand": "left"
    },
    {
      "midi": 76,
      "time": 230.179,
      "duration": 0.089,
      "velocity": 1,
      "hand": "right"
    },
    {
      "midi": 64,
      "time": 230.268,
      "duration": 0.089,
      "velocity": 1,
      "hand": "right"
    },
    {
      "midi": 37,
      "time": 230.357,
      "duration": 0.179,
      "velocity": 1,
      "hand": "left"
    },
    {
      "midi": 63,
      "time": 230.357,
      "duration": 0.089,
      "velocity": 1,
      "hand": "right"
    },
    {
      "midi": 61,
      "time": 230.446,
      "duration": 0.089,
      "velocity": 1,
      "hand": "right"
    },
    {
      "midi": 52,
      "time": 230.536,
      "duration": 0.179,
      "velocity": 1,
      "hand": "left"
    },
    {
      "midi": 68,
      "time": 230.536,
      "duration": 0.089,
      "velocity": 1,
      "hand": "right"
    },
    {
      "midi": 56,
      "time": 230.625,
      "duration": 0.089,
      "velocity": 1,
      "hand": "left"
    },
    {
      "midi": 49,
      "time": 230.714,
      "duration": 0.179,
      "velocity": 1,
      "hand": "left"
    },
    {
      "midi": 69,
      "time": 230.714,
      "duration": 0.089,
      "velocity": 1,
      "hand": "right"
    },
    {
      "midi": 68,
      "time": 230.804,
      "duration": 0.089,
      "velocity": 1,
      "hand": "right"
    },
    {
      "midi": 44,
      "time": 230.893,
      "duration": 0.179,
      "velocity": 1,
      "hand": "left"
    },
    {
      "midi": 76,
      "time": 230.893,
      "duration": 0.089,
      "velocity": 1,
      "hand": "right"
    },
    {
      "midi": 64,
      "time": 230.982,
      "duration": 0.089,
      "velocity": 1,
      "hand": "right"
    },
    {
      "midi": 37,
      "time": 231.071,
      "duration": 0.179,
      "velocity": 1,
      "hand": "left"
    },
    {
      "midi": 66,
      "time": 231.071,
      "duration": 0.089,
      "velocity": 1,
      "hand": "right"
    },
    {
      "midi": 64,
      "time": 231.161,
      "duration": 0.089,
      "velocity": 1,
      "hand": "right"
    },
    {
      "midi": 56,
      "time": 231.25,
      "duration": 0.179,
      "velocity": 1,
      "hand": "left"
    },
    {
      "midi": 73,
      "time": 231.25,
      "duration": 0.089,
      "velocity": 1,
      "hand": "right"
    },
    {
      "midi": 61,
      "time": 231.339,
      "duration": 0.089,
      "velocity": 1,
      "hand": "right"
    },
    {
      "midi": 49,
      "time": 231.429,
      "duration": 0.179,
      "velocity": 1,
      "hand": "left"
    },
    {
      "midi": 69,
      "time": 231.429,
      "duration": 0.089,
      "velocity": 1,
      "hand": "right"
    },
    {
      "midi": 68,
      "time": 231.518,
      "duration": 0.089,
      "velocity": 1,
      "hand": "right"
    },
    {
      "midi": 44,
      "time": 231.607,
      "duration": 0.179,
      "velocity": 1,
      "hand": "left"
    },
    {
      "midi": 76,
      "time": 231.607,
      "duration": 0.089,
      "velocity": 1,
      "hand": "right"
    },
    {
      "midi": 64,
      "time": 231.696,
      "duration": 0.089,
      "velocity": 1,
      "hand": "right"
    },
    {
      "midi": 37,
      "time": 231.786,
      "duration": 0.179,
      "velocity": 1,
      "hand": "left"
    },
    {
      "midi": 66,
      "time": 231.786,
      "duration": 0.089,
      "velocity": 1,
      "hand": "right"
    },
    {
      "midi": 64,
      "time": 231.875,
      "duration": 0.089,
      "velocity": 1,
      "hand": "right"
    },
    {
      "midi": 52,
      "time": 231.964,
      "duration": 0.179,
      "velocity": 1,
      "hand": "left"
    },
    {
      "midi": 73,
      "time": 231.964,
      "duration": 0.089,
      "velocity": 1,
      "hand": "right"
    },
    {
      "midi": 61,
      "time": 232.054,
      "duration": 0.089,
      "velocity": 1,
      "hand": "right"
    },
    {
      "midi": 49,
      "time": 232.143,
      "duration": 0.179,
      "velocity": 1,
      "hand": "left"
    },
    {
      "midi": 69,
      "time": 232.143,
      "duration": 0.089,
      "velocity": 1,
      "hand": "right"
    },
    {
      "midi": 68,
      "time": 232.232,
      "duration": 0.089,
      "velocity": 1,
      "hand": "right"
    },
    {
      "midi": 44,
      "time": 232.321,
      "duration": 0.179,
      "velocity": 1,
      "hand": "left"
    },
    {
      "midi": 73,
      "time": 232.321,
      "duration": 0.089,
      "velocity": 1,
      "hand": "right"
    },
    {
      "midi": 61,
      "time": 232.411,
      "duration": 0.089,
      "velocity": 1,
      "hand": "right"
    },
    {
      "midi": 37,
      "time": 232.5,
      "duration": 0.179,
      "velocity": 1,
      "hand": "left"
    },
    {
      "midi": 66,
      "time": 232.5,
      "duration": 0.089,
      "velocity": 1,
      "hand": "right"
    },
    {
      "midi": 64,
      "time": 232.589,
      "duration": 0.089,
      "velocity": 1,
      "hand": "right"
    },
    {
      "midi": 52,
      "time": 232.679,
      "duration": 0.179,
      "velocity": 1,
      "hand": "left"
    },
    {
      "midi": 73,
      "time": 232.679,
      "duration": 0.089,
      "velocity": 1,
      "hand": "right"
    },
    {
      "midi": 61,
      "time": 232.768,
      "duration": 0.089,
      "velocity": 1,
      "hand": "right"
    },
    {
      "midi": 49,
      "time": 232.857,
      "duration": 0.179,
      "velocity": 1,
      "hand": "left"
    },
    {
      "midi": 69,
      "time": 232.857,
      "duration": 0.089,
      "velocity": 1,
      "hand": "right"
    },
    {
      "midi": 68,
      "time": 232.946,
      "duration": 0.089,
      "velocity": 1,
      "hand": "right"
    },
    {
      "midi": 44,
      "time": 233.036,
      "duration": 0.179,
      "velocity": 1,
      "hand": "left"
    },
    {
      "midi": 73,
      "time": 233.036,
      "duration": 0.089,
      "velocity": 1,
      "hand": "right"
    },
    {
      "midi": 61,
      "time": 233.125,
      "duration": 0.089,
      "velocity": 1,
      "hand": "right"
    },
    {
      "midi": 37,
      "time": 233.214,
      "duration": 0.179,
      "velocity": 1,
      "hand": "left"
    },
    {
      "midi": 66,
      "time": 233.214,
      "duration": 0.089,
      "velocity": 1,
      "hand": "right"
    },
    {
      "midi": 64,
      "time": 233.304,
      "duration": 0.089,
      "velocity": 1,
      "hand": "right"
    },
    {
      "midi": 52,
      "time": 233.393,
      "duration": 0.179,
      "velocity": 1,
      "hand": "left"
    },
    {
      "midi": 73,
      "time": 233.393,
      "duration": 0.089,
      "velocity": 1,
      "hand": "right"
    },
    {
      "midi": 61,
      "time": 233.482,
      "duration": 0.089,
      "velocity": 1,
      "hand": "right"
    },
    {
      "midi": 49,
      "time": 233.571,
      "duration": 0.179,
      "velocity": 1,
      "hand": "left"
    },
    {
      "midi": 69,
      "time": 233.571,
      "duration": 0.089,
      "velocity": 1,
      "hand": "right"
    },
    {
      "midi": 68,
      "time": 233.661,
      "duration": 0.089,
      "velocity": 1,
      "hand": "right"
    },
    {
      "midi": 44,
      "time": 233.75,
      "duration": 0.179,
      "velocity": 1,
      "hand": "left"
    },
    {
      "midi": 73,
      "time": 233.75,
      "duration": 0.089,
      "velocity": 1,
      "hand": "right"
    },
    {
      "midi": 61,
      "time": 233.839,
      "duration": 0.089,
      "velocity": 1,
      "hand": "right"
    },
    {
      "midi": 37,
      "time": 233.929,
      "duration": 0.179,
      "velocity": 1,
      "hand": "left"
    },
    {
      "midi": 66,
      "time": 233.929,
      "duration": 0.089,
      "velocity": 1,
      "hand": "right"
    },
    {
      "midi": 64,
      "time": 234.018,
      "duration": 0.089,
      "velocity": 1,
      "hand": "right"
    },
    {
      "midi": 52,
      "time": 234.107,
      "duration": 0.179,
      "velocity": 1,
      "hand": "left"
    },
    {
      "midi": 73,
      "time": 234.107,
      "duration": 0.089,
      "velocity": 1,
      "hand": "right"
    },
    {
      "midi": 61,
      "time": 234.196,
      "duration": 0.089,
      "velocity": 1,
      "hand": "right"
    },
    {
      "midi": 49,
      "time": 234.286,
      "duration": 0.179,
      "velocity": 1,
      "hand": "left"
    },
    {
      "midi": 69,
      "time": 234.286,
      "duration": 0.089,
      "velocity": 1,
      "hand": "right"
    },
    {
      "midi": 68,
      "time": 234.375,
      "duration": 0.089,
      "velocity": 1,
      "hand": "right"
    },
    {
      "midi": 44,
      "time": 234.464,
      "duration": 0.179,
      "velocity": 1,
      "hand": "left"
    },
    {
      "midi": 73,
      "time": 234.464,
      "duration": 0.089,
      "velocity": 1,
      "hand": "right"
    },
    {
      "midi": 61,
      "time": 234.554,
      "duration": 0.089,
      "velocity": 1,
      "hand": "right"
    },
    {
      "midi": 37,
      "time": 234.643,
      "duration": 0.357,
      "velocity": 1,
      "hand": "left"
    },
    {
      "midi": 63,
      "time": 234.643,
      "duration": 0.089,
      "velocity": 1,
      "hand": "right"
    },
    {
      "midi": 61,
      "time": 234.732,
      "duration": 0.089,
      "velocity": 1,
      "hand": "right"
    },
    {
      "midi": 68,
      "time": 234.821,
      "duration": 0.089,
      "velocity": 1,
      "hand": "right"
    },
    {
      "midi": 56,
      "time": 234.911,
      "duration": 0.089,
      "velocity": 1,
      "hand": "left"
    },
    {
      "midi": 63,
      "time": 235,
      "duration": 0.089,
      "velocity": 1,
      "hand": "right"
    },
    {
      "midi": 61,
      "time": 235.089,
      "duration": 0.089,
      "velocity": 1,
      "hand": "right"
    },
    {
      "midi": 68,
      "time": 235.179,
      "duration": 0.089,
      "velocity": 1,
      "hand": "right"
    },
    {
      "midi": 56,
      "time": 235.268,
      "duration": 0.089,
      "velocity": 1,
      "hand": "left"
    },
    {
      "midi": 63,
      "time": 235.357,
      "duration": 0.089,
      "velocity": 1,
      "hand": "right"
    },
    {
      "midi": 61,
      "time": 235.446,
      "duration": 0.089,
      "velocity": 1,
      "hand": "right"
    },
    {
      "midi": 68,
      "time": 235.536,
      "duration": 0.089,
      "velocity": 1,
      "hand": "right"
    },
    {
      "midi": 56,
      "time": 235.625,
      "duration": 0.089,
      "velocity": 1,
      "hand": "left"
    },
    {
      "midi": 63,
      "time": 235.714,
      "duration": 0.089,
      "velocity": 1,
      "hand": "right"
    },
    {
      "midi": 61,
      "time": 235.804,
      "duration": 0.089,
      "velocity": 1,
      "hand": "right"
    },
    {
      "midi": 68,
      "time": 235.893,
      "duration": 0.089,
      "velocity": 1,
      "hand": "right"
    },
    {
      "midi": 56,
      "time": 235.982,
      "duration": 0.089,
      "velocity": 1,
      "hand": "left"
    },
    {
      "midi": 63,
      "time": 236.071,
      "duration": 0.089,
      "velocity": 1,
      "hand": "right"
    },
    {
      "midi": 61,
      "time": 236.161,
      "duration": 0.089,
      "velocity": 1,
      "hand": "right"
    },
    {
      "midi": 68,
      "time": 236.25,
      "duration": 0.089,
      "velocity": 1,
      "hand": "right"
    },
    {
      "midi": 56,
      "time": 236.339,
      "duration": 0.089,
      "velocity": 1,
      "hand": "left"
    },
    {
      "midi": 63,
      "time": 236.429,
      "duration": 0.089,
      "velocity": 1,
      "hand": "right"
    },
    {
      "midi": 61,
      "time": 236.518,
      "duration": 0.089,
      "velocity": 1,
      "hand": "right"
    },
    {
      "midi": 68,
      "time": 236.607,
      "duration": 0.089,
      "velocity": 1,
      "hand": "right"
    },
    {
      "midi": 56,
      "time": 236.696,
      "duration": 0.089,
      "velocity": 1,
      "hand": "left"
    },
    {
      "midi": 63,
      "time": 236.786,
      "duration": 0.089,
      "velocity": 1,
      "hand": "right"
    },
    {
      "midi": 61,
      "time": 236.875,
      "duration": 0.089,
      "velocity": 1,
      "hand": "right"
    },
    {
      "midi": 68,
      "time": 236.964,
      "duration": 0.089,
      "velocity": 1,
      "hand": "right"
    },
    {
      "midi": 56,
      "time": 237.054,
      "duration": 0.089,
      "velocity": 1,
      "hand": "left"
    },
    {
      "midi": 63,
      "time": 237.143,
      "duration": 0.089,
      "velocity": 1,
      "hand": "right"
    },
    {
      "midi": 61,
      "time": 237.232,
      "duration": 0.089,
      "velocity": 1,
      "hand": "right"
    },
    {
      "midi": 68,
      "time": 237.321,
      "duration": 0.089,
      "velocity": 1,
      "hand": "right"
    },
    {
      "midi": 56,
      "time": 237.411,
      "duration": 0.089,
      "velocity": 1,
      "hand": "left"
    },
    {
      "midi": 37,
      "time": 237.5,
      "duration": 1.429,
      "velocity": 1,
      "hand": "left"
    },
    {
      "midi": 44,
      "time": 237.5,
      "duration": 1.429,
      "velocity": 1,
      "hand": "left"
    },
    {
      "midi": 63,
      "time": 237.5,
      "duration": 0.089,
      "velocity": 1,
      "hand": "right"
    },
    {
      "midi": 61,
      "time": 237.589,
      "duration": 0.089,
      "velocity": 1,
      "hand": "right"
    },
    {
      "midi": 68,
      "time": 237.679,
      "duration": 0.089,
      "velocity": 1,
      "hand": "right"
    },
    {
      "midi": 56,
      "time": 237.768,
      "duration": 0.089,
      "velocity": 1,
      "hand": "left"
    },
    {
      "midi": 63,
      "time": 237.857,
      "duration": 0.089,
      "velocity": 1,
      "hand": "right"
    },
    {
      "midi": 61,
      "time": 237.946,
      "duration": 0.089,
      "velocity": 1,
      "hand": "right"
    },
    {
      "midi": 68,
      "time": 238.036,
      "duration": 0.089,
      "velocity": 1,
      "hand": "right"
    },
    {
      "midi": 56,
      "time": 238.125,
      "duration": 0.089,
      "velocity": 1,
      "hand": "left"
    },
    {
      "midi": 63,
      "time": 238.214,
      "duration": 0.089,
      "velocity": 1,
      "hand": "right"
    },
    {
      "midi": 61,
      "time": 238.304,
      "duration": 0.089,
      "velocity": 1,
      "hand": "right"
    },
    {
      "midi": 68,
      "time": 238.393,
      "duration": 0.089,
      "velocity": 1,
      "hand": "right"
    },
    {
      "midi": 56,
      "time": 238.482,
      "duration": 0.089,
      "velocity": 1,
      "hand": "left"
    },
    {
      "midi": 63,
      "time": 238.571,
      "duration": 0.089,
      "velocity": 1,
      "hand": "right"
    },
    {
      "midi": 61,
      "time": 238.661,
      "duration": 0.089,
      "velocity": 1,
      "hand": "right"
    },
    {
      "midi": 68,
      "time": 238.75,
      "duration": 0.089,
      "velocity": 1,
      "hand": "right"
    },
    {
      "midi": 56,
      "time": 238.839,
      "duration": 0.089,
      "velocity": 1,
      "hand": "left"
    },
    {
      "midi": 46,
      "time": 238.929,
      "duration": 0.357,
      "velocity": 1,
      "hand": "left"
    },
    {
      "midi": 63,
      "time": 238.929,
      "duration": 0.089,
      "velocity": 1,
      "hand": "right"
    },
    {
      "midi": 61,
      "time": 239.018,
      "duration": 0.089,
      "velocity": 1,
      "hand": "right"
    },
    {
      "midi": 68,
      "time": 239.107,
      "duration": 0.089,
      "velocity": 1,
      "hand": "right"
    },
    {
      "midi": 56,
      "time": 239.196,
      "duration": 0.089,
      "velocity": 1,
      "hand": "left"
    },
    {
      "midi": 44,
      "time": 239.286,
      "duration": 0.357,
      "velocity": 1,
      "hand": "left"
    },
    {
      "midi": 63,
      "time": 239.286,
      "duration": 0.089,
      "velocity": 1,
      "hand": "right"
    },
    {
      "midi": 61,
      "time": 239.375,
      "duration": 0.089,
      "velocity": 1,
      "hand": "right"
    },
    {
      "midi": 68,
      "time": 239.464,
      "duration": 0.089,
      "velocity": 1,
      "hand": "right"
    },
    {
      "midi": 56,
      "time": 239.554,
      "duration": 0.089,
      "velocity": 1,
      "hand": "left"
    },
    {
      "midi": 49,
      "time": 239.643,
      "duration": 0.357,
      "velocity": 1,
      "hand": "left"
    },
    {
      "midi": 63,
      "time": 239.643,
      "duration": 0.089,
      "velocity": 1,
      "hand": "right"
    },
    {
      "midi": 61,
      "time": 239.732,
      "duration": 0.089,
      "velocity": 1,
      "hand": "right"
    },
    {
      "midi": 68,
      "time": 239.821,
      "duration": 0.089,
      "velocity": 1,
      "hand": "right"
    },
    {
      "midi": 56,
      "time": 239.911,
      "duration": 0.089,
      "velocity": 1,
      "hand": "left"
    },
    {
      "midi": 51,
      "time": 240,
      "duration": 0.357,
      "velocity": 1,
      "hand": "left"
    },
    {
      "midi": 63,
      "time": 240,
      "duration": 0.089,
      "velocity": 1,
      "hand": "right"
    },
    {
      "midi": 61,
      "time": 240.089,
      "duration": 0.089,
      "velocity": 1,
      "hand": "right"
    },
    {
      "midi": 68,
      "time": 240.179,
      "duration": 0.089,
      "velocity": 1,
      "hand": "right"
    },
    {
      "midi": 56,
      "time": 240.268,
      "duration": 0.089,
      "velocity": 1,
      "hand": "left"
    },
    {
      "midi": 53,
      "time": 240.357,
      "duration": 1.429,
      "velocity": 1,
      "hand": "left"
    },
    {
      "midi": 63,
      "time": 240.357,
      "duration": 0.089,
      "velocity": 1,
      "hand": "right"
    },
    {
      "midi": 61,
      "time": 240.446,
      "duration": 0.089,
      "velocity": 1,
      "hand": "right"
    },
    {
      "midi": 68,
      "time": 240.536,
      "duration": 0.089,
      "velocity": 1,
      "hand": "right"
    },
    {
      "midi": 56,
      "time": 240.625,
      "duration": 0.089,
      "velocity": 1,
      "hand": "left"
    },
    {
      "midi": 63,
      "time": 240.714,
      "duration": 0.089,
      "velocity": 1,
      "hand": "right"
    },
    {
      "midi": 61,
      "time": 240.804,
      "duration": 0.089,
      "velocity": 1,
      "hand": "right"
    },
    {
      "midi": 68,
      "time": 240.893,
      "duration": 0.089,
      "velocity": 1,
      "hand": "right"
    },
    {
      "midi": 56,
      "time": 240.982,
      "duration": 0.089,
      "velocity": 1,
      "hand": "left"
    },
    {
      "midi": 63,
      "time": 241.071,
      "duration": 0.089,
      "velocity": 1,
      "hand": "right"
    },
    {
      "midi": 61,
      "time": 241.161,
      "duration": 0.089,
      "velocity": 1,
      "hand": "right"
    },
    {
      "midi": 68,
      "time": 241.25,
      "duration": 0.089,
      "velocity": 1,
      "hand": "right"
    },
    {
      "midi": 56,
      "time": 241.339,
      "duration": 0.089,
      "velocity": 1,
      "hand": "left"
    },
    {
      "midi": 63,
      "time": 241.429,
      "duration": 0.089,
      "velocity": 1,
      "hand": "right"
    },
    {
      "midi": 61,
      "time": 241.518,
      "duration": 0.089,
      "velocity": 1,
      "hand": "right"
    },
    {
      "midi": 68,
      "time": 241.607,
      "duration": 0.089,
      "velocity": 1,
      "hand": "right"
    },
    {
      "midi": 56,
      "time": 241.696,
      "duration": 0.089,
      "velocity": 1,
      "hand": "left"
    },
    {
      "midi": 56,
      "time": 241.786,
      "duration": 1.429,
      "velocity": 1,
      "hand": "left"
    },
    {
      "midi": 63,
      "time": 241.786,
      "duration": 0.089,
      "velocity": 1,
      "hand": "right"
    },
    {
      "midi": 61,
      "time": 241.875,
      "duration": 0.089,
      "velocity": 1,
      "hand": "right"
    },
    {
      "midi": 68,
      "time": 241.964,
      "duration": 0.089,
      "velocity": 1,
      "hand": "right"
    },
    {
      "midi": 56,
      "time": 242.054,
      "duration": 0.089,
      "velocity": 1,
      "hand": "left"
    },
    {
      "midi": 63,
      "time": 242.143,
      "duration": 0.089,
      "velocity": 1,
      "hand": "right"
    },
    {
      "midi": 61,
      "time": 242.232,
      "duration": 0.089,
      "velocity": 1,
      "hand": "right"
    },
    {
      "midi": 68,
      "time": 242.321,
      "duration": 0.089,
      "velocity": 1,
      "hand": "right"
    },
    {
      "midi": 56,
      "time": 242.411,
      "duration": 0.089,
      "velocity": 1,
      "hand": "left"
    },
    {
      "midi": 63,
      "time": 242.5,
      "duration": 0.089,
      "velocity": 1,
      "hand": "right"
    },
    {
      "midi": 61,
      "time": 242.589,
      "duration": 0.089,
      "velocity": 1,
      "hand": "right"
    },
    {
      "midi": 68,
      "time": 242.679,
      "duration": 0.089,
      "velocity": 1,
      "hand": "right"
    },
    {
      "midi": 56,
      "time": 242.768,
      "duration": 0.089,
      "velocity": 1,
      "hand": "left"
    },
    {
      "midi": 63,
      "time": 242.857,
      "duration": 0.089,
      "velocity": 1,
      "hand": "right"
    },
    {
      "midi": 61,
      "time": 242.946,
      "duration": 0.089,
      "velocity": 1,
      "hand": "right"
    },
    {
      "midi": 68,
      "time": 243.036,
      "duration": 0.089,
      "velocity": 1,
      "hand": "right"
    },
    {
      "midi": 56,
      "time": 243.125,
      "duration": 0.089,
      "velocity": 1,
      "hand": "left"
    },
    {
      "midi": 54,
      "time": 243.214,
      "duration": 0.714,
      "velocity": 1,
      "hand": "left"
    },
    {
      "midi": 63,
      "time": 243.214,
      "duration": 0.089,
      "velocity": 1,
      "hand": "right"
    },
    {
      "midi": 61,
      "time": 243.304,
      "duration": 0.089,
      "velocity": 1,
      "hand": "right"
    },
    {
      "midi": 68,
      "time": 243.393,
      "duration": 0.089,
      "velocity": 1,
      "hand": "right"
    },
    {
      "midi": 56,
      "time": 243.482,
      "duration": 0.089,
      "velocity": 1,
      "hand": "left"
    },
    {
      "midi": 63,
      "time": 243.571,
      "duration": 0.089,
      "velocity": 1,
      "hand": "right"
    },
    {
      "midi": 61,
      "time": 243.661,
      "duration": 0.089,
      "velocity": 1,
      "hand": "right"
    },
    {
      "midi": 68,
      "time": 243.75,
      "duration": 0.089,
      "velocity": 1,
      "hand": "right"
    },
    {
      "midi": 56,
      "time": 243.839,
      "duration": 0.089,
      "velocity": 1,
      "hand": "left"
    },
    {
      "midi": 53,
      "time": 243.929,
      "duration": 0.714,
      "velocity": 1,
      "hand": "left"
    },
    {
      "midi": 63,
      "time": 243.929,
      "duration": 0.089,
      "velocity": 1,
      "hand": "right"
    },
    {
      "midi": 61,
      "time": 244.018,
      "duration": 0.089,
      "velocity": 1,
      "hand": "right"
    },
    {
      "midi": 68,
      "time": 244.107,
      "duration": 0.089,
      "velocity": 1,
      "hand": "right"
    },
    {
      "midi": 56,
      "time": 244.196,
      "duration": 0.089,
      "velocity": 1,
      "hand": "left"
    },
    {
      "midi": 63,
      "time": 244.286,
      "duration": 0.089,
      "velocity": 1,
      "hand": "right"
    },
    {
      "midi": 61,
      "time": 244.375,
      "duration": 0.089,
      "velocity": 1,
      "hand": "right"
    },
    {
      "midi": 68,
      "time": 244.464,
      "duration": 0.089,
      "velocity": 1,
      "hand": "right"
    },
    {
      "midi": 56,
      "time": 244.554,
      "duration": 0.089,
      "velocity": 1,
      "hand": "left"
    },
    {
      "midi": 51,
      "time": 244.643,
      "duration": 0.714,
      "velocity": 1,
      "hand": "left"
    },
    {
      "midi": 63,
      "time": 244.643,
      "duration": 0.089,
      "velocity": 1,
      "hand": "right"
    },
    {
      "midi": 61,
      "time": 244.732,
      "duration": 0.089,
      "velocity": 1,
      "hand": "right"
    },
    {
      "midi": 68,
      "time": 244.821,
      "duration": 0.089,
      "velocity": 1,
      "hand": "right"
    },
    {
      "midi": 56,
      "time": 244.911,
      "duration": 0.089,
      "velocity": 1,
      "hand": "left"
    },
    {
      "midi": 63,
      "time": 245,
      "duration": 0.089,
      "velocity": 1,
      "hand": "right"
    },
    {
      "midi": 61,
      "time": 245.089,
      "duration": 0.089,
      "velocity": 1,
      "hand": "right"
    },
    {
      "midi": 68,
      "time": 245.179,
      "duration": 0.089,
      "velocity": 1,
      "hand": "right"
    },
    {
      "midi": 56,
      "time": 245.268,
      "duration": 0.089,
      "velocity": 1,
      "hand": "left"
    },
    {
      "midi": 53,
      "time": 245.357,
      "duration": 0.357,
      "velocity": 1,
      "hand": "left"
    },
    {
      "midi": 63,
      "time": 245.357,
      "duration": 0.089,
      "velocity": 1,
      "hand": "right"
    },
    {
      "midi": 61,
      "time": 245.446,
      "duration": 0.089,
      "velocity": 1,
      "hand": "right"
    },
    {
      "midi": 68,
      "time": 245.536,
      "duration": 0.089,
      "velocity": 1,
      "hand": "right"
    },
    {
      "midi": 56,
      "time": 245.625,
      "duration": 0.089,
      "velocity": 1,
      "hand": "left"
    },
    {
      "midi": 49,
      "time": 245.714,
      "duration": 0.357,
      "velocity": 1,
      "hand": "left"
    },
    {
      "midi": 63,
      "time": 245.714,
      "duration": 0.089,
      "velocity": 1,
      "hand": "right"
    },
    {
      "midi": 61,
      "time": 245.804,
      "duration": 0.089,
      "velocity": 1,
      "hand": "right"
    },
    {
      "midi": 68,
      "time": 245.893,
      "duration": 0.089,
      "velocity": 1,
      "hand": "right"
    },
    {
      "midi": 56,
      "time": 245.982,
      "duration": 0.089,
      "velocity": 1,
      "hand": "left"
    },
    {
      "midi": 44,
      "time": 246.071,
      "duration": 1.429,
      "velocity": 1,
      "hand": "left"
    },
    {
      "midi": 63,
      "time": 246.071,
      "duration": 0.089,
      "velocity": 1,
      "hand": "right"
    },
    {
      "midi": 61,
      "time": 246.161,
      "duration": 0.089,
      "velocity": 1,
      "hand": "right"
    },
    {
      "midi": 68,
      "time": 246.25,
      "duration": 0.089,
      "velocity": 1,
      "hand": "right"
    },
    {
      "midi": 53,
      "time": 246.339,
      "duration": 0.089,
      "velocity": 1,
      "hand": "left"
    },
    {
      "midi": 63,
      "time": 246.429,
      "duration": 0.089,
      "velocity": 1,
      "hand": "right"
    },
    {
      "midi": 61,
      "time": 246.518,
      "duration": 0.089,
      "velocity": 1,
      "hand": "right"
    },
    {
      "midi": 68,
      "time": 246.607,
      "duration": 0.089,
      "velocity": 1,
      "hand": "right"
    },
    {
      "midi": 53,
      "time": 246.696,
      "duration": 0.089,
      "velocity": 1,
      "hand": "left"
    },
    {
      "midi": 63,
      "time": 246.786,
      "duration": 0.089,
      "velocity": 1,
      "hand": "right"
    },
    {
      "midi": 61,
      "time": 246.875,
      "duration": 0.089,
      "velocity": 1,
      "hand": "right"
    },
    {
      "midi": 68,
      "time": 246.964,
      "duration": 0.089,
      "velocity": 1,
      "hand": "right"
    },
    {
      "midi": 53,
      "time": 247.054,
      "duration": 0.089,
      "velocity": 1,
      "hand": "left"
    },
    {
      "midi": 63,
      "time": 247.143,
      "duration": 0.089,
      "velocity": 1,
      "hand": "right"
    },
    {
      "midi": 61,
      "time": 247.232,
      "duration": 0.089,
      "velocity": 1,
      "hand": "right"
    },
    {
      "midi": 68,
      "time": 247.321,
      "duration": 0.089,
      "velocity": 1,
      "hand": "right"
    },
    {
      "midi": 53,
      "time": 247.411,
      "duration": 0.089,
      "velocity": 1,
      "hand": "left"
    },
    {
      "midi": 32,
      "time": 247.5,
      "duration": 1.964,
      "velocity": 1,
      "hand": "left"
    },
    {
      "midi": 44,
      "time": 247.5,
      "duration": 1.964,
      "velocity": 1,
      "hand": "left"
    },
    {
      "midi": 65,
      "time": 247.5,
      "duration": 0.089,
      "velocity": 1,
      "hand": "right"
    },
    {
      "midi": 63,
      "time": 247.679,
      "duration": 0.089,
      "velocity": 1,
      "hand": "right"
    },
    {
      "midi": 68,
      "time": 247.768,
      "duration": 0.089,
      "velocity": 1,
      "hand": "right"
    },
    {
      "midi": 56,
      "time": 247.857,
      "duration": 0.089,
      "velocity": 1,
      "hand": "left"
    },
    {
      "midi": 65,
      "time": 248.036,
      "duration": 0.089,
      "velocity": 1,
      "hand": "right"
    },
    {
      "midi": 63,
      "time": 248.125,
      "duration": 0.089,
      "velocity": 1,
      "hand": "right"
    },
    {
      "midi": 68,
      "time": 248.304,
      "duration": 0.089,
      "velocity": 1,
      "hand": "right"
    },
    {
      "midi": 56,
      "time": 248.393,
      "duration": 0.089,
      "velocity": 1,
      "hand": "left"
    },
    {
      "midi": 65,
      "time": 248.482,
      "duration": 0.089,
      "velocity": 1,
      "hand": "right"
    },
    {
      "midi": 63,
      "time": 248.661,
      "duration": 0.089,
      "velocity": 1,
      "hand": "right"
    },
    {
      "midi": 68,
      "time": 248.75,
      "duration": 0.089,
      "velocity": 1,
      "hand": "right"
    },
    {
      "midi": 56,
      "time": 248.929,
      "duration": 0.089,
      "velocity": 1,
      "hand": "left"
    },
    {
      "midi": 65,
      "time": 249.018,
      "duration": 0.089,
      "velocity": 1,
      "hand": "right"
    },
    {
      "midi": 63,
      "time": 249.107,
      "duration": 0.089,
      "velocity": 1,
      "hand": "right"
    },
    {
      "midi": 68,
      "time": 249.286,
      "duration": 0.089,
      "velocity": 1,
      "hand": "right"
    },
    {
      "midi": 56,
      "time": 249.375,
      "duration": 0.089,
      "velocity": 1,
      "hand": "left"
    },
    {
      "midi": 37,
      "time": 249.554,
      "duration": 1.964,
      "velocity": 1,
      "hand": "left"
    },
    {
      "midi": 44,
      "time": 249.554,
      "duration": 1.964,
      "velocity": 1,
      "hand": "left"
    },
    {
      "midi": 54,
      "time": 249.554,
      "duration": 1.964,
      "velocity": 1,
      "hand": "left"
    },
    {
      "midi": 56,
      "time": 249.554,
      "duration": 4.018,
      "velocity": 1,
      "hand": "left"
    },
    {
      "midi": 60,
      "time": 249.554,
      "duration": 1.964,
      "velocity": 1,
      "hand": "right"
    },
    {
      "midi": 63,
      "time": 249.554,
      "duration": 1.964,
      "velocity": 1,
      "hand": "right"
    },
    {
      "midi": 37,
      "time": 251.518,
      "duration": 1.964,
      "velocity": 1,
      "hand": "left"
    },
    {
      "midi": 44,
      "time": 251.518,
      "duration": 1.964,
      "velocity": 1,
      "hand": "left"
    },
    {
      "midi": 53,
      "time": 251.518,
      "duration": 1.964,
      "velocity": 1,
      "hand": "left"
    },
    {
      "midi": 61,
      "time": 251.518,
      "duration": 1.964,
      "velocity": 1,
      "hand": "right"
    }
  ],
  "arrangements": {
    "easy": [
      {
        "midi": 64,
        "time": 3.214,
        "duration": 0.179,
        "velocity": 1,
        "hand": "right"
      },
      {
        "midi": 64,
        "time": 3.929,
        "duration": 0.179,
        "velocity": 1,
        "hand": "right"
      },
      {
        "midi": 64,
        "time": 4.643,
        "duration": 0.179,
        "velocity": 1,
        "hand": "right"
      },
      {
        "midi": 64,
        "time": 5.357,
        "duration": 0.179,
        "velocity": 1,
        "hand": "right"
      },
      {
        "midi": 69,
        "time": 5.893,
        "duration": 0.179,
        "velocity": 1,
        "hand": "right"
      },
      {
        "midi": 73,
        "time": 6.25,
        "duration": 0.179,
        "velocity": 1,
        "hand": "right"
      },
      {
        "midi": 75,
        "time": 6.607,
        "duration": 0.179,
        "velocity": 1,
        "hand": "right"
      },
      {
        "midi": 76,
        "time": 6.964,
        "duration": 0.179,
        "velocity": 1,
        "hand": "right"
      },
      {
        "midi": 69,
        "time": 7.321,
        "duration": 0.179,
        "velocity": 1,
        "hand": "right"
      },
      {
        "midi": 73,
        "time": 7.679,
        "duration": 0.179,
        "velocity": 1,
        "hand": "right"
      },
      {
        "midi": 75,
        "time": 8.036,
        "duration": 0.179,
        "velocity": 1,
        "hand": "right"
      },
      {
        "midi": 76,
        "time": 8.393,
        "duration": 0.179,
        "velocity": 1,
        "hand": "right"
      },
      {
        "midi": 73,
        "time": 8.75,
        "duration": 0.179,
        "velocity": 1,
        "hand": "right"
      },
      {
        "midi": 78,
        "time": 8.929,
        "duration": 0.179,
        "velocity": 1,
        "hand": "right"
      },
      {
        "midi": 95,
        "time": 9.286,
        "duration": 0.179,
        "velocity": 1,
        "hand": "right"
      },
      {
        "midi": 90,
        "time": 9.554,
        "duration": 0.179,
        "velocity": 1,
        "hand": "right"
      },
      {
        "midi": 90,
        "time": 9.821,
        "duration": 0.179,
        "velocity": 1,
        "hand": "right"
      },
      {
        "midi": 87,
        "time": 10.089,
        "duration": 0.179,
        "velocity": 1,
        "hand": "right"
      },
      {
        "midi": 80,
        "time": 10.268,
        "duration": 0.179,
        "velocity": 1,
        "hand": "right"
      },
      {
        "midi": 78,
        "time": 10.714,
        "duration": 0.179,
        "velocity": 1,
        "hand": "right"
      },
      {
        "midi": 75,
        "time": 10.982,
        "duration": 0.179,
        "velocity": 1,
        "hand": "right"
      },
      {
        "midi": 71,
        "time": 11.25,
        "duration": 0.179,
        "velocity": 1,
        "hand": "right"
      },
      {
        "midi": 69,
        "time": 11.607,
        "duration": 0.179,
        "velocity": 1,
        "hand": "right"
      },
      {
        "midi": 73,
        "time": 11.964,
        "duration": 0.179,
        "velocity": 1,
        "hand": "right"
      },
      {
        "midi": 75,
        "time": 12.321,
        "duration": 0.179,
        "velocity": 1,
        "hand": "right"
      },
      {
        "midi": 76,
        "time": 12.679,
        "duration": 0.179,
        "velocity": 1,
        "hand": "right"
      },
      {
        "midi": 70,
        "time": 13.036,
        "duration": 0.179,
        "velocity": 1,
        "hand": "right"
      },
      {
        "midi": 73,
        "time": 13.393,
        "duration": 0.179,
        "velocity": 1,
        "hand": "right"
      },
      {
        "midi": 75,
        "time": 13.75,
        "duration": 0.179,
        "velocity": 1,
        "hand": "right"
      },
      {
        "midi": 76,
        "time": 14.107,
        "duration": 0.179,
        "velocity": 1,
        "hand": "right"
      },
      {
        "midi": 76,
        "time": 14.375,
        "duration": 0.179,
        "velocity": 1,
        "hand": "right"
      },
      {
        "midi": 75,
        "time": 14.643,
        "duration": 0.179,
        "velocity": 1,
        "hand": "right"
      },
      {
        "midi": 80,
        "time": 14.911,
        "duration": 0.179,
        "velocity": 1,
        "hand": "right"
      },
      {
        "midi": 85,
        "time": 15.268,
        "duration": 0.179,
        "velocity": 1,
        "hand": "right"
      },
      {
        "midi": 82,
        "time": 15.714,
        "duration": 0.179,
        "velocity": 1,
        "hand": "right"
      },
      {
        "midi": 83,
        "time": 15.893,
        "duration": 0.179,
        "velocity": 1,
        "hand": "right"
      },
      {
        "midi": 80,
        "time": 16.25,
        "duration": 0.179,
        "velocity": 1,
        "hand": "right"
      },
      {
        "midi": 73,
        "time": 16.429,
        "duration": 0.179,
        "velocity": 1,
        "hand": "right"
      },
      {
        "midi": 70,
        "time": 16.786,
        "duration": 0.179,
        "velocity": 1,
        "hand": "right"
      },
      {
        "midi": 68,
        "time": 17.054,
        "duration": 0.179,
        "velocity": 1,
        "hand": "right"
      },
      {
        "midi": 73,
        "time": 17.411,
        "duration": 0.179,
        "velocity": 1,
        "hand": "right"
      },
      {
        "midi": 73,
        "time": 17.768,
        "duration": 0.179,
        "velocity": 1,
        "hand": "right"
      },
      {
        "midi": 73,
        "time": 18.125,
        "duration": 0.179,
        "velocity": 1,
        "hand": "right"
      },
      {
        "midi": 78,
        "time": 18.304,
        "duration": 0.179,
        "velocity": 1,
        "hand": "right"
      },
      {
        "midi": 73,
        "time": 18.661,
        "duration": 0.179,
        "velocity": 1,
        "hand": "right"
      },
      {
        "midi": 75,
        "time": 19.018,
        "duration": 0.179,
        "velocity": 1,
        "hand": "right"
      },
      {
        "midi": 76,
        "time": 19.375,
        "duration": 0.179,
        "velocity": 1,
        "hand": "right"
      },
      {
        "midi": 71,
        "time": 19.554,
        "duration": 0.179,
        "velocity": 1,
        "hand": "right"
      },
      {
        "midi": 76,
        "time": 19.911,
        "duration": 0.179,
        "velocity": 1,
        "hand": "right"
      },
      {
        "midi": 73,
        "time": 20.268,
        "duration": 0.179,
        "velocity": 1,
        "hand": "right"
      },
      {
        "midi": 73,
        "time": 20.625,
        "duration": 0.179,
        "velocity": 1,
        "hand": "right"
      },
      {
        "midi": 77,
        "time": 20.804,
        "duration": 0.179,
        "velocity": 1,
        "hand": "right"
      },
      {
        "midi": 78,
        "time": 21.161,
        "duration": 0.179,
        "velocity": 1,
        "hand": "right"
      },
      {
        "midi": 77,
        "time": 21.518,
        "duration": 0.179,
        "velocity": 1,
        "hand": "right"
      },
      {
        "midi": 78,
        "time": 21.875,
        "duration": 0.179,
        "velocity": 1,
        "hand": "right"
      },
      {
        "midi": 75,
        "time": 22.054,
        "duration": 0.179,
        "velocity": 1,
        "hand": "right"
      },
      {
        "midi": 76,
        "time": 22.411,
        "duration": 0.179,
        "velocity": 1,
        "hand": "right"
      },
      {
        "midi": 76,
        "time": 22.768,
        "duration": 0.179,
        "velocity": 1,
        "hand": "right"
      },
      {
        "midi": 73,
        "time": 23.125,
        "duration": 0.179,
        "velocity": 1,
        "hand": "right"
      },
      {
        "midi": 78,
        "time": 23.304,
        "duration": 0.179,
        "velocity": 1,
        "hand": "right"
      },
      {
        "midi": 77,
        "time": 23.661,
        "duration": 0.179,
        "velocity": 1,
        "hand": "right"
      },
      {
        "midi": 78,
        "time": 24.018,
        "duration": 0.179,
        "velocity": 1,
        "hand": "right"
      },
      {
        "midi": 73,
        "time": 24.375,
        "duration": 0.179,
        "velocity": 1,
        "hand": "right"
      },
      {
        "midi": 69,
        "time": 24.554,
        "duration": 0.179,
        "velocity": 1,
        "hand": "right"
      },
      {
        "midi": 69,
        "time": 24.911,
        "duration": 0.179,
        "velocity": 1,
        "hand": "right"
      },
      {
        "midi": 71,
        "time": 25.268,
        "duration": 0.179,
        "velocity": 1,
        "hand": "right"
      },
      {
        "midi": 76,
        "time": 25.625,
        "duration": 0.179,
        "velocity": 1,
        "hand": "right"
      },
      {
        "midi": 80,
        "time": 25.804,
        "duration": 0.179,
        "velocity": 1,
        "hand": "right"
      },
      {
        "midi": 78,
        "time": 26.161,
        "duration": 0.179,
        "velocity": 1,
        "hand": "right"
      },
      {
        "midi": 75,
        "time": 26.429,
        "duration": 0.179,
        "velocity": 1,
        "hand": "right"
      },
      {
        "midi": 81,
        "time": 26.696,
        "duration": 0.179,
        "velocity": 1,
        "hand": "right"
      },
      {
        "midi": 85,
        "time": 26.875,
        "duration": 0.179,
        "velocity": 1,
        "hand": "right"
      },
      {
        "midi": 81,
        "time": 27.054,
        "duration": 0.179,
        "velocity": 1,
        "hand": "right"
      },
      {
        "midi": 78,
        "time": 27.411,
        "duration": 0.179,
        "velocity": 1,
        "hand": "right"
      },
      {
        "midi": 78,
        "time": 27.768,
        "duration": 0.179,
        "velocity": 1,
        "hand": "right"
      },
      {
        "midi": 78,
        "time": 28.125,
        "duration": 0.179,
        "velocity": 1,
        "hand": "right"
      },
      {
        "midi": 84,
        "time": 28.304,
        "duration": 0.179,
        "velocity": 1,
        "hand": "right"
      },
      {
        "midi": 84,
        "time": 28.661,
        "duration": 0.179,
        "velocity": 1,
        "hand": "right"
      },
      {
        "midi": 83,
        "time": 29.018,
        "duration": 0.179,
        "velocity": 1,
        "hand": "right"
      },
      {
        "midi": 83,
        "time": 29.375,
        "duration": 0.179,
        "velocity": 1,
        "hand": "right"
      },
      {
        "midi": 78,
        "time": 29.554,
        "duration": 0.179,
        "velocity": 1,
        "hand": "right"
      },
      {
        "midi": 78,
        "time": 29.911,
        "duration": 0.179,
        "velocity": 1,
        "hand": "right"
      },
      {
        "midi": 78,
        "time": 30.268,
        "duration": 0.179,
        "velocity": 1,
        "hand": "right"
      },
      {
        "midi": 78,
        "time": 30.625,
        "duration": 0.179,
        "velocity": 1,
        "hand": "right"
      },
      {
        "midi": 81,
        "time": 30.804,
        "duration": 0.179,
        "velocity": 1,
        "hand": "right"
      },
      {
        "midi": 81,
        "time": 31.161,
        "duration": 0.179,
        "velocity": 1,
        "hand": "right"
      },
      {
        "midi": 84,
        "time": 31.518,
        "duration": 0.179,
        "velocity": 1,
        "hand": "right"
      },
      {
        "midi": 83,
        "time": 31.875,
        "duration": 0.179,
        "velocity": 1,
        "hand": "right"
      },
      {
        "midi": 78,
        "time": 32.054,
        "duration": 0.179,
        "velocity": 1,
        "hand": "right"
      },
      {
        "midi": 78,
        "time": 32.411,
        "duration": 0.179,
        "velocity": 1,
        "hand": "right"
      },
      {
        "midi": 78,
        "time": 32.768,
        "duration": 0.179,
        "velocity": 1,
        "hand": "right"
      },
      {
        "midi": 78,
        "time": 33.125,
        "duration": 0.179,
        "velocity": 1,
        "hand": "right"
      },
      {
        "midi": 81,
        "time": 33.304,
        "duration": 0.179,
        "velocity": 1,
        "hand": "right"
      },
      {
        "midi": 81,
        "time": 33.661,
        "duration": 0.179,
        "velocity": 1,
        "hand": "right"
      },
      {
        "midi": 80,
        "time": 34.018,
        "duration": 0.179,
        "velocity": 1,
        "hand": "right"
      },
      {
        "midi": 68,
        "time": 34.375,
        "duration": 0.179,
        "velocity": 1,
        "hand": "right"
      },
      {
        "midi": 73,
        "time": 34.821,
        "duration": 0.179,
        "velocity": 1,
        "hand": "right"
      },
      {
        "midi": 73,
        "time": 35.089,
        "duration": 0.179,
        "velocity": 1,
        "hand": "right"
      },
      {
        "midi": 73,
        "time": 35.446,
        "duration": 0.179,
        "velocity": 1,
        "hand": "right"
      },
      {
        "midi": 80,
        "time": 35.625,
        "duration": 0.179,
        "velocity": 1,
        "hand": "right"
      },
      {
        "midi": 69,
        "time": 35.893,
        "duration": 0.179,
        "velocity": 1,
        "hand": "right"
      },
      {
        "midi": 73,
        "time": 36.25,
        "duration": 0.179,
        "velocity": 1,
        "hand": "right"
      },
      {
        "midi": 75,
        "time": 36.429,
        "duration": 0.179,
        "velocity": 1,
        "hand": "right"
      },
      {
        "midi": 73,
        "time": 36.875,
        "duration": 0.179,
        "velocity": 1,
        "hand": "right"
      },
      {
        "midi": 80,
        "time": 37.054,
        "duration": 0.179,
        "velocity": 1,
        "hand": "right"
      },
      {
        "midi": 73,
        "time": 37.321,
        "duration": 0.179,
        "velocity": 1,
        "hand": "right"
      },
      {
        "midi": 78,
        "time": 37.5,
        "duration": 0.179,
        "velocity": 1,
        "hand": "right"
      },
      {
        "midi": 87,
        "time": 37.768,
        "duration": 0.179,
        "velocity": 1,
        "hand": "right"
      },
      {
        "midi": 92,
        "time": 38.036,
        "duration": 0.179,
        "velocity": 1,
        "hand": "right"
      },
      {
        "midi": 90,
        "time": 38.393,
        "duration": 0.179,
        "velocity": 1,
        "hand": "right"
      },
      {
        "midi": 87,
        "time": 38.661,
        "duration": 0.179,
        "velocity": 1,
        "hand": "right"
      },
      {
        "midi": 81,
        "time": 39.018,
        "duration": 0.179,
        "velocity": 1,
        "hand": "right"
      },
      {
        "midi": 78,
        "time": 39.286,
        "duration": 0.179,
        "velocity": 1,
        "hand": "right"
      },
      {
        "midi": 75,
        "time": 39.554,
        "duration": 0.179,
        "velocity": 1,
        "hand": "right"
      },
      {
        "midi": 71,
        "time": 39.821,
        "duration": 0.179,
        "velocity": 1,
        "hand": "right"
      },
      {
        "midi": 68,
        "time": 40.089,
        "duration": 0.179,
        "velocity": 1,
        "hand": "right"
      },
      {
        "midi": 68,
        "time": 40.446,
        "duration": 0.179,
        "velocity": 1,
        "hand": "right"
      },
      {
        "midi": 76,
        "time": 40.625,
        "duration": 0.179,
        "velocity": 1,
        "hand": "right"
      },
      {
        "midi": 75,
        "time": 40.893,
        "duration": 0.179,
        "velocity": 1,
        "hand": "right"
      },
      {
        "midi": 76,
        "time": 41.25,
        "duration": 0.179,
        "velocity": 1,
        "hand": "right"
      },
      {
        "midi": 75,
        "time": 41.875,
        "duration": 0.179,
        "velocity": 1,
        "hand": "right"
      },
      {
        "midi": 81,
        "time": 42.054,
        "duration": 0.179,
        "velocity": 1,
        "hand": "right"
      },
      {
        "midi": 78,
        "time": 42.321,
        "duration": 0.179,
        "velocity": 1,
        "hand": "right"
      },
      {
        "midi": 77,
        "time": 42.589,
        "duration": 0.179,
        "velocity": 1,
        "hand": "right"
      },
      {
        "midi": 85,
        "time": 42.768,
        "duration": 0.179,
        "velocity": 1,
        "hand": "right"
      },
      {
        "midi": 74,
        "time": 43.036,
        "duration": 0.179,
        "velocity": 1,
        "hand": "right"
      },
      {
        "midi": 78,
        "time": 43.393,
        "duration": 0.179,
        "velocity": 1,
        "hand": "right"
      },
      {
        "midi": 78,
        "time": 43.75,
        "duration": 0.179,
        "velocity": 1,
        "hand": "right"
      },
      {
        "midi": 77,
        "time": 44.018,
        "duration": 0.179,
        "velocity": 1,
        "hand": "right"
      },
      {
        "midi": 80,
        "time": 44.286,
        "duration": 0.179,
        "velocity": 1,
        "hand": "right"
      },
      {
        "midi": 78,
        "time": 44.554,
        "duration": 0.179,
        "velocity": 1,
        "hand": "right"
      },
      {
        "midi": 81,
        "time": 44.821,
        "duration": 0.179,
        "velocity": 1,
        "hand": "right"
      },
      {
        "midi": 80,
        "time": 45.089,
        "duration": 0.179,
        "velocity": 1,
        "hand": "right"
      },
      {
        "midi": 80,
        "time": 45.446,
        "duration": 0.179,
        "velocity": 1,
        "hand": "right"
      },
      {
        "midi": 87,
        "time": 45.625,
        "duration": 0.179,
        "velocity": 1,
        "hand": "right"
      },
      {
        "midi": 81,
        "time": 45.804,
        "duration": 0.179,
        "velocity": 1,
        "hand": "right"
      },
      {
        "midi": 80,
        "time": 46.071,
        "duration": 0.179,
        "velocity": 1,
        "hand": "right"
      },
      {
        "midi": 86,
        "time": 46.339,
        "duration": 0.179,
        "velocity": 1,
        "hand": "right"
      },
      {
        "midi": 83,
        "time": 46.607,
        "duration": 0.179,
        "velocity": 1,
        "hand": "right"
      },
      {
        "midi": 81,
        "time": 46.786,
        "duration": 0.179,
        "velocity": 1,
        "hand": "right"
      },
      {
        "midi": 78,
        "time": 47.054,
        "duration": 0.179,
        "velocity": 1,
        "hand": "right"
      },
      {
        "midi": 76,
        "time": 47.5,
        "duration": 0.179,
        "velocity": 1,
        "hand": "right"
      },
      {
        "midi": 87,
        "time": 47.679,
        "duration": 0.179,
        "velocity": 1,
        "hand": "right"
      },
      {
        "midi": 83,
        "time": 48.036,
        "duration": 0.179,
        "velocity": 1,
        "hand": "right"
      },
      {
        "midi": 80,
        "time": 48.304,
        "duration": 0.179,
        "velocity": 1,
        "hand": "right"
      },
      {
        "midi": 80,
        "time": 48.571,
        "duration": 0.179,
        "velocity": 1,
        "hand": "right"
      },
      {
        "midi": 92,
        "time": 48.75,
        "duration": 0.179,
        "velocity": 1,
        "hand": "right"
      },
      {
        "midi": 90,
        "time": 48.929,
        "duration": 0.179,
        "velocity": 1,
        "hand": "right"
      },
      {
        "midi": 86,
        "time": 49.286,
        "duration": 0.179,
        "velocity": 1,
        "hand": "right"
      },
      {
        "midi": 83,
        "time": 49.554,
        "duration": 0.179,
        "velocity": 1,
        "hand": "right"
      },
      {
        "midi": 79,
        "time": 49.911,
        "duration": 0.179,
        "velocity": 1,
        "hand": "right"
      },
      {
        "midi": 76,
        "time": 50.179,
        "duration": 0.179,
        "velocity": 1,
        "hand": "right"
      },
      {
        "midi": 72,
        "time": 50.536,
        "duration": 0.179,
        "velocity": 1,
        "hand": "right"
      },
      {
        "midi": 69,
        "time": 50.804,
        "duration": 0.179,
        "velocity": 1,
        "hand": "right"
      },
      {
        "midi": 64,
        "time": 51.161,
        "duration": 0.179,
        "velocity": 1,
        "hand": "right"
      },
      {
        "midi": 93,
        "time": 51.786,
        "duration": 0.179,
        "velocity": 1,
        "hand": "right"
      },
      {
        "midi": 90,
        "time": 52.143,
        "duration": 0.179,
        "velocity": 1,
        "hand": "right"
      },
      {
        "midi": 87,
        "time": 52.5,
        "duration": 0.179,
        "velocity": 1,
        "hand": "right"
      },
      {
        "midi": 92,
        "time": 52.679,
        "duration": 0.179,
        "velocity": 1,
        "hand": "right"
      },
      {
        "midi": 88,
        "time": 53.036,
        "duration": 0.179,
        "velocity": 1,
        "hand": "right"
      },
      {
        "midi": 85,
        "time": 53.393,
        "duration": 0.179,
        "velocity": 1,
        "hand": "right"
      },
      {
        "midi": 80,
        "time": 53.75,
        "duration": 0.179,
        "velocity": 1,
        "hand": "right"
      },
      {
        "midi": 69,
        "time": 53.929,
        "duration": 0.179,
        "velocity": 1,
        "hand": "right"
      },
      {
        "midi": 66,
        "time": 54.286,
        "duration": 0.179,
        "velocity": 1,
        "hand": "right"
      },
      {
        "midi": 63,
        "time": 54.643,
        "duration": 0.179,
        "velocity": 1,
        "hand": "right"
      },
      {
        "midi": 63,
        "time": 55,
        "duration": 0.179,
        "velocity": 1,
        "hand": "right"
      },
      {
        "midi": 68,
        "time": 55.179,
        "duration": 0.179,
        "velocity": 1,
        "hand": "right"
      },
      {
        "midi": 69,
        "time": 55.536,
        "duration": 0.179,
        "velocity": 1,
        "hand": "right"
      },
      {
        "midi": 68,
        "time": 55.893,
        "duration": 0.179,
        "velocity": 1,
        "hand": "right"
      },
      {
        "midi": 67,
        "time": 56.25,
        "duration": 0.179,
        "velocity": 1,
        "hand": "right"
      },
      {
        "midi": 63,
        "time": 56.429,
        "duration": 0.179,
        "velocity": 1,
        "hand": "right"
      },
      {
        "midi": 63,
        "time": 56.786,
        "duration": 0.179,
        "velocity": 1,
        "hand": "right"
      },
      {
        "midi": 61,
        "time": 58.839,
        "duration": 0.357,
        "velocity": 1,
        "hand": "right"
      },
      {
        "midi": 65,
        "time": 59.107,
        "duration": 0.357,
        "velocity": 1,
        "hand": "right"
      },
      {
        "midi": 61,
        "time": 59.464,
        "duration": 0.357,
        "velocity": 1,
        "hand": "right"
      },
      {
        "midi": 61,
        "time": 62.768,
        "duration": 0.357,
        "velocity": 1,
        "hand": "right"
      },
      {
        "midi": 65,
        "time": 63.125,
        "duration": 0.357,
        "velocity": 1,
        "hand": "right"
      },
      {
        "midi": 61,
        "time": 63.482,
        "duration": 0.357,
        "velocity": 1,
        "hand": "right"
      },
      {
        "midi": 68,
        "time": 65.179,
        "duration": 1.339,
        "velocity": 1,
        "hand": "right"
      },
      {
        "midi": 60,
        "time": 65.625,
        "duration": 0.179,
        "velocity": 1,
        "hand": "right"
      },
      {
        "midi": 63,
        "time": 65.804,
        "duration": 0.179,
        "velocity": 1,
        "hand": "right"
      },
      {
        "midi": 60,
        "time": 66.071,
        "duration": 0.179,
        "velocity": 1,
        "hand": "right"
      },
      {
        "midi": 70,
        "time": 66.518,
        "duration": 0.357,
        "velocity": 1,
        "hand": "right"
      },
      {
        "midi": 68,
        "time": 66.786,
        "duration": 0.357,
        "velocity": 1,
        "hand": "right"
      },
      {
        "midi": 73,
        "time": 67.143,
        "duration": 0.357,
        "velocity": 1,
        "hand": "right"
      },
      {
        "midi": 75,
        "time": 67.5,
        "duration": 0.357,
        "velocity": 1,
        "hand": "right"
      },
      {
        "midi": 77,
        "time": 67.768,
        "duration": 1.339,
        "velocity": 1,
        "hand": "right"
      },
      {
        "midi": 61,
        "time": 68.214,
        "duration": 0.179,
        "velocity": 1,
        "hand": "right"
      },
      {
        "midi": 65,
        "time": 68.482,
        "duration": 0.179,
        "velocity": 1,
        "hand": "right"
      },
      {
        "midi": 61,
        "time": 68.661,
        "duration": 0.179,
        "velocity": 1,
        "hand": "right"
      },
      {
        "midi": 80,
        "time": 69.107,
        "duration": 1.339,
        "velocity": 1,
        "hand": "right"
      },
      {
        "midi": 65,
        "time": 69.554,
        "duration": 0.179,
        "velocity": 1,
        "hand": "right"
      },
      {
        "midi": 68,
        "time": 69.821,
        "duration": 0.625,
        "velocity": 1,
        "hand": "right"
      },
      {
        "midi": 65,
        "time": 70,
        "duration": 0.179,
        "velocity": 1,
        "hand": "right"
      },
      {
        "midi": 78,
        "time": 70.446,
        "duration": 0.625,
        "velocity": 1,
        "hand": "right"
      },
      {
        "midi": 63,
        "time": 70.714,
        "duration": 0.179,
        "velocity": 1,
        "hand": "right"
      },
      {
        "midi": 77,
        "time": 71.161,
        "duration": 0.625,
        "velocity": 1,
        "hand": "right"
      },
      {
        "midi": 75,
        "time": 71.786,
        "duration": 0.625,
        "velocity": 1,
        "hand": "right"
      },
      {
        "midi": 60,
        "time": 72.054,
        "duration": 0.179,
        "velocity": 1,
        "hand": "right"
      },
      {
        "midi": 77,
        "time": 72.5,
        "duration": 0.536,
        "velocity": 1,
        "hand": "right"
      },
      {
        "midi": 73,
        "time": 72.946,
        "duration": 0.179,
        "velocity": 1,
        "hand": "right"
      },
      {
        "midi": 68,
        "time": 73.125,
        "duration": 1.339,
        "velocity": 1,
        "hand": "right"
      },
      {
        "midi": 60,
        "time": 73.839,
        "duration": 0.179,
        "velocity": 1,
        "hand": "right"
      },
      {
        "midi": 70,
        "time": 74.464,
        "duration": 2.679,
        "velocity": 1,
        "hand": "right"
      },
      {
        "midi": 61,
        "time": 75.179,
        "duration": 0.179,
        "velocity": 1,
        "hand": "right"
      },
      {
        "midi": 62,
        "time": 76.518,
        "duration": 0.179,
        "velocity": 1,
        "hand": "right"
      },
      {
        "midi": 71,
        "time": 77.143,
        "duration": 0.357,
        "velocity": 1,
        "hand": "right"
      },
      {
        "midi": 70,
        "time": 77.5,
        "duration": 0.357,
        "velocity": 1,
        "hand": "right"
      },
      {
        "midi": 75,
        "time": 77.768,
        "duration": 0.357,
        "velocity": 1,
        "hand": "right"
      },
      {
        "midi": 77,
        "time": 78.125,
        "duration": 0.357,
        "velocity": 1,
        "hand": "right"
      },
      {
        "midi": 78,
        "time": 78.482,
        "duration": 0.625,
        "velocity": 1,
        "hand": "right"
      },
      {
        "midi": 66,
        "time": 78.661,
        "duration": 0.179,
        "velocity": 1,
        "hand": "right"
      },
      {
        "midi": 77,
        "time": 79.107,
        "duration": 0.625,
        "velocity": 1,
        "hand": "right"
      },
      {
        "midi": 65,
        "time": 79.375,
        "duration": 0.179,
        "velocity": 1,
        "hand": "right"
      },
      {
        "midi": 75,
        "time": 79.821,
        "duration": 0.625,
        "velocity": 1,
        "hand": "right"
      },
      {
        "midi": 63,
        "time": 80,
        "duration": 0.179,
        "velocity": 1,
        "hand": "right"
      },
      {
        "midi": 77,
        "time": 80.446,
        "duration": 0.625,
        "velocity": 1,
        "hand": "right"
      },
      {
        "midi": 66,
        "time": 80.714,
        "duration": 0.179,
        "velocity": 1,
        "hand": "right"
      },
      {
        "midi": 60,
        "time": 80.893,
        "duration": 0.179,
        "velocity": 1,
        "hand": "right"
      },
      {
        "midi": 73,
        "time": 81.161,
        "duration": 1.25,
        "velocity": 1,
        "hand": "right"
      },
      {
        "midi": 61,
        "time": 81.607,
        "duration": 0.179,
        "velocity": 1,
        "hand": "right"
      },
      {
        "midi": 65,
        "time": 81.786,
        "duration": 0.179,
        "velocity": 1,
        "hand": "right"
      },
      {
        "midi": 61,
        "time": 82.054,
        "duration": 0.179,
        "velocity": 1,
        "hand": "right"
      },
      {
        "midi": 77,
        "time": 82.5,
        "duration": 0.982,
        "velocity": 1,
        "hand": "right"
      },
      {
        "midi": 61,
        "time": 82.946,
        "duration": 0.179,
        "velocity": 1,
        "hand": "right"
      },
      {
        "midi": 63,
        "time": 83.125,
        "duration": 0.179,
        "velocity": 1,
        "hand": "right"
      },
      {
        "midi": 75,
        "time": 83.482,
        "duration": 0.357,
        "velocity": 1,
        "hand": "right"
      },
      {
        "midi": 75,
        "time": 83.839,
        "duration": 2.679,
        "velocity": 1,
        "hand": "right"
      },
      {
        "midi": 60,
        "time": 84.464,
        "duration": 0.179,
        "velocity": 1,
        "hand": "right"
      },
      {
        "midi": 68,
        "time": 86.518,
        "duration": 1.339,
        "velocity": 1,
        "hand": "right"
      },
      {
        "midi": 60,
        "time": 87.143,
        "duration": 0.179,
        "velocity": 1,
        "hand": "right"
      },
      {
        "midi": 70,
        "time": 87.768,
        "duration": 0.357,
        "velocity": 1,
        "hand": "right"
      },
      {
        "midi": 68,
        "time": 88.125,
        "duration": 0.357,
        "velocity": 1,
        "hand": "right"
      },
      {
        "midi": 73,
        "time": 88.482,
        "duration": 0.357,
        "velocity": 1,
        "hand": "right"
      },
      {
        "midi": 60,
        "time": 88.661,
        "duration": 0.179,
        "velocity": 1,
        "hand": "right"
      },
      {
        "midi": 77,
        "time": 89.107,
        "duration": 1.339,
        "velocity": 1,
        "hand": "right"
      },
      {
        "midi": 61,
        "time": 89.554,
        "duration": 0.179,
        "velocity": 1,
        "hand": "right"
      },
      {
        "midi": 65,
        "time": 89.821,
        "duration": 0.179,
        "velocity": 1,
        "hand": "right"
      },
      {
        "midi": 61,
        "time": 90,
        "duration": 0.179,
        "velocity": 1,
        "hand": "right"
      },
      {
        "midi": 80,
        "time": 90.446,
        "duration": 1.339,
        "velocity": 1,
        "hand": "right"
      },
      {
        "midi": 65,
        "time": 90.893,
        "duration": 0.179,
        "velocity": 1,
        "hand": "right"
      },
      {
        "midi": 68,
        "time": 91.161,
        "duration": 0.625,
        "velocity": 1,
        "hand": "right"
      },
      {
        "midi": 78,
        "time": 91.786,
        "duration": 0.625,
        "velocity": 1,
        "hand": "right"
      },
      {
        "midi": 63,
        "time": 92.054,
        "duration": 0.179,
        "velocity": 1,
        "hand": "right"
      },
      {
        "midi": 77,
        "time": 92.5,
        "duration": 0.625,
        "velocity": 1,
        "hand": "right"
      },
      {
        "midi": 61,
        "time": 92.679,
        "duration": 0.179,
        "velocity": 1,
        "hand": "right"
      },
      {
        "midi": 75,
        "time": 93.125,
        "duration": 0.536,
        "velocity": 1,
        "hand": "right"
      },
      {
        "midi": 60,
        "time": 93.393,
        "duration": 0.179,
        "velocity": 1,
        "hand": "right"
      },
      {
        "midi": 77,
        "time": 93.839,
        "duration": 0.536,
        "velocity": 1,
        "hand": "right"
      },
      {
        "midi": 73,
        "time": 94.286,
        "duration": 0.179,
        "velocity": 1,
        "hand": "right"
      },
      {
        "midi": 60,
        "time": 95.179,
        "duration": 0.179,
        "velocity": 1,
        "hand": "right"
      },
      {
        "midi": 70,
        "time": 95.804,
        "duration": 2.679,
        "velocity": 1,
        "hand": "right"
      },
      {
        "midi": 61,
        "time": 96.518,
        "duration": 0.179,
        "velocity": 1,
        "hand": "right"
      },
      {
        "midi": 62,
        "time": 97.768,
        "duration": 0.179,
        "velocity": 1,
        "hand": "right"
      },
      {
        "midi": 71,
        "time": 98.482,
        "duration": 0.357,
        "velocity": 1,
        "hand": "right"
      },
      {
        "midi": 70,
        "time": 98.839,
        "duration": 0.357,
        "velocity": 1,
        "hand": "right"
      },
      {
        "midi": 75,
        "time": 99.107,
        "duration": 0.357,
        "velocity": 1,
        "hand": "right"
      },
      {
        "midi": 77,
        "time": 99.464,
        "duration": 0.357,
        "velocity": 1,
        "hand": "right"
      },
      {
        "midi": 78,
        "time": 99.821,
        "duration": 0.625,
        "velocity": 1,
        "hand": "right"
      },
      {
        "midi": 66,
        "time": 100,
        "duration": 0.179,
        "velocity": 1,
        "hand": "right"
      },
      {
        "midi": 77,
        "time": 100.446,
        "duration": 0.625,
        "velocity": 1,
        "hand": "right"
      },
      {
        "midi": 65,
        "time": 100.714,
        "duration": 0.179,
        "velocity": 1,
        "hand": "right"
      },
      {
        "midi": 75,
        "time": 101.161,
        "duration": 0.625,
        "velocity": 1,
        "hand": "right"
      },
      {
        "midi": 77,
        "time": 101.786,
        "duration": 0.625,
        "velocity": 1,
        "hand": "right"
      },
      {
        "midi": 66,
        "time": 102.054,
        "duration": 0.179,
        "velocity": 1,
        "hand": "right"
      },
      {
        "midi": 73,
        "time": 102.5,
        "duration": 0.982,
        "velocity": 1,
        "hand": "right"
      },
      {
        "midi": 61,
        "time": 102.946,
        "duration": 0.179,
        "velocity": 1,
        "hand": "right"
      },
      {
        "midi": 65,
        "time": 103.125,
        "duration": 0.179,
        "velocity": 1,
        "hand": "right"
      },
      {
        "midi": 67,
        "time": 103.482,
        "duration": 0.179,
        "velocity": 1,
        "hand": "right"
      },
      {
        "midi": 70,
        "time": 103.661,
        "duration": 0.179,
        "velocity": 1,
        "hand": "right"
      },
      {
        "midi": 60,
        "time": 104.286,
        "duration": 0.179,
        "velocity": 1,
        "hand": "right"
      },
      {
        "midi": 75,
        "time": 104.821,
        "duration": 0.357,
        "velocity": 1,
        "hand": "right"
      },
      {
        "midi": 75,
        "time": 105.179,
        "duration": 1.339,
        "velocity": 1,
        "hand": "right"
      },
      {
        "midi": 60,
        "time": 105.625,
        "duration": 0.179,
        "velocity": 1,
        "hand": "right"
      },
      {
        "midi": 66,
        "time": 105.804,
        "duration": 0.179,
        "velocity": 1,
        "hand": "right"
      },
      {
        "midi": 60,
        "time": 106.071,
        "duration": 0.179,
        "velocity": 1,
        "hand": "right"
      },
      {
        "midi": 73,
        "time": 106.518,
        "duration": 0.625,
        "velocity": 1,
        "hand": "right"
      },
      {
        "midi": 61,
        "time": 106.964,
        "duration": 0.179,
        "velocity": 1,
        "hand": "right"
      },
      {
        "midi": 65,
        "time": 107.143,
        "duration": 0.179,
        "velocity": 1,
        "hand": "right"
      },
      {
        "midi": 80,
        "time": 107.5,
        "duration": 0.357,
        "velocity": 1,
        "hand": "right"
      },
      {
        "midi": 68,
        "time": 107.768,
        "duration": 1.339,
        "velocity": 1,
        "hand": "right"
      },
      {
        "midi": 60,
        "time": 108.482,
        "duration": 0.179,
        "velocity": 1,
        "hand": "right"
      },
      {
        "midi": 70,
        "time": 109.107,
        "duration": 0.536,
        "velocity": 1,
        "hand": "right"
      },
      {
        "midi": 69,
        "time": 109.643,
        "duration": 0.179,
        "velocity": 1,
        "hand": "right"
      },
      {
        "midi": 72,
        "time": 110.268,
        "duration": 0.179,
        "velocity": 1,
        "hand": "right"
      },
      {
        "midi": 84,
        "time": 111.161,
        "duration": 0.893,
        "velocity": 1,
        "hand": "right"
      },
      {
        "midi": 82,
        "time": 111.964,
        "duration": 0.179,
        "velocity": 1,
        "hand": "right"
      },
      {
        "midi": 80,
        "time": 112.232,
        "duration": 0.179,
        "velocity": 1,
        "hand": "right"
      },
      {
        "midi": 76,
        "time": 112.411,
        "duration": 0.179,
        "velocity": 1,
        "hand": "right"
      },
      {
        "midi": 70,
        "time": 112.768,
        "duration": 0.268,
        "velocity": 1,
        "hand": "right"
      },
      {
        "midi": 80,
        "time": 113.036,
        "duration": 0.179,
        "velocity": 1,
        "hand": "right"
      },
      {
        "midi": 60,
        "time": 113.839,
        "duration": 0.179,
        "velocity": 1,
        "hand": "right"
      },
      {
        "midi": 72,
        "time": 114.375,
        "duration": 0.179,
        "velocity": 1,
        "hand": "right"
      },
      {
        "midi": 69,
        "time": 115,
        "duration": 0.179,
        "velocity": 1,
        "hand": "right"
      },
      {
        "midi": 70,
        "time": 115.179,
        "duration": 0.536,
        "velocity": 1,
        "hand": "right"
      },
      {
        "midi": 75,
        "time": 115.625,
        "duration": 0.179,
        "velocity": 1,
        "hand": "right"
      },
      {
        "midi": 68,
        "time": 115.804,
        "duration": 0.625,
        "velocity": 1,
        "hand": "right"
      },
      {
        "midi": 60,
        "time": 116.518,
        "duration": 0.179,
        "velocity": 1,
        "hand": "right"
      },
      {
        "midi": 70,
        "time": 117.143,
        "duration": 0.625,
        "velocity": 1,
        "hand": "right"
      },
      {
        "midi": 73,
        "time": 117.768,
        "duration": 0.179,
        "velocity": 1,
        "hand": "right"
      },
      {
        "midi": 72,
        "time": 118.036,
        "duration": 0.179,
        "velocity": 1,
        "hand": "right"
      },
      {
        "midi": 68,
        "time": 118.482,
        "duration": 1.339,
        "velocity": 1,
        "hand": "right"
      },
      {
        "midi": 60,
        "time": 118.929,
        "duration": 0.179,
        "velocity": 1,
        "hand": "right"
      },
      {
        "midi": 60,
        "time": 119.375,
        "duration": 0.179,
        "velocity": 1,
        "hand": "right"
      },
      {
        "midi": 70,
        "time": 119.821,
        "duration": 0.357,
        "velocity": 1,
        "hand": "right"
      },
      {
        "midi": 68,
        "time": 120.179,
        "duration": 0.357,
        "velocity": 1,
        "hand": "right"
      },
      {
        "midi": 73,
        "time": 120.446,
        "duration": 0.357,
        "velocity": 1,
        "hand": "right"
      },
      {
        "midi": 60,
        "time": 120.714,
        "duration": 0.179,
        "velocity": 1,
        "hand": "right"
      },
      {
        "midi": 77,
        "time": 121.161,
        "duration": 1.339,
        "velocity": 1,
        "hand": "right"
      },
      {
        "midi": 61,
        "time": 121.607,
        "duration": 0.179,
        "velocity": 1,
        "hand": "right"
      },
      {
        "midi": 65,
        "time": 121.786,
        "duration": 0.179,
        "velocity": 1,
        "hand": "right"
      },
      {
        "midi": 61,
        "time": 122.054,
        "duration": 0.179,
        "velocity": 1,
        "hand": "right"
      },
      {
        "midi": 80,
        "time": 122.5,
        "duration": 1.339,
        "velocity": 1,
        "hand": "right"
      },
      {
        "midi": 65,
        "time": 122.946,
        "duration": 0.179,
        "velocity": 1,
        "hand": "right"
      },
      {
        "midi": 68,
        "time": 123.125,
        "duration": 0.625,
        "velocity": 1,
        "hand": "right"
      },
      {
        "midi": 65,
        "time": 123.393,
        "duration": 0.179,
        "velocity": 1,
        "hand": "right"
      },
      {
        "midi": 78,
        "time": 123.839,
        "duration": 0.625,
        "velocity": 1,
        "hand": "right"
      },
      {
        "midi": 63,
        "time": 124.018,
        "duration": 0.179,
        "velocity": 1,
        "hand": "right"
      },
      {
        "midi": 77,
        "time": 124.464,
        "duration": 0.625,
        "velocity": 1,
        "hand": "right"
      },
      {
        "midi": 61,
        "time": 124.732,
        "duration": 0.179,
        "velocity": 1,
        "hand": "right"
      },
      {
        "midi": 75,
        "time": 125.179,
        "duration": 0.536,
        "velocity": 1,
        "hand": "right"
      },
      {
        "midi": 77,
        "time": 125.804,
        "duration": 0.536,
        "velocity": 1,
        "hand": "right"
      },
      {
        "midi": 73,
        "time": 126.339,
        "duration": 0.179,
        "velocity": 1,
        "hand": "right"
      },
      {
        "midi": 68,
        "time": 126.518,
        "duration": 1.339,
        "velocity": 1,
        "hand": "right"
      },
      {
        "midi": 60,
        "time": 127.143,
        "duration": 0.179,
        "velocity": 1,
        "hand": "right"
      },
      {
        "midi": 70,
        "time": 127.768,
        "duration": 2.679,
        "velocity": 1,
        "hand": "right"
      },
      {
        "midi": 61,
        "time": 128.482,
        "duration": 0.179,
        "velocity": 1,
        "hand": "right"
      },
      {
        "midi": 62,
        "time": 129.821,
        "duration": 0.179,
        "velocity": 1,
        "hand": "right"
      },
      {
        "midi": 71,
        "time": 130.446,
        "duration": 0.357,
        "velocity": 1,
        "hand": "right"
      },
      {
        "midi": 70,
        "time": 130.804,
        "duration": 0.357,
        "velocity": 1,
        "hand": "right"
      },
      {
        "midi": 75,
        "time": 131.161,
        "duration": 0.357,
        "velocity": 1,
        "hand": "right"
      },
      {
        "midi": 77,
        "time": 131.518,
        "duration": 0.357,
        "velocity": 1,
        "hand": "right"
      },
      {
        "midi": 78,
        "time": 131.786,
        "duration": 0.625,
        "velocity": 1,
        "hand": "right"
      },
      {
        "midi": 66,
        "time": 132.054,
        "duration": 0.179,
        "velocity": 1,
        "hand": "right"
      },
      {
        "midi": 77,
        "time": 132.5,
        "duration": 0.625,
        "velocity": 1,
        "hand": "right"
      },
      {
        "midi": 65,
        "time": 132.679,
        "duration": 0.179,
        "velocity": 1,
        "hand": "right"
      },
      {
        "midi": 75,
        "time": 133.125,
        "duration": 0.625,
        "velocity": 1,
        "hand": "right"
      },
      {
        "midi": 63,
        "time": 133.393,
        "duration": 0.179,
        "velocity": 1,
        "hand": "right"
      },
      {
        "midi": 77,
        "time": 133.839,
        "duration": 0.625,
        "velocity": 1,
        "hand": "right"
      },
      {
        "midi": 66,
        "time": 134.018,
        "duration": 0.179,
        "velocity": 1,
        "hand": "right"
      },
      {
        "midi": 60,
        "time": 134.286,
        "duration": 0.179,
        "velocity": 1,
        "hand": "right"
      },
      {
        "midi": 61,
        "time": 134.911,
        "duration": 0.179,
        "velocity": 1,
        "hand": "right"
      },
      {
        "midi": 65,
        "time": 135.179,
        "duration": 0.179,
        "velocity": 1,
        "hand": "right"
      },
      {
        "midi": 67,
        "time": 135.446,
        "duration": 0.179,
        "velocity": 1,
        "hand": "right"
      },
      {
        "midi": 70,
        "time": 135.625,
        "duration": 0.179,
        "velocity": 1,
        "hand": "right"
      },
      {
        "midi": 77,
        "time": 135.804,
        "duration": 0.982,
        "velocity": 1,
        "hand": "right"
      },
      {
        "midi": 60,
        "time": 136.25,
        "duration": 0.179,
        "velocity": 1,
        "hand": "right"
      },
      {
        "midi": 66,
        "time": 136.518,
        "duration": 0.179,
        "velocity": 1,
        "hand": "right"
      },
      {
        "midi": 75,
        "time": 136.786,
        "duration": 0.357,
        "velocity": 1,
        "hand": "right"
      },
      {
        "midi": 75,
        "time": 137.143,
        "duration": 1.339,
        "velocity": 1,
        "hand": "right"
      },
      {
        "midi": 60,
        "time": 137.589,
        "duration": 0.179,
        "velocity": 1,
        "hand": "right"
      },
      {
        "midi": 66,
        "time": 137.768,
        "duration": 0.179,
        "velocity": 1,
        "hand": "right"
      },
      {
        "midi": 60,
        "time": 138.036,
        "duration": 0.179,
        "velocity": 1,
        "hand": "right"
      },
      {
        "midi": 73,
        "time": 138.482,
        "duration": 0.625,
        "velocity": 1,
        "hand": "right"
      },
      {
        "midi": 61,
        "time": 138.929,
        "duration": 0.179,
        "velocity": 1,
        "hand": "right"
      },
      {
        "midi": 80,
        "time": 139.464,
        "duration": 0.357,
        "velocity": 1,
        "hand": "right"
      },
      {
        "midi": 68,
        "time": 139.821,
        "duration": 1.339,
        "velocity": 1,
        "hand": "right"
      },
      {
        "midi": 60,
        "time": 140.446,
        "duration": 0.179,
        "velocity": 1,
        "hand": "right"
      },
      {
        "midi": 70,
        "time": 141.161,
        "duration": 0.536,
        "velocity": 1,
        "hand": "right"
      },
      {
        "midi": 69,
        "time": 141.607,
        "duration": 0.179,
        "velocity": 1,
        "hand": "right"
      },
      {
        "midi": 70,
        "time": 141.786,
        "duration": 0.536,
        "velocity": 1,
        "hand": "right"
      },
      {
        "midi": 72,
        "time": 142.321,
        "duration": 0.179,
        "velocity": 1,
        "hand": "right"
      },
      {
        "midi": 68,
        "time": 142.5,
        "duration": 0.357,
        "velocity": 1,
        "hand": "right"
      },
      {
        "midi": 84,
        "time": 143.125,
        "duration": 0.893,
        "velocity": 1,
        "hand": "right"
      },
      {
        "midi": 82,
        "time": 144.018,
        "duration": 0.179,
        "velocity": 1,
        "hand": "right"
      },
      {
        "midi": 76,
        "time": 144.375,
        "duration": 0.179,
        "velocity": 1,
        "hand": "right"
      },
      {
        "midi": 73,
        "time": 144.554,
        "duration": 0.179,
        "velocity": 1,
        "hand": "right"
      },
      {
        "midi": 80,
        "time": 145.089,
        "duration": 0.179,
        "velocity": 1,
        "hand": "right"
      },
      {
        "midi": 60,
        "time": 145.804,
        "duration": 0.179,
        "velocity": 1,
        "hand": "right"
      },
      {
        "midi": 72,
        "time": 146.429,
        "duration": 0.179,
        "velocity": 1,
        "hand": "right"
      },
      {
        "midi": 69,
        "time": 146.964,
        "duration": 0.179,
        "velocity": 1,
        "hand": "right"
      },
      {
        "midi": 70,
        "time": 147.143,
        "duration": 0.536,
        "velocity": 1,
        "hand": "right"
      },
      {
        "midi": 75,
        "time": 147.679,
        "duration": 0.179,
        "velocity": 1,
        "hand": "right"
      },
      {
        "midi": 60,
        "time": 148.482,
        "duration": 0.179,
        "velocity": 1,
        "hand": "right"
      },
      {
        "midi": 70,
        "time": 149.107,
        "duration": 0.625,
        "velocity": 1,
        "hand": "right"
      },
      {
        "midi": 73,
        "time": 149.821,
        "duration": 0.179,
        "velocity": 1,
        "hand": "right"
      },
      {
        "midi": 72,
        "time": 150,
        "duration": 0.179,
        "velocity": 1,
        "hand": "right"
      },
      {
        "midi": 70,
        "time": 150.268,
        "duration": 0.179,
        "velocity": 1,
        "hand": "right"
      },
      {
        "midi": 60,
        "time": 151.161,
        "duration": 0.179,
        "velocity": 1,
        "hand": "right"
      },
      {
        "midi": 70,
        "time": 151.786,
        "duration": 0.357,
        "velocity": 1,
        "hand": "right"
      },
      {
        "midi": 68,
        "time": 152.143,
        "duration": 0.357,
        "velocity": 1,
        "hand": "right"
      },
      {
        "midi": 73,
        "time": 152.5,
        "duration": 0.357,
        "velocity": 1,
        "hand": "right"
      },
      {
        "midi": 75,
        "time": 152.768,
        "duration": 0.357,
        "velocity": 1,
        "hand": "right"
      },
      {
        "midi": 77,
        "time": 153.125,
        "duration": 1.339,
        "velocity": 1,
        "hand": "right"
      },
      {
        "midi": 61,
        "time": 153.571,
        "duration": 0.179,
        "velocity": 1,
        "hand": "right"
      },
      {
        "midi": 65,
        "time": 153.839,
        "duration": 0.179,
        "velocity": 1,
        "hand": "right"
      },
      {
        "midi": 61,
        "time": 154.018,
        "duration": 0.179,
        "velocity": 1,
        "hand": "right"
      },
      {
        "midi": 80,
        "time": 154.464,
        "duration": 1.339,
        "velocity": 1,
        "hand": "right"
      },
      {
        "midi": 65,
        "time": 154.911,
        "duration": 0.179,
        "velocity": 1,
        "hand": "right"
      },
      {
        "midi": 68,
        "time": 155.179,
        "duration": 0.625,
        "velocity": 1,
        "hand": "right"
      },
      {
        "midi": 78,
        "time": 155.804,
        "duration": 0.625,
        "velocity": 1,
        "hand": "right"
      },
      {
        "midi": 63,
        "time": 156.071,
        "duration": 0.179,
        "velocity": 1,
        "hand": "right"
      },
      {
        "midi": 77,
        "time": 156.518,
        "duration": 0.625,
        "velocity": 1,
        "hand": "right"
      },
      {
        "midi": 75,
        "time": 157.143,
        "duration": 0.536,
        "velocity": 1,
        "hand": "right"
      },
      {
        "midi": 77,
        "time": 157.768,
        "duration": 0.536,
        "velocity": 1,
        "hand": "right"
      },
      {
        "midi": 73,
        "time": 158.304,
        "duration": 0.179,
        "velocity": 1,
        "hand": "right"
      },
      {
        "midi": 60,
        "time": 159.107,
        "duration": 0.179,
        "velocity": 1,
        "hand": "right"
      },
      {
        "midi": 70,
        "time": 159.821,
        "duration": 2.679,
        "velocity": 1,
        "hand": "right"
      },
      {
        "midi": 61,
        "time": 160.446,
        "duration": 0.179,
        "velocity": 1,
        "hand": "right"
      },
      {
        "midi": 62,
        "time": 161.786,
        "duration": 0.179,
        "velocity": 1,
        "hand": "right"
      },
      {
        "midi": 71,
        "time": 162.5,
        "duration": 0.357,
        "velocity": 1,
        "hand": "right"
      },
      {
        "midi": 70,
        "time": 162.768,
        "duration": 0.357,
        "velocity": 1,
        "hand": "right"
      },
      {
        "midi": 75,
        "time": 163.125,
        "duration": 0.357,
        "velocity": 1,
        "hand": "right"
      },
      {
        "midi": 77,
        "time": 163.482,
        "duration": 0.357,
        "velocity": 1,
        "hand": "right"
      },
      {
        "midi": 78,
        "time": 163.839,
        "duration": 0.625,
        "velocity": 1,
        "hand": "right"
      },
      {
        "midi": 66,
        "time": 164.018,
        "duration": 0.179,
        "velocity": 1,
        "hand": "right"
      },
      {
        "midi": 77,
        "time": 164.464,
        "duration": 0.625,
        "velocity": 1,
        "hand": "right"
      },
      {
        "midi": 65,
        "time": 164.732,
        "duration": 0.179,
        "velocity": 1,
        "hand": "right"
      },
      {
        "midi": 75,
        "time": 165.179,
        "duration": 0.625,
        "velocity": 1,
        "hand": "right"
      },
      {
        "midi": 77,
        "time": 165.804,
        "duration": 0.625,
        "velocity": 1,
        "hand": "right"
      },
      {
        "midi": 66,
        "time": 166.071,
        "duration": 0.179,
        "velocity": 1,
        "hand": "right"
      },
      {
        "midi": 60,
        "time": 166.25,
        "duration": 0.179,
        "velocity": 1,
        "hand": "right"
      },
      {
        "midi": 73,
        "time": 166.518,
        "duration": 0.982,
        "velocity": 1,
        "hand": "right"
      },
      {
        "midi": 61,
        "time": 166.964,
        "duration": 0.179,
        "velocity": 1,
        "hand": "right"
      },
      {
        "midi": 65,
        "time": 167.143,
        "duration": 0.179,
        "velocity": 1,
        "hand": "right"
      },
      {
        "midi": 68,
        "time": 167.589,
        "duration": 0.179,
        "velocity": 1,
        "hand": "right"
      },
      {
        "midi": 77,
        "time": 167.768,
        "duration": 0.982,
        "velocity": 1,
        "hand": "right"
      },
      {
        "midi": 60,
        "time": 168.214,
        "duration": 0.179,
        "velocity": 1,
        "hand": "right"
      },
      {
        "midi": 66,
        "time": 168.482,
        "duration": 0.179,
        "velocity": 1,
        "hand": "right"
      },
      {
        "midi": 60,
        "time": 168.661,
        "duration": 0.179,
        "velocity": 1,
        "hand": "right"
      },
      {
        "midi": 75,
        "time": 169.107,
        "duration": 2.679,
        "velocity": 1,
        "hand": "right"
      },
      {
        "midi": 60,
        "time": 169.554,
        "duration": 0.179,
        "velocity": 1,
        "hand": "right"
      },
      {
        "midi": 66,
        "time": 169.821,
        "duration": 0.179,
        "velocity": 1,
        "hand": "right"
      },
      {
        "midi": 60,
        "time": 170,
        "duration": 0.179,
        "velocity": 1,
        "hand": "right"
      },
      {
        "midi": 60,
        "time": 170.893,
        "duration": 0.179,
        "velocity": 1,
        "hand": "right"
      },
      {
        "midi": 66,
        "time": 171.161,
        "duration": 0.179,
        "velocity": 1,
        "hand": "right"
      },
      {
        "midi": 68,
        "time": 171.875,
        "duration": 0.179,
        "velocity": 1,
        "hand": "right"
      },
      {
        "midi": 73,
        "time": 172.321,
        "duration": 0.179,
        "velocity": 1,
        "hand": "right"
      },
      {
        "midi": 73,
        "time": 172.589,
        "duration": 0.179,
        "velocity": 1,
        "hand": "right"
      },
      {
        "midi": 73,
        "time": 172.946,
        "duration": 0.179,
        "velocity": 1,
        "hand": "right"
      },
      {
        "midi": 80,
        "time": 173.125,
        "duration": 0.179,
        "velocity": 1,
        "hand": "right"
      },
      {
        "midi": 69,
        "time": 173.393,
        "duration": 0.179,
        "velocity": 1,
        "hand": "right"
      },
      {
        "midi": 73,
        "time": 173.75,
        "duration": 0.179,
        "velocity": 1,
        "hand": "right"
      },
      {
        "midi": 75,
        "time": 173.929,
        "duration": 0.179,
        "velocity": 1,
        "hand": "right"
      },
      {
        "midi": 73,
        "time": 174.375,
        "duration": 0.179,
        "velocity": 1,
        "hand": "right"
      },
      {
        "midi": 80,
        "time": 174.554,
        "duration": 0.179,
        "velocity": 1,
        "hand": "right"
      },
      {
        "midi": 73,
        "time": 174.821,
        "duration": 0.179,
        "velocity": 1,
        "hand": "right"
      },
      {
        "midi": 78,
        "time": 175,
        "duration": 0.179,
        "velocity": 1,
        "hand": "right"
      },
      {
        "midi": 87,
        "time": 175.268,
        "duration": 0.179,
        "velocity": 1,
        "hand": "right"
      },
      {
        "midi": 92,
        "time": 175.536,
        "duration": 0.179,
        "velocity": 1,
        "hand": "right"
      },
      {
        "midi": 90,
        "time": 175.893,
        "duration": 0.179,
        "velocity": 1,
        "hand": "right"
      },
      {
        "midi": 87,
        "time": 176.161,
        "duration": 0.179,
        "velocity": 1,
        "hand": "right"
      },
      {
        "midi": 81,
        "time": 176.518,
        "duration": 0.179,
        "velocity": 1,
        "hand": "right"
      },
      {
        "midi": 78,
        "time": 176.786,
        "duration": 0.179,
        "velocity": 1,
        "hand": "right"
      },
      {
        "midi": 75,
        "time": 177.054,
        "duration": 0.179,
        "velocity": 1,
        "hand": "right"
      },
      {
        "midi": 71,
        "time": 177.321,
        "duration": 0.179,
        "velocity": 1,
        "hand": "right"
      },
      {
        "midi": 68,
        "time": 177.589,
        "duration": 0.179,
        "velocity": 1,
        "hand": "right"
      },
      {
        "midi": 68,
        "time": 177.946,
        "duration": 0.179,
        "velocity": 1,
        "hand": "right"
      },
      {
        "midi": 76,
        "time": 178.125,
        "duration": 0.179,
        "velocity": 1,
        "hand": "right"
      },
      {
        "midi": 75,
        "time": 178.393,
        "duration": 0.179,
        "velocity": 1,
        "hand": "right"
      },
      {
        "midi": 76,
        "time": 178.75,
        "duration": 0.179,
        "velocity": 1,
        "hand": "right"
      },
      {
        "midi": 68,
        "time": 179.018,
        "duration": 0.179,
        "velocity": 1,
        "hand": "right"
      },
      {
        "midi": 68,
        "time": 179.375,
        "duration": 0.179,
        "velocity": 1,
        "hand": "right"
      },
      {
        "midi": 76,
        "time": 179.554,
        "duration": 0.179,
        "velocity": 1,
        "hand": "right"
      },
      {
        "midi": 75,
        "time": 179.821,
        "duration": 0.179,
        "velocity": 1,
        "hand": "right"
      },
      {
        "midi": 73,
        "time": 180.089,
        "duration": 0.179,
        "velocity": 1,
        "hand": "right"
      },
      {
        "midi": 80,
        "time": 180.268,
        "duration": 0.179,
        "velocity": 1,
        "hand": "right"
      },
      {
        "midi": 75,
        "time": 180.536,
        "duration": 0.179,
        "velocity": 1,
        "hand": "right"
      },
      {
        "midi": 83,
        "time": 180.804,
        "duration": 0.179,
        "velocity": 1,
        "hand": "right"
      },
      {
        "midi": 88,
        "time": 181.161,
        "duration": 0.179,
        "velocity": 1,
        "hand": "right"
      },
      {
        "midi": 83,
        "time": 181.429,
        "duration": 0.179,
        "velocity": 1,
        "hand": "right"
      },
      {
        "midi": 82,
        "time": 181.786,
        "duration": 0.179,
        "velocity": 1,
        "hand": "right"
      },
      {
        "midi": 76,
        "time": 182.143,
        "duration": 0.179,
        "velocity": 1,
        "hand": "right"
      },
      {
        "midi": 73,
        "time": 182.5,
        "duration": 0.179,
        "velocity": 1,
        "hand": "right"
      },
      {
        "midi": 75,
        "time": 182.679,
        "duration": 0.179,
        "velocity": 1,
        "hand": "right"
      },
      {
        "midi": 68,
        "time": 183.125,
        "duration": 0.179,
        "velocity": 1,
        "hand": "right"
      },
      {
        "midi": 80,
        "time": 183.304,
        "duration": 0.179,
        "velocity": 1,
        "hand": "right"
      },
      {
        "midi": 78,
        "time": 183.661,
        "duration": 0.179,
        "velocity": 1,
        "hand": "right"
      },
      {
        "midi": 77,
        "time": 184.018,
        "duration": 0.179,
        "velocity": 1,
        "hand": "right"
      },
      {
        "midi": 78,
        "time": 184.375,
        "duration": 0.179,
        "velocity": 1,
        "hand": "right"
      },
      {
        "midi": 73,
        "time": 184.554,
        "duration": 0.179,
        "velocity": 1,
        "hand": "right"
      },
      {
        "midi": 69,
        "time": 184.911,
        "duration": 0.179,
        "velocity": 1,
        "hand": "right"
      },
      {
        "midi": 69,
        "time": 185.268,
        "duration": 0.179,
        "velocity": 1,
        "hand": "right"
      },
      {
        "midi": 71,
        "time": 185.625,
        "duration": 0.179,
        "velocity": 1,
        "hand": "right"
      },
      {
        "midi": 80,
        "time": 185.804,
        "duration": 0.179,
        "velocity": 1,
        "hand": "right"
      },
      {
        "midi": 80,
        "time": 186.161,
        "duration": 0.179,
        "velocity": 1,
        "hand": "right"
      },
      {
        "midi": 78,
        "time": 186.518,
        "duration": 0.179,
        "velocity": 1,
        "hand": "right"
      },
      {
        "midi": 77,
        "time": 186.875,
        "duration": 0.179,
        "velocity": 1,
        "hand": "right"
      },
      {
        "midi": 73,
        "time": 187.054,
        "duration": 0.179,
        "velocity": 1,
        "hand": "right"
      },
      {
        "midi": 73,
        "time": 187.411,
        "duration": 0.179,
        "velocity": 1,
        "hand": "right"
      },
      {
        "midi": 75,
        "time": 187.768,
        "duration": 0.179,
        "velocity": 1,
        "hand": "right"
      },
      {
        "midi": 75,
        "time": 188.125,
        "duration": 0.179,
        "velocity": 1,
        "hand": "right"
      },
      {
        "midi": 81,
        "time": 188.304,
        "duration": 0.179,
        "velocity": 1,
        "hand": "right"
      },
      {
        "midi": 80,
        "time": 188.661,
        "duration": 0.179,
        "velocity": 1,
        "hand": "right"
      },
      {
        "midi": 80,
        "time": 189.018,
        "duration": 0.179,
        "velocity": 1,
        "hand": "right"
      },
      {
        "midi": 78,
        "time": 189.375,
        "duration": 0.179,
        "velocity": 1,
        "hand": "right"
      },
      {
        "midi": 73,
        "time": 189.554,
        "duration": 0.179,
        "velocity": 1,
        "hand": "right"
      },
      {
        "midi": 73,
        "time": 189.911,
        "duration": 0.179,
        "velocity": 1,
        "hand": "right"
      },
      {
        "midi": 73,
        "time": 190.268,
        "duration": 0.179,
        "velocity": 1,
        "hand": "right"
      },
      {
        "midi": 69,
        "time": 190.625,
        "duration": 0.179,
        "velocity": 1,
        "hand": "right"
      },
      {
        "midi": 75,
        "time": 190.804,
        "duration": 0.179,
        "velocity": 1,
        "hand": "right"
      },
      {
        "midi": 76,
        "time": 191.161,
        "duration": 0.179,
        "velocity": 1,
        "hand": "right"
      },
      {
        "midi": 80,
        "time": 191.518,
        "duration": 0.179,
        "velocity": 1,
        "hand": "right"
      },
      {
        "midi": 80,
        "time": 191.875,
        "duration": 0.179,
        "velocity": 1,
        "hand": "right"
      },
      {
        "midi": 73,
        "time": 192.054,
        "duration": 0.179,
        "velocity": 1,
        "hand": "right"
      },
      {
        "midi": 75,
        "time": 192.5,
        "duration": 0.179,
        "velocity": 1,
        "hand": "right"
      },
      {
        "midi": 81,
        "time": 192.768,
        "duration": 0.179,
        "velocity": 1,
        "hand": "right"
      },
      {
        "midi": 81,
        "time": 193.125,
        "duration": 0.179,
        "velocity": 1,
        "hand": "right"
      },
      {
        "midi": 85,
        "time": 193.304,
        "duration": 0.179,
        "velocity": 1,
        "hand": "right"
      },
      {
        "midi": 84,
        "time": 193.661,
        "duration": 0.179,
        "velocity": 1,
        "hand": "right"
      },
      {
        "midi": 84,
        "time": 194.018,
        "duration": 0.179,
        "velocity": 1,
        "hand": "right"
      },
      {
        "midi": 84,
        "time": 194.375,
        "duration": 0.179,
        "velocity": 1,
        "hand": "right"
      },
      {
        "midi": 78,
        "time": 194.554,
        "duration": 0.179,
        "velocity": 1,
        "hand": "right"
      },
      {
        "midi": 78,
        "time": 194.911,
        "duration": 0.179,
        "velocity": 1,
        "hand": "right"
      },
      {
        "midi": 78,
        "time": 195.268,
        "duration": 0.179,
        "velocity": 1,
        "hand": "right"
      },
      {
        "midi": 78,
        "time": 195.625,
        "duration": 0.179,
        "velocity": 1,
        "hand": "right"
      },
      {
        "midi": 82,
        "time": 195.804,
        "duration": 0.179,
        "velocity": 1,
        "hand": "right"
      },
      {
        "midi": 82,
        "time": 196.161,
        "duration": 0.179,
        "velocity": 1,
        "hand": "right"
      },
      {
        "midi": 81,
        "time": 196.518,
        "duration": 0.179,
        "velocity": 1,
        "hand": "right"
      },
      {
        "midi": 81,
        "time": 196.875,
        "duration": 0.179,
        "velocity": 1,
        "hand": "right"
      },
      {
        "midi": 78,
        "time": 197.054,
        "duration": 0.179,
        "velocity": 1,
        "hand": "right"
      },
      {
        "midi": 78,
        "time": 197.411,
        "duration": 0.179,
        "velocity": 1,
        "hand": "right"
      },
      {
        "midi": 78,
        "time": 197.768,
        "duration": 0.179,
        "velocity": 1,
        "hand": "right"
      },
      {
        "midi": 78,
        "time": 198.125,
        "duration": 0.179,
        "velocity": 1,
        "hand": "right"
      },
      {
        "midi": 83,
        "time": 198.304,
        "duration": 0.179,
        "velocity": 1,
        "hand": "right"
      },
      {
        "midi": 82,
        "time": 198.661,
        "duration": 0.179,
        "velocity": 1,
        "hand": "right"
      },
      {
        "midi": 82,
        "time": 199.018,
        "duration": 0.179,
        "velocity": 1,
        "hand": "right"
      },
      {
        "midi": 81,
        "time": 199.375,
        "duration": 0.179,
        "velocity": 1,
        "hand": "right"
      },
      {
        "midi": 78,
        "time": 199.554,
        "duration": 0.179,
        "velocity": 1,
        "hand": "right"
      },
      {
        "midi": 78,
        "time": 199.911,
        "duration": 0.179,
        "velocity": 1,
        "hand": "right"
      },
      {
        "midi": 78,
        "time": 200.268,
        "duration": 0.179,
        "velocity": 1,
        "hand": "right"
      },
      {
        "midi": 69,
        "time": 200.536,
        "duration": 0.179,
        "velocity": 1,
        "hand": "right"
      },
      {
        "midi": 73,
        "time": 200.893,
        "duration": 0.179,
        "velocity": 1,
        "hand": "right"
      },
      {
        "midi": 75,
        "time": 201.25,
        "duration": 0.179,
        "velocity": 1,
        "hand": "right"
      },
      {
        "midi": 73,
        "time": 201.518,
        "duration": 0.179,
        "velocity": 1,
        "hand": "right"
      },
      {
        "midi": 68,
        "time": 201.875,
        "duration": 0.179,
        "velocity": 1,
        "hand": "right"
      },
      {
        "midi": 73,
        "time": 202.321,
        "duration": 0.179,
        "velocity": 1,
        "hand": "right"
      },
      {
        "midi": 73,
        "time": 202.589,
        "duration": 0.179,
        "velocity": 1,
        "hand": "right"
      },
      {
        "midi": 73,
        "time": 202.946,
        "duration": 0.179,
        "velocity": 1,
        "hand": "right"
      },
      {
        "midi": 80,
        "time": 203.125,
        "duration": 0.179,
        "velocity": 1,
        "hand": "right"
      },
      {
        "midi": 73,
        "time": 203.393,
        "duration": 0.179,
        "velocity": 1,
        "hand": "right"
      },
      {
        "midi": 85,
        "time": 203.75,
        "duration": 0.179,
        "velocity": 1,
        "hand": "right"
      },
      {
        "midi": 95,
        "time": 203.929,
        "duration": 0.179,
        "velocity": 1,
        "hand": "right"
      },
      {
        "midi": 88,
        "time": 204.286,
        "duration": 0.179,
        "velocity": 1,
        "hand": "right"
      },
      {
        "midi": 85,
        "time": 204.554,
        "duration": 0.179,
        "velocity": 1,
        "hand": "right"
      },
      {
        "midi": 80,
        "time": 204.911,
        "duration": 0.179,
        "velocity": 1,
        "hand": "right"
      },
      {
        "midi": 76,
        "time": 205.179,
        "duration": 0.179,
        "velocity": 1,
        "hand": "right"
      },
      {
        "midi": 75,
        "time": 205.625,
        "duration": 0.179,
        "velocity": 1,
        "hand": "right"
      },
      {
        "midi": 71,
        "time": 205.893,
        "duration": 0.179,
        "velocity": 1,
        "hand": "right"
      },
      {
        "midi": 69,
        "time": 206.25,
        "duration": 0.179,
        "velocity": 1,
        "hand": "right"
      },
      {
        "midi": 68,
        "time": 206.518,
        "duration": 0.179,
        "velocity": 1,
        "hand": "right"
      },
      {
        "midi": 75,
        "time": 206.786,
        "duration": 0.179,
        "velocity": 1,
        "hand": "right"
      },
      {
        "midi": 73,
        "time": 207.054,
        "duration": 0.179,
        "velocity": 1,
        "hand": "right"
      },
      {
        "midi": 76,
        "time": 207.321,
        "duration": 0.179,
        "velocity": 1,
        "hand": "right"
      },
      {
        "midi": 75,
        "time": 207.589,
        "duration": 0.179,
        "velocity": 1,
        "hand": "right"
      },
      {
        "midi": 75,
        "time": 207.946,
        "duration": 0.179,
        "velocity": 1,
        "hand": "right"
      },
      {
        "midi": 81,
        "time": 208.125,
        "duration": 0.179,
        "velocity": 1,
        "hand": "right"
      },
      {
        "midi": 78,
        "time": 208.393,
        "duration": 0.179,
        "velocity": 1,
        "hand": "right"
      },
      {
        "midi": 80,
        "time": 208.75,
        "duration": 0.179,
        "velocity": 1,
        "hand": "right"
      },
      {
        "midi": 73,
        "time": 209.018,
        "duration": 0.179,
        "velocity": 1,
        "hand": "right"
      },
      {
        "midi": 73,
        "time": 209.375,
        "duration": 0.179,
        "velocity": 1,
        "hand": "right"
      },
      {
        "midi": 81,
        "time": 209.554,
        "duration": 0.179,
        "velocity": 1,
        "hand": "right"
      },
      {
        "midi": 78,
        "time": 209.821,
        "duration": 0.179,
        "velocity": 1,
        "hand": "right"
      },
      {
        "midi": 77,
        "time": 210.089,
        "duration": 0.179,
        "velocity": 1,
        "hand": "right"
      },
      {
        "midi": 85,
        "time": 210.268,
        "duration": 0.179,
        "velocity": 1,
        "hand": "right"
      },
      {
        "midi": 80,
        "time": 210.536,
        "duration": 0.179,
        "velocity": 1,
        "hand": "right"
      },
      {
        "midi": 81,
        "time": 210.893,
        "duration": 0.179,
        "velocity": 1,
        "hand": "right"
      },
      {
        "midi": 81,
        "time": 211.25,
        "duration": 0.179,
        "velocity": 1,
        "hand": "right"
      },
      {
        "midi": 80,
        "time": 211.518,
        "duration": 0.179,
        "velocity": 1,
        "hand": "right"
      },
      {
        "midi": 81,
        "time": 211.875,
        "duration": 0.179,
        "velocity": 1,
        "hand": "right"
      },
      {
        "midi": 80,
        "time": 212.143,
        "duration": 0.179,
        "velocity": 1,
        "hand": "right"
      },
      {
        "midi": 86,
        "time": 212.411,
        "duration": 0.179,
        "velocity": 1,
        "hand": "right"
      },
      {
        "midi": 83,
        "time": 212.679,
        "duration": 0.179,
        "velocity": 1,
        "hand": "right"
      },
      {
        "midi": 79,
        "time": 213.036,
        "duration": 0.179,
        "velocity": 1,
        "hand": "right"
      },
      {
        "midi": 78,
        "time": 213.304,
        "duration": 0.179,
        "velocity": 1,
        "hand": "right"
      },
      {
        "midi": 76,
        "time": 213.571,
        "duration": 0.179,
        "velocity": 1,
        "hand": "right"
      },
      {
        "midi": 86,
        "time": 213.839,
        "duration": 0.179,
        "velocity": 1,
        "hand": "right"
      },
      {
        "midi": 83,
        "time": 214.107,
        "duration": 0.179,
        "velocity": 1,
        "hand": "right"
      },
      {
        "midi": 81,
        "time": 214.286,
        "duration": 0.179,
        "velocity": 1,
        "hand": "right"
      },
      {
        "midi": 80,
        "time": 214.643,
        "duration": 0.179,
        "velocity": 1,
        "hand": "right"
      },
      {
        "midi": 91,
        "time": 214.911,
        "duration": 0.179,
        "velocity": 1,
        "hand": "right"
      },
      {
        "midi": 88,
        "time": 215.179,
        "duration": 0.179,
        "velocity": 1,
        "hand": "right"
      },
      {
        "midi": 84,
        "time": 215.536,
        "duration": 0.179,
        "velocity": 1,
        "hand": "right"
      },
      {
        "midi": 81,
        "time": 215.804,
        "duration": 0.179,
        "velocity": 1,
        "hand": "right"
      },
      {
        "midi": 77,
        "time": 216.161,
        "duration": 0.179,
        "velocity": 1,
        "hand": "right"
      },
      {
        "midi": 74,
        "time": 216.429,
        "duration": 0.179,
        "velocity": 1,
        "hand": "right"
      },
      {
        "midi": 70,
        "time": 216.786,
        "duration": 0.179,
        "velocity": 1,
        "hand": "right"
      },
      {
        "midi": 67,
        "time": 217.054,
        "duration": 0.179,
        "velocity": 1,
        "hand": "right"
      },
      {
        "midi": 61,
        "time": 217.411,
        "duration": 0.179,
        "velocity": 1,
        "hand": "right"
      },
      {
        "midi": 93,
        "time": 217.857,
        "duration": 0.179,
        "velocity": 1,
        "hand": "right"
      },
      {
        "midi": 100,
        "time": 218.036,
        "duration": 0.179,
        "velocity": 1,
        "hand": "right"
      },
      {
        "midi": 97,
        "time": 218.393,
        "duration": 0.179,
        "velocity": 1,
        "hand": "right"
      },
      {
        "midi": 92,
        "time": 218.75,
        "duration": 0.179,
        "velocity": 1,
        "hand": "right"
      },
      {
        "midi": 81,
        "time": 218.929,
        "duration": 0.179,
        "velocity": 1,
        "hand": "right"
      },
      {
        "midi": 78,
        "time": 219.286,
        "duration": 0.179,
        "velocity": 1,
        "hand": "right"
      },
      {
        "midi": 75,
        "time": 219.643,
        "duration": 0.179,
        "velocity": 1,
        "hand": "right"
      },
      {
        "midi": 69,
        "time": 220,
        "duration": 0.179,
        "velocity": 1,
        "hand": "right"
      },
      {
        "midi": 76,
        "time": 220.179,
        "duration": 0.179,
        "velocity": 1,
        "hand": "right"
      },
      {
        "midi": 73,
        "time": 220.536,
        "duration": 0.179,
        "velocity": 1,
        "hand": "right"
      },
      {
        "midi": 68,
        "time": 220.893,
        "duration": 0.179,
        "velocity": 1,
        "hand": "right"
      },
      {
        "midi": 68,
        "time": 221.25,
        "duration": 0.179,
        "velocity": 1,
        "hand": "right"
      },
      {
        "midi": 63,
        "time": 221.429,
        "duration": 0.179,
        "velocity": 1,
        "hand": "right"
      },
      {
        "midi": 63,
        "time": 221.786,
        "duration": 0.179,
        "velocity": 1,
        "hand": "right"
      },
      {
        "midi": 63,
        "time": 222.143,
        "duration": 0.179,
        "velocity": 1,
        "hand": "right"
      },
      {
        "midi": 63,
        "time": 222.5,
        "duration": 0.179,
        "velocity": 1,
        "hand": "right"
      },
      {
        "midi": 68,
        "time": 222.679,
        "duration": 0.179,
        "velocity": 1,
        "hand": "right"
      },
      {
        "midi": 68,
        "time": 223.036,
        "duration": 0.179,
        "velocity": 1,
        "hand": "right"
      },
      {
        "midi": 68,
        "time": 223.393,
        "duration": 0.179,
        "velocity": 1,
        "hand": "right"
      },
      {
        "midi": 76,
        "time": 223.75,
        "duration": 0.179,
        "velocity": 1,
        "hand": "right"
      },
      {
        "midi": 69,
        "time": 223.929,
        "duration": 0.179,
        "velocity": 1,
        "hand": "right"
      },
      {
        "midi": 69,
        "time": 224.286,
        "duration": 0.179,
        "velocity": 1,
        "hand": "right"
      },
      {
        "midi": 69,
        "time": 224.643,
        "duration": 0.179,
        "velocity": 1,
        "hand": "right"
      },
      {
        "midi": 69,
        "time": 225,
        "duration": 0.179,
        "velocity": 1,
        "hand": "right"
      },
      {
        "midi": 73,
        "time": 225.179,
        "duration": 0.179,
        "velocity": 1,
        "hand": "right"
      },
      {
        "midi": 68,
        "time": 225.536,
        "duration": 0.179,
        "velocity": 1,
        "hand": "right"
      },
      {
        "midi": 68,
        "time": 225.893,
        "duration": 0.179,
        "velocity": 1,
        "hand": "right"
      },
      {
        "midi": 68,
        "time": 226.25,
        "duration": 0.179,
        "velocity": 1,
        "hand": "right"
      },
      {
        "midi": 69,
        "time": 226.429,
        "duration": 0.179,
        "velocity": 1,
        "hand": "right"
      },
      {
        "midi": 69,
        "time": 226.786,
        "duration": 0.179,
        "velocity": 1,
        "hand": "right"
      },
      {
        "midi": 69,
        "time": 227.143,
        "duration": 0.179,
        "velocity": 1,
        "hand": "right"
      },
      {
        "midi": 69,
        "time": 227.5,
        "duration": 0.179,
        "velocity": 1,
        "hand": "right"
      },
      {
        "midi": 75,
        "time": 227.679,
        "duration": 0.179,
        "velocity": 1,
        "hand": "right"
      },
      {
        "midi": 73,
        "time": 228.036,
        "duration": 0.179,
        "velocity": 1,
        "hand": "right"
      },
      {
        "midi": 68,
        "time": 228.393,
        "duration": 0.179,
        "velocity": 1,
        "hand": "right"
      },
      {
        "midi": 68,
        "time": 228.75,
        "duration": 0.179,
        "velocity": 1,
        "hand": "right"
      },
      {
        "midi": 63,
        "time": 228.929,
        "duration": 0.179,
        "velocity": 1,
        "hand": "right"
      },
      {
        "midi": 69,
        "time": 229.286,
        "duration": 0.179,
        "velocity": 1,
        "hand": "right"
      },
      {
        "midi": 66,
        "time": 229.643,
        "duration": 0.179,
        "velocity": 1,
        "hand": "right"
      },
      {
        "midi": 69,
        "time": 230,
        "duration": 0.179,
        "velocity": 1,
        "hand": "right"
      },
      {
        "midi": 76,
        "time": 230.179,
        "duration": 0.179,
        "velocity": 1,
        "hand": "right"
      },
      {
        "midi": 68,
        "time": 230.536,
        "duration": 0.179,
        "velocity": 1,
        "hand": "right"
      },
      {
        "midi": 76,
        "time": 230.893,
        "duration": 0.179,
        "velocity": 1,
        "hand": "right"
      },
      {
        "midi": 73,
        "time": 231.25,
        "duration": 0.179,
        "velocity": 1,
        "hand": "right"
      },
      {
        "midi": 69,
        "time": 231.429,
        "duration": 0.179,
        "velocity": 1,
        "hand": "right"
      },
      {
        "midi": 66,
        "time": 231.786,
        "duration": 0.179,
        "velocity": 1,
        "hand": "right"
      },
      {
        "midi": 69,
        "time": 232.143,
        "duration": 0.179,
        "velocity": 1,
        "hand": "right"
      },
      {
        "midi": 66,
        "time": 232.5,
        "duration": 0.179,
        "velocity": 1,
        "hand": "right"
      },
      {
        "midi": 73,
        "time": 232.679,
        "duration": 0.179,
        "velocity": 1,
        "hand": "right"
      },
      {
        "midi": 73,
        "time": 233.036,
        "duration": 0.179,
        "velocity": 1,
        "hand": "right"
      },
      {
        "midi": 73,
        "time": 233.393,
        "duration": 0.179,
        "velocity": 1,
        "hand": "right"
      },
      {
        "midi": 73,
        "time": 233.75,
        "duration": 0.179,
        "velocity": 1,
        "hand": "right"
      },
      {
        "midi": 66,
        "time": 233.929,
        "duration": 0.179,
        "velocity": 1,
        "hand": "right"
      },
      {
        "midi": 69,
        "time": 234.286,
        "duration": 0.179,
        "velocity": 1,
        "hand": "right"
      },
      {
        "midi": 63,
        "time": 234.643,
        "duration": 0.179,
        "velocity": 1,
        "hand": "right"
      },
      {
        "midi": 63,
        "time": 235,
        "duration": 0.179,
        "velocity": 1,
        "hand": "right"
      },
      {
        "midi": 68,
        "time": 235.179,
        "duration": 0.179,
        "velocity": 1,
        "hand": "right"
      },
      {
        "midi": 68,
        "time": 235.536,
        "duration": 0.179,
        "velocity": 1,
        "hand": "right"
      },
      {
        "midi": 68,
        "time": 235.893,
        "duration": 0.179,
        "velocity": 1,
        "hand": "right"
      },
      {
        "midi": 68,
        "time": 236.25,
        "duration": 0.179,
        "velocity": 1,
        "hand": "right"
      },
      {
        "midi": 63,
        "time": 236.429,
        "duration": 0.179,
        "velocity": 1,
        "hand": "right"
      },
      {
        "midi": 63,
        "time": 236.786,
        "duration": 0.179,
        "velocity": 1,
        "hand": "right"
      },
      {
        "midi": 63,
        "time": 237.143,
        "duration": 0.179,
        "velocity": 1,
        "hand": "right"
      },
      {
        "midi": 63,
        "time": 237.5,
        "duration": 0.179,
        "velocity": 1,
        "hand": "right"
      },
      {
        "midi": 68,
        "time": 237.679,
        "duration": 0.179,
        "velocity": 1,
        "hand": "right"
      },
      {
        "midi": 68,
        "time": 238.036,
        "duration": 0.179,
        "velocity": 1,
        "hand": "right"
      },
      {
        "midi": 68,
        "time": 238.393,
        "duration": 0.179,
        "velocity": 1,
        "hand": "right"
      },
      {
        "midi": 68,
        "time": 238.75,
        "duration": 0.179,
        "velocity": 1,
        "hand": "right"
      },
      {
        "midi": 63,
        "time": 238.929,
        "duration": 0.179,
        "velocity": 1,
        "hand": "right"
      },
      {
        "midi": 63,
        "time": 239.286,
        "duration": 0.179,
        "velocity": 1,
        "hand": "right"
      },
      {
        "midi": 63,
        "time": 239.643,
        "duration": 0.179,
        "velocity": 1,
        "hand": "right"
      },
      {
        "midi": 63,
        "time": 240,
        "duration": 0.179,
        "velocity": 1,
        "hand": "right"
      },
      {
        "midi": 68,
        "time": 240.179,
        "duration": 0.179,
        "velocity": 1,
        "hand": "right"
      },
      {
        "midi": 68,
        "time": 240.536,
        "duration": 0.179,
        "velocity": 1,
        "hand": "right"
      },
      {
        "midi": 68,
        "time": 240.893,
        "duration": 0.179,
        "velocity": 1,
        "hand": "right"
      },
      {
        "midi": 68,
        "time": 241.25,
        "duration": 0.179,
        "velocity": 1,
        "hand": "right"
      },
      {
        "midi": 63,
        "time": 241.429,
        "duration": 0.179,
        "velocity": 1,
        "hand": "right"
      },
      {
        "midi": 63,
        "time": 241.786,
        "duration": 0.179,
        "velocity": 1,
        "hand": "right"
      },
      {
        "midi": 63,
        "time": 242.143,
        "duration": 0.179,
        "velocity": 1,
        "hand": "right"
      },
      {
        "midi": 63,
        "time": 242.5,
        "duration": 0.179,
        "velocity": 1,
        "hand": "right"
      },
      {
        "midi": 68,
        "time": 242.679,
        "duration": 0.179,
        "velocity": 1,
        "hand": "right"
      },
      {
        "midi": 68,
        "time": 243.036,
        "duration": 0.179,
        "velocity": 1,
        "hand": "right"
      },
      {
        "midi": 68,
        "time": 243.393,
        "duration": 0.179,
        "velocity": 1,
        "hand": "right"
      },
      {
        "midi": 68,
        "time": 243.75,
        "duration": 0.179,
        "velocity": 1,
        "hand": "right"
      },
      {
        "midi": 63,
        "time": 243.929,
        "duration": 0.179,
        "velocity": 1,
        "hand": "right"
      },
      {
        "midi": 63,
        "time": 244.286,
        "duration": 0.179,
        "velocity": 1,
        "hand": "right"
      },
      {
        "midi": 63,
        "time": 244.643,
        "duration": 0.179,
        "velocity": 1,
        "hand": "right"
      },
      {
        "midi": 63,
        "time": 245,
        "duration": 0.179,
        "velocity": 1,
        "hand": "right"
      },
      {
        "midi": 68,
        "time": 245.179,
        "duration": 0.179,
        "velocity": 1,
        "hand": "right"
      },
      {
        "midi": 68,
        "time": 245.536,
        "duration": 0.179,
        "velocity": 1,
        "hand": "right"
      },
      {
        "midi": 68,
        "time": 245.893,
        "duration": 0.179,
        "velocity": 1,
        "hand": "right"
      },
      {
        "midi": 68,
        "time": 246.25,
        "duration": 0.179,
        "velocity": 1,
        "hand": "right"
      },
      {
        "midi": 63,
        "time": 246.429,
        "duration": 0.179,
        "velocity": 1,
        "hand": "right"
      },
      {
        "midi": 63,
        "time": 246.786,
        "duration": 0.179,
        "velocity": 1,
        "hand": "right"
      },
      {
        "midi": 63,
        "time": 247.143,
        "duration": 0.179,
        "velocity": 1,
        "hand": "right"
      },
      {
        "midi": 65,
        "time": 247.5,
        "duration": 0.179,
        "velocity": 1,
        "hand": "right"
      },
      {
        "midi": 68,
        "time": 247.768,
        "duration": 0.179,
        "velocity": 1,
        "hand": "right"
      },
      {
        "midi": 65,
        "time": 248.036,
        "duration": 0.179,
        "velocity": 1,
        "hand": "right"
      },
      {
        "midi": 68,
        "time": 248.304,
        "duration": 0.179,
        "velocity": 1,
        "hand": "right"
      },
      {
        "midi": 68,
        "time": 248.75,
        "duration": 0.179,
        "velocity": 1,
        "hand": "right"
      },
      {
        "midi": 65,
        "time": 249.018,
        "duration": 0.179,
        "velocity": 1,
        "hand": "right"
      },
      {
        "midi": 68,
        "time": 249.286,
        "duration": 0.179,
        "velocity": 1,
        "hand": "right"
      },
      {
        "midi": 63,
        "time": 249.554,
        "duration": 1.964,
        "velocity": 1,
        "hand": "right"
      },
      {
        "midi": 61,
        "time": 251.518,
        "duration": 1.964,
        "velocity": 1,
        "hand": "right"
      }
    ],
    "medium": [
      {
        "midi": 44,
        "time": 0,
        "duration": 2.857,
        "velocity": 1,
        "hand": "left"
      },
      {
        "midi": 56,
        "time": 0,
        "duration": 2.857,
        "velocity": 1,
        "hand": "left"
      },
      {
        "midi": 37,
        "time": 2.857,
        "duration": 0.089,
        "velocity": 1,
        "hand": "left"
      },
      {
        "midi": 49,
        "time": 2.857,
        "duration": 0.089,
        "velocity": 1,
        "hand": "left"
      },
      {
        "midi": 56,
        "time": 2.946,
        "duration": 0.089,
        "velocity": 1,
        "hand": "left"
      },
      {
        "midi": 61,
        "time": 3.125,
        "duration": 0.089,
        "velocity": 1,
        "hand": "right"
      },
      {
        "midi": 64,
        "time": 3.214,
        "duration": 0.089,
        "velocity": 1,
        "hand": "right"
      },
      {
        "midi": 61,
        "time": 3.304,
        "duration": 0.089,
        "velocity": 1,
        "hand": "right"
      },
      {
        "midi": 49,
        "time": 3.571,
        "duration": 0.089,
        "velocity": 1,
        "hand": "left"
      },
      {
        "midi": 56,
        "time": 3.482,
        "duration": 0.089,
        "velocity": 1,
        "hand": "left"
      },
      {
        "midi": 56,
        "time": 3.661,
        "duration": 0.089,
        "velocity": 1,
        "hand": "left"
      },
      {
        "midi": 61,
        "time": 3.839,
        "duration": 0.089,
        "velocity": 1,
        "hand": "right"
      },
      {
        "midi": 64,
        "time": 3.929,
        "duration": 0.089,
        "velocity": 1,
        "hand": "right"
      },
      {
        "midi": 61,
        "time": 4.018,
        "duration": 0.089,
        "velocity": 1,
        "hand": "right"
      },
      {
        "midi": 49,
        "time": 4.286,
        "duration": 0.089,
        "velocity": 1,
        "hand": "left"
      },
      {
        "midi": 56,
        "time": 4.196,
        "duration": 0.089,
        "velocity": 1,
        "hand": "left"
      },
      {
        "midi": 56,
        "time": 4.375,
        "duration": 0.089,
        "velocity": 1,
        "hand": "left"
      },
      {
        "midi": 61,
        "time": 4.554,
        "duration": 0.089,
        "velocity": 1,
        "hand": "right"
      },
      {
        "midi": 64,
        "time": 4.643,
        "duration": 0.089,
        "velocity": 1,
        "hand": "right"
      },
      {
        "midi": 61,
        "time": 4.732,
        "duration": 0.089,
        "velocity": 1,
        "hand": "right"
      },
      {
        "midi": 49,
        "time": 5,
        "duration": 0.089,
        "velocity": 1,
        "hand": "left"
      },
      {
        "midi": 56,
        "time": 4.911,
        "duration": 0.089,
        "velocity": 1,
        "hand": "left"
      },
      {
        "midi": 56,
        "time": 5.089,
        "duration": 0.089,
        "velocity": 1,
        "hand": "left"
      },
      {
        "midi": 61,
        "time": 5.268,
        "duration": 0.089,
        "velocity": 1,
        "hand": "right"
      },
      {
        "midi": 64,
        "time": 5.357,
        "duration": 0.089,
        "velocity": 1,
        "hand": "right"
      },
      {
        "midi": 61,
        "time": 5.446,
        "duration": 0.089,
        "velocity": 1,
        "hand": "right"
      },
      {
        "midi": 49,
        "time": 5.714,
        "duration": 0.089,
        "velocity": 1,
        "hand": "left"
      },
      {
        "midi": 56,
        "time": 5.625,
        "duration": 0.089,
        "velocity": 1,
        "hand": "left"
      },
      {
        "midi": 56,
        "time": 5.804,
        "duration": 0.089,
        "velocity": 1,
        "hand": "left"
      },
      {
        "midi": 68,
        "time": 5.804,
        "duration": 0.089,
        "velocity": 1,
        "hand": "right"
      },
      {
        "midi": 69,
        "time": 5.893,
        "duration": 0.089,
        "velocity": 1,
        "hand": "right"
      },
      {
        "midi": 61,
        "time": 5.982,
        "duration": 0.089,
        "velocity": 1,
        "hand": "right"
      },
      {
        "midi": 67,
        "time": 6.071,
        "duration": 0.089,
        "velocity": 1,
        "hand": "right"
      },
      {
        "midi": 68,
        "time": 5.982,
        "duration": 0.089,
        "velocity": 1,
        "hand": "right"
      },
      {
        "midi": 61,
        "time": 6.161,
        "duration": 0.089,
        "velocity": 1,
        "hand": "right"
      },
      {
        "midi": 68,
        "time": 6.161,
        "duration": 0.089,
        "velocity": 1,
        "hand": "right"
      },
      {
        "midi": 73,
        "time": 6.25,
        "duration": 0.089,
        "velocity": 1,
        "hand": "right"
      },
      {
        "midi": 52,
        "time": 6.429,
        "duration": 0.089,
        "velocity": 1,
        "hand": "left"
      },
      {
        "midi": 75,
        "time": 6.429,
        "duration": 0.089,
        "velocity": 1,
        "hand": "right"
      },
      {
        "midi": 76,
        "time": 6.339,
        "duration": 0.089,
        "velocity": 1,
        "hand": "right"
      },
      {
        "midi": 56,
        "time": 6.518,
        "duration": 0.089,
        "velocity": 1,
        "hand": "left"
      },
      {
        "midi": 73,
        "time": 6.518,
        "duration": 0.089,
        "velocity": 1,
        "hand": "right"
      },
      {
        "midi": 75,
        "time": 6.607,
        "duration": 0.089,
        "velocity": 1,
        "hand": "right"
      },
      {
        "midi": 61,
        "time": 6.696,
        "duration": 0.089,
        "velocity": 1,
        "hand": "right"
      },
      {
        "midi": 72,
        "time": 6.786,
        "duration": 0.089,
        "velocity": 1,
        "hand": "right"
      },
      {
        "midi": 73,
        "time": 6.696,
        "duration": 0.089,
        "velocity": 1,
        "hand": "right"
      },
      {
        "midi": 61,
        "time": 6.875,
        "duration": 0.089,
        "velocity": 1,
        "hand": "right"
      },
      {
        "midi": 73,
        "time": 6.875,
        "duration": 0.089,
        "velocity": 1,
        "hand": "right"
      },
      {
        "midi": 76,
        "time": 6.964,
        "duration": 0.089,
        "velocity": 1,
        "hand": "right"
      },
      {
        "midi": 49,
        "time": 7.143,
        "duration": 0.089,
        "velocity": 1,
        "hand": "left"
      },
      {
        "midi": 56,
        "time": 7.054,
        "duration": 0.089,
        "velocity": 1,
        "hand": "left"
      },
      {
        "midi": 80,
        "time": 7.054,
        "duration": 0.089,
        "velocity": 1,
        "hand": "right"
      },
      {
        "midi": 56,
        "time": 7.232,
        "duration": 0.089,
        "velocity": 1,
        "hand": "left"
      },
      {
        "midi": 68,
        "time": 7.232,
        "duration": 0.089,
        "velocity": 1,
        "hand": "right"
      },
      {
        "midi": 69,
        "time": 7.321,
        "duration": 0.089,
        "velocity": 1,
        "hand": "right"
      },
      {
        "midi": 61,
        "time": 7.411,
        "duration": 0.089,
        "velocity": 1,
        "hand": "right"
      },
      {
        "midi": 67,
        "time": 7.5,
        "duration": 0.089,
        "velocity": 1,
        "hand": "right"
      },
      {
        "midi": 68,
        "time": 7.411,
        "duration": 0.089,
        "velocity": 1,
        "hand": "right"
      },
      {
        "midi": 61,
        "time": 7.589,
        "duration": 0.089,
        "velocity": 1,
        "hand": "right"
      },
      {
        "midi": 68,
        "time": 7.589,
        "duration": 0.089,
        "velocity": 1,
        "hand": "right"
      },
      {
        "midi": 73,
        "time": 7.679,
        "duration": 0.089,
        "velocity": 1,
        "hand": "right"
      },
      {
        "midi": 52,
        "time": 7.857,
        "duration": 0.089,
        "velocity": 1,
        "hand": "left"
      },
      {
        "midi": 75,
        "time": 7.857,
        "duration": 0.089,
        "velocity": 1,
        "hand": "right"
      },
      {
        "midi": 76,
        "time": 7.768,
        "duration": 0.089,
        "velocity": 1,
        "hand": "right"
      },
      {
        "midi": 56,
        "time": 7.946,
        "duration": 0.089,
        "velocity": 1,
        "hand": "left"
      },
      {
        "midi": 73,
        "time": 7.946,
        "duration": 0.089,
        "velocity": 1,
        "hand": "right"
      },
      {
        "midi": 75,
        "time": 8.036,
        "duration": 0.089,
        "velocity": 1,
        "hand": "right"
      },
      {
        "midi": 61,
        "time": 8.125,
        "duration": 0.089,
        "velocity": 1,
        "hand": "right"
      },
      {
        "midi": 72,
        "time": 8.214,
        "duration": 0.089,
        "velocity": 1,
        "hand": "right"
      },
      {
        "midi": 73,
        "time": 8.125,
        "duration": 0.089,
        "velocity": 1,
        "hand": "right"
      },
      {
        "midi": 61,
        "time": 8.304,
        "duration": 0.089,
        "velocity": 1,
        "hand": "right"
      },
      {
        "midi": 73,
        "time": 8.304,
        "duration": 0.089,
        "velocity": 1,
        "hand": "right"
      },
      {
        "midi": 76,
        "time": 8.393,
        "duration": 0.089,
        "velocity": 1,
        "hand": "right"
      },
      {
        "midi": 51,
        "time": 8.571,
        "duration": 0.089,
        "velocity": 1,
        "hand": "left"
      },
      {
        "midi": 56,
        "time": 8.482,
        "duration": 0.089,
        "velocity": 1,
        "hand": "left"
      },
      {
        "midi": 80,
        "time": 8.482,
        "duration": 0.089,
        "velocity": 1,
        "hand": "right"
      },
      {
        "midi": 57,
        "time": 8.661,
        "duration": 0.089,
        "velocity": 1,
        "hand": "left"
      },
      {
        "midi": 69,
        "time": 8.661,
        "duration": 0.089,
        "velocity": 1,
        "hand": "right"
      },
      {
        "midi": 73,
        "time": 8.75,
        "duration": 0.089,
        "velocity": 1,
        "hand": "right"
      },
      {
        "midi": 61,
        "time": 8.839,
        "duration": 0.089,
        "velocity": 1,
        "hand": "right"
      },
      {
        "midi": 75,
        "time": 8.839,
        "duration": 0.089,
        "velocity": 1,
        "hand": "right"
      },
      {
        "midi": 78,
        "time": 8.929,
        "duration": 0.089,
        "velocity": 1,
        "hand": "right"
      },
      {
        "midi": 61,
        "time": 9.018,
        "duration": 0.089,
        "velocity": 1,
        "hand": "right"
      },
      {
        "midi": 81,
        "time": 9.018,
        "duration": 0.089,
        "velocity": 1,
        "hand": "right"
      },
      {
        "midi": 85,
        "time": 9.107,
        "duration": 0.089,
        "velocity": 1,
        "hand": "right"
      },
      {
        "midi": 54,
        "time": 9.286,
        "duration": 0.089,
        "velocity": 1,
        "hand": "left"
      },
      {
        "midi": 87,
        "time": 9.196,
        "duration": 0.089,
        "velocity": 1,
        "hand": "right"
      },
      {
        "midi": 95,
        "time": 9.286,
        "duration": 0.089,
        "velocity": 1,
        "hand": "right"
      },
      {
        "midi": 61,
        "time": 9.375,
        "duration": 0.089,
        "velocity": 1,
        "hand": "right"
      },
      {
        "midi": 92,
        "time": 9.464,
        "duration": 0.089,
        "velocity": 1,
        "hand": "right"
      },
      {
        "midi": 93,
        "time": 9.375,
        "duration": 0.089,
        "velocity": 1,
        "hand": "right"
      },
      {
        "midi": 63,
        "time": 9.554,
        "duration": 0.089,
        "velocity": 1,
        "hand": "right"
      },
      {
        "midi": 88,
        "time": 9.643,
        "duration": 0.089,
        "velocity": 1,
        "hand": "right"
      },
      {
        "midi": 90,
        "time": 9.554,
        "duration": 0.089,
        "velocity": 1,
        "hand": "right"
      },
      {
        "midi": 63,
        "time": 9.732,
        "duration": 0.089,
        "velocity": 1,
        "hand": "right"
      },
      {
        "midi": 87,
        "time": 9.732,
        "duration": 0.089,
        "velocity": 1,
        "hand": "right"
      },
      {
        "midi": 90,
        "time": 9.821,
        "duration": 0.089,
        "velocity": 1,
        "hand": "right"
      },
      {
        "midi": 44,
        "time": 10,
        "duration": 0.089,
        "velocity": 1,
        "hand": "left"
      },
      {
        "midi": 84,
        "time": 10,
        "duration": 0.089,
        "velocity": 1,
        "hand": "right"
      },
      {
        "midi": 85,
        "time": 9.911,
        "duration": 0.089,
        "velocity": 1,
        "hand": "right"
      },
      {
        "midi": 51,
        "time": 10.089,
        "duration": 0.089,
        "velocity": 1,
        "hand": "left"
      },
      {
        "midi": 81,
        "time": 10.179,
        "duration": 0.089,
        "velocity": 1,
        "hand": "right"
      },
      {
        "midi": 87,
        "time": 10.089,
        "duration": 0.089,
        "velocity": 1,
        "hand": "right"
      },
      {
        "midi": 54,
        "time": 10.268,
        "duration": 0.089,
        "velocity": 1,
        "hand": "left"
      },
      {
        "midi": 78,
        "time": 10.357,
        "duration": 0.089,
        "velocity": 1,
        "hand": "right"
      },
      {
        "midi": 80,
        "time": 10.268,
        "duration": 0.089,
        "velocity": 1,
        "hand": "right"
      },
      {
        "midi": 54,
        "time": 10.446,
        "duration": 0.089,
        "velocity": 1,
        "hand": "left"
      },
      {
        "midi": 76,
        "time": 10.536,
        "duration": 0.089,
        "velocity": 1,
        "hand": "right"
      },
      {
        "midi": 81,
        "time": 10.446,
        "duration": 0.089,
        "velocity": 1,
        "hand": "right"
      },
      {
        "midi": 44,
        "time": 10.714,
        "duration": 0.089,
        "velocity": 1,
        "hand": "left"
      },
      {
        "midi": 75,
        "time": 10.625,
        "duration": 0.089,
        "velocity": 1,
        "hand": "right"
      },
      {
        "midi": 78,
        "time": 10.714,
        "duration": 0.089,
        "velocity": 1,
        "hand": "right"
      },
      {
        "midi": 51,
        "time": 10.804,
        "duration": 0.089,
        "velocity": 1,
        "hand": "left"
      },
      {
        "midi": 72,
        "time": 10.893,
        "duration": 0.089,
        "velocity": 1,
        "hand": "right"
      },
      {
        "midi": 73,
        "time": 10.804,
        "duration": 0.089,
        "velocity": 1,
        "hand": "right"
      },
      {
        "midi": 54,
        "time": 10.982,
        "duration": 0.089,
        "velocity": 1,
        "hand": "left"
      },
      {
        "midi": 69,
        "time": 11.071,
        "duration": 0.089,
        "velocity": 1,
        "hand": "right"
      },
      {
        "midi": 75,
        "time": 10.982,
        "duration": 0.089,
        "velocity": 1,
        "hand": "right"
      },
      {
        "midi": 54,
        "time": 11.161,
        "duration": 0.089,
        "velocity": 1,
        "hand": "left"
      },
      {
        "midi": 68,
        "time": 11.161,
        "duration": 0.089,
        "velocity": 1,
        "hand": "right"
      },
      {
        "midi": 71,
        "time": 11.25,
        "duration": 0.089,
        "velocity": 1,
        "hand": "right"
      },
      {
        "midi": 49,
        "time": 11.429,
        "duration": 0.089,
        "velocity": 1,
        "hand": "left"
      },
      {
        "midi": 51,
        "time": 11.339,
        "duration": 0.089,
        "velocity": 1,
        "hand": "left"
      },
      {
        "midi": 69,
        "time": 11.339,
        "duration": 0.179,
        "velocity": 1,
        "hand": "right"
      },
      {
        "midi": 56,
        "time": 11.518,
        "duration": 0.089,
        "velocity": 1,
        "hand": "left"
      },
      {
        "midi": 68,
        "time": 11.518,
        "duration": 0.089,
        "velocity": 1,
        "hand": "right"
      },
      {
        "midi": 69,
        "time": 11.607,
        "duration": 0.089,
        "velocity": 1,
        "hand": "right"
      },
      {
        "midi": 61,
        "time": 11.696,
        "duration": 0.089,
        "velocity": 1,
        "hand": "right"
      },
      {
        "midi": 67,
        "time": 11.786,
        "duration": 0.089,
        "velocity": 1,
        "hand": "right"
      },
      {
        "midi": 68,
        "time": 11.696,
        "duration": 0.089,
        "velocity": 1,
        "hand": "right"
      },
      {
        "midi": 61,
        "time": 11.875,
        "duration": 0.089,
        "velocity": 1,
        "hand": "right"
      },
      {
        "midi": 68,
        "time": 11.875,
        "duration": 0.089,
        "velocity": 1,
        "hand": "right"
      },
      {
        "midi": 73,
        "time": 11.964,
        "duration": 0.089,
        "velocity": 1,
        "hand": "right"
      },
      {
        "midi": 52,
        "time": 12.143,
        "duration": 0.089,
        "velocity": 1,
        "hand": "left"
      },
      {
        "midi": 75,
        "time": 12.143,
        "duration": 0.089,
        "velocity": 1,
        "hand": "right"
      },
      {
        "midi": 76,
        "time": 12.054,
        "duration": 0.089,
        "velocity": 1,
        "hand": "right"
      },
      {
        "midi": 56,
        "time": 12.232,
        "duration": 0.089,
        "velocity": 1,
        "hand": "left"
      },
      {
        "midi": 73,
        "time": 12.232,
        "duration": 0.089,
        "velocity": 1,
        "hand": "right"
      },
      {
        "midi": 75,
        "time": 12.321,
        "duration": 0.089,
        "velocity": 1,
        "hand": "right"
      },
      {
        "midi": 61,
        "time": 12.411,
        "duration": 0.089,
        "velocity": 1,
        "hand": "right"
      },
      {
        "midi": 72,
        "time": 12.5,
        "duration": 0.089,
        "velocity": 1,
        "hand": "right"
      },
      {
        "midi": 73,
        "time": 12.411,
        "duration": 0.089,
        "velocity": 1,
        "hand": "right"
      },
      {
        "midi": 61,
        "time": 12.589,
        "duration": 0.089,
        "velocity": 1,
        "hand": "right"
      },
      {
        "midi": 73,
        "time": 12.589,
        "duration": 0.089,
        "velocity": 1,
        "hand": "right"
      },
      {
        "midi": 76,
        "time": 12.679,
        "duration": 0.089,
        "velocity": 1,
        "hand": "right"
      },
      {
        "midi": 49,
        "time": 12.857,
        "duration": 0.089,
        "velocity": 1,
        "hand": "left"
      },
      {
        "midi": 56,
        "time": 12.768,
        "duration": 0.089,
        "velocity": 1,
        "hand": "left"
      },
      {
        "midi": 80,
        "time": 12.768,
        "duration": 0.089,
        "velocity": 1,
        "hand": "right"
      },
      {
        "midi": 56,
        "time": 12.946,
        "duration": 0.089,
        "velocity": 1,
        "hand": "left"
      },
      {
        "midi": 68,
        "time": 12.946,
        "duration": 0.089,
        "velocity": 1,
        "hand": "right"
      },
      {
        "midi": 70,
        "time": 13.036,
        "duration": 0.089,
        "velocity": 1,
        "hand": "right"
      },
      {
        "midi": 58,
        "time": 13.125,
        "duration": 0.089,
        "velocity": 1,
        "hand": "left"
      },
      {
        "midi": 67,
        "time": 13.214,
        "duration": 0.089,
        "velocity": 1,
        "hand": "right"
      },
      {
        "midi": 68,
        "time": 13.125,
        "duration": 0.089,
        "velocity": 1,
        "hand": "right"
      },
      {
        "midi": 58,
        "time": 13.304,
        "duration": 0.089,
        "velocity": 1,
        "hand": "left"
      },
      {
        "midi": 68,
        "time": 13.304,
        "duration": 0.089,
        "velocity": 1,
        "hand": "right"
      },
      {
        "midi": 73,
        "time": 13.393,
        "duration": 0.089,
        "velocity": 1,
        "hand": "right"
      },
      {
        "midi": 52,
        "time": 13.571,
        "duration": 0.089,
        "velocity": 1,
        "hand": "left"
      },
      {
        "midi": 75,
        "time": 13.571,
        "duration": 0.089,
        "velocity": 1,
        "hand": "right"
      },
      {
        "midi": 76,
        "time": 13.482,
        "duration": 0.089,
        "velocity": 1,
        "hand": "right"
      },
      {
        "midi": 56,
        "time": 13.661,
        "duration": 0.089,
        "velocity": 1,
        "hand": "left"
      },
      {
        "midi": 73,
        "time": 13.661,
        "duration": 0.089,
        "velocity": 1,
        "hand": "right"
      },
      {
        "midi": 75,
        "time": 13.75,
        "duration": 0.089,
        "velocity": 1,
        "hand": "right"
      },
      {
        "midi": 58,
        "time": 13.839,
        "duration": 0.089,
        "velocity": 1,
        "hand": "left"
      },
      {
        "midi": 72,
        "time": 13.929,
        "duration": 0.089,
        "velocity": 1,
        "hand": "right"
      },
      {
        "midi": 73,
        "time": 13.839,
        "duration": 0.089,
        "velocity": 1,
        "hand": "right"
      },
      {
        "midi": 58,
        "time": 14.018,
        "duration": 0.089,
        "velocity": 1,
        "hand": "left"
      },
      {
        "midi": 73,
        "time": 14.018,
        "duration": 0.089,
        "velocity": 1,
        "hand": "right"
      },
      {
        "midi": 76,
        "time": 14.107,
        "duration": 0.089,
        "velocity": 1,
        "hand": "right"
      },
      {
        "midi": 51,
        "time": 14.286,
        "duration": 0.089,
        "velocity": 1,
        "hand": "left"
      },
      {
        "midi": 75,
        "time": 14.286,
        "duration": 0.089,
        "velocity": 1,
        "hand": "right"
      },
      {
        "midi": 80,
        "time": 14.196,
        "duration": 0.089,
        "velocity": 1,
        "hand": "right"
      },
      {
        "midi": 56,
        "time": 14.375,
        "duration": 0.089,
        "velocity": 1,
        "hand": "left"
      },
      {
        "midi": 75,
        "time": 14.464,
        "duration": 0.089,
        "velocity": 1,
        "hand": "right"
      },
      {
        "midi": 76,
        "time": 14.375,
        "duration": 0.089,
        "velocity": 1,
        "hand": "right"
      },
      {
        "midi": 59,
        "time": 14.554,
        "duration": 0.089,
        "velocity": 1,
        "hand": "left"
      },
      {
        "midi": 74,
        "time": 14.554,
        "duration": 0.089,
        "velocity": 1,
        "hand": "right"
      },
      {
        "midi": 75,
        "time": 14.643,
        "duration": 0.089,
        "velocity": 1,
        "hand": "right"
      },
      {
        "midi": 59,
        "time": 14.732,
        "duration": 0.089,
        "velocity": 1,
        "hand": "left"
      },
      {
        "midi": 82,
        "time": 14.821,
        "duration": 0.089,
        "velocity": 1,
        "hand": "right"
      },
      {
        "midi": 83,
        "time": 14.732,
        "duration": 0.089,
        "velocity": 1,
        "hand": "right"
      },
      {
        "midi": 51,
        "time": 15,
        "duration": 0.089,
        "velocity": 1,
        "hand": "left"
      },
      {
        "midi": 79,
        "time": 15,
        "duration": 0.089,
        "velocity": 1,
        "hand": "right"
      },
      {
        "midi": 80,
        "time": 14.911,
        "duration": 0.089,
        "velocity": 1,
        "hand": "right"
      },
      {
        "midi": 58,
        "time": 15.089,
        "duration": 0.089,
        "velocity": 1,
        "hand": "left"
      },
      {
        "midi": 87,
        "time": 15.179,
        "duration": 0.089,
        "velocity": 1,
        "hand": "right"
      },
      {
        "midi": 88,
        "time": 15.089,
        "duration": 0.089,
        "velocity": 1,
        "hand": "right"
      },
      {
        "midi": 61,
        "time": 15.268,
        "duration": 0.089,
        "velocity": 1,
        "hand": "right"
      },
      {
        "midi": 83,
        "time": 15.357,
        "duration": 0.089,
        "velocity": 1,
        "hand": "right"
      },
      {
        "midi": 85,
        "time": 15.268,
        "duration": 0.089,
        "velocity": 1,
        "hand": "right"
      },
      {
        "midi": 61,
        "time": 15.446,
        "duration": 0.089,
        "velocity": 1,
        "hand": "right"
      },
      {
        "midi": 80,
        "time": 15.536,
        "duration": 0.089,
        "velocity": 1,
        "hand": "right"
      },
      {
        "midi": 82,
        "time": 15.446,
        "duration": 0.089,
        "velocity": 1,
        "hand": "right"
      },
      {
        "midi": 44,
        "time": 15.714,
        "duration": 0.089,
        "velocity": 1,
        "hand": "left"
      },
      {
        "midi": 79,
        "time": 15.625,
        "duration": 0.089,
        "velocity": 1,
        "hand": "right"
      },
      {
        "midi": 82,
        "time": 15.714,
        "duration": 0.089,
        "velocity": 1,
        "hand": "right"
      },
      {
        "midi": 51,
        "time": 15.804,
        "duration": 0.089,
        "velocity": 1,
        "hand": "left"
      },
      {
        "midi": 80,
        "time": 15.804,
        "duration": 0.089,
        "velocity": 1,
        "hand": "right"
      },
      {
        "midi": 83,
        "time": 15.893,
        "duration": 0.089,
        "velocity": 1,
        "hand": "right"
      },
      {
        "midi": 56,
        "time": 15.982,
        "duration": 0.089,
        "velocity": 1,
        "hand": "left"
      },
      {
        "midi": 74,
        "time": 15.982,
        "duration": 0.089,
        "velocity": 1,
        "hand": "right"
      },
      {
        "midi": 76,
        "time": 16.071,
        "duration": 0.089,
        "velocity": 1,
        "hand": "right"
      },
      {
        "midi": 56,
        "time": 16.161,
        "duration": 0.089,
        "velocity": 1,
        "hand": "left"
      },
      {
        "midi": 75,
        "time": 16.161,
        "duration": 0.089,
        "velocity": 1,
        "hand": "right"
      },
      {
        "midi": 80,
        "time": 16.25,
        "duration": 0.089,
        "velocity": 1,
        "hand": "right"
      },
      {
        "midi": 44,
        "time": 16.429,
        "duration": 0.089,
        "velocity": 1,
        "hand": "left"
      },
      {
        "midi": 70,
        "time": 16.339,
        "duration": 0.089,
        "velocity": 1,
        "hand": "right"
      },
      {
        "midi": 73,
        "time": 16.429,
        "duration": 0.089,
        "velocity": 1,
        "hand": "right"
      },
      {
        "midi": 51,
        "time": 16.518,
        "duration": 0.089,
        "velocity": 1,
        "hand": "left"
      },
      {
        "midi": 71,
        "time": 16.518,
        "duration": 0.089,
        "velocity": 1,
        "hand": "right"
      },
      {
        "midi": 75,
        "time": 16.607,
        "duration": 0.089,
        "velocity": 1,
        "hand": "right"
      },
      {
        "midi": 56,
        "time": 16.696,
        "duration": 0.089,
        "velocity": 1,
        "hand": "left"
      },
      {
        "midi": 67,
        "time": 16.696,
        "duration": 0.089,
        "velocity": 1,
        "hand": "right"
      },
      {
        "midi": 70,
        "time": 16.786,
        "duration": 0.089,
        "velocity": 1,
        "hand": "right"
      },
      {
        "midi": 56,
        "time": 16.875,
        "duration": 0.089,
        "velocity": 1,
        "hand": "left"
      },
      {
        "midi": 67,
        "time": 16.964,
        "duration": 0.089,
        "velocity": 1,
        "hand": "right"
      },
      {
        "midi": 68,
        "time": 16.875,
        "duration": 0.089,
        "velocity": 1,
        "hand": "right"
      },
      {
        "midi": 45,
        "time": 17.143,
        "duration": 0.089,
        "velocity": 1,
        "hand": "left"
      },
      {
        "midi": 68,
        "time": 17.143,
        "duration": 0.089,
        "velocity": 1,
        "hand": "right"
      },
      {
        "midi": 49,
        "time": 17.232,
        "duration": 0.089,
        "velocity": 1,
        "hand": "left"
      },
      {
        "midi": 72,
        "time": 17.321,
        "duration": 0.089,
        "velocity": 1,
        "hand": "right"
      },
      {
        "midi": 80,
        "time": 17.232,
        "duration": 0.089,
        "velocity": 1,
        "hand": "right"
      },
      {
        "midi": 54,
        "time": 17.411,
        "duration": 0.089,
        "velocity": 1,
        "hand": "left"
      },
      {
        "midi": 66,
        "time": 17.5,
        "duration": 0.089,
        "velocity": 1,
        "hand": "right"
      },
      {
        "midi": 73,
        "time": 17.411,
        "duration": 0.089,
        "velocity": 1,
        "hand": "right"
      },
      {
        "midi": 54,
        "time": 17.589,
        "duration": 0.089,
        "velocity": 1,
        "hand": "left"
      },
      {
        "midi": 72,
        "time": 17.679,
        "duration": 0.089,
        "velocity": 1,
        "hand": "right"
      },
      {
        "midi": 78,
        "time": 17.589,
        "duration": 0.089,
        "velocity": 1,
        "hand": "right"
      },
      {
        "midi": 45,
        "time": 17.857,
        "duration": 0.089,
        "velocity": 1,
        "hand": "left"
      },
      {
        "midi": 65,
        "time": 17.857,
        "duration": 0.089,
        "velocity": 1,
        "hand": "right"
      },
      {
        "midi": 73,
        "time": 17.768,
        "duration": 0.089,
        "velocity": 1,
        "hand": "right"
      },
      {
        "midi": 49,
        "time": 17.946,
        "duration": 0.089,
        "velocity": 1,
        "hand": "left"
      },
      {
        "midi": 72,
        "time": 18.036,
        "duration": 0.089,
        "velocity": 1,
        "hand": "right"
      },
      {
        "midi": 77,
        "time": 17.946,
        "duration": 0.089,
        "velocity": 1,
        "hand": "right"
      },
      {
        "midi": 54,
        "time": 18.125,
        "duration": 0.089,
        "velocity": 1,
        "hand": "left"
      },
      {
        "midi": 66,
        "time": 18.214,
        "duration": 0.089,
        "velocity": 1,
        "hand": "right"
      },
      {
        "midi": 73,
        "time": 18.125,
        "duration": 0.089,
        "velocity": 1,
        "hand": "right"
      },
      {
        "midi": 54,
        "time": 18.304,
        "duration": 0.089,
        "velocity": 1,
        "hand": "left"
      },
      {
        "midi": 72,
        "time": 18.393,
        "duration": 0.089,
        "velocity": 1,
        "hand": "right"
      },
      {
        "midi": 78,
        "time": 18.304,
        "duration": 0.089,
        "velocity": 1,
        "hand": "right"
      },
      {
        "midi": 47,
        "time": 18.571,
        "duration": 0.089,
        "velocity": 1,
        "hand": "left"
      },
      {
        "midi": 61,
        "time": 18.571,
        "duration": 0.089,
        "velocity": 1,
        "hand": "right"
      },
      {
        "midi": 73,
        "time": 18.482,
        "duration": 0.089,
        "velocity": 1,
        "hand": "right"
      },
      {
        "midi": 54,
        "time": 18.661,
        "duration": 0.089,
        "velocity": 1,
        "hand": "left"
      },
      {
        "midi": 66,
        "time": 18.75,
        "duration": 0.089,
        "velocity": 1,
        "hand": "right"
      },
      {
        "midi": 73,
        "time": 18.661,
        "duration": 0.089,
        "velocity": 1,
        "hand": "right"
      },
      {
        "midi": 57,
        "time": 18.839,
        "duration": 0.089,
        "velocity": 1,
        "hand": "left"
      },
      {
        "midi": 63,
        "time": 18.929,
        "duration": 0.089,
        "velocity": 1,
        "hand": "right"
      },
      {
        "midi": 69,
        "time": 18.839,
        "duration": 0.089,
        "velocity": 1,
        "hand": "right"
      },
      {
        "midi": 57,
        "time": 19.018,
        "duration": 0.089,
        "velocity": 1,
        "hand": "left"
      },
      {
        "midi": 66,
        "time": 19.107,
        "duration": 0.089,
        "velocity": 1,
        "hand": "right"
      },
      {
        "midi": 75,
        "time": 19.018,
        "duration": 0.089,
        "velocity": 1,
        "hand": "right"
      },
      {
        "midi": 40,
        "time": 19.286,
        "duration": 0.089,
        "velocity": 1,
        "hand": "left"
      },
      {
        "midi": 64,
        "time": 19.286,
        "duration": 0.089,
        "velocity": 1,
        "hand": "right"
      },
      {
        "midi": 69,
        "time": 19.196,
        "duration": 0.089,
        "velocity": 1,
        "hand": "right"
      },
      {
        "midi": 47,
        "time": 19.375,
        "duration": 0.089,
        "velocity": 1,
        "hand": "left"
      },
      {
        "midi": 68,
        "time": 19.464,
        "duration": 0.089,
        "velocity": 1,
        "hand": "right"
      },
      {
        "midi": 76,
        "time": 19.375,
        "duration": 0.089,
        "velocity": 1,
        "hand": "right"
      },
      {
        "midi": 52,
        "time": 19.554,
        "duration": 0.089,
        "velocity": 1,
        "hand": "left"
      },
      {
        "midi": 68,
        "time": 19.643,
        "duration": 0.089,
        "velocity": 1,
        "hand": "right"
      },
      {
        "midi": 71,
        "time": 19.554,
        "duration": 0.089,
        "velocity": 1,
        "hand": "right"
      },
      {
        "midi": 52,
        "time": 19.732,
        "duration": 0.089,
        "velocity": 1,
        "hand": "left"
      },
      {
        "midi": 71,
        "time": 19.821,
        "duration": 0.089,
        "velocity": 1,
        "hand": "right"
      },
      {
        "midi": 80,
        "time": 19.732,
        "duration": 0.089,
        "velocity": 1,
        "hand": "right"
      },
      {
        "midi": 45,
        "time": 20,
        "duration": 0.089,
        "velocity": 1,
        "hand": "left"
      },
      {
        "midi": 68,
        "time": 20,
        "duration": 0.089,
        "velocity": 1,
        "hand": "right"
      },
      {
        "midi": 76,
        "time": 19.911,
        "duration": 0.089,
        "velocity": 1,
        "hand": "right"
      },
      {
        "midi": 49,
        "time": 20.089,
        "duration": 0.089,
        "velocity": 1,
        "hand": "left"
      },
      {
        "midi": 72,
        "time": 20.179,
        "duration": 0.089,
        "velocity": 1,
        "hand": "right"
      },
      {
        "midi": 80,
        "time": 20.089,
        "duration": 0.089,
        "velocity": 1,
        "hand": "right"
      },
      {
        "midi": 54,
        "time": 20.268,
        "duration": 0.089,
        "velocity": 1,
        "hand": "left"
      },
      {
        "midi": 66,
        "time": 20.357,
        "duration": 0.089,
        "velocity": 1,
        "hand": "right"
      },
      {
        "midi": 73,
        "time": 20.268,
        "duration": 0.089,
        "velocity": 1,
        "hand": "right"
      },
      {
        "midi": 54,
        "time": 20.446,
        "duration": 0.089,
        "velocity": 1,
        "hand": "left"
      },
      {
        "midi": 72,
        "time": 20.536,
        "duration": 0.089,
        "velocity": 1,
        "hand": "right"
      },
      {
        "midi": 78,
        "time": 20.446,
        "duration": 0.089,
        "velocity": 1,
        "hand": "right"
      },
      {
        "midi": 45,
        "time": 20.714,
        "duration": 0.089,
        "velocity": 1,
        "hand": "left"
      },
      {
        "midi": 65,
        "time": 20.714,
        "duration": 0.089,
        "velocity": 1,
        "hand": "right"
      },
      {
        "midi": 73,
        "time": 20.625,
        "duration": 0.089,
        "velocity": 1,
        "hand": "right"
      },
      {
        "midi": 49,
        "time": 20.804,
        "duration": 0.089,
        "velocity": 1,
        "hand": "left"
      },
      {
        "midi": 72,
        "time": 20.893,
        "duration": 0.089,
        "velocity": 1,
        "hand": "right"
      },
      {
        "midi": 77,
        "time": 20.804,
        "duration": 0.089,
        "velocity": 1,
        "hand": "right"
      },
      {
        "midi": 54,
        "time": 20.982,
        "duration": 0.089,
        "velocity": 1,
        "hand": "left"
      },
      {
        "midi": 66,
        "time": 21.071,
        "duration": 0.089,
        "velocity": 1,
        "hand": "right"
      },
      {
        "midi": 73,
        "time": 20.982,
        "duration": 0.089,
        "velocity": 1,
        "hand": "right"
      },
      {
        "midi": 54,
        "time": 21.161,
        "duration": 0.089,
        "velocity": 1,
        "hand": "left"
      },
      {
        "midi": 72,
        "time": 21.25,
        "duration": 0.089,
        "velocity": 1,
        "hand": "right"
      },
      {
        "midi": 78,
        "time": 21.161,
        "duration": 0.089,
        "velocity": 1,
        "hand": "right"
      },
      {
        "midi": 47,
        "time": 21.429,
        "duration": 0.089,
        "velocity": 1,
        "hand": "left"
      },
      {
        "midi": 65,
        "time": 21.429,
        "duration": 0.089,
        "velocity": 1,
        "hand": "right"
      },
      {
        "midi": 73,
        "time": 21.339,
        "duration": 0.089,
        "velocity": 1,
        "hand": "right"
      },
      {
        "midi": 54,
        "time": 21.518,
        "duration": 0.089,
        "velocity": 1,
        "hand": "left"
      },
      {
        "midi": 71,
        "time": 21.607,
        "duration": 0.089,
        "velocity": 1,
        "hand": "right"
      },
      {
        "midi": 77,
        "time": 21.518,
        "duration": 0.089,
        "velocity": 1,
        "hand": "right"
      },
      {
        "midi": 57,
        "time": 21.696,
        "duration": 0.089,
        "velocity": 1,
        "hand": "left"
      },
      {
        "midi": 66,
        "time": 21.786,
        "duration": 0.089,
        "velocity": 1,
        "hand": "right"
      },
      {
        "midi": 75,
        "time": 21.696,
        "duration": 0.089,
        "velocity": 1,
        "hand": "right"
      },
      {
        "midi": 57,
        "time": 21.875,
        "duration": 0.089,
        "velocity": 1,
        "hand": "left"
      },
      {
        "midi": 71,
        "time": 21.964,
        "duration": 0.089,
        "velocity": 1,
        "hand": "right"
      },
      {
        "midi": 78,
        "time": 21.875,
        "duration": 0.089,
        "velocity": 1,
        "hand": "right"
      },
      {
        "midi": 40,
        "time": 22.143,
        "duration": 0.089,
        "velocity": 1,
        "hand": "left"
      },
      {
        "midi": 69,
        "time": 22.143,
        "duration": 0.089,
        "velocity": 1,
        "hand": "right"
      },
      {
        "midi": 75,
        "time": 22.054,
        "duration": 0.089,
        "velocity": 1,
        "hand": "right"
      },
      {
        "midi": 47,
        "time": 22.232,
        "duration": 0.089,
        "velocity": 1,
        "hand": "left"
      },
      {
        "midi": 71,
        "time": 22.321,
        "duration": 0.089,
        "velocity": 1,
        "hand": "right"
      },
      {
        "midi": 81,
        "time": 22.232,
        "duration": 0.089,
        "velocity": 1,
        "hand": "right"
      },
      {
        "midi": 52,
        "time": 22.411,
        "duration": 0.089,
        "velocity": 1,
        "hand": "left"
      },
      {
        "midi": 68,
        "time": 22.5,
        "duration": 0.089,
        "velocity": 1,
        "hand": "right"
      },
      {
        "midi": 76,
        "time": 22.411,
        "duration": 0.089,
        "velocity": 1,
        "hand": "right"
      },
      {
        "midi": 52,
        "time": 22.589,
        "duration": 0.089,
        "velocity": 1,
        "hand": "left"
      },
      {
        "midi": 71,
        "time": 22.679,
        "duration": 0.089,
        "velocity": 1,
        "hand": "right"
      },
      {
        "midi": 80,
        "time": 22.589,
        "duration": 0.089,
        "velocity": 1,
        "hand": "right"
      },
      {
        "midi": 45,
        "time": 22.857,
        "duration": 0.089,
        "velocity": 1,
        "hand": "left"
      },
      {
        "midi": 68,
        "time": 22.857,
        "duration": 0.089,
        "velocity": 1,
        "hand": "right"
      },
      {
        "midi": 76,
        "time": 22.768,
        "duration": 0.089,
        "velocity": 1,
        "hand": "right"
      },
      {
        "midi": 49,
        "time": 22.946,
        "duration": 0.089,
        "velocity": 1,
        "hand": "left"
      },
      {
        "midi": 72,
        "time": 23.036,
        "duration": 0.089,
        "velocity": 1,
        "hand": "right"
      },
      {
        "midi": 80,
        "time": 22.946,
        "duration": 0.089,
        "velocity": 1,
        "hand": "right"
      },
      {
        "midi": 54,
        "time": 23.125,
        "duration": 0.089,
        "velocity": 1,
        "hand": "left"
      },
      {
        "midi": 66,
        "time": 23.214,
        "duration": 0.089,
        "velocity": 1,
        "hand": "right"
      },
      {
        "midi": 73,
        "time": 23.125,
        "duration": 0.089,
        "velocity": 1,
        "hand": "right"
      },
      {
        "midi": 54,
        "time": 23.304,
        "duration": 0.089,
        "velocity": 1,
        "hand": "left"
      },
      {
        "midi": 72,
        "time": 23.393,
        "duration": 0.089,
        "velocity": 1,
        "hand": "right"
      },
      {
        "midi": 78,
        "time": 23.304,
        "duration": 0.089,
        "velocity": 1,
        "hand": "right"
      },
      {
        "midi": 45,
        "time": 23.571,
        "duration": 0.089,
        "velocity": 1,
        "hand": "left"
      },
      {
        "midi": 65,
        "time": 23.571,
        "duration": 0.089,
        "velocity": 1,
        "hand": "right"
      },
      {
        "midi": 73,
        "time": 23.482,
        "duration": 0.089,
        "velocity": 1,
        "hand": "right"
      },
      {
        "midi": 49,
        "time": 23.661,
        "duration": 0.089,
        "velocity": 1,
        "hand": "left"
      },
      {
        "midi": 72,
        "time": 23.75,
        "duration": 0.089,
        "velocity": 1,
        "hand": "right"
      },
      {
        "midi": 77,
        "time": 23.661,
        "duration": 0.089,
        "velocity": 1,
        "hand": "right"
      },
      {
        "midi": 54,
        "time": 23.839,
        "duration": 0.089,
        "velocity": 1,
        "hand": "left"
      },
      {
        "midi": 66,
        "time": 23.929,
        "duration": 0.089,
        "velocity": 1,
        "hand": "right"
      },
      {
        "midi": 73,
        "time": 23.839,
        "duration": 0.089,
        "velocity": 1,
        "hand": "right"
      },
      {
        "midi": 54,
        "time": 24.018,
        "duration": 0.089,
        "velocity": 1,
        "hand": "left"
      },
      {
        "midi": 72,
        "time": 24.107,
        "duration": 0.089,
        "velocity": 1,
        "hand": "right"
      },
      {
        "midi": 78,
        "time": 24.018,
        "duration": 0.089,
        "velocity": 1,
        "hand": "right"
      },
      {
        "midi": 47,
        "time": 24.286,
        "duration": 0.089,
        "velocity": 1,
        "hand": "left"
      },
      {
        "midi": 61,
        "time": 24.286,
        "duration": 0.089,
        "velocity": 1,
        "hand": "right"
      },
      {
        "midi": 73,
        "time": 24.196,
        "duration": 0.089,
        "velocity": 1,
        "hand": "right"
      },
      {
        "midi": 54,
        "time": 24.375,
        "duration": 0.089,
        "velocity": 1,
        "hand": "left"
      },
      {
        "midi": 66,
        "time": 24.464,
        "duration": 0.089,
        "velocity": 1,
        "hand": "right"
      },
      {
        "midi": 73,
        "time": 24.375,
        "duration": 0.089,
        "velocity": 1,
        "hand": "right"
      },
      {
        "midi": 57,
        "time": 24.554,
        "duration": 0.089,
        "velocity": 1,
        "hand": "left"
      },
      {
        "midi": 63,
        "time": 24.643,
        "duration": 0.089,
        "velocity": 1,
        "hand": "right"
      },
      {
        "midi": 69,
        "time": 24.554,
        "duration": 0.089,
        "velocity": 1,
        "hand": "right"
      },
      {
        "midi": 57,
        "time": 24.732,
        "duration": 0.089,
        "velocity": 1,
        "hand": "left"
      },
      {
        "midi": 66,
        "time": 24.821,
        "duration": 0.089,
        "velocity": 1,
        "hand": "right"
      },
      {
        "midi": 75,
        "time": 24.732,
        "duration": 0.089,
        "velocity": 1,
        "hand": "right"
      },
      {
        "midi": 40,
        "time": 25,
        "duration": 0.089,
        "velocity": 1,
        "hand": "left"
      },
      {
        "midi": 64,
        "time": 25,
        "duration": 0.089,
        "velocity": 1,
        "hand": "right"
      },
      {
        "midi": 69,
        "time": 24.911,
        "duration": 0.089,
        "velocity": 1,
        "hand": "right"
      },
      {
        "midi": 47,
        "time": 25.089,
        "duration": 0.089,
        "velocity": 1,
        "hand": "left"
      },
      {
        "midi": 68,
        "time": 25.179,
        "duration": 0.089,
        "velocity": 1,
        "hand": "right"
      },
      {
        "midi": 76,
        "time": 25.089,
        "duration": 0.089,
        "velocity": 1,
        "hand": "right"
      },
      {
        "midi": 52,
        "time": 25.268,
        "duration": 0.089,
        "velocity": 1,
        "hand": "left"
      },
      {
        "midi": 68,
        "time": 25.357,
        "duration": 0.089,
        "velocity": 1,
        "hand": "right"
      },
      {
        "midi": 71,
        "time": 25.268,
        "duration": 0.089,
        "velocity": 1,
        "hand": "right"
      },
      {
        "midi": 52,
        "time": 25.446,
        "duration": 0.089,
        "velocity": 1,
        "hand": "left"
      },
      {
        "midi": 71,
        "time": 25.536,
        "duration": 0.089,
        "velocity": 1,
        "hand": "right"
      },
      {
        "midi": 80,
        "time": 25.446,
        "duration": 0.089,
        "velocity": 1,
        "hand": "right"
      },
      {
        "midi": 45,
        "time": 25.714,
        "duration": 0.089,
        "velocity": 1,
        "hand": "left"
      },
      {
        "midi": 68,
        "time": 25.714,
        "duration": 0.089,
        "velocity": 1,
        "hand": "right"
      },
      {
        "midi": 76,
        "time": 25.625,
        "duration": 0.089,
        "velocity": 1,
        "hand": "right"
      },
      {
        "midi": 49,
        "time": 25.804,
        "duration": 0.089,
        "velocity": 1,
        "hand": "left"
      },
      {
        "midi": 72,
        "time": 25.893,
        "duration": 0.089,
        "velocity": 1,
        "hand": "right"
      },
      {
        "midi": 80,
        "time": 25.804,
        "duration": 0.089,
        "velocity": 1,
        "hand": "right"
      },
      {
        "midi": 54,
        "time": 25.982,
        "duration": 0.089,
        "velocity": 1,
        "hand": "left"
      },
      {
        "midi": 66,
        "time": 26.071,
        "duration": 0.089,
        "velocity": 1,
        "hand": "right"
      },
      {
        "midi": 73,
        "time": 25.982,
        "duration": 0.089,
        "velocity": 1,
        "hand": "right"
      },
      {
        "midi": 54,
        "time": 26.161,
        "duration": 0.089,
        "velocity": 1,
        "hand": "left"
      },
      {
        "midi": 72,
        "time": 26.25,
        "duration": 0.089,
        "velocity": 1,
        "hand": "right"
      },
      {
        "midi": 78,
        "time": 26.161,
        "duration": 0.089,
        "velocity": 1,
        "hand": "right"
      },
      {
        "midi": 45,
        "time": 26.429,
        "duration": 0.089,
        "velocity": 1,
        "hand": "left"
      },
      {
        "midi": 73,
        "time": 26.339,
        "duration": 0.089,
        "velocity": 1,
        "hand": "right"
      },
      {
        "midi": 75,
        "time": 26.429,
        "duration": 0.089,
        "velocity": 1,
        "hand": "right"
      },
      {
        "midi": 51,
        "time": 26.518,
        "duration": 0.089,
        "velocity": 1,
        "hand": "left"
      },
      {
        "midi": 78,
        "time": 26.607,
        "duration": 0.089,
        "velocity": 1,
        "hand": "right"
      },
      {
        "midi": 87,
        "time": 26.518,
        "duration": 0.089,
        "velocity": 1,
        "hand": "right"
      },
      {
        "midi": 54,
        "time": 26.696,
        "duration": 0.089,
        "velocity": 1,
        "hand": "left"
      },
      {
        "midi": 73,
        "time": 26.786,
        "duration": 0.089,
        "velocity": 1,
        "hand": "right"
      },
      {
        "midi": 81,
        "time": 26.696,
        "duration": 0.089,
        "velocity": 1,
        "hand": "right"
      },
      {
        "midi": 54,
        "time": 26.875,
        "duration": 0.089,
        "velocity": 1,
        "hand": "left"
      },
      {
        "midi": 78,
        "time": 26.964,
        "duration": 0.089,
        "velocity": 1,
        "hand": "right"
      },
      {
        "midi": 85,
        "time": 26.875,
        "duration": 0.089,
        "velocity": 1,
        "hand": "right"
      },
      {
        "midi": 44,
        "time": 27.143,
        "duration": 0.089,
        "velocity": 1,
        "hand": "left"
      },
      {
        "midi": 73,
        "time": 27.143,
        "duration": 0.089,
        "velocity": 1,
        "hand": "right"
      },
      {
        "midi": 81,
        "time": 27.054,
        "duration": 0.089,
        "velocity": 1,
        "hand": "right"
      },
      {
        "midi": 51,
        "time": 27.232,
        "duration": 0.089,
        "velocity": 1,
        "hand": "left"
      },
      {
        "midi": 75,
        "time": 27.321,
        "duration": 0.089,
        "velocity": 1,
        "hand": "right"
      },
      {
        "midi": 85,
        "time": 27.232,
        "duration": 0.089,
        "velocity": 1,
        "hand": "right"
      },
      {
        "midi": 54,
        "time": 27.411,
        "duration": 0.089,
        "velocity": 1,
        "hand": "left"
      },
      {
        "midi": 72,
        "time": 27.5,
        "duration": 0.089,
        "velocity": 1,
        "hand": "right"
      },
      {
        "midi": 78,
        "time": 27.411,
        "duration": 0.089,
        "velocity": 1,
        "hand": "right"
      },
      {
        "midi": 54,
        "time": 27.589,
        "duration": 0.089,
        "velocity": 1,
        "hand": "left"
      },
      {
        "midi": 75,
        "time": 27.679,
        "duration": 0.089,
        "velocity": 1,
        "hand": "right"
      },
      {
        "midi": 84,
        "time": 27.589,
        "duration": 0.089,
        "velocity": 1,
        "hand": "right"
      },
      {
        "midi": 44,
        "time": 27.857,
        "duration": 0.089,
        "velocity": 1,
        "hand": "left"
      },
      {
        "midi": 72,
        "time": 27.857,
        "duration": 0.089,
        "velocity": 1,
        "hand": "right"
      },
      {
        "midi": 78,
        "time": 27.768,
        "duration": 0.089,
        "velocity": 1,
        "hand": "right"
      },
      {
        "midi": 51,
        "time": 27.946,
        "duration": 0.089,
        "velocity": 1,
        "hand": "left"
      },
      {
        "midi": 75,
        "time": 28.036,
        "duration": 0.089,
        "velocity": 1,
        "hand": "right"
      },
      {
        "midi": 84,
        "time": 27.946,
        "duration": 0.089,
        "velocity": 1,
        "hand": "right"
      },
      {
        "midi": 54,
        "time": 28.125,
        "duration": 0.089,
        "velocity": 1,
        "hand": "left"
      },
      {
        "midi": 72,
        "time": 28.214,
        "duration": 0.089,
        "velocity": 1,
        "hand": "right"
      },
      {
        "midi": 78,
        "time": 28.125,
        "duration": 0.089,
        "velocity": 1,
        "hand": "right"
      },
      {
        "midi": 54,
        "time": 28.304,
        "duration": 0.089,
        "velocity": 1,
        "hand": "left"
      },
      {
        "midi": 75,
        "time": 28.393,
        "duration": 0.089,
        "velocity": 1,
        "hand": "right"
      },
      {
        "midi": 84,
        "time": 28.304,
        "duration": 0.089,
        "velocity": 1,
        "hand": "right"
      },
      {
        "midi": 45,
        "time": 28.571,
        "duration": 0.089,
        "velocity": 1,
        "hand": "left"
      },
      {
        "midi": 72,
        "time": 28.571,
        "duration": 0.089,
        "velocity": 1,
        "hand": "right"
      },
      {
        "midi": 78,
        "time": 28.482,
        "duration": 0.089,
        "velocity": 1,
        "hand": "right"
      },
      {
        "midi": 51,
        "time": 28.661,
        "duration": 0.089,
        "velocity": 1,
        "hand": "left"
      },
      {
        "midi": 75,
        "time": 28.75,
        "duration": 0.089,
        "velocity": 1,
        "hand": "right"
      },
      {
        "midi": 84,
        "time": 28.661,
        "duration": 0.089,
        "velocity": 1,
        "hand": "right"
      },
      {
        "midi": 54,
        "time": 28.839,
        "duration": 0.089,
        "velocity": 1,
        "hand": "left"
      },
      {
        "midi": 71,
        "time": 28.929,
        "duration": 0.089,
        "velocity": 1,
        "hand": "right"
      },
      {
        "midi": 78,
        "time": 28.839,
        "duration": 0.089,
        "velocity": 1,
        "hand": "right"
      },
      {
        "midi": 54,
        "time": 29.018,
        "duration": 0.089,
        "velocity": 1,
        "hand": "left"
      },
      {
        "midi": 75,
        "time": 29.107,
        "duration": 0.089,
        "velocity": 1,
        "hand": "right"
      },
      {
        "midi": 83,
        "time": 29.018,
        "duration": 0.089,
        "velocity": 1,
        "hand": "right"
      },
      {
        "midi": 46,
        "time": 29.286,
        "duration": 0.089,
        "velocity": 1,
        "hand": "left"
      },
      {
        "midi": 71,
        "time": 29.286,
        "duration": 0.089,
        "velocity": 1,
        "hand": "right"
      },
      {
        "midi": 78,
        "time": 29.196,
        "duration": 0.089,
        "velocity": 1,
        "hand": "right"
      },
      {
        "midi": 51,
        "time": 29.375,
        "duration": 0.089,
        "velocity": 1,
        "hand": "left"
      },
      {
        "midi": 75,
        "time": 29.464,
        "duration": 0.089,
        "velocity": 1,
        "hand": "right"
      },
      {
        "midi": 83,
        "time": 29.375,
        "duration": 0.089,
        "velocity": 1,
        "hand": "right"
      },
      {
        "midi": 54,
        "time": 29.554,
        "duration": 0.089,
        "velocity": 1,
        "hand": "left"
      },
      {
        "midi": 70,
        "time": 29.643,
        "duration": 0.089,
        "velocity": 1,
        "hand": "right"
      },
      {
        "midi": 78,
        "time": 29.554,
        "duration": 0.089,
        "velocity": 1,
        "hand": "right"
      },
      {
        "midi": 54,
        "time": 29.732,
        "duration": 0.089,
        "velocity": 1,
        "hand": "left"
      },
      {
        "midi": 75,
        "time": 29.821,
        "duration": 0.089,
        "velocity": 1,
        "hand": "right"
      },
      {
        "midi": 82,
        "time": 29.732,
        "duration": 0.089,
        "velocity": 1,
        "hand": "right"
      },
      {
        "midi": 48,
        "time": 30,
        "duration": 0.089,
        "velocity": 1,
        "hand": "left"
      },
      {
        "midi": 70,
        "time": 30,
        "duration": 0.089,
        "velocity": 1,
        "hand": "right"
      },
      {
        "midi": 78,
        "time": 29.911,
        "duration": 0.089,
        "velocity": 1,
        "hand": "right"
      },
      {
        "midi": 51,
        "time": 30.089,
        "duration": 0.089,
        "velocity": 1,
        "hand": "left"
      },
      {
        "midi": 75,
        "time": 30.179,
        "duration": 0.089,
        "velocity": 1,
        "hand": "right"
      },
      {
        "midi": 82,
        "time": 30.089,
        "duration": 0.089,
        "velocity": 1,
        "hand": "right"
      },
      {
        "midi": 54,
        "time": 30.268,
        "duration": 0.089,
        "velocity": 1,
        "hand": "left"
      },
      {
        "midi": 69,
        "time": 30.357,
        "duration": 0.089,
        "velocity": 1,
        "hand": "right"
      },
      {
        "midi": 78,
        "time": 30.268,
        "duration": 0.089,
        "velocity": 1,
        "hand": "right"
      },
      {
        "midi": 54,
        "time": 30.446,
        "duration": 0.089,
        "velocity": 1,
        "hand": "left"
      },
      {
        "midi": 75,
        "time": 30.536,
        "duration": 0.089,
        "velocity": 1,
        "hand": "right"
      },
      {
        "midi": 81,
        "time": 30.446,
        "duration": 0.089,
        "velocity": 1,
        "hand": "right"
      },
      {
        "midi": 48,
        "time": 30.714,
        "duration": 0.089,
        "velocity": 1,
        "hand": "left"
      },
      {
        "midi": 69,
        "time": 30.714,
        "duration": 0.089,
        "velocity": 1,
        "hand": "right"
      },
      {
        "midi": 78,
        "time": 30.625,
        "duration": 0.089,
        "velocity": 1,
        "hand": "right"
      },
      {
        "midi": 51,
        "time": 30.804,
        "duration": 0.089,
        "velocity": 1,
        "hand": "left"
      },
      {
        "midi": 75,
        "time": 30.893,
        "duration": 0.089,
        "velocity": 1,
        "hand": "right"
      },
      {
        "midi": 81,
        "time": 30.804,
        "duration": 0.089,
        "velocity": 1,
        "hand": "right"
      },
      {
        "midi": 54,
        "time": 30.982,
        "duration": 0.089,
        "velocity": 1,
        "hand": "left"
      },
      {
        "midi": 69,
        "time": 31.071,
        "duration": 0.089,
        "velocity": 1,
        "hand": "right"
      },
      {
        "midi": 78,
        "time": 30.982,
        "duration": 0.089,
        "velocity": 1,
        "hand": "right"
      },
      {
        "midi": 54,
        "time": 31.161,
        "duration": 0.089,
        "velocity": 1,
        "hand": "left"
      },
      {
        "midi": 75,
        "time": 31.25,
        "duration": 0.089,
        "velocity": 1,
        "hand": "right"
      },
      {
        "midi": 81,
        "time": 31.161,
        "duration": 0.089,
        "velocity": 1,
        "hand": "right"
      },
      {
        "midi": 45,
        "time": 31.429,
        "duration": 0.089,
        "velocity": 1,
        "hand": "left"
      },
      {
        "midi": 72,
        "time": 31.429,
        "duration": 0.089,
        "velocity": 1,
        "hand": "right"
      },
      {
        "midi": 78,
        "time": 31.339,
        "duration": 0.089,
        "velocity": 1,
        "hand": "right"
      },
      {
        "midi": 51,
        "time": 31.518,
        "duration": 0.089,
        "velocity": 1,
        "hand": "left"
      },
      {
        "midi": 75,
        "time": 31.607,
        "duration": 0.089,
        "velocity": 1,
        "hand": "right"
      },
      {
        "midi": 84,
        "time": 31.518,
        "duration": 0.089,
        "velocity": 1,
        "hand": "right"
      },
      {
        "midi": 54,
        "time": 31.696,
        "duration": 0.089,
        "velocity": 1,
        "hand": "left"
      },
      {
        "midi": 71,
        "time": 31.786,
        "duration": 0.089,
        "velocity": 1,
        "hand": "right"
      },
      {
        "midi": 78,
        "time": 31.696,
        "duration": 0.089,
        "velocity": 1,
        "hand": "right"
      },
      {
        "midi": 54,
        "time": 31.875,
        "duration": 0.089,
        "velocity": 1,
        "hand": "left"
      },
      {
        "midi": 75,
        "time": 31.964,
        "duration": 0.089,
        "velocity": 1,
        "hand": "right"
      },
      {
        "midi": 83,
        "time": 31.875,
        "duration": 0.089,
        "velocity": 1,
        "hand": "right"
      },
      {
        "midi": 46,
        "time": 32.143,
        "duration": 0.089,
        "velocity": 1,
        "hand": "left"
      },
      {
        "midi": 71,
        "time": 32.143,
        "duration": 0.089,
        "velocity": 1,
        "hand": "right"
      },
      {
        "midi": 78,
        "time": 32.054,
        "duration": 0.089,
        "velocity": 1,
        "hand": "right"
      },
      {
        "midi": 51,
        "time": 32.232,
        "duration": 0.089,
        "velocity": 1,
        "hand": "left"
      },
      {
        "midi": 75,
        "time": 32.321,
        "duration": 0.089,
        "velocity": 1,
        "hand": "right"
      },
      {
        "midi": 83,
        "time": 32.232,
        "duration": 0.089,
        "velocity": 1,
        "hand": "right"
      },
      {
        "midi": 54,
        "time": 32.411,
        "duration": 0.089,
        "velocity": 1,
        "hand": "left"
      },
      {
        "midi": 70,
        "time": 32.5,
        "duration": 0.089,
        "velocity": 1,
        "hand": "right"
      },
      {
        "midi": 78,
        "time": 32.411,
        "duration": 0.089,
        "velocity": 1,
        "hand": "right"
      },
      {
        "midi": 54,
        "time": 32.589,
        "duration": 0.089,
        "velocity": 1,
        "hand": "left"
      },
      {
        "midi": 82,
        "time": 32.589,
        "duration": 0.089,
        "velocity": 1,
        "hand": "right"
      },
      {
        "midi": 51,
        "time": 32.768,
        "duration": 0.089,
        "velocity": 1,
        "hand": "left"
      },
      {
        "midi": 75,
        "time": 32.679,
        "duration": 0.089,
        "velocity": 1,
        "hand": "right"
      },
      {
        "midi": 78,
        "time": 32.768,
        "duration": 0.089,
        "velocity": 1,
        "hand": "right"
      },
      {
        "midi": 47,
        "time": 32.857,
        "duration": 0.089,
        "velocity": 1,
        "hand": "left"
      },
      {
        "midi": 70,
        "time": 32.857,
        "duration": 0.089,
        "velocity": 1,
        "hand": "right"
      },
      {
        "midi": 82,
        "time": 32.946,
        "duration": 0.089,
        "velocity": 1,
        "hand": "right"
      },
      {
        "midi": 54,
        "time": 33.125,
        "duration": 0.089,
        "velocity": 1,
        "hand": "left"
      },
      {
        "midi": 75,
        "time": 33.036,
        "duration": 0.089,
        "velocity": 1,
        "hand": "right"
      },
      {
        "midi": 78,
        "time": 33.125,
        "duration": 0.089,
        "velocity": 1,
        "hand": "right"
      },
      {
        "midi": 57,
        "time": 33.214,
        "duration": 0.089,
        "velocity": 1,
        "hand": "left"
      },
      {
        "midi": 69,
        "time": 33.214,
        "duration": 0.089,
        "velocity": 1,
        "hand": "right"
      },
      {
        "midi": 54,
        "time": 33.304,
        "duration": 0.089,
        "velocity": 1,
        "hand": "left"
      },
      {
        "midi": 75,
        "time": 33.393,
        "duration": 0.089,
        "velocity": 1,
        "hand": "right"
      },
      {
        "midi": 81,
        "time": 33.304,
        "duration": 0.089,
        "velocity": 1,
        "hand": "right"
      },
      {
        "midi": 48,
        "time": 33.571,
        "duration": 0.089,
        "velocity": 1,
        "hand": "left"
      },
      {
        "midi": 69,
        "time": 33.571,
        "duration": 0.089,
        "velocity": 1,
        "hand": "right"
      },
      {
        "midi": 78,
        "time": 33.482,
        "duration": 0.089,
        "velocity": 1,
        "hand": "right"
      },
      {
        "midi": 51,
        "time": 33.661,
        "duration": 0.089,
        "velocity": 1,
        "hand": "left"
      },
      {
        "midi": 75,
        "time": 33.75,
        "duration": 0.089,
        "velocity": 1,
        "hand": "right"
      },
      {
        "midi": 81,
        "time": 33.661,
        "duration": 0.089,
        "velocity": 1,
        "hand": "right"
      },
      {
        "midi": 54,
        "time": 33.839,
        "duration": 0.089,
        "velocity": 1,
        "hand": "left"
      },
      {
        "midi": 78,
        "time": 33.839,
        "duration": 0.089,
        "velocity": 1,
        "hand": "right"
      },
      {
        "midi": 54,
        "time": 34.018,
        "duration": 0.089,
        "velocity": 1,
        "hand": "left"
      },
      {
        "midi": 68,
        "time": 33.929,
        "duration": 0.089,
        "velocity": 1,
        "hand": "right"
      },
      {
        "midi": 80,
        "time": 34.018,
        "duration": 0.089,
        "velocity": 1,
        "hand": "right"
      },
      {
        "midi": 51,
        "time": 34.196,
        "duration": 0.089,
        "velocity": 1,
        "hand": "left"
      },
      {
        "midi": 75,
        "time": 34.107,
        "duration": 0.089,
        "velocity": 1,
        "hand": "right"
      },
      {
        "midi": 78,
        "time": 34.196,
        "duration": 0.089,
        "velocity": 1,
        "hand": "right"
      },
      {
        "midi": 49,
        "time": 34.286,
        "duration": 0.089,
        "velocity": 1,
        "hand": "left"
      },
      {
        "midi": 56,
        "time": 34.375,
        "duration": 0.089,
        "velocity": 1,
        "hand": "left"
      },
      {
        "midi": 68,
        "time": 34.375,
        "duration": 0.089,
        "velocity": 1,
        "hand": "right"
      },
      {
        "midi": 69,
        "time": 34.464,
        "duration": 0.089,
        "velocity": 1,
        "hand": "right"
      },
      {
        "midi": 61,
        "time": 34.554,
        "duration": 0.089,
        "velocity": 1,
        "hand": "right"
      },
      {
        "midi": 67,
        "time": 34.643,
        "duration": 0.089,
        "velocity": 1,
        "hand": "right"
      },
      {
        "midi": 68,
        "time": 34.554,
        "duration": 0.089,
        "velocity": 1,
        "hand": "right"
      },
      {
        "midi": 61,
        "time": 34.732,
        "duration": 0.089,
        "velocity": 1,
        "hand": "right"
      },
      {
        "midi": 68,
        "time": 34.732,
        "duration": 0.089,
        "velocity": 1,
        "hand": "right"
      },
      {
        "midi": 73,
        "time": 34.821,
        "duration": 0.089,
        "velocity": 1,
        "hand": "right"
      },
      {
        "midi": 52,
        "time": 35,
        "duration": 0.089,
        "velocity": 1,
        "hand": "left"
      },
      {
        "midi": 75,
        "time": 35,
        "duration": 0.089,
        "velocity": 1,
        "hand": "right"
      },
      {
        "midi": 76,
        "time": 34.911,
        "duration": 0.089,
        "velocity": 1,
        "hand": "right"
      },
      {
        "midi": 56,
        "time": 35.089,
        "duration": 0.089,
        "velocity": 1,
        "hand": "left"
      },
      {
        "midi": 73,
        "time": 35.089,
        "duration": 0.089,
        "velocity": 1,
        "hand": "right"
      },
      {
        "midi": 61,
        "time": 35.268,
        "duration": 0.089,
        "velocity": 1,
        "hand": "right"
      },
      {
        "midi": 73,
        "time": 35.268,
        "duration": 0.089,
        "velocity": 1,
        "hand": "right"
      },
      {
        "midi": 75,
        "time": 35.179,
        "duration": 0.089,
        "velocity": 1,
        "hand": "right"
      },
      {
        "midi": 61,
        "time": 35.446,
        "duration": 0.089,
        "velocity": 1,
        "hand": "right"
      },
      {
        "midi": 72,
        "time": 35.357,
        "duration": 0.089,
        "velocity": 1,
        "hand": "right"
      },
      {
        "midi": 73,
        "time": 35.446,
        "duration": 0.089,
        "velocity": 1,
        "hand": "right"
      },
      {
        "midi": 56,
        "time": 35.625,
        "duration": 0.089,
        "velocity": 1,
        "hand": "left"
      },
      {
        "midi": 76,
        "time": 35.536,
        "duration": 0.089,
        "velocity": 1,
        "hand": "right"
      },
      {
        "midi": 80,
        "time": 35.625,
        "duration": 0.089,
        "velocity": 1,
        "hand": "right"
      },
      {
        "midi": 49,
        "time": 35.714,
        "duration": 0.089,
        "velocity": 1,
        "hand": "left"
      },
      {
        "midi": 56,
        "time": 35.804,
        "duration": 0.089,
        "velocity": 1,
        "hand": "left"
      },
      {
        "midi": 68,
        "time": 35.804,
        "duration": 0.089,
        "velocity": 1,
        "hand": "right"
      },
      {
        "midi": 69,
        "time": 35.893,
        "duration": 0.089,
        "velocity": 1,
        "hand": "right"
      },
      {
        "midi": 61,
        "time": 35.982,
        "duration": 0.089,
        "velocity": 1,
        "hand": "right"
      },
      {
        "midi": 67,
        "time": 36.071,
        "duration": 0.089,
        "velocity": 1,
        "hand": "right"
      },
      {
        "midi": 68,
        "time": 35.982,
        "duration": 0.089,
        "velocity": 1,
        "hand": "right"
      },
      {
        "midi": 61,
        "time": 36.161,
        "duration": 0.089,
        "velocity": 1,
        "hand": "right"
      },
      {
        "midi": 68,
        "time": 36.161,
        "duration": 0.089,
        "velocity": 1,
        "hand": "right"
      },
      {
        "midi": 73,
        "time": 36.25,
        "duration": 0.089,
        "velocity": 1,
        "hand": "right"
      },
      {
        "midi": 56,
        "time": 36.339,
        "duration": 0.089,
        "velocity": 1,
        "hand": "left"
      },
      {
        "midi": 76,
        "time": 36.339,
        "duration": 0.089,
        "velocity": 1,
        "hand": "right"
      },
      {
        "midi": 52,
        "time": 36.429,
        "duration": 0.089,
        "velocity": 1,
        "hand": "left"
      },
      {
        "midi": 73,
        "time": 36.518,
        "duration": 0.089,
        "velocity": 1,
        "hand": "right"
      },
      {
        "midi": 75,
        "time": 36.429,
        "duration": 0.089,
        "velocity": 1,
        "hand": "right"
      },
      {
        "midi": 61,
        "time": 36.696,
        "duration": 0.089,
        "velocity": 1,
        "hand": "right"
      },
      {
        "midi": 73,
        "time": 36.696,
        "duration": 0.089,
        "velocity": 1,
        "hand": "right"
      },
      {
        "midi": 75,
        "time": 36.607,
        "duration": 0.089,
        "velocity": 1,
        "hand": "right"
      },
      {
        "midi": 61,
        "time": 36.875,
        "duration": 0.089,
        "velocity": 1,
        "hand": "right"
      },
      {
        "midi": 72,
        "time": 36.786,
        "duration": 0.089,
        "velocity": 1,
        "hand": "right"
      },
      {
        "midi": 73,
        "time": 36.875,
        "duration": 0.089,
        "velocity": 1,
        "hand": "right"
      },
      {
        "midi": 76,
        "time": 36.964,
        "duration": 0.089,
        "velocity": 1,
        "hand": "right"
      },
      {
        "midi": 51,
        "time": 37.143,
        "duration": 0.089,
        "velocity": 1,
        "hand": "left"
      },
      {
        "midi": 56,
        "time": 37.054,
        "duration": 0.089,
        "velocity": 1,
        "hand": "left"
      },
      {
        "midi": 80,
        "time": 37.054,
        "duration": 0.089,
        "velocity": 1,
        "hand": "right"
      },
      {
        "midi": 57,
        "time": 37.232,
        "duration": 0.089,
        "velocity": 1,
        "hand": "left"
      },
      {
        "midi": 69,
        "time": 37.232,
        "duration": 0.089,
        "velocity": 1,
        "hand": "right"
      },
      {
        "midi": 73,
        "time": 37.321,
        "duration": 0.089,
        "velocity": 1,
        "hand": "right"
      },
      {
        "midi": 61,
        "time": 37.411,
        "duration": 0.089,
        "velocity": 1,
        "hand": "right"
      },
      {
        "midi": 75,
        "time": 37.411,
        "duration": 0.089,
        "velocity": 1,
        "hand": "right"
      },
      {
        "midi": 78,
        "time": 37.5,
        "duration": 0.089,
        "velocity": 1,
        "hand": "right"
      },
      {
        "midi": 61,
        "time": 37.589,
        "duration": 0.089,
        "velocity": 1,
        "hand": "right"
      },
      {
        "midi": 81,
        "time": 37.589,
        "duration": 0.089,
        "velocity": 1,
        "hand": "right"
      },
      {
        "midi": 57,
        "time": 37.768,
        "duration": 0.089,
        "velocity": 1,
        "hand": "left"
      },
      {
        "midi": 85,
        "time": 37.679,
        "duration": 0.089,
        "velocity": 1,
        "hand": "right"
      },
      {
        "midi": 87,
        "time": 37.768,
        "duration": 0.089,
        "velocity": 1,
        "hand": "right"
      },
      {
        "midi": 54,
        "time": 37.857,
        "duration": 0.089,
        "velocity": 1,
        "hand": "left"
      },
      {
        "midi": 93,
        "time": 37.946,
        "duration": 0.089,
        "velocity": 1,
        "hand": "right"
      },
      {
        "midi": 95,
        "time": 37.857,
        "duration": 0.089,
        "velocity": 1,
        "hand": "right"
      },
      {
        "midi": 63,
        "time": 38.125,
        "duration": 0.089,
        "velocity": 1,
        "hand": "right"
      },
      {
        "midi": 90,
        "time": 38.125,
        "duration": 0.089,
        "velocity": 1,
        "hand": "right"
      },
      {
        "midi": 92,
        "time": 38.036,
        "duration": 0.089,
        "velocity": 1,
        "hand": "right"
      },
      {
        "midi": 69,
        "time": 38.214,
        "duration": 0.089,
        "velocity": 1,
        "hand": "right"
      },
      {
        "midi": 88,
        "time": 38.214,
        "duration": 0.089,
        "velocity": 1,
        "hand": "right"
      },
      {
        "midi": 63,
        "time": 38.304,
        "duration": 0.089,
        "velocity": 1,
        "hand": "right"
      },
      {
        "midi": 87,
        "time": 38.304,
        "duration": 0.089,
        "velocity": 1,
        "hand": "right"
      },
      {
        "midi": 90,
        "time": 38.393,
        "duration": 0.089,
        "velocity": 1,
        "hand": "right"
      },
      {
        "midi": 44,
        "time": 38.571,
        "duration": 0.089,
        "velocity": 1,
        "hand": "left"
      },
      {
        "midi": 84,
        "time": 38.571,
        "duration": 0.089,
        "velocity": 1,
        "hand": "right"
      },
      {
        "midi": 85,
        "time": 38.482,
        "duration": 0.089,
        "velocity": 1,
        "hand": "right"
      },
      {
        "midi": 51,
        "time": 38.661,
        "duration": 0.089,
        "velocity": 1,
        "hand": "left"
      },
      {
        "midi": 81,
        "time": 38.75,
        "duration": 0.089,
        "velocity": 1,
        "hand": "right"
      },
      {
        "midi": 87,
        "time": 38.661,
        "duration": 0.089,
        "velocity": 1,
        "hand": "right"
      },
      {
        "midi": 54,
        "time": 38.839,
        "duration": 0.089,
        "velocity": 1,
        "hand": "left"
      },
      {
        "midi": 80,
        "time": 38.839,
        "duration": 0.089,
        "velocity": 1,
        "hand": "right"
      },
      {
        "midi": 54,
        "time": 39.018,
        "duration": 0.089,
        "velocity": 1,
        "hand": "left"
      },
      {
        "midi": 78,
        "time": 38.929,
        "duration": 0.089,
        "velocity": 1,
        "hand": "right"
      },
      {
        "midi": 81,
        "time": 39.018,
        "duration": 0.089,
        "velocity": 1,
        "hand": "right"
      },
      {
        "midi": 51,
        "time": 39.196,
        "duration": 0.089,
        "velocity": 1,
        "hand": "left"
      },
      {
        "midi": 75,
        "time": 39.196,
        "duration": 0.089,
        "velocity": 1,
        "hand": "right"
      },
      {
        "midi": 76,
        "time": 39.107,
        "duration": 0.089,
        "velocity": 1,
        "hand": "right"
      },
      {
        "midi": 44,
        "time": 39.286,
        "duration": 0.089,
        "velocity": 1,
        "hand": "left"
      },
      {
        "midi": 73,
        "time": 39.375,
        "duration": 0.089,
        "velocity": 1,
        "hand": "right"
      },
      {
        "midi": 78,
        "time": 39.286,
        "duration": 0.089,
        "velocity": 1,
        "hand": "right"
      },
      {
        "midi": 72,
        "time": 39.464,
        "duration": 0.089,
        "velocity": 1,
        "hand": "right"
      },
      {
        "midi": 54,
        "time": 39.554,
        "duration": 0.089,
        "velocity": 1,
        "hand": "left"
      },
      {
        "midi": 69,
        "time": 39.643,
        "duration": 0.089,
        "velocity": 1,
        "hand": "right"
      },
      {
        "midi": 75,
        "time": 39.554,
        "duration": 0.089,
        "velocity": 1,
        "hand": "right"
      },
      {
        "midi": 54,
        "time": 39.732,
        "duration": 0.089,
        "velocity": 1,
        "hand": "left"
      },
      {
        "midi": 68,
        "time": 39.732,
        "duration": 0.089,
        "velocity": 1,
        "hand": "right"
      },
      {
        "midi": 71,
        "time": 39.821,
        "duration": 0.089,
        "velocity": 1,
        "hand": "right"
      },
      {
        "midi": 49,
        "time": 40,
        "duration": 0.089,
        "velocity": 1,
        "hand": "left"
      },
      {
        "midi": 51,
        "time": 39.911,
        "duration": 0.089,
        "velocity": 1,
        "hand": "left"
      },
      {
        "midi": 69,
        "time": 39.911,
        "duration": 0.179,
        "velocity": 1,
        "hand": "right"
      },
      {
        "midi": 56,
        "time": 40.089,
        "duration": 0.089,
        "velocity": 1,
        "hand": "left"
      },
      {
        "midi": 68,
        "time": 40.089,
        "duration": 0.089,
        "velocity": 1,
        "hand": "right"
      },
      {
        "midi": 61,
        "time": 40.268,
        "duration": 0.089,
        "velocity": 1,
        "hand": "right"
      },
      {
        "midi": 68,
        "time": 40.268,
        "duration": 0.089,
        "velocity": 1,
        "hand": "right"
      },
      {
        "midi": 69,
        "time": 40.179,
        "duration": 0.089,
        "velocity": 1,
        "hand": "right"
      },
      {
        "midi": 61,
        "time": 40.446,
        "duration": 0.089,
        "velocity": 1,
        "hand": "right"
      },
      {
        "midi": 67,
        "time": 40.357,
        "duration": 0.089,
        "velocity": 1,
        "hand": "right"
      },
      {
        "midi": 68,
        "time": 40.446,
        "duration": 0.089,
        "velocity": 1,
        "hand": "right"
      },
      {
        "midi": 56,
        "time": 40.625,
        "duration": 0.089,
        "velocity": 1,
        "hand": "left"
      },
      {
        "midi": 73,
        "time": 40.536,
        "duration": 0.089,
        "velocity": 1,
        "hand": "right"
      },
      {
        "midi": 76,
        "time": 40.625,
        "duration": 0.089,
        "velocity": 1,
        "hand": "right"
      },
      {
        "midi": 52,
        "time": 40.714,
        "duration": 0.089,
        "velocity": 1,
        "hand": "left"
      },
      {
        "midi": 75,
        "time": 40.714,
        "duration": 0.089,
        "velocity": 1,
        "hand": "right"
      },
      {
        "midi": 56,
        "time": 40.804,
        "duration": 0.089,
        "velocity": 1,
        "hand": "left"
      },
      {
        "midi": 73,
        "time": 40.804,
        "duration": 0.089,
        "velocity": 1,
        "hand": "right"
      },
      {
        "midi": 75,
        "time": 40.893,
        "duration": 0.089,
        "velocity": 1,
        "hand": "right"
      },
      {
        "midi": 61,
        "time": 40.982,
        "duration": 0.089,
        "velocity": 1,
        "hand": "right"
      },
      {
        "midi": 72,
        "time": 41.071,
        "duration": 0.089,
        "velocity": 1,
        "hand": "right"
      },
      {
        "midi": 73,
        "time": 40.982,
        "duration": 0.089,
        "velocity": 1,
        "hand": "right"
      },
      {
        "midi": 61,
        "time": 41.161,
        "duration": 0.089,
        "velocity": 1,
        "hand": "right"
      },
      {
        "midi": 73,
        "time": 41.161,
        "duration": 0.089,
        "velocity": 1,
        "hand": "right"
      },
      {
        "midi": 76,
        "time": 41.25,
        "duration": 0.089,
        "velocity": 1,
        "hand": "right"
      },
      {
        "midi": 56,
        "time": 41.339,
        "duration": 0.089,
        "velocity": 1,
        "hand": "left"
      },
      {
        "midi": 80,
        "time": 41.339,
        "duration": 0.089,
        "velocity": 1,
        "hand": "right"
      },
      {
        "midi": 54,
        "time": 41.429,
        "duration": 0.089,
        "velocity": 1,
        "hand": "left"
      },
      {
        "midi": 75,
        "time": 41.518,
        "duration": 0.089,
        "velocity": 1,
        "hand": "right"
      },
      {
        "midi": 76,
        "time": 41.429,
        "duration": 0.089,
        "velocity": 1,
        "hand": "right"
      },
      {
        "midi": 63,
        "time": 41.696,
        "duration": 0.089,
        "velocity": 1,
        "hand": "right"
      },
      {
        "midi": 75,
        "time": 41.696,
        "duration": 0.089,
        "velocity": 1,
        "hand": "right"
      },
      {
        "midi": 76,
        "time": 41.607,
        "duration": 0.089,
        "velocity": 1,
        "hand": "right"
      },
      {
        "midi": 63,
        "time": 41.875,
        "duration": 0.089,
        "velocity": 1,
        "hand": "right"
      },
      {
        "midi": 74,
        "time": 41.786,
        "duration": 0.089,
        "velocity": 1,
        "hand": "right"
      },
      {
        "midi": 75,
        "time": 41.875,
        "duration": 0.089,
        "velocity": 1,
        "hand": "right"
      },
      {
        "midi": 78,
        "time": 41.964,
        "duration": 0.089,
        "velocity": 1,
        "hand": "right"
      },
      {
        "midi": 56,
        "time": 42.143,
        "duration": 0.089,
        "velocity": 1,
        "hand": "left"
      },
      {
        "midi": 78,
        "time": 42.143,
        "duration": 0.089,
        "velocity": 1,
        "hand": "right"
      },
      {
        "midi": 81,
        "time": 42.054,
        "duration": 0.089,
        "velocity": 1,
        "hand": "right"
      },
      {
        "midi": 61,
        "time": 42.232,
        "duration": 0.089,
        "velocity": 1,
        "hand": "right"
      },
      {
        "midi": 77,
        "time": 42.232,
        "duration": 0.089,
        "velocity": 1,
        "hand": "right"
      },
      {
        "midi": 78,
        "time": 42.321,
        "duration": 0.089,
        "velocity": 1,
        "hand": "right"
      },
      {
        "midi": 65,
        "time": 42.411,
        "duration": 0.089,
        "velocity": 1,
        "hand": "right"
      },
      {
        "midi": 76,
        "time": 42.5,
        "duration": 0.089,
        "velocity": 1,
        "hand": "right"
      },
      {
        "midi": 77,
        "time": 42.411,
        "duration": 0.089,
        "velocity": 1,
        "hand": "right"
      },
      {
        "midi": 65,
        "time": 42.589,
        "duration": 0.089,
        "velocity": 1,
        "hand": "right"
      },
      {
        "midi": 77,
        "time": 42.589,
        "duration": 0.089,
        "velocity": 1,
        "hand": "right"
      },
      {
        "midi": 61,
        "time": 42.768,
        "duration": 0.089,
        "velocity": 1,
        "hand": "right"
      },
      {
        "midi": 80,
        "time": 42.679,
        "duration": 0.089,
        "velocity": 1,
        "hand": "right"
      },
      {
        "midi": 85,
        "time": 42.768,
        "duration": 0.089,
        "velocity": 1,
        "hand": "right"
      },
      {
        "midi": 57,
        "time": 42.857,
        "duration": 0.089,
        "velocity": 1,
        "hand": "left"
      },
      {
        "midi": 61,
        "time": 42.946,
        "duration": 0.089,
        "velocity": 1,
        "hand": "right"
      },
      {
        "midi": 73,
        "time": 42.946,
        "duration": 0.089,
        "velocity": 1,
        "hand": "right"
      },
      {
        "midi": 66,
        "time": 43.125,
        "duration": 0.089,
        "velocity": 1,
        "hand": "right"
      },
      {
        "midi": 73,
        "time": 43.125,
        "duration": 0.089,
        "velocity": 1,
        "hand": "right"
      },
      {
        "midi": 74,
        "time": 43.036,
        "duration": 0.089,
        "velocity": 1,
        "hand": "right"
      },
      {
        "midi": 69,
        "time": 43.214,
        "duration": 0.089,
        "velocity": 1,
        "hand": "right"
      },
      {
        "midi": 72,
        "time": 43.214,
        "duration": 0.089,
        "velocity": 1,
        "hand": "right"
      },
      {
        "midi": 66,
        "time": 43.304,
        "duration": 0.089,
        "velocity": 1,
        "hand": "right"
      },
      {
        "midi": 73,
        "time": 43.304,
        "duration": 0.089,
        "velocity": 1,
        "hand": "right"
      },
      {
        "midi": 78,
        "time": 43.393,
        "duration": 0.089,
        "velocity": 1,
        "hand": "right"
      },
      {
        "midi": 56,
        "time": 43.571,
        "duration": 0.089,
        "velocity": 1,
        "hand": "left"
      },
      {
        "midi": 78,
        "time": 43.571,
        "duration": 0.089,
        "velocity": 1,
        "hand": "right"
      },
      {
        "midi": 81,
        "time": 43.482,
        "duration": 0.089,
        "velocity": 1,
        "hand": "right"
      },
      {
        "midi": 61,
        "time": 43.661,
        "duration": 0.089,
        "velocity": 1,
        "hand": "right"
      },
      {
        "midi": 77,
        "time": 43.661,
        "duration": 0.089,
        "velocity": 1,
        "hand": "right"
      },
      {
        "midi": 78,
        "time": 43.75,
        "duration": 0.089,
        "velocity": 1,
        "hand": "right"
      },
      {
        "midi": 65,
        "time": 43.839,
        "duration": 0.089,
        "velocity": 1,
        "hand": "right"
      },
      {
        "midi": 77,
        "time": 43.839,
        "duration": 0.089,
        "velocity": 1,
        "hand": "right"
      },
      {
        "midi": 65,
        "time": 44.018,
        "duration": 0.089,
        "velocity": 1,
        "hand": "right"
      },
      {
        "midi": 76,
        "time": 43.929,
        "duration": 0.089,
        "velocity": 1,
        "hand": "right"
      },
      {
        "midi": 77,
        "time": 44.018,
        "duration": 0.089,
        "velocity": 1,
        "hand": "right"
      },
      {
        "midi": 61,
        "time": 44.196,
        "duration": 0.089,
        "velocity": 1,
        "hand": "right"
      },
      {
        "midi": 80,
        "time": 44.107,
        "duration": 0.089,
        "velocity": 1,
        "hand": "right"
      },
      {
        "midi": 85,
        "time": 44.196,
        "duration": 0.089,
        "velocity": 1,
        "hand": "right"
      },
      {
        "midi": 57,
        "time": 44.286,
        "duration": 0.089,
        "velocity": 1,
        "hand": "left"
      },
      {
        "midi": 78,
        "time": 44.375,
        "duration": 0.089,
        "velocity": 1,
        "hand": "right"
      },
      {
        "midi": 80,
        "time": 44.286,
        "duration": 0.089,
        "velocity": 1,
        "hand": "right"
      },
      {
        "midi": 80,
        "time": 44.464,
        "duration": 0.089,
        "velocity": 1,
        "hand": "right"
      },
      {
        "midi": 66,
        "time": 44.554,
        "duration": 0.089,
        "velocity": 1,
        "hand": "right"
      },
      {
        "midi": 77,
        "time": 44.643,
        "duration": 0.089,
        "velocity": 1,
        "hand": "right"
      },
      {
        "midi": 78,
        "time": 44.554,
        "duration": 0.089,
        "velocity": 1,
        "hand": "right"
      },
      {
        "midi": 66,
        "time": 44.732,
        "duration": 0.089,
        "velocity": 1,
        "hand": "right"
      },
      {
        "midi": 78,
        "time": 44.732,
        "duration": 0.089,
        "velocity": 1,
        "hand": "right"
      },
      {
        "midi": 81,
        "time": 44.821,
        "duration": 0.089,
        "velocity": 1,
        "hand": "right"
      },
      {
        "midi": 48,
        "time": 45,
        "duration": 0.089,
        "velocity": 1,
        "hand": "left"
      },
      {
        "midi": 81,
        "time": 45,
        "duration": 0.089,
        "velocity": 1,
        "hand": "right"
      },
      {
        "midi": 85,
        "time": 44.911,
        "duration": 0.089,
        "velocity": 1,
        "hand": "right"
      },
      {
        "midi": 54,
        "time": 45.089,
        "duration": 0.089,
        "velocity": 1,
        "hand": "left"
      },
      {
        "midi": 80,
        "time": 45.089,
        "duration": 0.089,
        "velocity": 1,
        "hand": "right"
      },
      {
        "midi": 56,
        "time": 45.268,
        "duration": 0.089,
        "velocity": 1,
        "hand": "left"
      },
      {
        "midi": 80,
        "time": 45.268,
        "duration": 0.089,
        "velocity": 1,
        "hand": "right"
      },
      {
        "midi": 81,
        "time": 45.179,
        "duration": 0.089,
        "velocity": 1,
        "hand": "right"
      },
      {
        "midi": 56,
        "time": 45.446,
        "duration": 0.089,
        "velocity": 1,
        "hand": "left"
      },
      {
        "midi": 79,
        "time": 45.357,
        "duration": 0.089,
        "velocity": 1,
        "hand": "right"
      },
      {
        "midi": 80,
        "time": 45.446,
        "duration": 0.089,
        "velocity": 1,
        "hand": "right"
      },
      {
        "midi": 54,
        "time": 45.625,
        "duration": 0.089,
        "velocity": 1,
        "hand": "left"
      },
      {
        "midi": 84,
        "time": 45.536,
        "duration": 0.089,
        "velocity": 1,
        "hand": "right"
      },
      {
        "midi": 87,
        "time": 45.625,
        "duration": 0.089,
        "velocity": 1,
        "hand": "right"
      },
      {
        "midi": 49,
        "time": 45.714,
        "duration": 0.089,
        "velocity": 1,
        "hand": "left"
      },
      {
        "midi": 80,
        "time": 45.714,
        "duration": 0.089,
        "velocity": 1,
        "hand": "right"
      },
      {
        "midi": 56,
        "time": 45.804,
        "duration": 0.089,
        "velocity": 1,
        "hand": "left"
      },
      {
        "midi": 80,
        "time": 45.893,
        "duration": 0.089,
        "velocity": 1,
        "hand": "right"
      },
      {
        "midi": 81,
        "time": 45.804,
        "duration": 0.089,
        "velocity": 1,
        "hand": "right"
      },
      {
        "midi": 61,
        "time": 45.982,
        "duration": 0.089,
        "velocity": 1,
        "hand": "right"
      },
      {
        "midi": 79,
        "time": 45.982,
        "duration": 0.089,
        "velocity": 1,
        "hand": "right"
      },
      {
        "midi": 80,
        "time": 46.071,
        "duration": 0.089,
        "velocity": 1,
        "hand": "right"
      },
      {
        "midi": 61,
        "time": 46.161,
        "duration": 0.089,
        "velocity": 1,
        "hand": "right"
      },
      {
        "midi": 87,
        "time": 46.25,
        "duration": 0.089,
        "velocity": 1,
        "hand": "right"
      },
      {
        "midi": 88,
        "time": 46.161,
        "duration": 0.089,
        "velocity": 1,
        "hand": "right"
      },
      {
        "midi": 56,
        "time": 46.339,
        "duration": 0.089,
        "velocity": 1,
        "hand": "left"
      },
      {
        "midi": 86,
        "time": 46.339,
        "duration": 0.089,
        "velocity": 1,
        "hand": "right"
      },
      {
        "midi": 51,
        "time": 46.429,
        "duration": 0.089,
        "velocity": 1,
        "hand": "left"
      },
      {
        "midi": 84,
        "time": 46.518,
        "duration": 0.089,
        "velocity": 1,
        "hand": "right"
      },
      {
        "midi": 85,
        "time": 46.429,
        "duration": 0.089,
        "velocity": 1,
        "hand": "right"
      },
      {
        "midi": 60,
        "time": 46.696,
        "duration": 0.089,
        "velocity": 1,
        "hand": "right"
      },
      {
        "midi": 82,
        "time": 46.696,
        "duration": 0.089,
        "velocity": 1,
        "hand": "right"
      },
      {
        "midi": 83,
        "time": 46.607,
        "duration": 0.089,
        "velocity": 1,
        "hand": "right"
      },
      {
        "midi": 60,
        "time": 46.875,
        "duration": 0.089,
        "velocity": 1,
        "hand": "right"
      },
      {
        "midi": 80,
        "time": 46.875,
        "duration": 0.089,
        "velocity": 1,
        "hand": "right"
      },
      {
        "midi": 81,
        "time": 46.786,
        "duration": 0.089,
        "velocity": 1,
        "hand": "right"
      },
      {
        "midi": 79,
        "time": 46.964,
        "duration": 0.089,
        "velocity": 1,
        "hand": "right"
      },
      {
        "midi": 49,
        "time": 47.143,
        "duration": 0.089,
        "velocity": 1,
        "hand": "left"
      },
      {
        "midi": 76,
        "time": 47.143,
        "duration": 0.089,
        "velocity": 1,
        "hand": "right"
      },
      {
        "midi": 78,
        "time": 47.054,
        "duration": 0.089,
        "velocity": 1,
        "hand": "right"
      },
      {
        "midi": 56,
        "time": 47.232,
        "duration": 0.089,
        "velocity": 1,
        "hand": "left"
      },
      {
        "midi": 76,
        "time": 47.321,
        "duration": 0.089,
        "velocity": 1,
        "hand": "right"
      },
      {
        "midi": 78,
        "time": 47.232,
        "duration": 0.089,
        "velocity": 1,
        "hand": "right"
      },
      {
        "midi": 61,
        "time": 47.411,
        "duration": 0.089,
        "velocity": 1,
        "hand": "right"
      },
      {
        "midi": 75,
        "time": 47.411,
        "duration": 0.089,
        "velocity": 1,
        "hand": "right"
      },
      {
        "midi": 76,
        "time": 47.5,
        "duration": 0.089,
        "velocity": 1,
        "hand": "right"
      },
      {
        "midi": 61,
        "time": 47.589,
        "duration": 0.089,
        "velocity": 1,
        "hand": "right"
      },
      {
        "midi": 88,
        "time": 47.589,
        "duration": 0.089,
        "velocity": 1,
        "hand": "right"
      },
      {
        "midi": 56,
        "time": 47.768,
        "duration": 0.089,
        "velocity": 1,
        "hand": "left"
      },
      {
        "midi": 86,
        "time": 47.768,
        "duration": 0.089,
        "velocity": 1,
        "hand": "right"
      },
      {
        "midi": 87,
        "time": 47.679,
        "duration": 0.089,
        "velocity": 1,
        "hand": "right"
      },
      {
        "midi": 54,
        "time": 47.857,
        "duration": 0.089,
        "velocity": 1,
        "hand": "left"
      },
      {
        "midi": 84,
        "time": 47.946,
        "duration": 0.089,
        "velocity": 1,
        "hand": "right"
      },
      {
        "midi": 85,
        "time": 47.857,
        "duration": 0.089,
        "velocity": 1,
        "hand": "right"
      },
      {
        "midi": 63,
        "time": 48.125,
        "duration": 0.089,
        "velocity": 1,
        "hand": "right"
      },
      {
        "midi": 82,
        "time": 48.125,
        "duration": 0.089,
        "velocity": 1,
        "hand": "right"
      },
      {
        "midi": 83,
        "time": 48.036,
        "duration": 0.089,
        "velocity": 1,
        "hand": "right"
      },
      {
        "midi": 69,
        "time": 48.214,
        "duration": 0.089,
        "velocity": 1,
        "hand": "right"
      },
      {
        "midi": 81,
        "time": 48.214,
        "duration": 0.089,
        "velocity": 1,
        "hand": "right"
      },
      {
        "midi": 63,
        "time": 48.304,
        "duration": 0.089,
        "velocity": 1,
        "hand": "right"
      },
      {
        "midi": 79,
        "time": 48.393,
        "duration": 0.089,
        "velocity": 1,
        "hand": "right"
      },
      {
        "midi": 80,
        "time": 48.304,
        "duration": 0.089,
        "velocity": 1,
        "hand": "right"
      },
      {
        "midi": 56,
        "time": 48.571,
        "duration": 0.179,
        "velocity": 1,
        "hand": "left"
      },
      {
        "midi": 64,
        "time": 48.571,
        "duration": 0.179,
        "velocity": 1,
        "hand": "right"
      },
      {
        "midi": 80,
        "time": 48.571,
        "duration": 0.089,
        "velocity": 1,
        "hand": "right"
      },
      {
        "midi": 91,
        "time": 48.839,
        "duration": 0.089,
        "velocity": 1,
        "hand": "right"
      },
      {
        "midi": 92,
        "time": 48.75,
        "duration": 0.089,
        "velocity": 1,
        "hand": "right"
      },
      {
        "midi": 89,
        "time": 49.018,
        "duration": 0.089,
        "velocity": 1,
        "hand": "right"
      },
      {
        "midi": 90,
        "time": 48.929,
        "duration": 0.089,
        "velocity": 1,
        "hand": "right"
      },
      {
        "midi": 87,
        "time": 49.196,
        "duration": 0.089,
        "velocity": 1,
        "hand": "right"
      },
      {
        "midi": 88,
        "time": 49.107,
        "duration": 0.089,
        "velocity": 1,
        "hand": "right"
      },
      {
        "midi": 55,
        "time": 49.286,
        "duration": 0.357,
        "velocity": 1,
        "hand": "left"
      },
      {
        "midi": 69,
        "time": 49.286,
        "duration": 0.357,
        "velocity": 1,
        "hand": "right"
      },
      {
        "midi": 86,
        "time": 49.286,
        "duration": 0.089,
        "velocity": 1,
        "hand": "right"
      },
      {
        "midi": 84,
        "time": 49.464,
        "duration": 0.089,
        "velocity": 1,
        "hand": "right"
      },
      {
        "midi": 82,
        "time": 49.643,
        "duration": 0.089,
        "velocity": 1,
        "hand": "right"
      },
      {
        "midi": 83,
        "time": 49.554,
        "duration": 0.089,
        "velocity": 1,
        "hand": "right"
      },
      {
        "midi": 80,
        "time": 49.821,
        "duration": 0.089,
        "velocity": 1,
        "hand": "right"
      },
      {
        "midi": 81,
        "time": 49.732,
        "duration": 0.089,
        "velocity": 1,
        "hand": "right"
      },
      {
        "midi": 78,
        "time": 50,
        "duration": 0.089,
        "velocity": 1,
        "hand": "right"
      },
      {
        "midi": 79,
        "time": 49.911,
        "duration": 0.089,
        "velocity": 1,
        "hand": "right"
      },
      {
        "midi": 77,
        "time": 50.089,
        "duration": 0.089,
        "velocity": 1,
        "hand": "right"
      },
      {
        "midi": 75,
        "time": 50.268,
        "duration": 0.089,
        "velocity": 1,
        "hand": "right"
      },
      {
        "midi": 76,
        "time": 50.179,
        "duration": 0.089,
        "velocity": 1,
        "hand": "right"
      },
      {
        "midi": 73,
        "time": 50.446,
        "duration": 0.089,
        "velocity": 1,
        "hand": "right"
      },
      {
        "midi": 74,
        "time": 50.357,
        "duration": 0.089,
        "velocity": 1,
        "hand": "right"
      },
      {
        "midi": 71,
        "time": 50.625,
        "duration": 0.089,
        "velocity": 1,
        "hand": "right"
      },
      {
        "midi": 72,
        "time": 50.536,
        "duration": 0.089,
        "velocity": 1,
        "hand": "right"
      },
      {
        "midi": 70,
        "time": 50.714,
        "duration": 0.089,
        "velocity": 1,
        "hand": "right"
      },
      {
        "midi": 68,
        "time": 50.893,
        "duration": 0.089,
        "velocity": 1,
        "hand": "right"
      },
      {
        "midi": 69,
        "time": 50.804,
        "duration": 0.089,
        "velocity": 1,
        "hand": "right"
      },
      {
        "midi": 66,
        "time": 51.071,
        "duration": 0.089,
        "velocity": 1,
        "hand": "right"
      },
      {
        "midi": 67,
        "time": 50.982,
        "duration": 0.089,
        "velocity": 1,
        "hand": "right"
      },
      {
        "midi": 63,
        "time": 51.25,
        "duration": 0.089,
        "velocity": 1,
        "hand": "right"
      },
      {
        "midi": 64,
        "time": 51.161,
        "duration": 0.089,
        "velocity": 1,
        "hand": "right"
      },
      {
        "midi": 61,
        "time": 51.339,
        "duration": 0.089,
        "velocity": 1,
        "hand": "right"
      },
      {
        "midi": 32,
        "time": 51.429,
        "duration": 0.179,
        "velocity": 1,
        "hand": "left"
      },
      {
        "midi": 44,
        "time": 51.429,
        "duration": 0.179,
        "velocity": 1,
        "hand": "left"
      },
      {
        "midi": 56,
        "time": 51.429,
        "duration": 0.179,
        "velocity": 1,
        "hand": "left"
      },
      {
        "midi": 64,
        "time": 51.786,
        "duration": 0.357,
        "velocity": 1,
        "hand": "right"
      },
      {
        "midi": 92,
        "time": 51.875,
        "duration": 0.089,
        "velocity": 1,
        "hand": "right"
      },
      {
        "midi": 93,
        "time": 51.786,
        "duration": 0.089,
        "velocity": 1,
        "hand": "right"
      },
      {
        "midi": 100,
        "time": 51.964,
        "duration": 0.089,
        "velocity": 1,
        "hand": "right"
      },
      {
        "midi": 61,
        "time": 52.143,
        "duration": 0.357,
        "velocity": 1,
        "hand": "right"
      },
      {
        "midi": 88,
        "time": 52.054,
        "duration": 0.089,
        "velocity": 1,
        "hand": "right"
      },
      {
        "midi": 90,
        "time": 52.143,
        "duration": 0.089,
        "velocity": 1,
        "hand": "right"
      },
      {
        "midi": 88,
        "time": 52.232,
        "duration": 0.089,
        "velocity": 1,
        "hand": "right"
      },
      {
        "midi": 97,
        "time": 52.321,
        "duration": 0.089,
        "velocity": 1,
        "hand": "right"
      },
      {
        "midi": 56,
        "time": 52.5,
        "duration": 0.357,
        "velocity": 1,
        "hand": "left"
      },
      {
        "midi": 85,
        "time": 52.411,
        "duration": 0.089,
        "velocity": 1,
        "hand": "right"
      },
      {
        "midi": 87,
        "time": 52.5,
        "duration": 0.089,
        "velocity": 1,
        "hand": "right"
      },
      {
        "midi": 85,
        "time": 52.589,
        "duration": 0.089,
        "velocity": 1,
        "hand": "right"
      },
      {
        "midi": 80,
        "time": 52.768,
        "duration": 0.089,
        "velocity": 1,
        "hand": "right"
      },
      {
        "midi": 92,
        "time": 52.679,
        "duration": 0.089,
        "velocity": 1,
        "hand": "right"
      },
      {
        "midi": 52,
        "time": 52.857,
        "duration": 0.357,
        "velocity": 1,
        "hand": "left"
      },
      {
        "midi": 80,
        "time": 52.946,
        "duration": 0.089,
        "velocity": 1,
        "hand": "right"
      },
      {
        "midi": 81,
        "time": 52.857,
        "duration": 0.089,
        "velocity": 1,
        "hand": "right"
      },
      {
        "midi": 76,
        "time": 53.125,
        "duration": 0.089,
        "velocity": 1,
        "hand": "right"
      },
      {
        "midi": 88,
        "time": 53.036,
        "duration": 0.089,
        "velocity": 1,
        "hand": "right"
      },
      {
        "midi": 49,
        "time": 53.214,
        "duration": 0.357,
        "velocity": 1,
        "hand": "left"
      },
      {
        "midi": 61,
        "time": 53.214,
        "duration": 0.357,
        "velocity": 1,
        "hand": "right"
      },
      {
        "midi": 78,
        "time": 53.214,
        "duration": 0.089,
        "velocity": 1,
        "hand": "right"
      },
      {
        "midi": 76,
        "time": 53.304,
        "duration": 0.089,
        "velocity": 1,
        "hand": "right"
      },
      {
        "midi": 85,
        "time": 53.393,
        "duration": 0.089,
        "velocity": 1,
        "hand": "right"
      },
      {
        "midi": 44,
        "time": 53.571,
        "duration": 0.357,
        "velocity": 1,
        "hand": "left"
      },
      {
        "midi": 73,
        "time": 53.482,
        "duration": 0.089,
        "velocity": 1,
        "hand": "right"
      },
      {
        "midi": 75,
        "time": 53.571,
        "duration": 0.089,
        "velocity": 1,
        "hand": "right"
      },
      {
        "midi": 73,
        "time": 53.661,
        "duration": 0.089,
        "velocity": 1,
        "hand": "right"
      },
      {
        "midi": 80,
        "time": 53.75,
        "duration": 0.089,
        "velocity": 1,
        "hand": "right"
      },
      {
        "midi": 68,
        "time": 53.839,
        "duration": 0.089,
        "velocity": 1,
        "hand": "right"
      },
      {
        "midi": 40,
        "time": 53.929,
        "duration": 0.357,
        "velocity": 1,
        "hand": "left"
      },
      {
        "midi": 68,
        "time": 54.018,
        "duration": 0.089,
        "velocity": 1,
        "hand": "right"
      },
      {
        "midi": 69,
        "time": 53.929,
        "duration": 0.089,
        "velocity": 1,
        "hand": "right"
      },
      {
        "midi": 64,
        "time": 54.196,
        "duration": 0.089,
        "velocity": 1,
        "hand": "right"
      },
      {
        "midi": 76,
        "time": 54.107,
        "duration": 0.089,
        "velocity": 1,
        "hand": "right"
      },
      {
        "midi": 37,
        "time": 54.286,
        "duration": 0.357,
        "velocity": 1,
        "hand": "left"
      },
      {
        "midi": 64,
        "time": 54.375,
        "duration": 0.089,
        "velocity": 1,
        "hand": "right"
      },
      {
        "midi": 66,
        "time": 54.286,
        "duration": 0.089,
        "velocity": 1,
        "hand": "right"
      },
      {
        "midi": 73,
        "time": 54.464,
        "duration": 0.089,
        "velocity": 1,
        "hand": "right"
      },
      {
        "midi": 32,
        "time": 54.643,
        "duration": 0.357,
        "velocity": 1,
        "hand": "left"
      },
      {
        "midi": 61,
        "time": 54.554,
        "duration": 0.089,
        "velocity": 1,
        "hand": "right"
      },
      {
        "midi": 63,
        "time": 54.643,
        "duration": 0.089,
        "velocity": 1,
        "hand": "right"
      },
      {
        "midi": 61,
        "time": 54.732,
        "duration": 0.089,
        "velocity": 1,
        "hand": "right"
      },
      {
        "midi": 68,
        "time": 54.821,
        "duration": 0.089,
        "velocity": 1,
        "hand": "right"
      },
      {
        "midi": 32,
        "time": 55,
        "duration": 0.357,
        "velocity": 1,
        "hand": "left"
      },
      {
        "midi": 56,
        "time": 54.911,
        "duration": 0.089,
        "velocity": 1,
        "hand": "left"
      },
      {
        "midi": 63,
        "time": 55,
        "duration": 0.089,
        "velocity": 1,
        "hand": "right"
      },
      {
        "midi": 61,
        "time": 55.089,
        "duration": 0.089,
        "velocity": 1,
        "hand": "right"
      },
      {
        "midi": 56,
        "time": 55.268,
        "duration": 0.089,
        "velocity": 1,
        "hand": "left"
      },
      {
        "midi": 68,
        "time": 55.179,
        "duration": 0.089,
        "velocity": 1,
        "hand": "right"
      },
      {
        "midi": 33,
        "time": 55.357,
        "duration": 0.357,
        "velocity": 1,
        "hand": "left"
      },
      {
        "midi": 61,
        "time": 55.446,
        "duration": 0.089,
        "velocity": 1,
        "hand": "right"
      },
      {
        "midi": 63,
        "time": 55.357,
        "duration": 0.089,
        "velocity": 1,
        "hand": "right"
      },
      {
        "midi": 57,
        "time": 55.625,
        "duration": 0.089,
        "velocity": 1,
        "hand": "left"
      },
      {
        "midi": 69,
        "time": 55.536,
        "duration": 0.089,
        "velocity": 1,
        "hand": "right"
      },
      {
        "midi": 32,
        "time": 55.714,
        "duration": 0.357,
        "velocity": 1,
        "hand": "left"
      },
      {
        "midi": 44,
        "time": 55.714,
        "duration": 0.357,
        "velocity": 1,
        "hand": "left"
      },
      {
        "midi": 63,
        "time": 55.714,
        "duration": 0.089,
        "velocity": 1,
        "hand": "right"
      },
      {
        "midi": 61,
        "time": 55.804,
        "duration": 0.089,
        "velocity": 1,
        "hand": "right"
      },
      {
        "midi": 68,
        "time": 55.893,
        "duration": 0.089,
        "velocity": 1,
        "hand": "right"
      },
      {
        "midi": 31,
        "time": 56.071,
        "duration": 0.357,
        "velocity": 1,
        "hand": "left"
      },
      {
        "midi": 56,
        "time": 55.982,
        "duration": 0.089,
        "velocity": 1,
        "hand": "left"
      },
      {
        "midi": 63,
        "time": 56.071,
        "duration": 0.089,
        "velocity": 1,
        "hand": "right"
      },
      {
        "midi": 61,
        "time": 56.161,
        "duration": 0.089,
        "velocity": 1,
        "hand": "right"
      },
      {
        "midi": 67,
        "time": 56.25,
        "duration": 0.089,
        "velocity": 1,
        "hand": "right"
      },
      {
        "midi": 55,
        "time": 56.339,
        "duration": 0.089,
        "velocity": 1,
        "hand": "left"
      },
      {
        "midi": 32,
        "time": 56.429,
        "duration": 0.714,
        "velocity": 1,
        "hand": "left"
      },
      {
        "midi": 61,
        "time": 56.518,
        "duration": 0.089,
        "velocity": 1,
        "hand": "right"
      },
      {
        "midi": 63,
        "time": 56.429,
        "duration": 0.089,
        "velocity": 1,
        "hand": "right"
      },
      {
        "midi": 56,
        "time": 56.696,
        "duration": 0.089,
        "velocity": 1,
        "hand": "left"
      },
      {
        "midi": 68,
        "time": 56.607,
        "duration": 0.089,
        "velocity": 1,
        "hand": "right"
      },
      {
        "midi": 60,
        "time": 56.875,
        "duration": 0.089,
        "velocity": 1,
        "hand": "right"
      },
      {
        "midi": 63,
        "time": 56.786,
        "duration": 0.089,
        "velocity": 1,
        "hand": "right"
      },
      {
        "midi": 68,
        "time": 56.964,
        "duration": 0.089,
        "velocity": 1,
        "hand": "right"
      },
      {
        "midi": 37,
        "time": 57.143,
        "duration": 0.357,
        "velocity": 1,
        "hand": "left"
      },
      {
        "midi": 56,
        "time": 57.054,
        "duration": 0.089,
        "velocity": 1,
        "hand": "left"
      },
      {
        "midi": 44,
        "time": 57.5,
        "duration": 0.357,
        "velocity": 1,
        "hand": "left"
      },
      {
        "midi": 49,
        "time": 57.768,
        "duration": 0.357,
        "velocity": 1,
        "hand": "left"
      },
      {
        "midi": 53,
        "time": 58.125,
        "duration": 0.357,
        "velocity": 1,
        "hand": "left"
      },
      {
        "midi": 56,
        "time": 58.482,
        "duration": 0.357,
        "velocity": 1,
        "hand": "left"
      },
      {
        "midi": 61,
        "time": 58.839,
        "duration": 0.357,
        "velocity": 1,
        "hand": "right"
      },
      {
        "midi": 65,
        "time": 59.107,
        "duration": 0.357,
        "velocity": 1,
        "hand": "right"
      },
      {
        "midi": 61,
        "time": 59.464,
        "duration": 0.357,
        "velocity": 1,
        "hand": "right"
      },
      {
        "midi": 56,
        "time": 59.821,
        "duration": 0.357,
        "velocity": 1,
        "hand": "left"
      },
      {
        "midi": 53,
        "time": 60.179,
        "duration": 0.357,
        "velocity": 1,
        "hand": "left"
      },
      {
        "midi": 49,
        "time": 60.446,
        "duration": 0.357,
        "velocity": 1,
        "hand": "left"
      },
      {
        "midi": 44,
        "time": 60.804,
        "duration": 0.357,
        "velocity": 1,
        "hand": "left"
      },
      {
        "midi": 37,
        "time": 61.161,
        "duration": 0.357,
        "velocity": 1,
        "hand": "left"
      },
      {
        "midi": 44,
        "time": 61.518,
        "duration": 0.357,
        "velocity": 1,
        "hand": "left"
      },
      {
        "midi": 49,
        "time": 61.786,
        "duration": 0.357,
        "velocity": 1,
        "hand": "left"
      },
      {
        "midi": 53,
        "time": 62.143,
        "duration": 0.357,
        "velocity": 1,
        "hand": "left"
      },
      {
        "midi": 56,
        "time": 62.5,
        "duration": 0.357,
        "velocity": 1,
        "hand": "left"
      },
      {
        "midi": 61,
        "time": 62.768,
        "duration": 0.357,
        "velocity": 1,
        "hand": "right"
      },
      {
        "midi": 65,
        "time": 63.125,
        "duration": 0.357,
        "velocity": 1,
        "hand": "right"
      },
      {
        "midi": 61,
        "time": 63.482,
        "duration": 0.357,
        "velocity": 1,
        "hand": "right"
      },
      {
        "midi": 56,
        "time": 63.839,
        "duration": 0.357,
        "velocity": 1,
        "hand": "left"
      },
      {
        "midi": 53,
        "time": 64.107,
        "duration": 0.357,
        "velocity": 1,
        "hand": "left"
      },
      {
        "midi": 49,
        "time": 64.464,
        "duration": 0.357,
        "velocity": 1,
        "hand": "left"
      },
      {
        "midi": 44,
        "time": 64.821,
        "duration": 0.536,
        "velocity": 1,
        "hand": "left"
      },
      {
        "midi": 37,
        "time": 65.179,
        "duration": 0.179,
        "velocity": 1,
        "hand": "left"
      },
      {
        "midi": 68,
        "time": 65.179,
        "duration": 1.339,
        "velocity": 1,
        "hand": "right"
      },
      {
        "midi": 56,
        "time": 65.357,
        "duration": 0.179,
        "velocity": 1,
        "hand": "left"
      },
      {
        "midi": 60,
        "time": 65.625,
        "duration": 0.179,
        "velocity": 1,
        "hand": "right"
      },
      {
        "midi": 63,
        "time": 65.804,
        "duration": 0.179,
        "velocity": 1,
        "hand": "right"
      },
      {
        "midi": 60,
        "time": 66.071,
        "duration": 0.179,
        "velocity": 1,
        "hand": "right"
      },
      {
        "midi": 56,
        "time": 66.25,
        "duration": 0.179,
        "velocity": 1,
        "hand": "left"
      },
      {
        "midi": 49,
        "time": 66.518,
        "duration": 0.179,
        "velocity": 1,
        "hand": "left"
      },
      {
        "midi": 70,
        "time": 66.518,
        "duration": 0.357,
        "velocity": 1,
        "hand": "right"
      },
      {
        "midi": 56,
        "time": 66.696,
        "duration": 0.179,
        "velocity": 1,
        "hand": "left"
      },
      {
        "midi": 68,
        "time": 66.786,
        "duration": 0.357,
        "velocity": 1,
        "hand": "right"
      },
      {
        "midi": 60,
        "time": 66.964,
        "duration": 0.179,
        "velocity": 1,
        "hand": "right"
      },
      {
        "midi": 66,
        "time": 67.143,
        "duration": 0.179,
        "velocity": 1,
        "hand": "right"
      },
      {
        "midi": 73,
        "time": 67.143,
        "duration": 0.357,
        "velocity": 1,
        "hand": "right"
      },
      {
        "midi": 60,
        "time": 67.321,
        "duration": 0.179,
        "velocity": 1,
        "hand": "right"
      },
      {
        "midi": 56,
        "time": 67.589,
        "duration": 0.179,
        "velocity": 1,
        "hand": "left"
      },
      {
        "midi": 75,
        "time": 67.5,
        "duration": 0.357,
        "velocity": 1,
        "hand": "right"
      },
      {
        "midi": 49,
        "time": 67.768,
        "duration": 0.179,
        "velocity": 1,
        "hand": "left"
      },
      {
        "midi": 77,
        "time": 67.768,
        "duration": 1.339,
        "velocity": 1,
        "hand": "right"
      },
      {
        "midi": 56,
        "time": 68.036,
        "duration": 0.179,
        "velocity": 1,
        "hand": "left"
      },
      {
        "midi": 61,
        "time": 68.214,
        "duration": 0.179,
        "velocity": 1,
        "hand": "right"
      },
      {
        "midi": 65,
        "time": 68.482,
        "duration": 0.179,
        "velocity": 1,
        "hand": "right"
      },
      {
        "midi": 61,
        "time": 68.661,
        "duration": 0.179,
        "velocity": 1,
        "hand": "right"
      },
      {
        "midi": 56,
        "time": 68.929,
        "duration": 0.179,
        "velocity": 1,
        "hand": "left"
      },
      {
        "midi": 49,
        "time": 69.107,
        "duration": 0.179,
        "velocity": 1,
        "hand": "left"
      },
      {
        "midi": 80,
        "time": 69.107,
        "duration": 1.339,
        "velocity": 1,
        "hand": "right"
      },
      {
        "midi": 56,
        "time": 69.375,
        "duration": 0.179,
        "velocity": 1,
        "hand": "left"
      },
      {
        "midi": 65,
        "time": 69.554,
        "duration": 0.179,
        "velocity": 1,
        "hand": "right"
      },
      {
        "midi": 68,
        "time": 69.821,
        "duration": 0.625,
        "velocity": 1,
        "hand": "right"
      },
      {
        "midi": 65,
        "time": 70,
        "duration": 0.179,
        "velocity": 1,
        "hand": "right"
      },
      {
        "midi": 56,
        "time": 70.268,
        "duration": 0.179,
        "velocity": 1,
        "hand": "left"
      },
      {
        "midi": 66,
        "time": 70.446,
        "duration": 0.625,
        "velocity": 1,
        "hand": "right"
      },
      {
        "midi": 78,
        "time": 70.446,
        "duration": 0.625,
        "velocity": 1,
        "hand": "right"
      },
      {
        "midi": 63,
        "time": 70.714,
        "duration": 0.179,
        "velocity": 1,
        "hand": "right"
      },
      {
        "midi": 56,
        "time": 70.893,
        "duration": 0.179,
        "velocity": 1,
        "hand": "left"
      },
      {
        "midi": 65,
        "time": 71.161,
        "duration": 0.625,
        "velocity": 1,
        "hand": "right"
      },
      {
        "midi": 77,
        "time": 71.161,
        "duration": 0.625,
        "velocity": 1,
        "hand": "right"
      },
      {
        "midi": 61,
        "time": 71.339,
        "duration": 0.179,
        "velocity": 1,
        "hand": "right"
      },
      {
        "midi": 56,
        "time": 71.607,
        "duration": 0.179,
        "velocity": 1,
        "hand": "left"
      },
      {
        "midi": 63,
        "time": 71.786,
        "duration": 0.625,
        "velocity": 1,
        "hand": "right"
      },
      {
        "midi": 75,
        "time": 71.786,
        "duration": 0.625,
        "velocity": 1,
        "hand": "right"
      },
      {
        "midi": 60,
        "time": 72.054,
        "duration": 0.179,
        "velocity": 1,
        "hand": "right"
      },
      {
        "midi": 56,
        "time": 72.232,
        "duration": 0.179,
        "velocity": 1,
        "hand": "left"
      },
      {
        "midi": 61,
        "time": 72.5,
        "duration": 0.625,
        "velocity": 1,
        "hand": "right"
      },
      {
        "midi": 77,
        "time": 72.5,
        "duration": 0.536,
        "velocity": 1,
        "hand": "right"
      },
      {
        "midi": 56,
        "time": 72.679,
        "duration": 0.179,
        "velocity": 1,
        "hand": "left"
      },
      {
        "midi": 53,
        "time": 72.946,
        "duration": 0.179,
        "velocity": 1,
        "hand": "left"
      },
      {
        "midi": 73,
        "time": 72.946,
        "duration": 0.179,
        "velocity": 1,
        "hand": "right"
      },
      {
        "midi": 44,
        "time": 73.125,
        "duration": 0.179,
        "velocity": 1,
        "hand": "left"
      },
      {
        "midi": 68,
        "time": 73.125,
        "duration": 1.339,
        "velocity": 1,
        "hand": "right"
      },
      {
        "midi": 51,
        "time": 73.393,
        "duration": 0.179,
        "velocity": 1,
        "hand": "left"
      },
      {
        "midi": 56,
        "time": 73.571,
        "duration": 0.179,
        "velocity": 1,
        "hand": "left"
      },
      {
        "midi": 60,
        "time": 73.839,
        "duration": 0.179,
        "velocity": 1,
        "hand": "right"
      },
      {
        "midi": 56,
        "time": 74.018,
        "duration": 0.179,
        "velocity": 1,
        "hand": "left"
      },
      {
        "midi": 51,
        "time": 74.286,
        "duration": 0.179,
        "velocity": 1,
        "hand": "left"
      },
      {
        "midi": 42,
        "time": 74.464,
        "duration": 0.179,
        "velocity": 1,
        "hand": "left"
      },
      {
        "midi": 70,
        "time": 74.464,
        "duration": 2.679,
        "velocity": 1,
        "hand": "right"
      },
      {
        "midi": 54,
        "time": 74.732,
        "duration": 0.179,
        "velocity": 1,
        "hand": "left"
      },
      {
        "midi": 58,
        "time": 74.911,
        "duration": 0.179,
        "velocity": 1,
        "hand": "left"
      },
      {
        "midi": 61,
        "time": 75.179,
        "duration": 0.179,
        "velocity": 1,
        "hand": "right"
      },
      {
        "midi": 58,
        "time": 75.357,
        "duration": 0.179,
        "velocity": 1,
        "hand": "left"
      },
      {
        "midi": 54,
        "time": 75.625,
        "duration": 0.179,
        "velocity": 1,
        "hand": "left"
      },
      {
        "midi": 46,
        "time": 75.804,
        "duration": 0.179,
        "velocity": 1,
        "hand": "left"
      },
      {
        "midi": 53,
        "time": 76.071,
        "duration": 0.179,
        "velocity": 1,
        "hand": "left"
      },
      {
        "midi": 58,
        "time": 76.25,
        "duration": 0.179,
        "velocity": 1,
        "hand": "left"
      },
      {
        "midi": 62,
        "time": 76.518,
        "duration": 0.179,
        "velocity": 1,
        "hand": "right"
      },
      {
        "midi": 58,
        "time": 76.696,
        "duration": 0.179,
        "velocity": 1,
        "hand": "left"
      },
      {
        "midi": 53,
        "time": 76.964,
        "duration": 0.179,
        "velocity": 1,
        "hand": "left"
      },
      {
        "midi": 46,
        "time": 77.143,
        "duration": 0.179,
        "velocity": 1,
        "hand": "left"
      },
      {
        "midi": 71,
        "time": 77.143,
        "duration": 0.357,
        "velocity": 1,
        "hand": "right"
      },
      {
        "midi": 58,
        "time": 77.321,
        "duration": 0.179,
        "velocity": 1,
        "hand": "left"
      },
      {
        "midi": 62,
        "time": 77.589,
        "duration": 0.179,
        "velocity": 1,
        "hand": "right"
      },
      {
        "midi": 70,
        "time": 77.5,
        "duration": 0.357,
        "velocity": 1,
        "hand": "right"
      },
      {
        "midi": 68,
        "time": 77.768,
        "duration": 0.179,
        "velocity": 1,
        "hand": "right"
      },
      {
        "midi": 75,
        "time": 77.768,
        "duration": 0.357,
        "velocity": 1,
        "hand": "right"
      },
      {
        "midi": 62,
        "time": 78.036,
        "duration": 0.179,
        "velocity": 1,
        "hand": "right"
      },
      {
        "midi": 77,
        "time": 78.125,
        "duration": 0.357,
        "velocity": 1,
        "hand": "right"
      },
      {
        "midi": 58,
        "time": 78.214,
        "duration": 0.179,
        "velocity": 1,
        "hand": "left"
      },
      {
        "midi": 51,
        "time": 78.482,
        "duration": 0.179,
        "velocity": 1,
        "hand": "left"
      },
      {
        "midi": 78,
        "time": 78.482,
        "duration": 0.625,
        "velocity": 1,
        "hand": "right"
      },
      {
        "midi": 66,
        "time": 78.661,
        "duration": 0.179,
        "velocity": 1,
        "hand": "right"
      },
      {
        "midi": 58,
        "time": 78.929,
        "duration": 0.179,
        "velocity": 1,
        "hand": "left"
      },
      {
        "midi": 53,
        "time": 79.107,
        "duration": 0.179,
        "velocity": 1,
        "hand": "left"
      },
      {
        "midi": 77,
        "time": 79.107,
        "duration": 0.625,
        "velocity": 1,
        "hand": "right"
      },
      {
        "midi": 65,
        "time": 79.375,
        "duration": 0.179,
        "velocity": 1,
        "hand": "right"
      },
      {
        "midi": 57,
        "time": 79.554,
        "duration": 0.179,
        "velocity": 1,
        "hand": "left"
      },
      {
        "midi": 54,
        "time": 79.821,
        "duration": 0.179,
        "velocity": 1,
        "hand": "left"
      },
      {
        "midi": 75,
        "time": 79.821,
        "duration": 0.625,
        "velocity": 1,
        "hand": "right"
      },
      {
        "midi": 63,
        "time": 80,
        "duration": 0.179,
        "velocity": 1,
        "hand": "right"
      },
      {
        "midi": 58,
        "time": 80.268,
        "duration": 0.179,
        "velocity": 1,
        "hand": "left"
      },
      {
        "midi": 56,
        "time": 80.446,
        "duration": 0.179,
        "velocity": 1,
        "hand": "left"
      },
      {
        "midi": 77,
        "time": 80.446,
        "duration": 0.625,
        "velocity": 1,
        "hand": "right"
      },
      {
        "midi": 66,
        "time": 80.714,
        "duration": 0.179,
        "velocity": 1,
        "hand": "right"
      },
      {
        "midi": 60,
        "time": 80.893,
        "duration": 0.179,
        "velocity": 1,
        "hand": "right"
      },
      {
        "midi": 49,
        "time": 81.161,
        "duration": 0.179,
        "velocity": 1,
        "hand": "left"
      },
      {
        "midi": 73,
        "time": 81.161,
        "duration": 1.25,
        "velocity": 1,
        "hand": "right"
      },
      {
        "midi": 56,
        "time": 81.339,
        "duration": 0.179,
        "velocity": 1,
        "hand": "left"
      },
      {
        "midi": 61,
        "time": 81.607,
        "duration": 0.179,
        "velocity": 1,
        "hand": "right"
      },
      {
        "midi": 65,
        "time": 81.786,
        "duration": 0.179,
        "velocity": 1,
        "hand": "right"
      },
      {
        "midi": 61,
        "time": 82.054,
        "duration": 0.179,
        "velocity": 1,
        "hand": "right"
      },
      {
        "midi": 56,
        "time": 82.232,
        "duration": 0.179,
        "velocity": 1,
        "hand": "left"
      },
      {
        "midi": 51,
        "time": 82.5,
        "duration": 0.179,
        "velocity": 1,
        "hand": "left"
      },
      {
        "midi": 73,
        "time": 82.5,
        "duration": 0.089,
        "velocity": 1,
        "hand": "right"
      },
      {
        "midi": 77,
        "time": 82.5,
        "duration": 0.982,
        "velocity": 1,
        "hand": "right"
      },
      {
        "midi": 55,
        "time": 82.679,
        "duration": 0.179,
        "velocity": 1,
        "hand": "left"
      },
      {
        "midi": 61,
        "time": 82.946,
        "duration": 0.179,
        "velocity": 1,
        "hand": "right"
      },
      {
        "midi": 63,
        "time": 83.125,
        "duration": 0.179,
        "velocity": 1,
        "hand": "right"
      },
      {
        "midi": 61,
        "time": 83.393,
        "duration": 0.179,
        "velocity": 1,
        "hand": "right"
      },
      {
        "midi": 75,
        "time": 83.482,
        "duration": 0.357,
        "velocity": 1,
        "hand": "right"
      },
      {
        "midi": 55,
        "time": 83.571,
        "duration": 0.179,
        "velocity": 1,
        "hand": "left"
      },
      {
        "midi": 44,
        "time": 83.839,
        "duration": 0.179,
        "velocity": 1,
        "hand": "left"
      },
      {
        "midi": 75,
        "time": 83.839,
        "duration": 2.679,
        "velocity": 1,
        "hand": "right"
      },
      {
        "midi": 51,
        "time": 84.018,
        "duration": 0.179,
        "velocity": 1,
        "hand": "left"
      },
      {
        "midi": 56,
        "time": 84.286,
        "duration": 0.179,
        "velocity": 1,
        "hand": "left"
      },
      {
        "midi": 60,
        "time": 84.464,
        "duration": 0.179,
        "velocity": 1,
        "hand": "right"
      },
      {
        "midi": 56,
        "time": 84.732,
        "duration": 0.179,
        "velocity": 1,
        "hand": "left"
      },
      {
        "midi": 51,
        "time": 84.911,
        "duration": 0.179,
        "velocity": 1,
        "hand": "left"
      },
      {
        "midi": 44,
        "time": 85.179,
        "duration": 0.179,
        "velocity": 1,
        "hand": "left"
      },
      {
        "midi": 51,
        "time": 85.357,
        "duration": 0.179,
        "velocity": 1,
        "hand": "left"
      },
      {
        "midi": 54,
        "time": 85.625,
        "duration": 0.179,
        "velocity": 1,
        "hand": "left"
      },
      {
        "midi": 58,
        "time": 85.804,
        "duration": 0.625,
        "velocity": 1,
        "hand": "left"
      },
      {
        "midi": 54,
        "time": 86.071,
        "duration": 0.179,
        "velocity": 1,
        "hand": "left"
      },
      {
        "midi": 51,
        "time": 86.25,
        "duration": 0.179,
        "velocity": 1,
        "hand": "left"
      },
      {
        "midi": 44,
        "time": 86.518,
        "duration": 0.179,
        "velocity": 1,
        "hand": "left"
      },
      {
        "midi": 68,
        "time": 86.518,
        "duration": 1.339,
        "velocity": 1,
        "hand": "right"
      },
      {
        "midi": 51,
        "time": 86.696,
        "duration": 0.179,
        "velocity": 1,
        "hand": "left"
      },
      {
        "midi": 56,
        "time": 86.964,
        "duration": 0.179,
        "velocity": 1,
        "hand": "left"
      },
      {
        "midi": 60,
        "time": 87.143,
        "duration": 0.179,
        "velocity": 1,
        "hand": "right"
      },
      {
        "midi": 56,
        "time": 87.321,
        "duration": 0.179,
        "velocity": 1,
        "hand": "left"
      },
      {
        "midi": 51,
        "time": 87.589,
        "duration": 0.179,
        "velocity": 1,
        "hand": "left"
      },
      {
        "midi": 44,
        "time": 87.768,
        "duration": 0.179,
        "velocity": 1,
        "hand": "left"
      },
      {
        "midi": 70,
        "time": 87.768,
        "duration": 0.357,
        "velocity": 1,
        "hand": "right"
      },
      {
        "midi": 56,
        "time": 88.036,
        "duration": 0.179,
        "velocity": 1,
        "hand": "left"
      },
      {
        "midi": 68,
        "time": 88.125,
        "duration": 0.357,
        "velocity": 1,
        "hand": "right"
      },
      {
        "midi": 60,
        "time": 88.214,
        "duration": 0.179,
        "velocity": 1,
        "hand": "right"
      },
      {
        "midi": 66,
        "time": 88.482,
        "duration": 0.179,
        "velocity": 1,
        "hand": "right"
      },
      {
        "midi": 73,
        "time": 88.482,
        "duration": 0.357,
        "velocity": 1,
        "hand": "right"
      },
      {
        "midi": 60,
        "time": 88.661,
        "duration": 0.179,
        "velocity": 1,
        "hand": "right"
      },
      {
        "midi": 75,
        "time": 88.839,
        "duration": 0.357,
        "velocity": 1,
        "hand": "right"
      },
      {
        "midi": 56,
        "time": 88.929,
        "duration": 0.179,
        "velocity": 1,
        "hand": "left"
      },
      {
        "midi": 49,
        "time": 89.107,
        "duration": 0.179,
        "velocity": 1,
        "hand": "left"
      },
      {
        "midi": 77,
        "time": 89.107,
        "duration": 1.339,
        "velocity": 1,
        "hand": "right"
      },
      {
        "midi": 56,
        "time": 89.375,
        "duration": 0.179,
        "velocity": 1,
        "hand": "left"
      },
      {
        "midi": 61,
        "time": 89.554,
        "duration": 0.179,
        "velocity": 1,
        "hand": "right"
      },
      {
        "midi": 65,
        "time": 89.821,
        "duration": 0.179,
        "velocity": 1,
        "hand": "right"
      },
      {
        "midi": 61,
        "time": 90,
        "duration": 0.179,
        "velocity": 1,
        "hand": "right"
      },
      {
        "midi": 56,
        "time": 90.268,
        "duration": 0.179,
        "velocity": 1,
        "hand": "left"
      },
      {
        "midi": 49,
        "time": 90.446,
        "duration": 0.179,
        "velocity": 1,
        "hand": "left"
      },
      {
        "midi": 80,
        "time": 90.446,
        "duration": 1.339,
        "velocity": 1,
        "hand": "right"
      },
      {
        "midi": 56,
        "time": 90.714,
        "duration": 0.179,
        "velocity": 1,
        "hand": "left"
      },
      {
        "midi": 65,
        "time": 90.893,
        "duration": 0.179,
        "velocity": 1,
        "hand": "right"
      },
      {
        "midi": 68,
        "time": 91.161,
        "duration": 0.625,
        "velocity": 1,
        "hand": "right"
      },
      {
        "midi": 65,
        "time": 91.339,
        "duration": 0.179,
        "velocity": 1,
        "hand": "right"
      },
      {
        "midi": 56,
        "time": 91.607,
        "duration": 0.179,
        "velocity": 1,
        "hand": "left"
      },
      {
        "midi": 66,
        "time": 91.786,
        "duration": 0.625,
        "velocity": 1,
        "hand": "right"
      },
      {
        "midi": 78,
        "time": 91.786,
        "duration": 0.625,
        "velocity": 1,
        "hand": "right"
      },
      {
        "midi": 63,
        "time": 92.054,
        "duration": 0.179,
        "velocity": 1,
        "hand": "right"
      },
      {
        "midi": 56,
        "time": 92.232,
        "duration": 0.179,
        "velocity": 1,
        "hand": "left"
      },
      {
        "midi": 65,
        "time": 92.5,
        "duration": 0.625,
        "velocity": 1,
        "hand": "right"
      },
      {
        "midi": 77,
        "time": 92.5,
        "duration": 0.625,
        "velocity": 1,
        "hand": "right"
      },
      {
        "midi": 61,
        "time": 92.679,
        "duration": 0.179,
        "velocity": 1,
        "hand": "right"
      },
      {
        "midi": 56,
        "time": 92.946,
        "duration": 0.179,
        "velocity": 1,
        "hand": "left"
      },
      {
        "midi": 63,
        "time": 93.125,
        "duration": 0.625,
        "velocity": 1,
        "hand": "right"
      },
      {
        "midi": 75,
        "time": 93.125,
        "duration": 0.536,
        "velocity": 1,
        "hand": "right"
      },
      {
        "midi": 60,
        "time": 93.393,
        "duration": 0.179,
        "velocity": 1,
        "hand": "right"
      },
      {
        "midi": 56,
        "time": 93.571,
        "duration": 0.179,
        "velocity": 1,
        "hand": "left"
      },
      {
        "midi": 73,
        "time": 93.75,
        "duration": 0.089,
        "velocity": 1,
        "hand": "right"
      },
      {
        "midi": 75,
        "time": 93.75,
        "duration": 0.089,
        "velocity": 1,
        "hand": "right"
      },
      {
        "midi": 77,
        "time": 93.661,
        "duration": 0.089,
        "velocity": 1,
        "hand": "right"
      },
      {
        "midi": 61,
        "time": 93.839,
        "duration": 0.625,
        "velocity": 1,
        "hand": "right"
      },
      {
        "midi": 77,
        "time": 93.839,
        "duration": 0.536,
        "velocity": 1,
        "hand": "right"
      },
      {
        "midi": 56,
        "time": 94.018,
        "duration": 0.179,
        "velocity": 1,
        "hand": "left"
      },
      {
        "midi": 53,
        "time": 94.286,
        "duration": 0.179,
        "velocity": 1,
        "hand": "left"
      },
      {
        "midi": 73,
        "time": 94.286,
        "duration": 0.179,
        "velocity": 1,
        "hand": "right"
      },
      {
        "midi": 44,
        "time": 94.464,
        "duration": 0.179,
        "velocity": 1,
        "hand": "left"
      },
      {
        "midi": 68,
        "time": 94.464,
        "duration": 1.339,
        "velocity": 1,
        "hand": "right"
      },
      {
        "midi": 51,
        "time": 94.732,
        "duration": 0.179,
        "velocity": 1,
        "hand": "left"
      },
      {
        "midi": 56,
        "time": 94.911,
        "duration": 0.179,
        "velocity": 1,
        "hand": "left"
      },
      {
        "midi": 60,
        "time": 95.179,
        "duration": 0.179,
        "velocity": 1,
        "hand": "right"
      },
      {
        "midi": 56,
        "time": 95.357,
        "duration": 0.179,
        "velocity": 1,
        "hand": "left"
      },
      {
        "midi": 51,
        "time": 95.625,
        "duration": 0.179,
        "velocity": 1,
        "hand": "left"
      },
      {
        "midi": 42,
        "time": 95.804,
        "duration": 0.179,
        "velocity": 1,
        "hand": "left"
      },
      {
        "midi": 70,
        "time": 95.804,
        "duration": 2.679,
        "velocity": 1,
        "hand": "right"
      },
      {
        "midi": 54,
        "time": 96.071,
        "duration": 0.179,
        "velocity": 1,
        "hand": "left"
      },
      {
        "midi": 58,
        "time": 96.25,
        "duration": 0.179,
        "velocity": 1,
        "hand": "left"
      },
      {
        "midi": 61,
        "time": 96.518,
        "duration": 0.179,
        "velocity": 1,
        "hand": "right"
      },
      {
        "midi": 58,
        "time": 96.696,
        "duration": 0.179,
        "velocity": 1,
        "hand": "left"
      },
      {
        "midi": 54,
        "time": 96.964,
        "duration": 0.179,
        "velocity": 1,
        "hand": "left"
      },
      {
        "midi": 46,
        "time": 97.143,
        "duration": 0.179,
        "velocity": 1,
        "hand": "left"
      },
      {
        "midi": 53,
        "time": 97.321,
        "duration": 0.179,
        "velocity": 1,
        "hand": "left"
      },
      {
        "midi": 58,
        "time": 97.589,
        "duration": 0.179,
        "velocity": 1,
        "hand": "left"
      },
      {
        "midi": 62,
        "time": 97.768,
        "duration": 0.179,
        "velocity": 1,
        "hand": "right"
      },
      {
        "midi": 58,
        "time": 98.036,
        "duration": 0.179,
        "velocity": 1,
        "hand": "left"
      },
      {
        "midi": 53,
        "time": 98.214,
        "duration": 0.179,
        "velocity": 1,
        "hand": "left"
      },
      {
        "midi": 46,
        "time": 98.482,
        "duration": 0.179,
        "velocity": 1,
        "hand": "left"
      },
      {
        "midi": 71,
        "time": 98.482,
        "duration": 0.357,
        "velocity": 1,
        "hand": "right"
      },
      {
        "midi": 58,
        "time": 98.661,
        "duration": 0.179,
        "velocity": 1,
        "hand": "left"
      },
      {
        "midi": 70,
        "time": 98.839,
        "duration": 0.357,
        "velocity": 1,
        "hand": "right"
      },
      {
        "midi": 62,
        "time": 98.929,
        "duration": 0.179,
        "velocity": 1,
        "hand": "right"
      },
      {
        "midi": 68,
        "time": 99.107,
        "duration": 0.179,
        "velocity": 1,
        "hand": "right"
      },
      {
        "midi": 75,
        "time": 99.107,
        "duration": 0.357,
        "velocity": 1,
        "hand": "right"
      },
      {
        "midi": 62,
        "time": 99.375,
        "duration": 0.179,
        "velocity": 1,
        "hand": "right"
      },
      {
        "midi": 77,
        "time": 99.464,
        "duration": 0.357,
        "velocity": 1,
        "hand": "right"
      },
      {
        "midi": 58,
        "time": 99.554,
        "duration": 0.179,
        "velocity": 1,
        "hand": "left"
      },
      {
        "midi": 51,
        "time": 99.821,
        "duration": 0.179,
        "velocity": 1,
        "hand": "left"
      },
      {
        "midi": 78,
        "time": 99.821,
        "duration": 0.625,
        "velocity": 1,
        "hand": "right"
      },
      {
        "midi": 66,
        "time": 100,
        "duration": 0.179,
        "velocity": 1,
        "hand": "right"
      },
      {
        "midi": 58,
        "time": 100.268,
        "duration": 0.179,
        "velocity": 1,
        "hand": "left"
      },
      {
        "midi": 53,
        "time": 100.446,
        "duration": 0.179,
        "velocity": 1,
        "hand": "left"
      },
      {
        "midi": 77,
        "time": 100.446,
        "duration": 0.625,
        "velocity": 1,
        "hand": "right"
      },
      {
        "midi": 65,
        "time": 100.714,
        "duration": 0.179,
        "velocity": 1,
        "hand": "right"
      },
      {
        "midi": 57,
        "time": 100.893,
        "duration": 0.179,
        "velocity": 1,
        "hand": "left"
      },
      {
        "midi": 54,
        "time": 101.161,
        "duration": 0.179,
        "velocity": 1,
        "hand": "left"
      },
      {
        "midi": 75,
        "time": 101.161,
        "duration": 0.625,
        "velocity": 1,
        "hand": "right"
      },
      {
        "midi": 63,
        "time": 101.339,
        "duration": 0.179,
        "velocity": 1,
        "hand": "right"
      },
      {
        "midi": 58,
        "time": 101.607,
        "duration": 0.179,
        "velocity": 1,
        "hand": "left"
      },
      {
        "midi": 56,
        "time": 101.786,
        "duration": 0.179,
        "velocity": 1,
        "hand": "left"
      },
      {
        "midi": 77,
        "time": 101.786,
        "duration": 0.625,
        "velocity": 1,
        "hand": "right"
      },
      {
        "midi": 66,
        "time": 102.054,
        "duration": 0.179,
        "velocity": 1,
        "hand": "right"
      },
      {
        "midi": 60,
        "time": 102.232,
        "duration": 0.179,
        "velocity": 1,
        "hand": "right"
      },
      {
        "midi": 49,
        "time": 102.5,
        "duration": 0.179,
        "velocity": 1,
        "hand": "left"
      },
      {
        "midi": 73,
        "time": 102.5,
        "duration": 0.982,
        "velocity": 1,
        "hand": "right"
      },
      {
        "midi": 56,
        "time": 102.679,
        "duration": 0.179,
        "velocity": 1,
        "hand": "left"
      },
      {
        "midi": 61,
        "time": 102.946,
        "duration": 0.179,
        "velocity": 1,
        "hand": "right"
      },
      {
        "midi": 65,
        "time": 103.125,
        "duration": 0.179,
        "velocity": 1,
        "hand": "right"
      },
      {
        "midi": 61,
        "time": 103.393,
        "duration": 0.179,
        "velocity": 1,
        "hand": "right"
      },
      {
        "midi": 67,
        "time": 103.482,
        "duration": 0.089,
        "velocity": 1,
        "hand": "right"
      },
      {
        "midi": 56,
        "time": 103.571,
        "duration": 0.179,
        "velocity": 1,
        "hand": "left"
      },
      {
        "midi": 68,
        "time": 103.571,
        "duration": 0.089,
        "velocity": 1,
        "hand": "right"
      },
      {
        "midi": 68,
        "time": 103.75,
        "duration": 0.089,
        "velocity": 1,
        "hand": "right"
      },
      {
        "midi": 70,
        "time": 103.661,
        "duration": 0.089,
        "velocity": 1,
        "hand": "right"
      },
      {
        "midi": 49,
        "time": 103.839,
        "duration": 0.179,
        "velocity": 1,
        "hand": "left"
      },
      {
        "midi": 77,
        "time": 103.839,
        "duration": 0.982,
        "velocity": 1,
        "hand": "right"
      },
      {
        "midi": 56,
        "time": 104.018,
        "duration": 0.179,
        "velocity": 1,
        "hand": "left"
      },
      {
        "midi": 60,
        "time": 104.286,
        "duration": 0.179,
        "velocity": 1,
        "hand": "right"
      },
      {
        "midi": 66,
        "time": 104.464,
        "duration": 0.179,
        "velocity": 1,
        "hand": "right"
      },
      {
        "midi": 60,
        "time": 104.732,
        "duration": 0.179,
        "velocity": 1,
        "hand": "right"
      },
      {
        "midi": 75,
        "time": 104.821,
        "duration": 0.357,
        "velocity": 1,
        "hand": "right"
      },
      {
        "midi": 56,
        "time": 104.911,
        "duration": 0.179,
        "velocity": 1,
        "hand": "left"
      },
      {
        "midi": 49,
        "time": 105.179,
        "duration": 0.179,
        "velocity": 1,
        "hand": "left"
      },
      {
        "midi": 75,
        "time": 105.179,
        "duration": 1.339,
        "velocity": 1,
        "hand": "right"
      },
      {
        "midi": 56,
        "time": 105.357,
        "duration": 0.179,
        "velocity": 1,
        "hand": "left"
      },
      {
        "midi": 60,
        "time": 105.625,
        "duration": 0.179,
        "velocity": 1,
        "hand": "right"
      },
      {
        "midi": 66,
        "time": 105.804,
        "duration": 0.179,
        "velocity": 1,
        "hand": "right"
      },
      {
        "midi": 60,
        "time": 106.071,
        "duration": 0.179,
        "velocity": 1,
        "hand": "right"
      },
      {
        "midi": 56,
        "time": 106.25,
        "duration": 0.179,
        "velocity": 1,
        "hand": "left"
      },
      {
        "midi": 49,
        "time": 106.518,
        "duration": 0.179,
        "velocity": 1,
        "hand": "left"
      },
      {
        "midi": 73,
        "time": 106.518,
        "duration": 0.625,
        "velocity": 1,
        "hand": "right"
      },
      {
        "midi": 56,
        "time": 106.696,
        "duration": 0.179,
        "velocity": 1,
        "hand": "left"
      },
      {
        "midi": 61,
        "time": 106.964,
        "duration": 0.179,
        "velocity": 1,
        "hand": "right"
      },
      {
        "midi": 65,
        "time": 107.143,
        "duration": 0.179,
        "velocity": 1,
        "hand": "right"
      },
      {
        "midi": 61,
        "time": 107.321,
        "duration": 0.179,
        "velocity": 1,
        "hand": "right"
      },
      {
        "midi": 56,
        "time": 107.589,
        "duration": 0.179,
        "velocity": 1,
        "hand": "left"
      },
      {
        "midi": 80,
        "time": 107.5,
        "duration": 0.357,
        "velocity": 1,
        "hand": "right"
      },
      {
        "midi": 44,
        "time": 107.768,
        "duration": 0.179,
        "velocity": 1,
        "hand": "left"
      },
      {
        "midi": 68,
        "time": 107.768,
        "duration": 1.339,
        "velocity": 1,
        "hand": "right"
      },
      {
        "midi": 51,
        "time": 108.036,
        "duration": 0.179,
        "velocity": 1,
        "hand": "left"
      },
      {
        "midi": 56,
        "time": 108.214,
        "duration": 0.179,
        "velocity": 1,
        "hand": "left"
      },
      {
        "midi": 60,
        "time": 108.482,
        "duration": 0.179,
        "velocity": 1,
        "hand": "right"
      },
      {
        "midi": 56,
        "time": 108.661,
        "duration": 0.179,
        "velocity": 1,
        "hand": "left"
      },
      {
        "midi": 51,
        "time": 108.929,
        "duration": 0.179,
        "velocity": 1,
        "hand": "left"
      },
      {
        "midi": 44,
        "time": 109.107,
        "duration": 0.179,
        "velocity": 1,
        "hand": "left"
      },
      {
        "midi": 70,
        "time": 109.107,
        "duration": 0.536,
        "velocity": 1,
        "hand": "right"
      },
      {
        "midi": 51,
        "time": 109.375,
        "duration": 0.179,
        "velocity": 1,
        "hand": "left"
      },
      {
        "midi": 55,
        "time": 109.554,
        "duration": 0.179,
        "velocity": 1,
        "hand": "left"
      },
      {
        "midi": 69,
        "time": 109.643,
        "duration": 0.179,
        "velocity": 1,
        "hand": "right"
      },
      {
        "midi": 61,
        "time": 109.821,
        "duration": 0.179,
        "velocity": 1,
        "hand": "right"
      },
      {
        "midi": 70,
        "time": 109.821,
        "duration": 0.536,
        "velocity": 1,
        "hand": "right"
      },
      {
        "midi": 55,
        "time": 110,
        "duration": 0.179,
        "velocity": 1,
        "hand": "left"
      },
      {
        "midi": 51,
        "time": 110.268,
        "duration": 0.179,
        "velocity": 1,
        "hand": "left"
      },
      {
        "midi": 72,
        "time": 110.268,
        "duration": 0.179,
        "velocity": 1,
        "hand": "right"
      },
      {
        "midi": 44,
        "time": 110.446,
        "duration": 0.179,
        "velocity": 1,
        "hand": "left"
      },
      {
        "midi": 68,
        "time": 110.446,
        "duration": 0.357,
        "velocity": 1,
        "hand": "right"
      },
      {
        "midi": 51,
        "time": 110.714,
        "duration": 0.179,
        "velocity": 1,
        "hand": "left"
      },
      {
        "midi": 56,
        "time": 110.893,
        "duration": 0.179,
        "velocity": 1,
        "hand": "left"
      },
      {
        "midi": 60,
        "time": 111.161,
        "duration": 0.179,
        "velocity": 1,
        "hand": "right"
      },
      {
        "midi": 84,
        "time": 111.161,
        "duration": 0.893,
        "velocity": 1,
        "hand": "right"
      },
      {
        "midi": 56,
        "time": 111.339,
        "duration": 0.179,
        "velocity": 1,
        "hand": "left"
      },
      {
        "midi": 51,
        "time": 111.607,
        "duration": 0.179,
        "velocity": 1,
        "hand": "left"
      },
      {
        "midi": 49,
        "time": 111.786,
        "duration": 0.179,
        "velocity": 1,
        "hand": "left"
      },
      {
        "midi": 82,
        "time": 111.964,
        "duration": 0.179,
        "velocity": 1,
        "hand": "right"
      },
      {
        "midi": 56,
        "time": 112.054,
        "duration": 0.179,
        "velocity": 1,
        "hand": "left"
      },
      {
        "midi": 61,
        "time": 112.232,
        "duration": 0.179,
        "velocity": 1,
        "hand": "right"
      },
      {
        "midi": 80,
        "time": 112.232,
        "duration": 0.179,
        "velocity": 1,
        "hand": "right"
      },
      {
        "midi": 64,
        "time": 112.5,
        "duration": 0.179,
        "velocity": 1,
        "hand": "right"
      },
      {
        "midi": 76,
        "time": 112.411,
        "duration": 0.179,
        "velocity": 1,
        "hand": "right"
      },
      {
        "midi": 73,
        "time": 112.589,
        "duration": 0.179,
        "velocity": 1,
        "hand": "right"
      },
      {
        "midi": 61,
        "time": 112.679,
        "duration": 0.179,
        "velocity": 1,
        "hand": "right"
      },
      {
        "midi": 70,
        "time": 112.768,
        "duration": 0.268,
        "velocity": 1,
        "hand": "right"
      },
      {
        "midi": 56,
        "time": 112.946,
        "duration": 0.179,
        "velocity": 1,
        "hand": "left"
      },
      {
        "midi": 39,
        "time": 113.125,
        "duration": 0.179,
        "velocity": 1,
        "hand": "left"
      },
      {
        "midi": 63,
        "time": 113.125,
        "duration": 1.25,
        "velocity": 1,
        "hand": "right"
      },
      {
        "midi": 80,
        "time": 113.036,
        "duration": 0.089,
        "velocity": 1,
        "hand": "right"
      },
      {
        "midi": 51,
        "time": 113.393,
        "duration": 0.179,
        "velocity": 1,
        "hand": "left"
      },
      {
        "midi": 56,
        "time": 113.571,
        "duration": 0.179,
        "velocity": 1,
        "hand": "left"
      },
      {
        "midi": 60,
        "time": 113.839,
        "duration": 0.179,
        "velocity": 1,
        "hand": "right"
      },
      {
        "midi": 56,
        "time": 114.018,
        "duration": 0.179,
        "velocity": 1,
        "hand": "left"
      },
      {
        "midi": 51,
        "time": 114.286,
        "duration": 0.179,
        "velocity": 1,
        "hand": "left"
      },
      {
        "midi": 72,
        "time": 114.375,
        "duration": 0.089,
        "velocity": 1,
        "hand": "right"
      },
      {
        "midi": 39,
        "time": 114.464,
        "duration": 0.179,
        "velocity": 1,
        "hand": "left"
      },
      {
        "midi": 70,
        "time": 114.464,
        "duration": 0.536,
        "velocity": 1,
        "hand": "right"
      },
      {
        "midi": 51,
        "time": 114.732,
        "duration": 0.179,
        "velocity": 1,
        "hand": "left"
      },
      {
        "midi": 55,
        "time": 114.911,
        "duration": 0.179,
        "velocity": 1,
        "hand": "left"
      },
      {
        "midi": 69,
        "time": 115,
        "duration": 0.179,
        "velocity": 1,
        "hand": "right"
      },
      {
        "midi": 61,
        "time": 115.179,
        "duration": 0.179,
        "velocity": 1,
        "hand": "right"
      },
      {
        "midi": 70,
        "time": 115.179,
        "duration": 0.536,
        "velocity": 1,
        "hand": "right"
      },
      {
        "midi": 55,
        "time": 115.357,
        "duration": 0.179,
        "velocity": 1,
        "hand": "left"
      },
      {
        "midi": 51,
        "time": 115.625,
        "duration": 0.179,
        "velocity": 1,
        "hand": "left"
      },
      {
        "midi": 75,
        "time": 115.625,
        "duration": 0.179,
        "velocity": 1,
        "hand": "right"
      },
      {
        "midi": 44,
        "time": 115.804,
        "duration": 0.179,
        "velocity": 1,
        "hand": "left"
      },
      {
        "midi": 68,
        "time": 115.804,
        "duration": 0.625,
        "velocity": 1,
        "hand": "right"
      },
      {
        "midi": 51,
        "time": 116.071,
        "duration": 0.179,
        "velocity": 1,
        "hand": "left"
      },
      {
        "midi": 56,
        "time": 116.25,
        "duration": 0.179,
        "velocity": 1,
        "hand": "left"
      },
      {
        "midi": 60,
        "time": 116.518,
        "duration": 0.179,
        "velocity": 1,
        "hand": "right"
      },
      {
        "midi": 56,
        "time": 116.696,
        "duration": 0.179,
        "velocity": 1,
        "hand": "left"
      },
      {
        "midi": 51,
        "time": 116.964,
        "duration": 0.179,
        "velocity": 1,
        "hand": "left"
      },
      {
        "midi": 42,
        "time": 117.143,
        "duration": 0.179,
        "velocity": 1,
        "hand": "left"
      },
      {
        "midi": 70,
        "time": 117.143,
        "duration": 0.625,
        "velocity": 1,
        "hand": "right"
      },
      {
        "midi": 54,
        "time": 117.321,
        "duration": 0.179,
        "velocity": 1,
        "hand": "left"
      },
      {
        "midi": 58,
        "time": 117.589,
        "duration": 0.179,
        "velocity": 1,
        "hand": "left"
      },
      {
        "midi": 61,
        "time": 117.768,
        "duration": 0.179,
        "velocity": 1,
        "hand": "right"
      },
      {
        "midi": 73,
        "time": 117.768,
        "duration": 0.179,
        "velocity": 1,
        "hand": "right"
      },
      {
        "midi": 58,
        "time": 118.036,
        "duration": 0.179,
        "velocity": 1,
        "hand": "left"
      },
      {
        "midi": 72,
        "time": 118.036,
        "duration": 0.179,
        "velocity": 1,
        "hand": "right"
      },
      {
        "midi": 54,
        "time": 118.214,
        "duration": 0.179,
        "velocity": 1,
        "hand": "left"
      },
      {
        "midi": 70,
        "time": 118.214,
        "duration": 0.179,
        "velocity": 1,
        "hand": "right"
      },
      {
        "midi": 44,
        "time": 118.482,
        "duration": 0.179,
        "velocity": 1,
        "hand": "left"
      },
      {
        "midi": 68,
        "time": 118.482,
        "duration": 1.339,
        "velocity": 1,
        "hand": "right"
      },
      {
        "midi": 56,
        "time": 118.661,
        "duration": 0.179,
        "velocity": 1,
        "hand": "left"
      },
      {
        "midi": 60,
        "time": 118.929,
        "duration": 0.179,
        "velocity": 1,
        "hand": "right"
      },
      {
        "midi": 63,
        "time": 119.107,
        "duration": 0.179,
        "velocity": 1,
        "hand": "right"
      },
      {
        "midi": 60,
        "time": 119.375,
        "duration": 0.179,
        "velocity": 1,
        "hand": "right"
      },
      {
        "midi": 56,
        "time": 119.554,
        "duration": 0.179,
        "velocity": 1,
        "hand": "left"
      },
      {
        "midi": 51,
        "time": 119.821,
        "duration": 0.179,
        "velocity": 1,
        "hand": "left"
      },
      {
        "midi": 70,
        "time": 119.821,
        "duration": 0.357,
        "velocity": 1,
        "hand": "right"
      },
      {
        "midi": 56,
        "time": 120,
        "duration": 0.179,
        "velocity": 1,
        "hand": "left"
      },
      {
        "midi": 60,
        "time": 120.268,
        "duration": 0.179,
        "velocity": 1,
        "hand": "right"
      },
      {
        "midi": 68,
        "time": 120.179,
        "duration": 0.357,
        "velocity": 1,
        "hand": "right"
      },
      {
        "midi": 66,
        "time": 120.446,
        "duration": 0.179,
        "velocity": 1,
        "hand": "right"
      },
      {
        "midi": 73,
        "time": 120.446,
        "duration": 0.357,
        "velocity": 1,
        "hand": "right"
      },
      {
        "midi": 60,
        "time": 120.714,
        "duration": 0.179,
        "velocity": 1,
        "hand": "right"
      },
      {
        "midi": 56,
        "time": 120.893,
        "duration": 0.179,
        "velocity": 1,
        "hand": "left"
      },
      {
        "midi": 75,
        "time": 120.804,
        "duration": 0.357,
        "velocity": 1,
        "hand": "right"
      },
      {
        "midi": 49,
        "time": 121.161,
        "duration": 0.179,
        "velocity": 1,
        "hand": "left"
      },
      {
        "midi": 77,
        "time": 121.161,
        "duration": 1.339,
        "velocity": 1,
        "hand": "right"
      },
      {
        "midi": 56,
        "time": 121.339,
        "duration": 0.179,
        "velocity": 1,
        "hand": "left"
      },
      {
        "midi": 61,
        "time": 121.607,
        "duration": 0.179,
        "velocity": 1,
        "hand": "right"
      },
      {
        "midi": 65,
        "time": 121.786,
        "duration": 0.179,
        "velocity": 1,
        "hand": "right"
      },
      {
        "midi": 61,
        "time": 122.054,
        "duration": 0.179,
        "velocity": 1,
        "hand": "right"
      },
      {
        "midi": 56,
        "time": 122.232,
        "duration": 0.179,
        "velocity": 1,
        "hand": "left"
      },
      {
        "midi": 49,
        "time": 122.5,
        "duration": 0.179,
        "velocity": 1,
        "hand": "left"
      },
      {
        "midi": 80,
        "time": 122.5,
        "duration": 1.339,
        "velocity": 1,
        "hand": "right"
      },
      {
        "midi": 56,
        "time": 122.679,
        "duration": 0.179,
        "velocity": 1,
        "hand": "left"
      },
      {
        "midi": 65,
        "time": 122.946,
        "duration": 0.179,
        "velocity": 1,
        "hand": "right"
      },
      {
        "midi": 68,
        "time": 123.125,
        "duration": 0.625,
        "velocity": 1,
        "hand": "right"
      },
      {
        "midi": 65,
        "time": 123.393,
        "duration": 0.179,
        "velocity": 1,
        "hand": "right"
      },
      {
        "midi": 56,
        "time": 123.571,
        "duration": 0.179,
        "velocity": 1,
        "hand": "left"
      },
      {
        "midi": 66,
        "time": 123.839,
        "duration": 0.625,
        "velocity": 1,
        "hand": "right"
      },
      {
        "midi": 78,
        "time": 123.839,
        "duration": 0.625,
        "velocity": 1,
        "hand": "right"
      },
      {
        "midi": 63,
        "time": 124.018,
        "duration": 0.179,
        "velocity": 1,
        "hand": "right"
      },
      {
        "midi": 56,
        "time": 124.286,
        "duration": 0.179,
        "velocity": 1,
        "hand": "left"
      },
      {
        "midi": 65,
        "time": 124.464,
        "duration": 0.625,
        "velocity": 1,
        "hand": "right"
      },
      {
        "midi": 77,
        "time": 124.464,
        "duration": 0.625,
        "velocity": 1,
        "hand": "right"
      },
      {
        "midi": 61,
        "time": 124.732,
        "duration": 0.179,
        "velocity": 1,
        "hand": "right"
      },
      {
        "midi": 56,
        "time": 124.911,
        "duration": 0.179,
        "velocity": 1,
        "hand": "left"
      },
      {
        "midi": 63,
        "time": 125.179,
        "duration": 0.625,
        "velocity": 1,
        "hand": "right"
      },
      {
        "midi": 75,
        "time": 125.179,
        "duration": 0.536,
        "velocity": 1,
        "hand": "right"
      },
      {
        "midi": 60,
        "time": 125.357,
        "duration": 0.179,
        "velocity": 1,
        "hand": "right"
      },
      {
        "midi": 56,
        "time": 125.625,
        "duration": 0.179,
        "velocity": 1,
        "hand": "left"
      },
      {
        "midi": 75,
        "time": 125.714,
        "duration": 0.089,
        "velocity": 1,
        "hand": "right"
      },
      {
        "midi": 77,
        "time": 125.625,
        "duration": 0.089,
        "velocity": 1,
        "hand": "right"
      },
      {
        "midi": 61,
        "time": 125.804,
        "duration": 0.625,
        "velocity": 1,
        "hand": "right"
      },
      {
        "midi": 75,
        "time": 125.804,
        "duration": 0.089,
        "velocity": 1,
        "hand": "right"
      },
      {
        "midi": 77,
        "time": 125.804,
        "duration": 0.536,
        "velocity": 1,
        "hand": "right"
      },
      {
        "midi": 56,
        "time": 126.071,
        "duration": 0.179,
        "velocity": 1,
        "hand": "left"
      },
      {
        "midi": 53,
        "time": 126.25,
        "duration": 0.179,
        "velocity": 1,
        "hand": "left"
      },
      {
        "midi": 73,
        "time": 126.339,
        "duration": 0.179,
        "velocity": 1,
        "hand": "right"
      },
      {
        "midi": 44,
        "time": 126.518,
        "duration": 0.179,
        "velocity": 1,
        "hand": "left"
      },
      {
        "midi": 68,
        "time": 126.518,
        "duration": 1.339,
        "velocity": 1,
        "hand": "right"
      },
      {
        "midi": 51,
        "time": 126.696,
        "duration": 0.179,
        "velocity": 1,
        "hand": "left"
      },
      {
        "midi": 56,
        "time": 126.964,
        "duration": 0.179,
        "velocity": 1,
        "hand": "left"
      },
      {
        "midi": 60,
        "time": 127.143,
        "duration": 0.179,
        "velocity": 1,
        "hand": "right"
      },
      {
        "midi": 56,
        "time": 127.321,
        "duration": 0.179,
        "velocity": 1,
        "hand": "left"
      },
      {
        "midi": 51,
        "time": 127.589,
        "duration": 0.179,
        "velocity": 1,
        "hand": "left"
      },
      {
        "midi": 42,
        "time": 127.768,
        "duration": 0.179,
        "velocity": 1,
        "hand": "left"
      },
      {
        "midi": 70,
        "time": 127.768,
        "duration": 2.679,
        "velocity": 1,
        "hand": "right"
      },
      {
        "midi": 54,
        "time": 128.036,
        "duration": 0.179,
        "velocity": 1,
        "hand": "left"
      },
      {
        "midi": 58,
        "time": 128.214,
        "duration": 0.179,
        "velocity": 1,
        "hand": "left"
      },
      {
        "midi": 61,
        "time": 128.482,
        "duration": 0.179,
        "velocity": 1,
        "hand": "right"
      },
      {
        "midi": 58,
        "time": 128.661,
        "duration": 0.179,
        "velocity": 1,
        "hand": "left"
      },
      {
        "midi": 54,
        "time": 128.929,
        "duration": 0.179,
        "velocity": 1,
        "hand": "left"
      },
      {
        "midi": 46,
        "time": 129.107,
        "duration": 0.179,
        "velocity": 1,
        "hand": "left"
      },
      {
        "midi": 53,
        "time": 129.375,
        "duration": 0.179,
        "velocity": 1,
        "hand": "left"
      },
      {
        "midi": 58,
        "time": 129.554,
        "duration": 0.179,
        "velocity": 1,
        "hand": "left"
      },
      {
        "midi": 62,
        "time": 129.821,
        "duration": 0.179,
        "velocity": 1,
        "hand": "right"
      },
      {
        "midi": 58,
        "time": 130,
        "duration": 0.179,
        "velocity": 1,
        "hand": "left"
      },
      {
        "midi": 53,
        "time": 130.268,
        "duration": 0.179,
        "velocity": 1,
        "hand": "left"
      },
      {
        "midi": 46,
        "time": 130.446,
        "duration": 0.179,
        "velocity": 1,
        "hand": "left"
      },
      {
        "midi": 71,
        "time": 130.446,
        "duration": 0.357,
        "velocity": 1,
        "hand": "right"
      },
      {
        "midi": 58,
        "time": 130.714,
        "duration": 0.179,
        "velocity": 1,
        "hand": "left"
      },
      {
        "midi": 62,
        "time": 130.893,
        "duration": 0.179,
        "velocity": 1,
        "hand": "right"
      },
      {
        "midi": 70,
        "time": 130.804,
        "duration": 0.357,
        "velocity": 1,
        "hand": "right"
      },
      {
        "midi": 68,
        "time": 131.161,
        "duration": 0.179,
        "velocity": 1,
        "hand": "right"
      },
      {
        "midi": 75,
        "time": 131.161,
        "duration": 0.357,
        "velocity": 1,
        "hand": "right"
      },
      {
        "midi": 62,
        "time": 131.339,
        "duration": 0.179,
        "velocity": 1,
        "hand": "right"
      },
      {
        "midi": 58,
        "time": 131.607,
        "duration": 0.179,
        "velocity": 1,
        "hand": "left"
      },
      {
        "midi": 77,
        "time": 131.518,
        "duration": 0.357,
        "velocity": 1,
        "hand": "right"
      },
      {
        "midi": 51,
        "time": 131.786,
        "duration": 0.179,
        "velocity": 1,
        "hand": "left"
      },
      {
        "midi": 78,
        "time": 131.786,
        "duration": 0.625,
        "velocity": 1,
        "hand": "right"
      },
      {
        "midi": 66,
        "time": 132.054,
        "duration": 0.179,
        "velocity": 1,
        "hand": "right"
      },
      {
        "midi": 58,
        "time": 132.232,
        "duration": 0.179,
        "velocity": 1,
        "hand": "left"
      },
      {
        "midi": 53,
        "time": 132.5,
        "duration": 0.179,
        "velocity": 1,
        "hand": "left"
      },
      {
        "midi": 77,
        "time": 132.5,
        "duration": 0.625,
        "velocity": 1,
        "hand": "right"
      },
      {
        "midi": 65,
        "time": 132.679,
        "duration": 0.179,
        "velocity": 1,
        "hand": "right"
      },
      {
        "midi": 57,
        "time": 132.946,
        "duration": 0.179,
        "velocity": 1,
        "hand": "left"
      },
      {
        "midi": 54,
        "time": 133.125,
        "duration": 0.179,
        "velocity": 1,
        "hand": "left"
      },
      {
        "midi": 75,
        "time": 133.125,
        "duration": 0.625,
        "velocity": 1,
        "hand": "right"
      },
      {
        "midi": 63,
        "time": 133.393,
        "duration": 0.179,
        "velocity": 1,
        "hand": "right"
      },
      {
        "midi": 58,
        "time": 133.571,
        "duration": 0.179,
        "velocity": 1,
        "hand": "left"
      },
      {
        "midi": 56,
        "time": 133.839,
        "duration": 0.179,
        "velocity": 1,
        "hand": "left"
      },
      {
        "midi": 77,
        "time": 133.839,
        "duration": 0.625,
        "velocity": 1,
        "hand": "right"
      },
      {
        "midi": 66,
        "time": 134.018,
        "duration": 0.179,
        "velocity": 1,
        "hand": "right"
      },
      {
        "midi": 60,
        "time": 134.286,
        "duration": 0.179,
        "velocity": 1,
        "hand": "right"
      },
      {
        "midi": 49,
        "time": 134.464,
        "duration": 0.179,
        "velocity": 1,
        "hand": "left"
      },
      {
        "midi": 73,
        "time": 134.464,
        "duration": 0.982,
        "velocity": 1,
        "hand": "right"
      },
      {
        "midi": 56,
        "time": 134.732,
        "duration": 0.179,
        "velocity": 1,
        "hand": "left"
      },
      {
        "midi": 61,
        "time": 134.911,
        "duration": 0.179,
        "velocity": 1,
        "hand": "right"
      },
      {
        "midi": 65,
        "time": 135.179,
        "duration": 0.179,
        "velocity": 1,
        "hand": "right"
      },
      {
        "midi": 61,
        "time": 135.357,
        "duration": 0.179,
        "velocity": 1,
        "hand": "right"
      },
      {
        "midi": 67,
        "time": 135.446,
        "duration": 0.089,
        "velocity": 1,
        "hand": "right"
      },
      {
        "midi": 56,
        "time": 135.625,
        "duration": 0.179,
        "velocity": 1,
        "hand": "left"
      },
      {
        "midi": 68,
        "time": 135.536,
        "duration": 0.089,
        "velocity": 1,
        "hand": "right"
      },
      {
        "midi": 70,
        "time": 135.625,
        "duration": 0.089,
        "velocity": 1,
        "hand": "right"
      },
      {
        "midi": 68,
        "time": 135.714,
        "duration": 0.089,
        "velocity": 1,
        "hand": "right"
      },
      {
        "midi": 49,
        "time": 135.804,
        "duration": 0.179,
        "velocity": 1,
        "hand": "left"
      },
      {
        "midi": 77,
        "time": 135.804,
        "duration": 0.982,
        "velocity": 1,
        "hand": "right"
      },
      {
        "midi": 56,
        "time": 136.071,
        "duration": 0.179,
        "velocity": 1,
        "hand": "left"
      },
      {
        "midi": 60,
        "time": 136.25,
        "duration": 0.179,
        "velocity": 1,
        "hand": "right"
      },
      {
        "midi": 66,
        "time": 136.518,
        "duration": 0.179,
        "velocity": 1,
        "hand": "right"
      },
      {
        "midi": 60,
        "time": 136.696,
        "duration": 0.179,
        "velocity": 1,
        "hand": "right"
      },
      {
        "midi": 75,
        "time": 136.786,
        "duration": 0.357,
        "velocity": 1,
        "hand": "right"
      },
      {
        "midi": 56,
        "time": 136.964,
        "duration": 0.179,
        "velocity": 1,
        "hand": "left"
      },
      {
        "midi": 49,
        "time": 137.143,
        "duration": 0.179,
        "velocity": 1,
        "hand": "left"
      },
      {
        "midi": 75,
        "time": 137.143,
        "duration": 1.339,
        "velocity": 1,
        "hand": "right"
      },
      {
        "midi": 56,
        "time": 137.321,
        "duration": 0.179,
        "velocity": 1,
        "hand": "left"
      },
      {
        "midi": 60,
        "time": 137.589,
        "duration": 0.179,
        "velocity": 1,
        "hand": "right"
      },
      {
        "midi": 66,
        "time": 137.768,
        "duration": 0.179,
        "velocity": 1,
        "hand": "right"
      },
      {
        "midi": 60,
        "time": 138.036,
        "duration": 0.179,
        "velocity": 1,
        "hand": "right"
      },
      {
        "midi": 56,
        "time": 138.214,
        "duration": 0.179,
        "velocity": 1,
        "hand": "left"
      },
      {
        "midi": 49,
        "time": 138.482,
        "duration": 0.179,
        "velocity": 1,
        "hand": "left"
      },
      {
        "midi": 73,
        "time": 138.482,
        "duration": 0.625,
        "velocity": 1,
        "hand": "right"
      },
      {
        "midi": 56,
        "time": 138.661,
        "duration": 0.179,
        "velocity": 1,
        "hand": "left"
      },
      {
        "midi": 61,
        "time": 138.929,
        "duration": 0.179,
        "velocity": 1,
        "hand": "right"
      },
      {
        "midi": 65,
        "time": 139.107,
        "duration": 0.179,
        "velocity": 1,
        "hand": "right"
      },
      {
        "midi": 61,
        "time": 139.375,
        "duration": 0.179,
        "velocity": 1,
        "hand": "right"
      },
      {
        "midi": 80,
        "time": 139.464,
        "duration": 0.357,
        "velocity": 1,
        "hand": "right"
      },
      {
        "midi": 56,
        "time": 139.554,
        "duration": 0.179,
        "velocity": 1,
        "hand": "left"
      },
      {
        "midi": 44,
        "time": 139.821,
        "duration": 0.179,
        "velocity": 1,
        "hand": "left"
      },
      {
        "midi": 68,
        "time": 139.821,
        "duration": 1.339,
        "velocity": 1,
        "hand": "right"
      },
      {
        "midi": 51,
        "time": 140,
        "duration": 0.179,
        "velocity": 1,
        "hand": "left"
      },
      {
        "midi": 56,
        "time": 140.268,
        "duration": 0.179,
        "velocity": 1,
        "hand": "left"
      },
      {
        "midi": 60,
        "time": 140.446,
        "duration": 0.179,
        "velocity": 1,
        "hand": "right"
      },
      {
        "midi": 56,
        "time": 140.714,
        "duration": 0.179,
        "velocity": 1,
        "hand": "left"
      },
      {
        "midi": 51,
        "time": 140.893,
        "duration": 0.179,
        "velocity": 1,
        "hand": "left"
      },
      {
        "midi": 44,
        "time": 141.161,
        "duration": 0.179,
        "velocity": 1,
        "hand": "left"
      },
      {
        "midi": 70,
        "time": 141.161,
        "duration": 0.536,
        "velocity": 1,
        "hand": "right"
      },
      {
        "midi": 51,
        "time": 141.339,
        "duration": 0.179,
        "velocity": 1,
        "hand": "left"
      },
      {
        "midi": 55,
        "time": 141.607,
        "duration": 0.179,
        "velocity": 1,
        "hand": "left"
      },
      {
        "midi": 69,
        "time": 141.607,
        "duration": 0.179,
        "velocity": 1,
        "hand": "right"
      },
      {
        "midi": 61,
        "time": 141.786,
        "duration": 0.179,
        "velocity": 1,
        "hand": "right"
      },
      {
        "midi": 70,
        "time": 141.786,
        "duration": 0.536,
        "velocity": 1,
        "hand": "right"
      },
      {
        "midi": 55,
        "time": 142.054,
        "duration": 0.179,
        "velocity": 1,
        "hand": "left"
      },
      {
        "midi": 51,
        "time": 142.232,
        "duration": 0.179,
        "velocity": 1,
        "hand": "left"
      },
      {
        "midi": 72,
        "time": 142.321,
        "duration": 0.179,
        "velocity": 1,
        "hand": "right"
      },
      {
        "midi": 44,
        "time": 142.5,
        "duration": 0.179,
        "velocity": 1,
        "hand": "left"
      },
      {
        "midi": 68,
        "time": 142.5,
        "duration": 0.357,
        "velocity": 1,
        "hand": "right"
      },
      {
        "midi": 51,
        "time": 142.679,
        "duration": 0.179,
        "velocity": 1,
        "hand": "left"
      },
      {
        "midi": 56,
        "time": 142.946,
        "duration": 0.179,
        "velocity": 1,
        "hand": "left"
      },
      {
        "midi": 60,
        "time": 143.125,
        "duration": 0.179,
        "velocity": 1,
        "hand": "right"
      },
      {
        "midi": 84,
        "time": 143.125,
        "duration": 0.893,
        "velocity": 1,
        "hand": "right"
      },
      {
        "midi": 56,
        "time": 143.393,
        "duration": 0.179,
        "velocity": 1,
        "hand": "left"
      },
      {
        "midi": 51,
        "time": 143.571,
        "duration": 0.179,
        "velocity": 1,
        "hand": "left"
      },
      {
        "midi": 49,
        "time": 143.839,
        "duration": 0.179,
        "velocity": 1,
        "hand": "left"
      },
      {
        "midi": 56,
        "time": 144.018,
        "duration": 0.179,
        "velocity": 1,
        "hand": "left"
      },
      {
        "midi": 82,
        "time": 144.018,
        "duration": 0.179,
        "velocity": 1,
        "hand": "right"
      },
      {
        "midi": 80,
        "time": 144.196,
        "duration": 0.179,
        "velocity": 1,
        "hand": "right"
      },
      {
        "midi": 61,
        "time": 144.286,
        "duration": 0.179,
        "velocity": 1,
        "hand": "right"
      },
      {
        "midi": 76,
        "time": 144.375,
        "duration": 0.179,
        "velocity": 1,
        "hand": "right"
      },
      {
        "midi": 64,
        "time": 144.464,
        "duration": 0.179,
        "velocity": 1,
        "hand": "right"
      },
      {
        "midi": 73,
        "time": 144.554,
        "duration": 0.179,
        "velocity": 1,
        "hand": "right"
      },
      {
        "midi": 61,
        "time": 144.732,
        "duration": 0.179,
        "velocity": 1,
        "hand": "right"
      },
      {
        "midi": 70,
        "time": 144.732,
        "duration": 0.268,
        "velocity": 1,
        "hand": "right"
      },
      {
        "midi": 56,
        "time": 144.911,
        "duration": 0.179,
        "velocity": 1,
        "hand": "left"
      },
      {
        "midi": 80,
        "time": 145.089,
        "duration": 0.089,
        "velocity": 1,
        "hand": "right"
      },
      {
        "midi": 39,
        "time": 145.179,
        "duration": 0.179,
        "velocity": 1,
        "hand": "left"
      },
      {
        "midi": 63,
        "time": 145.179,
        "duration": 1.25,
        "velocity": 1,
        "hand": "right"
      },
      {
        "midi": 51,
        "time": 145.357,
        "duration": 0.179,
        "velocity": 1,
        "hand": "left"
      },
      {
        "midi": 56,
        "time": 145.625,
        "duration": 0.179,
        "velocity": 1,
        "hand": "left"
      },
      {
        "midi": 60,
        "time": 145.804,
        "duration": 0.179,
        "velocity": 1,
        "hand": "right"
      },
      {
        "midi": 56,
        "time": 146.071,
        "duration": 0.179,
        "velocity": 1,
        "hand": "left"
      },
      {
        "midi": 51,
        "time": 146.25,
        "duration": 0.179,
        "velocity": 1,
        "hand": "left"
      },
      {
        "midi": 39,
        "time": 146.518,
        "duration": 0.179,
        "velocity": 1,
        "hand": "left"
      },
      {
        "midi": 70,
        "time": 146.518,
        "duration": 0.536,
        "velocity": 1,
        "hand": "right"
      },
      {
        "midi": 72,
        "time": 146.429,
        "duration": 0.089,
        "velocity": 1,
        "hand": "right"
      },
      {
        "midi": 51,
        "time": 146.696,
        "duration": 0.179,
        "velocity": 1,
        "hand": "left"
      },
      {
        "midi": 55,
        "time": 146.964,
        "duration": 0.179,
        "velocity": 1,
        "hand": "left"
      },
      {
        "midi": 69,
        "time": 146.964,
        "duration": 0.179,
        "velocity": 1,
        "hand": "right"
      },
      {
        "midi": 61,
        "time": 147.143,
        "duration": 0.179,
        "velocity": 1,
        "hand": "right"
      },
      {
        "midi": 70,
        "time": 147.143,
        "duration": 0.536,
        "velocity": 1,
        "hand": "right"
      },
      {
        "midi": 55,
        "time": 147.321,
        "duration": 0.179,
        "velocity": 1,
        "hand": "left"
      },
      {
        "midi": 51,
        "time": 147.589,
        "duration": 0.179,
        "velocity": 1,
        "hand": "left"
      },
      {
        "midi": 44,
        "time": 147.768,
        "duration": 0.179,
        "velocity": 1,
        "hand": "left"
      },
      {
        "midi": 68,
        "time": 147.768,
        "duration": 0.625,
        "velocity": 1,
        "hand": "right"
      },
      {
        "midi": 75,
        "time": 147.679,
        "duration": 0.179,
        "velocity": 1,
        "hand": "right"
      },
      {
        "midi": 51,
        "time": 148.036,
        "duration": 0.179,
        "velocity": 1,
        "hand": "left"
      },
      {
        "midi": 56,
        "time": 148.214,
        "duration": 0.179,
        "velocity": 1,
        "hand": "left"
      },
      {
        "midi": 60,
        "time": 148.482,
        "duration": 0.179,
        "velocity": 1,
        "hand": "right"
      },
      {
        "midi": 56,
        "time": 148.661,
        "duration": 0.179,
        "velocity": 1,
        "hand": "left"
      },
      {
        "midi": 51,
        "time": 148.929,
        "duration": 0.179,
        "velocity": 1,
        "hand": "left"
      },
      {
        "midi": 42,
        "time": 149.107,
        "duration": 0.179,
        "velocity": 1,
        "hand": "left"
      },
      {
        "midi": 70,
        "time": 149.107,
        "duration": 0.625,
        "velocity": 1,
        "hand": "right"
      },
      {
        "midi": 54,
        "time": 149.375,
        "duration": 0.179,
        "velocity": 1,
        "hand": "left"
      },
      {
        "midi": 58,
        "time": 149.554,
        "duration": 0.179,
        "velocity": 1,
        "hand": "left"
      },
      {
        "midi": 61,
        "time": 149.821,
        "duration": 0.179,
        "velocity": 1,
        "hand": "right"
      },
      {
        "midi": 73,
        "time": 149.821,
        "duration": 0.179,
        "velocity": 1,
        "hand": "right"
      },
      {
        "midi": 58,
        "time": 150,
        "duration": 0.179,
        "velocity": 1,
        "hand": "left"
      },
      {
        "midi": 72,
        "time": 150,
        "duration": 0.179,
        "velocity": 1,
        "hand": "right"
      },
      {
        "midi": 54,
        "time": 150.268,
        "duration": 0.179,
        "velocity": 1,
        "hand": "left"
      },
      {
        "midi": 70,
        "time": 150.268,
        "duration": 0.179,
        "velocity": 1,
        "hand": "right"
      },
      {
        "midi": 44,
        "time": 150.446,
        "duration": 0.179,
        "velocity": 1,
        "hand": "left"
      },
      {
        "midi": 68,
        "time": 150.446,
        "duration": 1.339,
        "velocity": 1,
        "hand": "right"
      },
      {
        "midi": 51,
        "time": 150.714,
        "duration": 0.179,
        "velocity": 1,
        "hand": "left"
      },
      {
        "midi": 56,
        "time": 150.893,
        "duration": 0.179,
        "velocity": 1,
        "hand": "left"
      },
      {
        "midi": 60,
        "time": 151.161,
        "duration": 0.179,
        "velocity": 1,
        "hand": "right"
      },
      {
        "midi": 56,
        "time": 151.339,
        "duration": 0.179,
        "velocity": 1,
        "hand": "left"
      },
      {
        "midi": 51,
        "time": 151.607,
        "duration": 0.179,
        "velocity": 1,
        "hand": "left"
      },
      {
        "midi": 44,
        "time": 151.786,
        "duration": 0.179,
        "velocity": 1,
        "hand": "left"
      },
      {
        "midi": 70,
        "time": 151.786,
        "duration": 0.357,
        "velocity": 1,
        "hand": "right"
      },
      {
        "midi": 56,
        "time": 152.054,
        "duration": 0.179,
        "velocity": 1,
        "hand": "left"
      },
      {
        "midi": 68,
        "time": 152.143,
        "duration": 0.357,
        "velocity": 1,
        "hand": "right"
      },
      {
        "midi": 60,
        "time": 152.232,
        "duration": 0.179,
        "velocity": 1,
        "hand": "right"
      },
      {
        "midi": 66,
        "time": 152.5,
        "duration": 0.179,
        "velocity": 1,
        "hand": "right"
      },
      {
        "midi": 73,
        "time": 152.5,
        "duration": 0.357,
        "velocity": 1,
        "hand": "right"
      },
      {
        "midi": 60,
        "time": 152.679,
        "duration": 0.179,
        "velocity": 1,
        "hand": "right"
      },
      {
        "midi": 75,
        "time": 152.768,
        "duration": 0.357,
        "velocity": 1,
        "hand": "right"
      },
      {
        "midi": 56,
        "time": 152.946,
        "duration": 0.179,
        "velocity": 1,
        "hand": "left"
      },
      {
        "midi": 49,
        "time": 153.125,
        "duration": 0.179,
        "velocity": 1,
        "hand": "left"
      },
      {
        "midi": 77,
        "time": 153.125,
        "duration": 1.339,
        "velocity": 1,
        "hand": "right"
      },
      {
        "midi": 56,
        "time": 153.393,
        "duration": 0.179,
        "velocity": 1,
        "hand": "left"
      },
      {
        "midi": 61,
        "time": 153.571,
        "duration": 0.179,
        "velocity": 1,
        "hand": "right"
      },
      {
        "midi": 65,
        "time": 153.839,
        "duration": 0.179,
        "velocity": 1,
        "hand": "right"
      },
      {
        "midi": 61,
        "time": 154.018,
        "duration": 0.179,
        "velocity": 1,
        "hand": "right"
      },
      {
        "midi": 56,
        "time": 154.286,
        "duration": 0.179,
        "velocity": 1,
        "hand": "left"
      },
      {
        "midi": 49,
        "time": 154.464,
        "duration": 0.179,
        "velocity": 1,
        "hand": "left"
      },
      {
        "midi": 80,
        "time": 154.464,
        "duration": 1.339,
        "velocity": 1,
        "hand": "right"
      },
      {
        "midi": 56,
        "time": 154.732,
        "duration": 0.179,
        "velocity": 1,
        "hand": "left"
      },
      {
        "midi": 65,
        "time": 154.911,
        "duration": 0.179,
        "velocity": 1,
        "hand": "right"
      },
      {
        "midi": 68,
        "time": 155.179,
        "duration": 0.625,
        "velocity": 1,
        "hand": "right"
      },
      {
        "midi": 65,
        "time": 155.357,
        "duration": 0.179,
        "velocity": 1,
        "hand": "right"
      },
      {
        "midi": 56,
        "time": 155.625,
        "duration": 0.179,
        "velocity": 1,
        "hand": "left"
      },
      {
        "midi": 66,
        "time": 155.804,
        "duration": 0.625,
        "velocity": 1,
        "hand": "right"
      },
      {
        "midi": 78,
        "time": 155.804,
        "duration": 0.625,
        "velocity": 1,
        "hand": "right"
      },
      {
        "midi": 63,
        "time": 156.071,
        "duration": 0.179,
        "velocity": 1,
        "hand": "right"
      },
      {
        "midi": 56,
        "time": 156.25,
        "duration": 0.179,
        "velocity": 1,
        "hand": "left"
      },
      {
        "midi": 65,
        "time": 156.518,
        "duration": 0.625,
        "velocity": 1,
        "hand": "right"
      },
      {
        "midi": 77,
        "time": 156.518,
        "duration": 0.625,
        "velocity": 1,
        "hand": "right"
      },
      {
        "midi": 61,
        "time": 156.696,
        "duration": 0.179,
        "velocity": 1,
        "hand": "right"
      },
      {
        "midi": 56,
        "time": 156.964,
        "duration": 0.179,
        "velocity": 1,
        "hand": "left"
      },
      {
        "midi": 63,
        "time": 157.143,
        "duration": 0.625,
        "velocity": 1,
        "hand": "right"
      },
      {
        "midi": 75,
        "time": 157.143,
        "duration": 0.536,
        "velocity": 1,
        "hand": "right"
      },
      {
        "midi": 60,
        "time": 157.321,
        "duration": 0.179,
        "velocity": 1,
        "hand": "right"
      },
      {
        "midi": 56,
        "time": 157.589,
        "duration": 0.179,
        "velocity": 1,
        "hand": "left"
      },
      {
        "midi": 61,
        "time": 157.768,
        "duration": 0.625,
        "velocity": 1,
        "hand": "right"
      },
      {
        "midi": 75,
        "time": 157.768,
        "duration": 0.089,
        "velocity": 1,
        "hand": "right"
      },
      {
        "midi": 77,
        "time": 157.768,
        "duration": 0.536,
        "velocity": 1,
        "hand": "right"
      },
      {
        "midi": 56,
        "time": 158.036,
        "duration": 0.179,
        "velocity": 1,
        "hand": "left"
      },
      {
        "midi": 53,
        "time": 158.214,
        "duration": 0.179,
        "velocity": 1,
        "hand": "left"
      },
      {
        "midi": 73,
        "time": 158.304,
        "duration": 0.179,
        "velocity": 1,
        "hand": "right"
      },
      {
        "midi": 44,
        "time": 158.482,
        "duration": 0.179,
        "velocity": 1,
        "hand": "left"
      },
      {
        "midi": 68,
        "time": 158.482,
        "duration": 1.339,
        "velocity": 1,
        "hand": "right"
      },
      {
        "midi": 51,
        "time": 158.661,
        "duration": 0.179,
        "velocity": 1,
        "hand": "left"
      },
      {
        "midi": 56,
        "time": 158.929,
        "duration": 0.179,
        "velocity": 1,
        "hand": "left"
      },
      {
        "midi": 60,
        "time": 159.107,
        "duration": 0.179,
        "velocity": 1,
        "hand": "right"
      },
      {
        "midi": 56,
        "time": 159.375,
        "duration": 0.179,
        "velocity": 1,
        "hand": "left"
      },
      {
        "midi": 51,
        "time": 159.554,
        "duration": 0.179,
        "velocity": 1,
        "hand": "left"
      },
      {
        "midi": 42,
        "time": 159.821,
        "duration": 0.179,
        "velocity": 1,
        "hand": "left"
      },
      {
        "midi": 70,
        "time": 159.821,
        "duration": 2.679,
        "velocity": 1,
        "hand": "right"
      },
      {
        "midi": 54,
        "time": 160,
        "duration": 0.179,
        "velocity": 1,
        "hand": "left"
      },
      {
        "midi": 58,
        "time": 160.268,
        "duration": 0.179,
        "velocity": 1,
        "hand": "left"
      },
      {
        "midi": 61,
        "time": 160.446,
        "duration": 0.179,
        "velocity": 1,
        "hand": "right"
      },
      {
        "midi": 58,
        "time": 160.714,
        "duration": 0.179,
        "velocity": 1,
        "hand": "left"
      },
      {
        "midi": 54,
        "time": 160.893,
        "duration": 0.179,
        "velocity": 1,
        "hand": "left"
      },
      {
        "midi": 46,
        "time": 161.161,
        "duration": 0.179,
        "velocity": 1,
        "hand": "left"
      },
      {
        "midi": 53,
        "time": 161.339,
        "duration": 0.179,
        "velocity": 1,
        "hand": "left"
      },
      {
        "midi": 58,
        "time": 161.607,
        "duration": 0.179,
        "velocity": 1,
        "hand": "left"
      },
      {
        "midi": 62,
        "time": 161.786,
        "duration": 0.179,
        "velocity": 1,
        "hand": "right"
      },
      {
        "midi": 58,
        "time": 162.054,
        "duration": 0.179,
        "velocity": 1,
        "hand": "left"
      },
      {
        "midi": 53,
        "time": 162.232,
        "duration": 0.179,
        "velocity": 1,
        "hand": "left"
      },
      {
        "midi": 46,
        "time": 162.5,
        "duration": 0.179,
        "velocity": 1,
        "hand": "left"
      },
      {
        "midi": 71,
        "time": 162.5,
        "duration": 0.357,
        "velocity": 1,
        "hand": "right"
      },
      {
        "midi": 58,
        "time": 162.679,
        "duration": 0.179,
        "velocity": 1,
        "hand": "left"
      },
      {
        "midi": 70,
        "time": 162.768,
        "duration": 0.357,
        "velocity": 1,
        "hand": "right"
      },
      {
        "midi": 62,
        "time": 162.946,
        "duration": 0.179,
        "velocity": 1,
        "hand": "right"
      },
      {
        "midi": 68,
        "time": 163.125,
        "duration": 0.179,
        "velocity": 1,
        "hand": "right"
      },
      {
        "midi": 75,
        "time": 163.125,
        "duration": 0.357,
        "velocity": 1,
        "hand": "right"
      },
      {
        "midi": 62,
        "time": 163.393,
        "duration": 0.179,
        "velocity": 1,
        "hand": "right"
      },
      {
        "midi": 77,
        "time": 163.482,
        "duration": 0.357,
        "velocity": 1,
        "hand": "right"
      },
      {
        "midi": 58,
        "time": 163.571,
        "duration": 0.179,
        "velocity": 1,
        "hand": "left"
      },
      {
        "midi": 51,
        "time": 163.839,
        "duration": 0.179,
        "velocity": 1,
        "hand": "left"
      },
      {
        "midi": 78,
        "time": 163.839,
        "duration": 0.625,
        "velocity": 1,
        "hand": "right"
      },
      {
        "midi": 66,
        "time": 164.018,
        "duration": 0.179,
        "velocity": 1,
        "hand": "right"
      },
      {
        "midi": 58,
        "time": 164.286,
        "duration": 0.179,
        "velocity": 1,
        "hand": "left"
      },
      {
        "midi": 53,
        "time": 164.464,
        "duration": 0.179,
        "velocity": 1,
        "hand": "left"
      },
      {
        "midi": 77,
        "time": 164.464,
        "duration": 0.625,
        "velocity": 1,
        "hand": "right"
      },
      {
        "midi": 65,
        "time": 164.732,
        "duration": 0.179,
        "velocity": 1,
        "hand": "right"
      },
      {
        "midi": 57,
        "time": 164.911,
        "duration": 0.179,
        "velocity": 1,
        "hand": "left"
      },
      {
        "midi": 54,
        "time": 165.179,
        "duration": 0.179,
        "velocity": 1,
        "hand": "left"
      },
      {
        "midi": 75,
        "time": 165.179,
        "duration": 0.625,
        "velocity": 1,
        "hand": "right"
      },
      {
        "midi": 63,
        "time": 165.357,
        "duration": 0.179,
        "velocity": 1,
        "hand": "right"
      },
      {
        "midi": 58,
        "time": 165.625,
        "duration": 0.179,
        "velocity": 1,
        "hand": "left"
      },
      {
        "midi": 56,
        "time": 165.804,
        "duration": 0.179,
        "velocity": 1,
        "hand": "left"
      },
      {
        "midi": 77,
        "time": 165.804,
        "duration": 0.625,
        "velocity": 1,
        "hand": "right"
      },
      {
        "midi": 66,
        "time": 166.071,
        "duration": 0.179,
        "velocity": 1,
        "hand": "right"
      },
      {
        "midi": 60,
        "time": 166.25,
        "duration": 0.179,
        "velocity": 1,
        "hand": "right"
      },
      {
        "midi": 49,
        "time": 166.518,
        "duration": 0.179,
        "velocity": 1,
        "hand": "left"
      },
      {
        "midi": 73,
        "time": 166.518,
        "duration": 0.982,
        "velocity": 1,
        "hand": "right"
      },
      {
        "midi": 56,
        "time": 166.696,
        "duration": 0.179,
        "velocity": 1,
        "hand": "left"
      },
      {
        "midi": 61,
        "time": 166.964,
        "duration": 0.179,
        "velocity": 1,
        "hand": "right"
      },
      {
        "midi": 65,
        "time": 167.143,
        "duration": 0.179,
        "velocity": 1,
        "hand": "right"
      },
      {
        "midi": 61,
        "time": 167.321,
        "duration": 0.179,
        "velocity": 1,
        "hand": "right"
      },
      {
        "midi": 56,
        "time": 167.589,
        "duration": 0.179,
        "velocity": 1,
        "hand": "left"
      },
      {
        "midi": 67,
        "time": 167.5,
        "duration": 0.089,
        "velocity": 1,
        "hand": "right"
      },
      {
        "midi": 68,
        "time": 167.589,
        "duration": 0.089,
        "velocity": 1,
        "hand": "right"
      },
      {
        "midi": 49,
        "time": 167.768,
        "duration": 0.179,
        "velocity": 1,
        "hand": "left"
      },
      {
        "midi": 70,
        "time": 167.679,
        "duration": 0.089,
        "velocity": 1,
        "hand": "right"
      },
      {
        "midi": 77,
        "time": 167.768,
        "duration": 0.982,
        "velocity": 1,
        "hand": "right"
      },
      {
        "midi": 56,
        "time": 168.036,
        "duration": 0.179,
        "velocity": 1,
        "hand": "left"
      },
      {
        "midi": 60,
        "time": 168.214,
        "duration": 0.179,
        "velocity": 1,
        "hand": "right"
      },
      {
        "midi": 66,
        "time": 168.482,
        "duration": 0.179,
        "velocity": 1,
        "hand": "right"
      },
      {
        "midi": 60,
        "time": 168.661,
        "duration": 0.179,
        "velocity": 1,
        "hand": "right"
      },
      {
        "midi": 75,
        "time": 168.839,
        "duration": 0.357,
        "velocity": 1,
        "hand": "right"
      },
      {
        "midi": 56,
        "time": 168.929,
        "duration": 0.179,
        "velocity": 1,
        "hand": "left"
      },
      {
        "midi": 49,
        "time": 169.107,
        "duration": 0.179,
        "velocity": 1,
        "hand": "left"
      },
      {
        "midi": 75,
        "time": 169.107,
        "duration": 2.679,
        "velocity": 1,
        "hand": "right"
      },
      {
        "midi": 56,
        "time": 169.375,
        "duration": 0.179,
        "velocity": 1,
        "hand": "left"
      },
      {
        "midi": 60,
        "time": 169.554,
        "duration": 0.179,
        "velocity": 1,
        "hand": "right"
      },
      {
        "midi": 66,
        "time": 169.821,
        "duration": 0.179,
        "velocity": 1,
        "hand": "right"
      },
      {
        "midi": 60,
        "time": 170,
        "duration": 0.179,
        "velocity": 1,
        "hand": "right"
      },
      {
        "midi": 56,
        "time": 170.268,
        "duration": 0.179,
        "velocity": 1,
        "hand": "left"
      },
      {
        "midi": 49,
        "time": 170.446,
        "duration": 0.179,
        "velocity": 1,
        "hand": "left"
      },
      {
        "midi": 56,
        "time": 170.714,
        "duration": 0.179,
        "velocity": 1,
        "hand": "left"
      },
      {
        "midi": 60,
        "time": 170.893,
        "duration": 0.179,
        "velocity": 1,
        "hand": "right"
      },
      {
        "midi": 66,
        "time": 171.161,
        "duration": 0.179,
        "velocity": 1,
        "hand": "right"
      },
      {
        "midi": 60,
        "time": 171.339,
        "duration": 0.179,
        "velocity": 1,
        "hand": "right"
      },
      {
        "midi": 56,
        "time": 171.607,
        "duration": 0.179,
        "velocity": 1,
        "hand": "left"
      },
      {
        "midi": 49,
        "time": 171.786,
        "duration": 0.089,
        "velocity": 1,
        "hand": "left"
      },
      {
        "midi": 68,
        "time": 171.875,
        "duration": 0.089,
        "velocity": 1,
        "hand": "right"
      },
      {
        "midi": 56,
        "time": 171.964,
        "duration": 0.089,
        "velocity": 1,
        "hand": "left"
      },
      {
        "midi": 69,
        "time": 171.964,
        "duration": 0.089,
        "velocity": 1,
        "hand": "right"
      },
      {
        "midi": 61,
        "time": 172.054,
        "duration": 0.089,
        "velocity": 1,
        "hand": "right"
      },
      {
        "midi": 67,
        "time": 172.143,
        "duration": 0.089,
        "velocity": 1,
        "hand": "right"
      },
      {
        "midi": 68,
        "time": 172.054,
        "duration": 0.089,
        "velocity": 1,
        "hand": "right"
      },
      {
        "midi": 61,
        "time": 172.321,
        "duration": 0.089,
        "velocity": 1,
        "hand": "right"
      },
      {
        "midi": 68,
        "time": 172.232,
        "duration": 0.089,
        "velocity": 1,
        "hand": "right"
      },
      {
        "midi": 73,
        "time": 172.321,
        "duration": 0.089,
        "velocity": 1,
        "hand": "right"
      },
      {
        "midi": 52,
        "time": 172.5,
        "duration": 0.089,
        "velocity": 1,
        "hand": "left"
      },
      {
        "midi": 75,
        "time": 172.5,
        "duration": 0.089,
        "velocity": 1,
        "hand": "right"
      },
      {
        "midi": 76,
        "time": 172.411,
        "duration": 0.089,
        "velocity": 1,
        "hand": "right"
      },
      {
        "midi": 73,
        "time": 172.589,
        "duration": 0.089,
        "velocity": 1,
        "hand": "right"
      },
      {
        "midi": 56,
        "time": 172.679,
        "duration": 0.089,
        "velocity": 1,
        "hand": "left"
      },
      {
        "midi": 73,
        "time": 172.768,
        "duration": 0.089,
        "velocity": 1,
        "hand": "right"
      },
      {
        "midi": 75,
        "time": 172.679,
        "duration": 0.089,
        "velocity": 1,
        "hand": "right"
      },
      {
        "midi": 64,
        "time": 172.857,
        "duration": 0.089,
        "velocity": 1,
        "hand": "right"
      },
      {
        "midi": 72,
        "time": 172.857,
        "duration": 0.089,
        "velocity": 1,
        "hand": "right"
      },
      {
        "midi": 73,
        "time": 172.946,
        "duration": 0.089,
        "velocity": 1,
        "hand": "right"
      },
      {
        "midi": 56,
        "time": 173.125,
        "duration": 0.089,
        "velocity": 1,
        "hand": "left"
      },
      {
        "midi": 76,
        "time": 173.036,
        "duration": 0.089,
        "velocity": 1,
        "hand": "right"
      },
      {
        "midi": 80,
        "time": 173.125,
        "duration": 0.089,
        "velocity": 1,
        "hand": "right"
      },
      {
        "midi": 49,
        "time": 173.214,
        "duration": 0.089,
        "velocity": 1,
        "hand": "left"
      },
      {
        "midi": 56,
        "time": 173.393,
        "duration": 0.089,
        "velocity": 1,
        "hand": "left"
      },
      {
        "midi": 68,
        "time": 173.304,
        "duration": 0.089,
        "velocity": 1,
        "hand": "right"
      },
      {
        "midi": 69,
        "time": 173.393,
        "duration": 0.089,
        "velocity": 1,
        "hand": "right"
      },
      {
        "midi": 61,
        "time": 173.482,
        "duration": 0.089,
        "velocity": 1,
        "hand": "right"
      },
      {
        "midi": 67,
        "time": 173.571,
        "duration": 0.089,
        "velocity": 1,
        "hand": "right"
      },
      {
        "midi": 68,
        "time": 173.482,
        "duration": 0.089,
        "velocity": 1,
        "hand": "right"
      },
      {
        "midi": 61,
        "time": 173.75,
        "duration": 0.089,
        "velocity": 1,
        "hand": "right"
      },
      {
        "midi": 68,
        "time": 173.661,
        "duration": 0.089,
        "velocity": 1,
        "hand": "right"
      },
      {
        "midi": 73,
        "time": 173.75,
        "duration": 0.089,
        "velocity": 1,
        "hand": "right"
      },
      {
        "midi": 56,
        "time": 173.839,
        "duration": 0.089,
        "velocity": 1,
        "hand": "left"
      },
      {
        "midi": 76,
        "time": 173.839,
        "duration": 0.089,
        "velocity": 1,
        "hand": "right"
      },
      {
        "midi": 52,
        "time": 173.929,
        "duration": 0.089,
        "velocity": 1,
        "hand": "left"
      },
      {
        "midi": 73,
        "time": 174.018,
        "duration": 0.089,
        "velocity": 1,
        "hand": "right"
      },
      {
        "midi": 75,
        "time": 173.929,
        "duration": 0.089,
        "velocity": 1,
        "hand": "right"
      },
      {
        "midi": 56,
        "time": 174.107,
        "duration": 0.089,
        "velocity": 1,
        "hand": "left"
      },
      {
        "midi": 73,
        "time": 174.196,
        "duration": 0.089,
        "velocity": 1,
        "hand": "right"
      },
      {
        "midi": 75,
        "time": 174.107,
        "duration": 0.089,
        "velocity": 1,
        "hand": "right"
      },
      {
        "midi": 64,
        "time": 174.286,
        "duration": 0.089,
        "velocity": 1,
        "hand": "right"
      },
      {
        "midi": 72,
        "time": 174.286,
        "duration": 0.089,
        "velocity": 1,
        "hand": "right"
      },
      {
        "midi": 73,
        "time": 174.375,
        "duration": 0.089,
        "velocity": 1,
        "hand": "right"
      },
      {
        "midi": 61,
        "time": 174.464,
        "duration": 0.089,
        "velocity": 1,
        "hand": "right"
      },
      {
        "midi": 76,
        "time": 174.464,
        "duration": 0.089,
        "velocity": 1,
        "hand": "right"
      },
      {
        "midi": 51,
        "time": 174.643,
        "duration": 0.089,
        "velocity": 1,
        "hand": "left"
      },
      {
        "midi": 56,
        "time": 174.554,
        "duration": 0.089,
        "velocity": 1,
        "hand": "left"
      },
      {
        "midi": 80,
        "time": 174.554,
        "duration": 0.089,
        "velocity": 1,
        "hand": "right"
      },
      {
        "midi": 57,
        "time": 174.821,
        "duration": 0.089,
        "velocity": 1,
        "hand": "left"
      },
      {
        "midi": 69,
        "time": 174.732,
        "duration": 0.089,
        "velocity": 1,
        "hand": "right"
      },
      {
        "midi": 73,
        "time": 174.821,
        "duration": 0.089,
        "velocity": 1,
        "hand": "right"
      },
      {
        "midi": 61,
        "time": 174.911,
        "duration": 0.089,
        "velocity": 1,
        "hand": "right"
      },
      {
        "midi": 75,
        "time": 174.911,
        "duration": 0.089,
        "velocity": 1,
        "hand": "right"
      },
      {
        "midi": 78,
        "time": 175,
        "duration": 0.089,
        "velocity": 1,
        "hand": "right"
      },
      {
        "midi": 81,
        "time": 175.089,
        "duration": 0.089,
        "velocity": 1,
        "hand": "right"
      },
      {
        "midi": 57,
        "time": 175.268,
        "duration": 0.089,
        "velocity": 1,
        "hand": "left"
      },
      {
        "midi": 85,
        "time": 175.179,
        "duration": 0.089,
        "velocity": 1,
        "hand": "right"
      },
      {
        "midi": 87,
        "time": 175.268,
        "duration": 0.089,
        "velocity": 1,
        "hand": "right"
      },
      {
        "midi": 54,
        "time": 175.357,
        "duration": 0.089,
        "velocity": 1,
        "hand": "left"
      },
      {
        "midi": 93,
        "time": 175.446,
        "duration": 0.089,
        "velocity": 1,
        "hand": "right"
      },
      {
        "midi": 95,
        "time": 175.357,
        "duration": 0.089,
        "velocity": 1,
        "hand": "right"
      },
      {
        "midi": 61,
        "time": 175.536,
        "duration": 0.089,
        "velocity": 1,
        "hand": "right"
      },
      {
        "midi": 90,
        "time": 175.625,
        "duration": 0.089,
        "velocity": 1,
        "hand": "right"
      },
      {
        "midi": 92,
        "time": 175.536,
        "duration": 0.089,
        "velocity": 1,
        "hand": "right"
      },
      {
        "midi": 69,
        "time": 175.714,
        "duration": 0.089,
        "velocity": 1,
        "hand": "right"
      },
      {
        "midi": 88,
        "time": 175.714,
        "duration": 0.089,
        "velocity": 1,
        "hand": "right"
      },
      {
        "midi": 63,
        "time": 175.893,
        "duration": 0.089,
        "velocity": 1,
        "hand": "right"
      },
      {
        "midi": 87,
        "time": 175.804,
        "duration": 0.089,
        "velocity": 1,
        "hand": "right"
      },
      {
        "midi": 90,
        "time": 175.893,
        "duration": 0.089,
        "velocity": 1,
        "hand": "right"
      },
      {
        "midi": 44,
        "time": 176.071,
        "duration": 0.089,
        "velocity": 1,
        "hand": "left"
      },
      {
        "midi": 84,
        "time": 176.071,
        "duration": 0.089,
        "velocity": 1,
        "hand": "right"
      },
      {
        "midi": 85,
        "time": 175.982,
        "duration": 0.089,
        "velocity": 1,
        "hand": "right"
      },
      {
        "midi": 51,
        "time": 176.25,
        "duration": 0.089,
        "velocity": 1,
        "hand": "left"
      },
      {
        "midi": 81,
        "time": 176.25,
        "duration": 0.089,
        "velocity": 1,
        "hand": "right"
      },
      {
        "midi": 87,
        "time": 176.161,
        "duration": 0.089,
        "velocity": 1,
        "hand": "right"
      },
      {
        "midi": 54,
        "time": 176.339,
        "duration": 0.089,
        "velocity": 1,
        "hand": "left"
      },
      {
        "midi": 80,
        "time": 176.339,
        "duration": 0.089,
        "velocity": 1,
        "hand": "right"
      },
      {
        "midi": 60,
        "time": 176.429,
        "duration": 0.089,
        "velocity": 1,
        "hand": "right"
      },
      {
        "midi": 78,
        "time": 176.429,
        "duration": 0.089,
        "velocity": 1,
        "hand": "right"
      },
      {
        "midi": 81,
        "time": 176.518,
        "duration": 0.089,
        "velocity": 1,
        "hand": "right"
      },
      {
        "midi": 51,
        "time": 176.696,
        "duration": 0.089,
        "velocity": 1,
        "hand": "left"
      },
      {
        "midi": 75,
        "time": 176.696,
        "duration": 0.089,
        "velocity": 1,
        "hand": "right"
      },
      {
        "midi": 76,
        "time": 176.607,
        "duration": 0.089,
        "velocity": 1,
        "hand": "right"
      },
      {
        "midi": 44,
        "time": 176.786,
        "duration": 0.089,
        "velocity": 1,
        "hand": "left"
      },
      {
        "midi": 73,
        "time": 176.875,
        "duration": 0.089,
        "velocity": 1,
        "hand": "right"
      },
      {
        "midi": 78,
        "time": 176.786,
        "duration": 0.089,
        "velocity": 1,
        "hand": "right"
      },
      {
        "midi": 51,
        "time": 176.964,
        "duration": 0.089,
        "velocity": 1,
        "hand": "left"
      },
      {
        "midi": 72,
        "time": 176.964,
        "duration": 0.089,
        "velocity": 1,
        "hand": "right"
      },
      {
        "midi": 54,
        "time": 177.054,
        "duration": 0.089,
        "velocity": 1,
        "hand": "left"
      },
      {
        "midi": 69,
        "time": 177.143,
        "duration": 0.089,
        "velocity": 1,
        "hand": "right"
      },
      {
        "midi": 75,
        "time": 177.054,
        "duration": 0.089,
        "velocity": 1,
        "hand": "right"
      },
      {
        "midi": 54,
        "time": 177.321,
        "duration": 0.089,
        "velocity": 1,
        "hand": "left"
      },
      {
        "midi": 68,
        "time": 177.232,
        "duration": 0.089,
        "velocity": 1,
        "hand": "right"
      },
      {
        "midi": 71,
        "time": 177.321,
        "duration": 0.089,
        "velocity": 1,
        "hand": "right"
      },
      {
        "midi": 49,
        "time": 177.5,
        "duration": 0.089,
        "velocity": 1,
        "hand": "left"
      },
      {
        "midi": 51,
        "time": 177.411,
        "duration": 0.089,
        "velocity": 1,
        "hand": "left"
      },
      {
        "midi": 69,
        "time": 177.411,
        "duration": 0.179,
        "velocity": 1,
        "hand": "right"
      },
      {
        "midi": 68,
        "time": 177.589,
        "duration": 0.089,
        "velocity": 1,
        "hand": "right"
      },
      {
        "midi": 56,
        "time": 177.679,
        "duration": 0.089,
        "velocity": 1,
        "hand": "left"
      },
      {
        "midi": 68,
        "time": 177.768,
        "duration": 0.089,
        "velocity": 1,
        "hand": "right"
      },
      {
        "midi": 69,
        "time": 177.679,
        "duration": 0.089,
        "velocity": 1,
        "hand": "right"
      },
      {
        "midi": 64,
        "time": 177.857,
        "duration": 0.089,
        "velocity": 1,
        "hand": "right"
      },
      {
        "midi": 67,
        "time": 177.857,
        "duration": 0.089,
        "velocity": 1,
        "hand": "right"
      },
      {
        "midi": 68,
        "time": 177.946,
        "duration": 0.089,
        "velocity": 1,
        "hand": "right"
      },
      {
        "midi": 56,
        "time": 178.125,
        "duration": 0.089,
        "velocity": 1,
        "hand": "left"
      },
      {
        "midi": 73,
        "time": 178.036,
        "duration": 0.089,
        "velocity": 1,
        "hand": "right"
      },
      {
        "midi": 76,
        "time": 178.125,
        "duration": 0.089,
        "velocity": 1,
        "hand": "right"
      },
      {
        "midi": 52,
        "time": 178.214,
        "duration": 0.089,
        "velocity": 1,
        "hand": "left"
      },
      {
        "midi": 75,
        "time": 178.214,
        "duration": 0.089,
        "velocity": 1,
        "hand": "right"
      },
      {
        "midi": 56,
        "time": 178.393,
        "duration": 0.089,
        "velocity": 1,
        "hand": "left"
      },
      {
        "midi": 73,
        "time": 178.304,
        "duration": 0.089,
        "velocity": 1,
        "hand": "right"
      },
      {
        "midi": 75,
        "time": 178.393,
        "duration": 0.089,
        "velocity": 1,
        "hand": "right"
      },
      {
        "midi": 61,
        "time": 178.482,
        "duration": 0.089,
        "velocity": 1,
        "hand": "right"
      },
      {
        "midi": 72,
        "time": 178.571,
        "duration": 0.089,
        "velocity": 1,
        "hand": "right"
      },
      {
        "midi": 73,
        "time": 178.482,
        "duration": 0.089,
        "velocity": 1,
        "hand": "right"
      },
      {
        "midi": 61,
        "time": 178.75,
        "duration": 0.089,
        "velocity": 1,
        "hand": "right"
      },
      {
        "midi": 73,
        "time": 178.661,
        "duration": 0.089,
        "velocity": 1,
        "hand": "right"
      },
      {
        "midi": 76,
        "time": 178.75,
        "duration": 0.089,
        "velocity": 1,
        "hand": "right"
      },
      {
        "midi": 56,
        "time": 178.839,
        "duration": 0.089,
        "velocity": 1,
        "hand": "left"
      },
      {
        "midi": 80,
        "time": 178.839,
        "duration": 0.089,
        "velocity": 1,
        "hand": "right"
      },
      {
        "midi": 49,
        "time": 178.929,
        "duration": 0.089,
        "velocity": 1,
        "hand": "left"
      },
      {
        "midi": 68,
        "time": 179.018,
        "duration": 0.089,
        "velocity": 1,
        "hand": "right"
      },
      {
        "midi": 56,
        "time": 179.107,
        "duration": 0.089,
        "velocity": 1,
        "hand": "left"
      },
      {
        "midi": 68,
        "time": 179.196,
        "duration": 0.089,
        "velocity": 1,
        "hand": "right"
      },
      {
        "midi": 70,
        "time": 179.107,
        "duration": 0.089,
        "velocity": 1,
        "hand": "right"
      },
      {
        "midi": 64,
        "time": 179.286,
        "duration": 0.089,
        "velocity": 1,
        "hand": "right"
      },
      {
        "midi": 67,
        "time": 179.286,
        "duration": 0.089,
        "velocity": 1,
        "hand": "right"
      },
      {
        "midi": 68,
        "time": 179.375,
        "duration": 0.089,
        "velocity": 1,
        "hand": "right"
      },
      {
        "midi": 58,
        "time": 179.464,
        "duration": 0.089,
        "velocity": 1,
        "hand": "left"
      },
      {
        "midi": 73,
        "time": 179.464,
        "duration": 0.089,
        "velocity": 1,
        "hand": "right"
      },
      {
        "midi": 52,
        "time": 179.643,
        "duration": 0.089,
        "velocity": 1,
        "hand": "left"
      },
      {
        "midi": 75,
        "time": 179.643,
        "duration": 0.089,
        "velocity": 1,
        "hand": "right"
      },
      {
        "midi": 76,
        "time": 179.554,
        "duration": 0.089,
        "velocity": 1,
        "hand": "right"
      },
      {
        "midi": 56,
        "time": 179.821,
        "duration": 0.089,
        "velocity": 1,
        "hand": "left"
      },
      {
        "midi": 73,
        "time": 179.732,
        "duration": 0.089,
        "velocity": 1,
        "hand": "right"
      },
      {
        "midi": 75,
        "time": 179.821,
        "duration": 0.089,
        "velocity": 1,
        "hand": "right"
      },
      {
        "midi": 58,
        "time": 179.911,
        "duration": 0.089,
        "velocity": 1,
        "hand": "left"
      },
      {
        "midi": 72,
        "time": 180,
        "duration": 0.089,
        "velocity": 1,
        "hand": "right"
      },
      {
        "midi": 73,
        "time": 179.911,
        "duration": 0.089,
        "velocity": 1,
        "hand": "right"
      },
      {
        "midi": 73,
        "time": 180.089,
        "duration": 0.089,
        "velocity": 1,
        "hand": "right"
      },
      {
        "midi": 56,
        "time": 180.268,
        "duration": 0.089,
        "velocity": 1,
        "hand": "left"
      },
      {
        "midi": 76,
        "time": 180.179,
        "duration": 0.089,
        "velocity": 1,
        "hand": "right"
      },
      {
        "midi": 80,
        "time": 180.268,
        "duration": 0.089,
        "velocity": 1,
        "hand": "right"
      },
      {
        "midi": 51,
        "time": 180.357,
        "duration": 0.089,
        "velocity": 1,
        "hand": "left"
      },
      {
        "midi": 75,
        "time": 180.357,
        "duration": 0.089,
        "velocity": 1,
        "hand": "right"
      },
      {
        "midi": 76,
        "time": 180.446,
        "duration": 0.089,
        "velocity": 1,
        "hand": "right"
      },
      {
        "midi": 56,
        "time": 180.536,
        "duration": 0.089,
        "velocity": 1,
        "hand": "left"
      },
      {
        "midi": 74,
        "time": 180.625,
        "duration": 0.089,
        "velocity": 1,
        "hand": "right"
      },
      {
        "midi": 75,
        "time": 180.536,
        "duration": 0.089,
        "velocity": 1,
        "hand": "right"
      },
      {
        "midi": 63,
        "time": 180.714,
        "duration": 0.089,
        "velocity": 1,
        "hand": "right"
      },
      {
        "midi": 75,
        "time": 180.714,
        "duration": 0.089,
        "velocity": 1,
        "hand": "right"
      },
      {
        "midi": 59,
        "time": 180.893,
        "duration": 0.089,
        "velocity": 1,
        "hand": "left"
      },
      {
        "midi": 82,
        "time": 180.893,
        "duration": 0.089,
        "velocity": 1,
        "hand": "right"
      },
      {
        "midi": 83,
        "time": 180.804,
        "duration": 0.089,
        "velocity": 1,
        "hand": "right"
      },
      {
        "midi": 51,
        "time": 181.071,
        "duration": 0.089,
        "velocity": 1,
        "hand": "left"
      },
      {
        "midi": 79,
        "time": 181.071,
        "duration": 0.089,
        "velocity": 1,
        "hand": "right"
      },
      {
        "midi": 80,
        "time": 180.982,
        "duration": 0.089,
        "velocity": 1,
        "hand": "right"
      },
      {
        "midi": 58,
        "time": 181.25,
        "duration": 0.089,
        "velocity": 1,
        "hand": "left"
      },
      {
        "midi": 87,
        "time": 181.25,
        "duration": 0.089,
        "velocity": 1,
        "hand": "right"
      },
      {
        "midi": 88,
        "time": 181.161,
        "duration": 0.089,
        "velocity": 1,
        "hand": "right"
      },
      {
        "midi": 61,
        "time": 181.339,
        "duration": 0.089,
        "velocity": 1,
        "hand": "right"
      },
      {
        "midi": 85,
        "time": 181.339,
        "duration": 0.089,
        "velocity": 1,
        "hand": "right"
      },
      {
        "midi": 67,
        "time": 181.429,
        "duration": 0.089,
        "velocity": 1,
        "hand": "right"
      },
      {
        "midi": 82,
        "time": 181.518,
        "duration": 0.089,
        "velocity": 1,
        "hand": "right"
      },
      {
        "midi": 83,
        "time": 181.429,
        "duration": 0.089,
        "velocity": 1,
        "hand": "right"
      },
      {
        "midi": 58,
        "time": 181.696,
        "duration": 0.089,
        "velocity": 1,
        "hand": "left"
      },
      {
        "midi": 79,
        "time": 181.696,
        "duration": 0.089,
        "velocity": 1,
        "hand": "right"
      },
      {
        "midi": 80,
        "time": 181.607,
        "duration": 0.089,
        "velocity": 1,
        "hand": "right"
      },
      {
        "midi": 44,
        "time": 181.786,
        "duration": 0.089,
        "velocity": 1,
        "hand": "left"
      },
      {
        "midi": 80,
        "time": 181.875,
        "duration": 0.089,
        "velocity": 1,
        "hand": "right"
      },
      {
        "midi": 82,
        "time": 181.786,
        "duration": 0.089,
        "velocity": 1,
        "hand": "right"
      },
      {
        "midi": 51,
        "time": 181.964,
        "duration": 0.089,
        "velocity": 1,
        "hand": "left"
      },
      {
        "midi": 83,
        "time": 181.964,
        "duration": 0.089,
        "velocity": 1,
        "hand": "right"
      },
      {
        "midi": 56,
        "time": 182.054,
        "duration": 0.089,
        "velocity": 1,
        "hand": "left"
      },
      {
        "midi": 74,
        "time": 182.054,
        "duration": 0.089,
        "velocity": 1,
        "hand": "right"
      },
      {
        "midi": 76,
        "time": 182.143,
        "duration": 0.089,
        "velocity": 1,
        "hand": "right"
      },
      {
        "midi": 56,
        "time": 182.321,
        "duration": 0.089,
        "velocity": 1,
        "hand": "left"
      },
      {
        "midi": 75,
        "time": 182.232,
        "duration": 0.089,
        "velocity": 1,
        "hand": "right"
      },
      {
        "midi": 80,
        "time": 182.321,
        "duration": 0.089,
        "velocity": 1,
        "hand": "right"
      },
      {
        "midi": 44,
        "time": 182.5,
        "duration": 0.089,
        "velocity": 1,
        "hand": "left"
      },
      {
        "midi": 70,
        "time": 182.411,
        "duration": 0.089,
        "velocity": 1,
        "hand": "right"
      },
      {
        "midi": 73,
        "time": 182.5,
        "duration": 0.089,
        "velocity": 1,
        "hand": "right"
      },
      {
        "midi": 71,
        "time": 182.589,
        "duration": 0.089,
        "velocity": 1,
        "hand": "right"
      },
      {
        "midi": 51,
        "time": 182.679,
        "duration": 0.089,
        "velocity": 1,
        "hand": "left"
      },
      {
        "midi": 67,
        "time": 182.768,
        "duration": 0.089,
        "velocity": 1,
        "hand": "right"
      },
      {
        "midi": 75,
        "time": 182.679,
        "duration": 0.089,
        "velocity": 1,
        "hand": "right"
      },
      {
        "midi": 59,
        "time": 182.857,
        "duration": 0.089,
        "velocity": 1,
        "hand": "left"
      },
      {
        "midi": 68,
        "time": 182.946,
        "duration": 0.089,
        "velocity": 1,
        "hand": "right"
      },
      {
        "midi": 70,
        "time": 182.857,
        "duration": 0.089,
        "velocity": 1,
        "hand": "right"
      },
      {
        "midi": 51,
        "time": 183.125,
        "duration": 0.089,
        "velocity": 1,
        "hand": "left"
      },
      {
        "midi": 67,
        "time": 183.036,
        "duration": 0.089,
        "velocity": 1,
        "hand": "right"
      },
      {
        "midi": 68,
        "time": 183.125,
        "duration": 0.089,
        "velocity": 1,
        "hand": "right"
      },
      {
        "midi": 45,
        "time": 183.214,
        "duration": 0.089,
        "velocity": 1,
        "hand": "left"
      },
      {
        "midi": 68,
        "time": 183.214,
        "duration": 0.089,
        "velocity": 1,
        "hand": "right"
      },
      {
        "midi": 49,
        "time": 183.393,
        "duration": 0.089,
        "velocity": 1,
        "hand": "left"
      },
      {
        "midi": 72,
        "time": 183.393,
        "duration": 0.089,
        "velocity": 1,
        "hand": "right"
      },
      {
        "midi": 80,
        "time": 183.304,
        "duration": 0.089,
        "velocity": 1,
        "hand": "right"
      },
      {
        "midi": 54,
        "time": 183.482,
        "duration": 0.089,
        "velocity": 1,
        "hand": "left"
      },
      {
        "midi": 66,
        "time": 183.571,
        "duration": 0.089,
        "velocity": 1,
        "hand": "right"
      },
      {
        "midi": 73,
        "time": 183.482,
        "duration": 0.089,
        "velocity": 1,
        "hand": "right"
      },
      {
        "midi": 54,
        "time": 183.75,
        "duration": 0.089,
        "velocity": 1,
        "hand": "left"
      },
      {
        "midi": 72,
        "time": 183.75,
        "duration": 0.089,
        "velocity": 1,
        "hand": "right"
      },
      {
        "midi": 78,
        "time": 183.661,
        "duration": 0.089,
        "velocity": 1,
        "hand": "right"
      },
      {
        "midi": 49,
        "time": 183.839,
        "duration": 0.089,
        "velocity": 1,
        "hand": "left"
      },
      {
        "midi": 73,
        "time": 183.839,
        "duration": 0.089,
        "velocity": 1,
        "hand": "right"
      },
      {
        "midi": 45,
        "time": 183.929,
        "duration": 0.089,
        "velocity": 1,
        "hand": "left"
      },
      {
        "midi": 65,
        "time": 183.929,
        "duration": 0.089,
        "velocity": 1,
        "hand": "right"
      },
      {
        "midi": 77,
        "time": 184.018,
        "duration": 0.089,
        "velocity": 1,
        "hand": "right"
      },
      {
        "midi": 49,
        "time": 184.107,
        "duration": 0.089,
        "velocity": 1,
        "hand": "left"
      },
      {
        "midi": 72,
        "time": 184.107,
        "duration": 0.089,
        "velocity": 1,
        "hand": "right"
      },
      {
        "midi": 73,
        "time": 184.196,
        "duration": 0.089,
        "velocity": 1,
        "hand": "right"
      },
      {
        "midi": 57,
        "time": 184.286,
        "duration": 0.089,
        "velocity": 1,
        "hand": "left"
      },
      {
        "midi": 66,
        "time": 184.286,
        "duration": 0.089,
        "velocity": 1,
        "hand": "right"
      },
      {
        "midi": 78,
        "time": 184.375,
        "duration": 0.089,
        "velocity": 1,
        "hand": "right"
      },
      {
        "midi": 54,
        "time": 184.464,
        "duration": 0.089,
        "velocity": 1,
        "hand": "left"
      },
      {
        "midi": 72,
        "time": 184.464,
        "duration": 0.089,
        "velocity": 1,
        "hand": "right"
      },
      {
        "midi": 47,
        "time": 184.643,
        "duration": 0.089,
        "velocity": 1,
        "hand": "left"
      },
      {
        "midi": 61,
        "time": 184.643,
        "duration": 0.089,
        "velocity": 1,
        "hand": "right"
      },
      {
        "midi": 73,
        "time": 184.554,
        "duration": 0.089,
        "velocity": 1,
        "hand": "right"
      },
      {
        "midi": 54,
        "time": 184.821,
        "duration": 0.089,
        "velocity": 1,
        "hand": "left"
      },
      {
        "midi": 66,
        "time": 184.821,
        "duration": 0.089,
        "velocity": 1,
        "hand": "right"
      },
      {
        "midi": 73,
        "time": 184.732,
        "duration": 0.089,
        "velocity": 1,
        "hand": "right"
      },
      {
        "midi": 57,
        "time": 184.911,
        "duration": 0.089,
        "velocity": 1,
        "hand": "left"
      },
      {
        "midi": 63,
        "time": 185,
        "duration": 0.089,
        "velocity": 1,
        "hand": "right"
      },
      {
        "midi": 69,
        "time": 184.911,
        "duration": 0.089,
        "velocity": 1,
        "hand": "right"
      },
      {
        "midi": 75,
        "time": 185.089,
        "duration": 0.089,
        "velocity": 1,
        "hand": "right"
      },
      {
        "midi": 54,
        "time": 185.268,
        "duration": 0.089,
        "velocity": 1,
        "hand": "left"
      },
      {
        "midi": 66,
        "time": 185.179,
        "duration": 0.089,
        "velocity": 1,
        "hand": "right"
      },
      {
        "midi": 69,
        "time": 185.268,
        "duration": 0.089,
        "velocity": 1,
        "hand": "right"
      },
      {
        "midi": 40,
        "time": 185.357,
        "duration": 0.089,
        "velocity": 1,
        "hand": "left"
      },
      {
        "midi": 64,
        "time": 185.357,
        "duration": 0.089,
        "velocity": 1,
        "hand": "right"
      },
      {
        "midi": 76,
        "time": 185.446,
        "duration": 0.089,
        "velocity": 1,
        "hand": "right"
      },
      {
        "midi": 47,
        "time": 185.536,
        "duration": 0.089,
        "velocity": 1,
        "hand": "left"
      },
      {
        "midi": 68,
        "time": 185.536,
        "duration": 0.089,
        "velocity": 1,
        "hand": "right"
      },
      {
        "midi": 71,
        "time": 185.625,
        "duration": 0.089,
        "velocity": 1,
        "hand": "right"
      },
      {
        "midi": 56,
        "time": 185.714,
        "duration": 0.089,
        "velocity": 1,
        "hand": "left"
      },
      {
        "midi": 68,
        "time": 185.714,
        "duration": 0.089,
        "velocity": 1,
        "hand": "right"
      },
      {
        "midi": 52,
        "time": 185.893,
        "duration": 0.089,
        "velocity": 1,
        "hand": "left"
      },
      {
        "midi": 71,
        "time": 185.893,
        "duration": 0.089,
        "velocity": 1,
        "hand": "right"
      },
      {
        "midi": 80,
        "time": 185.804,
        "duration": 0.089,
        "velocity": 1,
        "hand": "right"
      },
      {
        "midi": 45,
        "time": 186.071,
        "duration": 0.089,
        "velocity": 1,
        "hand": "left"
      },
      {
        "midi": 68,
        "time": 186.071,
        "duration": 0.089,
        "velocity": 1,
        "hand": "right"
      },
      {
        "midi": 76,
        "time": 185.982,
        "duration": 0.089,
        "velocity": 1,
        "hand": "right"
      },
      {
        "midi": 49,
        "time": 186.25,
        "duration": 0.089,
        "velocity": 1,
        "hand": "left"
      },
      {
        "midi": 72,
        "time": 186.25,
        "duration": 0.089,
        "velocity": 1,
        "hand": "right"
      },
      {
        "midi": 80,
        "time": 186.161,
        "duration": 0.089,
        "velocity": 1,
        "hand": "right"
      },
      {
        "midi": 54,
        "time": 186.339,
        "duration": 0.089,
        "velocity": 1,
        "hand": "left"
      },
      {
        "midi": 73,
        "time": 186.339,
        "duration": 0.089,
        "velocity": 1,
        "hand": "right"
      },
      {
        "midi": 57,
        "time": 186.429,
        "duration": 0.089,
        "velocity": 1,
        "hand": "left"
      },
      {
        "midi": 66,
        "time": 186.429,
        "duration": 0.089,
        "velocity": 1,
        "hand": "right"
      },
      {
        "midi": 78,
        "time": 186.518,
        "duration": 0.089,
        "velocity": 1,
        "hand": "right"
      },
      {
        "midi": 49,
        "time": 186.696,
        "duration": 0.089,
        "velocity": 1,
        "hand": "left"
      },
      {
        "midi": 72,
        "time": 186.607,
        "duration": 0.089,
        "velocity": 1,
        "hand": "right"
      },
      {
        "midi": 73,
        "time": 186.696,
        "duration": 0.089,
        "velocity": 1,
        "hand": "right"
      },
      {
        "midi": 45,
        "time": 186.786,
        "duration": 0.089,
        "velocity": 1,
        "hand": "left"
      },
      {
        "midi": 65,
        "time": 186.786,
        "duration": 0.089,
        "velocity": 1,
        "hand": "right"
      },
      {
        "midi": 77,
        "time": 186.875,
        "duration": 0.089,
        "velocity": 1,
        "hand": "right"
      },
      {
        "midi": 49,
        "time": 186.964,
        "duration": 0.089,
        "velocity": 1,
        "hand": "left"
      },
      {
        "midi": 72,
        "time": 186.964,
        "duration": 0.089,
        "velocity": 1,
        "hand": "right"
      },
      {
        "midi": 54,
        "time": 187.054,
        "duration": 0.089,
        "velocity": 1,
        "hand": "left"
      },
      {
        "midi": 66,
        "time": 187.143,
        "duration": 0.089,
        "velocity": 1,
        "hand": "right"
      },
      {
        "midi": 73,
        "time": 187.054,
        "duration": 0.089,
        "velocity": 1,
        "hand": "right"
      },
      {
        "midi": 54,
        "time": 187.321,
        "duration": 0.089,
        "velocity": 1,
        "hand": "left"
      },
      {
        "midi": 72,
        "time": 187.321,
        "duration": 0.089,
        "velocity": 1,
        "hand": "right"
      },
      {
        "midi": 78,
        "time": 187.232,
        "duration": 0.089,
        "velocity": 1,
        "hand": "right"
      },
      {
        "midi": 47,
        "time": 187.5,
        "duration": 0.089,
        "velocity": 1,
        "hand": "left"
      },
      {
        "midi": 65,
        "time": 187.5,
        "duration": 0.089,
        "velocity": 1,
        "hand": "right"
      },
      {
        "midi": 73,
        "time": 187.411,
        "duration": 0.089,
        "velocity": 1,
        "hand": "right"
      },
      {
        "midi": 77,
        "time": 187.589,
        "duration": 0.089,
        "velocity": 1,
        "hand": "right"
      },
      {
        "midi": 54,
        "time": 187.679,
        "duration": 0.089,
        "velocity": 1,
        "hand": "left"
      },
      {
        "midi": 71,
        "time": 187.679,
        "duration": 0.089,
        "velocity": 1,
        "hand": "right"
      },
      {
        "midi": 75,
        "time": 187.768,
        "duration": 0.089,
        "velocity": 1,
        "hand": "right"
      },
      {
        "midi": 59,
        "time": 187.857,
        "duration": 0.089,
        "velocity": 1,
        "hand": "left"
      },
      {
        "midi": 66,
        "time": 187.857,
        "duration": 0.089,
        "velocity": 1,
        "hand": "right"
      },
      {
        "midi": 78,
        "time": 187.946,
        "duration": 0.089,
        "velocity": 1,
        "hand": "right"
      },
      {
        "midi": 54,
        "time": 188.125,
        "duration": 0.089,
        "velocity": 1,
        "hand": "left"
      },
      {
        "midi": 71,
        "time": 188.036,
        "duration": 0.089,
        "velocity": 1,
        "hand": "right"
      },
      {
        "midi": 75,
        "time": 188.125,
        "duration": 0.089,
        "velocity": 1,
        "hand": "right"
      },
      {
        "midi": 40,
        "time": 188.214,
        "duration": 0.089,
        "velocity": 1,
        "hand": "left"
      },
      {
        "midi": 69,
        "time": 188.214,
        "duration": 0.089,
        "velocity": 1,
        "hand": "right"
      },
      {
        "midi": 47,
        "time": 188.393,
        "duration": 0.089,
        "velocity": 1,
        "hand": "left"
      },
      {
        "midi": 71,
        "time": 188.393,
        "duration": 0.089,
        "velocity": 1,
        "hand": "right"
      },
      {
        "midi": 81,
        "time": 188.304,
        "duration": 0.089,
        "velocity": 1,
        "hand": "right"
      },
      {
        "midi": 52,
        "time": 188.482,
        "duration": 0.089,
        "velocity": 1,
        "hand": "left"
      },
      {
        "midi": 68,
        "time": 188.571,
        "duration": 0.089,
        "velocity": 1,
        "hand": "right"
      },
      {
        "midi": 76,
        "time": 188.482,
        "duration": 0.089,
        "velocity": 1,
        "hand": "right"
      },
      {
        "midi": 52,
        "time": 188.75,
        "duration": 0.089,
        "velocity": 1,
        "hand": "left"
      },
      {
        "midi": 71,
        "time": 188.75,
        "duration": 0.089,
        "velocity": 1,
        "hand": "right"
      },
      {
        "midi": 80,
        "time": 188.661,
        "duration": 0.089,
        "velocity": 1,
        "hand": "right"
      },
      {
        "midi": 47,
        "time": 188.839,
        "duration": 0.089,
        "velocity": 1,
        "hand": "left"
      },
      {
        "midi": 76,
        "time": 188.839,
        "duration": 0.089,
        "velocity": 1,
        "hand": "right"
      },
      {
        "midi": 45,
        "time": 188.929,
        "duration": 0.089,
        "velocity": 1,
        "hand": "left"
      },
      {
        "midi": 68,
        "time": 188.929,
        "duration": 0.089,
        "velocity": 1,
        "hand": "right"
      },
      {
        "midi": 80,
        "time": 189.018,
        "duration": 0.089,
        "velocity": 1,
        "hand": "right"
      },
      {
        "midi": 49,
        "time": 189.107,
        "duration": 0.089,
        "velocity": 1,
        "hand": "left"
      },
      {
        "midi": 72,
        "time": 189.107,
        "duration": 0.089,
        "velocity": 1,
        "hand": "right"
      },
      {
        "midi": 73,
        "time": 189.196,
        "duration": 0.089,
        "velocity": 1,
        "hand": "right"
      },
      {
        "midi": 57,
        "time": 189.286,
        "duration": 0.089,
        "velocity": 1,
        "hand": "left"
      },
      {
        "midi": 66,
        "time": 189.286,
        "duration": 0.089,
        "velocity": 1,
        "hand": "right"
      },
      {
        "midi": 78,
        "time": 189.375,
        "duration": 0.089,
        "velocity": 1,
        "hand": "right"
      },
      {
        "midi": 54,
        "time": 189.464,
        "duration": 0.089,
        "velocity": 1,
        "hand": "left"
      },
      {
        "midi": 72,
        "time": 189.464,
        "duration": 0.089,
        "velocity": 1,
        "hand": "right"
      },
      {
        "midi": 45,
        "time": 189.643,
        "duration": 0.089,
        "velocity": 1,
        "hand": "left"
      },
      {
        "midi": 65,
        "time": 189.643,
        "duration": 0.089,
        "velocity": 1,
        "hand": "right"
      },
      {
        "midi": 73,
        "time": 189.554,
        "duration": 0.089,
        "velocity": 1,
        "hand": "right"
      },
      {
        "midi": 49,
        "time": 189.821,
        "duration": 0.089,
        "velocity": 1,
        "hand": "left"
      },
      {
        "midi": 72,
        "time": 189.821,
        "duration": 0.089,
        "velocity": 1,
        "hand": "right"
      },
      {
        "midi": 77,
        "time": 189.732,
        "duration": 0.089,
        "velocity": 1,
        "hand": "right"
      },
      {
        "midi": 54,
        "time": 189.911,
        "duration": 0.089,
        "velocity": 1,
        "hand": "left"
      },
      {
        "midi": 66,
        "time": 190,
        "duration": 0.089,
        "velocity": 1,
        "hand": "right"
      },
      {
        "midi": 73,
        "time": 189.911,
        "duration": 0.089,
        "velocity": 1,
        "hand": "right"
      },
      {
        "midi": 78,
        "time": 190.089,
        "duration": 0.089,
        "velocity": 1,
        "hand": "right"
      },
      {
        "midi": 49,
        "time": 190.268,
        "duration": 0.089,
        "velocity": 1,
        "hand": "left"
      },
      {
        "midi": 72,
        "time": 190.179,
        "duration": 0.089,
        "velocity": 1,
        "hand": "right"
      },
      {
        "midi": 73,
        "time": 190.268,
        "duration": 0.089,
        "velocity": 1,
        "hand": "right"
      },
      {
        "midi": 47,
        "time": 190.357,
        "duration": 0.089,
        "velocity": 1,
        "hand": "left"
      },
      {
        "midi": 61,
        "time": 190.357,
        "duration": 0.089,
        "velocity": 1,
        "hand": "right"
      },
      {
        "midi": 73,
        "time": 190.446,
        "duration": 0.089,
        "velocity": 1,
        "hand": "right"
      },
      {
        "midi": 54,
        "time": 190.536,
        "duration": 0.089,
        "velocity": 1,
        "hand": "left"
      },
      {
        "midi": 66,
        "time": 190.536,
        "duration": 0.089,
        "velocity": 1,
        "hand": "right"
      },
      {
        "midi": 69,
        "time": 190.625,
        "duration": 0.089,
        "velocity": 1,
        "hand": "right"
      },
      {
        "midi": 59,
        "time": 190.714,
        "duration": 0.089,
        "velocity": 1,
        "hand": "left"
      },
      {
        "midi": 63,
        "time": 190.714,
        "duration": 0.089,
        "velocity": 1,
        "hand": "right"
      },
      {
        "midi": 57,
        "time": 190.893,
        "duration": 0.089,
        "velocity": 1,
        "hand": "left"
      },
      {
        "midi": 66,
        "time": 190.893,
        "duration": 0.089,
        "velocity": 1,
        "hand": "right"
      },
      {
        "midi": 75,
        "time": 190.804,
        "duration": 0.089,
        "velocity": 1,
        "hand": "right"
      },
      {
        "midi": 40,
        "time": 191.071,
        "duration": 0.089,
        "velocity": 1,
        "hand": "left"
      },
      {
        "midi": 64,
        "time": 191.071,
        "duration": 0.089,
        "velocity": 1,
        "hand": "right"
      },
      {
        "midi": 69,
        "time": 190.982,
        "duration": 0.089,
        "velocity": 1,
        "hand": "right"
      },
      {
        "midi": 47,
        "time": 191.25,
        "duration": 0.089,
        "velocity": 1,
        "hand": "left"
      },
      {
        "midi": 68,
        "time": 191.25,
        "duration": 0.089,
        "velocity": 1,
        "hand": "right"
      },
      {
        "midi": 76,
        "time": 191.161,
        "duration": 0.089,
        "velocity": 1,
        "hand": "right"
      },
      {
        "midi": 52,
        "time": 191.339,
        "duration": 0.089,
        "velocity": 1,
        "hand": "left"
      },
      {
        "midi": 71,
        "time": 191.339,
        "duration": 0.089,
        "velocity": 1,
        "hand": "right"
      },
      {
        "midi": 56,
        "time": 191.429,
        "duration": 0.089,
        "velocity": 1,
        "hand": "left"
      },
      {
        "midi": 68,
        "time": 191.429,
        "duration": 0.089,
        "velocity": 1,
        "hand": "right"
      },
      {
        "midi": 80,
        "time": 191.518,
        "duration": 0.089,
        "velocity": 1,
        "hand": "right"
      },
      {
        "midi": 47,
        "time": 191.696,
        "duration": 0.089,
        "velocity": 1,
        "hand": "left"
      },
      {
        "midi": 71,
        "time": 191.607,
        "duration": 0.089,
        "velocity": 1,
        "hand": "right"
      },
      {
        "midi": 76,
        "time": 191.696,
        "duration": 0.089,
        "velocity": 1,
        "hand": "right"
      },
      {
        "midi": 45,
        "time": 191.786,
        "duration": 0.089,
        "velocity": 1,
        "hand": "left"
      },
      {
        "midi": 68,
        "time": 191.786,
        "duration": 0.089,
        "velocity": 1,
        "hand": "right"
      },
      {
        "midi": 80,
        "time": 191.875,
        "duration": 0.089,
        "velocity": 1,
        "hand": "right"
      },
      {
        "midi": 49,
        "time": 191.964,
        "duration": 0.089,
        "velocity": 1,
        "hand": "left"
      },
      {
        "midi": 72,
        "time": 191.964,
        "duration": 0.089,
        "velocity": 1,
        "hand": "right"
      },
      {
        "midi": 54,
        "time": 192.054,
        "duration": 0.089,
        "velocity": 1,
        "hand": "left"
      },
      {
        "midi": 66,
        "time": 192.143,
        "duration": 0.089,
        "velocity": 1,
        "hand": "right"
      },
      {
        "midi": 73,
        "time": 192.054,
        "duration": 0.089,
        "velocity": 1,
        "hand": "right"
      },
      {
        "midi": 54,
        "time": 192.321,
        "duration": 0.089,
        "velocity": 1,
        "hand": "left"
      },
      {
        "midi": 72,
        "time": 192.321,
        "duration": 0.089,
        "velocity": 1,
        "hand": "right"
      },
      {
        "midi": 78,
        "time": 192.232,
        "duration": 0.089,
        "velocity": 1,
        "hand": "right"
      },
      {
        "midi": 45,
        "time": 192.5,
        "duration": 0.089,
        "velocity": 1,
        "hand": "left"
      },
      {
        "midi": 73,
        "time": 192.411,
        "duration": 0.089,
        "velocity": 1,
        "hand": "right"
      },
      {
        "midi": 75,
        "time": 192.5,
        "duration": 0.089,
        "velocity": 1,
        "hand": "right"
      },
      {
        "midi": 87,
        "time": 192.589,
        "duration": 0.089,
        "velocity": 1,
        "hand": "right"
      },
      {
        "midi": 51,
        "time": 192.679,
        "duration": 0.089,
        "velocity": 1,
        "hand": "left"
      },
      {
        "midi": 78,
        "time": 192.679,
        "duration": 0.089,
        "velocity": 1,
        "hand": "right"
      },
      {
        "midi": 81,
        "time": 192.768,
        "duration": 0.089,
        "velocity": 1,
        "hand": "right"
      },
      {
        "midi": 57,
        "time": 192.857,
        "duration": 0.089,
        "velocity": 1,
        "hand": "left"
      },
      {
        "midi": 73,
        "time": 192.857,
        "duration": 0.089,
        "velocity": 1,
        "hand": "right"
      },
      {
        "midi": 85,
        "time": 192.946,
        "duration": 0.089,
        "velocity": 1,
        "hand": "right"
      },
      {
        "midi": 51,
        "time": 193.125,
        "duration": 0.089,
        "velocity": 1,
        "hand": "left"
      },
      {
        "midi": 78,
        "time": 193.036,
        "duration": 0.089,
        "velocity": 1,
        "hand": "right"
      },
      {
        "midi": 81,
        "time": 193.125,
        "duration": 0.089,
        "velocity": 1,
        "hand": "right"
      },
      {
        "midi": 44,
        "time": 193.214,
        "duration": 0.089,
        "velocity": 1,
        "hand": "left"
      },
      {
        "midi": 73,
        "time": 193.214,
        "duration": 0.089,
        "velocity": 1,
        "hand": "right"
      },
      {
        "midi": 51,
        "time": 193.393,
        "duration": 0.089,
        "velocity": 1,
        "hand": "left"
      },
      {
        "midi": 75,
        "time": 193.393,
        "duration": 0.089,
        "velocity": 1,
        "hand": "right"
      },
      {
        "midi": 85,
        "time": 193.304,
        "duration": 0.089,
        "velocity": 1,
        "hand": "right"
      },
      {
        "midi": 54,
        "time": 193.482,
        "duration": 0.089,
        "velocity": 1,
        "hand": "left"
      },
      {
        "midi": 72,
        "time": 193.571,
        "duration": 0.089,
        "velocity": 1,
        "hand": "right"
      },
      {
        "midi": 78,
        "time": 193.482,
        "duration": 0.089,
        "velocity": 1,
        "hand": "right"
      },
      {
        "midi": 54,
        "time": 193.75,
        "duration": 0.089,
        "velocity": 1,
        "hand": "left"
      },
      {
        "midi": 75,
        "time": 193.75,
        "duration": 0.089,
        "velocity": 1,
        "hand": "right"
      },
      {
        "midi": 84,
        "time": 193.661,
        "duration": 0.089,
        "velocity": 1,
        "hand": "right"
      },
      {
        "midi": 51,
        "time": 193.839,
        "duration": 0.089,
        "velocity": 1,
        "hand": "left"
      },
      {
        "midi": 78,
        "time": 193.839,
        "duration": 0.089,
        "velocity": 1,
        "hand": "right"
      },
      {
        "midi": 44,
        "time": 193.929,
        "duration": 0.089,
        "velocity": 1,
        "hand": "left"
      },
      {
        "midi": 72,
        "time": 193.929,
        "duration": 0.089,
        "velocity": 1,
        "hand": "right"
      },
      {
        "midi": 84,
        "time": 194.018,
        "duration": 0.089,
        "velocity": 1,
        "hand": "right"
      },
      {
        "midi": 51,
        "time": 194.107,
        "duration": 0.089,
        "velocity": 1,
        "hand": "left"
      },
      {
        "midi": 75,
        "time": 194.107,
        "duration": 0.089,
        "velocity": 1,
        "hand": "right"
      },
      {
        "midi": 78,
        "time": 194.196,
        "duration": 0.089,
        "velocity": 1,
        "hand": "right"
      },
      {
        "midi": 60,
        "time": 194.286,
        "duration": 0.089,
        "velocity": 1,
        "hand": "right"
      },
      {
        "midi": 72,
        "time": 194.286,
        "duration": 0.089,
        "velocity": 1,
        "hand": "right"
      },
      {
        "midi": 84,
        "time": 194.375,
        "duration": 0.089,
        "velocity": 1,
        "hand": "right"
      },
      {
        "midi": 54,
        "time": 194.464,
        "duration": 0.089,
        "velocity": 1,
        "hand": "left"
      },
      {
        "midi": 75,
        "time": 194.464,
        "duration": 0.089,
        "velocity": 1,
        "hand": "right"
      },
      {
        "midi": 45,
        "time": 194.643,
        "duration": 0.089,
        "velocity": 1,
        "hand": "left"
      },
      {
        "midi": 72,
        "time": 194.643,
        "duration": 0.089,
        "velocity": 1,
        "hand": "right"
      },
      {
        "midi": 78,
        "time": 194.554,
        "duration": 0.089,
        "velocity": 1,
        "hand": "right"
      },
      {
        "midi": 51,
        "time": 194.821,
        "duration": 0.089,
        "velocity": 1,
        "hand": "left"
      },
      {
        "midi": 75,
        "time": 194.821,
        "duration": 0.089,
        "velocity": 1,
        "hand": "right"
      },
      {
        "midi": 84,
        "time": 194.732,
        "duration": 0.089,
        "velocity": 1,
        "hand": "right"
      },
      {
        "midi": 54,
        "time": 194.911,
        "duration": 0.089,
        "velocity": 1,
        "hand": "left"
      },
      {
        "midi": 71,
        "time": 195,
        "duration": 0.089,
        "velocity": 1,
        "hand": "right"
      },
      {
        "midi": 78,
        "time": 194.911,
        "duration": 0.089,
        "velocity": 1,
        "hand": "right"
      },
      {
        "midi": 83,
        "time": 195.089,
        "duration": 0.089,
        "velocity": 1,
        "hand": "right"
      },
      {
        "midi": 51,
        "time": 195.268,
        "duration": 0.089,
        "velocity": 1,
        "hand": "left"
      },
      {
        "midi": 75,
        "time": 195.179,
        "duration": 0.089,
        "velocity": 1,
        "hand": "right"
      },
      {
        "midi": 78,
        "time": 195.268,
        "duration": 0.089,
        "velocity": 1,
        "hand": "right"
      },
      {
        "midi": 46,
        "time": 195.357,
        "duration": 0.089,
        "velocity": 1,
        "hand": "left"
      },
      {
        "midi": 71,
        "time": 195.357,
        "duration": 0.089,
        "velocity": 1,
        "hand": "right"
      },
      {
        "midi": 83,
        "time": 195.446,
        "duration": 0.089,
        "velocity": 1,
        "hand": "right"
      },
      {
        "midi": 51,
        "time": 195.536,
        "duration": 0.089,
        "velocity": 1,
        "hand": "left"
      },
      {
        "midi": 75,
        "time": 195.536,
        "duration": 0.089,
        "velocity": 1,
        "hand": "right"
      },
      {
        "midi": 78,
        "time": 195.625,
        "duration": 0.089,
        "velocity": 1,
        "hand": "right"
      },
      {
        "midi": 58,
        "time": 195.714,
        "duration": 0.089,
        "velocity": 1,
        "hand": "left"
      },
      {
        "midi": 70,
        "time": 195.714,
        "duration": 0.089,
        "velocity": 1,
        "hand": "right"
      },
      {
        "midi": 54,
        "time": 195.893,
        "duration": 0.089,
        "velocity": 1,
        "hand": "left"
      },
      {
        "midi": 75,
        "time": 195.893,
        "duration": 0.089,
        "velocity": 1,
        "hand": "right"
      },
      {
        "midi": 82,
        "time": 195.804,
        "duration": 0.089,
        "velocity": 1,
        "hand": "right"
      },
      {
        "midi": 48,
        "time": 196.071,
        "duration": 0.089,
        "velocity": 1,
        "hand": "left"
      },
      {
        "midi": 70,
        "time": 196.071,
        "duration": 0.089,
        "velocity": 1,
        "hand": "right"
      },
      {
        "midi": 78,
        "time": 195.982,
        "duration": 0.089,
        "velocity": 1,
        "hand": "right"
      },
      {
        "midi": 51,
        "time": 196.25,
        "duration": 0.089,
        "velocity": 1,
        "hand": "left"
      },
      {
        "midi": 75,
        "time": 196.25,
        "duration": 0.089,
        "velocity": 1,
        "hand": "right"
      },
      {
        "midi": 82,
        "time": 196.161,
        "duration": 0.089,
        "velocity": 1,
        "hand": "right"
      },
      {
        "midi": 54,
        "time": 196.339,
        "duration": 0.089,
        "velocity": 1,
        "hand": "left"
      },
      {
        "midi": 78,
        "time": 196.339,
        "duration": 0.089,
        "velocity": 1,
        "hand": "right"
      },
      {
        "midi": 57,
        "time": 196.429,
        "duration": 0.089,
        "velocity": 1,
        "hand": "left"
      },
      {
        "midi": 69,
        "time": 196.429,
        "duration": 0.089,
        "velocity": 1,
        "hand": "right"
      },
      {
        "midi": 81,
        "time": 196.518,
        "duration": 0.089,
        "velocity": 1,
        "hand": "right"
      },
      {
        "midi": 51,
        "time": 196.696,
        "duration": 0.089,
        "velocity": 1,
        "hand": "left"
      },
      {
        "midi": 75,
        "time": 196.607,
        "duration": 0.089,
        "velocity": 1,
        "hand": "right"
      },
      {
        "midi": 78,
        "time": 196.696,
        "duration": 0.089,
        "velocity": 1,
        "hand": "right"
      },
      {
        "midi": 48,
        "time": 196.786,
        "duration": 0.089,
        "velocity": 1,
        "hand": "left"
      },
      {
        "midi": 69,
        "time": 196.786,
        "duration": 0.089,
        "velocity": 1,
        "hand": "right"
      },
      {
        "midi": 81,
        "time": 196.875,
        "duration": 0.089,
        "velocity": 1,
        "hand": "right"
      },
      {
        "midi": 51,
        "time": 196.964,
        "duration": 0.089,
        "velocity": 1,
        "hand": "left"
      },
      {
        "midi": 75,
        "time": 196.964,
        "duration": 0.089,
        "velocity": 1,
        "hand": "right"
      },
      {
        "midi": 54,
        "time": 197.054,
        "duration": 0.089,
        "velocity": 1,
        "hand": "left"
      },
      {
        "midi": 69,
        "time": 197.143,
        "duration": 0.089,
        "velocity": 1,
        "hand": "right"
      },
      {
        "midi": 78,
        "time": 197.054,
        "duration": 0.089,
        "velocity": 1,
        "hand": "right"
      },
      {
        "midi": 54,
        "time": 197.321,
        "duration": 0.089,
        "velocity": 1,
        "hand": "left"
      },
      {
        "midi": 75,
        "time": 197.321,
        "duration": 0.089,
        "velocity": 1,
        "hand": "right"
      },
      {
        "midi": 81,
        "time": 197.232,
        "duration": 0.089,
        "velocity": 1,
        "hand": "right"
      },
      {
        "midi": 45,
        "time": 197.5,
        "duration": 0.089,
        "velocity": 1,
        "hand": "left"
      },
      {
        "midi": 72,
        "time": 197.5,
        "duration": 0.089,
        "velocity": 1,
        "hand": "right"
      },
      {
        "midi": 78,
        "time": 197.411,
        "duration": 0.089,
        "velocity": 1,
        "hand": "right"
      },
      {
        "midi": 84,
        "time": 197.589,
        "duration": 0.089,
        "velocity": 1,
        "hand": "right"
      },
      {
        "midi": 51,
        "time": 197.679,
        "duration": 0.089,
        "velocity": 1,
        "hand": "left"
      },
      {
        "midi": 75,
        "time": 197.679,
        "duration": 0.089,
        "velocity": 1,
        "hand": "right"
      },
      {
        "midi": 78,
        "time": 197.768,
        "duration": 0.089,
        "velocity": 1,
        "hand": "right"
      },
      {
        "midi": 59,
        "time": 197.857,
        "duration": 0.089,
        "velocity": 1,
        "hand": "left"
      },
      {
        "midi": 71,
        "time": 197.857,
        "duration": 0.089,
        "velocity": 1,
        "hand": "right"
      },
      {
        "midi": 83,
        "time": 197.946,
        "duration": 0.089,
        "velocity": 1,
        "hand": "right"
      },
      {
        "midi": 51,
        "time": 198.125,
        "duration": 0.089,
        "velocity": 1,
        "hand": "left"
      },
      {
        "midi": 75,
        "time": 198.036,
        "duration": 0.089,
        "velocity": 1,
        "hand": "right"
      },
      {
        "midi": 78,
        "time": 198.125,
        "duration": 0.089,
        "velocity": 1,
        "hand": "right"
      },
      {
        "midi": 46,
        "time": 198.214,
        "duration": 0.089,
        "velocity": 1,
        "hand": "left"
      },
      {
        "midi": 71,
        "time": 198.214,
        "duration": 0.089,
        "velocity": 1,
        "hand": "right"
      },
      {
        "midi": 51,
        "time": 198.393,
        "duration": 0.089,
        "velocity": 1,
        "hand": "left"
      },
      {
        "midi": 75,
        "time": 198.393,
        "duration": 0.089,
        "velocity": 1,
        "hand": "right"
      },
      {
        "midi": 83,
        "time": 198.304,
        "duration": 0.089,
        "velocity": 1,
        "hand": "right"
      },
      {
        "midi": 54,
        "time": 198.482,
        "duration": 0.089,
        "velocity": 1,
        "hand": "left"
      },
      {
        "midi": 70,
        "time": 198.571,
        "duration": 0.089,
        "velocity": 1,
        "hand": "right"
      },
      {
        "midi": 78,
        "time": 198.482,
        "duration": 0.089,
        "velocity": 1,
        "hand": "right"
      },
      {
        "midi": 54,
        "time": 198.75,
        "duration": 0.089,
        "velocity": 1,
        "hand": "left"
      },
      {
        "midi": 75,
        "time": 198.75,
        "duration": 0.089,
        "velocity": 1,
        "hand": "right"
      },
      {
        "midi": 82,
        "time": 198.661,
        "duration": 0.089,
        "velocity": 1,
        "hand": "right"
      },
      {
        "midi": 51,
        "time": 198.839,
        "duration": 0.089,
        "velocity": 1,
        "hand": "left"
      },
      {
        "midi": 78,
        "time": 198.839,
        "duration": 0.089,
        "velocity": 1,
        "hand": "right"
      },
      {
        "midi": 47,
        "time": 198.929,
        "duration": 0.089,
        "velocity": 1,
        "hand": "left"
      },
      {
        "midi": 70,
        "time": 198.929,
        "duration": 0.089,
        "velocity": 1,
        "hand": "right"
      },
      {
        "midi": 82,
        "time": 199.018,
        "duration": 0.089,
        "velocity": 1,
        "hand": "right"
      },
      {
        "midi": 51,
        "time": 199.107,
        "duration": 0.089,
        "velocity": 1,
        "hand": "left"
      },
      {
        "midi": 75,
        "time": 199.107,
        "duration": 0.089,
        "velocity": 1,
        "hand": "right"
      },
      {
        "midi": 78,
        "time": 199.196,
        "duration": 0.089,
        "velocity": 1,
        "hand": "right"
      },
      {
        "midi": 57,
        "time": 199.286,
        "duration": 0.089,
        "velocity": 1,
        "hand": "left"
      },
      {
        "midi": 69,
        "time": 199.286,
        "duration": 0.089,
        "velocity": 1,
        "hand": "right"
      },
      {
        "midi": 81,
        "time": 199.375,
        "duration": 0.089,
        "velocity": 1,
        "hand": "right"
      },
      {
        "midi": 54,
        "time": 199.464,
        "duration": 0.089,
        "velocity": 1,
        "hand": "left"
      },
      {
        "midi": 75,
        "time": 199.464,
        "duration": 0.089,
        "velocity": 1,
        "hand": "right"
      },
      {
        "midi": 48,
        "time": 199.643,
        "duration": 0.089,
        "velocity": 1,
        "hand": "left"
      },
      {
        "midi": 69,
        "time": 199.643,
        "duration": 0.089,
        "velocity": 1,
        "hand": "right"
      },
      {
        "midi": 78,
        "time": 199.554,
        "duration": 0.089,
        "velocity": 1,
        "hand": "right"
      },
      {
        "midi": 51,
        "time": 199.821,
        "duration": 0.089,
        "velocity": 1,
        "hand": "left"
      },
      {
        "midi": 75,
        "time": 199.821,
        "duration": 0.089,
        "velocity": 1,
        "hand": "right"
      },
      {
        "midi": 81,
        "time": 199.732,
        "duration": 0.089,
        "velocity": 1,
        "hand": "right"
      },
      {
        "midi": 54,
        "time": 199.911,
        "duration": 0.089,
        "velocity": 1,
        "hand": "left"
      },
      {
        "midi": 68,
        "time": 200,
        "duration": 0.089,
        "velocity": 1,
        "hand": "right"
      },
      {
        "midi": 78,
        "time": 199.911,
        "duration": 0.089,
        "velocity": 1,
        "hand": "right"
      },
      {
        "midi": 80,
        "time": 200.089,
        "duration": 0.089,
        "velocity": 1,
        "hand": "right"
      },
      {
        "midi": 51,
        "time": 200.268,
        "duration": 0.089,
        "velocity": 1,
        "hand": "left"
      },
      {
        "midi": 75,
        "time": 200.179,
        "duration": 0.089,
        "velocity": 1,
        "hand": "right"
      },
      {
        "midi": 78,
        "time": 200.268,
        "duration": 0.089,
        "velocity": 1,
        "hand": "right"
      },
      {
        "midi": 49,
        "time": 200.357,
        "duration": 0.089,
        "velocity": 1,
        "hand": "left"
      },
      {
        "midi": 68,
        "time": 200.446,
        "duration": 0.089,
        "velocity": 1,
        "hand": "right"
      },
      {
        "midi": 56,
        "time": 200.536,
        "duration": 0.089,
        "velocity": 1,
        "hand": "left"
      },
      {
        "midi": 68,
        "time": 200.625,
        "duration": 0.089,
        "velocity": 1,
        "hand": "right"
      },
      {
        "midi": 69,
        "time": 200.536,
        "duration": 0.089,
        "velocity": 1,
        "hand": "right"
      },
      {
        "midi": 64,
        "time": 200.714,
        "duration": 0.089,
        "velocity": 1,
        "hand": "right"
      },
      {
        "midi": 67,
        "time": 200.714,
        "duration": 0.089,
        "velocity": 1,
        "hand": "right"
      },
      {
        "midi": 61,
        "time": 200.893,
        "duration": 0.089,
        "velocity": 1,
        "hand": "right"
      },
      {
        "midi": 68,
        "time": 200.804,
        "duration": 0.089,
        "velocity": 1,
        "hand": "right"
      },
      {
        "midi": 73,
        "time": 200.893,
        "duration": 0.089,
        "velocity": 1,
        "hand": "right"
      },
      {
        "midi": 52,
        "time": 201.071,
        "duration": 0.089,
        "velocity": 1,
        "hand": "left"
      },
      {
        "midi": 75,
        "time": 201.071,
        "duration": 0.089,
        "velocity": 1,
        "hand": "right"
      },
      {
        "midi": 76,
        "time": 200.982,
        "duration": 0.089,
        "velocity": 1,
        "hand": "right"
      },
      {
        "midi": 56,
        "time": 201.25,
        "duration": 0.089,
        "velocity": 1,
        "hand": "left"
      },
      {
        "midi": 73,
        "time": 201.161,
        "duration": 0.089,
        "velocity": 1,
        "hand": "right"
      },
      {
        "midi": 75,
        "time": 201.25,
        "duration": 0.089,
        "velocity": 1,
        "hand": "right"
      },
      {
        "midi": 61,
        "time": 201.339,
        "duration": 0.089,
        "velocity": 1,
        "hand": "right"
      },
      {
        "midi": 73,
        "time": 201.339,
        "duration": 0.089,
        "velocity": 1,
        "hand": "right"
      },
      {
        "midi": 64,
        "time": 201.429,
        "duration": 0.089,
        "velocity": 1,
        "hand": "right"
      },
      {
        "midi": 72,
        "time": 201.429,
        "duration": 0.089,
        "velocity": 1,
        "hand": "right"
      },
      {
        "midi": 73,
        "time": 201.518,
        "duration": 0.089,
        "velocity": 1,
        "hand": "right"
      },
      {
        "midi": 56,
        "time": 201.696,
        "duration": 0.089,
        "velocity": 1,
        "hand": "left"
      },
      {
        "midi": 76,
        "time": 201.607,
        "duration": 0.089,
        "velocity": 1,
        "hand": "right"
      },
      {
        "midi": 80,
        "time": 201.696,
        "duration": 0.089,
        "velocity": 1,
        "hand": "right"
      },
      {
        "midi": 49,
        "time": 201.786,
        "duration": 0.089,
        "velocity": 1,
        "hand": "left"
      },
      {
        "midi": 68,
        "time": 201.875,
        "duration": 0.089,
        "velocity": 1,
        "hand": "right"
      },
      {
        "midi": 56,
        "time": 201.964,
        "duration": 0.089,
        "velocity": 1,
        "hand": "left"
      },
      {
        "midi": 69,
        "time": 201.964,
        "duration": 0.089,
        "velocity": 1,
        "hand": "right"
      },
      {
        "midi": 61,
        "time": 202.054,
        "duration": 0.089,
        "velocity": 1,
        "hand": "right"
      },
      {
        "midi": 67,
        "time": 202.143,
        "duration": 0.089,
        "velocity": 1,
        "hand": "right"
      },
      {
        "midi": 68,
        "time": 202.054,
        "duration": 0.089,
        "velocity": 1,
        "hand": "right"
      },
      {
        "midi": 61,
        "time": 202.321,
        "duration": 0.089,
        "velocity": 1,
        "hand": "right"
      },
      {
        "midi": 68,
        "time": 202.232,
        "duration": 0.089,
        "velocity": 1,
        "hand": "right"
      },
      {
        "midi": 73,
        "time": 202.321,
        "duration": 0.089,
        "velocity": 1,
        "hand": "right"
      },
      {
        "midi": 52,
        "time": 202.5,
        "duration": 0.089,
        "velocity": 1,
        "hand": "left"
      },
      {
        "midi": 75,
        "time": 202.5,
        "duration": 0.089,
        "velocity": 1,
        "hand": "right"
      },
      {
        "midi": 76,
        "time": 202.411,
        "duration": 0.089,
        "velocity": 1,
        "hand": "right"
      },
      {
        "midi": 73,
        "time": 202.589,
        "duration": 0.089,
        "velocity": 1,
        "hand": "right"
      },
      {
        "midi": 56,
        "time": 202.679,
        "duration": 0.089,
        "velocity": 1,
        "hand": "left"
      },
      {
        "midi": 73,
        "time": 202.768,
        "duration": 0.089,
        "velocity": 1,
        "hand": "right"
      },
      {
        "midi": 75,
        "time": 202.679,
        "duration": 0.089,
        "velocity": 1,
        "hand": "right"
      },
      {
        "midi": 64,
        "time": 202.857,
        "duration": 0.089,
        "velocity": 1,
        "hand": "right"
      },
      {
        "midi": 72,
        "time": 202.857,
        "duration": 0.089,
        "velocity": 1,
        "hand": "right"
      },
      {
        "midi": 73,
        "time": 202.946,
        "duration": 0.089,
        "velocity": 1,
        "hand": "right"
      },
      {
        "midi": 56,
        "time": 203.125,
        "duration": 0.089,
        "velocity": 1,
        "hand": "left"
      },
      {
        "midi": 76,
        "time": 203.036,
        "duration": 0.089,
        "velocity": 1,
        "hand": "right"
      },
      {
        "midi": 80,
        "time": 203.125,
        "duration": 0.089,
        "velocity": 1,
        "hand": "right"
      },
      {
        "midi": 51,
        "time": 203.214,
        "duration": 0.089,
        "velocity": 1,
        "hand": "left"
      },
      {
        "midi": 57,
        "time": 203.393,
        "duration": 0.089,
        "velocity": 1,
        "hand": "left"
      },
      {
        "midi": 69,
        "time": 203.304,
        "duration": 0.089,
        "velocity": 1,
        "hand": "right"
      },
      {
        "midi": 73,
        "time": 203.393,
        "duration": 0.089,
        "velocity": 1,
        "hand": "right"
      },
      {
        "midi": 61,
        "time": 203.482,
        "duration": 0.089,
        "velocity": 1,
        "hand": "right"
      },
      {
        "midi": 75,
        "time": 203.482,
        "duration": 0.089,
        "velocity": 1,
        "hand": "right"
      },
      {
        "midi": 78,
        "time": 203.571,
        "duration": 0.089,
        "velocity": 1,
        "hand": "right"
      },
      {
        "midi": 61,
        "time": 203.75,
        "duration": 0.089,
        "velocity": 1,
        "hand": "right"
      },
      {
        "midi": 81,
        "time": 203.661,
        "duration": 0.089,
        "velocity": 1,
        "hand": "right"
      },
      {
        "midi": 85,
        "time": 203.75,
        "duration": 0.089,
        "velocity": 1,
        "hand": "right"
      },
      {
        "midi": 57,
        "time": 203.839,
        "duration": 0.089,
        "velocity": 1,
        "hand": "left"
      },
      {
        "midi": 87,
        "time": 203.839,
        "duration": 0.089,
        "velocity": 1,
        "hand": "right"
      },
      {
        "midi": 54,
        "time": 203.929,
        "duration": 0.089,
        "velocity": 1,
        "hand": "left"
      },
      {
        "midi": 93,
        "time": 204.018,
        "duration": 0.089,
        "velocity": 1,
        "hand": "right"
      },
      {
        "midi": 95,
        "time": 203.929,
        "duration": 0.089,
        "velocity": 1,
        "hand": "right"
      },
      {
        "midi": 61,
        "time": 204.107,
        "duration": 0.089,
        "velocity": 1,
        "hand": "right"
      },
      {
        "midi": 90,
        "time": 204.196,
        "duration": 0.089,
        "velocity": 1,
        "hand": "right"
      },
      {
        "midi": 92,
        "time": 204.107,
        "duration": 0.089,
        "velocity": 1,
        "hand": "right"
      },
      {
        "midi": 69,
        "time": 204.286,
        "duration": 0.089,
        "velocity": 1,
        "hand": "right"
      },
      {
        "midi": 87,
        "time": 204.375,
        "duration": 0.089,
        "velocity": 1,
        "hand": "right"
      },
      {
        "midi": 88,
        "time": 204.286,
        "duration": 0.089,
        "velocity": 1,
        "hand": "right"
      },
      {
        "midi": 63,
        "time": 204.464,
        "duration": 0.089,
        "velocity": 1,
        "hand": "right"
      },
      {
        "midi": 90,
        "time": 204.464,
        "duration": 0.089,
        "velocity": 1,
        "hand": "right"
      },
      {
        "midi": 44,
        "time": 204.643,
        "duration": 0.089,
        "velocity": 1,
        "hand": "left"
      },
      {
        "midi": 84,
        "time": 204.643,
        "duration": 0.089,
        "velocity": 1,
        "hand": "right"
      },
      {
        "midi": 85,
        "time": 204.554,
        "duration": 0.089,
        "velocity": 1,
        "hand": "right"
      },
      {
        "midi": 51,
        "time": 204.821,
        "duration": 0.089,
        "velocity": 1,
        "hand": "left"
      },
      {
        "midi": 81,
        "time": 204.821,
        "duration": 0.089,
        "velocity": 1,
        "hand": "right"
      },
      {
        "midi": 87,
        "time": 204.732,
        "duration": 0.089,
        "velocity": 1,
        "hand": "right"
      },
      {
        "midi": 54,
        "time": 204.911,
        "duration": 0.089,
        "velocity": 1,
        "hand": "left"
      },
      {
        "midi": 78,
        "time": 205,
        "duration": 0.089,
        "velocity": 1,
        "hand": "right"
      },
      {
        "midi": 80,
        "time": 204.911,
        "duration": 0.089,
        "velocity": 1,
        "hand": "right"
      },
      {
        "midi": 81,
        "time": 205.089,
        "duration": 0.089,
        "velocity": 1,
        "hand": "right"
      },
      {
        "midi": 51,
        "time": 205.268,
        "duration": 0.089,
        "velocity": 1,
        "hand": "left"
      },
      {
        "midi": 75,
        "time": 205.268,
        "duration": 0.089,
        "velocity": 1,
        "hand": "right"
      },
      {
        "midi": 76,
        "time": 205.179,
        "duration": 0.089,
        "velocity": 1,
        "hand": "right"
      },
      {
        "midi": 44,
        "time": 205.357,
        "duration": 0.089,
        "velocity": 1,
        "hand": "left"
      },
      {
        "midi": 73,
        "time": 205.446,
        "duration": 0.089,
        "velocity": 1,
        "hand": "right"
      },
      {
        "midi": 78,
        "time": 205.357,
        "duration": 0.089,
        "velocity": 1,
        "hand": "right"
      },
      {
        "midi": 51,
        "time": 205.536,
        "duration": 0.089,
        "velocity": 1,
        "hand": "left"
      },
      {
        "midi": 72,
        "time": 205.536,
        "duration": 0.089,
        "velocity": 1,
        "hand": "right"
      },
      {
        "midi": 75,
        "time": 205.625,
        "duration": 0.089,
        "velocity": 1,
        "hand": "right"
      },
      {
        "midi": 60,
        "time": 205.714,
        "duration": 0.089,
        "velocity": 1,
        "hand": "right"
      },
      {
        "midi": 69,
        "time": 205.714,
        "duration": 0.089,
        "velocity": 1,
        "hand": "right"
      },
      {
        "midi": 54,
        "time": 205.893,
        "duration": 0.089,
        "velocity": 1,
        "hand": "left"
      },
      {
        "midi": 68,
        "time": 205.804,
        "duration": 0.089,
        "velocity": 1,
        "hand": "right"
      },
      {
        "midi": 71,
        "time": 205.893,
        "duration": 0.089,
        "velocity": 1,
        "hand": "right"
      },
      {
        "midi": 49,
        "time": 206.071,
        "duration": 0.089,
        "velocity": 1,
        "hand": "left"
      },
      {
        "midi": 51,
        "time": 205.982,
        "duration": 0.089,
        "velocity": 1,
        "hand": "left"
      },
      {
        "midi": 69,
        "time": 205.982,
        "duration": 0.179,
        "velocity": 1,
        "hand": "right"
      },
      {
        "midi": 56,
        "time": 206.25,
        "duration": 0.089,
        "velocity": 1,
        "hand": "left"
      },
      {
        "midi": 68,
        "time": 206.161,
        "duration": 0.089,
        "velocity": 1,
        "hand": "right"
      },
      {
        "midi": 69,
        "time": 206.25,
        "duration": 0.089,
        "velocity": 1,
        "hand": "right"
      },
      {
        "midi": 61,
        "time": 206.339,
        "duration": 0.089,
        "velocity": 1,
        "hand": "right"
      },
      {
        "midi": 68,
        "time": 206.339,
        "duration": 0.089,
        "velocity": 1,
        "hand": "right"
      },
      {
        "midi": 64,
        "time": 206.429,
        "duration": 0.089,
        "velocity": 1,
        "hand": "right"
      },
      {
        "midi": 67,
        "time": 206.429,
        "duration": 0.089,
        "velocity": 1,
        "hand": "right"
      },
      {
        "midi": 68,
        "time": 206.518,
        "duration": 0.089,
        "velocity": 1,
        "hand": "right"
      },
      {
        "midi": 56,
        "time": 206.696,
        "duration": 0.089,
        "velocity": 1,
        "hand": "left"
      },
      {
        "midi": 73,
        "time": 206.607,
        "duration": 0.089,
        "velocity": 1,
        "hand": "right"
      },
      {
        "midi": 76,
        "time": 206.696,
        "duration": 0.089,
        "velocity": 1,
        "hand": "right"
      },
      {
        "midi": 52,
        "time": 206.786,
        "duration": 0.089,
        "velocity": 1,
        "hand": "left"
      },
      {
        "midi": 73,
        "time": 206.875,
        "duration": 0.089,
        "velocity": 1,
        "hand": "right"
      },
      {
        "midi": 75,
        "time": 206.786,
        "duration": 0.089,
        "velocity": 1,
        "hand": "right"
      },
      {
        "midi": 56,
        "time": 206.964,
        "duration": 0.089,
        "velocity": 1,
        "hand": "left"
      },
      {
        "midi": 75,
        "time": 206.964,
        "duration": 0.089,
        "velocity": 1,
        "hand": "right"
      },
      {
        "midi": 61,
        "time": 207.054,
        "duration": 0.089,
        "velocity": 1,
        "hand": "right"
      },
      {
        "midi": 72,
        "time": 207.143,
        "duration": 0.089,
        "velocity": 1,
        "hand": "right"
      },
      {
        "midi": 73,
        "time": 207.054,
        "duration": 0.089,
        "velocity": 1,
        "hand": "right"
      },
      {
        "midi": 61,
        "time": 207.321,
        "duration": 0.089,
        "velocity": 1,
        "hand": "right"
      },
      {
        "midi": 73,
        "time": 207.232,
        "duration": 0.089,
        "velocity": 1,
        "hand": "right"
      },
      {
        "midi": 76,
        "time": 207.321,
        "duration": 0.089,
        "velocity": 1,
        "hand": "right"
      },
      {
        "midi": 54,
        "time": 207.5,
        "duration": 0.089,
        "velocity": 1,
        "hand": "left"
      },
      {
        "midi": 76,
        "time": 207.5,
        "duration": 0.089,
        "velocity": 1,
        "hand": "right"
      },
      {
        "midi": 80,
        "time": 207.411,
        "duration": 0.089,
        "velocity": 1,
        "hand": "right"
      },
      {
        "midi": 75,
        "time": 207.589,
        "duration": 0.089,
        "velocity": 1,
        "hand": "right"
      },
      {
        "midi": 61,
        "time": 207.679,
        "duration": 0.089,
        "velocity": 1,
        "hand": "right"
      },
      {
        "midi": 75,
        "time": 207.768,
        "duration": 0.089,
        "velocity": 1,
        "hand": "right"
      },
      {
        "midi": 76,
        "time": 207.679,
        "duration": 0.089,
        "velocity": 1,
        "hand": "right"
      },
      {
        "midi": 69,
        "time": 207.857,
        "duration": 0.089,
        "velocity": 1,
        "hand": "right"
      },
      {
        "midi": 74,
        "time": 207.857,
        "duration": 0.089,
        "velocity": 1,
        "hand": "right"
      },
      {
        "midi": 75,
        "time": 207.946,
        "duration": 0.089,
        "velocity": 1,
        "hand": "right"
      },
      {
        "midi": 61,
        "time": 208.125,
        "duration": 0.089,
        "velocity": 1,
        "hand": "right"
      },
      {
        "midi": 78,
        "time": 208.036,
        "duration": 0.089,
        "velocity": 1,
        "hand": "right"
      },
      {
        "midi": 81,
        "time": 208.125,
        "duration": 0.089,
        "velocity": 1,
        "hand": "right"
      },
      {
        "midi": 56,
        "time": 208.214,
        "duration": 0.089,
        "velocity": 1,
        "hand": "left"
      },
      {
        "midi": 78,
        "time": 208.214,
        "duration": 0.089,
        "velocity": 1,
        "hand": "right"
      },
      {
        "midi": 61,
        "time": 208.393,
        "duration": 0.089,
        "velocity": 1,
        "hand": "right"
      },
      {
        "midi": 77,
        "time": 208.304,
        "duration": 0.089,
        "velocity": 1,
        "hand": "right"
      },
      {
        "midi": 78,
        "time": 208.393,
        "duration": 0.089,
        "velocity": 1,
        "hand": "right"
      },
      {
        "midi": 65,
        "time": 208.482,
        "duration": 0.089,
        "velocity": 1,
        "hand": "right"
      },
      {
        "midi": 76,
        "time": 208.571,
        "duration": 0.089,
        "velocity": 1,
        "hand": "right"
      },
      {
        "midi": 77,
        "time": 208.482,
        "duration": 0.089,
        "velocity": 1,
        "hand": "right"
      },
      {
        "midi": 65,
        "time": 208.75,
        "duration": 0.089,
        "velocity": 1,
        "hand": "right"
      },
      {
        "midi": 77,
        "time": 208.661,
        "duration": 0.089,
        "velocity": 1,
        "hand": "right"
      },
      {
        "midi": 80,
        "time": 208.75,
        "duration": 0.089,
        "velocity": 1,
        "hand": "right"
      },
      {
        "midi": 61,
        "time": 208.839,
        "duration": 0.089,
        "velocity": 1,
        "hand": "right"
      },
      {
        "midi": 85,
        "time": 208.839,
        "duration": 0.089,
        "velocity": 1,
        "hand": "right"
      },
      {
        "midi": 57,
        "time": 208.929,
        "duration": 0.089,
        "velocity": 1,
        "hand": "left"
      },
      {
        "midi": 73,
        "time": 209.018,
        "duration": 0.089,
        "velocity": 1,
        "hand": "right"
      },
      {
        "midi": 61,
        "time": 209.107,
        "duration": 0.089,
        "velocity": 1,
        "hand": "right"
      },
      {
        "midi": 73,
        "time": 209.196,
        "duration": 0.089,
        "velocity": 1,
        "hand": "right"
      },
      {
        "midi": 74,
        "time": 209.107,
        "duration": 0.089,
        "velocity": 1,
        "hand": "right"
      },
      {
        "midi": 69,
        "time": 209.286,
        "duration": 0.089,
        "velocity": 1,
        "hand": "right"
      },
      {
        "midi": 72,
        "time": 209.286,
        "duration": 0.089,
        "velocity": 1,
        "hand": "right"
      },
      {
        "midi": 73,
        "time": 209.375,
        "duration": 0.089,
        "velocity": 1,
        "hand": "right"
      },
      {
        "midi": 66,
        "time": 209.464,
        "duration": 0.089,
        "velocity": 1,
        "hand": "right"
      },
      {
        "midi": 78,
        "time": 209.464,
        "duration": 0.089,
        "velocity": 1,
        "hand": "right"
      },
      {
        "midi": 56,
        "time": 209.643,
        "duration": 0.089,
        "velocity": 1,
        "hand": "left"
      },
      {
        "midi": 78,
        "time": 209.643,
        "duration": 0.089,
        "velocity": 1,
        "hand": "right"
      },
      {
        "midi": 81,
        "time": 209.554,
        "duration": 0.089,
        "velocity": 1,
        "hand": "right"
      },
      {
        "midi": 61,
        "time": 209.821,
        "duration": 0.089,
        "velocity": 1,
        "hand": "right"
      },
      {
        "midi": 77,
        "time": 209.732,
        "duration": 0.089,
        "velocity": 1,
        "hand": "right"
      },
      {
        "midi": 78,
        "time": 209.821,
        "duration": 0.089,
        "velocity": 1,
        "hand": "right"
      },
      {
        "midi": 65,
        "time": 209.911,
        "duration": 0.089,
        "velocity": 1,
        "hand": "right"
      },
      {
        "midi": 76,
        "time": 210,
        "duration": 0.089,
        "velocity": 1,
        "hand": "right"
      },
      {
        "midi": 77,
        "time": 209.911,
        "duration": 0.089,
        "velocity": 1,
        "hand": "right"
      },
      {
        "midi": 77,
        "time": 210.089,
        "duration": 0.089,
        "velocity": 1,
        "hand": "right"
      },
      {
        "midi": 61,
        "time": 210.268,
        "duration": 0.089,
        "velocity": 1,
        "hand": "right"
      },
      {
        "midi": 80,
        "time": 210.179,
        "duration": 0.089,
        "velocity": 1,
        "hand": "right"
      },
      {
        "midi": 85,
        "time": 210.268,
        "duration": 0.089,
        "velocity": 1,
        "hand": "right"
      },
      {
        "midi": 57,
        "time": 210.357,
        "duration": 0.089,
        "velocity": 1,
        "hand": "left"
      },
      {
        "midi": 78,
        "time": 210.446,
        "duration": 0.089,
        "velocity": 1,
        "hand": "right"
      },
      {
        "midi": 80,
        "time": 210.357,
        "duration": 0.089,
        "velocity": 1,
        "hand": "right"
      },
      {
        "midi": 61,
        "time": 210.536,
        "duration": 0.089,
        "velocity": 1,
        "hand": "right"
      },
      {
        "midi": 78,
        "time": 210.625,
        "duration": 0.089,
        "velocity": 1,
        "hand": "right"
      },
      {
        "midi": 80,
        "time": 210.536,
        "duration": 0.089,
        "velocity": 1,
        "hand": "right"
      },
      {
        "midi": 69,
        "time": 210.714,
        "duration": 0.089,
        "velocity": 1,
        "hand": "right"
      },
      {
        "midi": 77,
        "time": 210.714,
        "duration": 0.089,
        "velocity": 1,
        "hand": "right"
      },
      {
        "midi": 66,
        "time": 210.893,
        "duration": 0.089,
        "velocity": 1,
        "hand": "right"
      },
      {
        "midi": 78,
        "time": 210.804,
        "duration": 0.089,
        "velocity": 1,
        "hand": "right"
      },
      {
        "midi": 81,
        "time": 210.893,
        "duration": 0.089,
        "velocity": 1,
        "hand": "right"
      },
      {
        "midi": 48,
        "time": 211.071,
        "duration": 0.089,
        "velocity": 1,
        "hand": "left"
      },
      {
        "midi": 81,
        "time": 211.071,
        "duration": 0.089,
        "velocity": 1,
        "hand": "right"
      },
      {
        "midi": 85,
        "time": 210.982,
        "duration": 0.089,
        "velocity": 1,
        "hand": "right"
      },
      {
        "midi": 54,
        "time": 211.25,
        "duration": 0.089,
        "velocity": 1,
        "hand": "left"
      },
      {
        "midi": 80,
        "time": 211.161,
        "duration": 0.089,
        "velocity": 1,
        "hand": "right"
      },
      {
        "midi": 81,
        "time": 211.25,
        "duration": 0.089,
        "velocity": 1,
        "hand": "right"
      },
      {
        "midi": 56,
        "time": 211.339,
        "duration": 0.089,
        "velocity": 1,
        "hand": "left"
      },
      {
        "midi": 80,
        "time": 211.339,
        "duration": 0.089,
        "velocity": 1,
        "hand": "right"
      },
      {
        "midi": 63,
        "time": 211.429,
        "duration": 0.089,
        "velocity": 1,
        "hand": "right"
      },
      {
        "midi": 79,
        "time": 211.429,
        "duration": 0.089,
        "velocity": 1,
        "hand": "right"
      },
      {
        "midi": 80,
        "time": 211.518,
        "duration": 0.089,
        "velocity": 1,
        "hand": "right"
      },
      {
        "midi": 54,
        "time": 211.696,
        "duration": 0.089,
        "velocity": 1,
        "hand": "left"
      },
      {
        "midi": 84,
        "time": 211.607,
        "duration": 0.089,
        "velocity": 1,
        "hand": "right"
      },
      {
        "midi": 87,
        "time": 211.696,
        "duration": 0.089,
        "velocity": 1,
        "hand": "right"
      },
      {
        "midi": 49,
        "time": 211.786,
        "duration": 0.089,
        "velocity": 1,
        "hand": "left"
      },
      {
        "midi": 80,
        "time": 211.786,
        "duration": 0.089,
        "velocity": 1,
        "hand": "right"
      },
      {
        "midi": 81,
        "time": 211.875,
        "duration": 0.089,
        "velocity": 1,
        "hand": "right"
      },
      {
        "midi": 56,
        "time": 211.964,
        "duration": 0.089,
        "velocity": 1,
        "hand": "left"
      },
      {
        "midi": 80,
        "time": 211.964,
        "duration": 0.089,
        "velocity": 1,
        "hand": "right"
      },
      {
        "midi": 61,
        "time": 212.054,
        "duration": 0.089,
        "velocity": 1,
        "hand": "right"
      },
      {
        "midi": 79,
        "time": 212.054,
        "duration": 0.089,
        "velocity": 1,
        "hand": "right"
      },
      {
        "midi": 80,
        "time": 212.143,
        "duration": 0.089,
        "velocity": 1,
        "hand": "right"
      },
      {
        "midi": 61,
        "time": 212.321,
        "duration": 0.089,
        "velocity": 1,
        "hand": "right"
      },
      {
        "midi": 87,
        "time": 212.321,
        "duration": 0.089,
        "velocity": 1,
        "hand": "right"
      },
      {
        "midi": 88,
        "time": 212.232,
        "duration": 0.089,
        "velocity": 1,
        "hand": "right"
      },
      {
        "midi": 51,
        "time": 212.5,
        "duration": 0.089,
        "velocity": 1,
        "hand": "left"
      },
      {
        "midi": 85,
        "time": 212.5,
        "duration": 0.089,
        "velocity": 1,
        "hand": "right"
      },
      {
        "midi": 86,
        "time": 212.411,
        "duration": 0.089,
        "velocity": 1,
        "hand": "right"
      },
      {
        "midi": 84,
        "time": 212.589,
        "duration": 0.089,
        "velocity": 1,
        "hand": "right"
      },
      {
        "midi": 56,
        "time": 212.679,
        "duration": 0.089,
        "velocity": 1,
        "hand": "left"
      },
      {
        "midi": 82,
        "time": 212.768,
        "duration": 0.089,
        "velocity": 1,
        "hand": "right"
      },
      {
        "midi": 83,
        "time": 212.679,
        "duration": 0.089,
        "velocity": 1,
        "hand": "right"
      },
      {
        "midi": 66,
        "time": 212.857,
        "duration": 0.089,
        "velocity": 1,
        "hand": "right"
      },
      {
        "midi": 80,
        "time": 212.946,
        "duration": 0.089,
        "velocity": 1,
        "hand": "right"
      },
      {
        "midi": 81,
        "time": 212.857,
        "duration": 0.089,
        "velocity": 1,
        "hand": "right"
      },
      {
        "midi": 56,
        "time": 213.125,
        "duration": 0.089,
        "velocity": 1,
        "hand": "left"
      },
      {
        "midi": 78,
        "time": 213.125,
        "duration": 0.089,
        "velocity": 1,
        "hand": "right"
      },
      {
        "midi": 79,
        "time": 213.036,
        "duration": 0.089,
        "velocity": 1,
        "hand": "right"
      },
      {
        "midi": 49,
        "time": 213.214,
        "duration": 0.089,
        "velocity": 1,
        "hand": "left"
      },
      {
        "midi": 76,
        "time": 213.214,
        "duration": 0.089,
        "velocity": 1,
        "hand": "right"
      },
      {
        "midi": 56,
        "time": 213.393,
        "duration": 0.089,
        "velocity": 1,
        "hand": "left"
      },
      {
        "midi": 76,
        "time": 213.393,
        "duration": 0.089,
        "velocity": 1,
        "hand": "right"
      },
      {
        "midi": 78,
        "time": 213.304,
        "duration": 0.089,
        "velocity": 1,
        "hand": "right"
      },
      {
        "midi": 61,
        "time": 213.482,
        "duration": 0.089,
        "velocity": 1,
        "hand": "right"
      },
      {
        "midi": 75,
        "time": 213.482,
        "duration": 0.089,
        "velocity": 1,
        "hand": "right"
      },
      {
        "midi": 76,
        "time": 213.571,
        "duration": 0.089,
        "velocity": 1,
        "hand": "right"
      },
      {
        "midi": 61,
        "time": 213.75,
        "duration": 0.089,
        "velocity": 1,
        "hand": "right"
      },
      {
        "midi": 87,
        "time": 213.75,
        "duration": 0.089,
        "velocity": 1,
        "hand": "right"
      },
      {
        "midi": 88,
        "time": 213.661,
        "duration": 0.089,
        "velocity": 1,
        "hand": "right"
      },
      {
        "midi": 56,
        "time": 213.839,
        "duration": 0.089,
        "velocity": 1,
        "hand": "left"
      },
      {
        "midi": 86,
        "time": 213.839,
        "duration": 0.089,
        "velocity": 1,
        "hand": "right"
      },
      {
        "midi": 54,
        "time": 213.929,
        "duration": 0.089,
        "velocity": 1,
        "hand": "left"
      },
      {
        "midi": 84,
        "time": 214.018,
        "duration": 0.089,
        "velocity": 1,
        "hand": "right"
      },
      {
        "midi": 85,
        "time": 213.929,
        "duration": 0.089,
        "velocity": 1,
        "hand": "right"
      },
      {
        "midi": 61,
        "time": 214.107,
        "duration": 0.089,
        "velocity": 1,
        "hand": "right"
      },
      {
        "midi": 82,
        "time": 214.196,
        "duration": 0.089,
        "velocity": 1,
        "hand": "right"
      },
      {
        "midi": 83,
        "time": 214.107,
        "duration": 0.089,
        "velocity": 1,
        "hand": "right"
      },
      {
        "midi": 69,
        "time": 214.286,
        "duration": 0.089,
        "velocity": 1,
        "hand": "right"
      },
      {
        "midi": 80,
        "time": 214.375,
        "duration": 0.089,
        "velocity": 1,
        "hand": "right"
      },
      {
        "midi": 81,
        "time": 214.286,
        "duration": 0.089,
        "velocity": 1,
        "hand": "right"
      },
      {
        "midi": 63,
        "time": 214.464,
        "duration": 0.089,
        "velocity": 1,
        "hand": "right"
      },
      {
        "midi": 79,
        "time": 214.464,
        "duration": 0.089,
        "velocity": 1,
        "hand": "right"
      },
      {
        "midi": 56,
        "time": 214.643,
        "duration": 0.179,
        "velocity": 1,
        "hand": "left"
      },
      {
        "midi": 64,
        "time": 214.643,
        "duration": 0.179,
        "velocity": 1,
        "hand": "right"
      },
      {
        "midi": 80,
        "time": 214.643,
        "duration": 0.089,
        "velocity": 1,
        "hand": "right"
      },
      {
        "midi": 92,
        "time": 214.821,
        "duration": 0.089,
        "velocity": 1,
        "hand": "right"
      },
      {
        "midi": 90,
        "time": 215,
        "duration": 0.089,
        "velocity": 1,
        "hand": "right"
      },
      {
        "midi": 91,
        "time": 214.911,
        "duration": 0.089,
        "velocity": 1,
        "hand": "right"
      },
      {
        "midi": 89,
        "time": 215.089,
        "duration": 0.089,
        "velocity": 1,
        "hand": "right"
      },
      {
        "midi": 87,
        "time": 215.268,
        "duration": 0.089,
        "velocity": 1,
        "hand": "right"
      },
      {
        "midi": 88,
        "time": 215.179,
        "duration": 0.089,
        "velocity": 1,
        "hand": "right"
      },
      {
        "midi": 55,
        "time": 215.357,
        "duration": 0.357,
        "velocity": 1,
        "hand": "left"
      },
      {
        "midi": 69,
        "time": 215.357,
        "duration": 0.357,
        "velocity": 1,
        "hand": "right"
      },
      {
        "midi": 86,
        "time": 215.357,
        "duration": 0.089,
        "velocity": 1,
        "hand": "right"
      },
      {
        "midi": 83,
        "time": 215.625,
        "duration": 0.089,
        "velocity": 1,
        "hand": "right"
      },
      {
        "midi": 84,
        "time": 215.536,
        "duration": 0.089,
        "velocity": 1,
        "hand": "right"
      },
      {
        "midi": 82,
        "time": 215.714,
        "duration": 0.089,
        "velocity": 1,
        "hand": "right"
      },
      {
        "midi": 80,
        "time": 215.893,
        "duration": 0.089,
        "velocity": 1,
        "hand": "right"
      },
      {
        "midi": 81,
        "time": 215.804,
        "duration": 0.089,
        "velocity": 1,
        "hand": "right"
      },
      {
        "midi": 78,
        "time": 216.071,
        "duration": 0.089,
        "velocity": 1,
        "hand": "right"
      },
      {
        "midi": 79,
        "time": 215.982,
        "duration": 0.089,
        "velocity": 1,
        "hand": "right"
      },
      {
        "midi": 76,
        "time": 216.25,
        "duration": 0.089,
        "velocity": 1,
        "hand": "right"
      },
      {
        "midi": 77,
        "time": 216.161,
        "duration": 0.089,
        "velocity": 1,
        "hand": "right"
      },
      {
        "midi": 75,
        "time": 216.339,
        "duration": 0.089,
        "velocity": 1,
        "hand": "right"
      },
      {
        "midi": 73,
        "time": 216.518,
        "duration": 0.089,
        "velocity": 1,
        "hand": "right"
      },
      {
        "midi": 74,
        "time": 216.429,
        "duration": 0.089,
        "velocity": 1,
        "hand": "right"
      },
      {
        "midi": 71,
        "time": 216.696,
        "duration": 0.089,
        "velocity": 1,
        "hand": "right"
      },
      {
        "midi": 72,
        "time": 216.607,
        "duration": 0.089,
        "velocity": 1,
        "hand": "right"
      },
      {
        "midi": 69,
        "time": 216.875,
        "duration": 0.089,
        "velocity": 1,
        "hand": "right"
      },
      {
        "midi": 70,
        "time": 216.786,
        "duration": 0.089,
        "velocity": 1,
        "hand": "right"
      },
      {
        "midi": 68,
        "time": 216.964,
        "duration": 0.089,
        "velocity": 1,
        "hand": "right"
      },
      {
        "midi": 66,
        "time": 217.143,
        "duration": 0.089,
        "velocity": 1,
        "hand": "right"
      },
      {
        "midi": 67,
        "time": 217.054,
        "duration": 0.089,
        "velocity": 1,
        "hand": "right"
      },
      {
        "midi": 63,
        "time": 217.321,
        "duration": 0.089,
        "velocity": 1,
        "hand": "right"
      },
      {
        "midi": 64,
        "time": 217.232,
        "duration": 0.089,
        "velocity": 1,
        "hand": "right"
      },
      {
        "midi": 32,
        "time": 217.5,
        "duration": 0.179,
        "velocity": 1,
        "hand": "left"
      },
      {
        "midi": 56,
        "time": 217.5,
        "duration": 0.179,
        "velocity": 1,
        "hand": "left"
      },
      {
        "midi": 61,
        "time": 217.411,
        "duration": 0.089,
        "velocity": 1,
        "hand": "right"
      },
      {
        "midi": 64,
        "time": 217.857,
        "duration": 0.357,
        "velocity": 1,
        "hand": "right"
      },
      {
        "midi": 92,
        "time": 217.946,
        "duration": 0.089,
        "velocity": 1,
        "hand": "right"
      },
      {
        "midi": 93,
        "time": 217.857,
        "duration": 0.089,
        "velocity": 1,
        "hand": "right"
      },
      {
        "midi": 88,
        "time": 218.125,
        "duration": 0.089,
        "velocity": 1,
        "hand": "right"
      },
      {
        "midi": 100,
        "time": 218.036,
        "duration": 0.089,
        "velocity": 1,
        "hand": "right"
      },
      {
        "midi": 61,
        "time": 218.214,
        "duration": 0.357,
        "velocity": 1,
        "hand": "right"
      },
      {
        "midi": 73,
        "time": 218.214,
        "duration": 0.357,
        "velocity": 1,
        "hand": "right"
      },
      {
        "midi": 90,
        "time": 218.214,
        "duration": 0.089,
        "velocity": 1,
        "hand": "right"
      },
      {
        "midi": 88,
        "time": 218.304,
        "duration": 0.089,
        "velocity": 1,
        "hand": "right"
      },
      {
        "midi": 97,
        "time": 218.393,
        "duration": 0.089,
        "velocity": 1,
        "hand": "right"
      },
      {
        "midi": 56,
        "time": 218.571,
        "duration": 0.357,
        "velocity": 1,
        "hand": "left"
      },
      {
        "midi": 85,
        "time": 218.482,
        "duration": 0.089,
        "velocity": 1,
        "hand": "right"
      },
      {
        "midi": 87,
        "time": 218.571,
        "duration": 0.089,
        "velocity": 1,
        "hand": "right"
      },
      {
        "midi": 85,
        "time": 218.661,
        "duration": 0.089,
        "velocity": 1,
        "hand": "right"
      },
      {
        "midi": 92,
        "time": 218.75,
        "duration": 0.089,
        "velocity": 1,
        "hand": "right"
      },
      {
        "midi": 80,
        "time": 218.839,
        "duration": 0.089,
        "velocity": 1,
        "hand": "right"
      },
      {
        "midi": 52,
        "time": 218.929,
        "duration": 0.357,
        "velocity": 1,
        "hand": "left"
      },
      {
        "midi": 80,
        "time": 219.018,
        "duration": 0.089,
        "velocity": 1,
        "hand": "right"
      },
      {
        "midi": 81,
        "time": 218.929,
        "duration": 0.089,
        "velocity": 1,
        "hand": "right"
      },
      {
        "midi": 76,
        "time": 219.196,
        "duration": 0.089,
        "velocity": 1,
        "hand": "right"
      },
      {
        "midi": 88,
        "time": 219.107,
        "duration": 0.089,
        "velocity": 1,
        "hand": "right"
      },
      {
        "midi": 49,
        "time": 219.286,
        "duration": 0.357,
        "velocity": 1,
        "hand": "left"
      },
      {
        "midi": 76,
        "time": 219.375,
        "duration": 0.089,
        "velocity": 1,
        "hand": "right"
      },
      {
        "midi": 78,
        "time": 219.286,
        "duration": 0.089,
        "velocity": 1,
        "hand": "right"
      },
      {
        "midi": 85,
        "time": 219.464,
        "duration": 0.089,
        "velocity": 1,
        "hand": "right"
      },
      {
        "midi": 44,
        "time": 219.643,
        "duration": 0.357,
        "velocity": 1,
        "hand": "left"
      },
      {
        "midi": 73,
        "time": 219.554,
        "duration": 0.089,
        "velocity": 1,
        "hand": "right"
      },
      {
        "midi": 75,
        "time": 219.643,
        "duration": 0.089,
        "velocity": 1,
        "hand": "right"
      },
      {
        "midi": 73,
        "time": 219.732,
        "duration": 0.089,
        "velocity": 1,
        "hand": "right"
      },
      {
        "midi": 80,
        "time": 219.821,
        "duration": 0.089,
        "velocity": 1,
        "hand": "right"
      },
      {
        "midi": 40,
        "time": 220,
        "duration": 0.357,
        "velocity": 1,
        "hand": "left"
      },
      {
        "midi": 68,
        "time": 219.911,
        "duration": 0.089,
        "velocity": 1,
        "hand": "right"
      },
      {
        "midi": 69,
        "time": 220,
        "duration": 0.089,
        "velocity": 1,
        "hand": "right"
      },
      {
        "midi": 68,
        "time": 220.089,
        "duration": 0.089,
        "velocity": 1,
        "hand": "right"
      },
      {
        "midi": 64,
        "time": 220.268,
        "duration": 0.089,
        "velocity": 1,
        "hand": "right"
      },
      {
        "midi": 76,
        "time": 220.179,
        "duration": 0.089,
        "velocity": 1,
        "hand": "right"
      },
      {
        "midi": 37,
        "time": 220.357,
        "duration": 0.357,
        "velocity": 1,
        "hand": "left"
      },
      {
        "midi": 64,
        "time": 220.446,
        "duration": 0.089,
        "velocity": 1,
        "hand": "right"
      },
      {
        "midi": 66,
        "time": 220.357,
        "duration": 0.089,
        "velocity": 1,
        "hand": "right"
      },
      {
        "midi": 61,
        "time": 220.625,
        "duration": 0.089,
        "velocity": 1,
        "hand": "right"
      },
      {
        "midi": 73,
        "time": 220.536,
        "duration": 0.089,
        "velocity": 1,
        "hand": "right"
      },
      {
        "midi": 32,
        "time": 220.714,
        "duration": 0.357,
        "velocity": 1,
        "hand": "left"
      },
      {
        "midi": 44,
        "time": 220.714,
        "duration": 0.357,
        "velocity": 1,
        "hand": "left"
      },
      {
        "midi": 63,
        "time": 220.714,
        "duration": 0.089,
        "velocity": 1,
        "hand": "right"
      },
      {
        "midi": 61,
        "time": 220.804,
        "duration": 0.089,
        "velocity": 1,
        "hand": "right"
      },
      {
        "midi": 68,
        "time": 220.893,
        "duration": 0.089,
        "velocity": 1,
        "hand": "right"
      },
      {
        "midi": 32,
        "time": 221.071,
        "duration": 0.357,
        "velocity": 1,
        "hand": "left"
      },
      {
        "midi": 56,
        "time": 220.982,
        "duration": 0.089,
        "velocity": 1,
        "hand": "left"
      },
      {
        "midi": 63,
        "time": 221.071,
        "duration": 0.089,
        "velocity": 1,
        "hand": "right"
      },
      {
        "midi": 61,
        "time": 221.161,
        "duration": 0.089,
        "velocity": 1,
        "hand": "right"
      },
      {
        "midi": 68,
        "time": 221.25,
        "duration": 0.089,
        "velocity": 1,
        "hand": "right"
      },
      {
        "midi": 56,
        "time": 221.339,
        "duration": 0.089,
        "velocity": 1,
        "hand": "left"
      },
      {
        "midi": 33,
        "time": 221.429,
        "duration": 0.357,
        "velocity": 1,
        "hand": "left"
      },
      {
        "midi": 61,
        "time": 221.518,
        "duration": 0.089,
        "velocity": 1,
        "hand": "right"
      },
      {
        "midi": 63,
        "time": 221.429,
        "duration": 0.089,
        "velocity": 1,
        "hand": "right"
      },
      {
        "midi": 57,
        "time": 221.696,
        "duration": 0.089,
        "velocity": 1,
        "hand": "left"
      },
      {
        "midi": 69,
        "time": 221.607,
        "duration": 0.089,
        "velocity": 1,
        "hand": "right"
      },
      {
        "midi": 32,
        "time": 221.786,
        "duration": 0.357,
        "velocity": 1,
        "hand": "left"
      },
      {
        "midi": 61,
        "time": 221.875,
        "duration": 0.089,
        "velocity": 1,
        "hand": "right"
      },
      {
        "midi": 63,
        "time": 221.786,
        "duration": 0.089,
        "velocity": 1,
        "hand": "right"
      },
      {
        "midi": 68,
        "time": 221.964,
        "duration": 0.089,
        "velocity": 1,
        "hand": "right"
      },
      {
        "midi": 31,
        "time": 222.143,
        "duration": 0.357,
        "velocity": 1,
        "hand": "left"
      },
      {
        "midi": 56,
        "time": 222.054,
        "duration": 0.089,
        "velocity": 1,
        "hand": "left"
      },
      {
        "midi": 63,
        "time": 222.143,
        "duration": 0.089,
        "velocity": 1,
        "hand": "right"
      },
      {
        "midi": 61,
        "time": 222.232,
        "duration": 0.089,
        "velocity": 1,
        "hand": "right"
      },
      {
        "midi": 67,
        "time": 222.321,
        "duration": 0.089,
        "velocity": 1,
        "hand": "right"
      },
      {
        "midi": 32,
        "time": 222.5,
        "duration": 0.714,
        "velocity": 1,
        "hand": "left"
      },
      {
        "midi": 55,
        "time": 222.411,
        "duration": 0.089,
        "velocity": 1,
        "hand": "left"
      },
      {
        "midi": 63,
        "time": 222.5,
        "duration": 0.089,
        "velocity": 1,
        "hand": "right"
      },
      {
        "midi": 61,
        "time": 222.589,
        "duration": 0.089,
        "velocity": 1,
        "hand": "right"
      },
      {
        "midi": 56,
        "time": 222.768,
        "duration": 0.089,
        "velocity": 1,
        "hand": "left"
      },
      {
        "midi": 68,
        "time": 222.679,
        "duration": 0.089,
        "velocity": 1,
        "hand": "right"
      },
      {
        "midi": 60,
        "time": 222.946,
        "duration": 0.089,
        "velocity": 1,
        "hand": "right"
      },
      {
        "midi": 63,
        "time": 222.857,
        "duration": 0.089,
        "velocity": 1,
        "hand": "right"
      },
      {
        "midi": 56,
        "time": 223.125,
        "duration": 0.089,
        "velocity": 1,
        "hand": "left"
      },
      {
        "midi": 68,
        "time": 223.036,
        "duration": 0.089,
        "velocity": 1,
        "hand": "right"
      },
      {
        "midi": 37,
        "time": 223.214,
        "duration": 0.179,
        "velocity": 1,
        "hand": "left"
      },
      {
        "midi": 63,
        "time": 223.214,
        "duration": 0.089,
        "velocity": 1,
        "hand": "right"
      },
      {
        "midi": 52,
        "time": 223.393,
        "duration": 0.179,
        "velocity": 1,
        "hand": "left"
      },
      {
        "midi": 61,
        "time": 223.304,
        "duration": 0.089,
        "velocity": 1,
        "hand": "right"
      },
      {
        "midi": 68,
        "time": 223.393,
        "duration": 0.089,
        "velocity": 1,
        "hand": "right"
      },
      {
        "midi": 49,
        "time": 223.571,
        "duration": 0.179,
        "velocity": 1,
        "hand": "left"
      },
      {
        "midi": 56,
        "time": 223.482,
        "duration": 0.089,
        "velocity": 1,
        "hand": "left"
      },
      {
        "midi": 69,
        "time": 223.571,
        "duration": 0.089,
        "velocity": 1,
        "hand": "right"
      },
      {
        "midi": 44,
        "time": 223.75,
        "duration": 0.179,
        "velocity": 1,
        "hand": "left"
      },
      {
        "midi": 68,
        "time": 223.661,
        "duration": 0.089,
        "velocity": 1,
        "hand": "right"
      },
      {
        "midi": 76,
        "time": 223.75,
        "duration": 0.089,
        "velocity": 1,
        "hand": "right"
      },
      {
        "midi": 64,
        "time": 223.839,
        "duration": 0.089,
        "velocity": 1,
        "hand": "right"
      },
      {
        "midi": 37,
        "time": 223.929,
        "duration": 0.179,
        "velocity": 1,
        "hand": "left"
      },
      {
        "midi": 68,
        "time": 224.018,
        "duration": 0.089,
        "velocity": 1,
        "hand": "right"
      },
      {
        "midi": 69,
        "time": 223.929,
        "duration": 0.089,
        "velocity": 1,
        "hand": "right"
      },
      {
        "midi": 54,
        "time": 224.107,
        "duration": 0.179,
        "velocity": 1,
        "hand": "left"
      },
      {
        "midi": 64,
        "time": 224.196,
        "duration": 0.089,
        "velocity": 1,
        "hand": "right"
      },
      {
        "midi": 76,
        "time": 224.107,
        "duration": 0.089,
        "velocity": 1,
        "hand": "right"
      },
      {
        "midi": 48,
        "time": 224.286,
        "duration": 0.179,
        "velocity": 1,
        "hand": "left"
      },
      {
        "midi": 68,
        "time": 224.375,
        "duration": 0.089,
        "velocity": 1,
        "hand": "right"
      },
      {
        "midi": 69,
        "time": 224.286,
        "duration": 0.089,
        "velocity": 1,
        "hand": "right"
      },
      {
        "midi": 44,
        "time": 224.464,
        "duration": 0.179,
        "velocity": 1,
        "hand": "left"
      },
      {
        "midi": 75,
        "time": 224.464,
        "duration": 0.089,
        "velocity": 1,
        "hand": "right"
      },
      {
        "midi": 37,
        "time": 224.643,
        "duration": 0.179,
        "velocity": 1,
        "hand": "left"
      },
      {
        "midi": 63,
        "time": 224.554,
        "duration": 0.089,
        "velocity": 1,
        "hand": "right"
      },
      {
        "midi": 69,
        "time": 224.643,
        "duration": 0.089,
        "velocity": 1,
        "hand": "right"
      },
      {
        "midi": 52,
        "time": 224.821,
        "duration": 0.179,
        "velocity": 1,
        "hand": "left"
      },
      {
        "midi": 68,
        "time": 224.732,
        "duration": 0.089,
        "velocity": 1,
        "hand": "right"
      },
      {
        "midi": 75,
        "time": 224.821,
        "duration": 0.089,
        "velocity": 1,
        "hand": "right"
      },
      {
        "midi": 49,
        "time": 225,
        "duration": 0.179,
        "velocity": 1,
        "hand": "left"
      },
      {
        "midi": 63,
        "time": 224.911,
        "duration": 0.089,
        "velocity": 1,
        "hand": "right"
      },
      {
        "midi": 69,
        "time": 225,
        "duration": 0.089,
        "velocity": 1,
        "hand": "right"
      },
      {
        "midi": 68,
        "time": 225.089,
        "duration": 0.089,
        "velocity": 1,
        "hand": "right"
      },
      {
        "midi": 44,
        "time": 225.179,
        "duration": 0.179,
        "velocity": 1,
        "hand": "left"
      },
      {
        "midi": 61,
        "time": 225.268,
        "duration": 0.089,
        "velocity": 1,
        "hand": "right"
      },
      {
        "midi": 73,
        "time": 225.179,
        "duration": 0.089,
        "velocity": 1,
        "hand": "right"
      },
      {
        "midi": 37,
        "time": 225.357,
        "duration": 0.179,
        "velocity": 1,
        "hand": "left"
      },
      {
        "midi": 63,
        "time": 225.446,
        "duration": 0.089,
        "velocity": 1,
        "hand": "right"
      },
      {
        "midi": 64,
        "time": 225.357,
        "duration": 0.089,
        "velocity": 1,
        "hand": "right"
      },
      {
        "midi": 54,
        "time": 225.536,
        "duration": 0.179,
        "velocity": 1,
        "hand": "left"
      },
      {
        "midi": 56,
        "time": 225.625,
        "duration": 0.089,
        "velocity": 1,
        "hand": "left"
      },
      {
        "midi": 68,
        "time": 225.536,
        "duration": 0.089,
        "velocity": 1,
        "hand": "right"
      },
      {
        "midi": 48,
        "time": 225.714,
        "duration": 0.179,
        "velocity": 1,
        "hand": "left"
      },
      {
        "midi": 64,
        "time": 225.714,
        "duration": 0.089,
        "velocity": 1,
        "hand": "right"
      },
      {
        "midi": 44,
        "time": 225.893,
        "duration": 0.179,
        "velocity": 1,
        "hand": "left"
      },
      {
        "midi": 63,
        "time": 225.804,
        "duration": 0.089,
        "velocity": 1,
        "hand": "right"
      },
      {
        "midi": 68,
        "time": 225.893,
        "duration": 0.089,
        "velocity": 1,
        "hand": "right"
      },
      {
        "midi": 37,
        "time": 226.071,
        "duration": 0.179,
        "velocity": 1,
        "hand": "left"
      },
      {
        "midi": 56,
        "time": 225.982,
        "duration": 0.089,
        "velocity": 1,
        "hand": "left"
      },
      {
        "midi": 63,
        "time": 226.071,
        "duration": 0.089,
        "velocity": 1,
        "hand": "right"
      },
      {
        "midi": 52,
        "time": 226.25,
        "duration": 0.179,
        "velocity": 1,
        "hand": "left"
      },
      {
        "midi": 61,
        "time": 226.161,
        "duration": 0.089,
        "velocity": 1,
        "hand": "right"
      },
      {
        "midi": 68,
        "time": 226.25,
        "duration": 0.089,
        "velocity": 1,
        "hand": "right"
      },
      {
        "midi": 56,
        "time": 226.339,
        "duration": 0.089,
        "velocity": 1,
        "hand": "left"
      },
      {
        "midi": 49,
        "time": 226.429,
        "duration": 0.179,
        "velocity": 1,
        "hand": "left"
      },
      {
        "midi": 68,
        "time": 226.518,
        "duration": 0.089,
        "velocity": 1,
        "hand": "right"
      },
      {
        "midi": 69,
        "time": 226.429,
        "duration": 0.089,
        "velocity": 1,
        "hand": "right"
      },
      {
        "midi": 44,
        "time": 226.607,
        "duration": 0.179,
        "velocity": 1,
        "hand": "left"
      },
      {
        "midi": 64,
        "time": 226.696,
        "duration": 0.089,
        "velocity": 1,
        "hand": "right"
      },
      {
        "midi": 76,
        "time": 226.607,
        "duration": 0.089,
        "velocity": 1,
        "hand": "right"
      },
      {
        "midi": 37,
        "time": 226.786,
        "duration": 0.179,
        "velocity": 1,
        "hand": "left"
      },
      {
        "midi": 68,
        "time": 226.875,
        "duration": 0.089,
        "velocity": 1,
        "hand": "right"
      },
      {
        "midi": 69,
        "time": 226.786,
        "duration": 0.089,
        "velocity": 1,
        "hand": "right"
      },
      {
        "midi": 54,
        "time": 226.964,
        "duration": 0.179,
        "velocity": 1,
        "hand": "left"
      },
      {
        "midi": 76,
        "time": 226.964,
        "duration": 0.089,
        "velocity": 1,
        "hand": "right"
      },
      {
        "midi": 48,
        "time": 227.143,
        "duration": 0.179,
        "velocity": 1,
        "hand": "left"
      },
      {
        "midi": 64,
        "time": 227.054,
        "duration": 0.089,
        "velocity": 1,
        "hand": "right"
      },
      {
        "midi": 69,
        "time": 227.143,
        "duration": 0.089,
        "velocity": 1,
        "hand": "right"
      },
      {
        "midi": 44,
        "time": 227.321,
        "duration": 0.179,
        "velocity": 1,
        "hand": "left"
      },
      {
        "midi": 68,
        "time": 227.232,
        "duration": 0.089,
        "velocity": 1,
        "hand": "right"
      },
      {
        "midi": 75,
        "time": 227.321,
        "duration": 0.089,
        "velocity": 1,
        "hand": "right"
      },
      {
        "midi": 37,
        "time": 227.5,
        "duration": 0.179,
        "velocity": 1,
        "hand": "left"
      },
      {
        "midi": 63,
        "time": 227.411,
        "duration": 0.089,
        "velocity": 1,
        "hand": "right"
      },
      {
        "midi": 69,
        "time": 227.5,
        "duration": 0.089,
        "velocity": 1,
        "hand": "right"
      },
      {
        "midi": 68,
        "time": 227.589,
        "duration": 0.089,
        "velocity": 1,
        "hand": "right"
      },
      {
        "midi": 52,
        "time": 227.679,
        "duration": 0.179,
        "velocity": 1,
        "hand": "left"
      },
      {
        "midi": 63,
        "time": 227.768,
        "duration": 0.089,
        "velocity": 1,
        "hand": "right"
      },
      {
        "midi": 75,
        "time": 227.679,
        "duration": 0.089,
        "velocity": 1,
        "hand": "right"
      },
      {
        "midi": 49,
        "time": 227.857,
        "duration": 0.179,
        "velocity": 1,
        "hand": "left"
      },
      {
        "midi": 68,
        "time": 227.946,
        "duration": 0.089,
        "velocity": 1,
        "hand": "right"
      },
      {
        "midi": 69,
        "time": 227.857,
        "duration": 0.089,
        "velocity": 1,
        "hand": "right"
      },
      {
        "midi": 44,
        "time": 228.036,
        "duration": 0.179,
        "velocity": 1,
        "hand": "left"
      },
      {
        "midi": 61,
        "time": 228.125,
        "duration": 0.089,
        "velocity": 1,
        "hand": "right"
      },
      {
        "midi": 73,
        "time": 228.036,
        "duration": 0.089,
        "velocity": 1,
        "hand": "right"
      },
      {
        "midi": 37,
        "time": 228.214,
        "duration": 0.179,
        "velocity": 1,
        "hand": "left"
      },
      {
        "midi": 64,
        "time": 228.214,
        "duration": 0.089,
        "velocity": 1,
        "hand": "right"
      },
      {
        "midi": 54,
        "time": 228.393,
        "duration": 0.179,
        "velocity": 1,
        "hand": "left"
      },
      {
        "midi": 63,
        "time": 228.304,
        "duration": 0.089,
        "velocity": 1,
        "hand": "right"
      },
      {
        "midi": 68,
        "time": 228.393,
        "duration": 0.089,
        "velocity": 1,
        "hand": "right"
      },
      {
        "midi": 48,
        "time": 228.571,
        "duration": 0.179,
        "velocity": 1,
        "hand": "left"
      },
      {
        "midi": 56,
        "time": 228.482,
        "duration": 0.089,
        "velocity": 1,
        "hand": "left"
      },
      {
        "midi": 64,
        "time": 228.571,
        "duration": 0.089,
        "velocity": 1,
        "hand": "right"
      },
      {
        "midi": 44,
        "time": 228.75,
        "duration": 0.179,
        "velocity": 1,
        "hand": "left"
      },
      {
        "midi": 63,
        "time": 228.661,
        "duration": 0.089,
        "velocity": 1,
        "hand": "right"
      },
      {
        "midi": 68,
        "time": 228.75,
        "duration": 0.089,
        "velocity": 1,
        "hand": "right"
      },
      {
        "midi": 56,
        "time": 228.839,
        "duration": 0.089,
        "velocity": 1,
        "hand": "left"
      },
      {
        "midi": 37,
        "time": 228.929,
        "duration": 0.179,
        "velocity": 1,
        "hand": "left"
      },
      {
        "midi": 61,
        "time": 229.018,
        "duration": 0.089,
        "velocity": 1,
        "hand": "right"
      },
      {
        "midi": 63,
        "time": 228.929,
        "duration": 0.089,
        "velocity": 1,
        "hand": "right"
      },
      {
        "midi": 52,
        "time": 229.107,
        "duration": 0.179,
        "velocity": 1,
        "hand": "left"
      },
      {
        "midi": 56,
        "time": 229.196,
        "duration": 0.089,
        "velocity": 1,
        "hand": "left"
      },
      {
        "midi": 68,
        "time": 229.107,
        "duration": 0.089,
        "velocity": 1,
        "hand": "right"
      },
      {
        "midi": 49,
        "time": 229.286,
        "duration": 0.179,
        "velocity": 1,
        "hand": "left"
      },
      {
        "midi": 68,
        "time": 229.375,
        "duration": 0.089,
        "velocity": 1,
        "hand": "right"
      },
      {
        "midi": 69,
        "time": 229.286,
        "duration": 0.089,
        "velocity": 1,
        "hand": "right"
      },
      {
        "midi": 44,
        "time": 229.464,
        "duration": 0.179,
        "velocity": 1,
        "hand": "left"
      },
      {
        "midi": 76,
        "time": 229.464,
        "duration": 0.089,
        "velocity": 1,
        "hand": "right"
      },
      {
        "midi": 37,
        "time": 229.643,
        "duration": 0.179,
        "velocity": 1,
        "hand": "left"
      },
      {
        "midi": 64,
        "time": 229.554,
        "duration": 0.089,
        "velocity": 1,
        "hand": "right"
      },
      {
        "midi": 66,
        "time": 229.643,
        "duration": 0.089,
        "velocity": 1,
        "hand": "right"
      },
      {
        "midi": 56,
        "time": 229.821,
        "duration": 0.179,
        "velocity": 1,
        "hand": "left"
      },
      {
        "midi": 64,
        "time": 229.732,
        "duration": 0.089,
        "velocity": 1,
        "hand": "right"
      },
      {
        "midi": 73,
        "time": 229.821,
        "duration": 0.089,
        "velocity": 1,
        "hand": "right"
      },
      {
        "midi": 49,
        "time": 230,
        "duration": 0.179,
        "velocity": 1,
        "hand": "left"
      },
      {
        "midi": 61,
        "time": 229.911,
        "duration": 0.089,
        "velocity": 1,
        "hand": "right"
      },
      {
        "midi": 69,
        "time": 230,
        "duration": 0.089,
        "velocity": 1,
        "hand": "right"
      },
      {
        "midi": 68,
        "time": 230.089,
        "duration": 0.089,
        "velocity": 1,
        "hand": "right"
      },
      {
        "midi": 44,
        "time": 230.179,
        "duration": 0.179,
        "velocity": 1,
        "hand": "left"
      },
      {
        "midi": 64,
        "time": 230.268,
        "duration": 0.089,
        "velocity": 1,
        "hand": "right"
      },
      {
        "midi": 76,
        "time": 230.179,
        "duration": 0.089,
        "velocity": 1,
        "hand": "right"
      },
      {
        "midi": 37,
        "time": 230.357,
        "duration": 0.179,
        "velocity": 1,
        "hand": "left"
      },
      {
        "midi": 61,
        "time": 230.446,
        "duration": 0.089,
        "velocity": 1,
        "hand": "right"
      },
      {
        "midi": 63,
        "time": 230.357,
        "duration": 0.089,
        "velocity": 1,
        "hand": "right"
      },
      {
        "midi": 52,
        "time": 230.536,
        "duration": 0.179,
        "velocity": 1,
        "hand": "left"
      },
      {
        "midi": 56,
        "time": 230.625,
        "duration": 0.089,
        "velocity": 1,
        "hand": "left"
      },
      {
        "midi": 68,
        "time": 230.536,
        "duration": 0.089,
        "velocity": 1,
        "hand": "right"
      },
      {
        "midi": 49,
        "time": 230.714,
        "duration": 0.179,
        "velocity": 1,
        "hand": "left"
      },
      {
        "midi": 69,
        "time": 230.714,
        "duration": 0.089,
        "velocity": 1,
        "hand": "right"
      },
      {
        "midi": 44,
        "time": 230.893,
        "duration": 0.179,
        "velocity": 1,
        "hand": "left"
      },
      {
        "midi": 68,
        "time": 230.804,
        "duration": 0.089,
        "velocity": 1,
        "hand": "right"
      },
      {
        "midi": 76,
        "time": 230.893,
        "duration": 0.089,
        "velocity": 1,
        "hand": "right"
      },
      {
        "midi": 37,
        "time": 231.071,
        "duration": 0.179,
        "velocity": 1,
        "hand": "left"
      },
      {
        "midi": 64,
        "time": 230.982,
        "duration": 0.089,
        "velocity": 1,
        "hand": "right"
      },
      {
        "midi": 66,
        "time": 231.071,
        "duration": 0.089,
        "velocity": 1,
        "hand": "right"
      },
      {
        "midi": 56,
        "time": 231.25,
        "duration": 0.179,
        "velocity": 1,
        "hand": "left"
      },
      {
        "midi": 64,
        "time": 231.161,
        "duration": 0.089,
        "velocity": 1,
        "hand": "right"
      },
      {
        "midi": 73,
        "time": 231.25,
        "duration": 0.089,
        "velocity": 1,
        "hand": "right"
      },
      {
        "midi": 61,
        "time": 231.339,
        "duration": 0.089,
        "velocity": 1,
        "hand": "right"
      },
      {
        "midi": 49,
        "time": 231.429,
        "duration": 0.179,
        "velocity": 1,
        "hand": "left"
      },
      {
        "midi": 68,
        "time": 231.518,
        "duration": 0.089,
        "velocity": 1,
        "hand": "right"
      },
      {
        "midi": 69,
        "time": 231.429,
        "duration": 0.089,
        "velocity": 1,
        "hand": "right"
      },
      {
        "midi": 44,
        "time": 231.607,
        "duration": 0.179,
        "velocity": 1,
        "hand": "left"
      },
      {
        "midi": 64,
        "time": 231.696,
        "duration": 0.089,
        "velocity": 1,
        "hand": "right"
      },
      {
        "midi": 76,
        "time": 231.607,
        "duration": 0.089,
        "velocity": 1,
        "hand": "right"
      },
      {
        "midi": 37,
        "time": 231.786,
        "duration": 0.179,
        "velocity": 1,
        "hand": "left"
      },
      {
        "midi": 64,
        "time": 231.875,
        "duration": 0.089,
        "velocity": 1,
        "hand": "right"
      },
      {
        "midi": 66,
        "time": 231.786,
        "duration": 0.089,
        "velocity": 1,
        "hand": "right"
      },
      {
        "midi": 52,
        "time": 231.964,
        "duration": 0.179,
        "velocity": 1,
        "hand": "left"
      },
      {
        "midi": 73,
        "time": 231.964,
        "duration": 0.089,
        "velocity": 1,
        "hand": "right"
      },
      {
        "midi": 49,
        "time": 232.143,
        "duration": 0.179,
        "velocity": 1,
        "hand": "left"
      },
      {
        "midi": 61,
        "time": 232.054,
        "duration": 0.089,
        "velocity": 1,
        "hand": "right"
      },
      {
        "midi": 69,
        "time": 232.143,
        "duration": 0.089,
        "velocity": 1,
        "hand": "right"
      },
      {
        "midi": 44,
        "time": 232.321,
        "duration": 0.179,
        "velocity": 1,
        "hand": "left"
      },
      {
        "midi": 68,
        "time": 232.232,
        "duration": 0.089,
        "velocity": 1,
        "hand": "right"
      },
      {
        "midi": 73,
        "time": 232.321,
        "duration": 0.089,
        "velocity": 1,
        "hand": "right"
      },
      {
        "midi": 37,
        "time": 232.5,
        "duration": 0.179,
        "velocity": 1,
        "hand": "left"
      },
      {
        "midi": 61,
        "time": 232.411,
        "duration": 0.089,
        "velocity": 1,
        "hand": "right"
      },
      {
        "midi": 66,
        "time": 232.5,
        "duration": 0.089,
        "velocity": 1,
        "hand": "right"
      },
      {
        "midi": 64,
        "time": 232.589,
        "duration": 0.089,
        "velocity": 1,
        "hand": "right"
      },
      {
        "midi": 52,
        "time": 232.679,
        "duration": 0.179,
        "velocity": 1,
        "hand": "left"
      },
      {
        "midi": 61,
        "time": 232.768,
        "duration": 0.089,
        "velocity": 1,
        "hand": "right"
      },
      {
        "midi": 73,
        "time": 232.679,
        "duration": 0.089,
        "velocity": 1,
        "hand": "right"
      },
      {
        "midi": 49,
        "time": 232.857,
        "duration": 0.179,
        "velocity": 1,
        "hand": "left"
      },
      {
        "midi": 68,
        "time": 232.946,
        "duration": 0.089,
        "velocity": 1,
        "hand": "right"
      },
      {
        "midi": 69,
        "time": 232.857,
        "duration": 0.089,
        "velocity": 1,
        "hand": "right"
      },
      {
        "midi": 44,
        "time": 233.036,
        "duration": 0.179,
        "velocity": 1,
        "hand": "left"
      },
      {
        "midi": 61,
        "time": 233.125,
        "duration": 0.089,
        "velocity": 1,
        "hand": "right"
      },
      {
        "midi": 73,
        "time": 233.036,
        "duration": 0.089,
        "velocity": 1,
        "hand": "right"
      },
      {
        "midi": 37,
        "time": 233.214,
        "duration": 0.179,
        "velocity": 1,
        "hand": "left"
      },
      {
        "midi": 66,
        "time": 233.214,
        "duration": 0.089,
        "velocity": 1,
        "hand": "right"
      },
      {
        "midi": 52,
        "time": 233.393,
        "duration": 0.179,
        "velocity": 1,
        "hand": "left"
      },
      {
        "midi": 64,
        "time": 233.304,
        "duration": 0.089,
        "velocity": 1,
        "hand": "right"
      },
      {
        "midi": 73,
        "time": 233.393,
        "duration": 0.089,
        "velocity": 1,
        "hand": "right"
      },
      {
        "midi": 49,
        "time": 233.571,
        "duration": 0.179,
        "velocity": 1,
        "hand": "left"
      },
      {
        "midi": 61,
        "time": 233.482,
        "duration": 0.089,
        "velocity": 1,
        "hand": "right"
      },
      {
        "midi": 69,
        "time": 233.571,
        "duration": 0.089,
        "velocity": 1,
        "hand": "right"
      },
      {
        "midi": 44,
        "time": 233.75,
        "duration": 0.179,
        "velocity": 1,
        "hand": "left"
      },
      {
        "midi": 68,
        "time": 233.661,
        "duration": 0.089,
        "velocity": 1,
        "hand": "right"
      },
      {
        "midi": 73,
        "time": 233.75,
        "duration": 0.089,
        "velocity": 1,
        "hand": "right"
      },
      {
        "midi": 61,
        "time": 233.839,
        "duration": 0.089,
        "velocity": 1,
        "hand": "right"
      },
      {
        "midi": 37,
        "time": 233.929,
        "duration": 0.179,
        "velocity": 1,
        "hand": "left"
      },
      {
        "midi": 64,
        "time": 234.018,
        "duration": 0.089,
        "velocity": 1,
        "hand": "right"
      },
      {
        "midi": 66,
        "time": 233.929,
        "duration": 0.089,
        "velocity": 1,
        "hand": "right"
      },
      {
        "midi": 52,
        "time": 234.107,
        "duration": 0.179,
        "velocity": 1,
        "hand": "left"
      },
      {
        "midi": 61,
        "time": 234.196,
        "duration": 0.089,
        "velocity": 1,
        "hand": "right"
      },
      {
        "midi": 73,
        "time": 234.107,
        "duration": 0.089,
        "velocity": 1,
        "hand": "right"
      },
      {
        "midi": 49,
        "time": 234.286,
        "duration": 0.179,
        "velocity": 1,
        "hand": "left"
      },
      {
        "midi": 68,
        "time": 234.375,
        "duration": 0.089,
        "velocity": 1,
        "hand": "right"
      },
      {
        "midi": 69,
        "time": 234.286,
        "duration": 0.089,
        "velocity": 1,
        "hand": "right"
      },
      {
        "midi": 44,
        "time": 234.464,
        "duration": 0.179,
        "velocity": 1,
        "hand": "left"
      },
      {
        "midi": 73,
        "time": 234.464,
        "duration": 0.089,
        "velocity": 1,
        "hand": "right"
      },
      {
        "midi": 37,
        "time": 234.643,
        "duration": 0.357,
        "velocity": 1,
        "hand": "left"
      },
      {
        "midi": 61,
        "time": 234.554,
        "duration": 0.089,
        "velocity": 1,
        "hand": "right"
      },
      {
        "midi": 63,
        "time": 234.643,
        "duration": 0.089,
        "velocity": 1,
        "hand": "right"
      },
      {
        "midi": 61,
        "time": 234.732,
        "duration": 0.089,
        "velocity": 1,
        "hand": "right"
      },
      {
        "midi": 68,
        "time": 234.821,
        "duration": 0.089,
        "velocity": 1,
        "hand": "right"
      },
      {
        "midi": 56,
        "time": 234.911,
        "duration": 0.089,
        "velocity": 1,
        "hand": "left"
      },
      {
        "midi": 63,
        "time": 235,
        "duration": 0.089,
        "velocity": 1,
        "hand": "right"
      },
      {
        "midi": 61,
        "time": 235.089,
        "duration": 0.089,
        "velocity": 1,
        "hand": "right"
      },
      {
        "midi": 56,
        "time": 235.268,
        "duration": 0.089,
        "velocity": 1,
        "hand": "left"
      },
      {
        "midi": 68,
        "time": 235.179,
        "duration": 0.089,
        "velocity": 1,
        "hand": "right"
      },
      {
        "midi": 61,
        "time": 235.446,
        "duration": 0.089,
        "velocity": 1,
        "hand": "right"
      },
      {
        "midi": 63,
        "time": 235.357,
        "duration": 0.089,
        "velocity": 1,
        "hand": "right"
      },
      {
        "midi": 56,
        "time": 235.625,
        "duration": 0.089,
        "velocity": 1,
        "hand": "left"
      },
      {
        "midi": 68,
        "time": 235.536,
        "duration": 0.089,
        "velocity": 1,
        "hand": "right"
      },
      {
        "midi": 63,
        "time": 235.714,
        "duration": 0.089,
        "velocity": 1,
        "hand": "right"
      },
      {
        "midi": 61,
        "time": 235.804,
        "duration": 0.089,
        "velocity": 1,
        "hand": "right"
      },
      {
        "midi": 68,
        "time": 235.893,
        "duration": 0.089,
        "velocity": 1,
        "hand": "right"
      },
      {
        "midi": 56,
        "time": 235.982,
        "duration": 0.089,
        "velocity": 1,
        "hand": "left"
      },
      {
        "midi": 63,
        "time": 236.071,
        "duration": 0.089,
        "velocity": 1,
        "hand": "right"
      },
      {
        "midi": 61,
        "time": 236.161,
        "duration": 0.089,
        "velocity": 1,
        "hand": "right"
      },
      {
        "midi": 68,
        "time": 236.25,
        "duration": 0.089,
        "velocity": 1,
        "hand": "right"
      },
      {
        "midi": 56,
        "time": 236.339,
        "duration": 0.089,
        "velocity": 1,
        "hand": "left"
      },
      {
        "midi": 61,
        "time": 236.518,
        "duration": 0.089,
        "velocity": 1,
        "hand": "right"
      },
      {
        "midi": 63,
        "time": 236.429,
        "duration": 0.089,
        "velocity": 1,
        "hand": "right"
      },
      {
        "midi": 56,
        "time": 236.696,
        "duration": 0.089,
        "velocity": 1,
        "hand": "left"
      },
      {
        "midi": 68,
        "time": 236.607,
        "duration": 0.089,
        "velocity": 1,
        "hand": "right"
      },
      {
        "midi": 61,
        "time": 236.875,
        "duration": 0.089,
        "velocity": 1,
        "hand": "right"
      },
      {
        "midi": 63,
        "time": 236.786,
        "duration": 0.089,
        "velocity": 1,
        "hand": "right"
      },
      {
        "midi": 68,
        "time": 236.964,
        "duration": 0.089,
        "velocity": 1,
        "hand": "right"
      },
      {
        "midi": 56,
        "time": 237.054,
        "duration": 0.089,
        "velocity": 1,
        "hand": "left"
      },
      {
        "midi": 63,
        "time": 237.143,
        "duration": 0.089,
        "velocity": 1,
        "hand": "right"
      },
      {
        "midi": 61,
        "time": 237.232,
        "duration": 0.089,
        "velocity": 1,
        "hand": "right"
      },
      {
        "midi": 68,
        "time": 237.321,
        "duration": 0.089,
        "velocity": 1,
        "hand": "right"
      },
      {
        "midi": 37,
        "time": 237.5,
        "duration": 1.429,
        "velocity": 1,
        "hand": "left"
      },
      {
        "midi": 56,
        "time": 237.411,
        "duration": 0.089,
        "velocity": 1,
        "hand": "left"
      },
      {
        "midi": 63,
        "time": 237.5,
        "duration": 0.089,
        "velocity": 1,
        "hand": "right"
      },
      {
        "midi": 61,
        "time": 237.589,
        "duration": 0.089,
        "velocity": 1,
        "hand": "right"
      },
      {
        "midi": 56,
        "time": 237.768,
        "duration": 0.089,
        "velocity": 1,
        "hand": "left"
      },
      {
        "midi": 68,
        "time": 237.679,
        "duration": 0.089,
        "velocity": 1,
        "hand": "right"
      },
      {
        "midi": 61,
        "time": 237.946,
        "duration": 0.089,
        "velocity": 1,
        "hand": "right"
      },
      {
        "midi": 63,
        "time": 237.857,
        "duration": 0.089,
        "velocity": 1,
        "hand": "right"
      },
      {
        "midi": 56,
        "time": 238.125,
        "duration": 0.089,
        "velocity": 1,
        "hand": "left"
      },
      {
        "midi": 68,
        "time": 238.036,
        "duration": 0.089,
        "velocity": 1,
        "hand": "right"
      },
      {
        "midi": 63,
        "time": 238.214,
        "duration": 0.089,
        "velocity": 1,
        "hand": "right"
      },
      {
        "midi": 61,
        "time": 238.304,
        "duration": 0.089,
        "velocity": 1,
        "hand": "right"
      },
      {
        "midi": 68,
        "time": 238.393,
        "duration": 0.089,
        "velocity": 1,
        "hand": "right"
      },
      {
        "midi": 56,
        "time": 238.482,
        "duration": 0.089,
        "velocity": 1,
        "hand": "left"
      },
      {
        "midi": 63,
        "time": 238.571,
        "duration": 0.089,
        "velocity": 1,
        "hand": "right"
      },
      {
        "midi": 61,
        "time": 238.661,
        "duration": 0.089,
        "velocity": 1,
        "hand": "right"
      },
      {
        "midi": 68,
        "time": 238.75,
        "duration": 0.089,
        "velocity": 1,
        "hand": "right"
      },
      {
        "midi": 56,
        "time": 238.839,
        "duration": 0.089,
        "velocity": 1,
        "hand": "left"
      },
      {
        "midi": 46,
        "time": 238.929,
        "duration": 0.357,
        "velocity": 1,
        "hand": "left"
      },
      {
        "midi": 61,
        "time": 239.018,
        "duration": 0.089,
        "velocity": 1,
        "hand": "right"
      },
      {
        "midi": 63,
        "time": 238.929,
        "duration": 0.089,
        "velocity": 1,
        "hand": "right"
      },
      {
        "midi": 56,
        "time": 239.196,
        "duration": 0.089,
        "velocity": 1,
        "hand": "left"
      },
      {
        "midi": 68,
        "time": 239.107,
        "duration": 0.089,
        "velocity": 1,
        "hand": "right"
      },
      {
        "midi": 44,
        "time": 239.286,
        "duration": 0.357,
        "velocity": 1,
        "hand": "left"
      },
      {
        "midi": 61,
        "time": 239.375,
        "duration": 0.089,
        "velocity": 1,
        "hand": "right"
      },
      {
        "midi": 63,
        "time": 239.286,
        "duration": 0.089,
        "velocity": 1,
        "hand": "right"
      },
      {
        "midi": 68,
        "time": 239.464,
        "duration": 0.089,
        "velocity": 1,
        "hand": "right"
      },
      {
        "midi": 49,
        "time": 239.643,
        "duration": 0.357,
        "velocity": 1,
        "hand": "left"
      },
      {
        "midi": 56,
        "time": 239.554,
        "duration": 0.089,
        "velocity": 1,
        "hand": "left"
      },
      {
        "midi": 63,
        "time": 239.643,
        "duration": 0.089,
        "velocity": 1,
        "hand": "right"
      },
      {
        "midi": 61,
        "time": 239.732,
        "duration": 0.089,
        "velocity": 1,
        "hand": "right"
      },
      {
        "midi": 68,
        "time": 239.821,
        "duration": 0.089,
        "velocity": 1,
        "hand": "right"
      },
      {
        "midi": 51,
        "time": 240,
        "duration": 0.357,
        "velocity": 1,
        "hand": "left"
      },
      {
        "midi": 56,
        "time": 239.911,
        "duration": 0.089,
        "velocity": 1,
        "hand": "left"
      },
      {
        "midi": 63,
        "time": 240,
        "duration": 0.089,
        "velocity": 1,
        "hand": "right"
      },
      {
        "midi": 61,
        "time": 240.089,
        "duration": 0.089,
        "velocity": 1,
        "hand": "right"
      },
      {
        "midi": 56,
        "time": 240.268,
        "duration": 0.089,
        "velocity": 1,
        "hand": "left"
      },
      {
        "midi": 68,
        "time": 240.179,
        "duration": 0.089,
        "velocity": 1,
        "hand": "right"
      },
      {
        "midi": 53,
        "time": 240.357,
        "duration": 1.429,
        "velocity": 1,
        "hand": "left"
      },
      {
        "midi": 61,
        "time": 240.446,
        "duration": 0.089,
        "velocity": 1,
        "hand": "right"
      },
      {
        "midi": 63,
        "time": 240.357,
        "duration": 0.089,
        "velocity": 1,
        "hand": "right"
      },
      {
        "midi": 56,
        "time": 240.625,
        "duration": 0.089,
        "velocity": 1,
        "hand": "left"
      },
      {
        "midi": 68,
        "time": 240.536,
        "duration": 0.089,
        "velocity": 1,
        "hand": "right"
      },
      {
        "midi": 63,
        "time": 240.714,
        "duration": 0.089,
        "velocity": 1,
        "hand": "right"
      },
      {
        "midi": 61,
        "time": 240.804,
        "duration": 0.089,
        "velocity": 1,
        "hand": "right"
      },
      {
        "midi": 68,
        "time": 240.893,
        "duration": 0.089,
        "velocity": 1,
        "hand": "right"
      },
      {
        "midi": 56,
        "time": 240.982,
        "duration": 0.089,
        "velocity": 1,
        "hand": "left"
      },
      {
        "midi": 63,
        "time": 241.071,
        "duration": 0.089,
        "velocity": 1,
        "hand": "right"
      },
      {
        "midi": 61,
        "time": 241.161,
        "duration": 0.089,
        "velocity": 1,
        "hand": "right"
      },
      {
        "midi": 68,
        "time": 241.25,
        "duration": 0.089,
        "velocity": 1,
        "hand": "right"
      },
      {
        "midi": 56,
        "time": 241.339,
        "duration": 0.089,
        "velocity": 1,
        "hand": "left"
      },
      {
        "midi": 61,
        "time": 241.518,
        "duration": 0.089,
        "velocity": 1,
        "hand": "right"
      },
      {
        "midi": 63,
        "time": 241.429,
        "duration": 0.089,
        "velocity": 1,
        "hand": "right"
      },
      {
        "midi": 56,
        "time": 241.696,
        "duration": 0.089,
        "velocity": 1,
        "hand": "left"
      },
      {
        "midi": 68,
        "time": 241.607,
        "duration": 0.089,
        "velocity": 1,
        "hand": "right"
      },
      {
        "midi": 56,
        "time": 241.786,
        "duration": 1.429,
        "velocity": 1,
        "hand": "left"
      },
      {
        "midi": 61,
        "time": 241.875,
        "duration": 0.089,
        "velocity": 1,
        "hand": "right"
      },
      {
        "midi": 63,
        "time": 241.786,
        "duration": 0.089,
        "velocity": 1,
        "hand": "right"
      },
      {
        "midi": 68,
        "time": 241.964,
        "duration": 0.089,
        "velocity": 1,
        "hand": "right"
      },
      {
        "midi": 56,
        "time": 242.054,
        "duration": 0.089,
        "velocity": 1,
        "hand": "left"
      },
      {
        "midi": 63,
        "time": 242.143,
        "duration": 0.089,
        "velocity": 1,
        "hand": "right"
      },
      {
        "midi": 61,
        "time": 242.232,
        "duration": 0.089,
        "velocity": 1,
        "hand": "right"
      },
      {
        "midi": 68,
        "time": 242.321,
        "duration": 0.089,
        "velocity": 1,
        "hand": "right"
      },
      {
        "midi": 56,
        "time": 242.411,
        "duration": 0.089,
        "velocity": 1,
        "hand": "left"
      },
      {
        "midi": 63,
        "time": 242.5,
        "duration": 0.089,
        "velocity": 1,
        "hand": "right"
      },
      {
        "midi": 61,
        "time": 242.589,
        "duration": 0.089,
        "velocity": 1,
        "hand": "right"
      },
      {
        "midi": 56,
        "time": 242.768,
        "duration": 0.089,
        "velocity": 1,
        "hand": "left"
      },
      {
        "midi": 68,
        "time": 242.679,
        "duration": 0.089,
        "velocity": 1,
        "hand": "right"
      },
      {
        "midi": 61,
        "time": 242.946,
        "duration": 0.089,
        "velocity": 1,
        "hand": "right"
      },
      {
        "midi": 63,
        "time": 242.857,
        "duration": 0.089,
        "velocity": 1,
        "hand": "right"
      },
      {
        "midi": 56,
        "time": 243.125,
        "duration": 0.089,
        "velocity": 1,
        "hand": "left"
      },
      {
        "midi": 68,
        "time": 243.036,
        "duration": 0.089,
        "velocity": 1,
        "hand": "right"
      },
      {
        "midi": 54,
        "time": 243.214,
        "duration": 0.714,
        "velocity": 1,
        "hand": "left"
      },
      {
        "midi": 63,
        "time": 243.214,
        "duration": 0.089,
        "velocity": 1,
        "hand": "right"
      },
      {
        "midi": 61,
        "time": 243.304,
        "duration": 0.089,
        "velocity": 1,
        "hand": "right"
      },
      {
        "midi": 68,
        "time": 243.393,
        "duration": 0.089,
        "velocity": 1,
        "hand": "right"
      },
      {
        "midi": 56,
        "time": 243.482,
        "duration": 0.089,
        "velocity": 1,
        "hand": "left"
      },
      {
        "midi": 63,
        "time": 243.571,
        "duration": 0.089,
        "velocity": 1,
        "hand": "right"
      },
      {
        "midi": 61,
        "time": 243.661,
        "duration": 0.089,
        "velocity": 1,
        "hand": "right"
      },
      {
        "midi": 68,
        "time": 243.75,
        "duration": 0.089,
        "velocity": 1,
        "hand": "right"
      },
      {
        "midi": 56,
        "time": 243.839,
        "duration": 0.089,
        "velocity": 1,
        "hand": "left"
      },
      {
        "midi": 53,
        "time": 243.929,
        "duration": 0.714,
        "velocity": 1,
        "hand": "left"
      },
      {
        "midi": 61,
        "time": 244.018,
        "duration": 0.089,
        "velocity": 1,
        "hand": "right"
      },
      {
        "midi": 63,
        "time": 243.929,
        "duration": 0.089,
        "velocity": 1,
        "hand": "right"
      },
      {
        "midi": 56,
        "time": 244.196,
        "duration": 0.089,
        "velocity": 1,
        "hand": "left"
      },
      {
        "midi": 68,
        "time": 244.107,
        "duration": 0.089,
        "velocity": 1,
        "hand": "right"
      },
      {
        "midi": 61,
        "time": 244.375,
        "duration": 0.089,
        "velocity": 1,
        "hand": "right"
      },
      {
        "midi": 63,
        "time": 244.286,
        "duration": 0.089,
        "velocity": 1,
        "hand": "right"
      },
      {
        "midi": 68,
        "time": 244.464,
        "duration": 0.089,
        "velocity": 1,
        "hand": "right"
      },
      {
        "midi": 51,
        "time": 244.643,
        "duration": 0.714,
        "velocity": 1,
        "hand": "left"
      },
      {
        "midi": 56,
        "time": 244.554,
        "duration": 0.089,
        "velocity": 1,
        "hand": "left"
      },
      {
        "midi": 63,
        "time": 244.643,
        "duration": 0.089,
        "velocity": 1,
        "hand": "right"
      },
      {
        "midi": 61,
        "time": 244.732,
        "duration": 0.089,
        "velocity": 1,
        "hand": "right"
      },
      {
        "midi": 68,
        "time": 244.821,
        "duration": 0.089,
        "velocity": 1,
        "hand": "right"
      },
      {
        "midi": 56,
        "time": 244.911,
        "duration": 0.089,
        "velocity": 1,
        "hand": "left"
      },
      {
        "midi": 63,
        "time": 245,
        "duration": 0.089,
        "velocity": 1,
        "hand": "right"
      },
      {
        "midi": 61,
        "time": 245.089,
        "duration": 0.089,
        "velocity": 1,
        "hand": "right"
      },
      {
        "midi": 56,
        "time": 245.268,
        "duration": 0.089,
        "velocity": 1,
        "hand": "left"
      },
      {
        "midi": 68,
        "time": 245.179,
        "duration": 0.089,
        "velocity": 1,
        "hand": "right"
      },
      {
        "midi": 53,
        "time": 245.357,
        "duration": 0.357,
        "velocity": 1,
        "hand": "left"
      },
      {
        "midi": 61,
        "time": 245.446,
        "duration": 0.089,
        "velocity": 1,
        "hand": "right"
      },
      {
        "midi": 63,
        "time": 245.357,
        "duration": 0.089,
        "velocity": 1,
        "hand": "right"
      },
      {
        "midi": 56,
        "time": 245.625,
        "duration": 0.089,
        "velocity": 1,
        "hand": "left"
      },
      {
        "midi": 68,
        "time": 245.536,
        "duration": 0.089,
        "velocity": 1,
        "hand": "right"
      },
      {
        "midi": 49,
        "time": 245.714,
        "duration": 0.357,
        "velocity": 1,
        "hand": "left"
      },
      {
        "midi": 63,
        "time": 245.714,
        "duration": 0.089,
        "velocity": 1,
        "hand": "right"
      },
      {
        "midi": 61,
        "time": 245.804,
        "duration": 0.089,
        "velocity": 1,
        "hand": "right"
      },
      {
        "midi": 68,
        "time": 245.893,
        "duration": 0.089,
        "velocity": 1,
        "hand": "right"
      },
      {
        "midi": 44,
        "time": 246.071,
        "duration": 1.429,
        "velocity": 1,
        "hand": "left"
      },
      {
        "midi": 56,
        "time": 245.982,
        "duration": 0.089,
        "velocity": 1,
        "hand": "left"
      },
      {
        "midi": 63,
        "time": 246.071,
        "duration": 0.089,
        "velocity": 1,
        "hand": "right"
      },
      {
        "midi": 61,
        "time": 246.161,
        "duration": 0.089,
        "velocity": 1,
        "hand": "right"
      },
      {
        "midi": 68,
        "time": 246.25,
        "duration": 0.089,
        "velocity": 1,
        "hand": "right"
      },
      {
        "midi": 53,
        "time": 246.339,
        "duration": 0.089,
        "velocity": 1,
        "hand": "left"
      },
      {
        "midi": 61,
        "time": 246.518,
        "duration": 0.089,
        "velocity": 1,
        "hand": "right"
      },
      {
        "midi": 63,
        "time": 246.429,
        "duration": 0.089,
        "velocity": 1,
        "hand": "right"
      },
      {
        "midi": 53,
        "time": 246.696,
        "duration": 0.089,
        "velocity": 1,
        "hand": "left"
      },
      {
        "midi": 68,
        "time": 246.607,
        "duration": 0.089,
        "velocity": 1,
        "hand": "right"
      },
      {
        "midi": 61,
        "time": 246.875,
        "duration": 0.089,
        "velocity": 1,
        "hand": "right"
      },
      {
        "midi": 63,
        "time": 246.786,
        "duration": 0.089,
        "velocity": 1,
        "hand": "right"
      },
      {
        "midi": 68,
        "time": 246.964,
        "duration": 0.089,
        "velocity": 1,
        "hand": "right"
      },
      {
        "midi": 53,
        "time": 247.054,
        "duration": 0.089,
        "velocity": 1,
        "hand": "left"
      },
      {
        "midi": 63,
        "time": 247.143,
        "duration": 0.089,
        "velocity": 1,
        "hand": "right"
      },
      {
        "midi": 61,
        "time": 247.232,
        "duration": 0.089,
        "velocity": 1,
        "hand": "right"
      },
      {
        "midi": 68,
        "time": 247.321,
        "duration": 0.089,
        "velocity": 1,
        "hand": "right"
      },
      {
        "midi": 32,
        "time": 247.5,
        "duration": 1.964,
        "velocity": 1,
        "hand": "left"
      },
      {
        "midi": 53,
        "time": 247.411,
        "duration": 0.089,
        "velocity": 1,
        "hand": "left"
      },
      {
        "midi": 65,
        "time": 247.5,
        "duration": 0.089,
        "velocity": 1,
        "hand": "right"
      },
      {
        "midi": 63,
        "time": 247.679,
        "duration": 0.089,
        "velocity": 1,
        "hand": "right"
      },
      {
        "midi": 68,
        "time": 247.768,
        "duration": 0.089,
        "velocity": 1,
        "hand": "right"
      },
      {
        "midi": 56,
        "time": 247.857,
        "duration": 0.089,
        "velocity": 1,
        "hand": "left"
      },
      {
        "midi": 63,
        "time": 248.125,
        "duration": 0.089,
        "velocity": 1,
        "hand": "right"
      },
      {
        "midi": 65,
        "time": 248.036,
        "duration": 0.089,
        "velocity": 1,
        "hand": "right"
      },
      {
        "midi": 56,
        "time": 248.393,
        "duration": 0.089,
        "velocity": 1,
        "hand": "left"
      },
      {
        "midi": 68,
        "time": 248.304,
        "duration": 0.089,
        "velocity": 1,
        "hand": "right"
      },
      {
        "midi": 65,
        "time": 248.482,
        "duration": 0.089,
        "velocity": 1,
        "hand": "right"
      },
      {
        "midi": 63,
        "time": 248.661,
        "duration": 0.089,
        "velocity": 1,
        "hand": "right"
      },
      {
        "midi": 68,
        "time": 248.75,
        "duration": 0.089,
        "velocity": 1,
        "hand": "right"
      },
      {
        "midi": 56,
        "time": 248.929,
        "duration": 0.089,
        "velocity": 1,
        "hand": "left"
      },
      {
        "midi": 65,
        "time": 249.018,
        "duration": 0.089,
        "velocity": 1,
        "hand": "right"
      },
      {
        "midi": 63,
        "time": 249.107,
        "duration": 0.089,
        "velocity": 1,
        "hand": "right"
      },
      {
        "midi": 56,
        "time": 249.375,
        "duration": 0.089,
        "velocity": 1,
        "hand": "left"
      },
      {
        "midi": 68,
        "time": 249.286,
        "duration": 0.089,
        "velocity": 1,
        "hand": "right"
      },
      {
        "midi": 37,
        "time": 249.554,
        "duration": 1.964,
        "velocity": 1,
        "hand": "left"
      },
      {
        "midi": 56,
        "time": 249.554,
        "duration": 4.018,
        "velocity": 1,
        "hand": "left"
      },
      {
        "midi": 63,
        "time": 249.554,
        "duration": 1.964,
        "velocity": 1,
        "hand": "right"
      },
      {
        "midi": 37,
        "time": 251.518,
        "duration": 1.964,
        "velocity": 1,
        "hand": "left"
      },
      {
        "midi": 53,
        "time": 251.518,
        "duration": 1.964,
        "velocity": 1,
        "hand": "left"
      },
      {
        "midi": 61,
        "time": 251.518,
        "duration": 1.964,
        "velocity": 1,
        "hand": "right"
      }
    ],
    "hard": [
      {
        "midi": 44,
        "time": 0,
        "duration": 2.857,
        "velocity": 1,
        "hand": "left"
      },
      {
        "midi": 56,
        "time": 0,
        "duration": 2.857,
        "velocity": 1,
        "hand": "left"
      },
      {
        "midi": 37,
        "time": 2.857,
        "duration": 0.089,
        "velocity": 1,
        "hand": "left"
      },
      {
        "midi": 49,
        "time": 2.857,
        "duration": 0.089,
        "velocity": 1,
        "hand": "left"
      },
      {
        "midi": 56,
        "time": 2.946,
        "duration": 0.089,
        "velocity": 1,
        "hand": "left"
      },
      {
        "midi": 61,
        "time": 3.125,
        "duration": 0.089,
        "velocity": 1,
        "hand": "right"
      },
      {
        "midi": 64,
        "time": 3.214,
        "duration": 0.089,
        "velocity": 1,
        "hand": "right"
      },
      {
        "midi": 61,
        "time": 3.304,
        "duration": 0.089,
        "velocity": 1,
        "hand": "right"
      },
      {
        "midi": 56,
        "time": 3.482,
        "duration": 0.089,
        "velocity": 1,
        "hand": "left"
      },
      {
        "midi": 49,
        "time": 3.571,
        "duration": 0.089,
        "velocity": 1,
        "hand": "left"
      },
      {
        "midi": 56,
        "time": 3.661,
        "duration": 0.089,
        "velocity": 1,
        "hand": "left"
      },
      {
        "midi": 61,
        "time": 3.839,
        "duration": 0.089,
        "velocity": 1,
        "hand": "right"
      },
      {
        "midi": 64,
        "time": 3.929,
        "duration": 0.089,
        "velocity": 1,
        "hand": "right"
      },
      {
        "midi": 61,
        "time": 4.018,
        "duration": 0.089,
        "velocity": 1,
        "hand": "right"
      },
      {
        "midi": 56,
        "time": 4.196,
        "duration": 0.089,
        "velocity": 1,
        "hand": "left"
      },
      {
        "midi": 49,
        "time": 4.286,
        "duration": 0.089,
        "velocity": 1,
        "hand": "left"
      },
      {
        "midi": 56,
        "time": 4.375,
        "duration": 0.089,
        "velocity": 1,
        "hand": "left"
      },
      {
        "midi": 61,
        "time": 4.554,
        "duration": 0.089,
        "velocity": 1,
        "hand": "right"
      },
      {
        "midi": 64,
        "time": 4.643,
        "duration": 0.089,
        "velocity": 1,
        "hand": "right"
      },
      {
        "midi": 61,
        "time": 4.732,
        "duration": 0.089,
        "velocity": 1,
        "hand": "right"
      },
      {
        "midi": 56,
        "time": 4.911,
        "duration": 0.089,
        "velocity": 1,
        "hand": "left"
      },
      {
        "midi": 49,
        "time": 5,
        "duration": 0.089,
        "velocity": 1,
        "hand": "left"
      },
      {
        "midi": 56,
        "time": 5.089,
        "duration": 0.089,
        "velocity": 1,
        "hand": "left"
      },
      {
        "midi": 61,
        "time": 5.268,
        "duration": 0.089,
        "velocity": 1,
        "hand": "right"
      },
      {
        "midi": 64,
        "time": 5.357,
        "duration": 0.089,
        "velocity": 1,
        "hand": "right"
      },
      {
        "midi": 61,
        "time": 5.446,
        "duration": 0.089,
        "velocity": 1,
        "hand": "right"
      },
      {
        "midi": 56,
        "time": 5.625,
        "duration": 0.089,
        "velocity": 1,
        "hand": "left"
      },
      {
        "midi": 49,
        "time": 5.714,
        "duration": 0.089,
        "velocity": 1,
        "hand": "left"
      },
      {
        "midi": 56,
        "time": 5.804,
        "duration": 0.089,
        "velocity": 1,
        "hand": "left"
      },
      {
        "midi": 68,
        "time": 5.804,
        "duration": 0.089,
        "velocity": 1,
        "hand": "right"
      },
      {
        "midi": 69,
        "time": 5.893,
        "duration": 0.089,
        "velocity": 1,
        "hand": "right"
      },
      {
        "midi": 61,
        "time": 5.982,
        "duration": 0.089,
        "velocity": 1,
        "hand": "right"
      },
      {
        "midi": 68,
        "time": 5.982,
        "duration": 0.089,
        "velocity": 1,
        "hand": "right"
      },
      {
        "midi": 64,
        "time": 6.071,
        "duration": 0.089,
        "velocity": 1,
        "hand": "right"
      },
      {
        "midi": 67,
        "time": 6.071,
        "duration": 0.089,
        "velocity": 1,
        "hand": "right"
      },
      {
        "midi": 61,
        "time": 6.161,
        "duration": 0.089,
        "velocity": 1,
        "hand": "right"
      },
      {
        "midi": 68,
        "time": 6.161,
        "duration": 0.089,
        "velocity": 1,
        "hand": "right"
      },
      {
        "midi": 73,
        "time": 6.25,
        "duration": 0.089,
        "velocity": 1,
        "hand": "right"
      },
      {
        "midi": 56,
        "time": 6.339,
        "duration": 0.089,
        "velocity": 1,
        "hand": "left"
      },
      {
        "midi": 76,
        "time": 6.339,
        "duration": 0.089,
        "velocity": 1,
        "hand": "right"
      },
      {
        "midi": 52,
        "time": 6.429,
        "duration": 0.089,
        "velocity": 1,
        "hand": "left"
      },
      {
        "midi": 75,
        "time": 6.429,
        "duration": 0.089,
        "velocity": 1,
        "hand": "right"
      },
      {
        "midi": 56,
        "time": 6.518,
        "duration": 0.089,
        "velocity": 1,
        "hand": "left"
      },
      {
        "midi": 73,
        "time": 6.518,
        "duration": 0.089,
        "velocity": 1,
        "hand": "right"
      },
      {
        "midi": 75,
        "time": 6.607,
        "duration": 0.089,
        "velocity": 1,
        "hand": "right"
      },
      {
        "midi": 61,
        "time": 6.696,
        "duration": 0.089,
        "velocity": 1,
        "hand": "right"
      },
      {
        "midi": 73,
        "time": 6.696,
        "duration": 0.089,
        "velocity": 1,
        "hand": "right"
      },
      {
        "midi": 64,
        "time": 6.786,
        "duration": 0.089,
        "velocity": 1,
        "hand": "right"
      },
      {
        "midi": 72,
        "time": 6.786,
        "duration": 0.089,
        "velocity": 1,
        "hand": "right"
      },
      {
        "midi": 61,
        "time": 6.875,
        "duration": 0.089,
        "velocity": 1,
        "hand": "right"
      },
      {
        "midi": 73,
        "time": 6.875,
        "duration": 0.089,
        "velocity": 1,
        "hand": "right"
      },
      {
        "midi": 76,
        "time": 6.964,
        "duration": 0.089,
        "velocity": 1,
        "hand": "right"
      },
      {
        "midi": 56,
        "time": 7.054,
        "duration": 0.089,
        "velocity": 1,
        "hand": "left"
      },
      {
        "midi": 80,
        "time": 7.054,
        "duration": 0.089,
        "velocity": 1,
        "hand": "right"
      },
      {
        "midi": 49,
        "time": 7.143,
        "duration": 0.089,
        "velocity": 1,
        "hand": "left"
      },
      {
        "midi": 56,
        "time": 7.232,
        "duration": 0.089,
        "velocity": 1,
        "hand": "left"
      },
      {
        "midi": 68,
        "time": 7.232,
        "duration": 0.089,
        "velocity": 1,
        "hand": "right"
      },
      {
        "midi": 69,
        "time": 7.321,
        "duration": 0.089,
        "velocity": 1,
        "hand": "right"
      },
      {
        "midi": 61,
        "time": 7.411,
        "duration": 0.089,
        "velocity": 1,
        "hand": "right"
      },
      {
        "midi": 68,
        "time": 7.411,
        "duration": 0.089,
        "velocity": 1,
        "hand": "right"
      },
      {
        "midi": 64,
        "time": 7.5,
        "duration": 0.089,
        "velocity": 1,
        "hand": "right"
      },
      {
        "midi": 67,
        "time": 7.5,
        "duration": 0.089,
        "velocity": 1,
        "hand": "right"
      },
      {
        "midi": 61,
        "time": 7.589,
        "duration": 0.089,
        "velocity": 1,
        "hand": "right"
      },
      {
        "midi": 68,
        "time": 7.589,
        "duration": 0.089,
        "velocity": 1,
        "hand": "right"
      },
      {
        "midi": 73,
        "time": 7.679,
        "duration": 0.089,
        "velocity": 1,
        "hand": "right"
      },
      {
        "midi": 56,
        "time": 7.768,
        "duration": 0.089,
        "velocity": 1,
        "hand": "left"
      },
      {
        "midi": 76,
        "time": 7.768,
        "duration": 0.089,
        "velocity": 1,
        "hand": "right"
      },
      {
        "midi": 52,
        "time": 7.857,
        "duration": 0.089,
        "velocity": 1,
        "hand": "left"
      },
      {
        "midi": 75,
        "time": 7.857,
        "duration": 0.089,
        "velocity": 1,
        "hand": "right"
      },
      {
        "midi": 56,
        "time": 7.946,
        "duration": 0.089,
        "velocity": 1,
        "hand": "left"
      },
      {
        "midi": 73,
        "time": 7.946,
        "duration": 0.089,
        "velocity": 1,
        "hand": "right"
      },
      {
        "midi": 75,
        "time": 8.036,
        "duration": 0.089,
        "velocity": 1,
        "hand": "right"
      },
      {
        "midi": 61,
        "time": 8.125,
        "duration": 0.089,
        "velocity": 1,
        "hand": "right"
      },
      {
        "midi": 73,
        "time": 8.125,
        "duration": 0.089,
        "velocity": 1,
        "hand": "right"
      },
      {
        "midi": 64,
        "time": 8.214,
        "duration": 0.089,
        "velocity": 1,
        "hand": "right"
      },
      {
        "midi": 72,
        "time": 8.214,
        "duration": 0.089,
        "velocity": 1,
        "hand": "right"
      },
      {
        "midi": 61,
        "time": 8.304,
        "duration": 0.089,
        "velocity": 1,
        "hand": "right"
      },
      {
        "midi": 73,
        "time": 8.304,
        "duration": 0.089,
        "velocity": 1,
        "hand": "right"
      },
      {
        "midi": 76,
        "time": 8.393,
        "duration": 0.089,
        "velocity": 1,
        "hand": "right"
      },
      {
        "midi": 56,
        "time": 8.482,
        "duration": 0.089,
        "velocity": 1,
        "hand": "left"
      },
      {
        "midi": 80,
        "time": 8.482,
        "duration": 0.089,
        "velocity": 1,
        "hand": "right"
      },
      {
        "midi": 51,
        "time": 8.571,
        "duration": 0.089,
        "velocity": 1,
        "hand": "left"
      },
      {
        "midi": 57,
        "time": 8.661,
        "duration": 0.089,
        "velocity": 1,
        "hand": "left"
      },
      {
        "midi": 69,
        "time": 8.661,
        "duration": 0.089,
        "velocity": 1,
        "hand": "right"
      },
      {
        "midi": 73,
        "time": 8.75,
        "duration": 0.089,
        "velocity": 1,
        "hand": "right"
      },
      {
        "midi": 61,
        "time": 8.839,
        "duration": 0.089,
        "velocity": 1,
        "hand": "right"
      },
      {
        "midi": 75,
        "time": 8.839,
        "duration": 0.089,
        "velocity": 1,
        "hand": "right"
      },
      {
        "midi": 66,
        "time": 8.929,
        "duration": 0.089,
        "velocity": 1,
        "hand": "right"
      },
      {
        "midi": 78,
        "time": 8.929,
        "duration": 0.089,
        "velocity": 1,
        "hand": "right"
      },
      {
        "midi": 61,
        "time": 9.018,
        "duration": 0.089,
        "velocity": 1,
        "hand": "right"
      },
      {
        "midi": 81,
        "time": 9.018,
        "duration": 0.089,
        "velocity": 1,
        "hand": "right"
      },
      {
        "midi": 85,
        "time": 9.107,
        "duration": 0.089,
        "velocity": 1,
        "hand": "right"
      },
      {
        "midi": 57,
        "time": 9.196,
        "duration": 0.089,
        "velocity": 1,
        "hand": "left"
      },
      {
        "midi": 87,
        "time": 9.196,
        "duration": 0.089,
        "velocity": 1,
        "hand": "right"
      },
      {
        "midi": 54,
        "time": 9.286,
        "duration": 0.089,
        "velocity": 1,
        "hand": "left"
      },
      {
        "midi": 95,
        "time": 9.286,
        "duration": 0.089,
        "velocity": 1,
        "hand": "right"
      },
      {
        "midi": 61,
        "time": 9.375,
        "duration": 0.089,
        "velocity": 1,
        "hand": "right"
      },
      {
        "midi": 93,
        "time": 9.375,
        "duration": 0.089,
        "velocity": 1,
        "hand": "right"
      },
      {
        "midi": 92,
        "time": 9.464,
        "duration": 0.089,
        "velocity": 1,
        "hand": "right"
      },
      {
        "midi": 63,
        "time": 9.554,
        "duration": 0.089,
        "velocity": 1,
        "hand": "right"
      },
      {
        "midi": 90,
        "time": 9.554,
        "duration": 0.089,
        "velocity": 1,
        "hand": "right"
      },
      {
        "midi": 69,
        "time": 9.643,
        "duration": 0.089,
        "velocity": 1,
        "hand": "right"
      },
      {
        "midi": 88,
        "time": 9.643,
        "duration": 0.089,
        "velocity": 1,
        "hand": "right"
      },
      {
        "midi": 63,
        "time": 9.732,
        "duration": 0.089,
        "velocity": 1,
        "hand": "right"
      },
      {
        "midi": 87,
        "time": 9.732,
        "duration": 0.089,
        "velocity": 1,
        "hand": "right"
      },
      {
        "midi": 90,
        "time": 9.821,
        "duration": 0.089,
        "velocity": 1,
        "hand": "right"
      },
      {
        "midi": 61,
        "time": 9.911,
        "duration": 0.089,
        "velocity": 1,
        "hand": "right"
      },
      {
        "midi": 85,
        "time": 9.911,
        "duration": 0.089,
        "velocity": 1,
        "hand": "right"
      },
      {
        "midi": 44,
        "time": 10,
        "duration": 0.089,
        "velocity": 1,
        "hand": "left"
      },
      {
        "midi": 84,
        "time": 10,
        "duration": 0.089,
        "velocity": 1,
        "hand": "right"
      },
      {
        "midi": 51,
        "time": 10.089,
        "duration": 0.089,
        "velocity": 1,
        "hand": "left"
      },
      {
        "midi": 87,
        "time": 10.089,
        "duration": 0.089,
        "velocity": 1,
        "hand": "right"
      },
      {
        "midi": 81,
        "time": 10.179,
        "duration": 0.089,
        "velocity": 1,
        "hand": "right"
      },
      {
        "midi": 54,
        "time": 10.268,
        "duration": 0.089,
        "velocity": 1,
        "hand": "left"
      },
      {
        "midi": 80,
        "time": 10.268,
        "duration": 0.089,
        "velocity": 1,
        "hand": "right"
      },
      {
        "midi": 60,
        "time": 10.357,
        "duration": 0.089,
        "velocity": 1,
        "hand": "right"
      },
      {
        "midi": 78,
        "time": 10.357,
        "duration": 0.089,
        "velocity": 1,
        "hand": "right"
      },
      {
        "midi": 54,
        "time": 10.446,
        "duration": 0.089,
        "velocity": 1,
        "hand": "left"
      },
      {
        "midi": 81,
        "time": 10.446,
        "duration": 0.089,
        "velocity": 1,
        "hand": "right"
      },
      {
        "midi": 76,
        "time": 10.536,
        "duration": 0.089,
        "velocity": 1,
        "hand": "right"
      },
      {
        "midi": 51,
        "time": 10.625,
        "duration": 0.089,
        "velocity": 1,
        "hand": "left"
      },
      {
        "midi": 75,
        "time": 10.625,
        "duration": 0.089,
        "velocity": 1,
        "hand": "right"
      },
      {
        "midi": 44,
        "time": 10.714,
        "duration": 0.089,
        "velocity": 1,
        "hand": "left"
      },
      {
        "midi": 78,
        "time": 10.714,
        "duration": 0.089,
        "velocity": 1,
        "hand": "right"
      },
      {
        "midi": 51,
        "time": 10.804,
        "duration": 0.089,
        "velocity": 1,
        "hand": "left"
      },
      {
        "midi": 73,
        "time": 10.804,
        "duration": 0.089,
        "velocity": 1,
        "hand": "right"
      },
      {
        "midi": 72,
        "time": 10.893,
        "duration": 0.089,
        "velocity": 1,
        "hand": "right"
      },
      {
        "midi": 54,
        "time": 10.982,
        "duration": 0.089,
        "velocity": 1,
        "hand": "left"
      },
      {
        "midi": 75,
        "time": 10.982,
        "duration": 0.089,
        "velocity": 1,
        "hand": "right"
      },
      {
        "midi": 60,
        "time": 11.071,
        "duration": 0.089,
        "velocity": 1,
        "hand": "right"
      },
      {
        "midi": 69,
        "time": 11.071,
        "duration": 0.089,
        "velocity": 1,
        "hand": "right"
      },
      {
        "midi": 54,
        "time": 11.161,
        "duration": 0.089,
        "velocity": 1,
        "hand": "left"
      },
      {
        "midi": 68,
        "time": 11.161,
        "duration": 0.089,
        "velocity": 1,
        "hand": "right"
      },
      {
        "midi": 71,
        "time": 11.25,
        "duration": 0.089,
        "velocity": 1,
        "hand": "right"
      },
      {
        "midi": 51,
        "time": 11.339,
        "duration": 0.089,
        "velocity": 1,
        "hand": "left"
      },
      {
        "midi": 69,
        "time": 11.339,
        "duration": 0.179,
        "velocity": 1,
        "hand": "right"
      },
      {
        "midi": 49,
        "time": 11.429,
        "duration": 0.089,
        "velocity": 1,
        "hand": "left"
      },
      {
        "midi": 56,
        "time": 11.518,
        "duration": 0.089,
        "velocity": 1,
        "hand": "left"
      },
      {
        "midi": 68,
        "time": 11.518,
        "duration": 0.089,
        "velocity": 1,
        "hand": "right"
      },
      {
        "midi": 69,
        "time": 11.607,
        "duration": 0.089,
        "velocity": 1,
        "hand": "right"
      },
      {
        "midi": 61,
        "time": 11.696,
        "duration": 0.089,
        "velocity": 1,
        "hand": "right"
      },
      {
        "midi": 68,
        "time": 11.696,
        "duration": 0.089,
        "velocity": 1,
        "hand": "right"
      },
      {
        "midi": 64,
        "time": 11.786,
        "duration": 0.089,
        "velocity": 1,
        "hand": "right"
      },
      {
        "midi": 67,
        "time": 11.786,
        "duration": 0.089,
        "velocity": 1,
        "hand": "right"
      },
      {
        "midi": 61,
        "time": 11.875,
        "duration": 0.089,
        "velocity": 1,
        "hand": "right"
      },
      {
        "midi": 68,
        "time": 11.875,
        "duration": 0.089,
        "velocity": 1,
        "hand": "right"
      },
      {
        "midi": 73,
        "time": 11.964,
        "duration": 0.089,
        "velocity": 1,
        "hand": "right"
      },
      {
        "midi": 56,
        "time": 12.054,
        "duration": 0.089,
        "velocity": 1,
        "hand": "left"
      },
      {
        "midi": 76,
        "time": 12.054,
        "duration": 0.089,
        "velocity": 1,
        "hand": "right"
      },
      {
        "midi": 52,
        "time": 12.143,
        "duration": 0.089,
        "velocity": 1,
        "hand": "left"
      },
      {
        "midi": 75,
        "time": 12.143,
        "duration": 0.089,
        "velocity": 1,
        "hand": "right"
      },
      {
        "midi": 56,
        "time": 12.232,
        "duration": 0.089,
        "velocity": 1,
        "hand": "left"
      },
      {
        "midi": 73,
        "time": 12.232,
        "duration": 0.089,
        "velocity": 1,
        "hand": "right"
      },
      {
        "midi": 75,
        "time": 12.321,
        "duration": 0.089,
        "velocity": 1,
        "hand": "right"
      },
      {
        "midi": 61,
        "time": 12.411,
        "duration": 0.089,
        "velocity": 1,
        "hand": "right"
      },
      {
        "midi": 73,
        "time": 12.411,
        "duration": 0.089,
        "velocity": 1,
        "hand": "right"
      },
      {
        "midi": 64,
        "time": 12.5,
        "duration": 0.089,
        "velocity": 1,
        "hand": "right"
      },
      {
        "midi": 72,
        "time": 12.5,
        "duration": 0.089,
        "velocity": 1,
        "hand": "right"
      },
      {
        "midi": 61,
        "time": 12.589,
        "duration": 0.089,
        "velocity": 1,
        "hand": "right"
      },
      {
        "midi": 73,
        "time": 12.589,
        "duration": 0.089,
        "velocity": 1,
        "hand": "right"
      },
      {
        "midi": 76,
        "time": 12.679,
        "duration": 0.089,
        "velocity": 1,
        "hand": "right"
      },
      {
        "midi": 56,
        "time": 12.768,
        "duration": 0.089,
        "velocity": 1,
        "hand": "left"
      },
      {
        "midi": 80,
        "time": 12.768,
        "duration": 0.089,
        "velocity": 1,
        "hand": "right"
      },
      {
        "midi": 49,
        "time": 12.857,
        "duration": 0.089,
        "velocity": 1,
        "hand": "left"
      },
      {
        "midi": 56,
        "time": 12.946,
        "duration": 0.089,
        "velocity": 1,
        "hand": "left"
      },
      {
        "midi": 68,
        "time": 12.946,
        "duration": 0.089,
        "velocity": 1,
        "hand": "right"
      },
      {
        "midi": 70,
        "time": 13.036,
        "duration": 0.089,
        "velocity": 1,
        "hand": "right"
      },
      {
        "midi": 58,
        "time": 13.125,
        "duration": 0.089,
        "velocity": 1,
        "hand": "left"
      },
      {
        "midi": 68,
        "time": 13.125,
        "duration": 0.089,
        "velocity": 1,
        "hand": "right"
      },
      {
        "midi": 64,
        "time": 13.214,
        "duration": 0.089,
        "velocity": 1,
        "hand": "right"
      },
      {
        "midi": 67,
        "time": 13.214,
        "duration": 0.089,
        "velocity": 1,
        "hand": "right"
      },
      {
        "midi": 58,
        "time": 13.304,
        "duration": 0.089,
        "velocity": 1,
        "hand": "left"
      },
      {
        "midi": 68,
        "time": 13.304,
        "duration": 0.089,
        "velocity": 1,
        "hand": "right"
      },
      {
        "midi": 73,
        "time": 13.393,
        "duration": 0.089,
        "velocity": 1,
        "hand": "right"
      },
      {
        "midi": 56,
        "time": 13.482,
        "duration": 0.089,
        "velocity": 1,
        "hand": "left"
      },
      {
        "midi": 76,
        "time": 13.482,
        "duration": 0.089,
        "velocity": 1,
        "hand": "right"
      },
      {
        "midi": 52,
        "time": 13.571,
        "duration": 0.089,
        "velocity": 1,
        "hand": "left"
      },
      {
        "midi": 75,
        "time": 13.571,
        "duration": 0.089,
        "velocity": 1,
        "hand": "right"
      },
      {
        "midi": 56,
        "time": 13.661,
        "duration": 0.089,
        "velocity": 1,
        "hand": "left"
      },
      {
        "midi": 73,
        "time": 13.661,
        "duration": 0.089,
        "velocity": 1,
        "hand": "right"
      },
      {
        "midi": 75,
        "time": 13.75,
        "duration": 0.089,
        "velocity": 1,
        "hand": "right"
      },
      {
        "midi": 58,
        "time": 13.839,
        "duration": 0.089,
        "velocity": 1,
        "hand": "left"
      },
      {
        "midi": 73,
        "time": 13.839,
        "duration": 0.089,
        "velocity": 1,
        "hand": "right"
      },
      {
        "midi": 61,
        "time": 13.929,
        "duration": 0.089,
        "velocity": 1,
        "hand": "right"
      },
      {
        "midi": 72,
        "time": 13.929,
        "duration": 0.089,
        "velocity": 1,
        "hand": "right"
      },
      {
        "midi": 58,
        "time": 14.018,
        "duration": 0.089,
        "velocity": 1,
        "hand": "left"
      },
      {
        "midi": 73,
        "time": 14.018,
        "duration": 0.089,
        "velocity": 1,
        "hand": "right"
      },
      {
        "midi": 76,
        "time": 14.107,
        "duration": 0.089,
        "velocity": 1,
        "hand": "right"
      },
      {
        "midi": 56,
        "time": 14.196,
        "duration": 0.089,
        "velocity": 1,
        "hand": "left"
      },
      {
        "midi": 80,
        "time": 14.196,
        "duration": 0.089,
        "velocity": 1,
        "hand": "right"
      },
      {
        "midi": 51,
        "time": 14.286,
        "duration": 0.089,
        "velocity": 1,
        "hand": "left"
      },
      {
        "midi": 75,
        "time": 14.286,
        "duration": 0.089,
        "velocity": 1,
        "hand": "right"
      },
      {
        "midi": 56,
        "time": 14.375,
        "duration": 0.089,
        "velocity": 1,
        "hand": "left"
      },
      {
        "midi": 76,
        "time": 14.375,
        "duration": 0.089,
        "velocity": 1,
        "hand": "right"
      },
      {
        "midi": 75,
        "time": 14.464,
        "duration": 0.089,
        "velocity": 1,
        "hand": "right"
      },
      {
        "midi": 59,
        "time": 14.554,
        "duration": 0.089,
        "velocity": 1,
        "hand": "left"
      },
      {
        "midi": 74,
        "time": 14.554,
        "duration": 0.089,
        "velocity": 1,
        "hand": "right"
      },
      {
        "midi": 63,
        "time": 14.643,
        "duration": 0.089,
        "velocity": 1,
        "hand": "right"
      },
      {
        "midi": 75,
        "time": 14.643,
        "duration": 0.089,
        "velocity": 1,
        "hand": "right"
      },
      {
        "midi": 59,
        "time": 14.732,
        "duration": 0.089,
        "velocity": 1,
        "hand": "left"
      },
      {
        "midi": 83,
        "time": 14.732,
        "duration": 0.089,
        "velocity": 1,
        "hand": "right"
      },
      {
        "midi": 82,
        "time": 14.821,
        "duration": 0.089,
        "velocity": 1,
        "hand": "right"
      },
      {
        "midi": 56,
        "time": 14.911,
        "duration": 0.089,
        "velocity": 1,
        "hand": "left"
      },
      {
        "midi": 80,
        "time": 14.911,
        "duration": 0.089,
        "velocity": 1,
        "hand": "right"
      },
      {
        "midi": 51,
        "time": 15,
        "duration": 0.089,
        "velocity": 1,
        "hand": "left"
      },
      {
        "midi": 79,
        "time": 15,
        "duration": 0.089,
        "velocity": 1,
        "hand": "right"
      },
      {
        "midi": 58,
        "time": 15.089,
        "duration": 0.089,
        "velocity": 1,
        "hand": "left"
      },
      {
        "midi": 88,
        "time": 15.089,
        "duration": 0.089,
        "velocity": 1,
        "hand": "right"
      },
      {
        "midi": 87,
        "time": 15.179,
        "duration": 0.089,
        "velocity": 1,
        "hand": "right"
      },
      {
        "midi": 61,
        "time": 15.268,
        "duration": 0.089,
        "velocity": 1,
        "hand": "right"
      },
      {
        "midi": 85,
        "time": 15.268,
        "duration": 0.089,
        "velocity": 1,
        "hand": "right"
      },
      {
        "midi": 67,
        "time": 15.357,
        "duration": 0.089,
        "velocity": 1,
        "hand": "right"
      },
      {
        "midi": 83,
        "time": 15.357,
        "duration": 0.089,
        "velocity": 1,
        "hand": "right"
      },
      {
        "midi": 61,
        "time": 15.446,
        "duration": 0.089,
        "velocity": 1,
        "hand": "right"
      },
      {
        "midi": 82,
        "time": 15.446,
        "duration": 0.089,
        "velocity": 1,
        "hand": "right"
      },
      {
        "midi": 80,
        "time": 15.536,
        "duration": 0.089,
        "velocity": 1,
        "hand": "right"
      },
      {
        "midi": 58,
        "time": 15.625,
        "duration": 0.089,
        "velocity": 1,
        "hand": "left"
      },
      {
        "midi": 79,
        "time": 15.625,
        "duration": 0.089,
        "velocity": 1,
        "hand": "right"
      },
      {
        "midi": 44,
        "time": 15.714,
        "duration": 0.089,
        "velocity": 1,
        "hand": "left"
      },
      {
        "midi": 82,
        "time": 15.714,
        "duration": 0.089,
        "velocity": 1,
        "hand": "right"
      },
      {
        "midi": 51,
        "time": 15.804,
        "duration": 0.089,
        "velocity": 1,
        "hand": "left"
      },
      {
        "midi": 80,
        "time": 15.804,
        "duration": 0.089,
        "velocity": 1,
        "hand": "right"
      },
      {
        "midi": 83,
        "time": 15.893,
        "duration": 0.089,
        "velocity": 1,
        "hand": "right"
      },
      {
        "midi": 56,
        "time": 15.982,
        "duration": 0.089,
        "velocity": 1,
        "hand": "left"
      },
      {
        "midi": 74,
        "time": 15.982,
        "duration": 0.089,
        "velocity": 1,
        "hand": "right"
      },
      {
        "midi": 59,
        "time": 16.071,
        "duration": 0.089,
        "velocity": 1,
        "hand": "left"
      },
      {
        "midi": 76,
        "time": 16.071,
        "duration": 0.089,
        "velocity": 1,
        "hand": "right"
      },
      {
        "midi": 56,
        "time": 16.161,
        "duration": 0.089,
        "velocity": 1,
        "hand": "left"
      },
      {
        "midi": 75,
        "time": 16.161,
        "duration": 0.089,
        "velocity": 1,
        "hand": "right"
      },
      {
        "midi": 80,
        "time": 16.25,
        "duration": 0.089,
        "velocity": 1,
        "hand": "right"
      },
      {
        "midi": 51,
        "time": 16.339,
        "duration": 0.089,
        "velocity": 1,
        "hand": "left"
      },
      {
        "midi": 70,
        "time": 16.339,
        "duration": 0.089,
        "velocity": 1,
        "hand": "right"
      },
      {
        "midi": 44,
        "time": 16.429,
        "duration": 0.089,
        "velocity": 1,
        "hand": "left"
      },
      {
        "midi": 73,
        "time": 16.429,
        "duration": 0.089,
        "velocity": 1,
        "hand": "right"
      },
      {
        "midi": 51,
        "time": 16.518,
        "duration": 0.089,
        "velocity": 1,
        "hand": "left"
      },
      {
        "midi": 71,
        "time": 16.518,
        "duration": 0.089,
        "velocity": 1,
        "hand": "right"
      },
      {
        "midi": 75,
        "time": 16.607,
        "duration": 0.089,
        "velocity": 1,
        "hand": "right"
      },
      {
        "midi": 56,
        "time": 16.696,
        "duration": 0.089,
        "velocity": 1,
        "hand": "left"
      },
      {
        "midi": 67,
        "time": 16.696,
        "duration": 0.089,
        "velocity": 1,
        "hand": "right"
      },
      {
        "midi": 59,
        "time": 16.786,
        "duration": 0.089,
        "velocity": 1,
        "hand": "left"
      },
      {
        "midi": 70,
        "time": 16.786,
        "duration": 0.089,
        "velocity": 1,
        "hand": "right"
      },
      {
        "midi": 56,
        "time": 16.875,
        "duration": 0.089,
        "velocity": 1,
        "hand": "left"
      },
      {
        "midi": 68,
        "time": 16.875,
        "duration": 0.089,
        "velocity": 1,
        "hand": "right"
      },
      {
        "midi": 67,
        "time": 16.964,
        "duration": 0.089,
        "velocity": 1,
        "hand": "right"
      },
      {
        "midi": 51,
        "time": 17.054,
        "duration": 0.089,
        "velocity": 1,
        "hand": "left"
      },
      {
        "midi": 68,
        "time": 17.054,
        "duration": 0.089,
        "velocity": 1,
        "hand": "right"
      },
      {
        "midi": 45,
        "time": 17.143,
        "duration": 0.089,
        "velocity": 1,
        "hand": "left"
      },
      {
        "midi": 68,
        "time": 17.143,
        "duration": 0.089,
        "velocity": 1,
        "hand": "right"
      },
      {
        "midi": 49,
        "time": 17.232,
        "duration": 0.089,
        "velocity": 1,
        "hand": "left"
      },
      {
        "midi": 80,
        "time": 17.232,
        "duration": 0.089,
        "velocity": 1,
        "hand": "right"
      },
      {
        "midi": 72,
        "time": 17.321,
        "duration": 0.089,
        "velocity": 1,
        "hand": "right"
      },
      {
        "midi": 54,
        "time": 17.411,
        "duration": 0.089,
        "velocity": 1,
        "hand": "left"
      },
      {
        "midi": 73,
        "time": 17.411,
        "duration": 0.089,
        "velocity": 1,
        "hand": "right"
      },
      {
        "midi": 57,
        "time": 17.5,
        "duration": 0.089,
        "velocity": 1,
        "hand": "left"
      },
      {
        "midi": 66,
        "time": 17.5,
        "duration": 0.089,
        "velocity": 1,
        "hand": "right"
      },
      {
        "midi": 54,
        "time": 17.589,
        "duration": 0.089,
        "velocity": 1,
        "hand": "left"
      },
      {
        "midi": 78,
        "time": 17.589,
        "duration": 0.089,
        "velocity": 1,
        "hand": "right"
      },
      {
        "midi": 72,
        "time": 17.679,
        "duration": 0.089,
        "velocity": 1,
        "hand": "right"
      },
      {
        "midi": 49,
        "time": 17.768,
        "duration": 0.089,
        "velocity": 1,
        "hand": "left"
      },
      {
        "midi": 73,
        "time": 17.768,
        "duration": 0.089,
        "velocity": 1,
        "hand": "right"
      },
      {
        "midi": 45,
        "time": 17.857,
        "duration": 0.089,
        "velocity": 1,
        "hand": "left"
      },
      {
        "midi": 65,
        "time": 17.857,
        "duration": 0.089,
        "velocity": 1,
        "hand": "right"
      },
      {
        "midi": 49,
        "time": 17.946,
        "duration": 0.089,
        "velocity": 1,
        "hand": "left"
      },
      {
        "midi": 77,
        "time": 17.946,
        "duration": 0.089,
        "velocity": 1,
        "hand": "right"
      },
      {
        "midi": 72,
        "time": 18.036,
        "duration": 0.089,
        "velocity": 1,
        "hand": "right"
      },
      {
        "midi": 54,
        "time": 18.125,
        "duration": 0.089,
        "velocity": 1,
        "hand": "left"
      },
      {
        "midi": 73,
        "time": 18.125,
        "duration": 0.089,
        "velocity": 1,
        "hand": "right"
      },
      {
        "midi": 57,
        "time": 18.214,
        "duration": 0.089,
        "velocity": 1,
        "hand": "left"
      },
      {
        "midi": 66,
        "time": 18.214,
        "duration": 0.089,
        "velocity": 1,
        "hand": "right"
      },
      {
        "midi": 54,
        "time": 18.304,
        "duration": 0.089,
        "velocity": 1,
        "hand": "left"
      },
      {
        "midi": 78,
        "time": 18.304,
        "duration": 0.089,
        "velocity": 1,
        "hand": "right"
      },
      {
        "midi": 72,
        "time": 18.393,
        "duration": 0.089,
        "velocity": 1,
        "hand": "right"
      },
      {
        "midi": 49,
        "time": 18.482,
        "duration": 0.089,
        "velocity": 1,
        "hand": "left"
      },
      {
        "midi": 73,
        "time": 18.482,
        "duration": 0.089,
        "velocity": 1,
        "hand": "right"
      },
      {
        "midi": 47,
        "time": 18.571,
        "duration": 0.089,
        "velocity": 1,
        "hand": "left"
      },
      {
        "midi": 61,
        "time": 18.571,
        "duration": 0.089,
        "velocity": 1,
        "hand": "right"
      },
      {
        "midi": 54,
        "time": 18.661,
        "duration": 0.089,
        "velocity": 1,
        "hand": "left"
      },
      {
        "midi": 73,
        "time": 18.661,
        "duration": 0.089,
        "velocity": 1,
        "hand": "right"
      },
      {
        "midi": 66,
        "time": 18.75,
        "duration": 0.089,
        "velocity": 1,
        "hand": "right"
      },
      {
        "midi": 57,
        "time": 18.839,
        "duration": 0.089,
        "velocity": 1,
        "hand": "left"
      },
      {
        "midi": 69,
        "time": 18.839,
        "duration": 0.089,
        "velocity": 1,
        "hand": "right"
      },
      {
        "midi": 59,
        "time": 18.929,
        "duration": 0.089,
        "velocity": 1,
        "hand": "left"
      },
      {
        "midi": 63,
        "time": 18.929,
        "duration": 0.089,
        "velocity": 1,
        "hand": "right"
      },
      {
        "midi": 57,
        "time": 19.018,
        "duration": 0.089,
        "velocity": 1,
        "hand": "left"
      },
      {
        "midi": 75,
        "time": 19.018,
        "duration": 0.089,
        "velocity": 1,
        "hand": "right"
      },
      {
        "midi": 66,
        "time": 19.107,
        "duration": 0.089,
        "velocity": 1,
        "hand": "right"
      },
      {
        "midi": 54,
        "time": 19.196,
        "duration": 0.089,
        "velocity": 1,
        "hand": "left"
      },
      {
        "midi": 69,
        "time": 19.196,
        "duration": 0.089,
        "velocity": 1,
        "hand": "right"
      },
      {
        "midi": 40,
        "time": 19.286,
        "duration": 0.089,
        "velocity": 1,
        "hand": "left"
      },
      {
        "midi": 64,
        "time": 19.286,
        "duration": 0.089,
        "velocity": 1,
        "hand": "right"
      },
      {
        "midi": 47,
        "time": 19.375,
        "duration": 0.089,
        "velocity": 1,
        "hand": "left"
      },
      {
        "midi": 76,
        "time": 19.375,
        "duration": 0.089,
        "velocity": 1,
        "hand": "right"
      },
      {
        "midi": 68,
        "time": 19.464,
        "duration": 0.089,
        "velocity": 1,
        "hand": "right"
      },
      {
        "midi": 52,
        "time": 19.554,
        "duration": 0.089,
        "velocity": 1,
        "hand": "left"
      },
      {
        "midi": 71,
        "time": 19.554,
        "duration": 0.089,
        "velocity": 1,
        "hand": "right"
      },
      {
        "midi": 56,
        "time": 19.643,
        "duration": 0.089,
        "velocity": 1,
        "hand": "left"
      },
      {
        "midi": 68,
        "time": 19.643,
        "duration": 0.089,
        "velocity": 1,
        "hand": "right"
      },
      {
        "midi": 52,
        "time": 19.732,
        "duration": 0.089,
        "velocity": 1,
        "hand": "left"
      },
      {
        "midi": 80,
        "time": 19.732,
        "duration": 0.089,
        "velocity": 1,
        "hand": "right"
      },
      {
        "midi": 71,
        "time": 19.821,
        "duration": 0.089,
        "velocity": 1,
        "hand": "right"
      },
      {
        "midi": 47,
        "time": 19.911,
        "duration": 0.089,
        "velocity": 1,
        "hand": "left"
      },
      {
        "midi": 76,
        "time": 19.911,
        "duration": 0.089,
        "velocity": 1,
        "hand": "right"
      },
      {
        "midi": 45,
        "time": 20,
        "duration": 0.089,
        "velocity": 1,
        "hand": "left"
      },
      {
        "midi": 68,
        "time": 20,
        "duration": 0.089,
        "velocity": 1,
        "hand": "right"
      },
      {
        "midi": 49,
        "time": 20.089,
        "duration": 0.089,
        "velocity": 1,
        "hand": "left"
      },
      {
        "midi": 80,
        "time": 20.089,
        "duration": 0.089,
        "velocity": 1,
        "hand": "right"
      },
      {
        "midi": 72,
        "time": 20.179,
        "duration": 0.089,
        "velocity": 1,
        "hand": "right"
      },
      {
        "midi": 54,
        "time": 20.268,
        "duration": 0.089,
        "velocity": 1,
        "hand": "left"
      },
      {
        "midi": 73,
        "time": 20.268,
        "duration": 0.089,
        "velocity": 1,
        "hand": "right"
      },
      {
        "midi": 57,
        "time": 20.357,
        "duration": 0.089,
        "velocity": 1,
        "hand": "left"
      },
      {
        "midi": 66,
        "time": 20.357,
        "duration": 0.089,
        "velocity": 1,
        "hand": "right"
      },
      {
        "midi": 54,
        "time": 20.446,
        "duration": 0.089,
        "velocity": 1,
        "hand": "left"
      },
      {
        "midi": 78,
        "time": 20.446,
        "duration": 0.089,
        "velocity": 1,
        "hand": "right"
      },
      {
        "midi": 72,
        "time": 20.536,
        "duration": 0.089,
        "velocity": 1,
        "hand": "right"
      },
      {
        "midi": 49,
        "time": 20.625,
        "duration": 0.089,
        "velocity": 1,
        "hand": "left"
      },
      {
        "midi": 73,
        "time": 20.625,
        "duration": 0.089,
        "velocity": 1,
        "hand": "right"
      },
      {
        "midi": 45,
        "time": 20.714,
        "duration": 0.089,
        "velocity": 1,
        "hand": "left"
      },
      {
        "midi": 65,
        "time": 20.714,
        "duration": 0.089,
        "velocity": 1,
        "hand": "right"
      },
      {
        "midi": 49,
        "time": 20.804,
        "duration": 0.089,
        "velocity": 1,
        "hand": "left"
      },
      {
        "midi": 77,
        "time": 20.804,
        "duration": 0.089,
        "velocity": 1,
        "hand": "right"
      },
      {
        "midi": 72,
        "time": 20.893,
        "duration": 0.089,
        "velocity": 1,
        "hand": "right"
      },
      {
        "midi": 54,
        "time": 20.982,
        "duration": 0.089,
        "velocity": 1,
        "hand": "left"
      },
      {
        "midi": 73,
        "time": 20.982,
        "duration": 0.089,
        "velocity": 1,
        "hand": "right"
      },
      {
        "midi": 57,
        "time": 21.071,
        "duration": 0.089,
        "velocity": 1,
        "hand": "left"
      },
      {
        "midi": 66,
        "time": 21.071,
        "duration": 0.089,
        "velocity": 1,
        "hand": "right"
      },
      {
        "midi": 54,
        "time": 21.161,
        "duration": 0.089,
        "velocity": 1,
        "hand": "left"
      },
      {
        "midi": 78,
        "time": 21.161,
        "duration": 0.089,
        "velocity": 1,
        "hand": "right"
      },
      {
        "midi": 72,
        "time": 21.25,
        "duration": 0.089,
        "velocity": 1,
        "hand": "right"
      },
      {
        "midi": 49,
        "time": 21.339,
        "duration": 0.089,
        "velocity": 1,
        "hand": "left"
      },
      {
        "midi": 73,
        "time": 21.339,
        "duration": 0.089,
        "velocity": 1,
        "hand": "right"
      },
      {
        "midi": 47,
        "time": 21.429,
        "duration": 0.089,
        "velocity": 1,
        "hand": "left"
      },
      {
        "midi": 65,
        "time": 21.429,
        "duration": 0.089,
        "velocity": 1,
        "hand": "right"
      },
      {
        "midi": 54,
        "time": 21.518,
        "duration": 0.089,
        "velocity": 1,
        "hand": "left"
      },
      {
        "midi": 77,
        "time": 21.518,
        "duration": 0.089,
        "velocity": 1,
        "hand": "right"
      },
      {
        "midi": 71,
        "time": 21.607,
        "duration": 0.089,
        "velocity": 1,
        "hand": "right"
      },
      {
        "midi": 57,
        "time": 21.696,
        "duration": 0.089,
        "velocity": 1,
        "hand": "left"
      },
      {
        "midi": 75,
        "time": 21.696,
        "duration": 0.089,
        "velocity": 1,
        "hand": "right"
      },
      {
        "midi": 59,
        "time": 21.786,
        "duration": 0.089,
        "velocity": 1,
        "hand": "left"
      },
      {
        "midi": 66,
        "time": 21.786,
        "duration": 0.089,
        "velocity": 1,
        "hand": "right"
      },
      {
        "midi": 57,
        "time": 21.875,
        "duration": 0.089,
        "velocity": 1,
        "hand": "left"
      },
      {
        "midi": 78,
        "time": 21.875,
        "duration": 0.089,
        "velocity": 1,
        "hand": "right"
      },
      {
        "midi": 71,
        "time": 21.964,
        "duration": 0.089,
        "velocity": 1,
        "hand": "right"
      },
      {
        "midi": 54,
        "time": 22.054,
        "duration": 0.089,
        "velocity": 1,
        "hand": "left"
      },
      {
        "midi": 75,
        "time": 22.054,
        "duration": 0.089,
        "velocity": 1,
        "hand": "right"
      },
      {
        "midi": 40,
        "time": 22.143,
        "duration": 0.089,
        "velocity": 1,
        "hand": "left"
      },
      {
        "midi": 69,
        "time": 22.143,
        "duration": 0.089,
        "velocity": 1,
        "hand": "right"
      },
      {
        "midi": 47,
        "time": 22.232,
        "duration": 0.089,
        "velocity": 1,
        "hand": "left"
      },
      {
        "midi": 81,
        "time": 22.232,
        "duration": 0.089,
        "velocity": 1,
        "hand": "right"
      },
      {
        "midi": 71,
        "time": 22.321,
        "duration": 0.089,
        "velocity": 1,
        "hand": "right"
      },
      {
        "midi": 52,
        "time": 22.411,
        "duration": 0.089,
        "velocity": 1,
        "hand": "left"
      },
      {
        "midi": 76,
        "time": 22.411,
        "duration": 0.089,
        "velocity": 1,
        "hand": "right"
      },
      {
        "midi": 56,
        "time": 22.5,
        "duration": 0.089,
        "velocity": 1,
        "hand": "left"
      },
      {
        "midi": 68,
        "time": 22.5,
        "duration": 0.089,
        "velocity": 1,
        "hand": "right"
      },
      {
        "midi": 52,
        "time": 22.589,
        "duration": 0.089,
        "velocity": 1,
        "hand": "left"
      },
      {
        "midi": 80,
        "time": 22.589,
        "duration": 0.089,
        "velocity": 1,
        "hand": "right"
      },
      {
        "midi": 71,
        "time": 22.679,
        "duration": 0.089,
        "velocity": 1,
        "hand": "right"
      },
      {
        "midi": 47,
        "time": 22.768,
        "duration": 0.089,
        "velocity": 1,
        "hand": "left"
      },
      {
        "midi": 76,
        "time": 22.768,
        "duration": 0.089,
        "velocity": 1,
        "hand": "right"
      },
      {
        "midi": 45,
        "time": 22.857,
        "duration": 0.089,
        "velocity": 1,
        "hand": "left"
      },
      {
        "midi": 68,
        "time": 22.857,
        "duration": 0.089,
        "velocity": 1,
        "hand": "right"
      },
      {
        "midi": 49,
        "time": 22.946,
        "duration": 0.089,
        "velocity": 1,
        "hand": "left"
      },
      {
        "midi": 80,
        "time": 22.946,
        "duration": 0.089,
        "velocity": 1,
        "hand": "right"
      },
      {
        "midi": 72,
        "time": 23.036,
        "duration": 0.089,
        "velocity": 1,
        "hand": "right"
      },
      {
        "midi": 54,
        "time": 23.125,
        "duration": 0.089,
        "velocity": 1,
        "hand": "left"
      },
      {
        "midi": 73,
        "time": 23.125,
        "duration": 0.089,
        "velocity": 1,
        "hand": "right"
      },
      {
        "midi": 57,
        "time": 23.214,
        "duration": 0.089,
        "velocity": 1,
        "hand": "left"
      },
      {
        "midi": 66,
        "time": 23.214,
        "duration": 0.089,
        "velocity": 1,
        "hand": "right"
      },
      {
        "midi": 54,
        "time": 23.304,
        "duration": 0.089,
        "velocity": 1,
        "hand": "left"
      },
      {
        "midi": 78,
        "time": 23.304,
        "duration": 0.089,
        "velocity": 1,
        "hand": "right"
      },
      {
        "midi": 72,
        "time": 23.393,
        "duration": 0.089,
        "velocity": 1,
        "hand": "right"
      },
      {
        "midi": 49,
        "time": 23.482,
        "duration": 0.089,
        "velocity": 1,
        "hand": "left"
      },
      {
        "midi": 73,
        "time": 23.482,
        "duration": 0.089,
        "velocity": 1,
        "hand": "right"
      },
      {
        "midi": 45,
        "time": 23.571,
        "duration": 0.089,
        "velocity": 1,
        "hand": "left"
      },
      {
        "midi": 65,
        "time": 23.571,
        "duration": 0.089,
        "velocity": 1,
        "hand": "right"
      },
      {
        "midi": 49,
        "time": 23.661,
        "duration": 0.089,
        "velocity": 1,
        "hand": "left"
      },
      {
        "midi": 77,
        "time": 23.661,
        "duration": 0.089,
        "velocity": 1,
        "hand": "right"
      },
      {
        "midi": 72,
        "time": 23.75,
        "duration": 0.089,
        "velocity": 1,
        "hand": "right"
      },
      {
        "midi": 54,
        "time": 23.839,
        "duration": 0.089,
        "velocity": 1,
        "hand": "left"
      },
      {
        "midi": 73,
        "time": 23.839,
        "duration": 0.089,
        "velocity": 1,
        "hand": "right"
      },
      {
        "midi": 57,
        "time": 23.929,
        "duration": 0.089,
        "velocity": 1,
        "hand": "left"
      },
      {
        "midi": 66,
        "time": 23.929,
        "duration": 0.089,
        "velocity": 1,
        "hand": "right"
      },
      {
        "midi": 54,
        "time": 24.018,
        "duration": 0.089,
        "velocity": 1,
        "hand": "left"
      },
      {
        "midi": 78,
        "time": 24.018,
        "duration": 0.089,
        "velocity": 1,
        "hand": "right"
      },
      {
        "midi": 72,
        "time": 24.107,
        "duration": 0.089,
        "velocity": 1,
        "hand": "right"
      },
      {
        "midi": 49,
        "time": 24.196,
        "duration": 0.089,
        "velocity": 1,
        "hand": "left"
      },
      {
        "midi": 73,
        "time": 24.196,
        "duration": 0.089,
        "velocity": 1,
        "hand": "right"
      },
      {
        "midi": 47,
        "time": 24.286,
        "duration": 0.089,
        "velocity": 1,
        "hand": "left"
      },
      {
        "midi": 61,
        "time": 24.286,
        "duration": 0.089,
        "velocity": 1,
        "hand": "right"
      },
      {
        "midi": 54,
        "time": 24.375,
        "duration": 0.089,
        "velocity": 1,
        "hand": "left"
      },
      {
        "midi": 73,
        "time": 24.375,
        "duration": 0.089,
        "velocity": 1,
        "hand": "right"
      },
      {
        "midi": 66,
        "time": 24.464,
        "duration": 0.089,
        "velocity": 1,
        "hand": "right"
      },
      {
        "midi": 57,
        "time": 24.554,
        "duration": 0.089,
        "velocity": 1,
        "hand": "left"
      },
      {
        "midi": 69,
        "time": 24.554,
        "duration": 0.089,
        "velocity": 1,
        "hand": "right"
      },
      {
        "midi": 59,
        "time": 24.643,
        "duration": 0.089,
        "velocity": 1,
        "hand": "left"
      },
      {
        "midi": 63,
        "time": 24.643,
        "duration": 0.089,
        "velocity": 1,
        "hand": "right"
      },
      {
        "midi": 57,
        "time": 24.732,
        "duration": 0.089,
        "velocity": 1,
        "hand": "left"
      },
      {
        "midi": 75,
        "time": 24.732,
        "duration": 0.089,
        "velocity": 1,
        "hand": "right"
      },
      {
        "midi": 66,
        "time": 24.821,
        "duration": 0.089,
        "velocity": 1,
        "hand": "right"
      },
      {
        "midi": 54,
        "time": 24.911,
        "duration": 0.089,
        "velocity": 1,
        "hand": "left"
      },
      {
        "midi": 69,
        "time": 24.911,
        "duration": 0.089,
        "velocity": 1,
        "hand": "right"
      },
      {
        "midi": 40,
        "time": 25,
        "duration": 0.089,
        "velocity": 1,
        "hand": "left"
      },
      {
        "midi": 64,
        "time": 25,
        "duration": 0.089,
        "velocity": 1,
        "hand": "right"
      },
      {
        "midi": 47,
        "time": 25.089,
        "duration": 0.089,
        "velocity": 1,
        "hand": "left"
      },
      {
        "midi": 76,
        "time": 25.089,
        "duration": 0.089,
        "velocity": 1,
        "hand": "right"
      },
      {
        "midi": 68,
        "time": 25.179,
        "duration": 0.089,
        "velocity": 1,
        "hand": "right"
      },
      {
        "midi": 52,
        "time": 25.268,
        "duration": 0.089,
        "velocity": 1,
        "hand": "left"
      },
      {
        "midi": 71,
        "time": 25.268,
        "duration": 0.089,
        "velocity": 1,
        "hand": "right"
      },
      {
        "midi": 56,
        "time": 25.357,
        "duration": 0.089,
        "velocity": 1,
        "hand": "left"
      },
      {
        "midi": 68,
        "time": 25.357,
        "duration": 0.089,
        "velocity": 1,
        "hand": "right"
      },
      {
        "midi": 52,
        "time": 25.446,
        "duration": 0.089,
        "velocity": 1,
        "hand": "left"
      },
      {
        "midi": 80,
        "time": 25.446,
        "duration": 0.089,
        "velocity": 1,
        "hand": "right"
      },
      {
        "midi": 71,
        "time": 25.536,
        "duration": 0.089,
        "velocity": 1,
        "hand": "right"
      },
      {
        "midi": 47,
        "time": 25.625,
        "duration": 0.089,
        "velocity": 1,
        "hand": "left"
      },
      {
        "midi": 76,
        "time": 25.625,
        "duration": 0.089,
        "velocity": 1,
        "hand": "right"
      },
      {
        "midi": 45,
        "time": 25.714,
        "duration": 0.089,
        "velocity": 1,
        "hand": "left"
      },
      {
        "midi": 68,
        "time": 25.714,
        "duration": 0.089,
        "velocity": 1,
        "hand": "right"
      },
      {
        "midi": 49,
        "time": 25.804,
        "duration": 0.089,
        "velocity": 1,
        "hand": "left"
      },
      {
        "midi": 80,
        "time": 25.804,
        "duration": 0.089,
        "velocity": 1,
        "hand": "right"
      },
      {
        "midi": 72,
        "time": 25.893,
        "duration": 0.089,
        "velocity": 1,
        "hand": "right"
      },
      {
        "midi": 54,
        "time": 25.982,
        "duration": 0.089,
        "velocity": 1,
        "hand": "left"
      },
      {
        "midi": 73,
        "time": 25.982,
        "duration": 0.089,
        "velocity": 1,
        "hand": "right"
      },
      {
        "midi": 57,
        "time": 26.071,
        "duration": 0.089,
        "velocity": 1,
        "hand": "left"
      },
      {
        "midi": 66,
        "time": 26.071,
        "duration": 0.089,
        "velocity": 1,
        "hand": "right"
      },
      {
        "midi": 54,
        "time": 26.161,
        "duration": 0.089,
        "velocity": 1,
        "hand": "left"
      },
      {
        "midi": 78,
        "time": 26.161,
        "duration": 0.089,
        "velocity": 1,
        "hand": "right"
      },
      {
        "midi": 72,
        "time": 26.25,
        "duration": 0.089,
        "velocity": 1,
        "hand": "right"
      },
      {
        "midi": 49,
        "time": 26.339,
        "duration": 0.089,
        "velocity": 1,
        "hand": "left"
      },
      {
        "midi": 73,
        "time": 26.339,
        "duration": 0.089,
        "velocity": 1,
        "hand": "right"
      },
      {
        "midi": 45,
        "time": 26.429,
        "duration": 0.089,
        "velocity": 1,
        "hand": "left"
      },
      {
        "midi": 75,
        "time": 26.429,
        "duration": 0.089,
        "velocity": 1,
        "hand": "right"
      },
      {
        "midi": 51,
        "time": 26.518,
        "duration": 0.089,
        "velocity": 1,
        "hand": "left"
      },
      {
        "midi": 87,
        "time": 26.518,
        "duration": 0.089,
        "velocity": 1,
        "hand": "right"
      },
      {
        "midi": 78,
        "time": 26.607,
        "duration": 0.089,
        "velocity": 1,
        "hand": "right"
      },
      {
        "midi": 54,
        "time": 26.696,
        "duration": 0.089,
        "velocity": 1,
        "hand": "left"
      },
      {
        "midi": 81,
        "time": 26.696,
        "duration": 0.089,
        "velocity": 1,
        "hand": "right"
      },
      {
        "midi": 57,
        "time": 26.786,
        "duration": 0.089,
        "velocity": 1,
        "hand": "left"
      },
      {
        "midi": 73,
        "time": 26.786,
        "duration": 0.089,
        "velocity": 1,
        "hand": "right"
      },
      {
        "midi": 54,
        "time": 26.875,
        "duration": 0.089,
        "velocity": 1,
        "hand": "left"
      },
      {
        "midi": 85,
        "time": 26.875,
        "duration": 0.089,
        "velocity": 1,
        "hand": "right"
      },
      {
        "midi": 78,
        "time": 26.964,
        "duration": 0.089,
        "velocity": 1,
        "hand": "right"
      },
      {
        "midi": 51,
        "time": 27.054,
        "duration": 0.089,
        "velocity": 1,
        "hand": "left"
      },
      {
        "midi": 81,
        "time": 27.054,
        "duration": 0.089,
        "velocity": 1,
        "hand": "right"
      },
      {
        "midi": 44,
        "time": 27.143,
        "duration": 0.089,
        "velocity": 1,
        "hand": "left"
      },
      {
        "midi": 73,
        "time": 27.143,
        "duration": 0.089,
        "velocity": 1,
        "hand": "right"
      },
      {
        "midi": 51,
        "time": 27.232,
        "duration": 0.089,
        "velocity": 1,
        "hand": "left"
      },
      {
        "midi": 85,
        "time": 27.232,
        "duration": 0.089,
        "velocity": 1,
        "hand": "right"
      },
      {
        "midi": 75,
        "time": 27.321,
        "duration": 0.089,
        "velocity": 1,
        "hand": "right"
      },
      {
        "midi": 54,
        "time": 27.411,
        "duration": 0.089,
        "velocity": 1,
        "hand": "left"
      },
      {
        "midi": 78,
        "time": 27.411,
        "duration": 0.089,
        "velocity": 1,
        "hand": "right"
      },
      {
        "midi": 60,
        "time": 27.5,
        "duration": 0.089,
        "velocity": 1,
        "hand": "right"
      },
      {
        "midi": 72,
        "time": 27.5,
        "duration": 0.089,
        "velocity": 1,
        "hand": "right"
      },
      {
        "midi": 54,
        "time": 27.589,
        "duration": 0.089,
        "velocity": 1,
        "hand": "left"
      },
      {
        "midi": 84,
        "time": 27.589,
        "duration": 0.089,
        "velocity": 1,
        "hand": "right"
      },
      {
        "midi": 75,
        "time": 27.679,
        "duration": 0.089,
        "velocity": 1,
        "hand": "right"
      },
      {
        "midi": 51,
        "time": 27.768,
        "duration": 0.089,
        "velocity": 1,
        "hand": "left"
      },
      {
        "midi": 78,
        "time": 27.768,
        "duration": 0.089,
        "velocity": 1,
        "hand": "right"
      },
      {
        "midi": 44,
        "time": 27.857,
        "duration": 0.089,
        "velocity": 1,
        "hand": "left"
      },
      {
        "midi": 72,
        "time": 27.857,
        "duration": 0.089,
        "velocity": 1,
        "hand": "right"
      },
      {
        "midi": 51,
        "time": 27.946,
        "duration": 0.089,
        "velocity": 1,
        "hand": "left"
      },
      {
        "midi": 84,
        "time": 27.946,
        "duration": 0.089,
        "velocity": 1,
        "hand": "right"
      },
      {
        "midi": 75,
        "time": 28.036,
        "duration": 0.089,
        "velocity": 1,
        "hand": "right"
      },
      {
        "midi": 54,
        "time": 28.125,
        "duration": 0.089,
        "velocity": 1,
        "hand": "left"
      },
      {
        "midi": 78,
        "time": 28.125,
        "duration": 0.089,
        "velocity": 1,
        "hand": "right"
      },
      {
        "midi": 60,
        "time": 28.214,
        "duration": 0.089,
        "velocity": 1,
        "hand": "right"
      },
      {
        "midi": 72,
        "time": 28.214,
        "duration": 0.089,
        "velocity": 1,
        "hand": "right"
      },
      {
        "midi": 54,
        "time": 28.304,
        "duration": 0.089,
        "velocity": 1,
        "hand": "left"
      },
      {
        "midi": 84,
        "time": 28.304,
        "duration": 0.089,
        "velocity": 1,
        "hand": "right"
      },
      {
        "midi": 75,
        "time": 28.393,
        "duration": 0.089,
        "velocity": 1,
        "hand": "right"
      },
      {
        "midi": 51,
        "time": 28.482,
        "duration": 0.089,
        "velocity": 1,
        "hand": "left"
      },
      {
        "midi": 78,
        "time": 28.482,
        "duration": 0.089,
        "velocity": 1,
        "hand": "right"
      },
      {
        "midi": 45,
        "time": 28.571,
        "duration": 0.089,
        "velocity": 1,
        "hand": "left"
      },
      {
        "midi": 72,
        "time": 28.571,
        "duration": 0.089,
        "velocity": 1,
        "hand": "right"
      },
      {
        "midi": 51,
        "time": 28.661,
        "duration": 0.089,
        "velocity": 1,
        "hand": "left"
      },
      {
        "midi": 84,
        "time": 28.661,
        "duration": 0.089,
        "velocity": 1,
        "hand": "right"
      },
      {
        "midi": 75,
        "time": 28.75,
        "duration": 0.089,
        "velocity": 1,
        "hand": "right"
      },
      {
        "midi": 54,
        "time": 28.839,
        "duration": 0.089,
        "velocity": 1,
        "hand": "left"
      },
      {
        "midi": 78,
        "time": 28.839,
        "duration": 0.089,
        "velocity": 1,
        "hand": "right"
      },
      {
        "midi": 59,
        "time": 28.929,
        "duration": 0.089,
        "velocity": 1,
        "hand": "left"
      },
      {
        "midi": 71,
        "time": 28.929,
        "duration": 0.089,
        "velocity": 1,
        "hand": "right"
      },
      {
        "midi": 54,
        "time": 29.018,
        "duration": 0.089,
        "velocity": 1,
        "hand": "left"
      },
      {
        "midi": 83,
        "time": 29.018,
        "duration": 0.089,
        "velocity": 1,
        "hand": "right"
      },
      {
        "midi": 75,
        "time": 29.107,
        "duration": 0.089,
        "velocity": 1,
        "hand": "right"
      },
      {
        "midi": 51,
        "time": 29.196,
        "duration": 0.089,
        "velocity": 1,
        "hand": "left"
      },
      {
        "midi": 78,
        "time": 29.196,
        "duration": 0.089,
        "velocity": 1,
        "hand": "right"
      },
      {
        "midi": 46,
        "time": 29.286,
        "duration": 0.089,
        "velocity": 1,
        "hand": "left"
      },
      {
        "midi": 71,
        "time": 29.286,
        "duration": 0.089,
        "velocity": 1,
        "hand": "right"
      },
      {
        "midi": 51,
        "time": 29.375,
        "duration": 0.089,
        "velocity": 1,
        "hand": "left"
      },
      {
        "midi": 83,
        "time": 29.375,
        "duration": 0.089,
        "velocity": 1,
        "hand": "right"
      },
      {
        "midi": 75,
        "time": 29.464,
        "duration": 0.089,
        "velocity": 1,
        "hand": "right"
      },
      {
        "midi": 54,
        "time": 29.554,
        "duration": 0.089,
        "velocity": 1,
        "hand": "left"
      },
      {
        "midi": 78,
        "time": 29.554,
        "duration": 0.089,
        "velocity": 1,
        "hand": "right"
      },
      {
        "midi": 58,
        "time": 29.643,
        "duration": 0.089,
        "velocity": 1,
        "hand": "left"
      },
      {
        "midi": 70,
        "time": 29.643,
        "duration": 0.089,
        "velocity": 1,
        "hand": "right"
      },
      {
        "midi": 54,
        "time": 29.732,
        "duration": 0.089,
        "velocity": 1,
        "hand": "left"
      },
      {
        "midi": 82,
        "time": 29.732,
        "duration": 0.089,
        "velocity": 1,
        "hand": "right"
      },
      {
        "midi": 75,
        "time": 29.821,
        "duration": 0.089,
        "velocity": 1,
        "hand": "right"
      },
      {
        "midi": 51,
        "time": 29.911,
        "duration": 0.089,
        "velocity": 1,
        "hand": "left"
      },
      {
        "midi": 78,
        "time": 29.911,
        "duration": 0.089,
        "velocity": 1,
        "hand": "right"
      },
      {
        "midi": 48,
        "time": 30,
        "duration": 0.089,
        "velocity": 1,
        "hand": "left"
      },
      {
        "midi": 70,
        "time": 30,
        "duration": 0.089,
        "velocity": 1,
        "hand": "right"
      },
      {
        "midi": 51,
        "time": 30.089,
        "duration": 0.089,
        "velocity": 1,
        "hand": "left"
      },
      {
        "midi": 82,
        "time": 30.089,
        "duration": 0.089,
        "velocity": 1,
        "hand": "right"
      },
      {
        "midi": 75,
        "time": 30.179,
        "duration": 0.089,
        "velocity": 1,
        "hand": "right"
      },
      {
        "midi": 54,
        "time": 30.268,
        "duration": 0.089,
        "velocity": 1,
        "hand": "left"
      },
      {
        "midi": 78,
        "time": 30.268,
        "duration": 0.089,
        "velocity": 1,
        "hand": "right"
      },
      {
        "midi": 57,
        "time": 30.357,
        "duration": 0.089,
        "velocity": 1,
        "hand": "left"
      },
      {
        "midi": 69,
        "time": 30.357,
        "duration": 0.089,
        "velocity": 1,
        "hand": "right"
      },
      {
        "midi": 54,
        "time": 30.446,
        "duration": 0.089,
        "velocity": 1,
        "hand": "left"
      },
      {
        "midi": 81,
        "time": 30.446,
        "duration": 0.089,
        "velocity": 1,
        "hand": "right"
      },
      {
        "midi": 75,
        "time": 30.536,
        "duration": 0.089,
        "velocity": 1,
        "hand": "right"
      },
      {
        "midi": 51,
        "time": 30.625,
        "duration": 0.089,
        "velocity": 1,
        "hand": "left"
      },
      {
        "midi": 78,
        "time": 30.625,
        "duration": 0.089,
        "velocity": 1,
        "hand": "right"
      },
      {
        "midi": 48,
        "time": 30.714,
        "duration": 0.089,
        "velocity": 1,
        "hand": "left"
      },
      {
        "midi": 69,
        "time": 30.714,
        "duration": 0.089,
        "velocity": 1,
        "hand": "right"
      },
      {
        "midi": 51,
        "time": 30.804,
        "duration": 0.089,
        "velocity": 1,
        "hand": "left"
      },
      {
        "midi": 81,
        "time": 30.804,
        "duration": 0.089,
        "velocity": 1,
        "hand": "right"
      },
      {
        "midi": 75,
        "time": 30.893,
        "duration": 0.089,
        "velocity": 1,
        "hand": "right"
      },
      {
        "midi": 54,
        "time": 30.982,
        "duration": 0.089,
        "velocity": 1,
        "hand": "left"
      },
      {
        "midi": 78,
        "time": 30.982,
        "duration": 0.089,
        "velocity": 1,
        "hand": "right"
      },
      {
        "midi": 57,
        "time": 31.071,
        "duration": 0.089,
        "velocity": 1,
        "hand": "left"
      },
      {
        "midi": 69,
        "time": 31.071,
        "duration": 0.089,
        "velocity": 1,
        "hand": "right"
      },
      {
        "midi": 54,
        "time": 31.161,
        "duration": 0.089,
        "velocity": 1,
        "hand": "left"
      },
      {
        "midi": 81,
        "time": 31.161,
        "duration": 0.089,
        "velocity": 1,
        "hand": "right"
      },
      {
        "midi": 75,
        "time": 31.25,
        "duration": 0.089,
        "velocity": 1,
        "hand": "right"
      },
      {
        "midi": 51,
        "time": 31.339,
        "duration": 0.089,
        "velocity": 1,
        "hand": "left"
      },
      {
        "midi": 78,
        "time": 31.339,
        "duration": 0.089,
        "velocity": 1,
        "hand": "right"
      },
      {
        "midi": 45,
        "time": 31.429,
        "duration": 0.089,
        "velocity": 1,
        "hand": "left"
      },
      {
        "midi": 72,
        "time": 31.429,
        "duration": 0.089,
        "velocity": 1,
        "hand": "right"
      },
      {
        "midi": 51,
        "time": 31.518,
        "duration": 0.089,
        "velocity": 1,
        "hand": "left"
      },
      {
        "midi": 84,
        "time": 31.518,
        "duration": 0.089,
        "velocity": 1,
        "hand": "right"
      },
      {
        "midi": 75,
        "time": 31.607,
        "duration": 0.089,
        "velocity": 1,
        "hand": "right"
      },
      {
        "midi": 54,
        "time": 31.696,
        "duration": 0.089,
        "velocity": 1,
        "hand": "left"
      },
      {
        "midi": 78,
        "time": 31.696,
        "duration": 0.089,
        "velocity": 1,
        "hand": "right"
      },
      {
        "midi": 59,
        "time": 31.786,
        "duration": 0.089,
        "velocity": 1,
        "hand": "left"
      },
      {
        "midi": 71,
        "time": 31.786,
        "duration": 0.089,
        "velocity": 1,
        "hand": "right"
      },
      {
        "midi": 54,
        "time": 31.875,
        "duration": 0.089,
        "velocity": 1,
        "hand": "left"
      },
      {
        "midi": 83,
        "time": 31.875,
        "duration": 0.089,
        "velocity": 1,
        "hand": "right"
      },
      {
        "midi": 75,
        "time": 31.964,
        "duration": 0.089,
        "velocity": 1,
        "hand": "right"
      },
      {
        "midi": 51,
        "time": 32.054,
        "duration": 0.089,
        "velocity": 1,
        "hand": "left"
      },
      {
        "midi": 78,
        "time": 32.054,
        "duration": 0.089,
        "velocity": 1,
        "hand": "right"
      },
      {
        "midi": 46,
        "time": 32.143,
        "duration": 0.089,
        "velocity": 1,
        "hand": "left"
      },
      {
        "midi": 71,
        "time": 32.143,
        "duration": 0.089,
        "velocity": 1,
        "hand": "right"
      },
      {
        "midi": 51,
        "time": 32.232,
        "duration": 0.089,
        "velocity": 1,
        "hand": "left"
      },
      {
        "midi": 83,
        "time": 32.232,
        "duration": 0.089,
        "velocity": 1,
        "hand": "right"
      },
      {
        "midi": 75,
        "time": 32.321,
        "duration": 0.089,
        "velocity": 1,
        "hand": "right"
      },
      {
        "midi": 54,
        "time": 32.411,
        "duration": 0.089,
        "velocity": 1,
        "hand": "left"
      },
      {
        "midi": 78,
        "time": 32.411,
        "duration": 0.089,
        "velocity": 1,
        "hand": "right"
      },
      {
        "midi": 58,
        "time": 32.5,
        "duration": 0.089,
        "velocity": 1,
        "hand": "left"
      },
      {
        "midi": 70,
        "time": 32.5,
        "duration": 0.089,
        "velocity": 1,
        "hand": "right"
      },
      {
        "midi": 54,
        "time": 32.589,
        "duration": 0.089,
        "velocity": 1,
        "hand": "left"
      },
      {
        "midi": 82,
        "time": 32.589,
        "duration": 0.089,
        "velocity": 1,
        "hand": "right"
      },
      {
        "midi": 75,
        "time": 32.679,
        "duration": 0.089,
        "velocity": 1,
        "hand": "right"
      },
      {
        "midi": 51,
        "time": 32.768,
        "duration": 0.089,
        "velocity": 1,
        "hand": "left"
      },
      {
        "midi": 78,
        "time": 32.768,
        "duration": 0.089,
        "velocity": 1,
        "hand": "right"
      },
      {
        "midi": 47,
        "time": 32.857,
        "duration": 0.089,
        "velocity": 1,
        "hand": "left"
      },
      {
        "midi": 70,
        "time": 32.857,
        "duration": 0.089,
        "velocity": 1,
        "hand": "right"
      },
      {
        "midi": 51,
        "time": 32.946,
        "duration": 0.089,
        "velocity": 1,
        "hand": "left"
      },
      {
        "midi": 82,
        "time": 32.946,
        "duration": 0.089,
        "velocity": 1,
        "hand": "right"
      },
      {
        "midi": 75,
        "time": 33.036,
        "duration": 0.089,
        "velocity": 1,
        "hand": "right"
      },
      {
        "midi": 54,
        "time": 33.125,
        "duration": 0.089,
        "velocity": 1,
        "hand": "left"
      },
      {
        "midi": 78,
        "time": 33.125,
        "duration": 0.089,
        "velocity": 1,
        "hand": "right"
      },
      {
        "midi": 57,
        "time": 33.214,
        "duration": 0.089,
        "velocity": 1,
        "hand": "left"
      },
      {
        "midi": 69,
        "time": 33.214,
        "duration": 0.089,
        "velocity": 1,
        "hand": "right"
      },
      {
        "midi": 54,
        "time": 33.304,
        "duration": 0.089,
        "velocity": 1,
        "hand": "left"
      },
      {
        "midi": 81,
        "time": 33.304,
        "duration": 0.089,
        "velocity": 1,
        "hand": "right"
      },
      {
        "midi": 75,
        "time": 33.393,
        "duration": 0.089,
        "velocity": 1,
        "hand": "right"
      },
      {
        "midi": 51,
        "time": 33.482,
        "duration": 0.089,
        "velocity": 1,
        "hand": "left"
      },
      {
        "midi": 78,
        "time": 33.482,
        "duration": 0.089,
        "velocity": 1,
        "hand": "right"
      },
      {
        "midi": 48,
        "time": 33.571,
        "duration": 0.089,
        "velocity": 1,
        "hand": "left"
      },
      {
        "midi": 69,
        "time": 33.571,
        "duration": 0.089,
        "velocity": 1,
        "hand": "right"
      },
      {
        "midi": 51,
        "time": 33.661,
        "duration": 0.089,
        "velocity": 1,
        "hand": "left"
      },
      {
        "midi": 81,
        "time": 33.661,
        "duration": 0.089,
        "velocity": 1,
        "hand": "right"
      },
      {
        "midi": 75,
        "time": 33.75,
        "duration": 0.089,
        "velocity": 1,
        "hand": "right"
      },
      {
        "midi": 54,
        "time": 33.839,
        "duration": 0.089,
        "velocity": 1,
        "hand": "left"
      },
      {
        "midi": 78,
        "time": 33.839,
        "duration": 0.089,
        "velocity": 1,
        "hand": "right"
      },
      {
        "midi": 56,
        "time": 33.929,
        "duration": 0.089,
        "velocity": 1,
        "hand": "left"
      },
      {
        "midi": 68,
        "time": 33.929,
        "duration": 0.089,
        "velocity": 1,
        "hand": "right"
      },
      {
        "midi": 54,
        "time": 34.018,
        "duration": 0.089,
        "velocity": 1,
        "hand": "left"
      },
      {
        "midi": 80,
        "time": 34.018,
        "duration": 0.089,
        "velocity": 1,
        "hand": "right"
      },
      {
        "midi": 75,
        "time": 34.107,
        "duration": 0.089,
        "velocity": 1,
        "hand": "right"
      },
      {
        "midi": 51,
        "time": 34.196,
        "duration": 0.089,
        "velocity": 1,
        "hand": "left"
      },
      {
        "midi": 78,
        "time": 34.196,
        "duration": 0.089,
        "velocity": 1,
        "hand": "right"
      },
      {
        "midi": 49,
        "time": 34.286,
        "duration": 0.089,
        "velocity": 1,
        "hand": "left"
      },
      {
        "midi": 56,
        "time": 34.375,
        "duration": 0.089,
        "velocity": 1,
        "hand": "left"
      },
      {
        "midi": 68,
        "time": 34.375,
        "duration": 0.089,
        "velocity": 1,
        "hand": "right"
      },
      {
        "midi": 69,
        "time": 34.464,
        "duration": 0.089,
        "velocity": 1,
        "hand": "right"
      },
      {
        "midi": 61,
        "time": 34.554,
        "duration": 0.089,
        "velocity": 1,
        "hand": "right"
      },
      {
        "midi": 68,
        "time": 34.554,
        "duration": 0.089,
        "velocity": 1,
        "hand": "right"
      },
      {
        "midi": 64,
        "time": 34.643,
        "duration": 0.089,
        "velocity": 1,
        "hand": "right"
      },
      {
        "midi": 67,
        "time": 34.643,
        "duration": 0.089,
        "velocity": 1,
        "hand": "right"
      },
      {
        "midi": 61,
        "time": 34.732,
        "duration": 0.089,
        "velocity": 1,
        "hand": "right"
      },
      {
        "midi": 68,
        "time": 34.732,
        "duration": 0.089,
        "velocity": 1,
        "hand": "right"
      },
      {
        "midi": 73,
        "time": 34.821,
        "duration": 0.089,
        "velocity": 1,
        "hand": "right"
      },
      {
        "midi": 56,
        "time": 34.911,
        "duration": 0.089,
        "velocity": 1,
        "hand": "left"
      },
      {
        "midi": 76,
        "time": 34.911,
        "duration": 0.089,
        "velocity": 1,
        "hand": "right"
      },
      {
        "midi": 52,
        "time": 35,
        "duration": 0.089,
        "velocity": 1,
        "hand": "left"
      },
      {
        "midi": 75,
        "time": 35,
        "duration": 0.089,
        "velocity": 1,
        "hand": "right"
      },
      {
        "midi": 56,
        "time": 35.089,
        "duration": 0.089,
        "velocity": 1,
        "hand": "left"
      },
      {
        "midi": 73,
        "time": 35.089,
        "duration": 0.089,
        "velocity": 1,
        "hand": "right"
      },
      {
        "midi": 75,
        "time": 35.179,
        "duration": 0.089,
        "velocity": 1,
        "hand": "right"
      },
      {
        "midi": 61,
        "time": 35.268,
        "duration": 0.089,
        "velocity": 1,
        "hand": "right"
      },
      {
        "midi": 73,
        "time": 35.268,
        "duration": 0.089,
        "velocity": 1,
        "hand": "right"
      },
      {
        "midi": 64,
        "time": 35.357,
        "duration": 0.089,
        "velocity": 1,
        "hand": "right"
      },
      {
        "midi": 72,
        "time": 35.357,
        "duration": 0.089,
        "velocity": 1,
        "hand": "right"
      },
      {
        "midi": 61,
        "time": 35.446,
        "duration": 0.089,
        "velocity": 1,
        "hand": "right"
      },
      {
        "midi": 73,
        "time": 35.446,
        "duration": 0.089,
        "velocity": 1,
        "hand": "right"
      },
      {
        "midi": 76,
        "time": 35.536,
        "duration": 0.089,
        "velocity": 1,
        "hand": "right"
      },
      {
        "midi": 56,
        "time": 35.625,
        "duration": 0.089,
        "velocity": 1,
        "hand": "left"
      },
      {
        "midi": 80,
        "time": 35.625,
        "duration": 0.089,
        "velocity": 1,
        "hand": "right"
      },
      {
        "midi": 49,
        "time": 35.714,
        "duration": 0.089,
        "velocity": 1,
        "hand": "left"
      },
      {
        "midi": 56,
        "time": 35.804,
        "duration": 0.089,
        "velocity": 1,
        "hand": "left"
      },
      {
        "midi": 68,
        "time": 35.804,
        "duration": 0.089,
        "velocity": 1,
        "hand": "right"
      },
      {
        "midi": 69,
        "time": 35.893,
        "duration": 0.089,
        "velocity": 1,
        "hand": "right"
      },
      {
        "midi": 61,
        "time": 35.982,
        "duration": 0.089,
        "velocity": 1,
        "hand": "right"
      },
      {
        "midi": 68,
        "time": 35.982,
        "duration": 0.089,
        "velocity": 1,
        "hand": "right"
      },
      {
        "midi": 64,
        "time": 36.071,
        "duration": 0.089,
        "velocity": 1,
        "hand": "right"
      },
      {
        "midi": 67,
        "time": 36.071,
        "duration": 0.089,
        "velocity": 1,
        "hand": "right"
      },
      {
        "midi": 61,
        "time": 36.161,
        "duration": 0.089,
        "velocity": 1,
        "hand": "right"
      },
      {
        "midi": 68,
        "time": 36.161,
        "duration": 0.089,
        "velocity": 1,
        "hand": "right"
      },
      {
        "midi": 73,
        "time": 36.25,
        "duration": 0.089,
        "velocity": 1,
        "hand": "right"
      },
      {
        "midi": 56,
        "time": 36.339,
        "duration": 0.089,
        "velocity": 1,
        "hand": "left"
      },
      {
        "midi": 76,
        "time": 36.339,
        "duration": 0.089,
        "velocity": 1,
        "hand": "right"
      },
      {
        "midi": 52,
        "time": 36.429,
        "duration": 0.089,
        "velocity": 1,
        "hand": "left"
      },
      {
        "midi": 75,
        "time": 36.429,
        "duration": 0.089,
        "velocity": 1,
        "hand": "right"
      },
      {
        "midi": 56,
        "time": 36.518,
        "duration": 0.089,
        "velocity": 1,
        "hand": "left"
      },
      {
        "midi": 73,
        "time": 36.518,
        "duration": 0.089,
        "velocity": 1,
        "hand": "right"
      },
      {
        "midi": 75,
        "time": 36.607,
        "duration": 0.089,
        "velocity": 1,
        "hand": "right"
      },
      {
        "midi": 61,
        "time": 36.696,
        "duration": 0.089,
        "velocity": 1,
        "hand": "right"
      },
      {
        "midi": 73,
        "time": 36.696,
        "duration": 0.089,
        "velocity": 1,
        "hand": "right"
      },
      {
        "midi": 64,
        "time": 36.786,
        "duration": 0.089,
        "velocity": 1,
        "hand": "right"
      },
      {
        "midi": 72,
        "time": 36.786,
        "duration": 0.089,
        "velocity": 1,
        "hand": "right"
      },
      {
        "midi": 61,
        "time": 36.875,
        "duration": 0.089,
        "velocity": 1,
        "hand": "right"
      },
      {
        "midi": 73,
        "time": 36.875,
        "duration": 0.089,
        "velocity": 1,
        "hand": "right"
      },
      {
        "midi": 76,
        "time": 36.964,
        "duration": 0.089,
        "velocity": 1,
        "hand": "right"
      },
      {
        "midi": 56,
        "time": 37.054,
        "duration": 0.089,
        "velocity": 1,
        "hand": "left"
      },
      {
        "midi": 80,
        "time": 37.054,
        "duration": 0.089,
        "velocity": 1,
        "hand": "right"
      },
      {
        "midi": 51,
        "time": 37.143,
        "duration": 0.089,
        "velocity": 1,
        "hand": "left"
      },
      {
        "midi": 57,
        "time": 37.232,
        "duration": 0.089,
        "velocity": 1,
        "hand": "left"
      },
      {
        "midi": 69,
        "time": 37.232,
        "duration": 0.089,
        "velocity": 1,
        "hand": "right"
      },
      {
        "midi": 73,
        "time": 37.321,
        "duration": 0.089,
        "velocity": 1,
        "hand": "right"
      },
      {
        "midi": 61,
        "time": 37.411,
        "duration": 0.089,
        "velocity": 1,
        "hand": "right"
      },
      {
        "midi": 75,
        "time": 37.411,
        "duration": 0.089,
        "velocity": 1,
        "hand": "right"
      },
      {
        "midi": 66,
        "time": 37.5,
        "duration": 0.089,
        "velocity": 1,
        "hand": "right"
      },
      {
        "midi": 78,
        "time": 37.5,
        "duration": 0.089,
        "velocity": 1,
        "hand": "right"
      },
      {
        "midi": 61,
        "time": 37.589,
        "duration": 0.089,
        "velocity": 1,
        "hand": "right"
      },
      {
        "midi": 81,
        "time": 37.589,
        "duration": 0.089,
        "velocity": 1,
        "hand": "right"
      },
      {
        "midi": 85,
        "time": 37.679,
        "duration": 0.089,
        "velocity": 1,
        "hand": "right"
      },
      {
        "midi": 57,
        "time": 37.768,
        "duration": 0.089,
        "velocity": 1,
        "hand": "left"
      },
      {
        "midi": 87,
        "time": 37.768,
        "duration": 0.089,
        "velocity": 1,
        "hand": "right"
      },
      {
        "midi": 54,
        "time": 37.857,
        "duration": 0.089,
        "velocity": 1,
        "hand": "left"
      },
      {
        "midi": 95,
        "time": 37.857,
        "duration": 0.089,
        "velocity": 1,
        "hand": "right"
      },
      {
        "midi": 61,
        "time": 37.946,
        "duration": 0.089,
        "velocity": 1,
        "hand": "right"
      },
      {
        "midi": 93,
        "time": 37.946,
        "duration": 0.089,
        "velocity": 1,
        "hand": "right"
      },
      {
        "midi": 92,
        "time": 38.036,
        "duration": 0.089,
        "velocity": 1,
        "hand": "right"
      },
      {
        "midi": 63,
        "time": 38.125,
        "duration": 0.089,
        "velocity": 1,
        "hand": "right"
      },
      {
        "midi": 90,
        "time": 38.125,
        "duration": 0.089,
        "velocity": 1,
        "hand": "right"
      },
      {
        "midi": 69,
        "time": 38.214,
        "duration": 0.089,
        "velocity": 1,
        "hand": "right"
      },
      {
        "midi": 88,
        "time": 38.214,
        "duration": 0.089,
        "velocity": 1,
        "hand": "right"
      },
      {
        "midi": 63,
        "time": 38.304,
        "duration": 0.089,
        "velocity": 1,
        "hand": "right"
      },
      {
        "midi": 87,
        "time": 38.304,
        "duration": 0.089,
        "velocity": 1,
        "hand": "right"
      },
      {
        "midi": 90,
        "time": 38.393,
        "duration": 0.089,
        "velocity": 1,
        "hand": "right"
      },
      {
        "midi": 61,
        "time": 38.482,
        "duration": 0.089,
        "velocity": 1,
        "hand": "right"
      },
      {
        "midi": 85,
        "time": 38.482,
        "duration": 0.089,
        "velocity": 1,
        "hand": "right"
      },
      {
        "midi": 44,
        "time": 38.571,
        "duration": 0.089,
        "velocity": 1,
        "hand": "left"
      },
      {
        "midi": 84,
        "time": 38.571,
        "duration": 0.089,
        "velocity": 1,
        "hand": "right"
      },
      {
        "midi": 51,
        "time": 38.661,
        "duration": 0.089,
        "velocity": 1,
        "hand": "left"
      },
      {
        "midi": 87,
        "time": 38.661,
        "duration": 0.089,
        "velocity": 1,
        "hand": "right"
      },
      {
        "midi": 81,
        "time": 38.75,
        "duration": 0.089,
        "velocity": 1,
        "hand": "right"
      },
      {
        "midi": 54,
        "time": 38.839,
        "duration": 0.089,
        "velocity": 1,
        "hand": "left"
      },
      {
        "midi": 80,
        "time": 38.839,
        "duration": 0.089,
        "velocity": 1,
        "hand": "right"
      },
      {
        "midi": 60,
        "time": 38.929,
        "duration": 0.089,
        "velocity": 1,
        "hand": "right"
      },
      {
        "midi": 78,
        "time": 38.929,
        "duration": 0.089,
        "velocity": 1,
        "hand": "right"
      },
      {
        "midi": 54,
        "time": 39.018,
        "duration": 0.089,
        "velocity": 1,
        "hand": "left"
      },
      {
        "midi": 81,
        "time": 39.018,
        "duration": 0.089,
        "velocity": 1,
        "hand": "right"
      },
      {
        "midi": 76,
        "time": 39.107,
        "duration": 0.089,
        "velocity": 1,
        "hand": "right"
      },
      {
        "midi": 51,
        "time": 39.196,
        "duration": 0.089,
        "velocity": 1,
        "hand": "left"
      },
      {
        "midi": 75,
        "time": 39.196,
        "duration": 0.089,
        "velocity": 1,
        "hand": "right"
      },
      {
        "midi": 44,
        "time": 39.286,
        "duration": 0.089,
        "velocity": 1,
        "hand": "left"
      },
      {
        "midi": 78,
        "time": 39.286,
        "duration": 0.089,
        "velocity": 1,
        "hand": "right"
      },
      {
        "midi": 51,
        "time": 39.375,
        "duration": 0.089,
        "velocity": 1,
        "hand": "left"
      },
      {
        "midi": 73,
        "time": 39.375,
        "duration": 0.089,
        "velocity": 1,
        "hand": "right"
      },
      {
        "midi": 72,
        "time": 39.464,
        "duration": 0.089,
        "velocity": 1,
        "hand": "right"
      },
      {
        "midi": 54,
        "time": 39.554,
        "duration": 0.089,
        "velocity": 1,
        "hand": "left"
      },
      {
        "midi": 75,
        "time": 39.554,
        "duration": 0.089,
        "velocity": 1,
        "hand": "right"
      },
      {
        "midi": 60,
        "time": 39.643,
        "duration": 0.089,
        "velocity": 1,
        "hand": "right"
      },
      {
        "midi": 69,
        "time": 39.643,
        "duration": 0.089,
        "velocity": 1,
        "hand": "right"
      },
      {
        "midi": 54,
        "time": 39.732,
        "duration": 0.089,
        "velocity": 1,
        "hand": "left"
      },
      {
        "midi": 68,
        "time": 39.732,
        "duration": 0.089,
        "velocity": 1,
        "hand": "right"
      },
      {
        "midi": 71,
        "time": 39.821,
        "duration": 0.089,
        "velocity": 1,
        "hand": "right"
      },
      {
        "midi": 51,
        "time": 39.911,
        "duration": 0.089,
        "velocity": 1,
        "hand": "left"
      },
      {
        "midi": 69,
        "time": 39.911,
        "duration": 0.179,
        "velocity": 1,
        "hand": "right"
      },
      {
        "midi": 49,
        "time": 40,
        "duration": 0.089,
        "velocity": 1,
        "hand": "left"
      },
      {
        "midi": 56,
        "time": 40.089,
        "duration": 0.089,
        "velocity": 1,
        "hand": "left"
      },
      {
        "midi": 68,
        "time": 40.089,
        "duration": 0.089,
        "velocity": 1,
        "hand": "right"
      },
      {
        "midi": 69,
        "time": 40.179,
        "duration": 0.089,
        "velocity": 1,
        "hand": "right"
      },
      {
        "midi": 61,
        "time": 40.268,
        "duration": 0.089,
        "velocity": 1,
        "hand": "right"
      },
      {
        "midi": 68,
        "time": 40.268,
        "duration": 0.089,
        "velocity": 1,
        "hand": "right"
      },
      {
        "midi": 64,
        "time": 40.357,
        "duration": 0.089,
        "velocity": 1,
        "hand": "right"
      },
      {
        "midi": 67,
        "time": 40.357,
        "duration": 0.089,
        "velocity": 1,
        "hand": "right"
      },
      {
        "midi": 61,
        "time": 40.446,
        "duration": 0.089,
        "velocity": 1,
        "hand": "right"
      },
      {
        "midi": 68,
        "time": 40.446,
        "duration": 0.089,
        "velocity": 1,
        "hand": "right"
      },
      {
        "midi": 73,
        "time": 40.536,
        "duration": 0.089,
        "velocity": 1,
        "hand": "right"
      },
      {
        "midi": 56,
        "time": 40.625,
        "duration": 0.089,
        "velocity": 1,
        "hand": "left"
      },
      {
        "midi": 76,
        "time": 40.625,
        "duration": 0.089,
        "velocity": 1,
        "hand": "right"
      },
      {
        "midi": 52,
        "time": 40.714,
        "duration": 0.089,
        "velocity": 1,
        "hand": "left"
      },
      {
        "midi": 75,
        "time": 40.714,
        "duration": 0.089,
        "velocity": 1,
        "hand": "right"
      },
      {
        "midi": 56,
        "time": 40.804,
        "duration": 0.089,
        "velocity": 1,
        "hand": "left"
      },
      {
        "midi": 73,
        "time": 40.804,
        "duration": 0.089,
        "velocity": 1,
        "hand": "right"
      },
      {
        "midi": 75,
        "time": 40.893,
        "duration": 0.089,
        "velocity": 1,
        "hand": "right"
      },
      {
        "midi": 61,
        "time": 40.982,
        "duration": 0.089,
        "velocity": 1,
        "hand": "right"
      },
      {
        "midi": 73,
        "time": 40.982,
        "duration": 0.089,
        "velocity": 1,
        "hand": "right"
      },
      {
        "midi": 64,
        "time": 41.071,
        "duration": 0.089,
        "velocity": 1,
        "hand": "right"
      },
      {
        "midi": 72,
        "time": 41.071,
        "duration": 0.089,
        "velocity": 1,
        "hand": "right"
      },
      {
        "midi": 61,
        "time": 41.161,
        "duration": 0.089,
        "velocity": 1,
        "hand": "right"
      },
      {
        "midi": 73,
        "time": 41.161,
        "duration": 0.089,
        "velocity": 1,
        "hand": "right"
      },
      {
        "midi": 76,
        "time": 41.25,
        "duration": 0.089,
        "velocity": 1,
        "hand": "right"
      },
      {
        "midi": 56,
        "time": 41.339,
        "duration": 0.089,
        "velocity": 1,
        "hand": "left"
      },
      {
        "midi": 80,
        "time": 41.339,
        "duration": 0.089,
        "velocity": 1,
        "hand": "right"
      },
      {
        "midi": 54,
        "time": 41.429,
        "duration": 0.089,
        "velocity": 1,
        "hand": "left"
      },
      {
        "midi": 76,
        "time": 41.429,
        "duration": 0.089,
        "velocity": 1,
        "hand": "right"
      },
      {
        "midi": 61,
        "time": 41.518,
        "duration": 0.089,
        "velocity": 1,
        "hand": "right"
      },
      {
        "midi": 75,
        "time": 41.518,
        "duration": 0.089,
        "velocity": 1,
        "hand": "right"
      },
      {
        "midi": 76,
        "time": 41.607,
        "duration": 0.089,
        "velocity": 1,
        "hand": "right"
      },
      {
        "midi": 63,
        "time": 41.696,
        "duration": 0.089,
        "velocity": 1,
        "hand": "right"
      },
      {
        "midi": 75,
        "time": 41.696,
        "duration": 0.089,
        "velocity": 1,
        "hand": "right"
      },
      {
        "midi": 69,
        "time": 41.786,
        "duration": 0.089,
        "velocity": 1,
        "hand": "right"
      },
      {
        "midi": 74,
        "time": 41.786,
        "duration": 0.089,
        "velocity": 1,
        "hand": "right"
      },
      {
        "midi": 63,
        "time": 41.875,
        "duration": 0.089,
        "velocity": 1,
        "hand": "right"
      },
      {
        "midi": 75,
        "time": 41.875,
        "duration": 0.089,
        "velocity": 1,
        "hand": "right"
      },
      {
        "midi": 78,
        "time": 41.964,
        "duration": 0.089,
        "velocity": 1,
        "hand": "right"
      },
      {
        "midi": 61,
        "time": 42.054,
        "duration": 0.089,
        "velocity": 1,
        "hand": "right"
      },
      {
        "midi": 81,
        "time": 42.054,
        "duration": 0.089,
        "velocity": 1,
        "hand": "right"
      },
      {
        "midi": 56,
        "time": 42.143,
        "duration": 0.089,
        "velocity": 1,
        "hand": "left"
      },
      {
        "midi": 78,
        "time": 42.143,
        "duration": 0.089,
        "velocity": 1,
        "hand": "right"
      },
      {
        "midi": 61,
        "time": 42.232,
        "duration": 0.089,
        "velocity": 1,
        "hand": "right"
      },
      {
        "midi": 77,
        "time": 42.232,
        "duration": 0.089,
        "velocity": 1,
        "hand": "right"
      },
      {
        "midi": 78,
        "time": 42.321,
        "duration": 0.089,
        "velocity": 1,
        "hand": "right"
      },
      {
        "midi": 65,
        "time": 42.411,
        "duration": 0.089,
        "velocity": 1,
        "hand": "right"
      },
      {
        "midi": 77,
        "time": 42.411,
        "duration": 0.089,
        "velocity": 1,
        "hand": "right"
      },
      {
        "midi": 71,
        "time": 42.5,
        "duration": 0.089,
        "velocity": 1,
        "hand": "right"
      },
      {
        "midi": 76,
        "time": 42.5,
        "duration": 0.089,
        "velocity": 1,
        "hand": "right"
      },
      {
        "midi": 65,
        "time": 42.589,
        "duration": 0.089,
        "velocity": 1,
        "hand": "right"
      },
      {
        "midi": 77,
        "time": 42.589,
        "duration": 0.089,
        "velocity": 1,
        "hand": "right"
      },
      {
        "midi": 80,
        "time": 42.679,
        "duration": 0.089,
        "velocity": 1,
        "hand": "right"
      },
      {
        "midi": 61,
        "time": 42.768,
        "duration": 0.089,
        "velocity": 1,
        "hand": "right"
      },
      {
        "midi": 85,
        "time": 42.768,
        "duration": 0.089,
        "velocity": 1,
        "hand": "right"
      },
      {
        "midi": 57,
        "time": 42.857,
        "duration": 0.089,
        "velocity": 1,
        "hand": "left"
      },
      {
        "midi": 61,
        "time": 42.946,
        "duration": 0.089,
        "velocity": 1,
        "hand": "right"
      },
      {
        "midi": 73,
        "time": 42.946,
        "duration": 0.089,
        "velocity": 1,
        "hand": "right"
      },
      {
        "midi": 74,
        "time": 43.036,
        "duration": 0.089,
        "velocity": 1,
        "hand": "right"
      },
      {
        "midi": 66,
        "time": 43.125,
        "duration": 0.089,
        "velocity": 1,
        "hand": "right"
      },
      {
        "midi": 73,
        "time": 43.125,
        "duration": 0.089,
        "velocity": 1,
        "hand": "right"
      },
      {
        "midi": 69,
        "time": 43.214,
        "duration": 0.089,
        "velocity": 1,
        "hand": "right"
      },
      {
        "midi": 72,
        "time": 43.214,
        "duration": 0.089,
        "velocity": 1,
        "hand": "right"
      },
      {
        "midi": 66,
        "time": 43.304,
        "duration": 0.089,
        "velocity": 1,
        "hand": "right"
      },
      {
        "midi": 73,
        "time": 43.304,
        "duration": 0.089,
        "velocity": 1,
        "hand": "right"
      },
      {
        "midi": 78,
        "time": 43.393,
        "duration": 0.089,
        "velocity": 1,
        "hand": "right"
      },
      {
        "midi": 61,
        "time": 43.482,
        "duration": 0.089,
        "velocity": 1,
        "hand": "right"
      },
      {
        "midi": 81,
        "time": 43.482,
        "duration": 0.089,
        "velocity": 1,
        "hand": "right"
      },
      {
        "midi": 56,
        "time": 43.571,
        "duration": 0.089,
        "velocity": 1,
        "hand": "left"
      },
      {
        "midi": 78,
        "time": 43.571,
        "duration": 0.089,
        "velocity": 1,
        "hand": "right"
      },
      {
        "midi": 61,
        "time": 43.661,
        "duration": 0.089,
        "velocity": 1,
        "hand": "right"
      },
      {
        "midi": 77,
        "time": 43.661,
        "duration": 0.089,
        "velocity": 1,
        "hand": "right"
      },
      {
        "midi": 78,
        "time": 43.75,
        "duration": 0.089,
        "velocity": 1,
        "hand": "right"
      },
      {
        "midi": 65,
        "time": 43.839,
        "duration": 0.089,
        "velocity": 1,
        "hand": "right"
      },
      {
        "midi": 77,
        "time": 43.839,
        "duration": 0.089,
        "velocity": 1,
        "hand": "right"
      },
      {
        "midi": 71,
        "time": 43.929,
        "duration": 0.089,
        "velocity": 1,
        "hand": "right"
      },
      {
        "midi": 76,
        "time": 43.929,
        "duration": 0.089,
        "velocity": 1,
        "hand": "right"
      },
      {
        "midi": 65,
        "time": 44.018,
        "duration": 0.089,
        "velocity": 1,
        "hand": "right"
      },
      {
        "midi": 77,
        "time": 44.018,
        "duration": 0.089,
        "velocity": 1,
        "hand": "right"
      },
      {
        "midi": 80,
        "time": 44.107,
        "duration": 0.089,
        "velocity": 1,
        "hand": "right"
      },
      {
        "midi": 61,
        "time": 44.196,
        "duration": 0.089,
        "velocity": 1,
        "hand": "right"
      },
      {
        "midi": 85,
        "time": 44.196,
        "duration": 0.089,
        "velocity": 1,
        "hand": "right"
      },
      {
        "midi": 57,
        "time": 44.286,
        "duration": 0.089,
        "velocity": 1,
        "hand": "left"
      },
      {
        "midi": 80,
        "time": 44.286,
        "duration": 0.089,
        "velocity": 1,
        "hand": "right"
      },
      {
        "midi": 61,
        "time": 44.375,
        "duration": 0.089,
        "velocity": 1,
        "hand": "right"
      },
      {
        "midi": 78,
        "time": 44.375,
        "duration": 0.089,
        "velocity": 1,
        "hand": "right"
      },
      {
        "midi": 80,
        "time": 44.464,
        "duration": 0.089,
        "velocity": 1,
        "hand": "right"
      },
      {
        "midi": 66,
        "time": 44.554,
        "duration": 0.089,
        "velocity": 1,
        "hand": "right"
      },
      {
        "midi": 78,
        "time": 44.554,
        "duration": 0.089,
        "velocity": 1,
        "hand": "right"
      },
      {
        "midi": 69,
        "time": 44.643,
        "duration": 0.089,
        "velocity": 1,
        "hand": "right"
      },
      {
        "midi": 77,
        "time": 44.643,
        "duration": 0.089,
        "velocity": 1,
        "hand": "right"
      },
      {
        "midi": 66,
        "time": 44.732,
        "duration": 0.089,
        "velocity": 1,
        "hand": "right"
      },
      {
        "midi": 78,
        "time": 44.732,
        "duration": 0.089,
        "velocity": 1,
        "hand": "right"
      },
      {
        "midi": 81,
        "time": 44.821,
        "duration": 0.089,
        "velocity": 1,
        "hand": "right"
      },
      {
        "midi": 61,
        "time": 44.911,
        "duration": 0.089,
        "velocity": 1,
        "hand": "right"
      },
      {
        "midi": 85,
        "time": 44.911,
        "duration": 0.089,
        "velocity": 1,
        "hand": "right"
      },
      {
        "midi": 48,
        "time": 45,
        "duration": 0.089,
        "velocity": 1,
        "hand": "left"
      },
      {
        "midi": 81,
        "time": 45,
        "duration": 0.089,
        "velocity": 1,
        "hand": "right"
      },
      {
        "midi": 54,
        "time": 45.089,
        "duration": 0.089,
        "velocity": 1,
        "hand": "left"
      },
      {
        "midi": 80,
        "time": 45.089,
        "duration": 0.089,
        "velocity": 1,
        "hand": "right"
      },
      {
        "midi": 81,
        "time": 45.179,
        "duration": 0.089,
        "velocity": 1,
        "hand": "right"
      },
      {
        "midi": 56,
        "time": 45.268,
        "duration": 0.089,
        "velocity": 1,
        "hand": "left"
      },
      {
        "midi": 80,
        "time": 45.268,
        "duration": 0.089,
        "velocity": 1,
        "hand": "right"
      },
      {
        "midi": 63,
        "time": 45.357,
        "duration": 0.089,
        "velocity": 1,
        "hand": "right"
      },
      {
        "midi": 79,
        "time": 45.357,
        "duration": 0.089,
        "velocity": 1,
        "hand": "right"
      },
      {
        "midi": 56,
        "time": 45.446,
        "duration": 0.089,
        "velocity": 1,
        "hand": "left"
      },
      {
        "midi": 80,
        "time": 45.446,
        "duration": 0.089,
        "velocity": 1,
        "hand": "right"
      },
      {
        "midi": 84,
        "time": 45.536,
        "duration": 0.089,
        "velocity": 1,
        "hand": "right"
      },
      {
        "midi": 54,
        "time": 45.625,
        "duration": 0.089,
        "velocity": 1,
        "hand": "left"
      },
      {
        "midi": 87,
        "time": 45.625,
        "duration": 0.089,
        "velocity": 1,
        "hand": "right"
      },
      {
        "midi": 49,
        "time": 45.714,
        "duration": 0.089,
        "velocity": 1,
        "hand": "left"
      },
      {
        "midi": 80,
        "time": 45.714,
        "duration": 0.089,
        "velocity": 1,
        "hand": "right"
      },
      {
        "midi": 56,
        "time": 45.804,
        "duration": 0.089,
        "velocity": 1,
        "hand": "left"
      },
      {
        "midi": 81,
        "time": 45.804,
        "duration": 0.089,
        "velocity": 1,
        "hand": "right"
      },
      {
        "midi": 80,
        "time": 45.893,
        "duration": 0.089,
        "velocity": 1,
        "hand": "right"
      },
      {
        "midi": 61,
        "time": 45.982,
        "duration": 0.089,
        "velocity": 1,
        "hand": "right"
      },
      {
        "midi": 79,
        "time": 45.982,
        "duration": 0.089,
        "velocity": 1,
        "hand": "right"
      },
      {
        "midi": 64,
        "time": 46.071,
        "duration": 0.089,
        "velocity": 1,
        "hand": "right"
      },
      {
        "midi": 80,
        "time": 46.071,
        "duration": 0.089,
        "velocity": 1,
        "hand": "right"
      },
      {
        "midi": 61,
        "time": 46.161,
        "duration": 0.089,
        "velocity": 1,
        "hand": "right"
      },
      {
        "midi": 88,
        "time": 46.161,
        "duration": 0.089,
        "velocity": 1,
        "hand": "right"
      },
      {
        "midi": 87,
        "time": 46.25,
        "duration": 0.089,
        "velocity": 1,
        "hand": "right"
      },
      {
        "midi": 56,
        "time": 46.339,
        "duration": 0.089,
        "velocity": 1,
        "hand": "left"
      },
      {
        "midi": 86,
        "time": 46.339,
        "duration": 0.089,
        "velocity": 1,
        "hand": "right"
      },
      {
        "midi": 51,
        "time": 46.429,
        "duration": 0.089,
        "velocity": 1,
        "hand": "left"
      },
      {
        "midi": 85,
        "time": 46.429,
        "duration": 0.089,
        "velocity": 1,
        "hand": "right"
      },
      {
        "midi": 56,
        "time": 46.518,
        "duration": 0.089,
        "velocity": 1,
        "hand": "left"
      },
      {
        "midi": 84,
        "time": 46.518,
        "duration": 0.089,
        "velocity": 1,
        "hand": "right"
      },
      {
        "midi": 83,
        "time": 46.607,
        "duration": 0.089,
        "velocity": 1,
        "hand": "right"
      },
      {
        "midi": 60,
        "time": 46.696,
        "duration": 0.089,
        "velocity": 1,
        "hand": "right"
      },
      {
        "midi": 82,
        "time": 46.696,
        "duration": 0.089,
        "velocity": 1,
        "hand": "right"
      },
      {
        "midi": 66,
        "time": 46.786,
        "duration": 0.089,
        "velocity": 1,
        "hand": "right"
      },
      {
        "midi": 81,
        "time": 46.786,
        "duration": 0.089,
        "velocity": 1,
        "hand": "right"
      },
      {
        "midi": 60,
        "time": 46.875,
        "duration": 0.089,
        "velocity": 1,
        "hand": "right"
      },
      {
        "midi": 80,
        "time": 46.875,
        "duration": 0.089,
        "velocity": 1,
        "hand": "right"
      },
      {
        "midi": 79,
        "time": 46.964,
        "duration": 0.089,
        "velocity": 1,
        "hand": "right"
      },
      {
        "midi": 56,
        "time": 47.054,
        "duration": 0.089,
        "velocity": 1,
        "hand": "left"
      },
      {
        "midi": 78,
        "time": 47.054,
        "duration": 0.089,
        "velocity": 1,
        "hand": "right"
      },
      {
        "midi": 49,
        "time": 47.143,
        "duration": 0.089,
        "velocity": 1,
        "hand": "left"
      },
      {
        "midi": 76,
        "time": 47.143,
        "duration": 0.089,
        "velocity": 1,
        "hand": "right"
      },
      {
        "midi": 56,
        "time": 47.232,
        "duration": 0.089,
        "velocity": 1,
        "hand": "left"
      },
      {
        "midi": 78,
        "time": 47.232,
        "duration": 0.089,
        "velocity": 1,
        "hand": "right"
      },
      {
        "midi": 76,
        "time": 47.321,
        "duration": 0.089,
        "velocity": 1,
        "hand": "right"
      },
      {
        "midi": 61,
        "time": 47.411,
        "duration": 0.089,
        "velocity": 1,
        "hand": "right"
      },
      {
        "midi": 75,
        "time": 47.411,
        "duration": 0.089,
        "velocity": 1,
        "hand": "right"
      },
      {
        "midi": 64,
        "time": 47.5,
        "duration": 0.089,
        "velocity": 1,
        "hand": "right"
      },
      {
        "midi": 76,
        "time": 47.5,
        "duration": 0.089,
        "velocity": 1,
        "hand": "right"
      },
      {
        "midi": 61,
        "time": 47.589,
        "duration": 0.089,
        "velocity": 1,
        "hand": "right"
      },
      {
        "midi": 88,
        "time": 47.589,
        "duration": 0.089,
        "velocity": 1,
        "hand": "right"
      },
      {
        "midi": 87,
        "time": 47.679,
        "duration": 0.089,
        "velocity": 1,
        "hand": "right"
      },
      {
        "midi": 56,
        "time": 47.768,
        "duration": 0.089,
        "velocity": 1,
        "hand": "left"
      },
      {
        "midi": 86,
        "time": 47.768,
        "duration": 0.089,
        "velocity": 1,
        "hand": "right"
      },
      {
        "midi": 54,
        "time": 47.857,
        "duration": 0.089,
        "velocity": 1,
        "hand": "left"
      },
      {
        "midi": 85,
        "time": 47.857,
        "duration": 0.089,
        "velocity": 1,
        "hand": "right"
      },
      {
        "midi": 61,
        "time": 47.946,
        "duration": 0.089,
        "velocity": 1,
        "hand": "right"
      },
      {
        "midi": 84,
        "time": 47.946,
        "duration": 0.089,
        "velocity": 1,
        "hand": "right"
      },
      {
        "midi": 83,
        "time": 48.036,
        "duration": 0.089,
        "velocity": 1,
        "hand": "right"
      },
      {
        "midi": 63,
        "time": 48.125,
        "duration": 0.089,
        "velocity": 1,
        "hand": "right"
      },
      {
        "midi": 82,
        "time": 48.125,
        "duration": 0.089,
        "velocity": 1,
        "hand": "right"
      },
      {
        "midi": 69,
        "time": 48.214,
        "duration": 0.089,
        "velocity": 1,
        "hand": "right"
      },
      {
        "midi": 81,
        "time": 48.214,
        "duration": 0.089,
        "velocity": 1,
        "hand": "right"
      },
      {
        "midi": 63,
        "time": 48.304,
        "duration": 0.089,
        "velocity": 1,
        "hand": "right"
      },
      {
        "midi": 80,
        "time": 48.304,
        "duration": 0.089,
        "velocity": 1,
        "hand": "right"
      },
      {
        "midi": 79,
        "time": 48.393,
        "duration": 0.089,
        "velocity": 1,
        "hand": "right"
      },
      {
        "midi": 61,
        "time": 48.482,
        "duration": 0.089,
        "velocity": 1,
        "hand": "right"
      },
      {
        "midi": 78,
        "time": 48.482,
        "duration": 0.089,
        "velocity": 1,
        "hand": "right"
      },
      {
        "midi": 56,
        "time": 48.571,
        "duration": 0.179,
        "velocity": 1,
        "hand": "left"
      },
      {
        "midi": 61,
        "time": 48.571,
        "duration": 0.179,
        "velocity": 1,
        "hand": "right"
      },
      {
        "midi": 64,
        "time": 48.571,
        "duration": 0.179,
        "velocity": 1,
        "hand": "right"
      },
      {
        "midi": 68,
        "time": 48.571,
        "duration": 0.179,
        "velocity": 1,
        "hand": "right"
      },
      {
        "midi": 80,
        "time": 48.571,
        "duration": 0.089,
        "velocity": 1,
        "hand": "right"
      },
      {
        "midi": 92,
        "time": 48.75,
        "duration": 0.089,
        "velocity": 1,
        "hand": "right"
      },
      {
        "midi": 91,
        "time": 48.839,
        "duration": 0.089,
        "velocity": 1,
        "hand": "right"
      },
      {
        "midi": 90,
        "time": 48.929,
        "duration": 0.089,
        "velocity": 1,
        "hand": "right"
      },
      {
        "midi": 89,
        "time": 49.018,
        "duration": 0.089,
        "velocity": 1,
        "hand": "right"
      },
      {
        "midi": 88,
        "time": 49.107,
        "duration": 0.089,
        "velocity": 1,
        "hand": "right"
      },
      {
        "midi": 87,
        "time": 49.196,
        "duration": 0.089,
        "velocity": 1,
        "hand": "right"
      },
      {
        "midi": 55,
        "time": 49.286,
        "duration": 0.357,
        "velocity": 1,
        "hand": "left"
      },
      {
        "midi": 61,
        "time": 49.286,
        "duration": 0.357,
        "velocity": 1,
        "hand": "right"
      },
      {
        "midi": 64,
        "time": 49.286,
        "duration": 0.357,
        "velocity": 1,
        "hand": "right"
      },
      {
        "midi": 69,
        "time": 49.286,
        "duration": 0.357,
        "velocity": 1,
        "hand": "right"
      },
      {
        "midi": 86,
        "time": 49.286,
        "duration": 0.089,
        "velocity": 1,
        "hand": "right"
      },
      {
        "midi": 85,
        "time": 49.375,
        "duration": 0.089,
        "velocity": 1,
        "hand": "right"
      },
      {
        "midi": 84,
        "time": 49.464,
        "duration": 0.089,
        "velocity": 1,
        "hand": "right"
      },
      {
        "midi": 83,
        "time": 49.554,
        "duration": 0.089,
        "velocity": 1,
        "hand": "right"
      },
      {
        "midi": 82,
        "time": 49.643,
        "duration": 0.089,
        "velocity": 1,
        "hand": "right"
      },
      {
        "midi": 81,
        "time": 49.732,
        "duration": 0.089,
        "velocity": 1,
        "hand": "right"
      },
      {
        "midi": 80,
        "time": 49.821,
        "duration": 0.089,
        "velocity": 1,
        "hand": "right"
      },
      {
        "midi": 79,
        "time": 49.911,
        "duration": 0.089,
        "velocity": 1,
        "hand": "right"
      },
      {
        "midi": 78,
        "time": 50,
        "duration": 0.089,
        "velocity": 1,
        "hand": "right"
      },
      {
        "midi": 77,
        "time": 50.089,
        "duration": 0.089,
        "velocity": 1,
        "hand": "right"
      },
      {
        "midi": 76,
        "time": 50.179,
        "duration": 0.089,
        "velocity": 1,
        "hand": "right"
      },
      {
        "midi": 75,
        "time": 50.268,
        "duration": 0.089,
        "velocity": 1,
        "hand": "right"
      },
      {
        "midi": 74,
        "time": 50.357,
        "duration": 0.089,
        "velocity": 1,
        "hand": "right"
      },
      {
        "midi": 73,
        "time": 50.446,
        "duration": 0.089,
        "velocity": 1,
        "hand": "right"
      },
      {
        "midi": 72,
        "time": 50.536,
        "duration": 0.089,
        "velocity": 1,
        "hand": "right"
      },
      {
        "midi": 71,
        "time": 50.625,
        "duration": 0.089,
        "velocity": 1,
        "hand": "right"
      },
      {
        "midi": 70,
        "time": 50.714,
        "duration": 0.089,
        "velocity": 1,
        "hand": "right"
      },
      {
        "midi": 69,
        "time": 50.804,
        "duration": 0.089,
        "velocity": 1,
        "hand": "right"
      },
      {
        "midi": 68,
        "time": 50.893,
        "duration": 0.089,
        "velocity": 1,
        "hand": "right"
      },
      {
        "midi": 67,
        "time": 50.982,
        "duration": 0.089,
        "velocity": 1,
        "hand": "right"
      },
      {
        "midi": 66,
        "time": 51.071,
        "duration": 0.089,
        "velocity": 1,
        "hand": "right"
      },
      {
        "midi": 64,
        "time": 51.161,
        "duration": 0.089,
        "velocity": 1,
        "hand": "right"
      },
      {
        "midi": 63,
        "time": 51.25,
        "duration": 0.089,
        "velocity": 1,
        "hand": "right"
      },
      {
        "midi": 61,
        "time": 51.339,
        "duration": 0.089,
        "velocity": 1,
        "hand": "right"
      },
      {
        "midi": 32,
        "time": 51.429,
        "duration": 0.179,
        "velocity": 1,
        "hand": "left"
      },
      {
        "midi": 44,
        "time": 51.429,
        "duration": 0.179,
        "velocity": 1,
        "hand": "left"
      },
      {
        "midi": 56,
        "time": 51.429,
        "duration": 0.179,
        "velocity": 1,
        "hand": "left"
      },
      {
        "midi": 64,
        "time": 51.786,
        "duration": 0.357,
        "velocity": 1,
        "hand": "right"
      },
      {
        "midi": 76,
        "time": 51.786,
        "duration": 0.357,
        "velocity": 1,
        "hand": "right"
      },
      {
        "midi": 93,
        "time": 51.786,
        "duration": 0.089,
        "velocity": 1,
        "hand": "right"
      },
      {
        "midi": 92,
        "time": 51.875,
        "duration": 0.089,
        "velocity": 1,
        "hand": "right"
      },
      {
        "midi": 100,
        "time": 51.964,
        "duration": 0.089,
        "velocity": 1,
        "hand": "right"
      },
      {
        "midi": 88,
        "time": 52.054,
        "duration": 0.089,
        "velocity": 1,
        "hand": "right"
      },
      {
        "midi": 61,
        "time": 52.143,
        "duration": 0.357,
        "velocity": 1,
        "hand": "right"
      },
      {
        "midi": 73,
        "time": 52.143,
        "duration": 0.357,
        "velocity": 1,
        "hand": "right"
      },
      {
        "midi": 90,
        "time": 52.143,
        "duration": 0.089,
        "velocity": 1,
        "hand": "right"
      },
      {
        "midi": 88,
        "time": 52.232,
        "duration": 0.089,
        "velocity": 1,
        "hand": "right"
      },
      {
        "midi": 97,
        "time": 52.321,
        "duration": 0.089,
        "velocity": 1,
        "hand": "right"
      },
      {
        "midi": 85,
        "time": 52.411,
        "duration": 0.089,
        "velocity": 1,
        "hand": "right"
      },
      {
        "midi": 56,
        "time": 52.5,
        "duration": 0.357,
        "velocity": 1,
        "hand": "left"
      },
      {
        "midi": 68,
        "time": 52.5,
        "duration": 0.357,
        "velocity": 1,
        "hand": "right"
      },
      {
        "midi": 87,
        "time": 52.5,
        "duration": 0.089,
        "velocity": 1,
        "hand": "right"
      },
      {
        "midi": 85,
        "time": 52.589,
        "duration": 0.089,
        "velocity": 1,
        "hand": "right"
      },
      {
        "midi": 92,
        "time": 52.679,
        "duration": 0.089,
        "velocity": 1,
        "hand": "right"
      },
      {
        "midi": 80,
        "time": 52.768,
        "duration": 0.089,
        "velocity": 1,
        "hand": "right"
      },
      {
        "midi": 52,
        "time": 52.857,
        "duration": 0.357,
        "velocity": 1,
        "hand": "left"
      },
      {
        "midi": 64,
        "time": 52.857,
        "duration": 0.357,
        "velocity": 1,
        "hand": "right"
      },
      {
        "midi": 81,
        "time": 52.857,
        "duration": 0.089,
        "velocity": 1,
        "hand": "right"
      },
      {
        "midi": 80,
        "time": 52.946,
        "duration": 0.089,
        "velocity": 1,
        "hand": "right"
      },
      {
        "midi": 88,
        "time": 53.036,
        "duration": 0.089,
        "velocity": 1,
        "hand": "right"
      },
      {
        "midi": 76,
        "time": 53.125,
        "duration": 0.089,
        "velocity": 1,
        "hand": "right"
      },
      {
        "midi": 49,
        "time": 53.214,
        "duration": 0.357,
        "velocity": 1,
        "hand": "left"
      },
      {
        "midi": 61,
        "time": 53.214,
        "duration": 0.357,
        "velocity": 1,
        "hand": "right"
      },
      {
        "midi": 78,
        "time": 53.214,
        "duration": 0.089,
        "velocity": 1,
        "hand": "right"
      },
      {
        "midi": 76,
        "time": 53.304,
        "duration": 0.089,
        "velocity": 1,
        "hand": "right"
      },
      {
        "midi": 85,
        "time": 53.393,
        "duration": 0.089,
        "velocity": 1,
        "hand": "right"
      },
      {
        "midi": 73,
        "time": 53.482,
        "duration": 0.089,
        "velocity": 1,
        "hand": "right"
      },
      {
        "midi": 44,
        "time": 53.571,
        "duration": 0.357,
        "velocity": 1,
        "hand": "left"
      },
      {
        "midi": 56,
        "time": 53.571,
        "duration": 0.357,
        "velocity": 1,
        "hand": "left"
      },
      {
        "midi": 75,
        "time": 53.571,
        "duration": 0.089,
        "velocity": 1,
        "hand": "right"
      },
      {
        "midi": 73,
        "time": 53.661,
        "duration": 0.089,
        "velocity": 1,
        "hand": "right"
      },
      {
        "midi": 80,
        "time": 53.75,
        "duration": 0.089,
        "velocity": 1,
        "hand": "right"
      },
      {
        "midi": 68,
        "time": 53.839,
        "duration": 0.089,
        "velocity": 1,
        "hand": "right"
      },
      {
        "midi": 40,
        "time": 53.929,
        "duration": 0.357,
        "velocity": 1,
        "hand": "left"
      },
      {
        "midi": 52,
        "time": 53.929,
        "duration": 0.357,
        "velocity": 1,
        "hand": "left"
      },
      {
        "midi": 69,
        "time": 53.929,
        "duration": 0.089,
        "velocity": 1,
        "hand": "right"
      },
      {
        "midi": 68,
        "time": 54.018,
        "duration": 0.089,
        "velocity": 1,
        "hand": "right"
      },
      {
        "midi": 76,
        "time": 54.107,
        "duration": 0.089,
        "velocity": 1,
        "hand": "right"
      },
      {
        "midi": 64,
        "time": 54.196,
        "duration": 0.089,
        "velocity": 1,
        "hand": "right"
      },
      {
        "midi": 37,
        "time": 54.286,
        "duration": 0.357,
        "velocity": 1,
        "hand": "left"
      },
      {
        "midi": 49,
        "time": 54.286,
        "duration": 0.357,
        "velocity": 1,
        "hand": "left"
      },
      {
        "midi": 66,
        "time": 54.286,
        "duration": 0.089,
        "velocity": 1,
        "hand": "right"
      },
      {
        "midi": 64,
        "time": 54.375,
        "duration": 0.089,
        "velocity": 1,
        "hand": "right"
      },
      {
        "midi": 73,
        "time": 54.464,
        "duration": 0.089,
        "velocity": 1,
        "hand": "right"
      },
      {
        "midi": 61,
        "time": 54.554,
        "duration": 0.089,
        "velocity": 1,
        "hand": "right"
      },
      {
        "midi": 32,
        "time": 54.643,
        "duration": 0.357,
        "velocity": 1,
        "hand": "left"
      },
      {
        "midi": 44,
        "time": 54.643,
        "duration": 0.357,
        "velocity": 1,
        "hand": "left"
      },
      {
        "midi": 63,
        "time": 54.643,
        "duration": 0.089,
        "velocity": 1,
        "hand": "right"
      },
      {
        "midi": 61,
        "time": 54.732,
        "duration": 0.089,
        "velocity": 1,
        "hand": "right"
      },
      {
        "midi": 68,
        "time": 54.821,
        "duration": 0.089,
        "velocity": 1,
        "hand": "right"
      },
      {
        "midi": 56,
        "time": 54.911,
        "duration": 0.089,
        "velocity": 1,
        "hand": "left"
      },
      {
        "midi": 32,
        "time": 55,
        "duration": 0.357,
        "velocity": 1,
        "hand": "left"
      },
      {
        "midi": 44,
        "time": 55,
        "duration": 0.357,
        "velocity": 1,
        "hand": "left"
      },
      {
        "midi": 63,
        "time": 55,
        "duration": 0.089,
        "velocity": 1,
        "hand": "right"
      },
      {
        "midi": 61,
        "time": 55.089,
        "duration": 0.089,
        "velocity": 1,
        "hand": "right"
      },
      {
        "midi": 68,
        "time": 55.179,
        "duration": 0.089,
        "velocity": 1,
        "hand": "right"
      },
      {
        "midi": 56,
        "time": 55.268,
        "duration": 0.089,
        "velocity": 1,
        "hand": "left"
      },
      {
        "midi": 33,
        "time": 55.357,
        "duration": 0.357,
        "velocity": 1,
        "hand": "left"
      },
      {
        "midi": 45,
        "time": 55.357,
        "duration": 0.357,
        "velocity": 1,
        "hand": "left"
      },
      {
        "midi": 63,
        "time": 55.357,
        "duration": 0.089,
        "velocity": 1,
        "hand": "right"
      },
      {
        "midi": 61,
        "time": 55.446,
        "duration": 0.089,
        "velocity": 1,
        "hand": "right"
      },
      {
        "midi": 69,
        "time": 55.536,
        "duration": 0.089,
        "velocity": 1,
        "hand": "right"
      },
      {
        "midi": 57,
        "time": 55.625,
        "duration": 0.089,
        "velocity": 1,
        "hand": "left"
      },
      {
        "midi": 32,
        "time": 55.714,
        "duration": 0.357,
        "velocity": 1,
        "hand": "left"
      },
      {
        "midi": 44,
        "time": 55.714,
        "duration": 0.357,
        "velocity": 1,
        "hand": "left"
      },
      {
        "midi": 63,
        "time": 55.714,
        "duration": 0.089,
        "velocity": 1,
        "hand": "right"
      },
      {
        "midi": 61,
        "time": 55.804,
        "duration": 0.089,
        "velocity": 1,
        "hand": "right"
      },
      {
        "midi": 68,
        "time": 55.893,
        "duration": 0.089,
        "velocity": 1,
        "hand": "right"
      },
      {
        "midi": 56,
        "time": 55.982,
        "duration": 0.089,
        "velocity": 1,
        "hand": "left"
      },
      {
        "midi": 31,
        "time": 56.071,
        "duration": 0.357,
        "velocity": 1,
        "hand": "left"
      },
      {
        "midi": 43,
        "time": 56.071,
        "duration": 0.357,
        "velocity": 1,
        "hand": "left"
      },
      {
        "midi": 63,
        "time": 56.071,
        "duration": 0.089,
        "velocity": 1,
        "hand": "right"
      },
      {
        "midi": 61,
        "time": 56.161,
        "duration": 0.089,
        "velocity": 1,
        "hand": "right"
      },
      {
        "midi": 67,
        "time": 56.25,
        "duration": 0.089,
        "velocity": 1,
        "hand": "right"
      },
      {
        "midi": 55,
        "time": 56.339,
        "duration": 0.089,
        "velocity": 1,
        "hand": "left"
      },
      {
        "midi": 32,
        "time": 56.429,
        "duration": 0.714,
        "velocity": 1,
        "hand": "left"
      },
      {
        "midi": 44,
        "time": 56.429,
        "duration": 0.714,
        "velocity": 1,
        "hand": "left"
      },
      {
        "midi": 63,
        "time": 56.429,
        "duration": 0.089,
        "velocity": 1,
        "hand": "right"
      },
      {
        "midi": 61,
        "time": 56.518,
        "duration": 0.089,
        "velocity": 1,
        "hand": "right"
      },
      {
        "midi": 68,
        "time": 56.607,
        "duration": 0.089,
        "velocity": 1,
        "hand": "right"
      },
      {
        "midi": 56,
        "time": 56.696,
        "duration": 0.089,
        "velocity": 1,
        "hand": "left"
      },
      {
        "midi": 63,
        "time": 56.786,
        "duration": 0.089,
        "velocity": 1,
        "hand": "right"
      },
      {
        "midi": 60,
        "time": 56.875,
        "duration": 0.089,
        "velocity": 1,
        "hand": "right"
      },
      {
        "midi": 68,
        "time": 56.964,
        "duration": 0.089,
        "velocity": 1,
        "hand": "right"
      },
      {
        "midi": 56,
        "time": 57.054,
        "duration": 0.089,
        "velocity": 1,
        "hand": "left"
      },
      {
        "midi": 37,
        "time": 57.143,
        "duration": 0.357,
        "velocity": 1,
        "hand": "left"
      },
      {
        "midi": 44,
        "time": 57.5,
        "duration": 0.357,
        "velocity": 1,
        "hand": "left"
      },
      {
        "midi": 49,
        "time": 57.768,
        "duration": 0.357,
        "velocity": 1,
        "hand": "left"
      },
      {
        "midi": 53,
        "time": 58.125,
        "duration": 0.357,
        "velocity": 1,
        "hand": "left"
      },
      {
        "midi": 56,
        "time": 58.482,
        "duration": 0.357,
        "velocity": 1,
        "hand": "left"
      },
      {
        "midi": 61,
        "time": 58.839,
        "duration": 0.357,
        "velocity": 1,
        "hand": "right"
      },
      {
        "midi": 65,
        "time": 59.107,
        "duration": 0.357,
        "velocity": 1,
        "hand": "right"
      },
      {
        "midi": 61,
        "time": 59.464,
        "duration": 0.357,
        "velocity": 1,
        "hand": "right"
      },
      {
        "midi": 56,
        "time": 59.821,
        "duration": 0.357,
        "velocity": 1,
        "hand": "left"
      },
      {
        "midi": 53,
        "time": 60.179,
        "duration": 0.357,
        "velocity": 1,
        "hand": "left"
      },
      {
        "midi": 49,
        "time": 60.446,
        "duration": 0.357,
        "velocity": 1,
        "hand": "left"
      },
      {
        "midi": 44,
        "time": 60.804,
        "duration": 0.357,
        "velocity": 1,
        "hand": "left"
      },
      {
        "midi": 37,
        "time": 61.161,
        "duration": 0.357,
        "velocity": 1,
        "hand": "left"
      },
      {
        "midi": 44,
        "time": 61.518,
        "duration": 0.357,
        "velocity": 1,
        "hand": "left"
      },
      {
        "midi": 49,
        "time": 61.786,
        "duration": 0.357,
        "velocity": 1,
        "hand": "left"
      },
      {
        "midi": 53,
        "time": 62.143,
        "duration": 0.357,
        "velocity": 1,
        "hand": "left"
      },
      {
        "midi": 56,
        "time": 62.5,
        "duration": 0.357,
        "velocity": 1,
        "hand": "left"
      },
      {
        "midi": 61,
        "time": 62.768,
        "duration": 0.357,
        "velocity": 1,
        "hand": "right"
      },
      {
        "midi": 65,
        "time": 63.125,
        "duration": 0.357,
        "velocity": 1,
        "hand": "right"
      },
      {
        "midi": 61,
        "time": 63.482,
        "duration": 0.357,
        "velocity": 1,
        "hand": "right"
      },
      {
        "midi": 56,
        "time": 63.839,
        "duration": 0.357,
        "velocity": 1,
        "hand": "left"
      },
      {
        "midi": 53,
        "time": 64.107,
        "duration": 0.357,
        "velocity": 1,
        "hand": "left"
      },
      {
        "midi": 49,
        "time": 64.464,
        "duration": 0.357,
        "velocity": 1,
        "hand": "left"
      },
      {
        "midi": 44,
        "time": 64.821,
        "duration": 0.536,
        "velocity": 1,
        "hand": "left"
      },
      {
        "midi": 37,
        "time": 65.179,
        "duration": 0.179,
        "velocity": 1,
        "hand": "left"
      },
      {
        "midi": 68,
        "time": 65.179,
        "duration": 1.339,
        "velocity": 1,
        "hand": "right"
      },
      {
        "midi": 56,
        "time": 65.357,
        "duration": 0.179,
        "velocity": 1,
        "hand": "left"
      },
      {
        "midi": 60,
        "time": 65.625,
        "duration": 0.179,
        "velocity": 1,
        "hand": "right"
      },
      {
        "midi": 63,
        "time": 65.804,
        "duration": 0.179,
        "velocity": 1,
        "hand": "right"
      },
      {
        "midi": 60,
        "time": 66.071,
        "duration": 0.179,
        "velocity": 1,
        "hand": "right"
      },
      {
        "midi": 56,
        "time": 66.25,
        "duration": 0.179,
        "velocity": 1,
        "hand": "left"
      },
      {
        "midi": 49,
        "time": 66.518,
        "duration": 0.179,
        "velocity": 1,
        "hand": "left"
      },
      {
        "midi": 70,
        "time": 66.518,
        "duration": 0.357,
        "velocity": 1,
        "hand": "right"
      },
      {
        "midi": 56,
        "time": 66.696,
        "duration": 0.179,
        "velocity": 1,
        "hand": "left"
      },
      {
        "midi": 68,
        "time": 66.786,
        "duration": 0.357,
        "velocity": 1,
        "hand": "right"
      },
      {
        "midi": 60,
        "time": 66.964,
        "duration": 0.179,
        "velocity": 1,
        "hand": "right"
      },
      {
        "midi": 66,
        "time": 67.143,
        "duration": 0.179,
        "velocity": 1,
        "hand": "right"
      },
      {
        "midi": 73,
        "time": 67.143,
        "duration": 0.357,
        "velocity": 1,
        "hand": "right"
      },
      {
        "midi": 60,
        "time": 67.321,
        "duration": 0.179,
        "velocity": 1,
        "hand": "right"
      },
      {
        "midi": 75,
        "time": 67.5,
        "duration": 0.357,
        "velocity": 1,
        "hand": "right"
      },
      {
        "midi": 56,
        "time": 67.589,
        "duration": 0.179,
        "velocity": 1,
        "hand": "left"
      },
      {
        "midi": 49,
        "time": 67.768,
        "duration": 0.179,
        "velocity": 1,
        "hand": "left"
      },
      {
        "midi": 77,
        "time": 67.768,
        "duration": 1.339,
        "velocity": 1,
        "hand": "right"
      },
      {
        "midi": 56,
        "time": 68.036,
        "duration": 0.179,
        "velocity": 1,
        "hand": "left"
      },
      {
        "midi": 61,
        "time": 68.214,
        "duration": 0.179,
        "velocity": 1,
        "hand": "right"
      },
      {
        "midi": 65,
        "time": 68.482,
        "duration": 0.179,
        "velocity": 1,
        "hand": "right"
      },
      {
        "midi": 61,
        "time": 68.661,
        "duration": 0.179,
        "velocity": 1,
        "hand": "right"
      },
      {
        "midi": 56,
        "time": 68.929,
        "duration": 0.179,
        "velocity": 1,
        "hand": "left"
      },
      {
        "midi": 49,
        "time": 69.107,
        "duration": 0.179,
        "velocity": 1,
        "hand": "left"
      },
      {
        "midi": 80,
        "time": 69.107,
        "duration": 1.339,
        "velocity": 1,
        "hand": "right"
      },
      {
        "midi": 56,
        "time": 69.375,
        "duration": 0.179,
        "velocity": 1,
        "hand": "left"
      },
      {
        "midi": 65,
        "time": 69.554,
        "duration": 0.179,
        "velocity": 1,
        "hand": "right"
      },
      {
        "midi": 68,
        "time": 69.821,
        "duration": 0.625,
        "velocity": 1,
        "hand": "right"
      },
      {
        "midi": 65,
        "time": 70,
        "duration": 0.179,
        "velocity": 1,
        "hand": "right"
      },
      {
        "midi": 56,
        "time": 70.268,
        "duration": 0.179,
        "velocity": 1,
        "hand": "left"
      },
      {
        "midi": 66,
        "time": 70.446,
        "duration": 0.625,
        "velocity": 1,
        "hand": "right"
      },
      {
        "midi": 78,
        "time": 70.446,
        "duration": 0.625,
        "velocity": 1,
        "hand": "right"
      },
      {
        "midi": 63,
        "time": 70.714,
        "duration": 0.179,
        "velocity": 1,
        "hand": "right"
      },
      {
        "midi": 56,
        "time": 70.893,
        "duration": 0.179,
        "velocity": 1,
        "hand": "left"
      },
      {
        "midi": 65,
        "time": 71.161,
        "duration": 0.625,
        "velocity": 1,
        "hand": "right"
      },
      {
        "midi": 77,
        "time": 71.161,
        "duration": 0.625,
        "velocity": 1,
        "hand": "right"
      },
      {
        "midi": 61,
        "time": 71.339,
        "duration": 0.179,
        "velocity": 1,
        "hand": "right"
      },
      {
        "midi": 56,
        "time": 71.607,
        "duration": 0.179,
        "velocity": 1,
        "hand": "left"
      },
      {
        "midi": 63,
        "time": 71.786,
        "duration": 0.625,
        "velocity": 1,
        "hand": "right"
      },
      {
        "midi": 75,
        "time": 71.786,
        "duration": 0.625,
        "velocity": 1,
        "hand": "right"
      },
      {
        "midi": 60,
        "time": 72.054,
        "duration": 0.179,
        "velocity": 1,
        "hand": "right"
      },
      {
        "midi": 56,
        "time": 72.232,
        "duration": 0.179,
        "velocity": 1,
        "hand": "left"
      },
      {
        "midi": 61,
        "time": 72.5,
        "duration": 0.625,
        "velocity": 1,
        "hand": "right"
      },
      {
        "midi": 77,
        "time": 72.5,
        "duration": 0.536,
        "velocity": 1,
        "hand": "right"
      },
      {
        "midi": 56,
        "time": 72.679,
        "duration": 0.179,
        "velocity": 1,
        "hand": "left"
      },
      {
        "midi": 53,
        "time": 72.946,
        "duration": 0.179,
        "velocity": 1,
        "hand": "left"
      },
      {
        "midi": 73,
        "time": 72.946,
        "duration": 0.179,
        "velocity": 1,
        "hand": "right"
      },
      {
        "midi": 44,
        "time": 73.125,
        "duration": 0.179,
        "velocity": 1,
        "hand": "left"
      },
      {
        "midi": 68,
        "time": 73.125,
        "duration": 1.339,
        "velocity": 1,
        "hand": "right"
      },
      {
        "midi": 51,
        "time": 73.393,
        "duration": 0.179,
        "velocity": 1,
        "hand": "left"
      },
      {
        "midi": 56,
        "time": 73.571,
        "duration": 0.179,
        "velocity": 1,
        "hand": "left"
      },
      {
        "midi": 60,
        "time": 73.839,
        "duration": 0.179,
        "velocity": 1,
        "hand": "right"
      },
      {
        "midi": 56,
        "time": 74.018,
        "duration": 0.179,
        "velocity": 1,
        "hand": "left"
      },
      {
        "midi": 51,
        "time": 74.286,
        "duration": 0.179,
        "velocity": 1,
        "hand": "left"
      },
      {
        "midi": 42,
        "time": 74.464,
        "duration": 0.179,
        "velocity": 1,
        "hand": "left"
      },
      {
        "midi": 70,
        "time": 74.464,
        "duration": 2.679,
        "velocity": 1,
        "hand": "right"
      },
      {
        "midi": 54,
        "time": 74.732,
        "duration": 0.179,
        "velocity": 1,
        "hand": "left"
      },
      {
        "midi": 58,
        "time": 74.911,
        "duration": 0.179,
        "velocity": 1,
        "hand": "left"
      },
      {
        "midi": 61,
        "time": 75.179,
        "duration": 0.179,
        "velocity": 1,
        "hand": "right"
      },
      {
        "midi": 58,
        "time": 75.357,
        "duration": 0.179,
        "velocity": 1,
        "hand": "left"
      },
      {
        "midi": 54,
        "time": 75.625,
        "duration": 0.179,
        "velocity": 1,
        "hand": "left"
      },
      {
        "midi": 46,
        "time": 75.804,
        "duration": 0.179,
        "velocity": 1,
        "hand": "left"
      },
      {
        "midi": 53,
        "time": 76.071,
        "duration": 0.179,
        "velocity": 1,
        "hand": "left"
      },
      {
        "midi": 58,
        "time": 76.25,
        "duration": 0.179,
        "velocity": 1,
        "hand": "left"
      },
      {
        "midi": 62,
        "time": 76.518,
        "duration": 0.179,
        "velocity": 1,
        "hand": "right"
      },
      {
        "midi": 58,
        "time": 76.696,
        "duration": 0.179,
        "velocity": 1,
        "hand": "left"
      },
      {
        "midi": 53,
        "time": 76.964,
        "duration": 0.179,
        "velocity": 1,
        "hand": "left"
      },
      {
        "midi": 46,
        "time": 77.143,
        "duration": 0.179,
        "velocity": 1,
        "hand": "left"
      },
      {
        "midi": 71,
        "time": 77.143,
        "duration": 0.357,
        "velocity": 1,
        "hand": "right"
      },
      {
        "midi": 58,
        "time": 77.321,
        "duration": 0.179,
        "velocity": 1,
        "hand": "left"
      },
      {
        "midi": 70,
        "time": 77.5,
        "duration": 0.357,
        "velocity": 1,
        "hand": "right"
      },
      {
        "midi": 62,
        "time": 77.589,
        "duration": 0.179,
        "velocity": 1,
        "hand": "right"
      },
      {
        "midi": 68,
        "time": 77.768,
        "duration": 0.179,
        "velocity": 1,
        "hand": "right"
      },
      {
        "midi": 75,
        "time": 77.768,
        "duration": 0.357,
        "velocity": 1,
        "hand": "right"
      },
      {
        "midi": 62,
        "time": 78.036,
        "duration": 0.179,
        "velocity": 1,
        "hand": "right"
      },
      {
        "midi": 77,
        "time": 78.125,
        "duration": 0.357,
        "velocity": 1,
        "hand": "right"
      },
      {
        "midi": 58,
        "time": 78.214,
        "duration": 0.179,
        "velocity": 1,
        "hand": "left"
      },
      {
        "midi": 51,
        "time": 78.482,
        "duration": 0.179,
        "velocity": 1,
        "hand": "left"
      },
      {
        "midi": 78,
        "time": 78.482,
        "duration": 0.625,
        "velocity": 1,
        "hand": "right"
      },
      {
        "midi": 66,
        "time": 78.661,
        "duration": 0.179,
        "velocity": 1,
        "hand": "right"
      },
      {
        "midi": 58,
        "time": 78.929,
        "duration": 0.179,
        "velocity": 1,
        "hand": "left"
      },
      {
        "midi": 53,
        "time": 79.107,
        "duration": 0.179,
        "velocity": 1,
        "hand": "left"
      },
      {
        "midi": 77,
        "time": 79.107,
        "duration": 0.625,
        "velocity": 1,
        "hand": "right"
      },
      {
        "midi": 65,
        "time": 79.375,
        "duration": 0.179,
        "velocity": 1,
        "hand": "right"
      },
      {
        "midi": 57,
        "time": 79.554,
        "duration": 0.179,
        "velocity": 1,
        "hand": "left"
      },
      {
        "midi": 54,
        "time": 79.821,
        "duration": 0.179,
        "velocity": 1,
        "hand": "left"
      },
      {
        "midi": 75,
        "time": 79.821,
        "duration": 0.625,
        "velocity": 1,
        "hand": "right"
      },
      {
        "midi": 63,
        "time": 80,
        "duration": 0.179,
        "velocity": 1,
        "hand": "right"
      },
      {
        "midi": 58,
        "time": 80.268,
        "duration": 0.179,
        "velocity": 1,
        "hand": "left"
      },
      {
        "midi": 56,
        "time": 80.446,
        "duration": 0.179,
        "velocity": 1,
        "hand": "left"
      },
      {
        "midi": 77,
        "time": 80.446,
        "duration": 0.625,
        "velocity": 1,
        "hand": "right"
      },
      {
        "midi": 66,
        "time": 80.714,
        "duration": 0.179,
        "velocity": 1,
        "hand": "right"
      },
      {
        "midi": 60,
        "time": 80.893,
        "duration": 0.179,
        "velocity": 1,
        "hand": "right"
      },
      {
        "midi": 49,
        "time": 81.161,
        "duration": 0.179,
        "velocity": 1,
        "hand": "left"
      },
      {
        "midi": 73,
        "time": 81.161,
        "duration": 1.25,
        "velocity": 1,
        "hand": "right"
      },
      {
        "midi": 56,
        "time": 81.339,
        "duration": 0.179,
        "velocity": 1,
        "hand": "left"
      },
      {
        "midi": 61,
        "time": 81.607,
        "duration": 0.179,
        "velocity": 1,
        "hand": "right"
      },
      {
        "midi": 65,
        "time": 81.786,
        "duration": 0.179,
        "velocity": 1,
        "hand": "right"
      },
      {
        "midi": 61,
        "time": 82.054,
        "duration": 0.179,
        "velocity": 1,
        "hand": "right"
      },
      {
        "midi": 56,
        "time": 82.232,
        "duration": 0.179,
        "velocity": 1,
        "hand": "left"
      },
      {
        "midi": 72,
        "time": 82.411,
        "duration": 0.045,
        "velocity": 1,
        "hand": "right"
      },
      {
        "midi": 73,
        "time": 82.411,
        "duration": 0.045,
        "velocity": 1,
        "hand": "right"
      },
      {
        "midi": 75,
        "time": 82.411,
        "duration": 0.045,
        "velocity": 1,
        "hand": "right"
      },
      {
        "midi": 51,
        "time": 82.5,
        "duration": 0.179,
        "velocity": 1,
        "hand": "left"
      },
      {
        "midi": 73,
        "time": 82.5,
        "duration": 0.045,
        "velocity": 1,
        "hand": "right"
      },
      {
        "midi": 77,
        "time": 82.5,
        "duration": 0.982,
        "velocity": 1,
        "hand": "right"
      },
      {
        "midi": 55,
        "time": 82.679,
        "duration": 0.179,
        "velocity": 1,
        "hand": "left"
      },
      {
        "midi": 61,
        "time": 82.946,
        "duration": 0.179,
        "velocity": 1,
        "hand": "right"
      },
      {
        "midi": 63,
        "time": 83.125,
        "duration": 0.179,
        "velocity": 1,
        "hand": "right"
      },
      {
        "midi": 61,
        "time": 83.393,
        "duration": 0.179,
        "velocity": 1,
        "hand": "right"
      },
      {
        "midi": 75,
        "time": 83.482,
        "duration": 0.357,
        "velocity": 1,
        "hand": "right"
      },
      {
        "midi": 55,
        "time": 83.571,
        "duration": 0.179,
        "velocity": 1,
        "hand": "left"
      },
      {
        "midi": 44,
        "time": 83.839,
        "duration": 0.179,
        "velocity": 1,
        "hand": "left"
      },
      {
        "midi": 75,
        "time": 83.839,
        "duration": 2.679,
        "velocity": 1,
        "hand": "right"
      },
      {
        "midi": 51,
        "time": 84.018,
        "duration": 0.179,
        "velocity": 1,
        "hand": "left"
      },
      {
        "midi": 56,
        "time": 84.286,
        "duration": 0.179,
        "velocity": 1,
        "hand": "left"
      },
      {
        "midi": 60,
        "time": 84.464,
        "duration": 0.179,
        "velocity": 1,
        "hand": "right"
      },
      {
        "midi": 56,
        "time": 84.732,
        "duration": 0.179,
        "velocity": 1,
        "hand": "left"
      },
      {
        "midi": 51,
        "time": 84.911,
        "duration": 0.179,
        "velocity": 1,
        "hand": "left"
      },
      {
        "midi": 44,
        "time": 85.179,
        "duration": 0.179,
        "velocity": 1,
        "hand": "left"
      },
      {
        "midi": 51,
        "time": 85.357,
        "duration": 0.179,
        "velocity": 1,
        "hand": "left"
      },
      {
        "midi": 54,
        "time": 85.625,
        "duration": 0.179,
        "velocity": 1,
        "hand": "left"
      },
      {
        "midi": 58,
        "time": 85.804,
        "duration": 0.625,
        "velocity": 1,
        "hand": "left"
      },
      {
        "midi": 54,
        "time": 86.071,
        "duration": 0.179,
        "velocity": 1,
        "hand": "left"
      },
      {
        "midi": 51,
        "time": 86.25,
        "duration": 0.179,
        "velocity": 1,
        "hand": "left"
      },
      {
        "midi": 44,
        "time": 86.518,
        "duration": 0.179,
        "velocity": 1,
        "hand": "left"
      },
      {
        "midi": 68,
        "time": 86.518,
        "duration": 1.339,
        "velocity": 1,
        "hand": "right"
      },
      {
        "midi": 51,
        "time": 86.696,
        "duration": 0.179,
        "velocity": 1,
        "hand": "left"
      },
      {
        "midi": 56,
        "time": 86.964,
        "duration": 0.179,
        "velocity": 1,
        "hand": "left"
      },
      {
        "midi": 60,
        "time": 87.143,
        "duration": 0.179,
        "velocity": 1,
        "hand": "right"
      },
      {
        "midi": 56,
        "time": 87.321,
        "duration": 0.179,
        "velocity": 1,
        "hand": "left"
      },
      {
        "midi": 51,
        "time": 87.589,
        "duration": 0.179,
        "velocity": 1,
        "hand": "left"
      },
      {
        "midi": 44,
        "time": 87.768,
        "duration": 0.179,
        "velocity": 1,
        "hand": "left"
      },
      {
        "midi": 70,
        "time": 87.768,
        "duration": 0.357,
        "velocity": 1,
        "hand": "right"
      },
      {
        "midi": 56,
        "time": 88.036,
        "duration": 0.179,
        "velocity": 1,
        "hand": "left"
      },
      {
        "midi": 68,
        "time": 88.125,
        "duration": 0.357,
        "velocity": 1,
        "hand": "right"
      },
      {
        "midi": 60,
        "time": 88.214,
        "duration": 0.179,
        "velocity": 1,
        "hand": "right"
      },
      {
        "midi": 66,
        "time": 88.482,
        "duration": 0.179,
        "velocity": 1,
        "hand": "right"
      },
      {
        "midi": 73,
        "time": 88.482,
        "duration": 0.357,
        "velocity": 1,
        "hand": "right"
      },
      {
        "midi": 60,
        "time": 88.661,
        "duration": 0.179,
        "velocity": 1,
        "hand": "right"
      },
      {
        "midi": 75,
        "time": 88.839,
        "duration": 0.357,
        "velocity": 1,
        "hand": "right"
      },
      {
        "midi": 56,
        "time": 88.929,
        "duration": 0.179,
        "velocity": 1,
        "hand": "left"
      },
      {
        "midi": 49,
        "time": 89.107,
        "duration": 0.179,
        "velocity": 1,
        "hand": "left"
      },
      {
        "midi": 77,
        "time": 89.107,
        "duration": 1.339,
        "velocity": 1,
        "hand": "right"
      },
      {
        "midi": 56,
        "time": 89.375,
        "duration": 0.179,
        "velocity": 1,
        "hand": "left"
      },
      {
        "midi": 61,
        "time": 89.554,
        "duration": 0.179,
        "velocity": 1,
        "hand": "right"
      },
      {
        "midi": 65,
        "time": 89.821,
        "duration": 0.179,
        "velocity": 1,
        "hand": "right"
      },
      {
        "midi": 61,
        "time": 90,
        "duration": 0.179,
        "velocity": 1,
        "hand": "right"
      },
      {
        "midi": 56,
        "time": 90.268,
        "duration": 0.179,
        "velocity": 1,
        "hand": "left"
      },
      {
        "midi": 49,
        "time": 90.446,
        "duration": 0.179,
        "velocity": 1,
        "hand": "left"
      },
      {
        "midi": 80,
        "time": 90.446,
        "duration": 1.339,
        "velocity": 1,
        "hand": "right"
      },
      {
        "midi": 56,
        "time": 90.714,
        "duration": 0.179,
        "velocity": 1,
        "hand": "left"
      },
      {
        "midi": 65,
        "time": 90.893,
        "duration": 0.179,
        "velocity": 1,
        "hand": "right"
      },
      {
        "midi": 68,
        "time": 91.161,
        "duration": 0.625,
        "velocity": 1,
        "hand": "right"
      },
      {
        "midi": 65,
        "time": 91.339,
        "duration": 0.179,
        "velocity": 1,
        "hand": "right"
      },
      {
        "midi": 56,
        "time": 91.607,
        "duration": 0.179,
        "velocity": 1,
        "hand": "left"
      },
      {
        "midi": 66,
        "time": 91.786,
        "duration": 0.625,
        "velocity": 1,
        "hand": "right"
      },
      {
        "midi": 78,
        "time": 91.786,
        "duration": 0.625,
        "velocity": 1,
        "hand": "right"
      },
      {
        "midi": 63,
        "time": 92.054,
        "duration": 0.179,
        "velocity": 1,
        "hand": "right"
      },
      {
        "midi": 56,
        "time": 92.232,
        "duration": 0.179,
        "velocity": 1,
        "hand": "left"
      },
      {
        "midi": 65,
        "time": 92.5,
        "duration": 0.625,
        "velocity": 1,
        "hand": "right"
      },
      {
        "midi": 77,
        "time": 92.5,
        "duration": 0.625,
        "velocity": 1,
        "hand": "right"
      },
      {
        "midi": 61,
        "time": 92.679,
        "duration": 0.179,
        "velocity": 1,
        "hand": "right"
      },
      {
        "midi": 56,
        "time": 92.946,
        "duration": 0.179,
        "velocity": 1,
        "hand": "left"
      },
      {
        "midi": 63,
        "time": 93.125,
        "duration": 0.625,
        "velocity": 1,
        "hand": "right"
      },
      {
        "midi": 75,
        "time": 93.125,
        "duration": 0.536,
        "velocity": 1,
        "hand": "right"
      },
      {
        "midi": 60,
        "time": 93.393,
        "duration": 0.179,
        "velocity": 1,
        "hand": "right"
      },
      {
        "midi": 56,
        "time": 93.571,
        "duration": 0.179,
        "velocity": 1,
        "hand": "left"
      },
      {
        "midi": 75,
        "time": 93.661,
        "duration": 0.045,
        "velocity": 1,
        "hand": "right"
      },
      {
        "midi": 77,
        "time": 93.661,
        "duration": 0.045,
        "velocity": 1,
        "hand": "right"
      },
      {
        "midi": 73,
        "time": 93.75,
        "duration": 0.045,
        "velocity": 1,
        "hand": "right"
      },
      {
        "midi": 75,
        "time": 93.75,
        "duration": 0.045,
        "velocity": 1,
        "hand": "right"
      },
      {
        "midi": 61,
        "time": 93.839,
        "duration": 0.625,
        "velocity": 1,
        "hand": "right"
      },
      {
        "midi": 77,
        "time": 93.839,
        "duration": 0.536,
        "velocity": 1,
        "hand": "right"
      },
      {
        "midi": 56,
        "time": 94.018,
        "duration": 0.179,
        "velocity": 1,
        "hand": "left"
      },
      {
        "midi": 53,
        "time": 94.286,
        "duration": 0.179,
        "velocity": 1,
        "hand": "left"
      },
      {
        "midi": 73,
        "time": 94.286,
        "duration": 0.179,
        "velocity": 1,
        "hand": "right"
      },
      {
        "midi": 44,
        "time": 94.464,
        "duration": 0.179,
        "velocity": 1,
        "hand": "left"
      },
      {
        "midi": 68,
        "time": 94.464,
        "duration": 1.339,
        "velocity": 1,
        "hand": "right"
      },
      {
        "midi": 51,
        "time": 94.732,
        "duration": 0.179,
        "velocity": 1,
        "hand": "left"
      },
      {
        "midi": 56,
        "time": 94.911,
        "duration": 0.179,
        "velocity": 1,
        "hand": "left"
      },
      {
        "midi": 60,
        "time": 95.179,
        "duration": 0.179,
        "velocity": 1,
        "hand": "right"
      },
      {
        "midi": 56,
        "time": 95.357,
        "duration": 0.179,
        "velocity": 1,
        "hand": "left"
      },
      {
        "midi": 51,
        "time": 95.625,
        "duration": 0.179,
        "velocity": 1,
        "hand": "left"
      },
      {
        "midi": 42,
        "time": 95.804,
        "duration": 0.179,
        "velocity": 1,
        "hand": "left"
      },
      {
        "midi": 70,
        "time": 95.804,
        "duration": 2.679,
        "velocity": 1,
        "hand": "right"
      },
      {
        "midi": 54,
        "time": 96.071,
        "duration": 0.179,
        "velocity": 1,
        "hand": "left"
      },
      {
        "midi": 58,
        "time": 96.25,
        "duration": 0.179,
        "velocity": 1,
        "hand": "left"
      },
      {
        "midi": 61,
        "time": 96.518,
        "duration": 0.179,
        "velocity": 1,
        "hand": "right"
      },
      {
        "midi": 58,
        "time": 96.696,
        "duration": 0.179,
        "velocity": 1,
        "hand": "left"
      },
      {
        "midi": 54,
        "time": 96.964,
        "duration": 0.179,
        "velocity": 1,
        "hand": "left"
      },
      {
        "midi": 46,
        "time": 97.143,
        "duration": 0.179,
        "velocity": 1,
        "hand": "left"
      },
      {
        "midi": 53,
        "time": 97.321,
        "duration": 0.179,
        "velocity": 1,
        "hand": "left"
      },
      {
        "midi": 58,
        "time": 97.589,
        "duration": 0.179,
        "velocity": 1,
        "hand": "left"
      },
      {
        "midi": 62,
        "time": 97.768,
        "duration": 0.179,
        "velocity": 1,
        "hand": "right"
      },
      {
        "midi": 58,
        "time": 98.036,
        "duration": 0.179,
        "velocity": 1,
        "hand": "left"
      },
      {
        "midi": 53,
        "time": 98.214,
        "duration": 0.179,
        "velocity": 1,
        "hand": "left"
      },
      {
        "midi": 46,
        "time": 98.482,
        "duration": 0.179,
        "velocity": 1,
        "hand": "left"
      },
      {
        "midi": 71,
        "time": 98.482,
        "duration": 0.357,
        "velocity": 1,
        "hand": "right"
      },
      {
        "midi": 58,
        "time": 98.661,
        "duration": 0.179,
        "velocity": 1,
        "hand": "left"
      },
      {
        "midi": 70,
        "time": 98.839,
        "duration": 0.357,
        "velocity": 1,
        "hand": "right"
      },
      {
        "midi": 62,
        "time": 98.929,
        "duration": 0.179,
        "velocity": 1,
        "hand": "right"
      },
      {
        "midi": 68,
        "time": 99.107,
        "duration": 0.179,
        "velocity": 1,
        "hand": "right"
      },
      {
        "midi": 75,
        "time": 99.107,
        "duration": 0.357,
        "velocity": 1,
        "hand": "right"
      },
      {
        "midi": 62,
        "time": 99.375,
        "duration": 0.179,
        "velocity": 1,
        "hand": "right"
      },
      {
        "midi": 77,
        "time": 99.464,
        "duration": 0.357,
        "velocity": 1,
        "hand": "right"
      },
      {
        "midi": 58,
        "time": 99.554,
        "duration": 0.179,
        "velocity": 1,
        "hand": "left"
      },
      {
        "midi": 51,
        "time": 99.821,
        "duration": 0.179,
        "velocity": 1,
        "hand": "left"
      },
      {
        "midi": 78,
        "time": 99.821,
        "duration": 0.625,
        "velocity": 1,
        "hand": "right"
      },
      {
        "midi": 66,
        "time": 100,
        "duration": 0.179,
        "velocity": 1,
        "hand": "right"
      },
      {
        "midi": 58,
        "time": 100.268,
        "duration": 0.179,
        "velocity": 1,
        "hand": "left"
      },
      {
        "midi": 53,
        "time": 100.446,
        "duration": 0.179,
        "velocity": 1,
        "hand": "left"
      },
      {
        "midi": 77,
        "time": 100.446,
        "duration": 0.625,
        "velocity": 1,
        "hand": "right"
      },
      {
        "midi": 65,
        "time": 100.714,
        "duration": 0.179,
        "velocity": 1,
        "hand": "right"
      },
      {
        "midi": 57,
        "time": 100.893,
        "duration": 0.179,
        "velocity": 1,
        "hand": "left"
      },
      {
        "midi": 54,
        "time": 101.161,
        "duration": 0.179,
        "velocity": 1,
        "hand": "left"
      },
      {
        "midi": 75,
        "time": 101.161,
        "duration": 0.625,
        "velocity": 1,
        "hand": "right"
      },
      {
        "midi": 63,
        "time": 101.339,
        "duration": 0.179,
        "velocity": 1,
        "hand": "right"
      },
      {
        "midi": 58,
        "time": 101.607,
        "duration": 0.179,
        "velocity": 1,
        "hand": "left"
      },
      {
        "midi": 56,
        "time": 101.786,
        "duration": 0.179,
        "velocity": 1,
        "hand": "left"
      },
      {
        "midi": 77,
        "time": 101.786,
        "duration": 0.625,
        "velocity": 1,
        "hand": "right"
      },
      {
        "midi": 66,
        "time": 102.054,
        "duration": 0.179,
        "velocity": 1,
        "hand": "right"
      },
      {
        "midi": 60,
        "time": 102.232,
        "duration": 0.179,
        "velocity": 1,
        "hand": "right"
      },
      {
        "midi": 49,
        "time": 102.5,
        "duration": 0.179,
        "velocity": 1,
        "hand": "left"
      },
      {
        "midi": 73,
        "time": 102.5,
        "duration": 0.982,
        "velocity": 1,
        "hand": "right"
      },
      {
        "midi": 56,
        "time": 102.679,
        "duration": 0.179,
        "velocity": 1,
        "hand": "left"
      },
      {
        "midi": 61,
        "time": 102.946,
        "duration": 0.179,
        "velocity": 1,
        "hand": "right"
      },
      {
        "midi": 65,
        "time": 103.125,
        "duration": 0.179,
        "velocity": 1,
        "hand": "right"
      },
      {
        "midi": 61,
        "time": 103.393,
        "duration": 0.179,
        "velocity": 1,
        "hand": "right"
      },
      {
        "midi": 67,
        "time": 103.482,
        "duration": 0.089,
        "velocity": 1,
        "hand": "right"
      },
      {
        "midi": 56,
        "time": 103.571,
        "duration": 0.179,
        "velocity": 1,
        "hand": "left"
      },
      {
        "midi": 68,
        "time": 103.571,
        "duration": 0.089,
        "velocity": 1,
        "hand": "right"
      },
      {
        "midi": 70,
        "time": 103.661,
        "duration": 0.089,
        "velocity": 1,
        "hand": "right"
      },
      {
        "midi": 68,
        "time": 103.75,
        "duration": 0.089,
        "velocity": 1,
        "hand": "right"
      },
      {
        "midi": 49,
        "time": 103.839,
        "duration": 0.179,
        "velocity": 1,
        "hand": "left"
      },
      {
        "midi": 77,
        "time": 103.839,
        "duration": 0.982,
        "velocity": 1,
        "hand": "right"
      },
      {
        "midi": 56,
        "time": 104.018,
        "duration": 0.179,
        "velocity": 1,
        "hand": "left"
      },
      {
        "midi": 60,
        "time": 104.286,
        "duration": 0.179,
        "velocity": 1,
        "hand": "right"
      },
      {
        "midi": 66,
        "time": 104.464,
        "duration": 0.179,
        "velocity": 1,
        "hand": "right"
      },
      {
        "midi": 60,
        "time": 104.732,
        "duration": 0.179,
        "velocity": 1,
        "hand": "right"
      },
      {
        "midi": 75,
        "time": 104.821,
        "duration": 0.357,
        "velocity": 1,
        "hand": "right"
      },
      {
        "midi": 56,
        "time": 104.911,
        "duration": 0.179,
        "velocity": 1,
        "hand": "left"
      },
      {
        "midi": 49,
        "time": 105.179,
        "duration": 0.179,
        "velocity": 1,
        "hand": "left"
      },
      {
        "midi": 75,
        "time": 105.179,
        "duration": 1.339,
        "velocity": 1,
        "hand": "right"
      },
      {
        "midi": 56,
        "time": 105.357,
        "duration": 0.179,
        "velocity": 1,
        "hand": "left"
      },
      {
        "midi": 60,
        "time": 105.625,
        "duration": 0.179,
        "velocity": 1,
        "hand": "right"
      },
      {
        "midi": 66,
        "time": 105.804,
        "duration": 0.179,
        "velocity": 1,
        "hand": "right"
      },
      {
        "midi": 60,
        "time": 106.071,
        "duration": 0.179,
        "velocity": 1,
        "hand": "right"
      },
      {
        "midi": 56,
        "time": 106.25,
        "duration": 0.179,
        "velocity": 1,
        "hand": "left"
      },
      {
        "midi": 49,
        "time": 106.518,
        "duration": 0.179,
        "velocity": 1,
        "hand": "left"
      },
      {
        "midi": 73,
        "time": 106.518,
        "duration": 0.625,
        "velocity": 1,
        "hand": "right"
      },
      {
        "midi": 56,
        "time": 106.696,
        "duration": 0.179,
        "velocity": 1,
        "hand": "left"
      },
      {
        "midi": 61,
        "time": 106.964,
        "duration": 0.179,
        "velocity": 1,
        "hand": "right"
      },
      {
        "midi": 65,
        "time": 107.143,
        "duration": 0.179,
        "velocity": 1,
        "hand": "right"
      },
      {
        "midi": 61,
        "time": 107.321,
        "duration": 0.179,
        "velocity": 1,
        "hand": "right"
      },
      {
        "midi": 80,
        "time": 107.5,
        "duration": 0.357,
        "velocity": 1,
        "hand": "right"
      },
      {
        "midi": 56,
        "time": 107.589,
        "duration": 0.179,
        "velocity": 1,
        "hand": "left"
      },
      {
        "midi": 44,
        "time": 107.768,
        "duration": 0.179,
        "velocity": 1,
        "hand": "left"
      },
      {
        "midi": 68,
        "time": 107.768,
        "duration": 1.339,
        "velocity": 1,
        "hand": "right"
      },
      {
        "midi": 51,
        "time": 108.036,
        "duration": 0.179,
        "velocity": 1,
        "hand": "left"
      },
      {
        "midi": 56,
        "time": 108.214,
        "duration": 0.179,
        "velocity": 1,
        "hand": "left"
      },
      {
        "midi": 60,
        "time": 108.482,
        "duration": 0.179,
        "velocity": 1,
        "hand": "right"
      },
      {
        "midi": 56,
        "time": 108.661,
        "duration": 0.179,
        "velocity": 1,
        "hand": "left"
      },
      {
        "midi": 51,
        "time": 108.929,
        "duration": 0.179,
        "velocity": 1,
        "hand": "left"
      },
      {
        "midi": 44,
        "time": 109.107,
        "duration": 0.179,
        "velocity": 1,
        "hand": "left"
      },
      {
        "midi": 70,
        "time": 109.107,
        "duration": 0.536,
        "velocity": 1,
        "hand": "right"
      },
      {
        "midi": 51,
        "time": 109.375,
        "duration": 0.179,
        "velocity": 1,
        "hand": "left"
      },
      {
        "midi": 55,
        "time": 109.554,
        "duration": 0.179,
        "velocity": 1,
        "hand": "left"
      },
      {
        "midi": 69,
        "time": 109.643,
        "duration": 0.179,
        "velocity": 1,
        "hand": "right"
      },
      {
        "midi": 61,
        "time": 109.821,
        "duration": 0.179,
        "velocity": 1,
        "hand": "right"
      },
      {
        "midi": 70,
        "time": 109.821,
        "duration": 0.536,
        "velocity": 1,
        "hand": "right"
      },
      {
        "midi": 55,
        "time": 110,
        "duration": 0.179,
        "velocity": 1,
        "hand": "left"
      },
      {
        "midi": 51,
        "time": 110.268,
        "duration": 0.179,
        "velocity": 1,
        "hand": "left"
      },
      {
        "midi": 72,
        "time": 110.268,
        "duration": 0.179,
        "velocity": 1,
        "hand": "right"
      },
      {
        "midi": 44,
        "time": 110.446,
        "duration": 0.179,
        "velocity": 1,
        "hand": "left"
      },
      {
        "midi": 68,
        "time": 110.446,
        "duration": 0.357,
        "velocity": 1,
        "hand": "right"
      },
      {
        "midi": 51,
        "time": 110.714,
        "duration": 0.179,
        "velocity": 1,
        "hand": "left"
      },
      {
        "midi": 56,
        "time": 110.893,
        "duration": 0.179,
        "velocity": 1,
        "hand": "left"
      },
      {
        "midi": 60,
        "time": 111.161,
        "duration": 0.179,
        "velocity": 1,
        "hand": "right"
      },
      {
        "midi": 84,
        "time": 111.161,
        "duration": 0.893,
        "velocity": 1,
        "hand": "right"
      },
      {
        "midi": 56,
        "time": 111.339,
        "duration": 0.179,
        "velocity": 1,
        "hand": "left"
      },
      {
        "midi": 51,
        "time": 111.607,
        "duration": 0.179,
        "velocity": 1,
        "hand": "left"
      },
      {
        "midi": 49,
        "time": 111.786,
        "duration": 0.179,
        "velocity": 1,
        "hand": "left"
      },
      {
        "midi": 82,
        "time": 111.964,
        "duration": 0.179,
        "velocity": 1,
        "hand": "right"
      },
      {
        "midi": 56,
        "time": 112.054,
        "duration": 0.179,
        "velocity": 1,
        "hand": "left"
      },
      {
        "midi": 61,
        "time": 112.232,
        "duration": 0.179,
        "velocity": 1,
        "hand": "right"
      },
      {
        "midi": 80,
        "time": 112.232,
        "duration": 0.179,
        "velocity": 1,
        "hand": "right"
      },
      {
        "midi": 76,
        "time": 112.411,
        "duration": 0.179,
        "velocity": 1,
        "hand": "right"
      },
      {
        "midi": 64,
        "time": 112.5,
        "duration": 0.179,
        "velocity": 1,
        "hand": "right"
      },
      {
        "midi": 73,
        "time": 112.589,
        "duration": 0.179,
        "velocity": 1,
        "hand": "right"
      },
      {
        "midi": 61,
        "time": 112.679,
        "duration": 0.179,
        "velocity": 1,
        "hand": "right"
      },
      {
        "midi": 70,
        "time": 112.768,
        "duration": 0.268,
        "velocity": 1,
        "hand": "right"
      },
      {
        "midi": 56,
        "time": 112.946,
        "duration": 0.179,
        "velocity": 1,
        "hand": "left"
      },
      {
        "midi": 80,
        "time": 113.036,
        "duration": 0.089,
        "velocity": 1,
        "hand": "right"
      },
      {
        "midi": 39,
        "time": 113.125,
        "duration": 0.179,
        "velocity": 1,
        "hand": "left"
      },
      {
        "midi": 63,
        "time": 113.125,
        "duration": 1.25,
        "velocity": 1,
        "hand": "right"
      },
      {
        "midi": 51,
        "time": 113.393,
        "duration": 0.179,
        "velocity": 1,
        "hand": "left"
      },
      {
        "midi": 56,
        "time": 113.571,
        "duration": 0.179,
        "velocity": 1,
        "hand": "left"
      },
      {
        "midi": 60,
        "time": 113.839,
        "duration": 0.179,
        "velocity": 1,
        "hand": "right"
      },
      {
        "midi": 56,
        "time": 114.018,
        "duration": 0.179,
        "velocity": 1,
        "hand": "left"
      },
      {
        "midi": 51,
        "time": 114.286,
        "duration": 0.179,
        "velocity": 1,
        "hand": "left"
      },
      {
        "midi": 72,
        "time": 114.375,
        "duration": 0.089,
        "velocity": 1,
        "hand": "right"
      },
      {
        "midi": 39,
        "time": 114.464,
        "duration": 0.179,
        "velocity": 1,
        "hand": "left"
      },
      {
        "midi": 70,
        "time": 114.464,
        "duration": 0.536,
        "velocity": 1,
        "hand": "right"
      },
      {
        "midi": 51,
        "time": 114.732,
        "duration": 0.179,
        "velocity": 1,
        "hand": "left"
      },
      {
        "midi": 55,
        "time": 114.911,
        "duration": 0.179,
        "velocity": 1,
        "hand": "left"
      },
      {
        "midi": 69,
        "time": 115,
        "duration": 0.179,
        "velocity": 1,
        "hand": "right"
      },
      {
        "midi": 61,
        "time": 115.179,
        "duration": 0.179,
        "velocity": 1,
        "hand": "right"
      },
      {
        "midi": 70,
        "time": 115.179,
        "duration": 0.536,
        "velocity": 1,
        "hand": "right"
      },
      {
        "midi": 55,
        "time": 115.357,
        "duration": 0.179,
        "velocity": 1,
        "hand": "left"
      },
      {
        "midi": 51,
        "time": 115.625,
        "duration": 0.179,
        "velocity": 1,
        "hand": "left"
      },
      {
        "midi": 75,
        "time": 115.625,
        "duration": 0.179,
        "velocity": 1,
        "hand": "right"
      },
      {
        "midi": 44,
        "time": 115.804,
        "duration": 0.179,
        "velocity": 1,
        "hand": "left"
      },
      {
        "midi": 68,
        "time": 115.804,
        "duration": 0.625,
        "velocity": 1,
        "hand": "right"
      },
      {
        "midi": 51,
        "time": 116.071,
        "duration": 0.179,
        "velocity": 1,
        "hand": "left"
      },
      {
        "midi": 56,
        "time": 116.25,
        "duration": 0.179,
        "velocity": 1,
        "hand": "left"
      },
      {
        "midi": 60,
        "time": 116.518,
        "duration": 0.179,
        "velocity": 1,
        "hand": "right"
      },
      {
        "midi": 56,
        "time": 116.696,
        "duration": 0.179,
        "velocity": 1,
        "hand": "left"
      },
      {
        "midi": 51,
        "time": 116.964,
        "duration": 0.179,
        "velocity": 1,
        "hand": "left"
      },
      {
        "midi": 42,
        "time": 117.143,
        "duration": 0.179,
        "velocity": 1,
        "hand": "left"
      },
      {
        "midi": 70,
        "time": 117.143,
        "duration": 0.625,
        "velocity": 1,
        "hand": "right"
      },
      {
        "midi": 54,
        "time": 117.321,
        "duration": 0.179,
        "velocity": 1,
        "hand": "left"
      },
      {
        "midi": 58,
        "time": 117.589,
        "duration": 0.179,
        "velocity": 1,
        "hand": "left"
      },
      {
        "midi": 61,
        "time": 117.768,
        "duration": 0.179,
        "velocity": 1,
        "hand": "right"
      },
      {
        "midi": 73,
        "time": 117.768,
        "duration": 0.179,
        "velocity": 1,
        "hand": "right"
      },
      {
        "midi": 58,
        "time": 118.036,
        "duration": 0.179,
        "velocity": 1,
        "hand": "left"
      },
      {
        "midi": 72,
        "time": 118.036,
        "duration": 0.179,
        "velocity": 1,
        "hand": "right"
      },
      {
        "midi": 54,
        "time": 118.214,
        "duration": 0.179,
        "velocity": 1,
        "hand": "left"
      },
      {
        "midi": 70,
        "time": 118.214,
        "duration": 0.179,
        "velocity": 1,
        "hand": "right"
      },
      {
        "midi": 44,
        "time": 118.482,
        "duration": 0.179,
        "velocity": 1,
        "hand": "left"
      },
      {
        "midi": 68,
        "time": 118.482,
        "duration": 1.339,
        "velocity": 1,
        "hand": "right"
      },
      {
        "midi": 56,
        "time": 118.661,
        "duration": 0.179,
        "velocity": 1,
        "hand": "left"
      },
      {
        "midi": 60,
        "time": 118.929,
        "duration": 0.179,
        "velocity": 1,
        "hand": "right"
      },
      {
        "midi": 63,
        "time": 119.107,
        "duration": 0.179,
        "velocity": 1,
        "hand": "right"
      },
      {
        "midi": 60,
        "time": 119.375,
        "duration": 0.179,
        "velocity": 1,
        "hand": "right"
      },
      {
        "midi": 56,
        "time": 119.554,
        "duration": 0.179,
        "velocity": 1,
        "hand": "left"
      },
      {
        "midi": 51,
        "time": 119.821,
        "duration": 0.179,
        "velocity": 1,
        "hand": "left"
      },
      {
        "midi": 70,
        "time": 119.821,
        "duration": 0.357,
        "velocity": 1,
        "hand": "right"
      },
      {
        "midi": 56,
        "time": 120,
        "duration": 0.179,
        "velocity": 1,
        "hand": "left"
      },
      {
        "midi": 68,
        "time": 120.179,
        "duration": 0.357,
        "velocity": 1,
        "hand": "right"
      },
      {
        "midi": 60,
        "time": 120.268,
        "duration": 0.179,
        "velocity": 1,
        "hand": "right"
      },
      {
        "midi": 66,
        "time": 120.446,
        "duration": 0.179,
        "velocity": 1,
        "hand": "right"
      },
      {
        "midi": 73,
        "time": 120.446,
        "duration": 0.357,
        "velocity": 1,
        "hand": "right"
      },
      {
        "midi": 60,
        "time": 120.714,
        "duration": 0.179,
        "velocity": 1,
        "hand": "right"
      },
      {
        "midi": 75,
        "time": 120.804,
        "duration": 0.357,
        "velocity": 1,
        "hand": "right"
      },
      {
        "midi": 56,
        "time": 120.893,
        "duration": 0.179,
        "velocity": 1,
        "hand": "left"
      },
      {
        "midi": 49,
        "time": 121.161,
        "duration": 0.179,
        "velocity": 1,
        "hand": "left"
      },
      {
        "midi": 77,
        "time": 121.161,
        "duration": 1.339,
        "velocity": 1,
        "hand": "right"
      },
      {
        "midi": 56,
        "time": 121.339,
        "duration": 0.179,
        "velocity": 1,
        "hand": "left"
      },
      {
        "midi": 61,
        "time": 121.607,
        "duration": 0.179,
        "velocity": 1,
        "hand": "right"
      },
      {
        "midi": 65,
        "time": 121.786,
        "duration": 0.179,
        "velocity": 1,
        "hand": "right"
      },
      {
        "midi": 61,
        "time": 122.054,
        "duration": 0.179,
        "velocity": 1,
        "hand": "right"
      },
      {
        "midi": 56,
        "time": 122.232,
        "duration": 0.179,
        "velocity": 1,
        "hand": "left"
      },
      {
        "midi": 49,
        "time": 122.5,
        "duration": 0.179,
        "velocity": 1,
        "hand": "left"
      },
      {
        "midi": 80,
        "time": 122.5,
        "duration": 1.339,
        "velocity": 1,
        "hand": "right"
      },
      {
        "midi": 56,
        "time": 122.679,
        "duration": 0.179,
        "velocity": 1,
        "hand": "left"
      },
      {
        "midi": 65,
        "time": 122.946,
        "duration": 0.179,
        "velocity": 1,
        "hand": "right"
      },
      {
        "midi": 68,
        "time": 123.125,
        "duration": 0.625,
        "velocity": 1,
        "hand": "right"
      },
      {
        "midi": 65,
        "time": 123.393,
        "duration": 0.179,
        "velocity": 1,
        "hand": "right"
      },
      {
        "midi": 56,
        "time": 123.571,
        "duration": 0.179,
        "velocity": 1,
        "hand": "left"
      },
      {
        "midi": 66,
        "time": 123.839,
        "duration": 0.625,
        "velocity": 1,
        "hand": "right"
      },
      {
        "midi": 78,
        "time": 123.839,
        "duration": 0.625,
        "velocity": 1,
        "hand": "right"
      },
      {
        "midi": 63,
        "time": 124.018,
        "duration": 0.179,
        "velocity": 1,
        "hand": "right"
      },
      {
        "midi": 56,
        "time": 124.286,
        "duration": 0.179,
        "velocity": 1,
        "hand": "left"
      },
      {
        "midi": 65,
        "time": 124.464,
        "duration": 0.625,
        "velocity": 1,
        "hand": "right"
      },
      {
        "midi": 77,
        "time": 124.464,
        "duration": 0.625,
        "velocity": 1,
        "hand": "right"
      },
      {
        "midi": 61,
        "time": 124.732,
        "duration": 0.179,
        "velocity": 1,
        "hand": "right"
      },
      {
        "midi": 56,
        "time": 124.911,
        "duration": 0.179,
        "velocity": 1,
        "hand": "left"
      },
      {
        "midi": 63,
        "time": 125.179,
        "duration": 0.625,
        "velocity": 1,
        "hand": "right"
      },
      {
        "midi": 75,
        "time": 125.179,
        "duration": 0.536,
        "velocity": 1,
        "hand": "right"
      },
      {
        "midi": 60,
        "time": 125.357,
        "duration": 0.179,
        "velocity": 1,
        "hand": "right"
      },
      {
        "midi": 56,
        "time": 125.625,
        "duration": 0.179,
        "velocity": 1,
        "hand": "left"
      },
      {
        "midi": 77,
        "time": 125.625,
        "duration": 0.045,
        "velocity": 1,
        "hand": "right"
      },
      {
        "midi": 73,
        "time": 125.714,
        "duration": 0.045,
        "velocity": 1,
        "hand": "right"
      },
      {
        "midi": 75,
        "time": 125.714,
        "duration": 0.045,
        "velocity": 1,
        "hand": "right"
      },
      {
        "midi": 61,
        "time": 125.804,
        "duration": 0.625,
        "velocity": 1,
        "hand": "right"
      },
      {
        "midi": 75,
        "time": 125.804,
        "duration": 0.045,
        "velocity": 1,
        "hand": "right"
      },
      {
        "midi": 77,
        "time": 125.804,
        "duration": 0.536,
        "velocity": 1,
        "hand": "right"
      },
      {
        "midi": 56,
        "time": 126.071,
        "duration": 0.179,
        "velocity": 1,
        "hand": "left"
      },
      {
        "midi": 53,
        "time": 126.25,
        "duration": 0.179,
        "velocity": 1,
        "hand": "left"
      },
      {
        "midi": 73,
        "time": 126.339,
        "duration": 0.179,
        "velocity": 1,
        "hand": "right"
      },
      {
        "midi": 44,
        "time": 126.518,
        "duration": 0.179,
        "velocity": 1,
        "hand": "left"
      },
      {
        "midi": 68,
        "time": 126.518,
        "duration": 1.339,
        "velocity": 1,
        "hand": "right"
      },
      {
        "midi": 51,
        "time": 126.696,
        "duration": 0.179,
        "velocity": 1,
        "hand": "left"
      },
      {
        "midi": 56,
        "time": 126.964,
        "duration": 0.179,
        "velocity": 1,
        "hand": "left"
      },
      {
        "midi": 60,
        "time": 127.143,
        "duration": 0.179,
        "velocity": 1,
        "hand": "right"
      },
      {
        "midi": 56,
        "time": 127.321,
        "duration": 0.179,
        "velocity": 1,
        "hand": "left"
      },
      {
        "midi": 51,
        "time": 127.589,
        "duration": 0.179,
        "velocity": 1,
        "hand": "left"
      },
      {
        "midi": 42,
        "time": 127.768,
        "duration": 0.179,
        "velocity": 1,
        "hand": "left"
      },
      {
        "midi": 70,
        "time": 127.768,
        "duration": 2.679,
        "velocity": 1,
        "hand": "right"
      },
      {
        "midi": 54,
        "time": 128.036,
        "duration": 0.179,
        "velocity": 1,
        "hand": "left"
      },
      {
        "midi": 58,
        "time": 128.214,
        "duration": 0.179,
        "velocity": 1,
        "hand": "left"
      },
      {
        "midi": 61,
        "time": 128.482,
        "duration": 0.179,
        "velocity": 1,
        "hand": "right"
      },
      {
        "midi": 58,
        "time": 128.661,
        "duration": 0.179,
        "velocity": 1,
        "hand": "left"
      },
      {
        "midi": 54,
        "time": 128.929,
        "duration": 0.179,
        "velocity": 1,
        "hand": "left"
      },
      {
        "midi": 46,
        "time": 129.107,
        "duration": 0.179,
        "velocity": 1,
        "hand": "left"
      },
      {
        "midi": 53,
        "time": 129.375,
        "duration": 0.179,
        "velocity": 1,
        "hand": "left"
      },
      {
        "midi": 58,
        "time": 129.554,
        "duration": 0.179,
        "velocity": 1,
        "hand": "left"
      },
      {
        "midi": 62,
        "time": 129.821,
        "duration": 0.179,
        "velocity": 1,
        "hand": "right"
      },
      {
        "midi": 58,
        "time": 130,
        "duration": 0.179,
        "velocity": 1,
        "hand": "left"
      },
      {
        "midi": 53,
        "time": 130.268,
        "duration": 0.179,
        "velocity": 1,
        "hand": "left"
      },
      {
        "midi": 46,
        "time": 130.446,
        "duration": 0.179,
        "velocity": 1,
        "hand": "left"
      },
      {
        "midi": 71,
        "time": 130.446,
        "duration": 0.357,
        "velocity": 1,
        "hand": "right"
      },
      {
        "midi": 58,
        "time": 130.714,
        "duration": 0.179,
        "velocity": 1,
        "hand": "left"
      },
      {
        "midi": 70,
        "time": 130.804,
        "duration": 0.357,
        "velocity": 1,
        "hand": "right"
      },
      {
        "midi": 62,
        "time": 130.893,
        "duration": 0.179,
        "velocity": 1,
        "hand": "right"
      },
      {
        "midi": 68,
        "time": 131.161,
        "duration": 0.179,
        "velocity": 1,
        "hand": "right"
      },
      {
        "midi": 75,
        "time": 131.161,
        "duration": 0.357,
        "velocity": 1,
        "hand": "right"
      },
      {
        "midi": 62,
        "time": 131.339,
        "duration": 0.179,
        "velocity": 1,
        "hand": "right"
      },
      {
        "midi": 77,
        "time": 131.518,
        "duration": 0.357,
        "velocity": 1,
        "hand": "right"
      },
      {
        "midi": 58,
        "time": 131.607,
        "duration": 0.179,
        "velocity": 1,
        "hand": "left"
      },
      {
        "midi": 51,
        "time": 131.786,
        "duration": 0.179,
        "velocity": 1,
        "hand": "left"
      },
      {
        "midi": 78,
        "time": 131.786,
        "duration": 0.625,
        "velocity": 1,
        "hand": "right"
      },
      {
        "midi": 66,
        "time": 132.054,
        "duration": 0.179,
        "velocity": 1,
        "hand": "right"
      },
      {
        "midi": 58,
        "time": 132.232,
        "duration": 0.179,
        "velocity": 1,
        "hand": "left"
      },
      {
        "midi": 53,
        "time": 132.5,
        "duration": 0.179,
        "velocity": 1,
        "hand": "left"
      },
      {
        "midi": 77,
        "time": 132.5,
        "duration": 0.625,
        "velocity": 1,
        "hand": "right"
      },
      {
        "midi": 65,
        "time": 132.679,
        "duration": 0.179,
        "velocity": 1,
        "hand": "right"
      },
      {
        "midi": 57,
        "time": 132.946,
        "duration": 0.179,
        "velocity": 1,
        "hand": "left"
      },
      {
        "midi": 54,
        "time": 133.125,
        "duration": 0.179,
        "velocity": 1,
        "hand": "left"
      },
      {
        "midi": 75,
        "time": 133.125,
        "duration": 0.625,
        "velocity": 1,
        "hand": "right"
      },
      {
        "midi": 63,
        "time": 133.393,
        "duration": 0.179,
        "velocity": 1,
        "hand": "right"
      },
      {
        "midi": 58,
        "time": 133.571,
        "duration": 0.179,
        "velocity": 1,
        "hand": "left"
      },
      {
        "midi": 56,
        "time": 133.839,
        "duration": 0.179,
        "velocity": 1,
        "hand": "left"
      },
      {
        "midi": 77,
        "time": 133.839,
        "duration": 0.625,
        "velocity": 1,
        "hand": "right"
      },
      {
        "midi": 66,
        "time": 134.018,
        "duration": 0.179,
        "velocity": 1,
        "hand": "right"
      },
      {
        "midi": 60,
        "time": 134.286,
        "duration": 0.179,
        "velocity": 1,
        "hand": "right"
      },
      {
        "midi": 49,
        "time": 134.464,
        "duration": 0.179,
        "velocity": 1,
        "hand": "left"
      },
      {
        "midi": 73,
        "time": 134.464,
        "duration": 0.982,
        "velocity": 1,
        "hand": "right"
      },
      {
        "midi": 56,
        "time": 134.732,
        "duration": 0.179,
        "velocity": 1,
        "hand": "left"
      },
      {
        "midi": 61,
        "time": 134.911,
        "duration": 0.179,
        "velocity": 1,
        "hand": "right"
      },
      {
        "midi": 65,
        "time": 135.179,
        "duration": 0.179,
        "velocity": 1,
        "hand": "right"
      },
      {
        "midi": 61,
        "time": 135.357,
        "duration": 0.179,
        "velocity": 1,
        "hand": "right"
      },
      {
        "midi": 67,
        "time": 135.446,
        "duration": 0.089,
        "velocity": 1,
        "hand": "right"
      },
      {
        "midi": 68,
        "time": 135.536,
        "duration": 0.089,
        "velocity": 1,
        "hand": "right"
      },
      {
        "midi": 56,
        "time": 135.625,
        "duration": 0.179,
        "velocity": 1,
        "hand": "left"
      },
      {
        "midi": 70,
        "time": 135.625,
        "duration": 0.089,
        "velocity": 1,
        "hand": "right"
      },
      {
        "midi": 68,
        "time": 135.714,
        "duration": 0.089,
        "velocity": 1,
        "hand": "right"
      },
      {
        "midi": 49,
        "time": 135.804,
        "duration": 0.179,
        "velocity": 1,
        "hand": "left"
      },
      {
        "midi": 77,
        "time": 135.804,
        "duration": 0.982,
        "velocity": 1,
        "hand": "right"
      },
      {
        "midi": 56,
        "time": 136.071,
        "duration": 0.179,
        "velocity": 1,
        "hand": "left"
      },
      {
        "midi": 60,
        "time": 136.25,
        "duration": 0.179,
        "velocity": 1,
        "hand": "right"
      },
      {
        "midi": 66,
        "time": 136.518,
        "duration": 0.179,
        "velocity": 1,
        "hand": "right"
      },
      {
        "midi": 60,
        "time": 136.696,
        "duration": 0.179,
        "velocity": 1,
        "hand": "right"
      },
      {
        "midi": 75,
        "time": 136.786,
        "duration": 0.357,
        "velocity": 1,
        "hand": "right"
      },
      {
        "midi": 56,
        "time": 136.964,
        "duration": 0.179,
        "velocity": 1,
        "hand": "left"
      },
      {
        "midi": 49,
        "time": 137.143,
        "duration": 0.179,
        "velocity": 1,
        "hand": "left"
      },
      {
        "midi": 75,
        "time": 137.143,
        "duration": 1.339,
        "velocity": 1,
        "hand": "right"
      },
      {
        "midi": 56,
        "time": 137.321,
        "duration": 0.179,
        "velocity": 1,
        "hand": "left"
      },
      {
        "midi": 60,
        "time": 137.589,
        "duration": 0.179,
        "velocity": 1,
        "hand": "right"
      },
      {
        "midi": 66,
        "time": 137.768,
        "duration": 0.179,
        "velocity": 1,
        "hand": "right"
      },
      {
        "midi": 60,
        "time": 138.036,
        "duration": 0.179,
        "velocity": 1,
        "hand": "right"
      },
      {
        "midi": 56,
        "time": 138.214,
        "duration": 0.179,
        "velocity": 1,
        "hand": "left"
      },
      {
        "midi": 49,
        "time": 138.482,
        "duration": 0.179,
        "velocity": 1,
        "hand": "left"
      },
      {
        "midi": 73,
        "time": 138.482,
        "duration": 0.625,
        "velocity": 1,
        "hand": "right"
      },
      {
        "midi": 56,
        "time": 138.661,
        "duration": 0.179,
        "velocity": 1,
        "hand": "left"
      },
      {
        "midi": 61,
        "time": 138.929,
        "duration": 0.179,
        "velocity": 1,
        "hand": "right"
      },
      {
        "midi": 65,
        "time": 139.107,
        "duration": 0.179,
        "velocity": 1,
        "hand": "right"
      },
      {
        "midi": 61,
        "time": 139.375,
        "duration": 0.179,
        "velocity": 1,
        "hand": "right"
      },
      {
        "midi": 80,
        "time": 139.464,
        "duration": 0.357,
        "velocity": 1,
        "hand": "right"
      },
      {
        "midi": 56,
        "time": 139.554,
        "duration": 0.179,
        "velocity": 1,
        "hand": "left"
      },
      {
        "midi": 44,
        "time": 139.821,
        "duration": 0.179,
        "velocity": 1,
        "hand": "left"
      },
      {
        "midi": 68,
        "time": 139.821,
        "duration": 1.339,
        "velocity": 1,
        "hand": "right"
      },
      {
        "midi": 51,
        "time": 140,
        "duration": 0.179,
        "velocity": 1,
        "hand": "left"
      },
      {
        "midi": 56,
        "time": 140.268,
        "duration": 0.179,
        "velocity": 1,
        "hand": "left"
      },
      {
        "midi": 60,
        "time": 140.446,
        "duration": 0.179,
        "velocity": 1,
        "hand": "right"
      },
      {
        "midi": 56,
        "time": 140.714,
        "duration": 0.179,
        "velocity": 1,
        "hand": "left"
      },
      {
        "midi": 51,
        "time": 140.893,
        "duration": 0.179,
        "velocity": 1,
        "hand": "left"
      },
      {
        "midi": 44,
        "time": 141.161,
        "duration": 0.179,
        "velocity": 1,
        "hand": "left"
      },
      {
        "midi": 70,
        "time": 141.161,
        "duration": 0.536,
        "velocity": 1,
        "hand": "right"
      },
      {
        "midi": 51,
        "time": 141.339,
        "duration": 0.179,
        "velocity": 1,
        "hand": "left"
      },
      {
        "midi": 55,
        "time": 141.607,
        "duration": 0.179,
        "velocity": 1,
        "hand": "left"
      },
      {
        "midi": 69,
        "time": 141.607,
        "duration": 0.179,
        "velocity": 1,
        "hand": "right"
      },
      {
        "midi": 61,
        "time": 141.786,
        "duration": 0.179,
        "velocity": 1,
        "hand": "right"
      },
      {
        "midi": 70,
        "time": 141.786,
        "duration": 0.536,
        "velocity": 1,
        "hand": "right"
      },
      {
        "midi": 55,
        "time": 142.054,
        "duration": 0.179,
        "velocity": 1,
        "hand": "left"
      },
      {
        "midi": 51,
        "time": 142.232,
        "duration": 0.179,
        "velocity": 1,
        "hand": "left"
      },
      {
        "midi": 72,
        "time": 142.321,
        "duration": 0.179,
        "velocity": 1,
        "hand": "right"
      },
      {
        "midi": 44,
        "time": 142.5,
        "duration": 0.179,
        "velocity": 1,
        "hand": "left"
      },
      {
        "midi": 68,
        "time": 142.5,
        "duration": 0.357,
        "velocity": 1,
        "hand": "right"
      },
      {
        "midi": 51,
        "time": 142.679,
        "duration": 0.179,
        "velocity": 1,
        "hand": "left"
      },
      {
        "midi": 56,
        "time": 142.946,
        "duration": 0.179,
        "velocity": 1,
        "hand": "left"
      },
      {
        "midi": 60,
        "time": 143.125,
        "duration": 0.179,
        "velocity": 1,
        "hand": "right"
      },
      {
        "midi": 84,
        "time": 143.125,
        "duration": 0.893,
        "velocity": 1,
        "hand": "right"
      },
      {
        "midi": 56,
        "time": 143.393,
        "duration": 0.179,
        "velocity": 1,
        "hand": "left"
      },
      {
        "midi": 51,
        "time": 143.571,
        "duration": 0.179,
        "velocity": 1,
        "hand": "left"
      },
      {
        "midi": 49,
        "time": 143.839,
        "duration": 0.179,
        "velocity": 1,
        "hand": "left"
      },
      {
        "midi": 56,
        "time": 144.018,
        "duration": 0.179,
        "velocity": 1,
        "hand": "left"
      },
      {
        "midi": 82,
        "time": 144.018,
        "duration": 0.179,
        "velocity": 1,
        "hand": "right"
      },
      {
        "midi": 80,
        "time": 144.196,
        "duration": 0.179,
        "velocity": 1,
        "hand": "right"
      },
      {
        "midi": 61,
        "time": 144.286,
        "duration": 0.179,
        "velocity": 1,
        "hand": "right"
      },
      {
        "midi": 76,
        "time": 144.375,
        "duration": 0.179,
        "velocity": 1,
        "hand": "right"
      },
      {
        "midi": 64,
        "time": 144.464,
        "duration": 0.179,
        "velocity": 1,
        "hand": "right"
      },
      {
        "midi": 73,
        "time": 144.554,
        "duration": 0.179,
        "velocity": 1,
        "hand": "right"
      },
      {
        "midi": 61,
        "time": 144.732,
        "duration": 0.179,
        "velocity": 1,
        "hand": "right"
      },
      {
        "midi": 70,
        "time": 144.732,
        "duration": 0.268,
        "velocity": 1,
        "hand": "right"
      },
      {
        "midi": 56,
        "time": 144.911,
        "duration": 0.179,
        "velocity": 1,
        "hand": "left"
      },
      {
        "midi": 80,
        "time": 145.089,
        "duration": 0.089,
        "velocity": 1,
        "hand": "right"
      },
      {
        "midi": 39,
        "time": 145.179,
        "duration": 0.179,
        "velocity": 1,
        "hand": "left"
      },
      {
        "midi": 63,
        "time": 145.179,
        "duration": 1.25,
        "velocity": 1,
        "hand": "right"
      },
      {
        "midi": 51,
        "time": 145.357,
        "duration": 0.179,
        "velocity": 1,
        "hand": "left"
      },
      {
        "midi": 56,
        "time": 145.625,
        "duration": 0.179,
        "velocity": 1,
        "hand": "left"
      },
      {
        "midi": 60,
        "time": 145.804,
        "duration": 0.179,
        "velocity": 1,
        "hand": "right"
      },
      {
        "midi": 56,
        "time": 146.071,
        "duration": 0.179,
        "velocity": 1,
        "hand": "left"
      },
      {
        "midi": 51,
        "time": 146.25,
        "duration": 0.179,
        "velocity": 1,
        "hand": "left"
      },
      {
        "midi": 72,
        "time": 146.429,
        "duration": 0.089,
        "velocity": 1,
        "hand": "right"
      },
      {
        "midi": 39,
        "time": 146.518,
        "duration": 0.179,
        "velocity": 1,
        "hand": "left"
      },
      {
        "midi": 70,
        "time": 146.518,
        "duration": 0.536,
        "velocity": 1,
        "hand": "right"
      },
      {
        "midi": 51,
        "time": 146.696,
        "duration": 0.179,
        "velocity": 1,
        "hand": "left"
      },
      {
        "midi": 55,
        "time": 146.964,
        "duration": 0.179,
        "velocity": 1,
        "hand": "left"
      },
      {
        "midi": 69,
        "time": 146.964,
        "duration": 0.179,
        "velocity": 1,
        "hand": "right"
      },
      {
        "midi": 61,
        "time": 147.143,
        "duration": 0.179,
        "velocity": 1,
        "hand": "right"
      },
      {
        "midi": 70,
        "time": 147.143,
        "duration": 0.536,
        "velocity": 1,
        "hand": "right"
      },
      {
        "midi": 55,
        "time": 147.321,
        "duration": 0.179,
        "velocity": 1,
        "hand": "left"
      },
      {
        "midi": 51,
        "time": 147.589,
        "duration": 0.179,
        "velocity": 1,
        "hand": "left"
      },
      {
        "midi": 75,
        "time": 147.679,
        "duration": 0.179,
        "velocity": 1,
        "hand": "right"
      },
      {
        "midi": 44,
        "time": 147.768,
        "duration": 0.179,
        "velocity": 1,
        "hand": "left"
      },
      {
        "midi": 68,
        "time": 147.768,
        "duration": 0.625,
        "velocity": 1,
        "hand": "right"
      },
      {
        "midi": 51,
        "time": 148.036,
        "duration": 0.179,
        "velocity": 1,
        "hand": "left"
      },
      {
        "midi": 56,
        "time": 148.214,
        "duration": 0.179,
        "velocity": 1,
        "hand": "left"
      },
      {
        "midi": 60,
        "time": 148.482,
        "duration": 0.179,
        "velocity": 1,
        "hand": "right"
      },
      {
        "midi": 56,
        "time": 148.661,
        "duration": 0.179,
        "velocity": 1,
        "hand": "left"
      },
      {
        "midi": 51,
        "time": 148.929,
        "duration": 0.179,
        "velocity": 1,
        "hand": "left"
      },
      {
        "midi": 42,
        "time": 149.107,
        "duration": 0.179,
        "velocity": 1,
        "hand": "left"
      },
      {
        "midi": 70,
        "time": 149.107,
        "duration": 0.625,
        "velocity": 1,
        "hand": "right"
      },
      {
        "midi": 54,
        "time": 149.375,
        "duration": 0.179,
        "velocity": 1,
        "hand": "left"
      },
      {
        "midi": 58,
        "time": 149.554,
        "duration": 0.179,
        "velocity": 1,
        "hand": "left"
      },
      {
        "midi": 61,
        "time": 149.821,
        "duration": 0.179,
        "velocity": 1,
        "hand": "right"
      },
      {
        "midi": 73,
        "time": 149.821,
        "duration": 0.179,
        "velocity": 1,
        "hand": "right"
      },
      {
        "midi": 58,
        "time": 150,
        "duration": 0.179,
        "velocity": 1,
        "hand": "left"
      },
      {
        "midi": 72,
        "time": 150,
        "duration": 0.179,
        "velocity": 1,
        "hand": "right"
      },
      {
        "midi": 54,
        "time": 150.268,
        "duration": 0.179,
        "velocity": 1,
        "hand": "left"
      },
      {
        "midi": 70,
        "time": 150.268,
        "duration": 0.179,
        "velocity": 1,
        "hand": "right"
      },
      {
        "midi": 44,
        "time": 150.446,
        "duration": 0.179,
        "velocity": 1,
        "hand": "left"
      },
      {
        "midi": 68,
        "time": 150.446,
        "duration": 1.339,
        "velocity": 1,
        "hand": "right"
      },
      {
        "midi": 51,
        "time": 150.714,
        "duration": 0.179,
        "velocity": 1,
        "hand": "left"
      },
      {
        "midi": 56,
        "time": 150.893,
        "duration": 0.179,
        "velocity": 1,
        "hand": "left"
      },
      {
        "midi": 60,
        "time": 151.161,
        "duration": 0.179,
        "velocity": 1,
        "hand": "right"
      },
      {
        "midi": 56,
        "time": 151.339,
        "duration": 0.179,
        "velocity": 1,
        "hand": "left"
      },
      {
        "midi": 51,
        "time": 151.607,
        "duration": 0.179,
        "velocity": 1,
        "hand": "left"
      },
      {
        "midi": 44,
        "time": 151.786,
        "duration": 0.179,
        "velocity": 1,
        "hand": "left"
      },
      {
        "midi": 70,
        "time": 151.786,
        "duration": 0.357,
        "velocity": 1,
        "hand": "right"
      },
      {
        "midi": 56,
        "time": 152.054,
        "duration": 0.179,
        "velocity": 1,
        "hand": "left"
      },
      {
        "midi": 68,
        "time": 152.143,
        "duration": 0.357,
        "velocity": 1,
        "hand": "right"
      },
      {
        "midi": 60,
        "time": 152.232,
        "duration": 0.179,
        "velocity": 1,
        "hand": "right"
      },
      {
        "midi": 66,
        "time": 152.5,
        "duration": 0.179,
        "velocity": 1,
        "hand": "right"
      },
      {
        "midi": 73,
        "time": 152.5,
        "duration": 0.357,
        "velocity": 1,
        "hand": "right"
      },
      {
        "midi": 60,
        "time": 152.679,
        "duration": 0.179,
        "velocity": 1,
        "hand": "right"
      },
      {
        "midi": 75,
        "time": 152.768,
        "duration": 0.357,
        "velocity": 1,
        "hand": "right"
      },
      {
        "midi": 56,
        "time": 152.946,
        "duration": 0.179,
        "velocity": 1,
        "hand": "left"
      },
      {
        "midi": 49,
        "time": 153.125,
        "duration": 0.179,
        "velocity": 1,
        "hand": "left"
      },
      {
        "midi": 77,
        "time": 153.125,
        "duration": 1.339,
        "velocity": 1,
        "hand": "right"
      },
      {
        "midi": 56,
        "time": 153.393,
        "duration": 0.179,
        "velocity": 1,
        "hand": "left"
      },
      {
        "midi": 61,
        "time": 153.571,
        "duration": 0.179,
        "velocity": 1,
        "hand": "right"
      },
      {
        "midi": 65,
        "time": 153.839,
        "duration": 0.179,
        "velocity": 1,
        "hand": "right"
      },
      {
        "midi": 61,
        "time": 154.018,
        "duration": 0.179,
        "velocity": 1,
        "hand": "right"
      },
      {
        "midi": 56,
        "time": 154.286,
        "duration": 0.179,
        "velocity": 1,
        "hand": "left"
      },
      {
        "midi": 49,
        "time": 154.464,
        "duration": 0.179,
        "velocity": 1,
        "hand": "left"
      },
      {
        "midi": 80,
        "time": 154.464,
        "duration": 1.339,
        "velocity": 1,
        "hand": "right"
      },
      {
        "midi": 56,
        "time": 154.732,
        "duration": 0.179,
        "velocity": 1,
        "hand": "left"
      },
      {
        "midi": 65,
        "time": 154.911,
        "duration": 0.179,
        "velocity": 1,
        "hand": "right"
      },
      {
        "midi": 68,
        "time": 155.179,
        "duration": 0.625,
        "velocity": 1,
        "hand": "right"
      },
      {
        "midi": 65,
        "time": 155.357,
        "duration": 0.179,
        "velocity": 1,
        "hand": "right"
      },
      {
        "midi": 56,
        "time": 155.625,
        "duration": 0.179,
        "velocity": 1,
        "hand": "left"
      },
      {
        "midi": 66,
        "time": 155.804,
        "duration": 0.625,
        "velocity": 1,
        "hand": "right"
      },
      {
        "midi": 78,
        "time": 155.804,
        "duration": 0.625,
        "velocity": 1,
        "hand": "right"
      },
      {
        "midi": 63,
        "time": 156.071,
        "duration": 0.179,
        "velocity": 1,
        "hand": "right"
      },
      {
        "midi": 56,
        "time": 156.25,
        "duration": 0.179,
        "velocity": 1,
        "hand": "left"
      },
      {
        "midi": 65,
        "time": 156.518,
        "duration": 0.625,
        "velocity": 1,
        "hand": "right"
      },
      {
        "midi": 77,
        "time": 156.518,
        "duration": 0.625,
        "velocity": 1,
        "hand": "right"
      },
      {
        "midi": 61,
        "time": 156.696,
        "duration": 0.179,
        "velocity": 1,
        "hand": "right"
      },
      {
        "midi": 56,
        "time": 156.964,
        "duration": 0.179,
        "velocity": 1,
        "hand": "left"
      },
      {
        "midi": 63,
        "time": 157.143,
        "duration": 0.625,
        "velocity": 1,
        "hand": "right"
      },
      {
        "midi": 75,
        "time": 157.143,
        "duration": 0.536,
        "velocity": 1,
        "hand": "right"
      },
      {
        "midi": 60,
        "time": 157.321,
        "duration": 0.179,
        "velocity": 1,
        "hand": "right"
      },
      {
        "midi": 56,
        "time": 157.589,
        "duration": 0.179,
        "velocity": 1,
        "hand": "left"
      },
      {
        "midi": 75,
        "time": 157.679,
        "duration": 0.045,
        "velocity": 1,
        "hand": "right"
      },
      {
        "midi": 77,
        "time": 157.679,
        "duration": 0.045,
        "velocity": 1,
        "hand": "right"
      },
      {
        "midi": 61,
        "time": 157.768,
        "duration": 0.625,
        "velocity": 1,
        "hand": "right"
      },
      {
        "midi": 73,
        "time": 157.768,
        "duration": 0.045,
        "velocity": 1,
        "hand": "right"
      },
      {
        "midi": 75,
        "time": 157.768,
        "duration": 0.045,
        "velocity": 1,
        "hand": "right"
      },
      {
        "midi": 77,
        "time": 157.768,
        "duration": 0.536,
        "velocity": 1,
        "hand": "right"
      },
      {
        "midi": 56,
        "time": 158.036,
        "duration": 0.179,
        "velocity": 1,
        "hand": "left"
      },
      {
        "midi": 53,
        "time": 158.214,
        "duration": 0.179,
        "velocity": 1,
        "hand": "left"
      },
      {
        "midi": 73,
        "time": 158.304,
        "duration": 0.179,
        "velocity": 1,
        "hand": "right"
      },
      {
        "midi": 44,
        "time": 158.482,
        "duration": 0.179,
        "velocity": 1,
        "hand": "left"
      },
      {
        "midi": 68,
        "time": 158.482,
        "duration": 1.339,
        "velocity": 1,
        "hand": "right"
      },
      {
        "midi": 51,
        "time": 158.661,
        "duration": 0.179,
        "velocity": 1,
        "hand": "left"
      },
      {
        "midi": 56,
        "time": 158.929,
        "duration": 0.179,
        "velocity": 1,
        "hand": "left"
      },
      {
        "midi": 60,
        "time": 159.107,
        "duration": 0.179,
        "velocity": 1,
        "hand": "right"
      },
      {
        "midi": 56,
        "time": 159.375,
        "duration": 0.179,
        "velocity": 1,
        "hand": "left"
      },
      {
        "midi": 51,
        "time": 159.554,
        "duration": 0.179,
        "velocity": 1,
        "hand": "left"
      },
      {
        "midi": 42,
        "time": 159.821,
        "duration": 0.179,
        "velocity": 1,
        "hand": "left"
      },
      {
        "midi": 70,
        "time": 159.821,
        "duration": 2.679,
        "velocity": 1,
        "hand": "right"
      },
      {
        "midi": 54,
        "time": 160,
        "duration": 0.179,
        "velocity": 1,
        "hand": "left"
      },
      {
        "midi": 58,
        "time": 160.268,
        "duration": 0.179,
        "velocity": 1,
        "hand": "left"
      },
      {
        "midi": 61,
        "time": 160.446,
        "duration": 0.179,
        "velocity": 1,
        "hand": "right"
      },
      {
        "midi": 58,
        "time": 160.714,
        "duration": 0.179,
        "velocity": 1,
        "hand": "left"
      },
      {
        "midi": 54,
        "time": 160.893,
        "duration": 0.179,
        "velocity": 1,
        "hand": "left"
      },
      {
        "midi": 46,
        "time": 161.161,
        "duration": 0.179,
        "velocity": 1,
        "hand": "left"
      },
      {
        "midi": 53,
        "time": 161.339,
        "duration": 0.179,
        "velocity": 1,
        "hand": "left"
      },
      {
        "midi": 58,
        "time": 161.607,
        "duration": 0.179,
        "velocity": 1,
        "hand": "left"
      },
      {
        "midi": 62,
        "time": 161.786,
        "duration": 0.179,
        "velocity": 1,
        "hand": "right"
      },
      {
        "midi": 58,
        "time": 162.054,
        "duration": 0.179,
        "velocity": 1,
        "hand": "left"
      },
      {
        "midi": 53,
        "time": 162.232,
        "duration": 0.179,
        "velocity": 1,
        "hand": "left"
      },
      {
        "midi": 46,
        "time": 162.5,
        "duration": 0.179,
        "velocity": 1,
        "hand": "left"
      },
      {
        "midi": 71,
        "time": 162.5,
        "duration": 0.357,
        "velocity": 1,
        "hand": "right"
      },
      {
        "midi": 58,
        "time": 162.679,
        "duration": 0.179,
        "velocity": 1,
        "hand": "left"
      },
      {
        "midi": 70,
        "time": 162.768,
        "duration": 0.357,
        "velocity": 1,
        "hand": "right"
      },
      {
        "midi": 62,
        "time": 162.946,
        "duration": 0.179,
        "velocity": 1,
        "hand": "right"
      },
      {
        "midi": 68,
        "time": 163.125,
        "duration": 0.179,
        "velocity": 1,
        "hand": "right"
      },
      {
        "midi": 75,
        "time": 163.125,
        "duration": 0.357,
        "velocity": 1,
        "hand": "right"
      },
      {
        "midi": 62,
        "time": 163.393,
        "duration": 0.179,
        "velocity": 1,
        "hand": "right"
      },
      {
        "midi": 77,
        "time": 163.482,
        "duration": 0.357,
        "velocity": 1,
        "hand": "right"
      },
      {
        "midi": 58,
        "time": 163.571,
        "duration": 0.179,
        "velocity": 1,
        "hand": "left"
      },
      {
        "midi": 51,
        "time": 163.839,
        "duration": 0.179,
        "velocity": 1,
        "hand": "left"
      },
      {
        "midi": 78,
        "time": 163.839,
        "duration": 0.625,
        "velocity": 1,
        "hand": "right"
      },
      {
        "midi": 66,
        "time": 164.018,
        "duration": 0.179,
        "velocity": 1,
        "hand": "right"
      },
      {
        "midi": 58,
        "time": 164.286,
        "duration": 0.179,
        "velocity": 1,
        "hand": "left"
      },
      {
        "midi": 53,
        "time": 164.464,
        "duration": 0.179,
        "velocity": 1,
        "hand": "left"
      },
      {
        "midi": 77,
        "time": 164.464,
        "duration": 0.625,
        "velocity": 1,
        "hand": "right"
      },
      {
        "midi": 65,
        "time": 164.732,
        "duration": 0.179,
        "velocity": 1,
        "hand": "right"
      },
      {
        "midi": 57,
        "time": 164.911,
        "duration": 0.179,
        "velocity": 1,
        "hand": "left"
      },
      {
        "midi": 54,
        "time": 165.179,
        "duration": 0.179,
        "velocity": 1,
        "hand": "left"
      },
      {
        "midi": 75,
        "time": 165.179,
        "duration": 0.625,
        "velocity": 1,
        "hand": "right"
      },
      {
        "midi": 63,
        "time": 165.357,
        "duration": 0.179,
        "velocity": 1,
        "hand": "right"
      },
      {
        "midi": 58,
        "time": 165.625,
        "duration": 0.179,
        "velocity": 1,
        "hand": "left"
      },
      {
        "midi": 56,
        "time": 165.804,
        "duration": 0.179,
        "velocity": 1,
        "hand": "left"
      },
      {
        "midi": 77,
        "time": 165.804,
        "duration": 0.625,
        "velocity": 1,
        "hand": "right"
      },
      {
        "midi": 66,
        "time": 166.071,
        "duration": 0.179,
        "velocity": 1,
        "hand": "right"
      },
      {
        "midi": 60,
        "time": 166.25,
        "duration": 0.179,
        "velocity": 1,
        "hand": "right"
      },
      {
        "midi": 49,
        "time": 166.518,
        "duration": 0.179,
        "velocity": 1,
        "hand": "left"
      },
      {
        "midi": 73,
        "time": 166.518,
        "duration": 0.982,
        "velocity": 1,
        "hand": "right"
      },
      {
        "midi": 56,
        "time": 166.696,
        "duration": 0.179,
        "velocity": 1,
        "hand": "left"
      },
      {
        "midi": 61,
        "time": 166.964,
        "duration": 0.179,
        "velocity": 1,
        "hand": "right"
      },
      {
        "midi": 65,
        "time": 167.143,
        "duration": 0.179,
        "velocity": 1,
        "hand": "right"
      },
      {
        "midi": 61,
        "time": 167.321,
        "duration": 0.179,
        "velocity": 1,
        "hand": "right"
      },
      {
        "midi": 67,
        "time": 167.5,
        "duration": 0.089,
        "velocity": 1,
        "hand": "right"
      },
      {
        "midi": 56,
        "time": 167.589,
        "duration": 0.179,
        "velocity": 1,
        "hand": "left"
      },
      {
        "midi": 68,
        "time": 167.589,
        "duration": 0.089,
        "velocity": 1,
        "hand": "right"
      },
      {
        "midi": 70,
        "time": 167.679,
        "duration": 0.089,
        "velocity": 1,
        "hand": "right"
      },
      {
        "midi": 49,
        "time": 167.768,
        "duration": 0.179,
        "velocity": 1,
        "hand": "left"
      },
      {
        "midi": 68,
        "time": 167.768,
        "duration": 0.089,
        "velocity": 1,
        "hand": "right"
      },
      {
        "midi": 77,
        "time": 167.768,
        "duration": 0.982,
        "velocity": 1,
        "hand": "right"
      },
      {
        "midi": 56,
        "time": 168.036,
        "duration": 0.179,
        "velocity": 1,
        "hand": "left"
      },
      {
        "midi": 60,
        "time": 168.214,
        "duration": 0.179,
        "velocity": 1,
        "hand": "right"
      },
      {
        "midi": 66,
        "time": 168.482,
        "duration": 0.179,
        "velocity": 1,
        "hand": "right"
      },
      {
        "midi": 60,
        "time": 168.661,
        "duration": 0.179,
        "velocity": 1,
        "hand": "right"
      },
      {
        "midi": 75,
        "time": 168.839,
        "duration": 0.357,
        "velocity": 1,
        "hand": "right"
      },
      {
        "midi": 56,
        "time": 168.929,
        "duration": 0.179,
        "velocity": 1,
        "hand": "left"
      },
      {
        "midi": 49,
        "time": 169.107,
        "duration": 0.179,
        "velocity": 1,
        "hand": "left"
      },
      {
        "midi": 75,
        "time": 169.107,
        "duration": 2.679,
        "velocity": 1,
        "hand": "right"
      },
      {
        "midi": 56,
        "time": 169.375,
        "duration": 0.179,
        "velocity": 1,
        "hand": "left"
      },
      {
        "midi": 60,
        "time": 169.554,
        "duration": 0.179,
        "velocity": 1,
        "hand": "right"
      },
      {
        "midi": 66,
        "time": 169.821,
        "duration": 0.179,
        "velocity": 1,
        "hand": "right"
      },
      {
        "midi": 60,
        "time": 170,
        "duration": 0.179,
        "velocity": 1,
        "hand": "right"
      },
      {
        "midi": 56,
        "time": 170.268,
        "duration": 0.179,
        "velocity": 1,
        "hand": "left"
      },
      {
        "midi": 49,
        "time": 170.446,
        "duration": 0.179,
        "velocity": 1,
        "hand": "left"
      },
      {
        "midi": 56,
        "time": 170.714,
        "duration": 0.179,
        "velocity": 1,
        "hand": "left"
      },
      {
        "midi": 60,
        "time": 170.893,
        "duration": 0.179,
        "velocity": 1,
        "hand": "right"
      },
      {
        "midi": 66,
        "time": 171.161,
        "duration": 0.179,
        "velocity": 1,
        "hand": "right"
      },
      {
        "midi": 60,
        "time": 171.339,
        "duration": 0.179,
        "velocity": 1,
        "hand": "right"
      },
      {
        "midi": 56,
        "time": 171.607,
        "duration": 0.179,
        "velocity": 1,
        "hand": "left"
      },
      {
        "midi": 49,
        "time": 171.786,
        "duration": 0.089,
        "velocity": 1,
        "hand": "left"
      },
      {
        "midi": 68,
        "time": 171.875,
        "duration": 0.089,
        "velocity": 1,
        "hand": "right"
      },
      {
        "midi": 56,
        "time": 171.964,
        "duration": 0.089,
        "velocity": 1,
        "hand": "left"
      },
      {
        "midi": 69,
        "time": 171.964,
        "duration": 0.089,
        "velocity": 1,
        "hand": "right"
      },
      {
        "midi": 61,
        "time": 172.054,
        "duration": 0.089,
        "velocity": 1,
        "hand": "right"
      },
      {
        "midi": 68,
        "time": 172.054,
        "duration": 0.089,
        "velocity": 1,
        "hand": "right"
      },
      {
        "midi": 64,
        "time": 172.143,
        "duration": 0.089,
        "velocity": 1,
        "hand": "right"
      },
      {
        "midi": 67,
        "time": 172.143,
        "duration": 0.089,
        "velocity": 1,
        "hand": "right"
      },
      {
        "midi": 68,
        "time": 172.232,
        "duration": 0.089,
        "velocity": 1,
        "hand": "right"
      },
      {
        "midi": 61,
        "time": 172.321,
        "duration": 0.089,
        "velocity": 1,
        "hand": "right"
      },
      {
        "midi": 73,
        "time": 172.321,
        "duration": 0.089,
        "velocity": 1,
        "hand": "right"
      },
      {
        "midi": 56,
        "time": 172.411,
        "duration": 0.089,
        "velocity": 1,
        "hand": "left"
      },
      {
        "midi": 76,
        "time": 172.411,
        "duration": 0.089,
        "velocity": 1,
        "hand": "right"
      },
      {
        "midi": 52,
        "time": 172.5,
        "duration": 0.089,
        "velocity": 1,
        "hand": "left"
      },
      {
        "midi": 75,
        "time": 172.5,
        "duration": 0.089,
        "velocity": 1,
        "hand": "right"
      },
      {
        "midi": 73,
        "time": 172.589,
        "duration": 0.089,
        "velocity": 1,
        "hand": "right"
      },
      {
        "midi": 56,
        "time": 172.679,
        "duration": 0.089,
        "velocity": 1,
        "hand": "left"
      },
      {
        "midi": 75,
        "time": 172.679,
        "duration": 0.089,
        "velocity": 1,
        "hand": "right"
      },
      {
        "midi": 61,
        "time": 172.768,
        "duration": 0.089,
        "velocity": 1,
        "hand": "right"
      },
      {
        "midi": 73,
        "time": 172.768,
        "duration": 0.089,
        "velocity": 1,
        "hand": "right"
      },
      {
        "midi": 64,
        "time": 172.857,
        "duration": 0.089,
        "velocity": 1,
        "hand": "right"
      },
      {
        "midi": 72,
        "time": 172.857,
        "duration": 0.089,
        "velocity": 1,
        "hand": "right"
      },
      {
        "midi": 73,
        "time": 172.946,
        "duration": 0.089,
        "velocity": 1,
        "hand": "right"
      },
      {
        "midi": 61,
        "time": 173.036,
        "duration": 0.089,
        "velocity": 1,
        "hand": "right"
      },
      {
        "midi": 76,
        "time": 173.036,
        "duration": 0.089,
        "velocity": 1,
        "hand": "right"
      },
      {
        "midi": 56,
        "time": 173.125,
        "duration": 0.089,
        "velocity": 1,
        "hand": "left"
      },
      {
        "midi": 80,
        "time": 173.125,
        "duration": 0.089,
        "velocity": 1,
        "hand": "right"
      },
      {
        "midi": 49,
        "time": 173.214,
        "duration": 0.089,
        "velocity": 1,
        "hand": "left"
      },
      {
        "midi": 68,
        "time": 173.304,
        "duration": 0.089,
        "velocity": 1,
        "hand": "right"
      },
      {
        "midi": 56,
        "time": 173.393,
        "duration": 0.089,
        "velocity": 1,
        "hand": "left"
      },
      {
        "midi": 69,
        "time": 173.393,
        "duration": 0.089,
        "velocity": 1,
        "hand": "right"
      },
      {
        "midi": 61,
        "time": 173.482,
        "duration": 0.089,
        "velocity": 1,
        "hand": "right"
      },
      {
        "midi": 68,
        "time": 173.482,
        "duration": 0.089,
        "velocity": 1,
        "hand": "right"
      },
      {
        "midi": 64,
        "time": 173.571,
        "duration": 0.089,
        "velocity": 1,
        "hand": "right"
      },
      {
        "midi": 67,
        "time": 173.571,
        "duration": 0.089,
        "velocity": 1,
        "hand": "right"
      },
      {
        "midi": 68,
        "time": 173.661,
        "duration": 0.089,
        "velocity": 1,
        "hand": "right"
      },
      {
        "midi": 61,
        "time": 173.75,
        "duration": 0.089,
        "velocity": 1,
        "hand": "right"
      },
      {
        "midi": 73,
        "time": 173.75,
        "duration": 0.089,
        "velocity": 1,
        "hand": "right"
      },
      {
        "midi": 56,
        "time": 173.839,
        "duration": 0.089,
        "velocity": 1,
        "hand": "left"
      },
      {
        "midi": 76,
        "time": 173.839,
        "duration": 0.089,
        "velocity": 1,
        "hand": "right"
      },
      {
        "midi": 52,
        "time": 173.929,
        "duration": 0.089,
        "velocity": 1,
        "hand": "left"
      },
      {
        "midi": 75,
        "time": 173.929,
        "duration": 0.089,
        "velocity": 1,
        "hand": "right"
      },
      {
        "midi": 73,
        "time": 174.018,
        "duration": 0.089,
        "velocity": 1,
        "hand": "right"
      },
      {
        "midi": 56,
        "time": 174.107,
        "duration": 0.089,
        "velocity": 1,
        "hand": "left"
      },
      {
        "midi": 75,
        "time": 174.107,
        "duration": 0.089,
        "velocity": 1,
        "hand": "right"
      },
      {
        "midi": 61,
        "time": 174.196,
        "duration": 0.089,
        "velocity": 1,
        "hand": "right"
      },
      {
        "midi": 73,
        "time": 174.196,
        "duration": 0.089,
        "velocity": 1,
        "hand": "right"
      },
      {
        "midi": 64,
        "time": 174.286,
        "duration": 0.089,
        "velocity": 1,
        "hand": "right"
      },
      {
        "midi": 72,
        "time": 174.286,
        "duration": 0.089,
        "velocity": 1,
        "hand": "right"
      },
      {
        "midi": 73,
        "time": 174.375,
        "duration": 0.089,
        "velocity": 1,
        "hand": "right"
      },
      {
        "midi": 61,
        "time": 174.464,
        "duration": 0.089,
        "velocity": 1,
        "hand": "right"
      },
      {
        "midi": 76,
        "time": 174.464,
        "duration": 0.089,
        "velocity": 1,
        "hand": "right"
      },
      {
        "midi": 56,
        "time": 174.554,
        "duration": 0.089,
        "velocity": 1,
        "hand": "left"
      },
      {
        "midi": 80,
        "time": 174.554,
        "duration": 0.089,
        "velocity": 1,
        "hand": "right"
      },
      {
        "midi": 51,
        "time": 174.643,
        "duration": 0.089,
        "velocity": 1,
        "hand": "left"
      },
      {
        "midi": 69,
        "time": 174.732,
        "duration": 0.089,
        "velocity": 1,
        "hand": "right"
      },
      {
        "midi": 57,
        "time": 174.821,
        "duration": 0.089,
        "velocity": 1,
        "hand": "left"
      },
      {
        "midi": 73,
        "time": 174.821,
        "duration": 0.089,
        "velocity": 1,
        "hand": "right"
      },
      {
        "midi": 61,
        "time": 174.911,
        "duration": 0.089,
        "velocity": 1,
        "hand": "right"
      },
      {
        "midi": 75,
        "time": 174.911,
        "duration": 0.089,
        "velocity": 1,
        "hand": "right"
      },
      {
        "midi": 66,
        "time": 175,
        "duration": 0.089,
        "velocity": 1,
        "hand": "right"
      },
      {
        "midi": 78,
        "time": 175,
        "duration": 0.089,
        "velocity": 1,
        "hand": "right"
      },
      {
        "midi": 81,
        "time": 175.089,
        "duration": 0.089,
        "velocity": 1,
        "hand": "right"
      },
      {
        "midi": 61,
        "time": 175.179,
        "duration": 0.089,
        "velocity": 1,
        "hand": "right"
      },
      {
        "midi": 85,
        "time": 175.179,
        "duration": 0.089,
        "velocity": 1,
        "hand": "right"
      },
      {
        "midi": 57,
        "time": 175.268,
        "duration": 0.089,
        "velocity": 1,
        "hand": "left"
      },
      {
        "midi": 87,
        "time": 175.268,
        "duration": 0.089,
        "velocity": 1,
        "hand": "right"
      },
      {
        "midi": 54,
        "time": 175.357,
        "duration": 0.089,
        "velocity": 1,
        "hand": "left"
      },
      {
        "midi": 95,
        "time": 175.357,
        "duration": 0.089,
        "velocity": 1,
        "hand": "right"
      },
      {
        "midi": 93,
        "time": 175.446,
        "duration": 0.089,
        "velocity": 1,
        "hand": "right"
      },
      {
        "midi": 61,
        "time": 175.536,
        "duration": 0.089,
        "velocity": 1,
        "hand": "right"
      },
      {
        "midi": 92,
        "time": 175.536,
        "duration": 0.089,
        "velocity": 1,
        "hand": "right"
      },
      {
        "midi": 63,
        "time": 175.625,
        "duration": 0.089,
        "velocity": 1,
        "hand": "right"
      },
      {
        "midi": 90,
        "time": 175.625,
        "duration": 0.089,
        "velocity": 1,
        "hand": "right"
      },
      {
        "midi": 69,
        "time": 175.714,
        "duration": 0.089,
        "velocity": 1,
        "hand": "right"
      },
      {
        "midi": 88,
        "time": 175.714,
        "duration": 0.089,
        "velocity": 1,
        "hand": "right"
      },
      {
        "midi": 87,
        "time": 175.804,
        "duration": 0.089,
        "velocity": 1,
        "hand": "right"
      },
      {
        "midi": 63,
        "time": 175.893,
        "duration": 0.089,
        "velocity": 1,
        "hand": "right"
      },
      {
        "midi": 90,
        "time": 175.893,
        "duration": 0.089,
        "velocity": 1,
        "hand": "right"
      },
      {
        "midi": 61,
        "time": 175.982,
        "duration": 0.089,
        "velocity": 1,
        "hand": "right"
      },
      {
        "midi": 85,
        "time": 175.982,
        "duration": 0.089,
        "velocity": 1,
        "hand": "right"
      },
      {
        "midi": 44,
        "time": 176.071,
        "duration": 0.089,
        "velocity": 1,
        "hand": "left"
      },
      {
        "midi": 84,
        "time": 176.071,
        "duration": 0.089,
        "velocity": 1,
        "hand": "right"
      },
      {
        "midi": 87,
        "time": 176.161,
        "duration": 0.089,
        "velocity": 1,
        "hand": "right"
      },
      {
        "midi": 51,
        "time": 176.25,
        "duration": 0.089,
        "velocity": 1,
        "hand": "left"
      },
      {
        "midi": 81,
        "time": 176.25,
        "duration": 0.089,
        "velocity": 1,
        "hand": "right"
      },
      {
        "midi": 54,
        "time": 176.339,
        "duration": 0.089,
        "velocity": 1,
        "hand": "left"
      },
      {
        "midi": 80,
        "time": 176.339,
        "duration": 0.089,
        "velocity": 1,
        "hand": "right"
      },
      {
        "midi": 60,
        "time": 176.429,
        "duration": 0.089,
        "velocity": 1,
        "hand": "right"
      },
      {
        "midi": 78,
        "time": 176.429,
        "duration": 0.089,
        "velocity": 1,
        "hand": "right"
      },
      {
        "midi": 81,
        "time": 176.518,
        "duration": 0.089,
        "velocity": 1,
        "hand": "right"
      },
      {
        "midi": 54,
        "time": 176.607,
        "duration": 0.089,
        "velocity": 1,
        "hand": "left"
      },
      {
        "midi": 76,
        "time": 176.607,
        "duration": 0.089,
        "velocity": 1,
        "hand": "right"
      },
      {
        "midi": 51,
        "time": 176.696,
        "duration": 0.089,
        "velocity": 1,
        "hand": "left"
      },
      {
        "midi": 75,
        "time": 176.696,
        "duration": 0.089,
        "velocity": 1,
        "hand": "right"
      },
      {
        "midi": 44,
        "time": 176.786,
        "duration": 0.089,
        "velocity": 1,
        "hand": "left"
      },
      {
        "midi": 78,
        "time": 176.786,
        "duration": 0.089,
        "velocity": 1,
        "hand": "right"
      },
      {
        "midi": 73,
        "time": 176.875,
        "duration": 0.089,
        "velocity": 1,
        "hand": "right"
      },
      {
        "midi": 51,
        "time": 176.964,
        "duration": 0.089,
        "velocity": 1,
        "hand": "left"
      },
      {
        "midi": 72,
        "time": 176.964,
        "duration": 0.089,
        "velocity": 1,
        "hand": "right"
      },
      {
        "midi": 54,
        "time": 177.054,
        "duration": 0.089,
        "velocity": 1,
        "hand": "left"
      },
      {
        "midi": 75,
        "time": 177.054,
        "duration": 0.089,
        "velocity": 1,
        "hand": "right"
      },
      {
        "midi": 60,
        "time": 177.143,
        "duration": 0.089,
        "velocity": 1,
        "hand": "right"
      },
      {
        "midi": 69,
        "time": 177.143,
        "duration": 0.089,
        "velocity": 1,
        "hand": "right"
      },
      {
        "midi": 68,
        "time": 177.232,
        "duration": 0.089,
        "velocity": 1,
        "hand": "right"
      },
      {
        "midi": 54,
        "time": 177.321,
        "duration": 0.089,
        "velocity": 1,
        "hand": "left"
      },
      {
        "midi": 71,
        "time": 177.321,
        "duration": 0.089,
        "velocity": 1,
        "hand": "right"
      },
      {
        "midi": 51,
        "time": 177.411,
        "duration": 0.089,
        "velocity": 1,
        "hand": "left"
      },
      {
        "midi": 69,
        "time": 177.411,
        "duration": 0.179,
        "velocity": 1,
        "hand": "right"
      },
      {
        "midi": 49,
        "time": 177.5,
        "duration": 0.089,
        "velocity": 1,
        "hand": "left"
      },
      {
        "midi": 68,
        "time": 177.589,
        "duration": 0.089,
        "velocity": 1,
        "hand": "right"
      },
      {
        "midi": 56,
        "time": 177.679,
        "duration": 0.089,
        "velocity": 1,
        "hand": "left"
      },
      {
        "midi": 69,
        "time": 177.679,
        "duration": 0.089,
        "velocity": 1,
        "hand": "right"
      },
      {
        "midi": 61,
        "time": 177.768,
        "duration": 0.089,
        "velocity": 1,
        "hand": "right"
      },
      {
        "midi": 68,
        "time": 177.768,
        "duration": 0.089,
        "velocity": 1,
        "hand": "right"
      },
      {
        "midi": 64,
        "time": 177.857,
        "duration": 0.089,
        "velocity": 1,
        "hand": "right"
      },
      {
        "midi": 67,
        "time": 177.857,
        "duration": 0.089,
        "velocity": 1,
        "hand": "right"
      },
      {
        "midi": 68,
        "time": 177.946,
        "duration": 0.089,
        "velocity": 1,
        "hand": "right"
      },
      {
        "midi": 61,
        "time": 178.036,
        "duration": 0.089,
        "velocity": 1,
        "hand": "right"
      },
      {
        "midi": 73,
        "time": 178.036,
        "duration": 0.089,
        "velocity": 1,
        "hand": "right"
      },
      {
        "midi": 56,
        "time": 178.125,
        "duration": 0.089,
        "velocity": 1,
        "hand": "left"
      },
      {
        "midi": 76,
        "time": 178.125,
        "duration": 0.089,
        "velocity": 1,
        "hand": "right"
      },
      {
        "midi": 52,
        "time": 178.214,
        "duration": 0.089,
        "velocity": 1,
        "hand": "left"
      },
      {
        "midi": 75,
        "time": 178.214,
        "duration": 0.089,
        "velocity": 1,
        "hand": "right"
      },
      {
        "midi": 73,
        "time": 178.304,
        "duration": 0.089,
        "velocity": 1,
        "hand": "right"
      },
      {
        "midi": 56,
        "time": 178.393,
        "duration": 0.089,
        "velocity": 1,
        "hand": "left"
      },
      {
        "midi": 75,
        "time": 178.393,
        "duration": 0.089,
        "velocity": 1,
        "hand": "right"
      },
      {
        "midi": 61,
        "time": 178.482,
        "duration": 0.089,
        "velocity": 1,
        "hand": "right"
      },
      {
        "midi": 73,
        "time": 178.482,
        "duration": 0.089,
        "velocity": 1,
        "hand": "right"
      },
      {
        "midi": 64,
        "time": 178.571,
        "duration": 0.089,
        "velocity": 1,
        "hand": "right"
      },
      {
        "midi": 72,
        "time": 178.571,
        "duration": 0.089,
        "velocity": 1,
        "hand": "right"
      },
      {
        "midi": 73,
        "time": 178.661,
        "duration": 0.089,
        "velocity": 1,
        "hand": "right"
      },
      {
        "midi": 61,
        "time": 178.75,
        "duration": 0.089,
        "velocity": 1,
        "hand": "right"
      },
      {
        "midi": 76,
        "time": 178.75,
        "duration": 0.089,
        "velocity": 1,
        "hand": "right"
      },
      {
        "midi": 56,
        "time": 178.839,
        "duration": 0.089,
        "velocity": 1,
        "hand": "left"
      },
      {
        "midi": 80,
        "time": 178.839,
        "duration": 0.089,
        "velocity": 1,
        "hand": "right"
      },
      {
        "midi": 49,
        "time": 178.929,
        "duration": 0.089,
        "velocity": 1,
        "hand": "left"
      },
      {
        "midi": 68,
        "time": 179.018,
        "duration": 0.089,
        "velocity": 1,
        "hand": "right"
      },
      {
        "midi": 56,
        "time": 179.107,
        "duration": 0.089,
        "velocity": 1,
        "hand": "left"
      },
      {
        "midi": 70,
        "time": 179.107,
        "duration": 0.089,
        "velocity": 1,
        "hand": "right"
      },
      {
        "midi": 58,
        "time": 179.196,
        "duration": 0.089,
        "velocity": 1,
        "hand": "left"
      },
      {
        "midi": 68,
        "time": 179.196,
        "duration": 0.089,
        "velocity": 1,
        "hand": "right"
      },
      {
        "midi": 64,
        "time": 179.286,
        "duration": 0.089,
        "velocity": 1,
        "hand": "right"
      },
      {
        "midi": 67,
        "time": 179.286,
        "duration": 0.089,
        "velocity": 1,
        "hand": "right"
      },
      {
        "midi": 68,
        "time": 179.375,
        "duration": 0.089,
        "velocity": 1,
        "hand": "right"
      },
      {
        "midi": 58,
        "time": 179.464,
        "duration": 0.089,
        "velocity": 1,
        "hand": "left"
      },
      {
        "midi": 73,
        "time": 179.464,
        "duration": 0.089,
        "velocity": 1,
        "hand": "right"
      },
      {
        "midi": 56,
        "time": 179.554,
        "duration": 0.089,
        "velocity": 1,
        "hand": "left"
      },
      {
        "midi": 76,
        "time": 179.554,
        "duration": 0.089,
        "velocity": 1,
        "hand": "right"
      },
      {
        "midi": 52,
        "time": 179.643,
        "duration": 0.089,
        "velocity": 1,
        "hand": "left"
      },
      {
        "midi": 75,
        "time": 179.643,
        "duration": 0.089,
        "velocity": 1,
        "hand": "right"
      },
      {
        "midi": 73,
        "time": 179.732,
        "duration": 0.089,
        "velocity": 1,
        "hand": "right"
      },
      {
        "midi": 56,
        "time": 179.821,
        "duration": 0.089,
        "velocity": 1,
        "hand": "left"
      },
      {
        "midi": 75,
        "time": 179.821,
        "duration": 0.089,
        "velocity": 1,
        "hand": "right"
      },
      {
        "midi": 58,
        "time": 179.911,
        "duration": 0.089,
        "velocity": 1,
        "hand": "left"
      },
      {
        "midi": 73,
        "time": 179.911,
        "duration": 0.089,
        "velocity": 1,
        "hand": "right"
      },
      {
        "midi": 61,
        "time": 180,
        "duration": 0.089,
        "velocity": 1,
        "hand": "right"
      },
      {
        "midi": 72,
        "time": 180,
        "duration": 0.089,
        "velocity": 1,
        "hand": "right"
      },
      {
        "midi": 73,
        "time": 180.089,
        "duration": 0.089,
        "velocity": 1,
        "hand": "right"
      },
      {
        "midi": 58,
        "time": 180.179,
        "duration": 0.089,
        "velocity": 1,
        "hand": "left"
      },
      {
        "midi": 76,
        "time": 180.179,
        "duration": 0.089,
        "velocity": 1,
        "hand": "right"
      },
      {
        "midi": 56,
        "time": 180.268,
        "duration": 0.089,
        "velocity": 1,
        "hand": "left"
      },
      {
        "midi": 80,
        "time": 180.268,
        "duration": 0.089,
        "velocity": 1,
        "hand": "right"
      },
      {
        "midi": 51,
        "time": 180.357,
        "duration": 0.089,
        "velocity": 1,
        "hand": "left"
      },
      {
        "midi": 75,
        "time": 180.357,
        "duration": 0.089,
        "velocity": 1,
        "hand": "right"
      },
      {
        "midi": 76,
        "time": 180.446,
        "duration": 0.089,
        "velocity": 1,
        "hand": "right"
      },
      {
        "midi": 56,
        "time": 180.536,
        "duration": 0.089,
        "velocity": 1,
        "hand": "left"
      },
      {
        "midi": 75,
        "time": 180.536,
        "duration": 0.089,
        "velocity": 1,
        "hand": "right"
      },
      {
        "midi": 59,
        "time": 180.625,
        "duration": 0.089,
        "velocity": 1,
        "hand": "left"
      },
      {
        "midi": 74,
        "time": 180.625,
        "duration": 0.089,
        "velocity": 1,
        "hand": "right"
      },
      {
        "midi": 63,
        "time": 180.714,
        "duration": 0.089,
        "velocity": 1,
        "hand": "right"
      },
      {
        "midi": 75,
        "time": 180.714,
        "duration": 0.089,
        "velocity": 1,
        "hand": "right"
      },
      {
        "midi": 83,
        "time": 180.804,
        "duration": 0.089,
        "velocity": 1,
        "hand": "right"
      },
      {
        "midi": 59,
        "time": 180.893,
        "duration": 0.089,
        "velocity": 1,
        "hand": "left"
      },
      {
        "midi": 82,
        "time": 180.893,
        "duration": 0.089,
        "velocity": 1,
        "hand": "right"
      },
      {
        "midi": 56,
        "time": 180.982,
        "duration": 0.089,
        "velocity": 1,
        "hand": "left"
      },
      {
        "midi": 80,
        "time": 180.982,
        "duration": 0.089,
        "velocity": 1,
        "hand": "right"
      },
      {
        "midi": 51,
        "time": 181.071,
        "duration": 0.089,
        "velocity": 1,
        "hand": "left"
      },
      {
        "midi": 79,
        "time": 181.071,
        "duration": 0.089,
        "velocity": 1,
        "hand": "right"
      },
      {
        "midi": 88,
        "time": 181.161,
        "duration": 0.089,
        "velocity": 1,
        "hand": "right"
      },
      {
        "midi": 58,
        "time": 181.25,
        "duration": 0.089,
        "velocity": 1,
        "hand": "left"
      },
      {
        "midi": 87,
        "time": 181.25,
        "duration": 0.089,
        "velocity": 1,
        "hand": "right"
      },
      {
        "midi": 61,
        "time": 181.339,
        "duration": 0.089,
        "velocity": 1,
        "hand": "right"
      },
      {
        "midi": 85,
        "time": 181.339,
        "duration": 0.089,
        "velocity": 1,
        "hand": "right"
      },
      {
        "midi": 67,
        "time": 181.429,
        "duration": 0.089,
        "velocity": 1,
        "hand": "right"
      },
      {
        "midi": 83,
        "time": 181.429,
        "duration": 0.089,
        "velocity": 1,
        "hand": "right"
      },
      {
        "midi": 82,
        "time": 181.518,
        "duration": 0.089,
        "velocity": 1,
        "hand": "right"
      },
      {
        "midi": 61,
        "time": 181.607,
        "duration": 0.089,
        "velocity": 1,
        "hand": "right"
      },
      {
        "midi": 80,
        "time": 181.607,
        "duration": 0.089,
        "velocity": 1,
        "hand": "right"
      },
      {
        "midi": 58,
        "time": 181.696,
        "duration": 0.089,
        "velocity": 1,
        "hand": "left"
      },
      {
        "midi": 79,
        "time": 181.696,
        "duration": 0.089,
        "velocity": 1,
        "hand": "right"
      },
      {
        "midi": 44,
        "time": 181.786,
        "duration": 0.089,
        "velocity": 1,
        "hand": "left"
      },
      {
        "midi": 82,
        "time": 181.786,
        "duration": 0.089,
        "velocity": 1,
        "hand": "right"
      },
      {
        "midi": 80,
        "time": 181.875,
        "duration": 0.089,
        "velocity": 1,
        "hand": "right"
      },
      {
        "midi": 51,
        "time": 181.964,
        "duration": 0.089,
        "velocity": 1,
        "hand": "left"
      },
      {
        "midi": 83,
        "time": 181.964,
        "duration": 0.089,
        "velocity": 1,
        "hand": "right"
      },
      {
        "midi": 56,
        "time": 182.054,
        "duration": 0.089,
        "velocity": 1,
        "hand": "left"
      },
      {
        "midi": 74,
        "time": 182.054,
        "duration": 0.089,
        "velocity": 1,
        "hand": "right"
      },
      {
        "midi": 59,
        "time": 182.143,
        "duration": 0.089,
        "velocity": 1,
        "hand": "left"
      },
      {
        "midi": 76,
        "time": 182.143,
        "duration": 0.089,
        "velocity": 1,
        "hand": "right"
      },
      {
        "midi": 75,
        "time": 182.232,
        "duration": 0.089,
        "velocity": 1,
        "hand": "right"
      },
      {
        "midi": 56,
        "time": 182.321,
        "duration": 0.089,
        "velocity": 1,
        "hand": "left"
      },
      {
        "midi": 80,
        "time": 182.321,
        "duration": 0.089,
        "velocity": 1,
        "hand": "right"
      },
      {
        "midi": 51,
        "time": 182.411,
        "duration": 0.089,
        "velocity": 1,
        "hand": "left"
      },
      {
        "midi": 70,
        "time": 182.411,
        "duration": 0.089,
        "velocity": 1,
        "hand": "right"
      },
      {
        "midi": 44,
        "time": 182.5,
        "duration": 0.089,
        "velocity": 1,
        "hand": "left"
      },
      {
        "midi": 73,
        "time": 182.5,
        "duration": 0.089,
        "velocity": 1,
        "hand": "right"
      },
      {
        "midi": 71,
        "time": 182.589,
        "duration": 0.089,
        "velocity": 1,
        "hand": "right"
      },
      {
        "midi": 51,
        "time": 182.679,
        "duration": 0.089,
        "velocity": 1,
        "hand": "left"
      },
      {
        "midi": 75,
        "time": 182.679,
        "duration": 0.089,
        "velocity": 1,
        "hand": "right"
      },
      {
        "midi": 56,
        "time": 182.768,
        "duration": 0.089,
        "velocity": 1,
        "hand": "left"
      },
      {
        "midi": 67,
        "time": 182.768,
        "duration": 0.089,
        "velocity": 1,
        "hand": "right"
      },
      {
        "midi": 59,
        "time": 182.857,
        "duration": 0.089,
        "velocity": 1,
        "hand": "left"
      },
      {
        "midi": 70,
        "time": 182.857,
        "duration": 0.089,
        "velocity": 1,
        "hand": "right"
      },
      {
        "midi": 68,
        "time": 182.946,
        "duration": 0.089,
        "velocity": 1,
        "hand": "right"
      },
      {
        "midi": 56,
        "time": 183.036,
        "duration": 0.089,
        "velocity": 1,
        "hand": "left"
      },
      {
        "midi": 67,
        "time": 183.036,
        "duration": 0.089,
        "velocity": 1,
        "hand": "right"
      },
      {
        "midi": 51,
        "time": 183.125,
        "duration": 0.089,
        "velocity": 1,
        "hand": "left"
      },
      {
        "midi": 68,
        "time": 183.125,
        "duration": 0.089,
        "velocity": 1,
        "hand": "right"
      },
      {
        "midi": 45,
        "time": 183.214,
        "duration": 0.089,
        "velocity": 1,
        "hand": "left"
      },
      {
        "midi": 68,
        "time": 183.214,
        "duration": 0.089,
        "velocity": 1,
        "hand": "right"
      },
      {
        "midi": 80,
        "time": 183.304,
        "duration": 0.089,
        "velocity": 1,
        "hand": "right"
      },
      {
        "midi": 49,
        "time": 183.393,
        "duration": 0.089,
        "velocity": 1,
        "hand": "left"
      },
      {
        "midi": 72,
        "time": 183.393,
        "duration": 0.089,
        "velocity": 1,
        "hand": "right"
      },
      {
        "midi": 54,
        "time": 183.482,
        "duration": 0.089,
        "velocity": 1,
        "hand": "left"
      },
      {
        "midi": 73,
        "time": 183.482,
        "duration": 0.089,
        "velocity": 1,
        "hand": "right"
      },
      {
        "midi": 57,
        "time": 183.571,
        "duration": 0.089,
        "velocity": 1,
        "hand": "left"
      },
      {
        "midi": 66,
        "time": 183.571,
        "duration": 0.089,
        "velocity": 1,
        "hand": "right"
      },
      {
        "midi": 78,
        "time": 183.661,
        "duration": 0.089,
        "velocity": 1,
        "hand": "right"
      },
      {
        "midi": 54,
        "time": 183.75,
        "duration": 0.089,
        "velocity": 1,
        "hand": "left"
      },
      {
        "midi": 72,
        "time": 183.75,
        "duration": 0.089,
        "velocity": 1,
        "hand": "right"
      },
      {
        "midi": 49,
        "time": 183.839,
        "duration": 0.089,
        "velocity": 1,
        "hand": "left"
      },
      {
        "midi": 73,
        "time": 183.839,
        "duration": 0.089,
        "velocity": 1,
        "hand": "right"
      },
      {
        "midi": 45,
        "time": 183.929,
        "duration": 0.089,
        "velocity": 1,
        "hand": "left"
      },
      {
        "midi": 65,
        "time": 183.929,
        "duration": 0.089,
        "velocity": 1,
        "hand": "right"
      },
      {
        "midi": 77,
        "time": 184.018,
        "duration": 0.089,
        "velocity": 1,
        "hand": "right"
      },
      {
        "midi": 49,
        "time": 184.107,
        "duration": 0.089,
        "velocity": 1,
        "hand": "left"
      },
      {
        "midi": 72,
        "time": 184.107,
        "duration": 0.089,
        "velocity": 1,
        "hand": "right"
      },
      {
        "midi": 54,
        "time": 184.196,
        "duration": 0.089,
        "velocity": 1,
        "hand": "left"
      },
      {
        "midi": 73,
        "time": 184.196,
        "duration": 0.089,
        "velocity": 1,
        "hand": "right"
      },
      {
        "midi": 57,
        "time": 184.286,
        "duration": 0.089,
        "velocity": 1,
        "hand": "left"
      },
      {
        "midi": 66,
        "time": 184.286,
        "duration": 0.089,
        "velocity": 1,
        "hand": "right"
      },
      {
        "midi": 78,
        "time": 184.375,
        "duration": 0.089,
        "velocity": 1,
        "hand": "right"
      },
      {
        "midi": 54,
        "time": 184.464,
        "duration": 0.089,
        "velocity": 1,
        "hand": "left"
      },
      {
        "midi": 72,
        "time": 184.464,
        "duration": 0.089,
        "velocity": 1,
        "hand": "right"
      },
      {
        "midi": 49,
        "time": 184.554,
        "duration": 0.089,
        "velocity": 1,
        "hand": "left"
      },
      {
        "midi": 73,
        "time": 184.554,
        "duration": 0.089,
        "velocity": 1,
        "hand": "right"
      },
      {
        "midi": 47,
        "time": 184.643,
        "duration": 0.089,
        "velocity": 1,
        "hand": "left"
      },
      {
        "midi": 61,
        "time": 184.643,
        "duration": 0.089,
        "velocity": 1,
        "hand": "right"
      },
      {
        "midi": 73,
        "time": 184.732,
        "duration": 0.089,
        "velocity": 1,
        "hand": "right"
      },
      {
        "midi": 54,
        "time": 184.821,
        "duration": 0.089,
        "velocity": 1,
        "hand": "left"
      },
      {
        "midi": 66,
        "time": 184.821,
        "duration": 0.089,
        "velocity": 1,
        "hand": "right"
      },
      {
        "midi": 57,
        "time": 184.911,
        "duration": 0.089,
        "velocity": 1,
        "hand": "left"
      },
      {
        "midi": 69,
        "time": 184.911,
        "duration": 0.089,
        "velocity": 1,
        "hand": "right"
      },
      {
        "midi": 59,
        "time": 185,
        "duration": 0.089,
        "velocity": 1,
        "hand": "left"
      },
      {
        "midi": 63,
        "time": 185,
        "duration": 0.089,
        "velocity": 1,
        "hand": "right"
      },
      {
        "midi": 75,
        "time": 185.089,
        "duration": 0.089,
        "velocity": 1,
        "hand": "right"
      },
      {
        "midi": 57,
        "time": 185.179,
        "duration": 0.089,
        "velocity": 1,
        "hand": "left"
      },
      {
        "midi": 66,
        "time": 185.179,
        "duration": 0.089,
        "velocity": 1,
        "hand": "right"
      },
      {
        "midi": 54,
        "time": 185.268,
        "duration": 0.089,
        "velocity": 1,
        "hand": "left"
      },
      {
        "midi": 69,
        "time": 185.268,
        "duration": 0.089,
        "velocity": 1,
        "hand": "right"
      },
      {
        "midi": 40,
        "time": 185.357,
        "duration": 0.089,
        "velocity": 1,
        "hand": "left"
      },
      {
        "midi": 64,
        "time": 185.357,
        "duration": 0.089,
        "velocity": 1,
        "hand": "right"
      },
      {
        "midi": 76,
        "time": 185.446,
        "duration": 0.089,
        "velocity": 1,
        "hand": "right"
      },
      {
        "midi": 47,
        "time": 185.536,
        "duration": 0.089,
        "velocity": 1,
        "hand": "left"
      },
      {
        "midi": 68,
        "time": 185.536,
        "duration": 0.089,
        "velocity": 1,
        "hand": "right"
      },
      {
        "midi": 52,
        "time": 185.625,
        "duration": 0.089,
        "velocity": 1,
        "hand": "left"
      },
      {
        "midi": 71,
        "time": 185.625,
        "duration": 0.089,
        "velocity": 1,
        "hand": "right"
      },
      {
        "midi": 56,
        "time": 185.714,
        "duration": 0.089,
        "velocity": 1,
        "hand": "left"
      },
      {
        "midi": 68,
        "time": 185.714,
        "duration": 0.089,
        "velocity": 1,
        "hand": "right"
      },
      {
        "midi": 80,
        "time": 185.804,
        "duration": 0.089,
        "velocity": 1,
        "hand": "right"
      },
      {
        "midi": 52,
        "time": 185.893,
        "duration": 0.089,
        "velocity": 1,
        "hand": "left"
      },
      {
        "midi": 71,
        "time": 185.893,
        "duration": 0.089,
        "velocity": 1,
        "hand": "right"
      },
      {
        "midi": 47,
        "time": 185.982,
        "duration": 0.089,
        "velocity": 1,
        "hand": "left"
      },
      {
        "midi": 76,
        "time": 185.982,
        "duration": 0.089,
        "velocity": 1,
        "hand": "right"
      },
      {
        "midi": 45,
        "time": 186.071,
        "duration": 0.089,
        "velocity": 1,
        "hand": "left"
      },
      {
        "midi": 68,
        "time": 186.071,
        "duration": 0.089,
        "velocity": 1,
        "hand": "right"
      },
      {
        "midi": 80,
        "time": 186.161,
        "duration": 0.089,
        "velocity": 1,
        "hand": "right"
      },
      {
        "midi": 49,
        "time": 186.25,
        "duration": 0.089,
        "velocity": 1,
        "hand": "left"
      },
      {
        "midi": 72,
        "time": 186.25,
        "duration": 0.089,
        "velocity": 1,
        "hand": "right"
      },
      {
        "midi": 54,
        "time": 186.339,
        "duration": 0.089,
        "velocity": 1,
        "hand": "left"
      },
      {
        "midi": 73,
        "time": 186.339,
        "duration": 0.089,
        "velocity": 1,
        "hand": "right"
      },
      {
        "midi": 57,
        "time": 186.429,
        "duration": 0.089,
        "velocity": 1,
        "hand": "left"
      },
      {
        "midi": 66,
        "time": 186.429,
        "duration": 0.089,
        "velocity": 1,
        "hand": "right"
      },
      {
        "midi": 78,
        "time": 186.518,
        "duration": 0.089,
        "velocity": 1,
        "hand": "right"
      },
      {
        "midi": 54,
        "time": 186.607,
        "duration": 0.089,
        "velocity": 1,
        "hand": "left"
      },
      {
        "midi": 72,
        "time": 186.607,
        "duration": 0.089,
        "velocity": 1,
        "hand": "right"
      },
      {
        "midi": 49,
        "time": 186.696,
        "duration": 0.089,
        "velocity": 1,
        "hand": "left"
      },
      {
        "midi": 73,
        "time": 186.696,
        "duration": 0.089,
        "velocity": 1,
        "hand": "right"
      },
      {
        "midi": 45,
        "time": 186.786,
        "duration": 0.089,
        "velocity": 1,
        "hand": "left"
      },
      {
        "midi": 65,
        "time": 186.786,
        "duration": 0.089,
        "velocity": 1,
        "hand": "right"
      },
      {
        "midi": 77,
        "time": 186.875,
        "duration": 0.089,
        "velocity": 1,
        "hand": "right"
      },
      {
        "midi": 49,
        "time": 186.964,
        "duration": 0.089,
        "velocity": 1,
        "hand": "left"
      },
      {
        "midi": 72,
        "time": 186.964,
        "duration": 0.089,
        "velocity": 1,
        "hand": "right"
      },
      {
        "midi": 54,
        "time": 187.054,
        "duration": 0.089,
        "velocity": 1,
        "hand": "left"
      },
      {
        "midi": 73,
        "time": 187.054,
        "duration": 0.089,
        "velocity": 1,
        "hand": "right"
      },
      {
        "midi": 57,
        "time": 187.143,
        "duration": 0.089,
        "velocity": 1,
        "hand": "left"
      },
      {
        "midi": 66,
        "time": 187.143,
        "duration": 0.089,
        "velocity": 1,
        "hand": "right"
      },
      {
        "midi": 78,
        "time": 187.232,
        "duration": 0.089,
        "velocity": 1,
        "hand": "right"
      },
      {
        "midi": 54,
        "time": 187.321,
        "duration": 0.089,
        "velocity": 1,
        "hand": "left"
      },
      {
        "midi": 72,
        "time": 187.321,
        "duration": 0.089,
        "velocity": 1,
        "hand": "right"
      },
      {
        "midi": 49,
        "time": 187.411,
        "duration": 0.089,
        "velocity": 1,
        "hand": "left"
      },
      {
        "midi": 73,
        "time": 187.411,
        "duration": 0.089,
        "velocity": 1,
        "hand": "right"
      },
      {
        "midi": 47,
        "time": 187.5,
        "duration": 0.089,
        "velocity": 1,
        "hand": "left"
      },
      {
        "midi": 65,
        "time": 187.5,
        "duration": 0.089,
        "velocity": 1,
        "hand": "right"
      },
      {
        "midi": 77,
        "time": 187.589,
        "duration": 0.089,
        "velocity": 1,
        "hand": "right"
      },
      {
        "midi": 54,
        "time": 187.679,
        "duration": 0.089,
        "velocity": 1,
        "hand": "left"
      },
      {
        "midi": 71,
        "time": 187.679,
        "duration": 0.089,
        "velocity": 1,
        "hand": "right"
      },
      {
        "midi": 57,
        "time": 187.768,
        "duration": 0.089,
        "velocity": 1,
        "hand": "left"
      },
      {
        "midi": 75,
        "time": 187.768,
        "duration": 0.089,
        "velocity": 1,
        "hand": "right"
      },
      {
        "midi": 59,
        "time": 187.857,
        "duration": 0.089,
        "velocity": 1,
        "hand": "left"
      },
      {
        "midi": 66,
        "time": 187.857,
        "duration": 0.089,
        "velocity": 1,
        "hand": "right"
      },
      {
        "midi": 78,
        "time": 187.946,
        "duration": 0.089,
        "velocity": 1,
        "hand": "right"
      },
      {
        "midi": 57,
        "time": 188.036,
        "duration": 0.089,
        "velocity": 1,
        "hand": "left"
      },
      {
        "midi": 71,
        "time": 188.036,
        "duration": 0.089,
        "velocity": 1,
        "hand": "right"
      },
      {
        "midi": 54,
        "time": 188.125,
        "duration": 0.089,
        "velocity": 1,
        "hand": "left"
      },
      {
        "midi": 75,
        "time": 188.125,
        "duration": 0.089,
        "velocity": 1,
        "hand": "right"
      },
      {
        "midi": 40,
        "time": 188.214,
        "duration": 0.089,
        "velocity": 1,
        "hand": "left"
      },
      {
        "midi": 69,
        "time": 188.214,
        "duration": 0.089,
        "velocity": 1,
        "hand": "right"
      },
      {
        "midi": 81,
        "time": 188.304,
        "duration": 0.089,
        "velocity": 1,
        "hand": "right"
      },
      {
        "midi": 47,
        "time": 188.393,
        "duration": 0.089,
        "velocity": 1,
        "hand": "left"
      },
      {
        "midi": 71,
        "time": 188.393,
        "duration": 0.089,
        "velocity": 1,
        "hand": "right"
      },
      {
        "midi": 52,
        "time": 188.482,
        "duration": 0.089,
        "velocity": 1,
        "hand": "left"
      },
      {
        "midi": 76,
        "time": 188.482,
        "duration": 0.089,
        "velocity": 1,
        "hand": "right"
      },
      {
        "midi": 56,
        "time": 188.571,
        "duration": 0.089,
        "velocity": 1,
        "hand": "left"
      },
      {
        "midi": 68,
        "time": 188.571,
        "duration": 0.089,
        "velocity": 1,
        "hand": "right"
      },
      {
        "midi": 80,
        "time": 188.661,
        "duration": 0.089,
        "velocity": 1,
        "hand": "right"
      },
      {
        "midi": 52,
        "time": 188.75,
        "duration": 0.089,
        "velocity": 1,
        "hand": "left"
      },
      {
        "midi": 71,
        "time": 188.75,
        "duration": 0.089,
        "velocity": 1,
        "hand": "right"
      },
      {
        "midi": 47,
        "time": 188.839,
        "duration": 0.089,
        "velocity": 1,
        "hand": "left"
      },
      {
        "midi": 76,
        "time": 188.839,
        "duration": 0.089,
        "velocity": 1,
        "hand": "right"
      },
      {
        "midi": 45,
        "time": 188.929,
        "duration": 0.089,
        "velocity": 1,
        "hand": "left"
      },
      {
        "midi": 68,
        "time": 188.929,
        "duration": 0.089,
        "velocity": 1,
        "hand": "right"
      },
      {
        "midi": 80,
        "time": 189.018,
        "duration": 0.089,
        "velocity": 1,
        "hand": "right"
      },
      {
        "midi": 49,
        "time": 189.107,
        "duration": 0.089,
        "velocity": 1,
        "hand": "left"
      },
      {
        "midi": 72,
        "time": 189.107,
        "duration": 0.089,
        "velocity": 1,
        "hand": "right"
      },
      {
        "midi": 54,
        "time": 189.196,
        "duration": 0.089,
        "velocity": 1,
        "hand": "left"
      },
      {
        "midi": 73,
        "time": 189.196,
        "duration": 0.089,
        "velocity": 1,
        "hand": "right"
      },
      {
        "midi": 57,
        "time": 189.286,
        "duration": 0.089,
        "velocity": 1,
        "hand": "left"
      },
      {
        "midi": 66,
        "time": 189.286,
        "duration": 0.089,
        "velocity": 1,
        "hand": "right"
      },
      {
        "midi": 78,
        "time": 189.375,
        "duration": 0.089,
        "velocity": 1,
        "hand": "right"
      },
      {
        "midi": 54,
        "time": 189.464,
        "duration": 0.089,
        "velocity": 1,
        "hand": "left"
      },
      {
        "midi": 72,
        "time": 189.464,
        "duration": 0.089,
        "velocity": 1,
        "hand": "right"
      },
      {
        "midi": 49,
        "time": 189.554,
        "duration": 0.089,
        "velocity": 1,
        "hand": "left"
      },
      {
        "midi": 73,
        "time": 189.554,
        "duration": 0.089,
        "velocity": 1,
        "hand": "right"
      },
      {
        "midi": 45,
        "time": 189.643,
        "duration": 0.089,
        "velocity": 1,
        "hand": "left"
      },
      {
        "midi": 65,
        "time": 189.643,
        "duration": 0.089,
        "velocity": 1,
        "hand": "right"
      },
      {
        "midi": 77,
        "time": 189.732,
        "duration": 0.089,
        "velocity": 1,
        "hand": "right"
      },
      {
        "midi": 49,
        "time": 189.821,
        "duration": 0.089,
        "velocity": 1,
        "hand": "left"
      },
      {
        "midi": 72,
        "time": 189.821,
        "duration": 0.089,
        "velocity": 1,
        "hand": "right"
      },
      {
        "midi": 54,
        "time": 189.911,
        "duration": 0.089,
        "velocity": 1,
        "hand": "left"
      },
      {
        "midi": 73,
        "time": 189.911,
        "duration": 0.089,
        "velocity": 1,
        "hand": "right"
      },
      {
        "midi": 57,
        "time": 190,
        "duration": 0.089,
        "velocity": 1,
        "hand": "left"
      },
      {
        "midi": 66,
        "time": 190,
        "duration": 0.089,
        "velocity": 1,
        "hand": "right"
      },
      {
        "midi": 78,
        "time": 190.089,
        "duration": 0.089,
        "velocity": 1,
        "hand": "right"
      },
      {
        "midi": 54,
        "time": 190.179,
        "duration": 0.089,
        "velocity": 1,
        "hand": "left"
      },
      {
        "midi": 72,
        "time": 190.179,
        "duration": 0.089,
        "velocity": 1,
        "hand": "right"
      },
      {
        "midi": 49,
        "time": 190.268,
        "duration": 0.089,
        "velocity": 1,
        "hand": "left"
      },
      {
        "midi": 73,
        "time": 190.268,
        "duration": 0.089,
        "velocity": 1,
        "hand": "right"
      },
      {
        "midi": 47,
        "time": 190.357,
        "duration": 0.089,
        "velocity": 1,
        "hand": "left"
      },
      {
        "midi": 61,
        "time": 190.357,
        "duration": 0.089,
        "velocity": 1,
        "hand": "right"
      },
      {
        "midi": 73,
        "time": 190.446,
        "duration": 0.089,
        "velocity": 1,
        "hand": "right"
      },
      {
        "midi": 54,
        "time": 190.536,
        "duration": 0.089,
        "velocity": 1,
        "hand": "left"
      },
      {
        "midi": 66,
        "time": 190.536,
        "duration": 0.089,
        "velocity": 1,
        "hand": "right"
      },
      {
        "midi": 57,
        "time": 190.625,
        "duration": 0.089,
        "velocity": 1,
        "hand": "left"
      },
      {
        "midi": 69,
        "time": 190.625,
        "duration": 0.089,
        "velocity": 1,
        "hand": "right"
      },
      {
        "midi": 59,
        "time": 190.714,
        "duration": 0.089,
        "velocity": 1,
        "hand": "left"
      },
      {
        "midi": 63,
        "time": 190.714,
        "duration": 0.089,
        "velocity": 1,
        "hand": "right"
      },
      {
        "midi": 75,
        "time": 190.804,
        "duration": 0.089,
        "velocity": 1,
        "hand": "right"
      },
      {
        "midi": 57,
        "time": 190.893,
        "duration": 0.089,
        "velocity": 1,
        "hand": "left"
      },
      {
        "midi": 66,
        "time": 190.893,
        "duration": 0.089,
        "velocity": 1,
        "hand": "right"
      },
      {
        "midi": 54,
        "time": 190.982,
        "duration": 0.089,
        "velocity": 1,
        "hand": "left"
      },
      {
        "midi": 69,
        "time": 190.982,
        "duration": 0.089,
        "velocity": 1,
        "hand": "right"
      },
      {
        "midi": 40,
        "time": 191.071,
        "duration": 0.089,
        "velocity": 1,
        "hand": "left"
      },
      {
        "midi": 64,
        "time": 191.071,
        "duration": 0.089,
        "velocity": 1,
        "hand": "right"
      },
      {
        "midi": 76,
        "time": 191.161,
        "duration": 0.089,
        "velocity": 1,
        "hand": "right"
      },
      {
        "midi": 47,
        "time": 191.25,
        "duration": 0.089,
        "velocity": 1,
        "hand": "left"
      },
      {
        "midi": 68,
        "time": 191.25,
        "duration": 0.089,
        "velocity": 1,
        "hand": "right"
      },
      {
        "midi": 52,
        "time": 191.339,
        "duration": 0.089,
        "velocity": 1,
        "hand": "left"
      },
      {
        "midi": 71,
        "time": 191.339,
        "duration": 0.089,
        "velocity": 1,
        "hand": "right"
      },
      {
        "midi": 56,
        "time": 191.429,
        "duration": 0.089,
        "velocity": 1,
        "hand": "left"
      },
      {
        "midi": 68,
        "time": 191.429,
        "duration": 0.089,
        "velocity": 1,
        "hand": "right"
      },
      {
        "midi": 80,
        "time": 191.518,
        "duration": 0.089,
        "velocity": 1,
        "hand": "right"
      },
      {
        "midi": 52,
        "time": 191.607,
        "duration": 0.089,
        "velocity": 1,
        "hand": "left"
      },
      {
        "midi": 71,
        "time": 191.607,
        "duration": 0.089,
        "velocity": 1,
        "hand": "right"
      },
      {
        "midi": 47,
        "time": 191.696,
        "duration": 0.089,
        "velocity": 1,
        "hand": "left"
      },
      {
        "midi": 76,
        "time": 191.696,
        "duration": 0.089,
        "velocity": 1,
        "hand": "right"
      },
      {
        "midi": 45,
        "time": 191.786,
        "duration": 0.089,
        "velocity": 1,
        "hand": "left"
      },
      {
        "midi": 68,
        "time": 191.786,
        "duration": 0.089,
        "velocity": 1,
        "hand": "right"
      },
      {
        "midi": 80,
        "time": 191.875,
        "duration": 0.089,
        "velocity": 1,
        "hand": "right"
      },
      {
        "midi": 49,
        "time": 191.964,
        "duration": 0.089,
        "velocity": 1,
        "hand": "left"
      },
      {
        "midi": 72,
        "time": 191.964,
        "duration": 0.089,
        "velocity": 1,
        "hand": "right"
      },
      {
        "midi": 54,
        "time": 192.054,
        "duration": 0.089,
        "velocity": 1,
        "hand": "left"
      },
      {
        "midi": 73,
        "time": 192.054,
        "duration": 0.089,
        "velocity": 1,
        "hand": "right"
      },
      {
        "midi": 57,
        "time": 192.143,
        "duration": 0.089,
        "velocity": 1,
        "hand": "left"
      },
      {
        "midi": 66,
        "time": 192.143,
        "duration": 0.089,
        "velocity": 1,
        "hand": "right"
      },
      {
        "midi": 78,
        "time": 192.232,
        "duration": 0.089,
        "velocity": 1,
        "hand": "right"
      },
      {
        "midi": 54,
        "time": 192.321,
        "duration": 0.089,
        "velocity": 1,
        "hand": "left"
      },
      {
        "midi": 72,
        "time": 192.321,
        "duration": 0.089,
        "velocity": 1,
        "hand": "right"
      },
      {
        "midi": 49,
        "time": 192.411,
        "duration": 0.089,
        "velocity": 1,
        "hand": "left"
      },
      {
        "midi": 73,
        "time": 192.411,
        "duration": 0.089,
        "velocity": 1,
        "hand": "right"
      },
      {
        "midi": 45,
        "time": 192.5,
        "duration": 0.089,
        "velocity": 1,
        "hand": "left"
      },
      {
        "midi": 75,
        "time": 192.5,
        "duration": 0.089,
        "velocity": 1,
        "hand": "right"
      },
      {
        "midi": 87,
        "time": 192.589,
        "duration": 0.089,
        "velocity": 1,
        "hand": "right"
      },
      {
        "midi": 51,
        "time": 192.679,
        "duration": 0.089,
        "velocity": 1,
        "hand": "left"
      },
      {
        "midi": 78,
        "time": 192.679,
        "duration": 0.089,
        "velocity": 1,
        "hand": "right"
      },
      {
        "midi": 54,
        "time": 192.768,
        "duration": 0.089,
        "velocity": 1,
        "hand": "left"
      },
      {
        "midi": 81,
        "time": 192.768,
        "duration": 0.089,
        "velocity": 1,
        "hand": "right"
      },
      {
        "midi": 57,
        "time": 192.857,
        "duration": 0.089,
        "velocity": 1,
        "hand": "left"
      },
      {
        "midi": 73,
        "time": 192.857,
        "duration": 0.089,
        "velocity": 1,
        "hand": "right"
      },
      {
        "midi": 85,
        "time": 192.946,
        "duration": 0.089,
        "velocity": 1,
        "hand": "right"
      },
      {
        "midi": 54,
        "time": 193.036,
        "duration": 0.089,
        "velocity": 1,
        "hand": "left"
      },
      {
        "midi": 78,
        "time": 193.036,
        "duration": 0.089,
        "velocity": 1,
        "hand": "right"
      },
      {
        "midi": 51,
        "time": 193.125,
        "duration": 0.089,
        "velocity": 1,
        "hand": "left"
      },
      {
        "midi": 81,
        "time": 193.125,
        "duration": 0.089,
        "velocity": 1,
        "hand": "right"
      },
      {
        "midi": 44,
        "time": 193.214,
        "duration": 0.089,
        "velocity": 1,
        "hand": "left"
      },
      {
        "midi": 73,
        "time": 193.214,
        "duration": 0.089,
        "velocity": 1,
        "hand": "right"
      },
      {
        "midi": 85,
        "time": 193.304,
        "duration": 0.089,
        "velocity": 1,
        "hand": "right"
      },
      {
        "midi": 51,
        "time": 193.393,
        "duration": 0.089,
        "velocity": 1,
        "hand": "left"
      },
      {
        "midi": 75,
        "time": 193.393,
        "duration": 0.089,
        "velocity": 1,
        "hand": "right"
      },
      {
        "midi": 54,
        "time": 193.482,
        "duration": 0.089,
        "velocity": 1,
        "hand": "left"
      },
      {
        "midi": 78,
        "time": 193.482,
        "duration": 0.089,
        "velocity": 1,
        "hand": "right"
      },
      {
        "midi": 60,
        "time": 193.571,
        "duration": 0.089,
        "velocity": 1,
        "hand": "right"
      },
      {
        "midi": 72,
        "time": 193.571,
        "duration": 0.089,
        "velocity": 1,
        "hand": "right"
      },
      {
        "midi": 84,
        "time": 193.661,
        "duration": 0.089,
        "velocity": 1,
        "hand": "right"
      },
      {
        "midi": 54,
        "time": 193.75,
        "duration": 0.089,
        "velocity": 1,
        "hand": "left"
      },
      {
        "midi": 75,
        "time": 193.75,
        "duration": 0.089,
        "velocity": 1,
        "hand": "right"
      },
      {
        "midi": 51,
        "time": 193.839,
        "duration": 0.089,
        "velocity": 1,
        "hand": "left"
      },
      {
        "midi": 78,
        "time": 193.839,
        "duration": 0.089,
        "velocity": 1,
        "hand": "right"
      },
      {
        "midi": 44,
        "time": 193.929,
        "duration": 0.089,
        "velocity": 1,
        "hand": "left"
      },
      {
        "midi": 72,
        "time": 193.929,
        "duration": 0.089,
        "velocity": 1,
        "hand": "right"
      },
      {
        "midi": 84,
        "time": 194.018,
        "duration": 0.089,
        "velocity": 1,
        "hand": "right"
      },
      {
        "midi": 51,
        "time": 194.107,
        "duration": 0.089,
        "velocity": 1,
        "hand": "left"
      },
      {
        "midi": 75,
        "time": 194.107,
        "duration": 0.089,
        "velocity": 1,
        "hand": "right"
      },
      {
        "midi": 54,
        "time": 194.196,
        "duration": 0.089,
        "velocity": 1,
        "hand": "left"
      },
      {
        "midi": 78,
        "time": 194.196,
        "duration": 0.089,
        "velocity": 1,
        "hand": "right"
      },
      {
        "midi": 60,
        "time": 194.286,
        "duration": 0.089,
        "velocity": 1,
        "hand": "right"
      },
      {
        "midi": 72,
        "time": 194.286,
        "duration": 0.089,
        "velocity": 1,
        "hand": "right"
      },
      {
        "midi": 84,
        "time": 194.375,
        "duration": 0.089,
        "velocity": 1,
        "hand": "right"
      },
      {
        "midi": 54,
        "time": 194.464,
        "duration": 0.089,
        "velocity": 1,
        "hand": "left"
      },
      {
        "midi": 75,
        "time": 194.464,
        "duration": 0.089,
        "velocity": 1,
        "hand": "right"
      },
      {
        "midi": 51,
        "time": 194.554,
        "duration": 0.089,
        "velocity": 1,
        "hand": "left"
      },
      {
        "midi": 78,
        "time": 194.554,
        "duration": 0.089,
        "velocity": 1,
        "hand": "right"
      },
      {
        "midi": 45,
        "time": 194.643,
        "duration": 0.089,
        "velocity": 1,
        "hand": "left"
      },
      {
        "midi": 72,
        "time": 194.643,
        "duration": 0.089,
        "velocity": 1,
        "hand": "right"
      },
      {
        "midi": 84,
        "time": 194.732,
        "duration": 0.089,
        "velocity": 1,
        "hand": "right"
      },
      {
        "midi": 51,
        "time": 194.821,
        "duration": 0.089,
        "velocity": 1,
        "hand": "left"
      },
      {
        "midi": 75,
        "time": 194.821,
        "duration": 0.089,
        "velocity": 1,
        "hand": "right"
      },
      {
        "midi": 54,
        "time": 194.911,
        "duration": 0.089,
        "velocity": 1,
        "hand": "left"
      },
      {
        "midi": 78,
        "time": 194.911,
        "duration": 0.089,
        "velocity": 1,
        "hand": "right"
      },
      {
        "midi": 59,
        "time": 195,
        "duration": 0.089,
        "velocity": 1,
        "hand": "left"
      },
      {
        "midi": 71,
        "time": 195,
        "duration": 0.089,
        "velocity": 1,
        "hand": "right"
      },
      {
        "midi": 83,
        "time": 195.089,
        "duration": 0.089,
        "velocity": 1,
        "hand": "right"
      },
      {
        "midi": 54,
        "time": 195.179,
        "duration": 0.089,
        "velocity": 1,
        "hand": "left"
      },
      {
        "midi": 75,
        "time": 195.179,
        "duration": 0.089,
        "velocity": 1,
        "hand": "right"
      },
      {
        "midi": 51,
        "time": 195.268,
        "duration": 0.089,
        "velocity": 1,
        "hand": "left"
      },
      {
        "midi": 78,
        "time": 195.268,
        "duration": 0.089,
        "velocity": 1,
        "hand": "right"
      },
      {
        "midi": 46,
        "time": 195.357,
        "duration": 0.089,
        "velocity": 1,
        "hand": "left"
      },
      {
        "midi": 71,
        "time": 195.357,
        "duration": 0.089,
        "velocity": 1,
        "hand": "right"
      },
      {
        "midi": 83,
        "time": 195.446,
        "duration": 0.089,
        "velocity": 1,
        "hand": "right"
      },
      {
        "midi": 51,
        "time": 195.536,
        "duration": 0.089,
        "velocity": 1,
        "hand": "left"
      },
      {
        "midi": 75,
        "time": 195.536,
        "duration": 0.089,
        "velocity": 1,
        "hand": "right"
      },
      {
        "midi": 54,
        "time": 195.625,
        "duration": 0.089,
        "velocity": 1,
        "hand": "left"
      },
      {
        "midi": 78,
        "time": 195.625,
        "duration": 0.089,
        "velocity": 1,
        "hand": "right"
      },
      {
        "midi": 58,
        "time": 195.714,
        "duration": 0.089,
        "velocity": 1,
        "hand": "left"
      },
      {
        "midi": 70,
        "time": 195.714,
        "duration": 0.089,
        "velocity": 1,
        "hand": "right"
      },
      {
        "midi": 82,
        "time": 195.804,
        "duration": 0.089,
        "velocity": 1,
        "hand": "right"
      },
      {
        "midi": 54,
        "time": 195.893,
        "duration": 0.089,
        "velocity": 1,
        "hand": "left"
      },
      {
        "midi": 75,
        "time": 195.893,
        "duration": 0.089,
        "velocity": 1,
        "hand": "right"
      },
      {
        "midi": 51,
        "time": 195.982,
        "duration": 0.089,
        "velocity": 1,
        "hand": "left"
      },
      {
        "midi": 78,
        "time": 195.982,
        "duration": 0.089,
        "velocity": 1,
        "hand": "right"
      },
      {
        "midi": 48,
        "time": 196.071,
        "duration": 0.089,
        "velocity": 1,
        "hand": "left"
      },
      {
        "midi": 70,
        "time": 196.071,
        "duration": 0.089,
        "velocity": 1,
        "hand": "right"
      },
      {
        "midi": 82,
        "time": 196.161,
        "duration": 0.089,
        "velocity": 1,
        "hand": "right"
      },
      {
        "midi": 51,
        "time": 196.25,
        "duration": 0.089,
        "velocity": 1,
        "hand": "left"
      },
      {
        "midi": 75,
        "time": 196.25,
        "duration": 0.089,
        "velocity": 1,
        "hand": "right"
      },
      {
        "midi": 54,
        "time": 196.339,
        "duration": 0.089,
        "velocity": 1,
        "hand": "left"
      },
      {
        "midi": 78,
        "time": 196.339,
        "duration": 0.089,
        "velocity": 1,
        "hand": "right"
      },
      {
        "midi": 57,
        "time": 196.429,
        "duration": 0.089,
        "velocity": 1,
        "hand": "left"
      },
      {
        "midi": 69,
        "time": 196.429,
        "duration": 0.089,
        "velocity": 1,
        "hand": "right"
      },
      {
        "midi": 81,
        "time": 196.518,
        "duration": 0.089,
        "velocity": 1,
        "hand": "right"
      },
      {
        "midi": 54,
        "time": 196.607,
        "duration": 0.089,
        "velocity": 1,
        "hand": "left"
      },
      {
        "midi": 75,
        "time": 196.607,
        "duration": 0.089,
        "velocity": 1,
        "hand": "right"
      },
      {
        "midi": 51,
        "time": 196.696,
        "duration": 0.089,
        "velocity": 1,
        "hand": "left"
      },
      {
        "midi": 78,
        "time": 196.696,
        "duration": 0.089,
        "velocity": 1,
        "hand": "right"
      },
      {
        "midi": 48,
        "time": 196.786,
        "duration": 0.089,
        "velocity": 1,
        "hand": "left"
      },
      {
        "midi": 69,
        "time": 196.786,
        "duration": 0.089,
        "velocity": 1,
        "hand": "right"
      },
      {
        "midi": 81,
        "time": 196.875,
        "duration": 0.089,
        "velocity": 1,
        "hand": "right"
      },
      {
        "midi": 51,
        "time": 196.964,
        "duration": 0.089,
        "velocity": 1,
        "hand": "left"
      },
      {
        "midi": 75,
        "time": 196.964,
        "duration": 0.089,
        "velocity": 1,
        "hand": "right"
      },
      {
        "midi": 54,
        "time": 197.054,
        "duration": 0.089,
        "velocity": 1,
        "hand": "left"
      },
      {
        "midi": 78,
        "time": 197.054,
        "duration": 0.089,
        "velocity": 1,
        "hand": "right"
      },
      {
        "midi": 57,
        "time": 197.143,
        "duration": 0.089,
        "velocity": 1,
        "hand": "left"
      },
      {
        "midi": 69,
        "time": 197.143,
        "duration": 0.089,
        "velocity": 1,
        "hand": "right"
      },
      {
        "midi": 81,
        "time": 197.232,
        "duration": 0.089,
        "velocity": 1,
        "hand": "right"
      },
      {
        "midi": 54,
        "time": 197.321,
        "duration": 0.089,
        "velocity": 1,
        "hand": "left"
      },
      {
        "midi": 75,
        "time": 197.321,
        "duration": 0.089,
        "velocity": 1,
        "hand": "right"
      },
      {
        "midi": 51,
        "time": 197.411,
        "duration": 0.089,
        "velocity": 1,
        "hand": "left"
      },
      {
        "midi": 78,
        "time": 197.411,
        "duration": 0.089,
        "velocity": 1,
        "hand": "right"
      },
      {
        "midi": 45,
        "time": 197.5,
        "duration": 0.089,
        "velocity": 1,
        "hand": "left"
      },
      {
        "midi": 72,
        "time": 197.5,
        "duration": 0.089,
        "velocity": 1,
        "hand": "right"
      },
      {
        "midi": 84,
        "time": 197.589,
        "duration": 0.089,
        "velocity": 1,
        "hand": "right"
      },
      {
        "midi": 51,
        "time": 197.679,
        "duration": 0.089,
        "velocity": 1,
        "hand": "left"
      },
      {
        "midi": 75,
        "time": 197.679,
        "duration": 0.089,
        "velocity": 1,
        "hand": "right"
      },
      {
        "midi": 54,
        "time": 197.768,
        "duration": 0.089,
        "velocity": 1,
        "hand": "left"
      },
      {
        "midi": 78,
        "time": 197.768,
        "duration": 0.089,
        "velocity": 1,
        "hand": "right"
      },
      {
        "midi": 59,
        "time": 197.857,
        "duration": 0.089,
        "velocity": 1,
        "hand": "left"
      },
      {
        "midi": 71,
        "time": 197.857,
        "duration": 0.089,
        "velocity": 1,
        "hand": "right"
      },
      {
        "midi": 83,
        "time": 197.946,
        "duration": 0.089,
        "velocity": 1,
        "hand": "right"
      },
      {
        "midi": 54,
        "time": 198.036,
        "duration": 0.089,
        "velocity": 1,
        "hand": "left"
      },
      {
        "midi": 75,
        "time": 198.036,
        "duration": 0.089,
        "velocity": 1,
        "hand": "right"
      },
      {
        "midi": 51,
        "time": 198.125,
        "duration": 0.089,
        "velocity": 1,
        "hand": "left"
      },
      {
        "midi": 78,
        "time": 198.125,
        "duration": 0.089,
        "velocity": 1,
        "hand": "right"
      },
      {
        "midi": 46,
        "time": 198.214,
        "duration": 0.089,
        "velocity": 1,
        "hand": "left"
      },
      {
        "midi": 71,
        "time": 198.214,
        "duration": 0.089,
        "velocity": 1,
        "hand": "right"
      },
      {
        "midi": 83,
        "time": 198.304,
        "duration": 0.089,
        "velocity": 1,
        "hand": "right"
      },
      {
        "midi": 51,
        "time": 198.393,
        "duration": 0.089,
        "velocity": 1,
        "hand": "left"
      },
      {
        "midi": 75,
        "time": 198.393,
        "duration": 0.089,
        "velocity": 1,
        "hand": "right"
      },
      {
        "midi": 54,
        "time": 198.482,
        "duration": 0.089,
        "velocity": 1,
        "hand": "left"
      },
      {
        "midi": 78,
        "time": 198.482,
        "duration": 0.089,
        "velocity": 1,
        "hand": "right"
      },
      {
        "midi": 58,
        "time": 198.571,
        "duration": 0.089,
        "velocity": 1,
        "hand": "left"
      },
      {
        "midi": 70,
        "time": 198.571,
        "duration": 0.089,
        "velocity": 1,
        "hand": "right"
      },
      {
        "midi": 82,
        "time": 198.661,
        "duration": 0.089,
        "velocity": 1,
        "hand": "right"
      },
      {
        "midi": 54,
        "time": 198.75,
        "duration": 0.089,
        "velocity": 1,
        "hand": "left"
      },
      {
        "midi": 75,
        "time": 198.75,
        "duration": 0.089,
        "velocity": 1,
        "hand": "right"
      },
      {
        "midi": 51,
        "time": 198.839,
        "duration": 0.089,
        "velocity": 1,
        "hand": "left"
      },
      {
        "midi": 78,
        "time": 198.839,
        "duration": 0.089,
        "velocity": 1,
        "hand": "right"
      },
      {
        "midi": 47,
        "time": 198.929,
        "duration": 0.089,
        "velocity": 1,
        "hand": "left"
      },
      {
        "midi": 70,
        "time": 198.929,
        "duration": 0.089,
        "velocity": 1,
        "hand": "right"
      },
      {
        "midi": 82,
        "time": 199.018,
        "duration": 0.089,
        "velocity": 1,
        "hand": "right"
      },
      {
        "midi": 51,
        "time": 199.107,
        "duration": 0.089,
        "velocity": 1,
        "hand": "left"
      },
      {
        "midi": 75,
        "time": 199.107,
        "duration": 0.089,
        "velocity": 1,
        "hand": "right"
      },
      {
        "midi": 54,
        "time": 199.196,
        "duration": 0.089,
        "velocity": 1,
        "hand": "left"
      },
      {
        "midi": 78,
        "time": 199.196,
        "duration": 0.089,
        "velocity": 1,
        "hand": "right"
      },
      {
        "midi": 57,
        "time": 199.286,
        "duration": 0.089,
        "velocity": 1,
        "hand": "left"
      },
      {
        "midi": 69,
        "time": 199.286,
        "duration": 0.089,
        "velocity": 1,
        "hand": "right"
      },
      {
        "midi": 81,
        "time": 199.375,
        "duration": 0.089,
        "velocity": 1,
        "hand": "right"
      },
      {
        "midi": 54,
        "time": 199.464,
        "duration": 0.089,
        "velocity": 1,
        "hand": "left"
      },
      {
        "midi": 75,
        "time": 199.464,
        "duration": 0.089,
        "velocity": 1,
        "hand": "right"
      },
      {
        "midi": 51,
        "time": 199.554,
        "duration": 0.089,
        "velocity": 1,
        "hand": "left"
      },
      {
        "midi": 78,
        "time": 199.554,
        "duration": 0.089,
        "velocity": 1,
        "hand": "right"
      },
      {
        "midi": 48,
        "time": 199.643,
        "duration": 0.089,
        "velocity": 1,
        "hand": "left"
      },
      {
        "midi": 69,
        "time": 199.643,
        "duration": 0.089,
        "velocity": 1,
        "hand": "right"
      },
      {
        "midi": 81,
        "time": 199.732,
        "duration": 0.089,
        "velocity": 1,
        "hand": "right"
      },
      {
        "midi": 51,
        "time": 199.821,
        "duration": 0.089,
        "velocity": 1,
        "hand": "left"
      },
      {
        "midi": 75,
        "time": 199.821,
        "duration": 0.089,
        "velocity": 1,
        "hand": "right"
      },
      {
        "midi": 54,
        "time": 199.911,
        "duration": 0.089,
        "velocity": 1,
        "hand": "left"
      },
      {
        "midi": 78,
        "time": 199.911,
        "duration": 0.089,
        "velocity": 1,
        "hand": "right"
      },
      {
        "midi": 56,
        "time": 200,
        "duration": 0.089,
        "velocity": 1,
        "hand": "left"
      },
      {
        "midi": 68,
        "time": 200,
        "duration": 0.089,
        "velocity": 1,
        "hand": "right"
      },
      {
        "midi": 80,
        "time": 200.089,
        "duration": 0.089,
        "velocity": 1,
        "hand": "right"
      },
      {
        "midi": 54,
        "time": 200.179,
        "duration": 0.089,
        "velocity": 1,
        "hand": "left"
      },
      {
        "midi": 75,
        "time": 200.179,
        "duration": 0.089,
        "velocity": 1,
        "hand": "right"
      },
      {
        "midi": 51,
        "time": 200.268,
        "duration": 0.089,
        "velocity": 1,
        "hand": "left"
      },
      {
        "midi": 78,
        "time": 200.268,
        "duration": 0.089,
        "velocity": 1,
        "hand": "right"
      },
      {
        "midi": 49,
        "time": 200.357,
        "duration": 0.089,
        "velocity": 1,
        "hand": "left"
      },
      {
        "midi": 68,
        "time": 200.446,
        "duration": 0.089,
        "velocity": 1,
        "hand": "right"
      },
      {
        "midi": 56,
        "time": 200.536,
        "duration": 0.089,
        "velocity": 1,
        "hand": "left"
      },
      {
        "midi": 69,
        "time": 200.536,
        "duration": 0.089,
        "velocity": 1,
        "hand": "right"
      },
      {
        "midi": 61,
        "time": 200.625,
        "duration": 0.089,
        "velocity": 1,
        "hand": "right"
      },
      {
        "midi": 68,
        "time": 200.625,
        "duration": 0.089,
        "velocity": 1,
        "hand": "right"
      },
      {
        "midi": 64,
        "time": 200.714,
        "duration": 0.089,
        "velocity": 1,
        "hand": "right"
      },
      {
        "midi": 67,
        "time": 200.714,
        "duration": 0.089,
        "velocity": 1,
        "hand": "right"
      },
      {
        "midi": 68,
        "time": 200.804,
        "duration": 0.089,
        "velocity": 1,
        "hand": "right"
      },
      {
        "midi": 61,
        "time": 200.893,
        "duration": 0.089,
        "velocity": 1,
        "hand": "right"
      },
      {
        "midi": 73,
        "time": 200.893,
        "duration": 0.089,
        "velocity": 1,
        "hand": "right"
      },
      {
        "midi": 56,
        "time": 200.982,
        "duration": 0.089,
        "velocity": 1,
        "hand": "left"
      },
      {
        "midi": 76,
        "time": 200.982,
        "duration": 0.089,
        "velocity": 1,
        "hand": "right"
      },
      {
        "midi": 52,
        "time": 201.071,
        "duration": 0.089,
        "velocity": 1,
        "hand": "left"
      },
      {
        "midi": 75,
        "time": 201.071,
        "duration": 0.089,
        "velocity": 1,
        "hand": "right"
      },
      {
        "midi": 73,
        "time": 201.161,
        "duration": 0.089,
        "velocity": 1,
        "hand": "right"
      },
      {
        "midi": 56,
        "time": 201.25,
        "duration": 0.089,
        "velocity": 1,
        "hand": "left"
      },
      {
        "midi": 75,
        "time": 201.25,
        "duration": 0.089,
        "velocity": 1,
        "hand": "right"
      },
      {
        "midi": 61,
        "time": 201.339,
        "duration": 0.089,
        "velocity": 1,
        "hand": "right"
      },
      {
        "midi": 73,
        "time": 201.339,
        "duration": 0.089,
        "velocity": 1,
        "hand": "right"
      },
      {
        "midi": 64,
        "time": 201.429,
        "duration": 0.089,
        "velocity": 1,
        "hand": "right"
      },
      {
        "midi": 72,
        "time": 201.429,
        "duration": 0.089,
        "velocity": 1,
        "hand": "right"
      },
      {
        "midi": 73,
        "time": 201.518,
        "duration": 0.089,
        "velocity": 1,
        "hand": "right"
      },
      {
        "midi": 61,
        "time": 201.607,
        "duration": 0.089,
        "velocity": 1,
        "hand": "right"
      },
      {
        "midi": 76,
        "time": 201.607,
        "duration": 0.089,
        "velocity": 1,
        "hand": "right"
      },
      {
        "midi": 56,
        "time": 201.696,
        "duration": 0.089,
        "velocity": 1,
        "hand": "left"
      },
      {
        "midi": 80,
        "time": 201.696,
        "duration": 0.089,
        "velocity": 1,
        "hand": "right"
      },
      {
        "midi": 49,
        "time": 201.786,
        "duration": 0.089,
        "velocity": 1,
        "hand": "left"
      },
      {
        "midi": 68,
        "time": 201.875,
        "duration": 0.089,
        "velocity": 1,
        "hand": "right"
      },
      {
        "midi": 56,
        "time": 201.964,
        "duration": 0.089,
        "velocity": 1,
        "hand": "left"
      },
      {
        "midi": 69,
        "time": 201.964,
        "duration": 0.089,
        "velocity": 1,
        "hand": "right"
      },
      {
        "midi": 61,
        "time": 202.054,
        "duration": 0.089,
        "velocity": 1,
        "hand": "right"
      },
      {
        "midi": 68,
        "time": 202.054,
        "duration": 0.089,
        "velocity": 1,
        "hand": "right"
      },
      {
        "midi": 64,
        "time": 202.143,
        "duration": 0.089,
        "velocity": 1,
        "hand": "right"
      },
      {
        "midi": 67,
        "time": 202.143,
        "duration": 0.089,
        "velocity": 1,
        "hand": "right"
      },
      {
        "midi": 68,
        "time": 202.232,
        "duration": 0.089,
        "velocity": 1,
        "hand": "right"
      },
      {
        "midi": 61,
        "time": 202.321,
        "duration": 0.089,
        "velocity": 1,
        "hand": "right"
      },
      {
        "midi": 73,
        "time": 202.321,
        "duration": 0.089,
        "velocity": 1,
        "hand": "right"
      },
      {
        "midi": 56,
        "time": 202.411,
        "duration": 0.089,
        "velocity": 1,
        "hand": "left"
      },
      {
        "midi": 76,
        "time": 202.411,
        "duration": 0.089,
        "velocity": 1,
        "hand": "right"
      },
      {
        "midi": 52,
        "time": 202.5,
        "duration": 0.089,
        "velocity": 1,
        "hand": "left"
      },
      {
        "midi": 75,
        "time": 202.5,
        "duration": 0.089,
        "velocity": 1,
        "hand": "right"
      },
      {
        "midi": 73,
        "time": 202.589,
        "duration": 0.089,
        "velocity": 1,
        "hand": "right"
      },
      {
        "midi": 56,
        "time": 202.679,
        "duration": 0.089,
        "velocity": 1,
        "hand": "left"
      },
      {
        "midi": 75,
        "time": 202.679,
        "duration": 0.089,
        "velocity": 1,
        "hand": "right"
      },
      {
        "midi": 61,
        "time": 202.768,
        "duration": 0.089,
        "velocity": 1,
        "hand": "right"
      },
      {
        "midi": 73,
        "time": 202.768,
        "duration": 0.089,
        "velocity": 1,
        "hand": "right"
      },
      {
        "midi": 64,
        "time": 202.857,
        "duration": 0.089,
        "velocity": 1,
        "hand": "right"
      },
      {
        "midi": 72,
        "time": 202.857,
        "duration": 0.089,
        "velocity": 1,
        "hand": "right"
      },
      {
        "midi": 73,
        "time": 202.946,
        "duration": 0.089,
        "velocity": 1,
        "hand": "right"
      },
      {
        "midi": 61,
        "time": 203.036,
        "duration": 0.089,
        "velocity": 1,
        "hand": "right"
      },
      {
        "midi": 76,
        "time": 203.036,
        "duration": 0.089,
        "velocity": 1,
        "hand": "right"
      },
      {
        "midi": 56,
        "time": 203.125,
        "duration": 0.089,
        "velocity": 1,
        "hand": "left"
      },
      {
        "midi": 80,
        "time": 203.125,
        "duration": 0.089,
        "velocity": 1,
        "hand": "right"
      },
      {
        "midi": 51,
        "time": 203.214,
        "duration": 0.089,
        "velocity": 1,
        "hand": "left"
      },
      {
        "midi": 69,
        "time": 203.304,
        "duration": 0.089,
        "velocity": 1,
        "hand": "right"
      },
      {
        "midi": 57,
        "time": 203.393,
        "duration": 0.089,
        "velocity": 1,
        "hand": "left"
      },
      {
        "midi": 73,
        "time": 203.393,
        "duration": 0.089,
        "velocity": 1,
        "hand": "right"
      },
      {
        "midi": 61,
        "time": 203.482,
        "duration": 0.089,
        "velocity": 1,
        "hand": "right"
      },
      {
        "midi": 75,
        "time": 203.482,
        "duration": 0.089,
        "velocity": 1,
        "hand": "right"
      },
      {
        "midi": 66,
        "time": 203.571,
        "duration": 0.089,
        "velocity": 1,
        "hand": "right"
      },
      {
        "midi": 78,
        "time": 203.571,
        "duration": 0.089,
        "velocity": 1,
        "hand": "right"
      },
      {
        "midi": 81,
        "time": 203.661,
        "duration": 0.089,
        "velocity": 1,
        "hand": "right"
      },
      {
        "midi": 61,
        "time": 203.75,
        "duration": 0.089,
        "velocity": 1,
        "hand": "right"
      },
      {
        "midi": 85,
        "time": 203.75,
        "duration": 0.089,
        "velocity": 1,
        "hand": "right"
      },
      {
        "midi": 57,
        "time": 203.839,
        "duration": 0.089,
        "velocity": 1,
        "hand": "left"
      },
      {
        "midi": 87,
        "time": 203.839,
        "duration": 0.089,
        "velocity": 1,
        "hand": "right"
      },
      {
        "midi": 54,
        "time": 203.929,
        "duration": 0.089,
        "velocity": 1,
        "hand": "left"
      },
      {
        "midi": 95,
        "time": 203.929,
        "duration": 0.089,
        "velocity": 1,
        "hand": "right"
      },
      {
        "midi": 93,
        "time": 204.018,
        "duration": 0.089,
        "velocity": 1,
        "hand": "right"
      },
      {
        "midi": 61,
        "time": 204.107,
        "duration": 0.089,
        "velocity": 1,
        "hand": "right"
      },
      {
        "midi": 92,
        "time": 204.107,
        "duration": 0.089,
        "velocity": 1,
        "hand": "right"
      },
      {
        "midi": 63,
        "time": 204.196,
        "duration": 0.089,
        "velocity": 1,
        "hand": "right"
      },
      {
        "midi": 90,
        "time": 204.196,
        "duration": 0.089,
        "velocity": 1,
        "hand": "right"
      },
      {
        "midi": 69,
        "time": 204.286,
        "duration": 0.089,
        "velocity": 1,
        "hand": "right"
      },
      {
        "midi": 88,
        "time": 204.286,
        "duration": 0.089,
        "velocity": 1,
        "hand": "right"
      },
      {
        "midi": 87,
        "time": 204.375,
        "duration": 0.089,
        "velocity": 1,
        "hand": "right"
      },
      {
        "midi": 63,
        "time": 204.464,
        "duration": 0.089,
        "velocity": 1,
        "hand": "right"
      },
      {
        "midi": 90,
        "time": 204.464,
        "duration": 0.089,
        "velocity": 1,
        "hand": "right"
      },
      {
        "midi": 61,
        "time": 204.554,
        "duration": 0.089,
        "velocity": 1,
        "hand": "right"
      },
      {
        "midi": 85,
        "time": 204.554,
        "duration": 0.089,
        "velocity": 1,
        "hand": "right"
      },
      {
        "midi": 44,
        "time": 204.643,
        "duration": 0.089,
        "velocity": 1,
        "hand": "left"
      },
      {
        "midi": 84,
        "time": 204.643,
        "duration": 0.089,
        "velocity": 1,
        "hand": "right"
      },
      {
        "midi": 87,
        "time": 204.732,
        "duration": 0.089,
        "velocity": 1,
        "hand": "right"
      },
      {
        "midi": 51,
        "time": 204.821,
        "duration": 0.089,
        "velocity": 1,
        "hand": "left"
      },
      {
        "midi": 81,
        "time": 204.821,
        "duration": 0.089,
        "velocity": 1,
        "hand": "right"
      },
      {
        "midi": 54,
        "time": 204.911,
        "duration": 0.089,
        "velocity": 1,
        "hand": "left"
      },
      {
        "midi": 80,
        "time": 204.911,
        "duration": 0.089,
        "velocity": 1,
        "hand": "right"
      },
      {
        "midi": 60,
        "time": 205,
        "duration": 0.089,
        "velocity": 1,
        "hand": "right"
      },
      {
        "midi": 78,
        "time": 205,
        "duration": 0.089,
        "velocity": 1,
        "hand": "right"
      },
      {
        "midi": 81,
        "time": 205.089,
        "duration": 0.089,
        "velocity": 1,
        "hand": "right"
      },
      {
        "midi": 54,
        "time": 205.179,
        "duration": 0.089,
        "velocity": 1,
        "hand": "left"
      },
      {
        "midi": 76,
        "time": 205.179,
        "duration": 0.089,
        "velocity": 1,
        "hand": "right"
      },
      {
        "midi": 51,
        "time": 205.268,
        "duration": 0.089,
        "velocity": 1,
        "hand": "left"
      },
      {
        "midi": 75,
        "time": 205.268,
        "duration": 0.089,
        "velocity": 1,
        "hand": "right"
      },
      {
        "midi": 44,
        "time": 205.357,
        "duration": 0.089,
        "velocity": 1,
        "hand": "left"
      },
      {
        "midi": 78,
        "time": 205.357,
        "duration": 0.089,
        "velocity": 1,
        "hand": "right"
      },
      {
        "midi": 73,
        "time": 205.446,
        "duration": 0.089,
        "velocity": 1,
        "hand": "right"
      },
      {
        "midi": 51,
        "time": 205.536,
        "duration": 0.089,
        "velocity": 1,
        "hand": "left"
      },
      {
        "midi": 72,
        "time": 205.536,
        "duration": 0.089,
        "velocity": 1,
        "hand": "right"
      },
      {
        "midi": 54,
        "time": 205.625,
        "duration": 0.089,
        "velocity": 1,
        "hand": "left"
      },
      {
        "midi": 75,
        "time": 205.625,
        "duration": 0.089,
        "velocity": 1,
        "hand": "right"
      },
      {
        "midi": 60,
        "time": 205.714,
        "duration": 0.089,
        "velocity": 1,
        "hand": "right"
      },
      {
        "midi": 69,
        "time": 205.714,
        "duration": 0.089,
        "velocity": 1,
        "hand": "right"
      },
      {
        "midi": 68,
        "time": 205.804,
        "duration": 0.089,
        "velocity": 1,
        "hand": "right"
      },
      {
        "midi": 54,
        "time": 205.893,
        "duration": 0.089,
        "velocity": 1,
        "hand": "left"
      },
      {
        "midi": 71,
        "time": 205.893,
        "duration": 0.089,
        "velocity": 1,
        "hand": "right"
      },
      {
        "midi": 51,
        "time": 205.982,
        "duration": 0.089,
        "velocity": 1,
        "hand": "left"
      },
      {
        "midi": 69,
        "time": 205.982,
        "duration": 0.179,
        "velocity": 1,
        "hand": "right"
      },
      {
        "midi": 49,
        "time": 206.071,
        "duration": 0.089,
        "velocity": 1,
        "hand": "left"
      },
      {
        "midi": 68,
        "time": 206.161,
        "duration": 0.089,
        "velocity": 1,
        "hand": "right"
      },
      {
        "midi": 56,
        "time": 206.25,
        "duration": 0.089,
        "velocity": 1,
        "hand": "left"
      },
      {
        "midi": 69,
        "time": 206.25,
        "duration": 0.089,
        "velocity": 1,
        "hand": "right"
      },
      {
        "midi": 61,
        "time": 206.339,
        "duration": 0.089,
        "velocity": 1,
        "hand": "right"
      },
      {
        "midi": 68,
        "time": 206.339,
        "duration": 0.089,
        "velocity": 1,
        "hand": "right"
      },
      {
        "midi": 64,
        "time": 206.429,
        "duration": 0.089,
        "velocity": 1,
        "hand": "right"
      },
      {
        "midi": 67,
        "time": 206.429,
        "duration": 0.089,
        "velocity": 1,
        "hand": "right"
      },
      {
        "midi": 68,
        "time": 206.518,
        "duration": 0.089,
        "velocity": 1,
        "hand": "right"
      },
      {
        "midi": 61,
        "time": 206.607,
        "duration": 0.089,
        "velocity": 1,
        "hand": "right"
      },
      {
        "midi": 73,
        "time": 206.607,
        "duration": 0.089,
        "velocity": 1,
        "hand": "right"
      },
      {
        "midi": 56,
        "time": 206.696,
        "duration": 0.089,
        "velocity": 1,
        "hand": "left"
      },
      {
        "midi": 76,
        "time": 206.696,
        "duration": 0.089,
        "velocity": 1,
        "hand": "right"
      },
      {
        "midi": 52,
        "time": 206.786,
        "duration": 0.089,
        "velocity": 1,
        "hand": "left"
      },
      {
        "midi": 75,
        "time": 206.786,
        "duration": 0.089,
        "velocity": 1,
        "hand": "right"
      },
      {
        "midi": 73,
        "time": 206.875,
        "duration": 0.089,
        "velocity": 1,
        "hand": "right"
      },
      {
        "midi": 56,
        "time": 206.964,
        "duration": 0.089,
        "velocity": 1,
        "hand": "left"
      },
      {
        "midi": 75,
        "time": 206.964,
        "duration": 0.089,
        "velocity": 1,
        "hand": "right"
      },
      {
        "midi": 61,
        "time": 207.054,
        "duration": 0.089,
        "velocity": 1,
        "hand": "right"
      },
      {
        "midi": 73,
        "time": 207.054,
        "duration": 0.089,
        "velocity": 1,
        "hand": "right"
      },
      {
        "midi": 64,
        "time": 207.143,
        "duration": 0.089,
        "velocity": 1,
        "hand": "right"
      },
      {
        "midi": 72,
        "time": 207.143,
        "duration": 0.089,
        "velocity": 1,
        "hand": "right"
      },
      {
        "midi": 73,
        "time": 207.232,
        "duration": 0.089,
        "velocity": 1,
        "hand": "right"
      },
      {
        "midi": 61,
        "time": 207.321,
        "duration": 0.089,
        "velocity": 1,
        "hand": "right"
      },
      {
        "midi": 76,
        "time": 207.321,
        "duration": 0.089,
        "velocity": 1,
        "hand": "right"
      },
      {
        "midi": 56,
        "time": 207.411,
        "duration": 0.089,
        "velocity": 1,
        "hand": "left"
      },
      {
        "midi": 80,
        "time": 207.411,
        "duration": 0.089,
        "velocity": 1,
        "hand": "right"
      },
      {
        "midi": 54,
        "time": 207.5,
        "duration": 0.089,
        "velocity": 1,
        "hand": "left"
      },
      {
        "midi": 76,
        "time": 207.5,
        "duration": 0.089,
        "velocity": 1,
        "hand": "right"
      },
      {
        "midi": 75,
        "time": 207.589,
        "duration": 0.089,
        "velocity": 1,
        "hand": "right"
      },
      {
        "midi": 61,
        "time": 207.679,
        "duration": 0.089,
        "velocity": 1,
        "hand": "right"
      },
      {
        "midi": 76,
        "time": 207.679,
        "duration": 0.089,
        "velocity": 1,
        "hand": "right"
      },
      {
        "midi": 63,
        "time": 207.768,
        "duration": 0.089,
        "velocity": 1,
        "hand": "right"
      },
      {
        "midi": 75,
        "time": 207.768,
        "duration": 0.089,
        "velocity": 1,
        "hand": "right"
      },
      {
        "midi": 69,
        "time": 207.857,
        "duration": 0.089,
        "velocity": 1,
        "hand": "right"
      },
      {
        "midi": 74,
        "time": 207.857,
        "duration": 0.089,
        "velocity": 1,
        "hand": "right"
      },
      {
        "midi": 75,
        "time": 207.946,
        "duration": 0.089,
        "velocity": 1,
        "hand": "right"
      },
      {
        "midi": 63,
        "time": 208.036,
        "duration": 0.089,
        "velocity": 1,
        "hand": "right"
      },
      {
        "midi": 78,
        "time": 208.036,
        "duration": 0.089,
        "velocity": 1,
        "hand": "right"
      },
      {
        "midi": 61,
        "time": 208.125,
        "duration": 0.089,
        "velocity": 1,
        "hand": "right"
      },
      {
        "midi": 81,
        "time": 208.125,
        "duration": 0.089,
        "velocity": 1,
        "hand": "right"
      },
      {
        "midi": 56,
        "time": 208.214,
        "duration": 0.089,
        "velocity": 1,
        "hand": "left"
      },
      {
        "midi": 78,
        "time": 208.214,
        "duration": 0.089,
        "velocity": 1,
        "hand": "right"
      },
      {
        "midi": 77,
        "time": 208.304,
        "duration": 0.089,
        "velocity": 1,
        "hand": "right"
      },
      {
        "midi": 61,
        "time": 208.393,
        "duration": 0.089,
        "velocity": 1,
        "hand": "right"
      },
      {
        "midi": 78,
        "time": 208.393,
        "duration": 0.089,
        "velocity": 1,
        "hand": "right"
      },
      {
        "midi": 65,
        "time": 208.482,
        "duration": 0.089,
        "velocity": 1,
        "hand": "right"
      },
      {
        "midi": 77,
        "time": 208.482,
        "duration": 0.089,
        "velocity": 1,
        "hand": "right"
      },
      {
        "midi": 71,
        "time": 208.571,
        "duration": 0.089,
        "velocity": 1,
        "hand": "right"
      },
      {
        "midi": 76,
        "time": 208.571,
        "duration": 0.089,
        "velocity": 1,
        "hand": "right"
      },
      {
        "midi": 77,
        "time": 208.661,
        "duration": 0.089,
        "velocity": 1,
        "hand": "right"
      },
      {
        "midi": 65,
        "time": 208.75,
        "duration": 0.089,
        "velocity": 1,
        "hand": "right"
      },
      {
        "midi": 80,
        "time": 208.75,
        "duration": 0.089,
        "velocity": 1,
        "hand": "right"
      },
      {
        "midi": 61,
        "time": 208.839,
        "duration": 0.089,
        "velocity": 1,
        "hand": "right"
      },
      {
        "midi": 85,
        "time": 208.839,
        "duration": 0.089,
        "velocity": 1,
        "hand": "right"
      },
      {
        "midi": 57,
        "time": 208.929,
        "duration": 0.089,
        "velocity": 1,
        "hand": "left"
      },
      {
        "midi": 73,
        "time": 209.018,
        "duration": 0.089,
        "velocity": 1,
        "hand": "right"
      },
      {
        "midi": 61,
        "time": 209.107,
        "duration": 0.089,
        "velocity": 1,
        "hand": "right"
      },
      {
        "midi": 74,
        "time": 209.107,
        "duration": 0.089,
        "velocity": 1,
        "hand": "right"
      },
      {
        "midi": 66,
        "time": 209.196,
        "duration": 0.089,
        "velocity": 1,
        "hand": "right"
      },
      {
        "midi": 73,
        "time": 209.196,
        "duration": 0.089,
        "velocity": 1,
        "hand": "right"
      },
      {
        "midi": 69,
        "time": 209.286,
        "duration": 0.089,
        "velocity": 1,
        "hand": "right"
      },
      {
        "midi": 72,
        "time": 209.286,
        "duration": 0.089,
        "velocity": 1,
        "hand": "right"
      },
      {
        "midi": 73,
        "time": 209.375,
        "duration": 0.089,
        "velocity": 1,
        "hand": "right"
      },
      {
        "midi": 66,
        "time": 209.464,
        "duration": 0.089,
        "velocity": 1,
        "hand": "right"
      },
      {
        "midi": 78,
        "time": 209.464,
        "duration": 0.089,
        "velocity": 1,
        "hand": "right"
      },
      {
        "midi": 61,
        "time": 209.554,
        "duration": 0.089,
        "velocity": 1,
        "hand": "right"
      },
      {
        "midi": 81,
        "time": 209.554,
        "duration": 0.089,
        "velocity": 1,
        "hand": "right"
      },
      {
        "midi": 56,
        "time": 209.643,
        "duration": 0.089,
        "velocity": 1,
        "hand": "left"
      },
      {
        "midi": 78,
        "time": 209.643,
        "duration": 0.089,
        "velocity": 1,
        "hand": "right"
      },
      {
        "midi": 77,
        "time": 209.732,
        "duration": 0.089,
        "velocity": 1,
        "hand": "right"
      },
      {
        "midi": 61,
        "time": 209.821,
        "duration": 0.089,
        "velocity": 1,
        "hand": "right"
      },
      {
        "midi": 78,
        "time": 209.821,
        "duration": 0.089,
        "velocity": 1,
        "hand": "right"
      },
      {
        "midi": 65,
        "time": 209.911,
        "duration": 0.089,
        "velocity": 1,
        "hand": "right"
      },
      {
        "midi": 77,
        "time": 209.911,
        "duration": 0.089,
        "velocity": 1,
        "hand": "right"
      },
      {
        "midi": 71,
        "time": 210,
        "duration": 0.089,
        "velocity": 1,
        "hand": "right"
      },
      {
        "midi": 76,
        "time": 210,
        "duration": 0.089,
        "velocity": 1,
        "hand": "right"
      },
      {
        "midi": 77,
        "time": 210.089,
        "duration": 0.089,
        "velocity": 1,
        "hand": "right"
      },
      {
        "midi": 65,
        "time": 210.179,
        "duration": 0.089,
        "velocity": 1,
        "hand": "right"
      },
      {
        "midi": 80,
        "time": 210.179,
        "duration": 0.089,
        "velocity": 1,
        "hand": "right"
      },
      {
        "midi": 61,
        "time": 210.268,
        "duration": 0.089,
        "velocity": 1,
        "hand": "right"
      },
      {
        "midi": 85,
        "time": 210.268,
        "duration": 0.089,
        "velocity": 1,
        "hand": "right"
      },
      {
        "midi": 57,
        "time": 210.357,
        "duration": 0.089,
        "velocity": 1,
        "hand": "left"
      },
      {
        "midi": 80,
        "time": 210.357,
        "duration": 0.089,
        "velocity": 1,
        "hand": "right"
      },
      {
        "midi": 78,
        "time": 210.446,
        "duration": 0.089,
        "velocity": 1,
        "hand": "right"
      },
      {
        "midi": 61,
        "time": 210.536,
        "duration": 0.089,
        "velocity": 1,
        "hand": "right"
      },
      {
        "midi": 80,
        "time": 210.536,
        "duration": 0.089,
        "velocity": 1,
        "hand": "right"
      },
      {
        "midi": 66,
        "time": 210.625,
        "duration": 0.089,
        "velocity": 1,
        "hand": "right"
      },
      {
        "midi": 78,
        "time": 210.625,
        "duration": 0.089,
        "velocity": 1,
        "hand": "right"
      },
      {
        "midi": 69,
        "time": 210.714,
        "duration": 0.089,
        "velocity": 1,
        "hand": "right"
      },
      {
        "midi": 77,
        "time": 210.714,
        "duration": 0.089,
        "velocity": 1,
        "hand": "right"
      },
      {
        "midi": 78,
        "time": 210.804,
        "duration": 0.089,
        "velocity": 1,
        "hand": "right"
      },
      {
        "midi": 66,
        "time": 210.893,
        "duration": 0.089,
        "velocity": 1,
        "hand": "right"
      },
      {
        "midi": 81,
        "time": 210.893,
        "duration": 0.089,
        "velocity": 1,
        "hand": "right"
      },
      {
        "midi": 61,
        "time": 210.982,
        "duration": 0.089,
        "velocity": 1,
        "hand": "right"
      },
      {
        "midi": 85,
        "time": 210.982,
        "duration": 0.089,
        "velocity": 1,
        "hand": "right"
      },
      {
        "midi": 48,
        "time": 211.071,
        "duration": 0.089,
        "velocity": 1,
        "hand": "left"
      },
      {
        "midi": 81,
        "time": 211.071,
        "duration": 0.089,
        "velocity": 1,
        "hand": "right"
      },
      {
        "midi": 80,
        "time": 211.161,
        "duration": 0.089,
        "velocity": 1,
        "hand": "right"
      },
      {
        "midi": 54,
        "time": 211.25,
        "duration": 0.089,
        "velocity": 1,
        "hand": "left"
      },
      {
        "midi": 81,
        "time": 211.25,
        "duration": 0.089,
        "velocity": 1,
        "hand": "right"
      },
      {
        "midi": 56,
        "time": 211.339,
        "duration": 0.089,
        "velocity": 1,
        "hand": "left"
      },
      {
        "midi": 80,
        "time": 211.339,
        "duration": 0.089,
        "velocity": 1,
        "hand": "right"
      },
      {
        "midi": 63,
        "time": 211.429,
        "duration": 0.089,
        "velocity": 1,
        "hand": "right"
      },
      {
        "midi": 79,
        "time": 211.429,
        "duration": 0.089,
        "velocity": 1,
        "hand": "right"
      },
      {
        "midi": 80,
        "time": 211.518,
        "duration": 0.089,
        "velocity": 1,
        "hand": "right"
      },
      {
        "midi": 56,
        "time": 211.607,
        "duration": 0.089,
        "velocity": 1,
        "hand": "left"
      },
      {
        "midi": 84,
        "time": 211.607,
        "duration": 0.089,
        "velocity": 1,
        "hand": "right"
      },
      {
        "midi": 54,
        "time": 211.696,
        "duration": 0.089,
        "velocity": 1,
        "hand": "left"
      },
      {
        "midi": 87,
        "time": 211.696,
        "duration": 0.089,
        "velocity": 1,
        "hand": "right"
      },
      {
        "midi": 49,
        "time": 211.786,
        "duration": 0.089,
        "velocity": 1,
        "hand": "left"
      },
      {
        "midi": 80,
        "time": 211.786,
        "duration": 0.089,
        "velocity": 1,
        "hand": "right"
      },
      {
        "midi": 81,
        "time": 211.875,
        "duration": 0.089,
        "velocity": 1,
        "hand": "right"
      },
      {
        "midi": 56,
        "time": 211.964,
        "duration": 0.089,
        "velocity": 1,
        "hand": "left"
      },
      {
        "midi": 80,
        "time": 211.964,
        "duration": 0.089,
        "velocity": 1,
        "hand": "right"
      },
      {
        "midi": 61,
        "time": 212.054,
        "duration": 0.089,
        "velocity": 1,
        "hand": "right"
      },
      {
        "midi": 79,
        "time": 212.054,
        "duration": 0.089,
        "velocity": 1,
        "hand": "right"
      },
      {
        "midi": 64,
        "time": 212.143,
        "duration": 0.089,
        "velocity": 1,
        "hand": "right"
      },
      {
        "midi": 80,
        "time": 212.143,
        "duration": 0.089,
        "velocity": 1,
        "hand": "right"
      },
      {
        "midi": 88,
        "time": 212.232,
        "duration": 0.089,
        "velocity": 1,
        "hand": "right"
      },
      {
        "midi": 61,
        "time": 212.321,
        "duration": 0.089,
        "velocity": 1,
        "hand": "right"
      },
      {
        "midi": 87,
        "time": 212.321,
        "duration": 0.089,
        "velocity": 1,
        "hand": "right"
      },
      {
        "midi": 56,
        "time": 212.411,
        "duration": 0.089,
        "velocity": 1,
        "hand": "left"
      },
      {
        "midi": 86,
        "time": 212.411,
        "duration": 0.089,
        "velocity": 1,
        "hand": "right"
      },
      {
        "midi": 51,
        "time": 212.5,
        "duration": 0.089,
        "velocity": 1,
        "hand": "left"
      },
      {
        "midi": 85,
        "time": 212.5,
        "duration": 0.089,
        "velocity": 1,
        "hand": "right"
      },
      {
        "midi": 84,
        "time": 212.589,
        "duration": 0.089,
        "velocity": 1,
        "hand": "right"
      },
      {
        "midi": 56,
        "time": 212.679,
        "duration": 0.089,
        "velocity": 1,
        "hand": "left"
      },
      {
        "midi": 83,
        "time": 212.679,
        "duration": 0.089,
        "velocity": 1,
        "hand": "right"
      },
      {
        "midi": 60,
        "time": 212.768,
        "duration": 0.089,
        "velocity": 1,
        "hand": "right"
      },
      {
        "midi": 82,
        "time": 212.768,
        "duration": 0.089,
        "velocity": 1,
        "hand": "right"
      },
      {
        "midi": 66,
        "time": 212.857,
        "duration": 0.089,
        "velocity": 1,
        "hand": "right"
      },
      {
        "midi": 81,
        "time": 212.857,
        "duration": 0.089,
        "velocity": 1,
        "hand": "right"
      },
      {
        "midi": 80,
        "time": 212.946,
        "duration": 0.089,
        "velocity": 1,
        "hand": "right"
      },
      {
        "midi": 60,
        "time": 213.036,
        "duration": 0.089,
        "velocity": 1,
        "hand": "right"
      },
      {
        "midi": 79,
        "time": 213.036,
        "duration": 0.089,
        "velocity": 1,
        "hand": "right"
      },
      {
        "midi": 56,
        "time": 213.125,
        "duration": 0.089,
        "velocity": 1,
        "hand": "left"
      },
      {
        "midi": 78,
        "time": 213.125,
        "duration": 0.089,
        "velocity": 1,
        "hand": "right"
      },
      {
        "midi": 49,
        "time": 213.214,
        "duration": 0.089,
        "velocity": 1,
        "hand": "left"
      },
      {
        "midi": 76,
        "time": 213.214,
        "duration": 0.089,
        "velocity": 1,
        "hand": "right"
      },
      {
        "midi": 78,
        "time": 213.304,
        "duration": 0.089,
        "velocity": 1,
        "hand": "right"
      },
      {
        "midi": 56,
        "time": 213.393,
        "duration": 0.089,
        "velocity": 1,
        "hand": "left"
      },
      {
        "midi": 76,
        "time": 213.393,
        "duration": 0.089,
        "velocity": 1,
        "hand": "right"
      },
      {
        "midi": 61,
        "time": 213.482,
        "duration": 0.089,
        "velocity": 1,
        "hand": "right"
      },
      {
        "midi": 75,
        "time": 213.482,
        "duration": 0.089,
        "velocity": 1,
        "hand": "right"
      },
      {
        "midi": 64,
        "time": 213.571,
        "duration": 0.089,
        "velocity": 1,
        "hand": "right"
      },
      {
        "midi": 76,
        "time": 213.571,
        "duration": 0.089,
        "velocity": 1,
        "hand": "right"
      },
      {
        "midi": 88,
        "time": 213.661,
        "duration": 0.089,
        "velocity": 1,
        "hand": "right"
      },
      {
        "midi": 61,
        "time": 213.75,
        "duration": 0.089,
        "velocity": 1,
        "hand": "right"
      },
      {
        "midi": 87,
        "time": 213.75,
        "duration": 0.089,
        "velocity": 1,
        "hand": "right"
      },
      {
        "midi": 56,
        "time": 213.839,
        "duration": 0.089,
        "velocity": 1,
        "hand": "left"
      },
      {
        "midi": 86,
        "time": 213.839,
        "duration": 0.089,
        "velocity": 1,
        "hand": "right"
      },
      {
        "midi": 54,
        "time": 213.929,
        "duration": 0.089,
        "velocity": 1,
        "hand": "left"
      },
      {
        "midi": 85,
        "time": 213.929,
        "duration": 0.089,
        "velocity": 1,
        "hand": "right"
      },
      {
        "midi": 84,
        "time": 214.018,
        "duration": 0.089,
        "velocity": 1,
        "hand": "right"
      },
      {
        "midi": 61,
        "time": 214.107,
        "duration": 0.089,
        "velocity": 1,
        "hand": "right"
      },
      {
        "midi": 83,
        "time": 214.107,
        "duration": 0.089,
        "velocity": 1,
        "hand": "right"
      },
      {
        "midi": 63,
        "time": 214.196,
        "duration": 0.089,
        "velocity": 1,
        "hand": "right"
      },
      {
        "midi": 82,
        "time": 214.196,
        "duration": 0.089,
        "velocity": 1,
        "hand": "right"
      },
      {
        "midi": 69,
        "time": 214.286,
        "duration": 0.089,
        "velocity": 1,
        "hand": "right"
      },
      {
        "midi": 81,
        "time": 214.286,
        "duration": 0.089,
        "velocity": 1,
        "hand": "right"
      },
      {
        "midi": 80,
        "time": 214.375,
        "duration": 0.089,
        "velocity": 1,
        "hand": "right"
      },
      {
        "midi": 63,
        "time": 214.464,
        "duration": 0.089,
        "velocity": 1,
        "hand": "right"
      },
      {
        "midi": 79,
        "time": 214.464,
        "duration": 0.089,
        "velocity": 1,
        "hand": "right"
      },
      {
        "midi": 61,
        "time": 214.554,
        "duration": 0.089,
        "velocity": 1,
        "hand": "right"
      },
      {
        "midi": 78,
        "time": 214.554,
        "duration": 0.089,
        "velocity": 1,
        "hand": "right"
      },
      {
        "midi": 56,
        "time": 214.643,
        "duration": 0.179,
        "velocity": 1,
        "hand": "left"
      },
      {
        "midi": 61,
        "time": 214.643,
        "duration": 0.179,
        "velocity": 1,
        "hand": "right"
      },
      {
        "midi": 64,
        "time": 214.643,
        "duration": 0.179,
        "velocity": 1,
        "hand": "right"
      },
      {
        "midi": 68,
        "time": 214.643,
        "duration": 0.179,
        "velocity": 1,
        "hand": "right"
      },
      {
        "midi": 80,
        "time": 214.643,
        "duration": 0.089,
        "velocity": 1,
        "hand": "right"
      },
      {
        "midi": 92,
        "time": 214.821,
        "duration": 0.089,
        "velocity": 1,
        "hand": "right"
      },
      {
        "midi": 91,
        "time": 214.911,
        "duration": 0.089,
        "velocity": 1,
        "hand": "right"
      },
      {
        "midi": 90,
        "time": 215,
        "duration": 0.089,
        "velocity": 1,
        "hand": "right"
      },
      {
        "midi": 89,
        "time": 215.089,
        "duration": 0.089,
        "velocity": 1,
        "hand": "right"
      },
      {
        "midi": 88,
        "time": 215.179,
        "duration": 0.089,
        "velocity": 1,
        "hand": "right"
      },
      {
        "midi": 87,
        "time": 215.268,
        "duration": 0.089,
        "velocity": 1,
        "hand": "right"
      },
      {
        "midi": 55,
        "time": 215.357,
        "duration": 0.357,
        "velocity": 1,
        "hand": "left"
      },
      {
        "midi": 61,
        "time": 215.357,
        "duration": 0.357,
        "velocity": 1,
        "hand": "right"
      },
      {
        "midi": 64,
        "time": 215.357,
        "duration": 0.357,
        "velocity": 1,
        "hand": "right"
      },
      {
        "midi": 69,
        "time": 215.357,
        "duration": 0.357,
        "velocity": 1,
        "hand": "right"
      },
      {
        "midi": 86,
        "time": 215.357,
        "duration": 0.089,
        "velocity": 1,
        "hand": "right"
      },
      {
        "midi": 85,
        "time": 215.446,
        "duration": 0.089,
        "velocity": 1,
        "hand": "right"
      },
      {
        "midi": 84,
        "time": 215.536,
        "duration": 0.089,
        "velocity": 1,
        "hand": "right"
      },
      {
        "midi": 83,
        "time": 215.625,
        "duration": 0.089,
        "velocity": 1,
        "hand": "right"
      },
      {
        "midi": 82,
        "time": 215.714,
        "duration": 0.089,
        "velocity": 1,
        "hand": "right"
      },
      {
        "midi": 81,
        "time": 215.804,
        "duration": 0.089,
        "velocity": 1,
        "hand": "right"
      },
      {
        "midi": 80,
        "time": 215.893,
        "duration": 0.089,
        "velocity": 1,
        "hand": "right"
      },
      {
        "midi": 79,
        "time": 215.982,
        "duration": 0.089,
        "velocity": 1,
        "hand": "right"
      },
      {
        "midi": 78,
        "time": 216.071,
        "duration": 0.089,
        "velocity": 1,
        "hand": "right"
      },
      {
        "midi": 77,
        "time": 216.161,
        "duration": 0.089,
        "velocity": 1,
        "hand": "right"
      },
      {
        "midi": 76,
        "time": 216.25,
        "duration": 0.089,
        "velocity": 1,
        "hand": "right"
      },
      {
        "midi": 75,
        "time": 216.339,
        "duration": 0.089,
        "velocity": 1,
        "hand": "right"
      },
      {
        "midi": 74,
        "time": 216.429,
        "duration": 0.089,
        "velocity": 1,
        "hand": "right"
      },
      {
        "midi": 73,
        "time": 216.518,
        "duration": 0.089,
        "velocity": 1,
        "hand": "right"
      },
      {
        "midi": 72,
        "time": 216.607,
        "duration": 0.089,
        "velocity": 1,
        "hand": "right"
      },
      {
        "midi": 71,
        "time": 216.696,
        "duration": 0.089,
        "velocity": 1,
        "hand": "right"
      },
      {
        "midi": 70,
        "time": 216.786,
        "duration": 0.089,
        "velocity": 1,
        "hand": "right"
      },
      {
        "midi": 69,
        "time": 216.875,
        "duration": 0.089,
        "velocity": 1,
        "hand": "right"
      },
      {
        "midi": 68,
        "time": 216.964,
        "duration": 0.089,
        "velocity": 1,
        "hand": "right"
      },
      {
        "midi": 67,
        "time": 217.054,
        "duration": 0.089,
        "velocity": 1,
        "hand": "right"
      },
      {
        "midi": 66,
        "time": 217.143,
        "duration": 0.089,
        "velocity": 1,
        "hand": "right"
      },
      {
        "midi": 64,
        "time": 217.232,
        "duration": 0.089,
        "velocity": 1,
        "hand": "right"
      },
      {
        "midi": 63,
        "time": 217.321,
        "duration": 0.089,
        "velocity": 1,
        "hand": "right"
      },
      {
        "midi": 61,
        "time": 217.411,
        "duration": 0.089,
        "velocity": 1,
        "hand": "right"
      },
      {
        "midi": 32,
        "time": 217.5,
        "duration": 0.179,
        "velocity": 1,
        "hand": "left"
      },
      {
        "midi": 44,
        "time": 217.5,
        "duration": 0.179,
        "velocity": 1,
        "hand": "left"
      },
      {
        "midi": 56,
        "time": 217.5,
        "duration": 0.179,
        "velocity": 1,
        "hand": "left"
      },
      {
        "midi": 64,
        "time": 217.857,
        "duration": 0.357,
        "velocity": 1,
        "hand": "right"
      },
      {
        "midi": 76,
        "time": 217.857,
        "duration": 0.357,
        "velocity": 1,
        "hand": "right"
      },
      {
        "midi": 93,
        "time": 217.857,
        "duration": 0.089,
        "velocity": 1,
        "hand": "right"
      },
      {
        "midi": 92,
        "time": 217.946,
        "duration": 0.089,
        "velocity": 1,
        "hand": "right"
      },
      {
        "midi": 100,
        "time": 218.036,
        "duration": 0.089,
        "velocity": 1,
        "hand": "right"
      },
      {
        "midi": 88,
        "time": 218.125,
        "duration": 0.089,
        "velocity": 1,
        "hand": "right"
      },
      {
        "midi": 61,
        "time": 218.214,
        "duration": 0.357,
        "velocity": 1,
        "hand": "right"
      },
      {
        "midi": 73,
        "time": 218.214,
        "duration": 0.357,
        "velocity": 1,
        "hand": "right"
      },
      {
        "midi": 90,
        "time": 218.214,
        "duration": 0.089,
        "velocity": 1,
        "hand": "right"
      },
      {
        "midi": 88,
        "time": 218.304,
        "duration": 0.089,
        "velocity": 1,
        "hand": "right"
      },
      {
        "midi": 97,
        "time": 218.393,
        "duration": 0.089,
        "velocity": 1,
        "hand": "right"
      },
      {
        "midi": 85,
        "time": 218.482,
        "duration": 0.089,
        "velocity": 1,
        "hand": "right"
      },
      {
        "midi": 56,
        "time": 218.571,
        "duration": 0.357,
        "velocity": 1,
        "hand": "left"
      },
      {
        "midi": 68,
        "time": 218.571,
        "duration": 0.357,
        "velocity": 1,
        "hand": "right"
      },
      {
        "midi": 87,
        "time": 218.571,
        "duration": 0.089,
        "velocity": 1,
        "hand": "right"
      },
      {
        "midi": 85,
        "time": 218.661,
        "duration": 0.089,
        "velocity": 1,
        "hand": "right"
      },
      {
        "midi": 92,
        "time": 218.75,
        "duration": 0.089,
        "velocity": 1,
        "hand": "right"
      },
      {
        "midi": 80,
        "time": 218.839,
        "duration": 0.089,
        "velocity": 1,
        "hand": "right"
      },
      {
        "midi": 52,
        "time": 218.929,
        "duration": 0.357,
        "velocity": 1,
        "hand": "left"
      },
      {
        "midi": 64,
        "time": 218.929,
        "duration": 0.357,
        "velocity": 1,
        "hand": "right"
      },
      {
        "midi": 81,
        "time": 218.929,
        "duration": 0.089,
        "velocity": 1,
        "hand": "right"
      },
      {
        "midi": 80,
        "time": 219.018,
        "duration": 0.089,
        "velocity": 1,
        "hand": "right"
      },
      {
        "midi": 88,
        "time": 219.107,
        "duration": 0.089,
        "velocity": 1,
        "hand": "right"
      },
      {
        "midi": 76,
        "time": 219.196,
        "duration": 0.089,
        "velocity": 1,
        "hand": "right"
      },
      {
        "midi": 49,
        "time": 219.286,
        "duration": 0.357,
        "velocity": 1,
        "hand": "left"
      },
      {
        "midi": 61,
        "time": 219.286,
        "duration": 0.357,
        "velocity": 1,
        "hand": "right"
      },
      {
        "midi": 78,
        "time": 219.286,
        "duration": 0.089,
        "velocity": 1,
        "hand": "right"
      },
      {
        "midi": 76,
        "time": 219.375,
        "duration": 0.089,
        "velocity": 1,
        "hand": "right"
      },
      {
        "midi": 85,
        "time": 219.464,
        "duration": 0.089,
        "velocity": 1,
        "hand": "right"
      },
      {
        "midi": 73,
        "time": 219.554,
        "duration": 0.089,
        "velocity": 1,
        "hand": "right"
      },
      {
        "midi": 44,
        "time": 219.643,
        "duration": 0.357,
        "velocity": 1,
        "hand": "left"
      },
      {
        "midi": 56,
        "time": 219.643,
        "duration": 0.357,
        "velocity": 1,
        "hand": "left"
      },
      {
        "midi": 75,
        "time": 219.643,
        "duration": 0.089,
        "velocity": 1,
        "hand": "right"
      },
      {
        "midi": 73,
        "time": 219.732,
        "duration": 0.089,
        "velocity": 1,
        "hand": "right"
      },
      {
        "midi": 80,
        "time": 219.821,
        "duration": 0.089,
        "velocity": 1,
        "hand": "right"
      },
      {
        "midi": 68,
        "time": 219.911,
        "duration": 0.089,
        "velocity": 1,
        "hand": "right"
      },
      {
        "midi": 40,
        "time": 220,
        "duration": 0.357,
        "velocity": 1,
        "hand": "left"
      },
      {
        "midi": 52,
        "time": 220,
        "duration": 0.357,
        "velocity": 1,
        "hand": "left"
      },
      {
        "midi": 69,
        "time": 220,
        "duration": 0.089,
        "velocity": 1,
        "hand": "right"
      },
      {
        "midi": 68,
        "time": 220.089,
        "duration": 0.089,
        "velocity": 1,
        "hand": "right"
      },
      {
        "midi": 76,
        "time": 220.179,
        "duration": 0.089,
        "velocity": 1,
        "hand": "right"
      },
      {
        "midi": 64,
        "time": 220.268,
        "duration": 0.089,
        "velocity": 1,
        "hand": "right"
      },
      {
        "midi": 37,
        "time": 220.357,
        "duration": 0.357,
        "velocity": 1,
        "hand": "left"
      },
      {
        "midi": 49,
        "time": 220.357,
        "duration": 0.357,
        "velocity": 1,
        "hand": "left"
      },
      {
        "midi": 66,
        "time": 220.357,
        "duration": 0.089,
        "velocity": 1,
        "hand": "right"
      },
      {
        "midi": 64,
        "time": 220.446,
        "duration": 0.089,
        "velocity": 1,
        "hand": "right"
      },
      {
        "midi": 73,
        "time": 220.536,
        "duration": 0.089,
        "velocity": 1,
        "hand": "right"
      },
      {
        "midi": 61,
        "time": 220.625,
        "duration": 0.089,
        "velocity": 1,
        "hand": "right"
      },
      {
        "midi": 32,
        "time": 220.714,
        "duration": 0.357,
        "velocity": 1,
        "hand": "left"
      },
      {
        "midi": 44,
        "time": 220.714,
        "duration": 0.357,
        "velocity": 1,
        "hand": "left"
      },
      {
        "midi": 63,
        "time": 220.714,
        "duration": 0.089,
        "velocity": 1,
        "hand": "right"
      },
      {
        "midi": 61,
        "time": 220.804,
        "duration": 0.089,
        "velocity": 1,
        "hand": "right"
      },
      {
        "midi": 68,
        "time": 220.893,
        "duration": 0.089,
        "velocity": 1,
        "hand": "right"
      },
      {
        "midi": 56,
        "time": 220.982,
        "duration": 0.089,
        "velocity": 1,
        "hand": "left"
      },
      {
        "midi": 32,
        "time": 221.071,
        "duration": 0.357,
        "velocity": 1,
        "hand": "left"
      },
      {
        "midi": 44,
        "time": 221.071,
        "duration": 0.357,
        "velocity": 1,
        "hand": "left"
      },
      {
        "midi": 63,
        "time": 221.071,
        "duration": 0.089,
        "velocity": 1,
        "hand": "right"
      },
      {
        "midi": 61,
        "time": 221.161,
        "duration": 0.089,
        "velocity": 1,
        "hand": "right"
      },
      {
        "midi": 68,
        "time": 221.25,
        "duration": 0.089,
        "velocity": 1,
        "hand": "right"
      },
      {
        "midi": 56,
        "time": 221.339,
        "duration": 0.089,
        "velocity": 1,
        "hand": "left"
      },
      {
        "midi": 33,
        "time": 221.429,
        "duration": 0.357,
        "velocity": 1,
        "hand": "left"
      },
      {
        "midi": 45,
        "time": 221.429,
        "duration": 0.357,
        "velocity": 1,
        "hand": "left"
      },
      {
        "midi": 63,
        "time": 221.429,
        "duration": 0.089,
        "velocity": 1,
        "hand": "right"
      },
      {
        "midi": 61,
        "time": 221.518,
        "duration": 0.089,
        "velocity": 1,
        "hand": "right"
      },
      {
        "midi": 69,
        "time": 221.607,
        "duration": 0.089,
        "velocity": 1,
        "hand": "right"
      },
      {
        "midi": 57,
        "time": 221.696,
        "duration": 0.089,
        "velocity": 1,
        "hand": "left"
      },
      {
        "midi": 32,
        "time": 221.786,
        "duration": 0.357,
        "velocity": 1,
        "hand": "left"
      },
      {
        "midi": 44,
        "time": 221.786,
        "duration": 0.357,
        "velocity": 1,
        "hand": "left"
      },
      {
        "midi": 63,
        "time": 221.786,
        "duration": 0.089,
        "velocity": 1,
        "hand": "right"
      },
      {
        "midi": 61,
        "time": 221.875,
        "duration": 0.089,
        "velocity": 1,
        "hand": "right"
      },
      {
        "midi": 68,
        "time": 221.964,
        "duration": 0.089,
        "velocity": 1,
        "hand": "right"
      },
      {
        "midi": 56,
        "time": 222.054,
        "duration": 0.089,
        "velocity": 1,
        "hand": "left"
      },
      {
        "midi": 31,
        "time": 222.143,
        "duration": 0.357,
        "velocity": 1,
        "hand": "left"
      },
      {
        "midi": 43,
        "time": 222.143,
        "duration": 0.357,
        "velocity": 1,
        "hand": "left"
      },
      {
        "midi": 63,
        "time": 222.143,
        "duration": 0.089,
        "velocity": 1,
        "hand": "right"
      },
      {
        "midi": 61,
        "time": 222.232,
        "duration": 0.089,
        "velocity": 1,
        "hand": "right"
      },
      {
        "midi": 67,
        "time": 222.321,
        "duration": 0.089,
        "velocity": 1,
        "hand": "right"
      },
      {
        "midi": 55,
        "time": 222.411,
        "duration": 0.089,
        "velocity": 1,
        "hand": "left"
      },
      {
        "midi": 32,
        "time": 222.5,
        "duration": 0.714,
        "velocity": 1,
        "hand": "left"
      },
      {
        "midi": 44,
        "time": 222.5,
        "duration": 0.714,
        "velocity": 1,
        "hand": "left"
      },
      {
        "midi": 63,
        "time": 222.5,
        "duration": 0.089,
        "velocity": 1,
        "hand": "right"
      },
      {
        "midi": 61,
        "time": 222.589,
        "duration": 0.089,
        "velocity": 1,
        "hand": "right"
      },
      {
        "midi": 68,
        "time": 222.679,
        "duration": 0.089,
        "velocity": 1,
        "hand": "right"
      },
      {
        "midi": 56,
        "time": 222.768,
        "duration": 0.089,
        "velocity": 1,
        "hand": "left"
      },
      {
        "midi": 63,
        "time": 222.857,
        "duration": 0.089,
        "velocity": 1,
        "hand": "right"
      },
      {
        "midi": 60,
        "time": 222.946,
        "duration": 0.089,
        "velocity": 1,
        "hand": "right"
      },
      {
        "midi": 68,
        "time": 223.036,
        "duration": 0.089,
        "velocity": 1,
        "hand": "right"
      },
      {
        "midi": 56,
        "time": 223.125,
        "duration": 0.089,
        "velocity": 1,
        "hand": "left"
      },
      {
        "midi": 37,
        "time": 223.214,
        "duration": 0.179,
        "velocity": 1,
        "hand": "left"
      },
      {
        "midi": 63,
        "time": 223.214,
        "duration": 0.089,
        "velocity": 1,
        "hand": "right"
      },
      {
        "midi": 61,
        "time": 223.304,
        "duration": 0.089,
        "velocity": 1,
        "hand": "right"
      },
      {
        "midi": 52,
        "time": 223.393,
        "duration": 0.179,
        "velocity": 1,
        "hand": "left"
      },
      {
        "midi": 68,
        "time": 223.393,
        "duration": 0.089,
        "velocity": 1,
        "hand": "right"
      },
      {
        "midi": 56,
        "time": 223.482,
        "duration": 0.089,
        "velocity": 1,
        "hand": "left"
      },
      {
        "midi": 49,
        "time": 223.571,
        "duration": 0.179,
        "velocity": 1,
        "hand": "left"
      },
      {
        "midi": 69,
        "time": 223.571,
        "duration": 0.089,
        "velocity": 1,
        "hand": "right"
      },
      {
        "midi": 68,
        "time": 223.661,
        "duration": 0.089,
        "velocity": 1,
        "hand": "right"
      },
      {
        "midi": 44,
        "time": 223.75,
        "duration": 0.179,
        "velocity": 1,
        "hand": "left"
      },
      {
        "midi": 76,
        "time": 223.75,
        "duration": 0.089,
        "velocity": 1,
        "hand": "right"
      },
      {
        "midi": 64,
        "time": 223.839,
        "duration": 0.089,
        "velocity": 1,
        "hand": "right"
      },
      {
        "midi": 37,
        "time": 223.929,
        "duration": 0.179,
        "velocity": 1,
        "hand": "left"
      },
      {
        "midi": 69,
        "time": 223.929,
        "duration": 0.089,
        "velocity": 1,
        "hand": "right"
      },
      {
        "midi": 68,
        "time": 224.018,
        "duration": 0.089,
        "velocity": 1,
        "hand": "right"
      },
      {
        "midi": 54,
        "time": 224.107,
        "duration": 0.179,
        "velocity": 1,
        "hand": "left"
      },
      {
        "midi": 76,
        "time": 224.107,
        "duration": 0.089,
        "velocity": 1,
        "hand": "right"
      },
      {
        "midi": 64,
        "time": 224.196,
        "duration": 0.089,
        "velocity": 1,
        "hand": "right"
      },
      {
        "midi": 48,
        "time": 224.286,
        "duration": 0.179,
        "velocity": 1,
        "hand": "left"
      },
      {
        "midi": 69,
        "time": 224.286,
        "duration": 0.089,
        "velocity": 1,
        "hand": "right"
      },
      {
        "midi": 68,
        "time": 224.375,
        "duration": 0.089,
        "velocity": 1,
        "hand": "right"
      },
      {
        "midi": 44,
        "time": 224.464,
        "duration": 0.179,
        "velocity": 1,
        "hand": "left"
      },
      {
        "midi": 75,
        "time": 224.464,
        "duration": 0.089,
        "velocity": 1,
        "hand": "right"
      },
      {
        "midi": 63,
        "time": 224.554,
        "duration": 0.089,
        "velocity": 1,
        "hand": "right"
      },
      {
        "midi": 37,
        "time": 224.643,
        "duration": 0.179,
        "velocity": 1,
        "hand": "left"
      },
      {
        "midi": 69,
        "time": 224.643,
        "duration": 0.089,
        "velocity": 1,
        "hand": "right"
      },
      {
        "midi": 68,
        "time": 224.732,
        "duration": 0.089,
        "velocity": 1,
        "hand": "right"
      },
      {
        "midi": 52,
        "time": 224.821,
        "duration": 0.179,
        "velocity": 1,
        "hand": "left"
      },
      {
        "midi": 75,
        "time": 224.821,
        "duration": 0.089,
        "velocity": 1,
        "hand": "right"
      },
      {
        "midi": 63,
        "time": 224.911,
        "duration": 0.089,
        "velocity": 1,
        "hand": "right"
      },
      {
        "midi": 49,
        "time": 225,
        "duration": 0.179,
        "velocity": 1,
        "hand": "left"
      },
      {
        "midi": 69,
        "time": 225,
        "duration": 0.089,
        "velocity": 1,
        "hand": "right"
      },
      {
        "midi": 68,
        "time": 225.089,
        "duration": 0.089,
        "velocity": 1,
        "hand": "right"
      },
      {
        "midi": 44,
        "time": 225.179,
        "duration": 0.179,
        "velocity": 1,
        "hand": "left"
      },
      {
        "midi": 73,
        "time": 225.179,
        "duration": 0.089,
        "velocity": 1,
        "hand": "right"
      },
      {
        "midi": 61,
        "time": 225.268,
        "duration": 0.089,
        "velocity": 1,
        "hand": "right"
      },
      {
        "midi": 37,
        "time": 225.357,
        "duration": 0.179,
        "velocity": 1,
        "hand": "left"
      },
      {
        "midi": 64,
        "time": 225.357,
        "duration": 0.089,
        "velocity": 1,
        "hand": "right"
      },
      {
        "midi": 63,
        "time": 225.446,
        "duration": 0.089,
        "velocity": 1,
        "hand": "right"
      },
      {
        "midi": 54,
        "time": 225.536,
        "duration": 0.179,
        "velocity": 1,
        "hand": "left"
      },
      {
        "midi": 68,
        "time": 225.536,
        "duration": 0.089,
        "velocity": 1,
        "hand": "right"
      },
      {
        "midi": 56,
        "time": 225.625,
        "duration": 0.089,
        "velocity": 1,
        "hand": "left"
      },
      {
        "midi": 48,
        "time": 225.714,
        "duration": 0.179,
        "velocity": 1,
        "hand": "left"
      },
      {
        "midi": 64,
        "time": 225.714,
        "duration": 0.089,
        "velocity": 1,
        "hand": "right"
      },
      {
        "midi": 63,
        "time": 225.804,
        "duration": 0.089,
        "velocity": 1,
        "hand": "right"
      },
      {
        "midi": 44,
        "time": 225.893,
        "duration": 0.179,
        "velocity": 1,
        "hand": "left"
      },
      {
        "midi": 68,
        "time": 225.893,
        "duration": 0.089,
        "velocity": 1,
        "hand": "right"
      },
      {
        "midi": 56,
        "time": 225.982,
        "duration": 0.089,
        "velocity": 1,
        "hand": "left"
      },
      {
        "midi": 37,
        "time": 226.071,
        "duration": 0.179,
        "velocity": 1,
        "hand": "left"
      },
      {
        "midi": 63,
        "time": 226.071,
        "duration": 0.089,
        "velocity": 1,
        "hand": "right"
      },
      {
        "midi": 61,
        "time": 226.161,
        "duration": 0.089,
        "velocity": 1,
        "hand": "right"
      },
      {
        "midi": 52,
        "time": 226.25,
        "duration": 0.179,
        "velocity": 1,
        "hand": "left"
      },
      {
        "midi": 68,
        "time": 226.25,
        "duration": 0.089,
        "velocity": 1,
        "hand": "right"
      },
      {
        "midi": 56,
        "time": 226.339,
        "duration": 0.089,
        "velocity": 1,
        "hand": "left"
      },
      {
        "midi": 49,
        "time": 226.429,
        "duration": 0.179,
        "velocity": 1,
        "hand": "left"
      },
      {
        "midi": 69,
        "time": 226.429,
        "duration": 0.089,
        "velocity": 1,
        "hand": "right"
      },
      {
        "midi": 68,
        "time": 226.518,
        "duration": 0.089,
        "velocity": 1,
        "hand": "right"
      },
      {
        "midi": 44,
        "time": 226.607,
        "duration": 0.179,
        "velocity": 1,
        "hand": "left"
      },
      {
        "midi": 76,
        "time": 226.607,
        "duration": 0.089,
        "velocity": 1,
        "hand": "right"
      },
      {
        "midi": 64,
        "time": 226.696,
        "duration": 0.089,
        "velocity": 1,
        "hand": "right"
      },
      {
        "midi": 37,
        "time": 226.786,
        "duration": 0.179,
        "velocity": 1,
        "hand": "left"
      },
      {
        "midi": 69,
        "time": 226.786,
        "duration": 0.089,
        "velocity": 1,
        "hand": "right"
      },
      {
        "midi": 68,
        "time": 226.875,
        "duration": 0.089,
        "velocity": 1,
        "hand": "right"
      },
      {
        "midi": 54,
        "time": 226.964,
        "duration": 0.179,
        "velocity": 1,
        "hand": "left"
      },
      {
        "midi": 76,
        "time": 226.964,
        "duration": 0.089,
        "velocity": 1,
        "hand": "right"
      },
      {
        "midi": 64,
        "time": 227.054,
        "duration": 0.089,
        "velocity": 1,
        "hand": "right"
      },
      {
        "midi": 48,
        "time": 227.143,
        "duration": 0.179,
        "velocity": 1,
        "hand": "left"
      },
      {
        "midi": 69,
        "time": 227.143,
        "duration": 0.089,
        "velocity": 1,
        "hand": "right"
      },
      {
        "midi": 68,
        "time": 227.232,
        "duration": 0.089,
        "velocity": 1,
        "hand": "right"
      },
      {
        "midi": 44,
        "time": 227.321,
        "duration": 0.179,
        "velocity": 1,
        "hand": "left"
      },
      {
        "midi": 75,
        "time": 227.321,
        "duration": 0.089,
        "velocity": 1,
        "hand": "right"
      },
      {
        "midi": 63,
        "time": 227.411,
        "duration": 0.089,
        "velocity": 1,
        "hand": "right"
      },
      {
        "midi": 37,
        "time": 227.5,
        "duration": 0.179,
        "velocity": 1,
        "hand": "left"
      },
      {
        "midi": 69,
        "time": 227.5,
        "duration": 0.089,
        "velocity": 1,
        "hand": "right"
      },
      {
        "midi": 68,
        "time": 227.589,
        "duration": 0.089,
        "velocity": 1,
        "hand": "right"
      },
      {
        "midi": 52,
        "time": 227.679,
        "duration": 0.179,
        "velocity": 1,
        "hand": "left"
      },
      {
        "midi": 75,
        "time": 227.679,
        "duration": 0.089,
        "velocity": 1,
        "hand": "right"
      },
      {
        "midi": 63,
        "time": 227.768,
        "duration": 0.089,
        "velocity": 1,
        "hand": "right"
      },
      {
        "midi": 49,
        "time": 227.857,
        "duration": 0.179,
        "velocity": 1,
        "hand": "left"
      },
      {
        "midi": 69,
        "time": 227.857,
        "duration": 0.089,
        "velocity": 1,
        "hand": "right"
      },
      {
        "midi": 68,
        "time": 227.946,
        "duration": 0.089,
        "velocity": 1,
        "hand": "right"
      },
      {
        "midi": 44,
        "time": 228.036,
        "duration": 0.179,
        "velocity": 1,
        "hand": "left"
      },
      {
        "midi": 73,
        "time": 228.036,
        "duration": 0.089,
        "velocity": 1,
        "hand": "right"
      },
      {
        "midi": 61,
        "time": 228.125,
        "duration": 0.089,
        "velocity": 1,
        "hand": "right"
      },
      {
        "midi": 37,
        "time": 228.214,
        "duration": 0.179,
        "velocity": 1,
        "hand": "left"
      },
      {
        "midi": 64,
        "time": 228.214,
        "duration": 0.089,
        "velocity": 1,
        "hand": "right"
      },
      {
        "midi": 63,
        "time": 228.304,
        "duration": 0.089,
        "velocity": 1,
        "hand": "right"
      },
      {
        "midi": 54,
        "time": 228.393,
        "duration": 0.179,
        "velocity": 1,
        "hand": "left"
      },
      {
        "midi": 68,
        "time": 228.393,
        "duration": 0.089,
        "velocity": 1,
        "hand": "right"
      },
      {
        "midi": 56,
        "time": 228.482,
        "duration": 0.089,
        "velocity": 1,
        "hand": "left"
      },
      {
        "midi": 48,
        "time": 228.571,
        "duration": 0.179,
        "velocity": 1,
        "hand": "left"
      },
      {
        "midi": 64,
        "time": 228.571,
        "duration": 0.089,
        "velocity": 1,
        "hand": "right"
      },
      {
        "midi": 63,
        "time": 228.661,
        "duration": 0.089,
        "velocity": 1,
        "hand": "right"
      },
      {
        "midi": 44,
        "time": 228.75,
        "duration": 0.179,
        "velocity": 1,
        "hand": "left"
      },
      {
        "midi": 68,
        "time": 228.75,
        "duration": 0.089,
        "velocity": 1,
        "hand": "right"
      },
      {
        "midi": 56,
        "time": 228.839,
        "duration": 0.089,
        "velocity": 1,
        "hand": "left"
      },
      {
        "midi": 37,
        "time": 228.929,
        "duration": 0.179,
        "velocity": 1,
        "hand": "left"
      },
      {
        "midi": 63,
        "time": 228.929,
        "duration": 0.089,
        "velocity": 1,
        "hand": "right"
      },
      {
        "midi": 61,
        "time": 229.018,
        "duration": 0.089,
        "velocity": 1,
        "hand": "right"
      },
      {
        "midi": 52,
        "time": 229.107,
        "duration": 0.179,
        "velocity": 1,
        "hand": "left"
      },
      {
        "midi": 68,
        "time": 229.107,
        "duration": 0.089,
        "velocity": 1,
        "hand": "right"
      },
      {
        "midi": 56,
        "time": 229.196,
        "duration": 0.089,
        "velocity": 1,
        "hand": "left"
      },
      {
        "midi": 49,
        "time": 229.286,
        "duration": 0.179,
        "velocity": 1,
        "hand": "left"
      },
      {
        "midi": 69,
        "time": 229.286,
        "duration": 0.089,
        "velocity": 1,
        "hand": "right"
      },
      {
        "midi": 68,
        "time": 229.375,
        "duration": 0.089,
        "velocity": 1,
        "hand": "right"
      },
      {
        "midi": 44,
        "time": 229.464,
        "duration": 0.179,
        "velocity": 1,
        "hand": "left"
      },
      {
        "midi": 76,
        "time": 229.464,
        "duration": 0.089,
        "velocity": 1,
        "hand": "right"
      },
      {
        "midi": 64,
        "time": 229.554,
        "duration": 0.089,
        "velocity": 1,
        "hand": "right"
      },
      {
        "midi": 37,
        "time": 229.643,
        "duration": 0.179,
        "velocity": 1,
        "hand": "left"
      },
      {
        "midi": 66,
        "time": 229.643,
        "duration": 0.089,
        "velocity": 1,
        "hand": "right"
      },
      {
        "midi": 64,
        "time": 229.732,
        "duration": 0.089,
        "velocity": 1,
        "hand": "right"
      },
      {
        "midi": 56,
        "time": 229.821,
        "duration": 0.179,
        "velocity": 1,
        "hand": "left"
      },
      {
        "midi": 73,
        "time": 229.821,
        "duration": 0.089,
        "velocity": 1,
        "hand": "right"
      },
      {
        "midi": 61,
        "time": 229.911,
        "duration": 0.089,
        "velocity": 1,
        "hand": "right"
      },
      {
        "midi": 49,
        "time": 230,
        "duration": 0.179,
        "velocity": 1,
        "hand": "left"
      },
      {
        "midi": 69,
        "time": 230,
        "duration": 0.089,
        "velocity": 1,
        "hand": "right"
      },
      {
        "midi": 68,
        "time": 230.089,
        "duration": 0.089,
        "velocity": 1,
        "hand": "right"
      },
      {
        "midi": 44,
        "time": 230.179,
        "duration": 0.179,
        "velocity": 1,
        "hand": "left"
      },
      {
        "midi": 76,
        "time": 230.179,
        "duration": 0.089,
        "velocity": 1,
        "hand": "right"
      },
      {
        "midi": 64,
        "time": 230.268,
        "duration": 0.089,
        "velocity": 1,
        "hand": "right"
      },
      {
        "midi": 37,
        "time": 230.357,
        "duration": 0.179,
        "velocity": 1,
        "hand": "left"
      },
      {
        "midi": 63,
        "time": 230.357,
        "duration": 0.089,
        "velocity": 1,
        "hand": "right"
      },
      {
        "midi": 61,
        "time": 230.446,
        "duration": 0.089,
        "velocity": 1,
        "hand": "right"
      },
      {
        "midi": 52,
        "time": 230.536,
        "duration": 0.179,
        "velocity": 1,
        "hand": "left"
      },
      {
        "midi": 68,
        "time": 230.536,
        "duration": 0.089,
        "velocity": 1,
        "hand": "right"
      },
      {
        "midi": 56,
        "time": 230.625,
        "duration": 0.089,
        "velocity": 1,
        "hand": "left"
      },
      {
        "midi": 49,
        "time": 230.714,
        "duration": 0.179,
        "velocity": 1,
        "hand": "left"
      },
      {
        "midi": 69,
        "time": 230.714,
        "duration": 0.089,
        "velocity": 1,
        "hand": "right"
      },
      {
        "midi": 68,
        "time": 230.804,
        "duration": 0.089,
        "velocity": 1,
        "hand": "right"
      },
      {
        "midi": 44,
        "time": 230.893,
        "duration": 0.179,
        "velocity": 1,
        "hand": "left"
      },
      {
        "midi": 76,
        "time": 230.893,
        "duration": 0.089,
        "velocity": 1,
        "hand": "right"
      },
      {
        "midi": 64,
        "time": 230.982,
        "duration": 0.089,
        "velocity": 1,
        "hand": "right"
      },
      {
        "midi": 37,
        "time": 231.071,
        "duration": 0.179,
        "velocity": 1,
        "hand": "left"
      },
      {
        "midi": 66,
        "time": 231.071,
        "duration": 0.089,
        "velocity": 1,
        "hand": "right"
      },
      {
        "midi": 64,
        "time": 231.161,
        "duration": 0.089,
        "velocity": 1,
        "hand": "right"
      },
      {
        "midi": 56,
        "time": 231.25,
        "duration": 0.179,
        "velocity": 1,
        "hand": "left"
      },
      {
        "midi": 73,
        "time": 231.25,
        "duration": 0.089,
        "velocity": 1,
        "hand": "right"
      },
      {
        "midi": 61,
        "time": 231.339,
        "duration": 0.089,
        "velocity": 1,
        "hand": "right"
      },
      {
        "midi": 49,
        "time": 231.429,
        "duration": 0.179,
        "velocity": 1,
        "hand": "left"
      },
      {
        "midi": 69,
        "time": 231.429,
        "duration": 0.089,
        "velocity": 1,
        "hand": "right"
      },
      {
        "midi": 68,
        "time": 231.518,
        "duration": 0.089,
        "velocity": 1,
        "hand": "right"
      },
      {
        "midi": 44,
        "time": 231.607,
        "duration": 0.179,
        "velocity": 1,
        "hand": "left"
      },
      {
        "midi": 76,
        "time": 231.607,
        "duration": 0.089,
        "velocity": 1,
        "hand": "right"
      },
      {
        "midi": 64,
        "time": 231.696,
        "duration": 0.089,
        "velocity": 1,
        "hand": "right"
      },
      {
        "midi": 37,
        "time": 231.786,
        "duration": 0.179,
        "velocity": 1,
        "hand": "left"
      },
      {
        "midi": 66,
        "time": 231.786,
        "duration": 0.089,
        "velocity": 1,
        "hand": "right"
      },
      {
        "midi": 64,
        "time": 231.875,
        "duration": 0.089,
        "velocity": 1,
        "hand": "right"
      },
      {
        "midi": 52,
        "time": 231.964,
        "duration": 0.179,
        "velocity": 1,
        "hand": "left"
      },
      {
        "midi": 73,
        "time": 231.964,
        "duration": 0.089,
        "velocity": 1,
        "hand": "right"
      },
      {
        "midi": 61,
        "time": 232.054,
        "duration": 0.089,
        "velocity": 1,
        "hand": "right"
      },
      {
        "midi": 49,
        "time": 232.143,
        "duration": 0.179,
        "velocity": 1,
        "hand": "left"
      },
      {
        "midi": 69,
        "time": 232.143,
        "duration": 0.089,
        "velocity": 1,
        "hand": "right"
      },
      {
        "midi": 68,
        "time": 232.232,
        "duration": 0.089,
        "velocity": 1,
        "hand": "right"
      },
      {
        "midi": 44,
        "time": 232.321,
        "duration": 0.179,
        "velocity": 1,
        "hand": "left"
      },
      {
        "midi": 73,
        "time": 232.321,
        "duration": 0.089,
        "velocity": 1,
        "hand": "right"
      },
      {
        "midi": 61,
        "time": 232.411,
        "duration": 0.089,
        "velocity": 1,
        "hand": "right"
      },
      {
        "midi": 37,
        "time": 232.5,
        "duration": 0.179,
        "velocity": 1,
        "hand": "left"
      },
      {
        "midi": 66,
        "time": 232.5,
        "duration": 0.089,
        "velocity": 1,
        "hand": "right"
      },
      {
        "midi": 64,
        "time": 232.589,
        "duration": 0.089,
        "velocity": 1,
        "hand": "right"
      },
      {
        "midi": 52,
        "time": 232.679,
        "duration": 0.179,
        "velocity": 1,
        "hand": "left"
      },
      {
        "midi": 73,
        "time": 232.679,
        "duration": 0.089,
        "velocity": 1,
        "hand": "right"
      },
      {
        "midi": 61,
        "time": 232.768,
        "duration": 0.089,
        "velocity": 1,
        "hand": "right"
      },
      {
        "midi": 49,
        "time": 232.857,
        "duration": 0.179,
        "velocity": 1,
        "hand": "left"
      },
      {
        "midi": 69,
        "time": 232.857,
        "duration": 0.089,
        "velocity": 1,
        "hand": "right"
      },
      {
        "midi": 68,
        "time": 232.946,
        "duration": 0.089,
        "velocity": 1,
        "hand": "right"
      },
      {
        "midi": 44,
        "time": 233.036,
        "duration": 0.179,
        "velocity": 1,
        "hand": "left"
      },
      {
        "midi": 73,
        "time": 233.036,
        "duration": 0.089,
        "velocity": 1,
        "hand": "right"
      },
      {
        "midi": 61,
        "time": 233.125,
        "duration": 0.089,
        "velocity": 1,
        "hand": "right"
      },
      {
        "midi": 37,
        "time": 233.214,
        "duration": 0.179,
        "velocity": 1,
        "hand": "left"
      },
      {
        "midi": 66,
        "time": 233.214,
        "duration": 0.089,
        "velocity": 1,
        "hand": "right"
      },
      {
        "midi": 64,
        "time": 233.304,
        "duration": 0.089,
        "velocity": 1,
        "hand": "right"
      },
      {
        "midi": 52,
        "time": 233.393,
        "duration": 0.179,
        "velocity": 1,
        "hand": "left"
      },
      {
        "midi": 73,
        "time": 233.393,
        "duration": 0.089,
        "velocity": 1,
        "hand": "right"
      },
      {
        "midi": 61,
        "time": 233.482,
        "duration": 0.089,
        "velocity": 1,
        "hand": "right"
      },
      {
        "midi": 49,
        "time": 233.571,
        "duration": 0.179,
        "velocity": 1,
        "hand": "left"
      },
      {
        "midi": 69,
        "time": 233.571,
        "duration": 0.089,
        "velocity": 1,
        "hand": "right"
      },
      {
        "midi": 68,
        "time": 233.661,
        "duration": 0.089,
        "velocity": 1,
        "hand": "right"
      },
      {
        "midi": 44,
        "time": 233.75,
        "duration": 0.179,
        "velocity": 1,
        "hand": "left"
      },
      {
        "midi": 73,
        "time": 233.75,
        "duration": 0.089,
        "velocity": 1,
        "hand": "right"
      },
      {
        "midi": 61,
        "time": 233.839,
        "duration": 0.089,
        "velocity": 1,
        "hand": "right"
      },
      {
        "midi": 37,
        "time": 233.929,
        "duration": 0.179,
        "velocity": 1,
        "hand": "left"
      },
      {
        "midi": 66,
        "time": 233.929,
        "duration": 0.089,
        "velocity": 1,
        "hand": "right"
      },
      {
        "midi": 64,
        "time": 234.018,
        "duration": 0.089,
        "velocity": 1,
        "hand": "right"
      },
      {
        "midi": 52,
        "time": 234.107,
        "duration": 0.179,
        "velocity": 1,
        "hand": "left"
      },
      {
        "midi": 73,
        "time": 234.107,
        "duration": 0.089,
        "velocity": 1,
        "hand": "right"
      },
      {
        "midi": 61,
        "time": 234.196,
        "duration": 0.089,
        "velocity": 1,
        "hand": "right"
      },
      {
        "midi": 49,
        "time": 234.286,
        "duration": 0.179,
        "velocity": 1,
        "hand": "left"
      },
      {
        "midi": 69,
        "time": 234.286,
        "duration": 0.089,
        "velocity": 1,
        "hand": "right"
      },
      {
        "midi": 68,
        "time": 234.375,
        "duration": 0.089,
        "velocity": 1,
        "hand": "right"
      },
      {
        "midi": 44,
        "time": 234.464,
        "duration": 0.179,
        "velocity": 1,
        "hand": "left"
      },
      {
        "midi": 73,
        "time": 234.464,
        "duration": 0.089,
        "velocity": 1,
        "hand": "right"
      },
      {
        "midi": 61,
        "time": 234.554,
        "duration": 0.089,
        "velocity": 1,
        "hand": "right"
      },
      {
        "midi": 37,
        "time": 234.643,
        "duration": 0.357,
        "velocity": 1,
        "hand": "left"
      },
      {
        "midi": 63,
        "time": 234.643,
        "duration": 0.089,
        "velocity": 1,
        "hand": "right"
      },
      {
        "midi": 61,
        "time": 234.732,
        "duration": 0.089,
        "velocity": 1,
        "hand": "right"
      },
      {
        "midi": 68,
        "time": 234.821,
        "duration": 0.089,
        "velocity": 1,
        "hand": "right"
      },
      {
        "midi": 56,
        "time": 234.911,
        "duration": 0.089,
        "velocity": 1,
        "hand": "left"
      },
      {
        "midi": 63,
        "time": 235,
        "duration": 0.089,
        "velocity": 1,
        "hand": "right"
      },
      {
        "midi": 61,
        "time": 235.089,
        "duration": 0.089,
        "velocity": 1,
        "hand": "right"
      },
      {
        "midi": 68,
        "time": 235.179,
        "duration": 0.089,
        "velocity": 1,
        "hand": "right"
      },
      {
        "midi": 56,
        "time": 235.268,
        "duration": 0.089,
        "velocity": 1,
        "hand": "left"
      },
      {
        "midi": 63,
        "time": 235.357,
        "duration": 0.089,
        "velocity": 1,
        "hand": "right"
      },
      {
        "midi": 61,
        "time": 235.446,
        "duration": 0.089,
        "velocity": 1,
        "hand": "right"
      },
      {
        "midi": 68,
        "time": 235.536,
        "duration": 0.089,
        "velocity": 1,
        "hand": "right"
      },
      {
        "midi": 56,
        "time": 235.625,
        "duration": 0.089,
        "velocity": 1,
        "hand": "left"
      },
      {
        "midi": 63,
        "time": 235.714,
        "duration": 0.089,
        "velocity": 1,
        "hand": "right"
      },
      {
        "midi": 61,
        "time": 235.804,
        "duration": 0.089,
        "velocity": 1,
        "hand": "right"
      },
      {
        "midi": 68,
        "time": 235.893,
        "duration": 0.089,
        "velocity": 1,
        "hand": "right"
      },
      {
        "midi": 56,
        "time": 235.982,
        "duration": 0.089,
        "velocity": 1,
        "hand": "left"
      },
      {
        "midi": 63,
        "time": 236.071,
        "duration": 0.089,
        "velocity": 1,
        "hand": "right"
      },
      {
        "midi": 61,
        "time": 236.161,
        "duration": 0.089,
        "velocity": 1,
        "hand": "right"
      },
      {
        "midi": 68,
        "time": 236.25,
        "duration": 0.089,
        "velocity": 1,
        "hand": "right"
      },
      {
        "midi": 56,
        "time": 236.339,
        "duration": 0.089,
        "velocity": 1,
        "hand": "left"
      },
      {
        "midi": 63,
        "time": 236.429,
        "duration": 0.089,
        "velocity": 1,
        "hand": "right"
      },
      {
        "midi": 61,
        "time": 236.518,
        "duration": 0.089,
        "velocity": 1,
        "hand": "right"
      },
      {
        "midi": 68,
        "time": 236.607,
        "duration": 0.089,
        "velocity": 1,
        "hand": "right"
      },
      {
        "midi": 56,
        "time": 236.696,
        "duration": 0.089,
        "velocity": 1,
        "hand": "left"
      },
      {
        "midi": 63,
        "time": 236.786,
        "duration": 0.089,
        "velocity": 1,
        "hand": "right"
      },
      {
        "midi": 61,
        "time": 236.875,
        "duration": 0.089,
        "velocity": 1,
        "hand": "right"
      },
      {
        "midi": 68,
        "time": 236.964,
        "duration": 0.089,
        "velocity": 1,
        "hand": "right"
      },
      {
        "midi": 56,
        "time": 237.054,
        "duration": 0.089,
        "velocity": 1,
        "hand": "left"
      },
      {
        "midi": 63,
        "time": 237.143,
        "duration": 0.089,
        "velocity": 1,
        "hand": "right"
      },
      {
        "midi": 61,
        "time": 237.232,
        "duration": 0.089,
        "velocity": 1,
        "hand": "right"
      },
      {
        "midi": 68,
        "time": 237.321,
        "duration": 0.089,
        "velocity": 1,
        "hand": "right"
      },
      {
        "midi": 56,
        "time": 237.411,
        "duration": 0.089,
        "velocity": 1,
        "hand": "left"
      },
      {
        "midi": 37,
        "time": 237.5,
        "duration": 1.429,
        "velocity": 1,
        "hand": "left"
      },
      {
        "midi": 44,
        "time": 237.5,
        "duration": 1.429,
        "velocity": 1,
        "hand": "left"
      },
      {
        "midi": 63,
        "time": 237.5,
        "duration": 0.089,
        "velocity": 1,
        "hand": "right"
      },
      {
        "midi": 61,
        "time": 237.589,
        "duration": 0.089,
        "velocity": 1,
        "hand": "right"
      },
      {
        "midi": 68,
        "time": 237.679,
        "duration": 0.089,
        "velocity": 1,
        "hand": "right"
      },
      {
        "midi": 56,
        "time": 237.768,
        "duration": 0.089,
        "velocity": 1,
        "hand": "left"
      },
      {
        "midi": 63,
        "time": 237.857,
        "duration": 0.089,
        "velocity": 1,
        "hand": "right"
      },
      {
        "midi": 61,
        "time": 237.946,
        "duration": 0.089,
        "velocity": 1,
        "hand": "right"
      },
      {
        "midi": 68,
        "time": 238.036,
        "duration": 0.089,
        "velocity": 1,
        "hand": "right"
      },
      {
        "midi": 56,
        "time": 238.125,
        "duration": 0.089,
        "velocity": 1,
        "hand": "left"
      },
      {
        "midi": 63,
        "time": 238.214,
        "duration": 0.089,
        "velocity": 1,
        "hand": "right"
      },
      {
        "midi": 61,
        "time": 238.304,
        "duration": 0.089,
        "velocity": 1,
        "hand": "right"
      },
      {
        "midi": 68,
        "time": 238.393,
        "duration": 0.089,
        "velocity": 1,
        "hand": "right"
      },
      {
        "midi": 56,
        "time": 238.482,
        "duration": 0.089,
        "velocity": 1,
        "hand": "left"
      },
      {
        "midi": 63,
        "time": 238.571,
        "duration": 0.089,
        "velocity": 1,
        "hand": "right"
      },
      {
        "midi": 61,
        "time": 238.661,
        "duration": 0.089,
        "velocity": 1,
        "hand": "right"
      },
      {
        "midi": 68,
        "time": 238.75,
        "duration": 0.089,
        "velocity": 1,
        "hand": "right"
      },
      {
        "midi": 56,
        "time": 238.839,
        "duration": 0.089,
        "velocity": 1,
        "hand": "left"
      },
      {
        "midi": 46,
        "time": 238.929,
        "duration": 0.357,
        "velocity": 1,
        "hand": "left"
      },
      {
        "midi": 63,
        "time": 238.929,
        "duration": 0.089,
        "velocity": 1,
        "hand": "right"
      },
      {
        "midi": 61,
        "time": 239.018,
        "duration": 0.089,
        "velocity": 1,
        "hand": "right"
      },
      {
        "midi": 68,
        "time": 239.107,
        "duration": 0.089,
        "velocity": 1,
        "hand": "right"
      },
      {
        "midi": 56,
        "time": 239.196,
        "duration": 0.089,
        "velocity": 1,
        "hand": "left"
      },
      {
        "midi": 44,
        "time": 239.286,
        "duration": 0.357,
        "velocity": 1,
        "hand": "left"
      },
      {
        "midi": 63,
        "time": 239.286,
        "duration": 0.089,
        "velocity": 1,
        "hand": "right"
      },
      {
        "midi": 61,
        "time": 239.375,
        "duration": 0.089,
        "velocity": 1,
        "hand": "right"
      },
      {
        "midi": 68,
        "time": 239.464,
        "duration": 0.089,
        "velocity": 1,
        "hand": "right"
      },
      {
        "midi": 56,
        "time": 239.554,
        "duration": 0.089,
        "velocity": 1,
        "hand": "left"
      },
      {
        "midi": 49,
        "time": 239.643,
        "duration": 0.357,
        "velocity": 1,
        "hand": "left"
      },
      {
        "midi": 63,
        "time": 239.643,
        "duration": 0.089,
        "velocity": 1,
        "hand": "right"
      },
      {
        "midi": 61,
        "time": 239.732,
        "duration": 0.089,
        "velocity": 1,
        "hand": "right"
      },
      {
        "midi": 68,
        "time": 239.821,
        "duration": 0.089,
        "velocity": 1,
        "hand": "right"
      },
      {
        "midi": 56,
        "time": 239.911,
        "duration": 0.089,
        "velocity": 1,
        "hand": "left"
      },
      {
        "midi": 51,
        "time": 240,
        "duration": 0.357,
        "velocity": 1,
        "hand": "left"
      },
      {
        "midi": 63,
        "time": 240,
        "duration": 0.089,
        "velocity": 1,
        "hand": "right"
      },
      {
        "midi": 61,
        "time": 240.089,
        "duration": 0.089,
        "velocity": 1,
        "hand": "right"
      },
      {
        "midi": 68,
        "time": 240.179,
        "duration": 0.089,
        "velocity": 1,
        "hand": "right"
      },
      {
        "midi": 56,
        "time": 240.268,
        "duration": 0.089,
        "velocity": 1,
        "hand": "left"
      },
      {
        "midi": 53,
        "time": 240.357,
        "duration": 1.429,
        "velocity": 1,
        "hand": "left"
      },
      {
        "midi": 63,
        "time": 240.357,
        "duration": 0.089,
        "velocity": 1,
        "hand": "right"
      },
      {
        "midi": 61,
        "time": 240.446,
        "duration": 0.089,
        "velocity": 1,
        "hand": "right"
      },
      {
        "midi": 68,
        "time": 240.536,
        "duration": 0.089,
        "velocity": 1,
        "hand": "right"
      },
      {
        "midi": 56,
        "time": 240.625,
        "duration": 0.089,
        "velocity": 1,
        "hand": "left"
      },
      {
        "midi": 63,
        "time": 240.714,
        "duration": 0.089,
        "velocity": 1,
        "hand": "right"
      },
      {
        "midi": 61,
        "time": 240.804,
        "duration": 0.089,
        "velocity": 1,
        "hand": "right"
      },
      {
        "midi": 68,
        "time": 240.893,
        "duration": 0.089,
        "velocity": 1,
        "hand": "right"
      },
      {
        "midi": 56,
        "time": 240.982,
        "duration": 0.089,
        "velocity": 1,
        "hand": "left"
      },
      {
        "midi": 63,
        "time": 241.071,
        "duration": 0.089,
        "velocity": 1,
        "hand": "right"
      },
      {
        "midi": 61,
        "time": 241.161,
        "duration": 0.089,
        "velocity": 1,
        "hand": "right"
      },
      {
        "midi": 68,
        "time": 241.25,
        "duration": 0.089,
        "velocity": 1,
        "hand": "right"
      },
      {
        "midi": 56,
        "time": 241.339,
        "duration": 0.089,
        "velocity": 1,
        "hand": "left"
      },
      {
        "midi": 63,
        "time": 241.429,
        "duration": 0.089,
        "velocity": 1,
        "hand": "right"
      },
      {
        "midi": 61,
        "time": 241.518,
        "duration": 0.089,
        "velocity": 1,
        "hand": "right"
      },
      {
        "midi": 68,
        "time": 241.607,
        "duration": 0.089,
        "velocity": 1,
        "hand": "right"
      },
      {
        "midi": 56,
        "time": 241.696,
        "duration": 0.089,
        "velocity": 1,
        "hand": "left"
      },
      {
        "midi": 56,
        "time": 241.786,
        "duration": 1.429,
        "velocity": 1,
        "hand": "left"
      },
      {
        "midi": 63,
        "time": 241.786,
        "duration": 0.089,
        "velocity": 1,
        "hand": "right"
      },
      {
        "midi": 61,
        "time": 241.875,
        "duration": 0.089,
        "velocity": 1,
        "hand": "right"
      },
      {
        "midi": 68,
        "time": 241.964,
        "duration": 0.089,
        "velocity": 1,
        "hand": "right"
      },
      {
        "midi": 56,
        "time": 242.054,
        "duration": 0.089,
        "velocity": 1,
        "hand": "left"
      },
      {
        "midi": 63,
        "time": 242.143,
        "duration": 0.089,
        "velocity": 1,
        "hand": "right"
      },
      {
        "midi": 61,
        "time": 242.232,
        "duration": 0.089,
        "velocity": 1,
        "hand": "right"
      },
      {
        "midi": 68,
        "time": 242.321,
        "duration": 0.089,
        "velocity": 1,
        "hand": "right"
      },
      {
        "midi": 56,
        "time": 242.411,
        "duration": 0.089,
        "velocity": 1,
        "hand": "left"
      },
      {
        "midi": 63,
        "time": 242.5,
        "duration": 0.089,
        "velocity": 1,
        "hand": "right"
      },
      {
        "midi": 61,
        "time": 242.589,
        "duration": 0.089,
        "velocity": 1,
        "hand": "right"
      },
      {
        "midi": 68,
        "time": 242.679,
        "duration": 0.089,
        "velocity": 1,
        "hand": "right"
      },
      {
        "midi": 56,
        "time": 242.768,
        "duration": 0.089,
        "velocity": 1,
        "hand": "left"
      },
      {
        "midi": 63,
        "time": 242.857,
        "duration": 0.089,
        "velocity": 1,
        "hand": "right"
      },
      {
        "midi": 61,
        "time": 242.946,
        "duration": 0.089,
        "velocity": 1,
        "hand": "right"
      },
      {
        "midi": 68,
        "time": 243.036,
        "duration": 0.089,
        "velocity": 1,
        "hand": "right"
      },
      {
        "midi": 56,
        "time": 243.125,
        "duration": 0.089,
        "velocity": 1,
        "hand": "left"
      },
      {
        "midi": 54,
        "time": 243.214,
        "duration": 0.714,
        "velocity": 1,
        "hand": "left"
      },
      {
        "midi": 63,
        "time": 243.214,
        "duration": 0.089,
        "velocity": 1,
        "hand": "right"
      },
      {
        "midi": 61,
        "time": 243.304,
        "duration": 0.089,
        "velocity": 1,
        "hand": "right"
      },
      {
        "midi": 68,
        "time": 243.393,
        "duration": 0.089,
        "velocity": 1,
        "hand": "right"
      },
      {
        "midi": 56,
        "time": 243.482,
        "duration": 0.089,
        "velocity": 1,
        "hand": "left"
      },
      {
        "midi": 63,
        "time": 243.571,
        "duration": 0.089,
        "velocity": 1,
        "hand": "right"
      },
      {
        "midi": 61,
        "time": 243.661,
        "duration": 0.089,
        "velocity": 1,
        "hand": "right"
      },
      {
        "midi": 68,
        "time": 243.75,
        "duration": 0.089,
        "velocity": 1,
        "hand": "right"
      },
      {
        "midi": 56,
        "time": 243.839,
        "duration": 0.089,
        "velocity": 1,
        "hand": "left"
      },
      {
        "midi": 53,
        "time": 243.929,
        "duration": 0.714,
        "velocity": 1,
        "hand": "left"
      },
      {
        "midi": 63,
        "time": 243.929,
        "duration": 0.089,
        "velocity": 1,
        "hand": "right"
      },
      {
        "midi": 61,
        "time": 244.018,
        "duration": 0.089,
        "velocity": 1,
        "hand": "right"
      },
      {
        "midi": 68,
        "time": 244.107,
        "duration": 0.089,
        "velocity": 1,
        "hand": "right"
      },
      {
        "midi": 56,
        "time": 244.196,
        "duration": 0.089,
        "velocity": 1,
        "hand": "left"
      },
      {
        "midi": 63,
        "time": 244.286,
        "duration": 0.089,
        "velocity": 1,
        "hand": "right"
      },
      {
        "midi": 61,
        "time": 244.375,
        "duration": 0.089,
        "velocity": 1,
        "hand": "right"
      },
      {
        "midi": 68,
        "time": 244.464,
        "duration": 0.089,
        "velocity": 1,
        "hand": "right"
      },
      {
        "midi": 56,
        "time": 244.554,
        "duration": 0.089,
        "velocity": 1,
        "hand": "left"
      },
      {
        "midi": 51,
        "time": 244.643,
        "duration": 0.714,
        "velocity": 1,
        "hand": "left"
      },
      {
        "midi": 63,
        "time": 244.643,
        "duration": 0.089,
        "velocity": 1,
        "hand": "right"
      },
      {
        "midi": 61,
        "time": 244.732,
        "duration": 0.089,
        "velocity": 1,
        "hand": "right"
      },
      {
        "midi": 68,
        "time": 244.821,
        "duration": 0.089,
        "velocity": 1,
        "hand": "right"
      },
      {
        "midi": 56,
        "time": 244.911,
        "duration": 0.089,
        "velocity": 1,
        "hand": "left"
      },
      {
        "midi": 63,
        "time": 245,
        "duration": 0.089,
        "velocity": 1,
        "hand": "right"
      },
      {
        "midi": 61,
        "time": 245.089,
        "duration": 0.089,
        "velocity": 1,
        "hand": "right"
      },
      {
        "midi": 68,
        "time": 245.179,
        "duration": 0.089,
        "velocity": 1,
        "hand": "right"
      },
      {
        "midi": 56,
        "time": 245.268,
        "duration": 0.089,
        "velocity": 1,
        "hand": "left"
      },
      {
        "midi": 53,
        "time": 245.357,
        "duration": 0.357,
        "velocity": 1,
        "hand": "left"
      },
      {
        "midi": 63,
        "time": 245.357,
        "duration": 0.089,
        "velocity": 1,
        "hand": "right"
      },
      {
        "midi": 61,
        "time": 245.446,
        "duration": 0.089,
        "velocity": 1,
        "hand": "right"
      },
      {
        "midi": 68,
        "time": 245.536,
        "duration": 0.089,
        "velocity": 1,
        "hand": "right"
      },
      {
        "midi": 56,
        "time": 245.625,
        "duration": 0.089,
        "velocity": 1,
        "hand": "left"
      },
      {
        "midi": 49,
        "time": 245.714,
        "duration": 0.357,
        "velocity": 1,
        "hand": "left"
      },
      {
        "midi": 63,
        "time": 245.714,
        "duration": 0.089,
        "velocity": 1,
        "hand": "right"
      },
      {
        "midi": 61,
        "time": 245.804,
        "duration": 0.089,
        "velocity": 1,
        "hand": "right"
      },
      {
        "midi": 68,
        "time": 245.893,
        "duration": 0.089,
        "velocity": 1,
        "hand": "right"
      },
      {
        "midi": 56,
        "time": 245.982,
        "duration": 0.089,
        "velocity": 1,
        "hand": "left"
      },
      {
        "midi": 44,
        "time": 246.071,
        "duration": 1.429,
        "velocity": 1,
        "hand": "left"
      },
      {
        "midi": 63,
        "time": 246.071,
        "duration": 0.089,
        "velocity": 1,
        "hand": "right"
      },
      {
        "midi": 61,
        "time": 246.161,
        "duration": 0.089,
        "velocity": 1,
        "hand": "right"
      },
      {
        "midi": 68,
        "time": 246.25,
        "duration": 0.089,
        "velocity": 1,
        "hand": "right"
      },
      {
        "midi": 53,
        "time": 246.339,
        "duration": 0.089,
        "velocity": 1,
        "hand": "left"
      },
      {
        "midi": 63,
        "time": 246.429,
        "duration": 0.089,
        "velocity": 1,
        "hand": "right"
      },
      {
        "midi": 61,
        "time": 246.518,
        "duration": 0.089,
        "velocity": 1,
        "hand": "right"
      },
      {
        "midi": 68,
        "time": 246.607,
        "duration": 0.089,
        "velocity": 1,
        "hand": "right"
      },
      {
        "midi": 53,
        "time": 246.696,
        "duration": 0.089,
        "velocity": 1,
        "hand": "left"
      },
      {
        "midi": 63,
        "time": 246.786,
        "duration": 0.089,
        "velocity": 1,
        "hand": "right"
      },
      {
        "midi": 61,
        "time": 246.875,
        "duration": 0.089,
        "velocity": 1,
        "hand": "right"
      },
      {
        "midi": 68,
        "time": 246.964,
        "duration": 0.089,
        "velocity": 1,
        "hand": "right"
      },
      {
        "midi": 53,
        "time": 247.054,
        "duration": 0.089,
        "velocity": 1,
        "hand": "left"
      },
      {
        "midi": 63,
        "time": 247.143,
        "duration": 0.089,
        "velocity": 1,
        "hand": "right"
      },
      {
        "midi": 61,
        "time": 247.232,
        "duration": 0.089,
        "velocity": 1,
        "hand": "right"
      },
      {
        "midi": 68,
        "time": 247.321,
        "duration": 0.089,
        "velocity": 1,
        "hand": "right"
      },
      {
        "midi": 53,
        "time": 247.411,
        "duration": 0.089,
        "velocity": 1,
        "hand": "left"
      },
      {
        "midi": 32,
        "time": 247.5,
        "duration": 1.964,
        "velocity": 1,
        "hand": "left"
      },
      {
        "midi": 44,
        "time": 247.5,
        "duration": 1.964,
        "velocity": 1,
        "hand": "left"
      },
      {
        "midi": 65,
        "time": 247.5,
        "duration": 0.089,
        "velocity": 1,
        "hand": "right"
      },
      {
        "midi": 63,
        "time": 247.679,
        "duration": 0.089,
        "velocity": 1,
        "hand": "right"
      },
      {
        "midi": 68,
        "time": 247.768,
        "duration": 0.089,
        "velocity": 1,
        "hand": "right"
      },
      {
        "midi": 56,
        "time": 247.857,
        "duration": 0.089,
        "velocity": 1,
        "hand": "left"
      },
      {
        "midi": 65,
        "time": 248.036,
        "duration": 0.089,
        "velocity": 1,
        "hand": "right"
      },
      {
        "midi": 63,
        "time": 248.125,
        "duration": 0.089,
        "velocity": 1,
        "hand": "right"
      },
      {
        "midi": 68,
        "time": 248.304,
        "duration": 0.089,
        "velocity": 1,
        "hand": "right"
      },
      {
        "midi": 56,
        "time": 248.393,
        "duration": 0.089,
        "velocity": 1,
        "hand": "left"
      },
      {
        "midi": 65,
        "time": 248.482,
        "duration": 0.089,
        "velocity": 1,
        "hand": "right"
      },
      {
        "midi": 63,
        "time": 248.661,
        "duration": 0.089,
        "velocity": 1,
        "hand": "right"
      },
      {
        "midi": 68,
        "time": 248.75,
        "duration": 0.089,
        "velocity": 1,
        "hand": "right"
      },
      {
        "midi": 56,
        "time": 248.929,
        "duration": 0.089,
        "velocity": 1,
        "hand": "left"
      },
      {
        "midi": 65,
        "time": 249.018,
        "duration": 0.089,
        "velocity": 1,
        "hand": "right"
      },
      {
        "midi": 63,
        "time": 249.107,
        "duration": 0.089,
        "velocity": 1,
        "hand": "right"
      },
      {
        "midi": 68,
        "time": 249.286,
        "duration": 0.089,
        "velocity": 1,
        "hand": "right"
      },
      {
        "midi": 56,
        "time": 249.375,
        "duration": 0.089,
        "velocity": 1,
        "hand": "left"
      },
      {
        "midi": 37,
        "time": 249.554,
        "duration": 1.964,
        "velocity": 1,
        "hand": "left"
      },
      {
        "midi": 44,
        "time": 249.554,
        "duration": 1.964,
        "velocity": 1,
        "hand": "left"
      },
      {
        "midi": 54,
        "time": 249.554,
        "duration": 1.964,
        "velocity": 1,
        "hand": "left"
      },
      {
        "midi": 56,
        "time": 249.554,
        "duration": 4.018,
        "velocity": 1,
        "hand": "left"
      },
      {
        "midi": 60,
        "time": 249.554,
        "duration": 1.964,
        "velocity": 1,
        "hand": "right"
      },
      {
        "midi": 63,
        "time": 249.554,
        "duration": 1.964,
        "velocity": 1,
        "hand": "right"
      },
      {
        "midi": 37,
        "time": 251.518,
        "duration": 1.964,
        "velocity": 1,
        "hand": "left"
      },
      {
        "midi": 44,
        "time": 251.518,
        "duration": 1.964,
        "velocity": 1,
        "hand": "left"
      },
      {
        "midi": 53,
        "time": 251.518,
        "duration": 1.964,
        "velocity": 1,
        "hand": "left"
      },
      {
        "midi": 61,
        "time": 251.518,
        "duration": 1.964,
        "velocity": 1,
        "hand": "right"
      }
    ]
  },
  "notes1Hand": [
    {
      "midi": 64,
      "time": 3.214,
      "duration": 0.179,
      "velocity": 1,
      "hand": "right"
    },
    {
      "midi": 64,
      "time": 3.929,
      "duration": 0.179,
      "velocity": 1,
      "hand": "right"
    },
    {
      "midi": 64,
      "time": 4.643,
      "duration": 0.179,
      "velocity": 1,
      "hand": "right"
    },
    {
      "midi": 64,
      "time": 5.357,
      "duration": 0.179,
      "velocity": 1,
      "hand": "right"
    },
    {
      "midi": 69,
      "time": 5.893,
      "duration": 0.179,
      "velocity": 1,
      "hand": "right"
    },
    {
      "midi": 73,
      "time": 6.25,
      "duration": 0.179,
      "velocity": 1,
      "hand": "right"
    },
    {
      "midi": 75,
      "time": 6.607,
      "duration": 0.179,
      "velocity": 1,
      "hand": "right"
    },
    {
      "midi": 76,
      "time": 6.964,
      "duration": 0.179,
      "velocity": 1,
      "hand": "right"
    },
    {
      "midi": 69,
      "time": 7.321,
      "duration": 0.179,
      "velocity": 1,
      "hand": "right"
    },
    {
      "midi": 73,
      "time": 7.679,
      "duration": 0.179,
      "velocity": 1,
      "hand": "right"
    },
    {
      "midi": 75,
      "time": 8.036,
      "duration": 0.179,
      "velocity": 1,
      "hand": "right"
    },
    {
      "midi": 76,
      "time": 8.393,
      "duration": 0.179,
      "velocity": 1,
      "hand": "right"
    },
    {
      "midi": 73,
      "time": 8.75,
      "duration": 0.179,
      "velocity": 1,
      "hand": "right"
    },
    {
      "midi": 78,
      "time": 8.929,
      "duration": 0.179,
      "velocity": 1,
      "hand": "right"
    },
    {
      "midi": 95,
      "time": 9.286,
      "duration": 0.179,
      "velocity": 1,
      "hand": "right"
    },
    {
      "midi": 90,
      "time": 9.554,
      "duration": 0.179,
      "velocity": 1,
      "hand": "right"
    },
    {
      "midi": 90,
      "time": 9.821,
      "duration": 0.179,
      "velocity": 1,
      "hand": "right"
    },
    {
      "midi": 87,
      "time": 10.089,
      "duration": 0.179,
      "velocity": 1,
      "hand": "right"
    },
    {
      "midi": 80,
      "time": 10.268,
      "duration": 0.179,
      "velocity": 1,
      "hand": "right"
    },
    {
      "midi": 78,
      "time": 10.714,
      "duration": 0.179,
      "velocity": 1,
      "hand": "right"
    },
    {
      "midi": 75,
      "time": 10.982,
      "duration": 0.179,
      "velocity": 1,
      "hand": "right"
    },
    {
      "midi": 71,
      "time": 11.25,
      "duration": 0.179,
      "velocity": 1,
      "hand": "right"
    },
    {
      "midi": 69,
      "time": 11.607,
      "duration": 0.179,
      "velocity": 1,
      "hand": "right"
    },
    {
      "midi": 73,
      "time": 11.964,
      "duration": 0.179,
      "velocity": 1,
      "hand": "right"
    },
    {
      "midi": 75,
      "time": 12.321,
      "duration": 0.179,
      "velocity": 1,
      "hand": "right"
    },
    {
      "midi": 76,
      "time": 12.679,
      "duration": 0.179,
      "velocity": 1,
      "hand": "right"
    },
    {
      "midi": 70,
      "time": 13.036,
      "duration": 0.179,
      "velocity": 1,
      "hand": "right"
    },
    {
      "midi": 73,
      "time": 13.393,
      "duration": 0.179,
      "velocity": 1,
      "hand": "right"
    },
    {
      "midi": 75,
      "time": 13.75,
      "duration": 0.179,
      "velocity": 1,
      "hand": "right"
    },
    {
      "midi": 76,
      "time": 14.107,
      "duration": 0.179,
      "velocity": 1,
      "hand": "right"
    },
    {
      "midi": 76,
      "time": 14.375,
      "duration": 0.179,
      "velocity": 1,
      "hand": "right"
    },
    {
      "midi": 75,
      "time": 14.643,
      "duration": 0.179,
      "velocity": 1,
      "hand": "right"
    },
    {
      "midi": 80,
      "time": 14.911,
      "duration": 0.179,
      "velocity": 1,
      "hand": "right"
    },
    {
      "midi": 85,
      "time": 15.268,
      "duration": 0.179,
      "velocity": 1,
      "hand": "right"
    },
    {
      "midi": 82,
      "time": 15.714,
      "duration": 0.179,
      "velocity": 1,
      "hand": "right"
    },
    {
      "midi": 83,
      "time": 15.893,
      "duration": 0.179,
      "velocity": 1,
      "hand": "right"
    },
    {
      "midi": 80,
      "time": 16.25,
      "duration": 0.179,
      "velocity": 1,
      "hand": "right"
    },
    {
      "midi": 73,
      "time": 16.429,
      "duration": 0.179,
      "velocity": 1,
      "hand": "right"
    },
    {
      "midi": 70,
      "time": 16.786,
      "duration": 0.179,
      "velocity": 1,
      "hand": "right"
    },
    {
      "midi": 68,
      "time": 17.054,
      "duration": 0.179,
      "velocity": 1,
      "hand": "right"
    },
    {
      "midi": 73,
      "time": 17.411,
      "duration": 0.179,
      "velocity": 1,
      "hand": "right"
    },
    {
      "midi": 73,
      "time": 17.768,
      "duration": 0.179,
      "velocity": 1,
      "hand": "right"
    },
    {
      "midi": 73,
      "time": 18.125,
      "duration": 0.179,
      "velocity": 1,
      "hand": "right"
    },
    {
      "midi": 78,
      "time": 18.304,
      "duration": 0.179,
      "velocity": 1,
      "hand": "right"
    },
    {
      "midi": 73,
      "time": 18.661,
      "duration": 0.179,
      "velocity": 1,
      "hand": "right"
    },
    {
      "midi": 75,
      "time": 19.018,
      "duration": 0.179,
      "velocity": 1,
      "hand": "right"
    },
    {
      "midi": 76,
      "time": 19.375,
      "duration": 0.179,
      "velocity": 1,
      "hand": "right"
    },
    {
      "midi": 71,
      "time": 19.554,
      "duration": 0.179,
      "velocity": 1,
      "hand": "right"
    },
    {
      "midi": 76,
      "time": 19.911,
      "duration": 0.179,
      "velocity": 1,
      "hand": "right"
    },
    {
      "midi": 73,
      "time": 20.268,
      "duration": 0.179,
      "velocity": 1,
      "hand": "right"
    },
    {
      "midi": 73,
      "time": 20.625,
      "duration": 0.179,
      "velocity": 1,
      "hand": "right"
    },
    {
      "midi": 77,
      "time": 20.804,
      "duration": 0.179,
      "velocity": 1,
      "hand": "right"
    },
    {
      "midi": 78,
      "time": 21.161,
      "duration": 0.179,
      "velocity": 1,
      "hand": "right"
    },
    {
      "midi": 77,
      "time": 21.518,
      "duration": 0.179,
      "velocity": 1,
      "hand": "right"
    },
    {
      "midi": 78,
      "time": 21.875,
      "duration": 0.179,
      "velocity": 1,
      "hand": "right"
    },
    {
      "midi": 75,
      "time": 22.054,
      "duration": 0.179,
      "velocity": 1,
      "hand": "right"
    },
    {
      "midi": 76,
      "time": 22.411,
      "duration": 0.179,
      "velocity": 1,
      "hand": "right"
    },
    {
      "midi": 76,
      "time": 22.768,
      "duration": 0.179,
      "velocity": 1,
      "hand": "right"
    },
    {
      "midi": 73,
      "time": 23.125,
      "duration": 0.179,
      "velocity": 1,
      "hand": "right"
    },
    {
      "midi": 78,
      "time": 23.304,
      "duration": 0.179,
      "velocity": 1,
      "hand": "right"
    },
    {
      "midi": 77,
      "time": 23.661,
      "duration": 0.179,
      "velocity": 1,
      "hand": "right"
    },
    {
      "midi": 78,
      "time": 24.018,
      "duration": 0.179,
      "velocity": 1,
      "hand": "right"
    },
    {
      "midi": 73,
      "time": 24.375,
      "duration": 0.179,
      "velocity": 1,
      "hand": "right"
    },
    {
      "midi": 69,
      "time": 24.554,
      "duration": 0.179,
      "velocity": 1,
      "hand": "right"
    },
    {
      "midi": 69,
      "time": 24.911,
      "duration": 0.179,
      "velocity": 1,
      "hand": "right"
    },
    {
      "midi": 71,
      "time": 25.268,
      "duration": 0.179,
      "velocity": 1,
      "hand": "right"
    },
    {
      "midi": 76,
      "time": 25.625,
      "duration": 0.179,
      "velocity": 1,
      "hand": "right"
    },
    {
      "midi": 80,
      "time": 25.804,
      "duration": 0.179,
      "velocity": 1,
      "hand": "right"
    },
    {
      "midi": 78,
      "time": 26.161,
      "duration": 0.179,
      "velocity": 1,
      "hand": "right"
    },
    {
      "midi": 75,
      "time": 26.429,
      "duration": 0.179,
      "velocity": 1,
      "hand": "right"
    },
    {
      "midi": 81,
      "time": 26.696,
      "duration": 0.179,
      "velocity": 1,
      "hand": "right"
    },
    {
      "midi": 85,
      "time": 26.875,
      "duration": 0.179,
      "velocity": 1,
      "hand": "right"
    },
    {
      "midi": 81,
      "time": 27.054,
      "duration": 0.179,
      "velocity": 1,
      "hand": "right"
    },
    {
      "midi": 78,
      "time": 27.411,
      "duration": 0.179,
      "velocity": 1,
      "hand": "right"
    },
    {
      "midi": 78,
      "time": 27.768,
      "duration": 0.179,
      "velocity": 1,
      "hand": "right"
    },
    {
      "midi": 78,
      "time": 28.125,
      "duration": 0.179,
      "velocity": 1,
      "hand": "right"
    },
    {
      "midi": 84,
      "time": 28.304,
      "duration": 0.179,
      "velocity": 1,
      "hand": "right"
    },
    {
      "midi": 84,
      "time": 28.661,
      "duration": 0.179,
      "velocity": 1,
      "hand": "right"
    },
    {
      "midi": 83,
      "time": 29.018,
      "duration": 0.179,
      "velocity": 1,
      "hand": "right"
    },
    {
      "midi": 83,
      "time": 29.375,
      "duration": 0.179,
      "velocity": 1,
      "hand": "right"
    },
    {
      "midi": 78,
      "time": 29.554,
      "duration": 0.179,
      "velocity": 1,
      "hand": "right"
    },
    {
      "midi": 78,
      "time": 29.911,
      "duration": 0.179,
      "velocity": 1,
      "hand": "right"
    },
    {
      "midi": 78,
      "time": 30.268,
      "duration": 0.179,
      "velocity": 1,
      "hand": "right"
    },
    {
      "midi": 78,
      "time": 30.625,
      "duration": 0.179,
      "velocity": 1,
      "hand": "right"
    },
    {
      "midi": 81,
      "time": 30.804,
      "duration": 0.179,
      "velocity": 1,
      "hand": "right"
    },
    {
      "midi": 81,
      "time": 31.161,
      "duration": 0.179,
      "velocity": 1,
      "hand": "right"
    },
    {
      "midi": 84,
      "time": 31.518,
      "duration": 0.179,
      "velocity": 1,
      "hand": "right"
    },
    {
      "midi": 83,
      "time": 31.875,
      "duration": 0.179,
      "velocity": 1,
      "hand": "right"
    },
    {
      "midi": 78,
      "time": 32.054,
      "duration": 0.179,
      "velocity": 1,
      "hand": "right"
    },
    {
      "midi": 78,
      "time": 32.411,
      "duration": 0.179,
      "velocity": 1,
      "hand": "right"
    },
    {
      "midi": 78,
      "time": 32.768,
      "duration": 0.179,
      "velocity": 1,
      "hand": "right"
    },
    {
      "midi": 78,
      "time": 33.125,
      "duration": 0.179,
      "velocity": 1,
      "hand": "right"
    },
    {
      "midi": 81,
      "time": 33.304,
      "duration": 0.179,
      "velocity": 1,
      "hand": "right"
    },
    {
      "midi": 81,
      "time": 33.661,
      "duration": 0.179,
      "velocity": 1,
      "hand": "right"
    },
    {
      "midi": 80,
      "time": 34.018,
      "duration": 0.179,
      "velocity": 1,
      "hand": "right"
    },
    {
      "midi": 68,
      "time": 34.375,
      "duration": 0.179,
      "velocity": 1,
      "hand": "right"
    },
    {
      "midi": 73,
      "time": 34.821,
      "duration": 0.179,
      "velocity": 1,
      "hand": "right"
    },
    {
      "midi": 73,
      "time": 35.089,
      "duration": 0.179,
      "velocity": 1,
      "hand": "right"
    },
    {
      "midi": 73,
      "time": 35.446,
      "duration": 0.179,
      "velocity": 1,
      "hand": "right"
    },
    {
      "midi": 80,
      "time": 35.625,
      "duration": 0.179,
      "velocity": 1,
      "hand": "right"
    },
    {
      "midi": 69,
      "time": 35.893,
      "duration": 0.179,
      "velocity": 1,
      "hand": "right"
    },
    {
      "midi": 73,
      "time": 36.25,
      "duration": 0.179,
      "velocity": 1,
      "hand": "right"
    },
    {
      "midi": 75,
      "time": 36.429,
      "duration": 0.179,
      "velocity": 1,
      "hand": "right"
    },
    {
      "midi": 73,
      "time": 36.875,
      "duration": 0.179,
      "velocity": 1,
      "hand": "right"
    },
    {
      "midi": 80,
      "time": 37.054,
      "duration": 0.179,
      "velocity": 1,
      "hand": "right"
    },
    {
      "midi": 73,
      "time": 37.321,
      "duration": 0.179,
      "velocity": 1,
      "hand": "right"
    },
    {
      "midi": 78,
      "time": 37.5,
      "duration": 0.179,
      "velocity": 1,
      "hand": "right"
    },
    {
      "midi": 87,
      "time": 37.768,
      "duration": 0.179,
      "velocity": 1,
      "hand": "right"
    },
    {
      "midi": 92,
      "time": 38.036,
      "duration": 0.179,
      "velocity": 1,
      "hand": "right"
    },
    {
      "midi": 90,
      "time": 38.393,
      "duration": 0.179,
      "velocity": 1,
      "hand": "right"
    },
    {
      "midi": 87,
      "time": 38.661,
      "duration": 0.179,
      "velocity": 1,
      "hand": "right"
    },
    {
      "midi": 81,
      "time": 39.018,
      "duration": 0.179,
      "velocity": 1,
      "hand": "right"
    },
    {
      "midi": 78,
      "time": 39.286,
      "duration": 0.179,
      "velocity": 1,
      "hand": "right"
    },
    {
      "midi": 75,
      "time": 39.554,
      "duration": 0.179,
      "velocity": 1,
      "hand": "right"
    },
    {
      "midi": 71,
      "time": 39.821,
      "duration": 0.179,
      "velocity": 1,
      "hand": "right"
    },
    {
      "midi": 68,
      "time": 40.089,
      "duration": 0.179,
      "velocity": 1,
      "hand": "right"
    },
    {
      "midi": 68,
      "time": 40.446,
      "duration": 0.179,
      "velocity": 1,
      "hand": "right"
    },
    {
      "midi": 76,
      "time": 40.625,
      "duration": 0.179,
      "velocity": 1,
      "hand": "right"
    },
    {
      "midi": 75,
      "time": 40.893,
      "duration": 0.179,
      "velocity": 1,
      "hand": "right"
    },
    {
      "midi": 76,
      "time": 41.25,
      "duration": 0.179,
      "velocity": 1,
      "hand": "right"
    },
    {
      "midi": 75,
      "time": 41.875,
      "duration": 0.179,
      "velocity": 1,
      "hand": "right"
    },
    {
      "midi": 81,
      "time": 42.054,
      "duration": 0.179,
      "velocity": 1,
      "hand": "right"
    },
    {
      "midi": 78,
      "time": 42.321,
      "duration": 0.179,
      "velocity": 1,
      "hand": "right"
    },
    {
      "midi": 77,
      "time": 42.589,
      "duration": 0.179,
      "velocity": 1,
      "hand": "right"
    },
    {
      "midi": 85,
      "time": 42.768,
      "duration": 0.179,
      "velocity": 1,
      "hand": "right"
    },
    {
      "midi": 74,
      "time": 43.036,
      "duration": 0.179,
      "velocity": 1,
      "hand": "right"
    },
    {
      "midi": 78,
      "time": 43.393,
      "duration": 0.179,
      "velocity": 1,
      "hand": "right"
    },
    {
      "midi": 78,
      "time": 43.75,
      "duration": 0.179,
      "velocity": 1,
      "hand": "right"
    },
    {
      "midi": 77,
      "time": 44.018,
      "duration": 0.179,
      "velocity": 1,
      "hand": "right"
    },
    {
      "midi": 80,
      "time": 44.286,
      "duration": 0.179,
      "velocity": 1,
      "hand": "right"
    },
    {
      "midi": 78,
      "time": 44.554,
      "duration": 0.179,
      "velocity": 1,
      "hand": "right"
    },
    {
      "midi": 81,
      "time": 44.821,
      "duration": 0.179,
      "velocity": 1,
      "hand": "right"
    },
    {
      "midi": 80,
      "time": 45.089,
      "duration": 0.179,
      "velocity": 1,
      "hand": "right"
    },
    {
      "midi": 80,
      "time": 45.446,
      "duration": 0.179,
      "velocity": 1,
      "hand": "right"
    },
    {
      "midi": 87,
      "time": 45.625,
      "duration": 0.179,
      "velocity": 1,
      "hand": "right"
    },
    {
      "midi": 81,
      "time": 45.804,
      "duration": 0.179,
      "velocity": 1,
      "hand": "right"
    },
    {
      "midi": 80,
      "time": 46.071,
      "duration": 0.179,
      "velocity": 1,
      "hand": "right"
    },
    {
      "midi": 86,
      "time": 46.339,
      "duration": 0.179,
      "velocity": 1,
      "hand": "right"
    },
    {
      "midi": 83,
      "time": 46.607,
      "duration": 0.179,
      "velocity": 1,
      "hand": "right"
    },
    {
      "midi": 81,
      "time": 46.786,
      "duration": 0.179,
      "velocity": 1,
      "hand": "right"
    },
    {
      "midi": 78,
      "time": 47.054,
      "duration": 0.179,
      "velocity": 1,
      "hand": "right"
    },
    {
      "midi": 76,
      "time": 47.5,
      "duration": 0.179,
      "velocity": 1,
      "hand": "right"
    },
    {
      "midi": 87,
      "time": 47.679,
      "duration": 0.179,
      "velocity": 1,
      "hand": "right"
    },
    {
      "midi": 83,
      "time": 48.036,
      "duration": 0.179,
      "velocity": 1,
      "hand": "right"
    },
    {
      "midi": 80,
      "time": 48.304,
      "duration": 0.179,
      "velocity": 1,
      "hand": "right"
    },
    {
      "midi": 80,
      "time": 48.571,
      "duration": 0.179,
      "velocity": 1,
      "hand": "right"
    },
    {
      "midi": 92,
      "time": 48.75,
      "duration": 0.179,
      "velocity": 1,
      "hand": "right"
    },
    {
      "midi": 90,
      "time": 48.929,
      "duration": 0.179,
      "velocity": 1,
      "hand": "right"
    },
    {
      "midi": 86,
      "time": 49.286,
      "duration": 0.179,
      "velocity": 1,
      "hand": "right"
    },
    {
      "midi": 83,
      "time": 49.554,
      "duration": 0.179,
      "velocity": 1,
      "hand": "right"
    },
    {
      "midi": 79,
      "time": 49.911,
      "duration": 0.179,
      "velocity": 1,
      "hand": "right"
    },
    {
      "midi": 76,
      "time": 50.179,
      "duration": 0.179,
      "velocity": 1,
      "hand": "right"
    },
    {
      "midi": 72,
      "time": 50.536,
      "duration": 0.179,
      "velocity": 1,
      "hand": "right"
    },
    {
      "midi": 69,
      "time": 50.804,
      "duration": 0.179,
      "velocity": 1,
      "hand": "right"
    },
    {
      "midi": 64,
      "time": 51.161,
      "duration": 0.179,
      "velocity": 1,
      "hand": "right"
    },
    {
      "midi": 93,
      "time": 51.786,
      "duration": 0.179,
      "velocity": 1,
      "hand": "right"
    },
    {
      "midi": 90,
      "time": 52.143,
      "duration": 0.179,
      "velocity": 1,
      "hand": "right"
    },
    {
      "midi": 87,
      "time": 52.5,
      "duration": 0.179,
      "velocity": 1,
      "hand": "right"
    },
    {
      "midi": 92,
      "time": 52.679,
      "duration": 0.179,
      "velocity": 1,
      "hand": "right"
    },
    {
      "midi": 88,
      "time": 53.036,
      "duration": 0.179,
      "velocity": 1,
      "hand": "right"
    },
    {
      "midi": 85,
      "time": 53.393,
      "duration": 0.179,
      "velocity": 1,
      "hand": "right"
    },
    {
      "midi": 80,
      "time": 53.75,
      "duration": 0.179,
      "velocity": 1,
      "hand": "right"
    },
    {
      "midi": 69,
      "time": 53.929,
      "duration": 0.179,
      "velocity": 1,
      "hand": "right"
    },
    {
      "midi": 66,
      "time": 54.286,
      "duration": 0.179,
      "velocity": 1,
      "hand": "right"
    },
    {
      "midi": 63,
      "time": 54.643,
      "duration": 0.179,
      "velocity": 1,
      "hand": "right"
    },
    {
      "midi": 63,
      "time": 55,
      "duration": 0.179,
      "velocity": 1,
      "hand": "right"
    },
    {
      "midi": 68,
      "time": 55.179,
      "duration": 0.179,
      "velocity": 1,
      "hand": "right"
    },
    {
      "midi": 69,
      "time": 55.536,
      "duration": 0.179,
      "velocity": 1,
      "hand": "right"
    },
    {
      "midi": 68,
      "time": 55.893,
      "duration": 0.179,
      "velocity": 1,
      "hand": "right"
    },
    {
      "midi": 67,
      "time": 56.25,
      "duration": 0.179,
      "velocity": 1,
      "hand": "right"
    },
    {
      "midi": 63,
      "time": 56.429,
      "duration": 0.179,
      "velocity": 1,
      "hand": "right"
    },
    {
      "midi": 63,
      "time": 56.786,
      "duration": 0.179,
      "velocity": 1,
      "hand": "right"
    },
    {
      "midi": 61,
      "time": 58.839,
      "duration": 0.357,
      "velocity": 1,
      "hand": "right"
    },
    {
      "midi": 65,
      "time": 59.107,
      "duration": 0.357,
      "velocity": 1,
      "hand": "right"
    },
    {
      "midi": 61,
      "time": 59.464,
      "duration": 0.357,
      "velocity": 1,
      "hand": "right"
    },
    {
      "midi": 61,
      "time": 62.768,
      "duration": 0.357,
      "velocity": 1,
      "hand": "right"
    },
    {
      "midi": 65,
      "time": 63.125,
      "duration": 0.357,
      "velocity": 1,
      "hand": "right"
    },
    {
      "midi": 61,
      "time": 63.482,
      "duration": 0.357,
      "velocity": 1,
      "hand": "right"
    },
    {
      "midi": 68,
      "time": 65.179,
      "duration": 1.339,
      "velocity": 1,
      "hand": "right"
    },
    {
      "midi": 60,
      "time": 65.625,
      "duration": 0.179,
      "velocity": 1,
      "hand": "right"
    },
    {
      "midi": 63,
      "time": 65.804,
      "duration": 0.179,
      "velocity": 1,
      "hand": "right"
    },
    {
      "midi": 60,
      "time": 66.071,
      "duration": 0.179,
      "velocity": 1,
      "hand": "right"
    },
    {
      "midi": 70,
      "time": 66.518,
      "duration": 0.357,
      "velocity": 1,
      "hand": "right"
    },
    {
      "midi": 68,
      "time": 66.786,
      "duration": 0.357,
      "velocity": 1,
      "hand": "right"
    },
    {
      "midi": 73,
      "time": 67.143,
      "duration": 0.357,
      "velocity": 1,
      "hand": "right"
    },
    {
      "midi": 75,
      "time": 67.5,
      "duration": 0.357,
      "velocity": 1,
      "hand": "right"
    },
    {
      "midi": 77,
      "time": 67.768,
      "duration": 1.339,
      "velocity": 1,
      "hand": "right"
    },
    {
      "midi": 61,
      "time": 68.214,
      "duration": 0.179,
      "velocity": 1,
      "hand": "right"
    },
    {
      "midi": 65,
      "time": 68.482,
      "duration": 0.179,
      "velocity": 1,
      "hand": "right"
    },
    {
      "midi": 61,
      "time": 68.661,
      "duration": 0.179,
      "velocity": 1,
      "hand": "right"
    },
    {
      "midi": 80,
      "time": 69.107,
      "duration": 1.339,
      "velocity": 1,
      "hand": "right"
    },
    {
      "midi": 65,
      "time": 69.554,
      "duration": 0.179,
      "velocity": 1,
      "hand": "right"
    },
    {
      "midi": 68,
      "time": 69.821,
      "duration": 0.625,
      "velocity": 1,
      "hand": "right"
    },
    {
      "midi": 65,
      "time": 70,
      "duration": 0.179,
      "velocity": 1,
      "hand": "right"
    },
    {
      "midi": 78,
      "time": 70.446,
      "duration": 0.625,
      "velocity": 1,
      "hand": "right"
    },
    {
      "midi": 63,
      "time": 70.714,
      "duration": 0.179,
      "velocity": 1,
      "hand": "right"
    },
    {
      "midi": 77,
      "time": 71.161,
      "duration": 0.625,
      "velocity": 1,
      "hand": "right"
    },
    {
      "midi": 75,
      "time": 71.786,
      "duration": 0.625,
      "velocity": 1,
      "hand": "right"
    },
    {
      "midi": 60,
      "time": 72.054,
      "duration": 0.179,
      "velocity": 1,
      "hand": "right"
    },
    {
      "midi": 77,
      "time": 72.5,
      "duration": 0.536,
      "velocity": 1,
      "hand": "right"
    },
    {
      "midi": 73,
      "time": 72.946,
      "duration": 0.179,
      "velocity": 1,
      "hand": "right"
    },
    {
      "midi": 68,
      "time": 73.125,
      "duration": 1.339,
      "velocity": 1,
      "hand": "right"
    },
    {
      "midi": 60,
      "time": 73.839,
      "duration": 0.179,
      "velocity": 1,
      "hand": "right"
    },
    {
      "midi": 70,
      "time": 74.464,
      "duration": 2.679,
      "velocity": 1,
      "hand": "right"
    },
    {
      "midi": 61,
      "time": 75.179,
      "duration": 0.179,
      "velocity": 1,
      "hand": "right"
    },
    {
      "midi": 62,
      "time": 76.518,
      "duration": 0.179,
      "velocity": 1,
      "hand": "right"
    },
    {
      "midi": 71,
      "time": 77.143,
      "duration": 0.357,
      "velocity": 1,
      "hand": "right"
    },
    {
      "midi": 70,
      "time": 77.5,
      "duration": 0.357,
      "velocity": 1,
      "hand": "right"
    },
    {
      "midi": 75,
      "time": 77.768,
      "duration": 0.357,
      "velocity": 1,
      "hand": "right"
    },
    {
      "midi": 77,
      "time": 78.125,
      "duration": 0.357,
      "velocity": 1,
      "hand": "right"
    },
    {
      "midi": 78,
      "time": 78.482,
      "duration": 0.625,
      "velocity": 1,
      "hand": "right"
    },
    {
      "midi": 66,
      "time": 78.661,
      "duration": 0.179,
      "velocity": 1,
      "hand": "right"
    },
    {
      "midi": 77,
      "time": 79.107,
      "duration": 0.625,
      "velocity": 1,
      "hand": "right"
    },
    {
      "midi": 65,
      "time": 79.375,
      "duration": 0.179,
      "velocity": 1,
      "hand": "right"
    },
    {
      "midi": 75,
      "time": 79.821,
      "duration": 0.625,
      "velocity": 1,
      "hand": "right"
    },
    {
      "midi": 63,
      "time": 80,
      "duration": 0.179,
      "velocity": 1,
      "hand": "right"
    },
    {
      "midi": 77,
      "time": 80.446,
      "duration": 0.625,
      "velocity": 1,
      "hand": "right"
    },
    {
      "midi": 66,
      "time": 80.714,
      "duration": 0.179,
      "velocity": 1,
      "hand": "right"
    },
    {
      "midi": 60,
      "time": 80.893,
      "duration": 0.179,
      "velocity": 1,
      "hand": "right"
    },
    {
      "midi": 73,
      "time": 81.161,
      "duration": 1.25,
      "velocity": 1,
      "hand": "right"
    },
    {
      "midi": 61,
      "time": 81.607,
      "duration": 0.179,
      "velocity": 1,
      "hand": "right"
    },
    {
      "midi": 65,
      "time": 81.786,
      "duration": 0.179,
      "velocity": 1,
      "hand": "right"
    },
    {
      "midi": 61,
      "time": 82.054,
      "duration": 0.179,
      "velocity": 1,
      "hand": "right"
    },
    {
      "midi": 77,
      "time": 82.5,
      "duration": 0.982,
      "velocity": 1,
      "hand": "right"
    },
    {
      "midi": 61,
      "time": 82.946,
      "duration": 0.179,
      "velocity": 1,
      "hand": "right"
    },
    {
      "midi": 63,
      "time": 83.125,
      "duration": 0.179,
      "velocity": 1,
      "hand": "right"
    },
    {
      "midi": 75,
      "time": 83.482,
      "duration": 0.357,
      "velocity": 1,
      "hand": "right"
    },
    {
      "midi": 75,
      "time": 83.839,
      "duration": 2.679,
      "velocity": 1,
      "hand": "right"
    },
    {
      "midi": 60,
      "time": 84.464,
      "duration": 0.179,
      "velocity": 1,
      "hand": "right"
    },
    {
      "midi": 68,
      "time": 86.518,
      "duration": 1.339,
      "velocity": 1,
      "hand": "right"
    },
    {
      "midi": 60,
      "time": 87.143,
      "duration": 0.179,
      "velocity": 1,
      "hand": "right"
    },
    {
      "midi": 70,
      "time": 87.768,
      "duration": 0.357,
      "velocity": 1,
      "hand": "right"
    },
    {
      "midi": 68,
      "time": 88.125,
      "duration": 0.357,
      "velocity": 1,
      "hand": "right"
    },
    {
      "midi": 73,
      "time": 88.482,
      "duration": 0.357,
      "velocity": 1,
      "hand": "right"
    },
    {
      "midi": 60,
      "time": 88.661,
      "duration": 0.179,
      "velocity": 1,
      "hand": "right"
    },
    {
      "midi": 77,
      "time": 89.107,
      "duration": 1.339,
      "velocity": 1,
      "hand": "right"
    },
    {
      "midi": 61,
      "time": 89.554,
      "duration": 0.179,
      "velocity": 1,
      "hand": "right"
    },
    {
      "midi": 65,
      "time": 89.821,
      "duration": 0.179,
      "velocity": 1,
      "hand": "right"
    },
    {
      "midi": 61,
      "time": 90,
      "duration": 0.179,
      "velocity": 1,
      "hand": "right"
    },
    {
      "midi": 80,
      "time": 90.446,
      "duration": 1.339,
      "velocity": 1,
      "hand": "right"
    },
    {
      "midi": 65,
      "time": 90.893,
      "duration": 0.179,
      "velocity": 1,
      "hand": "right"
    },
    {
      "midi": 68,
      "time": 91.161,
      "duration": 0.625,
      "velocity": 1,
      "hand": "right"
    },
    {
      "midi": 78,
      "time": 91.786,
      "duration": 0.625,
      "velocity": 1,
      "hand": "right"
    },
    {
      "midi": 63,
      "time": 92.054,
      "duration": 0.179,
      "velocity": 1,
      "hand": "right"
    },
    {
      "midi": 77,
      "time": 92.5,
      "duration": 0.625,
      "velocity": 1,
      "hand": "right"
    },
    {
      "midi": 61,
      "time": 92.679,
      "duration": 0.179,
      "velocity": 1,
      "hand": "right"
    },
    {
      "midi": 75,
      "time": 93.125,
      "duration": 0.536,
      "velocity": 1,
      "hand": "right"
    },
    {
      "midi": 60,
      "time": 93.393,
      "duration": 0.179,
      "velocity": 1,
      "hand": "right"
    },
    {
      "midi": 77,
      "time": 93.839,
      "duration": 0.536,
      "velocity": 1,
      "hand": "right"
    },
    {
      "midi": 73,
      "time": 94.286,
      "duration": 0.179,
      "velocity": 1,
      "hand": "right"
    },
    {
      "midi": 60,
      "time": 95.179,
      "duration": 0.179,
      "velocity": 1,
      "hand": "right"
    },
    {
      "midi": 70,
      "time": 95.804,
      "duration": 2.679,
      "velocity": 1,
      "hand": "right"
    },
    {
      "midi": 61,
      "time": 96.518,
      "duration": 0.179,
      "velocity": 1,
      "hand": "right"
    },
    {
      "midi": 62,
      "time": 97.768,
      "duration": 0.179,
      "velocity": 1,
      "hand": "right"
    },
    {
      "midi": 71,
      "time": 98.482,
      "duration": 0.357,
      "velocity": 1,
      "hand": "right"
    },
    {
      "midi": 70,
      "time": 98.839,
      "duration": 0.357,
      "velocity": 1,
      "hand": "right"
    },
    {
      "midi": 75,
      "time": 99.107,
      "duration": 0.357,
      "velocity": 1,
      "hand": "right"
    },
    {
      "midi": 77,
      "time": 99.464,
      "duration": 0.357,
      "velocity": 1,
      "hand": "right"
    },
    {
      "midi": 78,
      "time": 99.821,
      "duration": 0.625,
      "velocity": 1,
      "hand": "right"
    },
    {
      "midi": 66,
      "time": 100,
      "duration": 0.179,
      "velocity": 1,
      "hand": "right"
    },
    {
      "midi": 77,
      "time": 100.446,
      "duration": 0.625,
      "velocity": 1,
      "hand": "right"
    },
    {
      "midi": 65,
      "time": 100.714,
      "duration": 0.179,
      "velocity": 1,
      "hand": "right"
    },
    {
      "midi": 75,
      "time": 101.161,
      "duration": 0.625,
      "velocity": 1,
      "hand": "right"
    },
    {
      "midi": 77,
      "time": 101.786,
      "duration": 0.625,
      "velocity": 1,
      "hand": "right"
    },
    {
      "midi": 66,
      "time": 102.054,
      "duration": 0.179,
      "velocity": 1,
      "hand": "right"
    },
    {
      "midi": 73,
      "time": 102.5,
      "duration": 0.982,
      "velocity": 1,
      "hand": "right"
    },
    {
      "midi": 61,
      "time": 102.946,
      "duration": 0.179,
      "velocity": 1,
      "hand": "right"
    },
    {
      "midi": 65,
      "time": 103.125,
      "duration": 0.179,
      "velocity": 1,
      "hand": "right"
    },
    {
      "midi": 67,
      "time": 103.482,
      "duration": 0.179,
      "velocity": 1,
      "hand": "right"
    },
    {
      "midi": 70,
      "time": 103.661,
      "duration": 0.179,
      "velocity": 1,
      "hand": "right"
    },
    {
      "midi": 60,
      "time": 104.286,
      "duration": 0.179,
      "velocity": 1,
      "hand": "right"
    },
    {
      "midi": 75,
      "time": 104.821,
      "duration": 0.357,
      "velocity": 1,
      "hand": "right"
    },
    {
      "midi": 75,
      "time": 105.179,
      "duration": 1.339,
      "velocity": 1,
      "hand": "right"
    },
    {
      "midi": 60,
      "time": 105.625,
      "duration": 0.179,
      "velocity": 1,
      "hand": "right"
    },
    {
      "midi": 66,
      "time": 105.804,
      "duration": 0.179,
      "velocity": 1,
      "hand": "right"
    },
    {
      "midi": 60,
      "time": 106.071,
      "duration": 0.179,
      "velocity": 1,
      "hand": "right"
    },
    {
      "midi": 73,
      "time": 106.518,
      "duration": 0.625,
      "velocity": 1,
      "hand": "right"
    },
    {
      "midi": 61,
      "time": 106.964,
      "duration": 0.179,
      "velocity": 1,
      "hand": "right"
    },
    {
      "midi": 65,
      "time": 107.143,
      "duration": 0.179,
      "velocity": 1,
      "hand": "right"
    },
    {
      "midi": 80,
      "time": 107.5,
      "duration": 0.357,
      "velocity": 1,
      "hand": "right"
    },
    {
      "midi": 68,
      "time": 107.768,
      "duration": 1.339,
      "velocity": 1,
      "hand": "right"
    },
    {
      "midi": 60,
      "time": 108.482,
      "duration": 0.179,
      "velocity": 1,
      "hand": "right"
    },
    {
      "midi": 70,
      "time": 109.107,
      "duration": 0.536,
      "velocity": 1,
      "hand": "right"
    },
    {
      "midi": 69,
      "time": 109.643,
      "duration": 0.179,
      "velocity": 1,
      "hand": "right"
    },
    {
      "midi": 72,
      "time": 110.268,
      "duration": 0.179,
      "velocity": 1,
      "hand": "right"
    },
    {
      "midi": 84,
      "time": 111.161,
      "duration": 0.893,
      "velocity": 1,
      "hand": "right"
    },
    {
      "midi": 82,
      "time": 111.964,
      "duration": 0.179,
      "velocity": 1,
      "hand": "right"
    },
    {
      "midi": 80,
      "time": 112.232,
      "duration": 0.179,
      "velocity": 1,
      "hand": "right"
    },
    {
      "midi": 76,
      "time": 112.411,
      "duration": 0.179,
      "velocity": 1,
      "hand": "right"
    },
    {
      "midi": 70,
      "time": 112.768,
      "duration": 0.268,
      "velocity": 1,
      "hand": "right"
    },
    {
      "midi": 80,
      "time": 113.036,
      "duration": 0.179,
      "velocity": 1,
      "hand": "right"
    },
    {
      "midi": 60,
      "time": 113.839,
      "duration": 0.179,
      "velocity": 1,
      "hand": "right"
    },
    {
      "midi": 72,
      "time": 114.375,
      "duration": 0.179,
      "velocity": 1,
      "hand": "right"
    },
    {
      "midi": 69,
      "time": 115,
      "duration": 0.179,
      "velocity": 1,
      "hand": "right"
    },
    {
      "midi": 70,
      "time": 115.179,
      "duration": 0.536,
      "velocity": 1,
      "hand": "right"
    },
    {
      "midi": 75,
      "time": 115.625,
      "duration": 0.179,
      "velocity": 1,
      "hand": "right"
    },
    {
      "midi": 68,
      "time": 115.804,
      "duration": 0.625,
      "velocity": 1,
      "hand": "right"
    },
    {
      "midi": 60,
      "time": 116.518,
      "duration": 0.179,
      "velocity": 1,
      "hand": "right"
    },
    {
      "midi": 70,
      "time": 117.143,
      "duration": 0.625,
      "velocity": 1,
      "hand": "right"
    },
    {
      "midi": 73,
      "time": 117.768,
      "duration": 0.179,
      "velocity": 1,
      "hand": "right"
    },
    {
      "midi": 72,
      "time": 118.036,
      "duration": 0.179,
      "velocity": 1,
      "hand": "right"
    },
    {
      "midi": 68,
      "time": 118.482,
      "duration": 1.339,
      "velocity": 1,
      "hand": "right"
    },
    {
      "midi": 60,
      "time": 118.929,
      "duration": 0.179,
      "velocity": 1,
      "hand": "right"
    },
    {
      "midi": 60,
      "time": 119.375,
      "duration": 0.179,
      "velocity": 1,
      "hand": "right"
    },
    {
      "midi": 70,
      "time": 119.821,
      "duration": 0.357,
      "velocity": 1,
      "hand": "right"
    },
    {
      "midi": 68,
      "time": 120.179,
      "duration": 0.357,
      "velocity": 1,
      "hand": "right"
    },
    {
      "midi": 73,
      "time": 120.446,
      "duration": 0.357,
      "velocity": 1,
      "hand": "right"
    },
    {
      "midi": 60,
      "time": 120.714,
      "duration": 0.179,
      "velocity": 1,
      "hand": "right"
    },
    {
      "midi": 77,
      "time": 121.161,
      "duration": 1.339,
      "velocity": 1,
      "hand": "right"
    },
    {
      "midi": 61,
      "time": 121.607,
      "duration": 0.179,
      "velocity": 1,
      "hand": "right"
    },
    {
      "midi": 65,
      "time": 121.786,
      "duration": 0.179,
      "velocity": 1,
      "hand": "right"
    },
    {
      "midi": 61,
      "time": 122.054,
      "duration": 0.179,
      "velocity": 1,
      "hand": "right"
    },
    {
      "midi": 80,
      "time": 122.5,
      "duration": 1.339,
      "velocity": 1,
      "hand": "right"
    },
    {
      "midi": 65,
      "time": 122.946,
      "duration": 0.179,
      "velocity": 1,
      "hand": "right"
    },
    {
      "midi": 68,
      "time": 123.125,
      "duration": 0.625,
      "velocity": 1,
      "hand": "right"
    },
    {
      "midi": 65,
      "time": 123.393,
      "duration": 0.179,
      "velocity": 1,
      "hand": "right"
    },
    {
      "midi": 78,
      "time": 123.839,
      "duration": 0.625,
      "velocity": 1,
      "hand": "right"
    },
    {
      "midi": 63,
      "time": 124.018,
      "duration": 0.179,
      "velocity": 1,
      "hand": "right"
    },
    {
      "midi": 77,
      "time": 124.464,
      "duration": 0.625,
      "velocity": 1,
      "hand": "right"
    },
    {
      "midi": 61,
      "time": 124.732,
      "duration": 0.179,
      "velocity": 1,
      "hand": "right"
    },
    {
      "midi": 75,
      "time": 125.179,
      "duration": 0.536,
      "velocity": 1,
      "hand": "right"
    },
    {
      "midi": 77,
      "time": 125.804,
      "duration": 0.536,
      "velocity": 1,
      "hand": "right"
    },
    {
      "midi": 73,
      "time": 126.339,
      "duration": 0.179,
      "velocity": 1,
      "hand": "right"
    },
    {
      "midi": 68,
      "time": 126.518,
      "duration": 1.339,
      "velocity": 1,
      "hand": "right"
    },
    {
      "midi": 60,
      "time": 127.143,
      "duration": 0.179,
      "velocity": 1,
      "hand": "right"
    },
    {
      "midi": 70,
      "time": 127.768,
      "duration": 2.679,
      "velocity": 1,
      "hand": "right"
    },
    {
      "midi": 61,
      "time": 128.482,
      "duration": 0.179,
      "velocity": 1,
      "hand": "right"
    },
    {
      "midi": 62,
      "time": 129.821,
      "duration": 0.179,
      "velocity": 1,
      "hand": "right"
    },
    {
      "midi": 71,
      "time": 130.446,
      "duration": 0.357,
      "velocity": 1,
      "hand": "right"
    },
    {
      "midi": 70,
      "time": 130.804,
      "duration": 0.357,
      "velocity": 1,
      "hand": "right"
    },
    {
      "midi": 75,
      "time": 131.161,
      "duration": 0.357,
      "velocity": 1,
      "hand": "right"
    },
    {
      "midi": 77,
      "time": 131.518,
      "duration": 0.357,
      "velocity": 1,
      "hand": "right"
    },
    {
      "midi": 78,
      "time": 131.786,
      "duration": 0.625,
      "velocity": 1,
      "hand": "right"
    },
    {
      "midi": 66,
      "time": 132.054,
      "duration": 0.179,
      "velocity": 1,
      "hand": "right"
    },
    {
      "midi": 77,
      "time": 132.5,
      "duration": 0.625,
      "velocity": 1,
      "hand": "right"
    },
    {
      "midi": 65,
      "time": 132.679,
      "duration": 0.179,
      "velocity": 1,
      "hand": "right"
    },
    {
      "midi": 75,
      "time": 133.125,
      "duration": 0.625,
      "velocity": 1,
      "hand": "right"
    },
    {
      "midi": 63,
      "time": 133.393,
      "duration": 0.179,
      "velocity": 1,
      "hand": "right"
    },
    {
      "midi": 77,
      "time": 133.839,
      "duration": 0.625,
      "velocity": 1,
      "hand": "right"
    },
    {
      "midi": 66,
      "time": 134.018,
      "duration": 0.179,
      "velocity": 1,
      "hand": "right"
    },
    {
      "midi": 60,
      "time": 134.286,
      "duration": 0.179,
      "velocity": 1,
      "hand": "right"
    },
    {
      "midi": 61,
      "time": 134.911,
      "duration": 0.179,
      "velocity": 1,
      "hand": "right"
    },
    {
      "midi": 65,
      "time": 135.179,
      "duration": 0.179,
      "velocity": 1,
      "hand": "right"
    },
    {
      "midi": 67,
      "time": 135.446,
      "duration": 0.179,
      "velocity": 1,
      "hand": "right"
    },
    {
      "midi": 70,
      "time": 135.625,
      "duration": 0.179,
      "velocity": 1,
      "hand": "right"
    },
    {
      "midi": 77,
      "time": 135.804,
      "duration": 0.982,
      "velocity": 1,
      "hand": "right"
    },
    {
      "midi": 60,
      "time": 136.25,
      "duration": 0.179,
      "velocity": 1,
      "hand": "right"
    },
    {
      "midi": 66,
      "time": 136.518,
      "duration": 0.179,
      "velocity": 1,
      "hand": "right"
    },
    {
      "midi": 75,
      "time": 136.786,
      "duration": 0.357,
      "velocity": 1,
      "hand": "right"
    },
    {
      "midi": 75,
      "time": 137.143,
      "duration": 1.339,
      "velocity": 1,
      "hand": "right"
    },
    {
      "midi": 60,
      "time": 137.589,
      "duration": 0.179,
      "velocity": 1,
      "hand": "right"
    },
    {
      "midi": 66,
      "time": 137.768,
      "duration": 0.179,
      "velocity": 1,
      "hand": "right"
    },
    {
      "midi": 60,
      "time": 138.036,
      "duration": 0.179,
      "velocity": 1,
      "hand": "right"
    },
    {
      "midi": 73,
      "time": 138.482,
      "duration": 0.625,
      "velocity": 1,
      "hand": "right"
    },
    {
      "midi": 61,
      "time": 138.929,
      "duration": 0.179,
      "velocity": 1,
      "hand": "right"
    },
    {
      "midi": 80,
      "time": 139.464,
      "duration": 0.357,
      "velocity": 1,
      "hand": "right"
    },
    {
      "midi": 68,
      "time": 139.821,
      "duration": 1.339,
      "velocity": 1,
      "hand": "right"
    },
    {
      "midi": 60,
      "time": 140.446,
      "duration": 0.179,
      "velocity": 1,
      "hand": "right"
    },
    {
      "midi": 70,
      "time": 141.161,
      "duration": 0.536,
      "velocity": 1,
      "hand": "right"
    },
    {
      "midi": 69,
      "time": 141.607,
      "duration": 0.179,
      "velocity": 1,
      "hand": "right"
    },
    {
      "midi": 70,
      "time": 141.786,
      "duration": 0.536,
      "velocity": 1,
      "hand": "right"
    },
    {
      "midi": 72,
      "time": 142.321,
      "duration": 0.179,
      "velocity": 1,
      "hand": "right"
    },
    {
      "midi": 68,
      "time": 142.5,
      "duration": 0.357,
      "velocity": 1,
      "hand": "right"
    },
    {
      "midi": 84,
      "time": 143.125,
      "duration": 0.893,
      "velocity": 1,
      "hand": "right"
    },
    {
      "midi": 82,
      "time": 144.018,
      "duration": 0.179,
      "velocity": 1,
      "hand": "right"
    },
    {
      "midi": 76,
      "time": 144.375,
      "duration": 0.179,
      "velocity": 1,
      "hand": "right"
    },
    {
      "midi": 73,
      "time": 144.554,
      "duration": 0.179,
      "velocity": 1,
      "hand": "right"
    },
    {
      "midi": 80,
      "time": 145.089,
      "duration": 0.179,
      "velocity": 1,
      "hand": "right"
    },
    {
      "midi": 60,
      "time": 145.804,
      "duration": 0.179,
      "velocity": 1,
      "hand": "right"
    },
    {
      "midi": 72,
      "time": 146.429,
      "duration": 0.179,
      "velocity": 1,
      "hand": "right"
    },
    {
      "midi": 69,
      "time": 146.964,
      "duration": 0.179,
      "velocity": 1,
      "hand": "right"
    },
    {
      "midi": 70,
      "time": 147.143,
      "duration": 0.536,
      "velocity": 1,
      "hand": "right"
    },
    {
      "midi": 75,
      "time": 147.679,
      "duration": 0.179,
      "velocity": 1,
      "hand": "right"
    },
    {
      "midi": 60,
      "time": 148.482,
      "duration": 0.179,
      "velocity": 1,
      "hand": "right"
    },
    {
      "midi": 70,
      "time": 149.107,
      "duration": 0.625,
      "velocity": 1,
      "hand": "right"
    },
    {
      "midi": 73,
      "time": 149.821,
      "duration": 0.179,
      "velocity": 1,
      "hand": "right"
    },
    {
      "midi": 72,
      "time": 150,
      "duration": 0.179,
      "velocity": 1,
      "hand": "right"
    },
    {
      "midi": 70,
      "time": 150.268,
      "duration": 0.179,
      "velocity": 1,
      "hand": "right"
    },
    {
      "midi": 60,
      "time": 151.161,
      "duration": 0.179,
      "velocity": 1,
      "hand": "right"
    },
    {
      "midi": 70,
      "time": 151.786,
      "duration": 0.357,
      "velocity": 1,
      "hand": "right"
    },
    {
      "midi": 68,
      "time": 152.143,
      "duration": 0.357,
      "velocity": 1,
      "hand": "right"
    },
    {
      "midi": 73,
      "time": 152.5,
      "duration": 0.357,
      "velocity": 1,
      "hand": "right"
    },
    {
      "midi": 75,
      "time": 152.768,
      "duration": 0.357,
      "velocity": 1,
      "hand": "right"
    },
    {
      "midi": 77,
      "time": 153.125,
      "duration": 1.339,
      "velocity": 1,
      "hand": "right"
    },
    {
      "midi": 61,
      "time": 153.571,
      "duration": 0.179,
      "velocity": 1,
      "hand": "right"
    },
    {
      "midi": 65,
      "time": 153.839,
      "duration": 0.179,
      "velocity": 1,
      "hand": "right"
    },
    {
      "midi": 61,
      "time": 154.018,
      "duration": 0.179,
      "velocity": 1,
      "hand": "right"
    },
    {
      "midi": 80,
      "time": 154.464,
      "duration": 1.339,
      "velocity": 1,
      "hand": "right"
    },
    {
      "midi": 65,
      "time": 154.911,
      "duration": 0.179,
      "velocity": 1,
      "hand": "right"
    },
    {
      "midi": 68,
      "time": 155.179,
      "duration": 0.625,
      "velocity": 1,
      "hand": "right"
    },
    {
      "midi": 78,
      "time": 155.804,
      "duration": 0.625,
      "velocity": 1,
      "hand": "right"
    },
    {
      "midi": 63,
      "time": 156.071,
      "duration": 0.179,
      "velocity": 1,
      "hand": "right"
    },
    {
      "midi": 77,
      "time": 156.518,
      "duration": 0.625,
      "velocity": 1,
      "hand": "right"
    },
    {
      "midi": 75,
      "time": 157.143,
      "duration": 0.536,
      "velocity": 1,
      "hand": "right"
    },
    {
      "midi": 77,
      "time": 157.768,
      "duration": 0.536,
      "velocity": 1,
      "hand": "right"
    },
    {
      "midi": 73,
      "time": 158.304,
      "duration": 0.179,
      "velocity": 1,
      "hand": "right"
    },
    {
      "midi": 60,
      "time": 159.107,
      "duration": 0.179,
      "velocity": 1,
      "hand": "right"
    },
    {
      "midi": 70,
      "time": 159.821,
      "duration": 2.679,
      "velocity": 1,
      "hand": "right"
    },
    {
      "midi": 61,
      "time": 160.446,
      "duration": 0.179,
      "velocity": 1,
      "hand": "right"
    },
    {
      "midi": 62,
      "time": 161.786,
      "duration": 0.179,
      "velocity": 1,
      "hand": "right"
    },
    {
      "midi": 71,
      "time": 162.5,
      "duration": 0.357,
      "velocity": 1,
      "hand": "right"
    },
    {
      "midi": 70,
      "time": 162.768,
      "duration": 0.357,
      "velocity": 1,
      "hand": "right"
    },
    {
      "midi": 75,
      "time": 163.125,
      "duration": 0.357,
      "velocity": 1,
      "hand": "right"
    },
    {
      "midi": 77,
      "time": 163.482,
      "duration": 0.357,
      "velocity": 1,
      "hand": "right"
    },
    {
      "midi": 78,
      "time": 163.839,
      "duration": 0.625,
      "velocity": 1,
      "hand": "right"
    },
    {
      "midi": 66,
      "time": 164.018,
      "duration": 0.179,
      "velocity": 1,
      "hand": "right"
    },
    {
      "midi": 77,
      "time": 164.464,
      "duration": 0.625,
      "velocity": 1,
      "hand": "right"
    },
    {
      "midi": 65,
      "time": 164.732,
      "duration": 0.179,
      "velocity": 1,
      "hand": "right"
    },
    {
      "midi": 75,
      "time": 165.179,
      "duration": 0.625,
      "velocity": 1,
      "hand": "right"
    },
    {
      "midi": 77,
      "time": 165.804,
      "duration": 0.625,
      "velocity": 1,
      "hand": "right"
    },
    {
      "midi": 66,
      "time": 166.071,
      "duration": 0.179,
      "velocity": 1,
      "hand": "right"
    },
    {
      "midi": 60,
      "time": 166.25,
      "duration": 0.179,
      "velocity": 1,
      "hand": "right"
    },
    {
      "midi": 73,
      "time": 166.518,
      "duration": 0.982,
      "velocity": 1,
      "hand": "right"
    },
    {
      "midi": 61,
      "time": 166.964,
      "duration": 0.179,
      "velocity": 1,
      "hand": "right"
    },
    {
      "midi": 65,
      "time": 167.143,
      "duration": 0.179,
      "velocity": 1,
      "hand": "right"
    },
    {
      "midi": 68,
      "time": 167.589,
      "duration": 0.179,
      "velocity": 1,
      "hand": "right"
    },
    {
      "midi": 77,
      "time": 167.768,
      "duration": 0.982,
      "velocity": 1,
      "hand": "right"
    },
    {
      "midi": 60,
      "time": 168.214,
      "duration": 0.179,
      "velocity": 1,
      "hand": "right"
    },
    {
      "midi": 66,
      "time": 168.482,
      "duration": 0.179,
      "velocity": 1,
      "hand": "right"
    },
    {
      "midi": 60,
      "time": 168.661,
      "duration": 0.179,
      "velocity": 1,
      "hand": "right"
    },
    {
      "midi": 75,
      "time": 169.107,
      "duration": 2.679,
      "velocity": 1,
      "hand": "right"
    },
    {
      "midi": 60,
      "time": 169.554,
      "duration": 0.179,
      "velocity": 1,
      "hand": "right"
    },
    {
      "midi": 66,
      "time": 169.821,
      "duration": 0.179,
      "velocity": 1,
      "hand": "right"
    },
    {
      "midi": 60,
      "time": 170,
      "duration": 0.179,
      "velocity": 1,
      "hand": "right"
    },
    {
      "midi": 60,
      "time": 170.893,
      "duration": 0.179,
      "velocity": 1,
      "hand": "right"
    },
    {
      "midi": 66,
      "time": 171.161,
      "duration": 0.179,
      "velocity": 1,
      "hand": "right"
    },
    {
      "midi": 68,
      "time": 171.875,
      "duration": 0.179,
      "velocity": 1,
      "hand": "right"
    },
    {
      "midi": 73,
      "time": 172.321,
      "duration": 0.179,
      "velocity": 1,
      "hand": "right"
    },
    {
      "midi": 73,
      "time": 172.589,
      "duration": 0.179,
      "velocity": 1,
      "hand": "right"
    },
    {
      "midi": 73,
      "time": 172.946,
      "duration": 0.179,
      "velocity": 1,
      "hand": "right"
    },
    {
      "midi": 80,
      "time": 173.125,
      "duration": 0.179,
      "velocity": 1,
      "hand": "right"
    },
    {
      "midi": 69,
      "time": 173.393,
      "duration": 0.179,
      "velocity": 1,
      "hand": "right"
    },
    {
      "midi": 73,
      "time": 173.75,
      "duration": 0.179,
      "velocity": 1,
      "hand": "right"
    },
    {
      "midi": 75,
      "time": 173.929,
      "duration": 0.179,
      "velocity": 1,
      "hand": "right"
    },
    {
      "midi": 73,
      "time": 174.375,
      "duration": 0.179,
      "velocity": 1,
      "hand": "right"
    },
    {
      "midi": 80,
      "time": 174.554,
      "duration": 0.179,
      "velocity": 1,
      "hand": "right"
    },
    {
      "midi": 73,
      "time": 174.821,
      "duration": 0.179,
      "velocity": 1,
      "hand": "right"
    },
    {
      "midi": 78,
      "time": 175,
      "duration": 0.179,
      "velocity": 1,
      "hand": "right"
    },
    {
      "midi": 87,
      "time": 175.268,
      "duration": 0.179,
      "velocity": 1,
      "hand": "right"
    },
    {
      "midi": 92,
      "time": 175.536,
      "duration": 0.179,
      "velocity": 1,
      "hand": "right"
    },
    {
      "midi": 90,
      "time": 175.893,
      "duration": 0.179,
      "velocity": 1,
      "hand": "right"
    },
    {
      "midi": 87,
      "time": 176.161,
      "duration": 0.179,
      "velocity": 1,
      "hand": "right"
    },
    {
      "midi": 81,
      "time": 176.518,
      "duration": 0.179,
      "velocity": 1,
      "hand": "right"
    },
    {
      "midi": 78,
      "time": 176.786,
      "duration": 0.179,
      "velocity": 1,
      "hand": "right"
    },
    {
      "midi": 75,
      "time": 177.054,
      "duration": 0.179,
      "velocity": 1,
      "hand": "right"
    },
    {
      "midi": 71,
      "time": 177.321,
      "duration": 0.179,
      "velocity": 1,
      "hand": "right"
    },
    {
      "midi": 68,
      "time": 177.589,
      "duration": 0.179,
      "velocity": 1,
      "hand": "right"
    },
    {
      "midi": 68,
      "time": 177.946,
      "duration": 0.179,
      "velocity": 1,
      "hand": "right"
    },
    {
      "midi": 76,
      "time": 178.125,
      "duration": 0.179,
      "velocity": 1,
      "hand": "right"
    },
    {
      "midi": 75,
      "time": 178.393,
      "duration": 0.179,
      "velocity": 1,
      "hand": "right"
    },
    {
      "midi": 76,
      "time": 178.75,
      "duration": 0.179,
      "velocity": 1,
      "hand": "right"
    },
    {
      "midi": 68,
      "time": 179.018,
      "duration": 0.179,
      "velocity": 1,
      "hand": "right"
    },
    {
      "midi": 68,
      "time": 179.375,
      "duration": 0.179,
      "velocity": 1,
      "hand": "right"
    },
    {
      "midi": 76,
      "time": 179.554,
      "duration": 0.179,
      "velocity": 1,
      "hand": "right"
    },
    {
      "midi": 75,
      "time": 179.821,
      "duration": 0.179,
      "velocity": 1,
      "hand": "right"
    },
    {
      "midi": 73,
      "time": 180.089,
      "duration": 0.179,
      "velocity": 1,
      "hand": "right"
    },
    {
      "midi": 80,
      "time": 180.268,
      "duration": 0.179,
      "velocity": 1,
      "hand": "right"
    },
    {
      "midi": 75,
      "time": 180.536,
      "duration": 0.179,
      "velocity": 1,
      "hand": "right"
    },
    {
      "midi": 83,
      "time": 180.804,
      "duration": 0.179,
      "velocity": 1,
      "hand": "right"
    },
    {
      "midi": 88,
      "time": 181.161,
      "duration": 0.179,
      "velocity": 1,
      "hand": "right"
    },
    {
      "midi": 83,
      "time": 181.429,
      "duration": 0.179,
      "velocity": 1,
      "hand": "right"
    },
    {
      "midi": 82,
      "time": 181.786,
      "duration": 0.179,
      "velocity": 1,
      "hand": "right"
    },
    {
      "midi": 76,
      "time": 182.143,
      "duration": 0.179,
      "velocity": 1,
      "hand": "right"
    },
    {
      "midi": 73,
      "time": 182.5,
      "duration": 0.179,
      "velocity": 1,
      "hand": "right"
    },
    {
      "midi": 75,
      "time": 182.679,
      "duration": 0.179,
      "velocity": 1,
      "hand": "right"
    },
    {
      "midi": 68,
      "time": 183.125,
      "duration": 0.179,
      "velocity": 1,
      "hand": "right"
    },
    {
      "midi": 80,
      "time": 183.304,
      "duration": 0.179,
      "velocity": 1,
      "hand": "right"
    },
    {
      "midi": 78,
      "time": 183.661,
      "duration": 0.179,
      "velocity": 1,
      "hand": "right"
    },
    {
      "midi": 77,
      "time": 184.018,
      "duration": 0.179,
      "velocity": 1,
      "hand": "right"
    },
    {
      "midi": 78,
      "time": 184.375,
      "duration": 0.179,
      "velocity": 1,
      "hand": "right"
    },
    {
      "midi": 73,
      "time": 184.554,
      "duration": 0.179,
      "velocity": 1,
      "hand": "right"
    },
    {
      "midi": 69,
      "time": 184.911,
      "duration": 0.179,
      "velocity": 1,
      "hand": "right"
    },
    {
      "midi": 69,
      "time": 185.268,
      "duration": 0.179,
      "velocity": 1,
      "hand": "right"
    },
    {
      "midi": 71,
      "time": 185.625,
      "duration": 0.179,
      "velocity": 1,
      "hand": "right"
    },
    {
      "midi": 80,
      "time": 185.804,
      "duration": 0.179,
      "velocity": 1,
      "hand": "right"
    },
    {
      "midi": 80,
      "time": 186.161,
      "duration": 0.179,
      "velocity": 1,
      "hand": "right"
    },
    {
      "midi": 78,
      "time": 186.518,
      "duration": 0.179,
      "velocity": 1,
      "hand": "right"
    },
    {
      "midi": 77,
      "time": 186.875,
      "duration": 0.179,
      "velocity": 1,
      "hand": "right"
    },
    {
      "midi": 73,
      "time": 187.054,
      "duration": 0.179,
      "velocity": 1,
      "hand": "right"
    },
    {
      "midi": 73,
      "time": 187.411,
      "duration": 0.179,
      "velocity": 1,
      "hand": "right"
    },
    {
      "midi": 75,
      "time": 187.768,
      "duration": 0.179,
      "velocity": 1,
      "hand": "right"
    },
    {
      "midi": 75,
      "time": 188.125,
      "duration": 0.179,
      "velocity": 1,
      "hand": "right"
    },
    {
      "midi": 81,
      "time": 188.304,
      "duration": 0.179,
      "velocity": 1,
      "hand": "right"
    },
    {
      "midi": 80,
      "time": 188.661,
      "duration": 0.179,
      "velocity": 1,
      "hand": "right"
    },
    {
      "midi": 80,
      "time": 189.018,
      "duration": 0.179,
      "velocity": 1,
      "hand": "right"
    },
    {
      "midi": 78,
      "time": 189.375,
      "duration": 0.179,
      "velocity": 1,
      "hand": "right"
    },
    {
      "midi": 73,
      "time": 189.554,
      "duration": 0.179,
      "velocity": 1,
      "hand": "right"
    },
    {
      "midi": 73,
      "time": 189.911,
      "duration": 0.179,
      "velocity": 1,
      "hand": "right"
    },
    {
      "midi": 73,
      "time": 190.268,
      "duration": 0.179,
      "velocity": 1,
      "hand": "right"
    },
    {
      "midi": 69,
      "time": 190.625,
      "duration": 0.179,
      "velocity": 1,
      "hand": "right"
    },
    {
      "midi": 75,
      "time": 190.804,
      "duration": 0.179,
      "velocity": 1,
      "hand": "right"
    },
    {
      "midi": 76,
      "time": 191.161,
      "duration": 0.179,
      "velocity": 1,
      "hand": "right"
    },
    {
      "midi": 80,
      "time": 191.518,
      "duration": 0.179,
      "velocity": 1,
      "hand": "right"
    },
    {
      "midi": 80,
      "time": 191.875,
      "duration": 0.179,
      "velocity": 1,
      "hand": "right"
    },
    {
      "midi": 73,
      "time": 192.054,
      "duration": 0.179,
      "velocity": 1,
      "hand": "right"
    },
    {
      "midi": 75,
      "time": 192.5,
      "duration": 0.179,
      "velocity": 1,
      "hand": "right"
    },
    {
      "midi": 81,
      "time": 192.768,
      "duration": 0.179,
      "velocity": 1,
      "hand": "right"
    },
    {
      "midi": 81,
      "time": 193.125,
      "duration": 0.179,
      "velocity": 1,
      "hand": "right"
    },
    {
      "midi": 85,
      "time": 193.304,
      "duration": 0.179,
      "velocity": 1,
      "hand": "right"
    },
    {
      "midi": 84,
      "time": 193.661,
      "duration": 0.179,
      "velocity": 1,
      "hand": "right"
    },
    {
      "midi": 84,
      "time": 194.018,
      "duration": 0.179,
      "velocity": 1,
      "hand": "right"
    },
    {
      "midi": 84,
      "time": 194.375,
      "duration": 0.179,
      "velocity": 1,
      "hand": "right"
    },
    {
      "midi": 78,
      "time": 194.554,
      "duration": 0.179,
      "velocity": 1,
      "hand": "right"
    },
    {
      "midi": 78,
      "time": 194.911,
      "duration": 0.179,
      "velocity": 1,
      "hand": "right"
    },
    {
      "midi": 78,
      "time": 195.268,
      "duration": 0.179,
      "velocity": 1,
      "hand": "right"
    },
    {
      "midi": 78,
      "time": 195.625,
      "duration": 0.179,
      "velocity": 1,
      "hand": "right"
    },
    {
      "midi": 82,
      "time": 195.804,
      "duration": 0.179,
      "velocity": 1,
      "hand": "right"
    },
    {
      "midi": 82,
      "time": 196.161,
      "duration": 0.179,
      "velocity": 1,
      "hand": "right"
    },
    {
      "midi": 81,
      "time": 196.518,
      "duration": 0.179,
      "velocity": 1,
      "hand": "right"
    },
    {
      "midi": 81,
      "time": 196.875,
      "duration": 0.179,
      "velocity": 1,
      "hand": "right"
    },
    {
      "midi": 78,
      "time": 197.054,
      "duration": 0.179,
      "velocity": 1,
      "hand": "right"
    },
    {
      "midi": 78,
      "time": 197.411,
      "duration": 0.179,
      "velocity": 1,
      "hand": "right"
    },
    {
      "midi": 78,
      "time": 197.768,
      "duration": 0.179,
      "velocity": 1,
      "hand": "right"
    },
    {
      "midi": 78,
      "time": 198.125,
      "duration": 0.179,
      "velocity": 1,
      "hand": "right"
    },
    {
      "midi": 83,
      "time": 198.304,
      "duration": 0.179,
      "velocity": 1,
      "hand": "right"
    },
    {
      "midi": 82,
      "time": 198.661,
      "duration": 0.179,
      "velocity": 1,
      "hand": "right"
    },
    {
      "midi": 82,
      "time": 199.018,
      "duration": 0.179,
      "velocity": 1,
      "hand": "right"
    },
    {
      "midi": 81,
      "time": 199.375,
      "duration": 0.179,
      "velocity": 1,
      "hand": "right"
    },
    {
      "midi": 78,
      "time": 199.554,
      "duration": 0.179,
      "velocity": 1,
      "hand": "right"
    },
    {
      "midi": 78,
      "time": 199.911,
      "duration": 0.179,
      "velocity": 1,
      "hand": "right"
    },
    {
      "midi": 78,
      "time": 200.268,
      "duration": 0.179,
      "velocity": 1,
      "hand": "right"
    },
    {
      "midi": 69,
      "time": 200.536,
      "duration": 0.179,
      "velocity": 1,
      "hand": "right"
    },
    {
      "midi": 73,
      "time": 200.893,
      "duration": 0.179,
      "velocity": 1,
      "hand": "right"
    },
    {
      "midi": 75,
      "time": 201.25,
      "duration": 0.179,
      "velocity": 1,
      "hand": "right"
    },
    {
      "midi": 73,
      "time": 201.518,
      "duration": 0.179,
      "velocity": 1,
      "hand": "right"
    },
    {
      "midi": 68,
      "time": 201.875,
      "duration": 0.179,
      "velocity": 1,
      "hand": "right"
    },
    {
      "midi": 73,
      "time": 202.321,
      "duration": 0.179,
      "velocity": 1,
      "hand": "right"
    },
    {
      "midi": 73,
      "time": 202.589,
      "duration": 0.179,
      "velocity": 1,
      "hand": "right"
    },
    {
      "midi": 73,
      "time": 202.946,
      "duration": 0.179,
      "velocity": 1,
      "hand": "right"
    },
    {
      "midi": 80,
      "time": 203.125,
      "duration": 0.179,
      "velocity": 1,
      "hand": "right"
    },
    {
      "midi": 73,
      "time": 203.393,
      "duration": 0.179,
      "velocity": 1,
      "hand": "right"
    },
    {
      "midi": 85,
      "time": 203.75,
      "duration": 0.179,
      "velocity": 1,
      "hand": "right"
    },
    {
      "midi": 95,
      "time": 203.929,
      "duration": 0.179,
      "velocity": 1,
      "hand": "right"
    },
    {
      "midi": 88,
      "time": 204.286,
      "duration": 0.179,
      "velocity": 1,
      "hand": "right"
    },
    {
      "midi": 85,
      "time": 204.554,
      "duration": 0.179,
      "velocity": 1,
      "hand": "right"
    },
    {
      "midi": 80,
      "time": 204.911,
      "duration": 0.179,
      "velocity": 1,
      "hand": "right"
    },
    {
      "midi": 76,
      "time": 205.179,
      "duration": 0.179,
      "velocity": 1,
      "hand": "right"
    },
    {
      "midi": 75,
      "time": 205.625,
      "duration": 0.179,
      "velocity": 1,
      "hand": "right"
    },
    {
      "midi": 71,
      "time": 205.893,
      "duration": 0.179,
      "velocity": 1,
      "hand": "right"
    },
    {
      "midi": 69,
      "time": 206.25,
      "duration": 0.179,
      "velocity": 1,
      "hand": "right"
    },
    {
      "midi": 68,
      "time": 206.518,
      "duration": 0.179,
      "velocity": 1,
      "hand": "right"
    },
    {
      "midi": 75,
      "time": 206.786,
      "duration": 0.179,
      "velocity": 1,
      "hand": "right"
    },
    {
      "midi": 73,
      "time": 207.054,
      "duration": 0.179,
      "velocity": 1,
      "hand": "right"
    },
    {
      "midi": 76,
      "time": 207.321,
      "duration": 0.179,
      "velocity": 1,
      "hand": "right"
    },
    {
      "midi": 75,
      "time": 207.589,
      "duration": 0.179,
      "velocity": 1,
      "hand": "right"
    },
    {
      "midi": 75,
      "time": 207.946,
      "duration": 0.179,
      "velocity": 1,
      "hand": "right"
    },
    {
      "midi": 81,
      "time": 208.125,
      "duration": 0.179,
      "velocity": 1,
      "hand": "right"
    },
    {
      "midi": 78,
      "time": 208.393,
      "duration": 0.179,
      "velocity": 1,
      "hand": "right"
    },
    {
      "midi": 80,
      "time": 208.75,
      "duration": 0.179,
      "velocity": 1,
      "hand": "right"
    },
    {
      "midi": 73,
      "time": 209.018,
      "duration": 0.179,
      "velocity": 1,
      "hand": "right"
    },
    {
      "midi": 73,
      "time": 209.375,
      "duration": 0.179,
      "velocity": 1,
      "hand": "right"
    },
    {
      "midi": 81,
      "time": 209.554,
      "duration": 0.179,
      "velocity": 1,
      "hand": "right"
    },
    {
      "midi": 78,
      "time": 209.821,
      "duration": 0.179,
      "velocity": 1,
      "hand": "right"
    },
    {
      "midi": 77,
      "time": 210.089,
      "duration": 0.179,
      "velocity": 1,
      "hand": "right"
    },
    {
      "midi": 85,
      "time": 210.268,
      "duration": 0.179,
      "velocity": 1,
      "hand": "right"
    },
    {
      "midi": 80,
      "time": 210.536,
      "duration": 0.179,
      "velocity": 1,
      "hand": "right"
    },
    {
      "midi": 81,
      "time": 210.893,
      "duration": 0.179,
      "velocity": 1,
      "hand": "right"
    },
    {
      "midi": 81,
      "time": 211.25,
      "duration": 0.179,
      "velocity": 1,
      "hand": "right"
    },
    {
      "midi": 80,
      "time": 211.518,
      "duration": 0.179,
      "velocity": 1,
      "hand": "right"
    },
    {
      "midi": 81,
      "time": 211.875,
      "duration": 0.179,
      "velocity": 1,
      "hand": "right"
    },
    {
      "midi": 80,
      "time": 212.143,
      "duration": 0.179,
      "velocity": 1,
      "hand": "right"
    },
    {
      "midi": 86,
      "time": 212.411,
      "duration": 0.179,
      "velocity": 1,
      "hand": "right"
    },
    {
      "midi": 83,
      "time": 212.679,
      "duration": 0.179,
      "velocity": 1,
      "hand": "right"
    },
    {
      "midi": 79,
      "time": 213.036,
      "duration": 0.179,
      "velocity": 1,
      "hand": "right"
    },
    {
      "midi": 78,
      "time": 213.304,
      "duration": 0.179,
      "velocity": 1,
      "hand": "right"
    },
    {
      "midi": 76,
      "time": 213.571,
      "duration": 0.179,
      "velocity": 1,
      "hand": "right"
    },
    {
      "midi": 86,
      "time": 213.839,
      "duration": 0.179,
      "velocity": 1,
      "hand": "right"
    },
    {
      "midi": 83,
      "time": 214.107,
      "duration": 0.179,
      "velocity": 1,
      "hand": "right"
    },
    {
      "midi": 81,
      "time": 214.286,
      "duration": 0.179,
      "velocity": 1,
      "hand": "right"
    },
    {
      "midi": 80,
      "time": 214.643,
      "duration": 0.179,
      "velocity": 1,
      "hand": "right"
    },
    {
      "midi": 91,
      "time": 214.911,
      "duration": 0.179,
      "velocity": 1,
      "hand": "right"
    },
    {
      "midi": 88,
      "time": 215.179,
      "duration": 0.179,
      "velocity": 1,
      "hand": "right"
    },
    {
      "midi": 84,
      "time": 215.536,
      "duration": 0.179,
      "velocity": 1,
      "hand": "right"
    },
    {
      "midi": 81,
      "time": 215.804,
      "duration": 0.179,
      "velocity": 1,
      "hand": "right"
    },
    {
      "midi": 77,
      "time": 216.161,
      "duration": 0.179,
      "velocity": 1,
      "hand": "right"
    },
    {
      "midi": 74,
      "time": 216.429,
      "duration": 0.179,
      "velocity": 1,
      "hand": "right"
    },
    {
      "midi": 70,
      "time": 216.786,
      "duration": 0.179,
      "velocity": 1,
      "hand": "right"
    },
    {
      "midi": 67,
      "time": 217.054,
      "duration": 0.179,
      "velocity": 1,
      "hand": "right"
    },
    {
      "midi": 61,
      "time": 217.411,
      "duration": 0.179,
      "velocity": 1,
      "hand": "right"
    },
    {
      "midi": 93,
      "time": 217.857,
      "duration": 0.179,
      "velocity": 1,
      "hand": "right"
    },
    {
      "midi": 100,
      "time": 218.036,
      "duration": 0.179,
      "velocity": 1,
      "hand": "right"
    },
    {
      "midi": 97,
      "time": 218.393,
      "duration": 0.179,
      "velocity": 1,
      "hand": "right"
    },
    {
      "midi": 92,
      "time": 218.75,
      "duration": 0.179,
      "velocity": 1,
      "hand": "right"
    },
    {
      "midi": 81,
      "time": 218.929,
      "duration": 0.179,
      "velocity": 1,
      "hand": "right"
    },
    {
      "midi": 78,
      "time": 219.286,
      "duration": 0.179,
      "velocity": 1,
      "hand": "right"
    },
    {
      "midi": 75,
      "time": 219.643,
      "duration": 0.179,
      "velocity": 1,
      "hand": "right"
    },
    {
      "midi": 69,
      "time": 220,
      "duration": 0.179,
      "velocity": 1,
      "hand": "right"
    },
    {
      "midi": 76,
      "time": 220.179,
      "duration": 0.179,
      "velocity": 1,
      "hand": "right"
    },
    {
      "midi": 73,
      "time": 220.536,
      "duration": 0.179,
      "velocity": 1,
      "hand": "right"
    },
    {
      "midi": 68,
      "time": 220.893,
      "duration": 0.179,
      "velocity": 1,
      "hand": "right"
    },
    {
      "midi": 68,
      "time": 221.25,
      "duration": 0.179,
      "velocity": 1,
      "hand": "right"
    },
    {
      "midi": 63,
      "time": 221.429,
      "duration": 0.179,
      "velocity": 1,
      "hand": "right"
    },
    {
      "midi": 63,
      "time": 221.786,
      "duration": 0.179,
      "velocity": 1,
      "hand": "right"
    },
    {
      "midi": 63,
      "time": 222.143,
      "duration": 0.179,
      "velocity": 1,
      "hand": "right"
    },
    {
      "midi": 63,
      "time": 222.5,
      "duration": 0.179,
      "velocity": 1,
      "hand": "right"
    },
    {
      "midi": 68,
      "time": 222.679,
      "duration": 0.179,
      "velocity": 1,
      "hand": "right"
    },
    {
      "midi": 68,
      "time": 223.036,
      "duration": 0.179,
      "velocity": 1,
      "hand": "right"
    },
    {
      "midi": 68,
      "time": 223.393,
      "duration": 0.179,
      "velocity": 1,
      "hand": "right"
    },
    {
      "midi": 76,
      "time": 223.75,
      "duration": 0.179,
      "velocity": 1,
      "hand": "right"
    },
    {
      "midi": 69,
      "time": 223.929,
      "duration": 0.179,
      "velocity": 1,
      "hand": "right"
    },
    {
      "midi": 69,
      "time": 224.286,
      "duration": 0.179,
      "velocity": 1,
      "hand": "right"
    },
    {
      "midi": 69,
      "time": 224.643,
      "duration": 0.179,
      "velocity": 1,
      "hand": "right"
    },
    {
      "midi": 69,
      "time": 225,
      "duration": 0.179,
      "velocity": 1,
      "hand": "right"
    },
    {
      "midi": 73,
      "time": 225.179,
      "duration": 0.179,
      "velocity": 1,
      "hand": "right"
    },
    {
      "midi": 68,
      "time": 225.536,
      "duration": 0.179,
      "velocity": 1,
      "hand": "right"
    },
    {
      "midi": 68,
      "time": 225.893,
      "duration": 0.179,
      "velocity": 1,
      "hand": "right"
    },
    {
      "midi": 68,
      "time": 226.25,
      "duration": 0.179,
      "velocity": 1,
      "hand": "right"
    },
    {
      "midi": 69,
      "time": 226.429,
      "duration": 0.179,
      "velocity": 1,
      "hand": "right"
    },
    {
      "midi": 69,
      "time": 226.786,
      "duration": 0.179,
      "velocity": 1,
      "hand": "right"
    },
    {
      "midi": 69,
      "time": 227.143,
      "duration": 0.179,
      "velocity": 1,
      "hand": "right"
    },
    {
      "midi": 69,
      "time": 227.5,
      "duration": 0.179,
      "velocity": 1,
      "hand": "right"
    },
    {
      "midi": 75,
      "time": 227.679,
      "duration": 0.179,
      "velocity": 1,
      "hand": "right"
    },
    {
      "midi": 73,
      "time": 228.036,
      "duration": 0.179,
      "velocity": 1,
      "hand": "right"
    },
    {
      "midi": 68,
      "time": 228.393,
      "duration": 0.179,
      "velocity": 1,
      "hand": "right"
    },
    {
      "midi": 68,
      "time": 228.75,
      "duration": 0.179,
      "velocity": 1,
      "hand": "right"
    },
    {
      "midi": 63,
      "time": 228.929,
      "duration": 0.179,
      "velocity": 1,
      "hand": "right"
    },
    {
      "midi": 69,
      "time": 229.286,
      "duration": 0.179,
      "velocity": 1,
      "hand": "right"
    },
    {
      "midi": 66,
      "time": 229.643,
      "duration": 0.179,
      "velocity": 1,
      "hand": "right"
    },
    {
      "midi": 69,
      "time": 230,
      "duration": 0.179,
      "velocity": 1,
      "hand": "right"
    },
    {
      "midi": 76,
      "time": 230.179,
      "duration": 0.179,
      "velocity": 1,
      "hand": "right"
    },
    {
      "midi": 68,
      "time": 230.536,
      "duration": 0.179,
      "velocity": 1,
      "hand": "right"
    },
    {
      "midi": 76,
      "time": 230.893,
      "duration": 0.179,
      "velocity": 1,
      "hand": "right"
    },
    {
      "midi": 73,
      "time": 231.25,
      "duration": 0.179,
      "velocity": 1,
      "hand": "right"
    },
    {
      "midi": 69,
      "time": 231.429,
      "duration": 0.179,
      "velocity": 1,
      "hand": "right"
    },
    {
      "midi": 66,
      "time": 231.786,
      "duration": 0.179,
      "velocity": 1,
      "hand": "right"
    },
    {
      "midi": 69,
      "time": 232.143,
      "duration": 0.179,
      "velocity": 1,
      "hand": "right"
    },
    {
      "midi": 66,
      "time": 232.5,
      "duration": 0.179,
      "velocity": 1,
      "hand": "right"
    },
    {
      "midi": 73,
      "time": 232.679,
      "duration": 0.179,
      "velocity": 1,
      "hand": "right"
    },
    {
      "midi": 73,
      "time": 233.036,
      "duration": 0.179,
      "velocity": 1,
      "hand": "right"
    },
    {
      "midi": 73,
      "time": 233.393,
      "duration": 0.179,
      "velocity": 1,
      "hand": "right"
    },
    {
      "midi": 73,
      "time": 233.75,
      "duration": 0.179,
      "velocity": 1,
      "hand": "right"
    },
    {
      "midi": 66,
      "time": 233.929,
      "duration": 0.179,
      "velocity": 1,
      "hand": "right"
    },
    {
      "midi": 69,
      "time": 234.286,
      "duration": 0.179,
      "velocity": 1,
      "hand": "right"
    },
    {
      "midi": 63,
      "time": 234.643,
      "duration": 0.179,
      "velocity": 1,
      "hand": "right"
    },
    {
      "midi": 63,
      "time": 235,
      "duration": 0.179,
      "velocity": 1,
      "hand": "right"
    },
    {
      "midi": 68,
      "time": 235.179,
      "duration": 0.179,
      "velocity": 1,
      "hand": "right"
    },
    {
      "midi": 68,
      "time": 235.536,
      "duration": 0.179,
      "velocity": 1,
      "hand": "right"
    },
    {
      "midi": 68,
      "time": 235.893,
      "duration": 0.179,
      "velocity": 1,
      "hand": "right"
    },
    {
      "midi": 68,
      "time": 236.25,
      "duration": 0.179,
      "velocity": 1,
      "hand": "right"
    },
    {
      "midi": 63,
      "time": 236.429,
      "duration": 0.179,
      "velocity": 1,
      "hand": "right"
    },
    {
      "midi": 63,
      "time": 236.786,
      "duration": 0.179,
      "velocity": 1,
      "hand": "right"
    },
    {
      "midi": 63,
      "time": 237.143,
      "duration": 0.179,
      "velocity": 1,
      "hand": "right"
    },
    {
      "midi": 63,
      "time": 237.5,
      "duration": 0.179,
      "velocity": 1,
      "hand": "right"
    },
    {
      "midi": 68,
      "time": 237.679,
      "duration": 0.179,
      "velocity": 1,
      "hand": "right"
    },
    {
      "midi": 68,
      "time": 238.036,
      "duration": 0.179,
      "velocity": 1,
      "hand": "right"
    },
    {
      "midi": 68,
      "time": 238.393,
      "duration": 0.179,
      "velocity": 1,
      "hand": "right"
    },
    {
      "midi": 68,
      "time": 238.75,
      "duration": 0.179,
      "velocity": 1,
      "hand": "right"
    },
    {
      "midi": 63,
      "time": 238.929,
      "duration": 0.179,
      "velocity": 1,
      "hand": "right"
    },
    {
      "midi": 63,
      "time": 239.286,
      "duration": 0.179,
      "velocity": 1,
      "hand": "right"
    },
    {
      "midi": 63,
      "time": 239.643,
      "duration": 0.179,
      "velocity": 1,
      "hand": "right"
    },
    {
      "midi": 63,
      "time": 240,
      "duration": 0.179,
      "velocity": 1,
      "hand": "right"
    },
    {
      "midi": 68,
      "time": 240.179,
      "duration": 0.179,
      "velocity": 1,
      "hand": "right"
    },
    {
      "midi": 68,
      "time": 240.536,
      "duration": 0.179,
      "velocity": 1,
      "hand": "right"
    },
    {
      "midi": 68,
      "time": 240.893,
      "duration": 0.179,
      "velocity": 1,
      "hand": "right"
    },
    {
      "midi": 68,
      "time": 241.25,
      "duration": 0.179,
      "velocity": 1,
      "hand": "right"
    },
    {
      "midi": 63,
      "time": 241.429,
      "duration": 0.179,
      "velocity": 1,
      "hand": "right"
    },
    {
      "midi": 63,
      "time": 241.786,
      "duration": 0.179,
      "velocity": 1,
      "hand": "right"
    },
    {
      "midi": 63,
      "time": 242.143,
      "duration": 0.179,
      "velocity": 1,
      "hand": "right"
    },
    {
      "midi": 63,
      "time": 242.5,
      "duration": 0.179,
      "velocity": 1,
      "hand": "right"
    },
    {
      "midi": 68,
      "time": 242.679,
      "duration": 0.179,
      "velocity": 1,
      "hand": "right"
    },
    {
      "midi": 68,
      "time": 243.036,
      "duration": 0.179,
      "velocity": 1,
      "hand": "right"
    },
    {
      "midi": 68,
      "time": 243.393,
      "duration": 0.179,
      "velocity": 1,
      "hand": "right"
    },
    {
      "midi": 68,
      "time": 243.75,
      "duration": 0.179,
      "velocity": 1,
      "hand": "right"
    },
    {
      "midi": 63,
      "time": 243.929,
      "duration": 0.179,
      "velocity": 1,
      "hand": "right"
    },
    {
      "midi": 63,
      "time": 244.286,
      "duration": 0.179,
      "velocity": 1,
      "hand": "right"
    },
    {
      "midi": 63,
      "time": 244.643,
      "duration": 0.179,
      "velocity": 1,
      "hand": "right"
    },
    {
      "midi": 63,
      "time": 245,
      "duration": 0.179,
      "velocity": 1,
      "hand": "right"
    },
    {
      "midi": 68,
      "time": 245.179,
      "duration": 0.179,
      "velocity": 1,
      "hand": "right"
    },
    {
      "midi": 68,
      "time": 245.536,
      "duration": 0.179,
      "velocity": 1,
      "hand": "right"
    },
    {
      "midi": 68,
      "time": 245.893,
      "duration": 0.179,
      "velocity": 1,
      "hand": "right"
    },
    {
      "midi": 68,
      "time": 246.25,
      "duration": 0.179,
      "velocity": 1,
      "hand": "right"
    },
    {
      "midi": 63,
      "time": 246.429,
      "duration": 0.179,
      "velocity": 1,
      "hand": "right"
    },
    {
      "midi": 63,
      "time": 246.786,
      "duration": 0.179,
      "velocity": 1,
      "hand": "right"
    },
    {
      "midi": 63,
      "time": 247.143,
      "duration": 0.179,
      "velocity": 1,
      "hand": "right"
    },
    {
      "midi": 65,
      "time": 247.5,
      "duration": 0.179,
      "velocity": 1,
      "hand": "right"
    },
    {
      "midi": 68,
      "time": 247.768,
      "duration": 0.179,
      "velocity": 1,
      "hand": "right"
    },
    {
      "midi": 65,
      "time": 248.036,
      "duration": 0.179,
      "velocity": 1,
      "hand": "right"
    },
    {
      "midi": 68,
      "time": 248.304,
      "duration": 0.179,
      "velocity": 1,
      "hand": "right"
    },
    {
      "midi": 68,
      "time": 248.75,
      "duration": 0.179,
      "velocity": 1,
      "hand": "right"
    },
    {
      "midi": 65,
      "time": 249.018,
      "duration": 0.179,
      "velocity": 1,
      "hand": "right"
    },
    {
      "midi": 68,
      "time": 249.286,
      "duration": 0.179,
      "velocity": 1,
      "hand": "right"
    },
    {
      "midi": 63,
      "time": 249.554,
      "duration": 1.964,
      "velocity": 1,
      "hand": "right"
    },
    {
      "midi": 61,
      "time": 251.518,
      "duration": 1.964,
      "velocity": 1,
      "hand": "right"
    }
  ],
  "notes2Hands": [
    {
      "midi": 44,
      "time": 0,
      "duration": 2.857,
      "velocity": 1,
      "hand": "left"
    },
    {
      "midi": 56,
      "time": 0,
      "duration": 2.857,
      "velocity": 1,
      "hand": "left"
    },
    {
      "midi": 37,
      "time": 2.857,
      "duration": 0.089,
      "velocity": 1,
      "hand": "left"
    },
    {
      "midi": 49,
      "time": 2.857,
      "duration": 0.089,
      "velocity": 1,
      "hand": "left"
    },
    {
      "midi": 56,
      "time": 2.946,
      "duration": 0.089,
      "velocity": 1,
      "hand": "left"
    },
    {
      "midi": 61,
      "time": 3.125,
      "duration": 0.089,
      "velocity": 1,
      "hand": "right"
    },
    {
      "midi": 64,
      "time": 3.214,
      "duration": 0.089,
      "velocity": 1,
      "hand": "right"
    },
    {
      "midi": 61,
      "time": 3.304,
      "duration": 0.089,
      "velocity": 1,
      "hand": "right"
    },
    {
      "midi": 56,
      "time": 3.482,
      "duration": 0.089,
      "velocity": 1,
      "hand": "left"
    },
    {
      "midi": 49,
      "time": 3.571,
      "duration": 0.089,
      "velocity": 1,
      "hand": "left"
    },
    {
      "midi": 56,
      "time": 3.661,
      "duration": 0.089,
      "velocity": 1,
      "hand": "left"
    },
    {
      "midi": 61,
      "time": 3.839,
      "duration": 0.089,
      "velocity": 1,
      "hand": "right"
    },
    {
      "midi": 64,
      "time": 3.929,
      "duration": 0.089,
      "velocity": 1,
      "hand": "right"
    },
    {
      "midi": 61,
      "time": 4.018,
      "duration": 0.089,
      "velocity": 1,
      "hand": "right"
    },
    {
      "midi": 56,
      "time": 4.196,
      "duration": 0.089,
      "velocity": 1,
      "hand": "left"
    },
    {
      "midi": 49,
      "time": 4.286,
      "duration": 0.089,
      "velocity": 1,
      "hand": "left"
    },
    {
      "midi": 56,
      "time": 4.375,
      "duration": 0.089,
      "velocity": 1,
      "hand": "left"
    },
    {
      "midi": 61,
      "time": 4.554,
      "duration": 0.089,
      "velocity": 1,
      "hand": "right"
    },
    {
      "midi": 64,
      "time": 4.643,
      "duration": 0.089,
      "velocity": 1,
      "hand": "right"
    },
    {
      "midi": 61,
      "time": 4.732,
      "duration": 0.089,
      "velocity": 1,
      "hand": "right"
    },
    {
      "midi": 56,
      "time": 4.911,
      "duration": 0.089,
      "velocity": 1,
      "hand": "left"
    },
    {
      "midi": 49,
      "time": 5,
      "duration": 0.089,
      "velocity": 1,
      "hand": "left"
    },
    {
      "midi": 56,
      "time": 5.089,
      "duration": 0.089,
      "velocity": 1,
      "hand": "left"
    },
    {
      "midi": 61,
      "time": 5.268,
      "duration": 0.089,
      "velocity": 1,
      "hand": "right"
    },
    {
      "midi": 64,
      "time": 5.357,
      "duration": 0.089,
      "velocity": 1,
      "hand": "right"
    },
    {
      "midi": 61,
      "time": 5.446,
      "duration": 0.089,
      "velocity": 1,
      "hand": "right"
    },
    {
      "midi": 56,
      "time": 5.625,
      "duration": 0.089,
      "velocity": 1,
      "hand": "left"
    },
    {
      "midi": 49,
      "time": 5.714,
      "duration": 0.089,
      "velocity": 1,
      "hand": "left"
    },
    {
      "midi": 56,
      "time": 5.804,
      "duration": 0.089,
      "velocity": 1,
      "hand": "left"
    },
    {
      "midi": 68,
      "time": 5.804,
      "duration": 0.089,
      "velocity": 1,
      "hand": "right"
    },
    {
      "midi": 69,
      "time": 5.893,
      "duration": 0.089,
      "velocity": 1,
      "hand": "right"
    },
    {
      "midi": 61,
      "time": 5.982,
      "duration": 0.089,
      "velocity": 1,
      "hand": "right"
    },
    {
      "midi": 68,
      "time": 5.982,
      "duration": 0.089,
      "velocity": 1,
      "hand": "right"
    },
    {
      "midi": 64,
      "time": 6.071,
      "duration": 0.089,
      "velocity": 1,
      "hand": "right"
    },
    {
      "midi": 67,
      "time": 6.071,
      "duration": 0.089,
      "velocity": 1,
      "hand": "right"
    },
    {
      "midi": 61,
      "time": 6.161,
      "duration": 0.089,
      "velocity": 1,
      "hand": "right"
    },
    {
      "midi": 68,
      "time": 6.161,
      "duration": 0.089,
      "velocity": 1,
      "hand": "right"
    },
    {
      "midi": 73,
      "time": 6.25,
      "duration": 0.089,
      "velocity": 1,
      "hand": "right"
    },
    {
      "midi": 56,
      "time": 6.339,
      "duration": 0.089,
      "velocity": 1,
      "hand": "left"
    },
    {
      "midi": 76,
      "time": 6.339,
      "duration": 0.089,
      "velocity": 1,
      "hand": "right"
    },
    {
      "midi": 52,
      "time": 6.429,
      "duration": 0.089,
      "velocity": 1,
      "hand": "left"
    },
    {
      "midi": 75,
      "time": 6.429,
      "duration": 0.089,
      "velocity": 1,
      "hand": "right"
    },
    {
      "midi": 56,
      "time": 6.518,
      "duration": 0.089,
      "velocity": 1,
      "hand": "left"
    },
    {
      "midi": 73,
      "time": 6.518,
      "duration": 0.089,
      "velocity": 1,
      "hand": "right"
    },
    {
      "midi": 75,
      "time": 6.607,
      "duration": 0.089,
      "velocity": 1,
      "hand": "right"
    },
    {
      "midi": 61,
      "time": 6.696,
      "duration": 0.089,
      "velocity": 1,
      "hand": "right"
    },
    {
      "midi": 73,
      "time": 6.696,
      "duration": 0.089,
      "velocity": 1,
      "hand": "right"
    },
    {
      "midi": 64,
      "time": 6.786,
      "duration": 0.089,
      "velocity": 1,
      "hand": "right"
    },
    {
      "midi": 72,
      "time": 6.786,
      "duration": 0.089,
      "velocity": 1,
      "hand": "right"
    },
    {
      "midi": 61,
      "time": 6.875,
      "duration": 0.089,
      "velocity": 1,
      "hand": "right"
    },
    {
      "midi": 73,
      "time": 6.875,
      "duration": 0.089,
      "velocity": 1,
      "hand": "right"
    },
    {
      "midi": 76,
      "time": 6.964,
      "duration": 0.089,
      "velocity": 1,
      "hand": "right"
    },
    {
      "midi": 56,
      "time": 7.054,
      "duration": 0.089,
      "velocity": 1,
      "hand": "left"
    },
    {
      "midi": 80,
      "time": 7.054,
      "duration": 0.089,
      "velocity": 1,
      "hand": "right"
    },
    {
      "midi": 49,
      "time": 7.143,
      "duration": 0.089,
      "velocity": 1,
      "hand": "left"
    },
    {
      "midi": 56,
      "time": 7.232,
      "duration": 0.089,
      "velocity": 1,
      "hand": "left"
    },
    {
      "midi": 68,
      "time": 7.232,
      "duration": 0.089,
      "velocity": 1,
      "hand": "right"
    },
    {
      "midi": 69,
      "time": 7.321,
      "duration": 0.089,
      "velocity": 1,
      "hand": "right"
    },
    {
      "midi": 61,
      "time": 7.411,
      "duration": 0.089,
      "velocity": 1,
      "hand": "right"
    },
    {
      "midi": 68,
      "time": 7.411,
      "duration": 0.089,
      "velocity": 1,
      "hand": "right"
    },
    {
      "midi": 64,
      "time": 7.5,
      "duration": 0.089,
      "velocity": 1,
      "hand": "right"
    },
    {
      "midi": 67,
      "time": 7.5,
      "duration": 0.089,
      "velocity": 1,
      "hand": "right"
    },
    {
      "midi": 61,
      "time": 7.589,
      "duration": 0.089,
      "velocity": 1,
      "hand": "right"
    },
    {
      "midi": 68,
      "time": 7.589,
      "duration": 0.089,
      "velocity": 1,
      "hand": "right"
    },
    {
      "midi": 73,
      "time": 7.679,
      "duration": 0.089,
      "velocity": 1,
      "hand": "right"
    },
    {
      "midi": 56,
      "time": 7.768,
      "duration": 0.089,
      "velocity": 1,
      "hand": "left"
    },
    {
      "midi": 76,
      "time": 7.768,
      "duration": 0.089,
      "velocity": 1,
      "hand": "right"
    },
    {
      "midi": 52,
      "time": 7.857,
      "duration": 0.089,
      "velocity": 1,
      "hand": "left"
    },
    {
      "midi": 75,
      "time": 7.857,
      "duration": 0.089,
      "velocity": 1,
      "hand": "right"
    },
    {
      "midi": 56,
      "time": 7.946,
      "duration": 0.089,
      "velocity": 1,
      "hand": "left"
    },
    {
      "midi": 73,
      "time": 7.946,
      "duration": 0.089,
      "velocity": 1,
      "hand": "right"
    },
    {
      "midi": 75,
      "time": 8.036,
      "duration": 0.089,
      "velocity": 1,
      "hand": "right"
    },
    {
      "midi": 61,
      "time": 8.125,
      "duration": 0.089,
      "velocity": 1,
      "hand": "right"
    },
    {
      "midi": 73,
      "time": 8.125,
      "duration": 0.089,
      "velocity": 1,
      "hand": "right"
    },
    {
      "midi": 64,
      "time": 8.214,
      "duration": 0.089,
      "velocity": 1,
      "hand": "right"
    },
    {
      "midi": 72,
      "time": 8.214,
      "duration": 0.089,
      "velocity": 1,
      "hand": "right"
    },
    {
      "midi": 61,
      "time": 8.304,
      "duration": 0.089,
      "velocity": 1,
      "hand": "right"
    },
    {
      "midi": 73,
      "time": 8.304,
      "duration": 0.089,
      "velocity": 1,
      "hand": "right"
    },
    {
      "midi": 76,
      "time": 8.393,
      "duration": 0.089,
      "velocity": 1,
      "hand": "right"
    },
    {
      "midi": 56,
      "time": 8.482,
      "duration": 0.089,
      "velocity": 1,
      "hand": "left"
    },
    {
      "midi": 80,
      "time": 8.482,
      "duration": 0.089,
      "velocity": 1,
      "hand": "right"
    },
    {
      "midi": 51,
      "time": 8.571,
      "duration": 0.089,
      "velocity": 1,
      "hand": "left"
    },
    {
      "midi": 57,
      "time": 8.661,
      "duration": 0.089,
      "velocity": 1,
      "hand": "left"
    },
    {
      "midi": 69,
      "time": 8.661,
      "duration": 0.089,
      "velocity": 1,
      "hand": "right"
    },
    {
      "midi": 73,
      "time": 8.75,
      "duration": 0.089,
      "velocity": 1,
      "hand": "right"
    },
    {
      "midi": 61,
      "time": 8.839,
      "duration": 0.089,
      "velocity": 1,
      "hand": "right"
    },
    {
      "midi": 75,
      "time": 8.839,
      "duration": 0.089,
      "velocity": 1,
      "hand": "right"
    },
    {
      "midi": 66,
      "time": 8.929,
      "duration": 0.089,
      "velocity": 1,
      "hand": "right"
    },
    {
      "midi": 78,
      "time": 8.929,
      "duration": 0.089,
      "velocity": 1,
      "hand": "right"
    },
    {
      "midi": 61,
      "time": 9.018,
      "duration": 0.089,
      "velocity": 1,
      "hand": "right"
    },
    {
      "midi": 81,
      "time": 9.018,
      "duration": 0.089,
      "velocity": 1,
      "hand": "right"
    },
    {
      "midi": 85,
      "time": 9.107,
      "duration": 0.089,
      "velocity": 1,
      "hand": "right"
    },
    {
      "midi": 57,
      "time": 9.196,
      "duration": 0.089,
      "velocity": 1,
      "hand": "left"
    },
    {
      "midi": 87,
      "time": 9.196,
      "duration": 0.089,
      "velocity": 1,
      "hand": "right"
    },
    {
      "midi": 54,
      "time": 9.286,
      "duration": 0.089,
      "velocity": 1,
      "hand": "left"
    },
    {
      "midi": 95,
      "time": 9.286,
      "duration": 0.089,
      "velocity": 1,
      "hand": "right"
    },
    {
      "midi": 61,
      "time": 9.375,
      "duration": 0.089,
      "velocity": 1,
      "hand": "right"
    },
    {
      "midi": 93,
      "time": 9.375,
      "duration": 0.089,
      "velocity": 1,
      "hand": "right"
    },
    {
      "midi": 92,
      "time": 9.464,
      "duration": 0.089,
      "velocity": 1,
      "hand": "right"
    },
    {
      "midi": 63,
      "time": 9.554,
      "duration": 0.089,
      "velocity": 1,
      "hand": "right"
    },
    {
      "midi": 90,
      "time": 9.554,
      "duration": 0.089,
      "velocity": 1,
      "hand": "right"
    },
    {
      "midi": 69,
      "time": 9.643,
      "duration": 0.089,
      "velocity": 1,
      "hand": "right"
    },
    {
      "midi": 88,
      "time": 9.643,
      "duration": 0.089,
      "velocity": 1,
      "hand": "right"
    },
    {
      "midi": 63,
      "time": 9.732,
      "duration": 0.089,
      "velocity": 1,
      "hand": "right"
    },
    {
      "midi": 87,
      "time": 9.732,
      "duration": 0.089,
      "velocity": 1,
      "hand": "right"
    },
    {
      "midi": 90,
      "time": 9.821,
      "duration": 0.089,
      "velocity": 1,
      "hand": "right"
    },
    {
      "midi": 61,
      "time": 9.911,
      "duration": 0.089,
      "velocity": 1,
      "hand": "right"
    },
    {
      "midi": 85,
      "time": 9.911,
      "duration": 0.089,
      "velocity": 1,
      "hand": "right"
    },
    {
      "midi": 44,
      "time": 10,
      "duration": 0.089,
      "velocity": 1,
      "hand": "left"
    },
    {
      "midi": 84,
      "time": 10,
      "duration": 0.089,
      "velocity": 1,
      "hand": "right"
    },
    {
      "midi": 51,
      "time": 10.089,
      "duration": 0.089,
      "velocity": 1,
      "hand": "left"
    },
    {
      "midi": 87,
      "time": 10.089,
      "duration": 0.089,
      "velocity": 1,
      "hand": "right"
    },
    {
      "midi": 81,
      "time": 10.179,
      "duration": 0.089,
      "velocity": 1,
      "hand": "right"
    },
    {
      "midi": 54,
      "time": 10.268,
      "duration": 0.089,
      "velocity": 1,
      "hand": "left"
    },
    {
      "midi": 80,
      "time": 10.268,
      "duration": 0.089,
      "velocity": 1,
      "hand": "right"
    },
    {
      "midi": 60,
      "time": 10.357,
      "duration": 0.089,
      "velocity": 1,
      "hand": "right"
    },
    {
      "midi": 78,
      "time": 10.357,
      "duration": 0.089,
      "velocity": 1,
      "hand": "right"
    },
    {
      "midi": 54,
      "time": 10.446,
      "duration": 0.089,
      "velocity": 1,
      "hand": "left"
    },
    {
      "midi": 81,
      "time": 10.446,
      "duration": 0.089,
      "velocity": 1,
      "hand": "right"
    },
    {
      "midi": 76,
      "time": 10.536,
      "duration": 0.089,
      "velocity": 1,
      "hand": "right"
    },
    {
      "midi": 51,
      "time": 10.625,
      "duration": 0.089,
      "velocity": 1,
      "hand": "left"
    },
    {
      "midi": 75,
      "time": 10.625,
      "duration": 0.089,
      "velocity": 1,
      "hand": "right"
    },
    {
      "midi": 44,
      "time": 10.714,
      "duration": 0.089,
      "velocity": 1,
      "hand": "left"
    },
    {
      "midi": 78,
      "time": 10.714,
      "duration": 0.089,
      "velocity": 1,
      "hand": "right"
    },
    {
      "midi": 51,
      "time": 10.804,
      "duration": 0.089,
      "velocity": 1,
      "hand": "left"
    },
    {
      "midi": 73,
      "time": 10.804,
      "duration": 0.089,
      "velocity": 1,
      "hand": "right"
    },
    {
      "midi": 72,
      "time": 10.893,
      "duration": 0.089,
      "velocity": 1,
      "hand": "right"
    },
    {
      "midi": 54,
      "time": 10.982,
      "duration": 0.089,
      "velocity": 1,
      "hand": "left"
    },
    {
      "midi": 75,
      "time": 10.982,
      "duration": 0.089,
      "velocity": 1,
      "hand": "right"
    },
    {
      "midi": 60,
      "time": 11.071,
      "duration": 0.089,
      "velocity": 1,
      "hand": "right"
    },
    {
      "midi": 69,
      "time": 11.071,
      "duration": 0.089,
      "velocity": 1,
      "hand": "right"
    },
    {
      "midi": 54,
      "time": 11.161,
      "duration": 0.089,
      "velocity": 1,
      "hand": "left"
    },
    {
      "midi": 68,
      "time": 11.161,
      "duration": 0.089,
      "velocity": 1,
      "hand": "right"
    },
    {
      "midi": 71,
      "time": 11.25,
      "duration": 0.089,
      "velocity": 1,
      "hand": "right"
    },
    {
      "midi": 51,
      "time": 11.339,
      "duration": 0.089,
      "velocity": 1,
      "hand": "left"
    },
    {
      "midi": 69,
      "time": 11.339,
      "duration": 0.179,
      "velocity": 1,
      "hand": "right"
    },
    {
      "midi": 49,
      "time": 11.429,
      "duration": 0.089,
      "velocity": 1,
      "hand": "left"
    },
    {
      "midi": 56,
      "time": 11.518,
      "duration": 0.089,
      "velocity": 1,
      "hand": "left"
    },
    {
      "midi": 68,
      "time": 11.518,
      "duration": 0.089,
      "velocity": 1,
      "hand": "right"
    },
    {
      "midi": 69,
      "time": 11.607,
      "duration": 0.089,
      "velocity": 1,
      "hand": "right"
    },
    {
      "midi": 61,
      "time": 11.696,
      "duration": 0.089,
      "velocity": 1,
      "hand": "right"
    },
    {
      "midi": 68,
      "time": 11.696,
      "duration": 0.089,
      "velocity": 1,
      "hand": "right"
    },
    {
      "midi": 64,
      "time": 11.786,
      "duration": 0.089,
      "velocity": 1,
      "hand": "right"
    },
    {
      "midi": 67,
      "time": 11.786,
      "duration": 0.089,
      "velocity": 1,
      "hand": "right"
    },
    {
      "midi": 61,
      "time": 11.875,
      "duration": 0.089,
      "velocity": 1,
      "hand": "right"
    },
    {
      "midi": 68,
      "time": 11.875,
      "duration": 0.089,
      "velocity": 1,
      "hand": "right"
    },
    {
      "midi": 73,
      "time": 11.964,
      "duration": 0.089,
      "velocity": 1,
      "hand": "right"
    },
    {
      "midi": 56,
      "time": 12.054,
      "duration": 0.089,
      "velocity": 1,
      "hand": "left"
    },
    {
      "midi": 76,
      "time": 12.054,
      "duration": 0.089,
      "velocity": 1,
      "hand": "right"
    },
    {
      "midi": 52,
      "time": 12.143,
      "duration": 0.089,
      "velocity": 1,
      "hand": "left"
    },
    {
      "midi": 75,
      "time": 12.143,
      "duration": 0.089,
      "velocity": 1,
      "hand": "right"
    },
    {
      "midi": 56,
      "time": 12.232,
      "duration": 0.089,
      "velocity": 1,
      "hand": "left"
    },
    {
      "midi": 73,
      "time": 12.232,
      "duration": 0.089,
      "velocity": 1,
      "hand": "right"
    },
    {
      "midi": 75,
      "time": 12.321,
      "duration": 0.089,
      "velocity": 1,
      "hand": "right"
    },
    {
      "midi": 61,
      "time": 12.411,
      "duration": 0.089,
      "velocity": 1,
      "hand": "right"
    },
    {
      "midi": 73,
      "time": 12.411,
      "duration": 0.089,
      "velocity": 1,
      "hand": "right"
    },
    {
      "midi": 64,
      "time": 12.5,
      "duration": 0.089,
      "velocity": 1,
      "hand": "right"
    },
    {
      "midi": 72,
      "time": 12.5,
      "duration": 0.089,
      "velocity": 1,
      "hand": "right"
    },
    {
      "midi": 61,
      "time": 12.589,
      "duration": 0.089,
      "velocity": 1,
      "hand": "right"
    },
    {
      "midi": 73,
      "time": 12.589,
      "duration": 0.089,
      "velocity": 1,
      "hand": "right"
    },
    {
      "midi": 76,
      "time": 12.679,
      "duration": 0.089,
      "velocity": 1,
      "hand": "right"
    },
    {
      "midi": 56,
      "time": 12.768,
      "duration": 0.089,
      "velocity": 1,
      "hand": "left"
    },
    {
      "midi": 80,
      "time": 12.768,
      "duration": 0.089,
      "velocity": 1,
      "hand": "right"
    },
    {
      "midi": 49,
      "time": 12.857,
      "duration": 0.089,
      "velocity": 1,
      "hand": "left"
    },
    {
      "midi": 56,
      "time": 12.946,
      "duration": 0.089,
      "velocity": 1,
      "hand": "left"
    },
    {
      "midi": 68,
      "time": 12.946,
      "duration": 0.089,
      "velocity": 1,
      "hand": "right"
    },
    {
      "midi": 70,
      "time": 13.036,
      "duration": 0.089,
      "velocity": 1,
      "hand": "right"
    },
    {
      "midi": 58,
      "time": 13.125,
      "duration": 0.089,
      "velocity": 1,
      "hand": "left"
    },
    {
      "midi": 68,
      "time": 13.125,
      "duration": 0.089,
      "velocity": 1,
      "hand": "right"
    },
    {
      "midi": 64,
      "time": 13.214,
      "duration": 0.089,
      "velocity": 1,
      "hand": "right"
    },
    {
      "midi": 67,
      "time": 13.214,
      "duration": 0.089,
      "velocity": 1,
      "hand": "right"
    },
    {
      "midi": 58,
      "time": 13.304,
      "duration": 0.089,
      "velocity": 1,
      "hand": "left"
    },
    {
      "midi": 68,
      "time": 13.304,
      "duration": 0.089,
      "velocity": 1,
      "hand": "right"
    },
    {
      "midi": 73,
      "time": 13.393,
      "duration": 0.089,
      "velocity": 1,
      "hand": "right"
    },
    {
      "midi": 56,
      "time": 13.482,
      "duration": 0.089,
      "velocity": 1,
      "hand": "left"
    },
    {
      "midi": 76,
      "time": 13.482,
      "duration": 0.089,
      "velocity": 1,
      "hand": "right"
    },
    {
      "midi": 52,
      "time": 13.571,
      "duration": 0.089,
      "velocity": 1,
      "hand": "left"
    },
    {
      "midi": 75,
      "time": 13.571,
      "duration": 0.089,
      "velocity": 1,
      "hand": "right"
    },
    {
      "midi": 56,
      "time": 13.661,
      "duration": 0.089,
      "velocity": 1,
      "hand": "left"
    },
    {
      "midi": 73,
      "time": 13.661,
      "duration": 0.089,
      "velocity": 1,
      "hand": "right"
    },
    {
      "midi": 75,
      "time": 13.75,
      "duration": 0.089,
      "velocity": 1,
      "hand": "right"
    },
    {
      "midi": 58,
      "time": 13.839,
      "duration": 0.089,
      "velocity": 1,
      "hand": "left"
    },
    {
      "midi": 73,
      "time": 13.839,
      "duration": 0.089,
      "velocity": 1,
      "hand": "right"
    },
    {
      "midi": 61,
      "time": 13.929,
      "duration": 0.089,
      "velocity": 1,
      "hand": "right"
    },
    {
      "midi": 72,
      "time": 13.929,
      "duration": 0.089,
      "velocity": 1,
      "hand": "right"
    },
    {
      "midi": 58,
      "time": 14.018,
      "duration": 0.089,
      "velocity": 1,
      "hand": "left"
    },
    {
      "midi": 73,
      "time": 14.018,
      "duration": 0.089,
      "velocity": 1,
      "hand": "right"
    },
    {
      "midi": 76,
      "time": 14.107,
      "duration": 0.089,
      "velocity": 1,
      "hand": "right"
    },
    {
      "midi": 56,
      "time": 14.196,
      "duration": 0.089,
      "velocity": 1,
      "hand": "left"
    },
    {
      "midi": 80,
      "time": 14.196,
      "duration": 0.089,
      "velocity": 1,
      "hand": "right"
    },
    {
      "midi": 51,
      "time": 14.286,
      "duration": 0.089,
      "velocity": 1,
      "hand": "left"
    },
    {
      "midi": 75,
      "time": 14.286,
      "duration": 0.089,
      "velocity": 1,
      "hand": "right"
    },
    {
      "midi": 56,
      "time": 14.375,
      "duration": 0.089,
      "velocity": 1,
      "hand": "left"
    },
    {
      "midi": 76,
      "time": 14.375,
      "duration": 0.089,
      "velocity": 1,
      "hand": "right"
    },
    {
      "midi": 75,
      "time": 14.464,
      "duration": 0.089,
      "velocity": 1,
      "hand": "right"
    },
    {
      "midi": 59,
      "time": 14.554,
      "duration": 0.089,
      "velocity": 1,
      "hand": "left"
    },
    {
      "midi": 74,
      "time": 14.554,
      "duration": 0.089,
      "velocity": 1,
      "hand": "right"
    },
    {
      "midi": 63,
      "time": 14.643,
      "duration": 0.089,
      "velocity": 1,
      "hand": "right"
    },
    {
      "midi": 75,
      "time": 14.643,
      "duration": 0.089,
      "velocity": 1,
      "hand": "right"
    },
    {
      "midi": 59,
      "time": 14.732,
      "duration": 0.089,
      "velocity": 1,
      "hand": "left"
    },
    {
      "midi": 83,
      "time": 14.732,
      "duration": 0.089,
      "velocity": 1,
      "hand": "right"
    },
    {
      "midi": 82,
      "time": 14.821,
      "duration": 0.089,
      "velocity": 1,
      "hand": "right"
    },
    {
      "midi": 56,
      "time": 14.911,
      "duration": 0.089,
      "velocity": 1,
      "hand": "left"
    },
    {
      "midi": 80,
      "time": 14.911,
      "duration": 0.089,
      "velocity": 1,
      "hand": "right"
    },
    {
      "midi": 51,
      "time": 15,
      "duration": 0.089,
      "velocity": 1,
      "hand": "left"
    },
    {
      "midi": 79,
      "time": 15,
      "duration": 0.089,
      "velocity": 1,
      "hand": "right"
    },
    {
      "midi": 58,
      "time": 15.089,
      "duration": 0.089,
      "velocity": 1,
      "hand": "left"
    },
    {
      "midi": 88,
      "time": 15.089,
      "duration": 0.089,
      "velocity": 1,
      "hand": "right"
    },
    {
      "midi": 87,
      "time": 15.179,
      "duration": 0.089,
      "velocity": 1,
      "hand": "right"
    },
    {
      "midi": 61,
      "time": 15.268,
      "duration": 0.089,
      "velocity": 1,
      "hand": "right"
    },
    {
      "midi": 85,
      "time": 15.268,
      "duration": 0.089,
      "velocity": 1,
      "hand": "right"
    },
    {
      "midi": 67,
      "time": 15.357,
      "duration": 0.089,
      "velocity": 1,
      "hand": "right"
    },
    {
      "midi": 83,
      "time": 15.357,
      "duration": 0.089,
      "velocity": 1,
      "hand": "right"
    },
    {
      "midi": 61,
      "time": 15.446,
      "duration": 0.089,
      "velocity": 1,
      "hand": "right"
    },
    {
      "midi": 82,
      "time": 15.446,
      "duration": 0.089,
      "velocity": 1,
      "hand": "right"
    },
    {
      "midi": 80,
      "time": 15.536,
      "duration": 0.089,
      "velocity": 1,
      "hand": "right"
    },
    {
      "midi": 58,
      "time": 15.625,
      "duration": 0.089,
      "velocity": 1,
      "hand": "left"
    },
    {
      "midi": 79,
      "time": 15.625,
      "duration": 0.089,
      "velocity": 1,
      "hand": "right"
    },
    {
      "midi": 44,
      "time": 15.714,
      "duration": 0.089,
      "velocity": 1,
      "hand": "left"
    },
    {
      "midi": 82,
      "time": 15.714,
      "duration": 0.089,
      "velocity": 1,
      "hand": "right"
    },
    {
      "midi": 51,
      "time": 15.804,
      "duration": 0.089,
      "velocity": 1,
      "hand": "left"
    },
    {
      "midi": 80,
      "time": 15.804,
      "duration": 0.089,
      "velocity": 1,
      "hand": "right"
    },
    {
      "midi": 83,
      "time": 15.893,
      "duration": 0.089,
      "velocity": 1,
      "hand": "right"
    },
    {
      "midi": 56,
      "time": 15.982,
      "duration": 0.089,
      "velocity": 1,
      "hand": "left"
    },
    {
      "midi": 74,
      "time": 15.982,
      "duration": 0.089,
      "velocity": 1,
      "hand": "right"
    },
    {
      "midi": 59,
      "time": 16.071,
      "duration": 0.089,
      "velocity": 1,
      "hand": "left"
    },
    {
      "midi": 76,
      "time": 16.071,
      "duration": 0.089,
      "velocity": 1,
      "hand": "right"
    },
    {
      "midi": 56,
      "time": 16.161,
      "duration": 0.089,
      "velocity": 1,
      "hand": "left"
    },
    {
      "midi": 75,
      "time": 16.161,
      "duration": 0.089,
      "velocity": 1,
      "hand": "right"
    },
    {
      "midi": 80,
      "time": 16.25,
      "duration": 0.089,
      "velocity": 1,
      "hand": "right"
    },
    {
      "midi": 51,
      "time": 16.339,
      "duration": 0.089,
      "velocity": 1,
      "hand": "left"
    },
    {
      "midi": 70,
      "time": 16.339,
      "duration": 0.089,
      "velocity": 1,
      "hand": "right"
    },
    {
      "midi": 44,
      "time": 16.429,
      "duration": 0.089,
      "velocity": 1,
      "hand": "left"
    },
    {
      "midi": 73,
      "time": 16.429,
      "duration": 0.089,
      "velocity": 1,
      "hand": "right"
    },
    {
      "midi": 51,
      "time": 16.518,
      "duration": 0.089,
      "velocity": 1,
      "hand": "left"
    },
    {
      "midi": 71,
      "time": 16.518,
      "duration": 0.089,
      "velocity": 1,
      "hand": "right"
    },
    {
      "midi": 75,
      "time": 16.607,
      "duration": 0.089,
      "velocity": 1,
      "hand": "right"
    },
    {
      "midi": 56,
      "time": 16.696,
      "duration": 0.089,
      "velocity": 1,
      "hand": "left"
    },
    {
      "midi": 67,
      "time": 16.696,
      "duration": 0.089,
      "velocity": 1,
      "hand": "right"
    },
    {
      "midi": 59,
      "time": 16.786,
      "duration": 0.089,
      "velocity": 1,
      "hand": "left"
    },
    {
      "midi": 70,
      "time": 16.786,
      "duration": 0.089,
      "velocity": 1,
      "hand": "right"
    },
    {
      "midi": 56,
      "time": 16.875,
      "duration": 0.089,
      "velocity": 1,
      "hand": "left"
    },
    {
      "midi": 68,
      "time": 16.875,
      "duration": 0.089,
      "velocity": 1,
      "hand": "right"
    },
    {
      "midi": 67,
      "time": 16.964,
      "duration": 0.089,
      "velocity": 1,
      "hand": "right"
    },
    {
      "midi": 51,
      "time": 17.054,
      "duration": 0.089,
      "velocity": 1,
      "hand": "left"
    },
    {
      "midi": 68,
      "time": 17.054,
      "duration": 0.089,
      "velocity": 1,
      "hand": "right"
    },
    {
      "midi": 45,
      "time": 17.143,
      "duration": 0.089,
      "velocity": 1,
      "hand": "left"
    },
    {
      "midi": 68,
      "time": 17.143,
      "duration": 0.089,
      "velocity": 1,
      "hand": "right"
    },
    {
      "midi": 49,
      "time": 17.232,
      "duration": 0.089,
      "velocity": 1,
      "hand": "left"
    },
    {
      "midi": 80,
      "time": 17.232,
      "duration": 0.089,
      "velocity": 1,
      "hand": "right"
    },
    {
      "midi": 72,
      "time": 17.321,
      "duration": 0.089,
      "velocity": 1,
      "hand": "right"
    },
    {
      "midi": 54,
      "time": 17.411,
      "duration": 0.089,
      "velocity": 1,
      "hand": "left"
    },
    {
      "midi": 73,
      "time": 17.411,
      "duration": 0.089,
      "velocity": 1,
      "hand": "right"
    },
    {
      "midi": 57,
      "time": 17.5,
      "duration": 0.089,
      "velocity": 1,
      "hand": "left"
    },
    {
      "midi": 66,
      "time": 17.5,
      "duration": 0.089,
      "velocity": 1,
      "hand": "right"
    },
    {
      "midi": 54,
      "time": 17.589,
      "duration": 0.089,
      "velocity": 1,
      "hand": "left"
    },
    {
      "midi": 78,
      "time": 17.589,
      "duration": 0.089,
      "velocity": 1,
      "hand": "right"
    },
    {
      "midi": 72,
      "time": 17.679,
      "duration": 0.089,
      "velocity": 1,
      "hand": "right"
    },
    {
      "midi": 49,
      "time": 17.768,
      "duration": 0.089,
      "velocity": 1,
      "hand": "left"
    },
    {
      "midi": 73,
      "time": 17.768,
      "duration": 0.089,
      "velocity": 1,
      "hand": "right"
    },
    {
      "midi": 45,
      "time": 17.857,
      "duration": 0.089,
      "velocity": 1,
      "hand": "left"
    },
    {
      "midi": 65,
      "time": 17.857,
      "duration": 0.089,
      "velocity": 1,
      "hand": "right"
    },
    {
      "midi": 49,
      "time": 17.946,
      "duration": 0.089,
      "velocity": 1,
      "hand": "left"
    },
    {
      "midi": 77,
      "time": 17.946,
      "duration": 0.089,
      "velocity": 1,
      "hand": "right"
    },
    {
      "midi": 72,
      "time": 18.036,
      "duration": 0.089,
      "velocity": 1,
      "hand": "right"
    },
    {
      "midi": 54,
      "time": 18.125,
      "duration": 0.089,
      "velocity": 1,
      "hand": "left"
    },
    {
      "midi": 73,
      "time": 18.125,
      "duration": 0.089,
      "velocity": 1,
      "hand": "right"
    },
    {
      "midi": 57,
      "time": 18.214,
      "duration": 0.089,
      "velocity": 1,
      "hand": "left"
    },
    {
      "midi": 66,
      "time": 18.214,
      "duration": 0.089,
      "velocity": 1,
      "hand": "right"
    },
    {
      "midi": 54,
      "time": 18.304,
      "duration": 0.089,
      "velocity": 1,
      "hand": "left"
    },
    {
      "midi": 78,
      "time": 18.304,
      "duration": 0.089,
      "velocity": 1,
      "hand": "right"
    },
    {
      "midi": 72,
      "time": 18.393,
      "duration": 0.089,
      "velocity": 1,
      "hand": "right"
    },
    {
      "midi": 49,
      "time": 18.482,
      "duration": 0.089,
      "velocity": 1,
      "hand": "left"
    },
    {
      "midi": 73,
      "time": 18.482,
      "duration": 0.089,
      "velocity": 1,
      "hand": "right"
    },
    {
      "midi": 47,
      "time": 18.571,
      "duration": 0.089,
      "velocity": 1,
      "hand": "left"
    },
    {
      "midi": 61,
      "time": 18.571,
      "duration": 0.089,
      "velocity": 1,
      "hand": "right"
    },
    {
      "midi": 54,
      "time": 18.661,
      "duration": 0.089,
      "velocity": 1,
      "hand": "left"
    },
    {
      "midi": 73,
      "time": 18.661,
      "duration": 0.089,
      "velocity": 1,
      "hand": "right"
    },
    {
      "midi": 66,
      "time": 18.75,
      "duration": 0.089,
      "velocity": 1,
      "hand": "right"
    },
    {
      "midi": 57,
      "time": 18.839,
      "duration": 0.089,
      "velocity": 1,
      "hand": "left"
    },
    {
      "midi": 69,
      "time": 18.839,
      "duration": 0.089,
      "velocity": 1,
      "hand": "right"
    },
    {
      "midi": 59,
      "time": 18.929,
      "duration": 0.089,
      "velocity": 1,
      "hand": "left"
    },
    {
      "midi": 63,
      "time": 18.929,
      "duration": 0.089,
      "velocity": 1,
      "hand": "right"
    },
    {
      "midi": 57,
      "time": 19.018,
      "duration": 0.089,
      "velocity": 1,
      "hand": "left"
    },
    {
      "midi": 75,
      "time": 19.018,
      "duration": 0.089,
      "velocity": 1,
      "hand": "right"
    },
    {
      "midi": 66,
      "time": 19.107,
      "duration": 0.089,
      "velocity": 1,
      "hand": "right"
    },
    {
      "midi": 54,
      "time": 19.196,
      "duration": 0.089,
      "velocity": 1,
      "hand": "left"
    },
    {
      "midi": 69,
      "time": 19.196,
      "duration": 0.089,
      "velocity": 1,
      "hand": "right"
    },
    {
      "midi": 40,
      "time": 19.286,
      "duration": 0.089,
      "velocity": 1,
      "hand": "left"
    },
    {
      "midi": 64,
      "time": 19.286,
      "duration": 0.089,
      "velocity": 1,
      "hand": "right"
    },
    {
      "midi": 47,
      "time": 19.375,
      "duration": 0.089,
      "velocity": 1,
      "hand": "left"
    },
    {
      "midi": 76,
      "time": 19.375,
      "duration": 0.089,
      "velocity": 1,
      "hand": "right"
    },
    {
      "midi": 68,
      "time": 19.464,
      "duration": 0.089,
      "velocity": 1,
      "hand": "right"
    },
    {
      "midi": 52,
      "time": 19.554,
      "duration": 0.089,
      "velocity": 1,
      "hand": "left"
    },
    {
      "midi": 71,
      "time": 19.554,
      "duration": 0.089,
      "velocity": 1,
      "hand": "right"
    },
    {
      "midi": 56,
      "time": 19.643,
      "duration": 0.089,
      "velocity": 1,
      "hand": "left"
    },
    {
      "midi": 68,
      "time": 19.643,
      "duration": 0.089,
      "velocity": 1,
      "hand": "right"
    },
    {
      "midi": 52,
      "time": 19.732,
      "duration": 0.089,
      "velocity": 1,
      "hand": "left"
    },
    {
      "midi": 80,
      "time": 19.732,
      "duration": 0.089,
      "velocity": 1,
      "hand": "right"
    },
    {
      "midi": 71,
      "time": 19.821,
      "duration": 0.089,
      "velocity": 1,
      "hand": "right"
    },
    {
      "midi": 47,
      "time": 19.911,
      "duration": 0.089,
      "velocity": 1,
      "hand": "left"
    },
    {
      "midi": 76,
      "time": 19.911,
      "duration": 0.089,
      "velocity": 1,
      "hand": "right"
    },
    {
      "midi": 45,
      "time": 20,
      "duration": 0.089,
      "velocity": 1,
      "hand": "left"
    },
    {
      "midi": 68,
      "time": 20,
      "duration": 0.089,
      "velocity": 1,
      "hand": "right"
    },
    {
      "midi": 49,
      "time": 20.089,
      "duration": 0.089,
      "velocity": 1,
      "hand": "left"
    },
    {
      "midi": 80,
      "time": 20.089,
      "duration": 0.089,
      "velocity": 1,
      "hand": "right"
    },
    {
      "midi": 72,
      "time": 20.179,
      "duration": 0.089,
      "velocity": 1,
      "hand": "right"
    },
    {
      "midi": 54,
      "time": 20.268,
      "duration": 0.089,
      "velocity": 1,
      "hand": "left"
    },
    {
      "midi": 73,
      "time": 20.268,
      "duration": 0.089,
      "velocity": 1,
      "hand": "right"
    },
    {
      "midi": 57,
      "time": 20.357,
      "duration": 0.089,
      "velocity": 1,
      "hand": "left"
    },
    {
      "midi": 66,
      "time": 20.357,
      "duration": 0.089,
      "velocity": 1,
      "hand": "right"
    },
    {
      "midi": 54,
      "time": 20.446,
      "duration": 0.089,
      "velocity": 1,
      "hand": "left"
    },
    {
      "midi": 78,
      "time": 20.446,
      "duration": 0.089,
      "velocity": 1,
      "hand": "right"
    },
    {
      "midi": 72,
      "time": 20.536,
      "duration": 0.089,
      "velocity": 1,
      "hand": "right"
    },
    {
      "midi": 49,
      "time": 20.625,
      "duration": 0.089,
      "velocity": 1,
      "hand": "left"
    },
    {
      "midi": 73,
      "time": 20.625,
      "duration": 0.089,
      "velocity": 1,
      "hand": "right"
    },
    {
      "midi": 45,
      "time": 20.714,
      "duration": 0.089,
      "velocity": 1,
      "hand": "left"
    },
    {
      "midi": 65,
      "time": 20.714,
      "duration": 0.089,
      "velocity": 1,
      "hand": "right"
    },
    {
      "midi": 49,
      "time": 20.804,
      "duration": 0.089,
      "velocity": 1,
      "hand": "left"
    },
    {
      "midi": 77,
      "time": 20.804,
      "duration": 0.089,
      "velocity": 1,
      "hand": "right"
    },
    {
      "midi": 72,
      "time": 20.893,
      "duration": 0.089,
      "velocity": 1,
      "hand": "right"
    },
    {
      "midi": 54,
      "time": 20.982,
      "duration": 0.089,
      "velocity": 1,
      "hand": "left"
    },
    {
      "midi": 73,
      "time": 20.982,
      "duration": 0.089,
      "velocity": 1,
      "hand": "right"
    },
    {
      "midi": 57,
      "time": 21.071,
      "duration": 0.089,
      "velocity": 1,
      "hand": "left"
    },
    {
      "midi": 66,
      "time": 21.071,
      "duration": 0.089,
      "velocity": 1,
      "hand": "right"
    },
    {
      "midi": 54,
      "time": 21.161,
      "duration": 0.089,
      "velocity": 1,
      "hand": "left"
    },
    {
      "midi": 78,
      "time": 21.161,
      "duration": 0.089,
      "velocity": 1,
      "hand": "right"
    },
    {
      "midi": 72,
      "time": 21.25,
      "duration": 0.089,
      "velocity": 1,
      "hand": "right"
    },
    {
      "midi": 49,
      "time": 21.339,
      "duration": 0.089,
      "velocity": 1,
      "hand": "left"
    },
    {
      "midi": 73,
      "time": 21.339,
      "duration": 0.089,
      "velocity": 1,
      "hand": "right"
    },
    {
      "midi": 47,
      "time": 21.429,
      "duration": 0.089,
      "velocity": 1,
      "hand": "left"
    },
    {
      "midi": 65,
      "time": 21.429,
      "duration": 0.089,
      "velocity": 1,
      "hand": "right"
    },
    {
      "midi": 54,
      "time": 21.518,
      "duration": 0.089,
      "velocity": 1,
      "hand": "left"
    },
    {
      "midi": 77,
      "time": 21.518,
      "duration": 0.089,
      "velocity": 1,
      "hand": "right"
    },
    {
      "midi": 71,
      "time": 21.607,
      "duration": 0.089,
      "velocity": 1,
      "hand": "right"
    },
    {
      "midi": 57,
      "time": 21.696,
      "duration": 0.089,
      "velocity": 1,
      "hand": "left"
    },
    {
      "midi": 75,
      "time": 21.696,
      "duration": 0.089,
      "velocity": 1,
      "hand": "right"
    },
    {
      "midi": 59,
      "time": 21.786,
      "duration": 0.089,
      "velocity": 1,
      "hand": "left"
    },
    {
      "midi": 66,
      "time": 21.786,
      "duration": 0.089,
      "velocity": 1,
      "hand": "right"
    },
    {
      "midi": 57,
      "time": 21.875,
      "duration": 0.089,
      "velocity": 1,
      "hand": "left"
    },
    {
      "midi": 78,
      "time": 21.875,
      "duration": 0.089,
      "velocity": 1,
      "hand": "right"
    },
    {
      "midi": 71,
      "time": 21.964,
      "duration": 0.089,
      "velocity": 1,
      "hand": "right"
    },
    {
      "midi": 54,
      "time": 22.054,
      "duration": 0.089,
      "velocity": 1,
      "hand": "left"
    },
    {
      "midi": 75,
      "time": 22.054,
      "duration": 0.089,
      "velocity": 1,
      "hand": "right"
    },
    {
      "midi": 40,
      "time": 22.143,
      "duration": 0.089,
      "velocity": 1,
      "hand": "left"
    },
    {
      "midi": 69,
      "time": 22.143,
      "duration": 0.089,
      "velocity": 1,
      "hand": "right"
    },
    {
      "midi": 47,
      "time": 22.232,
      "duration": 0.089,
      "velocity": 1,
      "hand": "left"
    },
    {
      "midi": 81,
      "time": 22.232,
      "duration": 0.089,
      "velocity": 1,
      "hand": "right"
    },
    {
      "midi": 71,
      "time": 22.321,
      "duration": 0.089,
      "velocity": 1,
      "hand": "right"
    },
    {
      "midi": 52,
      "time": 22.411,
      "duration": 0.089,
      "velocity": 1,
      "hand": "left"
    },
    {
      "midi": 76,
      "time": 22.411,
      "duration": 0.089,
      "velocity": 1,
      "hand": "right"
    },
    {
      "midi": 56,
      "time": 22.5,
      "duration": 0.089,
      "velocity": 1,
      "hand": "left"
    },
    {
      "midi": 68,
      "time": 22.5,
      "duration": 0.089,
      "velocity": 1,
      "hand": "right"
    },
    {
      "midi": 52,
      "time": 22.589,
      "duration": 0.089,
      "velocity": 1,
      "hand": "left"
    },
    {
      "midi": 80,
      "time": 22.589,
      "duration": 0.089,
      "velocity": 1,
      "hand": "right"
    },
    {
      "midi": 71,
      "time": 22.679,
      "duration": 0.089,
      "velocity": 1,
      "hand": "right"
    },
    {
      "midi": 47,
      "time": 22.768,
      "duration": 0.089,
      "velocity": 1,
      "hand": "left"
    },
    {
      "midi": 76,
      "time": 22.768,
      "duration": 0.089,
      "velocity": 1,
      "hand": "right"
    },
    {
      "midi": 45,
      "time": 22.857,
      "duration": 0.089,
      "velocity": 1,
      "hand": "left"
    },
    {
      "midi": 68,
      "time": 22.857,
      "duration": 0.089,
      "velocity": 1,
      "hand": "right"
    },
    {
      "midi": 49,
      "time": 22.946,
      "duration": 0.089,
      "velocity": 1,
      "hand": "left"
    },
    {
      "midi": 80,
      "time": 22.946,
      "duration": 0.089,
      "velocity": 1,
      "hand": "right"
    },
    {
      "midi": 72,
      "time": 23.036,
      "duration": 0.089,
      "velocity": 1,
      "hand": "right"
    },
    {
      "midi": 54,
      "time": 23.125,
      "duration": 0.089,
      "velocity": 1,
      "hand": "left"
    },
    {
      "midi": 73,
      "time": 23.125,
      "duration": 0.089,
      "velocity": 1,
      "hand": "right"
    },
    {
      "midi": 57,
      "time": 23.214,
      "duration": 0.089,
      "velocity": 1,
      "hand": "left"
    },
    {
      "midi": 66,
      "time": 23.214,
      "duration": 0.089,
      "velocity": 1,
      "hand": "right"
    },
    {
      "midi": 54,
      "time": 23.304,
      "duration": 0.089,
      "velocity": 1,
      "hand": "left"
    },
    {
      "midi": 78,
      "time": 23.304,
      "duration": 0.089,
      "velocity": 1,
      "hand": "right"
    },
    {
      "midi": 72,
      "time": 23.393,
      "duration": 0.089,
      "velocity": 1,
      "hand": "right"
    },
    {
      "midi": 49,
      "time": 23.482,
      "duration": 0.089,
      "velocity": 1,
      "hand": "left"
    },
    {
      "midi": 73,
      "time": 23.482,
      "duration": 0.089,
      "velocity": 1,
      "hand": "right"
    },
    {
      "midi": 45,
      "time": 23.571,
      "duration": 0.089,
      "velocity": 1,
      "hand": "left"
    },
    {
      "midi": 65,
      "time": 23.571,
      "duration": 0.089,
      "velocity": 1,
      "hand": "right"
    },
    {
      "midi": 49,
      "time": 23.661,
      "duration": 0.089,
      "velocity": 1,
      "hand": "left"
    },
    {
      "midi": 77,
      "time": 23.661,
      "duration": 0.089,
      "velocity": 1,
      "hand": "right"
    },
    {
      "midi": 72,
      "time": 23.75,
      "duration": 0.089,
      "velocity": 1,
      "hand": "right"
    },
    {
      "midi": 54,
      "time": 23.839,
      "duration": 0.089,
      "velocity": 1,
      "hand": "left"
    },
    {
      "midi": 73,
      "time": 23.839,
      "duration": 0.089,
      "velocity": 1,
      "hand": "right"
    },
    {
      "midi": 57,
      "time": 23.929,
      "duration": 0.089,
      "velocity": 1,
      "hand": "left"
    },
    {
      "midi": 66,
      "time": 23.929,
      "duration": 0.089,
      "velocity": 1,
      "hand": "right"
    },
    {
      "midi": 54,
      "time": 24.018,
      "duration": 0.089,
      "velocity": 1,
      "hand": "left"
    },
    {
      "midi": 78,
      "time": 24.018,
      "duration": 0.089,
      "velocity": 1,
      "hand": "right"
    },
    {
      "midi": 72,
      "time": 24.107,
      "duration": 0.089,
      "velocity": 1,
      "hand": "right"
    },
    {
      "midi": 49,
      "time": 24.196,
      "duration": 0.089,
      "velocity": 1,
      "hand": "left"
    },
    {
      "midi": 73,
      "time": 24.196,
      "duration": 0.089,
      "velocity": 1,
      "hand": "right"
    },
    {
      "midi": 47,
      "time": 24.286,
      "duration": 0.089,
      "velocity": 1,
      "hand": "left"
    },
    {
      "midi": 61,
      "time": 24.286,
      "duration": 0.089,
      "velocity": 1,
      "hand": "right"
    },
    {
      "midi": 54,
      "time": 24.375,
      "duration": 0.089,
      "velocity": 1,
      "hand": "left"
    },
    {
      "midi": 73,
      "time": 24.375,
      "duration": 0.089,
      "velocity": 1,
      "hand": "right"
    },
    {
      "midi": 66,
      "time": 24.464,
      "duration": 0.089,
      "velocity": 1,
      "hand": "right"
    },
    {
      "midi": 57,
      "time": 24.554,
      "duration": 0.089,
      "velocity": 1,
      "hand": "left"
    },
    {
      "midi": 69,
      "time": 24.554,
      "duration": 0.089,
      "velocity": 1,
      "hand": "right"
    },
    {
      "midi": 59,
      "time": 24.643,
      "duration": 0.089,
      "velocity": 1,
      "hand": "left"
    },
    {
      "midi": 63,
      "time": 24.643,
      "duration": 0.089,
      "velocity": 1,
      "hand": "right"
    },
    {
      "midi": 57,
      "time": 24.732,
      "duration": 0.089,
      "velocity": 1,
      "hand": "left"
    },
    {
      "midi": 75,
      "time": 24.732,
      "duration": 0.089,
      "velocity": 1,
      "hand": "right"
    },
    {
      "midi": 66,
      "time": 24.821,
      "duration": 0.089,
      "velocity": 1,
      "hand": "right"
    },
    {
      "midi": 54,
      "time": 24.911,
      "duration": 0.089,
      "velocity": 1,
      "hand": "left"
    },
    {
      "midi": 69,
      "time": 24.911,
      "duration": 0.089,
      "velocity": 1,
      "hand": "right"
    },
    {
      "midi": 40,
      "time": 25,
      "duration": 0.089,
      "velocity": 1,
      "hand": "left"
    },
    {
      "midi": 64,
      "time": 25,
      "duration": 0.089,
      "velocity": 1,
      "hand": "right"
    },
    {
      "midi": 47,
      "time": 25.089,
      "duration": 0.089,
      "velocity": 1,
      "hand": "left"
    },
    {
      "midi": 76,
      "time": 25.089,
      "duration": 0.089,
      "velocity": 1,
      "hand": "right"
    },
    {
      "midi": 68,
      "time": 25.179,
      "duration": 0.089,
      "velocity": 1,
      "hand": "right"
    },
    {
      "midi": 52,
      "time": 25.268,
      "duration": 0.089,
      "velocity": 1,
      "hand": "left"
    },
    {
      "midi": 71,
      "time": 25.268,
      "duration": 0.089,
      "velocity": 1,
      "hand": "right"
    },
    {
      "midi": 56,
      "time": 25.357,
      "duration": 0.089,
      "velocity": 1,
      "hand": "left"
    },
    {
      "midi": 68,
      "time": 25.357,
      "duration": 0.089,
      "velocity": 1,
      "hand": "right"
    },
    {
      "midi": 52,
      "time": 25.446,
      "duration": 0.089,
      "velocity": 1,
      "hand": "left"
    },
    {
      "midi": 80,
      "time": 25.446,
      "duration": 0.089,
      "velocity": 1,
      "hand": "right"
    },
    {
      "midi": 71,
      "time": 25.536,
      "duration": 0.089,
      "velocity": 1,
      "hand": "right"
    },
    {
      "midi": 47,
      "time": 25.625,
      "duration": 0.089,
      "velocity": 1,
      "hand": "left"
    },
    {
      "midi": 76,
      "time": 25.625,
      "duration": 0.089,
      "velocity": 1,
      "hand": "right"
    },
    {
      "midi": 45,
      "time": 25.714,
      "duration": 0.089,
      "velocity": 1,
      "hand": "left"
    },
    {
      "midi": 68,
      "time": 25.714,
      "duration": 0.089,
      "velocity": 1,
      "hand": "right"
    },
    {
      "midi": 49,
      "time": 25.804,
      "duration": 0.089,
      "velocity": 1,
      "hand": "left"
    },
    {
      "midi": 80,
      "time": 25.804,
      "duration": 0.089,
      "velocity": 1,
      "hand": "right"
    },
    {
      "midi": 72,
      "time": 25.893,
      "duration": 0.089,
      "velocity": 1,
      "hand": "right"
    },
    {
      "midi": 54,
      "time": 25.982,
      "duration": 0.089,
      "velocity": 1,
      "hand": "left"
    },
    {
      "midi": 73,
      "time": 25.982,
      "duration": 0.089,
      "velocity": 1,
      "hand": "right"
    },
    {
      "midi": 57,
      "time": 26.071,
      "duration": 0.089,
      "velocity": 1,
      "hand": "left"
    },
    {
      "midi": 66,
      "time": 26.071,
      "duration": 0.089,
      "velocity": 1,
      "hand": "right"
    },
    {
      "midi": 54,
      "time": 26.161,
      "duration": 0.089,
      "velocity": 1,
      "hand": "left"
    },
    {
      "midi": 78,
      "time": 26.161,
      "duration": 0.089,
      "velocity": 1,
      "hand": "right"
    },
    {
      "midi": 72,
      "time": 26.25,
      "duration": 0.089,
      "velocity": 1,
      "hand": "right"
    },
    {
      "midi": 49,
      "time": 26.339,
      "duration": 0.089,
      "velocity": 1,
      "hand": "left"
    },
    {
      "midi": 73,
      "time": 26.339,
      "duration": 0.089,
      "velocity": 1,
      "hand": "right"
    },
    {
      "midi": 45,
      "time": 26.429,
      "duration": 0.089,
      "velocity": 1,
      "hand": "left"
    },
    {
      "midi": 75,
      "time": 26.429,
      "duration": 0.089,
      "velocity": 1,
      "hand": "right"
    },
    {
      "midi": 51,
      "time": 26.518,
      "duration": 0.089,
      "velocity": 1,
      "hand": "left"
    },
    {
      "midi": 87,
      "time": 26.518,
      "duration": 0.089,
      "velocity": 1,
      "hand": "right"
    },
    {
      "midi": 78,
      "time": 26.607,
      "duration": 0.089,
      "velocity": 1,
      "hand": "right"
    },
    {
      "midi": 54,
      "time": 26.696,
      "duration": 0.089,
      "velocity": 1,
      "hand": "left"
    },
    {
      "midi": 81,
      "time": 26.696,
      "duration": 0.089,
      "velocity": 1,
      "hand": "right"
    },
    {
      "midi": 57,
      "time": 26.786,
      "duration": 0.089,
      "velocity": 1,
      "hand": "left"
    },
    {
      "midi": 73,
      "time": 26.786,
      "duration": 0.089,
      "velocity": 1,
      "hand": "right"
    },
    {
      "midi": 54,
      "time": 26.875,
      "duration": 0.089,
      "velocity": 1,
      "hand": "left"
    },
    {
      "midi": 85,
      "time": 26.875,
      "duration": 0.089,
      "velocity": 1,
      "hand": "right"
    },
    {
      "midi": 78,
      "time": 26.964,
      "duration": 0.089,
      "velocity": 1,
      "hand": "right"
    },
    {
      "midi": 51,
      "time": 27.054,
      "duration": 0.089,
      "velocity": 1,
      "hand": "left"
    },
    {
      "midi": 81,
      "time": 27.054,
      "duration": 0.089,
      "velocity": 1,
      "hand": "right"
    },
    {
      "midi": 44,
      "time": 27.143,
      "duration": 0.089,
      "velocity": 1,
      "hand": "left"
    },
    {
      "midi": 73,
      "time": 27.143,
      "duration": 0.089,
      "velocity": 1,
      "hand": "right"
    },
    {
      "midi": 51,
      "time": 27.232,
      "duration": 0.089,
      "velocity": 1,
      "hand": "left"
    },
    {
      "midi": 85,
      "time": 27.232,
      "duration": 0.089,
      "velocity": 1,
      "hand": "right"
    },
    {
      "midi": 75,
      "time": 27.321,
      "duration": 0.089,
      "velocity": 1,
      "hand": "right"
    },
    {
      "midi": 54,
      "time": 27.411,
      "duration": 0.089,
      "velocity": 1,
      "hand": "left"
    },
    {
      "midi": 78,
      "time": 27.411,
      "duration": 0.089,
      "velocity": 1,
      "hand": "right"
    },
    {
      "midi": 60,
      "time": 27.5,
      "duration": 0.089,
      "velocity": 1,
      "hand": "right"
    },
    {
      "midi": 72,
      "time": 27.5,
      "duration": 0.089,
      "velocity": 1,
      "hand": "right"
    },
    {
      "midi": 54,
      "time": 27.589,
      "duration": 0.089,
      "velocity": 1,
      "hand": "left"
    },
    {
      "midi": 84,
      "time": 27.589,
      "duration": 0.089,
      "velocity": 1,
      "hand": "right"
    },
    {
      "midi": 75,
      "time": 27.679,
      "duration": 0.089,
      "velocity": 1,
      "hand": "right"
    },
    {
      "midi": 51,
      "time": 27.768,
      "duration": 0.089,
      "velocity": 1,
      "hand": "left"
    },
    {
      "midi": 78,
      "time": 27.768,
      "duration": 0.089,
      "velocity": 1,
      "hand": "right"
    },
    {
      "midi": 44,
      "time": 27.857,
      "duration": 0.089,
      "velocity": 1,
      "hand": "left"
    },
    {
      "midi": 72,
      "time": 27.857,
      "duration": 0.089,
      "velocity": 1,
      "hand": "right"
    },
    {
      "midi": 51,
      "time": 27.946,
      "duration": 0.089,
      "velocity": 1,
      "hand": "left"
    },
    {
      "midi": 84,
      "time": 27.946,
      "duration": 0.089,
      "velocity": 1,
      "hand": "right"
    },
    {
      "midi": 75,
      "time": 28.036,
      "duration": 0.089,
      "velocity": 1,
      "hand": "right"
    },
    {
      "midi": 54,
      "time": 28.125,
      "duration": 0.089,
      "velocity": 1,
      "hand": "left"
    },
    {
      "midi": 78,
      "time": 28.125,
      "duration": 0.089,
      "velocity": 1,
      "hand": "right"
    },
    {
      "midi": 60,
      "time": 28.214,
      "duration": 0.089,
      "velocity": 1,
      "hand": "right"
    },
    {
      "midi": 72,
      "time": 28.214,
      "duration": 0.089,
      "velocity": 1,
      "hand": "right"
    },
    {
      "midi": 54,
      "time": 28.304,
      "duration": 0.089,
      "velocity": 1,
      "hand": "left"
    },
    {
      "midi": 84,
      "time": 28.304,
      "duration": 0.089,
      "velocity": 1,
      "hand": "right"
    },
    {
      "midi": 75,
      "time": 28.393,
      "duration": 0.089,
      "velocity": 1,
      "hand": "right"
    },
    {
      "midi": 51,
      "time": 28.482,
      "duration": 0.089,
      "velocity": 1,
      "hand": "left"
    },
    {
      "midi": 78,
      "time": 28.482,
      "duration": 0.089,
      "velocity": 1,
      "hand": "right"
    },
    {
      "midi": 45,
      "time": 28.571,
      "duration": 0.089,
      "velocity": 1,
      "hand": "left"
    },
    {
      "midi": 72,
      "time": 28.571,
      "duration": 0.089,
      "velocity": 1,
      "hand": "right"
    },
    {
      "midi": 51,
      "time": 28.661,
      "duration": 0.089,
      "velocity": 1,
      "hand": "left"
    },
    {
      "midi": 84,
      "time": 28.661,
      "duration": 0.089,
      "velocity": 1,
      "hand": "right"
    },
    {
      "midi": 75,
      "time": 28.75,
      "duration": 0.089,
      "velocity": 1,
      "hand": "right"
    },
    {
      "midi": 54,
      "time": 28.839,
      "duration": 0.089,
      "velocity": 1,
      "hand": "left"
    },
    {
      "midi": 78,
      "time": 28.839,
      "duration": 0.089,
      "velocity": 1,
      "hand": "right"
    },
    {
      "midi": 59,
      "time": 28.929,
      "duration": 0.089,
      "velocity": 1,
      "hand": "left"
    },
    {
      "midi": 71,
      "time": 28.929,
      "duration": 0.089,
      "velocity": 1,
      "hand": "right"
    },
    {
      "midi": 54,
      "time": 29.018,
      "duration": 0.089,
      "velocity": 1,
      "hand": "left"
    },
    {
      "midi": 83,
      "time": 29.018,
      "duration": 0.089,
      "velocity": 1,
      "hand": "right"
    },
    {
      "midi": 75,
      "time": 29.107,
      "duration": 0.089,
      "velocity": 1,
      "hand": "right"
    },
    {
      "midi": 51,
      "time": 29.196,
      "duration": 0.089,
      "velocity": 1,
      "hand": "left"
    },
    {
      "midi": 78,
      "time": 29.196,
      "duration": 0.089,
      "velocity": 1,
      "hand": "right"
    },
    {
      "midi": 46,
      "time": 29.286,
      "duration": 0.089,
      "velocity": 1,
      "hand": "left"
    },
    {
      "midi": 71,
      "time": 29.286,
      "duration": 0.089,
      "velocity": 1,
      "hand": "right"
    },
    {
      "midi": 51,
      "time": 29.375,
      "duration": 0.089,
      "velocity": 1,
      "hand": "left"
    },
    {
      "midi": 83,
      "time": 29.375,
      "duration": 0.089,
      "velocity": 1,
      "hand": "right"
    },
    {
      "midi": 75,
      "time": 29.464,
      "duration": 0.089,
      "velocity": 1,
      "hand": "right"
    },
    {
      "midi": 54,
      "time": 29.554,
      "duration": 0.089,
      "velocity": 1,
      "hand": "left"
    },
    {
      "midi": 78,
      "time": 29.554,
      "duration": 0.089,
      "velocity": 1,
      "hand": "right"
    },
    {
      "midi": 58,
      "time": 29.643,
      "duration": 0.089,
      "velocity": 1,
      "hand": "left"
    },
    {
      "midi": 70,
      "time": 29.643,
      "duration": 0.089,
      "velocity": 1,
      "hand": "right"
    },
    {
      "midi": 54,
      "time": 29.732,
      "duration": 0.089,
      "velocity": 1,
      "hand": "left"
    },
    {
      "midi": 82,
      "time": 29.732,
      "duration": 0.089,
      "velocity": 1,
      "hand": "right"
    },
    {
      "midi": 75,
      "time": 29.821,
      "duration": 0.089,
      "velocity": 1,
      "hand": "right"
    },
    {
      "midi": 51,
      "time": 29.911,
      "duration": 0.089,
      "velocity": 1,
      "hand": "left"
    },
    {
      "midi": 78,
      "time": 29.911,
      "duration": 0.089,
      "velocity": 1,
      "hand": "right"
    },
    {
      "midi": 48,
      "time": 30,
      "duration": 0.089,
      "velocity": 1,
      "hand": "left"
    },
    {
      "midi": 70,
      "time": 30,
      "duration": 0.089,
      "velocity": 1,
      "hand": "right"
    },
    {
      "midi": 51,
      "time": 30.089,
      "duration": 0.089,
      "velocity": 1,
      "hand": "left"
    },
    {
      "midi": 82,
      "time": 30.089,
      "duration": 0.089,
      "velocity": 1,
      "hand": "right"
    },
    {
      "midi": 75,
      "time": 30.179,
      "duration": 0.089,
      "velocity": 1,
      "hand": "right"
    },
    {
      "midi": 54,
      "time": 30.268,
      "duration": 0.089,
      "velocity": 1,
      "hand": "left"
    },
    {
      "midi": 78,
      "time": 30.268,
      "duration": 0.089,
      "velocity": 1,
      "hand": "right"
    },
    {
      "midi": 57,
      "time": 30.357,
      "duration": 0.089,
      "velocity": 1,
      "hand": "left"
    },
    {
      "midi": 69,
      "time": 30.357,
      "duration": 0.089,
      "velocity": 1,
      "hand": "right"
    },
    {
      "midi": 54,
      "time": 30.446,
      "duration": 0.089,
      "velocity": 1,
      "hand": "left"
    },
    {
      "midi": 81,
      "time": 30.446,
      "duration": 0.089,
      "velocity": 1,
      "hand": "right"
    },
    {
      "midi": 75,
      "time": 30.536,
      "duration": 0.089,
      "velocity": 1,
      "hand": "right"
    },
    {
      "midi": 51,
      "time": 30.625,
      "duration": 0.089,
      "velocity": 1,
      "hand": "left"
    },
    {
      "midi": 78,
      "time": 30.625,
      "duration": 0.089,
      "velocity": 1,
      "hand": "right"
    },
    {
      "midi": 48,
      "time": 30.714,
      "duration": 0.089,
      "velocity": 1,
      "hand": "left"
    },
    {
      "midi": 69,
      "time": 30.714,
      "duration": 0.089,
      "velocity": 1,
      "hand": "right"
    },
    {
      "midi": 51,
      "time": 30.804,
      "duration": 0.089,
      "velocity": 1,
      "hand": "left"
    },
    {
      "midi": 81,
      "time": 30.804,
      "duration": 0.089,
      "velocity": 1,
      "hand": "right"
    },
    {
      "midi": 75,
      "time": 30.893,
      "duration": 0.089,
      "velocity": 1,
      "hand": "right"
    },
    {
      "midi": 54,
      "time": 30.982,
      "duration": 0.089,
      "velocity": 1,
      "hand": "left"
    },
    {
      "midi": 78,
      "time": 30.982,
      "duration": 0.089,
      "velocity": 1,
      "hand": "right"
    },
    {
      "midi": 57,
      "time": 31.071,
      "duration": 0.089,
      "velocity": 1,
      "hand": "left"
    },
    {
      "midi": 69,
      "time": 31.071,
      "duration": 0.089,
      "velocity": 1,
      "hand": "right"
    },
    {
      "midi": 54,
      "time": 31.161,
      "duration": 0.089,
      "velocity": 1,
      "hand": "left"
    },
    {
      "midi": 81,
      "time": 31.161,
      "duration": 0.089,
      "velocity": 1,
      "hand": "right"
    },
    {
      "midi": 75,
      "time": 31.25,
      "duration": 0.089,
      "velocity": 1,
      "hand": "right"
    },
    {
      "midi": 51,
      "time": 31.339,
      "duration": 0.089,
      "velocity": 1,
      "hand": "left"
    },
    {
      "midi": 78,
      "time": 31.339,
      "duration": 0.089,
      "velocity": 1,
      "hand": "right"
    },
    {
      "midi": 45,
      "time": 31.429,
      "duration": 0.089,
      "velocity": 1,
      "hand": "left"
    },
    {
      "midi": 72,
      "time": 31.429,
      "duration": 0.089,
      "velocity": 1,
      "hand": "right"
    },
    {
      "midi": 51,
      "time": 31.518,
      "duration": 0.089,
      "velocity": 1,
      "hand": "left"
    },
    {
      "midi": 84,
      "time": 31.518,
      "duration": 0.089,
      "velocity": 1,
      "hand": "right"
    },
    {
      "midi": 75,
      "time": 31.607,
      "duration": 0.089,
      "velocity": 1,
      "hand": "right"
    },
    {
      "midi": 54,
      "time": 31.696,
      "duration": 0.089,
      "velocity": 1,
      "hand": "left"
    },
    {
      "midi": 78,
      "time": 31.696,
      "duration": 0.089,
      "velocity": 1,
      "hand": "right"
    },
    {
      "midi": 59,
      "time": 31.786,
      "duration": 0.089,
      "velocity": 1,
      "hand": "left"
    },
    {
      "midi": 71,
      "time": 31.786,
      "duration": 0.089,
      "velocity": 1,
      "hand": "right"
    },
    {
      "midi": 54,
      "time": 31.875,
      "duration": 0.089,
      "velocity": 1,
      "hand": "left"
    },
    {
      "midi": 83,
      "time": 31.875,
      "duration": 0.089,
      "velocity": 1,
      "hand": "right"
    },
    {
      "midi": 75,
      "time": 31.964,
      "duration": 0.089,
      "velocity": 1,
      "hand": "right"
    },
    {
      "midi": 51,
      "time": 32.054,
      "duration": 0.089,
      "velocity": 1,
      "hand": "left"
    },
    {
      "midi": 78,
      "time": 32.054,
      "duration": 0.089,
      "velocity": 1,
      "hand": "right"
    },
    {
      "midi": 46,
      "time": 32.143,
      "duration": 0.089,
      "velocity": 1,
      "hand": "left"
    },
    {
      "midi": 71,
      "time": 32.143,
      "duration": 0.089,
      "velocity": 1,
      "hand": "right"
    },
    {
      "midi": 51,
      "time": 32.232,
      "duration": 0.089,
      "velocity": 1,
      "hand": "left"
    },
    {
      "midi": 83,
      "time": 32.232,
      "duration": 0.089,
      "velocity": 1,
      "hand": "right"
    },
    {
      "midi": 75,
      "time": 32.321,
      "duration": 0.089,
      "velocity": 1,
      "hand": "right"
    },
    {
      "midi": 54,
      "time": 32.411,
      "duration": 0.089,
      "velocity": 1,
      "hand": "left"
    },
    {
      "midi": 78,
      "time": 32.411,
      "duration": 0.089,
      "velocity": 1,
      "hand": "right"
    },
    {
      "midi": 58,
      "time": 32.5,
      "duration": 0.089,
      "velocity": 1,
      "hand": "left"
    },
    {
      "midi": 70,
      "time": 32.5,
      "duration": 0.089,
      "velocity": 1,
      "hand": "right"
    },
    {
      "midi": 54,
      "time": 32.589,
      "duration": 0.089,
      "velocity": 1,
      "hand": "left"
    },
    {
      "midi": 82,
      "time": 32.589,
      "duration": 0.089,
      "velocity": 1,
      "hand": "right"
    },
    {
      "midi": 75,
      "time": 32.679,
      "duration": 0.089,
      "velocity": 1,
      "hand": "right"
    },
    {
      "midi": 51,
      "time": 32.768,
      "duration": 0.089,
      "velocity": 1,
      "hand": "left"
    },
    {
      "midi": 78,
      "time": 32.768,
      "duration": 0.089,
      "velocity": 1,
      "hand": "right"
    },
    {
      "midi": 47,
      "time": 32.857,
      "duration": 0.089,
      "velocity": 1,
      "hand": "left"
    },
    {
      "midi": 70,
      "time": 32.857,
      "duration": 0.089,
      "velocity": 1,
      "hand": "right"
    },
    {
      "midi": 51,
      "time": 32.946,
      "duration": 0.089,
      "velocity": 1,
      "hand": "left"
    },
    {
      "midi": 82,
      "time": 32.946,
      "duration": 0.089,
      "velocity": 1,
      "hand": "right"
    },
    {
      "midi": 75,
      "time": 33.036,
      "duration": 0.089,
      "velocity": 1,
      "hand": "right"
    },
    {
      "midi": 54,
      "time": 33.125,
      "duration": 0.089,
      "velocity": 1,
      "hand": "left"
    },
    {
      "midi": 78,
      "time": 33.125,
      "duration": 0.089,
      "velocity": 1,
      "hand": "right"
    },
    {
      "midi": 57,
      "time": 33.214,
      "duration": 0.089,
      "velocity": 1,
      "hand": "left"
    },
    {
      "midi": 69,
      "time": 33.214,
      "duration": 0.089,
      "velocity": 1,
      "hand": "right"
    },
    {
      "midi": 54,
      "time": 33.304,
      "duration": 0.089,
      "velocity": 1,
      "hand": "left"
    },
    {
      "midi": 81,
      "time": 33.304,
      "duration": 0.089,
      "velocity": 1,
      "hand": "right"
    },
    {
      "midi": 75,
      "time": 33.393,
      "duration": 0.089,
      "velocity": 1,
      "hand": "right"
    },
    {
      "midi": 51,
      "time": 33.482,
      "duration": 0.089,
      "velocity": 1,
      "hand": "left"
    },
    {
      "midi": 78,
      "time": 33.482,
      "duration": 0.089,
      "velocity": 1,
      "hand": "right"
    },
    {
      "midi": 48,
      "time": 33.571,
      "duration": 0.089,
      "velocity": 1,
      "hand": "left"
    },
    {
      "midi": 69,
      "time": 33.571,
      "duration": 0.089,
      "velocity": 1,
      "hand": "right"
    },
    {
      "midi": 51,
      "time": 33.661,
      "duration": 0.089,
      "velocity": 1,
      "hand": "left"
    },
    {
      "midi": 81,
      "time": 33.661,
      "duration": 0.089,
      "velocity": 1,
      "hand": "right"
    },
    {
      "midi": 75,
      "time": 33.75,
      "duration": 0.089,
      "velocity": 1,
      "hand": "right"
    },
    {
      "midi": 54,
      "time": 33.839,
      "duration": 0.089,
      "velocity": 1,
      "hand": "left"
    },
    {
      "midi": 78,
      "time": 33.839,
      "duration": 0.089,
      "velocity": 1,
      "hand": "right"
    },
    {
      "midi": 56,
      "time": 33.929,
      "duration": 0.089,
      "velocity": 1,
      "hand": "left"
    },
    {
      "midi": 68,
      "time": 33.929,
      "duration": 0.089,
      "velocity": 1,
      "hand": "right"
    },
    {
      "midi": 54,
      "time": 34.018,
      "duration": 0.089,
      "velocity": 1,
      "hand": "left"
    },
    {
      "midi": 80,
      "time": 34.018,
      "duration": 0.089,
      "velocity": 1,
      "hand": "right"
    },
    {
      "midi": 75,
      "time": 34.107,
      "duration": 0.089,
      "velocity": 1,
      "hand": "right"
    },
    {
      "midi": 51,
      "time": 34.196,
      "duration": 0.089,
      "velocity": 1,
      "hand": "left"
    },
    {
      "midi": 78,
      "time": 34.196,
      "duration": 0.089,
      "velocity": 1,
      "hand": "right"
    },
    {
      "midi": 49,
      "time": 34.286,
      "duration": 0.089,
      "velocity": 1,
      "hand": "left"
    },
    {
      "midi": 56,
      "time": 34.375,
      "duration": 0.089,
      "velocity": 1,
      "hand": "left"
    },
    {
      "midi": 68,
      "time": 34.375,
      "duration": 0.089,
      "velocity": 1,
      "hand": "right"
    },
    {
      "midi": 69,
      "time": 34.464,
      "duration": 0.089,
      "velocity": 1,
      "hand": "right"
    },
    {
      "midi": 61,
      "time": 34.554,
      "duration": 0.089,
      "velocity": 1,
      "hand": "right"
    },
    {
      "midi": 68,
      "time": 34.554,
      "duration": 0.089,
      "velocity": 1,
      "hand": "right"
    },
    {
      "midi": 64,
      "time": 34.643,
      "duration": 0.089,
      "velocity": 1,
      "hand": "right"
    },
    {
      "midi": 67,
      "time": 34.643,
      "duration": 0.089,
      "velocity": 1,
      "hand": "right"
    },
    {
      "midi": 61,
      "time": 34.732,
      "duration": 0.089,
      "velocity": 1,
      "hand": "right"
    },
    {
      "midi": 68,
      "time": 34.732,
      "duration": 0.089,
      "velocity": 1,
      "hand": "right"
    },
    {
      "midi": 73,
      "time": 34.821,
      "duration": 0.089,
      "velocity": 1,
      "hand": "right"
    },
    {
      "midi": 56,
      "time": 34.911,
      "duration": 0.089,
      "velocity": 1,
      "hand": "left"
    },
    {
      "midi": 76,
      "time": 34.911,
      "duration": 0.089,
      "velocity": 1,
      "hand": "right"
    },
    {
      "midi": 52,
      "time": 35,
      "duration": 0.089,
      "velocity": 1,
      "hand": "left"
    },
    {
      "midi": 75,
      "time": 35,
      "duration": 0.089,
      "velocity": 1,
      "hand": "right"
    },
    {
      "midi": 56,
      "time": 35.089,
      "duration": 0.089,
      "velocity": 1,
      "hand": "left"
    },
    {
      "midi": 73,
      "time": 35.089,
      "duration": 0.089,
      "velocity": 1,
      "hand": "right"
    },
    {
      "midi": 75,
      "time": 35.179,
      "duration": 0.089,
      "velocity": 1,
      "hand": "right"
    },
    {
      "midi": 61,
      "time": 35.268,
      "duration": 0.089,
      "velocity": 1,
      "hand": "right"
    },
    {
      "midi": 73,
      "time": 35.268,
      "duration": 0.089,
      "velocity": 1,
      "hand": "right"
    },
    {
      "midi": 64,
      "time": 35.357,
      "duration": 0.089,
      "velocity": 1,
      "hand": "right"
    },
    {
      "midi": 72,
      "time": 35.357,
      "duration": 0.089,
      "velocity": 1,
      "hand": "right"
    },
    {
      "midi": 61,
      "time": 35.446,
      "duration": 0.089,
      "velocity": 1,
      "hand": "right"
    },
    {
      "midi": 73,
      "time": 35.446,
      "duration": 0.089,
      "velocity": 1,
      "hand": "right"
    },
    {
      "midi": 76,
      "time": 35.536,
      "duration": 0.089,
      "velocity": 1,
      "hand": "right"
    },
    {
      "midi": 56,
      "time": 35.625,
      "duration": 0.089,
      "velocity": 1,
      "hand": "left"
    },
    {
      "midi": 80,
      "time": 35.625,
      "duration": 0.089,
      "velocity": 1,
      "hand": "right"
    },
    {
      "midi": 49,
      "time": 35.714,
      "duration": 0.089,
      "velocity": 1,
      "hand": "left"
    },
    {
      "midi": 56,
      "time": 35.804,
      "duration": 0.089,
      "velocity": 1,
      "hand": "left"
    },
    {
      "midi": 68,
      "time": 35.804,
      "duration": 0.089,
      "velocity": 1,
      "hand": "right"
    },
    {
      "midi": 69,
      "time": 35.893,
      "duration": 0.089,
      "velocity": 1,
      "hand": "right"
    },
    {
      "midi": 61,
      "time": 35.982,
      "duration": 0.089,
      "velocity": 1,
      "hand": "right"
    },
    {
      "midi": 68,
      "time": 35.982,
      "duration": 0.089,
      "velocity": 1,
      "hand": "right"
    },
    {
      "midi": 64,
      "time": 36.071,
      "duration": 0.089,
      "velocity": 1,
      "hand": "right"
    },
    {
      "midi": 67,
      "time": 36.071,
      "duration": 0.089,
      "velocity": 1,
      "hand": "right"
    },
    {
      "midi": 61,
      "time": 36.161,
      "duration": 0.089,
      "velocity": 1,
      "hand": "right"
    },
    {
      "midi": 68,
      "time": 36.161,
      "duration": 0.089,
      "velocity": 1,
      "hand": "right"
    },
    {
      "midi": 73,
      "time": 36.25,
      "duration": 0.089,
      "velocity": 1,
      "hand": "right"
    },
    {
      "midi": 56,
      "time": 36.339,
      "duration": 0.089,
      "velocity": 1,
      "hand": "left"
    },
    {
      "midi": 76,
      "time": 36.339,
      "duration": 0.089,
      "velocity": 1,
      "hand": "right"
    },
    {
      "midi": 52,
      "time": 36.429,
      "duration": 0.089,
      "velocity": 1,
      "hand": "left"
    },
    {
      "midi": 75,
      "time": 36.429,
      "duration": 0.089,
      "velocity": 1,
      "hand": "right"
    },
    {
      "midi": 56,
      "time": 36.518,
      "duration": 0.089,
      "velocity": 1,
      "hand": "left"
    },
    {
      "midi": 73,
      "time": 36.518,
      "duration": 0.089,
      "velocity": 1,
      "hand": "right"
    },
    {
      "midi": 75,
      "time": 36.607,
      "duration": 0.089,
      "velocity": 1,
      "hand": "right"
    },
    {
      "midi": 61,
      "time": 36.696,
      "duration": 0.089,
      "velocity": 1,
      "hand": "right"
    },
    {
      "midi": 73,
      "time": 36.696,
      "duration": 0.089,
      "velocity": 1,
      "hand": "right"
    },
    {
      "midi": 64,
      "time": 36.786,
      "duration": 0.089,
      "velocity": 1,
      "hand": "right"
    },
    {
      "midi": 72,
      "time": 36.786,
      "duration": 0.089,
      "velocity": 1,
      "hand": "right"
    },
    {
      "midi": 61,
      "time": 36.875,
      "duration": 0.089,
      "velocity": 1,
      "hand": "right"
    },
    {
      "midi": 73,
      "time": 36.875,
      "duration": 0.089,
      "velocity": 1,
      "hand": "right"
    },
    {
      "midi": 76,
      "time": 36.964,
      "duration": 0.089,
      "velocity": 1,
      "hand": "right"
    },
    {
      "midi": 56,
      "time": 37.054,
      "duration": 0.089,
      "velocity": 1,
      "hand": "left"
    },
    {
      "midi": 80,
      "time": 37.054,
      "duration": 0.089,
      "velocity": 1,
      "hand": "right"
    },
    {
      "midi": 51,
      "time": 37.143,
      "duration": 0.089,
      "velocity": 1,
      "hand": "left"
    },
    {
      "midi": 57,
      "time": 37.232,
      "duration": 0.089,
      "velocity": 1,
      "hand": "left"
    },
    {
      "midi": 69,
      "time": 37.232,
      "duration": 0.089,
      "velocity": 1,
      "hand": "right"
    },
    {
      "midi": 73,
      "time": 37.321,
      "duration": 0.089,
      "velocity": 1,
      "hand": "right"
    },
    {
      "midi": 61,
      "time": 37.411,
      "duration": 0.089,
      "velocity": 1,
      "hand": "right"
    },
    {
      "midi": 75,
      "time": 37.411,
      "duration": 0.089,
      "velocity": 1,
      "hand": "right"
    },
    {
      "midi": 66,
      "time": 37.5,
      "duration": 0.089,
      "velocity": 1,
      "hand": "right"
    },
    {
      "midi": 78,
      "time": 37.5,
      "duration": 0.089,
      "velocity": 1,
      "hand": "right"
    },
    {
      "midi": 61,
      "time": 37.589,
      "duration": 0.089,
      "velocity": 1,
      "hand": "right"
    },
    {
      "midi": 81,
      "time": 37.589,
      "duration": 0.089,
      "velocity": 1,
      "hand": "right"
    },
    {
      "midi": 85,
      "time": 37.679,
      "duration": 0.089,
      "velocity": 1,
      "hand": "right"
    },
    {
      "midi": 57,
      "time": 37.768,
      "duration": 0.089,
      "velocity": 1,
      "hand": "left"
    },
    {
      "midi": 87,
      "time": 37.768,
      "duration": 0.089,
      "velocity": 1,
      "hand": "right"
    },
    {
      "midi": 54,
      "time": 37.857,
      "duration": 0.089,
      "velocity": 1,
      "hand": "left"
    },
    {
      "midi": 95,
      "time": 37.857,
      "duration": 0.089,
      "velocity": 1,
      "hand": "right"
    },
    {
      "midi": 61,
      "time": 37.946,
      "duration": 0.089,
      "velocity": 1,
      "hand": "right"
    },
    {
      "midi": 93,
      "time": 37.946,
      "duration": 0.089,
      "velocity": 1,
      "hand": "right"
    },
    {
      "midi": 92,
      "time": 38.036,
      "duration": 0.089,
      "velocity": 1,
      "hand": "right"
    },
    {
      "midi": 63,
      "time": 38.125,
      "duration": 0.089,
      "velocity": 1,
      "hand": "right"
    },
    {
      "midi": 90,
      "time": 38.125,
      "duration": 0.089,
      "velocity": 1,
      "hand": "right"
    },
    {
      "midi": 69,
      "time": 38.214,
      "duration": 0.089,
      "velocity": 1,
      "hand": "right"
    },
    {
      "midi": 88,
      "time": 38.214,
      "duration": 0.089,
      "velocity": 1,
      "hand": "right"
    },
    {
      "midi": 63,
      "time": 38.304,
      "duration": 0.089,
      "velocity": 1,
      "hand": "right"
    },
    {
      "midi": 87,
      "time": 38.304,
      "duration": 0.089,
      "velocity": 1,
      "hand": "right"
    },
    {
      "midi": 90,
      "time": 38.393,
      "duration": 0.089,
      "velocity": 1,
      "hand": "right"
    },
    {
      "midi": 61,
      "time": 38.482,
      "duration": 0.089,
      "velocity": 1,
      "hand": "right"
    },
    {
      "midi": 85,
      "time": 38.482,
      "duration": 0.089,
      "velocity": 1,
      "hand": "right"
    },
    {
      "midi": 44,
      "time": 38.571,
      "duration": 0.089,
      "velocity": 1,
      "hand": "left"
    },
    {
      "midi": 84,
      "time": 38.571,
      "duration": 0.089,
      "velocity": 1,
      "hand": "right"
    },
    {
      "midi": 51,
      "time": 38.661,
      "duration": 0.089,
      "velocity": 1,
      "hand": "left"
    },
    {
      "midi": 87,
      "time": 38.661,
      "duration": 0.089,
      "velocity": 1,
      "hand": "right"
    },
    {
      "midi": 81,
      "time": 38.75,
      "duration": 0.089,
      "velocity": 1,
      "hand": "right"
    },
    {
      "midi": 54,
      "time": 38.839,
      "duration": 0.089,
      "velocity": 1,
      "hand": "left"
    },
    {
      "midi": 80,
      "time": 38.839,
      "duration": 0.089,
      "velocity": 1,
      "hand": "right"
    },
    {
      "midi": 60,
      "time": 38.929,
      "duration": 0.089,
      "velocity": 1,
      "hand": "right"
    },
    {
      "midi": 78,
      "time": 38.929,
      "duration": 0.089,
      "velocity": 1,
      "hand": "right"
    },
    {
      "midi": 54,
      "time": 39.018,
      "duration": 0.089,
      "velocity": 1,
      "hand": "left"
    },
    {
      "midi": 81,
      "time": 39.018,
      "duration": 0.089,
      "velocity": 1,
      "hand": "right"
    },
    {
      "midi": 76,
      "time": 39.107,
      "duration": 0.089,
      "velocity": 1,
      "hand": "right"
    },
    {
      "midi": 51,
      "time": 39.196,
      "duration": 0.089,
      "velocity": 1,
      "hand": "left"
    },
    {
      "midi": 75,
      "time": 39.196,
      "duration": 0.089,
      "velocity": 1,
      "hand": "right"
    },
    {
      "midi": 44,
      "time": 39.286,
      "duration": 0.089,
      "velocity": 1,
      "hand": "left"
    },
    {
      "midi": 78,
      "time": 39.286,
      "duration": 0.089,
      "velocity": 1,
      "hand": "right"
    },
    {
      "midi": 51,
      "time": 39.375,
      "duration": 0.089,
      "velocity": 1,
      "hand": "left"
    },
    {
      "midi": 73,
      "time": 39.375,
      "duration": 0.089,
      "velocity": 1,
      "hand": "right"
    },
    {
      "midi": 72,
      "time": 39.464,
      "duration": 0.089,
      "velocity": 1,
      "hand": "right"
    },
    {
      "midi": 54,
      "time": 39.554,
      "duration": 0.089,
      "velocity": 1,
      "hand": "left"
    },
    {
      "midi": 75,
      "time": 39.554,
      "duration": 0.089,
      "velocity": 1,
      "hand": "right"
    },
    {
      "midi": 60,
      "time": 39.643,
      "duration": 0.089,
      "velocity": 1,
      "hand": "right"
    },
    {
      "midi": 69,
      "time": 39.643,
      "duration": 0.089,
      "velocity": 1,
      "hand": "right"
    },
    {
      "midi": 54,
      "time": 39.732,
      "duration": 0.089,
      "velocity": 1,
      "hand": "left"
    },
    {
      "midi": 68,
      "time": 39.732,
      "duration": 0.089,
      "velocity": 1,
      "hand": "right"
    },
    {
      "midi": 71,
      "time": 39.821,
      "duration": 0.089,
      "velocity": 1,
      "hand": "right"
    },
    {
      "midi": 51,
      "time": 39.911,
      "duration": 0.089,
      "velocity": 1,
      "hand": "left"
    },
    {
      "midi": 69,
      "time": 39.911,
      "duration": 0.179,
      "velocity": 1,
      "hand": "right"
    },
    {
      "midi": 49,
      "time": 40,
      "duration": 0.089,
      "velocity": 1,
      "hand": "left"
    },
    {
      "midi": 56,
      "time": 40.089,
      "duration": 0.089,
      "velocity": 1,
      "hand": "left"
    },
    {
      "midi": 68,
      "time": 40.089,
      "duration": 0.089,
      "velocity": 1,
      "hand": "right"
    },
    {
      "midi": 69,
      "time": 40.179,
      "duration": 0.089,
      "velocity": 1,
      "hand": "right"
    },
    {
      "midi": 61,
      "time": 40.268,
      "duration": 0.089,
      "velocity": 1,
      "hand": "right"
    },
    {
      "midi": 68,
      "time": 40.268,
      "duration": 0.089,
      "velocity": 1,
      "hand": "right"
    },
    {
      "midi": 64,
      "time": 40.357,
      "duration": 0.089,
      "velocity": 1,
      "hand": "right"
    },
    {
      "midi": 67,
      "time": 40.357,
      "duration": 0.089,
      "velocity": 1,
      "hand": "right"
    },
    {
      "midi": 61,
      "time": 40.446,
      "duration": 0.089,
      "velocity": 1,
      "hand": "right"
    },
    {
      "midi": 68,
      "time": 40.446,
      "duration": 0.089,
      "velocity": 1,
      "hand": "right"
    },
    {
      "midi": 73,
      "time": 40.536,
      "duration": 0.089,
      "velocity": 1,
      "hand": "right"
    },
    {
      "midi": 56,
      "time": 40.625,
      "duration": 0.089,
      "velocity": 1,
      "hand": "left"
    },
    {
      "midi": 76,
      "time": 40.625,
      "duration": 0.089,
      "velocity": 1,
      "hand": "right"
    },
    {
      "midi": 52,
      "time": 40.714,
      "duration": 0.089,
      "velocity": 1,
      "hand": "left"
    },
    {
      "midi": 75,
      "time": 40.714,
      "duration": 0.089,
      "velocity": 1,
      "hand": "right"
    },
    {
      "midi": 56,
      "time": 40.804,
      "duration": 0.089,
      "velocity": 1,
      "hand": "left"
    },
    {
      "midi": 73,
      "time": 40.804,
      "duration": 0.089,
      "velocity": 1,
      "hand": "right"
    },
    {
      "midi": 75,
      "time": 40.893,
      "duration": 0.089,
      "velocity": 1,
      "hand": "right"
    },
    {
      "midi": 61,
      "time": 40.982,
      "duration": 0.089,
      "velocity": 1,
      "hand": "right"
    },
    {
      "midi": 73,
      "time": 40.982,
      "duration": 0.089,
      "velocity": 1,
      "hand": "right"
    },
    {
      "midi": 64,
      "time": 41.071,
      "duration": 0.089,
      "velocity": 1,
      "hand": "right"
    },
    {
      "midi": 72,
      "time": 41.071,
      "duration": 0.089,
      "velocity": 1,
      "hand": "right"
    },
    {
      "midi": 61,
      "time": 41.161,
      "duration": 0.089,
      "velocity": 1,
      "hand": "right"
    },
    {
      "midi": 73,
      "time": 41.161,
      "duration": 0.089,
      "velocity": 1,
      "hand": "right"
    },
    {
      "midi": 76,
      "time": 41.25,
      "duration": 0.089,
      "velocity": 1,
      "hand": "right"
    },
    {
      "midi": 56,
      "time": 41.339,
      "duration": 0.089,
      "velocity": 1,
      "hand": "left"
    },
    {
      "midi": 80,
      "time": 41.339,
      "duration": 0.089,
      "velocity": 1,
      "hand": "right"
    },
    {
      "midi": 54,
      "time": 41.429,
      "duration": 0.089,
      "velocity": 1,
      "hand": "left"
    },
    {
      "midi": 76,
      "time": 41.429,
      "duration": 0.089,
      "velocity": 1,
      "hand": "right"
    },
    {
      "midi": 61,
      "time": 41.518,
      "duration": 0.089,
      "velocity": 1,
      "hand": "right"
    },
    {
      "midi": 75,
      "time": 41.518,
      "duration": 0.089,
      "velocity": 1,
      "hand": "right"
    },
    {
      "midi": 76,
      "time": 41.607,
      "duration": 0.089,
      "velocity": 1,
      "hand": "right"
    },
    {
      "midi": 63,
      "time": 41.696,
      "duration": 0.089,
      "velocity": 1,
      "hand": "right"
    },
    {
      "midi": 75,
      "time": 41.696,
      "duration": 0.089,
      "velocity": 1,
      "hand": "right"
    },
    {
      "midi": 69,
      "time": 41.786,
      "duration": 0.089,
      "velocity": 1,
      "hand": "right"
    },
    {
      "midi": 74,
      "time": 41.786,
      "duration": 0.089,
      "velocity": 1,
      "hand": "right"
    },
    {
      "midi": 63,
      "time": 41.875,
      "duration": 0.089,
      "velocity": 1,
      "hand": "right"
    },
    {
      "midi": 75,
      "time": 41.875,
      "duration": 0.089,
      "velocity": 1,
      "hand": "right"
    },
    {
      "midi": 78,
      "time": 41.964,
      "duration": 0.089,
      "velocity": 1,
      "hand": "right"
    },
    {
      "midi": 61,
      "time": 42.054,
      "duration": 0.089,
      "velocity": 1,
      "hand": "right"
    },
    {
      "midi": 81,
      "time": 42.054,
      "duration": 0.089,
      "velocity": 1,
      "hand": "right"
    },
    {
      "midi": 56,
      "time": 42.143,
      "duration": 0.089,
      "velocity": 1,
      "hand": "left"
    },
    {
      "midi": 78,
      "time": 42.143,
      "duration": 0.089,
      "velocity": 1,
      "hand": "right"
    },
    {
      "midi": 61,
      "time": 42.232,
      "duration": 0.089,
      "velocity": 1,
      "hand": "right"
    },
    {
      "midi": 77,
      "time": 42.232,
      "duration": 0.089,
      "velocity": 1,
      "hand": "right"
    },
    {
      "midi": 78,
      "time": 42.321,
      "duration": 0.089,
      "velocity": 1,
      "hand": "right"
    },
    {
      "midi": 65,
      "time": 42.411,
      "duration": 0.089,
      "velocity": 1,
      "hand": "right"
    },
    {
      "midi": 77,
      "time": 42.411,
      "duration": 0.089,
      "velocity": 1,
      "hand": "right"
    },
    {
      "midi": 71,
      "time": 42.5,
      "duration": 0.089,
      "velocity": 1,
      "hand": "right"
    },
    {
      "midi": 76,
      "time": 42.5,
      "duration": 0.089,
      "velocity": 1,
      "hand": "right"
    },
    {
      "midi": 65,
      "time": 42.589,
      "duration": 0.089,
      "velocity": 1,
      "hand": "right"
    },
    {
      "midi": 77,
      "time": 42.589,
      "duration": 0.089,
      "velocity": 1,
      "hand": "right"
    },
    {
      "midi": 80,
      "time": 42.679,
      "duration": 0.089,
      "velocity": 1,
      "hand": "right"
    },
    {
      "midi": 61,
      "time": 42.768,
      "duration": 0.089,
      "velocity": 1,
      "hand": "right"
    },
    {
      "midi": 85,
      "time": 42.768,
      "duration": 0.089,
      "velocity": 1,
      "hand": "right"
    },
    {
      "midi": 57,
      "time": 42.857,
      "duration": 0.089,
      "velocity": 1,
      "hand": "left"
    },
    {
      "midi": 61,
      "time": 42.946,
      "duration": 0.089,
      "velocity": 1,
      "hand": "right"
    },
    {
      "midi": 73,
      "time": 42.946,
      "duration": 0.089,
      "velocity": 1,
      "hand": "right"
    },
    {
      "midi": 74,
      "time": 43.036,
      "duration": 0.089,
      "velocity": 1,
      "hand": "right"
    },
    {
      "midi": 66,
      "time": 43.125,
      "duration": 0.089,
      "velocity": 1,
      "hand": "right"
    },
    {
      "midi": 73,
      "time": 43.125,
      "duration": 0.089,
      "velocity": 1,
      "hand": "right"
    },
    {
      "midi": 69,
      "time": 43.214,
      "duration": 0.089,
      "velocity": 1,
      "hand": "right"
    },
    {
      "midi": 72,
      "time": 43.214,
      "duration": 0.089,
      "velocity": 1,
      "hand": "right"
    },
    {
      "midi": 66,
      "time": 43.304,
      "duration": 0.089,
      "velocity": 1,
      "hand": "right"
    },
    {
      "midi": 73,
      "time": 43.304,
      "duration": 0.089,
      "velocity": 1,
      "hand": "right"
    },
    {
      "midi": 78,
      "time": 43.393,
      "duration": 0.089,
      "velocity": 1,
      "hand": "right"
    },
    {
      "midi": 61,
      "time": 43.482,
      "duration": 0.089,
      "velocity": 1,
      "hand": "right"
    },
    {
      "midi": 81,
      "time": 43.482,
      "duration": 0.089,
      "velocity": 1,
      "hand": "right"
    },
    {
      "midi": 56,
      "time": 43.571,
      "duration": 0.089,
      "velocity": 1,
      "hand": "left"
    },
    {
      "midi": 78,
      "time": 43.571,
      "duration": 0.089,
      "velocity": 1,
      "hand": "right"
    },
    {
      "midi": 61,
      "time": 43.661,
      "duration": 0.089,
      "velocity": 1,
      "hand": "right"
    },
    {
      "midi": 77,
      "time": 43.661,
      "duration": 0.089,
      "velocity": 1,
      "hand": "right"
    },
    {
      "midi": 78,
      "time": 43.75,
      "duration": 0.089,
      "velocity": 1,
      "hand": "right"
    },
    {
      "midi": 65,
      "time": 43.839,
      "duration": 0.089,
      "velocity": 1,
      "hand": "right"
    },
    {
      "midi": 77,
      "time": 43.839,
      "duration": 0.089,
      "velocity": 1,
      "hand": "right"
    },
    {
      "midi": 71,
      "time": 43.929,
      "duration": 0.089,
      "velocity": 1,
      "hand": "right"
    },
    {
      "midi": 76,
      "time": 43.929,
      "duration": 0.089,
      "velocity": 1,
      "hand": "right"
    },
    {
      "midi": 65,
      "time": 44.018,
      "duration": 0.089,
      "velocity": 1,
      "hand": "right"
    },
    {
      "midi": 77,
      "time": 44.018,
      "duration": 0.089,
      "velocity": 1,
      "hand": "right"
    },
    {
      "midi": 80,
      "time": 44.107,
      "duration": 0.089,
      "velocity": 1,
      "hand": "right"
    },
    {
      "midi": 61,
      "time": 44.196,
      "duration": 0.089,
      "velocity": 1,
      "hand": "right"
    },
    {
      "midi": 85,
      "time": 44.196,
      "duration": 0.089,
      "velocity": 1,
      "hand": "right"
    },
    {
      "midi": 57,
      "time": 44.286,
      "duration": 0.089,
      "velocity": 1,
      "hand": "left"
    },
    {
      "midi": 80,
      "time": 44.286,
      "duration": 0.089,
      "velocity": 1,
      "hand": "right"
    },
    {
      "midi": 61,
      "time": 44.375,
      "duration": 0.089,
      "velocity": 1,
      "hand": "right"
    },
    {
      "midi": 78,
      "time": 44.375,
      "duration": 0.089,
      "velocity": 1,
      "hand": "right"
    },
    {
      "midi": 80,
      "time": 44.464,
      "duration": 0.089,
      "velocity": 1,
      "hand": "right"
    },
    {
      "midi": 66,
      "time": 44.554,
      "duration": 0.089,
      "velocity": 1,
      "hand": "right"
    },
    {
      "midi": 78,
      "time": 44.554,
      "duration": 0.089,
      "velocity": 1,
      "hand": "right"
    },
    {
      "midi": 69,
      "time": 44.643,
      "duration": 0.089,
      "velocity": 1,
      "hand": "right"
    },
    {
      "midi": 77,
      "time": 44.643,
      "duration": 0.089,
      "velocity": 1,
      "hand": "right"
    },
    {
      "midi": 66,
      "time": 44.732,
      "duration": 0.089,
      "velocity": 1,
      "hand": "right"
    },
    {
      "midi": 78,
      "time": 44.732,
      "duration": 0.089,
      "velocity": 1,
      "hand": "right"
    },
    {
      "midi": 81,
      "time": 44.821,
      "duration": 0.089,
      "velocity": 1,
      "hand": "right"
    },
    {
      "midi": 61,
      "time": 44.911,
      "duration": 0.089,
      "velocity": 1,
      "hand": "right"
    },
    {
      "midi": 85,
      "time": 44.911,
      "duration": 0.089,
      "velocity": 1,
      "hand": "right"
    },
    {
      "midi": 48,
      "time": 45,
      "duration": 0.089,
      "velocity": 1,
      "hand": "left"
    },
    {
      "midi": 81,
      "time": 45,
      "duration": 0.089,
      "velocity": 1,
      "hand": "right"
    },
    {
      "midi": 54,
      "time": 45.089,
      "duration": 0.089,
      "velocity": 1,
      "hand": "left"
    },
    {
      "midi": 80,
      "time": 45.089,
      "duration": 0.089,
      "velocity": 1,
      "hand": "right"
    },
    {
      "midi": 81,
      "time": 45.179,
      "duration": 0.089,
      "velocity": 1,
      "hand": "right"
    },
    {
      "midi": 56,
      "time": 45.268,
      "duration": 0.089,
      "velocity": 1,
      "hand": "left"
    },
    {
      "midi": 80,
      "time": 45.268,
      "duration": 0.089,
      "velocity": 1,
      "hand": "right"
    },
    {
      "midi": 63,
      "time": 45.357,
      "duration": 0.089,
      "velocity": 1,
      "hand": "right"
    },
    {
      "midi": 79,
      "time": 45.357,
      "duration": 0.089,
      "velocity": 1,
      "hand": "right"
    },
    {
      "midi": 56,
      "time": 45.446,
      "duration": 0.089,
      "velocity": 1,
      "hand": "left"
    },
    {
      "midi": 80,
      "time": 45.446,
      "duration": 0.089,
      "velocity": 1,
      "hand": "right"
    },
    {
      "midi": 84,
      "time": 45.536,
      "duration": 0.089,
      "velocity": 1,
      "hand": "right"
    },
    {
      "midi": 54,
      "time": 45.625,
      "duration": 0.089,
      "velocity": 1,
      "hand": "left"
    },
    {
      "midi": 87,
      "time": 45.625,
      "duration": 0.089,
      "velocity": 1,
      "hand": "right"
    },
    {
      "midi": 49,
      "time": 45.714,
      "duration": 0.089,
      "velocity": 1,
      "hand": "left"
    },
    {
      "midi": 80,
      "time": 45.714,
      "duration": 0.089,
      "velocity": 1,
      "hand": "right"
    },
    {
      "midi": 56,
      "time": 45.804,
      "duration": 0.089,
      "velocity": 1,
      "hand": "left"
    },
    {
      "midi": 81,
      "time": 45.804,
      "duration": 0.089,
      "velocity": 1,
      "hand": "right"
    },
    {
      "midi": 80,
      "time": 45.893,
      "duration": 0.089,
      "velocity": 1,
      "hand": "right"
    },
    {
      "midi": 61,
      "time": 45.982,
      "duration": 0.089,
      "velocity": 1,
      "hand": "right"
    },
    {
      "midi": 79,
      "time": 45.982,
      "duration": 0.089,
      "velocity": 1,
      "hand": "right"
    },
    {
      "midi": 64,
      "time": 46.071,
      "duration": 0.089,
      "velocity": 1,
      "hand": "right"
    },
    {
      "midi": 80,
      "time": 46.071,
      "duration": 0.089,
      "velocity": 1,
      "hand": "right"
    },
    {
      "midi": 61,
      "time": 46.161,
      "duration": 0.089,
      "velocity": 1,
      "hand": "right"
    },
    {
      "midi": 88,
      "time": 46.161,
      "duration": 0.089,
      "velocity": 1,
      "hand": "right"
    },
    {
      "midi": 87,
      "time": 46.25,
      "duration": 0.089,
      "velocity": 1,
      "hand": "right"
    },
    {
      "midi": 56,
      "time": 46.339,
      "duration": 0.089,
      "velocity": 1,
      "hand": "left"
    },
    {
      "midi": 86,
      "time": 46.339,
      "duration": 0.089,
      "velocity": 1,
      "hand": "right"
    },
    {
      "midi": 51,
      "time": 46.429,
      "duration": 0.089,
      "velocity": 1,
      "hand": "left"
    },
    {
      "midi": 85,
      "time": 46.429,
      "duration": 0.089,
      "velocity": 1,
      "hand": "right"
    },
    {
      "midi": 56,
      "time": 46.518,
      "duration": 0.089,
      "velocity": 1,
      "hand": "left"
    },
    {
      "midi": 84,
      "time": 46.518,
      "duration": 0.089,
      "velocity": 1,
      "hand": "right"
    },
    {
      "midi": 83,
      "time": 46.607,
      "duration": 0.089,
      "velocity": 1,
      "hand": "right"
    },
    {
      "midi": 60,
      "time": 46.696,
      "duration": 0.089,
      "velocity": 1,
      "hand": "right"
    },
    {
      "midi": 82,
      "time": 46.696,
      "duration": 0.089,
      "velocity": 1,
      "hand": "right"
    },
    {
      "midi": 66,
      "time": 46.786,
      "duration": 0.089,
      "velocity": 1,
      "hand": "right"
    },
    {
      "midi": 81,
      "time": 46.786,
      "duration": 0.089,
      "velocity": 1,
      "hand": "right"
    },
    {
      "midi": 60,
      "time": 46.875,
      "duration": 0.089,
      "velocity": 1,
      "hand": "right"
    },
    {
      "midi": 80,
      "time": 46.875,
      "duration": 0.089,
      "velocity": 1,
      "hand": "right"
    },
    {
      "midi": 79,
      "time": 46.964,
      "duration": 0.089,
      "velocity": 1,
      "hand": "right"
    },
    {
      "midi": 56,
      "time": 47.054,
      "duration": 0.089,
      "velocity": 1,
      "hand": "left"
    },
    {
      "midi": 78,
      "time": 47.054,
      "duration": 0.089,
      "velocity": 1,
      "hand": "right"
    },
    {
      "midi": 49,
      "time": 47.143,
      "duration": 0.089,
      "velocity": 1,
      "hand": "left"
    },
    {
      "midi": 76,
      "time": 47.143,
      "duration": 0.089,
      "velocity": 1,
      "hand": "right"
    },
    {
      "midi": 56,
      "time": 47.232,
      "duration": 0.089,
      "velocity": 1,
      "hand": "left"
    },
    {
      "midi": 78,
      "time": 47.232,
      "duration": 0.089,
      "velocity": 1,
      "hand": "right"
    },
    {
      "midi": 76,
      "time": 47.321,
      "duration": 0.089,
      "velocity": 1,
      "hand": "right"
    },
    {
      "midi": 61,
      "time": 47.411,
      "duration": 0.089,
      "velocity": 1,
      "hand": "right"
    },
    {
      "midi": 75,
      "time": 47.411,
      "duration": 0.089,
      "velocity": 1,
      "hand": "right"
    },
    {
      "midi": 64,
      "time": 47.5,
      "duration": 0.089,
      "velocity": 1,
      "hand": "right"
    },
    {
      "midi": 76,
      "time": 47.5,
      "duration": 0.089,
      "velocity": 1,
      "hand": "right"
    },
    {
      "midi": 61,
      "time": 47.589,
      "duration": 0.089,
      "velocity": 1,
      "hand": "right"
    },
    {
      "midi": 88,
      "time": 47.589,
      "duration": 0.089,
      "velocity": 1,
      "hand": "right"
    },
    {
      "midi": 87,
      "time": 47.679,
      "duration": 0.089,
      "velocity": 1,
      "hand": "right"
    },
    {
      "midi": 56,
      "time": 47.768,
      "duration": 0.089,
      "velocity": 1,
      "hand": "left"
    },
    {
      "midi": 86,
      "time": 47.768,
      "duration": 0.089,
      "velocity": 1,
      "hand": "right"
    },
    {
      "midi": 54,
      "time": 47.857,
      "duration": 0.089,
      "velocity": 1,
      "hand": "left"
    },
    {
      "midi": 85,
      "time": 47.857,
      "duration": 0.089,
      "velocity": 1,
      "hand": "right"
    },
    {
      "midi": 61,
      "time": 47.946,
      "duration": 0.089,
      "velocity": 1,
      "hand": "right"
    },
    {
      "midi": 84,
      "time": 47.946,
      "duration": 0.089,
      "velocity": 1,
      "hand": "right"
    },
    {
      "midi": 83,
      "time": 48.036,
      "duration": 0.089,
      "velocity": 1,
      "hand": "right"
    },
    {
      "midi": 63,
      "time": 48.125,
      "duration": 0.089,
      "velocity": 1,
      "hand": "right"
    },
    {
      "midi": 82,
      "time": 48.125,
      "duration": 0.089,
      "velocity": 1,
      "hand": "right"
    },
    {
      "midi": 69,
      "time": 48.214,
      "duration": 0.089,
      "velocity": 1,
      "hand": "right"
    },
    {
      "midi": 81,
      "time": 48.214,
      "duration": 0.089,
      "velocity": 1,
      "hand": "right"
    },
    {
      "midi": 63,
      "time": 48.304,
      "duration": 0.089,
      "velocity": 1,
      "hand": "right"
    },
    {
      "midi": 80,
      "time": 48.304,
      "duration": 0.089,
      "velocity": 1,
      "hand": "right"
    },
    {
      "midi": 79,
      "time": 48.393,
      "duration": 0.089,
      "velocity": 1,
      "hand": "right"
    },
    {
      "midi": 61,
      "time": 48.482,
      "duration": 0.089,
      "velocity": 1,
      "hand": "right"
    },
    {
      "midi": 78,
      "time": 48.482,
      "duration": 0.089,
      "velocity": 1,
      "hand": "right"
    },
    {
      "midi": 56,
      "time": 48.571,
      "duration": 0.179,
      "velocity": 1,
      "hand": "left"
    },
    {
      "midi": 61,
      "time": 48.571,
      "duration": 0.179,
      "velocity": 1,
      "hand": "right"
    },
    {
      "midi": 64,
      "time": 48.571,
      "duration": 0.179,
      "velocity": 1,
      "hand": "right"
    },
    {
      "midi": 68,
      "time": 48.571,
      "duration": 0.179,
      "velocity": 1,
      "hand": "right"
    },
    {
      "midi": 80,
      "time": 48.571,
      "duration": 0.089,
      "velocity": 1,
      "hand": "right"
    },
    {
      "midi": 92,
      "time": 48.75,
      "duration": 0.089,
      "velocity": 1,
      "hand": "right"
    },
    {
      "midi": 91,
      "time": 48.839,
      "duration": 0.089,
      "velocity": 1,
      "hand": "right"
    },
    {
      "midi": 90,
      "time": 48.929,
      "duration": 0.089,
      "velocity": 1,
      "hand": "right"
    },
    {
      "midi": 89,
      "time": 49.018,
      "duration": 0.089,
      "velocity": 1,
      "hand": "right"
    },
    {
      "midi": 88,
      "time": 49.107,
      "duration": 0.089,
      "velocity": 1,
      "hand": "right"
    },
    {
      "midi": 87,
      "time": 49.196,
      "duration": 0.089,
      "velocity": 1,
      "hand": "right"
    },
    {
      "midi": 55,
      "time": 49.286,
      "duration": 0.357,
      "velocity": 1,
      "hand": "left"
    },
    {
      "midi": 61,
      "time": 49.286,
      "duration": 0.357,
      "velocity": 1,
      "hand": "right"
    },
    {
      "midi": 64,
      "time": 49.286,
      "duration": 0.357,
      "velocity": 1,
      "hand": "right"
    },
    {
      "midi": 69,
      "time": 49.286,
      "duration": 0.357,
      "velocity": 1,
      "hand": "right"
    },
    {
      "midi": 86,
      "time": 49.286,
      "duration": 0.089,
      "velocity": 1,
      "hand": "right"
    },
    {
      "midi": 85,
      "time": 49.375,
      "duration": 0.089,
      "velocity": 1,
      "hand": "right"
    },
    {
      "midi": 84,
      "time": 49.464,
      "duration": 0.089,
      "velocity": 1,
      "hand": "right"
    },
    {
      "midi": 83,
      "time": 49.554,
      "duration": 0.089,
      "velocity": 1,
      "hand": "right"
    },
    {
      "midi": 82,
      "time": 49.643,
      "duration": 0.089,
      "velocity": 1,
      "hand": "right"
    },
    {
      "midi": 81,
      "time": 49.732,
      "duration": 0.089,
      "velocity": 1,
      "hand": "right"
    },
    {
      "midi": 80,
      "time": 49.821,
      "duration": 0.089,
      "velocity": 1,
      "hand": "right"
    },
    {
      "midi": 79,
      "time": 49.911,
      "duration": 0.089,
      "velocity": 1,
      "hand": "right"
    },
    {
      "midi": 78,
      "time": 50,
      "duration": 0.089,
      "velocity": 1,
      "hand": "right"
    },
    {
      "midi": 77,
      "time": 50.089,
      "duration": 0.089,
      "velocity": 1,
      "hand": "right"
    },
    {
      "midi": 76,
      "time": 50.179,
      "duration": 0.089,
      "velocity": 1,
      "hand": "right"
    },
    {
      "midi": 75,
      "time": 50.268,
      "duration": 0.089,
      "velocity": 1,
      "hand": "right"
    },
    {
      "midi": 74,
      "time": 50.357,
      "duration": 0.089,
      "velocity": 1,
      "hand": "right"
    },
    {
      "midi": 73,
      "time": 50.446,
      "duration": 0.089,
      "velocity": 1,
      "hand": "right"
    },
    {
      "midi": 72,
      "time": 50.536,
      "duration": 0.089,
      "velocity": 1,
      "hand": "right"
    },
    {
      "midi": 71,
      "time": 50.625,
      "duration": 0.089,
      "velocity": 1,
      "hand": "right"
    },
    {
      "midi": 70,
      "time": 50.714,
      "duration": 0.089,
      "velocity": 1,
      "hand": "right"
    },
    {
      "midi": 69,
      "time": 50.804,
      "duration": 0.089,
      "velocity": 1,
      "hand": "right"
    },
    {
      "midi": 68,
      "time": 50.893,
      "duration": 0.089,
      "velocity": 1,
      "hand": "right"
    },
    {
      "midi": 67,
      "time": 50.982,
      "duration": 0.089,
      "velocity": 1,
      "hand": "right"
    },
    {
      "midi": 66,
      "time": 51.071,
      "duration": 0.089,
      "velocity": 1,
      "hand": "right"
    },
    {
      "midi": 64,
      "time": 51.161,
      "duration": 0.089,
      "velocity": 1,
      "hand": "right"
    },
    {
      "midi": 63,
      "time": 51.25,
      "duration": 0.089,
      "velocity": 1,
      "hand": "right"
    },
    {
      "midi": 61,
      "time": 51.339,
      "duration": 0.089,
      "velocity": 1,
      "hand": "right"
    },
    {
      "midi": 32,
      "time": 51.429,
      "duration": 0.179,
      "velocity": 1,
      "hand": "left"
    },
    {
      "midi": 44,
      "time": 51.429,
      "duration": 0.179,
      "velocity": 1,
      "hand": "left"
    },
    {
      "midi": 56,
      "time": 51.429,
      "duration": 0.179,
      "velocity": 1,
      "hand": "left"
    },
    {
      "midi": 64,
      "time": 51.786,
      "duration": 0.357,
      "velocity": 1,
      "hand": "right"
    },
    {
      "midi": 76,
      "time": 51.786,
      "duration": 0.357,
      "velocity": 1,
      "hand": "right"
    },
    {
      "midi": 93,
      "time": 51.786,
      "duration": 0.089,
      "velocity": 1,
      "hand": "right"
    },
    {
      "midi": 92,
      "time": 51.875,
      "duration": 0.089,
      "velocity": 1,
      "hand": "right"
    },
    {
      "midi": 100,
      "time": 51.964,
      "duration": 0.089,
      "velocity": 1,
      "hand": "right"
    },
    {
      "midi": 88,
      "time": 52.054,
      "duration": 0.089,
      "velocity": 1,
      "hand": "right"
    },
    {
      "midi": 61,
      "time": 52.143,
      "duration": 0.357,
      "velocity": 1,
      "hand": "right"
    },
    {
      "midi": 73,
      "time": 52.143,
      "duration": 0.357,
      "velocity": 1,
      "hand": "right"
    },
    {
      "midi": 90,
      "time": 52.143,
      "duration": 0.089,
      "velocity": 1,
      "hand": "right"
    },
    {
      "midi": 88,
      "time": 52.232,
      "duration": 0.089,
      "velocity": 1,
      "hand": "right"
    },
    {
      "midi": 97,
      "time": 52.321,
      "duration": 0.089,
      "velocity": 1,
      "hand": "right"
    },
    {
      "midi": 85,
      "time": 52.411,
      "duration": 0.089,
      "velocity": 1,
      "hand": "right"
    },
    {
      "midi": 56,
      "time": 52.5,
      "duration": 0.357,
      "velocity": 1,
      "hand": "left"
    },
    {
      "midi": 68,
      "time": 52.5,
      "duration": 0.357,
      "velocity": 1,
      "hand": "right"
    },
    {
      "midi": 87,
      "time": 52.5,
      "duration": 0.089,
      "velocity": 1,
      "hand": "right"
    },
    {
      "midi": 85,
      "time": 52.589,
      "duration": 0.089,
      "velocity": 1,
      "hand": "right"
    },
    {
      "midi": 92,
      "time": 52.679,
      "duration": 0.089,
      "velocity": 1,
      "hand": "right"
    },
    {
      "midi": 80,
      "time": 52.768,
      "duration": 0.089,
      "velocity": 1,
      "hand": "right"
    },
    {
      "midi": 52,
      "time": 52.857,
      "duration": 0.357,
      "velocity": 1,
      "hand": "left"
    },
    {
      "midi": 64,
      "time": 52.857,
      "duration": 0.357,
      "velocity": 1,
      "hand": "right"
    },
    {
      "midi": 81,
      "time": 52.857,
      "duration": 0.089,
      "velocity": 1,
      "hand": "right"
    },
    {
      "midi": 80,
      "time": 52.946,
      "duration": 0.089,
      "velocity": 1,
      "hand": "right"
    },
    {
      "midi": 88,
      "time": 53.036,
      "duration": 0.089,
      "velocity": 1,
      "hand": "right"
    },
    {
      "midi": 76,
      "time": 53.125,
      "duration": 0.089,
      "velocity": 1,
      "hand": "right"
    },
    {
      "midi": 49,
      "time": 53.214,
      "duration": 0.357,
      "velocity": 1,
      "hand": "left"
    },
    {
      "midi": 61,
      "time": 53.214,
      "duration": 0.357,
      "velocity": 1,
      "hand": "right"
    },
    {
      "midi": 78,
      "time": 53.214,
      "duration": 0.089,
      "velocity": 1,
      "hand": "right"
    },
    {
      "midi": 76,
      "time": 53.304,
      "duration": 0.089,
      "velocity": 1,
      "hand": "right"
    },
    {
      "midi": 85,
      "time": 53.393,
      "duration": 0.089,
      "velocity": 1,
      "hand": "right"
    },
    {
      "midi": 73,
      "time": 53.482,
      "duration": 0.089,
      "velocity": 1,
      "hand": "right"
    },
    {
      "midi": 44,
      "time": 53.571,
      "duration": 0.357,
      "velocity": 1,
      "hand": "left"
    },
    {
      "midi": 56,
      "time": 53.571,
      "duration": 0.357,
      "velocity": 1,
      "hand": "left"
    },
    {
      "midi": 75,
      "time": 53.571,
      "duration": 0.089,
      "velocity": 1,
      "hand": "right"
    },
    {
      "midi": 73,
      "time": 53.661,
      "duration": 0.089,
      "velocity": 1,
      "hand": "right"
    },
    {
      "midi": 80,
      "time": 53.75,
      "duration": 0.089,
      "velocity": 1,
      "hand": "right"
    },
    {
      "midi": 68,
      "time": 53.839,
      "duration": 0.089,
      "velocity": 1,
      "hand": "right"
    },
    {
      "midi": 40,
      "time": 53.929,
      "duration": 0.357,
      "velocity": 1,
      "hand": "left"
    },
    {
      "midi": 52,
      "time": 53.929,
      "duration": 0.357,
      "velocity": 1,
      "hand": "left"
    },
    {
      "midi": 69,
      "time": 53.929,
      "duration": 0.089,
      "velocity": 1,
      "hand": "right"
    },
    {
      "midi": 68,
      "time": 54.018,
      "duration": 0.089,
      "velocity": 1,
      "hand": "right"
    },
    {
      "midi": 76,
      "time": 54.107,
      "duration": 0.089,
      "velocity": 1,
      "hand": "right"
    },
    {
      "midi": 64,
      "time": 54.196,
      "duration": 0.089,
      "velocity": 1,
      "hand": "right"
    },
    {
      "midi": 37,
      "time": 54.286,
      "duration": 0.357,
      "velocity": 1,
      "hand": "left"
    },
    {
      "midi": 49,
      "time": 54.286,
      "duration": 0.357,
      "velocity": 1,
      "hand": "left"
    },
    {
      "midi": 66,
      "time": 54.286,
      "duration": 0.089,
      "velocity": 1,
      "hand": "right"
    },
    {
      "midi": 64,
      "time": 54.375,
      "duration": 0.089,
      "velocity": 1,
      "hand": "right"
    },
    {
      "midi": 73,
      "time": 54.464,
      "duration": 0.089,
      "velocity": 1,
      "hand": "right"
    },
    {
      "midi": 61,
      "time": 54.554,
      "duration": 0.089,
      "velocity": 1,
      "hand": "right"
    },
    {
      "midi": 32,
      "time": 54.643,
      "duration": 0.357,
      "velocity": 1,
      "hand": "left"
    },
    {
      "midi": 44,
      "time": 54.643,
      "duration": 0.357,
      "velocity": 1,
      "hand": "left"
    },
    {
      "midi": 63,
      "time": 54.643,
      "duration": 0.089,
      "velocity": 1,
      "hand": "right"
    },
    {
      "midi": 61,
      "time": 54.732,
      "duration": 0.089,
      "velocity": 1,
      "hand": "right"
    },
    {
      "midi": 68,
      "time": 54.821,
      "duration": 0.089,
      "velocity": 1,
      "hand": "right"
    },
    {
      "midi": 56,
      "time": 54.911,
      "duration": 0.089,
      "velocity": 1,
      "hand": "left"
    },
    {
      "midi": 32,
      "time": 55,
      "duration": 0.357,
      "velocity": 1,
      "hand": "left"
    },
    {
      "midi": 44,
      "time": 55,
      "duration": 0.357,
      "velocity": 1,
      "hand": "left"
    },
    {
      "midi": 63,
      "time": 55,
      "duration": 0.089,
      "velocity": 1,
      "hand": "right"
    },
    {
      "midi": 61,
      "time": 55.089,
      "duration": 0.089,
      "velocity": 1,
      "hand": "right"
    },
    {
      "midi": 68,
      "time": 55.179,
      "duration": 0.089,
      "velocity": 1,
      "hand": "right"
    },
    {
      "midi": 56,
      "time": 55.268,
      "duration": 0.089,
      "velocity": 1,
      "hand": "left"
    },
    {
      "midi": 33,
      "time": 55.357,
      "duration": 0.357,
      "velocity": 1,
      "hand": "left"
    },
    {
      "midi": 45,
      "time": 55.357,
      "duration": 0.357,
      "velocity": 1,
      "hand": "left"
    },
    {
      "midi": 63,
      "time": 55.357,
      "duration": 0.089,
      "velocity": 1,
      "hand": "right"
    },
    {
      "midi": 61,
      "time": 55.446,
      "duration": 0.089,
      "velocity": 1,
      "hand": "right"
    },
    {
      "midi": 69,
      "time": 55.536,
      "duration": 0.089,
      "velocity": 1,
      "hand": "right"
    },
    {
      "midi": 57,
      "time": 55.625,
      "duration": 0.089,
      "velocity": 1,
      "hand": "left"
    },
    {
      "midi": 32,
      "time": 55.714,
      "duration": 0.357,
      "velocity": 1,
      "hand": "left"
    },
    {
      "midi": 44,
      "time": 55.714,
      "duration": 0.357,
      "velocity": 1,
      "hand": "left"
    },
    {
      "midi": 63,
      "time": 55.714,
      "duration": 0.089,
      "velocity": 1,
      "hand": "right"
    },
    {
      "midi": 61,
      "time": 55.804,
      "duration": 0.089,
      "velocity": 1,
      "hand": "right"
    },
    {
      "midi": 68,
      "time": 55.893,
      "duration": 0.089,
      "velocity": 1,
      "hand": "right"
    },
    {
      "midi": 56,
      "time": 55.982,
      "duration": 0.089,
      "velocity": 1,
      "hand": "left"
    },
    {
      "midi": 31,
      "time": 56.071,
      "duration": 0.357,
      "velocity": 1,
      "hand": "left"
    },
    {
      "midi": 43,
      "time": 56.071,
      "duration": 0.357,
      "velocity": 1,
      "hand": "left"
    },
    {
      "midi": 63,
      "time": 56.071,
      "duration": 0.089,
      "velocity": 1,
      "hand": "right"
    },
    {
      "midi": 61,
      "time": 56.161,
      "duration": 0.089,
      "velocity": 1,
      "hand": "right"
    },
    {
      "midi": 67,
      "time": 56.25,
      "duration": 0.089,
      "velocity": 1,
      "hand": "right"
    },
    {
      "midi": 55,
      "time": 56.339,
      "duration": 0.089,
      "velocity": 1,
      "hand": "left"
    },
    {
      "midi": 32,
      "time": 56.429,
      "duration": 0.714,
      "velocity": 1,
      "hand": "left"
    },
    {
      "midi": 44,
      "time": 56.429,
      "duration": 0.714,
      "velocity": 1,
      "hand": "left"
    },
    {
      "midi": 63,
      "time": 56.429,
      "duration": 0.089,
      "velocity": 1,
      "hand": "right"
    },
    {
      "midi": 61,
      "time": 56.518,
      "duration": 0.089,
      "velocity": 1,
      "hand": "right"
    },
    {
      "midi": 68,
      "time": 56.607,
      "duration": 0.089,
      "velocity": 1,
      "hand": "right"
    },
    {
      "midi": 56,
      "time": 56.696,
      "duration": 0.089,
      "velocity": 1,
      "hand": "left"
    },
    {
      "midi": 63,
      "time": 56.786,
      "duration": 0.089,
      "velocity": 1,
      "hand": "right"
    },
    {
      "midi": 60,
      "time": 56.875,
      "duration": 0.089,
      "velocity": 1,
      "hand": "right"
    },
    {
      "midi": 68,
      "time": 56.964,
      "duration": 0.089,
      "velocity": 1,
      "hand": "right"
    },
    {
      "midi": 56,
      "time": 57.054,
      "duration": 0.089,
      "velocity": 1,
      "hand": "left"
    },
    {
      "midi": 37,
      "time": 57.143,
      "duration": 0.357,
      "velocity": 1,
      "hand": "left"
    },
    {
      "midi": 44,
      "time": 57.5,
      "duration": 0.357,
      "velocity": 1,
      "hand": "left"
    },
    {
      "midi": 49,
      "time": 57.768,
      "duration": 0.357,
      "velocity": 1,
      "hand": "left"
    },
    {
      "midi": 53,
      "time": 58.125,
      "duration": 0.357,
      "velocity": 1,
      "hand": "left"
    },
    {
      "midi": 56,
      "time": 58.482,
      "duration": 0.357,
      "velocity": 1,
      "hand": "left"
    },
    {
      "midi": 61,
      "time": 58.839,
      "duration": 0.357,
      "velocity": 1,
      "hand": "right"
    },
    {
      "midi": 65,
      "time": 59.107,
      "duration": 0.357,
      "velocity": 1,
      "hand": "right"
    },
    {
      "midi": 61,
      "time": 59.464,
      "duration": 0.357,
      "velocity": 1,
      "hand": "right"
    },
    {
      "midi": 56,
      "time": 59.821,
      "duration": 0.357,
      "velocity": 1,
      "hand": "left"
    },
    {
      "midi": 53,
      "time": 60.179,
      "duration": 0.357,
      "velocity": 1,
      "hand": "left"
    },
    {
      "midi": 49,
      "time": 60.446,
      "duration": 0.357,
      "velocity": 1,
      "hand": "left"
    },
    {
      "midi": 44,
      "time": 60.804,
      "duration": 0.357,
      "velocity": 1,
      "hand": "left"
    },
    {
      "midi": 37,
      "time": 61.161,
      "duration": 0.357,
      "velocity": 1,
      "hand": "left"
    },
    {
      "midi": 44,
      "time": 61.518,
      "duration": 0.357,
      "velocity": 1,
      "hand": "left"
    },
    {
      "midi": 49,
      "time": 61.786,
      "duration": 0.357,
      "velocity": 1,
      "hand": "left"
    },
    {
      "midi": 53,
      "time": 62.143,
      "duration": 0.357,
      "velocity": 1,
      "hand": "left"
    },
    {
      "midi": 56,
      "time": 62.5,
      "duration": 0.357,
      "velocity": 1,
      "hand": "left"
    },
    {
      "midi": 61,
      "time": 62.768,
      "duration": 0.357,
      "velocity": 1,
      "hand": "right"
    },
    {
      "midi": 65,
      "time": 63.125,
      "duration": 0.357,
      "velocity": 1,
      "hand": "right"
    },
    {
      "midi": 61,
      "time": 63.482,
      "duration": 0.357,
      "velocity": 1,
      "hand": "right"
    },
    {
      "midi": 56,
      "time": 63.839,
      "duration": 0.357,
      "velocity": 1,
      "hand": "left"
    },
    {
      "midi": 53,
      "time": 64.107,
      "duration": 0.357,
      "velocity": 1,
      "hand": "left"
    },
    {
      "midi": 49,
      "time": 64.464,
      "duration": 0.357,
      "velocity": 1,
      "hand": "left"
    },
    {
      "midi": 44,
      "time": 64.821,
      "duration": 0.536,
      "velocity": 1,
      "hand": "left"
    },
    {
      "midi": 37,
      "time": 65.179,
      "duration": 0.179,
      "velocity": 1,
      "hand": "left"
    },
    {
      "midi": 68,
      "time": 65.179,
      "duration": 1.339,
      "velocity": 1,
      "hand": "right"
    },
    {
      "midi": 56,
      "time": 65.357,
      "duration": 0.179,
      "velocity": 1,
      "hand": "left"
    },
    {
      "midi": 60,
      "time": 65.625,
      "duration": 0.179,
      "velocity": 1,
      "hand": "right"
    },
    {
      "midi": 63,
      "time": 65.804,
      "duration": 0.179,
      "velocity": 1,
      "hand": "right"
    },
    {
      "midi": 60,
      "time": 66.071,
      "duration": 0.179,
      "velocity": 1,
      "hand": "right"
    },
    {
      "midi": 56,
      "time": 66.25,
      "duration": 0.179,
      "velocity": 1,
      "hand": "left"
    },
    {
      "midi": 49,
      "time": 66.518,
      "duration": 0.179,
      "velocity": 1,
      "hand": "left"
    },
    {
      "midi": 70,
      "time": 66.518,
      "duration": 0.357,
      "velocity": 1,
      "hand": "right"
    },
    {
      "midi": 56,
      "time": 66.696,
      "duration": 0.179,
      "velocity": 1,
      "hand": "left"
    },
    {
      "midi": 68,
      "time": 66.786,
      "duration": 0.357,
      "velocity": 1,
      "hand": "right"
    },
    {
      "midi": 60,
      "time": 66.964,
      "duration": 0.179,
      "velocity": 1,
      "hand": "right"
    },
    {
      "midi": 66,
      "time": 67.143,
      "duration": 0.179,
      "velocity": 1,
      "hand": "right"
    },
    {
      "midi": 73,
      "time": 67.143,
      "duration": 0.357,
      "velocity": 1,
      "hand": "right"
    },
    {
      "midi": 60,
      "time": 67.321,
      "duration": 0.179,
      "velocity": 1,
      "hand": "right"
    },
    {
      "midi": 75,
      "time": 67.5,
      "duration": 0.357,
      "velocity": 1,
      "hand": "right"
    },
    {
      "midi": 56,
      "time": 67.589,
      "duration": 0.179,
      "velocity": 1,
      "hand": "left"
    },
    {
      "midi": 49,
      "time": 67.768,
      "duration": 0.179,
      "velocity": 1,
      "hand": "left"
    },
    {
      "midi": 77,
      "time": 67.768,
      "duration": 1.339,
      "velocity": 1,
      "hand": "right"
    },
    {
      "midi": 56,
      "time": 68.036,
      "duration": 0.179,
      "velocity": 1,
      "hand": "left"
    },
    {
      "midi": 61,
      "time": 68.214,
      "duration": 0.179,
      "velocity": 1,
      "hand": "right"
    },
    {
      "midi": 65,
      "time": 68.482,
      "duration": 0.179,
      "velocity": 1,
      "hand": "right"
    },
    {
      "midi": 61,
      "time": 68.661,
      "duration": 0.179,
      "velocity": 1,
      "hand": "right"
    },
    {
      "midi": 56,
      "time": 68.929,
      "duration": 0.179,
      "velocity": 1,
      "hand": "left"
    },
    {
      "midi": 49,
      "time": 69.107,
      "duration": 0.179,
      "velocity": 1,
      "hand": "left"
    },
    {
      "midi": 80,
      "time": 69.107,
      "duration": 1.339,
      "velocity": 1,
      "hand": "right"
    },
    {
      "midi": 56,
      "time": 69.375,
      "duration": 0.179,
      "velocity": 1,
      "hand": "left"
    },
    {
      "midi": 65,
      "time": 69.554,
      "duration": 0.179,
      "velocity": 1,
      "hand": "right"
    },
    {
      "midi": 68,
      "time": 69.821,
      "duration": 0.625,
      "velocity": 1,
      "hand": "right"
    },
    {
      "midi": 65,
      "time": 70,
      "duration": 0.179,
      "velocity": 1,
      "hand": "right"
    },
    {
      "midi": 56,
      "time": 70.268,
      "duration": 0.179,
      "velocity": 1,
      "hand": "left"
    },
    {
      "midi": 66,
      "time": 70.446,
      "duration": 0.625,
      "velocity": 1,
      "hand": "right"
    },
    {
      "midi": 78,
      "time": 70.446,
      "duration": 0.625,
      "velocity": 1,
      "hand": "right"
    },
    {
      "midi": 63,
      "time": 70.714,
      "duration": 0.179,
      "velocity": 1,
      "hand": "right"
    },
    {
      "midi": 56,
      "time": 70.893,
      "duration": 0.179,
      "velocity": 1,
      "hand": "left"
    },
    {
      "midi": 65,
      "time": 71.161,
      "duration": 0.625,
      "velocity": 1,
      "hand": "right"
    },
    {
      "midi": 77,
      "time": 71.161,
      "duration": 0.625,
      "velocity": 1,
      "hand": "right"
    },
    {
      "midi": 61,
      "time": 71.339,
      "duration": 0.179,
      "velocity": 1,
      "hand": "right"
    },
    {
      "midi": 56,
      "time": 71.607,
      "duration": 0.179,
      "velocity": 1,
      "hand": "left"
    },
    {
      "midi": 63,
      "time": 71.786,
      "duration": 0.625,
      "velocity": 1,
      "hand": "right"
    },
    {
      "midi": 75,
      "time": 71.786,
      "duration": 0.625,
      "velocity": 1,
      "hand": "right"
    },
    {
      "midi": 60,
      "time": 72.054,
      "duration": 0.179,
      "velocity": 1,
      "hand": "right"
    },
    {
      "midi": 56,
      "time": 72.232,
      "duration": 0.179,
      "velocity": 1,
      "hand": "left"
    },
    {
      "midi": 61,
      "time": 72.5,
      "duration": 0.625,
      "velocity": 1,
      "hand": "right"
    },
    {
      "midi": 77,
      "time": 72.5,
      "duration": 0.536,
      "velocity": 1,
      "hand": "right"
    },
    {
      "midi": 56,
      "time": 72.679,
      "duration": 0.179,
      "velocity": 1,
      "hand": "left"
    },
    {
      "midi": 53,
      "time": 72.946,
      "duration": 0.179,
      "velocity": 1,
      "hand": "left"
    },
    {
      "midi": 73,
      "time": 72.946,
      "duration": 0.179,
      "velocity": 1,
      "hand": "right"
    },
    {
      "midi": 44,
      "time": 73.125,
      "duration": 0.179,
      "velocity": 1,
      "hand": "left"
    },
    {
      "midi": 68,
      "time": 73.125,
      "duration": 1.339,
      "velocity": 1,
      "hand": "right"
    },
    {
      "midi": 51,
      "time": 73.393,
      "duration": 0.179,
      "velocity": 1,
      "hand": "left"
    },
    {
      "midi": 56,
      "time": 73.571,
      "duration": 0.179,
      "velocity": 1,
      "hand": "left"
    },
    {
      "midi": 60,
      "time": 73.839,
      "duration": 0.179,
      "velocity": 1,
      "hand": "right"
    },
    {
      "midi": 56,
      "time": 74.018,
      "duration": 0.179,
      "velocity": 1,
      "hand": "left"
    },
    {
      "midi": 51,
      "time": 74.286,
      "duration": 0.179,
      "velocity": 1,
      "hand": "left"
    },
    {
      "midi": 42,
      "time": 74.464,
      "duration": 0.179,
      "velocity": 1,
      "hand": "left"
    },
    {
      "midi": 70,
      "time": 74.464,
      "duration": 2.679,
      "velocity": 1,
      "hand": "right"
    },
    {
      "midi": 54,
      "time": 74.732,
      "duration": 0.179,
      "velocity": 1,
      "hand": "left"
    },
    {
      "midi": 58,
      "time": 74.911,
      "duration": 0.179,
      "velocity": 1,
      "hand": "left"
    },
    {
      "midi": 61,
      "time": 75.179,
      "duration": 0.179,
      "velocity": 1,
      "hand": "right"
    },
    {
      "midi": 58,
      "time": 75.357,
      "duration": 0.179,
      "velocity": 1,
      "hand": "left"
    },
    {
      "midi": 54,
      "time": 75.625,
      "duration": 0.179,
      "velocity": 1,
      "hand": "left"
    },
    {
      "midi": 46,
      "time": 75.804,
      "duration": 0.179,
      "velocity": 1,
      "hand": "left"
    },
    {
      "midi": 53,
      "time": 76.071,
      "duration": 0.179,
      "velocity": 1,
      "hand": "left"
    },
    {
      "midi": 58,
      "time": 76.25,
      "duration": 0.179,
      "velocity": 1,
      "hand": "left"
    },
    {
      "midi": 62,
      "time": 76.518,
      "duration": 0.179,
      "velocity": 1,
      "hand": "right"
    },
    {
      "midi": 58,
      "time": 76.696,
      "duration": 0.179,
      "velocity": 1,
      "hand": "left"
    },
    {
      "midi": 53,
      "time": 76.964,
      "duration": 0.179,
      "velocity": 1,
      "hand": "left"
    },
    {
      "midi": 46,
      "time": 77.143,
      "duration": 0.179,
      "velocity": 1,
      "hand": "left"
    },
    {
      "midi": 71,
      "time": 77.143,
      "duration": 0.357,
      "velocity": 1,
      "hand": "right"
    },
    {
      "midi": 58,
      "time": 77.321,
      "duration": 0.179,
      "velocity": 1,
      "hand": "left"
    },
    {
      "midi": 70,
      "time": 77.5,
      "duration": 0.357,
      "velocity": 1,
      "hand": "right"
    },
    {
      "midi": 62,
      "time": 77.589,
      "duration": 0.179,
      "velocity": 1,
      "hand": "right"
    },
    {
      "midi": 68,
      "time": 77.768,
      "duration": 0.179,
      "velocity": 1,
      "hand": "right"
    },
    {
      "midi": 75,
      "time": 77.768,
      "duration": 0.357,
      "velocity": 1,
      "hand": "right"
    },
    {
      "midi": 62,
      "time": 78.036,
      "duration": 0.179,
      "velocity": 1,
      "hand": "right"
    },
    {
      "midi": 77,
      "time": 78.125,
      "duration": 0.357,
      "velocity": 1,
      "hand": "right"
    },
    {
      "midi": 58,
      "time": 78.214,
      "duration": 0.179,
      "velocity": 1,
      "hand": "left"
    },
    {
      "midi": 51,
      "time": 78.482,
      "duration": 0.179,
      "velocity": 1,
      "hand": "left"
    },
    {
      "midi": 78,
      "time": 78.482,
      "duration": 0.625,
      "velocity": 1,
      "hand": "right"
    },
    {
      "midi": 66,
      "time": 78.661,
      "duration": 0.179,
      "velocity": 1,
      "hand": "right"
    },
    {
      "midi": 58,
      "time": 78.929,
      "duration": 0.179,
      "velocity": 1,
      "hand": "left"
    },
    {
      "midi": 53,
      "time": 79.107,
      "duration": 0.179,
      "velocity": 1,
      "hand": "left"
    },
    {
      "midi": 77,
      "time": 79.107,
      "duration": 0.625,
      "velocity": 1,
      "hand": "right"
    },
    {
      "midi": 65,
      "time": 79.375,
      "duration": 0.179,
      "velocity": 1,
      "hand": "right"
    },
    {
      "midi": 57,
      "time": 79.554,
      "duration": 0.179,
      "velocity": 1,
      "hand": "left"
    },
    {
      "midi": 54,
      "time": 79.821,
      "duration": 0.179,
      "velocity": 1,
      "hand": "left"
    },
    {
      "midi": 75,
      "time": 79.821,
      "duration": 0.625,
      "velocity": 1,
      "hand": "right"
    },
    {
      "midi": 63,
      "time": 80,
      "duration": 0.179,
      "velocity": 1,
      "hand": "right"
    },
    {
      "midi": 58,
      "time": 80.268,
      "duration": 0.179,
      "velocity": 1,
      "hand": "left"
    },
    {
      "midi": 56,
      "time": 80.446,
      "duration": 0.179,
      "velocity": 1,
      "hand": "left"
    },
    {
      "midi": 77,
      "time": 80.446,
      "duration": 0.625,
      "velocity": 1,
      "hand": "right"
    },
    {
      "midi": 66,
      "time": 80.714,
      "duration": 0.179,
      "velocity": 1,
      "hand": "right"
    },
    {
      "midi": 60,
      "time": 80.893,
      "duration": 0.179,
      "velocity": 1,
      "hand": "right"
    },
    {
      "midi": 49,
      "time": 81.161,
      "duration": 0.179,
      "velocity": 1,
      "hand": "left"
    },
    {
      "midi": 73,
      "time": 81.161,
      "duration": 1.25,
      "velocity": 1,
      "hand": "right"
    },
    {
      "midi": 56,
      "time": 81.339,
      "duration": 0.179,
      "velocity": 1,
      "hand": "left"
    },
    {
      "midi": 61,
      "time": 81.607,
      "duration": 0.179,
      "velocity": 1,
      "hand": "right"
    },
    {
      "midi": 65,
      "time": 81.786,
      "duration": 0.179,
      "velocity": 1,
      "hand": "right"
    },
    {
      "midi": 61,
      "time": 82.054,
      "duration": 0.179,
      "velocity": 1,
      "hand": "right"
    },
    {
      "midi": 56,
      "time": 82.232,
      "duration": 0.179,
      "velocity": 1,
      "hand": "left"
    },
    {
      "midi": 72,
      "time": 82.411,
      "duration": 0.045,
      "velocity": 1,
      "hand": "right"
    },
    {
      "midi": 73,
      "time": 82.411,
      "duration": 0.045,
      "velocity": 1,
      "hand": "right"
    },
    {
      "midi": 75,
      "time": 82.411,
      "duration": 0.045,
      "velocity": 1,
      "hand": "right"
    },
    {
      "midi": 51,
      "time": 82.5,
      "duration": 0.179,
      "velocity": 1,
      "hand": "left"
    },
    {
      "midi": 73,
      "time": 82.5,
      "duration": 0.045,
      "velocity": 1,
      "hand": "right"
    },
    {
      "midi": 77,
      "time": 82.5,
      "duration": 0.982,
      "velocity": 1,
      "hand": "right"
    },
    {
      "midi": 55,
      "time": 82.679,
      "duration": 0.179,
      "velocity": 1,
      "hand": "left"
    },
    {
      "midi": 61,
      "time": 82.946,
      "duration": 0.179,
      "velocity": 1,
      "hand": "right"
    },
    {
      "midi": 63,
      "time": 83.125,
      "duration": 0.179,
      "velocity": 1,
      "hand": "right"
    },
    {
      "midi": 61,
      "time": 83.393,
      "duration": 0.179,
      "velocity": 1,
      "hand": "right"
    },
    {
      "midi": 75,
      "time": 83.482,
      "duration": 0.357,
      "velocity": 1,
      "hand": "right"
    },
    {
      "midi": 55,
      "time": 83.571,
      "duration": 0.179,
      "velocity": 1,
      "hand": "left"
    },
    {
      "midi": 44,
      "time": 83.839,
      "duration": 0.179,
      "velocity": 1,
      "hand": "left"
    },
    {
      "midi": 75,
      "time": 83.839,
      "duration": 2.679,
      "velocity": 1,
      "hand": "right"
    },
    {
      "midi": 51,
      "time": 84.018,
      "duration": 0.179,
      "velocity": 1,
      "hand": "left"
    },
    {
      "midi": 56,
      "time": 84.286,
      "duration": 0.179,
      "velocity": 1,
      "hand": "left"
    },
    {
      "midi": 60,
      "time": 84.464,
      "duration": 0.179,
      "velocity": 1,
      "hand": "right"
    },
    {
      "midi": 56,
      "time": 84.732,
      "duration": 0.179,
      "velocity": 1,
      "hand": "left"
    },
    {
      "midi": 51,
      "time": 84.911,
      "duration": 0.179,
      "velocity": 1,
      "hand": "left"
    },
    {
      "midi": 44,
      "time": 85.179,
      "duration": 0.179,
      "velocity": 1,
      "hand": "left"
    },
    {
      "midi": 51,
      "time": 85.357,
      "duration": 0.179,
      "velocity": 1,
      "hand": "left"
    },
    {
      "midi": 54,
      "time": 85.625,
      "duration": 0.179,
      "velocity": 1,
      "hand": "left"
    },
    {
      "midi": 58,
      "time": 85.804,
      "duration": 0.625,
      "velocity": 1,
      "hand": "left"
    },
    {
      "midi": 54,
      "time": 86.071,
      "duration": 0.179,
      "velocity": 1,
      "hand": "left"
    },
    {
      "midi": 51,
      "time": 86.25,
      "duration": 0.179,
      "velocity": 1,
      "hand": "left"
    },
    {
      "midi": 44,
      "time": 86.518,
      "duration": 0.179,
      "velocity": 1,
      "hand": "left"
    },
    {
      "midi": 68,
      "time": 86.518,
      "duration": 1.339,
      "velocity": 1,
      "hand": "right"
    },
    {
      "midi": 51,
      "time": 86.696,
      "duration": 0.179,
      "velocity": 1,
      "hand": "left"
    },
    {
      "midi": 56,
      "time": 86.964,
      "duration": 0.179,
      "velocity": 1,
      "hand": "left"
    },
    {
      "midi": 60,
      "time": 87.143,
      "duration": 0.179,
      "velocity": 1,
      "hand": "right"
    },
    {
      "midi": 56,
      "time": 87.321,
      "duration": 0.179,
      "velocity": 1,
      "hand": "left"
    },
    {
      "midi": 51,
      "time": 87.589,
      "duration": 0.179,
      "velocity": 1,
      "hand": "left"
    },
    {
      "midi": 44,
      "time": 87.768,
      "duration": 0.179,
      "velocity": 1,
      "hand": "left"
    },
    {
      "midi": 70,
      "time": 87.768,
      "duration": 0.357,
      "velocity": 1,
      "hand": "right"
    },
    {
      "midi": 56,
      "time": 88.036,
      "duration": 0.179,
      "velocity": 1,
      "hand": "left"
    },
    {
      "midi": 68,
      "time": 88.125,
      "duration": 0.357,
      "velocity": 1,
      "hand": "right"
    },
    {
      "midi": 60,
      "time": 88.214,
      "duration": 0.179,
      "velocity": 1,
      "hand": "right"
    },
    {
      "midi": 66,
      "time": 88.482,
      "duration": 0.179,
      "velocity": 1,
      "hand": "right"
    },
    {
      "midi": 73,
      "time": 88.482,
      "duration": 0.357,
      "velocity": 1,
      "hand": "right"
    },
    {
      "midi": 60,
      "time": 88.661,
      "duration": 0.179,
      "velocity": 1,
      "hand": "right"
    },
    {
      "midi": 75,
      "time": 88.839,
      "duration": 0.357,
      "velocity": 1,
      "hand": "right"
    },
    {
      "midi": 56,
      "time": 88.929,
      "duration": 0.179,
      "velocity": 1,
      "hand": "left"
    },
    {
      "midi": 49,
      "time": 89.107,
      "duration": 0.179,
      "velocity": 1,
      "hand": "left"
    },
    {
      "midi": 77,
      "time": 89.107,
      "duration": 1.339,
      "velocity": 1,
      "hand": "right"
    },
    {
      "midi": 56,
      "time": 89.375,
      "duration": 0.179,
      "velocity": 1,
      "hand": "left"
    },
    {
      "midi": 61,
      "time": 89.554,
      "duration": 0.179,
      "velocity": 1,
      "hand": "right"
    },
    {
      "midi": 65,
      "time": 89.821,
      "duration": 0.179,
      "velocity": 1,
      "hand": "right"
    },
    {
      "midi": 61,
      "time": 90,
      "duration": 0.179,
      "velocity": 1,
      "hand": "right"
    },
    {
      "midi": 56,
      "time": 90.268,
      "duration": 0.179,
      "velocity": 1,
      "hand": "left"
    },
    {
      "midi": 49,
      "time": 90.446,
      "duration": 0.179,
      "velocity": 1,
      "hand": "left"
    },
    {
      "midi": 80,
      "time": 90.446,
      "duration": 1.339,
      "velocity": 1,
      "hand": "right"
    },
    {
      "midi": 56,
      "time": 90.714,
      "duration": 0.179,
      "velocity": 1,
      "hand": "left"
    },
    {
      "midi": 65,
      "time": 90.893,
      "duration": 0.179,
      "velocity": 1,
      "hand": "right"
    },
    {
      "midi": 68,
      "time": 91.161,
      "duration": 0.625,
      "velocity": 1,
      "hand": "right"
    },
    {
      "midi": 65,
      "time": 91.339,
      "duration": 0.179,
      "velocity": 1,
      "hand": "right"
    },
    {
      "midi": 56,
      "time": 91.607,
      "duration": 0.179,
      "velocity": 1,
      "hand": "left"
    },
    {
      "midi": 66,
      "time": 91.786,
      "duration": 0.625,
      "velocity": 1,
      "hand": "right"
    },
    {
      "midi": 78,
      "time": 91.786,
      "duration": 0.625,
      "velocity": 1,
      "hand": "right"
    },
    {
      "midi": 63,
      "time": 92.054,
      "duration": 0.179,
      "velocity": 1,
      "hand": "right"
    },
    {
      "midi": 56,
      "time": 92.232,
      "duration": 0.179,
      "velocity": 1,
      "hand": "left"
    },
    {
      "midi": 65,
      "time": 92.5,
      "duration": 0.625,
      "velocity": 1,
      "hand": "right"
    },
    {
      "midi": 77,
      "time": 92.5,
      "duration": 0.625,
      "velocity": 1,
      "hand": "right"
    },
    {
      "midi": 61,
      "time": 92.679,
      "duration": 0.179,
      "velocity": 1,
      "hand": "right"
    },
    {
      "midi": 56,
      "time": 92.946,
      "duration": 0.179,
      "velocity": 1,
      "hand": "left"
    },
    {
      "midi": 63,
      "time": 93.125,
      "duration": 0.625,
      "velocity": 1,
      "hand": "right"
    },
    {
      "midi": 75,
      "time": 93.125,
      "duration": 0.536,
      "velocity": 1,
      "hand": "right"
    },
    {
      "midi": 60,
      "time": 93.393,
      "duration": 0.179,
      "velocity": 1,
      "hand": "right"
    },
    {
      "midi": 56,
      "time": 93.571,
      "duration": 0.179,
      "velocity": 1,
      "hand": "left"
    },
    {
      "midi": 75,
      "time": 93.661,
      "duration": 0.045,
      "velocity": 1,
      "hand": "right"
    },
    {
      "midi": 77,
      "time": 93.661,
      "duration": 0.045,
      "velocity": 1,
      "hand": "right"
    },
    {
      "midi": 73,
      "time": 93.75,
      "duration": 0.045,
      "velocity": 1,
      "hand": "right"
    },
    {
      "midi": 75,
      "time": 93.75,
      "duration": 0.045,
      "velocity": 1,
      "hand": "right"
    },
    {
      "midi": 61,
      "time": 93.839,
      "duration": 0.625,
      "velocity": 1,
      "hand": "right"
    },
    {
      "midi": 77,
      "time": 93.839,
      "duration": 0.536,
      "velocity": 1,
      "hand": "right"
    },
    {
      "midi": 56,
      "time": 94.018,
      "duration": 0.179,
      "velocity": 1,
      "hand": "left"
    },
    {
      "midi": 53,
      "time": 94.286,
      "duration": 0.179,
      "velocity": 1,
      "hand": "left"
    },
    {
      "midi": 73,
      "time": 94.286,
      "duration": 0.179,
      "velocity": 1,
      "hand": "right"
    },
    {
      "midi": 44,
      "time": 94.464,
      "duration": 0.179,
      "velocity": 1,
      "hand": "left"
    },
    {
      "midi": 68,
      "time": 94.464,
      "duration": 1.339,
      "velocity": 1,
      "hand": "right"
    },
    {
      "midi": 51,
      "time": 94.732,
      "duration": 0.179,
      "velocity": 1,
      "hand": "left"
    },
    {
      "midi": 56,
      "time": 94.911,
      "duration": 0.179,
      "velocity": 1,
      "hand": "left"
    },
    {
      "midi": 60,
      "time": 95.179,
      "duration": 0.179,
      "velocity": 1,
      "hand": "right"
    },
    {
      "midi": 56,
      "time": 95.357,
      "duration": 0.179,
      "velocity": 1,
      "hand": "left"
    },
    {
      "midi": 51,
      "time": 95.625,
      "duration": 0.179,
      "velocity": 1,
      "hand": "left"
    },
    {
      "midi": 42,
      "time": 95.804,
      "duration": 0.179,
      "velocity": 1,
      "hand": "left"
    },
    {
      "midi": 70,
      "time": 95.804,
      "duration": 2.679,
      "velocity": 1,
      "hand": "right"
    },
    {
      "midi": 54,
      "time": 96.071,
      "duration": 0.179,
      "velocity": 1,
      "hand": "left"
    },
    {
      "midi": 58,
      "time": 96.25,
      "duration": 0.179,
      "velocity": 1,
      "hand": "left"
    },
    {
      "midi": 61,
      "time": 96.518,
      "duration": 0.179,
      "velocity": 1,
      "hand": "right"
    },
    {
      "midi": 58,
      "time": 96.696,
      "duration": 0.179,
      "velocity": 1,
      "hand": "left"
    },
    {
      "midi": 54,
      "time": 96.964,
      "duration": 0.179,
      "velocity": 1,
      "hand": "left"
    },
    {
      "midi": 46,
      "time": 97.143,
      "duration": 0.179,
      "velocity": 1,
      "hand": "left"
    },
    {
      "midi": 53,
      "time": 97.321,
      "duration": 0.179,
      "velocity": 1,
      "hand": "left"
    },
    {
      "midi": 58,
      "time": 97.589,
      "duration": 0.179,
      "velocity": 1,
      "hand": "left"
    },
    {
      "midi": 62,
      "time": 97.768,
      "duration": 0.179,
      "velocity": 1,
      "hand": "right"
    },
    {
      "midi": 58,
      "time": 98.036,
      "duration": 0.179,
      "velocity": 1,
      "hand": "left"
    },
    {
      "midi": 53,
      "time": 98.214,
      "duration": 0.179,
      "velocity": 1,
      "hand": "left"
    },
    {
      "midi": 46,
      "time": 98.482,
      "duration": 0.179,
      "velocity": 1,
      "hand": "left"
    },
    {
      "midi": 71,
      "time": 98.482,
      "duration": 0.357,
      "velocity": 1,
      "hand": "right"
    },
    {
      "midi": 58,
      "time": 98.661,
      "duration": 0.179,
      "velocity": 1,
      "hand": "left"
    },
    {
      "midi": 70,
      "time": 98.839,
      "duration": 0.357,
      "velocity": 1,
      "hand": "right"
    },
    {
      "midi": 62,
      "time": 98.929,
      "duration": 0.179,
      "velocity": 1,
      "hand": "right"
    },
    {
      "midi": 68,
      "time": 99.107,
      "duration": 0.179,
      "velocity": 1,
      "hand": "right"
    },
    {
      "midi": 75,
      "time": 99.107,
      "duration": 0.357,
      "velocity": 1,
      "hand": "right"
    },
    {
      "midi": 62,
      "time": 99.375,
      "duration": 0.179,
      "velocity": 1,
      "hand": "right"
    },
    {
      "midi": 77,
      "time": 99.464,
      "duration": 0.357,
      "velocity": 1,
      "hand": "right"
    },
    {
      "midi": 58,
      "time": 99.554,
      "duration": 0.179,
      "velocity": 1,
      "hand": "left"
    },
    {
      "midi": 51,
      "time": 99.821,
      "duration": 0.179,
      "velocity": 1,
      "hand": "left"
    },
    {
      "midi": 78,
      "time": 99.821,
      "duration": 0.625,
      "velocity": 1,
      "hand": "right"
    },
    {
      "midi": 66,
      "time": 100,
      "duration": 0.179,
      "velocity": 1,
      "hand": "right"
    },
    {
      "midi": 58,
      "time": 100.268,
      "duration": 0.179,
      "velocity": 1,
      "hand": "left"
    },
    {
      "midi": 53,
      "time": 100.446,
      "duration": 0.179,
      "velocity": 1,
      "hand": "left"
    },
    {
      "midi": 77,
      "time": 100.446,
      "duration": 0.625,
      "velocity": 1,
      "hand": "right"
    },
    {
      "midi": 65,
      "time": 100.714,
      "duration": 0.179,
      "velocity": 1,
      "hand": "right"
    },
    {
      "midi": 57,
      "time": 100.893,
      "duration": 0.179,
      "velocity": 1,
      "hand": "left"
    },
    {
      "midi": 54,
      "time": 101.161,
      "duration": 0.179,
      "velocity": 1,
      "hand": "left"
    },
    {
      "midi": 75,
      "time": 101.161,
      "duration": 0.625,
      "velocity": 1,
      "hand": "right"
    },
    {
      "midi": 63,
      "time": 101.339,
      "duration": 0.179,
      "velocity": 1,
      "hand": "right"
    },
    {
      "midi": 58,
      "time": 101.607,
      "duration": 0.179,
      "velocity": 1,
      "hand": "left"
    },
    {
      "midi": 56,
      "time": 101.786,
      "duration": 0.179,
      "velocity": 1,
      "hand": "left"
    },
    {
      "midi": 77,
      "time": 101.786,
      "duration": 0.625,
      "velocity": 1,
      "hand": "right"
    },
    {
      "midi": 66,
      "time": 102.054,
      "duration": 0.179,
      "velocity": 1,
      "hand": "right"
    },
    {
      "midi": 60,
      "time": 102.232,
      "duration": 0.179,
      "velocity": 1,
      "hand": "right"
    },
    {
      "midi": 49,
      "time": 102.5,
      "duration": 0.179,
      "velocity": 1,
      "hand": "left"
    },
    {
      "midi": 73,
      "time": 102.5,
      "duration": 0.982,
      "velocity": 1,
      "hand": "right"
    },
    {
      "midi": 56,
      "time": 102.679,
      "duration": 0.179,
      "velocity": 1,
      "hand": "left"
    },
    {
      "midi": 61,
      "time": 102.946,
      "duration": 0.179,
      "velocity": 1,
      "hand": "right"
    },
    {
      "midi": 65,
      "time": 103.125,
      "duration": 0.179,
      "velocity": 1,
      "hand": "right"
    },
    {
      "midi": 61,
      "time": 103.393,
      "duration": 0.179,
      "velocity": 1,
      "hand": "right"
    },
    {
      "midi": 67,
      "time": 103.482,
      "duration": 0.089,
      "velocity": 1,
      "hand": "right"
    },
    {
      "midi": 56,
      "time": 103.571,
      "duration": 0.179,
      "velocity": 1,
      "hand": "left"
    },
    {
      "midi": 68,
      "time": 103.571,
      "duration": 0.089,
      "velocity": 1,
      "hand": "right"
    },
    {
      "midi": 70,
      "time": 103.661,
      "duration": 0.089,
      "velocity": 1,
      "hand": "right"
    },
    {
      "midi": 68,
      "time": 103.75,
      "duration": 0.089,
      "velocity": 1,
      "hand": "right"
    },
    {
      "midi": 49,
      "time": 103.839,
      "duration": 0.179,
      "velocity": 1,
      "hand": "left"
    },
    {
      "midi": 77,
      "time": 103.839,
      "duration": 0.982,
      "velocity": 1,
      "hand": "right"
    },
    {
      "midi": 56,
      "time": 104.018,
      "duration": 0.179,
      "velocity": 1,
      "hand": "left"
    },
    {
      "midi": 60,
      "time": 104.286,
      "duration": 0.179,
      "velocity": 1,
      "hand": "right"
    },
    {
      "midi": 66,
      "time": 104.464,
      "duration": 0.179,
      "velocity": 1,
      "hand": "right"
    },
    {
      "midi": 60,
      "time": 104.732,
      "duration": 0.179,
      "velocity": 1,
      "hand": "right"
    },
    {
      "midi": 75,
      "time": 104.821,
      "duration": 0.357,
      "velocity": 1,
      "hand": "right"
    },
    {
      "midi": 56,
      "time": 104.911,
      "duration": 0.179,
      "velocity": 1,
      "hand": "left"
    },
    {
      "midi": 49,
      "time": 105.179,
      "duration": 0.179,
      "velocity": 1,
      "hand": "left"
    },
    {
      "midi": 75,
      "time": 105.179,
      "duration": 1.339,
      "velocity": 1,
      "hand": "right"
    },
    {
      "midi": 56,
      "time": 105.357,
      "duration": 0.179,
      "velocity": 1,
      "hand": "left"
    },
    {
      "midi": 60,
      "time": 105.625,
      "duration": 0.179,
      "velocity": 1,
      "hand": "right"
    },
    {
      "midi": 66,
      "time": 105.804,
      "duration": 0.179,
      "velocity": 1,
      "hand": "right"
    },
    {
      "midi": 60,
      "time": 106.071,
      "duration": 0.179,
      "velocity": 1,
      "hand": "right"
    },
    {
      "midi": 56,
      "time": 106.25,
      "duration": 0.179,
      "velocity": 1,
      "hand": "left"
    },
    {
      "midi": 49,
      "time": 106.518,
      "duration": 0.179,
      "velocity": 1,
      "hand": "left"
    },
    {
      "midi": 73,
      "time": 106.518,
      "duration": 0.625,
      "velocity": 1,
      "hand": "right"
    },
    {
      "midi": 56,
      "time": 106.696,
      "duration": 0.179,
      "velocity": 1,
      "hand": "left"
    },
    {
      "midi": 61,
      "time": 106.964,
      "duration": 0.179,
      "velocity": 1,
      "hand": "right"
    },
    {
      "midi": 65,
      "time": 107.143,
      "duration": 0.179,
      "velocity": 1,
      "hand": "right"
    },
    {
      "midi": 61,
      "time": 107.321,
      "duration": 0.179,
      "velocity": 1,
      "hand": "right"
    },
    {
      "midi": 80,
      "time": 107.5,
      "duration": 0.357,
      "velocity": 1,
      "hand": "right"
    },
    {
      "midi": 56,
      "time": 107.589,
      "duration": 0.179,
      "velocity": 1,
      "hand": "left"
    },
    {
      "midi": 44,
      "time": 107.768,
      "duration": 0.179,
      "velocity": 1,
      "hand": "left"
    },
    {
      "midi": 68,
      "time": 107.768,
      "duration": 1.339,
      "velocity": 1,
      "hand": "right"
    },
    {
      "midi": 51,
      "time": 108.036,
      "duration": 0.179,
      "velocity": 1,
      "hand": "left"
    },
    {
      "midi": 56,
      "time": 108.214,
      "duration": 0.179,
      "velocity": 1,
      "hand": "left"
    },
    {
      "midi": 60,
      "time": 108.482,
      "duration": 0.179,
      "velocity": 1,
      "hand": "right"
    },
    {
      "midi": 56,
      "time": 108.661,
      "duration": 0.179,
      "velocity": 1,
      "hand": "left"
    },
    {
      "midi": 51,
      "time": 108.929,
      "duration": 0.179,
      "velocity": 1,
      "hand": "left"
    },
    {
      "midi": 44,
      "time": 109.107,
      "duration": 0.179,
      "velocity": 1,
      "hand": "left"
    },
    {
      "midi": 70,
      "time": 109.107,
      "duration": 0.536,
      "velocity": 1,
      "hand": "right"
    },
    {
      "midi": 51,
      "time": 109.375,
      "duration": 0.179,
      "velocity": 1,
      "hand": "left"
    },
    {
      "midi": 55,
      "time": 109.554,
      "duration": 0.179,
      "velocity": 1,
      "hand": "left"
    },
    {
      "midi": 69,
      "time": 109.643,
      "duration": 0.179,
      "velocity": 1,
      "hand": "right"
    },
    {
      "midi": 61,
      "time": 109.821,
      "duration": 0.179,
      "velocity": 1,
      "hand": "right"
    },
    {
      "midi": 70,
      "time": 109.821,
      "duration": 0.536,
      "velocity": 1,
      "hand": "right"
    },
    {
      "midi": 55,
      "time": 110,
      "duration": 0.179,
      "velocity": 1,
      "hand": "left"
    },
    {
      "midi": 51,
      "time": 110.268,
      "duration": 0.179,
      "velocity": 1,
      "hand": "left"
    },
    {
      "midi": 72,
      "time": 110.268,
      "duration": 0.179,
      "velocity": 1,
      "hand": "right"
    },
    {
      "midi": 44,
      "time": 110.446,
      "duration": 0.179,
      "velocity": 1,
      "hand": "left"
    },
    {
      "midi": 68,
      "time": 110.446,
      "duration": 0.357,
      "velocity": 1,
      "hand": "right"
    },
    {
      "midi": 51,
      "time": 110.714,
      "duration": 0.179,
      "velocity": 1,
      "hand": "left"
    },
    {
      "midi": 56,
      "time": 110.893,
      "duration": 0.179,
      "velocity": 1,
      "hand": "left"
    },
    {
      "midi": 60,
      "time": 111.161,
      "duration": 0.179,
      "velocity": 1,
      "hand": "right"
    },
    {
      "midi": 84,
      "time": 111.161,
      "duration": 0.893,
      "velocity": 1,
      "hand": "right"
    },
    {
      "midi": 56,
      "time": 111.339,
      "duration": 0.179,
      "velocity": 1,
      "hand": "left"
    },
    {
      "midi": 51,
      "time": 111.607,
      "duration": 0.179,
      "velocity": 1,
      "hand": "left"
    },
    {
      "midi": 49,
      "time": 111.786,
      "duration": 0.179,
      "velocity": 1,
      "hand": "left"
    },
    {
      "midi": 82,
      "time": 111.964,
      "duration": 0.179,
      "velocity": 1,
      "hand": "right"
    },
    {
      "midi": 56,
      "time": 112.054,
      "duration": 0.179,
      "velocity": 1,
      "hand": "left"
    },
    {
      "midi": 61,
      "time": 112.232,
      "duration": 0.179,
      "velocity": 1,
      "hand": "right"
    },
    {
      "midi": 80,
      "time": 112.232,
      "duration": 0.179,
      "velocity": 1,
      "hand": "right"
    },
    {
      "midi": 76,
      "time": 112.411,
      "duration": 0.179,
      "velocity": 1,
      "hand": "right"
    },
    {
      "midi": 64,
      "time": 112.5,
      "duration": 0.179,
      "velocity": 1,
      "hand": "right"
    },
    {
      "midi": 73,
      "time": 112.589,
      "duration": 0.179,
      "velocity": 1,
      "hand": "right"
    },
    {
      "midi": 61,
      "time": 112.679,
      "duration": 0.179,
      "velocity": 1,
      "hand": "right"
    },
    {
      "midi": 70,
      "time": 112.768,
      "duration": 0.268,
      "velocity": 1,
      "hand": "right"
    },
    {
      "midi": 56,
      "time": 112.946,
      "duration": 0.179,
      "velocity": 1,
      "hand": "left"
    },
    {
      "midi": 80,
      "time": 113.036,
      "duration": 0.089,
      "velocity": 1,
      "hand": "right"
    },
    {
      "midi": 39,
      "time": 113.125,
      "duration": 0.179,
      "velocity": 1,
      "hand": "left"
    },
    {
      "midi": 63,
      "time": 113.125,
      "duration": 1.25,
      "velocity": 1,
      "hand": "right"
    },
    {
      "midi": 51,
      "time": 113.393,
      "duration": 0.179,
      "velocity": 1,
      "hand": "left"
    },
    {
      "midi": 56,
      "time": 113.571,
      "duration": 0.179,
      "velocity": 1,
      "hand": "left"
    },
    {
      "midi": 60,
      "time": 113.839,
      "duration": 0.179,
      "velocity": 1,
      "hand": "right"
    },
    {
      "midi": 56,
      "time": 114.018,
      "duration": 0.179,
      "velocity": 1,
      "hand": "left"
    },
    {
      "midi": 51,
      "time": 114.286,
      "duration": 0.179,
      "velocity": 1,
      "hand": "left"
    },
    {
      "midi": 72,
      "time": 114.375,
      "duration": 0.089,
      "velocity": 1,
      "hand": "right"
    },
    {
      "midi": 39,
      "time": 114.464,
      "duration": 0.179,
      "velocity": 1,
      "hand": "left"
    },
    {
      "midi": 70,
      "time": 114.464,
      "duration": 0.536,
      "velocity": 1,
      "hand": "right"
    },
    {
      "midi": 51,
      "time": 114.732,
      "duration": 0.179,
      "velocity": 1,
      "hand": "left"
    },
    {
      "midi": 55,
      "time": 114.911,
      "duration": 0.179,
      "velocity": 1,
      "hand": "left"
    },
    {
      "midi": 69,
      "time": 115,
      "duration": 0.179,
      "velocity": 1,
      "hand": "right"
    },
    {
      "midi": 61,
      "time": 115.179,
      "duration": 0.179,
      "velocity": 1,
      "hand": "right"
    },
    {
      "midi": 70,
      "time": 115.179,
      "duration": 0.536,
      "velocity": 1,
      "hand": "right"
    },
    {
      "midi": 55,
      "time": 115.357,
      "duration": 0.179,
      "velocity": 1,
      "hand": "left"
    },
    {
      "midi": 51,
      "time": 115.625,
      "duration": 0.179,
      "velocity": 1,
      "hand": "left"
    },
    {
      "midi": 75,
      "time": 115.625,
      "duration": 0.179,
      "velocity": 1,
      "hand": "right"
    },
    {
      "midi": 44,
      "time": 115.804,
      "duration": 0.179,
      "velocity": 1,
      "hand": "left"
    },
    {
      "midi": 68,
      "time": 115.804,
      "duration": 0.625,
      "velocity": 1,
      "hand": "right"
    },
    {
      "midi": 51,
      "time": 116.071,
      "duration": 0.179,
      "velocity": 1,
      "hand": "left"
    },
    {
      "midi": 56,
      "time": 116.25,
      "duration": 0.179,
      "velocity": 1,
      "hand": "left"
    },
    {
      "midi": 60,
      "time": 116.518,
      "duration": 0.179,
      "velocity": 1,
      "hand": "right"
    },
    {
      "midi": 56,
      "time": 116.696,
      "duration": 0.179,
      "velocity": 1,
      "hand": "left"
    },
    {
      "midi": 51,
      "time": 116.964,
      "duration": 0.179,
      "velocity": 1,
      "hand": "left"
    },
    {
      "midi": 42,
      "time": 117.143,
      "duration": 0.179,
      "velocity": 1,
      "hand": "left"
    },
    {
      "midi": 70,
      "time": 117.143,
      "duration": 0.625,
      "velocity": 1,
      "hand": "right"
    },
    {
      "midi": 54,
      "time": 117.321,
      "duration": 0.179,
      "velocity": 1,
      "hand": "left"
    },
    {
      "midi": 58,
      "time": 117.589,
      "duration": 0.179,
      "velocity": 1,
      "hand": "left"
    },
    {
      "midi": 61,
      "time": 117.768,
      "duration": 0.179,
      "velocity": 1,
      "hand": "right"
    },
    {
      "midi": 73,
      "time": 117.768,
      "duration": 0.179,
      "velocity": 1,
      "hand": "right"
    },
    {
      "midi": 58,
      "time": 118.036,
      "duration": 0.179,
      "velocity": 1,
      "hand": "left"
    },
    {
      "midi": 72,
      "time": 118.036,
      "duration": 0.179,
      "velocity": 1,
      "hand": "right"
    },
    {
      "midi": 54,
      "time": 118.214,
      "duration": 0.179,
      "velocity": 1,
      "hand": "left"
    },
    {
      "midi": 70,
      "time": 118.214,
      "duration": 0.179,
      "velocity": 1,
      "hand": "right"
    },
    {
      "midi": 44,
      "time": 118.482,
      "duration": 0.179,
      "velocity": 1,
      "hand": "left"
    },
    {
      "midi": 68,
      "time": 118.482,
      "duration": 1.339,
      "velocity": 1,
      "hand": "right"
    },
    {
      "midi": 56,
      "time": 118.661,
      "duration": 0.179,
      "velocity": 1,
      "hand": "left"
    },
    {
      "midi": 60,
      "time": 118.929,
      "duration": 0.179,
      "velocity": 1,
      "hand": "right"
    },
    {
      "midi": 63,
      "time": 119.107,
      "duration": 0.179,
      "velocity": 1,
      "hand": "right"
    },
    {
      "midi": 60,
      "time": 119.375,
      "duration": 0.179,
      "velocity": 1,
      "hand": "right"
    },
    {
      "midi": 56,
      "time": 119.554,
      "duration": 0.179,
      "velocity": 1,
      "hand": "left"
    },
    {
      "midi": 51,
      "time": 119.821,
      "duration": 0.179,
      "velocity": 1,
      "hand": "left"
    },
    {
      "midi": 70,
      "time": 119.821,
      "duration": 0.357,
      "velocity": 1,
      "hand": "right"
    },
    {
      "midi": 56,
      "time": 120,
      "duration": 0.179,
      "velocity": 1,
      "hand": "left"
    },
    {
      "midi": 68,
      "time": 120.179,
      "duration": 0.357,
      "velocity": 1,
      "hand": "right"
    },
    {
      "midi": 60,
      "time": 120.268,
      "duration": 0.179,
      "velocity": 1,
      "hand": "right"
    },
    {
      "midi": 66,
      "time": 120.446,
      "duration": 0.179,
      "velocity": 1,
      "hand": "right"
    },
    {
      "midi": 73,
      "time": 120.446,
      "duration": 0.357,
      "velocity": 1,
      "hand": "right"
    },
    {
      "midi": 60,
      "time": 120.714,
      "duration": 0.179,
      "velocity": 1,
      "hand": "right"
    },
    {
      "midi": 75,
      "time": 120.804,
      "duration": 0.357,
      "velocity": 1,
      "hand": "right"
    },
    {
      "midi": 56,
      "time": 120.893,
      "duration": 0.179,
      "velocity": 1,
      "hand": "left"
    },
    {
      "midi": 49,
      "time": 121.161,
      "duration": 0.179,
      "velocity": 1,
      "hand": "left"
    },
    {
      "midi": 77,
      "time": 121.161,
      "duration": 1.339,
      "velocity": 1,
      "hand": "right"
    },
    {
      "midi": 56,
      "time": 121.339,
      "duration": 0.179,
      "velocity": 1,
      "hand": "left"
    },
    {
      "midi": 61,
      "time": 121.607,
      "duration": 0.179,
      "velocity": 1,
      "hand": "right"
    },
    {
      "midi": 65,
      "time": 121.786,
      "duration": 0.179,
      "velocity": 1,
      "hand": "right"
    },
    {
      "midi": 61,
      "time": 122.054,
      "duration": 0.179,
      "velocity": 1,
      "hand": "right"
    },
    {
      "midi": 56,
      "time": 122.232,
      "duration": 0.179,
      "velocity": 1,
      "hand": "left"
    },
    {
      "midi": 49,
      "time": 122.5,
      "duration": 0.179,
      "velocity": 1,
      "hand": "left"
    },
    {
      "midi": 80,
      "time": 122.5,
      "duration": 1.339,
      "velocity": 1,
      "hand": "right"
    },
    {
      "midi": 56,
      "time": 122.679,
      "duration": 0.179,
      "velocity": 1,
      "hand": "left"
    },
    {
      "midi": 65,
      "time": 122.946,
      "duration": 0.179,
      "velocity": 1,
      "hand": "right"
    },
    {
      "midi": 68,
      "time": 123.125,
      "duration": 0.625,
      "velocity": 1,
      "hand": "right"
    },
    {
      "midi": 65,
      "time": 123.393,
      "duration": 0.179,
      "velocity": 1,
      "hand": "right"
    },
    {
      "midi": 56,
      "time": 123.571,
      "duration": 0.179,
      "velocity": 1,
      "hand": "left"
    },
    {
      "midi": 66,
      "time": 123.839,
      "duration": 0.625,
      "velocity": 1,
      "hand": "right"
    },
    {
      "midi": 78,
      "time": 123.839,
      "duration": 0.625,
      "velocity": 1,
      "hand": "right"
    },
    {
      "midi": 63,
      "time": 124.018,
      "duration": 0.179,
      "velocity": 1,
      "hand": "right"
    },
    {
      "midi": 56,
      "time": 124.286,
      "duration": 0.179,
      "velocity": 1,
      "hand": "left"
    },
    {
      "midi": 65,
      "time": 124.464,
      "duration": 0.625,
      "velocity": 1,
      "hand": "right"
    },
    {
      "midi": 77,
      "time": 124.464,
      "duration": 0.625,
      "velocity": 1,
      "hand": "right"
    },
    {
      "midi": 61,
      "time": 124.732,
      "duration": 0.179,
      "velocity": 1,
      "hand": "right"
    },
    {
      "midi": 56,
      "time": 124.911,
      "duration": 0.179,
      "velocity": 1,
      "hand": "left"
    },
    {
      "midi": 63,
      "time": 125.179,
      "duration": 0.625,
      "velocity": 1,
      "hand": "right"
    },
    {
      "midi": 75,
      "time": 125.179,
      "duration": 0.536,
      "velocity": 1,
      "hand": "right"
    },
    {
      "midi": 60,
      "time": 125.357,
      "duration": 0.179,
      "velocity": 1,
      "hand": "right"
    },
    {
      "midi": 56,
      "time": 125.625,
      "duration": 0.179,
      "velocity": 1,
      "hand": "left"
    },
    {
      "midi": 77,
      "time": 125.625,
      "duration": 0.045,
      "velocity": 1,
      "hand": "right"
    },
    {
      "midi": 73,
      "time": 125.714,
      "duration": 0.045,
      "velocity": 1,
      "hand": "right"
    },
    {
      "midi": 75,
      "time": 125.714,
      "duration": 0.045,
      "velocity": 1,
      "hand": "right"
    },
    {
      "midi": 61,
      "time": 125.804,
      "duration": 0.625,
      "velocity": 1,
      "hand": "right"
    },
    {
      "midi": 75,
      "time": 125.804,
      "duration": 0.045,
      "velocity": 1,
      "hand": "right"
    },
    {
      "midi": 77,
      "time": 125.804,
      "duration": 0.536,
      "velocity": 1,
      "hand": "right"
    },
    {
      "midi": 56,
      "time": 126.071,
      "duration": 0.179,
      "velocity": 1,
      "hand": "left"
    },
    {
      "midi": 53,
      "time": 126.25,
      "duration": 0.179,
      "velocity": 1,
      "hand": "left"
    },
    {
      "midi": 73,
      "time": 126.339,
      "duration": 0.179,
      "velocity": 1,
      "hand": "right"
    },
    {
      "midi": 44,
      "time": 126.518,
      "duration": 0.179,
      "velocity": 1,
      "hand": "left"
    },
    {
      "midi": 68,
      "time": 126.518,
      "duration": 1.339,
      "velocity": 1,
      "hand": "right"
    },
    {
      "midi": 51,
      "time": 126.696,
      "duration": 0.179,
      "velocity": 1,
      "hand": "left"
    },
    {
      "midi": 56,
      "time": 126.964,
      "duration": 0.179,
      "velocity": 1,
      "hand": "left"
    },
    {
      "midi": 60,
      "time": 127.143,
      "duration": 0.179,
      "velocity": 1,
      "hand": "right"
    },
    {
      "midi": 56,
      "time": 127.321,
      "duration": 0.179,
      "velocity": 1,
      "hand": "left"
    },
    {
      "midi": 51,
      "time": 127.589,
      "duration": 0.179,
      "velocity": 1,
      "hand": "left"
    },
    {
      "midi": 42,
      "time": 127.768,
      "duration": 0.179,
      "velocity": 1,
      "hand": "left"
    },
    {
      "midi": 70,
      "time": 127.768,
      "duration": 2.679,
      "velocity": 1,
      "hand": "right"
    },
    {
      "midi": 54,
      "time": 128.036,
      "duration": 0.179,
      "velocity": 1,
      "hand": "left"
    },
    {
      "midi": 58,
      "time": 128.214,
      "duration": 0.179,
      "velocity": 1,
      "hand": "left"
    },
    {
      "midi": 61,
      "time": 128.482,
      "duration": 0.179,
      "velocity": 1,
      "hand": "right"
    },
    {
      "midi": 58,
      "time": 128.661,
      "duration": 0.179,
      "velocity": 1,
      "hand": "left"
    },
    {
      "midi": 54,
      "time": 128.929,
      "duration": 0.179,
      "velocity": 1,
      "hand": "left"
    },
    {
      "midi": 46,
      "time": 129.107,
      "duration": 0.179,
      "velocity": 1,
      "hand": "left"
    },
    {
      "midi": 53,
      "time": 129.375,
      "duration": 0.179,
      "velocity": 1,
      "hand": "left"
    },
    {
      "midi": 58,
      "time": 129.554,
      "duration": 0.179,
      "velocity": 1,
      "hand": "left"
    },
    {
      "midi": 62,
      "time": 129.821,
      "duration": 0.179,
      "velocity": 1,
      "hand": "right"
    },
    {
      "midi": 58,
      "time": 130,
      "duration": 0.179,
      "velocity": 1,
      "hand": "left"
    },
    {
      "midi": 53,
      "time": 130.268,
      "duration": 0.179,
      "velocity": 1,
      "hand": "left"
    },
    {
      "midi": 46,
      "time": 130.446,
      "duration": 0.179,
      "velocity": 1,
      "hand": "left"
    },
    {
      "midi": 71,
      "time": 130.446,
      "duration": 0.357,
      "velocity": 1,
      "hand": "right"
    },
    {
      "midi": 58,
      "time": 130.714,
      "duration": 0.179,
      "velocity": 1,
      "hand": "left"
    },
    {
      "midi": 70,
      "time": 130.804,
      "duration": 0.357,
      "velocity": 1,
      "hand": "right"
    },
    {
      "midi": 62,
      "time": 130.893,
      "duration": 0.179,
      "velocity": 1,
      "hand": "right"
    },
    {
      "midi": 68,
      "time": 131.161,
      "duration": 0.179,
      "velocity": 1,
      "hand": "right"
    },
    {
      "midi": 75,
      "time": 131.161,
      "duration": 0.357,
      "velocity": 1,
      "hand": "right"
    },
    {
      "midi": 62,
      "time": 131.339,
      "duration": 0.179,
      "velocity": 1,
      "hand": "right"
    },
    {
      "midi": 77,
      "time": 131.518,
      "duration": 0.357,
      "velocity": 1,
      "hand": "right"
    },
    {
      "midi": 58,
      "time": 131.607,
      "duration": 0.179,
      "velocity": 1,
      "hand": "left"
    },
    {
      "midi": 51,
      "time": 131.786,
      "duration": 0.179,
      "velocity": 1,
      "hand": "left"
    },
    {
      "midi": 78,
      "time": 131.786,
      "duration": 0.625,
      "velocity": 1,
      "hand": "right"
    },
    {
      "midi": 66,
      "time": 132.054,
      "duration": 0.179,
      "velocity": 1,
      "hand": "right"
    },
    {
      "midi": 58,
      "time": 132.232,
      "duration": 0.179,
      "velocity": 1,
      "hand": "left"
    },
    {
      "midi": 53,
      "time": 132.5,
      "duration": 0.179,
      "velocity": 1,
      "hand": "left"
    },
    {
      "midi": 77,
      "time": 132.5,
      "duration": 0.625,
      "velocity": 1,
      "hand": "right"
    },
    {
      "midi": 65,
      "time": 132.679,
      "duration": 0.179,
      "velocity": 1,
      "hand": "right"
    },
    {
      "midi": 57,
      "time": 132.946,
      "duration": 0.179,
      "velocity": 1,
      "hand": "left"
    },
    {
      "midi": 54,
      "time": 133.125,
      "duration": 0.179,
      "velocity": 1,
      "hand": "left"
    },
    {
      "midi": 75,
      "time": 133.125,
      "duration": 0.625,
      "velocity": 1,
      "hand": "right"
    },
    {
      "midi": 63,
      "time": 133.393,
      "duration": 0.179,
      "velocity": 1,
      "hand": "right"
    },
    {
      "midi": 58,
      "time": 133.571,
      "duration": 0.179,
      "velocity": 1,
      "hand": "left"
    },
    {
      "midi": 56,
      "time": 133.839,
      "duration": 0.179,
      "velocity": 1,
      "hand": "left"
    },
    {
      "midi": 77,
      "time": 133.839,
      "duration": 0.625,
      "velocity": 1,
      "hand": "right"
    },
    {
      "midi": 66,
      "time": 134.018,
      "duration": 0.179,
      "velocity": 1,
      "hand": "right"
    },
    {
      "midi": 60,
      "time": 134.286,
      "duration": 0.179,
      "velocity": 1,
      "hand": "right"
    },
    {
      "midi": 49,
      "time": 134.464,
      "duration": 0.179,
      "velocity": 1,
      "hand": "left"
    },
    {
      "midi": 73,
      "time": 134.464,
      "duration": 0.982,
      "velocity": 1,
      "hand": "right"
    },
    {
      "midi": 56,
      "time": 134.732,
      "duration": 0.179,
      "velocity": 1,
      "hand": "left"
    },
    {
      "midi": 61,
      "time": 134.911,
      "duration": 0.179,
      "velocity": 1,
      "hand": "right"
    },
    {
      "midi": 65,
      "time": 135.179,
      "duration": 0.179,
      "velocity": 1,
      "hand": "right"
    },
    {
      "midi": 61,
      "time": 135.357,
      "duration": 0.179,
      "velocity": 1,
      "hand": "right"
    },
    {
      "midi": 67,
      "time": 135.446,
      "duration": 0.089,
      "velocity": 1,
      "hand": "right"
    },
    {
      "midi": 68,
      "time": 135.536,
      "duration": 0.089,
      "velocity": 1,
      "hand": "right"
    },
    {
      "midi": 56,
      "time": 135.625,
      "duration": 0.179,
      "velocity": 1,
      "hand": "left"
    },
    {
      "midi": 70,
      "time": 135.625,
      "duration": 0.089,
      "velocity": 1,
      "hand": "right"
    },
    {
      "midi": 68,
      "time": 135.714,
      "duration": 0.089,
      "velocity": 1,
      "hand": "right"
    },
    {
      "midi": 49,
      "time": 135.804,
      "duration": 0.179,
      "velocity": 1,
      "hand": "left"
    },
    {
      "midi": 77,
      "time": 135.804,
      "duration": 0.982,
      "velocity": 1,
      "hand": "right"
    },
    {
      "midi": 56,
      "time": 136.071,
      "duration": 0.179,
      "velocity": 1,
      "hand": "left"
    },
    {
      "midi": 60,
      "time": 136.25,
      "duration": 0.179,
      "velocity": 1,
      "hand": "right"
    },
    {
      "midi": 66,
      "time": 136.518,
      "duration": 0.179,
      "velocity": 1,
      "hand": "right"
    },
    {
      "midi": 60,
      "time": 136.696,
      "duration": 0.179,
      "velocity": 1,
      "hand": "right"
    },
    {
      "midi": 75,
      "time": 136.786,
      "duration": 0.357,
      "velocity": 1,
      "hand": "right"
    },
    {
      "midi": 56,
      "time": 136.964,
      "duration": 0.179,
      "velocity": 1,
      "hand": "left"
    },
    {
      "midi": 49,
      "time": 137.143,
      "duration": 0.179,
      "velocity": 1,
      "hand": "left"
    },
    {
      "midi": 75,
      "time": 137.143,
      "duration": 1.339,
      "velocity": 1,
      "hand": "right"
    },
    {
      "midi": 56,
      "time": 137.321,
      "duration": 0.179,
      "velocity": 1,
      "hand": "left"
    },
    {
      "midi": 60,
      "time": 137.589,
      "duration": 0.179,
      "velocity": 1,
      "hand": "right"
    },
    {
      "midi": 66,
      "time": 137.768,
      "duration": 0.179,
      "velocity": 1,
      "hand": "right"
    },
    {
      "midi": 60,
      "time": 138.036,
      "duration": 0.179,
      "velocity": 1,
      "hand": "right"
    },
    {
      "midi": 56,
      "time": 138.214,
      "duration": 0.179,
      "velocity": 1,
      "hand": "left"
    },
    {
      "midi": 49,
      "time": 138.482,
      "duration": 0.179,
      "velocity": 1,
      "hand": "left"
    },
    {
      "midi": 73,
      "time": 138.482,
      "duration": 0.625,
      "velocity": 1,
      "hand": "right"
    },
    {
      "midi": 56,
      "time": 138.661,
      "duration": 0.179,
      "velocity": 1,
      "hand": "left"
    },
    {
      "midi": 61,
      "time": 138.929,
      "duration": 0.179,
      "velocity": 1,
      "hand": "right"
    },
    {
      "midi": 65,
      "time": 139.107,
      "duration": 0.179,
      "velocity": 1,
      "hand": "right"
    },
    {
      "midi": 61,
      "time": 139.375,
      "duration": 0.179,
      "velocity": 1,
      "hand": "right"
    },
    {
      "midi": 80,
      "time": 139.464,
      "duration": 0.357,
      "velocity": 1,
      "hand": "right"
    },
    {
      "midi": 56,
      "time": 139.554,
      "duration": 0.179,
      "velocity": 1,
      "hand": "left"
    },
    {
      "midi": 44,
      "time": 139.821,
      "duration": 0.179,
      "velocity": 1,
      "hand": "left"
    },
    {
      "midi": 68,
      "time": 139.821,
      "duration": 1.339,
      "velocity": 1,
      "hand": "right"
    },
    {
      "midi": 51,
      "time": 140,
      "duration": 0.179,
      "velocity": 1,
      "hand": "left"
    },
    {
      "midi": 56,
      "time": 140.268,
      "duration": 0.179,
      "velocity": 1,
      "hand": "left"
    },
    {
      "midi": 60,
      "time": 140.446,
      "duration": 0.179,
      "velocity": 1,
      "hand": "right"
    },
    {
      "midi": 56,
      "time": 140.714,
      "duration": 0.179,
      "velocity": 1,
      "hand": "left"
    },
    {
      "midi": 51,
      "time": 140.893,
      "duration": 0.179,
      "velocity": 1,
      "hand": "left"
    },
    {
      "midi": 44,
      "time": 141.161,
      "duration": 0.179,
      "velocity": 1,
      "hand": "left"
    },
    {
      "midi": 70,
      "time": 141.161,
      "duration": 0.536,
      "velocity": 1,
      "hand": "right"
    },
    {
      "midi": 51,
      "time": 141.339,
      "duration": 0.179,
      "velocity": 1,
      "hand": "left"
    },
    {
      "midi": 55,
      "time": 141.607,
      "duration": 0.179,
      "velocity": 1,
      "hand": "left"
    },
    {
      "midi": 69,
      "time": 141.607,
      "duration": 0.179,
      "velocity": 1,
      "hand": "right"
    },
    {
      "midi": 61,
      "time": 141.786,
      "duration": 0.179,
      "velocity": 1,
      "hand": "right"
    },
    {
      "midi": 70,
      "time": 141.786,
      "duration": 0.536,
      "velocity": 1,
      "hand": "right"
    },
    {
      "midi": 55,
      "time": 142.054,
      "duration": 0.179,
      "velocity": 1,
      "hand": "left"
    },
    {
      "midi": 51,
      "time": 142.232,
      "duration": 0.179,
      "velocity": 1,
      "hand": "left"
    },
    {
      "midi": 72,
      "time": 142.321,
      "duration": 0.179,
      "velocity": 1,
      "hand": "right"
    },
    {
      "midi": 44,
      "time": 142.5,
      "duration": 0.179,
      "velocity": 1,
      "hand": "left"
    },
    {
      "midi": 68,
      "time": 142.5,
      "duration": 0.357,
      "velocity": 1,
      "hand": "right"
    },
    {
      "midi": 51,
      "time": 142.679,
      "duration": 0.179,
      "velocity": 1,
      "hand": "left"
    },
    {
      "midi": 56,
      "time": 142.946,
      "duration": 0.179,
      "velocity": 1,
      "hand": "left"
    },
    {
      "midi": 60,
      "time": 143.125,
      "duration": 0.179,
      "velocity": 1,
      "hand": "right"
    },
    {
      "midi": 84,
      "time": 143.125,
      "duration": 0.893,
      "velocity": 1,
      "hand": "right"
    },
    {
      "midi": 56,
      "time": 143.393,
      "duration": 0.179,
      "velocity": 1,
      "hand": "left"
    },
    {
      "midi": 51,
      "time": 143.571,
      "duration": 0.179,
      "velocity": 1,
      "hand": "left"
    },
    {
      "midi": 49,
      "time": 143.839,
      "duration": 0.179,
      "velocity": 1,
      "hand": "left"
    },
    {
      "midi": 56,
      "time": 144.018,
      "duration": 0.179,
      "velocity": 1,
      "hand": "left"
    },
    {
      "midi": 82,
      "time": 144.018,
      "duration": 0.179,
      "velocity": 1,
      "hand": "right"
    },
    {
      "midi": 80,
      "time": 144.196,
      "duration": 0.179,
      "velocity": 1,
      "hand": "right"
    },
    {
      "midi": 61,
      "time": 144.286,
      "duration": 0.179,
      "velocity": 1,
      "hand": "right"
    },
    {
      "midi": 76,
      "time": 144.375,
      "duration": 0.179,
      "velocity": 1,
      "hand": "right"
    },
    {
      "midi": 64,
      "time": 144.464,
      "duration": 0.179,
      "velocity": 1,
      "hand": "right"
    },
    {
      "midi": 73,
      "time": 144.554,
      "duration": 0.179,
      "velocity": 1,
      "hand": "right"
    },
    {
      "midi": 61,
      "time": 144.732,
      "duration": 0.179,
      "velocity": 1,
      "hand": "right"
    },
    {
      "midi": 70,
      "time": 144.732,
      "duration": 0.268,
      "velocity": 1,
      "hand": "right"
    },
    {
      "midi": 56,
      "time": 144.911,
      "duration": 0.179,
      "velocity": 1,
      "hand": "left"
    },
    {
      "midi": 80,
      "time": 145.089,
      "duration": 0.089,
      "velocity": 1,
      "hand": "right"
    },
    {
      "midi": 39,
      "time": 145.179,
      "duration": 0.179,
      "velocity": 1,
      "hand": "left"
    },
    {
      "midi": 63,
      "time": 145.179,
      "duration": 1.25,
      "velocity": 1,
      "hand": "right"
    },
    {
      "midi": 51,
      "time": 145.357,
      "duration": 0.179,
      "velocity": 1,
      "hand": "left"
    },
    {
      "midi": 56,
      "time": 145.625,
      "duration": 0.179,
      "velocity": 1,
      "hand": "left"
    },
    {
      "midi": 60,
      "time": 145.804,
      "duration": 0.179,
      "velocity": 1,
      "hand": "right"
    },
    {
      "midi": 56,
      "time": 146.071,
      "duration": 0.179,
      "velocity": 1,
      "hand": "left"
    },
    {
      "midi": 51,
      "time": 146.25,
      "duration": 0.179,
      "velocity": 1,
      "hand": "left"
    },
    {
      "midi": 72,
      "time": 146.429,
      "duration": 0.089,
      "velocity": 1,
      "hand": "right"
    },
    {
      "midi": 39,
      "time": 146.518,
      "duration": 0.179,
      "velocity": 1,
      "hand": "left"
    },
    {
      "midi": 70,
      "time": 146.518,
      "duration": 0.536,
      "velocity": 1,
      "hand": "right"
    },
    {
      "midi": 51,
      "time": 146.696,
      "duration": 0.179,
      "velocity": 1,
      "hand": "left"
    },
    {
      "midi": 55,
      "time": 146.964,
      "duration": 0.179,
      "velocity": 1,
      "hand": "left"
    },
    {
      "midi": 69,
      "time": 146.964,
      "duration": 0.179,
      "velocity": 1,
      "hand": "right"
    },
    {
      "midi": 61,
      "time": 147.143,
      "duration": 0.179,
      "velocity": 1,
      "hand": "right"
    },
    {
      "midi": 70,
      "time": 147.143,
      "duration": 0.536,
      "velocity": 1,
      "hand": "right"
    },
    {
      "midi": 55,
      "time": 147.321,
      "duration": 0.179,
      "velocity": 1,
      "hand": "left"
    },
    {
      "midi": 51,
      "time": 147.589,
      "duration": 0.179,
      "velocity": 1,
      "hand": "left"
    },
    {
      "midi": 75,
      "time": 147.679,
      "duration": 0.179,
      "velocity": 1,
      "hand": "right"
    },
    {
      "midi": 44,
      "time": 147.768,
      "duration": 0.179,
      "velocity": 1,
      "hand": "left"
    },
    {
      "midi": 68,
      "time": 147.768,
      "duration": 0.625,
      "velocity": 1,
      "hand": "right"
    },
    {
      "midi": 51,
      "time": 148.036,
      "duration": 0.179,
      "velocity": 1,
      "hand": "left"
    },
    {
      "midi": 56,
      "time": 148.214,
      "duration": 0.179,
      "velocity": 1,
      "hand": "left"
    },
    {
      "midi": 60,
      "time": 148.482,
      "duration": 0.179,
      "velocity": 1,
      "hand": "right"
    },
    {
      "midi": 56,
      "time": 148.661,
      "duration": 0.179,
      "velocity": 1,
      "hand": "left"
    },
    {
      "midi": 51,
      "time": 148.929,
      "duration": 0.179,
      "velocity": 1,
      "hand": "left"
    },
    {
      "midi": 42,
      "time": 149.107,
      "duration": 0.179,
      "velocity": 1,
      "hand": "left"
    },
    {
      "midi": 70,
      "time": 149.107,
      "duration": 0.625,
      "velocity": 1,
      "hand": "right"
    },
    {
      "midi": 54,
      "time": 149.375,
      "duration": 0.179,
      "velocity": 1,
      "hand": "left"
    },
    {
      "midi": 58,
      "time": 149.554,
      "duration": 0.179,
      "velocity": 1,
      "hand": "left"
    },
    {
      "midi": 61,
      "time": 149.821,
      "duration": 0.179,
      "velocity": 1,
      "hand": "right"
    },
    {
      "midi": 73,
      "time": 149.821,
      "duration": 0.179,
      "velocity": 1,
      "hand": "right"
    },
    {
      "midi": 58,
      "time": 150,
      "duration": 0.179,
      "velocity": 1,
      "hand": "left"
    },
    {
      "midi": 72,
      "time": 150,
      "duration": 0.179,
      "velocity": 1,
      "hand": "right"
    },
    {
      "midi": 54,
      "time": 150.268,
      "duration": 0.179,
      "velocity": 1,
      "hand": "left"
    },
    {
      "midi": 70,
      "time": 150.268,
      "duration": 0.179,
      "velocity": 1,
      "hand": "right"
    },
    {
      "midi": 44,
      "time": 150.446,
      "duration": 0.179,
      "velocity": 1,
      "hand": "left"
    },
    {
      "midi": 68,
      "time": 150.446,
      "duration": 1.339,
      "velocity": 1,
      "hand": "right"
    },
    {
      "midi": 51,
      "time": 150.714,
      "duration": 0.179,
      "velocity": 1,
      "hand": "left"
    },
    {
      "midi": 56,
      "time": 150.893,
      "duration": 0.179,
      "velocity": 1,
      "hand": "left"
    },
    {
      "midi": 60,
      "time": 151.161,
      "duration": 0.179,
      "velocity": 1,
      "hand": "right"
    },
    {
      "midi": 56,
      "time": 151.339,
      "duration": 0.179,
      "velocity": 1,
      "hand": "left"
    },
    {
      "midi": 51,
      "time": 151.607,
      "duration": 0.179,
      "velocity": 1,
      "hand": "left"
    },
    {
      "midi": 44,
      "time": 151.786,
      "duration": 0.179,
      "velocity": 1,
      "hand": "left"
    },
    {
      "midi": 70,
      "time": 151.786,
      "duration": 0.357,
      "velocity": 1,
      "hand": "right"
    },
    {
      "midi": 56,
      "time": 152.054,
      "duration": 0.179,
      "velocity": 1,
      "hand": "left"
    },
    {
      "midi": 68,
      "time": 152.143,
      "duration": 0.357,
      "velocity": 1,
      "hand": "right"
    },
    {
      "midi": 60,
      "time": 152.232,
      "duration": 0.179,
      "velocity": 1,
      "hand": "right"
    },
    {
      "midi": 66,
      "time": 152.5,
      "duration": 0.179,
      "velocity": 1,
      "hand": "right"
    },
    {
      "midi": 73,
      "time": 152.5,
      "duration": 0.357,
      "velocity": 1,
      "hand": "right"
    },
    {
      "midi": 60,
      "time": 152.679,
      "duration": 0.179,
      "velocity": 1,
      "hand": "right"
    },
    {
      "midi": 75,
      "time": 152.768,
      "duration": 0.357,
      "velocity": 1,
      "hand": "right"
    },
    {
      "midi": 56,
      "time": 152.946,
      "duration": 0.179,
      "velocity": 1,
      "hand": "left"
    },
    {
      "midi": 49,
      "time": 153.125,
      "duration": 0.179,
      "velocity": 1,
      "hand": "left"
    },
    {
      "midi": 77,
      "time": 153.125,
      "duration": 1.339,
      "velocity": 1,
      "hand": "right"
    },
    {
      "midi": 56,
      "time": 153.393,
      "duration": 0.179,
      "velocity": 1,
      "hand": "left"
    },
    {
      "midi": 61,
      "time": 153.571,
      "duration": 0.179,
      "velocity": 1,
      "hand": "right"
    },
    {
      "midi": 65,
      "time": 153.839,
      "duration": 0.179,
      "velocity": 1,
      "hand": "right"
    },
    {
      "midi": 61,
      "time": 154.018,
      "duration": 0.179,
      "velocity": 1,
      "hand": "right"
    },
    {
      "midi": 56,
      "time": 154.286,
      "duration": 0.179,
      "velocity": 1,
      "hand": "left"
    },
    {
      "midi": 49,
      "time": 154.464,
      "duration": 0.179,
      "velocity": 1,
      "hand": "left"
    },
    {
      "midi": 80,
      "time": 154.464,
      "duration": 1.339,
      "velocity": 1,
      "hand": "right"
    },
    {
      "midi": 56,
      "time": 154.732,
      "duration": 0.179,
      "velocity": 1,
      "hand": "left"
    },
    {
      "midi": 65,
      "time": 154.911,
      "duration": 0.179,
      "velocity": 1,
      "hand": "right"
    },
    {
      "midi": 68,
      "time": 155.179,
      "duration": 0.625,
      "velocity": 1,
      "hand": "right"
    },
    {
      "midi": 65,
      "time": 155.357,
      "duration": 0.179,
      "velocity": 1,
      "hand": "right"
    },
    {
      "midi": 56,
      "time": 155.625,
      "duration": 0.179,
      "velocity": 1,
      "hand": "left"
    },
    {
      "midi": 66,
      "time": 155.804,
      "duration": 0.625,
      "velocity": 1,
      "hand": "right"
    },
    {
      "midi": 78,
      "time": 155.804,
      "duration": 0.625,
      "velocity": 1,
      "hand": "right"
    },
    {
      "midi": 63,
      "time": 156.071,
      "duration": 0.179,
      "velocity": 1,
      "hand": "right"
    },
    {
      "midi": 56,
      "time": 156.25,
      "duration": 0.179,
      "velocity": 1,
      "hand": "left"
    },
    {
      "midi": 65,
      "time": 156.518,
      "duration": 0.625,
      "velocity": 1,
      "hand": "right"
    },
    {
      "midi": 77,
      "time": 156.518,
      "duration": 0.625,
      "velocity": 1,
      "hand": "right"
    },
    {
      "midi": 61,
      "time": 156.696,
      "duration": 0.179,
      "velocity": 1,
      "hand": "right"
    },
    {
      "midi": 56,
      "time": 156.964,
      "duration": 0.179,
      "velocity": 1,
      "hand": "left"
    },
    {
      "midi": 63,
      "time": 157.143,
      "duration": 0.625,
      "velocity": 1,
      "hand": "right"
    },
    {
      "midi": 75,
      "time": 157.143,
      "duration": 0.536,
      "velocity": 1,
      "hand": "right"
    },
    {
      "midi": 60,
      "time": 157.321,
      "duration": 0.179,
      "velocity": 1,
      "hand": "right"
    },
    {
      "midi": 56,
      "time": 157.589,
      "duration": 0.179,
      "velocity": 1,
      "hand": "left"
    },
    {
      "midi": 75,
      "time": 157.679,
      "duration": 0.045,
      "velocity": 1,
      "hand": "right"
    },
    {
      "midi": 77,
      "time": 157.679,
      "duration": 0.045,
      "velocity": 1,
      "hand": "right"
    },
    {
      "midi": 61,
      "time": 157.768,
      "duration": 0.625,
      "velocity": 1,
      "hand": "right"
    },
    {
      "midi": 73,
      "time": 157.768,
      "duration": 0.045,
      "velocity": 1,
      "hand": "right"
    },
    {
      "midi": 75,
      "time": 157.768,
      "duration": 0.045,
      "velocity": 1,
      "hand": "right"
    },
    {
      "midi": 77,
      "time": 157.768,
      "duration": 0.536,
      "velocity": 1,
      "hand": "right"
    },
    {
      "midi": 56,
      "time": 158.036,
      "duration": 0.179,
      "velocity": 1,
      "hand": "left"
    },
    {
      "midi": 53,
      "time": 158.214,
      "duration": 0.179,
      "velocity": 1,
      "hand": "left"
    },
    {
      "midi": 73,
      "time": 158.304,
      "duration": 0.179,
      "velocity": 1,
      "hand": "right"
    },
    {
      "midi": 44,
      "time": 158.482,
      "duration": 0.179,
      "velocity": 1,
      "hand": "left"
    },
    {
      "midi": 68,
      "time": 158.482,
      "duration": 1.339,
      "velocity": 1,
      "hand": "right"
    },
    {
      "midi": 51,
      "time": 158.661,
      "duration": 0.179,
      "velocity": 1,
      "hand": "left"
    },
    {
      "midi": 56,
      "time": 158.929,
      "duration": 0.179,
      "velocity": 1,
      "hand": "left"
    },
    {
      "midi": 60,
      "time": 159.107,
      "duration": 0.179,
      "velocity": 1,
      "hand": "right"
    },
    {
      "midi": 56,
      "time": 159.375,
      "duration": 0.179,
      "velocity": 1,
      "hand": "left"
    },
    {
      "midi": 51,
      "time": 159.554,
      "duration": 0.179,
      "velocity": 1,
      "hand": "left"
    },
    {
      "midi": 42,
      "time": 159.821,
      "duration": 0.179,
      "velocity": 1,
      "hand": "left"
    },
    {
      "midi": 70,
      "time": 159.821,
      "duration": 2.679,
      "velocity": 1,
      "hand": "right"
    },
    {
      "midi": 54,
      "time": 160,
      "duration": 0.179,
      "velocity": 1,
      "hand": "left"
    },
    {
      "midi": 58,
      "time": 160.268,
      "duration": 0.179,
      "velocity": 1,
      "hand": "left"
    },
    {
      "midi": 61,
      "time": 160.446,
      "duration": 0.179,
      "velocity": 1,
      "hand": "right"
    },
    {
      "midi": 58,
      "time": 160.714,
      "duration": 0.179,
      "velocity": 1,
      "hand": "left"
    },
    {
      "midi": 54,
      "time": 160.893,
      "duration": 0.179,
      "velocity": 1,
      "hand": "left"
    },
    {
      "midi": 46,
      "time": 161.161,
      "duration": 0.179,
      "velocity": 1,
      "hand": "left"
    },
    {
      "midi": 53,
      "time": 161.339,
      "duration": 0.179,
      "velocity": 1,
      "hand": "left"
    },
    {
      "midi": 58,
      "time": 161.607,
      "duration": 0.179,
      "velocity": 1,
      "hand": "left"
    },
    {
      "midi": 62,
      "time": 161.786,
      "duration": 0.179,
      "velocity": 1,
      "hand": "right"
    },
    {
      "midi": 58,
      "time": 162.054,
      "duration": 0.179,
      "velocity": 1,
      "hand": "left"
    },
    {
      "midi": 53,
      "time": 162.232,
      "duration": 0.179,
      "velocity": 1,
      "hand": "left"
    },
    {
      "midi": 46,
      "time": 162.5,
      "duration": 0.179,
      "velocity": 1,
      "hand": "left"
    },
    {
      "midi": 71,
      "time": 162.5,
      "duration": 0.357,
      "velocity": 1,
      "hand": "right"
    },
    {
      "midi": 58,
      "time": 162.679,
      "duration": 0.179,
      "velocity": 1,
      "hand": "left"
    },
    {
      "midi": 70,
      "time": 162.768,
      "duration": 0.357,
      "velocity": 1,
      "hand": "right"
    },
    {
      "midi": 62,
      "time": 162.946,
      "duration": 0.179,
      "velocity": 1,
      "hand": "right"
    },
    {
      "midi": 68,
      "time": 163.125,
      "duration": 0.179,
      "velocity": 1,
      "hand": "right"
    },
    {
      "midi": 75,
      "time": 163.125,
      "duration": 0.357,
      "velocity": 1,
      "hand": "right"
    },
    {
      "midi": 62,
      "time": 163.393,
      "duration": 0.179,
      "velocity": 1,
      "hand": "right"
    },
    {
      "midi": 77,
      "time": 163.482,
      "duration": 0.357,
      "velocity": 1,
      "hand": "right"
    },
    {
      "midi": 58,
      "time": 163.571,
      "duration": 0.179,
      "velocity": 1,
      "hand": "left"
    },
    {
      "midi": 51,
      "time": 163.839,
      "duration": 0.179,
      "velocity": 1,
      "hand": "left"
    },
    {
      "midi": 78,
      "time": 163.839,
      "duration": 0.625,
      "velocity": 1,
      "hand": "right"
    },
    {
      "midi": 66,
      "time": 164.018,
      "duration": 0.179,
      "velocity": 1,
      "hand": "right"
    },
    {
      "midi": 58,
      "time": 164.286,
      "duration": 0.179,
      "velocity": 1,
      "hand": "left"
    },
    {
      "midi": 53,
      "time": 164.464,
      "duration": 0.179,
      "velocity": 1,
      "hand": "left"
    },
    {
      "midi": 77,
      "time": 164.464,
      "duration": 0.625,
      "velocity": 1,
      "hand": "right"
    },
    {
      "midi": 65,
      "time": 164.732,
      "duration": 0.179,
      "velocity": 1,
      "hand": "right"
    },
    {
      "midi": 57,
      "time": 164.911,
      "duration": 0.179,
      "velocity": 1,
      "hand": "left"
    },
    {
      "midi": 54,
      "time": 165.179,
      "duration": 0.179,
      "velocity": 1,
      "hand": "left"
    },
    {
      "midi": 75,
      "time": 165.179,
      "duration": 0.625,
      "velocity": 1,
      "hand": "right"
    },
    {
      "midi": 63,
      "time": 165.357,
      "duration": 0.179,
      "velocity": 1,
      "hand": "right"
    },
    {
      "midi": 58,
      "time": 165.625,
      "duration": 0.179,
      "velocity": 1,
      "hand": "left"
    },
    {
      "midi": 56,
      "time": 165.804,
      "duration": 0.179,
      "velocity": 1,
      "hand": "left"
    },
    {
      "midi": 77,
      "time": 165.804,
      "duration": 0.625,
      "velocity": 1,
      "hand": "right"
    },
    {
      "midi": 66,
      "time": 166.071,
      "duration": 0.179,
      "velocity": 1,
      "hand": "right"
    },
    {
      "midi": 60,
      "time": 166.25,
      "duration": 0.179,
      "velocity": 1,
      "hand": "right"
    },
    {
      "midi": 49,
      "time": 166.518,
      "duration": 0.179,
      "velocity": 1,
      "hand": "left"
    },
    {
      "midi": 73,
      "time": 166.518,
      "duration": 0.982,
      "velocity": 1,
      "hand": "right"
    },
    {
      "midi": 56,
      "time": 166.696,
      "duration": 0.179,
      "velocity": 1,
      "hand": "left"
    },
    {
      "midi": 61,
      "time": 166.964,
      "duration": 0.179,
      "velocity": 1,
      "hand": "right"
    },
    {
      "midi": 65,
      "time": 167.143,
      "duration": 0.179,
      "velocity": 1,
      "hand": "right"
    },
    {
      "midi": 61,
      "time": 167.321,
      "duration": 0.179,
      "velocity": 1,
      "hand": "right"
    },
    {
      "midi": 67,
      "time": 167.5,
      "duration": 0.089,
      "velocity": 1,
      "hand": "right"
    },
    {
      "midi": 56,
      "time": 167.589,
      "duration": 0.179,
      "velocity": 1,
      "hand": "left"
    },
    {
      "midi": 68,
      "time": 167.589,
      "duration": 0.089,
      "velocity": 1,
      "hand": "right"
    },
    {
      "midi": 70,
      "time": 167.679,
      "duration": 0.089,
      "velocity": 1,
      "hand": "right"
    },
    {
      "midi": 49,
      "time": 167.768,
      "duration": 0.179,
      "velocity": 1,
      "hand": "left"
    },
    {
      "midi": 68,
      "time": 167.768,
      "duration": 0.089,
      "velocity": 1,
      "hand": "right"
    },
    {
      "midi": 77,
      "time": 167.768,
      "duration": 0.982,
      "velocity": 1,
      "hand": "right"
    },
    {
      "midi": 56,
      "time": 168.036,
      "duration": 0.179,
      "velocity": 1,
      "hand": "left"
    },
    {
      "midi": 60,
      "time": 168.214,
      "duration": 0.179,
      "velocity": 1,
      "hand": "right"
    },
    {
      "midi": 66,
      "time": 168.482,
      "duration": 0.179,
      "velocity": 1,
      "hand": "right"
    },
    {
      "midi": 60,
      "time": 168.661,
      "duration": 0.179,
      "velocity": 1,
      "hand": "right"
    },
    {
      "midi": 75,
      "time": 168.839,
      "duration": 0.357,
      "velocity": 1,
      "hand": "right"
    },
    {
      "midi": 56,
      "time": 168.929,
      "duration": 0.179,
      "velocity": 1,
      "hand": "left"
    },
    {
      "midi": 49,
      "time": 169.107,
      "duration": 0.179,
      "velocity": 1,
      "hand": "left"
    },
    {
      "midi": 75,
      "time": 169.107,
      "duration": 2.679,
      "velocity": 1,
      "hand": "right"
    },
    {
      "midi": 56,
      "time": 169.375,
      "duration": 0.179,
      "velocity": 1,
      "hand": "left"
    },
    {
      "midi": 60,
      "time": 169.554,
      "duration": 0.179,
      "velocity": 1,
      "hand": "right"
    },
    {
      "midi": 66,
      "time": 169.821,
      "duration": 0.179,
      "velocity": 1,
      "hand": "right"
    },
    {
      "midi": 60,
      "time": 170,
      "duration": 0.179,
      "velocity": 1,
      "hand": "right"
    },
    {
      "midi": 56,
      "time": 170.268,
      "duration": 0.179,
      "velocity": 1,
      "hand": "left"
    },
    {
      "midi": 49,
      "time": 170.446,
      "duration": 0.179,
      "velocity": 1,
      "hand": "left"
    },
    {
      "midi": 56,
      "time": 170.714,
      "duration": 0.179,
      "velocity": 1,
      "hand": "left"
    },
    {
      "midi": 60,
      "time": 170.893,
      "duration": 0.179,
      "velocity": 1,
      "hand": "right"
    },
    {
      "midi": 66,
      "time": 171.161,
      "duration": 0.179,
      "velocity": 1,
      "hand": "right"
    },
    {
      "midi": 60,
      "time": 171.339,
      "duration": 0.179,
      "velocity": 1,
      "hand": "right"
    },
    {
      "midi": 56,
      "time": 171.607,
      "duration": 0.179,
      "velocity": 1,
      "hand": "left"
    },
    {
      "midi": 49,
      "time": 171.786,
      "duration": 0.089,
      "velocity": 1,
      "hand": "left"
    },
    {
      "midi": 68,
      "time": 171.875,
      "duration": 0.089,
      "velocity": 1,
      "hand": "right"
    },
    {
      "midi": 56,
      "time": 171.964,
      "duration": 0.089,
      "velocity": 1,
      "hand": "left"
    },
    {
      "midi": 69,
      "time": 171.964,
      "duration": 0.089,
      "velocity": 1,
      "hand": "right"
    },
    {
      "midi": 61,
      "time": 172.054,
      "duration": 0.089,
      "velocity": 1,
      "hand": "right"
    },
    {
      "midi": 68,
      "time": 172.054,
      "duration": 0.089,
      "velocity": 1,
      "hand": "right"
    },
    {
      "midi": 64,
      "time": 172.143,
      "duration": 0.089,
      "velocity": 1,
      "hand": "right"
    },
    {
      "midi": 67,
      "time": 172.143,
      "duration": 0.089,
      "velocity": 1,
      "hand": "right"
    },
    {
      "midi": 68,
      "time": 172.232,
      "duration": 0.089,
      "velocity": 1,
      "hand": "right"
    },
    {
      "midi": 61,
      "time": 172.321,
      "duration": 0.089,
      "velocity": 1,
      "hand": "right"
    },
    {
      "midi": 73,
      "time": 172.321,
      "duration": 0.089,
      "velocity": 1,
      "hand": "right"
    },
    {
      "midi": 56,
      "time": 172.411,
      "duration": 0.089,
      "velocity": 1,
      "hand": "left"
    },
    {
      "midi": 76,
      "time": 172.411,
      "duration": 0.089,
      "velocity": 1,
      "hand": "right"
    },
    {
      "midi": 52,
      "time": 172.5,
      "duration": 0.089,
      "velocity": 1,
      "hand": "left"
    },
    {
      "midi": 75,
      "time": 172.5,
      "duration": 0.089,
      "velocity": 1,
      "hand": "right"
    },
    {
      "midi": 73,
      "time": 172.589,
      "duration": 0.089,
      "velocity": 1,
      "hand": "right"
    },
    {
      "midi": 56,
      "time": 172.679,
      "duration": 0.089,
      "velocity": 1,
      "hand": "left"
    },
    {
      "midi": 75,
      "time": 172.679,
      "duration": 0.089,
      "velocity": 1,
      "hand": "right"
    },
    {
      "midi": 61,
      "time": 172.768,
      "duration": 0.089,
      "velocity": 1,
      "hand": "right"
    },
    {
      "midi": 73,
      "time": 172.768,
      "duration": 0.089,
      "velocity": 1,
      "hand": "right"
    },
    {
      "midi": 64,
      "time": 172.857,
      "duration": 0.089,
      "velocity": 1,
      "hand": "right"
    },
    {
      "midi": 72,
      "time": 172.857,
      "duration": 0.089,
      "velocity": 1,
      "hand": "right"
    },
    {
      "midi": 73,
      "time": 172.946,
      "duration": 0.089,
      "velocity": 1,
      "hand": "right"
    },
    {
      "midi": 61,
      "time": 173.036,
      "duration": 0.089,
      "velocity": 1,
      "hand": "right"
    },
    {
      "midi": 76,
      "time": 173.036,
      "duration": 0.089,
      "velocity": 1,
      "hand": "right"
    },
    {
      "midi": 56,
      "time": 173.125,
      "duration": 0.089,
      "velocity": 1,
      "hand": "left"
    },
    {
      "midi": 80,
      "time": 173.125,
      "duration": 0.089,
      "velocity": 1,
      "hand": "right"
    },
    {
      "midi": 49,
      "time": 173.214,
      "duration": 0.089,
      "velocity": 1,
      "hand": "left"
    },
    {
      "midi": 68,
      "time": 173.304,
      "duration": 0.089,
      "velocity": 1,
      "hand": "right"
    },
    {
      "midi": 56,
      "time": 173.393,
      "duration": 0.089,
      "velocity": 1,
      "hand": "left"
    },
    {
      "midi": 69,
      "time": 173.393,
      "duration": 0.089,
      "velocity": 1,
      "hand": "right"
    },
    {
      "midi": 61,
      "time": 173.482,
      "duration": 0.089,
      "velocity": 1,
      "hand": "right"
    },
    {
      "midi": 68,
      "time": 173.482,
      "duration": 0.089,
      "velocity": 1,
      "hand": "right"
    },
    {
      "midi": 64,
      "time": 173.571,
      "duration": 0.089,
      "velocity": 1,
      "hand": "right"
    },
    {
      "midi": 67,
      "time": 173.571,
      "duration": 0.089,
      "velocity": 1,
      "hand": "right"
    },
    {
      "midi": 68,
      "time": 173.661,
      "duration": 0.089,
      "velocity": 1,
      "hand": "right"
    },
    {
      "midi": 61,
      "time": 173.75,
      "duration": 0.089,
      "velocity": 1,
      "hand": "right"
    },
    {
      "midi": 73,
      "time": 173.75,
      "duration": 0.089,
      "velocity": 1,
      "hand": "right"
    },
    {
      "midi": 56,
      "time": 173.839,
      "duration": 0.089,
      "velocity": 1,
      "hand": "left"
    },
    {
      "midi": 76,
      "time": 173.839,
      "duration": 0.089,
      "velocity": 1,
      "hand": "right"
    },
    {
      "midi": 52,
      "time": 173.929,
      "duration": 0.089,
      "velocity": 1,
      "hand": "left"
    },
    {
      "midi": 75,
      "time": 173.929,
      "duration": 0.089,
      "velocity": 1,
      "hand": "right"
    },
    {
      "midi": 73,
      "time": 174.018,
      "duration": 0.089,
      "velocity": 1,
      "hand": "right"
    },
    {
      "midi": 56,
      "time": 174.107,
      "duration": 0.089,
      "velocity": 1,
      "hand": "left"
    },
    {
      "midi": 75,
      "time": 174.107,
      "duration": 0.089,
      "velocity": 1,
      "hand": "right"
    },
    {
      "midi": 61,
      "time": 174.196,
      "duration": 0.089,
      "velocity": 1,
      "hand": "right"
    },
    {
      "midi": 73,
      "time": 174.196,
      "duration": 0.089,
      "velocity": 1,
      "hand": "right"
    },
    {
      "midi": 64,
      "time": 174.286,
      "duration": 0.089,
      "velocity": 1,
      "hand": "right"
    },
    {
      "midi": 72,
      "time": 174.286,
      "duration": 0.089,
      "velocity": 1,
      "hand": "right"
    },
    {
      "midi": 73,
      "time": 174.375,
      "duration": 0.089,
      "velocity": 1,
      "hand": "right"
    },
    {
      "midi": 61,
      "time": 174.464,
      "duration": 0.089,
      "velocity": 1,
      "hand": "right"
    },
    {
      "midi": 76,
      "time": 174.464,
      "duration": 0.089,
      "velocity": 1,
      "hand": "right"
    },
    {
      "midi": 56,
      "time": 174.554,
      "duration": 0.089,
      "velocity": 1,
      "hand": "left"
    },
    {
      "midi": 80,
      "time": 174.554,
      "duration": 0.089,
      "velocity": 1,
      "hand": "right"
    },
    {
      "midi": 51,
      "time": 174.643,
      "duration": 0.089,
      "velocity": 1,
      "hand": "left"
    },
    {
      "midi": 69,
      "time": 174.732,
      "duration": 0.089,
      "velocity": 1,
      "hand": "right"
    },
    {
      "midi": 57,
      "time": 174.821,
      "duration": 0.089,
      "velocity": 1,
      "hand": "left"
    },
    {
      "midi": 73,
      "time": 174.821,
      "duration": 0.089,
      "velocity": 1,
      "hand": "right"
    },
    {
      "midi": 61,
      "time": 174.911,
      "duration": 0.089,
      "velocity": 1,
      "hand": "right"
    },
    {
      "midi": 75,
      "time": 174.911,
      "duration": 0.089,
      "velocity": 1,
      "hand": "right"
    },
    {
      "midi": 66,
      "time": 175,
      "duration": 0.089,
      "velocity": 1,
      "hand": "right"
    },
    {
      "midi": 78,
      "time": 175,
      "duration": 0.089,
      "velocity": 1,
      "hand": "right"
    },
    {
      "midi": 81,
      "time": 175.089,
      "duration": 0.089,
      "velocity": 1,
      "hand": "right"
    },
    {
      "midi": 61,
      "time": 175.179,
      "duration": 0.089,
      "velocity": 1,
      "hand": "right"
    },
    {
      "midi": 85,
      "time": 175.179,
      "duration": 0.089,
      "velocity": 1,
      "hand": "right"
    },
    {
      "midi": 57,
      "time": 175.268,
      "duration": 0.089,
      "velocity": 1,
      "hand": "left"
    },
    {
      "midi": 87,
      "time": 175.268,
      "duration": 0.089,
      "velocity": 1,
      "hand": "right"
    },
    {
      "midi": 54,
      "time": 175.357,
      "duration": 0.089,
      "velocity": 1,
      "hand": "left"
    },
    {
      "midi": 95,
      "time": 175.357,
      "duration": 0.089,
      "velocity": 1,
      "hand": "right"
    },
    {
      "midi": 93,
      "time": 175.446,
      "duration": 0.089,
      "velocity": 1,
      "hand": "right"
    },
    {
      "midi": 61,
      "time": 175.536,
      "duration": 0.089,
      "velocity": 1,
      "hand": "right"
    },
    {
      "midi": 92,
      "time": 175.536,
      "duration": 0.089,
      "velocity": 1,
      "hand": "right"
    },
    {
      "midi": 63,
      "time": 175.625,
      "duration": 0.089,
      "velocity": 1,
      "hand": "right"
    },
    {
      "midi": 90,
      "time": 175.625,
      "duration": 0.089,
      "velocity": 1,
      "hand": "right"
    },
    {
      "midi": 69,
      "time": 175.714,
      "duration": 0.089,
      "velocity": 1,
      "hand": "right"
    },
    {
      "midi": 88,
      "time": 175.714,
      "duration": 0.089,
      "velocity": 1,
      "hand": "right"
    },
    {
      "midi": 87,
      "time": 175.804,
      "duration": 0.089,
      "velocity": 1,
      "hand": "right"
    },
    {
      "midi": 63,
      "time": 175.893,
      "duration": 0.089,
      "velocity": 1,
      "hand": "right"
    },
    {
      "midi": 90,
      "time": 175.893,
      "duration": 0.089,
      "velocity": 1,
      "hand": "right"
    },
    {
      "midi": 61,
      "time": 175.982,
      "duration": 0.089,
      "velocity": 1,
      "hand": "right"
    },
    {
      "midi": 85,
      "time": 175.982,
      "duration": 0.089,
      "velocity": 1,
      "hand": "right"
    },
    {
      "midi": 44,
      "time": 176.071,
      "duration": 0.089,
      "velocity": 1,
      "hand": "left"
    },
    {
      "midi": 84,
      "time": 176.071,
      "duration": 0.089,
      "velocity": 1,
      "hand": "right"
    },
    {
      "midi": 87,
      "time": 176.161,
      "duration": 0.089,
      "velocity": 1,
      "hand": "right"
    },
    {
      "midi": 51,
      "time": 176.25,
      "duration": 0.089,
      "velocity": 1,
      "hand": "left"
    },
    {
      "midi": 81,
      "time": 176.25,
      "duration": 0.089,
      "velocity": 1,
      "hand": "right"
    },
    {
      "midi": 54,
      "time": 176.339,
      "duration": 0.089,
      "velocity": 1,
      "hand": "left"
    },
    {
      "midi": 80,
      "time": 176.339,
      "duration": 0.089,
      "velocity": 1,
      "hand": "right"
    },
    {
      "midi": 60,
      "time": 176.429,
      "duration": 0.089,
      "velocity": 1,
      "hand": "right"
    },
    {
      "midi": 78,
      "time": 176.429,
      "duration": 0.089,
      "velocity": 1,
      "hand": "right"
    },
    {
      "midi": 81,
      "time": 176.518,
      "duration": 0.089,
      "velocity": 1,
      "hand": "right"
    },
    {
      "midi": 54,
      "time": 176.607,
      "duration": 0.089,
      "velocity": 1,
      "hand": "left"
    },
    {
      "midi": 76,
      "time": 176.607,
      "duration": 0.089,
      "velocity": 1,
      "hand": "right"
    },
    {
      "midi": 51,
      "time": 176.696,
      "duration": 0.089,
      "velocity": 1,
      "hand": "left"
    },
    {
      "midi": 75,
      "time": 176.696,
      "duration": 0.089,
      "velocity": 1,
      "hand": "right"
    },
    {
      "midi": 44,
      "time": 176.786,
      "duration": 0.089,
      "velocity": 1,
      "hand": "left"
    },
    {
      "midi": 78,
      "time": 176.786,
      "duration": 0.089,
      "velocity": 1,
      "hand": "right"
    },
    {
      "midi": 73,
      "time": 176.875,
      "duration": 0.089,
      "velocity": 1,
      "hand": "right"
    },
    {
      "midi": 51,
      "time": 176.964,
      "duration": 0.089,
      "velocity": 1,
      "hand": "left"
    },
    {
      "midi": 72,
      "time": 176.964,
      "duration": 0.089,
      "velocity": 1,
      "hand": "right"
    },
    {
      "midi": 54,
      "time": 177.054,
      "duration": 0.089,
      "velocity": 1,
      "hand": "left"
    },
    {
      "midi": 75,
      "time": 177.054,
      "duration": 0.089,
      "velocity": 1,
      "hand": "right"
    },
    {
      "midi": 60,
      "time": 177.143,
      "duration": 0.089,
      "velocity": 1,
      "hand": "right"
    },
    {
      "midi": 69,
      "time": 177.143,
      "duration": 0.089,
      "velocity": 1,
      "hand": "right"
    },
    {
      "midi": 68,
      "time": 177.232,
      "duration": 0.089,
      "velocity": 1,
      "hand": "right"
    },
    {
      "midi": 54,
      "time": 177.321,
      "duration": 0.089,
      "velocity": 1,
      "hand": "left"
    },
    {
      "midi": 71,
      "time": 177.321,
      "duration": 0.089,
      "velocity": 1,
      "hand": "right"
    },
    {
      "midi": 51,
      "time": 177.411,
      "duration": 0.089,
      "velocity": 1,
      "hand": "left"
    },
    {
      "midi": 69,
      "time": 177.411,
      "duration": 0.179,
      "velocity": 1,
      "hand": "right"
    },
    {
      "midi": 49,
      "time": 177.5,
      "duration": 0.089,
      "velocity": 1,
      "hand": "left"
    },
    {
      "midi": 68,
      "time": 177.589,
      "duration": 0.089,
      "velocity": 1,
      "hand": "right"
    },
    {
      "midi": 56,
      "time": 177.679,
      "duration": 0.089,
      "velocity": 1,
      "hand": "left"
    },
    {
      "midi": 69,
      "time": 177.679,
      "duration": 0.089,
      "velocity": 1,
      "hand": "right"
    },
    {
      "midi": 61,
      "time": 177.768,
      "duration": 0.089,
      "velocity": 1,
      "hand": "right"
    },
    {
      "midi": 68,
      "time": 177.768,
      "duration": 0.089,
      "velocity": 1,
      "hand": "right"
    },
    {
      "midi": 64,
      "time": 177.857,
      "duration": 0.089,
      "velocity": 1,
      "hand": "right"
    },
    {
      "midi": 67,
      "time": 177.857,
      "duration": 0.089,
      "velocity": 1,
      "hand": "right"
    },
    {
      "midi": 68,
      "time": 177.946,
      "duration": 0.089,
      "velocity": 1,
      "hand": "right"
    },
    {
      "midi": 61,
      "time": 178.036,
      "duration": 0.089,
      "velocity": 1,
      "hand": "right"
    },
    {
      "midi": 73,
      "time": 178.036,
      "duration": 0.089,
      "velocity": 1,
      "hand": "right"
    },
    {
      "midi": 56,
      "time": 178.125,
      "duration": 0.089,
      "velocity": 1,
      "hand": "left"
    },
    {
      "midi": 76,
      "time": 178.125,
      "duration": 0.089,
      "velocity": 1,
      "hand": "right"
    },
    {
      "midi": 52,
      "time": 178.214,
      "duration": 0.089,
      "velocity": 1,
      "hand": "left"
    },
    {
      "midi": 75,
      "time": 178.214,
      "duration": 0.089,
      "velocity": 1,
      "hand": "right"
    },
    {
      "midi": 73,
      "time": 178.304,
      "duration": 0.089,
      "velocity": 1,
      "hand": "right"
    },
    {
      "midi": 56,
      "time": 178.393,
      "duration": 0.089,
      "velocity": 1,
      "hand": "left"
    },
    {
      "midi": 75,
      "time": 178.393,
      "duration": 0.089,
      "velocity": 1,
      "hand": "right"
    },
    {
      "midi": 61,
      "time": 178.482,
      "duration": 0.089,
      "velocity": 1,
      "hand": "right"
    },
    {
      "midi": 73,
      "time": 178.482,
      "duration": 0.089,
      "velocity": 1,
      "hand": "right"
    },
    {
      "midi": 64,
      "time": 178.571,
      "duration": 0.089,
      "velocity": 1,
      "hand": "right"
    },
    {
      "midi": 72,
      "time": 178.571,
      "duration": 0.089,
      "velocity": 1,
      "hand": "right"
    },
    {
      "midi": 73,
      "time": 178.661,
      "duration": 0.089,
      "velocity": 1,
      "hand": "right"
    },
    {
      "midi": 61,
      "time": 178.75,
      "duration": 0.089,
      "velocity": 1,
      "hand": "right"
    },
    {
      "midi": 76,
      "time": 178.75,
      "duration": 0.089,
      "velocity": 1,
      "hand": "right"
    },
    {
      "midi": 56,
      "time": 178.839,
      "duration": 0.089,
      "velocity": 1,
      "hand": "left"
    },
    {
      "midi": 80,
      "time": 178.839,
      "duration": 0.089,
      "velocity": 1,
      "hand": "right"
    },
    {
      "midi": 49,
      "time": 178.929,
      "duration": 0.089,
      "velocity": 1,
      "hand": "left"
    },
    {
      "midi": 68,
      "time": 179.018,
      "duration": 0.089,
      "velocity": 1,
      "hand": "right"
    },
    {
      "midi": 56,
      "time": 179.107,
      "duration": 0.089,
      "velocity": 1,
      "hand": "left"
    },
    {
      "midi": 70,
      "time": 179.107,
      "duration": 0.089,
      "velocity": 1,
      "hand": "right"
    },
    {
      "midi": 58,
      "time": 179.196,
      "duration": 0.089,
      "velocity": 1,
      "hand": "left"
    },
    {
      "midi": 68,
      "time": 179.196,
      "duration": 0.089,
      "velocity": 1,
      "hand": "right"
    },
    {
      "midi": 64,
      "time": 179.286,
      "duration": 0.089,
      "velocity": 1,
      "hand": "right"
    },
    {
      "midi": 67,
      "time": 179.286,
      "duration": 0.089,
      "velocity": 1,
      "hand": "right"
    },
    {
      "midi": 68,
      "time": 179.375,
      "duration": 0.089,
      "velocity": 1,
      "hand": "right"
    },
    {
      "midi": 58,
      "time": 179.464,
      "duration": 0.089,
      "velocity": 1,
      "hand": "left"
    },
    {
      "midi": 73,
      "time": 179.464,
      "duration": 0.089,
      "velocity": 1,
      "hand": "right"
    },
    {
      "midi": 56,
      "time": 179.554,
      "duration": 0.089,
      "velocity": 1,
      "hand": "left"
    },
    {
      "midi": 76,
      "time": 179.554,
      "duration": 0.089,
      "velocity": 1,
      "hand": "right"
    },
    {
      "midi": 52,
      "time": 179.643,
      "duration": 0.089,
      "velocity": 1,
      "hand": "left"
    },
    {
      "midi": 75,
      "time": 179.643,
      "duration": 0.089,
      "velocity": 1,
      "hand": "right"
    },
    {
      "midi": 73,
      "time": 179.732,
      "duration": 0.089,
      "velocity": 1,
      "hand": "right"
    },
    {
      "midi": 56,
      "time": 179.821,
      "duration": 0.089,
      "velocity": 1,
      "hand": "left"
    },
    {
      "midi": 75,
      "time": 179.821,
      "duration": 0.089,
      "velocity": 1,
      "hand": "right"
    },
    {
      "midi": 58,
      "time": 179.911,
      "duration": 0.089,
      "velocity": 1,
      "hand": "left"
    },
    {
      "midi": 73,
      "time": 179.911,
      "duration": 0.089,
      "velocity": 1,
      "hand": "right"
    },
    {
      "midi": 61,
      "time": 180,
      "duration": 0.089,
      "velocity": 1,
      "hand": "right"
    },
    {
      "midi": 72,
      "time": 180,
      "duration": 0.089,
      "velocity": 1,
      "hand": "right"
    },
    {
      "midi": 73,
      "time": 180.089,
      "duration": 0.089,
      "velocity": 1,
      "hand": "right"
    },
    {
      "midi": 58,
      "time": 180.179,
      "duration": 0.089,
      "velocity": 1,
      "hand": "left"
    },
    {
      "midi": 76,
      "time": 180.179,
      "duration": 0.089,
      "velocity": 1,
      "hand": "right"
    },
    {
      "midi": 56,
      "time": 180.268,
      "duration": 0.089,
      "velocity": 1,
      "hand": "left"
    },
    {
      "midi": 80,
      "time": 180.268,
      "duration": 0.089,
      "velocity": 1,
      "hand": "right"
    },
    {
      "midi": 51,
      "time": 180.357,
      "duration": 0.089,
      "velocity": 1,
      "hand": "left"
    },
    {
      "midi": 75,
      "time": 180.357,
      "duration": 0.089,
      "velocity": 1,
      "hand": "right"
    },
    {
      "midi": 76,
      "time": 180.446,
      "duration": 0.089,
      "velocity": 1,
      "hand": "right"
    },
    {
      "midi": 56,
      "time": 180.536,
      "duration": 0.089,
      "velocity": 1,
      "hand": "left"
    },
    {
      "midi": 75,
      "time": 180.536,
      "duration": 0.089,
      "velocity": 1,
      "hand": "right"
    },
    {
      "midi": 59,
      "time": 180.625,
      "duration": 0.089,
      "velocity": 1,
      "hand": "left"
    },
    {
      "midi": 74,
      "time": 180.625,
      "duration": 0.089,
      "velocity": 1,
      "hand": "right"
    },
    {
      "midi": 63,
      "time": 180.714,
      "duration": 0.089,
      "velocity": 1,
      "hand": "right"
    },
    {
      "midi": 75,
      "time": 180.714,
      "duration": 0.089,
      "velocity": 1,
      "hand": "right"
    },
    {
      "midi": 83,
      "time": 180.804,
      "duration": 0.089,
      "velocity": 1,
      "hand": "right"
    },
    {
      "midi": 59,
      "time": 180.893,
      "duration": 0.089,
      "velocity": 1,
      "hand": "left"
    },
    {
      "midi": 82,
      "time": 180.893,
      "duration": 0.089,
      "velocity": 1,
      "hand": "right"
    },
    {
      "midi": 56,
      "time": 180.982,
      "duration": 0.089,
      "velocity": 1,
      "hand": "left"
    },
    {
      "midi": 80,
      "time": 180.982,
      "duration": 0.089,
      "velocity": 1,
      "hand": "right"
    },
    {
      "midi": 51,
      "time": 181.071,
      "duration": 0.089,
      "velocity": 1,
      "hand": "left"
    },
    {
      "midi": 79,
      "time": 181.071,
      "duration": 0.089,
      "velocity": 1,
      "hand": "right"
    },
    {
      "midi": 88,
      "time": 181.161,
      "duration": 0.089,
      "velocity": 1,
      "hand": "right"
    },
    {
      "midi": 58,
      "time": 181.25,
      "duration": 0.089,
      "velocity": 1,
      "hand": "left"
    },
    {
      "midi": 87,
      "time": 181.25,
      "duration": 0.089,
      "velocity": 1,
      "hand": "right"
    },
    {
      "midi": 61,
      "time": 181.339,
      "duration": 0.089,
      "velocity": 1,
      "hand": "right"
    },
    {
      "midi": 85,
      "time": 181.339,
      "duration": 0.089,
      "velocity": 1,
      "hand": "right"
    },
    {
      "midi": 67,
      "time": 181.429,
      "duration": 0.089,
      "velocity": 1,
      "hand": "right"
    },
    {
      "midi": 83,
      "time": 181.429,
      "duration": 0.089,
      "velocity": 1,
      "hand": "right"
    },
    {
      "midi": 82,
      "time": 181.518,
      "duration": 0.089,
      "velocity": 1,
      "hand": "right"
    },
    {
      "midi": 61,
      "time": 181.607,
      "duration": 0.089,
      "velocity": 1,
      "hand": "right"
    },
    {
      "midi": 80,
      "time": 181.607,
      "duration": 0.089,
      "velocity": 1,
      "hand": "right"
    },
    {
      "midi": 58,
      "time": 181.696,
      "duration": 0.089,
      "velocity": 1,
      "hand": "left"
    },
    {
      "midi": 79,
      "time": 181.696,
      "duration": 0.089,
      "velocity": 1,
      "hand": "right"
    },
    {
      "midi": 44,
      "time": 181.786,
      "duration": 0.089,
      "velocity": 1,
      "hand": "left"
    },
    {
      "midi": 82,
      "time": 181.786,
      "duration": 0.089,
      "velocity": 1,
      "hand": "right"
    },
    {
      "midi": 80,
      "time": 181.875,
      "duration": 0.089,
      "velocity": 1,
      "hand": "right"
    },
    {
      "midi": 51,
      "time": 181.964,
      "duration": 0.089,
      "velocity": 1,
      "hand": "left"
    },
    {
      "midi": 83,
      "time": 181.964,
      "duration": 0.089,
      "velocity": 1,
      "hand": "right"
    },
    {
      "midi": 56,
      "time": 182.054,
      "duration": 0.089,
      "velocity": 1,
      "hand": "left"
    },
    {
      "midi": 74,
      "time": 182.054,
      "duration": 0.089,
      "velocity": 1,
      "hand": "right"
    },
    {
      "midi": 59,
      "time": 182.143,
      "duration": 0.089,
      "velocity": 1,
      "hand": "left"
    },
    {
      "midi": 76,
      "time": 182.143,
      "duration": 0.089,
      "velocity": 1,
      "hand": "right"
    },
    {
      "midi": 75,
      "time": 182.232,
      "duration": 0.089,
      "velocity": 1,
      "hand": "right"
    },
    {
      "midi": 56,
      "time": 182.321,
      "duration": 0.089,
      "velocity": 1,
      "hand": "left"
    },
    {
      "midi": 80,
      "time": 182.321,
      "duration": 0.089,
      "velocity": 1,
      "hand": "right"
    },
    {
      "midi": 51,
      "time": 182.411,
      "duration": 0.089,
      "velocity": 1,
      "hand": "left"
    },
    {
      "midi": 70,
      "time": 182.411,
      "duration": 0.089,
      "velocity": 1,
      "hand": "right"
    },
    {
      "midi": 44,
      "time": 182.5,
      "duration": 0.089,
      "velocity": 1,
      "hand": "left"
    },
    {
      "midi": 73,
      "time": 182.5,
      "duration": 0.089,
      "velocity": 1,
      "hand": "right"
    },
    {
      "midi": 71,
      "time": 182.589,
      "duration": 0.089,
      "velocity": 1,
      "hand": "right"
    },
    {
      "midi": 51,
      "time": 182.679,
      "duration": 0.089,
      "velocity": 1,
      "hand": "left"
    },
    {
      "midi": 75,
      "time": 182.679,
      "duration": 0.089,
      "velocity": 1,
      "hand": "right"
    },
    {
      "midi": 56,
      "time": 182.768,
      "duration": 0.089,
      "velocity": 1,
      "hand": "left"
    },
    {
      "midi": 67,
      "time": 182.768,
      "duration": 0.089,
      "velocity": 1,
      "hand": "right"
    },
    {
      "midi": 59,
      "time": 182.857,
      "duration": 0.089,
      "velocity": 1,
      "hand": "left"
    },
    {
      "midi": 70,
      "time": 182.857,
      "duration": 0.089,
      "velocity": 1,
      "hand": "right"
    },
    {
      "midi": 68,
      "time": 182.946,
      "duration": 0.089,
      "velocity": 1,
      "hand": "right"
    },
    {
      "midi": 56,
      "time": 183.036,
      "duration": 0.089,
      "velocity": 1,
      "hand": "left"
    },
    {
      "midi": 67,
      "time": 183.036,
      "duration": 0.089,
      "velocity": 1,
      "hand": "right"
    },
    {
      "midi": 51,
      "time": 183.125,
      "duration": 0.089,
      "velocity": 1,
      "hand": "left"
    },
    {
      "midi": 68,
      "time": 183.125,
      "duration": 0.089,
      "velocity": 1,
      "hand": "right"
    },
    {
      "midi": 45,
      "time": 183.214,
      "duration": 0.089,
      "velocity": 1,
      "hand": "left"
    },
    {
      "midi": 68,
      "time": 183.214,
      "duration": 0.089,
      "velocity": 1,
      "hand": "right"
    },
    {
      "midi": 80,
      "time": 183.304,
      "duration": 0.089,
      "velocity": 1,
      "hand": "right"
    },
    {
      "midi": 49,
      "time": 183.393,
      "duration": 0.089,
      "velocity": 1,
      "hand": "left"
    },
    {
      "midi": 72,
      "time": 183.393,
      "duration": 0.089,
      "velocity": 1,
      "hand": "right"
    },
    {
      "midi": 54,
      "time": 183.482,
      "duration": 0.089,
      "velocity": 1,
      "hand": "left"
    },
    {
      "midi": 73,
      "time": 183.482,
      "duration": 0.089,
      "velocity": 1,
      "hand": "right"
    },
    {
      "midi": 57,
      "time": 183.571,
      "duration": 0.089,
      "velocity": 1,
      "hand": "left"
    },
    {
      "midi": 66,
      "time": 183.571,
      "duration": 0.089,
      "velocity": 1,
      "hand": "right"
    },
    {
      "midi": 78,
      "time": 183.661,
      "duration": 0.089,
      "velocity": 1,
      "hand": "right"
    },
    {
      "midi": 54,
      "time": 183.75,
      "duration": 0.089,
      "velocity": 1,
      "hand": "left"
    },
    {
      "midi": 72,
      "time": 183.75,
      "duration": 0.089,
      "velocity": 1,
      "hand": "right"
    },
    {
      "midi": 49,
      "time": 183.839,
      "duration": 0.089,
      "velocity": 1,
      "hand": "left"
    },
    {
      "midi": 73,
      "time": 183.839,
      "duration": 0.089,
      "velocity": 1,
      "hand": "right"
    },
    {
      "midi": 45,
      "time": 183.929,
      "duration": 0.089,
      "velocity": 1,
      "hand": "left"
    },
    {
      "midi": 65,
      "time": 183.929,
      "duration": 0.089,
      "velocity": 1,
      "hand": "right"
    },
    {
      "midi": 77,
      "time": 184.018,
      "duration": 0.089,
      "velocity": 1,
      "hand": "right"
    },
    {
      "midi": 49,
      "time": 184.107,
      "duration": 0.089,
      "velocity": 1,
      "hand": "left"
    },
    {
      "midi": 72,
      "time": 184.107,
      "duration": 0.089,
      "velocity": 1,
      "hand": "right"
    },
    {
      "midi": 54,
      "time": 184.196,
      "duration": 0.089,
      "velocity": 1,
      "hand": "left"
    },
    {
      "midi": 73,
      "time": 184.196,
      "duration": 0.089,
      "velocity": 1,
      "hand": "right"
    },
    {
      "midi": 57,
      "time": 184.286,
      "duration": 0.089,
      "velocity": 1,
      "hand": "left"
    },
    {
      "midi": 66,
      "time": 184.286,
      "duration": 0.089,
      "velocity": 1,
      "hand": "right"
    },
    {
      "midi": 78,
      "time": 184.375,
      "duration": 0.089,
      "velocity": 1,
      "hand": "right"
    },
    {
      "midi": 54,
      "time": 184.464,
      "duration": 0.089,
      "velocity": 1,
      "hand": "left"
    },
    {
      "midi": 72,
      "time": 184.464,
      "duration": 0.089,
      "velocity": 1,
      "hand": "right"
    },
    {
      "midi": 49,
      "time": 184.554,
      "duration": 0.089,
      "velocity": 1,
      "hand": "left"
    },
    {
      "midi": 73,
      "time": 184.554,
      "duration": 0.089,
      "velocity": 1,
      "hand": "right"
    },
    {
      "midi": 47,
      "time": 184.643,
      "duration": 0.089,
      "velocity": 1,
      "hand": "left"
    },
    {
      "midi": 61,
      "time": 184.643,
      "duration": 0.089,
      "velocity": 1,
      "hand": "right"
    },
    {
      "midi": 73,
      "time": 184.732,
      "duration": 0.089,
      "velocity": 1,
      "hand": "right"
    },
    {
      "midi": 54,
      "time": 184.821,
      "duration": 0.089,
      "velocity": 1,
      "hand": "left"
    },
    {
      "midi": 66,
      "time": 184.821,
      "duration": 0.089,
      "velocity": 1,
      "hand": "right"
    },
    {
      "midi": 57,
      "time": 184.911,
      "duration": 0.089,
      "velocity": 1,
      "hand": "left"
    },
    {
      "midi": 69,
      "time": 184.911,
      "duration": 0.089,
      "velocity": 1,
      "hand": "right"
    },
    {
      "midi": 59,
      "time": 185,
      "duration": 0.089,
      "velocity": 1,
      "hand": "left"
    },
    {
      "midi": 63,
      "time": 185,
      "duration": 0.089,
      "velocity": 1,
      "hand": "right"
    },
    {
      "midi": 75,
      "time": 185.089,
      "duration": 0.089,
      "velocity": 1,
      "hand": "right"
    },
    {
      "midi": 57,
      "time": 185.179,
      "duration": 0.089,
      "velocity": 1,
      "hand": "left"
    },
    {
      "midi": 66,
      "time": 185.179,
      "duration": 0.089,
      "velocity": 1,
      "hand": "right"
    },
    {
      "midi": 54,
      "time": 185.268,
      "duration": 0.089,
      "velocity": 1,
      "hand": "left"
    },
    {
      "midi": 69,
      "time": 185.268,
      "duration": 0.089,
      "velocity": 1,
      "hand": "right"
    },
    {
      "midi": 40,
      "time": 185.357,
      "duration": 0.089,
      "velocity": 1,
      "hand": "left"
    },
    {
      "midi": 64,
      "time": 185.357,
      "duration": 0.089,
      "velocity": 1,
      "hand": "right"
    },
    {
      "midi": 76,
      "time": 185.446,
      "duration": 0.089,
      "velocity": 1,
      "hand": "right"
    },
    {
      "midi": 47,
      "time": 185.536,
      "duration": 0.089,
      "velocity": 1,
      "hand": "left"
    },
    {
      "midi": 68,
      "time": 185.536,
      "duration": 0.089,
      "velocity": 1,
      "hand": "right"
    },
    {
      "midi": 52,
      "time": 185.625,
      "duration": 0.089,
      "velocity": 1,
      "hand": "left"
    },
    {
      "midi": 71,
      "time": 185.625,
      "duration": 0.089,
      "velocity": 1,
      "hand": "right"
    },
    {
      "midi": 56,
      "time": 185.714,
      "duration": 0.089,
      "velocity": 1,
      "hand": "left"
    },
    {
      "midi": 68,
      "time": 185.714,
      "duration": 0.089,
      "velocity": 1,
      "hand": "right"
    },
    {
      "midi": 80,
      "time": 185.804,
      "duration": 0.089,
      "velocity": 1,
      "hand": "right"
    },
    {
      "midi": 52,
      "time": 185.893,
      "duration": 0.089,
      "velocity": 1,
      "hand": "left"
    },
    {
      "midi": 71,
      "time": 185.893,
      "duration": 0.089,
      "velocity": 1,
      "hand": "right"
    },
    {
      "midi": 47,
      "time": 185.982,
      "duration": 0.089,
      "velocity": 1,
      "hand": "left"
    },
    {
      "midi": 76,
      "time": 185.982,
      "duration": 0.089,
      "velocity": 1,
      "hand": "right"
    },
    {
      "midi": 45,
      "time": 186.071,
      "duration": 0.089,
      "velocity": 1,
      "hand": "left"
    },
    {
      "midi": 68,
      "time": 186.071,
      "duration": 0.089,
      "velocity": 1,
      "hand": "right"
    },
    {
      "midi": 80,
      "time": 186.161,
      "duration": 0.089,
      "velocity": 1,
      "hand": "right"
    },
    {
      "midi": 49,
      "time": 186.25,
      "duration": 0.089,
      "velocity": 1,
      "hand": "left"
    },
    {
      "midi": 72,
      "time": 186.25,
      "duration": 0.089,
      "velocity": 1,
      "hand": "right"
    },
    {
      "midi": 54,
      "time": 186.339,
      "duration": 0.089,
      "velocity": 1,
      "hand": "left"
    },
    {
      "midi": 73,
      "time": 186.339,
      "duration": 0.089,
      "velocity": 1,
      "hand": "right"
    },
    {
      "midi": 57,
      "time": 186.429,
      "duration": 0.089,
      "velocity": 1,
      "hand": "left"
    },
    {
      "midi": 66,
      "time": 186.429,
      "duration": 0.089,
      "velocity": 1,
      "hand": "right"
    },
    {
      "midi": 78,
      "time": 186.518,
      "duration": 0.089,
      "velocity": 1,
      "hand": "right"
    },
    {
      "midi": 54,
      "time": 186.607,
      "duration": 0.089,
      "velocity": 1,
      "hand": "left"
    },
    {
      "midi": 72,
      "time": 186.607,
      "duration": 0.089,
      "velocity": 1,
      "hand": "right"
    },
    {
      "midi": 49,
      "time": 186.696,
      "duration": 0.089,
      "velocity": 1,
      "hand": "left"
    },
    {
      "midi": 73,
      "time": 186.696,
      "duration": 0.089,
      "velocity": 1,
      "hand": "right"
    },
    {
      "midi": 45,
      "time": 186.786,
      "duration": 0.089,
      "velocity": 1,
      "hand": "left"
    },
    {
      "midi": 65,
      "time": 186.786,
      "duration": 0.089,
      "velocity": 1,
      "hand": "right"
    },
    {
      "midi": 77,
      "time": 186.875,
      "duration": 0.089,
      "velocity": 1,
      "hand": "right"
    },
    {
      "midi": 49,
      "time": 186.964,
      "duration": 0.089,
      "velocity": 1,
      "hand": "left"
    },
    {
      "midi": 72,
      "time": 186.964,
      "duration": 0.089,
      "velocity": 1,
      "hand": "right"
    },
    {
      "midi": 54,
      "time": 187.054,
      "duration": 0.089,
      "velocity": 1,
      "hand": "left"
    },
    {
      "midi": 73,
      "time": 187.054,
      "duration": 0.089,
      "velocity": 1,
      "hand": "right"
    },
    {
      "midi": 57,
      "time": 187.143,
      "duration": 0.089,
      "velocity": 1,
      "hand": "left"
    },
    {
      "midi": 66,
      "time": 187.143,
      "duration": 0.089,
      "velocity": 1,
      "hand": "right"
    },
    {
      "midi": 78,
      "time": 187.232,
      "duration": 0.089,
      "velocity": 1,
      "hand": "right"
    },
    {
      "midi": 54,
      "time": 187.321,
      "duration": 0.089,
      "velocity": 1,
      "hand": "left"
    },
    {
      "midi": 72,
      "time": 187.321,
      "duration": 0.089,
      "velocity": 1,
      "hand": "right"
    },
    {
      "midi": 49,
      "time": 187.411,
      "duration": 0.089,
      "velocity": 1,
      "hand": "left"
    },
    {
      "midi": 73,
      "time": 187.411,
      "duration": 0.089,
      "velocity": 1,
      "hand": "right"
    },
    {
      "midi": 47,
      "time": 187.5,
      "duration": 0.089,
      "velocity": 1,
      "hand": "left"
    },
    {
      "midi": 65,
      "time": 187.5,
      "duration": 0.089,
      "velocity": 1,
      "hand": "right"
    },
    {
      "midi": 77,
      "time": 187.589,
      "duration": 0.089,
      "velocity": 1,
      "hand": "right"
    },
    {
      "midi": 54,
      "time": 187.679,
      "duration": 0.089,
      "velocity": 1,
      "hand": "left"
    },
    {
      "midi": 71,
      "time": 187.679,
      "duration": 0.089,
      "velocity": 1,
      "hand": "right"
    },
    {
      "midi": 57,
      "time": 187.768,
      "duration": 0.089,
      "velocity": 1,
      "hand": "left"
    },
    {
      "midi": 75,
      "time": 187.768,
      "duration": 0.089,
      "velocity": 1,
      "hand": "right"
    },
    {
      "midi": 59,
      "time": 187.857,
      "duration": 0.089,
      "velocity": 1,
      "hand": "left"
    },
    {
      "midi": 66,
      "time": 187.857,
      "duration": 0.089,
      "velocity": 1,
      "hand": "right"
    },
    {
      "midi": 78,
      "time": 187.946,
      "duration": 0.089,
      "velocity": 1,
      "hand": "right"
    },
    {
      "midi": 57,
      "time": 188.036,
      "duration": 0.089,
      "velocity": 1,
      "hand": "left"
    },
    {
      "midi": 71,
      "time": 188.036,
      "duration": 0.089,
      "velocity": 1,
      "hand": "right"
    },
    {
      "midi": 54,
      "time": 188.125,
      "duration": 0.089,
      "velocity": 1,
      "hand": "left"
    },
    {
      "midi": 75,
      "time": 188.125,
      "duration": 0.089,
      "velocity": 1,
      "hand": "right"
    },
    {
      "midi": 40,
      "time": 188.214,
      "duration": 0.089,
      "velocity": 1,
      "hand": "left"
    },
    {
      "midi": 69,
      "time": 188.214,
      "duration": 0.089,
      "velocity": 1,
      "hand": "right"
    },
    {
      "midi": 81,
      "time": 188.304,
      "duration": 0.089,
      "velocity": 1,
      "hand": "right"
    },
    {
      "midi": 47,
      "time": 188.393,
      "duration": 0.089,
      "velocity": 1,
      "hand": "left"
    },
    {
      "midi": 71,
      "time": 188.393,
      "duration": 0.089,
      "velocity": 1,
      "hand": "right"
    },
    {
      "midi": 52,
      "time": 188.482,
      "duration": 0.089,
      "velocity": 1,
      "hand": "left"
    },
    {
      "midi": 76,
      "time": 188.482,
      "duration": 0.089,
      "velocity": 1,
      "hand": "right"
    },
    {
      "midi": 56,
      "time": 188.571,
      "duration": 0.089,
      "velocity": 1,
      "hand": "left"
    },
    {
      "midi": 68,
      "time": 188.571,
      "duration": 0.089,
      "velocity": 1,
      "hand": "right"
    },
    {
      "midi": 80,
      "time": 188.661,
      "duration": 0.089,
      "velocity": 1,
      "hand": "right"
    },
    {
      "midi": 52,
      "time": 188.75,
      "duration": 0.089,
      "velocity": 1,
      "hand": "left"
    },
    {
      "midi": 71,
      "time": 188.75,
      "duration": 0.089,
      "velocity": 1,
      "hand": "right"
    },
    {
      "midi": 47,
      "time": 188.839,
      "duration": 0.089,
      "velocity": 1,
      "hand": "left"
    },
    {
      "midi": 76,
      "time": 188.839,
      "duration": 0.089,
      "velocity": 1,
      "hand": "right"
    },
    {
      "midi": 45,
      "time": 188.929,
      "duration": 0.089,
      "velocity": 1,
      "hand": "left"
    },
    {
      "midi": 68,
      "time": 188.929,
      "duration": 0.089,
      "velocity": 1,
      "hand": "right"
    },
    {
      "midi": 80,
      "time": 189.018,
      "duration": 0.089,
      "velocity": 1,
      "hand": "right"
    },
    {
      "midi": 49,
      "time": 189.107,
      "duration": 0.089,
      "velocity": 1,
      "hand": "left"
    },
    {
      "midi": 72,
      "time": 189.107,
      "duration": 0.089,
      "velocity": 1,
      "hand": "right"
    },
    {
      "midi": 54,
      "time": 189.196,
      "duration": 0.089,
      "velocity": 1,
      "hand": "left"
    },
    {
      "midi": 73,
      "time": 189.196,
      "duration": 0.089,
      "velocity": 1,
      "hand": "right"
    },
    {
      "midi": 57,
      "time": 189.286,
      "duration": 0.089,
      "velocity": 1,
      "hand": "left"
    },
    {
      "midi": 66,
      "time": 189.286,
      "duration": 0.089,
      "velocity": 1,
      "hand": "right"
    },
    {
      "midi": 78,
      "time": 189.375,
      "duration": 0.089,
      "velocity": 1,
      "hand": "right"
    },
    {
      "midi": 54,
      "time": 189.464,
      "duration": 0.089,
      "velocity": 1,
      "hand": "left"
    },
    {
      "midi": 72,
      "time": 189.464,
      "duration": 0.089,
      "velocity": 1,
      "hand": "right"
    },
    {
      "midi": 49,
      "time": 189.554,
      "duration": 0.089,
      "velocity": 1,
      "hand": "left"
    },
    {
      "midi": 73,
      "time": 189.554,
      "duration": 0.089,
      "velocity": 1,
      "hand": "right"
    },
    {
      "midi": 45,
      "time": 189.643,
      "duration": 0.089,
      "velocity": 1,
      "hand": "left"
    },
    {
      "midi": 65,
      "time": 189.643,
      "duration": 0.089,
      "velocity": 1,
      "hand": "right"
    },
    {
      "midi": 77,
      "time": 189.732,
      "duration": 0.089,
      "velocity": 1,
      "hand": "right"
    },
    {
      "midi": 49,
      "time": 189.821,
      "duration": 0.089,
      "velocity": 1,
      "hand": "left"
    },
    {
      "midi": 72,
      "time": 189.821,
      "duration": 0.089,
      "velocity": 1,
      "hand": "right"
    },
    {
      "midi": 54,
      "time": 189.911,
      "duration": 0.089,
      "velocity": 1,
      "hand": "left"
    },
    {
      "midi": 73,
      "time": 189.911,
      "duration": 0.089,
      "velocity": 1,
      "hand": "right"
    },
    {
      "midi": 57,
      "time": 190,
      "duration": 0.089,
      "velocity": 1,
      "hand": "left"
    },
    {
      "midi": 66,
      "time": 190,
      "duration": 0.089,
      "velocity": 1,
      "hand": "right"
    },
    {
      "midi": 78,
      "time": 190.089,
      "duration": 0.089,
      "velocity": 1,
      "hand": "right"
    },
    {
      "midi": 54,
      "time": 190.179,
      "duration": 0.089,
      "velocity": 1,
      "hand": "left"
    },
    {
      "midi": 72,
      "time": 190.179,
      "duration": 0.089,
      "velocity": 1,
      "hand": "right"
    },
    {
      "midi": 49,
      "time": 190.268,
      "duration": 0.089,
      "velocity": 1,
      "hand": "left"
    },
    {
      "midi": 73,
      "time": 190.268,
      "duration": 0.089,
      "velocity": 1,
      "hand": "right"
    },
    {
      "midi": 47,
      "time": 190.357,
      "duration": 0.089,
      "velocity": 1,
      "hand": "left"
    },
    {
      "midi": 61,
      "time": 190.357,
      "duration": 0.089,
      "velocity": 1,
      "hand": "right"
    },
    {
      "midi": 73,
      "time": 190.446,
      "duration": 0.089,
      "velocity": 1,
      "hand": "right"
    },
    {
      "midi": 54,
      "time": 190.536,
      "duration": 0.089,
      "velocity": 1,
      "hand": "left"
    },
    {
      "midi": 66,
      "time": 190.536,
      "duration": 0.089,
      "velocity": 1,
      "hand": "right"
    },
    {
      "midi": 57,
      "time": 190.625,
      "duration": 0.089,
      "velocity": 1,
      "hand": "left"
    },
    {
      "midi": 69,
      "time": 190.625,
      "duration": 0.089,
      "velocity": 1,
      "hand": "right"
    },
    {
      "midi": 59,
      "time": 190.714,
      "duration": 0.089,
      "velocity": 1,
      "hand": "left"
    },
    {
      "midi": 63,
      "time": 190.714,
      "duration": 0.089,
      "velocity": 1,
      "hand": "right"
    },
    {
      "midi": 75,
      "time": 190.804,
      "duration": 0.089,
      "velocity": 1,
      "hand": "right"
    },
    {
      "midi": 57,
      "time": 190.893,
      "duration": 0.089,
      "velocity": 1,
      "hand": "left"
    },
    {
      "midi": 66,
      "time": 190.893,
      "duration": 0.089,
      "velocity": 1,
      "hand": "right"
    },
    {
      "midi": 54,
      "time": 190.982,
      "duration": 0.089,
      "velocity": 1,
      "hand": "left"
    },
    {
      "midi": 69,
      "time": 190.982,
      "duration": 0.089,
      "velocity": 1,
      "hand": "right"
    },
    {
      "midi": 40,
      "time": 191.071,
      "duration": 0.089,
      "velocity": 1,
      "hand": "left"
    },
    {
      "midi": 64,
      "time": 191.071,
      "duration": 0.089,
      "velocity": 1,
      "hand": "right"
    },
    {
      "midi": 76,
      "time": 191.161,
      "duration": 0.089,
      "velocity": 1,
      "hand": "right"
    },
    {
      "midi": 47,
      "time": 191.25,
      "duration": 0.089,
      "velocity": 1,
      "hand": "left"
    },
    {
      "midi": 68,
      "time": 191.25,
      "duration": 0.089,
      "velocity": 1,
      "hand": "right"
    },
    {
      "midi": 52,
      "time": 191.339,
      "duration": 0.089,
      "velocity": 1,
      "hand": "left"
    },
    {
      "midi": 71,
      "time": 191.339,
      "duration": 0.089,
      "velocity": 1,
      "hand": "right"
    },
    {
      "midi": 56,
      "time": 191.429,
      "duration": 0.089,
      "velocity": 1,
      "hand": "left"
    },
    {
      "midi": 68,
      "time": 191.429,
      "duration": 0.089,
      "velocity": 1,
      "hand": "right"
    },
    {
      "midi": 80,
      "time": 191.518,
      "duration": 0.089,
      "velocity": 1,
      "hand": "right"
    },
    {
      "midi": 52,
      "time": 191.607,
      "duration": 0.089,
      "velocity": 1,
      "hand": "left"
    },
    {
      "midi": 71,
      "time": 191.607,
      "duration": 0.089,
      "velocity": 1,
      "hand": "right"
    },
    {
      "midi": 47,
      "time": 191.696,
      "duration": 0.089,
      "velocity": 1,
      "hand": "left"
    },
    {
      "midi": 76,
      "time": 191.696,
      "duration": 0.089,
      "velocity": 1,
      "hand": "right"
    },
    {
      "midi": 45,
      "time": 191.786,
      "duration": 0.089,
      "velocity": 1,
      "hand": "left"
    },
    {
      "midi": 68,
      "time": 191.786,
      "duration": 0.089,
      "velocity": 1,
      "hand": "right"
    },
    {
      "midi": 80,
      "time": 191.875,
      "duration": 0.089,
      "velocity": 1,
      "hand": "right"
    },
    {
      "midi": 49,
      "time": 191.964,
      "duration": 0.089,
      "velocity": 1,
      "hand": "left"
    },
    {
      "midi": 72,
      "time": 191.964,
      "duration": 0.089,
      "velocity": 1,
      "hand": "right"
    },
    {
      "midi": 54,
      "time": 192.054,
      "duration": 0.089,
      "velocity": 1,
      "hand": "left"
    },
    {
      "midi": 73,
      "time": 192.054,
      "duration": 0.089,
      "velocity": 1,
      "hand": "right"
    },
    {
      "midi": 57,
      "time": 192.143,
      "duration": 0.089,
      "velocity": 1,
      "hand": "left"
    },
    {
      "midi": 66,
      "time": 192.143,
      "duration": 0.089,
      "velocity": 1,
      "hand": "right"
    },
    {
      "midi": 78,
      "time": 192.232,
      "duration": 0.089,
      "velocity": 1,
      "hand": "right"
    },
    {
      "midi": 54,
      "time": 192.321,
      "duration": 0.089,
      "velocity": 1,
      "hand": "left"
    },
    {
      "midi": 72,
      "time": 192.321,
      "duration": 0.089,
      "velocity": 1,
      "hand": "right"
    },
    {
      "midi": 49,
      "time": 192.411,
      "duration": 0.089,
      "velocity": 1,
      "hand": "left"
    },
    {
      "midi": 73,
      "time": 192.411,
      "duration": 0.089,
      "velocity": 1,
      "hand": "right"
    },
    {
      "midi": 45,
      "time": 192.5,
      "duration": 0.089,
      "velocity": 1,
      "hand": "left"
    },
    {
      "midi": 75,
      "time": 192.5,
      "duration": 0.089,
      "velocity": 1,
      "hand": "right"
    },
    {
      "midi": 87,
      "time": 192.589,
      "duration": 0.089,
      "velocity": 1,
      "hand": "right"
    },
    {
      "midi": 51,
      "time": 192.679,
      "duration": 0.089,
      "velocity": 1,
      "hand": "left"
    },
    {
      "midi": 78,
      "time": 192.679,
      "duration": 0.089,
      "velocity": 1,
      "hand": "right"
    },
    {
      "midi": 54,
      "time": 192.768,
      "duration": 0.089,
      "velocity": 1,
      "hand": "left"
    },
    {
      "midi": 81,
      "time": 192.768,
      "duration": 0.089,
      "velocity": 1,
      "hand": "right"
    },
    {
      "midi": 57,
      "time": 192.857,
      "duration": 0.089,
      "velocity": 1,
      "hand": "left"
    },
    {
      "midi": 73,
      "time": 192.857,
      "duration": 0.089,
      "velocity": 1,
      "hand": "right"
    },
    {
      "midi": 85,
      "time": 192.946,
      "duration": 0.089,
      "velocity": 1,
      "hand": "right"
    },
    {
      "midi": 54,
      "time": 193.036,
      "duration": 0.089,
      "velocity": 1,
      "hand": "left"
    },
    {
      "midi": 78,
      "time": 193.036,
      "duration": 0.089,
      "velocity": 1,
      "hand": "right"
    },
    {
      "midi": 51,
      "time": 193.125,
      "duration": 0.089,
      "velocity": 1,
      "hand": "left"
    },
    {
      "midi": 81,
      "time": 193.125,
      "duration": 0.089,
      "velocity": 1,
      "hand": "right"
    },
    {
      "midi": 44,
      "time": 193.214,
      "duration": 0.089,
      "velocity": 1,
      "hand": "left"
    },
    {
      "midi": 73,
      "time": 193.214,
      "duration": 0.089,
      "velocity": 1,
      "hand": "right"
    },
    {
      "midi": 85,
      "time": 193.304,
      "duration": 0.089,
      "velocity": 1,
      "hand": "right"
    },
    {
      "midi": 51,
      "time": 193.393,
      "duration": 0.089,
      "velocity": 1,
      "hand": "left"
    },
    {
      "midi": 75,
      "time": 193.393,
      "duration": 0.089,
      "velocity": 1,
      "hand": "right"
    },
    {
      "midi": 54,
      "time": 193.482,
      "duration": 0.089,
      "velocity": 1,
      "hand": "left"
    },
    {
      "midi": 78,
      "time": 193.482,
      "duration": 0.089,
      "velocity": 1,
      "hand": "right"
    },
    {
      "midi": 60,
      "time": 193.571,
      "duration": 0.089,
      "velocity": 1,
      "hand": "right"
    },
    {
      "midi": 72,
      "time": 193.571,
      "duration": 0.089,
      "velocity": 1,
      "hand": "right"
    },
    {
      "midi": 84,
      "time": 193.661,
      "duration": 0.089,
      "velocity": 1,
      "hand": "right"
    },
    {
      "midi": 54,
      "time": 193.75,
      "duration": 0.089,
      "velocity": 1,
      "hand": "left"
    },
    {
      "midi": 75,
      "time": 193.75,
      "duration": 0.089,
      "velocity": 1,
      "hand": "right"
    },
    {
      "midi": 51,
      "time": 193.839,
      "duration": 0.089,
      "velocity": 1,
      "hand": "left"
    },
    {
      "midi": 78,
      "time": 193.839,
      "duration": 0.089,
      "velocity": 1,
      "hand": "right"
    },
    {
      "midi": 44,
      "time": 193.929,
      "duration": 0.089,
      "velocity": 1,
      "hand": "left"
    },
    {
      "midi": 72,
      "time": 193.929,
      "duration": 0.089,
      "velocity": 1,
      "hand": "right"
    },
    {
      "midi": 84,
      "time": 194.018,
      "duration": 0.089,
      "velocity": 1,
      "hand": "right"
    },
    {
      "midi": 51,
      "time": 194.107,
      "duration": 0.089,
      "velocity": 1,
      "hand": "left"
    },
    {
      "midi": 75,
      "time": 194.107,
      "duration": 0.089,
      "velocity": 1,
      "hand": "right"
    },
    {
      "midi": 54,
      "time": 194.196,
      "duration": 0.089,
      "velocity": 1,
      "hand": "left"
    },
    {
      "midi": 78,
      "time": 194.196,
      "duration": 0.089,
      "velocity": 1,
      "hand": "right"
    },
    {
      "midi": 60,
      "time": 194.286,
      "duration": 0.089,
      "velocity": 1,
      "hand": "right"
    },
    {
      "midi": 72,
      "time": 194.286,
      "duration": 0.089,
      "velocity": 1,
      "hand": "right"
    },
    {
      "midi": 84,
      "time": 194.375,
      "duration": 0.089,
      "velocity": 1,
      "hand": "right"
    },
    {
      "midi": 54,
      "time": 194.464,
      "duration": 0.089,
      "velocity": 1,
      "hand": "left"
    },
    {
      "midi": 75,
      "time": 194.464,
      "duration": 0.089,
      "velocity": 1,
      "hand": "right"
    },
    {
      "midi": 51,
      "time": 194.554,
      "duration": 0.089,
      "velocity": 1,
      "hand": "left"
    },
    {
      "midi": 78,
      "time": 194.554,
      "duration": 0.089,
      "velocity": 1,
      "hand": "right"
    },
    {
      "midi": 45,
      "time": 194.643,
      "duration": 0.089,
      "velocity": 1,
      "hand": "left"
    },
    {
      "midi": 72,
      "time": 194.643,
      "duration": 0.089,
      "velocity": 1,
      "hand": "right"
    },
    {
      "midi": 84,
      "time": 194.732,
      "duration": 0.089,
      "velocity": 1,
      "hand": "right"
    },
    {
      "midi": 51,
      "time": 194.821,
      "duration": 0.089,
      "velocity": 1,
      "hand": "left"
    },
    {
      "midi": 75,
      "time": 194.821,
      "duration": 0.089,
      "velocity": 1,
      "hand": "right"
    },
    {
      "midi": 54,
      "time": 194.911,
      "duration": 0.089,
      "velocity": 1,
      "hand": "left"
    },
    {
      "midi": 78,
      "time": 194.911,
      "duration": 0.089,
      "velocity": 1,
      "hand": "right"
    },
    {
      "midi": 59,
      "time": 195,
      "duration": 0.089,
      "velocity": 1,
      "hand": "left"
    },
    {
      "midi": 71,
      "time": 195,
      "duration": 0.089,
      "velocity": 1,
      "hand": "right"
    },
    {
      "midi": 83,
      "time": 195.089,
      "duration": 0.089,
      "velocity": 1,
      "hand": "right"
    },
    {
      "midi": 54,
      "time": 195.179,
      "duration": 0.089,
      "velocity": 1,
      "hand": "left"
    },
    {
      "midi": 75,
      "time": 195.179,
      "duration": 0.089,
      "velocity": 1,
      "hand": "right"
    },
    {
      "midi": 51,
      "time": 195.268,
      "duration": 0.089,
      "velocity": 1,
      "hand": "left"
    },
    {
      "midi": 78,
      "time": 195.268,
      "duration": 0.089,
      "velocity": 1,
      "hand": "right"
    },
    {
      "midi": 46,
      "time": 195.357,
      "duration": 0.089,
      "velocity": 1,
      "hand": "left"
    },
    {
      "midi": 71,
      "time": 195.357,
      "duration": 0.089,
      "velocity": 1,
      "hand": "right"
    },
    {
      "midi": 83,
      "time": 195.446,
      "duration": 0.089,
      "velocity": 1,
      "hand": "right"
    },
    {
      "midi": 51,
      "time": 195.536,
      "duration": 0.089,
      "velocity": 1,
      "hand": "left"
    },
    {
      "midi": 75,
      "time": 195.536,
      "duration": 0.089,
      "velocity": 1,
      "hand": "right"
    },
    {
      "midi": 54,
      "time": 195.625,
      "duration": 0.089,
      "velocity": 1,
      "hand": "left"
    },
    {
      "midi": 78,
      "time": 195.625,
      "duration": 0.089,
      "velocity": 1,
      "hand": "right"
    },
    {
      "midi": 58,
      "time": 195.714,
      "duration": 0.089,
      "velocity": 1,
      "hand": "left"
    },
    {
      "midi": 70,
      "time": 195.714,
      "duration": 0.089,
      "velocity": 1,
      "hand": "right"
    },
    {
      "midi": 82,
      "time": 195.804,
      "duration": 0.089,
      "velocity": 1,
      "hand": "right"
    },
    {
      "midi": 54,
      "time": 195.893,
      "duration": 0.089,
      "velocity": 1,
      "hand": "left"
    },
    {
      "midi": 75,
      "time": 195.893,
      "duration": 0.089,
      "velocity": 1,
      "hand": "right"
    },
    {
      "midi": 51,
      "time": 195.982,
      "duration": 0.089,
      "velocity": 1,
      "hand": "left"
    },
    {
      "midi": 78,
      "time": 195.982,
      "duration": 0.089,
      "velocity": 1,
      "hand": "right"
    },
    {
      "midi": 48,
      "time": 196.071,
      "duration": 0.089,
      "velocity": 1,
      "hand": "left"
    },
    {
      "midi": 70,
      "time": 196.071,
      "duration": 0.089,
      "velocity": 1,
      "hand": "right"
    },
    {
      "midi": 82,
      "time": 196.161,
      "duration": 0.089,
      "velocity": 1,
      "hand": "right"
    },
    {
      "midi": 51,
      "time": 196.25,
      "duration": 0.089,
      "velocity": 1,
      "hand": "left"
    },
    {
      "midi": 75,
      "time": 196.25,
      "duration": 0.089,
      "velocity": 1,
      "hand": "right"
    },
    {
      "midi": 54,
      "time": 196.339,
      "duration": 0.089,
      "velocity": 1,
      "hand": "left"
    },
    {
      "midi": 78,
      "time": 196.339,
      "duration": 0.089,
      "velocity": 1,
      "hand": "right"
    },
    {
      "midi": 57,
      "time": 196.429,
      "duration": 0.089,
      "velocity": 1,
      "hand": "left"
    },
    {
      "midi": 69,
      "time": 196.429,
      "duration": 0.089,
      "velocity": 1,
      "hand": "right"
    },
    {
      "midi": 81,
      "time": 196.518,
      "duration": 0.089,
      "velocity": 1,
      "hand": "right"
    },
    {
      "midi": 54,
      "time": 196.607,
      "duration": 0.089,
      "velocity": 1,
      "hand": "left"
    },
    {
      "midi": 75,
      "time": 196.607,
      "duration": 0.089,
      "velocity": 1,
      "hand": "right"
    },
    {
      "midi": 51,
      "time": 196.696,
      "duration": 0.089,
      "velocity": 1,
      "hand": "left"
    },
    {
      "midi": 78,
      "time": 196.696,
      "duration": 0.089,
      "velocity": 1,
      "hand": "right"
    },
    {
      "midi": 48,
      "time": 196.786,
      "duration": 0.089,
      "velocity": 1,
      "hand": "left"
    },
    {
      "midi": 69,
      "time": 196.786,
      "duration": 0.089,
      "velocity": 1,
      "hand": "right"
    },
    {
      "midi": 81,
      "time": 196.875,
      "duration": 0.089,
      "velocity": 1,
      "hand": "right"
    },
    {
      "midi": 51,
      "time": 196.964,
      "duration": 0.089,
      "velocity": 1,
      "hand": "left"
    },
    {
      "midi": 75,
      "time": 196.964,
      "duration": 0.089,
      "velocity": 1,
      "hand": "right"
    },
    {
      "midi": 54,
      "time": 197.054,
      "duration": 0.089,
      "velocity": 1,
      "hand": "left"
    },
    {
      "midi": 78,
      "time": 197.054,
      "duration": 0.089,
      "velocity": 1,
      "hand": "right"
    },
    {
      "midi": 57,
      "time": 197.143,
      "duration": 0.089,
      "velocity": 1,
      "hand": "left"
    },
    {
      "midi": 69,
      "time": 197.143,
      "duration": 0.089,
      "velocity": 1,
      "hand": "right"
    },
    {
      "midi": 81,
      "time": 197.232,
      "duration": 0.089,
      "velocity": 1,
      "hand": "right"
    },
    {
      "midi": 54,
      "time": 197.321,
      "duration": 0.089,
      "velocity": 1,
      "hand": "left"
    },
    {
      "midi": 75,
      "time": 197.321,
      "duration": 0.089,
      "velocity": 1,
      "hand": "right"
    },
    {
      "midi": 51,
      "time": 197.411,
      "duration": 0.089,
      "velocity": 1,
      "hand": "left"
    },
    {
      "midi": 78,
      "time": 197.411,
      "duration": 0.089,
      "velocity": 1,
      "hand": "right"
    },
    {
      "midi": 45,
      "time": 197.5,
      "duration": 0.089,
      "velocity": 1,
      "hand": "left"
    },
    {
      "midi": 72,
      "time": 197.5,
      "duration": 0.089,
      "velocity": 1,
      "hand": "right"
    },
    {
      "midi": 84,
      "time": 197.589,
      "duration": 0.089,
      "velocity": 1,
      "hand": "right"
    },
    {
      "midi": 51,
      "time": 197.679,
      "duration": 0.089,
      "velocity": 1,
      "hand": "left"
    },
    {
      "midi": 75,
      "time": 197.679,
      "duration": 0.089,
      "velocity": 1,
      "hand": "right"
    },
    {
      "midi": 54,
      "time": 197.768,
      "duration": 0.089,
      "velocity": 1,
      "hand": "left"
    },
    {
      "midi": 78,
      "time": 197.768,
      "duration": 0.089,
      "velocity": 1,
      "hand": "right"
    },
    {
      "midi": 59,
      "time": 197.857,
      "duration": 0.089,
      "velocity": 1,
      "hand": "left"
    },
    {
      "midi": 71,
      "time": 197.857,
      "duration": 0.089,
      "velocity": 1,
      "hand": "right"
    },
    {
      "midi": 83,
      "time": 197.946,
      "duration": 0.089,
      "velocity": 1,
      "hand": "right"
    },
    {
      "midi": 54,
      "time": 198.036,
      "duration": 0.089,
      "velocity": 1,
      "hand": "left"
    },
    {
      "midi": 75,
      "time": 198.036,
      "duration": 0.089,
      "velocity": 1,
      "hand": "right"
    },
    {
      "midi": 51,
      "time": 198.125,
      "duration": 0.089,
      "velocity": 1,
      "hand": "left"
    },
    {
      "midi": 78,
      "time": 198.125,
      "duration": 0.089,
      "velocity": 1,
      "hand": "right"
    },
    {
      "midi": 46,
      "time": 198.214,
      "duration": 0.089,
      "velocity": 1,
      "hand": "left"
    },
    {
      "midi": 71,
      "time": 198.214,
      "duration": 0.089,
      "velocity": 1,
      "hand": "right"
    },
    {
      "midi": 83,
      "time": 198.304,
      "duration": 0.089,
      "velocity": 1,
      "hand": "right"
    },
    {
      "midi": 51,
      "time": 198.393,
      "duration": 0.089,
      "velocity": 1,
      "hand": "left"
    },
    {
      "midi": 75,
      "time": 198.393,
      "duration": 0.089,
      "velocity": 1,
      "hand": "right"
    },
    {
      "midi": 54,
      "time": 198.482,
      "duration": 0.089,
      "velocity": 1,
      "hand": "left"
    },
    {
      "midi": 78,
      "time": 198.482,
      "duration": 0.089,
      "velocity": 1,
      "hand": "right"
    },
    {
      "midi": 58,
      "time": 198.571,
      "duration": 0.089,
      "velocity": 1,
      "hand": "left"
    },
    {
      "midi": 70,
      "time": 198.571,
      "duration": 0.089,
      "velocity": 1,
      "hand": "right"
    },
    {
      "midi": 82,
      "time": 198.661,
      "duration": 0.089,
      "velocity": 1,
      "hand": "right"
    },
    {
      "midi": 54,
      "time": 198.75,
      "duration": 0.089,
      "velocity": 1,
      "hand": "left"
    },
    {
      "midi": 75,
      "time": 198.75,
      "duration": 0.089,
      "velocity": 1,
      "hand": "right"
    },
    {
      "midi": 51,
      "time": 198.839,
      "duration": 0.089,
      "velocity": 1,
      "hand": "left"
    },
    {
      "midi": 78,
      "time": 198.839,
      "duration": 0.089,
      "velocity": 1,
      "hand": "right"
    },
    {
      "midi": 47,
      "time": 198.929,
      "duration": 0.089,
      "velocity": 1,
      "hand": "left"
    },
    {
      "midi": 70,
      "time": 198.929,
      "duration": 0.089,
      "velocity": 1,
      "hand": "right"
    },
    {
      "midi": 82,
      "time": 199.018,
      "duration": 0.089,
      "velocity": 1,
      "hand": "right"
    },
    {
      "midi": 51,
      "time": 199.107,
      "duration": 0.089,
      "velocity": 1,
      "hand": "left"
    },
    {
      "midi": 75,
      "time": 199.107,
      "duration": 0.089,
      "velocity": 1,
      "hand": "right"
    },
    {
      "midi": 54,
      "time": 199.196,
      "duration": 0.089,
      "velocity": 1,
      "hand": "left"
    },
    {
      "midi": 78,
      "time": 199.196,
      "duration": 0.089,
      "velocity": 1,
      "hand": "right"
    },
    {
      "midi": 57,
      "time": 199.286,
      "duration": 0.089,
      "velocity": 1,
      "hand": "left"
    },
    {
      "midi": 69,
      "time": 199.286,
      "duration": 0.089,
      "velocity": 1,
      "hand": "right"
    },
    {
      "midi": 81,
      "time": 199.375,
      "duration": 0.089,
      "velocity": 1,
      "hand": "right"
    },
    {
      "midi": 54,
      "time": 199.464,
      "duration": 0.089,
      "velocity": 1,
      "hand": "left"
    },
    {
      "midi": 75,
      "time": 199.464,
      "duration": 0.089,
      "velocity": 1,
      "hand": "right"
    },
    {
      "midi": 51,
      "time": 199.554,
      "duration": 0.089,
      "velocity": 1,
      "hand": "left"
    },
    {
      "midi": 78,
      "time": 199.554,
      "duration": 0.089,
      "velocity": 1,
      "hand": "right"
    },
    {
      "midi": 48,
      "time": 199.643,
      "duration": 0.089,
      "velocity": 1,
      "hand": "left"
    },
    {
      "midi": 69,
      "time": 199.643,
      "duration": 0.089,
      "velocity": 1,
      "hand": "right"
    },
    {
      "midi": 81,
      "time": 199.732,
      "duration": 0.089,
      "velocity": 1,
      "hand": "right"
    },
    {
      "midi": 51,
      "time": 199.821,
      "duration": 0.089,
      "velocity": 1,
      "hand": "left"
    },
    {
      "midi": 75,
      "time": 199.821,
      "duration": 0.089,
      "velocity": 1,
      "hand": "right"
    },
    {
      "midi": 54,
      "time": 199.911,
      "duration": 0.089,
      "velocity": 1,
      "hand": "left"
    },
    {
      "midi": 78,
      "time": 199.911,
      "duration": 0.089,
      "velocity": 1,
      "hand": "right"
    },
    {
      "midi": 56,
      "time": 200,
      "duration": 0.089,
      "velocity": 1,
      "hand": "left"
    },
    {
      "midi": 68,
      "time": 200,
      "duration": 0.089,
      "velocity": 1,
      "hand": "right"
    },
    {
      "midi": 80,
      "time": 200.089,
      "duration": 0.089,
      "velocity": 1,
      "hand": "right"
    },
    {
      "midi": 54,
      "time": 200.179,
      "duration": 0.089,
      "velocity": 1,
      "hand": "left"
    },
    {
      "midi": 75,
      "time": 200.179,
      "duration": 0.089,
      "velocity": 1,
      "hand": "right"
    },
    {
      "midi": 51,
      "time": 200.268,
      "duration": 0.089,
      "velocity": 1,
      "hand": "left"
    },
    {
      "midi": 78,
      "time": 200.268,
      "duration": 0.089,
      "velocity": 1,
      "hand": "right"
    },
    {
      "midi": 49,
      "time": 200.357,
      "duration": 0.089,
      "velocity": 1,
      "hand": "left"
    },
    {
      "midi": 68,
      "time": 200.446,
      "duration": 0.089,
      "velocity": 1,
      "hand": "right"
    },
    {
      "midi": 56,
      "time": 200.536,
      "duration": 0.089,
      "velocity": 1,
      "hand": "left"
    },
    {
      "midi": 69,
      "time": 200.536,
      "duration": 0.089,
      "velocity": 1,
      "hand": "right"
    },
    {
      "midi": 61,
      "time": 200.625,
      "duration": 0.089,
      "velocity": 1,
      "hand": "right"
    },
    {
      "midi": 68,
      "time": 200.625,
      "duration": 0.089,
      "velocity": 1,
      "hand": "right"
    },
    {
      "midi": 64,
      "time": 200.714,
      "duration": 0.089,
      "velocity": 1,
      "hand": "right"
    },
    {
      "midi": 67,
      "time": 200.714,
      "duration": 0.089,
      "velocity": 1,
      "hand": "right"
    },
    {
      "midi": 68,
      "time": 200.804,
      "duration": 0.089,
      "velocity": 1,
      "hand": "right"
    },
    {
      "midi": 61,
      "time": 200.893,
      "duration": 0.089,
      "velocity": 1,
      "hand": "right"
    },
    {
      "midi": 73,
      "time": 200.893,
      "duration": 0.089,
      "velocity": 1,
      "hand": "right"
    },
    {
      "midi": 56,
      "time": 200.982,
      "duration": 0.089,
      "velocity": 1,
      "hand": "left"
    },
    {
      "midi": 76,
      "time": 200.982,
      "duration": 0.089,
      "velocity": 1,
      "hand": "right"
    },
    {
      "midi": 52,
      "time": 201.071,
      "duration": 0.089,
      "velocity": 1,
      "hand": "left"
    },
    {
      "midi": 75,
      "time": 201.071,
      "duration": 0.089,
      "velocity": 1,
      "hand": "right"
    },
    {
      "midi": 73,
      "time": 201.161,
      "duration": 0.089,
      "velocity": 1,
      "hand": "right"
    },
    {
      "midi": 56,
      "time": 201.25,
      "duration": 0.089,
      "velocity": 1,
      "hand": "left"
    },
    {
      "midi": 75,
      "time": 201.25,
      "duration": 0.089,
      "velocity": 1,
      "hand": "right"
    },
    {
      "midi": 61,
      "time": 201.339,
      "duration": 0.089,
      "velocity": 1,
      "hand": "right"
    },
    {
      "midi": 73,
      "time": 201.339,
      "duration": 0.089,
      "velocity": 1,
      "hand": "right"
    },
    {
      "midi": 64,
      "time": 201.429,
      "duration": 0.089,
      "velocity": 1,
      "hand": "right"
    },
    {
      "midi": 72,
      "time": 201.429,
      "duration": 0.089,
      "velocity": 1,
      "hand": "right"
    },
    {
      "midi": 73,
      "time": 201.518,
      "duration": 0.089,
      "velocity": 1,
      "hand": "right"
    },
    {
      "midi": 61,
      "time": 201.607,
      "duration": 0.089,
      "velocity": 1,
      "hand": "right"
    },
    {
      "midi": 76,
      "time": 201.607,
      "duration": 0.089,
      "velocity": 1,
      "hand": "right"
    },
    {
      "midi": 56,
      "time": 201.696,
      "duration": 0.089,
      "velocity": 1,
      "hand": "left"
    },
    {
      "midi": 80,
      "time": 201.696,
      "duration": 0.089,
      "velocity": 1,
      "hand": "right"
    },
    {
      "midi": 49,
      "time": 201.786,
      "duration": 0.089,
      "velocity": 1,
      "hand": "left"
    },
    {
      "midi": 68,
      "time": 201.875,
      "duration": 0.089,
      "velocity": 1,
      "hand": "right"
    },
    {
      "midi": 56,
      "time": 201.964,
      "duration": 0.089,
      "velocity": 1,
      "hand": "left"
    },
    {
      "midi": 69,
      "time": 201.964,
      "duration": 0.089,
      "velocity": 1,
      "hand": "right"
    },
    {
      "midi": 61,
      "time": 202.054,
      "duration": 0.089,
      "velocity": 1,
      "hand": "right"
    },
    {
      "midi": 68,
      "time": 202.054,
      "duration": 0.089,
      "velocity": 1,
      "hand": "right"
    },
    {
      "midi": 64,
      "time": 202.143,
      "duration": 0.089,
      "velocity": 1,
      "hand": "right"
    },
    {
      "midi": 67,
      "time": 202.143,
      "duration": 0.089,
      "velocity": 1,
      "hand": "right"
    },
    {
      "midi": 68,
      "time": 202.232,
      "duration": 0.089,
      "velocity": 1,
      "hand": "right"
    },
    {
      "midi": 61,
      "time": 202.321,
      "duration": 0.089,
      "velocity": 1,
      "hand": "right"
    },
    {
      "midi": 73,
      "time": 202.321,
      "duration": 0.089,
      "velocity": 1,
      "hand": "right"
    },
    {
      "midi": 56,
      "time": 202.411,
      "duration": 0.089,
      "velocity": 1,
      "hand": "left"
    },
    {
      "midi": 76,
      "time": 202.411,
      "duration": 0.089,
      "velocity": 1,
      "hand": "right"
    },
    {
      "midi": 52,
      "time": 202.5,
      "duration": 0.089,
      "velocity": 1,
      "hand": "left"
    },
    {
      "midi": 75,
      "time": 202.5,
      "duration": 0.089,
      "velocity": 1,
      "hand": "right"
    },
    {
      "midi": 73,
      "time": 202.589,
      "duration": 0.089,
      "velocity": 1,
      "hand": "right"
    },
    {
      "midi": 56,
      "time": 202.679,
      "duration": 0.089,
      "velocity": 1,
      "hand": "left"
    },
    {
      "midi": 75,
      "time": 202.679,
      "duration": 0.089,
      "velocity": 1,
      "hand": "right"
    },
    {
      "midi": 61,
      "time": 202.768,
      "duration": 0.089,
      "velocity": 1,
      "hand": "right"
    },
    {
      "midi": 73,
      "time": 202.768,
      "duration": 0.089,
      "velocity": 1,
      "hand": "right"
    },
    {
      "midi": 64,
      "time": 202.857,
      "duration": 0.089,
      "velocity": 1,
      "hand": "right"
    },
    {
      "midi": 72,
      "time": 202.857,
      "duration": 0.089,
      "velocity": 1,
      "hand": "right"
    },
    {
      "midi": 73,
      "time": 202.946,
      "duration": 0.089,
      "velocity": 1,
      "hand": "right"
    },
    {
      "midi": 61,
      "time": 203.036,
      "duration": 0.089,
      "velocity": 1,
      "hand": "right"
    },
    {
      "midi": 76,
      "time": 203.036,
      "duration": 0.089,
      "velocity": 1,
      "hand": "right"
    },
    {
      "midi": 56,
      "time": 203.125,
      "duration": 0.089,
      "velocity": 1,
      "hand": "left"
    },
    {
      "midi": 80,
      "time": 203.125,
      "duration": 0.089,
      "velocity": 1,
      "hand": "right"
    },
    {
      "midi": 51,
      "time": 203.214,
      "duration": 0.089,
      "velocity": 1,
      "hand": "left"
    },
    {
      "midi": 69,
      "time": 203.304,
      "duration": 0.089,
      "velocity": 1,
      "hand": "right"
    },
    {
      "midi": 57,
      "time": 203.393,
      "duration": 0.089,
      "velocity": 1,
      "hand": "left"
    },
    {
      "midi": 73,
      "time": 203.393,
      "duration": 0.089,
      "velocity": 1,
      "hand": "right"
    },
    {
      "midi": 61,
      "time": 203.482,
      "duration": 0.089,
      "velocity": 1,
      "hand": "right"
    },
    {
      "midi": 75,
      "time": 203.482,
      "duration": 0.089,
      "velocity": 1,
      "hand": "right"
    },
    {
      "midi": 66,
      "time": 203.571,
      "duration": 0.089,
      "velocity": 1,
      "hand": "right"
    },
    {
      "midi": 78,
      "time": 203.571,
      "duration": 0.089,
      "velocity": 1,
      "hand": "right"
    },
    {
      "midi": 81,
      "time": 203.661,
      "duration": 0.089,
      "velocity": 1,
      "hand": "right"
    },
    {
      "midi": 61,
      "time": 203.75,
      "duration": 0.089,
      "velocity": 1,
      "hand": "right"
    },
    {
      "midi": 85,
      "time": 203.75,
      "duration": 0.089,
      "velocity": 1,
      "hand": "right"
    },
    {
      "midi": 57,
      "time": 203.839,
      "duration": 0.089,
      "velocity": 1,
      "hand": "left"
    },
    {
      "midi": 87,
      "time": 203.839,
      "duration": 0.089,
      "velocity": 1,
      "hand": "right"
    },
    {
      "midi": 54,
      "time": 203.929,
      "duration": 0.089,
      "velocity": 1,
      "hand": "left"
    },
    {
      "midi": 95,
      "time": 203.929,
      "duration": 0.089,
      "velocity": 1,
      "hand": "right"
    },
    {
      "midi": 93,
      "time": 204.018,
      "duration": 0.089,
      "velocity": 1,
      "hand": "right"
    },
    {
      "midi": 61,
      "time": 204.107,
      "duration": 0.089,
      "velocity": 1,
      "hand": "right"
    },
    {
      "midi": 92,
      "time": 204.107,
      "duration": 0.089,
      "velocity": 1,
      "hand": "right"
    },
    {
      "midi": 63,
      "time": 204.196,
      "duration": 0.089,
      "velocity": 1,
      "hand": "right"
    },
    {
      "midi": 90,
      "time": 204.196,
      "duration": 0.089,
      "velocity": 1,
      "hand": "right"
    },
    {
      "midi": 69,
      "time": 204.286,
      "duration": 0.089,
      "velocity": 1,
      "hand": "right"
    },
    {
      "midi": 88,
      "time": 204.286,
      "duration": 0.089,
      "velocity": 1,
      "hand": "right"
    },
    {
      "midi": 87,
      "time": 204.375,
      "duration": 0.089,
      "velocity": 1,
      "hand": "right"
    },
    {
      "midi": 63,
      "time": 204.464,
      "duration": 0.089,
      "velocity": 1,
      "hand": "right"
    },
    {
      "midi": 90,
      "time": 204.464,
      "duration": 0.089,
      "velocity": 1,
      "hand": "right"
    },
    {
      "midi": 61,
      "time": 204.554,
      "duration": 0.089,
      "velocity": 1,
      "hand": "right"
    },
    {
      "midi": 85,
      "time": 204.554,
      "duration": 0.089,
      "velocity": 1,
      "hand": "right"
    },
    {
      "midi": 44,
      "time": 204.643,
      "duration": 0.089,
      "velocity": 1,
      "hand": "left"
    },
    {
      "midi": 84,
      "time": 204.643,
      "duration": 0.089,
      "velocity": 1,
      "hand": "right"
    },
    {
      "midi": 87,
      "time": 204.732,
      "duration": 0.089,
      "velocity": 1,
      "hand": "right"
    },
    {
      "midi": 51,
      "time": 204.821,
      "duration": 0.089,
      "velocity": 1,
      "hand": "left"
    },
    {
      "midi": 81,
      "time": 204.821,
      "duration": 0.089,
      "velocity": 1,
      "hand": "right"
    },
    {
      "midi": 54,
      "time": 204.911,
      "duration": 0.089,
      "velocity": 1,
      "hand": "left"
    },
    {
      "midi": 80,
      "time": 204.911,
      "duration": 0.089,
      "velocity": 1,
      "hand": "right"
    },
    {
      "midi": 60,
      "time": 205,
      "duration": 0.089,
      "velocity": 1,
      "hand": "right"
    },
    {
      "midi": 78,
      "time": 205,
      "duration": 0.089,
      "velocity": 1,
      "hand": "right"
    },
    {
      "midi": 81,
      "time": 205.089,
      "duration": 0.089,
      "velocity": 1,
      "hand": "right"
    },
    {
      "midi": 54,
      "time": 205.179,
      "duration": 0.089,
      "velocity": 1,
      "hand": "left"
    },
    {
      "midi": 76,
      "time": 205.179,
      "duration": 0.089,
      "velocity": 1,
      "hand": "right"
    },
    {
      "midi": 51,
      "time": 205.268,
      "duration": 0.089,
      "velocity": 1,
      "hand": "left"
    },
    {
      "midi": 75,
      "time": 205.268,
      "duration": 0.089,
      "velocity": 1,
      "hand": "right"
    },
    {
      "midi": 44,
      "time": 205.357,
      "duration": 0.089,
      "velocity": 1,
      "hand": "left"
    },
    {
      "midi": 78,
      "time": 205.357,
      "duration": 0.089,
      "velocity": 1,
      "hand": "right"
    },
    {
      "midi": 73,
      "time": 205.446,
      "duration": 0.089,
      "velocity": 1,
      "hand": "right"
    },
    {
      "midi": 51,
      "time": 205.536,
      "duration": 0.089,
      "velocity": 1,
      "hand": "left"
    },
    {
      "midi": 72,
      "time": 205.536,
      "duration": 0.089,
      "velocity": 1,
      "hand": "right"
    },
    {
      "midi": 54,
      "time": 205.625,
      "duration": 0.089,
      "velocity": 1,
      "hand": "left"
    },
    {
      "midi": 75,
      "time": 205.625,
      "duration": 0.089,
      "velocity": 1,
      "hand": "right"
    },
    {
      "midi": 60,
      "time": 205.714,
      "duration": 0.089,
      "velocity": 1,
      "hand": "right"
    },
    {
      "midi": 69,
      "time": 205.714,
      "duration": 0.089,
      "velocity": 1,
      "hand": "right"
    },
    {
      "midi": 68,
      "time": 205.804,
      "duration": 0.089,
      "velocity": 1,
      "hand": "right"
    },
    {
      "midi": 54,
      "time": 205.893,
      "duration": 0.089,
      "velocity": 1,
      "hand": "left"
    },
    {
      "midi": 71,
      "time": 205.893,
      "duration": 0.089,
      "velocity": 1,
      "hand": "right"
    },
    {
      "midi": 51,
      "time": 205.982,
      "duration": 0.089,
      "velocity": 1,
      "hand": "left"
    },
    {
      "midi": 69,
      "time": 205.982,
      "duration": 0.179,
      "velocity": 1,
      "hand": "right"
    },
    {
      "midi": 49,
      "time": 206.071,
      "duration": 0.089,
      "velocity": 1,
      "hand": "left"
    },
    {
      "midi": 68,
      "time": 206.161,
      "duration": 0.089,
      "velocity": 1,
      "hand": "right"
    },
    {
      "midi": 56,
      "time": 206.25,
      "duration": 0.089,
      "velocity": 1,
      "hand": "left"
    },
    {
      "midi": 69,
      "time": 206.25,
      "duration": 0.089,
      "velocity": 1,
      "hand": "right"
    },
    {
      "midi": 61,
      "time": 206.339,
      "duration": 0.089,
      "velocity": 1,
      "hand": "right"
    },
    {
      "midi": 68,
      "time": 206.339,
      "duration": 0.089,
      "velocity": 1,
      "hand": "right"
    },
    {
      "midi": 64,
      "time": 206.429,
      "duration": 0.089,
      "velocity": 1,
      "hand": "right"
    },
    {
      "midi": 67,
      "time": 206.429,
      "duration": 0.089,
      "velocity": 1,
      "hand": "right"
    },
    {
      "midi": 68,
      "time": 206.518,
      "duration": 0.089,
      "velocity": 1,
      "hand": "right"
    },
    {
      "midi": 61,
      "time": 206.607,
      "duration": 0.089,
      "velocity": 1,
      "hand": "right"
    },
    {
      "midi": 73,
      "time": 206.607,
      "duration": 0.089,
      "velocity": 1,
      "hand": "right"
    },
    {
      "midi": 56,
      "time": 206.696,
      "duration": 0.089,
      "velocity": 1,
      "hand": "left"
    },
    {
      "midi": 76,
      "time": 206.696,
      "duration": 0.089,
      "velocity": 1,
      "hand": "right"
    },
    {
      "midi": 52,
      "time": 206.786,
      "duration": 0.089,
      "velocity": 1,
      "hand": "left"
    },
    {
      "midi": 75,
      "time": 206.786,
      "duration": 0.089,
      "velocity": 1,
      "hand": "right"
    },
    {
      "midi": 73,
      "time": 206.875,
      "duration": 0.089,
      "velocity": 1,
      "hand": "right"
    },
    {
      "midi": 56,
      "time": 206.964,
      "duration": 0.089,
      "velocity": 1,
      "hand": "left"
    },
    {
      "midi": 75,
      "time": 206.964,
      "duration": 0.089,
      "velocity": 1,
      "hand": "right"
    },
    {
      "midi": 61,
      "time": 207.054,
      "duration": 0.089,
      "velocity": 1,
      "hand": "right"
    },
    {
      "midi": 73,
      "time": 207.054,
      "duration": 0.089,
      "velocity": 1,
      "hand": "right"
    },
    {
      "midi": 64,
      "time": 207.143,
      "duration": 0.089,
      "velocity": 1,
      "hand": "right"
    },
    {
      "midi": 72,
      "time": 207.143,
      "duration": 0.089,
      "velocity": 1,
      "hand": "right"
    },
    {
      "midi": 73,
      "time": 207.232,
      "duration": 0.089,
      "velocity": 1,
      "hand": "right"
    },
    {
      "midi": 61,
      "time": 207.321,
      "duration": 0.089,
      "velocity": 1,
      "hand": "right"
    },
    {
      "midi": 76,
      "time": 207.321,
      "duration": 0.089,
      "velocity": 1,
      "hand": "right"
    },
    {
      "midi": 56,
      "time": 207.411,
      "duration": 0.089,
      "velocity": 1,
      "hand": "left"
    },
    {
      "midi": 80,
      "time": 207.411,
      "duration": 0.089,
      "velocity": 1,
      "hand": "right"
    },
    {
      "midi": 54,
      "time": 207.5,
      "duration": 0.089,
      "velocity": 1,
      "hand": "left"
    },
    {
      "midi": 76,
      "time": 207.5,
      "duration": 0.089,
      "velocity": 1,
      "hand": "right"
    },
    {
      "midi": 75,
      "time": 207.589,
      "duration": 0.089,
      "velocity": 1,
      "hand": "right"
    },
    {
      "midi": 61,
      "time": 207.679,
      "duration": 0.089,
      "velocity": 1,
      "hand": "right"
    },
    {
      "midi": 76,
      "time": 207.679,
      "duration": 0.089,
      "velocity": 1,
      "hand": "right"
    },
    {
      "midi": 63,
      "time": 207.768,
      "duration": 0.089,
      "velocity": 1,
      "hand": "right"
    },
    {
      "midi": 75,
      "time": 207.768,
      "duration": 0.089,
      "velocity": 1,
      "hand": "right"
    },
    {
      "midi": 69,
      "time": 207.857,
      "duration": 0.089,
      "velocity": 1,
      "hand": "right"
    },
    {
      "midi": 74,
      "time": 207.857,
      "duration": 0.089,
      "velocity": 1,
      "hand": "right"
    },
    {
      "midi": 75,
      "time": 207.946,
      "duration": 0.089,
      "velocity": 1,
      "hand": "right"
    },
    {
      "midi": 63,
      "time": 208.036,
      "duration": 0.089,
      "velocity": 1,
      "hand": "right"
    },
    {
      "midi": 78,
      "time": 208.036,
      "duration": 0.089,
      "velocity": 1,
      "hand": "right"
    },
    {
      "midi": 61,
      "time": 208.125,
      "duration": 0.089,
      "velocity": 1,
      "hand": "right"
    },
    {
      "midi": 81,
      "time": 208.125,
      "duration": 0.089,
      "velocity": 1,
      "hand": "right"
    },
    {
      "midi": 56,
      "time": 208.214,
      "duration": 0.089,
      "velocity": 1,
      "hand": "left"
    },
    {
      "midi": 78,
      "time": 208.214,
      "duration": 0.089,
      "velocity": 1,
      "hand": "right"
    },
    {
      "midi": 77,
      "time": 208.304,
      "duration": 0.089,
      "velocity": 1,
      "hand": "right"
    },
    {
      "midi": 61,
      "time": 208.393,
      "duration": 0.089,
      "velocity": 1,
      "hand": "right"
    },
    {
      "midi": 78,
      "time": 208.393,
      "duration": 0.089,
      "velocity": 1,
      "hand": "right"
    },
    {
      "midi": 65,
      "time": 208.482,
      "duration": 0.089,
      "velocity": 1,
      "hand": "right"
    },
    {
      "midi": 77,
      "time": 208.482,
      "duration": 0.089,
      "velocity": 1,
      "hand": "right"
    },
    {
      "midi": 71,
      "time": 208.571,
      "duration": 0.089,
      "velocity": 1,
      "hand": "right"
    },
    {
      "midi": 76,
      "time": 208.571,
      "duration": 0.089,
      "velocity": 1,
      "hand": "right"
    },
    {
      "midi": 77,
      "time": 208.661,
      "duration": 0.089,
      "velocity": 1,
      "hand": "right"
    },
    {
      "midi": 65,
      "time": 208.75,
      "duration": 0.089,
      "velocity": 1,
      "hand": "right"
    },
    {
      "midi": 80,
      "time": 208.75,
      "duration": 0.089,
      "velocity": 1,
      "hand": "right"
    },
    {
      "midi": 61,
      "time": 208.839,
      "duration": 0.089,
      "velocity": 1,
      "hand": "right"
    },
    {
      "midi": 85,
      "time": 208.839,
      "duration": 0.089,
      "velocity": 1,
      "hand": "right"
    },
    {
      "midi": 57,
      "time": 208.929,
      "duration": 0.089,
      "velocity": 1,
      "hand": "left"
    },
    {
      "midi": 73,
      "time": 209.018,
      "duration": 0.089,
      "velocity": 1,
      "hand": "right"
    },
    {
      "midi": 61,
      "time": 209.107,
      "duration": 0.089,
      "velocity": 1,
      "hand": "right"
    },
    {
      "midi": 74,
      "time": 209.107,
      "duration": 0.089,
      "velocity": 1,
      "hand": "right"
    },
    {
      "midi": 66,
      "time": 209.196,
      "duration": 0.089,
      "velocity": 1,
      "hand": "right"
    },
    {
      "midi": 73,
      "time": 209.196,
      "duration": 0.089,
      "velocity": 1,
      "hand": "right"
    },
    {
      "midi": 69,
      "time": 209.286,
      "duration": 0.089,
      "velocity": 1,
      "hand": "right"
    },
    {
      "midi": 72,
      "time": 209.286,
      "duration": 0.089,
      "velocity": 1,
      "hand": "right"
    },
    {
      "midi": 73,
      "time": 209.375,
      "duration": 0.089,
      "velocity": 1,
      "hand": "right"
    },
    {
      "midi": 66,
      "time": 209.464,
      "duration": 0.089,
      "velocity": 1,
      "hand": "right"
    },
    {
      "midi": 78,
      "time": 209.464,
      "duration": 0.089,
      "velocity": 1,
      "hand": "right"
    },
    {
      "midi": 61,
      "time": 209.554,
      "duration": 0.089,
      "velocity": 1,
      "hand": "right"
    },
    {
      "midi": 81,
      "time": 209.554,
      "duration": 0.089,
      "velocity": 1,
      "hand": "right"
    },
    {
      "midi": 56,
      "time": 209.643,
      "duration": 0.089,
      "velocity": 1,
      "hand": "left"
    },
    {
      "midi": 78,
      "time": 209.643,
      "duration": 0.089,
      "velocity": 1,
      "hand": "right"
    },
    {
      "midi": 77,
      "time": 209.732,
      "duration": 0.089,
      "velocity": 1,
      "hand": "right"
    },
    {
      "midi": 61,
      "time": 209.821,
      "duration": 0.089,
      "velocity": 1,
      "hand": "right"
    },
    {
      "midi": 78,
      "time": 209.821,
      "duration": 0.089,
      "velocity": 1,
      "hand": "right"
    },
    {
      "midi": 65,
      "time": 209.911,
      "duration": 0.089,
      "velocity": 1,
      "hand": "right"
    },
    {
      "midi": 77,
      "time": 209.911,
      "duration": 0.089,
      "velocity": 1,
      "hand": "right"
    },
    {
      "midi": 71,
      "time": 210,
      "duration": 0.089,
      "velocity": 1,
      "hand": "right"
    },
    {
      "midi": 76,
      "time": 210,
      "duration": 0.089,
      "velocity": 1,
      "hand": "right"
    },
    {
      "midi": 77,
      "time": 210.089,
      "duration": 0.089,
      "velocity": 1,
      "hand": "right"
    },
    {
      "midi": 65,
      "time": 210.179,
      "duration": 0.089,
      "velocity": 1,
      "hand": "right"
    },
    {
      "midi": 80,
      "time": 210.179,
      "duration": 0.089,
      "velocity": 1,
      "hand": "right"
    },
    {
      "midi": 61,
      "time": 210.268,
      "duration": 0.089,
      "velocity": 1,
      "hand": "right"
    },
    {
      "midi": 85,
      "time": 210.268,
      "duration": 0.089,
      "velocity": 1,
      "hand": "right"
    },
    {
      "midi": 57,
      "time": 210.357,
      "duration": 0.089,
      "velocity": 1,
      "hand": "left"
    },
    {
      "midi": 80,
      "time": 210.357,
      "duration": 0.089,
      "velocity": 1,
      "hand": "right"
    },
    {
      "midi": 78,
      "time": 210.446,
      "duration": 0.089,
      "velocity": 1,
      "hand": "right"
    },
    {
      "midi": 61,
      "time": 210.536,
      "duration": 0.089,
      "velocity": 1,
      "hand": "right"
    },
    {
      "midi": 80,
      "time": 210.536,
      "duration": 0.089,
      "velocity": 1,
      "hand": "right"
    },
    {
      "midi": 66,
      "time": 210.625,
      "duration": 0.089,
      "velocity": 1,
      "hand": "right"
    },
    {
      "midi": 78,
      "time": 210.625,
      "duration": 0.089,
      "velocity": 1,
      "hand": "right"
    },
    {
      "midi": 69,
      "time": 210.714,
      "duration": 0.089,
      "velocity": 1,
      "hand": "right"
    },
    {
      "midi": 77,
      "time": 210.714,
      "duration": 0.089,
      "velocity": 1,
      "hand": "right"
    },
    {
      "midi": 78,
      "time": 210.804,
      "duration": 0.089,
      "velocity": 1,
      "hand": "right"
    },
    {
      "midi": 66,
      "time": 210.893,
      "duration": 0.089,
      "velocity": 1,
      "hand": "right"
    },
    {
      "midi": 81,
      "time": 210.893,
      "duration": 0.089,
      "velocity": 1,
      "hand": "right"
    },
    {
      "midi": 61,
      "time": 210.982,
      "duration": 0.089,
      "velocity": 1,
      "hand": "right"
    },
    {
      "midi": 85,
      "time": 210.982,
      "duration": 0.089,
      "velocity": 1,
      "hand": "right"
    },
    {
      "midi": 48,
      "time": 211.071,
      "duration": 0.089,
      "velocity": 1,
      "hand": "left"
    },
    {
      "midi": 81,
      "time": 211.071,
      "duration": 0.089,
      "velocity": 1,
      "hand": "right"
    },
    {
      "midi": 80,
      "time": 211.161,
      "duration": 0.089,
      "velocity": 1,
      "hand": "right"
    },
    {
      "midi": 54,
      "time": 211.25,
      "duration": 0.089,
      "velocity": 1,
      "hand": "left"
    },
    {
      "midi": 81,
      "time": 211.25,
      "duration": 0.089,
      "velocity": 1,
      "hand": "right"
    },
    {
      "midi": 56,
      "time": 211.339,
      "duration": 0.089,
      "velocity": 1,
      "hand": "left"
    },
    {
      "midi": 80,
      "time": 211.339,
      "duration": 0.089,
      "velocity": 1,
      "hand": "right"
    },
    {
      "midi": 63,
      "time": 211.429,
      "duration": 0.089,
      "velocity": 1,
      "hand": "right"
    },
    {
      "midi": 79,
      "time": 211.429,
      "duration": 0.089,
      "velocity": 1,
      "hand": "right"
    },
    {
      "midi": 80,
      "time": 211.518,
      "duration": 0.089,
      "velocity": 1,
      "hand": "right"
    },
    {
      "midi": 56,
      "time": 211.607,
      "duration": 0.089,
      "velocity": 1,
      "hand": "left"
    },
    {
      "midi": 84,
      "time": 211.607,
      "duration": 0.089,
      "velocity": 1,
      "hand": "right"
    },
    {
      "midi": 54,
      "time": 211.696,
      "duration": 0.089,
      "velocity": 1,
      "hand": "left"
    },
    {
      "midi": 87,
      "time": 211.696,
      "duration": 0.089,
      "velocity": 1,
      "hand": "right"
    },
    {
      "midi": 49,
      "time": 211.786,
      "duration": 0.089,
      "velocity": 1,
      "hand": "left"
    },
    {
      "midi": 80,
      "time": 211.786,
      "duration": 0.089,
      "velocity": 1,
      "hand": "right"
    },
    {
      "midi": 81,
      "time": 211.875,
      "duration": 0.089,
      "velocity": 1,
      "hand": "right"
    },
    {
      "midi": 56,
      "time": 211.964,
      "duration": 0.089,
      "velocity": 1,
      "hand": "left"
    },
    {
      "midi": 80,
      "time": 211.964,
      "duration": 0.089,
      "velocity": 1,
      "hand": "right"
    },
    {
      "midi": 61,
      "time": 212.054,
      "duration": 0.089,
      "velocity": 1,
      "hand": "right"
    },
    {
      "midi": 79,
      "time": 212.054,
      "duration": 0.089,
      "velocity": 1,
      "hand": "right"
    },
    {
      "midi": 64,
      "time": 212.143,
      "duration": 0.089,
      "velocity": 1,
      "hand": "right"
    },
    {
      "midi": 80,
      "time": 212.143,
      "duration": 0.089,
      "velocity": 1,
      "hand": "right"
    },
    {
      "midi": 88,
      "time": 212.232,
      "duration": 0.089,
      "velocity": 1,
      "hand": "right"
    },
    {
      "midi": 61,
      "time": 212.321,
      "duration": 0.089,
      "velocity": 1,
      "hand": "right"
    },
    {
      "midi": 87,
      "time": 212.321,
      "duration": 0.089,
      "velocity": 1,
      "hand": "right"
    },
    {
      "midi": 56,
      "time": 212.411,
      "duration": 0.089,
      "velocity": 1,
      "hand": "left"
    },
    {
      "midi": 86,
      "time": 212.411,
      "duration": 0.089,
      "velocity": 1,
      "hand": "right"
    },
    {
      "midi": 51,
      "time": 212.5,
      "duration": 0.089,
      "velocity": 1,
      "hand": "left"
    },
    {
      "midi": 85,
      "time": 212.5,
      "duration": 0.089,
      "velocity": 1,
      "hand": "right"
    },
    {
      "midi": 84,
      "time": 212.589,
      "duration": 0.089,
      "velocity": 1,
      "hand": "right"
    },
    {
      "midi": 56,
      "time": 212.679,
      "duration": 0.089,
      "velocity": 1,
      "hand": "left"
    },
    {
      "midi": 83,
      "time": 212.679,
      "duration": 0.089,
      "velocity": 1,
      "hand": "right"
    },
    {
      "midi": 60,
      "time": 212.768,
      "duration": 0.089,
      "velocity": 1,
      "hand": "right"
    },
    {
      "midi": 82,
      "time": 212.768,
      "duration": 0.089,
      "velocity": 1,
      "hand": "right"
    },
    {
      "midi": 66,
      "time": 212.857,
      "duration": 0.089,
      "velocity": 1,
      "hand": "right"
    },
    {
      "midi": 81,
      "time": 212.857,
      "duration": 0.089,
      "velocity": 1,
      "hand": "right"
    },
    {
      "midi": 80,
      "time": 212.946,
      "duration": 0.089,
      "velocity": 1,
      "hand": "right"
    },
    {
      "midi": 60,
      "time": 213.036,
      "duration": 0.089,
      "velocity": 1,
      "hand": "right"
    },
    {
      "midi": 79,
      "time": 213.036,
      "duration": 0.089,
      "velocity": 1,
      "hand": "right"
    },
    {
      "midi": 56,
      "time": 213.125,
      "duration": 0.089,
      "velocity": 1,
      "hand": "left"
    },
    {
      "midi": 78,
      "time": 213.125,
      "duration": 0.089,
      "velocity": 1,
      "hand": "right"
    },
    {
      "midi": 49,
      "time": 213.214,
      "duration": 0.089,
      "velocity": 1,
      "hand": "left"
    },
    {
      "midi": 76,
      "time": 213.214,
      "duration": 0.089,
      "velocity": 1,
      "hand": "right"
    },
    {
      "midi": 78,
      "time": 213.304,
      "duration": 0.089,
      "velocity": 1,
      "hand": "right"
    },
    {
      "midi": 56,
      "time": 213.393,
      "duration": 0.089,
      "velocity": 1,
      "hand": "left"
    },
    {
      "midi": 76,
      "time": 213.393,
      "duration": 0.089,
      "velocity": 1,
      "hand": "right"
    },
    {
      "midi": 61,
      "time": 213.482,
      "duration": 0.089,
      "velocity": 1,
      "hand": "right"
    },
    {
      "midi": 75,
      "time": 213.482,
      "duration": 0.089,
      "velocity": 1,
      "hand": "right"
    },
    {
      "midi": 64,
      "time": 213.571,
      "duration": 0.089,
      "velocity": 1,
      "hand": "right"
    },
    {
      "midi": 76,
      "time": 213.571,
      "duration": 0.089,
      "velocity": 1,
      "hand": "right"
    },
    {
      "midi": 88,
      "time": 213.661,
      "duration": 0.089,
      "velocity": 1,
      "hand": "right"
    },
    {
      "midi": 61,
      "time": 213.75,
      "duration": 0.089,
      "velocity": 1,
      "hand": "right"
    },
    {
      "midi": 87,
      "time": 213.75,
      "duration": 0.089,
      "velocity": 1,
      "hand": "right"
    },
    {
      "midi": 56,
      "time": 213.839,
      "duration": 0.089,
      "velocity": 1,
      "hand": "left"
    },
    {
      "midi": 86,
      "time": 213.839,
      "duration": 0.089,
      "velocity": 1,
      "hand": "right"
    },
    {
      "midi": 54,
      "time": 213.929,
      "duration": 0.089,
      "velocity": 1,
      "hand": "left"
    },
    {
      "midi": 85,
      "time": 213.929,
      "duration": 0.089,
      "velocity": 1,
      "hand": "right"
    },
    {
      "midi": 84,
      "time": 214.018,
      "duration": 0.089,
      "velocity": 1,
      "hand": "right"
    },
    {
      "midi": 61,
      "time": 214.107,
      "duration": 0.089,
      "velocity": 1,
      "hand": "right"
    },
    {
      "midi": 83,
      "time": 214.107,
      "duration": 0.089,
      "velocity": 1,
      "hand": "right"
    },
    {
      "midi": 63,
      "time": 214.196,
      "duration": 0.089,
      "velocity": 1,
      "hand": "right"
    },
    {
      "midi": 82,
      "time": 214.196,
      "duration": 0.089,
      "velocity": 1,
      "hand": "right"
    },
    {
      "midi": 69,
      "time": 214.286,
      "duration": 0.089,
      "velocity": 1,
      "hand": "right"
    },
    {
      "midi": 81,
      "time": 214.286,
      "duration": 0.089,
      "velocity": 1,
      "hand": "right"
    },
    {
      "midi": 80,
      "time": 214.375,
      "duration": 0.089,
      "velocity": 1,
      "hand": "right"
    },
    {
      "midi": 63,
      "time": 214.464,
      "duration": 0.089,
      "velocity": 1,
      "hand": "right"
    },
    {
      "midi": 79,
      "time": 214.464,
      "duration": 0.089,
      "velocity": 1,
      "hand": "right"
    },
    {
      "midi": 61,
      "time": 214.554,
      "duration": 0.089,
      "velocity": 1,
      "hand": "right"
    },
    {
      "midi": 78,
      "time": 214.554,
      "duration": 0.089,
      "velocity": 1,
      "hand": "right"
    },
    {
      "midi": 56,
      "time": 214.643,
      "duration": 0.179,
      "velocity": 1,
      "hand": "left"
    },
    {
      "midi": 61,
      "time": 214.643,
      "duration": 0.179,
      "velocity": 1,
      "hand": "right"
    },
    {
      "midi": 64,
      "time": 214.643,
      "duration": 0.179,
      "velocity": 1,
      "hand": "right"
    },
    {
      "midi": 68,
      "time": 214.643,
      "duration": 0.179,
      "velocity": 1,
      "hand": "right"
    },
    {
      "midi": 80,
      "time": 214.643,
      "duration": 0.089,
      "velocity": 1,
      "hand": "right"
    },
    {
      "midi": 92,
      "time": 214.821,
      "duration": 0.089,
      "velocity": 1,
      "hand": "right"
    },
    {
      "midi": 91,
      "time": 214.911,
      "duration": 0.089,
      "velocity": 1,
      "hand": "right"
    },
    {
      "midi": 90,
      "time": 215,
      "duration": 0.089,
      "velocity": 1,
      "hand": "right"
    },
    {
      "midi": 89,
      "time": 215.089,
      "duration": 0.089,
      "velocity": 1,
      "hand": "right"
    },
    {
      "midi": 88,
      "time": 215.179,
      "duration": 0.089,
      "velocity": 1,
      "hand": "right"
    },
    {
      "midi": 87,
      "time": 215.268,
      "duration": 0.089,
      "velocity": 1,
      "hand": "right"
    },
    {
      "midi": 55,
      "time": 215.357,
      "duration": 0.357,
      "velocity": 1,
      "hand": "left"
    },
    {
      "midi": 61,
      "time": 215.357,
      "duration": 0.357,
      "velocity": 1,
      "hand": "right"
    },
    {
      "midi": 64,
      "time": 215.357,
      "duration": 0.357,
      "velocity": 1,
      "hand": "right"
    },
    {
      "midi": 69,
      "time": 215.357,
      "duration": 0.357,
      "velocity": 1,
      "hand": "right"
    },
    {
      "midi": 86,
      "time": 215.357,
      "duration": 0.089,
      "velocity": 1,
      "hand": "right"
    },
    {
      "midi": 85,
      "time": 215.446,
      "duration": 0.089,
      "velocity": 1,
      "hand": "right"
    },
    {
      "midi": 84,
      "time": 215.536,
      "duration": 0.089,
      "velocity": 1,
      "hand": "right"
    },
    {
      "midi": 83,
      "time": 215.625,
      "duration": 0.089,
      "velocity": 1,
      "hand": "right"
    },
    {
      "midi": 82,
      "time": 215.714,
      "duration": 0.089,
      "velocity": 1,
      "hand": "right"
    },
    {
      "midi": 81,
      "time": 215.804,
      "duration": 0.089,
      "velocity": 1,
      "hand": "right"
    },
    {
      "midi": 80,
      "time": 215.893,
      "duration": 0.089,
      "velocity": 1,
      "hand": "right"
    },
    {
      "midi": 79,
      "time": 215.982,
      "duration": 0.089,
      "velocity": 1,
      "hand": "right"
    },
    {
      "midi": 78,
      "time": 216.071,
      "duration": 0.089,
      "velocity": 1,
      "hand": "right"
    },
    {
      "midi": 77,
      "time": 216.161,
      "duration": 0.089,
      "velocity": 1,
      "hand": "right"
    },
    {
      "midi": 76,
      "time": 216.25,
      "duration": 0.089,
      "velocity": 1,
      "hand": "right"
    },
    {
      "midi": 75,
      "time": 216.339,
      "duration": 0.089,
      "velocity": 1,
      "hand": "right"
    },
    {
      "midi": 74,
      "time": 216.429,
      "duration": 0.089,
      "velocity": 1,
      "hand": "right"
    },
    {
      "midi": 73,
      "time": 216.518,
      "duration": 0.089,
      "velocity": 1,
      "hand": "right"
    },
    {
      "midi": 72,
      "time": 216.607,
      "duration": 0.089,
      "velocity": 1,
      "hand": "right"
    },
    {
      "midi": 71,
      "time": 216.696,
      "duration": 0.089,
      "velocity": 1,
      "hand": "right"
    },
    {
      "midi": 70,
      "time": 216.786,
      "duration": 0.089,
      "velocity": 1,
      "hand": "right"
    },
    {
      "midi": 69,
      "time": 216.875,
      "duration": 0.089,
      "velocity": 1,
      "hand": "right"
    },
    {
      "midi": 68,
      "time": 216.964,
      "duration": 0.089,
      "velocity": 1,
      "hand": "right"
    },
    {
      "midi": 67,
      "time": 217.054,
      "duration": 0.089,
      "velocity": 1,
      "hand": "right"
    },
    {
      "midi": 66,
      "time": 217.143,
      "duration": 0.089,
      "velocity": 1,
      "hand": "right"
    },
    {
      "midi": 64,
      "time": 217.232,
      "duration": 0.089,
      "velocity": 1,
      "hand": "right"
    },
    {
      "midi": 63,
      "time": 217.321,
      "duration": 0.089,
      "velocity": 1,
      "hand": "right"
    },
    {
      "midi": 61,
      "time": 217.411,
      "duration": 0.089,
      "velocity": 1,
      "hand": "right"
    },
    {
      "midi": 32,
      "time": 217.5,
      "duration": 0.179,
      "velocity": 1,
      "hand": "left"
    },
    {
      "midi": 44,
      "time": 217.5,
      "duration": 0.179,
      "velocity": 1,
      "hand": "left"
    },
    {
      "midi": 56,
      "time": 217.5,
      "duration": 0.179,
      "velocity": 1,
      "hand": "left"
    },
    {
      "midi": 64,
      "time": 217.857,
      "duration": 0.357,
      "velocity": 1,
      "hand": "right"
    },
    {
      "midi": 76,
      "time": 217.857,
      "duration": 0.357,
      "velocity": 1,
      "hand": "right"
    },
    {
      "midi": 93,
      "time": 217.857,
      "duration": 0.089,
      "velocity": 1,
      "hand": "right"
    },
    {
      "midi": 92,
      "time": 217.946,
      "duration": 0.089,
      "velocity": 1,
      "hand": "right"
    },
    {
      "midi": 100,
      "time": 218.036,
      "duration": 0.089,
      "velocity": 1,
      "hand": "right"
    },
    {
      "midi": 88,
      "time": 218.125,
      "duration": 0.089,
      "velocity": 1,
      "hand": "right"
    },
    {
      "midi": 61,
      "time": 218.214,
      "duration": 0.357,
      "velocity": 1,
      "hand": "right"
    },
    {
      "midi": 73,
      "time": 218.214,
      "duration": 0.357,
      "velocity": 1,
      "hand": "right"
    },
    {
      "midi": 90,
      "time": 218.214,
      "duration": 0.089,
      "velocity": 1,
      "hand": "right"
    },
    {
      "midi": 88,
      "time": 218.304,
      "duration": 0.089,
      "velocity": 1,
      "hand": "right"
    },
    {
      "midi": 97,
      "time": 218.393,
      "duration": 0.089,
      "velocity": 1,
      "hand": "right"
    },
    {
      "midi": 85,
      "time": 218.482,
      "duration": 0.089,
      "velocity": 1,
      "hand": "right"
    },
    {
      "midi": 56,
      "time": 218.571,
      "duration": 0.357,
      "velocity": 1,
      "hand": "left"
    },
    {
      "midi": 68,
      "time": 218.571,
      "duration": 0.357,
      "velocity": 1,
      "hand": "right"
    },
    {
      "midi": 87,
      "time": 218.571,
      "duration": 0.089,
      "velocity": 1,
      "hand": "right"
    },
    {
      "midi": 85,
      "time": 218.661,
      "duration": 0.089,
      "velocity": 1,
      "hand": "right"
    },
    {
      "midi": 92,
      "time": 218.75,
      "duration": 0.089,
      "velocity": 1,
      "hand": "right"
    },
    {
      "midi": 80,
      "time": 218.839,
      "duration": 0.089,
      "velocity": 1,
      "hand": "right"
    },
    {
      "midi": 52,
      "time": 218.929,
      "duration": 0.357,
      "velocity": 1,
      "hand": "left"
    },
    {
      "midi": 64,
      "time": 218.929,
      "duration": 0.357,
      "velocity": 1,
      "hand": "right"
    },
    {
      "midi": 81,
      "time": 218.929,
      "duration": 0.089,
      "velocity": 1,
      "hand": "right"
    },
    {
      "midi": 80,
      "time": 219.018,
      "duration": 0.089,
      "velocity": 1,
      "hand": "right"
    },
    {
      "midi": 88,
      "time": 219.107,
      "duration": 0.089,
      "velocity": 1,
      "hand": "right"
    },
    {
      "midi": 76,
      "time": 219.196,
      "duration": 0.089,
      "velocity": 1,
      "hand": "right"
    },
    {
      "midi": 49,
      "time": 219.286,
      "duration": 0.357,
      "velocity": 1,
      "hand": "left"
    },
    {
      "midi": 61,
      "time": 219.286,
      "duration": 0.357,
      "velocity": 1,
      "hand": "right"
    },
    {
      "midi": 78,
      "time": 219.286,
      "duration": 0.089,
      "velocity": 1,
      "hand": "right"
    },
    {
      "midi": 76,
      "time": 219.375,
      "duration": 0.089,
      "velocity": 1,
      "hand": "right"
    },
    {
      "midi": 85,
      "time": 219.464,
      "duration": 0.089,
      "velocity": 1,
      "hand": "right"
    },
    {
      "midi": 73,
      "time": 219.554,
      "duration": 0.089,
      "velocity": 1,
      "hand": "right"
    },
    {
      "midi": 44,
      "time": 219.643,
      "duration": 0.357,
      "velocity": 1,
      "hand": "left"
    },
    {
      "midi": 56,
      "time": 219.643,
      "duration": 0.357,
      "velocity": 1,
      "hand": "left"
    },
    {
      "midi": 75,
      "time": 219.643,
      "duration": 0.089,
      "velocity": 1,
      "hand": "right"
    },
    {
      "midi": 73,
      "time": 219.732,
      "duration": 0.089,
      "velocity": 1,
      "hand": "right"
    },
    {
      "midi": 80,
      "time": 219.821,
      "duration": 0.089,
      "velocity": 1,
      "hand": "right"
    },
    {
      "midi": 68,
      "time": 219.911,
      "duration": 0.089,
      "velocity": 1,
      "hand": "right"
    },
    {
      "midi": 40,
      "time": 220,
      "duration": 0.357,
      "velocity": 1,
      "hand": "left"
    },
    {
      "midi": 52,
      "time": 220,
      "duration": 0.357,
      "velocity": 1,
      "hand": "left"
    },
    {
      "midi": 69,
      "time": 220,
      "duration": 0.089,
      "velocity": 1,
      "hand": "right"
    },
    {
      "midi": 68,
      "time": 220.089,
      "duration": 0.089,
      "velocity": 1,
      "hand": "right"
    },
    {
      "midi": 76,
      "time": 220.179,
      "duration": 0.089,
      "velocity": 1,
      "hand": "right"
    },
    {
      "midi": 64,
      "time": 220.268,
      "duration": 0.089,
      "velocity": 1,
      "hand": "right"
    },
    {
      "midi": 37,
      "time": 220.357,
      "duration": 0.357,
      "velocity": 1,
      "hand": "left"
    },
    {
      "midi": 49,
      "time": 220.357,
      "duration": 0.357,
      "velocity": 1,
      "hand": "left"
    },
    {
      "midi": 66,
      "time": 220.357,
      "duration": 0.089,
      "velocity": 1,
      "hand": "right"
    },
    {
      "midi": 64,
      "time": 220.446,
      "duration": 0.089,
      "velocity": 1,
      "hand": "right"
    },
    {
      "midi": 73,
      "time": 220.536,
      "duration": 0.089,
      "velocity": 1,
      "hand": "right"
    },
    {
      "midi": 61,
      "time": 220.625,
      "duration": 0.089,
      "velocity": 1,
      "hand": "right"
    },
    {
      "midi": 32,
      "time": 220.714,
      "duration": 0.357,
      "velocity": 1,
      "hand": "left"
    },
    {
      "midi": 44,
      "time": 220.714,
      "duration": 0.357,
      "velocity": 1,
      "hand": "left"
    },
    {
      "midi": 63,
      "time": 220.714,
      "duration": 0.089,
      "velocity": 1,
      "hand": "right"
    },
    {
      "midi": 61,
      "time": 220.804,
      "duration": 0.089,
      "velocity": 1,
      "hand": "right"
    },
    {
      "midi": 68,
      "time": 220.893,
      "duration": 0.089,
      "velocity": 1,
      "hand": "right"
    },
    {
      "midi": 56,
      "time": 220.982,
      "duration": 0.089,
      "velocity": 1,
      "hand": "left"
    },
    {
      "midi": 32,
      "time": 221.071,
      "duration": 0.357,
      "velocity": 1,
      "hand": "left"
    },
    {
      "midi": 44,
      "time": 221.071,
      "duration": 0.357,
      "velocity": 1,
      "hand": "left"
    },
    {
      "midi": 63,
      "time": 221.071,
      "duration": 0.089,
      "velocity": 1,
      "hand": "right"
    },
    {
      "midi": 61,
      "time": 221.161,
      "duration": 0.089,
      "velocity": 1,
      "hand": "right"
    },
    {
      "midi": 68,
      "time": 221.25,
      "duration": 0.089,
      "velocity": 1,
      "hand": "right"
    },
    {
      "midi": 56,
      "time": 221.339,
      "duration": 0.089,
      "velocity": 1,
      "hand": "left"
    },
    {
      "midi": 33,
      "time": 221.429,
      "duration": 0.357,
      "velocity": 1,
      "hand": "left"
    },
    {
      "midi": 45,
      "time": 221.429,
      "duration": 0.357,
      "velocity": 1,
      "hand": "left"
    },
    {
      "midi": 63,
      "time": 221.429,
      "duration": 0.089,
      "velocity": 1,
      "hand": "right"
    },
    {
      "midi": 61,
      "time": 221.518,
      "duration": 0.089,
      "velocity": 1,
      "hand": "right"
    },
    {
      "midi": 69,
      "time": 221.607,
      "duration": 0.089,
      "velocity": 1,
      "hand": "right"
    },
    {
      "midi": 57,
      "time": 221.696,
      "duration": 0.089,
      "velocity": 1,
      "hand": "left"
    },
    {
      "midi": 32,
      "time": 221.786,
      "duration": 0.357,
      "velocity": 1,
      "hand": "left"
    },
    {
      "midi": 44,
      "time": 221.786,
      "duration": 0.357,
      "velocity": 1,
      "hand": "left"
    },
    {
      "midi": 63,
      "time": 221.786,
      "duration": 0.089,
      "velocity": 1,
      "hand": "right"
    },
    {
      "midi": 61,
      "time": 221.875,
      "duration": 0.089,
      "velocity": 1,
      "hand": "right"
    },
    {
      "midi": 68,
      "time": 221.964,
      "duration": 0.089,
      "velocity": 1,
      "hand": "right"
    },
    {
      "midi": 56,
      "time": 222.054,
      "duration": 0.089,
      "velocity": 1,
      "hand": "left"
    },
    {
      "midi": 31,
      "time": 222.143,
      "duration": 0.357,
      "velocity": 1,
      "hand": "left"
    },
    {
      "midi": 43,
      "time": 222.143,
      "duration": 0.357,
      "velocity": 1,
      "hand": "left"
    },
    {
      "midi": 63,
      "time": 222.143,
      "duration": 0.089,
      "velocity": 1,
      "hand": "right"
    },
    {
      "midi": 61,
      "time": 222.232,
      "duration": 0.089,
      "velocity": 1,
      "hand": "right"
    },
    {
      "midi": 67,
      "time": 222.321,
      "duration": 0.089,
      "velocity": 1,
      "hand": "right"
    },
    {
      "midi": 55,
      "time": 222.411,
      "duration": 0.089,
      "velocity": 1,
      "hand": "left"
    },
    {
      "midi": 32,
      "time": 222.5,
      "duration": 0.714,
      "velocity": 1,
      "hand": "left"
    },
    {
      "midi": 44,
      "time": 222.5,
      "duration": 0.714,
      "velocity": 1,
      "hand": "left"
    },
    {
      "midi": 63,
      "time": 222.5,
      "duration": 0.089,
      "velocity": 1,
      "hand": "right"
    },
    {
      "midi": 61,
      "time": 222.589,
      "duration": 0.089,
      "velocity": 1,
      "hand": "right"
    },
    {
      "midi": 68,
      "time": 222.679,
      "duration": 0.089,
      "velocity": 1,
      "hand": "right"
    },
    {
      "midi": 56,
      "time": 222.768,
      "duration": 0.089,
      "velocity": 1,
      "hand": "left"
    },
    {
      "midi": 63,
      "time": 222.857,
      "duration": 0.089,
      "velocity": 1,
      "hand": "right"
    },
    {
      "midi": 60,
      "time": 222.946,
      "duration": 0.089,
      "velocity": 1,
      "hand": "right"
    },
    {
      "midi": 68,
      "time": 223.036,
      "duration": 0.089,
      "velocity": 1,
      "hand": "right"
    },
    {
      "midi": 56,
      "time": 223.125,
      "duration": 0.089,
      "velocity": 1,
      "hand": "left"
    },
    {
      "midi": 37,
      "time": 223.214,
      "duration": 0.179,
      "velocity": 1,
      "hand": "left"
    },
    {
      "midi": 63,
      "time": 223.214,
      "duration": 0.089,
      "velocity": 1,
      "hand": "right"
    },
    {
      "midi": 61,
      "time": 223.304,
      "duration": 0.089,
      "velocity": 1,
      "hand": "right"
    },
    {
      "midi": 52,
      "time": 223.393,
      "duration": 0.179,
      "velocity": 1,
      "hand": "left"
    },
    {
      "midi": 68,
      "time": 223.393,
      "duration": 0.089,
      "velocity": 1,
      "hand": "right"
    },
    {
      "midi": 56,
      "time": 223.482,
      "duration": 0.089,
      "velocity": 1,
      "hand": "left"
    },
    {
      "midi": 49,
      "time": 223.571,
      "duration": 0.179,
      "velocity": 1,
      "hand": "left"
    },
    {
      "midi": 69,
      "time": 223.571,
      "duration": 0.089,
      "velocity": 1,
      "hand": "right"
    },
    {
      "midi": 68,
      "time": 223.661,
      "duration": 0.089,
      "velocity": 1,
      "hand": "right"
    },
    {
      "midi": 44,
      "time": 223.75,
      "duration": 0.179,
      "velocity": 1,
      "hand": "left"
    },
    {
      "midi": 76,
      "time": 223.75,
      "duration": 0.089,
      "velocity": 1,
      "hand": "right"
    },
    {
      "midi": 64,
      "time": 223.839,
      "duration": 0.089,
      "velocity": 1,
      "hand": "right"
    },
    {
      "midi": 37,
      "time": 223.929,
      "duration": 0.179,
      "velocity": 1,
      "hand": "left"
    },
    {
      "midi": 69,
      "time": 223.929,
      "duration": 0.089,
      "velocity": 1,
      "hand": "right"
    },
    {
      "midi": 68,
      "time": 224.018,
      "duration": 0.089,
      "velocity": 1,
      "hand": "right"
    },
    {
      "midi": 54,
      "time": 224.107,
      "duration": 0.179,
      "velocity": 1,
      "hand": "left"
    },
    {
      "midi": 76,
      "time": 224.107,
      "duration": 0.089,
      "velocity": 1,
      "hand": "right"
    },
    {
      "midi": 64,
      "time": 224.196,
      "duration": 0.089,
      "velocity": 1,
      "hand": "right"
    },
    {
      "midi": 48,
      "time": 224.286,
      "duration": 0.179,
      "velocity": 1,
      "hand": "left"
    },
    {
      "midi": 69,
      "time": 224.286,
      "duration": 0.089,
      "velocity": 1,
      "hand": "right"
    },
    {
      "midi": 68,
      "time": 224.375,
      "duration": 0.089,
      "velocity": 1,
      "hand": "right"
    },
    {
      "midi": 44,
      "time": 224.464,
      "duration": 0.179,
      "velocity": 1,
      "hand": "left"
    },
    {
      "midi": 75,
      "time": 224.464,
      "duration": 0.089,
      "velocity": 1,
      "hand": "right"
    },
    {
      "midi": 63,
      "time": 224.554,
      "duration": 0.089,
      "velocity": 1,
      "hand": "right"
    },
    {
      "midi": 37,
      "time": 224.643,
      "duration": 0.179,
      "velocity": 1,
      "hand": "left"
    },
    {
      "midi": 69,
      "time": 224.643,
      "duration": 0.089,
      "velocity": 1,
      "hand": "right"
    },
    {
      "midi": 68,
      "time": 224.732,
      "duration": 0.089,
      "velocity": 1,
      "hand": "right"
    },
    {
      "midi": 52,
      "time": 224.821,
      "duration": 0.179,
      "velocity": 1,
      "hand": "left"
    },
    {
      "midi": 75,
      "time": 224.821,
      "duration": 0.089,
      "velocity": 1,
      "hand": "right"
    },
    {
      "midi": 63,
      "time": 224.911,
      "duration": 0.089,
      "velocity": 1,
      "hand": "right"
    },
    {
      "midi": 49,
      "time": 225,
      "duration": 0.179,
      "velocity": 1,
      "hand": "left"
    },
    {
      "midi": 69,
      "time": 225,
      "duration": 0.089,
      "velocity": 1,
      "hand": "right"
    },
    {
      "midi": 68,
      "time": 225.089,
      "duration": 0.089,
      "velocity": 1,
      "hand": "right"
    },
    {
      "midi": 44,
      "time": 225.179,
      "duration": 0.179,
      "velocity": 1,
      "hand": "left"
    },
    {
      "midi": 73,
      "time": 225.179,
      "duration": 0.089,
      "velocity": 1,
      "hand": "right"
    },
    {
      "midi": 61,
      "time": 225.268,
      "duration": 0.089,
      "velocity": 1,
      "hand": "right"
    },
    {
      "midi": 37,
      "time": 225.357,
      "duration": 0.179,
      "velocity": 1,
      "hand": "left"
    },
    {
      "midi": 64,
      "time": 225.357,
      "duration": 0.089,
      "velocity": 1,
      "hand": "right"
    },
    {
      "midi": 63,
      "time": 225.446,
      "duration": 0.089,
      "velocity": 1,
      "hand": "right"
    },
    {
      "midi": 54,
      "time": 225.536,
      "duration": 0.179,
      "velocity": 1,
      "hand": "left"
    },
    {
      "midi": 68,
      "time": 225.536,
      "duration": 0.089,
      "velocity": 1,
      "hand": "right"
    },
    {
      "midi": 56,
      "time": 225.625,
      "duration": 0.089,
      "velocity": 1,
      "hand": "left"
    },
    {
      "midi": 48,
      "time": 225.714,
      "duration": 0.179,
      "velocity": 1,
      "hand": "left"
    },
    {
      "midi": 64,
      "time": 225.714,
      "duration": 0.089,
      "velocity": 1,
      "hand": "right"
    },
    {
      "midi": 63,
      "time": 225.804,
      "duration": 0.089,
      "velocity": 1,
      "hand": "right"
    },
    {
      "midi": 44,
      "time": 225.893,
      "duration": 0.179,
      "velocity": 1,
      "hand": "left"
    },
    {
      "midi": 68,
      "time": 225.893,
      "duration": 0.089,
      "velocity": 1,
      "hand": "right"
    },
    {
      "midi": 56,
      "time": 225.982,
      "duration": 0.089,
      "velocity": 1,
      "hand": "left"
    },
    {
      "midi": 37,
      "time": 226.071,
      "duration": 0.179,
      "velocity": 1,
      "hand": "left"
    },
    {
      "midi": 63,
      "time": 226.071,
      "duration": 0.089,
      "velocity": 1,
      "hand": "right"
    },
    {
      "midi": 61,
      "time": 226.161,
      "duration": 0.089,
      "velocity": 1,
      "hand": "right"
    },
    {
      "midi": 52,
      "time": 226.25,
      "duration": 0.179,
      "velocity": 1,
      "hand": "left"
    },
    {
      "midi": 68,
      "time": 226.25,
      "duration": 0.089,
      "velocity": 1,
      "hand": "right"
    },
    {
      "midi": 56,
      "time": 226.339,
      "duration": 0.089,
      "velocity": 1,
      "hand": "left"
    },
    {
      "midi": 49,
      "time": 226.429,
      "duration": 0.179,
      "velocity": 1,
      "hand": "left"
    },
    {
      "midi": 69,
      "time": 226.429,
      "duration": 0.089,
      "velocity": 1,
      "hand": "right"
    },
    {
      "midi": 68,
      "time": 226.518,
      "duration": 0.089,
      "velocity": 1,
      "hand": "right"
    },
    {
      "midi": 44,
      "time": 226.607,
      "duration": 0.179,
      "velocity": 1,
      "hand": "left"
    },
    {
      "midi": 76,
      "time": 226.607,
      "duration": 0.089,
      "velocity": 1,
      "hand": "right"
    },
    {
      "midi": 64,
      "time": 226.696,
      "duration": 0.089,
      "velocity": 1,
      "hand": "right"
    },
    {
      "midi": 37,
      "time": 226.786,
      "duration": 0.179,
      "velocity": 1,
      "hand": "left"
    },
    {
      "midi": 69,
      "time": 226.786,
      "duration": 0.089,
      "velocity": 1,
      "hand": "right"
    },
    {
      "midi": 68,
      "time": 226.875,
      "duration": 0.089,
      "velocity": 1,
      "hand": "right"
    },
    {
      "midi": 54,
      "time": 226.964,
      "duration": 0.179,
      "velocity": 1,
      "hand": "left"
    },
    {
      "midi": 76,
      "time": 226.964,
      "duration": 0.089,
      "velocity": 1,
      "hand": "right"
    },
    {
      "midi": 64,
      "time": 227.054,
      "duration": 0.089,
      "velocity": 1,
      "hand": "right"
    },
    {
      "midi": 48,
      "time": 227.143,
      "duration": 0.179,
      "velocity": 1,
      "hand": "left"
    },
    {
      "midi": 69,
      "time": 227.143,
      "duration": 0.089,
      "velocity": 1,
      "hand": "right"
    },
    {
      "midi": 68,
      "time": 227.232,
      "duration": 0.089,
      "velocity": 1,
      "hand": "right"
    },
    {
      "midi": 44,
      "time": 227.321,
      "duration": 0.179,
      "velocity": 1,
      "hand": "left"
    },
    {
      "midi": 75,
      "time": 227.321,
      "duration": 0.089,
      "velocity": 1,
      "hand": "right"
    },
    {
      "midi": 63,
      "time": 227.411,
      "duration": 0.089,
      "velocity": 1,
      "hand": "right"
    },
    {
      "midi": 37,
      "time": 227.5,
      "duration": 0.179,
      "velocity": 1,
      "hand": "left"
    },
    {
      "midi": 69,
      "time": 227.5,
      "duration": 0.089,
      "velocity": 1,
      "hand": "right"
    },
    {
      "midi": 68,
      "time": 227.589,
      "duration": 0.089,
      "velocity": 1,
      "hand": "right"
    },
    {
      "midi": 52,
      "time": 227.679,
      "duration": 0.179,
      "velocity": 1,
      "hand": "left"
    },
    {
      "midi": 75,
      "time": 227.679,
      "duration": 0.089,
      "velocity": 1,
      "hand": "right"
    },
    {
      "midi": 63,
      "time": 227.768,
      "duration": 0.089,
      "velocity": 1,
      "hand": "right"
    },
    {
      "midi": 49,
      "time": 227.857,
      "duration": 0.179,
      "velocity": 1,
      "hand": "left"
    },
    {
      "midi": 69,
      "time": 227.857,
      "duration": 0.089,
      "velocity": 1,
      "hand": "right"
    },
    {
      "midi": 68,
      "time": 227.946,
      "duration": 0.089,
      "velocity": 1,
      "hand": "right"
    },
    {
      "midi": 44,
      "time": 228.036,
      "duration": 0.179,
      "velocity": 1,
      "hand": "left"
    },
    {
      "midi": 73,
      "time": 228.036,
      "duration": 0.089,
      "velocity": 1,
      "hand": "right"
    },
    {
      "midi": 61,
      "time": 228.125,
      "duration": 0.089,
      "velocity": 1,
      "hand": "right"
    },
    {
      "midi": 37,
      "time": 228.214,
      "duration": 0.179,
      "velocity": 1,
      "hand": "left"
    },
    {
      "midi": 64,
      "time": 228.214,
      "duration": 0.089,
      "velocity": 1,
      "hand": "right"
    },
    {
      "midi": 63,
      "time": 228.304,
      "duration": 0.089,
      "velocity": 1,
      "hand": "right"
    },
    {
      "midi": 54,
      "time": 228.393,
      "duration": 0.179,
      "velocity": 1,
      "hand": "left"
    },
    {
      "midi": 68,
      "time": 228.393,
      "duration": 0.089,
      "velocity": 1,
      "hand": "right"
    },
    {
      "midi": 56,
      "time": 228.482,
      "duration": 0.089,
      "velocity": 1,
      "hand": "left"
    },
    {
      "midi": 48,
      "time": 228.571,
      "duration": 0.179,
      "velocity": 1,
      "hand": "left"
    },
    {
      "midi": 64,
      "time": 228.571,
      "duration": 0.089,
      "velocity": 1,
      "hand": "right"
    },
    {
      "midi": 63,
      "time": 228.661,
      "duration": 0.089,
      "velocity": 1,
      "hand": "right"
    },
    {
      "midi": 44,
      "time": 228.75,
      "duration": 0.179,
      "velocity": 1,
      "hand": "left"
    },
    {
      "midi": 68,
      "time": 228.75,
      "duration": 0.089,
      "velocity": 1,
      "hand": "right"
    },
    {
      "midi": 56,
      "time": 228.839,
      "duration": 0.089,
      "velocity": 1,
      "hand": "left"
    },
    {
      "midi": 37,
      "time": 228.929,
      "duration": 0.179,
      "velocity": 1,
      "hand": "left"
    },
    {
      "midi": 63,
      "time": 228.929,
      "duration": 0.089,
      "velocity": 1,
      "hand": "right"
    },
    {
      "midi": 61,
      "time": 229.018,
      "duration": 0.089,
      "velocity": 1,
      "hand": "right"
    },
    {
      "midi": 52,
      "time": 229.107,
      "duration": 0.179,
      "velocity": 1,
      "hand": "left"
    },
    {
      "midi": 68,
      "time": 229.107,
      "duration": 0.089,
      "velocity": 1,
      "hand": "right"
    },
    {
      "midi": 56,
      "time": 229.196,
      "duration": 0.089,
      "velocity": 1,
      "hand": "left"
    },
    {
      "midi": 49,
      "time": 229.286,
      "duration": 0.179,
      "velocity": 1,
      "hand": "left"
    },
    {
      "midi": 69,
      "time": 229.286,
      "duration": 0.089,
      "velocity": 1,
      "hand": "right"
    },
    {
      "midi": 68,
      "time": 229.375,
      "duration": 0.089,
      "velocity": 1,
      "hand": "right"
    },
    {
      "midi": 44,
      "time": 229.464,
      "duration": 0.179,
      "velocity": 1,
      "hand": "left"
    },
    {
      "midi": 76,
      "time": 229.464,
      "duration": 0.089,
      "velocity": 1,
      "hand": "right"
    },
    {
      "midi": 64,
      "time": 229.554,
      "duration": 0.089,
      "velocity": 1,
      "hand": "right"
    },
    {
      "midi": 37,
      "time": 229.643,
      "duration": 0.179,
      "velocity": 1,
      "hand": "left"
    },
    {
      "midi": 66,
      "time": 229.643,
      "duration": 0.089,
      "velocity": 1,
      "hand": "right"
    },
    {
      "midi": 64,
      "time": 229.732,
      "duration": 0.089,
      "velocity": 1,
      "hand": "right"
    },
    {
      "midi": 56,
      "time": 229.821,
      "duration": 0.179,
      "velocity": 1,
      "hand": "left"
    },
    {
      "midi": 73,
      "time": 229.821,
      "duration": 0.089,
      "velocity": 1,
      "hand": "right"
    },
    {
      "midi": 61,
      "time": 229.911,
      "duration": 0.089,
      "velocity": 1,
      "hand": "right"
    },
    {
      "midi": 49,
      "time": 230,
      "duration": 0.179,
      "velocity": 1,
      "hand": "left"
    },
    {
      "midi": 69,
      "time": 230,
      "duration": 0.089,
      "velocity": 1,
      "hand": "right"
    },
    {
      "midi": 68,
      "time": 230.089,
      "duration": 0.089,
      "velocity": 1,
      "hand": "right"
    },
    {
      "midi": 44,
      "time": 230.179,
      "duration": 0.179,
      "velocity": 1,
      "hand": "left"
    },
    {
      "midi": 76,
      "time": 230.179,
      "duration": 0.089,
      "velocity": 1,
      "hand": "right"
    },
    {
      "midi": 64,
      "time": 230.268,
      "duration": 0.089,
      "velocity": 1,
      "hand": "right"
    },
    {
      "midi": 37,
      "time": 230.357,
      "duration": 0.179,
      "velocity": 1,
      "hand": "left"
    },
    {
      "midi": 63,
      "time": 230.357,
      "duration": 0.089,
      "velocity": 1,
      "hand": "right"
    },
    {
      "midi": 61,
      "time": 230.446,
      "duration": 0.089,
      "velocity": 1,
      "hand": "right"
    },
    {
      "midi": 52,
      "time": 230.536,
      "duration": 0.179,
      "velocity": 1,
      "hand": "left"
    },
    {
      "midi": 68,
      "time": 230.536,
      "duration": 0.089,
      "velocity": 1,
      "hand": "right"
    },
    {
      "midi": 56,
      "time": 230.625,
      "duration": 0.089,
      "velocity": 1,
      "hand": "left"
    },
    {
      "midi": 49,
      "time": 230.714,
      "duration": 0.179,
      "velocity": 1,
      "hand": "left"
    },
    {
      "midi": 69,
      "time": 230.714,
      "duration": 0.089,
      "velocity": 1,
      "hand": "right"
    },
    {
      "midi": 68,
      "time": 230.804,
      "duration": 0.089,
      "velocity": 1,
      "hand": "right"
    },
    {
      "midi": 44,
      "time": 230.893,
      "duration": 0.179,
      "velocity": 1,
      "hand": "left"
    },
    {
      "midi": 76,
      "time": 230.893,
      "duration": 0.089,
      "velocity": 1,
      "hand": "right"
    },
    {
      "midi": 64,
      "time": 230.982,
      "duration": 0.089,
      "velocity": 1,
      "hand": "right"
    },
    {
      "midi": 37,
      "time": 231.071,
      "duration": 0.179,
      "velocity": 1,
      "hand": "left"
    },
    {
      "midi": 66,
      "time": 231.071,
      "duration": 0.089,
      "velocity": 1,
      "hand": "right"
    },
    {
      "midi": 64,
      "time": 231.161,
      "duration": 0.089,
      "velocity": 1,
      "hand": "right"
    },
    {
      "midi": 56,
      "time": 231.25,
      "duration": 0.179,
      "velocity": 1,
      "hand": "left"
    },
    {
      "midi": 73,
      "time": 231.25,
      "duration": 0.089,
      "velocity": 1,
      "hand": "right"
    },
    {
      "midi": 61,
      "time": 231.339,
      "duration": 0.089,
      "velocity": 1,
      "hand": "right"
    },
    {
      "midi": 49,
      "time": 231.429,
      "duration": 0.179,
      "velocity": 1,
      "hand": "left"
    },
    {
      "midi": 69,
      "time": 231.429,
      "duration": 0.089,
      "velocity": 1,
      "hand": "right"
    },
    {
      "midi": 68,
      "time": 231.518,
      "duration": 0.089,
      "velocity": 1,
      "hand": "right"
    },
    {
      "midi": 44,
      "time": 231.607,
      "duration": 0.179,
      "velocity": 1,
      "hand": "left"
    },
    {
      "midi": 76,
      "time": 231.607,
      "duration": 0.089,
      "velocity": 1,
      "hand": "right"
    },
    {
      "midi": 64,
      "time": 231.696,
      "duration": 0.089,
      "velocity": 1,
      "hand": "right"
    },
    {
      "midi": 37,
      "time": 231.786,
      "duration": 0.179,
      "velocity": 1,
      "hand": "left"
    },
    {
      "midi": 66,
      "time": 231.786,
      "duration": 0.089,
      "velocity": 1,
      "hand": "right"
    },
    {
      "midi": 64,
      "time": 231.875,
      "duration": 0.089,
      "velocity": 1,
      "hand": "right"
    },
    {
      "midi": 52,
      "time": 231.964,
      "duration": 0.179,
      "velocity": 1,
      "hand": "left"
    },
    {
      "midi": 73,
      "time": 231.964,
      "duration": 0.089,
      "velocity": 1,
      "hand": "right"
    },
    {
      "midi": 61,
      "time": 232.054,
      "duration": 0.089,
      "velocity": 1,
      "hand": "right"
    },
    {
      "midi": 49,
      "time": 232.143,
      "duration": 0.179,
      "velocity": 1,
      "hand": "left"
    },
    {
      "midi": 69,
      "time": 232.143,
      "duration": 0.089,
      "velocity": 1,
      "hand": "right"
    },
    {
      "midi": 68,
      "time": 232.232,
      "duration": 0.089,
      "velocity": 1,
      "hand": "right"
    },
    {
      "midi": 44,
      "time": 232.321,
      "duration": 0.179,
      "velocity": 1,
      "hand": "left"
    },
    {
      "midi": 73,
      "time": 232.321,
      "duration": 0.089,
      "velocity": 1,
      "hand": "right"
    },
    {
      "midi": 61,
      "time": 232.411,
      "duration": 0.089,
      "velocity": 1,
      "hand": "right"
    },
    {
      "midi": 37,
      "time": 232.5,
      "duration": 0.179,
      "velocity": 1,
      "hand": "left"
    },
    {
      "midi": 66,
      "time": 232.5,
      "duration": 0.089,
      "velocity": 1,
      "hand": "right"
    },
    {
      "midi": 64,
      "time": 232.589,
      "duration": 0.089,
      "velocity": 1,
      "hand": "right"
    },
    {
      "midi": 52,
      "time": 232.679,
      "duration": 0.179,
      "velocity": 1,
      "hand": "left"
    },
    {
      "midi": 73,
      "time": 232.679,
      "duration": 0.089,
      "velocity": 1,
      "hand": "right"
    },
    {
      "midi": 61,
      "time": 232.768,
      "duration": 0.089,
      "velocity": 1,
      "hand": "right"
    },
    {
      "midi": 49,
      "time": 232.857,
      "duration": 0.179,
      "velocity": 1,
      "hand": "left"
    },
    {
      "midi": 69,
      "time": 232.857,
      "duration": 0.089,
      "velocity": 1,
      "hand": "right"
    },
    {
      "midi": 68,
      "time": 232.946,
      "duration": 0.089,
      "velocity": 1,
      "hand": "right"
    },
    {
      "midi": 44,
      "time": 233.036,
      "duration": 0.179,
      "velocity": 1,
      "hand": "left"
    },
    {
      "midi": 73,
      "time": 233.036,
      "duration": 0.089,
      "velocity": 1,
      "hand": "right"
    },
    {
      "midi": 61,
      "time": 233.125,
      "duration": 0.089,
      "velocity": 1,
      "hand": "right"
    },
    {
      "midi": 37,
      "time": 233.214,
      "duration": 0.179,
      "velocity": 1,
      "hand": "left"
    },
    {
      "midi": 66,
      "time": 233.214,
      "duration": 0.089,
      "velocity": 1,
      "hand": "right"
    },
    {
      "midi": 64,
      "time": 233.304,
      "duration": 0.089,
      "velocity": 1,
      "hand": "right"
    },
    {
      "midi": 52,
      "time": 233.393,
      "duration": 0.179,
      "velocity": 1,
      "hand": "left"
    },
    {
      "midi": 73,
      "time": 233.393,
      "duration": 0.089,
      "velocity": 1,
      "hand": "right"
    },
    {
      "midi": 61,
      "time": 233.482,
      "duration": 0.089,
      "velocity": 1,
      "hand": "right"
    },
    {
      "midi": 49,
      "time": 233.571,
      "duration": 0.179,
      "velocity": 1,
      "hand": "left"
    },
    {
      "midi": 69,
      "time": 233.571,
      "duration": 0.089,
      "velocity": 1,
      "hand": "right"
    },
    {
      "midi": 68,
      "time": 233.661,
      "duration": 0.089,
      "velocity": 1,
      "hand": "right"
    },
    {
      "midi": 44,
      "time": 233.75,
      "duration": 0.179,
      "velocity": 1,
      "hand": "left"
    },
    {
      "midi": 73,
      "time": 233.75,
      "duration": 0.089,
      "velocity": 1,
      "hand": "right"
    },
    {
      "midi": 61,
      "time": 233.839,
      "duration": 0.089,
      "velocity": 1,
      "hand": "right"
    },
    {
      "midi": 37,
      "time": 233.929,
      "duration": 0.179,
      "velocity": 1,
      "hand": "left"
    },
    {
      "midi": 66,
      "time": 233.929,
      "duration": 0.089,
      "velocity": 1,
      "hand": "right"
    },
    {
      "midi": 64,
      "time": 234.018,
      "duration": 0.089,
      "velocity": 1,
      "hand": "right"
    },
    {
      "midi": 52,
      "time": 234.107,
      "duration": 0.179,
      "velocity": 1,
      "hand": "left"
    },
    {
      "midi": 73,
      "time": 234.107,
      "duration": 0.089,
      "velocity": 1,
      "hand": "right"
    },
    {
      "midi": 61,
      "time": 234.196,
      "duration": 0.089,
      "velocity": 1,
      "hand": "right"
    },
    {
      "midi": 49,
      "time": 234.286,
      "duration": 0.179,
      "velocity": 1,
      "hand": "left"
    },
    {
      "midi": 69,
      "time": 234.286,
      "duration": 0.089,
      "velocity": 1,
      "hand": "right"
    },
    {
      "midi": 68,
      "time": 234.375,
      "duration": 0.089,
      "velocity": 1,
      "hand": "right"
    },
    {
      "midi": 44,
      "time": 234.464,
      "duration": 0.179,
      "velocity": 1,
      "hand": "left"
    },
    {
      "midi": 73,
      "time": 234.464,
      "duration": 0.089,
      "velocity": 1,
      "hand": "right"
    },
    {
      "midi": 61,
      "time": 234.554,
      "duration": 0.089,
      "velocity": 1,
      "hand": "right"
    },
    {
      "midi": 37,
      "time": 234.643,
      "duration": 0.357,
      "velocity": 1,
      "hand": "left"
    },
    {
      "midi": 63,
      "time": 234.643,
      "duration": 0.089,
      "velocity": 1,
      "hand": "right"
    },
    {
      "midi": 61,
      "time": 234.732,
      "duration": 0.089,
      "velocity": 1,
      "hand": "right"
    },
    {
      "midi": 68,
      "time": 234.821,
      "duration": 0.089,
      "velocity": 1,
      "hand": "right"
    },
    {
      "midi": 56,
      "time": 234.911,
      "duration": 0.089,
      "velocity": 1,
      "hand": "left"
    },
    {
      "midi": 63,
      "time": 235,
      "duration": 0.089,
      "velocity": 1,
      "hand": "right"
    },
    {
      "midi": 61,
      "time": 235.089,
      "duration": 0.089,
      "velocity": 1,
      "hand": "right"
    },
    {
      "midi": 68,
      "time": 235.179,
      "duration": 0.089,
      "velocity": 1,
      "hand": "right"
    },
    {
      "midi": 56,
      "time": 235.268,
      "duration": 0.089,
      "velocity": 1,
      "hand": "left"
    },
    {
      "midi": 63,
      "time": 235.357,
      "duration": 0.089,
      "velocity": 1,
      "hand": "right"
    },
    {
      "midi": 61,
      "time": 235.446,
      "duration": 0.089,
      "velocity": 1,
      "hand": "right"
    },
    {
      "midi": 68,
      "time": 235.536,
      "duration": 0.089,
      "velocity": 1,
      "hand": "right"
    },
    {
      "midi": 56,
      "time": 235.625,
      "duration": 0.089,
      "velocity": 1,
      "hand": "left"
    },
    {
      "midi": 63,
      "time": 235.714,
      "duration": 0.089,
      "velocity": 1,
      "hand": "right"
    },
    {
      "midi": 61,
      "time": 235.804,
      "duration": 0.089,
      "velocity": 1,
      "hand": "right"
    },
    {
      "midi": 68,
      "time": 235.893,
      "duration": 0.089,
      "velocity": 1,
      "hand": "right"
    },
    {
      "midi": 56,
      "time": 235.982,
      "duration": 0.089,
      "velocity": 1,
      "hand": "left"
    },
    {
      "midi": 63,
      "time": 236.071,
      "duration": 0.089,
      "velocity": 1,
      "hand": "right"
    },
    {
      "midi": 61,
      "time": 236.161,
      "duration": 0.089,
      "velocity": 1,
      "hand": "right"
    },
    {
      "midi": 68,
      "time": 236.25,
      "duration": 0.089,
      "velocity": 1,
      "hand": "right"
    },
    {
      "midi": 56,
      "time": 236.339,
      "duration": 0.089,
      "velocity": 1,
      "hand": "left"
    },
    {
      "midi": 63,
      "time": 236.429,
      "duration": 0.089,
      "velocity": 1,
      "hand": "right"
    },
    {
      "midi": 61,
      "time": 236.518,
      "duration": 0.089,
      "velocity": 1,
      "hand": "right"
    },
    {
      "midi": 68,
      "time": 236.607,
      "duration": 0.089,
      "velocity": 1,
      "hand": "right"
    },
    {
      "midi": 56,
      "time": 236.696,
      "duration": 0.089,
      "velocity": 1,
      "hand": "left"
    },
    {
      "midi": 63,
      "time": 236.786,
      "duration": 0.089,
      "velocity": 1,
      "hand": "right"
    },
    {
      "midi": 61,
      "time": 236.875,
      "duration": 0.089,
      "velocity": 1,
      "hand": "right"
    },
    {
      "midi": 68,
      "time": 236.964,
      "duration": 0.089,
      "velocity": 1,
      "hand": "right"
    },
    {
      "midi": 56,
      "time": 237.054,
      "duration": 0.089,
      "velocity": 1,
      "hand": "left"
    },
    {
      "midi": 63,
      "time": 237.143,
      "duration": 0.089,
      "velocity": 1,
      "hand": "right"
    },
    {
      "midi": 61,
      "time": 237.232,
      "duration": 0.089,
      "velocity": 1,
      "hand": "right"
    },
    {
      "midi": 68,
      "time": 237.321,
      "duration": 0.089,
      "velocity": 1,
      "hand": "right"
    },
    {
      "midi": 56,
      "time": 237.411,
      "duration": 0.089,
      "velocity": 1,
      "hand": "left"
    },
    {
      "midi": 37,
      "time": 237.5,
      "duration": 1.429,
      "velocity": 1,
      "hand": "left"
    },
    {
      "midi": 44,
      "time": 237.5,
      "duration": 1.429,
      "velocity": 1,
      "hand": "left"
    },
    {
      "midi": 63,
      "time": 237.5,
      "duration": 0.089,
      "velocity": 1,
      "hand": "right"
    },
    {
      "midi": 61,
      "time": 237.589,
      "duration": 0.089,
      "velocity": 1,
      "hand": "right"
    },
    {
      "midi": 68,
      "time": 237.679,
      "duration": 0.089,
      "velocity": 1,
      "hand": "right"
    },
    {
      "midi": 56,
      "time": 237.768,
      "duration": 0.089,
      "velocity": 1,
      "hand": "left"
    },
    {
      "midi": 63,
      "time": 237.857,
      "duration": 0.089,
      "velocity": 1,
      "hand": "right"
    },
    {
      "midi": 61,
      "time": 237.946,
      "duration": 0.089,
      "velocity": 1,
      "hand": "right"
    },
    {
      "midi": 68,
      "time": 238.036,
      "duration": 0.089,
      "velocity": 1,
      "hand": "right"
    },
    {
      "midi": 56,
      "time": 238.125,
      "duration": 0.089,
      "velocity": 1,
      "hand": "left"
    },
    {
      "midi": 63,
      "time": 238.214,
      "duration": 0.089,
      "velocity": 1,
      "hand": "right"
    },
    {
      "midi": 61,
      "time": 238.304,
      "duration": 0.089,
      "velocity": 1,
      "hand": "right"
    },
    {
      "midi": 68,
      "time": 238.393,
      "duration": 0.089,
      "velocity": 1,
      "hand": "right"
    },
    {
      "midi": 56,
      "time": 238.482,
      "duration": 0.089,
      "velocity": 1,
      "hand": "left"
    },
    {
      "midi": 63,
      "time": 238.571,
      "duration": 0.089,
      "velocity": 1,
      "hand": "right"
    },
    {
      "midi": 61,
      "time": 238.661,
      "duration": 0.089,
      "velocity": 1,
      "hand": "right"
    },
    {
      "midi": 68,
      "time": 238.75,
      "duration": 0.089,
      "velocity": 1,
      "hand": "right"
    },
    {
      "midi": 56,
      "time": 238.839,
      "duration": 0.089,
      "velocity": 1,
      "hand": "left"
    },
    {
      "midi": 46,
      "time": 238.929,
      "duration": 0.357,
      "velocity": 1,
      "hand": "left"
    },
    {
      "midi": 63,
      "time": 238.929,
      "duration": 0.089,
      "velocity": 1,
      "hand": "right"
    },
    {
      "midi": 61,
      "time": 239.018,
      "duration": 0.089,
      "velocity": 1,
      "hand": "right"
    },
    {
      "midi": 68,
      "time": 239.107,
      "duration": 0.089,
      "velocity": 1,
      "hand": "right"
    },
    {
      "midi": 56,
      "time": 239.196,
      "duration": 0.089,
      "velocity": 1,
      "hand": "left"
    },
    {
      "midi": 44,
      "time": 239.286,
      "duration": 0.357,
      "velocity": 1,
      "hand": "left"
    },
    {
      "midi": 63,
      "time": 239.286,
      "duration": 0.089,
      "velocity": 1,
      "hand": "right"
    },
    {
      "midi": 61,
      "time": 239.375,
      "duration": 0.089,
      "velocity": 1,
      "hand": "right"
    },
    {
      "midi": 68,
      "time": 239.464,
      "duration": 0.089,
      "velocity": 1,
      "hand": "right"
    },
    {
      "midi": 56,
      "time": 239.554,
      "duration": 0.089,
      "velocity": 1,
      "hand": "left"
    },
    {
      "midi": 49,
      "time": 239.643,
      "duration": 0.357,
      "velocity": 1,
      "hand": "left"
    },
    {
      "midi": 63,
      "time": 239.643,
      "duration": 0.089,
      "velocity": 1,
      "hand": "right"
    },
    {
      "midi": 61,
      "time": 239.732,
      "duration": 0.089,
      "velocity": 1,
      "hand": "right"
    },
    {
      "midi": 68,
      "time": 239.821,
      "duration": 0.089,
      "velocity": 1,
      "hand": "right"
    },
    {
      "midi": 56,
      "time": 239.911,
      "duration": 0.089,
      "velocity": 1,
      "hand": "left"
    },
    {
      "midi": 51,
      "time": 240,
      "duration": 0.357,
      "velocity": 1,
      "hand": "left"
    },
    {
      "midi": 63,
      "time": 240,
      "duration": 0.089,
      "velocity": 1,
      "hand": "right"
    },
    {
      "midi": 61,
      "time": 240.089,
      "duration": 0.089,
      "velocity": 1,
      "hand": "right"
    },
    {
      "midi": 68,
      "time": 240.179,
      "duration": 0.089,
      "velocity": 1,
      "hand": "right"
    },
    {
      "midi": 56,
      "time": 240.268,
      "duration": 0.089,
      "velocity": 1,
      "hand": "left"
    },
    {
      "midi": 53,
      "time": 240.357,
      "duration": 1.429,
      "velocity": 1,
      "hand": "left"
    },
    {
      "midi": 63,
      "time": 240.357,
      "duration": 0.089,
      "velocity": 1,
      "hand": "right"
    },
    {
      "midi": 61,
      "time": 240.446,
      "duration": 0.089,
      "velocity": 1,
      "hand": "right"
    },
    {
      "midi": 68,
      "time": 240.536,
      "duration": 0.089,
      "velocity": 1,
      "hand": "right"
    },
    {
      "midi": 56,
      "time": 240.625,
      "duration": 0.089,
      "velocity": 1,
      "hand": "left"
    },
    {
      "midi": 63,
      "time": 240.714,
      "duration": 0.089,
      "velocity": 1,
      "hand": "right"
    },
    {
      "midi": 61,
      "time": 240.804,
      "duration": 0.089,
      "velocity": 1,
      "hand": "right"
    },
    {
      "midi": 68,
      "time": 240.893,
      "duration": 0.089,
      "velocity": 1,
      "hand": "right"
    },
    {
      "midi": 56,
      "time": 240.982,
      "duration": 0.089,
      "velocity": 1,
      "hand": "left"
    },
    {
      "midi": 63,
      "time": 241.071,
      "duration": 0.089,
      "velocity": 1,
      "hand": "right"
    },
    {
      "midi": 61,
      "time": 241.161,
      "duration": 0.089,
      "velocity": 1,
      "hand": "right"
    },
    {
      "midi": 68,
      "time": 241.25,
      "duration": 0.089,
      "velocity": 1,
      "hand": "right"
    },
    {
      "midi": 56,
      "time": 241.339,
      "duration": 0.089,
      "velocity": 1,
      "hand": "left"
    },
    {
      "midi": 63,
      "time": 241.429,
      "duration": 0.089,
      "velocity": 1,
      "hand": "right"
    },
    {
      "midi": 61,
      "time": 241.518,
      "duration": 0.089,
      "velocity": 1,
      "hand": "right"
    },
    {
      "midi": 68,
      "time": 241.607,
      "duration": 0.089,
      "velocity": 1,
      "hand": "right"
    },
    {
      "midi": 56,
      "time": 241.696,
      "duration": 0.089,
      "velocity": 1,
      "hand": "left"
    },
    {
      "midi": 56,
      "time": 241.786,
      "duration": 1.429,
      "velocity": 1,
      "hand": "left"
    },
    {
      "midi": 63,
      "time": 241.786,
      "duration": 0.089,
      "velocity": 1,
      "hand": "right"
    },
    {
      "midi": 61,
      "time": 241.875,
      "duration": 0.089,
      "velocity": 1,
      "hand": "right"
    },
    {
      "midi": 68,
      "time": 241.964,
      "duration": 0.089,
      "velocity": 1,
      "hand": "right"
    },
    {
      "midi": 56,
      "time": 242.054,
      "duration": 0.089,
      "velocity": 1,
      "hand": "left"
    },
    {
      "midi": 63,
      "time": 242.143,
      "duration": 0.089,
      "velocity": 1,
      "hand": "right"
    },
    {
      "midi": 61,
      "time": 242.232,
      "duration": 0.089,
      "velocity": 1,
      "hand": "right"
    },
    {
      "midi": 68,
      "time": 242.321,
      "duration": 0.089,
      "velocity": 1,
      "hand": "right"
    },
    {
      "midi": 56,
      "time": 242.411,
      "duration": 0.089,
      "velocity": 1,
      "hand": "left"
    },
    {
      "midi": 63,
      "time": 242.5,
      "duration": 0.089,
      "velocity": 1,
      "hand": "right"
    },
    {
      "midi": 61,
      "time": 242.589,
      "duration": 0.089,
      "velocity": 1,
      "hand": "right"
    },
    {
      "midi": 68,
      "time": 242.679,
      "duration": 0.089,
      "velocity": 1,
      "hand": "right"
    },
    {
      "midi": 56,
      "time": 242.768,
      "duration": 0.089,
      "velocity": 1,
      "hand": "left"
    },
    {
      "midi": 63,
      "time": 242.857,
      "duration": 0.089,
      "velocity": 1,
      "hand": "right"
    },
    {
      "midi": 61,
      "time": 242.946,
      "duration": 0.089,
      "velocity": 1,
      "hand": "right"
    },
    {
      "midi": 68,
      "time": 243.036,
      "duration": 0.089,
      "velocity": 1,
      "hand": "right"
    },
    {
      "midi": 56,
      "time": 243.125,
      "duration": 0.089,
      "velocity": 1,
      "hand": "left"
    },
    {
      "midi": 54,
      "time": 243.214,
      "duration": 0.714,
      "velocity": 1,
      "hand": "left"
    },
    {
      "midi": 63,
      "time": 243.214,
      "duration": 0.089,
      "velocity": 1,
      "hand": "right"
    },
    {
      "midi": 61,
      "time": 243.304,
      "duration": 0.089,
      "velocity": 1,
      "hand": "right"
    },
    {
      "midi": 68,
      "time": 243.393,
      "duration": 0.089,
      "velocity": 1,
      "hand": "right"
    },
    {
      "midi": 56,
      "time": 243.482,
      "duration": 0.089,
      "velocity": 1,
      "hand": "left"
    },
    {
      "midi": 63,
      "time": 243.571,
      "duration": 0.089,
      "velocity": 1,
      "hand": "right"
    },
    {
      "midi": 61,
      "time": 243.661,
      "duration": 0.089,
      "velocity": 1,
      "hand": "right"
    },
    {
      "midi": 68,
      "time": 243.75,
      "duration": 0.089,
      "velocity": 1,
      "hand": "right"
    },
    {
      "midi": 56,
      "time": 243.839,
      "duration": 0.089,
      "velocity": 1,
      "hand": "left"
    },
    {
      "midi": 53,
      "time": 243.929,
      "duration": 0.714,
      "velocity": 1,
      "hand": "left"
    },
    {
      "midi": 63,
      "time": 243.929,
      "duration": 0.089,
      "velocity": 1,
      "hand": "right"
    },
    {
      "midi": 61,
      "time": 244.018,
      "duration": 0.089,
      "velocity": 1,
      "hand": "right"
    },
    {
      "midi": 68,
      "time": 244.107,
      "duration": 0.089,
      "velocity": 1,
      "hand": "right"
    },
    {
      "midi": 56,
      "time": 244.196,
      "duration": 0.089,
      "velocity": 1,
      "hand": "left"
    },
    {
      "midi": 63,
      "time": 244.286,
      "duration": 0.089,
      "velocity": 1,
      "hand": "right"
    },
    {
      "midi": 61,
      "time": 244.375,
      "duration": 0.089,
      "velocity": 1,
      "hand": "right"
    },
    {
      "midi": 68,
      "time": 244.464,
      "duration": 0.089,
      "velocity": 1,
      "hand": "right"
    },
    {
      "midi": 56,
      "time": 244.554,
      "duration": 0.089,
      "velocity": 1,
      "hand": "left"
    },
    {
      "midi": 51,
      "time": 244.643,
      "duration": 0.714,
      "velocity": 1,
      "hand": "left"
    },
    {
      "midi": 63,
      "time": 244.643,
      "duration": 0.089,
      "velocity": 1,
      "hand": "right"
    },
    {
      "midi": 61,
      "time": 244.732,
      "duration": 0.089,
      "velocity": 1,
      "hand": "right"
    },
    {
      "midi": 68,
      "time": 244.821,
      "duration": 0.089,
      "velocity": 1,
      "hand": "right"
    },
    {
      "midi": 56,
      "time": 244.911,
      "duration": 0.089,
      "velocity": 1,
      "hand": "left"
    },
    {
      "midi": 63,
      "time": 245,
      "duration": 0.089,
      "velocity": 1,
      "hand": "right"
    },
    {
      "midi": 61,
      "time": 245.089,
      "duration": 0.089,
      "velocity": 1,
      "hand": "right"
    },
    {
      "midi": 68,
      "time": 245.179,
      "duration": 0.089,
      "velocity": 1,
      "hand": "right"
    },
    {
      "midi": 56,
      "time": 245.268,
      "duration": 0.089,
      "velocity": 1,
      "hand": "left"
    },
    {
      "midi": 53,
      "time": 245.357,
      "duration": 0.357,
      "velocity": 1,
      "hand": "left"
    },
    {
      "midi": 63,
      "time": 245.357,
      "duration": 0.089,
      "velocity": 1,
      "hand": "right"
    },
    {
      "midi": 61,
      "time": 245.446,
      "duration": 0.089,
      "velocity": 1,
      "hand": "right"
    },
    {
      "midi": 68,
      "time": 245.536,
      "duration": 0.089,
      "velocity": 1,
      "hand": "right"
    },
    {
      "midi": 56,
      "time": 245.625,
      "duration": 0.089,
      "velocity": 1,
      "hand": "left"
    },
    {
      "midi": 49,
      "time": 245.714,
      "duration": 0.357,
      "velocity": 1,
      "hand": "left"
    },
    {
      "midi": 63,
      "time": 245.714,
      "duration": 0.089,
      "velocity": 1,
      "hand": "right"
    },
    {
      "midi": 61,
      "time": 245.804,
      "duration": 0.089,
      "velocity": 1,
      "hand": "right"
    },
    {
      "midi": 68,
      "time": 245.893,
      "duration": 0.089,
      "velocity": 1,
      "hand": "right"
    },
    {
      "midi": 56,
      "time": 245.982,
      "duration": 0.089,
      "velocity": 1,
      "hand": "left"
    },
    {
      "midi": 44,
      "time": 246.071,
      "duration": 1.429,
      "velocity": 1,
      "hand": "left"
    },
    {
      "midi": 63,
      "time": 246.071,
      "duration": 0.089,
      "velocity": 1,
      "hand": "right"
    },
    {
      "midi": 61,
      "time": 246.161,
      "duration": 0.089,
      "velocity": 1,
      "hand": "right"
    },
    {
      "midi": 68,
      "time": 246.25,
      "duration": 0.089,
      "velocity": 1,
      "hand": "right"
    },
    {
      "midi": 53,
      "time": 246.339,
      "duration": 0.089,
      "velocity": 1,
      "hand": "left"
    },
    {
      "midi": 63,
      "time": 246.429,
      "duration": 0.089,
      "velocity": 1,
      "hand": "right"
    },
    {
      "midi": 61,
      "time": 246.518,
      "duration": 0.089,
      "velocity": 1,
      "hand": "right"
    },
    {
      "midi": 68,
      "time": 246.607,
      "duration": 0.089,
      "velocity": 1,
      "hand": "right"
    },
    {
      "midi": 53,
      "time": 246.696,
      "duration": 0.089,
      "velocity": 1,
      "hand": "left"
    },
    {
      "midi": 63,
      "time": 246.786,
      "duration": 0.089,
      "velocity": 1,
      "hand": "right"
    },
    {
      "midi": 61,
      "time": 246.875,
      "duration": 0.089,
      "velocity": 1,
      "hand": "right"
    },
    {
      "midi": 68,
      "time": 246.964,
      "duration": 0.089,
      "velocity": 1,
      "hand": "right"
    },
    {
      "midi": 53,
      "time": 247.054,
      "duration": 0.089,
      "velocity": 1,
      "hand": "left"
    },
    {
      "midi": 63,
      "time": 247.143,
      "duration": 0.089,
      "velocity": 1,
      "hand": "right"
    },
    {
      "midi": 61,
      "time": 247.232,
      "duration": 0.089,
      "velocity": 1,
      "hand": "right"
    },
    {
      "midi": 68,
      "time": 247.321,
      "duration": 0.089,
      "velocity": 1,
      "hand": "right"
    },
    {
      "midi": 53,
      "time": 247.411,
      "duration": 0.089,
      "velocity": 1,
      "hand": "left"
    },
    {
      "midi": 32,
      "time": 247.5,
      "duration": 1.964,
      "velocity": 1,
      "hand": "left"
    },
    {
      "midi": 44,
      "time": 247.5,
      "duration": 1.964,
      "velocity": 1,
      "hand": "left"
    },
    {
      "midi": 65,
      "time": 247.5,
      "duration": 0.089,
      "velocity": 1,
      "hand": "right"
    },
    {
      "midi": 63,
      "time": 247.679,
      "duration": 0.089,
      "velocity": 1,
      "hand": "right"
    },
    {
      "midi": 68,
      "time": 247.768,
      "duration": 0.089,
      "velocity": 1,
      "hand": "right"
    },
    {
      "midi": 56,
      "time": 247.857,
      "duration": 0.089,
      "velocity": 1,
      "hand": "left"
    },
    {
      "midi": 65,
      "time": 248.036,
      "duration": 0.089,
      "velocity": 1,
      "hand": "right"
    },
    {
      "midi": 63,
      "time": 248.125,
      "duration": 0.089,
      "velocity": 1,
      "hand": "right"
    },
    {
      "midi": 68,
      "time": 248.304,
      "duration": 0.089,
      "velocity": 1,
      "hand": "right"
    },
    {
      "midi": 56,
      "time": 248.393,
      "duration": 0.089,
      "velocity": 1,
      "hand": "left"
    },
    {
      "midi": 65,
      "time": 248.482,
      "duration": 0.089,
      "velocity": 1,
      "hand": "right"
    },
    {
      "midi": 63,
      "time": 248.661,
      "duration": 0.089,
      "velocity": 1,
      "hand": "right"
    },
    {
      "midi": 68,
      "time": 248.75,
      "duration": 0.089,
      "velocity": 1,
      "hand": "right"
    },
    {
      "midi": 56,
      "time": 248.929,
      "duration": 0.089,
      "velocity": 1,
      "hand": "left"
    },
    {
      "midi": 65,
      "time": 249.018,
      "duration": 0.089,
      "velocity": 1,
      "hand": "right"
    },
    {
      "midi": 63,
      "time": 249.107,
      "duration": 0.089,
      "velocity": 1,
      "hand": "right"
    },
    {
      "midi": 68,
      "time": 249.286,
      "duration": 0.089,
      "velocity": 1,
      "hand": "right"
    },
    {
      "midi": 56,
      "time": 249.375,
      "duration": 0.089,
      "velocity": 1,
      "hand": "left"
    },
    {
      "midi": 37,
      "time": 249.554,
      "duration": 1.964,
      "velocity": 1,
      "hand": "left"
    },
    {
      "midi": 44,
      "time": 249.554,
      "duration": 1.964,
      "velocity": 1,
      "hand": "left"
    },
    {
      "midi": 54,
      "time": 249.554,
      "duration": 1.964,
      "velocity": 1,
      "hand": "left"
    },
    {
      "midi": 56,
      "time": 249.554,
      "duration": 4.018,
      "velocity": 1,
      "hand": "left"
    },
    {
      "midi": 60,
      "time": 249.554,
      "duration": 1.964,
      "velocity": 1,
      "hand": "right"
    },
    {
      "midi": 63,
      "time": 249.554,
      "duration": 1.964,
      "velocity": 1,
      "hand": "right"
    },
    {
      "midi": 37,
      "time": 251.518,
      "duration": 1.964,
      "velocity": 1,
      "hand": "left"
    },
    {
      "midi": 44,
      "time": 251.518,
      "duration": 1.964,
      "velocity": 1,
      "hand": "left"
    },
    {
      "midi": 53,
      "time": 251.518,
      "duration": 1.964,
      "velocity": 1,
      "hand": "left"
    },
    {
      "midi": 61,
      "time": 251.518,
      "duration": 1.964,
      "velocity": 1,
      "hand": "right"
    }
  ]
}
